<svg version="1.1" viewBox="0.0 0.0 703.1102362204724 403.23359580052494" fill="none" stroke="none" stroke-linecap="square" stroke-miterlimit="10" xmlns:xlink="http://www.w3.org/1999/xlink" xmlns="http://www.w3.org/2000/svg"><clipPath id="p.0"><path d="m0 0l703.1102 0l0 403.23358l-703.1102 0l0 -403.23358z" clip-rule="nonzero"/></clipPath><g clip-path="url(#p.0)"><path fill="#ffffff" d="m0 0l703.1102 0l0 403.23358l-703.1102 0z" fill-rule="evenodd"/><path fill="#000000" fill-opacity="0.0" d="m265.75854 25.064743l0 0c0 -8.320028 6.74469 -15.064743 15.064728 -15.064743l394.27994 0c3.9954224 0 7.8272095 1.5871735 10.652405 4.412361c2.8251953 2.8251877 4.4123535 6.6569633 4.4123535 10.652382l0 344.98865c0 8.320007 -6.74469 15.064728 -15.064758 15.064728l-394.27994 0c-8.320038 0 -15.064728 -6.7447205 -15.064728 -15.064728z" fill-rule="evenodd"/><path stroke="#000000" stroke-width="3.0" stroke-linejoin="round" stroke-linecap="butt" d="m265.75854 25.064743l0 0c0 -8.320028 6.74469 -15.064743 15.064728 -15.064743l394.27994 0c3.9954224 0 7.8272095 1.5871735 10.652405 4.412361c2.8251953 2.8251877 4.4123535 6.6569633 4.4123535 10.652382l0 344.98865c0 8.320007 -6.74469 15.064728 -15.064758 15.064728l-394.27994 0c-8.320038 0 -15.064728 -6.7447205 -15.064728 -15.064728z" fill-rule="evenodd"/><path fill="#ffffff" d="m462.7848 54.93934l0 0c0 -4.8080482 3.8976746 -8.705742 8.705719 -8.705742l195.91135 0c2.308899 0 4.5232544 0.9172096 6.155884 2.5498505c1.6326904 1.6326447 2.5498657 3.8469849 2.5498657 6.1558914l0 82.62002c0 4.8080444 -3.897705 8.705734 -8.7057495 8.705734l-195.91135 0c-4.8080444 0 -8.705719 -3.8976898 -8.705719 -8.705734z" fill-rule="evenodd"/><path stroke="#666666" stroke-width="2.0" stroke-linejoin="round" stroke-linecap="butt" stroke-dasharray="8.0,6.0" d="m462.7848 54.93934l0 0c0 -4.8080482 3.8976746 -8.705742 8.705719 -8.705742l195.91135 0c2.308899 0 4.5232544 0.9172096 6.155884 2.5498505c1.6326904 1.6326447 2.5498657 3.8469849 2.5498657 6.1558914l0 82.62002c0 4.8080444 -3.897705 8.705734 -8.7057495 8.705734l-195.91135 0c-4.8080444 0 -8.705719 -3.8976898 -8.705719 -8.705734z" fill-rule="evenodd"/><path fill="#666666" d="m533.3888 87.34122q1.21875 2.03125 3.09375 4.46875l-0.015625 0.1875q-0.671875 0.265625 -1.390625 0.34375l-0.203125 -0.140625q-1.53125 -2.28125 -2.734375 -4.46875l-2.1875 0l0 0.703125l0.078125 3.734375l-1.515625 0l0.09375 -3.59375l-0.09375 -8.359375l3.65625 -0.03125q1.75 0 2.703125 0.890625q0.96875 0.890625 0.96875 2.53125q0 1.234375 -0.640625 2.21875q-0.640625 0.96875 -1.8125 1.515625zm-3.421875 -0.875l2.234375 0.046875q2.09375 -0.59375 2.09375 -2.78125q0 -1.140625 -0.625 -1.703125q-0.609375 -0.5625 -1.828125 -0.609375l-1.8125 0.0625l-0.0625 4.984375zm15.729248 4.546875l-0.109375 1.15625l-6.71875 0l0.09375 -3.59375l-0.09375 -8.359375l6.734375 0l0.078125 0.140625l-0.109375 1.15625l-2.828125 -0.046875l-2.359375 0.03125l-0.046875 3.921875l2.25 0.03125l1.96875 -0.046875l0.109375 0.125l-0.125 1.15625l-2.09375 -0.03125l-2.125 0.015625l-0.015625 1.765625l0.0625 2.484375l2.359375 0.015625l2.875 -0.078125l0.09375 0.15625zm5.4141846 -10.890625q1.28125 0 2.671875 0.546875l-0.25 1.4375l-0.265625 0.078125q-0.53125 -0.40625 -1.140625 -0.625q-0.609375 -0.234375 -1.203125 -0.234375q-0.6875 0 -1.203125 0.28125q-0.515625 0.28125 -0.796875 0.734375q-0.265625 0.4375 -0.265625 0.921875q0 0.515625 0.3125 0.90625q0.3125 0.375 0.765625 0.65625q0.46875 0.265625 1.28125 0.671875q1.0 0.453125 1.609375 0.859375q0.625 0.40625 1.0625 1.03125q0.4375 0.609375 0.4375 1.484375q0 0.921875 -0.5 1.71875q-0.5 0.78125 -1.421875 1.25q-0.90625 0.453125 -2.078125 0.453125q-0.796875 0 -1.640625 -0.203125q-0.84375 -0.21875 -1.578125 -0.625l0.1875 -1.53125l0.203125 -0.09375q0.65625 0.625 1.453125 0.9375q0.796875 0.3125 1.515625 0.3125q0.703125 0 1.25 -0.28125q0.5625 -0.28125 0.84375 -0.75q0.296875 -0.46875 0.296875 -0.984375q0 -0.78125 -0.609375 -1.25q-0.59375 -0.484375 -1.796875 -1.046875q-0.984375 -0.484375 -1.59375 -0.859375q-0.59375 -0.390625 -1.03125 -1.0q-0.421875 -0.609375 -0.421875 -1.484375q0 -0.90625 0.5 -1.671875q0.5 -0.765625 1.375 -1.203125q0.890625 -0.4375 2.03125 -0.4375zm12.272705 0.234375l-0.109375 1.15625l-2.09375 -0.109375l-1.21875 0l-0.046875 7.03125l0.046875 3.734375l-1.5 0l0.109375 -3.59375l-0.09375 -7.171875l-1.21875 0l-2.125 0.109375l-0.09375 -0.140625l0.109375 -1.15625l8.125 0l0.109375 0.140625zm5.4696655 -1.328125q0.671875 0 1.453125 0.171875l-0.109375 1.15625l-0.109375 0.09375q-0.671875 -0.328125 -1.375 -0.328125q-0.71875 0 -1.109375 0.453125q-0.390625 0.453125 -0.40625 1.34375l-0.03125 1.71875l2.25 0l0.046875 0.125l-0.09375 0.875l-2.21875 0l-0.03125 3.78125l0.09375 3.75l-1.484375 0l0.125 -3.640625l-0.046875 -3.890625l-1.28125 0l-0.078125 -0.125l0.09375 -0.875l1.265625 0l-0.015625 -1.484375q-0.015625 -1.515625 0.78125 -2.3125q0.796875 -0.8125 2.28125 -0.8125zm9.715393 12.046875l-0.140625 0.828125q-0.546875 0.328125 -1.078125 0.375q-0.53125 -0.078125 -0.859375 -0.375q-0.328125 -0.3125 -0.453125 -0.921875l-0.109375 0q-1.125 1.0 -2.328125 1.296875q-1.375 0 -2.09375 -0.640625q-0.71875 -0.65625 -0.703125 -1.875l0.03125 -2.375l-0.0625 -3.671875l1.484375 -0.125l-0.109375 5.8125q0 0.765625 0.359375 1.203125q0.375 0.421875 1.078125 0.421875q1.15625 0 2.3125 -1.109375l0 -6.203125l1.421875 -0.125l-0.09375 6.75q0 0.390625 0.125 0.546875q0.125 0.15625 0.421875 0.15625q0.296875 0 0.65625 -0.109375l0.140625 0.140625zm3.3271484 -2.65625l0.09375 3.75l-1.484375 0l0.109375 -3.640625l-0.09375 -9.328125l1.484375 -0.125l-0.109375 9.34375zm15.108276 3.75l-1.53125 0l-0.28125 -1.1875l-0.671875 -2.0625l-2.6875 -0.046875l-2.421875 0.046875l-0.734375 1.984375l-0.296875 1.265625l-1.484375 0l4.375 -11.953125l1.734375 0l4.0 11.953125zm-2.890625 -4.515625l-1.9375 -5.890625l-0.140625 0l-2.15625 5.890625l2.078125 0.03125l2.15625 -0.03125zm8.689575 -7.46875q1.75 0 2.703125 0.90625q0.953125 0.90625 0.953125 2.609375q0 2.0 -1.1875 3.140625q-1.1875 1.125 -3.265625 1.125l-1.421875 0l0 0.46875l0.078125 3.734375l-1.515625 0l0.09375 -3.59375l-0.09375 -8.359375l3.65625 -0.03125zm-0.234375 6.578125q1.15625 -0.1875 1.75 -0.9375q0.609375 -0.75 0.609375 -2.0q0 -2.3125 -2.453125 -2.40625l-1.8125 0.0625l-0.0625 5.234375l1.96875 0.046875zm7.716858 1.671875l0.078125 3.734375l-1.515625 0l0.09375 -3.59375l-0.09375 -8.359375l1.53125 0l-0.09375 8.21875z" fill-rule="nonzero"/><path fill="#666666" d="m529.6168 102.12247q1.875 0 3.5 0.828125l-0.296875 1.421875l-0.1875 0.046875q-0.890625 -0.5625 -1.65625 -0.796875q-0.75 -0.25 -1.578125 -0.25q-4.0625 0 -4.0625 5.0q0 2.40625 0.9375 3.53125q0.953125 1.125 2.9375 1.125q0.515625 0 1.046875 -0.09375q0.53125 -0.09375 1.375 -0.34375l0.03125 -1.40625l-0.015625 -1.796875l1.40625 -0.109375l-0.046875 1.703125l0.078125 2.609375q-1.21875 0.375 -2.15625 0.546875q-0.921875 0.15625 -1.796875 0.15625q-2.671875 0 -4.015625 -1.5q-1.328125 -1.515625 -1.328125 -4.375q0 -3.078125 1.515625 -4.6875q1.515625 -1.609375 4.3125 -1.609375zm9.695435 3.484375q0.234375 0 0.484375 0.03125l0 1.4375l-0.15625 0.0625q-0.328125 -0.09375 -0.703125 -0.09375q-0.609375 0 -1.125 0.5q-0.515625 0.484375 -1.015625 1.5625l-0.015625 1.3125l0.09375 3.75l-1.46875 0l0.078125 -3.625l-0.0625 -4.828125l1.390625 -0.125l-0.015625 1.75l0.109375 0q0.53125 -0.9375 1.15625 -1.328125q0.640625 -0.40625 1.25 -0.40625zm4.7455444 -0.125q1.203125 0 1.90625 0.59375q0.703125 0.59375 0.703125 1.640625q0 0.3125 -0.109375 2.296875q-0.109375 1.96875 -0.109375 2.3125q0 0.40625 0.125 0.5625q0.125 0.15625 0.453125 0.15625q0.28125 0 0.625 -0.109375l0.15625 0.140625l-0.15625 0.828125q-0.53125 0.328125 -1.0625 0.375q-0.578125 -0.046875 -0.921875 -0.40625q-0.34375 -0.359375 -0.359375 -0.96875l-0.140625 0q-1.0 1.015625 -1.984375 1.390625q-1.25 0 -1.953125 -0.625q-0.703125 -0.625 -0.703125 -1.703125q0 -0.8125 0.4375 -1.296875q0.4375 -0.5 1.296875 -0.703125l3.03125 -0.703125l0.015625 -1.21875q0 -0.71875 -0.390625 -1.109375q-0.375 -0.390625 -1.09375 -0.390625q-0.625 0 -1.265625 0.296875q-0.625 0.296875 -1.359375 0.921875l-0.140625 -0.0625l-0.1875 -1.0625q1.546875 -1.15625 3.1875 -1.15625zm-1.5 5.390625q-0.375 0.109375 -0.546875 0.3125q-0.15625 0.1875 -0.15625 0.578125q0 0.609375 0.34375 0.96875q0.34375 0.34375 0.921875 0.34375q1.03125 0 2.09375 -1.328125l0.046875 -1.53125l-2.703125 0.65625zm11.181702 -5.34375q1.609375 0 2.453125 1.0625q0.859375 1.0625 0.859375 3.046875q0 2.234375 -1.078125 3.46875q-1.078125 1.21875 -3.078125 1.21875q-0.78125 0 -1.625 -0.171875l0.046875 3.46875l-1.453125 0l0.078125 -7.078125l-0.078125 -4.828125l1.40625 -0.125l-0.015625 1.203125l0.125 0q0.65625 -0.53125 1.171875 -0.8125q0.53125 -0.28125 1.1875 -0.453125zm-0.65625 7.703125q1.234375 0 1.90625 -0.859375q0.671875 -0.859375 0.671875 -2.4375q0 -1.546875 -0.53125 -2.359375q-0.53125 -0.828125 -1.515625 -0.828125q-0.578125 0 -1.15625 0.3125q-0.5625 0.3125 -1.203125 0.984375l-0.015625 2.375l0.015625 2.328125q0.921875 0.484375 1.828125 0.484375zm11.730408 -4.859375q0.03125 -0.765625 -0.34375 -1.1875q-0.375 -0.4375 -1.109375 -0.4375q-1.234375 0 -2.515625 1.328125l-0.03125 2.34375l0.09375 3.75l-1.484375 0l0.109375 -3.640625l-0.09375 -9.328125l1.484375 -0.125l-0.078125 5.765625l0.109375 0q1.15625 -1.03125 2.375 -1.328125q1.421875 0 2.140625 0.65625q0.734375 0.65625 0.71875 1.859375l-0.046875 2.421875l0.078125 3.71875l-1.5 0l0.09375 -5.796875zm16.419983 8.375q-0.1875 0.34375 -0.34375 0.546875q-0.140625 0.21875 -0.34375 0.40625l-0.125 0.046875q-1.8125 -0.46875 -3.5 -1.34375q-1.6875 -0.875 -3.09375 -2.109375q-0.140625 0.03125 -0.4375 0.03125q-2.46875 0 -3.796875 -1.5625q-1.328125 -1.578125 -1.328125 -4.46875q0 -2.984375 1.390625 -4.59375q1.390625 -1.609375 3.984375 -1.609375q2.453125 0 3.765625 1.53125q1.3125 1.515625 1.3125 4.390625q0 2.40625 -0.921875 3.953125q-0.90625 1.546875 -2.609375 2.09375q2.6875 1.875 6.0 2.5l0.046875 0.1875zm-11.4375 -8.578125q0 4.90625 3.671875 4.90625q1.8125 0 2.75 -1.234375q0.953125 -1.234375 0.953125 -3.703125q0 -4.8125 -3.671875 -4.8125q-1.875 0 -2.796875 1.203125q-0.90625 1.1875 -0.90625 3.640625zm17.390076 4.875l-0.125 1.125l-5.90625 0l0.09375 -3.59375l-0.09375 -8.359375l1.53125 0l-0.09375 8.21875l0.0625 2.484375l4.421875 0l0.109375 0.125zm13.511169 1.125l-1.53125 0l-0.28125 -1.1875l-0.671875 -2.0625l-2.6875 -0.046875l-2.421875 0.046875l-0.734375 1.984375l-0.296875 1.265625l-1.484375 0l4.375 -11.953125l1.734375 0l4.0 11.953125zm-2.890625 -4.515625l-1.9375 -5.890625l-0.140625 0l-2.15625 5.890625l2.078125 0.03125l2.15625 -0.03125zm8.689575 -7.46875q1.75 0 2.703125 0.90625q0.953125 0.90625 0.953125 2.609375q0 2.0 -1.1875 3.140625q-1.1875 1.125 -3.265625 1.125l-1.421875 0l0 0.46875l0.078125 3.734375l-1.515625 0l0.09375 -3.59375l-0.09375 -8.359375l3.65625 -0.03125zm-0.234375 6.578125q1.15625 -0.1875 1.75 -0.9375q0.609375 -0.75 0.609375 -2.0q0 -2.3125 -2.453125 -2.40625l-1.8125 0.0625l-0.0625 5.234375l1.96875 0.046875zm7.716858 1.671875l0.078125 3.734375l-1.515625 0l0.09375 -3.59375l-0.09375 -8.359375l1.53125 0l-0.09375 8.21875z" fill-rule="nonzero"/><path fill="#ffffff" d="m466.47513 170.57037l0 0c0 -6.6742554 5.410553 -12.084808 12.084808 -12.084808l185.81464 0c3.2050781 0 6.2789307 1.2732086 8.545227 3.5395508c2.2663574 2.2663422 3.5395508 5.340164 3.5395508 8.545258l0 75.86188c0 6.6742554 -5.4105225 12.084808 -12.084778 12.084808l-185.81464 0c-6.6742554 0 -12.084808 -5.410553 -12.084808 -12.084808z" fill-rule="evenodd"/><path stroke="#666666" stroke-width="2.0" stroke-linejoin="round" stroke-linecap="butt" stroke-dasharray="8.0,6.0" d="m466.47513 170.57037l0 0c0 -6.6742554 5.410553 -12.084808 12.084808 -12.084808l185.81464 0c3.2050781 0 6.2789307 1.2732086 8.545227 3.5395508c2.2663574 2.2663422 3.5395508 5.340164 3.5395508 8.545258l0 75.86188c0 6.6742554 -5.4105225 12.084808 -12.084778 12.084808l-185.81464 0c-6.6742554 0 -12.084808 -5.410553 -12.084808 -12.084808z" fill-rule="evenodd"/><path fill="#666666" d="m527.91064 209.18694q2.546875 0.5 2.546875 2.890625q0 1.703125 -1.234375 2.5625q-1.234375 0.859375 -3.671875 0.859375q-1.640625 0 -2.640625 -0.078125l-0.015625 0l0.09375 -3.59375l-0.09375 -8.359375l3.328125 -0.03125q1.671875 0 2.578125 0.75q0.90625 0.75 0.90625 2.171875q0 1.0 -0.46875 1.734375q-0.46875 0.71875 -1.328125 1.09375zm0.265625 -2.671875q0 -0.96875 -0.53125 -1.40625q-0.53125 -0.4375 -1.734375 -0.4375l-1.5 0l-0.046875 4.015625l2.0625 0.0625q1.75 -0.421875 1.75 -2.234375zm-2.40625 7.734375q1.53125 0 2.34375 -0.578125q0.828125 -0.578125 0.828125 -1.671875q0 -1.828125 -2.296875 -2.078125l-2.296875 0.015625l-0.015625 1.75l0.0625 2.5q0.71875 0.0625 1.375 0.0625zm14.549683 0.078125l-0.140625 0.828125q-0.546875 0.328125 -1.078125 0.375q-0.53125 -0.078125 -0.859375 -0.375q-0.328125 -0.3125 -0.453125 -0.921875l-0.109375 0q-1.125 1.0 -2.328125 1.296875q-1.375 0 -2.09375 -0.640625q-0.71875 -0.65625 -0.703125 -1.875l0.03125 -2.375l-0.0625 -3.671875l1.484375 -0.125l-0.109375 5.8125q0 0.765625 0.359375 1.203125q0.375 0.421875 1.078125 0.421875q1.15625 0 2.3125 -1.109375l0 -6.203125l1.421875 -0.125l-0.09375 6.75q0 0.390625 0.125 0.546875q0.125 0.15625 0.421875 0.15625q0.296875 0 0.65625 -0.109375l0.140625 0.140625zm4.2021484 -7.578125q1.0625 0 2.046875 0.40625l-0.203125 1.21875l-0.21875 0.046875q-0.9375 -0.609375 -1.796875 -0.609375q-0.640625 0 -1.03125 0.359375q-0.390625 0.34375 -0.390625 0.84375q0 0.515625 0.40625 0.828125q0.40625 0.296875 1.234375 0.6875q0.734375 0.34375 1.171875 0.609375q0.4375 0.265625 0.75 0.71875q0.328125 0.453125 0.328125 1.09375q0 0.703125 -0.359375 1.296875q-0.359375 0.59375 -1.046875 0.96875q-0.6875 0.359375 -1.640625 0.359375q-1.3125 0 -2.484375 -0.625l0.1875 -1.265625l0.171875 -0.109375q0.515625 0.4375 1.125 0.6875q0.609375 0.234375 1.15625 0.234375q0.6875 0 1.109375 -0.375q0.4375 -0.375 0.4375 -0.90625q0 -0.5 -0.40625 -0.8125q-0.40625 -0.3125 -1.234375 -0.703125q-0.734375 -0.328125 -1.1875 -0.59375q-0.4375 -0.28125 -0.765625 -0.734375q-0.3125 -0.46875 -0.3125 -1.171875q0 -1.078125 0.796875 -1.765625q0.796875 -0.6875 2.15625 -0.6875zm4.652832 5.046875l-0.046875 -4.828125l1.4375 -0.125l-0.046875 4.828125l0.046875 3.75l-1.453125 0l0.0625 -3.625zm0.703125 -8.75q0.359375 0 0.578125 0.234375q0.234375 0.21875 0.234375 0.609375q0 0.40625 -0.234375 0.65625q-0.234375 0.234375 -0.640625 0.234375q-0.390625 0 -0.609375 -0.21875q-0.21875 -0.21875 -0.21875 -0.640625q0 -0.390625 0.234375 -0.625q0.234375 -0.25 0.65625 -0.25zm9.124207 6.578125q0.015625 -0.765625 -0.359375 -1.1875q-0.375 -0.4375 -1.109375 -0.4375q-1.171875 0 -2.53125 1.328125l0 2.34375l0.078125 3.75l-1.46875 0l0.078125 -3.625l-0.0625 -4.828125l1.390625 -0.125l0 1.25l0.109375 0q1.15625 -1.03125 2.375 -1.328125q1.40625 0 2.140625 0.65625q0.734375 0.65625 0.71875 1.859375l-0.046875 2.421875l0.078125 3.71875l-1.484375 0l0.09375 -5.796875zm4.907898 1.46875l0 0.03125q0 1.578125 0.703125 2.421875q0.703125 0.828125 2.015625 0.828125q0.65625 0 1.296875 -0.203125q0.65625 -0.21875 1.203125 -0.609375l0.140625 0.109375l-0.21875 1.265625q-1.3125 0.640625 -2.609375 0.640625q-1.828125 0 -2.875 -1.171875q-1.046875 -1.171875 -1.046875 -3.203125q0 -2.046875 1.046875 -3.25q1.046875 -1.21875 2.8125 -1.21875q1.5 0 2.3125 0.84375q0.828125 0.84375 0.828125 2.359375q0 0.5 -0.078125 0.953125l-0.1875 0.1875l-5.34375 0.015625zm2.46875 -3.328125q-0.921875 0 -1.546875 0.609375q-0.625 0.609375 -0.84375 1.71875l4.125 -0.078125l0.046875 -0.265625q0 -0.953125 -0.46875 -1.46875q-0.453125 -0.515625 -1.3125 -0.515625zm7.788025 -1.015625q1.0625 0 2.046875 0.40625l-0.203125 1.21875l-0.21875 0.046875q-0.9375 -0.609375 -1.796875 -0.609375q-0.640625 0 -1.03125 0.359375q-0.390625 0.34375 -0.390625 0.84375q0 0.515625 0.40625 0.828125q0.40625 0.296875 1.234375 0.6875q0.734375 0.34375 1.171875 0.609375q0.4375 0.265625 0.75 0.71875q0.328125 0.453125 0.328125 1.09375q0 0.703125 -0.359375 1.296875q-0.359375 0.59375 -1.046875 0.96875q-0.6875 0.359375 -1.640625 0.359375q-1.3125 0 -2.484375 -0.625l0.1875 -1.265625l0.171875 -0.109375q0.515625 0.4375 1.125 0.6875q0.609375 0.234375 1.15625 0.234375q0.6875 0 1.109375 -0.375q0.4375 -0.375 0.4375 -0.90625q0 -0.5 -0.40625 -0.8125q-0.40625 -0.3125 -1.234375 -0.703125q-0.734375 -0.328125 -1.1875 -0.59375q-0.4375 -0.28125 -0.765625 -0.734375q-0.3125 -0.46875 -0.3125 -1.171875q0 -1.078125 0.796875 -1.765625q0.796875 -0.6875 2.15625 -0.6875zm6.902832 0q1.0625 0 2.046875 0.40625l-0.203125 1.21875l-0.21875 0.046875q-0.9375 -0.609375 -1.796875 -0.609375q-0.640625 0 -1.03125 0.359375q-0.390625 0.34375 -0.390625 0.84375q0 0.515625 0.40625 0.828125q0.40625 0.296875 1.234375 0.6875q0.734375 0.34375 1.171875 0.609375q0.4375 0.265625 0.75 0.71875q0.328125 0.453125 0.328125 1.09375q0 0.703125 -0.359375 1.296875q-0.359375 0.59375 -1.046875 0.96875q-0.6875 0.359375 -1.640625 0.359375q-1.3125 0 -2.484375 -0.625l0.1875 -1.265625l0.171875 -0.109375q0.515625 0.4375 1.125 0.6875q0.609375 0.234375 1.15625 0.234375q0.6875 0 1.109375 -0.375q0.4375 -0.375 0.4375 -0.90625q0 -0.5 -0.40625 -0.8125q-0.40625 -0.3125 -1.234375 -0.703125q-0.734375 -0.328125 -1.1875 -0.59375q-0.4375 -0.28125 -0.765625 -0.734375q-0.3125 -0.46875 -0.3125 -1.171875q0 -1.078125 0.796875 -1.765625q0.796875 -0.6875 2.15625 -0.6875zm9.106079 4.921875l0.09375 3.75l-1.484375 0l0.109375 -3.640625l-0.09375 -9.328125l1.484375 -0.125l-0.109375 9.34375zm6.3424683 -4.9375q1.734375 0 2.6875 1.125q0.96875 1.125 0.96875 3.171875q0 2.171875 -1.015625 3.359375q-1.0 1.1875 -2.875 1.1875q-1.75 0 -2.71875 -1.125q-0.953125 -1.140625 -0.953125 -3.1875q0 -2.171875 1.015625 -3.34375q1.015625 -1.1875 2.890625 -1.1875zm-0.09375 1.03125q-1.171875 0 -1.796875 0.8125q-0.609375 0.796875 -0.609375 2.34375q0 1.796875 0.59375 2.6875q0.609375 0.890625 1.765625 0.890625q1.1875 0 1.796875 -0.78125q0.609375 -0.78125 0.609375 -2.34375q0 -1.78125 -0.609375 -2.6875q-0.59375 -0.921875 -1.75 -0.921875zm13.613342 -0.15625q-0.578125 0.15625 -1.71875 0.390625l-0.03125 0.078125q0.40625 0.640625 0.40625 1.578125q0 1.359375 -0.90625 2.171875q-0.90625 0.796875 -2.453125 0.796875q-0.609375 0 -1.15625 -0.15625q-0.3125 0.25 -0.421875 0.40625q-0.109375 0.140625 -0.109375 0.328125q0 0.390625 0.484375 0.546875q0.484375 0.15625 1.578125 0.328125q1.078125 0.15625 1.765625 0.34375q0.703125 0.171875 1.203125 0.59375q0.5 0.421875 0.5 1.171875q0 0.78125 -0.53125 1.4375q-0.53125 0.65625 -1.453125 1.015625q-0.921875 0.375 -2.03125 0.375q-1.484375 0 -2.3125 -0.6875q-0.828125 -0.671875 -0.828125 -1.75q0.4375 -0.890625 1.640625 -1.625l0 -0.09375q-0.671875 -0.203125 -1.046875 -0.546875q-0.359375 -0.34375 -0.359375 -0.9375q0.390625 -0.65625 1.140625 -1.140625l0 -0.078125q-0.59375 -0.375 -0.90625 -0.96875q-0.3125 -0.609375 -0.3125 -1.421875q0 -1.390625 0.90625 -2.1875q0.90625 -0.796875 2.421875 -0.796875q0.984375 0 1.671875 0.34375q1.296875 -0.25 2.71875 -0.640625l0.140625 0.109375l0 1.015625zm-4.625 4.0q0.9375 0 1.4375 -0.515625q0.515625 -0.515625 0.515625 -1.453125q0 -0.890625 -0.484375 -1.375q-0.484375 -0.5 -1.390625 -0.5q-0.9375 0 -1.46875 0.515625q-0.515625 0.5 -0.515625 1.4375q0 0.890625 0.484375 1.390625q0.5 0.5 1.421875 0.5zm2.46875 4.859375q0 -0.625 -0.625 -0.875q-0.625 -0.234375 -1.90625 -0.421875l-0.59375 -0.078125q-0.703125 0.421875 -1.078125 0.8125q-0.359375 0.390625 -0.359375 0.828125q0 0.53125 0.53125 0.890625q0.53125 0.359375 1.484375 0.359375q1.078125 0 1.8125 -0.453125q0.734375 -0.4375 0.734375 -1.0625zm3.7730713 -4.671875l-0.046875 -4.828125l1.4375 -0.125l-0.046875 4.828125l0.046875 3.75l-1.453125 0l0.0625 -3.625zm0.703125 -8.75q0.359375 0 0.578125 0.234375q0.234375 0.21875 0.234375 0.609375q0 0.40625 -0.234375 0.65625q-0.234375 0.234375 -0.640625 0.234375q-0.390625 0 -0.609375 -0.21875q-0.21875 -0.21875 -0.21875 -0.640625q0 -0.390625 0.234375 -0.625q0.234375 -0.25 0.65625 -0.25zm6.8117065 3.6875q0.578125 0 1.203125 0.140625q0.625 0.140625 1.078125 0.359375l-0.25 1.28125l-0.171875 0.0625q-0.96875 -0.640625 -1.921875 -0.640625q-1.09375 0 -1.71875 0.84375q-0.609375 0.84375 -0.609375 2.34375q0 1.515625 0.640625 2.390625q0.640625 0.859375 1.78125 0.859375q0.5 0 1.046875 -0.15625q0.5625 -0.171875 1.046875 -0.46875l0.15625 0.09375l-0.15625 1.25q-1.140625 0.484375 -2.28125 0.484375q-1.703125 0 -2.671875 -1.171875q-0.96875 -1.171875 -0.96875 -3.203125q0 -2.0625 1.015625 -3.265625q1.015625 -1.203125 2.78125 -1.203125z" fill-rule="nonzero"/><path fill="#ffffff" d="m291.75592 57.54566l0 0c0 -6.2474785 5.064575 -11.312061 11.312042 -11.312061l165.62784 0c3.0001526 0 5.877411 1.191803 7.9988403 3.3132248c2.1214294 2.1214218 3.3132324 4.9986916 3.3132324 7.9988365l0 189.65935c0 6.2474823 -5.064575 11.3120575 -11.312073 11.3120575l-165.62784 0c-6.247467 0 -11.312042 -5.064575 -11.312042 -11.3120575z" fill-rule="evenodd"/><path stroke="#ff0000" stroke-width="2.0" stroke-linejoin="round" stroke-linecap="butt" stroke-dasharray="8.0,6.0" d="m291.75592 57.54566l0 0c0 -6.2474785 5.064575 -11.312061 11.312042 -11.312061l165.62784 0c3.0001526 0 5.877411 1.191803 7.9988403 3.3132248c2.1214294 2.1214218 3.3132324 4.9986916 3.3132324 7.9988365l0 189.65935c0 6.2474823 -5.064575 11.3120575 -11.312073 11.3120575l-165.62784 0c-6.247467 0 -11.312042 -5.064575 -11.312042 -11.3120575z" fill-rule="evenodd"/><path fill="#ffffff" d="m19.75853 149.9029l146.29921 0l0 117.19684l-146.29921 0z" fill-rule="evenodd"/><path stroke="#0070e6" stroke-width="2.0" stroke-linejoin="round" stroke-linecap="butt" d="m19.75853 149.9029l146.29921 0l0 117.19684l-146.29921 0z" fill-rule="evenodd"/><path fill="#ffffff" d="m166.05774 149.9029l36.12599 0l0 117.19684l-36.12599 0z" fill-rule="evenodd"/><path stroke="#0070e6" stroke-width="2.0" stroke-linejoin="round" stroke-linecap="butt" d="m166.05774 149.9029l36.12599 0l0 117.19684l-36.12599 0z" fill-rule="evenodd"/><path fill="#000000" fill-opacity="0.0" d="m163.11285 234.42258l0 -51.84253l42.015762 0l0 51.84253z" fill-rule="evenodd"/><path fill="#0070e6" d="m190.03285 215.04758l0 1.53125l-1.1875 0.28125l-2.0625 0.671875l-0.046875 2.6875l0.046875 2.421875l1.984375 0.734375l1.265625 0.296875l0 1.484375l-11.953125 -4.375l0 -1.734375l11.953125 -4.0zm-4.515625 2.890625l-5.890625 1.9375l0 0.140625l5.890625 2.15625l0.03125 -2.078125l-0.03125 -2.15625zm-7.46875 -8.68956q0 -1.75 0.90625 -2.703125q0.90625 -0.953125 2.609375 -0.953125q2.0 0 3.140625 1.1875q1.125 1.1875 1.125 3.265625l0 1.421875l0.46875 0l3.734375 -0.078125l0 1.515625l-3.59375 -0.09375l-8.359375 0.09375l-0.03125 -3.65625zm6.578125 0.234375q-0.1875 -1.15625 -0.9375 -1.75q-0.75 -0.609375 -2.0 -0.609375q-2.3125 0 -2.40625 2.453125l0.0625 1.8125l5.234375 0.0625l0.046875 -1.96875zm1.671875 -7.716873l3.734375 -0.078125l0 1.515625l-3.59375 -0.09375l-8.359375 0.09375l0 -1.53125l8.21875 0.09375z" fill-rule="nonzero"/><path fill="#ffffff" d="m46.199474 178.96873l0 0c0 -6.3289337 5.130615 -11.459549 11.459549 -11.459549l70.49823 0c3.0392609 0 5.9540405 1.2073364 8.103119 3.35643c2.1490784 2.1490784 3.3564148 5.063858 3.3564148 8.103119l0 45.836807c0 6.3289337 -5.1306 11.459549 -11.459534 11.459549l-70.49823 0c-6.3289337 0 -11.459549 -5.130615 -11.459549 -11.459549z" fill-rule="evenodd"/><path stroke="#0070e6" stroke-width="2.0" stroke-linejoin="round" stroke-linecap="butt" stroke-dasharray="8.0,6.0" d="m46.199474 178.96873l0 0c0 -6.3289337 5.130615 -11.459549 11.459549 -11.459549l70.49823 0c3.0392609 0 5.9540405 1.2073364 8.103119 3.35643c2.1490784 2.1490784 3.3564148 5.063858 3.3564148 8.103119l0 45.836807c0 6.3289337 -5.1306 11.459549 -11.459534 11.459549l-70.49823 0c-6.3289337 0 -11.459549 -5.130615 -11.459549 -11.459549z" fill-rule="evenodd"/><path fill="#0070e6" d="m63.243362 181.34088q1.390625 0 2.109375 0.921875q0.734375 0.921875 0.734375 2.59375q0 1.921875 -0.921875 2.96875q-0.921875 1.046875 -2.59375 1.046875q-0.765625 0 -1.5625 -0.34375l-0.890625 0.390625l-0.21875 -0.125l0.09375 -3.125l-0.078125 -8.046875l1.265625 -0.109375l-0.046875 4.921875l0.09375 0q0.546875 -0.453125 0.984375 -0.6875q0.453125 -0.25 1.03125 -0.40625zm-0.5625 6.609375q1.03125 0 1.625 -0.71875q0.59375 -0.71875 0.59375 -2.125q0 -1.296875 -0.46875 -2.015625q-0.453125 -0.71875 -1.296875 -0.71875q-0.5 0 -0.984375 0.28125q-0.484375 0.265625 -1.03125 0.84375l-0.015625 2.03125l0.046875 1.90625q0.765625 0.515625 1.53125 0.515625zm5.9583893 -2.921875l0 0.03125q0 1.34375 0.609375 2.078125q0.609375 0.71875 1.71875 0.71875q0.5625 0 1.125 -0.1875q0.5625 -0.1875 1.03125 -0.515625l0.125 0.09375l-0.203125 1.078125q-1.109375 0.546875 -2.234375 0.546875q-1.5625 0 -2.46875 -1.0q-0.890625 -1.0 -0.890625 -2.734375q0 -1.765625 0.890625 -2.796875q0.90625 -1.046875 2.421875 -1.046875q1.28125 0 1.984375 0.734375q0.703125 0.71875 0.703125 2.015625q0 0.4375 -0.0625 0.8125l-0.15625 0.15625l-4.59375 0.015625zm2.125 -2.84375q-0.796875 0 -1.34375 0.53125q-0.53125 0.515625 -0.703125 1.453125l3.53125 -0.0625l0.03125 -0.21875q0 -0.828125 -0.390625 -1.265625q-0.390625 -0.4375 -1.125 -0.4375zm8.032272 -0.78125q0.1875 0 0.421875 0.03125l0 1.234375l-0.15625 0.046875q-0.265625 -0.078125 -0.59375 -0.078125q-0.515625 0 -0.96875 0.421875q-0.4375 0.421875 -0.859375 1.34375l-0.015625 1.125l0.078125 3.21875l-1.265625 0l0.078125 -3.109375l-0.0625 -4.140625l1.203125 -0.109375l-0.015625 1.5l0.09375 0q0.453125 -0.796875 0.984375 -1.140625q0.546875 -0.34375 1.078125 -0.34375zm4.1055145 6.375q0.53125 0 1.15625 -0.328125l0.140625 0.09375l-0.125 0.828125q-0.859375 0.40625 -1.59375 0.46875q-0.921875 -0.171875 -1.328125 -0.671875q-0.390625 -0.5 -0.390625 -1.4375l0.046875 -1.140625l-0.015625 -3.3125l-1.0 0l-0.0625 -0.09375l0.078125 -0.75l0.96875 0l0 -1.1875l1.109375 -0.46875l0.125 0.109375l-0.03125 1.546875l2.171875 0l0.0625 0.09375l-0.078125 0.75l-2.15625 0l-0.078125 4.34375q-0.015625 0.640625 0.21875 0.90625q0.25 0.25 0.78125 0.25zm5.755005 -3.71875l0 0.796875l-3.859375 0.5625l-0.125 -0.125l0 -0.796875l3.875 -0.546875l0.109375 0.109375z" fill-rule="nonzero"/><path fill="#0070e6" d="m63.243362 200.34088q1.390625 0 2.109375 0.921875q0.734375 0.921875 0.734375 2.59375q0 1.921875 -0.921875 2.96875q-0.921875 1.046875 -2.59375 1.046875q-0.765625 0 -1.5625 -0.34375l-0.890625 0.390625l-0.21875 -0.125l0.09375 -3.125l-0.078125 -8.046875l1.265625 -0.109375l-0.046875 4.921875l0.09375 0q0.546875 -0.453125 0.984375 -0.6875q0.453125 -0.25 1.03125 -0.40625zm-0.5625 6.609375q1.03125 0 1.625 -0.71875q0.59375 -0.71875 0.59375 -2.125q0 -1.296875 -0.46875 -2.015625q-0.453125 -0.71875 -1.296875 -0.71875q-0.5 0 -0.984375 0.28125q-0.484375 0.265625 -1.03125 0.84375l-0.015625 2.03125l0.046875 1.90625q0.765625 0.515625 1.53125 0.515625zm7.8021393 -6.65625q1.03125 0 1.625 0.515625q0.609375 0.5 0.609375 1.40625q0 0.265625 -0.09375 1.96875q-0.09375 1.6875 -0.09375 1.984375q0 0.34375 0.109375 0.484375q0.109375 0.140625 0.375 0.140625q0.25 0 0.546875 -0.109375l0.125 0.125l-0.125 0.71875q-0.46875 0.265625 -0.90625 0.3125q-0.5 -0.046875 -0.796875 -0.34375q-0.296875 -0.3125 -0.3125 -0.84375l-0.109375 0q-0.859375 0.890625 -1.71875 1.203125q-1.0625 0 -1.671875 -0.53125q-0.59375 -0.53125 -0.59375 -1.46875q0 -0.703125 0.375 -1.109375q0.375 -0.421875 1.109375 -0.59375l2.59375 -0.609375l0.015625 -1.046875q0 -0.625 -0.328125 -0.953125q-0.328125 -0.34375 -0.9375 -0.34375q-0.546875 0 -1.09375 0.265625q-0.53125 0.25 -1.15625 0.796875l-0.125 -0.0625l-0.171875 -0.921875q1.328125 -0.984375 2.75 -0.984375zm-1.28125 4.625q-0.328125 0.09375 -0.46875 0.265625q-0.140625 0.15625 -0.140625 0.5q0 0.53125 0.296875 0.828125q0.296875 0.296875 0.78125 0.296875q0.890625 0 1.796875 -1.140625l0.046875 -1.3125l-2.3125 0.5625zm8.251389 -4.609375q0.90625 0 1.765625 0.34375l-0.1875 1.046875l-0.1875 0.046875q-0.796875 -0.53125 -1.53125 -0.53125q-0.546875 0 -0.890625 0.3125q-0.328125 0.296875 -0.328125 0.734375q0 0.421875 0.34375 0.6875q0.34375 0.265625 1.0625 0.609375q0.625 0.28125 1.0 0.515625q0.375 0.234375 0.640625 0.625q0.28125 0.375 0.28125 0.9375q0 0.59375 -0.3125 1.109375q-0.296875 0.5 -0.890625 0.8125q-0.59375 0.3125 -1.40625 0.3125q-1.125 0 -2.125 -0.53125l0.15625 -1.078125l0.140625 -0.09375q0.453125 0.375 0.96875 0.59375q0.515625 0.203125 0.984375 0.203125q0.59375 0 0.953125 -0.328125q0.375 -0.328125 0.375 -0.78125q0 -0.421875 -0.34375 -0.6875q-0.34375 -0.265625 -1.0625 -0.609375q-0.625 -0.28125 -1.015625 -0.515625q-0.375 -0.234375 -0.65625 -0.625q-0.265625 -0.40625 -0.265625 -1.0q0 -0.921875 0.671875 -1.515625q0.6875 -0.59375 1.859375 -0.59375zm4.4981384 3.71875l0 0.03125q0 1.34375 0.609375 2.078125q0.609375 0.71875 1.71875 0.71875q0.5625 0 1.125 -0.1875q0.5625 -0.1875 1.03125 -0.515625l0.125 0.09375l-0.203125 1.078125q-1.109375 0.546875 -2.234375 0.546875q-1.5625 0 -2.46875 -1.0q-0.890625 -1.0 -0.890625 -2.734375q0 -1.765625 0.890625 -2.796875q0.90625 -1.046875 2.421875 -1.046875q1.28125 0 1.984375 0.734375q0.703125 0.71875 0.703125 2.015625q0 0.4375 -0.0625 0.8125l-0.15625 0.15625l-4.59375 0.015625zm2.125 -2.84375q-0.796875 0 -1.34375 0.53125q-0.53125 0.515625 -0.703125 1.453125l3.53125 -0.0625l0.03125 -0.21875q0 -0.828125 -0.390625 -1.265625q-0.390625 -0.4375 -1.125 -0.4375zm7.8447723 1.875l0 0.796875l-3.859375 0.5625l-0.125 -0.125l0 -0.796875l3.875 -0.546875l0.109375 0.109375z" fill-rule="nonzero"/><path fill="#0070e6" d="m66.39961 225.80963l-0.125 0.71875q-0.46875 0.265625 -0.921875 0.3125q-0.453125 -0.0625 -0.734375 -0.328125q-0.28125 -0.265625 -0.40625 -0.796875l-0.09375 0q-0.953125 0.875 -1.984375 1.125q-1.171875 0 -1.796875 -0.5625q-0.609375 -0.5625 -0.59375 -1.59375l0.015625 -2.03125l-0.046875 -3.15625l1.28125 -0.109375l-0.09375 4.984375q0 0.65625 0.296875 1.03125q0.3125 0.375 0.921875 0.375q1.0 0 1.984375 -0.96875l0 -5.3125l1.21875 -0.109375l-0.078125 5.796875q0 0.328125 0.09375 0.46875q0.109375 0.140625 0.375 0.140625q0.25 0 0.5625 -0.109375l0.125 0.125zm6.0625153 -4.03125q0.015625 -0.65625 -0.3125 -1.03125q-0.3125 -0.375 -0.9375 -0.375q-1.015625 0 -2.171875 1.140625l0 2.015625l0.0625 3.21875l-1.265625 0l0.078125 -3.109375l-0.0625 -4.140625l1.203125 -0.109375l0 1.078125l0.09375 0q0.984375 -0.890625 2.03125 -1.140625q1.203125 0 1.828125 0.5625q0.640625 0.5625 0.625 1.59375l-0.03125 2.078125l0.0625 3.1875l-1.28125 0l0.078125 -4.96875zm6.271637 -2.484375q0.5 0 1.03125 0.125q0.53125 0.109375 0.9375 0.296875l-0.234375 1.109375l-0.140625 0.046875q-0.828125 -0.546875 -1.640625 -0.546875q-0.953125 0 -1.484375 0.734375q-0.515625 0.71875 -0.515625 2.0q0 1.296875 0.546875 2.046875q0.546875 0.75 1.53125 0.75q0.4375 0 0.90625 -0.140625q0.46875 -0.15625 0.890625 -0.40625l0.140625 0.078125l-0.140625 1.078125q-0.984375 0.40625 -1.953125 0.40625q-1.453125 0 -2.296875 -1.0q-0.828125 -1.0 -0.828125 -2.734375q0 -1.78125 0.875 -2.8125q0.875 -1.03125 2.375 -1.03125zm5.7812653 0q1.03125 0 1.625 0.515625q0.609375 0.5 0.609375 1.40625q0 0.265625 -0.09375 1.96875q-0.09375 1.6875 -0.09375 1.984375q0 0.34375 0.109375 0.484375q0.109375 0.140625 0.375 0.140625q0.25 0 0.546875 -0.109375l0.125 0.125l-0.125 0.71875q-0.46875 0.265625 -0.90625 0.3125q-0.5 -0.046875 -0.796875 -0.34375q-0.296875 -0.3125 -0.3125 -0.84375l-0.109375 0q-0.859375 0.890625 -1.71875 1.203125q-1.0625 0 -1.671875 -0.53125q-0.59375 -0.53125 -0.59375 -1.46875q0 -0.703125 0.375 -1.109375q0.375 -0.421875 1.109375 -0.59375l2.59375 -0.609375l0.015625 -1.046875q0 -0.625 -0.328125 -0.953125q-0.328125 -0.34375 -0.9375 -0.34375q-0.546875 0 -1.09375 0.265625q-0.53125 0.25 -1.15625 0.796875l-0.125 -0.0625l-0.171875 -0.921875q1.328125 -0.984375 2.75 -0.984375zm-1.28125 4.625q-0.328125 0.09375 -0.46875 0.265625q-0.140625 0.15625 -0.140625 0.5q0 0.53125 0.296875 0.828125q0.296875 0.296875 0.78125 0.296875q0.890625 0 1.796875 -1.140625l0.046875 -1.3125l-2.3125 0.5625zm8.251389 -4.609375q0.90625 0 1.765625 0.34375l-0.1875 1.046875l-0.1875 0.046875q-0.796875 -0.53125 -1.53125 -0.53125q-0.546875 0 -0.890625 0.3125q-0.328125 0.296875 -0.328125 0.734375q0 0.421875 0.34375 0.6875q0.34375 0.265625 1.0625 0.609375q0.625 0.28125 1.0 0.515625q0.375 0.234375 0.640625 0.625q0.28125 0.375 0.28125 0.9375q0 0.59375 -0.3125 1.109375q-0.296875 0.5 -0.890625 0.8125q-0.59375 0.3125 -1.40625 0.3125q-1.125 0 -2.125 -0.53125l0.15625 -1.078125l0.140625 -0.09375q0.453125 0.375 0.96875 0.59375q0.515625 0.203125 0.984375 0.203125q0.59375 0 0.953125 -0.328125q0.375 -0.328125 0.375 -0.78125q0 -0.421875 -0.34375 -0.6875q-0.34375 -0.265625 -1.0625 -0.609375q-0.625 -0.28125 -1.015625 -0.515625q-0.375 -0.234375 -0.65625 -0.625q-0.265625 -0.40625 -0.265625 -1.0q0 -0.921875 0.671875 -1.515625q0.6875 -0.59375 1.859375 -0.59375zm4.4981384 3.71875l0 0.03125q0 1.34375 0.609375 2.078125q0.609375 0.71875 1.71875 0.71875q0.5625 0 1.125 -0.1875q0.5625 -0.1875 1.03125 -0.515625l0.125 0.09375l-0.203125 1.078125q-1.109375 0.546875 -2.234375 0.546875q-1.5625 0 -2.46875 -1.0q-0.890625 -1.0 -0.890625 -2.734375q0 -1.765625 0.890625 -2.796875q0.90625 -1.046875 2.421875 -1.046875q1.28125 0 1.984375 0.734375q0.703125 0.71875 0.703125 2.015625q0 0.4375 -0.0625 0.8125l-0.15625 0.15625l-4.59375 0.015625zm2.125 -2.84375q-0.796875 0 -1.34375 0.53125q-0.53125 0.515625 -0.703125 1.453125l3.53125 -0.0625l0.03125 -0.21875q0 -0.828125 -0.390625 -1.265625q-0.390625 -0.4375 -1.125 -0.4375zm10.157272 3.34375l0.046875 1.65625q0.015625 0.328125 0.109375 0.46875q0.109375 0.140625 0.359375 0.140625q0.25 0 0.546875 -0.109375l0.125 0.125l-0.125 0.71875q-0.4375 0.265625 -0.90625 0.3125q-0.484375 -0.046875 -0.765625 -0.328125q-0.28125 -0.296875 -0.34375 -0.796875l-0.109375 0q-0.484375 0.421875 -0.875 0.671875q-0.375 0.25 -0.875 0.4375q-1.578125 0 -2.4375 -0.96875q-0.84375 -0.96875 -0.84375 -2.75q0 -1.8125 0.9375 -2.8125q0.953125 -1.0 2.609375 -1.0q0.75 0 1.40625 0.15625l-0.015625 -3.828125l1.265625 -0.109375l-0.109375 8.015625zm-2.6875 -3.34375q-1.015625 0 -1.609375 0.703125q-0.59375 0.6875 -0.59375 2.0q0 1.359375 0.53125 2.125q0.53125 0.75 1.484375 0.75q0.453125 0 0.875 -0.21875q0.421875 -0.234375 0.875 -0.765625l0.046875 -1.15625l-0.0625 -3.03125q-0.84375 -0.40625 -1.546875 -0.40625z" fill-rule="nonzero"/><path fill="#000000" fill-opacity="0.0" d="m19.75853 234.42258l146.29921 0l0 37.165344l-146.29921 0z" fill-rule="evenodd"/><path fill="#38d611" d="m78.645996 248.09633q1.171875 0 1.84375 0.625q0.671875 0.609375 0.671875 1.8125q0 1.046875 -0.453125 1.875q-0.453125 0.828125 -1.3125 1.296875q-0.84375 0.46875 -1.96875 0.46875l-1.078125 0l-0.0625 0.40625l-0.3125 2.9218597l-1.109375 0l0.421875 -2.8281097l0.765625 -6.546875l0.015625 0l2.578125 -0.03125zm-0.578125 5.1875q0.875 -0.125 1.421875 -0.84375q0.546875 -0.71875 0.546875 -1.765625q0 -0.8125 -0.390625 -1.21875q-0.390625 -0.40625 -1.25 -0.453125l-1.359375 0.046875l-0.578125 4.203125l1.609375 0.03125zm8.705093 -2.5625q0.34375 0.640625 0.34375 1.1875q0 0.828125 -0.578125 1.875l-2.09375 3.6718597q-0.875 1.5625 -1.625 2.234375q-0.734375 0.671875 -1.625 0.671875q-0.484375 0 -1.09375 -0.203125l0.03125 -0.9375l0.125 -0.09375q0.5 0.140625 0.921875 0.140625q0.671875 0 1.1875 -0.390625q0.515625 -0.390625 1.0625 -1.296875l-1.34375 -6.7499847l1.09375 -0.109375l0.15625 1.171875l0.703125 4.3124847l0.15625 0l1.421875 -2.6406097q0.484375 -0.84375 0.484375 -1.59375q0 -0.5 -0.328125 -0.96875l0.046875 -0.125l0.953125 -0.15625zm2.632141 5.15625l-0.03125 0.23435974q0 0.21875 0.09375 0.359375q0.109375 0.125 0.296875 0.125q0.53125 0 1.28125 -1.1718597l0.140625 0l0.296875 0.390625q-0.515625 0.85935974 -0.921875 1.2499847q-0.40625 0.390625 -0.921875 0.546875q-0.59375 0 -0.921875 -0.328125q-0.328125 -0.328125 -0.328125 -0.90625l0.03125 -0.359375l0.625 -3.7812347l0.078125 -0.59375l-0.984375 0l-0.0625 -0.078125l0.0625 -0.65625l1.09375 0l0.203125 -1.625l1.015625 -0.46875l0.078125 0.078125l-0.3125 2.015625l1.78125 0l0.09375 0.109375l-0.078125 0.625l-1.921875 0l-0.6875 4.234375zm7.694992 -5.1875q0.515625 0.109375 0.828125 0.453125q0.3125 0.328125 0.296875 0.8125l-0.015625 0.203125l-0.59375 3.765625l-0.09375 1.5312347l-1.125 0.109375l0.8125 -5.0156097l0 -0.1875q0 -0.453125 -0.296875 -0.453125q-0.421875 0 -1.203125 1.078125q-0.765625 1.0625 -1.71875 3.0312347l-0.078125 1.4375l-1.109375 0.109375l1.265625 -8.85936l0.03125 -1.421875l1.109375 -0.09375l-0.953125 6.828125l0.125 0q0.71875 -1.265625 1.3125 -2.046875q0.609375 -0.78125 1.25 -1.28125l0.15625 0zm5.81131 -0.015625q0.796875 0.125 1.203125 0.671875q0.40625 0.546875 0.40625 1.546875q0 1.359375 -0.390625 2.40625q-0.375 1.0312347 -1.109375 1.6406097q-0.71875 0.609375 -1.71875 0.6875l-0.125 0q-0.84375 -0.171875 -1.25 -0.703125q-0.390625 -0.546875 -0.390625 -1.6093597q0 -1.3125 0.390625 -2.34375q0.390625 -1.03125 1.125 -1.625q0.75 -0.609375 1.734375 -0.671875l0.125 0zm-0.3125 0.890625q-1.0 0 -1.53125 1.015625q-0.53125 1.015625 -0.53125 2.71875q0 0.76560974 0.203125 1.1093597q0.21875 0.34375 0.703125 0.34375q0.984375 0 1.5 -1.0156097q0.53125 -1.03125 0.53125 -2.765625q0 -0.75 -0.203125 -1.078125q-0.203125 -0.328125 -0.671875 -0.328125zm7.3674927 -0.875q0.515625 0.109375 0.828125 0.453125q0.3125 0.328125 0.296875 0.8125l-0.015625 0.203125l-0.59375 3.765625l-0.09375 1.5312347l-1.125 0.109375l0.8125 -5.0156097l0.015625 -0.1875q0 -0.453125 -0.3125 -0.453125q-0.421875 0 -1.203125 1.078125q-0.765625 1.0625 -1.71875 3.0312347l-0.0625 1.4375l-1.125 0.109375l0.765625 -5.3281097l0.078125 -1.421875l1.078125 -0.09375l-0.46875 3.296875l0.140625 0q0.734375 -1.28125 1.3125 -2.0625q0.59375 -0.78125 1.234375 -1.265625l0.15625 0z" fill-rule="nonzero"/><path fill="#ffffff" d="m316.35696 104.154854l100.787384 0l0 117.196846l-100.787384 0z" fill-rule="evenodd"/><path stroke="#0070e6" stroke-width="2.0" stroke-linejoin="round" stroke-linecap="butt" d="m316.35696 104.154854l100.787384 0l0 117.196846l-100.787384 0z" fill-rule="evenodd"/><path fill="#0070e6" d="m328.9351 158.14453q0.53125 0 1.15625 -0.328125l0.140625 0.09375l-0.125 0.828125q-0.859375 0.40625 -1.59375 0.46875q-0.921875 -0.171875 -1.328125 -0.671875q-0.390625 -0.5 -0.390625 -1.4375l0.046875 -1.140625l-0.015625 -3.3125l-1.0 0l-0.0625 -0.09375l0.078125 -0.75l0.96875 0l0 -1.1875l1.109375 -0.46875l0.125 0.109375l-0.03125 1.546875l2.171875 0l0.0625 0.09375l-0.078125 0.75l-2.15625 0l-0.078125 4.34375q-0.015625 0.640625 0.21875 0.90625q0.25 0.25 0.78125 0.25zm3.161255 -2.75l0 0.03125q0 1.34375 0.609375 2.078125q0.609375 0.71875 1.71875 0.71875q0.5625 0 1.125 -0.1875q0.5625 -0.1875 1.03125 -0.515625l0.125 0.09375l-0.203125 1.078125q-1.109375 0.546875 -2.234375 0.546875q-1.5625 0 -2.46875 -1.0q-0.890625 -1.0 -0.890625 -2.734375q0 -1.765625 0.890625 -2.796875q0.90625 -1.046875 2.421875 -1.046875q1.28125 0 1.984375 0.734375q0.703125 0.71875 0.703125 2.015625q0 0.4375 -0.0625 0.8125l-0.15625 0.15625l-4.59375 0.015625zm2.125 -2.84375q-0.796875 0 -1.34375 0.53125q-0.53125 0.515625 -0.703125 1.453125l3.53125 -0.0625l0.03125 -0.21875q0 -0.828125 -0.390625 -1.265625q-0.390625 -0.4375 -1.125 -0.4375zm5.438507 -0.125l1.515625 2.21875l1.390625 -2.203125l0.375 -0.65625l1.1875 0l-2.296875 3.578125l2.453125 3.6875l-1.34375 0.125l-0.359375 -0.75l-1.5625 -2.328125l-1.53125 2.390625l-0.328125 0.625l-1.171875 0l2.34375 -3.734375l-2.328125 -3.546875l1.359375 -0.09375l0.296875 0.6875zm8.491272 5.71875q0.53125 0 1.15625 -0.328125l0.140625 0.09375l-0.125 0.828125q-0.859375 0.40625 -1.59375 0.46875q-0.921875 -0.171875 -1.328125 -0.671875q-0.390625 -0.5 -0.390625 -1.4375l0.046875 -1.140625l-0.015625 -3.3125l-1.0 0l-0.0625 -0.09375l0.078125 -0.75l0.96875 0l0 -1.1875l1.109375 -0.46875l0.125 0.109375l-0.03125 1.546875l2.171875 0l0.0625 0.09375l-0.078125 0.75l-2.15625 0l-0.078125 4.34375q-0.015625 0.640625 0.21875 0.90625q0.25 0.25 0.78125 0.25zm5.213379 -7.0625q0.953125 0 1.5625 0.484375q0.625 0.484375 0.625 1.296875q0 0.640625 -0.453125 1.4375q-0.453125 0.78125 -1.421875 1.921875l-1.609375 1.828125l0.03125 0.078125l2.953125 0l1.34375 -0.109375l0.09375 0.078125l-0.171875 1.078125l-1.625 -0.0625l-3.59375 0l-0.59375 0.03125l-0.078125 -0.0625l0 -0.796875l2.21875 -2.421875q0.875 -0.953125 1.265625 -1.578125q0.40625 -0.640625 0.40625 -1.125q0 -0.4375 -0.328125 -0.703125q-0.3125 -0.28125 -0.890625 -0.28125q-0.578125 0 -1.140625 0.28125q-0.5625 0.28125 -1.03125 0.796875l-0.15625 0l-0.21875 -0.96875q0.625 -0.578125 1.34375 -0.890625q0.71875 -0.3125 1.46875 -0.3125zm5.311249 1.625l1.578125 5.140625l0.09375 0l1.859375 -5.078125l0.25 -0.984375l1.140625 0l-2.6875 7.328125l-1.359375 0l-2.28125 -7.296875l1.1875 -0.078125l0.21875 0.96875zm6.684662 2.6875l0 0.03125q0 1.34375 0.609375 2.078125q0.609375 0.71875 1.71875 0.71875q0.5625 0 1.125 -0.1875q0.5625 -0.1875 1.03125 -0.515625l0.125 0.09375l-0.203125 1.078125q-1.109375 0.546875 -2.234375 0.546875q-1.5625 0 -2.46875 -1.0q-0.890625 -1.0 -0.890625 -2.734375q0 -1.765625 0.890625 -2.796875q0.90625 -1.046875 2.421875 -1.046875q1.28125 0 1.984375 0.734375q0.703125 0.71875 0.703125 2.015625q0 0.4375 -0.0625 0.8125l-0.15625 0.15625l-4.59375 0.015625zm2.125 -2.84375q-0.796875 0 -1.34375 0.53125q-0.53125 0.515625 -0.703125 1.453125l3.53125 -0.0625l0.03125 -0.21875q0 -0.828125 -0.390625 -1.265625q-0.390625 -0.4375 -1.125 -0.4375zm7.313507 -0.890625q0.5 0 1.03125 0.125q0.53125 0.109375 0.9375 0.296875l-0.234375 1.109375l-0.140625 0.046875q-0.828125 -0.546875 -1.640625 -0.546875q-0.953125 0 -1.484375 0.734375q-0.515625 0.71875 -0.515625 2.0q0 1.296875 0.546875 2.046875q0.546875 0.75 1.53125 0.75q0.4375 0 0.90625 -0.140625q0.46875 -0.15625 0.890625 -0.40625l0.140625 0.078125l-0.140625 1.078125q-0.984375 0.40625 -1.953125 0.40625q-1.453125 0 -2.296875 -1.0q-0.828125 -1.0 -0.828125 -2.734375q0 -1.78125 0.875 -2.8125q0.875 -1.03125 2.375 -1.03125zm6.371277 2.765625l0 0.796875l-3.859375 0.5625l-0.125 -0.125l0 -0.796875l3.875 -0.546875l0.109375 0.109375z" fill-rule="nonzero"/><path fill="#0070e6" d="m328.9351 177.14453q0.53125 0 1.15625 -0.328125l0.140625 0.09375l-0.125 0.828125q-0.859375 0.40625 -1.59375 0.46875q-0.921875 -0.171875 -1.328125 -0.671875q-0.390625 -0.5 -0.390625 -1.4375l0.046875 -1.140625l-0.015625 -3.3125l-1.0 0l-0.0625 -0.09375l0.078125 -0.75l0.96875 0l0 -1.1875l1.109375 -0.46875l0.125 0.109375l-0.03125 1.546875l2.171875 0l0.0625 0.09375l-0.078125 0.75l-2.15625 0l-0.078125 4.34375q-0.015625 0.640625 0.21875 0.90625q0.25 0.25 0.78125 0.25zm6.166504 -6.375q0.1875 0 0.421875 0.03125l0 1.234375l-0.15625 0.046875q-0.265625 -0.078125 -0.59375 -0.078125q-0.515625 0 -0.96875 0.421875q-0.4375 0.421875 -0.859375 1.34375l-0.015625 1.125l0.078125 3.21875l-1.265625 0l0.078125 -3.109375l-0.0625 -4.140625l1.203125 -0.109375l-0.015625 1.5l0.09375 0q0.453125 -0.796875 0.984375 -1.140625q0.546875 -0.34375 1.078125 -0.34375zm4.0704956 -0.109375q1.03125 0 1.625 0.515625q0.609375 0.5 0.609375 1.40625q0 0.265625 -0.09375 1.96875q-0.09375 1.6875 -0.09375 1.984375q0 0.34375 0.109375 0.484375q0.109375 0.140625 0.375 0.140625q0.25 0 0.546875 -0.109375l0.125 0.125l-0.125 0.71875q-0.46875 0.265625 -0.90625 0.3125q-0.5 -0.046875 -0.796875 -0.34375q-0.296875 -0.3125 -0.3125 -0.84375l-0.109375 0q-0.859375 0.890625 -1.71875 1.203125q-1.0625 0 -1.671875 -0.53125q-0.59375 -0.53125 -0.59375 -1.46875q0 -0.703125 0.375 -1.109375q0.375 -0.421875 1.109375 -0.59375l2.59375 -0.609375l0.015625 -1.046875q0 -0.625 -0.328125 -0.953125q-0.328125 -0.34375 -0.9375 -0.34375q-0.546875 0 -1.09375 0.265625q-0.53125 0.25 -1.15625 0.796875l-0.125 -0.0625l-0.171875 -0.921875q1.328125 -0.984375 2.75 -0.984375zm-1.28125 4.625q-0.328125 0.09375 -0.46875 0.265625q-0.140625 0.15625 -0.140625 0.5q0 0.53125 0.296875 0.828125q0.296875 0.296875 0.78125 0.296875q0.890625 0 1.796875 -1.140625l0.046875 -1.3125l-2.3125 0.5625zm10.7164 -2.140625q0.015625 -0.65625 -0.3125 -1.03125q-0.3125 -0.375 -0.9375 -0.375q-1.015625 0 -2.171875 1.140625l0 2.015625l0.0625 3.21875l-1.265625 0l0.078125 -3.109375l-0.0625 -4.140625l1.203125 -0.109375l0 1.078125l0.09375 0q0.984375 -0.890625 2.03125 -1.140625q1.203125 0 1.828125 0.5625q0.640625 0.5625 0.625 1.59375l-0.03125 2.078125l0.0625 3.1875l-1.28125 0l0.078125 -4.96875zm5.631012 -2.46875q0.90625 0 1.765625 0.34375l-0.1875 1.046875l-0.1875 0.046875q-0.796875 -0.53125 -1.53125 -0.53125q-0.546875 0 -0.890625 0.3125q-0.328125 0.296875 -0.328125 0.734375q0 0.421875 0.34375 0.6875q0.34375 0.265625 1.0625 0.609375q0.625 0.28125 1.0 0.515625q0.375 0.234375 0.640625 0.625q0.28125 0.375 0.28125 0.9375q0 0.59375 -0.3125 1.109375q-0.296875 0.5 -0.890625 0.8125q-0.59375 0.3125 -1.40625 0.3125q-1.125 0 -2.125 -0.53125l0.15625 -1.078125l0.140625 -0.09375q0.453125 0.375 0.96875 0.59375q0.515625 0.203125 0.984375 0.203125q0.59375 0 0.953125 -0.328125q0.375 -0.328125 0.375 -0.78125q0 -0.421875 -0.34375 -0.6875q-0.34375 -0.265625 -1.0625 -0.609375q-0.625 -0.28125 -1.015625 -0.515625q-0.375 -0.234375 -0.65625 -0.625q-0.265625 -0.40625 -0.265625 -1.0q0 -0.921875 0.671875 -1.515625q0.6875 -0.59375 1.859375 -0.59375zm6.9981384 -3.828125q0.5625 0 1.234375 0.140625l-0.09375 1.0l-0.09375 0.078125q-0.578125 -0.296875 -1.171875 -0.296875q-0.625 0 -0.96875 0.40625q-0.328125 0.390625 -0.34375 1.15625l-0.015625 1.46875l1.921875 0l0.046875 0.09375l-0.078125 0.75l-1.90625 0l-0.03125 3.25l0.078125 3.21875l-1.25 0l0.09375 -3.125l-0.03125 -3.34375l-1.109375 0l-0.0625 -0.09375l0.078125 -0.75l1.09375 0l-0.015625 -1.28125q-0.015625 -1.296875 0.671875 -1.984375q0.6875 -0.6875 1.953125 -0.6875zm4.2162476 3.8125q1.484375 0 2.3125 0.96875q0.828125 0.96875 0.828125 2.71875q0 1.859375 -0.875 2.875q-0.859375 1.015625 -2.453125 1.015625q-1.515625 0 -2.34375 -0.96875q-0.8125 -0.96875 -0.8125 -2.71875q0 -1.859375 0.875 -2.875q0.875 -1.015625 2.46875 -1.015625zm-0.078125 0.890625q-1.015625 0 -1.546875 0.6875q-0.515625 0.6875 -0.515625 2.015625q0 1.546875 0.515625 2.3125q0.515625 0.765625 1.515625 0.765625q1.0 0 1.53125 -0.671875q0.53125 -0.671875 0.53125 -2.015625q0 -1.515625 -0.53125 -2.296875q-0.515625 -0.796875 -1.5 -0.796875zm8.399139 -0.78125q0.1875 0 0.421875 0.03125l0 1.234375l-0.15625 0.046875q-0.265625 -0.078125 -0.59375 -0.078125q-0.515625 0 -0.96875 0.421875q-0.4375 0.421875 -0.859375 1.34375l-0.015625 1.125l0.078125 3.21875l-1.265625 0l0.078125 -3.109375l-0.0625 -4.140625l1.203125 -0.109375l-0.015625 1.5l0.09375 0q0.453125 -0.796875 0.984375 -1.140625q0.546875 -0.34375 1.078125 -0.34375zm10.98053 2.375q0.015625 -0.65625 -0.3125 -1.03125q-0.3125 -0.375 -0.9375 -0.375q-1.03125 0 -2.125 1.109375l-0.03125 2.078125l0.0625 3.1875l-1.296875 0l0.09375 -4.96875q0.015625 -0.65625 -0.3125 -1.03125q-0.3125 -0.375 -0.9375 -0.375q-1.015625 0 -2.171875 1.140625l0 2.015625l0.0625 3.21875l-1.265625 0l0.078125 -3.109375l-0.0625 -4.140625l1.203125 -0.109375l0 1.078125l0.09375 0q0.984375 -0.890625 2.03125 -1.140625q0.890625 0 1.46875 0.3125q0.578125 0.3125 0.8125 0.90625l0.109375 0q1.0 -0.921875 2.15625 -1.21875q1.21875 0 1.828125 0.5625q0.625 0.5625 0.609375 1.59375l-0.03125 2.078125l0.0625 3.1875l-1.265625 0l0.078125 -4.96875zm4.2062683 1.25l0 0.03125q0 1.34375 0.609375 2.078125q0.609375 0.71875 1.71875 0.71875q0.5625 0 1.125 -0.1875q0.5625 -0.1875 1.03125 -0.515625l0.125 0.09375l-0.203125 1.078125q-1.109375 0.546875 -2.234375 0.546875q-1.5625 0 -2.46875 -1.0q-0.890625 -1.0 -0.890625 -2.734375q0 -1.765625 0.890625 -2.796875q0.90625 -1.046875 2.421875 -1.046875q1.28125 0 1.984375 0.734375q0.703125 0.71875 0.703125 2.015625q0 0.4375 -0.0625 0.8125l-0.15625 0.15625l-4.59375 0.015625zm2.125 -2.84375q-0.796875 0 -1.34375 0.53125q-0.53125 0.515625 -0.703125 1.453125l3.53125 -0.0625l0.03125 -0.21875q0 -0.828125 -0.390625 -1.265625q-0.390625 -0.4375 -1.125 -0.4375zm8.032288 -0.78125q0.1875 0 0.421875 0.03125l0 1.234375l-0.15625 0.046875q-0.265625 -0.078125 -0.59375 -0.078125q-0.515625 0 -0.96875 0.421875q-0.4375 0.421875 -0.859375 1.34375l-0.015625 1.125l0.078125 3.21875l-1.265625 0l0.078125 -3.109375l-0.0625 -4.140625l1.203125 -0.109375l-0.015625 1.5l0.09375 0q0.453125 -0.796875 0.984375 -1.140625q0.546875 -0.34375 1.078125 -0.34375zm3.8086243 -0.09375q0.90625 0 1.765625 0.34375l-0.1875 1.046875l-0.1875 0.046875q-0.796875 -0.53125 -1.53125 -0.53125q-0.546875 0 -0.890625 0.3125q-0.328125 0.296875 -0.328125 0.734375q0 0.421875 0.34375 0.6875q0.34375 0.265625 1.0625 0.609375q0.625 0.28125 1.0 0.515625q0.375 0.234375 0.640625 0.625q0.28125 0.375 0.28125 0.9375q0 0.59375 -0.3125 1.109375q-0.296875 0.5 -0.890625 0.8125q-0.59375 0.3125 -1.40625 0.3125q-1.125 0 -2.125 -0.53125l0.15625 -1.078125l0.140625 -0.09375q0.453125 0.375 0.96875 0.59375q0.515625 0.203125 0.984375 0.203125q0.59375 0 0.953125 -0.328125q0.375 -0.328125 0.375 -0.78125q0 -0.421875 -0.34375 -0.6875q-0.34375 -0.265625 -1.0625 -0.609375q-0.625 -0.28125 -1.015625 -0.515625q-0.375 -0.234375 -0.65625 -0.625q-0.265625 -0.40625 -0.265625 -1.0q0 -0.921875 0.671875 -1.515625q0.6875 -0.59375 1.859375 -0.59375z" fill-rule="nonzero"/><path fill="#ffffff" d="m443.87402 46.233597l36.125977 0l0 212.28346l-36.125977 0z" fill-rule="evenodd"/><path stroke="#ff0000" stroke-width="2.0" stroke-linejoin="round" stroke-linecap="butt" d="m443.87402 46.233597l36.125977 0l0 212.28346l-36.125977 0z" fill-rule="evenodd"/><path fill="#000000" fill-opacity="0.0" d="m440.92914 217.72966l0 -130.70866l42.015747 0l0 130.70866z" fill-rule="evenodd"/><path fill="#ff0000" d="m467.84912 181.02553l0 1.34375l-3.640625 0.28125l-5.953125 0.625l0 0.140625l8.21875 3.3125l0 1.234375l-8.21875 3.15625l0 0.140625l5.84375 0.640625l3.75 0.3125l0 1.265625l-11.953125 -1.25l0 -1.6875l1.828125 -0.625l6.796875 -2.59375l0 -0.109375l-6.921875 -2.71875l-1.703125 -0.625l0 -1.671875l11.953125 -1.171875zm-8.6875 -5.455826q0 -1.734375 1.125 -2.6875q1.125 -0.96875 3.171875 -0.96875q2.171875 0 3.359375 1.015625q1.1875 1.0 1.1875 2.875q0 1.75 -1.125 2.71875q-1.140625 0.953125 -3.1875 0.953125q-2.171875 0 -3.34375 -1.015625q-1.1875 -1.015625 -1.1875 -2.890625zm1.03125 0.09375q0 1.171875 0.8125 1.796875q0.796875 0.609375 2.34375 0.609375q1.796875 0 2.6875 -0.59375q0.890625 -0.609375 0.890625 -1.765625q0 -1.1875 -0.78125 -1.796875q-0.78125 -0.609375 -2.34375 -0.609375q-1.78125 0 -2.6875 0.609375q-0.921875 0.59375 -0.921875 1.75zm3.90625 -12.457092l1.921875 -0.0625q0.390625 -0.015625 0.546875 -0.125q0.15625 -0.109375 0.15625 -0.40625q0 -0.296875 -0.109375 -0.640625l0.140625 -0.140625l0.828125 0.140625q0.328125 0.5 0.375 1.046875q-0.046875 0.578125 -0.375 0.90625q-0.34375 0.328125 -0.921875 0.40625l0 0.125q0.484375 0.5625 0.78125 1.015625q0.28125 0.4375 0.5 1.015625q0 1.84375 -1.125 2.84375q-1.140625 0.984375 -3.21875 0.984375q-2.109375 0 -3.265625 -1.09375q-1.171875 -1.109375 -1.171875 -3.046875q0 -0.875 0.1875 -1.640625l-4.46875 0.015625l-0.125 -1.46875l9.34375 0.125zm-3.90625 3.140625q0 1.1875 0.8125 1.875q0.8125 0.6875 2.34375 0.6875q1.59375 0 2.46875 -0.625q0.875 -0.625 0.875 -1.71875q0 -0.53125 -0.25 -1.015625q-0.265625 -0.5 -0.890625 -1.03125l-1.34375 -0.046875l-3.546875 0.0625q-0.46875 0.984375 -0.46875 1.8125zm6.5625 -14.054565l0.828125 0.140625q0.328125 0.546875 0.375 1.078125q-0.078125 0.53125 -0.375 0.859375q-0.3125 0.328125 -0.921875 0.453125l0 0.109375q1.0 1.125 1.296875 2.328125q0 1.375 -0.640625 2.09375q-0.65625 0.71875 -1.875 0.703125l-2.375 -0.03125l-3.671875 0.0625l-0.125 -1.484375l5.8125 0.109375q0.765625 0 1.203125 -0.359375q0.421875 -0.375 0.421875 -1.078125q0 -1.15625 -1.109375 -2.3125l-6.203125 0l-0.125 -1.421875l6.75 0.09375q0.390625 0 0.546875 -0.125q0.15625 -0.125 0.15625 -0.421875q0 -0.296875 -0.109375 -0.65625l0.140625 -0.140625zm-2.65625 -3.3271942l3.75 -0.09375l0 1.484375l-3.640625 -0.109375l-9.328125 0.09375l-0.125 -1.484375l9.34375 0.109375zm-0.578125 -3.8268433l0.03125 0q1.578125 0 2.421875 -0.703125q0.828125 -0.703125 0.828125 -2.015625q0 -0.65625 -0.203125 -1.296875q-0.21875 -0.65625 -0.609375 -1.203125l0.109375 -0.140625l1.265625 0.21875q0.640625 1.3125 0.640625 2.609375q0 1.828125 -1.171875 2.875q-1.171875 1.046875 -3.203125 1.046875q-2.046875 0 -3.25 -1.046875q-1.21875 -1.046875 -1.21875 -2.8125q0 -1.5 0.84375 -2.3125q0.84375 -0.828125 2.359375 -0.828125q0.5 0 0.953125 0.078125l0.1875 0.1875l0.015625 5.34375zm-3.328125 -2.46875q0 0.921875 0.609375 1.546875q0.609375 0.625 1.71875 0.84375l-0.078125 -4.125l-0.265625 -0.046875q-0.953125 0 -1.46875 0.46875q-0.515625 0.453125 -0.515625 1.3125zm7.65625 -17.413193l0 1.53125l-1.1875 0.28125l-2.0625 0.671875l-0.046875 2.6875l0.046875 2.421875l1.984375 0.734375l1.265625 0.296875l0 1.484375l-11.953125 -4.375l0 -1.734375l11.953125 -4.0zm-4.515625 2.890625l-5.890625 1.9375l0 0.140625l5.890625 2.15625l0.03125 -2.078125l-0.03125 -2.15625zm-7.46875 -8.68956q0 -1.75 0.90625 -2.703125q0.90625 -0.953125 2.609375 -0.953125q2.0 0 3.140625 1.1875q1.125 1.1875 1.125 3.265625l0 1.421875l0.46875 0l3.734375 -0.078125l0 1.515625l-3.59375 -0.09375l-8.359375 0.09375l-0.03125 -3.65625zm6.578125 0.234375q-0.1875 -1.15625 -0.9375 -1.75q-0.75 -0.609375 -2.0 -0.609375q-2.3125 0 -2.40625 2.453125l0.0625 1.8125l5.234375 0.0625l0.046875 -1.96875zm1.671875 -7.716873l3.734375 -0.078125l0 1.515625l-3.59375 -0.09375l-8.359375 0.09375l0 -1.53125l8.21875 0.09375z" fill-rule="nonzero"/><path fill="#000000" fill-opacity="0.0" d="m291.75592 221.03674l146.2992 0l0 37.165344l-146.2992 0z" fill-rule="evenodd"/><path fill="#38d611" d="m351.7237 234.648q1.40625 0 2.625 0.671875l-0.359375 1.046875l-0.140625 0.03125q-0.609375 -0.4375 -1.140625 -0.625q-0.53125 -0.1875 -1.171875 -0.1875q-1.75 0 -2.6875 1.234375q-0.921875 1.21875 -0.921875 3.5625q0 1.484375 0.609375 2.1875q0.625 0.703125 1.921875 0.703125q0.40625 0 0.8125 -0.078125q0.40625 -0.078125 1.03125 -0.28125l0.1875 -1.140625l0.15625 -1.453125l1.03125 -0.078125l-0.1875 1.390625l-0.203125 2.03125q-0.875 0.296875 -1.515625 0.4375q-0.640625 0.125 -1.390625 0.125q-1.75 0 -2.671875 -0.96875q-0.90625 -0.984375 -0.90625 -2.78125q0 -2.78125 1.28125 -4.296875q1.296875 -1.53125 3.640625 -1.53125zm6.462158 2.640625q0.796875 0.125 1.203125 0.671875q0.40625 0.546875 0.40625 1.546875q0 1.359375 -0.390625 2.40625q-0.375 1.03125 -1.109375 1.640625q-0.71875 0.609375 -1.71875 0.6875l-0.125 0q-0.84375 -0.171875 -1.25 -0.703125q-0.390625 -0.546875 -0.390625 -1.609375q0 -1.3125 0.390625 -2.34375q0.390625 -1.03125 1.125 -1.625q0.75 -0.609375 1.734375 -0.671875l0.125 0zm-0.3125 0.890625q-1.0 0 -1.53125 1.015625q-0.53125 1.015625 -0.53125 2.71875q0 0.765625 0.203125 1.109375q0.21875 0.34375 0.703125 0.34375q0.984375 0 1.5 -1.015625q0.53125 -1.03125 0.53125 -2.765625q0 -0.75 -0.203125 -1.078125q-0.203125 -0.328125 -0.671875 -0.328125zm4.4456177 4.34375l-0.078125 1.546875l-1.109375 0.109375l1.25 -8.859375l0.046875 -1.421875l1.09375 -0.09375l-1.203125 8.71875zm7.3388367 -5.140625l-0.71875 5.140625l-0.078125 1.546875l-1.109375 0.109375l0.421875 -3.015625l-0.140625 0q-1.078125 1.890625 -2.3125 3.0625l-0.203125 0q-1.109375 -0.640625 -1.109375 -2.3125q0 -1.046875 0.390625 -2.046875q0.40625 -1.0 1.171875 -1.6875q0.765625 -0.703125 1.859375 -0.875l0.078125 0l0.90625 0.328125l0.703125 -0.34375l0.140625 0.09375zm-3.828125 5.640625q0.171875 0 0.609375 -0.484375q0.4375 -0.484375 0.984375 -1.40625q0.546875 -0.921875 1.078125 -2.171875l0.015625 -0.09375l0.015625 -0.34375l-0.921875 -0.328125q-0.671875 0 -1.171875 0.46875q-0.5 0.453125 -0.765625 1.25q-0.265625 0.78125 -0.265625 1.71875q0 0.734375 0.125 1.0625q0.140625 0.328125 0.296875 0.328125zm9.465363 -5.71875q0.515625 0.109375 0.828125 0.453125q0.3125 0.328125 0.296875 0.8125l-0.015625 0.203125l-0.59375 3.765625l-0.09375 1.53125l-1.125 0.109375l0.8125 -5.015625l0.015625 -0.1875q0 -0.453125 -0.3125 -0.453125q-0.421875 0 -1.203125 1.078125q-0.765625 1.0625 -1.71875 3.03125l-0.0625 1.4375l-1.125 0.109375l0.765625 -5.328125l0.078125 -1.421875l1.078125 -0.09375l-0.46875 3.296875l0.140625 0q0.734375 -1.28125 1.3125 -2.0625q0.59375 -0.78125 1.234375 -1.265625l0.15625 0zm7.672638 0.078125l-0.71875 5.078125l-0.125 1.09375q-0.140625 1.078125 -0.625 1.859375q-0.484375 0.78125 -1.21875 1.1875q-0.71875 0.421875 -1.546875 0.421875q-0.9375 0 -1.546875 -0.546875q-0.625 -0.53125 -0.8125 -1.515625l0.046875 -0.109375l2.078125 -1.296875l0 -0.125q-0.296875 -0.28125 -0.453125 -0.6875q-0.140625 -0.421875 -0.140625 -1.0625q0 -1.046875 0.375 -1.984375q0.375 -0.9375 1.109375 -1.578125q0.734375 -0.640625 1.75 -0.796875l0.078125 0l0.90625 0.3125l0.6875 -0.34375l0.15625 0.09375zm-2.03125 0.8125q-0.96875 0 -1.515625 0.890625q-0.53125 0.890625 -0.53125 2.234375q0 0.71875 0.140625 1.078125q0.140625 0.34375 0.265625 0.34375q0.15625 0 0.53125 -0.453125q0.390625 -0.453125 0.90625 -1.296875q0.53125 -0.84375 1.046875 -1.953125l0.03125 -0.1875l0.015625 -0.328125l-0.890625 -0.328125zm-1.96875 7.984375q0.828125 0 1.40625 -0.609375q0.578125 -0.59375 0.734375 -1.71875l0.390625 -2.8125l-0.15625 0q-1.03125 1.828125 -2.15625 2.71875l-1.5 1.125q-0.125 0.109375 -0.125 0.25q0 0.390625 0.375 0.71875q0.390625 0.328125 1.03125 0.328125z" fill-rule="nonzero"/><path fill="#000000" fill-opacity="0.0" d="m291.75592 40.262466l146.2992 0l0 37.16535l-146.2992 0z" fill-rule="evenodd"/><path fill="#ff0000" d="m350.91092 63.34247l-1.0625 0l-0.21875 -2.859375l-0.5 -4.671875l-0.09375 0l-2.609375 6.453125l-0.96875 0l-2.484375 -6.453125l-0.109375 0l-0.5 4.578125l-0.25 2.953125l-1.0 0l0.984375 -9.390625l1.328125 0l0.484375 1.4375l2.046875 5.34375l0.078125 0l2.140625 -5.4375l0.484375 -1.34375l1.328125 0l0.921875 9.390625zm4.270508 -6.828125q1.375 0 2.125 0.890625q0.75 0.875 0.75 2.5q0 1.6875 -0.796875 2.625q-0.78125 0.9375 -2.25 0.9375q-1.375 0 -2.140625 -0.890625q-0.75 -0.890625 -0.75 -2.5q0 -1.703125 0.796875 -2.625q0.8125 -0.9375 2.265625 -0.9375zm-0.0625 0.8125q-0.921875 0 -1.40625 0.640625q-0.484375 0.625 -0.484375 1.84375q0 1.40625 0.46875 2.109375q0.484375 0.703125 1.390625 0.703125q0.921875 0 1.40625 -0.609375q0.484375 -0.625 0.484375 -1.859375q0 -1.390625 -0.484375 -2.109375q-0.46875 -0.71875 -1.375 -0.71875zm9.789978 3.0625l0.046875 1.515625q0.015625 0.3125 0.09375 0.4375q0.09375 0.125 0.328125 0.125q0.234375 0 0.5 -0.09375l0.109375 0.109375l-0.109375 0.65625q-0.40625 0.25 -0.828125 0.296875q-0.453125 -0.046875 -0.71875 -0.3125q-0.25 -0.265625 -0.3125 -0.71875l-0.09375 0q-0.4375 0.375 -0.796875 0.609375q-0.34375 0.21875 -0.796875 0.40625q-1.453125 0 -2.234375 -0.890625q-0.78125 -0.890625 -0.78125 -2.53125q0 -1.65625 0.859375 -2.5625q0.875 -0.921875 2.40625 -0.921875q0.6875 0 1.28125 0.140625l-0.015625 -3.5l1.15625 -0.09375l-0.09375 7.328125zm-2.46875 -3.0625q-0.9375 0 -1.484375 0.640625q-0.53125 0.640625 -0.53125 1.84375q0 1.25 0.484375 1.9375q0.5 0.6875 1.359375 0.6875q0.40625 0 0.796875 -0.203125q0.390625 -0.203125 0.8125 -0.6875l0.03125 -1.0625l-0.046875 -2.78125q-0.78125 -0.375 -1.421875 -0.375zm11.045105 5.15625l-0.125 0.65625q-0.421875 0.25 -0.828125 0.296875q-0.4375 -0.0625 -0.6875 -0.296875q-0.25 -0.25 -0.359375 -0.734375l-0.09375 0q-0.875 0.796875 -1.8125 1.03125q-1.078125 0 -1.65625 -0.515625q-0.5625 -0.515625 -0.546875 -1.46875l0.015625 -1.859375l-0.03125 -2.890625l1.171875 -0.09375l-0.09375 4.5625q0 0.609375 0.28125 0.953125q0.296875 0.328125 0.84375 0.328125q0.90625 0 1.8125 -0.875l0 -4.875l1.125 -0.09375l-0.078125 5.296875q0 0.3125 0.09375 0.4375q0.09375 0.125 0.328125 0.125q0.234375 0 0.515625 -0.09375l0.125 0.109375zm2.599701 -2.09375l0.078125 2.953125l-1.15625 0l0.078125 -2.859375l-0.0625 -7.328125l1.15625 -0.09375l-0.09375 7.328125zm3.0107422 -0.453125l0 0.03125q0 1.234375 0.546875 1.890625q0.5625 0.65625 1.59375 0.65625q0.515625 0 1.015625 -0.15625q0.515625 -0.171875 0.9375 -0.484375l0.125 0.09375l-0.171875 1.0q-1.03125 0.5 -2.0625 0.5q-1.4375 0 -2.265625 -0.921875q-0.8125 -0.921875 -0.8125 -2.515625q0 -1.609375 0.8125 -2.5625q0.828125 -0.953125 2.234375 -0.953125q1.171875 0 1.8125 0.671875q0.640625 0.65625 0.640625 1.84375q0 0.40625 -0.0625 0.75l-0.140625 0.140625l-4.203125 0.015625zm1.953125 -2.609375q-0.734375 0 -1.234375 0.484375q-0.484375 0.46875 -0.65625 1.34375l3.25 -0.0625l0.03125 -0.203125q0 -0.75 -0.359375 -1.15625q-0.359375 -0.40625 -1.03125 -0.40625zm6.1003113 -0.796875q0.84375 0 1.609375 0.3125l-0.15625 0.953125l-0.171875 0.046875q-0.734375 -0.484375 -1.40625 -0.484375q-0.5 0 -0.8125 0.28125q-0.296875 0.28125 -0.296875 0.671875q0 0.40625 0.3125 0.65625q0.3125 0.234375 0.96875 0.53125q0.578125 0.265625 0.921875 0.484375q0.34375 0.203125 0.59375 0.5625q0.25 0.34375 0.25 0.859375q0 0.546875 -0.28125 1.015625q-0.28125 0.46875 -0.828125 0.765625q-0.53125 0.28125 -1.28125 0.28125q-1.03125 0 -1.953125 -0.484375l0.140625 -1.0l0.140625 -0.09375q0.40625 0.359375 0.875 0.546875q0.484375 0.1875 0.90625 0.1875q0.546875 0 0.875 -0.296875q0.34375 -0.296875 0.34375 -0.71875q0 -0.390625 -0.3125 -0.625q-0.3125 -0.25 -0.96875 -0.5625q-0.578125 -0.265625 -0.9375 -0.46875q-0.34375 -0.21875 -0.59375 -0.578125q-0.25 -0.375 -0.25 -0.90625q0 -0.859375 0.625 -1.390625q0.625 -0.546875 1.6875 -0.546875z" fill-rule="nonzero"/><path fill="#ffffff" d="m291.75592 279.90842l0 0c0 -5.0649414 4.1059265 -9.170898 9.170868 -9.170898l366.38266 0c2.432251 0 4.7648926 0.96621704 6.4848022 2.6860962c1.7198486 1.7198792 2.6860352 4.0525208 2.6860352 6.4848022l0 81.68973c0 5.0649414 -4.105896 9.170898 -9.170837 9.170898l-366.38266 0c-5.0649414 0 -9.170868 -4.105957 -9.170868 -9.170898z" fill-rule="evenodd"/><path stroke="#666666" stroke-width="2.0" stroke-linejoin="round" stroke-linecap="butt" stroke-dasharray="8.0,6.0" d="m291.75592 279.90842l0 0c0 -5.0649414 4.1059265 -9.170898 9.170868 -9.170898l366.38266 0c2.432251 0 4.7648926 0.96621704 6.4848022 2.6860962c1.7198486 1.7198792 2.6860352 4.0525208 2.6860352 6.4848022l0 81.68973c0 5.0649414 -4.105896 9.170898 -9.170837 9.170898l-366.38266 0c-5.0649414 0 -9.170868 -4.105957 -9.170868 -9.170898z" fill-rule="evenodd"/><path fill="#666666" d="m448.72644 315.6889q1.75 0 2.703125 0.90625q0.953125 0.90625 0.953125 2.609375q0 2.0 -1.1875 3.140625q-1.1875 1.125 -3.265625 1.125l-1.421875 0l0 0.46875l0.078125 3.734375l-1.515625 0l0.09375 -3.59375l-0.09375 -8.359375l3.65625 -0.03125zm-0.234375 6.578125q1.15625 -0.1875 1.75 -0.9375q0.609375 -0.75 0.609375 -2.0q0 -2.3125 -2.453125 -2.40625l-1.8125 0.0625l-0.0625 5.234375l1.96875 0.046875zm5.932892 1.078125l0 0.03125q0 1.578125 0.703125 2.421875q0.703125 0.828125 2.015625 0.828125q0.65625 0 1.296875 -0.203125q0.65625 -0.21875 1.203125 -0.609375l0.140625 0.109375l-0.21875 1.265625q-1.3125 0.640625 -2.609375 0.640625q-1.828125 0 -2.875 -1.171875q-1.046875 -1.171875 -1.046875 -3.203125q0 -2.046875 1.046875 -3.25q1.046875 -1.21875 2.8125 -1.21875q1.5 0 2.3125 0.84375q0.828125 0.84375 0.828125 2.359375q0 0.5 -0.078125 0.953125l-0.1875 0.1875l-5.34375 0.015625zm2.46875 -3.328125q-0.921875 0 -1.546875 0.609375q-0.625 0.609375 -0.84375 1.71875l4.125 -0.078125l0.046875 -0.265625q0 -0.953125 -0.46875 -1.46875q-0.453125 -0.515625 -1.3125 -0.515625zm9.36615 -0.90625q0.234375 0 0.484375 0.03125l0 1.4375l-0.15625 0.0625q-0.328125 -0.09375 -0.703125 -0.09375q-0.609375 0 -1.125 0.5q-0.515625 0.484375 -1.015625 1.5625l-0.015625 1.3125l0.09375 3.75l-1.46875 0l0.078125 -3.625l-0.0625 -4.828125l1.390625 -0.125l-0.015625 1.75l0.109375 0q0.53125 -0.9375 1.15625 -1.328125q0.640625 -0.40625 1.25 -0.40625zm4.4478455 -0.109375q1.0625 0 2.046875 0.40625l-0.203125 1.21875l-0.21875 0.046875q-0.9375 -0.609375 -1.796875 -0.609375q-0.640625 0 -1.03125 0.359375q-0.390625 0.34375 -0.390625 0.84375q0 0.515625 0.40625 0.828125q0.40625 0.296875 1.234375 0.6875q0.734375 0.34375 1.171875 0.609375q0.4375 0.265625 0.75 0.71875q0.328125 0.453125 0.328125 1.09375q0 0.703125 -0.359375 1.296875q-0.359375 0.59375 -1.046875 0.96875q-0.6875 0.359375 -1.640625 0.359375q-1.3125 0 -2.484375 -0.625l0.1875 -1.265625l0.171875 -0.109375q0.515625 0.4375 1.125 0.6875q0.609375 0.234375 1.15625 0.234375q0.6875 0 1.109375 -0.375q0.4375 -0.375 0.4375 -0.90625q0 -0.5 -0.40625 -0.8125q-0.40625 -0.3125 -1.234375 -0.703125q-0.734375 -0.328125 -1.1875 -0.59375q-0.4375 -0.28125 -0.765625 -0.734375q-0.3125 -0.46875 -0.3125 -1.171875q0 -1.078125 0.796875 -1.765625q0.796875 -0.6875 2.15625 -0.6875zm4.652832 5.046875l-0.046875 -4.828125l1.4375 -0.125l-0.046875 4.828125l0.046875 3.75l-1.453125 0l0.0625 -3.625zm0.703125 -8.75q0.359375 0 0.578125 0.234375q0.234375 0.21875 0.234375 0.609375q0 0.40625 -0.234375 0.65625q-0.234375 0.234375 -0.640625 0.234375q-0.390625 0 -0.609375 -0.21875q-0.21875 -0.21875 -0.21875 -0.640625q0 -0.390625 0.234375 -0.625q0.234375 -0.25 0.65625 -0.25zm6.061676 3.703125q1.0625 0 2.046875 0.40625l-0.203125 1.21875l-0.21875 0.046875q-0.9375 -0.609375 -1.796875 -0.609375q-0.640625 0 -1.03125 0.359375q-0.390625 0.34375 -0.390625 0.84375q0 0.515625 0.40625 0.828125q0.40625 0.296875 1.234375 0.6875q0.734375 0.34375 1.171875 0.609375q0.4375 0.265625 0.75 0.71875q0.328125 0.453125 0.328125 1.09375q0 0.703125 -0.359375 1.296875q-0.359375 0.59375 -1.046875 0.96875q-0.6875 0.359375 -1.640625 0.359375q-1.3125 0 -2.484375 -0.625l0.1875 -1.265625l0.171875 -0.109375q0.515625 0.4375 1.125 0.6875q0.609375 0.234375 1.15625 0.234375q0.6875 0 1.109375 -0.375q0.4375 -0.375 0.4375 -0.90625q0 -0.5 -0.40625 -0.8125q-0.40625 -0.3125 -1.234375 -0.703125q-0.734375 -0.328125 -1.1875 -0.59375q-0.4375 -0.28125 -0.765625 -0.734375q-0.3125 -0.46875 -0.3125 -1.171875q0 -1.078125 0.796875 -1.765625q0.796875 -0.6875 2.15625 -0.6875zm7.246582 7.53125q0.625 0 1.34375 -0.375l0.171875 0.109375l-0.140625 0.984375q-1.015625 0.453125 -1.875 0.53125q-1.0625 -0.203125 -1.53125 -0.78125q-0.46875 -0.578125 -0.46875 -1.671875l0.0625 -1.328125l-0.015625 -3.859375l-1.171875 0l-0.078125 -0.125l0.09375 -0.875l1.140625 0l0 -1.375l1.28125 -0.5625l0.15625 0.140625l-0.046875 1.796875l2.546875 0l0.0625 0.125l-0.09375 0.875l-2.515625 0l-0.09375 5.046875q-0.015625 0.75 0.265625 1.046875q0.28125 0.296875 0.90625 0.296875zm3.6900024 -3.1875l0 0.03125q0 1.578125 0.703125 2.421875q0.703125 0.828125 2.015625 0.828125q0.65625 0 1.296875 -0.203125q0.65625 -0.21875 1.203125 -0.609375l0.140625 0.109375l-0.21875 1.265625q-1.3125 0.640625 -2.609375 0.640625q-1.828125 0 -2.875 -1.171875q-1.046875 -1.171875 -1.046875 -3.203125q0 -2.046875 1.046875 -3.25q1.046875 -1.21875 2.8125 -1.21875q1.5 0 2.3125 0.84375q0.828125 0.84375 0.828125 2.359375q0 0.5 -0.078125 0.953125l-0.1875 0.1875l-5.34375 0.015625zm2.46875 -3.328125q-0.921875 0 -1.546875 0.609375q-0.625 0.609375 -0.84375 1.71875l4.125 -0.078125l0.046875 -0.265625q0 -0.953125 -0.46875 -1.46875q-0.453125 -0.515625 -1.3125 -0.515625zm10.850525 1.859375q0.015625 -0.765625 -0.359375 -1.1875q-0.375 -0.4375 -1.109375 -0.4375q-1.171875 0 -2.53125 1.328125l0 2.34375l0.078125 3.75l-1.46875 0l0.078125 -3.625l-0.0625 -4.828125l1.390625 -0.125l0 1.25l0.109375 0q1.15625 -1.03125 2.375 -1.328125q1.40625 0 2.140625 0.65625q0.734375 0.65625 0.71875 1.859375l-0.046875 2.421875l0.078125 3.71875l-1.484375 0l0.09375 -5.796875zm7.3141174 -2.890625q0.578125 0 1.203125 0.140625q0.625 0.140625 1.078125 0.359375l-0.25 1.28125l-0.171875 0.0625q-0.96875 -0.640625 -1.921875 -0.640625q-1.09375 0 -1.7187195 0.84375q-0.609375 0.84375 -0.609375 2.34375q0 1.515625 0.640625 2.390625q0.6405945 0.859375 1.7812195 0.859375q0.5 0 1.046875 -0.15625q0.5625 -0.171875 1.046875 -0.46875l0.15625 0.09375l-0.15625 1.25q-1.140625 0.484375 -2.28125 0.484375q-1.7030945 0 -2.6718445 -1.171875q-0.96875 -1.171875 -0.96875 -3.203125q0 -2.0625 1.015625 -3.265625q1.015625 -1.203125 2.7812195 -1.203125zm4.776428 4.359375l0 0.03125q0 1.578125 0.703125 2.421875q0.703125 0.828125 2.015625 0.828125q0.65625 0 1.296875 -0.203125q0.65625 -0.21875 1.203125 -0.609375l0.140625 0.109375l-0.21875 1.265625q-1.3125 0.640625 -2.609375 0.640625q-1.828125 0 -2.875 -1.171875q-1.046875 -1.171875 -1.046875 -3.203125q0 -2.046875 1.046875 -3.25q1.046875 -1.21875 2.8125 -1.21875q1.5 0 2.3125 0.84375q0.828125 0.84375 0.828125 2.359375q0 0.5 -0.078125 0.953125l-0.1875 0.1875l-5.34375 0.015625zm2.46875 -3.328125q-0.921875 0 -1.546875 0.609375q-0.625 0.609375 -0.84375 1.71875l4.125 -0.078125l0.046875 -0.265625q0 -0.953125 -0.46875 -1.46875q-0.453125 -0.515625 -1.3125 -0.515625z" fill-rule="nonzero"/><path fill="#000000" fill-opacity="0.0" d="m267.02625 47.587925l-0.5354309 300.9134" fill-rule="evenodd"/><path stroke="#ffffff" stroke-width="8.0" stroke-linejoin="round" stroke-linecap="butt" d="m267.02625 47.587925l-0.5354309 300.9134" fill-rule="evenodd"/><path fill="#000000" fill-opacity="0.0" d="m314.0105 165.00525c-27.220459 0 -40.83072 10.874023 -54.44095 21.748032c-13.6102295 10.874023 -27.220474 21.748032 -54.440933 21.748032" fill-rule="evenodd"/><path stroke="#0070e6" stroke-width="2.0" stroke-linejoin="round" stroke-linecap="butt" d="m314.0105 165.00525c-27.220459 0 -40.83072 10.874023 -54.44095 21.748032c-6.8051147 5.4370117 -13.6102295 10.874023 -22.116623 14.951767c-4.2532043 2.0388794 -8.931717 3.7379456 -14.24823 4.927292c-1.3291168 0.29733276 -2.69812 0.5628052 -4.110306 0.79377747c-0.3530426 0.057739258 -0.7088165 0.113342285 -1.0673065 0.16671753l-0.9236908 0.13084412" fill-rule="evenodd"/><path fill="#0070e6" stroke="#0070e6" stroke-width="2.0" stroke-linecap="butt" d="m216.88931 204.42715l-8.843048 3.8846893l9.271194 2.7083588z" fill-rule="evenodd"/><path fill="#000000" fill-opacity="0.0" d="m417.0 122.50131l26.48819 0" fill-rule="evenodd"/><path stroke="#0070e6" stroke-width="1.0" stroke-linejoin="round" stroke-linecap="butt" d="m420.78998 122.50131l18.908234 0" fill-rule="evenodd"/><path fill="#0070e6" stroke="#0070e6" stroke-width="1.0" stroke-linecap="butt" d="m417.5 122.50131c0 -0.9085083 0.7364807 -1.6449966 1.644989 -1.6449966c0.9085083 0 1.6450195 0.73648834 1.6450195 1.6449966c0 0.9085083 -0.73651123 1.6449966 -1.6450195 1.6449966c-0.9085083 0 -1.644989 -0.73648834 -1.644989 -1.6449966z" fill-rule="nonzero"/><path fill="#0070e6" stroke="#0070e6" stroke-width="1.0" stroke-linecap="butt" d="m442.9882 122.50131c0 0.9085083 -0.7364807 1.6449966 -1.644989 1.6449966c-0.9085083 0 -1.6450195 -0.73648834 -1.6450195 -1.6449966c0 -0.9085083 0.73651123 -1.6449966 1.6450195 -1.6449966c0.9085083 0 1.644989 0.73648834 1.644989 1.6449966z" fill-rule="nonzero"/><path fill="#000000" fill-opacity="0.0" d="m417.0 201.88715l26.48819 0" fill-rule="evenodd"/><path stroke="#0070e6" stroke-width="1.0" stroke-linejoin="round" stroke-linecap="butt" d="m420.78998 201.88715l18.908234 0" fill-rule="evenodd"/><path fill="#0070e6" stroke="#0070e6" stroke-width="1.0" stroke-linecap="butt" d="m417.5 201.88715c0 -0.9085083 0.7364807 -1.6450043 1.644989 -1.6450043c0.9085083 0 1.6450195 0.736496 1.6450195 1.6450043c0 0.9085083 -0.73651123 1.644989 -1.6450195 1.644989c-0.9085083 0 -1.644989 -0.7364807 -1.644989 -1.644989z" fill-rule="nonzero"/><path fill="#0070e6" stroke="#0070e6" stroke-width="1.0" stroke-linecap="butt" d="m442.9882 201.88715c0 0.9085083 -0.7364807 1.644989 -1.644989 1.644989c-0.9085083 0 -1.6450195 -0.7364807 -1.6450195 -1.644989c0 -0.9085083 0.73651123 -1.6450043 1.6450195 -1.6450043c0.9085083 0 1.644989 0.736496 1.644989 1.6450043z" fill-rule="nonzero"/><path fill="#000000" fill-opacity="0.0" d="m401.52493 4.217848l137.82675 0l0 43.622047l-137.82675 0z" fill-rule="evenodd"/><path fill="#000000" d="m426.63712 32.417847l-2.84375 0l-1.921875 -6.15625l-0.171875 0l-1.9375 6.15625l-2.859375 0l-3.609375 -12.875l2.671875 0l0.1875 1.578125l2.28125 8.5l0.1875 0l2.171875 -6.9375l-0.921875 -3.140625l2.765625 0l0.296875 1.859375l2.328125 8.21875l0.171875 0l2.609375 -8.328125l0.3125 -1.75l2.515625 0l-4.234375 12.875zm11.82312 -4.3125l-5.40625 0.03125q0.1875 2.5 2.546875 2.5q1.234375 0 2.75 -0.703125l0.234375 0.140625l-0.40625 1.984375q-1.515625 0.5625 -2.859375 0.5625q-2.203125 0 -3.453125 -1.28125q-1.25 -1.28125 -1.25 -3.546875q0 -2.234375 1.21875 -3.546875q1.21875 -1.3125 3.296875 -1.3125q1.78125 0 2.75 0.96875q0.96875 0.96875 0.96875 2.71875q0 0.453125 -0.09375 1.15625l-0.296875 0.328125zm-1.921875 -1.78125q0 -0.8125 -0.359375 -1.21875q-0.359375 -0.40625 -1.0625 -0.40625q-0.78125 0 -1.296875 0.515625q-0.515625 0.5 -0.703125 1.46875l3.375 -0.078125l0.046875 -0.28125zm7.814972 -3.390625q1.546875 0 2.40625 0.703125q0.875 0.6875 0.875 1.921875q0 0.359375 -0.109375 2.28125q-0.03125 0.5625 -0.078125 1.15625q-0.03125 0.578125 -0.03125 1.0q0 0.34375 0.09375 0.484375q0.109375 0.125 0.375 0.125q0.1875 0 0.515625 -0.09375l0.203125 0.171875l-0.25 1.390625q-0.640625 0.421875 -1.453125 0.5q-0.609375 -0.0625 -1.015625 -0.421875q-0.390625 -0.375 -0.53125 -1.03125l-0.140625 0q-1.0 1.0625 -2.046875 1.484375q-1.453125 -0.03125 -2.28125 -0.765625q-0.8125 -0.734375 -0.8125 -2.015625q0 -1.0 0.515625 -1.5625q0.515625 -0.578125 1.546875 -0.78125l3.0625 -0.578125l0 -0.828125q0 -1.296875 -1.28125 -1.296875q-0.625 0 -1.3125 0.28125q-0.6875 0.28125 -1.546875 0.875l-0.203125 -0.109375l-0.296875 -1.765625q0.859375 -0.546875 1.84375 -0.828125q0.984375 -0.296875 1.953125 -0.296875zm-1.296875 5.765625q-0.3125 0.078125 -0.46875 0.265625q-0.15625 0.1875 -0.15625 0.578125q0 0.515625 0.28125 0.8125q0.28125 0.28125 0.78125 0.28125q0.78125 0 1.640625 -0.921875l0.046875 -1.484375l-2.125 0.46875zm8.855011 -4.09375l1.40625 5.3125l0.140625 0l1.6875 -5.1875l0.328125 -1.609375l2.328125 0l-3.125 9.296875l-2.859375 0l-2.640625 -9.234375l2.484375 -0.125l0.25 1.546875zm7.353119 3.96875l-0.109375 -5.28125l2.625 -0.21875l-0.125 5.25l0.125 4.09375l-2.65625 0l0.140625 -3.84375zm1.25 -10.015625q0.625 0 0.96875 0.359375q0.359375 0.359375 0.359375 1.0q0 0.6875 -0.390625 1.09375q-0.375 0.390625 -1.03125 0.390625q-0.65625 0 -1.015625 -0.359375q-0.34375 -0.359375 -0.34375 -1.03125q0 -0.65625 0.390625 -1.046875q0.390625 -0.40625 1.0625 -0.40625zm7.438751 4.375q1.546875 0 2.40625 0.703125q0.875 0.6875 0.875 1.921875q0 0.359375 -0.109375 2.28125q-0.03125 0.5625 -0.078125 1.15625q-0.03125 0.578125 -0.03125 1.0q0 0.34375 0.09375 0.484375q0.109375 0.125 0.375 0.125q0.1875 0 0.515625 -0.09375l0.203125 0.171875l-0.25 1.390625q-0.640625 0.421875 -1.453125 0.5q-0.609375 -0.0625 -1.015625 -0.421875q-0.390625 -0.375 -0.53125 -1.03125l-0.140625 0q-1.0 1.0625 -2.046875 1.484375q-1.453125 -0.03125 -2.28125 -0.765625q-0.8125 -0.734375 -0.8125 -2.015625q0 -1.0 0.515625 -1.5625q0.515625 -0.578125 1.546875 -0.78125l3.0625 -0.578125l0 -0.828125q0 -1.296875 -1.28125 -1.296875q-0.625 0 -1.3125 0.28125q-0.6875 0.28125 -1.546875 0.875l-0.203125 -0.109375l-0.296875 -1.765625q0.859375 -0.546875 1.84375 -0.828125q0.984375 -0.296875 1.953125 -0.296875zm-1.296875 5.765625q-0.3125 0.078125 -0.46875 0.265625q-0.15625 0.1875 -0.15625 0.578125q0 0.515625 0.28125 0.8125q0.28125 0.28125 0.78125 0.28125q0.78125 0 1.640625 -0.921875l0.046875 -1.484375l-2.125 0.46875zm11.026245 1.765625q0.640625 0 1.328125 -0.34375l0.234375 0.203125l-0.265625 1.578125q-1.015625 0.515625 -2.078125 0.640625q-2.703125 -0.28125 -2.703125 -2.640625l0.09375 -1.671875l-0.015625 -3.4375l-1.234375 0l-0.109375 -0.140625l0.140625 -1.453125l1.1875 0l0 -1.546875l2.421875 -0.78125l0.171875 0.171875l-0.0625 2.15625l2.390625 0l0.078125 0.140625l-0.125 1.453125l-2.375 0l-0.125 4.484375q0 0.640625 0.234375 0.921875q0.25 0.265625 0.8125 0.265625zm10.057495 -2.359375l-5.40625 0.03125q0.1875 2.5 2.546875 2.5q1.234375 0 2.75 -0.703125l0.234375 0.140625l-0.40625 1.984375q-1.515625 0.5625 -2.859375 0.5625q-2.203125 0 -3.453125 -1.28125q-1.25 -1.28125 -1.25 -3.546875q0 -2.234375 1.21875 -3.546875q1.21875 -1.3125 3.296875 -1.3125q1.78125 0 2.75 0.96875q0.96875 0.96875 0.96875 2.71875q0 0.453125 -0.09375 1.15625l-0.296875 0.328125zm-1.921875 -1.78125q0 -0.8125 -0.359375 -1.21875q-0.359375 -0.40625 -1.0625 -0.40625q-0.78125 0 -1.296875 0.515625q-0.515625 0.5 -0.703125 1.46875l3.375 -0.078125l0.046875 -0.28125zm12.678741 -6.953125q1.875 0 3.375 0.78125l-0.46875 2.265625l-0.21875 0.09375q-0.609375 -0.40625 -1.328125 -0.640625q-0.71875 -0.25 -1.484375 -0.25q-3.171875 0 -3.171875 4.171875q0 2.265625 0.828125 3.40625q0.828125 1.125 2.4375 1.125q0.734375 0 1.515625 -0.234375q0.796875 -0.234375 1.4375 -0.625l0.234375 0.140625l-0.21875 2.296875q-1.515625 0.703125 -3.203125 0.703125q-2.875 0 -4.390625 -1.6875q-1.5 -1.6875 -1.5 -4.8125q0 -3.203125 1.609375 -4.96875q1.609375 -1.765625 4.546875 -1.765625zm8.379364 3.5625q2.046875 0 3.125 1.203125q1.078125 1.203125 1.078125 3.46875q0 2.4375 -1.171875 3.734375q-1.15625 1.28125 -3.328125 1.28125q-2.046875 0 -3.125 -1.203125q-1.078125 -1.203125 -1.078125 -3.453125q0 -2.453125 1.15625 -3.734375q1.171875 -1.296875 3.34375 -1.296875zm-0.171875 1.796875q-0.96875 0 -1.40625 0.640625q-0.421875 0.640625 -0.421875 2.0625q0 1.84375 0.4375 2.625q0.4375 0.78125 1.4375 0.78125q0.96875 0 1.390625 -0.625q0.4375 -0.640625 0.4375 -2.078125q0 -1.8125 -0.453125 -2.609375q-0.453125 -0.796875 -1.421875 -0.796875zm11.213104 -1.625q0.1875 0 0.5 0.03125l0 2.46875l-0.28125 0.09375q-0.34375 -0.140625 -0.734375 -0.140625q-1.15625 0 -2.109375 1.5l0 1.265625l0.140625 4.09375l-2.65625 0l0.15625 -3.84375l-0.109375 -5.28125l2.515625 -0.21875l-0.015625 1.828125l0.15625 0q0.984375 -1.796875 2.4375 -1.796875zm9.022522 5.0l-5.40625 0.03125q0.1875 2.5 2.546875 2.5q1.234375 0 2.75 -0.703125l0.234375 0.140625l-0.40625 1.984375q-1.515625 0.5625 -2.859375 0.5625q-2.203125 0 -3.453125 -1.28125q-1.25 -1.28125 -1.25 -3.546875q0 -2.234375 1.21875 -3.546875q1.21875 -1.3125 3.296875 -1.3125q1.78125 0 2.75 0.96875q0.96875 0.96875 0.96875 2.71875q0 0.453125 -0.09375 1.15625l-0.296875 0.328125zm-1.921875 -1.78125q0 -0.8125 -0.359375 -1.21875q-0.359375 -0.40625 -1.0625 -0.40625q-0.78125 0 -1.296875 0.515625q-0.515625 0.5 -0.703125 1.46875l3.375 -0.078125l0.046875 -0.28125z" fill-rule="nonzero"/><path fill="#ffff00" d="m370.9134 128.15486l0 0c0 -12.011108 9.405548 -21.74804 21.007874 -21.74804l0 0c5.5716248 0 10.91507 2.2913055 14.854797 6.36985c3.9397583 4.0785522 6.153076 9.610245 6.153076 15.378189l0 0c0 12.011093 -9.405548 21.748032 -21.007874 21.748032l0 0c-11.602325 0 -21.007874 -9.736938 -21.007874 -21.748032z" fill-rule="evenodd"/><path stroke="#000000" stroke-width="2.0" stroke-linejoin="round" stroke-linecap="butt" d="m370.9134 128.15486l0 0c0 -12.011108 9.405548 -21.74804 21.007874 -21.74804l0 0c5.5716248 0 10.91507 2.2913055 14.854797 6.36985c3.9397583 4.0785522 6.153076 9.610245 6.153076 15.378189l0 0c0 12.011093 -9.405548 21.748032 -21.007874 21.748032l0 0c-11.602325 0 -21.007874 -9.736938 -21.007874 -21.748032z" fill-rule="evenodd"/><path fill="#000000" d="m393.4102 135.07486l-2.5625 0l0 -9.640633q-1.40625 1.3125 -3.3125 1.9375l0 -2.328125q1.015625 -0.328125 2.1875 -1.234375q1.171875 -0.921875 1.609375 -2.140625l2.078125 0l0 13.406258z" fill-rule="nonzero"/><path fill="#ffff00" d="m144.32808 152.37534l0 0c0 -12.011108 9.405548 -21.748032 21.007874 -21.748032l0 0c5.57164 0 10.91507 2.2912903 14.854813 6.3698425c3.939743 4.0785522 6.153061 9.610245 6.153061 15.378189l0 0c0 12.011093 -9.405533 21.748016 -21.007874 21.748016l0 0c-11.602325 0 -21.007874 -9.736923 -21.007874 -21.748016z" fill-rule="evenodd"/><path stroke="#000000" stroke-width="2.0" stroke-linejoin="round" stroke-linecap="butt" d="m144.32808 152.37534l0 0c0 -12.011108 9.405548 -21.748032 21.007874 -21.748032l0 0c5.57164 0 10.91507 2.2912903 14.854813 6.3698425c3.939743 4.0785522 6.153061 9.610245 6.153061 15.378189l0 0c0 12.011093 -9.405533 21.748016 -21.007874 21.748016l0 0c-11.602325 0 -21.007874 -9.736923 -21.007874 -21.748016z" fill-rule="evenodd"/><path fill="#000000" d="m168.91866 156.92033l0 2.375l-8.96875 0q0.140625 -1.34375 0.859375 -2.546875q0.734375 -1.21875 2.890625 -3.203125q1.734375 -1.625 2.125 -2.1875q0.53125 -0.796875 0.53125 -1.578125q0 -0.84375 -0.46875 -1.296875q-0.453125 -0.46875 -1.265625 -0.46875q-0.796875 0 -1.28125 0.484375q-0.46875 0.46875 -0.546875 1.59375l-2.546875 -0.25q0.234375 -2.109375 1.421875 -3.03125q1.203125 -0.921875 3.015625 -0.921875q1.96875 0 3.09375 1.0625q1.140625 1.0625 1.140625 2.65625q0 0.890625 -0.328125 1.71875q-0.3125 0.8125 -1.015625 1.703125q-0.46875 0.59375 -1.6875 1.703125q-1.203125 1.109375 -1.53125 1.484375q-0.3125 0.359375 -0.515625 0.703125l5.078125 0z" fill-rule="nonzero"/></g></svg>