<svg xmlns="http://www.w3.org/2000/svg" xmlns:xlink="http://www.w3.org/1999/xlink" viewBox="0 0 149.16 149.16"><defs><style>.cls-1{fill:none;}.cls-171,.cls-2{isolation:isolate;}.cls-3{fill:url(#linear-gradient);}.cls-4{fill:#eff7ff;}.cls-5{clip-path:url(#clip-path);}.cls-10,.cls-11,.cls-6,.cls-9{opacity:0.3;}.cls-7{fill:url(#linear-gradient-2);}.cls-8{fill:url(#linear-gradient-3);}.cls-9{fill:url(#linear-gradient-4);}.cls-10{fill:url(#linear-gradient-5);}.cls-11{fill:url(#linear-gradient-6);}.cls-12,.cls-13{fill:#0067dc;}.cls-13,.cls-178,.cls-179{opacity:0.4;}.cls-14{fill:url(#linear-gradient-7);}.cls-15{fill:url(#linear-gradient-8);}.cls-16{fill:url(#linear-gradient-9);}.cls-17{fill:url(#linear-gradient-10);}.cls-18{fill:url(#linear-gradient-11);}.cls-19{fill:url(#linear-gradient-12);}.cls-20{fill:url(#linear-gradient-13);}.cls-21{fill:url(#linear-gradient-14);}.cls-22{fill:url(#linear-gradient-15);}.cls-23{fill:url(#linear-gradient-16);}.cls-24{fill:url(#linear-gradient-17);}.cls-25{fill:url(#linear-gradient-18);}.cls-26{fill:url(#linear-gradient-19);}.cls-27{fill:url(#linear-gradient-20);}.cls-28{fill:url(#linear-gradient-21);}.cls-29{fill:url(#linear-gradient-22);}.cls-30{fill:url(#linear-gradient-23);}.cls-31{fill:url(#linear-gradient-24);}.cls-32{fill:url(#linear-gradient-25);}.cls-33{fill:url(#linear-gradient-26);}.cls-34{fill:url(#linear-gradient-27);}.cls-35{fill:url(#linear-gradient-28);}.cls-36{fill:url(#linear-gradient-29);}.cls-37{fill:url(#linear-gradient-30);}.cls-38{fill:url(#linear-gradient-31);}.cls-39{fill:url(#linear-gradient-32);}.cls-40{fill:url(#linear-gradient-33);}.cls-41{fill:url(#linear-gradient-34);}.cls-42{fill:url(#linear-gradient-35);}.cls-43{fill:url(#linear-gradient-36);}.cls-44{fill:url(#linear-gradient-37);}.cls-45{fill:url(#linear-gradient-38);}.cls-46{fill:url(#linear-gradient-39);}.cls-47{fill:url(#linear-gradient-40);}.cls-48{fill:url(#linear-gradient-41);}.cls-49{fill:url(#linear-gradient-42);}.cls-50{fill:url(#linear-gradient-43);}.cls-51{fill:url(#linear-gradient-44);}.cls-52{fill:url(#linear-gradient-45);}.cls-53{fill:url(#linear-gradient-46);}.cls-54{fill:url(#linear-gradient-47);}.cls-55{fill:url(#linear-gradient-48);}.cls-56{fill:url(#linear-gradient-49);}.cls-57{fill:url(#linear-gradient-50);}.cls-58{fill:url(#linear-gradient-51);}.cls-59{fill:url(#linear-gradient-52);}.cls-60{fill:url(#linear-gradient-53);}.cls-61{fill:url(#linear-gradient-54);}.cls-62{fill:url(#linear-gradient-55);}.cls-63{fill:#fa0171;}.cls-64{fill:#38d611;}.cls-65{fill:#b0a002;}.cls-168,.cls-66{fill:#fff;}.cls-67{fill:#ec6926;}.cls-68{fill:#18a08d;}.cls-69{fill:#652939;}.cls-70{fill:url(#linear-gradient-56);}.cls-71{fill:url(#linear-gradient-57);}.cls-72{fill:url(#linear-gradient-58);}.cls-73{fill:url(#linear-gradient-59);}.cls-74{fill:url(#linear-gradient-60);}.cls-75{fill:url(#linear-gradient-61);}.cls-76{fill:url(#linear-gradient-62);}.cls-77{fill:url(#linear-gradient-63);}.cls-78{fill:url(#linear-gradient-64);}.cls-79{fill:url(#linear-gradient-65);}.cls-80{fill:url(#linear-gradient-66);}.cls-81{fill:#a5c5ff;}.cls-82{fill:#0070e6;}.cls-83{fill:url(#linear-gradient-67);}.cls-84{fill:url(#linear-gradient-68);}.cls-85{fill:url(#linear-gradient-69);}.cls-86{fill:url(#linear-gradient-70);}.cls-87{fill:url(#linear-gradient-71);}.cls-88{fill:url(#linear-gradient-72);}.cls-89{fill:url(#linear-gradient-73);}.cls-90{fill:url(#linear-gradient-74);}.cls-91{fill:url(#linear-gradient-75);}.cls-92{fill:url(#linear-gradient-76);}.cls-93{fill:url(#linear-gradient-77);}.cls-94{fill:url(#linear-gradient-78);}.cls-95{fill:url(#linear-gradient-79);}.cls-96{fill:url(#linear-gradient-80);}.cls-97{fill:url(#linear-gradient-81);}.cls-98{fill:url(#linear-gradient-82);}.cls-99{fill:url(#linear-gradient-83);}.cls-100{fill:url(#linear-gradient-84);}.cls-101,.cls-134,.cls-161,.cls-165,.cls-171,.cls-178,.cls-179,.cls-183,.cls-194{mix-blend-mode:multiply;}.cls-101{fill:url(#linear-gradient-85);}.cls-102{fill:url(#linear-gradient-86);}.cls-103{fill:url(#linear-gradient-87);}.cls-104{fill:url(#linear-gradient-88);}.cls-105{fill:url(#linear-gradient-89);}.cls-106{fill:url(#linear-gradient-90);}.cls-107{fill:url(#linear-gradient-91);}.cls-108{fill:url(#linear-gradient-92);}.cls-109{fill:url(#linear-gradient-93);}.cls-110{fill:url(#linear-gradient-94);}.cls-111{fill:url(#linear-gradient-95);}.cls-112{fill:url(#linear-gradient-96);}.cls-113{fill:url(#linear-gradient-97);}.cls-114{fill:url(#linear-gradient-98);}.cls-115{fill:url(#linear-gradient-99);}.cls-116{fill:url(#linear-gradient-100);}.cls-117{fill:url(#linear-gradient-101);}.cls-118{fill:url(#linear-gradient-102);}.cls-119{fill:url(#linear-gradient-103);}.cls-120{fill:url(#linear-gradient-104);}.cls-121{fill:url(#linear-gradient-105);}.cls-122{fill:url(#linear-gradient-106);}.cls-123{fill:url(#linear-gradient-107);}.cls-124{fill:url(#linear-gradient-108);}.cls-125{fill:url(#linear-gradient-109);}.cls-126{fill:url(#linear-gradient-110);}.cls-127{fill:url(#linear-gradient-111);}.cls-128{fill:url(#linear-gradient-112);}.cls-129{fill:url(#linear-gradient-113);}.cls-130{fill:url(#linear-gradient-114);}.cls-131{fill:url(#linear-gradient-115);}.cls-132{fill:url(#linear-gradient-116);}.cls-133{fill:url(#linear-gradient-117);}.cls-134{fill:url(#linear-gradient-118);}.cls-135{fill:url(#linear-gradient-119);}.cls-136{fill:url(#linear-gradient-120);}.cls-137{fill:url(#linear-gradient-121);}.cls-138{fill:#355260;}.cls-139{fill:url(#linear-gradient-122);}.cls-140{fill:url(#linear-gradient-123);}.cls-141{fill:#aec5bb;}.cls-142{fill:url(#linear-gradient-124);}.cls-143{fill:url(#linear-gradient-125);}.cls-144{fill:#a00116;}.cls-145{fill:url(#linear-gradient-126);}.cls-146{fill:url(#linear-gradient-127);}.cls-147{fill:url(#linear-gradient-128);}.cls-148{fill:url(#linear-gradient-129);}.cls-149{fill:url(#linear-gradient-130);}.cls-150{fill:url(#linear-gradient-131);}.cls-151{fill:url(#linear-gradient-132);}.cls-152{fill:url(#linear-gradient-133);}.cls-153{fill:url(#linear-gradient-134);}.cls-154{fill:url(#linear-gradient-135);}.cls-155{fill:url(#linear-gradient-136);}.cls-156{fill:url(#linear-gradient-137);}.cls-157{fill:url(#linear-gradient-138);}.cls-158{fill:url(#linear-gradient-139);}.cls-159{fill:url(#linear-gradient-140);}.cls-160{fill:url(#linear-gradient-141);}.cls-161{fill:url(#linear-gradient-142);}.cls-162{fill:url(#linear-gradient-143);}.cls-163{fill:url(#linear-gradient-144);}.cls-164{fill:url(#linear-gradient-145);}.cls-165{fill:url(#linear-gradient-146);}.cls-166{fill:url(#linear-gradient-147);}.cls-167{fill:url(#linear-gradient-148);}.cls-168{fill-opacity:0.7;}.cls-169{fill:url(#linear-gradient-149);}.cls-170{fill:url(#linear-gradient-150);}.cls-171{fill:#d5eaff;}.cls-172{fill:url(#linear-gradient-151);}.cls-173{fill:#f9cebb;}.cls-174{fill:#d6036c;}.cls-175{fill:url(#linear-gradient-152);}.cls-176{fill:#7e4653;}.cls-177{fill:url(#linear-gradient-153);}.cls-178{fill:url(#linear-gradient-154);}.cls-179{fill:url(#linear-gradient-155);}.cls-180{fill:#3a0f1f;}.cls-181{fill:url(#linear-gradient-156);}.cls-182{fill:url(#linear-gradient-157);}.cls-183{fill:url(#linear-gradient-158);}.cls-184{fill:url(#linear-gradient-159);}.cls-185{fill:url(#linear-gradient-160);}.cls-186{fill:#f0f3ff;}.cls-187{fill:url(#linear-gradient-161);}.cls-188{fill:url(#linear-gradient-162);}.cls-189{fill:url(#linear-gradient-163);}.cls-190{fill:url(#linear-gradient-164);}.cls-191{fill:url(#linear-gradient-165);}.cls-192{fill:url(#linear-gradient-166);}.cls-193{fill:url(#linear-gradient-167);}.cls-194{fill:url(#linear-gradient-168);}.cls-195{fill:#f4d400;}.cls-196{fill:#d6b703;}.cls-197{fill:#756340;}</style><linearGradient id="linear-gradient" x1="67.94" y1="92.79" x2="96.62" y2="92.79" gradientUnits="userSpaceOnUse"><stop offset="0" stop-color="#a5c5ff"/><stop offset="1" stop-color="#77a4f9"/></linearGradient><clipPath id="clip-path"><path class="cls-1" d="M78.64,52a9,9,0,0,0-8.11,0L15.93,83.46c-2.23,1.29-2.23,3.4,0,4.69l54.6,31.52a9,9,0,0,0,8.11,0l54.59-31.52c2.23-1.29,2.23-3.4,0-4.69Z"/></clipPath><linearGradient id="linear-gradient-2" x1="74.46" y1="93.72" x2="71.27" y2="115.17" gradientUnits="userSpaceOnUse"><stop offset="0" stop-color="#a5c5ff"/><stop offset="1" stop-color="#0067dc"/></linearGradient><linearGradient id="linear-gradient-3" x1="88.35" y1="87.87" x2="99.72" y2="81.35" gradientUnits="userSpaceOnUse"><stop offset="0" stop-color="#a5c5ff" stop-opacity="0"/><stop offset="1" stop-color="#0067dc"/></linearGradient><linearGradient id="linear-gradient-4" x1="91.51" y1="101.32" x2="113.4" y2="101.32" xlink:href="#linear-gradient-2"/><linearGradient id="linear-gradient-5" x1="37.05" y1="104.09" x2="19.88" y2="95.62" xlink:href="#linear-gradient-2"/><linearGradient id="linear-gradient-6" x1="127" y1="84.5" x2="134.43" y2="89.15" xlink:href="#linear-gradient-2"/><linearGradient id="linear-gradient-7" x1="59.99" y1="96.12" x2="59.99" y2="32.82" gradientUnits="userSpaceOnUse"><stop offset="0" stop-color="#38d611"/><stop offset="1" stop-color="#bcf0a7" stop-opacity="0"/></linearGradient><linearGradient id="linear-gradient-8" x1="59.99" y1="41.79" x2="59.99" y2="74.3" xlink:href="#linear-gradient-7"/><linearGradient id="linear-gradient-9" x1="65.05" y1="107.41" x2="65.05" y2="115.76" xlink:href="#linear-gradient-7"/><linearGradient id="linear-gradient-10" x1="21.15" y1="55.33" x2="22.93" y2="62.31" xlink:href="#linear-gradient-7"/><linearGradient id="linear-gradient-11" x1="126.24" y1="75.1" x2="134.06" y2="68.03" xlink:href="#linear-gradient-7"/><linearGradient id="linear-gradient-12" x1="121.44" y1="64.37" x2="121.44" y2="52.51" xlink:href="#linear-gradient-7"/><linearGradient id="linear-gradient-13" x1="121.44" y1="44.18" x2="121.44" y2="55.25" xlink:href="#linear-gradient-7"/><linearGradient id="linear-gradient-14" x1="93.25" y1="65.65" x2="93.25" y2="61.99" xlink:href="#linear-gradient-7"/><linearGradient id="linear-gradient-15" x1="93.86" y1="67.99" x2="92.46" y2="61.08" xlink:href="#linear-gradient-7"/><linearGradient id="linear-gradient-16" x1="93.86" y1="67.99" x2="92.46" y2="61.08" xlink:href="#linear-gradient-7"/><linearGradient id="linear-gradient-17" x1="97.69" y1="61.03" x2="98.33" y2="55.2" xlink:href="#linear-gradient-7"/><linearGradient id="linear-gradient-18" x1="96.26" y1="60.87" x2="96.91" y2="55.04" xlink:href="#linear-gradient-7"/><linearGradient id="linear-gradient-19" x1="95.03" y1="60.73" x2="95.67" y2="54.91" xlink:href="#linear-gradient-7"/><linearGradient id="linear-gradient-20" x1="98.18" y1="61.08" x2="98.83" y2="55.25" xlink:href="#linear-gradient-7"/><linearGradient id="linear-gradient-21" x1="96.78" y1="60.93" x2="97.42" y2="55.1" xlink:href="#linear-gradient-7"/><linearGradient id="linear-gradient-22" x1="95.54" y1="60.79" x2="96.19" y2="54.96" xlink:href="#linear-gradient-7"/><linearGradient id="linear-gradient-23" x1="94.67" y1="60.69" x2="95.32" y2="54.87" xlink:href="#linear-gradient-7"/><linearGradient id="linear-gradient-24" x1="95.4" y1="60.77" x2="96.05" y2="54.95" xlink:href="#linear-gradient-7"/><linearGradient id="linear-gradient-25" x1="98.54" y1="61.12" x2="99.18" y2="55.29" xlink:href="#linear-gradient-7"/><linearGradient id="linear-gradient-26" x1="97.31" y1="60.99" x2="97.96" y2="55.16" xlink:href="#linear-gradient-7"/><linearGradient id="linear-gradient-27" x1="95.43" y1="60.78" x2="96.07" y2="54.95" xlink:href="#linear-gradient-7"/><linearGradient id="linear-gradient-28" x1="96.63" y1="60.91" x2="97.27" y2="55.08" xlink:href="#linear-gradient-7"/><linearGradient id="linear-gradient-29" x1="98.28" y1="61.09" x2="98.92" y2="55.26" xlink:href="#linear-gradient-7"/><linearGradient id="linear-gradient-30" x1="97.69" y1="56.92" x2="98.33" y2="51.09" xlink:href="#linear-gradient-7"/><linearGradient id="linear-gradient-31" x1="96.26" y1="56.76" x2="96.91" y2="50.93" xlink:href="#linear-gradient-7"/><linearGradient id="linear-gradient-32" x1="95.03" y1="56.63" x2="95.67" y2="50.8" xlink:href="#linear-gradient-7"/><linearGradient id="linear-gradient-33" x1="98.18" y1="56.98" x2="98.83" y2="51.15" xlink:href="#linear-gradient-7"/><linearGradient id="linear-gradient-34" x1="96.78" y1="56.82" x2="97.42" y2="50.99" xlink:href="#linear-gradient-7"/><linearGradient id="linear-gradient-35" x1="95.54" y1="56.68" x2="96.19" y2="50.86" xlink:href="#linear-gradient-7"/><linearGradient id="linear-gradient-36" x1="94.67" y1="56.59" x2="95.32" y2="50.76" xlink:href="#linear-gradient-7"/><linearGradient id="linear-gradient-37" x1="95.4" y1="56.67" x2="96.05" y2="50.84" xlink:href="#linear-gradient-7"/><linearGradient id="linear-gradient-38" x1="98.54" y1="57.02" x2="99.18" y2="51.19" xlink:href="#linear-gradient-7"/><linearGradient id="linear-gradient-39" x1="97.31" y1="56.88" x2="97.96" y2="51.05" xlink:href="#linear-gradient-7"/><linearGradient id="linear-gradient-40" x1="95.43" y1="56.67" x2="96.07" y2="50.84" xlink:href="#linear-gradient-7"/><linearGradient id="linear-gradient-41" x1="96.63" y1="56.8" x2="97.27" y2="50.98" xlink:href="#linear-gradient-7"/><linearGradient id="linear-gradient-42" x1="98.28" y1="56.99" x2="98.92" y2="51.16" xlink:href="#linear-gradient-7"/><linearGradient id="linear-gradient-43" x1="90.41" y1="63.07" x2="91.06" y2="57.24" xlink:href="#linear-gradient-7"/><linearGradient id="linear-gradient-44" x1="88.98" y1="62.91" x2="89.63" y2="57.08" xlink:href="#linear-gradient-7"/><linearGradient id="linear-gradient-45" x1="87.75" y1="62.77" x2="88.4" y2="56.94" xlink:href="#linear-gradient-7"/><linearGradient id="linear-gradient-46" x1="90.91" y1="63.12" x2="91.55" y2="57.29" xlink:href="#linear-gradient-7"/><linearGradient id="linear-gradient-47" x1="89.5" y1="62.97" x2="90.15" y2="57.14" xlink:href="#linear-gradient-7"/><linearGradient id="linear-gradient-48" x1="88.27" y1="62.83" x2="88.91" y2="57" xlink:href="#linear-gradient-7"/><linearGradient id="linear-gradient-49" x1="87.4" y1="62.73" x2="88.04" y2="56.91" xlink:href="#linear-gradient-7"/><linearGradient id="linear-gradient-50" x1="88.13" y1="62.81" x2="88.77" y2="56.99" xlink:href="#linear-gradient-7"/><linearGradient id="linear-gradient-51" x1="91.26" y1="63.16" x2="91.9" y2="57.33" xlink:href="#linear-gradient-7"/><linearGradient id="linear-gradient-52" x1="90.04" y1="63.03" x2="90.68" y2="57.2" xlink:href="#linear-gradient-7"/><linearGradient id="linear-gradient-53" x1="88.15" y1="62.82" x2="88.79" y2="56.99" xlink:href="#linear-gradient-7"/><linearGradient id="linear-gradient-54" x1="89.35" y1="62.95" x2="90" y2="57.12" xlink:href="#linear-gradient-7"/><linearGradient id="linear-gradient-55" x1="91" y1="63.13" x2="91.65" y2="57.3" xlink:href="#linear-gradient-7"/><linearGradient id="linear-gradient-56" x1="7339.73" y1="39.03" x2="7336.5" y2="30.88" gradientTransform="matrix(-1, 0, 0, 1, 7404.38, 0)" gradientUnits="userSpaceOnUse"><stop offset="0" stop-color="#0070e6"/><stop offset="1" stop-color="#eff7ff"/></linearGradient><linearGradient id="linear-gradient-57" x1="6540.69" y1="41.91" x2="6538.68" y2="28.84" gradientTransform="matrix(-1, 0, 0, 1, 6606.57, 0)" gradientUnits="userSpaceOnUse"><stop offset="0" stop-color="#38d611"/><stop offset="1" stop-color="#bcf0a7"/></linearGradient><linearGradient id="linear-gradient-58" x1="90.22" y1="87.76" x2="88.6" y2="83.67" gradientTransform="translate(-32.89)" xlink:href="#linear-gradient-56"/><linearGradient id="linear-gradient-59" x1="6430.23" y1="82.67" x2="6429.08" y2="86.6" gradientTransform="matrix(-1, 0, 0, 1, 6485.41, 0)" gradientUnits="userSpaceOnUse"><stop offset="0" stop-color="#fa0171"/><stop offset="1" stop-color="#ff90bd"/></linearGradient><linearGradient id="linear-gradient-60" x1="56.79" y1="52.78" x2="55.77" y2="50.21" gradientTransform="translate(73.74)" xlink:href="#linear-gradient-56"/><linearGradient id="linear-gradient-61" x1="-1976.49" y1="53.76" x2="-1977.33" y2="50.03" gradientTransform="translate(2106.77)" gradientUnits="userSpaceOnUse"><stop offset="0" stop-color="#96a7c5"/><stop offset="1" stop-color="#e2e9ff"/></linearGradient><linearGradient id="linear-gradient-62" x1="6471.8" y1="60.67" x2="6470.18" y2="56.59" gradientTransform="matrix(-1, 0, 0, 1, 6518.3, 0)" xlink:href="#linear-gradient-56"/><linearGradient id="linear-gradient-63" x1="4438.38" y1="62.23" x2="4437.04" y2="56.3" gradientTransform="matrix(-1, 0, 0, 1, 4485.28, 0)" xlink:href="#linear-gradient-57"/><linearGradient id="linear-gradient-64" x1="3681.14" y1="44.9" x2="3683.59" y2="53.48" gradientTransform="matrix(-1, 0, 0, 1, 3774.3, 0)" gradientUnits="userSpaceOnUse"><stop offset="0" stop-color="#0070e6"/><stop offset="1" stop-color="#00152b"/></linearGradient><linearGradient id="linear-gradient-65" x1="3681.65" y1="52.13" x2="3680.18" y2="41.42" gradientTransform="matrix(-1, 0, 0, 1, 3774.3, 0)" gradientUnits="userSpaceOnUse"><stop offset="0" stop-color="#0070e6"/><stop offset="1" stop-color="#a5c5ff"/></linearGradient><linearGradient id="linear-gradient-66" x1="3678.61" y1="52.05" x2="3683" y2="44.09" xlink:href="#linear-gradient-64"/><linearGradient id="linear-gradient-67" x1="3680.79" y1="45.2" x2="3681.14" y2="54.85" xlink:href="#linear-gradient-64"/><linearGradient id="linear-gradient-68" x1="90" y1="49.63" x2="89.95" y2="46.9" gradientTransform="matrix(1, 0, 0, 1, 0, 0)" xlink:href="#linear-gradient-57"/><linearGradient id="linear-gradient-69" x1="113.97" y1="44.39" x2="113.97" y2="44.39" gradientUnits="userSpaceOnUse"><stop offset="0" stop-color="#096db7"/><stop offset="1" stop-color="#8acdff"/></linearGradient><linearGradient id="linear-gradient-70" x1="108.32" y1="58.37" x2="107.91" y2="57.16" gradientTransform="matrix(1, 0, 0, 1, 0, 0)" xlink:href="#linear-gradient-64"/><linearGradient id="linear-gradient-71" x1="109.79" y1="46.78" x2="105.14" y2="54.04" gradientTransform="matrix(1, 0, 0, 1, 0, 0)" xlink:href="#linear-gradient-64"/><linearGradient id="linear-gradient-72" x1="110.61" y1="52.87" x2="113.72" y2="60.2" gradientUnits="userSpaceOnUse"><stop offset="0" stop-color="#eff7ff"/><stop offset="1" stop-color="#a5c5ff"/></linearGradient><linearGradient id="linear-gradient-73" x1="109.98" y1="53.29" x2="109.98" y2="49.94" gradientUnits="userSpaceOnUse"><stop offset="0" stop-color="#b0a002"/><stop offset="1" stop-color="#ead77c"/></linearGradient><linearGradient id="linear-gradient-74" x1="112.09" y1="53.29" x2="112.09" y2="49.94" xlink:href="#linear-gradient-73"/><linearGradient id="linear-gradient-75" x1="107.87" y1="53.29" x2="107.87" y2="49.94" xlink:href="#linear-gradient-73"/><linearGradient id="linear-gradient-76" x1="111.47" y1="53.29" x2="111.47" y2="49.94" xlink:href="#linear-gradient-73"/><linearGradient id="linear-gradient-77" x1="108.49" y1="53.29" x2="108.49" y2="49.94" xlink:href="#linear-gradient-73"/><linearGradient id="linear-gradient-78" x1="111.47" y1="53.29" x2="111.47" y2="49.94" xlink:href="#linear-gradient-73"/><linearGradient id="linear-gradient-79" x1="108.49" y1="53.29" x2="108.49" y2="49.94" xlink:href="#linear-gradient-73"/><linearGradient id="linear-gradient-80" x1="110.05" y1="52.84" x2="109.82" y2="55.03" gradientTransform="matrix(1, 0, 0, 1, 0, 0)" xlink:href="#linear-gradient-64"/><linearGradient id="linear-gradient-81" x1="109.98" y1="53.29" x2="109.98" y2="49.94" xlink:href="#linear-gradient-73"/><linearGradient id="linear-gradient-82" x1="109.98" y1="53.29" x2="109.98" y2="49.94" xlink:href="#linear-gradient-73"/><linearGradient id="linear-gradient-83" x1="36.03" y1="69.19" x2="21.11" y2="69.19" gradientTransform="matrix(1, 0, 0, 1, 0, 0)" xlink:href="#linear-gradient-57"/><linearGradient id="linear-gradient-84" x1="31.2" y1="63.43" x2="31.2" y2="71.32" xlink:href="#linear-gradient-7"/><linearGradient id="linear-gradient-85" x1="31.2" y1="68.96" x2="31.2" y2="61.87" xlink:href="#linear-gradient-7"/><linearGradient id="linear-gradient-86" x1="28.93" y1="71.2" x2="30.23" y2="60.2" gradientTransform="matrix(1, 0, 0, 1, 0, 0)" xlink:href="#linear-gradient-61"/><linearGradient id="linear-gradient-87" x1="22.86" y1="63.59" x2="28.84" y2="58.32" gradientTransform="matrix(1, 0, 0, 1, 0, 0)" xlink:href="#linear-gradient-65"/><linearGradient id="linear-gradient-88" x1="33.15" y1="57.13" x2="27.03" y2="60.1" gradientTransform="matrix(1, 0, 0, 1, 0, 0)" xlink:href="#linear-gradient-64"/><linearGradient id="linear-gradient-89" x1="33.96" y1="58.82" x2="27.85" y2="61.78" gradientTransform="matrix(1, 0, 0, 1, 0, 0)" xlink:href="#linear-gradient-64"/><linearGradient id="linear-gradient-90" x1="34.8" y1="60.54" x2="28.68" y2="63.51" gradientTransform="matrix(1, 0, 0, 1, 0, 0)" xlink:href="#linear-gradient-64"/><linearGradient id="linear-gradient-91" x1="35.62" y1="62.22" x2="29.5" y2="65.19" gradientTransform="matrix(1, 0, 0, 1, 0, 0)" xlink:href="#linear-gradient-64"/><linearGradient id="linear-gradient-92" x1="25.6" y1="58.09" x2="29.93" y2="60.4" gradientTransform="matrix(1, 0, 0, 1, 0, 0)" xlink:href="#linear-gradient-64"/><linearGradient id="linear-gradient-93" x1="32.22" y1="55.23" x2="26.1" y2="58.19" gradientTransform="matrix(1, 0, 0, 1, 0, 0)" xlink:href="#linear-gradient-64"/><linearGradient id="linear-gradient-94" x1="25.6" y1="55.73" x2="29.93" y2="58.04" gradientTransform="matrix(1, 0, 0, 1, 0, 0)" xlink:href="#linear-gradient-64"/><linearGradient id="linear-gradient-95" x1="25.97" y1="60.26" x2="29.89" y2="63.11" gradientTransform="matrix(1, 0, 0, 1, 0, 0)" xlink:href="#linear-gradient-64"/><linearGradient id="linear-gradient-96" x1="25.74" y1="62.43" x2="30.2" y2="64.43" gradientTransform="matrix(1, 0, 0, 1, 0, 0)" xlink:href="#linear-gradient-64"/><linearGradient id="linear-gradient-97" x1="25.13" y1="63.57" x2="29.71" y2="67.88" gradientTransform="matrix(1, 0, 0, 1, 0, 0)" xlink:href="#linear-gradient-64"/><linearGradient id="linear-gradient-98" x1="28.35" y1="53.54" x2="31.2" y2="53.54" gradientTransform="matrix(1, 0, 0, 1, 0, 0)" xlink:href="#linear-gradient-61"/><linearGradient id="linear-gradient-99" x1="25.49" y1="53.54" x2="28.35" y2="53.54" gradientTransform="matrix(1, 0, 0, 1, 0, 0)" xlink:href="#linear-gradient-65"/><linearGradient id="linear-gradient-100" x1="34.08" y1="63.58" x2="37.12" y2="63.58" gradientTransform="matrix(1, 0, 0, 1, 0, 0)" xlink:href="#linear-gradient-61"/><linearGradient id="linear-gradient-101" x1="30.14" y1="70.77" x2="33.4" y2="61.1" gradientTransform="matrix(1, 0, 0, 1, 0, 0)" xlink:href="#linear-gradient-65"/><linearGradient id="linear-gradient-102" x1="31.51" y1="61.2" x2="33.62" y2="61.2" gradientTransform="matrix(1, 0, 0, 1, 0, 0)" xlink:href="#linear-gradient-64"/><linearGradient id="linear-gradient-103" x1="31.51" y1="62.2" x2="33.62" y2="62.2" gradientTransform="matrix(1, 0, 0, 1, 0, 0)" xlink:href="#linear-gradient-64"/><linearGradient id="linear-gradient-104" x1="31.51" y1="63.21" x2="33.62" y2="63.21" gradientTransform="matrix(1, 0, 0, 1, 0, 0)" xlink:href="#linear-gradient-64"/><linearGradient id="linear-gradient-105" x1="31.51" y1="64.22" x2="33.62" y2="64.22" gradientTransform="matrix(1, 0, 0, 1, 0, 0)" xlink:href="#linear-gradient-64"/><linearGradient id="linear-gradient-106" x1="31.51" y1="65.21" x2="33.62" y2="65.21" gradientTransform="matrix(1, 0, 0, 1, 0, 0)" xlink:href="#linear-gradient-64"/><linearGradient id="linear-gradient-107" x1="31.51" y1="66.22" x2="33.62" y2="66.22" gradientTransform="matrix(1, 0, 0, 1, 0, 0)" xlink:href="#linear-gradient-64"/><linearGradient id="linear-gradient-108" x1="36.33" y1="60.8" x2="34.16" y2="61.97" gradientTransform="matrix(1, 0, 0, 1, 0, 0)" xlink:href="#linear-gradient-64"/><linearGradient id="linear-gradient-109" x1="36.75" y1="61.58" x2="34.58" y2="62.75" gradientTransform="matrix(1, 0, 0, 1, 0, 0)" xlink:href="#linear-gradient-64"/><linearGradient id="linear-gradient-110" x1="37.17" y1="62.36" x2="35.01" y2="63.53" gradientTransform="matrix(1, 0, 0, 1, 0, 0)" xlink:href="#linear-gradient-64"/><linearGradient id="linear-gradient-111" x1="37.59" y1="63.14" x2="35.43" y2="64.31" gradientTransform="matrix(1, 0, 0, 1, 0, 0)" xlink:href="#linear-gradient-64"/><linearGradient id="linear-gradient-112" x1="38" y1="63.91" x2="35.84" y2="65.08" gradientTransform="matrix(1, 0, 0, 1, 0, 0)" xlink:href="#linear-gradient-64"/><linearGradient id="linear-gradient-113" x1="38.43" y1="64.69" x2="36.26" y2="65.86" gradientTransform="matrix(1, 0, 0, 1, 0, 0)" xlink:href="#linear-gradient-64"/><linearGradient id="linear-gradient-114" x1="34.08" y1="59.07" x2="36.41" y2="59.07" gradientTransform="matrix(1, 0, 0, 1, 0, 0)" xlink:href="#linear-gradient-61"/><linearGradient id="linear-gradient-115" x1="31.75" y1="59.07" x2="34.08" y2="59.07" gradientTransform="matrix(1, 0, 0, 1, 0, 0)" xlink:href="#linear-gradient-65"/><linearGradient id="linear-gradient-116" x1="80.76" y1="96.77" x2="64.92" y2="96.77" gradientTransform="matrix(1, 0, 0, 1, 0, 0)" xlink:href="#linear-gradient-57"/><linearGradient id="linear-gradient-117" x1="75.62" y1="90.65" x2="75.62" y2="99.03" xlink:href="#linear-gradient-7"/><linearGradient id="linear-gradient-118" x1="75.62" y1="96.52" x2="75.62" y2="88.99" xlink:href="#linear-gradient-7"/><linearGradient id="linear-gradient-119" x1="1044.85" y1="95.44" x2="1045.09" y2="95.99" gradientTransform="translate(-970.75)" xlink:href="#linear-gradient-64"/><linearGradient id="linear-gradient-120" x1="1050.51" y1="92.77" x2="1050.37" y2="92.28" gradientTransform="translate(-970.75)" xlink:href="#linear-gradient-64"/><linearGradient id="linear-gradient-121" x1="79.45" y1="93.84" x2="79.25" y2="92.75" gradientTransform="matrix(1, 0, 0, 1, 0, 0)" xlink:href="#linear-gradient-64"/><linearGradient id="linear-gradient-122" x1="1041.96" y1="94.62" x2="1041.72" y2="95.06" gradientTransform="translate(-970.75)" xlink:href="#linear-gradient-64"/><linearGradient id="linear-gradient-123" x1="1041.96" y1="94.6" x2="1043.01" y2="94.6" gradientTransform="translate(-970.75)" xlink:href="#linear-gradient-64"/><linearGradient id="linear-gradient-124" x1="73.64" y1="96.61" x2="73.89" y2="95.89" gradientTransform="matrix(1, 0, 0, 1, 0, 0)" xlink:href="#linear-gradient-64"/><linearGradient id="linear-gradient-125" x1="74.96" y1="91.4" x2="77.1" y2="86.49" gradientUnits="userSpaceOnUse"><stop offset="0" stop-color="#ec6926"/><stop offset="1" stop-color="#f4b091"/></linearGradient><linearGradient id="linear-gradient-126" x1="1049.9" y1="92.42" x2="1049.48" y2="93.4" gradientTransform="translate(-970.75)" xlink:href="#linear-gradient-64"/><linearGradient id="linear-gradient-127" x1="74.62" y1="96.83" x2="74.13" y2="95.74" gradientTransform="matrix(1, 0, 0, 1, 0, 0)" xlink:href="#linear-gradient-64"/><linearGradient id="linear-gradient-128" x1="78.77" y1="89.82" x2="75.5" y2="96.88" gradientUnits="userSpaceOnUse"><stop offset="0" stop-color="#ec6926"/><stop offset="1" stop-color="#c7541b"/></linearGradient><linearGradient id="linear-gradient-129" x1="74.12" y1="96.07" x2="74.44" y2="96.07" xlink:href="#linear-gradient"/><linearGradient id="linear-gradient-130" x1="1051.71" y1="88.87" x2="1051.71" y2="91.94" gradientTransform="translate(-970.75)" xlink:href="#linear-gradient-64"/><linearGradient id="linear-gradient-131" x1="1045.25" y1="88.87" x2="1045.25" y2="91.94" gradientTransform="translate(-970.75)" xlink:href="#linear-gradient-64"/><linearGradient id="linear-gradient-132" x1="1046.51" y1="88.87" x2="1046.51" y2="91.94" gradientTransform="translate(-970.75)" xlink:href="#linear-gradient-64"/><linearGradient id="linear-gradient-133" x1="1047.74" y1="88.87" x2="1047.74" y2="91.94" gradientTransform="translate(-970.75)" xlink:href="#linear-gradient-64"/><linearGradient id="linear-gradient-134" x1="1048.99" y1="88.87" x2="1048.99" y2="91.94" gradientTransform="translate(-970.75)" xlink:href="#linear-gradient-64"/><linearGradient id="linear-gradient-135" x1="1050.23" y1="88.87" x2="1050.23" y2="91.94" gradientTransform="translate(-970.75)" xlink:href="#linear-gradient-64"/><linearGradient id="linear-gradient-136" x1="1046.5" y1="88.87" x2="1046.5" y2="91.94" gradientTransform="translate(-970.75)" xlink:href="#linear-gradient-64"/><linearGradient id="linear-gradient-137" x1="1047.73" y1="88.87" x2="1047.73" y2="91.94" gradientTransform="translate(-970.75)" xlink:href="#linear-gradient-64"/><linearGradient id="linear-gradient-138" x1="1048.98" y1="88.87" x2="1048.98" y2="91.94" gradientTransform="translate(-970.75)" xlink:href="#linear-gradient-64"/><linearGradient id="linear-gradient-139" x1="1050.22" y1="88.87" x2="1050.22" y2="91.94" gradientTransform="translate(-970.75)" xlink:href="#linear-gradient-64"/><linearGradient id="linear-gradient-140" x1="1051.41" y1="88.87" x2="1051.41" y2="91.94" gradientTransform="translate(-970.75)" xlink:href="#linear-gradient-64"/><linearGradient id="linear-gradient-141" x1="1045.31" y1="88.87" x2="1045.31" y2="91.94" gradientTransform="translate(-970.75)" xlink:href="#linear-gradient-64"/><linearGradient id="linear-gradient-142" x1="1051.17" y1="89.94" x2="1043.88" y2="93.98" gradientTransform="translate(-970.75)" xlink:href="#linear-gradient-128"/><linearGradient id="linear-gradient-143" x1="1043.37" y1="95.49" x2="1039.9" y2="93.08" gradientTransform="translate(-970.75)" xlink:href="#linear-gradient-125"/><linearGradient id="linear-gradient-144" x1="71.77" y1="91.09" x2="72.99" y2="92.49" gradientTransform="matrix(1, 0, 0, 1, 0, 0)" xlink:href="#linear-gradient-64"/><linearGradient id="linear-gradient-145" x1="1041.45" y1="94.76" x2="1044.44" y2="94.76" gradientTransform="translate(-970.75)" xlink:href="#linear-gradient-125"/><linearGradient id="linear-gradient-146" x1="71.86" y1="92.55" x2="74.18" y2="94.84" xlink:href="#linear-gradient-128"/><linearGradient id="linear-gradient-147" x1="1041.54" y1="94.26" x2="1044.79" y2="94.26" gradientTransform="translate(-970.75)" xlink:href="#linear-gradient-125"/><linearGradient id="linear-gradient-148" x1="1044.3" y1="94.15" x2="1040.83" y2="91.74" gradientTransform="translate(-970.75)" xlink:href="#linear-gradient-125"/><linearGradient id="linear-gradient-149" x1="70.36" y1="91.44" x2="74.53" y2="95.21" gradientTransform="matrix(1, 0, 0, 1, 0, 0)" xlink:href="#linear-gradient-64"/><linearGradient id="linear-gradient-150" x1="79.16" y1="93.16" x2="79.48" y2="93.16" xlink:href="#linear-gradient"/><linearGradient id="linear-gradient-151" x1="106.4" y1="67.27" x2="107.45" y2="73.42" gradientUnits="userSpaceOnUse"><stop offset="0" stop-color="#f9cebb"/><stop offset="1" stop-color="#f19265"/></linearGradient><linearGradient id="linear-gradient-152" x1="104.78" y1="64.66" x2="104.23" y2="61.09" xlink:href="#linear-gradient-151"/><linearGradient id="linear-gradient-153" x1="104.51" y1="69.77" x2="101.95" y2="71.36" xlink:href="#linear-gradient-151"/><linearGradient id="linear-gradient-154" x1="105.96" y1="81.91" x2="106.02" y2="90.34" gradientUnits="userSpaceOnUse"><stop offset="0" stop-color="#0062ab"/><stop offset="1" stop-color="#76d733"/></linearGradient><linearGradient id="linear-gradient-155" x1="101.13" y1="87.03" x2="101.86" y2="91.25" xlink:href="#linear-gradient-154"/><linearGradient id="linear-gradient-156" x1="73.48" y1="62.92" x2="59.84" y2="62.92" gradientTransform="matrix(1, 0, 0, 1, 0, 0)" xlink:href="#linear-gradient-57"/><linearGradient id="linear-gradient-157" x1="69.06" y1="57.65" x2="69.06" y2="64.86" xlink:href="#linear-gradient-7"/><linearGradient id="linear-gradient-158" x1="69.06" y1="62.7" x2="69.06" y2="56.22" xlink:href="#linear-gradient-7"/><linearGradient id="linear-gradient-159" x1="67.89" y1="59.26" x2="71.62" y2="57.76" gradientTransform="matrix(1, 0, 0, 1, 0, 0)" xlink:href="#linear-gradient-59"/><linearGradient id="linear-gradient-160" x1="69.71" y1="60.17" x2="73.14" y2="60.17" gradientUnits="userSpaceOnUse"><stop offset="0" stop-color="#b0a002"/><stop offset="1" stop-color="#aa5300"/></linearGradient><linearGradient id="linear-gradient-161" x1="73.66" y1="58.75" x2="69.93" y2="59.62" xlink:href="#linear-gradient-73"/><linearGradient id="linear-gradient-162" x1="64.15" y1="60.13" x2="68.56" y2="60.13" gradientUnits="userSpaceOnUse"><stop offset="0" stop-color="#18a08d"/><stop offset="1" stop-color="#81d2c7"/></linearGradient><linearGradient id="linear-gradient-163" x1="69.99" y1="61.78" x2="68.21" y2="57.38" xlink:href="#linear-gradient-162"/><linearGradient id="linear-gradient-164" x1="66.16" y1="56.21" x2="72.3" y2="56.21" gradientTransform="matrix(1, 0, 0, 1, 0, 0)" xlink:href="#linear-gradient-59"/><linearGradient id="linear-gradient-165" x1="69.43" y1="58.44" x2="68.04" y2="57.3" gradientUnits="userSpaceOnUse"><stop offset="0" stop-color="#fa0171"/><stop offset="1" stop-color="#95025c"/></linearGradient><linearGradient id="linear-gradient-166" x1="125.21" y1="69.67" x2="113.56" y2="69.67" gradientTransform="matrix(1, 0, 0, 1, 0, 0)" xlink:href="#linear-gradient-57"/><linearGradient id="linear-gradient-167" x1="121.44" y1="65.17" x2="121.44" y2="71.33" xlink:href="#linear-gradient-7"/><linearGradient id="linear-gradient-168" x1="121.44" y1="69.49" x2="121.44" y2="63.95" xlink:href="#linear-gradient-7"/></defs><g class="cls-2"><g id="icons"><path class="cls-3" d="M134.88,90.8h0V85.9H122.36L78.64,60.65a9.07,9.07,0,0,0-8.12,0L26.8,85.9H14.28v4.9a2.71,2.71,0,0,0,1.65,2.61l54.59,31.51a9,9,0,0,0,8.12,0l54.59-31.51A2.73,2.73,0,0,0,134.88,90.8Z"/><path class="cls-4" d="M78.64,52a9,9,0,0,0-8.11,0L15.93,83.46c-2.23,1.29-2.23,3.4,0,4.69l54.6,31.52a9,9,0,0,0,8.11,0l54.59-31.52c2.23-1.29,2.23-3.4,0-4.69Z"/><g class="cls-5"><g class="cls-6"><path class="cls-7" d="M79,113.66a2.11,2.11,0,0,0-.73.12l-16.54-9.55a1.46,1.46,0,0,1,0-2.79L69,97.27l4.8,2.76a3.4,3.4,0,0,0,1.7.42,3.44,3.44,0,0,0,1.71-.42L98,88a1.37,1.37,0,0,0,.79-1.16A1.39,1.39,0,0,0,98,85.67L87.14,79.39l10.77-6.22a2.66,2.66,0,0,0,.72.1c.83,0,1.51-.39,1.51-.88s-.68-.89-1.51-.89-1.52.4-1.52.89a.67.67,0,0,0,.21.45L86.56,79.05l-9.37-5.41a3.43,3.43,0,0,0-1.71-.41,3.4,3.4,0,0,0-1.7.41l-20.84,12a1.25,1.25,0,0,0,0,2.33L68.4,96.93l-6.94,4a2,2,0,0,0,0,3.79l16.25,9.38a.62.62,0,0,0-.2.44c0,.49.68.89,1.51.89s1.52-.4,1.52-.89S79.86,113.66,79,113.66ZM52.77,86.84a.83.83,0,0,1,.48-.63l20.84-12a3.18,3.18,0,0,1,2.78,0l20.84,12a.65.65,0,0,1,0,1.25l-20.84,12a3.09,3.09,0,0,1-2.78,0l-20.84-12A.83.83,0,0,1,52.77,86.84Z"/><path class="cls-8" d="M79,113.66a2.11,2.11,0,0,0-.73.12l-16.54-9.55a1.46,1.46,0,0,1,0-2.79L69,97.27l4.8,2.76a3.4,3.4,0,0,0,1.7.42,3.44,3.44,0,0,0,1.71-.42L98,88a1.37,1.37,0,0,0,.79-1.16A1.39,1.39,0,0,0,98,85.67L87.14,79.39l10.77-6.22a2.66,2.66,0,0,0,.72.1c.83,0,1.51-.39,1.51-.88s-.68-.89-1.51-.89-1.52.4-1.52.89a.67.67,0,0,0,.21.45L86.56,79.05l-9.37-5.41a3.43,3.43,0,0,0-1.71-.41,3.4,3.4,0,0,0-1.7.41l-20.84,12a1.25,1.25,0,0,0,0,2.33L68.4,96.93l-6.94,4a2,2,0,0,0,0,3.79l16.25,9.38a.62.62,0,0,0-.2.44c0,.49.68.89,1.51.89s1.52-.4,1.52-.89S79.86,113.66,79,113.66ZM52.77,86.84a.83.83,0,0,1,.48-.63l20.84-12a3.18,3.18,0,0,1,2.78,0l20.84,12a.65.65,0,0,1,0,1.25l-20.84,12a3.09,3.09,0,0,1-2.78,0l-20.84-12A.83.83,0,0,1,52.77,86.84Z"/></g><path class="cls-9" d="M94.54,95.81c0-.49-.68-.89-1.52-.89s-1.51.4-1.51.89.68.88,1.51.88a2.3,2.3,0,0,0,.77-.12l19.32,11.15.29-.5-19-11A.66.66,0,0,0,94.54,95.81Z"/><path class="cls-10" d="M47.5,98.91,31.36,89.59a.65.65,0,0,0,.27-.49c0-.49-.68-.89-1.52-.89s-1.51.4-1.51.89.68.88,1.51.88a2.53,2.53,0,0,0,.63-.08l16.47,9.52a1.45,1.45,0,0,1,0,2.78l-18,10.4.29.5,18-10.39a2,2,0,0,0,0-3.8Z"/><path class="cls-11" d="M116.81,83.79a1.46,1.46,0,0,1,0-2.79l7.4-4.27-.29-.5-7.4,4.27a2,2,0,0,0,0,3.79L134,94.36l.29-.5Z"/></g><polygon class="cls-12" points="106.8 103.41 106.8 108.67 106.21 109 106.21 103.75 106.8 103.41"/><polygon class="cls-13" points="43.74 104.21 43.74 109.47 44.32 109.8 44.32 104.54 43.74 104.21"/><path class="cls-14" d="M93.39,43.63l.15-.08-.15-.09L83.92,38l-.07,0L74.3,43.46h0l-.15.09.15.08V54.14l-9-5.17h0l-.15-.08V38.2l.49-.28c0-.1,0-.21-.05-.31l-.58.34-9.33-5.39-.07,0h0l-9.26-5.34V27L46.1,27v.14l-9.25,5.34-8.6-5a.94.94,0,0,0,.05-.3.86.86,0,1,0-.2.55l8.45,4.88L27.45,38l-8.6-5a.93.93,0,0,0,0-.29.86.86,0,0,0-1.71,0,.86.86,0,0,0,.86.86.88.88,0,0,0,.65-.31l8.67,5,.08,0L36.7,33V43.46l-8.6,5a.85.85,0,0,0-1.51.54.86.86,0,1,0,1.71,0,.93.93,0,0,0-.05-.29l8.67-5,.07,0V33L46.1,38.2V48.89L46,49l.15.09h0l9.4,5.42V65.17l-9.25,5.34-8.52-4.92a.94.94,0,0,0,.07-.34.86.86,0,0,0-.86-.85.86.86,0,1,0,.62,1.44L46,70.68h0l.15.09V81.45l-.15.08h0l-9,5.21-6.1-3.52a.77.77,0,0,0,.06-.3.86.86,0,1,0-.2.55L36.8,87v7a.85.85,0,0,0,.14,1.69A.85.85,0,0,0,37.09,94V87l9.16-5.29,9.25,5.35v9.17a1.71,1.71,0,1,0,.29,0v-9l8.47,4.89a.88.88,0,0,0-.07.33.86.86,0,0,0,.71.84v10h.29v-10a.86.86,0,0,0,.71-.84.85.85,0,0,0-.85-.85.81.81,0,0,0-.62.27L55.94,87l9.11-5.26,9.25,5.35V97.9l8.75,5a.72.72,0,0,0-.06.29.86.86,0,1,0,1.71,0,.85.85,0,0,0-1.51-.54l-8.6-5V87.05l9.26-5.35,8.63,5a1,1,0,0,0-.09.38.86.86,0,1,0,.86-.85.87.87,0,0,0-.59.23l-8.52-4.92L84,81.45V70.94l9.18,5.29.08,0,9.47-5.47.07,0v-22l-9.4,5.42ZM84,38.37l9,5.18-9,5.17ZM93.1,43.8V54.14l-9-5.17Zm-9.4-5.43V48.72l-9-5.17ZM74.59,43.8l9,5.17-9,5.17ZM55.79,33,64.9,38.2V48.72l-8.45-4.88a.93.93,0,0,0,0-.29.85.85,0,0,0-.71-.84Zm-18.65-.26,9.11-5.26,9.1,5.26L46.25,38Zm9.25,5.51L55.5,33v9.76a.85.85,0,0,0-.71.84.72.72,0,0,0,.06.29l-8.46,4.88ZM46.54,49,55,44.09a.85.85,0,0,0,1.31,0L64.75,49l-9.1,5.26Zm17,22.43-7.72,4.45V65.51L63.51,70a1.61,1.61,0,0,0,0,1.44Zm-8-5.89V75.85l-9-5.17Zm-9.11,5.42,9,5.18-9,5.17Zm10.66,27a1.41,1.41,0,1,1-1.55-1.4v.56a.86.86,0,1,0,.29,0v-.56A1.42,1.42,0,0,1,57.05,97.91Zm-1.4-11.12-9.11-5.26,9.11-5.25h0l9.1,5.25Zm9.25-5.51-9-5.17,7.71-4.46a1.66,1.66,0,0,0,1.25.72ZM64.25,71l-.49.28a1.41,1.41,0,0,1,0-1.14l.49.28a.73.73,0,0,0,0,.58Zm.65,1.11a1.4,1.4,0,0,1-1-.57l.48-.28a.91.91,0,0,0,.51.29Zm-.51-2-.48-.28a1.42,1.42,0,0,1,1.14-.58,1.4,1.4,0,0,1,1.13.58l-.48.28a.87.87,0,0,0-1.31,0Zm1.45.26.49-.28a1.35,1.35,0,0,1,.12.57,1.4,1.4,0,0,1-1.26,1.4v-.56a.86.86,0,0,0,.71-.84A.72.72,0,0,0,65.84,70.39Zm-.65,2a1.7,1.7,0,0,0,1.56-1.69,1.73,1.73,0,0,0-.16-.72l7.71-4.45V76l-9.11,5.26Zm9.26,14.42-9.11-5.26,9.11-5.25,9.1,5.25Zm9.25-5.51L74.59,76V65.51l9.11,5.26Zm0-10.85-9.18-5.3-.07,0-8,4.63a1.7,1.7,0,0,0-2.79,0l-7.86-4.54V54.48l9.26-5.34,9.1,5.26.15.08,9.4,5.43Zm.15-10.77L74.74,54.4l9.11-5.26h0L93,54.4ZM102.5,49.23V59.57l-9-5.17Zm0,10.68V70.6l-9.25,5.34L84,70.6V59.91l9.11-5.26v9.76a.86.86,0,1,0,.29,0V54.65Z"/><path class="cls-15" d="M93.39,43.63l.15-.08-.15-.09L83.92,38l-.07,0L74.3,43.46h0l-.15.09.15.08V54.14l-9-5.17h0l-.15-.08V38.2l.49-.28c0-.1,0-.21-.05-.31l-.58.34-9.33-5.39-.07,0h0l-9.26-5.34V27L46.1,27v.14l-9.25,5.34-8.6-5a.94.94,0,0,0,.05-.3.86.86,0,1,0-.2.55l8.45,4.88L27.45,38l-8.6-5a.93.93,0,0,0,0-.29.86.86,0,0,0-1.71,0,.86.86,0,0,0,.86.86.88.88,0,0,0,.65-.31l8.67,5,.08,0L36.7,33V43.46l-8.6,5a.85.85,0,0,0-1.51.54.86.86,0,1,0,1.71,0,.93.93,0,0,0-.05-.29l8.67-5,.07,0V33L46.1,38.2V48.89L46,49l.15.09h0l9.4,5.42V65.17l-9.25,5.34-8.52-4.92a.94.94,0,0,0,.07-.34.86.86,0,0,0-.86-.85.86.86,0,1,0,.62,1.44L46,70.68h0l.15.09V81.45l-.15.08h0l-9,5.21-6.1-3.52a.77.77,0,0,0,.06-.3.86.86,0,1,0-.2.55L36.8,87v7a.85.85,0,0,0,.14,1.69A.85.85,0,0,0,37.09,94V87l9.16-5.29,9.25,5.35v9.17a1.71,1.71,0,1,0,.29,0v-9l8.47,4.89a.88.88,0,0,0-.07.33.86.86,0,0,0,.71.84v10h.29v-10a.86.86,0,0,0,.71-.84.85.85,0,0,0-.85-.85.81.81,0,0,0-.62.27L55.94,87l9.11-5.26,9.25,5.35V97.9l8.75,5a.72.72,0,0,0-.06.29.86.86,0,1,0,1.71,0,.85.85,0,0,0-1.51-.54l-8.6-5V87.05l9.26-5.35,8.63,5a1,1,0,0,0-.09.38.86.86,0,1,0,.86-.85.87.87,0,0,0-.59.23l-8.52-4.92L84,81.45V70.94l9.18,5.29.08,0,9.47-5.47.07,0v-22l-9.4,5.42ZM84,38.37l9,5.18-9,5.17ZM93.1,43.8V54.14l-9-5.17Zm-9.4-5.43V48.72l-9-5.17ZM74.59,43.8l9,5.17-9,5.17ZM55.79,33,64.9,38.2V48.72l-8.45-4.88a.93.93,0,0,0,0-.29.85.85,0,0,0-.71-.84Zm-18.65-.26,9.11-5.26,9.1,5.26L46.25,38Zm9.25,5.51L55.5,33v9.76a.85.85,0,0,0-.71.84.72.72,0,0,0,.06.29l-8.46,4.88ZM46.54,49,55,44.09a.85.85,0,0,0,1.31,0L64.75,49l-9.1,5.26Zm17,22.43-7.72,4.45V65.51L63.51,70a1.61,1.61,0,0,0,0,1.44Zm-8-5.89V75.85l-9-5.17Zm-9.11,5.42,9,5.18-9,5.17Zm10.66,27a1.41,1.41,0,1,1-1.55-1.4v.56a.86.86,0,1,0,.29,0v-.56A1.42,1.42,0,0,1,57.05,97.91Zm-1.4-11.12-9.11-5.26,9.11-5.25h0l9.1,5.25Zm9.25-5.51-9-5.17,7.71-4.46a1.66,1.66,0,0,0,1.25.72ZM64.25,71l-.49.28a1.41,1.41,0,0,1,0-1.14l.49.28a.73.73,0,0,0,0,.58Zm.65,1.11a1.4,1.4,0,0,1-1-.57l.48-.28a.91.91,0,0,0,.51.29Zm-.51-2-.48-.28a1.42,1.42,0,0,1,1.14-.58,1.4,1.4,0,0,1,1.13.58l-.48.28a.87.87,0,0,0-1.31,0Zm1.45.26.49-.28a1.35,1.35,0,0,1,.12.57,1.4,1.4,0,0,1-1.26,1.4v-.56a.86.86,0,0,0,.71-.84A.72.72,0,0,0,65.84,70.39Zm-.65,2a1.7,1.7,0,0,0,1.56-1.69,1.73,1.73,0,0,0-.16-.72l7.71-4.45V76l-9.11,5.26Zm9.26,14.42-9.11-5.26,9.11-5.25,9.1,5.25Zm9.25-5.51L74.59,76V65.51l9.11,5.26Zm0-10.85-9.18-5.3-.07,0-8,4.63a1.7,1.7,0,0,0-2.79,0l-7.86-4.54V54.48l9.26-5.34,9.1,5.26.15.08,9.4,5.43Zm.15-10.77L74.74,54.4l9.11-5.26h0L93,54.4ZM102.5,49.23V59.57l-9-5.17Zm0,10.68V70.6l-9.25,5.34L84,70.6V59.91l9.11-5.26v9.76a.86.86,0,1,0,.29,0V54.65Z"/><path class="cls-16" d="M65.19,110.58v-7.34H64.9v7.34a.85.85,0,0,0,.15,1.69.85.85,0,0,0,.85-.85A.86.86,0,0,0,65.19,110.58Z"/><path class="cls-17" d="M25.62,57.77a.71.71,0,0,0-.54.25l-5.94-3.43a1.31,1.31,0,0,0,.14-.59,1.42,1.42,0,1,0-.26.8L25,58.23a.69.69,0,0,0-.05.24.71.71,0,1,0,.71-.7Zm-7.74-2.61A1.16,1.16,0,1,1,19,54a1,1,0,0,1-.1.47l-.4-.23a.6.6,0,0,0,0-.24.71.71,0,1,0-.17.45l.4.23A1.15,1.15,0,0,1,17.88,55.16Z"/><path class="cls-18" d="M129.43,71.48a1.7,1.7,0,0,0-1.7,1.7,1.73,1.73,0,0,0,.16.72l-7.21,4.16a.85.85,0,1,0,.2.55.93.93,0,0,0,0-.29L128,74.16a1.7,1.7,0,1,0,1.39-2.68Zm0,3.11a1.42,1.42,0,0,1-1.14-.58l.49-.28a.88.88,0,0,0,.65.31.86.86,0,0,0,.85-.86.85.85,0,0,0-1.7,0,.93.93,0,0,0,0,.29l-.48.28a1.33,1.33,0,0,1-.13-.57,1.41,1.41,0,1,1,1.41,1.41Z"/><path class="cls-19" d="M130.13,38a1.7,1.7,0,0,0-.15,3.39V51.85l-9.18-5.3-.07,0L111.19,52h0l-.14.09.14.08V62.87L111,63l.14.08h0l9.48,5.47.07,0,9.48-5.47.07-.05h0l.15-.08-.15-.09V52.19l.15-.08-.15-.09h0V41.41a1.7,1.7,0,0,0-.15-3.39Zm-9.4,30.2L111.63,63l9.1-5.26h0L129.84,63Zm-.15-21.29V57.28l-9-5.17Zm.3,0,9,5.18-9,5.17Zm-9.4,5.43,9,5.17-9,5.17ZM130,62.7,121,57.53,130,52.36Zm.3-21.58v-.56a.86.86,0,1,0-1-.84.85.85,0,0,0,.7.84v.56a1.41,1.41,0,0,1,.15-2.81,1.41,1.41,0,0,1,.15,2.81Z"/><path class="cls-20" d="M130.13,38a1.7,1.7,0,0,0-.15,3.39V51.85l-9.18-5.3-.07,0L111.19,52h0l-.14.09.14.08V62.87L111,63l.14.08h0l9.48,5.47.07,0,9.48-5.47.07-.05h0l.15-.08-.15-.09V52.19l.15-.08-.15-.09h0V41.41a1.7,1.7,0,0,0-.15-3.39Zm-9.4,30.2L111.63,63l9.1-5.26h0L129.84,63Zm-.15-21.29V57.28l-9-5.17Zm.3,0,9,5.18-9,5.17Zm-9.4,5.43,9,5.17-9,5.17ZM130,62.7,121,57.53,130,52.36Zm.3-21.58v-.56a.86.86,0,1,0-1-.84.85.85,0,0,0,.7.84v.56a1.41,1.41,0,0,1,.15-2.81,1.41,1.41,0,0,1,.15,2.81Z"/><path class="cls-21" d="M92.39,65.25a.86.86,0,1,0,1-.84V58.8H93.1v5.61A.86.86,0,0,0,92.39,65.25Z"/><path class="cls-22" d="M93.32,68.06a2.73,2.73,0,1,1,2.73-2.73A2.73,2.73,0,0,1,93.32,68.06Zm0-5.23a2.51,2.51,0,1,0,2.51,2.5A2.5,2.5,0,0,0,93.32,62.83Z"/><path class="cls-23" d="M93.32,66.88a1.55,1.55,0,1,1,1.55-1.55A1.55,1.55,0,0,1,93.32,66.88Zm0-3a1.43,1.43,0,1,0,1.42,1.42A1.43,1.43,0,0,0,93.32,63.91Z"/><path class="cls-24" d="M99,57.48l-1.9,1.1a0,0,0,0,1-.06,0v-.2a.17.17,0,0,1,.06-.1l1.9-1.1s.06,0,.06,0v.19A.15.15,0,0,1,99,57.48Z"/><path class="cls-25" d="M96.7,58.89l-.43.25s-.06,0-.06,0v-.2a.15.15,0,0,1,.06-.1l.43-.25s.06,0,.06,0v.2A.15.15,0,0,1,96.7,58.89Z"/><path class="cls-26" d="M94.43,59.77l1.46-.84s.06,0,.06,0v.19a.12.12,0,0,1-.06.1l-1.46.85s-.05,0-.05,0v-.2A.12.12,0,0,1,94.43,59.77Z"/><path class="cls-27" d="M99,58.24l-1,.59s0,0,0,0v-.2a.12.12,0,0,1,0-.1l1-.59s.06,0,.06,0v.2A.13.13,0,0,1,99,58.24Z"/><path class="cls-28" d="M96.27,59.74v-.19s0-.09,0-.1l1.3-.75s0,0,0,0v.19a.14.14,0,0,1,0,.1l-1.3.75S96.27,59.78,96.27,59.74Z"/><path class="cls-29" d="M96,60l-.69.4s0,0,0,0v-.2a.16.16,0,0,1,0-.1l.69-.4s.06,0,.06,0v.2A.13.13,0,0,1,96,60Z"/><path class="cls-30" d="M94.43,60.53l.51-.29s.06,0,.06,0v.19a.15.15,0,0,1-.06.11l-.51.29s-.05,0-.05,0v-.2A.14.14,0,0,1,94.43,60.53Z"/><path class="cls-31" d="M94.43,61.3l1.91-1.1s0,0,0,0v.19s0,.09,0,.1l-1.91,1.1s-.05,0-.05,0V61.4S94.4,61.31,94.43,61.3Z"/><path class="cls-32" d="M99,59l-.44.25s0,0,0,0V59a.14.14,0,0,1,0-.1l.44-.26s.06,0,.06,0v.2A.13.13,0,0,1,99,59Z"/><path class="cls-33" d="M98.18,59.13s.06,0,.06,0v.2a.15.15,0,0,1-.06.1l-1.46.84s0,0,0,0v-.2a.14.14,0,0,1,0-.1Z"/><path class="cls-34" d="M95.19,61.62l.26-.15s.06,0,.06,0v.19a.12.12,0,0,1-.06.1l-.26.16s0,0,0,0v-.2A.12.12,0,0,1,95.19,61.62Z"/><path class="cls-35" d="M95.84,61.24l1.56-.9s.06,0,.06,0v.2a.13.13,0,0,1-.06.1l-1.56.9s0,0,0,0v-.2A.14.14,0,0,1,95.84,61.24Z"/><path class="cls-36" d="M97.82,60.1,99,59.43a0,0,0,0,1,.06,0v.2a.13.13,0,0,1-.06.1l-1.17.68s0,0,0,0v-.2A.14.14,0,0,1,97.82,60.1Z"/><path class="cls-37" d="M99,53.37l-1.9,1.1s-.06,0-.06,0v-.2a.17.17,0,0,1,.06-.1L99,53s.06,0,.06,0v.2A.13.13,0,0,1,99,53.37Z"/><path class="cls-38" d="M96.7,54.78l-.43.25s-.06,0-.06,0V54.8a.12.12,0,0,1,.06-.1l.43-.26s.06,0,.06,0v.2A.13.13,0,0,1,96.7,54.78Z"/><path class="cls-39" d="M94.43,55.67l1.46-.85s.06,0,.06,0v.2a.13.13,0,0,1-.06.1L94.43,56s-.05,0-.05,0v-.19S94.4,55.68,94.43,55.67Z"/><path class="cls-40" d="M99,54.13l-1,.59s0,0,0,0v-.2a.14.14,0,0,1,0-.1l1-.59a0,0,0,0,1,.06,0V54A.13.13,0,0,1,99,54.13Z"/><path class="cls-41" d="M96.27,55.64v-.2a.12.12,0,0,1,0-.1l1.3-.75s0,0,0,0v.2a.19.19,0,0,1,0,.1l-1.3.75S96.27,55.67,96.27,55.64Z"/><path class="cls-42" d="M96,55.87l-.69.4s0,0,0,0V56a.14.14,0,0,1,0-.1l.69-.4s.06,0,.06,0v.19A.12.12,0,0,1,96,55.87Z"/><path class="cls-43" d="M94.43,56.43l.51-.3s.06,0,.06,0v.2a.13.13,0,0,1-.06.1l-.51.29s-.05,0-.05,0v-.19S94.4,56.44,94.43,56.43Z"/><path class="cls-44" d="M94.43,57.19l1.91-1.1s0,0,0,0v.2a.14.14,0,0,1,0,.1l-1.91,1.1s-.05,0-.05,0v-.2A.12.12,0,0,1,94.43,57.19Z"/><path class="cls-45" d="M99,54.89l-.44.26s0,0,0,0v-.2a.16.16,0,0,1,0-.1l.44-.25s.06,0,.06,0v.19A.12.12,0,0,1,99,54.89Z"/><path class="cls-46" d="M98.18,55s.06,0,.06,0v.2a.13.13,0,0,1-.06.1l-1.46.84s0,0,0,0V56s0-.09,0-.1Z"/><path class="cls-47" d="M95.19,57.51l.26-.15s.06,0,.06,0v.2a.13.13,0,0,1-.06.1l-.26.15s0,0,0,0v-.2A.14.14,0,0,1,95.19,57.51Z"/><path class="cls-48" d="M95.84,57.14l1.56-.9s.06,0,.06,0v.19a.12.12,0,0,1-.06.1l-1.56.9s0,0,0,0v-.19S95.81,57.15,95.84,57.14Z"/><path class="cls-49" d="M97.82,56,99,55.32s.06,0,.06,0v.19a.15.15,0,0,1-.06.11l-1.17.67s0,0,0,0V56.1S97.79,56,97.82,56Z"/><path class="cls-50" d="M91.72,59.51l-1.91,1.1s0,0,0,0v-.19s0-.09,0-.1l1.91-1.1s0,0,0,0v.19S91.75,59.5,91.72,59.51Z"/><path class="cls-51" d="M89.43,60.93l-.44.25s0,0,0,0v-.2a.12.12,0,0,1,0-.1l.44-.25s0,0,0,0v.19A.14.14,0,0,1,89.43,60.93Z"/><path class="cls-52" d="M87.16,61.81,88.62,61s0,0,0,0v.19s0,.09,0,.1l-1.46.85s0,0,0,0v-.2A.12.12,0,0,1,87.16,61.81Z"/><path class="cls-53" d="M91.72,60.28l-1,.59a0,0,0,0,1-.06,0v-.2a.13.13,0,0,1,.06-.1l1-.59s0,0,0,0v.2A.14.14,0,0,1,91.72,60.28Z"/><path class="cls-54" d="M89,61.78v-.2a.14.14,0,0,1,.05-.1l1.3-.74s0,0,0,0V61s0,.09,0,.1l-1.3.75S89,61.82,89,61.78Z"/><path class="cls-55" d="M88.7,62l-.69.4s-.05,0-.05,0v-.2a.12.12,0,0,1,.05-.1l.69-.4s0,0,0,0v.2A.12.12,0,0,1,88.7,62Z"/><path class="cls-56" d="M87.16,62.57l.51-.29s0,0,0,0v.19s0,.09,0,.1l-.51.3s0,0,0,0v-.2A.12.12,0,0,1,87.16,62.57Z"/><path class="cls-57" d="M87.16,63.33l1.9-1.1a0,0,0,0,1,.06,0v.2a.13.13,0,0,1-.06.1l-1.9,1.1s0,0,0,0v-.19A.14.14,0,0,1,87.16,63.33Z"/><path class="cls-58" d="M91.72,61l-.44.25s0,0,0,0v-.19s0-.09,0-.1l.44-.26s0,0,0,0v.2A.12.12,0,0,1,91.72,61Z"/><path class="cls-59" d="M90.91,61.17s0,0,0,0v.19a.14.14,0,0,1,0,.11l-1.46.84s-.06,0-.06,0v-.2a.13.13,0,0,1,.06-.1Z"/><path class="cls-60" d="M87.92,63.66l.26-.15s0,0,0,0v.19s0,.09,0,.1l-.26.16a0,0,0,0,1-.06,0v-.2A.13.13,0,0,1,87.92,63.66Z"/><path class="cls-61" d="M88.57,63.28l1.56-.9s.05,0,.05,0v.2a.12.12,0,0,1-.05.1l-1.56.9s-.06,0-.06,0v-.2A.13.13,0,0,1,88.57,63.28Z"/><path class="cls-62" d="M90.54,62.14l1.18-.68s0,0,0,0v.2a.12.12,0,0,1,0,.1l-1.18.68s-.05,0-.05,0v-.2A.12.12,0,0,1,90.54,62.14Z"/><path class="cls-63" d="M54.82,73.65a.58.58,0,1,1-.58-.58A.58.58,0,0,1,54.82,73.65Z"/><path class="cls-12" d="M54,36.3a.58.58,0,1,1-.58-.58A.58.58,0,0,1,54,36.3Z"/><path class="cls-64" d="M18.11,69.55a.29.29,0,0,1-.3.3.3.3,0,0,1-.3-.3.31.31,0,0,1,.3-.3A.3.3,0,0,1,18.11,69.55Z"/><path class="cls-65" d="M61.63,38.4a.3.3,0,0,1-.3.3.31.31,0,0,1-.3-.3.3.3,0,0,1,.3-.3A.29.29,0,0,1,61.63,38.4Z"/><path class="cls-63" d="M19.84,46.93a.3.3,0,0,1-.3.3.31.31,0,0,1-.3-.3.3.3,0,0,1,.3-.3A.29.29,0,0,1,19.84,46.93Z"/><path class="cls-64" d="M46.73,31.4a.3.3,0,1,1-.6,0,.3.3,0,0,1,.6,0Z"/><path class="cls-66" d="M38.11,86.13a.21.21,0,0,1-.21.21.21.21,0,0,1-.21-.21.2.2,0,0,1,.21-.2A.21.21,0,0,1,38.11,86.13Z"/><path class="cls-66" d="M29.34,48.2a.18.18,0,0,1-.18.18A.17.17,0,0,1,29,48.2a.17.17,0,0,1,.17-.17A.18.18,0,0,1,29.34,48.2Z"/><path class="cls-66" d="M42.77,69.11a.16.16,0,0,1-.17.17.17.17,0,0,1-.18-.17.18.18,0,0,1,.18-.18A.17.17,0,0,1,42.77,69.11Z"/><path class="cls-67" d="M40,48a.58.58,0,1,1-.58-.58A.58.58,0,0,1,40,48Z"/><path class="cls-68" d="M26.19,23.73a.46.46,0,1,1-.45-.46A.46.46,0,0,1,26.19,23.73Z"/><path class="cls-69" d="M33.41,74.47A.46.46,0,1,1,33,74,.45.45,0,0,1,33.41,74.47Z"/><path class="cls-70" d="M60.52,44.78V33.32a2.5,2.5,0,0,1,1-2l8.59-5a.64.64,0,0,1,.74,0l.74.43a1,1,0,0,1-.44.23c0,.05,0,.09,0,.15V38.6a2.5,2.5,0,0,1-1,2l-8.47,4.89,0,.61-.82-.48h0A.9.9,0,0,1,60.52,44.78Z"/><path class="cls-71" d="M62.42,31.81l8.6-5c.57-.33,1,0,1,.79V39.1a2.52,2.52,0,0,1-1,2l-8.6,5c-.57.33-1,0-1-.79V33.81A2.52,2.52,0,0,1,62.42,31.81Z"/><polygon class="cls-66" points="64.65 37.88 65.63 36.56 65.63 36.7 65.68 36.56 65.88 36.61 65.82 36.77 65.63 36.73 65.63 38.07 65.75 37.91 65.75 37.91 65.95 37.64 65.95 37.64 66.15 37.37 66.14 37.37 66.34 37.1 66.34 37.1 66.5 36.9 66.42 36.89 66.47 36.72 66.55 36.74 66.55 36.62 66.66 36.55 66.66 36.68 66.74 36.57 66.8 36.66 66.72 36.77 66.87 36.8 66.87 36.8 67.07 36.84 67.07 36.84 67.27 36.88 67.27 36.88 67.47 36.91 67.47 36.92 67.58 36.94 67.58 35.61 67.4 35.86 67.34 35.76 67.54 35.48 67.58 35.57 67.58 35.44 68.56 35.62 68.56 37.13 68.66 37.15 68.6 37.31 68.45 37.28 67.58 38.44 66.61 38.26 65.63 39.57 64.77 39.41 64.61 39.62 64.55 39.52 64.65 39.38 64.65 37.88"/><path class="cls-66" d="M63.51,36.35V40.9a.12.12,0,0,0,.07.12l3,.57a.11.11,0,0,0,.07,0,.19.19,0,0,0,.07-.06l2.95-4a.33.33,0,0,0,.07-.21V32.78c0-.07,0-.12-.07-.13l-2.95-.57a.19.19,0,0,0-.14.09l-3,4A.4.4,0,0,0,63.51,36.35Zm.35,4.28.15-.21-.05-.1-.16.21V36.38h0l.06-.17h0l2.69-3.63v0l.11-.06v0l2.7.52,0,0,.06.1,0,0v4.15l-.16,0-.06.16.16,0-2.7,3.64v-.24l-.11.06v.24Z"/><polygon class="cls-66" points="67.74 35.23 67.94 34.96 68 35.06 67.8 35.33 67.74 35.23"/><polygon class="cls-66" points="68.93 33.61 69.13 33.35 69.19 33.45 68.99 33.71 68.93 33.61"/><polygon class="cls-66" points="68.14 34.69 68.34 34.42 68.39 34.52 68.19 34.79 68.14 34.69"/><polygon class="cls-66" points="66.94 36.3 67.14 36.03 67.2 36.13 67 36.4 66.94 36.3"/><polygon class="cls-66" points="68.54 34.15 68.73 33.88 68.79 33.98 68.59 34.25 68.54 34.15"/><polygon class="cls-66" points="64.41 39.88 64.21 40.15 64.15 40.05 64.35 39.78 64.41 39.88"/><polygon class="cls-66" points="66.02 36.82 66.08 36.65 66.27 36.69 66.22 36.85 66.02 36.82"/><polygon class="cls-66" points="64.82 36.59 64.88 36.41 65.08 36.45 65.02 36.62 64.82 36.59"/><polygon class="cls-66" points="65.22 36.66 65.28 36.49 65.48 36.53 65.42 36.69 65.22 36.66"/><polygon class="cls-66" points="64.68 36.38 64.63 36.54 64.43 36.5 64.48 36.34 64.68 36.38"/><polygon class="cls-66" points="69.06 37.22 69 37.39 68.81 37.35 68.86 37.18 69.06 37.22"/><polygon class="cls-66" points="64.28 36.3 64.23 36.46 64.02 36.43 64.08 36.27 64.28 36.3"/><polygon class="cls-66" points="66.55 33.55 66.66 33.49 66.66 33.79 66.55 33.86 66.55 33.55"/><polygon class="cls-66" points="66.66 38.7 66.55 38.76 66.55 38.46 66.66 38.39 66.66 38.7"/><polygon class="cls-66" points="66.55 32.94 66.66 32.87 66.66 33.18 66.55 33.24 66.55 32.94"/><polygon class="cls-66" points="66.55 34.17 66.66 34.1 66.66 34.41 66.55 34.47 66.55 34.17"/><polygon class="cls-66" points="66.66 39.93 66.55 39.99 66.55 39.69 66.66 39.62 66.66 39.93"/><polygon class="cls-66" points="66.66 40.54 66.55 40.6 66.55 40.3 66.66 40.23 66.66 40.54"/><polygon class="cls-66" points="66.55 34.78 66.66 34.71 66.66 35.02 66.55 35.08 66.55 34.78"/><polygon class="cls-66" points="66.66 39.31 66.55 39.38 66.55 39.07 66.66 39.01 66.66 39.31"/><polygon class="cls-66" points="66.55 35.39 66.66 35.33 66.66 35.63 66.55 35.7 66.55 35.39"/><polygon class="cls-66" points="66.55 36.01 66.66 35.94 66.66 36.25 66.55 36.31 66.55 36.01"/><path class="cls-72" d="M59.39,90.64V84.89a1.26,1.26,0,0,0-.52-1L54.56,81.4a.31.31,0,0,0-.37,0l-.37.21a.61.61,0,0,0,.22.12s0,0,0,.07v5.74a1.27,1.27,0,0,0,.53,1L58.8,91v.3l.41-.24h0A.44.44,0,0,0,59.39,90.64Z"/><path class="cls-73" d="M58.44,84.14l-4.31-2.49c-.29-.17-.52,0-.52.4v5.74a1.23,1.23,0,0,0,.52,1l4.31,2.49c.29.17.52,0,.52-.4V85.14A1.26,1.26,0,0,0,58.44,84.14Z"/><path class="cls-66" d="M54.76,85.58a3.69,3.69,0,0,0,1.54,2.94c.85.49,1.54,0,1.54-1.17a3.67,3.67,0,0,0-1.54-2.93C55.45,83.93,54.76,84.45,54.76,85.58Zm.6,1.6a.09.09,0,0,1,.07,0A4.76,4.76,0,0,1,56,87.1v-.24a1.17,1.17,0,0,1-.1-.38s-.05,0-.09-.12a1.42,1.42,0,0,1-.06-.4c0-.08.08,0,.08,0a1.52,1.52,0,0,1,0-.48c0-.15.09-.16.15-.13,0-.44.76-.06.88.73a.9.9,0,0,1,0,.44s.07,0,.08.09a.81.81,0,0,1-.07.32c0,.12-.09,0-.09,0a.38.38,0,0,1-.1.26v.24s.39.47.58.73a.3.3,0,0,1,.06.11.81.81,0,0,1-.95,0A2.63,2.63,0,0,1,55.36,87.18Z"/><path class="cls-74" d="M131.83,54.6V51a.81.81,0,0,0-.33-.63l-2.71-1.57a.19.19,0,0,0-.23,0l-.24.13a.29.29,0,0,0,.14.08v3.66a.79.79,0,0,0,.33.63l2.67,1.55V55l.26-.15h0A.28.28,0,0,0,131.83,54.6Z"/><path class="cls-75" d="M131.23,50.51l-2.71-1.57c-.18-.1-.33,0-.33.25v3.62a.81.81,0,0,0,.33.63L131.23,55c.18.11.33,0,.33-.25V51.14A.79.79,0,0,0,131.23,50.51Z"/><path class="cls-66" d="M128.92,51.41a2.3,2.3,0,0,0,1,1.85c.53.31,1,0,1-.73a2.33,2.33,0,0,0-1-1.85C129.35,50.37,128.92,50.7,128.92,51.41Zm.37,1,.05,0c.12,0,.37,0,.37,0v-.15a.62.62,0,0,1-.06-.24s0,0-.06-.08a.9.9,0,0,1,0-.24c0-.06,0,0,0,0a1,1,0,0,1,0-.31c0-.09,0-.1.09-.08,0-.28.48,0,.56.46a.63.63,0,0,1,0,.28s0,0,.05.05a.48.48,0,0,1,0,.2c0,.08-.06,0-.06,0a.21.21,0,0,1-.06.16v.15l.36.46,0,.07a.52.52,0,0,1-.6,0A1.79,1.79,0,0,1,129.29,52.42Z"/><path class="cls-76" d="M44.43,63.55V57.81a1.24,1.24,0,0,1,.53-1l4.31-2.49a.33.33,0,0,1,.37,0l.37.22a.45.45,0,0,1-.22.11v5.82a1.27,1.27,0,0,1-.52,1L45,63.91l0,.31L44.62,64h0A.48.48,0,0,1,44.43,63.55Z"/><path class="cls-77" d="M45.39,57.05l4.31-2.48c.28-.17.52,0,.52.39v5.75a1.29,1.29,0,0,1-.52,1L45.39,64.2c-.29.16-.53,0-.53-.4V58.06A1.27,1.27,0,0,1,45.39,57.05Z"/><path class="cls-66" d="M47.53,57.33A3.69,3.69,0,0,0,46,60.27c0,1.13.69,1.65,1.54,1.16a3.69,3.69,0,0,0,1.54-2.94C49.07,57.36,48.38,56.84,47.53,57.33Zm0,3.86a.82.82,0,0,1-.95,0l.06-.1c.2-.26.59-.73.59-.73v-.25a.31.31,0,0,1-.1-.26s0,.1-.09,0a.61.61,0,0,1-.07-.31c0-.1.08-.09.08-.09A1,1,0,0,1,47,59c.12-.8.92-1.17.89-.73.06,0,.13,0,.15.12a2,2,0,0,1,0,.49s.06-.09.08,0a1.46,1.46,0,0,1-.07.39c0,.17-.09.13-.09.13a.94.94,0,0,1-.09.37V60a4.13,4.13,0,0,1,.59,0l.07,0A2.79,2.79,0,0,1,47.51,61.19Z"/><path class="cls-78" d="M86.69,46.18l11.79-6.81a.8.8,0,0,1,.8-.06l.67.39-.41.63V45.9a2.93,2.93,0,0,1-1.23,2.34L87.19,54.66l-.61.94-.68-.39h0a1.09,1.09,0,0,1-.43-1v-5.7A3,3,0,0,1,86.69,46.18Z"/><path class="cls-79" d="M100.38,46.38a2.93,2.93,0,0,1-1.23,2.34L87.37,55.53c-.67.39-1.22,0-1.22-.93V48.9a2.93,2.93,0,0,1,1.22-2.33l11.79-6.81c.67-.39,1.22,0,1.22.93Z"/><path class="cls-80" d="M87.56,54.57c-.39.23-.71,0-.71-.54V48.66a1.69,1.69,0,0,1,.71-1.35L99,40.72c.39-.23.71,0,.71.54v5.37A1.69,1.69,0,0,1,99,48Z"/><path class="cls-81" d="M93.32,51.47l1.15-.66c.06,0,.11,0,.11.08a.27.27,0,0,1-.11.21l-1.15.66c-.06,0-.1,0-.1-.08A.27.27,0,0,1,93.32,51.47Z"/><path class="cls-82" d="M85.83,52s-.09,0-.09.08v.39a.25.25,0,0,0,.09.19c.06,0,.1,0,.1-.08V52.2A.21.21,0,0,0,85.83,52Z"/><path class="cls-82" d="M85.83,51.3s-.09,0-.09.07a.23.23,0,0,0,.09.18c.06,0,.1,0,.1-.07A.21.21,0,0,0,85.83,51.3Z"/><path class="cls-82" d="M85.83,51.63s-.09,0-.09.07a.23.23,0,0,0,.09.18c.06,0,.1,0,.1-.07A.21.21,0,0,0,85.83,51.63Z"/><path class="cls-82" d="M85.83,51.21c.06,0,.1,0,.1-.07a.21.21,0,0,0-.1-.18s-.09,0-.09.07A.23.23,0,0,0,85.83,51.21Z"/><path class="cls-83" d="M87.25,54.39l11.4-6.59a1.7,1.7,0,0,0,.72-1.36V41.07a.82.82,0,0,0-.11-.44c.24,0,.42.24.42.63v5.37A1.69,1.69,0,0,1,99,48L87.56,54.57a.41.41,0,0,1-.61-.1A.61.61,0,0,0,87.25,54.39Z"/><path class="cls-82" d="M98.12,43.84l-2.19,1.27s-.06,0-.06,0v-.23a.16.16,0,0,1,.06-.12l2.19-1.26s.07,0,.07,0v.23A.14.14,0,0,1,98.12,43.84Z"/><path class="cls-82" d="M95.49,45.47l-.51.29s-.06,0-.06,0v-.23a.17.17,0,0,1,.06-.12l.51-.29s.06,0,.06.05v.22A.16.16,0,0,1,95.49,45.47Z"/><path class="cls-82" d="M92.87,46.49l1.68-1s.06,0,.06,0v.23a.14.14,0,0,1-.06.12l-1.68,1s-.06,0-.06-.05v-.22A.16.16,0,0,1,92.87,46.49Z"/><path class="cls-82" d="M98.12,44.72,97,45.4s-.06,0-.06,0v-.23A.16.16,0,0,1,97,45l1.17-.68s.07,0,.07.05v.23A.14.14,0,0,1,98.12,44.72Z"/><path class="cls-82" d="M95,46.46v-.23a.17.17,0,0,1,.06-.12l1.5-.86s.06,0,.06,0v.22a.16.16,0,0,1-.06.12L95,46.5S95,46.5,95,46.46Z"/><path class="cls-82" d="M94.64,46.73l-.79.46s-.06,0-.06,0v-.22a.16.16,0,0,1,.06-.12l.79-.46s.06,0,.06,0v.23A.13.13,0,0,1,94.64,46.73Z"/><path class="cls-82" d="M92.87,47.37l.59-.34s.06,0,.06,0v.22a.16.16,0,0,1-.06.12l-.59.34s-.06,0-.06,0v-.22A.16.16,0,0,1,92.87,47.37Z"/><path class="cls-82" d="M92.87,48.25,95.06,47s.07,0,.07,0v.23a.14.14,0,0,1-.07.12l-2.19,1.27a0,0,0,0,1-.06,0v-.23A.15.15,0,0,1,92.87,48.25Z"/><path class="cls-82" d="M98.12,45.6l-.5.29s-.06,0-.06,0v-.23a.17.17,0,0,1,.06-.12l.5-.29s.07,0,.07,0v.22A.14.14,0,0,1,98.12,45.6Z"/><path class="cls-82" d="M97.19,45.75s.06,0,.06,0V46a.13.13,0,0,1-.06.12l-1.68,1s-.06,0-.06,0v-.23a.13.13,0,0,1,.06-.12Z"/><path class="cls-82" d="M93.74,48.62l.31-.17s.06,0,.06,0v.23a.15.15,0,0,1-.06.11l-.31.18s-.06,0-.06,0v-.22A.16.16,0,0,1,93.74,48.62Z"/><path class="cls-82" d="M94.49,48.19l1.8-1s.06,0,.06,0v.23a.14.14,0,0,1-.06.12l-1.8,1a0,0,0,0,1-.06,0V48.3A.15.15,0,0,1,94.49,48.19Z"/><path class="cls-82" d="M96.77,46.87l1.35-.78s.07,0,.07,0v.22a.14.14,0,0,1-.07.12l-1.35.78s-.06,0-.06,0V47A.16.16,0,0,1,96.77,46.87Z"/><path class="cls-84" d="M88.55,52.44c-.26.16-.36,0-.23-.41l1.47-4.26c.13-.38.35-.5.48-.27l1.47,2.55a.52.52,0,0,1-.23.69Z"/><polygon class="cls-66" points="90.19 50.22 90.31 48.6 89.85 48.87 89.97 50.35 90.19 50.22"/><path class="cls-66" d="M90.08,50.49a.42.42,0,0,0-.18.35c0,.13.08.19.18.13a.43.43,0,0,0,.18-.34C90.26,50.49,90.18,50.43,90.08,50.49Z"/><polygon class="cls-85" points="113.97 44.39 113.97 44.39 113.97 44.39 113.97 44.39"/><path class="cls-86" d="M108.66,58.59,107.77,57l-.21.12.55,1a2.31,2.31,0,0,0,.67.62h0A.58.58,0,0,1,108.66,58.59Z"/><path class="cls-87" d="M105.73,57.83a.79.79,0,0,1-.25-.65v-7a2,2,0,0,1,.85-1.61l7.09-4.17a.54.54,0,0,1,.53,0l-.36-.23h0a.52.52,0,0,0-.56,0l-7.08,4.16a2,2,0,0,0-.85,1.62v7a.7.7,0,0,0,.34.7h0Z"/><path class="cls-88" d="M106.33,48.6l7.09-4.17c.46-.27.84,0,.84.64v7a2.05,2.05,0,0,1-.84,1.62l-3,1.83-.89,2.62c-.23.67-.6.89-.83.48L107.77,57l-1.44.82c-.46.27-.85,0-.85-.64v-7A2,2,0,0,1,106.33,48.6Z"/><path class="cls-89" d="M110,48.14h0a.26.26,0,0,0,.11-.21v-.4c0-.08,0-.12-.11-.08h0a.26.26,0,0,0-.11.21v.4C109.86,48.14,109.91,48.18,110,48.14Z"/><path class="cls-90" d="M112.24,49.14l-.3.17a.26.26,0,0,0-.11.21v0c0,.08,0,.12.11.08l.3-.17a.26.26,0,0,0,.11-.21v0C112.35,49.14,112.3,49.1,112.24,49.14Z"/><path class="cls-91" d="M108,51.57l-.3.17a.28.28,0,0,0-.11.22v0c0,.09,0,.12.11.09l.3-.17a.3.3,0,0,0,.11-.22v0C108.13,51.57,108.08,51.54,108,51.57Z"/><path class="cls-92" d="M111.65,47.4c-.05,0-.12,0-.16.09l-.21.4c0,.08,0,.18,0,.21h0s.12,0,.16-.09l.21-.4c0-.08,0-.18,0-.21Z"/><path class="cls-93" d="M108.67,53.09s-.12,0-.16.1l-.21.4c0,.08,0,.18,0,.21h0s.12,0,.16-.09l.21-.4a.21.21,0,0,0,0-.22Z"/><path class="cls-94" d="M111.45,51.49s-.11,0-.16.09v0a.21.21,0,0,0,0,.22l.21.15s.11,0,.16-.09v0c0-.09,0-.18,0-.22Z"/><path class="cls-95" d="M108.51,49.72s.11,0,.16-.09v0c0-.08,0-.18,0-.21l-.21-.16s-.12,0-.16.09v0c0,.08,0,.18,0,.21Z"/><path class="cls-96" d="M110.67,52.81l-1.39.8a.39.39,0,0,0-.16.32v.16c0,.13.07.18.16.13l.19-.11c0,.37.23.54.51.38a1.22,1.22,0,0,0,.5-1l.19-.11a.41.41,0,0,0,.17-.32v-.17C110.84,52.81,110.76,52.75,110.67,52.81Z"/><path class="cls-97" d="M110.11,51.45c0-.1-.06-.14-.13-.1a.31.31,0,0,0-.13.25c0,.09.06.14.13.1A.34.34,0,0,0,110.11,51.45Z"/><path class="cls-98" d="M110,48.5a3.74,3.74,0,0,0-1.57,3,1.48,1.48,0,0,0,.46,1.22h0l0,0a.91.91,0,0,1,.37.59v.16l.6-.35V52c-.14,0-.25-.1-.25-.31a.84.84,0,0,1,.36-.68c.2-.11.35,0,.35.27a.92.92,0,0,1-.24.59V53l.59-.34v-.15a3.91,3.91,0,0,1,.37-1l0,0h0a3.88,3.88,0,0,0,.46-1.76C111.54,48.53,110.84,48,110,48.5Z"/><path class="cls-99" d="M39.74,66.61l-8,4.59a1.29,1.29,0,0,1-1.18,0l-8-4.59a.44.44,0,0,1-.24-.33V67a.38.38,0,0,0,.24.38l8,4.6a1.36,1.36,0,0,0,1.18,0l8-4.6A.38.38,0,0,0,40,67h0v-.71h0A.4.4,0,0,1,39.74,66.61Z"/><path class="cls-100" d="M31.79,61.33a1.36,1.36,0,0,0-1.18,0l-8,4.6a.36.36,0,0,0,0,.68l8,4.59a1.29,1.29,0,0,0,1.18,0l8-4.59c.33-.19.33-.5,0-.68Z"/><path class="cls-101" d="M39.74,66.42l-8,4.6a1.36,1.36,0,0,1-1.18,0l-8-4.6a.48.48,0,0,1-.23-.24c-.05.15,0,.31.23.43l8,4.59a1.29,1.29,0,0,0,1.18,0l8-4.59c.2-.12.28-.28.23-.43A.48.48,0,0,1,39.74,66.42Z"/><polygon class="cls-66" points="28.36 50.84 24.63 52.99 28.35 55.14 32.08 52.98 28.36 50.84"/><polygon class="cls-102" points="32.08 52.98 28.35 55.14 28.35 67.8 32.08 65.64 32.08 52.98"/><polygon class="cls-103" points="24.63 65.65 24.63 52.99 28.35 55.14 28.35 67.8 24.63 65.65"/><polygon class="cls-104" points="32.08 56.97 28.35 59.13 28.35 60.14 32.08 57.98 32.08 56.97"/><polygon class="cls-105" points="32.08 59.06 28.35 61.21 28.35 62.22 32.08 60.07 32.08 59.06"/><polygon class="cls-106" points="32.08 61.18 28.35 63.34 28.35 64.35 32.08 62.19 32.08 61.18"/><polygon class="cls-107" points="32.08 63.27 28.35 65.42 28.35 66.43 32.08 64.28 32.08 63.27"/><polygon class="cls-108" points="24.63 57.99 24.63 56.98 28.35 59.13 28.35 60.14 24.63 57.99"/><polygon class="cls-109" points="32.08 54.62 28.35 56.77 28.35 57.78 32.08 55.63 32.08 54.62"/><polygon class="cls-110" points="24.63 55.63 24.63 54.63 28.35 56.77 28.35 57.78 24.63 55.63"/><polygon class="cls-111" points="24.63 60.07 24.63 59.06 28.35 61.21 28.35 62.22 24.63 60.07"/><polygon class="cls-112" points="24.63 62.2 24.63 61.19 28.35 63.34 28.35 64.35 24.63 62.2"/><polygon class="cls-113" points="24.63 64.28 24.63 63.27 28.35 65.42 28.35 66.43 24.63 64.28"/><polygon class="cls-4" points="28.35 50.84 25.49 52.48 28.35 54.13 31.2 52.48 28.35 50.84"/><polygon class="cls-114" points="31.2 52.48 28.35 54.13 28.35 54.6 31.2 52.95 31.2 52.48"/><polygon class="cls-115" points="25.49 52.48 28.35 54.13 28.35 54.6 25.49 52.95 25.49 52.48"/><polygon class="cls-66" points="34.09 56.84 31.05 58.6 34.08 60.35 37.13 58.6 34.09 56.84"/><polygon class="cls-116" points="37.13 58.6 34.08 60.35 34.08 68.56 37.13 66.8 37.13 58.6"/><polygon class="cls-117" points="31.05 66.81 31.05 58.6 34.08 60.35 34.08 68.56 31.05 66.81"/><polygon class="cls-118" points="31.51 60.42 31.51 60.75 33.62 61.97 33.62 61.64 31.51 60.42"/><polygon class="cls-119" points="31.51 61.76 33.62 62.98 33.62 62.65 31.51 61.43 31.51 61.76"/><polygon class="cls-120" points="31.51 62.77 33.62 63.99 33.62 63.66 31.51 62.44 31.51 62.77"/><polygon class="cls-121" points="31.51 63.77 33.62 64.99 33.62 64.66 31.51 63.44 31.51 63.77"/><polygon class="cls-122" points="31.51 64.76 33.62 65.98 33.62 65.65 31.51 64.43 31.51 64.76"/><polygon class="cls-123" points="31.51 65.77 33.62 66.99 33.62 66.66 31.51 65.44 31.51 65.77"/><polygon class="cls-124" points="36.66 60.42 36.66 60.75 34.55 61.97 34.55 61.64 36.66 60.42"/><polygon class="cls-125" points="36.66 61.76 34.55 62.98 34.55 62.65 36.66 61.43 36.66 61.76"/><polygon class="cls-126" points="36.66 62.77 34.55 63.99 34.55 63.66 36.66 62.44 36.66 62.77"/><polygon class="cls-127" points="36.66 63.77 34.55 64.99 34.55 64.66 36.66 63.44 36.66 63.77"/><polygon class="cls-128" points="36.66 64.76 34.55 65.98 34.55 65.65 36.66 64.43 36.66 64.76"/><polygon class="cls-129" points="36.66 65.77 34.55 66.99 34.55 66.66 36.66 65.44 36.66 65.77"/><polygon class="cls-66" points="34.08 56.87 31.75 58.21 34.08 59.55 36.41 58.21 34.08 56.87"/><polygon class="cls-130" points="36.41 58.21 34.08 59.55 34.08 59.94 36.41 58.59 36.41 58.21"/><polygon class="cls-131" points="31.75 58.21 34.08 59.55 34.08 59.94 31.75 58.59 31.75 58.21"/><path class="cls-132" d="M84.7,94,76.25,98.9a1.38,1.38,0,0,1-1.25,0L66.55,94a.48.48,0,0,1-.26-.35v.76a.42.42,0,0,0,.26.4L75,99.72a1.38,1.38,0,0,0,1.25,0l8.45-4.88a.41.41,0,0,0,.25-.4h0v-.76h0A.44.44,0,0,1,84.7,94Z"/><path class="cls-133" d="M76.25,88.43a1.38,1.38,0,0,0-1.25,0L66.55,93.3a.39.39,0,0,0,0,.73L75,98.9a1.38,1.38,0,0,0,1.25,0L84.7,94a.39.39,0,0,0,0-.73Z"/><path class="cls-134" d="M84.7,93.83l-8.45,4.88a1.38,1.38,0,0,1-1.25,0l-8.45-4.88a.49.49,0,0,1-.24-.26c-.06.16,0,.33.24.46L75,98.9a1.38,1.38,0,0,0,1.25,0L84.7,94c.21-.13.3-.3.24-.46A.49.49,0,0,1,84.7,93.83Z"/><path class="cls-135" d="M74.28,95.26a1.42,1.42,0,0,0-.59.94l1-.39.25.12v-.21C74.89,95.27,74.61,95.06,74.28,95.26Z"/><path class="cls-136" d="M79.93,92.81v-.07h0a.13.13,0,0,0,0-.06h0a.43.43,0,0,0,0,0h0s0,0,0,0h0s0,0,0-.05h0a.08.08,0,0,0,0,0h0l0,0h0l0,0h0l-.12-.07h0a.35.35,0,0,0-.2,0h0l.24.14h0a.45.45,0,0,1,.17.42V93h0l.09,0v-.21Z"/><path class="cls-137" d="M79.84,92.86a1.26,1.26,0,0,1-.52,1c-.29.16-.52,0-.52-.4a1.26,1.26,0,0,1,.52-1C79.61,92.3,79.84,92.47,79.84,92.86Z"/><path class="cls-138" d="M79.54,92.68a.34.34,0,0,1,.09.25.82.82,0,0,1-.35.66.24.24,0,0,1-.21,0,.21.21,0,0,0,.25,0,.84.84,0,0,0,.35-.66C79.67,92.81,79.62,92.71,79.54,92.68Z"/><path class="cls-139" d="M71.84,94.06c0-.39-.23-.56-.52-.4a1.27,1.27,0,0,0-.53,1,.46.46,0,0,0,.18.42h0l.42.24.06-.36A1.35,1.35,0,0,0,71.84,94.06Z"/><path class="cls-140" d="M72.26,94.3a1.27,1.27,0,0,1-.53,1c-.28.17-.52,0-.52-.4a1.29,1.29,0,0,1,.52-1C72,93.74,72.26,93.91,72.26,94.3Z"/><path class="cls-141" d="M72.08,94.4a.82.82,0,0,1-.35.66c-.19.11-.34,0-.34-.26a.83.83,0,0,1,.34-.66C71.92,94,72.08,94.15,72.08,94.4Z"/><path class="cls-66" d="M71.9,94.51a.39.39,0,0,1-.17.31c-.08.05-.16,0-.16-.13a.41.41,0,0,1,.16-.3C71.82,94.33,71.9,94.39,71.9,94.51Z"/><path class="cls-142" d="M74.62,95.35l-.39-.23h0a.33.33,0,0,0-.37,0,1.26,1.26,0,0,0-.52,1,.48.48,0,0,0,.17.42h0l.42.24.06-.36a1.31,1.31,0,0,0,.39-.9.53.53,0,0,0,0-.13Z"/><path class="cls-143" d="M73.69,93.67l.22-1.53A2,2,0,0,1,74.62,91l3-1.73,3-1.74a.41.41,0,0,1,.43,0h0L78.19,85.8h0a.41.41,0,0,0-.45,0l-3,1.73-3,1.74A2.11,2.11,0,0,0,71,90.47L70.79,92v.26l2.9,1.67v-.25Z"/><path class="cls-144" d="M77,91.14c0-.45-.28-.66-.61-.47a1.48,1.48,0,0,0-.62,1.17V92l1.23-.7Z"/><path class="cls-145" d="M78.8,93.46a1.26,1.26,0,0,1,.52-1,.34.34,0,0,1,.35,0h0l-.42-.24h0a.32.32,0,0,0-.35,0,1.29,1.29,0,0,0-.52,1,.46.46,0,0,0,.18.42h0l.41.24h0A.48.48,0,0,1,78.8,93.46Z"/><path class="cls-146" d="M74.8,95.77a1.25,1.25,0,0,1-.52,1c-.29.17-.52,0-.52-.4a1.26,1.26,0,0,1,.52-1C74.57,95.21,74.8,95.38,74.8,95.77Z"/><path class="cls-147" d="M81.35,87.84s-.19-.64-.71-.34l-3,1.74-3,1.73a2,2,0,0,0-.71,1.17l-.22,1.53v.25l.35-.16v1.13a3.31,3.31,0,0,0-.35.41v.21l-.09.17v.63l.08,0a1.42,1.42,0,0,1,.6-1c.33-.2.61,0,.61.46v.21l.07,0,3.75-2.16v-.22a1.43,1.43,0,0,1,.61-1.16c.34-.2.61,0,.61.46V93l1.64-.94v-3Z"/><path class="cls-138" d="M74.49,95.59a.33.33,0,0,1,.09.26.81.81,0,0,1-.34.65.23.23,0,0,1-.22,0,.22.22,0,0,0,.26,0,.82.82,0,0,0,.34-.66A.29.29,0,0,0,74.49,95.59Z"/><path class="cls-66" d="M74.24,96.5a.81.81,0,0,0,.34-.65.33.33,0,0,0-.09-.26.23.23,0,0,0-.21,0,.84.84,0,0,0-.35.66.37.37,0,0,0,.09.26A.23.23,0,0,0,74.24,96.5Z"/><path class="cls-148" d="M74.44,96a.38.38,0,0,1-.16.31c-.09,0-.16,0-.16-.12a.38.38,0,0,1,.16-.31C74.37,95.8,74.44,95.86,74.44,96Z"/><path class="cls-149" d="M81.12,90l-.33.19a.31.31,0,0,0-.14.26v.47c0,.1.06.15.14.1l.33-.19a.31.31,0,0,0,.14-.26v-.47C81.26,90,81.2,89.91,81.12,90Z"/><path class="cls-150" d="M74.66,93.68l-.33.19a.31.31,0,0,0-.14.26v.47c0,.1.06.15.14.1l.33-.19a.31.31,0,0,0,.14-.26v-.47C74.8,93.68,74.74,93.63,74.66,93.68Z"/><path class="cls-151" d="M76.16,92.81l-.8.47a.31.31,0,0,0-.14.26V94c0,.1.06.14.14.1l.8-.46a.35.35,0,0,0,.14-.27v-.46C76.3,92.81,76.24,92.77,76.16,92.81Z"/><path class="cls-152" d="M77.4,92.1l-.81.46a.38.38,0,0,0-.14.27v.46c0,.11.07.15.14.11l.81-.47a.33.33,0,0,0,.13-.26V92.2C77.53,92.1,77.47,92.06,77.4,92.1Z"/><path class="cls-153" d="M78.65,91.38l-.81.46a.38.38,0,0,0-.14.27v.46c0,.1.07.15.14.11l.81-.47a.33.33,0,0,0,.13-.26v-.47C78.78,91.38,78.72,91.33,78.65,91.38Z"/><path class="cls-154" d="M79.88,90.67l-.81.46a.33.33,0,0,0-.13.26v.47c0,.1.06.15.13.1l.81-.46a.31.31,0,0,0,.14-.26v-.47C80,90.67,80,90.62,79.88,90.67Z"/><path class="cls-155" d="M75.35,91.72l.8-.47a.31.31,0,0,0,.14-.26v-.33c0-.1-.06-.15-.14-.1l-.8.46a.33.33,0,0,0-.14.27v.32C75.21,91.71,75.27,91.76,75.35,91.72Z"/><path class="cls-156" d="M76.58,91l.81-.46a.33.33,0,0,0,.13-.26V90c0-.1-.06-.15-.13-.11l-.81.47a.34.34,0,0,0-.14.26v.33C76.44,91,76.51,91.05,76.58,91Z"/><path class="cls-157" d="M77.83,90.28l.81-.46a.35.35,0,0,0,.13-.27v-.32c0-.1-.06-.15-.13-.11l-.81.47a.34.34,0,0,0-.14.26v.33C77.69,90.28,77.76,90.33,77.83,90.28Z"/><path class="cls-158" d="M79.07,89.57l.8-.46a.35.35,0,0,0,.14-.27v-.32c0-.11-.06-.15-.14-.11l-.8.47a.31.31,0,0,0-.14.26v.33C78.93,89.57,79,89.61,79.07,89.57Z"/><path class="cls-159" d="M81.16,88.18c0-.2-.13-.44-.47-.24l-.39.21a.33.33,0,0,0-.14.26v.33c0,.1.06.15.14.11l.72-.41A.34.34,0,0,0,81.16,88.18Z"/><path class="cls-160" d="M74.92,91.26l-.39.24a.94.94,0,0,0-.47.78c0,.09.06.15.14.1l.72-.43a.31.31,0,0,0,.14-.26v-.33C75.06,91.26,75,91.21,74.92,91.26Z"/><polygon class="cls-66" points="75.14 94.46 80.26 91.5 80.26 91.47 75.14 94.43 75.14 94.46"/><polygon class="cls-66" points="75.14 93.25 80.26 90.3 80.26 90.26 75.14 93.22 75.14 93.25"/><polygon class="cls-66" points="81.16 88.67 74.06 92.77 74.06 92.81 81.16 88.71 81.16 88.67"/><path class="cls-66" d="M81.42,89.73c0-.06,0-.09-.09-.06l-.75.43a.22.22,0,0,0-.09.17v2.17c0,.06,0,.09.09.06l.75-.43a.22.22,0,0,0,.09-.17Zm0,2.19a.12.12,0,0,1-.06.1l-.75.44s-.06,0-.06,0V90.25a.13.13,0,0,1,.06-.1l.75-.44s.06,0,.06,0Z"/><polygon class="cls-161" points="81.57 89.12 73.69 93.67 73.69 93.85 81.57 89.3 81.57 89.12"/><polygon class="cls-162" points="73.59 96.31 70.7 94.64 70.7 94.01 73.59 95.68 73.59 96.31"/><path class="cls-163" d="M73.69,92.21a.27.27,0,0,0-.12-.24l-2.29-1.32a.1.1,0,0,0-.16.08l-.08.6a.26.26,0,0,0,.12.24l2.29,1.32c.08,0,.15,0,.16-.08Z"/><polygon class="cls-66" points="73.69 95.3 70.79 93.63 70.79 93.84 73.69 95.52 73.69 95.3"/><polygon class="cls-164" points="73.69 95.52 73.59 95.68 70.7 94.01 70.79 93.84 73.69 95.52"/><polygon class="cls-165" points="73.69 93.67 70.79 91.99 70.79 92.18 73.69 93.85 73.69 93.67"/><polygon class="cls-166" points="74.04 94.89 71.14 93.21 70.79 93.63 73.69 95.3 74.04 94.89"/><polygon class="cls-167" points="74.04 94.89 71.14 93.21 71.14 92.45 73.69 93.92 74.04 93.76 74.04 94.89"/><path class="cls-168" d="M74.46,91.09l-2.9-1.67a2,2,0,0,0-.42.65L74,91.75A1.68,1.68,0,0,1,74.46,91.09Z"/><path class="cls-168" d="M80.64,87.5a.41.41,0,0,1,.43,0h0L78.19,85.8h0a.41.41,0,0,0-.45,0l0,0,2.9,1.67Z"/><path class="cls-169" d="M73.69,93.92,71.3,92.54V93a.29.29,0,0,0,.14.24l2.3,1.33c.08,0,.14,0,.14-.08v-.62Z"/><path class="cls-66" d="M70.88,94.26l.28.17a.11.11,0,0,1,0,.09v.17s0,0,0,0l-.28-.16a.12.12,0,0,1,0-.09V94.3S70.85,94.25,70.88,94.26Z"/><path class="cls-66" d="M73.11,95.58l.29.16a.16.16,0,0,1,0,.1V96s0,0,0,0l-.29-.17a.09.09,0,0,1,0-.09v-.17S73.08,95.56,73.11,95.58Z"/><path class="cls-66" d="M79.28,93.59a.82.82,0,0,0,.35-.66.34.34,0,0,0-.09-.25.22.22,0,0,0-.22,0,.83.83,0,0,0-.34.66.33.33,0,0,0,.09.26A.24.24,0,0,0,79.28,93.59Z"/><path class="cls-170" d="M79.48,93.07a.4.4,0,0,1-.16.31c-.09.05-.16,0-.16-.13a.4.4,0,0,1,.16-.31C79.41,92.89,79.48,93,79.48,93.07Z"/><path class="cls-171" d="M100.86,95.23c-4.23,1.71-4.82,3.67-2.29,5.13,2.85,1.65,5,2.1,8.71.11,3.39-1.79,3.2-3.7.59-5.3C106.05,94,104.28,93.88,100.86,95.23Z"/><path class="cls-172" d="M107.69,66.54a32.64,32.64,0,0,1,.74,3.35,7.58,7.58,0,0,1-1,2.88,19.28,19.28,0,0,0-1.08,2.1l-.42-.8s.44-2.1.7-2.82.38-.84.18-1.47-.6-1.72-.6-1.72Z"/><path class="cls-173" d="M106.63,73.27a7.67,7.67,0,0,1,1.78,6c-.52,3.14-1.42,4.84-1.26,5.58a11,11,0,0,1,.6,3.74c-.16,1.94-.74,3.94-.76,4.6a5.38,5.38,0,0,0-.08,1.76c.18.5.62.88.18,1.22s-.2-.12-2,.54c-2.46.9-1.94-.36-.72-.58.44-.08.82-1,1-1.54a27.48,27.48,0,0,0,.08-4.52,35.2,35.2,0,0,1-.16-4c0-.6-.48-2.88-.68-4-.28-1.7-.8-7.7-.8-7.7Z"/><path class="cls-174" d="M107,95.15a1.75,1.75,0,0,1,.44,1,6.93,6.93,0,0,1-.44,1.39,2.8,2.8,0,0,0,0,.69l-.34.2-.12-.14s0-1.12-.22-1.28-1,.37-1.44.49a4.69,4.69,0,0,1-2.08-.19c-.44-.18-.08-.72.3-.94a3.08,3.08,0,0,1,1.34-.24,1.53,1.53,0,0,0-.56.38c-.54.54,1,.66,2.34-.52C106.71,95.47,107,95.15,107,95.15Z"/><path class="cls-173" d="M104.93,74.13A14.85,14.85,0,0,1,106,78c0,1.24-.82,1.7-1,2.1s-.22,1.7-.6,3.24-.84,2.5-.4,3.62c.72,1.76.58,3.28.36,5.44a13.73,13.73,0,0,0,0,3.7c.08.4.7.6.38,1.08-.44.63-1.68.71-2.22,1s-1.44.4-1.64.08.34-.83,1.06-.82c.33,0,.68-.93.86-1.39s-.2-1.92-.52-4.24-.44-4.84-.58-5.8a23.41,23.41,0,0,1-.76-6.1c-.14-4.32.32-5.52.32-5.52Z"/><path class="cls-63" d="M104.59,96.31a1.37,1.37,0,0,1,.48.9c0,.51-.42,1.07-.48,1.47s-.13.75-.13.75l-.29.13-.21-.08s.15-1.22-.19-1.3-1.36.72-2,.72a1.89,1.89,0,0,1-1.46-1.08c0-.29.41-.45.81-.41a4.89,4.89,0,0,0,.85,0s-.62.26-.7.48.12.34.38.4c.52.1,1-.36,1.86-1S104.59,96.31,104.59,96.31Z"/><path class="cls-63" d="M107.52,74.48a7.21,7.21,0,0,1,1,4.27c-.15,2.58,1.67,11.12,1.43,11.47-1.1,1.59-7.25,4-10.55.85,0,0,1-14.18,1.88-16.76Z"/><path class="cls-173" d="M102.66,59.07a1.93,1.93,0,0,0-.73,1.19,3.19,3.19,0,0,0,0,1.16,4.6,4.6,0,0,0,0,1.32c.15.61.2,1.55.66,1.61a3.69,3.69,0,0,0,2.51-1.17,2.89,2.89,0,0,0,1.1-3.25A2.35,2.35,0,0,0,102.66,59.07Z"/><path class="cls-175" d="M105.58,62.77h0a2.76,2.76,0,0,0,.66-2.84,2,2,0,0,0-.43-.68c-2.09.24-2.57,2.64-2.5,3.79s-.81,1.26-.82,1.26l.14,0a1.53,1.53,0,0,0,.47,0h.1c.12,0,.35.08.44.5a.9.9,0,0,1-.36.89s2.33.14,3.09-.62A3.37,3.37,0,0,1,105.58,62.77Z"/><path class="cls-176" d="M106.12,59.25a2.45,2.45,0,0,0-3-.56,1.8,1.8,0,0,0-1.27,1.85,1.29,1.29,0,0,0,1,.62s0,.74.39,1a2.3,2.3,0,0,0,2.47,1.28,2.28,2.28,0,0,1,.47-1A2.73,2.73,0,0,0,106.12,59.25Z"/><path class="cls-63" d="M102.3,69.08,101.65,67c-.31.27-.55.5-.64.6a1.9,1.9,0,0,0-.74,1.22c-.08.9.82,1.27.92,1.49.73,1.07.12,4,.12,4a4.51,4.51,0,0,0,2.58.68,17,17,0,0,0,3.63-.51,10.54,10.54,0,0,1-.64-1.35h0C103,73.1,102.3,69.08,102.3,69.08Z"/><path class="cls-177" d="M106.57,70.7c.16-.71,1-3,1.18-3.76s-.88-1.64-1.38-1.86a4,4,0,0,0-2.89.48A22,22,0,0,0,101.65,67l.65,2.06s.65,4,4.58,4h0A3.79,3.79,0,0,1,106.57,70.7Z"/><path class="cls-173" d="M94,64.36h0c.27,0,.87.84,1.11,1.18a2,2,0,0,1,.2,1l-.94.6a1.91,1.91,0,0,1-.86-.9.78.78,0,0,0,0,.23c0,.12-.08.26-.16.18a1.67,1.67,0,0,1-.1-.78c0-.26.4-.48.4-.48h0a2.06,2.06,0,0,1,.47-.24.33.33,0,0,1,.32.08s-.46-.56-.54-.7S94,64.36,94,64.36Z"/><path class="cls-173" d="M95.12,66.29l1.17,1.1,1.2,1.13.68.63.35.33.17.16,0,0h0c.06,0-.07-.07-.06-.06h0l0,0,.1.08h0v0s0,0,0,0,0,0,0,0l0,0s0,0,0,0,0,0,0,0v0h0l0,0,.32-.33,1.16-1.16L101.56,67a1.18,1.18,0,1,1,1.68,1.67l-.11.09-1.27,1-1.3,1-.36.29-.07,0-.09.06a1.06,1.06,0,0,1-.2.12,1.92,1.92,0,0,1-.42.16,1.3,1.3,0,0,1-.44.06,1.64,1.64,0,0,1-.44,0,1.73,1.73,0,0,1-.42-.14,1.34,1.34,0,0,1-.23-.13l-.12-.08,0,0,0,0L97.61,71l-.1-.11,0,0-.15-.19L97,70.25l-.59-.72-1.06-1.26-1-1.24a.54.54,0,0,1,.07-.76A.55.55,0,0,1,95.12,66.29Z"/><path class="cls-178" d="M110,90.22c.24-.35-1.58-8.89-1.43-11.47a7.93,7.93,0,0,0-.12-1.88,10.4,10.4,0,0,1-1.72,6.6c-1.93,2.78-4,6-4.65,9C105.29,93.18,109.13,91.44,110,90.22Z"/><polygon class="cls-179" points="102.08 86.51 100.97 92.1 101.28 92.22 102.08 86.51"/><polygon class="cls-63" points="106.82 87.47 106.7 92.14 107.09 92.01 106.82 87.47"/><polygon class="cls-63" points="108.14 85.4 109.31 90.87 109.53 90.7 108.14 85.4"/><path class="cls-176" d="M102.79,60.45a9.25,9.25,0,0,0,.86,4.67c1.1,1.88.59,3.32-.18,3.94a1.45,1.45,0,0,0,.75-.24,1,1,0,0,0,.57,1,1.36,1.36,0,0,1,0-.68,1.69,1.69,0,0,1,.3,1s.23,0,.39-.52a1.13,1.13,0,0,1,.24.76,1.62,1.62,0,0,0,.82-.94l.09.37a1.83,1.83,0,0,0,.89-1.31l.25.12a4,4,0,0,1,0-1l.4.31s-.24-1-.65-2.34a26.77,26.77,0,0,1-.89-4.94Z"/><path class="cls-180" d="M103.47,69.06a1.45,1.45,0,0,0,.75-.24,1,1,0,0,0,.57,1,1.36,1.36,0,0,1,0-.68,1.69,1.69,0,0,1,.3,1s.23,0,.39-.52a1.13,1.13,0,0,1,.24.76,1.62,1.62,0,0,0,.82-.94l.09.37a1.83,1.83,0,0,0,.89-1.31l.25.12a4,4,0,0,1,0-1l.4.31s-.24-1-.65-2.34a26.1,26.1,0,0,1-.7-3.29h0c.19,1.31.7,4.18.7,4.18l-.18-.43-.14.69-.48-1.09a13.74,13.74,0,0,1-.09,3.11s-.34-1.25-.34-1.25L106,69.06a13.33,13.33,0,0,0-.39-2.83l-.24.94a5.48,5.48,0,0,0-1.18-2.68l.22,1c-1.22-.94-1.64-3.84-1.67-4.08a8.07,8.07,0,0,0,.88,3.76C104.75,67,104.24,68.44,103.47,69.06Z"/><path class="cls-181" d="M76.88,60.55l-7.28,4.2a1.21,1.21,0,0,1-1.08,0l-7.27-4.2a.37.37,0,0,1-.22-.29v.64a.34.34,0,0,0,.22.35l7.27,4.2a1.21,1.21,0,0,0,1.08,0l7.27-4.2a.34.34,0,0,0,.22-.35h0v-.65h0A.4.4,0,0,1,76.88,60.55Z"/><path class="cls-182" d="M69.6,55.73a1.21,1.21,0,0,0-1.08,0l-7.27,4.2a.33.33,0,0,0,0,.62l7.27,4.2a1.21,1.21,0,0,0,1.08,0l7.28-4.2a.33.33,0,0,0,0-.62Z"/><path class="cls-183" d="M76.88,60.38l-7.28,4.2a1.21,1.21,0,0,1-1.08,0l-7.27-4.2a.44.44,0,0,1-.21-.22c0,.14,0,.29.21.39l7.27,4.2a1.21,1.21,0,0,0,1.08,0l7.28-4.2a.33.33,0,0,0,.2-.39A.38.38,0,0,1,76.88,60.38Z"/><path class="cls-171" d="M71.17,61.7l-3.43-1.48-3-1.75c-1.46.84-1.27,2.3.4,3.27a6.73,6.73,0,0,0,3.78.78h0l.21,0h.08l1.26-.14-.26-.1a4.88,4.88,0,0,0,.61-.27A3.89,3.89,0,0,0,71.17,61.7Z"/><polygon class="cls-184" points="69.2 57.37 72.3 56.16 72.3 58.85 69.2 58.85 69.2 57.37"/><polygon class="cls-185" points="69.71 58.77 69.71 60.08 73.14 61.56 73.14 60.25 69.71 58.77"/><path class="cls-186" d="M73.73,59.08a1.51,1.51,0,0,1-.59,1.17v1.31a1.53,1.53,0,0,0,.59-1.14h0V59.08Z"/><path class="cls-187" d="M73.14,60.25c.89-.76.76-1.84-.34-2.69l-3.09,1.21Z"/><path class="cls-188" d="M72.24,60.14a6.3,6.3,0,0,1-5.67-.24c-1-.57-1.47-1.33-1.38-2h0v1.81h0a2.3,2.3,0,0,0,1.39,1.89,6.29,6.29,0,0,0,5.67.23,1.92,1.92,0,0,0,.39-.27V59.87A3.29,3.29,0,0,1,72.24,60.14Z"/><path class="cls-189" d="M66.16,56.63h0c-1.45.84-1.27,2.3.41,3.27a6.3,6.3,0,0,0,5.67.24,3.29,3.29,0,0,0,.39-.27L69.2,58.38Z"/><path class="cls-190" d="M72.3,56.16c-.14-.1-.3-.21-.47-.31a6.33,6.33,0,0,0-5.67-.23l3,1.75Z"/><polygon class="cls-191" points="66.16 55.62 66.16 56.63 69.2 58.38 69.2 57.37 66.16 55.62"/><path class="cls-192" d="M128.1,67.65l-6.2,3.59a1.08,1.08,0,0,1-.93,0l-6.2-3.59a.32.32,0,0,1-.19-.25V68c0,.11,0,.22.19.3l6.2,3.58a1,1,0,0,0,.93,0l6.2-3.58c.14-.08.21-.19.19-.3h0V67.4h0A.3.3,0,0,1,128.1,67.65Z"/><path class="cls-193" d="M121.9,63.54a1,1,0,0,0-.93,0l-6.2,3.58c-.26.15-.26.39,0,.53l6.2,3.59a1.08,1.08,0,0,0,.93,0l6.2-3.59c.26-.14.26-.38,0-.53Z"/><path class="cls-194" d="M128.1,67.51l-6.2,3.58a1,1,0,0,1-.93,0l-6.2-3.58a.34.34,0,0,1-.18-.2c0,.12,0,.25.18.34l6.2,3.59a1.08,1.08,0,0,0,.93,0l6.2-3.59c.16-.09.22-.22.18-.34A.34.34,0,0,1,128.1,67.51Z"/><path class="cls-195" d="M123,62.11a1.32,1.32,0,0,0,.23-.55c0-.27.09-.59.38-.65s.58.14.46.44a4.82,4.82,0,0,0-.33,1.14,2,2,0,0,1-.44,1.51,9.63,9.63,0,0,1-4.17,2.25c-1.78.37-3-.17-3.22-.48s.12-.69.44-.85a4.31,4.31,0,0,1,1.13-.32c.35-.06,3-.51,3.92-1.28S122.72,62.15,123,62.11Z"/><path class="cls-196" d="M119.17,66.25A9.63,9.63,0,0,0,123.34,64a2,2,0,0,0,.44-1.51,4.82,4.82,0,0,1,.33-1.14.36.36,0,0,0,0-.2.34.34,0,0,0-.26-.12c-.14,0-.1.27-.13.44a7,7,0,0,1-.32,1.06,6.23,6.23,0,0,1-2.07,1.76,8.74,8.74,0,0,1-3.83,1.21c-1.36,0-1.46.12-1.38.44A4.25,4.25,0,0,0,119.17,66.25Z"/><path class="cls-197" d="M116.36,64.94c-.31.17-.62.54-.41.83a.74.74,0,0,0,.18.16A1,1,0,0,0,116.36,64.94Z"/><path class="cls-195" d="M124.14,62.73a1.34,1.34,0,0,0,.14-.57c0-.28,0-.6.27-.71s.59,0,.52.36a4.93,4.93,0,0,0-.14,1.18,2,2,0,0,1-.19,1.56A9.59,9.59,0,0,1,121,67.44a3.69,3.69,0,0,1-3.25,0c-.26-.27,0-.7.3-.91a4.3,4.3,0,0,1,1.06-.5c.33-.12,2.89-1,3.66-1.9S123.83,62.82,124.14,62.73Z"/><path class="cls-196" d="M121,67.44a9.59,9.59,0,0,0,3.76-2.89,2,2,0,0,0,.19-1.56,4.93,4.93,0,0,1,.14-1.18.33.33,0,0,0,0-.2c-.07,0-.2-.11-.28-.07s0,.28,0,.45a7.3,7.3,0,0,1-.15,1.09,6.06,6.06,0,0,1-1.76,2.07A8.72,8.72,0,0,1,119.23,67c-1.34.21-1.41.36-1.28.66A4.21,4.21,0,0,0,121,67.44Z"/><path class="cls-197" d="M118,66.6c-.28.22-.52.63-.27.89a.7.7,0,0,0,.2.12A1,1,0,0,0,118,66.6Z"/><path class="cls-195" d="M125.41,63.4a1.37,1.37,0,0,0,.08-.59c0-.27-.07-.59.2-.73s.59,0,.55.31a4.37,4.37,0,0,0,0,1.19,2,2,0,0,1,0,1.57,9.54,9.54,0,0,1-3.45,3.24c-1.62.83-3,.61-3.23.37s-.06-.69.2-.93a4.65,4.65,0,0,1,1-.6c.32-.15,2.78-1.27,3.46-2.25S125.1,63.52,125.41,63.4Z"/><path class="cls-196" d="M122.73,68.39a9.54,9.54,0,0,0,3.45-3.24,2,2,0,0,0,0-1.57,4.37,4.37,0,0,1,0-1.19.32.32,0,0,0,0-.2c-.08,0-.2-.09-.28,0s0,.28,0,.46a8.45,8.45,0,0,1,0,1.1,6.1,6.1,0,0,1-1.55,2.23,8.61,8.61,0,0,1-3.39,2.15c-1.31.34-1.37.5-1.21.79A4.22,4.22,0,0,0,122.73,68.39Z"/><path class="cls-197" d="M119.67,67.86c-.25.24-.45.67-.17.9a.51.51,0,0,0,.21.11C119.92,68.3,119.79,68,119.67,67.86Z"/><path class="cls-195" d="M123.12,61a.53.53,0,0,1,0-.61c.22-.31.3,0,.75.41a14.06,14.06,0,0,0,2.82,1.42c.59.15.32.72-.16.56A11.06,11.06,0,0,1,123.12,61Z"/></g></g></svg>