<svg width="106" height="121" viewBox="0 0 106 121" fill="none" xmlns="http://www.w3.org/2000/svg">
<path d="M52.9794 4.63367L65.8891 12.0856V27.3375L52.9899 34.7789L40.0274 27.327V12.0856L52.9371 4.63367H52.9794ZM52.9371 0.0422613L36.0479 9.79509V29.5857L52.9371 39.328L69.8264 29.5857V9.75283L52.9371 0V0.0422613Z" fill="#F9F8F8"/>
<path d="M67.8207 26.1814L65.8362 29.6184L85.7375 41.1075L87.722 37.6705L67.8207 26.1814Z" fill="#F9F8F8"/>
<path d="M3.96898 39.3706H0V28.3404L9.79572 22.6829L11.7802 26.1238L3.96898 30.6309V39.3706Z" fill="#F9F8F8"/>
<path d="M105.959 39.3706H101.979V30.6309L94.1785 26.1238L96.163 22.6829L105.959 28.3404V39.3706Z" fill="#F9F8F8"/>
<path d="M96.163 95.1434L94.1785 91.7025L101.979 87.1954V78.4664H105.959V89.4965L96.163 95.1434Z" fill="#F9F8F8"/>
<path d="M9.79572 95.1434L0 89.4965V78.4664H3.96898V87.1954L11.7802 91.7025L9.79572 95.1434Z" fill="#F9F8F8"/>
<path d="M52.9794 120.095L43.5003 114.617L45.4848 111.176L52.9794 115.504L60.474 111.176L62.4585 114.617L52.9794 120.095Z" fill="#F9F8F8"/>
<path d="M87.8833 20.1968L87.3871 21.056L91.0437 23.167L91.5399 22.3078L87.8833 20.1968Z" fill="#F9F8F8"/>
<path d="M80.569 15.9765L80.0729 16.8357L83.7295 18.9466L84.2256 18.0874L80.569 15.9765Z" fill="#F9F8F8"/>
<path d="M73.2458 11.751L72.7496 12.6102L76.4063 14.7211L76.9024 13.8619L73.2458 11.751Z" fill="#F9F8F8"/>
<path d="M18.0618 20.3195L14.4059 22.432L14.9023 23.2912L18.5582 21.1787L18.0618 20.3195Z" fill="#F9F8F8"/>
<path d="M25.3867 16.1077L21.7307 18.22L22.2272 19.0791L25.8831 16.9668L25.3867 16.1077Z" fill="#F9F8F8"/>
<path d="M32.7008 11.885L29.0449 13.9973L29.5414 14.8565L33.1972 12.7442L32.7008 11.885Z" fill="#F9F8F8"/>
<path d="M2.49121 69.1357H1.4989V73.3575H2.49121V69.1357Z" fill="#F9F8F8"/>
<path d="M2.49121 60.6917H1.4989V64.9137H2.49121V60.6917Z" fill="#F9F8F8"/>
<path d="M2.49121 52.2477H1.4989V56.4696H2.49121V52.2477Z" fill="#F9F8F8"/>
<path d="M2.49121 43.8033H1.4989V48.0255H2.49121V43.8033Z" fill="#F9F8F8"/>
<path d="M104.481 69.1357H103.489V73.3575H104.481V69.1357Z" fill="#F9F8F8"/>
<path d="M104.481 60.6917H103.489V64.9137H104.481V60.6917Z" fill="#F9F8F8"/>
<path d="M104.481 52.2477H103.489V56.4696H104.481V52.2477Z" fill="#F9F8F8"/>
<path d="M104.481 43.8033H103.489V48.0255H104.481V43.8033Z" fill="#F9F8F8"/>
<path d="M42.194 105.808L41.6979 106.671L45.3713 108.782L45.8674 107.919L42.194 105.808Z" fill="#F9F8F8"/>
<path d="M29.5799 104.293L29.0838 105.152L32.7404 107.264L33.2365 106.404L29.5799 104.293Z" fill="#F9F8F8"/>
<path d="M22.2656 100.073L21.7695 100.932L25.4261 103.043L25.9222 102.184L22.2656 100.073Z" fill="#F9F8F8"/>
<path d="M20.1918 93.2179L19.6957 94.0812L23.3691 96.1925L23.8652 95.3292L20.1918 93.2179Z" fill="#F9F8F8"/>
<path d="M69.0562 108.64L65.4004 110.752L65.8968 111.611L69.5526 109.499L69.0562 108.64Z" fill="#F9F8F8"/>
<path d="M76.3704 104.418L72.7145 106.53L73.2109 107.389L76.8668 105.277L76.3704 104.418Z" fill="#F9F8F8"/>
<path d="M83.6953 100.195L80.0394 102.307L80.5358 103.166L84.1917 101.054L83.6953 100.195Z" fill="#F9F8F8"/>
<path d="M91.0042 95.9632L87.3483 98.0754L87.8447 98.9344L91.5005 96.8222L91.0042 95.9632Z" fill="#F9F8F8"/>
<path d="M19.222 58.4539V77.949L36.1008 87.6914L52.99 77.949L69.8686 87.6914L86.7578 77.949V58.4539L69.8792 48.701L69.8686 68.1962L52.99 58.4539L36.1008 68.1962V48.701L19.222 58.4539Z" fill="#F9F8F8"/>
</svg>
