<svg xmlns="http://www.w3.org/2000/svg" viewBox="90 90 530 510"><linearGradient id="a" gradientUnits="userSpaceOnUse" x1="325.706" y1="450.819" x2="449.31" y2="450.819"><stop offset="0" stop-color="#a5c5ff"/><stop offset="1" stop-color="#77a4f9"/></linearGradient><path fill="url(#a)" d="M614.108 442.24h.093v-21.111h-54.005L371.806 312.37c-9.613-5.545-25.334-5.545-34.949 0L148.47 421.129H94.551v21.111c-.551 4.029 1.809 8.173 7.115 11.234l235.19 135.788c9.615 5.552 25.336 5.552 34.949 0l235.19-135.788c5.305-3.061 7.666-7.204 7.113-11.234z"/><path fill="#EFF7FF" d="M371.806 274.858c-9.613-5.545-25.334-5.545-34.949 0l-235.19 135.783c-9.609 5.553-9.609 14.632 0 20.183l235.19 135.783c9.615 5.552 25.336 5.552 34.949 0l235.19-135.783c9.606-5.551 9.606-14.63 0-20.183l-235.19-135.783z"/><linearGradient id="b" gradientUnits="userSpaceOnUse" x1="469.022" y1="420.176" x2="507.598" y2="420.176"><stop offset="0" stop-color="#a5c5ff" stop-opacity="0"/><stop offset="1" stop-color="#77a4f9"/></linearGradient><path opacity=".5" fill="url(#b)" d="M543.674 415.848l-31.271-18.062c-3.898-2.244-10.278-2.244-14.18 0l-31.811 18.537c-3.901 2.261-3.901 5.937 0 8.192l31.258 18.049c2.021 1.168 4.709 1.725 7.371 1.682v.004h34.319v-16.003h-2.919l7.232-4.211c3.899-2.256 3.899-5.938.001-8.188z"/><linearGradient id="c" gradientUnits="userSpaceOnUse" x1="542.931" y1="440.204" x2="572.813" y2="414.142"><stop offset="0" stop-color="#0070e6"/><stop offset="1" stop-color="#00152b"/></linearGradient><path fill="url(#c)" d="M581.166 419.85v-15.612c-.124 1.38-1.076 2.739-2.896 3.792l-31.819 18.529c-1.952 1.119-4.521 1.688-7.09 1.688v16.219c2.569 0 5.138-.567 7.09-1.685l31.819-18.535c2.078-1.206 3.041-2.813 2.896-4.396z"/><linearGradient id="d" gradientUnits="userSpaceOnUse" x1="534.167" y1="456.924" x2="505.922" y2="398.251"><stop offset="0" stop-color="#0070e6"/><stop offset="1" stop-color="#00152b"/></linearGradient><path fill="url(#d)" d="M532.266 426.559l-31.258-18.051c-1.943-1.117-2.914-2.6-2.923-4.074h-.005v16.192c0 1.487.975 2.978 2.928 4.104l31.258 18.051c1.951 1.117 4.523 1.685 7.095 1.685v-16.219c-2.572 0-5.144-.569-7.095-1.688z"/><linearGradient id="e" gradientUnits="userSpaceOnUse" x1="546.019" y1="398.522" x2="513.818" y2="427.039"><stop offset="0" stop-color="#0070e6"/><stop offset="1" stop-color="#a5c5ff"/></linearGradient><path fill="url(#e)" d="M546.999 381.779c-3.899-2.244-10.278-2.244-14.18 0l-31.812 18.537c-3.9 2.26-3.9 5.936 0 8.191l31.258 18.051c3.903 2.252 10.285 2.252 14.185 0l31.819-18.529c3.898-2.256 3.898-5.938 0-8.188l-31.27-18.062z"/><path opacity=".2" fill="#00152B" d="M539.36 426.54c-2.355 0-4.63-.531-6.241-1.458l-31.258-18.053c-1.318-.756-2.076-1.711-2.074-2.616 0-.896.756-1.858 2.074-2.613l31.812-18.533c1.608-.935 3.884-1.464 6.24-1.464 2.354 0 4.628.529 6.232 1.464l31.269 18.05c1.316.759 2.071 1.719 2.071 2.619 0 .896-.755 1.85-2.067 2.612l-31.823 18.534c-1.607.927-3.884 1.458-6.235 1.458z"/><linearGradient id="f" gradientUnits="userSpaceOnUse" x1="514.359" y1="435.285" x2="582.12" y2="341.039" gradientTransform="translate(1.543)"><stop offset="0" stop-color="#0070e6"/><stop offset="1" stop-color="#a5c5ff"/></linearGradient><path fill="url(#f)" d="M546.45 430.964c-3.899 2.253-10.281 2.253-14.185-.004l-31.258-18.044c-1.943-1.123-2.914-2.6-2.923-4.07h-.005v8.352c0 1.483.975 2.971 2.928 4.104l31.258 18.045c3.903 2.252 10.285 2.252 14.185 0l5.747-3.316v-8.384l-5.747 3.317z"/><linearGradient id="g" gradientUnits="userSpaceOnUse" x1="501.869" y1="417.914" x2="522.216" y2="430.478" gradientTransform="translate(1.543)"><stop offset="0" stop-color="#38d611"/><stop offset="1" stop-color="#bcf0a7"/></linearGradient><path fill="url(#g)" d="M533.151 434.875l-25.965-15.055c-.28-.157-.513.011-.513.392v.464c0 .381.232.814.513.972l25.965 15.062c.278.157.513-.015.513-.382v-.474c0-.374-.234-.807-.513-.979z"/><linearGradient id="h" gradientUnits="userSpaceOnUse" x1="501.556" y1="418.424" x2="521.894" y2="430.982" gradientTransform="translate(1.543)"><stop offset="0" stop-color="#38d611"/><stop offset="1" stop-color="#bcf0a7"/></linearGradient><path fill="url(#h)" d="M504.386 418.338c-.364-.206-.661.021-.661.496 0 .49.297 1.057.661 1.267s.656-.019.656-.501c0-.486-.292-1.053-.656-1.262z"/><linearGradient id="i" gradientUnits="userSpaceOnUse" x1="501.521" y1="418.478" x2="521.845" y2="431.029" gradientTransform="translate(1.543)"><stop offset="0" stop-color="#38d611"/><stop offset="1" stop-color="#bcf0a7"/></linearGradient><path fill="url(#i)" d="M502.471 417.23c-.367-.205-.662.013-.662.506 0 .481.298 1.047.664 1.258.363.214.663-.018.663-.493-.002-.493-.3-1.056-.665-1.271z"/><g><linearGradient id="j" gradientUnits="userSpaceOnUse" x1="542.93" y1="418.501" x2="572.812" y2="392.439"><stop offset="0" stop-color="#0070e6"/><stop offset="1" stop-color="#00152b"/></linearGradient><path fill="url(#j)" d="M581.166 398.145v-15.611c-.124 1.379-1.076 2.739-2.896 3.791l-31.819 18.529c-1.952 1.12-4.521 1.689-7.09 1.689v16.219c2.569 0 5.138-.567 7.09-1.686l31.819-18.535c2.078-1.205 3.041-2.812 2.896-4.396z"/><linearGradient id="k" gradientUnits="userSpaceOnUse" x1="534.166" y1="435.22" x2="505.921" y2="376.547"><stop offset="0" stop-color="#0070e6"/><stop offset="1" stop-color="#00152b"/></linearGradient><path fill="url(#k)" d="M532.266 404.854l-31.258-18.05c-1.943-1.118-2.914-2.6-2.923-4.075h-.005v16.193c0 1.487.975 2.977 2.928 4.104l31.258 18.05c1.951 1.118 4.523 1.686 7.095 1.686v-16.219c-2.572 0-5.144-.569-7.095-1.689z"/><linearGradient id="l" gradientUnits="userSpaceOnUse" x1="546.02" y1="376.816" x2="513.819" y2="405.334"><stop offset="0" stop-color="#0070e6"/><stop offset="1" stop-color="#a5c5ff"/></linearGradient><path fill="url(#l)" d="M546.999 360.074c-3.899-2.244-10.278-2.244-14.18 0l-31.812 18.537c-3.9 2.261-3.9 5.937 0 8.192l31.258 18.05c3.903 2.252 10.285 2.252 14.185 0l31.819-18.529c3.898-2.256 3.898-5.938 0-8.188l-31.27-18.062z"/><path opacity=".2" fill="#00152B" d="M539.36 404.836c-2.355 0-4.63-.531-6.241-1.458l-31.258-18.054c-1.318-.754-2.076-1.711-2.074-2.615 0-.896.756-1.859 2.074-2.613l31.812-18.533c1.608-.935 3.884-1.464 6.24-1.464 2.354 0 4.628.529 6.232 1.464l31.269 18.049c1.316.76 2.071 1.72 2.071 2.62 0 .896-.755 1.849-2.067 2.612l-31.823 18.534c-1.607.927-3.884 1.458-6.235 1.458z"/><linearGradient id="m" gradientUnits="userSpaceOnUse" x1="514.359" y1="413.58" x2="582.119" y2="319.336" gradientTransform="translate(1.543)"><stop offset="0" stop-color="#0070e6"/><stop offset="1" stop-color="#a5c5ff"/></linearGradient><path fill="url(#m)" d="M546.45 409.26c-3.899 2.252-10.281 2.252-14.185-.004l-31.258-18.044c-1.943-1.124-2.914-2.6-2.923-4.071h-.005v8.352c0 1.484.975 2.972 2.928 4.104l31.258 18.046c3.903 2.252 10.285 2.252 14.185 0l5.747-3.316v-8.384l-5.747 3.317z"/><linearGradient id="n" gradientUnits="userSpaceOnUse" x1="501.869" y1="396.211" x2="522.215" y2="408.774" gradientTransform="translate(1.543)"><stop offset="0" stop-color="#38d611"/><stop offset="1" stop-color="#bcf0a7"/></linearGradient><path fill="url(#n)" d="M533.151 413.171l-25.965-15.055c-.28-.157-.513.011-.513.392v.463c0 .382.232.814.513.973l25.965 15.061c.278.158.513-.014.513-.381v-.474c0-.375-.234-.807-.513-.979z"/><linearGradient id="o" gradientUnits="userSpaceOnUse" x1="501.554" y1="396.719" x2="521.892" y2="409.277" gradientTransform="translate(1.543)"><stop offset="0" stop-color="#38d611"/><stop offset="1" stop-color="#bcf0a7"/></linearGradient><path fill="url(#o)" d="M504.386 396.633c-.364-.205-.661.021-.661.497 0 .489.297 1.056.661 1.267.364.209.656-.019.656-.502 0-.485-.292-1.053-.656-1.262z"/><linearGradient id="p" gradientUnits="userSpaceOnUse" x1="501.519" y1="396.773" x2="521.844" y2="409.324" gradientTransform="translate(1.543)"><stop offset="0" stop-color="#38d611"/><stop offset="1" stop-color="#bcf0a7"/></linearGradient><path fill="url(#p)" d="M502.471 395.527c-.367-.206-.662.012-.662.504 0 .482.298 1.047.664 1.258.363.215.663-.018.663-.492-.002-.494-.3-1.057-.665-1.27z"/></g><g><linearGradient id="q" gradientUnits="userSpaceOnUse" x1="542.93" y1="395.955" x2="572.811" y2="369.894"><stop offset="0" stop-color="#0070e6"/><stop offset="1" stop-color="#00152b"/></linearGradient><path fill="url(#q)" d="M581.166 375.601V359.99c-.124 1.38-1.076 2.739-2.896 3.792l-31.82 18.528c-1.952 1.12-4.521 1.688-7.09 1.688v16.219c2.569 0 5.138-.566 7.09-1.685l31.819-18.534c2.079-1.207 3.042-2.814 2.897-4.397z"/><linearGradient id="r" gradientUnits="userSpaceOnUse" x1="534.166" y1="412.674" x2="505.922" y2="354.003"><stop offset="0" stop-color="#0070e6"/><stop offset="1" stop-color="#00152b"/></linearGradient><path fill="url(#r)" d="M532.266 382.31l-31.258-18.05c-1.943-1.118-2.914-2.6-2.923-4.075h-.005v16.192c0 1.488.975 2.978 2.928 4.105l31.258 18.05c1.951 1.118 4.523 1.685 7.095 1.685v-16.219c-2.572 0-5.144-.568-7.095-1.688z"/><linearGradient id="s" gradientUnits="userSpaceOnUse" x1="546.02" y1="354.273" x2="513.819" y2="382.791"><stop offset="0" stop-color="#0070e6"/><stop offset="1" stop-color="#a5c5ff"/></linearGradient><path fill="url(#s)" d="M546.999 337.531c-3.899-2.244-10.278-2.244-14.18 0l-31.812 18.537c-3.9 2.261-3.9 5.937 0 8.192l31.258 18.05c3.903 2.252 10.285 2.252 14.185 0l31.819-18.528c3.898-2.257 3.898-5.938 0-8.189l-31.27-18.062z"/><path opacity=".2" fill="#00152B" d="M539.36 382.291c-2.355 0-4.63-.531-6.241-1.457l-31.258-18.054c-1.318-.755-2.076-1.711-2.074-2.616 0-.896.756-1.858 2.074-2.613l31.812-18.532c1.608-.935 3.884-1.464 6.24-1.464 2.354 0 4.628.529 6.232 1.464l31.269 18.05c1.316.758 2.071 1.719 2.071 2.619 0 .896-.755 1.85-2.067 2.611l-31.823 18.535c-1.607.926-3.884 1.457-6.235 1.457z"/><linearGradient id="t" gradientUnits="userSpaceOnUse" x1="514.359" y1="391.036" x2="582.121" y2="296.788" gradientTransform="translate(1.543)"><stop offset="0" stop-color="#0070e6"/><stop offset="1" stop-color="#a5c5ff"/></linearGradient><path fill="url(#t)" d="M546.45 386.715c-3.899 2.253-10.281 2.253-14.185-.004l-31.258-18.043c-1.943-1.124-2.914-2.6-2.923-4.071h-.005v8.353c0 1.482.975 2.971 2.928 4.103l31.258 18.046c3.903 2.252 10.285 2.252 14.185 0l5.747-3.316v-8.385l-5.747 3.317z"/><linearGradient id="u" gradientUnits="userSpaceOnUse" x1="501.868" y1="373.666" x2="522.215" y2="386.23" gradientTransform="translate(1.543)"><stop offset="0" stop-color="#38d611"/><stop offset="1" stop-color="#bcf0a7"/></linearGradient><path fill="url(#u)" d="M533.151 390.627l-25.965-15.055c-.28-.158-.513.01-.513.392v.463c0 .382.232.815.513.973l25.965 15.061c.278.157.513-.015.513-.382v-.473c0-.374-.234-.807-.513-.979z"/><linearGradient id="v" gradientUnits="userSpaceOnUse" x1="501.555" y1="374.176" x2="521.893" y2="386.734" gradientTransform="translate(1.543)"><stop offset="0" stop-color="#38d611"/><stop offset="1" stop-color="#bcf0a7"/></linearGradient><path fill="url(#v)" d="M504.386 374.089c-.364-.206-.661.022-.661.497 0 .489.297 1.057.661 1.266.364.21.656-.018.656-.501 0-.486-.292-1.052-.656-1.262z"/><linearGradient id="w" gradientUnits="userSpaceOnUse" x1="501.521" y1="374.231" x2="521.845" y2="386.781" gradientTransform="translate(1.543)"><stop offset="0" stop-color="#38d611"/><stop offset="1" stop-color="#bcf0a7"/></linearGradient><path fill="url(#w)" d="M502.471 372.982c-.367-.205-.662.012-.662.506 0 .48.298 1.046.664 1.258.363.213.663-.019.663-.494-.002-.492-.3-1.056-.665-1.27z"/></g><g><linearGradient id="x" gradientUnits="userSpaceOnUse" x1="114.202" y1="427.342" x2="231.805" y2="399.107"><stop offset="0" stop-color="#a5c5ff" stop-opacity="0"/><stop offset="1" stop-color="#77a4f9"/></linearGradient><path opacity=".5" fill="url(#x)" d="M168.284 451.352l-56.092-32.385 83.422-48.164 56.093 32.385z"/><linearGradient id="y" gradientUnits="userSpaceOnUse" x1="112.192" y1="417.24" x2="251.707" y2="417.24"><stop offset="0" stop-color="#a5c5ff"/><stop offset="1" stop-color="#0067dc"/></linearGradient><path fill="url(#y)" d="M168.284 442.329l-56.092-32.384v-2.015l139.515-15.78v2.016z"/><linearGradient id="z" gradientUnits="userSpaceOnUse" x1="183.371" y1="402.099" x2="158.87" y2="366.631"><stop offset="0" stop-color="#fff"/><stop offset="1" stop-color="#eff7ff"/></linearGradient><path fill="url(#z)" d="M168.284 440.314l-56.092-32.384 83.422-48.164 56.093 32.384z"/><g fill="#E2E9FF"><path d="M191.339 371.307l16.873 9.74c.256.148.708.129 1.003-.041l1.504-.869c.296-.171.329-.431.073-.579l-16.872-9.741c-.256-.147-.708-.129-1.004.042l-1.504.868c-.297.17-.329.431-.073.58zM211.614 383.012l3.884 2.242c.255.148.708.129 1.003-.041l1.505-.869c.295-.17.328-.432.072-.58l-3.884-2.242c-.255-.146-.707-.129-1.003.043l-1.504.867c-.297.172-.33.432-.073.58zM234.298 393.129l-12.945-7.473c-.256-.148-.708-.131-1.003.041l-1.505.869c-.296.17-.329.432-.072.579l12.944 7.474c.256.148.708.129 1.004-.042l1.505-.868c.295-.172.328-.432.072-.58zM186.178 374.285l9.041 5.221c.256.147.708.129 1.003-.043l1.505-.867c.296-.172.328-.432.072-.58l-9.041-5.22c-.256-.147-.708-.13-1.003.041l-1.505.868c-.296.172-.328.434-.072.58zM210.869 387.92l1.505-.869c.296-.17.328-.432.072-.579l-11.487-6.632c-.256-.147-.708-.129-1.003.041l-1.505.869c-.296.172-.329.432-.072.579l11.487 6.632c.256.148.707.131 1.003-.041zM212.916 389.723l6.101 3.521c.256.148.708.129 1.004-.041l1.504-.869c.296-.17.328-.431.072-.579l-6.101-3.522c-.256-.147-.708-.129-1.004.041l-1.504.869c-.297.171-.328.431-.072.58zM229.137 396.107l-4.518-2.607c-.257-.148-.708-.129-1.003.043l-1.505.867c-.296.171-.328.432-.072.58l4.517 2.607c.257.148.708.131 1.004-.042l1.505-.868c.296-.169.328-.431.072-.58zM223.977 399.088l-16.873-9.742c-.256-.146-.708-.127-1.004.043l-1.504.867c-.295.172-.329.432-.072.58l16.872 9.741c.257.148.708.13 1.004-.04l1.504-.87c.296-.171.329-.431.073-.579zM181.018 377.266l3.883 2.24c.255.149.708.131 1.004-.04l1.505-.868c.295-.172.329-.432.071-.58l-3.883-2.242c-.256-.148-.708-.129-1.004.041l-1.504.869c-.296.17-.329.431-.072.58zM203.702 387.382l-12.944-7.474c-.256-.148-.708-.128-1.004.042l-1.505.869c-.295.171-.327.432-.072.579l12.944 7.475c.256.146.708.129 1.004-.043l1.503-.869c.297-.17.33-.431.074-.579zM218.816 402.067l-9.041-5.22c-.256-.147-.708-.129-1.003.041l-1.505.869c-.296.172-.328.432-.072.58l9.041 5.22c.256.147.708.128 1.004-.042l1.505-.868c.294-.171.327-.432.071-.58zM204.757 396.311l1.505-.869c.295-.172.328-.432.071-.58l-13.831-7.984c-.256-.148-.708-.131-1.004.04l-1.504.868c-.296.172-.328.433-.073.58l13.832 7.985c.256.147.708.129 1.004-.04zM175.857 380.244l10.409 6.012c.256.146.708.128 1.003-.043l1.505-.869c.296-.17.329-.432.072-.578l-10.409-6.011c-.256-.147-.708-.13-1.003.042l-1.505.867c-.296.172-.328.433-.072.58zM170.696 383.225l16.872 9.742c.256.146.708.127 1.003-.043l1.504-.869c.296-.17.328-.432.072-.579l-16.873-9.741c-.256-.148-.707-.129-1.003.041l-1.505.869c-.293.17-.326.431-.07.58zM195.858 397.13l1.505-.868c.296-.171.328-.432.072-.579l-3.883-2.243c-.256-.147-.708-.129-1.003.043l-1.504.868c-.296.171-.329.432-.072.579l3.883 2.242c.255.148.706.129 1.002-.042zM213.655 405.047l-12.944-7.474c-.256-.147-.708-.13-1.004.042l-1.504.869c-.295.17-.328.432-.072.579l12.944 7.474c.257.148.709.129 1.005-.042l1.504-.868c.295-.171.327-.432.071-.58zM165.536 386.204l9.041 5.22c.256.146.708.129 1.003-.043l1.505-.867c.295-.171.328-.432.072-.58l-9.041-5.22c-.256-.147-.708-.13-1.004.042l-1.504.869c-.296.17-.329.431-.072.579zM190.227 399.838l1.505-.869c.295-.17.329-.432.072-.579l-11.486-6.632c-.256-.148-.708-.129-1.004.041l-1.504.869c-.296.172-.328.432-.072.58l11.487 6.631c.254.148.706.13 1.002-.041zM198.173 413.986l-9.041-5.221c-.256-.147-.708-.129-1.004.043l-1.505.867c-.296.172-.328.432-.072.58l9.041 5.219c.256.148.708.13 1.004-.041l1.504-.868c.297-.17.33-.432.073-.579zM184.115 408.228l1.504-.868c.296-.172.328-.432.072-.58l-13.831-7.985c-.256-.147-.708-.13-1.004.042l-1.505.867c-.296.172-.328.433-.072.581l13.831 7.985c.257.147.708.128 1.005-.042zM155.214 392.163l10.41 6.01c.256.148.708.13 1.003-.042l1.504-.869c.296-.17.328-.431.072-.579l-10.41-6.01c-.256-.147-.708-.129-1.004.042l-1.504.868c-.295.171-.327.433-.071.58zM150.243 395.033l16.872 9.74c.257.148.708.129 1.003-.041l1.505-.869c.295-.17.328-.432.072-.579l-16.872-9.741c-.256-.147-.708-.129-1.004.042l-1.505.868c-.294.171-.327.432-.071.58zM175.405 408.939l1.505-.869c.295-.172.328-.432.072-.579l-3.883-2.242c-.256-.147-.708-.13-1.004.042l-1.505.867c-.295.172-.328.433-.072.58l3.884 2.242c.256.149.707.129 1.003-.041zM193.202 416.855l-12.944-7.474c-.256-.147-.708-.128-1.004.042l-1.504.869c-.296.17-.328.431-.072.579l12.944 7.474c.256.148.708.129 1.003-.042l1.505-.868c.295-.171.328-.432.072-.58zM145.083 398.012l9.041 5.221c.255.147.708.129 1.003-.042l1.504-.869c.296-.171.328-.431.073-.579l-9.041-5.221c-.256-.146-.708-.129-1.004.043l-1.504.868c-.296.171-.329.432-.072.579zM169.773 411.646l1.504-.868c.296-.171.329-.433.073-.58l-11.487-6.632c-.256-.148-.708-.129-1.003.042l-1.505.868c-.296.17-.328.433-.072.58l11.486 6.631c.257.149.708.13 1.004-.041zM171.892 412.87c-.296.17-.329.431-.072.579l6.102 3.523c.256.147.707.128 1.004-.043l1.504-.868c.296-.171.329-.431.072-.579l-6.102-3.523c-.256-.148-.708-.129-1.004.043l-1.504.868zM188.041 419.835l-4.517-2.608c-.256-.148-.708-.129-1.004.042l-1.505.868c-.296.172-.328.432-.072.58l4.518 2.607c.257.148.708.13 1.004-.041l1.503-.869c.297-.17.33-.432.073-.579zM182.881 422.814l-16.873-9.742c-.256-.146-.708-.128-1.004.043l-1.504.869c-.296.17-.329.431-.073.578l16.873 9.742c.255.148.708.129 1.004-.042l1.504-.868c.296-.17.329-.431.073-.58zM139.922 400.992l3.883 2.242c.256.147.708.129 1.003-.043l1.505-.867c.296-.172.328-.432.072-.58l-3.883-2.242c-.256-.148-.708-.129-1.004.042l-1.504.868c-.296.171-.329.432-.072.58zM162.605 411.109l-12.944-7.474c-.256-.147-.708-.129-1.004.042l-1.504.867c-.295.172-.328.432-.072.58l12.944 7.473c.256.148.708.131 1.003-.041l1.505-.869c.297-.169.329-.431.072-.578zM177.72 425.793l-9.04-5.219c-.256-.147-.708-.129-1.004.043l-1.504.867c-.297.172-.329.432-.073.58l9.041 5.22c.256.147.708.129 1.003-.042l1.505-.869c.295-.17.328-.431.072-.58zM163.662 420.035l1.504-.867c.296-.172.329-.432.073-.58l-13.831-7.986c-.256-.146-.708-.129-1.004.042l-1.505.869c-.296.171-.328.431-.072.58l13.831 7.985c.256.149.707.129 1.004-.043zM134.761 403.971l10.409 6.011c.256.147.708.13 1.004-.042l1.505-.869c.295-.17.328-.432.072-.578l-10.409-6.01c-.256-.148-.708-.13-1.004.041l-1.504.869c-.297.169-.329.43-.073.578zM129.601 406.951l16.873 9.741c.256.147.708.129 1.003-.042l1.504-.869c.296-.17.328-.432.073-.58l-16.873-9.74c-.256-.148-.708-.129-1.004.041l-1.504.869c-.296.17-.329.432-.072.58zM154.763 420.856l1.503-.868c.296-.171.329-.432.072-.579l-3.883-2.242c-.255-.148-.707-.13-1.003.042l-1.504.868c-.297.171-.329.432-.073.579l3.884 2.242c.256.149.708.129 1.004-.042z"/></g><g><linearGradient id="A" gradientUnits="userSpaceOnUse" x1="112.192" y1="402.916" x2="251.707" y2="402.916"><stop offset="0" stop-color="#a5c5ff"/><stop offset="1" stop-color="#0067dc"/></linearGradient><path fill="url(#A)" d="M168.284 428.006l-56.092-32.385v-2.016l139.515-15.779v2.016z"/><linearGradient id="B" gradientUnits="userSpaceOnUse" x1="177.368" y1="378.891" x2="154.501" y2="344.823"><stop offset="0" stop-color="#fff"/><stop offset="1" stop-color="#eff7ff"/></linearGradient><path fill="url(#B)" d="M168.284 425.99l-56.092-32.385 83.422-48.164 56.093 32.385z"/><g fill="#E2E9FF"><path d="M191.339 356.982l16.873 9.742c.256.147.708.129 1.003-.043l1.504-.869c.296-.17.329-.43.073-.578l-16.872-9.741c-.256-.147-.708-.13-1.004.042l-1.504.868c-.297.171-.329.431-.073.579zM211.614 368.689l3.884 2.24c.255.148.708.13 1.003-.041l1.505-.868c.295-.171.328-.433.072-.58l-3.884-2.242c-.255-.147-.707-.13-1.003.042l-1.504.869c-.297.17-.33.432-.073.58zM234.298 378.805l-12.945-7.473c-.256-.148-.708-.129-1.003.041l-1.505.869c-.296.17-.329.432-.072.58l12.944 7.473c.256.148.708.129 1.004-.041l1.505-.869c.295-.17.328-.432.072-.58zM186.178 359.961l9.041 5.221c.256.148.708.129 1.003-.042l1.505-.868c.296-.172.328-.432.072-.58l-9.041-5.219c-.256-.148-.708-.13-1.003.041l-1.505.868c-.296.172-.328.432-.072.579zM210.869 373.596l1.505-.868c.296-.171.328-.431.072-.579l-11.487-6.633c-.256-.146-.708-.129-1.003.042l-1.505.868c-.296.172-.329.432-.072.58l11.487 6.632c.256.148.707.13 1.003-.042zM212.916 375.398l6.101 3.521c.256.148.708.13 1.004-.04l1.504-.87c.296-.17.328-.43.072-.578l-6.101-3.522c-.256-.147-.708-.13-1.004.041l-1.504.869c-.297.171-.328.432-.072.579zM229.137 381.784l-4.518-2.608c-.257-.148-.708-.129-1.003.043l-1.505.868c-.296.171-.328.431-.072.579l4.517 2.609c.257.147.708.129 1.004-.043l1.505-.869c.296-.17.328-.43.072-.579zM223.977 384.764l-16.873-9.741c-.256-.147-.708-.128-1.004.042l-1.504.869c-.295.171-.329.431-.072.58l16.872 9.74c.257.148.708.129 1.004-.041l1.504-.869c.296-.17.329-.432.073-.58zM181.018 362.941l3.883 2.242c.255.148.708.129 1.004-.041l1.505-.869c.295-.171.329-.432.071-.58l-3.883-2.242c-.256-.147-.708-.129-1.004.042l-1.504.868c-.296.172-.329.432-.072.58zM203.702 373.059l-12.944-7.474c-.256-.147-.708-.128-1.004.042l-1.505.869c-.295.17-.327.432-.072.578l12.944 7.475c.256.147.708.129 1.004-.043l1.503-.868c.297-.17.33-.431.074-.579zM218.816 387.744l-9.041-5.22c-.256-.147-.708-.13-1.003.042l-1.505.867c-.296.172-.328.432-.072.58l9.041 5.221c.256.146.708.128 1.004-.043l1.505-.867c.294-.172.327-.432.071-.58zM204.757 381.986l1.505-.869c.295-.172.328-.432.071-.58l-13.831-7.984c-.256-.148-.708-.129-1.004.041l-1.504.868c-.296.171-.328.433-.073.58l13.832 7.985c.256.148.708.129 1.004-.041zM175.857 365.922l10.409 6.01c.256.146.708.129 1.003-.043l1.505-.868c.296-.171.329-.431.072-.579l-10.409-6.01c-.256-.148-.708-.13-1.003.041l-1.505.869c-.296.17-.328.431-.072.58zM170.696 368.9l16.872 9.742c.256.146.708.128 1.003-.043l1.504-.868c.296-.171.328-.432.072-.579l-16.873-9.741c-.256-.148-.707-.129-1.003.041l-1.505.868c-.293.172-.326.432-.07.58zM195.858 382.807l1.505-.869c.296-.17.328-.432.072-.578l-3.883-2.243c-.256-.147-.708-.129-1.003.042l-1.504.869c-.296.17-.329.432-.072.579l3.883 2.241c.255.148.706.129 1.002-.041zM213.655 390.723l-12.944-7.473c-.256-.148-.708-.13-1.004.041l-1.504.869c-.295.17-.328.432-.072.58l12.944 7.473c.257.148.709.129 1.005-.041l1.504-.869c.295-.17.327-.432.071-.58zM165.536 371.881l9.041 5.219c.256.147.708.129 1.003-.043l1.505-.867c.295-.17.328-.432.072-.58l-9.041-5.219c-.256-.148-.708-.13-1.004.041l-1.504.869c-.296.17-.329.431-.072.58zM190.227 385.514l1.505-.869c.295-.17.329-.431.072-.578l-11.486-6.632c-.256-.147-.708-.13-1.004.042l-1.504.867c-.296.172-.328.432-.072.58l11.487 6.633c.254.147.706.129 1.002-.043zM198.173 399.662l-9.041-5.221c-.256-.146-.708-.129-1.004.043l-1.505.868c-.296.171-.328.431-.072.579l9.041 5.22c.256.147.708.13 1.004-.042l1.504-.867c.297-.172.33-.432.073-.58zM184.115 393.904l1.504-.869c.296-.172.328-.432.072-.58l-13.831-7.984c-.256-.148-.708-.13-1.004.041l-1.505.868c-.296.171-.328.433-.072.581l13.831 7.984c.257.149.708.129 1.005-.041zM155.214 377.84l10.41 6.01c.256.148.708.129 1.003-.043l1.504-.868c.296-.171.328-.431.072-.579l-10.41-6.01c-.256-.148-.708-.129-1.004.041l-1.504.869c-.295.171-.327.431-.071.58zM150.243 380.71l16.872 9.741c.257.147.708.129 1.003-.043l1.505-.868c.295-.171.328-.432.072-.579l-16.872-9.742c-.256-.146-.708-.129-1.004.043l-1.505.868c-.294.171-.327.432-.071.58zM175.405 394.615l1.505-.868c.295-.171.328-.431.072-.579l-3.883-2.242c-.256-.148-.708-.131-1.004.041l-1.505.869c-.295.17-.328.432-.072.578l3.884 2.242c.256.149.707.129 1.003-.041zM193.202 402.531l-12.944-7.473c-.256-.148-.708-.129-1.004.042l-1.504.868c-.296.17-.328.432-.072.58l12.944 7.473c.256.148.708.129 1.003-.041l1.505-.869c.295-.17.328-.431.072-.58zM145.083 383.689l9.041 5.219c.255.148.708.13 1.003-.041l1.504-.869c.296-.171.328-.432.073-.58l-9.041-5.22c-.256-.147-.708-.13-1.004.042l-1.504.869c-.296.171-.329.432-.072.58zM169.773 397.322l1.504-.867c.296-.172.329-.432.073-.58l-11.487-6.632c-.256-.148-.708-.13-1.003.042l-1.505.867c-.296.172-.328.434-.072.58l11.486 6.632c.257.149.708.13 1.004-.042zM171.892 398.547c-.296.17-.329.431-.072.578l6.102 3.523c.256.148.707.129 1.004-.043l1.504-.867c.296-.172.329-.432.072-.58l-6.102-3.523c-.256-.147-.708-.129-1.004.043l-1.504.869zM188.041 405.512l-4.517-2.609c-.256-.147-.708-.129-1.004.043l-1.505.868c-.296.171-.328.432-.072.579l4.518 2.608c.257.147.708.13 1.004-.042l1.503-.868c.297-.171.33-.432.073-.579zM182.881 408.491l-16.873-9.742c-.256-.147-.708-.128-1.004.042l-1.504.869c-.296.171-.329.432-.073.579l16.873 9.741c.255.148.708.129 1.004-.041l1.504-.869c.296-.17.329-.431.073-.579zM139.922 386.668l3.883 2.242c.256.148.708.129 1.003-.042l1.505-.868c.296-.171.328-.432.072-.58l-3.883-2.241c-.256-.148-.708-.129-1.004.042l-1.504.867c-.296.172-.329.432-.072.58zM162.605 396.785l-12.944-7.473c-.256-.148-.708-.129-1.004.041l-1.504.868c-.295.171-.328.432-.072.579l12.944 7.475c.256.147.708.129 1.003-.043l1.505-.868c.297-.171.329-.431.072-.579zM177.72 411.471l-9.04-5.221c-.256-.146-.708-.129-1.004.043l-1.504.868c-.297.171-.329.432-.073.579l9.041 5.221c.256.146.708.129 1.003-.043l1.505-.867c.295-.172.328-.432.072-.58zM163.662 405.713l1.504-.869c.296-.171.329-.432.073-.58l-13.831-7.984c-.256-.148-.708-.131-1.004.041l-1.505.869c-.296.17-.328.431-.072.58l13.831 7.984c.256.148.707.129 1.004-.041zM134.761 389.648l10.409 6.01c.256.147.708.129 1.004-.042l1.505-.869c.295-.171.328-.433.072-.579l-10.409-6.01c-.256-.148-.708-.129-1.004.041l-1.504.869c-.297.171-.329.432-.073.58zM129.601 392.627l16.873 9.742c.256.146.708.129 1.003-.043l1.504-.867c.296-.172.328-.433.073-.581l-16.873-9.741c-.256-.147-.708-.129-1.004.042l-1.504.869c-.296.17-.329.431-.072.579zM154.763 406.533l1.503-.869c.296-.17.329-.431.072-.578l-3.883-2.242c-.255-.148-.707-.129-1.003.041l-1.504.869c-.297.17-.329.432-.073.579l3.884 2.242c.256.148.708.128 1.004-.042z"/></g></g><g><linearGradient id="C" gradientUnits="userSpaceOnUse" x1="112.192" y1="388.972" x2="251.707" y2="388.972"><stop offset="0" stop-color="#a5c5ff"/><stop offset="1" stop-color="#0067dc"/></linearGradient><path fill="url(#C)" d="M168.284 414.061l-56.092-32.384v-2.016l139.515-15.778v2.015z"/><linearGradient id="D" gradientUnits="userSpaceOnUse" x1="182.748" y1="376.096" x2="174.815" y2="333.161"><stop offset="0" stop-color="#fff"/><stop offset="1" stop-color="#eff7ff"/></linearGradient><path fill="url(#D)" d="M168.284 412.046l-56.092-32.385 83.422-48.164 56.093 32.386z"/><g fill="#E2E9FF"><path d="M191.339 343.039l16.873 9.741c.256.148.708.129 1.003-.042l1.504-.869c.296-.171.329-.431.073-.579l-16.872-9.741c-.256-.147-.708-.129-1.004.042l-1.504.869c-.297.169-.329.43-.073.579zM211.614 354.744l3.884 2.241c.255.149.708.13 1.003-.04l1.505-.869c.295-.172.328-.432.072-.58l-3.884-2.242c-.255-.148-.707-.129-1.003.041l-1.504.869c-.297.172-.33.432-.073.58zM234.298 364.861l-12.945-7.475c-.256-.147-.708-.129-1.003.043l-1.505.869c-.296.17-.329.431-.072.578l12.944 7.474c.256.147.708.129 1.004-.042l1.505-.868c.295-.17.328-.431.072-.579zM186.178 346.017l9.041 5.22c.256.148.708.129 1.003-.042l1.505-.868c.296-.171.328-.432.072-.58l-9.041-5.219c-.256-.148-.708-.129-1.003.041l-1.505.869c-.296.171-.328.432-.072.579zM210.869 359.651l1.505-.868c.296-.17.328-.432.072-.58l-11.487-6.631c-.256-.147-.708-.129-1.003.042l-1.505.868c-.296.171-.329.431-.072.579l11.487 6.633c.256.148.707.129 1.003-.043zM212.916 361.454l6.101 3.522c.256.148.708.129 1.004-.041l1.504-.869c.296-.17.328-.432.072-.58l-6.101-3.521c-.256-.148-.708-.129-1.004.041l-1.504.869c-.297.171-.328.432-.072.579zM229.137 367.84l-4.518-2.608c-.257-.147-.708-.128-1.003.042l-1.505.869c-.296.17-.328.432-.072.579l4.517 2.608c.257.148.708.129 1.004-.043l1.505-.867c.296-.17.328-.432.072-.58zM223.977 370.82l-16.873-9.742c-.256-.148-.708-.128-1.004.042l-1.504.868c-.295.172-.329.432-.072.58l16.872 9.74c.257.148.708.13 1.004-.04l1.504-.87c.296-.169.329-.43.073-.578zM181.018 348.998l3.883 2.241c.255.149.708.13 1.004-.041l1.505-.869c.295-.171.329-.432.071-.58l-3.883-2.242c-.256-.148-.708-.129-1.004.042l-1.504.869c-.296.17-.329.431-.072.58zM203.702 359.113l-12.944-7.473c-.256-.148-.708-.128-1.004.042l-1.505.869c-.295.17-.327.431-.072.58l12.944 7.473c.256.148.708.129 1.004-.041l1.503-.869c.297-.171.33-.432.074-.581zM218.816 373.799l-9.041-5.219c-.256-.148-.708-.129-1.003.041l-1.505.869c-.296.172-.328.432-.072.578l9.041 5.221c.256.148.708.129 1.004-.041l1.505-.869c.294-.172.327-.432.071-.58zM204.757 368.041l1.505-.869c.295-.17.328-.431.071-.579l-13.831-7.985c-.256-.147-.708-.129-1.004.041l-1.504.869c-.296.171-.328.432-.073.58l13.832 7.984c.256.148.708.13 1.004-.041zM175.857 351.977l10.409 6.011c.256.147.708.128 1.003-.042l1.505-.869c.296-.17.329-.432.072-.579l-10.409-6.01c-.256-.148-.708-.129-1.003.042l-1.505.868c-.296.17-.328.431-.072.579zM170.696 354.957l16.872 9.74c.256.148.708.129 1.003-.041l1.504-.869c.296-.171.328-.432.072-.58l-16.873-9.74c-.256-.148-.707-.129-1.003.041l-1.505.869c-.293.17-.326.432-.07.58zM195.858 368.861l1.505-.867c.296-.172.328-.432.072-.58l-3.883-2.242c-.256-.148-.708-.129-1.003.043l-1.504.867c-.296.171-.329.432-.072.58l3.883 2.242c.255.148.706.129 1.002-.043zM213.655 376.779l-12.944-7.475c-.256-.147-.708-.129-1.004.043l-1.504.868c-.295.171-.328.431-.072.579l12.944 7.475c.257.147.709.129 1.005-.043l1.504-.868c.295-.17.327-.431.071-.579zM165.536 357.936l9.041 5.221c.256.146.708.128 1.003-.043l1.505-.869c.295-.17.328-.431.072-.579l-9.041-5.22c-.256-.147-.708-.129-1.004.043l-1.504.869c-.296.169-.329.429-.072.578zM190.227 371.57l1.505-.869c.295-.17.329-.432.072-.58l-11.486-6.631c-.256-.148-.708-.129-1.004.041l-1.504.868c-.296.172-.328.433-.072.58l11.487 6.632c.254.149.706.129 1.002-.041zM198.173 385.717l-9.041-5.219c-.256-.148-.708-.129-1.004.042l-1.505.868c-.296.171-.328.432-.072.58l9.041 5.219c.256.148.708.129 1.004-.041l1.504-.869c.297-.171.33-.432.073-.58zM184.115 379.959l1.504-.868c.296-.172.328-.432.072-.579l-13.831-7.986c-.256-.147-.708-.129-1.004.042l-1.505.868c-.296.171-.328.432-.072.58l13.831 7.986c.257.146.708.128 1.005-.043zM155.214 363.895l10.41 6.01c.256.148.708.13 1.003-.041l1.504-.869c.296-.17.328-.432.072-.58l-10.41-6.01c-.256-.147-.708-.129-1.004.043l-1.504.867c-.295.171-.327.432-.071.58zM150.243 366.766l16.872 9.74c.257.148.708.129 1.003-.042l1.505-.868c.295-.171.328-.432.072-.58l-16.872-9.74c-.256-.148-.708-.13-1.004.041l-1.505.869c-.294.169-.327.431-.071.58zM175.405 380.671l1.505-.868c.295-.172.328-.432.072-.58l-3.883-2.242c-.256-.148-.708-.129-1.004.041l-1.505.869c-.295.172-.328.432-.072.58l3.884 2.242c.256.148.707.129 1.003-.042zM193.202 388.588l-12.944-7.475c-.256-.146-.708-.129-1.004.043l-1.504.868c-.296.17-.328.431-.072.579l12.944 7.474c.256.147.708.13 1.003-.042l1.505-.868c.295-.171.328-.433.072-.579zM145.083 369.744l9.041 5.22c.255.147.708.13 1.003-.042l1.504-.869c.296-.17.328-.431.073-.579l-9.041-5.22c-.256-.148-.708-.129-1.004.043l-1.504.867c-.296.172-.329.433-.072.58zM169.773 383.379l1.504-.869c.296-.17.329-.432.073-.58l-11.487-6.631c-.256-.148-.708-.129-1.003.041l-1.505.869c-.296.17-.328.432-.072.58l11.486 6.631c.257.148.708.129 1.004-.041zM171.892 384.602c-.296.17-.329.432-.072.58l6.102 3.522c.256.147.707.128 1.004-.042l1.504-.869c.296-.17.329-.431.072-.579l-6.102-3.522c-.256-.148-.708-.129-1.004.042l-1.504.868zM188.041 391.566l-4.517-2.607c-.256-.148-.708-.129-1.004.041l-1.505.869c-.296.171-.328.432-.072.58l4.518 2.607c.257.148.708.129 1.004-.042l1.503-.868c.297-.17.33-.431.073-.58zM182.881 394.547l-16.873-9.742c-.256-.146-.708-.129-1.004.042l-1.504.868c-.296.172-.329.432-.073.58l16.873 9.741c.255.148.708.13 1.004-.042l1.504-.868c.296-.171.329-.431.073-.579zM139.922 372.724l3.883 2.241c.256.148.708.131 1.003-.041l1.505-.868c.296-.171.328-.431.072-.579l-3.883-2.242c-.256-.148-.708-.129-1.004.041l-1.504.869c-.296.169-.329.431-.072.579zM162.605 382.841l-12.944-7.474c-.256-.148-.708-.129-1.004.042l-1.504.868c-.295.172-.328.432-.072.58l12.944 7.473c.256.148.708.129 1.003-.041l1.505-.869c.297-.17.329-.432.072-.579zM177.72 397.525l-9.04-5.219c-.256-.148-.708-.13-1.004.041l-1.504.869c-.297.171-.329.432-.073.578l9.041 5.221c.256.148.708.129 1.003-.041l1.505-.869c.295-.17.328-.431.072-.58zM163.662 391.768l1.504-.867c.296-.172.329-.433.073-.581l-13.831-7.985c-.256-.147-.708-.129-1.004.041l-1.505.869c-.296.171-.328.432-.072.58l13.831 7.985c.256.147.707.129 1.004-.042zM134.761 375.703l10.409 6.01c.256.148.708.13 1.004-.041l1.505-.869c.295-.17.328-.432.072-.578l-10.409-6.011c-.256-.147-.708-.13-1.004.04l-1.504.869c-.297.172-.329.432-.073.58zM129.601 378.684l16.873 9.74c.256.148.708.129 1.003-.042l1.504-.868c.296-.17.328-.432.073-.58l-16.873-9.74c-.256-.148-.708-.129-1.004.041l-1.504.869c-.296.169-.329.431-.072.58zM154.763 392.588l1.503-.867c.296-.172.329-.432.072-.58l-3.883-2.242c-.255-.148-.707-.129-1.003.042l-1.504.868c-.297.171-.329.432-.073.58l3.884 2.242c.256.147.708.129 1.004-.043z"/></g></g></g><linearGradient id="E" gradientUnits="userSpaceOnUse" x1="368.559" y1="414.536" x2="471.892" y2="312.536"><stop offset="0" stop-color="#a5c5ff"/><stop offset="1" stop-color="#0067dc"/></linearGradient><path fill="url(#E)" d="M503.725 440.662c-3.598 0-6.523 1.714-6.523 3.82 0 .686.314 1.328.857 1.886l-28.842 16.651c-3.653 2.109-9.826 2.109-13.48 0l-32.439-18.729 63.084-36.422c2.361-1.363 3.662-3.258 3.662-5.334s-1.301-3.971-3.662-5.334l-90.264-52.114c-2.146-1.239-4.983-1.921-7.989-1.921s-5.843.683-7.989 1.921l-22.08 12.749.217-.375-41.572-24.001c-4.406-2.544-11.574-2.544-15.979 0l-37.709 21.771a10.231 10.231 0 0 0-3.237-.508c-3.598 0-6.524 1.714-6.524 3.82s2.927 3.82 6.524 3.82 6.524-1.714 6.524-3.82c0-.671-.299-1.301-.82-1.85l36.493-21.069c3.653-2.109 9.826-2.109 13.479 0l40.538 23.405L239.305 426.4c-2.362 1.364-3.663 3.257-3.662 5.333.001 2.074 1.303 3.967 3.667 5.328l32.842 18.916-26.252 15.156c-2.362 1.363-3.663 3.258-3.663 5.334s1.301 3.971 3.663 5.335l33.553 19.372c-.439.514-.692 1.09-.692 1.702 0 2.106 2.927 3.82 6.524 3.82s6.524-1.714 6.524-3.82-2.927-3.82-6.524-3.82c-1.277 0-2.467.22-3.474.593l-34.661-20.012c-1.556-.898-2.413-2.023-2.413-3.17 0-1.145.857-2.271 2.413-3.169l27.502-15.878 55.038 31.697c2.145 1.235 4.979 1.916 7.982 1.916 3.01 0 5.852-.684 8-1.924l75.124-43.375 33.689 19.451c2.203 1.271 5.097 1.906 7.99 1.906s5.787-.635 7.99-1.906l30.083-17.369c.94.309 2.022.486 3.175.486 3.598 0 6.525-1.714 6.525-3.82s-2.926-3.82-6.523-3.82zm-159.302 46.281c-1.749 1.01-4.209 1.59-6.75 1.59-2.535 0-4.989-.577-6.734-1.582l-90.383-52.055c-1.557-.896-2.415-2.02-2.415-3.164-.001-1.144.856-2.268 2.412-3.166l140.837-81.314c1.746-1.008 4.203-1.586 6.739-1.586s4.993.578 6.739 1.586l90.264 52.113c1.556.898 2.412 2.024 2.412 3.17s-.856 2.271-2.412 3.17l-140.709 81.238z"/><g><linearGradient id="F" gradientUnits="userSpaceOnUse" x1="228.816" y1="424.342" x2="346.433" y2="424.342"><stop offset="0" stop-color="#a5c5ff" stop-opacity="0"/><stop offset="1" stop-color="#77a4f9"/></linearGradient><path opacity=".5" fill="url(#F)" d="M346.102 469.91H227.183l-31.314-47.472 65.759-43.665h93.749z"/><path fill="#FFF" d="M354.635 452.153l103.319-59.651-79.945-46.156-103.319 59.765z"/><linearGradient id="G" gradientUnits="userSpaceOnUse" x1="332.544" y1="388.098" x2="390.428" y2="420.043"><stop offset="0" stop-color="#a5c5ff"/><stop offset="1" stop-color="#0067dc"/></linearGradient><path fill="url(#G)" d="M368.49 380.795l-65.946-38.074v55.962l65.946 38.073z"/><linearGradient id="H" gradientUnits="userSpaceOnUse" x1="330.444" y1="401.644" x2="345.289" y2="409.836"><stop offset="0" stop-color="#122742"/><stop offset="1" stop-color="#304a6c"/></linearGradient><path fill="url(#H)" d="M337.149 392.314l-11.885-6.861.001 26.361 11.885 6.863z"/><linearGradient id="I" gradientUnits="userSpaceOnUse" x1="409.42" y1="347.169" x2="403.67" y2="393.919"><stop offset="0" stop-color="#96a7c5"/><stop offset="1" stop-color="#e2e9ff"/></linearGradient><path fill="url(#I)" d="M368.49 375.195l72.545-41.883-.001 61.561-72.544 41.883z"/><linearGradient id="J" gradientUnits="userSpaceOnUse" x1="-455.704" y1="438.188" x2="-451.275" y2="439.369" gradientTransform="matrix(-1 0 0 1 -97.103 0)"><stop offset="0" stop-color="#a5c5ff"/><stop offset="1" stop-color="#0067dc"/></linearGradient><path fill="url(#J)" d="M344.554 439.275c.545-1.633 2.98-2.865 5.903-2.865 2.924 0 5.36 1.232 5.903 2.865h.115v1.479c0 1.964-2.695 3.556-6.018 3.556s-6.017-1.592-6.017-3.556v-1.479h.114z"/><linearGradient id="K" gradientUnits="userSpaceOnUse" x1="350.929" y1="439.735" x2="357.566" y2="446.219"><stop offset="0" stop-color="#a5c5ff"/><stop offset="1" stop-color="#0067dc"/></linearGradient><ellipse fill="url(#K)" cx="350.457" cy="439.275" rx="6.018" ry="3.555"/><linearGradient id="L" gradientUnits="userSpaceOnUse" x1="350.457" y1="390.521" x2="350.457" y2="418.93"><stop offset="0" stop-color="#96a7c5"/><stop offset="1" stop-color="#e2e9ff"/></linearGradient><path fill="url(#L)" d="M354.683 382.336v56.462c0 1.38-1.892 2.496-4.226 2.496-2.333 0-4.225-1.116-4.225-2.496v-56.462h8.451z"/><linearGradient id="M" gradientUnits="userSpaceOnUse" x1="352.074" y1="413.986" x2="352.074" y2="448.727"><stop offset="0" stop-color="#96a7c5"/><stop offset="1" stop-color="#e2e9ff"/></linearGradient><path fill="url(#M)" d="M354.084 382.336v57.737c-.737.729-2.084 1.221-3.628 1.221-.132 0-.263-.005-.393-.012v-58.946h4.021z"/><linearGradient id="N" gradientUnits="userSpaceOnUse" x1="-440.679" y1="429.63" x2="-436.251" y2="430.811" gradientTransform="matrix(-1 0 0 1 -97.103 0)"><stop offset="0" stop-color="#a5c5ff"/><stop offset="1" stop-color="#0067dc"/></linearGradient><path fill="url(#N)" d="M329.529 430.717c.545-1.633 2.98-2.865 5.903-2.865 2.924 0 5.359 1.232 5.903 2.865h.115v1.479c0 1.964-2.695 3.556-6.018 3.556s-6.017-1.592-6.017-3.556v-1.479h.114z"/><linearGradient id="O" gradientUnits="userSpaceOnUse" x1="335.903" y1="431.177" x2="342.541" y2="437.661"><stop offset="0" stop-color="#a5c5ff"/><stop offset="1" stop-color="#0067dc"/></linearGradient><ellipse fill="url(#O)" cx="335.432" cy="430.717" rx="6.018" ry="3.555"/><linearGradient id="P" gradientUnits="userSpaceOnUse" x1="335.432" y1="381.962" x2="335.432" y2="410.371"><stop offset="0" stop-color="#96a7c5"/><stop offset="1" stop-color="#e2e9ff"/></linearGradient><path fill="url(#P)" d="M339.658 373.777v56.462c0 1.38-1.892 2.496-4.226 2.496-2.333 0-4.225-1.116-4.225-2.496v-56.462h8.451z"/><linearGradient id="Q" gradientUnits="userSpaceOnUse" x1="337.049" y1="405.428" x2="337.049" y2="440.168"><stop offset="0" stop-color="#96a7c5"/><stop offset="1" stop-color="#e2e9ff"/></linearGradient><path fill="url(#Q)" d="M339.06 373.777v57.737c-.737.729-2.084 1.221-3.628 1.221-.132 0-.263-.005-.393-.012v-58.946h4.021z"/><linearGradient id="R" gradientUnits="userSpaceOnUse" x1="-415.853" y1="415.179" x2="-411.425" y2="416.36" gradientTransform="matrix(-1 0 0 1 -97.103 0)"><stop offset="0" stop-color="#a5c5ff"/><stop offset="1" stop-color="#0067dc"/></linearGradient><path fill="url(#R)" d="M304.704 416.265c.545-1.633 2.98-2.864 5.903-2.864 2.924 0 5.359 1.231 5.903 2.864h.115v1.479c0 1.965-2.695 3.556-6.018 3.556s-6.017-1.591-6.017-3.556v-1.479h.114z"/><linearGradient id="S" gradientUnits="userSpaceOnUse" x1="311.079" y1="416.726" x2="317.717" y2="423.21"><stop offset="0" stop-color="#a5c5ff"/><stop offset="1" stop-color="#0067dc"/></linearGradient><ellipse fill="url(#S)" cx="310.607" cy="416.265" rx="6.018" ry="3.555"/><linearGradient id="T" gradientUnits="userSpaceOnUse" x1="310.607" y1="367.51" x2="310.607" y2="395.919"><stop offset="0" stop-color="#96a7c5"/><stop offset="1" stop-color="#e2e9ff"/></linearGradient><path fill="url(#T)" d="M314.833 359.325v56.462c0 1.38-1.892 2.496-4.226 2.496-2.333 0-4.225-1.116-4.225-2.496v-56.462h8.451z"/><linearGradient id="U" gradientUnits="userSpaceOnUse" x1="312.224" y1="390.976" x2="312.224" y2="425.716"><stop offset="0" stop-color="#96a7c5"/><stop offset="1" stop-color="#e2e9ff"/></linearGradient><path fill="url(#U)" d="M314.234 359.325v57.737c-.737.73-2.084 1.221-3.628 1.221-.132 0-.263-.004-.393-.012v-58.946h4.021z"/><linearGradient id="V" gradientUnits="userSpaceOnUse" x1="-400.829" y1="406.62" x2="-396.401" y2="407.801" gradientTransform="matrix(-1 0 0 1 -97.103 0)"><stop offset="0" stop-color="#a5c5ff"/><stop offset="1" stop-color="#0067dc"/></linearGradient><path fill="url(#V)" d="M289.679 407.706c.545-1.633 2.98-2.864 5.903-2.864 2.924 0 5.359 1.231 5.903 2.864h.115v1.479c0 1.965-2.695 3.556-6.018 3.556s-6.017-1.591-6.017-3.556v-1.479h.114z"/><linearGradient id="W" gradientUnits="userSpaceOnUse" x1="296.053" y1="408.167" x2="302.691" y2="414.651"><stop offset="0" stop-color="#a5c5ff"/><stop offset="1" stop-color="#0067dc"/></linearGradient><ellipse fill="url(#W)" cx="295.582" cy="407.706" rx="6.018" ry="3.555"/><linearGradient id="X" gradientUnits="userSpaceOnUse" x1="295.582" y1="358.951" x2="295.582" y2="387.361"><stop offset="0" stop-color="#96a7c5"/><stop offset="1" stop-color="#e2e9ff"/></linearGradient><path fill="url(#X)" d="M299.808 350.767v56.462c0 1.38-1.892 2.496-4.226 2.496-2.333 0-4.225-1.116-4.225-2.496v-56.462h8.451z"/><linearGradient id="Y" gradientUnits="userSpaceOnUse" x1="297.199" y1="382.417" x2="297.199" y2="417.158"><stop offset="0" stop-color="#96a7c5"/><stop offset="1" stop-color="#e2e9ff"/></linearGradient><path fill="url(#Y)" d="M299.209 350.767v57.737c-.737.73-2.084 1.221-3.628 1.221-.132 0-.263-.004-.393-.012v-58.946h4.021z"/><path fill="#FFF" d="M354.084 384.991l-39.46-71.626-32.491 21.458v16.138l71.951 41.541z"/><linearGradient id="Z" gradientUnits="userSpaceOnUse" x1="275.164" y1="355.433" x2="354.084" y2="355.433"><stop offset="0" stop-color="#3d577c"/><stop offset="1" stop-color="#7285a7"/></linearGradient><path fill="url(#Z)" d="M277.805 340.848l35.887-23.702 37.75 68.525.001 10.305 2.641 1.524v-12.509l-39.46-71.626-39.46 26.062v12.508l2.641 1.525z"/><linearGradient id="aa" gradientUnits="userSpaceOnUse" x1="277.804" y1="345.722" x2="282.133" y2="345.722"><stop offset="0" stop-color="#122742"/><stop offset="1" stop-color="#304a6c"/></linearGradient><path fill="url(#aa)" d="M282.133 337.984l-4.329 2.864.001 12.612 4.328-2.499z"/><linearGradient id="ab" gradientUnits="userSpaceOnUse" x1="401.95" y1="340.879" x2="406.644" y2="378.855"><stop offset="0" stop-color="#122742"/><stop offset="1" stop-color="#304a6c"/></linearGradient><path fill="url(#ab)" d="M354.084 397.5l100.977-58.299-.001-12.508-100.976 58.298z"/><linearGradient id="ac" gradientUnits="userSpaceOnUse" x1="395.534" y1="346.828" x2="366.223" y2="273.364"><stop offset="0" stop-color="#122742"/><stop offset="1" stop-color="#304a6c"/></linearGradient><path fill="url(#ac)" d="M314.624 313.365L415.6 255.066l39.46 71.627-100.976 58.298z"/><linearGradient id="ad" gradientUnits="userSpaceOnUse" x1="434.722" y1="406.542" x2="374.221" y2="453.792"><stop offset="0" stop-color="#96a7c5"/><stop offset="1" stop-color="#e2e9ff"/></linearGradient><path fill="url(#ad)" d="M354.635 452.153l-.001 4.265-3.785 2.186v4.537l-4.747 2.742v4.027l111.851-64.578.001-12.83z"/><path fill="#FFF" d="M354.634 456.418l-79.944-46.042-3.786 2.186 79.945 46.042zM350.849 463.141l-79.945-46.043-4.747 2.742 79.945 46.043z"/><linearGradient id="ae" gradientUnits="userSpaceOnUse" x1="266.157" y1="444.875" x2="346.102" y2="444.875"><stop offset="0" stop-color="#a5c5ff"/><stop offset="1" stop-color="#0067dc"/></linearGradient><path fill="url(#ae)" d="M266.157 423.867l79.945 46.043v-4.027l-79.945-46.043z"/><linearGradient id="af" gradientUnits="userSpaceOnUse" x1="270.904" y1="437.852" x2="350.849" y2="437.852"><stop offset="0" stop-color="#a5c5ff"/><stop offset="1" stop-color="#0067dc"/></linearGradient><path fill="url(#af)" d="M350.849 463.141l-79.945-46.043v-4.536l79.945 46.042z"/><linearGradient id="ag" gradientUnits="userSpaceOnUse" x1="274.69" y1="431.265" x2="354.635" y2="431.265"><stop offset="0" stop-color="#a5c5ff"/><stop offset="1" stop-color="#0067dc"/></linearGradient><path fill="url(#ag)" d="M354.635 452.153l-.001 4.265-79.944-46.042v-4.265z"/><linearGradient id="ah" gradientUnits="userSpaceOnUse" x1="312.457" y1="332.81" x2="312.958" y2="346.561"><stop offset="0" stop-color="#96a7c5"/><stop offset="1" stop-color="#e2e9ff"/></linearGradient><path fill="url(#ah)" d="M321.782 352.445c0 6.477-3.938 9.453-8.794 6.648-4.857-2.805-8.795-10.329-8.795-16.804 0-6.477 3.938-9.453 8.795-6.648 4.856 2.804 8.794 10.328 8.794 16.804z"/><linearGradient id="ai" gradientUnits="userSpaceOnUse" x1="313.66" y1="357.476" x2="309.66" y2="343.976"><stop offset="0" stop-color="#a5c5ff"/><stop offset="1" stop-color="#0067dc"/></linearGradient><path fill="url(#ai)" d="M315.177 357.82c-4.858-2.805-8.795-10.329-8.795-16.804 0-2.822.748-4.979 1.994-6.283-2.507.618-4.184 3.337-4.184 7.556 0 6.476 3.938 14 8.795 16.804 2.74 1.583 5.187 1.323 6.8-.365-1.342.331-2.917.071-4.61-.908z"/><g><path fill="#FFF" d="M385.463 395.131c.162.473.254 1.031.254 1.673v17.03l-4.924 2.842v3.164l7.664-4.425v-17.029c0-2.438-1.281-3.734-2.994-3.255z"/><linearGradient id="aj" gradientUnits="userSpaceOnUse" x1="-287.078" y1="408.731" x2="-278.424" y2="413.508" gradientTransform="matrix(-.866 .5 0 1.1547 135.31 77.516)"><stop offset="0" stop-color="#122742"/><stop offset="1" stop-color="#304a6c"/></linearGradient><path fill="url(#aj)" d="M385.717 396.804c0-.642-.092-1.2-.254-1.673a3.64 3.64 0 0 0-.838.357c-2.117 1.223-3.832 4.5-3.832 7.322v13.865l4.924-2.842v-17.029z"/><linearGradient id="ak" gradientUnits="userSpaceOnUse" x1="-285.813" y1="409.431" x2="-277.157" y2="414.207" gradientTransform="matrix(-.866 .5 0 1.1547 135.31 77.516)"><stop offset="0" stop-color="#122742"/><stop offset="1" stop-color="#304a6c"/></linearGradient><path fill="url(#ak)" d="M385.717 396.804c0-.642-.092-1.2-.254-1.673a3.64 3.64 0 0 0-.838.357c-2.117 1.223-3.832 4.5-3.832 7.322v13.865l4.924-2.842v-17.029z"/><g><path fill="#FFF" d="M398.123 387.688c.162.473.255 1.03.255 1.672v17.029l-4.925 2.844v3.163l7.664-4.425v-17.029c0-2.438-1.281-3.733-2.994-3.254z"/><linearGradient id="al" gradientUnits="userSpaceOnUse" x1="-301.698" y1="408.615" x2="-293.043" y2="413.391" gradientTransform="matrix(-.866 .5 0 1.1547 135.31 77.516)"><stop offset="0" stop-color="#122742"/><stop offset="1" stop-color="#304a6c"/></linearGradient><path fill="url(#al)" d="M398.378 389.359c0-.642-.093-1.199-.255-1.672-.27.075-.55.191-.838.357-2.116 1.222-3.832 4.5-3.832 7.321v13.866l4.925-2.844v-17.028z"/><linearGradient id="am" gradientUnits="userSpaceOnUse" x1="-300.431" y1="409.313" x2="-291.776" y2="414.09" gradientTransform="matrix(-.866 .5 0 1.1547 135.31 77.516)"><stop offset="0" stop-color="#122742"/><stop offset="1" stop-color="#304a6c"/></linearGradient><path fill="url(#am)" d="M398.378 389.359c0-.642-.093-1.199-.255-1.672-.27.075-.55.191-.838.357-2.116 1.222-3.832 4.5-3.832 7.321v13.866l4.925-2.844v-17.028z"/></g><g><path fill="#FFF" d="M415.24 377.853a5.15 5.15 0 0 1 .254 1.673v17.029l-4.924 2.842v3.164l7.664-4.424v-17.03c0-2.438-1.282-3.734-2.994-3.254z"/><linearGradient id="an" gradientUnits="userSpaceOnUse" x1="-321.463" y1="408.656" x2="-312.809" y2="413.432" gradientTransform="matrix(-.866 .5 0 1.1547 135.31 77.516)"><stop offset="0" stop-color="#122742"/><stop offset="1" stop-color="#304a6c"/></linearGradient><path fill="url(#an)" d="M415.494 379.525a5.15 5.15 0 0 0-.254-1.673c-.271.075-.551.19-.838.356-2.117 1.223-3.832 4.5-3.832 7.322v13.865l4.924-2.842v-17.028z"/><linearGradient id="ao" gradientUnits="userSpaceOnUse" x1="-320.197" y1="409.356" x2="-311.543" y2="414.132" gradientTransform="matrix(-.866 .5 0 1.1547 135.31 77.516)"><stop offset="0" stop-color="#122742"/><stop offset="1" stop-color="#304a6c"/></linearGradient><path fill="url(#ao)" d="M415.494 379.525a5.15 5.15 0 0 0-.254-1.673c-.271.075-.551.19-.838.356-2.117 1.223-3.832 4.5-3.832 7.322v13.865l4.924-2.842v-17.028z"/></g><g><path fill="#FFF" d="M427.9 370.408c.162.473.255 1.031.255 1.672v17.03l-4.925 2.843v3.163l7.664-4.425v-17.029c.001-2.437-1.281-3.732-2.994-3.254z"/><linearGradient id="ap" gradientUnits="userSpaceOnUse" x1="-336.083" y1="408.541" x2="-327.429" y2="413.317" gradientTransform="matrix(-.866 .5 0 1.1547 135.31 77.516)"><stop offset="0" stop-color="#122742"/><stop offset="1" stop-color="#304a6c"/></linearGradient><path fill="url(#ap)" d="M428.155 372.08c0-.641-.093-1.199-.255-1.672-.27.075-.55.191-.838.357-2.116 1.223-3.832 4.5-3.832 7.321v13.866l4.925-2.843V372.08z"/><linearGradient id="aq" gradientUnits="userSpaceOnUse" x1="-334.817" y1="409.239" x2="-326.163" y2="414.016" gradientTransform="matrix(-.866 .5 0 1.1547 135.31 77.516)"><stop offset="0" stop-color="#122742"/><stop offset="1" stop-color="#304a6c"/></linearGradient><path fill="url(#aq)" d="M428.155 372.08c0-.641-.093-1.199-.255-1.672-.27.075-.55.191-.838.357-2.116 1.223-3.832 4.5-3.832 7.321v13.866l4.925-2.843V372.08z"/></g></g></g><g><linearGradient id="ar" gradientUnits="userSpaceOnUse" x1="793.59" y1="188.231" x2="792.419" y2="238.724" gradientTransform="matrix(-1 0 0 1 1080.05 0)"><stop offset="0" stop-color="#b0a002"/><stop offset="1" stop-color="#aa5300"/></linearGradient><path fill="url(#ar)" d="M267.661 180.172l-.751-1.532 4.556-2.63c4.012-2.785 9.439-2.789 15.42.665 12.347 7.128 22.355 26.252 22.355 42.713-.001 8.758-2.834 14.998-7.344 17.847l.006.013-4.866 2.81-.545-1.11c-2.91.169-6.167-.673-9.606-2.658-12.345-7.128-22.354-26.251-22.355-42.713-.001-5.559 1.144-10.098 3.13-13.405z"/><linearGradient id="as" gradientUnits="userSpaceOnUse" x1="798.029" y1="194.271" x2="788.29" y2="243.161" gradientTransform="matrix(-1 0 0 1 1080.05 0)"><stop offset="0" stop-color="#fff"/><stop offset="1" stop-color="#ead77c"/></linearGradient><path opacity=".6" fill="url(#as)" d="M296.492 238.946c-2.91.169-6.167-.673-9.606-2.658-12.345-7.128-22.354-26.251-22.355-42.713 0-5.557 1.145-10.096 3.131-13.402l-.751-1.532 3.593-2.075a12.772 12.772 0 0 1 2.642-.275c2.907 0 5.989.928 9.16 2.759 12.484 7.208 22.641 26.591 22.641 43.208 0 7.014-1.813 12.603-4.965 16.1l-2.943 1.7-.547-1.112z"/><linearGradient id="at" gradientUnits="userSpaceOnUse" x1="808.727" y1="146.377" x2="860.357" y2="146.377" gradientTransform="matrix(-.866 -.5 0 1.1547 1004.734 457.6)"><stop offset="0" stop-color="#b0a002"/><stop offset="1" stop-color="#ead77c"/></linearGradient><path fill="url(#at)" d="M259.664 196.444c.001 16.462 10.01 35.585 22.355 42.713s22.354-.438 22.355-16.9c0-16.461-10.01-35.585-22.355-42.713-12.346-7.128-22.354.439-22.355 16.9z"/><linearGradient id="au" gradientUnits="userSpaceOnUse" x1="782.63" y1="233.766" x2="810.011" y2="190.364" gradientTransform="matrix(-1 0 0 1 1080.05 0)"><stop offset="0" stop-color="#fff"/><stop offset="1" stop-color="#ead77c"/></linearGradient><path fill="url(#au)" d="M289.044 235.527c3.284 0 6.072-1.489 8.066-4.306 2.005-2.836 3.064-6.865 3.064-11.654 0-13.155-8.04-28.5-17.924-34.207-2.511-1.45-4.953-2.185-7.255-2.185-6.763 0-11.132 6.265-11.132 15.961-.001 13.155 8.041 28.5 17.925 34.206 2.512 1.45 4.953 2.185 7.256 2.185z"/><linearGradient id="av" gradientUnits="userSpaceOnUse" x1="792.915" y1="219.511" x2="803.841" y2="197.815" gradientTransform="matrix(-1 0 0 1 1080.05 0)"><stop offset="0" stop-color="#b0a002"/><stop offset="1" stop-color="#aa5300"/></linearGradient><path fill="url(#av)" d="M264.523 199.249c-.001 12.884 7.834 27.852 17.496 33.43 9.663 5.579 17.496-.343 17.496-13.227s-7.833-27.851-17.495-33.43c-9.664-5.578-17.497.343-17.497 13.227z"/><linearGradient id="aw" gradientUnits="userSpaceOnUse" x1="799.674" y1="208.189" x2="780.944" y2="221.456" gradientTransform="matrix(-1 0 0 1 1080.05 0)"><stop offset="0" stop-color="#b0a002" stop-opacity="0"/><stop offset="1" stop-color="#ead77c"/></linearGradient><path fill="url(#aw)" d="M264.523 199.249c-.001 12.884 7.834 27.852 17.496 33.43 9.663 5.579 17.496-.343 17.496-13.227s-7.833-27.851-17.495-33.43c-9.664-5.578-17.497.343-17.497 13.227z"/><g><linearGradient id="ax" gradientUnits="userSpaceOnUse" x1="796.775" y1="201.676" x2="796.073" y2="171.786" gradientTransform="matrix(-1 0 0 1 1080.05 0)"><stop offset="0" stop-color="#b0a002"/><stop offset="1" stop-color="#aa5300"/></linearGradient><path fill="url(#ax)" d="M284.203 231.415c-9.662-5.578-17.497-20.546-17.496-33.43 0-6.347 1.903-11 4.988-13.425 2.894-1.155 6.462-.767 10.325 1.463 9.662 5.579 17.495 20.546 17.495 33.43 0 6.348-1.904 11-4.988 13.425-2.894 1.154-6.462.767-10.324-1.463z"/><linearGradient id="ay" gradientUnits="userSpaceOnUse" x1="796.685" y1="209.409" x2="783.496" y2="245.075" gradientTransform="matrix(-1 0 0 1 1080.05 0)"><stop offset="0" stop-color="#b0a002" stop-opacity="0"/><stop offset="1" stop-color="#aa5300"/></linearGradient><path fill="url(#ay)" d="M284.203 231.415c-9.662-5.578-17.497-20.546-17.496-33.43 0-6.347 1.903-11 4.988-13.425 2.894-1.155 6.462-.767 10.325 1.463 9.662 5.579 17.495 20.546 17.495 33.43 0 6.348-1.904 11-4.988 13.425-2.894 1.154-6.462.767-10.324-1.463z"/></g><g opacity=".5"><linearGradient id="az" gradientUnits="userSpaceOnUse" x1="791.11" y1="240.227" x2="800.461" y2="196.269" gradientTransform="matrix(-1 0 0 1 1080.05 0)"><stop offset="0" stop-color="#b0a002"/><stop offset="1" stop-color="#ead77c"/></linearGradient><path fill="url(#az)" d="M277.378 174.017c.183-.009.368-.009.553-.01l-4.959 2.863c-.194.002-.387.014-.578.025l4.984-2.878z"/><linearGradient id="aA" gradientUnits="userSpaceOnUse" x1="786.009" y1="239.133" x2="795.358" y2="195.181" gradientTransform="matrix(-1 0 0 1 1080.05 0)"><stop offset="0" stop-color="#b0a002"/><stop offset="1" stop-color="#ead77c"/></linearGradient><path fill="url(#aA)" d="M283.322 175.001l-4.933 2.848c-.109-.04-.221-.08-.331-.117l4.93-2.846c.112.038.222.075.334.115z"/><linearGradient id="aB" gradientUnits="userSpaceOnUse" x1="782.626" y1="238.43" x2="791.977" y2="194.468" gradientTransform="matrix(-1 0 0 1 1080.05 0)"><stop offset="0" stop-color="#b0a002"/><stop offset="1" stop-color="#ead77c"/></linearGradient><path fill="url(#aB)" d="M287.202 176.868l-4.917 2.839c-.087-.052-.172-.108-.259-.159l4.917-2.839c.087.051.172.107.259.159z"/><linearGradient id="aC" gradientUnits="userSpaceOnUse" x1="779.959" y1="237.885" x2="789.314" y2="193.906" gradientTransform="matrix(-1 0 0 1 1080.05 0)"><stop offset="0" stop-color="#b0a002"/><stop offset="1" stop-color="#ead77c"/></linearGradient><path fill="url(#aC)" d="M290.44 179.106l-4.909 2.834a9.897 9.897 0 0 0-.228-.177l4.912-2.836c.076.059.151.12.225.179z"/><linearGradient id="aD" gradientUnits="userSpaceOnUse" x1="777.751" y1="237.419" x2="787.106" y2="193.437" gradientTransform="matrix(-1 0 0 1 1080.05 0)"><stop offset="0" stop-color="#b0a002"/><stop offset="1" stop-color="#ead77c"/></linearGradient><path fill="url(#aD)" d="M293.257 181.588l-4.905 2.833-.201-.192 4.905-2.833.201.192z"/><linearGradient id="aE" gradientUnits="userSpaceOnUse" x1="775.885" y1="236.994" x2="785.235" y2="193.035" gradientTransform="matrix(-1 0 0 1 1080.05 0)"><stop offset="0" stop-color="#b0a002"/><stop offset="1" stop-color="#ead77c"/></linearGradient><path fill="url(#aE)" d="M295.764 184.249l-4.9 2.83c-.06-.068-.117-.139-.178-.206l4.902-2.83c.059.066.116.138.176.206z"/><linearGradient id="aF" gradientUnits="userSpaceOnUse" x1="774.292" y1="236.67" x2="783.645" y2="192.699" gradientTransform="matrix(-1 0 0 1 1080.05 0)"><stop offset="0" stop-color="#b0a002"/><stop offset="1" stop-color="#ead77c"/></linearGradient><path fill="url(#aF)" d="M298.013 187.058l-4.897 2.828c-.054-.072-.106-.145-.161-.216l4.898-2.827.16.215z"/><linearGradient id="aG" gradientUnits="userSpaceOnUse" x1="772.932" y1="236.393" x2="782.287" y2="192.409" gradientTransform="matrix(-1 0 0 1 1080.05 0)"><stop offset="0" stop-color="#b0a002"/><stop offset="1" stop-color="#ead77c"/></linearGradient><path fill="url(#aG)" d="M300.046 189.991l-4.895 2.826c-.048-.075-.098-.149-.147-.224l4.896-2.826.146.224z"/><linearGradient id="aH" gradientUnits="userSpaceOnUse" x1="771.788" y1="236.136" x2="781.141" y2="192.166" gradientTransform="matrix(-1 0 0 1 1080.05 0)"><stop offset="0" stop-color="#b0a002"/><stop offset="1" stop-color="#ead77c"/></linearGradient><path fill="url(#aH)" d="M301.884 193.038l-4.893 2.824c-.044-.078-.09-.153-.134-.23l4.893-2.825c.044.078.09.153.134.231z"/><linearGradient id="aI" gradientUnits="userSpaceOnUse" x1="770.845" y1="235.939" x2="780.198" y2="191.965" gradientTransform="matrix(-1 0 0 1 1080.05 0)"><stop offset="0" stop-color="#b0a002"/><stop offset="1" stop-color="#ead77c"/></linearGradient><path fill="url(#aI)" d="M303.529 196.195l-4.89 2.823a17.865 17.865 0 0 0-.116-.241l4.89-2.823c.04.08.076.161.116.241z"/><linearGradient id="aJ" gradientUnits="userSpaceOnUse" x1="770.106" y1="235.759" x2="779.453" y2="191.812" gradientTransform="matrix(-1 0 0 1 1080.05 0)"><stop offset="0" stop-color="#b0a002"/><stop offset="1" stop-color="#ead77c"/></linearGradient><path fill="url(#aJ)" d="M304.991 199.459l-4.886 2.821-.103-.25 4.886-2.821c.036.083.069.167.103.25z"/><linearGradient id="aK" gradientUnits="userSpaceOnUse" x1="769.558" y1="235.656" x2="778.909" y2="191.693" gradientTransform="matrix(-1 0 0 1 1080.05 0)"><stop offset="0" stop-color="#b0a002"/><stop offset="1" stop-color="#ead77c"/></linearGradient><path fill="url(#aK)" d="M306.269 202.829l-4.884 2.819c-.03-.086-.058-.171-.089-.257l4.884-2.82.089.258z"/><linearGradient id="aL" gradientUnits="userSpaceOnUse" x1="769.22" y1="235.585" x2="778.571" y2="191.622" gradientTransform="matrix(-1 0 0 1 1080.05 0)"><stop offset="0" stop-color="#b0a002"/><stop offset="1" stop-color="#ead77c"/></linearGradient><path fill="url(#aL)" d="M302.397 208.863l4.881-2.818c.024.089.051.177.075.266l-4.881 2.817-.075-.265z"/><linearGradient id="aM" gradientUnits="userSpaceOnUse" x1="769.107" y1="235.557" x2="778.457" y2="191.603" gradientTransform="matrix(-1 0 0 1 1080.05 0)"><stop offset="0" stop-color="#b0a002"/><stop offset="1" stop-color="#ead77c"/></linearGradient><path fill="url(#aM)" d="M303.29 212.456l4.878-2.817c.021.091.042.183.061.273l-4.878 2.817c-.019-.091-.041-.182-.061-.273z"/><linearGradient id="aN" gradientUnits="userSpaceOnUse" x1="769.253" y1="235.598" x2="778.606" y2="191.628" gradientTransform="matrix(-1 0 0 1 1080.05 0)"><stop offset="0" stop-color="#b0a002"/><stop offset="1" stop-color="#ead77c"/></linearGradient><path fill="url(#aN)" d="M303.945 216.185l4.873-2.813.036.288-4.874 2.813c-.012-.097-.022-.192-.035-.288z"/><linearGradient id="aO" gradientUnits="userSpaceOnUse" x1="769.709" y1="235.687" x2="779.058" y2="191.735" gradientTransform="matrix(-1 0 0 1 1080.05 0)"><stop offset="0" stop-color="#b0a002"/><stop offset="1" stop-color="#ead77c"/></linearGradient><path fill="url(#aO)" d="M304.311 220.081l4.87-2.811c.006.099.013.199.017.298l-4.87 2.812-.017-.299z"/><linearGradient id="aP" gradientUnits="userSpaceOnUse" x1="770.555" y1="235.877" x2="779.909" y2="191.901" gradientTransform="matrix(-1 0 0 1 1080.05 0)"><stop offset="0" stop-color="#b0a002"/><stop offset="1" stop-color="#ead77c"/></linearGradient><path fill="url(#aP)" d="M304.321 224.183l4.863-2.808c-.006.107-.014.213-.021.319l-4.861 2.808.019-.319z"/><linearGradient id="aQ" gradientUnits="userSpaceOnUse" x1="771.976" y1="236.176" x2="781.328" y2="192.206" gradientTransform="matrix(-1 0 0 1 1080.05 0)"><stop offset="0" stop-color="#b0a002"/><stop offset="1" stop-color="#ead77c"/></linearGradient><path fill="url(#aQ)" d="M303.807 228.588l4.856-2.804c-.022.118-.049.233-.072.35l-4.854 2.802c.024-.116.048-.231.07-.348z"/><linearGradient id="aR" gradientUnits="userSpaceOnUse" x1="774.486" y1="236.713" x2="783.842" y2="192.728" gradientTransform="matrix(-1 0 0 1 1080.05 0)"><stop offset="0" stop-color="#b0a002"/><stop offset="1" stop-color="#ead77c"/></linearGradient><path fill="url(#aR)" d="M307.15 230.765c-.062.143-.127.281-.192.42l-4.83 2.789c.062-.135.122-.275.183-.415l4.839-2.794z"/></g><g><linearGradient id="aS" gradientUnits="userSpaceOnUse" x1="797.399" y1="201.587" x2="793.513" y2="220.033" gradientTransform="matrix(-1 0 0 1 1080.05 0)"><stop offset="0" stop-color="#b0a002"/><stop offset="1" stop-color="#aa5300"/></linearGradient><path fill="url(#aS)" d="M285.691 222.381l-1.96 1.131-1.94-3.383v-3.232l-6.806-5.461 1.959-1.132 4.847 2.799.001-2.178-4.849-2.799-1.958-2.662 1.959-1.132 3.82 2.206-7.65-13.747 1.96-1.132 4.531 2.616 4.084 11.457 2.097-5.625 1.96-1.132 4.663 2.692-5.638 8.337 3.767 2.175.002 3.794-1.96 1.132-2.889-3.931v2.178l4.848 2.799v3.794l-1.96 1.131-2.888-3.93v3.235z"/><linearGradient id="aT" gradientUnits="userSpaceOnUse" x1="798.445" y1="208.439" x2="795.114" y2="192.337" gradientTransform="matrix(-1 0 0 1 1080.05 0)"><stop offset="0" stop-color="#b0a002" stop-opacity="0"/><stop offset="1" stop-color="#ead77c"/></linearGradient><path fill="url(#aT)" d="M285.691 222.381l-1.96 1.131-1.94-3.383v-3.232l-6.806-5.461 1.959-1.132 4.847 2.799.001-2.178-4.849-2.799-1.958-2.662 1.959-1.132 3.82 2.206-7.65-13.747 1.96-1.132 4.531 2.616 4.084 11.457 2.097-5.625 1.96-1.132 4.663 2.692-5.638 8.337 3.767 2.175.002 3.794-1.96 1.132-2.889-3.931v2.178l4.848 2.799v3.794l-1.96 1.131-2.888-3.93v3.235z"/><linearGradient id="aU" gradientUnits="userSpaceOnUse" x1="792.249" y1="232.731" x2="798.151" y2="205.191" gradientTransform="matrix(-1 0 0 1 1080.05 0)"><stop offset="0" stop-color="#b0a002"/><stop offset="1" stop-color="#ead77c"/></linearGradient><path fill="url(#aU)" d="M283.731 223.513l-3.899-2.251v-3.232l-4.847-2.798v-3.795l4.847 2.799.001-2.178-4.85-2.799.002-3.793 3.819 2.206-5.69-14.878 4.531 2.616 4.084 11.457 4.057-6.756 4.664 2.692-5.64 8.337 3.769 2.175.001 3.794-4.849-2.799v2.177l4.848 2.799v3.794l-4.848-2.799v3.232z"/><linearGradient id="aV" gradientUnits="userSpaceOnUse" x1="790.424" y1="215.932" x2="790.631" y2="212.071" gradientTransform="matrix(-1 0 0 1 1080.05 0)"><stop offset="0" stop-color="#b0a002" stop-opacity="0"/><stop offset="1" stop-color="#ead77c"/></linearGradient><path fill="url(#aV)" d="M288.579 213.313l1.959-1.131.002 3.794-1.96 1.132z"/><linearGradient id="aW" gradientUnits="userSpaceOnUse" x1="790.517" y1="222.246" x2="790.475" y2="219.506" gradientTransform="matrix(-1 0 0 1 1080.05 0)"><stop offset="0" stop-color="#b0a002" stop-opacity="0"/><stop offset="1" stop-color="#ead77c"/></linearGradient><path fill="url(#aW)" d="M288.579 219.286l1.96-1.132v3.794l-1.96 1.132z"/><linearGradient id="aX" gradientUnits="userSpaceOnUse" x1="795.059" y1="214.566" x2="791.987" y2="207.634" gradientTransform="matrix(-1 0 0 1 1080.05 0)"><stop offset="0" stop-color="#b0a002"/><stop offset="1" stop-color="#aa5300"/></linearGradient><path fill="url(#aX)" d="M290.45 202.801l1.959-1.132-5.638 8.337-1.96 1.132z"/><linearGradient id="aY" gradientUnits="userSpaceOnUse" x1="797.648" y1="206.192" x2="802.546" y2="190.583" gradientTransform="matrix(-1 0 0 1 1080.05 0)"><stop offset="0" stop-color="#b0a002"/><stop offset="1" stop-color="#aa5300"/></linearGradient><path fill="url(#aY)" d="M277.646 195.408l1.959-1.132 3.607 10.12-1.483 2.469z"/></g><g><linearGradient id="aZ" gradientUnits="userSpaceOnUse" x1="706.111" y1="129.468" x2="704.941" y2="179.962" gradientTransform="matrix(-1 0 0 1 1080.05 0)"><stop offset="0" stop-color="#b0a002"/><stop offset="1" stop-color="#aa5300"/></linearGradient><path fill="url(#aZ)" d="M355.139 121.41l-.751-1.532 4.556-2.63c4.012-2.785 9.439-2.789 15.42.665 12.346 7.128 22.355 26.252 22.355 42.713-.002 8.758-2.834 14.998-7.344 17.847l.006.013-4.867 2.81-.545-1.11c-2.91.169-6.166-.673-9.605-2.658-12.346-7.128-22.355-26.251-22.356-42.713-.001-5.56 1.144-10.099 3.131-13.405z"/><linearGradient id="ba" gradientUnits="userSpaceOnUse" x1="710.553" y1="135.508" x2="700.813" y2="184.397" gradientTransform="matrix(-1 0 0 1 1080.05 0)"><stop offset="0" stop-color="#fff"/><stop offset="1" stop-color="#ead77c"/></linearGradient><path opacity=".6" fill="url(#ba)" d="M383.969 180.184c-2.91.169-6.166-.673-9.605-2.658-12.346-7.128-22.355-26.251-22.356-42.713 0-5.557 1.145-10.096 3.131-13.402l-.751-1.532 3.593-2.075a12.77 12.77 0 0 1 2.641-.275c2.908 0 5.99.928 9.16 2.759 12.484 7.208 22.641 26.591 22.641 43.208 0 7.014-1.812 12.603-4.965 16.1l-2.943 1.7-.546-1.112z"/><linearGradient id="bb" gradientUnits="userSpaceOnUse" x1="707.716" y1="51.748" x2="759.345" y2="51.748" gradientTransform="matrix(-.866 -.5 0 1.1547 1004.734 457.6)"><stop offset="0" stop-color="#b0a002"/><stop offset="1" stop-color="#ead77c"/></linearGradient><path fill="url(#bb)" d="M347.141 137.682c.001 16.462 10.009 35.585 22.355 42.713s22.355-.438 22.355-16.9c0-16.461-10.01-35.585-22.355-42.713-12.346-7.129-22.354.438-22.355 16.9z"/><linearGradient id="bc" gradientUnits="userSpaceOnUse" x1="695.151" y1="175.002" x2="722.532" y2="131.6" gradientTransform="matrix(-1 0 0 1 1080.05 0)"><stop offset="0" stop-color="#fff"/><stop offset="1" stop-color="#ead77c"/></linearGradient><path fill="url(#bc)" d="M376.521 176.764c3.283 0 6.072-1.489 8.066-4.306 2.004-2.836 3.064-6.865 3.064-11.654 0-13.155-8.041-28.5-17.924-34.207-2.512-1.45-4.953-2.185-7.256-2.185-6.762 0-11.131 6.265-11.131 15.961-.001 13.155 8.042 28.5 17.924 34.206 2.513 1.45 4.955 2.185 7.257 2.185z"/><linearGradient id="bd" gradientUnits="userSpaceOnUse" x1="705.438" y1="160.747" x2="716.363" y2="139.051" gradientTransform="matrix(-1 0 0 1 1080.05 0)"><stop offset="0" stop-color="#b0a002"/><stop offset="1" stop-color="#aa5300"/></linearGradient><path fill="url(#bd)" d="M352 140.486c-.001 12.884 7.833 27.852 17.496 33.43 9.664 5.579 17.496-.343 17.496-13.227s-7.832-27.851-17.494-33.43c-9.664-5.578-17.498.344-17.498 13.227z"/><linearGradient id="be" gradientUnits="userSpaceOnUse" x1="712.196" y1="149.425" x2="693.466" y2="162.692" gradientTransform="matrix(-1 0 0 1 1080.05 0)"><stop offset="0" stop-color="#b0a002" stop-opacity="0"/><stop offset="1" stop-color="#ead77c"/></linearGradient><path fill="url(#be)" d="M352 140.486c-.001 12.884 7.833 27.852 17.496 33.43 9.664 5.579 17.496-.343 17.496-13.227s-7.832-27.851-17.494-33.43c-9.664-5.578-17.498.344-17.498 13.227z"/><g><linearGradient id="bf" gradientUnits="userSpaceOnUse" x1="709.298" y1="142.914" x2="708.596" y2="113.023" gradientTransform="matrix(-1 0 0 1 1080.05 0)"><stop offset="0" stop-color="#b0a002"/><stop offset="1" stop-color="#aa5300"/></linearGradient><path fill="url(#bf)" d="M371.68 172.652c-9.662-5.578-17.497-20.546-17.496-33.43 0-6.347 1.904-11 4.988-13.425 2.895-1.155 6.463-.767 10.326 1.463 9.662 5.579 17.494 20.546 17.494 33.43 0 6.348-1.904 11-4.988 13.425-2.895 1.155-6.461.767-10.324-1.463z"/><linearGradient id="bg" gradientUnits="userSpaceOnUse" x1="709.208" y1="150.647" x2="696.019" y2="186.312" gradientTransform="matrix(-1 0 0 1 1080.05 0)"><stop offset="0" stop-color="#b0a002" stop-opacity="0"/><stop offset="1" stop-color="#aa5300"/></linearGradient><path fill="url(#bg)" d="M371.68 172.652c-9.662-5.578-17.497-20.546-17.496-33.43 0-6.347 1.904-11 4.988-13.425 2.895-1.155 6.463-.767 10.326 1.463 9.662 5.579 17.494 20.546 17.494 33.43 0 6.348-1.904 11-4.988 13.425-2.895 1.155-6.461.767-10.324-1.463z"/></g><g opacity=".5"><linearGradient id="bh" gradientUnits="userSpaceOnUse" x1="703.632" y1="181.464" x2="712.982" y2="137.506" gradientTransform="matrix(-1 0 0 1 1080.05 0)"><stop offset="0" stop-color="#b0a002"/><stop offset="1" stop-color="#ead77c"/></linearGradient><path fill="url(#bh)" d="M364.855 115.254c.182-.009.367-.009.553-.01l-4.959 2.863c-.195.002-.387.014-.578.025l4.984-2.878z"/><linearGradient id="bi" gradientUnits="userSpaceOnUse" x1="698.525" y1="180.402" x2="707.879" y2="136.428" gradientTransform="matrix(-1 0 0 1 1080.05 0)"><stop offset="0" stop-color="#b0a002"/><stop offset="1" stop-color="#ead77c"/></linearGradient><path fill="url(#bi)" d="M370.799 116.238l-4.932 2.848c-.109-.04-.221-.08-.332-.117l4.93-2.846c.111.038.223.075.334.115z"/><linearGradient id="bj" gradientUnits="userSpaceOnUse" x1="695.148" y1="179.667" x2="704.5" y2="135.705" gradientTransform="matrix(-1 0 0 1 1080.05 0)"><stop offset="0" stop-color="#b0a002"/><stop offset="1" stop-color="#ead77c"/></linearGradient><path fill="url(#bj)" d="M374.68 118.105l-4.918 2.839c-.086-.052-.172-.108-.258-.159l4.916-2.839c.088.052.172.108.26.159z"/><linearGradient id="bk" gradientUnits="userSpaceOnUse" x1="692.481" y1="179.122" x2="701.836" y2="135.144" gradientTransform="matrix(-1 0 0 1 1080.05 0)"><stop offset="0" stop-color="#b0a002"/><stop offset="1" stop-color="#ead77c"/></linearGradient><path fill="url(#bk)" d="M377.918 120.344l-4.91 2.834a8.072 8.072 0 0 0-.227-.177l4.912-2.836.225.179z"/><linearGradient id="bl" gradientUnits="userSpaceOnUse" x1="690.275" y1="178.657" x2="699.631" y2="134.675" gradientTransform="matrix(-1 0 0 1 1080.05 0)"><stop offset="0" stop-color="#b0a002"/><stop offset="1" stop-color="#ead77c"/></linearGradient><path fill="url(#bl)" d="M380.734 122.825l-4.906 2.833c-.066-.065-.135-.128-.201-.192l4.906-2.833.201.192z"/><linearGradient id="bm" gradientUnits="userSpaceOnUse" x1="688.404" y1="178.257" x2="697.76" y2="134.276" gradientTransform="matrix(-1 0 0 1 1080.05 0)"><stop offset="0" stop-color="#b0a002"/><stop offset="1" stop-color="#ead77c"/></linearGradient><path fill="url(#bm)" d="M383.24 125.486l-4.9 2.83c-.059-.068-.117-.139-.178-.206l4.902-2.83c.061.067.118.138.176.206z"/><linearGradient id="bn" gradientUnits="userSpaceOnUse" x1="686.818" y1="177.883" x2="696.167" y2="133.933" gradientTransform="matrix(-1 0 0 1 1080.05 0)"><stop offset="0" stop-color="#b0a002"/><stop offset="1" stop-color="#ead77c"/></linearGradient><path fill="url(#bn)" d="M385.49 128.295l-4.898 2.828c-.053-.072-.105-.145-.16-.216l4.898-2.827.16.215z"/><linearGradient id="bo" gradientUnits="userSpaceOnUse" x1="685.455" y1="177.631" x2="694.811" y2="133.648" gradientTransform="matrix(-1 0 0 1 1080.05 0)"><stop offset="0" stop-color="#b0a002"/><stop offset="1" stop-color="#ead77c"/></linearGradient><path fill="url(#bo)" d="M387.523 131.228l-4.895 2.826a28.797 28.797 0 0 0-.148-.224l4.896-2.826c.05.075.099.149.147.224z"/><linearGradient id="bp" gradientUnits="userSpaceOnUse" x1="684.311" y1="177.373" x2="693.663" y2="133.403" gradientTransform="matrix(-1 0 0 1 1080.05 0)"><stop offset="0" stop-color="#b0a002"/><stop offset="1" stop-color="#ead77c"/></linearGradient><path fill="url(#bp)" d="M389.361 134.275l-4.893 2.824-.135-.23 4.893-2.825.135.231z"/><linearGradient id="bq" gradientUnits="userSpaceOnUse" x1="683.368" y1="177.176" x2="692.722" y2="133.203" gradientTransform="matrix(-1 0 0 1 1080.05 0)"><stop offset="0" stop-color="#b0a002"/><stop offset="1" stop-color="#ead77c"/></linearGradient><path fill="url(#bq)" d="M391.006 137.433l-4.889 2.823a54.778 54.778 0 0 0-.117-.241l4.891-2.823c.039.079.076.161.115.241z"/><linearGradient id="br" gradientUnits="userSpaceOnUse" x1="682.624" y1="177.013" x2="691.977" y2="133.044" gradientTransform="matrix(-1 0 0 1 1080.05 0)"><stop offset="0" stop-color="#b0a002"/><stop offset="1" stop-color="#ead77c"/></linearGradient><path fill="url(#br)" d="M392.469 140.696l-4.887 2.821c-.035-.083-.068-.167-.102-.25l4.885-2.821.104.25z"/><linearGradient id="bs" gradientUnits="userSpaceOnUse" x1="682.081" y1="176.894" x2="691.433" y2="132.93" gradientTransform="matrix(-1 0 0 1 1080.05 0)"><stop offset="0" stop-color="#b0a002"/><stop offset="1" stop-color="#ead77c"/></linearGradient><path fill="url(#bs)" d="M393.746 144.066l-4.885 2.819c-.029-.086-.057-.171-.088-.257l4.883-2.82c.032.087.061.172.09.258z"/><linearGradient id="bt" gradientUnits="userSpaceOnUse" x1="681.742" y1="176.822" x2="691.094" y2="132.859" gradientTransform="matrix(-1 0 0 1 1080.05 0)"><stop offset="0" stop-color="#b0a002"/><stop offset="1" stop-color="#ead77c"/></linearGradient><path fill="url(#bt)" d="M389.875 150.101l4.881-2.818c.023.089.051.177.074.266l-4.881 2.817-.074-.265z"/><linearGradient id="bu" gradientUnits="userSpaceOnUse" x1="681.627" y1="176.806" x2="690.981" y2="132.83" gradientTransform="matrix(-1 0 0 1 1080.05 0)"><stop offset="0" stop-color="#b0a002"/><stop offset="1" stop-color="#ead77c"/></linearGradient><path fill="url(#bu)" d="M390.768 153.693l4.877-2.817c.021.091.043.183.061.273l-4.877 2.817c-.02-.091-.042-.182-.061-.273z"/><linearGradient id="bv" gradientUnits="userSpaceOnUse" x1="681.776" y1="176.835" x2="691.129" y2="132.865" gradientTransform="matrix(-1 0 0 1 1080.05 0)"><stop offset="0" stop-color="#b0a002"/><stop offset="1" stop-color="#ead77c"/></linearGradient><path fill="url(#bv)" d="M391.422 157.422l4.873-2.813c.014.096.023.192.037.288l-4.875 2.813c-.012-.096-.021-.191-.035-.288z"/><linearGradient id="bw" gradientUnits="userSpaceOnUse" x1="682.229" y1="176.941" x2="691.587" y2="132.946" gradientTransform="matrix(-1 0 0 1 1080.05 0)"><stop offset="0" stop-color="#b0a002"/><stop offset="1" stop-color="#ead77c"/></linearGradient><path fill="url(#bw)" d="M391.787 161.318l4.871-2.811c.006.099.012.199.016.298l-4.869 2.812c-.004-.099-.012-.199-.018-.299z"/><linearGradient id="bx" gradientUnits="userSpaceOnUse" x1="683.078" y1="177.114" x2="692.432" y2="133.138" gradientTransform="matrix(-1 0 0 1 1080.05 0)"><stop offset="0" stop-color="#b0a002"/><stop offset="1" stop-color="#ead77c"/></linearGradient><path fill="url(#bx)" d="M391.799 165.42l4.863-2.808c-.006.107-.014.213-.021.319l-4.861 2.808c.005-.106.013-.212.019-.319z"/><linearGradient id="by" gradientUnits="userSpaceOnUse" x1="684.498" y1="177.414" x2="693.851" y2="133.444" gradientTransform="matrix(-1 0 0 1 1080.05 0)"><stop offset="0" stop-color="#b0a002"/><stop offset="1" stop-color="#ead77c"/></linearGradient><path fill="url(#by)" d="M391.283 169.825l4.857-2.804c-.023.118-.049.233-.072.35l-4.854 2.802c.024-.115.048-.231.069-.348z"/><linearGradient id="bz" gradientUnits="userSpaceOnUse" x1="687.01" y1="177.95" x2="696.366" y2="133.965" gradientTransform="matrix(-1 0 0 1 1080.05 0)"><stop offset="0" stop-color="#b0a002"/><stop offset="1" stop-color="#ead77c"/></linearGradient><path fill="url(#bz)" d="M394.627 172.002c-.061.143-.127.281-.191.42l-4.83 2.789c.062-.135.121-.275.182-.415l4.839-2.794z"/></g><g><linearGradient id="bA" gradientUnits="userSpaceOnUse" x1="370.938" y1="147.909" x2="378.549" y2="161.219"><stop offset="0" stop-color="#b0a002"/><stop offset="1" stop-color="#aa5300"/></linearGradient><path fill="url(#bA)" d="M378.088 153.229c-1.01-1.893-2.635-3.89-4.871-5.993v-5.928a17.857 17.857 0 0 1 1.854 1.994 38.62 38.62 0 0 1 1.797 2.431l1.973-3.454a28.67 28.67 0 0 0-2.547-3.335c-.895-1-1.871-1.911-2.932-2.732l.002-2.355-3.062-1.768v2.277c-.924-.401-1.766-.62-2.531-.657-.766-.036-1.418.117-1.959.459-.02.013-.037.031-.059.044v-.006l-1.781 1.029-.012.009.693.327c-.029.065-.064.123-.092.191-.295.719-.441 1.629-.441 2.728v.079c0 1.152.133 2.243.396 3.271a12.995 12.995 0 0 0 1.178 2.976 16.51 16.51 0 0 0 1.973 2.827c.795.93 1.721 1.896 2.781 2.902v6.241a17.143 17.143 0 0 1-2.457-2.577 41.84 41.84 0 0 1-2.34-3.374l-1.781 1.029c0 2.632 1.551 5.125 2.738 6.452 1.186 1.329 2.416 2.463 3.693 3.409l1.281 6.762 1.781-1.029v-3.887c.941.414 1.795.632 2.561.654.092.003.176-.005.264-.008l-.086.558 1.723-.993-.006-.002c.021-.013.043-.021.064-.034.539-.343.961-.872 1.266-1.585.305-.713.457-1.62.457-2.719v-.078c-.001-2.198-.506-4.243-1.518-6.135zm-7.641-8.573c-.803-.857-1.344-1.581-1.619-2.17a4.236 4.236 0 0 1-.41-1.789v-.079c0-.628.16-1.065.484-1.31s.84-.228 1.547.048l-.002 5.3zm4.86 12.617c0 1.389-.697 1.824-2.092 1.305v-5.495c.805.857 1.355 1.588 1.65 2.189a4.34 4.34 0 0 1 .441 1.924v.077z"/><linearGradient id="bB" gradientUnits="userSpaceOnUse" x1="370.424" y1="169.97" x2="369.083" y2="144.791"><stop offset="0" stop-color="#b0a002"/><stop offset="1" stop-color="#ead77c"/></linearGradient><path fill="url(#bB)" d="M368.52 162.754c-1.277-.946-2.508-2.081-3.693-3.409a32.121 32.121 0 0 1-3.254-4.331l2.297-3.149a42.02 42.02 0 0 0 2.34 3.374 17.143 17.143 0 0 0 2.457 2.577v-6.241a38.754 38.754 0 0 1-2.781-2.902 16.55 16.55 0 0 1-1.973-2.827 12.959 12.959 0 0 1-1.178-2.976 13.11 13.11 0 0 1-.396-3.271v-.079c0-1.099.146-2.009.441-2.728.293-.72.711-1.251 1.25-1.595.541-.342 1.193-.495 1.959-.459.766.037 1.607.256 2.531.657v-2.277l3.062 1.768-.002 2.355a22.04 22.04 0 0 1 2.932 2.732c.893 1 1.74 2.111 2.547 3.335l-1.973 3.454a38.62 38.62 0 0 0-1.797-2.431 17.94 17.94 0 0 0-1.854-1.994v5.928c2.236 2.103 3.861 4.1 4.871 5.993 1.012 1.892 1.518 3.937 1.518 6.136v.078c0 1.099-.152 2.006-.457 2.719-.305.714-.727 1.242-1.266 1.585-.541.342-1.191.503-1.959.479-.766-.022-1.619-.24-2.561-.654v3.887l-3.062-1.769v-3.965zm.148-22.368c-.707-.276-1.223-.293-1.547-.048s-.484.681-.484 1.31v.079c0 .601.137 1.197.41 1.789.275.589.816 1.313 1.619 2.17l.002-5.3zm2.766 19.221c1.395.519 2.092.083 2.092-1.305v-.077a4.34 4.34 0 0 0-.441-1.924c-.295-.601-.846-1.332-1.65-2.189v5.495z"/><linearGradient id="bC" gradientUnits="userSpaceOnUse" x1="375.086" y1="144.52" x2="378.84" y2="144.52"><stop offset="0" stop-color="#b0a002"/><stop offset="1" stop-color="#aa5300"/></linearGradient><path fill="url(#bC)" d="M375.086 146.761l1.781-1.029 1.973-3.453-1.781 1.029z"/><linearGradient id="bD" gradientUnits="userSpaceOnUse" x1="368.519" y1="133.486" x2="373.363" y2="133.486"><stop offset="0" stop-color="#b0a002"/><stop offset="1" stop-color="#ead77c"/></linearGradient><path fill="url(#bD)" d="M371.582 134.885l1.781-1.029-3.062-1.768-1.781 1.029z"/><linearGradient id="bE" gradientUnits="userSpaceOnUse" x1="372.343" y1="134.314" x2="372.578" y2="136.56"><stop offset="0" stop-color="#b0a002"/><stop offset="1" stop-color="#aa5300"/></linearGradient><path fill="url(#bE)" d="M371.58 137.24l1.781-1.029.002-2.355-1.781 1.029z"/></g></g><g><linearGradient id="bF" gradientUnits="userSpaceOnUse" x1="585.299" y1="272.532" x2="584.128" y2="323.025" gradientTransform="matrix(-1 0 0 1 1029.898 0)"><stop offset="0" stop-color="#b0a002"/><stop offset="1" stop-color="#aa5300"/></linearGradient><path fill="url(#bF)" d="M425.828 264.474l-.75-1.532 4.549-2.631c4.006-2.784 9.424-2.788 15.396.665 12.328 7.128 22.322 26.251 22.322 42.713-.002 8.758-2.83 14.997-7.334 17.847l.007.012-4.858 2.81-.545-1.11c-2.905.169-6.157-.673-9.592-2.658-12.326-7.128-22.32-26.251-22.321-42.713 0-5.558 1.143-10.096 3.126-13.403z"/><linearGradient id="bG" gradientUnits="userSpaceOnUse" x1="589.736" y1="278.574" x2="579.998" y2="327.457" gradientTransform="matrix(-1 0 0 1 1029.898 0)"><stop offset="0" stop-color="#fff"/><stop offset="1" stop-color="#ead77c"/></linearGradient><path opacity=".6" fill="url(#bG)" d="M454.615 323.248c-2.905.169-6.157-.673-9.592-2.658-12.326-7.128-22.32-26.251-22.321-42.713 0-5.557 1.143-10.096 3.126-13.402l-.75-1.532 3.588-2.075a12.724 12.724 0 0 1 2.637-.275c2.903 0 5.98.928 9.146 2.759 12.466 7.208 22.606 26.591 22.606 43.208 0 7.014-1.811 12.603-4.957 16.1l-2.938 1.699-.545-1.111z"/><linearGradient id="bH" gradientUnits="userSpaceOnUse" x1="568.239" y1="115.231" x2="619.79" y2="115.231" gradientTransform="matrix(-.866 -.5 0 1.1547 954.582 457.6)"><stop offset="0" stop-color="#b0a002"/><stop offset="1" stop-color="#ead77c"/></linearGradient><path fill="url(#bH)" d="M417.844 280.746c0 16.462 9.994 35.585 22.321 42.713s22.32-.438 22.321-16.9c0-16.461-9.994-35.585-22.321-42.713-12.328-7.128-22.321.438-22.321 16.9z"/><linearGradient id="bI" gradientUnits="userSpaceOnUse" x1="574.338" y1="318.059" x2="601.709" y2="274.672" gradientTransform="matrix(-1 0 0 1 1029.898 0)"><stop offset="0" stop-color="#fff"/><stop offset="1" stop-color="#ead77c"/></linearGradient><path fill="url(#bI)" d="M447.179 319.829c3.279 0 6.063-1.489 8.054-4.307 2.002-2.835 3.061-6.865 3.061-11.654 0-13.155-8.028-28.5-17.896-34.206-2.508-1.45-4.945-2.185-7.244-2.185-6.753 0-11.115 6.265-11.115 15.961-.001 13.155 8.027 28.5 17.897 34.206 2.505 1.449 4.943 2.185 7.243 2.185z"/><linearGradient id="bJ" gradientUnits="userSpaceOnUse" x1="584.619" y1="303.81" x2="595.542" y2="282.12" gradientTransform="matrix(-1 0 0 1 1029.898 0)"><stop offset="0" stop-color="#b0a002"/><stop offset=".998" stop-color="#aa5300"/></linearGradient><path fill="url(#bJ)" d="M422.695 283.551c-.001 12.884 7.822 27.852 17.47 33.43 9.648 5.58 17.47-.343 17.47-13.227s-7.821-27.852-17.469-33.43c-9.649-5.579-17.471.343-17.471 13.227z"/><linearGradient id="bK" gradientUnits="userSpaceOnUse" x1="591.373" y1="292.491" x2="572.657" y2="305.748" gradientTransform="matrix(-1 0 0 1 1029.898 0)"><stop offset="0" stop-color="#b0a002" stop-opacity="0"/><stop offset="1" stop-color="#ead77c"/></linearGradient><path fill="url(#bK)" d="M422.695 283.551c-.001 12.884 7.822 27.852 17.47 33.43 9.648 5.58 17.47-.343 17.47-13.227s-7.821-27.852-17.469-33.43c-9.649-5.579-17.471.343-17.471 13.227z"/><g><linearGradient id="bL" gradientUnits="userSpaceOnUse" x1="588.48" y1="285.978" x2="587.777" y2="256.088" gradientTransform="matrix(-1 0 0 1 1029.898 0)"><stop offset="0" stop-color="#b0a002"/><stop offset="1" stop-color="#aa5300"/></linearGradient><path fill="url(#bL)" d="M442.346 315.716c-9.648-5.578-17.471-20.546-17.471-33.43 0-6.347 1.9-11 4.981-13.425 2.89-1.155 6.452-.767 10.31 1.463 9.647 5.578 17.469 20.546 17.469 33.43 0 6.348-1.902 11-4.98 13.425-2.891 1.155-6.454.767-10.309-1.463z"/><linearGradient id="bM" gradientUnits="userSpaceOnUse" x1="588.389" y1="293.71" x2="575.203" y2="329.368" gradientTransform="matrix(-1 0 0 1 1029.898 0)"><stop offset="0" stop-color="#b0a002" stop-opacity="0"/><stop offset="1" stop-color="#aa5300"/></linearGradient><path fill="url(#bM)" d="M442.346 315.716c-9.648-5.578-17.471-20.546-17.471-33.43 0-6.347 1.9-11 4.981-13.425 2.89-1.155 6.452-.767 10.31 1.463 9.647 5.578 17.469 20.546 17.469 33.43 0 6.348-1.902 11-4.98 13.425-2.891 1.155-6.454.767-10.309-1.463z"/></g><g opacity=".5"><linearGradient id="bN" gradientUnits="userSpaceOnUse" x1="582.788" y1="324.596" x2="592.148" y2="280.592" gradientTransform="matrix(-1 0 0 1 1029.898 0)"><stop offset="0" stop-color="#b0a002"/><stop offset="1" stop-color="#ead77c"/></linearGradient><path fill="url(#bN)" d="M435.53 258.318c.183-.01.368-.009.552-.01l-4.95 2.863c-.195.002-.388.014-.579.025l4.977-2.878z"/><linearGradient id="bO" gradientUnits="userSpaceOnUse" x1="577.689" y1="323.53" x2="587.053" y2="279.512" gradientTransform="matrix(-1 0 0 1 1029.898 0)"><stop offset="0" stop-color="#b0a002"/><stop offset="1" stop-color="#ead77c"/></linearGradient><path fill="url(#bO)" d="M441.466 259.303l-4.925 2.848c-.109-.04-.221-.08-.331-.117l4.923-2.846c.11.038.221.075.333.115z"/><linearGradient id="bP" gradientUnits="userSpaceOnUse" x1="574.32" y1="322.791" x2="583.681" y2="278.786" gradientTransform="matrix(-1 0 0 1 1029.898 0)"><stop offset="0" stop-color="#b0a002"/><stop offset="1" stop-color="#ead77c"/></linearGradient><path fill="url(#bP)" d="M445.34 261.17l-4.91 2.839c-.086-.052-.172-.108-.258-.159l4.909-2.838c.087.05.172.106.259.158z"/><linearGradient id="bQ" gradientUnits="userSpaceOnUse" x1="571.659" y1="322.244" x2="581.023" y2="278.222" gradientTransform="matrix(-1 0 0 1 1029.898 0)"><stop offset="0" stop-color="#b0a002"/><stop offset="1" stop-color="#ead77c"/></linearGradient><path fill="url(#bQ)" d="M448.572 263.408l-4.9 2.835c-.076-.06-.152-.119-.229-.177l4.905-2.836c.076.058.15.119.224.178z"/><linearGradient id="bR" gradientUnits="userSpaceOnUse" x1="569.457" y1="321.774" x2="578.822" y2="277.75" gradientTransform="matrix(-1 0 0 1 1029.898 0)"><stop offset="0" stop-color="#b0a002"/><stop offset="1" stop-color="#ead77c"/></linearGradient><path fill="url(#bR)" d="M451.385 265.89l-4.897 2.832-.2-.191 4.896-2.833.201.192z"/><linearGradient id="bS" gradientUnits="userSpaceOnUse" x1="567.6" y1="321.321" x2="576.955" y2="277.341" gradientTransform="matrix(-1 0 0 1 1029.898 0)"><stop offset="0" stop-color="#b0a002"/><stop offset="1" stop-color="#ead77c"/></linearGradient><path fill="url(#bS)" d="M453.889 268.55l-4.894 2.83c-.06-.068-.117-.139-.177-.206l4.895-2.83c.058.067.115.138.176.206z"/><linearGradient id="bT" gradientUnits="userSpaceOnUse" x1="566.006" y1="321.019" x2="575.368" y2="277.004" gradientTransform="matrix(-1 0 0 1 1029.898 0)"><stop offset="0" stop-color="#b0a002"/><stop offset="1" stop-color="#ead77c"/></linearGradient><path fill="url(#bT)" d="M456.134 271.359l-4.89 2.828c-.055-.072-.107-.145-.161-.216l4.891-2.827.16.215z"/><linearGradient id="bU" gradientUnits="userSpaceOnUse" x1="564.655" y1="320.717" x2="574.016" y2="276.712" gradientTransform="matrix(-1 0 0 1 1029.898 0)"><stop offset="0" stop-color="#b0a002"/><stop offset="1" stop-color="#ead77c"/></linearGradient><path fill="url(#bU)" d="M458.164 274.292l-4.887 2.826a28.797 28.797 0 0 0-.148-.224l4.889-2.826c.048.076.098.149.146.224z"/><linearGradient id="bV" gradientUnits="userSpaceOnUse" x1="563.513" y1="320.458" x2="572.87" y2="276.467" gradientTransform="matrix(-1 0 0 1 1029.898 0)"><stop offset="0" stop-color="#b0a002"/><stop offset="1" stop-color="#ead77c"/></linearGradient><path fill="url(#bV)" d="M459.999 277.34l-4.886 2.824c-.043-.078-.09-.153-.133-.23l4.885-2.825c.044.078.09.153.134.231z"/><linearGradient id="bW" gradientUnits="userSpaceOnUse" x1="562.569" y1="320.278" x2="571.932" y2="276.262" gradientTransform="matrix(-1 0 0 1 1029.898 0)"><stop offset="0" stop-color="#b0a002"/><stop offset="1" stop-color="#ead77c"/></linearGradient><path fill="url(#bW)" d="M461.643 280.497l-4.883 2.822-.116-.241 4.882-2.823.117.242z"/><linearGradient id="bX" gradientUnits="userSpaceOnUse" x1="561.832" y1="320.095" x2="571.189" y2="276.105" gradientTransform="matrix(-1 0 0 1 1029.898 0)"><stop offset="0" stop-color="#b0a002"/><stop offset="1" stop-color="#ead77c"/></linearGradient><path fill="url(#bX)" d="M463.102 283.761l-4.879 2.821c-.035-.083-.067-.167-.102-.25l4.879-2.821c.034.083.067.167.102.25z"/><linearGradient id="bY" gradientUnits="userSpaceOnUse" x1="561.287" y1="319.989" x2="570.648" y2="275.983" gradientTransform="matrix(-1 0 0 1 1029.898 0)"><stop offset="0" stop-color="#b0a002"/><stop offset="1" stop-color="#ead77c"/></linearGradient><path fill="url(#bY)" d="M464.377 287.131l-4.877 2.819-.088-.257 4.877-2.82.088.258z"/><linearGradient id="bZ" gradientUnits="userSpaceOnUse" x1="560.951" y1="319.914" x2="570.312" y2="275.908" gradientTransform="matrix(-1 0 0 1 1029.898 0)"><stop offset="0" stop-color="#b0a002"/><stop offset="1" stop-color="#ead77c"/></linearGradient><path fill="url(#bZ)" d="M460.512 293.165l4.873-2.818.076.265-4.874 2.818-.075-.265z"/><linearGradient id="ca" gradientUnits="userSpaceOnUse" x1="560.842" y1="319.883" x2="570.2" y2="275.886" gradientTransform="matrix(-1 0 0 1 1029.898 0)"><stop offset="0" stop-color="#b0a002"/><stop offset="1" stop-color="#ead77c"/></linearGradient><path fill="url(#ca)" d="M461.402 296.757l4.871-2.816c.02.091.042.183.061.273l-4.871 2.817c-.018-.092-.041-.182-.061-.274z"/><linearGradient id="cb" gradientUnits="userSpaceOnUse" x1="560.99" y1="319.919" x2="570.352" y2="275.907" gradientTransform="matrix(-1 0 0 1 1029.898 0)"><stop offset="0" stop-color="#b0a002"/><stop offset="1" stop-color="#ead77c"/></linearGradient><path fill="url(#cb)" d="M462.057 300.486l4.866-2.813.036.288-4.867 2.814c-.012-.097-.022-.192-.035-.289z"/><linearGradient id="cc" gradientUnits="userSpaceOnUse" x1="561.446" y1="320.006" x2="570.804" y2="276.011" gradientTransform="matrix(-1 0 0 1 1029.898 0)"><stop offset="0" stop-color="#b0a002"/><stop offset="1" stop-color="#ead77c"/></linearGradient><path fill="url(#cc)" d="M462.422 304.383l4.863-2.811c.006.099.012.199.016.298l-4.862 2.812-.017-.299z"/><linearGradient id="cd" gradientUnits="userSpaceOnUse" x1="562.294" y1="320.185" x2="571.653" y2="276.187" gradientTransform="matrix(-1 0 0 1 1029.898 0)"><stop offset="0" stop-color="#b0a002"/><stop offset="1" stop-color="#ead77c"/></linearGradient><path fill="url(#cd)" d="M462.433 308.484l4.856-2.808c-.006.107-.014.213-.021.319l-4.854 2.808.019-.319z"/><linearGradient id="ce" gradientUnits="userSpaceOnUse" x1="563.713" y1="320.486" x2="573.075" y2="276.475" gradientTransform="matrix(-1 0 0 1 1029.898 0)"><stop offset="0" stop-color="#b0a002"/><stop offset="1" stop-color="#ead77c"/></linearGradient><path fill="url(#ce)" d="M461.919 312.89l4.849-2.804c-.021.118-.049.233-.072.35l-4.846 2.802c.023-.116.047-.231.069-.348z"/><linearGradient id="cf" gradientUnits="userSpaceOnUse" x1="566.226" y1="321.017" x2="575.586" y2="277.011" gradientTransform="matrix(-1 0 0 1 1029.898 0)"><stop offset="0" stop-color="#b0a002"/><stop offset="1" stop-color="#ead77c"/></linearGradient><path fill="url(#cf)" d="M465.258 315.066c-.062.142-.127.281-.192.42l-4.823 2.788c.062-.135.123-.275.184-.414l4.831-2.794z"/></g><g><linearGradient id="cg" gradientUnits="userSpaceOnUse" x1="432.794" y1="275.584" x2="444.935" y2="296.95"><stop offset="0" stop-color="#b0a002"/><stop offset="1" stop-color="#aa5300"/></linearGradient><path fill="url(#cg)" d="M450.275 306.473l-3.235-5.048c-.646.699-1.26 1.148-1.837 1.351-.577.201-1.287.058-2.129-.428-.941-.544-1.74-1.313-2.397-2.308-.657-.994-1.18-2.194-1.571-3.598l3.867 4.087 1.601-.926v-3.965l-6.116-3.537a7.096 7.096 0 0 1-.029-.644v-.707-.687c0-.223.01-.432.029-.631l4.516 4.462 1.601-.926v-3.965l-5.44-3.144c.394-.873.898-1.431 1.515-1.676.618-.246 1.367-.112 2.249.398a6.554 6.554 0 0 1 2.176 2.061c.587.877 2.973 1.421 3.543 2.744l1.6-.926a31.777 31.777 0 0 0-1.277-2.761c-.46-.882-.98-1.711-1.559-2.49a15.6 15.6 0 0 0-1.953-2.172 13.82 13.82 0 0 0-2.439-1.783c-1.081-.625-2.076-.983-2.984-1.079-.912-.095-1.732.041-2.455.407-.039.02-.076.047-.114.068l.002-.009-1.562.906.326.084a5.92 5.92 0 0 0-.534.668c-.528.782-.942 1.727-1.235 2.838l-2.762-1.597-1.6.926 3.805 4.314a7.381 7.381 0 0 0-.031.688v1.375c.002.184.01.384.029.605l-2.203-1.274-1.6.926 4.304 4.602a28.2 28.2 0 0 0 1.22 4.376 22.476 22.476 0 0 0 1.881 3.933 18.613 18.613 0 0 0 2.514 3.279c.941.976 1.97 1.787 3.088 2.433 1.481.857 2.746 1.203 3.797 1.042l-.391.515 1.668-.96-.002-.002c.777-.401 1.487-1.014 2.124-1.845z"/><linearGradient id="ch" gradientUnits="userSpaceOnUse" x1="440.051" y1="301.523" x2="438.503" y2="279.021"><stop offset="0" stop-color="#b0a002"/><stop offset="1" stop-color="#ead77c"/></linearGradient><path fill="url(#ch)" d="M441.473 308.652a14.11 14.11 0 0 1-3.088-2.432 18.893 18.893 0 0 1-2.514-3.279 22.692 22.692 0 0 1-1.881-3.933 28.554 28.554 0 0 1-1.219-4.375l-2.703-1.564v-3.964l2.202 1.274a8.086 8.086 0 0 1-.03-.605c.002-.183.002-.379.002-.59v-.077-.708c0-.234.01-.464.029-.688l-2.203-1.275v-3.965l2.761 1.597c.294-1.112.706-2.057 1.235-2.838.529-.779 1.156-1.353 1.881-1.718.725-.367 1.543-.502 2.455-.408.91.096 1.904.455 2.984 1.08.9.52 1.714 1.115 2.439 1.782a15.488 15.488 0 0 1 1.954 2.172 18.622 18.622 0 0 1 1.558 2.49c.462.881.888 1.801 1.279 2.761l-3.41 1.481c-.569-1.322-1.146-2.422-1.734-3.299a6.552 6.552 0 0 0-2.175-2.061c-.882-.51-1.632-.644-2.249-.398s-1.121.803-1.514 1.677l5.439 3.144v3.965l-6.116-3.536c-.02.199-.028.408-.029.63l.001.688-.001.078v.628c.001.208.011.424.029.644l6.116 3.537v3.964l-5.469-3.161c.393 1.403.914 2.604 1.572 3.597.656.995 1.456 1.764 2.396 2.308.842.486 1.553.629 2.131.428.576-.203 1.189-.653 1.836-1.352l3.234 5.048c-.861 1.125-1.855 1.857-2.983 2.201-1.125.342-2.529.026-4.215-.948z"/><linearGradient id="ci" gradientUnits="userSpaceOnUse" x1="448.594" y1="308.588" x2="447.88" y2="304.541"><stop offset="0" stop-color="#b0a002"/><stop offset="1" stop-color="#ead77c"/></linearGradient><path fill="url(#ci)" d="M447.04 301.425l-1.601.926 3.235 5.048 1.601-.926z"/></g></g><g><linearGradient id="cj" gradientUnits="userSpaceOnUse" x1="-1164.346" y1="260.172" x2="-1183.205" y2="212.651" gradientTransform="translate(1536.902)"><stop offset="0" stop-color="#0070e6"/><stop offset=".999" stop-color="#eff7ff"/></linearGradient><path fill="url(#cj)" d="M396.642 293.714l-.005-66.873c0-4.478-2.744-9.729-6.112-11.667l-50.146-28.953c-1.692-.978-3.228-.932-4.337-.073l-4.319 2.482c.979.811 1.851 1.211 2.617 1.37-.024.274-.068.537-.068.836l-.003 66.871c0 4.479 2.752 9.731 6.111 11.67l49.41 28.527-.176 3.556 4.828-2.795-.023-.014c1.345-.72 2.223-2.435 2.223-4.937z"/><linearGradient id="ck" gradientUnits="userSpaceOnUse" x1="2470.657" y1="260.394" x2="2477.602" y2="213.864" gradientTransform="matrix(-1 0 0 1 2833.387 0)"><stop offset="0" stop-color="#38d611"/><stop offset="1" stop-color="#bcf0a7"/></linearGradient><path fill="url(#ck)" d="M385.534 218.062l-50.154-28.955c-3.357-1.943-6.106.131-6.1 4.617l-.006 66.866c0 4.477 2.75 9.728 6.106 11.674l50.154 28.953c3.358 1.938 6.112-.136 6.112-4.616l-.008-66.872c.001-4.479-2.745-9.728-6.104-11.667z"/><g fill="#FFF"><path d="M373.312 253.268l-6.283-8.464v.85l-.302-.857-1.299.271.369 1.068 1.232-.253v8.596l-.758-1.025v-.013l-1.273-1.72-.008.008-1.281-1.724.004-.008-1.282-1.725-.003.007-.965-1.299.506-.101-.365-1.067-.478.092.011-.739-.738-.427v.788l-.528-.714-.371.641.516.7-.963.184-.01-.029-1.285.245.01.03-1.272.244-.002-.017-1.279.249.003.012-.764.149v-8.563l1.204 1.628.346-.688-1.282-1.73-.268.528v-.849l-6.281 1.205v9.669l-.63.125.367 1.063.994-.189 5.55 7.477 6.29-1.204 6.285 8.465 5.567-1.071.994 1.349.381-.627-.659-.89z"/><path d="M380.188 242.101L361.2 216.523c-.287-.385-.635-.585-.921-.532l-18.989 3.652c-.284.056-.46.362-.46.801v29.23c0 .438.179.945.46 1.331l18.989 25.581c.139.189.299.339.46.43.161.096.32.131.461.099l18.987-3.65c.285-.057.459-.363.459-.802v-29.232c0-.438-.173-.947-.458-1.33zm-19.075 32.188l.023-1.51-.74-.431v1.554l-17.352-23.38 1.004-.185-.372-1.069-.997.192v-26.667l.169.232.375-.656-.167-.221 17.343-3.334v.29l.708.411.006-.267 17.309 23.319-.187.032.369 1.072.197-.039-.003 26.692-1.002-1.357-.369.642 1.007 1.352-17.321 3.328z"/><path d="M353.466 236.188l-1.281-1.727-.367.644 1.282 1.723zM345.786 225.833l-1.281-1.724-.375.638 1.283 1.727zM350.893 232.731l-1.279-1.728-.36.679 1.279 1.692zM358.591 243.126l-1.28-1.759-.369.644 1.277 1.718zM348.343 229.287l-1.278-1.725-.376.641 1.282 1.723zM374.875 266.153l1.275 1.734.37-.656-1.276-1.725zM364.535 246.429l-.369-1.065-1.274.246.345 1.018zM372.223 244.94l-.391-1.11-1.283.25.372 1.065zM369.639 245.395l-.368-1.068-1.283.246.368 1.065zM373.115 243.587l.369 1.068 1.274-.245-.367-1.07zM344.952 249.018l.375 1.074 1.277-.263-.369-1.052zM375.724 243.118l.319 1.042 1.334-.214-.368-1.07zM361.137 225.442l-.741-.427v1.974l.711.41zM360.399 258.545l.708.409.03-1.961-.738-.425zM361.137 221.498l-.738-.428v1.977l.708.41zM361.137 229.384l-.738-.426v1.974l.712.409zM360.396 266.43l.711.41.03-1.958-.738-.43zM360.399 270.375l.712.407.026-1.965-.741-.425zM361.137 233.328l-.738-.424v1.971l.712.41zM360.399 262.488l.708.408.03-1.958-.738-.428zM361.137 237.28l-.738-.427-.003 1.965.711.41zM361.137 241.222l-.738-.428v1.967l.708.41z"/></g></g></g><g><linearGradient id="cl" gradientUnits="userSpaceOnUse" x1="303.728" y1="530.119" x2="409.203" y2="530.119"><stop offset="0" stop-color="#fa0171"/><stop offset="1" stop-color="#95025c"/></linearGradient><path fill="url(#cl)" d="M409.186 520.204v-11.415c-.157 1.752-1.365 3.478-3.676 4.812l-40.388 23.519c-2.478 1.421-5.738 2.144-8.999 2.144-3.264 0-6.528-.723-9.005-2.144l-39.674-22.91c-2.466-1.419-3.699-3.3-3.71-5.173h-.005v12.153c0 1.888 1.236 3.778 3.716 5.21l39.674 22.91c2.477 1.419 5.741 2.139 9.005 2.139 3.261 0 6.521-.72 8.999-2.139l40.388-23.525c2.635-1.531 3.858-3.571 3.675-5.581z"/><linearGradient id="cm" gradientUnits="userSpaceOnUse" x1="360.851" y1="473.114" x2="355.369" y2="517.712"><stop offset="0" stop-color="#fa0171"/><stop offset="1" stop-color="#ff90bd"/></linearGradient><path fill="url(#cm)" d="M365.818 480.284c-4.948-2.849-13.046-2.849-17.997 0l-40.377 23.528c-4.951 2.868-4.951 7.534 0 10.397l39.674 22.91c4.955 2.858 13.056 2.858 18.004 0L405.51 513.6c4.947-2.863 4.947-7.536 0-10.393l-39.692-22.923z"/><g fill="#FFF"><path d="M354.118 496.414c-2.191 1.303-6.225 3.942-9.366 7.37-4.197 4.579-5.482 9.04-3.827 13.268 8.151 1.071 16.728.056 25.507-3.022 4.622-1.62 8.182-3.436 10.238-4.594l-5.442-9.88-17.11-3.142z"/><path d="M382.512 509.861l-7.029-12.763-22.104-4.058s-24.107 12.123-16.788 26.512c24.925 4.227 45.921-9.691 45.921-9.691zm-15.385 4.958c-9.496 3.329-18.777 4.351-27.602 3.04-4.78-10.779 10.147-20.163 14.319-22.527l18.74 3.44 5.959 10.819c-1.783 1.052-5.871 3.285-11.416 5.228z"/></g></g></svg>