<svg xmlns="http://www.w3.org/2000/svg" xmlns:xlink="http://www.w3.org/1999/xlink" viewBox="90 90 530 510"><linearGradient id="a" gradientUnits="userSpaceOnUse" x1="325.706" y1="453.008" x2="449.31" y2="453.008"><stop offset="0" stop-color="#a5c5ff"/><stop offset="1" stop-color="#77a4f9"/></linearGradient><path fill="url(#a)" d="M614.108 444.43h.093v-21.111h-54.005l-188.39-108.76c-9.613-5.545-25.334-5.545-34.949 0L148.47 423.318H94.551v21.111c-.551 4.029 1.809 8.173 7.115 11.234l235.19 135.788c9.615 5.552 25.336 5.552 34.949 0l235.19-135.788c5.305-3.06 7.666-7.204 7.113-11.233z"/><path fill="#EFF7FF" d="M371.806 277.047c-9.613-5.545-25.334-5.545-34.949 0l-235.19 135.784c-9.609 5.553-9.609 14.632 0 20.183l235.19 135.783c9.615 5.552 25.336 5.552 34.949 0l235.19-135.783c9.606-5.551 9.606-14.63 0-20.183l-235.19-135.784z"/><defs><path id="b" d="M336.854 277.047c9.613-5.545 25.334-5.545 34.949 0l235.19 135.784c9.609 5.553 9.609 14.632 0 20.183l-235.19 135.783c-9.615 5.552-25.336 5.552-34.949 0l-235.19-135.783c-9.606-5.551-9.606-14.63 0-20.183l235.19-135.784z"/></defs><clipPath id="c"><use xlink:href="#b" overflow="visible"/></clipPath><g clip-path="url(#c)"><linearGradient id="d" gradientUnits="userSpaceOnUse" x1="-448.795" y1="320.019" x2="-478.084" y2="280.862" gradientTransform="matrix(-1 0 0 1 -89.357 0)"><stop offset="0" stop-color="#a5c5ff"/><stop offset="1" stop-color="#0067dc"/></linearGradient><path fill="url(#d)" d="M344.413 314.594c0 2.686 1.809 5.2 5.094 7.081l14.23 8.149a10.049 10.049 0 0 1 2.961-.446c3.576 0 6.485 1.733 6.485 3.865 0 2.13-2.909 3.864-6.485 3.864-3.577 0-6.485-1.734-6.485-3.864 0-.658.303-1.27.791-1.812l-12.865-7.367c-4.178-2.393-6.479-5.755-6.479-9.47 0-4.194 2.997-8.315 8.222-11.307l74.808-42.84 1.368 2.389-74.808 42.839c-4.346 2.489-6.837 5.74-6.837 8.919z"/><linearGradient id="e" gradientUnits="userSpaceOnUse" x1="-274.231" y1="414.197" x2="-190.185" y2="406.238" gradientTransform="matrix(-1 0 0 1 -89.357 0)"><stop offset="0" stop-color="#a5c5ff"/><stop offset="1" stop-color="#0067dc"/></linearGradient><path fill="url(#e)" d="M103.058 393.415l48.938 28.023c8.956 5.128 23.53 5.128 32.486 0l24.361-13.951c-.707-.619-1.121-1.365-1.121-2.167 0-2.132 2.908-3.865 6.486-3.865 3.576 0 6.484 1.733 6.484 3.865 0 2.13-2.908 3.863-6.484 3.863-.82 0-1.599-.101-2.321-.266l-26.037 14.91c-4.855 2.779-11.234 4.17-17.612 4.17s-12.756-1.391-17.61-4.17l-48.938-28.023 1.368-2.389z"/><linearGradient id="f" gradientUnits="userSpaceOnUse" x1="-355.217" y1="480.978" x2="-278.174" y2="529.368" gradientTransform="matrix(-1 0 0 1 -89.357 0)"><stop offset="0" stop-color="#a5c5ff"/><stop offset="1" stop-color="#0067dc"/></linearGradient><path fill="url(#f)" d="M273.233 467.046l-89.814 51.432 1.368 2.39 91.088-52.161c18.653 11.449 44.258 18.852 72.723 19.732l38.606 22.575c4.037 2.36 6.253 5.417 6.238 8.605-.015 3.191-2.258 6.228-6.316 8.551l-28.244 16.174-53.02-30.362c.757-.632 1.214-1.398 1.214-2.233 0-2.132-2.908-3.865-6.485-3.865s-6.485 1.733-6.485 3.865c0 2.13 2.908 3.864 6.485 3.864.763 0 1.482-.093 2.161-.238l53.359 30.557-43.794 25.079 1.368 2.389 45.196-25.882.027.017.027-.048 29.558-16.926c4.946-2.833 7.682-6.715 7.7-10.927.02-4.213-2.681-8.117-7.601-10.995L354.2 488.528l.128.002c30.765 0 58.586-7.618 78.484-19.841l91.122 52.18 1.368-2.39-89.85-51.452c17.571-11.572 28.29-26.907 28.29-43.707 0-17.397-11.513-33.214-30.208-44.918l12.981-7.595c7.671-4.489 21.586-4.021 30.385 1.019l70.115 40.151c-.26.418-.422.864-.422 1.334 0 2.131 2.908 3.864 6.485 3.864 3.576 0 6.485-1.733 6.485-3.864s-2.909-3.865-6.485-3.865c-1.382 0-2.658.264-3.712.704l-71.099-40.714c-9.713-5.562-24.582-6.013-33.143-1.006l-14.265 8.347c-19.747-11.537-46.765-18.668-76.534-18.668-29.757 0-56.765 7.126-76.509 18.653l-87.682-50.211-1.368 2.389 86.362 49.456c-18.703 11.706-30.221 27.523-30.221 44.925.006 16.807 10.738 32.15 28.326 43.725zm81.097 18.729c-58.815 0-106.665-28.018-106.665-62.457s47.85-62.459 106.665-62.459c58.814 0 106.663 28.02 106.663 62.459s-47.848 62.457-106.663 62.457z"/><linearGradient id="g" gradientUnits="userSpaceOnUse" x1="-560.273" y1="384.468" x2="-607.39" y2="368.231" gradientTransform="matrix(-1 0 0 1 -89.357 0)"><stop offset="0" stop-color="#a5c5ff" stop-opacity="0"/><stop offset="1" stop-color="#0067dc"/></linearGradient><path fill="url(#g)" d="M273.233 467.046l-89.814 51.432 1.368 2.39 91.088-52.161c18.653 11.449 44.258 18.852 72.723 19.732l38.606 22.575c4.037 2.36 6.253 5.417 6.238 8.605-.015 3.191-2.258 6.228-6.316 8.551l-28.244 16.174-53.02-30.362c.757-.632 1.214-1.398 1.214-2.233 0-2.132-2.908-3.865-6.485-3.865s-6.485 1.733-6.485 3.865c0 2.13 2.908 3.864 6.485 3.864.763 0 1.482-.093 2.161-.238l53.359 30.557-43.794 25.079 1.368 2.389 45.196-25.882.027.017.027-.048 29.558-16.926c4.946-2.833 7.682-6.715 7.7-10.927.02-4.213-2.681-8.117-7.601-10.995L354.2 488.528l.128.002c30.765 0 58.586-7.618 78.484-19.841l91.122 52.18 1.368-2.39-89.85-51.452c17.571-11.572 28.29-26.907 28.29-43.707 0-17.397-11.513-33.214-30.208-44.918l12.981-7.595c7.671-4.489 21.586-4.021 30.385 1.019l70.115 40.151c-.26.418-.422.864-.422 1.334 0 2.131 2.908 3.864 6.485 3.864 3.576 0 6.485-1.733 6.485-3.864s-2.909-3.865-6.485-3.865c-1.382 0-2.658.264-3.712.704l-71.099-40.714c-9.713-5.562-24.582-6.013-33.143-1.006l-14.265 8.347c-19.747-11.537-46.765-18.668-76.534-18.668-29.757 0-56.765 7.126-76.509 18.653l-87.682-50.211-1.368 2.389 86.362 49.456c-18.703 11.706-30.221 27.523-30.221 44.925.006 16.807 10.738 32.15 28.326 43.725zm81.097 18.729c-58.815 0-106.665-28.018-106.665-62.457s47.85-62.459 106.665-62.459c58.814 0 106.663 28.02 106.663 62.459s-47.848 62.457-106.663 62.457z"/><linearGradient id="h" gradientUnits="userSpaceOnUse" x1="-319.875" y1="403.077" x2="-261.615" y2="378.881" gradientTransform="matrix(-1 0 0 1 -89.357 0)"><stop offset="0" stop-color="#a5c5ff" stop-opacity="0"/><stop offset="1" stop-color="#0067dc"/></linearGradient><path fill="url(#h)" d="M273.233 467.046l-89.814 51.432 1.368 2.39 91.088-52.161c18.653 11.449 44.258 18.852 72.723 19.732l38.606 22.575c4.037 2.36 6.253 5.417 6.238 8.605-.015 3.191-2.258 6.228-6.316 8.551l-28.244 16.174-53.02-30.362c.757-.632 1.214-1.398 1.214-2.233 0-2.132-2.908-3.865-6.485-3.865s-6.485 1.733-6.485 3.865c0 2.13 2.908 3.864 6.485 3.864.763 0 1.482-.093 2.161-.238l53.359 30.557-43.794 25.079 1.368 2.389 45.196-25.882.027.017.027-.048 29.558-16.926c4.946-2.833 7.682-6.715 7.7-10.927.02-4.213-2.681-8.117-7.601-10.995L354.2 488.528l.128.002c30.765 0 58.586-7.618 78.484-19.841l91.122 52.18 1.368-2.39-89.85-51.452c17.571-11.572 28.29-26.907 28.29-43.707 0-17.397-11.513-33.214-30.208-44.918l12.981-7.595c7.671-4.489 21.586-4.021 30.385 1.019l70.115 40.151c-.26.418-.422.864-.422 1.334 0 2.131 2.908 3.864 6.485 3.864 3.576 0 6.485-1.733 6.485-3.864s-2.909-3.865-6.485-3.865c-1.382 0-2.658.264-3.712.704l-71.099-40.714c-9.713-5.562-24.582-6.013-33.143-1.006l-14.265 8.347c-19.747-11.537-46.765-18.668-76.534-18.668-29.757 0-56.765 7.126-76.509 18.653l-87.682-50.211-1.368 2.389 86.362 49.456c-18.703 11.706-30.221 27.523-30.221 44.925.006 16.807 10.738 32.15 28.326 43.725zm81.097 18.729c-58.815 0-106.665-28.018-106.665-62.457s47.85-62.459 106.665-62.459c58.814 0 106.663 28.02 106.663 62.459s-47.848 62.457-106.663 62.457z"/><linearGradient id="i" gradientUnits="userSpaceOnUse" x1="-527.204" y1="487.541" x2="-586.101" y2="510.463" gradientTransform="matrix(-1 0 0 1 -89.357 0)"><stop offset="0" stop-color="#a5c5ff" stop-opacity="0"/><stop offset="1" stop-color="#0067dc"/></linearGradient><path fill="url(#i)" d="M273.233 467.046l-89.814 51.432 1.368 2.39 91.088-52.161c18.653 11.449 44.258 18.852 72.723 19.732l38.606 22.575c4.037 2.36 6.253 5.417 6.238 8.605-.015 3.191-2.258 6.228-6.316 8.551l-28.244 16.174-53.02-30.362c.757-.632 1.214-1.398 1.214-2.233 0-2.132-2.908-3.865-6.485-3.865s-6.485 1.733-6.485 3.865c0 2.13 2.908 3.864 6.485 3.864.763 0 1.482-.093 2.161-.238l53.359 30.557-43.794 25.079 1.368 2.389 45.196-25.882.027.017.027-.048 29.558-16.926c4.946-2.833 7.682-6.715 7.7-10.927.02-4.213-2.681-8.117-7.601-10.995L354.2 488.528l.128.002c30.765 0 58.586-7.618 78.484-19.841l91.122 52.18 1.368-2.39-89.85-51.452c17.571-11.572 28.29-26.907 28.29-43.707 0-17.397-11.513-33.214-30.208-44.918l12.981-7.595c7.671-4.489 21.586-4.021 30.385 1.019l70.115 40.151c-.26.418-.422.864-.422 1.334 0 2.131 2.908 3.864 6.485 3.864 3.576 0 6.485-1.733 6.485-3.864s-2.909-3.865-6.485-3.865c-1.382 0-2.658.264-3.712.704l-71.099-40.714c-9.713-5.562-24.582-6.013-33.143-1.006l-14.265 8.347c-19.747-11.537-46.765-18.668-76.534-18.668-29.757 0-56.765 7.126-76.509 18.653l-87.682-50.211-1.368 2.389 86.362 49.456c-18.703 11.706-30.221 27.523-30.221 44.925.006 16.807 10.738 32.15 28.326 43.725zm81.097 18.729c-58.815 0-106.665-28.018-106.665-62.457s47.85-62.459 106.665-62.459c58.814 0 106.663 28.02 106.663 62.459s-47.848 62.457-106.663 62.457z"/><linearGradient id="j" gradientUnits="userSpaceOnUse" x1="-459.748" y1="512.615" x2="-458.793" y2="553.047" gradientTransform="matrix(-1 0 0 1 -89.357 0)"><stop offset="0" stop-color="#a5c5ff" stop-opacity="0"/><stop offset="1" stop-color="#0067dc"/></linearGradient><path fill="url(#j)" d="M273.233 467.046l-89.814 51.432 1.368 2.39 91.088-52.161c18.653 11.449 44.258 18.852 72.723 19.732l38.606 22.575c4.037 2.36 6.253 5.417 6.238 8.605-.015 3.191-2.258 6.228-6.316 8.551l-28.244 16.174-53.02-30.362c.757-.632 1.214-1.398 1.214-2.233 0-2.132-2.908-3.865-6.485-3.865s-6.485 1.733-6.485 3.865c0 2.13 2.908 3.864 6.485 3.864.763 0 1.482-.093 2.161-.238l53.359 30.557-43.794 25.079 1.368 2.389 45.196-25.882.027.017.027-.048 29.558-16.926c4.946-2.833 7.682-6.715 7.7-10.927.02-4.213-2.681-8.117-7.601-10.995L354.2 488.528l.128.002c30.765 0 58.586-7.618 78.484-19.841l91.122 52.18 1.368-2.39-89.85-51.452c17.571-11.572 28.29-26.907 28.29-43.707 0-17.397-11.513-33.214-30.208-44.918l12.981-7.595c7.671-4.489 21.586-4.021 30.385 1.019l70.115 40.151c-.26.418-.422.864-.422 1.334 0 2.131 2.908 3.864 6.485 3.864 3.576 0 6.485-1.733 6.485-3.864s-2.909-3.865-6.485-3.865c-1.382 0-2.658.264-3.712.704l-71.099-40.714c-9.713-5.562-24.582-6.013-33.143-1.006l-14.265 8.347c-19.747-11.537-46.765-18.668-76.534-18.668-29.757 0-56.765 7.126-76.509 18.653l-87.682-50.211-1.368 2.389 86.362 49.456c-18.703 11.706-30.221 27.523-30.221 44.925.006 16.807 10.738 32.15 28.326 43.725zm81.097 18.729c-58.815 0-106.665-28.018-106.665-62.457s47.85-62.459 106.665-62.459c58.814 0 106.663 28.02 106.663 62.459s-47.848 62.457-106.663 62.457z"/></g><path opacity=".4" fill="#0067DC" d="M216.692 522.076l2.759 1.593v-22.652l-2.759-1.593zM329.318 564.446v22.656l-2.758-1.594v-22.654z"/><path fill="#0067DC" d="M489.239 500.997v22.672l2.726-1.593v-22.652z"/><defs><path id="k" d="M354.357 150.662c-37.797 0-68.439 14.963-68.439 33.487v218.707c0 18.572 30.643 33.56 68.439 33.56 37.744 0 68.381-14.987 68.381-33.56V184.148c0-18.523-30.636-33.486-68.381-33.486z"/></defs><path fill="none" d="M285.92 288.341h136.82v94.663H285.92z"/><linearGradient id="l" gradientUnits="userSpaceOnUse" x1="422.147" y1="388.894" x2="549.189" y2="388.894"><stop offset="0" stop-color="#a5c5ff" stop-opacity="0"/><stop offset="1" stop-color="#77a4f9"/></linearGradient><path opacity=".5" fill="url(#l)" d="M536.358 394.7l-4.23-2.442c3.781-5.776-5.171-10.672-15.693-15.67-9.638-4.606-15.265-6.932-21.752-5.946l-25.848-14.921c-1.219-.703-3.213-.703-4.432 0l-42.975 24.808c-1.219.704-1.219 1.854 0 2.559l67.52 38.981c1.219.703 3.213.703 4.432 0l42.979-24.811c1.22-.703 1.22-1.854-.001-2.558z"/><linearGradient id="m" gradientUnits="userSpaceOnUse" x1="467.026" y1="351.923" x2="468.733" y2="391.824"><stop offset="0" stop-color="#a5c5ff"/><stop offset="1" stop-color="#0067dc"/></linearGradient><path fill="url(#m)" d="M477.711 397.301v-75.606l-20.967-5.759V391.549c.002.454.301.908.896 1.252l12.397 7.157c1.196.69 3.152.69 4.349 0l2.428-1.402c.599-.345.897-.8.897-1.255z"/><linearGradient id="n" gradientUnits="userSpaceOnUse" x1="472.213" y1="392.438" x2="472.213" y2="357.036"><stop offset="0" stop-color="#a5c5ff"/><stop offset="1" stop-color="#0067dc" stop-opacity="0"/></linearGradient><path opacity=".5" fill="url(#n)" d="M470.038 319.587v80.371c1.196.69 3.152.69 4.349 0v-79.177l-4.349-1.194z"/><linearGradient id="o" gradientUnits="userSpaceOnUse" x1="465.001" y1="338.416" x2="467.823" y2="328.633"><stop offset="0" stop-color="#a5c5ff"/><stop offset="1" stop-color="#0067dc"/></linearGradient><path opacity=".7" fill="url(#o)" d="M456.744 315.936v19.382l17.119 9.883c1.041.601 2.643.684 3.848.26v-23.766l-20.967-5.759z"/><path fill="#BACBE5" d="M487.199 248.001s-2.735 26.144-13.391 32.169l7.971 6.538s12.699-10.745 13.227-24.514-7.807-14.193-7.807-14.193z"/><linearGradient id="p" gradientUnits="userSpaceOnUse" x1="482.588" y1="373.925" x2="497.599" y2="379.445"><stop offset="0" stop-color="#0070e6"/><stop offset="1" stop-color="#00152b"/></linearGradient><path fill="url(#p)" d="M505.749 374.656s.531 3.811.072 4.338c-.457.533-4.566 1.295-5.328 1.295-.764 0-.535-.682-1.602-.607-1.062.076-6.695 3.275-10.199 3.426-3.504.156-5.482-1.215-5.787-2.285-.305-1.064.84-2.205 3.121-3.424 2.285-1.215 4.873-2.361 7.463-4.264l12.26 1.521z"/><linearGradient id="q" gradientUnits="userSpaceOnUse" x1="505.062" y1="378.502" x2="488.367" y2="380.925"><stop offset="0" stop-color="#0070e6"/><stop offset="1" stop-color="#00152b"/></linearGradient><path fill="url(#q)" d="M500.493 380.365c-.764 0-.535-.684-1.602-.607-1.062.08-6.695 3.273-10.199 3.424-3.504.156-5.559-1.139-5.787-2.279-.152-.537.078-1.064.535-1.602-1.068 4.268 8.373 2.816 11.113 1.064 2.744-1.748 5.098-2.129 7.082-2.205 1.674-.074 3.35-.611 4.338-1.525.078.994.078 2.064-.152 2.359-.457.533-4.566 1.371-5.328 1.371z"/><path fill="#2D3134" d="M495.163 306.331h15.834s-.832 32.008-1.293 41.144c-.531 10.279-2.205 26.648-2.66 28.17-.537 1.527-2.059 2.135-6.018 1.684-3.957-.463-7.385-2.822-7.766-3.969-.379-1.059 1.066-2.66 1.523-5.633.607-4.037.686-15.683.072-23.757-.682-7.997-.379-32.462.307-37.482v-.157z"/><linearGradient id="r" gradientUnits="userSpaceOnUse" x1="528.842" y1="347.176" x2="502.747" y2="341.112"><stop offset="0" stop-color="#0070e6"/><stop offset="1" stop-color="#00152b"/></linearGradient><path fill="url(#r)" d="M495.163 306.331h15.834s-.832 32.008-1.293 41.144c-.531 10.279-2.205 26.648-2.66 28.17-.537 1.527-2.059 2.135-6.018 1.684-3.957-.463-7.385-2.822-7.766-3.969-.379-1.059 1.066-2.66 1.523-5.633.607-4.037.686-15.683.072-23.757-.682-7.997-.379-32.462.307-37.482v-.157z"/><linearGradient id="s" gradientUnits="userSpaceOnUse" x1="511.212" y1="390.669" x2="519.896" y2="387.707"><stop offset="0" stop-color="#0070e6"/><stop offset="1" stop-color="#00152b"/></linearGradient><path fill="url(#s)" d="M525.546 383.031s.225.764.225 1.984c0 1.215-.764 2.967-.764 2.967h-.607s-.607 4.188-4.188 5.859c-3.58 1.758-7.154.303-7.922-.758-.76-1.068.385-2.51.992-3.58.533-1.064 3.201-5.408 3.812-7.154l8.452.682z"/><linearGradient id="t" gradientUnits="userSpaceOnUse" x1="522.491" y1="385.146" x2="516.904" y2="392.348"><stop offset="0" stop-color="#0070e6"/><stop offset="1" stop-color="#00152b"/></linearGradient><path fill="url(#t)" d="M520.212 393.842c-3.58 1.758-7.154.383-7.922-.758-.375-.457-.303-1.068-.072-1.672.686 3.877 7.688 3.113 10.279-.23.988-1.295 2.742-6.623 2.893-7.613 0-.154 0-.305.08-.461h.076s.225.768.225 1.982-.764 2.969-.764 2.969h-.607c-.001 0-.608 4.111-4.188 5.783z"/><path fill="#2D3134" d="M525.239 306.487s1.445 2.967 1.75 5.556c.305 2.514-.99 20.052-1.064 24.011-.078 3.957 1.143 33.274 1.369 37.155.305 3.963.605 10.506-.152 11.119-.838.607-3.58 1.139-6.014-.152-2.439-1.295-4.951.227-5.256.152-.303-.152-1.293-14.467-2.434-24.295-.764-6.773-3.809-29.767-4.799-34.411-.99-4.647-4.34-15.248-4.416-18.527l21.016-.608z"/><linearGradient id="u" gradientUnits="userSpaceOnUse" x1="519.654" y1="394.087" x2="517.702" y2="353.271"><stop offset="0" stop-color="#0070e6"/><stop offset="1" stop-color="#00152b"/></linearGradient><path fill="url(#u)" d="M525.239 306.487s1.445 2.967 1.75 5.556c.305 2.514-.99 20.052-1.064 24.011-.078 3.957 1.143 33.274 1.369 37.155.305 3.963.605 10.506-.152 11.119-.838.607-3.58 1.139-6.014-.152-2.439-1.295-4.951.227-5.256.152-.303-.152-1.293-14.467-2.434-24.295-.764-6.773-3.809-29.767-4.799-34.411-.99-4.647-4.34-15.248-4.416-18.527l21.016-.608z"/><linearGradient id="v" gradientUnits="userSpaceOnUse" x1="506.14" y1="267.095" x2="502.22" y2="252.312"><stop offset="0" stop-color="#fff"/><stop offset="1" stop-color="#eff7ff"/></linearGradient><path fill="url(#v)" d="M495.78 242.896s15.004 3.359 19.658 5.445c2.828 1.267 5.75 3.327 7.242 11.788 1.494 8.461 5.674 28.354 3.85 49.755l-32.41-18.232s.871-5.496-.814-17.194c-.717-4.971-4.889-18.965-4.889-18.965s-6.029-17.431 7.363-12.597z"/><linearGradient id="w" gradientUnits="userSpaceOnUse" x1="507.834" y1="272.794" x2="504.438" y2="291.092"><stop offset="0" stop-color="#fff" stop-opacity="0"/><stop offset="1" stop-color="#eff7ff"/></linearGradient><path fill="url(#w)" d="M495.78 242.896s15.004 3.359 19.658 5.445c2.828 1.267 5.75 3.327 7.242 11.788 1.494 8.461 5.674 28.354 3.85 49.755l-32.41-18.232s.871-5.496-.814-17.194c-.717-4.971-4.889-18.965-4.889-18.965s-6.029-17.431 7.363-12.597z"/><path fill="#DE8882" d="M491.831 238.87s.574 1.687 2.713.318-2.932-2.314-2.713-.318z"/><path fill="#FA0171" d="M505.729 245.318s-3.463 20.495 1.662 52.985l-8.449-4.234s-8.354-35.423-2.191-46.171l8.978-2.58z"/><path fill="#C96964" d="M505.089 240.393s-1.129 2.092.641 4.925c0 0-2.463 7.491-6.469 8.801-4.008 1.31-2.51-4.237-2.51-4.237s-.59-1.599-2.436-1.999 9.27-11.567 9.27-11.567l1.504 4.077z"/><path fill="#DE8882" d="M504.452 230.288c-1.355-4.721-5.074-7.864-10.836-6.436-4.361 1.081-7.863 2.83-6.504 10.16-.004 0 1.57 14.41 7.203 13.871 6.535-.626 9.055-10.311 9.055-10.311l-.004-.002a8.867 8.867 0 0 0 1.086-7.282z"/><linearGradient id="x" gradientUnits="userSpaceOnUse" x1="358.373" y1="292.726" x2="361.061" y2="291.005" gradientTransform="rotate(-9.936 130.21 -480.733)"><stop offset="0" stop-color="#de8882"/><stop offset="1" stop-color="#c96964"/></linearGradient><path fill="url(#x)" d="M493.405 241.09s-1.074 1.176-1.998.639c-.924-.536-.578-6.164-.578-6.164s-.838-2.685-3.779-1.969c.023.141.035.271.062.416-.004 0 1.219 11.173 5.357 13.471 1.593-1.477.936-6.393.936-6.393z"/><linearGradient id="y" gradientUnits="userSpaceOnUse" x1="370.921" y1="289.065" x2="367.589" y2="277.285" gradientTransform="rotate(-9.936 130.21 -480.733)"><stop offset="0" stop-color="#0070e6"/><stop offset="1" stop-color="#00152b"/></linearGradient><path fill="url(#y)" d="M502.048 223.011c-1.578-1.159-3.668-1.928-6.414-1.922-8.846.029-9.318 8.297-9.248 9.18.221 2.286 6.629 2.995 10.943 1.264.102-.044.215-.038.326-.043.012.082.689 4.843 5.203 5.242 0 0 .01-.034.014-.041a58.33 58.33 0 0 1 2.217 3.702s.926-3.32 1.289-6.167l.004.01c2.092-11.521-3.022-11.427-4.334-11.225z"/><path fill="#00152B" d="M497.329 231.533c.102-.044.215-.038.326-.043.012.082.689 4.843 5.203 5.242 0 0 .01-.034.014-.041a58.33 58.33 0 0 1 2.217 3.702s.926-3.32 1.289-6.167c-1.436-9.267-9.049-2.693-9.049-2.693z"/><path fill="#DE8882" d="M502.288 238.54s-.543-2.083.367-3.113c.91-1.023 2.201-.445 2.367.948.168 1.389-.725 1.759-.951 2.475-.229.717-.318 1.208-.805 1.276-.488.063-.82-.321-.978-1.586z"/><path fill="#00152B" d="M487.157 234.385s1.76-.406 2.789.309c0 0 .369-.328-.367-.853-.738-.526-2.213-.398-2.529-.245-.317.153-.326.635.107.789zM492.839 234.078s.658-.855 1.85-1.033c1.191-.177 2.045.459 2.061.675s-.213.277-.805.141-1.643-.28-2.176.163c-.534.442-1.135.504-.93.054z"/><path fill="#FFF" d="M492.073 244.432c-.443-.459-.492-.675-.492-.675-.051-.217.062-.413.256-.432l1.439-.152 1.438-.151c.189-.021.338.145.326.366 0 0-.004.077-.24.56-.213.433-.594.865-1.275.963-.674.095-1.141-.153-1.452-.479z"/><linearGradient id="z" gradientUnits="userSpaceOnUse" x1="363.621" y1="270.555" x2="365.718" y2="278.152" gradientTransform="rotate(-9.936 130.21 -480.733)"><stop offset="0" stop-color="#0070e6"/><stop offset="1" stop-color="#00152b"/></linearGradient><path fill="url(#z)" d="M502.048 223.011s-2.531-3.708-9.938-2.411c-7.406 1.297-8.846 6.045-8.846 6.045s1.607 9.183 14.391 4.845l4.393-8.479z"/><linearGradient id="A" gradientUnits="userSpaceOnUse" x1="512.771" y1="269.844" x2="510.796" y2="262.393"><stop offset="0" stop-color="#fff"/><stop offset="1" stop-color="#eff7ff"/></linearGradient><path fill="url(#A)" d="M507.391 276.475c-.119.129-1.282 1.015-2.292 1.777.37 5.279.969 11.101 1.893 17.405.021-.004 5.126-1.029 10.161-5.702 5.045-4.682 6.07-26.836 6.07-26.836-.203-1.109-.387-2.113-.542-2.989-.548-3.105-1.289-5.342-2.146-7l-11.434 10.308c.001-.001-1.495 12.804-1.71 13.037z"/><path fill="#BACBE5" d="M507.391 276.475c-.119.129-1.282 1.015-2.292 1.777.37 5.279.969 11.101 1.893 17.405.021-.004 5.126-1.029 10.161-5.702 5.045-4.682 6.07-26.836 6.07-26.836-.203-1.109-.387-2.113-.542-2.989-.548-3.105-1.289-5.342-2.146-7l-11.434 10.308c.001-.001-1.495 12.804-1.71 13.037z"/><linearGradient id="B" gradientUnits="userSpaceOnUse" x1="515.053" y1="300.992" x2="514.082" y2="297.332"><stop offset="0" stop-color="#fff"/><stop offset="1" stop-color="#eff7ff"/></linearGradient><path fill="url(#B)" d="M526.812 305.704l-19.725-9.41c.1.667.197 1.331.304 2.008l-3.237-1.622-.693.226 23.069 12.977c.119-1.4.212-2.794.282-4.179z"/><path fill="#BACBE5" d="M526.812 305.704l-19.725-9.41c.1.667.197 1.331.304 2.008l-3.237-1.622-.693.226 23.069 12.977c.119-1.4.212-2.794.282-4.179z"/><linearGradient id="C" gradientUnits="userSpaceOnUse" x1="420.515" y1="313.361" x2="537.273" y2="313.361"><stop offset="0" stop-color="#a5c5ff"/><stop offset="1" stop-color="#0067dc"/></linearGradient><path fill="url(#C)" d="M537.272 319.935v-3.537l-8.369-1.023-60.068-34.676c-1.219-.704-3.213-.704-4.432 0l-38.293 22.105-5.596-.685v3.642c0 .464.305.929.914 1.281l67.52 38.981c1.219.704 3.213.704 4.432 0l42.979-24.81c.578-.333.871-.766.902-1.204l.012.001v-.075z"/><path fill="#EFF7FF" d="M536.358 317.671c1.221-.703 1.221-1.854 0-2.558l-67.523-38.979c-1.219-.704-3.213-.704-4.432 0l-42.975 24.808c-1.219.704-1.219 1.855 0 2.559l67.52 38.981c1.219.704 3.213.704 4.432 0l42.978-24.811z"/><linearGradient id="D" gradientUnits="userSpaceOnUse" x1="478.494" y1="281.818" x2="469" y2="293.029"><stop offset="0" stop-color="#a5c5ff"/><stop offset="1" stop-color="#0067dc"/></linearGradient><path fill="url(#D)" d="M470.091 278.025L450.94 289.08l22.176 12.804 19.153-11.056z"/><g><path fill="#EFF7FF" d="M475.22 273.967l-15.969 9.218 15.553 8.979 15.969-9.218z"/><linearGradient id="E" gradientUnits="userSpaceOnUse" x1="474.804" y1="288.394" x2="490.773" y2="288.394"><stop offset="0" stop-color="#a5c5ff"/><stop offset="1" stop-color="#77a4f9"/></linearGradient><path fill="url(#E)" d="M490.773 282.946l-15.969 9.218v1.68l15.969-9.219z"/><linearGradient id="F" gradientUnits="userSpaceOnUse" x1="459.251" y1="288.515" x2="474.804" y2="288.515"><stop offset="0" stop-color="#a5c5ff"/><stop offset="1" stop-color="#77a4f9"/></linearGradient><path fill="url(#F)" d="M459.251 283.186v1.68l15.553 8.978v-1.68z"/><path fill="#38D611" d="M473.836 286.709c-1.764 0-3.401-.525-4.379-1.407-.421-.377-.696-.793-.819-1.236a1.976 1.976 0 0 1-.073-.535c0-1.754 2.365-3.18 5.271-3.18s5.271 1.426 5.271 3.18c0 .176-.025.356-.074.535-.123.443-.398.859-.817 1.237-.98.881-2.616 1.406-4.38 1.406z"/><path fill="#0067DC" d="M478.586 284.158c-1.308 0-2.522-.39-3.248-1.043-.312-.28-.516-.589-.607-.918a1.55 1.55 0 0 1-.055-.397c0-1.301 1.755-2.358 3.91-2.358 2.156 0 3.91 1.057 3.91 2.358 0 .131-.019.265-.055.397-.092.329-.296.637-.607.918-.726.653-1.939 1.043-3.248 1.043z"/></g><linearGradient id="G" gradientUnits="userSpaceOnUse" x1="470.013" y1="256.558" x2="469.406" y2="273.93"><stop offset="0" stop-color="#a5c5ff"/><stop offset="1" stop-color="#0067dc"/></linearGradient><path fill="url(#G)" d="M470.091 249.834l-22.77 13.144 22.177 12.804 22.771-13.145z"/><linearGradient id="H" gradientUnits="userSpaceOnUse" x1="469.565" y1="261.534" x2="487.199" y2="261.534"><stop offset="0" stop-color="#a5c5ff"/><stop offset="1" stop-color="#77a4f9"/></linearGradient><path fill="url(#H)" d="M487.199 252.629l-17.634 13.082v4.729l17.634-10.179z"/><linearGradient id="I" gradientUnits="userSpaceOnUse" x1="452.392" y1="263.118" x2="469.565" y2="263.118"><stop offset="0" stop-color="#a5c5ff"/><stop offset="1" stop-color="#77a4f9"/></linearGradient><path fill="url(#I)" d="M452.392 255.796v4.729l17.173 9.915v-4.729z"/><linearGradient id="J" gradientUnits="userSpaceOnUse" x1="447.028" y1="276.277" x2="475.126" y2="304.785"><stop offset="0" stop-color="#a5c5ff"/><stop offset="1" stop-color="#0067dc"/></linearGradient><path fill="url(#J)" d="M447.321 262.978v36.888l22.177 12.803v-36.887z"/><g><linearGradient id="K" gradientUnits="userSpaceOnUse" x1="491.234" y1="239.133" x2="490.517" y2="244.205"><stop offset="0" stop-color="#a5c5ff"/><stop offset="1" stop-color="#77a4f9"/></linearGradient><path fill="url(#K)" d="M496.061 236.069a1.966 1.966 0 0 0-2.782-.015l-7.889 7.804 2.768 2.797 7.889-7.803a1.97 1.97 0 0 0 .014-2.783z"/><linearGradient id="L" gradientUnits="userSpaceOnUse" x1="485.997" y1="244.1" x2="481.949" y2="252.195"><stop offset="0" stop-color="#a5c5ff"/><stop offset="1" stop-color="#0067dc"/></linearGradient><path fill="url(#L)" d="M489.269 242.787a2.514 2.514 0 0 0-3.554-.018l-7.073 6.998 3.534 3.572 7.073-6.998a2.514 2.514 0 0 0 .02-3.554z"/><linearGradient id="M" gradientUnits="userSpaceOnUse" x1="486.082" y1="241.724" x2="488.951" y2="245.207"><stop offset="0" stop-color="#a5c5ff"/><stop offset="1" stop-color="#0067dc"/></linearGradient><path fill="url(#M)" d="M489.269 242.787a2.514 2.514 0 0 0-3.554-.018l-.604.597a2.512 2.512 0 1 1 3.534 3.572l.604-.596a2.515 2.515 0 0 0 .02-3.555z"/></g><linearGradient id="N" gradientUnits="userSpaceOnUse" x1="469.498" y1="287.653" x2="492.269" y2="287.653"><stop offset="0" stop-color="#a5c5ff"/><stop offset="1" stop-color="#0067dc"/></linearGradient><path fill="url(#N)" d="M492.269 264.643v-2.006l-22.771 13.145v36.887l22.771-13.144v-8.697l-19.153 11.056v-24.089z"/><g><g fill="#DE8882"><path d="M484.509 297.989c-1.213.329-1.555.156-2.459 1.03l-2.273 2.009c-.902.874-1.52 2.02-1.908 3.216l-.242.745c-.389 1.197.322 2.164 1.58 2.149l4.053-.046c1.258-.014 2.328-.962 2.887-2.064 1.418-2.803 2.836-1.406 3.947-3.969.535-1.236-.777-.668-1.475-1.715l-.127-.189c-.697-1.046-2.26-1.633-3.475-1.305l-.508.139z"/><path d="M502.724 285.47l-3.004 2.486c-2.818 2.023-8.701 6.303-9.592 6.879-.434.268-1.221.874-3.986.688-2.766-.125-3.818.055-4.746.757-.93.702-2.928 1.423-2.855 2.179.076.764.869 1.068 1.676.684.801-.379 1.664-.998 2.053-.879.174.047.07.357-.219.757l7.836 2.229c.025-.02.064-.033.08-.053 2.086-2.36 6.199-3.294 9.232-4.823 2.986-1.501 6.707-3.532 9.941-5.794l-6.416-5.11z"/></g><linearGradient id="O" gradientUnits="userSpaceOnUse" x1="670.027" y1="190.698" x2="667.434" y2="180.916" gradientTransform="rotate(14.342 276.915 -420.555)"><stop offset="0" stop-color="#fff"/><stop offset="1" stop-color="#eff7ff"/></linearGradient><path fill="url(#O)" d="M520.853 271.75c.785-3.879 1.531-7.752 1.461-13.556-.111-9.204-7.936-9.224-10.932-5.676-2.438 2.896-2.725 19.487-3.271 26.194L490.5 293.853s.032 3.939 4.274 6.091l17.401-9.641a13.9 13.9 0 0 0 .672-.352l.025-.013v-.001c1.783-.999 4.553-4.246 5.293-6.978 1.1-4.067 2.676-11.156 2.688-11.209z"/><path fill="#E2E9FF" d="M494.773 299.944l17.401-9.641a13.9 13.9 0 0 0 .672-.352l.025-.013v-.001c1.783-.999 4.553-4.246 5.293-6.978 1.1-4.067 2.676-11.156 2.688-11.208.563-2.782 1.101-5.574 1.337-9.064-.179 1.012-3.59 19.954-9.248 23.9-5.051 3.523-17.871 9.354-21.152 10.826.633.901 1.572 1.815 2.984 2.531z"/></g><g><linearGradient id="P" gradientUnits="userSpaceOnUse" x1="483.888" y1="238.342" x2="483.17" y2="243.414"><stop offset="0" stop-color="#a5c5ff"/><stop offset="1" stop-color="#77a4f9"/></linearGradient><path fill="url(#P)" d="M488.714 235.278a1.966 1.966 0 0 0-2.782-.015l-7.889 7.804 2.768 2.797 7.889-7.803a1.969 1.969 0 0 0 .014-2.783z"/><linearGradient id="Q" gradientUnits="userSpaceOnUse" x1="478.652" y1="243.309" x2="474.604" y2="251.404"><stop offset="0" stop-color="#a5c5ff"/><stop offset="1" stop-color="#0067dc"/></linearGradient><path fill="url(#Q)" d="M481.922 241.996a2.514 2.514 0 0 0-3.554-.018l-7.073 6.998 3.534 3.572 7.073-6.998a2.513 2.513 0 0 0 .02-3.554z"/><linearGradient id="R" gradientUnits="userSpaceOnUse" x1="478.735" y1="240.932" x2="481.604" y2="244.416"><stop offset="0" stop-color="#a5c5ff"/><stop offset="1" stop-color="#0067dc"/></linearGradient><path fill="url(#R)" d="M481.922 241.996a2.514 2.514 0 0 0-3.554-.018l-.604.597a2.512 2.512 0 1 1 3.534 3.572l.604-.596a2.514 2.514 0 0 0 .02-3.555z"/></g><path fill="#EFF7FF" d="M470.024 242.714l-17.632 13.082 17.173 9.915 17.634-13.082z"/><path fill="#FFF" d="M447.321 262.978v.422l21.824 12.6v36.465l.353.204v-36.887zM469.305 265.561l.26.15v4.729l-.26-.15z"/><g><path fill="#7285A7" d="M435.979 411.019c-7.53-22.586-41.216-39.62-81.649-39.62-40.432 0-74.118 17.034-81.648 39.62h-1.584v9.557c0 27.16 37.265 49.176 83.232 49.176 45.97 0 83.232-22.016 83.232-49.176v-9.557h-1.583z"/><path fill="#304A6C" d="M397.525 378.545h-27.543v90.326c32.147-3.615 57.725-18.147 65.28-36.826v-22.951c-5.226-12.91-19.072-23.835-37.737-30.549z"/><path fill="#BACBE5" d="M437.562 411.019c0 27.16-37.263 49.176-83.232 49.176-45.968 0-83.232-22.016-83.232-49.176 0-27.162 37.265-49.178 83.232-49.178 45.97 0 83.232 22.015 83.232 49.178z"/><path fill="#96A7C5" d="M437.562 411.019c0-23.211-27.218-42.649-63.817-47.818l7.015 76.4s8.643 14.171-10.777 19.714c38.483-4.329 67.579-24.298 67.579-48.296z"/><path fill="#FFF" d="M426.613 401.084c0 23.588-32.361 42.706-72.283 42.706-39.921 0-72.283-19.118-72.283-42.706 0-23.59 32.362-42.708 72.283-42.708 39.922 0 72.283 19.118 72.283 42.708z"/><linearGradient id="S" gradientUnits="userSpaceOnUse" x1="354.331" y1="343.133" x2="354.331" y2="422.697"><stop offset="0" stop-color="#0070e6"/><stop offset="1" stop-color="#00152b"/></linearGradient><path fill="url(#S)" d="M354.33 360.665c-37.781 0-68.409 18.093-68.409 40.419 0 2.245.323 4.445.92 6.592 5.329 19.187 33.509 33.825 67.489 33.825 33.981 0 62.16-14.639 67.489-33.825.597-2.146.921-4.347.921-6.592 0-22.326-30.628-40.419-68.41-40.419z"/><defs><path id="T" d="M354.33 113.044c-37.781 0-68.409 18.093-68.409 40.418v247.622c0 2.245.323 4.445.92 6.592 5.329 19.187 33.509 33.825 67.489 33.825 33.981 0 62.16-14.639 67.489-33.825.597-2.146.921-4.347.921-6.592V153.462c0-22.325-30.628-40.418-68.41-40.418z"/></defs><clipPath id="U"><use xlink:href="#T" overflow="visible"/></clipPath><g clip-path="url(#U)"><path fill="#38D611" d="M327.622 406.399c0 5.866-4.756 10.62-10.619 10.62-5.864 0-10.617-4.754-10.617-10.62 0-5.864 4.753-10.614 10.617-10.614 5.863 0 10.619 4.75 10.619 10.614z"/><path fill="#009C00" d="M319.004 412.765c-6.278 0-11.368-5.083-11.37-11.362a10.573 10.573 0 0 0-1.248 4.997c0 5.866 4.753 10.62 10.617 10.62 4.881 0 8.982-3.298 10.224-7.784a11.33 11.33 0 0 1-8.223 3.529z"/><path fill="#97E87B" d="M323.373 399.764c1.451 1.436 1.898 3.336.997 4.24-.894.904-2.798.478-4.246-.959-1.448-1.438-1.895-3.334-.997-4.238.897-.908 2.8-.479 4.246.957z"/><path fill="#F7F7F7" d="M323.043 403.46c-1.178 0-2.135 1.317-2.135 2.943s.957 2.94 2.135 2.94h52.76v-5.884h-52.76z"/><path fill="#ABABAB" d="M321.002 407.223c.262 1.222 1.071 2.121 2.041 2.121h52.76v-2.121h-54.801z"/><path fill="#FFF" d="M323.043 403.46c-.648 0-1.221.408-1.613 1.034h54.373v-1.034h-52.76z"/><circle fill="#0070E6" cx="385.15" cy="406.399" r="10.617"/><path fill="#003EAC" d="M387.154 412.765c-6.28 0-11.37-5.083-11.37-11.362a10.576 10.576 0 0 0-1.251 4.997c0 5.866 4.755 10.62 10.618 10.62 4.88 0 8.981-3.298 10.224-7.784a11.334 11.334 0 0 1-8.221 3.529z"/><ellipse transform="rotate(-45.283 389.888 401.398)" fill="#77A4F9" cx="389.897" cy="401.404" rx="2.309" ry="3.693"/><circle fill="#38D611" cx="317.004" cy="237.36" r="10.618"/><path fill="#009C00" d="M319.004 243.727c-6.278 0-11.368-5.087-11.37-11.364a10.565 10.565 0 0 0-1.248 4.997c0 5.865 4.753 10.619 10.617 10.619 4.881 0 8.982-3.298 10.224-7.785a11.322 11.322 0 0 1-8.223 3.533z"/><path fill="#97E87B" d="M323.373 230.722c1.451 1.438 1.898 3.335.997 4.242-.894.904-2.798.476-4.246-.96s-1.895-3.332-.997-4.239c.897-.907 2.8-.476 4.246.957z"/><path fill="#F7F7F7" d="M323.043 234.42c-1.178 0-2.135 1.316-2.135 2.941 0 1.622.957 2.937 2.135 2.937h52.76v-5.877h-52.76z"/><path fill="#ABABAB" d="M321.002 238.183c.262 1.218 1.071 2.115 2.041 2.115h52.76v-2.115h-54.801z"/><path fill="#FFF" d="M323.043 234.42c-.648 0-1.221.408-1.613 1.034h54.373v-1.034h-52.76z"/><g><circle fill="#0070E6" cx="385.15" cy="237.36" r="10.617"/><path fill="#003EAC" d="M387.154 243.727c-6.28 0-11.37-5.087-11.37-11.364a10.567 10.567 0 0 0-1.251 4.997c0 5.865 4.755 10.619 10.618 10.619 4.88 0 8.981-3.298 10.224-7.785a11.326 11.326 0 0 1-8.221 3.533z"/><ellipse transform="rotate(-45.283 389.932 232.366)" fill="#77A4F9" cx="389.897" cy="232.363" rx="2.309" ry="3.694"/></g><g><path fill="#38D611" d="M392.257 358.184c0 5.867-4.754 10.617-10.616 10.617-5.867 0-10.621-4.75-10.621-10.617 0-5.862 4.754-10.619 10.621-10.619 5.862 0 10.616 4.756 10.616 10.619z"/><path fill="#009C00" d="M383.638 364.553c-6.274 0-11.366-5.089-11.366-11.365a10.564 10.564 0 0 0-1.252 4.996c0 5.867 4.754 10.617 10.621 10.617 4.88 0 8.983-3.293 10.223-7.782-2.073 2.172-4.986 3.534-8.226 3.534z"/><ellipse transform="rotate(-45.259 386.407 353.195)" fill="#97E87B" cx="386.386" cy="353.188" rx="2.31" ry="3.691"/><g><path fill="#F7F7F7" d="M375.598 355.246c1.18 0 2.136 1.316 2.136 2.938 0 1.624-.956 2.939-2.136 2.939h-45.736v-5.877h45.736z"/><path fill="#ABABAB" d="M377.637 359.008c-.26 1.22-1.07 2.115-2.039 2.115h-45.737v-2.115h47.776z"/><path fill="#FFF" d="M375.598 355.246c.648 0 1.222.405 1.617 1.034h-47.354v-1.034h45.737z"/></g><g><path fill="#0070E6" d="M331.133 358.184c0 5.867-4.754 10.617-10.618 10.617-5.865 0-10.617-4.75-10.617-10.617 0-5.862 4.752-10.619 10.617-10.619 5.864 0 10.618 4.756 10.618 10.619z"/><path fill="#003EAC" d="M322.514 364.553c-6.278 0-11.366-5.089-11.368-11.365a10.56 10.56 0 0 0-1.248 4.996c0 5.867 4.752 10.617 10.617 10.617 4.882 0 8.983-3.293 10.225-7.782a11.342 11.342 0 0 1-8.226 3.534z"/><ellipse transform="rotate(-45.296 325.281 353.211)" fill="#77A4F9" cx="325.261" cy="353.188" rx="2.309" ry="3.692"/></g></g><g><circle fill="#38D611" cx="381.638" cy="288.765" r="10.619"/><path fill="#009C00" d="M383.638 295.133c-6.274 0-11.366-5.088-11.366-11.364a10.549 10.549 0 0 0-1.252 4.996c0 5.865 4.754 10.618 10.621 10.618 4.88 0 8.983-3.297 10.223-7.784a11.331 11.331 0 0 1-8.226 3.534z"/><ellipse transform="rotate(-45.243 386.397 283.77)" fill="#97E87B" cx="386.386" cy="283.768" rx="2.309" ry="3.691"/><g><path fill="#F7F7F7" d="M375.598 285.824c1.18 0 2.136 1.317 2.136 2.941 0 1.624-.956 2.939-2.136 2.939h-45.736v-5.88h45.736z"/><path fill="#ABABAB" d="M377.637 289.586c-.26 1.222-1.07 2.118-2.039 2.118h-45.737v-2.118h47.776z"/><path fill="#FFF" d="M375.598 285.824c.648 0 1.222.407 1.617 1.037h-47.354v-1.037h45.737z"/></g><g><circle fill="#0070E6" cx="320.515" cy="288.765" r="10.618"/><path fill="#003EAC" d="M322.514 295.133c-6.278 0-11.366-5.088-11.368-11.364a10.546 10.546 0 0 0-1.248 4.996c0 5.865 4.752 10.618 10.617 10.618 4.882 0 8.983-3.297 10.225-7.784a11.338 11.338 0 0 1-8.226 3.534z"/><ellipse transform="rotate(-45.275 325.29 283.776)" fill="#77A4F9" cx="325.261" cy="283.768" rx="2.308" ry="3.692"/></g></g><g><path fill="#38D611" d="M407.424 336.948c0 5.866-4.756 10.617-10.617 10.617-5.865 0-10.621-4.751-10.621-10.617 0-5.862 4.756-10.618 10.621-10.618 5.861 0 10.617 4.756 10.617 10.618z"/><path fill="#009C00" d="M398.805 343.317c-6.277 0-11.367-5.089-11.371-11.365a10.587 10.587 0 0 0-1.248 4.996c0 5.866 4.756 10.617 10.621 10.617 4.877 0 8.979-3.296 10.223-7.781-2.074 2.172-4.987 3.533-8.225 3.533z"/><path fill="#97E87B" d="M403.176 330.311c1.449 1.436 1.896 3.335.996 4.242-.897.903-2.795.475-4.246-.961-1.448-1.436-1.895-3.333-1-4.239.902-.906 2.799-.475 4.25.958z"/><g><path fill="#F7F7F7" d="M390.762 334.007c1.181 0 2.137 1.317 2.137 2.941 0 1.625-.956 2.939-2.137 2.939h-76.063v-5.88h76.063z"/><path fill="#ABABAB" d="M392.805 337.771c-.261 1.218-1.072 2.116-2.043 2.116h-76.064v-2.116h78.107z"/><path fill="#FFF" d="M390.762 334.007c.648 0 1.225.408 1.616 1.036h-77.68v-1.036h76.064z"/></g><g><circle fill="#0070E6" cx="305.35" cy="336.948" r="10.618"/><path fill="#003EAC" d="M307.349 343.317c-6.278 0-11.364-5.089-11.366-11.365a10.53 10.53 0 0 0-1.25 4.996c0 5.866 4.752 10.617 10.615 10.617 4.886 0 8.984-3.296 10.225-7.781a11.328 11.328 0 0 1-8.224 3.533z"/><path fill="#77A4F9" d="M311.72 330.311c1.448 1.436 1.896 3.335.997 4.242-.893.903-2.796.475-4.244-.961-1.449-1.436-1.896-3.333-.999-4.239s2.799-.475 4.246.958z"/></g></g><g><circle fill="#38D611" cx="301.332" cy="189.183" r="10.618"/><path fill="#009C00" d="M303.334 195.55c-6.278 0-11.367-5.088-11.37-11.365a10.575 10.575 0 0 0-1.25 4.997c0 5.865 4.754 10.618 10.618 10.618 4.883 0 8.982-3.298 10.226-7.784-2.075 2.173-4.988 3.534-8.224 3.534z"/><path fill="#97E87B" d="M307.703 182.543c1.448 1.438 1.895 3.337.999 4.243-.898.903-2.8.476-4.247-.96-1.448-1.437-1.896-3.333-1-4.239.899-.907 2.799-.477 4.248.956z"/></g><g><path fill="#F7F7F7" d="M307.372 186.243c-1.178 0-2.135 1.316-2.135 2.941 0 1.623.957 2.938 2.135 2.938h86.292v-5.879h-86.292z"/><path fill="#ABABAB" d="M305.333 190.005c.259 1.219 1.069 2.117 2.039 2.117h86.292v-2.117h-88.331z"/><path fill="#FFF" d="M307.372 186.243c-.646 0-1.223.407-1.614 1.035h87.906v-1.035h-86.292z"/></g><g><circle fill="#0070E6" cx="403.013" cy="189.183" r="10.618"/><path fill="#003EAC" d="M405.012 195.55c-6.277 0-11.367-5.088-11.367-11.365a10.551 10.551 0 0 0-1.25 4.997c0 5.865 4.754 10.618 10.616 10.618 4.882 0 8.984-3.298 10.228-7.784-2.075 2.173-4.988 3.534-8.227 3.534z"/><path fill="#77A4F9" d="M409.383 182.543c1.449 1.438 1.896 3.337.996 4.243-.895.903-2.795.476-4.247-.96-1.446-1.437-1.893-3.333-.997-4.239.9-.907 2.798-.477 4.248.956z"/></g><g><circle fill="#38D611" cx="393.037" cy="312.162" r="10.617"/><path fill="#009C00" d="M395.038 318.53c-6.278 0-11.366-5.09-11.368-11.366a10.558 10.558 0 0 0-1.25 4.998c0 5.864 4.754 10.617 10.617 10.617 4.883 0 8.984-3.297 10.223-7.783a11.328 11.328 0 0 1-8.222 3.534z"/><path fill="#97E87B" d="M399.411 305.523c1.446 1.437 1.895 3.336.995 4.243-.899.904-2.799.476-4.246-.96-1.451-1.436-1.895-3.333-.999-4.24.898-.907 2.8-.477 4.25.957z"/><g><path fill="#F7F7F7" d="M386.997 309.222c1.178 0 2.135 1.316 2.135 2.94 0 1.624-.957 2.939-2.135 2.939h-68.535v-5.879h68.535z"/><path fill="#ABABAB" d="M389.036 312.984c-.26 1.219-1.067 2.117-2.039 2.117h-68.536v-2.117h70.575z"/><path fill="#FFF" d="M386.997 309.222c.646 0 1.223.408 1.613 1.036h-70.148v-1.036h68.535z"/></g><g><circle fill="#0070E6" cx="309.115" cy="312.162" r="10.62"/><path fill="#003EAC" d="M311.116 318.53c-6.276 0-11.368-5.09-11.368-11.366a10.572 10.572 0 0 0-1.253 4.998c0 5.864 4.757 10.617 10.62 10.617 4.882 0 8.982-3.297 10.224-7.783-2.072 2.171-4.984 3.534-8.223 3.534z"/><path fill="#77A4F9" d="M315.487 305.523c1.447 1.437 1.894 3.336.999 4.243-.899.904-2.8.476-4.248-.96-1.452-1.436-1.896-3.333-1.001-4.24.898-.907 2.798-.477 4.25.957z"/></g></g><g><path fill="#38D611" d="M346.636 388.629c0 5.864-4.754 10.614-10.621 10.614-5.862 0-10.616-4.75-10.616-10.614 0-5.867 4.754-10.62 10.616-10.62 5.867 0 10.621 4.753 10.621 10.62z"/><path fill="#009C00" d="M338.02 394.994c-6.278 0-11.37-5.088-11.37-11.366a10.58 10.58 0 0 0-1.251 5.001c0 5.864 4.754 10.614 10.616 10.614 4.885 0 8.986-3.298 10.226-7.78a11.33 11.33 0 0 1-8.221 3.531z"/><ellipse transform="rotate(-45.283 340.756 383.623)" fill="#97E87B" cx="340.764" cy="383.628" rx="2.308" ry="3.693"/><path fill="#F7F7F7" d="M342.478 385.688c-1.18 0-2.135 1.318-2.135 2.941 0 1.622.955 2.938 2.135 2.938h17.197v-5.879h-17.197z"/><path fill="#ABABAB" d="M340.437 389.451c.26 1.217 1.069 2.115 2.041 2.115h17.198v-2.115h-19.239z"/><path fill="#FFF" d="M342.478 385.688c-.65 0-1.225.406-1.614 1.034h18.812v-1.034h-17.198z"/><g><path fill="#0070E6" d="M376.752 388.629c0 5.864-4.754 10.614-10.618 10.614-5.861 0-10.618-4.75-10.618-10.614 0-5.867 4.757-10.62 10.618-10.62 5.864 0 10.618 4.753 10.618 10.62z"/><path fill="#003EAC" d="M368.137 394.994c-6.276 0-11.366-5.088-11.368-11.366a10.581 10.581 0 0 0-1.253 5.001c0 5.864 4.757 10.614 10.618 10.614 4.882 0 8.983-3.298 10.224-7.78a11.332 11.332 0 0 1-8.221 3.531z"/><path fill="#77A4F9" d="M372.506 381.988c1.452 1.438 1.896 3.335.999 4.241-.899.903-2.8.476-4.248-.961-1.45-1.436-1.896-3.332-1.001-4.236.899-.907 2.8-.476 4.25.956z"/></g><g><path fill="#38D611" d="M370.293 373.012c0 5.865-4.754 10.619-10.615 10.619-5.868 0-10.62-4.754-10.62-10.619 0-5.863 4.752-10.617 10.62-10.617 5.861 0 10.615 4.753 10.615 10.617z"/><path fill="#009C00" d="M361.678 379.381c-6.278 0-11.368-5.088-11.368-11.365a10.587 10.587 0 0 0-1.252 4.996c0 5.865 4.752 10.619 10.62 10.619 4.881 0 8.98-3.299 10.224-7.782a11.338 11.338 0 0 1-8.224 3.532z"/><path fill="#97E87B" d="M366.047 366.374c1.447 1.438 1.895 3.335.997 4.242-.894.903-2.798.477-4.246-.961-1.448-1.437-1.896-3.331-.999-4.237.899-.906 2.8-.477 4.248.956z"/></g><g><circle fill="#0070E6" cx="341.554" cy="373.012" r="10.618"/><path fill="#003EAC" d="M343.554 379.381c-6.276 0-11.366-5.088-11.366-11.365a10.552 10.552 0 0 0-1.252 4.996c0 5.865 4.753 10.619 10.617 10.619 4.882 0 8.982-3.299 10.224-7.782-2.073 2.171-4.984 3.532-8.223 3.532z"/><path fill="#77A4F9" d="M347.924 366.374c1.448 1.438 1.895 3.335.996 4.242-.894.903-2.796.477-4.244-.961-1.448-1.437-1.896-3.331-.999-4.237.899-.906 2.798-.477 4.247.956z"/></g></g><g><path fill="#0070E6" d="M355.516 256.048c0 5.864 4.757 10.617 10.618 10.617 5.864 0 10.618-4.752 10.618-10.617s-4.754-10.619-10.618-10.619c-5.862 0-10.618 4.755-10.618 10.619z"/><path fill="#003EAC" d="M364.137 262.416c6.272 0 11.367-5.088 11.367-11.366a10.557 10.557 0 0 1 1.248 4.998c0 5.864-4.754 10.617-10.618 10.617-4.879 0-8.98-3.297-10.224-7.783a11.324 11.324 0 0 0 8.227 3.534z"/><path fill="#77A4F9" d="M359.766 249.409c-1.455 1.436-1.896 3.336-1.001 4.241.897.903 2.8.477 4.246-.96 1.454-1.436 1.898-3.333 1.001-4.238-.901-.907-2.798-.475-4.246.957z"/><path fill="#F7F7F7" d="M359.675 253.108c1.179 0 2.137 1.315 2.137 2.941 0 1.621-.958 2.936-2.137 2.936h-17.197v-5.877h17.197z"/><path fill="#ABABAB" d="M361.716 256.87c-.261 1.221-1.073 2.116-2.041 2.116h-17.198v-2.116h19.239z"/><path fill="#FFF" d="M359.675 253.108c.646 0 1.223.407 1.614 1.034h-18.812v-1.034h17.198z"/><g><circle fill="#0070E6" cx="341.554" cy="271.662" r="10.618"/><path fill="#003EAC" d="M343.554 278.029c-6.276 0-11.366-5.088-11.366-11.365a10.545 10.545 0 0 0-1.252 4.998c0 5.864 4.753 10.618 10.617 10.618 4.882 0 8.982-3.299 10.224-7.784-2.073 2.171-4.984 3.533-8.223 3.533z"/><path fill="#77A4F9" d="M347.924 265.022c1.448 1.438 1.895 3.336.996 4.242-.894.905-2.796.477-4.244-.958-1.448-1.438-1.896-3.334-.999-4.24.899-.908 2.798-.477 4.247.956z"/></g><g><path fill="#38D611" d="M370.293 271.662c0 5.864-4.754 10.618-10.615 10.618-5.868 0-10.62-4.754-10.62-10.618 0-5.864 4.752-10.619 10.62-10.619 5.861 0 10.615 4.755 10.615 10.619z"/><path fill="#009C00" d="M361.678 278.029c-6.278 0-11.368-5.088-11.368-11.365a10.58 10.58 0 0 0-1.252 4.998c0 5.864 4.752 10.618 10.62 10.618 4.881 0 8.98-3.299 10.224-7.784a11.339 11.339 0 0 1-8.224 3.533z"/><path fill="#97E87B" d="M366.047 265.022c1.447 1.438 1.895 3.336.997 4.242-.894.905-2.798.477-4.246-.958-1.448-1.438-1.896-3.334-.999-4.24.899-.908 2.8-.477 4.248.956z"/></g><g><path fill="#38D611" d="M325.398 256.048c0 5.864 4.754 10.617 10.616 10.617 5.867 0 10.621-4.752 10.621-10.617s-4.754-10.619-10.621-10.619c-5.862 0-10.616 4.755-10.616 10.619z"/><path fill="#009C00" d="M334.02 262.416c6.272 0 11.364-5.088 11.364-11.366a10.583 10.583 0 0 1 1.252 4.998c0 5.864-4.754 10.617-10.621 10.617-4.878 0-8.98-3.297-10.221-7.783a11.315 11.315 0 0 0 8.226 3.534z"/><path fill="#97E87B" d="M329.645 249.409c-1.448 1.436-1.895 3.336-.995 4.241.894.903 2.796.477 4.246-.96 1.45-1.436 1.896-3.333.997-4.238-.898-.907-2.796-.475-4.248.957z"/></g></g><g><path fill="#38D611" d="M319.239 431.759c0 5.866-4.756 10.616-10.617 10.616-5.864 0-10.62-4.75-10.62-10.616 0-5.863 4.756-10.617 10.62-10.617 5.861 0 10.617 4.754 10.617 10.617z"/><path fill="#009C00" d="M310.622 438.127c-6.277 0-11.367-5.09-11.37-11.364a10.577 10.577 0 0 0-1.25 4.996c0 5.866 4.756 10.616 10.62 10.616 4.881 0 8.98-3.294 10.224-7.777-2.075 2.164-4.986 3.529-8.224 3.529z"/><path fill="#97E87B" d="M314.991 425.119c1.452 1.438 1.896 3.334.998 4.244-.896.903-2.798.474-4.248-.961-1.448-1.434-1.895-3.334-.997-4.236.899-.907 2.798-.48 4.247.953z"/><g><path fill="#F7F7F7" d="M314.662 428.822c-1.18 0-2.135 1.314-2.135 2.937 0 1.626.955 2.94 2.135 2.94h69.521v-5.877h-69.521z"/><path fill="#ABABAB" d="M312.621 432.582c.259 1.218 1.071 2.117 2.041 2.117H384.184v-2.117h-71.563z"/><path fill="#FFF" d="M314.662 428.822c-.646 0-1.223.404-1.614 1.033h71.136v-1.033h-69.522z"/></g><g><path fill="#0070E6" d="M404.148 431.759c0 5.866-4.752 10.616-10.618 10.616-5.863 0-10.615-4.75-10.615-10.616 0-5.863 4.752-10.617 10.615-10.617 5.866 0 10.618 4.754 10.618 10.617z"/><path fill="#003EAC" d="M395.535 438.127c-6.278 0-11.368-5.09-11.372-11.364a10.599 10.599 0 0 0-1.248 4.996c0 5.866 4.752 10.616 10.615 10.616 4.884 0 8.983-3.294 10.225-7.777-2.071 2.164-4.985 3.529-8.22 3.529z"/><path fill="#77A4F9" d="M399.902 425.119c1.451 1.438 1.896 3.334.999 4.244-.897.903-2.8.474-4.247-.961-1.447-1.434-1.896-3.334-1-4.236.9-.907 2.801-.48 4.248.953z"/></g></g><g><path fill="#38D611" d="M319.239 214.001c0 5.866-4.756 10.619-10.617 10.619-5.864 0-10.62-4.753-10.62-10.619 0-5.863 4.756-10.618 10.62-10.618 5.861.001 10.617 4.756 10.617 10.618z"/><path fill="#009C00" d="M310.622 220.37c-6.277 0-11.367-5.088-11.37-11.365a10.58 10.58 0 0 0-1.25 4.997c0 5.866 4.756 10.619 10.62 10.619 4.881 0 8.98-3.298 10.224-7.784-2.075 2.172-4.986 3.533-8.224 3.533z"/><path fill="#97E87B" d="M314.991 207.364c1.452 1.437 1.896 3.336.998 4.242-.896.904-2.798.476-4.248-.96-1.448-1.436-1.895-3.333-.997-4.239.899-.907 2.798-.476 4.247.957z"/><g><path fill="#F7F7F7" d="M314.662 211.062c-1.18 0-2.135 1.316-2.135 2.941 0 1.623.955 2.938 2.135 2.938h69.521v-5.879h-69.521z"/><path fill="#ABABAB" d="M312.621 214.824c.259 1.22 1.071 2.117 2.041 2.117H384.184v-2.117h-71.563z"/><path fill="#FFF" d="M314.662 211.062c-.646 0-1.223.407-1.614 1.036h71.136v-1.036h-69.522z"/></g><g><path fill="#0070E6" d="M404.148 214.001c0 5.866-4.752 10.619-10.618 10.619-5.863 0-10.615-4.753-10.615-10.619 0-5.863 4.752-10.618 10.615-10.618 5.866.001 10.618 4.756 10.618 10.618z"/><path fill="#003EAC" d="M395.535 220.37c-6.278 0-11.368-5.088-11.372-11.365a10.603 10.603 0 0 0-1.248 4.997c0 5.866 4.752 10.619 10.615 10.619 4.884 0 8.983-3.298 10.225-7.784a11.326 11.326 0 0 1-8.22 3.533z"/><ellipse transform="rotate(-45.296 398.303 209.018)" fill="#77A4F9" cx="398.278" cy="209.005" rx="2.309" ry="3.694"/></g></g></g><g><circle fill="#0067DC" cx="294.679" cy="148.499" r="1.538"/><linearGradient id="V" gradientUnits="userSpaceOnUse" x1="354.331" y1="449.898" x2="354.331" y2="143.468"><stop offset="0" stop-color="#38d611"/><stop offset="1" stop-color="#fff" stop-opacity="0"/></linearGradient><path opacity=".4" fill="url(#V)" d="M354.33 113.044c-37.781 0-68.409 18.093-68.409 40.418v247.622c0 2.245.323 4.445.92 6.592 5.329 19.187 33.509 33.825 67.489 33.825 33.981 0 62.16-14.639 67.489-33.825.597-2.146.921-4.347.921-6.592V153.462c0-22.325-30.628-40.418-68.41-40.418z"/><linearGradient id="W" gradientUnits="userSpaceOnUse" x1="299.428" y1="244.201" x2="299.428" y2="374.48"><stop offset="0" stop-color="#fff" stop-opacity="0"/><stop offset="1" stop-color="#fff"/></linearGradient><path opacity=".4" fill="url(#W)" d="M299.428 384.688c-.57 0-1.032-.463-1.032-1.032V235.922a1.033 1.033 0 0 1 2.064 0v147.733c0 .57-.463 1.033-1.032 1.033z"/><linearGradient id="X" gradientUnits="userSpaceOnUse" x1="401.713" y1="307.178" x2="401.713" y2="405.598"><stop offset="0" stop-color="#fff" stop-opacity="0"/><stop offset="1" stop-color="#fff"/></linearGradient><path opacity=".4" fill="url(#X)" d="M401.713 413.309a1.033 1.033 0 0 1-1.032-1.032v-111.1a1.033 1.033 0 0 1 2.064 0v111.1c0 .569-.462 1.032-1.032 1.032z"/><linearGradient id="Y" gradientUnits="userSpaceOnUse" x1="401.713" y1="224.036" x2="401.713" y2="322.455"><stop offset="0" stop-color="#fff" stop-opacity="0"/><stop offset="1" stop-color="#fff"/></linearGradient><path opacity=".4" fill="url(#Y)" d="M401.713 330.167a1.033 1.033 0 0 1-1.032-1.032v-111.1a1.033 1.033 0 0 1 2.064 0v111.1c0 .569-.462 1.032-1.032 1.032z"/><circle fill="#FA0171" cx="422.74" cy="317.032" r="2.97"/><circle fill="#B0A002" cx="359.666" cy="273.584" r="2.97"/><circle fill="#0067DC" cx="413.553" cy="201.049" r="2.97"/><circle fill="#38D611" cx="285.92" cy="303.115" r="1.537"/><circle fill="#B0A002" cx="444.298" cy="189.006" r="1.538"/><circle fill="#FA0171" cx="266.359" cy="206.99" r="1.538"/><circle fill="#38D611" cx="404.25" cy="127.358" r="1.538"/><circle fill="#FFF" cx="336.838" cy="382.634" r="1.537"/><circle fill="#FFF" cx="412.017" cy="408.615" r="1.536"/><circle fill="#FFF" cx="359.666" cy="436.414" r=".898"/><circle fill="#FFF" cx="377.328" cy="249.756" r=".897"/><circle fill="#FFF" cx="309.508" cy="227.716" r=".898"/><circle fill="#FFF" cx="379.124" cy="204.018" r=".898"/><linearGradient id="Z" gradientUnits="userSpaceOnUse" x1="351.623" y1="449.898" x2="351.623" y2="143.468"><stop offset="0" stop-color="#38d611"/><stop offset="1" stop-color="#fff" stop-opacity="0"/></linearGradient><path opacity=".4" fill="url(#Z)" d="M354.33 113.044c-13.36 0-25.815 2.271-36.349 6.183v316.089c10.531 3.913 22.987 6.185 36.349 6.185 11.138 0 21.644-1.58 30.935-4.37V117.416c-9.293-2.79-19.799-4.372-30.935-4.372z"/><linearGradient id="aa" gradientUnits="userSpaceOnUse" x1="319.014" y1="329.532" x2="319.014" y2="416.34"><stop offset="0" stop-color="#fff" stop-opacity="0"/><stop offset="1" stop-color="#fff"/></linearGradient><path opacity=".4" fill="url(#aa)" d="M319.014 423.141c-.57 0-1.032-.462-1.032-1.032V324.36a1.033 1.033 0 0 1 2.064 0v97.749c0 .57-.463 1.032-1.032 1.032z"/><linearGradient id="ab" gradientUnits="userSpaceOnUse" x1="319.014" y1="243.236" x2="319.014" y2="330.043"><stop offset="0" stop-color="#fff" stop-opacity="0"/><stop offset="1" stop-color="#fff"/></linearGradient><path opacity=".4" fill="url(#ab)" d="M319.014 336.845c-.57 0-1.032-.463-1.032-1.032v-97.748a1.032 1.032 0 1 1 2.064 0v97.748c0 .569-.463 1.032-1.032 1.032z"/><linearGradient id="ac" gradientUnits="userSpaceOnUse" x1="354.336" y1="293.972" x2="354.336" y2="392.392"><stop offset="0" stop-color="#fff" stop-opacity="0"/><stop offset="1" stop-color="#fff"/></linearGradient><path opacity=".4" fill="url(#ac)" d="M354.337 400.103a1.033 1.033 0 0 1-1.032-1.032v-111.1a1.033 1.033 0 0 1 2.064 0v111.1c0 .57-.462 1.032-1.032 1.032z"/><linearGradient id="ad" gradientUnits="userSpaceOnUse" x1="354.336" y1="352.966" x2="354.336" y2="436.026"><stop offset="0" stop-color="#fff" stop-opacity="0"/><stop offset="1" stop-color="#fff"/></linearGradient><path opacity=".4" fill="url(#ad)" d="M354.337 442.533a1.033 1.033 0 0 1-1.032-1.032v-93.439a1.033 1.033 0 0 1 2.064 0v93.439c0 .57-.462 1.032-1.032 1.032z"/><linearGradient id="ae" gradientUnits="userSpaceOnUse" x1="384.232" y1="254.928" x2="384.232" y2="341.735"><stop offset="0" stop-color="#fff" stop-opacity="0"/><stop offset="1" stop-color="#fff"/></linearGradient><path opacity=".4" fill="url(#ae)" d="M384.232 348.537c-.57 0-1.032-.463-1.032-1.032v-97.748a1.033 1.033 0 0 1 2.064 0v97.748a1.032 1.032 0 0 1-1.032 1.032z"/></g></g><g><linearGradient id="af" gradientUnits="userSpaceOnUse" x1="2699.688" y1="215.562" x2="2726.019" y2="307.499" gradientTransform="matrix(-1 0 0 1 2877.14 0)"><stop offset="0" stop-color="#0070e6"/><stop offset="1" stop-color="#00152b"/></linearGradient><path fill="url(#af)" d="M105.929 231.234l129.813-75.7c2.149-1.241 4.115-1.307 5.631-.429l4.76 2.714-2.913 4.456v71.354c0 6.323-3.88 13.735-8.621 16.473l-125.128 72.995-4.326 6.616-4.785-2.729.008-.014c-1.866-1.034-3.061-3.49-3.061-6.992v-72.271c0-6.322 3.879-13.735 8.622-16.473z"/><linearGradient id="ag" gradientUnits="userSpaceOnUse" x1="2708.165" y1="292.071" x2="2692.311" y2="176.766" gradientTransform="matrix(-1 0 0 1 2877.14 0)"><stop offset="0" stop-color="#0070e6"/><stop offset="1" stop-color="#a5c5ff"/></linearGradient><path fill="url(#ag)" d="M249.148 237.052c0 6.322-3.88 13.735-8.621 16.472l-129.815 75.7c-4.74 2.738-8.62-.196-8.62-6.518v-72.271c.002-6.323 3.88-13.735 8.622-16.473l129.814-75.699c4.74-2.738 8.62.195 8.62 6.517v72.272z"/><path fill="#FFF" d="M112.044 322.479c-2.76 1.595-5.006-.104-5.007-3.784v-69.957c.001-3.681 2.245-7.973 5.007-9.567l127.152-74.163c2.761-1.593 5.007.104 5.007 3.786v69.956c0 3.681-2.245 7.972-5.007 9.567l-127.152 74.162z"/><path fill="#A5C5FF" d="M152.677 300.656l8.077-4.663c.417-.24.761.012.761.562 0 .551-.344 1.199-.761 1.44l-8.077 4.663c-.418.242-.761-.011-.761-.561s.343-1.2.761-1.441z"/><g fill="#0070E6"><path d="M99.903 304.458c-.366-.212-.667.02-.667.515v2.801c0 .498.301 1.077.667 1.289.367.212.669-.021.669-.517v-2.803c0-.494-.301-1.073-.669-1.285zM99.903 299.407c-.369-.214-.667.013-.667.504 0 .492.298 1.062.667 1.275.37.214.669-.012.669-.504s-.299-1.062-.669-1.275zM99.903 301.763c-.369-.213-.667.014-.667.506 0 .49.298 1.062.667 1.274.37.214.669-.014.669-.505 0-.49-.299-1.062-.669-1.275zM99.903 298.83c.37.213.669-.013.669-.504 0-.492-.299-1.063-.669-1.276-.369-.212-.667.014-.667.505s.298 1.063.667 1.275z"/></g><linearGradient id="ah" gradientUnits="userSpaceOnUse" x1="2698.811" y1="216.162" x2="2702.767" y2="325.185" gradientTransform="matrix(-1 0 0 1 2877.14 0)"><stop offset="0" stop-color="#0070e6"/><stop offset="1" stop-color="#00152b"/></linearGradient><path fill="url(#ah)" d="M109.847 321.185l127.154-74.163c2.76-1.595 5.007-5.886 5.007-9.568v-69.955c0-1.294-.282-2.336-.761-3.083 1.738.042 2.956 1.67 2.956 4.377v69.956c0 3.681-2.245 7.972-5.007 9.567l-127.152 74.163c-1.791 1.034-3.359.677-4.245-.702.626.015 1.318-.17 2.048-.592z"/><linearGradient id="ai" gradientUnits="userSpaceOnUse" x1="242.476" y1="299.461" x2="242.476" y2="331.531" gradientTransform="matrix(.866 -.5 0 1.1547 -15.906 -2.78)"><stop offset="0" stop-color="#0070e6"/><stop offset="1" stop-color="#a5c5ff" stop-opacity="0"/></linearGradient><path opacity=".8" fill="url(#ai)" d="M155.373 268.581l7.68-22.428c2.895-8.454 7.433-12.246 10.085-8.425s7.32.132 10.374-8.197l2.261-6.165c3.054-8.329 8.268-11.674 11.587-7.433l1.569 2.004c3.318 4.241 8.45.829 11.402-7.582l4.912-13.99c2.953-8.411 8.107-12.179 11.455-8.374l6.086 6.919v28.978l-77.411 44.693z"/><linearGradient id="aj" gradientUnits="userSpaceOnUse" x1="248.499" y1="307.327" x2="248.499" y2="327.295" gradientTransform="matrix(.866 -.5 0 1.1547 -15.906 -2.78)"><stop offset="0" stop-color="#38d611"/><stop offset=".999" stop-color="#bcf0a7" stop-opacity="0"/></linearGradient><path opacity=".8" fill="url(#aj)" d="M165.806 262.557l7.428-24.005c2.663-8.606 8.143-13.737 12.177-11.4l5.509 3.19c4.033 2.336 9.066-2.983 11.184-11.819l.771-3.219c2.117-8.837 7.294-14.651 11.504-12.921l18.359 7.546.047 13.958-66.979 38.67z"/><path fill="#E2E9FF" d="M165.043 268.162c0-.161-.098-.235-.22-.166l-7.925 4.576c-.121.069-.22.257-.22.419v.815c0 .161.099.235.22.166l7.925-4.577c.122-.069.22-.257.22-.417v-.816zM168.467 266.187c0-.161-.099-.236-.219-.167l-1.826 1.053c-.119.07-.218.258-.218.418v.816c0 .161.099.235.22.166l1.824-1.053c.12-.069.219-.257.219-.418v-.815zM169.785 265.132c-.12.07-.217.257-.219.418l.002.815c0 .161.097.236.217.166l6.082-3.51c.121-.07.219-.258.219-.419v-.816c0-.161-.098-.235-.219-.166l-6.082 3.512zM161.364 273.085c-.001-.16-.1-.234-.22-.165l-4.246 2.452c-.121.069-.22.257-.22.418v.816c0 .16.099.235.22.166l4.246-2.453c.122-.069.22-.257.219-.417l.001-.817zM168.245 269.112c-.002-.159-.1-.234-.22-.165l-5.396 3.115c-.119.07-.219.258-.218.418l-.001.816c.001.16.1.234.22.166l5.396-3.117c.121-.069.22-.258.218-.418l.001-.815zM172.544 266.631c-.001-.16-.098-.235-.219-.166l-2.866 1.655c-.12.069-.22.258-.22.418v.816c0 .16.1.235.22.166l2.866-1.656c.121-.069.219-.257.218-.417l.001-.816zM173.526 266.88c0 .16.099.234.219.165l2.122-1.225c.121-.069.219-.258.219-.418v-.817c0-.16-.098-.235-.219-.165l-2.123 1.225c-.119.069-.218.258-.218.417v.818z"/><g><path fill="#E2E9FF" d="M218.197 237.474c0-.161-.098-.235-.22-.167l-7.924 4.577c-.121.069-.221.257-.222.418l.001.817c-.001.16.1.233.221.165l7.924-4.577c.122-.069.22-.257.22-.417v-.816zM221.619 235.497c0-.161-.098-.235-.218-.166l-1.825 1.053c-.119.07-.216.257-.218.418l.002.815c-.002.162.097.236.216.167l1.825-1.053c.121-.07.218-.258.221-.419l-.003-.815zM222.939 234.443c-.119.069-.217.257-.217.418v.816c0 .16.098.234.217.165l6.082-3.51c.121-.07.219-.257.219-.418v-.816c0-.161-.098-.235-.219-.166l-6.082 3.511zM214.519 242.396c0-.16-.098-.234-.22-.166l-4.245 2.453c-.121.069-.221.257-.219.418l-.002.816c.002.16.1.234.221.165l4.246-2.451c.121-.07.219-.258.219-.418v-.817zM221.399 238.424c0-.16-.099-.234-.22-.166l-5.396 3.117c-.12.07-.219.257-.219.417v.816c0 .16.099.235.219.166l5.397-3.116c.119-.069.218-.257.218-.417v-.817zM225.698 235.942c0-.161-.098-.236-.219-.166l-2.866 1.655c-.121.069-.22.257-.22.418v.817c0 .159.099.234.22.164l2.866-1.654c.121-.07.219-.258.219-.417v-.817zM226.681 236.191c0 .161.099.234.218.166l2.123-1.226c.121-.069.219-.257.219-.417v-.817c0-.16-.098-.234-.219-.166l-2.123 1.226c-.119.069-.218.258-.218.417v.817z"/></g><g><path fill="#E2E9FF" d="M195.239 254.344c.002.16.1.234.221.166l7.926-4.578c.12-.069.22-.257.219-.417l.001-.816c-.001-.161-.1-.236-.22-.166l-7.928 4.576c-.119.069-.219.258-.219.418v.817zM191.816 256.319c0 .16.099.234.221.165l1.824-1.054c.121-.069.218-.257.218-.417v-.816c0-.161-.099-.235-.218-.166l-1.825 1.053c-.121.069-.22.257-.22.417v.818zM190.498 257.374c.119-.07.217-.258.217-.418v-.815c0-.161-.098-.235-.217-.166l-6.083 3.512c-.12.069-.218.257-.218.417v.816c0 .161.098.235.219.166l6.082-3.512zM198.919 249.419c0 .16.1.235.22.166l4.247-2.453c.122-.069.219-.257.219-.418v-.815c0-.162-.099-.236-.219-.166l-4.247 2.451c-.12.07-.22.258-.22.42v.815zM192.038 253.392c0 .16.099.234.221.166l5.395-3.115c.12-.07.22-.257.22-.418v-.816c0-.162-.1-.235-.22-.166l-5.396 3.114c-.121.07-.22.258-.22.419v.816zM187.739 255.875c0 .16.1.235.219.165l2.867-1.655c.12-.069.217-.257.22-.417l-.003-.816c.003-.161-.097-.236-.217-.166l-2.867 1.654c-.119.069-.219.258-.219.418v.817zM186.757 255.625c.001-.161-.099-.236-.219-.166l-2.123 1.226c-.12.069-.218.258-.218.419v.816c0 .161.098.234.219.165l2.123-1.226c.121-.069.218-.257.219-.417l-.001-.817z"/></g><g><path fill="#E2E9FF" d="M165.043 273.814c0-.161-.098-.235-.22-.166l-7.925 4.576c-.121.069-.22.257-.22.419v.815c0 .162.099.235.22.166l7.925-4.577c.122-.069.22-.257.22-.417v-.816zM168.467 271.838c0-.161-.099-.236-.219-.167l-1.826 1.053c-.119.069-.218.257-.218.418v.816c0 .161.099.235.22.166l1.824-1.053c.12-.07.219-.257.219-.418v-.815zM169.785 270.784c-.12.069-.217.257-.219.418l.002.815c0 .161.097.236.217.166l6.082-3.509c.121-.07.219-.258.219-.419v-.816c0-.161-.098-.235-.219-.166l-6.082 3.511zM161.364 278.737c-.001-.16-.1-.234-.22-.165l-4.246 2.452c-.121.069-.22.257-.22.418v.816c0 .16.099.235.22.166l4.246-2.453c.122-.069.22-.257.219-.417l.001-.817zM168.245 274.764c-.002-.16-.1-.234-.22-.165l-5.396 3.115c-.119.07-.219.258-.218.418l-.001.817c.001.16.1.234.22.166l5.396-3.117c.121-.069.22-.257.218-.418l.001-.816zM172.544 272.282c-.001-.16-.098-.235-.219-.166l-2.866 1.655c-.12.069-.22.257-.22.418v.816c0 .16.1.235.22.166l2.866-1.656c.121-.068.219-.257.218-.417l.001-.816zM173.526 272.532c0 .16.099.234.219.165l2.122-1.225c.121-.07.219-.258.219-.418v-.816c0-.16-.098-.235-.219-.165l-2.123 1.225c-.119.069-.218.258-.218.417v.817z"/></g><g><path fill="#E2E9FF" d="M218.197 243.125c0-.162-.098-.235-.22-.167l-7.924 4.577c-.121.069-.221.258-.222.418l.001.816c-.001.16.1.234.221.165l7.924-4.577c.122-.07.22-.257.22-.417v-.815zM221.619 241.149c0-.161-.098-.235-.218-.166l-1.825 1.053c-.119.07-.216.258-.218.418l.002.815c-.002.161.097.235.216.166l1.825-1.053c.121-.069.218-.257.221-.419l-.003-.814zM222.939 240.095c-.119.069-.217.257-.217.418v.816c0 .16.098.234.217.165l6.082-3.51c.121-.07.219-.258.219-.418v-.816c0-.161-.098-.235-.219-.166l-6.082 3.511zM214.519 248.048c0-.16-.098-.234-.22-.166l-4.245 2.453c-.121.068-.221.257-.219.418l-.002.816c.002.16.1.234.221.165l4.246-2.452c.121-.069.219-.258.219-.418v-.816zM221.399 244.075c0-.16-.099-.233-.22-.166l-5.396 3.117c-.12.069-.219.257-.219.417v.816c0 .16.099.235.219.166l5.397-3.116c.119-.069.218-.257.218-.417v-.817zM225.698 241.594c0-.161-.098-.236-.219-.166l-2.866 1.655c-.121.069-.22.258-.22.418v.816c0 .16.099.234.22.165l2.866-1.655c.121-.069.219-.258.219-.417v-.816zM226.681 241.843c0 .161.099.234.218.166l2.123-1.226c.121-.07.219-.258.219-.417v-.817c0-.16-.098-.234-.219-.166l-2.123 1.226c-.119.07-.218.258-.218.417v.817z"/></g><g><path fill="#E2E9FF" d="M195.239 259.995c.002.16.1.234.221.166l7.926-4.578c.12-.069.22-.257.219-.417l.001-.816c-.001-.161-.1-.236-.22-.166l-7.928 4.576c-.119.07-.219.258-.219.418v.817zM191.816 261.971c0 .16.099.234.221.165l1.824-1.054c.121-.069.218-.257.218-.417v-.816c0-.161-.099-.235-.218-.166l-1.825 1.053c-.121.07-.22.258-.22.417v.818zM190.498 263.025c.119-.07.217-.257.217-.418v-.815c0-.161-.098-.236-.217-.167l-6.083 3.512c-.12.069-.218.258-.218.417v.816c0 .161.098.235.219.166l6.082-3.511zM198.919 255.071c0 .16.1.235.22.166l4.247-2.452c.122-.069.219-.257.219-.418v-.815c0-.162-.099-.236-.219-.167l-4.247 2.452c-.12.069-.22.258-.22.419v.815zM192.038 259.044c0 .16.099.234.221.166l5.395-3.115c.12-.07.22-.257.22-.418v-.816c0-.161-.1-.235-.22-.166l-5.396 3.115c-.121.07-.22.258-.22.419v.815zM187.739 261.526c0 .16.1.235.219.165l2.867-1.655c.12-.069.217-.258.22-.417l-.003-.816c.003-.162-.097-.236-.217-.166l-2.867 1.654c-.119.069-.219.258-.219.418v.817zM186.757 261.277c.001-.161-.099-.236-.219-.167l-2.123 1.226c-.12.069-.218.258-.218.418v.816c0 .161.098.234.219.165l2.123-1.226c.121-.069.218-.257.219-.417l-.001-.815z"/></g><g opacity=".5" fill="#00152B"><path d="M229.18 184.717l.119.205-72.597 41.824-.119-.205zM229.18 197.861l.118.205L156.7 239.89l-.119-.205zM229.179 211.007l.118.205-72.597 41.824-.119-.205z"/><path d="M172.907 214.445h.237v42.233h-.237zM161.617 220.963h.237v42.232h-.237zM195.367 201.479h.237v42.232h-.237zM184.079 207.996h.237v42.232h-.237zM206.655 194.961h.237v42.232h-.237zM217.828 188.51h.237v42.232h-.237zM229.118 181.993h.237v42.232h-.237z"/><path d="M173.545 237.933c0 .383-.231.829-.52.994-.286.166-.519-.011-.519-.393 0-.384.232-.829.519-.994.288-.166.52.01.52.393zM207.295 206.19c.001.382-.233.828-.52.993-.287.166-.521-.01-.521-.393s.235-.829.521-.995c.288-.164.52.012.52.395zM218.468 204.151c0 .383-.234.828-.522.994-.286.166-.519-.01-.519-.393 0-.382.232-.828.521-.994.286-.167.52.01.52.393zM226.219 186.69c0 .383-.233.828-.52.994-.287.166-.521-.011-.521-.395 0-.382.233-.827.521-.994.286-.164.52.012.52.395zM196.006 214.146c0 .383-.233.828-.52.993-.288.166-.522-.009-.522-.392s.234-.829.522-.995c.286-.166.52.011.52.394zM162.257 249.75c0 .383-.234.828-.521.994-.286.166-.519-.011-.519-.393-.001-.383.232-.828.52-.993.287-.167.52.009.52.392zM233.47 182.2l.117.205-2.208 1.273-.119-.206zM233.47 195.343l.118.205-2.208 1.273-.119-.206zM233.47 208.49l.118.205-2.209 1.272-.118-.205z"/></g></g><g><path fill="#BACBE5" d="M243.283 263.779s1.662 13.898-1.547 18.739c-3.21 4.847-9.615.305-9.615.305l11.162-19.044z"/><linearGradient id="ak" gradientUnits="userSpaceOnUse" x1="205.79" y1="380.179" x2="246.847" y2="402.173"><stop offset="0" stop-color="#a5c5ff" stop-opacity="0"/><stop offset="1" stop-color="#77a4f9"/></linearGradient><path opacity=".7" fill="url(#ak)" d="M218.193 382.562c-14.182 5.734-16.15 12.307-7.702 17.193 9.587 5.545 16.816 7.046 29.215.377 11.371-6.014 10.713-12.401 1.976-17.754-6.105-3.852-12.023-4.319-23.489.184z"/><path fill="#DE8882" d="M226.509 295.705s2.16 24.914 3.319 31.976c.833 4.651 2.91 14.116 2.829 16.606-.087 2.493 0 11.131.664 16.695.663 5.648-.087 17.771-.332 18.77-.582 2.408-2.16 6.059-3.988 6.391-5.069.914-7.224 6.146 2.987 2.41 7.644-2.742 6.979-1.076 8.475-2.242 1.827-1.414 0-2.99-.75-5.063-.746-2.079.249-4.569.33-7.312.083-2.742 2.493-11.043 3.157-19.099.582-6.562-1.828-12.458-2.492-15.532-.665-3.072 3.074-10.134 5.234-23.168 2.158-13.04-5.396-22.26-7.395-24.914l-12.038 4.482z"/><linearGradient id="al" gradientUnits="userSpaceOnUse" x1="248.772" y1="388.856" x2="259.146" y2="388.856" gradientTransform="translate(-19.871)"><stop offset="0" stop-color="#0070e6"/><stop offset="1" stop-color="#00152b"/></linearGradient><path fill="url(#al)" d="M236.726 385.479c-5.734 4.901-11.961 4.4-9.72 2.16 1.244-1.246 2.328-1.577 2.328-1.577s-3.406-.17-5.566.995c-1.577.914-3.072 3.155-1.244 3.904 1.746.746 6.64 1.328 8.638.827 1.99-.494 4.983-2.735 5.979-2.071.995.663.93 5.32.93 5.32l.494.599 1.41-.833s-.148-1.914.087-2.862c.262-1.044 1.729-3.883 1.811-5.798.083-1.908-1.828-4.068-1.828-4.068s-1.165 1.332-3.319 3.404z"/><path fill="#DE8882" d="M216.462 295.536s-1.915 4.989-1.331 22.923c.498 17.854 2.49 21.346 3.153 25.328.583 3.988 1.165 14.455 2.411 24.088 1.327 9.635 2.903 15.775 2.158 17.604-.744 1.91-2.176 5.713-3.568 5.815-2.991-.081-5.232 2.16-4.405 3.406.832 1.327 4.155.914 6.811-.333 2.241-1.082 7.392-1.414 9.22-4.068 1.327-1.996-1.244-2.822-1.576-4.488-.252-1.408-.997-6.479-.083-15.362.913-8.971 1.491-15.28-1.496-22.593-1.827-4.645.083-8.632 1.66-15.03 1.576-6.391 1.827-11.793 2.49-13.453.665-1.658 4.071-3.568 4.071-8.719 0-5.146-4.482-15.863-4.482-15.863l-15.033.745z"/><linearGradient id="am" gradientUnits="userSpaceOnUse" x1="232.26" y1="393.66" x2="251.946" y2="393.66" gradientTransform="translate(-19.871)"><stop offset="0" stop-color="#0070e6"/><stop offset="1" stop-color="#00152b"/></linearGradient><path fill="url(#am)" d="M225.678 390.631c-3.487 2.823-5.566 4.732-7.725 4.318-1.078-.249-1.908-.832-1.578-1.664.332-.913 2.91-1.991 2.91-1.991s-1.859.282-3.525.202c-1.657-.168-3.371.463-3.371 1.707 0 1.246 3.492 4.482 6.065 4.482 2.571 0 6.811-3.318 8.219-2.985 1.415.33.783 5.356.783 5.356l.881.37 1.198-.565s.293-1.424.542-3.09c.252-1.658 1.998-3.982 1.998-6.141 0-2.078-1.998-3.738-1.998-3.738s-1.408 1.247-4.399 3.739z"/><linearGradient id="an" gradientUnits="userSpaceOnUse" x1="250.494" y1="353.235" x2="250.494" y2="305.978" gradientTransform="translate(-19.871)"><stop offset="0" stop-color="#0062ab"/><stop offset="1"/></linearGradient><path fill="url(#an)" d="M242.253 296.221s4.907 6.985 4.286 17.734c-.621 10.745-5.717 21.815-5.619 24.187 0 0-13.312 5.53-24.458.019 0 0-4.073-27.895 0-42.624l25.791.684z"/><linearGradient id="ao" gradientUnits="userSpaceOnUse" x1="228.738" y1="293.312" x2="233.649" y2="316.882"><stop offset="0" stop-color="#fff"/><stop offset="1" stop-color="#eff7ff"/></linearGradient><path fill="url(#ao)" d="M242.907 296.24s-6.639-10.328-4.581-15.69c.663-2.987 4.047-12.584 4.874-15.655.831-3.072-3.651-6.811-5.729-7.723 0 0-5.271-1.669-11.983 2.018-3.406 2.246-9.194 7.367-10.271 8.528-1.497 1.494-2.829 2.657-3.074 5.068-.332 3.739 3.404 5.315 3.818 6.229 3.03 4.411-.472 16.979-.472 16.979s-3.371 14.416-1.474 26.108c0 0 11.417 3.033 22.856 1.695.333-5.352.713-12.581.713-12.581l.978 12.348c2.665-.417 5.301-1.089 7.763-2.117.001.001 4.112-14.341-3.418-25.207z"/><linearGradient id="ap" gradientUnits="userSpaceOnUse" x1="231.126" y1="299.055" x2="224.005" y2="280.885"><stop offset="0" stop-color="#fff" stop-opacity="0"/><stop offset="1" stop-color="#eff7ff"/></linearGradient><path fill="url(#ap)" d="M242.907 296.24s-6.639-10.328-4.581-15.69c.663-2.987 4.047-12.584 4.874-15.655.831-3.072-3.651-6.811-5.729-7.723 0 0-5.271-1.669-11.983 2.018-3.406 2.246-9.194 7.367-10.271 8.528-1.497 1.494-2.829 2.657-3.074 5.068-.332 3.739 3.404 5.315 3.818 6.229 3.03 4.411-.472 16.979-.472 16.979s-3.371 14.416-1.474 26.108c0 0 11.417 3.033 22.856 1.695.333-5.352.713-12.581.713-12.581l.978 12.348c2.665-.417 5.301-1.089 7.763-2.117.001.001 4.112-14.341-3.418-25.207z"/><linearGradient id="aq" gradientUnits="userSpaceOnUse" x1="219.802" y1="277.529" x2="220.602" y2="281.37"><stop offset="0" stop-color="#fff"/><stop offset="1" stop-color="#eff7ff"/></linearGradient><path fill="url(#aq)" d="M225.265 270.711l-13.134 2.597c.042 3.362 3.438 4.837 3.831 5.707.732 1.066 1.081 2.611 1.191 4.338 8.584-4.327 8.112-12.642 8.112-12.642z"/><path fill="#BACBE5" d="M225.265 270.711l-13.134 2.597c.042 3.362 3.438 4.837 3.831 5.707.732 1.066 1.081 2.611 1.191 4.338 8.584-4.327 8.112-12.642 8.112-12.642z"/><path fill="#DE8882" d="M222.082 232.23s-2.667 1.885-3.03 4.914c-.364 3.026.077 3.764.186 4.853.114 1.092-.615 2.969-.016 5.483.598 2.506.831 6.445 2.745 6.674 2.079.25 5.462-.74 10.429-4.852 4.336-3.59 6.311-8.471 4.548-13.529-1.682-4.831-8.931-7.746-14.862-3.543z"/><path fill="#C96964" d="M234.196 247.583v-.012c3.042-3.351 4.243-7.509 2.747-11.798-.357-1.04-.979-1.986-1.784-2.793-8.688.987-10.672 10.967-10.367 15.728.33 5.169-3.375 5.216-3.428 5.216.18.121.381.202.603.229.557.065 1.203.038 1.955-.107v-.002c.13-.021.249-.045.386-.079.494-.01 1.445.35 1.833 2.095.522 2.336-1.479 3.701-1.479 3.701s9.649.587 12.811-2.589c-.001 0-3.581-3.817-3.277-9.589z"/><linearGradient id="ar" gradientUnits="userSpaceOnUse" x1="226.156" y1="227.386" x2="228.202" y2="236.552"><stop offset="0" stop-color="#0070e6"/><stop offset="1" stop-color="#00152b"/></linearGradient><path fill="url(#ar)" d="M236.455 232.98s-4.091-5.798-12.648-2.334c0 0-5.526 1.476-5.256 7.667 0 0 .86 1.946 3.935 2.568 0 0-.044 3.074 1.63 4.243 0 0 2.567 6.283 10.239 5.319 0 0 .554-2.68 1.985-4.112 1.788-1.789 3.927-8.683.115-13.351z"/><path fill="#DE8882" d="M192.362 244.727c.074.032.144.061.206.1 1.146.604 2.778 4.93 3.424 6.734.645 1.807-.648 4.948-.648 4.948l-5.124 1.452s-2.424-1.262-2.134-5.925c-.173.239-.622 1.255-.705 1.609-.144.573-.725 1.04-.982.606-.247-.431.17-2.511.611-3.629.428-1.12 2.368-1.603 2.368-1.603.972-.354 2.05-.414 2.432-.467.8-.103 1.317.756 1.317.756s-1.324-3.067-1.457-3.83c-.132-.751.665-.755.692-.751z"/><linearGradient id="as" gradientUnits="userSpaceOnUse" x1="536.334" y1="-177.917" x2="508.121" y2="-176.317" gradientTransform="rotate(-1.621 16697.764 11063.867)"><stop offset="0" stop-color="#fff"/><stop offset="1" stop-color="#eff7ff"/></linearGradient><path fill="url(#as)" d="M224.435 267.992a5.416 5.416 0 0 0-7.911-1.41s-12.507 10.533-12.661 10.652a903.16 903.16 0 0 0-2.09-5.374l-6.525 2.241c.637 2.22 1.278 4.487 1.884 6.7l.291 1.05.009.039.027.083.062.169.128.334c.093.228.207.464.326.689.139.235.274.465.436.688.186.231.347.45.564.667.819.857 2.024 1.554 3.308 1.774 1.278.239 2.534.035 3.516-.354a9.34 9.34 0 0 0 .896-.438l.24-.139.309-.198.112-.069.226-.139c.301-.188.596-.377.898-.562.588-.375 1.178-.746 1.758-1.102 2.311-1.448 4.47-2.799 6.321-3.957l6.167-3.863a5.418 5.418 0 0 0 1.709-7.481z"/><path fill="#DE8882" d="M195.344 256.508s-1.472-2.146-3.567-1.496c-.51.157-1.557 2.948-1.557 2.948.405 1.468 2.744 8.192 5.028 16.143l6.525-2.241c-2.934-7.494-5.934-14.067-6.429-15.354z"/><path fill="#E2E9FF" d="M194.901 272.901s3.241-.074 6.354-2.361c0 0 2.796 2.671 2.871 3.369.067.702-2.346 2.116-3.194 2.144-.852.021-1.364-.719-1.364-.719s.326 1.197-1.067 1.538c-1.39.333-3.143 1.187-3.47.621-.329-.573-.13-4.592-.13-4.592z"/><g><linearGradient id="at" gradientUnits="userSpaceOnUse" x1="231.6" y1="288.524" x2="236.265" y2="251.121"><stop offset="0" stop-color="#0070e6"/><stop offset="1" stop-color="#00152b"/></linearGradient><path fill="url(#at)" d="M222.771 238.145c-1.603 2.825.271 9.424 1.568 12.094.914 2.059 2.441 3.816 2.978 6.106.608 2.748.379 5.264-.766 7.782-1.603 3.664-.993 5.725 1.297 8.932 2.9 3.966 8.471 4.803 12.897 2.899 4.121-1.833 9.096-5.622 9.096-10.353 0-4.198-2.114-9.252-5.127-12.083-6.486-6.106-5.822-8.362-6.137-14.508l-15.806-.869z"/></g><g><linearGradient id="au" gradientUnits="userSpaceOnUse" x1="229.403" y1="309.025" x2="231.908" y2="321.047"><stop offset="0" stop-color="#fff"/><stop offset="1" stop-color="#eff7ff"/></linearGradient><path fill="url(#au)" d="M236.873 323.798c.333-5.352.713-12.581.713-12.581l.978 12.348c2.665-.417 5.301-1.089 7.763-2.117 0 0 4.11-14.341-3.419-25.208 0 0-2.241-3.49-3.716-7.466 0 0 1.123 24.492-25.733 26.946.054 2.149.223 4.308.559 6.382-.001.001 11.416 3.034 22.855 1.696z"/><path fill="#E2E9FF" d="M236.873 323.798c.333-5.352.713-12.581.713-12.581l.978 12.348c2.665-.417 5.301-1.089 7.763-2.117 0 0 4.11-14.341-3.419-25.208 0 0-2.241-3.49-3.716-7.466 0 0 1.123 24.492-25.733 26.946.054 2.149.223 4.308.559 6.382-.001.001 11.416 3.034 22.855 1.696z"/></g></g><g><linearGradient id="av" gradientUnits="userSpaceOnUse" x1="120.735" y1="265.119" x2="140.825" y2="265.119"><stop offset="0" stop-color="#38d611"/><stop offset="1" stop-color="#009c00"/></linearGradient><path fill="url(#av)" d="M140.323 255.823l-4.775-.919v.647l-.23-.389-.989 1.348.281.488.938-1.274v6.532l-.58-.11.005-.014-.971-.187-.004.013-.975-.188.005-.011-.977-.183-.002.007-.733-.142.387-.522-.281-.487-.362.489.008-.573-.562.324v.598l-.402-.078-.278.811.392.079-.734.988-.008-.013-.975 1.311.008.013-.966 1.302-.004-.006-.971 1.308.002.006-.582.783v-6.507l.917.18.263-.826-.974-.191-.206.642v-.652l-4.774 6.434v7.349l-.479.649.281.481.755-1.014 4.217.812 4.783-6.436 4.777.919 4.226-5.697.76.147.291-.811-.502-.098z"/><linearGradient id="aw" gradientUnits="userSpaceOnUse" x1="115.635" y1="261.754" x2="145.897" y2="261.754"><stop offset="0" stop-color="#38d611"/><stop offset="1" stop-color="#009c00"/></linearGradient><path fill="url(#aw)" d="M145.547 241.3l-14.432-2.777c-.216-.04-.482.113-.698.404l-14.433 19.442c-.217.293-.35.68-.35 1.013V281.6c0 .333.133.565.35.608l14.433 2.777a.488.488 0 0 0 .35-.075c.123-.07.242-.183.349-.329l14.434-19.441c.216-.292.348-.678.348-1.012v-22.219c-.002-.334-.133-.566-.351-.609zm-14.496 41.204l.018-1.169-.562.323v1.183l-13.19-2.538.76-1.022-.279-.488-.759 1.024v-20.269l.13.025.284-.826-.126-.022 13.181-17.759v.221l.541-.311.003-.204 13.156 2.532-.142.189.28.488.15-.206v20.291l-.764-.149-.28.811.766.144-13.167 17.732z"/><linearGradient id="ax" gradientUnits="userSpaceOnUse" x1="118.142" y1="259.442" x2="119.402" y2="259.442"><stop offset="0" stop-color="#38d611"/><stop offset="1" stop-color="#009c00"/></linearGradient><path fill="url(#ax)" d="M119.402 259.127l-.976-.184-.284.814.973.185z"/><linearGradient id="ay" gradientUnits="userSpaceOnUse" x1="141.51" y1="263.938" x2="142.762" y2="263.938"><stop offset="0" stop-color="#38d611"/><stop offset="1" stop-color="#009c00"/></linearGradient><path fill="url(#ay)" d="M141.51 264.243l.969.199.283-.824-.972-.185z"/><linearGradient id="az" gradientUnits="userSpaceOnUse" x1="122.039" y1="260.195" x2="123.279" y2="260.195"><stop offset="0" stop-color="#38d611"/><stop offset="1" stop-color="#009c00"/></linearGradient><path fill="url(#az)" d="M123.279 259.891l-.969-.193-.271.83.971.165z"/><linearGradient id="aA" gradientUnits="userSpaceOnUse" x1="120.087" y1="259.82" x2="121.344" y2="259.82"><stop offset="0" stop-color="#38d611"/><stop offset="1" stop-color="#009c00"/></linearGradient><path fill="url(#aA)" d="M121.344 259.509l-.971-.189-.286.816.975.184z"/><linearGradient id="aB" gradientUnits="userSpaceOnUse" x1="123.983" y1="260.57" x2="125.239" y2="260.57"><stop offset="0" stop-color="#38d611"/><stop offset="1" stop-color="#009c00"/></linearGradient><path fill="url(#aB)" d="M125.239 260.257l-.975-.186-.281.812.977.185z"/><linearGradient id="aC" gradientUnits="userSpaceOnUse" x1="127.88" y1="261.319" x2="129.131" y2="261.319"><stop offset="0" stop-color="#38d611"/><stop offset="1" stop-color="#009c00"/></linearGradient><path fill="url(#aC)" d="M129.131 261.035l-.971-.216-.28.811.971.189z"/><linearGradient id="aD" gradientUnits="userSpaceOnUse" x1="118.769" y1="277.071" x2="120.022" y2="277.071"><stop offset="0" stop-color="#38d611"/><stop offset="1" stop-color="#009c00"/></linearGradient><path fill="url(#aD)" d="M118.769 277.483l.283.486.969-1.32-.279-.476z"/><linearGradient id="aE" gradientUnits="userSpaceOnUse" x1="142.156" y1="245.589" x2="143.413" y2="245.589"><stop offset="0" stop-color="#38d611"/><stop offset="1" stop-color="#009c00"/></linearGradient><path fill="url(#aE)" d="M142.156 245.99l.244.51 1.013-1.333-.28-.488z"/><linearGradient id="aF" gradientUnits="userSpaceOnUse" x1="132.401" y1="258.728" x2="133.653" y2="258.728"><stop offset="0" stop-color="#38d611"/><stop offset="1" stop-color="#009c00"/></linearGradient><path fill="url(#aF)" d="M133.653 258.327l-.281-.489-.971 1.309.264.47z"/><linearGradient id="aG" gradientUnits="userSpaceOnUse" x1="138.222" y1="250.846" x2="139.495" y2="250.846"><stop offset="0" stop-color="#38d611"/><stop offset="1" stop-color="#009c00"/></linearGradient><path fill="url(#aG)" d="M139.495 250.449l-.298-.501-.975 1.317.285.48z"/><linearGradient id="aH" gradientUnits="userSpaceOnUse" x1="140.171" y1="248.227" x2="141.424" y2="248.227"><stop offset="0" stop-color="#38d611"/><stop offset="1" stop-color="#009c00"/></linearGradient><path fill="url(#aH)" d="M140.171 248.637l.282.488.971-1.308-.28-.488z"/><linearGradient id="aI" gradientUnits="userSpaceOnUse" x1="136.276" y1="253.473" x2="137.532" y2="253.473"><stop offset="0" stop-color="#38d611"/><stop offset="1" stop-color="#009c00"/></linearGradient><path fill="url(#aI)" d="M137.532 253.061l-.281-.488-.975 1.311.28.488z"/><linearGradient id="aJ" gradientUnits="userSpaceOnUse" x1="130.506" y1="252.264" x2="131.068" y2="252.264"><stop offset="0" stop-color="#38d611"/><stop offset="1" stop-color="#009c00"/></linearGradient><path fill="url(#aJ)" d="M131.068 251.352l-.562.322v1.502l.541-.312z"/><linearGradient id="aK" gradientUnits="userSpaceOnUse" x1="130.506" y1="249.267" x2="131.068" y2="249.267"><stop offset="0" stop-color="#38d611"/><stop offset="1" stop-color="#009c00"/></linearGradient><path fill="url(#aK)" d="M131.068 248.354l-.562.323v1.502l.541-.312z"/><linearGradient id="aL" gradientUnits="userSpaceOnUse" x1="130.506" y1="246.269" x2="131.068" y2="246.269"><stop offset="0" stop-color="#38d611"/><stop offset="1" stop-color="#009c00"/></linearGradient><path fill="url(#aL)" d="M131.068 245.356l-.562.324v1.502l.541-.312z"/><linearGradient id="aM" gradientUnits="userSpaceOnUse" x1="130.506" y1="243.272" x2="131.068" y2="243.272"><stop offset="0" stop-color="#38d611"/><stop offset="1" stop-color="#009c00"/></linearGradient><path fill="url(#aM)" d="M131.068 242.359l-.562.325v1.5l.541-.311z"/><linearGradient id="aN" gradientUnits="userSpaceOnUse" x1="130.506" y1="273.25" x2="131.068" y2="273.25"><stop offset="0" stop-color="#38d611"/><stop offset="1" stop-color="#009c00"/></linearGradient><path fill="url(#aN)" d="M130.506 274.164l.541-.313.021-1.514-.562.324z"/><linearGradient id="aO" gradientUnits="userSpaceOnUse" x1="130.506" y1="276.247" x2="131.068" y2="276.247"><stop offset="0" stop-color="#38d611"/><stop offset="1" stop-color="#009c00"/></linearGradient><path fill="url(#aO)" d="M130.506 277.16l.541-.312.021-1.514-.562.323z"/><linearGradient id="aP" gradientUnits="userSpaceOnUse" x1="130.506" y1="270.252" x2="131.068" y2="270.252"><stop offset="0" stop-color="#38d611"/><stop offset="1" stop-color="#009c00"/></linearGradient><path fill="url(#aP)" d="M130.506 271.165l.541-.31.021-1.515-.562.324z"/><linearGradient id="aQ" gradientUnits="userSpaceOnUse" x1="130.506" y1="258.261" x2="131.068" y2="258.261"><stop offset="0" stop-color="#38d611"/><stop offset="1" stop-color="#009c00"/></linearGradient><path fill="url(#aQ)" d="M131.068 257.352l-.562.323v1.495l.541-.311z"/><linearGradient id="aR" gradientUnits="userSpaceOnUse" x1="130.506" y1="279.241" x2="131.068" y2="279.241"><stop offset="0" stop-color="#38d611"/><stop offset="1" stop-color="#009c00"/></linearGradient><path fill="url(#aR)" d="M130.506 280.157l.541-.311.021-1.52-.562.323z"/><linearGradient id="aS" gradientUnits="userSpaceOnUse" x1="130.506" y1="255.264" x2="131.068" y2="255.264"><stop offset="0" stop-color="#38d611"/><stop offset="1" stop-color="#009c00"/></linearGradient><path fill="url(#aS)" d="M131.068 254.354l-.562.324v1.496l.541-.312z"/></g><g><linearGradient id="aT" gradientUnits="userSpaceOnUse" x1="2729.713" y1="161.419" x2="2741.341" y2="202.019" gradientTransform="matrix(-1 0 0 1 2877.14 0)"><stop offset="0" stop-color="#0070e6"/><stop offset="1" stop-color="#00152b"/></linearGradient><path fill="url(#aT)" d="M121.878 159.683l45.421-26.225c1.176-.679 2.251-.715 3.08-.235l2.604 1.484-1.594 2.437v39.019c0 3.457-2.122 7.511-4.714 9.008l-42.86 24.745-2.366 3.619-2.616-1.492.005-.008c-1.021-.565-1.674-1.909-1.674-3.823v-39.52c-.001-3.459 2.12-7.513 4.714-9.009z"/><linearGradient id="aU" gradientUnits="userSpaceOnUse" x1="2732.923" y1="195.829" x2="2725.797" y2="144.005" gradientTransform="matrix(-1 0 0 1 2877.14 0)"><stop offset="0" stop-color="#0070e6"/><stop offset="1" stop-color="#a5c5ff"/></linearGradient><path fill="url(#aU)" d="M174.631 178.034c0 3.458-2.122 7.511-4.714 9.008l-45.424 26.225c-2.592 1.497-4.714-.107-4.714-3.564v-39.52c.001-3.458 2.122-7.51 4.715-9.008l45.423-26.225c2.592-1.497 4.714.106 4.714 3.564v39.52z"/><path fill="#FFF" d="M125.222 209.578c-1.51.873-2.737-.056-2.738-2.069v-38.254c.001-2.013 1.228-4.36 2.738-5.231l43.967-25.384c1.509-.871 2.737.057 2.737 2.07v38.253c0 2.014-1.227 4.36-2.737 5.232l-43.967 25.383z"/><path fill="#A5C5FF" d="M147.44 197.645l4.417-2.55c.229-.131.416.007.416.307 0 .302-.188.656-.416.788l-4.417 2.55c-.229.132-.416-.007-.416-.307 0-.302.188-.657.416-.788z"/><g fill="#0070E6"><path d="M118.583 199.724c-.201-.116-.365.01-.365.282v1.532c0 .272.164.588.365.705.2.115.365-.012.365-.283v-1.533c0-.271-.165-.588-.365-.703zM118.583 196.961c-.202-.118-.365.007-.365.275 0 .27.163.581.365.698.202.117.365-.006.365-.276 0-.268-.163-.58-.365-.697zM118.583 198.25c-.202-.116-.365.007-.365.277 0 .268.163.581.365.697.202.117.365-.007.365-.276s-.163-.582-.365-.698zM118.583 196.646c.202.116.365-.007.365-.275 0-.269-.163-.582-.365-.698-.202-.115-.365.007-.365.276 0 .268.163.581.365.697z"/></g><linearGradient id="aV" gradientUnits="userSpaceOnUse" x1="2728.552" y1="161.749" x2="2730.325" y2="210.626" gradientTransform="matrix(-1 0 0 1 2877.14 0)"><stop offset="0" stop-color="#0070e6"/><stop offset="1" stop-color="#00152b"/></linearGradient><path fill="url(#aV)" d="M124.02 208.87l43.968-25.384c1.51-.872 2.738-3.219 2.738-5.232V140c0-.707-.154-1.277-.416-1.686.951.023 1.616.913 1.616 2.394v38.253c0 2.014-1.227 4.36-2.737 5.232l-43.967 25.383c-.979.565-1.837.37-2.321-.384.341.01.719-.091 1.119-.322z"/><path fill="#E2E9FF" d="M160.91 149.095c-4.208 7.176-8.803 10.347-18.493 19.047-7.096 6.374-8.613 13.021-8.719 17.22-1.74 5.353-1.837 10.431-1.837 10.431s.683-2.969 2.122-6.944l.22-.599c.021-.056.04-.109.062-.164.073-.194.146-.391.222-.589.022-.059.047-.115.069-.173.078-.204.158-.408.241-.615.025-.061.05-.122.073-.184l.275-.669.07-.17c.084-.204.175-.413.265-.619l.085-.195c.089-.205.179-.411.272-.619.026-.061.057-.124.085-.187.1-.22.204-.441.306-.663.031-.069.066-.14.099-.208.102-.219.21-.44.315-.659.033-.063.063-.128.094-.189.105-.209.21-.42.316-.628l.1-.194c.111-.214.227-.428.339-.64.032-.06.062-.114.091-.173a45.23 45.23 0 0 1 .491-.877 30.144 30.144 0 0 1 .479-.821 36.48 36.48 0 0 1 2.066-3.088c6.047-8.049 12.126-11.947 12.126-11.947s-8.813 8.743-13.345 16.973a63.25 63.25 0 0 0-3.915 8.536c2.814-.63 9.644-3.063 17.044-12.372 9.693-12.19 8.382-28.021 8.382-28.021z"/></g><g><linearGradient id="aW" gradientUnits="userSpaceOnUse" x1="2733.521" y1="306.761" x2="2742.289" y2="337.371" gradientTransform="matrix(-1 0 0 1 2877.14 0)"><stop offset="0" stop-color="#0070e6"/><stop offset="1" stop-color="#00152b"/></linearGradient><path fill="url(#aW)" d="M124.354 305.453l34.246-19.771c.886-.513 1.696-.54 2.321-.177l1.963 1.119-1.202 1.837v29.417c0 2.607-1.599 5.663-3.554 6.792l-32.313 18.656-1.784 2.728-1.973-1.125.004-.006c-.77-.426-1.262-1.439-1.262-2.882v-29.796c.001-2.607 1.6-5.663 3.554-6.792z"/><linearGradient id="aX" gradientUnits="userSpaceOnUse" x1="2735.943" y1="332.706" x2="2730.571" y2="293.633" gradientTransform="matrix(-1 0 0 1 2877.14 0)"><stop offset="0" stop-color="#0070e6"/><stop offset="1" stop-color="#a5c5ff"/></linearGradient><path fill="url(#aX)" d="M164.127 319.289c0 2.607-1.6 5.662-3.554 6.791l-34.246 19.772c-1.954 1.128-3.554-.081-3.554-2.687v-29.796c0-2.606 1.6-5.662 3.555-6.791l34.245-19.772c1.954-1.128 3.554.081 3.554 2.688v29.795z"/><path fill="#FFF" d="M126.877 343.071c-1.139.657-2.064-.043-2.065-1.56V312.67c.001-1.518.926-3.287 2.065-3.944l33.147-19.139c1.138-.657 2.064.043 2.064 1.561v28.841c0 1.518-.926 3.287-2.064 3.945l-33.147 19.137z"/><path fill="#A5C5FF" d="M143.628 334.074l3.33-1.922c.172-.099.313.005.313.232s-.142.495-.313.594l-3.33 1.922c-.173.1-.313-.005-.313-.231-.001-.228.14-.496.313-.595z"/><g fill="#0070E6"><path d="M121.871 335.641c-.151-.087-.275.008-.275.213v1.155c0 .205.124.443.275.531.151.087.275-.008.275-.213v-1.156c0-.204-.124-.442-.275-.53zM121.871 333.559c-.152-.089-.275.005-.275.208 0 .203.123.438.275.526.152.087.275-.005.275-.208 0-.203-.123-.439-.275-.526zM121.871 334.53c-.152-.087-.275.005-.275.208 0 .202.123.438.275.526s.275-.005.275-.208c0-.202-.123-.438-.275-.526zM121.871 333.321c.152.088.275-.005.275-.207 0-.204-.123-.439-.275-.527-.152-.087-.275.005-.275.208 0 .203.123.439.275.526z"/></g><linearGradient id="aY" gradientUnits="userSpaceOnUse" x1="2732.646" y1="307.01" x2="2733.984" y2="343.861" gradientTransform="matrix(-1 0 0 1 2877.14 0)"><stop offset="0" stop-color="#0070e6"/><stop offset="1" stop-color="#00152b"/></linearGradient><path fill="url(#aY)" d="M125.97 342.537l33.149-19.138c1.138-.658 2.064-2.427 2.064-3.945v-28.841c0-.533-.116-.963-.313-1.271.717.018 1.219.688 1.219 1.804v28.841c0 1.518-.926 3.287-2.064 3.945l-33.147 19.138c-.739.426-1.386.279-1.751-.289.257.007.542-.07.843-.244z"/><path fill="#E2E9FF" d="M139.608 310.021c.002.158.099.231.217.163l7.824-4.518c.119-.068.217-.254.216-.412l.001-.805c-.001-.159-.098-.233-.217-.164l-7.825 4.517c-.117.069-.216.255-.216.413v.806zM136.23 311.971c0 .158.097.231.217.163l1.801-1.041c.12-.068.215-.253.215-.412v-.805c0-.159-.097-.232-.215-.164l-1.802 1.04c-.119.068-.216.253-.216.412v.807zM134.929 313.011c.117-.069.214-.254.214-.413v-.805c0-.159-.097-.233-.214-.165l-6.005 3.466c-.118.068-.215.254-.215.412v.806c0 .159.097.231.217.164l6.003-3.465zM143.24 305.16c0 .158.099.232.218.164l4.191-2.42c.12-.069.216-.254.216-.413v-.805c0-.16-.097-.233-.216-.164l-4.191 2.42c-.119.068-.218.254-.218.414v.804zM136.449 309.082c0 .158.097.231.217.164l5.325-3.075c.119-.069.217-.255.217-.413v-.805c0-.16-.098-.232-.217-.164l-5.326 3.075c-.119.069-.216.255-.216.414v.804zM132.205 311.532c0 .158.099.231.216.162l2.83-1.633c.119-.068.215-.254.218-.412l-.003-.805c.003-.16-.096-.233-.215-.164l-2.83 1.633c-.117.069-.216.255-.216.413v.806zM131.235 311.286c.002-.158-.098-.232-.217-.164l-2.095 1.21c-.118.069-.215.255-.215.414v.806c0 .158.097.231.217.162l2.095-1.209c.119-.069.215-.254.217-.413l-.002-.806z"/><g><path fill="#E2E9FF" d="M139.608 315.6c.002.158.099.231.217.163l7.824-4.519c.119-.068.217-.254.216-.412l.001-.806c-.001-.159-.098-.232-.217-.163l-7.825 4.517c-.117.069-.216.255-.216.413v.807zM136.23 317.55c0 .158.097.231.217.163l1.801-1.04c.12-.068.215-.254.215-.412v-.806c0-.158-.097-.231-.215-.164l-1.802 1.04c-.119.069-.216.254-.216.413v.806zM134.929 318.589c.117-.068.214-.253.214-.412v-.805c0-.159-.097-.232-.214-.164l-6.005 3.466c-.118.068-.215.254-.215.412v.806c0 .158.097.232.217.164l6.003-3.467zM143.24 310.739c0 .158.099.232.218.164l4.191-2.42c.12-.069.216-.254.216-.412v-.805c0-.16-.097-.233-.216-.165l-4.191 2.421c-.119.068-.218.254-.218.414v.803zM136.449 314.66c0 .158.097.231.217.164l5.325-3.075c.119-.07.217-.255.217-.413v-.805c0-.16-.098-.232-.217-.165l-5.326 3.075c-.119.069-.216.255-.216.414v.805zM132.205 317.11c0 .158.099.232.216.163l2.83-1.633c.119-.069.215-.254.218-.413l-.003-.805c.003-.16-.096-.233-.215-.164l-2.83 1.633c-.117.068-.216.255-.216.413v.806zM131.235 316.864c.002-.158-.098-.232-.217-.164l-2.095 1.21c-.118.069-.215.255-.215.414v.806c0 .158.097.231.217.162l2.095-1.209c.119-.069.215-.253.217-.413l-.002-.806z"/></g><g><path fill="#E2E9FF" d="M148.594 318.932c.002.157.099.231.218.163l7.823-4.518c.119-.069.217-.254.216-.412l.001-.805c-.001-.16-.098-.233-.217-.164l-7.824 4.517c-.118.069-.217.254-.217.413v.806zM145.216 320.882c0 .158.098.231.218.162l1.801-1.04c.119-.068.214-.254.214-.412v-.806c0-.158-.096-.232-.214-.163l-1.803 1.04c-.118.068-.216.253-.216.412v.807zM143.914 321.922c.117-.069.214-.254.214-.413v-.804c0-.16-.097-.233-.214-.165l-6.005 3.466c-.118.068-.215.254-.215.413v.805c0 .159.097.232.217.164l6.003-3.466zM152.226 314.071c0 .158.099.232.218.164l4.191-2.421c.121-.068.216-.254.216-.412v-.805c0-.16-.097-.233-.216-.164l-4.191 2.42c-.119.068-.218.255-.218.414v.804zM145.435 317.992c0 .158.097.232.218.164l5.324-3.075c.119-.069.218-.254.218-.412v-.806c0-.159-.099-.231-.218-.164l-5.326 3.075c-.119.069-.216.254-.216.414v.804zM141.191 320.442c0 .158.098.232.216.163l2.829-1.633c.119-.069.215-.254.218-.412l-.003-.806c.003-.16-.096-.233-.215-.164l-2.829 1.633c-.118.068-.216.255-.216.413v.806zM140.222 320.197c.001-.158-.098-.232-.217-.164l-2.096 1.21c-.118.069-.215.255-.215.414v.806c0 .158.097.231.217.163l2.096-1.21c.118-.068.215-.253.216-.412l-.001-.807z"/></g><g><path fill="#E2E9FF" d="M148.594 324.511c.002.158.099.231.218.163l7.823-4.518c.119-.068.217-.254.216-.412l.001-.806c-.001-.159-.098-.233-.217-.164l-7.824 4.517c-.118.069-.217.255-.217.413v.807zM145.216 326.461c0 .158.098.231.218.162l1.801-1.04c.119-.068.214-.254.214-.412v-.806c0-.158-.096-.232-.214-.164l-1.803 1.04c-.118.069-.216.254-.216.413v.807zM143.914 327.5c.117-.069.214-.253.214-.413v-.804c0-.159-.097-.232-.214-.164l-6.005 3.466c-.118.068-.215.254-.215.413v.805c0 .159.097.232.217.164l6.003-3.467zM152.226 319.65c0 .158.099.232.218.164l4.191-2.42c.121-.069.216-.254.216-.413v-.805c0-.16-.097-.232-.216-.165l-4.191 2.42c-.119.068-.218.255-.218.414v.805zM145.435 323.571c0 .158.097.231.218.163l5.324-3.075c.119-.069.218-.254.218-.412v-.806c0-.159-.099-.231-.218-.164l-5.326 3.075c-.119.069-.216.255-.216.414v.805zM141.191 326.021c0 .158.098.232.216.163l2.829-1.633c.119-.069.215-.254.218-.412l-.003-.806c.003-.16-.096-.233-.215-.164l-2.829 1.633c-.118.068-.216.255-.216.413v.806zM140.222 325.775c.001-.158-.098-.232-.217-.164l-2.096 1.21c-.118.068-.215.254-.215.413v.806c0 .159.097.232.217.163l2.096-1.21c.118-.068.215-.253.216-.412l-.001-.806z"/></g><path fill="#38D611" d="M156.407 301.044c.002 1.918-1.166 4.149-2.605 4.981-1.44.832-2.607-.051-2.607-1.971 0-1.92 1.166-4.15 2.606-4.982 1.44-.831 2.608.051 2.606 1.972z"/><path fill="#0067DC" d="M134.533 328.123c0 1.919-1.167 4.15-2.606 4.981-1.44.832-2.608-.051-2.608-1.971s1.167-4.15 2.607-4.982c1.44-.832 2.607.05 2.607 1.972z"/></g></svg>