<svg width="113" height="125" viewBox="0 0 113 125" fill="none" xmlns="http://www.w3.org/2000/svg">
<path d="M112.532 35.8911C112.533 34.9381 112.263 34.0043 111.754 33.1985C111.245 32.3926 110.518 31.7478 109.657 31.3389C108.796 30.9299 107.837 30.7737 106.891 30.8883C105.945 31.0029 105.051 31.3837 104.312 31.9864C103.574 32.5892 103.022 33.389 102.72 34.293C102.419 35.1971 102.38 36.1681 102.608 37.0934C102.837 38.0186 103.323 38.8601 104.011 39.5198C104.699 40.1795 105.56 40.6306 106.494 40.8204V93.2261L56.5122 122.062L6.54118 93.2155V40.7887C7.78921 40.5583 8.90609 39.8698 9.67261 38.8584C10.4391 37.847 10.7999 36.5857 10.6843 35.322C10.5686 34.0583 9.98481 32.8834 9.04741 32.0279C8.11001 31.1725 6.88666 30.6981 5.61755 30.6981C4.34844 30.6981 3.12523 31.1725 2.18783 32.0279C1.25042 32.8834 0.666529 34.0583 0.550854 35.322C0.435178 36.5857 0.795974 37.847 1.56249 38.8584C2.32901 39.8698 3.4459 40.5583 4.69392 40.7887V94.2499L56.5122 124.163L107.877 94.5138L108.341 94.2499V40.7887C109.504 40.5952 110.561 39.9981 111.328 39.1025C112.094 38.2068 112.521 37.0698 112.532 35.8911ZM2.53006 35.8911C2.53006 35.2962 2.70641 34.7146 3.03698 34.2199C3.36755 33.7252 3.83741 33.3396 4.38712 33.1119C4.93683 32.8842 5.5418 32.8247 6.12537 32.9408C6.70894 33.0569 7.24497 33.3433 7.6657 33.764C8.08643 34.1847 8.37287 34.7207 8.48895 35.3042C8.60503 35.8878 8.54553 36.4927 8.31783 37.0423C8.09014 37.592 7.70454 38.0618 7.20981 38.3924C6.71508 38.7229 6.13344 38.8993 5.53844 38.8993C4.74142 38.8965 3.97785 38.5787 3.41427 38.0151C2.85068 37.4516 2.53285 36.6881 2.53006 35.8911ZM107.497 38.8993C106.902 38.8993 106.32 38.7229 105.825 38.3924C105.331 38.0618 104.945 37.592 104.717 37.0423C104.49 36.4927 104.43 35.8878 104.546 35.3042C104.662 34.7207 104.949 34.1847 105.369 33.764C105.79 33.3433 106.326 33.0569 106.91 32.9408C107.493 32.8247 108.098 32.8842 108.648 33.1119C109.198 33.3396 109.668 33.7252 109.998 34.2199C110.329 34.7146 110.505 35.2962 110.505 35.8911C110.502 36.6881 110.184 37.4516 109.621 38.0151C109.057 38.5787 108.294 38.8965 107.497 38.8993Z" fill="white"/>
<path d="M90.9239 20.0056C90.1232 19.9954 89.3319 20.1788 88.6174 20.5401C87.9028 20.9015 87.2861 21.43 86.8197 22.0809C86.3533 22.7317 86.051 23.4856 85.9385 24.2784C85.826 25.0711 85.9068 25.8792 86.1738 26.634L73.4012 34.1598C73.2521 34.253 73.1286 34.3819 73.042 34.5349C72.9554 34.6879 72.9083 34.8602 72.9052 35.036V46.5832L57.7154 56.8849L57.5888 25.6736L70.0129 18.4961C70.4792 19.0174 71.0502 19.4345 71.6886 19.72C72.3271 20.0056 73.0186 20.1531 73.718 20.1532C74.8073 20.1709 75.8738 19.8406 76.7625 19.2104C77.6512 18.5803 78.3157 17.6831 78.6593 16.6492C79.0029 15.6154 79.0077 14.499 78.6731 13.4622C78.3384 12.4255 77.6817 11.5225 76.7985 10.8847C75.9153 10.2468 74.8516 9.90734 73.7622 9.91561C72.6727 9.92389 71.6143 10.2795 70.7409 10.9307C69.8675 11.5819 69.2245 12.4947 68.9057 13.5364C68.5868 14.5782 68.6086 15.6943 68.9679 16.7228L57.5782 23.2987V9.96767C58.8006 9.71789 59.8868 9.02308 60.6261 8.0181C61.3654 7.01311 61.7053 5.76944 61.5798 4.52817C61.4542 3.2869 60.8722 2.13643 59.9467 1.2998C59.0211 0.46317 57.8179 0 56.5702 0C55.3225 0 54.1192 0.46317 53.1937 1.2998C52.2681 2.13643 51.6861 3.2869 51.5606 4.52817C51.435 5.76944 51.7749 7.01311 52.5142 8.0181C53.2535 9.02308 54.3397 9.71789 55.5622 9.96767V23.2776L44.0881 16.6384C44.2532 16.1522 44.3387 15.6425 44.3414 15.129C44.3535 13.9384 43.9467 12.7815 43.1923 11.8604C42.4378 10.9393 41.3836 10.3126 40.2139 10.0899C39.0443 9.86726 37.8335 10.0627 36.7934 10.6422C35.7532 11.2216 34.9497 12.1482 34.5235 13.2599C34.0972 14.3717 34.0753 15.5978 34.4615 16.7241C34.8477 17.8504 35.6174 18.805 36.6362 19.4212C37.6549 20.0375 38.8579 20.2762 40.0348 20.0955C41.2117 19.9148 42.2877 19.3263 43.0746 18.4327L55.5727 25.6525L55.6888 56.8955L40.3302 46.5726V34.962C40.3302 34.7858 40.2833 34.6127 40.1942 34.4606C40.1052 34.3084 39.9772 34.1828 39.8235 34.0966L26.8927 26.4968C27.052 26.0092 27.1374 25.5005 27.1461 24.9875C27.1562 23.7979 26.7472 22.6425 25.991 21.7241C25.2348 20.8057 24.1795 20.1827 23.01 19.9642C21.8404 19.7457 20.6314 19.9457 19.5946 20.5292C18.5577 21.1127 17.7592 22.0424 17.3391 23.1555C16.919 24.2685 16.904 25.4939 17.2967 26.6169C17.6894 27.7399 18.4648 28.6889 19.4871 29.2976C20.5093 29.9062 21.7133 30.1358 22.8878 29.946C24.0623 29.7563 25.1325 29.1592 25.911 28.2596L38.3034 35.5426V47.1215C38.3071 47.2881 38.3502 47.4515 38.429 47.5982C38.5079 47.745 38.6204 47.871 38.7574 47.966L56.1426 59.6398C56.3125 59.7495 56.5104 59.8082 56.7127 59.8087C56.8779 59.8077 57.0406 59.768 57.1876 59.6926L57.2722 59.6292L74.4674 47.9448C74.601 47.8498 74.7106 47.7249 74.7876 47.5802C74.8645 47.4354 74.9067 47.2748 74.9108 47.1109V35.6059L87.1765 28.3757C87.643 28.9072 88.2177 29.3329 88.8622 29.6242C89.5067 29.9155 90.2061 30.0655 90.9133 30.0644C92.2074 30.0052 93.4289 29.4493 94.3237 28.5126C95.2185 27.5759 95.7179 26.3303 95.7179 25.0349C95.7179 23.7395 95.2185 22.494 94.3237 21.5573C93.4289 20.6205 92.2074 20.0649 90.9133 20.0056H90.9239ZM73.718 12.1103C74.3155 12.1082 74.9002 12.2835 75.3981 12.6139C75.896 12.9443 76.2845 13.4151 76.5146 13.9665C76.7447 14.518 76.8061 15.1252 76.6908 15.7115C76.5755 16.2978 76.2888 16.8366 75.867 17.2598C75.4452 17.6831 74.9073 17.9716 74.3214 18.089C73.7355 18.2063 73.1279 18.1472 72.5757 17.919C72.0234 17.6909 71.5513 17.3039 71.2191 16.8072C70.8869 16.3106 70.7096 15.7265 70.7096 15.129C70.7096 14.3302 71.0262 13.564 71.5901 12.9981C72.1539 12.4323 72.9191 12.113 73.718 12.1103ZM39.3169 18.1373C38.7189 18.1394 38.1338 17.9638 37.6357 17.6329C37.1376 17.302 36.749 16.8306 36.5192 16.2786C36.2894 15.7265 36.2287 15.1187 36.3448 14.5322C36.461 13.9456 36.7487 13.4068 37.1716 12.984C37.5944 12.5611 38.1333 12.2734 38.7199 12.1573C39.3065 12.0411 39.9144 12.1018 40.4665 12.3316C41.0186 12.5614 41.49 12.9499 41.8209 13.4479C42.1518 13.946 42.3273 14.531 42.3252 15.129C42.3224 15.926 42.0046 16.6896 41.441 17.2531C40.8774 17.8167 40.1139 18.1345 39.3169 18.1373ZM22.1109 28.0485C21.5159 28.0485 20.9343 27.8721 20.4396 27.5415C19.9449 27.211 19.5593 26.7411 19.3316 26.1915C19.1039 25.6418 19.0444 25.037 19.1604 24.4535C19.2765 23.8699 19.563 23.3338 19.9837 22.9131C20.4044 22.4924 20.9404 22.206 21.524 22.0899C22.1076 21.9738 22.7126 22.0333 23.2623 22.261C23.812 22.4887 24.2818 22.8743 24.6124 23.369C24.943 23.8637 25.1193 24.4453 25.1193 25.0402C25.1165 25.8372 24.7987 26.6007 24.2351 27.1642C23.6715 27.7278 22.908 28.0457 22.1109 28.0485ZM53.5037 5.0384C53.5016 4.44045 53.6772 3.85539 54.0082 3.35734C54.3391 2.8593 54.8105 2.47068 55.3626 2.24089C55.9146 2.0111 56.5224 1.95042 57.109 2.06656C57.6956 2.18271 58.2345 2.47043 58.6574 2.89324C59.0802 3.31606 59.3679 3.85489 59.4841 4.44146C59.6002 5.02802 59.5396 5.63593 59.3097 6.18797C59.0799 6.74 58.6914 7.21137 58.1934 7.54227C57.6953 7.87317 57.1101 8.04866 56.5121 8.04657C55.715 8.04379 54.9515 7.72597 54.3879 7.16243C53.8243 6.59889 53.5065 5.83537 53.5037 5.0384ZM90.9239 28.0485C90.3289 28.0485 89.7472 27.8721 89.2525 27.5415C88.7578 27.211 88.3722 26.7411 88.1445 26.1915C87.9168 25.6418 87.8572 25.037 87.9732 24.4535C88.0893 23.8699 88.3759 23.3338 88.7966 22.9131C89.2173 22.4924 89.7534 22.206 90.3369 22.0899C90.9205 21.9738 91.5253 22.0333 92.0751 22.261C92.6248 22.4887 93.0946 22.8743 93.4252 23.369C93.7558 23.8637 93.9322 24.4453 93.9322 25.0402C93.9295 25.8372 93.6116 26.6007 93.048 27.1642C92.4845 27.7278 91.7209 28.0457 90.9239 28.0485Z" fill="white"/>
<path d="M23.0504 63.4187V82.9033L39.9291 92.6561L56.8183 82.9033L73.6969 92.6561L90.5756 82.9033V63.4187L73.6969 53.6659V73.1611L56.8183 63.4187L39.9291 73.1611V53.6659L23.0504 63.4187Z" fill="white"/>
</svg>
