<svg width="109" height="123" viewBox="0 0 109 123" fill="none" xmlns="http://www.w3.org/2000/svg">
<path d="M54.843 48.4267C53.7277 48.4288 52.6369 48.1001 51.7086 47.482C50.7803 46.864 50.0562 45.9843 49.6279 44.9546C49.1997 43.9249 49.0865 42.7913 49.3028 41.6972C49.5191 40.6032 50.0551 39.5978 50.843 38.8085C51.6308 38.0192 52.6352 37.4813 53.7288 37.263C54.8225 37.0447 55.9564 37.1557 56.9869 37.582C58.0175 38.0083 58.8985 38.7307 59.5183 39.6579C60.1382 40.585 60.469 41.6751 60.469 42.7904C60.4662 44.2826 59.873 45.713 58.8188 46.7691C57.7646 47.8253 56.3352 48.4212 54.843 48.4267ZM54.843 39.0433C54.1019 39.0433 53.3774 39.263 52.7612 39.6747C52.1449 40.0865 51.6647 40.6718 51.381 41.3564C51.0974 42.0411 51.0232 42.7945 51.1678 43.5213C51.3124 44.2482 51.6693 44.9159 52.1933 45.44C52.7174 45.964 53.385 46.3209 54.1119 46.4655C54.8388 46.61 55.5923 46.5358 56.277 46.2522C56.9617 45.9686 57.5469 45.4883 57.9586 44.8721C58.3703 44.2559 58.5901 43.5315 58.5901 42.7904C58.5873 41.7974 58.1917 40.846 57.4896 40.1439C56.7875 39.4418 55.836 39.046 54.843 39.0433Z" fill="#F9F8F8"/>
<path d="M38.8193 17.3947C40.1135 17.3947 41.1626 16.3456 41.1626 15.0515C41.1626 13.7573 40.1135 12.7083 38.8193 12.7083C37.5251 12.7083 36.476 13.7573 36.476 15.0515C36.476 16.3456 37.5251 17.3947 38.8193 17.3947Z" fill="#F9F8F8"/>
<path d="M38.8192 17.8698C38.2618 17.8698 37.7169 17.7045 37.2534 17.3948C36.79 17.0852 36.4288 16.6449 36.2155 16.13C36.0022 15.6151 35.9464 15.0485 36.0551 14.5018C36.1639 13.9552 36.4323 13.4531 36.8264 13.0589C37.2206 12.6648 37.7227 12.3964 38.2694 12.2877C38.8161 12.179 39.3829 12.2347 39.8978 12.448C40.4128 12.6613 40.853 13.0225 41.1626 13.4859C41.4723 13.9494 41.6376 14.4942 41.6376 15.0516C41.6376 15.799 41.3407 16.5158 40.8122 17.0443C40.2836 17.5728 39.5667 17.8698 38.8192 17.8698ZM38.8192 13.1728C38.4485 13.1729 38.0861 13.2826 37.7776 13.4881C37.4691 13.6936 37.2283 13.9858 37.0855 14.3279C36.9427 14.67 36.9043 15.0466 36.9751 15.4104C37.0459 15.7743 37.2228 16.109 37.4834 16.3726C37.7441 16.6362 38.0768 16.8167 38.4399 16.8916C38.803 16.9664 39.1801 16.9322 39.5238 16.7933C39.8674 16.6543 40.1623 16.4168 40.3712 16.1107C40.5802 15.8045 40.694 15.4434 40.6981 15.0727C40.7009 14.8242 40.6543 14.5776 40.5612 14.3472C40.468 14.1168 40.33 13.9073 40.1553 13.7306C39.9805 13.5539 39.7726 13.4136 39.5432 13.3179C39.3139 13.2222 39.0677 13.1728 38.8192 13.1728Z" fill="#F9F8F8"/>
<path d="M38.8193 35.8872C40.1135 35.8872 41.1626 34.8381 41.1626 33.5439C41.1626 32.2498 40.1135 31.2007 38.8193 31.2007C37.5251 31.2007 36.476 32.2498 36.476 33.5439C36.476 34.8381 37.5251 35.8872 38.8193 35.8872Z" fill="#F9F8F8"/>
<path d="M38.8192 36.3622C38.2618 36.3622 37.7169 36.1968 37.2534 35.8871C36.79 35.5775 36.4288 35.1374 36.2155 34.6224C36.0022 34.1074 35.9464 33.5409 36.0551 32.9942C36.1639 32.4475 36.4323 31.9454 36.8264 31.5513C37.2206 31.1571 37.7227 30.8887 38.2694 30.78C38.8161 30.6713 39.3829 30.727 39.8978 30.9403C40.4128 31.1536 40.853 31.5148 41.1626 31.9783C41.4723 32.4417 41.6376 32.9866 41.6376 33.544C41.6376 34.2914 41.3407 35.0082 40.8122 35.5367C40.2836 36.0652 39.5667 36.3622 38.8192 36.3622ZM38.8192 31.6652C38.4476 31.6652 38.0844 31.7754 37.7754 31.9819C37.4664 32.1883 37.2256 32.4817 37.0833 32.825C36.9411 33.1683 36.904 33.5461 36.9765 33.9105C37.049 34.275 37.2279 34.6097 37.4906 34.8725C37.7534 35.1352 38.0882 35.3142 38.4526 35.3867C38.8171 35.4592 39.1949 35.422 39.5382 35.2798C39.8815 35.1376 40.1751 34.8967 40.3815 34.5877C40.588 34.2788 40.6981 33.9156 40.6981 33.544C40.6981 33.0457 40.5002 32.5678 40.1478 32.2155C39.7954 31.8631 39.3175 31.6652 38.8192 31.6652Z" fill="#F9F8F8"/>
<path d="M54.8429 26.4088C56.1371 26.4088 57.1863 25.3597 57.1863 24.0655C57.1863 22.7713 56.1371 21.7222 54.8429 21.7222C53.5487 21.7222 52.4995 22.7713 52.4995 24.0655C52.4995 25.3597 53.5487 26.4088 54.8429 26.4088Z" fill="#F9F8F8"/>
<path d="M54.843 26.8837C54.2856 26.8837 53.7407 26.7184 53.2772 26.4087C52.8137 26.0991 52.4524 25.659 52.2391 25.144C52.0258 24.629 51.9699 24.0625 52.0787 23.5158C52.1874 22.9691 52.456 22.467 52.8501 22.0729C53.2443 21.6787 53.7465 21.4102 54.2932 21.3015C54.8399 21.1927 55.4066 21.2486 55.9216 21.4619C56.4366 21.6752 56.8767 22.0364 57.1864 22.4998C57.4961 22.9633 57.6614 23.5082 57.6614 24.0656C57.6614 24.4357 57.5885 24.8021 57.4468 25.144C57.3052 25.4859 57.0976 25.7966 56.8359 26.0583C56.5742 26.32 56.2635 26.5276 55.9216 26.6693C55.5796 26.8109 55.2132 26.8837 54.843 26.8837ZM54.843 22.1973C54.4705 22.1952 54.1058 22.3039 53.7952 22.5095C53.4846 22.7151 53.2421 23.0086 53.0986 23.3523C52.9551 23.696 52.917 24.0746 52.9892 24.44C53.0613 24.8054 53.2404 25.1411 53.5038 25.4045C53.7672 25.6679 54.103 25.8471 54.4684 25.9193C54.8339 25.9914 55.2126 25.9534 55.5564 25.8099C55.9001 25.6664 56.1934 25.4239 56.3991 25.1133C56.6048 24.8028 56.7135 24.438 56.7114 24.0656C56.7087 23.5709 56.5109 23.0974 56.1611 22.7476C55.8113 22.3978 55.3377 22.2001 54.843 22.1973Z" fill="#F9F8F8"/>
<path d="M22.8063 26.4088C24.1006 26.4088 25.1498 25.3597 25.1498 24.0655C25.1498 22.7713 24.1006 21.7222 22.8063 21.7222C21.512 21.7222 20.4626 22.7713 20.4626 24.0655C20.4626 25.3597 21.512 26.4088 22.8063 26.4088Z" fill="#F9F8F8"/>
<path d="M22.8062 26.8837C22.2487 26.8837 21.7038 26.7184 21.2403 26.4087C20.7768 26.0991 20.4156 25.659 20.2022 25.144C19.9889 24.629 19.9331 24.0625 20.0418 23.5158C20.1506 22.9691 20.419 22.467 20.8131 22.0729C21.2073 21.6787 21.7095 21.4102 22.2562 21.3015C22.8029 21.1927 23.3697 21.2486 23.8847 21.4619C24.3997 21.6752 24.8399 22.0364 25.1495 22.4998C25.4592 22.9633 25.6245 23.5082 25.6245 24.0656C25.6245 24.4357 25.5516 24.8021 25.41 25.144C25.2683 25.4859 25.0608 25.7966 24.7991 26.0583C24.5373 26.32 24.2266 26.5276 23.8847 26.6693C23.5427 26.8109 23.1763 26.8837 22.8062 26.8837ZM22.8062 22.1973C22.4341 22.1973 22.0704 22.3077 21.7611 22.5147C21.4519 22.7216 21.2111 23.0157 21.0692 23.3596C20.9273 23.7035 20.8907 24.0818 20.964 24.4466C21.0374 24.8113 21.2174 25.1461 21.4813 25.4084C21.7451 25.6707 22.0808 25.8487 22.446 25.92C22.8112 25.9913 23.1894 25.9527 23.5325 25.8088C23.8757 25.665 24.1684 25.4225 24.3736 25.1122C24.5788 24.8018 24.6871 24.4376 24.685 24.0656C24.6822 23.5691 24.4831 23.0939 24.1311 22.7439C23.779 22.3938 23.3027 22.1973 22.8062 22.1973Z" fill="#F9F8F8"/>
<path d="M22.8167 44.9117C24.111 44.9117 25.1602 43.8627 25.1602 42.5686C25.1602 41.2745 24.111 40.2253 22.8167 40.2253C21.5225 40.2253 20.4731 41.2745 20.4731 42.5686C20.4731 43.8627 21.5225 44.9117 22.8167 44.9117Z" fill="#F9F8F8"/>
<path d="M22.817 45.3762C22.2591 45.3762 21.7136 45.2107 21.2499 44.9005C20.7862 44.5904 20.425 44.1497 20.212 43.6341C19.999 43.1185 19.9437 42.5513 20.0533 42.0043C20.163 41.4574 20.4324 40.9552 20.8277 40.5615C21.2229 40.1678 21.7261 39.9003 22.2736 39.7927C22.821 39.6852 23.388 39.7426 23.9029 39.9575C24.4177 40.1724 24.8571 40.5353 25.1655 41.0001C25.474 41.465 25.6374 42.0109 25.6354 42.5687C25.6326 43.3143 25.3344 44.0283 24.8062 44.5546C24.2779 45.0808 23.5626 45.3762 22.817 45.3762ZM22.817 40.6899C22.4453 40.6899 22.082 40.8 21.773 41.0064C21.464 41.2129 21.2232 41.5063 21.081 41.8496C20.9388 42.1929 20.9015 42.5707 20.974 42.9351C21.0465 43.2996 21.2255 43.6343 21.4883 43.8971C21.7511 44.1598 22.0859 44.3388 22.4504 44.4113C22.8149 44.4838 23.1927 44.4466 23.536 44.3044C23.8793 44.1622 24.1728 43.9214 24.3792 43.6125C24.5857 43.3035 24.6958 42.9403 24.6958 42.5687C24.6958 42.0704 24.4979 41.5925 24.1455 41.2402C23.7931 40.8878 23.3153 40.6899 22.817 40.6899Z" fill="#F9F8F8"/>
<path d="M22.8063 100.611C24.1006 100.611 25.1498 99.5617 25.1498 98.2675C25.1498 96.9733 24.1006 95.9242 22.8063 95.9242C21.512 95.9242 20.4626 96.9733 20.4626 98.2675C20.4626 99.5617 21.512 100.611 22.8063 100.611Z" fill="#F9F8F8"/>
<path d="M22.8062 101.086C22.2487 101.086 21.7038 100.921 21.2403 100.611C20.7768 100.301 20.4156 99.8611 20.2022 99.3461C19.9889 98.8311 19.9331 98.2644 20.0418 97.7177C20.1506 97.171 20.419 96.6689 20.8131 96.2748C21.2073 95.8806 21.7095 95.6122 22.2562 95.5035C22.8029 95.3947 23.3697 95.4506 23.8847 95.6639C24.3997 95.8772 24.8399 96.2384 25.1495 96.7019C25.4592 97.1654 25.6245 97.7101 25.6245 98.2675C25.6217 99.0141 25.3239 99.7294 24.796 100.257C24.268 100.785 23.5528 101.083 22.8062 101.086ZM22.8062 96.3888C22.4345 96.3888 22.0712 96.4989 21.7622 96.7054C21.4532 96.9118 21.2124 97.2052 21.0702 97.5486C20.928 97.8919 20.8908 98.2696 20.9633 98.6341C21.0358 98.9986 21.2148 99.3333 21.4775 99.5961C21.7403 99.8588 22.0751 100.038 22.4396 100.11C22.8041 100.183 23.1819 100.146 23.5252 100.003C23.8685 99.8612 24.162 99.6204 24.3684 99.3115C24.5749 99.0025 24.685 98.6391 24.685 98.2675C24.6906 98.0173 24.6463 97.7685 24.5544 97.5357C24.4625 97.3028 24.3249 97.0906 24.1499 96.9117C23.9748 96.7327 23.7659 96.5905 23.5351 96.4934C23.3043 96.3964 23.0565 96.3465 22.8062 96.3465V96.3888Z" fill="#F9F8F8"/>
<path d="M38.8193 109.857C40.1135 109.857 41.1626 108.808 41.1626 107.514C41.1626 106.22 40.1135 105.171 38.8193 105.171C37.5251 105.171 36.476 106.22 36.476 107.514C36.476 108.808 37.5251 109.857 38.8193 109.857Z" fill="#F9F8F8"/>
<path d="M38.8192 110.332C38.2618 110.332 37.7169 110.167 37.2534 109.857C36.79 109.547 36.4288 109.107 36.2155 108.592C36.0022 108.077 35.9464 107.511 36.0551 106.964C36.1639 106.417 36.4323 105.915 36.8264 105.521C37.2206 105.127 37.7227 104.858 38.2694 104.75C38.8161 104.641 39.3829 104.697 39.8978 104.91C40.4128 105.123 40.853 105.485 41.1626 105.948C41.4723 106.412 41.6376 106.956 41.6376 107.514C41.6376 108.261 41.3407 108.978 40.8122 109.507C40.2836 110.035 39.5667 110.332 38.8192 110.332ZM38.8192 105.635C38.4476 105.635 38.0844 105.745 37.7754 105.952C37.4664 106.158 37.2256 106.451 37.0833 106.795C36.9411 107.138 36.904 107.516 36.9765 107.88C37.049 108.245 37.2279 108.58 37.4906 108.842C37.7534 109.105 38.0882 109.284 38.4526 109.357C38.8171 109.429 39.1949 109.392 39.5382 109.25C39.8815 109.107 40.1751 108.867 40.3815 108.558C40.588 108.249 40.6981 107.885 40.6981 107.514C40.6981 107.015 40.5002 106.538 40.1478 106.185C39.7954 105.833 39.3175 105.635 38.8192 105.635Z" fill="#F9F8F8"/>
<path d="M54.8429 100.611C56.1371 100.611 57.1863 99.5617 57.1863 98.2675C57.1863 96.9733 56.1371 95.9242 54.8429 95.9242C53.5487 95.9242 52.4995 96.9733 52.4995 98.2675C52.4995 99.5617 53.5487 100.611 54.8429 100.611Z" fill="#F9F8F8"/>
<path d="M54.843 101.086C54.2856 101.086 53.7407 100.921 53.2772 100.611C52.8137 100.301 52.4524 99.8611 52.2391 99.3461C52.0258 98.8311 51.9699 98.2644 52.0787 97.7177C52.1874 97.171 52.456 96.6689 52.8501 96.2748C53.2443 95.8806 53.7465 95.6122 54.2932 95.5035C54.8399 95.3947 55.4066 95.4506 55.9216 95.6639C56.4366 95.8772 56.8767 96.2384 57.1864 96.7019C57.4961 97.1654 57.6614 97.7101 57.6614 98.2675C57.6586 99.0141 57.3608 99.7294 56.8328 100.257C56.3049 100.785 55.5897 101.083 54.843 101.086ZM54.843 96.3888C54.471 96.3867 54.1066 96.495 53.7962 96.7002C53.4858 96.9054 53.2434 97.1981 53.0996 97.5412C52.9558 97.8843 52.917 98.2625 52.9883 98.6277C53.0596 98.9928 53.2377 99.3285 53.5001 99.5923C53.7624 99.8562 54.0972 100.036 54.462 100.11C54.8268 100.183 55.2051 100.146 55.549 100.004C55.893 99.8625 56.187 99.6217 56.3939 99.3125C56.6009 99.0033 56.7114 98.6396 56.7114 98.2675C56.7171 98.0182 56.6729 97.7703 56.5817 97.5381C56.4904 97.306 56.3538 97.0942 56.1799 96.9154C56.006 96.7366 55.7982 96.5942 55.5686 96.4965C55.3391 96.3988 55.0925 96.3479 54.843 96.3465V96.3888Z" fill="#F9F8F8"/>
<path d="M6.46576 54.3798C7.76002 54.3798 8.80933 53.3307 8.80933 52.0366C8.80933 50.7424 7.76002 49.6934 6.46576 49.6934C5.17149 49.6934 4.12231 50.7424 4.12231 52.0366C4.12231 53.3307 5.17149 54.3798 6.46576 54.3798Z" fill="#F9F8F8"/>
<path d="M6.46577 54.8545C5.90835 54.8545 5.36355 54.6892 4.90007 54.3796C4.43659 54.0699 4.07534 53.6298 3.86203 53.1148C3.64871 52.5999 3.59286 52.0333 3.70161 51.4866C3.81035 50.9399 4.07877 50.4378 4.47292 50.0437C4.86708 49.6495 5.36924 49.381 5.91595 49.2723C6.46266 49.1635 7.02941 49.2194 7.5444 49.4327C8.05939 49.646 8.49954 50.0072 8.80923 50.4707C9.11891 50.9341 9.28418 51.479 9.28418 52.0364C9.2814 52.783 8.9836 53.4981 8.45565 54.026C7.92771 54.5539 7.21239 54.8517 6.46577 54.8545ZM6.46577 50.1576C6.09371 50.1555 5.72946 50.264 5.41909 50.4691C5.10872 50.6743 4.86621 50.967 4.72238 51.3101C4.57855 51.6532 4.53988 52.0312 4.61118 52.3964C4.68248 52.7615 4.86064 53.0972 5.12299 53.361C5.38533 53.6249 5.71999 53.8049 6.08475 53.8782C6.44951 53.9516 6.82794 53.915 7.17189 53.7731C7.51583 53.6312 7.80985 53.3904 8.01678 53.0812C8.22371 52.772 8.33414 52.4084 8.33414 52.0364C8.33415 51.5399 8.13763 51.0636 7.78755 50.7116C7.43746 50.3596 6.96226 50.1604 6.46577 50.1576Z" fill="#F9F8F8"/>
<path d="M6.62421 72.8722C7.91834 72.8722 8.96741 71.8231 8.96741 70.5289C8.96741 69.2348 7.91834 68.1855 6.62421 68.1855C5.33008 68.1855 4.28101 69.2348 4.28101 70.5289C4.28101 71.8231 5.33008 72.8722 6.62421 72.8722Z" fill="#F9F8F8"/>
<path d="M6.62409 73.347C6.06667 73.347 5.52175 73.1818 5.05827 72.8721C4.59479 72.5625 4.23367 72.1224 4.02035 71.6074C3.80704 71.0925 3.75118 70.5259 3.85993 69.9792C3.96868 69.4326 4.23709 68.9303 4.63125 68.5362C5.0254 68.1421 5.52757 67.8737 6.07428 67.765C6.62099 67.6562 7.18774 67.7121 7.70273 67.9254C8.21771 68.1387 8.65787 68.4999 8.96755 68.9633C9.27724 69.4268 9.4425 69.9716 9.4425 70.529C9.43972 71.2756 9.14192 71.9907 8.61398 72.5186C8.08603 73.0465 7.37071 73.3443 6.62409 73.347ZM6.62409 68.6502C6.25248 68.6502 5.88924 68.7604 5.58025 68.9668C5.27127 69.1732 5.03039 69.4666 4.88818 69.8099C4.74597 70.1532 4.70886 70.531 4.78136 70.8954C4.85386 71.2599 5.03272 71.5948 5.29549 71.8575C5.55826 72.1202 5.89303 72.2991 6.25751 72.3716C6.62198 72.4441 6.99977 72.4068 7.3431 72.2646C7.68642 72.1224 7.97998 71.8817 8.18644 71.5728C8.3929 71.2638 8.50303 70.9006 8.50303 70.529C8.50303 70.0307 8.30507 69.5528 7.9527 69.2005C7.60034 68.8482 7.12241 68.6502 6.62409 68.6502Z" fill="#F9F8F8"/>
<path d="M70.7084 17.3947C72.0026 17.3947 73.0518 16.3456 73.0518 15.0515C73.0518 13.7573 72.0026 12.7083 70.7084 12.7083C69.4141 12.7083 68.3649 13.7573 68.3649 15.0515C68.3649 16.3456 69.4141 17.3947 70.7084 17.3947Z" fill="#F9F8F8"/>
<path d="M70.7083 17.8698C70.1509 17.8698 69.606 17.7045 69.1425 17.3948C68.679 17.0852 68.3178 16.6449 68.1045 16.13C67.8911 15.6151 67.8353 15.0485 67.944 14.5018C68.0528 13.9552 68.3212 13.4531 68.7154 13.0589C69.1095 12.6648 69.6117 12.3964 70.1584 12.2877C70.7051 12.179 71.2718 12.2347 71.7868 12.448C72.3018 12.6613 72.742 13.0225 73.0517 13.4859C73.3613 13.9494 73.5266 14.4942 73.5266 15.0516C73.5266 15.4217 73.4537 15.7881 73.3121 16.13C73.1704 16.4719 72.9629 16.7826 72.7012 17.0443C72.4395 17.3059 72.1288 17.5136 71.7868 17.6552C71.4449 17.7969 71.0784 17.8698 70.7083 17.8698ZM70.7083 13.1728C70.3363 13.1707 69.9719 13.2792 69.6615 13.4844C69.3512 13.6895 69.1088 13.9822 68.9649 14.3253C68.8211 14.6684 68.7823 15.0465 68.8536 15.4116C68.9249 15.7767 69.1031 16.1125 69.3654 16.3763C69.6278 16.6402 69.9626 16.82 70.3273 16.8934C70.6921 16.9667 71.0704 16.9303 71.4143 16.7884C71.7583 16.6465 72.0523 16.4057 72.2592 16.0965C72.4661 15.7873 72.5766 15.4236 72.5766 15.0516C72.5766 14.5552 72.3802 14.0789 72.0301 13.7269C71.68 13.3748 71.2048 13.1756 70.7083 13.1728Z" fill="#F9F8F8"/>
<path d="M70.7084 35.8872C72.0026 35.8872 73.0518 34.8381 73.0518 33.5439C73.0518 32.2498 72.0026 31.2007 70.7084 31.2007C69.4141 31.2007 68.3649 32.2498 68.3649 33.5439C68.3649 34.8381 69.4141 35.8872 70.7084 35.8872Z" fill="#F9F8F8"/>
<path d="M70.7083 36.3622C70.1509 36.3622 69.606 36.1968 69.1425 35.8871C68.679 35.5775 68.3178 35.1374 68.1045 34.6224C67.8911 34.1074 67.8353 33.5409 67.944 32.9942C68.0528 32.4475 68.3212 31.9454 68.7154 31.5513C69.1095 31.1571 69.6117 30.8887 70.1584 30.78C70.7051 30.6713 71.2718 30.727 71.7868 30.9403C72.3018 31.1536 72.742 31.5148 73.0517 31.9783C73.3613 32.4417 73.5266 32.9866 73.5266 33.544C73.5266 33.9141 73.4537 34.2805 73.3121 34.6224C73.1704 34.9643 72.9629 35.275 72.7012 35.5367C72.4395 35.7984 72.1288 36.006 71.7868 36.1477C71.4449 36.2893 71.0784 36.3622 70.7083 36.3622ZM70.7083 31.6652C70.3363 31.6631 69.9719 31.7715 69.6615 31.9767C69.3512 32.1819 69.1088 32.4746 68.9649 32.8177C68.8211 33.1608 68.7823 33.5388 68.8536 33.904C68.9249 34.2691 69.1031 34.6049 69.3654 34.8687C69.6278 35.1326 69.9626 35.3124 70.3273 35.3858C70.6921 35.4592 71.0704 35.4225 71.4143 35.2807C71.7583 35.1388 72.0523 34.8981 72.2592 34.5889C72.4661 34.2797 72.5766 33.916 72.5766 33.544C72.5766 33.0475 72.3802 32.5712 72.0301 32.2192C71.68 31.8672 71.2048 31.668 70.7083 31.6652Z" fill="#F9F8F8"/>
<path d="M86.7213 26.4088C88.0155 26.4088 89.0647 25.3597 89.0647 24.0655C89.0647 22.7713 88.0155 21.7222 86.7213 21.7222C85.4271 21.7222 84.3779 22.7713 84.3779 24.0655C84.3779 25.3597 85.4271 26.4088 86.7213 26.4088Z" fill="#F9F8F8"/>
<path d="M86.7214 26.8837C86.164 26.8837 85.619 26.7184 85.1556 26.4087C84.6921 26.0991 84.331 25.659 84.1176 25.144C83.9043 24.629 83.8485 24.0625 83.9572 23.5158C84.066 22.9691 84.3344 22.467 84.7285 22.0729C85.1227 21.6787 85.6249 21.4102 86.1716 21.3015C86.7183 21.1927 87.2849 21.2486 87.7999 21.4619C88.3149 21.6752 88.7552 22.0364 89.0648 22.4998C89.3745 22.9633 89.5398 23.5082 89.5398 24.0656C89.5398 24.4357 89.4669 24.8021 89.3253 25.144C89.1836 25.4859 88.9759 25.7966 88.7142 26.0583C88.4525 26.32 88.1418 26.5276 87.7999 26.6693C87.4579 26.8109 87.0915 26.8837 86.7214 26.8837ZM86.7214 22.1973C86.3489 22.1952 85.9841 22.3039 85.6735 22.5095C85.363 22.7151 85.1205 23.0086 84.977 23.3523C84.8334 23.696 84.7954 24.0746 84.8676 24.44C84.9397 24.8054 85.1189 25.1411 85.3823 25.4045C85.6457 25.6679 85.9815 25.8471 86.3469 25.9193C86.7124 25.9914 87.091 25.9534 87.4347 25.8099C87.7785 25.6664 88.0719 25.4239 88.2775 25.1133C88.4832 24.8028 88.5918 24.438 88.5898 24.0656C88.587 23.5709 88.3892 23.0974 88.0394 22.7476C87.6896 22.3978 87.216 22.2001 86.7214 22.1973Z" fill="#F9F8F8"/>
<path d="M86.7106 44.9117C88.0048 44.9117 89.0541 43.8627 89.0541 42.5686C89.0541 41.2745 88.0048 40.2253 86.7106 40.2253C85.4164 40.2253 84.3673 41.2745 84.3673 42.5686C84.3673 43.8627 85.4164 44.9117 86.7106 44.9117Z" fill="#F9F8F8"/>
<path d="M86.7108 45.3762C86.1529 45.3762 85.6076 45.2107 85.1439 44.9005C84.6802 44.5904 84.319 44.1497 84.106 43.6341C83.893 43.1185 83.8378 42.5513 83.9474 42.0043C84.057 41.4574 84.3264 40.9552 84.7217 40.5615C85.1169 40.1678 85.6201 39.9003 86.1675 39.7927C86.7149 39.6852 87.2818 39.7426 87.7966 39.9575C88.3114 40.1724 88.7509 40.5353 89.0594 41.0001C89.3678 41.465 89.5312 42.0109 89.5292 42.5687C89.5264 43.3143 89.2282 44.0283 88.7 44.5546C88.1717 45.0808 87.4564 45.3762 86.7108 45.3762ZM86.7108 40.6899C86.3391 40.6899 85.9759 40.8 85.6669 41.0064C85.3579 41.2129 85.1171 41.5063 84.9749 41.8496C84.8326 42.1929 84.7955 42.5707 84.868 42.9351C84.9405 43.2996 85.1194 43.6343 85.3822 43.8971C85.6449 44.1598 85.9798 44.3388 86.3443 44.4113C86.7088 44.4838 87.0864 44.4466 87.4298 44.3044C87.7731 44.1622 88.0666 43.9214 88.2731 43.6125C88.4796 43.3035 88.5897 42.9403 88.5897 42.5687C88.5897 42.0704 88.3917 41.5925 88.0394 41.2402C87.687 40.8878 87.2091 40.6899 86.7108 40.6899Z" fill="#F9F8F8"/>
<path d="M86.7213 100.611C88.0155 100.611 89.0647 99.5617 89.0647 98.2675C89.0647 96.9733 88.0155 95.9242 86.7213 95.9242C85.4271 95.9242 84.3779 96.9733 84.3779 98.2675C84.3779 99.5617 85.4271 100.611 86.7213 100.611Z" fill="#F9F8F8"/>
<path d="M86.7214 101.086C86.164 101.086 85.619 100.921 85.1556 100.611C84.6921 100.301 84.331 99.8611 84.1176 99.3461C83.9043 98.8311 83.8485 98.2644 83.9572 97.7177C84.066 97.171 84.3344 96.6689 84.7285 96.2748C85.1227 95.8806 85.6249 95.6122 86.1716 95.5035C86.7183 95.3947 87.2849 95.4506 87.7999 95.6639C88.3149 95.8772 88.7552 96.2384 89.0648 96.7019C89.3745 97.1654 89.5398 97.7101 89.5398 98.2675C89.537 99.0141 89.2392 99.7294 88.7113 100.257C88.1833 100.785 87.468 101.083 86.7214 101.086ZM86.7214 96.3888C86.3493 96.3867 85.9851 96.495 85.6747 96.7002C85.3643 96.9054 85.1218 97.1981 84.978 97.5412C84.8342 97.8843 84.7955 98.2625 84.8668 98.6277C84.9381 98.9928 85.1161 99.3285 85.3785 99.5923C85.6408 99.8562 85.9756 100.036 86.3404 100.11C86.7051 100.183 87.0834 100.146 87.4274 100.004C87.7713 99.8625 88.0655 99.6217 88.2724 99.3125C88.4793 99.0033 88.5898 98.6396 88.5898 98.2675C88.5954 98.0182 88.5513 97.7703 88.46 97.5381C88.3688 97.306 88.2322 97.0942 88.0582 96.9154C87.8843 96.7366 87.6766 96.5942 87.4471 96.4965C87.2176 96.3988 86.9708 96.3479 86.7214 96.3465V96.3888Z" fill="#F9F8F8"/>
<path d="M70.7084 109.857C72.0026 109.857 73.0518 108.808 73.0518 107.514C73.0518 106.22 72.0026 105.171 70.7084 105.171C69.4141 105.171 68.3649 106.22 68.3649 107.514C68.3649 108.808 69.4141 109.857 70.7084 109.857Z" fill="#F9F8F8"/>
<path d="M70.7083 110.332C70.1509 110.332 69.606 110.167 69.1425 109.857C68.679 109.547 68.3178 109.107 68.1045 108.592C67.8911 108.077 67.8353 107.511 67.944 106.964C68.0528 106.417 68.3212 105.915 68.7154 105.521C69.1095 105.127 69.6117 104.858 70.1584 104.75C70.7051 104.641 71.2718 104.697 71.7868 104.91C72.3018 105.123 72.742 105.485 73.0517 105.948C73.3613 106.412 73.5266 106.956 73.5266 107.514C73.5266 107.884 73.4537 108.25 73.3121 108.592C73.1704 108.934 72.9629 109.245 72.7012 109.507C72.4395 109.768 72.1288 109.976 71.7868 110.117C71.4449 110.259 71.0784 110.332 70.7083 110.332ZM70.7083 105.635C70.3363 105.633 69.9719 105.741 69.6615 105.946C69.3512 106.152 69.1088 106.444 68.9649 106.787C68.8211 107.131 68.7823 107.509 68.8536 107.874C68.9249 108.239 69.1031 108.575 69.3654 108.839C69.6278 109.102 69.9626 109.282 70.3273 109.356C70.6921 109.429 71.0704 109.393 71.4143 109.251C71.7583 109.109 72.0523 108.868 72.2592 108.559C72.4661 108.25 72.5766 107.886 72.5766 107.514C72.5766 107.017 72.3802 106.541 72.0301 106.189C71.68 105.837 71.2048 105.638 70.7083 105.635Z" fill="#F9F8F8"/>
<path d="M103.062 54.3798C104.356 54.3798 105.405 53.3307 105.405 52.0366C105.405 50.7424 104.356 49.6934 103.062 49.6934C101.767 49.6934 100.718 50.7424 100.718 52.0366C100.718 53.3307 101.767 54.3798 103.062 54.3798Z" fill="#F9F8F8"/>
<path d="M103.062 54.8545C102.504 54.8545 101.959 54.6892 101.496 54.3796C101.032 54.0699 100.671 53.6298 100.458 53.1148C100.245 52.5999 100.189 52.0333 100.297 51.4866C100.406 50.9399 100.675 50.4378 101.069 50.0437C101.463 49.6495 101.965 49.381 102.512 49.2723C103.059 49.1635 103.625 49.2194 104.14 49.4327C104.655 49.646 105.096 50.0072 105.405 50.4707C105.715 50.9341 105.88 51.479 105.88 52.0364C105.877 52.783 105.58 53.4981 105.052 54.026C104.524 54.5539 103.808 54.8517 103.062 54.8545ZM103.062 50.1576C102.69 50.1576 102.327 50.2678 102.018 50.4743C101.709 50.6807 101.468 50.9741 101.326 51.3174C101.184 51.6607 101.146 52.0385 101.219 52.403C101.291 52.7674 101.47 53.1022 101.733 53.3649C101.996 53.6277 102.331 53.8065 102.695 53.879C103.06 53.9515 103.438 53.9144 103.781 53.7722C104.124 53.63 104.418 53.3891 104.624 53.0802C104.831 52.7712 104.941 52.408 104.941 52.0364C104.941 51.5381 104.743 51.0602 104.39 50.7079C104.038 50.3555 103.56 50.1576 103.062 50.1576Z" fill="#F9F8F8"/>
<path d="M102.903 72.8722C104.198 72.8722 105.247 71.8231 105.247 70.5289C105.247 69.2348 104.198 68.1855 102.903 68.1855C101.609 68.1855 100.56 69.2348 100.56 70.5289C100.56 71.8231 101.609 72.8722 102.903 72.8722Z" fill="#F9F8F8"/>
<path d="M102.903 73.347C102.346 73.347 101.801 73.1818 101.338 72.8721C100.874 72.5625 100.513 72.1224 100.3 71.6074C100.086 71.0925 100.03 70.5259 100.139 69.9792C100.248 69.4326 100.516 68.9303 100.91 68.5362C101.305 68.1421 101.807 67.8737 102.354 67.765C102.9 67.6562 103.467 67.7121 103.982 67.9254C104.497 68.1387 104.937 68.4999 105.247 68.9633C105.557 69.4268 105.722 69.9716 105.722 70.529C105.722 71.2764 105.425 71.9932 104.896 72.5217C104.368 73.0502 103.651 73.347 102.903 73.347ZM102.903 68.6502C102.531 68.6481 102.167 68.7565 101.857 68.9616C101.546 69.1668 101.304 69.4595 101.16 69.8026C101.016 70.1457 100.977 70.5239 101.049 70.889C101.12 71.2541 101.298 71.5898 101.561 71.8536C101.823 72.1174 102.158 72.2975 102.522 72.3708C102.887 72.4442 103.266 72.4076 103.609 72.2657C103.953 72.1238 104.247 71.883 104.454 71.5738C104.661 71.2646 104.772 70.901 104.772 70.529C104.772 70.0326 104.575 69.5563 104.225 69.2043C103.875 68.8522 103.4 68.653 102.903 68.6502Z" fill="#F9F8F8"/>
<path d="M54.8851 11.2728C53.7703 11.2728 52.6805 10.9422 51.7536 10.3228C50.8266 9.70351 50.1041 8.82326 49.6775 7.79334C49.2508 6.76342 49.1392 5.63011 49.3567 4.53676C49.5742 3.4434 50.1111 2.43913 50.8994 1.65086C51.6877 0.862596 52.692 0.325798 53.7855 0.108316C54.8789 -0.109166 56.0123 0.00240797 57.0423 0.429014C58.0722 0.855621 58.9526 1.57808 59.5719 2.50498C60.1913 3.43188 60.522 4.52168 60.522 5.63646C60.522 7.13132 59.9281 8.56489 58.871 9.62192C57.8139 10.679 56.3801 11.2728 54.8851 11.2728ZM54.8851 1.88936C54.141 1.88727 53.413 2.10617 52.7934 2.51825C52.1738 2.93034 51.6906 3.51703 51.4049 4.20408C51.1191 4.89112 51.0439 5.64756 51.1885 6.37745C51.3332 7.10734 51.6913 7.77781 52.2174 8.30396C52.7436 8.8301 53.4141 9.18814 54.1441 9.33279C54.874 9.47744 55.6305 9.40217 56.3176 9.11646C57.0047 8.83075 57.5914 8.34756 58.0035 7.72801C58.4156 7.10847 58.6345 6.38054 58.6325 5.63646C58.6297 4.64353 58.2339 3.69206 57.5318 2.98996C56.8296 2.28785 55.8781 1.89214 54.8851 1.88936Z" fill="#F9F8F8"/>
<path d="M6.62412 39.1804C5.50927 39.1804 4.41953 38.8499 3.49257 38.2306C2.56561 37.6112 1.8431 36.7309 1.41647 35.701C0.989835 34.6711 0.878254 33.5378 1.09575 32.4444C1.31325 31.351 1.85008 30.3466 2.6384 29.5583C3.42671 28.77 4.43105 28.2332 5.52448 28.0158C6.6179 27.7983 7.75129 27.91 8.78127 28.3366C9.81126 28.7632 10.6916 29.4855 11.3109 30.4125C11.9303 31.3394 12.261 32.4292 12.261 33.544C12.2582 35.038 11.6634 36.4701 10.6069 37.5265C9.55039 38.583 8.11823 39.1776 6.62412 39.1804ZM6.62412 29.7968C5.88343 29.7989 5.16003 30.0205 4.54518 30.4335C3.93033 30.8465 3.45167 31.4325 3.16966 32.1174C2.88766 32.8022 2.81488 33.5553 2.96066 34.2815C3.10644 35.0077 3.46417 35.6743 3.98866 36.1973C4.51315 36.7203 5.18095 37.0761 5.90756 37.2199C6.63417 37.3636 7.38704 37.2887 8.07116 37.0048C8.75527 36.7209 9.33987 36.2406 9.75116 35.6246C10.1625 35.0086 10.382 34.2846 10.382 33.544C10.3681 32.5575 9.96569 31.6164 9.26216 30.9248C8.55862 30.2331 7.61071 29.8468 6.62412 29.8496V29.7968Z" fill="#F9F8F8"/>
<path d="M6.62412 94.6578C5.50927 94.6578 4.41953 94.3272 3.49257 93.7078C2.56561 93.0885 1.8431 92.2082 1.41647 91.1783C0.989835 90.1484 0.878254 89.0151 1.09575 87.9217C1.31325 86.8283 1.85008 85.824 2.6384 85.0358C3.42671 84.2475 4.43105 83.7107 5.52448 83.4932C6.6179 83.2757 7.75129 83.3873 8.78127 83.8139C9.81126 84.2405 10.6916 84.963 11.3109 85.8899C11.9303 86.8168 12.261 87.9066 12.261 89.0214C12.2582 90.5154 11.6634 91.9474 10.6069 93.0038C9.55039 94.0603 8.11823 94.655 6.62412 94.6578ZM6.62412 85.2743C5.88343 85.2764 5.16003 85.4979 4.54518 85.9109C3.93033 86.3239 3.45167 86.9098 3.16966 87.5947C2.88766 88.2796 2.81488 89.0326 2.96066 89.7588C3.10644 90.485 3.46417 91.1516 3.98866 91.6746C4.51315 92.1976 5.18095 92.5534 5.90756 92.6972C6.63417 92.8409 7.38704 92.766 8.07116 92.4821C8.75527 92.1982 9.33987 91.718 9.75116 91.102C10.1625 90.4861 10.382 89.7621 10.382 89.0214C10.382 88.5284 10.2847 88.0403 10.0957 87.585C9.90674 87.1297 9.6298 86.7161 9.28071 86.368C8.93162 86.02 8.51722 85.7441 8.06136 85.5564C7.6055 85.3688 7.11711 85.2729 6.62412 85.2743Z" fill="#F9F8F8"/>
<path d="M102.893 39.1804C101.778 39.1804 100.688 38.8499 99.7612 38.2306C98.8342 37.6112 98.1117 36.7309 97.685 35.701C97.2584 34.6711 97.1468 33.5378 97.3643 32.4444C97.5818 31.351 98.1186 30.3466 98.907 29.5583C99.6953 28.77 100.7 28.2332 101.793 28.0158C102.887 27.7983 104.02 27.91 105.05 28.3366C106.08 28.7632 106.96 29.4855 107.58 30.4125C108.199 31.3394 108.53 32.4292 108.53 33.544C108.527 35.038 107.932 36.4701 106.876 37.5265C105.819 38.583 104.387 39.1776 102.893 39.1804ZM102.893 29.7968C102.152 29.7989 101.429 30.0205 100.814 30.4335C100.199 30.8465 99.7202 31.4325 99.4382 32.1174C99.1562 32.8022 99.0836 33.5553 99.2294 34.2815C99.3751 35.0077 99.7329 35.6743 100.257 36.1973C100.782 36.7203 101.45 37.0761 102.176 37.2199C102.903 37.3636 103.656 37.2887 104.34 37.0048C105.024 36.7209 105.609 36.2406 106.02 35.6246C106.431 35.0086 106.651 34.2846 106.651 33.544C106.637 32.5575 106.234 31.6164 105.531 30.9248C104.827 30.2331 103.879 29.8468 102.893 29.8496V29.7968Z" fill="#F9F8F8"/>
<path d="M102.893 94.6578C101.778 94.6578 100.688 94.3272 99.7612 93.7078C98.8342 93.0885 98.1117 92.2082 97.685 91.1783C97.2584 90.1484 97.1468 89.0151 97.3643 87.9217C97.5818 86.8283 98.1186 85.824 98.907 85.0358C99.6953 84.2475 100.7 83.7107 101.793 83.4932C102.887 83.2757 104.02 83.3873 105.05 83.8139C106.08 84.2405 106.96 84.963 107.58 85.8899C108.199 86.8168 108.53 87.9066 108.53 89.0214C108.527 90.5154 107.932 91.9474 106.876 93.0038C105.819 94.0603 104.387 94.655 102.893 94.6578ZM102.893 85.2743C102.152 85.2764 101.429 85.4979 100.814 85.9109C100.199 86.3239 99.7202 86.9098 99.4382 87.5947C99.1562 88.2796 99.0836 89.0326 99.2294 89.7588C99.3751 90.485 99.7329 91.1516 100.257 91.6746C100.782 92.1976 101.45 92.5534 102.176 92.6972C102.903 92.8409 103.656 92.766 104.34 92.4821C105.024 92.1982 105.609 91.718 106.02 91.102C106.431 90.4861 106.651 89.7621 106.651 89.0214C106.651 88.5284 106.553 88.0403 106.364 87.585C106.176 87.1297 105.898 86.7161 105.549 86.368C105.2 86.02 104.786 85.7441 104.33 85.5564C103.874 85.3688 103.386 85.2729 102.893 85.2743Z" fill="#F9F8F8"/>
<path d="M54.8851 122.734C53.7698 122.734 52.6796 122.403 51.7524 121.784C50.8252 121.164 50.1028 120.283 49.6764 119.252C49.2501 118.222 49.1392 117.088 49.3575 115.994C49.5759 114.901 50.1138 113.896 50.9031 113.108C51.6925 112.321 52.6979 111.785 53.792 111.568C54.8862 111.352 56.0198 111.465 57.0496 111.893C58.0794 112.322 58.959 113.046 59.5771 113.974C60.1952 114.902 60.5241 115.993 60.522 117.108C60.5192 118.601 59.924 120.032 58.8672 121.087C57.8104 122.142 56.3782 122.734 54.8851 122.734ZM54.8851 113.351C54.1414 113.349 53.4139 113.567 52.7946 113.979C52.1752 114.39 51.692 114.977 51.4059 115.663C51.1199 116.349 51.0438 117.105 51.1876 117.835C51.3314 118.565 51.6886 119.235 52.2137 119.762C52.7388 120.288 53.4084 120.647 54.1376 120.793C54.8669 120.939 55.623 120.865 56.3102 120.581C56.9975 120.297 57.585 119.815 57.9984 119.197C58.4117 118.579 58.6324 117.852 58.6324 117.108C58.6214 116.12 58.2224 115.175 57.5215 114.478C56.8205 113.781 55.8736 113.388 54.8851 113.382V113.351Z" fill="#F9F8F8"/>
<path d="M22.8168 60.8288V79.3319L38.8298 88.5781L54.8535 79.3319L70.8665 88.5676L86.8796 79.3319V60.8288L70.8665 51.5825V70.0856L54.8535 60.8288L38.8298 70.0856V51.5825L22.8168 60.8288Z" fill="#F9F8F8"/>
</svg>
