<?xml version="1.0" encoding="UTF-8"?><svg id="Layer_1" xmlns="http://www.w3.org/2000/svg" viewBox="0 0 55.87 55.87"><defs><style>.cls-1{fill:#fb007c;}.cls-2{fill:#ffc5e0;}</style></defs><g><path class="cls-1" d="M44.43,14.15c.14,.28,.12,.48-.05,.74-1.71,2.51-3.4,5.04-5.1,7.56-.48,.71-.96,1.43-1.44,2.14-.09,.13-.17,.27-.34,.3-.19-.04-.26-.2-.35-.34-1.46-2.17-2.91-4.34-4.37-6.51-.71-1.06-1.41-2.12-2.13-3.17-.15-.23-.18-.42-.05-.67,.55-1.08,1.09-2.18,1.62-3.27,.11-.24,.26-.32,.52-.32,3.18,0,6.37,0,9.55,0,.26,0,.41,.08,.52,.32,.52,1.08,1.06,2.17,1.61,3.24Zm-4.17,.11h3.62c-.54-1.08-1.04-2.1-1.54-3.11h-2.7c.21,1.05,.41,2.08,.62,3.11Zm3.48,.52c-1.17,0-2.32,0-3.48,0-.7,2.78-1.39,5.51-2.08,8.25,.47-.46,5.49-7.97,5.56-8.25Zm-8.46-.52h4.46c-.21-1.06-.42-2.08-.62-3.12h-3.23c-.2,1.04-.4,2.06-.61,3.12Zm4.35,.9c.03-.11,.09-.23,0-.35-.44-.07-4.07-.05-4.3,.03,.03,.3,1.98,8.06,2.15,8.57,.11-.07,.11-.19,.13-.29,.67-2.65,1.34-5.31,2.01-7.96Zm-2.88,7.88c.03-.35-1.9-8.01-2.06-8.24h-3.46c1.86,2.78,3.68,5.49,5.52,8.24Zm-1.38-11.9h-2.63c-.38,.57-1.48,2.87-1.49,3.12h3.49c.21-1.03,.42-2.07,.63-3.12Z"/><path class="cls-2" d="M43.89,14.25h-3.62c-.21-1.04-.41-2.06-.62-3.11h2.7c.5,1.01,1.01,2.04,1.54,3.11Z"/><path class="cls-2" d="M39.63,14.81c.08,.12,.02,.24,0,.35-.67,2.65-1.34,5.31-2.01,7.96-.03,.1-.02,.22-.13,.29-.17-.51-2.12-8.27-2.15-8.57,.23-.07,3.86-.1,4.3-.03Z"/><path class="cls-2" d="M32.73,11.14h2.63c-.21,1.06-.42,2.09-.63,3.12h-3.49c0-.25,1.1-2.55,1.49-3.12Z"/></g><g><path class="cls-1" d="M25.72,37.37H13.02v-14.8c0-4.44,2.85-8.05,6.35-8.05h.25l6.11,7.88v14.97Zm-11.7-1h10.7v-13.63l-5.59-7.22c-2.84,.17-5.11,3.26-5.11,7.05v13.8Z"/><rect class="cls-1" x="15.33" y="38.58" width="1" height="13.39"/><rect class="cls-1" x="21.84" y="38.58" width="1" height="13.39"/><g><path class="cls-1" d="M15.71,4.89h6.54v4.98c0,1.81-1.47,3.27-3.27,3.27h0c-1.81,0-3.27-1.47-3.27-3.27V4.89h0Z"/><path class="cls-1" d="M18.98,13.63c-2.08,0-3.77-1.69-3.77-3.77V4.39h7.54v5.48c0,2.08-1.69,3.77-3.77,3.77Zm-2.77-8.25v4.48c0,1.53,1.24,2.77,2.77,2.77s2.77-1.24,2.77-2.77V5.39h-5.54Z"/></g></g><path class="cls-1" d="M36.51,30.47c-1.75,0-4.36-.32-6.99-1.83-1.89-1.08-3.52-2.62-4.72-4.47l.84-.55c1.12,1.71,2.63,3.14,4.38,4.15,2.99,1.71,5.96,1.77,7.46,1.66l.08,1c-.3,.02-.65,.04-1.05,.04Z"/></svg>