<?xml version="1.0" encoding="UTF-8"?><svg id="Layer_1" xmlns="http://www.w3.org/2000/svg" viewBox="0 0 55.87 55.87"><defs><style>.cls-1{fill:#fb007c;}.cls-2{fill:#ffc5e0;}</style></defs><g><g><path class="cls-2" d="M33.18,34.41v9.83h-8.05v-9.83c0-2.87,1.8-5.2,4.02-5.2l4.02,5.2Z"/><path class="cls-1" d="M33.43,44.5h-8.55v-10.08c0-3,1.92-5.45,4.27-5.45h.12l4.15,5.36v10.17Zm-8.05-.5h7.55v-9.5l-3.89-5.03c-2.03,.08-3.65,2.27-3.65,4.94v9.58Z"/></g><rect class="cls-1" x="26.47" y="45.42" width=".5" height="9.21"/><rect class="cls-1" x="30.95" y="45.42" width=".5" height="9.21"/><path class="cls-1" d="M26.64,22.25h4.5v3.42c0,1.24-1.01,2.25-2.25,2.25h0c-1.24,0-2.25-1.01-2.25-2.25v-3.42h0Z"/></g><g><path class="cls-1" d="M14.84,29.36l.12,.17H3.66v-.04c-.02-.09,.02-.14,.05-.18,0,0,.01-.01,.02-.02l.15-.22c1.3-1.81,2.6-3.63,3.9-5.44,.09-.13,.14-.26,.14-.42,0-.89,0-1.79,0-2.66v-.41s0-.03,0-.05c0-.06,0-.14,.03-.21l.02-.03h.04c.18,.05,1.86,1.01,2.02,1.16l.02,.02v.03c-.02,.07-.07,.1-.11,.12h-.02s-.39,.24-.39,.24c-.37,.21-.74,.43-1.12,.64-.1,.06-.13,.12-.13,.23,0,.35,0,.68,0,.99,0,.12,.03,.22,.11,.32,.42,.58,.83,1.16,1.25,1.74l.43,.61c.1,.13,.19,.27,.29,.41,.03,.04,.07,.09,.08,.1,0,0,.04-.06,.07-.1,.11-.15,.22-.31,.33-.46,.18-.26,.37-.52,.56-.78,.02-.03,.04-.05,.05-.08,.06-.08,.09-.13,.15-.13,.07,0,.11,.06,.22,.21,.63,.88,1.26,1.76,1.9,2.65l1.03,1.44s.07,.09,.1,.15Zm-.55-.16s-.01-.03-.02-.04l-1.46-2.04c-.38-.53-.76-1.06-1.14-1.59-.02-.02-.06-.08-.07-.09,0,0-.05,.07-.07,.09-.1,.15-.21,.29-.31,.44-.14,.19-.27,.39-.41,.58l-.08,.11c-.08,.11-.16,.23-.27,.34l-.04,.04-.11-.15c-.04-.06-.08-.11-.12-.16l-.59-.82c-.47-.65-.93-1.3-1.4-1.95-.04-.06-.09-.12-.11-.13-.01,0-.05,.07-.09,.12l-.13,.19c-1.18,1.65-2.37,3.31-3.55,4.96,0,.01-.02,.03-.03,.04-.02,.03-.04,.05-.04,.07,.04,.01,.09,.01,.13,0,.02,0,.04,0,.06,0H14.14s.06,0,.09,0c.01,0,.02,0,.03,0,.02,0,.03,0,.04,0Zm-4.87-8.16c-.15-.08-.29-.16-.43-.25-.23-.13-.46-.27-.71-.4v1.32c.28-.13,.93-.51,1.14-.67Z"/><path class="cls-2" d="M9,20.79c.14,.08,.29,.17,.43,.25-.21,.16-.86,.54-1.14,.67v-1.32c.24,.13,.48,.27,.71,.4Z"/></g><g><path class="cls-1" d="M53.13,23.11c.09,.17,.08,.29-.03,.45-1.04,1.54-2.08,3.08-3.12,4.61-.29,.44-.59,.87-.88,1.31-.05,.08-.1,.17-.21,.18-.12-.02-.16-.12-.22-.21-.89-1.32-1.78-2.65-2.67-3.98-.43-.65-.86-1.29-1.3-1.94-.09-.14-.11-.25-.03-.41,.34-.66,.67-1.33,.99-2,.07-.14,.16-.2,.32-.2,1.94,0,3.89,0,5.83,0,.16,0,.25,.05,.32,.2,.32,.66,.65,1.32,.98,1.98Zm-2.54,.06h2.21c-.33-.66-.64-1.28-.94-1.9h-1.65c.13,.64,.25,1.27,.38,1.9Zm2.12,.32c-.71,0-1.41,0-2.13,0-.43,1.7-.85,3.37-1.27,5.04,.29-.28,3.35-4.87,3.4-5.04Zm-5.17-.32h2.72c-.13-.65-.25-1.27-.38-1.9h-1.97c-.12,.64-.25,1.26-.37,1.9Zm2.66,.55c.02-.07,.05-.14,0-.21-.27-.04-2.49-.03-2.63,.02,.02,.18,1.21,4.92,1.31,5.23,.07-.04,.06-.11,.08-.18,.41-1.62,.82-3.24,1.23-4.86Zm-1.76,4.81c.02-.21-1.16-4.89-1.26-5.03h-2.11c1.14,1.7,2.25,3.35,3.37,5.03Zm-.84-7.27h-1.61c-.23,.35-.9,1.75-.91,1.91h2.13c.13-.63,.25-1.26,.38-1.91Z"/><path class="cls-2" d="M52.8,23.17h-2.21c-.13-.63-.25-1.26-.38-1.9h1.65c.31,.62,.61,1.24,.94,1.9Z"/><path class="cls-2" d="M50.2,23.51c.05,.07,.02,.14,0,.21-.41,1.62-.82,3.24-1.23,4.86-.02,.06-.01,.14-.08,.18-.11-.31-1.29-5.05-1.31-5.23,.14-.05,2.36-.06,2.63-.02Z"/><path class="cls-2" d="M45.98,21.27h1.61c-.13,.65-.26,1.28-.38,1.91h-2.13c0-.15,.67-1.56,.91-1.91Z"/></g><g><path class="cls-1" d="M33.37,6.41c.09,.11,.11,.21,.01,.33-.83,1-1.78,1.84-3,2.33-1.26,.51-2.47,.35-3.64-.3-.91-.51-1.67-1.2-2.33-2-.09-.11-.13-.21-.02-.34,.83-1,1.79-1.85,3.02-2.34,.47-.19,.97-.29,1.59-.3,.75,0,1.52,.29,2.24,.74,.82,.5,1.51,1.15,2.12,1.89Zm-.36,.27c.09-.1,.03-.16-.03-.23-.56-.63-1.17-1.19-1.89-1.63-1.21-.75-2.47-.95-3.8-.32-.99,.47-1.79,1.17-2.51,1.98-.08,.09-.04,.16,.02,.23,.5,.57,1.05,1.08,1.68,1.5,.73,.49,1.52,.83,2.35,.84,.47,0,.86-.07,1.25-.21,1.19-.43,2.11-1.23,2.94-2.16Z"/><path class="cls-1" d="M32.19,2.55c.06,.02,.08,.08,.09,.12,0,.08-.05,.13-.09,.18-.23,.23-.47,.47-.7,.7-.08,.08-.18,.15-.28,.05s-.03-.19,.05-.27c.24-.24,.48-.49,.72-.73,.06-.06,.13-.08,.21-.05Z"/><path class="cls-1" d="M28.89,5.17c.78,0,1.41,.63,1.4,1.43,0,.77-.64,1.4-1.42,1.4-.77,0-1.4-.64-1.39-1.42,0-.78,.62-1.4,1.4-1.4Zm0,2.5c.59,0,1.08-.49,1.08-1.09,0-.6-.49-1.08-1.09-1.08s-1.07,.49-1.07,1.09c0,.59,.49,1.07,1.07,1.07Z"/><path class="cls-2" d="M29.97,6.58c0,.6-.49,1.09-1.08,1.09-.59,0-1.07-.49-1.07-1.07,0-.6,.47-1.09,1.07-1.09s1.08,.48,1.09,1.08Z"/><path class="cls-1" d="M29.05,2.39c0,.17,0,.33,0,.5,0,.11-.03,.2-.16,.2-.14,0-.17-.09-.17-.21V1.87c0-.11,.04-.2,.16-.2,.13,0,.17,.09,.17,.21,0,.17,0,.35,0,.52Z"/><path class="cls-1" d="M26.62,3.48c0,.08-.03,.12-.08,.16-.06,.03-.14,.03-.18-.01-.27-.27-.55-.55-.81-.83-.06-.06-.05-.15,.02-.21,.06-.05,.14-.06,.2-.01,.29,.28,.56,.57,.84,.85,.02,.02,.02,.05,.02,.06Z"/></g><path class="cls-1" d="M17.47,10.9c.04,.18,.06,.37,.05,.56,0,.89-.42,1.61-.96,2.26-.86,1.03-1.94,1.78-3.05,2.51-.35,.23-.61,.24-.96,0-1.06-.7-2.1-1.43-2.95-2.39-.5-.57-.92-1.19-1.03-1.95-.21-1.4,.55-2.82,1.98-3.09,.91-.17,1.68,.14,2.3,.81,.15,.16,.21,.17,.36,0,.69-.74,1.53-1.05,2.51-.76,1,.3,1.55,1.04,1.74,2.06Zm-.84,1.83c.33-.56,.48-1.15,.33-1.8-.18-.81-.62-1.41-1.44-1.61-.84-.21-1.54,.09-2.08,.77-.07,.09-.12,.19-.19,.27-.14,.18-.31,.18-.44,0-.08-.1-.15-.22-.24-.33-.55-.7-1.51-.99-2.27-.65-.89,.39-1.22,1.13-1.27,2.05,0,.13,.01,.25,.03,.38,.11,.57,.39,1.05,.75,1.48,.86,1.06,1.96,1.83,3.1,2.55,.11,.07,.18,.02,.26-.03,.49-.3,.97-.62,1.42-.97,.78-.6,1.51-1.25,2.02-2.11Z"/><g><path class="cls-1" d="M45.99,7.98c1.29,.02,2.33,.36,3.2,1.13,1.11,1,1.57,2.24,1.25,3.73-.17,.81-.61,1.48-1.23,2.01-.18,.16-.16,.24,0,.38,.24,.21,.49,.42,.77,.57,.12,.07,.25,.13,.23,.3-.03,.18-.19,.19-.33,.22-.89,.17-1.74,.05-2.56-.34-.09-.05-.18-.06-.29-.04-1.48,.28-2.81-.07-3.95-1.05-1.36-1.17-1.73-3.09-.86-4.66,.84-1.53,2.23-2.17,3.78-2.26Zm.96,7.53c.18-.03,.34-.02,.51,.06,.56,.28,1.17,.35,1.78,.32l.03-.07c-.2-.15-.4-.3-.59-.46-.31-.27-.3-.38,.02-.63,.89-.7,1.4-1.6,1.39-2.76-.02-1.23-.61-2.17-1.61-2.85-1.52-1.04-3.72-.89-5.1,.33-1.79,1.59-1.5,4.31,.6,5.54,.92,.54,1.92,.7,2.97,.5Z"/><g><path class="cls-2" d="M48,10.95h-3.96c-.12,0-.22-.1-.22-.22s.1-.22,.22-.22h3.96c.12,0,.22,.1,.22,.22s-.1,.22-.22,.22Z"/><path class="cls-2" d="M47.9,12.39h-3.96c-.12,0-.22-.1-.22-.22s.1-.22,.22-.22h3.96c.12,0,.22,.1,.22,.22s-.1,.22-.22,.22Z"/></g></g><g><path class="cls-2" d="M28.89,19.85c-.11,0-.2-.09-.2-.2v-7.43c0-.11,.09-.2,.2-.2s.2,.09,.2,.2v7.43c0,.11-.09,.2-.2,.2Z"/><polygon class="cls-2" points="30.54 13.57 30.25 13.84 28.89 12.38 27.53 13.84 27.24 13.57 28.89 11.79 30.54 13.57"/></g><g><path class="cls-2" d="M24,20.85c-.05,0-.1-.02-.14-.06l-5.25-5.25c-.08-.08-.08-.21,0-.29,.08-.08,.21-.08,.29,0l5.25,5.25c.08,.08,.08,.21,0,.29-.04,.04-.09,.06-.14,.06Z"/><polygon class="cls-2" points="20.86 15.18 20.85 15.58 18.86 15.51 18.93 17.5 18.53 17.52 18.44 15.09 20.86 15.18"/></g><g><path class="cls-2" d="M33.78,20.85c-.05,0-.1-.02-.14-.06-.08-.08-.08-.21,0-.29l5.25-5.25c.08-.08,.21-.08,.29,0,.08,.08,.08,.21,0,.29l-5.25,5.25s-.09,.06-.14,.06Z"/><polygon class="cls-2" points="39.25 17.52 38.85 17.5 38.92 15.51 36.93 15.58 36.91 15.18 39.34 15.09 39.25 17.52"/></g><g><path class="cls-2" d="M23.64,25.29h-7.43c-.11,0-.2-.09-.2-.2s.09-.2,.2-.2h7.43c.11,0,.2,.09,.2,.2s-.09,.2-.2,.2Z"/><polygon class="cls-2" points="17.55 23.43 17.83 23.73 16.37 25.09 17.83 26.44 17.55 26.74 15.77 25.09 17.55 23.43"/></g><g><path class="cls-2" d="M41.2,25.29h-7.43c-.11,0-.2-.09-.2-.2s.09-.2,.2-.2h7.43c.11,0,.2,.09,.2,.2s-.09,.2-.2,.2Z"/><polygon class="cls-2" points="39.86 26.74 39.59 26.44 41.05 25.09 39.59 23.73 39.86 23.43 41.64 25.09 39.86 26.74"/></g></svg>