<?xml version="1.0" encoding="UTF-8"?><svg xmlns="http://www.w3.org/2000/svg" viewBox="0 0 55.87 55.87"><defs><style>.cls-1{fill:#fb007c;}.cls-2{fill:#ffc5e0;}.cls-3{fill:none;stroke:#fb007c;stroke-miterlimit:10;stroke-width:.75px;}</style></defs><g id="Layer_1"><path class="cls-2" d="M29.99,44.69v-.5c.35,0,.71-.02,1.06-.04l.03,.5c-.36,.03-.73,.04-1.09,.04Zm-1.09-.01c-.37-.01-.73-.04-1.09-.07l.05-.5c.35,.03,.71,.06,1.06,.07l-.02,.5Zm3.28-.13l-.06-.5c.35-.04,.71-.1,1.06-.16l.09,.49c-.36,.06-.72,.12-1.08,.16Zm-5.46-.07c-.36-.05-.72-.12-1.08-.19l.1-.49c.35,.07,.7,.13,1.05,.18l-.07,.49Zm7.61-.31l-.11-.49c.35-.08,.69-.17,1.03-.27l.14,.48c-.35,.1-.7,.19-1.06,.28Zm-9.76-.12c-.35-.09-.7-.19-1.05-.3l.15-.48c.34,.11,.68,.21,1.03,.29l-.13,.48Zm11.86-.49l-.17-.47c.34-.12,.67-.24,1-.38l.19,.46c-.34,.14-.68,.27-1.02,.39Zm-13.95-.17c-.34-.13-.68-.27-1.01-.42l.2-.46c.33,.14,.66,.28,.99,.41l-.18,.47Zm15.97-.66l-.22-.45c.32-.15,.64-.31,.95-.48l.24,.44c-.32,.17-.64,.34-.97,.5Zm-17.97-.22c-.33-.17-.65-.34-.96-.52l.25-.43c.31,.18,.62,.35,.94,.51l-.23,.45Zm19.89-.82l-.26-.43c.3-.19,.6-.38,.89-.58l.29,.41c-.3,.21-.61,.41-.92,.6Zm-21.79-.27c-.31-.2-.61-.41-.9-.62l.29-.4c.29,.21,.58,.41,.88,.61l-.27,.42Zm23.59-.97l-.31-.39c.28-.22,.56-.44,.83-.68l.33,.38c-.28,.24-.56,.47-.85,.69Zm-25.36-.32c-.28-.23-.56-.47-.83-.72l.34-.37c.26,.24,.53,.47,.81,.7l-.32,.39Zm27.01-1.11l-.35-.36c.26-.25,.51-.5,.75-.76l.37,.34c-.25,.27-.51,.53-.77,.78Zm-28.63-.36c-.26-.26-.51-.53-.75-.8l.38-.33c.24,.27,.48,.53,.73,.78l-.36,.35Zm30.13-1.24l-.38-.32c.23-.27,.45-.55,.67-.84l.4,.3c-.22,.29-.45,.58-.68,.86Zm-31.58-.4c-.23-.29-.45-.58-.66-.87l.41-.29c.21,.29,.42,.57,.64,.85l-.39,.31Zm32.9-1.35l-.42-.28c.2-.29,.39-.6,.57-.9l.43,.26c-.19,.31-.38,.62-.59,.93Zm-34.17-.43c-.2-.31-.38-.62-.56-.94l.44-.24c.17,.31,.36,.62,.55,.92l-.42,.27Zm35.29-1.45l-.44-.23c.17-.31,.32-.63,.47-.96l.45,.21c-.15,.33-.31,.66-.48,.98Zm-36.36-.45c-.16-.33-.31-.66-.46-.99l.46-.2c.14,.33,.29,.65,.45,.97l-.45,.22Zm37.28-1.54l-.46-.18c.13-.33,.25-.67,.37-1l.47,.16c-.12,.35-.24,.69-.38,1.03Zm-38.14-.47c-.12-.34-.24-.69-.35-1.04l.48-.15c.1,.34,.22,.68,.34,1.01l-.47,.17Zm38.83-1.61l-.48-.13c.09-.34,.18-.69,.25-1.04l.49,.11c-.08,.36-.16,.71-.26,1.06Zm-39.47-.48c-.09-.35-.17-.71-.23-1.07l.49-.09c.07,.35,.14,.7,.23,1.04l-.49,.12Zm39.94-1.66l-.49-.08c.06-.35,.1-.7,.14-1.06l.5,.05c-.04,.37-.09,.73-.14,1.08Zm-40.35-.49c-.05-.36-.09-.72-.12-1.09l.5-.04c.03,.36,.07,.71,.12,1.06l-.5,.07Zm40.58-1.68l-.5-.03c.02-.35,.03-.71,.03-1.07h.5c0,.37,0,.73-.03,1.09Zm-40.76-.5c0-.2,0-.4,0-.6,0-.17,0-.33,0-.5h.5c0,.17,0,.34,0,.5,0,.2,0,.39,0,.58l-.5,.02Zm40.29-.69c0-.36-.01-.72-.03-1.07l.5-.03c.02,.36,.03,.73,.03,1.09h-.5Zm-39.73-1.45l-.5-.04c.03-.37,.07-.73,.11-1.09l.5,.06c-.05,.35-.08,.71-.11,1.06Zm39.61-.68c-.04-.36-.09-.71-.15-1.06l.49-.08c.06,.36,.11,.72,.15,1.08l-.5,.05Zm-39.33-1.44l-.49-.09c.07-.36,.14-.72,.23-1.07l.49,.12c-.08,.35-.16,.69-.22,1.04Zm38.98-.67c-.08-.35-.16-.69-.26-1.04l.48-.13c.1,.35,.19,.7,.27,1.06l-.49,.11Zm-38.48-1.41l-.48-.14c.11-.35,.22-.7,.34-1.04l.47,.17c-.12,.33-.23,.67-.34,1.02Zm37.9-.65c-.11-.34-.24-.67-.37-1l.46-.19c.14,.34,.26,.68,.38,1.03l-.47,.16Zm-37.18-1.36l-.46-.2c.14-.34,.29-.67,.45-1l.45,.22c-.16,.32-.3,.64-.44,.97Zm36.39-.62c-.15-.32-.31-.64-.47-.95l.44-.23c.17,.32,.33,.65,.49,.98l-.45,.21Zm-35.45-1.3l-.44-.24c.18-.32,.36-.63,.56-.94l.42,.27c-.19,.3-.37,.61-.55,.92Zm34.45-.58c-.18-.3-.38-.6-.57-.9l.41-.28c.2,.3,.4,.61,.59,.92l-.43,.26Zm-33.31-1.23l-.41-.29c.21-.3,.43-.59,.66-.88l.39,.31c-.22,.28-.43,.56-.64,.86Zm32.11-.54c-.21-.28-.44-.56-.67-.83l.38-.32c.24,.28,.46,.56,.68,.85l-.4,.3Zm-30.79-1.14l-.38-.33c.24-.27,.49-.54,.75-.8l.36,.35c-.25,.25-.49,.52-.73,.78Zm29.41-.49c-.24-.26-.5-.51-.75-.76l.35-.36c.26,.25,.52,.51,.77,.78l-.36,.34Zm-27.91-1.03l-.34-.37c.27-.25,.54-.49,.83-.72l.32,.39c-.27,.23-.54,.46-.81,.7Zm26.37-.44c-.27-.23-.55-.46-.83-.67l.3-.4c.29,.22,.57,.45,.85,.69l-.33,.38Zm-24.72-.92l-.3-.4c.29-.22,.59-.42,.9-.62l.28,.42c-.3,.2-.59,.4-.88,.61Zm23.02-.38c-.29-.2-.59-.4-.9-.58l.26-.43c.31,.19,.62,.39,.92,.6l-.28,.41Zm-21.24-.79l-.25-.43c.31-.18,.63-.36,.96-.53l.23,.45c-.32,.16-.63,.33-.94,.51Zm19.42-.33c-.31-.17-.63-.33-.95-.48l.21-.45c.33,.16,.66,.32,.98,.49l-.24,.44Zm-17.52-.64l-.2-.46c.33-.15,.67-.29,1.01-.42l.18,.47c-.33,.13-.66,.26-.98,.41Zm15.59-.26c-.33-.13-.66-.26-1-.38l.16-.47c.35,.12,.69,.25,1.03,.39l-.19,.46Zm-13.59-.5l-.15-.48c.35-.11,.7-.21,1.05-.31l.13,.48c-.35,.09-.69,.19-1.02,.3Zm11.58-.2c-.34-.1-.69-.18-1.03-.26l.11-.49c.36,.08,.71,.17,1.06,.27l-.14,.48Zm-9.51-.35l-.1-.49c.36-.07,.71-.14,1.08-.19l.08,.49c-.35,.05-.7,.12-1.05,.19Zm7.43-.13c-.35-.06-.7-.11-1.06-.15l.06-.5c.36,.04,.73,.09,1.08,.16l-.08,.49Zm-5.32-.19l-.05-.5c.36-.03,.73-.06,1.09-.08l.02,.5c-.36,.02-.71,.04-1.06,.07Zm3.2-.05c-.35-.02-.71-.03-1.07-.04v-.5c.37,0,.74,.02,1.1,.04l-.03,.5Z"/><g><g><path class="cls-2" d="M23.62,30.86v10.43H15.08v-10.43c0-3.04,1.91-5.51,4.27-5.51l4.27,5.51Z"/><path class="cls-1" d="M23.99,41.66H14.7v-10.8c0-3.25,2.08-5.89,4.64-5.89h.18l4.46,5.76v10.93Zm-8.54-.75h7.79v-9.93l-4.07-5.26c-2.06,.12-3.71,2.38-3.71,5.13v10.05Z"/></g><rect class="cls-1" x="16.39" y="42.53" width=".75" height="9.77"/><rect class="cls-1" x="21.14" y="42.53" width=".75" height="9.77"/><path class="cls-1" d="M16.68,17.96h4.77v3.63c0,1.32-1.07,2.39-2.39,2.39h0c-1.32,0-2.39-1.07-2.39-2.39v-3.63h0Z"/></g><g><g><path class="cls-2" d="M33.58,26.24v10.43s8.54,0,8.54,0v-10.43c0-3.04-1.91-5.51-4.27-5.51l-4.27,5.51Z"/><path class="cls-1" d="M42.49,37.05h-9.29v-10.93l4.46-5.76h.18c2.56,0,4.64,2.64,4.64,5.89v10.8Zm-8.54-.75h7.79v-10.05c0-2.75-1.65-5.01-3.71-5.13l-4.07,5.26v9.93Z"/></g><rect class="cls-1" x="40.05" y="37.91" width=".75" height="9.77"/><rect class="cls-1" x="35.3" y="37.91" width=".75" height="9.77"/><path class="cls-1" d="M38.13,19.73c-1.52,0-2.76-1.24-2.76-2.76v-4h5.52v4c0,1.52-1.24,2.76-2.76,2.76Zm-2.01-6.02v3.25c0,1.11,.9,2.01,2.01,2.01s2.01-.9,2.01-2.01v-3.25h-4.02Z"/></g></g><g id="Layer_2"><path class="cls-3" d="M33.58,26.24l-4.41,9.2c-.28,.58-1.06,.68-1.48,.19l-4.07-4.77"/></g></svg>