<?xml version="1.0" encoding="UTF-8"?><svg id="Layer_1" xmlns="http://www.w3.org/2000/svg" viewBox="0 0 55.87 55.87"><defs><style>.cls-1{fill:#fb007c;}.cls-2{fill:#ffc5e0;}</style></defs><path class="cls-2" d="M49.58,9.37c.07,.36,.12,.73,.11,1.11,0,1.76-.83,3.19-1.92,4.49-1.71,2.04-3.86,3.55-6.07,5-.7,.46-1.2,.47-1.9,0-2.12-1.4-4.18-2.84-5.87-4.76-.99-1.13-1.83-2.36-2.05-3.88-.41-2.79,1.1-5.61,3.93-6.15,1.8-.34,3.34,.27,4.57,1.62,.29,.32,.42,.34,.72,0,1.36-1.47,3.05-2.1,5-1.52,1.99,.59,3.08,2.07,3.47,4.09Zm-1.67,3.65c.66-1.11,.95-2.3,.66-3.59-.36-1.6-1.22-2.8-2.86-3.2-1.68-.41-3.07,.18-4.13,1.53-.14,.17-.25,.37-.38,.54-.27,.36-.61,.36-.88,0-.16-.21-.3-.44-.47-.65-1.09-1.39-3.01-1.96-4.51-1.3-1.76,.77-2.42,2.26-2.52,4.07,0,.26,.02,.5,.07,.76,.21,1.13,.78,2.08,1.48,2.95,1.71,2.11,3.9,3.64,6.17,5.07,.22,.14,.36,.03,.52-.07,.97-.6,1.93-1.24,2.83-1.94,1.55-1.19,3-2.48,4.01-4.19Z"/><g><g><path class="cls-2" d="M26.93,22.57v14.3H15.23v-14.3c0-4.17,2.62-7.56,5.85-7.56l5.85,7.56Z"/><path class="cls-1" d="M27.43,37.37H14.73v-14.8c0-4.44,2.85-8.06,6.35-8.06h.25l6.11,7.88v14.97Zm-11.7-1h10.7v-13.63l-5.59-7.22c-2.84,.17-5.11,3.26-5.11,7.05v13.8Z"/></g><rect class="cls-1" x="17.04" y="38.58" width="1" height="13.39"/><rect class="cls-1" x="23.55" y="38.58" width="1" height="13.39"/><path class="cls-1" d="M20.69,13.63c-2.08,0-3.77-1.69-3.77-3.77V4.39h7.54v5.48c0,2.08-1.69,3.77-3.77,3.77Zm-2.77-8.25v4.48c0,1.53,1.24,2.77,2.77,2.77s2.77-1.24,2.77-2.77V5.39h-5.54Z"/></g></svg>