<svg xmlns="http://www.w3.org/2000/svg" xmlns:xlink="http://www.w3.org/1999/xlink" viewBox="0 0 300 300"><defs><style>.cls-1{isolation:isolate;}.cls-2{fill:url(#linear-gradient);}.cls-3{fill:url(#linear-gradient-2);}.cls-4{fill:url(#linear-gradient-3);}.cls-5{fill:#fff;}.cls-6{fill:url(#linear-gradient-4);}.cls-7{fill:url(#linear-gradient-5);}.cls-8{fill:url(#linear-gradient-6);}.cls-39,.cls-9{opacity:0.3;}.cls-22,.cls-39,.cls-9{mix-blend-mode:multiply;}.cls-9{fill:url(#linear-gradient-7);}.cls-10{fill:url(#linear-gradient-8);}.cls-11{fill:url(#linear-gradient-9);}.cls-12{fill:url(#linear-gradient-10);}.cls-13{fill:url(#linear-gradient-11);}.cls-14{fill:url(#linear-gradient-12);}.cls-15{fill:url(#linear-gradient-13);}.cls-16{fill:url(#linear-gradient-14);}.cls-17{fill:url(#linear-gradient-15);}.cls-18{fill:url(#linear-gradient-16);}.cls-19{fill:url(#linear-gradient-17);}.cls-20{fill:url(#linear-gradient-18);}.cls-21{fill:url(#linear-gradient-19);}.cls-22{opacity:0.4;}.cls-23{fill:url(#linear-gradient-20);}.cls-24{fill:url(#linear-gradient-21);}.cls-25{fill:url(#linear-gradient-22);}.cls-26{fill:#aa5300;}.cls-27{fill:url(#linear-gradient-23);}.cls-28{fill:#f9cebb;}.cls-29{fill:url(#linear-gradient-24);}.cls-30{fill:url(#linear-gradient-25);}.cls-31{fill:#fa0171;}.cls-32{fill:url(#linear-gradient-26);}.cls-33{fill:url(#linear-gradient-27);}.cls-34{fill:url(#linear-gradient-28);}.cls-35{fill:url(#linear-gradient-29);}.cls-36{fill:url(#linear-gradient-30);}.cls-37{fill:url(#linear-gradient-31);}.cls-38{fill:#00152b;}.cls-39{fill:url(#linear-gradient-32);}.cls-40{fill:url(#linear-gradient-33);}.cls-41{fill:#06547a;}.cls-42{fill:url(#linear-gradient-34);}.cls-43{fill:url(#linear-gradient-35);}.cls-44{fill:url(#linear-gradient-36);}.cls-45{fill:url(#linear-gradient-37);}.cls-46{fill:#7d4753;}.cls-47{fill:url(#linear-gradient-38);}.cls-48{fill:#96646e;}.cls-49{fill:url(#linear-gradient-39);}.cls-50{fill:url(#linear-gradient-40);}</style><linearGradient id="linear-gradient" x1="154.03" y1="52.91" x2="154.03" y2="97.02" gradientUnits="userSpaceOnUse"><stop offset="0" stop-color="#0070e6"/><stop offset="1" stop-color="#00152b"/></linearGradient><linearGradient id="linear-gradient-2" x1="179.22" y1="33.82" x2="167.97" y2="59.56" gradientUnits="userSpaceOnUse"><stop offset="0" stop-color="#0070e6"/><stop offset="1" stop-color="#a5c5ff"/></linearGradient><linearGradient id="linear-gradient-3" x1="153.93" y1="96.74" x2="170.5" y2="42.3" xlink:href="#linear-gradient-2"/><linearGradient id="linear-gradient-4" x1="112.18" y1="48.7" x2="112.18" y2="80.37" gradientUnits="userSpaceOnUse"><stop offset="0" stop-color="#38d611"/><stop offset="1" stop-color="#009c00"/></linearGradient><linearGradient id="linear-gradient-5" x1="128.52" y1="36.83" x2="114.62" y2="68.49" gradientUnits="userSpaceOnUse"><stop offset="0" stop-color="#38d611"/><stop offset="1" stop-color="#bcf0a7"/></linearGradient><linearGradient id="linear-gradient-6" x1="102.98" y1="92.54" x2="135.52" y2="23.89" xlink:href="#linear-gradient-5"/><linearGradient id="linear-gradient-7" x1="179.42" y1="251.71" x2="221.93" y2="251.71" gradientUnits="userSpaceOnUse"><stop offset="0" stop-color="#ec6926"/><stop offset="1" stop-color="#f4b091"/></linearGradient><linearGradient id="linear-gradient-8" x1="1351.79" y1="140.6" x2="1360.53" y2="137.87" gradientTransform="matrix(-1, 0, 0, 1, 1546.97, 0)" gradientUnits="userSpaceOnUse"><stop offset="0" stop-color="#fa0171"/><stop offset="1" stop-color="#ff90bd"/></linearGradient><linearGradient id="linear-gradient-9" x1="1340.43" y1="132.33" x2="1334.18" y2="143.41" gradientTransform="matrix(-1, 0, 0, 1, 1546.97, 0)" gradientUnits="userSpaceOnUse"><stop offset="0" stop-color="#aa5300"/><stop offset="1" stop-color="#a97d00"/></linearGradient><linearGradient id="linear-gradient-10" x1="1352.97" y1="218.87" x2="1352.97" y2="190.08" gradientTransform="matrix(-1, 0, 0, 1, 1546.97, 0)" gradientUnits="userSpaceOnUse"><stop offset="0" stop-color="#f9cebb"/><stop offset="1" stop-color="#f19265"/></linearGradient><linearGradient id="linear-gradient-11" x1="-278.79" y1="244.67" x2="-265.15" y2="244.67" gradientTransform="translate(465.97)" xlink:href="#linear-gradient"/><linearGradient id="linear-gradient-12" x1="-265.44" y1="248.38" x2="-265.44" y2="245.06" gradientTransform="translate(465.97)" xlink:href="#linear-gradient"/><linearGradient id="linear-gradient-13" x1="-266.46" y1="248.66" x2="-266.46" y2="245.16" gradientTransform="translate(465.97)" xlink:href="#linear-gradient"/><linearGradient id="linear-gradient-14" x1="1342.48" y1="218.87" x2="1342.48" y2="190.09" xlink:href="#linear-gradient-10"/><linearGradient id="linear-gradient-15" x1="-268.3" y1="251.1" x2="-254.66" y2="251.1" gradientTransform="translate(465.97)" xlink:href="#linear-gradient"/><linearGradient id="linear-gradient-16" x1="-254.95" y1="252.82" x2="-254.95" y2="250.44" gradientTransform="translate(465.97)" xlink:href="#linear-gradient"/><linearGradient id="linear-gradient-17" x1="-255.97" y1="255.26" x2="-255.97" y2="251.08" gradientTransform="translate(465.97)" xlink:href="#linear-gradient"/><linearGradient id="linear-gradient-18" x1="-269.74" y1="218.87" x2="-269.74" y2="190.08" gradientTransform="translate(465.97)" xlink:href="#linear-gradient-10"/><linearGradient id="linear-gradient-19" x1="1350.15" y1="140.37" x2="1336.18" y2="151.46" gradientTransform="matrix(-1, 0, 0, 1, 1546.97, 0)" gradientUnits="userSpaceOnUse"><stop offset="0" stop-color="#fa0171"/><stop offset="1" stop-color="#95025c"/></linearGradient><linearGradient id="linear-gradient-20" x1="-274.24" y1="148.64" x2="-258" y2="148.64" gradientTransform="translate(465.97)" gradientUnits="userSpaceOnUse"><stop offset="0" stop-color="#0062ab"/><stop offset="1" stop-color="#76d733"/></linearGradient><linearGradient id="linear-gradient-21" x1="1343.89" y1="218.87" x2="1343.89" y2="190.08" xlink:href="#linear-gradient-10"/><linearGradient id="linear-gradient-22" x1="1348.37" y1="206.87" x2="1345.43" y2="178.01" gradientTransform="matrix(-1, 0, 0, 1, 1546.97, 0)" xlink:href="#linear-gradient"/><linearGradient id="linear-gradient-23" x1="1341.59" y1="132.02" x2="1344.95" y2="123.89" xlink:href="#linear-gradient-10"/><linearGradient id="linear-gradient-24" x1="1342.65" y1="112.72" x2="1342.65" y2="102.29" xlink:href="#linear-gradient-9"/><linearGradient id="linear-gradient-25" x1="113.28" y1="-171.17" x2="82.81" y2="-170.57" gradientTransform="translate(271.2 333.73) rotate(-45.11)" xlink:href="#linear-gradient-8"/><linearGradient id="linear-gradient-26" x1="1338.75" y1="131.27" x2="1346.56" y2="142.94" xlink:href="#linear-gradient-8"/><linearGradient id="linear-gradient-27" x1="1343.34" y1="130.48" x2="1349.43" y2="136.46" xlink:href="#linear-gradient-8"/><linearGradient id="linear-gradient-28" x1="1350.9" y1="121.58" x2="1350.42" y2="114.15" xlink:href="#linear-gradient-10"/><linearGradient id="linear-gradient-29" x1="1351.49" y1="113.32" x2="1351.46" y2="112.88" xlink:href="#linear-gradient-9"/><linearGradient id="linear-gradient-30" x1="1377.43" y1="83.04" x2="1380.92" y2="83.04" gradientTransform="matrix(-0.99, 0.12, 0.12, 0.99, 1556.62, -128.74)" xlink:href="#linear-gradient-8"/><linearGradient id="linear-gradient-31" x1="1377.43" y1="82.28" x2="1380.9" y2="82.28" gradientTransform="matrix(-0.99, 0.12, 0.12, 0.99, 1556.62, -128.74)" xlink:href="#linear-gradient-19"/><linearGradient id="linear-gradient-32" x1="1418.3" y1="273.29" x2="1467.01" y2="273.29" gradientTransform="matrix(-1, 0, 0, 1, 1546.97, 0)" xlink:href="#linear-gradient-7"/><linearGradient id="linear-gradient-33" x1="1459.16" y1="161.67" x2="1460.57" y2="176.33" gradientTransform="matrix(-1, 0, 0, 1, 1546.97, 0)" xlink:href="#linear-gradient"/><linearGradient id="linear-gradient-34" x1="1458.12" y1="286.5" x2="1454.85" y2="238.32" gradientTransform="matrix(-1, 0, 0, 1, 1546.97, 0)" xlink:href="#linear-gradient"/><linearGradient id="linear-gradient-35" x1="1446.44" y1="287.3" x2="1443.16" y2="239.11" gradientTransform="matrix(-1, 0, 0, 1, 1546.97, 0)" xlink:href="#linear-gradient"/><linearGradient id="linear-gradient-36" x1="1458.85" y1="213.77" x2="1441.85" y2="167.3" gradientTransform="matrix(-1, 0, 0, 1, 1546.97, 0)" xlink:href="#linear-gradient"/><linearGradient id="linear-gradient-37" x1="1447.23" y1="156.87" x2="1444.11" y2="148.77" xlink:href="#linear-gradient-10"/><linearGradient id="linear-gradient-38" x1="-1172.59" y1="-341.76" x2="-1192.16" y2="-328.34" gradientTransform="translate(1337.82 131.21) rotate(-16.21)" gradientUnits="userSpaceOnUse"><stop offset="0" stop-color="#22d6f3"/><stop offset="1"/></linearGradient><linearGradient id="linear-gradient-39" x1="1436.15" y1="167.25" x2="1424.61" y2="197.19" gradientTransform="matrix(-1, 0, 0, 1, 1546.97, 0)" xlink:href="#linear-gradient"/><linearGradient id="linear-gradient-40" x1="1440.74" y1="157.62" x2="1453.21" y2="157.62" gradientTransform="matrix(-1, 0, 0, 1, 1546.97, 0)" xlink:href="#linear-gradient"/></defs><g class="cls-1"><g id="icons"><path class="cls-2" d="M177.15,24.84c0-.33,0-.63,0-.94l4.56-1.34-7-4h0c-1.46-1.07-3.46-1.11-5.66.16l-34.56,20c-4.46,2.57-8.1,9.54-8.1,15.47v46.09c0,3.22,1.08,5.5,2.77,6.5h0l7.48,4.3.65-2.41-2.5-2.44,27.64-16,14.74,8.43V24.84Z"/><path class="cls-3" d="M176.76,23.17,142.2,43.12c-4.46,2.58-8.1,9.54-8.1,15.48v46.09c0,5.94,3.64,8.69,8.09,6.12l27.93-16.13,14.74,8.44V29.29C184.86,23.35,181.22,20.6,176.76,23.17Z"/><path class="cls-4" d="M139,110.37c-2.13,0-3.5-2.23-3.5-5.68V58.6c0-5.42,3.39-12,7.4-14.26l34.56-20a5.1,5.1,0,0,1,2.5-.77,2.81,2.81,0,0,1,2.38,1.29,7.59,7.59,0,0,1,1.12,4.39V100.7l-13.34-7.63-28.63,16.52A5,5,0,0,1,139,110.37Z"/><path class="cls-5" d="M157.11,51.28l4.74-2.74,10,25.61-5.38,3.1-2.14-5.76-9.88,5.71-2.14,8.23-5.24,3Zm5.41,15.22-3.11-8.32-3.1,11.9Z"/><path class="cls-6" d="M133,13.2h0c-1.48-1.12-3.51-1.18-5.75.11l-34.56,20c-4.46,2.57-8.1,9.53-8.1,15.47v73.83L92.27,127,107,101.58l-5.48-5.75L127.23,81c4.45-2.57,8.09-9.54,8.09-15.48V19.44c0-.25,0-.48,0-.72l4.51-1.58Z"/><path class="cls-7" d="M134.93,17.77l-34.56,20c-4.46,2.57-8.1,9.54-8.1,15.48V127L107,101.58l27.92-16.13c4.46-2.57,8.1-9.53,8.1-15.47V23.89C143,18,139.39,15.19,134.93,17.77Z"/><path class="cls-8" d="M93.67,53.2c0-5.42,3.39-12,7.4-14.26l34.56-20a5.15,5.15,0,0,1,2.5-.78c2.12,0,3.5,2.24,3.5,5.69V70c0,5.41-3.39,11.94-7.4,14.26L106,100.55,93.67,121.8Z"/><path class="cls-5" d="M124.91,70.66a26.4,26.4,0,0,1-3.25,3.85,18.2,18.2,0,0,1-3.7,2.83A10.42,10.42,0,0,1,113,79a6.27,6.27,0,0,1-3.92-1.16,7.74,7.74,0,0,1-2.57-3.6,16,16,0,0,1-.92-5.72v-.09a26.13,26.13,0,0,1,.93-6.8A33,33,0,0,1,109.09,55,29,29,0,0,1,113,49.22a20,20,0,0,1,5-4.15,10.53,10.53,0,0,1,5-1.61,6.26,6.26,0,0,1,3.92,1.17,7.65,7.65,0,0,1,2.58,3.59,16,16,0,0,1,.92,5.72V54a24.47,24.47,0,0,1-.54,5,31.2,31.2,0,0,1-1.53,5.12l2.4,1.33-3.27,6.74ZM118,71a11.94,11.94,0,0,0,3.07-2.62l-3.81-2.12,3.27-6.78,3.84,2.41a16.66,16.66,0,0,0,.64-4.64v-.09a10.47,10.47,0,0,0-.52-3.49,4.93,4.93,0,0,0-1.47-2.27,3.58,3.58,0,0,0-2.25-.81,5.5,5.5,0,0,0-2.84.86,11.11,11.11,0,0,0-2.86,2.4,16.59,16.59,0,0,0-2.2,3.37,20.18,20.18,0,0,0-1.44,3.92,16.93,16.93,0,0,0-.51,4.07v.08a10.74,10.74,0,0,0,.51,3.49A5.1,5.1,0,0,0,112.93,71a3.58,3.58,0,0,0,2.24.82A5.41,5.41,0,0,0,118,71Z"/><path class="cls-9" d="M185.94,242.21c-8.69,5.32-9.34,11.67,2,17.65,12.32,6.62,19.51,5.13,29-.38,8.41-4.85,6.45-11.39-7.65-17.09C197.89,237.91,192,238.38,185.94,242.21Z"/><path class="cls-10" d="M179.43,145.37l-.81-1.35c5.29-4.91,15.57-16.06,17.82-17.12,2.72-1.27,4.27.79,5.29,3.29s-1.34,9.31-19.17,19.8c0,0-4.69,2.9-6.63-2.69Z"/><path class="cls-11" d="M212.93,115.48s-.63,8.57,1.85,12.06,9.36,13.22,4.55,20.84c-6.86,10.88-25-1-23.59-10.55s.49-14.72.49-14.72Z"/><path class="cls-12" d="M194.26,235.21l-.11,3.86a5,5,0,0,1-.7,2.11c-.61.87-5.4,6.65-6,8.13-.47,1.05-.39,1.85,2.36,1.55a7.18,7.18,0,0,0,5.26-2.71c1.22-1.48,1.44-3,2.75-3.29s3-1,3.06-2.82a6.7,6.7,0,0,0-1.19-3.9,5.93,5.93,0,0,1-.55-3Z"/><path class="cls-13" d="M197.77,244.86c-1.31.34-1.53,1.81-2.75,3.29a7.18,7.18,0,0,1-5.26,2.71c-2.75.3-2.83-.5-2.36-1.55a18.06,18.06,0,0,1,1.83-2.72l-.16.63a.66.66,0,0,0,.1.68c.27.34,1.25.73,2.57-.22s6.76-5,8-9.26a6.34,6.34,0,0,1,1,3.62C200.8,243.82,199.08,244.52,197.77,244.86Z"/><path class="cls-14" d="M200.53,243.17Z"/><path class="cls-15" d="M200.51,243.2a6.89,6.89,0,0,0-.69,2.64c-.14,1.39-.14,1.6-.14,1.6,0,.15-.2.27-.45.27s-.46-.12-.46-.27c0,0-.08-1.73-.21-2.55,0-.09,0-.18,0-.26A3.63,3.63,0,0,0,200.51,243.2Z"/><path class="cls-16" d="M204.75,241.63s-.21,5.1-.82,6-5.4,6.65-6,8.12c-.47,1.06-.39,1.86,2.36,1.56a7.18,7.18,0,0,0,5.26-2.71c1.22-1.48,1.44-3,2.75-3.29s3-1,3.06-2.82a6.83,6.83,0,0,0-1.19-3.91,5.88,5.88,0,0,1-.55-3Z"/><path class="cls-17" d="M208.26,251.29c-1.31.34-1.53,1.81-2.75,3.29a7.18,7.18,0,0,1-5.26,2.71c-2.75.3-2.83-.5-2.36-1.56a19.15,19.15,0,0,1,1.83-2.72l-.17.64a.65.65,0,0,0,.11.67c.27.35,1.24.74,2.57-.21s6.76-5,8.05-9.26a6.31,6.31,0,0,1,1,3.62C211.29,250.24,209.57,251,208.26,251.29Z"/><polygon class="cls-18" points="211.02 249.6 211.02 249.6 211.02 249.6 211.02 249.6"/><path class="cls-19" d="M211,249.62a7,7,0,0,0-.69,2.65c-.14,1.39-.14,1.6-.14,1.6,0,.15-.2.27-.46.27s-.44-.12-.44-.27c0,0-.09-1.73-.22-2.56,0-.08,0-.17,0-.25A3.65,3.65,0,0,0,211,249.62Z"/><path class="cls-20" d="M191.94,157.45s-.24,1.46-.31,1.78a38.63,38.63,0,0,0-1.86,9c-.19,4.22-.27,15.18-.35,19a131.29,131.29,0,0,0,.92,15.19c.44,2.67,2.19,12.16,2.39,16.14s1.52,16.86,1.52,16.86,4.86,2.86,4.84-.32c-.05-9,3.83-18.7,1.45-28.57-.69-2.85-1.55-4.15-1.63-6.82s1.41-7,2.18-9,3.6-10.19.64-15.49S191.94,157.45,191.94,157.45Z"/><path class="cls-21" d="M212.36,131.82a41.56,41.56,0,0,0-7.73-4.33c-3.61-1.38-8-2.46-9.83,1.29s-2.42,5.11-3.82,6.87a6.52,6.52,0,0,0,1.13,8.78,26,26,0,0,0-.36,6.7,25.76,25.76,0,0,1,.19,6.32s6.26,6.48,17.3,5.24a23.71,23.71,0,0,1,.69-6.54c.83-2.56,2.43-4.49,3.86-7.5S222,137.83,212.36,131.82Z"/><g class="cls-22"><path class="cls-23" d="M194.67,145.67A15.5,15.5,0,0,1,198.2,148c1.08,1,2,3,5.3,3.23a7.16,7.16,0,0,0,4.47-1s-3.2,3.89-7.37,2.12-3.3-3.25-6.47-4.33c-1-.35-1.82-.58-2.39-.72a25.2,25.2,0,0,1,.37-2.92Z"/></g><path class="cls-24" d="M209.24,162.69a7.24,7.24,0,0,0,1.08,3.28c1.05,1.74,4.3,7.32,3.86,13.3a69.6,69.6,0,0,1-2.9,15.45,32.42,32.42,0,0,0-1.29,9.69,38.43,38.43,0,0,0,1.95,7.17c.75,1.88,1.38,6.13.8,11.56s-3.16,18.39-3.16,18.39-1.17,1.48-1.83,1.5c-2.59.08-3-1.4-3-1.4s-.15-14.6-.28-17.16-.36-5.28-.75-8.09-2.4-7.59-3-10.74-.27-4.88-.27-7.61-.08-15.67-.36-17.63-2.29-3.64-4.55-6.4-3.59-16.55-3.59-16.55S198.2,163.93,209.24,162.69Z"/><path class="cls-25" d="M210.39,206.51a11.14,11.14,0,0,1-9.32.56c-4.86-1.66-9.51-5.48-11.16-6.94-.83-5.57-.93-10.15-1.47-19.62a62.83,62.83,0,0,1,3.5-23.06s6.2,6.41,17.12,5.26l.18,0c1.07,4.76,2,3.62,4.81,10.92,2.17,5.63-1,18.15-2.47,23.66A30.93,30.93,0,0,0,210.39,206.51Z"/><path class="cls-5" d="M198.77,131.72a44.46,44.46,0,0,0-1,11.37A89,89,0,0,1,207,132.53Z"/><path class="cls-26" d="M199,105.81c-3-.51-5.35,1.81-4,6.37.75,2.57,2.13-3.56,2.13-3.56S199.54,105.91,199,105.81Z"/><path class="cls-27" d="M197.75,125.78s1.19,0,1.27,1.92.19,3.3-.08,3.52c0,0-.68.91.58,1.75a6.91,6.91,0,0,0,6.39.27c2.25-1.19,2.27-2.6,2-3.57a13.1,13.1,0,0,1-1.1-5.1c0-2.17-.16-3,.38-4.13S199.3,122.89,197.75,125.78Z"/><path class="cls-28" d="M194.41,113.64c0-6,4.11-7.83,8.27-7.83a7.88,7.88,0,0,1,5.18,13.83h0a44.39,44.39,0,0,1-4,4,7.75,7.75,0,0,1-6.15,2.14C194.07,125.41,194.44,118.11,194.41,113.64Z"/><path class="cls-29" d="M195.81,108.17c-1.31,5.14,9.92,4.23,11.1,10.19l-.14,5.89a9,9,0,0,0,5.69-6.09c.92-3.28,1-9.88-4.8-12.65C200.77,102.24,196.55,105.26,195.81,108.17Z"/><path class="cls-28" d="M206.47,120.18s.05-1.91,1.08-2.56,2,.16,1.79,1.38-1.05,1.33-1.42,1.88-.57,1-1,.89S206.3,121.3,206.47,120.18Z"/><path class="cls-28" d="M194.67,167.53a3.18,3.18,0,0,1-2.11-2.54c.07-.59,3.26-.83,4.39-1.27a5.77,5.77,0,0,0,1.62-.94l2.42.47,3.12,2.57c-1.31.47-3.34,2.27-4.29,2.38A14.05,14.05,0,0,1,194.67,167.53Z"/><path class="cls-28" d="M205.41,161c-.38.13-1.08.46-3.14-.17s-2.9-.62-3.72-.25-2.46.57-2.53,1.16.47.95,1.14.81,1.43-.47,1.71-.32c.12.07,0,.29-.3.54l5.54,3,.07,0,3.17-1c.68-.19,5.06-1,8.18-1.67-.41-1.4-1.2-4-1.68-5.64C211.37,158.52,206.18,160.74,205.41,161Z"/><path class="cls-30" d="M221.7,160.71a6.23,6.23,0,0,0,1.7-3.4,6.31,6.31,0,0,0,0-1.89,8.43,8.43,0,0,0-.18-.9l-.09-.26-.07-.2,0-.11v0l0-.11,0-.05c-.22-.57-.42-1.13-.63-1.69-.41-1.12-.82-2.23-1.22-3.29-.79-2.15-.93-4-1.56-5.69-1.27-3.42-2.1-5.69-2.1-5.69-.81-2.18-3.35-5.26-7-3.58-2.63,1.23-2.36,4.15-1.56,6.33l.15.35,2.6,5.49c.78,1.65,1.69,3.57,2.67,5.62l1.5,3.18.77,1.62h0l-.21.07-.42.15-.83.3-1.3.53c.48,1.6,1.27,4.24,1.68,5.64,1.5-.3,2.72-.55,3.08-.65A6.37,6.37,0,0,0,221.7,160.71Z"/><path class="cls-31" d="M214.47,163.39a16.86,16.86,0,0,0-1.85-5.44s2.32-1.91,2.86-1.9,2,2.33,2,3a1.37,1.37,0,0,1-.68,1,1,1,0,0,1,1.08.95c.14,1.11.63,2.54.16,2.74A17.25,17.25,0,0,1,214.47,163.39Z"/><path class="cls-28" d="M167.65,122.36a14.1,14.1,0,0,1,3.61,1.53,8.36,8.36,0,0,1,2.44,3.74c.38,1.34,4.65,10.11,5.19,11.51a15.28,15.28,0,0,1,1.85,4.81c.3,2.24-1.31,7.84-3.87,5-1.34-1.48-2.41-6.62-2.67-7.71,0-.12,0-.19,0-.19-.72-2.76-1.48-7.18-1.75-8.28a3.45,3.45,0,0,0-1.26-2.2,7.45,7.45,0,0,1-1.84-3.21,3.37,3.37,0,0,0-3-2.28,1.71,1.71,0,0,1-1.26-1.25A2.78,2.78,0,0,1,167.65,122.36Z"/><path class="cls-31" d="M180.32,142.4s.77,3.84-4.39,4.9v3.16a4.48,4.48,0,0,0,3.5-.67c1.94-1.19.93-2.56.93-2.56s2.53,0,2.47-1.38S182.51,142,180.32,142.4Z"/><path class="cls-32" d="M197.75,143.09s6.2-1.89,6.63-2.76a5.13,5.13,0,0,0,0-2.63s3.87-1.74,5-3.61a4.13,4.13,0,0,0-2.05-6s1.21,3-1.16,4.92A53.8,53.8,0,0,0,197.75,143.09Z"/><path class="cls-33" d="M197.75,143.09s-3.05-5.85-2.08-6.72,1.58-.78,1.58-.78-1.55-5.72,1.8-7.14c0,0,.25,2.34-.11,2.77S197.82,142.31,197.75,143.09Z"/><path class="cls-34" d="M194.41,113.64c0-.17,0-.32,0-.48s2.59-.4,2.52,1.27a26.49,26.49,0,0,1-1.2,4.73c-.08.63.31.8,1.06.75a4.62,4.62,0,0,0,1.14-.19,24.7,24.7,0,0,0,0,6.08l-.24,0C194.07,125.41,194.44,118.11,194.41,113.64Z"/><path class="cls-35" d="M196.62,113.54a2.73,2.73,0,0,0-2.19-.73s-.22.52,0,.66S195.68,113.14,196.62,113.54Z"/><path class="cls-36" d="M196.19,122.05s-.09.76.22,1.08.81.48,1.8.22a2.73,2.73,0,0,0,1.48-1Z"/><path class="cls-5" d="M196.41,122.08s0,.53,1,.62a5.45,5.45,0,0,0,1.85-.29Z"/><path class="cls-37" d="M196.13,121.85s-.1-.35.15-.48.36.2.62.15a1.19,1.19,0,0,1,.93.07,17.85,17.85,0,0,0,1.86.78,6.07,6.07,0,0,1-1.9-.05C197,122.11,196.15,122.39,196.13,121.85Z"/><path class="cls-38" d="M199.78,114.92a.59.59,0,1,0,.55-.63A.59.59,0,0,0,199.78,114.92Z"/><path class="cls-38" d="M202,115.05a2,2,0,0,0-1.6-.56,2.75,2.75,0,0,0-1.37.65,2,2,0,0,1,1.57-1,2,2,0,0,1,1.79.9,1.29,1.29,0,0,1-.92.5A1.58,1.58,0,0,0,202,115.05Z"/><path class="cls-38" d="M195.72,114.88a.47.47,0,1,1-.31-.61A.49.49,0,0,1,195.72,114.88Z"/><path class="cls-38" d="M194.56,114.7a1.21,1.21,0,0,1,1.21-.2,1.81,1.81,0,0,1,.81.81,1.55,1.55,0,0,0-.88-1.13,1.32,1.32,0,0,0-1.42.46,1.36,1.36,0,0,0,.62.68A1.56,1.56,0,0,1,194.56,114.7Z"/><path class="cls-39" d="M114.18,262.62c16.15,6.52,18.39,14,8.77,19.57-10.92,6.31-19.15,8-33.27.43-12.94-6.85-12.2-14.12-2.25-20.22C94.38,258,101.12,257.48,114.18,262.62Z"/><path d="M109.59,273l.42,1c.5,1,3.61,1.21,6.16.71,3.12-.56,4.68.92,4.47,2.69s-5.81,3.41-8,4.11-6.66,2.2-9.07,1.28c-1.55-.57-1.06-5.95-.85-7.86Z"/><path class="cls-40" d="M90.31,171.88l-5.71,9.64,7.65,1.77,1.92,6.8s-9.42-.71-12.75-1.42-4.89-2-4.89-4,6.27-22,7.69-25.29Z"/><path d="M92.16,261.63s.71,1.41,2,1.13c4-.85,5.88-1.21,7.58.49,1.42,1.42-1.49,3.26-4,3.9s-4,2.41-6.09,3.61-5,1-5.88-.56c-.71-1.21-.14-6.8-.14-6.8Z"/><path class="cls-41" d="M101.86,214.47c-1.2,5.66-4.46,11.26-5,14.38s-1.71,20.38-1.78,25.9.5,6.95.28,7.87-.77,1.91-2.69,3.54-5.59,3.33-7.51,1.56c-.71-.57-.49-11.48-.71-17.79-.21-5.66,1.14-20,1.42-23.7.35-4.39-1.2-12.9-1.06-19.84s5.67-16.08,5.67-16.08,13.39,2.83,14.1,2.9C104.63,193.21,103.07,208.8,101.86,214.47Z"/><path class="cls-42" d="M101.86,214.47c-1.2,5.66-4.46,11.26-5,14.38s-1.71,20.38-1.78,25.9.5,6.95.28,7.87-.77,1.91-2.69,3.54-5.59,3.33-7.51,1.56c-.71-.57-.49-11.48-.71-17.79-.21-5.66,1.14-20,1.42-23.7.35-4.39-1.2-12.9-1.06-19.84s5.67-16.08,5.67-16.08,13.39,2.83,14.1,2.9C104.63,193.21,103.07,208.8,101.86,214.47Z"/><path class="cls-43" d="M114.71,206.2a33.07,33.07,0,0,1-9.74,1.45,63.74,63.74,0,0,1-10.29-.81c.22,9.22,3.27,12.94,4.35,17.69,1.2,5.6,2.76,5,1.77,12.9s-.28,23.2-.21,27.74.85,13.46,1.42,14.38,3.47.43,6-.64c4.89-2,4.67-4.25,4.67-4.25s-.28-6.52-.42-11.05c-.14-5.24.14-21.65.92-29.59.78-7.65,2.42-14.67,2-23.17C115.13,208.82,114.69,206.11,114.71,206.2Z"/><path class="cls-44" d="M112.93,193.48v0a65.87,65.87,0,0,1,1.83-14.62c1-4.22,1.08-10.64-1.56-13.39-3.17-3.31-9.39-6.43-13.91-8-7.15-2.42-14.13-2.17-15.07,1.93-1.86,8.12,1.56,15.66,2.2,20.41a49,49,0,0,1,0,15.23c0,.1,0,.19,0,.29h0s-.94,6.52-1.25,8.55c2.26,1.74,10.57,3.77,19.84,3.76a33.07,33.07,0,0,0,9.74-1.45C114.26,204.42,112.61,198.78,112.93,193.48Z"/><path class="cls-45" d="M95.4,151.2s-.6,3.92-1,5.09c0,0-.68,1.05,3.1,2.62,2.43,1,7.54,1,7.54,1s-.74-4.65-.24-4.76a11.42,11.42,0,0,1,1.81-.1s-2.38-7.07-4.69-7.64S95.4,151.2,95.4,151.2Z"/><path class="cls-28" d="M109.14,138.48a12.22,12.22,0,0,1,1.07,2.65c.22,1.08-.23,1.29,0,2.13.36,1.41-.3,5.74-.51,7.81s-.83,3.82-2,4.06a2.93,2.93,0,0,1-3.11-1.94c-.46-1.34-.73-2.5-.73-2.5a6.74,6.74,0,0,1-1-4.36C103.15,144.6,107.63,136.27,109.14,138.48Z"/><path class="cls-46" d="M95.44,135.7s1.85-2.8,6.81-2.55,7.27.56,8.7.08c0,0,1.92,4-2.43,5.19,0,0-.7,2.68.11,4.29,0,0-2.47.85-2.24,6.1,0,0-.81.68-.77-.44s-.85-2.68-1.81-2.42-1.14,1.24-.87,2.63a12.54,12.54,0,0,0-2.11,3.46l-5.43-.84s-.89-2.25-2.1-4.57S90.59,138.91,95.44,135.7Z"/><path class="cls-47" d="M102.94,148.58c-.27-1.39-.09-2.37.87-2.63s1.86,1.3,1.81,2.42.77.44.77.44c-.23-5.25,2.24-6.1,2.24-6.1-.81-1.61-.11-4.29-.11-4.29s-11.66.92-7.69,13.62A12.54,12.54,0,0,1,102.94,148.58Z"/><path class="cls-48" d="M102.94,148.58c-.27-1.39-.09-2.37.87-2.63s1.86,1.3,1.81,2.42.77.44.77.44c-.23-5.25,2.24-6.1,2.24-6.1-.81-1.61-.11-4.29-.11-4.29s-11.66.92-7.69,13.62A12.54,12.54,0,0,1,102.94,148.58Z"/><path class="cls-28" d="M131.19,202.47s2.36,1,3.36,1.3a14.12,14.12,0,0,1,2.19.95,4.35,4.35,0,0,1,1.74,2.09c.26.82.45,2.38-.33,2.25s-.63-1.13-1-1.65a1,1,0,0,0-1.06-.27s2.18,4,2.41,4.5a2,2,0,0,1-.34,2.54,5.46,5.46,0,0,1-4.62.53c-.75-.21-2.36-2-3.24-3.52s-3-6.09-3-6.09Z"/><path class="cls-49" d="M105.61,174.25c.88,2.23,5.52,13.52,6.37,15.69s5.51,6.58,8.06,9.29,7,7.8,7.64,7.55,4.66-3.28,4.69-4.09-5.71-7-8.66-10.36-4.66-5.07-4.66-5.07a33.66,33.66,0,0,1-1.51-5.79,82,82,0,0,0-1.73-10.58c-1.33-5.84-3.8-5.61-6.83-4.92C105.48,166.75,104.06,170.34,105.61,174.25Z"/><path class="cls-50" d="M106.23,160.51a4.9,4.9,0,0,0-3.23-3.15c-2.82-1.11-8.41-2.77-8.41-2.77l-.83,2.09s.28,4.15,12.47,4"/></g></g></svg>