<svg xmlns="http://www.w3.org/2000/svg" xmlns:xlink="http://www.w3.org/1999/xlink" viewBox="90 50 530 600"><linearGradient id="a" gradientUnits="userSpaceOnUse" x1="325.706" y1="482.303" x2="449.31" y2="482.303"><stop offset="0" stop-color="#a5c5ff"/><stop offset="1" stop-color="#77a4f9"/></linearGradient><path fill="url(#a)" d="M614.108 473.724h.093v-21.111h-54.005l-188.39-108.759c-9.613-5.545-25.334-5.545-34.949 0L148.47 452.612H94.551v21.111c-.551 4.029 1.809 8.173 7.115 11.234l235.19 135.788c9.615 5.552 25.336 5.552 34.949 0l235.19-135.788c5.305-3.061 7.666-7.204 7.113-11.233z"/><path fill="#EFF7FF" d="M371.806 306.342c-9.613-5.545-25.334-5.545-34.949 0l-235.19 135.783c-9.609 5.553-9.609 14.632 0 20.183l235.19 135.783c9.615 5.552 25.336 5.552 34.949 0l235.19-135.783c9.606-5.551 9.606-14.63 0-20.183l-235.19-135.783z"/><linearGradient id="b" gradientUnits="userSpaceOnUse" x1="236.586" y1="452.293" x2="316.152" y2="452.293"><stop offset="0" stop-color="#a5c5ff" stop-opacity="0"/><stop offset="1" stop-color="#77a4f9"/></linearGradient><path opacity=".5" fill="url(#b)" d="M230.906 420.01c1.503-1.791 4.646-3.257 6.985-3.257h112.193a4.265 4.265 0 0 1 4.252 4.252v62.575a4.264 4.264 0 0 1-4.252 4.252H237.892c-2.339 0-5.479-1.468-6.979-3.263l-24.317-29.088c-1.5-1.795-1.497-4.729.006-6.52l24.304-28.951z"/><defs><path id="c" d="M371.806 306.342c-9.613-5.545-25.334-5.545-34.949 0l-235.19 135.783c-9.609 5.553-9.609 14.632 0 20.183l235.19 135.783c9.615 5.552 25.336 5.552 34.949 0l235.19-135.783c9.606-5.551 9.606-14.63 0-20.183l-235.19-135.783z"/></defs><clipPath id="d"><use xlink:href="#c" overflow="visible"/></clipPath><g clip-path="url(#d)"><linearGradient id="e" gradientUnits="userSpaceOnUse" x1="349.921" y1="481.877" x2="336.188" y2="574.268"><stop offset="0" stop-color="#a5c5ff"/><stop offset="1" stop-color="#0067dc"/></linearGradient><path fill="url(#e)" d="M369.592 567.792c-1.154 0-2.237.178-3.179.487l-71.242-41.131c-2.862-1.652-4.438-3.784-4.438-6.004s1.576-4.352 4.438-6.004l31.156-17.987 20.653 11.924c1.979 1.143 4.589 1.771 7.35 1.771 2.762 0 5.371-.629 7.35-1.771l89.778-51.832c2.211-1.277 3.428-3.062 3.429-5.025 0-1.965-1.218-3.75-3.429-5.029l-46.894-27.072 46.401-26.789c.92.29 1.972.455 3.088.455 3.598 0 6.524-1.713 6.524-3.82 0-2.105-2.927-3.82-6.524-3.82s-6.524 1.715-6.524 3.82c0 .707.336 1.368.91 1.937l-46.375 26.774-40.386-23.316c-1.978-1.141-4.588-1.769-7.349-1.769s-5.37.628-7.35 1.769l-89.777 51.832c-2.212 1.279-3.43 3.064-3.429 5.029 0 1.963 1.218 3.748 3.429 5.025l66.624 38.465-29.906 17.266c-3.668 2.117-5.688 5.019-5.688 8.169s2.021 6.052 5.688 8.169l70.002 40.414c-.542.558-.855 1.199-.855 1.885 0 2.106 2.927 3.82 6.524 3.82s6.524-1.714 6.524-3.82-2.926-3.822-6.523-3.822zM256.487 452.219c0-.94.756-1.917 2.073-2.678l89.776-51.832c1.55-.894 3.734-1.405 5.993-1.405 2.26 0 4.443.512 5.992 1.405l89.778 51.831c1.316.762 2.072 1.738 2.072 2.679s-.756 1.915-2.072 2.677l-89.778 51.832c-1.549.895-3.733 1.407-5.992 1.407s-4.442-.513-5.992-1.407l-89.777-51.832c-1.317-.762-2.072-1.737-2.073-2.677z"/><linearGradient id="f" gradientUnits="userSpaceOnUse" x1="409.753" y1="456.653" x2="458.758" y2="428.562"><stop offset="0" stop-color="#a5c5ff" stop-opacity="0"/><stop offset="1" stop-color="#0067dc"/></linearGradient><path fill="url(#f)" d="M369.592 567.792c-1.154 0-2.237.178-3.179.487l-71.242-41.131c-2.862-1.652-4.438-3.784-4.438-6.004s1.576-4.352 4.438-6.004l31.156-17.987 20.653 11.924c1.979 1.143 4.589 1.771 7.35 1.771 2.762 0 5.371-.629 7.35-1.771l89.778-51.832c2.211-1.277 3.428-3.062 3.429-5.025 0-1.965-1.218-3.75-3.429-5.029l-46.894-27.072 46.401-26.789c.92.29 1.972.455 3.088.455 3.598 0 6.524-1.713 6.524-3.82 0-2.105-2.927-3.82-6.524-3.82s-6.524 1.715-6.524 3.82c0 .707.336 1.368.91 1.937l-46.375 26.774-40.386-23.316c-1.978-1.141-4.588-1.769-7.349-1.769s-5.37.628-7.35 1.769l-89.777 51.832c-2.212 1.279-3.43 3.064-3.429 5.029 0 1.963 1.218 3.748 3.429 5.025l66.624 38.465-29.906 17.266c-3.668 2.117-5.688 5.019-5.688 8.169s2.021 6.052 5.688 8.169l70.002 40.414c-.542.558-.855 1.199-.855 1.885 0 2.106 2.927 3.82 6.524 3.82s6.524-1.714 6.524-3.82-2.926-3.822-6.523-3.822zM256.487 452.219c0-.94.756-1.917 2.073-2.678l89.776-51.832c1.55-.894 3.734-1.405 5.993-1.405 2.26 0 4.443.512 5.992 1.405l89.778 51.831c1.316.762 2.072 1.738 2.072 2.679s-.756 1.915-2.072 2.677l-89.778 51.832c-1.549.895-3.733 1.407-5.992 1.407s-4.442-.513-5.992-1.407l-89.777-51.832c-1.317-.762-2.072-1.737-2.073-2.677z"/></g><linearGradient id="g" gradientUnits="userSpaceOnUse" x1="427.266" y1="519.064" x2="521.566" y2="519.064"><stop offset="0" stop-color="#a5c5ff"/><stop offset="1" stop-color="#0067dc"/></linearGradient><path clip-path="url(#d)" fill="url(#g)" d="M440.314 495.308c0-2.105-2.927-3.82-6.524-3.82s-6.524 1.715-6.524 3.82c0 2.107 2.927 3.82 6.524 3.82 1.207 0 2.335-.195 3.306-.532l83.221 48.046 1.25-2.164-82.032-47.36c.496-.54.779-1.156.779-1.81z"/><linearGradient id="h" gradientUnits="userSpaceOnUse" x1="198.457" y1="510.809" x2="124.458" y2="474.309"><stop offset="0" stop-color="#a5c5ff"/><stop offset="1" stop-color="#0067dc"/></linearGradient><path clip-path="url(#d)" fill="url(#h)" d="M243.481 488.497l-69.539-40.146c.716-.613 1.137-1.354 1.137-2.152 0-2.105-2.927-3.82-6.524-3.82s-6.524 1.715-6.524 3.82c0 2.107 2.927 3.82 6.524 3.82.958 0 1.865-.124 2.685-.342l70.992 40.986c2.862 1.652 4.438 3.784 4.438 6.004 0 2.219-1.576 4.352-4.438 6.004l-77.561 44.778 1.25 2.165 77.561-44.779c3.668-2.117 5.688-5.018 5.688-8.168s-2.021-6.052-5.689-8.17z"/><linearGradient id="i" gradientUnits="userSpaceOnUse" x1="580.186" y1="446.603" x2="612.185" y2="466.603"><stop offset="0" stop-color="#a5c5ff"/><stop offset="1" stop-color="#0067dc"/></linearGradient><path clip-path="url(#d)" fill="url(#i)" d="M536.261 443.538c-2.862-1.652-4.438-3.785-4.438-6.004 0-2.22 1.576-4.352 4.438-6.004l31.889-18.41-1.25-2.166-31.889 18.41c-3.668 2.118-5.688 5.02-5.688 8.17s2.021 6.051 5.688 8.168l75.141 43.382 1.25-2.165-75.141-43.381z"/><linearGradient id="j" gradientUnits="userSpaceOnUse" x1="563.719" y1="227.498" x2="551.494" y2="196.695"><stop offset="0" stop-color="#0070e6"/><stop offset=".999" stop-color="#eff7ff"/></linearGradient><path fill="url(#j)" d="M579.331 249.24l-.003-43.346c0-2.902-1.779-6.306-3.963-7.562l-32.503-18.767c-1.097-.633-2.092-.604-2.812-.047l-2.8 1.609c.634.526 1.2.785 1.696.888-.015.178-.043.348-.043.542l-.003 43.345c0 2.904 1.784 6.308 3.961 7.564l32.026 18.491-.113 2.304 3.13-1.812-.016-.008c.874-.468 1.443-1.581 1.443-3.201z"/><linearGradient id="k" gradientUnits="userSpaceOnUse" x1="562.211" y1="240.199" x2="550.211" y2="197.698"><stop offset="0" stop-color="#b0a002"/><stop offset="1" stop-color="#ead77c"/></linearGradient><path fill="url(#k)" d="M572.131 200.204l-32.508-18.769c-2.178-1.26-3.958.085-3.955 2.993l-.003 43.341c0 2.902 1.78 6.306 3.958 7.567l32.508 18.767c2.178 1.257 3.961-.088 3.961-2.992l-.003-43.345c0-2.903-1.78-6.306-3.958-7.562z"/><linearGradient id="l" gradientUnits="userSpaceOnUse" x1="270.703" y1="227.955" x2="272.098" y2="205.297"><stop offset="0" stop-color="#0070e6"/><stop offset=".999" stop-color="#eff7ff"/></linearGradient><path fill="url(#l)" d="M249.909 252.205l.003-46.063c0-3.084 1.89-6.701 4.211-8.037l34.54-19.943c1.166-.674 2.223-.642 2.987-.05l2.976 1.709c-.674.559-1.275.834-1.803.943.017.189.047.37.047.576l.002 46.062c0 3.086-1.896 6.703-4.209 8.038l-34.035 19.65.123 2.449-3.327-1.926.017-.009c-.926-.495-1.532-1.677-1.532-3.399z"/><linearGradient id="m" gradientUnits="userSpaceOnUse" x1="269.81" y1="230.56" x2="284.799" y2="195.353"><stop offset="0" stop-color="#fa0171"/><stop offset="1" stop-color="#ff90bd"/></linearGradient><path fill="url(#m)" d="M257.56 200.095l34.546-19.944c2.314-1.339 4.207.09 4.203 3.18l.004 46.058c0 3.084-1.893 6.701-4.207 8.042l-34.546 19.943c-2.313 1.335-4.209-.094-4.209-3.18l.003-46.062c0-3.086 1.892-6.702 4.206-8.037z"/><linearGradient id="n" gradientUnits="userSpaceOnUse" x1="1085.33" y1="149.975" x2="1068.605" y2="107.831" gradientTransform="matrix(-1 0 0 1 1296.484 0)"><stop offset="0" stop-color="#0070e6"/><stop offset=".999" stop-color="#eff7ff"/></linearGradient><path fill="url(#n)" d="M189.796 179.72l.004-59.304c0-3.971 2.434-8.628 5.421-10.347l44.47-25.676c1.501-.867 2.862-.826 3.847-.064l3.831 2.201c-.868.719-1.643 1.075-2.321 1.214.021.244.06.476.06.742l.003 59.303c0 3.973-2.44 8.63-5.419 10.349l-43.818 25.299.157 3.153-4.283-2.479.021-.013c-1.194-.639-1.973-2.16-1.973-4.378z"/><linearGradient id="o" gradientUnits="userSpaceOnUse" x1="219.869" y1="150.171" x2="226.028" y2="108.907"><stop offset="0" stop-color="#38d611"/><stop offset="1" stop-color="#bcf0a7"/></linearGradient><path fill="url(#o)" d="M199.646 112.63l44.478-25.678c2.979-1.724 5.416.116 5.411 4.094l.005 59.298c0 3.971-2.438 8.627-5.416 10.353l-44.478 25.676c-2.979 1.72-5.419-.121-5.419-4.093l.005-59.303c-.001-3.972 2.435-8.627 5.414-10.347z"/><linearGradient id="p" gradientUnits="userSpaceOnUse" x1="153.476" y1="351.86" x2="180.643" y2="286.751"><stop offset="0" stop-color="#0070e6"/><stop offset=".999" stop-color="#eff7ff"/></linearGradient><path fill="url(#p)" d="M138.539 365.222l.005-64.365c0-4.31 2.643-9.364 5.885-11.23l48.264-27.867c1.629-.94 3.105-.896 4.175-.07l4.157 2.389c-.941.781-1.781 1.166-2.518 1.318.021.264.063.517.063.805l.004 64.364c0 4.312-2.65 9.366-5.882 11.231l-47.557 27.458.169 3.422-4.648-2.69.023-.013c-1.294-.694-2.14-2.345-2.14-4.752z"/><linearGradient id="q" gradientUnits="userSpaceOnUse" x1="168.999" y1="342.038" x2="179.266" y2="286.684"><stop offset="0" stop-color="#18a08d"/><stop offset="1" stop-color="#81d2c7"/></linearGradient><path fill="url(#q)" d="M149.23 292.407l48.272-27.87c3.233-1.871 5.877.126 5.872 4.444l.005 64.358c0 4.31-2.644 9.364-5.877 11.237l-48.272 27.866c-3.233 1.867-5.882-.131-5.882-4.443l.004-64.363c.001-4.31 2.645-9.363 5.878-11.229z"/><path fill="#FFF" d="M193.898 302.833l-3.8.871c-.375-1.629-.927-3.063-1.625-4.269l1.991-5.678c.309-.871.205-1.863-.228-2.181l-2.637-1.999c-.434-.335-1.221-.008-1.744.701l-3.395 4.607c-1.208-.232-2.521-.214-3.902.093l-.998-4.495c-.154-.688-.777-.977-1.384-.63l-3.744 2.166c-.605.354-1.232 1.357-1.386 2.232l-.998 5.634c-1.378 1.295-2.688 2.787-3.902 4.425l-3.392-.692c-.529-.112-1.31.474-1.739 1.299l-2.644 5.055c-.433.821-.537 1.92-.224 2.442l1.983 3.383a40.678 40.678 0 0 0-1.62 6.144l-3.805 3.519c-.589.54-1.069 1.652-1.069 2.464v4.982c0 .817.48 1.372 1.069 1.237l3.805-.865c.368 1.62.922 3.053 1.62 4.271l-1.983 5.667c-.313.883-.209 1.856.224 2.187l2.644 2.005c.43.316 1.21 0 1.739-.71l3.392-4.608c1.214.229 2.524.214 3.902-.094l1.001 4.492c.15.696.777.991 1.383.634l3.744-2.162c.606-.351 1.229-1.357 1.384-2.222l.998-5.645a32.755 32.755 0 0 0 3.904-4.419l3.393.686c.526.108 1.311-.472 1.744-1.303l2.637-5.048c.433-.823.536-1.92.228-2.452l-1.991-3.375a42.006 42.006 0 0 0 1.625-6.144l3.8-3.512c.591-.555 1.066-1.663 1.066-2.476v-4.986c.001-.807-.475-1.363-1.066-1.231zm-19.595 26.076c-4.315 2.494-7.812-.154-7.816-5.913.005-5.745 3.501-12.433 7.819-14.925 4.312-2.487 7.819.156 7.819 5.911 0 5.75-3.507 12.439-7.822 14.927z"/><g><linearGradient id="r" gradientUnits="userSpaceOnUse" x1="469.964" y1="372.84" x2="469.964" y2="291.903"><stop offset="0" stop-color="#0070e6"/><stop offset=".999" stop-color="#a5c5ff"/></linearGradient><path fill="url(#r)" d="M421.271 183.771v153.438c0 2.7 1.656 5.866 3.683 7.036l86.934 50.19v5.129l5.354-3.091-.021-.014c.865-.4 1.434-1.459 1.435-3.027l.001-153.438-97.386-56.223z"/><linearGradient id="s" gradientUnits="userSpaceOnUse" x1="456.178" y1="304.028" x2="403.578" y2="377.735"><stop offset="0" stop-color="#eff7ff"/><stop offset=".999" stop-color="#a5c5ff"/></linearGradient><path fill="url(#s)" d="M415.646 340.457c0 2.7 1.656 5.866 3.683 7.036l90.02 51.973c2.024 1.168 3.681-.084 3.682-2.785l.001-153.438-97.385-56.225v153.439z"/><linearGradient id="t" gradientUnits="userSpaceOnUse" x1="419.246" y1="443.654" x2="419.246" y2="459.075" gradientTransform="matrix(.866 .5 0 1.1547 134.786 -474.589)"><stop offset="0" stop-color="#a5c5ff"/><stop offset="1" stop-color="#77a4f9"/></linearGradient><path opacity=".8" fill="url(#t)" d="M503.537 272.617l-11.371-6.565c-2.324-1.342-4.216-4.956-4.216-8.055v-14.173c0-3.099 1.892-4.53 4.216-3.187l11.373 6.564c2.324 1.343 4.215 4.956 4.215 8.056v14.173c0 3.1-1.891 4.529-4.217 3.187zm-11.371-30.601c-1.754-1.013-3.181.065-3.18 2.404v14.173c0 2.339 1.428 5.064 3.181 6.077l11.372 6.566c1.754 1.013 3.18-.067 3.18-2.405v-14.173c0-2.338-1.427-5.065-3.18-6.078l-11.373-6.564z"/><linearGradient id="u" gradientUnits="userSpaceOnUse" x1="393.445" y1="443.654" x2="393.445" y2="459.075" gradientTransform="matrix(.866 .5 0 1.1547 134.786 -474.589)"><stop offset="0" stop-color="#a5c5ff"/><stop offset="1" stop-color="#77a4f9"/></linearGradient><path opacity=".8" fill="url(#u)" d="M481.195 259.717l-11.372-6.565c-2.323-1.342-4.216-4.956-4.216-8.055v-14.173c0-3.1 1.891-4.53 4.216-3.188l11.372 6.565c2.324 1.342 4.216 4.956 4.216 8.056v14.173c0 3.101-1.89 4.53-4.216 3.187zm-11.372-30.601c-1.754-1.012-3.18.066-3.18 2.405l-.001 14.173c0 2.338 1.427 5.064 3.181 6.077l11.372 6.564c1.754 1.013 3.181-.065 3.181-2.404v-14.172c0-2.338-1.427-5.065-3.181-6.078l-11.372-6.565z"/><linearGradient id="v" gradientUnits="userSpaceOnUse" x1="367.643" y1="443.654" x2="367.643" y2="459.076" gradientTransform="matrix(.866 .5 0 1.1547 134.786 -474.589)"><stop offset="0" stop-color="#a5c5ff"/><stop offset="1" stop-color="#77a4f9"/></linearGradient><path opacity=".8" fill="url(#v)" d="M458.851 246.816l-11.372-6.565c-2.325-1.342-4.216-4.957-4.216-8.056v-14.173c0-3.099 1.891-4.53 4.216-3.187l11.372 6.564c2.324 1.343 4.216 4.956 4.216 8.056v14.174c-.001 3.1-1.892 4.53-4.216 3.187zm-11.372-30.601c-1.754-1.012-3.181.065-3.181 2.404v14.173c0 2.339 1.427 5.065 3.181 6.077l11.372 6.566c1.754 1.013 3.181-.067 3.181-2.405v-14.173c0-2.338-1.427-5.065-3.181-6.078l-11.372-6.564z"/><linearGradient id="w" gradientUnits="userSpaceOnUse" x1="341.842" y1="443.656" x2="341.842" y2="459.077" gradientTransform="matrix(.866 .5 0 1.1547 134.786 -474.589)"><stop offset="0" stop-color="#a5c5ff"/><stop offset="1" stop-color="#77a4f9"/></linearGradient><path opacity=".8" fill="url(#w)" d="M436.508 233.917l-11.371-6.565c-2.326-1.342-4.217-4.957-4.218-8.056l.001-14.173c0-3.1 1.891-4.53 4.216-3.188l11.372 6.565c2.323 1.342 4.216 4.956 4.216 8.057l-.001 14.172c.001 3.101-1.891 4.53-4.215 3.188zm-11.372-30.602c-1.754-1.012-3.181.066-3.181 2.405v14.174c0 2.338 1.426 5.064 3.181 6.077l11.372 6.564c1.753 1.013 3.18-.065 3.18-2.404l.001-14.173c0-2.338-1.428-5.065-3.181-6.078l-11.372-6.565z"/><linearGradient id="x" gradientUnits="userSpaceOnUse" x1="419.246" y1="468.445" x2="419.246" y2="484.321" gradientTransform="matrix(.866 .5 0 1.1547 134.786 -474.589)"><stop offset="0" stop-color="#a5c5ff"/><stop offset="1" stop-color="#77a4f9"/></linearGradient><path opacity=".8" fill="url(#x)" d="M503.539 301.23l-11.373-6.564c-2.323-1.343-4.216-4.956-4.215-8.056l-.001-14.174c.001-3.1 1.893-4.529 4.216-3.187l11.373 6.565c2.324 1.342 4.216 4.957 4.216 8.056v14.173c-.001 3.099-1.892 4.53-4.216 3.187zm-11.373-30.602c-1.754-1.013-3.18.067-3.18 2.405v14.173c0 2.338 1.427 5.065 3.18 6.078l11.373 6.565c1.753 1.012 3.18-.065 3.18-2.404v-14.173c0-2.339-1.427-5.065-3.182-6.077l-11.371-6.567z"/><linearGradient id="y" gradientUnits="userSpaceOnUse" x1="393.445" y1="468.446" x2="393.445" y2="484.32" gradientTransform="matrix(.866 .5 0 1.1547 134.786 -474.589)"><stop offset="0" stop-color="#a5c5ff"/><stop offset="1" stop-color="#77a4f9"/></linearGradient><path opacity=".8" fill="url(#y)" d="M481.195 288.331l-11.372-6.565c-2.324-1.342-4.216-4.956-4.216-8.056v-14.174c0-3.099 1.891-4.529 4.215-3.187l11.373 6.566c2.324 1.342 4.216 4.955 4.216 8.056v14.173c0 3.099-1.89 4.529-4.216 3.187zm-11.372-30.602c-1.754-1.013-3.181.066-3.18 2.404v14.173c-.001 2.339 1.426 5.065 3.18 6.078l11.372 6.565c1.754 1.012 3.18-.067 3.181-2.404v-14.173c0-2.339-1.427-5.064-3.181-6.077l-11.372-6.566z"/><linearGradient id="z" gradientUnits="userSpaceOnUse" x1="367.643" y1="468.447" x2="367.643" y2="484.321" gradientTransform="matrix(.866 .5 0 1.1547 134.786 -474.589)"><stop offset="0" stop-color="#a5c5ff"/><stop offset="1" stop-color="#77a4f9"/></linearGradient><path opacity=".8" fill="url(#z)" d="M458.851 275.429l-11.372-6.564c-2.325-1.343-4.216-4.956-4.216-8.056v-14.173c0-3.1 1.892-4.529 4.216-3.187l11.372 6.565c2.325 1.342 4.216 4.956 4.216 8.055v14.173c-.001 3.1-1.892 4.53-4.216 3.187zm-11.372-30.601c-1.754-1.013-3.181.067-3.181 2.405v14.173c.001 2.338 1.427 5.065 3.181 6.078l11.372 6.564c1.754 1.013 3.181-.065 3.181-2.404v-14.173c0-2.339-1.428-5.064-3.181-6.077l-11.372-6.566z"/><linearGradient id="A" gradientUnits="userSpaceOnUse" x1="341.843" y1="468.447" x2="341.843" y2="484.321" gradientTransform="matrix(.866 .5 0 1.1547 134.786 -474.589)"><stop offset="0" stop-color="#a5c5ff"/><stop offset="1" stop-color="#77a4f9"/></linearGradient><path opacity=".8" fill="url(#A)" d="M436.508 262.53l-11.372-6.565c-2.325-1.342-4.216-4.956-4.216-8.056v-14.173c-.001-3.099 1.891-4.529 4.215-3.187l11.372 6.565c2.324 1.342 4.216 4.955 4.217 8.056v14.173c0 3.099-1.893 4.529-4.216 3.187zm-11.371-30.602c-1.755-1.013-3.182.066-3.182 2.404v14.173c0 2.339 1.427 5.065 3.181 6.078l11.372 6.565c1.754 1.013 3.18-.067 3.18-2.404v-14.173c0-2.339-1.426-5.064-3.18-6.077l-11.371-6.566z"/><linearGradient id="B" gradientUnits="userSpaceOnUse" x1="419.246" y1="493.692" x2="419.246" y2="508.661" gradientTransform="matrix(.866 .5 0 1.1547 134.786 -474.589)"><stop offset="0" stop-color="#a5c5ff"/><stop offset="1" stop-color="#77a4f9"/></linearGradient><path opacity=".8" fill="url(#B)" d="M503.539 329.844l-11.372-6.567c-2.324-1.341-4.216-4.955-4.217-8.055l.001-14.173c-.001-3.099 1.891-4.529 4.215-3.187l11.371 6.565c2.326 1.342 4.217 4.955 4.218 8.056l-.001 14.173c.001 3.1-1.891 4.53-4.215 3.188zm-11.373-30.602c-1.754-1.012-3.18.066-3.18 2.404v14.173c0 2.339 1.426 5.065 3.18 6.077l11.371 6.565c1.755 1.013 3.182-.066 3.182-2.404v-14.172c0-2.339-1.427-5.065-3.182-6.078l-11.371-6.565z"/><linearGradient id="C" gradientUnits="userSpaceOnUse" x1="393.445" y1="493.692" x2="393.445" y2="508.662" gradientTransform="matrix(.866 .5 0 1.1547 134.786 -474.589)"><stop offset="0" stop-color="#a5c5ff"/><stop offset="1" stop-color="#77a4f9"/></linearGradient><path opacity=".8" fill="url(#C)" d="M481.195 316.943l-11.372-6.564c-2.325-1.343-4.216-4.957-4.216-8.056V288.15c0-3.1 1.891-4.53 4.216-3.187l11.372 6.564c2.324 1.343 4.216 4.956 4.216 8.056v14.174c0 3.099-1.891 4.529-4.216 3.186zm-11.372-30.6c-1.754-1.012-3.181.065-3.181 2.404l.001 14.174c-.001 2.338 1.427 5.064 3.18 6.077l11.372 6.565c1.754 1.013 3.181-.066 3.181-2.404v-14.174c-.001-2.338-1.427-5.064-3.181-6.077l-11.372-6.565z"/><linearGradient id="D" gradientUnits="userSpaceOnUse" x1="367.643" y1="493.692" x2="367.643" y2="508.662" gradientTransform="matrix(.866 .5 0 1.1547 134.786 -474.589)"><stop offset="0" stop-color="#a5c5ff"/><stop offset="1" stop-color="#77a4f9"/></linearGradient><path opacity=".8" fill="url(#D)" d="M458.851 304.043l-11.372-6.566c-2.324-1.341-4.216-4.955-4.216-8.056v-14.173c0-3.099 1.891-4.529 4.216-3.187l11.372 6.565c2.324 1.342 4.216 4.956 4.216 8.057v14.172c-.001 3.101-1.891 4.53-4.216 3.188zm-11.372-30.601c-1.754-1.013-3.181.066-3.18 2.404l-.001 14.174c0 2.339 1.427 5.064 3.181 6.077l11.372 6.566c1.754 1.012 3.181-.066 3.181-2.404v-14.173c0-2.339-1.427-5.065-3.181-6.078l-11.372-6.566z"/><linearGradient id="E" gradientUnits="userSpaceOnUse" x1="341.842" y1="493.692" x2="341.842" y2="508.662" gradientTransform="matrix(.866 .5 0 1.1547 134.786 -474.589)"><stop offset="0" stop-color="#a5c5ff"/><stop offset="1" stop-color="#77a4f9"/></linearGradient><path opacity=".8" fill="url(#E)" d="M436.508 291.142l-11.373-6.564c-2.324-1.343-4.216-4.956-4.215-8.055l-.001-14.174c.001-3.1 1.892-4.53 4.217-3.187l11.372 6.565c2.323 1.343 4.216 4.956 4.215 8.055l.001 14.174c-.001 3.099-1.893 4.529-4.216 3.186zm-11.372-30.6c-1.754-1.013-3.181.065-3.181 2.404v14.173c0 2.338 1.427 5.064 3.182 6.077l11.371 6.565c1.754 1.012 3.18-.066 3.181-2.404l-.001-14.174c0-2.338-1.427-5.064-3.18-6.077l-11.372-6.564z"/><linearGradient id="F" gradientUnits="userSpaceOnUse" x1="393.445" y1="519.24" x2="393.445" y2="534.213" gradientTransform="matrix(.866 .5 0 1.1547 134.786 -474.589)"><stop offset="0" stop-color="#a5c5ff"/><stop offset="1" stop-color="#77a4f9"/></linearGradient><path opacity=".8" fill="url(#F)" d="M481.195 345.557l-11.372-6.565c-2.324-1.342-4.216-4.956-4.216-8.056v-14.172c0-3.101 1.892-4.529 4.216-3.188l11.372 6.566c2.325 1.341 4.216 4.956 4.216 8.055v14.173c0 3.099-1.89 4.529-4.216 3.187zm-11.373-30.602c-1.753-1.013-3.18.066-3.18 2.405l.001 14.172c0 2.339 1.426 5.065 3.18 6.078l11.372 6.565c1.754 1.013 3.181-.066 3.181-2.404v-14.173c0-2.339-1.427-5.065-3.181-6.078l-11.373-6.565z"/><linearGradient id="G" gradientUnits="userSpaceOnUse" x1="367.643" y1="519.24" x2="367.643" y2="534.213" gradientTransform="matrix(.866 .5 0 1.1547 134.786 -474.589)"><stop offset="0" stop-color="#a5c5ff"/><stop offset="1" stop-color="#77a4f9"/></linearGradient><path opacity=".8" fill="url(#G)" d="M458.851 332.656l-11.372-6.565c-2.325-1.343-4.216-4.956-4.216-8.056v-14.172c0-3.101 1.891-4.53 4.216-3.189l11.372 6.566c2.323 1.341 4.216 4.956 4.216 8.055v14.174c-.001 3.099-1.892 4.53-4.216 3.187zm-11.372-30.601c-1.754-1.012-3.181.066-3.181 2.405v14.172c0 2.338 1.427 5.065 3.181 6.078l11.372 6.564c1.754 1.013 3.181-.066 3.181-2.404v-14.173c0-2.339-1.427-5.064-3.181-6.077l-11.372-6.565z"/><linearGradient id="H" gradientUnits="userSpaceOnUse" x1="341.843" y1="519.24" x2="341.843" y2="534.213" gradientTransform="matrix(.866 .5 0 1.1547 134.786 -474.589)"><stop offset="0" stop-color="#a5c5ff"/><stop offset="1" stop-color="#77a4f9"/></linearGradient><path opacity=".8" fill="url(#H)" d="M436.508 319.756l-11.372-6.566c-2.325-1.342-4.216-4.956-4.216-8.056v-14.172c0-3.1 1.891-4.529 4.217-3.188l11.371 6.566c2.324 1.341 4.216 4.956 4.216 8.055v14.174c0 3.099-1.893 4.53-4.216 3.187zm-11.373-30.602c-1.754-1.012-3.18.066-3.18 2.405v14.173c0 2.339 1.427 5.065 3.181 6.078l11.372 6.565c1.754 1.013 3.181-.066 3.18-2.404v-14.173c0-2.339-1.428-5.065-3.181-6.078l-11.372-6.566z"/><linearGradient id="I" gradientUnits="userSpaceOnUse" x1="393.445" y1="544.485" x2="393.445" y2="557.843" gradientTransform="matrix(.866 .5 0 1.1547 134.786 -474.589)"><stop offset="0" stop-color="#a5c5ff"/><stop offset="1" stop-color="#77a4f9"/></linearGradient><path opacity=".8" fill="url(#I)" d="M481.195 374.17l-11.372-6.565c-2.323-1.343-4.216-4.956-4.216-8.056v-14.173c0-3.1 1.891-4.53 4.216-3.187l11.372 6.564c2.324 1.343 4.216 4.957 4.216 8.057v14.172c0 3.101-1.89 4.53-4.216 3.188zm-11.372-30.601c-1.754-1.013-3.18.065-3.18 2.404l-.001 14.173c0 2.338 1.427 5.064 3.181 6.077l11.372 6.564c1.754 1.013 3.181-.065 3.181-2.404V356.21c0-2.337-1.427-5.065-3.181-6.077l-11.372-6.564z"/><linearGradient id="J" gradientUnits="userSpaceOnUse" x1="354.742" y1="544.487" x2="354.742" y2="557.844" gradientTransform="matrix(.866 .5 0 1.1547 134.786 -474.589)"><stop offset="0" stop-color="#a5c5ff"/><stop offset="1" stop-color="#77a4f9"/></linearGradient><path opacity=".8" fill="url(#J)" d="M458.851 361.269l-33.714-19.465c-2.326-1.342-4.217-4.956-4.218-8.055l.001-14.173c0-3.101 1.891-4.53 4.216-3.188l33.715 19.465c2.324 1.342 4.216 4.955 4.216 8.055v14.174c-.001 3.1-1.893 4.528-4.216 3.187zm-33.715-43.5c-1.754-1.013-3.181.065-3.181 2.404v14.173c0 2.338 1.426 5.064 3.18 6.077l33.716 19.465c1.754 1.013 3.181-.067 3.181-2.404V343.31c0-2.338-1.427-5.064-3.181-6.077l-33.715-19.464z"/><linearGradient id="K" gradientUnits="userSpaceOnUse" x1="419.246" y1="518.006" x2="419.246" y2="533.88" gradientTransform="matrix(.866 .5 0 1.1547 134.786 -474.589)"><stop offset="0" stop-color="#a5c5ff"/><stop offset="1" stop-color="#77a4f9"/></linearGradient><path opacity=".8" fill="url(#K)" d="M503.539 358.456l-11.373-6.564c-2.323-1.343-4.216-4.956-4.216-8.056v-14.173c0-3.101 1.891-4.53 4.216-3.188l11.371 6.566c2.325 1.341 4.217 4.956 4.217 8.055l.001 14.173c-.001 3.099-1.892 4.53-4.216 3.187zm-11.373-30.601c-1.753-1.013-3.18.066-3.18 2.405v14.172c-.001 2.338 1.427 5.065 3.18 6.078l11.373 6.564c1.753 1.013 3.18-.066 3.18-2.404v-14.173c0-2.339-1.427-5.064-3.18-6.077l-11.373-6.565z"/><linearGradient id="L" gradientUnits="userSpaceOnUse" x1="419.246" y1="543.251" x2="419.246" y2="558.22" gradientTransform="matrix(.866 .5 0 1.1547 134.786 -474.589)"><stop offset="0" stop-color="#a5c5ff"/><stop offset="1" stop-color="#77a4f9"/></linearGradient><path opacity=".8" fill="url(#L)" d="M503.537 387.069l-11.371-6.565c-2.324-1.343-4.216-4.956-4.215-8.056l-.001-14.174c0-3.099 1.892-4.529 4.216-3.187l11.371 6.565c2.326 1.342 4.217 4.955 4.217 8.056l.001 14.174c-.001 3.099-1.892 4.529-4.218 3.187zm-11.371-30.6c-1.754-1.013-3.181.064-3.18 2.403v14.174c0 2.339 1.427 5.064 3.181 6.077l11.372 6.565c1.754 1.014 3.18-.066 3.18-2.403V369.11c0-2.338-1.427-5.064-3.182-6.076l-11.371-6.565z"/><linearGradient id="M" gradientUnits="userSpaceOnUse" x1="340.932" y1="457.571" x2="340.932" y2="529.667" gradientTransform="matrix(.866 .5 0 1.1547 134.786 -474.589)"><stop offset="0" stop-color="#a5c5ff"/><stop offset="1" stop-color="#77a4f9"/></linearGradient><path opacity=".8" fill="url(#M)" d="M431.443 308.609l.001-9.519-2.034-1.174-.787 1.248 1.471.848v7.818z"/><linearGradient id="N" gradientUnits="userSpaceOnUse" x1="367.615" y1="457.565" x2="367.615" y2="529.666" gradientTransform="matrix(.866 .5 0 1.1547 134.786 -474.589)"><stop offset="0" stop-color="#a5c5ff"/><stop offset="1" stop-color="#77a4f9"/></linearGradient><path opacity=".8" fill="url(#N)" d="M453.869 318.755c.641-.52 1.082-1.035 1.324-1.547a3.78 3.78 0 0 0 .361-1.616c0-.475-.101-1-.3-1.574a5.4 5.4 0 0 0-.795-1.514 3.87 3.87 0 0 0-1.148-1.028c-.702-.405-1.277-.442-1.726-.113-.448.331-.689 1-.726 2.004l1.325.766c.014-.49.117-.822.312-1 .193-.177.436-.181.727-.013.288.167.523.422.707.768.183.344.274.701.274 1.067 0 .354-.089.699-.266 1.035-.176.336-.53.709-1.064 1.123l-2.208 1.728v.867l4.946 2.855v-1.677l-2.546-1.468.803-.663z"/><linearGradient id="O" gradientUnits="userSpaceOnUse" x1="393.354" y1="457.568" x2="393.354" y2="529.666" gradientTransform="matrix(.866 .5 0 1.1547 134.786 -474.589)"><stop offset="0" stop-color="#a5c5ff"/><stop offset="1" stop-color="#77a4f9"/></linearGradient><path opacity=".8" fill="url(#O)" d="M476.511 329.386c.329-.024.582-.163.755-.411.173-.25.26-.587.26-1.009 0-.682-.198-1.385-.595-2.11-.396-.725-.887-1.256-1.473-1.594-.657-.379-1.202-.396-1.637-.052-.31.248-.499.704-.567 1.368l1.307.754c.058-.217.165-.359.324-.424.158-.065.335-.043.529.069.221.127.397.316.534.564.136.249.204.503.204.762 0 .198-.045.36-.134.486a.473.473 0 0 1-.374.202c-.159.009-.403-.063-.73-.218l-.001 1.552c.531.316.938.704 1.218 1.164.282.459.424.906.424 1.337 0 .392-.104.664-.314.815-.208.151-.471.135-.787-.048-.305-.175-.556-.441-.756-.795-.198-.354-.326-.794-.386-1.32l-1.344-.776c.043.987.281 1.885.718 2.696.437.811 1.002 1.416 1.693 1.816.731.422 1.334.473 1.807.152.472-.32.708-.907.708-1.762 0-.583-.122-1.159-.366-1.729a4.617 4.617 0 0 0-1.017-1.489z"/><linearGradient id="P" gradientUnits="userSpaceOnUse" x1="342.07" y1="457.578" x2="342.07" y2="529.668" gradientTransform="matrix(.866 .5 0 1.1547 134.786 -474.589)"><stop offset="0" stop-color="#a5c5ff"/><stop offset="1" stop-color="#77a4f9"/></linearGradient><path opacity=".8" fill="url(#P)" d="M432.344 328.277c-.377-.559-.826-.987-1.347-1.288-.802-.463-1.43-.394-1.878.209-.405.552-.607 1.701-.607 3.45 0 1.25.104 2.274.311 3.071.207.796.493 1.466.859 2.01a4.09 4.09 0 0 0 1.354 1.281c.538.31.982.401 1.333.275.354-.127.635-.482.843-1.064.21-.583.314-1.506.314-2.771 0-1.25-.104-2.286-.31-3.105-.203-.821-.495-1.51-.872-2.068zm-.532 6.845c-.193.323-.455.39-.784.201-.343-.198-.62-.587-.835-1.172-.215-.583-.323-1.477-.323-2.681 0-.923.048-1.597.141-2.021.094-.426.229-.685.406-.779.18-.092.382-.074.611.059.335.193.609.589.822 1.185.211.597.316 1.521.316 2.772 0 1.233-.118 2.045-.354 2.436z"/><linearGradient id="Q" gradientUnits="userSpaceOnUse" x1="393.717" y1="457.639" x2="393.717" y2="529.682" gradientTransform="matrix(.866 .5 0 1.1547 134.786 -474.589)"><stop offset="0" stop-color="#a5c5ff"/><stop offset="1" stop-color="#77a4f9"/></linearGradient><path opacity=".8" fill="url(#Q)" d="M475.744 360.738c-.21-.122-.389-.128-.537-.018-.15.11-.225.306-.225.586s.074.563.224.849c.149.283.328.486.538.607.211.122.39.126.539.015.148-.113.223-.311.223-.591a1.783 1.783 0 0 0-.223-.844c-.149-.281-.328-.483-.539-.604z"/><linearGradient id="R" gradientUnits="userSpaceOnUse" x1="341.492" y1="457.568" x2="341.492" y2="529.669" gradientTransform="matrix(.866 .5 0 1.1547 134.786 -474.589)"><stop offset="0" stop-color="#a5c5ff"/><stop offset="1" stop-color="#77a4f9"/></linearGradient><path opacity=".8" fill="url(#R)" d="M431.094 280.134l1.33.768v-1.955l.635.368v-1.676l-.635-.368v-6.128l-1.354-.782-3.092 4.343v1.676l3.116 1.799v1.955zm-1.631-4.572l1.632-2.249-.001 3.19-1.631-.941z"/><linearGradient id="S" gradientUnits="userSpaceOnUse" x1="367.592" y1="457.567" x2="367.592" y2="529.668" gradientTransform="matrix(.866 .5 0 1.1547 134.786 -474.589)"><stop offset="0" stop-color="#a5c5ff"/><stop offset="1" stop-color="#77a4f9"/></linearGradient><path opacity=".8" fill="url(#S)" d="M453.142 291.42a1.889 1.889 0 0 1-.595-.573 3.276 3.276 0 0 1-.434-.927l-1.427-.824c.135.881.422 1.678.858 2.392.437.714.959 1.246 1.567 1.597.679.392 1.257.408 1.73.045s.71-1.008.711-1.936c0-.919-.214-1.796-.644-2.633-.428-.837-.966-1.441-1.614-1.815a1.483 1.483 0 0 0-.459-.175l.29-1.56 2.33 1.345.001-1.676-3.345-1.931-.864 4.788 1.106.97a.794.794 0 0 1 .425-.202.703.703 0 0 1 .439.105c.278.161.516.439.711.835.195.395.293.812.293 1.252 0 .453-.104.764-.314.931-.209.169-.465.166-.765-.008z"/><linearGradient id="T" gradientUnits="userSpaceOnUse" x1="393.321" y1="457.573" x2="393.321" y2="529.663" gradientTransform="matrix(.866 .5 0 1.1547 134.786 -474.589)"><stop offset="0" stop-color="#a5c5ff"/><stop offset="1" stop-color="#77a4f9"/></linearGradient><path opacity=".8" fill="url(#T)" d="M475.555 296.045l-1.834 3.73c-.239.478-.393.848-.46 1.107a3.391 3.391 0 0 0-.099.828c0 .773.215 1.582.643 2.427.43.844.966 1.454 1.609 1.825.615.355 1.139.37 1.574.045.436-.324.653-.9.653-1.729 0-.858-.211-1.699-.636-2.522-.424-.823-.939-1.41-1.543-1.759l1.249-2.513-1.156-1.439zm.491 6.371c.178.346.266.702.266 1.069 0 .375-.091.633-.272.773-.181.142-.397.14-.649-.006-.24-.138-.449-.385-.629-.738-.179-.355-.269-.715-.269-1.082s.086-.622.258-.767c.17-.145.383-.145.635.001.264.154.485.405.66.75z"/><linearGradient id="U" gradientUnits="userSpaceOnUse" x1="341.718" y1="457.569" x2="341.718" y2="529.67" gradientTransform="matrix(.866 .5 0 1.1547 134.786 -474.589)"><stop offset="0" stop-color="#a5c5ff"/><stop offset="1" stop-color="#77a4f9"/></linearGradient><path opacity=".8" fill="url(#U)" d="M429.833 250.512l3.223-6.946v-.952l-4.685-2.704v1.702l2.994 1.729-2.68 5.766z"/><linearGradient id="V" gradientUnits="userSpaceOnUse" x1="367.727" y1="457.573" x2="367.727" y2="529.663" gradientTransform="matrix(.866 .5 0 1.1547 134.786 -474.589)"><stop offset="0" stop-color="#a5c5ff"/><stop offset="1" stop-color="#77a4f9"/></linearGradient><path opacity=".8" fill="url(#V)" d="M454.7 259.469c.251-.217.426-.443.522-.678.095-.236.142-.524.143-.865a4.69 4.69 0 0 0-.273-1.512 4.987 4.987 0 0 0-.751-1.407 3.742 3.742 0 0 0-1.103-.979c-.423-.245-.798-.348-1.121-.309-.324.04-.574.211-.754.516-.18.304-.27.703-.27 1.2 0 .362.054.736.162 1.125s.27.788.483 1.2a1.4 1.4 0 0 0-.735.679c-.163.318-.245.728-.244 1.228 0 .578.101 1.157.304 1.734.205.578.476 1.078.816 1.501.341.423.798.8 1.373 1.133.537.31.979.447 1.325.412.347-.036.622-.227.827-.576.206-.346.309-.795.309-1.343.001-.504-.088-1.026-.265-1.561s-.425-1.035-.748-1.498zm-2.055-3.743c.144-.113.327-.104.551.025.243.14.438.349.587.626.15.277.223.568.224.874-.001.321-.073.542-.221.66-.147.117-.336.109-.565-.023-.224-.129-.411-.341-.563-.634a1.959 1.959 0 0 1-.229-.9c.001-.307.071-.516.216-.628zm1.417 6.688c-.207.129-.482.094-.828-.105-.344-.198-.62-.49-.83-.877s-.315-.772-.314-1.156c0-.366.11-.619.334-.755.223-.136.498-.11.825.079.32.185.587.472.8.86.214.389.32.78.32 1.172 0 .392-.101.653-.307.782z"/><linearGradient id="W" gradientUnits="userSpaceOnUse" x1="393.443" y1="457.572" x2="393.443" y2="529.662" gradientTransform="matrix(.866 .5 0 1.1547 134.786 -474.589)"><stop offset="0" stop-color="#a5c5ff"/><stop offset="1" stop-color="#77a4f9"/></linearGradient><path opacity=".8" fill="url(#W)" d="M477.748 271.133c0-.775-.215-1.586-.643-2.431-.429-.844-.966-1.452-1.608-1.823-.615-.355-1.141-.372-1.575-.047-.436.323-.653.902-.653 1.734 0 .857.212 1.698.637 2.52.424.823.939 1.409 1.547 1.76l-1.252 2.518 1.155 1.431 1.834-3.736c.24-.478.393-.845.46-1.102.067-.256.098-.531.098-.824zm-1.586.039c-.173.146-.385.146-.637 0-.266-.153-.486-.402-.661-.749a2.333 2.333 0 0 1-.266-1.07c0-.37.091-.626.271-.77.182-.142.397-.141.65.005.239.138.449.384.629.738.18.353.269.715.269 1.084.001.362-.085.615-.255.762z"/><linearGradient id="X" gradientUnits="userSpaceOnUse" x1="419.121" y1="457.565" x2="419.121" y2="529.669" gradientTransform="matrix(.866 .5 0 1.1547 134.786 -474.589)"><stop offset="0" stop-color="#a5c5ff"/><stop offset="1" stop-color="#77a4f9"/></linearGradient><path opacity=".8" fill="url(#X)" d="M497.138 316.737l1.213.701.001-2.42 1.815 1.048v-1.618l-1.815-1.048-.002-2.428-1.212-.701v2.428l-1.816-1.048v1.618l1.816 1.048z"/><linearGradient id="Y" gradientUnits="userSpaceOnUse" x1="419.12" y1="457.576" x2="419.12" y2="529.735" gradientTransform="matrix(.866 .5 0 1.1547 134.786 -474.589)"><stop offset="0" stop-color="#a5c5ff"/><stop offset="1" stop-color="#77a4f9"/></linearGradient><path opacity=".8" fill="url(#Y)" d="M500.166 256.796l-4.845-2.797v1.618l4.845 2.797z"/><linearGradient id="Z" gradientUnits="userSpaceOnUse" x1="419.121" y1="457.606" x2="419.121" y2="529.664" gradientTransform="matrix(.866 .5 0 1.1547 134.786 -474.589)"><stop offset="0" stop-color="#a5c5ff"/><stop offset="1" stop-color="#77a4f9"/></linearGradient><path opacity=".8" fill="url(#Z)" d="M500.167 342.721l-4.845-2.797v1.618l4.845 2.797z"/><linearGradient id="aa" gradientUnits="userSpaceOnUse" x1="419.793" y1="457.568" x2="419.793" y2="529.672" gradientTransform="matrix(.866 .5 0 1.1547 134.786 -474.589)"><stop offset="0" stop-color="#a5c5ff"/><stop offset="1" stop-color="#77a4f9"/></linearGradient><path opacity=".8" fill="url(#aa)" d="M500.47 284.902l-.858-1.64-1.287.974-1.283-2.453-.857.65 1.283 2.451-1.284.97.858 1.64 1.283-.97 1.284 2.452.859-.648-1.285-2.454z"/><linearGradient id="ab" gradientUnits="userSpaceOnUse" x1="419.123" y1="457.552" x2="419.123" y2="529.66" gradientTransform="matrix(.866 .5 0 1.1547 134.786 -474.589)"><stop offset="0" stop-color="#a5c5ff"/><stop offset="1" stop-color="#77a4f9"/></linearGradient><path opacity=".8" fill="url(#ab)" d="M495.322 371.88l4.849 2.8v-1.619l-4.849-2.798z"/><linearGradient id="ac" gradientUnits="userSpaceOnUse" x1="419.123" y1="457.553" x2="419.123" y2="529.661" gradientTransform="matrix(.866 .5 0 1.1547 134.786 -474.589)"><stop offset="0" stop-color="#a5c5ff"/><stop offset="1" stop-color="#77a4f9"/></linearGradient><path opacity=".8" fill="url(#ac)" d="M495.322 369.104l4.849 2.798v-1.617l-4.849-2.799z"/><linearGradient id="ad" gradientUnits="userSpaceOnUse" x1="339.065" y1="457.571" x2="339.065" y2="529.667" gradientTransform="matrix(.866 .5 0 1.1547 134.786 -474.589)"><stop offset="0" stop-color="#a5c5ff"/><stop offset="1" stop-color="#77a4f9"/></linearGradient><path opacity=".8" fill="url(#ad)" d="M429.72 219.8l.909.525-1.767-7.143-.888-.513-1.771 5.101.908.524.374-1.044 1.874 1.082.361 1.468zm-1.911-3.501l.614-1.747.614 2.456-1.228-.709z"/><linearGradient id="ae" gradientUnits="userSpaceOnUse" x1="344.705" y1="457.573" x2="344.705" y2="529.674" gradientTransform="matrix(.866 .5 0 1.1547 134.786 -474.589)"><stop offset="0" stop-color="#a5c5ff"/><stop offset="1" stop-color="#77a4f9"/></linearGradient><path opacity=".8" fill="url(#ae)" d="M433.51 216.84c.52.3.988.863 1.404 1.689l.611-.424a6.609 6.609 0 0 0-.907-1.434c-.351-.416-.716-.733-1.095-.952-.445-.257-.861-.353-1.247-.287s-.682.276-.891.631c-.205.355-.309.837-.31 1.448 0 .944.227 1.848.683 2.715.453.865 1.04 1.505 1.752 1.917.387.223.732.337 1.033.341.303.004.622-.118.961-.364l-.591-1.166c-.252.188-.483.284-.693.29-.21.004-.441-.065-.695-.212a2.762 2.762 0 0 1-.812-.739 3.761 3.761 0 0 1-.564-1.072 3.701 3.701 0 0 1-.199-1.203c-.001-.585.151-.992.451-1.218.3-.228.669-.214 1.109.04z"/><linearGradient id="af" gradientUnits="userSpaceOnUse" x1="364.241" y1="457.572" x2="364.241" y2="529.675" gradientTransform="matrix(.866 .5 0 1.1547 134.786 -474.589)"><stop offset="0" stop-color="#a5c5ff"/><stop offset="1" stop-color="#77a4f9"/></linearGradient><path opacity=".8" fill="url(#af)" d="M450.688 229.123l.001-1.874 1.405.812.001-1.253-1.407-.812v-1.879l-.939-.543v1.879l-1.406-.811v1.252l1.406.813v1.874z"/><linearGradient id="ag" gradientUnits="userSpaceOnUse" x1="368.619" y1="457.571" x2="368.619" y2="529.663" gradientTransform="matrix(.866 .5 0 1.1547 134.786 -474.589)"><stop offset="0" stop-color="#a5c5ff"/><stop offset="1" stop-color="#77a4f9"/></linearGradient><path opacity=".8" fill="url(#ag)" d="M452.946 235.834l3.01-9.032-.889-.513-3.004 9.036z"/><linearGradient id="ah" gradientUnits="userSpaceOnUse" x1="371.889" y1="457.571" x2="371.889" y2="529.658" gradientTransform="matrix(.866 .5 0 1.1547 134.786 -474.589)"><stop offset="0" stop-color="#a5c5ff"/><stop offset="1" stop-color="#77a4f9"/></linearGradient><path opacity=".8" fill="url(#ah)" d="M455.887 235.925l1.909 1.102-.001-1.273-1.909-1.102z"/><linearGradient id="ai" gradientUnits="userSpaceOnUse" x1="395.727" y1="457.57" x2="395.727" y2="529.664" gradientTransform="matrix(.866 .5 0 1.1547 134.786 -474.589)"><stop offset="0" stop-color="#a5c5ff"/><stop offset="1" stop-color="#77a4f9"/></linearGradient><path opacity=".8" fill="url(#ai)" d="M478.712 246.025a4.083 4.083 0 0 0-.531-.811 2.63 2.63 0 0 0-.686-.581c-.253-.146-.483-.217-.691-.213s-.388.069-.537.2a1.292 1.292 0 0 0-.349.554c-.082.24-.123.524-.124.85l.001.027c0 .327.039.654.119.982.08.329.194.643.342.94.15.299.327.57.533.812.205.242.435.437.685.581.252.146.482.217.692.214a.806.806 0 0 0 .536-.201 1.28 1.28 0 0 0 .349-.554c.082-.24.124-.523.123-.85l.001-.026a4.412 4.412 0 0 0-.463-1.924zm-.582 1.375c-.001.299-.052.535-.157.703-.106.169-.267.192-.479.069-.199-.114-.356-.323-.477-.625a2.521 2.521 0 0 1-.18-.919l.001-.026c0-.309.054-.545.158-.71.105-.165.266-.185.477-.063.2.116.358.325.478.627.12.303.179.609.179.918v.026z"/><linearGradient id="aj" gradientUnits="userSpaceOnUse" x1="390.79" y1="457.571" x2="390.79" y2="529.673" gradientTransform="matrix(.866 .5 0 1.1547 134.786 -474.589)"><stop offset="0" stop-color="#a5c5ff"/><stop offset="1" stop-color="#77a4f9"/></linearGradient><path opacity=".8" fill="url(#aj)" d="M473.201 242.154c.25.145.481.217.69.213a.8.8 0 0 0 .536-.2c.15-.131.266-.316.349-.555.082-.239.124-.522.123-.85l.001-.026a4.35 4.35 0 0 0-.463-1.923 4.097 4.097 0 0 0-.531-.811 2.657 2.657 0 0 0-.687-.581c-.251-.146-.481-.217-.69-.213a.815.815 0 0 0-.537.2 1.279 1.279 0 0 0-.348.555 2.597 2.597 0 0 0-.125.849l.001.027c-.001.327.04.655.12.983a4.315 4.315 0 0 0 .874 1.751c.205.241.435.436.687.581zm-.638-2.766c.001-.309.054-.545.159-.71.106-.164.265-.185.479-.062.197.114.356.323.476.626.12.302.18.61.179.918l.001.027c0 .301-.053.535-.158.704-.106.169-.267.191-.479.068-.199-.114-.356-.323-.478-.626a2.514 2.514 0 0 1-.178-.919l-.001-.026z"/><linearGradient id="ak" gradientUnits="userSpaceOnUse" x1="393.259" y1="457.571" x2="393.259" y2="529.673" gradientTransform="matrix(.866 .5 0 1.1547 134.786 -474.589)"><stop offset="0" stop-color="#a5c5ff"/><stop offset="1" stop-color="#77a4f9"/></linearGradient><path opacity=".8" fill="url(#ak)" d="M478.479 240.562l-1.185-.683-5.077 6.346 1.182.682z"/><linearGradient id="al" gradientUnits="userSpaceOnUse" x1="419.12" y1="457.572" x2="419.12" y2="529.681" gradientTransform="matrix(.866 .5 0 1.1547 134.786 -474.589)"><stop offset="0" stop-color="#a5c5ff"/><stop offset="1" stop-color="#77a4f9"/></linearGradient><path opacity=".8" fill="url(#al)" d="M497.744 254.588c.335.194.606-.011.606-.458 0-.445-.271-.965-.606-1.159-.335-.192-.606.013-.607.458.001.448.272.967.607 1.159z"/><linearGradient id="am" gradientUnits="userSpaceOnUse" x1="419.121" y1="457.569" x2="419.121" y2="529.628" gradientTransform="matrix(.866 .5 0 1.1547 134.786 -474.589)"><stop offset="0" stop-color="#a5c5ff"/><stop offset="1" stop-color="#77a4f9"/></linearGradient><path opacity=".8" fill="url(#am)" d="M497.138 258.276c0 .446.271.966.606 1.16.335.192.606-.013.606-.46 0-.446-.271-.966-.606-1.158-.335-.193-.606.012-.606.458z"/><linearGradient id="an" gradientUnits="userSpaceOnUse" x1="458.144" y1="173.066" x2="512.07" y2="243.781"><stop offset="0" stop-color="#0070e6"/><stop offset="1" stop-color="#00152b"/></linearGradient><path fill="url(#an)" d="M518.656 239.995l-.002-43.736c0-2.699-1.656-5.865-3.682-7.035l-90.019-51.973c-1.026-.592-1.956-.562-2.626-.038l-5.447 3.145 4.39 4.697.001 38.715 78.574 45.364 13.185 14.108 5.626-3.247z"/><linearGradient id="ao" gradientUnits="userSpaceOnUse" x1="448.234" y1="227.049" x2="474.943" y2="170.07"><stop offset="0" stop-color="#0070e6"/><stop offset="1" stop-color="#00152b"/></linearGradient><path fill="url(#ao)" d="M509.347 192.472l-90.019-51.973c-2.026-1.17-3.683.084-3.684 2.783l.001 43.736 97.385 56.225-.002-43.736c0-2.699-1.656-5.865-3.681-7.035z"/><g opacity=".5"><path fill="#0070E6" d="M516.116 256.968c.37-.215.673.02.673.52v13.281c0 .502-.303 1.087-.673 1.301s-.675-.021-.675-.522v-13.281c0-.501.305-1.086.675-1.299z"/></g><g opacity=".5"><path fill="#0070E6" d="M516.116 277.414c.37-.215.673.02.673.52v13.281c0 .502-.303 1.087-.673 1.301s-.675-.021-.675-.522v-13.281c0-.502.305-1.086.675-1.299z"/></g><g fill="#0070E6"><path d="M447.864 196.953c-.659-.381-1.254-.909-1.782-1.583-.53-.675-.98-1.439-1.354-2.296a13.706 13.706 0 0 1-.859-2.719 14.029 14.029 0 0 1-.298-2.87v-.039c0-.945.103-1.785.307-2.521.203-.736.495-1.316.873-1.738.378-.422.831-.669 1.361-.737.528-.071 1.122.085 1.783.467.65.375 1.239.899 1.768 1.573.529.675.98 1.439 1.354 2.296.373.856.659 1.766.859 2.729.197.962.299 1.915.299 2.859v.039c0 .958-.104 1.802-.306 2.532-.204.73-.494 1.308-.867 1.732a2.11 2.11 0 0 1-1.361.738c-.534.068-1.125-.086-1.777-.462zm.031-1.36c.475.274.905.37 1.287.286.384-.083.709-.305.977-.665.268-.358.471-.837.61-1.438.142-.6.212-1.271.212-2.011l-.001-.039c0-.74-.072-1.492-.217-2.259a11.651 11.651 0 0 0-.627-2.163 8.54 8.54 0 0 0-.982-1.814c-.384-.534-.813-.937-1.289-1.212-.475-.275-.903-.37-1.288-.286-.385.083-.709.305-.975.664-.267.359-.474.834-.619 1.426-.146.59-.217 1.263-.217 2.016l-.002.039c.001.74.073 1.494.22 2.259.145.766.354 1.486.625 2.163a8.44 8.44 0 0 0 .99 1.818c.387.536.819.94 1.296 1.216zM455.683 189.141l-1.922-.313-.277-1.401 2.493.294.855.494v13.684l-1.149-.664v-12.094zM463.486 205.972c-.661-.381-1.255-.909-1.783-1.583-.53-.674-.98-1.439-1.354-2.295s-.659-1.762-.859-2.718a14.114 14.114 0 0 1-.298-2.87v-.039c0-.944.102-1.785.307-2.521.203-.736.494-1.316.873-1.738.378-.422.832-.668 1.361-.737.527-.071 1.122.084 1.783.466.649.375 1.238.9 1.768 1.574.529.674.98 1.439 1.354 2.295.373.856.66 1.766.859 2.729.197.962.299 1.916.299 2.859v.039c0 .958-.104 1.802-.306 2.531-.205.731-.494 1.308-.867 1.732a2.118 2.118 0 0 1-1.361.739c-.533.067-1.125-.088-1.776-.463zm.03-1.361c.475.274.904.37 1.287.285.384-.083.709-.304.976-.664.268-.358.472-.837.611-1.439.141-.6.211-1.271.211-2.011v-.039c0-.74-.072-1.492-.218-2.259a11.673 11.673 0 0 0-.626-2.163 8.52 8.52 0 0 0-.982-1.814c-.384-.534-.812-.937-1.289-1.212-.476-.275-.903-.37-1.288-.285-.384.083-.709.304-.975.663-.267.359-.475.834-.619 1.426-.146.59-.217 1.264-.218 2.016v.039c0 .74.072 1.494.218 2.259.146.766.354 1.487.626 2.164a8.42 8.42 0 0 0 .99 1.818c.388.537.819.941 1.296 1.216zM471.303 198.16l-1.922-.313-.276-1.401 2.493.293.855.494v13.685l-1.15-.664V198.16zM479.106 214.99c-.661-.381-1.255-.908-1.784-1.582a10.542 10.542 0 0 1-1.354-2.297 13.686 13.686 0 0 1-.858-2.717c-.2-.957-.3-1.914-.299-2.87l-.001-.041c0-.944.103-1.784.307-2.521.203-.737.495-1.314.874-1.737.379-.421.832-.668 1.36-.737.529-.07 1.123.085 1.784.466.648.375 1.238.9 1.768 1.574.528.675.981 1.44 1.355 2.297.373.856.659 1.765.858 2.728.197.962.298 1.916.299 2.86l-.001.039c0 .958-.103 1.801-.306 2.531-.203.73-.494 1.308-.866 1.732-.373.424-.827.671-1.362.737-.532.069-1.123-.086-1.774-.462zm.031-1.361c.474.273.903.37 1.287.286.384-.083.708-.304.976-.664.266-.359.471-.838.611-1.438s.21-1.271.21-2.011v-.039a12.05 12.05 0 0 0-.217-2.259 11.783 11.783 0 0 0-.626-2.164 8.537 8.537 0 0 0-.984-1.813c-.383-.533-.812-.936-1.287-1.211-.476-.275-.906-.37-1.288-.286-.385.083-.709.305-.976.662-.269.36-.473.835-.619 1.427-.146.591-.218 1.262-.218 2.016v.039c0 .74.072 1.492.217 2.259.146.766.354 1.486.627 2.163.271.675.601 1.281.989 1.817s.82.941 1.298 1.216zM486.923 207.178l-1.922-.313-.276-1.402 2.493.294.855.494v13.685l-1.15-.664v-12.094zM494.727 224.009c-.661-.382-1.256-.91-1.783-1.583a10.487 10.487 0 0 1-1.354-2.295c-.374-.856-.661-1.762-.86-2.718s-.297-1.913-.298-2.87v-.04c.001-.944.103-1.784.306-2.521.205-.736.496-1.314.874-1.737.377-.422.831-.668 1.361-.737.528-.07 1.122.086 1.783.466.65.375 1.239.9 1.769 1.574.527.674.98 1.439 1.354 2.296.372.855.659 1.766.858 2.728.198.962.299 1.917.299 2.861v.039c0 .958-.103 1.8-.308 2.531-.202.73-.492 1.307-.864 1.732-.374.425-.828.67-1.362.738-.533.067-1.125-.089-1.775-.464zm.03-1.362c.474.275.903.37 1.286.287.384-.083.709-.304.977-.664.267-.359.471-.838.61-1.439a8.816 8.816 0 0 0 .211-2.01v-.041c0-.74-.071-1.492-.218-2.257a11.671 11.671 0 0 0-.625-2.163 8.563 8.563 0 0 0-.983-1.814c-.383-.533-.813-.938-1.29-1.213-.474-.273-.903-.368-1.287-.285-.384.083-.708.306-.975.664-.268.359-.475.834-.619 1.425-.146.591-.218 1.263-.218 2.016l-.001.039c.001.742.073 1.494.219 2.26.146.766.354 1.487.626 2.163.272.675.603 1.282.99 1.817.389.536.819.94 1.297 1.215zM502.543 216.196l-1.922-.314-.276-1.401 2.493.294.855.493-.001 13.684-1.149-.663v-12.093z"/></g><linearGradient id="ap" gradientUnits="userSpaceOnUse" x1="416.521" y1="191.652" x2="513.03" y2="191.652"><stop offset="0" stop-color="#0070e6"/><stop offset="1" stop-color="#a5c5ff"/></linearGradient><path fill="url(#ap)" d="M418.723 140.907l90.019 51.973c2.025 1.17 3.682 4.336 3.682 7.035l.002 42.979.605.35-.002-43.736c0-2.699-1.656-5.865-3.682-7.035L419.328 140.5c-1.123-.648-2.131-.55-2.808.125.616-.263 1.377-.195 2.203.282z"/></g><g opacity=".3"><linearGradient id="aq" gradientUnits="userSpaceOnUse" x1="1350.863" y1="973.274" x2="1384.746" y2="937.944" gradientTransform="matrix(-.866 -.5 -1 .5774 2593.67 564.883)"><stop offset="0" stop-color="#a5c5ff" stop-opacity="0"/><stop offset="1" stop-color="#77a4f9"/></linearGradient><path fill="url(#aq)" d="M408.987 360.995c-1.264.729-1.401 1.842-.308 2.474l95.662 55.229c1.094.632 3.022.553 4.284-.177l3.589-2.072c1.264-.729 1.402-1.843.308-2.474l-95.662-55.229c-1.093-.632-3.021-.552-4.284.177l-3.589 2.072z"/></g><g><linearGradient id="ar" gradientUnits="userSpaceOnUse" x1="252.218" y1="274.005" x2="251.238" y2="188.087"><stop offset="0" stop-color="#a5c5ff"/><stop offset="1" stop-color="#0067dc"/></linearGradient><path fill="url(#ar)" d="M237.007 388.29c-3.653-2.109-6.739-7.455-6.739-11.673v-44.352l36.352-20.987c5.759-3.325 10.444-11.44 10.444-18.09v-31.217c1.556-1.597 2.683-4.187 2.683-6.496.001-2.897-1.761-4.228-3.933-2.974s-3.933 4.618-3.933 7.515c0 2.312 1.124 3.622 2.683 3.419v29.753c0 5.755-4.211 13.047-9.194 15.925l-35.102 20.265V191.245c1.556-1.597 2.683-4.187 2.683-6.496.001-2.897-1.761-4.228-3.933-2.974s-3.933 4.618-3.933 7.515c0 2.312 1.124 3.623 2.683 3.419v102.612l-12.366 7.139c-.47-1.922-1.982-2.657-3.778-1.619-2.172 1.254-3.933 4.618-3.933 7.515 0 2.896 1.761 4.227 3.933 2.972 1.795-1.036 3.29-3.511 3.763-5.972l12.382-7.148v78.409c0 5.087 3.584 11.294 7.989 13.838l61.841 35.703 1.25-2.165-61.842-35.703z"/><linearGradient id="as" gradientUnits="userSpaceOnUse" x1="264.859" y1="302.1" x2="288.054" y2="276.945"><stop offset="0" stop-color="#a5c5ff" stop-opacity="0"/><stop offset="1" stop-color="#0067dc"/></linearGradient><path fill="url(#as)" d="M237.007 388.29c-3.653-2.109-6.739-7.455-6.739-11.673v-44.352l36.352-20.987c5.759-3.325 10.444-11.44 10.444-18.09v-31.217c1.556-1.597 2.683-4.187 2.683-6.496.001-2.897-1.761-4.228-3.933-2.974s-3.933 4.618-3.933 7.515c0 2.312 1.124 3.622 2.683 3.419v29.753c0 5.755-4.211 13.047-9.194 15.925l-35.102 20.265V191.245c1.556-1.597 2.683-4.187 2.683-6.496.001-2.897-1.761-4.228-3.933-2.974s-3.933 4.618-3.933 7.515c0 2.312 1.124 3.623 2.683 3.419v102.612l-12.366 7.139c-.47-1.922-1.982-2.657-3.778-1.619-2.172 1.254-3.933 4.618-3.933 7.515 0 2.896 1.761 4.227 3.933 2.972 1.795-1.036 3.29-3.511 3.763-5.972l12.382-7.148v78.409c0 5.087 3.584 11.294 7.989 13.838l61.841 35.703 1.25-2.165-61.842-35.703z"/><linearGradient id="at" gradientUnits="userSpaceOnUse" x1="225.318" y1="305.884" x2="207.677" y2="306.865"><stop offset="0" stop-color="#a5c5ff" stop-opacity="0"/><stop offset="1" stop-color="#0067dc"/></linearGradient><path fill="url(#at)" d="M237.007 388.29c-3.653-2.109-6.739-7.455-6.739-11.673v-44.352l36.352-20.987c5.759-3.325 10.444-11.44 10.444-18.09v-31.217c1.556-1.597 2.683-4.187 2.683-6.496.001-2.897-1.761-4.228-3.933-2.974s-3.933 4.618-3.933 7.515c0 2.312 1.124 3.622 2.683 3.419v29.753c0 5.755-4.211 13.047-9.194 15.925l-35.102 20.265V191.245c1.556-1.597 2.683-4.187 2.683-6.496.001-2.897-1.761-4.228-3.933-2.974s-3.933 4.618-3.933 7.515c0 2.312 1.124 3.623 2.683 3.419v102.612l-12.366 7.139c-.47-1.922-1.982-2.657-3.778-1.619-2.172 1.254-3.933 4.618-3.933 7.515 0 2.896 1.761 4.227 3.933 2.972 1.795-1.036 3.29-3.511 3.763-5.972l12.382-7.148v78.409c0 5.087 3.584 11.294 7.989 13.838l61.841 35.703 1.25-2.165-61.842-35.703z"/></g><g><path fill="#FFF" d="M554.451 232.34c-1.398-1.037-2.751-2.285-4.053-3.74a35.125 35.125 0 0 1-3.569-4.753l2.521-3.455a46.152 46.152 0 0 0 2.567 3.701 18.72 18.72 0 0 0 2.695 2.828l.001-6.848a42.888 42.888 0 0 1-3.054-3.183 18.157 18.157 0 0 1-2.162-3.102 14.258 14.258 0 0 1-1.293-3.265 14.39 14.39 0 0 1-.435-3.59v-.085c0-1.206.161-2.204.482-2.994.323-.789.782-1.373 1.374-1.749.592-.375 1.309-.543 2.148-.504.84.041 1.766.281 2.776.721v-2.498l3.36 1.939v2.583c1.162.902 2.233 1.9 3.213 2.997a31.353 31.353 0 0 1 2.796 3.659l-2.166 3.789a42.679 42.679 0 0 0-1.97-2.666 19.464 19.464 0 0 0-2.036-2.188l.002 6.504c2.454 2.308 4.235 4.5 5.346 6.575 1.108 2.076 1.663 4.32 1.663 6.731v.086c0 1.206-.167 2.201-.501 2.984s-.796 1.363-1.39 1.739c-.593.375-1.308.552-2.147.525-.839-.025-1.775-.264-2.81-.718v4.264l-3.36-1.939v-4.348zm.161-24.541c-.774-.303-1.339-.321-1.694-.053-.355.27-.532.748-.532 1.437v.086c0 .66.148 1.313.451 1.962.303.647.894 1.441 1.775 2.382v-5.814zm3.038 21.09c1.527.567 2.293.09 2.293-1.433v-.086c-.001-.747-.161-1.45-.484-2.11s-.927-1.46-1.809-2.401v6.03z"/></g><g fill="#FFF"><path d="M212.022 142.813v8.379l5.438 1.046 5.445-7.33 5.438 1.046 5.439-7.327v-8.378l-5.439-1.046v8.373l-5.438-1.047-5.445 7.331v-8.373l-5.438 7.326z"/><path d="M222.901 163.374a.56.56 0 0 1-.398.085l-16.435-3.162c-.247-.048-.398-.312-.398-.693v-25.301c0-.38.151-.82.398-1.153l16.435-22.14c.247-.332.55-.506.796-.459l16.435 3.163c.247.048.398.313.398.693v25.301c0 .38-.151.819-.397 1.153L223.299 163a1.35 1.35 0 0 1-.398.374zm-15.634-5.309l15.634 3.008 15.636-21.062v-24.068l-15.636-3.008-15.634 21.062v24.068z"/><path d="M238.462 140.487l-1.115-.208.319-.924 1.11.217-.314.915zm-2.221-.421l-1.106-.227.32-.924 1.105.213-.319.938zm-2.217-.43l-1.101-.216.32-.925 1.11.217-.329.924zm-2.214-.425l-1.11-.21.319-.925 1.109.224-.318.911zm-2.222-.427l-1.085-.225.319-.924 1.109.21-.343.939zm-2.216-.423l-1.111-.217.325-.921 1.105.214-.319.924zm-2.216-.43l-1.11-.205.318-.924 1.111.209-.319.92zm-2.22-.422l-1.105-.22.319-.924 1.11.217-.324.927zm-2.216-.431l-1.105-.213.319-.924 1.105.246-.319.891zm-2.217-.424l-1.109-.217.3-.939 1.11.217-.301.939zm-2.215-.43l-1.111-.21.32-.924 1.109.21-.318.924zm-2.221-.428l-1.105-.188.31-.945 1.104.22-.309.913zm-2.216-.424l-1.11-.21.325-.929 1.104.214-.319.925zm-2.216-.431l-1.11-.21.324-.927 1.11.21-.324.927zm-2.221-.42l-1.105-.22.319-.931 1.11.21-.324.941z"/><path d="M207.341 158.455l-.32-.549 1.111-1.5.318.556-1.109 1.493zm2.22-2.984l-.323-.554 1.109-1.492.32.542-1.106 1.504zm2.236-3.002l-.319-.549 1.105-1.497.324.553-1.11 1.493zm2.216-2.983l-.34-.53 1.111-1.494.318.557-1.089 1.467zm2.206-2.983l-.319-.556 1.11-1.492.319.555-1.11 1.493zm2.22-2.985l-.319-.556 1.105-1.491.319.55-1.105 1.497zm2.203-2.981l-.32-.555 1.11-1.493.325.56-1.115 1.488zm2.214-2.983l-.319-.556 1.111-1.5.319.556-1.111 1.5zm2.207-2.983l-.301-.535 1.106-1.49.319.556-1.124 1.469zm2.215-2.983l-.319-.556 1.126-1.535.324.553-1.131 1.538zm2.217-2.99l-.319-.555 1.11-1.493.318.556-1.109 1.492zm2.221-2.992l-.325-.546 1.112-1.5.338.571-1.125 1.475zm2.216-2.982l-.319-.556 1.105-1.49.319.557-1.105 1.489zm2.216-2.99l-.276-.581 1.111-1.493.319.556-1.154 1.518zm2.216-2.982l-.319-.556 1.109-1.492.319.549-1.109 1.499z"/><path d="M223.221 161.02l-.614.354v-1.703l.639-.369-.025 1.718zm0-3.413l-.614.355v-1.717l.639-.369-.025 1.731zm0-3.413l-.614.354v-1.71l.639-.369-.025 1.725zm0-3.413l-.614.354v-1.71l.639-.369-.025 1.725zm0-3.413l-.614.354v-1.71l.639-.369-.025 1.725zm0-3.413l-.614.354v-1.71l.639-.369-.025 1.725zm0-3.42l-.614.355v-1.678l.639-.369-.025 1.692zm0-3.413l-.614.354v-1.704l.639-.369-.025 1.719zm0-3.414l-.614.355v-1.703l.639-.369-.025 1.717zm0-3.413l-.614.354v-1.703l.639-.369-.025 1.718zm0-3.413l-.614.354v-1.709l.639-.369-.025 1.724zm0-3.413l-.614.354v-1.71l.639-.369-.025 1.725zm0-3.413l-.614.355v-1.71l.639-.369-.025 1.724zm0-3.414l-.614.354v-1.709l.639-.369-.025 1.724zm0-3.413l-.614.354v-1.709l.639-.369-.025 1.724z"/></g><path fill="#FFF" d="M286.159 205.079c0-.504-.22-.836-.602-.91l-9.702-1.867c-.564-.109-1.483.421-2.05 1.184l-9.701 13.069c-.382.515-.602 1.1-.602 1.604v16.997c0 .504.219.836.602.91l9.701 1.867c.167.032.364.008.573-.057.111.101.271.115.452.011s.341-.303.452-.533a3.61 3.61 0 0 0 .572-.605l9.702-13.069c.384-.516.602-1.102.602-1.605v-16.992l.001-.004zm-11.745-.538c.196-.264.639-.519.833-.481l9.51 1.83-9.51 12.811c-.195.263-.637.518-.833.48l-9.509-1.83 9.509-12.81zm-9.693 29.771v-15.124l9.085 1.749c.125.024.267.015.417-.015v15.219l-9.502-1.829zm20.22-11.675l-9.502 12.8v-15.219c.15-.143.292-.298.417-.465l9.085-12.239v15.123z"/><g><linearGradient id="au" gradientUnits="userSpaceOnUse" x1="256.353" y1="424.078" x2="304.471" y2="424.078"><stop offset="0" stop-color="#a5c5ff" stop-opacity="0"/><stop offset="1" stop-color="#77a4f9"/></linearGradient><path opacity=".7" fill="url(#au)" d="M297.092 413.32c9.828 6.021 10.565 13.212-2.223 19.972-13.947 7.498-22.084 5.809-32.859-.42-9.512-5.498-7.291-12.896 8.661-19.343 12.896-5.072 19.552-4.544 26.421-.209z"/><linearGradient id="av" gradientUnits="userSpaceOnUse" x1="286.629" y1="298.327" x2="296.517" y2="295.237"><stop offset="0" stop-color="#fa0171"/><stop offset="1" stop-color="#ff90bd"/></linearGradient><path fill="url(#av)" d="M304.454 303.727c.534-.884.914-1.527.914-1.527-5.979-5.566-17.616-18.181-20.163-19.38-3.073-1.441-4.827.892-5.989 3.72-1.163 2.828 1.52 10.538 21.7 22.409 0 0 5.304 3.286 7.497-3.042l-3.959-2.18z"/><linearGradient id="aw" gradientUnits="userSpaceOnUse" x1="273.777" y1="288.961" x2="266.701" y2="301.505"><stop offset="0" stop-color="#aa5300"/><stop offset="1" stop-color="#a97d00"/></linearGradient><path fill="url(#aw)" d="M266.539 269.895s.715 9.702-2.092 13.649-10.587 14.956-5.148 23.583c7.762 12.312 28.236-1.167 26.697-11.94s-.555-16.653-.555-16.653l-18.902-8.639z"/><linearGradient id="ax" gradientUnits="userSpaceOnUse" x1="287.961" y1="386.905" x2="287.961" y2="354.327"><stop offset="0" stop-color="#f9cebb"/><stop offset="1" stop-color="#f19265"/></linearGradient><path fill="url(#ax)" d="M287.674 405.396l.124 4.369s.109 1.402.797 2.393c.686.988 6.106 7.529 6.843 9.194.529 1.195.439 2.102-2.668 1.761-2.932-.324-4.587-1.388-5.962-3.062-1.375-1.676-1.622-3.343-3.104-3.726-1.484-.386-3.437-1.182-3.464-3.189-.028-2.004.522-2.909 1.347-4.425.824-1.509.619-3.435.619-3.435l5.468.12z"/><linearGradient id="ay" gradientUnits="userSpaceOnUse" x1="667.981" y1="416.11" x2="683.425" y2="416.11" gradientTransform="matrix(-1 0 0 1 963.664 0)"><stop offset="0" stop-color="#0070e6"/><stop offset="1" stop-color="#00152b"/></linearGradient><path fill="url(#ay)" d="M283.704 416.324c1.481.383 1.729 2.05 3.104 3.726 1.375 1.675 3.03 2.738 5.962 3.062 3.107.341 3.197-.565 2.668-1.761-.253-.583-1.081-1.755-2.077-3.077l.191.723s.184.367-.124.76c-.303.391-1.407.836-2.899-.242-1.335-.963-7.658-5.617-9.117-10.479-.725 1.326-1.195 2.242-1.171 4.099.027 2.008 1.979 2.803 3.463 3.189z"/><linearGradient id="az" gradientUnits="userSpaceOnUse" x1="683.088" y1="420.313" x2="683.088" y2="416.552" gradientTransform="matrix(-1 0 0 1 963.664 0)"><stop offset="0" stop-color="#0070e6"/><stop offset="1" stop-color="#00152b"/></linearGradient><path fill="url(#az)" d="M280.575 414.406h-.002l.004.008-.002-.008z"/><linearGradient id="aA" gradientUnits="userSpaceOnUse" x1="681.939" y1="420.629" x2="681.939" y2="416.666" gradientTransform="matrix(-1 0 0 1 963.664 0)"><stop offset="0" stop-color="#0070e6"/><stop offset="1" stop-color="#00152b"/></linearGradient><path fill="url(#aA)" d="M280.595 414.44c.106.186.602 1.131.787 2.991.157 1.575.157 1.812.157 1.812 0 .17.228.309.513.309.279 0 .512-.139.512-.309 0 0 .092-1.959.239-2.893l.05-.286c-.887-.317-1.781-.811-2.258-1.624z"/><linearGradient id="aB" gradientUnits="userSpaceOnUse" x1="276.091" y1="386.906" x2="276.091" y2="354.329"><stop offset="0" stop-color="#f9cebb"/><stop offset="1" stop-color="#f19265"/></linearGradient><path fill="url(#aB)" d="M275.806 412.668s.231 5.773.918 6.762c.685.987 6.111 7.532 6.844 9.194.528 1.197.44 2.102-2.669 1.762-2.934-.322-4.588-1.389-5.959-3.062-1.377-1.677-1.625-3.342-3.107-3.729-1.485-.383-3.435-1.18-3.463-3.186s.524-2.912 1.347-4.426c.824-1.51.617-3.436.617-3.436l5.472.121z"/><linearGradient id="aC" gradientUnits="userSpaceOnUse" x1="679.851" y1="423.382" x2="695.296" y2="423.382" gradientTransform="matrix(-1 0 0 1 963.664 0)"><stop offset="0" stop-color="#0070e6"/><stop offset="1" stop-color="#00152b"/></linearGradient><path fill="url(#aC)" d="M271.832 423.595c1.482.387 1.73 2.052 3.107 3.729 1.371 1.674 3.025 2.74 5.959 3.062 3.109.34 3.197-.564 2.669-1.762-.254-.581-1.082-1.756-2.076-3.076l.189.721s.184.369-.123.759c-.304.396-1.405.841-2.9-.241-1.337-.961-7.66-5.616-9.116-10.48-.725 1.33-1.196 2.246-1.172 4.104.028 2.004 1.978 2.801 3.463 3.184z"/><linearGradient id="aD" gradientUnits="userSpaceOnUse" x1="694.957" y1="425.334" x2="694.957" y2="422.637" gradientTransform="matrix(-1 0 0 1 963.664 0)"><stop offset="0" stop-color="#0070e6"/><stop offset="1" stop-color="#00152b"/></linearGradient><path fill="url(#aD)" d="M268.704 421.681l.004.004z"/><linearGradient id="aE" gradientUnits="userSpaceOnUse" x1="693.812" y1="428.094" x2="693.812" y2="423.356" gradientTransform="matrix(-1 0 0 1 963.664 0)"><stop offset="0" stop-color="#0070e6"/><stop offset="1" stop-color="#00152b"/></linearGradient><path fill="url(#aE)" d="M268.723 421.712c.107.184.601 1.133.788 2.992.155 1.576.155 1.812.155 1.812 0 .17.231.307.516.307.281 0 .509-.137.509-.307 0 0 .094-1.96.241-2.891.016-.102.034-.195.05-.289-.884-.315-1.779-.812-2.259-1.624z"/><linearGradient id="aF" gradientUnits="userSpaceOnUse" x1="678.223" y1="386.906" x2="678.223" y2="354.329" gradientTransform="matrix(-1 0 0 1 963.664 0)"><stop offset="0" stop-color="#f9cebb"/><stop offset="1" stop-color="#f19265"/></linearGradient><path fill="url(#aF)" d="M290.295 317.395s.275 1.658.351 2.016c.072.355 1.895 5.435 2.107 10.216.216 4.782.304 17.188.394 21.475.09 4.285-.541 14.164-1.038 17.189-.496 3.023-2.48 13.759-2.706 18.27-.228 4.512-1.72 19.077-1.72 19.077s-5.499 3.241-5.477-.361c.06-10.236-4.331-21.169-1.643-32.337.778-3.228 1.762-4.692 1.85-7.718.092-3.023-1.604-7.919-2.465-10.173-.854-2.254-4.083-11.527-.729-17.526 3.348-6.001 11.076-20.128 11.076-20.128z"/><linearGradient id="aG" gradientUnits="userSpaceOnUse" x1="284.775" y1="298.064" x2="268.966" y2="310.611"><stop offset="0" stop-color="#fa0171"/><stop offset="1" stop-color="#95025c"/></linearGradient><path fill="url(#aG)" d="M267.189 288.384s4.654-3.339 8.743-4.899c4.088-1.562 9.062-2.78 11.133 1.467 2.073 4.245 2.73 5.778 4.323 7.776 1.59 1.998 2.467 6.558-1.279 9.927 0 0 .778 3.904.405 7.592-.376 3.682-.47 5.774-.22 7.149 0 0-7.085 7.336-19.577 5.931 0 0 .156-4.494-.78-7.4-.938-2.904-2.748-5.087-4.372-8.49-1.623-3.408-9.336-12.244 1.624-19.053z"/><g opacity=".4"><linearGradient id="aH" gradientUnits="userSpaceOnUse" x1="673.134" y1="307.428" x2="691.507" y2="307.428" gradientTransform="matrix(-1 0 0 1 963.664 0)"><stop offset="0" stop-color="#0062ab"/><stop offset="1" stop-color="#76d733"/></linearGradient><path fill="url(#aH)" d="M287.205 304.063c-1.157.562-2.78 1.528-3.995 2.652-1.218 1.125-2.218 3.437-6 3.656-3.332.191-5.053-1.096-5.053-1.096s3.618 4.404 8.336 2.405c4.714-1.998 3.738-3.68 7.327-4.9 1.188-.403 2.063-.658 2.71-.816-.142-1.91-.421-3.311-.421-3.311s-1.751.847-2.904 1.41z"/></g><linearGradient id="aI" gradientUnits="userSpaceOnUse" x1="277.688" y1="386.906" x2="277.688" y2="354.329"><stop offset="0" stop-color="#f9cebb"/><stop offset="1" stop-color="#f19265"/></linearGradient><path fill="url(#aI)" d="M270.718 323.326s-.033 1.749-1.219 3.716-4.87 8.274-4.371 15.05c.499 6.773 2.124 14.332 3.279 17.487 1.155 3.151 1.624 9.304 1.467 10.96-.156 1.653-1.371 5.994-2.213 8.117-.845 2.125-1.562 6.933-.904 13.084.654 6.151 3.576 20.808 3.576 20.808s1.329 1.683 2.069 1.705c2.937.084 3.403-1.585 3.403-1.585s.159-16.524.313-19.429c.159-2.904.404-5.965.844-9.15.438-3.188 2.718-8.588 3.405-12.15.684-3.557.311-5.526.311-8.615 0-3.09.094-17.732.407-19.95.31-2.217 2.591-4.124 5.151-7.245 2.561-3.124 4.058-18.734 4.058-18.734s-7.084 7.336-19.576 5.931z"/><linearGradient id="aJ" gradientUnits="userSpaceOnUse" x1="282.764" y1="373.329" x2="279.431" y2="340.662"><stop offset="0" stop-color="#0070e6"/><stop offset="1" stop-color="#00152b"/></linearGradient><path fill="url(#aJ)" d="M269.415 372.923c1.639.916 5.305 2.418 10.546.63 5.504-1.882 10.765-6.206 12.639-7.853.931-6.305 1.054-11.488 1.66-22.207.776-13.663-3.965-26.099-3.965-26.099s-7.012 7.252-19.373 5.951a31.32 31.32 0 0 1-.204-.02c-1.207 5.387-2.261 4.102-5.442 12.364-2.452 6.371 1.168 20.53 2.792 26.771 1.079 4.149 1.544 7.941 1.347 10.463z"/><path fill="#FFF" d="M282.573 288.271s1.528 6.432 1.149 12.869c0 0-4.848-6.64-10.442-11.953l9.293-.916z"/><path fill="#AA5300" d="M282.349 258.955c3.345-.577 6.057 2.042 4.549 7.205-.851 2.912-2.412-4.027-2.412-4.027s-2.794-3.065-2.137-3.178z"/><linearGradient id="aK" gradientUnits="userSpaceOnUse" x1="275.086" y1="288.614" x2="278.887" y2="279.408"><stop offset="0" stop-color="#f9cebb"/><stop offset="1" stop-color="#f19265"/></linearGradient><path fill="url(#aK)" d="M283.723 281.548s-1.348-.016-1.435 2.173c-.095 2.188-.22 3.736.087 3.988 0 0 .776 1.026-.658 1.984-1.437.958-4.674 1.638-7.225.297-2.555-1.347-2.574-2.942-2.222-4.038.352-1.092 1.264-2.824 1.242-5.766-.022-2.461.184-3.377-.434-4.676-.613-1.294 8.888 2.774 10.645 6.038z"/><path fill="#F9CEBB" d="M287.504 267.814c.05-6.796-4.648-8.859-9.365-8.859a8.928 8.928 0 0 0-8.93 8.929 8.905 8.905 0 0 0 3.067 6.725l-.006.003s2.092 2.433 4.491 4.519c3.045 2.656 5.767 2.538 6.961 2.418 4.171-.417 3.745-8.679 3.782-13.735z"/><linearGradient id="aL" gradientUnits="userSpaceOnUse" x1="276.288" y1="266.773" x2="276.288" y2="254.973"><stop offset="0" stop-color="#aa5300"/><stop offset="1" stop-color="#a97d00"/></linearGradient><path fill="url(#aL)" d="M285.917 261.619c1.481 5.819-11.223 4.789-12.565 11.535l.159 6.664s-4.908-1.433-6.437-6.891c-1.04-3.71-1.181-11.178 5.438-14.319 7.798-3.701 12.567-.281 13.405 3.011z"/><path fill="#F9CEBB" d="M273.852 275.216s-.054-2.163-1.218-2.898c-1.161-.74-2.247.178-2.023 1.565.226 1.387 1.189 1.497 1.606 2.125.417.631.643 1.082 1.13 1.008.489-.072.702-.539.505-1.8zM287.213 328.8c1.663-.69 2.475-2.211 2.388-2.876-.084-.661-3.692-.93-4.972-1.437-.749-.277-1.427-.705-1.834-1.062l-2.738.533-3.535 2.91c1.483.527 3.782 2.573 4.86 2.692 1.096.128 4.169-.073 5.831-.76z"/><path fill="#F9CEBB" d="M275.059 321.424c.424.15 1.214.517 3.547-.193 2.341-.643 3.281-.701 4.209-.28.935.419 2.782.645 2.87 1.308.088.665-.535 1.082-1.298.914-.76-.172-1.618-.531-1.932-.354-.14.076.008.321.34.607l-6.273 3.442c-.027-.01-.054-.022-.079-.026-1.479-.483-3.589-1.149-3.589-1.149-.769-.211-5.722-1.178-9.25-1.888.465-1.584 1.353-4.576 1.896-6.384 2.806 1.181 8.685 3.692 9.559 4.003z"/><linearGradient id="aM" gradientUnits="userSpaceOnUse" x1="708.517" y1="676.96" x2="674.034" y2="677.638" gradientTransform="scale(-1 1) rotate(-45.105 -236.077 1633.988)"><stop offset="0" stop-color="#fa0171"/><stop offset="1" stop-color="#ff90bd"/></linearGradient><path fill="url(#aM)" d="M256.614 321.084a7.08 7.08 0 0 1-1.92-3.85 7.286 7.286 0 0 1-.012-2.136 8.27 8.27 0 0 1 .209-1.016l.094-.299.078-.229.04-.124.012-.03.046-.122.021-.06c.242-.643.476-1.281.709-1.916.469-1.269.93-2.521 1.381-3.726.891-2.423 1.052-4.502 1.769-6.438 1.431-3.868 2.374-6.435 2.374-6.435.914-2.473 3.794-5.952 7.864-4.049 2.974 1.39 2.674 4.694 1.763 7.165a6.542 6.542 0 0 1-.164.391l-2.946 6.213-3.015 6.367a832.595 832.595 0 0 0-1.705 3.592c-.287.607-.574 1.219-.87 1.834l.034.01.239.082.471.172c.319.112.631.222.944.337.136.046.688.277 1.469.603-.543 1.808-1.431 4.8-1.896 6.384-1.702-.343-3.078-.626-3.487-.738a7.268 7.268 0 0 1-3.502-1.982z"/><path fill="#FA0171" d="M264.805 324.122s.415-3.205 2.088-6.161c0 0-2.621-2.162-3.235-2.151-.617.014-2.297 2.64-2.228 3.387.068.74.763 1.113.763 1.113s-1.07-.16-1.222 1.084c-.151 1.251-.71 2.868-.182 3.093.531.228 4.016-.365 4.016-.365z"/><path fill="#F9CEBB" d="M317.792 277.683c-.679.066-3.123 1.096-4.087 1.732-.962.633-2.323 2.724-2.759 4.233-.44 1.515-5.269 11.436-5.883 13.019 0 0-1.75 2.912-2.091 5.448-.34 2.535 1.481 8.869 4.378 5.668 1.517-1.676 2.732-7.486 3.023-8.722.032-.142.052-.22.052-.22.812-3.117 1.675-8.12 1.981-9.362.407-1.806.761-1.69 1.418-2.495.784-.954 1.414-1.511 2.083-3.632.669-2.119 2.69-2.521 3.365-2.586.679-.066 1.421-.968 1.427-1.413-.039-.389-1.304-1.778-2.907-1.67z"/><path fill="#FA0171" d="M303.448 300.366s-.875 4.347 4.965 5.541v3.583s-1.776.572-3.962-.768-1.05-2.891-1.05-2.891-2.86-.056-2.796-1.565.36-4.358 2.843-3.9z"/><linearGradient id="aN" gradientUnits="userSpaceOnUse" x1="271.869" y1="287.762" x2="280.714" y2="300.969"><stop offset="0" stop-color="#fa0171"/><stop offset="1" stop-color="#ff90bd"/></linearGradient><path fill="url(#aN)" d="M283.723 301.139s-7.017-2.137-7.506-3.116 0-2.976 0-2.976-4.383-1.976-5.636-4.086-.906-5.269 2.324-6.788c0 0-1.376 3.373 1.314 5.574s8.001 8.719 9.504 11.392z"/><linearGradient id="aO" gradientUnits="userSpaceOnUse" x1="277.07" y1="286.873" x2="283.959" y2="293.639"><stop offset="0" stop-color="#fa0171"/><stop offset="1" stop-color="#ff90bd"/></linearGradient><path fill="url(#aO)" d="M283.723 301.139s3.452-6.621 2.355-7.6-1.79-.883-1.79-.883 1.751-6.481-2.039-8.078c0 0-.279 2.641.126 3.131s1.271 12.551 1.348 13.43z"/><linearGradient id="aP" gradientUnits="userSpaceOnUse" x1="285.62" y1="276.794" x2="285.081" y2="268.385"><stop offset="0" stop-color="#f9cebb"/><stop offset="1" stop-color="#f19265"/></linearGradient><path fill="url(#aP)" d="M287.504 267.814c.001-.189-.015-.361-.021-.542-.14-.023-2.94-.457-2.853 1.44.09 1.945 1.278 4.779 1.353 5.343.095.721-.352.913-1.196.853s-1.294-.209-1.294-.209.5 4.461-.042 6.875c.097-.007.188-.015.271-.023 4.171-.419 3.745-8.681 3.782-13.737z"/><linearGradient id="aQ" gradientUnits="userSpaceOnUse" x1="286.293" y1="267.449" x2="286.261" y2="266.954"><stop offset="0" stop-color="#aa5300"/><stop offset="1" stop-color="#a97d00"/></linearGradient><path fill="url(#aQ)" d="M285.005 267.699c-.105.044 1.046-1.058 2.474-.826 0 0 .249.586.025.747s-1.433-.369-2.499.079z"/><linearGradient id="aR" gradientUnits="userSpaceOnUse" x1="329.448" y1="361.103" x2="333.401" y2="361.103" gradientTransform="rotate(7.036 983.505 -70.43)"><stop offset="0" stop-color="#fa0171"/><stop offset="1" stop-color="#ff90bd"/></linearGradient><path fill="url(#aR)" d="M285.485 277.334s.105.854-.247 1.223c-.352.37-.913.535-2.032.247a3.074 3.074 0 0 1-1.678-1.116l3.957-.354z"/><path fill="#FFF" d="M285.238 277.359s0 .604-1.12.704c-.911.08-2.094-.327-2.094-.327l3.214-.377z"/><linearGradient id="aS" gradientUnits="userSpaceOnUse" x1="329.448" y1="360.246" x2="333.385" y2="360.246" gradientTransform="rotate(7.036 983.505 -70.43)"><stop offset="0" stop-color="#fa0171"/><stop offset="1" stop-color="#95025c"/></linearGradient><path fill="url(#aS)" d="M285.562 277.109s.113-.406-.175-.543c-.287-.137-.408.225-.706.17-.298-.054-.625-.176-1.048.073-.426.248-1.777.767-2.104.878 0 0 1.211.179 2.154-.056.941-.234 1.853.086 1.879-.522z"/><path fill="#00152B" d="M281.43 269.264a.674.674 0 0 1-1.342-.086.669.669 0 0 1 .711-.627.676.676 0 0 1 .631.713z"/><path fill="#00152B" d="M278.903 269.41s.743-.792 1.812-.632a3.058 3.058 0 0 1 1.549.73c-.215-.333-.778-1.027-1.779-1.093-1.396-.091-2.03 1.016-2.03 1.016s.427.564 1.05.564c-.432-.267-.602-.585-.602-.585zM286.023 269.216c.09.292.392.457.675.366a.546.546 0 0 0 .341-.69.537.537 0 0 0-.67-.368.555.555 0 0 0-.346.692z"/><path fill="#00152B" d="M287.336 269.011s-.67-.561-1.376-.228c-.414.196-.743.579-.918.921.079-.333.327-1.043 1.005-1.283.944-.333 1.604.526 1.604.526s-.173.484-.701.767c.313-.37.386-.703.386-.703z"/></g><g><linearGradient id="aT" gradientUnits="userSpaceOnUse" x1="323.891" y1="390.615" x2="394.379" y2="449.565"><stop offset="0" stop-color="#a5c5ff"/><stop offset="1" stop-color="#0067dc"/></linearGradient><path fill="url(#aT)" d="M416.015 452.217v-73.354H292.646v73.354c0 .869.57 1.736 1.711 2.396l55.825 32.23c2.283 1.317 6.015 1.317 8.296 0l55.827-32.23c1.14-.659 1.711-1.528 1.71-2.396z"/><linearGradient id="aU" gradientUnits="userSpaceOnUse" x1="354.33" y1="428.396" x2="354.33" y2="474.332"><stop offset="0" stop-color="#a5c5ff"/><stop offset="1" stop-color="#0067dc" stop-opacity="0"/></linearGradient><path opacity=".5" fill="url(#aU)" d="M348.343 378.863v106.919l1.839 1.062c2.283 1.317 6.015 1.317 8.296 0l1.84-1.062V378.863h-11.975z"/><path fill="#FFF" d="M358.478 344.233c-2.281-1.316-6.013-1.316-8.296 0l-55.825 32.23c-2.281 1.318-2.281 3.474 0 4.791l55.825 32.229c2.283 1.318 6.015 1.318 8.296 0l55.827-32.229c2.28-1.317 2.28-3.473 0-4.791l-55.827-32.23z"/><path fill="#304A6C" d="M385.783 329.202l-3.717-2.16 3.052-6.859 2.086 1.163z"/><path fill="#304A6C" d="M387.204 321.346l-2.086-1.163 1.727-.998 2.085 1.164z"/><path fill="#122742" d="M388.93 320.349l3.183 5.196-6.33 3.657 1.421-7.856zM387.53 313.8c-.25-.144-.653-.144-.899 0-.122.071-.185.165-.185.258v.002l-.007 6.418c0 .044.014.089.041.132a.448.448 0 0 0 .146.13.988.988 0 0 0 .823.038c.026-.012.052-.025.075-.038.123-.072.185-.166.185-.257l.006-6.421c.002-.094-.06-.189-.185-.262zm-1.073.293a.236.236 0 0 0 .035.099.022.022 0 0 0-.005-.004.23.23 0 0 1-.03-.095zm.155.214c-.034-.021-.052-.046-.074-.07.028.029.055.058.097.083l-.023-.013zm.919.012a.878.878 0 0 1-.288.097c-.036.005-.075-.001-.113 0a.89.89 0 0 0 .401-.097z"/><linearGradient id="aV" gradientUnits="userSpaceOnUse" x1="387.078" y1="315.36" x2="387.078" y2="309.745"><stop offset="0" stop-color="#d9c539"/><stop offset="1" stop-color="#b0a002"/></linearGradient><path fill="url(#aV)" d="M388.631 295.91c-.08.048-.167.09-.256.127a3.007 3.007 0 0 1-.731.202c-.722.107-1.521-.002-2.086-.329a1.238 1.238 0 0 1-.075-.045 1.38 1.38 0 0 1-.427-.404.808.808 0 0 1-.142-.448l-.022 21.979c0 .152.046.304.142.449.094.144.234.281.425.402.024.017.051.031.076.046.566.327 1.365.436 2.086.328.261-.037.508-.104.732-.199.089-.039.176-.082.256-.128.422-.244.633-.564.633-.885l.022-21.979c0 .32-.211.639-.633.884z"/><path fill="#003B4F" d="M388.621 294.128c.854.492.858 1.29.01 1.782-.844.492-2.221.492-3.073 0-.854-.492-.856-1.29-.01-1.782.846-.491 2.222-.491 3.073 0z"/><path fill="#304A6C" d="M386.489 297.722l-5.275-3.054.011 13.336 5.274 3.054z"/><path fill="#122742" d="M386.489 297.722l.01 13.336 5.99-3.585-.011-13.337z"/><path fill="#D9C539" d="M393.702 291.645c.052-.854-.478-1.716-1.605-2.369l-2.82-1.629c-2.154-1.243-5.633-1.243-7.771 0l-2.804 1.629c-1.063.619-1.596 1.429-1.597 2.24v.017l-.034 8.579c-.001.819.537 1.642 1.62 2.265l2.822 1.63c.4.23.846.418 1.322.563.454.139.935.239 1.428.3a9.608 9.608 0 0 0 1.601.057c1.25-.061 2.468-.366 3.42-.919l2.805-1.63c.28-.164.523-.34.73-.526.293-.261.512-.546.654-.839.14-.282.211-.577.212-.871l.035-8.601c0 .035-.015.069-.018.104z"/><path fill="#B0A002" d="M381.505 287.647l-2.804 1.629c-1.063.619-1.596 1.429-1.597 2.24v.017l-.034 8.579c-.001.819.537 1.642 1.62 2.265l2.822 1.63c.4.23.846.418 1.322.563.454.139.935.239 1.428.3a9.608 9.608 0 0 0 1.601.057 9.51 9.51 0 0 0 1.061-.118v-17.951c-1.865-.316-3.953-.063-5.419.789zM396.263 369.931l-.017 5.608-47.091 27.368.016-5.609z"/><path fill="#A76A00" d="M349.171 397.298l-.016 5.609-47.4-27.368.016-5.606z"/><path fill="#D9C539" d="M396.263 369.931l-47.092 27.367-47.4-27.365 47.091-27.368z"/><linearGradient id="aW" gradientUnits="userSpaceOnUse" x1="334.787" y1="376.836" x2="378.899" y2="369.953"><stop offset="0" stop-color="#a5c5ff"/><stop offset="1" stop-color="#0067dc"/></linearGradient><path fill="url(#aW)" d="M371.403 375.461c-1.04.968-2.286 1.884-3.735 2.726-7.203 4.185-17.55 5.461-26.688 3.825-4.005-.718-7.78-1.992-10.956-3.828-5.25-3.029-7.87-7.006-7.858-10.978l-.011 2.986c-.009 3.972 2.612 7.947 7.858 10.978 3.178 1.836 6.952 3.11 10.956 3.827 9.143 1.637 19.488.36 26.692-3.827 1.448-.84 2.691-1.755 3.734-2.723 2.66-2.472 3.993-5.285 4-8.104l.009-2.985c-.008 2.818-1.34 5.632-4.001 8.103z"/><path fill="#FFF" d="M367.547 356.378c10.429 6.021 10.483 15.785.121 21.809-10.36 6.021-27.214 6.021-37.645-.003-10.431-6.021-10.484-15.784-.125-21.806 10.362-6.021 27.22-6.021 37.649 0z"/><path fill="#D9C539" d="M354.865 296.357c-.683-.4-1.557-.492-2.574-.199a6.11 6.11 0 0 0-1.368.596 8.946 8.946 0 0 0-1.482 1.101c-.551.5-1.073 1.083-1.548 1.723a13.927 13.927 0 0 0-1.503 2.54 12.95 12.95 0 0 0-.906 2.713c-1.374 6.494-8.375 35.166-8.742 36.674a11.63 11.63 0 0 0-.224 2.434c.02 1.049.21 1.973.546 2.737.288.659.686 1.2 1.175 1.604.148.123.302.23.468.327l2.199 1.289a3.752 3.752 0 0 1-.469-.327c-.489-.404-.887-.946-1.177-1.605-.333-.764-.523-1.688-.545-2.737-.013-.751.058-1.565.224-2.434.368-1.509 7.37-30.181 8.742-36.672a13.03 13.03 0 0 1 .907-2.713 14.03 14.03 0 0 1 1.502-2.542c.475-.641.999-1.222 1.55-1.722a8.857 8.857 0 0 1 1.482-1.1 6.161 6.161 0 0 1 1.366-.597c1.019-.292 1.893-.202 2.575.199l-2.198-1.289z"/><path fill="#B0A002" d="M353.122 298.041a6.161 6.161 0 0 1 1.366-.597c3.01-.867 4.757 1.636 4.089 5.533-1.1 6.414-4.909 34.166-5.109 35.625-.848 4.426-3.889 8.814-7.235 10.759a8.124 8.124 0 0 1-1.843.803c-4.012 1.156-6.453-2.146-5.451-7.375.368-1.509 7.37-30.181 8.742-36.672.706-3.342 2.943-6.623 5.441-8.076z"/><path fill="#122742" d="M358.915 372.612a9.959 9.959 0 0 1-1.818 1.327c-3.514 2.042-8.553 2.663-13.007 1.864-1.954-.348-3.792-.971-5.341-1.864-2.559-1.476-3.835-3.414-3.828-5.35l-.006 1.455c-.005 1.935 1.273 3.874 3.83 5.352 1.548.893 3.389 1.514 5.34 1.864 4.453.798 9.495.175 13.006-1.864a10.3 10.3 0 0 0 1.822-1.328c1.295-1.204 1.945-2.577 1.948-3.949l.004-1.455c-.004 1.373-.651 2.744-1.95 3.948z"/><path fill="#304A6C" d="M357.035 363.312c5.085 2.936 5.111 7.694.062 10.627-5.05 2.936-13.263 2.936-18.348 0-5.081-2.933-5.11-7.691-.062-10.627 5.052-2.933 13.267-2.933 18.348 0z"/><path fill="#122742" d="M358.915 370.367c-.507.47-1.112.917-1.818 1.326-3.514 2.04-8.553 2.661-13.007 1.865-1.954-.35-3.792-.971-5.341-1.866-2.559-1.477-3.835-3.414-3.828-5.35l-.006 1.455c-.005 1.936 1.273 3.873 3.83 5.351 1.548.895 3.389 1.515 5.34 1.865 4.453.798 9.495.175 13.006-1.865.706-.41 1.312-.856 1.822-1.327 1.295-1.204 1.945-2.576 1.948-3.95l.004-1.454c-.004 1.372-.651 2.745-1.95 3.95z"/><path fill="#304A6C" d="M357.035 361.065c5.085 2.936 5.111 7.693.062 10.628s-13.263 2.935-18.348 0c-5.081-2.935-5.11-7.692-.062-10.628 5.052-2.933 13.267-2.933 18.348 0z"/><path fill="#122742" d="M358.915 368.119c-.507.471-1.112.917-1.818 1.328-3.514 2.039-8.553 2.662-13.007 1.864-1.954-.35-3.792-.971-5.341-1.864-2.559-1.479-3.835-3.416-3.828-5.353l-.006 1.455c-.005 1.937 1.273 3.876 3.83 5.352 1.548.894 3.389 1.516 5.34 1.864 4.453.798 9.495.177 13.006-1.864.706-.41 1.312-.854 1.822-1.327 1.295-1.204 1.945-2.576 1.948-3.949l.004-1.456c-.004 1.374-.651 2.746-1.95 3.95z"/><path fill="#304A6C" d="M357.035 358.818c5.085 2.935 5.111 7.693.062 10.629-5.05 2.934-13.263 2.934-18.348 0-5.081-2.936-5.11-7.694-.062-10.627 5.052-2.935 13.267-2.935 18.348-.002z"/><path fill="#122742" d="M358.915 365.873c-.507.47-1.112.916-1.818 1.326-3.514 2.041-8.553 2.662-13.007 1.865-1.954-.35-3.792-.971-5.341-1.865-2.559-1.478-3.835-3.416-3.828-5.351l-.006 1.456c-.005 1.936 1.273 3.873 3.83 5.35 1.548.894 3.389 1.517 5.34 1.864 4.453.798 9.495.177 13.006-1.864a10.197 10.197 0 0 0 1.822-1.327c1.295-1.205 1.945-2.576 1.948-3.949l.004-1.454c-.004 1.373-.651 2.744-1.95 3.949z"/><path fill="#304A6C" d="M357.035 356.572c5.085 2.935 5.111 7.692.062 10.627-5.05 2.934-13.263 2.936-18.348 0-5.081-2.934-5.11-7.692-.062-10.627 5.052-2.934 13.267-2.934 18.348 0z"/><path fill="#122742" d="M358.915 363.625c-.507.473-1.112.916-1.818 1.327-3.514 2.041-8.553 2.663-13.007 1.864-1.954-.35-3.792-.971-5.341-1.864-2.559-1.476-3.835-3.414-3.828-5.351l-.006 1.455c-.005 1.936 1.273 3.874 3.83 5.35 1.548.895 3.389 1.518 5.34 1.867 4.453.796 9.495.175 13.006-1.865.706-.41 1.312-.856 1.822-1.327 1.295-1.204 1.945-2.577 1.948-3.95l.004-1.455c-.004 1.374-.651 2.744-1.95 3.949z"/><path fill="#304A6C" d="M357.035 354.326c5.085 2.933 5.111 7.693.062 10.626-5.05 2.936-13.263 2.936-18.348 0-5.081-2.934-5.11-7.693-.062-10.626 5.052-2.936 13.267-2.936 18.348 0z"/><path fill="#122742" d="M358.915 361.378a9.91 9.91 0 0 1-1.818 1.326c-3.514 2.043-8.553 2.663-13.007 1.867-1.954-.35-3.792-.973-5.341-1.867-2.559-1.475-3.835-3.414-3.828-5.349l-.006 1.455c-.005 1.935 1.273 3.873 3.83 5.351 1.548.894 3.389 1.515 5.34 1.864 4.453.799 9.495.175 13.006-1.864.706-.41 1.312-.856 1.822-1.326 1.295-1.205 1.945-2.576 1.948-3.951l.004-1.454c-.004 1.372-.651 2.745-1.95 3.948z"/><path fill="#304A6C" d="M357.035 352.079c5.085 2.935 5.111 7.693.062 10.628-5.05 2.934-13.263 2.934-18.348-.003-5.081-2.933-5.11-7.69-.062-10.625 5.052-2.934 13.267-2.934 18.348 0z"/><path fill="#122742" d="M358.915 359.133c-.507.471-1.112.916-1.818 1.326-3.514 2.04-8.553 2.661-13.007 1.864-1.954-.35-3.792-.971-5.341-1.864-2.559-1.478-3.835-3.415-3.828-5.351l-.006 1.454c-.005 1.936 1.273 3.874 3.83 5.352 1.548.894 3.389 1.515 5.34 1.864 4.453.798 9.495.177 13.006-1.864.706-.41 1.312-.857 1.822-1.327 1.295-1.205 1.945-2.576 1.948-3.95l.004-1.455c-.004 1.373-.651 2.746-1.95 3.951z"/><path fill="#304A6C" d="M357.035 349.831c5.085 2.935 5.111 7.693.062 10.628s-13.263 2.935-18.348 0c-5.081-2.935-5.11-7.693-.062-10.626 5.052-2.936 13.267-2.936 18.348-.002z"/><linearGradient id="aX" gradientUnits="userSpaceOnUse" x1="347.93" y1="339.615" x2="348.004" y2="353.122"><stop offset="0" stop-color="#d9c539"/><stop offset="1" stop-color="#b0a002"/></linearGradient><path fill="url(#aX)" d="M357.04 344.184a3.1 3.1 0 0 0-.162-1.114c-.52-4.452-4.303-7.909-8.896-7.909-4.592 0-8.375 3.455-8.897 7.907a3.13 3.13 0 0 0-.155.961v-.014l-.012 9.759c0 .085.004.168.01.253.002.033.011.063.013.097.006.052.01.104.019.157l.023.108.028.144c.009.038.022.073.032.109.013.047.025.095.042.142a3.27 3.27 0 0 0 .109.282c.023.06.052.116.082.176l.024.05c.036.071.077.144.119.216l.031.048a4.13 4.13 0 0 0 .31.441v.002c.046.056.091.111.141.166a.418.418 0 0 1 .036.04l.056.061c.048.052.1.106.151.156l.05.052c.07.068.142.133.218.198.012.014.026.024.042.036.061.055.127.108.192.161.023.02.049.038.072.056.067.054.138.104.205.154l.053.038c.086.062.177.122.271.182.023.015.046.028.068.044.045.027.089.056.133.081a7.398 7.398 0 0 0 .507.283c.038.021.081.04.121.061.084.043.166.083.253.124.049.022.099.045.152.067.077.033.155.07.236.103.053.023.108.044.162.065l.237.092c.06.021.115.043.172.062l.243.082.174.057.255.075.169.049c.093.024.185.049.279.071.052.013.102.027.151.038.121.029.242.056.363.082.027.005.051.012.076.017.148.029.295.057.445.081.042.009.088.013.129.021l.322.047c.057.008.114.016.171.022.095.013.188.023.284.034l.188.018c.089.01.18.019.273.024.062.005.128.01.191.013.09.006.182.012.271.015l.192.009.276.006c.063.002.127.004.188.004l.293-.002.17-.004c.115-.003.229-.008.345-.013l.104-.003.013-.001c.194-.011.387-.027.579-.045.048-.003.093-.009.143-.014.189-.02.381-.041.57-.067h.009c.192-.028.382-.061.572-.096l.135-.025c.188-.035.373-.074.558-.117l.008-.001.035-.01c.155-.038.311-.078.464-.121.047-.013.096-.026.141-.04a12.982 12.982 0 0 0 .973-.329c.039-.015.075-.031.113-.045.123-.052.244-.103.363-.156.023-.012.053-.021.077-.032l.051-.025c.089-.04.175-.083.261-.126.042-.021.084-.04.124-.062.124-.065.247-.133.368-.203 1.752-1.018 2.629-2.35 2.633-3.683l.013-9.758c.002.038-.002.078-.003.116z"/><g fill="#304A6C"><path d="M355.864 317.021l39.461-22.932v.003l-39.461 22.932v-.003z"/><path d="M355.864 317.024c0 .108-.012.206-.032.296-.054.23-.168.397-.326.488l39.46-22.932c.158-.094.273-.26.327-.489.021-.089.032-.188.032-.296l-39.461 22.933z"/></g><path fill="#304A6C" d="M386.841 279.695a.954.954 0 0 0-.26-.055.653.653 0 0 0-.377.08l-39.459 22.932a.648.648 0 0 1 .376-.081.929.929 0 0 1 .26.056c.076.026.156.063.237.111l39.461-22.932a1.36 1.36 0 0 0-.238-.111z"/><path fill="#122742" d="M355.888 308.924l39.46-22.932-.023 8.097-39.461 22.932z"/><path fill="#586D91" d="M394.123 283.873l-7.044-4.067-39.461 22.932 7.045 4.066.013.009 39.461-22.933z"/><path fill="#304A6C" d="M395.322 285.694a2.371 2.371 0 0 0-.082-.346 2.87 2.87 0 0 0-.83-1.272 2.095 2.095 0 0 0-.273-.196l-39.461 22.933c.093.055.185.12.273.195.373.317.676.79.829 1.272a2.211 2.211 0 0 1 .109.644l39.46-22.932a1.712 1.712 0 0 0-.025-.298z"/><path fill="#122742" d="M354.663 306.804c.679.393 1.225 1.342 1.225 2.12l-.023 8.097c-.004.779-.555 1.093-1.232.701l-7.046-4.068c-.677-.39-1.227-1.338-1.222-2.119l.022-8.095c.001-.778.554-1.094 1.231-.702l7.045 4.066z"/><path fill="#D9C539" d="M364.712 302.169c-.683-.398-1.555-.492-2.572-.198-.46.132-.918.334-1.369.597a8.905 8.905 0 0 0-1.482 1.099 12.193 12.193 0 0 0-1.55 1.724 14.022 14.022 0 0 0-1.501 2.54c-.4.874-.714 1.791-.909 2.713-1.372 6.493-8.371 35.163-8.741 36.674a11.873 11.873 0 0 0-.223 2.433c.022 1.049.21 1.972.547 2.738.287.659.686 1.2 1.175 1.603.147.121.304.231.467.327l2.199 1.286a3.273 3.273 0 0 1-.468-.327c-.49-.404-.888-.944-1.176-1.603-.333-.765-.524-1.688-.544-2.738a11.69 11.69 0 0 1 .221-2.434c.37-1.508 7.369-30.181 8.743-36.671.193-.922.506-1.839.906-2.715.416-.904.925-1.766 1.502-2.541.479-.641.998-1.223 1.552-1.722a8.736 8.736 0 0 1 1.482-1.1 6.057 6.057 0 0 1 1.368-.597c1.016-.292 1.889-.201 2.57.2l-2.197-1.288z"/><path fill="#B0A002" d="M362.971 303.854a6.057 6.057 0 0 1 1.368-.597c3.009-.868 4.755 1.636 4.086 5.533-1.099 6.415-4.909 34.165-5.11 35.626-.848 4.424-3.89 8.812-7.233 10.759a8.265 8.265 0 0 1-1.846.804c-4.011 1.155-6.451-2.146-5.45-7.376.37-1.508 7.369-30.181 8.743-36.671.704-3.345 2.943-6.624 5.442-8.078z"/><path fill="#304A6C" d="M359.877 345.106c0-2.788-1.957-3.917-4.371-2.523-2.416 1.395-4.372 4.784-4.372 7.572 0 2.789 1.956 3.919 4.372 2.526 2.414-1.395 4.371-4.786 4.371-7.575z"/><path fill="#122742" d="M353.553 352.469c-1.495 0-1.611-1.772-1.611-2.315 0-2.482 1.817-5.629 3.969-6.872.554-.32 1.09-.488 1.549-.488 1.494 0 1.611 1.77 1.611 2.312 0 2.485-1.818 5.632-3.968 6.875-.555.318-1.09.488-1.55.488zM366.232 307.167c0-1.587-1.114-2.23-2.489-1.437-1.375.795-2.488 2.725-2.488 4.312 0 1.587 1.113 2.231 2.488 1.437 1.375-.792 2.489-2.724 2.489-4.312z"/><path fill="#304A6C" d="M380.88 286.511l-5.276-3.054.011 3.494 5.275 3.055z"/><path fill="#586D91" d="M386.868 282.925l-5.273-3.055-5.991 3.587 5.276 3.054z"/><path fill="#122742" d="M380.88 286.511l.01 3.495 5.988-3.588-.01-3.493z"/><linearGradient id="aY" gradientUnits="userSpaceOnUse" x1="367.115" y1="394.138" x2="370.087" y2="409.703"><stop offset="0" stop-color="#a5c5ff"/><stop offset="1" stop-color="#0067dc"/></linearGradient><path fill="url(#aY)" d="M361.896 409.04l12.076-7.018.04-14.003-12.074 7.017z"/><linearGradient id="aZ" gradientUnits="userSpaceOnUse" x1="366.67" y1="386.315" x2="365.375" y2="379.503"><stop offset="0" stop-color="#0070e6"/><stop offset="1" stop-color="#00152b"/></linearGradient><path fill="url(#aZ)" d="M361.938 395.036l12.074-7.017-3.225-13.654-12.074 7.016z"/><path fill="#EFF7FF" d="M358.713 381.381l12.074-7.016-5.163-2.983-12.074 7.016z"/><linearGradient id="ba" gradientUnits="userSpaceOnUse" x1="354.735" y1="386.356" x2="358.221" y2="401.902"><stop offset="0" stop-color="#a5c5ff"/><stop offset="1" stop-color="#0067dc"/></linearGradient><path fill="url(#ba)" d="M353.55 378.398l-.034 11.775-.04 14.006 8.42 4.861.042-14.004-3.225-13.655z"/><path fill="#FFF" d="M372.088 379.871l1.924 8.148-12.076 7.017-1.932-8.189z"/><path fill="#0067DC" d="M361.938 391.315l1.886-1.091.632 2.604-1.888 1.097z"/><path fill="#E2E9FF" d="M361.147 388.382l1.891-1.09.63 2.604-1.887 1.097z"/><path fill="#FA0171" d="M366.638 386.491l-.348-1.474-2.353 1.359.348 1.482z"/><path fill="#E2E9FF" d="M362.627 386.944l-.205-.865-1.38.799.205.869z"/><path fill="#D9C539" d="M369.425 384.907l-.349-1.473-2.353 1.357.349 1.483z"/><path fill="#38D611" d="M372.126 383.335l-.348-1.474-2.353 1.361.349 1.48z"/><path fill="#0067DC" d="M372.11 384.985l-.206-.872-6.588 3.773.205.873z"/><ellipse transform="scale(-1) rotate(-25.025 -1745.197 1675.758)" fill="#FA0171" cx="371.883" cy="387.28" rx="1.104" ry="1.22"/><ellipse transform="scale(-1) rotate(-24.979 -1754.764 1668.66)" fill="#E2E9FF" cx="369.623" cy="388.699" rx=".765" ry=".844"/><ellipse transform="scale(-1) rotate(-24.979 -1760.02 1659.093)" fill="#38D611" cx="367.503" cy="389.863" rx=".765" ry=".846"/><path fill="#FFF" d="M358.713 381.381l-5.163-2.983-.001.374 4.871 2.815 3.225 13.655-.041 13.629.292.169.042-14.004z"/><path opacity=".5" fill="#FFF" d="M346.528 311.829l.022-8.095c.001-.779.556-1.094 1.232-.702l7.045 4.066c.3.173.564.465.775.792-.224-.452-.553-.862-.94-1.086l-7.045-4.066c-.678-.392-1.23-.077-1.231.702l-.022 8.095c-.003.436.178.916.446 1.329-.167-.34-.283-.7-.282-1.035z"/></g><g><linearGradient id="bb" gradientUnits="userSpaceOnUse" x1="410.737" y1="488.185" x2="465.863" y2="488.185"><stop offset="0" stop-color="#a5c5ff" stop-opacity="0"/><stop offset="1" stop-color="#77a4f9"/></linearGradient><path opacity=".7" fill="url(#bb)" d="M427.141 476.101c-18.275 7.385-20.818 15.857-9.926 22.154 12.354 7.142 21.672 9.078 37.653.482 14.646-7.747 13.801-15.98 2.539-22.879-7.864-4.962-15.491-5.57-30.266.243z"/><path d="M432.337 487.81l-.482 1.123c-.559 1.123-4.088 1.363-6.973.801-3.527-.641-5.295 1.045-5.055 3.047.242 2.086 6.574 3.852 9.062 4.652 2.486.801 7.535 2.484 10.264 1.443 1.762-.643 1.203-6.736.961-8.9l-7.777-2.166z"/><linearGradient id="bc" gradientUnits="userSpaceOnUse" x1="456.987" y1="361.854" x2="458.575" y2="378.444"><stop offset="0" stop-color="#0070e6"/><stop offset="1" stop-color="#00152b"/></linearGradient><path fill="url(#bc)" d="M454.149 373.415l6.461 10.9-8.658 2.004-2.164 7.697s10.662-.801 14.432-1.604c3.771-.803 5.533-2.324 5.533-4.49 0-2.164-7.105-24.934-8.707-28.621l-6.897 14.114z"/><path d="M452.06 474.979s-.799 1.604-2.244 1.283c-4.49-.961-6.656-1.363-8.578.561-1.605 1.605 1.688 3.689 4.49 4.412 2.809.721 4.49 2.725 6.896 4.088 2.406 1.365 5.693 1.123 6.654-.641.801-1.363.162-7.697.162-7.697l-7.38-2.006z"/><path fill="#06547A" d="M441.077 421.608c1.363 6.414 5.053 12.75 5.611 16.277.564 3.529 1.928 23.061 2.004 29.316.162 6.174-.559 7.859-.316 8.898.24.963.881 2.168 3.045 4.012s6.332 3.77 8.502 1.764c.801-.641.559-12.99.801-20.127.242-6.416-1.283-22.658-1.605-26.83-.398-4.971 1.363-14.594 1.203-22.453-.242-7.857-6.414-18.203-6.414-18.203s-15.156 3.209-15.957 3.289c-.001.001 1.761 17.641 3.126 24.057z"/><linearGradient id="bd" gradientUnits="userSpaceOnUse" x1="455.81" y1="503.135" x2="452.104" y2="448.601"><stop offset="0" stop-color="#0070e6"/><stop offset="1" stop-color="#00152b"/></linearGradient><path fill="url(#bd)" d="M441.077 421.608c1.363 6.414 5.053 12.75 5.611 16.277.564 3.529 1.928 23.061 2.004 29.316.162 6.174-.559 7.859-.316 8.898.24.963.881 2.168 3.045 4.012s6.332 3.77 8.502 1.764c.801-.641.559-12.99.801-20.127.242-6.416-1.283-22.658-1.605-26.83-.398-4.971 1.363-14.594 1.203-22.453-.242-7.857-6.414-18.203-6.414-18.203s-15.156 3.209-15.957 3.289c-.001.001 1.761 17.641 3.126 24.057z"/><linearGradient id="be" gradientUnits="userSpaceOnUse" x1="442.581" y1="504.032" x2="438.875" y2="449.5"><stop offset="0" stop-color="#0070e6"/><stop offset="1" stop-color="#00152b"/></linearGradient><path fill="url(#be)" d="M426.536 412.247c1.15.561 6.43 1.643 11.021 1.648a73.2 73.2 0 0 0 11.645-.92c-.242 10.438-3.695 14.646-4.92 20.02-1.357 6.334-3.125 5.693-2.002 14.596 1.121 8.898.32 26.268.24 31.396-.08 5.135-.961 15.238-1.605 16.279-.639 1.043-3.926.482-6.816-.721-5.531-2.246-5.291-4.812-5.291-4.812s.324-7.377.479-12.508c.162-5.934-.154-24.504-1.041-33.484-.881-8.66-2.734-16.604-2.289-26.225.106-2.302.606-5.361.579-5.269z"/><linearGradient id="bf" gradientUnits="userSpaceOnUse" x1="456.626" y1="420.816" x2="437.389" y2="368.224"><stop offset="0" stop-color="#0070e6"/><stop offset="1" stop-color="#00152b"/></linearGradient><path fill="url(#bf)" d="M428.556 397.851c0-.01-.006-.018-.006-.025-.01-4.398-.531-9.867-2.066-16.553-1.096-4.777-1.219-12.041 1.762-15.154 3.588-3.738 10.629-7.271 15.742-9.004 8.1-2.744 15.99-2.463 17.059 2.188 2.105 9.18-1.768 17.721-2.486 23.094-.725 5.453-1.043 8.82 0 17.24.01.109.025.213.043.32 0 0 1.062 7.387 1.412 9.678-2.557 1.969-11.957 4.273-22.457 4.262-4.592-.006-9.871-1.088-11.021-1.648.504-2.016 2.379-8.395 2.018-14.398z"/><linearGradient id="bg" gradientUnits="userSpaceOnUse" x1="443.478" y1="356.426" x2="439.949" y2="347.25"><stop offset="0" stop-color="#f9cebb"/><stop offset="1" stop-color="#f19265"/></linearGradient><path fill="url(#bg)" d="M448.397 350.009s.676 4.43 1.074 5.76c0 0 .768 1.188-3.514 2.967-2.744 1.137-8.529 1.174-8.529 1.174s.832-5.266.264-5.393c-.574-.129-2.047-.109-2.047-.109s2.697-8 5.307-8.645c2.611-.639 7.445 4.246 7.445 4.246z"/><path fill="#F9CEBB" d="M432.843 335.604s-.973 1.789-1.215 3.008c-.242 1.217.258 1.453.021 2.402-.402 1.598.344 6.504.576 8.844.225 2.338.939 4.326 2.26 4.598 1.322.268 3.002-.68 3.518-2.199.516-1.518.822-2.828.822-2.828s1.639-2.449 1.166-4.93c-.375-1.963-5.435-11.391-7.148-8.895z"/><path fill="#7D4753" d="M448.343 332.458s-2.09-3.16-7.707-2.881c-5.688.275-8.219.637-9.84.09 0 0-2.176 4.559 2.75 5.875 0 0 .785 3.031-.123 4.85 0 0 2.787.963 2.535 6.914 0 0 .918.76.869-.506-.053-1.264.957-3.033 2.047-2.736 1.086.295 1.295 1.4.988 2.977 0 0 1.891 2.217 2.385 3.912l6.15-.943s.998-2.545 2.373-5.178c1.37-2.634 3.069-8.731-2.427-12.374z"/><linearGradient id="bh" gradientUnits="userSpaceOnUse" x1="-356.162" y1="113.741" x2="-378.309" y2="128.923" gradientTransform="scale(-1 1) rotate(-16.206 356.21 460.402)"><stop offset="0" stop-color="#22d6f3"/><stop offset="1"/></linearGradient><path fill="url(#bh)" d="M439.862 347.04c.307-1.576.098-2.682-.988-2.977-1.09-.297-2.1 1.473-2.047 2.736.049 1.266-.869.506-.869.506.252-5.951-2.535-6.914-2.535-6.914.908-1.818.123-4.85.123-4.85s13.191 1.035 8.701 15.41c-.494-1.694-2.385-3.911-2.385-3.911z"/><path fill="#96646E" d="M439.862 347.04c.307-1.576.098-2.682-.988-2.977-1.09-.297-2.1 1.473-2.047 2.736.049 1.266-.869.506-.869.506.252-5.951-2.535-6.914-2.535-6.914.908-1.818.123-4.85.123-4.85s13.191 1.035 8.701 15.41c-.494-1.694-2.385-3.911-2.385-3.911z"/><path fill="#F9CEBB" d="M407.891 408.034s-2.673 1.135-3.811 1.472c-1.14.339-1.858.804-2.477 1.072-.617.265-1.721 1.517-1.973 2.368-.286.92-.499 2.685.382 2.545.882-.136.709-1.279 1.159-1.871.452-.592 1.207-.305 1.207-.305s-2.475 4.564-2.733 5.09c-.258.525-.834 1.871.385 2.873 1.222 1.003 3.67 1.146 5.234.609.851-.24 2.662-2.281 3.662-3.992.964-1.642 3.37-6.892 3.37-6.892l-4.405-2.969z"/><linearGradient id="bi" gradientUnits="userSpaceOnUse" x1="430.941" y1="368.174" x2="417.882" y2="402.058"><stop offset="0" stop-color="#0070e6"/><stop offset="1" stop-color="#00152b"/></linearGradient><path fill="url(#bi)" d="M436.837 376.097c-.991 2.524-6.248 15.294-7.207 17.756-.958 2.461-6.243 7.44-9.123 10.508-2.914 3.133-7.896 8.83-8.652 8.544-.754-.289-5.265-3.714-5.304-4.628.026-.883 6.467-7.9 9.799-11.723 3.304-3.758 5.28-5.734 5.28-5.734s1.527-4.361 1.705-6.553c.176-2.19.787-6.938 1.953-11.982 1.516-6.599 4.303-6.345 7.739-5.558 3.963.88 5.568 4.942 3.81 9.37z"/><linearGradient id="bj" gradientUnits="userSpaceOnUse" x1="436.13" y1="357.273" x2="450.243" y2="357.273"><stop offset="0" stop-color="#0070e6"/><stop offset="1" stop-color="#00152b"/></linearGradient><path fill="url(#bj)" d="M436.13 360.547s.484-2.319 3.667-3.573 9.508-3.131 9.508-3.131l.938 2.367s-.313 4.693-14.113 4.489"/></g><path fill="#0067DC" d="M493.118 528.054v22.652l-2.5 1.443v-22.653zM587.897 473.324v22.654l-2.5 1.443v-22.654z"/><path opacity=".4" fill="#0067DC" d="M206.882 523.069v22.653l2.5 1.443v-22.653z"/></svg>