<svg width="60" height="15" viewBox="0 0 60 15" fill="none" xmlns="http://www.w3.org/2000/svg">
<path d="M13.9523 13.1508H10.6595L9.6577 10.733H4.19647L3.28344 13.1508H0.0625L4.98268 0.943359H8.50797L13.9523 13.1508ZM6.81295 3.85151L5.00382 8.60684H8.76158L6.81295 3.85151Z" fill="#B9C8DE"/>
<path d="M25.8269 0.943359H28.4772V13.1508H25.4338V5.54229L22.141 9.37192H21.6761L18.3833 5.52538V13.1339H15.3398V0.943359H17.9901L21.9085 5.48311L25.8269 0.943359Z" fill="#B9C8DE"/>
<path d="M36.1902 0.943359C40.6454 0.943359 42.9533 3.71625 42.9533 7.064C42.9533 10.5724 40.7341 13.1508 35.8647 13.1508H30.8008V0.943359H36.1902ZM33.8442 10.9148H35.8309C38.8912 10.9148 39.8042 8.83932 39.8042 7.04709C39.8042 4.93361 38.6756 3.17942 35.797 3.17942H33.8442V10.9148Z" fill="#B9C8DE"/>
<path d="M55.284 3.83808H48.9901L45.1562 0H59.1221V13.9701L55.284 10.132V3.83808Z" fill="#B9C8DE"/>
<path d="M48.987 10.1382V4.60938L45.0391 8.55736V14.0904H50.5679L54.5159 10.1382H48.987Z" fill="#B9C8DE"/>
</svg>
