<svg width="159" height="27" viewBox="0 0 159 27" fill="none" xmlns="http://www.w3.org/2000/svg">
<mask id="mask0_13200_649" style="mask-type:luminance" maskUnits="userSpaceOnUse" x="0" y="0" width="159" height="27">
<path d="M0 -7.69791e-06H158.815V27H0V-7.69791e-06Z" fill="white"/>
</mask>
<g mask="url(#mask0_13200_649)">
<mask id="mask1_13200_649" style="mask-type:luminance" maskUnits="userSpaceOnUse" x="0" y="0" width="159" height="27">
<path d="M0 26.9999H158.815V-6.87331e-05H0V26.9999Z" fill="white"/>
</mask>
<g mask="url(#mask1_13200_649)">
<path d="M62.2788 2.95509C62.2788 2.31381 62.5331 1.69879 62.9856 1.24533C63.4382 0.791877 64.0521 0.537127 64.6922 0.537127C65.3322 0.537127 65.946 0.791877 66.3986 1.24533C66.8512 1.69879 67.1054 2.31381 67.1054 2.95509C67.0821 3.58076 66.8177 4.17301 66.3676 4.6074C65.9176 5.04179 65.3171 5.28448 64.6922 5.28448C64.0673 5.28448 63.4667 5.04179 63.0166 4.6074C62.5666 4.17301 62.3021 3.58076 62.2788 2.95509Z" fill="#B9C8DE"/>
<path d="M100.356 19.081C100.356 17.739 101.435 16.6546 102.764 16.6546C103.406 16.6546 104.021 16.9101 104.475 17.3648C104.929 17.8195 105.184 18.4362 105.184 19.0793C105.184 19.7224 104.929 20.3391 104.475 20.7938C104.021 21.2486 103.406 21.504 102.764 21.504C101.436 21.504 100.356 20.418 100.356 19.0793" fill="#B9C8DE"/>
<path d="M22.6728 18.032C20.5956 18.032 19.1503 16.3785 19.1503 14.0144C19.1503 11.652 20.5956 10.0002 22.6744 10.0002C24.7634 10.0002 26.2238 11.652 26.2238 14.0144C26.2238 16.4155 24.7954 18.032 22.6728 18.032ZM22.6728 6.46921C18.2764 6.46921 15.085 9.6432 15.085 14.0144C15.085 18.3873 18.2781 21.5596 22.6728 21.5596C27.0877 21.5596 30.2908 18.3873 30.2908 14.0161C30.2908 9.6432 27.086 6.46921 22.6728 6.46921ZM57.6052 14.3932C57.4523 14.0967 57.2588 13.823 57.0305 13.58L56.896 13.4402L57.0373 13.3055C57.239 13.0917 57.4456 12.8391 57.6439 12.5461L61.5261 6.76724H56.8138L53.8979 11.2883C53.7332 11.5308 53.4005 11.652 52.9014 11.652H52.2375V3.10494C52.2375 1.39586 51.1738 1.1635 50.0259 1.1635H48.0596L48.0646 21.3373H52.2392V15.2857H52.6308C53.1064 15.2857 53.429 15.3412 53.5786 15.6005L55.881 19.9549C56.5246 21.1369 57.1649 21.3373 58.3716 21.3373H61.5697L59.1867 17.3904L57.607 14.3932M77.8698 6.43553C75.7455 6.43553 74.3909 7.38183 73.6313 8.18164L73.3792 8.43759L73.2885 8.08904C73.0666 7.23197 72.3137 6.76219 71.1827 6.76219H69.3122L69.324 21.3323H73.4699V14.6172C73.4699 13.9605 73.5539 13.3914 73.7287 12.8711C74.1892 11.2967 75.4765 10.3184 77.0849 10.3184C78.3789 10.3184 78.8848 11.0037 78.8848 12.7717V19.118C78.8848 20.6267 79.5822 21.3323 81.0897 21.3323H83.0627L83.056 12.0645C83.056 8.3837 81.2628 6.43553 77.8698 6.43553ZM64.7427 6.76724H62.7781L62.7915 18.0337V21.3373H64.8872L64.9612 21.3407L65.9393 21.3373H66.9107V21.3323H66.9174L66.9258 8.98146C66.9258 7.49128 66.2149 6.76892 64.7444 6.76892M38.9559 18.032C36.8787 18.032 35.4317 16.3785 35.4317 14.0144C35.4317 11.652 36.8787 10.0002 38.9576 10.0002C41.0415 10.0002 42.507 11.652 42.507 14.0144C42.507 16.4155 41.0785 18.032 38.9576 18.032H38.9559ZM38.9559 6.46921C34.5561 6.46921 31.363 9.6432 31.363 14.0144C31.363 18.3873 34.5562 21.5596 38.9576 21.5596C43.3658 21.5596 46.5756 18.3873 46.5756 14.0161C46.5756 9.6432 43.3658 6.46921 38.9576 6.46921" fill="#B9C8DE"/>
</g>
</g>
<mask id="mask2_13200_649" style="mask-type:luminance" maskUnits="userSpaceOnUse" x="0" y="0" width="159" height="27">
<path d="M0 -7.69791e-06H158.815V27H0V-7.69791e-06Z" fill="white"/>
</mask>
<g mask="url(#mask2_13200_649)">
<mask id="mask3_13200_649" style="mask-type:luminance" maskUnits="userSpaceOnUse" x="0" y="0" width="159" height="27">
<path d="M0 0.532078H158.781V26.9646H0V0.532078Z" fill="white"/>
</mask>
<g mask="url(#mask3_13200_649)">
<mask id="mask4_13200_649" style="mask-type:luminance" maskUnits="userSpaceOnUse" x="0" y="0" width="159" height="27">
<path d="M0 27H158.815V-1.53273e-05H0V27Z" fill="white"/>
</mask>
<g mask="url(#mask4_13200_649)">
<path d="M127.817 18.032C125.74 18.032 124.291 16.3785 124.291 14.0144C124.291 11.652 125.74 10.0002 127.817 10.0002C129.904 10.0002 131.368 11.652 131.368 14.0144C131.368 16.4155 129.939 18.032 127.817 18.032ZM127.817 6.46921C123.417 6.46921 120.226 9.6432 120.226 14.0144C120.226 18.3873 123.417 21.5596 127.817 21.5596C132.227 21.5596 135.435 18.3873 135.435 14.0161C135.435 9.6432 132.225 6.46921 127.817 6.46921Z" fill="#B9C8DE"/>
<path d="M91.7968 17.3905C89.5297 17.3905 88.723 15.4103 88.723 13.553C88.723 12.7347 88.9296 10.0692 91.5799 10.0692C92.8958 10.0692 94.6486 10.4464 94.6486 13.6894C94.6486 16.7489 93.0975 17.3905 91.7968 17.3905ZM96.8015 6.72852C96.015 6.72852 95.41 7.0434 95.1058 7.61758L94.9916 7.83984L94.7999 7.67146C94.1311 7.09223 92.9311 6.40355 90.9834 6.40355C87.1063 6.40355 84.4963 9.3216 84.4963 13.6608C84.4963 17.9983 87.197 21.0292 91.0607 21.0292C92.3799 21.0292 93.4235 20.7194 94.2503 20.093L94.5697 19.8522V20.2563C94.5697 22.2028 93.3143 23.2771 91.0371 23.2771C89.9296 23.2771 88.923 23.0077 88.2474 22.7618C87.3701 22.4958 86.8525 22.7164 86.4979 23.6004L86.1685 24.4153L85.7029 25.6075L85.9903 25.7607C87.4491 26.5353 89.3465 26.9983 91.0607 26.9983C94.5899 26.9983 98.714 25.1882 98.714 20.093L98.7292 6.72852H96.8015Z" fill="#B9C8DE"/>
</g>
</g>
</g>
<mask id="mask5_13200_649" style="mask-type:luminance" maskUnits="userSpaceOnUse" x="0" y="0" width="159" height="27">
<path d="M0 -7.69791e-06H158.815V27H0V-7.69791e-06Z" fill="white"/>
</mask>
<g mask="url(#mask5_13200_649)">
<mask id="mask6_13200_649" style="mask-type:luminance" maskUnits="userSpaceOnUse" x="0" y="0" width="159" height="27">
<path d="M0 26.9999H158.815V-6.87331e-05H0V26.9999Z" fill="white"/>
</mask>
<g mask="url(#mask6_13200_649)">
<path d="M7.23488 17.8653L3.86029 17.8619V13.8207C3.86029 12.9553 4.19472 12.5074 4.9325 12.403H7.23488C8.87681 12.403 9.93891 13.4402 9.94059 15.119C9.93891 16.8432 8.9037 17.8636 7.23488 17.8636V17.8653ZM3.86029 6.96088V5.89671C3.86029 4.96556 4.25356 4.52271 5.1157 4.46546H6.84336C8.32395 4.46546 9.21129 5.35284 9.21129 6.83965C9.21129 7.97117 8.60289 9.29297 6.89711 9.29297H3.86029V6.96088ZM11.5439 10.9953L10.9338 10.6518L11.4666 10.1955C12.0867 9.66172 13.1237 8.46116 13.1237 6.39007C13.1237 3.21776 10.67 1.17023 6.87023 1.17023H2.04021C1.49673 1.19009 0.981738 1.41868 0.601907 1.80865C0.222076 2.19862 0.00654479 2.72005 0 3.2649V21.2649H6.95588C11.1792 21.2649 13.9051 18.9614 13.9051 15.3934C13.9051 13.4722 13.0245 11.8305 11.5439 10.9953Z" fill="#B9C8DE"/>
<path d="M153.953 6.48436C153.097 6.48752 152.253 6.68329 151.483 7.05721C150.712 7.43114 150.036 7.97366 149.503 8.6447L149.204 9.02524L148.968 8.59924C148.199 7.19662 146.878 6.48436 145.041 6.48436C143.113 6.48436 141.821 7.56201 141.221 8.20186L140.828 8.62786L140.676 8.06715C140.458 7.25892 139.74 6.81608 138.655 6.81608H136.912L136.895 21.3306H140.853V14.9237C140.853 14.3613 140.924 13.8073 141.063 13.2264C141.441 11.6773 142.48 10.012 144.226 10.1787C145.301 10.2831 145.829 11.1165 145.829 12.7263V21.3306H149.815V14.9237C149.815 14.2215 149.881 13.6962 150.039 13.1708C150.358 11.6924 151.444 10.177 153.128 10.177C154.348 10.177 154.798 10.8673 154.798 12.7263V19.209C154.798 20.6739 155.45 21.3306 156.914 21.3306H158.776L158.78 12.0645C158.78 8.36182 157.153 6.48436 153.953 6.48436ZM117.931 16.2909C117.92 16.3061 116.217 18.1044 113.974 18.1044C111.93 18.1044 109.866 16.8483 109.866 14.0447C109.866 11.6234 111.466 9.93114 113.759 9.93114C114.501 9.93114 115.348 10.1972 115.481 10.6468L115.5 10.7225C115.584 11.032 115.769 11.3049 116.024 11.4988C116.279 11.6928 116.591 11.7969 116.911 11.7951L119.079 11.7985V9.89914C119.079 7.39362 115.898 6.48436 113.759 6.48436C109.181 6.48436 105.86 9.67688 105.86 14.075C105.86 18.4698 109.144 21.6589 113.675 21.6589C117.604 21.6589 119.742 19.0709 119.762 19.0456L119.876 18.9042L118.158 16.0501L117.931 16.2909Z" fill="#B9C8DE"/>
</g>
</g>
</svg>
