<svg width="137" height="28" viewBox="0 0 137 28" fill="none" xmlns="http://www.w3.org/2000/svg">
<path fill-rule="evenodd" clip-rule="evenodd" d="M130.214 0L131.572 3.07802L134.61 1.5844L133.651 4.80558L136.948 5.59473L134.123 7.45324L136.136 10.1568L132.765 9.78139L132.553 13.1335L130.214 10.7015L127.876 13.1335L127.663 9.78139L124.292 10.1568L126.305 7.45324L123.48 5.59473L126.777 4.80558L125.819 1.5844L128.857 3.07802L130.214 0Z" fill="#B9C8DE"/>
<path fill-rule="evenodd" clip-rule="evenodd" d="M49.0964 9.64869C48.9043 10.9974 47.7817 11.8014 46.0908 11.8014H42.2123L42.8356 7.41481H46.6574C48.1344 7.41481 49.3321 7.98747 49.0964 9.64869ZM53.7867 9.2707C54.2668 5.88715 52.3341 3.49004 47.4963 3.49004H38.7807L36.3548 20.5754H40.9675L41.7121 15.3307H44.5536L47.3321 20.5754H52.6615L49.3775 14.5966C51.9169 13.5874 53.4201 11.8494 53.7867 9.2707ZM60.1942 3.49004L62.6629 14.6769L68.3047 3.49004H73.3574L63.9156 20.5754H59.577L55.0185 3.49004H60.1942ZM79.8442 3.49004L77.4183 20.5754H72.7803L75.2054 3.49004H79.8425H79.8442ZM10.615 6.67805C12.2867 6.67805 13.7725 7.21665 15.2181 8.21007L17.9705 5.1853C16.3416 3.8977 13.8589 2.9942 11.1475 2.9942C6.1796 2.9942 3.52234 5.45243 3.11118 8.32792C2.72709 11.014 3.86366 12.4587 8.74781 13.6826C11.5997 14.3984 12.4116 14.7755 12.2632 15.7515C12.1349 16.6096 11.1764 17.2643 9.11183 17.2643C6.91811 17.2643 5.41577 16.7108 3.70479 15.3525L0.768188 18.1643C2.71312 19.8989 5.31625 20.9508 8.61687 20.9508C15.1011 20.9508 16.9134 17.3368 17.1552 15.6424C17.6563 12.1418 15.8431 11.151 11.2104 10.0468C7.93684 9.26547 7.67496 8.85256 7.79543 8.05818C7.93946 7.10317 8.86304 6.67805 10.615 6.67805ZM111.015 9.64694C110.823 10.9965 109.7 11.8005 108.009 11.8005H104.131L104.753 7.41394H108.576C110.053 7.41394 111.25 7.9866 111.015 9.64782V9.64694ZM127.959 16.4088C126.992 20.3842 123.457 22.9821 119.572 22.9821C117.031 22.9821 115.209 21.7198 114.128 19.7496L111.296 14.5957C113.812 13.5953 115.337 11.8686 115.706 9.26983C116.185 5.88628 114.253 3.48916 109.415 3.48916H100.699L98.2739 20.5745H102.885L103.63 15.3298H106.473L109.283 20.6356C111.889 25.5573 115.371 27.0605 119.572 27.0605C125.862 27.0605 131.394 22.8905 132.467 16.4088H127.959H127.959ZM19.1612 20.5754H32.9791L33.5125 16.8366H24.096L24.5534 13.6354H32.9809L33.4575 10.3051H25.0301L25.4709 7.22888H34.7634L35.2977 3.49004H21.6055L19.1612 20.5754ZM81.1929 20.5754H95.0117L95.5468 16.8366H86.1286L86.586 13.6354H95.0135L95.4901 10.3051H87.0635L87.5035 7.22888H96.796L97.3303 3.49004H83.6372L81.1929 20.5754Z" fill="#B9C8DE"/>
</svg>
