<svg width="104" height="28" viewBox="0 0 104 28" fill="none" xmlns="http://www.w3.org/2000/svg">
<path d="M61.6239 19.3217V24.5453C61.6239 24.628 61.4317 24.7325 61.3494 24.7422C60.6345 24.8283 59.7505 24.6762 59.0172 24.7422C58.8789 24.7259 58.7634 24.5979 58.7498 24.4596L58.7417 8.78166C58.733 8.58686 58.8433 8.41928 59.0439 8.40305L61.0551 8.40855C61.3112 8.50176 61.2793 8.78585 61.296 9.005C62.5694 7.98752 64.5279 7.86106 66.037 8.37634C70.5404 9.91356 70.7719 17.3687 66.6786 19.4922C65.169 20.2753 63.0738 20.2067 61.6234 19.3214H61.6239V19.3217ZM63.4256 10.6365C61.394 10.8321 61.1402 13.2407 61.3099 14.8569C61.4906 16.5793 62.3449 17.6237 64.1772 17.4884C66.3196 17.3302 66.8054 14.7336 66.4571 13.0105C66.1381 11.433 65.0918 10.476 63.4258 10.6365H63.4256Z" fill="#B9C8DE"/>
<path d="M77.9639 12.2233C77.9403 11.7007 77.681 11.1747 77.2038 10.933C76.2984 10.4748 74.6343 10.646 73.9604 11.4541C73.7724 11.6795 73.6975 12.0759 73.3298 11.978C72.7099 11.7358 71.9907 11.6085 71.3794 11.3619C71.1112 11.2538 71.0698 11.1519 71.1633 10.8833C71.7157 9.30023 73.2866 8.34271 74.8931 8.14476C77.791 7.78736 80.8522 8.77552 80.7964 12.1854L80.783 19.5054C80.7338 19.6447 80.6384 19.7015 80.4954 19.7154C80.0416 19.7594 79.0626 19.7578 78.6074 19.7151C78.4631 19.7015 78.3416 19.6423 78.3091 19.4897C78.257 19.2444 78.323 18.8003 78.307 18.5209C78.3054 18.495 78.3044 18.3507 78.2677 18.3531C77.7059 19.0166 77.0032 19.5567 76.1594 19.8057C73.3712 20.6281 70.2886 19.3637 70.66 16.062C70.9308 13.6545 73.0396 13.0617 75.0809 12.6792C76.0368 12.5001 77.0058 12.3885 77.9639 12.2233ZM77.9401 14.5301C77.0904 14.7076 76.2207 14.8066 75.3784 15.0192C74.6553 15.2017 73.5152 15.5465 73.4359 16.4289C73.3175 17.7477 74.7951 17.9171 75.7712 17.7163C76.5483 17.5566 77.3806 16.9182 77.7007 16.189C77.9288 15.669 77.9322 15.0896 77.9398 14.5301H77.9401Z" fill="#B9C8DE"/>
<path d="M54.1596 18.3528C53.5853 18.9702 52.9565 19.5112 52.1367 19.7735C49.4124 20.6462 46.3094 19.4991 46.5108 16.2438C46.7339 12.6402 51.218 12.7412 53.8443 12.2249C53.7681 11.4645 53.4054 10.9705 52.6568 10.7825C51.6559 10.5309 50.3626 10.7327 49.7225 11.5999C49.4501 11.9691 49.5433 12.0681 49.0059 11.9188C48.3857 11.7465 47.7794 11.5075 47.1606 11.3287C46.8324 11.1891 47.0657 10.7801 47.1784 10.5492C48.1896 8.47364 50.3958 7.92667 52.5484 8.11545C54.2833 8.26784 55.8172 8.90618 56.4314 10.6484C56.6359 11.2289 56.6252 11.7146 56.6477 12.3173C56.7373 14.7011 56.6493 17.1138 56.6558 19.5002C56.6194 19.6175 56.5217 19.7002 56.3992 19.7151C55.7908 19.7887 55.0341 19.6602 54.4098 19.7128C54.3123 19.7162 54.1594 19.5465 54.1594 19.4656V18.3528H54.1596ZM53.8189 14.5301C53.0107 14.6958 52.1859 14.7943 51.383 14.9878C50.6847 15.1561 49.4009 15.5104 49.3144 16.376C49.1832 17.6906 50.5056 17.9033 51.5199 17.743C52.4767 17.5919 53.4735 16.7669 53.7011 15.8128C53.8006 15.3954 53.804 14.9563 53.8186 14.5298H53.8189V14.5301Z" fill="#B9C8DE"/>
<path d="M42.8546 8.49096C42.8991 8.44959 42.9782 8.40718 43.0413 8.40246C43.9428 8.46687 44.9577 8.3192 45.8455 8.4022C46.0708 8.42315 46.1766 8.5538 46.1444 8.7816C44.9548 10.5322 43.6448 12.2111 42.4392 13.953V14.1646L46.34 19.2193C46.494 19.412 46.3743 19.6864 46.1336 19.7149C45.1722 19.6476 44.0934 19.8024 43.1461 19.7157C43.0788 19.7094 43.0283 19.6976 42.9704 19.6626L39.635 15.0564C39.4978 14.8422 39.2304 14.8516 39.0945 15.0606C39.0492 16.4889 39.0861 17.9292 39.0756 19.362C39.0709 19.5225 38.9698 19.6963 38.8001 19.7149C38.0419 19.6605 37.1878 19.7854 36.4411 19.7157C36.2743 19.7003 36.1439 19.5916 36.14 19.4146C36.136 14.8019 36.1533 10.1905 36.1874 5.58227C36.2596 5.46261 36.3793 5.39558 36.52 5.39113C37.2255 5.44454 38.027 5.32305 38.7207 5.39244C38.9523 5.41548 39.0549 5.51 39.0756 5.7446L39.0733 12.9212C39.0861 13.1961 39.4302 13.289 39.6099 13.0887L42.8549 8.49096H42.8546Z" fill="#B9C8DE"/>
<path d="M83.6169 16.8664L85.9423 16.8596C86.1256 16.8933 86.2005 16.9769 86.2178 17.1602C86.2854 17.8828 86.1639 18.7071 86.2186 19.4407C86.2144 19.5868 86.0858 19.6981 85.9426 19.7146C85.2111 19.6604 84.3816 19.7845 83.6622 19.7154C83.4911 19.6989 83.394 19.608 83.3615 19.4399C83.4228 18.7186 83.2816 17.8668 83.3623 17.1612C83.3793 17.0122 83.4723 16.9012 83.6174 16.8664H83.6169Z" fill="#B9C8DE"/>
<path d="M96.038 18.3528C95.9761 18.3363 95.9937 18.3685 95.978 18.3863C94.8403 19.673 93.5596 20.1238 91.8347 20.0283C89.4613 19.8968 88.0109 18.1227 88.4506 15.7554C88.7979 13.8854 90.357 13.2298 92.0306 12.841C93.2461 12.5585 94.4938 12.4299 95.7239 12.2257C95.626 11.498 95.3049 10.9927 94.5771 10.7932C93.64 10.5363 92.2356 10.718 91.6272 11.5473C91.4552 11.7819 91.4348 12.0471 91.0605 11.978L89.0174 11.3239C88.6735 11.1414 89.0417 10.5481 89.1811 10.3064C90.3251 8.32411 92.5489 7.88738 94.6857 8.1445C96.9892 8.42178 98.4255 9.59505 98.5271 12.0021L98.5265 19.4659C98.503 19.6319 98.3841 19.7002 98.2259 19.7151C97.613 19.7725 96.9109 19.6717 96.2886 19.7125C96.2022 19.7149 96.0382 19.5627 96.0382 19.4915V18.3525H96.038V18.3528ZM95.6595 14.5369C94.828 14.7029 93.9752 14.806 93.1518 15.009C92.2495 15.2312 90.9248 15.6675 91.2048 16.8617C91.4981 18.113 93.5106 17.8909 94.3597 17.3688C95.4149 16.72 95.6433 15.9413 95.6715 14.7529C95.6726 14.7047 95.7386 14.5513 95.6595 14.5369Z" fill="#B9C8DE"/>
<path d="M101.086 8.4092L103.437 8.40266C103.575 8.41915 103.668 8.50084 103.706 8.63176L103.7 19.5059C103.651 19.6028 103.594 19.68 103.483 19.7083L101.132 19.7149C101.004 19.6965 100.885 19.6193 100.863 19.4855L100.856 8.70324C100.853 8.54797 100.944 8.45371 101.086 8.4092H101.086Z" fill="#B9C8DE"/>
<path d="M103.598 6.77148C103.548 6.81389 103.476 6.82777 103.412 6.83353C102.696 6.89899 101.883 6.78064 101.157 6.83353C101.021 6.83013 100.912 6.75236 100.869 6.62354C100.892 5.9852 100.797 5.24866 100.856 4.61869C100.874 4.42599 100.961 4.33618 101.157 4.31733C101.876 4.24768 102.706 4.37257 103.437 4.31811C103.59 4.33644 103.694 4.43934 103.712 4.59303C103.667 5.2162 103.771 5.91921 103.713 6.53243C103.705 6.61464 103.662 6.71806 103.598 6.77148Z" fill="#B9C8DE"/>
<path d="M21.1116 0C25.1371 9.68682e-05 28.4006 3.26264 28.4006 7.28711V20.2051C28.4006 24.2295 25.1371 27.4921 21.1116 27.4922H8.1897C4.16409 27.4922 0.900635 24.2296 0.900635 20.2051V7.28711C0.900635 3.26258 4.16409 0 8.1897 0H21.1116ZM8.75122 6.41016L8.68579 6.47559L8.70435 20.9756L8.88794 21.0527C9.88076 20.9818 10.9967 21.1433 11.9749 21.0527C12.0769 21.0433 12.171 21.0293 12.2102 20.9229L12.2336 16.7646L12.2854 16.6855L14.0247 16.6758L14.1135 16.7695L16.6331 21.001L16.8079 21.0537C17.9559 20.9843 19.2031 21.1407 20.3391 21.0527C20.6766 21.0266 20.6464 20.8878 20.5129 20.6426C19.467 18.7203 18.0958 16.8772 17.0208 14.9609C16.9846 14.8968 16.9049 14.7874 16.9084 14.7188C16.9121 14.6502 16.9879 14.5592 17.0256 14.5C18.0523 12.8903 19.205 11.3519 20.2571 9.75977C20.3162 9.67052 20.582 9.27609 20.6008 9.21484C20.6398 9.0872 20.5981 9.0196 20.4836 8.96387L16.6985 8.97168C16.6069 9.0109 16.4137 9.40137 16.3469 9.50879C15.546 10.7941 14.7883 12.1066 13.9749 13.3838C13.9426 13.4244 13.9015 13.4184 13.8567 13.4229C13.5001 13.4574 12.7762 13.4525 12.4163 13.4219C12.368 13.4177 12.3217 13.4201 12.2815 13.3877V13.3867C12.2677 13.3751 12.2327 13.3146 12.2288 13.2969L12.2024 6.50195L12.1106 6.41016H8.75122Z" fill="#B9C8DE"/>
</svg>
