<svg width="42" height="41" viewBox="0 0 42 41" fill="none" xmlns="http://www.w3.org/2000/svg">
<path d="M21.2436 38.7236C11.1365 38.7236 2.85601 30.4025 2.85601 20.2954C2.85601 18.0223 3.26192 15.871 4.03314 13.8415L14.7897 35.4764C14.9115 35.7605 15.1144 36.004 15.4392 36.004C15.7639 36.004 15.9668 35.7605 16.0886 35.4764L21.0407 24.3951C21.0813 24.2733 21.1625 24.1515 21.2842 24.1515C21.406 24.1515 21.4466 24.2733 21.5278 24.3951L26.4799 35.4764C26.6016 35.7605 26.8046 36.004 27.1293 36.004C27.454 36.004 27.657 35.7605 27.7788 35.4764L38.5353 13.8415C39.3066 15.871 39.7125 18.0223 39.7125 20.2954C39.6313 30.4025 31.3508 38.7236 21.2436 38.7236ZM21.2436 16.1145C21.1219 16.1145 21.0813 15.9928 21.0001 15.871L15.2362 2.88195C17.1034 2.1919 19.1329 1.82659 21.2436 1.82659C23.3544 1.82659 25.3839 2.1919 27.2511 2.88195L21.4872 15.871C21.406 16.0334 21.3654 16.1145 21.2436 16.1145ZM15.358 29.4689C15.2362 29.4689 15.1956 29.3472 15.1144 29.2254L5.77855 10.3912C7.44277 7.83403 9.67527 5.68271 12.3949 4.18085L19.1329 19.1589C19.2141 19.4024 19.4171 19.4836 19.62 19.4836H22.8673C23.1108 19.4836 23.2732 19.443 23.395 19.1589L30.133 4.18085C32.812 5.68271 35.0851 7.83403 36.7493 10.3912L27.3323 29.2254C27.2917 29.3472 27.2105 29.4689 27.0887 29.4689C26.967 29.4689 26.9264 29.3472 26.8452 29.2254L23.3138 21.1884C23.192 20.9043 23.0296 20.8637 22.7861 20.8637H19.5388C19.2953 20.8637 19.1329 20.9043 19.0112 21.1884L15.6015 29.2254C15.5609 29.3472 15.4798 29.4689 15.358 29.4689ZM21.2436 40.5908C32.4873 40.5908 41.5391 31.5391 41.5391 20.2954C41.5391 9.05175 32.4873 0 21.2436 0C9.99999 0 0.948242 9.05175 0.948242 20.2954C0.948242 31.5391 9.99999 40.5908 21.2436 40.5908Z" fill="#B9C8DE"/>
</svg>
