<svg width="63" height="28" viewBox="0 0 63 28" fill="none" xmlns="http://www.w3.org/2000/svg">
<path d="M19.6876 3.3979H0.800293V7.408H8.20827V24.9943H12.448V7.39269H19.6876V3.3979ZM62.8345 20.9077L53.4673 20.8158C50.0542 20.7546 47.3144 17.9996 47.2838 14.6017V13.7752C47.2838 10.4998 50.1307 7.63759 53.498 7.36209L53.8347 7.33147L60.2325 7.36209V3.38259H53.8041C47.9114 3.33668 43.1054 8.08146 43.0441 13.9589V14.3874C43.1054 20.2801 47.9114 25.0096 53.8041 24.9637H62.8191L62.8345 20.9077ZM41.085 24.9637L34.5648 16.6986L34.825 16.6833C37.6718 16.4231 39.9065 13.4997 39.9065 10.0406C39.9065 6.56619 37.6718 3.64279 34.825 3.3979H23.8813V7.45392H33.9219H33.9525C35.1005 7.56106 35.9882 8.75491 35.9882 10.1783C35.9882 11.6018 35.1005 12.7803 33.9678 12.9028H19.6876V25.0096H23.8813V16.7292H29.1465L35.6668 24.9943L41.085 24.9637Z" fill="#B9C8DE"/>
</svg>
