<svg width="113" height="28" viewBox="0 0 113 28" fill="none" xmlns="http://www.w3.org/2000/svg">
<mask id="mask0_12788_6160" style="mask-type:luminance" maskUnits="userSpaceOnUse" x="0" y="0" width="113" height="28">
<path d="M112.768 0H0.834473V27.0605H112.768V0Z" fill="white"/>
</mask>
<g mask="url(#mask0_12788_6160)">
<path d="M0.834473 20.263V0.47821H9.14257C14.51 0.47821 18.1121 4.45573 18.1121 10.3684C18.1121 16.281 14.5055 20.2585 9.14257 20.2585H0.834473V20.263ZM9.09341 17.2598C12.6374 17.2598 15.015 14.4666 15.015 10.3103C15.015 6.15399 12.633 3.47252 9.09341 3.47252H3.90923V17.2553H9.09341V17.2598Z" fill="#B9C8DE"/>
<path d="M35.6356 8.50917H38.7104V17.4564H43.4298V20.2585H40.1047C37.6378 20.2585 35.6356 18.2563 35.6356 15.7894V8.5047V8.50917Z" fill="#B9C8DE"/>
<path d="M76.4744 20.263V9.76057C76.4744 7.29361 78.4765 5.29144 80.9435 5.29144H84.9076V8.3662H79.5536V20.263H76.4788H76.4744Z" fill="#B9C8DE"/>
<path d="M89.8415 5.29144H86.7667V20.263H89.8415V5.29144Z" fill="#B9C8DE"/>
<path d="M86.7712 4.344V0.822327H89.846V1.26924C89.846 2.96751 88.4695 4.344 86.7712 4.344Z" fill="#B9C8DE"/>
<path d="M35.6356 3.89708V0.822327H38.7104V5.29144H43.3002V8.36619H40.1047C37.6378 8.36619 35.6356 6.36403 35.6356 3.89708Z" fill="#B9C8DE"/>
<path d="M108.053 18.2206H108.844V20.2586H109.224V18.2206H110.015V17.8586H108.058V18.2206H108.053ZM112.285 17.8631L111.557 19.7401L110.815 17.8631H110.324V20.263H110.69V18.5067L111.387 20.263H111.709L112.406 18.5067V20.263H112.773V17.8631H112.29H112.285Z" fill="#B9C8DE"/>
<path d="M102.713 0V7.01652C101.515 5.89924 99.973 5.2244 98.2881 5.2244C94.4804 5.2244 91.3967 8.66116 91.3967 12.9024C91.3967 17.1436 94.4804 20.5803 98.2881 20.5803C99.973 20.5803 101.515 19.9055 102.713 18.7882V20.2675H105.769V0H102.713ZM98.6903 17.796C96.2681 17.796 94.3687 15.6151 94.3687 12.8309C94.3687 10.0466 96.2279 7.86119 98.6903 7.86119C101.153 7.86119 103.012 9.99743 103.012 12.8309C103.012 15.6643 101.113 17.796 98.6903 17.796Z" fill="#B9C8DE"/>
<path d="M30.5452 5.29148V6.93164C29.3475 5.81436 27.8056 5.13953 26.1208 5.13953C22.3131 5.13953 19.2294 8.57628 19.2294 12.8175C19.2294 17.0587 22.3131 20.4954 26.1208 20.4954C27.8056 20.4954 29.3475 19.8206 30.5452 18.7033V20.1826H33.6021V5.29148H30.5452ZM26.5274 17.7067C24.1052 17.7067 22.2058 15.5258 22.2058 12.7415C22.2058 9.95724 24.065 7.77184 26.5274 7.77184C28.9899 7.77184 30.8491 9.90808 30.8491 12.7415C30.8491 15.5749 28.9497 17.7067 26.5274 17.7067Z" fill="#B9C8DE"/>
<path d="M55.2415 5.29148V6.93164C54.0438 5.81436 52.5019 5.13953 50.8171 5.13953C47.0094 5.13953 43.9257 8.57628 43.9257 12.8175C43.9257 17.0587 47.0094 20.4954 50.8171 20.4954C52.5019 20.4954 54.0438 19.8206 55.2415 18.7033V20.1826H58.2984V5.29148H55.2415ZM51.2193 17.7067C48.797 17.7067 46.8977 15.5258 46.8977 12.7415C46.8977 9.95724 48.7568 7.77184 51.2193 7.77184C53.6818 7.77184 55.541 9.90808 55.541 12.7415C55.541 15.5749 53.6416 17.7067 51.2193 17.7067Z" fill="#B9C8DE"/>
<path d="M71.3081 5.29148V6.92271C70.1104 5.80989 68.5686 5.13953 66.8837 5.13953C63.0805 5.13953 59.9923 8.55841 59.9923 12.7728C59.9923 16.795 63.076 20.053 66.8837 20.053C68.5686 20.053 70.1104 19.4139 71.3081 18.3503V19.8742C71.2768 22.5915 69.735 24.2763 67.3038 24.2763C65.4134 24.2763 64.086 23.5478 63.2503 22.0462L63.2101 21.9792L60.5107 23.0518L60.5554 23.1412C61.4895 24.9288 63.4067 27.0606 67.2502 27.0606C71.4422 27.0606 74.365 24.0931 74.365 19.8474V5.29148H71.3081ZM67.2904 17.3492C64.8681 17.3492 62.9687 15.2934 62.9687 12.67C62.9687 9.86786 64.8279 7.75843 67.2904 7.75843C69.7529 7.75843 71.612 9.86786 71.612 12.67C71.612 15.2978 69.7127 17.3492 67.2904 17.3492Z" fill="#B9C8DE"/>
</g>
</svg>
