<svg width="74" height="22" viewBox="0 0 74 22" fill="none" xmlns="http://www.w3.org/2000/svg">
<path d="M20.6588 8.82116H13.4241V10.1853C13.415 11.7918 14.7022 13.1014 16.2999 13.1105H18.0694V16.6237C18.0694 17.0906 17.6925 17.4664 17.2313 17.4664H6.26176C5.56542 17.4664 5.00473 16.8996 5.00473 16.2024V5.79895C5.00473 5.09872 5.56542 4.53186 6.26176 4.53186H18.0392V6.10352e-05H5.93318C5.08914 6.10352e-05 4.25413 0.197096 3.49751 0.579041C2.44245 1.09739 1.58635 1.95829 1.07088 3.02227C0.691056 3.7801 0.495117 4.61977 0.495117 5.46854V16.5267C0.495117 17.3785 0.691056 18.2182 1.07088 18.9791C1.58635 20.04 2.44245 20.9009 3.49751 21.4162C4.25413 21.7982 5.08612 21.9952 5.93318 21.9952H15.0639C16.7611 21.9952 18.1357 20.6099 18.1387 18.9033V17.6726C18.1357 17.5604 18.2201 17.4664 18.3316 17.4604H18.3467C20.7914 17.3907 22.3649 16.1963 22.3649 14.1229V8.81813H20.6527L20.6588 8.82116Z" fill="#B9C8DE"/>
<path d="M25.6719 8.53924C25.6719 11.3493 28.0141 13.1074 31.1943 13.1074H41.8866C42.5347 13.0589 43.0954 13.547 43.1436 14.1987C43.1466 14.2563 43.1466 14.3169 43.1436 14.3745V16.2024C43.1919 16.8541 42.7065 17.4179 42.0584 17.4664C42.0011 17.4695 41.9409 17.4695 41.8836 17.4664H26.8234V21.9982H41.9891C44.9824 22.074 47.4724 19.6975 47.5477 16.6874C47.5477 16.5964 47.5477 16.5025 47.5477 16.4115V14.4109C47.6231 11.4008 45.2598 8.89996 42.2694 8.82418C42.176 8.82418 42.0856 8.82418 41.9921 8.82418H31.333C30.6849 8.87268 30.1242 8.38464 30.076 7.73291C30.073 7.67531 30.073 7.61469 30.076 7.55709V5.37758C30.0368 4.95017 30.3503 4.57429 30.7753 4.53488C30.8236 4.53185 30.8688 4.53185 30.917 4.53488H45.733V4.51068e-05H33.0482C31.3601 -0.00904881 29.9825 1.35807 29.9735 3.0556V4.31966C29.9765 4.43182 29.8921 4.52579 29.7806 4.53185H29.7655C27.6011 4.60157 25.6809 5.83228 25.6809 8.53924H25.6719Z" fill="#B9C8DE"/>
<path d="M51.2163 15.5658V21.9952H55.7229V11.9131C55.7229 11.4554 56.0726 11.3856 56.3168 11.6312L66.9397 21.9983H73.0892L61.8362 10.9976L73.0861 6.10352e-05H66.9367L56.3137 10.3671C56.0696 10.6127 55.7199 10.5429 55.7199 10.0852V6.10352e-05H51.2163V6.46584C51.2163 8.78479 52.7175 10.1913 55.4094 10.9279C55.5149 10.9643 55.5149 11.0674 55.4094 11.1037C52.7175 11.8403 51.2163 13.2469 51.2163 15.5658Z" fill="#B9C8DE"/>
</svg>
