<svg width="80" height="30" viewBox="0 0 80 30" fill="none" xmlns="http://www.w3.org/2000/svg">
<path d="M79.4949 6.01078V6.19403L73.0944 14.9784L79.4949 23.6893V23.9092L79.3661 24.0194H75.5774L75.4302 23.946C75.2951 23.8178 75.1858 23.6636 75.0806 23.524C73.5662 21.5113 72.1019 19.4299 70.593 17.3987C70.5006 17.2746 70.3939 17.1112 70.2986 16.9952C70.2798 16.9724 70.1797 16.8696 70.1698 16.8666C70.1091 16.8501 70.0009 16.878 69.9306 16.8666V23.7436C69.9306 23.7554 69.8982 23.7649 69.8938 23.7803C69.882 23.8215 69.882 23.885 69.857 23.9272C69.8319 23.9695 69.7606 24.0113 69.7282 24.0558H66.5647C66.5275 24.0117 66.4712 24.0187 66.4359 23.964C66.4252 23.9474 66.409 23.8791 66.3991 23.8538C66.3928 23.838 66.3652 23.8307 66.3623 23.8171V6.17567C66.4245 6.10222 66.4407 5.98875 66.5279 5.93734C66.539 5.93073 66.5827 5.94211 66.6015 5.90062H69.6914C69.7098 5.94211 69.7539 5.93073 69.765 5.93734C69.8397 5.9814 69.864 6.0644 69.8938 6.13894C69.9 6.1551 69.9306 6.16428 69.9306 6.17567V13.0527C70.0005 13.0413 70.1091 13.0692 70.1698 13.0527C70.1786 13.0501 70.2828 12.9454 70.2986 12.9241C71.8766 10.8016 73.4355 8.59457 75.007 6.46871C75.096 6.34789 75.276 6.1764 75.3382 6.06513C75.3477 6.04787 75.3312 6.01703 75.3382 6.01005C75.3452 6.00307 75.3761 6.0196 75.3934 6.01005C75.4368 5.98581 75.4858 5.92118 75.5406 5.89988C75.6006 5.89951 75.6532 5.91604 75.6878 5.86316H79.3293L79.4949 6.01005V6.01078Z" fill="#B9C8DE"/>
<path d="M57.682 9.34856V23.7812C57.682 23.7929 57.6503 23.8025 57.6452 23.8179C57.6382 23.8396 57.6518 23.8682 57.6452 23.8913C57.636 23.9229 57.5072 24.0125 57.4796 24.0562H54.3161C54.2789 24.0121 54.2223 24.0191 54.1873 23.9644C54.1821 23.9563 54.1928 23.938 54.1873 23.9277C54.1744 23.9046 54.1137 23.8241 54.1137 23.8175V9.34856H48.6145C48.6019 9.34856 48.5651 9.2887 48.5409 9.27511C48.5236 9.26556 48.4926 9.28209 48.4856 9.27511C48.4787 9.26813 48.4952 9.23729 48.4856 9.22003C48.4614 9.17669 48.3966 9.12785 48.3752 9.07314V6.17575C48.4408 6.0586 48.5335 5.96569 48.6513 5.9007H63.034C63.101 5.9477 63.2265 6.02408 63.2732 6.1023C63.278 6.11038 63.2681 6.12764 63.2732 6.13902C63.2802 6.15408 63.3041 6.16142 63.31 6.17575C63.3218 6.20476 63.2905 6.25654 63.3468 6.28591V9.00006C63.2721 9.08562 63.2471 9.25087 63.1444 9.31183C63.1363 9.31661 63.119 9.30669 63.1076 9.31183C63.0914 9.31918 63.0818 9.34856 63.0708 9.34856H57.682Z" fill="#B9C8DE"/>
<path d="M48.0996 20.645C48.1132 20.6487 48.298 20.833 48.302 20.8466C48.3123 20.8826 48.2836 20.9263 48.3388 20.9568V23.7444C48.2755 23.8601 48.2085 23.9691 48.0996 24.0562H37.4688C37.4364 24.0121 37.3654 23.9699 37.34 23.9276C37.3076 23.8736 37.3168 23.7859 37.2664 23.7444V6.21241C37.3227 6.1834 37.2914 6.13125 37.3032 6.10224C37.309 6.08792 37.333 6.08058 37.34 6.06552C37.3451 6.05414 37.3352 6.03688 37.34 6.0288C37.3955 5.93589 37.4769 5.95205 37.5424 5.90027H40.5954C40.6543 5.94397 40.7548 5.99354 40.7978 6.06515C40.8026 6.07323 40.7927 6.09049 40.7978 6.10187C40.8052 6.11803 40.8346 6.12758 40.8346 6.1386V20.5896C40.8346 20.5936 40.8858 20.6446 40.8898 20.6446H48.0996V20.645Z" fill="#B9C8DE"/>
<path d="M11.8302 9.89863C11.8777 9.88541 11.9586 9.90744 12.0142 9.89863L15.1041 12.6862C15.1276 12.6322 15.1994 12.6238 15.2145 12.6128C15.3238 12.5331 15.4371 12.3789 15.5457 12.2826C16.2843 11.6264 17.0501 10.9577 17.7895 10.3022C17.9256 10.1814 18.0092 10.0727 18.1575 9.97207C18.1825 9.95518 18.2142 9.9034 18.2311 9.89863C18.2786 9.88541 18.3595 9.90744 18.4151 9.89863C18.6267 10.0888 18.8284 10.2963 19.0404 10.4855C19.6417 11.0216 20.2795 11.5644 20.8797 12.0994C20.9632 12.1739 21.0313 12.2489 21.0821 12.3377V15.8219C21.0368 15.895 20.9912 15.963 20.9165 16.0235C20.5371 16.3327 20.1403 16.6864 19.776 17.0139C18.3139 18.3275 16.8845 19.6737 15.3988 20.9385C15.3083 21.0156 15.2476 21.1107 15.1412 21.1584H15.0676C14.9149 21.074 14.7997 20.9146 14.6632 20.7916C12.9729 19.2691 11.1814 17.7565 9.51319 16.2068C9.39285 16.0952 9.28318 15.9714 9.16357 15.8583V12.3006C9.28281 12.1875 9.39285 12.0641 9.51319 11.9521C9.99345 11.5063 10.5322 11.069 11.0213 10.6316C11.2671 10.4116 11.4946 10.1494 11.757 9.97134C11.782 9.95445 11.8136 9.90267 11.8306 9.89789L11.8302 9.89863Z" fill="#B9C8DE"/>
<path d="M24.9069 12.9062C24.9915 12.8904 25.0533 12.8526 25.1461 12.8695C25.1748 12.8746 25.2973 12.9349 25.3301 12.9429C26.8323 13.3039 28.332 13.6476 29.8177 14.0431C29.8718 14.0575 29.9049 14.0608 29.9649 14.0799C29.9866 14.0868 30.0153 14.0732 30.0385 14.0799C30.0447 14.0817 30.1286 14.1654 30.1305 14.1717C30.1054 14.7633 30.164 15.3806 30.1305 15.9689C29.9152 19.7296 28.0033 23.7301 25.0357 26.257C24.9142 26.3602 24.8653 26.4946 24.6677 26.4402C24.6614 26.4384 24.5775 26.3547 24.5757 26.3484C24.5672 26.3179 24.5834 26.2709 24.5757 26.2382C24.5723 26.2239 24.5425 26.2158 24.5389 26.2015C24.1178 24.5442 23.6788 22.9046 23.2515 21.2499C23.2434 21.2183 23.1816 21.0901 23.1779 21.0666C23.1709 21.0196 23.1676 20.8467 23.1779 20.81C23.1838 20.789 23.2652 20.7328 23.2883 20.6998C23.9346 19.7836 24.4259 18.6918 24.7229 17.6555C25.1093 16.3071 25.2002 14.6935 24.9437 13.2543C24.9411 13.2404 24.9087 13.2312 24.9069 13.2176C24.8947 13.1199 24.9153 13.0061 24.9069 12.9058V12.9062Z" fill="#B9C8DE"/>
<path d="M0.389799 17.6375C0.424392 17.6283 0.567182 17.6312 0.610608 17.6375C0.63416 17.6408 0.762966 17.7029 0.794615 17.7109C2.44442 18.1347 4.09055 18.5695 5.7238 19.0315C5.77937 19.0473 5.88131 19.0476 5.94461 19.0682C5.96927 19.1005 6.01638 19.1284 6.03662 19.16C6.09035 19.2445 6.13488 19.395 6.18382 19.4901C7.24223 21.5444 8.95019 23.1558 11.0578 24.0933C11.2554 24.1814 11.4792 24.2578 11.6831 24.35C11.7272 24.3702 11.8358 24.3955 11.8487 24.4418C11.8616 24.488 11.8398 24.5699 11.8487 24.625L8.22557 28.2378L8.07836 28.2745C8.06438 28.2701 8.05702 28.244 8.04156 28.2378C7.91717 28.1878 7.79609 28.1206 7.67355 28.0545C4.26352 26.214 1.5277 22.5605 0.555773 18.94C0.485115 18.6775 0.366614 18.2408 0.334965 17.9864C0.326868 17.9217 0.326132 17.7932 0.334965 17.7297C0.339749 17.6937 0.358885 17.6463 0.390167 17.6379L0.389799 17.6375Z" fill="#B9C8DE"/>
<path d="M22.9939 27.7971C22.9343 27.7802 22.9306 27.8176 22.9019 27.8338C22.3628 28.1401 21.8365 28.4272 21.2834 28.6773C19.9022 29.302 18.5432 29.667 17.0899 29.851C16.8617 29.88 16.5831 29.9457 16.3542 29.9611C14.2539 30.1018 12.3248 29.859 10.4685 29.2641C10.4244 29.2502 10.3246 29.2428 10.2845 29.2274C10.2371 29.2094 10.1804 29.1386 10.1189 29.154C10.1388 29.0938 10.088 29.0816 10.0821 29.0622C10.0623 28.9964 10.1186 28.9704 10.1189 28.9153L14.11 24.9357L14.1836 24.899C14.2753 24.878 14.3161 24.9335 14.3309 24.9357C15.0113 25.0348 16.1316 24.9001 16.7586 24.7888C18.1243 24.5468 19.4043 24.087 20.621 23.285C20.8977 23.1025 21.1553 22.8844 21.4302 22.6982C21.4553 22.6813 21.4869 22.6295 21.5038 22.6247C21.5778 22.6045 21.7221 22.6413 21.743 22.7166C21.7515 22.7478 21.7346 22.7951 21.743 22.8267C22.1526 24.3382 22.5619 25.8534 22.9567 27.3748C22.9656 27.4089 23.0248 27.5286 23.0304 27.558C23.048 27.655 23.0068 27.7163 22.9936 27.7964L22.9939 27.7971Z" fill="#B9C8DE"/>
<path d="M7.06622 2.26954C7.07321 2.26256 7.10413 2.27909 7.12142 2.26954C7.18546 2.23392 7.27415 2.16415 7.34223 2.12265C11.0975 -0.156704 15.8982 -0.606185 20.0697 0.802483C20.1907 0.870787 20.2629 0.914853 20.2353 1.07753L16.2809 5.05713L16.2073 5.09385C16.1157 5.11479 16.0749 5.05933 16.0601 5.05713C15.9192 5.03657 15.7326 5.06594 15.5821 5.05713C13.2353 4.92273 10.9606 5.64836 9.07117 7.03757C8.95598 7.12239 8.8533 7.2153 8.73995 7.29426C8.69432 7.3262 8.65126 7.37615 8.59275 7.40442L8.42714 7.31262L8.39034 7.12937C7.97816 5.74347 7.59653 4.34619 7.21306 2.94817C7.1792 2.82478 7.08499 2.6151 7.06585 2.50787C7.0596 2.47335 7.05739 2.27799 7.06585 2.26954H7.06622Z" fill="#B9C8DE"/>
<path d="M5.48472 3.62681C5.46522 3.6874 5.5138 3.69695 5.52152 3.71862C5.52925 3.74028 5.51453 3.76929 5.52152 3.79206C5.93738 5.12214 6.28331 6.48087 6.662 7.82674C6.76321 8.18736 6.90416 8.5689 6.99321 8.92694C7.00573 8.97762 6.96819 9.03858 7.03002 9.07383C7.04547 9.13002 6.94721 9.21411 6.91961 9.25708C6.68666 9.62467 6.4331 10.0238 6.22075 10.4307C5.24588 12.2981 4.90584 14.4614 5.22748 16.5927C5.22969 16.6067 5.26244 16.6159 5.26428 16.6295C5.29262 16.8553 5.23778 16.9857 4.98827 16.9412C4.97465 16.9387 4.96619 16.9082 4.95147 16.9045C3.521 16.5498 2.10488 16.1443 0.68434 15.7676C0.551118 15.7323 0.407593 15.6875 0.279891 15.6574C0.247138 15.6497 0.2004 15.6659 0.169487 15.6574C0.163231 15.6556 0.0793235 15.5718 0.0774834 15.5656C0.0690191 15.5351 0.0852117 15.4885 0.0774834 15.4554C0.0741713 15.4407 0.042522 15.4323 0.040682 15.4187C0.0038805 15.1686 0.0292735 14.663 0.040682 14.3916C0.202976 10.4891 1.95841 6.45149 5.06187 3.81005C5.15241 3.73294 5.21313 3.63783 5.31948 3.59009L5.48509 3.62681H5.48472Z" fill="#B9C8DE"/>
<path d="M22.0928 1.79286C22.1193 1.78552 22.2871 1.78552 22.3136 1.79286C22.3324 1.798 22.3619 1.85272 22.3872 1.86631C25.3211 3.44353 27.4681 5.89217 28.843 8.85346C29.3044 9.84754 29.5959 10.8372 29.8362 11.861C29.8498 11.919 29.8005 12.0839 29.7442 12.0993C29.7188 12.1063 29.6272 12.1049 29.597 12.0993C29.5694 12.0942 29.4432 12.0325 29.413 12.0259C27.7073 11.6524 26.0402 11.203 24.3366 10.8155C24.3171 10.8111 24.2615 10.7494 24.1894 10.7788C24.1648 10.7465 24.1177 10.7186 24.0974 10.687C24.0293 10.5805 23.9535 10.3852 23.8766 10.2467C22.9106 8.5024 21.5128 7.12972 19.7751 6.19367C19.3949 5.98875 18.9868 5.79156 18.5978 5.68029C18.5474 5.66596 18.5062 5.55286 18.469 5.5154L18.5058 5.40524L22.0921 1.79249L22.0928 1.79286Z" fill="#B9C8DE"/>
</svg>
