<svg width="51" height="21" viewBox="0 0 51 21" fill="none" xmlns="http://www.w3.org/2000/svg">
<path d="M34.6093 15.9664H36.9308V9.87111C36.9302 8.48526 36.3794 7.15633 35.3995 6.17638C34.4196 5.19644 33.0906 4.64566 31.7048 4.6451C30.3193 4.64622 28.9909 5.19724 28.0114 6.17713C27.0319 7.15701 26.4814 8.48562 26.4809 9.87111V15.9685H28.8024V9.87111C28.8024 8.10946 30.1031 6.67826 31.7069 6.67826C33.3065 6.67826 34.6093 8.10946 34.6093 9.87111V15.9664ZM21.8337 4.93766H24.1573V11.0329C24.1567 12.4184 23.6062 13.747 22.6267 14.7269C21.6472 15.7068 20.3189 16.2578 18.9334 16.2589C17.5475 16.2584 16.2186 15.7076 15.2386 14.7276C14.2587 13.7477 13.7079 12.4188 13.7074 11.0329V4.93555H16.0289V11.0329C16.0289 12.7946 17.3296 14.2258 18.9334 14.2258C20.5329 14.2258 21.8358 12.7946 21.8358 11.0329L21.8337 4.93766ZM0.0625 0V10.452C0.0625 10.5488 0.0646047 10.6477 0.0709189 10.7446H0.0625V15.9685H2.09355L2.20931 14.9582C3.06138 15.6489 4.09159 16.0843 5.18076 16.2139C6.26993 16.3435 7.37355 16.1621 8.36393 15.6907C9.35432 15.2193 10.191 14.4771 10.7772 13.5501C11.3634 12.623 11.6751 11.5489 11.6763 10.452C11.6757 9.37392 11.3751 8.31727 10.8082 7.40029C10.2412 6.48332 9.4303 5.74221 8.46611 5.2599C7.50193 4.77759 6.42255 4.57311 5.34876 4.66934C4.27498 4.76558 3.24916 5.15873 2.3861 5.8048V0.00210456L0.0625 0ZM5.72418 6.67615C7.72576 6.67615 9.35271 8.36624 9.35271 10.4499C9.35271 12.5336 7.72576 14.2237 5.72208 14.2237C3.72049 14.2237 2.09355 12.5336 2.09355 10.4499C2.09355 8.36624 3.72049 6.67615 5.72208 6.67615H5.72418ZM44.7708 4.6451C43.2306 4.6451 41.7533 5.25683 40.664 6.34578C39.5746 7.43472 38.9624 8.91173 38.9618 10.452C38.9628 11.5299 39.2637 12.5863 39.8308 13.503C40.3979 14.4196 41.2088 15.1604 42.173 15.6425C43.1371 16.1245 44.2163 16.3288 45.2899 16.2325C46.3635 16.1362 47.3891 15.7431 48.252 15.0971V20.9019H50.5756V10.452C50.576 10.3544 50.5732 10.2569 50.5672 10.1595H50.5756V4.93766H48.5446L48.4288 5.94792C47.3961 5.10552 46.1036 4.64666 44.7708 4.64931V4.6451ZM44.9161 6.67615C46.9176 6.67615 48.5446 8.36624 48.5446 10.4499C48.5446 12.5336 46.9176 14.2237 44.9161 14.2237C42.9124 14.2237 41.2854 12.5336 41.2854 10.4499C41.2854 8.36624 42.9124 6.67615 44.9161 6.67615Z" fill="#B9C8DE"/>
</svg>
