<svg width="47" height="25" viewBox="0 0 47 25" fill="none" xmlns="http://www.w3.org/2000/svg">
<path d="M23.0542 16.4438C22.9933 16.4271 22.0565 16.1855 21.0609 16.1855C19.176 16.1855 18.0412 17.2033 18.0412 18.719C18.0412 20.0607 18.9906 20.7298 20.1299 21.0897C20.2562 21.1313 20.4423 21.1896 20.5663 21.2307C21.0734 21.3902 21.4783 21.6273 21.4783 22.0379C21.4783 22.4972 21.0104 22.7945 19.9933 22.7945C19.0994 22.7945 18.2425 22.5388 18.062 22.4933V24.3581C18.1626 24.3795 19.181 24.5794 20.269 24.5794C21.8339 24.5794 23.624 23.8956 23.624 21.86C23.624 20.8727 23.0194 19.9637 21.6922 19.5418L21.1281 19.3622C20.7915 19.256 20.1906 19.0839 20.1906 18.5905C20.1906 18.2008 20.6358 17.9264 21.4556 17.9264C22.1629 17.9264 23.0237 18.1641 23.0542 18.1736V16.4438ZM40.3356 20.3826C40.3356 21.5617 39.4325 22.5155 38.2206 22.5155C37.0074 22.5155 36.1067 21.5617 36.1067 20.3826C36.1067 19.2059 37.0074 18.2516 38.2206 18.2516C39.4325 18.2516 40.3356 19.2059 40.3356 20.3826ZM38.2206 16.1881C35.7282 16.1881 33.9407 18.068 33.9407 20.3826C33.9407 22.7008 35.7282 24.5794 38.2206 24.5794C40.7128 24.5794 42.5029 22.7008 42.5029 20.3826C42.5029 18.068 40.7128 16.1881 38.2206 16.1881ZM15.299 24.4352H13.2539V16.3317H15.299" fill="#B9C8DE"/>
<path d="M10.4416 16.4779C10.2495 16.4209 9.53915 16.1875 8.57707 16.1875C6.08851 16.1875 4.26172 17.9618 4.26172 20.3819C4.26172 22.9929 6.2783 24.5788 8.57707 24.5788C9.49036 24.5788 10.1875 24.3624 10.4416 24.2903V22.115C10.3538 22.1638 9.68532 22.5451 8.72367 22.5451C7.36129 22.5451 6.48255 21.5863 6.48255 20.3819C6.48255 19.1409 7.39929 18.2205 8.72367 18.2205C9.70173 18.2205 10.3594 18.6102 10.4416 18.6532" fill="#B9C8DE"/>
<path d="M31.7893 16.4779C31.5971 16.4209 30.8868 16.1875 29.9247 16.1875C27.4362 16.1875 25.6094 17.9618 25.6094 20.3819C25.6094 22.9929 27.626 24.5788 29.9247 24.5788C30.838 24.5788 31.5352 24.3624 31.7893 24.2903V22.115C31.7014 22.1638 31.033 22.5451 30.0713 22.5451C28.7089 22.5451 27.8302 21.5863 27.8302 20.3819C27.8302 19.1409 28.7469 18.2205 30.0713 18.2205C31.0494 18.2205 31.707 18.6102 31.7893 18.6532" fill="#B9C8DE"/>
<path d="M13.246 1.01153C13.246 0.452975 12.7898 0 12.2306 0C11.6716 0 11.2154 0.452975 11.2154 1.01153V11.7724C11.2154 12.3342 11.6716 12.7869 12.2306 12.7869C12.7898 12.7869 13.246 12.3342 13.246 11.7724V1.01153ZM7.66936 4.83137C7.66936 4.27303 7.21337 3.81941 6.65416 3.81941C6.09496 3.81941 5.63897 4.27303 5.63897 4.83137V9.75083C5.63897 10.3124 6.09496 10.7654 6.65416 10.7654C7.21337 10.7654 7.66936 10.3124 7.66936 9.75083V4.83137ZM2.0929 7.62349C2.0929 7.06493 1.6369 6.61218 1.0777 6.61218C0.519145 6.61218 0.0625 7.06493 0.0625 7.62349V9.75083C0.0625 10.3124 0.519145 10.7654 1.0777 10.7654C1.6369 10.7654 2.0929 10.3124 2.0929 9.75083" fill="#B9C8DE"/>
<path d="M11.2188 1.01153C11.2188 0.452975 11.675 0 12.2342 0C12.7932 0 13.2494 0.452975 13.2494 1.01153V11.7724C13.2494 12.3342 12.7932 12.7869 12.2342 12.7869C11.675 12.7869 11.2188 12.3342 11.2188 11.7724V1.01153ZM16.7955 4.83137C16.7955 4.27303 17.2515 3.81941 17.8107 3.81941C18.3699 3.81941 18.8259 4.27303 18.8259 4.83137V9.75083C18.8259 10.3124 18.3699 10.7654 17.8107 10.7654C17.2515 10.7654 16.7955 10.3124 16.7955 9.75083V4.83137ZM22.3719 7.62349C22.3719 7.06493 22.8279 6.61218 23.3871 6.61218C23.9457 6.61218 24.4023 7.06493 24.4023 7.62349V9.75083C24.4023 10.3124 23.9457 10.7654 23.3871 10.7654C22.8279 10.7654 22.3719 10.3124 22.3719 9.75083" fill="#B9C8DE"/>
<path d="M33.5235 1.01153C33.5235 0.452975 33.9797 0 34.5389 0C35.0979 0 35.5541 0.452975 35.5541 1.01153V11.7724C35.5541 12.3342 35.0979 12.7869 34.5389 12.7869C33.9797 12.7869 33.5235 12.3342 33.5235 11.7724V1.01153ZM39.1002 4.83137C39.1002 4.27303 39.5562 3.81941 40.1154 3.81941C40.6746 3.81941 41.1306 4.27303 41.1306 4.83137V9.75083C41.1306 10.3124 40.6746 10.7654 40.1154 10.7654C39.5562 10.7654 39.1002 10.3124 39.1002 9.75083V4.83137ZM44.6766 7.62349C44.6766 7.06493 45.1326 6.61218 45.6918 6.61218C46.2504 6.61218 46.707 7.06493 46.707 7.62349V9.75083C46.707 10.3124 46.2504 10.7654 45.6918 10.7654C45.1326 10.7654 44.6766 10.3124 44.6766 9.75083" fill="#B9C8DE"/>
<path d="M35.5507 1.01153C35.5507 0.452975 35.0945 0 34.5353 0C33.9763 0 33.5201 0.452975 33.5201 1.01153V11.7724C33.5201 12.3342 33.9763 12.7869 34.5353 12.7869C35.0945 12.7869 35.5507 12.3342 35.5507 11.7724V1.01153ZM29.974 4.83137C29.974 4.27303 29.5181 3.81941 28.9589 3.81941C28.3997 3.81941 27.9437 4.27303 27.9437 4.83137V9.75083C27.9437 10.3124 28.3997 10.7654 28.9589 10.7654C29.5181 10.7654 29.974 10.3124 29.974 9.75083V4.83137ZM24.3976 7.62349C24.3976 7.06493 23.9416 6.61218 23.3824 6.61218C22.8238 6.61218 22.3672 7.06493 22.3672 7.62349V9.75083C22.3672 10.3124 22.8238 10.7654 23.3824 10.7654C23.9416 10.7654 24.3976 10.3124 24.3976 9.75083" fill="#B9C8DE"/>
</svg>
