<svg width="181" height="35" viewBox="0 0 181 35" fill="none" xmlns="http://www.w3.org/2000/svg">
<path d="M59.0671 10.4134H52.2156V16.7712C52.2156 16.7973 52.2967 16.8605 52.3409 16.8739C52.783 16.7779 55.4525 16.9724 55.6422 16.7762C55.8711 16.5388 55.6297 14.7342 55.7249 14.2878H57.2707C57.2799 14.2878 57.396 14.4049 57.396 14.4142V20.9825C57.396 21.0103 57.2857 21.1105 57.3124 21.193H55.7249C55.6088 20.7391 55.9037 18.8116 55.6071 18.5733C55.374 18.3863 52.9885 18.6297 52.5064 18.4916C52.4212 18.4756 52.2156 18.5547 52.2156 18.6246V24.5193C52.2156 24.5437 52.3092 24.6237 52.3535 24.6364L55.0565 24.6456V26.3298H47.6201V24.6456C48.4247 24.4974 49.2494 24.6928 50.0432 24.5614V10.5397C50.0432 10.5304 49.9271 10.4134 49.9179 10.4134H47.7454C47.7363 10.4134 47.6201 10.2963 47.6201 10.287V8.81338L60.9304 8.82432L61.0757 9.02222L61.0523 13.898C61.0406 13.9569 60.8861 14.1186 60.8635 14.1186H59.1924C59.1005 14.1186 59.0729 13.9131 59.0629 13.8281C58.9401 12.7729 59.1699 11.4887 59.0671 10.4134Z" fill="#B9C8DE"/>
<path d="M103.602 24.729C103.664 24.7703 103.631 26.169 103.583 26.2271C101.703 26.3913 99.7798 26.1943 97.8806 26.329C97.8096 26.3399 97.6692 26.2481 97.6692 26.2027V24.7711C97.6692 24.5833 97.8648 24.729 97.8781 24.729H99.5492C99.6411 24.729 99.6687 24.5235 99.6787 24.4385C99.9311 22.2743 99.4957 19.5644 99.6486 17.3708C99.5358 16.2668 98.981 14.8756 97.7152 14.7038C92.6635 14.0192 94.114 21.4263 93.9285 24.4149C94.0555 25.0734 95.491 24.5227 95.8369 24.7652C95.9514 24.8461 96.0575 26.3105 95.6255 26.3214L89.8159 26.2439V24.7282H91.6959C91.9048 24.7282 92.0168 24.3694 91.9917 24.1842L91.9859 15.2571C91.8664 14.6239 90.2479 15.1712 89.8937 14.9236C89.7566 14.8276 89.7625 13.5291 89.9404 13.5291H93.8675C93.9185 13.5291 93.9745 13.6394 93.977 13.7194C93.9811 13.8921 93.7572 15.2142 94.0346 15.2116C94.0931 15.2116 94.5752 14.4302 94.7022 14.2862C96.7359 11.9814 101.368 13.023 101.678 16.436C101.907 18.9539 101.389 21.9779 101.676 24.4385C101.686 24.5235 101.714 24.729 101.805 24.729H103.602Z" fill="#B9C8DE"/>
<path d="M82.5458 26.2448V24.729C82.8525 24.6195 84.5511 24.8823 84.5511 24.6027V17.1922C84.5511 17.1468 84.3723 16.3931 84.3439 16.3064C83.8894 14.9186 82.6962 14.5169 81.3393 14.7131C79.8136 14.9337 78.9822 16.772 78.8352 18.1497C78.9538 20.0158 78.516 22.5471 78.7917 24.345C78.9045 25.0827 80.228 24.5732 80.7912 24.7298V26.2456L74.8839 26.2692C74.568 26.1732 74.6574 24.8873 74.7744 24.7669C74.9683 24.5673 76.4062 24.8654 76.7806 24.6456V15.0878C76.7806 15.0786 76.6644 14.9615 76.6552 14.9615H74.9006C74.7101 14.9615 74.7101 13.53 74.9006 13.53H78.7441C78.9546 13.53 78.7859 14.0251 78.7817 14.1582C78.7758 14.3712 78.7382 15.0828 78.8644 15.1763C79.1552 15.391 79.1385 14.9607 79.2696 14.7333C80.7552 12.1515 85.7902 12.6837 86.452 15.7817L86.4904 24.4166C86.5456 25.0616 88.2 24.5707 88.398 24.6852C88.6378 24.825 88.464 25.2275 88.469 25.4456C88.4757 25.7513 88.7272 26.1791 88.2852 26.3138L82.545 26.2465L82.5458 26.2448Z" fill="#B9C8DE"/>
<path d="M69.595 24.1395C69.2642 24.0646 69.3661 24.2886 69.2149 24.5555C67.6683 27.2856 62.4603 27.1037 61.5964 23.9896C61.0867 22.1522 61.6173 19.9914 63.4195 19.1358C65.3831 18.2036 67.3215 18.82 69.3068 18.5851C69.3912 18.575 69.595 18.5463 69.595 18.4545V17.1072C69.595 16.5943 69.087 15.6007 68.681 15.252C67.4644 14.2087 64.8851 14.4403 64.1774 16.0259C64.0871 16.2272 63.9618 17.1501 63.7888 17.1501H61.9506C61.7944 17.1501 61.8988 16.4276 61.9281 16.2853C62.3166 14.4428 63.9852 13.2352 65.7925 13.1089C68.5957 12.9135 71.2277 13.7236 71.4324 16.9405C71.5895 19.407 71.3029 22.02 71.45 24.5016C71.6004 24.9875 73.1553 24.5926 73.2723 24.6886C73.4686 24.8486 73.472 26.2262 73.2155 26.3189L69.8006 26.3222C69.7304 26.3374 69.595 26.2456 69.595 26.2027V24.1395ZM69.5909 20.1008C67.6791 19.9787 63.7847 19.4836 63.58 22.2457C63.4095 24.5505 65.1449 25.5517 67.1895 24.7046C69.0302 23.9416 69.4981 21.9181 69.5909 20.1008Z" fill="#B9C8DE"/>
<path d="M114.213 20.2659C114.049 21.4145 114.473 22.7737 115.217 23.6747C116.838 25.6368 120.249 25.268 121.269 22.8722C121.391 22.585 121.182 22.324 121.629 22.2246C121.716 22.2053 123.095 22.1918 123.156 22.2381C123.573 22.5547 122.661 24.1842 122.399 24.5168C120.353 27.129 115.349 27.1172 113.296 24.5168C111.453 22.1825 111.597 17.3186 113.501 15.0441C115.895 12.1851 121.266 12.4681 122.832 16.0841C123.135 16.7855 123.434 18.1893 123.49 18.9573C123.504 19.1526 123.54 20.2659 123.362 20.2659H114.212H114.213ZM114.213 18.8343H121.19C121.528 18.8343 121.163 17.4769 121.09 17.2512C120.603 15.7708 119.473 14.6154 117.848 14.6154C115.6 14.6154 114.312 16.7805 114.213 18.8335V18.8343Z" fill="#B9C8DE"/>
<path d="M130.757 8.81339L136.729 8.77296L136.978 8.90012L141.327 23.4667L146.007 8.81002L152.147 8.81423V10.2879C152.147 10.2972 152.031 10.4142 152.021 10.4142H149.765C149.756 10.4142 149.64 10.5313 149.64 10.5405V24.4351C149.64 24.4637 149.802 24.6128 149.867 24.6288C150.314 24.6658 151.538 24.4755 151.896 24.5917C151.973 24.617 152.147 24.7054 152.147 24.7711V26.2027C152.147 26.2119 152.031 26.329 152.021 26.329H145.379V24.6448L147.346 24.6381C147.416 24.6532 147.551 24.5614 147.551 24.5185V11.0449C147.551 10.7755 147.681 10.5026 147.301 10.5809L142.296 26.2768C142.223 26.3686 140.403 26.3736 140.32 26.249L135.417 10.8959L135.186 10.751L135.103 24.3484C135.121 24.4865 135.194 24.5783 135.325 24.6229C135.573 24.7071 136.718 24.4932 137.065 24.5985C137.144 24.6221 137.358 24.7054 137.358 24.772V26.2035C137.358 26.2128 137.242 26.3298 137.232 26.3298H130.757V24.6456L132.965 24.6431C133.055 24.6566 133.263 24.4781 133.263 24.4351V10.5397C133.263 10.5304 133.147 10.4134 133.138 10.4134H130.882C130.873 10.4134 130.757 10.2963 130.757 10.2871V8.81339Z" fill="#B9C8DE"/>
<path d="M153.651 17.1502C153.599 16.5228 153.793 15.8163 154.065 15.2521C155.626 12.0108 162.783 12.3039 163.176 16.5194C163.409 19.0297 162.988 21.8701 163.195 24.4158C163.33 25.0953 164.863 24.4932 165.182 24.7694C165.31 24.8798 165.435 26.4326 164.889 26.3122L161.636 26.3265C161.546 26.34 161.339 26.1614 161.339 26.1185V24.2238C161.017 24.2398 160.974 24.6549 160.789 24.8907C159.39 26.6633 156.665 26.9404 154.779 25.8254C152.587 24.5294 152.673 20.7198 154.81 19.3708C156.809 18.1076 158.925 18.8386 161.05 18.5868C161.135 18.5767 161.339 18.548 161.339 18.4562V16.7721C161.339 16.7266 161.051 16.015 161.004 15.93C159.915 13.9333 156.39 14.2205 155.758 16.538C155.701 16.7459 155.819 17.0104 155.614 17.151H153.651V17.1502ZM161.234 20.1169C161.141 20.0234 160.928 20.02 160.798 20.0091C158.965 19.8533 155.522 19.7598 155.324 22.2457C155.046 25.7134 159.11 25.6764 160.522 23.3598C160.916 22.713 161.434 21.1316 161.329 20.3964C161.317 20.3089 161.294 20.1775 161.234 20.1169Z" fill="#B9C8DE"/>
<path d="M168.398 20.2659C167.962 20.4015 168.577 22.4141 168.743 22.7813C169.87 25.2654 173.626 25.7926 175.017 23.4002C175.186 23.108 175.402 22.249 175.67 22.2036C175.74 22.1918 177.021 22.2238 177.09 22.2415C177.186 22.2667 177.273 22.2928 177.344 22.3695C177.051 24.3181 175.465 25.9037 173.559 26.3096C169.88 27.0928 166.568 25.2343 166.19 21.3118C165.811 17.3893 167.142 13.4298 171.486 13.1047C175.829 12.7797 177.387 15.9013 177.551 19.716C177.556 19.8297 177.568 20.2659 177.421 20.2659H168.397H168.398ZM175.375 18.8343C175.356 16.8302 174.203 14.6298 171.991 14.6163C170.712 14.6087 169.684 15.2832 169.042 16.367C168.635 17.0525 168.301 18.0554 168.356 18.8343H175.375Z" fill="#B9C8DE"/>
<path d="M108.866 13.5291V24.5185C108.866 24.8444 110.304 24.7433 110.57 24.6591C110.805 24.7661 110.704 24.9 110.704 25.0237V26.329L105.022 26.2894C104.619 26.2321 104.711 24.8789 104.907 24.7315C105.034 24.6355 105.097 24.729 105.147 24.729H106.651C106.926 24.729 106.772 23.9071 106.773 23.764C106.782 21.1232 106.782 18.4815 106.773 15.8407C106.773 15.6933 106.936 14.9598 106.651 14.9598H104.897C104.706 14.9598 104.706 13.5283 104.897 13.5283H108.866V13.5291Z" fill="#B9C8DE"/>
<path d="M106.777 10.8344V8.8555C106.777 8.78897 106.914 8.74855 106.982 8.73592C107.068 8.71992 108.653 8.75023 108.739 8.77044C108.824 8.79065 109.033 8.86981 109.033 8.93971V10.7081C109.033 10.7174 108.917 10.8344 108.907 10.8344H106.777Z" fill="#B9C8DE"/>
<path d="M181 9.79527C181 10.8833 180.125 11.7649 179.046 11.7649C177.966 11.7649 177.091 10.8833 177.091 9.79527C177.091 8.70728 177.966 7.82561 179.046 7.82561C180.125 7.82561 181 8.70728 181 9.79527ZM180.6 9.80117C180.6 8.93044 179.9 8.22476 179.036 8.22476C178.172 8.22476 177.471 8.93044 177.471 9.80117C177.471 10.6719 178.172 11.3776 179.036 11.3776C179.9 11.3776 180.6 10.6719 180.6 9.80117Z" fill="#B9C8DE"/>
<path d="M178.132 8.8976C178.53 8.79318 179.711 8.63739 179.804 9.19654C179.887 9.69506 179.417 9.79864 179.406 9.94938C179.392 10.1304 180.296 10.9094 179.598 10.8369C179.282 10.8041 179.117 9.99317 178.76 9.98896C178.403 9.98475 178.619 10.7687 178.55 10.8353C178.502 10.8816 178.132 10.8151 178.132 10.7089V8.89844V8.8976ZM178.777 9.08033C178.417 9.18812 178.407 9.78349 179.09 9.6538C179.651 9.54686 179.238 8.94223 178.777 9.08033Z" fill="#B9C8DE"/>
<path d="M34.7236 17.4979C34.7236 27.1618 26.9505 34.9958 17.3618 34.9958C7.77308 34.9958 0 27.1618 0 17.4979C0 7.83402 7.77308 0 17.3618 0C26.9505 0 34.7236 7.83402 34.7236 17.4979ZM33.2881 17.4979C33.2881 8.6357 26.1592 1.45093 17.366 1.45093C8.57269 1.45093 1.44382 8.6357 1.44382 17.4979C1.44382 26.3601 8.57269 33.5449 17.366 33.5449C26.1592 33.5449 33.2881 26.3601 33.2881 17.4979Z" fill="#B9C8DE"/>
<path d="M14.1985 8.43444C14.2528 8.63065 14.7241 8.47655 14.867 8.43444C15.9548 8.10939 17.0327 7.61424 18.1105 7.24119C19.8928 6.62393 21.6792 6.01594 23.4664 5.45174L29.2016 18.9219C29.0228 19.1627 28.0318 18.8503 27.8647 18.5775C26.2805 15.2066 25.0673 11.6344 23.4639 8.27613C23.4112 8.16666 23.3569 8.05381 23.2634 7.97297L21.9716 10.2062C19.739 13.7203 16.4094 16.4891 12.5842 18.0924C12.0888 18.3004 11.5532 18.5447 11.0235 18.5825C11.0368 18.9935 11.6 18.7897 11.8941 18.8411C14.806 19.3514 17.1697 20.26 19.7064 21.7463C19.8242 21.8154 20.3816 22.3299 20.3816 21.9922V19.2133C20.3816 18.9 21.0592 19.2318 21.1795 19.2512C21.3558 19.2798 21.5463 19.2453 21.7393 19.2764C22.6409 19.423 23.5458 19.647 24.439 19.8398L24.4933 25.8482C24.9453 26.6288 25.6045 27.2814 26.0608 28.0578C26.1201 28.158 26.3808 28.606 26.3866 28.6591C26.4075 28.8553 25.6647 29.3167 25.4491 29.2822C24.957 28.4974 24.4624 27.6907 23.8892 26.9622C19.5092 21.3918 11.8974 18.6727 4.98664 20.2027C4.6825 20.2701 4.40677 20.5362 4.08258 20.3981C3.95223 19.7051 3.66146 19.0238 3.77342 18.3055L6.84155 11.2302C7.44565 10.991 8.06061 10.7494 8.67139 10.5262C8.89114 10.4462 10.1052 10.1776 10.1052 9.95022V6.2871C10.1871 6.31404 10.2865 6.20289 10.3141 6.20289H14.074C14.0832 6.20289 14.1994 6.31994 14.1994 6.3292C14.1994 6.78393 14.11 8.10939 14.1994 8.43444H14.1985ZM13.1123 10.0344C13.007 9.65211 13.1123 8.04371 13.1123 7.50814C13.1123 7.49887 12.9962 7.38182 12.987 7.38182H11.3159C11.3067 7.38182 11.1906 7.49887 11.1906 7.50814V10.7923C11.1906 10.842 11.0243 10.9489 10.9583 10.9793C10.4077 11.2336 7.85924 11.9022 7.64283 12.1851L5.13369 17.9931L5.00669 18.5809C11.0326 18.4158 16.8079 15.4238 20.3657 10.5237C20.974 9.6858 22 8.13297 22.3016 7.16877C22.3351 7.06182 22.3016 7.0113 22.1888 7.05425L13.3053 10.1473C13.2385 10.186 13.1223 10.0715 13.1115 10.0336L13.1123 10.0344ZM21.4678 20.5606C21.3733 20.8672 21.4678 22.5278 21.4678 23.0027C21.7961 23.1265 23.0687 24.5353 23.1815 24.5606C23.2625 24.5791 23.3895 24.4654 23.3895 24.4343V20.8975C23.3895 20.6036 22.513 20.6221 22.3518 20.596C22.1663 20.5657 21.5605 20.26 21.4678 20.5606Z" fill="#B9C8DE"/>
<path d="M24.4757 17.5291C24.4757 17.5484 24.6311 17.6731 24.4239 17.7295C24.2802 17.7682 24.0103 17.7548 23.8558 17.7329C23.2817 17.6529 22.6409 17.4659 22.0735 17.3404C21.8713 17.2958 21.4678 17.4087 21.4678 17.1089V13.3194C21.4678 13.0407 21.9875 13.3413 22.0986 13.3573C22.3944 13.4011 24.4757 13.61 24.4757 13.8247C24.4833 15.0601 24.4649 16.2954 24.4757 17.5299V17.5291ZM22.554 14.666C22.4871 14.8942 22.554 15.8516 22.554 16.1817C22.554 16.4268 23.3895 16.479 23.3895 16.2659V14.8344C23.3895 14.7847 22.6417 14.3679 22.554 14.666Z" fill="#B9C8DE"/>
</svg>
