<svg width="114" height="13" viewBox="0 0 114 13" fill="none" xmlns="http://www.w3.org/2000/svg">
<path d="M71.5195 1.87949C71.5989 1.83045 71.6782 1.85006 71.7575 1.85006C73.939 1.85006 76.1204 1.84025 78.3019 1.85006C80.4041 1.86968 81.5741 4.00787 80.6817 5.7145C80.5131 6.03817 80.2751 6.32261 79.9876 6.57762C80.414 6.90129 80.7809 7.24458 80.999 7.71538C81.6237 9.08853 80.9792 10.6873 79.6306 11.2365C79.2836 11.3836 78.9167 11.4523 78.5498 11.4621C76.2692 11.4621 73.9786 11.4621 71.698 11.4621H71.5294V1.86968L71.5195 1.87949ZM72.4814 10.5205H73.582C75.2082 10.5205 76.8344 10.5205 78.4705 10.5205C79.2637 10.5205 79.9083 10.089 80.1462 9.45143C80.6024 8.20579 79.6009 7.12688 78.4804 7.1465C76.5567 7.17592 74.643 7.1465 72.7193 7.1465C72.64 7.1465 72.5607 7.11708 72.4814 7.17592V10.5107V10.5205ZM72.4814 6.15587C72.4814 6.15587 72.5508 6.17549 72.5706 6.17549C74.4943 6.17549 76.4179 6.18529 78.3317 6.17549C79.0357 6.17549 79.581 5.8322 79.8686 5.17505C80.1462 4.53751 80.0471 3.9294 79.6009 3.39976C79.2241 2.94858 78.6986 2.80146 78.1234 2.80146C76.3089 2.80146 74.5042 2.80146 72.6896 2.80146C72.6202 2.80146 72.5508 2.77203 72.4814 2.8505V6.15587Z" fill="#B9C8DE"/>
<path d="M112.618 1.86914V2.80092H104.368V6.17495H112.132V7.13615H104.368V10.5102H113.104V11.4518H103.406V1.86914H112.628H112.618Z" fill="#B9C8DE"/>
<path d="M40.6216 11.4519H39.6598C37.0717 8.73498 34.4936 6.02791 31.9255 3.32084L31.866 3.34046V11.4617H30.9141V1.87903C31.2314 1.82999 31.5487 1.87903 31.8561 1.84961C34.454 4.57629 37.0321 7.29317 39.6598 10.0591V1.86923H40.6216V11.4617V11.4519Z" fill="#B9C8DE"/>
<path d="M41.9297 8.34316H42.8717C42.8717 8.34316 42.9312 8.41181 42.9312 8.45105C43.0402 9.56918 43.6848 10.2361 44.7259 10.5794C45.3705 10.7952 46.0447 10.8443 46.719 10.8443C47.4528 10.8443 48.1865 10.7854 48.8806 10.5402C49.4161 10.344 49.8524 10.04 50.0904 9.51033C50.3977 8.85318 50.1499 8.09795 49.5053 7.74486C48.9897 7.47023 48.4245 7.3231 47.8593 7.2054C46.9768 7.01905 46.0844 6.85231 45.2019 6.67576C44.6069 6.55806 44.0318 6.38151 43.4865 6.13631C42.5246 5.70475 42.1677 4.85143 42.3759 3.85099C42.5345 3.07614 43.0204 2.53669 43.7343 2.1836C44.8152 1.64415 45.9753 1.56568 47.1553 1.63434C47.8296 1.67357 48.484 1.82069 49.0988 2.10513C50.1003 2.56612 50.7051 3.35077 50.953 4.40025C51.0125 4.66508 51.0621 4.93971 51.0324 5.23395H50.0904C50.0309 4.96913 49.9912 4.68469 49.9119 4.41006C49.6441 3.45866 48.9699 2.9094 48.0279 2.68382C46.8281 2.38957 45.6283 2.44842 44.4483 2.84075C43.9029 3.0173 43.536 3.3802 43.3575 3.92946C43.189 4.44929 43.4765 5.11625 43.9922 5.35165C44.3987 5.54781 44.835 5.67532 45.2713 5.7636C46.4215 5.99899 47.5718 6.23439 48.722 6.46979C49.2673 6.57768 49.7731 6.78365 50.249 7.0779C51.0224 7.5585 51.2902 8.26469 51.2009 9.13762C51.072 10.3931 50.2292 11.1189 49.0492 11.4229C47.5519 11.8153 46.0546 11.7956 44.5574 11.3935C43.5261 11.1189 42.6734 10.5892 42.1974 9.5888C42.0487 9.27494 41.9297 8.73549 41.9297 8.33335V8.34316Z" fill="#B9C8DE"/>
<path d="M101.462 5.23417H100.52C100.431 5.06743 100.441 4.88107 100.411 4.69472C100.183 3.56677 99.4693 2.91943 98.3686 2.66442C97.2184 2.39959 96.0781 2.46825 94.9576 2.80173C94.3726 2.97828 93.9363 3.34118 93.7776 3.9591C93.6388 4.49855 93.8768 5.04781 94.3627 5.32244C94.8584 5.60688 95.4137 5.70496 95.9591 5.82266C97.0399 6.04825 98.1207 6.25422 99.2016 6.48962C99.8461 6.63674 100.461 6.87214 100.976 7.31351C101.413 7.68622 101.611 8.16682 101.631 8.72589C101.671 9.90288 101.105 10.8052 99.9452 11.2662C98.9933 11.6389 98.0017 11.7076 97.0003 11.688C96.2367 11.6782 95.493 11.5899 94.7791 11.3447C94.1941 11.1485 93.6586 10.8837 93.2124 10.4423C92.6274 9.86365 92.3894 9.15745 92.3398 8.34337H93.3413C93.3909 8.53954 93.3909 8.72589 93.4405 8.90244C93.6586 9.70671 94.204 10.2069 94.9576 10.5012C95.7013 10.7954 96.4846 10.8445 97.268 10.8347C98.0017 10.8347 98.7355 10.766 99.4197 10.4816C99.9353 10.2658 100.352 9.96173 100.55 9.40266C100.788 8.72589 100.57 8.03932 99.8857 7.69603C99.3404 7.4214 98.7653 7.27428 98.1703 7.15658C97.3175 6.98003 96.4549 6.81329 95.6021 6.64655C95.0468 6.53866 94.5114 6.37192 93.9958 6.15614C92.4985 5.53822 92.4985 3.90025 93.2025 2.94885C93.7082 2.26228 94.4519 1.94842 95.265 1.77187C96.3756 1.53647 97.496 1.51685 98.6066 1.77187C99.5387 1.98765 100.352 2.4094 100.897 3.22348C101.284 3.81198 101.482 4.46913 101.482 5.21455L101.462 5.23417Z" fill="#B9C8DE"/>
<path d="M6.15049 12.3952H0.984375V7.28516H6.15049V12.3952Z" fill="#B9C8DE"/>
<path d="M24.0809 2.81073H19.718C19.6882 2.48706 19.6982 2.183 19.718 1.86914H29.4454V2.79111H25.0923V10.5102H29.4454V11.442H19.7279V10.5102H24.0909V2.81073H24.0809Z" fill="#B9C8DE"/>
<path d="M91.6177 11.4616H90.5666C90.1799 10.5004 89.7833 9.5294 89.3867 8.54858H84.1412C83.7545 9.49998 83.3579 10.471 82.9612 11.4518H81.9102C83.1992 8.24452 84.4882 5.05685 85.7773 1.85938H87.7406C89.0198 5.03724 90.3088 8.22491 91.6078 11.4518L91.6177 11.4616ZM86.4516 2.82058C85.817 4.3997 85.1824 5.97883 84.5378 7.55795H88.9999C88.3554 5.95921 87.7109 4.38009 87.0763 2.82058H86.4417H86.4516Z" fill="#B9C8DE"/>
<path d="M70.2081 11.4519H69.167C68.7803 10.4808 68.3836 9.50002 67.9969 8.529H62.8011C62.4143 9.50002 62.0177 10.471 61.631 11.4519H60.5898C61.869 8.24457 63.1481 5.04709 64.4272 1.84961H66.3608C67.63 5.02747 68.9092 8.21514 70.2081 11.4519ZM67.6102 7.55799C66.9657 5.93964 66.3311 4.36051 65.6965 2.78139C65.4585 2.82062 65.2602 2.75197 65.0718 2.82062C64.4372 4.39975 63.8125 5.96906 63.1779 7.55799H67.6003H67.6102Z" fill="#B9C8DE"/>
<path d="M7.93961 5.78331V0.673231C8.03876 0.614382 8.128 0.633998 8.21725 0.633998C8.97084 0.633998 9.72444 0.633998 10.478 0.633998C11.3705 0.633998 12.0943 0.977285 12.6397 1.68348C13.3536 2.60545 13.304 3.93937 12.5603 4.82211C11.9952 5.48907 11.2614 5.7735 10.4185 5.79312C9.62529 5.81274 8.83202 5.79312 8.02884 5.79312C7.9991 5.79312 7.96935 5.78331 7.92969 5.7735L7.93961 5.78331Z" fill="#B9C8DE"/>
<path d="M7.94742 7.27502C8.92908 7.27502 9.88099 7.22597 10.8329 7.28482C12.0724 7.36329 13.0838 8.452 13.1532 9.67803C13.2325 10.9041 12.3798 12.0418 11.18 12.3361C11.0015 12.3753 10.823 12.4047 10.6445 12.4047C9.80167 12.4047 8.95882 12.4047 8.10607 12.4047C8.05649 12.4047 8.00691 12.4047 7.9375 12.3851V7.26521L7.94742 7.27502Z" fill="#B9C8DE"/>
<path d="M6.18234 3.20452C6.18234 4.64633 5.05194 5.78408 3.59433 5.78408C2.13671 5.78408 0.976562 4.65613 0.976562 3.22413C0.976562 1.79213 2.12679 0.644574 3.57449 0.634766C5.02219 0.634766 6.18234 1.76271 6.19225 3.19471L6.18234 3.20452Z" fill="#B9C8DE"/>
<path d="M56.2382 2.80092H51.8555V1.86914H61.5828V2.79111H57.21V11.4518H56.2382V2.80092Z" fill="#B9C8DE"/>
</svg>
