<svg width="77" height="18" viewBox="0 0 77 18" fill="none" xmlns="http://www.w3.org/2000/svg">
<path d="M42.3847 0.480469H40.918V16.6015H42.3847V0.480469Z" fill="#B9C8DE"/>
<path d="M61.1133 0.480469H65.7923V1.82419H64.2007V16.6015H62.7279V1.82419H61.1133V0.480469Z" fill="#B9C8DE"/>
<path d="M39.5757 0.480469V16.6015H38.0396L35.8435 6.81126V16.6015H34.4023V0.480469H35.7278L38.1346 11.1603V0.480469H39.5757Z" fill="#B9C8DE"/>
<path d="M7.68222 0.480469V16.6015H6.24108V2.78313L4.46264 16.6015H3.2626L1.51277 2.78313V16.6015H0.0625V0.480469H2.51615L3.92137 10.1995L5.24622 0.480469H7.68222Z" fill="#B9C8DE"/>
<path d="M25.5427 16.606C26.5645 15.216 27.1808 13.57 27.3234 11.8509C27.4659 10.1317 27.129 8.40665 26.3501 6.86743C25.5712 5.3282 24.3809 4.03506 22.9113 3.13166C21.4417 2.22827 19.7504 1.75 18.0253 1.75C16.3002 1.75 14.6089 2.22827 13.1393 3.13166C11.6697 4.03506 10.4793 5.3282 9.70045 6.86743C8.92157 8.40665 8.58469 10.1317 8.72722 11.8509C8.86975 13.57 9.48612 15.216 10.5079 16.606H12.4482C11.3575 15.5045 10.617 14.1049 10.3202 12.5835C10.0233 11.062 10.1833 9.48676 10.78 8.05607C11.3767 6.62537 12.3834 5.40324 13.6734 4.5436C14.9633 3.68395 16.4788 3.22525 18.0289 3.22525C19.5791 3.22525 21.0946 3.68395 22.3845 4.5436C23.6744 5.40324 24.6812 6.62537 25.2779 8.05607C25.8746 9.48676 26.0346 11.062 25.7377 12.5835C25.4408 14.1049 24.7004 15.5045 23.6096 16.606H25.5427Z" fill="#B9C8DE"/>
<path d="M71.099 16.6023H69.6652L69.2859 12.9711H67.1403L66.7933 16.6023H65.332L66.9814 0.482422H69.2183L71.099 16.6023ZM69.1507 11.5153L68.1766 2.62617L67.2767 11.5153H69.1519H69.1507Z" fill="#B9C8DE"/>
<path d="M53.5786 14.5546C53.6032 14.6889 53.5979 14.827 53.5632 14.9591C53.5285 15.0911 53.4652 15.2139 53.3778 15.3188C53.2904 15.4237 53.181 15.5081 53.0573 15.566C52.9337 15.6239 52.7988 15.6539 52.6623 15.6539C52.5257 15.6539 52.3909 15.6239 52.2672 15.566C52.1436 15.5081 52.0341 15.4237 51.9467 15.3188C51.8593 15.2139 51.796 15.0911 51.7613 14.9591C51.7266 14.827 51.7214 14.6889 51.7459 14.5546V2.3777C51.7214 2.24339 51.7266 2.10533 51.7613 1.97327C51.796 1.84122 51.8593 1.7184 51.9467 1.61353C52.0341 1.50865 52.1436 1.42427 52.2672 1.36637C52.3909 1.30847 52.5257 1.27845 52.6623 1.27845C52.7988 1.27845 52.9337 1.30847 53.0573 1.36637C53.181 1.42427 53.2904 1.50865 53.3778 1.61353C53.4652 1.7184 53.5285 1.84122 53.5632 1.97327C53.5979 2.10533 53.6032 2.24339 53.5786 2.3777L53.5749 2.95976V5.99912H55.0495V3.65689V2.97924C55.0392 0.970044 54.2532 0.0117188 52.6142 0.0117188C51.1529 0.0117188 50.2031 1.04676 50.2031 2.63828V3.23008V13.3211V13.9744C50.2031 16.0402 51.0044 17.0473 52.6489 17.0473C54.2934 17.0473 55.052 16.0585 55.052 13.9318V8.06677H52.3396V9.47868H53.5725V14.0201L53.5786 14.5546Z" fill="#B9C8DE"/>
<path d="M59.6207 14.1691V9.97779L56.2617 7.4669V2.78243C56.2617 0.941277 57.0904 0 58.7123 0C60.3605 0 61.11 0.933971 61.1191 3.00405L61.1234 3.64639V6.02332H59.6207V2.8354L59.6177 2.37877C59.6432 2.24519 59.639 2.10763 59.6052 1.97589C59.5714 1.84416 59.509 1.72151 59.4223 1.61671C59.3356 1.5119 59.2269 1.42753 59.1039 1.36961C58.9808 1.31169 58.8465 1.28166 58.7105 1.28166C58.5745 1.28166 58.4402 1.31169 58.3171 1.36961C58.1941 1.42753 58.0854 1.5119 57.9987 1.61671C57.912 1.72151 57.8496 1.84416 57.8158 1.97589C57.782 2.10763 57.7778 2.24519 57.8033 2.37877V6.76612L61.1228 9.27396V14.121C61.1228 16.0157 60.2789 17.0307 58.7026 17.0307C57.1056 17.0307 56.2751 16.0742 56.2672 14.2257V13.5882V10.4332H57.8039V14.5557C57.7784 14.6893 57.7827 14.8268 57.8164 14.9586C57.8502 15.0903 57.9127 15.213 57.9993 15.3178C58.086 15.4226 58.1947 15.5069 58.3178 15.5649C58.4408 15.6228 58.5751 15.6528 58.7111 15.6528C58.8471 15.6528 58.9814 15.6228 59.1045 15.5649C59.2275 15.5069 59.3362 15.4226 59.4229 15.3178C59.5096 15.213 59.572 15.0903 59.6058 14.9586C59.6396 14.8268 59.6438 14.6893 59.6183 14.5557L59.6207 14.1691Z" fill="#B9C8DE"/>
<path d="M33.5059 16.6023H32.0361C31.8326 16.0475 31.7316 15.4604 31.7378 14.8695L31.7256 14.0451L31.7213 13.6262V10.4791C31.7371 10.3572 31.7263 10.2333 31.6897 10.1159C31.653 9.99857 31.5915 9.89052 31.5092 9.7992C31.4269 9.70788 31.3258 9.63544 31.2129 9.58685C31.0999 9.53826 30.9778 9.51468 30.8549 9.51771H29.8059V16.6023H28.3672V0.482422H30.2449C32.3539 0.482422 33.1673 1.25383 33.1673 3.316V6.34379C33.1673 7.7003 32.9408 8.26897 31.879 8.66046C31.8942 8.66472 31.9089 8.67141 31.9235 8.67568C32.9262 8.96792 33.1509 9.34541 33.1625 10.6203L33.1673 11.206V14.148C33.1328 14.9797 33.2474 15.8109 33.5059 16.6023ZM29.8059 1.75065V8.13502H30.321C30.5088 8.16796 30.7017 8.15586 30.8839 8.09974C31.0661 8.04361 31.2323 7.94505 31.369 7.81216C31.5057 7.67927 31.6089 7.51584 31.6702 7.3353C31.7314 7.15476 31.7489 6.96227 31.7213 6.77364V3.48586C31.7213 2.16223 31.4169 1.74822 30.4354 1.74822H29.8059V1.75065Z" fill="#B9C8DE"/>
<path d="M76.6197 16.6023H75.1488C74.9452 16.0475 74.8444 15.4603 74.851 14.8695L74.8389 14.0451L74.8334 13.6268V10.4791C74.8491 10.3572 74.8383 10.2334 74.8018 10.1161C74.7652 9.99876 74.7037 9.89075 74.6214 9.79944C74.5392 9.70813 74.4382 9.63567 74.3253 9.58705C74.2125 9.53842 74.0905 9.51477 73.9676 9.51771H72.9198V16.6023H71.4805V0.482422H73.3588C75.4678 0.482422 76.2812 1.25383 76.2812 3.316V6.34379C76.2812 7.7003 76.0541 8.26897 74.9947 8.66046C75.0087 8.66472 75.0234 8.67141 75.0392 8.67568C76.0413 8.96792 76.2666 9.34541 76.2782 10.6203L76.2818 11.206V14.148C76.2468 14.9797 76.3612 15.811 76.6197 16.6023ZM72.9198 1.75065V8.13502H73.4367C73.6242 8.1673 73.8167 8.15471 73.9984 8.09829C74.1801 8.04187 74.3459 7.94322 74.4821 7.81041C74.6184 7.67761 74.7212 7.51442 74.7823 7.33422C74.8433 7.15401 74.8609 6.96191 74.8334 6.77364V3.48586C74.8334 2.16223 74.529 1.74822 73.5475 1.74822H72.9198V1.75065Z" fill="#B9C8DE"/>
<path d="M48.872 0.480469V16.6015H47.3365L45.1404 6.81126V16.6015H43.6992V0.480469H45.0247L47.4308 11.1603V0.480469H48.872Z" fill="#B9C8DE"/>
</svg>
