<svg width="85" height="15" viewBox="0 0 85 15" fill="none" xmlns="http://www.w3.org/2000/svg">
<path d="M15.2427 0.0878906V12.1767H9.46086V4.92452H6.15295V12.1767H0.371094V0.0878906H15.2427Z" fill="#B9C8DE"/>
<path fill-rule="evenodd" clip-rule="evenodd" d="M21.8477 0.0878906H24.3496L30.109 7.56418V0.0878906H32.7789V12.1713H30.4785L24.5231 4.54196V12.1713H21.8477V0.0878906ZM34.083 7.62976V7.59697C34.083 4.97371 35.9972 2.81499 38.7398 2.81499C41.8854 2.81499 43.3239 5.19778 43.3239 7.80464C43.3239 8.00685 43.3071 8.24732 43.2903 8.48778H36.7361C36.9991 9.66825 37.8387 10.2858 39.0365 10.2858C39.932 10.2858 40.5813 10.0126 41.3201 9.34581L42.8482 10.6629C41.9694 11.7286 40.7044 12.3789 39.0029 12.3789C36.1708 12.3789 34.0774 10.4443 34.0774 7.62976H34.083ZM40.7268 6.85918C40.5701 5.68964 39.8649 4.90266 38.7454 4.90266C37.6316 4.90266 36.9096 5.67871 36.7025 6.85918H40.7268ZM44.9919 5.21417H43.8724V2.9844H44.9919V0.639868H47.6673V2.9844H49.8782V5.21417H47.6673V9.13813C47.6673 9.73929 47.9304 10.0344 48.5237 10.0344C49.0162 10.0344 49.4584 9.90871 49.8446 9.70104V11.7942C49.2849 12.1221 48.63 12.3243 47.7345 12.3243C46.1001 12.3243 44.9975 11.6903 44.9975 9.56441L44.9919 5.21417ZM63.9046 2.98987H66.5745V4.30696C67.2237 3.44894 68.1193 2.82045 69.5074 2.82045C71.707 2.82045 73.7948 4.49824 73.7948 7.56418V7.59697C73.7948 10.6684 71.7406 12.3462 69.5074 12.3462C68.0857 12.3462 67.2069 11.7122 66.5745 10.9744V14.9202H63.9046V2.98987ZM71.1194 7.56418C71.1194 6.03941 70.0671 5.02836 68.8189 5.02836C67.5764 5.02836 66.5353 6.03941 66.5353 7.56418V7.59697C66.5353 9.12174 67.5708 10.1382 68.8189 10.1382C70.0671 10.1382 71.1194 9.13813 71.1194 7.59697V7.56418ZM74.8806 2.98987H77.5505V4.30696C78.2053 3.44894 79.1009 2.81499 80.489 2.81499C82.6831 2.81499 84.7764 4.49824 84.7764 7.56418V7.59697C84.7764 10.6684 82.7166 12.3462 80.489 12.3462C79.0617 12.3462 78.183 11.7122 77.5505 10.9744V14.9202H74.8806V2.98987ZM82.1066 7.56418C82.1066 6.03941 81.0487 5.02836 79.8005 5.02836C78.558 5.02836 77.5169 6.03941 77.5169 7.56418V7.59697C77.5169 9.12174 78.558 10.1328 79.8005 10.1328C81.0487 10.1328 82.1066 9.13813 82.1066 7.59697V7.56418ZM55.66 0.0878906H58.0948L63.233 12.1767H60.4176L59.2814 9.48243H54.4063L53.2812 12.1767H50.5218L55.66 0.0878906ZM58.481 7.14883L56.8466 3.2522L55.2067 7.14883H58.481Z" fill="#B9C8DE"/>
</svg>
