<svg width="105" height="17" viewBox="0 0 105 17" fill="none" xmlns="http://www.w3.org/2000/svg">
<path fill-rule="evenodd" clip-rule="evenodd" d="M91.6547 11.8988V7.54102H89.2148V12.3621C89.2148 13.9952 90.9316 15.3163 93.0496 15.3163C95.1675 15.3163 96.8843 13.9906 96.8843 12.3621V7.54102H94.4631V11.8988C94.4631 12.6236 93.8333 13.2108 93.0589 13.2108C92.2845 13.2108 91.6547 12.6236 91.6547 11.8988Z" fill="#B9C8DE"/>
<path d="M104.846 2.36133H102.387V15.0448H104.846V2.36133ZM100.689 2.36133H98.2305V15.0448H100.689V2.36133Z" fill="#B9C8DE"/>
<path fill-rule="evenodd" clip-rule="evenodd" d="M53.2678 5.0233H51.9335V15.0463H49.3164V2.94531H53.8136C55.8616 2.94531 57.5177 4.54623 57.5177 6.51871C57.5177 8.19762 56.3141 9.61046 54.6953 9.9912L58.3061 15.0463H55.2224L52.61 11.0829V8.18844H53.2164C54.1821 8.18844 54.9659 7.47743 54.9659 6.60587C54.9659 5.73431 54.2334 5.0233 53.2678 5.0233Z" fill="#B9C8DE"/>
<path d="M66.0327 11.7834C66.0514 11.6182 66.056 11.4485 66.056 11.2742C66.0933 8.65951 64.3346 7.22372 62.0907 7.22372C59.8467 7.22372 58.0273 9.03565 58.0273 11.265C58.0273 13.4944 59.8467 15.3109 62.0907 15.3109C63.8028 15.3109 65.1417 14.5494 65.8274 13.3568L63.8308 12.4531C63.5742 12.9944 62.9817 13.3751 62.2913 13.3705C61.3349 13.3705 60.6258 12.6779 60.6212 11.8659V11.7834H66.0374H66.0327ZM60.6072 10.3935C60.6212 9.57694 61.3069 8.93015 62.1327 8.94391C62.9397 8.95767 63.5928 9.59987 63.6068 10.3935H60.6025H60.6072ZM75.8155 15.0448V2.36133H73.3616V8.36134C72.7085 7.72831 71.8408 7.34299 70.8938 7.34299C68.8644 7.34299 67.2176 9.11364 67.2176 11.2971C67.2176 13.4806 68.8644 15.2513 70.8938 15.2513C71.8501 15.2513 72.7225 14.8476 73.3756 14.2008V15.0448H75.8155ZM71.5888 13.1916C70.5952 13.1916 69.7834 12.3201 69.7834 11.2513C69.7834 10.1824 70.5905 9.31088 71.5888 9.31088C72.5872 9.31088 73.3943 10.1824 73.3943 11.2513C73.3943 12.3201 72.5872 13.1916 71.5888 13.1916ZM86.2047 8.45767C86.8765 7.8384 87.287 7.01271 87.287 6.10446C87.287 5.28335 86.9651 4.52647 86.4006 3.93014C85.8128 3.29711 84.7772 2.93931 83.373 2.93931H79.1697V15.0403H84.5952C86.6759 15.0081 88.3506 13.4623 88.3506 11.5678C88.3506 10.1916 87.8561 9.20538 86.2 8.4485L86.2047 8.45767ZM84.1474 12.9439H81.7961V5.02188H83.4336C84.152 5.02188 84.7352 5.66867 84.7352 6.37969C84.7352 7.08611 84.152 7.6595 83.4336 7.66409H82.5799V9.83841H84.1474C85.0197 9.83841 85.6822 10.5311 85.6822 11.3889C85.6495 12.2742 85.099 12.8889 84.1474 12.9439Z" fill="#B9C8DE"/>
<path d="M22.3113 0.775123C26.6825 0.775123 30.242 4.27513 30.242 8.5733C30.242 12.8715 26.6825 16.3715 22.3113 16.3715C17.9401 16.3715 14.3806 12.8715 14.3806 8.5733C14.3806 4.27513 17.9354 0.775123 22.3113 0.775123ZM22.3113 0.316406C17.6742 0.316406 13.9141 4.01366 13.9141 8.5733C13.9141 13.1329 17.6742 16.8302 22.3113 16.8302C26.9484 16.8302 30.7085 13.1329 30.7085 8.5733C30.7085 4.01366 26.9484 0.316406 22.3113 0.316406Z" fill="#B9C8DE"/>
<path d="M32.1305 12.4078C32.1025 12.3757 32.0511 12.3711 32.0232 12.3711C32.0092 12.3711 31.9998 12.3711 31.9858 12.3711C31.8972 12.3803 31.8132 12.3849 31.7293 12.3849C31.6873 12.3849 31.6406 12.3849 31.5986 12.3849C31.5613 12.3849 31.5287 12.3849 31.5007 12.3849C31.4493 12.3849 31.4027 12.3849 31.3607 12.394H31.3514V12.4032C31.3514 12.4032 31.1741 12.7014 31.1974 12.8849C31.2208 13.0821 31.4214 13.1188 31.5753 13.1509C31.6313 13.1601 31.6919 13.1738 31.7572 13.1738C31.8692 13.1738 31.9392 13.1372 31.9765 13.0638C32.0558 12.8711 32.1165 12.6693 32.1491 12.4628C32.1538 12.4445 32.1491 12.4216 32.1351 12.4078H32.1305ZM43.0982 13.0546C43.0049 12.9216 42.8369 12.8115 42.7063 12.7243C42.655 12.6922 42.6037 12.6555 42.5523 12.6188L42.5243 12.6005C42.4964 12.5729 42.4544 12.5592 42.417 12.5592C42.2678 12.5592 42.1045 12.7381 42.0998 12.7977C42.0952 12.8849 42.2258 13.0454 42.3937 13.2427L42.431 13.2839C42.515 13.3849 42.6083 13.4353 42.7063 13.4445C42.8043 13.4445 42.8836 13.4124 42.9629 13.3344C43.0235 13.2794 43.1588 13.1372 43.0982 13.0546ZM43.7979 14.2014C43.7746 14.1555 43.7559 14.1096 43.7419 14.0638C43.7279 13.9949 43.7186 13.9307 43.7093 13.8619C43.6953 13.7518 43.6813 13.6509 43.6486 13.5729C43.5973 13.472 43.4994 13.4078 43.3827 13.4078C43.3454 13.4078 43.3081 13.417 43.2708 13.4353C43.1075 13.5179 43.0095 13.605 43.0375 13.7839C43.1261 14.05 43.1728 14.2427 43.2334 14.5041C43.2381 14.5454 43.2661 14.6739 43.3314 14.6739C43.3361 14.6739 43.3407 14.6739 43.3454 14.6739L43.8166 14.5225C43.8166 14.5225 43.8586 14.4995 43.8679 14.4812C43.8959 14.417 43.8446 14.3161 43.7979 14.2151V14.2014Z" fill="#B9C8DE"/>
<path d="M42.9635 14.5734C42.9262 14.289 42.8469 14.0092 42.7256 13.7477V13.734H42.7069C42.4317 13.7523 42.2637 13.5321 42.0958 13.3211C42.0398 13.2523 41.9931 13.1881 41.9372 13.1285C41.8579 13.0367 41.7692 12.9542 41.6759 12.8762C41.578 12.7936 41.4986 12.7202 41.466 12.656C41.4287 12.578 41.3867 12.4221 41.3447 12.2753C41.3167 12.1698 41.2887 12.0688 41.2607 12.0046C41.2561 11.9909 41.2514 11.9771 41.2421 11.9633C41.1907 11.8349 41.1301 11.6698 40.9622 11.6468C40.8782 11.6331 40.7849 11.6285 40.6962 11.6239C40.449 11.6147 40.2017 11.5734 40.0758 11.3945C39.9592 11.234 40.0058 11.0872 40.0758 10.9266C40.1038 10.8578 40.1271 10.7982 40.1411 10.7294C40.2297 10.4358 40.2624 10.0688 40.1924 9.81654C40.1831 9.77526 40.1691 9.73397 40.1551 9.69269C40.1178 9.58719 40.0758 9.42663 40.1038 9.37618C40.1318 9.32572 40.1598 9.32113 40.2064 9.32113C40.2484 9.32113 40.2997 9.33489 40.3464 9.34865C40.379 9.35783 40.407 9.36241 40.4397 9.37159C40.561 9.39911 40.7476 9.43122 40.9155 9.43122C41.1954 9.43122 41.4847 9.37159 41.7366 9.26608C42.2124 9.04131 42.6836 8.52755 42.6603 7.88993C42.5949 7.24773 42.1937 6.62846 41.424 5.99085C41.4053 5.97709 41.3867 5.95874 41.368 5.94498C41.2701 5.86241 41.1488 5.76149 41.1441 5.66975C41.1441 5.578 41.382 5.52296 41.5313 5.49085C41.5686 5.48167 41.5966 5.47709 41.6246 5.46791L41.6619 5.45874C41.8532 5.40828 42.0491 5.35782 42.2124 5.24773C42.7629 4.88534 42.7396 4.24314 42.6789 3.89451C42.6789 3.88534 42.6743 3.87158 42.6696 3.8624C42.6603 3.81653 42.6463 3.76149 42.6043 3.76149C42.5903 3.76149 42.5716 3.77066 42.5623 3.77983C42.5483 3.7936 42.5296 3.81194 42.511 3.82571C42.4457 3.88534 42.3804 3.94956 42.2964 3.99543C42.1238 4.09635 41.9138 4.14222 41.7132 4.18351C41.5826 4.21103 41.452 4.23855 41.326 4.27984C40.7802 4.46332 40.4397 4.73855 40.3184 5.08718C40.2531 5.27066 40.2904 5.50002 40.4117 5.72021C40.5889 6.00002 40.8455 6.24314 41.0974 6.47709C41.494 6.84865 41.8998 7.22938 41.9931 7.75232C42.0445 8.05507 41.9185 8.31195 41.6106 8.53214C41.4473 8.62847 41.2421 8.67893 41.0135 8.67893C40.7242 8.67893 40.4397 8.60553 40.1784 8.4725C39.8612 8.31654 39.5486 8.11471 39.2501 7.91746C38.8022 7.62388 38.3357 7.31654 37.8225 7.15599C37.5986 7.05507 37.3514 7.00461 37.1134 6.95874C36.7729 6.88993 36.423 6.82112 36.1384 6.60553C36.0405 6.54131 35.9472 6.47709 35.8538 6.40828C35.5973 6.22479 35.3314 6.03672 35.0328 5.96333C34.9208 5.92663 34.8135 5.91287 34.7062 5.89452C34.5429 5.87158 34.389 5.84865 34.2444 5.75232L34.0484 5.6147C33.8105 5.44498 33.5633 5.26608 33.316 5.14222C32.8915 4.9358 32.439 4.82571 31.9351 4.7202C31.7719 4.68351 31.6739 4.56424 31.5666 4.4358C31.4966 4.34864 31.422 4.26149 31.3287 4.20185C30.9415 3.8991 30.5869 3.69727 30.1297 3.69727C30.0878 3.69727 30.0458 3.69727 30.0038 3.70185C29.7659 3.71561 29.5326 3.89451 29.3787 4.02754C28.9261 4.41745 28.4363 4.76608 27.9651 5.10094C27.2607 5.60094 26.5329 6.11929 25.9125 6.78443C25.3013 7.4037 25.0821 8.17893 24.8628 8.93122C24.8302 9.04131 24.8022 9.1514 24.7649 9.2615C24.7089 9.46792 24.6529 9.67893 24.6016 9.88076C24.3217 10.9863 24.0324 12.0918 22.9081 12.8074C22.8335 12.8532 22.8615 12.9496 22.9268 12.9725C22.9548 12.9817 23.426 13.1377 23.8971 12.6743C24.1817 12.3303 24.3403 12.0092 24.6762 11.6514C24.6855 11.6422 24.7275 11.6101 24.7602 11.6147C24.7835 11.6239 24.7882 11.6376 24.7835 11.6789C24.7415 11.8211 24.6529 11.945 24.5643 12.0688C24.4756 12.1927 24.387 12.3211 24.3403 12.4725C24.233 12.789 23.9298 13.0459 23.6639 13.2707C23.6639 13.2707 23.6219 13.2982 23.5986 13.3257C23.5752 13.3578 23.5752 13.367 23.5752 13.367C23.5659 13.4358 23.6219 13.4817 23.7385 13.4863C24.3683 13.4863 24.8162 13.0459 25.25 12.6193C25.2687 12.601 25.2967 12.5918 25.3247 12.5918C25.348 12.5918 25.3713 12.5918 25.3946 12.601C25.4226 12.6147 25.4879 12.6789 25.5393 12.7248C25.6839 12.8487 25.8285 12.9771 26.0151 13.0138H26.0198C26.2484 12.9817 26.4536 12.9588 26.6682 12.9588C26.7289 12.9588 26.7895 12.9588 26.8408 12.9633C27.0694 13.0321 27.3027 13.1147 27.5219 13.1973C27.6759 13.2569 27.8392 13.3166 28.0025 13.367H28.0071C28.217 13.3578 28.3663 13.1698 28.4783 12.9954C28.5296 12.8762 28.5063 12.7569 28.4783 12.6422C28.4643 12.5688 28.4503 12.5046 28.455 12.4404C28.4923 12.4221 28.5483 12.4266 28.6042 12.4312C28.6556 12.4404 28.7255 12.4312 28.7489 12.4312C28.8049 12.4221 28.8608 12.3624 28.8468 12.2799C28.8049 12.0734 28.7022 11.945 28.5949 11.789C28.5016 11.656 28.4176 11.5276 28.371 11.3854C28.301 11.1973 28.1564 11.0413 28.0118 10.8854C27.8485 10.711 27.6899 10.5413 27.6432 10.3303C27.6432 10.3303 27.6292 10.2844 27.6432 10.2661C27.6572 10.2477 27.7039 10.2661 27.7039 10.2661C27.7785 10.3211 27.8578 10.3808 27.9278 10.4404C28.1657 10.6331 28.413 10.8303 28.7162 10.8716C28.9961 10.8991 29.304 10.9358 29.6026 10.9083C29.6819 10.8945 29.7239 10.8257 29.7052 10.7615C29.5839 10.5138 29.4626 10.2477 29.388 9.95875C29.3273 9.73856 29.1827 9.16517 29.3273 8.72939C29.3413 8.6881 29.3693 8.67434 29.3973 8.67434C29.3973 8.67434 29.402 8.67434 29.4067 8.67434C29.4533 8.68351 29.486 8.74315 29.4953 8.78902V8.84406C29.5419 9.43581 29.5839 9.99544 29.9478 10.4725C30.0458 10.6285 30.1857 10.7065 30.321 10.7844C30.4143 10.8395 30.5216 10.8899 30.5916 10.9725C30.6709 11.0688 30.6802 11.234 30.6289 11.3349L30.1764 11.9909C30.0691 12.1422 29.9665 12.2982 29.9291 12.4633C29.8965 12.6285 29.9105 12.789 29.9291 12.945V12.9817C29.9291 12.9817 29.9058 12.9588 29.8965 12.945C29.7145 12.6193 29.6772 12.3487 29.7705 12.1376C29.8312 12 30.1997 11.4863 30.3024 11.3211C30.335 11.2661 30.363 11.211 30.335 11.1743C30.2977 11.1285 30.0224 11.0138 29.9525 11.0138C29.9525 11.0138 29.9431 11.0138 29.9385 11.0138C29.8732 11.0321 29.8312 11.0918 29.7939 11.1422C29.7845 11.156 29.7752 11.1652 29.7659 11.1789L29.2107 12.1743L29.1967 12.211C29.1641 12.312 29.1361 12.3945 29.1641 12.5092C29.1967 12.6606 29.2434 12.8165 29.276 12.9358L29.304 13.0321C29.3553 13.2065 29.402 13.367 29.4766 13.4588C29.5233 13.5138 29.5933 13.5459 29.6679 13.5413C29.7099 13.5413 29.7519 13.5367 29.7939 13.5276C29.8638 13.5184 29.9385 13.5092 29.9945 13.523C30.0784 13.5459 30.1344 13.6055 30.1997 13.6698C30.2604 13.734 30.3257 13.8028 30.419 13.8303C30.5916 13.8854 30.7735 13.9358 30.9461 13.9771C31.1794 14.0367 31.4173 14.101 31.6459 14.1881C31.7765 14.2294 31.9118 14.2661 32.0471 14.2661C32.1964 14.2661 32.2897 14.2248 32.4157 14.1239C32.5976 13.9771 32.6536 13.8349 32.7002 13.6285C32.7375 13.4404 32.7982 13.4266 32.9381 13.4175C33.0035 13.4175 33.0175 13.4175 33.0828 13.3945C33.1527 13.3716 33.3533 13.1285 33.4606 12.9312C33.4886 12.8762 33.5213 12.8257 33.5493 12.7844C33.5773 12.7477 33.5913 12.7065 33.5913 12.6606C33.5913 12.5597 33.5073 12.5321 33.456 12.5321H33.4187C33.4187 12.5321 32.8262 12.5276 32.6629 12.5321C32.4203 12.5459 32.313 12.7753 32.229 12.9817C32.1964 13.0597 32.1637 13.1331 32.1264 13.1973C32.0611 13.312 31.9351 13.3808 31.7812 13.3762C31.7345 13.3762 31.6366 13.3487 31.5853 13.3349C31.2634 13.2569 30.9321 13.1789 30.7969 12.8624C30.7829 12.8074 30.7642 12.6973 30.8435 12.6055C31.0161 12.4129 31.24 12.1606 31.4733 11.9863C31.7952 11.9175 32.1171 11.6835 32.2944 11.3899C32.3317 11.3395 32.3503 11.2798 32.369 11.2202C32.397 11.1331 32.425 11.0459 32.509 10.9954C32.5603 10.9679 32.6023 10.9771 32.6116 11.023C32.6442 11.1881 32.5789 11.3441 32.5183 11.5C32.5043 11.5321 32.4903 11.5688 32.4763 11.6055L32.467 11.6331H32.495C32.5836 11.6422 32.6769 11.6468 32.7655 11.6468C33.0968 11.6468 33.4093 11.5918 33.7172 11.5367C34.0205 11.4817 34.333 11.4266 34.6549 11.4266C34.6876 11.4266 34.7249 11.4266 34.7575 11.4266C34.9022 11.4266 35.0421 11.4404 35.1774 11.4496C35.308 11.4587 35.448 11.4725 35.5833 11.4725C35.6299 11.4725 35.6766 11.4725 35.7232 11.4679C36.1384 11.4496 36.437 11.2661 36.5256 10.9725C36.6096 10.7248 36.6003 10.2936 36.4976 9.69269C36.493 9.66517 36.4883 9.64682 36.4883 9.64223V9.63306C36.4883 9.63306 36.4883 9.58719 36.521 9.57342C36.5583 9.55049 36.6003 9.57342 36.6189 9.62388C36.7775 10.0551 36.8662 10.5505 36.9128 10.8945C36.9641 11.2248 37.1088 11.5643 37.3467 11.9221C37.6406 12.3532 38.1304 12.6055 38.6809 12.6055C38.8115 12.6055 38.9375 12.5826 39.0681 12.5643C39.1568 12.5551 39.1894 12.5597 39.2501 12.5597C39.9545 12.5597 40.5656 12.8578 41.0228 13.4266C41.0228 13.4266 41.0321 13.4358 41.0321 13.4542C41.0321 13.4771 40.9948 13.5 40.9668 13.4909L40.9062 13.445C40.5096 13.1422 40.0991 12.8303 39.5859 12.7661C39.488 12.7477 39.3947 12.7432 39.2967 12.7432C39.1521 12.7432 39.0075 12.7569 38.8629 12.7753C38.7229 12.789 38.5876 12.8074 38.4523 12.8074C38.2937 12.8074 38.1351 12.7844 37.9858 12.7248C37.3933 12.5321 36.9082 11.8624 36.7542 11.445C36.7449 11.4221 36.7169 11.4037 36.6936 11.4037C36.6749 11.4037 36.6609 11.4083 36.6423 11.4175C36.5723 11.4587 36.5629 11.4817 36.5536 11.523C36.5443 11.5597 36.6003 11.8578 36.6283 11.9863C36.7076 12.3028 36.8242 12.7844 37.2441 12.9588C37.2954 12.9909 37.3467 13.023 37.4027 13.0551C37.6126 13.1881 37.8319 13.3257 38.0838 13.3257C38.1444 13.3257 38.2051 13.3165 38.2611 13.3028C38.4103 13.2707 38.5643 13.2523 38.7182 13.2523C39.2034 13.2523 39.7026 13.4175 40.1178 13.7156C40.1877 13.7569 40.2531 13.8074 40.3184 13.8624C40.407 13.9358 40.5003 14.0138 40.6123 14.0551C40.6822 14.0826 40.7569 14.0964 40.8362 14.0964C41.0228 14.0964 41.0741 14.0413 41.2094 13.9771C41.2607 13.9542 41.312 13.9404 41.368 13.9404C41.5173 13.9404 41.6013 14.0551 41.7086 14.2019C41.7739 14.289 41.8439 14.3899 41.9418 14.4771C42.0771 14.6101 42.2684 14.6239 42.4177 14.6239C42.5016 14.6239 42.581 14.6193 42.6649 14.6147C42.7442 14.6101 42.8375 14.6055 42.8842 14.601C42.9308 14.5964 42.9588 14.5872 42.9588 14.5872V14.5688V14.5734H42.9635ZM26.9295 12.3624C26.9015 12.4129 26.8362 12.4404 26.7475 12.4404C26.6729 12.4404 26.6029 12.4221 26.5423 12.3854C26.4303 12.3074 26.365 12.1743 26.3557 12C26.3557 11.9587 26.3557 11.9175 26.407 11.8808C26.435 11.867 26.449 11.867 26.4816 11.867C26.5889 11.867 26.7615 11.9358 26.8548 12.0459C26.8595 12.0551 27.0041 12.2386 26.9295 12.367V12.3624ZM27.0834 9.91746C27.0414 9.96792 26.9808 10.0046 26.9201 9.97709C26.8642 9.95875 26.8128 9.88535 26.7849 9.8303C26.7475 9.7615 26.7149 9.70186 26.6216 9.71104H26.6076C26.5283 9.71563 26.4676 9.75691 26.4023 9.80737C26.3697 9.83489 26.239 9.92664 26.2064 9.95416C26.0291 10.1009 25.8518 10.2523 25.8098 10.4542C25.8005 10.4909 25.7912 10.5276 25.7865 10.5643C25.7725 10.6376 25.7585 10.711 25.6979 10.7477C25.6979 10.7477 25.6792 10.7523 25.6699 10.7523C25.6419 10.7523 25.6139 10.7432 25.5952 10.7248C25.5719 10.7065 25.5579 10.6835 25.5579 10.656C25.5253 10.3028 25.6466 9.98627 25.8985 9.7615C26.0618 9.62847 26.1924 9.46333 26.3183 9.30278C26.379 9.2248 26.4443 9.14223 26.5096 9.06884C26.5609 9.01838 26.6402 9.05966 26.7755 9.20645C26.8315 9.26608 27.0088 9.56425 27.0881 9.75691C27.1067 9.80737 27.1021 9.86242 27.0788 9.90829L27.0834 9.91746ZM30.0458 5.82112C29.9758 5.88534 29.9058 5.94956 29.8358 6.01378C29.5839 6.23856 29.3227 6.4725 29.1547 6.73397C29.0754 6.83947 29.0148 6.96791 28.9541 7.08718C28.9495 7.10094 28.9355 7.12847 28.9075 7.12847C28.8935 7.12847 28.8795 7.11929 28.8702 7.11012C28.8235 7.06424 28.8608 6.72938 28.9261 6.56424C29.0661 6.19727 29.3787 5.81195 29.7892 5.5092C29.8358 5.48167 29.8872 5.46791 29.9431 5.46791C30.0224 5.46791 30.0784 5.50461 30.1064 5.56424C30.1577 5.64681 30.1391 5.73855 30.0504 5.82571L30.0458 5.82112ZM13.228 12.7982C13.214 12.7753 13.2 12.7477 13.186 12.7248C13.144 12.6468 13.1207 12.5643 13.1021 12.4954C13.0601 12.3532 13.0227 12.2248 12.8641 12.2477C12.6402 12.2799 12.4209 12.2936 12.1737 12.2936C12.1737 12.2936 12.0944 12.2936 12.0711 12.3441C12.0431 12.4037 12.1037 12.4633 12.1737 12.5184C12.211 12.5505 12.2483 12.5872 12.2763 12.6239C12.323 12.6881 12.365 12.7844 12.4069 12.8716C12.4723 13.0184 12.5329 13.1377 12.5982 13.1606C12.6309 13.1698 12.6589 13.1743 12.6915 13.1743C12.8455 13.1743 13.0554 13.0918 13.2093 12.9771C13.2933 12.9037 13.2653 12.8578 13.228 12.7936V12.7982ZM2.19033 12.5734L2.17634 12.5643C2.12968 12.5276 2.04571 12.5321 1.98973 12.5688C1.95241 12.5964 1.91042 12.6193 1.8731 12.6468C1.74714 12.7294 1.61652 12.812 1.48123 12.9266C1.42992 12.9679 1.40193 13.0459 1.39726 13.1055C1.39726 13.1514 1.39726 13.1927 1.42059 13.2156C1.42992 13.2294 1.53255 13.3349 1.55121 13.3532C1.5932 13.3899 1.65384 13.4129 1.70982 13.4129C1.75647 13.4129 1.80313 13.3991 1.84511 13.3762C2.0877 13.2569 2.33962 12.812 2.34895 12.7844C2.37227 12.711 2.29296 12.6468 2.18567 12.5643L2.19033 12.5734ZM1.38793 13.6239C1.33661 13.5551 1.17333 13.3624 1.08003 13.3624C1.0707 13.3624 1.06604 13.3624 1.05671 13.367C0.926083 13.4175 0.776799 13.5826 0.767469 13.6835C0.734813 14.1147 0.720818 14.1606 0.60419 14.2936C0.571534 14.3303 0.548208 14.4175 0.585529 14.4542C0.618185 14.4863 1.04738 14.6193 1.09869 14.6193H1.10802C1.14534 14.6055 1.178 14.5092 1.26664 14.211C1.31329 14.0505 1.3646 13.8716 1.42525 13.7065C1.42525 13.6973 1.42525 13.6789 1.3926 13.6239H1.38793Z" fill="#B9C8DE"/>
<path d="M14.552 13.5965C14.7293 13.5827 14.9112 13.5689 15.0419 13.4359C15.2051 13.202 15.3451 12.968 15.4664 12.7203C15.5784 12.4955 15.5784 12.2799 15.4664 12.1102C15.1398 11.601 15.0839 11.4634 14.9532 11.1194V11.1102H14.9392C14.9019 11.0965 14.8646 11.0873 14.8273 11.0689C14.748 11.0368 14.664 11.0047 14.5707 11.0047H14.5567C14.4447 11.0047 14.3701 11.0414 14.3374 11.1056V11.1148L14.9206 12.257C14.9579 12.3442 14.9999 12.4359 14.9766 12.5689C14.9532 12.702 14.664 13.1515 14.58 13.2065C14.566 13.2203 14.5474 13.2249 14.5287 13.2295C14.524 13.2295 14.4914 13.2249 14.51 13.1561C14.566 12.9726 14.636 12.5322 14.6173 12.3946C14.594 12.2341 14.1042 11.4313 14.0809 11.3946L14.0715 11.3809C13.9969 11.257 13.9176 11.1331 13.9222 10.9818C13.9222 10.913 13.9875 10.8671 14.0342 10.8487C14.1182 10.8166 14.2021 10.8029 14.2908 10.7845C14.5007 10.7387 14.7153 10.6928 14.7946 10.5781C15.0279 10.2249 15.1725 9.85792 15.2658 9.34874C15.2658 9.32581 15.2845 9.28452 15.3171 9.28452C15.3358 9.28452 15.3544 9.28911 15.3638 9.33498C15.4524 9.82122 15.3358 10.3212 15.0419 10.7249C15.0232 10.757 15.0139 10.7983 15.0185 10.835C15.0232 10.8763 15.0699 10.9084 15.0699 10.9084C15.1818 10.9864 15.597 10.9405 15.8956 10.7845C16.1242 10.7891 16.3388 10.7478 16.5487 10.7111C16.614 10.6974 16.6793 10.6882 16.7446 10.6744C16.7633 10.6836 16.782 10.7065 16.7866 10.7203C16.6093 10.913 16.502 11.1331 16.4507 11.4084C16.3994 11.4588 16.3481 11.5047 16.2968 11.5552C16.1055 11.7295 15.9002 11.9221 15.8863 12.1698C15.8863 12.1698 15.8816 12.257 15.9796 12.2662C16.0075 12.2662 16.0449 12.2524 16.0775 12.2387C16.1102 12.2249 16.1428 12.2157 16.1802 12.2111C16.2128 12.2111 16.2361 12.2387 16.2361 12.2708L16.0169 12.5873C15.9329 12.7203 15.9702 12.8579 16.0029 12.9955C16.0262 13.0689 16.0169 13.1286 16.0355 13.1928C16.0915 13.3487 16.2875 13.4221 16.4414 13.4221C16.726 13.4084 16.9872 13.3166 17.2391 13.2295C17.2858 13.2157 17.3278 13.1974 17.3744 13.1836C17.6497 13.0643 18.0182 13.0414 18.4567 13.1102C18.8066 13.0873 19.0725 12.8579 19.3291 12.6377C19.4411 12.6377 19.553 12.7065 19.6697 12.8304C20.0522 13.2341 20.5187 13.4267 21.0972 13.4267H21.2232C21.2838 13.4084 21.2978 13.3809 21.3025 13.3442C21.3025 13.2983 21.2698 13.257 21.2092 13.2249L20.8826 13.0552C20.6214 12.8946 20.3414 12.6974 20.2621 12.4405C20.1782 12.1653 20.0196 11.8854 19.9029 11.702C19.8796 11.6653 19.8516 11.6286 19.8283 11.5919C19.7816 11.5276 19.735 11.4588 19.7023 11.39C20.0569 11.5139 20.2528 11.7708 20.4954 12.1974C20.6727 12.5139 21.1345 12.8579 21.573 12.8579C21.629 12.8579 21.685 12.8533 21.741 12.8396C21.7876 12.8304 21.8203 12.7983 21.825 12.7616C21.825 12.7249 21.825 12.6928 21.7876 12.6744L21.5217 12.546C21.2092 12.3625 21.0272 12.0643 20.8499 11.7754C20.78 11.6607 20.71 11.546 20.6307 11.4359C20.5794 11.3625 20.4954 11.2845 20.4161 11.2203C20.3508 11.1607 20.2855 11.1056 20.2761 11.0735C19.9869 10.3029 19.6743 9.39461 19.5997 8.39002C19.5904 8.23865 19.4784 7.8992 19.3478 7.67901C18.9372 7.02305 17.9622 5.90837 17.9109 5.85332C17.8783 5.81663 17.8409 5.78452 17.8083 5.75241L17.7803 5.72488L16.0262 4.2891C15.6763 4.04598 15.5737 4.0047 15.3171 3.91754C15.1398 3.85791 14.9532 3.83038 14.7666 3.83038C14.5194 3.83038 14.2675 3.87625 14.0669 3.96341C13.9269 4.03681 13.7916 4.12396 13.6563 4.20653C13.4324 4.34873 13.1991 4.49552 12.9472 4.57809C12.7513 4.66525 12.5367 4.72947 12.3361 4.7891C11.9396 4.90837 11.5244 5.03681 11.1978 5.33039C11.1045 5.41754 11.0252 5.48635 10.9599 5.55057C10.6567 5.83039 10.6287 5.85791 10.3814 5.85791C9.8076 5.85791 9.4064 5.99552 8.98187 6.33497C8.64598 6.63314 8.31943 6.91296 7.93222 7.04599C7.75961 7.10562 7.56834 7.12855 7.36308 7.1469C7.06917 7.17443 7.02719 7.17443 6.75194 7.23865C6.33675 7.33039 5.89356 7.66984 5.52035 7.95424C5.39906 8.04599 5.23578 8.16984 5.15647 8.2203C5.11449 8.24782 5.06784 8.27535 5.03051 8.29828C4.564 8.56434 4.13015 8.81663 3.56567 8.81663H3.52368C3.10382 8.78452 2.72128 8.5047 2.59532 8.12856C2.47869 7.70654 2.60465 7.27076 2.94521 6.93589C3.10848 6.77534 3.29042 6.62397 3.4677 6.47259C3.75694 6.23406 4.02751 6.0047 4.21412 5.75699C4.43338 5.468 4.41005 4.98176 4.1628 4.71571C3.91555 4.44965 3.36973 4.32121 3.16447 4.27075L3.12714 4.26158C3.12714 4.26158 3.07116 4.2524 3.0525 4.24781C2.92188 4.22029 2.79592 4.20653 2.66996 4.17442C2.3434 4.08726 2.09149 3.83956 1.80225 3.68359C1.69029 3.85332 1.65297 4.03222 1.66696 4.23864C1.72294 4.66525 2.08682 5.1102 2.48802 5.29369C2.50668 5.29828 2.52068 5.30745 2.53934 5.31204C2.6653 5.36708 2.80059 5.37626 2.92654 5.37626H3.08982C3.16913 5.37626 3.26243 5.37626 3.34641 5.39919C3.43504 5.42672 3.50502 5.50011 3.51435 5.59185C3.51901 5.6469 3.49569 5.69277 3.42105 5.74782L3.21578 5.91296C2.87056 6.19277 2.51135 6.48635 2.21745 6.83956C1.82558 7.25241 1.80692 7.97259 1.99352 8.44048C2.22678 9.05516 2.8659 9.3992 3.40239 9.46801C3.49569 9.48177 3.59366 9.49094 3.69162 9.49094C4.00419 9.49094 4.30276 9.41755 4.59666 9.34416C4.60599 9.34416 4.61532 9.34416 4.62465 9.34416C4.63864 9.34416 4.66197 9.34415 4.66664 9.40838C4.67597 9.53682 4.68063 9.67902 4.68996 9.82122C4.69929 10.0506 4.71329 10.2616 4.72728 10.3533C4.7646 10.5552 4.86724 10.8029 4.93721 10.9634C4.9652 11.0322 4.98853 11.0873 4.99319 11.1148C5.02118 11.2065 4.99319 11.3075 4.93255 11.3625C4.71329 11.5598 4.26543 11.7157 4.18146 11.7295C4.05084 11.7432 3.91089 11.7524 3.80359 11.757C3.75227 11.757 3.71029 11.7616 3.69162 11.7662C3.64497 11.7708 3.60299 11.7891 3.57033 11.8212C3.50502 11.8809 3.43971 12.0552 3.3604 12.2524C3.31375 12.3717 3.26243 12.5001 3.21112 12.601C3.07116 12.8304 2.83791 12.9634 2.60932 13.0919C2.55333 13.124 2.49735 13.1561 2.44137 13.1928H2.43671C2.3434 13.3442 2.2501 13.4818 2.12881 13.5873C2.03551 13.6744 1.91421 13.6928 1.79759 13.7065H1.78359C1.60632 13.913 1.55033 14.179 1.49435 14.4359C1.48502 14.4772 1.47569 14.5139 1.46636 14.5552L1.45703 14.5919H1.48036C1.57366 14.601 1.66696 14.624 1.76493 14.6423C1.89555 14.6699 2.03084 14.6974 2.16146 14.6974C2.29209 14.6974 2.39472 14.6699 2.49269 14.6194C2.66063 14.5414 2.75394 14.39 2.84257 14.2432C2.89855 14.1469 2.9592 14.046 3.04317 13.968C3.08982 13.9176 3.15514 13.89 3.22511 13.89C3.29042 13.89 3.36507 13.9084 3.43504 13.9267C3.50035 13.9451 3.56567 13.9634 3.62631 13.9634C3.93888 13.9818 4.23744 13.7891 4.38206 13.6744C4.44737 13.624 4.50802 13.5643 4.56867 13.5093C4.66197 13.4221 4.75994 13.3304 4.86724 13.2662C4.99319 13.2065 5.14714 13.179 5.33841 13.179C5.57633 13.179 5.82359 13.2249 6.02419 13.2616C6.13148 13.2891 6.23878 13.3029 6.34608 13.3029C6.52335 13.3029 6.70063 13.2616 6.85924 13.179C7.03185 13.0827 7.20913 12.991 7.34908 12.9176C7.43305 12.8763 7.50303 12.8396 7.55901 12.8075C7.81093 12.6744 8.02086 12.2983 8.10016 12.1423C8.17481 11.9955 8.30076 11.6836 8.30076 11.6836V11.6698L8.01619 11.4497L8.00686 11.468C8.00686 11.468 7.81093 11.7799 7.68963 11.9267C7.17647 12.6148 6.33675 12.702 5.66497 12.702C5.61832 12.702 5.57167 12.702 5.52502 12.702C4.69463 12.702 4.02285 12.9772 3.52835 13.5185C3.50502 13.546 3.46303 13.5506 3.44904 13.5276C3.43971 13.5139 3.43504 13.4955 3.44437 13.468C3.4537 13.4176 3.47236 13.3717 3.50035 13.3304C4.02285 12.601 4.91389 12.4955 5.63232 12.4818C6.16414 12.4451 6.55134 12.3579 6.88257 12.1882C7.31176 11.9726 7.62899 11.4955 7.75961 11.1194C7.84358 10.8717 7.8809 10.6056 7.92289 10.3533C7.95555 10.1515 7.9882 9.94049 8.03952 9.74783C8.04885 9.72489 8.07217 9.70654 8.10016 9.70654C8.10483 9.70654 8.1095 9.70654 8.11883 9.71113C8.14682 9.71572 8.19813 9.73406 8.19813 9.77535C8.12349 10.1744 8.02552 10.7249 8.21213 11.1836C8.30076 11.3625 8.4827 11.4543 8.77661 11.4543C8.95388 11.4543 9.14982 11.4221 9.33642 11.3946C9.48104 11.3717 9.62099 11.3487 9.73762 11.3442C9.78894 11.3396 9.84025 11.3396 9.89157 11.3396C10.1248 11.3396 10.3534 11.3854 10.568 11.4267C10.7593 11.4634 10.9552 11.5047 11.1558 11.5139C11.1931 11.5139 11.2305 11.5185 11.2724 11.5231C11.3424 11.5276 11.4124 11.5322 11.487 11.5322C11.6597 11.5322 11.7809 11.5001 11.8649 11.4267C11.9256 11.3763 11.9069 11.3029 11.8789 11.2111V11.1928C11.8789 11.1928 11.8649 11.1607 11.8556 11.1423C11.8183 11.0185 11.7576 10.8304 11.8556 10.7432C11.8696 10.7341 11.8929 10.7249 11.9116 10.7249C11.9256 10.7249 11.9489 10.7295 11.9582 10.757L11.9909 10.8671C12.0329 11.0185 12.0795 11.1744 12.1775 11.3029C12.3827 11.5598 12.7 11.8029 13.0918 12.0047C13.3438 12.1744 13.6517 12.4634 13.675 12.8671C13.675 13.0506 13.493 13.1744 13.3624 13.257C13.1525 13.3625 12.7886 13.4772 12.6207 13.4772C12.5973 13.4772 12.574 13.4772 12.5554 13.468C12.3081 13.3396 12.1821 13.1332 12.0515 12.9084C11.9815 12.7891 11.9022 12.6698 11.8136 12.5643C11.6876 12.4267 11.5244 12.3717 11.3051 12.39C11.0952 12.4038 10.9039 12.4451 10.6706 12.4955C10.624 12.5047 10.5867 12.5322 10.568 12.5735C10.5494 12.624 10.554 12.679 10.582 12.7249C10.7033 12.9359 10.8153 13.124 10.9366 13.3258L10.9925 13.4176C11.0205 13.468 11.0858 13.4726 11.1372 13.4726C11.1651 13.4726 11.1931 13.4726 11.2258 13.468C11.2585 13.468 11.2958 13.4634 11.3331 13.4634C11.4404 13.4634 11.5057 13.491 11.5524 13.5414C11.5897 13.5965 11.6223 13.6561 11.655 13.7111C11.7343 13.8533 11.8183 14.0001 11.9582 14.1056C12.0842 14.2157 12.2661 14.2754 12.4574 14.2754C12.5414 14.2754 12.6207 14.2616 12.7 14.2387C13.2505 14.0689 13.7869 13.8946 14.2954 13.624C14.2954 13.624 14.496 13.624 14.5754 13.6148L14.552 13.5965ZM15.4664 7.52764C15.4571 7.55975 15.4337 7.58268 15.4104 7.58268C15.4011 7.58268 15.3731 7.5781 15.3684 7.53681C15.2751 7.07351 15.2238 6.84874 15.1118 6.63314C15.0792 6.56433 15.0325 6.50929 14.9952 6.45883C14.9159 6.35332 14.8459 6.26158 14.9252 6.13773C14.9486 6.10103 15.0045 6.07809 15.0652 6.07809C15.0978 6.07809 15.1212 6.08268 15.1492 6.09644C15.2378 6.13773 15.3264 6.24782 15.4197 6.42672C15.6437 6.88085 15.4664 7.52305 15.4664 7.53222V7.52764ZM18.4194 12.1286C18.4194 12.1286 18.4054 12.257 18.3448 12.3166C18.2841 12.3717 18.0602 12.4038 17.9389 12.3992C17.8223 12.3946 17.7803 12.3763 17.757 12.3442C17.729 12.3029 17.7756 12.2249 17.7756 12.2249C17.7896 12.1974 17.9296 11.9176 18.2048 11.8396C18.2048 11.8396 18.2935 11.8075 18.3774 11.8487C18.4614 11.89 18.4241 12.101 18.4194 12.1286ZM19.2218 10.312C19.2125 10.3763 19.1938 10.4405 19.1658 10.4955C19.1518 10.5231 19.1285 10.5781 19.0445 10.5781C18.9559 10.5781 18.9606 10.4772 18.9606 10.4634C18.9606 10.4634 18.9512 10.179 18.8953 10.0598C18.8346 9.93131 18.5454 9.56434 18.3774 9.5781C18.3354 9.5781 18.2235 9.64691 18.1442 9.74783C18.0462 9.87168 18.0462 9.89003 18.0135 9.90838C17.9809 9.92672 17.9436 9.91755 17.9296 9.84416C17.9156 9.77076 17.9016 9.71113 17.9389 9.56893C17.9762 9.42672 18.0089 9.39461 18.0509 9.2937C18.0509 9.2937 18.1395 9.09645 18.1722 9.04599C18.2608 8.91296 18.3821 8.92214 18.3821 8.92214C18.4147 8.92214 18.5174 8.91296 18.6293 9.04599C18.76 9.20654 18.732 9.19278 18.7646 9.24782C18.802 9.30287 18.8393 9.3625 18.9466 9.47718C19.0539 9.59186 19.1705 9.81205 19.2032 9.94966C19.2358 10.0873 19.2358 10.2065 19.2171 10.312H19.2218Z" fill="#B9C8DE"/>
</svg>
