<svg width="88" height="21" viewBox="0 0 88 21" fill="none" xmlns="http://www.w3.org/2000/svg">
<path fill-rule="evenodd" clip-rule="evenodd" d="M18.4802 12.3865C20.2528 12.3865 22.8038 12.0247 22.8038 9.93735C22.8038 9.77036 22.8038 9.61265 22.7663 9.46421L21.7159 4.93694C21.472 3.93501 21.2563 3.48042 19.4837 2.61764C18.1144 1.92186 15.1131 0.771484 14.2409 0.771484C13.4249 0.771484 13.1717 1.82908 12.1963 1.82908C11.2209 1.82908 10.555 1.04052 9.66398 1.04052C8.77298 1.04052 8.25713 1.60643 7.83508 2.79391C7.83508 2.79391 6.65333 6.11515 6.50327 6.60684C6.48451 6.69961 6.46576 6.79238 6.46576 6.8666C6.46576 8.14685 11.596 12.3772 18.4802 12.3958M23.0946 10.7908C23.3384 11.9412 23.3384 12.0525 23.3384 12.201C23.3384 14.1585 21.1062 15.2532 18.1894 15.2532C11.5773 15.2532 5.78111 11.4217 5.78111 8.8983C5.78111 8.53649 5.85614 8.20251 5.98744 7.87781C3.6052 7.97058 0.519531 8.38806 0.519531 11.0877C0.519531 15.5037 11.0614 20.9123 19.4368 20.9123C25.8426 20.9123 27.4652 18.0456 27.4652 15.782C27.4464 14.01 25.8989 11.9876 23.0946 10.7816" fill="#B9C8DE"/>
<path fill-rule="evenodd" clip-rule="evenodd" d="M82.4727 13.6859C82.4727 15.3465 83.4856 16.1536 85.3332 16.1536C85.9054 16.1351 86.4587 16.0609 87.012 15.931V14.0106C86.665 14.1219 86.2899 14.1776 85.9241 14.1776C85.1644 14.1776 84.8737 13.9549 84.8737 13.2313V10.2719H87.0871V8.29585H84.8924V5.7539L82.4914 6.26414V8.25874H80.8876V10.2348H82.4727V13.6859ZM74.9789 13.723C74.9789 13.2128 75.4947 12.953 76.292 12.953C76.7703 12.953 77.2486 13.0087 77.7175 13.12V14.1219C77.258 14.3631 76.7421 14.5023 76.2075 14.5023C75.4291 14.5023 74.9695 14.224 74.9695 13.7323L74.9789 13.723ZM75.7011 16.1722C76.5546 16.1722 77.2298 16.0052 77.877 15.5692V16.0423H80.2592V11.0419C80.2592 9.14007 78.9649 8.10103 76.8078 8.10103C75.6073 8.10103 74.4068 8.37934 73.1313 8.94525L73.9847 10.6986C74.9039 10.3183 75.6823 10.0771 76.367 10.0771C77.3611 10.0771 77.877 10.4574 77.877 11.246V11.6264C77.2861 11.4779 76.6952 11.4037 76.0856 11.4037C74.0691 11.4037 72.8405 12.2479 72.8405 13.7416C72.8405 15.1331 73.9472 16.1907 75.7011 16.1722ZM62.6175 16.0609H65.1686V12.0253H69.4547V16.0609H72.0246V5.74462H69.4735V9.70598H65.1873V5.74462H62.6362L62.6175 16.0609ZM52.8728 12.1552C52.8728 11.0419 53.7732 10.1791 54.9362 10.1791C55.5458 10.1606 56.1367 10.3832 56.5962 10.7821V13.5004C56.1367 13.9178 55.5458 14.1405 54.9362 14.1219C53.7919 14.1219 52.8728 13.2777 52.8728 12.1644V12.1552ZM56.6525 16.0609H59.0347V5.23438L56.6337 5.74462V8.66694C56.0241 8.32368 55.3395 8.13814 54.636 8.15669C52.3476 8.15669 50.5374 9.91008 50.5374 12.1366V12.1923C50.5374 14.3631 52.3476 16.1536 54.5422 16.1536H54.561C55.3207 16.1536 56.071 15.931 56.6806 15.4764L56.6619 16.0609H56.6525ZM45.7261 10.0678C46.4858 10.0678 47.1141 10.5595 47.3861 11.3109H44.1035C44.3286 10.5409 44.9195 10.0678 45.7261 10.0678ZM41.665 12.1644C41.665 14.4281 43.5314 16.2 45.9511 16.2C47.2642 16.2 48.2396 15.8382 49.2525 15.0311L47.6487 13.6395C47.2642 14.0199 46.7296 14.224 46.0637 14.224C45.229 14.2425 44.4412 13.7508 44.1223 12.9808H49.7308V12.3964C49.7308 9.92863 48.052 8.13813 45.7636 8.13813H45.7073C43.4939 8.13813 41.665 9.94719 41.665 12.1366V12.1737V12.1644ZM37.5101 7.92476C38.3636 7.92476 38.8232 8.45356 38.8232 9.09369C38.8232 9.73381 38.3448 10.2626 37.5101 10.2626H34.9778V7.94331L37.5101 7.92476ZM32.4174 16.0516H34.9684V12.2943H36.9286L38.8888 16.0516H41.7494L39.4609 11.9232C40.6427 11.4501 41.4211 10.2997 41.4211 9.01947C41.4211 7.17331 39.9486 5.73534 37.7446 5.73534H32.408V16.0516H32.4174Z" fill="#B9C8DE"/>
</svg>
