<svg width="66" height="17" viewBox="0 0 66 17" fill="none" xmlns="http://www.w3.org/2000/svg">
<path d="M24.0321 14.1009C23.5883 14.1009 23.1537 14.0552 22.7192 13.9638C22.3124 13.8815 21.9149 13.726 21.5543 13.4974C21.2122 13.2779 20.9163 12.9761 20.7037 12.6194C20.4818 12.2536 20.3986 11.6958 20.3986 11.6683C20.3709 11.522 20.4171 11.3757 20.5096 11.2659C20.602 11.1562 20.7407 11.0922 20.8886 11.1013H22.0628C22.3494 11.1013 22.599 11.3208 22.6452 11.6135C22.6452 11.6318 22.673 11.6683 22.7192 11.7598C22.7932 11.897 22.9041 12.0158 23.0336 12.1164C23.1722 12.217 23.3202 12.2811 23.4866 12.3268C23.6715 12.3725 23.8564 12.3999 24.0413 12.3999C24.1892 12.3999 24.3279 12.3817 24.4666 12.3542C24.6053 12.3268 24.7347 12.2719 24.8549 12.2079C24.9659 12.1439 25.0583 12.0616 25.1323 11.9518C25.2062 11.8421 25.2432 11.7049 25.2339 11.5677C25.2339 11.4763 25.234 11.1928 24.707 10.9916C24.3094 10.8361 23.3941 10.6166 23.3849 10.6166L22.6175 10.4246C22.6175 10.4246 22.3956 10.3697 22.109 10.2691C21.8224 10.1777 21.5543 10.0496 21.3047 9.87589C21.0643 9.71128 20.8609 9.50094 20.713 9.24488C20.5558 8.96138 20.4818 8.6413 20.4911 8.31207C20.4911 7.7908 20.5928 7.35184 20.7962 7.01347C20.9903 6.68424 21.2677 6.40989 21.6005 6.2087C21.9426 6.0075 22.3124 5.87033 22.6915 5.80631C23.0983 5.73315 23.5051 5.69657 23.9119 5.69657C24.3187 5.69657 24.7255 5.73315 25.1323 5.81546C25.5113 5.88862 25.8812 6.03494 26.214 6.23613C26.5376 6.43732 26.8057 6.71168 27.0091 7.0409C27.157 7.30611 27.2587 7.58961 27.3142 7.88225C27.3419 8.02858 27.3142 8.1749 27.2217 8.28464C27.1293 8.39438 26.9906 8.4584 26.8519 8.4584H25.6777C25.3726 8.44925 25.1138 8.24806 25.0398 7.95541C24.9936 7.80909 24.8919 7.69021 24.7625 7.61704C24.4851 7.47987 24.18 7.40671 23.8656 7.41585C23.7455 7.41585 23.6253 7.41585 23.5051 7.43414C23.3941 7.44329 23.2832 7.47072 23.1722 7.51645C23.089 7.55303 23.0058 7.61704 22.9503 7.69021C22.8949 7.77251 22.8579 7.87311 22.8671 7.9737C22.8671 8.11088 22.9226 8.23891 23.0243 8.32122C23.163 8.44011 23.3294 8.53156 23.5051 8.58643C23.7454 8.66873 23.9951 8.73275 24.2355 8.78762L25.0953 8.97967C25.4004 9.05283 25.6962 9.13513 25.9921 9.23573C26.2787 9.33633 26.5468 9.4735 26.7964 9.64726C27.0368 9.82102 27.231 10.0496 27.3789 10.3057C27.5361 10.6075 27.61 10.9459 27.6008 11.2842C27.6378 12.1805 27.194 13.031 26.4543 13.5065C26.103 13.7351 25.7147 13.8906 25.3079 13.9638C24.8826 14.0461 24.4573 14.0918 24.0228 14.0918L24.0321 14.1009ZM33.9524 13.9089C33.6565 13.9089 33.4069 13.662 33.4069 13.351V9.81187L33.3699 9.01625C33.3514 8.83335 33.2775 8.29378 33.1388 8.06516C32.9724 7.79995 32.6765 7.66277 32.2327 7.66277C31.715 7.66277 31.3544 7.80909 31.1233 8.12003C30.9384 8.37609 30.8367 9.08026 30.8089 9.32718L30.772 10.1228V13.351C30.772 13.662 30.5316 13.9089 30.2265 13.9089H28.9506C28.6548 13.9089 28.4051 13.662 28.4051 13.351V3.53832C28.4051 3.23653 28.6455 2.98047 28.9506 2.98047H30.2265C30.5223 2.98047 30.772 3.22739 30.772 3.53832V6.7574L30.7997 6.72997C30.7997 6.72997 31.1788 6.24528 31.6133 6.02579C32.0016 5.8246 32.4361 5.71486 32.8707 5.70571C33.4439 5.70571 33.9154 5.78802 34.2945 5.95263C34.6458 6.09896 34.9601 6.33673 35.1913 6.63852C35.4224 6.9586 35.5703 7.31526 35.6443 7.69935C35.6997 8.00114 35.7367 8.31207 35.7552 8.62301L35.7737 9.43692V13.3602C35.7737 13.6711 35.5333 13.918 35.2283 13.918H33.9524V13.9089Z" fill="#B9C8DE"/>
<path d="M36.9494 4.47119C36.9494 4.78212 37.1897 5.02904 37.4948 5.02904H38.7707C39.0666 5.02904 39.3162 4.77298 39.3162 4.47119V3.53838C39.3162 3.39206 39.2607 3.24574 39.159 3.14514C39.0573 3.04455 38.9186 2.98053 38.7707 2.98053H37.4948C37.199 2.98053 36.9494 3.22745 36.9494 3.53838V4.47119ZM36.9494 13.3602C36.9494 13.6712 37.1897 13.9181 37.4948 13.9181H38.7707C39.0666 13.9181 39.3162 13.662 39.3162 13.3602V6.47397C39.3162 6.32765 39.2607 6.18132 39.159 6.08073C39.0573 5.98013 38.9186 5.91612 38.7707 5.91612H37.4948C37.199 5.91612 36.9494 6.16303 36.9494 6.47397V13.3602ZM40.4903 16.0489C40.4903 16.3598 40.7308 16.6068 41.0359 16.6068H42.3117C42.6075 16.6068 42.8572 16.3598 42.8572 16.0581V13.1773L42.8849 13.2139C43.0976 13.4517 43.3564 13.6529 43.6338 13.8084C44.0591 14.0095 44.5214 14.1101 44.9836 14.1101C45.5106 14.1193 46.0283 14.0004 46.4999 13.7626C46.9251 13.5431 47.295 13.2231 47.5816 12.839C47.8774 12.4457 48.0901 11.9976 48.2288 11.5221C48.3675 11.0282 48.4414 10.507 48.4414 9.99484C48.4414 9.45528 48.3767 8.90657 48.2288 8.3853C48.0993 7.89146 47.8774 7.42506 47.5816 7.01353C47.2857 6.62029 46.9067 6.29107 46.4721 6.06244C45.9821 5.81552 45.4274 5.68749 44.8727 5.70578C44.4104 5.70578 43.9481 5.80637 43.5228 6.00757C43.227 6.17218 42.9681 6.38252 42.7647 6.64773L42.7462 6.66602V6.47397C42.7462 6.16303 42.5059 5.91612 42.2008 5.91612H41.0266C40.7307 5.91612 40.4811 6.16303 40.4811 6.47397V16.0581L40.4903 16.0489ZM43.6523 7.80001C43.8834 7.66283 44.1515 7.59882 44.4289 7.60796C44.697 7.60796 44.9559 7.66283 45.187 7.80001C45.3904 7.92804 45.5661 8.11094 45.7048 8.32128C45.8434 8.54991 45.9452 8.80597 46.0006 9.07118C46.0653 9.36383 46.0931 9.65647 46.0931 9.94911C46.0931 10.2418 46.0653 10.5344 46.0099 10.827C45.9636 11.0831 45.8712 11.33 45.7325 11.5587C45.6031 11.7598 45.4367 11.9336 45.224 12.0616C44.5121 12.4366 43.6338 12.2263 43.1623 11.5587C43.0236 11.33 42.9312 11.0831 42.8757 10.827C42.811 10.5435 42.7832 10.2418 42.7832 9.94911C42.7832 9.64733 42.811 9.35468 42.8664 9.05289C42.9127 8.79683 43.0051 8.54077 43.1438 8.31214C43.2732 8.1018 43.4489 7.92804 43.6523 7.80001ZM49.0239 16.0489C49.0239 16.3598 49.2643 16.6068 49.5694 16.6068H50.8452C51.1411 16.6068 51.3907 16.3598 51.3907 16.0581V13.1773L51.4184 13.2139C51.6311 13.4517 51.89 13.6529 52.1673 13.8084C52.5926 14.0095 53.0548 14.1101 53.5171 14.1101C54.0441 14.1193 54.5711 14.0004 55.0426 13.7626C55.4679 13.534 55.8377 13.2231 56.1243 12.839C56.4202 12.4457 56.6328 11.9976 56.7715 11.5221C56.9102 11.0282 56.9841 10.507 56.9841 9.99484C56.9841 9.45528 56.9194 8.90657 56.7715 8.3853C56.6421 7.89146 56.4202 7.42506 56.1151 7.01353C55.8192 6.62029 55.4402 6.29107 55.0057 6.06244C54.5157 5.81552 53.9609 5.68749 53.4062 5.70578C52.9439 5.70578 52.4817 5.80637 52.0564 6.00757C51.7605 6.17218 51.5016 6.38252 51.289 6.64773L51.2705 6.66602V6.47397C51.2705 6.17218 51.0301 5.91612 50.725 5.91612H49.5509C49.255 5.91612 49.0054 6.16303 49.0054 6.47397V16.0581L49.0239 16.0489ZM52.1858 7.80001C52.4169 7.66283 52.6851 7.59882 52.9624 7.60796C53.2305 7.59882 53.4987 7.66283 53.7298 7.80001C53.9332 7.93719 54.1088 8.11094 54.2383 8.32128C54.377 8.54991 54.4787 8.80597 54.5341 9.07118C54.5989 9.36383 54.6266 9.65647 54.6266 9.94911C54.6266 10.2418 54.5989 10.5344 54.5434 10.827C54.4972 11.0831 54.4047 11.33 54.266 11.5587C53.8222 12.2628 52.9162 12.4823 52.2135 12.0525C52.0101 11.9336 51.8345 11.7598 51.7051 11.5587C51.5664 11.33 51.4739 11.0831 51.4184 10.827C51.3537 10.5435 51.326 10.2418 51.326 9.94911C51.326 9.64733 51.3537 9.35468 51.4092 9.05289C51.4554 8.78768 51.5479 8.54077 51.6865 8.31214C51.816 8.1018 51.9824 7.92804 52.195 7.80001H52.1858ZM59.878 13.8175C60.4049 14.0187 60.9689 14.1193 61.5329 14.1101C62.0969 14.1101 62.6608 14.0187 63.1971 13.8175C63.6778 13.6346 64.1216 13.342 64.4822 12.967C64.8428 12.5829 65.1201 12.1348 65.305 11.641C65.4992 11.0923 65.6009 10.507 65.5916 9.92168C65.5916 9.33639 65.4992 8.7511 65.305 8.19325C64.9537 7.18729 64.1863 6.39166 63.2063 6.00757C62.1339 5.60518 60.9504 5.60518 59.8872 6.00757C58.9072 6.39166 58.1491 7.18729 57.7977 8.19325C57.6036 8.7511 57.5019 9.33639 57.5111 9.92168C57.5111 10.507 57.6036 11.0923 57.7977 11.641C57.9734 12.1348 58.2508 12.5829 58.6206 12.967C58.9812 13.3328 59.4157 13.6255 59.8965 13.8175H59.878ZM60.2293 8.30299C60.5066 7.83659 61.0059 7.57138 61.5421 7.59882C61.8195 7.59882 62.1061 7.66283 62.3465 7.80001C62.5591 7.92804 62.7348 8.1018 62.8643 8.31214C63.0029 8.54077 63.0954 8.78768 63.1416 9.05289C63.1971 9.34554 63.2248 9.63818 63.2248 9.93082C63.2248 10.2235 63.1971 10.5161 63.1416 10.7996C63.0954 11.0648 62.9937 11.3117 62.8643 11.5404C62.7348 11.7507 62.5591 11.9153 62.3465 12.0433C62.0968 12.1805 61.8195 12.2445 61.5421 12.2354C61.2648 12.2445 60.9874 12.1805 60.747 12.0525C60.5344 11.9245 60.3587 11.7507 60.2385 11.5495C60.0999 11.3209 60.0074 11.074 59.9612 10.8088C59.9057 10.5253 59.878 10.2326 59.878 9.93997C59.878 9.64733 59.9057 9.35468 59.9612 9.06204C60.0074 8.80597 60.0999 8.54991 60.2385 8.32128L60.2293 8.30299ZM16.9608 3.93163C17.4231 4.30658 17.7929 4.79127 18.0148 5.34912C18.2182 5.8521 18.3106 6.39166 18.2736 6.93122C18.2367 7.44335 18.0795 7.93719 17.8022 8.37615C17.5155 8.83341 17.1272 9.19921 16.665 9.46442C16.4061 9.6016 16.138 9.72049 15.8699 9.83023L15.1302 10.1869C14.5662 10.4795 14.0208 10.7996 13.4845 11.1471L11.7557 12.2994C11.3396 12.5921 9.92507 14.6954 9.22242 15.7746C12.4491 15.6374 15.1765 13.2962 15.8606 10.0771L15.9531 10.0406L16.101 9.97655L16.1472 9.95826C16.3599 9.87595 16.5633 9.7845 16.7667 9.67476C16.8129 9.64732 16.8499 9.61989 16.8961 9.59246C16.4061 13.4151 13.3829 16.3781 9.62922 16.7256C5.87559 17.0732 2.38083 14.6863 1.25289 11.0099C0.124948 7.33361 1.64118 3.34634 4.9048 1.41672C8.17768 -0.512904 12.3196 0.145545 14.8621 2.99882H14.7604C14.5478 2.99882 14.3351 3.01711 14.1225 3.05369C13.9745 3.08113 13.8174 3.10856 13.6695 3.15429C11.6077 1.2521 8.6492 0.758267 6.09747 1.88312C3.54574 3.00797 1.87232 5.55031 1.81684 8.3853C2.65817 8.11095 4.11896 7.61711 4.28538 7.44335C4.64595 7.05926 5.00651 6.67516 5.34859 6.28192C5.45029 6.16303 5.55199 6.04415 5.6352 5.90697C5.66293 5.86125 5.68143 5.81552 5.69992 5.76979C5.7554 5.63262 5.82935 5.49544 5.9218 5.37655C5.87558 5.25767 5.8386 5.13878 5.81086 5.01075C5.76464 4.9193 5.73689 4.8187 5.70915 4.71811C5.64443 4.46204 5.62596 4.19683 5.64445 3.93163C5.66294 3.72129 5.72764 3.39206 5.99575 3.39206C6.08821 3.41035 6.17144 3.44693 6.2454 3.5018C6.52276 3.68471 6.77237 3.90419 7.0035 4.14196H7.03126L7.90031 4.04137C8.26088 3.9865 8.62147 3.96821 8.99128 3.9865C9.14846 4.00479 9.30563 4.03222 9.45355 4.08709C9.61073 4.14196 9.76789 4.18769 9.93431 4.21512C10.2394 4.28828 10.5538 4.31572 10.8681 4.31572C11.4691 4.30658 12.0608 4.13282 12.5785 3.81274L12.7819 3.72129L13.087 3.58411C13.4291 3.42864 13.7896 3.30976 14.1687 3.24574C14.5293 3.18173 14.8898 3.18172 15.2504 3.22745C15.8699 3.30976 16.4616 3.55667 16.9516 3.94077L16.9608 3.93163ZM9.29637 6.4191C9.55524 6.57456 9.87884 6.56542 10.1192 6.39166C10.3504 6.20876 10.4336 5.88868 10.3319 5.61433C10.2209 5.32168 9.95281 5.12964 9.65695 5.12964C9.37959 5.12964 9.12996 5.2851 9.00977 5.53202L9.02825 5.47715C9.02825 5.47715 9.00978 5.52288 8.99128 5.5686C8.99128 5.55946 9.00052 5.54117 9.00977 5.53202L8.99128 5.58689C8.93581 5.7515 8.96355 5.68749 8.99128 5.60518C8.99128 5.60518 8.97279 5.66005 8.96355 5.69663C8.91732 5.98928 9.04674 6.27278 9.29637 6.43739V6.4191Z" fill="#B9C8DE"/>
</svg>
