<svg width="71" height="16" viewBox="0 0 71 16" fill="none" xmlns="http://www.w3.org/2000/svg">
<path d="M5.72802 0.974846C4.74406 1.50721 3.9407 1.9543 3.94533 1.96352C3.94996 1.97965 7.47828 3.86251 7.52922 3.87634C7.55006 3.88325 11.0922 1.69849 11.0922 1.68006C11.0922 1.65931 7.58016 -0.0023022 7.54311 2.39508e-06C7.52922 0.00230699 6.70965 0.440182 5.72802 0.974846Z" fill="#B9C8DE"/>
<path d="M31.6009 0.735571L30.3391 1.44539L30.3322 2.02385L30.3275 2.6023H29.3551H28.3828V3.70851V4.81472H29.3551H30.3252L30.3345 7.34285C30.3414 10.0392 30.3414 9.99545 30.4572 10.5071C30.7559 11.8253 31.6171 12.6987 32.8974 12.9822C33.6197 13.1412 34.6314 13.1044 35.4464 12.8923C35.6177 12.8463 36.171 12.6619 36.2034 12.6388C36.2127 12.6296 35.5112 10.4955 35.4904 10.4748C35.4788 10.4633 35.3885 10.4886 35.2773 10.5347C34.4786 10.8735 33.6891 10.8205 33.2747 10.3988C33.1173 10.2375 32.9761 9.95628 32.9321 9.712C32.9043 9.5599 32.8997 9.10587 32.8974 7.1723V4.81472L34.3397 4.81009L35.7797 4.80319L35.7867 3.70159L35.7913 2.6023H34.3559H32.9205V1.31172C32.9205 0.29309 32.9136 0.0211474 32.8927 0.023452C32.8765 0.0257566 32.2954 0.346096 31.6009 0.735571Z" fill="#B9C8DE"/>
<path d="M62.1672 0.73626L60.8867 1.45299V7.20066V12.9483H62.1833H63.4798L63.4845 10.6115L63.4912 8.27228L65.5196 10.6045L67.5453 12.9368L69.0895 12.9437L70.6336 12.9483V12.8377V12.7271L68.2375 10.0999C66.9202 8.65717 65.8434 7.46339 65.8481 7.44726C65.8504 7.43341 66.8044 6.35947 67.9668 5.06429C69.733 3.09386 70.078 2.69978 70.078 2.64447V2.57764H68.5291H66.9779L65.2347 4.64715L63.4912 6.71901L63.4845 3.36811C63.4822 1.52674 63.4728 0.0195312 63.4614 0.0195312C63.452 0.0195312 62.8684 0.342175 62.1672 0.73626Z" fill="#B9C8DE"/>
<path d="M9.46844 3.15082L7.5816 4.3446L7.56771 5.64441C7.56077 6.35881 7.55151 8.29929 7.54919 9.954L7.54688 12.9638L9.44528 14.0516C10.4917 14.6485 11.3507 15.137 11.3553 15.137C11.3623 15.137 11.3669 14.153 11.3669 12.9523V10.7675L9.46844 9.74429C8.42429 9.17964 7.57003 8.71411 7.57003 8.70721C7.57003 8.7003 8.4266 8.21633 9.47538 7.63096L11.3785 6.56852L11.3854 4.26164C11.3877 2.9918 11.3831 1.95473 11.3738 1.95704C11.3623 1.95704 10.5056 2.49401 9.46844 3.15082Z" fill="#B9C8DE"/>
<path d="M22.5592 2.29288C22.1309 2.32975 21.478 2.45651 21.0891 2.58095C20.89 2.64548 20.501 2.81372 20.3066 2.91743C19.3875 3.41522 18.8341 4.16423 18.7022 5.08607C18.6628 5.36492 18.6859 5.92494 18.7485 6.19226C18.8596 6.66932 19.0587 7.04494 19.3852 7.38835C19.6305 7.64645 19.913 7.8631 20.1978 8.01057C21.0636 8.46229 21.7374 8.62824 23.2885 8.76649C24.5688 8.88174 25.0503 9.17209 25.0503 9.82661C25.0503 9.94182 25.0364 10.0594 25.011 10.1285C24.8096 10.7231 23.9645 11.1287 23.0454 11.0711C21.9758 11.0043 20.6492 10.5203 19.913 9.92801C19.8181 9.84965 19.7093 9.75056 19.6699 9.70677C19.612 9.64225 19.5958 9.63303 19.5703 9.65838C19.5541 9.67451 19.2648 10.087 18.9244 10.5756L18.3086 11.4629L18.4938 11.638C19.4384 12.5368 20.552 13.0646 21.867 13.2374C22.2721 13.2904 23.2353 13.3227 23.6126 13.295C25.0202 13.189 26.0435 12.7834 26.752 12.0459C27.421 11.3523 27.7012 10.488 27.5947 9.45558C27.5438 8.94857 27.3493 8.41622 27.0831 8.06127C26.9349 7.86078 26.6269 7.56812 26.4117 7.42524C25.6917 6.94127 24.8026 6.70389 23.2306 6.57714C22.5106 6.51722 22.1309 6.43885 21.7836 6.27294C21.015 5.9065 21.0219 4.97772 21.7975 4.62976C22.3323 4.39007 23.2422 4.33246 24.0525 4.49147C24.6105 4.59978 25.0781 4.82103 25.5319 5.18974C25.7009 5.32803 25.7032 5.32803 25.7402 5.27965C25.7611 5.2543 26.0783 4.88095 26.4464 4.44999C26.8122 4.01904 27.1155 3.6572 27.1155 3.64799C27.1178 3.61802 26.7497 3.32765 26.5042 3.16632C26.0134 2.84138 25.5087 2.62013 24.9346 2.47725C24.4137 2.34589 24.0016 2.29979 23.2885 2.29058C22.9505 2.28827 22.624 2.28827 22.5592 2.29288Z" fill="#B9C8DE"/>
<path d="M55.1475 2.30468C53.2074 2.48675 51.6656 3.44546 50.8898 4.95268C50.5405 5.63023 50.3572 6.30087 50.2835 7.1651C50.2485 7.56839 50.267 8.3796 50.3204 8.75758C50.6539 11.1682 52.2491 12.7883 54.6821 13.1801C55.5874 13.3276 56.6108 13.2838 57.4 13.0672C57.8607 12.9404 58.3748 12.7145 58.7593 12.4726C59.0788 12.2698 59.8008 11.689 59.8008 11.6337C59.8008 11.6222 59.5579 11.3756 59.264 11.0898C58.9673 10.804 58.5808 10.4284 58.4073 10.2578L58.0903 9.94904L58.0067 10.0159C57.7175 10.2509 57.5829 10.3408 57.3353 10.463C57.0135 10.622 56.8538 10.675 56.5018 10.7395C55.7216 10.8847 54.8583 10.7672 54.2677 10.433C53.4275 9.96058 52.939 9.15164 52.8554 8.08921C52.7373 6.60735 53.4597 5.3721 54.7194 4.89735C55.224 4.7084 55.8908 4.65307 56.4115 4.7591C56.9138 4.86277 57.4373 5.10706 57.8124 5.42048C57.8701 5.46891 57.9235 5.50807 57.9302 5.50807C57.958 5.50807 59.5348 3.84416 59.5348 3.8165C59.5348 3.80037 59.4629 3.71971 59.3727 3.63905C58.5647 2.90157 57.7241 2.49136 56.6987 2.33925C56.3883 2.29316 55.4901 2.27242 55.1475 2.30468Z" fill="#B9C8DE"/>
<path d="M41.8655 2.35082C39.3352 2.5928 37.6011 4.19909 37.2284 6.63967C37.1011 7.46473 37.1126 8.3082 37.2608 9.1125C37.6428 11.1728 38.9162 12.574 40.8633 13.0741C41.6666 13.2792 42.6064 13.3207 43.2802 13.1801C43.9748 13.0349 44.5838 12.7676 45.0999 12.3805C45.3918 12.1638 45.7018 11.8112 45.8407 11.5439C45.8823 11.4655 45.8965 11.4517 45.9008 11.4862C45.9079 11.5416 46.0236 12.899 46.0236 12.9289C46.0236 12.9404 46.533 12.9497 47.2389 12.9497H48.4547V7.76434V2.57897H47.2158H45.9773V2.62967C45.9773 2.68499 45.9102 3.83959 45.9008 3.93868C45.8965 3.98707 45.88 3.97094 45.7831 3.82346C45.63 3.593 45.2529 3.22426 44.9865 3.04451C44.4378 2.67116 43.7546 2.42226 43.0789 2.35082C42.8242 2.32316 42.1504 2.32316 41.8655 2.35082ZM43.3983 4.66694C44.0419 4.76375 44.6764 5.11402 45.0767 5.59108C45.2529 5.79852 45.3895 5.99669 45.475 6.16723C46.1072 7.4094 45.9263 8.99038 45.0445 9.96982C44.4912 10.5852 43.7503 10.8986 42.8356 10.9009C41.9283 10.9032 41.1851 10.6197 40.6153 10.0505C40.0274 9.46513 39.7265 8.68386 39.7265 7.73899C39.7265 6.18105 40.6176 5.01493 42.0508 4.69692C42.4561 4.60701 42.9376 4.59552 43.3983 4.66694Z" fill="#B9C8DE"/>
<path d="M1.94883 7.74305C0.927847 8.37222 0.0851284 8.89304 0.078183 8.89767C0.0712375 8.90457 0.689385 9.25489 1.45107 9.67662C2.21276 10.1007 3.08094 10.5823 3.38191 10.7482L3.92829 11.0524L5.72024 9.89092C6.70647 9.25257 7.51446 8.72249 7.51909 8.71099C7.52372 8.69486 6.51202 8.11871 4.02785 6.72209L3.8079 6.59766L1.94883 7.74305Z" fill="#B9C8DE"/>
<path d="M13.6866 9.63696L11.7812 10.8146V12.9902C11.7812 14.1862 11.7905 15.1611 11.7998 15.1565C11.8113 15.1542 12.6703 14.6425 13.7098 14.0226L15.6013 12.8957V10.6764C15.6013 9.45492 15.5989 8.45472 15.5966 8.45704C15.592 8.45704 14.7331 8.98708 13.6866 9.63696Z" fill="#B9C8DE"/>
<path d="M0 11.6086V13.7933L1.88917 14.8281C2.92868 15.3996 3.78992 15.8698 3.79917 15.8721C3.81075 15.8767 3.8177 14.9295 3.81538 13.6873L3.80843 11.4933L1.92158 10.4586C0.884392 9.88935 0.0277819 9.42383 0.0185213 9.42383C0.00694547 9.42383 0 10.4056 0 11.6086Z" fill="#B9C8DE"/>
</svg>
