<svg width="65" height="22" viewBox="0 0 65 22" fill="none" xmlns="http://www.w3.org/2000/svg">
<path d="M27.4069 7.87622L26.4911 7.80073C25.7872 7.74201 25.4989 7.4652 25.4989 6.98707C25.4989 6.42506 25.9398 6.06436 26.7539 6.06436C27.3476 6.06436 27.8564 6.19857 28.2634 6.51733L28.7977 5.98887C28.2804 5.57784 27.5765 5.38491 26.7539 5.38491C25.5497 5.38491 24.6763 6.00564 24.6763 7.02901C24.6763 7.95172 25.2699 8.44662 26.3723 8.5389L27.3052 8.61439C27.9497 8.67311 28.238 8.93314 28.238 9.42805C28.238 10.0907 27.6698 10.4095 26.7285 10.4095C26.0246 10.4095 25.4141 10.2249 24.9731 9.77197L24.4219 10.3172C25.0494 10.9044 25.7957 11.1309 26.7455 11.1309C28.1193 11.1309 29.0521 10.5101 29.0521 9.43644C29.069 8.34597 28.3821 7.98527 27.39 7.893L27.4069 7.87622ZM34.5049 5.35136C33.589 5.35136 33.0208 5.51913 32.5205 6.16502L33.0547 6.69348C33.377 6.22374 33.7586 6.05597 34.4879 6.05597C35.514 6.05597 35.938 6.467 35.938 7.28066V7.82589H34.242C32.9869 7.82589 32.3 8.4634 32.3 9.44483C32.3 9.89779 32.4527 10.3172 32.7155 10.5772C33.0802 10.9379 33.5381 11.0889 34.3183 11.0889C35.0985 11.0889 35.4801 10.9379 35.955 10.485V11.0302H36.7776V7.22194C36.7606 6.01403 36.0143 5.35136 34.5049 5.35136ZM35.938 9.05058C35.938 9.52032 35.8447 9.83907 35.6497 10.0152C35.285 10.3508 34.8695 10.3927 34.3946 10.3927C33.4957 10.3927 33.0971 10.0907 33.0971 9.42805C33.0971 8.76538 33.5127 8.44662 34.3522 8.44662H35.938V9.05058ZM40.0001 6.08953C40.5343 6.08953 40.882 6.24052 41.2975 6.71026L41.8487 6.1818C41.2806 5.56107 40.7802 5.36814 40.0001 5.36814C38.5669 5.36814 37.4984 6.33279 37.4984 8.23692C37.4984 10.1411 38.5754 11.1057 40.0001 11.1057C40.7802 11.1057 41.2806 10.896 41.8657 10.2753L41.2975 9.7468C40.882 10.2165 40.5343 10.3843 40.0001 10.3843C39.4658 10.3843 38.9909 10.1746 38.6856 9.7468C38.4227 9.38611 38.321 8.95831 38.321 8.23692C38.321 7.51553 38.4143 7.10451 38.6856 6.72703C38.9909 6.29085 39.4488 6.08953 40.0001 6.08953ZM47.098 5.42686H46.0719L43.4939 7.90139V2.93555H42.6713V11.0302H43.4939V8.99186L44.5031 7.99366L46.3941 11.0302H47.4203L45.0712 7.42326L47.0895 5.42686H47.098ZM31.3841 6.31601L32.1474 5.56107H30.587V3.71565H29.7644V9.52871C29.7644 10.3591 30.2393 11.0386 31.2145 11.0386H31.8082V10.3424H31.3672C30.8329 10.3424 30.604 10.0404 30.604 9.52871V6.3244H31.3841V6.31601Z" fill="#B9C8DE"/>
<path d="M0 21.1632V13.8906H1.83173V19.3514H14.6878V13.8906H16.5449V21.1632H0Z" fill="#B9C8DE"/>
<path d="M3.86759 13.3874L12.8821 15.2496L13.2552 13.4629L4.24072 11.6007L3.86759 13.3874ZM5.04634 9.11779L13.3824 12.968L14.1626 11.3323L5.82652 7.45692L5.04634 9.11779ZM7.35296 5.07465L14.434 10.8877L15.6127 9.49526L8.53171 3.68221L7.35296 5.07465ZM11.9238 0.779873L10.4398 1.87034L15.935 9.16812L17.419 8.07765L11.9238 0.771484V0.779873ZM3.66406 17.5144H12.8481V15.7026H3.66406V17.5144Z" fill="#B9C8DE"/>
<path d="M26.7191 14.9815C25.8371 14.9815 25.269 15.317 24.9043 15.6945C24.3701 16.2397 24.2344 16.9024 24.2344 17.9677C24.2344 19.033 24.3701 19.6873 24.9043 20.2409C25.269 20.6184 25.8541 20.9539 26.7191 20.9539C27.5841 20.9539 28.1862 20.6184 28.5508 20.2409C29.0851 19.6957 29.2207 19.033 29.2207 17.9677C29.2207 16.9024 29.0851 16.2481 28.5508 15.6945C28.1862 15.317 27.5756 14.9815 26.7191 14.9815ZM27.406 19.3769C27.2364 19.5447 27.0074 19.637 26.7191 19.637C26.4308 19.637 26.2018 19.5447 26.0322 19.3769C25.7269 19.075 25.693 18.5633 25.693 17.9593C25.693 17.3554 25.7354 16.8437 26.0322 16.5417C26.2018 16.3739 26.4138 16.2817 26.7191 16.2817C27.0074 16.2817 27.2364 16.3739 27.406 16.5417C27.7113 16.8437 27.7452 17.3554 27.7452 17.9593C27.7452 18.5633 27.7028 19.075 27.406 19.3769ZM33.1301 15.057L31.9514 18.6639L30.7472 15.057H29.2038L31.3747 20.8868H32.5196L34.6735 15.057H33.1301ZM37.1922 14.9815C35.6657 14.9815 34.6142 16.0468 34.6142 17.9593C34.6142 20.3164 35.9456 20.9372 37.3448 20.9372C38.4133 20.9372 38.9815 20.6184 39.5751 20.0144L38.6762 19.1421C38.2946 19.5195 37.9893 19.6873 37.3448 19.6873C36.5222 19.6873 36.0473 19.1421 36.0473 18.3871H39.7277V17.7496C39.7447 16.1642 38.8119 14.9731 37.1922 14.9731V14.9815ZM36.0643 17.4141C36.0813 17.1541 36.0982 17.0031 36.2 16.7934C36.3526 16.4578 36.6749 16.1894 37.1922 16.1894C37.3957 16.1894 37.5992 16.2397 37.7773 16.3404C37.9554 16.4494 38.0911 16.6004 38.1843 16.785C38.2776 16.9947 38.32 17.1624 38.32 17.4057H36.0643V17.4141ZM41.9156 15.6022V15.0402H40.4825V20.8868H41.9496V17.3805C41.9496 16.6424 42.4414 16.3152 42.8994 16.3152C43.264 16.3152 43.4506 16.4327 43.6795 16.6508L44.782 15.5603C44.3834 15.166 43.9594 15.0151 43.3912 15.0151C42.7467 14.9983 42.187 15.3003 41.9072 15.619L41.9156 15.6022ZM45.2314 14.453V20.8868H46.6985V16.2817H47.7755V15.166H46.6985V14.5285C46.6985 14.193 46.8681 14.0001 47.2158 14.0001H47.784V12.7754H46.9444C45.7657 12.7754 45.2314 13.6226 45.2314 14.453ZM53.8558 14.9815C52.9739 14.9815 52.4057 15.317 52.041 15.6945C51.5068 16.2397 51.3711 16.9024 51.3711 17.9677C51.3711 19.033 51.5068 19.6873 52.041 20.2409C52.4057 20.6184 52.9908 20.9539 53.8558 20.9539C54.7208 20.9539 55.3229 20.6184 55.6875 20.2409C56.2218 19.6957 56.3575 19.033 56.3575 17.9677C56.3575 16.9024 56.2218 16.2481 55.6875 15.6945C55.3229 15.317 54.7123 14.9815 53.8558 14.9815ZM54.5427 19.3769C54.3731 19.5447 54.1441 19.637 53.8558 19.637C53.5675 19.637 53.3385 19.5447 53.1689 19.3769C52.8636 19.075 52.8297 18.5633 52.8297 17.9593C52.8297 17.3554 52.8636 16.8437 53.1689 16.5417C53.3385 16.3739 53.5505 16.2817 53.8558 16.2817C54.1441 16.2817 54.3731 16.3739 54.5427 16.5417C54.848 16.8437 54.8819 17.3554 54.8819 17.9593C54.8819 18.5633 54.848 19.075 54.5427 19.3769ZM63.2943 15.057L62.3445 18.6639L61.1403 15.057H60.0718L58.8676 18.6639L57.9178 15.057H56.3575L58.1722 20.8868H59.3764L60.6146 17.2295L61.8527 20.8868H63.0569L64.8462 15.057H63.2943ZM49.9634 19.1337V12.7754H48.4963V19.2092C48.4963 20.0396 49.0136 20.87 50.2093 20.87H51.0489V19.6454H50.4807C50.116 19.6454 49.9634 19.4776 49.9634 19.1337Z" fill="#B9C8DE"/>
</svg>
