<svg width="86" height="22" viewBox="0 0 86 22" fill="none" xmlns="http://www.w3.org/2000/svg">
<g clip-path="url(#clip0_10716_523)">
<path fill-rule="evenodd" clip-rule="evenodd" d="M3.32132 3.00103C3.71952 1.25335 5.26905 0 7.06665 0H19.2008C20.7714 0 21.9263 1.44939 21.6016 2.97687L21.6009 2.97999L21.3431 4.15448H8.47084C7.77025 4.15448 7.15181 4.65322 6.99709 5.33411C6.99695 5.33476 6.9968 5.33541 6.99665 5.33607L4.20343 18.2448H3.0768C1.50624 18.2448 0.351302 16.7955 0.676043 15.268L0.676337 15.2666L3.32132 3.00103ZM8.46116 3.18609C7.30715 3.19063 6.30408 4.00653 6.05202 5.12276L3.42215 17.2764H3.0768C2.12972 17.2764 1.42541 16.402 1.62314 15.47C1.6231 15.4702 1.62319 15.4698 1.62314 15.47L4.26613 3.21353C4.56613 1.90242 5.72749 0.96841 7.06665 0.96841H19.2008C20.1477 0.96841 20.8518 1.84235 20.6546 2.77411C20.6545 2.77457 20.6544 2.77503 20.6543 2.77549L20.5642 3.18607L8.46116 3.18609Z" fill="#B9C8DE"/>
<path fill-rule="evenodd" clip-rule="evenodd" d="M20.5645 3.18555H21.6911C23.2587 3.18555 24.4357 4.63149 24.1116 6.18029L24.1109 6.18368L21.4563 18.4294C21.0581 20.177 19.5086 21.4304 17.711 21.4304H5.5768C4.00623 21.4304 2.8513 19.981 3.17604 18.4535L3.17672 18.4504L3.43453 17.2759H16.3165C17.0158 17.2759 17.6241 16.7788 17.7702 16.0992L20.5645 3.18555ZM21.3458 4.15396L18.717 16.3028C18.4758 17.4244 17.4764 18.2443 16.3165 18.2443H4.21342L4.12328 18.6549C4.12318 18.6554 4.12307 18.6559 4.12297 18.6564C3.92583 19.5881 4.63 20.462 5.5768 20.462H17.711C19.0502 20.462 20.2116 19.5279 20.5115 18.2167L23.1637 5.9819C23.1638 5.98134 23.1639 5.98078 23.1641 5.98022C23.3616 5.03117 22.6409 4.15396 21.6911 4.15396H21.3458Z" fill="#B9C8DE"/>
<path fill-rule="evenodd" clip-rule="evenodd" d="M18.2399 16.2011L20.9515 3.66992H8.45899C7.52932 3.66992 6.72554 4.30907 6.53186 5.22906L3.82031 17.7603H16.3128C17.2425 17.7603 18.0366 17.1018 18.2399 16.2011ZM7.8889 12.978L6.98828 8.28125H8.40216L8.83794 11.2155L10.2712 8.28125H11.2299L11.7916 11.2155L13.1086 8.28125H14.5225L12.2274 12.978H11.0459L10.4842 10.2278L9.09941 12.978H7.89859H7.8889ZM14.7555 11.3595L14.0195 12.2214V12.2311C14.4747 12.8218 15.1235 13.122 15.966 13.122C16.489 13.122 16.9538 12.9961 17.3412 12.7346C17.7285 12.4732 17.961 12.1148 18.0384 11.6597C18.2031 10.9624 17.6608 10.5073 17.1959 10.3136C17.0507 10.2361 16.8763 10.1683 16.673 10.0909C16.4696 10.0134 16.334 9.95529 16.2662 9.91656C16.0532 9.81972 15.966 9.68414 16.0048 9.51951C16.0532 9.32583 16.2372 9.22899 16.5568 9.22899C16.9538 9.22899 17.3024 9.36456 17.6026 9.6454L18.329 8.7932C17.8641 8.34773 17.3024 8.125 16.6149 8.125C15.6077 8.125 14.8136 8.59952 14.6781 9.47109C14.6006 10.1006 14.8039 10.4686 15.2397 10.7397C15.5496 10.9334 15.6949 10.9915 16.0532 11.1271C16.2372 11.1852 16.3534 11.2239 16.4018 11.253C16.6149 11.3498 16.7117 11.4757 16.6923 11.6113C16.6536 11.8437 16.3534 11.9793 16.0241 11.9793C15.5109 11.9793 15.0848 11.7662 14.7555 11.3595Z" fill="#B9C8DE"/>
<path d="M35.3439 14.7698H34.0172L31.4219 6.91602H33.1456L34.7338 12.1938L36.5157 6.91602H37.5132L39.3338 12.1938L40.8929 6.91602H42.6167L40.031 14.7698H38.7043L37.0387 9.62756L35.3536 14.7698H35.3439Z" fill="#B9C8DE"/>
<path d="M44.0909 14.7684H42.5898V8.97729H44.0425V9.7617C44.3814 9.13224 44.914 8.83203 45.6306 8.83203C45.8631 8.83203 46.0955 8.87077 46.3279 8.95792L46.202 10.3912C45.9405 10.3137 45.7275 10.2653 45.5144 10.2653C45.0787 10.2653 44.73 10.4202 44.4782 10.7011C44.2361 10.9916 44.0909 11.4274 44.0909 12.0181V14.7684Z" fill="#B9C8DE"/>
<path d="M48.3517 7.40843C48.3517 7.6699 48.2742 7.88295 48.0902 8.06695C47.9159 8.24127 47.6932 8.32842 47.4317 8.32842C47.1702 8.32842 46.9572 8.25095 46.7732 8.06695C46.5989 7.89264 46.5117 7.6699 46.5117 7.40843C46.5117 7.14696 46.5892 6.93391 46.7732 6.76928C46.9475 6.59497 47.1702 6.50781 47.4317 6.50781C47.6932 6.50781 47.9062 6.58529 48.0902 6.76928C48.2645 6.93391 48.3517 7.15665 48.3517 7.40843ZM48.1677 8.98694V14.778H46.6667V8.98694H48.1677Z" fill="#B9C8DE"/>
<path d="M52.824 13.2591L53.2791 14.4309C52.8046 14.7408 52.2236 14.9054 51.5651 14.9054C50.9065 14.9054 50.403 14.7117 50.064 14.334C49.7251 13.9467 49.5605 13.3753 49.5605 12.6199V10.228H48.6211V8.96904H49.5798V6.91602H51.0712V8.96904H52.9886V10.228H51.0712V12.5231C51.0712 13.2107 51.3423 13.5496 51.8943 13.5496C52.1655 13.5496 52.4947 13.4528 52.8337 13.2494L52.824 13.2591Z" fill="#B9C8DE"/>
<path d="M59.0907 11.7469C59.0907 11.9213 59.081 12.144 59.0326 12.4055H54.6845C54.9072 13.2286 55.4689 13.6353 56.3695 13.6353C57.0377 13.6353 57.6672 13.4417 58.2482 13.0446L58.8389 14.1002C58.103 14.6328 57.2701 14.8943 56.3114 14.8943C55.2946 14.8943 54.5198 14.6038 53.9678 14.0227C53.4352 13.4513 53.1641 12.725 53.1641 11.8728C53.1641 11.0206 53.4352 10.2556 53.9969 9.69392C54.5586 9.12255 55.2849 8.83203 56.1758 8.83203C57.0668 8.83203 57.7059 9.0935 58.2579 9.61644C58.8293 10.1491 59.1101 10.8657 59.1101 11.7469H59.0907ZM56.1855 10.0813C55.8175 10.0813 55.4882 10.1878 55.2268 10.4105C54.9653 10.6333 54.791 10.9141 54.6942 11.3015H57.6381C57.5703 10.9335 57.4057 10.6333 57.1442 10.4105C56.8828 10.1878 56.5729 10.0813 56.1855 10.0813Z" fill="#B9C8DE"/>
<path d="M61.599 14.9229C60.5822 14.9229 59.7978 14.5549 59.207 13.7996L60.0011 12.8602C60.2045 13.1023 60.4563 13.296 60.7371 13.4509C61.0276 13.6059 61.3085 13.6737 61.599 13.6737C61.8314 13.6737 62.0057 13.6156 62.1704 13.509C62.3253 13.4025 62.4028 13.2669 62.4028 13.1023C62.4028 12.8989 62.2672 12.7343 61.9961 12.6084C61.9186 12.5697 61.6862 12.4825 61.3085 12.347C60.9792 12.2211 60.7371 12.1242 60.5725 12.0371C59.9043 11.7272 59.575 11.2139 59.575 10.536C59.575 10.0325 59.7687 9.61604 60.1658 9.27709C60.5531 8.94783 61.0857 8.7832 61.7346 8.7832C62.5577 8.7832 63.2356 9.05436 63.7586 9.61604L63.0226 10.5844C62.6158 10.1971 62.1704 10.0131 61.6958 10.0131C61.5022 10.0131 61.3375 10.0518 61.2213 10.1487C61.0954 10.2455 61.0276 10.352 61.0276 10.4876C61.0276 10.7297 61.1923 10.9137 61.5312 11.0202C62.2866 11.3108 62.7514 11.4851 62.9257 11.5819C63.5842 11.9209 63.8941 12.4147 63.8941 13.0442C63.8941 13.5962 63.6714 14.032 63.255 14.3806C62.8483 14.7486 62.2963 14.9326 61.599 14.9326V14.9229Z" fill="#B9C8DE"/>
<path d="M64.1719 11.8728C64.1719 11.0109 64.4624 10.3039 65.0434 9.7132C65.6342 9.12247 66.3702 8.82227 67.2708 8.82227C68.1714 8.82227 68.9171 9.12247 69.4981 9.7132C70.0695 10.2846 70.3697 11.0109 70.3697 11.8728C70.3697 12.7346 70.0792 13.4609 69.4981 14.0323C68.9074 14.623 68.1714 14.9039 67.2708 14.9039C66.3702 14.9039 65.6245 14.6134 65.0434 14.0323C64.4527 13.4609 64.1719 12.7346 64.1719 11.8728ZM66.1281 13.0445C66.4283 13.3544 66.8156 13.5191 67.2805 13.5191C67.7453 13.5191 68.1036 13.3544 68.4135 13.0445C68.7234 12.7153 68.8783 12.3182 68.8783 11.8728C68.8783 11.4273 68.7234 11.0206 68.4135 10.7107C68.1036 10.4008 67.7259 10.2361 67.2805 10.2361C66.835 10.2361 66.4283 10.4008 66.1281 10.7107C65.8279 11.0302 65.6729 11.4079 65.6729 11.8728C65.6729 12.3376 65.8279 12.7346 66.1281 13.0445Z" fill="#B9C8DE"/>
<path d="M72.501 14.7683H71V8.97721H72.4623V9.78099C72.6172 9.49047 72.8593 9.25805 73.1886 9.08374C73.5179 8.90942 73.8762 8.82227 74.2829 8.82227C74.9124 8.82227 75.445 9.02563 75.8808 9.45173C76.3166 9.87783 76.5393 10.4686 76.5393 11.2336V14.778H75.0383V11.6403C75.0383 11.1852 74.9317 10.8366 74.709 10.5848C74.4863 10.3427 74.1861 10.1974 73.8181 10.1974C73.421 10.1974 73.1111 10.333 72.8593 10.6041C72.6172 10.8753 72.4914 11.2336 72.4914 11.6597V14.7489H72.501V14.7683Z" fill="#B9C8DE"/>
<path d="M79.1173 7.40843C79.1173 7.6699 79.0398 7.88295 78.8558 8.06695C78.6815 8.24127 78.4588 8.32842 78.1973 8.32842C77.9359 8.32842 77.7228 8.25095 77.5388 8.06695C77.3645 7.89264 77.2773 7.6699 77.2773 7.40843C77.2773 7.14696 77.3548 6.93391 77.5388 6.76928C77.7131 6.59497 77.9359 6.50781 78.1973 6.50781C78.4588 6.50781 78.6719 6.58529 78.8558 6.76928C79.0302 6.93391 79.1173 7.15665 79.1173 7.40843ZM78.9333 8.98694V14.778H77.4323V8.98694H78.9333Z" fill="#B9C8DE"/>
<path d="M82.6108 14.904C81.7199 14.904 80.9839 14.6134 80.3931 14.0518C79.8218 13.4901 79.5312 12.7638 79.5312 11.8728C79.5312 10.9819 79.8218 10.2556 80.4028 9.69392C80.9936 9.12255 81.7392 8.83203 82.6495 8.83203C83.2403 8.83203 83.7826 8.96761 84.2668 9.25813C84.7413 9.54866 85.119 9.9457 85.3514 10.4493L84.1506 11.1078C83.7923 10.5171 83.2984 10.2362 82.6689 10.2362C82.1944 10.2362 81.7973 10.4009 81.4971 10.7107C81.1872 11.0206 81.0323 11.408 81.0323 11.8728C81.0323 12.3377 81.1872 12.7444 81.4874 13.064C81.807 13.3739 82.1847 13.5288 82.6495 13.5288C82.9497 13.5288 83.2403 13.4513 83.5211 13.2867C83.7923 13.1221 83.9956 12.9187 84.1215 12.6572L85.3417 13.3642C85.0996 13.829 84.7219 14.197 84.2474 14.4875C83.7535 14.749 83.2112 14.8943 82.6205 14.8943L82.6108 14.904Z" fill="#B9C8DE"/>
</g>
<defs>
<clipPath id="clip0_10716_523">
<rect width="84.7358" height="21.4309" fill="white" transform="translate(0.617188)"/>
</clipPath>
</defs>
</svg>
