<svg width="328" height="430" viewBox="0 0 328 430" fill="none" xmlns="http://www.w3.org/2000/svg">
<g clip-path="url(#clip0_64_2756)">
<path d="M104.118 81.9669L104.761 82.9506H41.8324L41.7946 82.7047C41.7189 82.2318 41.9649 81.9291 42.1352 81.721C42.173 81.6832 42.2108 81.6453 42.2487 81.5886L43.1001 80.3968C50.3276 70.2952 57.5551 60.2125 64.8015 50.1298C65.3313 49.392 65.5583 48.6543 65.5583 47.7652C65.5205 42.8089 65.5394 37.796 65.5394 32.9343V30.6643C65.5394 30.6643 65.5394 30.4751 65.5394 30.3805C65.5205 30.0211 65.5016 29.6239 65.7286 29.2266L65.8421 29.0564L66.0503 29.0942C67.0341 29.3023 76.3996 34.6558 77.2888 35.507L77.4024 35.6205L77.3645 35.7719C77.2888 36.1691 76.9861 36.3394 76.7591 36.4529L76.6455 36.5096L74.4697 37.7581C72.4264 38.931 70.3262 40.1606 68.245 41.3145C67.6774 41.6361 67.4882 41.9577 67.5071 42.563C67.5449 44.5304 67.5449 46.3464 67.5071 48.0678C67.4882 48.7299 67.6774 49.2785 68.1126 49.8839C70.4397 53.1187 72.7669 56.3345 75.0752 59.5882L77.497 62.9744C78.0456 63.731 78.5754 64.4877 79.1241 65.2444C79.2755 65.4525 79.5025 65.7741 79.5971 65.8119C79.5971 65.7741 79.8241 65.4714 79.9755 65.2633C80.5809 64.412 81.2053 63.5419 81.8108 62.6717C82.8324 61.234 83.8731 59.7774 84.9137 58.3586C85.0272 58.2073 85.1218 58.056 85.2164 57.9425C85.538 57.4885 85.7272 57.2236 86.0489 57.2236C86.4084 57.2236 86.6732 57.5641 87.2787 58.3965C90.7978 63.3149 94.317 68.2143 97.8361 73.1327L103.569 81.1346C103.758 81.3994 103.928 81.6453 104.137 81.9858L104.118 81.9669ZM101.071 81.0778C101.071 81.0778 100.996 80.9454 100.939 80.8697L92.8223 69.5385C90.7032 66.5875 88.5842 63.6175 86.4651 60.6665C86.3705 60.5341 86.1435 60.2125 86.0489 60.1747C86.011 60.2125 85.784 60.5341 85.6705 60.6665C85.1029 61.4799 84.5163 62.2933 83.9298 63.0878C83.173 64.1472 82.3973 65.2444 81.6216 66.2848L81.2053 66.8901C80.7701 67.5333 80.3161 68.1765 79.6917 68.8008L79.4457 69.0467L78.8214 68.1954C78.5943 67.8738 78.3673 67.5901 78.1592 67.3063L74.886 62.7473C72.275 59.1153 69.6829 55.5022 67.0719 51.8701C66.8449 51.5485 66.58 51.1702 66.4665 51.1513C66.4097 51.1891 66.1638 51.5296 65.9367 51.8323L65.1988 52.8727C58.5957 62.0663 51.9926 71.2789 45.4084 80.4914C45.3705 80.5671 45.2948 80.6238 45.2381 80.6995C45.1246 80.8508 45.03 80.9643 44.9921 81.0778C45.2192 81.1535 45.484 81.1346 45.7489 81.1157C45.8624 81.1157 45.976 81.1157 46.0895 81.1157H100.144C100.315 81.1157 100.466 81.1157 100.617 81.1157C100.674 81.1157 100.731 81.1157 100.807 81.1157C100.92 81.1157 100.977 81.1157 101.015 81.1157L101.071 81.0778ZM73.9589 35.6584C73.1453 35.2043 72.3507 34.7503 71.556 34.2774C70.2884 33.5397 68.964 32.783 67.6206 32.0641V39.385C69.191 38.6661 72.8048 36.5285 73.9778 35.6584H73.9589Z" fill="#FA0171"/>
<path d="M71.556 34.2585C72.3506 34.7314 73.1453 35.1854 73.9589 35.6394C72.8047 36.5096 69.1721 38.6283 67.6017 39.3661V32.0452C68.9639 32.7641 70.2694 33.5207 71.5371 34.2585H71.556Z" fill="#FFB3D3"/>
<path d="M26.3558 244.255C26.6207 244.785 26.5828 245.163 26.2612 245.655C23.0258 250.403 19.8283 255.189 16.6119 259.956C15.7037 261.299 14.7956 262.661 13.8874 264.004C13.7171 264.25 13.5658 264.515 13.2441 264.572C12.8846 264.496 12.7522 264.193 12.5819 263.929C9.81957 259.824 7.07614 255.719 4.3138 251.614C2.97047 249.608 1.64605 247.603 0.283803 245.617C3.01749e-07 245.182 -0.0567602 244.822 0.189202 244.35C1.22981 242.307 2.2515 240.226 3.25427 238.164C3.46239 237.71 3.74619 237.558 4.23812 237.558C10.2547 237.558 16.2903 237.558 22.3069 237.558C22.7988 237.558 23.0826 237.71 23.2907 238.164C24.2746 240.207 25.2963 242.269 26.3369 244.293L26.3558 244.255ZM18.4661 244.463H25.3152C24.2935 242.42 23.3475 240.491 22.4015 238.58H17.293C17.6904 240.566 18.0688 242.515 18.4661 244.463ZM25.0503 245.447C22.8366 245.447 20.6608 245.447 18.4661 245.447C17.1417 250.706 15.8362 255.87 14.5307 261.053C15.4199 260.183 24.9179 245.976 25.0503 245.447ZM9.04384 244.463H17.4822C17.0849 242.458 16.6876 240.528 16.3092 238.561H10.198C9.81957 240.528 9.44116 242.458 9.04384 244.463ZM17.2741 246.166C17.3309 245.958 17.4444 245.731 17.2741 245.504C16.4416 245.371 9.5736 245.409 9.13844 245.56C9.1952 246.128 12.8846 260.807 13.2063 261.772C13.4144 261.64 13.4144 261.413 13.4522 261.223C14.7199 256.21 15.9875 251.179 17.2552 246.166H17.2741ZM11.8251 261.072C11.8819 260.41 8.23027 245.92 7.92755 245.485H1.36225C4.8814 250.743 8.32487 255.87 11.8062 261.072H11.8251ZM9.21412 238.561H4.2192C3.50023 239.639 1.41901 243.99 1.40009 244.463H8.00323C8.40055 242.515 8.79788 240.547 9.1952 238.561H9.21412Z" fill="#FA0171"/>
<path d="M25.3342 244.463H18.4851C18.0877 242.496 17.7093 240.566 17.312 238.58H22.4205C23.3665 240.491 24.3314 242.439 25.3342 244.463Z" fill="#FFB3D3"/>
<path d="M17.2741 245.503C17.4255 245.731 17.3119 245.958 17.2741 246.166C16.0064 251.179 14.7388 256.21 13.4711 261.223C13.4144 261.413 13.4333 261.64 13.2252 261.772C12.9035 260.807 9.21411 246.128 9.15735 245.56C9.59251 245.428 16.4605 245.371 17.293 245.503H17.2741Z" fill="#FFB3D3"/>
<path d="M4.21925 238.561H9.19526C8.79793 240.566 8.40061 242.515 8.00329 244.463H1.41907C1.41907 243.99 3.50029 239.639 4.23817 238.561H4.21925Z" fill="#FFB3D3"/>
<path d="M327.811 182.113C328.076 182.643 328.038 183.021 327.716 183.513C324.481 188.261 321.283 193.047 318.067 197.814C317.159 199.157 316.251 200.519 315.342 201.862C315.172 202.108 315.021 202.373 314.699 202.43C314.34 202.354 314.207 202.051 314.037 201.787C311.275 197.682 308.531 193.577 305.769 189.472C304.425 187.466 303.101 185.461 301.739 183.475C301.455 183.04 301.398 182.68 301.644 182.208C302.685 180.165 303.706 178.084 304.709 176.022C304.917 175.568 305.201 175.416 305.693 175.416C311.71 175.416 317.745 175.416 323.762 175.416C324.254 175.416 324.538 175.568 324.746 176.022C325.73 178.065 326.751 180.127 327.792 182.151L327.811 182.113ZM319.921 182.321H326.77C325.748 180.278 324.802 178.349 323.856 176.438H318.748C319.145 178.424 319.524 180.373 319.921 182.321ZM326.505 183.305C324.292 183.305 322.116 183.305 319.921 183.305C318.597 188.564 317.291 193.728 315.986 198.911C316.875 198.041 326.373 183.834 326.505 183.305ZM310.499 182.321H318.937C318.54 180.316 318.143 178.386 317.764 176.419H311.653C311.275 178.386 310.896 180.316 310.499 182.321ZM318.729 184.024C318.786 183.816 318.899 183.589 318.729 183.362C317.897 183.229 311.029 183.267 310.593 183.418C310.65 183.986 314.34 198.665 314.661 199.63C314.869 199.498 314.869 199.271 314.907 199.081C316.175 194.068 317.443 189.037 318.71 184.024H318.729ZM313.28 198.93C313.337 198.268 309.685 183.778 309.383 183.343H302.836C306.355 188.601 309.799 193.728 313.28 198.93ZM310.669 176.419H305.693C304.974 177.497 302.893 181.848 302.874 182.321H309.477C309.874 180.373 310.272 178.405 310.669 176.419Z" fill="#FA0171"/>
<path d="M326.789 182.321H319.94C319.543 180.354 319.164 178.424 318.767 176.438H323.875C324.821 178.349 325.786 180.297 326.789 182.321Z" fill="#FFB3D3"/>
<path d="M318.729 183.362C318.88 183.589 318.767 183.816 318.729 184.024C317.461 189.037 316.194 194.068 314.926 199.081C314.869 199.271 314.888 199.498 314.68 199.63C314.359 198.665 310.669 183.986 310.612 183.418C311.047 183.286 317.915 183.229 318.748 183.362H318.729Z" fill="#FFB3D3"/>
<path d="M305.674 176.419H310.65C310.253 178.424 309.856 180.373 309.458 182.321H302.855C302.855 181.848 304.936 177.497 305.674 176.419Z" fill="#FFB3D3"/>
<path d="M83.4946 377.997C84.0812 379.132 83.9866 379.946 83.2865 380.986C76.3617 391.183 69.4937 401.417 62.6068 411.613C60.658 414.507 58.7092 417.401 56.7605 420.296C56.401 420.825 56.0982 421.393 55.3793 421.506C54.6036 421.355 54.3198 420.693 53.9603 420.144C48.0572 411.348 42.1541 402.552 36.251 393.736C33.3751 389.442 30.5182 385.148 27.6045 380.873C26.9801 379.946 26.8855 379.189 27.4153 378.149C29.6479 373.76 31.8426 369.334 33.9995 364.888C34.4536 363.923 35.0779 363.583 36.1186 363.583C49.0221 363.621 61.9446 363.621 74.8481 363.583C75.8887 363.583 76.5131 363.923 76.9672 364.888C79.0863 369.277 81.2621 373.684 83.4946 378.016V377.997ZM66.5989 378.433H81.281C79.1052 374.063 77.0618 369.92 75.0184 365.815H64.0636C64.915 370.09 65.7286 374.233 66.58 378.433H66.5989ZM80.6945 380.551C75.9644 380.551 71.2911 380.551 66.58 380.551C63.7231 391.826 60.9418 402.911 58.1416 413.977C60.0336 412.105 80.3917 381.667 80.6945 380.532V380.551ZM46.3733 378.433H64.442C63.5906 374.138 62.7581 369.977 61.9257 365.796H48.8518C48.0193 370.015 47.2058 374.157 46.3733 378.433ZM64.0258 382.102C64.1393 381.648 64.3853 381.157 64.0258 380.684C62.2473 380.4 47.5274 380.494 46.6003 380.797C46.7328 382.008 54.6225 413.467 55.3225 415.529C55.7766 415.264 55.7577 414.772 55.8712 414.356C58.5768 403.611 61.3202 392.847 64.0258 382.102ZM52.3331 414.034C52.4656 412.615 44.6326 381.573 43.9704 380.608H29.9317C37.4808 391.864 44.8597 402.854 52.3331 414.034ZM46.7328 365.796H36.0618C34.5103 368.123 30.0641 377.43 30.0452 378.451H44.2164C45.0678 374.271 45.9003 370.071 46.7517 365.796H46.7328Z" fill="#FA0171"/>
<path d="M81.2999 378.414H66.6178C65.7664 374.214 64.9528 370.071 64.1014 365.796H75.0562C77.0807 369.901 79.143 374.044 81.3188 378.414H81.2999Z" fill="#FFB3D3"/>
<path d="M64.0447 380.665C64.3853 381.138 64.1393 381.63 64.0447 382.084C61.3391 392.828 58.5957 403.592 55.8901 414.337C55.7766 414.753 55.7955 415.245 55.3415 415.51C54.6414 413.448 46.7517 381.989 46.6193 380.778C47.5464 380.476 62.2662 380.381 64.0447 380.665Z" fill="#FFB3D3"/>
<path d="M36.0618 365.777H46.7328C45.8813 370.052 45.0299 374.252 44.1974 378.433H30.0262C30.0641 377.411 34.4914 368.104 36.0429 365.777H36.0618Z" fill="#FFB3D3"/>
<path d="M208.046 148.441C208.349 148.8 208.406 149.141 208.084 149.519C205.341 152.83 202.2 155.61 198.17 157.237C194.007 158.921 189.996 158.391 186.156 156.235C183.147 154.551 180.65 152.262 178.455 149.633C178.152 149.254 178.02 148.933 178.379 148.498C181.142 145.187 184.301 142.388 188.35 140.761C189.921 140.136 191.548 139.815 193.61 139.777C196.07 139.796 198.624 140.742 201.027 142.217C203.732 143.882 206.022 146.02 208.046 148.46V148.441ZM206.854 149.33C207.138 148.989 206.949 148.8 206.741 148.573C204.886 146.492 202.862 144.639 200.497 143.182C196.486 140.704 192.323 140.061 187.934 142.123C184.661 143.655 182.012 146.001 179.628 148.668C179.344 148.989 179.477 149.179 179.704 149.425C181.35 151.297 183.166 152.981 185.247 154.381C187.669 156.008 190.261 157.124 193.024 157.143C194.575 157.143 195.88 156.916 197.148 156.462C201.084 155.043 204.13 152.413 206.873 149.33H206.854Z" fill="#FA0171"/>
<path d="M204.149 135.71C204.357 135.785 204.414 135.975 204.47 136.126C204.47 136.391 204.3 136.561 204.149 136.712L201.84 139.039C201.576 139.323 201.254 139.531 200.913 139.191C200.573 138.85 200.8 138.566 201.065 138.32C201.859 137.507 202.654 136.712 203.449 135.899C203.657 135.691 203.884 135.615 204.149 135.71Z" fill="#FA0171"/>
<path d="M193.232 144.355C195.824 144.355 197.886 146.455 197.867 149.065C197.867 151.619 195.748 153.681 193.194 153.681C190.64 153.681 188.577 151.562 188.577 148.989C188.577 146.417 190.64 144.355 193.213 144.355H193.232ZM193.232 152.603C195.199 152.603 196.808 150.976 196.808 149.008C196.808 147.022 195.199 145.433 193.213 145.452C191.226 145.471 189.656 147.06 189.675 149.065C189.675 151.014 191.283 152.603 193.232 152.622V152.603Z" fill="#FA0171"/>
<path d="M196.789 149.008C196.789 150.995 195.18 152.603 193.213 152.603C191.283 152.603 189.675 150.995 189.656 149.046C189.656 147.041 191.207 145.452 193.194 145.433C195.18 145.414 196.77 147.003 196.789 148.989V149.008Z" fill="#FFB3D3"/>
<path d="M193.78 135.18C193.78 135.729 193.78 136.277 193.78 136.845C193.78 137.204 193.667 137.507 193.27 137.507C192.815 137.507 192.702 137.223 192.702 136.826V133.44C192.702 133.061 192.834 132.778 193.213 132.759C193.648 132.759 193.78 133.061 193.78 133.459C193.78 134.026 193.78 134.613 193.78 135.18Z" fill="#FA0171"/>
<path d="M185.739 138.774C185.739 139.039 185.645 139.191 185.474 139.285C185.266 139.399 185.02 139.399 184.869 139.247C183.961 138.339 183.072 137.431 182.182 136.504C181.974 136.296 182.031 136.013 182.239 135.804C182.428 135.615 182.712 135.596 182.882 135.767C183.828 136.694 184.755 137.639 185.683 138.585C185.739 138.642 185.739 138.737 185.758 138.774H185.739Z" fill="#FA0171"/>
<path d="M129.963 302.916C130.682 303.768 130.814 304.543 130.038 305.451C123.605 313.207 116.245 319.733 106.766 323.555C96.9848 327.489 87.6003 326.26 78.5754 321.19C71.5182 317.217 65.653 311.883 60.5256 305.697C59.8066 304.827 59.5039 304.032 60.3553 303.049C66.826 295.274 74.2427 288.729 83.7596 284.907C87.4301 283.432 91.2519 282.675 96.1144 282.618C101.904 282.675 107.902 284.907 113.502 288.331C119.859 292.228 125.233 297.241 129.963 302.954V302.916ZM127.143 304.997C127.825 304.222 127.371 303.768 126.898 303.219C122.565 298.357 117.816 294.006 112.253 290.564C102.85 284.756 93.0683 283.243 82.7757 288.085C75.0941 291.699 68.8883 297.166 63.2879 303.446C62.6257 304.184 62.9474 304.657 63.4393 305.224C67.299 309.613 71.556 313.567 76.4185 316.839C82.0946 320.641 88.1869 323.271 94.6765 323.347C98.3092 323.347 101.374 322.817 104.345 321.739C113.578 318.409 120.748 312.223 127.143 305.016V304.997Z" fill="#FA0171"/>
<path d="M120.824 273.028C121.297 273.198 121.448 273.633 121.562 273.992C121.524 274.635 121.165 275.014 120.824 275.373C119.027 277.189 117.21 279.005 115.413 280.821C114.77 281.483 114.032 281.994 113.218 281.181C112.405 280.367 112.972 279.724 113.578 279.119C115.451 277.227 117.305 275.335 119.197 273.444C119.67 272.952 120.2 272.782 120.824 273.028Z" fill="#FA0171"/>
<path d="M95.2063 293.325C101.28 293.325 106.123 298.225 106.104 304.373C106.104 310.351 101.128 315.212 95.1306 315.193C89.1518 315.156 84.2894 310.218 84.3083 304.203C84.3083 298.149 89.1518 293.325 95.2063 293.307V293.325ZM95.1685 312.677C99.785 312.677 103.569 308.875 103.569 304.24C103.569 299.568 99.8039 295.841 95.1495 295.879C90.4952 295.917 86.8247 299.663 86.8436 304.354C86.8814 308.913 90.6276 312.658 95.1685 312.677Z" fill="#FA0171"/>
<path d="M103.569 304.222C103.569 308.856 99.7849 312.677 95.1684 312.658C90.6276 312.658 86.8625 308.894 86.8436 304.335C86.8057 299.644 90.4762 295.898 95.1495 295.86C99.8228 295.822 103.55 299.549 103.569 304.222Z" fill="#FFB3D3"/>
<path d="M96.4739 271.798C96.4739 273.103 96.4739 274.39 96.4739 275.695C96.4739 276.546 96.209 277.227 95.263 277.246C94.2224 277.284 93.9575 276.565 93.9575 275.657V267.712C93.9575 266.842 94.2602 266.161 95.1684 266.142C96.1712 266.142 96.4928 266.842 96.4739 267.769C96.4739 269.112 96.4739 270.455 96.4739 271.817V271.798Z" fill="#FA0171"/>
<path d="M77.6105 280.216C77.6484 280.821 77.4024 281.181 76.9672 281.427C76.4753 281.673 75.9266 281.673 75.5482 281.313C73.4292 279.195 71.3101 277.038 69.2478 274.863C68.7559 274.371 68.8694 273.728 69.3802 273.236C69.8154 272.82 70.4776 272.744 70.8939 273.141C73.1075 275.317 75.2644 277.549 77.4402 279.762C77.5727 279.894 77.5727 280.121 77.6105 280.216Z" fill="#FA0171"/>
<path d="M174.936 76.6513C175.068 77.3323 175.163 78.0322 175.144 78.751C175.144 82.0804 173.574 84.7855 171.511 87.2447C168.276 91.1038 164.208 93.9602 160.027 96.7032C158.702 97.5734 157.756 97.5923 156.432 96.7032C152.421 94.0548 148.523 91.3308 145.326 87.6987C143.453 85.5611 141.863 83.2343 141.447 80.359C140.671 75.0812 143.528 69.7466 148.883 68.7251C152.288 68.0819 155.202 69.2358 157.529 71.7896C158.078 72.395 158.324 72.4328 158.892 71.7896C161.465 69.0088 164.662 67.8171 168.352 68.9143C172.117 70.0304 174.179 72.8301 174.917 76.6513H174.936ZM171.776 83.5559C173.025 81.4562 173.574 79.205 173.025 76.7648C172.344 73.7381 170.717 71.468 167.614 70.7114C164.435 69.9358 161.805 71.0519 159.8 73.6056C159.535 73.9272 159.327 74.3056 159.081 74.6272C158.57 75.3082 157.927 75.3082 157.416 74.6272C157.113 74.2299 156.848 73.7948 156.527 73.3976C154.464 70.7681 150.832 69.6898 147.994 70.9384C144.664 72.395 143.415 75.2136 143.226 78.6375C143.226 79.1294 143.264 79.5834 143.358 80.0752C143.755 82.2128 144.834 84.0099 146.158 85.6557C149.394 89.6472 153.537 92.5415 157.832 95.2466C158.248 95.5114 158.513 95.3033 158.816 95.1142C160.651 93.9791 162.467 92.7685 164.17 91.4443C167.103 89.1932 169.846 86.7529 171.757 83.5181L171.776 83.5559Z" fill="#FFB3D3"/>
<path d="M261.287 216.012C261.514 217.185 261.666 218.358 261.628 219.55C261.609 225.187 258.979 229.765 255.498 233.907C250.03 240.453 243.143 245.258 236.105 249.911C233.872 251.387 232.245 251.406 230.012 249.911C223.239 245.447 216.636 240.831 211.244 234.683C208.065 231.07 205.397 227.135 204.678 222.255C203.354 213.345 208.197 204.321 217.241 202.581C222.993 201.484 227.931 203.451 231.867 207.764C232.794 208.805 233.21 208.843 234.175 207.783C238.545 203.092 243.938 201.087 250.181 202.922C256.557 204.813 260.039 209.542 261.269 215.993L261.287 216.012ZM255.933 227.684C258.052 224.127 258.96 220.344 258.052 216.201C256.917 211.075 254.136 207.254 248.914 205.948C243.559 204.624 239.094 206.516 235.707 210.848C235.253 211.396 234.913 212.021 234.478 212.588C233.607 213.723 232.529 213.742 231.658 212.607C231.129 211.945 230.694 211.207 230.164 210.526C226.682 206.081 220.533 204.265 215.747 206.383C210.108 208.861 207.989 213.61 207.706 219.417C207.706 220.231 207.762 221.025 207.914 221.838C208.595 225.452 210.392 228.497 212.663 231.278C218.131 238.031 225.131 242.912 232.396 247.49C233.096 247.925 233.55 247.584 234.061 247.282C237.164 245.352 240.229 243.328 243.124 241.096C248.081 237.275 252.717 233.151 255.952 227.703L255.933 227.684Z" fill="#FC4193"/>
<path d="M150.832 130.129C155.599 138.774 153.575 149.273 146.083 155.724C139.801 161.115 132.517 163.026 124.362 161.512C123.776 161.399 123.284 161.512 122.773 161.758C118.289 163.896 113.616 164.539 108.715 163.631C107.958 163.48 107.069 163.385 106.918 162.42C106.766 161.494 107.504 161.153 108.167 160.775C109.699 159.905 111.061 158.788 112.367 157.616C113.218 156.84 113.332 156.386 112.367 155.535C108.961 152.584 106.577 148.933 105.612 144.468C103.853 136.296 106.369 129.467 112.499 123.981C117.248 119.725 122.981 117.871 130.076 117.739C138.628 118.193 146.234 121.73 150.869 130.129H150.832ZM141.088 156.329C152.629 149.519 154.218 134.594 144.38 125.854C136.812 119.158 124.722 118.363 116.359 124.057C110.872 127.821 107.618 132.929 107.542 139.701C107.466 146.038 110.286 150.995 115.167 154.854C116.889 156.216 116.945 156.84 115.243 158.297C114.202 159.186 113.086 159.98 111.988 160.813L112.14 161.172C115.526 161.342 118.838 160.926 121.94 159.413C122.868 158.959 123.738 158.883 124.741 159.053C130.511 160.132 135.979 159.28 141.069 156.291L141.088 156.329Z" fill="#FA0171"/>
<path d="M118.97 132.834H140.728" stroke="#FFB3D3" stroke-width="1.28" stroke-linecap="round" stroke-linejoin="round"/>
<path d="M119.557 140.761H141.315" stroke="#FFB3D3" stroke-width="1.28" stroke-linecap="round" stroke-linejoin="round"/>
<path d="M13.282 84.0099C20.3353 84.0099 26.0531 78.2931 26.0531 71.241C26.0531 64.189 20.3353 58.4721 13.282 58.4721C6.22869 58.4721 0.510864 64.189 0.510864 71.241C0.510864 78.2931 6.22869 84.0099 13.282 84.0099Z" stroke="#FFB3D3" stroke-width="0.55" stroke-miterlimit="10"/>
<path d="M26.9802 62.5582C24.7097 58.9072 21.0582 56.1454 16.5552 55.086L12.7522 71.4113L26.9802 62.5582Z" fill="#FFB3D3"/>
<path d="M58.1039 157.37V184.421H35.9673V157.37C35.9673 149.481 40.9244 143.068 47.0356 143.068L58.1039 157.37Z" fill="#FFB3D3" stroke="#FA0171" stroke-width="0.95" stroke-miterlimit="10"/>
<path d="M40.3379 187.637V212.985" stroke="#FA0171" stroke-width="0.95" stroke-miterlimit="10"/>
<path d="M52.6549 187.637V212.985" stroke="#FA0171" stroke-width="0.95" stroke-miterlimit="10"/>
<path d="M40.0919 123.925H52.4657V133.345C52.4657 136.769 49.6844 139.531 46.2788 139.531C42.8543 139.531 40.0919 136.75 40.0919 133.345V123.925Z" stroke="#FA0171" stroke-width="0.95" stroke-miterlimit="10"/>
<path d="M212.776 78.1646V92.5982H224.582V78.1646C224.582 73.9462 221.933 70.5411 218.679 70.5411L212.776 78.1646Z" fill="#FFB3D3" stroke="#FA0171" stroke-width="0.51" stroke-miterlimit="10"/>
<path d="M222.255 94.3197V107.826" stroke="#FA0171" stroke-width="0.51" stroke-miterlimit="10"/>
<path d="M215.69 94.3197V107.826" stroke="#FA0171" stroke-width="0.51" stroke-miterlimit="10"/>
<path d="M219.077 68.6494C217.26 68.6494 215.784 67.1739 215.784 65.3579V60.3449H222.388V65.3579C222.388 67.1739 220.912 68.6494 219.095 68.6494H219.077Z" stroke="#FA0171" stroke-width="0.51" stroke-miterlimit="10"/>
<path d="M184.055 260.618V275.052H172.249V260.618C172.249 256.4 174.898 252.995 178.152 252.995L184.055 260.618Z" fill="#FFB3D3" stroke="#FA0171" stroke-width="0.51" stroke-miterlimit="10"/>
<path d="M174.595 276.773V290.28" stroke="#FA0171" stroke-width="0.51" stroke-miterlimit="10"/>
<path d="M181.161 276.773V290.28" stroke="#FA0171" stroke-width="0.51" stroke-miterlimit="10"/>
<path d="M174.463 242.779H181.066V247.792C181.066 249.608 179.59 251.084 177.774 251.084C175.957 251.084 174.482 249.608 174.482 247.792V242.779H174.463Z" stroke="#FA0171" stroke-width="0.51" stroke-miterlimit="10"/>
<path d="M27.2914 332.538L17.4849 322.733L7.67836 332.538L17.4849 342.343L27.2914 332.538Z" stroke="#FFB3D3" stroke-width="1.21" stroke-miterlimit="10"/>
<path d="M255.951 298.198L246.144 288.393L236.338 298.198L246.144 308.003L255.951 298.198Z" stroke="#FFB3D3" stroke-width="1.21" stroke-miterlimit="10"/>
<path d="M150.555 11.4174L140.749 1.61255L130.942 11.4173L140.749 21.2222L150.555 11.4174Z" stroke="#FFB3D3" stroke-width="1.21" stroke-miterlimit="10"/>
<path d="M244.184 159.923L258.412 138.074L272.621 159.923H244.184Z" stroke="#FFB3D3" stroke-width="1.21" stroke-miterlimit="10"/>
<path d="M198.567 406.013L212.776 384.164L226.985 406.013H198.567Z" stroke="#FFB3D3" stroke-width="1.21" stroke-miterlimit="10"/>
<path d="M146.234 350.398H127.238V369.39H146.234V350.398Z" fill="#FFB3D3"/>
<path d="M119.996 204H101V222.993H119.996V204Z" fill="#FFB3D3"/>
<path d="M182.977 341.337C182.977 346.581 187.229 350.833 192.475 350.833C197.72 350.833 201.973 346.581 201.973 341.337C201.973 336.092 197.72 331.84 192.475 331.84C187.229 331.84 182.977 336.092 182.977 341.337Z" fill="#FA0171"/>
<path d="M133.728 419.558C133.728 424.803 137.98 429.054 143.226 429.054C148.471 429.054 152.724 424.803 152.724 419.558C152.724 414.313 148.471 410.062 143.226 410.062C137.98 410.062 133.728 414.313 133.728 419.558Z" stroke="#FA0171" stroke-miterlimit="10"/>
</g>
<defs>
<clipPath id="clip0_64_2756">
<rect width="328" height="430" fill="white"/>
</clipPath>
</defs>
</svg>
