<?xml version="1.0" encoding="utf-8"?>
<!-- Generator: Adobe Illustrator 16.0.0, SVG Export Plug-In . SVG Version: 6.00 Build 0)  -->
<!DOCTYPE svg PUBLIC "-//W3C//DTD SVG 1.1//EN" "http://www.w3.org/Graphics/SVG/1.1/DTD/svg11.dtd">
<svg version="1.1" id="Layer_1" xmlns="http://www.w3.org/2000/svg" xmlns:xlink="http://www.w3.org/1999/xlink" x="0px" y="0px"
	 width="550px" height="700px" viewBox="0 0 550 700" enable-background="new 0 0 550 700" xml:space="preserve">
<g>
	<linearGradient id="SVGID_1_" gradientUnits="userSpaceOnUse" x1="248.6846" y1="556.1426" x2="362.3149" y2="556.1426">
		<stop  offset="0" style="stop-color:#A5C5FF"/>
		<stop  offset="1" style="stop-color:#77A4F9"/>
	</linearGradient>
	<path fill="url(#SVGID_1_)" d="M513.816,548.257h0.084v-19.408h-49.646l-173.189-99.982c-8.836-5.098-23.289-5.098-32.129,0
		L85.751,528.849H36.183v19.408c-0.506,3.703,1.663,7.514,6.541,10.326l216.212,124.832c8.84,5.104,23.293,5.104,32.129,0
		l216.213-124.832C512.152,555.771,514.324,551.96,513.816,548.257z"/>
	<path fill="#EFF7FF" d="M291.064,394.382c-8.836-5.098-23.289-5.098-32.129,0L42.724,519.206c-8.834,5.105-8.834,13.453,0,18.555
		l216.212,124.827c8.84,5.104,23.293,5.104,32.129,0l216.213-124.827c8.832-5.102,8.832-13.449,0-18.555L291.064,394.382z"/>
	<linearGradient id="SVGID_2_" gradientUnits="userSpaceOnUse" x1="301.5381" y1="591.1543" x2="301.5381" y2="447.0104">
		<stop  offset="0" style="stop-color:#A5C5FF;stop-opacity:0"/>
		<stop  offset="1" style="stop-color:#77A4F9"/>
	</linearGradient>
	<path opacity="0.5" fill="url(#SVGID_2_)" d="M456.387,550.97l-63.736-36.584l15.061-8.695
		c11.908-6.875,11.894-18.101-0.031-24.945l-63.212-36.281c-11.925-6.845-31.425-6.82-43.333,0.055l-145.523,84.02
		c-11.908,6.875-11.894,18.1,0.032,24.945l63.212,36.281c11.926,6.845,31.425,6.82,43.332-0.055l55.861-32.252l63.719,36.572
		L456.387,550.97z"/>
	<linearGradient id="SVGID_3_" gradientUnits="userSpaceOnUse" x1="387.7041" y1="561.3359" x2="433.6466" y2="653.6712">
		<stop  offset="0" style="stop-color:#A5C5FF"/>
		<stop  offset="1" style="stop-color:#0067DC"/>
	</linearGradient>
	<path fill="url(#SVGID_3_)" d="M381.725,591.736L381.725,591.736c-5.126,0-9.952-1.149-13.589-3.237l-45.073-25.87
		c-3.865-2.218-5.996-5.258-6-8.56c-0.004-3.301,2.119-6.346,5.979-8.574l48.621-28.072c3.653-2.109,8.506-3.271,13.662-3.271
		c5.124,0,9.949,1.149,13.584,3.236L444,543.27c3.865,2.218,5.996,5.258,6,8.559s-2.12,6.345-5.979,8.573l-48.637,28.066
		C391.73,590.575,386.881,591.736,381.725,591.736z M385.324,516.652c-4.725,0-9.133,1.043-12.412,2.937l-48.621,28.071
		c-3.053,1.763-4.731,4.037-4.729,6.406s1.688,4.64,4.744,6.395l45.073,25.87c3.265,1.873,7.648,2.905,12.345,2.905
		c4.724,0.001,9.131-1.042,12.409-2.935l48.637-28.066c3.052-1.762,4.731-4.035,4.729-6.404c-0.004-2.369-1.688-4.639-4.744-6.394
		l-45.092-25.881C394.401,517.685,390.019,516.652,385.324,516.652z"/>
	<linearGradient id="SVGID_4_" gradientUnits="userSpaceOnUse" x1="192.4951" y1="572.6621" x2="128.8009" y2="608.769">
		<stop  offset="0" style="stop-color:#A5C5FF"/>
		<stop  offset="1" style="stop-color:#0067DC"/>
	</linearGradient>
	<path fill="url(#SVGID_4_)" d="M328.215,513.294c-1.178,0-2.281,0.187-3.236,0.508l-24.042-13.879
		c-7.508-4.334-19.724-4.334-27.231,0l-148.261,85.596l2.5,1.443l147.011-84.875c6.703-3.869,18.028-3.869,24.731,0l22.824,13.178
		c-0.521,0.549-0.82,1.179-0.82,1.85c0,2.107,2.927,3.82,6.524,3.82s6.524-1.713,6.524-3.82
		C334.739,515.009,331.812,513.294,328.215,513.294z"/>
	<linearGradient id="SVGID_5_" gradientUnits="userSpaceOnUse" x1="280.209" y1="611.4219" x2="230.1055" y2="631.707">
		<stop  offset="0" style="stop-color:#A5C5FF"/>
		<stop  offset="1" style="stop-color:#0067DC"/>
	</linearGradient>
	<path fill="url(#SVGID_5_)" d="M320.392,584.873c-3.598,0-6.524,1.715-6.524,3.82c0,0.671,0.299,1.302,0.82,1.851l-90.271,52.115
		l2.5,1.443l90.237-52.097c0.955,0.321,2.059,0.508,3.237,0.508c3.598,0,6.524-1.713,6.524-3.82
		C326.916,586.588,323.989,584.873,320.392,584.873z"/>
	<linearGradient id="SVGID_6_" gradientUnits="userSpaceOnUse" x1="117.6875" y1="510.0225" x2="65.5555" y2="532.5387">
		<stop  offset="0" style="stop-color:#A5C5FF"/>
		<stop  offset="1" style="stop-color:#0067DC"/>
	</linearGradient>
	<path fill="url(#SVGID_6_)" d="M138.688,506.804l-37.24-21.5l-2.5,1.443l38.49,22.221c3.052,1.763,4.733,4.042,4.733,6.418
		s-1.681,4.655-4.733,6.418L76.26,557.123l2.5,1.443l59.928-34.599c3.858-2.227,5.983-5.275,5.983-8.582
		S142.546,509.03,138.688,506.804z"/>
	<linearGradient id="SVGID_7_" gradientUnits="userSpaceOnUse" x1="463.4824" y1="504.3477" x2="520.2339" y2="466.5137">
		<stop  offset="0" style="stop-color:#A5C5FF"/>
		<stop  offset="1" style="stop-color:#0067DC"/>
	</linearGradient>
	<path fill="url(#SVGID_7_)" d="M449.739,515.461l25.524-14.737l-2.5-1.442l-25.492,14.717c-0.955-0.321-2.059-0.508-3.236-0.508
		c-3.598,0-6.524,1.715-6.524,3.82c0,2.107,2.927,3.82,6.524,3.82s6.524-1.713,6.524-3.82
		C450.56,516.64,450.26,516.01,449.739,515.461z"/>
	<polygon opacity="0.4" fill="#0067DC" points="226.917,644.103 226.917,664.929 224.417,663.485 224.417,642.659 	"/>
	<polygon opacity="0.4" fill="#0067DC" points="127.944,586.942 127.944,607.769 125.444,606.325 125.444,585.499 	"/>
	<polygon opacity="0.4" fill="#0067DC" points="78.76,558.566 78.76,579.394 76.26,577.95 76.26,557.123 	"/>
	<rect x="52.746" y="445.563" fill="#FFFFFF" width="17.413" height="17.412"/>
	<g>
		<linearGradient id="SVGID_8_" gradientUnits="userSpaceOnUse" x1="167.2002" y1="472.7754" x2="188.9501" y2="472.7754">
			<stop  offset="0" style="stop-color:#A5C5FF;stop-opacity:0"/>
			<stop  offset="1" style="stop-color:#77A4F9"/>
		</linearGradient>
		<polygon opacity="0.5" fill="url(#SVGID_8_)" points="212.803,447.912 255.867,472.775 221.641,497.64 212.803,497.64 
			169.738,472.775 		"/>
		<linearGradient id="SVGID_9_" gradientUnits="userSpaceOnUse" x1="237.3691" y1="478.9336" x2="250.201" y2="442.577">
			<stop  offset="0" style="stop-color:#364A68"/>
			<stop  offset="0.9971" style="stop-color:#172A3F"/>
		</linearGradient>
		<polygon fill="url(#SVGID_9_)" points="264.705,472.776 221.641,497.64 221.641,452.206 264.705,427.343 		"/>
		<linearGradient id="SVGID_10_" gradientUnits="userSpaceOnUse" x1="190.9424" y1="457.4473" x2="221.5009" y2="474.2636">
			<stop  offset="0" style="stop-color:#364A68"/>
			<stop  offset="0.9971" style="stop-color:#172A3F"/>
		</linearGradient>
		<polygon fill="url(#SVGID_10_)" points="178.575,472.776 221.641,497.64 221.641,452.206 178.575,427.343 		"/>
		<linearGradient id="SVGID_11_" gradientUnits="userSpaceOnUse" x1="221.6401" y1="417.0977" x2="221.6401" y2="439.8834">
			<stop  offset="0" style="stop-color:#364A68"/>
			<stop  offset="0.9971" style="stop-color:#556F93"/>
		</linearGradient>
		<polygon fill="url(#SVGID_11_)" points="221.641,402.479 264.705,427.343 221.641,452.206 178.575,427.343 		"/>
		<linearGradient id="SVGID_12_" gradientUnits="userSpaceOnUse" x1="221.6401" y1="440.9668" x2="221.6401" y2="417.7768">
			<stop  offset="0" style="stop-color:#364A68"/>
			<stop  offset="0.9971" style="stop-color:#556F93"/>
		</linearGradient>
		<polygon fill="url(#SVGID_12_)" points="181.815,427.343 221.641,404.351 261.465,427.343 221.641,450.337 		"/>
		<g opacity="0.4">
			<g>
				<linearGradient id="SVGID_13_" gradientUnits="userSpaceOnUse" x1="185.3188" y1="436.1045" x2="185.3188" y2="464.4953">
					<stop  offset="0" style="stop-color:#364A68"/>
					<stop  offset="0.9971" style="stop-color:#172A3F"/>
				</linearGradient>
				<path fill="url(#SVGID_13_)" d="M183.486,468.745c0,0.891,0.631,1.984,1.403,2.43l0.859,0.496
					c0.771,0.445,1.402,0.081,1.402-0.81v-29.728c0-0.892-0.631-1.984-1.402-2.43l-0.859-0.496c-0.772-0.445-1.403-0.08-1.403,0.811
					V468.745z"/>
			</g>
			<g>
				<linearGradient id="SVGID_14_" gradientUnits="userSpaceOnUse" x1="192.6479" y1="440.3359" x2="192.6479" y2="468.7284">
					<stop  offset="0" style="stop-color:#364A68"/>
					<stop  offset="0.9971" style="stop-color:#172A3F"/>
				</linearGradient>
				<path fill="url(#SVGID_14_)" d="M190.815,472.978c0,0.891,0.632,1.984,1.403,2.43l0.858,0.496
					c0.772,0.445,1.403,0.08,1.403-0.811v-29.728c0-0.892-0.631-1.984-1.403-2.43l-0.858-0.495
					c-0.771-0.445-1.403-0.082-1.403,0.809V472.978z"/>
			</g>
			<g>
				<linearGradient id="SVGID_15_" gradientUnits="userSpaceOnUse" x1="199.9771" y1="444.5146" x2="199.9771" y2="472.9071">
					<stop  offset="0" style="stop-color:#364A68"/>
					<stop  offset="0.9971" style="stop-color:#172A3F"/>
				</linearGradient>
				<path fill="url(#SVGID_15_)" d="M198.145,477.155c0,0.891,0.631,1.984,1.402,2.43l0.859,0.497
					c0.771,0.445,1.403,0.081,1.403-0.81v-29.729c0-0.891-0.631-1.984-1.403-2.43l-0.859-0.495c-0.771-0.446-1.402-0.081-1.402,0.81
					V477.155z"/>
			</g>
			<g>
				<linearGradient id="SVGID_16_" gradientUnits="userSpaceOnUse" x1="207.3057" y1="448.7461" x2="207.3057" y2="477.1385">
					<stop  offset="0" style="stop-color:#364A68"/>
					<stop  offset="0.9971" style="stop-color:#172A3F"/>
				</linearGradient>
				<path fill="url(#SVGID_16_)" d="M205.474,481.388c0,0.891,0.631,1.984,1.402,2.43l0.859,0.496
					c0.771,0.445,1.402,0.081,1.402-0.811v-29.727c0-0.891-0.631-1.984-1.402-2.43l-0.859-0.496
					c-0.771-0.445-1.402-0.081-1.402,0.811V481.388z"/>
			</g>
			<g>
				<linearGradient id="SVGID_17_" gradientUnits="userSpaceOnUse" x1="214.6348" y1="452.7959" x2="214.6348" y2="481.1876">
					<stop  offset="0" style="stop-color:#364A68"/>
					<stop  offset="0.9971" style="stop-color:#172A3F"/>
				</linearGradient>
				<path fill="url(#SVGID_17_)" d="M214.205,454.899c-0.771-0.445-1.402-0.08-1.402,0.811v29.727c0,0.892,0.631,1.985,1.402,2.43
					l0.859,0.496c0.771,0.445,1.402,0.082,1.402-0.81v-29.728c0-0.891-0.631-1.984-1.402-2.43L214.205,454.899z"/>
			</g>
		</g>
		<g>
			<path fill="#FFFFFF" d="M252.521,470.624l-0.637-1.102l4.014-5.423v-19.212l-4.152-0.801l0.635-1.837l4.473,0.86
				c0.197,0.038,0.316,0.248,0.318,0.551v20.211c-0.002,0.303-0.122,0.652-0.318,0.918L252.521,470.624z M234.192,481.135
				l-4.231-0.819c-0.197-0.035-0.318-0.246-0.318-0.551v-20.184c0-0.303,0.121-0.654,0.318-0.92l4.328-5.857l0.637,1.104l-4.01,5.42
				v19.211l3.913,0.759L234.192,481.135z"/>
			<path fill="#FFFFFF" d="M234.748,466.534v6.666l4.327,0.836l4.332-5.836l4.329,0.835l4.327-5.832l-0.001-6.667l-4.326-0.834
				v6.667l-4.329-0.835l-4.332,5.834v-6.666L234.748,466.534z"/>
		</g>
	</g>
	<g>
		<linearGradient id="SVGID_18_" gradientUnits="userSpaceOnUse" x1="114.853" y1="503.7842" x2="136.6031" y2="503.7842">
			<stop  offset="0" style="stop-color:#A5C5FF;stop-opacity:0"/>
			<stop  offset="1" style="stop-color:#77A4F9"/>
		</linearGradient>
		<polygon opacity="0.5" fill="url(#SVGID_18_)" points="160.456,478.921 203.521,503.784 169.293,528.647 160.456,528.647 
			117.391,503.784 		"/>
		<linearGradient id="SVGID_19_" gradientUnits="userSpaceOnUse" x1="185.0225" y1="509.9414" x2="197.854" y2="473.5859">
			<stop  offset="0" style="stop-color:#38D611"/>
			<stop  offset="0.9995" style="stop-color:#009C00"/>
		</linearGradient>
		<polygon fill="url(#SVGID_19_)" points="212.357,503.784 169.293,528.647 169.293,483.216 212.357,458.353 		"/>
		<linearGradient id="SVGID_20_" gradientUnits="userSpaceOnUse" x1="126.228" y1="493.5" x2="169.293" y2="493.5">
			<stop  offset="0" style="stop-color:#38D611"/>
			<stop  offset="0.9995" style="stop-color:#009C00"/>
		</linearGradient>
		<polygon fill="url(#SVGID_20_)" points="126.228,503.784 169.293,528.647 169.293,483.216 126.228,458.353 		"/>
		<linearGradient id="SVGID_21_" gradientUnits="userSpaceOnUse" x1="169.2925" y1="451.2871" x2="169.2925" y2="481.7977">
			<stop  offset="0" style="stop-color:#38D611"/>
			<stop  offset="0.9995" style="stop-color:#BCF0A7"/>
		</linearGradient>
		<polygon fill="url(#SVGID_21_)" points="169.293,433.487 212.357,458.353 169.293,483.216 126.228,458.353 		"/>
		<linearGradient id="SVGID_22_" gradientUnits="userSpaceOnUse" x1="169.2925" y1="478.8311" x2="169.2925" y2="433.3477">
			<stop  offset="0" style="stop-color:#38D611"/>
			<stop  offset="0.9995" style="stop-color:#BCF0A7"/>
		</linearGradient>
		<polygon fill="url(#SVGID_22_)" points="129.468,458.353 169.293,435.358 209.117,458.353 169.293,481.345 		"/>
		<g opacity="0.6">
			<g>
				<linearGradient id="SVGID_23_" gradientUnits="userSpaceOnUse" x1="132.9712" y1="467.1133" x2="132.9712" y2="495.5049">
					<stop  offset="0" style="stop-color:#38D611"/>
					<stop  offset="0.9995" style="stop-color:#009C00"/>
				</linearGradient>
				<path fill="url(#SVGID_23_)" d="M131.139,499.754c0,0.892,0.631,1.984,1.403,2.43l0.859,0.497
					c0.772,0.444,1.403,0.08,1.403-0.811v-29.729c0-0.891-0.631-1.983-1.403-2.43l-0.859-0.495c-0.772-0.444-1.403-0.081-1.403,0.81
					V499.754z"/>
			</g>
			<g>
				<linearGradient id="SVGID_24_" gradientUnits="userSpaceOnUse" x1="140.3003" y1="471.3438" x2="140.3003" y2="499.7362">
					<stop  offset="0" style="stop-color:#38D611"/>
					<stop  offset="0.9995" style="stop-color:#009C00"/>
				</linearGradient>
				<path fill="url(#SVGID_24_)" d="M138.468,503.985c0,0.891,0.631,1.984,1.403,2.43l0.859,0.496
					c0.772,0.445,1.403,0.081,1.403-0.81v-29.728c0-0.891-0.631-1.984-1.403-2.43l-0.859-0.496c-0.771-0.445-1.403-0.08-1.403,0.811
					V503.985z"/>
			</g>
			<g>
				<linearGradient id="SVGID_25_" gradientUnits="userSpaceOnUse" x1="147.6294" y1="475.5234" x2="147.6294" y2="503.9159">
					<stop  offset="0" style="stop-color:#38D611"/>
					<stop  offset="0.9995" style="stop-color:#009C00"/>
				</linearGradient>
				<path fill="url(#SVGID_25_)" d="M145.797,508.164c0,0.892,0.631,1.985,1.403,2.431l0.859,0.496
					c0.771,0.445,1.403,0.08,1.403-0.811v-29.728c0-0.892-0.631-1.984-1.403-2.43l-0.859-0.495
					c-0.771-0.445-1.403-0.081-1.403,0.811V508.164z"/>
			</g>
			<g>
				<linearGradient id="SVGID_26_" gradientUnits="userSpaceOnUse" x1="154.9585" y1="479.7549" x2="154.9585" y2="508.1473">
					<stop  offset="0" style="stop-color:#38D611"/>
					<stop  offset="0.9995" style="stop-color:#009C00"/>
				</linearGradient>
				<path fill="url(#SVGID_26_)" d="M153.126,512.397c0,0.89,0.632,1.982,1.403,2.43l0.859,0.495
					c0.772,0.446,1.403,0.081,1.403-0.81v-29.728c0-0.891-0.631-1.983-1.403-2.431l-0.859-0.495
					c-0.771-0.446-1.403-0.081-1.403,0.81V512.397z"/>
			</g>
			<g>
				<linearGradient id="SVGID_27_" gradientUnits="userSpaceOnUse" x1="162.2876" y1="483.8047" x2="162.2876" y2="512.1971">
					<stop  offset="0" style="stop-color:#38D611"/>
					<stop  offset="0.9995" style="stop-color:#009C00"/>
				</linearGradient>
				<path fill="url(#SVGID_27_)" d="M161.858,485.909c-0.772-0.445-1.403-0.082-1.403,0.81v29.727c0,0.892,0.631,1.985,1.403,2.431
					l0.858,0.496c0.771,0.445,1.403,0.08,1.403-0.811v-29.728c0-0.891-0.631-1.983-1.403-2.43L161.858,485.909z"/>
			</g>
		</g>
		<g>
			<path fill="#FFFFFF" d="M191.149,510.724l-11.343-2.188l-0.567,1.629l11.628,2.242c0.086,0.016,0.184-0.006,0.282-0.061
				c0.099-0.059,0.196-0.15,0.282-0.265l11.625-15.667l-0.564-0.977L191.149,510.724z"/>
			<path fill="#FFFFFF" d="M203.06,477.632l-11.628-2.242c-0.175-0.033-0.389,0.092-0.564,0.325l-11.628,15.669
				c-0.175,0.236-0.283,0.547-0.282,0.813v6.041l1.127-0.651v-5.609l11.065-14.904l11.065,2.127v5.528l1.127-0.651v-5.958
				C203.343,477.851,203.235,477.663,203.06,477.632z"/>
			<polygon fill="#FFFFFF" points="183.482,498.794 183.482,504.701 187.313,505.44 191.149,500.274 194.986,501.011 
				198.818,495.846 198.818,489.938 194.985,489.2 194.986,495.103 191.149,494.366 187.313,499.532 187.313,493.629 			"/>
		</g>
	</g>
	<g>
		<linearGradient id="SVGID_28_" gradientUnits="userSpaceOnUse" x1="63.2998" y1="533.8418" x2="85.0497" y2="533.8418">
			<stop  offset="0" style="stop-color:#A5C5FF;stop-opacity:0"/>
			<stop  offset="1" style="stop-color:#77A4F9"/>
		</linearGradient>
		<polygon opacity="0.5" fill="url(#SVGID_28_)" points="108.902,508.979 151.967,533.842 117.739,558.706 108.902,558.706 
			65.837,533.842 		"/>
		<linearGradient id="SVGID_29_" gradientUnits="userSpaceOnUse" x1="140.9551" y1="519.7305" x2="172.3651" y2="448.3132">
			<stop  offset="0" style="stop-color:#005DCF"/>
			<stop  offset="0.9995" style="stop-color:#00152B"/>
		</linearGradient>
		<polygon fill="url(#SVGID_29_)" points="160.804,533.843 117.739,558.706 117.739,513.272 160.804,488.409 		"/>
		<linearGradient id="SVGID_30_" gradientUnits="userSpaceOnUse" x1="86.4526" y1="517.6201" x2="139.6844" y2="550.022">
			<stop  offset="0" style="stop-color:#005DCF"/>
			<stop  offset="0.9995" style="stop-color:#00152B"/>
		</linearGradient>
		<polygon fill="url(#SVGID_30_)" points="74.674,533.843 117.739,558.706 117.739,513.272 74.674,488.409 		"/>
		<linearGradient id="SVGID_31_" gradientUnits="userSpaceOnUse" x1="117.7393" y1="481.3447" x2="117.7393" y2="511.8541">
			<stop  offset="0" style="stop-color:#0070E6"/>
			<stop  offset="0.9995" style="stop-color:#A5C5FF"/>
		</linearGradient>
		<polygon fill="url(#SVGID_31_)" points="117.739,463.546 160.804,488.409 117.739,513.272 74.674,488.409 		"/>
		<linearGradient id="SVGID_32_" gradientUnits="userSpaceOnUse" x1="117.7397" y1="508.8877" x2="117.7397" y2="463.4062">
			<stop  offset="0" style="stop-color:#0070E6"/>
			<stop  offset="0.9995" style="stop-color:#A5C5FF"/>
		</linearGradient>
		<polygon fill="url(#SVGID_32_)" points="77.915,488.409 117.739,465.417 157.564,488.409 117.739,511.401 		"/>
		<g opacity="0.5">
			<g>
				<linearGradient id="SVGID_33_" gradientUnits="userSpaceOnUse" x1="81.4185" y1="497.1699" x2="81.4185" y2="525.5616">
					<stop  offset="0" style="stop-color:#005DCF"/>
					<stop  offset="0.9995" style="stop-color:#00152B"/>
				</linearGradient>
				<path fill="url(#SVGID_33_)" d="M79.586,529.812c0,0.891,0.631,1.984,1.403,2.43l0.858,0.496
					c0.772,0.445,1.403,0.081,1.403-0.811V502.2c0-0.892-0.631-1.984-1.403-2.43l-0.858-0.496c-0.772-0.445-1.403-0.082-1.403,0.81
					V529.812z"/>
			</g>
			<g>
				<linearGradient id="SVGID_34_" gradientUnits="userSpaceOnUse" x1="88.7476" y1="501.4014" x2="88.7476" y2="529.7938">
					<stop  offset="0" style="stop-color:#005DCF"/>
					<stop  offset="0.9995" style="stop-color:#00152B"/>
				</linearGradient>
				<path fill="url(#SVGID_34_)" d="M86.915,534.043c0,0.891,0.631,1.984,1.403,2.43l0.859,0.496
					c0.772,0.445,1.403,0.081,1.403-0.81v-29.728c0-0.892-0.631-1.985-1.403-2.431l-0.859-0.495
					c-0.772-0.445-1.403-0.081-1.403,0.81V534.043z"/>
			</g>
			<g>
				<linearGradient id="SVGID_35_" gradientUnits="userSpaceOnUse" x1="96.0757" y1="505.5811" x2="96.0757" y2="533.9727">
					<stop  offset="0" style="stop-color:#005DCF"/>
					<stop  offset="0.9995" style="stop-color:#00152B"/>
				</linearGradient>
				<path fill="url(#SVGID_35_)" d="M94.244,538.222c0,0.891,0.631,1.984,1.403,2.43l0.859,0.496
					c0.771,0.445,1.403,0.082,1.403-0.809V510.61c0-0.891-0.631-1.984-1.403-2.43l-0.859-0.496c-0.771-0.445-1.403-0.08-1.403,0.811
					V538.222z"/>
			</g>
			<g>
				<linearGradient id="SVGID_36_" gradientUnits="userSpaceOnUse" x1="103.4053" y1="509.8125" x2="103.4053" y2="538.205">
					<stop  offset="0" style="stop-color:#005DCF"/>
					<stop  offset="0.9995" style="stop-color:#00152B"/>
				</linearGradient>
				<path fill="url(#SVGID_36_)" d="M101.573,542.454c0,0.891,0.631,1.984,1.402,2.43l0.859,0.496
					c0.771,0.445,1.402,0.08,1.402-0.811v-29.727c0-0.892-0.631-1.984-1.402-2.43l-0.859-0.496
					c-0.771-0.445-1.402-0.081-1.402,0.811V542.454z"/>
			</g>
			<g>
				<linearGradient id="SVGID_37_" gradientUnits="userSpaceOnUse" x1="110.7339" y1="513.8623" x2="110.7339" y2="542.2531">
					<stop  offset="0" style="stop-color:#005DCF"/>
					<stop  offset="0.9995" style="stop-color:#00152B"/>
				</linearGradient>
				<path fill="url(#SVGID_37_)" d="M110.305,515.966c-0.771-0.445-1.403-0.08-1.403,0.811v29.727c0,0.891,0.631,1.984,1.403,2.43
					l0.858,0.496c0.772,0.445,1.403,0.081,1.403-0.811v-29.727c0-0.892-0.631-1.984-1.403-2.43L110.305,515.966z"/>
			</g>
		</g>
		<path fill="#FFFFFF" d="M149.732,518.946l-0.001-6.585c0.729-0.726,1.135-1.993,0.907-2.833c-0.229-0.84-1.004-0.934-1.734-0.208
			c-0.237,0.236-0.451,0.544-0.617,0.888l-7.651-1.463c0.015-0.111,0.021-0.219,0.021-0.322c0.009-1.027-0.606-1.51-1.374-1.078
			c-0.766,0.432-1.395,1.615-1.403,2.642c-0.009,1.028,0.606,1.511,1.374,1.079c0.394-0.221,0.77-0.655,1.036-1.195l7.651,1.467
			c-0.017,0.109-0.026,0.217-0.028,0.32c0.001,0.832,0.421,1.32,1.026,1.188v6.584c-0.238,0.234-0.451,0.54-0.618,0.883
			l-7.716-1.488c0.143-1.079-0.35-1.758-1.099-1.516c-0.413,0.134-0.839,0.533-1.158,1.082l-4.321-0.834
			c0.168-1.091-0.3-1.808-1.044-1.602c-0.746,0.205-1.485,1.257-1.654,2.348c-0.022,0.144-0.033,0.284-0.034,0.42
			c0.002,0.158,0.021,0.307,0.056,0.439l-2.349,3.164c-0.122,0.164-0.197,0.38-0.197,0.566v2.881
			c-0.73,0.715-1.146,1.982-0.927,2.83c0.219,0.85,0.99,0.957,1.721,0.242c0.167-0.162,0.322-0.359,0.459-0.582l2.54,0.467v4.527
			l3.336,0.643l2.917-3.932l5.914,1.121c-0.042,0.201-0.062,0.4-0.062,0.588c0,0.152,0.015,0.295,0.043,0.428l-4.321,5.823
			c-0.423-0.604-1.281-0.339-1.917,0.593c-0.154,0.225-0.284,0.475-0.386,0.736l-7.663-1.473c0.079-0.281,0.12-0.561,0.12-0.818
			c-0.005-1.018-0.63-1.479-1.395-1.029c-0.766,0.449-1.382,1.639-1.376,2.656s0.63,1.477,1.396,1.028
			c0.26-0.152,0.515-0.399,0.734-0.712l7.951,1.521c0,1.022,0.622,1.493,1.39,1.05c0.767-0.443,1.388-1.631,1.388-2.654l4.469-6.045
			c0.251,0.169,0.582,0.155,0.926-0.041c0.766-0.438,1.388-1.623,1.391-2.645c0-1.021-0.618-1.494-1.383-1.055
			c-0.324,0.186-0.638,0.518-0.887,0.936l-2.207-0.446l2.96-3.972v-4.526l2.067,0.403c-0.009,0.096-0.015,0.191-0.015,0.283
			c-0.003,1.022,0.615,1.496,1.381,1.059c0.765-0.438,1.388-1.622,1.39-2.645c0.002-0.84-0.419-1.332-1.027-1.198V518.946z
			 M139.759,509.782c-0.349,0.553-0.847,0.75-1.111,0.436c-0.265-0.312-0.196-1.016,0.153-1.57c0.35-0.555,0.847-0.75,1.112-0.438
			c0.084,0.102,0.139,0.246,0.155,0.422v0.137C140.069,509.095,139.956,509.47,139.759,509.782z M129.947,537.688
			c-0.104,0.442-0.36,0.862-0.663,1.084l-0.086,0.05c-0.44,0.253-0.797-0.016-0.797-0.603c0-0.586,0.357-1.268,0.797-1.521
			c0.439-0.254,0.795,0.016,0.795,0.602c0,0.002,0,0.004,0,0.005C129.995,537.427,129.979,537.558,129.947,537.688z
			 M139.954,539.769c-0.228,0.63-0.715,1.07-1.09,0.982c-0.108-0.025-0.199-0.095-0.265-0.201c-0.08-0.119-0.122-0.289-0.12-0.484
			c0-0.227,0.054-0.477,0.154-0.716c0.263-0.622,0.762-1.009,1.114-0.86c0.2,0.082,0.32,0.326,0.321,0.658
			C140.071,539.341,140.031,539.557,139.954,539.769z M145.293,531.336v-0.145c0.043-0.394,0.227-0.812,0.485-1.103
			c0.099-0.109,0.203-0.197,0.309-0.256c0.439-0.291,0.816-0.064,0.844,0.506c0.028,0.568-0.306,1.266-0.746,1.557
			c-0.033,0.021-0.066,0.04-0.099,0.057c-0.136,0.078-0.269,0.107-0.387,0.087c-0.243-0.041-0.398-0.292-0.407-0.658V531.336z
			 M138.472,519.606c0.032-0.389,0.207-0.812,0.46-1.117c0.106-0.127,0.222-0.225,0.339-0.291c0.409-0.234,0.753-0.018,0.794,0.502
			c0.001,0.033,0.001,0.066,0,0.104c-0.028,0.6-0.406,1.264-0.845,1.48c-0.4,0.197-0.721-0.043-0.745-0.563
			C138.469,519.683,138.472,519.644,138.472,519.606z M131.895,518.384c-0.005-0.584,0.348-1.268,0.788-1.528
			c0.439-0.261,0.8,0,0.805,0.585v0.023c-0.001,0.587-0.356,1.266-0.796,1.521c-0.137,0.081-0.273,0.109-0.392,0.086
			c-0.244-0.042-0.397-0.294-0.405-0.662V518.384z M129.981,527.036c-0.045,0.402-0.238,0.828-0.506,1.115
			c-0.089,0.098-0.183,0.176-0.278,0.23c-0.438,0.251-0.793-0.02-0.793-0.604c-0.001-0.381,0.153-0.82,0.402-1.15
			c0.242-0.326,0.541-0.499,0.783-0.451c0.25,0.041,0.404,0.303,0.404,0.684C129.994,526.916,129.99,526.976,129.981,527.036z
			 M142.602,524.894l-3.331-0.641l-2.972,3.986l-0.364,0.49v-5.118l-2.969,3.997l-2.468-0.463c0.241-1.107-0.154-1.925-0.88-1.826
			c-0.016,0.002-0.031,0.004-0.046,0.008v-2.594l2.161-2.894c0.541,0.364,1.384-0.136,1.913-1.134l4.279,0.823
			c-0.041,0.193-0.061,0.382-0.059,0.561c0,1.019,0.62,1.485,1.384,1.043c0.378-0.22,0.741-0.636,1.001-1.153l2.336,0.449
			L142.602,524.894z M148.531,511.454v-0.136c0.003-0.586,0.358-1.263,0.796-1.518c0.44-0.259,0.799,0.007,0.802,0.591
			c0.003,0.584-0.351,1.268-0.791,1.525c-0.129,0.076-0.257,0.109-0.373,0.096C148.73,511.991,148.567,511.782,148.531,511.454z
			 M149.386,521.985c-0.395,0.24-0.736,0.057-0.797-0.43c-0.002-0.055-0.002-0.113,0.001-0.172
			c-0.001-0.363,0.138-0.781,0.367-1.109c0.127-0.182,0.276-0.324,0.426-0.41c0.439-0.291,0.817-0.064,0.844,0.504
			c0.027,0.57-0.306,1.268-0.745,1.557c-0.033,0.022-0.066,0.041-0.099,0.059L149.386,521.985L149.386,521.985z"/>
	</g>
	<g>
		<linearGradient id="SVGID_38_" gradientUnits="userSpaceOnUse" x1="148.6172" y1="586.3018" x2="170.3673" y2="586.3018">
			<stop  offset="0" style="stop-color:#A5C5FF;stop-opacity:0"/>
			<stop  offset="1" style="stop-color:#77A4F9"/>
		</linearGradient>
		<polygon opacity="0.5" fill="url(#SVGID_38_)" points="194.22,561.438 237.285,586.302 203.057,611.165 194.22,611.165 
			151.155,586.302 		"/>
		<linearGradient id="SVGID_39_" gradientUnits="userSpaceOnUse" x1="218.7852" y1="592.459" x2="231.617" y2="556.1027">
			<stop  offset="0" style="stop-color:#38D611"/>
			<stop  offset="0.9995" style="stop-color:#009C00"/>
		</linearGradient>
		<polygon fill="url(#SVGID_39_)" points="246.121,586.302 203.057,611.165 203.057,565.731 246.121,540.868 		"/>
		<linearGradient id="SVGID_40_" gradientUnits="userSpaceOnUse" x1="159.9927" y1="576.0166" x2="203.0571" y2="576.0166">
			<stop  offset="0" style="stop-color:#38D611"/>
			<stop  offset="0.9995" style="stop-color:#009C00"/>
		</linearGradient>
		<polygon fill="url(#SVGID_40_)" points="159.993,586.302 203.057,611.165 203.057,565.731 159.993,540.868 		"/>
		<linearGradient id="SVGID_41_" gradientUnits="userSpaceOnUse" x1="203.0571" y1="533.8037" x2="203.0571" y2="564.3131">
			<stop  offset="0" style="stop-color:#38D611"/>
			<stop  offset="0.9995" style="stop-color:#BCF0A7"/>
		</linearGradient>
		<polygon fill="url(#SVGID_41_)" points="203.057,516.005 246.121,540.868 203.057,565.731 159.993,540.868 		"/>
		<linearGradient id="SVGID_42_" gradientUnits="userSpaceOnUse" x1="203.0571" y1="561.3486" x2="203.0571" y2="515.8652">
			<stop  offset="0" style="stop-color:#38D611"/>
			<stop  offset="0.9995" style="stop-color:#BCF0A7"/>
		</linearGradient>
		<polygon fill="url(#SVGID_42_)" points="163.232,540.868 203.057,517.876 242.882,540.868 203.057,563.862 		"/>
		<g opacity="0.6">
			<g>
				<linearGradient id="SVGID_43_" gradientUnits="userSpaceOnUse" x1="166.7358" y1="549.6289" x2="166.7358" y2="578.0214">
					<stop  offset="0" style="stop-color:#38D611"/>
					<stop  offset="0.9995" style="stop-color:#009C00"/>
				</linearGradient>
				<path fill="url(#SVGID_43_)" d="M164.903,582.271c0,0.891,0.632,1.984,1.403,2.43l0.859,0.496
					c0.771,0.445,1.403,0.082,1.403-0.81v-29.728c0-0.891-0.631-1.984-1.403-2.43l-0.859-0.496
					c-0.771-0.445-1.403-0.081-1.403,0.811V582.271z"/>
			</g>
			<g>
				<linearGradient id="SVGID_44_" gradientUnits="userSpaceOnUse" x1="174.0649" y1="553.8613" x2="174.0649" y2="582.253">
					<stop  offset="0" style="stop-color:#38D611"/>
					<stop  offset="0.9995" style="stop-color:#009C00"/>
				</linearGradient>
				<path fill="url(#SVGID_44_)" d="M172.232,586.503c0,0.891,0.632,1.984,1.403,2.43l0.858,0.496
					c0.772,0.445,1.403,0.08,1.403-0.811v-29.727c0-0.892-0.631-1.984-1.403-2.43l-0.858-0.496c-0.771-0.445-1.403-0.082-1.403,0.81
					V586.503z"/>
			</g>
			<g>
				<linearGradient id="SVGID_45_" gradientUnits="userSpaceOnUse" x1="181.394" y1="558.04" x2="181.394" y2="586.4317">
					<stop  offset="0" style="stop-color:#38D611"/>
					<stop  offset="0.9995" style="stop-color:#009C00"/>
				</linearGradient>
				<path fill="url(#SVGID_45_)" d="M179.562,590.681c0,0.893,0.631,1.984,1.403,2.431l0.859,0.495
					c0.772,0.446,1.403,0.082,1.403-0.809V563.07c0-0.892-0.631-1.985-1.403-2.431l-0.859-0.495
					c-0.772-0.446-1.403-0.081-1.403,0.81V590.681z"/>
			</g>
			<g>
				<linearGradient id="SVGID_46_" gradientUnits="userSpaceOnUse" x1="188.7231" y1="562.2725" x2="188.7231" y2="590.6633">
					<stop  offset="0" style="stop-color:#38D611"/>
					<stop  offset="0.9995" style="stop-color:#009C00"/>
				</linearGradient>
				<path fill="url(#SVGID_46_)" d="M186.891,594.913c0,0.891,0.631,1.984,1.403,2.43l0.858,0.496
					c0.771,0.445,1.403,0.081,1.403-0.811v-29.727c0-0.891-0.631-1.984-1.403-2.43l-0.858-0.496
					c-0.772-0.445-1.403-0.08-1.403,0.811V594.913z"/>
			</g>
			<g>
				<linearGradient id="SVGID_47_" gradientUnits="userSpaceOnUse" x1="196.0522" y1="566.3213" x2="196.0522" y2="594.713">
					<stop  offset="0" style="stop-color:#38D611"/>
					<stop  offset="0.9995" style="stop-color:#009C00"/>
				</linearGradient>
				<path fill="url(#SVGID_47_)" d="M195.623,568.426c-0.771-0.446-1.402-0.081-1.402,0.81v29.728c0,0.892,0.631,1.984,1.402,2.43
					l0.859,0.495c0.771,0.445,1.402,0.082,1.402-0.809v-29.729c0-0.891-0.631-1.984-1.402-2.43L195.623,568.426z"/>
			</g>
		</g>
		<g>
			<polygon fill="#FFFFFF" points="233.449,571.373 229.71,570.653 229.71,571.161 229.531,570.855 228.758,571.911 
				228.977,572.292 229.71,571.296 229.71,576.409 229.257,576.323 229.261,576.313 228.5,576.167 228.496,576.177 227.734,576.03 
				227.737,576.022 226.974,575.876 226.972,575.884 226.396,575.772 226.7,575.364 226.48,574.981 226.197,575.364 
				226.203,574.915 225.764,575.169 225.764,575.638 225.449,575.576 225.23,576.212 225.538,576.272 224.963,577.047 
				224.957,577.036 224.193,578.063 224.2,578.074 223.443,579.093 223.44,579.089 222.681,580.112 222.684,580.116 
				222.229,580.729 222.229,575.636 222.943,575.775 223.149,575.13 222.387,574.981 222.229,575.479 222.229,574.974 
				218.488,580.011 218.488,585.763 218.113,586.271 218.333,586.647 218.924,585.854 222.229,586.489 225.971,581.45 
				229.71,582.17 233.021,577.71 233.615,577.825 233.842,577.19 233.449,577.112 			"/>
			<path fill="#FFFFFF" d="M237.539,560.003l-11.299-2.174c-0.168-0.032-0.377,0.088-0.547,0.316l-11.299,15.221
				c-0.17,0.229-0.273,0.532-0.273,0.793v17.395c0,0.262,0.104,0.443,0.273,0.477l11.299,2.174c0.084,0.018,0.178-0.004,0.273-0.059
				s0.191-0.145,0.273-0.258l11.299-15.221c0.17-0.229,0.274-0.531,0.274-0.793V560.48
				C237.813,560.219,237.709,560.036,237.539,560.003z M226.19,592.263l0.013-0.916l-0.439,0.254v0.924l-10.326-1.986l0.596-0.801
				l-0.22-0.382l-0.595,0.803V574.29l0.102,0.019l0.223-0.646l-0.099-0.02l10.319-13.902v0.175l0.423-0.245l0.003-0.159
				l10.299,1.981l-0.11,0.149l0.22,0.382l0.118-0.16v15.885l-0.598-0.117l-0.22,0.637l0.598,0.11L226.19,592.263z"/>
			<polygon fill="#FFFFFF" points="218.589,574.259 217.83,574.112 217.607,574.749 218.371,574.895 			"/>
			<polygon fill="#FFFFFF" points="217.07,573.961 216.307,573.816 216.083,574.454 216.847,574.599 			"/>
			<polygon fill="#FFFFFF" points="220.107,574.559 219.346,574.407 219.134,575.058 219.894,575.187 			"/>
			<polygon fill="#FFFFFF" points="221.641,574.845 220.876,574.699 220.657,575.335 221.421,575.479 			"/>
			<polygon fill="#FFFFFF" points="224.687,575.454 223.927,575.284 223.707,575.921 224.468,576.067 			"/>
			<polygon fill="#FFFFFF" points="234.378,577.966 235.139,578.122 235.357,577.478 234.598,577.33 			"/>
			<polygon fill="#FFFFFF" points="228.227,573.333 228.008,572.952 227.248,573.976 227.453,574.343 			"/>
			<polygon fill="#FFFFFF" points="232.801,567.167 232.567,566.774 231.804,567.806 232.027,568.181 			"/>
			<polygon fill="#FFFFFF" points="231.264,569.211 231.044,568.829 230.28,569.854 230.5,570.237 			"/>
			<polygon fill="#FFFFFF" points="233.331,565.747 233.551,566.13 234.311,565.106 234.092,564.724 			"/>
			<polygon fill="#FFFFFF" points="234.885,563.675 235.074,564.075 235.868,563.032 235.647,562.649 			"/>
			<polygon fill="#FFFFFF" points="216.572,588.33 216.797,588.712 217.557,587.677 217.337,587.305 			"/>
			<polygon fill="#FFFFFF" points="226.203,560.833 225.764,561.085 225.764,562.263 226.187,562.018 			"/>
			<polygon fill="#FFFFFF" points="225.764,590.425 226.187,590.181 226.203,588.991 225.764,589.244 			"/>
			<polygon fill="#FFFFFF" points="226.203,563.179 225.765,563.433 225.764,564.608 226.187,564.364 			"/>
			<polygon fill="#FFFFFF" points="225.765,585.731 226.187,585.487 226.203,584.302 225.764,584.556 			"/>
			<polygon fill="#FFFFFF" points="225.764,583.386 226.187,583.142 226.203,581.956 225.764,582.21 			"/>
			<polygon fill="#FFFFFF" points="226.203,572.569 225.765,572.823 225.764,573.994 226.187,573.751 			"/>
			<polygon fill="#FFFFFF" points="225.764,588.079 226.187,587.835 226.203,586.648 225.765,586.902 			"/>
			<polygon fill="#FFFFFF" points="226.203,567.872 225.764,568.126 225.765,569.302 226.187,569.058 			"/>
			<polygon fill="#FFFFFF" points="226.203,565.525 225.764,565.778 225.764,566.954 226.187,566.71 			"/>
			<polygon fill="#FFFFFF" points="226.203,570.224 225.764,570.478 225.764,571.647 226.187,571.403 			"/>
		</g>
	</g>
	<g>
		<linearGradient id="SVGID_48_" gradientUnits="userSpaceOnUse" x1="382.1152" y1="214.4692" x2="401.6152" y2="248.3545">
			<stop  offset="0" style="stop-color:#EFF7FF"/>
			<stop  offset="0.9992" style="stop-color:#A5C5FF"/>
		</linearGradient>
		<path fill="url(#SVGID_48_)" d="M381.678,229.07c-0.182-0.293-0.363-0.584-0.557-0.876c-0.57-0.899-1.177-1.761-1.813-2.6
			c-0.345-0.458-0.696-0.907-1.073-1.355c-0.424-0.509-0.848-0.984-1.26-1.467c-1.662-1.812-3.42-3.435-5.305-4.829
			c2.432,0.436,34.768,17.166,34.768,17.166c-4.681-1.417-9.967-1.355-15.629,0.382l0,0c-1.65,0.513-3.322,1.118-5.02,1.9
			c-0.559-1.413-1.152-2.75-1.777-4.044c-0.176-0.361-0.356-0.7-0.527-1.042C382.904,231.187,382.297,230.104,381.678,229.07z"/>
		<linearGradient id="SVGID_49_" gradientUnits="userSpaceOnUse" x1="272.9165" y1="220.9907" x2="267.0632" y2="353.1022">
			<stop  offset="0" style="stop-color:#EFF7FF"/>
			<stop  offset="0.9992" style="stop-color:#A5C5FF"/>
		</linearGradient>
		<path fill="url(#SVGID_49_)" d="M240.185,175.423c14.477-8.358,27.813-9.649,38.556-5.068l0,0l0.236,0.118
			c1.134,0.5,2.225,1.067,3.292,1.695l83.794,42.399c-10.173-4.695-22.783-3.922-36.545,3.219l-0.012-0.042
			c-0.945,0.485-1.879,0.991-2.812,1.538c-30.821,17.783-56.537,61.596-62.727,103.773l-86.491-43.86
			C183.653,237.013,209.389,193.209,240.185,175.423z"/>
		<linearGradient id="SVGID_50_" gradientUnits="userSpaceOnUse" x1="195.6953" y1="307.3853" x2="188.17" y2="433.6454">
			<stop  offset="0" style="stop-color:#EFF7FF"/>
			<stop  offset="0.9992" style="stop-color:#A5C5FF"/>
		</linearGradient>
		<path fill="url(#SVGID_50_)" d="M246.004,330.312c-0.479,0.339-0.922,0.736-1.395,1.075c-0.848,0.648-1.691,1.273-2.521,1.968
			c-0.588,0.494-1.134,1.039-1.722,1.563c-0.679,0.618-1.37,1.233-2.043,1.892c-0.637,0.621-1.268,1.318-1.897,1.998
			c-0.559,0.588-1.146,1.17-1.686,1.797c-0.728,0.789-1.382,1.615-2.061,2.453c-0.461,0.557-0.91,1.088-1.359,1.67
			c-0.745,0.934-1.448,1.912-2.146,2.895c-0.351,0.51-0.739,1-1.066,1.519c-0.776,1.087-1.504,2.222-2.214,3.362
			c-0.26,0.418-0.539,0.839-0.806,1.266c-0.764,1.262-1.497,2.547-2.218,3.84c-0.184,0.344-0.377,0.672-0.559,1.008
			c-0.764,1.408-1.479,2.84-2.164,4.291c-0.14,0.249-0.254,0.477-0.363,0.725c-0.728,1.553-1.419,3.131-2.086,4.714
			c-0.066,0.151-0.128,0.304-0.199,0.455c-0.68,1.673-1.334,3.353-1.941,5.059c-0.012,0.079-0.029,0.136-0.06,0.222
			c-0.624,1.764-1.201,3.547-1.716,5.334c0,0.02-0.013,0.02-0.013,0.031c-2.418,8.278-3.819,16.74-3.819,24.844
			c0,15.533,5.014,26.604,12.938,31.77l-84.182-42.5l0.031-0.043c-9.306-4.393-15.277-16.064-15.277-33.085
			c0-29.511,17.932-63.794,40.096-76.573c4.886-2.828,9.567-4.301,13.919-4.665l86.491,43.86c-4.354,0.357-9.027,1.828-13.925,4.662
			C248.672,328.493,247.338,329.374,246.004,330.312z"/>
		<linearGradient id="SVGID_51_" gradientUnits="userSpaceOnUse" x1="307.1641" y1="330.5596" x2="451.8584" y2="387.8642">
			<stop  offset="0" style="stop-color:#FFFFFF"/>
			<stop  offset="0.9992" style="stop-color:#A5C5FF"/>
		</linearGradient>
		<path fill="url(#SVGID_51_)" d="M250.042,327.716c4.897-2.834,9.571-4.305,13.925-4.662c6.189-42.178,31.905-85.99,62.727-103.773
			c26.547-15.338,49.354-6.963,59.096,18.111c22.812-10.531,40.75,4.622,40.75,35.744c0,32.892-20,71.095-44.654,85.335
			c-9.228,5.32-118.215,68.234-131.843,76.113c-22.146,12.781-40.091-0.779-40.091-30.293
			C209.951,374.778,227.896,340.495,250.042,327.716z"/>
		<linearGradient id="SVGID_52_" gradientUnits="userSpaceOnUse" x1="305.1318" y1="229.3184" x2="325.132" y2="395.8184">
			<stop  offset="0" style="stop-color:#FFFFFF"/>
			<stop  offset="0.9992" style="stop-color:#A5C5FF"/>
		</linearGradient>
		<path fill="url(#SVGID_52_)" d="M234.12,435.103c-12.075,0-19.878-12.096-19.878-30.812c0-28.1,17.022-60.783,37.945-72.857
			c4.151-2.402,8.231-3.781,12.13-4.102l3.399-0.278l0.496-3.376c6.104-41.59,31.6-83.932,60.625-100.679
			c8.181-4.727,16.021-7.123,23.309-7.123c13.334,0,23.862,8.193,29.643,23.07l1.653,4.256l4.146-1.914
			c4.215-1.946,8.261-2.932,12.027-2.932c13.748,0,22.633,13.651,22.633,34.779c0,31.466-19.07,68.081-42.51,81.619
			c-9.861,5.687-118.545,68.427-131.844,76.113C243.025,433.677,238.391,435.103,234.12,435.103z"/>
		<g>
			<linearGradient id="SVGID_53_" gradientUnits="userSpaceOnUse" x1="88.9321" y1="236.6929" x2="87.328" y2="272.8992">
				<stop  offset="0" style="stop-color:#EFF7FF"/>
				<stop  offset="0.9992" style="stop-color:#A5C5FF"/>
			</linearGradient>
			<path fill="url(#SVGID_53_)" d="M84.094,224.657c4.408-2.545,8.469-2.938,11.74-1.543l0,0l0.072,0.036
				c0.345,0.153,0.677,0.326,1.002,0.517l15.326,7.728c-3.097-1.429-6.937-1.195-11.127,0.979l-0.002-0.013
				c-0.289,0.148-0.573,0.302-0.857,0.469c-9.385,5.415-17.216,18.755-19.101,31.599l-16.147-8.173
				C66.88,243.41,74.716,230.072,84.094,224.657z"/>
			<linearGradient id="SVGID_54_" gradientUnits="userSpaceOnUse" x1="65.3643" y1="263.7256" x2="63.2962" y2="298.4239">
				<stop  offset="0" style="stop-color:#EFF7FF"/>
				<stop  offset="0.9992" style="stop-color:#A5C5FF"/>
			</linearGradient>
			<path fill="url(#SVGID_54_)" d="M75.677,266.638c-0.146,0.103-0.281,0.224-0.424,0.326c-0.258,0.198-0.515,0.389-0.769,0.6
				c-0.179,0.15-0.345,0.316-0.523,0.477c-0.207,0.188-0.417,0.375-0.623,0.576c-0.194,0.189-0.386,0.4-0.578,0.607
				c-0.17,0.18-0.349,0.357-0.513,0.548c-0.222,0.24-0.421,0.492-0.628,0.747c-0.139,0.17-0.276,0.331-0.413,0.508
				c-0.227,0.285-0.441,0.582-0.653,0.882c-0.107,0.155-0.225,0.304-0.324,0.462c-0.237,0.332-0.458,0.677-0.675,1.023
				c-0.079,0.127-0.164,0.256-0.245,0.387c-0.232,0.384-0.455,0.774-0.675,1.17c-0.056,0.104-0.115,0.203-0.17,0.305
				c-0.232,0.43-0.45,0.865-0.659,1.308c-0.042,0.075-0.078,0.146-0.111,0.221c-0.221,0.473-0.432,0.953-0.635,1.435
				c-0.02,0.047-0.039,0.093-0.061,0.14c-0.208,0.509-0.407,1.021-0.591,1.54c-0.004,0.023-0.009,0.041-0.018,0.067
				c-0.19,0.537-0.366,1.08-0.522,1.624c0,0.006-0.004,0.006-0.004,0.01c-0.736,2.521-1.163,5.098-1.163,7.564
				c0,4.73,1.527,8.102,3.939,9.674l-15.445-7.758l0.01-0.014c-2.834-1.338-4.653-4.893-4.653-10.074
				c0-8.986,5.461-19.426,12.209-23.316c1.488-0.861,2.913-1.31,4.238-1.42l16.147,8.173c-1.325,0.108-2.748,0.557-4.24,1.419
				C76.489,266.083,76.083,266.352,75.677,266.638z"/>
			<linearGradient id="SVGID_55_" gradientUnits="userSpaceOnUse" x1="94.3008" y1="266.7129" x2="138.3605" y2="284.1623">
				<stop  offset="0" style="stop-color:#FFFFFF"/>
				<stop  offset="0.9992" style="stop-color:#A5C5FF"/>
			</linearGradient>
			<path fill="url(#SVGID_55_)" d="M76.906,265.847c1.492-0.862,2.916-1.311,4.24-1.419c1.885-12.844,9.716-26.184,19.101-31.599
				c8.084-4.671,15.028-2.121,17.995,5.515c6.946-3.207,12.408,1.407,12.408,10.884c0,10.016-6.089,21.648-13.597,25.985
				c-2.81,1.619-35.996,20.776-40.146,23.176c-6.743,3.892-12.207-0.238-12.207-9.225S70.163,269.738,76.906,265.847z"/>
			<linearGradient id="SVGID_56_" gradientUnits="userSpaceOnUse" x1="93.8057" y1="236.9277" x2="99.6723" y2="285.7673">
				<stop  offset="0" style="stop-color:#FFFFFF"/>
				<stop  offset="0.9992" style="stop-color:#A5C5FF"/>
			</linearGradient>
			<path fill="url(#SVGID_56_)" d="M72.059,297.407c-2.985,0-4.914-3.236-4.914-8.244c0-8.193,4.928-17.703,10.985-21.198
				c1.118-0.647,2.2-1.017,3.217-1.101l1.938-0.158l0.282-1.924c1.812-12.348,9.341-24.896,17.902-29.835
				c2.315-1.339,4.512-2.017,6.528-2.017c3.559,0,6.387,2.236,7.965,6.299l0.942,2.425l2.362-1.091
				c1.134-0.523,2.206-0.788,3.185-0.788c3.495,0,5.753,3.71,5.753,9.452c0,9.219-5.552,19.926-12.375,23.868
				c-3.001,1.73-36.097,20.834-40.146,23.175C74.376,297.024,73.156,297.407,72.059,297.407z"/>
		</g>
		<g>
			<linearGradient id="SVGID_57_" gradientUnits="userSpaceOnUse" x1="456.0527" y1="96.5103" x2="455.2505" y2="114.6176">
				<stop  offset="0" style="stop-color:#EFF7FF"/>
				<stop  offset="0.9992" style="stop-color:#A5C5FF"/>
			</linearGradient>
			<path fill="url(#SVGID_57_)" d="M453.634,90.491c2.204-1.272,4.235-1.469,5.871-0.772l0,0l0.036,0.018
				c0.172,0.077,0.338,0.163,0.501,0.258l7.665,3.865c-1.549-0.714-3.47-0.597-5.564,0.49l-0.002-0.006
				c-0.145,0.074-0.287,0.15-0.429,0.234c-4.693,2.708-8.609,9.379-9.552,15.803l-8.076-4.087
				C445.025,99.87,448.943,93.199,453.634,90.491z"/>
			<linearGradient id="SVGID_58_" gradientUnits="userSpaceOnUse" x1="444.2676" y1="110.0303" x2="443.2333" y2="127.3836">
				<stop  offset="0" style="stop-color:#EFF7FF"/>
				<stop  offset="0.9992" style="stop-color:#A5C5FF"/>
			</linearGradient>
			<path fill="url(#SVGID_58_)" d="M449.424,111.486c-0.072,0.051-0.141,0.111-0.212,0.163c-0.129,0.099-0.257,0.194-0.384,0.3
				c-0.09,0.075-0.173,0.158-0.262,0.238c-0.104,0.094-0.209,0.188-0.312,0.288c-0.097,0.095-0.193,0.201-0.289,0.305
				c-0.085,0.09-0.175,0.178-0.257,0.273c-0.111,0.12-0.211,0.246-0.314,0.374c-0.069,0.085-0.138,0.166-0.207,0.254
				c-0.113,0.143-0.22,0.292-0.326,0.441c-0.053,0.077-0.112,0.152-0.162,0.231c-0.119,0.166-0.229,0.338-0.338,0.512
				c-0.039,0.063-0.081,0.128-0.122,0.192c-0.116,0.192-0.228,0.388-0.338,0.585c-0.028,0.052-0.058,0.102-0.085,0.153
				c-0.115,0.215-0.225,0.433-0.33,0.654c-0.021,0.038-0.038,0.072-0.055,0.11c-0.111,0.236-0.217,0.477-0.317,0.718
				c-0.011,0.023-0.02,0.046-0.03,0.069c-0.104,0.255-0.203,0.51-0.296,0.771c-0.002,0.012-0.005,0.021-0.009,0.034
				c-0.096,0.269-0.184,0.54-0.262,0.812c0,0.002-0.002,0.002-0.002,0.004c-0.368,1.261-0.582,2.55-0.582,3.783
				c0,2.366,0.764,4.052,1.971,4.838l-7.725-3.88l0.006-0.007c-1.418-0.669-2.327-2.446-2.327-5.039
				c0-4.494,2.731-9.714,6.106-11.66c0.744-0.431,1.456-0.655,2.119-0.71l8.076,4.087c-0.663,0.054-1.375,0.278-2.121,0.71
				C449.83,111.209,449.628,111.343,449.424,111.486z"/>
			<linearGradient id="SVGID_59_" gradientUnits="userSpaceOnUse" x1="458.7373" y1="111.5234" x2="480.7714" y2="120.2498">
				<stop  offset="0" style="stop-color:#FFFFFF"/>
				<stop  offset="0.9992" style="stop-color:#A5C5FF"/>
			</linearGradient>
			<path fill="url(#SVGID_59_)" d="M450.039,111.091c0.746-0.432,1.458-0.656,2.121-0.71c0.942-6.423,4.858-13.095,9.552-15.803
				c4.043-2.336,7.516-1.061,8.999,2.757c3.475-1.603,6.205,0.704,6.205,5.444c0,5.008-3.045,10.826-6.799,12.995
				c-1.406,0.81-18.002,10.391-20.078,11.59c-3.372,1.947-6.105-0.119-6.105-4.613C443.934,118.257,446.667,113.036,450.039,111.091
				z"/>
			<linearGradient id="SVGID_60_" gradientUnits="userSpaceOnUse" x1="458.4902" y1="96.6279" x2="461.4242" y2="121.0533">
				<stop  offset="0" style="stop-color:#FFFFFF"/>
				<stop  offset="0.9992" style="stop-color:#A5C5FF"/>
			</linearGradient>
			<path fill="url(#SVGID_60_)" d="M447.615,126.875c-1.494,0-2.458-1.619-2.458-4.124c0-4.097,2.464-8.853,5.493-10.601
				c0.56-0.324,1.101-0.509,1.609-0.55l0.969-0.08l0.141-0.962c0.906-6.175,4.672-12.45,8.953-14.92
				c1.158-0.669,2.257-1.009,3.266-1.009c1.779,0,3.194,1.119,3.983,3.15l0.472,1.213l1.181-0.546
				c0.567-0.261,1.103-0.394,1.593-0.394c1.748,0,2.877,1.856,2.877,4.728c0,4.61-2.776,9.965-6.189,11.936
				c-1.5,0.866-18.051,10.42-20.076,11.591C448.773,126.683,448.164,126.875,447.615,126.875z"/>
		</g>
		<linearGradient id="SVGID_61_" gradientUnits="userSpaceOnUse" x1="281.1484" y1="200.5767" x2="275.1484" y2="277.2437">
			<stop  offset="0" style="stop-color:#0070E6"/>
			<stop  offset="0.9997" style="stop-color:#00152B"/>
		</linearGradient>
		<path fill="url(#SVGID_61_)" d="M224.31,236.978l27.604,13.968c0,0,1.544,0.781,3.431,1.736s4.539-0.335,5.895-2.866
			c0,0,0,0,1.3-2.235c10.39-17.867,23.605-32.774,38.488-41.362c0.934-0.546,1.867-1.052,2.812-1.538l0.013,0.042
			c13.492-7.001,27.809-6.863,37.95-2.431l-44.096-22.312c-10.707-4.478-23.964-3.156-38.348,5.149
			c-14.266,8.238-27.438,22.064-38.088,38.721c-1.847,2.889-2.315,3.705-2.315,3.705c-1.645,2.861-1.112,6.152,1.182,7.313
			S224.31,236.978,224.31,236.978z"/>
		<g>
			<linearGradient id="SVGID_62_" gradientUnits="userSpaceOnUse" x1="275.9004" y1="235.8213" x2="280.2647" y2="214.5443">
				<stop  offset="0" style="stop-color:#0070E6"/>
				<stop  offset="0.9995" style="stop-color:#A5C5FF"/>
			</linearGradient>
			<path fill="url(#SVGID_62_)" d="M221.421,230.107c0,0,0.462-0.805,2.285-3.654c10.506-16.432,23.501-30.072,37.573-38.199
				c14.19-8.193,27.268-9.498,37.83-5.08l32.275,16.331c3.771,0.467,7.294,1.421,10.418,2.786l-44.096-22.312
				c-10.707-4.478-23.964-3.156-38.348,5.149c-14.266,8.238-27.438,22.064-38.088,38.721c-1.847,2.889-2.315,3.705-2.315,3.705
				c-1.645,2.861-1.112,6.152,1.182,7.313c0.217,0.109,0.425,0.215,0.633,0.32C220.247,233.72,220.427,231.836,221.421,230.107z"/>
			<linearGradient id="SVGID_63_" gradientUnits="userSpaceOnUse" x1="311.3682" y1="244.0161" x2="273.0102" y2="211.9941">
				<stop  offset="0" style="stop-color:#0070E6"/>
				<stop  offset="0.9995" style="stop-color:#A5C5FF;stop-opacity:0"/>
			</linearGradient>
			<path fill="url(#SVGID_63_)" d="M221.421,230.107c0,0,0.462-0.805,2.285-3.654c10.506-16.432,23.501-30.072,37.573-38.199
				c14.19-8.193,27.268-9.498,37.83-5.08l32.275,16.331c3.771,0.467,7.294,1.421,10.418,2.786l-44.096-22.312
				c-10.707-4.478-23.964-3.156-38.348,5.149c-14.266,8.238-27.438,22.064-38.088,38.721c-1.847,2.889-2.315,3.705-2.315,3.705
				c-1.645,2.861-1.112,6.152,1.182,7.313c0.217,0.109,0.425,0.215,0.633,0.32C220.247,233.72,220.427,231.836,221.421,230.107z"/>
		</g>
		<g>
			<defs>
				<path id="SVGID_64_" d="M221.271,223.849c-1.847,2.889-2.315,3.705-2.315,3.705c-1.645,2.861-1.112,6.152,1.182,7.313
					s4.172,2.111,4.172,2.111l27.604,13.968c0,0,1.544,0.781,3.431,1.736s4.539-0.335,5.895-2.866c0,0,0,0,1.3-2.235
					c10.39-17.867,23.605-32.774,38.488-41.362c0.934-0.546,1.867-1.052,2.812-1.538l0.013,0.042
					c13.492-7.001,27.809-6.863,37.95-2.431h104.727v-52.734L268.398,12.757H164.466v164.204L221.271,223.849z"/>
			</defs>
			<clipPath id="SVGID_65_">
				<use xlink:href="#SVGID_64_"  overflow="visible"/>
			</clipPath>
			<g clip-path="url(#SVGID_65_)">
				<linearGradient id="SVGID_66_" gradientUnits="userSpaceOnUse" x1="262.4956" y1="46.9253" x2="262.4956" y2="38.6181">
					<stop  offset="0" style="stop-color:#0070E6"/>
					<stop  offset="0.9997" style="stop-color:#00152B"/>
				</linearGradient>
				<polygon fill="url(#SVGID_66_)" points="263.851,80.26 261.141,78.703 261.141,27.149 263.851,28.706 				"/>
				<linearGradient id="SVGID_67_" gradientUnits="userSpaceOnUse" x1="258.123" y1="38.6895" x2="258.123" y2="61.6277">
					<stop  offset="0" style="stop-color:#0070E6"/>
					<stop  offset="0.9997" style="stop-color:#00152B"/>
				</linearGradient>
				<path fill="url(#SVGID_67_)" d="M263.851,28.706v0.013l-11.437,6.588l0,0l-0.025,0.015l-2.686,1.547l0.008,0.031v17.029
					c0.012,0.007,0.023,0.009,0.035,0.017l2.668,1.541V39.409l11.437-6.58V80.26l2.692-1.557V27.149L263.851,28.706z"/>
				<linearGradient id="SVGID_68_" gradientUnits="userSpaceOnUse" x1="173.8145" y1="91.5083" x2="187.5806" y2="86.5024">
					<stop  offset="0" style="stop-color:#0070E6"/>
					<stop  offset="0.9997" style="stop-color:#00152B"/>
				</linearGradient>
				<polygon fill="url(#SVGID_68_)" points="226.122,60.048 240.908,68.553 189.446,98.262 174.656,89.762 				"/>
				<linearGradient id="SVGID_69_" gradientUnits="userSpaceOnUse" x1="174.6558" y1="96.7734" x2="189.4458" y2="96.7734">
					<stop  offset="0" style="stop-color:#0070E6"/>
					<stop  offset="0.9992" style="stop-color:#A5C5FF"/>
				</linearGradient>
				<polygon fill="url(#SVGID_69_)" points="174.656,89.762 189.446,98.262 189.446,103.785 174.656,95.278 				"/>
				<linearGradient id="SVGID_70_" gradientUnits="userSpaceOnUse" x1="189.4458" y1="86.1689" x2="240.9082" y2="86.1689">
					<stop  offset="0" style="stop-color:#0070E6"/>
					<stop  offset="0.9992" style="stop-color:#A5C5FF"/>
				</linearGradient>
				<polygon fill="url(#SVGID_70_)" points="240.908,68.553 189.446,98.262 189.446,103.785 240.908,74.071 				"/>
				<linearGradient id="SVGID_71_" gradientUnits="userSpaceOnUse" x1="215.625" y1="63.4243" x2="189.9702" y2="91.8501">
					<stop  offset="0" style="stop-color:#EFF7FF"/>
					<stop  offset="0.9992" style="stop-color:#A5C5FF"/>
				</linearGradient>
				<polygon fill="url(#SVGID_71_)" points="226.122,53.004 240.908,61.509 189.446,91.208 174.656,82.718 				"/>
				<linearGradient id="SVGID_72_" gradientUnits="userSpaceOnUse" x1="174.6558" y1="89.7295" x2="189.4458" y2="89.7295">
					<stop  offset="0" style="stop-color:#0070E6"/>
					<stop  offset="0.9992" style="stop-color:#A5C5FF"/>
				</linearGradient>
				<polygon fill="url(#SVGID_72_)" points="174.656,82.718 189.446,91.208 189.446,96.741 174.656,88.234 				"/>
				<linearGradient id="SVGID_73_" gradientUnits="userSpaceOnUse" x1="189.4458" y1="79.125" x2="240.9082" y2="79.125">
					<stop  offset="0" style="stop-color:#0070E6"/>
					<stop  offset="0.9992" style="stop-color:#A5C5FF"/>
				</linearGradient>
				<polygon fill="url(#SVGID_73_)" points="240.908,61.509 189.446,91.208 189.446,96.741 240.908,67.023 				"/>
				<linearGradient id="SVGID_74_" gradientUnits="userSpaceOnUse" x1="194.9956" y1="72.6523" x2="218.6787" y2="72.6523">
					<stop  offset="0" style="stop-color:#0070E6"/>
					<stop  offset="0.9995" style="stop-color:#A5C5FF"/>
				</linearGradient>
				<polygon fill="url(#SVGID_74_)" points="203.892,65.833 194.996,70.973 209.785,79.471 218.679,74.334 				"/>
				<linearGradient id="SVGID_75_" gradientUnits="userSpaceOnUse" x1="214.2319" y1="77.501" x2="214.2319" y2="94.6929">
					<stop  offset="0" style="stop-color:#0070E6"/>
					<stop  offset="0.9997" style="stop-color:#00152B"/>
				</linearGradient>
				<polygon fill="url(#SVGID_75_)" points="218.679,86.779 209.785,91.916 209.785,79.471 218.679,74.334 				"/>
				<linearGradient id="SVGID_76_" gradientUnits="userSpaceOnUse" x1="205.8755" y1="73.6826" x2="205.8755" y2="69.4805">
					<stop  offset="0" style="stop-color:#EFF7FF"/>
					<stop  offset="0.9992" style="stop-color:#A5C5FF"/>
				</linearGradient>
				<polygon fill="url(#SVGID_76_)" points="209.396,70.161 206.717,68.599 205.047,68.599 202.354,70.149 202.354,71.171 
					205.057,72.727 206.727,72.727 209.396,71.178 				"/>
				<linearGradient id="SVGID_77_" gradientUnits="userSpaceOnUse" x1="206.7266" y1="72.9038" x2="209.3965" y2="72.9038">
					<stop  offset="0" style="stop-color:#0070E6"/>
					<stop  offset="0.9997" style="stop-color:#00152B"/>
				</linearGradient>
				<polygon fill="url(#SVGID_77_)" points="206.727,72.727 209.396,71.178 209.396,73.088 206.727,74.63 				"/>
				<linearGradient id="SVGID_78_" gradientUnits="userSpaceOnUse" x1="202.3691" y1="72.9038" x2="206.7266" y2="72.9038">
					<stop  offset="0" style="stop-color:#0070E6"/>
					<stop  offset="0.9997" style="stop-color:#00152B"/>
				</linearGradient>
				<polygon fill="url(#SVGID_78_)" points="205.057,72.727 202.369,71.178 202.369,73.088 205.057,74.63 206.727,74.63 
					206.727,72.727 				"/>
				<linearGradient id="SVGID_79_" gradientUnits="userSpaceOnUse" x1="205.8843" y1="62.4199" x2="205.8843" y2="46.4965">
					<stop  offset="0" style="stop-color:#0070E6"/>
					<stop  offset="0.9997" style="stop-color:#00152B"/>
				</linearGradient>
				<polygon fill="url(#SVGID_79_)" points="206.518,47.851 205.25,47.851 205.25,70.572 205.25,70.754 205.739,71.032 
					206.035,71.032 206.518,70.76 206.518,70.572 206.501,70.572 206.518,70.572 				"/>
				<linearGradient id="SVGID_80_" gradientUnits="userSpaceOnUse" x1="255.4233" y1="246.8423" x2="255.4233" y2="130.6611">
					<stop  offset="0" style="stop-color:#0070E6"/>
					<stop  offset="0.9995" style="stop-color:#A5C5FF"/>
				</linearGradient>
				<path fill="url(#SVGID_80_)" d="M263.851,186.447l-0.013-0.006V96.602h0.013l-0.013-0.007l-2.697-1.563v0.007l-5.719,5.777
					l-5.719-12.389l-2.707-1.562v89.842v89.853l0.006,22.456l1.291,0.75l-1.297-0.75v89.842v89.854l0.006,22.457l2.709,1.57
					l5.711-5.793l5.719,12.391l2.71,1.567l-0.013-22.462h0.013l-0.013-0.009v-89.835h0.013l-0.013-0.008v-89.838h0.013
					l-0.013-22.461h0.013l-0.013-0.01v-89.835H263.851z M256.774,283.435l4.366-4.412v13.864L256.774,283.435z M261.141,252.263
					v0.008l-5.719,5.775l-5.711-12.386l5.711-5.775L261.141,252.263z M256.774,238.514l4.366-4.416v13.872L256.774,238.514z
					 M261.141,256.563v13.871l-4.366-9.465L261.141,256.563z M261.141,207.341l-5.719,5.782l-5.711-12.379l5.711-5.79
					L261.141,207.341z M256.774,193.593l4.366-4.416v13.872L256.774,193.593z M261.141,211.639v13.869l-4.366-9.45L261.141,211.639z
					 M261.141,162.412v0.015l-5.719,5.779l-5.711-12.391l5.711-5.775L261.141,162.412z M256.774,148.669l4.366-4.415v13.869
					L256.774,148.669z M261.141,166.721v13.868l-4.366-9.461L261.141,166.721z M261.141,135.662l-4.366-9.455l4.366-4.417V135.662z
					 M261.141,99.333v13.873l-4.366-9.457L261.141,99.333z M261.141,117.498l-5.719,5.782l-5.711-12.38l5.711-5.792L261.141,117.498
					z M249.703,92.72l4.364,9.466l-4.364,4.422V92.72z M249.711,115.185l4.371,9.458l-4.379,4.415L249.711,115.185z
					 M249.711,133.355l5.711-5.781l5.719,12.381v0.006l-5.719,5.777l-5.719-12.388L249.711,133.355z M249.703,137.651l4.364,9.455
					l-4.364,4.42V137.651z M249.711,160.116l4.371,9.454l-4.379,4.409L249.711,160.116z M249.711,178.278l5.711-5.784l5.719,12.382
					v0.01l-5.719,5.774l-5.719-12.386L249.711,178.278z M249.703,182.573l4.364,9.456l-4.364,4.423V182.573z M249.711,205.036
					l4.371,9.459l-4.379,4.414L249.711,205.036z M249.711,223.201l5.711-5.782l5.719,12.38v0.006l-5.719,5.784l-5.719-12.388
					H249.711z M249.703,227.487l4.364,9.466l-4.364,4.419V227.487z M249.711,249.958l4.371,9.457l-4.379,4.416L249.711,249.958z
					 M249.711,268.124l5.711-5.783l5.719,12.38v0.009l-5.719,5.783l-5.719-12.395L249.711,268.124z M249.703,272.409l4.364,9.464
					l-4.364,4.423V272.409z M249.703,308.759v-13.887l4.364,9.466L249.703,308.759z M249.711,317.336l4.371,9.458l-4.379,4.416
					L249.711,317.336z M249.703,353.679v-13.877l4.364,9.456L249.703,353.679z M249.711,362.267l4.371,9.455l-4.379,4.408
					L249.711,362.267z M249.703,398.603v-13.879l4.364,9.455L249.703,398.603z M249.711,407.187l4.371,9.459l-4.379,4.414
					L249.711,407.187z M249.703,443.522v-13.885l4.364,9.467L249.703,443.522z M249.711,452.11l4.371,9.455l-4.379,4.416
					L249.711,452.11z M249.703,488.448V474.56l4.364,9.465L249.703,488.448z M261.141,495.038l-4.366-9.452l4.366-4.413V495.038z
					 M261.141,476.88l-5.719,5.784l-5.719-12.396l0.008,0.008l5.711-5.784l5.719,12.38V476.88z M261.141,472.585l-4.366-9.464
					l4.366-4.407V472.585z M261.141,454.421l-5.719,5.777l-5.711-12.387l5.711-5.777l5.719,12.379V454.421z M261.141,450.12
					l-4.366-9.455l4.366-4.416V450.12z M261.141,431.957l-5.719,5.784l-5.719-12.389h0.008l5.711-5.783l5.719,12.382V431.957z
					 M261.141,427.658l-4.366-9.45l4.366-4.418V427.658z M255.422,415.274l-5.711-12.379l5.711-5.789l5.719,12.386L255.422,415.274z
					 M261.141,405.2l-4.366-9.457l4.366-4.415V405.2z M261.141,387.037l-5.719,5.774l-5.719-12.387l0.008,0.004l5.711-5.783
					l5.719,12.383V387.037z M261.141,382.741l-4.366-9.463l4.366-4.406V382.741z M261.141,364.577l-5.719,5.779l-5.711-12.392
					l5.711-5.774l5.719,12.373V364.577z M261.141,360.274l-4.366-9.454l4.366-4.415V360.274z M261.141,342.112l-5.719,5.777
					l-5.719-12.388l0.008,0.005l5.711-5.781l5.719,12.381V342.112z M261.141,337.813l-4.366-9.456l4.366-4.417V337.813z
					 M255.422,325.432l-5.711-12.382l5.711-5.79l5.719,12.39L255.422,325.432z M261.141,315.356l-4.366-9.457l4.366-4.416V315.356z
					 M261.141,297.19l-5.719,5.776l-5.717-12.382l0.006,0.004l5.711-5.794l5.719,12.391V297.19z"/>
				<g>
					<linearGradient id="SVGID_81_" gradientUnits="userSpaceOnUse" x1="270.9194" y1="157.502" x2="270.9194" y2="224.1223">
						<stop  offset="0" style="stop-color:#0070E6"/>
						<stop  offset="0.9997" style="stop-color:#00152B"/>
					</linearGradient>
					<path fill="url(#SVGID_81_)" d="M278,85.302l-2.709,1.556l2.709,1.57l-5.719,12.389l-5.723-5.777v-0.007l-0.008,0.005
						l-2.7-1.567l-2.71,1.562l2.71,1.57l0.115-0.066l-0.102,0.059l-0.014,0.007h0.014v89.839l-0.014,0.006h0.014v89.835l-0.014,0.01
						h0.014l-0.014,22.461l0.271-0.156l-0.258,0.149l-0.014,0.007h0.014v89.838l-0.014,0.008h0.014v89.835l-0.014,0.009h0.014
						l-0.014,22.462l2.708-1.567l5.723-12.391l5.719,5.793l2.699-1.57v-22.457v-89.854v-89.842v-22.456v-89.853V86.866L278,85.302z
						 M278.006,129.058l-4.381-4.415l4.375-9.458L278.006,129.058z M272.281,280.513l-5.723-5.783v-0.009l5.723-12.38l5.715,5.781
						L272.281,280.513z M278,272.409v13.887l-4.375-4.423L278,272.409z M270.92,283.435l-4.354,9.452l-0.008-13.864L270.92,283.435z
						 M272.281,127.574l5.719,5.78l-5.719,12.385l-5.723-5.777v-0.006L272.281,127.574z M266.559,135.662V121.79l4.361,4.417
						L266.559,135.662z M278,137.651v13.875l-4.375-4.42L278,137.651z M270.92,148.669l-4.354,9.454l-0.008-13.869L270.92,148.669z
						 M272.281,150.039l5.719,5.775l-5.719,12.391l-5.723-5.779v-0.015L272.281,150.039z M270.92,171.128l-4.361,9.461v-13.868
						L270.92,171.128z M272.281,172.495l5.719,5.782l-5.719,12.383l-5.723-5.774v-0.01L272.281,172.495z M278,182.573v13.879
						l-4.375-4.423L278,182.573z M270.92,193.593l-4.354,9.457l-0.008-13.872L270.92,193.593z M272.281,194.955l5.719,5.79
						l-5.719,12.379l-5.723-5.782L272.281,194.955z M270.92,216.057l-4.361,9.45v-13.869L270.92,216.057z M272.281,217.419
						l5.719,5.782l-5.719,12.388l-5.723-5.784V229.8L272.281,217.419z M278,227.487v13.885l-4.375-4.419L278,227.487z
						 M270.92,238.514l-4.354,9.456l-0.008-13.872L270.92,238.514z M272.281,239.884L278,245.66l-5.719,12.386l-5.723-5.775v-0.008
						L272.281,239.884z M270.92,260.97l-4.361,9.465v-13.871L270.92,260.97z M273.625,259.415l4.375-9.457l0.006,13.873
						L273.625,259.415z M273.625,214.495l4.375-9.459l0.006,13.873L273.625,214.495z M273.625,169.57l4.375-9.454l0.006,13.863
						L273.625,169.57z M278,92.72v13.889l-4.375-4.422L278,92.72z M278,110.9l-5.719,12.38l-5.723-5.782l5.723-12.39L278,110.9z
						 M270.92,103.748l-4.354,9.457l-0.008-13.873L270.92,103.748z M272.281,284.795l5.715,5.79l-5.715,12.382l-5.723-5.776v-0.005
						L272.281,284.795z M266.559,454.421v-0.008l5.723-12.379l5.719,5.777l-5.719,12.387L266.559,454.421z M270.92,463.121
						l-4.361,9.464v-13.871L270.92,463.121z M266.559,436.249l4.361,4.416l-4.354,9.455L266.559,436.249z M273.625,439.104
						l4.375-9.467v13.885L273.625,439.104z M272.281,437.741l-5.723-5.784v-0.006l5.723-12.382l5.719,5.783L272.281,437.741z
						 M266.559,427.658V413.79l4.361,4.418L266.559,427.658z M266.559,409.492l5.723-12.386l5.719,5.789l-5.719,12.379
						L266.559,409.492z M266.559,391.328l4.361,4.415l-4.354,9.457L266.559,391.328z M273.625,394.179l4.375-9.455v13.879
						L273.625,394.179z M272.281,392.812l-5.723-5.774v-0.009l5.723-12.383l5.719,5.782L272.281,392.812z M266.559,382.741v-13.869
						l4.361,4.406L266.559,382.741z M266.559,364.577v-0.014l5.723-12.373l5.719,5.774l-5.719,12.392L266.559,364.577z
						 M266.559,346.405l4.361,4.415l-4.354,9.454L266.559,346.405z M273.625,349.258l4.375-9.456v13.877L273.625,349.258z
						 M272.281,347.89l-5.723-5.777v-0.006l5.723-12.381l5.719,5.779L272.281,347.89z M266.559,337.813V323.94l4.361,4.417
						L266.559,337.813z M266.559,319.649l5.723-12.39l5.719,5.79l-5.719,12.382L266.559,319.649z M266.559,301.483l4.361,4.416
						l-4.354,9.457L266.559,301.483z M273.625,304.338l4.375-9.466v13.887L273.625,304.338z M266.566,495.038l-0.008-13.865
						l4.361,4.413L266.566,495.038z M266.559,476.88v-0.008l5.723-12.38l5.715,5.78l-5.715,12.392L266.559,476.88z M278,488.448
						l-4.375-4.424L278,474.56V488.448z M273.625,461.565L278,452.11l0.006,13.871L273.625,461.565z M273.625,416.646l4.375-9.459
						l0.006,13.873L273.625,416.646z M273.625,371.722l4.375-9.455l0.006,13.863L273.625,371.722z M273.625,326.794l4.375-9.458
						l0.006,13.874L273.625,326.794z"/>
					<linearGradient id="SVGID_82_" gradientUnits="userSpaceOnUse" x1="270.9204" y1="130.002" x2="270.9204" y2="92.4344">
						<stop  offset="0" style="stop-color:#0070E6;stop-opacity:0"/>
						<stop  offset="0.9997" style="stop-color:#00152B"/>
					</linearGradient>
					<path fill="url(#SVGID_82_)" d="M278,85.302l-2.709,1.556l2.709,1.57l-5.719,12.389l-5.723-5.777v-0.007l-0.008,0.005
						l-2.7-1.567l-2.71,1.562l2.71,1.57l0.115-0.066l-0.102,0.059l-0.014,0.007h0.014v89.839l-0.014,0.006h0.014v89.835l-0.014,0.01
						h0.014l-0.014,22.461l0.271-0.156l-0.258,0.149l-0.014,0.007h0.014v89.838l-0.014,0.008h0.014v89.835l-0.014,0.009h0.014
						l-0.014,22.462l2.708-1.567l5.723-12.391l5.719,5.793l2.699-1.57v-22.457v-89.854v-89.842v-22.456v-89.853V86.866L278,85.302z
						 M278.006,129.058l-4.381-4.415l4.375-9.458L278.006,129.058z M272.281,280.513l-5.723-5.783v-0.009l5.723-12.38l5.715,5.781
						L272.281,280.513z M278,272.409v13.887l-4.375-4.423L278,272.409z M270.92,283.435l-4.354,9.452l-0.008-13.864L270.92,283.435z
						 M272.281,127.574l5.719,5.78l-5.719,12.385l-5.723-5.777v-0.006L272.281,127.574z M266.559,135.662V121.79l4.361,4.417
						L266.559,135.662z M278,137.651v13.875l-4.375-4.42L278,137.651z M270.92,148.669l-4.354,9.454l-0.008-13.869L270.92,148.669z
						 M272.281,150.039l5.719,5.775l-5.719,12.391l-5.723-5.779v-0.015L272.281,150.039z M270.92,171.128l-4.361,9.461v-13.868
						L270.92,171.128z M272.281,172.495l5.719,5.782l-5.719,12.383l-5.723-5.774v-0.01L272.281,172.495z M278,182.573v13.879
						l-4.375-4.423L278,182.573z M270.92,193.593l-4.354,9.457l-0.008-13.872L270.92,193.593z M272.281,194.955l5.719,5.79
						l-5.719,12.379l-5.723-5.782L272.281,194.955z M270.92,216.057l-4.361,9.45v-13.869L270.92,216.057z M272.281,217.419
						l5.719,5.782l-5.719,12.388l-5.723-5.784V229.8L272.281,217.419z M278,227.487v13.885l-4.375-4.419L278,227.487z
						 M270.92,238.514l-4.354,9.456l-0.008-13.872L270.92,238.514z M272.281,239.884L278,245.66l-5.719,12.386l-5.723-5.775v-0.008
						L272.281,239.884z M270.92,260.97l-4.361,9.465v-13.871L270.92,260.97z M273.625,259.415l4.375-9.457l0.006,13.873
						L273.625,259.415z M273.625,214.495l4.375-9.459l0.006,13.873L273.625,214.495z M273.625,169.57l4.375-9.454l0.006,13.863
						L273.625,169.57z M278,92.72v13.889l-4.375-4.422L278,92.72z M278,110.9l-5.719,12.38l-5.723-5.782l5.723-12.39L278,110.9z
						 M270.92,103.748l-4.354,9.457l-0.008-13.873L270.92,103.748z M272.281,284.795l5.715,5.79l-5.715,12.382l-5.723-5.776v-0.005
						L272.281,284.795z M266.559,454.421v-0.008l5.723-12.379l5.719,5.777l-5.719,12.387L266.559,454.421z M270.92,463.121
						l-4.361,9.464v-13.871L270.92,463.121z M266.559,436.249l4.361,4.416l-4.354,9.455L266.559,436.249z M273.625,439.104
						l4.375-9.467v13.885L273.625,439.104z M272.281,437.741l-5.723-5.784v-0.006l5.723-12.382l5.719,5.783L272.281,437.741z
						 M266.559,427.658V413.79l4.361,4.418L266.559,427.658z M266.559,409.492l5.723-12.386l5.719,5.789l-5.719,12.379
						L266.559,409.492z M266.559,391.328l4.361,4.415l-4.354,9.457L266.559,391.328z M273.625,394.179l4.375-9.455v13.879
						L273.625,394.179z M272.281,392.812l-5.723-5.774v-0.009l5.723-12.383l5.719,5.782L272.281,392.812z M266.559,382.741v-13.869
						l4.361,4.406L266.559,382.741z M266.559,364.577v-0.014l5.723-12.373l5.719,5.774l-5.719,12.392L266.559,364.577z
						 M266.559,346.405l4.361,4.415l-4.354,9.454L266.559,346.405z M273.625,349.258l4.375-9.456v13.877L273.625,349.258z
						 M272.281,347.89l-5.723-5.777v-0.006l5.723-12.381l5.719,5.779L272.281,347.89z M266.559,337.813V323.94l4.361,4.417
						L266.559,337.813z M266.559,319.649l5.723-12.39l5.719,5.79l-5.719,12.382L266.559,319.649z M266.559,301.483l4.361,4.416
						l-4.354,9.457L266.559,301.483z M273.625,304.338l4.375-9.466v13.887L273.625,304.338z M266.566,495.038l-0.008-13.865
						l4.361,4.413L266.566,495.038z M266.559,476.88v-0.008l5.723-12.38l5.715,5.78l-5.715,12.392L266.559,476.88z M278,488.448
						l-4.375-4.424L278,474.56V488.448z M273.625,461.565L278,452.11l0.006,13.871L273.625,461.565z M273.625,416.646l4.375-9.459
						l0.006,13.873L273.625,416.646z M273.625,371.722l4.375-9.455l0.006,13.863L273.625,371.722z M273.625,326.794l4.375-9.458
						l0.006,13.874L273.625,326.794z"/>
				</g>
				<linearGradient id="SVGID_83_" gradientUnits="userSpaceOnUse" x1="276.6494" y1="59.6221" x2="276.6494" y2="44.1329">
					<stop  offset="0" style="stop-color:#0070E6"/>
					<stop  offset="0.9997" style="stop-color:#00152B"/>
				</linearGradient>
				<polygon fill="url(#SVGID_83_)" points="278,88.427 275.3,86.866 275.3,35.307 278,36.868 				"/>
				<linearGradient id="SVGID_84_" gradientUnits="userSpaceOnUse" x1="280.7998" y1="71.6377" x2="484.3975" y2="231.3085">
					<stop  offset="0" style="stop-color:#0070E6"/>
					<stop  offset="0.9997" style="stop-color:#00152B"/>
				</linearGradient>
				<path fill="url(#SVGID_84_)" d="M438.99,170.478c0-2.438-1.711-5.425-3.827-6.643L203.385,30.058l-7.195,4.157l231.783,133.767
					c2.11,1.221,3.828,4.206,3.828,6.643v0.603c0,1.002-0.344,1.687-0.828,2.146l6.865-3.816c0.018-0.008,0.037-0.015,0.055-0.029
					l0.05-0.029l-0.013-0.021c0.67-0.417,1.061-1.23,1.061-2.397V170.478z"/>
				<linearGradient id="SVGID_85_" gradientUnits="userSpaceOnUse" x1="311.8955" y1="181.5156" x2="313.3066" y2="129.9362">
					<stop  offset="0" style="stop-color:#0070E6"/>
					<stop  offset="0.9995" style="stop-color:#A5C5FF"/>
				</linearGradient>
				<path fill="url(#SVGID_85_)" d="M427.973,167.982L196.19,34.215v9.458l231.783,133.769c2.11,1.217,3.828,0.22,3.828-2.213
					v-0.603C431.801,172.188,430.083,169.203,427.973,167.982z"/>
				<linearGradient id="SVGID_86_" gradientUnits="userSpaceOnUse" x1="312.9932" y1="106.459" x2="198.1192" y2="17.1904">
					<stop  offset="0" style="stop-color:#0070E6"/>
					<stop  offset="0.9995" style="stop-color:#A5C5FF"/>
				</linearGradient>
				<path fill="url(#SVGID_86_)" d="M429.676,176.961c-0.351,0-0.767-0.134-1.204-0.386L197.19,43.095v-7.148l230.283,132.901
					c1.804,1.043,3.328,3.689,3.328,5.777v0.603c0,0.597-0.131,1.091-0.371,1.39C430.245,176.849,429.998,176.961,429.676,176.961
					L429.676,176.961z"/>
				<linearGradient id="SVGID_87_" gradientUnits="userSpaceOnUse" x1="262.4956" y1="69.6143" x2="262.4956" y2="44.0048">
					<stop  offset="0" style="stop-color:#0070E6"/>
					<stop  offset="0.9995" style="stop-color:#A5C5FF"/>
				</linearGradient>
				<polygon fill="url(#SVGID_87_)" points="263.851,96.595 261.141,95.032 261.141,43.469 263.851,45.033 				"/>
				<polygon fill="#FFFFFF" points="261.141,43.469 263.851,41.914 266.543,43.469 263.851,45.033 				"/>
				<linearGradient id="SVGID_88_" gradientUnits="userSpaceOnUse" x1="248.3525" y1="69.6143" x2="248.3525" y2="44.0048">
					<stop  offset="0" style="stop-color:#0070E6"/>
					<stop  offset="0.9995" style="stop-color:#A5C5FF"/>
				</linearGradient>
				<polygon fill="url(#SVGID_88_)" points="249.703,88.427 247.002,86.866 247.002,35.307 249.703,36.868 				"/>
				<polygon fill="#FFFFFF" points="247.002,35.307 249.703,33.747 252.414,35.307 249.711,36.868 				"/>
				<g>
					<linearGradient id="SVGID_89_" gradientUnits="userSpaceOnUse" x1="247.0801" y1="66.4336" x2="272.6255" y2="104.6314">
						<stop  offset="0" style="stop-color:#0070E6"/>
						<stop  offset="0.9997" style="stop-color:#00152B"/>
					</linearGradient>
					<path fill="url(#SVGID_89_)" d="M271.258,83.308l-7.654-19.835c-0.41-1.072-1.564-2.427-2.562-3.003l-11.295-6.524
						c-0.475-0.276-0.906-0.298-1.237-0.147l0,0l-0.017,0.017c-0.027,0.006-0.042,0.006-0.057,0.028l-17.357,10.012l23.033,40.959
						l17.355-10.018l0,0c0.336-0.189,0.543-0.598,0.543-1.183v-6.244C272.01,86.217,271.665,84.394,271.258,83.308z"/>
					<linearGradient id="SVGID_90_" gradientUnits="userSpaceOnUse" x1="242.5742" y1="107.252" x2="242.5742" y2="89.474">
						<stop  offset="0" style="stop-color:#0070E6"/>
						<stop  offset="0.9995" style="stop-color:#A5C5FF"/>
					</linearGradient>
					<path fill="url(#SVGID_90_)" d="M254.616,103.655c0,1.159-0.816,1.627-1.817,1.05L232.359,92.9
						c-1.008-0.575-1.827-1.994-1.827-3.146V65.027c0-1.16,0.819-1.627,1.827-1.043l11.293,6.525
						c0.994,0.562,2.146,1.923,2.564,2.996l7.65,19.844c0.416,1.08,0.749,2.901,0.749,4.055V103.655z"/>
					<linearGradient id="SVGID_91_" gradientUnits="userSpaceOnUse" x1="244.186" y1="91.752" x2="244.186" y2="75.9705">
						<stop  offset="0" style="stop-color:#0070E6"/>
						<stop  offset="0.9997" style="stop-color:#00152B"/>
					</linearGradient>
					<path fill="url(#SVGID_91_)" d="M237.464,90.162c-0.821-0.474-1.506-1.647-1.506-2.601V71.105c0-0.956,0.671-1.346,1.495-0.871
						l5.152,2.972c0.836,0.477,1.773,1.602,2.118,2.486l7.071,18.345c0.346,0.884,0.619,2.326,0.619,3.192
						c0,0.863-0.67,1.174-1.496,0.697L237.464,90.162z"/>
					<linearGradient id="SVGID_92_" gradientUnits="userSpaceOnUse" x1="267.1777" y1="100.2812" x2="260.3091" y2="82.8091">
						<stop  offset="0" style="stop-color:#0070E6"/>
						<stop  offset="0.9997" style="stop-color:#00152B"/>
					</linearGradient>
					<path fill="url(#SVGID_92_)" d="M255.565,91.059c0.345,0.892,1.294,1.221,2.132,0.753l9.883-5.711
						c0.836-0.476,1.229-1.591,0.879-2.485l-6.877-17.884c-0.348-0.892-1.305-1.231-2.135-0.747l-9.889,5.704
						c-0.82,0.474-1.225,1.59-0.879,2.483L255.565,91.059z"/>
					<linearGradient id="SVGID_93_" gradientUnits="userSpaceOnUse" x1="247.2593" y1="69.9922" x2="247.2593" y2="54.9492">
						<stop  offset="0" style="stop-color:#0070E6"/>
						<stop  offset="0.9995" style="stop-color:#A5C5FF"/>
					</linearGradient>
					<path fill="url(#SVGID_93_)" d="M249.479,56.278c-0.424-0.244-1.117-0.243-1.54,0.001l-11.294,6.521
						c-0.423,0.244-0.423,0.643,0.001,0.885l8.392,4.817c0.424,0.243,1.115,0.243,1.539-0.002l11.297-6.519
						c0.423-0.244,0.423-0.643-0.001-0.886L249.479,56.278z"/>
					<linearGradient id="SVGID_94_" gradientUnits="userSpaceOnUse" x1="242.6831" y1="53.7656" x2="235.6549" y2="69.993">
						<stop  offset="0" style="stop-color:#0070E6"/>
						<stop  offset="0.9997" style="stop-color:#00152B"/>
					</linearGradient>
					<path fill="url(#SVGID_94_)" d="M248.509,53.797l-0.017,0.017c-0.027,0.006-0.042,0.006-0.057,0.028l-17.33,9.996
						c0.328-0.167,0.768-0.136,1.254,0.146l0.055,0.032l17.393-10.036l-0.061-0.035C249.271,53.668,248.84,53.647,248.509,53.797z"
						/>
				</g>
				<linearGradient id="SVGID_95_" gradientUnits="userSpaceOnUse" x1="327.959" y1="99.7153" x2="327.959" y2="106.6169">
					<stop  offset="0" style="stop-color:#0070E6"/>
					<stop  offset="0.9997" style="stop-color:#00152B"/>
				</linearGradient>
				<path fill="url(#SVGID_95_)" d="M327.328,105.007c0.345-0.201,0.915-0.201,1.266,0l1.551,0.895c0.351,0.2,0.351,0.533,0,0.734
					l-1.551,0.895c-0.351,0.199-0.921,0.199-1.266,0l-1.551-0.895c-0.356-0.201-0.356-0.534,0-0.734L327.328,105.007z"/>
				<linearGradient id="SVGID_96_" gradientUnits="userSpaceOnUse" x1="214.1851" y1="36.9736" x2="214.1851" y2="40.9748">
					<stop  offset="0" style="stop-color:#0070E6"/>
					<stop  offset="0.9997" style="stop-color:#00152B"/>
				</linearGradient>
				<path fill="url(#SVGID_96_)" d="M213.646,38.736c0.303-0.172,0.779-0.172,1.082,0l1.297,0.759c0.299,0.174,0.299,0.445,0,0.619
					l-1.297,0.747c-0.303,0.175-0.779,0.175-1.082,0l-1.303-0.747c-0.297-0.174-0.297-0.445,0-0.619L213.646,38.736z"/>
				<linearGradient id="SVGID_97_" gradientUnits="userSpaceOnUse" x1="425.4824" y1="170.7891" x2="428.5365" y2="176.319">
					<stop  offset="0" style="stop-color:#0070E6"/>
					<stop  offset="0.9997" style="stop-color:#00152B"/>
				</linearGradient>
				<path fill="url(#SVGID_97_)" d="M429.445,174.641c0-1.974-1.208-4.286-2.699-5.145c-0.645-0.373-1.234-0.415-1.706-0.17l0,0l0,0
					c-0.013,0-0.019,0.008-0.019,0.014l-1.43,0.857l0.479,1.002c-0.013,0.109-0.013,0.216-0.013,0.339
					c0,1.943,1.166,4.19,2.607,5.092l0.49,1l1.271-0.762v-0.006C429.04,176.558,429.445,175.78,429.445,174.641z"/>
				<linearGradient id="SVGID_98_" gradientUnits="userSpaceOnUse" x1="424.8203" y1="172.4976" x2="429.1524" y2="181.1617">
					<stop  offset="0" style="stop-color:#D2E4FF"/>
					<stop  offset="1" style="stop-color:#77A4F9"/>
				</linearGradient>
				<path fill="url(#SVGID_98_)" d="M428.193,175.397c0,1.982-1.215,2.898-2.705,2.041c-1.491-0.867-2.699-3.172-2.682-5.15
					c0-1.983,1.19-2.896,2.682-2.039C426.979,171.105,428.193,173.407,428.193,175.397z"/>
				<linearGradient id="SVGID_99_" gradientUnits="userSpaceOnUse" x1="427.0977" y1="181.1675" x2="423.8316" y2="166.2362">
					<stop  offset="0" style="stop-color:#0070E6"/>
					<stop  offset="0.9995" style="stop-color:#A5C5FF"/>
				</linearGradient>
				<path fill="url(#SVGID_99_)" d="M426.558,177.26c-0.25,0-0.526-0.086-0.821-0.255c-1.332-0.774-2.445-2.933-2.43-4.712
					c0-0.904,0.293-1.865,1.113-1.865c0.248,0,0.523,0.086,0.818,0.256c1.332,0.764,2.455,2.922,2.455,4.714
					C427.693,176.528,427.248,177.26,426.558,177.26z"/>
				<linearGradient id="SVGID_100_" gradientUnits="userSpaceOnUse" x1="201.104" y1="38.1826" x2="200.7905" y2="48.5303">
					<stop  offset="0" style="stop-color:#0070E6"/>
					<stop  offset="0.9997" style="stop-color:#00152B"/>
				</linearGradient>
				<path fill="url(#SVGID_100_)" d="M203.923,43.867c0-1.98-1.201-4.293-2.693-5.151c-0.65-0.372-1.237-0.416-1.707-0.171l0,0l0,0
					c-0.007,0-0.007,0.014-0.022,0.014l-1.427,0.859l0.477,1c-0.005,0.106-0.014,0.217-0.014,0.331c0,1.951,1.166,4.2,2.607,5.096
					l0.489,1.002l1.283-0.762v-0.006C203.535,45.776,203.923,44.997,203.923,43.867z"/>
				<linearGradient id="SVGID_101_" gradientUnits="userSpaceOnUse" x1="199.5947" y1="42.2129" x2="202.8843" y2="49.5034">
					<stop  offset="0" style="stop-color:#D2E4FF"/>
					<stop  offset="1" style="stop-color:#77A4F9"/>
				</linearGradient>
				<path fill="url(#SVGID_101_)" d="M202.671,44.615c0,1.982-1.213,2.889-2.694,2.039c-1.49-0.864-2.693-3.168-2.693-5.147
					c0-1.982,1.204-2.898,2.693-2.04C201.458,40.325,202.671,42.625,202.671,44.615z"/>
				<linearGradient id="SVGID_102_" gradientUnits="userSpaceOnUse" x1="198.2461" y1="51.8442" x2="200.1418" y2="42.2304">
					<stop  offset="0" style="stop-color:#0070E6"/>
					<stop  offset="0.9995" style="stop-color:#A5C5FF"/>
				</linearGradient>
				<path fill="url(#SVGID_102_)" d="M201.04,46.472c-0.248,0-0.522-0.085-0.814-0.252c-1.323-0.767-2.442-2.926-2.442-4.713
					c0-1.131,0.442-1.862,1.125-1.862c0.249,0,0.524,0.086,0.818,0.255c1.324,0.768,2.444,2.928,2.444,4.715
					C202.171,45.743,201.728,46.472,201.04,46.472z"/>
				<linearGradient id="SVGID_103_" gradientUnits="userSpaceOnUse" x1="209.0356" y1="38.4229" x2="208.7222" y2="48.7705">
					<stop  offset="0" style="stop-color:#0070E6"/>
					<stop  offset="0.9997" style="stop-color:#00152B"/>
				</linearGradient>
				<path fill="url(#SVGID_103_)" d="M211.732,48.153c0-1.981-1.202-4.287-2.693-5.152c-0.643-0.376-1.238-0.411-1.708-0.167l0,0
					l0,0c-0.009,0-0.02,0.008-0.02,0.008l-1.43,0.867l0.478,0.99c0,0.113-0.013,0.226-0.013,0.341c0,1.946,1.163,4.2,2.605,5.094
					l0.481,1l1.289-0.764l0,0C211.336,50.065,211.732,49.29,211.732,48.153z"/>
				<linearGradient id="SVGID_104_" gradientUnits="userSpaceOnUse" x1="207.3516" y1="45.8696" x2="209.3523" y2="52.7166">
					<stop  offset="0" style="stop-color:#D2E4FF"/>
					<stop  offset="1" style="stop-color:#77A4F9"/>
				</linearGradient>
				<path fill="url(#SVGID_104_)" d="M210.475,48.902c0,1.979-1.206,2.894-2.689,2.035c-1.485-0.855-2.694-3.159-2.694-5.147
					c0-1.981,1.209-2.896,2.694-2.029C209.269,44.615,210.475,46.92,210.475,48.902z"/>
				<linearGradient id="SVGID_105_" gradientUnits="userSpaceOnUse" x1="206.5015" y1="53.8457" x2="208.397" y2="44.2325">
					<stop  offset="0" style="stop-color:#0070E6"/>
					<stop  offset="0.9995" style="stop-color:#A5C5FF"/>
				</linearGradient>
				<path fill="url(#SVGID_105_)" d="M208.852,50.76c-0.248,0-0.523-0.086-0.816-0.256c-1.325-0.764-2.444-2.922-2.444-4.714
					c0-1.128,0.44-1.856,1.122-1.856c0.25,0,0.525,0.087,0.82,0.259c1.324,0.763,2.441,2.919,2.441,4.71
					C209.975,50.03,209.533,50.76,208.852,50.76z"/>
				<linearGradient id="SVGID_106_" gradientUnits="userSpaceOnUse" x1="261.5688" y1="50.5454" x2="271.3047" y2="38.9292">
					<stop  offset="0" style="stop-color:#0070E6"/>
					<stop  offset="0.9995" style="stop-color:#A5C5FF"/>
				</linearGradient>
				<polygon fill="url(#SVGID_106_)" points="280.699,35.307 278,33.747 275.3,35.307 275.312,35.316 261.141,43.469 
					263.851,45.033 280.258,35.592 280.232,35.578 				"/>
				<linearGradient id="SVGID_107_" gradientUnits="userSpaceOnUse" x1="249.2412" y1="40.2139" x2="258.9776" y2="28.597">
					<stop  offset="0" style="stop-color:#0070E6"/>
					<stop  offset="0.9995" style="stop-color:#A5C5FF"/>
				</linearGradient>
				<polygon fill="url(#SVGID_107_)" points="266.543,27.149 263.851,25.58 261.141,27.149 261.158,27.158 247.002,35.307 
					249.711,36.868 266.11,27.421 266.089,27.413 				"/>
				<linearGradient id="SVGID_108_" gradientUnits="userSpaceOnUse" x1="272.2749" y1="50.6606" x2="272.2749" y2="76.8923">
					<stop  offset="0" style="stop-color:#0070E6"/>
					<stop  offset="0.9997" style="stop-color:#00152B"/>
				</linearGradient>
				<polygon fill="url(#SVGID_108_)" points="278.006,36.868 278.006,36.881 266.543,43.483 266.543,43.469 263.851,45.033 
					263.851,64.111 266.543,71.088 266.543,47.585 278.006,40.983 278.006,73.128 280.699,74.682 280.699,35.307 				"/>
				<g>
					<linearGradient id="SVGID_109_" gradientUnits="userSpaceOnUse" x1="265.1616" y1="32.1885" x2="267.1328" y2="37.7593">
						<stop  offset="0" style="stop-color:#0070E6"/>
						<stop  offset="0.9997" style="stop-color:#00152B"/>
					</linearGradient>
					<path fill="url(#SVGID_109_)" d="M268.398,35.28c0-1.981-1.209-4.285-2.691-5.141c-0.648-0.375-1.248-0.419-1.714-0.173l0,0
						l0,0c0,0-0.012,0.004-0.021,0.013l-1.422,0.858l0.469,0.994c-0.006,0.117-0.006,0.222-0.006,0.337
						c0,1.951,1.161,4.201,2.607,5.1l0.477,1l1.295-0.769l0,0C267.996,37.198,268.398,36.411,268.398,35.28z"/>
					<linearGradient id="SVGID_110_" gradientUnits="userSpaceOnUse" x1="264.7246" y1="36.8618" x2="264.2105" y2="32.4913">
						<stop  offset="0" style="stop-color:#0070E6"/>
						<stop  offset="0.9997" style="stop-color:#00152B"/>
					</linearGradient>
					<path fill="url(#SVGID_110_)" d="M267.135,36.039c0,1.979-1.198,2.886-2.678,2.03c-1.492-0.866-2.703-3.161-2.703-5.142
						c0-1.991,1.211-2.896,2.703-2.04C265.937,31.745,267.135,34.049,267.135,36.039z"/>
					<linearGradient id="SVGID_111_" gradientUnits="userSpaceOnUse" x1="289.1113" y1="58.9482" x2="274.7264" y2="70.5929">
						<stop  offset="0" style="stop-color:#0070E6"/>
						<stop  offset="0.9997" style="stop-color:#00152B"/>
					</linearGradient>
					<polygon fill="url(#SVGID_111_)" points="328.406,105.895 272.456,40.282 273.064,39.934 256.203,30.225 255.951,30.368 
						254.988,30.095 214.897,39.415 213.939,39.971 215.019,40.315 255.238,30.772 272.105,40.482 327.45,106.446 328.455,106.927 
											"/>
					<linearGradient id="SVGID_112_" gradientUnits="userSpaceOnUse" x1="261.1548" y1="53.8755" x2="271.1095" y2="58.4869">
						<stop  offset="0" style="stop-color:#0070E6"/>
						<stop  offset="0.9997" style="stop-color:#00152B"/>
					</linearGradient>
					<polygon fill="url(#SVGID_112_)" points="272.815,39.249 255.953,29.541 214.648,39.35 213.689,39.906 254.988,30.095 
						271.855,39.805 328.206,106.862 329.164,106.313 					"/>
					<linearGradient id="SVGID_113_" gradientUnits="userSpaceOnUse" x1="262.5415" y1="33.1152" x2="264.5127" y2="38.686">
						<stop  offset="0" style="stop-color:#0070E6"/>
						<stop  offset="0.9997" style="stop-color:#00152B"/>
					</linearGradient>
					<path fill="url(#SVGID_113_)" d="M265.952,36.691c0-1.978-1.208-4.284-2.701-5.148c-0.642-0.375-1.239-0.411-1.708-0.166l0,0
						l0,0c-0.014,0-0.014,0.008-0.02,0.008l-1.436,0.865l0.492,0.993c-0.016,0.115-0.016,0.223-0.016,0.34
						c0,1.951,1.158,4.196,2.607,5.092l0.482,0.999l1.273-0.762l0,0C265.551,38.608,265.952,37.831,265.952,36.691z"/>
					<linearGradient id="SVGID_114_" gradientUnits="userSpaceOnUse" x1="259.3047" y1="35.8857" x2="264.6914" y2="35.8857">
						<stop  offset="0" style="stop-color:#D2E4FF"/>
						<stop  offset="1" style="stop-color:#77A4F9"/>
					</linearGradient>
					<path fill="url(#SVGID_114_)" d="M264.691,37.44c0,1.981-1.211,2.896-2.701,2.04c-1.482-0.857-2.694-3.161-2.686-5.148
						c0-1.98,1.203-2.896,2.686-2.04C263.48,33.157,264.691,35.461,264.691,37.44z"/>
					<linearGradient id="SVGID_115_" gradientUnits="userSpaceOnUse" x1="261.499" y1="34.6821" x2="262.5396" y2="37.623">
						<stop  offset="0" style="stop-color:#0070E6"/>
						<stop  offset="0.9997" style="stop-color:#00152B"/>
					</linearGradient>
					<path fill="url(#SVGID_115_)" d="M263.299,36.57c0-1.044-0.638-2.261-1.426-2.718c-0.338-0.197-0.654-0.217-0.902-0.087l0,0
						l0,0c-0.007,0-0.007,0.004-0.01,0.004l-0.758,0.456l0.26,0.524c-0.008,0.061-0.008,0.117-0.008,0.18
						c0,1.029,0.611,2.215,1.376,2.688l0.255,0.527l0.672-0.402l0,0C263.087,37.582,263.299,37.172,263.299,36.57z"/>
					<linearGradient id="SVGID_116_" gradientUnits="userSpaceOnUse" x1="261.2109" y1="39.7896" x2="261.2109" y2="34.8103">
						<stop  offset="0" style="stop-color:#0070E6"/>
						<stop  offset="0.9995" style="stop-color:#A5C5FF"/>
					</linearGradient>
					<path fill="url(#SVGID_116_)" d="M262.633,36.965c0,1.046-0.639,1.528-1.426,1.077c-0.782-0.453-1.422-1.668-1.418-2.718
						c0-1.045,0.636-1.529,1.418-1.077C261.994,34.704,262.633,35.921,262.633,36.965z"/>
				</g>
			</g>
		</g>
		<g>
			<linearGradient id="SVGID_117_" gradientUnits="userSpaceOnUse" x1="383.5312" y1="396.0059" x2="383.5312" y2="349.7245">
				<stop  offset="0" style="stop-color:#EFF7FF"/>
				<stop  offset="0.9992" style="stop-color:#A5C5FF"/>
			</linearGradient>
			<polygon fill="url(#SVGID_117_)" points="385.277,345.152 310.676,388.224 381.768,429.028 456.387,385.968 			"/>
			<linearGradient id="SVGID_118_" gradientUnits="userSpaceOnUse" x1="310.6758" y1="411.2461" x2="381.7676" y2="411.2461">
				<stop  offset="0" style="stop-color:#0070E6"/>
				<stop  offset="0.9992" style="stop-color:#A5C5FF"/>
			</linearGradient>
			<polygon fill="url(#SVGID_118_)" points="310.676,388.224 381.768,429.028 381.768,434.27 310.676,393.376 			"/>
			<linearGradient id="SVGID_119_" gradientUnits="userSpaceOnUse" x1="381.7676" y1="410.1182" x2="456.3867" y2="410.1182">
				<stop  offset="0" style="stop-color:#0070E6"/>
				<stop  offset="0.9992" style="stop-color:#A5C5FF"/>
			</linearGradient>
			<polygon fill="url(#SVGID_119_)" points="456.387,385.967 381.768,429.028 381.768,434.27 456.387,391.179 			"/>
			<linearGradient id="SVGID_120_" gradientUnits="userSpaceOnUse" x1="401.6396" y1="395.9258" x2="417.4823" y2="351.0388">
				<stop  offset="0" style="stop-color:#38D611"/>
				<stop  offset="0.9995" style="stop-color:#009C00"/>
			</linearGradient>
			<polygon fill="url(#SVGID_120_)" points="435.389,388.323 382.219,419.021 382.219,362.928 435.389,332.229 			"/>
			<linearGradient id="SVGID_121_" gradientUnits="userSpaceOnUse" x1="329.0498" y1="375.625" x2="382.2188" y2="375.625">
				<stop  offset="0" style="stop-color:#38D611"/>
				<stop  offset="0.9995" style="stop-color:#009C00"/>
			</linearGradient>
			<polygon fill="url(#SVGID_121_)" points="329.05,388.323 382.219,419.021 382.219,362.928 329.05,332.229 			"/>
			<linearGradient id="SVGID_122_" gradientUnits="userSpaceOnUse" x1="382.2188" y1="323.5078" x2="382.2188" y2="361.1769">
				<stop  offset="0" style="stop-color:#38D611"/>
				<stop  offset="0.9995" style="stop-color:#BCF0A7"/>
			</linearGradient>
			<polygon fill="url(#SVGID_122_)" points="382.219,301.532 435.389,332.229 382.219,362.928 329.05,332.229 			"/>
			<linearGradient id="SVGID_123_" gradientUnits="userSpaceOnUse" x1="382.2188" y1="357.5156" x2="382.2188" y2="301.3617">
				<stop  offset="0" style="stop-color:#38D611"/>
				<stop  offset="0.9995" style="stop-color:#BCF0A7"/>
			</linearGradient>
			<polygon fill="url(#SVGID_123_)" points="333.05,332.229 382.219,303.843 431.389,332.229 382.219,360.618 			"/>
			<g>
				<polygon fill="#FFFFFF" points="394.752,388.976 394.288,389.603 394.407,389.814 394.887,389.206 				"/>
				<polygon fill="#FFFFFF" points="420.975,371.833 420.506,371.745 420.371,372.132 420.84,372.22 				"/>
				<polygon fill="#FFFFFF" points="419.439,371.952 419.908,372.04 420.086,371.629 419.617,371.54 				"/>
				<polygon fill="#FFFFFF" points="426.602,372.899 426.139,372.81 426.004,373.194 426.467,373.286 				"/>
				<polygon fill="#FFFFFF" points="397.029,385.866 397.148,386.071 397.633,385.468 397.498,385.237 				"/>
				<polygon fill="#FFFFFF" points="397.961,384.61 398.08,384.815 398.563,384.212 398.429,383.981 				"/>
				<polygon fill="#FFFFFF" points="395.684,387.721 395.22,388.347 395.339,388.558 395.818,387.951 				"/>
				<polygon fill="#FFFFFF" points="396.626,386.459 396.157,387.087 396.275,387.3 396.76,386.689 				"/>
				<polygon fill="#FFFFFF" points="425.083,373.009 425.551,373.097 425.687,372.711 425.218,372.622 				"/>
				<polygon fill="#FFFFFF" points="423.839,372.341 423.371,372.253 423.236,372.64 423.704,372.728 				"/>
				<polygon fill="#FFFFFF" points="391.445,393.397 391.564,393.61 392.049,392.999 391.914,392.769 				"/>
				<polygon fill="#FFFFFF" points="392.361,392.151 392.479,392.364 392.97,391.749 392.83,391.521 				"/>
				<polygon fill="#FFFFFF" points="393.799,390.245 393.33,390.874 393.449,391.086 393.934,390.476 				"/>
				<polygon fill="#FFFFFF" points="422.854,372.192 422.439,372.065 422.299,372.462 422.768,372.55 				"/>
				<polygon fill="#FFFFFF" points="421.906,372.014 421.442,371.922 421.307,372.31 421.771,372.4 				"/>
				<polygon fill="#FFFFFF" points="424.28,372.444 424.146,372.831 424.615,372.919 424.75,372.534 				"/>
				<polygon fill="#FFFFFF" points="402.139,388.077 402.646,387.786 402.678,387.437 402.139,387.748 				"/>
				<polygon fill="#FFFFFF" points="401.062,388.698 401.568,388.407 401.601,388.06 401.062,388.37 				"/>
				<polygon fill="#FFFFFF" points="392.414,393.692 392.953,393.381 392.953,393.052 392.414,393.362 				"/>
				<polygon fill="#FFFFFF" points="417.216,379.374 417.722,379.081 417.754,378.733 417.216,379.044 				"/>
				<polygon fill="#FFFFFF" points="393.524,393.052 394.03,392.759 394.062,392.411 393.524,392.722 				"/>
				<polygon fill="#FFFFFF" points="394.602,392.43 395.106,392.138 395.14,391.79 394.602,392.101 				"/>
				<polygon fill="#FFFFFF" points="396.754,391.187 397.26,390.894 397.293,390.546 396.754,390.856 				"/>
				<polygon fill="#FFFFFF" points="395.678,391.809 396.184,391.516 396.217,391.167 395.678,391.479 				"/>
				<polygon fill="#FFFFFF" points="397.832,390.563 398.338,390.272 398.37,389.925 397.832,390.235 				"/>
				<polygon fill="#FFFFFF" points="420.447,377.509 420.953,377.216 420.985,376.868 420.447,377.179 				"/>
				<polygon fill="#FFFFFF" points="419.369,378.13 419.875,377.837 419.908,377.489 419.369,377.8 				"/>
				<polygon fill="#FFFFFF" points="421.523,376.886 422.029,376.595 422.062,376.245 421.523,376.557 				"/>
				<polygon fill="#FFFFFF" points="403.217,387.456 403.723,387.163 403.755,386.815 403.217,387.127 				"/>
				<polygon fill="#FFFFFF" points="411.293,382.464 410.755,382.774 410.755,383.104 411.26,382.812 				"/>
				<polygon fill="#FFFFFF" points="422.568,376.283 423.105,375.972 423.105,375.644 422.568,375.954 				"/>
				<polygon fill="#FFFFFF" points="424.721,375.04 425.26,374.729 425.26,374.399 424.723,374.71 				"/>
				<polygon fill="#FFFFFF" points="423.645,375.661 424.184,375.351 424.184,375.021 423.645,375.332 				"/>
				<polygon fill="#FFFFFF" points="412.369,381.841 411.831,382.152 411.831,382.481 412.337,382.19 				"/>
				<polygon fill="#FFFFFF" points="406.447,385.591 406.953,385.298 406.985,384.95 406.447,385.262 				"/>
				<polygon fill="#FFFFFF" points="405.37,386.212 405.877,385.921 405.908,385.571 405.371,385.883 				"/>
				<polygon fill="#FFFFFF" points="413.447,381.22 412.908,381.53 412.908,381.86 413.414,381.567 				"/>
				<polygon fill="#FFFFFF" points="404.293,386.833 404.799,386.542 404.832,386.194 404.293,386.505 				"/>
				<polygon fill="#FFFFFF" points="416.678,379.354 416.139,379.665 416.139,379.995 416.645,379.702 				"/>
				<polygon fill="#FFFFFF" points="414.523,380.599 413.984,380.909 413.984,381.238 414.492,380.946 				"/>
				<polygon fill="#FFFFFF" points="415.6,379.976 415.062,380.287 415.062,380.616 415.568,380.325 				"/>
				<path fill="#FFFFFF" d="M427.984,358.438l-10.23-2.006v14.151l-8.615-1.675l-8.615,11.623v-14.15l-10.23,13.804v14.969
					l9.693,1.885l9.152-12.349l9.154,1.779l9.692-13.077L427.984,358.438z M399.414,395.258l-7.537-1.431v-0.153l-0.201,0.116
					l-0.338-0.064v-13.297l8.076-10.887v13.251l-0.043-0.074l-0.463,0.626l0.141,0.193l0.365-0.471v6.254l-0.506,0.292v0.329
					l0.506-0.292V395.258z M417.754,378.733v5.938l-7.552-1.438l0.014-0.148l-0.196,0.113l-0.881-0.167l-1.093,1.47l0.017-0.172
					l-0.539,0.311v0.328l0.307-0.176l-7.307,9.826v-12.436l8.615-11.607l8.615,1.666V378.733z M418.832,371.812l0.172,0.033
					l0.135-0.387l-0.307-0.059v-13.067l8.076,1.562v13.268l-0.571,0.769v-0.153l-0.539,0.312v0.329l0.31-0.179l-7.275,9.809V371.812
					z"/>
			</g>
			<polygon opacity="0.6" fill="#FFFFFF" points="348.469,343.441 363.951,352.38 417.12,321.683 401.638,312.744 			"/>
			<polygon opacity="0.6" fill="#FFFFFF" points="363.951,352.38 348.469,343.441 348.469,356.296 363.951,365.234 			"/>
			<g>
				<linearGradient id="SVGID_124_" gradientUnits="userSpaceOnUse" x1="343.6592" y1="417.0508" x2="343.6592" y2="393.762">
					<stop  offset="0" style="stop-color:#38D611"/>
					<stop  offset="0.9995" style="stop-color:#009C00"/>
				</linearGradient>
				<path fill="url(#SVGID_124_)" d="M351.078,376.036l-14.838-8.566c-0.618-0.358-1.127,0.024-1.127,0.852v9.195
					c0,0.824,0.509,1.795,1.127,2.152l14.838,8.566c0.619,0.357,1.127-0.026,1.125-0.854l0.002-9.192
					C352.203,377.36,351.696,376.393,351.078,376.036z"/>
				<linearGradient id="SVGID_125_" gradientUnits="userSpaceOnUse" x1="337.8086" y1="417.0518" x2="337.8086" y2="393.762">
					<stop  offset="0" style="stop-color:#38D611"/>
					<stop  offset="0.9995" style="stop-color:#009C00"/>
				</linearGradient>
				<polygon fill="url(#SVGID_125_)" points="340.504,384.075 335.113,380.964 335.115,382.689 340.504,385.801 				"/>
				<linearGradient id="SVGID_126_" gradientUnits="userSpaceOnUse" x1="341.9004" y1="417.0508" x2="341.9004" y2="393.7615">
					<stop  offset="0" style="stop-color:#38D611"/>
					<stop  offset="0.9995" style="stop-color:#009C00"/>
				</linearGradient>
				<polygon fill="url(#SVGID_126_)" points="335.115,385.987 348.688,393.826 348.688,392.1 335.113,384.263 				"/>
				<linearGradient id="SVGID_127_" gradientUnits="userSpaceOnUse" x1="348.6865" y1="417.0508" x2="348.6865" y2="393.7617">
					<stop  offset="0" style="stop-color:#38D611"/>
					<stop  offset="0.9995" style="stop-color:#009C00"/>
				</linearGradient>
				<polygon fill="url(#SVGID_127_)" points="345.172,388.495 352.203,392.556 352.203,390.83 345.17,386.771 				"/>
				<linearGradient id="SVGID_128_" gradientUnits="userSpaceOnUse" x1="342.7012" y1="417.0479" x2="342.7012" y2="393.7618">
					<stop  offset="0" style="stop-color:#38D611"/>
					<stop  offset="0.9995" style="stop-color:#009C00"/>
				</linearGradient>
				<polygon fill="url(#SVGID_128_)" points="341.743,384.792 341.743,386.517 343.658,387.622 343.658,385.897 				"/>
			</g>
			<linearGradient id="SVGID_129_" gradientUnits="userSpaceOnUse" x1="382.2188" y1="351.5078" x2="382.2188" y2="390.1836">
				<stop  offset="0" style="stop-color:#0070E6"/>
				<stop  offset="0.9997" style="stop-color:#00152B"/>
			</linearGradient>
			<path fill="url(#SVGID_129_)" d="M382.219,425.577c-0.414,0-0.75-0.336-0.75-0.75v-137.02c0-0.414,0.336-0.75,0.75-0.75
				s0.75,0.336,0.75,0.75v137.02C382.969,425.241,382.633,425.577,382.219,425.577z"/>
			<linearGradient id="SVGID_130_" gradientUnits="userSpaceOnUse" x1="416.1895" y1="351.5078" x2="416.1895" y2="390.1831">
				<stop  offset="0" style="stop-color:#0070E6"/>
				<stop  offset="0.9997" style="stop-color:#00152B"/>
			</linearGradient>
			<path fill="url(#SVGID_130_)" d="M450.16,386.269c-0.238,0-0.471-0.111-0.617-0.321l-67.939-97.712
				c-0.236-0.34-0.152-0.807,0.188-1.043c0.339-0.236,0.807-0.153,1.043,0.188l67.941,97.711c0.236,0.34,0.152,0.808-0.188,1.044
				C450.457,386.226,450.308,386.269,450.16,386.269z"/>
			<linearGradient id="SVGID_131_" gradientUnits="userSpaceOnUse" x1="348.248" y1="351.5068" x2="348.248" y2="390.1823">
				<stop  offset="0" style="stop-color:#0070E6"/>
				<stop  offset="0.9997" style="stop-color:#00152B"/>
			</linearGradient>
			<path fill="url(#SVGID_131_)" d="M314.277,388.507c-0.145,0-0.291-0.041-0.42-0.129c-0.344-0.233-0.432-0.699-0.199-1.042
				l67.94-99.95c0.233-0.344,0.7-0.431,1.042-0.198c0.342,0.233,0.432,0.699,0.198,1.042l-67.94,99.949
				C314.754,388.393,314.518,388.507,314.277,388.507z"/>
		</g>
		<g>
			<linearGradient id="SVGID_132_" gradientUnits="userSpaceOnUse" x1="381.627" y1="281.3618" x2="381.627" y2="273.1592">
				<stop  offset="0" style="stop-color:#0070E6"/>
				<stop  offset="0.9997" style="stop-color:#00152B"/>
			</linearGradient>
			<path fill="url(#SVGID_132_)" d="M381.248,290.237c-2.416,0-4.668-1.297-5.877-3.387c-0.324-0.562-0.135-1.283,0.43-1.609
				c0.553-0.324,1.283-0.139,1.607,0.43c0.791,1.363,2.264,2.211,3.84,2.211c2.449,0,4.437-1.99,4.437-4.437v-8.935
				c0-0.65,0.527-1.178,1.177-1.178c0.65,0,1.18,0.527,1.18,1.178v8.935C388.041,287.19,384.99,290.237,381.248,290.237z"/>
			<linearGradient id="SVGID_133_" gradientUnits="userSpaceOnUse" x1="390.1182" y1="265.0347" x2="379.5543" y2="265.0347">
				<stop  offset="0" style="stop-color:#0070E6"/>
				<stop  offset="0.9992" style="stop-color:#A5C5FF"/>
			</linearGradient>
			<path fill-rule="evenodd" clip-rule="evenodd" fill="url(#SVGID_133_)" d="M394.439,254.305v17.745
				c0,2.049-3.393,3.715-7.578,3.715c-4.178,0-7.576-1.666-7.576-3.715v-17.745H394.439z"/>
			<linearGradient id="SVGID_134_" gradientUnits="userSpaceOnUse" x1="379.2852" y1="254.3052" x2="394.4395" y2="254.3052">
				<stop  offset="0" style="stop-color:#EFF7FF"/>
				<stop  offset="0.9992" style="stop-color:#A5C5FF"/>
			</linearGradient>
			<path fill-rule="evenodd" clip-rule="evenodd" fill="url(#SVGID_134_)" d="M379.285,254.305c0,2.056,3.398,3.717,7.576,3.717
				c4.186,0,7.578-1.662,7.578-3.717c0-2.052-3.393-3.717-7.578-3.717C382.684,250.588,379.285,252.253,379.285,254.305z"/>
			<linearGradient id="SVGID_135_" gradientUnits="userSpaceOnUse" x1="390.1182" y1="252.7178" x2="379.5538" y2="252.7178">
				<stop  offset="0" style="stop-color:#0070E6"/>
				<stop  offset="0.9992" style="stop-color:#A5C5FF"/>
			</linearGradient>
			<path fill-rule="evenodd" clip-rule="evenodd" fill="url(#SVGID_135_)" d="M392.445,249.297v4.103
				c0,1.506-2.504,2.738-5.584,2.738c-3.084,0-5.582-1.231-5.582-2.738v-4.103H392.445z"/>
			<linearGradient id="SVGID_136_" gradientUnits="userSpaceOnUse" x1="381.2793" y1="249.2979" x2="392.4453" y2="249.2979">
				<stop  offset="0" style="stop-color:#EFF7FF"/>
				<stop  offset="0.9992" style="stop-color:#A5C5FF"/>
			</linearGradient>
			<path fill-rule="evenodd" clip-rule="evenodd" fill="url(#SVGID_136_)" d="M381.279,249.297c0,1.51,2.498,2.739,5.582,2.739
				c3.08,0,5.584-1.229,5.584-2.739c0-1.512-2.504-2.739-5.584-2.739C383.777,246.559,381.279,247.786,381.279,249.297z"/>
			<linearGradient id="SVGID_137_" gradientUnits="userSpaceOnUse" x1="386.8652" y1="245.354" x2="386.8652" y2="248.5715">
				<stop  offset="0" style="stop-color:#0070E6"/>
				<stop  offset="0.9997" style="stop-color:#00152B"/>
			</linearGradient>
			<path fill-rule="evenodd" clip-rule="evenodd" fill="url(#SVGID_137_)" d="M384.218,249.297c0,0.716,1.185,1.298,2.644,1.298
				c1.461,0,2.651-0.582,2.651-1.298c0-0.719-1.19-1.298-2.651-1.298C385.402,247.999,384.218,248.579,384.218,249.297z"/>
			<linearGradient id="SVGID_138_" gradientUnits="userSpaceOnUse" x1="386.8613" y1="219.5068" x2="386.8613" y2="169.3901">
				<stop  offset="0" style="stop-color:#0070E6"/>
				<stop  offset="0.9997" style="stop-color:#00152B"/>
			</linearGradient>
			<path fill="url(#SVGID_138_)" d="M385.861,153.138v95.956c0,0.552,0.448,1,1,1c0.553,0,1-0.448,1-1v-94.801L385.861,153.138z"/>
		</g>
	</g>
</g>
</svg>
