<?xml version="1.0" encoding="UTF-8"?>
<svg width="107px" height="122px" viewBox="0 0 107 122" version="1.1" xmlns="http://www.w3.org/2000/svg" xmlns:xlink="http://www.w3.org/1999/xlink">
    <!-- Generator: Sketch 53.2 (72643) - https://sketchapp.com -->
    <title>engineering-light-bg</title>
    <desc>Created with Sketch.</desc>
    <defs>
        <circle id="path-1" cx="27" cy="27" r="27"></circle>
        <filter x="-66.7%" y="-57.4%" width="251.9%" height="251.9%" filterUnits="objectBoundingBox" id="filter-2">
            <feOffset dx="5" dy="10" in="SourceAlpha" result="shadowOffsetOuter1"></feOffset>
            <feGaussianBlur stdDeviation="12" in="shadowOffsetOuter1" result="shadowBlurOuter1"></feGaussianBlur>
            <feColorMatrix values="0 0 0 0 0   0 0 0 0 0   0 0 0 0 0  0 0 0 0.35 0" type="matrix" in="shadowBlurOuter1"></feColorMatrix>
        </filter>
        <path d="M14.9089552,22.3860193 C19.0194608,22.3860193 22.3510293,19.0572294 22.3510293,14.9529194 C22.3510293,10.8473705 19.0194608,7.51981945 14.9089552,7.51981945 C10.7984496,7.51981945 7.46688105,10.8473705 7.46688105,14.9529194 C7.46688105,19.0436021 10.7761233,22.3649589 14.8717448,22.3860193 L14.9089552,22.3860193 Z M29.7931034,12.7849319 L29.7931034,17.0713529 C29.6082919,17.475218 29.2089006,17.7403319 28.7636165,17.7527204 C28.044216,17.8146629 27.3248155,17.9137709 26.605415,18.0004904 C26.4702173,17.9918184 26.3511442,18.0884487 26.332539,18.2234834 C26.0745471,19.085723 25.7210486,19.9169913 25.2782451,20.7011834 C25.2410348,20.7879029 25.2410348,20.885772 25.2782451,20.9724915 L26.76666,22.8803205 C27.100313,23.2271985 27.100313,23.7747702 26.76666,24.1191705 L24.2859686,26.5968705 C23.9734015,27.030468 23.3693531,27.129576 22.9352321,26.8173858 C22.8856183,26.7814591 22.8397255,26.7418159 22.7975538,26.6959785 L20.9990525,25.2849283 C20.914709,25.2539571 20.8229234,25.2539571 20.7385799,25.2849283 C19.9559218,25.7210035 19.1224095,26.0629261 18.2578885,26.2995465 C18.0767981,26.3317566 17.9453214,26.4890905 17.9478021,26.6724403 C17.8733814,27.3661963 17.7741537,28.0599523 17.7121364,28.7537083 C17.7096557,29.2009332 17.4491832,29.6060371 17.0423498,29.7931034 L12.7259468,29.7931034 C12.3650062,29.6320529 12.1156967,29.2938469 12.0685636,28.9023703 C12.0685636,28.1342833 11.8949152,27.3661963 11.808091,26.609259 C11.8056103,26.4717466 11.707623,26.3540559 11.5724253,26.3255623 C10.7079043,26.0765535 9.87439203,25.7271978 9.0917339,25.2849283 C9.01359212,25.2180304 8.89699963,25.2180304 8.81885785,25.2849283 L6.90872549,26.7839368 C6.54902524,27.1072767 5.99459071,27.0787831 5.6683798,26.7219943 C4.78773436,25.8547993 3.91949238,24.9628273 3.03884694,24.0832438 C2.69651153,23.7475155 2.6903098,23.1987049 3.02644348,22.8567823 C3.03016452,22.8518269 3.0351259,22.8481104 3.03884694,22.8443938 L4.51485831,20.9489534 C4.55951075,20.8634727 4.55951075,20.7606482 4.51485831,20.6764064 C4.07577593,19.8922143 3.73095983,19.060946 3.48537139,18.1987064 C3.46552585,18.0512832 3.3365299,17.9422644 3.18768842,17.9509364 C2.48069138,17.8642169 1.77369434,17.7651089 1.06669729,17.7031664 C0.607769388,17.7056441 0.18977289,17.4380525 0,17.0217989 L0,12.7849319 C0.158764248,12.429382 0.493657584,12.1853285 0.880645439,12.1394911 C1.64965977,12.0663989 2.41867409,11.9549024 3.18768842,11.8681829 C3.32536679,11.8768549 3.44816102,11.7802246 3.47296793,11.6451899 C3.7247581,10.7817115 4.07453559,9.95044313 4.51485831,9.16748994 C4.5446266,9.08324814 4.5446266,8.99033439 4.51485831,8.90733144 L2.91481237,6.92517145 C2.6332539,6.59192081 2.6332539,6.10505276 2.91481237,5.77304096 L5.60636251,3.08473648 C5.93257343,2.72670883 6.48576761,2.69821528 6.8467082,3.02279398 L8.74443711,4.49702547 C8.83002096,4.54162407 8.93172931,4.54162407 9.01731316,4.49702547 C9.80493267,4.06342797 10.6372046,3.71531112 11.4980045,3.45639148 C11.6319619,3.43656988 11.7287088,3.31764028 11.7212668,3.18384448 C11.808091,2.46531148 11.9073186,1.74677849 11.9693359,1.02824549 C11.9817394,0.582259496 12.245933,0.183349799 12.651526,0 L17.0547532,0 C17.4566252,0.184588649 17.7170978,0.584737196 17.7245399,1.02824549 C17.7865572,1.74677849 17.8857848,2.46531148 17.972609,3.18384448 C17.9639266,3.32011798 18.0594332,3.44400298 18.1958713,3.46754113 C19.0579115,3.72150537 19.8889431,4.06466682 20.6765626,4.49702547 C20.7584255,4.53914637 20.8551724,4.53914637 20.9370352,4.49702547 L22.8719745,2.98562848 C23.2043871,2.70317068 23.6930834,2.70317068 24.025496,2.98562848 L26.7294496,5.68632146 C27.0631026,6.03196061 27.0631026,6.57829346 26.7294496,6.92517145 C26.2209079,7.5557461 25.737173,8.16402144 25.2286313,8.83300044 C25.1554509,8.90857029 25.1554509,9.02873874 25.2286313,9.10430859 C25.6763961,9.88726178 26.0298946,10.7185301 26.2829251,11.5820086 C26.3015303,11.7170432 26.4206035,11.8136735 26.5558012,11.8062404 C27.2752017,11.8917211 27.9946022,11.9908291 28.7140027,12.0527716 C29.1902954,12.0515327 29.6194551,12.3426625 29.7931034,12.7849319 L29.7931034,12.7849319 Z" id="path-3"></path>
    </defs>
    <g id="SeMI-Website" stroke="none" stroke-width="1" fill="none" fill-rule="evenodd">
        <g id="Styleguide-–-SeMI-Graphics" transform="translate(-226.000000, -5082.000000)">
            <g id="graphics/industries/white-background/manufacturing" transform="translate(227.000000, 5084.000000)">
                <g id="Group">
                    <polygon id="Shape" fill="#BCF0A7" fill-rule="nonzero" style="mix-blend-mode: multiply;" opacity="0.7" points="50.9896468 0 0 29.6318997 0 89 51 58.9300363"></polygon>
                    <polygon id="Shape" fill="#BCF0A7" fill-rule="nonzero" style="mix-blend-mode: multiply;" opacity="0.7" points="51.0103532 0 102 29.6318997 102 89 51 58.9300363"></polygon>
                    <polygon id="Shape" fill="#BCF0A7" fill-rule="nonzero" opacity="0.7" points="101 88.1726845 50.9187982 58 1 88.2040816 50.9187982 118"></polygon>
                    <path d="M0.58,28.36 L1.44,28.87" id="Shape" stroke="#FFFFFF"></path>
                    <path d="M3.13,30.88 L49.62,58.6" id="Shape" stroke="#FFFFFF" stroke-dasharray="1.97"></path>
                    <polyline id="Shape" stroke="#FFFFFF" points="50.46 58.1 51.32 58.62 52.18 58.1"></polyline>
                    <path d="M53.87,58.1 L100.35,30.37" id="Shape" stroke="#FFFFFF" stroke-dasharray="1.97"></path>
                    <path d="M51,115 L51,114" id="Shape" stroke="#FFFFFF"></path>
                    <path d="M51,112.53 L51,63" id="Shape" stroke="#FFFFFF" stroke-dasharray="1.94"></path>
                    <path d="M51.32,62.15 L51.32,61.15" id="Shape" stroke="#FFFFFF"></path>
                    <polygon id="Shape" stroke="#00152B" stroke-width="4" points="101 88.0024998 101 29.9975002 51.0049766 1 1 29.9975002 1 88.0024998 51.0049766 117"></polygon>
                </g>
                <g id="Group-2" transform="translate(24.000000, 32.000000)">
                    <g id="Oval" fill-rule="nonzero">
                        <use fill="black" fill-opacity="1" filter="url(#filter-2)" xlink:href="#path-1"></use>
                        <use fill="#00152B" xlink:href="#path-1"></use>
                    </g>
                    <g id="icons/industries/engineering" transform="translate(12.000000, 12.000000)">
                        <g id="background/black">
                            <mask id="mask-4" fill="white">
                                <use xlink:href="#path-3"></use>
                            </mask>
                            <g id="Mask"></g>
                            <g id="background/white" mask="url(#mask-4)" fill="#FFFFFF">
                                <polygon id="Combined-Shape" points="0 0 30 0 30 29.7931034 0 29.7931034"></polygon>
                            </g>
                        </g>
                    </g>
                    <circle id="Oval" stroke="#FFFFFF" stroke-width="2.4" cx="27" cy="27" r="27"></circle>
                </g>
            </g>
        </g>
    </g>
</svg>