<?xml version="1.0" encoding="UTF-8"?>
<svg width="64px" height="64px" viewBox="0 0 64 64" version="1.1" xmlns="http://www.w3.org/2000/svg" xmlns:xlink="http://www.w3.org/1999/xlink">
    <!-- Generator: Sketch 49.2 (51160) - http://www.bohemiancoding.com/sketch -->
    <title>Artboard</title>
    <desc>Created with Sketch.</desc>
    <defs></defs>
    <g id="Artboard" stroke="none" stroke-width="1" fill="none" fill-rule="evenodd">
        <g id="Favicon" fill-rule="nonzero">
            <g id="Dot" fill="#FA0171">
                <path d="M31.6302222,0.142222221 C40.3342657,0.142222221 47.7581915,3.2141915 53.9022222,9.35822221 C60.0462529,15.5022529 63.1182222,23.0115112 63.1182222,31.8862222 C63.1182222,40.5902657 60.0462529,48.0568577 53.9022222,54.2862222 C47.7581915,60.5155867 40.3342657,63.6302222 31.6302222,63.6302222 C22.9261787,63.6302222 15.5022529,60.5155867 9.35822221,54.2862222 C3.2141915,48.0568577 0.142222221,40.5902657 0.142222221,31.8862222 C0.142222221,23.0115112 3.2141915,15.5022529 9.35822221,9.35822221 C15.5022529,3.2141915 22.9261787,0.142222221 31.6302222,0.142222221 Z" id="Path"></path>
            </g>
            <g id="Dash" transform="translate(32.000000, 32.000000) rotate(-64.000000) translate(-32.000000, -32.000000) translate(0.000000, 29.440000)" fill="#38D611">
                <polygon id="Path" points="0 0 64 0 64 4.93786561 0 4.93786561"></polygon>
            </g>
        </g>
        <path d="M21.76,43.3994871 L24.7332869,41.6175086 C26.8264913,45.4666015 29.2447404,47.3911191 31.9881069,47.3911191 C33.1615699,47.3911191 34.2636573,47.1178851 35.2944019,46.5714089 C36.3251465,46.0249328 37.1100863,45.2923489 37.6492451,44.3736354 C38.1884038,43.4549219 38.4579791,42.4807833 38.4579791,41.4511906 C38.4579791,40.2790388 38.0615448,39.1306641 37.2686643,38.006032 C36.1744893,36.453723 34.1764605,34.5846441 31.274518,32.3987395 C28.3567179,30.196995 26.5410489,28.6051101 25.8274564,27.623037 C24.5905629,25.9756886 23.9721254,24.1937279 23.9721254,22.2771013 C23.9721254,20.756472 24.336845,19.3705026 25.066295,18.1191514 C25.795745,16.8678002 26.8225098,15.8817819 28.1466202,15.161067 C29.4707306,14.4403521 30.909787,14.08 32.4638328,14.08 C34.1130241,14.08 35.6551535,14.487871 37.0902671,15.3036253 C38.5253808,16.1193795 40.0437241,17.6201865 41.6453426,19.8060911 L38.7909872,21.9682251 C37.4748057,20.2258373 36.3528966,19.0774626 35.4252265,18.5230665 C34.4975563,17.9686704 33.4866489,17.6914765 32.3924739,17.6914765 C30.9811466,17.6914765 29.8275229,18.1191471 28.9315679,18.9745011 C28.035613,19.8298551 27.5876423,20.8831919 27.5876423,22.1345431 C27.5876423,22.8948577 27.746216,23.6314015 28.0633682,24.3441965 C28.3805204,25.0569914 28.9593144,25.8331343 29.7997677,26.6726484 C30.2596384,27.1161653 31.7660887,28.2803797 34.3191638,30.1653264 C37.3479671,32.3987507 39.4252828,34.3866269 40.5511731,36.1290146 C41.6770633,37.8714024 42.24,39.6216838 42.24,41.3799114 C42.24,43.9142936 41.2766647,46.1160051 39.3499652,47.9851119 C37.4232656,49.8542188 35.080339,50.7887582 32.321115,50.7887582 C30.1961953,50.7887582 28.2695247,50.2224907 26.5410453,49.0899386 C24.8125659,47.9573866 23.2189001,46.0605884 21.76,43.3994871 Z" id="Path" fill="#00152B"></path>
    </g>
</svg>