<svg xmlns="http://www.w3.org/2000/svg" xmlns:xlink="http://www.w3.org/1999/xlink" width="27" height="27" viewBox="0 0 27 27">
    <defs>
        <path id="a" d="M11.114 1.365C8.338 1.9 6.028 3.237 4.12 5.346c1.177.548 2.371.943 3.622 1.24.573-2.108 1.71-3.831 3.372-5.22zm4.708-.025l-.032.046c.077.067.158.131.231.202.346.337.71.657 1.03 1.016a9.494 9.494 0 0 1 2.073 3.8c.04.144.09.19.247.14.798-.258 1.602-.494 2.397-.76.348-.115.679-.28 1.04-.432-1.917-2.115-4.228-3.457-6.986-4.012zM8.78 6.82c1.391.28 2.762.428 4.148.46V1.683a3.32 3.32 0 0 0-1.497.756c-1.353 1.16-2.048 2.719-2.651 4.38zm9.39.048c-.268-.633-.499-1.24-.776-1.825-.451-.956-1.02-1.836-1.827-2.538-.454-.396-.96-.696-1.566-.817V7.33a23.724 23.724 0 0 0 4.168-.462zm1.3 12.708c-.025.077-.04.13-.059.183-.237.695-.443 1.403-.719 2.082-.482 1.189-1.112 2.295-2.04 3.203-.253.247-.53.468-.842.74 3.146-.66 5.65-2.234 7.599-4.748a16.791 16.791 0 0 0-3.939-1.46zM3.518 21.058c1.947 2.5 4.45 4.08 7.554 4.702-.992-.742-1.7-1.713-2.282-2.785-.582-1.073-.997-2.215-1.325-3.382-.726.064-3.229.993-3.947 1.465zm10.479-2.252v6.67c.244-.092.472-.16.684-.261.713-.339 1.262-.875 1.733-1.494.982-1.29 1.57-2.767 1.998-4.314.007-.025.003-.052.005-.083a24 24 0 0 0-4.42-.518zm-5.496.535c.002.02.001.04.007.06.388 1.412.918 2.764 1.75 3.979.505.736 1.098 1.386 1.907 1.797.238.12.498.198.761.301v-6.657c-.816-.06-3.691.28-4.425.52zM8.505 7.93a20.67 20.67 0 0 0-.717 4.582h5.172V8.435L8.505 7.93zm5.488 4.587h5.175a20.911 20.911 0 0 0-.69-4.637l-4.485.552v4.085zm0 5.263c1.58.023 3.132.246 4.679.538.333-1.584.505-3.144.494-4.735h-5.174v4.197zm-6.223-4.2c.008 1.602.158 3.174.503 4.728.078-.007.128-.008.175-.017 1.425-.277 2.86-.474 4.313-.5.172-.004.207-.07.206-.226-.005-1.254-.003-2.508-.004-3.762 0-.074-.007-.148-.01-.223H7.77zm-.317-6.006a20.416 20.416 0 0 1-4.01-1.386 12.16 12.16 0 0 0-2.388 6.329h5.69c.062-1.67.292-3.3.708-4.943zm18.466 4.943c-.201-2.343-.993-4.444-2.39-6.33a20.365 20.365 0 0 1-4.06 1.388c.416 1.64.644 3.278.709 4.942h5.74zm-6.231 6.056c1.525.354 2.942.898 4.3 1.616a12.194 12.194 0 0 0 1.93-6.61h-5.707a24.567 24.567 0 0 1-.523 4.994zm-12.486.008c-.124-.853-.27-1.673-.355-2.5-.086-.826-.113-1.658-.166-2.5h-5.68c.012 2.394.644 4.589 1.922 6.609a17.555 17.555 0 0 1 4.279-1.61z"/>
    </defs>
    <g fill="none" fill-rule="evenodd">
        <mask id="b" fill="#fff">
            <use xlink:href="#a"/>
        </mask>
        <use fill="#00152B" xlink:href="#a"/>
        <g fill="#00152B" mask="url(#b)">
            <rect width="27" height="27" rx="2"/>
        </g>
    </g>
</svg>
