<?xml version="1.0" encoding="utf-8"?>
<!-- Generator: Adobe Illustrator 22.1.0, SVG Export Plug-In . SVG Version: 6.00 Build 0)  -->
<svg version="1.1" id="Layer_1" xmlns="http://www.w3.org/2000/svg" xmlns:xlink="http://www.w3.org/1999/xlink" x="0px" y="0px"
	 viewBox="0 0 80 80" style="enable-background:new 0 0 80 80;" xml:space="preserve">
<style type="text/css">
	.st0{fill:#00152B;}
</style>
<path class="st0" d="M12,24h56c2.2,0,4-1.8,4-4s-1.8-4-4-4H12c-2.2,0-4,1.8-4,4S9.8,24,12,24z M68,36H12c-2.2,0-4,1.8-4,4s1.8,4,4,4
	h56c2.2,0,4-1.8,4-4S70.2,36,68,36z M68,56H12c-2.2,0-4,1.8-4,4s1.8,4,4,4h56c2.2,0,4-1.8,4-4S70.2,56,68,56z"/>
</svg>
