<svg height="126" width="127" xmlns="http://www.w3.org/2000/svg"><g fill="none" fill-rule="evenodd" transform="translate(1 1)"><g stroke-width="2"><path d="m13.59 41.881c1.693-4.188 6.187-13.686 16.424-21.352 10.786-8.077 21.796-9.514 26.279-9.854m55.534 70.212c-1.611 4.221-5.92 13.803-16.006 21.667-10.627 8.285-21.607 9.936-26.082 10.363" stroke="#3d577c" stroke-dasharray="6.57"/><path d="m102.279 64.875 14.468 9.645s.24.256.314.209c.073-.047 0-.41 0-.41v-19.298" fill="#fff" fill-opacity=".1" stroke="#122742"/><circle cx="90.783" cy="33.669" fill="#fff" fill-opacity=".1" r="33.669" stroke="#122742"/></g><circle cx="90.78" cy="33.669" fill="#fff" r="28.5" stroke="#122742"/><path d="m80.029 38.416c-.279-.214-.446-.528-.501-.944l-.131-.049c-.351.361-.689.66-1.018.895s-.591.353-.789.353c-.646 0-1.182-.227-1.609-.682-.427-.454-.641-1.021-.641-1.7 0-.339.087-.632.263-.879.175-.246.405-.408.69-.484l3.17-.739.017-.394c0-.471-.126-.837-.378-1.101-.252-.263-.597-.394-1.035-.394a2.45 2.45 0 0 0 -.961.222c-.34.146-.663.33-.961.55l-.147-.065-.279-.986c.56-.313 1.136-.598 1.725-.854.602-.263 1.029-.394 1.281-.394.909 0 1.59.205 2.045.616.454.411.682.95.682 1.618 0 .241-.049.733-.148 1.478-.121 1.062-.181 1.697-.181 1.905s.055.372.165.493c.108.12.265.187.427.181.131 0 .271-.03.419-.09s.271-.124.37-.189l.246.345c-.206.363-.45.701-.731 1.01-.29.323-.572.522-.846.6-.484-.002-.864-.109-1.144-.322zm-1.248-1.437c.216-.084.419-.2.6-.345l.049-1.56-1.757.493c-.263.065-.395.246-.395.542 0 .285.085.523.255.714a.844.844 0 0 0 .665.288c.164-.001.359-.045.583-.132zm6.759 1.667c-.478-.046-.955-.11-1.429-.189l-.165-.181v-9.559c0-.35-.049-.594-.147-.73-.099-.137-.279-.206-.542-.206-.088 0-.165.006-.23.017a.972.972 0 0 1 -.148.016l-.066-.082.099-.854a75.227 75.227 0 0 0 1.971-.304c.689-.115 1.138-.189 1.347-.222l.115.312c-.197.23-.339 1.965-.427 5.207 1.007-.712 1.604-1.068 1.79-1.068.953 0 1.71.326 2.275.978.563.651.846 1.536.846 2.652 0 .821-.178 1.555-.534 2.201a3.928 3.928 0 0 1 -1.47 1.52c-.624.367-1.336.55-2.135.55-.384 0-.768-.02-1.15-.058zm2.759-1.881c.295-.405.443-.974.443-1.708 0-.821-.15-1.478-.452-1.971s-.692-.739-1.174-.739a1.48 1.48 0 0 0 -.624.164c-.23.11-.433.241-.608.395l-.049 4.205c.121.065.301.126.542.181a3.1 3.1 0 0 0 .69.082c.526-.001.936-.204 1.232-.609zm4.352.961c-.646-.673-.969-1.596-.969-2.768 0-.81.169-1.533.509-2.168a3.711 3.711 0 0 1 1.421-1.486c.607-.355 1.294-.534 2.061-.534a6.4 6.4 0 0 1 1.01.074c.312.05.558.099.739.148s.293.085.337.107l.066.147c-.011.066-.042.217-.09.452-.049.236-.102.54-.156.912a12.72 12.72 0 0 0 -.115 1.166l-1.051.066v-.542c0-.372-.09-.66-.271-.862s-.436-.304-.764-.304c-.515 0-.906.189-1.174.566-.269.378-.402.917-.402 1.618 0 .898.158 1.588.476 2.07.317.482.766.723 1.347.723.274 0 .539-.036.797-.107.257-.071.471-.145.64-.222.17-.077.276-.126.32-.148l.115.049.263.838c-.17.135-.346.263-.525.386a7.526 7.526 0 0 1 -.953.559c-.362.181-.69.271-.985.271-1.119-.001-2-.338-2.646-1.011zm11.086-.173-.099-.033c-1.062.766-1.703 1.149-1.922 1.149-.952 0-1.711-.323-2.274-.969-.564-.646-.846-1.522-.846-2.628 0-.81.178-1.541.534-2.193a3.884 3.884 0 0 1 1.478-1.527c.629-.367 1.338-.55 2.127-.55.263 0 .547.017.854.049v-2.119c0-.339-.052-.577-.156-.714s-.282-.206-.534-.206c-.087 0-.17.006-.246.017a.598.598 0 0 0 -.148.033l.099-.969a31.253 31.253 0 0 0 1.955-.296c.657-.12 1.084-.202 1.281-.246l.148.279c-.143.208-.263 1.275-.361 3.203a130.264 130.264 0 0 0 -.148 6.553c0 .208.046.372.14.493a.46.46 0 0 0 .386.181.92.92 0 0 0 .345-.066c.109-.043.2-.087.271-.131.071-.043.118-.071.14-.082l.263.345c-.085.147-.178.29-.279.427-.178.248-.379.48-.6.69-.246.241-.5.405-.764.493-.976 0-1.524-.395-1.644-1.183zm-.862-.517c.259-.108.5-.255.714-.435v-4.155a3.4 3.4 0 0 0 -.624-.213 2.434 2.434 0 0 0 -.591-.066c-.537 0-.953.2-1.248.6-.296.4-.444.966-.444 1.7 0 .811.15 1.462.452 1.955s.698.739 1.191.739a1.44 1.44 0 0 0 .55-.125z" fill="#af8d00" fill-rule="nonzero"/><path d="m23.641 58.811-14.188-10.052s-.224-.261-.308-.219c-.092.046-.011.411-.011.411l-.549 19.291" fill="#fff" fill-opacity=".1" stroke="#122742" stroke-width="2"/><circle cx="34.246" cy="90.331" r="33.669" stroke="#122742" stroke-width="2"/><circle cx="34.247" cy="90.331" fill="#fff" r="28.5" stroke="#122742"/><path d="m25.468 87.039-.131 4.747.115 3.416h-2.217l.098-3.186v-2.727l-1.856.493-.164-.115v-1.758l3.843-1.1zm5.912 0-.131 4.747.115 3.416h-2.217l.098-3.186v-2.727l-1.856.493-.164-.115v-1.758l3.843-1.1zm8.647.821c.607.723.911 1.747.911 3.071 0 1.401-.328 2.488-.985 3.26s-1.588 1.158-2.792 1.158c-1.117 0-1.982-.361-2.595-1.084s-.919-1.735-.919-3.039c0-1.413.331-2.507.994-3.285.662-.777 1.596-1.166 2.8-1.166 1.116.001 1.978.362 2.586 1.085zm-4.213 1.486c-.318.367-.477.944-.477 1.732 0 .799.159 1.391.477 1.774.317.383.81.575 1.478.575.657 0 1.147-.183 1.47-.55s.484-.933.484-1.7c0-.81-.165-1.41-.493-1.798-.329-.389-.821-.583-1.479-.583-.655 0-1.142.183-1.46.55zm10.035-2.307-.131 4.747.115 3.416h-2.217l.098-3.186v-2.727l-1.856.493-.164-.115v-1.758l3.843-1.1z" fill="#95025c" fill-rule="nonzero"/></g></svg>