<svg height="163" width="163" xmlns="http://www.w3.org/2000/svg"><g fill="none" fill-rule="evenodd" transform="translate(1 1)"><circle cx="80.25" cy="80.25" fill="#fff" fill-opacity=".1" r="80" stroke="#122742" stroke-width="2"/><circle cx="80.25" cy="80.25" fill="#fff" r="73.75" stroke="#122742"/><g stroke="#95025c"><path d="m46.183 53.817 5.478 1.664m-8.97.561-.591 5.041" stroke-width="1.5"/><path d="m55.393 58.257 7.107 9.243m-6.156-12.181 4.404-1.947m-17.654 12.353 2.78 4.364" stroke-width=".75"/><path d="m110.253 61.398 6.33-2.587" stroke-width=".544"/><path d="m109.092 64.169 1.732 3.25m-5.241-5.371-3.877-.077" stroke-width="1.088"/><path d="m98.43 62.904-3.756 2.688" stroke-width=".544"/><path d="m85.461 113.453 3.799-3.098m-3.885 6.64 3.298 2.828m-8.063-3.653-4.292 1.579" stroke-width="1.268"/><path d="m93.014 109.029 5.324-.312m-9.193-.934-4.067-4" stroke-width=".634"/><path d="m64.5 68.5 29-2m-10 36-20-33"/></g><path d="m63.2 81.452c-.847.5-1.732.956-2.655 1.362-12.63 5.57-27.384-.152-32.953-12.782-5.57-12.63.153-27.384 12.783-32.954s27.384.153 32.953 12.783a24.874 24.874 0 0 1 1.995 12.678" stroke="#3d577c" stroke-dasharray="4 2" stroke-width=".75"/><path d="m41.421 55.685a3.471 3.471 0 1 1 3.57-5.956 3.471 3.471 0 0 1 -3.57 5.956m11.313 2.732a2.545 2.545 0 1 1 2.616-4.367 2.545 2.545 0 0 1 -2.616 4.367m-11.982 7.389a2.545 2.545 0 1 1 2.616-4.367 2.545 2.545 0 0 1 -2.616 4.367m20.533-11.978a1.736 1.736 0 1 1 1.784-2.978 1.736 1.736 0 0 1 -1.784 2.978m1.022 16.305a1.737 1.737 0 0 1 1.784-2.978 1.736 1.736 0 0 1 -1.784 2.978m-16.49 2.754a1.737 1.737 0 0 1 1.784-2.978 1.736 1.736 0 0 1 -1.784 2.978" fill="#010202" fill-rule="nonzero"/><path d="m89.771 60.368a18.117 18.117 0 0 1 1.76-6.462c4.365-9.017 15.214-12.788 24.229-8.422 9.018 4.365 12.789 15.213 8.424 24.23-4.366 9.016-15.214 12.787-24.23 8.422a18.05 18.05 0 0 1 -6.488-5.28" stroke="#3d577c" stroke-dasharray="4 2" stroke-width=".75"/><path d="m108.188 64.482a2.52 2.52 0 1 1 -.338-5.028 2.52 2.52 0 0 1 .338 5.028m3.789 6.311a1.848 1.848 0 1 1 -.247-3.687 1.848 1.848 0 0 1 .247 3.687m-11.924-7.112a1.849 1.849 0 1 1 -.245-3.685 1.849 1.849 0 0 1 .245 3.685m16.769-4.07a1.26 1.26 0 1 1 -.165-2.515 1.26 1.26 0 0 1 .165 2.515m-22.504 7.652a1.26 1.26 0 1 1 -.168-2.514 1.261 1.261 0 0 1 .168 2.514" fill="#010202" fill-rule="nonzero"/><path d="m87.462 93.535c6.55.178 12.897 3.504 16.675 9.453 6.036 9.504 3.225 22.102-6.279 28.137-9.504 6.037-22.102 3.226-28.138-6.278-5.199-8.187-3.835-18.667 2.716-25.272" stroke="#3d577c" stroke-dasharray="4 2" stroke-width=".75"/><path d="m84.516 117.728a2.972 2.972 0 1 1 -2.528-5.38 2.972 2.972 0 0 1 2.528 5.38m7.341-6.734a2.179 2.179 0 1 1 -1.852-3.943 2.179 2.179 0 0 1 1.852 3.943m-.47 12.041a2.179 2.179 0 1 1 -1.853-3.944 2.179 2.179 0 0 1 1.853 3.944m-16.152-2.699a2.18 2.18 0 1 1 -1.854-3.944 2.18 2.18 0 0 1 1.854 3.944m25.243-10.327a1.486 1.486 0 1 1 -1.264-2.688 1.486 1.486 0 0 1 1.264 2.688m-15.717-5.967a1.485 1.485 0 1 1 -1.264-2.687 1.485 1.485 0 0 1 1.264 2.687" fill="#010202" fill-rule="nonzero"/></g></svg>