<svg xmlns="http://www.w3.org/2000/svg" xmlns:xlink="http://www.w3.org/1999/xlink" width="84" height="84" viewBox="0 0 84 84">
    <defs>
        <path id="a" d="M24.907 12.698c0 6.74-5.47 12.209-12.21 12.209-6.739 0-12.209-5.47-12.209-12.21C.488 5.959 5.958.489 12.698.489c6.74 0 12.209 5.47 12.209 12.21zm46.395-7.326c-4.004 0-7.325 3.321-7.325 7.326 0 4.004 3.32 7.325 7.325 7.325 4.005 0 7.326-3.32 7.326-7.325 0-4.005-3.321-7.326-7.326-7.326zM42 10.256a2.418 2.418 0 0 0-2.442 2.442A2.418 2.418 0 0 0 42 15.14a2.418 2.418 0 0 0 2.442-2.442A2.418 2.418 0 0 0 42 10.256zm-29.302 26.86c-2.735 0-4.884 2.15-4.884 4.884 0 2.735 2.149 4.884 4.884 4.884 2.735 0 4.883-2.15 4.883-4.884 0-2.735-2.148-4.884-4.883-4.884zm58.604-7.325c-6.74 0-12.209 5.47-12.209 12.209 0 6.74 5.47 12.21 12.21 12.21 6.739 0 12.209-5.47 12.209-12.21 0-6.74-5.47-12.21-12.21-12.21zM42 32.233c-5.372 0-9.767 4.395-9.767 9.767s4.395 9.767 9.767 9.767 9.767-4.395 9.767-9.767-4.395-9.767-9.767-9.767zM12.698 66.419c-2.735 0-4.884 2.148-4.884 4.883s2.149 4.884 4.884 4.884c2.735 0 4.883-2.149 4.883-4.884 0-2.735-2.148-4.883-4.883-4.883zm58.604 2.441a2.418 2.418 0 0 0-2.442 2.442 2.418 2.418 0 0 0 2.442 2.442 2.418 2.418 0 0 0 2.442-2.442 2.418 2.418 0 0 0-2.442-2.442zM42 59.093c-6.74 0-12.21 5.47-12.21 12.21 0 6.739 5.47 12.209 12.21 12.209 6.74 0 12.21-5.47 12.21-12.21 0-6.74-5.47-12.209-12.21-12.209z"/>
    </defs>
    <g fill="none" fill-rule="evenodd">
        <mask id="b" fill="#fff">
            <use xlink:href="#a"/>
        </mask>
        <use fill="#00152B" fill-rule="nonzero" xlink:href="#a"/>
        <g fill="#00152B" mask="url(#b)">
            <rect width="84" height="84" rx="2"/>
        </g>
    </g>
</svg>
