<svg xmlns="http://www.w3.org/2000/svg" width="16" height="16"><g fill="#00152B" fill-rule="evenodd"><path d="M1.909 0c.527 0 .977.186 1.35.559.372.372.558.827.558 1.365 0 .528-.186.98-.558 1.358a1.827 1.827 0 0 1-1.35.566c-.528 0-.978-.189-1.35-.566A1.865 1.865 0 0 1 0 1.924C0 1.386.186.931.559.56A1.84 1.84 0 0 1 1.909 0zm0 6.069c.527 0 .977.186 1.35.559.372.372.558.827.558 1.365 0 .528-.186.98-.558 1.358a1.827 1.827 0 0 1-1.35.566c-.528 0-.978-.189-1.35-.566A1.865 1.865 0 0 1 0 7.993C0 7.455.186 7 .559 6.628a1.84 1.84 0 0 1 1.35-.559zm0 6.069c.527 0 .977.186 1.35.559.372.372.558.827.558 1.365 0 .528-.186.98-.558 1.358a1.827 1.827 0 0 1-1.35.566c-.528 0-.978-.189-1.35-.566A1.865 1.865 0 0 1 0 14.062c0-.538.186-.993.559-1.365a1.84 1.84 0 0 1 1.35-.56zM6.731.993h8.535v1.894H6.731zM6.731 7.062h8.535v1.894H6.731zM6.731 13.131h8.535v1.894H6.731z"/></g></svg>