<svg xmlns="http://www.w3.org/2000/svg" xmlns:xlink="http://www.w3.org/1999/xlink" width="81" height="83" viewBox="0 0 81 83">
    <defs>
        <path id="a" d="M79.025 20.846c1.698 2.121 1.812 5.204.189 7.656-2.716 4.103-5.416 8.218-8.251 12.24-1.764 2.5-4.348 3.31-7.342 2.668-4.123-.884-8.232-1.826-12.346-2.746a1.222 1.222 0 0 1-.124-.038c-1.678 2.507-3.357 5.015-5.04 7.532l5.809 9.134c.6.942 1.217 1.877 1.804 2.83 1.483 2.4 1.499 4.836-.04 7.188-2.974 4.55-5.992 9.075-9.039 13.58-3.034 4.483-9.143 3.37-11.196-.43-1.309-2.423-1.058-4.804.46-7.065a805.74 805.74 0 0 1 6.054-8.912c.388-.563.445-.946.047-1.562a3754.407 3754.407 0 0 1-6.851-10.68c-.03.06-.056.121-.101.187-2.237 3.294-4.43 6.617-6.686 9.9-1.76 2.562-4.798 3.394-7.77 2.512-2.604-.773-5.296-1.255-7.949-1.857-1.89-.428-3.788-.814-5.673-1.267-3.197-.769-5.244-3.618-4.953-6.834.274-3.017 2.846-5.586 5.986-5.713 1.33-.054 2.692.314 4.02.585 2.462.504 4.914 1.06 7.358 1.638.577.138.893.037 1.224-.462 1.738-2.625 6.62-9.477 7.399-10.433.019.028.163-.24.288-.424 1.912-2.791 3.786-5.607 5.671-8.414.143-.214.279-.433.486-.755-1.976-.462-3.823-.915-5.687-1.3-.21-.043-.59.242-.746.472-1.855 2.735-3.68 5.493-5.52 8.239-1.544 2.307-3.692 3.346-6.502 3.068-4.153-.408-6.889-5.11-5.112-8.849.3-.631.651-1.245 1.038-1.827 2.537-3.815 5.09-7.619 7.64-11.425 2.01-3.004 4.417-3.963 7.95-3.178 4.55 1.008 9.107 1.994 13.65 3.034.806.185 1.603.509 2.336.896 5.688 3.007 19.49 9.648 20.363 9.915.615.186.884-.04 1.196-.507 1.849-2.772 3.694-5.547 5.597-8.28 2.435-3.498 7.705-3.639 10.363-.316zM55.682 1.313c6.108-.062 11.09 4.785 11.152 10.845.061 6.011-4.996 11.234-10.917 11.277-6.315.047-11.387-4.808-11.432-10.939-.045-6.162 4.918-11.12 11.197-11.183z"/>
    </defs>
    <g fill="none" fill-rule="evenodd" transform="translate(.111 -1)">
        <mask id="b" fill="#fff">
            <use xlink:href="#a"/>
        </mask>
        <use fill="#00152B" xlink:href="#a"/>
        <g fill="#00152B" mask="url(#b)">
            <rect width="84" height="84" rx="2" transform="translate(-3.111)"/>
        </g>
    </g>
</svg>
