<?xml version="1.0" encoding="UTF-8"?>
<svg width="246px" height="79px" viewBox="0 0 246 79" version="1.1" xmlns="http://www.w3.org/2000/svg" xmlns:xlink="http://www.w3.org/1999/xlink">
    <!-- Generator: Sketch 60.1 (88133) - https://sketch.com -->
    <title>logo</title>
    <desc>Created with Sketch.</desc>
    <g id="Page-1" stroke="none" stroke-width="1" fill="none" fill-rule="evenodd">
        <g id="Desktop-HD-input" transform="translate(-600.000000, -387.000000)">
            <g id="logo" transform="translate(600.368764, 387.007813)">
                <polygon id="Path" fill="#142680" fill-rule="nonzero" points="15.1904297 77.4960938 15.1904297 60.1640625 21.7148438 54.9345703 37.7519531 77.4960938 55.2832031 77.4960938 31.8251953 45.9697266 53.9384766 21.8144531 36.8056641 21.8144531 21.2167969 38.7480469 14.5927734 47.2148438 14.3935547 47.2148438 15.1904297 34.5644531 15.1904297 0 0 0 0 77.4960938"></polygon>
                <path d="M142.478404,78.4921875 C147.990123,78.4921875 152.63856,77.6455078 156.423716,75.9521484 L156.423716,75.9521484 L156.423716,64.6464844 C152.704966,65.8085938 149.517466,66.3896484 146.861216,66.3896484 C144.869029,66.3896484 143.266978,65.875 142.055064,64.8457031 C140.84315,63.8164063 140.237193,62.2226562 140.237193,60.0644531 L140.237193,60.0644531 L140.237193,33.2197266 L155.82606,33.2197266 L155.82606,21.8144531 L140.237193,21.8144531 L140.237193,9.9609375 L130.525279,9.9609375 L126.142466,21.7148438 L117.775279,26.7949219 L117.775279,33.2197266 L125.046763,33.2197266 L125.046763,60.0644531 C125.046763,66.2070312 126.432994,70.8139648 129.205455,73.8852539 C131.977916,76.956543 136.402232,78.4921875 142.478404,78.4921875 Z" id="Path" fill="#142680" fill-rule="nonzero"></path>
                <path d="M174.571122,14.8916016 C177.326981,14.8916016 179.393876,14.2358398 180.771805,12.9243164 C182.149735,11.612793 182.8387,9.77832031 182.8387,7.42089844 C182.8387,2.47363281 180.08284,0 174.571122,0 C169.059403,0 166.303543,2.47363281 166.303543,7.42089844 C166.303543,12.4013672 169.059403,14.8916016 174.571122,14.8916016 Z" id="Path" fill="#142680" fill-rule="nonzero"></path>
                <polygon id="Path" fill="#142680" fill-rule="nonzero" points="182.141434 77.4960938 182.141434 21.8144531 166.951004 21.8144531 166.951004 77.4960938"></polygon>
                <path d="M220.310324,20.7685547 C228.179464,20.7685547 234.305441,23.0097656 238.688253,27.4921875 C243.071066,31.9746094 245.262472,38.1669922 245.262472,46.0693359 L245.262472,46.0693359 L245.262472,53.4404297 L209.353292,53.4404297 L209.374434,53.8835789 C209.608791,57.9881326 210.880064,61.2105334 213.188253,63.5507812 C215.578878,65.9746094 218.932394,67.1865234 223.2488,67.1865234 C226.602316,67.1865234 229.773214,66.8378906 232.761495,66.140625 C235.749777,65.4433594 238.87087,64.3310547 242.124777,62.8037109 L242.124777,62.8037109 L242.124777,74.5576172 L241.508554,74.8580662 C239.030697,76.0356965 236.397238,76.9233398 233.608175,77.5209961 C230.586691,78.168457 226.901144,78.4921875 222.551535,78.4921875 C213.586691,78.4921875 206.580831,76.0185547 201.533956,71.0712891 C196.487081,66.1240234 193.963644,59.1181641 193.963644,50.0537109 C193.963644,40.7236328 196.296163,33.5102539 200.961203,28.4135742 C205.626242,23.3168945 212.075949,20.7685547 220.310324,20.7685547 Z M220.409933,31.5761719 C217.18923,31.5761719 214.665792,32.597168 212.83962,34.6391602 C211.013449,36.6811523 209.96755,39.578125 209.701925,43.3300781 L209.701925,43.3300781 L231.018331,43.3300781 C230.951925,39.578125 229.972433,36.6811523 228.079855,34.6391602 C226.187277,32.597168 223.630636,31.5761719 220.409933,31.5761719 Z" id="Combined-Shape" fill="#142680" fill-rule="nonzero"></path>
                <path d="M91.1403717,63.4190165 C91.539882,62.6792135 88.0004848,62.7921658 85.9690594,61.9231041 C84.6147758,61.3437297 83.6084651,60.7002423 82.9501272,59.992642 C79.8958298,61.736333 78.230541,64.2006997 77.9542608,67.3857422 L88.748964,68.9827478 L91.1403717,63.4190165 Z" id="Path-3" fill="#FFBE00" fill-rule="evenodd"></path>
                <path d="M85.3695608,20.6689453 C92.840264,20.6689453 98.567803,22.2958984 102.552178,25.5498047 C106.536553,28.8037109 108.528741,33.7509766 108.528741,40.3916016 C108.465237,47.9123022 106.851555,51.6726525 103.687695,51.6726525 L103.687695,51.6726525 L93.4379202,51.6726525 C93.4364084,51.6810337 93.4348968,51.6894127 93.4333853,51.6977897 L87.5609671,51.8964844 L87.0749444,51.9139741 C82.9030104,52.0892356 79.7779086,52.8802807 77.699639,54.2871094 C75.5414358,55.7480469 74.4623343,57.9726562 74.4623343,60.9609375 C74.4623343,65.2441406 76.9193655,67.3857422 81.833428,67.3857422 C85.3529593,67.3857422 88.1669241,66.3730469 90.2753226,64.3476562 C90.5860172,64.0491937 90.8738197,63.736311 91.1387302,63.4090081 C89.3407763,71.6816739 87.8577759,76.0869086 86.6893851,76.6245117 C83.9833304,77.8696289 80.4554983,78.4921875 76.105889,78.4921875 C70.7601858,78.4921875 66.5516897,76.9648438 63.4804007,73.9101563 C60.4091116,70.8554688 58.8734671,66.5058594 58.8734671,60.8613281 C58.8734671,54.9511719 60.9403616,50.5932617 65.0741507,47.7875977 C69.2079397,44.9819336 75.4418265,43.4296875 83.7758108,43.1308594 L83.7758108,43.1308594 L93.4379202,42.8320313 L93.4379202,40.3916016 C93.4379202,34.7470703 90.5492483,31.9248047 84.7719046,31.9248047 C80.3226858,31.9248047 75.0931937,33.2695313 69.083428,35.9589844 L69.083428,35.9589844 L64.0531546,25.6992187 C70.4613577,22.3457031 77.5668265,20.6689453 85.3695608,20.6689453 Z" id="a" fill="#142680" fill-rule="nonzero"></path>
            </g>
        </g>
    </g>
</svg>