<svg xmlns="http://www.w3.org/2000/svg" viewBox="0 0 360 360"><defs><style>.cls-1{fill:#e86625;}.cls-2{fill:#00152b;}</style></defs><g id="Layer_2" data-name="Layer 2"><path class="cls-1" d="M126,210V170.34l0-19.08v-3.07l-3-.71-33.71-7.93-.86-.2-.85.19-33.76,7.31-3.06.66v3.14l0,19.67V210l1.92,1.12,33.71,19.77,2,1.15,2-1.15L124,211.1Zm-3.89-2.23L88.33,227.51h0l0-84.17h0l33.71,7.93,0,19.08Z"/><path class="cls-1" d="M139.06,209.36l-1.48.85.5.87,1.73-1a.52.52,0,0,0,.25-.44v-2h-1Z"/><rect class="cls-1" x="139.06" y="182.13" width="1" height="4.25"/><rect class="cls-1" x="139.06" y="190.63" width="1" height="4.25"/><rect class="cls-1" x="139.06" y="199.14" width="1" height="4.25"/><rect class="cls-1" x="139.06" y="173.62" width="1" height="4.25"/><rect class="cls-1" x="139.06" y="165.11" width="1" height="4.25"/><rect class="cls-1" x="139.06" y="156.61" width="1" height="4.25"/><path class="cls-1" d="M139.81,149.92l-1.73-1-.5.87,1.48.86v1.71h1v-2A.52.52,0,0,0,139.81,149.92Z"/><rect class="cls-1" x="94.97" y="122.78" width="1" height="4.25" transform="translate(-60.43 145.14) rotate(-60)"/><rect class="cls-1" x="117.07" y="135.53" width="1" height="4.25" transform="translate(-60.43 170.68) rotate(-60.01)"/><rect class="cls-1" x="109.7" y="131.28" width="1" height="4.25" transform="translate(-60.43 162.17) rotate(-60.01)"/><rect class="cls-1" x="131.8" y="144.04" width="1" height="4.25" transform="translate(-60.43 187.69) rotate(-60.01)"/><rect class="cls-1" x="124.44" y="139.79" width="1" height="4.25" transform="translate(-60.43 179.18) rotate(-60.01)"/><rect class="cls-1" x="102.34" y="127.03" width="1" height="4.25" transform="translate(-60.43 153.64) rotate(-60)"/><path class="cls-1" d="M88.21,121.29l1.49.85.5-.86-1.74-1a.5.5,0,0,0-.5,0l-1.73,1,.5.86Z"/><rect class="cls-1" x="78.83" y="124.4" width="4.25" height="1" transform="translate(-51.63 57.26) rotate(-30.02)"/><rect class="cls-1" x="71.46" y="128.65" width="4.25" height="1" transform="translate(-54.75 54.15) rotate(-30.02)"/><rect class="cls-1" x="64.1" y="132.91" width="4.25" height="1" transform="translate(-57.86 51.03) rotate(-30.02)"/><rect class="cls-1" x="56.73" y="137.16" width="4.25" height="1" transform="translate(-60.98 47.92) rotate(-30.02)"/><rect class="cls-1" x="42" y="145.67" width="4.25" height="1" transform="translate(-67.21 41.69) rotate(-30.02)"/><rect class="cls-1" x="49.37" y="141.41" width="4.25" height="1" transform="translate(-64.1 44.8) rotate(-30.02)"/><path class="cls-1" d="M36.62,149.92a.5.5,0,0,0-.25.44v2h1v-1.71l1.48-.86-.5-.87Z"/><rect class="cls-1" x="36.37" y="156.61" width="1" height="4.25"/><rect class="cls-1" x="36.37" y="199.14" width="1" height="4.25"/><rect class="cls-1" x="36.37" y="173.62" width="1" height="4.25"/><rect class="cls-1" x="36.37" y="182.13" width="1" height="4.25"/><rect class="cls-1" x="36.37" y="190.63" width="1" height="4.25"/><rect class="cls-1" x="36.37" y="165.11" width="1" height="4.25"/><path class="cls-1" d="M37.37,207.64h-1v2a.5.5,0,0,0,.25.44l1.73,1,.5-.87-1.48-.85Z"/><rect class="cls-1" x="43.63" y="211.71" width="1" height="4.25" transform="translate(-163.12 145.12) rotate(-60)"/><rect class="cls-1" x="50.99" y="215.96" width="1" height="4.25" transform="translate(-163.12 153.63) rotate(-60)"/><rect class="cls-1" x="73.09" y="228.72" width="1" height="4.25" transform="translate(-163.12 179.14) rotate(-60)"/><rect class="cls-1" x="80.46" y="232.97" width="1" height="4.25" transform="matrix(0.5, -0.87, 0.87, 0.5, -163.12, 187.62)"/><rect class="cls-1" x="58.36" y="220.21" width="1" height="4.25" transform="translate(-163.12 162.13) rotate(-60)"/><rect class="cls-1" x="65.72" y="224.47" width="1" height="4.25" transform="translate(-163.12 170.64) rotate(-60)"/><path class="cls-1" d="M88.21,238.71l-1.48-.85-.5.86,1.73,1a.47.47,0,0,0,.25.07.43.43,0,0,0,.25-.07l1.74-1-.5-.86Z"/><rect class="cls-1" x="122.81" y="217.59" width="4.25" height="1" transform="translate(-92.36 91.77) rotate(-30.02)"/><rect class="cls-1" x="130.18" y="213.33" width="4.25" height="1" transform="translate(-89.24 94.89) rotate(-30.02)"/><rect class="cls-1" x="115.44" y="221.84" width="4.25" height="1" transform="translate(-95.47 88.66) rotate(-30.02)"/><rect class="cls-1" x="100.71" y="230.35" width="4.25" height="1" transform="translate(-101.7 82.43) rotate(-30.02)"/><rect class="cls-1" x="108.08" y="226.09" width="4.25" height="1" transform="translate(-98.59 85.54) rotate(-30.02)"/><rect class="cls-1" x="93.34" y="234.6" width="4.25" height="1" transform="translate(-104.82 79.31) rotate(-30.02)"/><polyline class="cls-2" points="88.22 197.16 105.15 206.97 122.08 197.16 122.08 177.53 105.16 167.71 105.15 187.34 88.22 177.53"/><polyline class="cls-2" points="88.22 177.53 71.3 187.34 71.3 167.71 54.37 177.53 54.37 197.16 71.3 206.97 88.22 197.16"/><polygon class="cls-2" points="170.18 172.73 175.06 160.54 179.83 172.73 180.87 172.73 186.11 154.49 183.32 154.49 180.04 165.86 175.57 154.49 174.53 154.49 170.01 165.86 166.78 154.49 163.97 154.49 169.14 172.73 170.18 172.73"/><path class="cls-2" d="M194.4,173.06a7.68,7.68,0,0,0,2.7-.46,6.88,6.88,0,0,0,2.16-1.35,8.1,8.1,0,0,0,1.68-2.3l.22-.44-2.23-1.17-.25.4a7.3,7.3,0,0,1-1.29,1.69,4.7,4.7,0,0,1-1.41.81,5.12,5.12,0,0,1-1.73.3,4,4,0,0,1-3-1.26,4.59,4.59,0,0,1-1.25-2.8h11.45V166a7.45,7.45,0,0,0-1.52-4.67,6.8,6.8,0,0,0-5.6-2.66,6.6,6.6,0,0,0-5.45,2.61,7.29,7.29,0,0,0-1.59,4.63,7.41,7.41,0,0,0,1.88,5A6.59,6.59,0,0,0,194.4,173.06Zm-4.1-9a4.43,4.43,0,0,1,1.13-1.76,4.14,4.14,0,0,1,2.9-1.08,4.66,4.66,0,0,1,1.95.43,4.12,4.12,0,0,1,1.49,1.13,4.4,4.4,0,0,1,.67,1.28Z"/><path class="cls-2" d="M209.94,173.06a6.71,6.71,0,0,0,3-.69,7.14,7.14,0,0,0,1.59-1.09v1.45h2.62V159h-2.62v1.49a6.24,6.24,0,0,0-1.5-1.09,6.41,6.41,0,0,0-3.07-.73,6.8,6.8,0,0,0-5,2.11,7,7,0,0,0-2.08,5.06,7.07,7.07,0,0,0,2.06,5.12A6.71,6.71,0,0,0,209.94,173.06Zm-4.37-7.19a4.62,4.62,0,0,1,.62-2.33,4.42,4.42,0,0,1,1.65-1.7,4.53,4.53,0,0,1,2.28-.61,4.31,4.31,0,0,1,3.23,1.34,4.54,4.54,0,0,1,1.32,3.35,4.75,4.75,0,0,1-.59,2.36,4.18,4.18,0,0,1-1.66,1.65,4.56,4.56,0,0,1-4.56,0,4.63,4.63,0,0,1-1.67-1.73A4.76,4.76,0,0,1,205.57,165.87Z"/><polygon class="cls-2" points="225.66 172.73 231.95 158.98 229.09 158.98 225.19 167.57 221.23 158.98 218.38 158.98 224.71 172.73 225.66 172.73"/><rect class="cls-2" x="232.92" y="158.98" width="2.64" height="13.75"/><path class="cls-2" d="M234.24,157.44a1.86,1.86,0,0,0,1.85-1.85,1.83,1.83,0,0,0-.54-1.32,1.85,1.85,0,0,0-2.61,0,1.83,1.83,0,0,0-.54,1.32,1.86,1.86,0,0,0,1.84,1.85Z"/><path class="cls-2" d="M244.44,173.06a6.71,6.71,0,0,0,3-.69,7.14,7.14,0,0,0,1.59-1.09v1.45h2.62V159h-2.62v1.49a6.24,6.24,0,0,0-1.5-1.09,6.41,6.41,0,0,0-3.07-.73,6.8,6.8,0,0,0-5,2.11,7,7,0,0,0-2.08,5.06,7.07,7.07,0,0,0,2.06,5.12A6.71,6.71,0,0,0,244.44,173.06Zm-4.37-7.19a4.62,4.62,0,0,1,.62-2.33,4.42,4.42,0,0,1,1.65-1.7,4.53,4.53,0,0,1,2.28-.61,4.31,4.31,0,0,1,3.23,1.34,4.54,4.54,0,0,1,1.32,3.35,4.75,4.75,0,0,1-.59,2.36,4.18,4.18,0,0,1-1.66,1.65,4.56,4.56,0,0,1-4.56,0,4.63,4.63,0,0,1-1.67-1.73A4.76,4.76,0,0,1,240.07,165.87Z"/><polygon class="cls-2" points="255.8 172.73 258.44 172.73 258.44 161.4 261.04 161.4 261.04 158.98 258.44 158.98 258.44 154.24 255.8 154.24 255.8 158.98 253.56 158.98 253.56 161.4 255.8 161.4 255.8 172.73"/><path class="cls-2" d="M269,173.06a7.64,7.64,0,0,0,2.7-.46,6.82,6.82,0,0,0,2.17-1.35,8.3,8.3,0,0,0,1.68-2.3l.22-.44-2.24-1.17-.24.4a7.29,7.29,0,0,1-1.3,1.69,4.58,4.58,0,0,1-1.41.81,5,5,0,0,1-1.72.3,4,4,0,0,1-3-1.26,4.48,4.48,0,0,1-1.25-2.8h11.45V166a7.39,7.39,0,0,0-1.51-4.67,6.81,6.81,0,0,0-5.6-2.66,6.58,6.58,0,0,0-5.45,2.61,7.3,7.3,0,0,0-1.6,4.63,7.41,7.41,0,0,0,1.88,5A6.62,6.62,0,0,0,269,173.06Zm-4.09-9a4.43,4.43,0,0,1,1.13-1.76,4.14,4.14,0,0,1,2.89-1.08,4.74,4.74,0,0,1,2,.43,4.16,4.16,0,0,1,1.48,1.13,4.41,4.41,0,0,1,.68,1.28Z"/><path class="cls-2" d="M174.14,201.46a10.08,10.08,0,0,0,4.31-.9,8.65,8.65,0,0,0,3.21-2.53l-1.36-1a7.65,7.65,0,0,1-6.06,2.83,7.47,7.47,0,0,1-5.45-2.11,7,7,0,0,1-2.16-5.26,7.43,7.43,0,0,1,1-3.76,7.2,7.2,0,0,1,2.73-2.66,7.64,7.64,0,0,1,3.82-1,7.94,7.94,0,0,1,3.46.76,7.36,7.36,0,0,1,2.7,2.22l1.36-1a8.53,8.53,0,0,0-3.18-2.68,9.72,9.72,0,0,0-4.36-.95,9.15,9.15,0,0,0-6.65,2.58,8.53,8.53,0,0,0-2.66,6.37,9.1,9.1,0,0,0,2.19,6.14A9,9,0,0,0,174.14,201.46Z"/><polygon class="cls-2" points="187.99 205.69 195.6 188.28 193.85 188.28 189.6 198.09 185.21 188.28 183.48 188.28 188.71 200.06 186.26 205.69 187.99 205.69"/><path class="cls-2" d="M199.46,190.47v-7.11h-1.64V201h1.64v-2.35a6.72,6.72,0,0,0,2.24,2,6,6,0,0,0,2.82.67,6.33,6.33,0,0,0,4.65-2,6.48,6.48,0,0,0,1.93-4.72,6.6,6.6,0,0,0-1.91-4.77,6.46,6.46,0,0,0-7.42-1.33A6.79,6.79,0,0,0,199.46,190.47Zm2.39-.35a5.19,5.19,0,0,1,2.56-.68,4.85,4.85,0,0,1,2.48.68,5,5,0,0,1,1.86,1.92,5.19,5.19,0,0,1,0,5.17,4.93,4.93,0,0,1-4.36,2.56,4.8,4.8,0,0,1-3.59-1.49,5.07,5.07,0,0,1-1.45-3.7A5.26,5.26,0,0,1,200,192,4.86,4.86,0,0,1,201.85,190.12Z"/><path class="cls-2" d="M225.22,190.42A6.28,6.28,0,0,0,220,188a6.08,6.08,0,0,0-5,2.41,7,7,0,0,0,.27,8.95,6.1,6.1,0,0,0,4.88,2.05,7.12,7.12,0,0,0,2.52-.43,6.24,6.24,0,0,0,2-1.25,7.65,7.65,0,0,0,1.58-2.16l-1.39-.72a7.85,7.85,0,0,1-1.39,1.81,5.21,5.21,0,0,1-1.57.9,5.57,5.57,0,0,1-1.89.33,4.5,4.5,0,0,1-3.39-1.42,5.15,5.15,0,0,1-1.42-3.64h11.47A7,7,0,0,0,225.22,190.42Zm-9.9,2.94a5.42,5.42,0,0,1,1.49-2.63,4.65,4.65,0,0,1,3.23-1.21,5.12,5.12,0,0,1,2.17.48,4.46,4.46,0,0,1,1.66,1.27,5.4,5.4,0,0,1,.95,2.09Z"/><path class="cls-2" d="M230.74,190.14v-1.86h-1.67V201h1.67v-4.32a19.42,19.42,0,0,1,.31-4.4,4.18,4.18,0,0,1,1.16-2.09,2,2,0,0,1,2.45-.45l.85-1.39a3,3,0,0,0-1.45-.43,3.17,3.17,0,0,0-1.74.54A6.12,6.12,0,0,0,230.74,190.14Z"/><path class="cls-2" d="M239.24,195.06a7.4,7.4,0,0,1,2.07,1.36,1.9,1.9,0,0,1,.46,1.26,1.94,1.94,0,0,1-.69,1.48,2.4,2.4,0,0,1-1.68.64,3.62,3.62,0,0,1-2.67-1.42l-1,1.17a4.59,4.59,0,0,0,1.66,1.32,4.84,4.84,0,0,0,2.11.49,3.77,3.77,0,0,0,2.75-1.09,3.6,3.6,0,0,0,1.11-2.66,3.33,3.33,0,0,0-.65-2,7.58,7.58,0,0,0-2.49-1.83,6.52,6.52,0,0,1-2-1.34,1.85,1.85,0,0,1-.47-1.19,1.62,1.62,0,0,1,.57-1.23,2,2,0,0,1,1.37-.53,3.8,3.8,0,0,1,2.57,1.28l1.06-1.09a5.2,5.2,0,0,0-3.55-1.72,3.48,3.48,0,0,0-2.51,1,3.43,3.43,0,0,0-.36,4.39A6.47,6.47,0,0,0,239.24,195.06Z"/><path class="cls-2" d="M247.09,190.36a7,7,0,0,0,.27,8.95,6.1,6.1,0,0,0,4.88,2.05,7.08,7.08,0,0,0,2.52-.43,6.39,6.39,0,0,0,2-1.25,7.63,7.63,0,0,0,1.57-2.16L257,196.8a7.84,7.84,0,0,1-1.4,1.81,5.09,5.09,0,0,1-1.57.9,5.53,5.53,0,0,1-1.89.33,4.5,4.5,0,0,1-3.39-1.42,5.15,5.15,0,0,1-1.42-3.64h11.47a6.91,6.91,0,0,0-1.41-4.36,6.26,6.26,0,0,0-5.2-2.47A6.08,6.08,0,0,0,247.09,190.36Zm5.08-.84a5.09,5.09,0,0,1,2.17.48,4.46,4.46,0,0,1,1.66,1.27,5.41,5.41,0,0,1,1,2.09h-9.51a5.5,5.5,0,0,1,1.49-2.63A4.66,4.66,0,0,1,252.17,189.52Z"/><path class="cls-2" d="M268.23,201.36a7.94,7.94,0,0,0,3.51-.76,6.14,6.14,0,0,0,2.45-2.14l-1.3-.85a5.58,5.58,0,0,1-4.58,2.23,5.65,5.65,0,0,1-2.77-.67,5,5,0,0,1-2-1.91,5.21,5.21,0,0,1-.7-2.63,4.92,4.92,0,0,1,1.53-3.64,5.37,5.37,0,0,1,3.87-1.49,5.43,5.43,0,0,1,4.6,2.23l1.3-.8a5.37,5.37,0,0,0-1.39-1.59,6.69,6.69,0,0,0-2-1,7.69,7.69,0,0,0-2.44-.39,7.53,7.53,0,0,0-3.65.89,6.56,6.56,0,0,0-2.56,2.48,6.68,6.68,0,0,0-.93,3.44,6.28,6.28,0,0,0,2,4.67A7,7,0,0,0,268.23,201.36Z"/><path class="cls-2" d="M282.73,201.36a5.91,5.91,0,0,0,3.1-.76,4.7,4.7,0,0,0,1.85-2.09,10,10,0,0,0,.61-4v-6.25h-1.67v5.95a12.46,12.46,0,0,1-.25,3.13,3.35,3.35,0,0,1-1.32,1.74,4,4,0,0,1-2.33.66,4.13,4.13,0,0,1-2.37-.68,3.36,3.36,0,0,1-1.34-1.85,12.62,12.62,0,0,1-.23-3v-5.95h-1.64v6.14a10.31,10.31,0,0,0,.61,4.07,4.66,4.66,0,0,0,1.86,2.11A6,6,0,0,0,282.73,201.36Z"/><path class="cls-2" d="M293,196.71a19.42,19.42,0,0,1,.31-4.4,4.18,4.18,0,0,1,1.16-2.09,2,2,0,0,1,2.45-.45l.85-1.39a3,3,0,0,0-1.45-.43,3.17,3.17,0,0,0-1.74.54,6.12,6.12,0,0,0-1.58,1.65v-1.86h-1.67V201H293Z"/><rect class="cls-2" x="298.91" y="188.28" width="1.64" height="12.75"/><path class="cls-2" d="M299.72,185.73a1.3,1.3,0,0,0,1-.39,1.34,1.34,0,0,0,.4-1,1.31,1.31,0,0,0-.4-1,1.35,1.35,0,0,0-2.3,1,1.35,1.35,0,0,0,1.34,1.34Z"/><polygon class="cls-2" points="305.39 201.03 307.03 201.03 307.03 189.69 309.63 189.69 309.63 188.28 307.03 188.28 307.03 183.54 305.39 183.54 305.39 188.28 303.15 188.28 303.15 189.69 305.39 189.69 305.39 201.03"/><polygon class="cls-2" points="313.5 205.69 315.23 205.69 322.84 188.28 321.09 188.28 316.84 198.09 312.46 188.28 310.72 188.28 315.95 200.06 313.5 205.69"/></g></svg>