<svg xmlns="http://www.w3.org/2000/svg" width="70" height="82" viewBox="0 0 70 82">
    <defs>
        <linearGradient id="a" x1=".025%" x2="99.963%" y1="49.988%" y2="49.988%">
            <stop offset="0%" stop-color="#364A68"/>
            <stop offset="100%" stop-color="#FA0171"/>
        </linearGradient>
        <linearGradient id="b" x1="0%" y1="50.023%" y2="50.023%">
            <stop offset="0%" stop-color="#364A68"/>
            <stop offset="100%" stop-color="#FA0171"/>
        </linearGradient>
        <linearGradient id="c" x1="0%" y1="49.996%" y2="49.996%">
            <stop offset="0%" stop-color="#364A68"/>
            <stop offset="100%" stop-color="#FA0171"/>
        </linearGradient>
    </defs>
    <g fill="none" fill-rule="evenodd">
        <path fill="#FA0171" fill-rule="nonzero" d="M18.25 51.15l-.5-.87 1.73-1 .5.87-1.73 1zm3.46-2l-.5-.87 1.74-1 .5.87-1.74 1zm3.47-2l-.5-.87 1.73-1 .5.87-1.73 1zm3.46-2l-.5-.87 1.73-1 .5.87-1.73 1zm3.47-2l-.5-.87 1.73-1 .5.87-1.73 1zm3.39-2.62h-1v-2h1v2zm0-4h-1v-2h1v2zm0-4h-1v-2h1v2zm0-4h-1v-2h1v2zm0-4h-1v-2h1v2zM51.75 51.15l-1.73-1 .5-.87 1.73 1-.5.87zm-3.46-2l-1.74-1 .5-.87 1.74 1-.5.87zm-3.47-2l-1.73-1 .5-.87 1.73 1-.5.87zm-3.46-2l-1.73-1 .5-.87 1.73 1-.5.87zm-3.47-2l-1.73-1 .5-.87 1.73 1-.5.87z"/>
        <path fill="url(#a)" d="M19 32.09a1 1 0 0 1-.5-.14l-17-9.81a1 1 0 1 1 1-1.73l17 9.81a1 1 0 0 1-.5 1.87z" transform="translate(-1)"/>
        <path fill="url(#b)" d="M36 81.16a1 1 0 0 1-1-1V60.53a1 1 0 0 1 2 0v19.63a1 1 0 0 1-1 1z" transform="translate(-1)"/>
        <path fill="url(#c)" fill-rule="nonzero" d="M36 81.16a1 1 0 0 1-.5-.13L1.5 61.4a1 1 0 0 1-.5-.87V21.27a1 1 0 0 1 .5-.86L35.5.78a1 1 0 0 1 1 0l34 19.63a1 1 0 0 1 0 1.73L53.5 32a1 1 0 0 1-1 0L36 22.43l-16 9.23v18.48l16 9.24 16.5-9.53a1 1 0 0 1 1 0l17 9.82a1 1 0 0 1 0 1.73L36.5 81a1 1 0 0 1-.5.16zM3 60l33 19 32-18.48-15-8.65-16.5 9.53a1 1 0 0 1-1 0l-17-9.82a1 1 0 0 1-.5-.86V31.09a1 1 0 0 1 .5-.87l17-9.81a1 1 0 0 1 1 0L53 29.93l15-8.66L36 2.8 3 21.85V60z" transform="translate(-1)"/>
    </g>
</svg>
