<svg xmlns="http://www.w3.org/2000/svg" width="72" height="82" viewBox="0 0 72 82">
    <g fill="#38D611" fill-rule="evenodd">
        <path d="M3.81 35H.53V21.82a1.63 1.63 0 0 1 .82-1.42L35.18.86a1.65 1.65 0 0 1 1.64 0L70.65 20.4c.509.291.822.834.82 1.42v13h-3.28V22.76L36 4.18 3.81 22.76V35zM36 81.14a1.71 1.71 0 0 1-.82-.22L1.35 61.38 3 58.54 36 77.6l33-19.06 1.64 2.84-33.82 19.54a1.71 1.71 0 0 1-.82.22z"/>
        <path d="M13.69 41.91V54.8l11.15 6.44L36 54.8l11.16 6.44 11.15-6.44V41.91l-11.15-6.44v12.88L36 41.91l-11.16 6.44V35.47z"/>
    </g>
</svg>
