<svg xmlns="http://www.w3.org/2000/svg" viewBox="0 0 360 360"><defs><style>.cls-1{fill:#fff;}</style></defs><g id="Layer_2" data-name="Layer 2"><path class="cls-1" d="M143.12,104.05a6.84,6.84,0,0,0,5.2-2.38l16.87,9.74.21-.36.15,38.61L159.87,144l0,6,7.07,7,7-7.07,0-6-5.63,5.68-.15-38.72.27.48,16.71-9.65a6.89,6.89,0,1,0-1.77-4.6,7.06,7.06,0,0,0,.37,2.21l-15.59,9-.08-18.28a6.9,6.9,0,1,0-2.77,0l.08,18.23-15.7-9.06a6.9,6.9,0,1,0-6.57,4.79Zm47.16-11a4.13,4.13,0,1,1-4.13,4.13A4.14,4.14,0,0,1,190.28,93Zm-27.71-9.7a4.13,4.13,0,1,1,4.13,4.13A4.13,4.13,0,0,1,162.57,83.33ZM143.12,93A4.13,4.13,0,1,1,139,97.16,4.14,4.14,0,0,1,143.12,93Z"/><path class="cls-1" d="M119.54,117.64a6.85,6.85,0,0,0,5.22-2.4l17,10v8.43L136.08,128v6l7,7,7-7v-6l-5.66,5.66v-9.22a1.4,1.4,0,0,0-.68-1.2l-17.71-10.4a6.9,6.9,0,1,0-6.57,4.81Zm0-11a4.13,4.13,0,1,1-4.13,4.13A4.14,4.14,0,0,1,119.54,106.62Z"/><path class="cls-1" d="M96,131.23a6.88,6.88,0,0,0,5.33-2.52l11.22,6.73-7.76,1.95,5.13,3.07,9.66-2.42-2.42-9.66L112,125.31l2,7.76-11.36-6.81a6.81,6.81,0,0,0,.28-1.92,6.9,6.9,0,1,0-6.9,6.89Zm0-11a4.13,4.13,0,1,1-4.13,4.13A4.14,4.14,0,0,1,96,120.21Z"/><path class="cls-1" d="M239.09,198.54V185.39a6.91,6.91,0,1,0-2.77.11v13a6.91,6.91,0,0,0-5.51,6.76,6.81,6.81,0,0,0,.48,2.52l-11.79,6.76a6.89,6.89,0,0,0-11.81,6.77l-11.8,6.77a6.89,6.89,0,0,0-11.8,6.77l-12,6.86a6.87,6.87,0,0,0-10.35,0l-12-6.8A6.89,6.89,0,0,0,138,228.23l-11.79-6.69a6.89,6.89,0,0,0-11.89-6.76l-11.75-6.68a6.91,6.91,0,0,0-4.92-9.56V185.45a6.9,6.9,0,1,0-2.77,0v13.09a6.9,6.9,0,1,0,6.06,11.82l12.2,6.93a7.08,7.08,0,0,0-.19,1.6,6.89,6.89,0,0,0,11.7,4.94l12.11,6.89a7.25,7.25,0,0,0-.23,1.76,6.89,6.89,0,0,0,11.82,4.82l12.1,6.88a6.79,6.79,0,0,0-.34,2.13,6.9,6.9,0,0,0,13.79,0,7,7,0,0,0-.35-2.16l12.05-6.91a6.89,6.89,0,0,0,11.88-4.76,7,7,0,0,0-.27-1.9l12-6.89a6.89,6.89,0,0,0,11.84-4.8,6.55,6.55,0,0,0-.26-1.84l12-6.91a6.89,6.89,0,1,0,6.29-11.6Z"/><path class="cls-1" d="M189.84,123.26a1.37,1.37,0,0,0-.68,1.19v9.2L183.5,128v6l7,7,7.05-7v-6l-5.66,5.66v-8.41l16.79-9.91a6.88,6.88,0,1,0-1.76-4.58,6.93,6.93,0,0,0,.36,2.19Zm24-16.64a4.13,4.13,0,1,1-4.13,4.13A4.14,4.14,0,0,1,213.86,106.62Z"/><path class="cls-1" d="M216.7,128.17l-2.58,9.62,9.62,2.58,5.18-3-7.73-2.07,11.09-6.4a6.89,6.89,0,1,0-1.74-4.57,6.76,6.76,0,0,0,.36,2.17l-11.09,6.4,2.07-7.73Zm20.74-8a4.13,4.13,0,1,1-4.13,4.13A4.14,4.14,0,0,1,237.44,120.21Z"/><path class="cls-1" d="M190.37,205.22l23.54-13.59V164.45l-23.54-13.59V178l-23.54-13.59L143.29,178V150.86l-23.54,13.59v27.18l23.54,13.59,22.15-12.79V225.7L159.79,220v6l7,7,7-7v-6l-5.66,5.66V192.43Zm-23.54-13.59Z"/></g></svg>