<?xml version="1.0" encoding="UTF-8"?>
<svg width="90px" height="116px" viewBox="0 0 90 116" version="1.1" xmlns="http://www.w3.org/2000/svg" xmlns:xlink="http://www.w3.org/1999/xlink">
    <!-- Generator: Sketch 53.2 (72643) - https://sketchapp.com -->
    <title>logos/SeMI/technologies/vertical/color</title>
    <desc>Created with Sketch.</desc>
    <g id="logos/SeMI/technologies/vertical/color" stroke="none" stroke-width="1" fill="none" fill-rule="evenodd">
        <g id="Group-2">
            <path d="M23.6572266,74.3818359 L20.625,77.0625 C19.5605416,75.5781176 18.476568,74.8359375 17.3730469,74.8359375 C16.8359348,74.8359375 16.3964861,74.979979 16.0546875,75.2680664 C15.7128889,75.5561538 15.5419922,75.8808576 15.5419922,76.2421875 C15.5419922,76.6035174 15.6640613,76.9453109 15.9082031,77.2675781 C16.240236,77.6972678 17.2412026,78.6201101 18.9111328,80.0361328 C20.4736406,81.3447331 21.4208968,82.1699202 21.7529297,82.5117188 C22.583012,83.3515667 23.171385,84.1547813 23.5180664,84.9213867 C23.8647478,85.6879921 24.0380859,86.5253861 24.0380859,87.4335938 C24.0380859,89.2011807 23.4277405,90.6611271 22.2070312,91.8134766 C20.986322,92.9658261 19.3945411,93.5419922 17.4316406,93.5419922 C15.8984298,93.5419922 14.562994,93.1660194 13.425293,92.4140625 C12.287592,91.6621056 11.3134806,90.4804768 10.5029297,88.8691406 L13.9453125,86.7890625 C14.9804739,88.6933689 16.1718683,89.6455078 17.5195312,89.6455078 C18.2226598,89.6455078 18.8134742,89.4404317 19.2919922,89.0302734 C19.7705102,88.6201151 20.0097656,88.1464871 20.0097656,87.609375 C20.0097656,87.1210913 19.8291034,86.6328149 19.4677734,86.1445312 C19.1064435,85.6562476 18.310553,84.9091847 17.0800781,83.9033203 C14.7363164,81.9892482 13.2226597,80.5122122 12.5390625,79.472168 C11.8554653,78.4321237 11.5136719,77.3945364 11.5136719,76.359375 C11.5136719,74.8652269 12.0825138,73.5835014 13.2202148,72.5141602 C14.3579158,71.4448189 15.7617104,70.9101562 17.4316406,70.9101562 C18.5058647,70.9101562 19.5288037,71.1591772 20.5004883,71.6572266 C21.4721728,72.1552759 22.5244084,73.06347 23.6572266,74.3818359 Z M43.4912109,86.1884766 L30.6445312,86.1884766 C30.8300791,87.3212947 31.3256796,88.2221646 32.1313477,88.8911133 C32.9370157,89.5600619 33.9648375,89.8945312 35.2148438,89.8945312 C36.7089918,89.8945312 37.9931587,89.3720755 39.0673828,88.3271484 L42.4365234,89.9091797 C41.5966755,91.1005919 40.5908262,91.9819307 39.4189453,92.5532227 C38.2470645,93.1245146 36.8554768,93.4101562 35.2441406,93.4101562 C32.7441281,93.4101562 30.7080157,92.6215899 29.1357422,91.0444336 C27.5634687,89.4672773 26.7773438,87.4921994 26.7773438,85.1191406 C26.7773438,82.6874878 27.5610273,80.6684651 29.128418,79.0620117 C30.6958086,77.4555584 32.661121,76.6523438 35.0244141,76.6523438 C37.5341922,76.6523438 39.5751875,77.4555584 41.1474609,79.0620117 C42.7197344,80.6684651 43.5058594,82.7900259 43.5058594,85.4267578 L43.4912109,86.1884766 Z M39.4775391,83.0390625 C39.2138659,82.1503862 38.6938515,81.4277372 37.9174805,80.8710938 C37.1411094,80.3144503 36.2402395,80.0361328 35.2148438,80.0361328 C34.1015569,80.0361328 33.1250042,80.3486297 32.2851562,80.9736328 C31.7578099,81.3642598 31.2695335,82.0527294 30.8203125,83.0390625 L39.4775391,83.0390625 Z M49.2480469,71.4521484 L53.2617188,71.4521484 L58.2421875,86.4814453 L63.2958984,71.4521484 L67.2509766,71.4521484 L70.8837891,93 L66.9287109,93 L64.6142578,79.3916016 L60.0292969,93 L56.4111328,93 L51.8847656,79.3916016 L49.5263672,93 L45.5273438,93 L49.2480469,71.4521484 Z M73.8720703,71.4521484 L77.9443359,71.4521484 L77.9443359,93 L73.8720703,93 L73.8720703,71.4521484 Z M0.682617188,101.921875 L0.682617188,100.944336 L6.19921875,100.944336 L6.19921875,101.921875 L3.95703125,101.921875 L3.95703125,111 L2.93164062,111 L2.93164062,101.921875 L0.682617188,101.921875 Z M13.7460938,108.532227 L14.5527344,108.956055 C14.2884101,109.475589 13.9830746,109.894855 13.6367188,110.213867 C13.2903629,110.532879 12.9007183,110.775553 12.4677734,110.941895 C12.0348286,111.108237 11.5449246,111.191406 10.9980469,111.191406 C9.78580123,111.191406 8.83789404,110.793787 8.15429688,109.998535 C7.47069971,109.203284 7.12890625,108.304367 7.12890625,107.301758 C7.12890625,106.358394 7.41829138,105.517582 7.99707031,104.779297 C8.73079794,103.84049 9.71288447,103.371094 10.9433594,103.371094 C12.2102928,103.371094 13.2220014,103.851883 13.9785156,104.813477 C14.5162787,105.492516 14.7897135,106.340164 14.7988281,107.356445 L8.11328125,107.356445 C8.13151051,108.222335 8.4072239,108.932126 8.94042969,109.48584 C9.47363548,110.039554 10.1321575,110.316406 10.9160156,110.316406 C11.2942727,110.316406 11.6622703,110.250326 12.0200195,110.118164 C12.3777687,109.986002 12.6819649,109.810548 12.9326172,109.591797 C13.1832695,109.373046 13.4544256,109.019859 13.7460938,108.532227 Z M13.7460938,106.529297 C13.6184889,106.018878 13.4327812,105.611004 13.1889648,105.305664 C12.9451485,105.000324 12.6227234,104.754233 12.2216797,104.567383 C11.820636,104.380533 11.3990908,104.287109 10.9570312,104.287109 C10.2278609,104.287109 9.6012396,104.521808 9.07714844,104.991211 C8.69433402,105.33301 8.4049489,105.8457 8.20898438,106.529297 L13.7460938,106.529297 Z M23.8017578,105.107422 L23.0429688,105.579102 C22.3867155,104.708655 21.4912166,104.273438 20.3564453,104.273438 C19.4495397,104.273438 18.6964548,104.565101 18.097168,105.148438 C17.4978811,105.731774 17.1982422,106.440426 17.1982422,107.274414 C17.1982422,107.816734 17.3360989,108.327146 17.6118164,108.805664 C17.8875339,109.284182 18.2657854,109.655598 18.746582,109.919922 C19.2273787,110.184246 19.7662731,110.316406 20.3632812,110.316406 C21.4570367,110.316406 22.350257,109.881189 23.0429688,109.010742 L23.8017578,109.509766 C23.4462873,110.042971 22.9689158,110.456541 22.3696289,110.750488 C21.7703421,111.044435 21.0878945,111.191406 20.3222656,111.191406 C19.1464785,111.191406 18.1712278,110.817712 17.3964844,110.070312 C16.6217409,109.322913 16.234375,108.413742 16.234375,107.342773 C16.234375,106.622718 16.4155255,105.953942 16.777832,105.336426 C17.1401385,104.71891 17.6380177,104.236981 18.2714844,103.890625 C18.9049511,103.544269 19.6136029,103.371094 20.3974609,103.371094 C20.8896509,103.371094 21.3647438,103.446288 21.8227539,103.59668 C22.280764,103.747071 22.6692692,103.943033 22.9882812,104.18457 C23.3072933,104.426108 23.5784494,104.733722 23.8017578,105.107422 Z M25.640625,100.691406 L26.5976562,100.691406 L26.5976562,104.895508 C26.985028,104.385089 27.4111305,104.003419 27.8759766,103.750488 C28.3408226,103.497557 28.8443983,103.371094 29.3867188,103.371094 C29.9427111,103.371094 30.436033,103.512368 30.8666992,103.794922 C31.2973654,104.077475 31.6152333,104.456866 31.8203125,104.933105 C32.0253917,105.409345 32.1279297,106.155594 32.1279297,107.171875 L32.1279297,111 L31.1708984,111 L31.1708984,107.452148 C31.1708984,106.595373 31.1367191,106.023439 31.0683594,105.736328 C30.9498692,105.244138 30.7345393,104.873862 30.4223633,104.625488 C30.1101872,104.377115 29.7011744,104.25293 29.1953125,104.25293 C28.6165336,104.25293 28.0981468,104.444334 27.6401367,104.827148 C27.1821266,105.209963 26.8802091,105.683916 26.734375,106.249023 C26.6432287,106.613609 26.5976562,107.288081 26.5976562,108.272461 L26.5976562,111 L25.640625,111 L25.640625,100.691406 Z M34.1787109,103.5625 L35.1357422,103.5625 L35.1357422,104.895508 C35.5185566,104.385089 35.9423805,104.003419 36.4072266,103.750488 C36.8720726,103.497557 37.377927,103.371094 37.9248047,103.371094 C38.4807971,103.371094 38.9741189,103.512368 39.4047852,103.794922 C39.8354514,104.077475 40.1533193,104.458005 40.3583984,104.936523 C40.5634776,105.415041 40.6660156,106.160151 40.6660156,107.171875 L40.6660156,111 L39.7158203,111 L39.7158203,107.452148 C39.7158203,106.595373 39.6793623,106.023439 39.6064453,105.736328 C39.4925125,105.244138 39.2783219,104.873862 38.9638672,104.625488 C38.6494125,104.377115 38.2392603,104.25293 37.7333984,104.25293 C37.1546195,104.25293 36.6362328,104.444334 36.1782227,104.827148 C35.7202126,105.209963 35.418295,105.683916 35.2724609,106.249023 C35.1813146,106.618166 35.1357422,107.292638 35.1357422,108.272461 L35.1357422,111 L34.1787109,111 L34.1787109,103.5625 Z M46.2373047,103.371094 C47.3811906,103.371094 48.3290978,103.785803 49.0810547,104.615234 C49.7646519,105.371749 50.1064453,106.267247 50.1064453,107.301758 C50.1064453,108.340826 49.7452836,109.248857 49.0229492,110.025879 C48.3006149,110.802901 47.372076,111.191406 46.2373047,111.191406 C45.0979761,111.191406 44.1671586,110.802901 43.4448242,110.025879 C42.7224899,109.248857 42.3613281,108.340826 42.3613281,107.301758 C42.3613281,106.271805 42.7031216,105.378585 43.3867188,104.62207 C44.1386756,103.788082 45.0888614,103.371094 46.2373047,103.371094 Z M46.2373047,104.307617 C45.444332,104.307617 44.7630237,104.60156 44.1933594,105.189453 C43.6236951,105.777347 43.3388672,106.488277 43.3388672,107.322266 C43.3388672,107.860029 43.4687487,108.361326 43.7285156,108.826172 C43.9882825,109.291018 44.3391905,109.649901 44.78125,109.902832 C45.2233095,110.155763 45.7086562,110.282227 46.2373047,110.282227 C46.7659532,110.282227 47.2512999,110.155763 47.6933594,109.902832 C48.1354189,109.649901 48.4863268,109.291018 48.7460938,108.826172 C49.0058607,108.361326 49.1357422,107.860029 49.1357422,107.322266 C49.1357422,106.488277 48.849775,105.777347 48.277832,105.189453 C47.7058891,104.60156 47.0257201,104.307617 46.2373047,104.307617 Z M51.7402344,100.691406 L52.6972656,100.691406 L52.6972656,111 L51.7402344,111 L51.7402344,100.691406 Z M58.2070312,103.371094 C59.3509172,103.371094 60.2988244,103.785803 61.0507812,104.615234 C61.7343784,105.371749 62.0761719,106.267247 62.0761719,107.301758 C62.0761719,108.340826 61.7150101,109.248857 60.9926758,110.025879 C60.2703414,110.802901 59.3418025,111.191406 58.2070312,111.191406 C57.0677026,111.191406 56.1368851,110.802901 55.4145508,110.025879 C54.6922164,109.248857 54.3310547,108.340826 54.3310547,107.301758 C54.3310547,106.271805 54.6728481,105.378585 55.3564453,104.62207 C56.1084022,103.788082 57.058588,103.371094 58.2070312,103.371094 Z M58.2070312,104.307617 C57.4140585,104.307617 56.7327502,104.60156 56.1630859,105.189453 C55.5934216,105.777347 55.3085938,106.488277 55.3085938,107.322266 C55.3085938,107.860029 55.4384753,108.361326 55.6982422,108.826172 C55.9580091,109.291018 56.3089171,109.649901 56.7509766,109.902832 C57.1930361,110.155763 57.6783828,110.282227 58.2070312,110.282227 C58.7356797,110.282227 59.2210264,110.155763 59.6630859,109.902832 C60.1051454,109.649901 60.4560534,109.291018 60.7158203,108.826172 C60.9755872,108.361326 61.1054688,107.860029 61.1054688,107.322266 C61.1054688,106.488277 60.8195016,105.777347 60.2475586,105.189453 C59.6756156,104.60156 58.9954467,104.307617 58.2070312,104.307617 Z M70.2587891,103.5625 L71.2226562,103.5625 L71.2226562,109.489258 C71.2226562,110.532883 71.1315113,111.296222 70.9492188,111.779297 C70.6985665,112.462894 70.2633495,112.989256 69.6435547,113.358398 C69.0237599,113.727541 68.2786502,113.912109 67.4082031,113.912109 C66.7701791,113.912109 66.1971054,113.822104 65.6889648,113.64209 C65.1808243,113.462076 64.7672542,113.220542 64.4482422,112.91748 C64.1292302,112.614419 63.8352878,112.171227 63.5664062,111.587891 L64.6054688,111.587891 C64.8880222,112.080081 65.2526019,112.44466 65.6992188,112.681641 C66.1458356,112.918621 66.699541,113.037109 67.3603516,113.037109 C68.0120475,113.037109 68.562335,112.915203 69.0112305,112.671387 C69.4601259,112.42757 69.7802725,112.121096 69.9716797,111.751953 C70.1630869,111.382811 70.2587891,110.78809 70.2587891,109.967773 L70.2587891,109.584961 C69.8987612,110.040692 69.458987,110.390461 68.9394531,110.634277 C68.4199193,110.878094 67.8684925,111 67.2851562,111 C66.6015591,111 65.9589874,110.830243 65.3574219,110.490723 C64.7558564,110.151203 64.2910173,109.694339 63.9628906,109.120117 C63.634764,108.545896 63.4707031,107.914717 63.4707031,107.226562 C63.4707031,106.538408 63.6415999,105.896976 63.9833984,105.302246 C64.325197,104.707517 64.7980113,104.236981 65.4018555,103.890625 C66.0056996,103.544269 66.6425748,103.371094 67.3125,103.371094 C67.8684924,103.371094 68.3868791,103.486164 68.8676758,103.716309 C69.3484725,103.946453 69.8121722,104.325844 70.2587891,104.854492 L70.2587891,103.5625 Z M67.4355469,104.293945 C66.8932265,104.293945 66.3896508,104.424966 65.9248047,104.687012 C65.4599586,104.949057 65.0953789,105.311358 64.8310547,105.773926 C64.5667304,106.236493 64.4345703,106.736651 64.4345703,107.274414 C64.4345703,108.090173 64.7080051,108.764646 65.2548828,109.297852 C65.8017605,109.831057 66.5104123,110.097656 67.3808594,110.097656 C68.2604211,110.097656 68.9679335,109.833336 69.503418,109.304688 C70.0389024,108.776039 70.3066406,108.081059 70.3066406,107.219727 C70.3066406,106.659177 70.183595,106.159019 69.9375,105.719238 C69.691405,105.279457 69.3427757,104.931967 68.8916016,104.676758 C68.4404274,104.421548 67.9550807,104.293945 67.4355469,104.293945 Z M73.6083984,100.5 C73.8271495,100.5 74.0139966,100.577473 74.1689453,100.732422 C74.323894,100.887371 74.4013672,101.074218 74.4013672,101.292969 C74.4013672,101.507163 74.323894,101.691731 74.1689453,101.84668 C74.0139966,102.001628 73.8271495,102.079102 73.6083984,102.079102 C73.3942047,102.079102 73.2096362,102.001628 73.0546875,101.84668 C72.8997388,101.691731 72.8222656,101.507163 72.8222656,101.292969 C72.8222656,101.074218 72.8997388,100.887371 73.0546875,100.732422 C73.2096362,100.577473 73.3942047,100.5 73.6083984,100.5 Z M73.1298828,103.5625 L74.09375,103.5625 L74.09375,111 L73.1298828,111 L73.1298828,103.5625 Z M82.3378906,108.532227 L83.1445312,108.956055 C82.880207,109.475589 82.5748715,109.894855 82.2285156,110.213867 C81.8821597,110.532879 81.4925152,110.775553 81.0595703,110.941895 C80.6266254,111.108237 80.1367215,111.191406 79.5898438,111.191406 C78.3775981,111.191406 77.4296909,110.793787 76.7460938,109.998535 C76.0624966,109.203284 75.7207031,108.304367 75.7207031,107.301758 C75.7207031,106.358394 76.0100883,105.517582 76.5888672,104.779297 C77.3225948,103.84049 78.3046813,103.371094 79.5351562,103.371094 C80.8020897,103.371094 81.8137983,103.851883 82.5703125,104.813477 C83.1080756,105.492516 83.3815104,106.340164 83.390625,107.356445 L76.7050781,107.356445 C76.7233074,108.222335 76.9990208,108.932126 77.5322266,109.48584 C78.0654324,110.039554 78.7239544,110.316406 79.5078125,110.316406 C79.8860696,110.316406 80.2540672,110.250326 80.6118164,110.118164 C80.9695656,109.986002 81.2737618,109.810548 81.5244141,109.591797 C81.7750664,109.373046 82.0462225,109.019859 82.3378906,108.532227 Z M82.3378906,106.529297 C82.2102858,106.018878 82.024578,105.611004 81.7807617,105.305664 C81.5369454,105.000324 81.2145202,104.754233 80.8134766,104.567383 C80.4124329,104.380533 79.9908876,104.287109 79.5488281,104.287109 C78.8196578,104.287109 78.1930365,104.521808 77.6689453,104.991211 C77.2861309,105.33301 76.9967458,105.8457 76.8007812,106.529297 L82.3378906,106.529297 Z M88.9140625,104.375977 L88.2988281,105.011719 C87.7884089,104.514971 87.2893905,104.266602 86.8017578,104.266602 C86.4918604,104.266602 86.2264008,104.36914 86.0053711,104.574219 C85.7843413,104.779298 85.6738281,105.018553 85.6738281,105.291992 C85.6738281,105.53353 85.764973,105.763671 85.9472656,105.982422 C86.1295582,106.20573 86.5123669,106.467772 87.0957031,106.768555 C87.8066442,107.137697 88.2897123,107.493162 88.5449219,107.834961 C88.7955742,108.181317 88.9208984,108.570961 88.9208984,109.003906 C88.9208984,109.614586 88.7067079,110.131834 88.2783203,110.555664 C87.8499328,110.979494 87.3144563,111.191406 86.671875,111.191406 C86.2434874,111.191406 85.8344746,111.097983 85.4448242,110.911133 C85.0551738,110.724283 84.7327487,110.466799 84.4775391,110.138672 L85.0791016,109.455078 C85.5667342,110.006513 86.0839816,110.282227 86.6308594,110.282227 C87.0136738,110.282227 87.3395169,110.159181 87.6083984,109.913086 C87.87728,109.666991 88.0117188,109.377606 88.0117188,109.044922 C88.0117188,108.771483 87.9228525,108.52767 87.7451172,108.313477 C87.5673819,108.10384 87.1663443,107.83952 86.5419922,107.520508 C85.872067,107.174152 85.4163424,106.832358 85.1748047,106.495117 C84.933267,106.157876 84.8125,105.772789 84.8125,105.339844 C84.8125,104.774737 85.0050436,104.30534 85.3901367,103.931641 C85.7752298,103.557941 86.2617158,103.371094 86.8496094,103.371094 C87.5332065,103.371094 88.2213507,103.706051 88.9140625,104.375977 Z" id="SeMITechnologies" fill="#122742" fill-rule="nonzero"></path>
            <g id="Group" transform="translate(20.000000, 0.000000)">
                <polygon id="Path" fill="#BB075A" points="0 14.7225 0 44.1675 12.75 51.525 12.75 36.8025 25.5 29.445"></polygon>
                <polygon id="Path" fill="#FA0171" points="38.25 7.365 25.5 4.61852778e-14 0 14.7225 12.75 22.0875"></polygon>
                <polygon id="Path" fill="#FA0171" points="51 44.1675 38.25 36.8025 12.75 51.525 25.5 58.89"></polygon>
                <polygon id="Path" fill="#BB075A" points="51 44.1675 51 14.7225 38.25 7.365 38.25 22.0875 25.5 29.445"></polygon>
            </g>
        </g>
    </g>
</svg>