<svg xmlns="http://www.w3.org/2000/svg" viewBox="0 0 360 360"><defs><style>.cls-1{fill:#00152b;}</style></defs><g id="Layer_2" data-name="Layer 2"><circle class="cls-1" cx="109.36" cy="128.82" r="3.73"/><path class="cls-1" d="M118,137a2.92,2.92,0,1,0-2.91-2.92A2.92,2.92,0,0,0,118,137Z"/><path class="cls-1" d="M101.33,229.09a2.92,2.92,0,1,0,2.91,2.91A2.91,2.91,0,0,0,101.33,229.09Z"/><path class="cls-1" d="M109.36,224.16a2.81,2.81,0,1,0,2.81,2.81A2.8,2.8,0,0,0,109.36,224.16Z"/><path class="cls-1" d="M117.88,219.7a2.62,2.62,0,1,0,2.62,2.61A2.61,2.61,0,0,0,117.88,219.7Z"/><path class="cls-1" d="M117.58,175.72a2.61,2.61,0,1,0-2.61-2.61A2.61,2.61,0,0,0,117.58,175.72Z"/><path class="cls-1" d="M104,163.65a2.43,2.43,0,1,0-2.43,2.42A2.42,2.42,0,0,0,104,163.65Z"/><path class="cls-1" d="M117.58,165.36a2.07,2.07,0,1,0-2.07-2.07A2.07,2.07,0,0,0,117.58,165.36Z"/><path class="cls-1" d="M101.33,224.38a2.07,2.07,0,1,0-2.07-2.07A2.07,2.07,0,0,0,101.33,224.38Z"/><path class="cls-1" d="M92.36,160.42a2.08,2.08,0,0,0,2-1.48H124a2.22,2.22,0,1,0,0-1H94.39a2.07,2.07,0,1,0-2,2.48Z"/><path class="cls-1" d="M107.6,168.08a1.77,1.77,0,1,0,1.76-1.77A1.76,1.76,0,0,0,107.6,168.08Z"/><path class="cls-1" d="M92.36,150.53A1.76,1.76,0,0,0,94,149.38h29.82a2.62,2.62,0,1,0,0-1H94.08a1.76,1.76,0,1,0-1.72,2.18Z"/><path class="cls-1" d="M98.59,173.53a1.51,1.51,0,1,0,1.51-1.5A1.5,1.5,0,0,0,98.59,173.53Z"/><path class="cls-1" d="M117,230.49a1.51,1.51,0,1,0,1.51,1.51A1.52,1.52,0,0,0,117,230.49Z"/><path class="cls-1" d="M92.36,140.73a1.51,1.51,0,0,0,1.36-.86h29.92a2.81,2.81,0,1,0,0-1H93.82a1.51,1.51,0,1,0-1.46,1.89Z"/><path class="cls-1" d="M100.68,135.36a1.51,1.51,0,1,0-1.51-1.51A1.51,1.51,0,0,0,100.68,135.36Z"/><path class="cls-1" d="M162.32,157,144.76,146.9l-2,3.46,16.56,9.56v57.22l-16,9.24,2,3.46,17-9.81a2,2,0,0,0,1-1.73V158.77A2,2,0,0,0,162.32,157Z"/><path class="cls-1" d="M60.21,159.92l16-9.24-2-3.46-17,9.81a2,2,0,0,0-1,1.74V218.3a2,2,0,0,0,1,1.73l16.62,9.59,2-3.46-15.62-9Z"/><path class="cls-1" d="M143.35,207.59V188l-14.78-8.54a2.61,2.61,0,1,0-4.71-1.79h-30a1.5,1.5,0,0,0-3,.26,1.52,1.52,0,0,0,.32.93L75.35,188v19.63l15.53,9a1.44,1.44,0,0,0-.26.84,1.5,1.5,0,0,0,1.5,1.51,1.52,1.52,0,0,0,1.3-.74h30.31a2.6,2.6,0,1,0,4.77-2Zm-51-28.19a1.53,1.53,0,0,0,1.3-.74H124a2.62,2.62,0,0,0,2.39,1.84v6.72h-34V179.4Zm0,18.37v-9.55H108.9Zm17.45-9.55h16.55v9.55ZM93.48,216.75l15.87-9.16L124,216a2.76,2.76,0,0,0-.37,1.1h-30A1.36,1.36,0,0,0,93.48,216.75Z"/><polygon class="cls-1" points="195.2 182.73 200.07 170.54 204.85 182.73 205.89 182.73 211.13 164.49 208.33 164.49 205.05 175.86 200.58 164.49 199.55 164.49 195.02 175.86 191.8 164.49 188.99 164.49 194.16 182.73 195.2 182.73"/><path class="cls-1" d="M226.43,176a7.39,7.39,0,0,0-1.51-4.67,6.81,6.81,0,0,0-5.6-2.66,6.6,6.6,0,0,0-5.45,2.61,7.34,7.34,0,0,0-1.6,4.63,7.46,7.46,0,0,0,1.88,5,6.62,6.62,0,0,0,5.26,2.22,7.6,7.6,0,0,0,2.7-.46,6.82,6.82,0,0,0,2.17-1.35A8.15,8.15,0,0,0,226,179l.22-.44-2.24-1.17-.24.4a7.08,7.08,0,0,1-1.3,1.69,4.58,4.58,0,0,1-1.41.81,5,5,0,0,1-1.72.31,4,4,0,0,1-3-1.27,4.53,4.53,0,0,1-1.25-2.8h11.45Zm-11.11-1.91a4.47,4.47,0,0,1,1.13-1.77,4.18,4.18,0,0,1,2.89-1.08,4.6,4.6,0,0,1,2,.44,4,4,0,0,1,1.48,1.12,4.35,4.35,0,0,1,.68,1.29Z"/><path class="cls-1" d="M239.58,170.47a6.39,6.39,0,0,0-4.58-1.82,6.79,6.79,0,0,0-5,2.11,7,7,0,0,0-2.08,5.06,7.07,7.07,0,0,0,2.06,5.12,6.92,6.92,0,0,0,8,1.43,6.93,6.93,0,0,0,1.6-1.08v1.44h2.62V169h-2.62Zm-1.21,2.1a4.57,4.57,0,0,1,1.31,3.35,4.74,4.74,0,0,1-.58,2.36,4.21,4.21,0,0,1-1.67,1.65,4.49,4.49,0,0,1-4.55,0,4.56,4.56,0,0,1-1.67-1.73,4.66,4.66,0,0,1-.63-2.33,4.73,4.73,0,0,1,.62-2.33,4.45,4.45,0,0,1,1.66-1.7,4.5,4.5,0,0,1,2.28-.61A4.31,4.31,0,0,1,238.37,172.57Z"/><polygon class="cls-1" points="250.68 182.73 256.97 168.98 254.11 168.98 250.2 177.57 246.25 168.98 243.4 168.98 249.73 182.73 250.68 182.73"/><path class="cls-1" d="M259.26,167.44a1.85,1.85,0,0,0,1.31-3.16,1.83,1.83,0,0,0-2.61,0,1.86,1.86,0,0,0,1.3,3.16Z"/><rect class="cls-1" x="257.94" y="168.98" width="2.64" height="13.75"/><path class="cls-1" d="M274.08,170.47a6.39,6.39,0,0,0-4.58-1.82,6.79,6.79,0,0,0-5,2.11,7,7,0,0,0-2.08,5.06,7.07,7.07,0,0,0,2.06,5.12,6.92,6.92,0,0,0,8,1.43,6.93,6.93,0,0,0,1.6-1.08v1.44h2.62V169h-2.62Zm-1.21,2.1a4.57,4.57,0,0,1,1.31,3.35,4.74,4.74,0,0,1-.58,2.36,4.21,4.21,0,0,1-1.67,1.65,4.49,4.49,0,0,1-4.55,0,4.56,4.56,0,0,1-1.67-1.73,4.66,4.66,0,0,1-.63-2.33,4.73,4.73,0,0,1,.62-2.33,4.45,4.45,0,0,1,1.66-1.7,4.5,4.5,0,0,1,2.28-.61A4.31,4.31,0,0,1,272.87,172.57Z"/><polygon class="cls-1" points="283.46 164.25 280.82 164.25 280.82 168.98 278.58 168.98 278.58 171.4 280.82 171.4 280.82 182.73 283.46 182.73 283.46 171.4 286.06 171.4 286.06 168.98 283.46 168.98 283.46 164.25"/><path class="cls-1" d="M301.06,176a7.45,7.45,0,0,0-1.52-4.67,6.8,6.8,0,0,0-5.6-2.66,6.58,6.58,0,0,0-5.44,2.61,7.34,7.34,0,0,0-1.6,4.63,7.41,7.41,0,0,0,1.88,5,6.62,6.62,0,0,0,5.26,2.22,7.68,7.68,0,0,0,2.7-.46,6.66,6.66,0,0,0,2.16-1.35,8,8,0,0,0,1.68-2.3l.23-.44-2.24-1.17-.24.4a7.35,7.35,0,0,1-1.3,1.69,4.7,4.7,0,0,1-1.41.81,5.12,5.12,0,0,1-1.72.31,4,4,0,0,1-3-1.27,4.48,4.48,0,0,1-1.25-2.8h11.44Zm-11.12-1.91a4.47,4.47,0,0,1,1.13-1.77,4.21,4.21,0,0,1,2.9-1.08,4.6,4.6,0,0,1,2,.44,4,4,0,0,1,1.48,1.12,4.59,4.59,0,0,1,.68,1.29Z"/><path class="cls-1" d="M199.47,202.7a6.42,6.42,0,0,0-2.07-1.07A4.12,4.12,0,0,0,199,200.1a4,4,0,0,0,.56-2.09,4.06,4.06,0,0,0-.64-2.24,3.78,3.78,0,0,0-1.74-1.49,7.91,7.91,0,0,0-3.15-.49h-3.4V211h4.74a5.67,5.67,0,0,0,4.07-1.44,4.63,4.63,0,0,0,1.52-3.51,4.43,4.43,0,0,0-.41-1.89A4.34,4.34,0,0,0,199.47,202.7Zm-7.11-7.22h2a4.15,4.15,0,0,1,2.63.67,2.25,2.25,0,0,1,.83,1.86,2.77,2.77,0,0,1-.49,1.6,2.85,2.85,0,0,1-1.34,1,7.5,7.5,0,0,1-2.64.34h-1Zm6.32,12.34a3.11,3.11,0,0,1-1.41,1.15,7.58,7.58,0,0,1-2.77.37h-2.14v-6.61h1a15.2,15.2,0,0,1,3.07.21,3.89,3.89,0,0,1,2.07,1.17,3,3,0,0,1,.21,3.71Z"/><path class="cls-1" d="M204.71,193a1.29,1.29,0,0,0-1,.4,1.31,1.31,0,0,0-.4,1,1.34,1.34,0,0,0,.4,1,1.32,1.32,0,0,0,1,.4,1.37,1.37,0,0,0,1.35-1.35,1.37,1.37,0,0,0-1.35-1.36Z"/><rect class="cls-1" x="203.89" y="198.28" width="1.64" height="12.75"/><path class="cls-1" d="M215,198a6.35,6.35,0,0,0-4.9,2.14,6.84,6.84,0,0,0,.1,9.27,6.74,6.74,0,0,0,9.58,0,6.85,6.85,0,0,0,.1-9.28A6.32,6.32,0,0,0,215,198Zm4.31,9.35a4.81,4.81,0,0,1-1.81,1.85,5.15,5.15,0,0,1-5,0,4.74,4.74,0,0,1-1.81-1.85,5.16,5.16,0,0,1-.68-2.58,5.05,5.05,0,0,1,1.48-3.65,4.83,4.83,0,0,1,7,0,5,5,0,0,1,1.48,3.65A5.25,5.25,0,0,1,219.29,207.3Z"/><rect class="cls-1" x="224.41" y="193.36" width="1.64" height="17.67"/><path class="cls-1" d="M235.5,198a6.34,6.34,0,0,0-4.9,2.14,6.84,6.84,0,0,0,.1,9.27,6.74,6.74,0,0,0,9.58,0,6.85,6.85,0,0,0,.1-9.28A6.32,6.32,0,0,0,235.5,198Zm4.31,9.35a4.81,4.81,0,0,1-1.81,1.85,5,5,0,0,1-2.51.65,5,5,0,0,1-2.5-.65,4.74,4.74,0,0,1-1.81-1.85,5.16,5.16,0,0,1-.68-2.58,5,5,0,0,1,1.48-3.65,4.83,4.83,0,0,1,7,0,5.05,5.05,0,0,1,1.48,3.65A5.25,5.25,0,0,1,239.81,207.3Z"/><path class="cls-1" d="M256.17,200.49a7.5,7.5,0,0,0-2.39-2,6.14,6.14,0,0,0-2.67-.59,6.66,6.66,0,0,0-5.71,3.31,6.48,6.48,0,0,0-.88,3.3,6.39,6.39,0,0,0,.85,3.25,6.28,6.28,0,0,0,2.39,2.35,6.63,6.63,0,0,0,3.31.87,6.54,6.54,0,0,0,2.83-.63,6.22,6.22,0,0,0,2.27-1.8v.66a7.1,7.1,0,0,1-.49,3.05,3.81,3.81,0,0,1-1.65,1.57,5.87,5.87,0,0,1-2.84.63,6,6,0,0,1-2.85-.61,4.7,4.7,0,0,1-1.87-1.88h-1.79a7.28,7.28,0,0,0,1.52,2.29,5.84,5.84,0,0,0,2.12,1.25,8.78,8.78,0,0,0,3,.46,7.38,7.38,0,0,0,3.83-1,5.09,5.09,0,0,0,2.24-2.71,12,12,0,0,0,.47-3.92V198.28h-1.64Zm-1.3,7.63a4.93,4.93,0,0,1-3.64,1.36,5,5,0,0,1-3.64-1.37,4.63,4.63,0,0,1-1.41-3.47,5.12,5.12,0,0,1,.68-2.57,4.94,4.94,0,0,1,1.88-1.86,5.19,5.19,0,0,1,2.59-.68,4.94,4.94,0,0,1,2.49.66,4.56,4.56,0,0,1,1.8,1.79,5.18,5.18,0,0,1,.63,2.57A4.78,4.78,0,0,1,254.87,208.12Z"/><polygon class="cls-1" points="266.07 208.1 261.69 198.28 259.95 198.28 265.19 210.06 262.73 215.69 264.46 215.69 272.07 198.28 270.32 198.28 266.07 208.1"/></g></svg>