<svg xmlns="http://www.w3.org/2000/svg" viewBox="0 0 360 360"><defs><style>.cls-1{fill:#95025c;}.cls-2{fill:#00152b;}</style></defs><g id="Layer_2" data-name="Layer 2"><path class="cls-1" d="M58.38,160.26a6,6,0,1,0,6-6A6,6,0,0,0,58.38,160.26Zm6-4a4,4,0,1,1-4,4A4,4,0,0,1,64.37,156.28Z"/><circle class="cls-1" cx="47.37" cy="130.81" r="2.99"/><circle class="cls-1" cx="47.37" cy="150.44" r="2.99"/><circle class="cls-1" cx="64.37" cy="140.39" r="2.99"/><circle class="cls-1" cx="30.37" cy="140.39" r="2.99"/><circle class="cls-1" cx="30.38" cy="160.02" r="2.99"/><circle class="cls-1" cx="30.37" cy="219.15" r="2.99"/><circle class="cls-1" cx="47.37" cy="228.96" r="2.99"/><circle class="cls-1" cx="64.37" cy="219.15" r="2.99"/><path class="cls-1" d="M13,167.08a3,3,0,1,0,3,3A3,3,0,0,0,13,167.08Z"/><circle class="cls-1" cx="13.19" cy="189.7" r="2.99"/><circle class="cls-1" cx="81.2" cy="130.81" r="2.99"/><circle class="cls-1" cx="81.2" cy="150.44" r="2.99"/><circle class="cls-1" cx="98.2" cy="140.39" r="2.99"/><circle class="cls-1" cx="98.19" cy="160.02" r="2.99"/><circle class="cls-1" cx="98.2" cy="219.15" r="2.99"/><circle class="cls-1" cx="81.2" cy="228.96" r="2.99"/><circle class="cls-1" cx="115.55" cy="170.07" r="2.99"/><circle class="cls-1" cx="115.38" cy="189.7" r="2.99"/><path class="cls-1" d="M64.41,114.84a6,6,0,1,0,6,6A6,6,0,0,0,64.41,114.84Zm0,10a4,4,0,1,1,4-4A4,4,0,0,1,64.41,124.81Z"/><path class="cls-1" d="M13.19,144.46a6,6,0,1,0,6,6A6,6,0,0,0,13.19,144.46Zm0,10a4,4,0,1,1,4-4A4,4,0,0,1,13.19,154.42Z"/><path class="cls-1" d="M13.19,203.35a6,6,0,1,0,6,6A6,6,0,0,0,13.19,203.35Zm0,10a4,4,0,1,1,4-4A4,4,0,0,1,13.19,213.31Z"/><path class="cls-1" d="M115.37,156.42a6,6,0,1,0-6-6A6,6,0,0,0,115.37,156.42Zm0-10a4,4,0,1,1-4,4A4,4,0,0,1,115.37,146.46Z"/><path class="cls-1" d="M115.37,203.35a6,6,0,1,0,6,6A6,6,0,0,0,115.37,203.35Zm0,10a4,4,0,1,1,4-4A4,4,0,0,1,115.37,213.31Z"/><path class="cls-1" d="M64.41,233.19a6,6,0,1,0,6,6A6,6,0,0,0,64.41,233.19Zm0,10a4,4,0,1,1,4-4A4,4,0,0,1,64.41,243.16Z"/><polygon class="cls-2" points="30.38 179.41 30.38 199.04 47.38 208.85 64.38 199.04 81.38 208.85 98.38 199.04 98.38 179.41 81.38 169.59 81.38 189.22 64.38 179.41 47.38 189.22 47.38 169.59 30.38 179.41"/><polygon class="cls-2" points="153.15 172.73 158.02 160.54 162.8 172.73 163.84 172.73 169.08 154.49 166.28 154.49 163 165.86 158.53 154.49 157.49 154.49 152.97 165.86 149.75 154.49 146.94 154.49 152.11 172.73 153.15 172.73"/><path class="cls-2" d="M177.36,173.06a7.64,7.64,0,0,0,2.7-.46,6.82,6.82,0,0,0,2.17-1.35,8.3,8.3,0,0,0,1.68-2.3l.22-.44-2.24-1.17-.24.4a7.29,7.29,0,0,1-1.3,1.69,4.58,4.58,0,0,1-1.41.81,5.07,5.07,0,0,1-1.72.31,4,4,0,0,1-3-1.27,4.48,4.48,0,0,1-1.25-2.8h11.45V166a7.39,7.39,0,0,0-1.51-4.67,6.83,6.83,0,0,0-5.6-2.66,6.58,6.58,0,0,0-5.45,2.61,7.32,7.32,0,0,0-1.6,4.63,7.41,7.41,0,0,0,1.88,5A6.62,6.62,0,0,0,177.36,173.06Zm-4.09-9a4.43,4.43,0,0,1,1.13-1.76,4.12,4.12,0,0,1,2.89-1.08,4.74,4.74,0,0,1,2,.43,4.16,4.16,0,0,1,1.48,1.13,4.41,4.41,0,0,1,.68,1.28Z"/><path class="cls-2" d="M192.91,173.06a6.7,6.7,0,0,0,3-.69,7,7,0,0,0,1.6-1.09v1.45h2.61V159h-2.61v1.49a6.75,6.75,0,0,0-1.5-1.09,6.45,6.45,0,0,0-3.08-.73,6.82,6.82,0,0,0-5,2.11,7,7,0,0,0-2.07,5.06,7.1,7.1,0,0,0,2,5.12A6.73,6.73,0,0,0,192.91,173.06Zm-4.38-7.19a4.73,4.73,0,0,1,.62-2.33,4.45,4.45,0,0,1,1.66-1.7,4.4,4.4,0,0,1,2.28-.61,4.31,4.31,0,0,1,3.23,1.34,4.57,4.57,0,0,1,1.31,3.35,4.82,4.82,0,0,1-.58,2.36,4.27,4.27,0,0,1-1.67,1.65,4.49,4.49,0,0,1-6.22-1.73A4.66,4.66,0,0,1,188.53,165.87Z"/><polygon class="cls-2" points="208.63 172.73 214.92 158.98 212.06 158.98 208.15 167.57 204.19 158.98 201.35 158.98 207.68 172.73 208.63 172.73"/><rect class="cls-2" x="215.89" y="158.98" width="2.64" height="13.75"/><path class="cls-2" d="M217.2,157.44a1.88,1.88,0,0,0,1.86-1.85,1.86,1.86,0,0,0-3.16-1.32,1.81,1.81,0,0,0-.54,1.32,1.86,1.86,0,0,0,1.84,1.85Z"/><path class="cls-2" d="M227.41,173.06a6.7,6.7,0,0,0,3-.69,7,7,0,0,0,1.6-1.09v1.45h2.61V159H232v1.49a6.75,6.75,0,0,0-1.5-1.09,6.45,6.45,0,0,0-3.08-.73,6.82,6.82,0,0,0-5,2.11,7,7,0,0,0-2.07,5.06,7.1,7.1,0,0,0,2,5.12A6.73,6.73,0,0,0,227.41,173.06ZM223,165.87a4.73,4.73,0,0,1,.62-2.33,4.45,4.45,0,0,1,1.66-1.7,4.4,4.4,0,0,1,2.28-.61,4.31,4.31,0,0,1,3.23,1.34,4.57,4.57,0,0,1,1.31,3.35,4.82,4.82,0,0,1-.58,2.36,4.27,4.27,0,0,1-1.67,1.65,4.49,4.49,0,0,1-6.22-1.73A4.66,4.66,0,0,1,223,165.87Z"/><polygon class="cls-2" points="238.76 172.73 241.41 172.73 241.41 161.4 244.01 161.4 244.01 158.98 241.41 158.98 241.41 154.24 238.76 154.24 238.76 158.98 236.53 158.98 236.53 161.4 238.76 161.4 238.76 172.73"/><path class="cls-2" d="M252,173.06a7.68,7.68,0,0,0,2.7-.46,6.77,6.77,0,0,0,2.16-1.35,8.1,8.1,0,0,0,1.68-2.3l.22-.44-2.23-1.17-.25.4a7.3,7.3,0,0,1-1.29,1.69,4.82,4.82,0,0,1-1.41.81,5.13,5.13,0,0,1-1.73.31,4,4,0,0,1-3-1.27,4.59,4.59,0,0,1-1.25-2.8H259V166a7.45,7.45,0,0,0-1.52-4.67,6.8,6.8,0,0,0-5.6-2.66,6.6,6.6,0,0,0-5.45,2.61,7.31,7.31,0,0,0-1.59,4.63,7.41,7.41,0,0,0,1.88,5A6.59,6.59,0,0,0,252,173.06Zm-4.1-9A4.43,4.43,0,0,1,249,162.3a4.14,4.14,0,0,1,2.89-1.08,4.71,4.71,0,0,1,2,.43,4,4,0,0,1,1.48,1.13,4.41,4.41,0,0,1,.68,1.28Z"/><polygon class="cls-2" points="158.46 185.48 158.46 183.79 148.59 183.79 148.59 201.03 158.39 201.03 158.39 199.34 150.31 199.34 150.31 192.57 158.39 192.57 158.39 190.88 150.31 190.88 150.31 185.48 158.46 185.48"/><path class="cls-2" d="M171.65,190.85a4.59,4.59,0,0,0,.67-2.47,4.26,4.26,0,0,0-1-2.85,4.47,4.47,0,0,0-2.49-1.51,21.56,21.56,0,0,0-3.89-.23h-3.44V201h1.73v-8h1l6.2,8h2.13l-6.2-8a8.63,8.63,0,0,0,3.4-.55A4.12,4.12,0,0,0,171.65,190.85Zm-2.87.18a7.32,7.32,0,0,1-2.55.33l-3,0v-5.86h3a7.57,7.57,0,0,1,2.53.3,2.6,2.6,0,0,1,1.23,1,2.71,2.71,0,0,1,.47,1.57,2.88,2.88,0,0,1-.46,1.61A2.68,2.68,0,0,1,168.78,191Z"/><path class="cls-2" d="M179.43,183.79H176V201h1.72v-8H179a22.06,22.06,0,0,0,4.38-.28,4.54,4.54,0,0,0,2.52-1.5,4.86,4.86,0,0,0,0-5.69,4.44,4.44,0,0,0-2.42-1.49A19.75,19.75,0,0,0,179.43,183.79Zm5.08,3a2.8,2.8,0,0,1,.47,1.59,2.84,2.84,0,0,1-.47,1.61,2.68,2.68,0,0,1-1.28,1,7.77,7.77,0,0,1-2.59.32l-2.92,0v-5.85h3a7.55,7.55,0,0,1,2.52.3A2.6,2.6,0,0,1,184.51,186.8Z"/><path class="cls-2" d="M203.06,189.5a5.43,5.43,0,0,1,4.6,2.24l1.3-.81a5.65,5.65,0,0,0-1.39-1.59,6.81,6.81,0,0,0-2-1,7.76,7.76,0,0,0-2.45-.39,7.52,7.52,0,0,0-3.64.89,6.5,6.5,0,0,0-2.56,2.48,6.68,6.68,0,0,0-.93,3.44,6.24,6.24,0,0,0,2,4.67,6.91,6.91,0,0,0,5,1.93,7.86,7.86,0,0,0,3.5-.76,6.17,6.17,0,0,0,2.46-2.14l-1.3-.85a5.61,5.61,0,0,1-4.59,2.23,5.7,5.7,0,0,1-2.77-.67,5,5,0,0,1-1.94-1.91,5.21,5.21,0,0,1-.71-2.62,4.86,4.86,0,0,1,1.54-3.64A5.32,5.32,0,0,1,203.06,189.5Z"/><rect class="cls-2" x="211.87" y="183.36" width="1.64" height="17.67"/><path class="cls-2" d="M229.62,201V188.28H228v2.34a6.38,6.38,0,0,0-2.23-2,6,6,0,0,0-2.84-.67,6.29,6.29,0,0,0-4.65,2,6.45,6.45,0,0,0-1.94,4.71,6.56,6.56,0,0,0,1.92,4.77,6.43,6.43,0,0,0,7.43,1.33,7,7,0,0,0,2.31-1.88V201Zm-2.16-3.7a4.84,4.84,0,0,1-1.86,1.84,5.12,5.12,0,0,1-2.55.67,4.82,4.82,0,0,1-2.5-.68,5.07,5.07,0,0,1-1.85-1.91,5.2,5.2,0,0,1-.69-2.58,5.12,5.12,0,0,1,.68-2.57,4.85,4.85,0,0,1,1.84-1.89,5,5,0,0,1,2.53-.68,4.84,4.84,0,0,1,3.59,1.49,5.07,5.07,0,0,1,1.46,3.7A5.26,5.26,0,0,1,227.46,197.33Z"/><path class="cls-2" d="M232.68,191.33a3.35,3.35,0,0,0,.62,2,6.74,6.74,0,0,0,2.35,1.75,7.57,7.57,0,0,1,2.07,1.36,2,2,0,0,1,.45,1.26,2,2,0,0,1-.69,1.49,2.4,2.4,0,0,1-1.68.63,3.55,3.55,0,0,1-2.66-1.42l-1,1.17a4.7,4.7,0,0,0,1.66,1.33,4.86,4.86,0,0,0,2.11.48,3.81,3.81,0,0,0,2.76-1.09,3.59,3.59,0,0,0,1.1-2.66,3.34,3.34,0,0,0-.64-2,7.58,7.58,0,0,0-2.49-1.83,6.61,6.61,0,0,1-2-1.34,1.84,1.84,0,0,1-.46-1.19,1.61,1.61,0,0,1,.56-1.23,2,2,0,0,1,1.37-.52,3.8,3.8,0,0,1,2.58,1.27l1.05-1.09a5.18,5.18,0,0,0-3.54-1.72,3.46,3.46,0,0,0-2.51,1A3.23,3.23,0,0,0,232.68,191.33Z"/><path class="cls-2" d="M245.12,199.8a3.58,3.58,0,0,1-2.67-1.42l-1,1.17a4.62,4.62,0,0,0,1.66,1.33,4.83,4.83,0,0,0,2.11.48,3.81,3.81,0,0,0,2.76-1.09,3.63,3.63,0,0,0,1.1-2.66,3.35,3.35,0,0,0-.65-2,7.47,7.47,0,0,0-2.49-1.83,6.52,6.52,0,0,1-2-1.34,1.85,1.85,0,0,1-.47-1.19A1.62,1.62,0,0,1,244,190a2,2,0,0,1,1.37-.52,3.76,3.76,0,0,1,2.57,1.27l1.06-1.09a5.18,5.18,0,0,0-3.55-1.72,3.44,3.44,0,0,0-2.5,1,3.23,3.23,0,0,0-1,2.42,3.28,3.28,0,0,0,.62,2,6.64,6.64,0,0,0,2.35,1.75,7.31,7.31,0,0,1,2.06,1.36,1.9,1.9,0,0,1,.46,1.26,2,2,0,0,1-.69,1.49A2.42,2.42,0,0,1,245.12,199.8Z"/><rect class="cls-2" x="251.7" y="188.28" width="1.64" height="12.75"/><path class="cls-2" d="M253.87,184.39a1.31,1.31,0,0,0-.4-1,1.29,1.29,0,0,0-1-.4,1.37,1.37,0,0,0-1.34,1.36,1.37,1.37,0,0,0,1.34,1.35,1.37,1.37,0,0,0,1.36-1.35Z"/><path class="cls-2" d="M259.17,186.56a5.71,5.71,0,0,1,.09-1.35.82.82,0,0,1,.4-.44,1.47,1.47,0,0,1,.79-.19A4,4,0,0,1,262,185v-1.6a6.89,6.89,0,0,0-1.91-.33,2.8,2.8,0,0,0-1.46.36,2,2,0,0,0-.86.94,5.6,5.6,0,0,0-.25,2v2h-1.67v1.42h1.67V201h1.64V189.7h2.66v-1.42h-2.66Z"/><rect class="cls-2" x="264.04" y="188.28" width="1.64" height="12.75"/><path class="cls-2" d="M264.85,183a1.37,1.37,0,0,0-1.34,1.36,1.37,1.37,0,0,0,1.34,1.35,1.37,1.37,0,0,0,1.36-1.35,1.31,1.31,0,0,0-.4-1A1.29,1.29,0,0,0,264.85,183Z"/><path class="cls-2" d="M275.56,189.5a5.43,5.43,0,0,1,4.6,2.24l1.3-.81a5.5,5.5,0,0,0-1.39-1.59,6.69,6.69,0,0,0-2-1,7.69,7.69,0,0,0-2.44-.39,7.53,7.53,0,0,0-3.65.89,6.56,6.56,0,0,0-2.56,2.48,6.68,6.68,0,0,0-.93,3.44,6.28,6.28,0,0,0,2,4.67,6.91,6.91,0,0,0,5,1.93,7.94,7.94,0,0,0,3.51-.76,6.14,6.14,0,0,0,2.45-2.14l-1.3-.85a5.9,5.9,0,0,1-7.35,1.56,5,5,0,0,1-1.95-1.91,5.2,5.2,0,0,1-.7-2.62,4.89,4.89,0,0,1,1.53-3.64A5.33,5.33,0,0,1,275.56,189.5Z"/><path class="cls-2" d="M295.7,190.62a6.38,6.38,0,0,0-2.23-2,6,6,0,0,0-2.84-.67,6.27,6.27,0,0,0-4.65,2,6.45,6.45,0,0,0-1.94,4.71,6.56,6.56,0,0,0,1.92,4.77,6.43,6.43,0,0,0,7.43,1.33,7.13,7.13,0,0,0,2.31-1.88V201h1.62V188.28H295.7Zm-.54,6.71a4.84,4.84,0,0,1-1.86,1.84,5.12,5.12,0,0,1-2.55.67,4.82,4.82,0,0,1-2.5-.68,5.07,5.07,0,0,1-1.85-1.91,5.2,5.2,0,0,1-.69-2.58,5.12,5.12,0,0,1,.68-2.57,4.85,4.85,0,0,1,1.84-1.89,5,5,0,0,1,2.53-.68,4.84,4.84,0,0,1,3.59,1.49,5.07,5.07,0,0,1,1.46,3.7A5.26,5.26,0,0,1,295.16,197.33Z"/><polygon class="cls-2" points="304.08 183.54 302.44 183.54 302.44 188.28 300.2 188.28 300.2 189.7 302.44 189.7 302.44 201.03 304.08 201.03 304.08 189.7 306.68 189.7 306.68 188.28 304.08 188.28 304.08 183.54"/><path class="cls-2" d="M309.71,183a1.37,1.37,0,0,0-1.34,1.36,1.37,1.37,0,0,0,1.34,1.35,1.37,1.37,0,0,0,1.36-1.35,1.37,1.37,0,0,0-1.36-1.36Z"/><rect class="cls-2" x="308.9" y="188.28" width="1.64" height="12.75"/><path class="cls-2" d="M320,188a6.33,6.33,0,0,0-4.89,2.14,6.84,6.84,0,0,0,.1,9.27,6.74,6.74,0,0,0,9.58,0,6.85,6.85,0,0,0,.1-9.28A6.32,6.32,0,0,0,320,188Zm4.31,9.35a4.74,4.74,0,0,1-1.81,1.85,5.15,5.15,0,0,1-5,0,4.81,4.81,0,0,1-1.81-1.85,5.15,5.15,0,0,1-.67-2.58,5,5,0,0,1,1.47-3.65,4.85,4.85,0,0,1,7,0,5,5,0,0,1,1.47,3.65A5.15,5.15,0,0,1,324.29,197.3Z"/><path class="cls-2" d="M338.62,188.68a4.48,4.48,0,0,0-2.54-.73,5.42,5.42,0,0,0-2.6.65,7,7,0,0,0-2.18,2v-2.28h-1.64V201h1.64v-4.68a16.62,16.62,0,0,1,.24-3.47,4.63,4.63,0,0,1,1.55-2.43,4,4,0,0,1,2.67-1,3.3,3.3,0,0,1,2.11.64A3.23,3.23,0,0,1,339,192a15.35,15.35,0,0,1,.18,2.95V201h1.64v-6.56a10.44,10.44,0,0,0-.52-3.84A4.28,4.28,0,0,0,338.62,188.68Z"/><path class="cls-2" d="M347.58,193.77a6.66,6.66,0,0,1-2-1.34,1.85,1.85,0,0,1-.47-1.19,1.62,1.62,0,0,1,.57-1.23,2,2,0,0,1,1.37-.52,3.8,3.8,0,0,1,2.58,1.27l1-1.09a5.18,5.18,0,0,0-3.55-1.72,3.46,3.46,0,0,0-2.5,1,3.23,3.23,0,0,0-1,2.42,3.28,3.28,0,0,0,.62,2,6.64,6.64,0,0,0,2.35,1.75,7.31,7.31,0,0,1,2.06,1.36,1.9,1.9,0,0,1,.46,1.26,2,2,0,0,1-.69,1.49,2.4,2.4,0,0,1-1.68.63,3.58,3.58,0,0,1-2.67-1.42l-1,1.17a4.62,4.62,0,0,0,1.66,1.33,4.83,4.83,0,0,0,2.11.48,3.81,3.81,0,0,0,2.76-1.09,3.63,3.63,0,0,0,1.1-2.66,3.34,3.34,0,0,0-.64-2A7.53,7.53,0,0,0,347.58,193.77Z"/></g></svg>