<svg xmlns="http://www.w3.org/2000/svg" xmlns:xlink="http://www.w3.org/1999/xlink" width="142" height="159" viewBox="0 0 142 159">
    <defs>
        <path id="a" d="M1.1.539H18.43v17.345H1.1z"/>
    </defs>
    <g fill="none" fill-rule="evenodd">
        <path fill="#005DCF" d="M74.689 12.24l-3.428-1.98 1.204-2.087 3.427 1.982-1.203 2.086zm8.337 4.819l-4.169-2.41 1.204-2.085 4.168 2.409-1.203 2.086zm8.337 4.818l-4.168-2.409 1.204-2.086 4.167 2.409-1.203 2.086zm8.337 4.818l-4.169-2.409 1.204-2.086 4.168 2.41-1.203 2.085zm8.338 4.819l-4.17-2.41 1.204-2.086 4.17 2.41-1.204 2.086zm8.337 4.818l-4.168-2.41 1.203-2.086 4.169 2.41-1.204 2.086zm8.337 4.818l-4.17-2.41 1.204-2.085 4.17 2.409-1.204 2.086zm8.337 4.818l-4.168-2.409 1.203-2.086 4.169 2.409-1.204 2.086zM132.447 52.828h2.407V48.01h-2.407v4.818zm0 9.636h2.407v-4.818h-2.407v4.818zm0 9.636h2.407v-4.818h-2.407V72.1zm0 9.637h2.407v-4.818h-2.407v4.818zm0 9.636h2.407v-4.818h-2.407v4.818zM114.151 129l-1.203-2.086.649-.376 1.203 2.087-.649.376zm-8.337 4.819l-1.203-2.087 4.168-2.409 1.204 2.087-4.169 2.409zm-8.337 4.818l-1.203-2.086 4.168-2.41 1.204 2.087-4.169 2.409zm-8.337 4.818l-1.203-2.086 4.168-2.41 1.204 2.087-4.169 2.41zm-8.338 4.818l-1.204-2.086 4.17-2.41 1.204 2.087-4.17 2.41zm-8.337 4.818l-1.204-2.086 4.169-2.409 1.203 2.086-4.168 2.41z"/>
        <path fill="#005DCF" d="M13.641 119.792l-4.168-2.409 1.203-2.086 4.169 2.41-1.204 2.085zm8.339 4.819l-4.17-2.41 1.203-2.086 4.17 2.41-1.203 2.086zm8.335 4.818l-4.167-2.41 1.203-2.086 4.168 2.41-1.204 2.086zm8.339 4.818l-4.17-2.41 1.203-2.085 4.17 2.409-1.203 2.086zm8.337 4.818l-4.169-2.409 1.204-2.086 4.168 2.409-1.203 2.086zm8.338 4.818l-4.17-2.409 1.204-2.086 4.17 2.409-1.204 2.086zm8.336 4.818l-4.169-2.409 1.204-2.086 4.168 2.41-1.203 2.085zm7.597 4.391l-3.428-1.981 1.203-2.087 3.428 1.98-1.203 2.088zM28.839 35.472l-1.204-2.086 4.169-2.41 1.203 2.087-4.168 2.409zM20.5 40.29l-1.203-2.086 4.17-2.41 1.203 2.087-4.17 2.409zm-8.335 4.818l-1.204-2.086 4.168-2.41 1.203 2.087-4.167 2.41zM8.87 52.841h2.407v-4.818H8.87v4.818zm0 9.637h2.407V57.66H8.87v4.818zM31.47 79.108v23.646l20.458 11.822 20.457-11.822 20.458 11.822 20.457-11.822V79.108L92.848 67.283l-.005 23.648-20.458-11.823-20.457 11.823V67.287z"/>
        <path fill="#FFF" d="M80.59 9.878c0 4.79-3.88 8.672-8.664 8.672-4.786 0-8.664-3.882-8.664-8.672 0-4.79 3.878-8.673 8.664-8.673 4.785 0 8.664 3.882 8.664 8.673"/>
        <path fill="#005DCF" d="M71.926 1.205c-4.786 0-8.665 3.883-8.665 8.672 0 4.79 3.879 8.673 8.665 8.673s8.664-3.882 8.664-8.673c0-4.789-3.878-8.672-8.664-8.672m0 3.613a5.063 5.063 0 0 1 5.054 5.06c0 2.79-2.268 5.058-5.054 5.058a5.063 5.063 0 0 1-5.054-5.059c0-2.79 2.268-5.059 5.054-5.059"/>
        <path fill="#FFF" d="M140.759 44.161c0 4.79-3.88 8.673-8.665 8.673-4.784 0-8.663-3.882-8.663-8.673 0-4.79 3.879-8.671 8.663-8.671 4.785 0 8.665 3.88 8.665 8.671"/>
        <path fill="#005DCF" d="M132.094 35.488c-4.786 0-8.663 3.884-8.663 8.673 0 4.79 3.877 8.673 8.663 8.673 4.786 0 8.664-3.882 8.664-8.673 0-4.79-3.878-8.673-8.664-8.673m0 3.614a5.063 5.063 0 0 1 5.054 5.059c0 2.791-2.267 5.06-5.054 5.06a5.061 5.061 0 0 1-5.053-5.06 5.063 5.063 0 0 1 5.053-5.059"/>
        <path fill="#FFF" d="M80.59 149.892c0 4.79-3.88 8.673-8.664 8.673-4.786 0-8.664-3.883-8.664-8.673s3.878-8.672 8.664-8.672c4.785 0 8.664 3.883 8.664 8.672"/>
        <path fill="#005DCF" d="M71.926 141.22c-4.786 0-8.665 3.884-8.665 8.672 0 4.79 3.879 8.672 8.665 8.672s8.664-3.882 8.664-8.672c0-4.788-3.878-8.672-8.664-8.672m0 3.614a5.063 5.063 0 0 1 5.054 5.058c0 2.79-2.268 5.059-5.054 5.059a5.062 5.062 0 0 1-5.054-5.06 5.063 5.063 0 0 1 5.054-5.057"/>
        <path fill="#FFF" d="M17.598 114.577c0 4.79-3.88 8.672-8.664 8.672-4.786 0-8.665-3.882-8.665-8.672 0-4.79 3.879-8.673 8.665-8.673 4.784 0 8.664 3.882 8.664 8.673"/>
        <path fill="#005DCF" d="M8.933 105.904c-4.785 0-8.664 3.883-8.664 8.672 0 4.79 3.879 8.672 8.664 8.672 4.786 0 8.665-3.881 8.665-8.672 0-4.789-3.879-8.672-8.665-8.672m0 3.613a5.063 5.063 0 0 1 5.055 5.06 5.062 5.062 0 0 1-5.055 5.057 5.062 5.062 0 0 1-5.054-5.058c0-2.79 2.269-5.059 5.054-5.059M35.338 35.92l-4.169-2.41 1.203-2.085 4.169 2.409-1.203 2.086zm8.338 4.818l-4.17-2.409 1.203-2.086 4.17 2.409-1.203 2.086zm8.336 4.818l-4.168-2.409 1.204-2.086 4.167 2.41-1.203 2.085zm8.338 4.819l-4.17-2.41 1.204-2.086 4.17 2.41-1.204 2.086zm8.337 4.818l-4.168-2.41 1.203-2.086 4.168 2.41-1.203 2.086zm8.337 4.818l-4.168-2.41 1.203-2.085 4.169 2.409-1.204 2.086zm8.337 4.818l-4.168-2.409 1.203-2.086 4.169 2.409-1.204 2.086zm8.337 4.818l-4.168-2.409 1.203-2.086 4.169 2.409-1.204 2.086zm8.339 4.818l-4.169-2.409 1.203-2.086 4.169 2.41-1.203 2.085zm8.337 4.819l-4.169-2.41 1.204-2.086 4.168 2.41-1.203 2.086zm8.337 4.82l-4.169-2.411 1.204-2.087 4.168 2.41-1.203 2.087zm8.337 4.817l-4.169-2.409 1.204-2.086 4.168 2.409-1.203 2.086zm4.446 2.57l-.275-.16 1.198-2.088.276.158-1.199 2.09zM12.5 70.012l-4.168-2.41 1.203-2.085 4.169 2.409-1.204 2.086zm8.338 4.818l-4.17-2.409 1.204-2.086 4.17 2.409-1.204 2.086zm8.336 4.818l-4.167-2.409 1.203-2.086 4.168 2.409-1.204 2.086zm8.339 4.818l-4.17-2.409 1.203-2.086 4.17 2.41-1.203 2.085zm8.337 4.819l-4.169-2.41 1.204-2.086 4.168 2.41-1.203 2.086zm8.338 4.818l-4.17-2.41 1.204-2.086 4.17 2.41-1.204 2.086zm8.336 4.818l-4.169-2.41 1.204-2.085 4.168 2.409-1.203 2.086zm8.337 4.818l-4.169-2.409 1.204-2.086 4.168 2.409-1.203 2.086zm8.338 4.818l-4.168-2.409 1.203-2.086 4.169 2.41-1.204 2.085zm8.337 4.819l-4.168-2.41 1.203-2.086 4.169 2.41-1.204 2.086zm8.337 4.818l-4.168-2.41 1.203-2.086 4.169 2.41-1.204 2.086zm8.338 4.818l-4.169-2.41 1.203-2.085 4.169 2.409-1.203 2.086zm8.338 4.818l-4.169-2.409 1.204-2.086 4.168 2.409-1.203 2.086z"/>
        <path fill="#FFF" d="M17.329 66.404c0 4.79-3.88 8.673-8.664 8.673C3.879 75.077 0 71.195 0 66.404c0-4.79 3.879-8.673 8.665-8.673 4.784 0 8.664 3.883 8.664 8.673"/>
        <path fill="#005DCF" d="M8.664 57.731C3.88 57.731 0 61.615 0 66.404c0 4.79 3.879 8.673 8.664 8.673 4.786 0 8.665-3.883 8.665-8.673S13.45 57.73 8.664 57.73m0 3.614a5.063 5.063 0 0 1 5.055 5.059c0 2.79-2.268 5.059-5.055 5.059a5.061 5.061 0 0 1-5.054-5.06 5.063 5.063 0 0 1 5.054-5.058"/>
        <path fill="#FFF" d="M122.628 127.76c0 4.79-3.88 8.671-8.664 8.671-4.785 0-8.664-3.881-8.664-8.671 0-4.791 3.879-8.673 8.664-8.673 4.784 0 8.664 3.882 8.664 8.673"/>
        <path fill="#005DCF" d="M113.963 119.087c-4.786 0-8.663 3.883-8.663 8.672 0 4.79 3.877 8.673 8.663 8.673 4.786 0 8.665-3.882 8.665-8.673 0-4.789-3.879-8.672-8.665-8.672m0 3.613a5.062 5.062 0 0 1 5.055 5.06c0 2.789-2.268 5.058-5.055 5.058a5.062 5.062 0 0 1-5.053-5.059c0-2.79 2.267-5.059 5.053-5.059"/>
        <g transform="translate(122.746 81.474)">
            <mask id="b" fill="#fff">
                <use xlink:href="#a"/>
            </mask>
            <path fill="#FFF" d="M18.429 9.211c0 4.79-3.88 8.673-8.664 8.673-4.786 0-8.665-3.882-8.665-8.673C1.1 4.421 4.98.54 9.765.54c4.784 0 8.664 3.882 8.664 8.672" mask="url(#b)"/>
        </g>
        <path fill="#005DCF" d="M132.51 82.013c-4.786 0-8.663 3.883-8.663 8.672 0 4.79 3.877 8.673 8.663 8.673 4.786 0 8.664-3.882 8.664-8.673 0-4.789-3.878-8.672-8.664-8.672m0 3.613a5.062 5.062 0 0 1 5.054 5.06c0 2.79-2.267 5.059-5.054 5.059a5.062 5.062 0 0 1-5.053-5.06c0-2.79 2.267-5.059 5.053-5.059"/>
        <path fill="#FFF" d="M40.435 32.468c0 4.79-3.88 8.672-8.664 8.672-4.786 0-8.664-3.882-8.664-8.672 0-4.79 3.878-8.673 8.664-8.673 4.785 0 8.664 3.882 8.664 8.673"/>
        <path fill="#005DCF" d="M31.77 23.795c-4.785 0-8.664 3.883-8.664 8.672 0 4.79 3.879 8.673 8.665 8.673s8.664-3.882 8.664-8.673c0-4.789-3.878-8.672-8.664-8.672m0 3.613a5.063 5.063 0 0 1 5.054 5.06c0 2.79-2.268 5.058-5.054 5.058a5.061 5.061 0 0 1-5.054-5.059c0-2.79 2.267-5.059 5.054-5.059"/>
        <path fill="#FFF" d="M80.528 56.114c0 4.79-3.88 8.672-8.664 8.672-4.786 0-8.665-3.882-8.665-8.672 0-4.79 3.879-8.673 8.665-8.673 4.784 0 8.664 3.882 8.664 8.673"/>
        <path fill="#005DCF" d="M71.863 47.44c-4.785 0-8.664 3.884-8.664 8.674 0 4.79 3.879 8.672 8.664 8.672 4.786 0 8.664-3.882 8.664-8.672 0-4.79-3.878-8.673-8.664-8.673m0 3.613a5.063 5.063 0 0 1 5.053 5.06c0 2.79-2.267 5.059-5.053 5.059a5.061 5.061 0 0 1-5.054-5.06 5.063 5.063 0 0 1 5.054-5.059"/>
    </g>
</svg>
