<svg xmlns="http://www.w3.org/2000/svg" viewBox="0 0 360 360"><defs><style>.cls-1{fill:#00152b;}</style></defs><g id="Layer_2" data-name="Layer 2"><polygon class="cls-1" points="137.41 234.51 132.95 223.15 131.91 223.15 127.38 234.51 124.17 223.15 121.36 223.15 126.51 241.38 127.54 241.38 132.43 229.21 137.18 241.38 138.24 241.38 143.47 223.15 140.68 223.15 137.41 234.51"/><path class="cls-1" d="M157.68,234.64c-.05-4.32-3-7.34-7.1-7.34a7.09,7.09,0,0,0-7.05,7.25,7,7,0,0,0,7.15,7.15,6.89,6.89,0,0,0,6.51-4.09l.23-.44L155.2,236l-.25.4a4.86,4.86,0,0,1-4.44,2.81,4.26,4.26,0,0,1-4.27-4.07h11.45Zm-11.11-1.94a4,4,0,0,1,4-2.81,4.09,4.09,0,0,1,4.1,2.81Z"/><path class="cls-1" d="M166.18,241.7a6.77,6.77,0,0,0,4.64-1.76v1.45h2.61V227.64h-2.61v1.48a6.47,6.47,0,0,0-4.59-1.82,7.2,7.2,0,0,0,0,14.4Zm.19-11.81a4.66,4.66,0,0,1,0,9.32,4.61,4.61,0,0,1-4.52-4.69A4.54,4.54,0,0,1,166.37,229.89Z"/><polygon class="cls-1" points="181.44 236.21 177.49 227.64 174.64 227.64 180.98 241.38 181.91 241.38 188.2 227.64 185.35 227.64 181.44 236.21"/><path class="cls-1" d="M192.36,224.23a1.86,1.86,0,0,0-1.87-1.85,1.86,1.86,0,0,0,0,3.72A1.9,1.9,0,0,0,192.36,224.23Z"/><rect class="cls-1" x="189.2" y="227.64" width="2.63" height="13.75"/><path class="cls-1" d="M207.91,241.39V227.64h-2.6v1.48a6.49,6.49,0,0,0-4.59-1.82,7.2,7.2,0,0,0-.05,14.4,6.77,6.77,0,0,0,4.64-1.76v1.45Zm-7.07-2.18a4.61,4.61,0,0,1-4.52-4.69,4.56,4.56,0,1,1,4.52,4.69Z"/><polygon class="cls-1" points="214.7 222.89 212.07 222.89 212.07 227.64 209.82 227.64 209.82 230.08 212.07 230.08 212.07 241.38 214.7 241.38 214.7 230.08 217.32 230.08 217.32 227.64 214.7 227.64 214.7 222.89"/><path class="cls-1" d="M225.29,241.7a6.9,6.9,0,0,0,6.52-4.09l.22-.44L229.81,236l-.24.4a4.88,4.88,0,0,1-4.45,2.81,4.25,4.25,0,0,1-4.26-4.07H232.3v-.5c-.05-4.32-3-7.34-7.1-7.34a7.09,7.09,0,0,0-7.06,7.25A7,7,0,0,0,225.29,241.7Zm-.07-11.81a4.09,4.09,0,0,1,4.1,2.81h-8.13A4,4,0,0,1,225.22,229.89Z"/><path class="cls-1" d="M71.75,253.07a18,18,0,0,0-5.61-.62H62.56v17.23h5.49a11,11,0,0,0,5-.93,7.19,7.19,0,0,0,2.9-2.91,9,9,0,0,0,1.12-4.56,9.29,9.29,0,0,0-1.41-5.17A7.49,7.49,0,0,0,71.75,253.07Zm2.47,12.26a5.68,5.68,0,0,1-3.06,2.28,18.31,18.31,0,0,1-5,.45h-2V254.13h1.21a20.22,20.22,0,0,1,5.34.5,6,6,0,0,1,3.36,2.42,7.42,7.42,0,0,1,1.21,4.26A6.92,6.92,0,0,1,74.22,265.33Z"/><path class="cls-1" d="M91.24,259.28a6.6,6.6,0,0,0-2.23-2,6.11,6.11,0,0,0-2.85-.66,6.32,6.32,0,0,0-4.65,1.95,6.47,6.47,0,0,0-1.93,4.71,6.61,6.61,0,0,0,1.91,4.78,6.48,6.48,0,0,0,7.43,1.33,7,7,0,0,0,2.32-1.89v2.19h1.62V256.93H91.24ZM90.7,266a4.77,4.77,0,0,1-1.86,1.84,5.13,5.13,0,0,1-2.55.68,4.92,4.92,0,0,1-2.5-.68,5,5,0,0,1-1.86-1.92,5.15,5.15,0,0,1,0-5.15,4.93,4.93,0,0,1,4.37-2.56,4.8,4.8,0,0,1,3.59,1.49,5.06,5.06,0,0,1,1.45,3.69A5.26,5.26,0,0,1,90.7,266Z"/><polygon class="cls-1" points="99.62 252.2 97.98 252.2 97.98 256.94 95.74 256.94 95.74 258.35 97.98 258.35 97.98 269.69 99.62 269.69 99.62 258.35 102.22 258.35 102.22 256.94 99.62 256.94 99.62 252.2"/><path class="cls-1" d="M115.77,259.28a6.54,6.54,0,0,0-2.24-2,6,6,0,0,0-2.84-.66,6.32,6.32,0,0,0-4.65,1.95,6.47,6.47,0,0,0-1.93,4.71,6.57,6.57,0,0,0,1.91,4.78,6.48,6.48,0,0,0,7.43,1.33,7,7,0,0,0,2.32-1.89v2.19h1.61V256.93h-1.61Zm-.55,6.7a4.68,4.68,0,0,1-1.85,1.84,5.18,5.18,0,0,1-2.55.68,4.89,4.89,0,0,1-2.5-.68,5,5,0,0,1-1.86-1.92,5.18,5.18,0,0,1,0-5.15,5,5,0,0,1,1.85-1.89,4.91,4.91,0,0,1,2.53-.67,4.78,4.78,0,0,1,3.58,1.49,5,5,0,0,1,1.46,3.69A5.16,5.16,0,0,1,115.22,266Z"/><polygon class="cls-1" points="138.47 259.68 129.69 259.68 129.69 252.45 127.97 252.45 127.97 269.69 129.69 269.69 129.69 261.36 138.47 261.36 138.47 269.69 140.19 269.69 140.19 252.45 138.47 252.45 138.47 259.68"/><path class="cls-1" d="M155.2,259.28a6.51,6.51,0,0,0-2.23-2,6.09,6.09,0,0,0-2.84-.66,6.32,6.32,0,0,0-4.66,1.95,6.47,6.47,0,0,0-1.93,4.71,6.58,6.58,0,0,0,1.92,4.78,6.19,6.19,0,0,0,4.62,2,6.33,6.33,0,0,0,2.81-.63,7,7,0,0,0,2.31-1.89v2.19h1.62V256.93H155.2Zm-.54,6.7a4.77,4.77,0,0,1-1.86,1.84,5.13,5.13,0,0,1-2.55.68,4.92,4.92,0,0,1-2.5-.68,5,5,0,0,1-1.86-1.92,5.15,5.15,0,0,1,0-5.15,5,5,0,0,1,1.84-1.89,4.94,4.94,0,0,1,2.53-.67,4.8,4.8,0,0,1,3.59,1.49,5.07,5.07,0,0,1,1.46,3.69A5.26,5.26,0,0,1,154.66,266Z"/><path class="cls-1" d="M163.15,257.15a5.73,5.73,0,0,0-1.59,1.65v-1.87h-1.67v12.75h1.67v-4.31a19.42,19.42,0,0,1,.31-4.4,4.21,4.21,0,0,1,1.16-2.1,2.4,2.4,0,0,1,1.58-.67,2.3,2.3,0,0,1,.87.22l.85-1.38a3,3,0,0,0-1.45-.43A3.12,3.12,0,0,0,163.15,257.15Z"/><path class="cls-1" d="M184.79,257.27a4.18,4.18,0,0,0-2.33-.66,4.85,4.85,0,0,0-2.65.78,6.07,6.07,0,0,0-2,2.28,5.24,5.24,0,0,0-.92-1.73,3.62,3.62,0,0,0-1.36-1,4.36,4.36,0,0,0-1.76-.36,5,5,0,0,0-2.61.75,6.2,6.2,0,0,0-1.76,1.78v-2.21h-1.64v12.75h1.64v-5.4a9.92,9.92,0,0,1,.47-3.55,4.06,4.06,0,0,1,1.47-1.84,3.62,3.62,0,0,1,2.12-.69,2.89,2.89,0,0,1,1.7.5,2.58,2.58,0,0,1,1,1.32,10.88,10.88,0,0,1,.29,3.14v6.52h1.64v-5a11.65,11.65,0,0,1,.46-3.91A4,4,0,0,1,180,258.9a3.66,3.66,0,0,1,2.18-.7,3,3,0,0,1,1.69.47,2.46,2.46,0,0,1,1,1.24,8.83,8.83,0,0,1,.3,2.81v7h1.67v-7a9.84,9.84,0,0,0-.49-3.58A4,4,0,0,0,184.79,257.27Z"/><path class="cls-1" d="M196.27,256.61a6.3,6.3,0,0,0-4.89,2.14,6.83,6.83,0,0,0,.1,9.26,6.74,6.74,0,0,0,9.58,0,6.84,6.84,0,0,0,.1-9.27A6.32,6.32,0,0,0,196.27,256.61Zm4.31,9.35a4.64,4.64,0,0,1-1.81,1.84,5.15,5.15,0,0,1-5,0A4.71,4.71,0,0,1,192,266a5.28,5.28,0,0,1-.67-2.58,5.06,5.06,0,0,1,1.47-3.66,4.85,4.85,0,0,1,7,0,5.06,5.06,0,0,1,1.47,3.66A5.17,5.17,0,0,1,200.58,266Z"/><path class="cls-1" d="M214.91,257.33a4.54,4.54,0,0,0-2.53-.72,5.32,5.32,0,0,0-2.61.65,6.86,6.86,0,0,0-2.18,2v-2.29H206v12.75h1.64V265a16.56,16.56,0,0,1,.24-3.47,4.65,4.65,0,0,1,1.55-2.44,4.1,4.1,0,0,1,2.67-1,3.28,3.28,0,0,1,2.11.64,3.2,3.2,0,0,1,1.09,1.9,15.15,15.15,0,0,1,.18,2.94v6.08h1.65v-6.56a10.37,10.37,0,0,0-.53-3.83A4.36,4.36,0,0,0,214.91,257.33Z"/><path class="cls-1" d="M221.16,251.68a1.35,1.35,0,0,0-1.34,1.36,1.3,1.3,0,0,0,.39,1,1.29,1.29,0,0,0,.95.4,1.35,1.35,0,0,0,1.35-1.35,1.35,1.35,0,0,0-1.35-1.36Z"/><rect class="cls-1" x="220.34" y="256.93" width="1.64" height="12.75"/><polygon class="cls-1" points="224.35 256.94 224.35 258.38 230.88 258.38 223.67 269.69 233.48 269.69 233.48 268.23 226.5 268.23 233.72 256.94 224.35 256.94"/><path class="cls-1" d="M246.68,259.28a6.54,6.54,0,0,0-2.24-2,6,6,0,0,0-2.84-.66,6.32,6.32,0,0,0-4.65,1.95,6.47,6.47,0,0,0-1.93,4.71,6.61,6.61,0,0,0,1.91,4.78,6.48,6.48,0,0,0,7.43,1.33,7,7,0,0,0,2.32-1.89v2.19h1.61V256.93h-1.61Zm-.55,6.7a4.68,4.68,0,0,1-1.85,1.84,5.18,5.18,0,0,1-2.55.68,4.89,4.89,0,0,1-2.5-.68,5,5,0,0,1-1.86-1.92,5.15,5.15,0,0,1,0-5.15,4.93,4.93,0,0,1,4.37-2.56,4.78,4.78,0,0,1,3.58,1.49,5,5,0,0,1,1.46,3.69A5.16,5.16,0,0,1,246.13,266Z"/><polygon class="cls-1" points="255.06 252.2 253.41 252.2 253.41 256.94 251.18 256.94 251.18 258.35 253.41 258.35 253.41 269.69 255.06 269.69 255.06 258.35 257.66 258.35 257.66 256.94 255.06 256.94 255.06 252.2"/><rect class="cls-1" x="259.87" y="256.93" width="1.64" height="12.75"/><path class="cls-1" d="M260.69,251.68a1.32,1.32,0,0,0-.95.4,1.35,1.35,0,0,0-.4,1,1.31,1.31,0,0,0,.4,1,1.29,1.29,0,0,0,.95.4A1.37,1.37,0,0,0,262,253a1.37,1.37,0,0,0-1.35-1.36Z"/><path class="cls-1" d="M271,256.61a6.32,6.32,0,0,0-4.9,2.14,6.83,6.83,0,0,0,.1,9.26,6.74,6.74,0,0,0,9.58,0,6.84,6.84,0,0,0,.1-9.27A6.32,6.32,0,0,0,271,256.61Zm4.31,9.35a4.71,4.71,0,0,1-1.81,1.84,5.15,5.15,0,0,1-5,0,4.64,4.64,0,0,1-1.81-1.84,5.17,5.17,0,0,1-.67-2.58,5.1,5.1,0,0,1,1.46-3.66,4.85,4.85,0,0,1,7,0,5,5,0,0,1,1.48,3.66A5.28,5.28,0,0,1,275.27,266Z"/><path class="cls-1" d="M291.23,259.29a4.4,4.4,0,0,0-1.63-2,4.57,4.57,0,0,0-2.54-.72,5.25,5.25,0,0,0-2.6.65,6.65,6.65,0,0,0-2.18,2v-2.29h-1.64v12.75h1.64V265a17.52,17.52,0,0,1,.23-3.47,4.65,4.65,0,0,1,1.55-2.44,4.1,4.1,0,0,1,2.67-1,3.28,3.28,0,0,1,2.11.64,3.15,3.15,0,0,1,1.09,1.9,14.12,14.12,0,0,1,.19,2.94v6.08h1.64v-6.56A10.37,10.37,0,0,0,291.23,259.29Z"/><path class="cls-1" d="M160.5,96.07a4.77,4.77,0,0,0,3.6-1.67l11.72,6.77.14-.25.11,26.8-3.95-3.91,0,4.15,4.91,4.87,4.87-4.91,0-4.15-3.91,4-.11-26.88.19.33,11.61-6.7a4.78,4.78,0,1,0-1.23-3.19,4.6,4.6,0,0,0,.27,1.53l-10.85,6.26-.05-12.7a4.78,4.78,0,1,0-1.92,0L176,99,165,92.73a5,5,0,0,0,.24-1.45,4.79,4.79,0,1,0-4.78,4.79Zm32.73-7.66a2.87,2.87,0,1,1-2.86,2.87A2.88,2.88,0,0,1,193.23,88.41ZM174,81.68a2.87,2.87,0,1,1,2.86,2.87A2.86,2.86,0,0,1,174,81.68Zm-13.5,6.73a2.87,2.87,0,1,1-2.87,2.87A2.87,2.87,0,0,1,160.5,88.41Z"/><path class="cls-1" d="M144.13,105.5a4.78,4.78,0,0,0,3.61-1.67l11.8,6.93v5.85l-3.93-3.93v4.15l4.89,4.89,4.88-4.89v-4.15l-3.92,3.93v-6.4a1,1,0,0,0-.48-.83l-12.31-7.23a4.58,4.58,0,0,0,.25-1.44,4.79,4.79,0,1,0-4.79,4.79Zm0-7.65a2.87,2.87,0,1,1-2.87,2.86A2.86,2.86,0,0,1,144.13,97.85Z"/><path class="cls-1" d="M127.76,114.93a4.74,4.74,0,0,0,3.68-1.76l7.81,4.69-5.39,1.34,3.56,2.14,6.71-1.68L142.45,113l-3.56-2.13,1.35,5.39-7.9-4.74a4.78,4.78,0,1,0-4.58,3.46Zm0-7.65a2.87,2.87,0,1,1-2.86,2.87A2.88,2.88,0,0,1,127.76,107.28Z"/><path class="cls-1" d="M226.15,171.13a4.78,4.78,0,0,0,1-9.47v-9.15a4.78,4.78,0,1,0-1.92.08v9.07a4.75,4.75,0,0,0-3.49,6.43l-8.2,4.71a4.76,4.76,0,0,0-8.5,3,4.9,4.9,0,0,0,.32,1.71l-8.21,4.71a4.77,4.77,0,0,0-8.48,3,4.85,4.85,0,0,0,.31,1.67l-8.32,4.77a4.73,4.73,0,0,0-7.16,0l-8.33-4.73a4.77,4.77,0,0,0-8.2-4.67l-8.2-4.65a4.72,4.72,0,0,0,.37-1.84,4.77,4.77,0,0,0-8.61-2.85l-8.18-4.64a4.69,4.69,0,0,0,.42-1.94,4.78,4.78,0,0,0-3.82-4.69v-9.09a4.79,4.79,0,1,0-1.93,0v9.09a4.78,4.78,0,0,0,1,9.47,4.73,4.73,0,0,0,3.23-1.28l8.49,4.82a4.56,4.56,0,0,0-.14,1.11,4.78,4.78,0,0,0,8.12,3.43l8.42,4.79a4.85,4.85,0,0,0-.18,1.21,4.79,4.79,0,0,0,8.21,3.35l8.42,4.78a4.55,4.55,0,0,0-.26,1.47,4.79,4.79,0,1,0,9.58,0,4.91,4.91,0,0,0-.26-1.49l8.38-4.81a4.73,4.73,0,0,0,3.46,1.49,4.74,4.74,0,0,0,4.58-6.1l8.35-4.79a4.76,4.76,0,0,0,8-4.6l8.36-4.81A4.75,4.75,0,0,0,226.15,171.13Z"/><path class="cls-1" d="M192.93,109.39a1,1,0,0,0-.48.83v6.39l-3.92-3.93v4.15l4.89,4.89,4.88-4.89v-4.15l-3.92,3.93v-5.84L206,103.89a5,5,0,1,0-1-1.66ZM209.6,97.85a2.87,2.87,0,1,1-2.86,2.86A2.86,2.86,0,0,1,209.6,97.85Z"/><path class="cls-1" d="M211.57,112.81l-1.79,6.68,6.68,1.79,3.6-2.08-5.37-1.44,7.71-4.45a4.77,4.77,0,1,0-1.22-3.16,5,5,0,0,0,.26,1.5l-7.71,4.45,1.44-5.37Zm14.4-5.53a2.87,2.87,0,1,1-2.87,2.87A2.87,2.87,0,0,1,226,107.28Z"/><polygon class="cls-1" points="144.28 137.99 144.28 156.86 160.62 166.29 175.99 157.41 175.99 180.5 172.07 176.57 172.07 180.73 176.96 185.61 181.84 180.73 181.84 176.57 177.92 180.5 177.92 157.41 193.29 166.29 209.63 156.86 209.63 137.99 193.3 128.55 193.29 147.42 176.96 137.99 160.62 147.42 160.62 128.56 144.28 137.99"/></g></svg>