<svg xmlns="http://www.w3.org/2000/svg" width="72" height="82" viewBox="0 0 72 82">
    <g fill="#000" fill-rule="evenodd">
        <path d="M1.449 21.239l.5-.866.866.5-.5.866z"/>
        <path fill-rule="nonzero" d="M4 23l-1-.58.34-.58 1 .58L4 23zm2 1.15l-1-.58.33-.57 1 .57-.33.58zm2 1.15l-1-.57.34-.58 1 .58-.34.57zm2 1.16l-1-.58.34-.58 1 .58-.34.58zm2 1.15l-1-.58.34-.57 1 .57-.34.58zm2 1.15l-1-.57.34-.58 1 .58-.34.57zm2 1.16l-1-.58.33-.58 1 .58-.33.58zm2 1.15l-1-.58.33-.57 1 .57-.33.58zm2 1.15l-1-.57.34-.58 1 .58-.34.57zm2 1.15l-1-.57.34-.58 1 .58-.34.57zm2 1.16l-1-.58.34-.58 1 .58-.34.58zm2 1.15l-1-.64.33-.58 1 .58-.33.64zm2 1.15l-1-.57.33-.58 1 .58-.33.57zm2 1.16l-1-.58.33-.58 1 .58-.33.58zm2 1.15l-1-.58.34-.57 1 .57-.34.58zm2 1.15l-1-.57.34-.58 1 .58-.34.57z"/>
        <path d="M36 41.17a.47.47 0 0 1-.17 0l-.52-.3.34-.58.35.2.35-.2.33.58-.51.3a.47.47 0 0 1-.17 0z"/>
        <path fill-rule="nonzero" d="M68 23l-.33-.58 1-.58.34.58L68 23zm-2 1.1l-.34-.58 1-.57.34.57-1 .58zm-2 1.15l-.34-.57 1-.58.34.58-1 .57zm-2 1.16l-.34-.58 1-.58.33.58-.99.58zm-2 1.15l-.39-.56 1-.57.39.57-1 .56zm-2 1.15l-.34-.57 1-.58.33.58-.99.57zm-2 1.16l-.34-.58 1-.58.34.58-1 .58zm-2 1.15l-.34-.58 1-.57.34.57-1 .58zm-2 1.15l-.34-.57 1-.58.34.58-1 .57zm-2 1.15l-.34-.57 1-.58.33.58-.99.57zm-2 1.16l-.34-.58 1-.58.33.58-.99.58zm-2 1.15l-.34-.58 1-.57.34.57-1 .58zm-2 1.15l-.34-.57 1-.58.34.58-1 .57zm-2 1.16l-.34-.58 1-.58.34.58-1 .58zm-2 1.15l-.34-.58 1-.57.34.57-1 .58zm-2 1.15l-.34-.57 1-.58.33.58-.99.57z"/>
        <path d="M69.714 20.956l.866-.501.5.865-.865.501zM35.67 40.84h1v1h-1z"/>
        <path fill-rule="nonzero" d="M36.35 43.92h-.68v-1.16h.68v1.16zm0 2.33h-.68V45.1h.68v1.15zm0 2.34h-.68v-1.15h.68v1.15zm0 2.34h-.68v-1.16h.68v1.16zm0 2.3h-.68v-1.15h.68v1.15zm0 2.34h-.68V54.3h.68v1.27zm0 2.31h-.68v-1.15h.68v1.15zm0 2.34h-.68v-1.15h.68v1.15zm0 2.31h-.68v-1.16h.68v1.16zm0 2.34h-.68v-1.16h.68v1.16zm0 2.3h-.68V66h.68v1.17zm0 2.34h-.68v-1.15h.68v1.15zm0 2.31h-.68v-1.15h.68v1.15zm0 2.34h-.68V73h.68v1.16zm0 2.34h-.68v-1.15h.68v1.15zm0 2.34h-.68v-1.16h.68v1.16z"/>
        <path d="M35.67 80.01h1v1h-1z"/>
        <path fill-rule="nonzero" d="M69.73 60.22l-33-19.1V2.24l33.05 19.1-.05 38.88zM36 79.82L3.55 61.06 36 42.29l32.46 18.77L36 79.82zM2.29 21.34l33-19.1v38.88l-33 19.11V21.34zm68.43-1L36.35.48a.69.69 0 0 0-.68 0L1.28 20.37a.67.67 0 0 0-.34.58v39.78c0 .238.13.457.34.57l34.39 19.88c.1.067.22.102.34.1a.61.61 0 0 0 .34-.1L70.72 61.3a.64.64 0 0 0 .34-.57V21a.62.62 0 0 0-.34-.63v-.03z"/>
        <path d="M13.08 40.84v13.25l11.46 6.63 11.47-6.63 11.46 6.63 11.47-6.63V40.84l-11.47-6.63v13.25l-11.46-6.62-11.47 6.62V34.21z"/>
    </g>
</svg>
