<svg xmlns="http://www.w3.org/2000/svg" viewBox="0 0 360 360"><defs><style>.cls-1,.cls-2{fill:#00152b;}.cls-1{stroke:#00152b;stroke-miterlimit:10;stroke-width:0.5px;}.cls-3{fill:#003eac;}</style></defs><g id="Layer_2" data-name="Layer 2"><polygon class="cls-1" points="158.28 170.79 162.64 155.62 161.09 155.62 157.95 166.55 153.66 155.62 153.34 155.62 148.99 166.55 145.9 155.62 144.34 155.62 148.63 170.79 148.9 170.79 153.51 159.32 157.99 170.79 158.28 170.79"/><path class="cls-1" d="M169.57,171.07a5.62,5.62,0,0,0,5.35-3.36l-1.21-.64a4.69,4.69,0,0,1-4.29,2.69,4.27,4.27,0,0,1-4.23-4.46H175.3a5.79,5.79,0,1,0-5.73,5.77Zm-.06-10.4a4.12,4.12,0,0,1,4.2,3.36h-8.37A4.13,4.13,0,0,1,169.51,160.67Z"/><path class="cls-1" d="M183.22,171.07a5.67,5.67,0,0,0,4.52-2.2v1.92h1.42V159.57h-1.42v2.05a5.31,5.31,0,0,0-4.48-2.34,5.9,5.9,0,0,0,0,11.79Zm.17-10.4a4.55,4.55,0,0,1,0,9.09,4.51,4.51,0,0,1-4.42-4.57A4.45,4.45,0,0,1,183.39,160.67Z"/><polygon class="cls-1" points="196.79 170.79 201.92 159.57 200.38 159.57 196.66 167.73 192.9 159.57 191.36 159.57 196.54 170.79 196.79 170.79"/><rect class="cls-1" x="203.93" y="159.57" width="1.44" height="11.22"/><path class="cls-1" d="M204.63,154.94a1.2,1.2,0,0,0,0,2.39,1.22,1.22,0,0,0,1.2-1.2A1.2,1.2,0,0,0,204.63,154.94Z"/><path class="cls-1" d="M218.11,168.87v1.92h1.42V159.57h-1.42v2.05a5.31,5.31,0,0,0-4.48-2.34,5.9,5.9,0,0,0,0,11.79A5.68,5.68,0,0,0,218.11,168.87Zm-8.79-3.68a4.45,4.45,0,1,1,4.42,4.57A4.51,4.51,0,0,1,209.32,165.19Z"/><polygon class="cls-1" points="224.07 170.79 225.51 170.79 225.51 160.84 227.81 160.84 227.81 159.57 225.51 159.57 225.51 155.39 224.07 155.39 224.07 159.57 222.09 159.57 222.09 160.84 224.07 160.84 224.07 170.79"/><path class="cls-1" d="M235.27,171.07a5.62,5.62,0,0,0,5.35-3.36l-1.21-.64a4.69,4.69,0,0,1-4.29,2.69,4.27,4.27,0,0,1-4.22-4.46H241a5.71,5.71,0,0,0-5.81-6,5.78,5.78,0,0,0-5.77,5.94A5.69,5.69,0,0,0,235.27,171.07Zm-.06-10.4a4.12,4.12,0,0,1,4.2,3.36h-8.36A4.11,4.11,0,0,1,235.21,160.67Z"/><path class="cls-2" d="M149.07,187.58c-1.11-.82-1.76-1.32-2-1.52a3.23,3.23,0,0,1-.75-1,2.31,2.31,0,0,1-.21-1,1.81,1.81,0,0,1,.58-1.37,2.09,2.09,0,0,1,1.5-.56,2.52,2.52,0,0,1,1.32.36A5.92,5.92,0,0,1,151,184l1.24-.94a7.08,7.08,0,0,0-2-2,4,4,0,0,0-2-.53,3.9,3.9,0,0,0-1.87.47,3.37,3.37,0,0,0-1.33,1.29,3.46,3.46,0,0,0-.48,1.8,3.79,3.79,0,0,0,.81,2.33,13.16,13.16,0,0,0,2.36,2.07,12.6,12.6,0,0,1,2.6,2.43,2.61,2.61,0,0,1,.51,1.5,2.49,2.49,0,0,1-1.37,2.22,3,3,0,0,1-1.43.36c-1.19,0-2.24-.83-3.15-2.51l-1.29.78a6.74,6.74,0,0,0,2.07,2.47,4.5,4.5,0,0,0,2.51.74,4.21,4.21,0,0,0,3.05-1.22,3.86,3.86,0,0,0,1.26-2.87,4.19,4.19,0,0,0-.74-2.28A11.05,11.05,0,0,0,149.07,187.58Z"/><path class="cls-2" d="M160.79,184.64a5.57,5.57,0,0,0-4.31,1.89,6,6,0,0,0,.09,8.15,5.93,5.93,0,0,0,8.43,0,6,6,0,0,0,.09-8.16A5.57,5.57,0,0,0,160.79,184.64Zm3.8,8.23a4.25,4.25,0,0,1-1.6,1.63,4.55,4.55,0,0,1-4.41,0,4.16,4.16,0,0,1-1.59-1.63,4.66,4.66,0,0,1,.7-5.49,4.27,4.27,0,0,1,6.19,0,4.47,4.47,0,0,1,1.3,3.22A4.6,4.6,0,0,1,164.59,192.87Z"/><path class="cls-2" d="M175,186a4.81,4.81,0,0,1,4,2l1.14-.71a4.6,4.6,0,0,0-1.23-1.39,5.87,5.87,0,0,0-1.75-.89,6.83,6.83,0,0,0-2.16-.34,6.63,6.63,0,0,0-3.21.78,5.91,5.91,0,0,0-3.07,5.21,5.5,5.5,0,0,0,1.75,4.12,6.11,6.11,0,0,0,4.42,1.69,7,7,0,0,0,3.09-.66,5.43,5.43,0,0,0,2.16-1.89l-1.14-.75a4.92,4.92,0,0,1-4,2,5.06,5.06,0,0,1-2.44-.59,4.28,4.28,0,0,1-1.71-1.69,4.5,4.5,0,0,1-.63-2.3,4.33,4.33,0,0,1,1.36-3.21A4.68,4.68,0,0,1,175,186Z"/><path class="cls-2" d="M183.49,180.3a1.21,1.21,0,0,0-1.18,1.2,1.18,1.18,0,0,0,2,.84,1.18,1.18,0,0,0,.35-.84,1.15,1.15,0,0,0-.35-.84A1.12,1.12,0,0,0,183.49,180.3Z"/><rect class="cls-2" x="182.77" y="184.93" width="1.44" height="11.23"/><path class="cls-2" d="M197,187a5.71,5.71,0,0,0-2-1.76,5.22,5.22,0,0,0-2.51-.59,5.53,5.53,0,0,0-4.09,1.72,5.68,5.68,0,0,0-1.71,4.15,5.84,5.84,0,0,0,1.69,4.21,5.73,5.73,0,0,0,6.54,1.17,6.13,6.13,0,0,0,2-1.66v1.92h1.43V184.93H197Zm-.48,5.91a4.16,4.16,0,0,1-1.63,1.62,4.61,4.61,0,0,1-2.25.59,4.36,4.36,0,0,1-3.83-2.29,4.49,4.49,0,0,1-.61-2.26,4.56,4.56,0,0,1,.6-2.27,4.36,4.36,0,0,1,3.85-2.26,4.26,4.26,0,0,1,3.16,1.31,4.45,4.45,0,0,1,1.28,3.26A4.64,4.64,0,0,1,196.5,192.9Z"/><rect class="cls-2" x="201.44" y="180.59" width="1.44" height="15.56"/><polygon class="cls-2" points="225.99 180.97 219.87 193.43 213.7 180.97 213.46 180.97 211.28 196.16 212.75 196.16 214.24 185.22 219.67 196.16 220.06 196.16 225.43 185.3 226.93 196.16 228.41 196.16 226.23 180.97 225.99 180.97"/><path class="cls-2" d="M241,186.82a5.51,5.51,0,0,0-4.59-2.18,5.39,5.39,0,0,0-4.45,2.12,6.16,6.16,0,0,0,.24,7.88,5.37,5.37,0,0,0,4.3,1.8,6.23,6.23,0,0,0,2.22-.37,5.49,5.49,0,0,0,1.76-1.1,6.58,6.58,0,0,0,1.39-1.9l-1.22-.64a6.75,6.75,0,0,1-1.23,1.59,4.23,4.23,0,0,1-1.38.79,4.78,4.78,0,0,1-1.67.3,4,4,0,0,1-3-1.25,4.51,4.51,0,0,1-1.25-3.21h10.1A6,6,0,0,0,241,186.82Zm-8.72,2.59a4.91,4.91,0,0,1,1.31-2.33A4.18,4.18,0,0,1,236.4,186a4.54,4.54,0,0,1,1.91.42,4.15,4.15,0,0,1,1.46,1.12,4.74,4.74,0,0,1,.84,1.85Z"/><path class="cls-2" d="M254.68,187a5.73,5.73,0,0,0-2-1.76,5.21,5.21,0,0,0-2.5-.59,5.55,5.55,0,0,0-4.1,1.72,5.71,5.71,0,0,0-1.7,4.15,5.8,5.8,0,0,0,1.69,4.21,5.47,5.47,0,0,0,4.07,1.72,5.55,5.55,0,0,0,2.47-.55,6.33,6.33,0,0,0,2-1.66v1.92h1.42V180.59h-1.42Zm-.48,5.91a4.26,4.26,0,0,1-1.64,1.62,4.55,4.55,0,0,1-2.24.59,4.26,4.26,0,0,1-2.2-.6,4.37,4.37,0,0,1-1.64-1.69,4.59,4.59,0,0,1-.61-2.26,4.47,4.47,0,0,1,.61-2.27,4.34,4.34,0,0,1,1.62-1.67,4.4,4.4,0,0,1,2.23-.59,4.27,4.27,0,0,1,3.16,1.31,4.49,4.49,0,0,1,1.28,3.26A4.64,4.64,0,0,1,254.2,192.9Z"/><rect class="cls-2" x="259.15" y="184.93" width="1.44" height="11.23"/><path class="cls-2" d="M259.87,180.3a1.11,1.11,0,0,0-.83.36,1.15,1.15,0,0,0-.35.84,1.18,1.18,0,0,0,.35.84,1.19,1.19,0,0,0,2-.84,1.21,1.21,0,0,0-1.19-1.2Z"/><path class="cls-2" d="M273.36,184.93V187a5.71,5.71,0,0,0-2-1.76,5.21,5.21,0,0,0-2.5-.59,5.54,5.54,0,0,0-4.1,1.72,5.67,5.67,0,0,0-1.7,4.15,5.83,5.83,0,0,0,1.68,4.21,5.5,5.5,0,0,0,4.07,1.72,5.57,5.57,0,0,0,2.48-.55,6.2,6.2,0,0,0,2-1.66v1.92h1.43V184.93Zm-.48,8a4.16,4.16,0,0,1-1.63,1.62,4.61,4.61,0,0,1-2.25.59,4.36,4.36,0,0,1-3.83-2.29,4.49,4.49,0,0,1-.61-2.26,4.56,4.56,0,0,1,.6-2.27A4.36,4.36,0,0,1,269,186a4.26,4.26,0,0,1,3.16,1.31,4.46,4.46,0,0,1,1.29,3.26A4.54,4.54,0,0,1,272.88,192.9Z"/></g><g id="Layer_5" data-name="Layer 5"><path class="cls-3" d="M118.55,151.33a13.07,13.07,0,0,0-.25-1.88,1.94,1.94,0,0,0-1.74-1.45c-.58-.08-.87.11-1,.65s-.12.82-.17,1.24a2.07,2.07,0,0,1-1.64,2.05,1.05,1.05,0,0,0-1-.41h-1.13a.91.91,0,0,0-1,.9v6.17a.91.91,0,0,0,1,.9h1.07c.82,0,1.07-.19,1.24-.88h.84c1.66,0,3.32,0,5,0a1.4,1.4,0,0,0,1.42-.89c.13-.3.24-.62.35-.93.37-1,.75-2,1.09-3a1.34,1.34,0,0,0-1.41-1.83h-2.66C118.55,151.74,118.57,151.53,118.55,151.33Zm2.66,1.53c.48,0,.67.21.52.64-.32.95-.67,1.89-1,2.83-.13.35-.26.71-.4,1.06a.51.51,0,0,1-.55.35c-1.75,0-3.49,0-5.24,0-.48,0-.61-.13-.61-.6,0-1.25,0-2.51,0-3.76a.65.65,0,0,1,.42-.66,2.06,2.06,0,0,1,.26-.12,2.45,2.45,0,0,0,1.63-2c.11-.5.16-1,.24-1.53a1.55,1.55,0,0,1,0-.17.93.93,0,0,1,.84.61,5.22,5.22,0,0,1,.28,1.23,11.82,11.82,0,0,1,0,1.46c0,.51.13.66.65.66Z"/><path class="cls-3" d="M81.72,128.34a2.4,2.4,0,0,0-2.17-2.6l0,0H71.91a2.72,2.72,0,0,0-1.51.73,2.25,2.25,0,0,0-.71,1.64v3.81a2.44,2.44,0,0,0,2.57,2.47c1.84,0,3.68,0,5.52,0a.91.91,0,0,1,.45.16l3.19,2.53.3.22v-8.93Zm-9,.27H79.2v.92H72.72Zm6.48,2.85H74.72v-.93H79.2Z"/><path class="cls-3" d="M39.86,197.56h-10a1,1,0,0,0-1.05.61V205a1,1,0,0,0,1.05.61h0c3.39,0,6.77,0,10,0h0a1,1,0,0,0,1-.61v-6.83A1,1,0,0,0,39.86,197.56Zm.12,1.36v5.77H29.75v-5.77l4.69,3.28a.58.58,0,0,0,.85,0L39.93,199Z"/><path class="cls-3" d="M110.64,206.66a7,7,0,0,0,2.75,1,7.82,7.82,0,0,0,1.07.08,7.7,7.7,0,0,0,1.67-.19,6.8,6.8,0,0,0,5.37-6.66.1.1,0,0,1,0-.08l.09-.08.59-.54c.11-.12.21-.25.3-.37l.07-.09a.33.33,0,0,0,0-.43.38.38,0,0,0-.43-.12l-.07,0v0a4.11,4.11,0,0,0,.21-.42.34.34,0,0,0-.29-.49.54.54,0,0,0-.27.06,4.48,4.48,0,0,1-1.12.44s0,0-.07,0l0,0a2.18,2.18,0,0,0-.31-.22,2.74,2.74,0,0,0-2.89,0,2.48,2.48,0,0,0-1.29,2.34H116l-.09,0-.41-.07a6.35,6.35,0,0,1-3-1.51c-.13-.12-.26-.26-.38-.38l-.19-.2a.41.41,0,0,0-.34-.13.4.4,0,0,0-.27.19,2.51,2.51,0,0,0-.14,2.33l.12.23a.31.31,0,0,0-.21.07.33.33,0,0,0-.15.3,2.54,2.54,0,0,0,.71,1.74l.2.23,0,0a.31.31,0,0,0-.07.37,2.59,2.59,0,0,0,1.36,1.51l.22.09a4.35,4.35,0,0,1-1.14.37,4.45,4.45,0,0,1-1.32.05.37.37,0,0,0-.42.24A.34.34,0,0,0,110.64,206.66Z"/><path class="cls-3" d="M40.75,151.37a3.65,3.65,0,0,0-3.15-2.54l-.12,0H32.25c-.2,0-.39.05-.59.1a3.56,3.56,0,0,0-2.82,3.4q0,2.26,0,4.53a3.61,3.61,0,0,0,3.64,3.5h4.79a3.62,3.62,0,0,0,3.6-3.14l0-.12v-5C40.85,151.84,40.82,151.6,40.75,151.37Zm-5.86,6.24a3,3,0,1,1,3.18-3A3.09,3.09,0,0,1,34.89,157.61Zm3.2-5.46a.67.67,0,1,1,.69-.67A.67.67,0,0,1,38.09,152.15Z"/><path class="cls-3" d="M75.93,212.81H75.1v-3.33h.83Zm0-6.66H75.1v-3.33h.83Zm0-6.66H75.1v-3.33h.83Zm0-20H75.1v-3.33h.83Zm0-6.66H75.1v-3.33h.83Zm0-6.66H75.1v-3.33h.83Zm0-6.66H75.1v-3.32h.83Zm0-6.65H75.1v-3.33h.83Zm0-6.66H75.1v-3.33h.83Zm0-6.66H75.1v-3.33h.83Z"/><path class="cls-3" d="M59.43,168.89l-2.85-1.72.43-.71,2.85,1.72Zm-5.7-3.44-2.85-1.72.43-.71,2.85,1.72ZM48,162l-2.85-1.72.43-.72,2.85,1.73Zm-5.7-3.44-1.67-1,.43-.71,1.67,1Z"/><path class="cls-3" d="M91.5,168.89l-.41-.72L94,166.51l.42.72Zm5.77-3.33-.42-.72,2.89-1.66.41.72Zm5.77-3.33-.42-.72,2.88-1.67.42.72Zm5.76-3.33-.41-.72,2.88-1.67.42.72Z"/><path class="cls-3" d="M41.85,198l-.41-.72,2.88-1.67.41.72Z"/><rect class="cls-3" x="108.09" y="195.19" width="0.83" height="3.33" transform="translate(-115.59 179.31) rotate(-56.66)"/><path class="cls-3" d="M78.45,228.16v-3.92H80l.35-2.76H78.45v-.36c0-.22,0-.44,0-.66s0-.16.19-.18a3.85,3.85,0,0,1,.48,0h1l.21,0,0-.2s0-.07,0-.1v-1.82a.33.33,0,0,0-.36-.37l-.57,0c-.37,0-.76,0-1.14,0a2.65,2.65,0,0,0-2.65,2.19,5.76,5.76,0,0,0-.06.92c0,.12,0,.23,0,.34s0,.26,0,.39H74v2.75h1.61v3.93H70.17c-.37,0-.51-.14-.51-.48V217c0-.35.14-.49.5-.49H81.31c.34,0,.49.14.49.47v10.67c0,.33-.15.47-.49.47Z"/><polyline class="cls-2" points="75.47 195.94 91.29 205.08 107.12 195.94 107.12 177.67 91.3 168.53 91.29 186.81 75.47 177.67"/><polyline class="cls-2" points="75.47 177.67 59.65 186.81 59.65 168.53 43.82 177.67 43.82 195.94 59.65 205.08 75.47 195.94"/></g></svg>