<svg width="360" height="360" xmlns="http://www.w3.org/2000/svg">
 <defs>
  <style>.cls-1{fill:#95025c;}.cls-2{fill:#00152b;}</style>
 </defs>
 <g>
  <title>background</title>
  <rect fill="none" id="canvas_background" height="602" width="802" y="-1" x="-1"/>
 </g>
 <g>
  <title>Layer 1</title>
  <g stroke="null" id="Layer_2">
   <path stroke="null" id="svg_1" d="m164.81204,125.79574a16.46234,16.46234 0 1 0 16.46234,-16.46234a16.46234,16.46234 0 0 0 -16.46234,16.46234zm16.46234,-10.97489a10.97489,10.97489 0 1 1 -10.97489,10.97489a10.97489,10.97489 0 0 1 10.93831,-10.92002l0.03658,-0.05487z" class="cls-1"/>
   <circle stroke="null" id="svg_2" r="8.21287" cy="45.02054" cx="134.5945" class="cls-1"/>
   <circle stroke="null" id="svg_3" r="8.21287" cy="98.87068" cx="134.5945" class="cls-1"/>
   <circle stroke="null" id="svg_4" r="8.21287" cy="71.28712" cx="181.23779" class="cls-1"/>
   <circle stroke="null" id="svg_5" r="8.21288" cy="71.28712" cx="87.95121" class="cls-1"/>
   <circle stroke="null" id="svg_6" r="8.21287" cy="125.15554" cx="87.96951" class="cls-1"/>
   <circle stroke="null" id="svg_7" r="8.21287" cy="287.38273" cx="87.95121" class="cls-1"/>
   <circle stroke="null" id="svg_8" r="8.21287" cy="314.30779" cx="134.5945" class="cls-1"/>
   <circle stroke="null" id="svg_9" r="8.21287" cy="287.38273" cx="181.23779" class="cls-1"/>
   <path stroke="null" id="svg_10" d="m40.35677,144.52622a8.21288,8.21288 0 1 0 8.19459,8.21288a8.21288,8.21288 0 0 0 -8.19459,-8.21288z" class="cls-1"/>
   <circle stroke="null" id="svg_11" r="8.21287" cy="206.58923" cx="40.83235" class="cls-1"/>
   <circle stroke="null" id="svg_12" r="8.21287" cy="45.02054" cx="227.42379" class="cls-1"/>
   <circle stroke="null" id="svg_13" r="8.21287" cy="98.87068" cx="227.42379" class="cls-1"/>
   <circle stroke="null" id="svg_14" r="8.21287" cy="71.28712" cx="274.06708" class="cls-1"/>
   <circle stroke="null" id="svg_15" r="8.21287" cy="125.15554" cx="274.04879" class="cls-1"/>
   <circle stroke="null" id="svg_16" r="8.21287" cy="287.38273" cx="274.06708" class="cls-1"/>
   <circle stroke="null" id="svg_17" r="8.21287" cy="314.30779" cx="227.42379" class="cls-1"/>
   <path stroke="null" id="svg_18" d="m321.66152,144.52622a8.21288,8.21288 0 1 0 8.21288,8.21288a8.21288,8.21288 0 0 0 -8.21288,-8.21288z" class="cls-1"/>
   <circle stroke="null" id="svg_19" r="8.21287" cy="206.58923" cx="321.18594" class="cls-1"/>
   <path stroke="null" id="svg_20" d="m181.34754,1.21244a16.46234,16.46234 0 1 0 16.46234,16.46234a16.46234,16.46234 0 0 0 -16.46234,-16.46234zm0,27.32748a10.97489,10.97489 0 1 1 10.97489,-10.97489a10.97489,10.97489 0 0 1 -10.97489,10.97489z" class="cls-1"/>
   <path stroke="null" id="svg_21" d="m40.83235,82.46321a16.46234,16.46234 0 1 0 16.46234,16.46234a16.46234,16.46234 0 0 0 -16.46234,-16.46234zm0,27.32748a10.97489,10.97489 0 1 1 10.97489,-10.97489a10.97489,10.97489 0 0 1 -10.97489,10.97489z" class="cls-1"/>
   <path stroke="null" id="svg_22" d="m40.83235,243.99532a16.46234,16.46234 0 1 0 16.46234,16.46234a16.46234,16.46234 0 0 0 -16.46234,-16.46234zm0,27.32748a10.97489,10.97489 0 1 1 10.97489,-10.97489a10.97489,10.97489 0 0 1 -10.97489,11.08464l0,-0.10975z" class="cls-1"/>
   <path stroke="null" id="svg_23" d="m321.16765,115.27814a16.46234,16.46234 0 1 0 -16.46234,-16.46234a16.46234,16.46234 0 0 0 16.46234,16.46234zm0,-27.32748a10.97489,10.97489 0 1 1 -10.97489,10.97489a10.97489,10.97489 0 0 1 10.97489,-10.97489z" class="cls-1"/>
   <path stroke="null" id="svg_24" d="m321.16765,243.99532a16.46234,16.46234 0 1 0 16.46234,16.46234a16.46234,16.46234 0 0 0 -16.46234,-16.46234zm0,27.32748a10.97489,10.97489 0 1 1 10.97489,-10.97489a10.97489,10.97489 0 0 1 -10.97489,11.08464l0,-0.10975z" class="cls-1"/>
   <path stroke="null" id="svg_25" d="m181.34754,325.92289a16.46234,16.46234 0 1 0 16.46234,16.46234a16.46234,16.46234 0 0 0 -16.46234,-16.46234zm0,27.32748a10.97489,10.97489 0 1 1 10.97489,-10.97489a10.97489,10.97489 0 0 1 -10.97489,10.97489z" class="cls-1"/>
   <polygon stroke="null" id="svg_26" points="87.9695053100586,178.36546325683594 87.9695053100586,232.21560668945312 134.61279296875,259.1406555175781 181.25607299804688,232.21560668945312 227.8993682861328,259.1406555175781 274.5426330566406,232.21560668945312 274.5426330566406,178.36546325683594 227.9176483154297,151.422119140625 227.8993682861328,205.29054260253906 181.25607299804688,178.36546325683594 134.61279296875,205.29054260253906 134.61279296875,151.422119140625 87.9695053100586,178.36546325683594 " class="cls-2"/>
  </g>
 </g>
</svg>