<svg xmlns="http://www.w3.org/2000/svg" viewBox="0 0 360 360"><defs><style>.cls-1{fill:#fff;}</style></defs><g id="Layer_5" data-name="Layer 5"><polygon class="cls-1" points="158.28 170.8 162.64 155.62 161.09 155.62 157.95 166.55 153.66 155.62 153.34 155.62 148.99 166.55 145.9 155.62 144.34 155.62 148.63 170.8 148.9 170.8 153.51 159.32 157.99 170.8 158.28 170.8"/><path class="cls-1" d="M169.57,171.07a5.62,5.62,0,0,0,5.35-3.36l-1.21-.63a4.7,4.7,0,0,1-4.29,2.68,4.27,4.27,0,0,1-4.23-4.46H175.3a5.79,5.79,0,1,0-5.73,5.77Zm-.06-10.4a4.12,4.12,0,0,1,4.2,3.36h-8.37A4.13,4.13,0,0,1,169.51,160.67Z"/><path class="cls-1" d="M183.22,171.07a5.67,5.67,0,0,0,4.52-2.2v1.93h1.42V159.57h-1.42v2.05a5.31,5.31,0,0,0-4.48-2.34,5.9,5.9,0,0,0,0,11.79Zm.17-10.4a4.55,4.55,0,0,1,0,9.09,4.55,4.55,0,0,1,0-9.09Z"/><polygon class="cls-1" points="196.79 170.8 201.92 159.57 200.38 159.57 196.66 167.73 192.9 159.57 191.36 159.57 196.54 170.8 196.79 170.8"/><rect class="cls-1" x="203.93" y="159.57" width="1.44" height="11.22"/><path class="cls-1" d="M204.63,155a1.18,1.18,0,0,0-1.18,1.18,1.19,1.19,0,0,0,1.18,1.2,1.22,1.22,0,0,0,1.2-1.2A1.19,1.19,0,0,0,204.63,155Z"/><path class="cls-1" d="M218.11,168.87v1.93h1.42V159.57h-1.42v2.05a5.31,5.31,0,0,0-4.48-2.34,5.9,5.9,0,0,0,0,11.79A5.68,5.68,0,0,0,218.11,168.87Zm-8.79-3.68a4.45,4.45,0,1,1,4.42,4.57A4.46,4.46,0,0,1,209.32,165.19Z"/><polygon class="cls-1" points="224.07 170.8 225.51 170.8 225.51 160.84 227.81 160.84 227.81 159.57 225.51 159.57 225.51 155.39 224.07 155.39 224.07 159.57 222.09 159.57 222.09 160.84 224.07 160.84 224.07 170.8"/><path class="cls-1" d="M235.27,171.07a5.62,5.62,0,0,0,5.35-3.36l-1.21-.63a4.7,4.7,0,0,1-4.29,2.68,4.27,4.27,0,0,1-4.22-4.46H241a5.71,5.71,0,0,0-5.81-6,5.78,5.78,0,0,0-5.77,5.94A5.69,5.69,0,0,0,235.27,171.07Zm-.06-10.4a4.12,4.12,0,0,1,4.2,3.36h-8.36A4.11,4.11,0,0,1,235.21,160.67Z"/><path class="cls-1" d="M149.07,187.58c-1.11-.82-1.76-1.32-2-1.52a3.23,3.23,0,0,1-.75-1,2.31,2.31,0,0,1-.21-1,1.81,1.81,0,0,1,.58-1.37,2.09,2.09,0,0,1,1.5-.56,2.52,2.52,0,0,1,1.32.36A5.92,5.92,0,0,1,151,184l1.24-.94a6.89,6.89,0,0,0-2-2,4,4,0,0,0-3.88-.07,3.44,3.44,0,0,0-1.33,1.29,3.5,3.5,0,0,0-.48,1.81,3.79,3.79,0,0,0,.81,2.32,13.16,13.16,0,0,0,2.36,2.07,12.33,12.33,0,0,1,2.6,2.44,2.55,2.55,0,0,1,.51,1.49,2.41,2.41,0,0,1-.35,1.27,2.5,2.5,0,0,1-1,1,3.05,3.05,0,0,1-1.43.35c-1.19,0-2.24-.83-3.15-2.51l-1.29.78a6.74,6.74,0,0,0,2.07,2.47,4.5,4.5,0,0,0,2.51.74,4.21,4.21,0,0,0,3.05-1.22,3.86,3.86,0,0,0,1.26-2.87,4.19,4.19,0,0,0-.74-2.28A11.05,11.05,0,0,0,149.07,187.58Z"/><path class="cls-1" d="M160.79,184.64a5.57,5.57,0,0,0-4.31,1.89,6,6,0,0,0,.09,8.15,5.93,5.93,0,0,0,8.43,0,6,6,0,0,0,.09-8.16A5.57,5.57,0,0,0,160.79,184.64Zm3.8,8.23a4.18,4.18,0,0,1-1.6,1.63,4.55,4.55,0,0,1-4.41,0,4.09,4.09,0,0,1-1.59-1.63,4.66,4.66,0,0,1,.7-5.49,4.27,4.27,0,0,1,6.19,0,4.47,4.47,0,0,1,1.3,3.22A4.6,4.6,0,0,1,164.59,192.87Z"/><path class="cls-1" d="M175,186a4.81,4.81,0,0,1,4,2l1.14-.71a4.6,4.6,0,0,0-1.23-1.39,5.87,5.87,0,0,0-1.75-.89,6.83,6.83,0,0,0-2.16-.34,6.63,6.63,0,0,0-3.21.78,5.94,5.94,0,0,0-3.07,5.22,5.5,5.5,0,0,0,1.75,4.11,6.11,6.11,0,0,0,4.42,1.69,7,7,0,0,0,3.09-.66,5.49,5.49,0,0,0,2.16-1.88l-1.14-.76a4.92,4.92,0,0,1-4,2,5.06,5.06,0,0,1-2.44-.59,4.28,4.28,0,0,1-1.71-1.69,4.5,4.5,0,0,1-.63-2.3,4.33,4.33,0,0,1,1.36-3.21A4.68,4.68,0,0,1,175,186Z"/><path class="cls-1" d="M183.49,180.31a1.2,1.2,0,0,0-1.18,1.19,1.13,1.13,0,0,0,.35.84,1.17,1.17,0,0,0,1.67,0,1.16,1.16,0,0,0,.35-.84,1.15,1.15,0,0,0-.35-.84A1.11,1.11,0,0,0,183.49,180.31Z"/><rect class="cls-1" x="182.77" y="184.93" width="1.44" height="11.23"/><path class="cls-1" d="M197,187a5.71,5.71,0,0,0-2-1.76,5.22,5.22,0,0,0-2.51-.59,5.53,5.53,0,0,0-4.09,1.72,5.69,5.69,0,0,0-1.71,4.15,5.84,5.84,0,0,0,1.69,4.21,5.73,5.73,0,0,0,6.54,1.17,6.13,6.13,0,0,0,2-1.66v1.93h1.43V184.93H197Zm-.48,5.91a4.16,4.16,0,0,1-1.63,1.62,4.61,4.61,0,0,1-2.25.59,4.28,4.28,0,0,1-2.2-.6,4.39,4.39,0,0,1-1.63-1.68,4.56,4.56,0,0,1,0-4.54,4.41,4.41,0,0,1,3.85-2.26,4.26,4.26,0,0,1,3.16,1.31,4.45,4.45,0,0,1,1.28,3.26A4.64,4.64,0,0,1,196.5,192.9Z"/><rect class="cls-1" x="201.44" y="180.59" width="1.44" height="15.56"/><polygon class="cls-1" points="225.99 180.98 219.87 193.43 213.7 180.98 213.46 180.98 211.28 196.16 212.75 196.16 214.24 185.22 219.67 196.16 220.06 196.16 225.43 185.3 226.93 196.16 228.41 196.16 226.23 180.98 225.99 180.98"/><path class="cls-1" d="M241,186.82a5.54,5.54,0,0,0-4.59-2.18,5.39,5.39,0,0,0-4.45,2.12,6.16,6.16,0,0,0,.24,7.88,5.37,5.37,0,0,0,4.3,1.8,6.23,6.23,0,0,0,2.22-.37,5.49,5.49,0,0,0,1.76-1.1,6.58,6.58,0,0,0,1.39-1.9l-1.22-.64a6.75,6.75,0,0,1-1.23,1.59,4.43,4.43,0,0,1-1.38.8,5,5,0,0,1-1.67.29,4,4,0,0,1-3-1.25,4.5,4.5,0,0,1-1.25-3.2h10.1A6.05,6.05,0,0,0,241,186.82Zm-8.72,2.59a5,5,0,0,1,1.31-2.33A4.18,4.18,0,0,1,236.4,186a4.4,4.4,0,0,1,1.91.43,4,4,0,0,1,1.46,1.11,4.74,4.74,0,0,1,.84,1.85Z"/><path class="cls-1" d="M254.68,187a5.73,5.73,0,0,0-2-1.76,5.21,5.21,0,0,0-2.5-.59,5.55,5.55,0,0,0-4.1,1.72,5.72,5.72,0,0,0-1.7,4.15,5.8,5.8,0,0,0,1.69,4.21,5.47,5.47,0,0,0,4.07,1.72,5.55,5.55,0,0,0,2.47-.55,6.33,6.33,0,0,0,2-1.66v1.93h1.42V180.59h-1.42Zm-.48,5.91a4.26,4.26,0,0,1-1.64,1.62,4.57,4.57,0,0,1-2.24.59,4.26,4.26,0,0,1-2.2-.6,4.41,4.41,0,0,1-1.64-1.68,4.66,4.66,0,0,1-.61-2.27,4.47,4.47,0,0,1,.61-2.27,4.43,4.43,0,0,1,7-.95,4.49,4.49,0,0,1,1.28,3.26A4.64,4.64,0,0,1,254.2,192.9Z"/><path class="cls-1" d="M259.87,180.31a1.1,1.1,0,0,0-.83.35,1.15,1.15,0,0,0-.35.84,1.16,1.16,0,0,0,.35.84,1.17,1.17,0,0,0,1.67,0,1.13,1.13,0,0,0,.35-.84,1.2,1.2,0,0,0-1.19-1.19Z"/><rect class="cls-1" x="259.15" y="184.93" width="1.44" height="11.23"/><path class="cls-1" d="M273.36,184.93V187a5.71,5.71,0,0,0-2-1.76,5.21,5.21,0,0,0-2.5-.59,5.54,5.54,0,0,0-4.1,1.72,5.68,5.68,0,0,0-1.7,4.15,5.83,5.83,0,0,0,1.68,4.21,5.5,5.5,0,0,0,4.07,1.72,5.57,5.57,0,0,0,2.48-.55,6.2,6.2,0,0,0,2-1.66v1.93h1.43V184.93Zm-.48,8a4.16,4.16,0,0,1-1.63,1.62,4.61,4.61,0,0,1-2.25.59,4.31,4.31,0,0,1-2.2-.6,4.39,4.39,0,0,1-1.63-1.68,4.56,4.56,0,0,1,0-4.54,4.41,4.41,0,0,1,1.63-1.66A4.3,4.3,0,0,1,269,186a4.26,4.26,0,0,1,3.16,1.31,4.46,4.46,0,0,1,1.29,3.26A4.54,4.54,0,0,1,272.88,192.9Z"/><polygon class="cls-1" points="107.12 177.67 91.71 168.77 94.39 167.23 93.97 166.51 91.09 168.17 91.3 168.53 91.29 186.81 75.93 177.94 75.93 176.18 75.1 176.18 75.1 177.88 61.63 185.66 61.62 185.63 59.65 186.77 59.65 168.53 59.65 168.53 59.86 168.18 57.01 166.46 56.58 167.17 59.23 168.77 43.82 177.67 43.82 195.91 41.44 197.29 41.85 198.01 44.62 196.41 59.65 205.08 75.47 195.94 75.85 196.16 75.1 196.16 75.1 199.49 75.93 199.49 75.93 196.21 91.29 205.08 107.12 195.94 107.12 177.67"/><path class="cls-1" d="M121.21,152h-2.66c0-.23,0-.44,0-.64a13.07,13.07,0,0,0-.25-1.88,1.94,1.94,0,0,0-1.74-1.45c-.58-.08-.87.11-1,.65s-.12.82-.17,1.24a2.07,2.07,0,0,1-1.64,2.05,1.06,1.06,0,0,0-1-.41h-1.13a.91.91,0,0,0-1,.9v4.43l-2.28,1.32.41.72,1.87-1.08v.78a.91.91,0,0,0,1,.9h1.07c.82,0,1.07-.19,1.24-.88h.84c1.66,0,3.32,0,5,0a1.4,1.4,0,0,0,1.42-.89c.13-.3.24-.62.35-.93.37-1,.75-2,1.09-3A1.34,1.34,0,0,0,121.21,152Zm.52,1.53c-.32.95-.67,1.89-1,2.83-.13.35-.26.71-.4,1.06a.51.51,0,0,1-.55.35c-1.75,0-3.49,0-5.24,0-.48,0-.61-.13-.61-.6,0-1.25,0-2.51,0-3.76a.65.65,0,0,1,.42-.66,2.06,2.06,0,0,1,.26-.12,2.45,2.45,0,0,0,1.63-2c.11-.5.16-1,.24-1.53a1.55,1.55,0,0,1,0-.17.93.93,0,0,1,.84.61,5.22,5.22,0,0,1,.28,1.23,11.82,11.82,0,0,1,0,1.46c0,.51.13.66.65.66h3C121.69,152.86,121.88,153.07,121.73,153.5Z"/><path class="cls-1" d="M72.26,134.36c1.84,0,3.68,0,5.52,0a.91.91,0,0,1,.45.16l3.19,2.53.3.22v-8.93a2.4,2.4,0,0,0-2.17-2.6l0,0H71.91a2.72,2.72,0,0,0-1.51.73,2.25,2.25,0,0,0-.71,1.64v3.81A2.44,2.44,0,0,0,72.26,134.36Zm6.94-2.9H74.72v-.93H79.2Zm-6.48-2.85H79.2v.92H72.72Z"/><path class="cls-1" d="M39.86,197.56h-10a1,1,0,0,0-1.05.61V205a1,1,0,0,0,1.05.61h0c3.39,0,6.77,0,10,0h0a1,1,0,0,0,1-.61v-6.83A1,1,0,0,0,39.86,197.56Zm.12,7.13H29.75v-5.77l4.69,3.28a.58.58,0,0,0,.85,0L39.93,199l0,0Z"/><path class="cls-1" d="M122.17,199.16l-.07,0v0a4.11,4.11,0,0,0,.21-.42.34.34,0,0,0-.29-.49.54.54,0,0,0-.27.06,4.48,4.48,0,0,1-1.12.44s0,0-.07,0l0,0a2.18,2.18,0,0,0-.31-.22,2.74,2.74,0,0,0-2.89,0,2.48,2.48,0,0,0-1.29,2.34H116l-.09,0-.41-.07a6.35,6.35,0,0,1-3-1.51c-.13-.12-.26-.26-.38-.38l-.19-.2a.41.41,0,0,0-.34-.13.4.4,0,0,0-.27.19,2.51,2.51,0,0,0-.14,2.33l.12.23a.31.31,0,0,0-.21.07.33.33,0,0,0-.15.3,2.56,2.56,0,0,0,.71,1.74l.2.23,0,0a.31.31,0,0,0-.07.37,2.59,2.59,0,0,0,1.36,1.51l.22.09a4.35,4.35,0,0,1-1.14.37,4.45,4.45,0,0,1-1.32.05.37.37,0,0,0-.42.24.34.34,0,0,0,.18.42,7,7,0,0,0,2.75,1,7.82,7.82,0,0,0,1.07.08,7.7,7.7,0,0,0,1.67-.19,6.8,6.8,0,0,0,5.37-6.66.1.1,0,0,1,0-.08l.09-.08c.2-.17.4-.36.59-.54s.21-.25.3-.37l.07-.09a.33.33,0,0,0,0-.43A.38.38,0,0,0,122.17,199.16Z"/><path class="cls-1" d="M32.48,160.34h4.79a3.66,3.66,0,0,0,3.51-2.71l1.55.94.43-.72-1.67-1-.22.35,0-.12v-5c0-.23-.08-.47-.15-.7a3.65,3.65,0,0,0-3.15-2.54l-.12,0H32.25l-.59.1a3.56,3.56,0,0,0-2.82,3.4q0,2.26,0,4.53A3.61,3.61,0,0,0,32.48,160.34Zm5.61-9.53a.69.69,0,0,1,.69.67.67.67,0,0,1-.7.67.68.68,0,0,1-.69-.67A.69.69,0,0,1,38.09,150.81Zm-3.17.76a3,3,0,1,1-3.17,3A3.11,3.11,0,0,1,34.92,151.57Z"/><rect class="cls-1" x="75.1" y="202.82" width="0.83" height="3.33"/><rect class="cls-1" x="75.1" y="209.48" width="0.83" height="3.33"/><rect class="cls-1" x="75.1" y="162.87" width="0.83" height="3.33"/><rect class="cls-1" x="75.1" y="142.89" width="0.83" height="3.33"/><rect class="cls-1" x="75.1" y="149.55" width="0.83" height="3.33"/><rect class="cls-1" x="75.1" y="136.23" width="0.83" height="3.33"/><rect class="cls-1" x="75.1" y="156.21" width="0.83" height="3.33"/><rect class="cls-1" x="75.1" y="169.52" width="0.83" height="3.33"/><rect class="cls-1" x="46.4" y="159.13" width="0.83" height="3.33" transform="matrix(0.52, -0.86, 0.86, 0.52, -115.03, 117.78)"/><rect class="cls-1" x="52.1" y="162.57" width="0.83" height="3.33" transform="matrix(0.52, -0.86, 0.86, 0.52, -115.22, 124.32)"/><rect class="cls-1" x="96.84" y="163.95" width="3.33" height="0.83" transform="translate(-68.98 71.26) rotate(-30)"/><rect class="cls-1" x="102.6" y="160.62" width="3.33" height="0.83" transform="translate(-66.54 73.7) rotate(-30)"/><rect class="cls-1" x="108.09" y="195.19" width="0.83" height="3.33" transform="translate(-115.59 179.37) rotate(-56.67)"/><path class="cls-1" d="M81.31,216.55H70.16c-.36,0-.5.14-.5.49v10.64c0,.34.14.48.51.48h5.41v-3.93H74v-2.75h1.61c0-.13,0-.26,0-.39s0-.22,0-.34a5.76,5.76,0,0,1,.06-.92,2.65,2.65,0,0,1,2.65-2.19c.38,0,.77,0,1.14,0l.57,0a.34.34,0,0,1,.36.37v1.82s0,.06,0,.1l0,.2-.21,0h-1a3.85,3.85,0,0,0-.48,0c-.15,0-.18.07-.19.18s0,.44,0,.66v.36h1.92L80,224.24H78.45v3.92h2.86c.34,0,.49-.14.49-.47V217C81.8,216.69,81.65,216.55,81.31,216.55Z"/></g></svg>