<svg xmlns="http://www.w3.org/2000/svg" viewBox="0 0 360 360"><defs><style>.cls-1{fill:#fff;}.cls-2{fill:none;stroke:#fff;stroke-linecap:round;stroke-linejoin:round;stroke-width:1.22px;}</style></defs><g id="Layer_5" data-name="Layer 5"><polyline class="cls-1" points="166.79 192.16 189.99 205.55 213.18 192.16 213.18 165.37 189.99 151.98 189.99 178.76 166.79 165.37"/><polyline class="cls-1" points="166.79 165.37 143.6 178.76 143.6 151.98 120.4 165.37 120.4 192.16 143.6 205.55 166.79 192.16"/><polygon class="cls-1" points="189.23 231.99 167.27 244.67 145.46 232.08 167.27 219.31 189.23 231.99"/><polygon class="cls-1" points="236.05 125.53 236.05 204.96 189.23 231.99 235.88 204.96 222.94 197.49 222.94 132.33 235.88 125.53 235.92 125.46 236.05 125.53"/><polygon class="cls-1" points="111.42 133 111.42 198.16 98.48 204.96 98.48 125.53 111.42 133"/><polygon class="cls-2" points="98.48 125.53 98.48 204.96 111.42 198.16 111.42 133 98.48 125.53"/><polyline class="cls-2" points="189.23 231.99 236.05 204.96 236.05 125.53 235.92 125.46 167.27 85.81 98.48 125.53"/><polygon class="cls-2" points="189.23 231.99 167.27 219.31 145.46 232.08 167.27 244.67 189.23 231.99"/><polyline class="cls-2" points="235.88 125.53 222.94 132.33 222.94 197.49 235.88 204.96 189.23 231.99"/></g></svg>