<?xml version="1.0" encoding="UTF-8"?>
<svg width="90px" height="116px" viewBox="0 0 90 116" version="1.1" xmlns="http://www.w3.org/2000/svg" xmlns:xlink="http://www.w3.org/1999/xlink">
    <!-- Generator: Sketch 53.2 (72643) - https://sketchapp.com -->
    <title>logos/SeMI/technologies/vertical/white</title>
    <desc>Created with Sketch.</desc>
    <g id="logos/SeMI/technologies/vertical/white" stroke="none" stroke-width="1" fill="none" fill-rule="evenodd">
        <g id="SeMI-Technologies-2" transform="translate(0.000000, 75.000000)" fill="#FFFFFF" fill-rule="nonzero">
            <path d="M23.6572266,-0.618164062 L20.625,2.0625 C19.5605416,0.578117578 18.476568,-0.1640625 17.3730469,-0.1640625 C16.8359348,-0.1640625 16.3964861,-0.0200209717 16.0546875,0.268066406 C15.7128889,0.556153784 15.5419922,0.880857568 15.5419922,1.2421875 C15.5419922,1.60351743 15.6640613,1.94531089 15.9082031,2.26757812 C16.240236,2.69726777 17.2412026,3.62011011 18.9111328,5.03613281 C20.4736406,6.34473311 21.4208968,7.16992017 21.7529297,7.51171875 C22.583012,8.3515667 23.171385,9.15478132 23.5180664,9.92138672 C23.8647478,10.6879921 24.0380859,11.5253861 24.0380859,12.4335938 C24.0380859,14.2011807 23.4277405,15.6611271 22.2070312,16.8134766 C20.986322,17.9658261 19.3945411,18.5419922 17.4316406,18.5419922 C15.8984298,18.5419922 14.562994,18.1660194 13.425293,17.4140625 C12.287592,16.6621056 11.3134806,15.4804768 10.5029297,13.8691406 L13.9453125,11.7890625 C14.9804739,13.6933689 16.1718683,14.6455078 17.5195312,14.6455078 C18.2226598,14.6455078 18.8134742,14.4404317 19.2919922,14.0302734 C19.7705102,13.6201151 20.0097656,13.1464871 20.0097656,12.609375 C20.0097656,12.1210913 19.8291034,11.6328149 19.4677734,11.1445312 C19.1064435,10.6562476 18.310553,9.90918472 17.0800781,8.90332031 C14.7363164,6.98924824 13.2226597,5.51221223 12.5390625,4.47216797 C11.8554653,3.43212371 11.5136719,2.39453643 11.5136719,1.359375 C11.5136719,-0.134773096 12.0825138,-1.41649856 13.2202148,-2.48583984 C14.3579158,-3.55518113 15.7617104,-4.08984375 17.4316406,-4.08984375 C18.5058647,-4.08984375 19.5288037,-3.8408228 20.5004883,-3.34277344 C21.4721728,-2.84472407 22.5244084,-1.93653003 23.6572266,-0.618164062 Z M43.4912109,11.1884766 L30.6445312,11.1884766 C30.8300791,12.3212947 31.3256796,13.2221646 32.1313477,13.8911133 C32.9370157,14.5600619 33.9648375,14.8945312 35.2148438,14.8945312 C36.7089918,14.8945312 37.9931587,14.3720755 39.0673828,13.3271484 L42.4365234,14.9091797 C41.5966755,16.1005919 40.5908262,16.9819307 39.4189453,17.5532227 C38.2470645,18.1245146 36.8554768,18.4101562 35.2441406,18.4101562 C32.7441281,18.4101562 30.7080157,17.6215899 29.1357422,16.0444336 C27.5634687,14.4672773 26.7773438,12.4921994 26.7773438,10.1191406 C26.7773438,7.68748784 27.5610273,5.66846506 29.128418,4.06201172 C30.6958086,2.45555837 32.661121,1.65234375 35.0244141,1.65234375 C37.5341922,1.65234375 39.5751875,2.45555837 41.1474609,4.06201172 C42.7197344,5.66846506 43.5058594,7.79002588 43.5058594,10.4267578 L43.4912109,11.1884766 Z M39.4775391,8.0390625 C39.2138659,7.15038618 38.6938515,6.42773716 37.9174805,5.87109375 C37.1411094,5.31445034 36.2402395,5.03613281 35.2148438,5.03613281 C34.1015569,5.03613281 33.1250042,5.34862969 32.2851562,5.97363281 C31.7578099,6.36425977 31.2695335,7.05272944 30.8203125,8.0390625 L39.4775391,8.0390625 Z M49.2480469,-3.54785156 L53.2617188,-3.54785156 L58.2421875,11.4814453 L63.2958984,-3.54785156 L67.2509766,-3.54785156 L70.8837891,18 L66.9287109,18 L64.6142578,4.39160156 L60.0292969,18 L56.4111328,18 L51.8847656,4.39160156 L49.5263672,18 L45.5273438,18 L49.2480469,-3.54785156 Z M73.8720703,-3.54785156 L77.9443359,-3.54785156 L77.9443359,18 L73.8720703,18 L73.8720703,-3.54785156 Z M0.682617188,26.921875 L0.682617188,25.9443359 L6.19921875,25.9443359 L6.19921875,26.921875 L3.95703125,26.921875 L3.95703125,36 L2.93164062,36 L2.93164062,26.921875 L0.682617188,26.921875 Z M13.7460938,33.5322266 L14.5527344,33.9560547 C14.2884101,34.4755885 13.9830746,34.8948552 13.6367188,35.2138672 C13.2903629,35.5328792 12.9007183,35.7755526 12.4677734,35.9418945 C12.0348286,36.1082365 11.5449246,36.1914062 10.9980469,36.1914062 C9.78580123,36.1914062 8.83789404,35.7937865 8.15429688,34.9985352 C7.47069971,34.2032838 7.12890625,33.304367 7.12890625,32.3017578 C7.12890625,31.3583937 7.41829138,30.5175818 7.99707031,29.7792969 C8.73079794,28.8404901 9.71288447,28.3710938 10.9433594,28.3710938 C12.2102928,28.3710938 13.2220014,28.8518832 13.9785156,29.8134766 C14.5162787,30.4925164 14.7897135,31.3401642 14.7988281,32.3564453 L8.11328125,32.3564453 C8.13151051,33.2223351 8.4072239,33.9321261 8.94042969,34.4858398 C9.47363548,35.0395535 10.1321575,35.3164062 10.9160156,35.3164062 C11.2942727,35.3164062 11.6622703,35.2503262 12.0200195,35.1181641 C12.3777687,34.9860019 12.6819649,34.810548 12.9326172,34.5917969 C13.1832695,34.3730458 13.4544256,34.0198592 13.7460938,33.5322266 Z M13.7460938,31.5292969 C13.6184889,31.0188777 13.4327812,30.6110041 13.1889648,30.3056641 C12.9451485,30.000324 12.6227234,29.7542327 12.2216797,29.5673828 C11.820636,29.3805329 11.3990908,29.2871094 10.9570312,29.2871094 C10.2278609,29.2871094 9.6012396,29.5218075 9.07714844,29.9912109 C8.69433402,30.3330095 8.4049489,30.8456997 8.20898438,31.5292969 L13.7460938,31.5292969 Z M23.8017578,30.1074219 L23.0429688,30.5791016 C22.3867155,29.7086545 21.4912166,29.2734375 20.3564453,29.2734375 C19.4495397,29.2734375 18.6964548,29.5651012 18.097168,30.1484375 C17.4978811,30.7317738 17.1982422,31.4404255 17.1982422,32.2744141 C17.1982422,32.8167345 17.3360989,33.327146 17.6118164,33.8056641 C17.8875339,34.2841821 18.2657854,34.6555976 18.746582,34.9199219 C19.2273787,35.1842461 19.7662731,35.3164062 20.3632812,35.3164062 C21.4570367,35.3164062 22.350257,34.8811892 23.0429688,34.0107422 L23.8017578,34.5097656 C23.4462873,35.0429714 22.9689158,35.4565415 22.3696289,35.7504883 C21.7703421,36.0444351 21.0878945,36.1914062 20.3222656,36.1914062 C19.1464785,36.1914062 18.1712278,35.8177121 17.3964844,35.0703125 C16.6217409,34.3229129 16.234375,33.4137423 16.234375,32.3427734 C16.234375,31.6227178 16.4155255,30.9539419 16.777832,30.3364258 C17.1401385,29.7189097 17.6380177,29.2369809 18.2714844,28.890625 C18.9049511,28.5442691 19.6136029,28.3710938 20.3974609,28.3710938 C20.8896509,28.3710938 21.3647438,28.4462883 21.8227539,28.5966797 C22.280764,28.7470711 22.6692692,28.9430326 22.9882812,29.1845703 C23.3072933,29.426108 23.5784494,29.7337221 23.8017578,30.1074219 Z M25.640625,25.6914062 L26.5976562,25.6914062 L26.5976562,29.8955078 C26.985028,29.3850886 27.4111305,29.0034192 27.8759766,28.7504883 C28.3408226,28.4975573 28.8443983,28.3710938 29.3867188,28.3710938 C29.9427111,28.3710938 30.436033,28.5123684 30.8666992,28.7949219 C31.2973654,29.0774754 31.6152333,29.4568661 31.8203125,29.9331055 C32.0253917,30.4093448 32.1279297,31.1555939 32.1279297,32.171875 L32.1279297,36 L31.1708984,36 L31.1708984,32.4521484 C31.1708984,31.5953733 31.1367191,31.0234389 31.0683594,30.7363281 C30.9498692,30.2441382 30.7345393,29.8738619 30.4223633,29.6254883 C30.1101872,29.3771146 29.7011744,29.2529297 29.1953125,29.2529297 C28.6165336,29.2529297 28.0981468,29.444334 27.6401367,29.8271484 C27.1821266,30.2099629 26.8802091,30.6839164 26.734375,31.2490234 C26.6432287,31.6136086 26.5976562,32.288081 26.5976562,33.2724609 L26.5976562,36 L25.640625,36 L25.640625,25.6914062 Z M34.1787109,28.5625 L35.1357422,28.5625 L35.1357422,29.8955078 C35.5185566,29.3850886 35.9423805,29.0034192 36.4072266,28.7504883 C36.8720726,28.4975573 37.377927,28.3710938 37.9248047,28.3710938 C38.4807971,28.3710938 38.9741189,28.5123684 39.4047852,28.7949219 C39.8354514,29.0774754 40.1533193,29.4580054 40.3583984,29.9365234 C40.5634776,30.4150415 40.6660156,31.1601512 40.6660156,32.171875 L40.6660156,36 L39.7158203,36 L39.7158203,32.4521484 C39.7158203,31.5953733 39.6793623,31.0234389 39.6064453,30.7363281 C39.4925125,30.2441382 39.2783219,29.8738619 38.9638672,29.6254883 C38.6494125,29.3771146 38.2392603,29.2529297 37.7333984,29.2529297 C37.1546195,29.2529297 36.6362328,29.444334 36.1782227,29.8271484 C35.7202126,30.2099629 35.418295,30.6839164 35.2724609,31.2490234 C35.1813146,31.6181659 35.1357422,32.2926383 35.1357422,33.2724609 L35.1357422,36 L34.1787109,36 L34.1787109,28.5625 Z M46.2373047,28.3710938 C47.3811906,28.3710938 48.3290978,28.7858031 49.0810547,29.6152344 C49.7646519,30.3717486 50.1064453,31.2672474 50.1064453,32.3017578 C50.1064453,33.3408255 49.7452836,34.2488568 49.0229492,35.0258789 C48.3006149,35.802901 47.372076,36.1914062 46.2373047,36.1914062 C45.0979761,36.1914062 44.1671586,35.802901 43.4448242,35.0258789 C42.7224899,34.2488568 42.3613281,33.3408255 42.3613281,32.3017578 C42.3613281,31.2718047 42.7031216,30.3785845 43.3867188,29.6220703 C44.1386756,28.7880818 45.0888614,28.3710938 46.2373047,28.3710938 Z M46.2373047,29.3076172 C45.444332,29.3076172 44.7630237,29.6015596 44.1933594,30.1894531 C43.6236951,30.7773467 43.3388672,31.4882771 43.3388672,32.3222656 C43.3388672,32.8600287 43.4687487,33.3613258 43.7285156,33.8261719 C43.9882825,34.2910179 44.3391905,34.6499011 44.78125,34.902832 C45.2233095,35.155763 45.7086562,35.2822266 46.2373047,35.2822266 C46.7659532,35.2822266 47.2512999,35.155763 47.6933594,34.902832 C48.1354189,34.6499011 48.4863268,34.2910179 48.7460938,33.8261719 C49.0058607,33.3613258 49.1357422,32.8600287 49.1357422,32.3222656 C49.1357422,31.4882771 48.849775,30.7773467 48.277832,30.1894531 C47.7058891,29.6015596 47.0257201,29.3076172 46.2373047,29.3076172 Z M51.7402344,25.6914062 L52.6972656,25.6914062 L52.6972656,36 L51.7402344,36 L51.7402344,25.6914062 Z M58.2070312,28.3710938 C59.3509172,28.3710938 60.2988244,28.7858031 61.0507812,29.6152344 C61.7343784,30.3717486 62.0761719,31.2672474 62.0761719,32.3017578 C62.0761719,33.3408255 61.7150101,34.2488568 60.9926758,35.0258789 C60.2703414,35.802901 59.3418025,36.1914062 58.2070312,36.1914062 C57.0677026,36.1914062 56.1368851,35.802901 55.4145508,35.0258789 C54.6922164,34.2488568 54.3310547,33.3408255 54.3310547,32.3017578 C54.3310547,31.2718047 54.6728481,30.3785845 55.3564453,29.6220703 C56.1084022,28.7880818 57.058588,28.3710938 58.2070312,28.3710938 Z M58.2070312,29.3076172 C57.4140585,29.3076172 56.7327502,29.6015596 56.1630859,30.1894531 C55.5934216,30.7773467 55.3085938,31.4882771 55.3085938,32.3222656 C55.3085938,32.8600287 55.4384753,33.3613258 55.6982422,33.8261719 C55.9580091,34.2910179 56.3089171,34.6499011 56.7509766,34.902832 C57.1930361,35.155763 57.6783828,35.2822266 58.2070312,35.2822266 C58.7356797,35.2822266 59.2210264,35.155763 59.6630859,34.902832 C60.1051454,34.6499011 60.4560534,34.2910179 60.7158203,33.8261719 C60.9755872,33.3613258 61.1054688,32.8600287 61.1054688,32.3222656 C61.1054688,31.4882771 60.8195016,30.7773467 60.2475586,30.1894531 C59.6756156,29.6015596 58.9954467,29.3076172 58.2070312,29.3076172 Z M70.2587891,28.5625 L71.2226562,28.5625 L71.2226562,34.4892578 C71.2226562,35.5328828 71.1315113,36.2962215 70.9492188,36.7792969 C70.6985665,37.462894 70.2633495,37.989256 69.6435547,38.3583984 C69.0237599,38.7275409 68.2786502,38.9121094 67.4082031,38.9121094 C66.7701791,38.9121094 66.1971054,38.8221038 65.6889648,38.6420898 C65.1808243,38.4620759 64.7672542,38.2205419 64.4482422,37.9174805 C64.1292302,37.6144191 63.8352878,37.1712269 63.5664062,36.5878906 L64.6054688,36.5878906 C64.8880222,37.0800806 65.2526019,37.4446603 65.6992188,37.6816406 C66.1458356,37.918621 66.699541,38.0371094 67.3603516,38.0371094 C68.0120475,38.0371094 68.562335,37.915203 69.0112305,37.6713867 C69.4601259,37.4275704 69.7802725,37.1210956 69.9716797,36.7519531 C70.1630869,36.3828107 70.2587891,35.78809 70.2587891,34.9677734 L70.2587891,34.5849609 C69.8987612,35.0406924 69.458987,35.390461 68.9394531,35.6342773 C68.4199193,35.8780937 67.8684925,36 67.2851562,36 C66.6015591,36 65.9589874,35.8302426 65.3574219,35.4907227 C64.7558564,35.1512027 64.2910173,34.6943388 63.9628906,34.1201172 C63.634764,33.5458956 63.4707031,32.914717 63.4707031,32.2265625 C63.4707031,31.538408 63.6415999,30.8969756 63.9833984,30.3022461 C64.325197,29.7075166 64.7980113,29.2369809 65.4018555,28.890625 C66.0056996,28.5442691 66.6425748,28.3710938 67.3125,28.3710938 C67.8684924,28.3710938 68.3868791,28.4861642 68.8676758,28.7163086 C69.3484725,28.946453 69.8121722,29.3258437 70.2587891,29.8544922 L70.2587891,28.5625 Z M67.4355469,29.2939453 C66.8932265,29.2939453 66.3896508,29.4249661 65.9248047,29.6870117 C65.4599586,29.9490573 65.0953789,30.3113584 64.8310547,30.7739258 C64.5667304,31.2364932 64.4345703,31.736651 64.4345703,32.2744141 C64.4345703,33.0901733 64.7080051,33.7646458 65.2548828,34.2978516 C65.8017605,34.8310574 66.5104123,35.0976562 67.3808594,35.0976562 C68.2604211,35.0976562 68.9679335,34.833336 69.503418,34.3046875 C70.0389024,33.776039 70.3066406,33.081059 70.3066406,32.2197266 C70.3066406,31.6591769 70.183595,31.1590191 69.9375,30.7192383 C69.691405,30.2794574 69.3427757,29.9319674 68.8916016,29.6767578 C68.4404274,29.4215482 67.9550807,29.2939453 67.4355469,29.2939453 Z M73.6083984,25.5 C73.8271495,25.5 74.0139966,25.5774732 74.1689453,25.7324219 C74.323894,25.8873706 74.4013672,26.0742177 74.4013672,26.2929688 C74.4013672,26.5071625 74.323894,26.691731 74.1689453,26.8466797 C74.0139966,27.0016284 73.8271495,27.0791016 73.6083984,27.0791016 C73.3942047,27.0791016 73.2096362,27.0016284 73.0546875,26.8466797 C72.8997388,26.691731 72.8222656,26.5071625 72.8222656,26.2929688 C72.8222656,26.0742177 72.8997388,25.8873706 73.0546875,25.7324219 C73.2096362,25.5774732 73.3942047,25.5 73.6083984,25.5 Z M73.1298828,28.5625 L74.09375,28.5625 L74.09375,36 L73.1298828,36 L73.1298828,28.5625 Z M82.3378906,33.5322266 L83.1445312,33.9560547 C82.880207,34.4755885 82.5748715,34.8948552 82.2285156,35.2138672 C81.8821597,35.5328792 81.4925152,35.7755526 81.0595703,35.9418945 C80.6266254,36.1082365 80.1367215,36.1914062 79.5898438,36.1914062 C78.3775981,36.1914062 77.4296909,35.7937865 76.7460938,34.9985352 C76.0624966,34.2032838 75.7207031,33.304367 75.7207031,32.3017578 C75.7207031,31.3583937 76.0100883,30.5175818 76.5888672,29.7792969 C77.3225948,28.8404901 78.3046813,28.3710938 79.5351562,28.3710938 C80.8020897,28.3710938 81.8137983,28.8518832 82.5703125,29.8134766 C83.1080756,30.4925164 83.3815104,31.3401642 83.390625,32.3564453 L76.7050781,32.3564453 C76.7233074,33.2223351 76.9990208,33.9321261 77.5322266,34.4858398 C78.0654324,35.0395535 78.7239544,35.3164062 79.5078125,35.3164062 C79.8860696,35.3164062 80.2540672,35.2503262 80.6118164,35.1181641 C80.9695656,34.9860019 81.2737618,34.810548 81.5244141,34.5917969 C81.7750664,34.3730458 82.0462225,34.0198592 82.3378906,33.5322266 Z M82.3378906,31.5292969 C82.2102858,31.0188777 82.024578,30.6110041 81.7807617,30.3056641 C81.5369454,30.000324 81.2145202,29.7542327 80.8134766,29.5673828 C80.4124329,29.3805329 79.9908876,29.2871094 79.5488281,29.2871094 C78.8196578,29.2871094 78.1930365,29.5218075 77.6689453,29.9912109 C77.2861309,30.3330095 76.9967458,30.8456997 76.8007812,31.5292969 L82.3378906,31.5292969 Z M88.9140625,29.3759766 L88.2988281,30.0117188 C87.7884089,29.5149715 87.2893905,29.2666016 86.8017578,29.2666016 C86.4918604,29.2666016 86.2264008,29.3691396 86.0053711,29.5742188 C85.7843413,29.7792979 85.6738281,30.0185533 85.6738281,30.2919922 C85.6738281,30.5335299 85.764973,30.7636708 85.9472656,30.9824219 C86.1295582,31.2057303 86.5123669,31.4677719 87.0957031,31.7685547 C87.8066442,32.1376972 88.2897123,32.4931624 88.5449219,32.8349609 C88.7955742,33.1813168 88.9208984,33.5709614 88.9208984,34.0039062 C88.9208984,34.6145864 88.7067079,35.1318338 88.2783203,35.5556641 C87.8499328,35.9794943 87.3144563,36.1914062 86.671875,36.1914062 C86.2434874,36.1914062 85.8344746,36.0979827 85.4448242,35.9111328 C85.0551738,35.7242829 84.7327487,35.4667985 84.4775391,35.1386719 L85.0791016,34.4550781 C85.5667342,35.0065132 86.0839816,35.2822266 86.6308594,35.2822266 C87.0136738,35.2822266 87.3395169,35.1591809 87.6083984,34.9130859 C87.87728,34.666991 88.0117188,34.3776058 88.0117188,34.0449219 C88.0117188,33.771483 87.9228525,33.5276703 87.7451172,33.3134766 C87.5673819,33.1038401 87.1663443,32.8395198 86.5419922,32.5205078 C85.872067,32.1741519 85.4163424,31.8323585 85.1748047,31.4951172 C84.933267,31.1578759 84.8125,30.7727886 84.8125,30.3398438 C84.8125,29.7747368 85.0050436,29.3053404 85.3901367,28.9316406 C85.7752298,28.5579408 86.2617158,28.3710938 86.8496094,28.3710938 C87.5332065,28.3710938 88.2213507,28.7060513 88.9140625,29.3759766 Z" id="SeMITechnologies"></path>
        </g>
        <g id="Group" transform="translate(20.000000, 0.000000)">
            <polygon id="Path" fill="#B3B3B3" points="0 14.7225 0 44.1675 12.75 51.525 12.75 36.8025 25.5 29.445"></polygon>
            <polygon id="Path" fill="#FFFFFF" points="38.25 7.365 25.5 4.61852778e-14 0 14.7225 12.75 22.0875"></polygon>
            <polygon id="Path" fill="#FFFFFF" points="51 44.1675 38.25 36.8025 12.75 51.525 25.5 58.89"></polygon>
            <polygon id="Path" fill="#B3B3B3" points="51 44.1675 51 14.7225 38.25 7.365 38.25 22.0875 25.5 29.445"></polygon>
        </g>
    </g>
</svg>