<?xml version="1.0" encoding="UTF-8"?>
<svg width="120px" height="135px" viewBox="0 0 120 135" version="1.1" xmlns="http://www.w3.org/2000/svg" xmlns:xlink="http://www.w3.org/1999/xlink">
    <!-- Generator: Sketch 53.2 (72643) - https://sketchapp.com -->
    <title>logos/consulting/vertical/color copy</title>
    <desc>Created with Sketch.</desc>
    <defs>
        <linearGradient x1="-2.22044605e-14%" y1="50%" x2="100%" y2="50%" id="linearGradient-1">
            <stop stop-color="#364A68" offset="0%"></stop>
            <stop stop-color="#FA0171" offset="100%"></stop>
        </linearGradient>
        <linearGradient x1="-2.22044605e-14%" y1="50%" x2="100%" y2="50%" id="linearGradient-2">
            <stop stop-color="#364A68" offset="0%"></stop>
            <stop stop-color="#FA0171" offset="100%"></stop>
        </linearGradient>
    </defs>
    <g id="logos/consulting/vertical/color-copy" stroke="none" stroke-width="1" fill="none" fill-rule="evenodd">
        <g id="logomark" transform="translate(36.000000, 0.000000)">
            <polygon id="Fill-23" fill="#EC1871" points="23.377378 27.5646075 23.377378 54.6164075 -0.000102362204 41.0792325"></polygon>
            <polygon id="Fill-24" fill="#C3094A" points="23.377378 27.5646075 23.377378 54.6164075 46.7517874 41.0792325"></polygon>
            <polygon id="Fill-26" fill="url(#linearGradient-1)" points="23.3774803 0.5130125 0 14.0276375 0 41.0794375 46.7518898 14.0276375"></polygon>
            <polygon id="Fill-29" fill="url(#linearGradient-2)" points="0 68.1312375 23.3774803 81.6684125 46.7529134 68.142 46.7529134 41.0902"></polygon>
        </g>
        <g id="sol-eng" transform="translate(0.000000, 92.000000)" fill="#00152B">
            <path d="M19.3424444,13.8863554 L20.6446667,13.1176892 C21.5611111,14.7778859 22.6202222,15.6082028 23.8215556,15.6082028 C24.3353333,15.6082028 24.818,15.4901483 25.2695556,15.2544764 C25.7211111,15.0188046 26.0646667,14.7026807 26.3006667,14.3065422 C26.5366667,13.9104036 26.6548889,13.4902168 26.6548889,13.045982 C26.6548889,12.5405336 26.4811111,12.0451418 26.134,11.5602436 C25.6548889,10.8903934 24.7797778,10.0845618 23.5091111,9.14143718 C22.2313333,8.19219119 21.4362222,7.50528863 21.1237778,7.08160398 C20.582,6.37152775 20.3113333,5.60286149 20.3113333,4.77604243 C20.3113333,4.12018385 20.4708889,3.52247805 20.7904444,2.98292506 C21.11,2.44293482 21.5593333,2.01750122 22.1393333,1.70706149 C22.7193333,1.39618452 23.3495556,1.24052741 24.03,1.24052741 C24.7522222,1.24052741 25.4273333,1.41629752 26.0557778,1.76827496 C26.6846667,2.1202524 27.3495556,2.7673662 28.0508889,3.71049085 L26.8006667,4.64268452 C26.2242222,3.89150782 25.7331111,3.39611597 25.3268889,3.1569462 C24.9206667,2.91777644 24.478,2.79841018 23.9988889,2.79841018 C23.3806667,2.79841018 22.8753333,2.98292506 22.4828889,3.35151758 C22.0908889,3.72054735 21.8944444,4.17483873 21.8944444,4.71439172 C21.8944444,5.04232102 21.9637778,5.36019381 22.1028889,5.66757287 C22.2415556,5.97495193 22.4953333,6.30987704 22.8633333,6.67191098 C23.0646667,6.86342169 23.7242222,7.36537213 24.8424444,8.17819954 C26.1686667,9.14143718 27.0784444,9.99886297 27.5717778,10.7504769 C28.0646667,11.5020908 28.3113333,12.2567655 28.3113333,13.0153752 C28.3113333,14.1084729 27.8891111,15.0581561 27.0455556,15.8639877 C26.202,16.6702565 25.1757778,17.0733909 23.9673333,17.0733909 C23.0371111,17.0733909 22.1931111,16.8289743 21.4362222,16.3405783 C20.6793333,15.8521822 19.9811111,15.034108 19.3424444,13.8863554" id="Fill-1"></path>
            <path d="M36.7773333,6.66167959 C35.5644444,6.66167959 34.5231111,7.10241656 33.6515556,7.98345326 C32.7808889,8.8649272 32.3448889,9.93091602 32.3448889,11.1809825 C32.3448889,11.9872513 32.544,12.738428 32.9408889,13.4353871 C33.3382222,14.1323461 33.8746667,14.6701502 34.5506667,15.0496737 C35.2266667,15.4287599 35.9688889,15.6180844 36.7773333,15.6180844 C37.5853333,15.6180844 38.3275556,15.4287599 39.004,15.0496737 C39.6795556,14.6701502 40.2164444,14.1323461 40.6137778,13.4353871 C41.0106667,12.738428 41.2097778,11.9872513 41.2097778,11.1809825 C41.2097778,9.93091602 40.772,8.8649272 39.8977778,7.98345326 C39.0231111,7.10241656 37.9831111,6.66167959 36.7773333,6.66167959 M36.7826667,5.25770498 C38.5284444,5.25770498 39.9755556,5.87945892 41.1235556,7.12296679 C42.1671111,8.25672767 42.6888889,9.59948881 42.6888889,11.1503758 C42.6888889,12.7078213 42.1377778,14.0689465 41.0346667,15.2337513 C39.9324444,16.3989934 38.5146667,16.9813958 36.7826667,16.9813958 C35.0435556,16.9813958 33.6222222,16.3989934 32.52,15.2337513 C31.4168889,14.0689465 30.8657778,12.7078213 30.8657778,11.1503758 C30.8657778,9.6060474 31.3875556,8.26722141 32.4311111,7.13302329 C33.5791111,5.88295683 35.0293333,5.25770498 36.7826667,5.25770498" id="Fill-3"></path>
            <polygon id="Fill-5" points="45.2746667 16.6944358 46.7328889 16.6944358 46.7328889 1.24065859 45.2746667 1.24065859"></polygon>
            <path d="M49.6831556,5.54466497 L51.1413778,5.54466497 L51.1413778,10.7504332 C51.1413778,12.0214871 51.2111556,12.895528 51.3502667,13.3738675 C51.5591556,14.0572722 51.9569333,14.5968252 52.5444889,14.9929638 C53.1324889,15.3895396 53.8329333,15.5876089 54.6467111,15.5876089 C55.4604889,15.5876089 56.1507111,15.3943492 56.7173778,15.0087044 C57.2844889,14.6226223 57.6751556,14.115425 57.8911556,13.4866752 C58.0373778,13.056432 58.1102667,12.1443513 58.1102667,10.7504332 L58.1102667,5.54466497 L59.5996,5.54466497 L59.5996,11.017149 C59.5996,12.5540443 59.4173778,13.7122906 59.0529333,14.4910133 C58.6884889,15.2697361 58.1396,15.8796846 57.4071556,16.3204215 C56.6742667,16.7607213 55.7560444,16.9810898 54.6520444,16.9810898 C53.5476,16.9810898 52.6258222,16.7607213 51.8862667,16.3204215 C51.1467111,15.8796846 50.5947111,15.2644892 50.2298222,14.47571 C49.8653778,13.6864935 49.6831556,12.4993894 49.6831556,10.9143978 L49.6831556,5.54466497 Z" id="Fill-7"></path>
            <polygon id="Fill-8" points="64.2170222 1.40457951 65.6752444 1.40457951 65.6752444 5.54479614 67.9876889 5.54479614 67.9876889 6.78480611 65.6752444 6.78480611 65.6752444 16.6943921 64.2170222 16.6943921 64.2170222 6.78480611 62.2272444 6.78480611 62.2272444 5.54479614 64.2170222 5.54479614"></polygon>
            <path d="M70.0635556,16.6944358 L71.5217778,16.6944358 L71.5217778,5.54483987 L70.0635556,5.54483987 L70.0635556,16.6944358 Z M70.7871111,0.953829764 C71.1195556,0.953829764 71.4026667,1.06969811 71.6377778,1.30187205 C71.8728889,1.53448323 71.9906667,1.81431623 71.9906667,2.14224552 C71.9906667,2.46361623 71.8728889,2.74038855 71.6377778,2.97256249 C71.4026667,3.20473643 71.1195556,3.32104202 70.7871111,3.32104202 C70.4622222,3.32104202 70.1822222,3.20473643 69.9471111,2.97256249 C69.7124444,2.74038855 69.5946667,2.46361623 69.5946667,2.14224552 C69.5946667,1.81431623 69.7124444,1.53448323 69.9471111,1.30187205 C70.1822222,1.06969811 70.4622222,0.953829764 70.7871111,0.953829764 L70.7871111,0.953829764 Z" id="Fill-9"></path>
            <path d="M80.0191111,6.66167959 C78.8062222,6.66167959 77.7648889,7.10241656 76.8933333,7.98345326 C76.0226667,8.8649272 75.5866667,9.93091602 75.5866667,11.1809825 C75.5866667,11.9872513 75.7857778,12.738428 76.1826667,13.4353871 C76.58,14.1323461 77.1164444,14.6701502 77.7924444,15.0496737 C78.4684444,15.4287599 79.2106667,15.6180844 80.0191111,15.6180844 C80.8271111,15.6180844 81.5693333,15.4287599 82.2457778,15.0496737 C82.9213333,14.6701502 83.4582222,14.1323461 83.8555556,13.4353871 C84.2524444,12.738428 84.4515556,11.9872513 84.4515556,11.1809825 C84.4515556,9.93091602 84.0137778,8.8649272 83.1395556,7.98345326 C82.2648889,7.10241656 81.2248889,6.66167959 80.0191111,6.66167959 M80.0244444,5.25770498 C81.7702222,5.25770498 83.2173333,5.87945892 84.3653333,7.12296679 C85.4088889,8.25672767 85.9306667,9.59948881 85.9306667,11.1503758 C85.9306667,12.7078213 85.3795556,14.0689465 84.2764444,15.2337513 C83.1742222,16.3989934 81.7564444,16.9813958 80.0244444,16.9813958 C78.2853333,16.9813958 76.864,16.3989934 75.7617778,15.2337513 C74.6586667,14.0689465 74.1075556,12.7078213 74.1075556,11.1503758 C74.1075556,9.6060474 74.6293333,8.26722141 75.6728889,7.13302329 C76.8208889,5.88295683 78.2711111,5.25770498 80.0244444,5.25770498" id="Fill-10"></path>
            <path d="M88.7348,5.54466497 L90.1930222,5.54466497 L90.1930222,7.54284746 C90.7765778,6.77767911 91.4223556,6.20577042 92.1308,5.82668416 C92.8388,5.44716066 93.6099111,5.25783615 94.4432444,5.25783615 C95.2903556,5.25783615 96.0419111,5.46945985 96.6983556,5.8931445 C97.3548,6.31682914 97.8388,6.88698888 98.1512444,7.60449817 C98.4641333,8.32200746 98.6201333,9.43871601 98.6201333,10.9554983 L98.6201333,16.6942609 L97.1619111,16.6942609 L97.1619111,11.375685 C97.1619111,10.0910767 97.1076889,9.23408813 96.9996889,8.80340766 C96.8308,8.06578537 96.5063556,7.51049177 96.0272444,7.13840133 C95.5481333,6.76587366 94.9232444,6.57960982 94.1521333,6.57960982 C93.2699111,6.57960982 92.4796889,6.86643864 91.7814667,7.44053352 C91.0836889,8.01419116 90.6236889,8.72470463 90.4014667,9.57207393 C90.2628,10.1256186 90.1930222,11.1365153 90.1930222,12.6052013 L90.1930222,16.6942609 L88.7348,16.6942609 L88.7348,5.54466497 Z" id="Fill-11"></path>
            <polygon id="Fill-12" points="0 22.6072633 8.78133333 22.6072633 8.78133333 24.0829451 1.53111111 24.0829451 1.53111111 28.8073132 8.71866667 28.8073132 8.71866667 30.282995 1.53111111 30.282995 1.53111111 36.2062725 8.71866667 36.2062725 8.71866667 37.6819543 0 37.6819543"></polygon>
            <path d="M11.2942667,26.5321397 L12.7524889,26.5321397 L12.7524889,28.5303222 C13.3360444,27.7651539 13.9818222,27.1932452 14.6902667,26.8141589 C15.3982667,26.4346354 16.1693778,26.2453109 17.0027111,26.2453109 C17.8498222,26.2453109 18.6013778,26.4569346 19.2578222,26.8806192 C19.9142667,27.3043039 20.3982667,27.8744636 20.7107111,28.5919729 C21.0236,29.3094822 21.1796,30.4261908 21.1796,31.9429731 L21.1796,37.6817357 L19.7213778,37.6817357 L19.7213778,32.3631598 C19.7213778,31.0785514 19.6671556,30.2215629 19.5591556,29.7908824 C19.3902667,29.0532601 19.0658222,28.4979665 18.5867111,28.1258761 C18.1076,27.7533484 17.4827111,27.5670846 16.7116,27.5670846 C15.8293778,27.5670846 15.0391556,27.8539134 14.3409333,28.4280083 C13.6431556,29.0016659 13.1831556,29.7121794 12.9609333,30.5595487 C12.8222667,31.1130933 12.7524889,32.12399 12.7524889,33.592676 L12.7524889,37.6817357 L11.2942667,37.6817357 L11.2942667,26.5321397 Z" id="Fill-13"></path>
            <path d="M29.8802222,27.6286478 C29.054,27.6286478 28.2864444,27.8249682 27.578,28.2180461 C26.87,28.6106867 26.3144444,29.1537377 25.9113333,29.8471988 C25.5086667,30.5406599 25.3073333,31.2905249 25.3073333,32.0967938 C25.3073333,33.3197514 25.7237778,34.3306481 26.5571111,35.1299211 C27.3904444,35.9291941 28.4704444,36.3288306 29.7971111,36.3288306 C31.1371111,36.3288306 32.2153333,35.932692 33.0313333,35.1404148 C33.8473333,34.3477004 34.2553333,33.3057597 34.2553333,32.0145928 C34.2553333,31.1742193 34.0677778,30.4247916 33.6926667,29.7654351 C33.3175556,29.1060786 32.7864444,28.5853269 32.0988889,28.2023055 C31.4113333,27.8197213 30.6717778,27.6286478 29.8802222,27.6286478 L29.8802222,27.6286478 Z M34.1824444,26.5320523 L35.6406667,26.5320523 L35.6406667,35.4167499 C35.6406667,36.9816285 35.5015556,38.1258831 35.2237778,38.849951 C34.842,39.8748393 34.1788889,40.6636186 33.2344444,41.2171632 C32.29,41.7707079 31.1544444,42.0474802 29.8282222,42.0474802 C28.8557778,42.0474802 27.9824444,41.9119361 27.2082222,41.6412851 C26.434,41.3706342 25.8037778,41.0077257 25.3175556,40.5521226 C24.8317778,40.0960823 24.3837778,39.42973 23.974,38.5526284 L25.5571111,38.5526284 C25.9882222,39.290688 26.5446667,39.8372368 27.2255556,40.1922749 C27.9073333,40.5477502 28.7522222,40.7252693 29.7602222,40.7252693 C30.7544444,40.7252693 31.594,40.5429406 32.2788889,40.1787205 C32.9637778,39.8145004 33.4522222,39.3562738 33.7442222,38.8053526 C34.0366667,38.2539942 34.1824444,37.3633382 34.1824444,36.1342592 L34.1824444,35.5606016 C33.6331111,36.243569 32.9624444,36.7678186 32.1695556,37.1333505 C31.3771111,37.4988823 30.5362222,37.6816482 29.6468889,37.6816482 C28.6037778,37.6816482 27.6237778,37.4271751 26.7055556,36.9182288 C25.7882222,36.4092826 25.0793333,35.7245662 24.5788889,34.8636425 C24.078,34.0027188 23.8282222,33.0565335 23.8282222,32.0250865 C23.8282222,30.9932024 24.0886667,30.0317137 24.6104444,29.1401832 C25.1313333,28.2486528 25.8526667,27.5433862 26.774,27.0239462 C27.6948889,26.5049434 28.6664444,26.2452234 29.6882222,26.2452234 C30.5362222,26.2452234 31.3268889,26.4174956 32.0602222,26.7629145 C32.794,27.1078961 33.5006667,27.6763069 34.1824444,28.4690213 L34.1824444,26.5320523 Z" id="Fill-14"></path>
            <path d="M38.6533333,37.6819106 L40.1115556,37.6819106 L40.1115556,26.5323146 L38.6533333,26.5323146 L38.6533333,37.6819106 Z M39.3773333,21.9413045 C39.7093333,21.9413045 39.9924444,22.0571729 40.2275556,22.2893468 C40.4626667,22.521958 40.5804444,22.801791 40.5804444,23.1297203 C40.5804444,23.451091 40.4626667,23.7278633 40.2275556,23.9600372 C39.9924444,24.1922112 39.7093333,24.3085168 39.3773333,24.3085168 C39.052,24.3085168 38.772,24.1922112 38.5368889,23.9600372 C38.3022222,23.7278633 38.1844444,23.451091 38.1844444,23.1297203 C38.1844444,22.801791 38.3022222,22.521958 38.5368889,22.2893468 C38.772,22.0571729 39.052,21.9413045 39.3773333,21.9413045 L39.3773333,21.9413045 Z" id="Fill-15"></path>
            <path d="M43.2495556,26.5321397 L44.7077778,26.5321397 L44.7077778,28.5303222 C45.2913333,27.7651539 45.9371111,27.1932452 46.6455556,26.8141589 C47.3535556,26.4346354 48.1246667,26.2453109 48.958,26.2453109 C49.8051111,26.2453109 50.5566667,26.4569346 51.2131111,26.8806192 C51.8695556,27.3043039 52.3535556,27.8744636 52.666,28.5919729 C52.9788889,29.3094822 53.1348889,30.4261908 53.1348889,31.9429731 L53.1348889,37.6817357 L51.6766667,37.6817357 L51.6766667,32.3631598 C51.6766667,31.0785514 51.6224444,30.2215629 51.5144444,29.7908824 C51.3455556,29.0532601 51.0211111,28.4979665 50.542,28.1258761 C50.0628889,27.7533484 49.438,27.5670846 48.6668889,27.5670846 C47.7846667,27.5670846 46.9944444,27.8539134 46.2962222,28.4280083 C45.5984444,29.0016659 45.1384444,29.7121794 44.9162222,30.5595487 C44.7775556,31.1130933 44.7077778,32.12399 44.7077778,33.592676 L44.7077778,37.6817357 L43.2495556,37.6817357 L43.2495556,26.5321397 Z" id="Fill-16"></path>
            <path d="M65.9084,30.9796917 C65.7141778,30.2145233 65.4306222,29.6032631 65.0581778,29.1454738 C64.6861778,28.6876845 64.1946222,28.3186548 63.5826222,28.0383845 C62.9706222,27.7585515 62.3275111,27.6186351 61.6532889,27.6186351 C60.5404,27.6186351 59.5844,27.9701753 58.7852889,28.6741301 C58.2008444,29.1861371 57.7590667,29.9548033 57.4604,30.9796917 L65.9084,30.9796917 Z M65.9084,33.9822123 L67.1377333,34.6175206 C66.7341778,35.3966806 66.2688444,36.0249932 65.7404,36.5033327 C65.2124,36.9816722 64.6181778,37.3454551 63.9572889,37.5946814 C63.2972889,37.8439076 62.5497333,37.9685208 61.7155111,37.9685208 C59.8666222,37.9685208 58.4212889,37.3725639 57.3786222,36.1806503 C56.3359556,34.9882994 55.8146222,33.6407286 55.8146222,32.1375007 C55.8146222,30.7234696 56.2559556,29.4629094 57.1390667,28.3562573 C58.2577333,26.9487848 59.7555111,26.2452672 61.6324,26.2452672 C63.5648444,26.2452672 65.1075111,26.9658371 66.2612889,28.4074143 C67.0817333,29.4253068 67.4986222,30.6963608 67.5124,32.2197016 L57.3146222,32.2197016 C57.3426222,33.5148037 57.7630667,34.5764202 58.5764,35.4045509 C59.3901778,36.2326817 60.3946222,36.6467471 61.5906222,36.6467471 C62.1675111,36.6467471 62.7292889,36.5479311 63.2746222,36.3507363 C63.8208444,36.1535414 64.2848444,35.891198 64.6670667,35.5645804 C65.0497333,35.2379629 65.4635111,34.7106526 65.9084,33.9822123 L65.9084,33.9822123 Z" id="Fill-17"></path>
            <path d="M79.8797778,30.9796917 C79.6855556,30.2145233 79.402,29.6032631 79.0295556,29.1454738 C78.6575556,28.6876845 78.166,28.3186548 77.554,28.0383845 C76.942,27.7585515 76.2988889,27.6186351 75.6246667,27.6186351 C74.5117778,27.6186351 73.5557778,27.9701753 72.7566667,28.6741301 C72.1722222,29.1861371 71.7304444,29.9548033 71.4317778,30.9796917 L79.8797778,30.9796917 Z M79.8797778,33.9822123 L81.1091111,34.6175206 C80.7055556,35.3966806 80.2402222,36.0249932 79.7117778,36.5033327 C79.1837778,36.9816722 78.5895556,37.3454551 77.9286667,37.5946814 C77.2686667,37.8439076 76.5211111,37.9685208 75.6868889,37.9685208 C73.838,37.9685208 72.3926667,37.3725639 71.35,36.1806503 C70.3073333,34.9882994 69.786,33.6407286 69.786,32.1375007 C69.786,30.7234696 70.2273333,29.4629094 71.1104444,28.3562573 C72.2291111,26.9487848 73.7268889,26.2452672 75.6037778,26.2452672 C77.5362222,26.2452672 79.0788889,26.9658371 80.2326667,28.4074143 C81.0531111,29.4253068 81.47,30.6963608 81.4837778,32.2197016 L71.286,32.2197016 C71.314,33.5148037 71.7344444,34.5764202 72.5477778,35.4045509 C73.3615556,36.2326817 74.366,36.6467471 75.562,36.6467471 C76.1388889,36.6467471 76.7006667,36.5479311 77.246,36.3507363 C77.7922222,36.1535414 78.2562222,35.891198 78.6384444,35.5645804 C79.0211111,35.2379629 79.4348889,34.7106526 79.8797778,33.9822123 L79.8797778,33.9822123 Z" id="Fill-18"></path>
            <path d="M83.7569333,26.5321397 L85.2467111,26.5321397 L85.2467111,28.1617297 C85.6911556,27.5194255 86.1596,27.039337 86.6529333,26.7219015 C87.1458222,26.4040287 87.6596,26.2453109 88.1942667,26.2453109 C88.5973778,26.2453109 89.0276,26.371673 89.4862667,26.6243972 L88.7258222,27.8338004 C88.4200444,27.7039404 88.1631556,27.6387918 87.9547111,27.6387918 C87.4689333,27.6387918 87.0000444,27.8351121 86.5484889,28.22819 C86.0973778,28.6208307 85.7533778,29.2307792 85.5173778,30.0575982 C85.3369333,30.6929066 85.2467111,31.9770777 85.2467111,33.9105488 L85.2467111,37.6817357 L83.7569333,37.6817357 L83.7569333,26.5321397 Z" id="Fill-19"></path>
            <path d="M90.6137778,37.6819106 L92.072,37.6819106 L92.072,26.5323146 L90.6137778,26.5323146 L90.6137778,37.6819106 Z M91.3377778,21.9413045 C91.6697778,21.9413045 91.9533333,22.0571729 92.188,22.2893468 C92.4231111,22.521958 92.5408889,22.801791 92.5408889,23.1297203 C92.5408889,23.451091 92.4231111,23.7278633 92.188,23.9600372 C91.9533333,24.1922112 91.6697778,24.3085168 91.3377778,24.3085168 C91.0124444,24.3085168 90.7324444,24.1922112 90.4973333,23.9600372 C90.2626667,23.7278633 90.1448889,23.451091 90.1448889,23.1297203 C90.1448889,22.801791 90.2626667,22.521958 90.4973333,22.2893468 C90.7324444,22.0571729 91.0124444,21.9413045 91.3377778,21.9413045 L91.3377778,21.9413045 Z" id="Fill-20"></path>
            <path d="M95.2100889,26.5321397 L96.6683111,26.5321397 L96.6683111,28.5303222 C97.2518667,27.7651539 97.8976444,27.1932452 98.6060889,26.8141589 C99.3140889,26.4346354 100.0852,26.2453109 100.918533,26.2453109 C101.765644,26.2453109 102.5172,26.4569346 103.173644,26.8806192 C103.830089,27.3043039 104.314089,27.8744636 104.626533,28.5919729 C104.939422,29.3094822 105.095422,30.4261908 105.095422,31.9429731 L105.095422,37.6817357 L103.6372,37.6817357 L103.6372,32.3631598 C103.6372,31.0785514 103.582978,30.2215629 103.474978,29.7908824 C103.306089,29.0532601 102.981644,28.4979665 102.502533,28.1258761 C102.023422,27.7533484 101.398533,27.5670846 100.627422,27.5670846 C99.7452,27.5670846 98.9549778,27.8539134 98.2567556,28.4280083 C97.5589778,29.0016659 97.0989778,29.7121794 96.8767556,30.5595487 C96.7380889,31.1130933 96.6683111,32.12399 96.6683111,33.592676 L96.6683111,37.6817357 L95.2100889,37.6817357 L95.2100889,26.5321397 Z" id="Fill-21"></path>
            <path d="M113.796,27.6286478 C112.969778,27.6286478 112.202222,27.8249682 111.493778,28.2180461 C110.785778,28.6106867 110.230222,29.1537377 109.827111,29.8471988 C109.424444,30.5406599 109.223111,31.2905249 109.223111,32.0967938 C109.223111,33.3197514 109.639556,34.3306481 110.472889,35.1299211 C111.306222,35.9291941 112.386222,36.3288306 113.712889,36.3288306 C115.052889,36.3288306 116.131111,35.932692 116.947111,35.1404148 C117.763111,34.3477004 118.171111,33.3057597 118.171111,32.0145928 C118.171111,31.1742193 117.983556,30.4247916 117.608444,29.7654351 C117.233333,29.1060786 116.702222,28.5853269 116.014667,28.2023055 C115.327111,27.8197213 114.587556,27.6286478 113.796,27.6286478 L113.796,27.6286478 Z M118.098222,26.5320523 L119.556444,26.5320523 L119.556444,35.4167499 C119.556444,36.9816285 119.417333,38.1258831 119.139556,38.849951 C118.757778,39.8748393 118.094667,40.6636186 117.150222,41.2171632 C116.205778,41.7707079 115.070222,42.0474802 113.744,42.0474802 C112.771556,42.0474802 111.898222,41.9119361 111.124,41.6412851 C110.349778,41.3706342 109.719556,41.0077257 109.233333,40.5521226 C108.747556,40.0960823 108.299556,39.42973 107.889778,38.5526284 L109.472889,38.5526284 C109.904,39.290688 110.460444,39.8372368 111.141333,40.1922749 C111.823111,40.5477502 112.668,40.7252693 113.676,40.7252693 C114.670222,40.7252693 115.509778,40.5429406 116.194667,40.1787205 C116.879556,39.8145004 117.368,39.3562738 117.66,38.8053526 C117.952444,38.2539942 118.098222,37.3633382 118.098222,36.1342592 L118.098222,35.5606016 C117.548889,36.243569 116.878222,36.7678186 116.085333,37.1333505 C115.292889,37.4988823 114.452,37.6816482 113.562667,37.6816482 C112.519556,37.6816482 111.539556,37.4271751 110.621333,36.9182288 C109.704,36.4092826 108.995111,35.7245662 108.494667,34.8636425 C107.993778,34.0027188 107.744,33.0565335 107.744,32.0250865 C107.744,30.9932024 108.004444,30.0317137 108.526222,29.1401832 C109.047111,28.2486528 109.768444,27.5433862 110.689778,27.0239462 C111.610667,26.5049434 112.582222,26.2452234 113.604,26.2452234 C114.452,26.2452234 115.242667,26.4174956 115.976,26.7629145 C116.709778,27.1078961 117.416444,27.6763069 118.098222,28.4690213 L118.098222,26.5320523 Z" id="Fill-22"></path>
        </g>
    </g>
</svg>