<?xml version="1.0" encoding="utf-8"?>
<!-- Generator: Adobe Illustrator 24.1.0, SVG Export Plug-In . SVG Version: 6.00 Build 0)  -->
<svg version="1.1" id="Layer_1" xmlns="http://www.w3.org/2000/svg" xmlns:xlink="http://www.w3.org/1999/xlink" x="0px" y="0px"
	 viewBox="0 0 238 84" style="enable-background:new 0 0 238 84;" xml:space="preserve">
<g>
	<g transform="translate(89.19 26.95)">
		<g>
			<path id="a" d="M3.8,15L0.5,0.8h2.7l2,9.1l2.6-9.1h2.3l2.6,9.1l2-9.1h2.7L14.1,15h-2.6L8.9,5.8L6.3,15H3.8z M25.9,11.9l2.2,1.1
				c-1.1,1.6-2.6,2.3-4.8,2.3c-3.4,0-5.5-2.5-5.5-5.6c0-2.9,2.1-5.5,5.5-5.5c3.3,0,5.6,2.4,5.6,5.7c0,0.2,0,0.4,0,0.6h-8.5
				c0.3,1.6,1.4,2.4,3,2.4C24.4,12.9,25.1,12.6,25.9,11.9z M20.4,8.4h5.7c-0.4-1.2-1.5-2-2.9-2C21.9,6.4,20.9,7.1,20.4,8.4z
				 M38.7,15v-1.1c-0.9,0.9-1.9,1.4-3.3,1.4c-2.7,0-5-2.3-5-5.5c0-3.3,2.2-5.6,5-5.6c1.3,0,2.4,0.5,3.3,1.4V4.5h2.6V15
				C41.3,15,38.7,15,38.7,15z M35.9,6.6c-1.7,0-2.8,1.4-2.8,3.1c0,1.8,1.2,3.1,2.8,3.1c1.6,0,2.9-1.2,2.9-3.2
				C38.8,7.9,37.6,6.6,35.9,6.6z M47.4,15L42.9,4.5h2.7l2.7,6.2l2.7-6.2h2.7L49.1,15C49.1,15,47.4,15,47.4,15z M54.8,15V4.5h2.6V15
				H54.8z M56.1,0.1c1,0,1.7,0.8,1.7,1.7c0,0.9-0.8,1.7-1.7,1.7c-1,0-1.7-0.9-1.7-1.8C54.5,0.8,55.2,0.1,56.1,0.1L56.1,0.1z
				 M67.7,15v-1.1c-0.9,0.9-1.9,1.4-3.3,1.4c-2.7,0-5-2.3-5-5.5c0-3.3,2.2-5.6,5-5.6c1.3,0,2.4,0.5,3.3,1.4V4.5h2.6V15
				C70.3,15,67.7,15,67.7,15z M64.9,6.6C63.1,6.6,62,8,62,9.7c0,1.8,1.2,3.1,2.8,3.1c1.6,0,2.9-1.2,2.9-3.2
				C67.8,7.9,66.5,6.6,64.9,6.6z M73.3,4.5V0.6h2.6v3.9h1.6v2.3h-1.6V15h-2.6V6.7h-1.3V4.5H73.3L73.3,4.5z M86.6,11.9l2.2,1.1
				c-1.1,1.6-2.6,2.3-4.8,2.3c-3.4,0-5.5-2.5-5.5-5.6c0-2.9,2.1-5.5,5.5-5.5c3.3,0,5.6,2.4,5.6,5.7c0,0.2,0,0.4,0,0.6H81
				c0.3,1.6,1.4,2.4,3,2.4C85.1,12.9,85.8,12.6,86.6,11.9z M81.1,8.4h5.7c-0.4-1.2-1.5-2-2.9-2C82.6,6.4,81.6,7.1,81.1,8.4z"/>
		</g>
		<g>
			<path id="a_1_" d="M3.8,15L0.5,0.8h2.7l2,9.1l2.6-9.1h2.3l2.6,9.1l2-9.1h2.7L14.1,15h-2.6L8.9,5.8L6.3,15H3.8z M25.9,11.9
				l2.2,1.1c-1.1,1.6-2.6,2.3-4.8,2.3c-3.4,0-5.5-2.5-5.5-5.6c0-2.9,2.1-5.5,5.5-5.5c3.3,0,5.6,2.4,5.6,5.7c0,0.2,0,0.4,0,0.6h-8.5
				c0.3,1.6,1.4,2.4,3,2.4C24.4,12.9,25.1,12.6,25.9,11.9z M20.4,8.4h5.7c-0.4-1.2-1.5-2-2.9-2C21.9,6.4,20.9,7.1,20.4,8.4z
				 M38.7,15v-1.1c-0.9,0.9-1.9,1.4-3.3,1.4c-2.7,0-5-2.3-5-5.5c0-3.3,2.2-5.6,5-5.6c1.3,0,2.4,0.5,3.3,1.4V4.5h2.6V15
				C41.3,15,38.7,15,38.7,15z M35.9,6.6c-1.7,0-2.8,1.4-2.8,3.1c0,1.8,1.2,3.1,2.8,3.1c1.6,0,2.9-1.2,2.9-3.2
				C38.8,7.9,37.6,6.6,35.9,6.6z M47.4,15L42.9,4.5h2.7l2.7,6.2l2.7-6.2h2.7L49.1,15C49.1,15,47.4,15,47.4,15z M54.8,15V4.5h2.6V15
				H54.8z M56.1,0.1c1,0,1.7,0.8,1.7,1.7c0,0.9-0.8,1.7-1.7,1.7c-1,0-1.7-0.9-1.7-1.8C54.5,0.8,55.2,0.1,56.1,0.1L56.1,0.1z
				 M67.7,15v-1.1c-0.9,0.9-1.9,1.4-3.3,1.4c-2.7,0-5-2.3-5-5.5c0-3.3,2.2-5.6,5-5.6c1.3,0,2.4,0.5,3.3,1.4V4.5h2.6V15
				C70.3,15,67.7,15,67.7,15z M64.9,6.6C63.1,6.6,62,8,62,9.7c0,1.8,1.2,3.1,2.8,3.1c1.6,0,2.9-1.2,2.9-3.2
				C67.8,7.9,66.5,6.6,64.9,6.6z M73.3,4.5V0.6h2.6v3.9h1.6v2.3h-1.6V15h-2.6V6.7h-1.3V4.5H73.3L73.3,4.5z M86.6,11.9l2.2,1.1
				c-1.1,1.6-2.6,2.3-4.8,2.3c-3.4,0-5.5-2.5-5.5-5.6c0-2.9,2.1-5.5,5.5-5.5c3.3,0,5.6,2.4,5.6,5.7c0,0.2,0,0.4,0,0.6H81
				c0.3,1.6,1.4,2.4,3,2.4C85.1,12.9,85.8,12.6,86.6,11.9z M81.1,8.4h5.7c-0.4-1.2-1.5-2-2.9-2C82.6,6.4,81.6,7.1,81.1,8.4z"/>
		</g>
	</g>
	<path d="M71.9,43.3v-16c2.4-0.7,3.7-3.3,2.9-5.6s-3.3-3.7-5.6-2.9c-0.8,0.2-1.5,0.7-2,1.3L42.4,5.7c0-0.2,0.1-0.5,0.1-0.8
		c0-2.5-2-4.5-4.5-4.5c-2.5,0-4.5,2-4.5,4.5s2,4.5,4.5,4.5c1.3,0,2.5-0.5,3.4-1.5l24.8,14.3C66,22.5,66,22.8,66,23
		c0,2,1.4,3.8,3.3,4.3v16c-0.8,0.2-1.5,0.7-2,1.3l-25-14.4c0.5-2.4-1.1-4.8-3.6-5.2c-1.3-0.3-2.7,0.1-3.8,1l-14-8.1
		c0.5-2.4-1-4.8-3.4-5.4c-2.4-0.5-4.8,1-5.4,3.4c-0.1,0.3-0.1,0.6-0.1,1c0,0.4,0.1,0.8,0.2,1.1l-7.6,4.4c-0.4,0.2-0.6,0.6-0.6,1.1v7
		c-2.4,0.7-3.7,3.2-3,5.6c0.7,2.4,3.2,3.7,5.6,3c0.5-0.2,1-0.4,1.5-0.8l8.2,4.7v11l10.8,6.2l9.5-5.5l19.2,11
		c-0.1,0.4-0.2,0.9-0.2,1.3c0,0.4,0,0.7,0.1,1.1l-14,8.1c-1.4-2.1-4.2-2.6-6.2-1.2c-0.5,0.3-0.9,0.8-1.2,1.2L9.4,62
		c0.3-0.6,0.4-1.2,0.4-1.8c0-2.5-2-4.5-4.5-4.5s-4.5,2-4.5,4.5s2,4.5,4.5,4.5c0.8,0,1.7-0.2,2.4-0.7l25.8,14.8c0,2.5,2,4.5,4.5,4.5
		s4.5-2,4.5-4.5L57,70.4c0.8,0.8,1.9,1.2,3,1.2c2.5,0,4.5-2,4.5-4.5c0-2.5-2-4.5-4.5-4.5c-1,0-2.1,0.4-2.9,1L50,59.5l9.6-5.5V43
		l6.7,3.9c0,0.2,0,0.4-0.1,0.7c0,2.5,2,4.5,4.5,4.5c2.5,0,4.5-2,4.5-4.5C75.2,45.5,73.9,43.8,71.9,43.3L71.9,43.3z M39.6,7
		c-1.1,0.9-2.7,0.6-3.6-0.5s-0.6-2.7,0.5-3.6s2.7-0.6,3.6,0.5c0.3,0.4,0.4,0.8,0.5,1.2V5C40.6,5.8,40.2,6.5,39.6,7z M7.8,61
		c-0.3,0.9-1.2,1.6-2.2,1.7H5.4c-1.4,0-2.6-1.2-2.6-2.6c0-1.4,1.2-2.6,2.6-2.6s2.6,1.2,2.6,2.6c0,0,0,0,0,0
		C7.9,60.5,7.9,60.8,7.8,61z M40.2,80.1c-0.7,1.2-2.3,1.6-3.5,0.9c-0.4-0.2-0.6-0.5-0.9-0.9c-0.3-0.4-0.4-0.9-0.4-1.3
		c0-0.5,0.2-1.1,0.5-1.5c0.9-1.1,2.5-1.4,3.6-0.5c0.6,0.5,1,1.2,1,2.1C40.6,79.3,40.5,79.7,40.2,80.1z M57.5,67.1v-0.3
		c0.1-0.9,0.7-1.7,1.6-2c0.3-0.1,0.7-0.2,1-0.2c1.4-0.1,2.6,1,2.7,2.4c0.1,1.4-1,2.6-2.4,2.7c-0.1,0-0.2,0-0.3,0
		c-0.4,0-0.9-0.1-1.2-0.3c-0.8-0.4-1.3-1.3-1.3-2.2V67.1z M35.4,29.1c0.1-0.9,0.7-1.7,1.5-2.1c0.3-0.2,0.7-0.2,1.1-0.2
		c1.3,0,2.4,1,2.6,2.3c0,0.1,0,0.2,0,0.2c-0.1,1.4-1.3,2.5-2.7,2.4c-1.3-0.1-2.3-1.1-2.4-2.4C35.4,29.2,35.4,29.2,35.4,29.1z
		 M14.1,16.9c0-1.4,1.1-2.6,2.6-2.6s2.6,1.1,2.6,2.6v0.1c0,1.4-1.2,2.6-2.6,2.6c-0.4,0-0.9-0.1-1.3-0.3
		C14.6,18.7,14.1,17.8,14.1,16.9L14.1,16.9z M7.9,35.2c-0.1,0.9-0.8,1.7-1.6,2c-0.3,0.1-0.6,0.2-0.9,0.2c-1.4,0-2.6-1.2-2.6-2.6
		c0-0.9,0.5-1.8,1.3-2.2c0.8-0.5,1.8-0.5,2.5,0c0.8,0.5,1.3,1.3,1.3,2.2C7.9,34.9,7.9,35.1,7.9,35.2z M48.8,47.7L38,41.5L28.4,47
		l-1.2,0.7V35.2l-9.6,5.5l-8-4.6c0.8-2.4-0.5-4.9-2.9-5.7c0,0-0.1,0-0.1,0v-6.3l7-4c1.8,1.6,4.5,1.6,6.2-0.1l13.9,8
		c-0.1,0.4-0.2,0.8-0.2,1.3c0,2.5,2,4.5,4.5,4.5c1.2,0,2.4-0.5,3.2-1.4l7.6,4.4L48.8,47.7z M68,23.4V23c0-1.4,1.2-2.6,2.6-2.6
		c1.4,0,2.6,1.1,2.6,2.6c0,1.4-1.1,2.6-2.6,2.6c-0.4,0-0.8-0.1-1.2-0.3C68.6,25,68.1,24.2,68,23.4z M70.8,50.2
		c-1.3,0-2.4-0.9-2.6-2.2c0-0.1,0-0.3,0-0.4c0-0.9,0.4-1.7,1.2-2.2c0.4-0.3,0.9-0.4,1.4-0.4c1.4-0.1,2.6,1,2.7,2.4s-1,2.6-2.4,2.7
		C71,50.2,70.9,50.2,70.8,50.2C70.8,50.2,70.8,50.2,70.8,50.2z"/>
</g>
<g>
	<path d="M104.7,50.3l-1.1,0.9c-0.6-0.8-1.3-1.4-2.2-1.8c-0.9-0.4-1.8-0.6-2.8-0.6c-1.1,0-2.2,0.3-3.1,0.8c-1,0.5-1.7,1.3-2.2,2.2
		c-0.5,0.9-0.8,1.9-0.8,3.1c0,1.7,0.6,3.2,1.8,4.3c1.2,1.1,2.7,1.7,4.5,1.7c2,0,3.6-0.8,4.9-2.3l1.1,0.8c-0.7,0.9-1.6,1.6-2.6,2.1
		c-1,0.5-2.2,0.7-3.5,0.7c-2.5,0-4.4-0.8-5.8-2.5c-1.2-1.4-1.8-3.1-1.8-5c0-2.1,0.7-3.8,2.2-5.2c1.4-1.4,3.3-2.1,5.4-2.1
		c1.3,0,2.5,0.3,3.6,0.8S104,49.4,104.7,50.3z"/>
	<path d="M107.1,47.4h1.3v14.4h-1.3V47.4z"/>
	<path d="M116.2,51.1c1.6,0,2.9,0.6,4,1.7c1,1.1,1.4,2.3,1.4,3.8c0,1.5-0.5,2.7-1.5,3.8s-2.3,1.6-3.9,1.6c-1.6,0-2.9-0.5-3.9-1.6
		s-1.5-2.4-1.5-3.8c0-1.4,0.5-2.7,1.4-3.8C113.2,51.7,114.6,51.1,116.2,51.1z M116.2,52.4c-1.1,0-2.1,0.4-2.9,1.2s-1.2,1.8-1.2,3
		c0,0.8,0.2,1.5,0.5,2.1c0.4,0.7,0.9,1.2,1.5,1.5c0.6,0.4,1.3,0.5,2,0.5c0.7,0,1.4-0.2,2-0.5c0.6-0.4,1.1-0.9,1.5-1.5
		c0.4-0.7,0.5-1.4,0.5-2.1c0-1.2-0.4-2.2-1.2-3C118.2,52.8,117.3,52.4,116.2,52.4z"/>
	<path d="M123.9,51.4h1.3v4.9c0,1.2,0.1,2,0.2,2.5c0.2,0.6,0.6,1.1,1.1,1.5c0.5,0.4,1.2,0.6,1.9,0.6c0.7,0,1.4-0.2,1.9-0.5
		c0.5-0.4,0.9-0.8,1.1-1.4c0.1-0.4,0.2-1.3,0.2-2.6v-4.9h1.4v5.1c0,1.4-0.2,2.5-0.5,3.2s-0.8,1.3-1.5,1.7c-0.7,0.4-1.5,0.6-2.5,0.6
		c-1,0-1.9-0.2-2.5-0.6c-0.7-0.4-1.2-1-1.5-1.7s-0.5-1.8-0.5-3.3V51.4z"/>
	<path d="M146.4,47.4v14.4h-1.3V60c-0.6,0.7-1.2,1.2-1.9,1.5c-0.7,0.3-1.5,0.5-2.3,0.5c-1.5,0-2.7-0.5-3.8-1.6
		c-1-1.1-1.6-2.4-1.6-3.9c0-1.5,0.5-2.8,1.6-3.8c1.1-1.1,2.3-1.6,3.8-1.6c0.9,0,1.6,0.2,2.3,0.5c0.7,0.4,1.3,0.9,1.8,1.6v-5.9H146.4
		z M141.1,52.4c-0.7,0-1.4,0.2-2.1,0.5c-0.6,0.4-1.1,0.9-1.5,1.5c-0.4,0.7-0.6,1.4-0.6,2.1c0,0.7,0.2,1.4,0.6,2.1
		c0.4,0.7,0.9,1.2,1.5,1.6c0.6,0.4,1.3,0.6,2,0.6c0.7,0,1.4-0.2,2.1-0.6c0.7-0.4,1.2-0.9,1.5-1.5c0.4-0.6,0.5-1.3,0.5-2.1
		c0-1.2-0.4-2.2-1.2-3S142.2,52.4,141.1,52.4z"/>
	<path d="M153.6,59.2l1.2-0.7c0.8,1.6,1.8,2.3,2.9,2.3c0.5,0,0.9-0.1,1.3-0.3c0.4-0.2,0.7-0.5,0.9-0.9s0.3-0.8,0.3-1.2
		c0-0.5-0.2-0.9-0.5-1.4c-0.4-0.6-1.2-1.4-2.4-2.3c-1.2-0.9-1.9-1.5-2.2-1.9c-0.5-0.7-0.7-1.4-0.7-2.2c0-0.6,0.1-1.2,0.4-1.7
		c0.3-0.5,0.7-0.9,1.2-1.2c0.5-0.3,1.1-0.4,1.7-0.4c0.7,0,1.3,0.2,1.9,0.5c0.6,0.3,1.2,0.9,1.8,1.8l-1.1,0.9c-0.5-0.7-1-1.2-1.4-1.4
		c-0.4-0.2-0.8-0.3-1.2-0.3c-0.6,0-1,0.2-1.4,0.5s-0.5,0.8-0.5,1.3c0,0.3,0.1,0.6,0.2,0.9c0.1,0.3,0.4,0.6,0.7,0.9
		c0.2,0.2,0.8,0.6,1.8,1.4c1.2,0.9,2.1,1.7,2.5,2.4c0.5,0.7,0.7,1.4,0.7,2.1c0,1-0.4,1.9-1.2,2.7s-1.7,1.1-2.8,1.1
		c-0.9,0-1.6-0.2-2.3-0.7C154.9,61,154.2,60.2,153.6,59.2z"/>
	<path d="M173.4,58.3l1.1,0.6c-0.4,0.7-0.8,1.3-1.3,1.8c-0.5,0.4-1,0.8-1.6,1c-0.6,0.2-1.3,0.3-2.1,0.3c-1.7,0-3-0.6-4-1.7
		c-1-1.1-1.4-2.4-1.4-3.8c0-1.3,0.4-2.5,1.2-3.5c1-1.3,2.4-2,4.1-2c1.8,0,3.2,0.7,4.3,2c0.8,1,1.1,2.1,1.1,3.6h-9.4
		c0,1.2,0.4,2.2,1.2,3c0.7,0.8,1.7,1.2,2.8,1.2c0.5,0,1-0.1,1.5-0.3c0.5-0.2,0.9-0.4,1.3-0.7C172.6,59.5,173,59,173.4,58.3z
		 M173.4,55.5c-0.2-0.7-0.4-1.3-0.8-1.7s-0.8-0.8-1.4-1s-1.2-0.4-1.8-0.4c-1,0-1.9,0.3-2.6,1c-0.5,0.5-0.9,1.2-1.2,2.2H173.4z"/>
	<path d="M176.9,51.4h1.4v1.5c0.4-0.6,0.8-1,1.3-1.3s0.9-0.4,1.4-0.4c0.4,0,0.8,0.1,1.2,0.4l-0.7,1.1c-0.3-0.1-0.5-0.2-0.7-0.2
		c-0.4,0-0.9,0.2-1.3,0.5c-0.4,0.4-0.7,0.9-0.9,1.7c-0.2,0.6-0.2,1.8-0.2,3.6v3.5h-1.4V51.4z"/>
	<path d="M182.3,51.4h1.4l3.5,7.6l3.5-7.6h1.4l-4.8,10.4h-0.2L182.3,51.4z"/>
	<path d="M194.6,47.1c0.3,0,0.6,0.1,0.8,0.3c0.2,0.2,0.3,0.5,0.3,0.8c0,0.3-0.1,0.6-0.3,0.8c-0.2,0.2-0.5,0.3-0.8,0.3
		c-0.3,0-0.6-0.1-0.8-0.3s-0.3-0.5-0.3-0.8c0-0.3,0.1-0.6,0.3-0.8S194.3,47.1,194.6,47.1z M194,51.4h1.3v10.4H194V51.4z"/>
	<path d="M208.2,53.5l-1.1,0.7c-0.9-1.2-2.2-1.8-3.8-1.8c-1.3,0-2.3,0.4-3.2,1.2c-0.8,0.8-1.3,1.8-1.3,3c0,0.8,0.2,1.5,0.6,2.1
		c0.4,0.7,0.9,1.2,1.6,1.6c0.7,0.4,1.4,0.6,2.3,0.6c1.5,0,2.8-0.6,3.7-1.8l1.1,0.7c-0.5,0.8-1.2,1.3-2,1.7c-0.8,0.4-1.8,0.6-2.9,0.6
		c-1.6,0-3-0.5-4.1-1.6s-1.6-2.3-1.6-3.8c0-1,0.3-1.9,0.8-2.8s1.2-1.5,2.1-2c0.9-0.5,1.9-0.7,3-0.7c0.7,0,1.4,0.1,2,0.3
		c0.6,0.2,1.2,0.5,1.6,0.8C207.5,52.6,207.9,53,208.2,53.5z"/>
	<path d="M219.5,58.3l1.1,0.6c-0.4,0.7-0.8,1.3-1.3,1.8c-0.5,0.4-1,0.8-1.6,1c-0.6,0.2-1.3,0.3-2.1,0.3c-1.7,0-3-0.6-4-1.7
		c-1-1.1-1.4-2.4-1.4-3.8c0-1.3,0.4-2.5,1.2-3.5c1-1.3,2.4-2,4.1-2c1.8,0,3.2,0.7,4.3,2c0.8,1,1.1,2.1,1.1,3.6h-9.4
		c0,1.2,0.4,2.2,1.2,3c0.7,0.8,1.7,1.2,2.8,1.2c0.5,0,1-0.1,1.5-0.3c0.5-0.2,0.9-0.4,1.3-0.7C218.7,59.5,219.1,59,219.5,58.3z
		 M219.5,55.5c-0.2-0.7-0.4-1.3-0.8-1.7s-0.8-0.8-1.4-1s-1.2-0.4-1.8-0.4c-1,0-1.9,0.3-2.6,1c-0.5,0.5-0.9,1.2-1.2,2.2H219.5z"/>
</g>
</svg>
