<?xml version="1.0" encoding="UTF-8"?>
<svg width="72px" height="90px" viewBox="0 0 72 90" version="1.1" xmlns="http://www.w3.org/2000/svg" xmlns:xlink="http://www.w3.org/1999/xlink">
    <!-- Generator: Sketch 53.2 (72643) - https://sketchapp.com -->
    <title>logos/SeMI/simple/vertical/white_accent</title>
    <desc>Created with Sketch.</desc>
    <defs>
        <linearGradient x1="-3360%" y1="49.5%" x2="1753%" y2="49.5%" id="linearGradient-1">
            <stop stop-color="#364A68" offset="0%"></stop>
            <stop stop-color="#543F69" offset="11%"></stop>
            <stop stop-color="#8F296C" offset="34%"></stop>
            <stop stop-color="#BD186E" offset="55%"></stop>
            <stop stop-color="#DE0B70" offset="74%"></stop>
            <stop stop-color="#F30471" offset="90%"></stop>
            <stop stop-color="#FA0171" offset="100%"></stop>
        </linearGradient>
    </defs>
    <g id="logos/SeMI/simple/vertical/white_accent" stroke="none" stroke-width="1" fill="none" fill-rule="evenodd">
        <g id="SeMI-2_vcw" transform="translate(10.000000, 0.000000)">
            <polygon id="Path" fill="url(#linearGradient-1)" points="25.7555556 0.495 25.7555556 0.495 25.7555556 0.5025"></polygon>
            <polygon id="Path" fill="#BB075A" points="0.0666666667 15.195 0.0666666667 44.64 12.9111111 51.9975 12.9111111 37.275 25.7555556 29.9175"></polygon>
            <polygon id="Path" fill="#FA0171" points="38.6 7.8375 25.7555556 0.4725 0.0666666667 15.195 12.9111111 22.56"></polygon>
            <polygon id="Path" fill="#FA0171" points="51.4444444 44.64 38.6 37.275 12.9111111 51.9975 25.7555556 59.3625"></polygon>
            <polygon id="Path" fill="#BB075A" points="51.4444444 44.64 51.4444444 15.195 38.6 7.8375 38.6 22.56 25.7555556 29.9175"></polygon>
        </g>
        <path d="M14.6572266,71.3818359 L11.625,74.0625 C10.5605416,72.5781176 9.47656802,71.8359375 8.37304688,71.8359375 C7.83593481,71.8359375 7.39648608,71.979979 7.0546875,72.2680664 C6.71288892,72.5561538 6.54199219,72.8808576 6.54199219,73.2421875 C6.54199219,73.6035174 6.66406128,73.9453109 6.90820312,74.2675781 C7.24023604,74.6972678 8.24120259,75.6201101 9.91113281,77.0361328 C11.4736406,78.3447331 12.4208968,79.1699202 12.7529297,79.5117188 C13.583012,80.3515667 14.171385,81.1547813 14.5180664,81.9213867 C14.8647478,82.6879921 15.0380859,83.5253861 15.0380859,84.4335938 C15.0380859,86.2011807 14.4277405,87.6611271 13.2070312,88.8134766 C11.986322,89.9658261 10.3945411,90.5419922 8.43164062,90.5419922 C6.89842983,90.5419922 5.56299397,90.1660194 4.42529297,89.4140625 C3.28759197,88.6621056 2.31348062,87.4804768 1.50292969,85.8691406 L4.9453125,83.7890625 C5.98047393,85.6933689 7.17186826,86.6455078 8.51953125,86.6455078 C9.22265977,86.6455078 9.81347417,86.4404317 10.2919922,86.0302734 C10.7705102,85.6201151 11.0097656,85.1464871 11.0097656,84.609375 C11.0097656,84.1210913 10.8291034,83.6328149 10.4677734,83.1445312 C10.1064435,82.6562476 9.31055303,81.9091847 8.08007812,80.9033203 C5.73631641,78.9892482 4.22265967,77.5122122 3.5390625,76.472168 C2.85546533,75.4321237 2.51367188,74.3945364 2.51367188,73.359375 C2.51367188,71.8652269 3.08251384,70.5835014 4.22021484,69.5141602 C5.35791584,68.4448189 6.7617104,67.9101562 8.43164062,67.9101562 C9.50586475,67.9101562 10.5288037,68.1591772 11.5004883,68.6572266 C12.4721728,69.1552759 13.5244084,70.06347 14.6572266,71.3818359 Z M34.4912109,83.1884766 L21.6445312,83.1884766 C21.8300791,84.3212947 22.3256796,85.2221646 23.1313477,85.8911133 C23.9370157,86.5600619 24.9648375,86.8945312 26.2148438,86.8945312 C27.7089918,86.8945312 28.9931587,86.3720755 30.0673828,85.3271484 L33.4365234,86.9091797 C32.5966755,88.1005919 31.5908262,88.9819307 30.4189453,89.5532227 C29.2470645,90.1245146 27.8554768,90.4101562 26.2441406,90.4101562 C23.7441281,90.4101562 21.7080157,89.6215899 20.1357422,88.0444336 C18.5634687,86.4672773 17.7773438,84.4921994 17.7773438,82.1191406 C17.7773438,79.6874878 18.5610273,77.6684651 20.128418,76.0620117 C21.6958086,74.4555584 23.661121,73.6523438 26.0244141,73.6523438 C28.5341922,73.6523438 30.5751875,74.4555584 32.1474609,76.0620117 C33.7197344,77.6684651 34.5058594,79.7900259 34.5058594,82.4267578 L34.4912109,83.1884766 Z M30.4775391,80.0390625 C30.2138659,79.1503862 29.6938515,78.4277372 28.9174805,77.8710938 C28.1411094,77.3144503 27.2402395,77.0361328 26.2148438,77.0361328 C25.1015569,77.0361328 24.1250042,77.3486297 23.2851562,77.9736328 C22.7578099,78.3642598 22.2695335,79.0527294 21.8203125,80.0390625 L30.4775391,80.0390625 Z M40.2480469,68.4521484 L44.2617188,68.4521484 L49.2421875,83.4814453 L54.2958984,68.4521484 L58.2509766,68.4521484 L61.8837891,90 L57.9287109,90 L55.6142578,76.3916016 L51.0292969,90 L47.4111328,90 L42.8847656,76.3916016 L40.5263672,90 L36.5273438,90 L40.2480469,68.4521484 Z M64.8720703,68.4521484 L68.9443359,68.4521484 L68.9443359,90 L64.8720703,90 L64.8720703,68.4521484 Z" id="SeMI" fill="#FFFFFF" fill-rule="nonzero"></path>
    </g>
</svg>