<svg xmlns="http://www.w3.org/2000/svg" viewBox="0 0 360 360"><defs><style>.cls-1,.cls-2{fill:#00152b;}.cls-1{stroke:#00152b;stroke-miterlimit:10;stroke-width:0.5px;}.cls-3{fill:#003eac;}</style></defs><g id="Layer_2" data-name="Layer 2"><polygon class="cls-1" points="127.2 240.88 132.44 227.85 137.53 240.88 137.86 240.88 142.81 223.65 141.05 223.65 137.48 236.06 132.6 223.65 132.25 223.65 127.3 236.06 123.8 223.65 122.02 223.65 126.89 240.88 127.2 240.88"/><path class="cls-1" d="M150.68,241.2a6.37,6.37,0,0,0,6.07-3.82l-1.37-.72a5.34,5.34,0,0,1-4.87,3.05,4.85,4.85,0,0,1-4.8-5.07h11.47c-.05-4.22-3-6.84-6.6-6.84a6.57,6.57,0,0,0-6.55,6.75A6.46,6.46,0,0,0,150.68,241.2Zm-.08-11.81a4.68,4.68,0,0,1,4.78,3.81h-9.5C146.62,230.61,148.32,229.39,150.6,229.39Z"/><path class="cls-1" d="M171.32,230.47a6,6,0,0,0-5.09-2.67,6.7,6.7,0,0,0,0,13.4,6.48,6.48,0,0,0,5.14-2.5v2.19h1.61V228.14h-1.61Zm-5,9.24a5.11,5.11,0,0,1-5-5.19,5.06,5.06,0,1,1,5,5.19Z"/><polygon class="cls-1" points="181.59 240.88 187.42 228.14 185.67 228.14 181.44 237.41 177.17 228.14 175.42 228.14 181.3 240.88 181.59 240.88"/><rect class="cls-1" x="189.7" y="228.14" width="1.63" height="12.75"/><path class="cls-1" d="M190.49,225.6a1.39,1.39,0,0,0,1.37-1.37,1.36,1.36,0,0,0-1.37-1.35,1.34,1.34,0,0,0-1.34,1.35A1.37,1.37,0,0,0,190.49,225.6Z"/><path class="cls-1" d="M200.67,241.2a6.45,6.45,0,0,0,5.13-2.5v2.19h1.61V228.14H205.8v2.33a6,6,0,0,0-5.08-2.67,6.7,6.7,0,0,0-.05,13.4Zm.19-11.81a5.16,5.16,0,0,1,0,10.32,5.11,5.11,0,0,1-5-5.19A5.06,5.06,0,0,1,200.86,229.39Z"/><polygon class="cls-1" points="216.82 228.14 214.2 228.14 214.2 223.39 212.57 223.39 212.57 228.14 210.31 228.14 210.31 229.58 212.57 229.58 212.57 240.88 214.2 240.88 214.2 229.58 216.82 229.58 216.82 228.14"/><path class="cls-1" d="M225.2,227.8a6.58,6.58,0,0,0-6.56,6.75,6.47,6.47,0,0,0,6.65,6.65,6.35,6.35,0,0,0,6.07-3.82l-1.36-.72a5.35,5.35,0,0,1-4.88,3.05c-2.73,0-4.72-2.14-4.8-5.07H231.8C231.75,230.42,228.82,227.8,225.2,227.8Zm0,1.59A4.68,4.68,0,0,1,230,233.2h-9.51C221.24,230.61,222.94,229.39,225.22,229.39Z"/><path class="cls-2" d="M107.89,260c-1.26-.93-2-1.51-2.23-1.73a4.08,4.08,0,0,1-.85-1.14,2.64,2.64,0,0,1-.23-1.09,2.07,2.07,0,0,1,.66-1.56,2.37,2.37,0,0,1,1.7-.64,2.92,2.92,0,0,1,1.5.41,6.83,6.83,0,0,1,1.65,1.7l1.41-1.06a7.85,7.85,0,0,0-2.24-2.22A4.48,4.48,0,0,0,107,252a4.32,4.32,0,0,0-2.13.54,3.82,3.82,0,0,0-1.52,1.46,4,4,0,0,0-.54,2.05,4.3,4.3,0,0,0,.92,2.63,14.77,14.77,0,0,0,2.68,2.36,14,14,0,0,1,3,2.76,2.9,2.9,0,0,1,.59,1.7,2.75,2.75,0,0,1-.4,1.44,2.78,2.78,0,0,1-1.16,1.09,3.42,3.42,0,0,1-1.63.4q-2,0-3.57-2.84l-1.47.87a7.66,7.66,0,0,0,2.36,2.81,5.07,5.07,0,0,0,2.85.84,4.78,4.78,0,0,0,3.46-1.38,4.41,4.41,0,0,0,1.42-3.26,4.69,4.69,0,0,0-.83-2.59A12.44,12.44,0,0,0,107.89,260Z"/><path class="cls-2" d="M121.2,256.61a6.3,6.3,0,0,0-4.89,2.14,6.84,6.84,0,0,0,.1,9.27,6.76,6.76,0,0,0,9.58,0,6.85,6.85,0,0,0,.1-9.28A6.32,6.32,0,0,0,121.2,256.61Zm4.31,9.35a4.64,4.64,0,0,1-1.81,1.84,5.15,5.15,0,0,1-5,0,4.71,4.71,0,0,1-1.81-1.84,5.28,5.28,0,0,1-.67-2.58,5.06,5.06,0,0,1,1.47-3.66,4.85,4.85,0,0,1,7,0,5.06,5.06,0,0,1,1.47,3.66A5.17,5.17,0,0,1,125.51,266Z"/><path class="cls-2" d="M137.36,258.15a5.47,5.47,0,0,1,4.6,2.24l1.3-.81a5.49,5.49,0,0,0-1.4-1.58,6.88,6.88,0,0,0-2-1,8,8,0,0,0-2.45-.38,7.38,7.38,0,0,0-3.64.89,6.5,6.5,0,0,0-2.56,2.48,6.65,6.65,0,0,0-.93,3.44,6.24,6.24,0,0,0,2,4.67,6.94,6.94,0,0,0,5,1.92,7.74,7.74,0,0,0,3.51-.76,6.07,6.07,0,0,0,2.46-2.13l-1.3-.86a5.59,5.59,0,0,1-4.59,2.24,5.68,5.68,0,0,1-2.77-.68,5,5,0,0,1-1.94-1.91,5.15,5.15,0,0,1-.71-2.62,4.87,4.87,0,0,1,1.54-3.64A5.32,5.32,0,0,1,137.36,258.15Z"/><path class="cls-2" d="M147,251.69a1.31,1.31,0,0,0-.95.39,1.34,1.34,0,0,0-.39,1,1.3,1.3,0,0,0,.39,1,1.29,1.29,0,0,0,.95.4,1.35,1.35,0,0,0,1.35-1.35,1.33,1.33,0,0,0-1.35-1.35Z"/><rect class="cls-2" x="146.16" y="256.94" width="1.64" height="12.75"/><path class="cls-2" d="M162.3,259.28a6.51,6.51,0,0,0-2.23-2,6.09,6.09,0,0,0-2.84-.66,6.28,6.28,0,0,0-4.65,1.95,6.48,6.48,0,0,0-1.94,4.71,6.58,6.58,0,0,0,1.92,4.78,6.21,6.21,0,0,0,4.62,2,6.3,6.3,0,0,0,2.81-.63,7,7,0,0,0,2.31-1.89v2.2h1.62V256.94H162.3Zm-.54,6.7a4.7,4.7,0,0,1-1.86,1.84,5.13,5.13,0,0,1-2.55.68,4.92,4.92,0,0,1-2.5-.68A5.1,5.1,0,0,1,153,265.9a5.18,5.18,0,0,1,0-5.15,4.93,4.93,0,0,1,4.37-2.56,4.8,4.8,0,0,1,3.59,1.49,5.07,5.07,0,0,1,1.46,3.69A5.26,5.26,0,0,1,161.76,266Z"/><rect class="cls-2" x="167.36" y="252.01" width="1.64" height="17.67"/><polygon class="cls-2" points="195.24 252.45 188.3 266.59 181.29 252.45 181.01 252.45 178.54 269.69 180.21 269.69 181.9 257.26 188.07 269.69 188.51 269.69 194.6 257.36 196.31 269.69 198 269.69 195.52 252.45 195.24 252.45"/><path class="cls-2" d="M212.25,259.08a6.3,6.3,0,0,0-5.21-2.47A6.1,6.1,0,0,0,202,259a6.85,6.85,0,0,0-1.49,4.33,6.94,6.94,0,0,0,1.76,4.62,6.11,6.11,0,0,0,4.88,2,7.08,7.08,0,0,0,2.52-.42,6.35,6.35,0,0,0,2-1.25,7.63,7.63,0,0,0,1.57-2.16l-1.38-.73a7.42,7.42,0,0,1-1.4,1.81,4.77,4.77,0,0,1-1.56.9,5.4,5.4,0,0,1-1.9.34,4.53,4.53,0,0,1-3.39-1.42,5.17,5.17,0,0,1-1.42-3.64h11.47A6.88,6.88,0,0,0,212.25,259.08ZM202.34,262a5.58,5.58,0,0,1,1.49-2.64,4.7,4.7,0,0,1,3.23-1.2,5.09,5.09,0,0,1,2.17.48,4.54,4.54,0,0,1,1.66,1.26,5.53,5.53,0,0,1,1,2.1Z"/><path class="cls-2" d="M227.82,259.28a6.51,6.51,0,0,0-2.23-2,6.09,6.09,0,0,0-2.84-.66,6.32,6.32,0,0,0-4.66,1.95,6.51,6.51,0,0,0-1.93,4.71,6.58,6.58,0,0,0,1.92,4.78,6.21,6.21,0,0,0,4.62,2,6.3,6.3,0,0,0,2.81-.63,7,7,0,0,0,2.31-1.89v2.2h1.62V252h-1.62Zm-.54,6.7a4.7,4.7,0,0,1-1.86,1.84,5.13,5.13,0,0,1-2.55.68,4.92,4.92,0,0,1-2.5-.68,5.34,5.34,0,0,1-2.54-4.49,5.13,5.13,0,0,1,.68-2.58,4.93,4.93,0,0,1,4.37-2.56,4.8,4.8,0,0,1,3.59,1.49,5.07,5.07,0,0,1,1.46,3.69A5.26,5.26,0,0,1,227.28,266Z"/><rect class="cls-2" x="232.91" y="256.94" width="1.64" height="12.75"/><path class="cls-2" d="M233.72,251.69a1.29,1.29,0,0,0-.94.39,1.31,1.31,0,0,0-.4,1,1.37,1.37,0,0,0,1.34,1.35,1.37,1.37,0,0,0,1.36-1.35,1.35,1.35,0,0,0-1.36-1.35Z"/><path class="cls-2" d="M249,256.94v2.34a6.51,6.51,0,0,0-2.23-2,6.07,6.07,0,0,0-2.84-.66,6.32,6.32,0,0,0-4.65,1.95,6.48,6.48,0,0,0-1.94,4.71,6.58,6.58,0,0,0,1.92,4.78,6.22,6.22,0,0,0,4.62,2,6.3,6.3,0,0,0,2.81-.63,6.94,6.94,0,0,0,2.31-1.89v2.2h1.62V256.94Zm-.54,9a4.64,4.64,0,0,1-1.86,1.84,5.13,5.13,0,0,1-2.55.68,4.92,4.92,0,0,1-2.5-.68,5.1,5.1,0,0,1-1.85-1.92,5.16,5.16,0,0,1-.69-2.57,5.24,5.24,0,0,1,.68-2.58,5,5,0,0,1,4.37-2.56,4.8,4.8,0,0,1,3.59,1.49,5.07,5.07,0,0,1,1.46,3.69A5.26,5.26,0,0,1,248.5,266Z"/></g><g id="Layer_5" data-name="Layer 5"><path class="cls-3" d="M219.8,112.64a12.89,12.89,0,0,0-.25-1.88,1.94,1.94,0,0,0-1.75-1.45c-.57-.08-.86.1-1,.65s-.12.82-.17,1.23a2.05,2.05,0,0,1-1.64,2,1.06,1.06,0,0,0-1-.41h-1.13a.91.91,0,0,0-1,.9v6.17a.91.91,0,0,0,1,.91H214c.81,0,1.07-.19,1.24-.89H216c1.65,0,3.31,0,5,0a1.41,1.41,0,0,0,1.42-.89c.14-.31.24-.62.36-.94.36-1,.75-2,1.09-3a1.34,1.34,0,0,0-1.42-1.82H219.8C219.8,113,219.82,112.84,219.8,112.64Zm2.65,1.52c.48,0,.68.22.53.65-.32.94-.67,1.88-1,2.82-.13.36-.26.71-.4,1.07a.53.53,0,0,1-.55.34h-5.24c-.48,0-.62-.13-.62-.59,0-1.26,0-2.51,0-3.77a.62.62,0,0,1,.41-.65l.26-.13a2.42,2.42,0,0,0,1.64-2c.1-.51.16-1,.23-1.53,0-.06,0-.11,0-.18a.93.93,0,0,1,.83.61,4.87,4.87,0,0,1,.28,1.23,14.42,14.42,0,0,1,0,1.47c0,.5.13.65.64.65Z"/><path class="cls-3" d="M183,89.64a2.42,2.42,0,0,0-2.18-2.6l0,0h-7.6a2.77,2.77,0,0,0-1.51.72,2.28,2.28,0,0,0-.7,1.64c0,1.27,0,2.54,0,3.81a2.43,2.43,0,0,0,2.57,2.47H179a.75.75,0,0,1,.45.16c1.07.83,2.13,1.68,3.19,2.52l.3.23V89.64Zm-9,.27h6.48v.92H174Zm6.48,2.85H176v-.93h4.48Z"/><path class="cls-3" d="M141.11,158.86h-10a1,1,0,0,0-1,.62v6.82a1,1,0,0,0,1,.62h10a1,1,0,0,0,1.05-.62v-6.82A1,1,0,0,0,141.11,158.86Zm.12,1.36V166H131v-5.77l4.69,3.29a.59.59,0,0,0,.85,0l4.63-3.25Z"/><path class="cls-3" d="M211.89,168a7.32,7.32,0,0,0,2.75,1,8,8,0,0,0,2.74-.11,6.82,6.82,0,0,0,5.37-6.66.07.07,0,0,1,0-.08l.09-.09c.19-.17.4-.35.58-.54a2.64,2.64,0,0,0,.31-.37l.07-.08a.35.35,0,0,0,0-.43.37.37,0,0,0-.43-.12l-.07,0v0a4.11,4.11,0,0,0,.21-.42.35.35,0,0,0,0-.33.39.39,0,0,0-.27-.15.54.54,0,0,0-.27.06,5,5,0,0,1-1.12.43s0,0-.07,0l0,0a1.86,1.86,0,0,0-.32-.23,2.72,2.72,0,0,0-2.88,0,2.49,2.49,0,0,0-1.3,2.33h-.18l-.41-.08a6.31,6.31,0,0,1-3-1.51c-.13-.12-.26-.25-.38-.38l-.19-.2a.41.41,0,0,0-.34-.12.35.35,0,0,0-.27.19,2.48,2.48,0,0,0-.14,2.32,1,1,0,0,0,.12.23.52.52,0,0,0-.22.07.36.36,0,0,0-.14.3,2.58,2.58,0,0,0,.71,1.75,2.2,2.2,0,0,1,.2.23l0,0a.33.33,0,0,0-.08.38,2.62,2.62,0,0,0,1.37,1.5l.22.1a4.46,4.46,0,0,1-1.14.36,4.88,4.88,0,0,1-1.33.06.35.35,0,0,0-.41.24A.34.34,0,0,0,211.89,168Z"/><path class="cls-3" d="M142,112.68a3.63,3.63,0,0,0-3.15-2.54l-.12,0H133.5l-.59.1a3.57,3.57,0,0,0-2.82,3.4c0,1.51,0,3,0,4.53a3.61,3.61,0,0,0,3.64,3.5c1.6,0,3.19,0,4.79,0a3.64,3.64,0,0,0,3.6-3.13.5.5,0,0,1,0-.13v-5C142.1,113.14,142.06,112.9,142,112.68Zm-5.86,6.23a3,3,0,1,1,3.17-3A3.08,3.08,0,0,1,136.14,118.91Zm3.19-5.45a.7.7,0,0,1-.7-.68.71.71,0,0,1,.71-.67.68.68,0,1,1,0,1.35Z"/><path class="cls-3" d="M177.18,174.11h-.83v-3.33h.83Zm0-6.66h-.83v-3.33h.83Zm0-6.66h-.83v-3.33h.83Zm0-20h-.83v-3.33h.83Zm0-6.66h-.83v-3.33h.83Zm0-6.66h-.83v-3.33h.83Zm0-6.66h-.83v-3.33h.83Zm0-6.66h-.83v-3.33h.83Zm0-6.66h-.83v-3.33h.83Zm0-6.66h-.83V97.53h.83Z"/><path class="cls-3" d="M160.68,130.19l-2.85-1.72.43-.71,2.85,1.72Zm-5.7-3.44L152.12,125l.43-.71,2.86,1.72Zm-5.71-3.44-2.85-1.72.43-.71,2.85,1.72Zm-5.7-3.44-1.67-1,.43-.71,1.67,1Z"/><path class="cls-3" d="M192.75,130.2l-.42-.72,2.89-1.67.41.72Zm5.77-3.33-.42-.73,2.88-1.66.42.72Zm5.76-3.34-.41-.72,2.88-1.66.42.72Zm5.77-3.33-.42-.72,2.89-1.66.41.72Z"/><path class="cls-3" d="M143.84,158.45l-.42-.72,2.89-1.66.41.72Z"/><rect class="cls-3" x="208.53" y="155.96" width="0.83" height="3.33" transform="translate(-37.58 245.55) rotate(-56.66)"/><path class="cls-3" d="M179.7,189.46v-3.92h1.56l.36-2.76h-1.93v-.36c0-.22,0-.44,0-.66s0-.16.19-.18a3.77,3.77,0,0,1,.48,0h1l.22,0,0-.21v-.62c0-.43,0-.87,0-1.3a.34.34,0,0,0-.36-.37l-.57,0a10.86,10.86,0,0,0-1.15,0,2.62,2.62,0,0,0-2.64,2.18,7.41,7.41,0,0,0-.07.93v.33c0,.13,0,.26,0,.39h-1.61v2.76h1.6v3.92h-5.41c-.36,0-.5-.13-.5-.48V178.34c0-.35.14-.49.5-.49h11.14c.35,0,.5.14.5.47V189c0,.33-.15.47-.5.47Z"/><polyline class="cls-2" points="176.72 157.25 192.54 166.38 208.36 157.25 208.36 138.97 192.54 129.84 192.54 148.11 176.72 138.97"/><polyline class="cls-2" points="176.72 138.97 160.89 148.11 160.89 129.84 145.07 138.97 145.07 157.25 160.89 166.38 176.72 157.25"/></g></svg>