<svg xmlns="http://www.w3.org/2000/svg" viewBox="0 0 360 360"><defs><style>.cls-1{fill:#00152b;}</style></defs><g id="Layer_2" data-name="Layer 2"><path class="cls-1" d="M232.47,147.86l-27-15.58V105.79L180,91.07l-25.5,14.72v30L180,150.46l22.48-13,27,15.58ZM180,143.53l-19.52-11.25v-23L180,98l19.5,11.25v23Z"/><polygon class="cls-1" points="105.97 150.46 99.97 150.46 99.97 133.8 114.76 125.26 117.76 130.46 105.97 137.27 105.97 150.46"/><polygon class="cls-1" points="260 150.46 254 150.46 254 137.27 242.21 130.46 245.21 125.26 260 133.8 260 150.46"/><polygon class="cls-1" points="245.21 234.72 242.21 229.52 254 222.71 254 209.51 260 209.51 260 226.18 245.21 234.72"/><polygon class="cls-1" points="114.76 234.72 99.97 226.18 99.97 209.51 105.97 209.51 105.97 222.71 117.76 229.52 114.76 234.72"/><polygon class="cls-1" points="179.98 272.4 165.67 264.13 168.67 258.93 179.98 265.47 191.3 258.93 194.3 264.13 179.98 272.4"/><polygon class="cls-1" points="129 179.29 129 208.73 154.5 223.45 180 208.73 205.5 223.45 231 208.73 231 179.29 205.51 164.56 205.5 194.01 180 179.29 154.5 194.01 154.5 164.56 129 179.29"/><rect class="cls-1" x="234.33" y="120.66" width="1.5" height="6.38" transform="translate(10.27 265.5) rotate(-60)"/><rect class="cls-1" x="223.28" y="114.28" width="1.5" height="6.38" transform="translate(10.28 252.75) rotate(-60)"/><rect class="cls-1" x="212.23" y="107.9" width="1.5" height="6.38" transform="translate(10.28 239.99) rotate(-60)"/><rect class="cls-1" x="121.73" y="123.1" width="6.38" height="1.5" transform="translate(-45.21 79.12) rotate(-30.02)"/><rect class="cls-1" x="132.78" y="116.72" width="6.38" height="1.5" transform="translate(-40.53 83.79) rotate(-30.02)"/><rect class="cls-1" x="143.83" y="110.34" width="6.38" height="1.5" transform="translate(-35.86 88.46) rotate(-30.02)"/><rect class="cls-1" x="102.23" y="195.43" width="1.5" height="6.38"/><rect class="cls-1" x="102.23" y="182.67" width="1.5" height="6.38"/><rect class="cls-1" x="102.23" y="169.92" width="1.5" height="6.38"/><rect class="cls-1" x="102.23" y="157.16" width="1.5" height="6.38"/><rect class="cls-1" x="256.27" y="195.43" width="1.5" height="6.38"/><rect class="cls-1" x="256.27" y="182.67" width="1.5" height="6.38"/><rect class="cls-1" x="256.27" y="169.92" width="1.5" height="6.38"/><rect class="cls-1" x="256.27" y="157.16" width="1.5" height="6.38"/><rect class="cls-1" x="157.32" y="254.06" width="1.5" height="6.38" transform="translate(-143.76 265.5) rotate(-60)"/><rect class="cls-1" x="146.27" y="247.68" width="1.5" height="6.38" transform="translate(-143.76 252.74) rotate(-60)"/><rect class="cls-1" x="135.22" y="241.3" width="1.5" height="6.38" transform="translate(-143.75 239.99) rotate(-60)"/><rect class="cls-1" x="124.17" y="234.93" width="1.5" height="6.38" transform="translate(-143.75 227.23) rotate(-60)"/><rect class="cls-1" x="198.75" y="256.5" width="6.38" height="1.5" transform="translate(-101.62 135.55) rotate(-30.02)"/><rect class="cls-1" x="209.8" y="250.12" width="6.38" height="1.5" transform="translate(-96.95 140.23) rotate(-30.02)"/><rect class="cls-1" x="220.84" y="243.74" width="6.38" height="1.5" transform="translate(-92.27 144.9) rotate(-30.02)"/><rect class="cls-1" x="231.89" y="237.36" width="6.38" height="1.5" transform="translate(-87.6 149.57) rotate(-30.02)"/></g></svg>