<svg id="Layer_1" xmlns="http://www.w3.org/2000/svg" viewBox="0 0 68 78"><style>.st0{fill:#38d611}</style><path class="st0" d="M34 78c-.3 0-.5-.1-.8-.2L.8 59.1c-.5-.3-.8-.8-.8-1.4V20.3c0-.6.3-1.1.8-1.4L33.2.2c.5-.3 1.1-.3 1.6 0l32.4 18.7c.5.3.8.8.8 1.4v37.4c0 .6-.3 1.1-.8 1.3L34.8 77.8c-.2.1-.5.2-.8.2zM3.2 56.8L34 74.6l30.8-17.8V21.2L34 3.4 3.2 21.2v35.6z"/><path class="st0" d="M34 39.6l10.7-6.2L34 27.2l-10.7 6.2V21l-10.7 6.2V52l10.7 6.2V45.8L34 52v12.4l10.7-6.2V45.8L34 39.6z"/><path class="st0" d="M29.6 17.4l-1.3.8-.8.5.6 1.1 2.2-1.3-.7-1.1c.1 0 0 0 0 0zm-4.3 2.5l-1.5.9h-.1l-.6.3.6 1.1 2.2-1.3-.6-1zm-4.4 2.5l-2.2 1.3.6 1.1 2.2-1.3-.6-1.1zM16.5 25l-1.4.8H15l-.7.4.7 1.1 2.2-1.3-.7-1zm-4 2.7v2.5h1.3v-2.5h-1.3zm0 5.1v2.5h1.3v-2.5h-1.3zm0 5v2.5h1.3v-2.5h-1.3zm0 5v2.5h1.3v-2.4l-1.3-.1zm0 5v2.5h1.3v-2.4l-1.3-.1zm1.5 3.6l-.6 1.1 2.2 1.3.6-1.1-2.2-1.3zm4.4 2.5l-.6 1.1 2.2 1.3.6-1.1-2.2-1.3c0 .1 0 0 0 0zm4.4 2.5l-.6 1.1.7.4h.1l1.4.8.6-1.1-2.2-1.2c-.1 0 0 0 0 0zm4.3 2.6l-.6 1.1 1.3.8h.3l.5.3.6-1.1-2.2-1.3.1.2zm4.4 2.5l-.6 1.1 2.1 1.3.6-1.1-2.1-1.3zm5.3-.1l-2.2 1.3.6 1.1 2.2-1.3-.6-1.1zm4.4-2.6L39 60.1l.6 1.1 1.5-.9.7-.4-.6-1.1zm4.3-2.5l-2.2 1.3.6 1.1 2.1-1.2h.1l-.6-1.2c0 .1 0 0 0 0zm4.4-2.5l-2.2 1.3.6 1.1 1.5-.9.7-.4-.6-1.1zm4.4-2.5l-2.2 1.3.6 1.1 2.1-1.2-.5-1.2zm1.2-3.7h-1.3v2.5h1.3v-2.5zm0-5h-1.3v2.5h1.3v-2.5zm0-5h-1.3v2.5h1.3v-2.5c0-.1 0 0 0 0zm0-5h-1.3v2.5h1.3v-2.5c0-.1 0 0 0 0zm0-5h-1.3V30h1.3v-2.5.1zM51.3 25l-.7 1 2.2 1.3.6-1.2-1.4-.9-.1-.1h-.2l-.4-.1c.1-.1 0 0 0 0zm-4.4-2.6l-.6 1.1 2.2 1.3.6-1.1-2.2-1.3zm-4.4-2.5l-.6 1.1 2.2 1.3.6-1.2-2.2-1.3v.1zm-4.3-2.5l-.6 1.1 2.2 1.3.6-1.1-2.2-1.3zM34 14.9l-2.2 1.2.6 1.1 1.6-.9 1.3.8.6-1.1-1.9-1.1z"/></svg>