<svg xmlns="http://www.w3.org/2000/svg" width="120" height="49" viewBox="0 0 120 49">
    <g fill="#991782" fill-rule="nonzero">
        <path d="M101.88 37.265h1.06v3.12c.867-1.968 2.699-3.36 4.915-3.312v1.152h-.096c-2.554 0-4.771 1.92-4.771 5.52v4.512h-1.06V37.265h-.048zm-4.723-2.88h1.3v-1.44h-1.3v1.44zm.096 13.92h1.06v-11.04h-1.06v11.04zM84.337 45.09v-.048c0-2.304 1.976-3.6 4.82-3.6 1.542 0 2.602.192 3.662.48v-.48c0-2.208-1.35-3.36-3.662-3.36-1.35 0-2.458.384-3.47.864l-.386-.912c1.205-.576 2.41-.96 3.952-.96 1.494 0 2.699.384 3.47 1.2.723.72 1.157 1.728 1.157 3.12v6.864h-1.06v-1.824c-.772 1.056-2.121 2.112-4.242 2.112-2.024 0-4.24-1.152-4.24-3.456zm8.53-.912V42.93c-.915-.24-2.168-.48-3.759-.48-2.361 0-3.662 1.008-3.662 2.592v.048c0 1.584 1.494 2.544 3.229 2.544 2.265-.096 4.192-1.44 4.192-3.456zM25.06 16.53s-.723-.049-.915-.097c-.193-.048-.627-.192-.627-.384s.434-.336.627-.384c.192-.048.915-.096.915-.096l15.76-.72 3.517-11.52v-.048c.049-.144.049-.288.049-.432 0-.912-.723-1.632-1.639-1.632H34.94c-.723 0-1.35.48-1.542 1.152 0 .048-.049.096-.049.144L30.602 12.93 27.518 2.465l-.096-.336c-.241-.576-.82-.96-1.494-.96h-7.181c-.723 0-1.35.48-1.542 1.152l-3.133 10.512-2.65-10.32c0-.048-.049-.096-.049-.144a1.604 1.604 0 0 0-1.542-1.152h-8c-.915 0-1.638.72-1.638 1.632 0 .192 0 .336.096.48L8 29.01l.048.096c.241.624.82 1.104 1.542 1.104h7.615c.723 0 1.35-.48 1.542-1.152l3.614-11.184 3.47 11.088v.048l.049.096v.048c.24.576.819 1.008 1.493 1.008h7.663c.675 0 1.301-.432 1.494-1.056l.097-.24v-.048L40.24 17.01l-15.18-.48M55.566 14.225c.434-1.776 1.735-3.168 3.326-3.648.048-.768.481-5.52.626-5.808.145-.336.434-.336.482-.336h.096a.51.51 0 0 1 .482.336c.145.288.53 5.04.627 5.808 1.638.432 2.891 1.872 3.325 3.648l11.711.528v-.144C75.759 6.93 69.205.593 60.096.593c-9.156 0-15.759 6.432-16.24 14.16l11.71-.528M64.29 17.681c-.724 1.776-2.362 3.024-4.242 3.024s-3.47-1.248-4.24-3.024l-11.856-.432c.77 7.392 7.229 13.392 16.096 13.392 8.868 0 15.325-6.048 16.145-13.392l-11.904.432M118.41 1.217h-7.856c-.723 0-1.35.48-1.542 1.152 0 .048-.048.096-.048.144l-2.747 10.416-3.133-10.464-.096-.384c-.241-.576-.82-.96-1.494-.96h-7.18c-.724 0-1.35.48-1.543 1.152l-3.132 10.56-2.651-10.272c0-.048-.048-.096-.048-.144a1.604 1.604 0 0 0-1.542-1.152h-8.049c-.915 0-1.638.72-1.638 1.632 0 .144.048.336.096.48l3.47 11.52 15.711.672s.723.048.916.096c.192.048.626.192.626.384s-.434.336-.626.384c-.193.048-.916.096-.916.096l-15.036.576 3.566 11.856.048.096c.241.624.82 1.104 1.542 1.104h7.615c.723 0 1.35-.48 1.542-1.152l3.615-11.184 3.47 11.088s0 .048.048.048l.048.096v.048c.24.576.82 1.008 1.494 1.008h7.662c.675 0 1.253-.432 1.494-1.056l.049-.24v-.048l7.759-25.536v-.048c.048-.144.048-.288.048-.432.096-.816-.627-1.536-1.542-1.536"/>
    </g>
</svg>
