<svg xmlns="http://www.w3.org/2000/svg" width="173" height="32" viewBox="0 0 173 32">
    <g fill="none" fill-rule="nonzero">
        <path fill="#00D66C" d="M31.215 15.734c0-8.66-6.77-15.436-15.42-15.436S.377 7.263.377 15.734c0 8.659 6.77 15.435 15.42 15.435 8.462.188 15.42-6.776 15.42-15.435"/>
        <path fill="#FFF" d="M22.565 17.993h-.94c-.94 0-1.316.376-1.316 1.317-.188 1.694-1.505 2.824-3.197 2.824-2.069 0-3.197-1.506-3.197-3.577v-4.894-.565c.188 0 .376.189.752.189h4.513c.94 0 1.317-.565 1.317-1.318v-.376c0-.942-.564-1.318-1.317-1.318h-2.82V7.45c0-.94-.564-1.317-1.317-1.317h-.564c-.94 0-1.316.564-1.316 1.317v5.083c-.188 0-.376-.189-.752-.189H7.898c-.94 0-1.316.565-1.316 1.318v.377c0 .94.564 1.317 1.316 1.317h2.632v3.2c0 3.953 2.633 6.777 6.582 6.777 3.76 0 6.205-2.447 6.77-6.024 0-.753-.565-1.317-1.317-1.317"/>
        <path fill="#00D66C" d="M52.464 24.016h3.573V16.11c0-2.823 1.504-3.765 3.385-3.765 1.128 0 1.88.377 2.632.942l1.693-2.824c-.94-.941-2.257-1.318-3.573-1.318-1.692 0-3.385.753-4.325 2.448l-.188-2.071h-3.197v14.494zM154.76 5.757c0-1.317-1.128-2.07-2.257-2.07-1.128 0-2.068.753-2.068 2.07 0 1.506 1.128 2.07 2.068 2.07 1.129 0 2.257-.752 2.257-2.07zM45.695 5.004l-3.573.377v3.764h-2.633v3.2h2.633v6.589c0 3.576 2.068 5.27 5.077 5.27a7.266 7.266 0 0 0 3.197-.753l-.94-3.011c-.565.188-1.129.376-1.693.376-1.128 0-1.88-.753-1.88-2.07v-6.4h4.137v-3.2h-4.137V5.003h-.188zm33.847 4.33h-3.196l-.188 2.07c-.94-1.506-2.633-2.447-5.078-2.447-4.137 0-7.521 2.447-7.521 7.718 0 5.082 3.573 7.718 7.521 7.718 2.445 0 4.137-.942 4.89-2.448l.188 2.071h3.196V9.334h.188zm71.269 14.682h3.573V9.334h-3.573v14.682zm-79.354-2.823c-2.445 0-4.325-1.695-4.325-4.518 0-2.824 1.88-4.518 4.325-4.518 2.444 0 4.325 1.694 4.325 4.518.188 2.823-1.693 4.518-4.325 4.518zm59.421-11.86h-3.196l-.189 2.071c-.752-1.317-2.444-2.447-4.889-2.447-4.137 0-7.521 2.447-7.521 7.718 0 5.082 3.572 7.718 7.521 7.718 2.445 0 4.137-.942 4.89-2.448l.188 2.071h3.196V9.334zm-8.086 11.86c-2.444 0-4.325-1.695-4.325-4.518 0-2.824 1.88-4.518 4.325-4.518 2.445 0 4.325 1.694 4.325 4.518.188 2.823-1.692 4.518-4.325 4.518zM173 9.333h-3.197l-.188 2.071c-.752-1.317-2.444-2.447-4.889-2.447-4.137 0-7.522 2.447-7.522 7.718 0 5.082 3.573 7.718 7.522 7.718 2.445 0 4.137-.942 4.89-2.448l.187 2.071H173V9.334zm-7.898 11.86c-2.444 0-4.325-1.695-4.325-4.518 0-2.824 1.88-4.518 4.325-4.518 2.445 0 4.325 1.694 4.325 4.518 0 2.823-1.88 4.518-4.325 4.518zm-22.377 2.823l6.205-14.682h-3.76l-4.137 10.73-4.325-10.919h-3.95l6.206 14.683h3.761v.188zm-59.798 0H86.5V16.11c0-2.447 1.692-3.953 3.76-3.953 2.07 0 3.574 1.318 3.574 3.953v7.906h3.573v-8.47c0-4.33-2.633-6.589-6.206-6.589-2.256 0-3.949.941-4.889 2.447l-.188-2.07h-3.197v14.682zm23.694.377c4.513 0 6.393-2.071 6.393-4.706 0-3.389-3.197-4.142-5.641-4.518-1.505-.188-3.761-.376-3.761-1.694 0-1.13 1.316-1.506 2.82-1.506 1.317 0 2.821.376 3.95 1.318l1.88-2.447c-1.692-1.318-3.573-1.883-5.641-1.883-3.197 0-6.582 1.13-6.582 4.706 0 3.2 3.009 4.141 5.641 4.518 1.505.188 3.761.376 3.761 1.694 0 1.13-1.128 1.506-2.632 1.506-1.693 0-3.95-.565-5.266-2.07l-1.88 2.446c1.88 2.07 4.701 2.636 6.958 2.636z"/>
    </g>
</svg>
