<svg xmlns="http://www.w3.org/2000/svg" viewBox="0 0 360 360"><defs><style>.cls-1{fill:#fff;}</style></defs><g id="Layer_2" data-name="Layer 2"><polygon class="cls-1" points="130.04 229.1 134.91 216.91 139.69 229.1 140.73 229.1 145.97 210.86 143.18 210.86 139.9 222.23 135.43 210.86 134.39 210.86 129.87 222.23 126.64 210.86 123.83 210.86 129 229.1 130.04 229.1"/><path class="cls-1" d="M157,229a6.77,6.77,0,0,0,2.16-1.35,8.1,8.1,0,0,0,1.68-2.3l.22-.44-2.23-1.17-.25.4a7.09,7.09,0,0,1-1.29,1.69,4.61,4.61,0,0,1-1.41.81,5.13,5.13,0,0,1-1.73.31,4,4,0,0,1-3-1.27,4.59,4.59,0,0,1-1.25-2.8h11.45v-.5a7.45,7.45,0,0,0-1.52-4.67,6.8,6.8,0,0,0-5.6-2.66,6.6,6.6,0,0,0-5.45,2.61,7.33,7.33,0,0,0-1.59,4.63,7.41,7.41,0,0,0,1.88,5,6.59,6.59,0,0,0,5.26,2.22A7.68,7.68,0,0,0,157,229Zm-6.8-8.53a4.4,4.4,0,0,1,1.13-1.77,4.18,4.18,0,0,1,2.89-1.08,4.57,4.57,0,0,1,2,.44,3.87,3.87,0,0,1,1.48,1.12,4.35,4.35,0,0,1,.68,1.29Z"/><path class="cls-1" d="M172.83,228.74a7.09,7.09,0,0,0,1.59-1.08v1.44H177V215.35h-2.62v1.49a6.39,6.39,0,0,0-4.57-1.82,6.8,6.8,0,0,0-5,2.11,7,7,0,0,0-2.08,5.06,7.06,7.06,0,0,0,2.06,5.12,6.94,6.94,0,0,0,8,1.43Zm-6.78-4.17a4.65,4.65,0,0,1-.62-2.33,4.72,4.72,0,0,1,.61-2.33A4.47,4.47,0,0,1,170,217.6a4.31,4.31,0,0,1,3.23,1.34,4.54,4.54,0,0,1,1.32,3.35,4.72,4.72,0,0,1-.59,2.36,4.25,4.25,0,0,1-1.66,1.65,4.51,4.51,0,0,1-4.56,0A4.63,4.63,0,0,1,166.05,224.57Z"/><polygon class="cls-1" points="185.52 229.1 191.81 215.35 188.95 215.35 185.04 223.94 181.09 215.35 178.24 215.35 184.57 229.1 185.52 229.1"/><path class="cls-1" d="M192.8,210.65a1.85,1.85,0,1,0,2.61,0A1.83,1.83,0,0,0,192.8,210.65Z"/><rect class="cls-1" x="192.78" y="215.35" width="2.64" height="13.75"/><path class="cls-1" d="M208.92,216.84a6.39,6.39,0,0,0-4.57-1.82,6.8,6.8,0,0,0-5,2.11,7,7,0,0,0-2.08,5.06,7.06,7.06,0,0,0,2.06,5.12,6.94,6.94,0,0,0,8,1.43,7.09,7.09,0,0,0,1.59-1.08v1.44h2.62V215.35h-2.62Zm-1.21,2.1a4.54,4.54,0,0,1,1.32,3.35,4.72,4.72,0,0,1-.59,2.36,4.25,4.25,0,0,1-1.66,1.65,4.51,4.51,0,0,1-4.56,0,4.79,4.79,0,0,1-2.29-4.06,4.72,4.72,0,0,1,.61-2.33,4.47,4.47,0,0,1,3.94-2.31A4.31,4.31,0,0,1,207.71,218.94Z"/><polygon class="cls-1" points="215.66 229.1 218.3 229.1 218.3 217.77 220.9 217.77 220.9 215.35 218.3 215.35 218.3 210.62 215.66 210.62 215.66 215.35 213.42 215.35 213.42 217.77 215.66 217.77 215.66 229.1"/><path class="cls-1" d="M228.88,229.43a7.64,7.64,0,0,0,2.7-.46,6.82,6.82,0,0,0,2.17-1.35,8.3,8.3,0,0,0,1.68-2.3l.22-.44-2.24-1.17-.24.4a7.08,7.08,0,0,1-1.3,1.69,4.5,4.5,0,0,1-1.41.81,5,5,0,0,1-1.72.31,4,4,0,0,1-3-1.27,4.48,4.48,0,0,1-1.25-2.8h11.45v-.5a7.45,7.45,0,0,0-1.51-4.67,6.83,6.83,0,0,0-5.6-2.66,6.58,6.58,0,0,0-5.45,2.61,7.34,7.34,0,0,0-1.6,4.63,7.41,7.41,0,0,0,1.88,5A6.62,6.62,0,0,0,228.88,229.43Zm-4.09-9a4.4,4.4,0,0,1,1.13-1.77,4.16,4.16,0,0,1,2.89-1.08,4.6,4.6,0,0,1,2,.44,4,4,0,0,1,1.48,1.12,4.35,4.35,0,0,1,.68,1.29Z"/><path class="cls-1" d="M107,242.42a7.64,7.64,0,0,1,3.82-1,7.93,7.93,0,0,1,3.46.75,7.56,7.56,0,0,1,2.7,2.22l1.36-1a8.53,8.53,0,0,0-3.18-2.68,9.86,9.86,0,0,0-4.36-1,9.15,9.15,0,0,0-6.65,2.58,8.54,8.54,0,0,0-2.66,6.37,9.08,9.08,0,0,0,2.19,6.14,9,9,0,0,0,7.14,3,10.22,10.22,0,0,0,4.31-.89,8.78,8.78,0,0,0,3.21-2.54l-1.36-1a7.65,7.65,0,0,1-6,2.83,7.48,7.48,0,0,1-5.46-2.11,7,7,0,0,1-2.16-5.26,7.37,7.37,0,0,1,1-3.75A7.12,7.12,0,0,1,107,242.42Z"/><polygon class="cls-1" points="126.28 254.47 121.89 244.65 120.16 244.65 125.39 256.43 122.94 262.06 124.67 262.06 132.28 244.65 130.53 244.65 126.28 254.47"/><path class="cls-1" d="M141.25,244.32a6.22,6.22,0,0,0-2.8.63,7,7,0,0,0-2.31,1.89v-7.11H134.5V257.4h1.64v-2.34a6.69,6.69,0,0,0,2.24,2,6,6,0,0,0,2.82.67,6.29,6.29,0,0,0,4.65-2,6.46,6.46,0,0,0,1.93-4.72,6.6,6.6,0,0,0-1.91-4.77A6.26,6.26,0,0,0,141.25,244.32Zm4.18,9.26a5,5,0,0,1-4.36,2.57,4.84,4.84,0,0,1-3.59-1.49A5.09,5.09,0,0,1,136,251a5.19,5.19,0,0,1,.65-2.61,4.74,4.74,0,0,1,1.85-1.84,5.1,5.1,0,0,1,2.56-.69,4.76,4.76,0,0,1,2.48.69,5,5,0,0,1,1.86,1.91,5.21,5.21,0,0,1,.69,2.59A5.14,5.14,0,0,1,145.43,253.58Z"/><path class="cls-1" d="M161.9,246.79a6.31,6.31,0,0,0-5.21-2.47,6.09,6.09,0,0,0-5.05,2.42,6.75,6.75,0,0,0-1.49,4.32,6.85,6.85,0,0,0,1.76,4.62,6.07,6.07,0,0,0,4.88,2.05,6.9,6.9,0,0,0,2.52-.43,6.24,6.24,0,0,0,2-1.25,7.59,7.59,0,0,0,1.58-2.15l-1.39-.73a7.85,7.85,0,0,1-1.39,1.81,5.21,5.21,0,0,1-1.57.9,5.58,5.58,0,0,1-1.89.34,4.57,4.57,0,0,1-3.4-1.42,5.23,5.23,0,0,1-1.41-3.65h11.47A7,7,0,0,0,161.9,246.79Zm-9.9,3a5.41,5.41,0,0,1,1.49-2.64,4.65,4.65,0,0,1,3.23-1.21,5.12,5.12,0,0,1,2.17.48,4.54,4.54,0,0,1,1.66,1.27,5.38,5.38,0,0,1,.95,2.1Z"/><path class="cls-1" d="M169,244.87a5.93,5.93,0,0,0-1.58,1.64v-1.86h-1.67V257.4h1.67v-4.31a19.58,19.58,0,0,1,.31-4.41,4.22,4.22,0,0,1,1.16-2.09,2.34,2.34,0,0,1,1.58-.67,2.3,2.3,0,0,1,.87.22l.85-1.39a3.07,3.07,0,0,0-1.45-.43A3.11,3.11,0,0,0,169,244.87Z"/><path class="cls-1" d="M176.87,250.15a6.69,6.69,0,0,1-2-1.35,1.85,1.85,0,0,1-.47-1.19,1.65,1.65,0,0,1,.57-1.23,1.94,1.94,0,0,1,1.37-.52,3.8,3.8,0,0,1,2.57,1.27L180,246a5.24,5.24,0,0,0-3.55-1.72,3.46,3.46,0,0,0-2.51,1,3.23,3.23,0,0,0-1,2.42,3.35,3.35,0,0,0,.62,2,6.74,6.74,0,0,0,2.35,1.75,7.4,7.4,0,0,1,2.07,1.36,1.9,1.9,0,0,1,.46,1.26,2,2,0,0,1-.69,1.49,2.44,2.44,0,0,1-1.68.63,3.58,3.58,0,0,1-2.67-1.42l-1,1.17a4.51,4.51,0,0,0,1.66,1.33,4.83,4.83,0,0,0,2.11.48,3.77,3.77,0,0,0,2.75-1.09A3.6,3.6,0,0,0,180,254a3.37,3.37,0,0,0-.65-2A7.44,7.44,0,0,0,176.87,250.15Z"/><path class="cls-1" d="M194,246.79a6.3,6.3,0,0,0-5.2-2.47,6.09,6.09,0,0,0-5.06,2.42,6.81,6.81,0,0,0-1.49,4.32,6.9,6.9,0,0,0,1.76,4.62,6.07,6.07,0,0,0,4.88,2.05,6.87,6.87,0,0,0,2.52-.43,6.39,6.39,0,0,0,2-1.25A7.77,7.77,0,0,0,195,253.9l-1.38-.73a8.13,8.13,0,0,1-1.4,1.81,5.09,5.09,0,0,1-1.57.9,5.54,5.54,0,0,1-1.89.34,4.54,4.54,0,0,1-3.39-1.42,5.19,5.19,0,0,1-1.42-3.65h11.47A6.85,6.85,0,0,0,194,246.79Zm-9.9,3a5.41,5.41,0,0,1,1.49-2.64,4.66,4.66,0,0,1,3.23-1.21,5.09,5.09,0,0,1,2.17.48,4.46,4.46,0,0,1,1.66,1.27,5.39,5.39,0,0,1,1,2.1Z"/><path class="cls-1" d="M205,245.87a5.42,5.42,0,0,1,4.6,2.24l1.3-.81a5.33,5.33,0,0,0-1.39-1.58,6.7,6.7,0,0,0-2-1,7.69,7.69,0,0,0-2.44-.39,7.53,7.53,0,0,0-3.65.89,6.63,6.63,0,0,0-2.56,2.48,6.7,6.7,0,0,0-.93,3.44,6.3,6.3,0,0,0,2,4.68,6.94,6.94,0,0,0,5,1.92,7.94,7.94,0,0,0,3.51-.76,6.14,6.14,0,0,0,2.45-2.14l-1.3-.85a5.86,5.86,0,0,1-7.35,1.56,5,5,0,0,1-1.95-1.91,5.17,5.17,0,0,1-.7-2.62,4.9,4.9,0,0,1,1.53-3.64A5.33,5.33,0,0,1,205,245.87Z"/><path class="cls-1" d="M223.3,250.6a12.41,12.41,0,0,1-.25,3.13,3.35,3.35,0,0,1-1.32,1.74,4.46,4.46,0,0,1-4.7,0,3.36,3.36,0,0,1-1.34-1.85,12.51,12.51,0,0,1-.23-3v-5.95h-1.64v6.14a10.31,10.31,0,0,0,.61,4.07,4.66,4.66,0,0,0,1.86,2.11,5.89,5.89,0,0,0,3.12.76,5.81,5.81,0,0,0,3.1-.76,4.7,4.7,0,0,0,1.85-2.09,9.89,9.89,0,0,0,.61-4v-6.26H223.3Z"/><path class="cls-1" d="M231.25,244.87a5.93,5.93,0,0,0-1.58,1.64v-1.86H228V257.4h1.67v-4.31a19.58,19.58,0,0,1,.31-4.41,4.22,4.22,0,0,1,1.16-2.09,2.34,2.34,0,0,1,1.58-.67,2.3,2.3,0,0,1,.87.22l.85-1.39a3.07,3.07,0,0,0-1.45-.43A3.11,3.11,0,0,0,231.25,244.87Z"/><path class="cls-1" d="M236.4,239.4a1.37,1.37,0,0,0-1.34,1.36,1.29,1.29,0,0,0,.4,1,1.3,1.3,0,0,0,.94.4,1.37,1.37,0,0,0,1.36-1.35,1.31,1.31,0,0,0-.4-1A1.29,1.29,0,0,0,236.4,239.4Z"/><rect class="cls-1" x="235.59" y="244.65" width="1.64" height="12.75"/><polygon class="cls-1" points="243.71 239.91 242.07 239.91 242.07 244.65 239.83 244.65 239.83 246.07 242.07 246.07 242.07 257.4 243.71 257.4 243.71 246.07 246.31 246.07 246.31 244.65 243.71 244.65 243.71 239.91"/><polygon class="cls-1" points="257.77 244.65 253.52 254.47 249.14 244.65 247.4 244.65 252.63 256.43 250.18 262.06 251.91 262.06 259.52 244.65 257.77 244.65"/><path class="cls-1" d="M143.26,94.46l0,61.57L180,177.55,216.76,156l0-60.9L180,86.5Zm69.49,29.86-15.38-8.89v19.64l-17-9.82v19.63l17,9.82,15.4-8.89v7.92l-32.42,19V144.89l-17,9.81-16.08-9.29V124.73l16.09-9.29v19.63l17-9.81V90.68l32.38,7.62Z"/><path class="cls-1" d="M230.84,155.08l-1.48.86.5.86,1.73-1a.47.47,0,0,0,.25-.43v-2h-1Z"/><rect class="cls-1" x="230.84" y="102.34" width="1" height="4.25"/><rect class="cls-1" x="230.84" y="144.87" width="1" height="4.25"/><rect class="cls-1" x="230.84" y="119.35" width="1" height="4.25"/><rect class="cls-1" x="230.84" y="127.85" width="1" height="4.25"/><rect class="cls-1" x="230.84" y="110.84" width="1" height="4.25"/><rect class="cls-1" x="230.84" y="136.36" width="1" height="4.25"/><path class="cls-1" d="M231.59,95.65l-1.73-1-.5.87,1.48.85v1.71h1v-2A.48.48,0,0,0,231.59,95.65Z"/><rect class="cls-1" x="208.86" y="81.26" width="1" height="4.25" transform="translate(32.48 223.03) rotate(-60.01)"/><rect class="cls-1" x="194.12" y="72.76" width="1" height="4.25" transform="translate(32.47 206) rotate(-60)"/><rect class="cls-1" x="223.59" y="89.77" width="1" height="4.25" transform="translate(32.48 240.04) rotate(-60.01)"/><rect class="cls-1" x="216.22" y="85.51" width="1" height="4.25" transform="translate(32.48 231.53) rotate(-60.01)"/><rect class="cls-1" x="186.76" y="68.5" width="1" height="4.25" transform="translate(32.47 197.49) rotate(-60)"/><rect class="cls-1" x="201.49" y="77.01" width="1" height="4.25" transform="translate(32.48 214.52) rotate(-60.01)"/><path class="cls-1" d="M180,67l1.48.85L182,67l-1.73-1a.5.5,0,0,0-.5,0L178,67l.5.86Z"/><rect class="cls-1" x="141.15" y="87.14" width="4.25" height="1" transform="translate(-24.63 83.45) rotate(-30.02)"/><rect class="cls-1" x="133.79" y="91.39" width="4.25" height="1" transform="translate(-27.74 80.33) rotate(-30.02)"/><rect class="cls-1" x="148.52" y="82.89" width="4.25" height="1" transform="translate(-21.51 86.56) rotate(-30.02)"/><rect class="cls-1" x="170.62" y="70.13" width="4.25" height="1" transform="translate(-12.16 95.91) rotate(-30.02)"/><rect class="cls-1" x="155.88" y="78.64" width="4.25" height="1" transform="translate(-18.39 89.68) rotate(-30.02)"/><rect class="cls-1" x="163.25" y="74.38" width="4.25" height="1" transform="translate(-15.28 92.79) rotate(-30.02)"/><path class="cls-1" d="M128.4,95.65a.5.5,0,0,0-.25.43v2h1V96.37l1.49-.85-.5-.87Z"/><rect class="cls-1" x="128.15" y="119.35" width="1" height="4.25"/><rect class="cls-1" x="128.15" y="110.84" width="1" height="4.25"/><rect class="cls-1" x="128.15" y="136.36" width="1" height="4.25"/><rect class="cls-1" x="128.15" y="102.34" width="1" height="4.25"/><rect class="cls-1" x="128.15" y="127.85" width="1" height="4.25"/><rect class="cls-1" x="128.15" y="144.87" width="1" height="4.25"/><path class="cls-1" d="M129.15,153.37h-1v2a.49.49,0,0,0,.25.43l1.74,1,.5-.86-1.49-.86Z"/><rect class="cls-1" x="135.41" y="157.43" width="1" height="4.25" transform="translate(-70.22 197.51) rotate(-60.01)"/><rect class="cls-1" x="142.78" y="161.69" width="1" height="4.25" transform="translate(-70.22 206.02) rotate(-60.01)"/><rect class="cls-1" x="172.24" y="178.7" width="1" height="4.25" transform="translate(-70.23 240) rotate(-60)"/><rect class="cls-1" x="157.51" y="170.19" width="1" height="4.25" transform="translate(-70.23 223.01) rotate(-60)"/><rect class="cls-1" x="164.88" y="174.45" width="1" height="4.25" transform="translate(-70.23 231.52) rotate(-60)"/><rect class="cls-1" x="150.14" y="165.94" width="1" height="4.25" transform="translate(-70.22 214.53) rotate(-60.01)"/><path class="cls-1" d="M180,184.44l-1.48-.86-.5.87,1.73,1a.48.48,0,0,0,.5,0l1.73-1-.5-.87Z"/><rect class="cls-1" x="192.5" y="176.07" width="4.25" height="1" transform="translate(-62.23 121.07) rotate(-30.02)"/><rect class="cls-1" x="185.13" y="180.33" width="4.25" height="1" transform="translate(-65.35 117.95) rotate(-30.02)"/><rect class="cls-1" x="207.23" y="167.57" width="4.25" height="1" transform="translate(-56 127.3) rotate(-30.02)"/><rect class="cls-1" x="221.96" y="159.06" width="4.25" height="1" transform="translate(-49.77 133.53) rotate(-30.02)"/><rect class="cls-1" x="199.86" y="171.82" width="4.25" height="1" transform="translate(-59.12 124.18) rotate(-30.02)"/><rect class="cls-1" x="214.6" y="163.31" width="4.25" height="1" transform="translate(-52.89 130.41) rotate(-30.02)"/></g></svg>