<svg xmlns="http://www.w3.org/2000/svg" width="71" height="82" viewBox="0 0 71 82">
    <g fill="#38D611" fill-rule="evenodd">
        <path d="M13.46 40.17v12.79l11.07 6.39 11.08-6.39 11.07 6.39 11.07-6.39V40.17l-11.07-6.39v12.78l-11.07-6.39-11.08 6.39V33.78z"/>
        <path fill-rule="nonzero" d="M35.6 81.14a1.57 1.57 0 0 1-.81-.22L1.34 61.61a1.63 1.63 0 0 1-.81-1.41V21.58c0-.58.308-1.118.81-1.41L34.79.86a1.62 1.62 0 0 1 1.62 0l33.45 19.31c.502.292.81.83.81 1.41V60.2a1.63 1.63 0 0 1-.81 1.41L36.41 80.92a1.57 1.57 0 0 1-.81.22zM3.78 59.26L35.6 77.63l31.82-18.37V22.52L35.6 4.15 3.78 22.52v36.74z"/>
        <path fill-rule="nonzero" d="M67.27 59.92L65 58.62l.65-1.13 2.26 1.31-.64 1.12zm-4.52-2.6L60.5 56l.65-1.13 2.25 1.3-.65 1.15zm-4.51-2.61L56 53.41l.65-1.13 2.26 1.31-.67 1.12zm-4.51-2.6l-2.26-1.3.65-1.13L54.38 51l-.65 1.11zm-4.52-2.61L47 48.2l.65-1.13 2.26 1.3-.7 1.13zm-4.51-2.6l-2.26-1.31.66-1.12 2.25 1.3-.65 1.13zm-4.51-2.61L37.93 43l.65-1.13 2.26 1.3-.65 1.12zm-4.52-2.6l-2.25-1.31.65-1.13 2.26 1.31-.66 1.13zm-4.51-2.61l-2.25-1.3.65-1.13L31.81 38l-.65 1.08zm-4.51-2.6l-2.26-1.31L25 34l2.26 1.31-.61 1.17zm-4.51-2.61l-2.26-1.3.65-1.13 2.26 1.3-.65 1.13zm-4.52-2.61L15.37 30l.63-1.17 2.25 1.31-.63 1.12zm-4.51-2.6l-2.26-1.3.66-1.13 2.25 1.3-.65 1.13zM8.6 26.05l-2.26-1.3.66-1.13 2.26 1.3-.66 1.13zm-4.52-2.6l-2.25-1.31.65-1.14 2.26 1.3-.66 1.15z"/>
        <path fill-rule="nonzero" d="M3.93 59.92l-.65-1.12 2.26-1.31.65 1.13-2.26 1.3zm4.52-2.6l-.66-1.13 2.26-1.3.65 1.11-2.25 1.32zM13 54.71l-.65-1.12 2.25-1.31.66 1.13-2.26 1.3zm4.51-2.6L16.82 51l2.26-1.3.65 1.13-2.22 1.28zM22 49.5l-.65-1.13 2.26-1.3.65 1.13L22 49.5zm4.52-2.6l-.65-1.13 2.25-1.3.65 1.12-2.25 1.31zM31 44.29l-.65-1.13 2.26-1.3.66 1.14L31 44.29zm4.51-2.6l-.65-1.13 2.26-1.31.65 1.13-2.26 1.31zM40 39.08L39.39 38l2.25-1.3.65 1.13L40 39.08zm4.51-2.6l-.65-1.13L46.15 34l.66 1.13-2.3 1.35zm4.51-2.61l-.65-1.13 2.26-1.3.65 1.13-2.26 1.3zm4.52-2.61l-.66-1.12 2.26-1.31.69 1.17-2.29 1.26zm4.51-2.6l-.65-1.13 2.25-1.3.65 1.13-2.25 1.3zm4.51-2.61L62 24.92l2.26-1.3.65 1.13-2.35 1.3zm4.51-2.6l-.65-1.13 2.26-1.3.65 1.12-2.26 1.31z"/>
        <path fill-rule="nonzero" d="M36.25 77.83H35v-2.6h1.3l-.05 2.6zm0-5.21H35V70h1.3l-.05 2.62zm0-5.21H35V64.8h1.3l-.05 2.61zm0-5.21H35v-2.61h1.3l-.05 2.61zm0-5.21H35v-2.61h1.3l-.05 2.61zm0-5.21H35v-2.61h1.3l-.05 2.61zm0-5.22H35V44h1.3l-.05 2.56zm0-5.21H35v-2.6h1.3l-.05 2.6zm0-5.21H35v-2.6h1.3l-.05 2.6zm0-5.21H35v-2.6h1.3l-.05 2.6zm0-5.21H35v-2.61h1.3l-.05 2.61zm0-5.21H35V17.9h1.3l-.05 2.61zm0-5.21H35v-2.61h1.3l-.05 2.61zm0-5.21H35V7.48h1.3l-.05 2.61zm0-5.21H35V2.27h1.3l-.05 2.61z"/>
    </g>
</svg>
