<svg xmlns="http://www.w3.org/2000/svg" width="76" height="84" viewBox="0 0 76 84">
    <g fill="none" fill-rule="evenodd">
        <path fill="#005DCF" d="M37.357 5.7l1.27-2.199L71.25 22.336l-1.27 2.2z"/>
        <path fill="#005DCF" d="M69.35 23.45h2.54v24.5h-2.54zM37.348 78.856L59.7 65.95l1.27 2.2-22.352 12.904z"/>
        <path fill="#005DCF" d="M4.73 62.213l1.27-2.2 32.624 18.835-1.27 2.2zM6.64 34.78v-10.6l11.15-6.44-1.27-2.2-11.79 6.81a1.27 1.27 0 0 0-.64 1.1v11.33h2.55z"/>
        <path fill="#005DCF" d="M16.18 17.972l1.27-2.2 52.975 30.585-1.27 2.2zM4.129 35.964l1.27-2.2 56.153 32.42-1.27 2.2z"/>
        <path fill="#005DCF" d="M16.39 41.48v12.47l10.8 6.24 10.8-6.24 10.81 6.24 10.8-6.24V41.48l-10.8-6.24v12.48l-10.81-6.24-10.8 6.24V35.24z"/>
        <circle cx="38.01" cy="4.96" r="3.53" fill="#FFF"/>
        <path fill="#005DCF" fill-rule="nonzero" d="M38 9.44A4.48 4.48 0 1 1 42.49 5 4.49 4.49 0 0 1 38 9.44zm0-7.06A2.58 2.58 0 1 0 40.59 5 2.59 2.59 0 0 0 38 2.38z"/>
        <circle cx="70.51" cy="23.04" r="3.53" fill="#FFF"/>
        <path fill="#005DCF" fill-rule="nonzero" d="M70.51 27.53a4.49 4.49 0 1 1 0-8.98 4.49 4.49 0 0 1 0 8.98zm0-7.06a2.58 2.58 0 1 0 .001 5.16 2.58 2.58 0 0 0-.001-5.16z"/>
        <circle cx="38.01" cy="78.82" r="3.53" fill="#FFF"/>
        <path fill="#005DCF" fill-rule="nonzero" d="M38 83.3a4.48 4.48 0 1 1 4.48-4.48A4.49 4.49 0 0 1 38 83.3zm0-7a2.58 2.58 0 1 0 2.58 2.57A2.58 2.58 0 0 0 38 76.25v.05z"/>
        <circle cx="60.09" cy="67.15" r="3.53" fill="#FFF"/>
        <path fill="#005DCF" fill-rule="nonzero" d="M60.09 71.63a4.49 4.49 0 1 1-.02-8.98 4.49 4.49 0 0 1 .02 8.98zm0-7.06a2.58 2.58 0 1 0-.02 5.16 2.58 2.58 0 0 0 .02-5.16z"/>
        <circle cx="70.73" cy="47.59" r="3.53" fill="#FFF"/>
        <path fill="#005DCF" fill-rule="nonzero" d="M70.73 52.07a4.48 4.48 0 1 1 4.48-4.48 4.49 4.49 0 0 1-4.48 4.48zm0-7.06a2.58 2.58 0 1 0 2.58 2.58A2.59 2.59 0 0 0 70.73 45v.01z"/>
        <circle cx="16.68" cy="16.88" r="3.53" fill="#FFF"/>
        <path fill="#005DCF" fill-rule="nonzero" d="M16.68 21.36a4.49 4.49 0 1 1 0-8.98 4.49 4.49 0 0 1 0 8.98zm0-7.06a2.58 2.58 0 1 0 2.58 2.58 2.57 2.57 0 0 0-2.58-2.58z"/>
        <circle cx="37.98" cy="29.35" r="3.53" fill="#FFF"/>
        <path fill="#005DCF" fill-rule="nonzero" d="M38 33.83a4.48 4.48 0 1 1 4.48-4.48A4.49 4.49 0 0 1 38 33.83zm0-7.06a2.58 2.58 0 1 0 2.57 2.58A2.59 2.59 0 0 0 38 26.77z"/>
        <circle cx="5.37" cy="34.78" r="3.53" fill="#FFF"/>
        <path fill="#005DCF" fill-rule="nonzero" d="M5.37 39.27a4.49 4.49 0 1 1-.02-8.98 4.49 4.49 0 0 1 .02 8.98zm0-7.06a2.58 2.58 0 1 0-.02 5.16 2.58 2.58 0 0 0 .02-5.16z"/>
        <circle cx="5.37" cy="60.19" r="3.53" fill="#FFF"/>
        <path fill="#005DCF" fill-rule="nonzero" d="M5.37 64.67a4.48 4.48 0 1 1 4.48-4.48 4.49 4.49 0 0 1-4.48 4.48zm0-7.06a2.58 2.58 0 1 0 2.57 2.58 2.59 2.59 0 0 0-2.57-2.58z"/>
    </g>
</svg>
