<svg xmlns="http://www.w3.org/2000/svg" xmlns:xlink="http://www.w3.org/1999/xlink" width="104" height="111" viewBox="0 0 104 111">
    <defs>
        <path id="a" d="M4.31 18L.611 1.716h3.062L6.01 12.103 8.936 1.716h2.585l2.949 10.387 2.313-10.387h3.062L16.171 18H13.2L10.183 7.476 7.258 18z"/>
        <path id="b" d="M29.554 14.462l2.54 1.202c-1.293 1.837-2.994 2.654-5.534 2.654-3.833 0-6.305-2.813-6.305-6.35 0-3.29 2.382-6.329 6.26-6.329 3.81 0 6.396 2.722 6.396 6.532 0 .272-.023.408-.023.68h-9.707c.295 1.792 1.656 2.79 3.38 2.79 1.292 0 2.154-.363 2.993-1.18zm-6.237-3.992h6.555c-.409-1.406-1.701-2.268-3.312-2.268-1.497 0-2.653.749-3.243 2.268zM44.228 18v-1.27c-1.066 1.043-2.2 1.588-3.72 1.588-3.061 0-5.738-2.631-5.738-6.328 0-3.765 2.54-6.35 5.67-6.35 1.452 0 2.7.544 3.788 1.632V5.957h3.016V18h-3.016zm-3.175-9.594c-1.996 0-3.243 1.588-3.243 3.561 0 2.064 1.36 3.584 3.243 3.584 1.86 0 3.311-1.407 3.311-3.607 0-2.109-1.406-3.538-3.311-3.538zM54.139 18L48.991 5.957h3.084l3.04 7.099 3.039-7.1h3.061L56.09 18h-1.95zm8.55 0V5.957h3.017V18H62.69zM64.187.99c1.089 0 1.928.907 1.928 1.996a1.926 1.926 0 0 1-1.928 1.928c-1.11 0-1.927-.976-1.927-2.087 0-1.043.884-1.837 1.927-1.837zM77.341 18v-1.27c-1.066 1.043-2.2 1.588-3.72 1.588-3.062 0-5.738-2.631-5.738-6.328 0-3.765 2.54-6.35 5.67-6.35 1.452 0 2.7.544 3.788 1.632V5.957h3.016V18h-3.016zm-3.175-9.594c-1.996 0-3.244 1.588-3.244 3.561 0 2.064 1.361 3.584 3.244 3.584 1.86 0 3.31-1.407 3.31-3.607 0-2.109-1.405-3.538-3.31-3.538zm9.593-2.45V1.513h3.017v4.445h1.791v2.585h-1.791V18h-3.017V8.542h-1.542V5.957h1.542zm15.196 8.506l2.54 1.202c-1.293 1.837-2.994 2.654-5.534 2.654-3.833 0-6.305-2.813-6.305-6.35 0-3.29 2.381-6.329 6.26-6.329 3.81 0 6.395 2.722 6.395 6.532 0 .272-.022.408-.022.68h-9.707c.295 1.792 1.655 2.79 3.38 2.79 1.292 0 2.154-.363 2.993-1.18zm-6.237-3.992h6.554c-.408-1.406-1.7-2.268-3.31-2.268-1.498 0-2.654.749-3.244 2.268z"/>
        <linearGradient id="c" x1="0%" x2="99.994%" y1="50.006%" y2="50.006%">
            <stop offset="0%" stop-color="#364A68"/>
            <stop offset="100%" stop-color="#38D611"/>
        </linearGradient>
        <linearGradient id="d" x1="0%" y1="49.981%" y2="49.981%">
            <stop offset="0%" stop-color="#364A68"/>
            <stop offset="100%" stop-color="#38D611"/>
        </linearGradient>
    </defs>
    <g fill="none" fill-rule="evenodd">
        <g fill-rule="nonzero">
            <g transform="translate(.41 91.59)">
                <use fill="#000" xlink:href="#a"/>
                <use fill="#2E3536" xlink:href="#a"/>
            </g>
            <g transform="translate(.41 91.59)">
                <use fill="#000" xlink:href="#b"/>
                <use fill="#2E3536" xlink:href="#b"/>
            </g>
        </g>
        <path fill="#38D611" fill-rule="nonzero" d="M20 23l-1-.58.34-.58 1 .58L20 23zm2 1.15l-1-.58.34-.57 1 .57-.34.58zm2 1.15l-1-.57.34-.58 1 .58-.34.57zm2 1.16l-1-.58.34-.58 1 .58-.34.58zm2 1.15l-1-.58.34-.57 1 .57-.34.58zm2 1.15l-1-.57.34-.58 1 .58-.34.57zm2 1.16l-1-.58.33-.58 1 .58-.33.58zm2 1.15l-1-.58.33-.57 1 .57-.33.58zm2 1.15l-1-.57.34-.58 1 .58-.34.57zm2 1.15l-1-.57.34-.58 1 .58-.34.57zm2 1.16l-1-.58.34-.58 1 .58-.34.58zm2 1.15l-1-.64.33-.58 1 .58-.33.64zm2 1.15l-1-.57.33-.58 1 .58-.33.57zm2 1.16l-1-.58.33-.58 1 .58-.33.58zm2 1.15l-1-.58.34-.57 1 .57-.34.58zm2 1.15l-1-.57.34-.58 1 .58-.34.57zM84 23l-.33-.58 1-.58.34.58L84 23zm-2 1.1l-.34-.58 1-.57.34.57-1 .58zm-2 1.15l-.34-.57 1-.58.34.58-1 .57zm-2 1.16l-.34-.58 1-.58.33.58-.99.58zm-2 1.15l-.39-.56 1-.57.39.57-1 .56zm-2 1.15l-.34-.57 1-.58.33.58-.99.57zm-2 1.16l-.34-.58 1-.58.34.58-1 .58zm-2 1.15l-.34-.58 1-.57.34.57-1 .58zm-2 1.15l-.34-.57 1-.58.34.58-1 .57zm-2 1.15l-.34-.57 1-.58.33.58-.99.57zm-2 1.16l-.34-.58 1-.58.33.58-.99.58zm-2 1.15l-.34-.58 1-.57.34.57-1 .58zm-2 1.15l-.34-.57 1-.58.34.58-1 .57zm-2 1.16l-.34-.58 1-.58.34.58-1 .58zm-2 1.15l-.34-.58 1-.57.34.57-1 .58zm-2 1.15l-.34-.57 1-.58.33.58-.99.57zM52.34 43.92h-.67v-1.16h.67v1.16zm0 2.33h-.67V45.1h.67v1.15zm0 2.34h-.67v-1.15h.67v1.15zm0 2.34h-.67v-1.16h.67v1.16zm0 2.3h-.67v-1.15h.67v1.15zm0 2.34h-.67V54.3h.67v1.27zm0 2.31h-.67v-1.15h.67v1.15zm0 2.34h-.67v-1.15h.67v1.15zm0 2.31h-.67v-1.16h.67v1.16zm0 2.34h-.67v-1.16h.67v1.16zm0 2.3h-.67V66h.67v1.17zm0 2.34h-.67v-1.15h.67v1.15zm0 2.31h-.67v-1.15h.67v1.15zm0 2.34h-.67V73h.67v1.16zm0 2.34h-.67v-1.15h.67v1.15zm0 2.34h-.67v-1.16h.67v1.16z"/>
        <path fill="url(#c)" fill-rule="nonzero" d="M85.73 60.22l-33-19.1V2.24l33.05 19.1-.05 38.88zM52 79.82L19.55 61.06 52 42.29l32.46 18.77L52 79.82zM18.29 21.34l33-19.1v38.88l-33 19.11V21.34zm68.43-1L52.34.48a.67.67 0 0 0-.67 0L17.28 20.37a.67.67 0 0 0-.34.58v39.78c0 .238.13.457.34.57l34.39 19.88c.1.067.22.102.34.1a.56.56 0 0 0 .33-.1L86.72 61.3a.64.64 0 0 0 .34-.57V21a.62.62 0 0 0-.34-.63v-.03z"/>
        <path fill="url(#d)" d="M29.08 40.84v13.25l11.46 6.63L52 54.09l11.47 6.63 11.47-6.63V40.84l-11.47-6.63v13.25L52 40.84l-11.46 6.62V34.21z"/>
    </g>
</svg>
