<?xml version="1.0" encoding="utf-8"?>
<!-- Generator: Adobe Illustrator 24.1.0, SVG Export Plug-In . SVG Version: 6.00 Build 0)  -->
<svg version="1.1" id="Layer_1" xmlns="http://www.w3.org/2000/svg" xmlns:xlink="http://www.w3.org/1999/xlink" x="0px" y="0px"
	 viewBox="0 0 146 132" style="enable-background:new 0 0 146 132;" xml:space="preserve">
<style type="text/css">
	.st0{fill-rule:evenodd;clip-rule:evenodd;fill:#005DCF;}
	.st1{fill-rule:evenodd;clip-rule:evenodd;fill:#FFFFFF;}
	.st2{fill:#005DCF;}
	.st3{fill:#2E3536;}
</style>
<g>
	<path class="st0" d="M72.3,5.7l1.3-2.2l32.6,18.8l-1.3,2.2L72.3,5.7z"/>
	<path class="st0" d="M104.3,23.5h2.5V48h-2.5V23.5z M72.3,78.9l22.4-12.9l1.3,2.2L73.6,81.1L72.3,78.9z"/>
	<path class="st0" d="M39.7,62.2L41,60l32.6,18.8l-1.3,2.2L39.7,62.2z M41.6,34.8V24.2l11.2-6.4l-1.3-2.2l-11.8,6.8
		c-0.4,0.2-0.6,0.6-0.6,1.1v11.3H41.6z"/>
	<path class="st0" d="M51.1,18l1.3-2.2l53,30.6l-1.3,2.2L51.1,18z M39.1,36l1.3-2.2l56.2,32.4l-1.3,2.2L39.1,36z"/>
	<path class="st0" d="M51.3,41.5V54l10.8,6.2L72.9,54l10.8,6.2L94.6,54V41.5l-10.8-6.2l0,12.5l-10.8-6.2l-10.8,6.2V35.2L51.3,41.5z"
		/>
	<circle class="st1" cx="73" cy="5" r="3.5"/>
	<path class="st2" d="M73,9.4c-2.5,0-4.5-2-4.5-4.5s2-4.5,4.5-4.5c2.5,0,4.5,2,4.5,4.5c0,0,0,0,0,0.1C77.4,7.4,75.4,9.4,73,9.4z
		 M73,2.4c-1.4,0-2.6,1.1-2.6,2.6s1.1,2.6,2.6,2.6c1.4,0,2.6-1.1,2.6-2.5C75.6,3.6,74.4,2.4,73,2.4z"/>
	<circle class="st1" cx="105.5" cy="23" r="3.5"/>
	<path class="st2" d="M105.5,27.5c-2.5,0-4.5-2.1-4.4-4.5c0-2.5,2.1-4.5,4.5-4.4s4.5,2.1,4.4,4.5C110,25.6,107.9,27.6,105.5,27.5z
		 M105.5,20.5c-1.4,0-2.6,1.2-2.6,2.6s1.2,2.6,2.6,2.6c0,0,0,0,0,0c1.4,0,2.6-1.2,2.6-2.6C108,21.6,106.9,20.5,105.5,20.5z"/>
	<circle class="st1" cx="73" cy="78.8" r="3.5"/>
	<path class="st2" d="M73,83.3c-2.5,0-4.5-2-4.5-4.5s2-4.5,4.5-4.5s4.5,2,4.5,4.5C77.5,81.3,75.5,83.3,73,83.3z M73,76.3
		c-1.4,0-2.6,1.2-2.6,2.6c0,1.4,1.2,2.6,2.6,2.6c1.4,0,2.6-1.2,2.6-2.6c0,0,0,0,0,0C75.6,77.4,74.5,76.3,73,76.3
		C73,76.3,73,76.2,73,76.3L73,76.3z"/>
	<circle class="st1" cx="95.1" cy="67.2" r="3.5"/>
	<path class="st2" d="M95.1,71.6c-2.5,0-4.5-2-4.5-4.5c0-2.5,2-4.5,4.5-4.5l0,0c2.5,0,4.5,2,4.5,4.5S97.5,71.6,95.1,71.6L95.1,71.6z
		 M95.1,64.6c-1.4,0-2.6,1.1-2.6,2.6s1.1,2.6,2.6,2.6l0,0c1.4,0,2.6-1.1,2.6-2.6C97.6,65.7,96.5,64.6,95.1,64.6z"/>
	<circle class="st1" cx="105.7" cy="47.6" r="3.5"/>
	<path class="st2" d="M105.7,52.1c-2.5,0-4.5-2-4.5-4.5s2-4.5,4.5-4.5c2.5,0,4.5,2,4.5,4.5C110.2,50.1,108.2,52.1,105.7,52.1z
		 M105.7,45c-1.4,0-2.6,1.2-2.6,2.6c0,1.4,1.2,2.6,2.6,2.6c1.4,0,2.6-1.2,2.6-2.6l0,0C108.3,46.2,107.1,45,105.7,45
		C105.7,45,105.7,45,105.7,45z"/>
	<circle class="st1" cx="51.6" cy="16.9" r="3.5"/>
	<path class="st2" d="M51.6,21.4c-2.5,0-4.5-2-4.5-4.5s2-4.5,4.5-4.5s4.5,2,4.5,4.5S54.1,21.4,51.6,21.4z M51.6,14.3
		c-1.4,0-2.6,1.2-2.6,2.6s1.2,2.6,2.6,2.6c1.4,0,2.6-1.2,2.6-2.6C54.2,15.5,53.1,14.3,51.6,14.3C51.7,14.3,51.6,14.3,51.6,14.3z"/>
	<circle class="st1" cx="72.9" cy="29.4" r="3.5"/>
	<path class="st2" d="M72.9,33.8c-2.5,0-4.5-2-4.5-4.5s2-4.5,4.5-4.5c2.5,0,4.5,2,4.5,4.5C77.4,31.8,75.4,33.8,72.9,33.8z
		 M72.9,26.8c-1.4,0-2.6,1.1-2.6,2.6c0,1.4,1.1,2.6,2.6,2.6c1.4,0,2.6-1.1,2.6-2.6c0,0,0,0,0,0C75.5,27.9,74.4,26.8,72.9,26.8z"/>
	<circle class="st1" cx="40.3" cy="34.8" r="3.5"/>
	<path class="st2" d="M40.3,39.3c-2.5,0-4.5-2-4.5-4.5s2-4.5,4.5-4.5c2.5,0,4.5,2,4.5,4.5S42.8,39.3,40.3,39.3z M40.3,32.2
		c-1.4,0-2.6,1.1-2.6,2.6s1.1,2.6,2.6,2.6s2.6-1.1,2.6-2.6S41.8,32.2,40.3,32.2z"/>
	<circle class="st1" cx="40.3" cy="60.2" r="3.5"/>
	<path class="st2" d="M40.3,64.7c-2.5,0-4.5-2-4.5-4.5s2-4.5,4.5-4.5s4.5,2,4.5,4.5l0,0C44.8,62.7,42.8,64.7,40.3,64.7z M40.3,57.6
		c-1.4,0-2.6,1.1-2.6,2.6s1.1,2.6,2.6,2.6s2.6-1.1,2.6-2.6c0,0,0,0,0,0C42.9,58.8,41.7,57.6,40.3,57.6z"/>
	<g>
		<g transform="translate(.82 95.59)">
			<g>
				<path id="a" d="M30.8,15L27.5,0.8h2.7l2,9.1l2.6-9.1h2.3l2.6,9.1l2-9.1h2.7L41.1,15h-2.6l-2.6-9.2L33.3,15H30.8z"/>
			</g>
			<g>
				<path id="a_1_" class="st3" d="M30.8,15L27.5,0.8h2.7l2,9.1l2.6-9.1h2.3l2.6,9.1l2-9.1h2.7L41.1,15h-2.6l-2.6-9.2L33.3,15H30.8z
					"/>
			</g>
		</g>
		<g transform="translate(.82 95.59)">
			<g>
				<path id="b" d="M52.9,11.9l2.2,1.1c-1.1,1.6-2.6,2.3-4.8,2.3c-3.4,0-5.5-2.5-5.5-5.6c0-2.9,2.1-5.5,5.5-5.5
					c3.3,0,5.6,2.4,5.6,5.7c0,0.2,0,0.4,0,0.6h-8.5c0.3,1.6,1.4,2.4,3,2.4C51.4,12.9,52.1,12.6,52.9,11.9z M47.4,8.4h5.7
					c-0.4-1.2-1.5-2-2.9-2C48.9,6.4,47.9,7.1,47.4,8.4z M65.7,15v-1.1c-0.9,0.9-1.9,1.4-3.3,1.4c-2.7,0-5-2.3-5-5.5
					c0-3.3,2.2-5.6,5-5.6c1.3,0,2.4,0.5,3.3,1.4V4.5h2.6V15H65.7z M62.9,6.6c-1.7,0-2.8,1.4-2.8,3.1c0,1.8,1.2,3.1,2.8,3.1
					c1.6,0,2.9-1.2,2.9-3.2C65.8,7.9,64.6,6.6,62.9,6.6z M74.4,15L69.9,4.5h2.7l2.7,6.2l2.7-6.2h2.7L76.1,15H74.4z M81.8,15V4.5h2.6
					V15H81.8z M83.2,0.1c1,0,1.7,0.8,1.7,1.7c0,0.9-0.8,1.7-1.7,1.7c-1,0-1.7-0.9-1.7-1.8C81.5,0.8,82.2,0.1,83.2,0.1L83.2,0.1z
					 M94.7,15v-1.1c-0.9,0.9-1.9,1.4-3.3,1.4c-2.7,0-5-2.3-5-5.5c0-3.3,2.2-5.6,5-5.6c1.3,0,2.4,0.5,3.3,1.4V4.5h2.6V15
					C97.3,15,94.7,15,94.7,15z M91.9,6.6C90.1,6.6,89,8,89,9.7c0,1.8,1.2,3.1,2.8,3.1c1.6,0,2.9-1.2,2.9-3.2
					C94.8,7.9,93.5,6.6,91.9,6.6z M100.3,4.5V0.6h2.6v3.9h1.6v2.3h-1.6V15h-2.6V6.7h-1.3V4.5H100.3L100.3,4.5z M113.6,11.9l2.2,1.1
					c-1.1,1.6-2.6,2.3-4.8,2.3c-3.4,0-5.5-2.5-5.5-5.6c0-2.9,2.1-5.5,5.5-5.5c3.3,0,5.6,2.4,5.6,5.7c0,0.2,0,0.4,0,0.6H108
					c0.3,1.6,1.4,2.4,3,2.4C112.1,12.9,112.8,12.6,113.6,11.9z M108.1,8.4h5.7c-0.4-1.2-1.5-2-2.9-2C109.6,6.4,108.6,7.1,108.1,8.4z
					"/>
			</g>
			<g>
				<path id="b_1_" class="st3" d="M52.9,11.9l2.2,1.1c-1.1,1.6-2.6,2.3-4.8,2.3c-3.4,0-5.5-2.5-5.5-5.6c0-2.9,2.1-5.5,5.5-5.5
					c3.3,0,5.6,2.4,5.6,5.7c0,0.2,0,0.4,0,0.6h-8.5c0.3,1.6,1.4,2.4,3,2.4C51.4,12.9,52.1,12.6,52.9,11.9z M47.4,8.4h5.7
					c-0.4-1.2-1.5-2-2.9-2C48.9,6.4,47.9,7.1,47.4,8.4z M65.7,15v-1.1c-0.9,0.9-1.9,1.4-3.3,1.4c-2.7,0-5-2.3-5-5.5
					c0-3.3,2.2-5.6,5-5.6c1.3,0,2.4,0.5,3.3,1.4V4.5h2.6V15H65.7z M62.9,6.6c-1.7,0-2.8,1.4-2.8,3.1c0,1.8,1.2,3.1,2.8,3.1
					c1.6,0,2.9-1.2,2.9-3.2C65.8,7.9,64.6,6.6,62.9,6.6z M74.4,15L69.9,4.5h2.7l2.7,6.2l2.7-6.2h2.7L76.1,15H74.4z M81.8,15V4.5h2.6
					V15H81.8z M83.2,0.1c1,0,1.7,0.8,1.7,1.7c0,0.9-0.8,1.7-1.7,1.7c-1,0-1.7-0.9-1.7-1.8C81.5,0.8,82.2,0.1,83.2,0.1L83.2,0.1z
					 M94.7,15v-1.1c-0.9,0.9-1.9,1.4-3.3,1.4c-2.7,0-5-2.3-5-5.5c0-3.3,2.2-5.6,5-5.6c1.3,0,2.4,0.5,3.3,1.4V4.5h2.6V15
					C97.3,15,94.7,15,94.7,15z M91.9,6.6C90.1,6.6,89,8,89,9.7c0,1.8,1.2,3.1,2.8,3.1c1.6,0,2.9-1.2,2.9-3.2
					C94.8,7.9,93.5,6.6,91.9,6.6z M100.3,4.5V0.6h2.6v3.9h1.6v2.3h-1.6V15h-2.6V6.7h-1.3V4.5H100.3L100.3,4.5z M113.6,11.9l2.2,1.1
					c-1.1,1.6-2.6,2.3-4.8,2.3c-3.4,0-5.5-2.5-5.5-5.6c0-2.9,2.1-5.5,5.5-5.5c3.3,0,5.6,2.4,5.6,5.7c0,0.2,0,0.4,0,0.6H108
					c0.3,1.6,1.4,2.4,3,2.4C112.1,12.9,112.8,12.6,113.6,11.9z M108.1,8.4h5.7c-0.4-1.2-1.5-2-2.9-2C109.6,6.4,108.6,7.1,108.1,8.4z
					"/>
			</g>
		</g>
	</g>
</g>
<g>
	<path class="st3" d="M21.8,118.9l-1.1,0.9c-0.6-0.8-1.3-1.4-2.2-1.8c-0.9-0.4-1.8-0.6-2.8-0.6c-1.1,0-2.2,0.3-3.1,0.8
		c-1,0.5-1.7,1.3-2.2,2.2c-0.5,0.9-0.8,1.9-0.8,3.1c0,1.7,0.6,3.2,1.8,4.3c1.2,1.1,2.7,1.7,4.5,1.7c2,0,3.6-0.8,4.9-2.3l1.1,0.8
		c-0.7,0.9-1.6,1.6-2.6,2.1c-1,0.5-2.2,0.7-3.5,0.7c-2.5,0-4.4-0.8-5.8-2.5c-1.2-1.4-1.8-3.1-1.8-5c0-2.1,0.7-3.8,2.2-5.2
		c1.4-1.4,3.3-2.1,5.4-2.1c1.3,0,2.5,0.3,3.6,0.8S21.1,118,21.8,118.9z"/>
	<path class="st3" d="M24.2,116h1.3v14.4h-1.3V116z"/>
	<path class="st3" d="M33.2,119.7c1.6,0,2.9,0.6,4,1.7c1,1.1,1.4,2.3,1.4,3.8c0,1.5-0.5,2.7-1.5,3.8s-2.3,1.6-3.9,1.6
		c-1.6,0-2.9-0.5-3.9-1.6s-1.5-2.4-1.5-3.8c0-1.4,0.5-2.7,1.4-3.8C30.3,120.3,31.6,119.7,33.2,119.7z M33.2,121
		c-1.1,0-2.1,0.4-2.9,1.2s-1.2,1.8-1.2,3c0,0.8,0.2,1.5,0.5,2.1c0.4,0.7,0.9,1.2,1.5,1.5c0.6,0.4,1.3,0.5,2,0.5c0.7,0,1.4-0.2,2-0.5
		c0.6-0.4,1.1-0.9,1.5-1.5c0.4-0.7,0.5-1.4,0.5-2.1c0-1.2-0.4-2.2-1.2-3C35.3,121.4,34.3,121,33.2,121z"/>
	<path class="st3" d="M41,120h1.3v4.9c0,1.2,0.1,2,0.2,2.5c0.2,0.6,0.6,1.1,1.1,1.5c0.5,0.4,1.2,0.6,1.9,0.6s1.4-0.2,1.9-0.5
		c0.5-0.4,0.9-0.8,1.1-1.4c0.1-0.4,0.2-1.3,0.2-2.6V120h1.4v5.1c0,1.4-0.2,2.5-0.5,3.2s-0.8,1.3-1.5,1.7c-0.7,0.4-1.5,0.6-2.5,0.6
		s-1.9-0.2-2.5-0.6c-0.7-0.4-1.2-1-1.5-1.7S41,126.5,41,125V120z"/>
	<path class="st3" d="M63.5,116v14.4h-1.3v-1.8c-0.6,0.7-1.2,1.2-1.9,1.5c-0.7,0.3-1.5,0.5-2.3,0.5c-1.5,0-2.7-0.5-3.8-1.6
		c-1-1.1-1.6-2.4-1.6-3.9c0-1.5,0.5-2.8,1.6-3.8c1.1-1.1,2.3-1.6,3.8-1.6c0.9,0,1.6,0.2,2.3,0.5c0.7,0.4,1.3,0.9,1.8,1.6V116H63.5z
		 M58.1,121c-0.7,0-1.4,0.2-2.1,0.5c-0.6,0.4-1.1,0.9-1.5,1.5c-0.4,0.7-0.6,1.4-0.6,2.1c0,0.7,0.2,1.4,0.6,2.1
		c0.4,0.7,0.9,1.2,1.5,1.6c0.6,0.4,1.3,0.6,2,0.6c0.7,0,1.4-0.2,2.1-0.6c0.7-0.4,1.2-0.9,1.5-1.5c0.4-0.6,0.5-1.3,0.5-2.1
		c0-1.2-0.4-2.2-1.2-3S59.3,121,58.1,121z"/>
	<path class="st3" d="M70.7,127.8l1.2-0.7c0.8,1.6,1.8,2.3,2.9,2.3c0.5,0,0.9-0.1,1.3-0.3c0.4-0.2,0.7-0.5,0.9-0.9s0.3-0.8,0.3-1.2
		c0-0.5-0.2-0.9-0.5-1.4c-0.4-0.6-1.2-1.4-2.4-2.3c-1.2-0.9-1.9-1.5-2.2-1.9c-0.5-0.7-0.7-1.4-0.7-2.2c0-0.6,0.1-1.2,0.4-1.7
		c0.3-0.5,0.7-0.9,1.2-1.2c0.5-0.3,1.1-0.4,1.7-0.4c0.7,0,1.3,0.2,1.9,0.5c0.6,0.3,1.2,0.9,1.8,1.8l-1.1,0.9c-0.5-0.7-1-1.2-1.4-1.4
		c-0.4-0.2-0.8-0.3-1.2-0.3c-0.6,0-1,0.2-1.4,0.5s-0.5,0.8-0.5,1.3c0,0.3,0.1,0.6,0.2,0.9c0.1,0.3,0.4,0.6,0.7,0.9
		c0.2,0.2,0.8,0.6,1.8,1.4c1.2,0.9,2.1,1.7,2.5,2.4c0.5,0.7,0.7,1.4,0.7,2.1c0,1-0.4,1.9-1.2,2.7s-1.7,1.1-2.8,1.1
		c-0.9,0-1.6-0.2-2.3-0.7C71.9,129.6,71.3,128.9,70.7,127.8z"/>
	<path class="st3" d="M90.5,126.9l1.1,0.6c-0.4,0.7-0.8,1.3-1.3,1.8c-0.5,0.4-1,0.8-1.6,1c-0.6,0.2-1.3,0.3-2.1,0.3
		c-1.7,0-3-0.6-4-1.7c-1-1.1-1.4-2.4-1.4-3.8c0-1.3,0.4-2.5,1.2-3.5c1-1.3,2.4-2,4.1-2c1.8,0,3.2,0.7,4.3,2c0.8,1,1.1,2.1,1.1,3.6
		h-9.4c0,1.2,0.4,2.2,1.2,3c0.7,0.8,1.7,1.2,2.8,1.2c0.5,0,1-0.1,1.5-0.3c0.5-0.2,0.9-0.4,1.3-0.7C89.7,128.1,90,127.6,90.5,126.9z
		 M90.5,124.1c-0.2-0.7-0.4-1.3-0.8-1.7s-0.8-0.8-1.4-1s-1.2-0.4-1.8-0.4c-1,0-1.9,0.3-2.6,1c-0.5,0.5-0.9,1.2-1.2,2.2H90.5z"/>
	<path class="st3" d="M93.9,120h1.4v1.5c0.4-0.6,0.8-1,1.3-1.3s0.9-0.4,1.4-0.4c0.4,0,0.8,0.1,1.2,0.4l-0.7,1.1
		c-0.3-0.1-0.5-0.2-0.7-0.2c-0.4,0-0.9,0.2-1.3,0.5c-0.4,0.4-0.7,0.9-0.9,1.7c-0.2,0.6-0.2,1.8-0.2,3.6v3.5h-1.4V120z"/>
	<path class="st3" d="M99.3,120h1.4l3.5,7.6l3.5-7.6h1.4l-4.8,10.4h-0.2L99.3,120z"/>
	<path class="st3" d="M111.7,115.7c0.3,0,0.6,0.1,0.8,0.3c0.2,0.2,0.3,0.5,0.3,0.8c0,0.3-0.1,0.6-0.3,0.8c-0.2,0.2-0.5,0.3-0.8,0.3
		c-0.3,0-0.6-0.1-0.8-0.3s-0.3-0.5-0.3-0.8c0-0.3,0.1-0.6,0.3-0.8S111.4,115.7,111.7,115.7z M111,120h1.3v10.4H111V120z"/>
	<path class="st3" d="M125.2,122.1l-1.1,0.7c-0.9-1.2-2.2-1.8-3.8-1.8c-1.3,0-2.3,0.4-3.2,1.2c-0.8,0.8-1.3,1.8-1.3,3
		c0,0.8,0.2,1.5,0.6,2.1c0.4,0.7,0.9,1.2,1.6,1.6c0.7,0.4,1.4,0.6,2.3,0.6c1.5,0,2.8-0.6,3.7-1.8l1.1,0.7c-0.5,0.8-1.2,1.3-2,1.7
		c-0.8,0.4-1.8,0.6-2.9,0.6c-1.6,0-3-0.5-4.1-1.6s-1.6-2.3-1.6-3.8c0-1,0.3-1.9,0.8-2.8s1.2-1.5,2.1-2c0.9-0.5,1.9-0.7,3-0.7
		c0.7,0,1.4,0.1,2,0.3c0.6,0.2,1.2,0.5,1.6,0.8C124.5,121.2,124.9,121.6,125.2,122.1z"/>
	<path class="st3" d="M136.6,126.9l1.1,0.6c-0.4,0.7-0.8,1.3-1.3,1.8c-0.5,0.4-1,0.8-1.6,1c-0.6,0.2-1.3,0.3-2.1,0.3
		c-1.7,0-3-0.6-4-1.7c-1-1.1-1.4-2.4-1.4-3.8c0-1.3,0.4-2.5,1.2-3.5c1-1.3,2.4-2,4.1-2c1.8,0,3.2,0.7,4.3,2c0.8,1,1.1,2.1,1.1,3.6
		h-9.4c0,1.2,0.4,2.2,1.2,3c0.7,0.8,1.7,1.2,2.8,1.2c0.5,0,1-0.1,1.5-0.3c0.5-0.2,0.9-0.4,1.3-0.7
		C135.8,128.1,136.2,127.6,136.6,126.9z M136.6,124.1c-0.2-0.7-0.4-1.3-0.8-1.7s-0.8-0.8-1.4-1s-1.2-0.4-1.8-0.4c-1,0-1.9,0.3-2.6,1
		c-0.5,0.5-0.9,1.2-1.2,2.2H136.6z"/>
</g>
</svg>
