<svg xmlns="http://www.w3.org/2000/svg" viewBox="0 0 360 360"><defs><style>.cls-1{fill:#009c00;}.cls-2{fill:#00152b;}</style></defs><g id="Layer_2" data-name="Layer 2"><circle class="cls-1" cx="109.36" cy="128.82" r="3.73"/><circle class="cls-1" cx="117.99" cy="134.08" r="2.92"/><path class="cls-1" d="M101.33,229.09a2.92,2.92,0,1,0,2.91,2.91A2.91,2.91,0,0,0,101.33,229.09Z"/><path class="cls-1" d="M126.36,136.41a2.8,2.8,0,0,0-2.77,2.43H93.82a1.51,1.51,0,1,0-.1,1h29.92a2.8,2.8,0,1,0,2.72-3.46Z"/><circle class="cls-1" cx="109.36" cy="226.97" r="2.81"/><path class="cls-1" d="M117.88,219.7a2.62,2.62,0,1,0,2.62,2.61A2.61,2.61,0,0,0,117.88,219.7Z"/><path class="cls-1" d="M117.58,175.72a2.61,2.61,0,1,0-2.61-2.61A2.62,2.62,0,0,0,117.58,175.72Z"/><path class="cls-1" d="M126.45,175.28a2.61,2.61,0,0,0-2.59,2.35h-30a1.5,1.5,0,1,0-1.48,1.77,1.53,1.53,0,0,0,1.3-.74H124a2.61,2.61,0,1,0,2.49-3.38Z"/><path class="cls-1" d="M104,163.65a2.43,2.43,0,1,0-2.43,2.42A2.42,2.42,0,0,0,104,163.65Z"/><path class="cls-1" d="M117.58,165.36a2.07,2.07,0,1,0-2.07-2.06A2.07,2.07,0,0,0,117.58,165.36Z"/><path class="cls-1" d="M101.33,224.38a2.07,2.07,0,1,0-2.07-2.07A2.07,2.07,0,0,0,101.33,224.38Z"/><path class="cls-1" d="M92.36,160.42a2.08,2.08,0,0,0,2-1.48H124a2.22,2.22,0,1,0,0-1H94.39a2.07,2.07,0,1,0-2,2.48Z"/><path class="cls-1" d="M107.6,168.08a1.77,1.77,0,1,0,1.76-1.77A1.76,1.76,0,0,0,107.6,168.08Z"/><path class="cls-1" d="M92.36,150.53A1.76,1.76,0,0,0,94,149.38h29.82a2.62,2.62,0,1,0,0-1H94.08a1.76,1.76,0,1,0-1.72,2.18Z"/><path class="cls-1" d="M98.59,173.53a1.51,1.51,0,1,0,1.51-1.5A1.5,1.5,0,0,0,98.59,173.53Z"/><path class="cls-1" d="M117,230.49a1.51,1.51,0,1,0,1.51,1.51A1.52,1.52,0,0,0,117,230.49Z"/><path class="cls-1" d="M100.68,135.36a1.51,1.51,0,1,0-1.51-1.51A1.51,1.51,0,0,0,100.68,135.36Z"/><path class="cls-1" d="M126.21,214.79a2.61,2.61,0,0,0-2.59,2.35h-30a1.5,1.5,0,1,0-1.48,1.77,1.52,1.52,0,0,0,1.3-.74h30.31a2.61,2.61,0,1,0,2.48-3.38Z"/><rect class="cls-1" x="91.29" y="187.22" width="35.67" height="1"/><path class="cls-1" d="M162.32,157,144.76,146.9l-2,3.46,16.56,9.56v57.22l-16,9.24,2,3.46,17-9.81a2,2,0,0,0,1-1.73V158.77A2,2,0,0,0,162.32,157Z"/><path class="cls-1" d="M76.21,150.68l-2-3.46-17,9.81a2,2,0,0,0-1,1.74V218.3a2,2,0,0,0,1,1.73l16.62,9.59,2-3.46-15.62-9V159.92Z"/><polygon class="cls-2" points="75.35 187.96 75.35 207.59 92.35 217.41 109.35 207.59 126.35 217.41 143.35 207.59 143.35 187.96 126.35 178.14 126.35 197.78 109.35 187.96 92.35 197.78 92.35 178.15 75.35 187.96"/><polygon class="cls-2" points="195.2 182.73 200.07 170.54 204.85 182.73 205.89 182.73 211.13 164.49 208.33 164.49 205.06 175.86 200.58 164.49 199.55 164.49 195.02 175.86 191.8 164.49 188.99 164.49 194.16 182.73 195.2 182.73"/><path class="cls-2" d="M223.7,177.74a7.3,7.3,0,0,1-1.29,1.69,4.75,4.75,0,0,1-1.42.81,5,5,0,0,1-1.72.3,4,4,0,0,1-3-1.26,4.53,4.53,0,0,1-1.25-2.8h11.45V176a7.45,7.45,0,0,0-1.52-4.67,6.81,6.81,0,0,0-5.6-2.66,6.6,6.6,0,0,0-5.45,2.61,7.32,7.32,0,0,0-1.6,4.63,7.46,7.46,0,0,0,1.88,5,6.62,6.62,0,0,0,5.26,2.22,7.6,7.6,0,0,0,2.7-.46,6.82,6.82,0,0,0,2.17-1.35A8.3,8.3,0,0,0,226,179l.22-.44-2.24-1.17Zm-8.38-3.68a4.43,4.43,0,0,1,1.13-1.76,4.14,4.14,0,0,1,2.89-1.08,4.74,4.74,0,0,1,2,.43,4,4,0,0,1,1.48,1.13,4.41,4.41,0,0,1,.68,1.28Z"/><path class="cls-2" d="M235,183.06a6.74,6.74,0,0,0,3-.69,7.14,7.14,0,0,0,1.59-1.09v1.45h2.62V169h-2.62v1.49a6.53,6.53,0,0,0-1.5-1.09,6.44,6.44,0,0,0-3.07-.73,6.8,6.8,0,0,0-5,2.11,7,7,0,0,0-2.08,5.06,7.07,7.07,0,0,0,2.06,5.12A6.71,6.71,0,0,0,235,183.06Zm-4.38-7.19a4.73,4.73,0,0,1,.62-2.33,4.45,4.45,0,0,1,1.66-1.7,4.4,4.4,0,0,1,2.28-.61,4.31,4.31,0,0,1,3.23,1.34,4.54,4.54,0,0,1,1.32,3.35,4.75,4.75,0,0,1-.59,2.36,4.21,4.21,0,0,1-1.67,1.65,4.49,4.49,0,0,1-4.55,0,4.56,4.56,0,0,1-1.67-1.73A4.66,4.66,0,0,1,230.58,175.87Z"/><polygon class="cls-2" points="250.68 182.73 256.97 168.98 254.11 168.98 250.2 177.57 246.25 168.98 243.4 168.98 249.73 182.73 250.68 182.73"/><path class="cls-2" d="M259.26,167.44a1.86,1.86,0,0,0,1.85-1.85,1.85,1.85,0,1,0-3.69,0,1.86,1.86,0,0,0,1.84,1.85Z"/><rect class="cls-2" x="257.94" y="168.98" width="2.64" height="13.75"/><path class="cls-2" d="M274.08,170.47a6.53,6.53,0,0,0-1.5-1.09,6.44,6.44,0,0,0-3.07-.73,6.8,6.8,0,0,0-5,2.11,7,7,0,0,0-2.08,5.06,7.07,7.07,0,0,0,2.06,5.12,6.94,6.94,0,0,0,8,1.43,7.14,7.14,0,0,0,1.59-1.09v1.45h2.62V169h-2.62Zm-1.21,2.1a4.54,4.54,0,0,1,1.32,3.35,4.75,4.75,0,0,1-.59,2.36,4.21,4.21,0,0,1-1.67,1.65,4.49,4.49,0,0,1-4.55,0,4.56,4.56,0,0,1-1.67-1.73,4.66,4.66,0,0,1-.63-2.33,4.73,4.73,0,0,1,.62-2.33,4.45,4.45,0,0,1,1.66-1.7,4.4,4.4,0,0,1,2.28-.61A4.31,4.31,0,0,1,272.87,172.57Z"/><polygon class="cls-2" points="280.82 182.73 283.46 182.73 283.46 171.4 286.06 171.4 286.06 168.98 283.46 168.98 283.46 164.24 280.82 164.24 280.82 168.98 278.58 168.98 278.58 171.4 280.82 171.4 280.82 182.73"/><path class="cls-2" d="M301.06,176a7.45,7.45,0,0,0-1.52-4.67,6.8,6.8,0,0,0-5.6-2.66,6.58,6.58,0,0,0-5.44,2.61,7.32,7.32,0,0,0-1.6,4.63,7.41,7.41,0,0,0,1.88,5,6.62,6.62,0,0,0,5.26,2.22,7.68,7.68,0,0,0,2.7-.46,6.66,6.66,0,0,0,2.16-1.35,8.1,8.1,0,0,0,1.68-2.3l.23-.44-2.24-1.17-.24.4a7.29,7.29,0,0,1-1.3,1.69,4.7,4.7,0,0,1-1.41.81,5.06,5.06,0,0,1-1.72.3,4,4,0,0,1-3-1.26,4.48,4.48,0,0,1-1.25-2.8h11.44Zm-11.12-1.92a4.34,4.34,0,0,1,1.14-1.76,4.12,4.12,0,0,1,2.89-1.08,4.74,4.74,0,0,1,2,.43,4.16,4.16,0,0,1,1.48,1.13,4.67,4.67,0,0,1,.68,1.28Z"/><path class="cls-2" d="M199,200.1a3.94,3.94,0,0,0,.56-2.09,4.06,4.06,0,0,0-.64-2.24,3.78,3.78,0,0,0-1.74-1.49,7.91,7.91,0,0,0-3.15-.49h-3.4V211h4.74a5.67,5.67,0,0,0,4.07-1.44,4.63,4.63,0,0,0,1.52-3.51,4.43,4.43,0,0,0-.41-1.89,4.22,4.22,0,0,0-1.12-1.49,6.63,6.63,0,0,0-2.07-1.07A4.12,4.12,0,0,0,199,200.1Zm-.58,4a3,3,0,0,1,.22,3.71,3.11,3.11,0,0,1-1.41,1.15,7.58,7.58,0,0,1-2.77.37h-2.14v-6.61h1a15.15,15.15,0,0,1,3.06.21A3.82,3.82,0,0,1,198.46,204.11Zm-1.13-4.5a2.85,2.85,0,0,1-1.34,1,7.5,7.5,0,0,1-2.64.34h-1v-5.52h2a4.15,4.15,0,0,1,2.63.67,2.28,2.28,0,0,1,.83,1.86A2.75,2.75,0,0,1,197.33,199.61Z"/><rect class="cls-2" x="203.89" y="198.28" width="1.64" height="12.75"/><path class="cls-2" d="M206.06,194.39a1.34,1.34,0,0,0-2.3-1,1.35,1.35,0,1,0,1.9,1.91A1.29,1.29,0,0,0,206.06,194.39Z"/><path class="cls-2" d="M208.32,204.69a6.64,6.64,0,0,0,1.86,4.67,6.74,6.74,0,0,0,9.58,0,6.85,6.85,0,0,0,.1-9.28,6.66,6.66,0,0,0-9.78,0A6.61,6.61,0,0,0,208.32,204.69Zm3.13-3.62a4.85,4.85,0,0,1,7,0,5,5,0,0,1,1.48,3.65,5.22,5.22,0,0,1-.67,2.58,4.81,4.81,0,0,1-1.81,1.85,5.15,5.15,0,0,1-5,0,4.74,4.74,0,0,1-1.81-1.85,5.3,5.3,0,0,1,.79-6.23Z"/><rect class="cls-2" x="224.41" y="193.36" width="1.64" height="17.67"/><path class="cls-2" d="M230.6,200.1a6.83,6.83,0,0,0,.1,9.26,6.74,6.74,0,0,0,9.58,0,6.85,6.85,0,0,0,.1-9.28,6.66,6.66,0,0,0-9.78,0Zm9.88,4.62a5.22,5.22,0,0,1-.67,2.58,4.81,4.81,0,0,1-1.81,1.85,5.15,5.15,0,0,1-5,0,4.74,4.74,0,0,1-1.81-1.85,5.3,5.3,0,0,1,.79-6.23,4.85,4.85,0,0,1,7,0A5,5,0,0,1,240.48,204.72Z"/><path class="cls-2" d="M255.68,212.31a3.81,3.81,0,0,1-1.65,1.57,5.87,5.87,0,0,1-2.84.63,6,6,0,0,1-2.85-.61,4.73,4.73,0,0,1-1.87-1.87h-1.78a7.33,7.33,0,0,0,1.51,2.28,5.84,5.84,0,0,0,2.12,1.25,8.78,8.78,0,0,0,3,.46,7.38,7.38,0,0,0,3.83-1,5,5,0,0,0,2.24-2.71,12,12,0,0,0,.47-3.92V198.28h-1.64v2.21a7.5,7.5,0,0,0-2.39-2,6.14,6.14,0,0,0-2.67-.59,6.66,6.66,0,0,0-5.71,3.31,6.67,6.67,0,0,0,0,6.55,6.37,6.37,0,0,0,2.4,2.35,6.63,6.63,0,0,0,3.31.87,6.54,6.54,0,0,0,2.83-.63,6.22,6.22,0,0,0,2.27-1.8v.66A7,7,0,0,1,255.68,212.31Zm-.81-4.19a4.92,4.92,0,0,1-3.63,1.36,5,5,0,0,1-3.65-1.37,4.62,4.62,0,0,1-1.4-3.47,5.11,5.11,0,0,1,.67-2.57,4.94,4.94,0,0,1,1.88-1.86,5.19,5.19,0,0,1,2.59-.68,5,5,0,0,1,2.5.66,4.6,4.6,0,0,1,1.79,1.79,5.18,5.18,0,0,1,.63,2.57A4.77,4.77,0,0,1,254.87,208.12Z"/><polygon class="cls-2" points="264.47 215.69 272.07 198.28 270.33 198.28 266.07 208.1 261.69 198.28 259.95 198.28 265.19 210.06 262.73 215.69 264.47 215.69"/></g></svg>