<svg xmlns="http://www.w3.org/2000/svg" xmlns:xlink="http://www.w3.org/1999/xlink" width="177" height="79" viewBox="0 0 177 79">
    <defs>
        <path id="a" d="M3.77 15L.536.755h2.678l2.044 9.087L7.817.755h2.262l2.579 9.087L14.682.755h2.678L14.146 15h-2.6L8.909 5.794 6.348 15H3.77zm22.082-3.095l2.222 1.051c-1.131 1.608-2.62 2.322-4.841 2.322-3.353 0-5.516-2.46-5.516-5.555 0-2.877 2.083-5.536 5.476-5.536 3.333 0 5.595 2.381 5.595 5.714 0 .238-.02.357-.02.595h-8.492c.258 1.568 1.449 2.44 2.957 2.44 1.13 0 1.884-.317 2.619-1.031zm-5.456-3.492h5.733c-.357-1.23-1.488-1.984-2.896-1.984-1.31 0-2.322.655-2.837 1.984zM38.688 15v-1.111c-.932.913-1.924 1.389-3.254 1.389-2.678 0-5.02-2.302-5.02-5.536 0-3.293 2.223-5.555 4.96-5.555 1.27 0 2.362.476 3.314 1.429V4.465h2.639V15h-2.639zM35.91 6.608c-1.746 0-2.837 1.388-2.837 3.115 0 1.805 1.19 3.134 2.837 3.134 1.627 0 2.897-1.23 2.897-3.154 0-1.845-1.23-3.095-2.897-3.095zM47.358 15L42.854 4.465h2.699l2.658 6.21 2.659-6.21h2.678L49.064 15h-1.706zm7.48 0V4.465h2.638V15h-2.638zM56.148.12c.952 0 1.686.794 1.686 1.746 0 .932-.754 1.686-1.687 1.686-.972 0-1.686-.853-1.686-1.825 0-.913.774-1.607 1.686-1.607zM67.653 15v-1.111c-.932.913-1.924 1.389-3.253 1.389-2.679 0-5.02-2.302-5.02-5.536 0-3.293 2.222-5.555 4.96-5.555 1.27 0 2.361.476 3.313 1.429V4.465h2.64V15h-2.64zm-2.777-8.392c-1.746 0-2.837 1.388-2.837 3.115 0 1.805 1.19 3.134 2.837 3.134 1.627 0 2.896-1.23 2.896-3.154 0-1.845-1.23-3.095-2.896-3.095zm8.392-2.143V.576h2.639v3.889h1.567v2.262h-1.567V15h-2.639V6.727H71.92V4.465h1.35zm13.293 7.44l2.222 1.051c-1.13 1.608-2.619 2.322-4.841 2.322-3.353 0-5.515-2.46-5.515-5.555 0-2.877 2.083-5.536 5.475-5.536 3.333 0 5.595 2.381 5.595 5.714 0 .238-.02.357-.02.595h-8.491c.258 1.568 1.448 2.44 2.956 2.44 1.13 0 1.885-.317 2.619-1.031zm-5.456-3.492h5.734c-.357-1.23-1.488-1.984-2.897-1.984-1.31 0-2.321.655-2.837 1.984z"/>
        <path id="b" d="M1.746 15.84V1.595h1.428v5.337l5.694-5.337h1.925L3.948 7.983l7.38 7.857H9.445l-6.27-6.646v6.646H1.746zm21.864-5.158h-9.484c.06 2.42 1.706 4.186 3.968 4.186 2.202 0 3.254-1.25 4.028-2.52l1.13.595c-1.07 2.103-2.718 3.155-5.019 3.155-3.492 0-5.496-2.678-5.496-5.496 0-2.877 2.123-5.575 5.417-5.575 2.995 0 5.416 2.163 5.456 5.655zm-9.345-1.19h7.857c-.556-2.183-2.123-3.155-3.949-3.155-1.884 0-3.293 1.011-3.908 3.154zm15.059 5.554l-4.326-9.741h1.429l3.63 8.115 3.512-8.115h1.449l-6.29 14.384H27.3l2.024-4.643zm8.808-9.741v1.924c1.052-1.468 2.5-2.202 4.187-2.202 3.075 0 5.456 2.52 5.456 5.516s-2.322 5.555-5.417 5.555c-1.646 0-3.075-.675-4.226-2.063v5.654h-1.349V5.305h1.35zm4.088 1.032c-2.361 0-4.187 1.845-4.187 4.285 0 2.619 2.024 4.246 4.187 4.246 2.34 0 4.166-1.984 4.166-4.286 0-2.261-1.746-4.245-4.166-4.245zm18.45 4.345h-9.483c.06 2.42 1.706 4.186 3.968 4.186 2.202 0 3.254-1.25 4.028-2.52l1.13.595c-1.07 2.103-2.717 3.155-5.019 3.155-3.492 0-5.496-2.678-5.496-5.496 0-2.877 2.123-5.575 5.417-5.575 2.996 0 5.416 2.163 5.456 5.655zm-9.344-1.19h7.857c-.556-2.183-2.123-3.155-3.948-3.155-1.885 0-3.294 1.011-3.909 3.154zm12.757-4.187v1.528c.794-1.151 1.647-1.806 2.718-1.806.615 0 .933.199 1.21.357l-.714 1.151c-.158-.08-.416-.198-.714-.198-.992 0-1.885.853-2.282 2.301-.178.675-.218 1.766-.218 3.194v4.008h-1.428V5.305h1.428z"/>
    </defs>
    <g fill="none" fill-rule="evenodd">
        <g fill-rule="nonzero">
            <g transform="translate(85.19 24.95)">
                <use fill="#000" xlink:href="#a"/>
                <use fill="#FFF" xlink:href="#a"/>
            </g>
            <g transform="translate(85.19 43.95)">
                <use fill="#000" xlink:href="#b"/>
                <use fill="#FFF" xlink:href="#b"/>
            </g>
        </g>
        <path fill="#FFF" fill-rule="nonzero" d="M34 78.94a1.58 1.58 0 0 1-.79-.21L.81 60A1.58 1.58 0 0 1 0 58.66V21.24a1.58 1.58 0 0 1 .78-1.37L33.22 1.16a1.59 1.59 0 0 1 1.58 0l32.4 18.71c.49.281.793.804.79 1.37v37.42A1.57 1.57 0 0 1 67.2 60L34.8 78.73a1.61 1.61 0 0 1-.8.21zM3.18 57.75L34 75.54l30.84-17.79v-35.6L34 4.35 3.18 22.15v35.6z"/>
        <path fill="#FFF" d="M34.01 40.58l10.73-6.2-10.73-6.19-10.73 6.19V21.99l-10.73 6.2v24.78l10.73 6.19V46.77L34 52.97l.01 12.39 10.73-6.2V46.77z"/>
        <path fill="#FFF" fill-rule="nonzero" d="M29.64 18.32l-1.33.77-.84.49.63 1.09 2.19-1.26-.63-1.1-.02.01zm-4.38 2.53l-1.49.86h-.08l-.61.35.63 1.09 2.19-1.26-.64-1.09v.05zm-4.37 2.52l-2.19 1.27.64 1.09 2.18-1.26-.63-1.1zm-4.37 2.53l-1.44.83H15l-.69.4.69 1.12L17.15 27l-.63-1.09v-.01zm-4 2.76v2.52h1.26v-2.52h-1.26zm0 5.05v2.52h1.26v-2.52h-1.26zm0 5v2.53h1.26v-2.49l-1.26-.04zm0 5v2.53h1.26V43.8l-1.26-.09zm0 5v2.53h1.26v-2.39l-1.26-.14zM14 52.34l-.63 1.09 2.19 1.27.63-1.1L14 52.34zm4.37 2.53L17.73 56l2.19 1.26.63-1.09-2.19-1.26.01-.04zm4.38 2.52l-.64 1.09.7.4h.09l1.36.79.63-1.1-2.18-1.26.04.08zm4.37 2.53L26.48 61l1.31.76H28.08l.5.29.63-1.09-2.18-1.26.09.22zm4.37 2.52l-.63 1.09L33 64.8l.63-1.1-2.19-1.26h.05zm5.3-.14l-2.19 1.26.63 1.1 2.19-1.26-.63-1.09v-.01zm4.37-2.52L39 61l.64 1.09 1.48-.86.69-.4-.63-1.09-.02.04zm4.37-2.53l-2.18 1.26.63 1.1 2.09-1.21h.05l-.63-1.09.04-.06zm4.38-2.52L47.71 56l.63 1.09 1.49-.86.67-.39-.63-1.09.04-.02zm4.37-2.53l-2.19 1.26.63 1.1 2.14-1.23-.63-1.1.05-.03zm1.2-3.63h-1.27v2.53h1.26v-2.53h.01zm0-5h-1.27v2.52h1.26v-2.56l.01.04zm0-5.05h-1.27V41h1.26v-2.52l.01.04zm0-5h-1.27V36h1.26v-2.57l.01.09zm0-5h-1.27v2.38h1.26v-2.52l.01.14zm-4.21-2.62l-.63 1.09 2.18 1.26.63-1.25-1.45-.84-.09-.06h-.16l-.39-.23-.09.03zm-4.37-2.53l-.63 1.1 2.18 1.26.63-1.09-2.18-1.27zm-4.38-2.52l-.63 1.09 2.19 1.27.62-1.21-2.19-1.26.01.11zm-4.37-2.52l-.63 1.09 2.19 1.26.63-1.09-2.19-1.26zM34 15.8h-.09l-2.1 1.21.63 1.1 1.56-.9 1.31.76.63-1.1L34 15.8z"/>
    </g>
</svg>
