<?xml version="1.0" encoding="UTF-8"?>
<svg width="156px" height="60px" viewBox="0 0 156 60" version="1.1" xmlns="http://www.w3.org/2000/svg" xmlns:xlink="http://www.w3.org/1999/xlink">
    <!-- Generator: Sketch 53.2 (72643) - https://sketchapp.com -->
    <title>logos/SeMI/simple/horizontal/white</title>
    <desc>Created with Sketch.</desc>
    <g id="logos/SeMI/simple/horizontal/white" stroke="none" stroke-width="1" fill="none" fill-rule="evenodd">
        <g id="SeMI-2_hw">
            <polygon id="Path" fill="#B3B3B3" points="0.390646766 15.195 0.390646766 44.64 13.161791 51.9975 13.161791 37.275 25.9329353 29.9175"></polygon>
            <polygon id="Path" fill="#FFFFFF" points="38.7040796 7.8375 25.9329353 0.4725 0.390646766 15.195 13.161791 22.56"></polygon>
            <polygon id="Path" fill="#FFFFFF" points="51.4752239 44.64 38.7040796 37.275 13.161791 51.9975 25.9329353 59.3625"></polygon>
            <polygon id="Path" fill="#B3B3B3" points="51.4752239 44.64 51.4752239 15.195 38.7040796 7.8375 38.7040796 22.56 25.9329353 29.9175"></polygon>
        </g>
        <path d="M81.3398438,20.1757812 L77.296875,23.75 C75.8775971,21.7708234 74.432299,20.78125 72.9609375,20.78125 C72.2447881,20.78125 71.6588564,20.9733054 71.203125,21.3574219 C70.7473936,21.7415384 70.5195312,22.1744768 70.5195312,22.65625 C70.5195312,23.1380232 70.68229,23.5937479 71.0078125,24.0234375 C71.450523,24.596357 72.7851451,25.8268135 75.0117188,27.7148438 C77.0950625,29.4596441 78.3580707,30.5598936 78.8007812,31.015625 C79.9075576,32.1354223 80.692055,33.2063751 81.1542969,34.2285156 C81.6165388,35.2506562 81.8476562,36.3671814 81.8476562,37.578125 C81.8476562,39.9349076 81.0338623,41.8815027 79.40625,43.4179688 C77.7786377,44.9544348 75.6562631,45.7226562 73.0390625,45.7226562 C70.9947814,45.7226562 69.2142003,45.2213592 67.6972656,44.21875 C66.180331,43.2161408 64.8815158,41.6406357 63.8007812,39.4921875 L68.390625,36.71875 C69.7708402,39.2578252 71.359366,40.5273438 73.15625,40.5273438 C74.0937547,40.5273438 74.8815072,40.253909 75.5195312,39.7070312 C76.1575553,39.1601535 76.4765625,38.5286494 76.4765625,37.8125 C76.4765625,37.1614551 76.2356795,36.5104199 75.7539062,35.859375 C75.272133,35.2083301 74.2109457,34.2122463 72.5703125,32.8710938 C69.4452969,30.3189977 67.4270879,28.3496163 66.515625,26.9628906 C65.6041621,25.5761649 65.1484375,24.1927152 65.1484375,22.8125 C65.1484375,20.8203025 65.9068935,19.1113353 67.4238281,17.6855469 C68.9407628,16.2597585 70.8124889,15.546875 73.0390625,15.546875 C74.4713613,15.546875 75.83528,15.8789029 77.1308594,16.5429688 C78.4264388,17.2070346 79.8294195,18.41796 81.3398438,20.1757812 Z M107.785156,35.9179688 L90.65625,35.9179688 C90.9036471,37.428393 91.5644478,38.6295528 92.6386719,39.5214844 C93.712896,40.4134159 95.083325,40.859375 96.75,40.859375 C98.7421975,40.859375 100.45442,40.1627674 101.886719,38.7695312 L106.378906,40.8789062 C105.259109,42.4674559 103.917977,43.6425743 102.355469,44.4042969 C100.792961,45.1660194 98.9375107,45.546875 96.7890625,45.546875 C93.4557125,45.546875 90.7408959,44.4954532 88.6445312,42.3925781 C86.5481666,40.289703 85.5,37.6562658 85.5,34.4921875 C85.5,31.2499838 86.5449114,28.5579534 88.6347656,26.4160156 C90.7246198,24.2740778 93.3450363,23.203125 96.4960938,23.203125 C99.8424646,23.203125 102.563792,24.2740778 104.660156,26.4160156 C106.756521,28.5579534 107.804688,31.3867012 107.804688,34.9023438 L107.785156,35.9179688 Z M102.433594,31.71875 C102.082029,30.5338482 101.388677,29.5703162 100.353516,28.828125 C99.3183542,28.0859338 98.1171943,27.7148438 96.75,27.7148438 C95.2656176,27.7148438 93.9635473,28.1315063 92.84375,28.9648438 C92.1406215,29.4856797 91.4895863,30.4036393 90.890625,31.71875 L102.433594,31.71875 Z M115.460938,16.2695312 L120.8125,16.2695312 L127.453125,36.3085938 L134.191406,16.2695312 L139.464844,16.2695312 L144.308594,45 L139.035156,45 L135.949219,26.8554688 L129.835938,45 L125.011719,45 L118.976562,26.8554688 L115.832031,45 L110.5,45 L115.460938,16.2695312 Z M148.292969,16.2695312 L153.722656,16.2695312 L153.722656,45 L148.292969,45 L148.292969,16.2695312 Z" id="SeMI" fill="#FFFFFF" fill-rule="nonzero"></path>
    </g>
</svg>