<svg xmlns="http://www.w3.org/2000/svg" width="68" height="79" viewBox="0 0 68 79">
    <g fill="#FFF" fill-rule="evenodd">
        <path fill-rule="nonzero" d="M34 78.94a1.58 1.58 0 0 1-.79-.21L.81 60A1.58 1.58 0 0 1 0 58.66V21.24a1.58 1.58 0 0 1 .78-1.37L33.22 1.16a1.59 1.59 0 0 1 1.58 0l32.4 18.71c.49.281.793.804.79 1.37v37.42A1.57 1.57 0 0 1 67.2 60L34.8 78.73a1.61 1.61 0 0 1-.8.21zM3.18 57.75L34 75.54l30.84-17.79v-35.6L34 4.35 3.18 22.15v35.6z"/>
        <path d="M34.01 40.58l10.73-6.2-10.73-6.19-10.73 6.19V21.99l-10.73 6.2v24.78l10.73 6.19V46.77L34 52.97l.01 12.39 10.73-6.2V46.77z"/>
        <path fill-rule="nonzero" d="M29.64 18.32l-1.33.77-.84.49.63 1.09 2.19-1.26-.63-1.1-.02.01zm-4.38 2.53l-1.49.86h-.08l-.61.35.63 1.09 2.19-1.26-.64-1.09v.05zm-4.37 2.52l-2.19 1.27.64 1.09 2.18-1.26-.63-1.1zm-4.37 2.53l-1.44.83H15l-.69.4.69 1.12L17.15 27l-.63-1.09v-.01zm-4 2.76v2.52h1.26v-2.52h-1.26zm0 5.05v2.52h1.26v-2.52h-1.26zm0 5v2.53h1.26v-2.49l-1.26-.04zm0 5v2.53h1.26V43.8l-1.26-.09zm0 5v2.53h1.26v-2.39l-1.26-.14zM14 52.34l-.63 1.09 2.19 1.27.63-1.1L14 52.34zm4.37 2.53L17.73 56l2.19 1.26.63-1.09-2.19-1.26.01-.04zm4.38 2.52l-.64 1.09.7.4h.09l1.36.79.63-1.1-2.18-1.26.04.08zm4.37 2.53L26.48 61l1.31.76H28.08l.5.29.63-1.09-2.18-1.26.09.22zm4.37 2.52l-.63 1.09L33 64.8l.63-1.1-2.19-1.26h.05zm5.3-.14l-2.19 1.26.63 1.1 2.19-1.26-.63-1.09v-.01zm4.37-2.52L39 61l.64 1.09 1.48-.86.69-.4-.63-1.09-.02.04zm4.37-2.53l-2.18 1.26.63 1.1 2.09-1.21h.05l-.63-1.09.04-.06zm4.38-2.52L47.71 56l.63 1.09 1.49-.86.67-.39-.63-1.09.04-.02zm4.37-2.53l-2.19 1.26.63 1.1 2.14-1.23-.63-1.1.05-.03zm1.2-3.63h-1.27v2.53h1.26v-2.53h.01zm0-5h-1.27v2.52h1.26v-2.56l.01.04zm0-5.05h-1.27V41h1.26v-2.52l.01.04zm0-5h-1.27V36h1.26v-2.57l.01.09zm0-5h-1.27v2.38h1.26v-2.52l.01.14zm-4.21-2.62l-.63 1.09 2.18 1.26.63-1.25-1.45-.84-.09-.06h-.16l-.39-.23-.09.03zm-4.37-2.53l-.63 1.1 2.18 1.26.63-1.09-2.18-1.27zm-4.38-2.52l-.63 1.09 2.19 1.27.62-1.21-2.19-1.26.01.11zm-4.37-2.52l-.63 1.09 2.19 1.26.63-1.09-2.19-1.26zM34 15.8h-.09l-2.1 1.21.63 1.1 1.56-.9 1.31.76.63-1.1L34 15.8z"/>
    </g>
</svg>
