<svg xmlns="http://www.w3.org/2000/svg" viewBox="0 0 360 360"><defs><style>.cls-1{fill:#fff;}</style></defs><g id="Layer_2" data-name="Layer 2"><path class="cls-1" d="M171.15,150.38a9,9,0,1,0,9-9A9,9,0,0,0,171.15,150.38Zm9-6a6,6,0,1,1-6,6A6,6,0,0,1,180.13,144.41Z"/><circle class="cls-1" cx="154.63" cy="106.22" r="4.49"/><circle class="cls-1" cx="154.63" cy="135.66" r="4.49"/><circle class="cls-1" cx="180.13" cy="120.58" r="4.49"/><circle class="cls-1" cx="129.13" cy="120.58" r="4.49"/><circle class="cls-1" cx="129.14" cy="150.03" r="4.49"/><circle class="cls-1" cx="129.13" cy="238.72" r="4.49"/><circle class="cls-1" cx="154.63" cy="253.44" r="4.49"/><circle class="cls-1" cx="180.13" cy="238.72" r="4.49"/><circle class="cls-1" cx="103.11" cy="165.11" r="4.49"/><path class="cls-1" d="M98.88,194.55a4.49,4.49,0,1,0,4.49-4.48A4.5,4.5,0,0,0,98.88,194.55Z"/><circle class="cls-1" cx="205.38" cy="106.22" r="4.49"/><circle class="cls-1" cx="205.38" cy="135.66" r="4.49"/><circle class="cls-1" cx="230.88" cy="120.58" r="4.49"/><circle class="cls-1" cx="230.87" cy="150.03" r="4.49"/><circle class="cls-1" cx="230.88" cy="238.72" r="4.49"/><circle class="cls-1" cx="205.38" cy="253.44" r="4.49"/><circle class="cls-1" cx="256.9" cy="165.11" r="4.49"/><path class="cls-1" d="M256.64,190.07a4.49,4.49,0,1,0,4.49,4.48A4.49,4.49,0,0,0,256.64,190.07Z"/><path class="cls-1" d="M180.19,82.27a9,9,0,1,0,9,9A9,9,0,0,0,180.19,82.27Zm0,14.94a6,6,0,1,1,6-6A6,6,0,0,1,180.19,97.21Z"/><path class="cls-1" d="M103.37,126.69a9,9,0,1,0,9,9A9,9,0,0,0,103.37,126.69Zm0,14.94a6,6,0,1,1,6-6A6,6,0,0,1,103.37,141.63Z"/><path class="cls-1" d="M103.37,215a9,9,0,1,0,9,9A9,9,0,0,0,103.37,215Zm0,14.94a6,6,0,1,1,6-6A6,6,0,0,1,103.37,230Z"/><path class="cls-1" d="M256.63,144.63a9,9,0,1,0-9-9A9,9,0,0,0,256.63,144.63Zm0-14.94a6,6,0,1,1-6,6A6,6,0,0,1,256.63,129.69Z"/><path class="cls-1" d="M256.63,215a9,9,0,1,0,9,9A9,9,0,0,0,256.63,215Zm0,14.94a6,6,0,1,1,6-6A6,6,0,0,1,256.63,230Z"/><path class="cls-1" d="M180.19,259.79a9,9,0,1,0,9,9A9,9,0,0,0,180.19,259.79Zm0,14.94a6,6,0,1,1,6-6A6,6,0,0,1,180.19,274.73Z"/><polygon class="cls-1" points="129.14 179.12 129.14 208.56 154.64 223.28 180.14 208.56 205.64 223.28 231.14 208.56 231.14 179.12 205.65 164.39 205.64 193.84 180.14 179.12 154.64 193.84 154.64 164.39 129.14 179.12"/></g></svg>