<?xml version="1.0" encoding="utf-8"?>
<!-- Generator: Adobe Illustrator 24.1.0, SVG Export Plug-In . SVG Version: 6.00 Build 0)  -->
<svg version="1.1" id="Layer_1" xmlns="http://www.w3.org/2000/svg" xmlns:xlink="http://www.w3.org/1999/xlink" x="0px" y="0px"
	 viewBox="0 0 238 84" style="enable-background:new 0 0 238 84;" xml:space="preserve">
<style type="text/css">
	.st0{fill:#2E3536;}
	.st1{fill-rule:evenodd;clip-rule:evenodd;fill:#005DCF;}
	.st2{fill-rule:evenodd;clip-rule:evenodd;fill:#FFFFFF;}
	.st3{fill:#005DCF;}
</style>
<g>
	<g>
		<g transform="translate(89.19 26.95)">
			<g>
				<path id="a" d="M3.8,15L0.5,0.8h2.7l2,9.1l2.6-9.1h2.3l2.6,9.1l2-9.1h2.7L14.1,15h-2.6L8.9,5.8L6.3,15H3.8z M25.9,11.9l2.2,1.1
					c-1.1,1.6-2.6,2.3-4.8,2.3c-3.4,0-5.5-2.5-5.5-5.6c0-2.9,2.1-5.5,5.5-5.5c3.3,0,5.6,2.4,5.6,5.7c0,0.2,0,0.4,0,0.6h-8.5
					c0.3,1.6,1.4,2.4,3,2.4C24.4,12.9,25.1,12.6,25.9,11.9z M20.4,8.4h5.7c-0.4-1.2-1.5-2-2.9-2C21.9,6.4,20.9,7.1,20.4,8.4z
					 M38.7,15v-1.1c-0.9,0.9-1.9,1.4-3.3,1.4c-2.7,0-5-2.3-5-5.5c0-3.3,2.2-5.6,5-5.6c1.3,0,2.4,0.5,3.3,1.4V4.5h2.6V15
					C41.3,15,38.7,15,38.7,15z M35.9,6.6c-1.7,0-2.8,1.4-2.8,3.1c0,1.8,1.2,3.1,2.8,3.1c1.6,0,2.9-1.2,2.9-3.2
					C38.8,7.9,37.6,6.6,35.9,6.6z M47.4,15L42.9,4.5h2.7l2.7,6.2l2.7-6.2h2.7L49.1,15C49.1,15,47.4,15,47.4,15z M54.8,15V4.5h2.6V15
					H54.8z M56.1,0.1c1,0,1.7,0.8,1.7,1.7c0,0.9-0.8,1.7-1.7,1.7c-1,0-1.7-0.9-1.7-1.8C54.5,0.8,55.2,0.1,56.1,0.1L56.1,0.1z
					 M67.7,15v-1.1c-0.9,0.9-1.9,1.4-3.3,1.4c-2.7,0-5-2.3-5-5.5c0-3.3,2.2-5.6,5-5.6c1.3,0,2.4,0.5,3.3,1.4V4.5h2.6V15
					C70.3,15,67.7,15,67.7,15z M64.9,6.6C63.1,6.6,62,8,62,9.7c0,1.8,1.2,3.1,2.8,3.1c1.6,0,2.9-1.2,2.9-3.2
					C67.8,7.9,66.5,6.6,64.9,6.6z M73.3,4.5V0.6h2.6v3.9h1.6v2.3h-1.6V15h-2.6V6.7h-1.3V4.5H73.3L73.3,4.5z M86.6,11.9l2.2,1.1
					c-1.1,1.6-2.6,2.3-4.8,2.3c-3.4,0-5.5-2.5-5.5-5.6c0-2.9,2.1-5.5,5.5-5.5c3.3,0,5.6,2.4,5.6,5.7c0,0.2,0,0.4,0,0.6H81
					c0.3,1.6,1.4,2.4,3,2.4C85.1,12.9,85.8,12.6,86.6,11.9z M81.1,8.4h5.7c-0.4-1.2-1.5-2-2.9-2C82.6,6.4,81.6,7.1,81.1,8.4z"/>
			</g>
			<g>
				<path id="a_1_" class="st0" d="M3.8,15L0.5,0.8h2.7l2,9.1l2.6-9.1h2.3l2.6,9.1l2-9.1h2.7L14.1,15h-2.6L8.9,5.8L6.3,15H3.8z
					 M25.9,11.9l2.2,1.1c-1.1,1.6-2.6,2.3-4.8,2.3c-3.4,0-5.5-2.5-5.5-5.6c0-2.9,2.1-5.5,5.5-5.5c3.3,0,5.6,2.4,5.6,5.7
					c0,0.2,0,0.4,0,0.6h-8.5c0.3,1.6,1.4,2.4,3,2.4C24.4,12.9,25.1,12.6,25.9,11.9z M20.4,8.4h5.7c-0.4-1.2-1.5-2-2.9-2
					C21.9,6.4,20.9,7.1,20.4,8.4z M38.7,15v-1.1c-0.9,0.9-1.9,1.4-3.3,1.4c-2.7,0-5-2.3-5-5.5c0-3.3,2.2-5.6,5-5.6
					c1.3,0,2.4,0.5,3.3,1.4V4.5h2.6V15C41.3,15,38.7,15,38.7,15z M35.9,6.6c-1.7,0-2.8,1.4-2.8,3.1c0,1.8,1.2,3.1,2.8,3.1
					c1.6,0,2.9-1.2,2.9-3.2C38.8,7.9,37.6,6.6,35.9,6.6z M47.4,15L42.9,4.5h2.7l2.7,6.2l2.7-6.2h2.7L49.1,15
					C49.1,15,47.4,15,47.4,15z M54.8,15V4.5h2.6V15H54.8z M56.1,0.1c1,0,1.7,0.8,1.7,1.7c0,0.9-0.8,1.7-1.7,1.7
					c-1,0-1.7-0.9-1.7-1.8C54.5,0.8,55.2,0.1,56.1,0.1L56.1,0.1z M67.7,15v-1.1c-0.9,0.9-1.9,1.4-3.3,1.4c-2.7,0-5-2.3-5-5.5
					c0-3.3,2.2-5.6,5-5.6c1.3,0,2.4,0.5,3.3,1.4V4.5h2.6V15C70.3,15,67.7,15,67.7,15z M64.9,6.6C63.1,6.6,62,8,62,9.7
					c0,1.8,1.2,3.1,2.8,3.1c1.6,0,2.9-1.2,2.9-3.2C67.8,7.9,66.5,6.6,64.9,6.6z M73.3,4.5V0.6h2.6v3.9h1.6v2.3h-1.6V15h-2.6V6.7
					h-1.3V4.5H73.3L73.3,4.5z M86.6,11.9l2.2,1.1c-1.1,1.6-2.6,2.3-4.8,2.3c-3.4,0-5.5-2.5-5.5-5.6c0-2.9,2.1-5.5,5.5-5.5
					c3.3,0,5.6,2.4,5.6,5.7c0,0.2,0,0.4,0,0.6H81c0.3,1.6,1.4,2.4,3,2.4C85.1,12.9,85.8,12.6,86.6,11.9z M81.1,8.4h5.7
					c-0.4-1.2-1.5-2-2.9-2C82.6,6.4,81.6,7.1,81.1,8.4z"/>
			</g>
		</g>
	</g>
	<path class="st1" d="M37.4,5.7l1.3-2.2l32.6,18.8L70,24.5L37.4,5.7z"/>
	<path class="st1" d="M69.3,23.5h2.5V48h-2.5V23.5z M37.3,78.9l22.4-12.9l1.3,2.2L38.6,81.1L37.3,78.9z"/>
	<path class="st1" d="M4.7,62.2L6,60l32.6,18.8L37.4,81L4.7,62.2z M6.6,34.8V24.2l11.1-6.4l-1.3-2.2L4.7,22.3
		c-0.4,0.2-0.6,0.6-0.6,1.1v11.3C4.1,34.8,6.6,34.8,6.6,34.8z"/>
	<path class="st1" d="M16.2,18l1.3-2.2l53,30.6l-1.3,2.2L16.2,18z M4.1,36l1.3-2.2l56.2,32.4l-1.3,2.2L4.1,36z"/>
	<path class="st1" d="M16.4,41.5V54l10.8,6.2L38,54l10.8,6.2L59.6,54V41.5l-10.8-6.2v12.5L38,41.5l-10.8,6.2V35.2L16.4,41.5z"/>
	<circle class="st2" cx="38" cy="5" r="3.5"/>
	<path class="st3" d="M38,9.4c-2.5,0-4.5-2-4.5-4.5c0-2.5,2-4.5,4.5-4.5c2.5,0,4.5,2,4.5,4.5c0,0,0,0,0,0C42.5,7.5,40.5,9.4,38,9.4z
		 M38,2.4c-1.4,0-2.6,1.2-2.6,2.6s1.2,2.6,2.6,2.6c1.4,0,2.5-1.1,2.6-2.5C40.6,3.6,39.5,2.4,38,2.4C38,2.4,38,2.4,38,2.4z"/>
	<circle class="st2" cx="70.5" cy="23" r="3.5"/>
	<path class="st3" d="M70.5,27.5c-2.5,0-4.5-2-4.5-4.5s2-4.5,4.5-4.5s4.5,2,4.5,4.5S73,27.5,70.5,27.5z M70.5,20.5
		c-1.4,0-2.6,1.2-2.6,2.6s1.2,2.6,2.6,2.6c1.4,0,2.6-1.2,2.6-2.6C73.1,21.6,71.9,20.5,70.5,20.5z"/>
	<circle class="st2" cx="38" cy="78.8" r="3.5"/>
	<path class="st3" d="M38,83.3c-2.5,0-4.5-2-4.5-4.5c0-2.5,2-4.5,4.5-4.5c2.5,0,4.5,2,4.5,4.5C42.5,81.3,40.5,83.3,38,83.3z
		 M38,76.3c-1.4,0-2.6,1.2-2.6,2.6c0,1.4,1.2,2.6,2.6,2.6c1.4,0,2.6-1.2,2.6-2.6c0,0,0,0,0,0C40.6,77.4,39.5,76.3,38,76.3
		C38,76.3,38,76.2,38,76.3L38,76.3z"/>
	<circle class="st2" cx="60.1" cy="67.2" r="3.5"/>
	<path class="st3" d="M60.1,71.6c-2.5,0-4.5-2-4.5-4.5c0-2.5,2-4.5,4.5-4.5s4.5,2,4.5,4.5S62.6,71.6,60.1,71.6z M60.1,64.6
		c-1.4,0-2.6,1.1-2.6,2.6c0,1.4,1.1,2.6,2.6,2.6c1.4,0,2.6-1.1,2.6-2.6C62.7,65.7,61.5,64.6,60.1,64.6z"/>
	<circle class="st2" cx="70.7" cy="47.6" r="3.5"/>
	<path class="st3" d="M70.7,52.1c-2.5,0-4.5-2-4.5-4.5s2-4.5,4.5-4.5c2.5,0,4.5,2,4.5,4.5C75.2,50.1,73.2,52.1,70.7,52.1z M70.7,45
		c-1.4,0-2.6,1.2-2.6,2.6c0,1.4,1.2,2.6,2.6,2.6c1.4,0,2.6-1.2,2.6-2.6l0,0C73.3,46.2,72.2,45,70.7,45L70.7,45z"/>
	<circle class="st2" cx="16.7" cy="16.9" r="3.5"/>
	<path class="st3" d="M16.7,21.4c-2.5,0-4.5-2-4.5-4.5s2-4.5,4.5-4.5s4.5,2,4.5,4.5S19.2,21.4,16.7,21.4z M16.7,14.3
		c-1.4,0-2.6,1.2-2.6,2.6s1.2,2.6,2.6,2.6s2.6-1.2,2.6-2.6l0,0C19.3,15.5,18.1,14.3,16.7,14.3C16.7,14.3,16.7,14.3,16.7,14.3z"/>
	<circle class="st2" cx="38" cy="29.4" r="3.5"/>
	<path class="st3" d="M38,33.8c-2.5,0-4.5-2-4.5-4.5s2-4.5,4.5-4.5c2.5,0,4.5,2,4.5,4.5c0,0,0,0,0,0C42.5,31.8,40.5,33.8,38,33.8z
		 M38,26.8c-1.4,0-2.6,1.1-2.6,2.6c0,1.4,1.1,2.6,2.6,2.6c1.4,0,2.6-1.1,2.6-2.6c0,0,0,0,0,0C40.6,27.9,39.4,26.8,38,26.8z"/>
	<circle class="st2" cx="5.4" cy="34.8" r="3.5"/>
	<path class="st3" d="M5.4,39.3c-2.5,0-4.5-2-4.5-4.5s2-4.5,4.5-4.5c2.5,0,4.5,2,4.5,4.5C9.9,37.2,7.8,39.3,5.4,39.3L5.4,39.3z
		 M5.4,32.2c-1.4,0-2.6,1.1-2.6,2.6c0,1.4,1.1,2.6,2.6,2.6s2.6-1.1,2.6-2.6C7.9,33.4,6.8,32.2,5.4,32.2z"/>
	<circle class="st2" cx="5.4" cy="60.2" r="3.5"/>
	<path class="st3" d="M5.4,64.7c-2.5,0-4.5-2-4.5-4.5s2-4.5,4.5-4.5s4.5,2,4.5,4.5l0,0C9.8,62.7,7.8,64.7,5.4,64.7z M5.4,57.6
		c-1.4,0-2.6,1.1-2.6,2.6s1.1,2.6,2.6,2.6s2.6-1.1,2.6-2.6c0,0,0,0,0,0C7.9,58.8,6.8,57.6,5.4,57.6z"/>
</g>
<g>
	<path class="st0" d="M104.7,50.3l-1.1,0.9c-0.6-0.8-1.3-1.4-2.2-1.8c-0.9-0.4-1.8-0.6-2.8-0.6c-1.1,0-2.2,0.3-3.1,0.8
		c-1,0.5-1.7,1.3-2.2,2.2c-0.5,0.9-0.8,1.9-0.8,3.1c0,1.7,0.6,3.2,1.8,4.3c1.2,1.1,2.7,1.7,4.5,1.7c2,0,3.6-0.8,4.9-2.3l1.1,0.8
		c-0.7,0.9-1.6,1.6-2.6,2.1c-1,0.5-2.2,0.7-3.5,0.7c-2.5,0-4.4-0.8-5.8-2.5c-1.2-1.4-1.8-3.1-1.8-5c0-2.1,0.7-3.8,2.2-5.2
		c1.4-1.4,3.3-2.1,5.4-2.1c1.3,0,2.5,0.3,3.6,0.8S104,49.4,104.7,50.3z"/>
	<path class="st0" d="M107.1,47.4h1.3v14.4h-1.3V47.4z"/>
	<path class="st0" d="M116.2,51.1c1.6,0,2.9,0.6,4,1.7c1,1.1,1.4,2.3,1.4,3.8c0,1.5-0.5,2.7-1.5,3.8s-2.3,1.6-3.9,1.6
		c-1.6,0-2.9-0.5-3.9-1.6s-1.5-2.4-1.5-3.8c0-1.4,0.5-2.7,1.4-3.8C113.2,51.7,114.6,51.1,116.2,51.1z M116.2,52.4
		c-1.1,0-2.1,0.4-2.9,1.2s-1.2,1.8-1.2,3c0,0.8,0.2,1.5,0.5,2.1c0.4,0.7,0.9,1.2,1.5,1.5c0.6,0.4,1.3,0.5,2,0.5c0.7,0,1.4-0.2,2-0.5
		c0.6-0.4,1.1-0.9,1.5-1.5c0.4-0.7,0.5-1.4,0.5-2.1c0-1.2-0.4-2.2-1.2-3C118.2,52.8,117.3,52.4,116.2,52.4z"/>
	<path class="st0" d="M123.9,51.4h1.3v4.9c0,1.2,0.1,2,0.2,2.5c0.2,0.6,0.6,1.1,1.1,1.5c0.5,0.4,1.2,0.6,1.9,0.6
		c0.7,0,1.4-0.2,1.9-0.5c0.5-0.4,0.9-0.8,1.1-1.4c0.1-0.4,0.2-1.3,0.2-2.6v-4.9h1.4v5.1c0,1.4-0.2,2.5-0.5,3.2s-0.8,1.3-1.5,1.7
		c-0.7,0.4-1.5,0.6-2.5,0.6c-1,0-1.9-0.2-2.5-0.6c-0.7-0.4-1.2-1-1.5-1.7s-0.5-1.8-0.5-3.3V51.4z"/>
	<path class="st0" d="M146.4,47.4v14.4h-1.3V60c-0.6,0.7-1.2,1.2-1.9,1.5c-0.7,0.3-1.5,0.5-2.3,0.5c-1.5,0-2.7-0.5-3.8-1.6
		c-1-1.1-1.6-2.4-1.6-3.9c0-1.5,0.5-2.8,1.6-3.8c1.1-1.1,2.3-1.6,3.8-1.6c0.9,0,1.6,0.2,2.3,0.5c0.7,0.4,1.3,0.9,1.8,1.6v-5.9H146.4
		z M141.1,52.4c-0.7,0-1.4,0.2-2.1,0.5c-0.6,0.4-1.1,0.9-1.5,1.5c-0.4,0.7-0.6,1.4-0.6,2.1c0,0.7,0.2,1.4,0.6,2.1
		c0.4,0.7,0.9,1.2,1.5,1.6c0.6,0.4,1.3,0.6,2,0.6c0.7,0,1.4-0.2,2.1-0.6c0.7-0.4,1.2-0.9,1.5-1.5c0.4-0.6,0.5-1.3,0.5-2.1
		c0-1.2-0.4-2.2-1.2-3S142.2,52.4,141.1,52.4z"/>
	<path class="st0" d="M153.6,59.2l1.2-0.7c0.8,1.6,1.8,2.3,2.9,2.3c0.5,0,0.9-0.1,1.3-0.3c0.4-0.2,0.7-0.5,0.9-0.9s0.3-0.8,0.3-1.2
		c0-0.5-0.2-0.9-0.5-1.4c-0.4-0.6-1.2-1.4-2.4-2.3c-1.2-0.9-1.9-1.5-2.2-1.9c-0.5-0.7-0.7-1.4-0.7-2.2c0-0.6,0.1-1.2,0.4-1.7
		c0.3-0.5,0.7-0.9,1.2-1.2c0.5-0.3,1.1-0.4,1.7-0.4c0.7,0,1.3,0.2,1.9,0.5c0.6,0.3,1.2,0.9,1.8,1.8l-1.1,0.9c-0.5-0.7-1-1.2-1.4-1.4
		c-0.4-0.2-0.8-0.3-1.2-0.3c-0.6,0-1,0.2-1.4,0.5s-0.5,0.8-0.5,1.3c0,0.3,0.1,0.6,0.2,0.9c0.1,0.3,0.4,0.6,0.7,0.9
		c0.2,0.2,0.8,0.6,1.8,1.4c1.2,0.9,2.1,1.7,2.5,2.4c0.5,0.7,0.7,1.4,0.7,2.1c0,1-0.4,1.9-1.2,2.7s-1.7,1.1-2.8,1.1
		c-0.9,0-1.6-0.2-2.3-0.7C154.9,61,154.2,60.2,153.6,59.2z"/>
	<path class="st0" d="M173.4,58.3l1.1,0.6c-0.4,0.7-0.8,1.3-1.3,1.8c-0.5,0.4-1,0.8-1.6,1c-0.6,0.2-1.3,0.3-2.1,0.3
		c-1.7,0-3-0.6-4-1.7c-1-1.1-1.4-2.4-1.4-3.8c0-1.3,0.4-2.5,1.2-3.5c1-1.3,2.4-2,4.1-2c1.8,0,3.2,0.7,4.3,2c0.8,1,1.1,2.1,1.1,3.6
		h-9.4c0,1.2,0.4,2.2,1.2,3c0.7,0.8,1.7,1.2,2.8,1.2c0.5,0,1-0.1,1.5-0.3c0.5-0.2,0.9-0.4,1.3-0.7C172.6,59.5,173,59,173.4,58.3z
		 M173.4,55.5c-0.2-0.7-0.4-1.3-0.8-1.7s-0.8-0.8-1.4-1s-1.2-0.4-1.8-0.4c-1,0-1.9,0.3-2.6,1c-0.5,0.5-0.9,1.2-1.2,2.2H173.4z"/>
	<path class="st0" d="M176.9,51.4h1.4v1.5c0.4-0.6,0.8-1,1.3-1.3s0.9-0.4,1.4-0.4c0.4,0,0.8,0.1,1.2,0.4l-0.7,1.1
		c-0.3-0.1-0.5-0.2-0.7-0.2c-0.4,0-0.9,0.2-1.3,0.5c-0.4,0.4-0.7,0.9-0.9,1.7c-0.2,0.6-0.2,1.8-0.2,3.6v3.5h-1.4V51.4z"/>
	<path class="st0" d="M182.3,51.4h1.4l3.5,7.6l3.5-7.6h1.4l-4.8,10.4h-0.2L182.3,51.4z"/>
	<path class="st0" d="M194.6,47.1c0.3,0,0.6,0.1,0.8,0.3c0.2,0.2,0.3,0.5,0.3,0.8c0,0.3-0.1,0.6-0.3,0.8c-0.2,0.2-0.5,0.3-0.8,0.3
		c-0.3,0-0.6-0.1-0.8-0.3s-0.3-0.5-0.3-0.8c0-0.3,0.1-0.6,0.3-0.8S194.3,47.1,194.6,47.1z M194,51.4h1.3v10.4H194V51.4z"/>
	<path class="st0" d="M208.2,53.5l-1.1,0.7c-0.9-1.2-2.2-1.8-3.8-1.8c-1.3,0-2.3,0.4-3.2,1.2c-0.8,0.8-1.3,1.8-1.3,3
		c0,0.8,0.2,1.5,0.6,2.1c0.4,0.7,0.9,1.2,1.6,1.6c0.7,0.4,1.4,0.6,2.3,0.6c1.5,0,2.8-0.6,3.7-1.8l1.1,0.7c-0.5,0.8-1.2,1.3-2,1.7
		c-0.8,0.4-1.8,0.6-2.9,0.6c-1.6,0-3-0.5-4.1-1.6s-1.6-2.3-1.6-3.8c0-1,0.3-1.9,0.8-2.8s1.2-1.5,2.1-2c0.9-0.5,1.9-0.7,3-0.7
		c0.7,0,1.4,0.1,2,0.3c0.6,0.2,1.2,0.5,1.6,0.8C207.5,52.6,207.9,53,208.2,53.5z"/>
	<path class="st0" d="M219.5,58.3l1.1,0.6c-0.4,0.7-0.8,1.3-1.3,1.8c-0.5,0.4-1,0.8-1.6,1c-0.6,0.2-1.3,0.3-2.1,0.3
		c-1.7,0-3-0.6-4-1.7c-1-1.1-1.4-2.4-1.4-3.8c0-1.3,0.4-2.5,1.2-3.5c1-1.3,2.4-2,4.1-2c1.8,0,3.2,0.7,4.3,2c0.8,1,1.1,2.1,1.1,3.6
		h-9.4c0,1.2,0.4,2.2,1.2,3c0.7,0.8,1.7,1.2,2.8,1.2c0.5,0,1-0.1,1.5-0.3c0.5-0.2,0.9-0.4,1.3-0.7C218.7,59.5,219.1,59,219.5,58.3z
		 M219.5,55.5c-0.2-0.7-0.4-1.3-0.8-1.7s-0.8-0.8-1.4-1s-1.2-0.4-1.8-0.4c-1,0-1.9,0.3-2.6,1c-0.5,0.5-0.9,1.2-1.2,2.2H219.5z"/>
</g>
</svg>
