<?xml version="1.0" encoding="utf-8"?>
<!-- Generator: Adobe Illustrator 24.1.0, SVG Export Plug-In . SVG Version: 6.00 Build 0)  -->
<svg version="1.1" id="Layer_1" xmlns="http://www.w3.org/2000/svg" xmlns:xlink="http://www.w3.org/1999/xlink" x="0px" y="0px"
	 viewBox="0 0 181 82" style="enable-background:new 0 0 181 82;" xml:space="preserve">
<style type="text/css">
	.st0{fill-rule:evenodd;clip-rule:evenodd;}
	.st1{enable-background:new    ;}
</style>
<g>
	<g>
		<g transform="translate(87.19 25.95)">
			<g>
				<path id="a" d="M3.8,15L0.5,0.8h2.7l2,9.1l2.6-9.1h2.3l2.6,9.1l2-9.1h2.7L14.1,15h-2.6L8.9,5.8L6.3,15H3.8z M25.9,11.9l2.2,1.1
					c-1.1,1.6-2.6,2.3-4.8,2.3c-3.4,0-5.5-2.5-5.5-5.6c0-2.9,2.1-5.5,5.5-5.5c3.3,0,5.6,2.4,5.6,5.7c0,0.2,0,0.4,0,0.6h-8.5
					c0.3,1.6,1.4,2.4,3,2.4C24.4,12.9,25.1,12.6,25.9,11.9z M20.4,8.4h5.7c-0.4-1.2-1.5-2-2.9-2C21.9,6.4,20.9,7.1,20.4,8.4z
					 M38.7,15v-1.1c-0.9,0.9-1.9,1.4-3.3,1.4c-2.7,0-5-2.3-5-5.5c0-3.3,2.2-5.6,5-5.6c1.3,0,2.4,0.5,3.3,1.4V4.5h2.6V15H38.7z
					 M35.9,6.6c-1.7,0-2.8,1.4-2.8,3.1c0,1.8,1.2,3.1,2.8,3.1s2.9-1.2,2.9-3.2C38.8,7.9,37.6,6.6,35.9,6.6z M47.4,15L42.9,4.5h2.7
					l2.7,6.2L51,4.5h2.7L49.1,15H47.4z M54.8,15V4.5h2.6V15H54.8z M56.1,0.1c1,0,1.7,0.8,1.7,1.7S57,3.5,56.1,3.5
					c-1,0-1.7-0.9-1.7-1.8C54.5,0.8,55.2,0.1,56.1,0.1L56.1,0.1z M67.7,15v-1.1c-0.9,0.9-1.9,1.4-3.3,1.4c-2.7,0-5-2.3-5-5.5
					c0-3.3,2.2-5.6,5-5.6c1.3,0,2.4,0.5,3.3,1.4V4.5h2.6V15C70.3,15,67.7,15,67.7,15z M64.9,6.6C63.1,6.6,62,8,62,9.7
					c0,1.8,1.2,3.1,2.8,3.1c1.6,0,2.9-1.2,2.9-3.2C67.8,7.9,66.5,6.6,64.9,6.6z M73.3,4.5V0.6h2.6v3.9h1.6v2.3h-1.6V15h-2.6V6.7H72
					V4.5H73.3L73.3,4.5z M86.6,11.9l2.2,1.1c-1.1,1.6-2.6,2.3-4.8,2.3c-3.4,0-5.5-2.5-5.5-5.6c0-2.9,2.1-5.5,5.5-5.5
					c3.3,0,5.6,2.4,5.6,5.7c0,0.2,0,0.4,0,0.6H81c0.3,1.6,1.4,2.4,3,2.4C85.1,12.9,85.8,12.6,86.6,11.9z M81.1,8.4h5.7
					c-0.4-1.2-1.5-2-2.9-2C82.6,6.4,81.6,7.1,81.1,8.4z"/>
			</g>
			<g>
				<path id="a_1_" d="M3.8,15L0.5,0.8h2.7l2,9.1l2.6-9.1h2.3l2.6,9.1l2-9.1h2.7L14.1,15h-2.6L8.9,5.8L6.3,15H3.8z M25.9,11.9
					l2.2,1.1c-1.1,1.6-2.6,2.3-4.8,2.3c-3.4,0-5.5-2.5-5.5-5.6c0-2.9,2.1-5.5,5.5-5.5c3.3,0,5.6,2.4,5.6,5.7c0,0.2,0,0.4,0,0.6h-8.5
					c0.3,1.6,1.4,2.4,3,2.4C24.4,12.9,25.1,12.6,25.9,11.9z M20.4,8.4h5.7c-0.4-1.2-1.5-2-2.9-2C21.9,6.4,20.9,7.1,20.4,8.4z
					 M38.7,15v-1.1c-0.9,0.9-1.9,1.4-3.3,1.4c-2.7,0-5-2.3-5-5.5c0-3.3,2.2-5.6,5-5.6c1.3,0,2.4,0.5,3.3,1.4V4.5h2.6V15H38.7z
					 M35.9,6.6c-1.7,0-2.8,1.4-2.8,3.1c0,1.8,1.2,3.1,2.8,3.1s2.9-1.2,2.9-3.2C38.8,7.9,37.6,6.6,35.9,6.6z M47.4,15L42.9,4.5h2.7
					l2.7,6.2L51,4.5h2.7L49.1,15H47.4z M54.8,15V4.5h2.6V15H54.8z M56.1,0.1c1,0,1.7,0.8,1.7,1.7S57,3.5,56.1,3.5
					c-1,0-1.7-0.9-1.7-1.8C54.5,0.8,55.2,0.1,56.1,0.1L56.1,0.1z M67.7,15v-1.1c-0.9,0.9-1.9,1.4-3.3,1.4c-2.7,0-5-2.3-5-5.5
					c0-3.3,2.2-5.6,5-5.6c1.3,0,2.4,0.5,3.3,1.4V4.5h2.6V15C70.3,15,67.7,15,67.7,15z M64.9,6.6C63.1,6.6,62,8,62,9.7
					c0,1.8,1.2,3.1,2.8,3.1c1.6,0,2.9-1.2,2.9-3.2C67.8,7.9,66.5,6.6,64.9,6.6z M73.3,4.5V0.6h2.6v3.9h1.6v2.3h-1.6V15h-2.6V6.7H72
					V4.5H73.3L73.3,4.5z M86.6,11.9l2.2,1.1c-1.1,1.6-2.6,2.3-4.8,2.3c-3.4,0-5.5-2.5-5.5-5.6c0-2.9,2.1-5.5,5.5-5.5
					c3.3,0,5.6,2.4,5.6,5.7c0,0.2,0,0.4,0,0.6H81c0.3,1.6,1.4,2.4,3,2.4C85.1,12.9,85.8,12.6,86.6,11.9z M81.1,8.4h5.7
					c-0.4-1.2-1.5-2-2.9-2C82.6,6.4,81.6,7.1,81.1,8.4z"/>
			</g>
		</g>
	</g>
	<path class="st0" d="M3.8,35H0.5V21.8c0-0.6,0.3-1.1,0.8-1.4L35.2,0.9c0.5-0.3,1.1-0.3,1.6,0l33.8,19.5c0.5,0.3,0.8,0.8,0.8,1.4v13
		h-3.3v-12L36,4.2L3.8,22.8V35z M36,81.1c-0.3,0-0.6-0.1-0.8-0.2L1.4,61.4L3,58.5l33,19.1l33-19.1l1.6,2.8L36.8,80.9
		C36.6,81.1,36.3,81.1,36,81.1z"/>
	<path class="st0" d="M13.7,41.9v12.9l11.2,6.4L36,54.8l11.2,6.4l11.1-6.4V41.9l-11.2-6.4v12.9L36,41.9l-11.2,6.4V35.5L13.7,41.9z"
		/>
</g>
<g class="st1">
	<path d="M88.9,46.5h2.8c1.6,0,2.7,0.1,3.3,0.2c0.8,0.2,1.5,0.6,2,1.2s0.8,1.4,0.8,2.4c0,1-0.3,1.7-0.8,2.4c-0.5,0.6-1.2,1-2.1,1.2
		c-0.6,0.2-1.9,0.2-3.6,0.2h-1v6.6h-1.4V46.5z M90.3,47.9v4.8l2.4,0c1,0,1.7-0.1,2.1-0.3c0.5-0.2,0.8-0.5,1.1-0.9
		c0.3-0.4,0.4-0.8,0.4-1.3c0-0.5-0.1-0.9-0.4-1.3c-0.3-0.4-0.6-0.7-1-0.8c-0.4-0.2-1.1-0.3-2.1-0.3H90.3z"/>
	<path d="M100.3,46.1h1.4v14.7h-1.4V46.1z"/>
	<path d="M104.3,50.2h1.4v4.9c0,1.2,0.1,2,0.2,2.5c0.2,0.6,0.6,1.2,1.1,1.5c0.5,0.4,1.2,0.6,2,0.6c0.8,0,1.4-0.2,1.9-0.5
		c0.5-0.4,0.9-0.8,1.1-1.4c0.1-0.4,0.2-1.3,0.2-2.6v-4.9h1.4v5.2c0,1.5-0.2,2.6-0.5,3.3c-0.3,0.7-0.9,1.3-1.5,1.7
		c-0.7,0.4-1.5,0.6-2.6,0.6c-1,0-1.9-0.2-2.6-0.6c-0.7-0.4-1.2-1-1.5-1.7c-0.3-0.7-0.5-1.9-0.5-3.4V50.2z"/>
	<path d="M125.7,50.2h1.4v8.4c0,1.5-0.1,2.6-0.4,3.3c-0.4,1-1,1.7-1.9,2.2s-1.9,0.8-3.2,0.8c-0.9,0-1.7-0.1-2.4-0.4
		c-0.7-0.3-1.3-0.6-1.8-1c-0.5-0.4-0.9-1.1-1.3-1.9h1.5c0.4,0.7,0.9,1.2,1.6,1.6s1.4,0.5,2.4,0.5c0.9,0,1.7-0.2,2.3-0.5
		c0.6-0.3,1.1-0.8,1.4-1.3c0.3-0.5,0.4-1.4,0.4-2.5v-0.5c-0.5,0.6-1.1,1.1-1.9,1.5s-1.5,0.5-2.4,0.5c-1,0-1.9-0.2-2.7-0.7
		c-0.9-0.5-1.5-1.1-2-1.9c-0.5-0.8-0.7-1.7-0.7-2.7s0.2-1.9,0.7-2.7s1.2-1.5,2-2s1.8-0.7,2.7-0.7c0.8,0,1.5,0.2,2.2,0.5
		c0.7,0.3,1.3,0.9,2,1.6V50.2z M121.6,51.3c-0.8,0-1.5,0.2-2.1,0.6c-0.7,0.4-1.2,0.9-1.6,1.5c-0.4,0.7-0.6,1.4-0.6,2.1
		c0,1.2,0.4,2.1,1.2,2.9c0.8,0.8,1.8,1.1,3,1.1c1.2,0,2.3-0.4,3-1.1c0.8-0.8,1.1-1.7,1.1-3c0-0.8-0.2-1.5-0.5-2.1s-0.8-1.1-1.5-1.5
		C123.1,51.4,122.4,51.3,121.6,51.3z"/>
	<path d="M130.4,45.9c0.3,0,0.6,0.1,0.8,0.3c0.2,0.2,0.3,0.5,0.3,0.8c0,0.3-0.1,0.6-0.3,0.8c-0.2,0.2-0.5,0.3-0.8,0.3
		c-0.3,0-0.6-0.1-0.8-0.3c-0.2-0.2-0.3-0.5-0.3-0.8c0-0.3,0.1-0.6,0.3-0.8C129.8,46,130.1,45.9,130.4,45.9z M129.7,50.2h1.4v10.6
		h-1.4V50.2z"/>
	<path d="M133.9,50.2h1.4v1.9c0.5-0.7,1.1-1.3,1.8-1.6s1.4-0.5,2.2-0.5c0.8,0,1.5,0.2,2.1,0.6c0.6,0.4,1.1,0.9,1.4,1.6
		c0.3,0.7,0.4,1.7,0.4,3.2v5.4h-1.4v-5c0-1.2,0-2-0.2-2.4c-0.2-0.7-0.5-1.2-0.9-1.6c-0.4-0.4-1-0.5-1.7-0.5c-0.8,0-1.6,0.3-2.2,0.8
		c-0.7,0.5-1.1,1.2-1.3,2c-0.1,0.5-0.2,1.5-0.2,2.9v3.9h-1.4V50.2z"/>
</g>
</svg>
