<svg xmlns="http://www.w3.org/2000/svg" viewBox="0 0 360 360"><defs><style>.cls-1{fill:#fff;}</style></defs><g id="Layer_2" data-name="Layer 2"><circle class="cls-1" cx="179.4" cy="103.23" r="5.6"/><path class="cls-1" d="M192.34,115.5a4.38,4.38,0,1,0-4.37-4.38A4.37,4.37,0,0,0,192.34,115.5Z"/><path class="cls-1" d="M167.34,253.63a4.37,4.37,0,1,0,4.38,4.37A4.37,4.37,0,0,0,167.34,253.63Z"/><path class="cls-1" d="M179.4,246.24a4.21,4.21,0,1,0,4.21,4.21A4.21,4.21,0,0,0,179.4,246.24Z"/><circle class="cls-1" cx="192.18" cy="243.47" r="3.92"/><path class="cls-1" d="M191.72,173.59a3.93,3.93,0,1,0-3.92-3.92A3.93,3.93,0,0,0,191.72,173.59Z"/><path class="cls-1" d="M171.4,155.48a3.64,3.64,0,1,0-3.64,3.63A3.64,3.64,0,0,0,171.4,155.48Z"/><path class="cls-1" d="M191.72,158.05a3.11,3.11,0,1,0-3.1-3.11A3.11,3.11,0,0,0,191.72,158.05Z"/><circle class="cls-1" cx="167.34" cy="243.47" r="3.1"/><path class="cls-1" d="M153.9,150.63a3.1,3.1,0,0,0,3-2.22h44.53a3.35,3.35,0,1,0-.07-1.5H156.94a3.1,3.1,0,1,0-3,3.72Z"/><path class="cls-1" d="M176.75,162.12a2.65,2.65,0,1,0,2.65-2.65A2.65,2.65,0,0,0,176.75,162.12Z"/><path class="cls-1" d="M153.9,135.79a2.65,2.65,0,0,0,2.47-1.72H201.1a3.93,3.93,0,1,0-.06-1.54H156.47a2.65,2.65,0,1,0-2.57,3.26Z"/><circle class="cls-1" cx="165.5" cy="170.3" r="2.26"/><circle class="cls-1" cx="190.79" cy="258" r="2.26"/><path class="cls-1" d="M153.9,121.09a2.26,2.26,0,0,0,2-1.28h44.88a4.26,4.26,0,1,0-.06-1.54H156.08a2.26,2.26,0,1,0-2.18,2.82Z"/><circle class="cls-1" cx="166.37" cy="110.78" r="2.26"/><path class="cls-1" d="M258.83,145.55l-26.33-15.2-3,5.2,24.83,14.33v85.83l-24,13.86,3,5.19L258.83,240a3,3,0,0,0,1.5-2.6V148.15A3,3,0,0,0,258.83,145.55Z"/><path class="cls-1" d="M105.67,149.88l24-13.86-3-5.19-25.5,14.72a3,3,0,0,0-1.5,2.6v89.29a3,3,0,0,0,1.5,2.6l24.93,14.39,3-5.19-23.43-13.53Z"/><path class="cls-1" d="M230.38,221.38V191.94L208.2,179.13a3.86,3.86,0,0,0,.76-2.29,3.91,3.91,0,0,0-7.81-.4h-45a2.26,2.26,0,0,0-4.48.4,2.2,2.2,0,0,0,.49,1.39l-23.75,13.71v29.44l23.29,13.45a2.26,2.26,0,1,0,3.81,2.42h45.46a3.91,3.91,0,0,0,7.66-1.14,3.94,3.94,0,0,0-.49-1.87ZM153.9,179.1a2.25,2.25,0,0,0,1.94-1.12H201.3a3.92,3.92,0,0,0,3.58,2.77v10.08h-51V179.1Zm0,27.56V192.33h24.83Zm26.17-14.33h24.83v14.33Zm-24.48,42.8,23.81-13.75,22,12.68a3.89,3.89,0,0,0-.55,1.65h-45A2.32,2.32,0,0,0,155.57,235.13Z"/></g></svg>