<svg xmlns="http://www.w3.org/2000/svg" viewBox="0 0 360 360"><defs><style>.cls-1{fill:#00152b;}</style></defs><g id="Layer_2" data-name="Layer 2"><circle class="cls-1" cx="179.6" cy="81.97" r="3.73"/><path class="cls-1" d="M188.23,90.15a2.92,2.92,0,1,0-2.92-2.92A2.91,2.91,0,0,0,188.23,90.15Z"/><path class="cls-1" d="M171.56,182.24a2.92,2.92,0,1,0,2.92,2.91A2.91,2.91,0,0,0,171.56,182.24Z"/><circle class="cls-1" cx="179.6" cy="180.12" r="2.81"/><path class="cls-1" d="M188.12,172.85a2.62,2.62,0,1,0,2.62,2.61A2.61,2.61,0,0,0,188.12,172.85Z"/><path class="cls-1" d="M187.82,128.88a2.62,2.62,0,1,0-2.62-2.62A2.61,2.61,0,0,0,187.82,128.88Z"/><circle class="cls-1" cx="171.84" cy="116.8" r="2.42"/><path class="cls-1" d="M187.82,118.52a2.07,2.07,0,1,0-2.07-2.07A2.07,2.07,0,0,0,187.82,118.52Z"/><path class="cls-1" d="M171.56,177.53a2.07,2.07,0,1,0-2.06-2.07A2.06,2.06,0,0,0,171.56,177.53Z"/><path class="cls-1" d="M162.6,113.57a2,2,0,0,0,2-1.48h29.69a2.24,2.24,0,1,0,0-1H164.63a2.07,2.07,0,1,0-2,2.48Z"/><path class="cls-1" d="M177.83,121.23a1.77,1.77,0,1,0,1.77-1.77A1.77,1.77,0,0,0,177.83,121.23Z"/><path class="cls-1" d="M162.6,103.68a1.76,1.76,0,0,0,1.65-1.15h29.82a2.62,2.62,0,1,0,0-1H164.31a1.76,1.76,0,1,0-1.71,2.18Z"/><path class="cls-1" d="M168.83,126.69a1.51,1.51,0,1,0,1.5-1.51A1.5,1.5,0,0,0,168.83,126.69Z"/><path class="cls-1" d="M187.2,183.65a1.51,1.51,0,1,0,1.5,1.5A1.5,1.5,0,0,0,187.2,183.65Z"/><path class="cls-1" d="M162.6,93.88A1.49,1.49,0,0,0,164,93h29.93a2.8,2.8,0,1,0,0-1H164.05a1.5,1.5,0,0,0-3,.37A1.51,1.51,0,0,0,162.6,93.88Z"/><path class="cls-1" d="M170.91,88.51a1.51,1.51,0,1,0-1.5-1.51A1.51,1.51,0,0,0,170.91,88.51Z"/><path class="cls-1" d="M232.55,110.19,215,100.05l-2,3.47,16.55,9.55v57.22l-16,9.24,2,3.47,17-9.82a2,2,0,0,0,1-1.73V111.92A2,2,0,0,0,232.55,110.19Z"/><path class="cls-1" d="M130.45,113.07l16-9.23-2-3.47-17,9.82a2,2,0,0,0-1,1.73v59.53a2,2,0,0,0,1,1.73l16.62,9.6,2-3.47-15.62-9Z"/><path class="cls-1" d="M213.59,160.74V141.11l-14.79-8.54a2.61,2.61,0,1,0-4.7-1.79h-30a1.51,1.51,0,1,0-2.66,1.19l-15.83,9.14v19.63l15.53,9a1.46,1.46,0,0,0-.27.85,1.5,1.5,0,0,0,2.8.76H194a2.61,2.61,0,0,0,5.11-.76,2.68,2.68,0,0,0-.33-1.25Zm-51-28.19a1.5,1.5,0,0,0,1.29-.74H194.2a2.6,2.6,0,0,0,2.39,1.84v6.72h-34v-7.82Zm0,18.38v-9.56h16.55ZM180,141.37h16.56v9.56Zm-16.32,28.54,15.88-9.17,14.64,8.46a2.52,2.52,0,0,0-.37,1.09h-30A1.32,1.32,0,0,0,163.71,169.91Z"/><polygon class="cls-1" points="145.97 227.87 143.18 227.87 139.9 239.24 135.43 227.87 134.39 227.87 129.86 239.24 126.64 227.87 123.83 227.87 129 246.11 130.04 246.11 134.91 233.92 139.69 246.11 140.73 246.11 145.97 227.87"/><path class="cls-1" d="M160.8,242.33l.22-.44-2.24-1.18-.24.41a7.59,7.59,0,0,1-1.29,1.69,4.53,4.53,0,0,1-1.42.8,4.8,4.8,0,0,1-1.72.31,4,4,0,0,1-3-1.27,4.56,4.56,0,0,1-1.25-2.79h11.45v-.5a7.45,7.45,0,0,0-1.52-4.67,6.77,6.77,0,0,0-5.6-2.66,6.62,6.62,0,0,0-5.45,2.6,7.33,7.33,0,0,0-1.59,4.64,7.41,7.41,0,0,0,1.88,4.95,6.58,6.58,0,0,0,5.25,2.21A7.39,7.39,0,0,0,157,246a6.79,6.79,0,0,0,2.17-1.34A8.1,8.1,0,0,0,160.8,242.33Zm-10.64-4.89a4.43,4.43,0,0,1,1.13-1.76,4.14,4.14,0,0,1,2.89-1.08,4.56,4.56,0,0,1,2,.43,4,4,0,0,1,1.48,1.13,4.17,4.17,0,0,1,.68,1.28Z"/><path class="cls-1" d="M174.42,233.85a6.28,6.28,0,0,0-4.57-1.82,6.83,6.83,0,0,0-5,2.1,7,7,0,0,0-2.08,5.07,7.07,7.07,0,0,0,2.06,5.12,6.73,6.73,0,0,0,5,2.11,6.84,6.84,0,0,0,3-.68,7.14,7.14,0,0,0,1.59-1.09v1.45H177V232.36h-2.62Zm-1.21,2.1a4.52,4.52,0,0,1,1.32,3.35,4.75,4.75,0,0,1-.59,2.36,4.18,4.18,0,0,1-1.66,1.65,4.49,4.49,0,0,1-6.23-1.73,4.66,4.66,0,0,1,0-4.66,4.42,4.42,0,0,1,3.94-2.31A4.31,4.31,0,0,1,173.21,236Z"/><polygon class="cls-1" points="185.04 240.95 181.09 232.36 178.24 232.36 184.57 246.11 185.52 246.11 191.81 232.36 188.95 232.36 185.04 240.95"/><rect class="cls-1" x="192.78" y="232.36" width="2.64" height="13.75"/><path class="cls-1" d="M194.1,230.81A1.84,1.84,0,0,0,196,229a1.81,1.81,0,0,0-.54-1.32,1.85,1.85,0,0,0-2.61,0,1.81,1.81,0,0,0-.54,1.32,1.84,1.84,0,0,0,1.84,1.84Z"/><path class="cls-1" d="M211.54,246.11V232.36h-2.62v1.49a6.28,6.28,0,0,0-4.57-1.82,6.83,6.83,0,0,0-5,2.1,7,7,0,0,0-2.08,5.07,7.07,7.07,0,0,0,2.06,5.12,6.73,6.73,0,0,0,5,2.11,6.84,6.84,0,0,0,3-.68,7.14,7.14,0,0,0,1.59-1.09v1.45ZM209,239.3a4.75,4.75,0,0,1-.59,2.36,4.18,4.18,0,0,1-1.66,1.65,4.49,4.49,0,0,1-6.23-1.73,4.66,4.66,0,0,1,0-4.66,4.42,4.42,0,0,1,3.94-2.31,4.31,4.31,0,0,1,3.23,1.34A4.52,4.52,0,0,1,209,239.3Z"/><polygon class="cls-1" points="218.3 246.11 218.3 234.77 220.9 234.77 220.9 232.36 218.3 232.36 218.3 227.62 215.66 227.62 215.66 232.36 213.42 232.36 213.42 234.77 215.66 234.77 215.66 246.11 218.3 246.11"/><path class="cls-1" d="M235.9,239.36a7.51,7.51,0,0,0-1.51-4.67,6.81,6.81,0,0,0-5.61-2.66,6.6,6.6,0,0,0-5.44,2.6,7.49,7.49,0,0,0,.28,9.59,6.61,6.61,0,0,0,5.26,2.21,7.46,7.46,0,0,0,2.7-.46,6.79,6.79,0,0,0,2.17-1.34,8.08,8.08,0,0,0,1.67-2.3l.23-.44-2.24-1.18-.24.41a7.29,7.29,0,0,1-1.3,1.69,4.48,4.48,0,0,1-1.41.8,4.84,4.84,0,0,1-1.72.31,4,4,0,0,1-3-1.27,4.45,4.45,0,0,1-1.25-2.79h11.45Zm-11.12-1.92a4.43,4.43,0,0,1,1.13-1.76,4.16,4.16,0,0,1,2.9-1.08,4.59,4.59,0,0,1,2,.43,3.88,3.88,0,0,1,2.16,2.41Z"/><path class="cls-1" d="M149,266.08A6.22,6.22,0,0,0,147,265a4.15,4.15,0,0,0,1.65-1.53,4.06,4.06,0,0,0,.56-2.09,4.15,4.15,0,0,0-.64-2.24,4,4,0,0,0-1.74-1.5,8.22,8.22,0,0,0-3.16-.48h-3.39v17.24H145A5.67,5.67,0,0,0,149,273a4.66,4.66,0,0,0,1.52-3.51,4.42,4.42,0,0,0-.4-1.89A4.37,4.37,0,0,0,149,266.08Zm-7.11-7.23h2a4.16,4.16,0,0,1,2.64.68,2.27,2.27,0,0,1,.82,1.86,2.81,2.81,0,0,1-1.83,2.65,7.75,7.75,0,0,1-2.64.33h-1Zm6.33,12.34a3.16,3.16,0,0,1-1.42,1.16,7.81,7.81,0,0,1-2.77.37h-2.14v-6.61h1a15,15,0,0,1,3.06.21,3.85,3.85,0,0,1,2.07,1.17,3,3,0,0,1,.75,2A3,3,0,0,1,148.24,271.19Z"/><rect class="cls-1" x="153.45" y="261.66" width="1.64" height="12.75"/><path class="cls-1" d="M154.26,256.41a1.31,1.31,0,0,0-.95.39,1.34,1.34,0,0,0-.39,1,1.3,1.3,0,0,0,.39.95,1.29,1.29,0,0,0,.95.4,1.35,1.35,0,0,0,1.35-1.35,1.33,1.33,0,0,0-1.35-1.35Z"/><path class="cls-1" d="M164.53,261.33a6.3,6.3,0,0,0-4.89,2.14,6.81,6.81,0,0,0,.1,9.27,6.76,6.76,0,0,0,9.58,0,6.85,6.85,0,0,0,.1-9.28A6.34,6.34,0,0,0,164.53,261.33Zm4.31,9.35a4.71,4.71,0,0,1-1.81,1.84,5.15,5.15,0,0,1-5,0,4.71,4.71,0,0,1-1.81-1.84,5.17,5.17,0,0,1-.67-2.58,5.06,5.06,0,0,1,1.47-3.66,4.85,4.85,0,0,1,7,0,5.06,5.06,0,0,1,1.47,3.66A5.17,5.17,0,0,1,168.84,270.68Z"/><rect class="cls-1" x="173.96" y="256.73" width="1.64" height="17.67"/><path class="cls-1" d="M185.05,261.33a6.3,6.3,0,0,0-4.89,2.14,6.81,6.81,0,0,0,.1,9.27,6.75,6.75,0,0,0,9.57,0,6.84,6.84,0,0,0,.11-9.28A6.34,6.34,0,0,0,185.05,261.33Zm4.31,9.35a4.71,4.71,0,0,1-1.81,1.84,5.15,5.15,0,0,1-5,0,4.71,4.71,0,0,1-1.81-1.84,5.17,5.17,0,0,1-.67-2.58,5.06,5.06,0,0,1,1.47-3.66,4.85,4.85,0,0,1,7,0A5.06,5.06,0,0,1,190,268.1,5.17,5.17,0,0,1,189.36,270.68Z"/><path class="cls-1" d="M205.72,263.87a7.22,7.22,0,0,0-2.38-1.95,6.06,6.06,0,0,0-2.67-.59,6.69,6.69,0,0,0-5.72,3.31,6.58,6.58,0,0,0-.88,3.3,6.42,6.42,0,0,0,.85,3.24,6.14,6.14,0,0,0,2.39,2.35,6.67,6.67,0,0,0,3.31.88,6.58,6.58,0,0,0,2.84-.63,6.19,6.19,0,0,0,2.26-1.8v.66a7,7,0,0,1-.49,3.05,3.87,3.87,0,0,1-1.65,1.57,5.83,5.83,0,0,1-2.83.63,6.07,6.07,0,0,1-2.85-.61A4.66,4.66,0,0,1,196,275.4h-1.78a7.27,7.27,0,0,0,1.51,2.29,6,6,0,0,0,2.13,1.24,8.72,8.72,0,0,0,2.94.47,7.41,7.41,0,0,0,3.84-.95,5.1,5.1,0,0,0,2.23-2.71,11.79,11.79,0,0,0,.47-3.92V261.66h-1.64Zm-1.29,7.63a4.94,4.94,0,0,1-3.64,1.36,5,5,0,0,1-3.65-1.37,4.67,4.67,0,0,1-1.4-3.47,5,5,0,0,1,.68-2.57,4.87,4.87,0,0,1,1.87-1.87,5.18,5.18,0,0,1,2.59-.67,5,5,0,0,1,2.5.66,4.57,4.57,0,0,1,1.79,1.78,5.21,5.21,0,0,1,.63,2.57A4.8,4.8,0,0,1,204.43,271.5Z"/><polygon class="cls-1" points="215.63 271.47 211.24 261.65 209.51 261.65 214.74 273.44 212.29 279.07 214.02 279.07 221.63 261.65 219.88 261.65 215.63 271.47"/></g></svg>