<svg xmlns="http://www.w3.org/2000/svg" viewBox="0 0 360 360"><defs><style>.cls-1{fill:#003eac;}.cls-2{fill:#00152b;}</style></defs><g id="Layer_5" data-name="Layer 5"><path class="cls-1" d="M229.84,126.2a19.62,19.62,0,0,0-.37-2.77,2.87,2.87,0,0,0-2.57-2.14c-.85-.11-1.27.16-1.42,1-.11.6-.18,1.21-.25,1.82-.19,1.45-.72,2.66-2.42,3a1.54,1.54,0,0,0-1.5-.6h-1.66a1.32,1.32,0,0,0-1.41,1.33q0,4.55,0,9.09a1.32,1.32,0,0,0,1.41,1.32h1.58c1.19,0,1.57-.29,1.81-1.31h1.24c2.45,0,4.89,0,7.33,0a2.08,2.08,0,0,0,2.1-1.31c.2-.45.35-.91.52-1.38.54-1.47,1.11-2.93,1.6-4.42a2,2,0,0,0-2.08-2.69h-3.91C229.84,126.79,229.87,126.5,229.84,126.2Zm3.91,2.25c.71,0,1,.31.78,1-.47,1.39-1,2.77-1.49,4.16-.19.52-.39,1.05-.59,1.57a.76.76,0,0,1-.82.5h-7.71c-.7,0-.91-.19-.91-.87,0-1.85,0-3.7,0-5.55a1,1,0,0,1,.62-1c.12-.06.25-.13.38-.18a3.61,3.61,0,0,0,2.41-2.92c.15-.75.23-1.51.34-2.26,0-.08,0-.15.06-.25a1.37,1.37,0,0,1,1.23.89,7.73,7.73,0,0,1,.41,1.82c.05.71,0,1.44,0,2.16s.19,1,1,1Z"/><path class="cls-1" d="M175.58,92.33a3.56,3.56,0,0,0-3.2-3.84l-.07,0H161.12a4.09,4.09,0,0,0-2.22,1.06,3.35,3.35,0,0,0-1,2.42c0,1.87,0,3.74,0,5.61a3.59,3.59,0,0,0,3.79,3.64h8.13a1.21,1.21,0,0,1,.66.24c1.58,1.23,3.14,2.48,4.7,3.72.12.1.25.18.44.33V92.33Zm-13.26.4h9.55v1.35h-9.55Zm9.55,4.19h-6.6V95.55h6.6Z"/><path class="cls-1" d="M113.91,194.3H99.16a1.48,1.48,0,0,0-1.54.9v10.05a1.47,1.47,0,0,0,1.54.91H114a1.48,1.48,0,0,0,1.54-.9V195.2A1.49,1.49,0,0,0,113.91,194.3Zm.18,2v8.5H99v-8.5l6.91,4.84a.86.86,0,0,0,1.25,0l6.83-4.79Z"/><path class="cls-1" d="M218.18,207.71a10.91,10.91,0,0,0,5.64,1.55,11.31,11.31,0,0,0,2.46-.27,10,10,0,0,0,7.9-9.81c0-.05,0-.07.06-.12l.14-.12c.29-.26.58-.52.86-.8a5.6,5.6,0,0,0,.45-.54l.1-.13a.49.49,0,0,0,0-.63.55.55,0,0,0-.63-.18l-.1,0,0,0c.1-.2.21-.41.3-.62a.53.53,0,0,0,0-.49.51.51,0,0,0-.39-.23.84.84,0,0,0-.4.09,7,7,0,0,1-1.66.64s-.06,0-.1,0l0,0a3.22,3.22,0,0,0-.46-.34,4,4,0,0,0-4.25,0,3.64,3.64,0,0,0-1.91,3.44h0l-.15,0-.12,0-.61-.11a9.23,9.23,0,0,1-4.4-2.23,7.4,7.4,0,0,1-.56-.56l-.28-.29a.65.65,0,0,0-.5-.19.58.58,0,0,0-.4.28,3.7,3.7,0,0,0-.2,3.43c0,.11.11.23.17.34a.52.52,0,0,0-.31.1.54.54,0,0,0-.22.45,3.72,3.72,0,0,0,1.05,2.57l.29.33,0,0a.48.48,0,0,0-.11.55,3.85,3.85,0,0,0,2,2.22l.32.14a6.66,6.66,0,0,1-1.67.54,7.07,7.07,0,0,1-2,.08.53.53,0,0,0-.61.35A.5.5,0,0,0,218.18,207.71Z"/><path class="cls-1" d="M115.22,126.26a5.34,5.34,0,0,0-4.63-3.74l-.18,0H102.7c-.28,0-.58.09-.86.15a5.26,5.26,0,0,0-4.16,5c0,2.22,0,4.45,0,6.67a5.3,5.3,0,0,0,5.37,5.15q3.53,0,7,0a5.33,5.33,0,0,0,5.3-4.61,1.33,1.33,0,0,1,0-.19v-7.37C115.37,127,115.32,126.6,115.22,126.26Zm-8.63,9.19a4.45,4.45,0,1,1,4.68-4.43A4.55,4.55,0,0,1,106.59,135.45Zm4.71-8a1,1,0,1,1,1-1A1,1,0,0,1,111.3,127.41Z"/><path class="cls-1" d="M167.05,216.76h-1.22v-4.9h1.22Zm0-9.81h-1.22v-4.9h1.22Zm0-9.81h-1.22v-4.9h1.22Zm0-29.43h-1.22v-4.9h1.22Zm0-9.81h-1.22V153h1.22Zm0-9.81h-1.22v-4.9h1.22Zm0-9.81h-1.22v-4.9h1.22Zm0-9.81h-1.22v-4.9h1.22Zm0-9.81h-1.22v-4.9h1.22Zm0-9.81h-1.22V104h1.22Z"/><path class="cls-1" d="M142.74,152.07l-4.2-2.54.64-1.05,4.2,2.54Zm-8.4-5.07-4.2-2.54.64-1.05L135,146ZM126,141.93l-4.2-2.54.63-1,4.2,2.54Zm-8.4-5.07-2.46-1.49.63-1.05,2.46,1.49Z"/><path class="cls-1" d="M190,152.07l-.61-1.06,4.25-2.46.61,1.07Zm8.5-4.91-.61-1.06,4.24-2.45.62,1.06Zm8.49-4.9-.61-1.07,4.25-2.45.61,1.06Zm8.5-4.91-.62-1.06,4.25-2.46.61,1.06Z"/><path class="cls-1" d="M116.85,195l-.62-1.06,4.25-2.46.61,1.07Z"/><rect class="cls-1" x="214.43" y="190.81" width="1.23" height="4.9" transform="translate(-64.6 266.72) rotate(-56.66)"/><path class="cls-1" d="M170.77,239.37V233.6h2.3l.53-4.06h-2.84V229c0-.33,0-.65,0-1,0-.17.05-.24.28-.27a5.7,5.7,0,0,1,.71,0h1.47l.32-.07,0-.3a.66.66,0,0,0,0-.14v-.78c0-.63,0-1.27,0-1.91a.52.52,0,0,0-.54-.55l-.83,0c-.55,0-1.12-.07-1.69-.06a3.86,3.86,0,0,0-3.89,3.22,8.89,8.89,0,0,0-.1,1.36c0,.16,0,.33,0,.49s0,.38,0,.58h-2.38v4.06h2.37v5.77h-8c-.54,0-.75-.19-.75-.7V223c0-.51.21-.71.74-.71H175c.51,0,.73.2.73.69v15.71c0,.49-.22.69-.73.69Z"/><polyline class="cls-2" points="166.37 191.92 189.68 205.38 212.99 191.92 212.99 165 189.69 151.54 189.68 178.46 166.37 165"/><polyline class="cls-2" points="166.37 165 143.06 178.46 143.06 151.54 119.75 165 119.75 191.92 143.06 205.38 166.37 191.92"/></g></svg>