<svg xmlns="http://www.w3.org/2000/svg" width="334" height="313" viewBox="0 0 334 313">
    <g fill="none" fill-rule="evenodd" opacity=".35">
        <path d="M-25-31h384v376H-25z"/>
        <g stroke="#00152B" stroke-width=".652" opacity=".2">
            <path d="M95.522 108.75V81.98l-23.18-13.384-23.188 13.385v26.768l23.188 13.385z"/>
            <path d="M72.342 122.152V95.365L49.154 81.98l-23.19-13.385v-17.46"/>
            <path d="M95.522 81.98l-23.18 13.385-23.188 13.384M95.522 108.75l-23.18-13.385M141.9 108.74l-23.189 13.385v26.768l23.189 13.385 23.18-13.385v-26.768"/>
            <path d="M118.711 122.125l23.189 13.384V189.356"/>
            <path d="M165.08 122.125l-23.18 13.384-23.189 13.384"/>
            <path d="M141.9 135.509l23.18 13.384 15.935 9.682 7.417 4.503-.009-.61V135.4l.01-26.778 23.18-13.384M141.9 108.74V81.971L118.71 68.587 95.522 81.971v26.77l23.19 13.384z"/>
            <path d="M95.522 108.74l23.19-13.384L141.9 81.97l23.18-12.565v25.95M72.342 148.902v-26.768l-23.188-13.385-23.19 13.385v26.768l23.19 13.385"/>
            <path d="M25.965 104.819l-15.508 8.644 15.508 8.67 23.189 13.385v26.787"/>
            <path d="M72.342 122.134l-23.188 13.384-23.19 13.384v27.57L2.64 189.356v-26.387M72.342 148.902l-23.188-13.384M118.711 148.893v-26.768L95.522 108.74l-23.18 13.385v26.768l23.18 13.385z"/>
            <path d="M72.342 122.125l23.18 13.384v26.787l-23.18 14.021 23.18 13.649 23.19-13.494"/>
            <path d="M118.711 122.125l-23.189 13.384-23.18 13.384M10.457 77.522l15.508-8.926M10.457 130.978v-17.515M95.522 28.761v26.696l-23.18 13.14V41.653M141.9 108.74L118.71 95.356V51.135l15.89-9.326M149.927 59.861l15.153 9.545M49.154 189.356l-23.19-12.884M319.785 211.94v-26.77l-23.19-13.384-23.188 13.384v26.77l23.189 13.384z"/>
            <path d="M319.785 185.17l-23.19 13.385-23.188 13.384M296.596 252.092v-26.768l-23.19-13.385-23.179 13.385v26.768l23.18 13.376"/>
            <path d="M234.71 216.643l15.517 8.68 23.18 13.385v26.778"/>
            <path d="M250.227 278.743v-26.65l23.18-13.385 23.189-13.384v-26.796M296.596 252.083l-23.19-13.375M234.801 81.862V55.093L257.99 41.71l23.18 13.384v26.77l-23.18 13.384z"/>
            <path d="M257.99 95.256V68.478l23.18-13.385 23.189-13.384V24.24"/>
            <path d="M234.801 55.093l23.189 13.385 23.18 13.384M234.801 81.862l23.189-13.384M188.423 81.853l23.19 13.385v26.768l-23.19 13.385-23.18-13.385V95.238"/>
            <path d="M165.244 95.238l23.188 13.384 23.18 13.384M188.423 108.622l-23.18 13.384M188.432 81.853V55.084l23.18-13.384 23.19 13.384v26.77l-23.19 13.384z"/>
            <path d="M234.646 81.853L211.457 68.47 188.27 55.084l-23.19-12.565v26.86M257.99 122.015V95.247l23.18-13.385 23.189 13.385v26.768l-23.19 13.376"/>
            <path d="M304.359 77.922l15.517 8.644-15.517 8.68-23.19 13.385v26.778"/>
            <path d="M257.99 95.247l23.18 13.384 23.189 13.384v27.56l23.325 12.894v-26.387M257.99 122.006l23.18-13.375M211.612 122.006V95.238l23.19-13.385 23.188 13.385v26.768l-23.189 13.385z"/>
            <path d="M257.99 95.238l-23.189 13.384V135.4l23.189 14.03-23.189 13.648-23.27-13.548"/>
            <path d="M211.612 95.238l23.19 13.384 23.188 13.384M234.801 1.865v26.696L257.99 41.71V14.767M188.432 81.853l23.18-13.384V24.24l-15.89-9.327M180.242 32.974L165.08 42.52M165.153 230.228v26.769l-23.19 13.375-23.18-13.375v-26.77l23.18-13.384z"/>
            <path d="M141.964 216.825v26.787l-23.18 13.385-23.189 13.375v17.47"/>
            <path d="M165.153 256.997l-23.19-13.385-23.18-13.384M165.153 230.228l-23.19 13.384M211.53 230.237l-23.189-13.384v-26.77l23.19-13.384 23.18 13.385v26.769"/>
            <path d="M188.341 216.853l23.19-13.385v-53.937"/>
            <path d="M234.71 216.853l-23.18-13.385-23.189-13.384M211.53 203.468l23.18-13.384 15.936-9.681M211.53 230.237v26.76l-23.189 13.384-23.188-13.384v-26.76l23.188-13.384z"/>
            <path d="M165.153 230.237l23.188 13.384 23.19 13.376 17.391 9.435 21.305 11.747M141.964 190.075v26.768l-23.18 13.385-23.189-13.385v-26.768"/>
            <path d="M95.595 234.159l-15.517-8.644 15.517-8.672 23.189-13.384v-26.787M141.964 190.075l-23.18 13.384M188.341 190.084v26.769l-23.188 13.384-23.19-13.384v-26.77l23.19-13.384z"/>
            <path d="M141.964 216.853l23.189-13.385v-26.787l-23.19-14.021"/>
            <path d="M188.341 216.853l-23.188-13.385-23.19-13.384M80.078 261.455l15.517 8.926M80.078 208v17.515M165.153 310.216V283.52l-23.19-13.148v26.95M211.53 230.237l-23.189 13.384v44.22l15.89 9.327M273.407 185.17l46.378 26.77"/>
        </g>
        <g fill="#00152B" fill-rule="nonzero" opacity=".3">
            <ellipse cx="25.965" cy="49.907" rx="2.23" ry="2.229"/>
            <ellipse cx="9.738" cy="77.522" rx="2.23" ry="2.229"/>
            <ellipse cx="25.965" cy="68.596" rx="2.23" ry="2.229"/>
            <ellipse cx="48.89" cy="81.981" rx="2.23" ry="2.229"/>
            <ellipse cx="72.351" cy="95.238" rx="2.23" ry="2.229"/>
            <ellipse cx="118.72" cy="95.238" rx="2.23" ry="2.229"/>
            <ellipse cx="72.351" cy="68.596" rx="2.23" ry="2.229"/>
            <ellipse cx="72.351" cy="41.809" rx="2.23" ry="2.229"/>
            <ellipse cx="95.522" cy="28.761" rx="2.23" ry="2.229"/>
            <ellipse cx="95.522" cy="55.366" rx="2.23" ry="2.229"/>
            <ellipse cx="95.522" cy="81.981" rx="2.23" ry="2.229"/>
            <ellipse cx="95.522" cy="108.622" rx="2.23" ry="2.229"/>
            <ellipse cx="72.351" cy="122.152" rx="2.23" ry="2.229"/>
            <ellipse cx="72.342" cy="149.066" rx="2.23" ry="2.229"/>
            <ellipse cx="48.89" cy="135.536" rx="2.23" ry="2.229"/>
            <ellipse cx="48.708" cy="162.278" rx="2.23" ry="2.229"/>
            <ellipse cx="25.965" cy="148.893" rx="2.23" ry="2.229"/>
            <ellipse cx="25.965" cy="176.472" rx="2.23" ry="2.229"/>
            <ellipse cx="48.416" cy="189.019" rx="2.23" ry="2.229"/>
            <ellipse cx="2.639" cy="189.019" rx="2.23" ry="2.229"/>
            <ellipse cx="2.639" cy="163.542" rx="2.23" ry="2.229"/>
            <ellipse cx="95.522" cy="135.536" rx="2.23" ry="2.229"/>
            <ellipse cx="95.595" cy="162.278" rx="2.23" ry="2.229"/>
            <ellipse cx="118.711" cy="149.066" rx="2.23" ry="2.229"/>
            <ellipse cx="72.351" cy="176.472" rx="2.23" ry="2.229"/>
            <ellipse cx="118.72" cy="68.915" rx="2.23" ry="2.229"/>
            <ellipse cx="118.793" cy="51.135" rx="2.23" ry="2.229"/>
            <ellipse cx="134.51" cy="41.809" rx="2.23" ry="2.229"/>
            <ellipse cx="141.891" cy="82.299" rx="2.23" ry="2.229"/>
            <ellipse cx="149.927" cy="59.952" rx="2.23" ry="2.229"/>
            <ellipse cx="165.08" cy="69.406" rx="2.23" ry="2.229"/>
            <ellipse cx="165.08" cy="42.519" rx="2.23" ry="2.229"/>
            <ellipse cx="180.242" cy="32.974" rx="2.23" ry="2.229"/>
            <ellipse cx="188.423" cy="55.093" rx="2.23" ry="2.229"/>
            <ellipse cx="188.423" cy="81.981" rx="2.23" ry="2.229"/>
            <ellipse cx="234.646" cy="81.853" rx="2.23" ry="2.229"/>
            <ellipse cx="211.521" cy="69.042" rx="2.23" ry="2.229"/>
            <ellipse cx="211.612" cy="95.238" rx="2.23" ry="2.229"/>
            <ellipse cx="211.694" cy="121.852" rx="2.23" ry="2.229"/>
            <ellipse cx="257.908" cy="121.724" rx="2.23" ry="2.229"/>
            <ellipse cx="281.17" cy="108.631" rx="2.23" ry="2.229"/>
            <ellipse cx="281.17" cy="135.509" rx="2.23" ry="2.229"/>
            <ellipse cx="257.908" cy="149.53" rx="2.23" ry="2.229"/>
            <ellipse cx="235.356" cy="162.66" rx="2.23" ry="2.229"/>
            <ellipse cx="211.694" cy="150.14" rx="2.23" ry="2.229"/>
            <ellipse cx="211.521" cy="176.699" rx="2.23" ry="2.229"/>
            <ellipse cx="234.71" cy="190.084" rx="2.23" ry="2.229"/>
            <ellipse cx="188.423" cy="190.475" rx="2.23" ry="2.229"/>
            <ellipse cx="250.227" cy="180.403" rx="2.23" ry="2.229"/>
            <ellipse cx="304.359" cy="121.852" rx="2.23" ry="2.229"/>
            <ellipse cx="327.684" cy="136.583" rx="2.23" ry="2.229"/>
            <ellipse cx="327.684" cy="162.278" rx="2.23" ry="2.229"/>
            <ellipse cx="304.359" cy="149.53" rx="2.23" ry="2.229"/>
            <ellipse cx="234.792" cy="108.913" rx="2.23" ry="2.229"/>
            <ellipse cx="234.883" cy="135.109" rx="2.23" ry="2.229"/>
            <ellipse cx="234.801" cy="55.366" rx="2.23" ry="2.229"/>
            <ellipse cx="211.612" cy="41.809" rx="2.23" ry="2.229"/>
            <ellipse cx="280.533" cy="81.799" rx="2.23" ry="2.229"/>
            <ellipse cx="257.417" cy="68.987" rx="2.23" ry="2.229"/>
            <ellipse cx="257.99" cy="95.183" rx="2.23" ry="2.229"/>
            <ellipse cx="296.523" cy="198.837" rx="2.23" ry="2.229"/>
            <ellipse cx="319.785" cy="185.735" rx="2.23" ry="2.229"/>
            <ellipse cx="319.785" cy="211.712" rx="2.23" ry="2.229"/>
            <ellipse cx="296.523" cy="224.814" rx="2.23" ry="2.229"/>
            <ellipse cx="273.407" cy="186.026" rx="2.23" ry="2.229"/>
            <ellipse cx="273.498" cy="212.212" rx="2.23" ry="2.229"/>
            <ellipse cx="273.343" cy="238.808" rx="2.23" ry="2.229"/>
            <ellipse cx="296.523" cy="251.501" rx="2.23" ry="2.229"/>
            <ellipse cx="273.343" cy="264.794" rx="2.23" ry="2.229"/>
            <ellipse cx="250.227" cy="225.997" rx="2.23" ry="2.229"/>
            <ellipse cx="211.521" cy="203.459" rx="2.23" ry="2.229"/>
            <ellipse cx="188.423" cy="216.643" rx="2.23" ry="2.229"/>
            <ellipse cx="234.71" cy="216.853" rx="2.23" ry="2.229"/>
            <ellipse cx="250.309" cy="252.192" rx="2.23" ry="2.229"/>
            <ellipse cx="211.576" cy="230.191" rx="2.23" ry="2.229"/>
            <ellipse cx="188.396" cy="243.276" rx="2.23" ry="2.229"/>
            <ellipse cx="211.576" cy="256.878" rx="2.23" ry="2.229"/>
            <ellipse cx="188.396" cy="270.172" rx="2.23" ry="2.229"/>
            <ellipse cx="188.396" cy="287.842" rx="2.23" ry="2.229"/>
            <ellipse cx="165.153" cy="310.216" rx="2.23" ry="2.229"/>
            <ellipse cx="165.153" cy="283.392" rx="2.23" ry="2.229"/>
            <ellipse cx="141.964" cy="297.168" rx="2.23" ry="2.229"/>
            <ellipse cx="141.964" cy="270.172" rx="2.23" ry="2.229"/>
            <ellipse cx="118.711" cy="256.878" rx="2.23" ry="2.229"/>
            <ellipse cx="95.595" cy="270.172" rx="2.23" ry="2.229"/>
            <ellipse cx="95.522" cy="287.842" rx="2.23" ry="2.229"/>
            <ellipse cx="80.078" cy="261.455" rx="2.23" ry="2.229"/>
            <ellipse cx="204.322" cy="297.168" rx="2.23" ry="2.229"/>
            <ellipse cx="165.28" cy="231.383" rx="2.23" ry="2.229"/>
            <ellipse cx="141.891" cy="243.621" rx="2.23" ry="2.229"/>
            <ellipse cx="118.784" cy="230.191" rx="2.23" ry="2.229"/>
            <ellipse cx="141.964" cy="216.853" rx="2.23" ry="2.229"/>
            <ellipse cx="165.08" cy="203.459" rx="2.23" ry="2.229"/>
            <ellipse cx="165.08" cy="176.699" rx="2.23" ry="2.229"/>
            <ellipse cx="141.891" cy="190.084" rx="2.23" ry="2.229"/>
            <ellipse cx="118.784" cy="203.459" rx="2.23" ry="2.229"/>
            <ellipse cx="95.595" cy="216.825" rx="2.23" ry="2.229"/>
            <ellipse cx="95.595" cy="189.966" rx="2.23" ry="2.229"/>
            <ellipse cx="118.711" cy="176.672" rx="2.23" ry="2.229"/>
            <ellipse cx="80.078" cy="225.324" rx="2.23" ry="2.229"/>
            <ellipse cx="80.078" cy="207.999" rx="2.23" ry="2.229"/>
            <ellipse cx="95.522" cy="234.159" rx="2.23" ry="2.229"/>
            <ellipse cx="165.362" cy="257.57" rx="2.23" ry="2.229"/>
            <ellipse cx="250.309" cy="278.179" rx="2.23" ry="2.229"/>
            <ellipse cx="296.605" cy="172.296" rx="2.23" ry="2.229"/>
            <ellipse cx="280.697" cy="55.321" rx="2.23" ry="2.229"/>
            <ellipse cx="304.359" cy="24.239" rx="2.23" ry="2.229"/>
            <ellipse cx="257.99" cy="41.7" rx="2.23" ry="2.229"/>
            <ellipse cx="304.359" cy="41.7" rx="2.23" ry="2.229"/>
            <ellipse cx="305.269" cy="78.441" rx="2.23" ry="2.229"/>
            <ellipse cx="319.876" cy="86.439" rx="2.23" ry="2.229"/>
            <ellipse cx="304.359" cy="95.183" rx="2.23" ry="2.229"/>
            <ellipse cx="257.99" cy="14.913" rx="2.23" ry="2.229"/>
            <ellipse cx="234.801" cy="2.311" rx="2.23" ry="2.229"/>
            <ellipse cx="234.801" cy="28.516" rx="2.23" ry="2.229"/>
            <ellipse cx="211.521" cy="24.239" rx="2.23" ry="2.229"/>
            <ellipse cx="196.132" cy="14.913" rx="2.23" ry="2.229"/>
            <ellipse cx="141.891" cy="108.94" rx="2.23" ry="2.229"/>
            <ellipse cx="118.72" cy="122.47" rx="2.23" ry="2.229"/>
            <ellipse cx="141.964" cy="135.373" rx="2.23" ry="2.229"/>
            <ellipse cx="142.036" cy="162.114" rx="2.23" ry="2.229"/>
            <ellipse cx="165.153" cy="148.902" rx="2.23" ry="2.229"/>
            <ellipse cx="188.423" cy="162.66" rx="2.23" ry="2.229"/>
            <ellipse cx="165.153" cy="122.307" rx="2.23" ry="2.229"/>
            <ellipse cx="188.423" cy="108.622" rx="2.23" ry="2.229"/>
            <ellipse cx="165.244" cy="95.183" rx="2.23" ry="2.229"/>
            <ellipse cx="188.341" cy="135.109" rx="2.23" ry="2.229"/>
            <ellipse cx="49.154" cy="108.767" rx="2.23" ry="2.229"/>
            <ellipse cx="26.511" cy="122.47" rx="2.23" ry="2.229"/>
            <ellipse cx="10.457" cy="113.463" rx="2.23" ry="2.229"/>
            <ellipse cx="10.457" cy="130.978" rx="2.23" ry="2.229"/>
            <ellipse cx="25.965" cy="104.819" rx="2.23" ry="2.229"/>
        </g>
        <g fill="#00152B" fill-rule="nonzero" opacity=".1" transform="translate(4.55 18.198)">
            <ellipse cx="21.278" cy="31.427" rx="5.797" ry="5.796"/>
            <ellipse cx="90.972" cy="36.896" rx="5.797" ry="5.796"/>
            <ellipse cx="145.376" cy="41.554" rx="5.797" ry="5.796"/>
            <ellipse cx="299.808" cy="5.832" rx="5.797" ry="5.796"/>
            <ellipse cx="253.358" cy="23.502" rx="5.797" ry="5.796"/>
            <ellipse cx="206.971" cy="6.251" rx="5.797" ry="5.796"/>
            <ellipse cx="299.808" cy="77.058" rx="5.797" ry="5.796"/>
            <ellipse cx="323.134" cy="143.916" rx="5.797" ry="5.796"/>
            <ellipse cx="315.325" cy="193.514" rx="5.797" ry="5.796"/>
            <ellipse cx="268.793" cy="246.597" rx="5.797" ry="5.796"/>
            <ellipse cx="292.045" cy="154.098" rx="5.797" ry="5.796"/>
            <ellipse cx="183.755" cy="269.644" rx="5.797" ry="5.796"/>
            <ellipse cx="137.413" cy="278.97" rx="5.797" ry="5.796"/>
            <ellipse cx="90.972" cy="251.974" rx="5.797" ry="5.796"/>
            <ellipse cx="230.806" cy="144.08" rx="5.797" ry="5.796"/>
            <ellipse cx="114.161" cy="158.502" rx="5.797" ry="5.796"/>
            <ellipse cx="137.34" cy="90.743" rx="5.797" ry="5.796"/>
            <ellipse cx="5.906" cy="95.265" rx="5.797" ry="5.796"/>
            <ellipse cx="75.528" cy="207.317" rx="5.797" ry="5.796"/>
            <ellipse cx="160.529" cy="185.271" rx="5.797" ry="5.796"/>
            <ellipse cx="21.414" cy="158.274" rx="5.797" ry="5.796"/>
            <ellipse cx="44.157" cy="63.655" rx="5.797" ry="5.796"/>
        </g>
    </g>
</svg>
