<svg xmlns="http://www.w3.org/2000/svg" width="672" height="632" viewBox="0 0 672 632">
    <g fill="none" fill-rule="evenodd" opacity=".16">
        <g stroke="#00152B" stroke-width="2.649" opacity=".2">
            <path d="M192.225 220.29v-54.146l-46.694-27.073-46.713 27.073v54.146l46.713 27.073z"/>
            <path d="M145.531 247.4v-54.183l-46.713-27.073-46.712-27.073v-35.319"/>
            <path d="M192.225 166.144l-46.694 27.073-46.713 27.073M192.225 220.29l-46.694-27.073M285.651 220.271l-46.713 27.073v54.146l46.713 27.073 46.694-27.073v-54.146"/>
            <path d="M238.938 247.344l46.713 27.073v108.918"/>
            <path d="M332.345 247.344l-46.694 27.073-46.713 27.073"/>
            <path d="M285.651 274.417l46.694 27.073 32.102 19.583 14.941 9.11-.018-1.233v-54.754l.018-54.164 46.695-27.073M285.651 220.271v-54.146l-46.713-27.073-46.713 27.073v54.146l46.713 27.073z"/>
            <path d="M192.225 220.271l46.713-27.073 46.713-27.073 46.694-25.416v52.49M145.531 301.509v-54.146L98.818 220.29l-46.712 27.073v54.146l46.712 27.073"/>
            <path d="M52.106 212.339l-31.24 17.484 31.24 17.54 46.712 27.073v54.183"/>
            <path d="M145.531 247.363l-46.713 27.073-46.712 27.073v55.765L5.118 383.335v-53.373M145.531 301.509l-46.713-27.073M238.938 301.49v-54.146l-46.713-27.073-46.694 27.073v54.146l46.694 27.073z"/>
            <path d="M145.531 247.344l46.694 27.073V328.6l-46.694 28.361 46.694 27.607 46.713-27.294"/>
            <path d="M238.938 247.344l-46.713 27.073-46.694 27.073M20.866 157.125l31.24-18.054M20.866 265.252v-35.429M192.225 58.496v53.999l-46.694 26.576V84.575M285.651 220.271l-46.713-27.073v-89.446l32.01-18.864M301.82 121.402l30.525 19.307M98.818 383.335l-46.712-26.06M643.99 429.015V374.87l-46.713-27.073-46.713 27.073v54.146l46.713 27.073zM643.99 374.869l-46.713 27.073-46.713 27.073"/>
            <path d="M597.277 510.234v-54.146l-46.713-27.073-46.694 27.073v54.146l46.694 27.055"/>
            <path d="M472.612 438.53l31.258 17.558 46.694 27.073v54.165"/>
            <path d="M503.87 564.14v-53.906l46.694-27.073 46.713-27.073v-54.201M597.277 510.216l-46.713-27.055M472.795 165.904v-54.146l46.713-27.073 46.695 27.073v54.146l-46.695 27.073z"/>
            <path d="M519.508 192.996V138.83l46.695-27.073 46.712-27.073V49.35"/>
            <path d="M472.795 111.758l46.713 27.073 46.695 27.073M472.795 165.904l46.713-27.073M379.37 165.886l46.713 27.073v54.146l-46.713 27.073-46.695-27.073v-54.146"/>
            <path d="M332.675 192.959l46.713 27.073 46.695 27.073M379.37 220.032l-46.695 27.073M379.388 165.886V111.74l46.695-27.073 46.712 27.073v54.146l-46.712 27.073z"/>
            <path d="M472.484 165.886l-46.713-27.073-46.713-27.073-46.713-25.417v54.33M519.508 247.123v-54.146l46.695-27.073 46.712 27.073v54.146l-46.712 27.055"/>
            <path d="M612.915 157.935l31.258 17.484-31.258 17.558-46.712 27.073v54.165"/>
            <path d="M519.508 192.977l46.695 27.073 46.712 27.073v55.748l46.988 26.079v-53.373M519.508 247.105l46.695-27.055M426.083 247.105v-54.146l46.712-27.073 46.713 27.073v54.146l-46.713 27.073z"/>
            <path d="M519.508 192.959l-46.713 27.073v54.164l46.713 28.38-46.713 27.607-46.877-27.404"/>
            <path d="M426.083 192.959l46.712 27.073 46.713 27.073M472.795 4.092v53.999l46.713 26.594V30.19M379.388 165.886l46.695-27.073V49.349l-32.01-18.865M362.888 67.017l-30.543 19.306M332.492 466.008v54.146L285.78 547.21l-46.694-27.055v-54.146l46.694-27.073z"/>
            <path d="M285.78 438.898v54.183l-46.695 27.073-46.713 27.055v35.336"/>
            <path d="M332.492 520.154l-46.713-27.073-46.694-27.073M332.492 466.008l-46.713 27.073M425.918 466.027l-46.713-27.074v-54.146l46.713-27.073 46.694 27.073v54.146"/>
            <path d="M379.205 438.953l46.713-27.073V302.778"/>
            <path d="M472.612 438.953l-46.694-27.073-46.713-27.073M425.918 411.88l46.694-27.073 32.101-19.582M425.918 466.027v54.127l-46.713 27.073-46.713-27.073v-54.127l46.713-27.074z"/>
            <path d="M332.492 466.027l46.713 27.073 46.713 27.054 35.034 19.086L503.87 563M285.78 384.79v54.145l-46.695 27.073-46.713-27.073V384.79"/>
            <path d="M192.372 473.959l-31.258-17.484 31.258-17.54 46.713-27.073V357.68M285.78 384.79l-46.695 27.072M379.205 384.807v54.146l-46.713 27.074-46.713-27.074v-54.146l46.713-27.073z"/>
            <path d="M285.78 438.953l46.712-27.073v-54.182l-46.713-28.362M379.205 438.953l-46.713-27.073-46.713-27.073M161.114 529.172l31.258 18.055M161.114 421.046v35.429M332.492 627.802v-53.999L285.78 547.21v54.514M425.918 466.027L379.205 493.1v89.445l32.01 18.865M550.564 374.869l93.426 54.146"/>
        </g>
        <g fill="#00152B" fill-rule="nonzero" opacity=".3">
            <ellipse cx="51.594" cy="100.946" rx="4.496" ry="4.509"/>
            <ellipse cx="18.871" cy="156.803" rx="4.496" ry="4.509"/>
            <ellipse cx="51.594" cy="138.748" rx="4.496" ry="4.509"/>
            <ellipse cx="97.824" cy="165.821" rx="4.496" ry="4.509"/>
            <ellipse cx="145.136" cy="192.636" rx="4.496" ry="4.509"/>
            <ellipse cx="238.643" cy="192.636" rx="4.496" ry="4.509"/>
            <ellipse cx="145.136" cy="138.748" rx="4.496" ry="4.509"/>
            <ellipse cx="145.136" cy="84.567" rx="4.496" ry="4.509"/>
            <ellipse cx="191.862" cy="58.175" rx="4.496" ry="4.509"/>
            <ellipse cx="191.862" cy="111.989" rx="4.496" ry="4.509"/>
            <ellipse cx="191.862" cy="165.821" rx="4.496" ry="4.509"/>
            <ellipse cx="191.862" cy="219.708" rx="4.496" ry="4.509"/>
            <ellipse cx="145.136" cy="247.075" rx="4.496" ry="4.509"/>
            <ellipse cx="145.118" cy="301.514" rx="4.496" ry="4.509"/>
            <ellipse cx="97.824" cy="274.147" rx="4.496" ry="4.509"/>
            <ellipse cx="97.457" cy="328.237" rx="4.496" ry="4.509"/>
            <ellipse cx="51.594" cy="301.165" rx="4.496" ry="4.509"/>
            <ellipse cx="51.594" cy="356.947" rx="4.496" ry="4.509"/>
            <ellipse cx="96.869" cy="382.327" rx="4.496" ry="4.509"/>
            <ellipse cx="4.556" cy="382.327" rx="4.496" ry="4.509"/>
            <ellipse cx="4.556" cy="330.795" rx="4.496" ry="4.509"/>
            <ellipse cx="191.862" cy="274.147" rx="4.496" ry="4.509"/>
            <ellipse cx="192.009" cy="328.237" rx="4.496" ry="4.509"/>
            <ellipse cx="238.624" cy="301.514" rx="4.496" ry="4.509"/>
            <ellipse cx="145.136" cy="356.947" rx="4.496" ry="4.509"/>
            <ellipse cx="238.643" cy="139.393" rx="4.496" ry="4.509"/>
            <ellipse cx="238.789" cy="103.431" rx="4.496" ry="4.509"/>
            <ellipse cx="270.484" cy="84.567" rx="4.496" ry="4.509"/>
            <ellipse cx="285.368" cy="166.465" rx="4.496" ry="4.509"/>
            <ellipse cx="301.573" cy="121.265" rx="4.496" ry="4.509"/>
            <ellipse cx="332.13" cy="140.386" rx="4.496" ry="4.509"/>
            <ellipse cx="332.13" cy="86.002" rx="4.496" ry="4.509"/>
            <ellipse cx="362.706" cy="66.696" rx="4.496" ry="4.509"/>
            <ellipse cx="379.205" cy="111.437" rx="4.496" ry="4.509"/>
            <ellipse cx="379.205" cy="165.821" rx="4.496" ry="4.509"/>
            <ellipse cx="472.417" cy="165.563" rx="4.496" ry="4.509"/>
            <ellipse cx="425.783" cy="139.65" rx="4.496" ry="4.509"/>
            <ellipse cx="425.967" cy="192.636" rx="4.496" ry="4.509"/>
            <ellipse cx="426.132" cy="246.468" rx="4.496" ry="4.509"/>
            <ellipse cx="519.326" cy="246.21" rx="4.496" ry="4.509"/>
            <ellipse cx="566.235" cy="219.726" rx="4.496" ry="4.509"/>
            <ellipse cx="566.235" cy="274.092" rx="4.496" ry="4.509"/>
            <ellipse cx="519.326" cy="302.453" rx="4.496" ry="4.509"/>
            <ellipse cx="473.849" cy="329.01" rx="4.496" ry="4.509"/>
            <ellipse cx="426.132" cy="303.686" rx="4.496" ry="4.509"/>
            <ellipse cx="425.783" cy="357.407" rx="4.496" ry="4.509"/>
            <ellipse cx="472.546" cy="384.48" rx="4.496" ry="4.509"/>
            <ellipse cx="379.205" cy="385.271" rx="4.496" ry="4.509"/>
            <ellipse cx="503.837" cy="364.898" rx="4.496" ry="4.509"/>
            <ellipse cx="612.997" cy="246.468" rx="4.496" ry="4.509"/>
            <ellipse cx="660.035" cy="276.264" rx="4.496" ry="4.509"/>
            <ellipse cx="660.035" cy="328.237" rx="4.496" ry="4.509"/>
            <ellipse cx="612.997" cy="302.453" rx="4.496" ry="4.509"/>
            <ellipse cx="472.711" cy="220.297" rx="4.496" ry="4.509"/>
            <ellipse cx="472.894" cy="273.282" rx="4.496" ry="4.509"/>
            <ellipse cx="472.729" cy="111.989" rx="4.496" ry="4.509"/>
            <ellipse cx="425.967" cy="84.567" rx="4.496" ry="4.509"/>
            <ellipse cx="564.95" cy="165.453" rx="4.496" ry="4.509"/>
            <ellipse cx="518.335" cy="139.54" rx="4.496" ry="4.509"/>
            <ellipse cx="519.491" cy="192.525" rx="4.496" ry="4.509"/>
            <ellipse cx="597.196" cy="402.185" rx="4.496" ry="4.509"/>
            <ellipse cx="644.105" cy="375.683" rx="4.496" ry="4.509"/>
            <ellipse cx="644.105" cy="428.226" rx="4.496" ry="4.509"/>
            <ellipse cx="597.196" cy="454.728" rx="4.496" ry="4.509"/>
            <ellipse cx="550.58" cy="376.272" rx="4.496" ry="4.509"/>
            <ellipse cx="550.764" cy="429.239" rx="4.496" ry="4.509"/>
            <ellipse cx="550.452" cy="483.034" rx="4.496" ry="4.509"/>
            <ellipse cx="597.196" cy="508.707" rx="4.496" ry="4.509"/>
            <ellipse cx="550.452" cy="535.596" rx="4.496" ry="4.509"/>
            <ellipse cx="503.837" cy="457.121" rx="4.496" ry="4.509"/>
            <ellipse cx="425.783" cy="411.534" rx="4.496" ry="4.509"/>
            <ellipse cx="379.205" cy="438.201" rx="4.496" ry="4.509"/>
            <ellipse cx="472.546" cy="438.625" rx="4.496" ry="4.509"/>
            <ellipse cx="504.002" cy="510.106" rx="4.496" ry="4.509"/>
            <ellipse cx="425.893" cy="465.605" rx="4.496" ry="4.509"/>
            <ellipse cx="379.15" cy="492.07" rx="4.496" ry="4.509"/>
            <ellipse cx="425.893" cy="519.584" rx="4.496" ry="4.509"/>
            <ellipse cx="379.15" cy="546.473" rx="4.496" ry="4.509"/>
            <ellipse cx="379.15" cy="582.213" rx="4.496" ry="4.509"/>
            <ellipse cx="332.277" cy="627.469" rx="4.496" ry="4.509"/>
            <ellipse cx="332.277" cy="573.214" rx="4.496" ry="4.509"/>
            <ellipse cx="285.515" cy="601.078" rx="4.496" ry="4.509"/>
            <ellipse cx="285.515" cy="546.473" rx="4.496" ry="4.509"/>
            <ellipse cx="238.624" cy="519.584" rx="4.496" ry="4.509"/>
            <ellipse cx="192.009" cy="546.473" rx="4.496" ry="4.509"/>
            <ellipse cx="191.862" cy="582.213" rx="4.496" ry="4.509"/>
            <ellipse cx="160.718" cy="528.842" rx="4.496" ry="4.509"/>
            <ellipse cx="411.266" cy="601.078" rx="4.496" ry="4.509"/>
            <ellipse cx="332.534" cy="468.016" rx="4.496" ry="4.509"/>
            <ellipse cx="285.368" cy="492.769" rx="4.496" ry="4.509"/>
            <ellipse cx="238.771" cy="465.605" rx="4.496" ry="4.509"/>
            <ellipse cx="285.515" cy="438.625" rx="4.496" ry="4.509"/>
            <ellipse cx="332.13" cy="411.534" rx="4.496" ry="4.509"/>
            <ellipse cx="332.13" cy="357.407" rx="4.496" ry="4.509"/>
            <ellipse cx="285.368" cy="384.48" rx="4.496" ry="4.509"/>
            <ellipse cx="238.771" cy="411.534" rx="4.496" ry="4.509"/>
            <ellipse cx="192.009" cy="438.569" rx="4.496" ry="4.509"/>
            <ellipse cx="192.009" cy="384.241" rx="4.496" ry="4.509"/>
            <ellipse cx="238.624" cy="357.352" rx="4.496" ry="4.509"/>
            <ellipse cx="160.718" cy="455.759" rx="4.496" ry="4.509"/>
            <ellipse cx="160.718" cy="420.717" rx="4.496" ry="4.509"/>
            <ellipse cx="191.862" cy="473.629" rx="4.496" ry="4.509"/>
            <ellipse cx="332.699" cy="520.983" rx="4.496" ry="4.509"/>
            <ellipse cx="504.002" cy="562.668" rx="4.496" ry="4.509"/>
            <ellipse cx="597.361" cy="348.5" rx="4.496" ry="4.509"/>
            <ellipse cx="565.281" cy="111.897" rx="4.496" ry="4.509"/>
            <ellipse cx="612.997" cy="49.028" rx="4.496" ry="4.509"/>
            <ellipse cx="519.491" cy="84.346" rx="4.496" ry="4.509"/>
            <ellipse cx="612.997" cy="84.346" rx="4.496" ry="4.509"/>
            <ellipse cx="614.833" cy="158.662" rx="4.496" ry="4.509"/>
            <ellipse cx="644.288" cy="174.839" rx="4.496" ry="4.509"/>
            <ellipse cx="612.997" cy="192.525" rx="4.496" ry="4.509"/>
            <ellipse cx="519.491" cy="30.164" rx="4.496" ry="4.509"/>
            <ellipse cx="472.729" cy="4.675" rx="4.496" ry="4.509"/>
            <ellipse cx="472.729" cy="57.678" rx="4.496" ry="4.509"/>
            <ellipse cx="425.783" cy="49.028" rx="4.496" ry="4.509"/>
            <ellipse cx="394.749" cy="30.164" rx="4.496" ry="4.509"/>
            <ellipse cx="285.368" cy="220.352" rx="4.496" ry="4.509"/>
            <ellipse cx="238.643" cy="247.719" rx="4.496" ry="4.509"/>
            <ellipse cx="285.515" cy="273.816" rx="4.496" ry="4.509"/>
            <ellipse cx="285.662" cy="327.906" rx="4.496" ry="4.509"/>
            <ellipse cx="332.277" cy="301.183" rx="4.496" ry="4.509"/>
            <ellipse cx="379.205" cy="329.01" rx="4.496" ry="4.509"/>
            <ellipse cx="332.277" cy="247.388" rx="4.496" ry="4.509"/>
            <ellipse cx="379.205" cy="219.708" rx="4.496" ry="4.509"/>
            <ellipse cx="332.461" cy="192.525" rx="4.496" ry="4.509"/>
            <ellipse cx="379.039" cy="273.282" rx="4.496" ry="4.509"/>
            <ellipse cx="98.356" cy="220.002" rx="4.496" ry="4.509"/>
            <ellipse cx="52.695" cy="247.719" rx="4.496" ry="4.509"/>
            <ellipse cx="20.321" cy="229.499" rx="4.496" ry="4.509"/>
            <ellipse cx="20.321" cy="264.927" rx="4.496" ry="4.509"/>
            <ellipse cx="51.594" cy="212.015" rx="4.496" ry="4.509"/>
        </g>
        <g fill="#00152B" fill-rule="nonzero" opacity=".1" transform="translate(8 37)">
            <ellipse cx="42.943" cy="63.567" rx="11.7" ry="11.723"/>
            <ellipse cx="183.599" cy="74.627" rx="11.7" ry="11.723"/>
            <ellipse cx="293.398" cy="84.05" rx="11.7" ry="11.723"/>
            <ellipse cx="605.072" cy="11.797" rx="11.7" ry="11.723"/>
            <ellipse cx="511.326" cy="47.537" rx="11.7" ry="11.723"/>
            <ellipse cx="417.708" cy="12.643" rx="11.7" ry="11.723"/>
            <ellipse cx="605.072" cy="155.862" rx="11.7" ry="11.723"/>
            <ellipse cx="652.148" cy="291.093" rx="11.7" ry="11.723"/>
            <ellipse cx="636.388" cy="391.412" rx="11.7" ry="11.723"/>
            <ellipse cx="542.477" cy="498.78" rx="11.7" ry="11.723"/>
            <ellipse cx="589.405" cy="311.687" rx="11.7" ry="11.723"/>
            <ellipse cx="370.853" cy="545.397" rx="11.7" ry="11.723"/>
            <ellipse cx="277.327" cy="564.261" rx="11.7" ry="11.723"/>
            <ellipse cx="183.599" cy="509.657" rx="11.7" ry="11.723"/>
            <ellipse cx="465.812" cy="291.424" rx="11.7" ry="11.723"/>
            <ellipse cx="230.399" cy="320.594" rx="11.7" ry="11.723"/>
            <ellipse cx="277.18" cy="183.541" rx="11.7" ry="11.723"/>
            <ellipse cx="11.92" cy="192.688" rx="11.7" ry="11.723"/>
            <ellipse cx="152.43" cy="419.331" rx="11.7" ry="11.723"/>
            <ellipse cx="323.98" cy="374.738" rx="11.7" ry="11.723"/>
            <ellipse cx="43.218" cy="320.134" rx="11.7" ry="11.723"/>
            <ellipse cx="89.118" cy="128.753" rx="11.7" ry="11.723"/>
        </g>
    </g>
</svg>
