<svg height='100px' width='100px'  fill="#000000" xmlns="http://www.w3.org/2000/svg" xmlns:xlink="http://www.w3.org/1999/xlink" version="1.1" x="0px" y="0px" viewBox="0 0 100 100" enable-background="new 0 0 100 100" xml:space="preserve"><g><g><path fill="#000000" d="M50.102,10.728c21.761,0,39.465,17.704,39.465,39.465S71.863,89.658,50.102,89.658    S10.638,71.954,10.638,50.193S28.342,10.728,50.102,10.728 M50.102,5.091C25.193,5.091,5,25.284,5,50.193    c0,24.909,20.193,45.102,45.102,45.102c24.909,0,45.102-20.193,45.102-45.102C95.205,25.284,75.012,5.091,50.102,5.091    L50.102,5.091z"></path></g><g><path fill="#000000" d="M37.637,36.363c0.616-1.786,1.53-3.305,2.742-4.559c1.211-1.253,2.68-2.227,4.405-2.926    c1.725-0.698,3.697-1.048,5.915-1.048c1.725,0,3.336,0.257,4.838,0.77c1.497,0.515,2.822,1.263,3.972,2.248    c1.15,0.987,2.055,2.178,2.712,3.573c0.657,1.397,0.984,3,0.984,4.807c0,2.301-0.502,4.251-1.508,5.853    c-1.006,1.601-2.289,3.142-3.851,4.621c-1.274,1.274-2.292,2.269-3.048,2.988c-0.763,0.719-1.326,1.428-1.696,2.127    c-0.371,0.699-0.616,1.551-0.74,2.557c-0.123,1.006-0.206,2.452-0.247,4.341h-3.881c-0.042-1.889,0.061-3.47,0.307-4.742    c0.247-1.274,0.647-2.425,1.203-3.452c0.554-1.026,1.292-2.012,2.217-2.957c0.925-0.944,2.043-2.012,3.358-3.204    c1.15-1.067,2.106-2.258,2.864-3.573c0.761-1.314,1.142-2.773,1.142-4.374c0-1.232-0.237-2.361-0.71-3.389    c-0.471-1.026-1.108-1.9-1.909-2.619c-0.803-0.717-1.736-1.283-2.804-1.694c-1.068-0.41-2.198-0.616-3.389-0.616    c-1.644,0-3.102,0.287-4.374,0.862c-1.274,0.577-2.321,1.366-3.143,2.372c-0.822,1.007-1.438,2.188-1.848,3.543    c-0.41,1.356-0.595,2.835-0.554,4.436h-3.882C36.713,40.132,37.021,38.15,37.637,36.363z M52.793,66.215v6.529h-5.175v-6.529    H52.793z"></path></g></g></svg>