<?xml version="1.0" encoding="UTF-8"?>
<svg width="107px" height="122px" viewBox="0 0 107 122" version="1.1" xmlns="http://www.w3.org/2000/svg" xmlns:xlink="http://www.w3.org/1999/xlink">
    <!-- Generator: Sketch 53.2 (72643) - https://sketchapp.com -->
    <title>retail-light-bg</title>
    <desc>Created with Sketch.</desc>
    <defs>
        <circle id="path-1" cx="27" cy="27" r="27"></circle>
        <filter x="-66.7%" y="-57.4%" width="251.9%" height="251.9%" filterUnits="objectBoundingBox" id="filter-2">
            <feOffset dx="5" dy="10" in="SourceAlpha" result="shadowOffsetOuter1"></feOffset>
            <feGaussianBlur stdDeviation="12" in="shadowOffsetOuter1" result="shadowBlurOuter1"></feGaussianBlur>
            <feColorMatrix values="0 0 0 0 0   0 0 0 0 0   0 0 0 0 0  0 0 0 0.35 0" type="matrix" in="shadowBlurOuter1"></feColorMatrix>
        </filter>
        <path d="M11.0316878,7.90793317 L11.0316878,5.82079538 C11.0316878,3.96678234 12.7257431,2.44109683 14.7721618,2.44109683 C16.832133,2.45208176 18.5126359,3.97776728 18.5261883,5.82079538 L18.5261883,7.90793317 L11.0316878,7.90793317 Z M26.1833181,7.90793317 L21.2366767,7.90793317 L21.2366767,5.8085899 C21.2095718,2.63638457 18.3229017,0.0231904199 14.7857143,0 C11.221422,0.0109849357 8.33475187,2.61075306 8.32119942,5.82079538 L8.32119942,7.90793317 L3.38811051,7.90793317 L0,30.00108 L29.5714286,30.00108 L26.1833181,7.90793317 Z" id="path-3"></path>
    </defs>
    <g id="SeMI-Website" stroke="none" stroke-width="1" fill="none" fill-rule="evenodd">
        <g id="Styleguide-–-SeMI-Graphics" transform="translate(-887.000000, -5082.000000)">
            <g id="graphics/industries/white-background/retail" transform="translate(888.000000, 5084.000000)">
                <g id="Group">
                    <polygon id="Shape" fill="#BCF0A7" fill-rule="nonzero" style="mix-blend-mode: multiply;" opacity="0.7" points="50.9896468 0 0 29.6318997 0 89 51 58.9300363"></polygon>
                    <polygon id="Shape" fill="#BCF0A7" fill-rule="nonzero" style="mix-blend-mode: multiply;" opacity="0.7" points="51.0103532 0 102 29.6318997 102 89 51 58.9300363"></polygon>
                    <polygon id="Shape" fill="#BCF0A7" fill-rule="nonzero" opacity="0.7" points="101 88.1726845 50.9187982 58 1 88.2040816 50.9187982 118"></polygon>
                    <path d="M0.58,28.36 L1.44,28.87" id="Shape" stroke="#FFFFFF"></path>
                    <path d="M3.13,30.88 L49.62,58.6" id="Shape" stroke="#FFFFFF" stroke-dasharray="1.97"></path>
                    <polyline id="Shape" stroke="#FFFFFF" points="50.46 58.1 51.32 58.62 52.18 58.1"></polyline>
                    <path d="M53.87,58.1 L100.35,30.37" id="Shape" stroke="#FFFFFF" stroke-dasharray="1.97"></path>
                    <path d="M51,115 L51,114" id="Shape" stroke="#FFFFFF"></path>
                    <path d="M51,112.53 L51,63" id="Shape" stroke="#FFFFFF" stroke-dasharray="1.94"></path>
                    <path d="M51.32,62.15 L51.32,61.15" id="Shape" stroke="#FFFFFF"></path>
                    <polygon id="Shape" stroke="#00152B" stroke-width="4" points="101 88.0024998 101 29.9975002 51.0049766 1 1 29.9975002 1 88.0024998 51.0049766 117"></polygon>
                </g>
                <g id="Group-2" transform="translate(24.000000, 32.000000)">
                    <g id="Oval" fill-rule="nonzero">
                        <use fill="black" fill-opacity="1" filter="url(#filter-2)" xlink:href="#path-1"></use>
                        <use fill="#00152B" xlink:href="#path-1"></use>
                    </g>
                    <circle id="Oval" stroke="#FFFFFF" stroke-width="2.4" cx="27" cy="27" r="27"></circle>
                    <g id="icons/industries/retail" transform="translate(12.000000, 12.000000)">
                        <g id="background/black">
                            <mask id="mask-4" fill="white">
                                <use xlink:href="#path-3"></use>
                            </mask>
                            <g id="Mask"></g>
                            <g id="background/white" mask="url(#mask-4)" fill="#FFFFFF">
                                <polygon id="Combined-Shape" points="0 0 30 0 30 29.7931034 0 29.7931034"></polygon>
                            </g>
                        </g>
                    </g>
                </g>
            </g>
        </g>
    </g>
</svg>