<?xml version="1.0" encoding="utf-8"?>
<!-- Generator: Adobe Illustrator 25.0.1, SVG Export Plug-In . SVG Version: 6.00 Build 0)  -->
<svg version="1.1" id="Layer_1" xmlns="http://www.w3.org/2000/svg" xmlns:xlink="http://www.w3.org/1999/xlink" x="0px" y="0px"
	 viewBox="0 0 543.5 436.7" style="enable-background:new 0 0 543.5 436.7;" xml:space="preserve">
<style type="text/css">
	.st0{fill:url(#SVGID_1_);stroke:#0070E6;stroke-width:20;stroke-miterlimit:10;}
	.st1{fill:url(#SVGID_2_);}
	.st2{fill:url(#SVGID_3_);}
	.st3{fill:url(#SVGID_4_);}
	.st4{opacity:0.4;fill:none;stroke:#0070E6;stroke-width:5;stroke-miterlimit:10;enable-background:new    ;}
	.st5{fill:url(#SVGID_5_);}
	.st6{fill:url(#SVGID_6_);}
	.st7{opacity:0.6;fill:url(#SVGID_7_);enable-background:new    ;}
	.st8{fill:#D9C539;}
	.st9{fill:url(#SVGID_8_);}
	.st10{fill:url(#SVGID_9_);}
	.st11{fill:url(#SVGID_10_);}
	.st12{opacity:0.2;fill:#00152B;enable-background:new    ;}
	.st13{fill:url(#SVGID_11_);}
	.st14{fill:url(#SVGID_12_);}
	.st15{fill:url(#SVGID_13_);}
	.st16{fill:url(#SVGID_14_);}
	.st17{fill:url(#SVGID_15_);}
	.st18{fill:url(#SVGID_16_);}
	.st19{fill:url(#SVGID_17_);}
	.st20{fill:url(#SVGID_18_);}
	.st21{fill:url(#SVGID_19_);}
	.st22{fill:url(#SVGID_20_);}
	.st23{fill:url(#SVGID_21_);}
	.st24{fill:url(#SVGID_22_);}
	.st25{fill:url(#SVGID_23_);}
	.st26{fill:url(#SVGID_24_);}
	.st27{fill:url(#SVGID_25_);}
	.st28{fill:url(#SVGID_26_);}
	.st29{fill:url(#SVGID_27_);}
	.st30{fill:url(#SVGID_28_);}
	.st31{fill:url(#SVGID_29_);}
	.st32{fill:url(#SVGID_30_);}
	.st33{fill:#FFFFFF;}
	.st34{fill:url(#SVGID_31_);}
	.st35{fill:url(#SVGID_32_);}
	.st36{opacity:0.6;fill:url(#SVGID_33_);enable-background:new    ;}
	.st37{fill:url(#SVGID_34_);}
	.st38{fill:url(#SVGID_35_);}
	.st39{fill:url(#SVGID_36_);}
	.st40{fill:url(#SVGID_37_);}
	.st41{fill:url(#SVGID_38_);}
	.st42{fill:url(#SVGID_39_);}
	.st43{fill:url(#SVGID_40_);}
	.st44{fill:url(#SVGID_41_);}
	.st45{fill:url(#SVGID_42_);}
	.st46{fill:url(#SVGID_43_);}
	.st47{fill:url(#SVGID_44_);}
	.st48{fill:url(#SVGID_45_);}
	.st49{fill:url(#SVGID_46_);}
	.st50{fill:url(#SVGID_47_);}
	.st51{fill:url(#SVGID_48_);}
	.st52{fill:url(#SVGID_49_);}
	.st53{fill:url(#SVGID_50_);}
	.st54{fill:url(#SVGID_51_);}
	.st55{fill:url(#SVGID_52_);}
	.st56{fill:url(#SVGID_53_);}
	.st57{fill:url(#SVGID_54_);}
	.st58{fill:url(#SVGID_55_);}
	.st59{fill:url(#SVGID_56_);}
	.st60{fill:url(#SVGID_57_);}
	.st61{fill:url(#SVGID_58_);}
	.st62{opacity:0.6;fill:url(#SVGID_59_);enable-background:new    ;}
	.st63{fill:url(#SVGID_60_);}
	.st64{fill:url(#SVGID_61_);}
	.st65{fill:url(#SVGID_62_);}
	.st66{fill:url(#SVGID_63_);}
	.st67{fill:url(#SVGID_64_);}
	.st68{fill:url(#SVGID_65_);}
	.st69{fill:url(#SVGID_66_);}
	.st70{fill:url(#SVGID_67_);}
	.st71{fill:url(#SVGID_68_);}
	.st72{fill:url(#SVGID_69_);}
	.st73{fill:url(#SVGID_70_);}
	.st74{fill:url(#SVGID_71_);}
	.st75{fill:url(#SVGID_72_);}
	.st76{fill:url(#SVGID_73_);}
	.st77{fill:url(#SVGID_74_);}
	.st78{fill:url(#SVGID_75_);}
	.st79{fill:url(#SVGID_76_);}
	.st80{fill:url(#SVGID_77_);}
	.st81{fill:url(#SVGID_78_);}
	.st82{fill:url(#SVGID_79_);}
	.st83{fill:url(#SVGID_80_);}
	.st84{fill:url(#SVGID_81_);}
	.st85{fill:url(#SVGID_82_);}
</style>
<g>
	<g id="Layer_1_1_">
		
			<linearGradient id="SVGID_1_" gradientUnits="userSpaceOnUse" x1="2339.6948" y1="-827.8964" x2="2339.6948" y2="-962.0664" gradientTransform="matrix(1 0 0 -1 -2069.8501 -632.2828)">
			<stop  offset="0" style="stop-color:#EFF7FF"/>
			<stop  offset="1" style="stop-color:#FFFFFF"/>
		</linearGradient>
		<path class="st0" d="M287.3,130.8c-9.6-5.5-25.3-5.5-35,0L17.2,266.6c-9.6,5.6-9.6,14.6,0,20.2l235.2,135.8c9.6,5.6,25.3,5.6,35,0
			l235.2-135.8c9.6-5.6,9.6-14.6,0-20.2L287.3,130.8z"/>
		
			<linearGradient id="SVGID_2_" gradientUnits="userSpaceOnUse" x1="2311.0801" y1="-916.3814" x2="2434.6899" y2="-916.3814" gradientTransform="matrix(1 0 0 -1 -2069.8501 -632.2828)">
			<stop  offset="0" style="stop-color:#A5C5FF"/>
			<stop  offset="1" style="stop-color:#77A4F9"/>
		</linearGradient>
		<path class="st1" d="M529.6,275.5L529.6,275.5l0.1-21.1h-54L287.3,145.7c-9.6-5.6-25.3-5.6-34.9,0L64,254.4H10.1v21.1
			c-0.6,4,1.8,8.2,7.1,11.2l235.2,135.8c9.6,5.6,25.3,5.6,34.9,0l235.2-135.8C527.8,283.7,530.1,279.6,529.6,275.5z"/>
		
			<linearGradient id="SVGID_3_" gradientUnits="userSpaceOnUse" x1="2339.6948" y1="-805.2363" x2="2339.6948" y2="-939.4164" gradientTransform="matrix(1 0 0 -1 -2069.8501 -632.2828)">
			<stop  offset="0" style="stop-color:#EFF7FF"/>
			<stop  offset="1" style="stop-color:#FFFFFF"/>
		</linearGradient>
		<path class="st2" d="M287.3,108.1c-9.6-5.6-25.3-5.6-35,0L17.2,243.9c-9.6,5.6-9.6,14.6,0,20.2l235.2,135.8c9.6,5.6,25.3,5.6,35,0
			l235.2-135.8c9.6-5.6,9.6-14.6,0-20.2L287.3,108.1z"/>
		
			<linearGradient id="SVGID_4_" gradientUnits="userSpaceOnUse" x1="2339.73" y1="-810.2363" x2="2339.73" y2="-735.5464" gradientTransform="matrix(1 0 0 -1 -2069.8501 -632.2828)">
			<stop  offset="0" style="stop-color:#EFF7FF"/>
			<stop  offset="1" style="stop-color:#FFFFFF"/>
		</linearGradient>
		<path class="st3" d="M269.9,401.1c-6,0-11.8-1.4-16-3.8L18.7,261.5c-3.7-2.1-5.7-4.8-5.7-7.5s2-5.4,5.7-7.5l235.2-135.8
			c4.1-2.4,10-3.8,16-3.8s11.8,1.4,16,3.8l235.2,135.8c3.7,2.1,5.7,4.8,5.7,7.5s-2,5.4-5.7,7.5L285.9,397.3
			C281.7,399.7,275.9,401.1,269.9,401.1z"/>
		<path class="st4" d="M408.1,265.1c5.4-3.1,5.4-8.2,0-11.3l-131.5-75.9c-5.4-3.1-14.2-3.1-19.6,0l-50.9,29.4"/>
		<path class="st4" d="M233.8,327.6l23.3,13.5c5.4,3.1,14.2,3.1,19.6,0l131.5-75.9"/>
		<path class="st4" d="M206.2,207.3l-80.7,46.6c-5.4,3.1-5.4,8.2,0,11.3l108.2,62.5"/>
		
			<linearGradient id="SVGID_5_" gradientUnits="userSpaceOnUse" x1="2423.71" y1="-893.7563" x2="2505.1699" y2="-893.7563" gradientTransform="matrix(1 0 0 -1 -2069.8501 -632.2828)">
			<stop  offset="0" style="stop-color:#0070E6"/>
			<stop  offset="1" style="stop-color:#A5C5FF"/>
		</linearGradient>
		<path class="st5" d="M392.5,235.9c4.5-2.6,11.8-2.6,16.2,0l36.4,21.2c4.5,2.6,4.5,6.8,0,9.4l-35.8,20.7c-4.5,2.6-11.8,2.6-16.2,0
			l-36.4-21.2c-4.5-2.6-4.5-6.8,0-9.4L392.5,235.9z"/>
		
			<linearGradient id="SVGID_6_" gradientUnits="userSpaceOnUse" x1="2414.1499" y1="-870.0937" x2="2502.1001" y2="-870.0937" gradientTransform="matrix(1 0 0 -1 -2069.8501 -632.2828)">
			<stop  offset="0" style="stop-color:#0070E6"/>
			<stop  offset="1" style="stop-color:#00152B"/>
		</linearGradient>
		<path class="st6" d="M444.2,216.8c0-1.6-1-3.1-3-4.3L408,193.1c-4.7-2.3-10.1-2.3-14.8,0L360.6,212c-2.2,1.3-3.2,2.9-3,4.6v42
			c-0.1,1.7,0.9,3.3,3,4.6l33.2,19.3c4.7,2.3,10.1,2.3,14.8,0l32.6-18.8c2-1.2,3.1-2.7,3.1-4.3L444.2,216.8L444.2,216.8z"/>
		
			<linearGradient id="SVGID_7_" gradientUnits="userSpaceOnUse" x1="2470.7949" y1="-910.0664" x2="2470.7949" y2="-838.5364" gradientTransform="matrix(1 0 0 -1 -2069.8501 -632.2828)">
			<stop  offset="0" style="stop-color:#0070E6"/>
			<stop  offset="1" style="stop-color:#00152B"/>
		</linearGradient>
		<path class="st7" d="M444.2,204.3c0-1.6-1-3.1-3-4.3L408,180.6c-4.7-2.3-10.1-2.3-14.8,0l-32.6,18.8c-2.2,1.3-3.2,3-3,4.6v42
			c-0.1,1.7,0.9,3.3,3,4.6l33.2,19.3c4.7,2.3,10.1,2.3,14.8,0l32.6-18.8c2-1.2,3.1-2.7,3.1-4.3L444.2,204.3L444.2,204.3z"/>
		<path class="st8" d="M452.5,226.8c0-1.8-1.2-3.7-3.6-5.1l-39.6-23c-4.9-2.8-12.8-2.8-17.6,0l-38.9,22.5c-2.6,1.5-3.8,3.5-3.6,5.5
			v11.5c-0.2,2,1,4,3.6,5.5l39.6,23c5.6,2.8,12.1,2.8,17.6,0l38.9-22.4c2.4-1.4,3.6-3.2,3.6-5.1L452.5,226.8L452.5,226.8z"/>
		
			<linearGradient id="SVGID_8_" gradientUnits="userSpaceOnUse" x1="4777.5933" y1="-891.3286" x2="4817.1431" y2="-856.8386" gradientTransform="matrix(-1 0 0 -1 5174.1201 -632.2828)">
			<stop  offset="0" style="stop-color:#0070E6"/>
			<stop  offset="1" style="stop-color:#00152B"/>
		</linearGradient>
		<path class="st9" d="M345.9,232.1v-20.7c0.2,1.8,1.4,3.6,3.8,5l42.1,24.5c2.9,1.5,6.1,2.3,9.4,2.2v21.5c-3.3,0.1-6.5-0.7-9.4-2.2
			l-42.1-24.5C347,236.3,345.7,234.2,345.9,232.1z"/>
		
			<linearGradient id="SVGID_9_" gradientUnits="userSpaceOnUse" x1="4766.0029" y1="-913.4651" x2="4728.623" y2="-835.8151" gradientTransform="matrix(-1 0 0 -1 5174.1201 -632.2828)">
			<stop  offset="0" style="stop-color:#0070E6"/>
			<stop  offset="1" style="stop-color:#00152B"/>
		</linearGradient>
		<path class="st10" d="M410.6,241l41.4-23.9c2.6-1.5,3.9-3.4,3.9-5.4l0,0v21.4c0,2-1.3,3.9-3.9,5.4l-41.4,23.9
			c-2.9,1.5-6.1,2.3-9.4,2.2v-21.5C404.5,243.3,407.7,242.5,410.6,241z"/>
		
			<linearGradient id="SVGID_10_" gradientUnits="userSpaceOnUse" x1="4781.6938" y1="-836.1809" x2="4739.0742" y2="-873.9209" gradientTransform="matrix(-1 0 0 -1 5174.1201 -632.2828)">
			<stop  offset="0" style="stop-color:#0070E6"/>
			<stop  offset="1" style="stop-color:#A5C5FF"/>
		</linearGradient>
		<path class="st11" d="M391.1,181.8c5.2-3,13.6-3,18.8,0l42.1,24.5c5.2,3,5.2,7.9,0,10.8L410.6,241c-5.2,3-13.6,3-18.8,0
			l-42.1-24.5c-5.2-3-5.2-7.9,0-10.8L391.1,181.8z"/>
		<path class="st12" d="M401.2,241c2.9,0.1,5.7-0.6,8.2-1.9l41.4-23.9c1.8-1,2.8-2.3,2.8-3.5s-1-2.5-2.8-3.5l-42.1-24.5
			c-5.2-2.6-11.3-2.6-16.5,0l-41.4,23.9c-1.8,1-2.7,2.3-2.7,3.5s1,2.4,2.7,3.5L393,239C395.5,240.4,398.4,241,401.2,241z"/>
		
			<linearGradient id="SVGID_11_" gradientUnits="userSpaceOnUse" x1="4740.2783" y1="-884.8254" x2="4829.9683" y2="-760.0953" gradientTransform="matrix(-1 0 0 -1 5172.5801 -632.2828)">
			<stop  offset="0" style="stop-color:#0070E6"/>
			<stop  offset="1" style="stop-color:#A5C5FF"/>
		</linearGradient>
		<path class="st13" d="M391.9,246.8c5.2,3,13.6,3,18.8,0l41.4-23.9c2.6-1.5,3.9-3.4,3.9-5.4l0,0v11c0,2-1.3,3.9-3.9,5.4l-41.4,23.9
			c-5.2,3-13.6,3-18.8,0l-7.6-4.4v-11.1L391.9,246.8z"/>
		<path class="st8" d="M409.5,252l34.4-19.9c0.4-0.2,0.7,0,0.7,0.5v0.6c0,0.5-0.3,1-0.7,1.3l-34.4,19.9c-0.4,0.2-0.7,0-0.7-0.5v-0.6
			C408.8,252.8,409,252.3,409.5,252z"/>
		<path class="st8" d="M447.5,230.1c0.5-0.3,0.9,0,0.9,0.7c0,0.7-0.3,1.3-0.9,1.7c-0.5,0.3-0.9,0-0.9-0.7
			C446.7,231.1,447,230.5,447.5,230.1z"/>
		<path class="st8" d="M450.1,228.7c0.5-0.3,0.9,0,0.9,0.7c0,0.7-0.3,1.3-0.9,1.7c-0.5,0.3-0.9,0-0.9-0.7
			C449.2,229.7,449.5,229,450.1,228.7z"/>
		
			<linearGradient id="SVGID_12_" gradientUnits="userSpaceOnUse" x1="2419.062" y1="-835.561" x2="2522.3999" y2="-835.561" gradientTransform="matrix(1 0 0 -1 -2069.8501 -632.2828)">
			<stop  offset="0" style="stop-color:#38D611"/>
			<stop  offset="1" style="stop-color:#BCF0A7"/>
		</linearGradient>
		<path class="st14" d="M452.5,197.5c0-1.8-1.2-3.7-3.6-5.1l-39.6-23c-4.9-2.8-12.8-2.8-17.6,0l-38.9,22.4c-2.6,1.5-3.8,3.5-3.6,5.5
			v11.5c-0.2,2,1,4,3.6,5.5l39.6,23c5.6,2.8,12.1,2.8,17.6,0l38.9-22.4c2.4-1.4,3.6-3.2,3.6-5.1V197.5L452.5,197.5z"/>
		
			<linearGradient id="SVGID_13_" gradientUnits="userSpaceOnUse" x1="4777.6021" y1="-862.6185" x2="4817.1519" y2="-828.1185" gradientTransform="matrix(-1 0 0 -1 5174.1201 -632.2828)">
			<stop  offset="0" style="stop-color:#0070E6"/>
			<stop  offset="1" style="stop-color:#00152B"/>
		</linearGradient>
		<path class="st15" d="M345.9,203.4v-20.6c0.2,1.8,1.4,3.6,3.8,5l42.1,24.5c2.9,1.5,6.1,2.3,9.4,2.2V236c-3.3,0.1-6.5-0.7-9.4-2.2
			l-42.1-24.5C347,207.6,345.7,205.5,345.9,203.4z"/>
		
			<linearGradient id="SVGID_14_" gradientUnits="userSpaceOnUse" x1="4765.9946" y1="-884.7489" x2="4728.6147" y2="-807.089" gradientTransform="matrix(-1 0 0 -1 5174.1201 -632.2828)">
			<stop  offset="0" style="stop-color:#0070E6"/>
			<stop  offset="1" style="stop-color:#00152B"/>
		</linearGradient>
		<path class="st16" d="M410.6,212.3l41.4-23.9c2.6-1.5,3.9-3.4,3.9-5.4l0,0v21.4c0,2-1.3,3.9-3.9,5.4l-41.4,23.9
			c-2.9,1.5-6.1,2.3-9.4,2.2v-21.5C404.5,214.6,407.7,213.8,410.6,212.3z"/>
		
			<linearGradient id="SVGID_15_" gradientUnits="userSpaceOnUse" x1="4781.6904" y1="-807.4471" x2="4739.0708" y2="-845.1871" gradientTransform="matrix(-1 0 0 -1 5174.1201 -632.2828)">
			<stop  offset="0" style="stop-color:#0070E6"/>
			<stop  offset="1" style="stop-color:#A5C5FF"/>
		</linearGradient>
		<path class="st17" d="M391.1,153c5.2-3,13.6-3,18.8,0l42.1,24.5c5.2,3,5.2,7.8,0,10.8l-41.4,23.9c-5.2,3-13.6,3-18.8,0l-42.1-24.5
			c-5.2-3-5.2-7.9,0-10.8L391.1,153z"/>
		<path class="st12" d="M401.2,212.2c2.9,0.1,5.7-0.6,8.2-1.9l41.4-23.9c1.8-1,2.8-2.3,2.8-3.5s-1-2.5-2.8-3.5L408.8,155
			c-5.2-2.6-11.3-2.6-16.5,0l-41.4,23.9c-1.8,1-2.7,2.3-2.7,3.5s1,2.4,2.7,3.4l42.1,24.5C395.5,211.6,398.4,212.3,401.2,212.2z"/>
		
			<linearGradient id="SVGID_16_" gradientUnits="userSpaceOnUse" x1="4740.2812" y1="-856.1002" x2="4829.9512" y2="-731.3701" gradientTransform="matrix(-1 0 0 -1 5172.5801 -632.2828)">
			<stop  offset="0" style="stop-color:#0070E6"/>
			<stop  offset="1" style="stop-color:#A5C5FF"/>
		</linearGradient>
		<path class="st18" d="M391.9,218.1c5.2,3,13.6,3,18.8,0l41.4-23.9c2.6-1.5,3.9-3.4,3.9-5.4l0,0v11c0,2-1.3,3.9-3.9,5.4l-41.4,23.9
			c-5.2,3-13.6,3-18.8,0l-7.6-4.4v-11L391.9,218.1z"/>
		
			<linearGradient id="SVGID_17_" gradientUnits="userSpaceOnUse" x1="2478.6301" y1="-846.8116" x2="2514.3501" y2="-846.8116" gradientTransform="matrix(1 0 0 -1 -2069.8501 -632.2828)">
			<stop  offset="0" style="stop-color:#38D611"/>
			<stop  offset="1" style="stop-color:#BCF0A7"/>
		</linearGradient>
		<path class="st19" d="M409.5,223.3l34.4-19.9c0.4-0.2,0.7,0,0.7,0.5v0.6c0,0.5-0.3,1-0.7,1.3l-34.4,19.9c-0.4,0.2-0.7,0-0.7-0.5
			v-0.6C408.8,224.1,409,223.6,409.5,223.3z"/>
		
			<linearGradient id="SVGID_18_" gradientUnits="userSpaceOnUse" x1="2516.5098" y1="-834.8414" x2="2518.2598" y2="-834.8414" gradientTransform="matrix(1 0 0 -1 -2069.8501 -632.2828)">
			<stop  offset="0" style="stop-color:#38D611"/>
			<stop  offset="1" style="stop-color:#BCF0A7"/>
		</linearGradient>
		<path class="st20" d="M447.5,201.4c0.5-0.3,0.9,0,0.9,0.7c0,0.7-0.3,1.3-0.9,1.7c-0.5,0.3-0.9,0-0.9-0.7
			C446.7,202.4,447,201.8,447.5,201.4z"/>
		
			<linearGradient id="SVGID_19_" gradientUnits="userSpaceOnUse" x1="2519.04" y1="-833.3787" x2="2520.79" y2="-833.3787" gradientTransform="matrix(1 0 0 -1 -2069.8501 -632.2828)">
			<stop  offset="0" style="stop-color:#38D611"/>
			<stop  offset="1" style="stop-color:#BCF0A7"/>
		</linearGradient>
		<path class="st21" d="M450.1,199.9c0.5-0.3,0.9,0,0.9,0.7c0,0.7-0.3,1.3-0.9,1.7c-0.5,0.3-0.9,0-0.9-0.7
			C449.2,200.9,449.5,200.3,450.1,199.9z"/>
		
			<linearGradient id="SVGID_20_" gradientUnits="userSpaceOnUse" x1="2479.5" y1="-806.3052" x2="2430.26" y2="-806.3052" gradientTransform="matrix(1 0 0 -1 -2069.8501 -632.2828)">
			<stop  offset="0" style="stop-color:#FA0171"/>
			<stop  offset="1" style="stop-color:#FF90BD"/>
		</linearGradient>
		<path class="st22" d="M452.5,168.2c0-1.8-1.2-3.7-3.6-5.1l-39.6-23c-4.9-2.8-12.8-2.8-17.6,0l-38.9,22.5c-2.6,1.5-3.8,3.5-3.6,5.5
			v11.5c-0.2,2,1,4,3.6,5.5l39.6,23c5.5,2.8,12.1,2.8,17.6,0l38.9-22.4c2.4-1.4,3.6-3.2,3.6-5.1L452.5,168.2L452.5,168.2z"/>
		
			<linearGradient id="SVGID_21_" gradientUnits="userSpaceOnUse" x1="4777.5903" y1="-832.765" x2="4817.1401" y2="-798.275" gradientTransform="matrix(-1 0 0 -1 5174.1201 -632.2828)">
			<stop  offset="0" style="stop-color:#0070E6"/>
			<stop  offset="1" style="stop-color:#00152B"/>
		</linearGradient>
		<path class="st23" d="M345.9,173.6v-20.7c0.2,1.8,1.4,3.6,3.8,5l42.1,24.5c2.9,1.5,6.1,2.3,9.4,2.2v21.5c-3.3,0.1-6.5-0.7-9.4-2.2
			l-42.1-24.5C347,177.8,345.7,175.7,345.9,173.6z"/>
		
			<linearGradient id="SVGID_22_" gradientUnits="userSpaceOnUse" x1="4766.0024" y1="-854.9051" x2="4728.6226" y2="-777.2551" gradientTransform="matrix(-1 0 0 -1 5174.1201 -632.2828)">
			<stop  offset="0" style="stop-color:#0070E6"/>
			<stop  offset="1" style="stop-color:#00152B"/>
		</linearGradient>
		<path class="st24" d="M410.6,182.4l41.4-23.9c2.6-1.5,3.9-3.4,3.9-5.4l0,0v21.4c0,2-1.3,3.9-3.9,5.4l-41.4,23.9
			c-2.9,1.5-6.1,2.3-9.4,2.2v-21.5C404.5,184.7,407.7,184,410.6,182.4z"/>
		
			<linearGradient id="SVGID_23_" gradientUnits="userSpaceOnUse" x1="4781.6831" y1="-777.5984" x2="4739.063" y2="-815.3484" gradientTransform="matrix(-1 0 0 -1 5174.1201 -632.2828)">
			<stop  offset="0" style="stop-color:#0070E6"/>
			<stop  offset="1" style="stop-color:#A5C5FF"/>
		</linearGradient>
		<path class="st25" d="M391.1,123.2c5.2-3,13.6-3,18.8,0l42.1,24.5c5.2,3,5.2,7.8,0,10.8l-41.4,23.9c-5.2,3-13.6,3-18.8,0
			l-42.1-24.5c-5.2-3-5.2-7.9,0-10.8L391.1,123.2z"/>
		<path class="st12" d="M401.2,182.4c2.9,0.1,5.7-0.6,8.2-1.9l41.4-23.9c1.8-1,2.8-2.3,2.8-3.5s-1-2.5-2.8-3.5l-42.1-24.5
			c-5.2-2.6-11.3-2.6-16.5,0L350.9,149c-1.8,1-2.7,2.3-2.7,3.5s1,2.4,2.7,3.5l42.1,24.5C395.5,181.8,398.4,182.5,401.2,182.4z"/>
		
			<linearGradient id="SVGID_24_" gradientUnits="userSpaceOnUse" x1="4740.2837" y1="-826.2618" x2="4829.9536" y2="-701.5319" gradientTransform="matrix(-1 0 0 -1 5172.5801 -632.2828)">
			<stop  offset="0" style="stop-color:#0070E6"/>
			<stop  offset="1" style="stop-color:#A5C5FF"/>
		</linearGradient>
		<path class="st26" d="M391.9,188.3c5.2,3,13.6,3,18.8,0l41.4-23.9c2.6-1.5,3.9-3.4,3.9-5.4l0,0v11c0,2-1.3,3.9-3.9,5.4l-41.4,23.9
			c-5.2,3-13.6,3-18.8,0l-7.6-4.4v-11.1L391.9,188.3z"/>
		
			<linearGradient id="SVGID_25_" gradientUnits="userSpaceOnUse" x1="4723.7534" y1="-803.2706" x2="4750.6836" y2="-819.9006" gradientTransform="matrix(-1 0 0 -1 5172.5801 -632.2828)">
			<stop  offset="0" style="stop-color:#FA0171"/>
			<stop  offset="1" style="stop-color:#FF90BD"/>
		</linearGradient>
		<path class="st27" d="M409.5,193.4l34.4-19.9c0.4-0.2,0.7,0,0.7,0.5v0.6c0,0.5-0.3,1-0.7,1.3l-34.4,19.9c-0.4,0.2-0.7,0-0.7-0.5
			v-0.6C408.8,194.2,409,193.8,409.5,193.4z"/>
		
			<linearGradient id="SVGID_26_" gradientUnits="userSpaceOnUse" x1="4723.3408" y1="-803.9456" x2="4750.2505" y2="-820.5656" gradientTransform="matrix(-1 0 0 -1 5172.5801 -632.2828)">
			<stop  offset="0" style="stop-color:#FA0171"/>
			<stop  offset="1" style="stop-color:#FF90BD"/>
		</linearGradient>
		<path class="st28" d="M447.5,171.6c0.5-0.3,0.9,0,0.9,0.7c0,0.7-0.3,1.3-0.9,1.7c-0.5,0.3-0.9,0-0.9-0.7
			C446.7,172.6,447,171.9,447.5,171.6z"/>
		
			<linearGradient id="SVGID_27_" gradientUnits="userSpaceOnUse" x1="4723.2915" y1="-804.0239" x2="4750.2217" y2="-820.6539" gradientTransform="matrix(-1 0 0 -1 5172.5801 -632.2828)">
			<stop  offset="0" style="stop-color:#FA0171"/>
			<stop  offset="1" style="stop-color:#FF90BD"/>
		</linearGradient>
		<path class="st29" d="M450.1,170.1c0.5-0.3,0.9,0,0.9,0.7c0,0.7-0.3,1.3-0.9,1.7c-0.5,0.3-0.9,0-0.9-0.7
			C449.2,171.1,449.5,170.5,450.1,170.1z"/>
		
			<linearGradient id="SVGID_28_" gradientUnits="userSpaceOnUse" x1="1654.5729" y1="-700.1816" x2="1676.0929" y2="-771.2515" gradientTransform="matrix(-1 0 0 -1 2073.74 -632.2828)">
			<stop  offset="0" style="stop-color:#0070E6"/>
			<stop  offset="1" style="stop-color:#00152B"/>
		</linearGradient>
		<path class="st30" d="M380.2,149.4v-61c0-4.1,2.5-8.9,5.6-10.6l45.7-26.4c1.2-0.9,2.8-0.9,4-0.1l3.9,2.3c-0.7,0.6-1.5,1-2.4,1.2
			c0,0.2,0.1,0.5,0.1,0.8v61c0,4.1-2.5,8.9-5.6,10.6l-45,26l0.2,3.2l-4.4-2.6l0,0C381,153.2,380.2,151.7,380.2,149.4z"/>
		
			<linearGradient id="SVGID_29_" gradientUnits="userSpaceOnUse" x1="1656.4404" y1="-743.4335" x2="1670.7904" y2="-722.2434" gradientTransform="matrix(-1 0 0 -1 2073.74 -632.2828)">
			<stop  offset="0" style="stop-color:#0070E6"/>
			<stop  offset="1" style="stop-color:#A5C5FF"/>
		</linearGradient>
		<path class="st31" d="M390.4,80.4L436.1,54c3.1-1.8,5.6,0.1,5.6,4.2v61c0,4.1-2.5,8.9-5.6,10.6l-45.7,26.4
			c-3.1,1.8-5.6-0.1-5.6-4.2v-61C384.8,87,387.3,82.2,390.4,80.4z"/>
		
			<linearGradient id="SVGID_30_" gradientUnits="userSpaceOnUse" x1="1685.7137" y1="-712.9202" x2="1640.0737" y2="-757.2602" gradientTransform="matrix(-1 0 0 -1 2073.74 -632.2828)">
			<stop  offset="0" style="stop-color:#0070E6"/>
			<stop  offset="1" style="stop-color:#A5C5FF"/>
		</linearGradient>
		<path class="st32" d="M388.1,155.3c-1.3,0-1.8-1.7-1.8-3.2V91c0-3.5,2.2-7.7,4.8-9.2l45.7-26.4c0.4-0.3,0.9-0.4,1.4-0.4
			c0.3,0,0.7,0.1,0.9,0.4c0.6,0.8,0.9,1.9,0.8,2.9v61c0,3.5-2.2,7.7-4.8,9.2l-45.7,26.4C389.1,155.1,388.6,155.2,388.1,155.3z"/>
		<path class="st33" d="M420.5,102.2c-3.4-2.5-8.8,0.6-12.2,7s-3.4,13.7,0,16.2c3,2.2,7.5,0.1,10.9-4.8l6.1,4.6l2.4-4.6l-6.1-4.6
			C423.8,110.3,423.4,104.4,420.5,102.2z M418.4,116.9c-2.2,4.2-5.8,6.3-8,4.6s-2.2-6.4,0-10.7s5.8-6.3,8-4.6
			S420.6,112.6,418.4,116.9L418.4,116.9z"/>
		<path class="st33" d="M433.1,96.9c-1.2-7-5-11.3-10.1-11.9l8.8-5.1c0.3,0.7,1.1,0.9,1.8,0.6c0.1,0,0.1-0.1,0.2-0.1
			c1.4-1,2.3-2.6,2.3-4.4c0-1.7-1-2.4-2.3-1.7c-1,0.7-1.7,1.6-2,2.8L418,84.9v-4l-8.2,4.8v4l-13.6,7.8c-0.3-0.7-1.1-0.9-1.8-0.6
			c-0.1,0-0.2,0.1-0.2,0.1c-1.4,1-2.3,2.6-2.3,4.4c0,1.7,1,2.5,2.3,1.7c1-0.7,1.7-1.6,2-2.7l8.7-5c-5.3,6.9-8.8,15-10.1,23.6l-3.5,2
			v11l8.2-4.8v-11l-2.5,1.5c1.5-9.3,6.5-18.8,12.8-24.4v3.4l8.2-4.8v-3.4c6.3-1.6,11.3,2.1,12.8,9.7l-2.5,1.5v11l8.2-4.8v-11
			L433.1,96.9z M397.3,125.6l-3.9,2.2v-5.2l3.9-2.2V125.6z M415.8,90.2l-3.9,2.2v-5.2l3.9-2.2V90.2z M434.3,104.2l-3.9,2.2v-5.2
			l3.9-2.2V104.2z"/>
		
			<linearGradient id="SVGID_31_" gradientUnits="userSpaceOnUse" x1="2219.45" y1="-843.0614" x2="2300.8999" y2="-843.0614" gradientTransform="matrix(1 0 0 -1 -2069.8501 -632.2828)">
			<stop  offset="0" style="stop-color:#0070E6"/>
			<stop  offset="1" style="stop-color:#A5C5FF"/>
		</linearGradient>
		<path class="st34" d="M188.1,185.2c4.5-2.6,11.8-2.6,16.2,0l36.4,21.2c4.5,2.6,4.5,6.8,0,9.4L205,236.4c-4.5,2.6-11.8,2.6-16.2,0
			l-36.4-21.2c-4.5-2.6-4.5-6.8,0-9.4L188.1,185.2z"/>
		
			<linearGradient id="SVGID_32_" gradientUnits="userSpaceOnUse" x1="2209.8899" y1="-819.3688" x2="2297.8401" y2="-819.3688" gradientTransform="matrix(1 0 0 -1 -2069.8501 -632.2828)">
			<stop  offset="0" style="stop-color:#0070E6"/>
			<stop  offset="1" style="stop-color:#00152B"/>
		</linearGradient>
		<path class="st35" d="M240,166c0-1.6-1-3.1-3.1-4.3l-33.2-19.3c-4.7-2.3-10.1-2.3-14.8,0l-32.6,18.9c-2.2,1.3-3.2,2.9-3,4.6v42
			c-0.1,1.7,0.9,3.3,3,4.6l33.2,19.3c4.7,2.3,10.2,2.3,14.8,0l32.6-18.8c2-1.2,3.1-2.7,3.1-4.3L240,166L240,166z"/>
		
			<linearGradient id="SVGID_33_" gradientUnits="userSpaceOnUse" x1="2266.4846" y1="-859.3763" x2="2266.4846" y2="-787.8464" gradientTransform="matrix(1 0 0 -1 -2069.8501 -632.2828)">
			<stop  offset="0" style="stop-color:#0070E6"/>
			<stop  offset="1" style="stop-color:#00152B"/>
		</linearGradient>
		<path class="st36" d="M240,153.6c0-1.6-1-3.1-3.1-4.3l-33.2-19.3c-4.7-2.3-10.1-2.3-14.8,0l-32.6,18.8c-2.2,1.2-3.2,2.9-3,4.6v42
			c-0.1,1.7,0.9,3.3,3,4.6l33.2,19.3c4.7,2.3,10.2,2.3,14.8,0l32.6-18.8c2-1.2,3.1-2.7,3.1-4.3L240,153.6L240,153.6z"/>
		
			<linearGradient id="SVGID_34_" gradientUnits="userSpaceOnUse" x1="2271.4492" y1="-813.9826" x2="2198.4392" y2="-815.9926" gradientTransform="matrix(1 0 0 -1 -2069.8501 -632.2828)">
			<stop  offset="0" style="stop-color:#38D611"/>
			<stop  offset="1" style="stop-color:#BCF0A7"/>
		</linearGradient>
		<path class="st37" d="M248.3,176c0-1.9-1.2-3.7-3.6-5.1l-39.6-23.1c-4.9-2.8-12.8-2.8-17.6,0l-38.9,22.5c-2.6,1.5-3.8,3.5-3.6,5.5
			v11.5c-0.2,2,1,4,3.6,5.5l39.6,23c5.5,2.8,12.1,2.8,17.6,0l38.9-22.4c2.4-1.4,3.6-3.3,3.6-5.1L248.3,176L248.3,176z"/>
		
			<linearGradient id="SVGID_35_" gradientUnits="userSpaceOnUse" x1="4981.8525" y1="-840.6379" x2="5021.4028" y2="-806.1479" gradientTransform="matrix(-1 0 0 -1 5174.1201 -632.2828)">
			<stop  offset="0" style="stop-color:#0070E6"/>
			<stop  offset="1" style="stop-color:#00152B"/>
		</linearGradient>
		<path class="st38" d="M141.6,181.4v-20.7c0.2,1.8,1.4,3.6,3.8,5l42.1,24.5c2.9,1.5,6.1,2.3,9.4,2.2V214c-3.3,0.1-6.5-0.7-9.4-2.2
			l-42.1-24.5C142.7,185.6,141.5,183.5,141.6,181.4z"/>
		
			<linearGradient id="SVGID_36_" gradientUnits="userSpaceOnUse" x1="4970.2646" y1="-862.774" x2="4932.8848" y2="-785.114" gradientTransform="matrix(-1 0 0 -1 5174.1201 -632.2828)">
			<stop  offset="0" style="stop-color:#0070E6"/>
			<stop  offset="1" style="stop-color:#00152B"/>
		</linearGradient>
		<path class="st39" d="M206.4,190.3l41.4-23.9c2.6-1.5,3.9-3.4,3.9-5.4l0,0v21.4c0,2-1.3,3.9-3.9,5.4l-41.4,23.9
			c-2.9,1.5-6.1,2.3-9.4,2.2v-21.5C200.2,192.6,203.5,191.8,206.4,190.3z"/>
		
			<linearGradient id="SVGID_37_" gradientUnits="userSpaceOnUse" x1="4985.9492" y1="-785.4751" x2="4943.3291" y2="-823.2251" gradientTransform="matrix(-1 0 0 -1 5174.1201 -632.2828)">
			<stop  offset="0" style="stop-color:#0070E6"/>
			<stop  offset="1" style="stop-color:#A5C5FF"/>
		</linearGradient>
		<path class="st40" d="M186.9,131c5.2-3,13.6-3,18.8,0l42.1,24.5c5.2,3,5.2,7.8,0,10.8l-41.4,23.9c-5.2,3-13.6,3-18.8,0l-42.1-24.5
			c-5.1-3-5.1-7.9,0-10.8L186.9,131z"/>
		<path class="st12" d="M197,190.3c2.9,0.1,5.7-0.6,8.3-1.9l41.4-23.9c1.8-1,2.8-2.3,2.8-3.5s-1-2.5-2.8-3.5L204.5,133
			c-5.2-2.6-11.3-2.6-16.5,0l-41.4,23.9c-1.8,1-2.7,2.3-2.7,3.5s1,2.4,2.7,3.4l42.1,24.5C191.3,189.7,194.1,190.3,197,190.3z"/>
		
			<linearGradient id="SVGID_38_" gradientUnits="userSpaceOnUse" x1="4944.5586" y1="-834.1427" x2="5034.2388" y2="-709.4027" gradientTransform="matrix(-1 0 0 -1 5172.5801 -632.2828)">
			<stop  offset="0" style="stop-color:#0070E6"/>
			<stop  offset="1" style="stop-color:#A5C5FF"/>
		</linearGradient>
		<path class="st41" d="M187.6,196.1c5.2,3,13.6,3,18.8,0l41.4-23.9c2.6-1.5,3.9-3.4,3.9-5.4l0,0v11.1c0,2-1.3,3.9-3.9,5.4
			l-41.4,23.9c-5.2,3-13.6,3-18.8,0l-7.6-4.4v-11.1L187.6,196.1z"/>
		
			<linearGradient id="SVGID_39_" gradientUnits="userSpaceOnUse" x1="4928.0254" y1="-811.1378" x2="4954.9453" y2="-827.7678" gradientTransform="matrix(-1 0 0 -1 5172.5801 -632.2828)">
			<stop  offset="0" style="stop-color:#38D611"/>
			<stop  offset="1" style="stop-color:#BCF0A7"/>
		</linearGradient>
		<path class="st42" d="M205.2,201.3l34.4-19.9c0.4-0.2,0.7,0,0.7,0.5v0.6c0,0.5-0.3,1-0.7,1.3l-34.4,20c-0.4,0.2-0.7,0-0.7-0.5
			v-0.6C204.5,202.1,204.8,201.6,205.2,201.3z"/>
		
			<linearGradient id="SVGID_40_" gradientUnits="userSpaceOnUse" x1="4927.6006" y1="-811.8156" x2="4954.5103" y2="-828.4356" gradientTransform="matrix(-1 0 0 -1 5172.5801 -632.2828)">
			<stop  offset="0" style="stop-color:#38D611"/>
			<stop  offset="1" style="stop-color:#BCF0A7"/>
		</linearGradient>
		<path class="st43" d="M243.3,179.4c0.5-0.3,0.9,0,0.9,0.7c0,0.7-0.3,1.3-0.9,1.7c-0.5,0.3-0.9,0-0.9-0.7
			C242.4,180.4,242.7,179.8,243.3,179.4z"/>
		
			<linearGradient id="SVGID_41_" gradientUnits="userSpaceOnUse" x1="4927.5537" y1="-811.8899" x2="4954.5039" y2="-828.5199" gradientTransform="matrix(-1 0 0 -1 5172.5801 -632.2828)">
			<stop  offset="0" style="stop-color:#38D611"/>
			<stop  offset="1" style="stop-color:#BCF0A7"/>
		</linearGradient>
		<path class="st44" d="M245.8,178c0.5-0.3,0.9,0,0.9,0.7c0,0.7-0.3,1.3-0.9,1.7c-0.5,0.3-0.9,0-0.9-0.7
			C244.9,179,245.3,178.3,245.8,178z"/>
		
			<linearGradient id="SVGID_42_" gradientUnits="userSpaceOnUse" x1="2214.8022" y1="-784.8401" x2="2318.1401" y2="-784.8401" gradientTransform="matrix(1 0 0 -1 -2069.8501 -632.2828)">
			<stop  offset="0" style="stop-color:#FA0171"/>
			<stop  offset="1" style="stop-color:#FF90BD"/>
		</linearGradient>
		<path class="st45" d="M248.3,146.8c0-1.8-1.2-3.7-3.6-5.1l-39.6-23.1c-4.9-2.8-12.8-2.8-17.6,0l-38.9,22.5
			c-2.6,1.5-3.8,3.5-3.6,5.5v11.5c-0.2,2,1,4,3.6,5.5l39.6,23c5.5,2.8,12.1,2.8,17.6,0l38.9-22.4c2.4-1.4,3.6-3.2,3.6-5.1
			L248.3,146.8L248.3,146.8z"/>
		
			<linearGradient id="SVGID_43_" gradientUnits="userSpaceOnUse" x1="4981.8525" y1="-811.908" x2="5021.4028" y2="-777.418" gradientTransform="matrix(-1 0 0 -1 5174.1201 -632.2828)">
			<stop  offset="0" style="stop-color:#0070E6"/>
			<stop  offset="1" style="stop-color:#00152B"/>
		</linearGradient>
		<path class="st46" d="M141.6,152.7V132c0.2,1.8,1.4,3.6,3.8,5l42.1,24.5c2.9,1.5,6.1,2.3,9.4,2.2v21.5c-3.3,0.1-6.5-0.7-9.4-2.2
			l-42.1-24.5C142.7,156.9,141.5,154.8,141.6,152.7z"/>
		
			<linearGradient id="SVGID_44_" gradientUnits="userSpaceOnUse" x1="4970.2686" y1="-834.0421" x2="4932.8887" y2="-756.3921" gradientTransform="matrix(-1 0 0 -1 5174.1201 -632.2828)">
			<stop  offset="0" style="stop-color:#0070E6"/>
			<stop  offset="1" style="stop-color:#00152B"/>
		</linearGradient>
		<path class="st47" d="M206.4,161.6l41.4-23.9c2.6-1.5,3.9-3.4,3.9-5.4l0,0v21.5c0,2-1.3,3.9-3.9,5.4l-41.4,23.9
			c-2.9,1.5-6.1,2.3-9.4,2.2v-21.6C200.2,163.8,203.5,163.1,206.4,161.6z"/>
		
			<linearGradient id="SVGID_45_" gradientUnits="userSpaceOnUse" x1="4985.9502" y1="-756.7564" x2="4943.3301" y2="-794.4964" gradientTransform="matrix(-1 0 0 -1 5174.1201 -632.2828)">
			<stop  offset="0" style="stop-color:#0070E6"/>
			<stop  offset="1" style="stop-color:#A5C5FF"/>
		</linearGradient>
		<path class="st48" d="M186.9,102.3c5.2-3,13.6-3,18.8,0l42.1,24.5c5.2,3,5.2,7.9,0,10.8l-41.4,23.9c-5.2,3-13.6,3-18.8,0
			l-42.1-24.5c-5.1-3-5.1-7.9,0-10.8L186.9,102.3z"/>
		<path class="st12" d="M197,161.6c2.9,0.1,5.7-0.6,8.3-1.9l41.4-23.9c1.8-1,2.8-2.3,2.8-3.5s-1-2.5-2.8-3.4l-42.1-24.5
			c-5.2-2.6-11.3-2.6-16.5,0l-41.4,23.9c-1.8,1-2.7,2.3-2.7,3.5s1,2.4,2.7,3.5l42.1,24.5C191.3,161,194.1,161.6,197,161.6z"/>
		
			<linearGradient id="SVGID_46_" gradientUnits="userSpaceOnUse" x1="4944.5581" y1="-805.4124" x2="5034.2285" y2="-680.6924" gradientTransform="matrix(-1 0 0 -1 5172.5801 -632.2828)">
			<stop  offset="0" style="stop-color:#0070E6"/>
			<stop  offset="1" style="stop-color:#A5C5FF"/>
		</linearGradient>
		<path class="st49" d="M187.6,167.4c5.2,3,13.6,3,18.8,0l41.4-23.9c2.6-1.5,3.9-3.4,3.9-5.4l0,0v11.1c0,2-1.3,3.9-3.9,5.4
			l-41.4,23.9c-5.2,3-13.6,3-18.8,0l-7.6-4.4V163L187.6,167.4z"/>
		
			<linearGradient id="SVGID_47_" gradientUnits="userSpaceOnUse" x1="2274.3701" y1="-796.1192" x2="2310.0901" y2="-796.1192" gradientTransform="matrix(1 0 0 -1 -2069.8501 -632.2828)">
			<stop  offset="0" style="stop-color:#FA0171"/>
			<stop  offset="1" style="stop-color:#FF90BD"/>
		</linearGradient>
		<path class="st50" d="M205.2,172.6l34.4-19.9c0.4-0.2,0.7,0,0.7,0.5v0.6c0,0.5-0.3,1-0.7,1.3L205.2,175c-0.4,0.2-0.7,0-0.7-0.5
			v-0.6C204.5,173.4,204.8,172.9,205.2,172.6z"/>
		
			<linearGradient id="SVGID_48_" gradientUnits="userSpaceOnUse" x1="2312.25" y1="-784.1464" x2="2313.9902" y2="-784.1464" gradientTransform="matrix(1 0 0 -1 -2069.8501 -632.2828)">
			<stop  offset="0" style="stop-color:#FA0171"/>
			<stop  offset="1" style="stop-color:#FF90BD"/>
		</linearGradient>
		<path class="st51" d="M243.3,150.7c0.5-0.3,0.9,0,0.9,0.7c0,0.7-0.3,1.3-0.9,1.7c-0.5,0.3-0.9,0-0.9-0.7
			C242.4,151.7,242.7,151.1,243.3,150.7z"/>
		
			<linearGradient id="SVGID_49_" gradientUnits="userSpaceOnUse" x1="2314.77" y1="-782.6837" x2="2316.53" y2="-782.6837" gradientTransform="matrix(1 0 0 -1 -2069.8501 -632.2828)">
			<stop  offset="0" style="stop-color:#FA0171"/>
			<stop  offset="1" style="stop-color:#FF90BD"/>
		</linearGradient>
		<path class="st52" d="M245.8,149.2c0.5-0.3,0.9,0,0.9,0.7c0,0.7-0.3,1.3-0.9,1.7c-0.5,0.3-0.9,0-0.9-0.7
			C244.9,150.2,245.3,149.6,245.8,149.2z"/>
		<path class="st8" d="M248.3,117.5c0-1.8-1.2-3.7-3.6-5.1l-39.6-23c-4.9-2.8-12.8-2.8-17.6,0l-38.9,22.4c-2.6,1.5-3.8,3.5-3.6,5.5
			v11.5c-0.2,2,1,4,3.6,5.5l39.6,23c5.6,2.8,12.1,2.8,17.6,0l38.9-22.4c2.4-1.4,3.6-3.2,3.6-5.1L248.3,117.5L248.3,117.5z"/>
		
			<linearGradient id="SVGID_50_" gradientUnits="userSpaceOnUse" x1="4981.855" y1="-782.0806" x2="5021.4053" y2="-747.5806" gradientTransform="matrix(-1 0 0 -1 5174.1201 -632.2828)">
			<stop  offset="0" style="stop-color:#0070E6"/>
			<stop  offset="1" style="stop-color:#00152B"/>
		</linearGradient>
		<path class="st53" d="M141.6,122.9v-20.7c0.2,1.8,1.4,3.6,3.8,5l42.1,24.5c2.9,1.5,6.1,2.3,9.4,2.2v21.5c-3.3,0.1-6.5-0.7-9.4-2.2
			l-42.1-24.5C142.7,127.1,141.5,125,141.6,122.9z"/>
		
			<linearGradient id="SVGID_51_" gradientUnits="userSpaceOnUse" x1="4970.2573" y1="-804.2075" x2="4932.8774" y2="-726.5575" gradientTransform="matrix(-1 0 0 -1 5174.1201 -632.2828)">
			<stop  offset="0" style="stop-color:#0070E6"/>
			<stop  offset="1" style="stop-color:#00152B"/>
		</linearGradient>
		<path class="st54" d="M206.4,131.8l41.4-23.9c2.6-1.5,3.9-3.4,3.9-5.4l0,0v21.4c0,2-1.3,3.9-3.9,5.4l-41.4,23.9
			c-2.9,1.5-6.1,2.3-9.4,2.2V134C200.2,134.1,203.5,133.3,206.4,131.8z"/>
		
			<linearGradient id="SVGID_52_" gradientUnits="userSpaceOnUse" x1="4985.9551" y1="-726.922" x2="4943.335" y2="-764.662" gradientTransform="matrix(-1 0 0 -1 5174.1201 -632.2828)">
			<stop  offset="0" style="stop-color:#0070E6"/>
			<stop  offset="1" style="stop-color:#A5C5FF"/>
		</linearGradient>
		<path class="st55" d="M186.9,72.5c5.2-3,13.6-3,18.8,0L247.7,97c5.2,3,5.2,7.9,0,10.8l-41.4,23.9c-5.2,3-13.6,3-18.8,0l-42.1-24.5
			c-5.1-3-5.1-7.9,0-10.8L186.9,72.5z"/>
		<path class="st12" d="M197,131.8c2.9,0.1,5.7-0.6,8.3-1.9l41.4-23.9c1.8-1,2.8-2.3,2.8-3.5s-1-2.4-2.8-3.4l-42.1-24.5
			c-5.2-2.6-11.3-2.6-16.5,0l-41.4,23.9c-1.8,1-2.7,2.3-2.7,3.5s1,2.4,2.7,3.5l42.1,24.5C191.3,131.2,194.1,131.8,197,131.8z"/>
		
			<linearGradient id="SVGID_53_" gradientUnits="userSpaceOnUse" x1="4944.5518" y1="-775.5677" x2="5034.2222" y2="-650.8378" gradientTransform="matrix(-1 0 0 -1 5172.5801 -632.2828)">
			<stop  offset="0" style="stop-color:#0070E6"/>
			<stop  offset="1" style="stop-color:#A5C5FF"/>
		</linearGradient>
		<path class="st56" d="M187.6,137.6c5.2,3,13.6,3,18.8,0l41.4-23.9c2.6-1.5,3.9-3.4,3.9-5.4l0,0v11c0,2-1.3,3.9-3.9,5.4l-41.4,23.9
			c-5.2,3-13.6,3-18.8,0l-7.6-4.4v-11.1L187.6,137.6z"/>
		<path class="st8" d="M205.2,142.8l34.4-19.9c0.4-0.2,0.7,0,0.7,0.5v0.6c0,0.5-0.3,1-0.7,1.3l-34.4,19.9c-0.4,0.2-0.7,0-0.7-0.5
			v-0.6C204.5,143.5,204.8,143.1,205.2,142.8z"/>
		<path class="st8" d="M243.3,120.9c0.5-0.3,0.9,0,0.9,0.7c0,0.7-0.3,1.3-0.9,1.7c-0.5,0.3-0.9,0-0.9-0.7
			C242.4,121.9,242.7,121.2,243.3,120.9z"/>
		<path class="st8" d="M245.8,119.4c0.5-0.3,0.9,0,0.9,0.7c0,0.7-0.3,1.3-0.9,1.7c-0.5,0.3-0.9,0-0.9-0.7
			C244.9,120.4,245.3,119.8,245.8,119.4z"/>
		
			<linearGradient id="SVGID_54_" gradientUnits="userSpaceOnUse" x1="1858.8517" y1="-649.4858" x2="1880.3717" y2="-720.5559" gradientTransform="matrix(-1 0 0 -1 2073.74 -632.2828)">
			<stop  offset="0" style="stop-color:#0070E6"/>
			<stop  offset="1" style="stop-color:#00152B"/>
		</linearGradient>
		<path class="st57" d="M176,98.7v-61c0-4.1,2.5-8.9,5.6-10.6l45.7-26.4c1.2-0.9,2.8-0.9,3.9-0.1l3.9,2.3c-0.7,0.6-1.5,1-2.4,1.2
			c0,0.2,0.1,0.5,0.1,0.8v61c0,4.1-2.5,8.9-5.6,10.6l-45.1,26l0.2,3.2l-4.4-2.5l0,0C176.8,102.5,176,101,176,98.7z"/>
		
			<linearGradient id="SVGID_55_" gradientUnits="userSpaceOnUse" x1="1860.7003" y1="-692.7266" x2="1875.0404" y2="-671.5366" gradientTransform="matrix(-1 0 0 -1 2073.74 -632.2828)">
			<stop  offset="0" style="stop-color:#0070E6"/>
			<stop  offset="1" style="stop-color:#A5C5FF"/>
		</linearGradient>
		<path class="st58" d="M186.1,29.8l45.7-26.4c3.1-1.8,5.6,0.1,5.6,4.2v61c0,4.1-2.5,8.9-5.6,10.7l-45.7,26.4
			c-3.1,1.8-5.6-0.1-5.6-4.2v-61C180.5,36.3,183,31.5,186.1,29.8z"/>
		
			<linearGradient id="SVGID_56_" gradientUnits="userSpaceOnUse" x1="1889.9813" y1="-662.2381" x2="1844.3413" y2="-706.5681" gradientTransform="matrix(-1 0 0 -1 2073.74 -632.2828)">
			<stop  offset="0" style="stop-color:#0070E6"/>
			<stop  offset="1" style="stop-color:#A5C5FF"/>
		</linearGradient>
		<path class="st59" d="M183.9,104.6c-1.3,0-1.8-1.8-1.8-3.2v-61c0-3.5,2.2-7.7,4.8-9.2l45.7-26.4c0.4-0.3,0.9-0.4,1.4-0.4
			c0.3,0,0.7,0.1,0.9,0.4c0.6,0.8,0.9,1.8,0.8,2.9v61c0,3.5-2.2,7.7-4.8,9.2l-45.7,26.4C184.9,104.4,184.4,104.6,183.9,104.6z"/>
		<path class="st33" d="M216.2,51.5c-3.4-2.5-8.8,0.6-12.2,7s-3.4,13.7,0,16.2c2.9,2.2,7.5,0.1,10.9-4.8l6.1,4.6l2.4-4.6l-6.1-4.6
			C219.5,59.6,219.1,53.8,216.2,51.5z M214.1,66.2c-2.2,4.2-5.8,6.3-8,4.6s-2.2-6.5,0-10.7s5.8-6.3,8-4.6S216.3,61.9,214.1,66.2z"/>
		<path class="st33" d="M228.8,46.2c-1.2-7-5-11.3-10.1-11.9l8.8-5.1c0.3,0.7,1.1,0.9,1.8,0.6c0.1,0,0.2-0.1,0.2-0.1
			c1.4-1,2.3-2.6,2.3-4.4c0-1.7-1-2.5-2.3-1.7c-1,0.7-1.7,1.6-2,2.7l-13.7,7.9v-4l-8.2,4.8v4l-13.6,7.8c-0.3-0.6-1.1-0.9-1.8-0.6
			c-0.1,0-0.2,0.1-0.2,0.1c-1.4,1-2.3,2.6-2.3,4.4c0,1.7,1,2.5,2.3,1.7c1-0.7,1.7-1.6,2-2.7l8.7-5c-5.3,6.9-8.8,15-10.1,23.6l-3.5,2
			v11l8.2-4.8v-11l-2.5,1.5c1.5-9.3,6.5-18.7,12.8-24.4v3.4l8.2-4.8v-3.4c6.3-1.6,11.3,2.1,12.8,9.7l-2.5,1.5v11l8.2-4.8v-11
			L228.8,46.2z M193.1,74.9l-3.9,2.2v-5.2l3.9-2.2V74.9z M211.6,39.5l-3.9,2.2v-5.2l3.9-2.2V39.5z M230.1,53.5l-3.9,2.2v-5.2
			l3.9-2.2V53.5z"/>
		
			<linearGradient id="SVGID_57_" gradientUnits="userSpaceOnUse" x1="2288.9299" y1="-970.6551" x2="2370.3899" y2="-970.6551" gradientTransform="matrix(1 0 0 -1 -2069.8501 -632.2828)">
			<stop  offset="0" style="stop-color:#0070E6"/>
			<stop  offset="1" style="stop-color:#A5C5FF"/>
		</linearGradient>
		<path class="st60" d="M257.7,312.8c4.5-2.6,11.8-2.6,16.2,0l36.4,21.2c4.5,2.6,4.5,6.8,0,9.4L274.5,364c-4.5,2.6-11.8,2.6-16.2,0
			l-36.4-21.2c-4.5-2.6-4.5-6.8,0-9.4L257.7,312.8z"/>
		
			<linearGradient id="SVGID_58_" gradientUnits="userSpaceOnUse" x1="2279.3701" y1="-946.9601" x2="2367.3201" y2="-946.9601" gradientTransform="matrix(1 0 0 -1 -2069.8501 -632.2828)">
			<stop  offset="0" style="stop-color:#0070E6"/>
			<stop  offset="1" style="stop-color:#00152B"/>
		</linearGradient>
		<path class="st61" d="M309.5,293.6c0-1.6-1-3.1-3.1-4.3L273.2,270c-4.7-2.3-10.1-2.3-14.8,0l-32.6,18.8c-2.2,1.3-3.2,2.9-3,4.6v42
			c-0.1,1.7,0.9,3.3,3,4.6l33.2,19.3c4.7,2.3,10.1,2.3,14.8,0l32.6-18.8c2-1.2,3.1-2.7,3.1-4.3V293.6L309.5,293.6z"/>
		
			<linearGradient id="SVGID_59_" gradientUnits="userSpaceOnUse" x1="2335.9648" y1="-986.9664" x2="2335.9648" y2="-915.4364" gradientTransform="matrix(1 0 0 -1 -2069.8501 -632.2828)">
			<stop  offset="0" style="stop-color:#0070E6"/>
			<stop  offset="1" style="stop-color:#00152B"/>
		</linearGradient>
		<path class="st62" d="M309.5,281.1c0-1.6-1-3.1-3.1-4.3l-33.2-19.3c-4.7-2.3-10.1-2.3-14.8,0l-32.6,18.8c-2.2,1.3-3.2,2.9-3,4.6
			v42c-0.1,1.7,0.9,3.3,3,4.6l33.2,19.3c4.7,2.3,10.1,2.3,14.8,0l32.6-18.8c2-1.2,3.1-2.7,3.1-4.3V281.1L309.5,281.1z"/>
		
			<linearGradient id="SVGID_60_" gradientUnits="userSpaceOnUse" x1="2340.9309" y1="-941.6276" x2="2267.9209" y2="-943.6376" gradientTransform="matrix(1 0 0 -1 -2069.8501 -632.2828)">
			<stop  offset="0" style="stop-color:#FA0171"/>
			<stop  offset="1" style="stop-color:#FF90BD"/>
		</linearGradient>
		<path class="st63" d="M317.8,303.6c0-1.8-1.2-3.7-3.6-5.1l-39.6-23c-4.9-2.8-12.8-2.8-17.6,0L218.1,298c-2.6,1.5-3.8,3.5-3.6,5.5
			V315c-0.2,2,1,4,3.6,5.5l39.6,23c5.5,2.8,12.1,2.8,17.6,0l38.9-22.4c2.4-1.4,3.6-3.3,3.6-5.1L317.8,303.6L317.8,303.6z"/>
		
			<linearGradient id="SVGID_61_" gradientUnits="userSpaceOnUse" x1="4912.3623" y1="-968.216" x2="4951.9126" y2="-933.726" gradientTransform="matrix(-1 0 0 -1 5174.1201 -632.2828)">
			<stop  offset="0" style="stop-color:#0070E6"/>
			<stop  offset="1" style="stop-color:#00152B"/>
		</linearGradient>
		<path class="st64" d="M211.1,309v-20.7c0.2,1.8,1.4,3.6,3.8,5l42.1,24.5c2.9,1.5,6.1,2.3,9.4,2.2v21.5c-3.3,0.1-6.5-0.7-9.4-2.2
			L215,314.8C212.2,313.2,210.9,311.1,211.1,309z"/>
		
			<linearGradient id="SVGID_62_" gradientUnits="userSpaceOnUse" x1="4900.7847" y1="-990.364" x2="4863.4048" y2="-912.7141" gradientTransform="matrix(-1 0 0 -1 5174.1201 -632.2828)">
			<stop  offset="0" style="stop-color:#0070E6"/>
			<stop  offset="1" style="stop-color:#00152B"/>
		</linearGradient>
		<path class="st65" d="M275.9,317.9l41.4-23.9c2.6-1.5,3.9-3.4,3.9-5.4l0,0V310c0,2-1.3,3.9-3.9,5.4l-41.4,23.9
			c-2.9,1.5-6.1,2.3-9.4,2.2v-21.5C269.7,320.2,273,319.4,275.9,317.9z"/>
		
			<linearGradient id="SVGID_63_" gradientUnits="userSpaceOnUse" x1="4916.4717" y1="-913.0683" x2="4873.8516" y2="-950.8183" gradientTransform="matrix(-1 0 0 -1 5174.1201 -632.2828)">
			<stop  offset="0" style="stop-color:#0070E6"/>
			<stop  offset="1" style="stop-color:#A5C5FF"/>
		</linearGradient>
		<path class="st66" d="M256.3,258.6c5.2-3,13.6-3,18.8,0l42.1,24.5c5.2,3,5.2,7.8,0,10.8l-41.4,23.9c-5.2,3-13.6,3-18.8,0
			L215,293.4c-5.2-3-5.2-7.9,0-10.8L256.3,258.6z"/>
		<path class="st12" d="M266.5,317.9c2.9,0.1,5.7-0.6,8.2-1.9l41.4-23.9c1.8-1,2.8-2.3,2.8-3.5s-1-2.5-2.8-3.5L274,260.6
			c-5.2-2.6-11.3-2.6-16.5,0l-41.3,23.9c-1.7,1-2.7,2.3-2.7,3.5s1,2.4,2.7,3.5l42.1,24.5C260.8,317.3,263.6,317.9,266.5,317.9z"/>
		
			<linearGradient id="SVGID_64_" gradientUnits="userSpaceOnUse" x1="4875.0767" y1="-961.7384" x2="4964.7568" y2="-836.9983" gradientTransform="matrix(-1 0 0 -1 5172.5801 -632.2828)">
			<stop  offset="0" style="stop-color:#0070E6"/>
			<stop  offset="1" style="stop-color:#A5C5FF"/>
		</linearGradient>
		<path class="st67" d="M257.1,323.8c5.2,3,13.6,3,18.8,0l41.4-23.9c2.6-1.5,3.9-3.4,3.9-5.4l0,0v11c0,2-1.3,3.9-3.9,5.4l-41.4,23.9
			c-5.2,3-13.6,3-18.8,0l-7.6-4.4v-11.1L257.1,323.8z"/>
		
			<linearGradient id="SVGID_65_" gradientUnits="userSpaceOnUse" x1="4858.5337" y1="-938.7306" x2="4885.4634" y2="-955.3606" gradientTransform="matrix(-1 0 0 -1 5172.5801 -632.2828)">
			<stop  offset="0" style="stop-color:#FA0171"/>
			<stop  offset="1" style="stop-color:#FF90BD"/>
		</linearGradient>
		<path class="st68" d="M274.7,328.9L309,309c0.4-0.2,0.7,0,0.7,0.5v0.6c0,0.5-0.3,1-0.7,1.3l-34.4,19.9c-0.4,0.2-0.7,0-0.7-0.5
			v-0.6C274,329.7,274.3,329.2,274.7,328.9z"/>
		
			<linearGradient id="SVGID_66_" gradientUnits="userSpaceOnUse" x1="4858.1206" y1="-939.4056" x2="4885.0303" y2="-956.0256" gradientTransform="matrix(-1 0 0 -1 5172.5801 -632.2828)">
			<stop  offset="0" style="stop-color:#FA0171"/>
			<stop  offset="1" style="stop-color:#FF90BD"/>
		</linearGradient>
		<path class="st69" d="M312.8,307c0.5-0.3,0.9,0,0.9,0.7c0,0.7-0.3,1.3-0.9,1.7c-0.5,0.3-0.9,0-0.9-0.7
			C311.9,308,312.2,307.4,312.8,307z"/>
		
			<linearGradient id="SVGID_67_" gradientUnits="userSpaceOnUse" x1="4858.0718" y1="-939.4838" x2="4885.0112" y2="-956.1138" gradientTransform="matrix(-1 0 0 -1 5172.5801 -632.2828)">
			<stop  offset="0" style="stop-color:#FA0171"/>
			<stop  offset="1" style="stop-color:#FF90BD"/>
		</linearGradient>
		<path class="st70" d="M315.3,305.6c0.5-0.3,0.9,0,0.9,0.7c0,0.7-0.3,1.3-0.9,1.7c-0.5,0.3-0.9,0-0.9-0.7
			C314.4,306.6,314.7,305.9,315.3,305.6z"/>
		<path class="st8" d="M317.8,274.4c0-1.8-1.2-3.7-3.6-5.1l-39.6-23c-4.9-2.8-12.8-2.8-17.6,0l-38.9,22.5c-2.6,1.5-3.8,3.5-3.6,5.5
			v11.5c-0.2,2,1,4,3.6,5.5l39.6,23.1c5.6,2.8,12.1,2.8,17.6,0l38.9-22.4c2.4-1.4,3.6-3.2,3.6-5.1L317.8,274.4L317.8,274.4z"/>
		
			<linearGradient id="SVGID_68_" gradientUnits="userSpaceOnUse" x1="4912.3657" y1="-939.4901" x2="4951.916" y2="-905.0001" gradientTransform="matrix(-1 0 0 -1 5174.1201 -632.2828)">
			<stop  offset="0" style="stop-color:#0070E6"/>
			<stop  offset="1" style="stop-color:#00152B"/>
		</linearGradient>
		<path class="st71" d="M211.1,280.3v-20.7c0.2,1.8,1.4,3.6,3.8,5l42.1,24.5c2.9,1.5,6.1,2.3,9.4,2.2v21.5c-3.3,0.1-6.5-0.7-9.4-2.2
			L215,286.1C212.2,284.5,210.9,282.4,211.1,280.3z"/>
		
			<linearGradient id="SVGID_69_" gradientUnits="userSpaceOnUse" x1="4900.7827" y1="-961.635" x2="4863.4028" y2="-883.985" gradientTransform="matrix(-1 0 0 -1 5174.1201 -632.2828)">
			<stop  offset="0" style="stop-color:#0070E6"/>
			<stop  offset="1" style="stop-color:#00152B"/>
		</linearGradient>
		<path class="st72" d="M275.9,289.2l41.4-23.9c2.6-1.5,3.9-3.4,3.9-5.4l0,0v21.4c0,2-1.3,3.9-3.9,5.4l-41.4,23.9
			c-2.9,1.5-6.1,2.3-9.4,2.2v-21.5C269.7,291.5,273,290.7,275.9,289.2z"/>
		
			<linearGradient id="SVGID_70_" gradientUnits="userSpaceOnUse" x1="4916.4678" y1="-884.3439" x2="4873.8477" y2="-922.0839" gradientTransform="matrix(-1 0 0 -1 5174.1201 -632.2828)">
			<stop  offset="0" style="stop-color:#0070E6"/>
			<stop  offset="1" style="stop-color:#A5C5FF"/>
		</linearGradient>
		<path class="st73" d="M256.3,229.9c5.2-3,13.6-3,18.8,0l42.1,24.5c5.2,3,5.2,7.9,0,10.8l-41.4,23.9c-5.2,3-13.6,3-18.8,0
			L215,264.6c-5.2-3-5.2-7.9,0-10.8L256.3,229.9z"/>
		<path class="st12" d="M266.5,289.1c2.9,0.1,5.7-0.6,8.2-1.9l41.4-23.9c1.8-1,2.8-2.3,2.8-3.5s-1-2.4-2.8-3.4L274,231.9
			c-5.2-2.6-11.3-2.6-16.5,0l-41.3,23.9c-1.7,1-2.7,2.3-2.7,3.5s1,2.4,2.7,3.5l42.1,24.5C260.8,288.5,263.6,289.2,266.5,289.1z"/>
		
			<linearGradient id="SVGID_71_" gradientUnits="userSpaceOnUse" x1="4875.0679" y1="-932.9948" x2="4964.7383" y2="-808.2748" gradientTransform="matrix(-1 0 0 -1 5172.5801 -632.2828)">
			<stop  offset="0" style="stop-color:#0070E6"/>
			<stop  offset="1" style="stop-color:#A5C5FF"/>
		</linearGradient>
		<path class="st74" d="M257.1,295c5.2,3,13.6,3,18.8,0l41.4-23.9c2.6-1.5,3.9-3.4,3.9-5.4l0,0v11c0,2-1.3,3.9-3.9,5.4l-41.4,23.9
			c-5.2,3-13.6,3-18.8,0l-7.6-4.4v-11.1L257.1,295z"/>
		<path class="st8" d="M274.7,300.2l34.4-19.9c0.4-0.2,0.7,0,0.7,0.5v0.6c0,0.5-0.3,1-0.7,1.3l-34.4,19.9c-0.4,0.2-0.7,0-0.7-0.5
			v-0.6C274,301,274.3,300.5,274.7,300.2z"/>
		<path class="st8" d="M312.8,278.3c0.5-0.3,0.9,0,0.9,0.7c0,0.7-0.3,1.3-0.9,1.7c-0.5,0.3-0.9,0-0.9-0.7
			C311.9,279.3,312.2,278.7,312.8,278.3z"/>
		<path class="st8" d="M315.3,276.8c0.5-0.3,0.9,0,0.9,0.7c0,0.7-0.3,1.3-0.9,1.7c-0.5,0.3-0.9,0-0.9-0.7
			C314.4,277.8,314.7,277.2,315.3,276.8z"/>
		
			<linearGradient id="SVGID_72_" gradientUnits="userSpaceOnUse" x1="2344.72" y1="-883.1811" x2="2295.48" y2="-883.1811" gradientTransform="matrix(1 0 0 -1 -2069.8501 -632.2828)">
			<stop  offset="0" style="stop-color:#38D611"/>
			<stop  offset="1" style="stop-color:#BCF0A7"/>
		</linearGradient>
		<path class="st75" d="M317.8,245.1c0-1.8-1.2-3.7-3.6-5.1l-39.6-23c-4.9-2.8-12.8-2.8-17.6,0l-38.9,22.4c-2.6,1.5-3.8,3.5-3.6,5.5
			v11.5c-0.2,2,1,4,3.6,5.5l39.6,23c5.6,2.8,12.1,2.8,17.6,0l38.9-22.4c2.4-1.4,3.6-3.2,3.6-5.1L317.8,245.1L317.8,245.1z"/>
		
			<linearGradient id="SVGID_73_" gradientUnits="userSpaceOnUse" x1="4912.3545" y1="-909.6475" x2="4951.9048" y2="-875.1575" gradientTransform="matrix(-1 0 0 -1 5174.1201 -632.2828)">
			<stop  offset="0" style="stop-color:#0070E6"/>
			<stop  offset="1" style="stop-color:#00152B"/>
		</linearGradient>
		<path class="st76" d="M211.1,250.5v-20.7c0.2,1.8,1.4,3.6,3.8,5l42.1,24.5c2.9,1.5,6.1,2.3,9.4,2.2V283c-3.3,0.1-6.5-0.7-9.4-2.2
			L215,256.2C212.2,254.7,210.9,252.5,211.1,250.5z"/>
		
			<linearGradient id="SVGID_74_" gradientUnits="userSpaceOnUse" x1="4900.7769" y1="-931.7979" x2="4863.397" y2="-854.1478" gradientTransform="matrix(-1 0 0 -1 5174.1201 -632.2828)">
			<stop  offset="0" style="stop-color:#0070E6"/>
			<stop  offset="1" style="stop-color:#00152B"/>
		</linearGradient>
		<path class="st77" d="M275.9,259.3l41.4-23.9c2.6-1.5,3.9-3.4,3.9-5.4l0,0v21.4c0,2-1.3,3.9-3.9,5.4l-41.4,23.9
			c-2.9,1.5-6.1,2.3-9.4,2.2v-21.4C269.7,261.6,273,260.9,275.9,259.3z"/>
		
			<linearGradient id="SVGID_75_" gradientUnits="userSpaceOnUse" x1="4916.458" y1="-854.4926" x2="4873.8379" y2="-892.2326" gradientTransform="matrix(-1 0 0 -1 5174.1201 -632.2828)">
			<stop  offset="0" style="stop-color:#0070E6"/>
			<stop  offset="1" style="stop-color:#A5C5FF"/>
		</linearGradient>
		<path class="st78" d="M256.3,200.1c5.2-3,13.6-3,18.8,0l42.1,24.5c5.2,3,5.2,7.9,0,10.8l-41.4,23.9c-5.2,3-13.6,3-18.8,0
			L215,234.8c-5.2-3-5.2-7.9,0-10.8L256.3,200.1z"/>
		<path class="st12" d="M266.5,259.3c2.9,0.1,5.7-0.6,8.2-1.9l41.4-23.9c1.8-1,2.8-2.3,2.8-3.5s-1-2.5-2.8-3.5L274,202
			c-5.2-2.6-11.3-2.6-16.5,0l-41.3,23.9c-1.7,1-2.7,2.3-2.7,3.5s1,2.4,2.7,3.4l42.1,24.5C260.8,258.7,263.6,259.4,266.5,259.3z"/>
		
			<linearGradient id="SVGID_76_" gradientUnits="userSpaceOnUse" x1="4875.0713" y1="-903.1745" x2="4964.7515" y2="-778.4445" gradientTransform="matrix(-1 0 0 -1 5172.5801 -632.2828)">
			<stop  offset="0" style="stop-color:#0070E6"/>
			<stop  offset="1" style="stop-color:#A5C5FF"/>
		</linearGradient>
		<path class="st79" d="M257.1,265.2c5.2,3,13.6,3,18.8,0l41.4-23.9c2.6-1.5,3.9-3.4,3.9-5.4l0,0V247c0,2-1.3,3.9-3.9,5.4
			l-41.4,23.9c-5.2,3-13.6,3-18.8,0l-7.6-4.4v-11.1L257.1,265.2z"/>
		
			<linearGradient id="SVGID_77_" gradientUnits="userSpaceOnUse" x1="4858.5337" y1="-880.1705" x2="4885.4634" y2="-896.8005" gradientTransform="matrix(-1 0 0 -1 5172.5801 -632.2828)">
			<stop  offset="0" style="stop-color:#38D611"/>
			<stop  offset="1" style="stop-color:#BCF0A7"/>
		</linearGradient>
		<path class="st80" d="M274.7,270.3l34.4-19.9c0.4-0.2,0.7,0,0.7,0.5v0.6c0,0.5-0.3,1-0.7,1.3l-34.4,19.9c-0.4,0.2-0.7,0-0.7-0.5
			v-0.6C274,271.1,274.3,270.6,274.7,270.3z"/>
		
			<linearGradient id="SVGID_78_" gradientUnits="userSpaceOnUse" x1="4858.1206" y1="-880.8456" x2="4885.0303" y2="-897.4656" gradientTransform="matrix(-1 0 0 -1 5172.5801 -632.2828)">
			<stop  offset="0" style="stop-color:#38D611"/>
			<stop  offset="1" style="stop-color:#BCF0A7"/>
		</linearGradient>
		<path class="st81" d="M312.8,248.5c0.5-0.3,0.9,0,0.9,0.7c0,0.7-0.3,1.3-0.9,1.7c-0.5,0.3-0.9,0-0.9-0.7
			C311.9,249.5,312.2,248.8,312.8,248.5z"/>
		
			<linearGradient id="SVGID_79_" gradientUnits="userSpaceOnUse" x1="4858.0693" y1="-880.9175" x2="4884.9995" y2="-897.5475" gradientTransform="matrix(-1 0 0 -1 5172.5801 -632.2828)">
			<stop  offset="0" style="stop-color:#38D611"/>
			<stop  offset="1" style="stop-color:#BCF0A7"/>
		</linearGradient>
		<path class="st82" d="M315.3,247c0.5-0.3,0.9,0,0.9,0.7c0,0.7-0.3,1.3-0.9,1.7c-0.5,0.3-0.9,0-0.9-0.7
			C314.4,248,314.7,247.4,315.3,247z"/>
		
			<linearGradient id="SVGID_80_" gradientUnits="userSpaceOnUse" x1="1789.3525" y1="-777.0817" x2="1810.8726" y2="-848.1517" gradientTransform="matrix(-1 0 0 -1 2073.74 -632.2828)">
			<stop  offset="0" style="stop-color:#0070E6"/>
			<stop  offset="1" style="stop-color:#00152B"/>
		</linearGradient>
		<path class="st83" d="M245.5,226.3v-61c0-4.1,2.5-8.9,5.6-10.6l45.7-26.4c1.6-0.9,2.9-0.8,4-0.1l3.9,2.3c-0.7,0.6-1.5,1-2.4,1.2
			c0,0.2,0.1,0.5,0.1,0.8v61c0,4.1-2.5,8.9-5.6,10.7l-45.1,26l0.2,3.2l-4.4-2.5l0,0C246.3,230.1,245.5,228.6,245.5,226.3z"/>
		
			<linearGradient id="SVGID_81_" gradientUnits="userSpaceOnUse" x1="1791.2205" y1="-820.3335" x2="1805.5704" y2="-799.1334" gradientTransform="matrix(-1 0 0 -1 2073.74 -632.2828)">
			<stop  offset="0" style="stop-color:#0070E6"/>
			<stop  offset="1" style="stop-color:#A5C5FF"/>
		</linearGradient>
		<path class="st84" d="M255.6,157.3l45.7-26.4c3.1-1.8,5.6,0.1,5.6,4.2v61c0,4.1-2.5,8.9-5.6,10.7l-45.7,26.4
			c-3.1,1.8-5.6-0.1-5.6-4.2v-61C250,163.9,252.5,159.1,255.6,157.3z"/>
		
			<linearGradient id="SVGID_82_" gradientUnits="userSpaceOnUse" x1="1820.4861" y1="-789.8124" x2="1774.8461" y2="-834.1523" gradientTransform="matrix(-1 0 0 -1 2073.74 -632.2828)">
			<stop  offset="0" style="stop-color:#0070E6"/>
			<stop  offset="1" style="stop-color:#A5C5FF"/>
		</linearGradient>
		<path class="st85" d="M253.4,232.2c-1.3,0-1.8-1.8-1.8-3.2v-61c0-3.5,2.2-7.7,4.8-9.2l45.7-26.4c0.4-0.3,0.9-0.4,1.4-0.4
			c0.3,0,0.7,0.1,0.9,0.4c0.6,0.8,0.9,1.8,0.8,2.9v61c0,3.5-2.2,7.7-4.8,9.2l-45.7,26.4C254.3,232,253.9,232.1,253.4,232.2z"/>
		<path class="st33" d="M285.7,179.1c-3.4-2.5-8.8,0.6-12.2,7s-3.4,13.7,0,16.2c3,2.2,7.5,0.1,10.9-4.8l6.1,4.6l2.4-4.6l-6.1-4.6
			C289,187.2,288.7,181.3,285.7,179.1z M283.6,193.8c-2.2,4.2-5.8,6.3-8,4.6s-2.2-6.4,0-10.7s5.8-6.3,8-4.6S285.8,189.5,283.6,193.8
			z"/>
		<path class="st33" d="M298.3,173.8c-1.2-7-5-11.3-10.1-11.9l8.8-5.1c0.3,0.7,1.1,0.9,1.8,0.6c0.1,0,0.2-0.1,0.2-0.1
			c1.4-1,2.3-2.6,2.3-4.4c0-1.7-1-2.5-2.3-1.7c-1,0.7-1.7,1.6-2,2.7l-13.7,7.9v-4l-8.2,4.8v4l-13.6,7.8c-0.3-0.6-1.1-0.9-1.8-0.6
			c-0.1,0-0.2,0.1-0.2,0.2c-1.4,1-2.3,2.6-2.3,4.4c0,1.7,1,2.5,2.3,1.7c1-0.7,1.7-1.6,2-2.7l8.7-5c-5.3,6.9-8.8,15-10.1,23.6l-3.5,2
			v11l8.2-4.8v-11l-2.5,1.5c1.5-9.3,6.5-18.8,12.8-24.4v3.4l8.2-4.8v-3.4c6.3-1.6,11.3,2.1,12.8,9.7l-2.5,1.5v11l8.2-4.8v-11
			L298.3,173.8z M262.5,202.5l-3.9,2.2v-5.2l3.9-2.2V202.5z M281,167.1l-3.9,2.2v-5.2l3.9-2.2V167.1z M299.5,181.1l-3.9,2.2v-5.2
			l3.9-2.2V181.1z"/>
	</g>
</g>
</svg>
