<?xml version="1.0" encoding="utf-8"?>
<!-- Generator: Adobe Illustrator 25.0.1, SVG Export Plug-In . SVG Version: 6.00 Build 0)  -->
<svg version="1.1" id="Layer_1" xmlns="http://www.w3.org/2000/svg" xmlns:xlink="http://www.w3.org/1999/xlink" x="0px" y="0px"
	 viewBox="0 0 556.3 373" style="enable-background:new 0 0 556.3 373;" xml:space="preserve">
<style type="text/css">
	.st0{fill:url(#SVGID_1_);stroke:#0070E6;stroke-width:20;stroke-miterlimit:10;}
	.st1{fill:url(#SVGID_2_);}
	.st2{fill:url(#SVGID_3_);}
	.st3{fill:url(#SVGID_4_);}
	.st4{fill:none;stroke:#38D611;stroke-width:3;stroke-linecap:round;stroke-linejoin:round;}
	.st5{fill:url(#SVGID_5_);}
	.st6{fill:url(#SVGID_6_);}
	.st7{opacity:0.6;fill:url(#SVGID_7_);enable-background:new    ;}
	.st8{fill:url(#SVGID_8_);}
	.st9{fill:url(#SVGID_9_);}
	.st10{fill:url(#SVGID_10_);}
	.st11{opacity:0.2;fill:#00152B;enable-background:new    ;}
	.st12{fill:url(#SVGID_11_);}
	.st13{fill:url(#SVGID_12_);}
	.st14{fill:url(#SVGID_13_);}
	.st15{fill:url(#SVGID_14_);}
	.st16{fill:url(#SVGID_15_);}
	.st17{fill:url(#SVGID_16_);}
	.st18{fill:url(#SVGID_17_);}
	.st19{fill:url(#SVGID_18_);}
	.st20{fill:url(#SVGID_19_);}
	.st21{fill:url(#SVGID_20_);}
	.st22{fill:url(#SVGID_21_);}
	.st23{fill:url(#SVGID_22_);}
	.st24{fill:url(#SVGID_23_);}
	.st25{fill:url(#SVGID_24_);}
	.st26{fill:url(#SVGID_25_);}
	.st27{fill:url(#SVGID_26_);}
	.st28{fill:url(#SVGID_27_);}
	.st29{fill:url(#SVGID_28_);}
	.st30{fill:url(#SVGID_29_);}
	.st31{fill:url(#SVGID_30_);}
	.st32{fill:url(#SVGID_31_);}
	.st33{fill:url(#SVGID_32_);}
	.st34{fill:url(#SVGID_33_);}
	.st35{fill:url(#SVGID_34_);}
	.st36{fill:url(#SVGID_35_);}
	.st37{fill:url(#SVGID_36_);}
	.st38{fill:url(#SVGID_37_);}
	.st39{fill:url(#SVGID_38_);}
</style>
<g>
	<g id="Layer_1_1_">
		
			<linearGradient id="SVGID_1_" gradientUnits="userSpaceOnUse" x1="1389.5701" y1="1528.2998" x2="1389.5701" y2="1662.4799" gradientTransform="matrix(1 0 0 1 -1110.67 -1405.1096)">
			<stop  offset="0" style="stop-color:#EFF7FF"/>
			<stop  offset="1" style="stop-color:#FFFFFF"/>
		</linearGradient>
		<path class="st0" d="M296.3,58.4c-9.6-5.5-25.3-5.5-35,0L26.2,194.1c-9.6,5.6-9.6,14.6,0,20.2l235.2,135.8c9.6,5.6,25.3,5.6,35,0
			l235.2-135.8c9.6-5.6,9.6-14.6,0-20.2L296.3,58.4z"/>
		
			<linearGradient id="SVGID_2_" gradientUnits="userSpaceOnUse" x1="1360.9" y1="1616.7596" x2="1484.51" y2="1616.7596" gradientTransform="matrix(1 0 0 1 -1110.67 -1405.1096)">
			<stop  offset="0" style="stop-color:#A5C5FF"/>
			<stop  offset="1" style="stop-color:#77A4F9"/>
		</linearGradient>
		<path class="st1" d="M538.6,203.1L538.6,203.1l0.1-21.1h-54L296.3,73.2c-9.6-5.6-25.3-5.6-35,0L72.9,182H19v21.1
			c-0.6,4,1.8,8.2,7.1,11.2l235.2,135.8c9.6,5.6,25.3,5.6,35,0l235.2-135.8C536.8,211.3,539.2,207.1,538.6,203.1z"/>
		
			<linearGradient id="SVGID_3_" gradientUnits="userSpaceOnUse" x1="1389.5701" y1="1505.6498" x2="1389.5701" y2="1639.8298" gradientTransform="matrix(1 0 0 1 -1110.67 -1405.1096)">
			<stop  offset="0" style="stop-color:#EFF7FF"/>
			<stop  offset="1" style="stop-color:#FFFFFF"/>
		</linearGradient>
		<path class="st2" d="M296.3,35.7c-9.6-5.6-25.3-5.6-35,0L26.2,171.5c-9.6,5.6-9.6,14.6,0,20.2l235.2,135.8c9.6,5.6,25.3,5.6,35,0
			l235.2-135.8c9.6-5.6,9.6-14.6,0-20.2L296.3,35.7z"/>
		
			<linearGradient id="SVGID_4_" gradientUnits="userSpaceOnUse" x1="1389.5701" y1="1510.6498" x2="1389.5701" y2="1435.9597" gradientTransform="matrix(1 0 0 1 -1110.67 -1405.1096)">
			<stop  offset="0" style="stop-color:#EFF7FF"/>
			<stop  offset="1" style="stop-color:#FFFFFF"/>
		</linearGradient>
		<path class="st3" d="M278.9,328.6c-6,0-11.8-1.4-16-3.8L27.7,189.1c-3.7-2.1-5.7-4.8-5.7-7.5s2-5.4,5.7-7.5L262.9,38.4
			c4.1-2.4,10-3.8,16-3.8s11.8,1.4,16,3.8l235.2,135.8c3.7,2.1,5.7,4.8,5.7,7.5s-2,5.4-5.7,7.5L294.9,324.9
			C290.7,327.3,284.9,328.6,278.9,328.6z"/>
		<path class="st4" d="M462.9,191.2l-82.3-47.5c-4.8-2.8-12.6-2.8-17.3,0l-141.2,81.5c-4.8,2.8-4.8,7.2,0,10l82.3,47.5"/>
		<line class="st4" x1="228.7" y1="146" x2="351.5" y2="216.9"/>
		
			<linearGradient id="SVGID_5_" gradientUnits="userSpaceOnUse" x1="1340.4504" y1="1557.8438" x2="1324.0204" y2="1486.6335" gradientTransform="matrix(1 0 0 1 -1110.67 -1405.1096)">
			<stop  offset="0" style="stop-color:#38D611"/>
			<stop  offset="1" style="stop-color:#1F8E00"/>
		</linearGradient>
		<path class="st5" d="M210.8,91.2c8.4-4.9,22.2-4.9,30.7,0l68.8,40.1c8.4,4.9,8.4,12.8,0,17.7l-67.6,39c-8.4,4.9-22.2,4.9-30.7,0
			l-68.8-40.1c-8.4-4.9-8.4-12.8,0-17.7L210.8,91.2z"/>
		
			<linearGradient id="SVGID_6_" gradientUnits="userSpaceOnUse" x1="1230.36" y1="1499.9097" x2="1396.6801" y2="1499.9097" gradientTransform="matrix(1 0 0 1 -1110.67 -1405.1096)">
			<stop  offset="0" style="stop-color:#0070E6"/>
			<stop  offset="1" style="stop-color:#00152B"/>
		</linearGradient>
		<path class="st6" d="M308.7,55c0-2.9-1.9-5.9-5.8-8.1l-62.8-36.6c-7.7-4.4-20.3-4.4-28,0L150.4,46c-4.1,2.4-6,5.6-5.7,8.7V134
			c-0.3,3.1,1.6,6.3,5.7,8.7l62.8,36.6c8.8,4.4,19.2,4.4,28,0l61.7-35.6c3.9-2.2,5.8-5.2,5.8-8.1V55L308.7,55z"/>
		
			<linearGradient id="SVGID_7_" gradientUnits="userSpaceOnUse" x1="1337.3547" y1="1588.1698" x2="1337.3547" y2="1490.5099" gradientTransform="matrix(1 0 0 1 -1110.67 -1405.1096)">
			<stop  offset="0" style="stop-color:#0070E6"/>
			<stop  offset="1" style="stop-color:#00152B"/>
		</linearGradient>
		<path class="st7" d="M308.7,96c0-2.9-1.9-5.9-5.8-8.1l-62.8-36.5c-7.7-4.4-20.3-4.4-28,0L150.4,87c-4.1,2.4-6,5.6-5.7,8.7v30.6
			c-0.3,3.1,1.6,6.3,5.7,8.7l62.8,36.6c8.8,4.5,19.2,4.5,28,0l61.7-35.6c3.9-2.2,5.8-5.2,5.8-8.1L308.7,96L308.7,96z"/>
		
			<linearGradient id="SVGID_8_" gradientUnits="userSpaceOnUse" x1="6220.875" y1="1561.3374" x2="6295.665" y2="1496.1075" gradientTransform="matrix(-1 0 0 1 6439.3003 -1405.1096)">
			<stop  offset="0" style="stop-color:#0070E6"/>
			<stop  offset="1" style="stop-color:#00152B"/>
		</linearGradient>
		<path class="st8" d="M122.7,105.3V66.2c0.3,3.5,2.7,6.9,7.2,9.5l79.6,46.4c4.9,2.8,11.3,4.2,17.8,4.2v40.6
			c-6.4,0-12.9-1.4-17.8-4.2L130,116.3C124.8,113.2,122.4,109.2,122.7,105.3z"/>
		
			<linearGradient id="SVGID_9_" gradientUnits="userSpaceOnUse" x1="6198.9844" y1="1603.1288" x2="6128.3047" y2="1456.2888" gradientTransform="matrix(-1 0 0 1 6439.3003 -1405.1096)">
			<stop  offset="0" style="stop-color:#0070E6"/>
			<stop  offset="1" style="stop-color:#00152B"/>
		</linearGradient>
		<path class="st9" d="M245.1,122.1l78.2-45.2c4.9-2.8,7.3-6.5,7.3-10.2l0,0v40.5c0,3.7-2.4,7.4-7.3,10.3l-78.2,45.2
			c-4.9,2.8-11.3,4.2-17.8,4.2v-40.6C233.8,126.3,240.2,124.9,245.1,122.1z"/>
		
			<linearGradient id="SVGID_10_" gradientUnits="userSpaceOnUse" x1="6228.6201" y1="1457.0127" x2="6148.0298" y2="1528.3927" gradientTransform="matrix(-1 0 0 1 6439.3003 -1405.1096)">
			<stop  offset="0" style="stop-color:#0070E6"/>
			<stop  offset="1" style="stop-color:#A5C5FF"/>
		</linearGradient>
		<path class="st10" d="M208.2,10c9.8-5.6,25.7-5.6,35.5,0l79.6,46.4c9.8,5.7,9.8,14.8,0,20.5L245.1,122c-9.8,5.6-25.8,5.6-35.5,0
			L130,75.7c-9.8-5.7-9.8-14.9,0-20.5L208.2,10z"/>
		<path class="st11" d="M227.3,122c5.9,0,11.6-1.3,15.6-3.6l78.2-45.2c3.3-1.9,5.2-4.3,5.2-6.6s-1.9-4.7-5.2-6.5l-79.6-46.4
			c-4-2.3-9.7-3.7-15.6-3.7s-11.6,1.3-15.6,3.7l-78.2,45.2c-3.3,1.9-5.2,4.3-5.2,6.6s1.9,4.6,5.2,6.5l79.7,46.4
			C215.8,120.7,221.5,122,227.3,122z"/>
		
			<linearGradient id="SVGID_11_" gradientUnits="userSpaceOnUse" x1="6151.728" y1="1549.0342" x2="6321.3179" y2="1313.1542" gradientTransform="matrix(-1 0 0 1 6437.7603 -1405.1096)">
			<stop  offset="0" style="stop-color:#0070E6"/>
			<stop  offset="1" style="stop-color:#A5C5FF"/>
		</linearGradient>
		<path class="st12" d="M209.6,133.1c9.8,5.6,25.7,5.6,35.5,0l78.2-45.2c4.9-2.8,7.3-6.5,7.3-10.2l0,0v20.9c0,3.7-2.4,7.4-7.3,10.3
			l-78.2,45.2c-9.8,5.6-25.8,5.6-35.5,0l-14.4-8.3v-21L209.6,133.1z"/>
		
			<linearGradient id="SVGID_12_" gradientUnits="userSpaceOnUse" x1="6120.3975" y1="1505.5502" x2="6171.3174" y2="1536.9901" gradientTransform="matrix(-1 0 0 1 6437.7603 -1405.1096)">
			<stop  offset="0" style="stop-color:#38D611"/>
			<stop  offset="1" style="stop-color:#BCF0A7"/>
		</linearGradient>
		<path class="st13" d="M242.9,142.9l65-37.7c0.7-0.4,1.3,0,1.3,1v1.2c0,1-0.5,1.9-1.3,2.4l-65,37.7c-0.7,0.4-1.3,0-1.3-1v-1.1
			C241.6,144.4,242.1,143.4,242.9,142.9z"/>
		
			<linearGradient id="SVGID_13_" gradientUnits="userSpaceOnUse" x1="6119.623" y1="1506.8104" x2="6170.5132" y2="1538.2405" gradientTransform="matrix(-1 0 0 1 6437.7603 -1405.1096)">
			<stop  offset="0" style="stop-color:#38D611"/>
			<stop  offset="1" style="stop-color:#BCF0A7"/>
		</linearGradient>
		<path class="st14" d="M314.9,101.5c0.9-0.5,1.7,0.1,1.7,1.2c0,1.3-0.6,2.4-1.7,3.2c-0.9,0.5-1.7,0-1.7-1.2
			C313.3,103.4,313.9,102.2,314.9,101.5z"/>
		
			<linearGradient id="SVGID_14_" gradientUnits="userSpaceOnUse" x1="6119.5249" y1="1506.9641" x2="6170.4448" y2="1538.4042" gradientTransform="matrix(-1 0 0 1 6437.7603 -1405.1096)">
			<stop  offset="0" style="stop-color:#38D611"/>
			<stop  offset="1" style="stop-color:#BCF0A7"/>
		</linearGradient>
		<path class="st15" d="M319.7,98.7c0.9-0.5,1.7,0,1.7,1.3s-0.6,2.4-1.7,3.2c-0.9,0.5-1.7,0-1.7-1.2
			C318.1,100.6,318.7,99.4,319.7,98.7z"/>
		
			<linearGradient id="SVGID_15_" gradientUnits="userSpaceOnUse" x1="1386.3201" y1="1687.1498" x2="1386.3201" y2="1652.6598" gradientTransform="matrix(1 0 0 1 -1110.67 -1405.1096)">
			<stop  offset="0" style="stop-color:#38D611"/>
			<stop  offset="1" style="stop-color:#1F8E00"/>
		</linearGradient>
		<path class="st16" d="M266,244.3c5.1-3,13.5-3,18.6,0l41.7,24.3c5.1,3,5.1,7.8,0,10.8l-41,23.7c-5.1,3-13.5,3-18.6,0L225,278.8
			c-5.1-3-5.1-7.8,0-10.8L266,244.3z"/>
		
			<linearGradient id="SVGID_16_" gradientUnits="userSpaceOnUse" x1="6167.5703" y1="1700.8135" x2="6202.7705" y2="1670.1135" gradientTransform="matrix(-1 0 0 1 6439.3003 -1405.1096)">
			<stop  offset="0" style="stop-color:#0070E6"/>
			<stop  offset="1" style="stop-color:#00152B"/>
		</linearGradient>
		<path class="st17" d="M226.7,271.7v-18.4c0.1,1.6,1.3,3.2,3.4,4.5l37.5,21.8c2.6,1.4,5.4,2.1,8.3,2v19.1c-2.9,0-5.8-0.6-8.3-2
			l-37.5-21.8C227.7,275.5,226.5,273.6,226.7,271.7z"/>
		
			<linearGradient id="SVGID_17_" gradientUnits="userSpaceOnUse" x1="6157.2866" y1="1720.4525" x2="6124.0166" y2="1651.3527" gradientTransform="matrix(-1 0 0 1 6439.3003 -1405.1096)">
			<stop  offset="0" style="stop-color:#0070E6"/>
			<stop  offset="1" style="stop-color:#00152B"/>
		</linearGradient>
		<path class="st18" d="M284.3,279.6l36.8-21.3c2.3-1.3,3.4-3.1,3.4-4.8l0,0v19.1c0,1.8-1.2,3.5-3.4,4.8l-36.8,21.3
			c-2.6,1.4-5.4,2-8.4,2v-19.1C278.9,281.7,281.8,281,284.3,279.6z"/>
		
			<linearGradient id="SVGID_18_" gradientUnits="userSpaceOnUse" x1="6171.2334" y1="1651.7389" x2="6133.3032" y2="1685.3287" gradientTransform="matrix(-1 0 0 1 6439.3003 -1405.1096)">
			<stop  offset="0" style="stop-color:#0070E6"/>
			<stop  offset="1" style="stop-color:#A5C5FF"/>
		</linearGradient>
		<path class="st19" d="M266.9,226.9c4.6-2.6,12.1-2.6,16.7,0l37.5,21.8c4.6,2.7,4.6,7,0,9.7l-36.8,21.3c-4.6,2.7-12.1,2.7-16.7,0
			l-37.5-21.8c-4.6-2.7-4.6-7,0-9.6L266.9,226.9z"/>
		<path class="st11" d="M275.9,279.6c2.6,0.1,5.1-0.5,7.3-1.7l36.8-21.3c1.6-0.9,2.4-2,2.4-3.1s-0.9-2.2-2.4-3.1l-37.5-21.8
			c-4.6-2.3-10.1-2.3-14.7,0L231,249.9c-1.6,0.9-2.4,2-2.4,3.1s0.9,2.2,2.4,3.1l37.5,21.8C270.9,279,273.4,279.6,275.9,279.6z"/>
		
			<linearGradient id="SVGID_19_" gradientUnits="userSpaceOnUse" x1="6134.23" y1="1695.043" x2="6214.0503" y2="1584.0229" gradientTransform="matrix(-1 0 0 1 6437.7603 -1405.1096)">
			<stop  offset="0" style="stop-color:#0070E6"/>
			<stop  offset="1" style="stop-color:#A5C5FF"/>
		</linearGradient>
		<path class="st20" d="M267.6,284.8c4.6,2.7,12.1,2.7,16.7,0l36.8-21.2c2.3-1.3,3.4-3.1,3.4-4.8l0,0v9.8c0,1.8-1.2,3.5-3.4,4.8
			l-36.8,21.3c-4.6,2.7-12.1,2.7-16.7,0l-6.8-3.9v-9.9L267.6,284.8z"/>
		
			<linearGradient id="SVGID_20_" gradientUnits="userSpaceOnUse" x1="6119.4302" y1="1674.5884" x2="6143.4004" y2="1689.3784" gradientTransform="matrix(-1 0 0 1 6437.7603 -1405.1096)">
			<stop  offset="0" style="stop-color:#38D611"/>
			<stop  offset="1" style="stop-color:#BCF0A7"/>
		</linearGradient>
		<path class="st21" d="M283.3,289.4l30.6-17.7c0.3-0.2,0.6,0,0.6,0.5v0.6c0,0.5-0.2,0.9-0.6,1.1l-30.6,17.7c-0.3,0.2-0.6,0-0.6-0.4
			v-0.6C282.7,290.1,282.9,289.7,283.3,289.4z"/>
		
			<linearGradient id="SVGID_21_" gradientUnits="userSpaceOnUse" x1="6119.1123" y1="1675.1036" x2="6143.0625" y2="1689.8936" gradientTransform="matrix(-1 0 0 1 6437.7603 -1405.1096)">
			<stop  offset="0" style="stop-color:#38D611"/>
			<stop  offset="1" style="stop-color:#BCF0A7"/>
		</linearGradient>
		<path class="st22" d="M317.1,269.9c0.4-0.2,0.8,0,0.8,0.6s-0.3,1.1-0.8,1.5c-0.4,0.2-0.8,0-0.8-0.6
			C316.4,270.8,316.7,270.3,317.1,269.9z"/>
		
			<linearGradient id="SVGID_22_" gradientUnits="userSpaceOnUse" x1="6119.0562" y1="1675.1896" x2="6143.0161" y2="1689.9896" gradientTransform="matrix(-1 0 0 1 6437.7603 -1405.1096)">
			<stop  offset="0" style="stop-color:#38D611"/>
			<stop  offset="1" style="stop-color:#BCF0A7"/>
		</linearGradient>
		<path class="st23" d="M319.4,268.6c0.4-0.2,0.8,0,0.8,0.6s-0.3,1.1-0.8,1.5c-0.4,0.2-0.8,0-0.8-0.6S318.9,269,319.4,268.6z"/>
		
			<linearGradient id="SVGID_23_" gradientUnits="userSpaceOnUse" x1="1467.77" y1="1639.7599" x2="1467.77" y2="1605.2798" gradientTransform="matrix(1 0 0 1 -1110.67 -1405.1096)">
			<stop  offset="0" style="stop-color:#38D611"/>
			<stop  offset="1" style="stop-color:#1F8E00"/>
		</linearGradient>
		<path class="st24" d="M347.5,196.9c5.1-2.9,13.5-2.9,18.6,0l41.7,24.3c5.1,3,5.1,7.8,0,10.7l-41,23.7c-5.1,3-13.5,3-18.6,0
			l-41.8-24.3c-5.1-3-5.1-7.8,0-10.7L347.5,196.9z"/>
		
			<linearGradient id="SVGID_24_" gradientUnits="userSpaceOnUse" x1="6086.0054" y1="1653.4517" x2="6121.2056" y2="1622.7618" gradientTransform="matrix(-1 0 0 1 6439.3003 -1405.1096)">
			<stop  offset="0" style="stop-color:#0070E6"/>
			<stop  offset="1" style="stop-color:#00152B"/>
		</linearGradient>
		<path class="st25" d="M308.3,224.4V206c0.1,1.6,1.3,3.2,3.4,4.5l37.5,21.8c2.6,1.4,5.4,2.1,8.3,2v19.1c-2.9,0.1-5.8-0.6-8.3-2
			l-37.5-21.8C309.3,228.1,308.1,226.2,308.3,224.4z"/>
		
			<linearGradient id="SVGID_25_" gradientUnits="userSpaceOnUse" x1="6075.6841" y1="1673.0785" x2="6042.4141" y2="1603.9686" gradientTransform="matrix(-1 0 0 1 6439.3003 -1405.1096)">
			<stop  offset="0" style="stop-color:#0070E6"/>
			<stop  offset="1" style="stop-color:#00152B"/>
		</linearGradient>
		<path class="st26" d="M365.9,232.2l36.8-21.3c2.3-1.3,3.4-3.1,3.4-4.8l0,0v19.1c0,1.8-1.1,3.5-3.4,4.8l-36.8,21.3
			c-2.6,1.4-5.4,2.1-8.4,2v-19.1C360.5,234.3,363.3,233.6,365.9,232.2z"/>
		
			<linearGradient id="SVGID_26_" gradientUnits="userSpaceOnUse" x1="6089.6289" y1="1604.3425" x2="6051.6987" y2="1637.9325" gradientTransform="matrix(-1 0 0 1 6439.3003 -1405.1096)">
			<stop  offset="0" style="stop-color:#0070E6"/>
			<stop  offset="1" style="stop-color:#A5C5FF"/>
		</linearGradient>
		<path class="st27" d="M348.5,179.5c4.6-2.7,12.1-2.7,16.7,0l37.5,21.8c4.6,2.7,4.6,7,0,9.7l-36.8,21.3c-4.6,2.7-12.1,2.7-16.7,0
			l-37.5-21.8c-4.6-2.7-4.6-7,0-9.7L348.5,179.5z"/>
		<path class="st11" d="M357.5,232.2c2.6,0.1,5.1-0.5,7.3-1.7l36.8-21.3c1.6-0.9,2.4-2,2.4-3.1s-0.9-2.2-2.4-3.1l-37.5-21.8
			c-4.6-2.3-10.1-2.3-14.7,0l-36.8,21.3c-1.6,0.9-2.4,2-2.4,3.1s0.9,2.2,2.4,3.1l37.5,21.8C352.5,231.7,355,232.3,357.5,232.2z"/>
		
			<linearGradient id="SVGID_27_" gradientUnits="userSpaceOnUse" x1="6052.5615" y1="1647.5896" x2="6132.3716" y2="1536.5697" gradientTransform="matrix(-1 0 0 1 6437.7603 -1405.1096)">
			<stop  offset="0" style="stop-color:#0070E6"/>
			<stop  offset="1" style="stop-color:#A5C5FF"/>
		</linearGradient>
		<path class="st28" d="M349.2,237.4c4.6,2.7,12.1,2.7,16.7,0l36.8-21.3c2.3-1.3,3.4-3.1,3.4-4.8l0,0v9.8c0,1.7-1.1,3.5-3.4,4.8
			l-36.8,21.2c-4.6,2.7-12.1,2.7-16.7,0l-6.8-3.9v-9.9L349.2,237.4z"/>
		
			<linearGradient id="SVGID_28_" gradientUnits="userSpaceOnUse" x1="6037.8745" y1="1627.1428" x2="6061.8442" y2="1641.943" gradientTransform="matrix(-1 0 0 1 6437.7603 -1405.1096)">
			<stop  offset="0" style="stop-color:#38D611"/>
			<stop  offset="1" style="stop-color:#BCF0A7"/>
		</linearGradient>
		<path class="st29" d="M364.8,242l30.6-17.7c0.3-0.2,0.6,0,0.6,0.5v0.5c0,0.5-0.2,0.9-0.6,1.2l-30.6,17.7c-0.3,0.2-0.6,0-0.6-0.4
			v-0.6C364.3,242.7,364.5,242.3,364.8,242z"/>
		
			<linearGradient id="SVGID_29_" gradientUnits="userSpaceOnUse" x1="6037.5239" y1="1627.7114" x2="6061.4839" y2="1642.5013" gradientTransform="matrix(-1 0 0 1 6437.7603 -1405.1096)">
			<stop  offset="0" style="stop-color:#38D611"/>
			<stop  offset="1" style="stop-color:#BCF0A7"/>
		</linearGradient>
		<path class="st30" d="M398.7,222.5c0.4-0.2,0.8,0,0.8,0.6s-0.3,1.1-0.8,1.5c-0.4,0.2-0.8,0-0.8-0.6
			C398,223.4,398.3,222.9,398.7,222.5z"/>
		
			<linearGradient id="SVGID_30_" gradientUnits="userSpaceOnUse" x1="6037.4727" y1="1627.7993" x2="6061.4326" y2="1642.5894" gradientTransform="matrix(-1 0 0 1 6437.7603 -1405.1096)">
			<stop  offset="0" style="stop-color:#38D611"/>
			<stop  offset="1" style="stop-color:#BCF0A7"/>
		</linearGradient>
		<path class="st31" d="M401,221.2c0.4-0.2,0.8,0,0.8,0.6s-0.3,1.1-0.8,1.5c-0.4,0.2-0.8,0-0.8-0.6
			C400.2,222.1,400.5,221.6,401,221.2z"/>
		
			<linearGradient id="SVGID_31_" gradientUnits="userSpaceOnUse" x1="1548.8701" y1="1593.2798" x2="1548.8701" y2="1558.7898" gradientTransform="matrix(1 0 0 1 -1110.67 -1405.1096)">
			<stop  offset="0" style="stop-color:#38D611"/>
			<stop  offset="1" style="stop-color:#1F8E00"/>
		</linearGradient>
		<path class="st32" d="M428.6,150.4c5.1-3,13.5-3,18.6,0l41.7,24.3c5.1,3,5.1,7.8,0,10.8l-41,23.7c-5.1,3-13.5,3-18.6,0l-41.8-24.3
			c-5.1-3-5.1-7.8,0-10.8L428.6,150.4z"/>
		
			<linearGradient id="SVGID_32_" gradientUnits="userSpaceOnUse" x1="6004.8901" y1="1606.9197" x2="6040.0801" y2="1576.2197" gradientTransform="matrix(-1 0 0 1 6439.3003 -1405.1096)">
			<stop  offset="0" style="stop-color:#0070E6"/>
			<stop  offset="1" style="stop-color:#00152B"/>
		</linearGradient>
		<path class="st33" d="M389.3,177.8v-18.4c0.2,1.6,1.3,3.2,3.4,4.5l37.5,21.8c2.6,1.4,5.4,2.1,8.4,2v19.1c-2.9,0-5.8-0.6-8.4-2
			L392.8,183C390.3,181.6,389.2,179.7,389.3,177.8z"/>
		
			<linearGradient id="SVGID_33_" gradientUnits="userSpaceOnUse" x1="5994.5845" y1="1626.5981" x2="5961.3145" y2="1557.4982" gradientTransform="matrix(-1 0 0 1 6439.3003 -1405.1096)">
			<stop  offset="0" style="stop-color:#0070E6"/>
			<stop  offset="1" style="stop-color:#00152B"/>
		</linearGradient>
		<path class="st34" d="M447,185.7l36.8-21.3c2.3-1.3,3.4-3.1,3.4-4.8l0,0v19.1c0,1.8-1.2,3.5-3.4,4.8L447,204.9
			c-2.6,1.4-5.4,2-8.4,2v-19.1C441.5,187.8,444.4,187.1,447,185.7z"/>
		
			<linearGradient id="SVGID_34_" gradientUnits="userSpaceOnUse" x1="6008.5161" y1="1557.8041" x2="5970.5864" y2="1591.394" gradientTransform="matrix(-1 0 0 1 6439.3003 -1405.1096)">
			<stop  offset="0" style="stop-color:#0070E6"/>
			<stop  offset="1" style="stop-color:#A5C5FF"/>
		</linearGradient>
		<path class="st35" d="M429.6,133c4.6-2.6,12.1-2.6,16.7,0l37.5,21.8c4.6,2.7,4.6,7,0,9.7L447,185.7c-4.6,2.7-12.1,2.7-16.7,0
			l-37.5-21.8c-4.6-2.7-4.6-7,0-9.6L429.6,133z"/>
		<path class="st11" d="M438.6,185.7c2.6,0.1,5.1-0.5,7.3-1.7l36.8-21.3c1.6-0.9,2.4-2,2.4-3.1s-0.9-2.2-2.4-3.1l-37.5-21.8
			c-4.6-2.3-10.1-2.3-14.7,0L393.8,156c-1.6,0.9-2.4,2-2.4,3.1s0.9,2.2,2.4,3.1l37.5,21.8C433.5,185.2,436.1,185.8,438.6,185.7z"/>
		
			<linearGradient id="SVGID_35_" gradientUnits="userSpaceOnUse" x1="5971.5337" y1="1601.1371" x2="6051.3438" y2="1490.1371" gradientTransform="matrix(-1 0 0 1 6437.7603 -1405.1096)">
			<stop  offset="0" style="stop-color:#0070E6"/>
			<stop  offset="1" style="stop-color:#A5C5FF"/>
		</linearGradient>
		<path class="st36" d="M430.3,190.9c4.6,2.7,12.1,2.7,16.7,0l36.8-21.2c2.3-1.3,3.4-3.1,3.4-4.8l0,0v9.8c0,1.8-1.2,3.5-3.4,4.8
			L447,200.8c-4.6,2.7-12.1,2.7-16.7,0l-6.8-3.9V187L430.3,190.9z"/>
		
			<linearGradient id="SVGID_36_" gradientUnits="userSpaceOnUse" x1="5956.793" y1="1580.6652" x2="5980.7627" y2="1595.4552" gradientTransform="matrix(-1 0 0 1 6437.7603 -1405.1096)">
			<stop  offset="0" style="stop-color:#38D611"/>
			<stop  offset="1" style="stop-color:#BCF0A7"/>
		</linearGradient>
		<path class="st37" d="M445.9,195.5l30.6-17.7c0.3-0.2,0.6,0,0.6,0.5v0.6c0,0.5-0.2,0.9-0.6,1.1l-30.6,17.7c-0.3,0.2-0.6,0-0.6-0.4
			v-0.6C445.3,196.2,445.6,195.8,445.9,195.5z"/>
		
			<linearGradient id="SVGID_37_" gradientUnits="userSpaceOnUse" x1="5956.4023" y1="1581.2981" x2="5980.3623" y2="1596.088" gradientTransform="matrix(-1 0 0 1 6437.7603 -1405.1096)">
			<stop  offset="0" style="stop-color:#38D611"/>
			<stop  offset="1" style="stop-color:#BCF0A7"/>
		</linearGradient>
		<path class="st38" d="M479.8,176.1c0.4-0.2,0.8,0,0.8,0.6s-0.3,1.1-0.8,1.5c-0.4,0.2-0.8,0-0.8-0.6S479.3,176.4,479.8,176.1z"/>
		
			<linearGradient id="SVGID_38_" gradientUnits="userSpaceOnUse" x1="5956.3467" y1="1581.3837" x2="5980.3066" y2="1596.1837" gradientTransform="matrix(-1 0 0 1 6437.7603 -1405.1096)">
			<stop  offset="0" style="stop-color:#38D611"/>
			<stop  offset="1" style="stop-color:#BCF0A7"/>
		</linearGradient>
		<path class="st39" d="M482.1,174.8c0.4-0.2,0.8,0,0.8,0.6s-0.3,1.1-0.8,1.5c-0.4,0.2-0.8,0-0.8-0.6
			C481.3,175.7,481.6,175.1,482.1,174.8z"/>
		<text transform="matrix(1 0 0 1 2884.05 -701.4199)" style="font-family:'ArialMT'; font-size:12px;">L</text>
		<text transform="matrix(1 0 0 1 2889.55 -701.4199)" style="font-family:'ArialMT'; font-size:12px;">o</text>
		<text transform="matrix(1 0 0 1 2896.1301 -701.4199)" style="font-family:'ArialMT'; font-size:12px;">r</text>
		<text transform="matrix(1 0 0 1 2899.9399 -701.4199)" style="font-family:'ArialMT'; font-size:12px;">em ipsum</text>
	</g>
</g>
</svg>
