<?xml version="1.0" encoding="utf-8"?>
<!-- Generator: Adobe Illustrator 25.0.1, SVG Export Plug-In . SVG Version: 6.00 Build 0)  -->
<svg version="1.1" id="Layer_1" xmlns="http://www.w3.org/2000/svg" xmlns:xlink="http://www.w3.org/1999/xlink" x="0px" y="0px"
	 viewBox="0 0 529.8 561.3" style="enable-background:new 0 0 529.8 561.3;" xml:space="preserve">
<style type="text/css">
	.st0{fill:url(#SVGID_1_);stroke:#0070E6;stroke-width:20;stroke-miterlimit:10;}
	.st1{fill:url(#SVGID_2_);}
	.st2{fill:url(#SVGID_3_);}
	.st3{fill:url(#SVGID_4_);}
	.st4{fill:none;stroke:#38D611;stroke-width:3;stroke-linecap:round;stroke-linejoin:round;}
	.st5{fill:url(#SVGID_5_);}
	.st6{fill:url(#SVGID_6_);}
	.st7{opacity:0.6;fill:url(#SVGID_7_);enable-background:new    ;}
	.st8{fill:url(#SVGID_8_);}
	.st9{fill:url(#SVGID_9_);}
	.st10{fill:url(#SVGID_10_);}
	.st11{opacity:0.2;fill:#00152B;enable-background:new    ;}
	.st12{fill:url(#SVGID_11_);}
	.st13{fill:url(#SVGID_12_);}
	.st14{fill:url(#SVGID_13_);}
	.st15{fill:url(#SVGID_14_);}
	.st16{fill:url(#SVGID_15_);}
	.st17{fill:url(#SVGID_16_);}
	.st18{fill:url(#SVGID_17_);}
	.st19{fill:url(#SVGID_18_);}
	.st20{fill:url(#SVGID_19_);}
	.st21{fill:url(#SVGID_20_);}
	.st22{fill:url(#SVGID_21_);}
	.st23{fill:#FFE964;}
	.st24{fill:#D9C539;}
	.st25{fill:url(#SVGID_22_);}
	.st26{fill:url(#SVGID_23_);}
	.st27{fill:url(#SVGID_24_);}
	.st28{fill:url(#SVGID_25_);}
	.st29{fill:url(#SVGID_26_);}
	.st30{fill:url(#SVGID_27_);}
	.st31{fill:#00152B;}
	.st32{fill:url(#SVGID_28_);}
	.st33{fill:url(#SVGID_29_);}
	.st34{fill:url(#SVGID_30_);}
	.st35{fill:url(#SVGID_31_);}
	.st36{fill:url(#SVGID_32_);}
	.st37{fill:url(#SVGID_33_);}
	.st38{fill:url(#SVGID_34_);}
	.st39{fill:url(#SVGID_35_);}
	.st40{fill:url(#SVGID_36_);}
	.st41{fill:url(#SVGID_37_);}
	.st42{fill:url(#SVGID_38_);}
	.st43{fill:url(#SVGID_39_);}
	.st44{fill:url(#SVGID_40_);}
	.st45{fill:url(#SVGID_41_);}
	.st46{fill:url(#SVGID_42_);}
	.st47{fill:url(#SVGID_43_);}
	.st48{fill:url(#SVGID_44_);}
	.st49{fill:url(#SVGID_45_);}
	.st50{fill:url(#SVGID_46_);}
	.st51{fill:#304A6C;}
	.st52{fill:#FFFFFF;}
	.st53{fill:url(#SVGID_47_);}
	.st54{fill:url(#SVGID_48_);}
	.st55{fill:url(#SVGID_49_);}
	.st56{fill:url(#SVGID_50_);}
	.st57{fill:url(#SVGID_51_);}
	.st58{fill:url(#SVGID_52_);}
	.st59{fill:url(#SVGID_53_);}
	.st60{fill:url(#SVGID_54_);}
	.st61{fill:url(#SVGID_55_);}
	.st62{fill:url(#SVGID_56_);}
	.st63{fill:url(#SVGID_57_);}
	.st64{fill:url(#SVGID_58_);}
	.st65{fill:url(#SVGID_59_);}
	.st66{fill:url(#SVGID_60_);}
	.st67{fill:url(#SVGID_61_);}
</style>
<g>
	<g id="Layer_1_1_">
		
			<linearGradient id="SVGID_1_" gradientUnits="userSpaceOnUse" x1="2809.6863" y1="-434.56" x2="2809.6863" y2="-568.7401" gradientTransform="matrix(1 0 0 -1 -2539.78 -114.33)">
			<stop  offset="0" style="stop-color:#EFF7FF"/>
			<stop  offset="1" style="stop-color:#FFFFFF"/>
		</linearGradient>
		<path class="st0" d="M287.3,255.4c-9.6-5.5-25.3-5.5-35,0L17.2,391.2c-9.6,5.6-9.6,14.6,0,20.2l235.2,135.8c9.6,5.6,25.3,5.6,35,0
			l235.2-135.8c9.6-5.6,9.6-14.6,0-20.2L287.3,255.4z"/>
		
			<linearGradient id="SVGID_2_" gradientUnits="userSpaceOnUse" x1="2781.02" y1="-523.0551" x2="2904.6201" y2="-523.0551" gradientTransform="matrix(1 0 0 -1 -2539.78 -114.33)">
			<stop  offset="0" style="stop-color:#A5C5FF"/>
			<stop  offset="1" style="stop-color:#77A4F9"/>
		</linearGradient>
		<path class="st1" d="M529.6,400.2L529.6,400.2l0.1-21.1h-54L287.3,270.3c-9.6-5.5-25.3-5.5-34.9,0L64,379H10.1v21.1
			c-0.6,4,1.8,8.2,7.1,11.2l235.2,135.8c9.6,5.6,25.3,5.6,34.9,0l235.2-135.8C527.8,408.3,530.2,404.2,529.6,400.2z"/>
		
			<linearGradient id="SVGID_3_" gradientUnits="userSpaceOnUse" x1="2809.6562" y1="-411.91" x2="2809.6562" y2="-546.08" gradientTransform="matrix(1 0 0 -1 -2539.78 -114.33)">
			<stop  offset="0" style="stop-color:#EFF7FF"/>
			<stop  offset="1" style="stop-color:#FFFFFF"/>
		</linearGradient>
		<path class="st2" d="M287.3,232.7c-9.6-5.5-25.3-5.5-35,0L17.2,368.6c-9.6,5.6-9.6,14.6,0,20.2l235.2,135.8c9.6,5.6,25.3,5.6,35,0
			l235.1-135.8c9.6-5.6,9.6-14.6,0-20.2L287.3,232.7z"/>
		
			<linearGradient id="SVGID_4_" gradientUnits="userSpaceOnUse" x1="2809.645" y1="-416.91" x2="2809.645" y2="-342.22" gradientTransform="matrix(1 0 0 -1 -2539.78 -114.33)">
			<stop  offset="0" style="stop-color:#EFF7FF"/>
			<stop  offset="1" style="stop-color:#FFFFFF"/>
		</linearGradient>
		<path class="st3" d="M269.9,525.7c-6,0-11.8-1.4-16-3.8L18.7,386.1c-3.7-2.1-5.7-4.8-5.7-7.5s2-5.4,5.7-7.5l235.2-135.8
			c4.1-2.4,10-3.8,16-3.8s11.8,1.4,16,3.8l235.2,135.8c3.7,2.1,5.7,4.8,5.7,7.5s-2,5.4-5.7,7.5L285.9,521.9
			C281.7,524.3,275.9,525.7,269.9,525.7z"/>
		<path class="st4" d="M171,327.7c-7.1-4.1-18.8-4.1-26,0l-82.4,47.6c-7.1,4.1-7.1,10.9,0,15L250.7,499c7.1,4.1,18.8,4.1,26,0
			l82.4-47.6c7.1-4.1,7.1-10.9,0-15L171,327.7z"/>
		
			<linearGradient id="SVGID_5_" gradientUnits="userSpaceOnUse" x1="2933.9399" y1="-515.08" x2="2933.9399" y2="-464.08" gradientTransform="matrix(1 0 0 -1 -2539.78 -114.33)">
			<stop  offset="0" style="stop-color:#38D611"/>
			<stop  offset="1" style="stop-color:#1F8E00"/>
		</linearGradient>
		<path class="st5" d="M383.1,347.1c5.9-3.4,15.5-3.4,21.4,0l48,28c5.9,3.4,5.9,9,0,12.4l-47.2,27.2c-5.9,3.4-15.5,3.4-21.4,0
			l-48-28c-5.9-3.4-5.9-9,0-12.4L383.1,347.1z"/>
		
			<linearGradient id="SVGID_6_" gradientUnits="userSpaceOnUse" x1="2859.26" y1="-463.9978" x2="2975.3601" y2="-463.9978" gradientTransform="matrix(1 0 0 -1 -2539.78 -114.33)">
			<stop  offset="0" style="stop-color:#0070E6"/>
			<stop  offset="1" style="stop-color:#00152B"/>
		</linearGradient>
		<path class="st6" d="M451.4,321.9c0-2-1.3-4.1-4-5.7l-43.8-25.5c-5.4-3.1-14.2-3.1-19.5,0L341,315.6c-2.9,1.7-4.2,3.9-4,6.1v55.4
			c-0.2,2.2,1.1,4.4,4,6.1l43.8,25.5c6.1,3.1,13.4,3.1,19.6,0l43.1-24.9c2.7-1.6,4-3.6,4-5.7V321.9z"/>
		
			<linearGradient id="SVGID_7_" gradientUnits="userSpaceOnUse" x1="2933.96" y1="-514.34" x2="2933.96" y2="-449.25" gradientTransform="matrix(1 0 0 -1 -2539.78 -114.33)">
			<stop  offset="0" style="stop-color:#0070E6"/>
			<stop  offset="1" style="stop-color:#00152B"/>
		</linearGradient>
		<path class="st7" d="M451.4,343.5c0-2.1-1.3-4.1-4-5.7l-43.8-25.5c-5.4-3.1-14.2-3.1-19.5,0L341,337.2c-2.9,1.7-4.2,3.9-4,6.1
			v17.3c-0.2,2.2,1.1,4.4,4,6.1l43.8,25.5c6.1,3.1,13.4,3.1,19.6,0l43.1-24.9c2.7-1.6,4-3.6,4-5.7V343.5L451.4,343.5z"/>
		
			<linearGradient id="SVGID_8_" gradientUnits="userSpaceOnUse" x1="3845.7991" y1="-495.8717" x2="3898.009" y2="-450.3417" gradientTransform="matrix(-1 0 0 -1 4234.1904 -114.33)">
			<stop  offset="0" style="stop-color:#0070E6"/>
			<stop  offset="1" style="stop-color:#00152B"/>
		</linearGradient>
		<path class="st8" d="M321.6,346v-27.3c0.2,2.4,1.9,4.8,5.1,6.6l55.6,32.4c3.8,2,8.1,3.1,12.4,3V389c-4.3,0.1-8.6-0.9-12.4-2.9
			l-55.6-32.4C323,351.5,321.3,348.7,321.6,346z"/>
		
			<linearGradient id="SVGID_9_" gradientUnits="userSpaceOnUse" x1="3830.4839" y1="-525.0533" x2="3781.134" y2="-422.5533" gradientTransform="matrix(-1 0 0 -1 4234.1904 -114.33)">
			<stop  offset="0" style="stop-color:#0070E6"/>
			<stop  offset="1" style="stop-color:#00152B"/>
		</linearGradient>
		<path class="st9" d="M407,357.7l54.6-31.5c3.4-2,5.1-4.5,5.1-7.1l0,0v28.3c0,2.6-1.7,5.2-5.1,7.2L407,386c-3.8,2-8.1,3-12.4,2.9
			v-28.3C398.9,360.7,403.2,359.7,407,357.7z"/>
		
			<linearGradient id="SVGID_10_" gradientUnits="userSpaceOnUse" x1="3851.1807" y1="-423.0309" x2="3794.9207" y2="-472.8509" gradientTransform="matrix(-1 0 0 -1 4234.1904 -114.33)">
			<stop  offset="0" style="stop-color:#0070E6"/>
			<stop  offset="1" style="stop-color:#A5C5FF"/>
		</linearGradient>
		<path class="st10" d="M381.3,279.5c6.8-3.9,18-3.9,24.8,0l55.6,32.4c6.8,3.9,6.8,10.4,0,14.3L407,357.7c-6.8,3.9-18,3.9-24.8,0
			l-55.6-32.4c-6.8-3.9-6.8-10.4,0-14.3L381.3,279.5z"/>
		<path class="st11" d="M394.6,357.7c3.8,0.1,7.5-0.8,10.9-2.6l54.6-31.5c2.3-1.3,3.6-3,3.6-4.6s-1.3-3.2-3.6-4.6L404.6,282
			c-6.9-3.4-14.9-3.4-21.8,0l-54.6,31.5c-2.3,1.3-3.6,3-3.6,4.6s1.3,3.2,3.6,4.6l55.6,32.4C387.1,356.9,390.9,357.7,394.6,357.7z"/>
		
			<linearGradient id="SVGID_11_" gradientUnits="userSpaceOnUse" x1="3797.0459" y1="-487.2786" x2="3915.4358" y2="-322.6187" gradientTransform="matrix(-1 0 0 -1 4232.6504 -114.33)">
			<stop  offset="0" style="stop-color:#0070E6"/>
			<stop  offset="1" style="stop-color:#A5C5FF"/>
		</linearGradient>
		<path class="st12" d="M382.2,365.4c6.8,3.9,18,3.9,24.8,0l54.6-31.5c3.4-2,5.1-4.5,5.1-7.1l0,0v14.6c0,2.6-1.7,5.2-5.1,7.2
			L407,380c-6.8,3.9-18,3.9-24.8,0l-10-5.8v-14.7L382.2,365.4z"/>
		
			<linearGradient id="SVGID_12_" gradientUnits="userSpaceOnUse" x1="3775.1943" y1="-456.9028" x2="3810.7444" y2="-478.8528" gradientTransform="matrix(-1 0 0 -1 4232.6504 -114.33)">
			<stop  offset="0" style="stop-color:#38D611"/>
			<stop  offset="1" style="stop-color:#BCF0A7"/>
		</linearGradient>
		<path class="st13" d="M405.5,372.2l45.4-26.3c0.5-0.3,0.9,0,0.9,0.7v0.8c0,0.7-0.3,1.3-0.9,1.7l-45.4,26.3c-0.5,0.3-0.9,0-0.9-0.7
			v-0.8C404.6,373.2,404.9,372.6,405.5,372.2z"/>
		
			<linearGradient id="SVGID_13_" gradientUnits="userSpaceOnUse" x1="3774.6497" y1="-457.8002" x2="3810.1597" y2="-479.7303" gradientTransform="matrix(-1 0 0 -1 4232.6504 -114.33)">
			<stop  offset="0" style="stop-color:#38D611"/>
			<stop  offset="1" style="stop-color:#BCF0A7"/>
		</linearGradient>
		<path class="st14" d="M455.8,343.3c0.6-0.4,1.1,0,1.1,0.9c0,0.9-0.4,1.7-1.1,2.2c-0.6,0.4-1.1,0-1.1-0.9
			C454.6,344.7,455,343.8,455.8,343.3z"/>
		
			<linearGradient id="SVGID_14_" gradientUnits="userSpaceOnUse" x1="3774.5906" y1="-457.8993" x2="3810.1404" y2="-479.8493" gradientTransform="matrix(-1 0 0 -1 4232.6504 -114.33)">
			<stop  offset="0" style="stop-color:#38D611"/>
			<stop  offset="1" style="stop-color:#BCF0A7"/>
		</linearGradient>
		<path class="st15" d="M459.1,341.4c0.6-0.4,1.1,0,1.1,0.9c0,0.9-0.4,1.7-1.2,2.2c-0.6,0.4-1.2,0-1.2-0.9
			C458,342.7,458.4,341.9,459.1,341.4z"/>
		<path class="st11" d="M407,300.1l17.3-10l-18.3-10.6c-6.8-3.9-18-3.9-24.8,0l-17.3,10l18.2,10.6C389.1,304,400.2,304,407,300.1z"
			/>
		
			<linearGradient id="SVGID_15_" gradientUnits="userSpaceOnUse" x1="3845.7832" y1="-401.9936" x2="3897.9832" y2="-356.4636" gradientTransform="matrix(-1 0 0 -1 4234.1904 -114.33)">
			<stop  offset="0" style="stop-color:#0070E6"/>
			<stop  offset="1" style="stop-color:#00152B"/>
		</linearGradient>
		<path class="st16" d="M321.6,252.1v-27.3c0.2,2.4,1.9,4.8,5.1,6.6l55.6,32.4c3.8,2,8.1,3,12.4,3v28.3c-4.3,0.1-8.6-0.9-12.4-2.9
			l-55.6-32.4C323,257.7,321.4,254.9,321.6,252.1z"/>
		
			<linearGradient id="SVGID_16_" gradientUnits="userSpaceOnUse" x1="3830.4827" y1="-431.1939" x2="3781.1328" y2="-328.6839" gradientTransform="matrix(-1 0 0 -1 4234.1904 -114.33)">
			<stop  offset="0" style="stop-color:#0070E6"/>
			<stop  offset="1" style="stop-color:#00152B"/>
		</linearGradient>
		<path class="st17" d="M407,263.8l54.6-31.5c3.4-2,5.1-4.5,5.1-7.1l0,0v28.3c0,2.6-1.7,5.2-5.1,7.2L407,292.2
			c-3.8,2-8.1,3-12.4,2.9v-28.4C399,266.8,403.2,265.8,407,263.8z"/>
		
			<linearGradient id="SVGID_17_" gradientUnits="userSpaceOnUse" x1="3851.1777" y1="-329.1576" x2="3794.9177" y2="-378.9875" gradientTransform="matrix(-1 0 0 -1 4234.1904 -114.33)">
			<stop  offset="0" style="stop-color:#0070E6"/>
			<stop  offset="1" style="stop-color:#A5C5FF"/>
		</linearGradient>
		<path class="st18" d="M381.3,185.6c6.8-3.9,18-3.9,24.8,0l55.6,32.4c6.8,4,6.8,10.4,0,14.3L407,263.8c-6.8,3.9-18,3.9-24.8,0
			l-55.6-32.4c-6.8-4-6.8-10.4,0-14.3L381.3,185.6z"/>
		<path class="st11" d="M394.6,263.7c3.8,0.1,7.5-0.8,10.9-2.5l54.6-31.5c2.3-1.3,3.6-3,3.6-4.6s-1.3-3.2-3.6-4.6l-55.6-32.4
			c-6.9-3.4-14.9-3.4-21.8,0l-54.6,31.5c-2.3,1.3-3.6,3-3.6,4.6s1.3,3.2,3.6,4.6l55.6,32.4C387.1,263,390.9,263.8,394.6,263.7z"/>
		
			<linearGradient id="SVGID_18_" gradientUnits="userSpaceOnUse" x1="3797.0461" y1="-393.4088" x2="3915.416" y2="-228.7588" gradientTransform="matrix(-1 0 0 -1 4232.6504 -114.33)">
			<stop  offset="0" style="stop-color:#0070E6"/>
			<stop  offset="1" style="stop-color:#A5C5FF"/>
		</linearGradient>
		<path class="st19" d="M382.2,271.5c6.8,3.9,18,3.9,24.8,0l54.6-31.5c3.4-2,5.1-4.5,5.1-7.1l0,0v14.6c0,2.6-1.7,5.2-5.1,7.2
			L407,286.2c-6.8,3.9-18,3.9-24.8,0l-10-5.8v-14.6L382.2,271.5z"/>
		
			<linearGradient id="SVGID_19_" gradientUnits="userSpaceOnUse" x1="3775.1892" y1="-363.051" x2="3810.7393" y2="-384.991" gradientTransform="matrix(-1 0 0 -1 4232.6504 -114.33)">
			<stop  offset="0" style="stop-color:#38D611"/>
			<stop  offset="1" style="stop-color:#BCF0A7"/>
		</linearGradient>
		<path class="st20" d="M405.5,278.3l45.4-26.3c0.5-0.3,0.9,0,0.9,0.7v0.8c0,0.7-0.3,1.3-0.9,1.7l-45.4,26.3c-0.5,0.3-0.9,0-0.9-0.7
			v-0.8C404.6,279.4,405,278.8,405.5,278.3z"/>
		
			<linearGradient id="SVGID_20_" gradientUnits="userSpaceOnUse" x1="3774.6499" y1="-363.9299" x2="3810.1799" y2="-385.8799" gradientTransform="matrix(-1 0 0 -1 4232.6504 -114.33)">
			<stop  offset="0" style="stop-color:#38D611"/>
			<stop  offset="1" style="stop-color:#BCF0A7"/>
		</linearGradient>
		<path class="st21" d="M455.8,249.5c0.6-0.4,1.1,0,1.1,0.9c0,0.9-0.4,1.7-1.1,2.2c-0.6,0.4-1.1,0-1.1-0.9
			C454.6,250.8,455,250,455.8,249.5z"/>
		
			<linearGradient id="SVGID_21_" gradientUnits="userSpaceOnUse" x1="3774.582" y1="-364.027" x2="3810.1318" y2="-385.977" gradientTransform="matrix(-1 0 0 -1 4232.6504 -114.33)">
			<stop  offset="0" style="stop-color:#38D611"/>
			<stop  offset="1" style="stop-color:#BCF0A7"/>
		</linearGradient>
		<path class="st22" d="M459.1,247.5c0.6-0.4,1.2,0,1.2,0.9c0,0.9-0.4,1.7-1.2,2.2c-0.6,0.4-1.2,0-1.2-0.9
			C457.9,248.9,458.4,248,459.1,247.5z"/>
		<polygon class="st23" points="436.6,203.4 436.6,196.1 424.7,189.3 424.7,196.4 		"/>
		<polygon class="st24" points="405.4,171.6 371.8,191 383.7,197.9 417.3,178.5 		"/>
		
			<linearGradient id="SVGID_22_" gradientUnits="userSpaceOnUse" x1="347.4251" y1="58.4722" x2="352.4851" y2="69.4722" gradientTransform="matrix(1 0 0 -1 0 315.86)">
			<stop  offset="0" style="stop-color:#D9C539"/>
			<stop  offset="1" style="stop-color:#B0A002"/>
		</linearGradient>
		<polygon class="st25" points="344.1,235.8 356,242.7 356,267.6 344.1,260.8 		"/>
		<polygon class="st23" points="371.8,191 383.7,197.9 356,242.7 344.1,235.8 		"/>
		<polygon class="st23" points="417.3,178.5 447.6,189.8 435.7,182.9 405.4,171.6 		"/>
		
			<linearGradient id="SVGID_23_" gradientUnits="userSpaceOnUse" x1="427.0793" y1="62.9593" x2="397.6093" y2="91.1093" gradientTransform="matrix(1 0 0 -1 0 315.86)">
			<stop  offset="0" style="stop-color:#D9C539"/>
			<stop  offset="1" style="stop-color:#B0A002"/>
		</linearGradient>
		<polygon class="st26" points="436.6,197.4 436.6,203.4 447.6,209.8 447.6,189.8 417.3,178.5 383.7,197.9 356,242.7 356,267.6 
			367,261.3 367,245.8 391.6,206 418.3,190.6 		"/>
		
			<linearGradient id="SVGID_24_" gradientUnits="userSpaceOnUse" x1="2743.7" y1="-403.39" x2="2841.28" y2="-403.39" gradientTransform="matrix(1 0 0 -1 -2539.78 -114.33)">
			<stop  offset="0" style="stop-color:#0070E6"/>
			<stop  offset="1" style="stop-color:#00152B"/>
		</linearGradient>
		<path class="st27" d="M301.5,247.2h-97.6v55.4c0,7.2,4.8,14.5,14.4,20c19.1,11,50,11,69,0c9.5-5.5,14.2-12.8,14.2-20l0,0
			L301.5,247.2z"/>
		
			<linearGradient id="SVGID_25_" gradientUnits="userSpaceOnUse" x1="2932.5188" y1="-246.35" x2="2932.7388" y2="-286.08" gradientTransform="matrix(1 0 0 -1 -2539.78 -114.33)">
			<stop  offset="0" style="stop-color:#D9C539"/>
			<stop  offset="1" style="stop-color:#B0A002"/>
		</linearGradient>
		<path class="st28" d="M399.4,125.5c0-0.3,0-0.6-0.1-0.8c-0.4-3.6-3.7-6.1-7.2-5.6c-2.9,0.4-5.3,2.7-5.6,5.6
			c-0.1,0.2-0.1,0.5-0.1,0.7l0,0v60.2c0,0,0,0,0,0.1c0,0,0,0.1,0,0.1c0,0,0,0,0,0.1c0,0,0,0.1,0,0.1c0,0,0,0.1,0,0.1v0.1l0,0
			l0.1,0.2l0,0l0.1,0.1l0,0l0.1,0.2l0,0l0.1,0.1l0,0l0.1,0.2l0,0l0.1,0.1l0,0l0,0l0.1,0.1l0,0l0.2,0.1l0,0l0.1,0.1h0.1l0.1,0.1l0,0
			l0.2,0.1c0,0,0,0,0.1,0l0.1,0.1l0.1,0.1l0.3,0.1h0.1l0.2,0.1h0.1c0.1,0,0.1,0.1,0.2,0.1c0,0,0.1,0,0.1,0l0.2,0.1h0.1h0.2l0.1,0
			h0.2h0.1h0.2h0.1l0.3,0l0,0l0.3,0.1h0.1h0.2h0.1h0.2h0.1h0.2h1.5c0.1,0,0.3,0,0.4,0h0.1h0.4l0,0l0.4-0.1h0.1l0.4-0.1l0,0l0.3-0.1
			h0.1l0.3-0.1h0.1c0.1,0,0.2-0.1,0.3-0.1h0.1c0.1,0,0.2-0.1,0.3-0.1l0,0l0,0l0.2-0.1h0.1l0.3-0.1c1.1-0.5,1.8-1.5,1.9-2.7v-59.3
			H399.4z"/>
		
			<linearGradient id="SVGID_26_" gradientUnits="userSpaceOnUse" x1="2932.5952" y1="-287.9" x2="2932.5952" y2="-273.89" gradientTransform="matrix(1 0 0 -1 -2539.78 -114.33)">
			<stop  offset="0" style="stop-color:#0070E6"/>
			<stop  offset="1" style="stop-color:#00152B"/>
		</linearGradient>
		<path class="st29" d="M404.6,159.9L404.6,159.9v-22.1H381v22.1l0,0c0,1.7,1.2,3.5,3.5,4.8c4.6,2.7,12.1,2.7,16.6,0
			C403.4,163.3,404.6,161.6,404.6,159.9L404.6,159.9L404.6,159.9z"/>
		<path class="st24" d="M292.1,151.3c-0.2-0.8-0.8-2.4-0.8-2.4L249.1,21.5l0,0C245.5,9.8,236.7,0.6,229.3,1
			c-1.4,0.1-2.7,0.5-3.8,1.3l0,0l-5.3,3.5l2.1,0.4c-1.9,4-2.1,10.1-0.3,16.7l0,0l32.5,127.9l0,0c0.2,0.8,0.4,1.6,0.6,2.4
			c4.8,16.4,17,29.2,27.2,28.7c0.5,0,0.9-0.1,1.4-0.2l-0.6,1.4l4.4-2.8l0,0l0,0C293.9,176.1,296,164.6,292.1,151.3z M238.4,32
			c-3.2,0.2-6.9-3.8-8.4-8.9s-0.1-9.3,3-9.5s6.9,3.8,8.4,8.9S241.6,31.8,238.4,32z M278.1,167.3c-5.2,0.3-11.4-6.3-13.8-14.6
			s-0.2-15.3,5-15.6s11.4,6.3,13.8,14.6S283.3,167.1,278.1,167.3L278.1,167.3z"/>
		
			<linearGradient id="SVGID_27_" gradientUnits="userSpaceOnUse" x1="2833.8799" y1="-209.5766" x2="2789.97" y2="-209.1066" gradientTransform="matrix(1 0 0 -1 -2539.78 -114.33)">
			<stop  offset="0" style="stop-color:#D9C539"/>
			<stop  offset="1" style="stop-color:#B0A002"/>
		</linearGradient>
		<path class="st30" d="M286.3,152.2L244.1,24.9l0,0C240.4,13.1,231.6,4,224.3,4.3s-10.6,10.1-7.4,21.9l0,0l32.6,127.8l0,0
			c0.2,0.8,0.4,1.6,0.6,2.4c4.8,16.4,17,29.2,27.2,28.7s14.6-14.2,9.8-30.6C286.8,153.8,286.3,152.2,286.3,152.2z"/>
		<path class="st31" d="M227.9,17c3.2-0.2,6.9,3.8,8.4,8.9s0.1,9.3-3,9.5s-6.9-3.8-8.4-8.9S224.8,17.1,227.9,17z"/>
		<path class="st31" d="M273.8,173.5c-6.2,0.3-13.5-7.5-16.4-17.4s-0.2-18.2,5.9-18.5s13.5,7.5,16.4,17.4S280,173.2,273.8,173.5z"/>
		<path class="st31" d="M273,170.7c-5.2,0.3-11.4-6.3-13.8-14.6s-0.2-15.3,5-15.6s11.4,6.3,13.8,14.6S278.2,170.4,273,170.7z"/>
		
			<linearGradient id="SVGID_28_" gradientUnits="userSpaceOnUse" x1="2792.4758" y1="-350.98" x2="2792.4758" y2="-379.8" gradientTransform="matrix(1 0 0 -1 -2539.78 -114.33)">
			<stop  offset="0" style="stop-color:#0070E6"/>
			<stop  offset="1" style="stop-color:#A5C5FF"/>
		</linearGradient>
		<path class="st32" d="M287.1,226.9c19.1,11,19.2,28.9,0.2,40s-49.9,11-69,0s-19.2-28.9-0.2-40S268,215.8,287.1,226.9z"/>
		
			<linearGradient id="SVGID_29_" gradientUnits="userSpaceOnUse" x1="2839.6313" y1="-346.1749" x2="2737.1914" y2="-378.835" gradientTransform="matrix(1 0 0 -1 -2539.78 -114.33)">
			<stop  offset="0" style="stop-color:#0070E6"/>
			<stop  offset="1" style="stop-color:#A5C5FF"/>
		</linearGradient>
		<path class="st33" d="M252.9,273.1c-12.7,0-24.6-2.8-33.6-8c-8.6-5-13.4-11.5-13.4-18.3s4.7-13.2,13.2-18.2c8.9-5.2,20.8-8,33.4-8
			s24.6,2.8,33.6,8c8.6,5,13.4,11.5,13.4,18.3s-4.7,13.2-13.2,18.2C277.4,270.3,265.6,273.1,252.9,273.1z"/>
		
			<linearGradient id="SVGID_30_" gradientUnits="userSpaceOnUse" x1="2792.4917" y1="-313.86" x2="2792.4917" y2="-358.74" gradientTransform="matrix(1 0 0 -1 -2539.78 -114.33)">
			<stop  offset="0" style="stop-color:#0070E6"/>
			<stop  offset="1" style="stop-color:#00152B"/>
		</linearGradient>
		<path class="st34" d="M289.4,210c1.7-6.5-1.8-13.5-10.6-18.5c-14.6-8.4-38.1-8.4-52.5,0c-8.6,5-12.1,11.9-10.4,18.4
			c-0.5,2.1-0.5,4.3,0,6.4c-0.5,2.1-0.5,4.3,0,6.4c-0.6,2.1-0.6,4.3,0,6.4c-0.5,2.1-0.5,4.3,0,6.4c-1.7,6.5,1.8,13.5,10.6,18.5
			c14.6,8.4,38.1,8.4,52.5,0c8.6-5,12.1-11.9,10.4-18.4c0.6-2.1,0.6-4.3,0-6.4c0.6-2.1,0.6-4.3,0-6.4c0.6-2.1,0.6-4.3,0-6.4
			C290,214.4,290,212.1,289.4,210z"/>
		
			<linearGradient id="SVGID_31_" gradientUnits="userSpaceOnUse" x1="2792.4937" y1="-297.23" x2="2792.4937" y2="-325.55" gradientTransform="matrix(1 0 0 -1 -2539.78 -114.33)">
			<stop  offset="0" style="stop-color:#0070E6"/>
			<stop  offset="1" style="stop-color:#A5C5FF"/>
		</linearGradient>
		<path class="st35" d="M278.9,185.1c14.6,8.4,14.6,22,0.2,30.4s-38,8.4-52.5,0s-14.6-22-0.2-30.4S264.3,176.7,278.9,185.1z"/>
		
			<linearGradient id="SVGID_32_" gradientUnits="userSpaceOnUse" x1="2792.4751" y1="-336.78" x2="2792.4751" y2="-312.21" gradientTransform="matrix(1 0 0 -1 -2539.78 -114.33)">
			<stop  offset="0" style="stop-color:#0070E6"/>
			<stop  offset="1" style="stop-color:#A5C5FF"/>
		</linearGradient>
		<path class="st36" d="M252.8,219.8c-9.6,0-18.6-2.1-25.3-6c-6.4-3.7-10-8.5-10-13.5s3.5-9.8,9.8-13.4c6.7-3.9,15.7-6,25.2-6
			s18.6,2.1,25.3,6c6.4,3.7,10,8.5,10,13.5s-3.5,9.8-9.8,13.4C271.4,217.7,262.4,219.8,252.8,219.8z"/>
		
			<linearGradient id="SVGID_33_" gradientUnits="userSpaceOnUse" x1="2792.6101" y1="-270.1799" x2="2792.8201" y2="-308.8599" gradientTransform="matrix(1 0 0 -1 -2539.78 -114.33)">
			<stop  offset="0" style="stop-color:#D9C539"/>
			<stop  offset="1" style="stop-color:#B0A002"/>
		</linearGradient>
		<path class="st37" d="M278.9,168.9c0-1.1-0.1-2.2-0.5-3.2c-1.7-14.1-14.4-24.1-28.5-22.5c-11.8,1.4-21.1,10.7-22.5,22.5
			c-0.3,0.9-0.4,1.8-0.4,2.8l0,0v27.9c0,0.2,0,0.5,0,0.7s0,0.2,0,0.3s0,0.3,0.1,0.5s0,0.2,0.1,0.3s0.1,0.3,0.1,0.4s0.1,0.2,0.1,0.3
			c0,0.1,0.1,0.3,0.1,0.4l0,0c0.1,0.2,0.1,0.4,0.2,0.6c0,0.1,0.1,0.1,0.1,0.2c0.1,0.2,0.1,0.3,0.2,0.5l0.1,0.1
			c0.1,0.2,0.2,0.4,0.3,0.6l0.1,0.1c0.1,0.2,0.2,0.3,0.3,0.5l0.1,0.2c0.1,0.2,0.3,0.4,0.5,0.6l0,0c0.1,0.2,0.3,0.3,0.4,0.5l0.1,0.1
			l0.2,0.2c0.1,0.2,0.3,0.3,0.4,0.5l0.1,0.1c0.2,0.2,0.4,0.4,0.6,0.6c0,0,0.1,0.1,0.1,0.1l0.6,0.5l0.2,0.2l0.6,0.4l0.1,0.1
			c0.2,0.2,0.5,0.3,0.8,0.5l0.2,0.1l0.4,0.2l0.4,0.2c0.3,0.2,0.7,0.4,1,0.6c0.1,0.1,0.2,0.1,0.3,0.2l0.7,0.4l0.4,0.2l0.7,0.3
			l0.5,0.2l0.7,0.3l0.5,0.2l0.7,0.2l0.5,0.2l0.7,0.2l0.5,0.1l0.8,0.2l0.4,0.1l1,0.2h0.2l1.3,0.2l0.4,0.1l0.9,0.1l0.5,0.1l0.8,0.1
			h0.5l0.8,0.1h0.5l0.8,0h0.6h0.8h1.4h0.5h1h0.3c0.6,0,1.1-0.1,1.7-0.1h0.4c0.5-0.1,1.1-0.1,1.6-0.2l0,0c0.5-0.1,1.1-0.2,1.6-0.3
			l0.4-0.1c0.5-0.1,1.1-0.2,1.6-0.3l0,0h0.1l1.3-0.3l0.4-0.1l1.2-0.4l0.3-0.1l1.4-0.5l0.3-0.1c0.4-0.2,0.7-0.3,1-0.5l0.2-0.1
			l0.1-0.1l0.8-0.4c0.1-0.1,0.2-0.1,0.4-0.2c0.4-0.2,0.7-0.4,1-0.6c5-2.9,7.5-6.7,7.6-10.5v-27.9
			C278.9,168.7,278.9,168.8,278.9,168.9z"/>
		
			<linearGradient id="SVGID_34_" gradientUnits="userSpaceOnUse" x1="2796.6277" y1="-329.4681" x2="2790.1377" y2="-370.6481" gradientTransform="matrix(1 0 0 -1 -2539.78 -114.33)">
			<stop  offset="0" style="stop-color:#0070E6"/>
			<stop  offset="1" style="stop-color:#00152B"/>
		</linearGradient>
		<path class="st38" d="M279.1,254.1c-10.1,5.8-24.5,7.6-37.2,5.3c-5.4-0.9-10.5-2.7-15.3-5.3c-7.3-4.2-11-9.8-11-15.3v4.2
			c0,5.5,3.6,11.1,11,15.3c4.8,2.6,9.9,4.4,15.3,5.3c12.8,2.3,27.2,0.5,37.2-5.3c1.9-1.1,3.6-2.3,5.2-3.8c3.7-3.5,5.6-7.4,5.6-11.3
			V239c0,3.9-1.9,7.9-5.6,11.3C282.7,251.8,280.9,253.1,279.1,254.1z"/>
		
			<linearGradient id="SVGID_35_" gradientUnits="userSpaceOnUse" x1="2795.6436" y1="-329.309" x2="2789.1536" y2="-370.489" gradientTransform="matrix(1 0 0 -1 -2539.78 -114.33)">
			<stop  offset="0" style="stop-color:#0070E6"/>
			<stop  offset="1" style="stop-color:#00152B"/>
		</linearGradient>
		<path class="st39" d="M279.1,247.7c-10.1,5.8-24.5,7.6-37.2,5.3c-5.4-0.9-10.5-2.7-15.3-5.3c-7.3-4.2-11-9.8-11-15.3v4.2
			c0,5.5,3.6,11.1,11,15.3c4.8,2.6,9.9,4.4,15.3,5.3c12.8,2.3,27.2,0.5,37.2-5.3c1.9-1.1,3.6-2.3,5.2-3.8c3.7-3.5,5.6-7.4,5.6-11.3
			v-4.2c0,3.9-1.9,7.9-5.6,11.3C282.7,245.4,280.9,246.7,279.1,247.7z"/>
		
			<linearGradient id="SVGID_36_" gradientUnits="userSpaceOnUse" x1="2794.6487" y1="-329.1583" x2="2788.1587" y2="-370.3282" gradientTransform="matrix(1 0 0 -1 -2539.78 -114.33)">
			<stop  offset="0" style="stop-color:#0070E6"/>
			<stop  offset="1" style="stop-color:#00152B"/>
		</linearGradient>
		<path class="st40" d="M279.1,241.3c-10.1,5.8-24.5,7.6-37.2,5.3c-5.4-0.9-10.5-2.7-15.3-5.3c-7.3-4.2-11-9.8-11-15.3v4.2
			c0,5.5,3.6,11.1,11,15.3c4.8,2.6,9.9,4.4,15.3,5.3c12.8,2.3,27.2,0.5,37.2-5.3c1.9-1.1,3.6-2.3,5.2-3.8c3.7-3.5,5.6-7.4,5.6-11.3
			v-4.2c0,3.9-1.9,7.9-5.6,11.3C282.7,238.9,280.9,240.2,279.1,241.3z"/>
		
			<linearGradient id="SVGID_37_" gradientUnits="userSpaceOnUse" x1="2793.6587" y1="-328.9982" x2="2787.1687" y2="-370.1782" gradientTransform="matrix(1 0 0 -1 -2539.78 -114.33)">
			<stop  offset="0" style="stop-color:#0070E6"/>
			<stop  offset="1" style="stop-color:#00152B"/>
		</linearGradient>
		<path class="st41" d="M279.1,234.8c-10.1,5.8-24.5,7.6-37.2,5.3c-5.4-0.9-10.5-2.7-15.3-5.3c-7.3-4.2-11-9.8-11-15.3v4.2
			c0,5.5,3.6,11.1,11,15.3c4.8,2.6,9.9,4.5,15.3,5.3c12.8,2.3,27.2,0.5,37.2-5.3c1.9-1.1,3.6-2.3,5.2-3.8c3.7-3.5,5.6-7.4,5.6-11.3
			v-4.1c0,3.9-1.9,7.9-5.6,11.3C282.7,232.5,280.9,233.8,279.1,234.8z"/>
		
			<linearGradient id="SVGID_38_" gradientUnits="userSpaceOnUse" x1="2792.6702" y1="-328.8385" x2="2786.1802" y2="-370.0185" gradientTransform="matrix(1 0 0 -1 -2539.78 -114.33)">
			<stop  offset="0" style="stop-color:#0070E6"/>
			<stop  offset="1" style="stop-color:#00152B"/>
		</linearGradient>
		<path class="st42" d="M279.1,228.4c-10.1,5.8-24.5,7.6-37.2,5.3c-5.4-0.9-10.5-2.7-15.3-5.3c-7.3-4.2-11-9.8-11-15.3v4.2
			c0,5.5,3.6,11.1,11,15.3c4.8,2.6,9.9,4.4,15.3,5.3c12.8,2.3,27.2,0.5,37.2-5.3c1.9-1.1,3.6-2.3,5.2-3.8c3.7-3.5,5.6-7.4,5.6-11.3
			v-4.2c0,3.9-1.9,7.9-5.6,11.3C282.7,226.1,280.9,227.3,279.1,228.4z"/>
		
			<linearGradient id="SVGID_39_" gradientUnits="userSpaceOnUse" x1="2791.6804" y1="-328.6885" x2="2785.1904" y2="-369.8585" gradientTransform="matrix(1 0 0 -1 -2539.78 -114.33)">
			<stop  offset="0" style="stop-color:#0070E6"/>
			<stop  offset="1" style="stop-color:#00152B"/>
		</linearGradient>
		<path class="st43" d="M279.1,222c-10.1,5.8-24.5,7.6-37.2,5.3c-5.4-0.9-10.5-2.7-15.3-5.3c-7.3-4.2-11-9.8-11-15.3v4.2
			c0,5.5,3.6,11.1,11,15.3c4.8,2.6,9.9,4.4,15.3,5.3c12.8,2.3,27.2,0.5,37.2-5.3c1.9-1.1,3.6-2.3,5.2-3.8c3.7-3.5,5.6-7.4,5.6-11.3
			v-4.2c0,3.9-1.9,7.9-5.6,11.3C282.7,219.6,280.9,220.9,279.1,222z"/>
		
			<linearGradient id="SVGID_40_" gradientUnits="userSpaceOnUse" x1="2790.6875" y1="-328.528" x2="2784.1975" y2="-369.708" gradientTransform="matrix(1 0 0 -1 -2539.78 -114.33)">
			<stop  offset="0" style="stop-color:#0070E6"/>
			<stop  offset="1" style="stop-color:#00152B"/>
		</linearGradient>
		<path class="st44" d="M226.5,219.7c4.8,2.6,9.9,4.4,15.3,5.3c12.8,2.3,27.2,0.5,37.2-5.3c1.9-1.1,3.6-2.3,5.2-3.8
			c3.7-3.5,5.6-7.4,5.6-11.3v-4.2c0,3.9-1.9,7.8-5.6,11.3c-1.6,1.5-3.3,2.7-5.2,3.8c-10.1,5.8-24.5,7.6-37.2,5.3
			c-5.4-0.9-10.5-2.7-15.3-5.3c-7.3-4.2-11-9.8-11-15.3v4.2C215.5,209.9,219.2,215.5,226.5,219.7z"/>
		
			<linearGradient id="SVGID_41_" gradientUnits="userSpaceOnUse" x1="305.0823" y1="259.4587" x2="277.7123" y2="207.9588" gradientTransform="matrix(1 0 0 -1 0 315.86)">
			<stop  offset="0" style="stop-color:#0070E6"/>
			<stop  offset="1" style="stop-color:#00152B"/>
		</linearGradient>
		<polygon class="st45" points="186.2,12.3 186.2,36.6 394.2,156.6 394.2,132.4 		"/>
		
			<linearGradient id="SVGID_42_" gradientUnits="userSpaceOnUse" x1="300.805" y1="206.25" x2="300.805" y2="325.37" gradientTransform="matrix(1 0 0 -1 0 315.86)">
			<stop  offset="0" style="stop-color:#0070E6"/>
			<stop  offset="1" style="stop-color:#A5C5FF"/>
		</linearGradient>
		<polygon class="st46" points="207.4,0 186.2,12.3 394.2,132.4 415.4,120.1 		"/>
		
			<linearGradient id="SVGID_43_" gradientUnits="userSpaceOnUse" x1="280.5296" y1="296.4398" x2="354.3996" y2="126.0598" gradientTransform="matrix(1 0 0 -1 0 315.86)">
			<stop  offset="0" style="stop-color:#0070E6"/>
			<stop  offset="1" style="stop-color:#A5C5FF"/>
		</linearGradient>
		<polygon class="st47" points="190.2,12.3 207.4,2.3 411.4,120.1 394.2,130.1 		"/>
		
			<linearGradient id="SVGID_44_" gradientUnits="userSpaceOnUse" x1="404.3782" y1="167.2901" x2="405.5582" y2="195.8401" gradientTransform="matrix(1 0 0 -1 0 315.86)">
			<stop  offset="0" style="stop-color:#0070E6"/>
			<stop  offset="1" style="stop-color:#A5C5FF"/>
		</linearGradient>
		<polygon class="st48" points="394.2,156.6 394.2,132.4 415.4,120.1 415.4,144.4 		"/>
		<path class="st24" d="M264.2,167.9c-0.2-0.8-0.8-2.4-0.8-2.4L221.2,38.1l0,0c-3.6-11.8-12.4-20.9-19.8-20.5
			c-1.4,0.1-2.7,0.5-3.8,1.2l0,0l-5.3,3.5l2.1,0.4c-1.9,4-2.1,10.1-0.3,16.7l0,0l32.6,127.8l0,0c0.2,0.8,0.4,1.6,0.6,2.4
			c4.8,16.4,17,29.2,27.2,28.7c0.5,0,0.9-0.1,1.4-0.2l-0.6,1.4l4.4-2.8l0,0l0,0C265.9,192.6,268.1,181.1,264.2,167.9z M210.4,48.5
			c-3.1,0.2-6.9-3.8-8.4-8.9s-0.1-9.3,3-9.5s6.9,3.8,8.4,8.9S213.6,48.4,210.4,48.5z M250.1,183.9c-5.2,0.3-11.4-6.3-13.8-14.6
			s-0.2-15.3,5-15.6s11.4,6.3,13.8,14.6S255.3,183.6,250.1,183.9z"/>
		
			<linearGradient id="SVGID_45_" gradientUnits="userSpaceOnUse" x1="3004.9473" y1="-343.8236" x2="3052.0972" y2="-343.8236" gradientTransform="matrix(0.78 -4.000000e-02 -0.37 -1.26 -2276.386 -200.2782)">
			<stop  offset="0" style="stop-color:#D9C539"/>
			<stop  offset="1" style="stop-color:#B0A002"/>
		</linearGradient>
		<path class="st49" d="M258.3,168.7L216.1,41.4l0,0c-3.6-11.8-12.4-20.9-19.8-20.5s-10.6,10.1-7.4,21.9l0,0l32.6,127.8l0,0
			c0.2,0.8,0.4,1.6,0.6,2.4c4.8,16.4,17,29.2,27.2,28.7s14.6-14.2,9.8-30.6C258.8,170.4,258.3,168.7,258.3,168.7z"/>
		<path class="st31" d="M200,33.6c3.2-0.2,6.9,3.8,8.4,8.9s0.1,9.3-3,9.5s-6.9-3.8-8.4-8.9S196.8,33.7,200,33.6z"/>
		
			<linearGradient id="SVGID_46_" gradientUnits="userSpaceOnUse" x1="2768.02" y1="-286.4653" x2="2792.7515" y2="-286.4653" gradientTransform="matrix(1 0 0 -1 -2539.78 -114.33)">
			<stop  offset="0" style="stop-color:#0070E6"/>
			<stop  offset="1" style="stop-color:#00152B"/>
		</linearGradient>
		<path class="st50" d="M245.9,190.1c-6.2,0.3-13.5-7.5-16.4-17.4s-0.2-18.2,5.9-18.5s13.5,7.5,16.4,17.4S252.1,189.7,245.9,190.1z"
			/>
		<path class="st31" d="M245,187.2c-5.2,0.3-11.4-6.3-13.8-14.6s-0.2-15.3,5-15.6s11.4,6.3,13.8,14.6S250.2,187,245,187.2z"/>
		<path class="st51" d="M404.6,117.6L404.6,117.6v-4.6H381v4.7l0,0c0,1.7,1.2,3.5,3.5,4.8c4.6,2.7,12.1,2.7,16.6,0
			C403.4,121.1,404.6,119.3,404.6,117.6L404.6,117.6L404.6,117.6z"/>
		<path class="st52" d="M401.1,108.1c4.6,2.7,4.6,7,0.1,9.6s-12,2.7-16.6,0s-4.6-7-0.1-9.6S396.5,105.4,401.1,108.1z"/>
		
			<linearGradient id="SVGID_47_" gradientUnits="userSpaceOnUse" x1="2932.6279" y1="-213.15" x2="2932.698" y2="-225.41" gradientTransform="matrix(1 0 0 -1 -2539.78 -114.33)">
			<stop  offset="0" style="stop-color:#D9C539"/>
			<stop  offset="1" style="stop-color:#B0A002"/>
		</linearGradient>
		<path class="st53" d="M401.1,103c0-0.3,0-0.7-0.1-1c-0.5-4.5-4.6-7.6-9.1-7.1c-3.7,0.5-6.6,3.4-7.1,7.1c-0.1,0.3-0.1,0.6-0.1,0.9
			l0,0v8.9c0,0.1,0,0.2,0,0.2s0,0.1,0,0.1s0,0.1,0,0.1c0,0,0,0.1,0,0.1v0.1v0.1c0,0,0,0.1,0,0.1l0,0c0,0.1,0,0.1,0.1,0.2
			c0,0,0,0,0,0.1c0,0,0.1,0.1,0.1,0.2l0,0c0,0.1,0.1,0.1,0.1,0.2l0,0l0.1,0.2l0,0l0.1,0.2l0,0l0.1,0.2l0,0v0l0.1,0.2l0,0l0.2,0.2
			l0,0l0.2,0.1h0.1l0.2,0.1h0.1l0.2,0.2h0.1l0.1,0.1l0.1,0.1c0.1,0.1,0.2,0.1,0.3,0.2l0.1,0.1l0.2,0.1l0.1,0.1l0.2,0.1l0.1,0.1
			l0.2,0.1h0.2l0.2,0.1h0.2l0.2,0.1h0.1l0.3,0.1h0.1l0.3,0.1h0.1l0.4,0.1h0.1l0.3,0h0.1h0.3h0.2h0.2h1.9h0.5h0.1
			c0.2,0,0.3,0,0.5-0.1l0,0l0.5-0.1h0.1l0.5-0.1l0,0l0.4-0.1h0.1l0.4-0.1h0.1l0.4-0.2h0.1l0.3-0.1h0.1h0.1l0.2-0.1h0.1l0.3-0.2
			c1.6-0.9,2.4-2.1,2.4-3.3v-8.8L401.1,103z"/>
		
			<linearGradient id="SVGID_48_" gradientUnits="userSpaceOnUse" x1="4084.2722" y1="-529.624" x2="4136.4819" y2="-484.0839" gradientTransform="matrix(-1 0 0 -1 4234.1904 -114.33)">
			<stop  offset="0" style="stop-color:#0070E6"/>
			<stop  offset="1" style="stop-color:#00152B"/>
		</linearGradient>
		<path class="st54" d="M83.1,379.7v-27.3c0.2,2.4,1.9,4.8,5.1,6.6l55.6,32.4c3.8,2,8.1,3.1,12.4,3v28.3c-4.3,0.1-8.6-0.9-12.4-2.9
			l-55.6-32.4C84.6,385.3,82.9,382.5,83.1,379.7z"/>
		
			<linearGradient id="SVGID_49_" gradientUnits="userSpaceOnUse" x1="4068.9631" y1="-558.8136" x2="4019.6233" y2="-456.3036" gradientTransform="matrix(-1 0 0 -1 4234.1904 -114.33)">
			<stop  offset="0" style="stop-color:#0070E6"/>
			<stop  offset="1" style="stop-color:#00152B"/>
		</linearGradient>
		<path class="st55" d="M168.6,391.4l54.6-31.5c3.4-2,5.1-4.5,5.1-7.1l0,0v28.3c0,2.6-1.7,5.2-5.1,7.2l-54.6,31.5
			c-3.8,2-8.1,3-12.4,2.9v-28.3C160.5,394.4,164.7,393.4,168.6,391.4z"/>
		
			<linearGradient id="SVGID_50_" gradientUnits="userSpaceOnUse" x1="4089.6543" y1="-456.7738" x2="4033.4043" y2="-506.6038" gradientTransform="matrix(-1 0 0 -1 4234.1904 -114.33)">
			<stop  offset="0" style="stop-color:#0070E6"/>
			<stop  offset="1" style="stop-color:#A5C5FF"/>
		</linearGradient>
		<path class="st56" d="M142.8,313.2c6.8-3.9,18-3.9,24.8,0l55.6,32.4c6.8,4,6.8,10.4,0,14.3l-54.6,31.5c-6.8,3.9-18,3.9-24.8,0
			l-55.6-32.4c-6.8-3.9-6.8-10.4,0-14.3L142.8,313.2z"/>
		<path class="st11" d="M156.2,391.4c3.8,0.1,7.5-0.8,10.9-2.5l54.6-31.5c2.3-1.3,3.6-3,3.6-4.6s-1.3-3.2-3.6-4.6l-55.6-32.4
			c-6.9-3.4-14.9-3.4-21.8,0l-54.6,31.5c-2.3,1.3-3.6,3-3.6,4.6s1.3,3.2,3.6,4.6l55.6,32.4C148.6,390.6,152.4,391.5,156.2,391.4z"/>
		
			<linearGradient id="SVGID_51_" gradientUnits="userSpaceOnUse" x1="4035.4895" y1="-521.0024" x2="4153.8794" y2="-356.3524" gradientTransform="matrix(-1 0 0 -1 4232.6504 -114.33)">
			<stop  offset="0" style="stop-color:#0070E6"/>
			<stop  offset="1" style="stop-color:#A5C5FF"/>
		</linearGradient>
		<path class="st57" d="M143.8,399.1c6.8,3.9,18,3.9,24.8,0l54.6-31.5c3.4-2,5.1-4.5,5.1-7.1l0,0v14.6c0,2.6-1.7,5.2-5.1,7.2
			l-54.6,31.5c-6.8,3.9-18,3.9-24.8,0l-10-5.8v-14.6L143.8,399.1z"/>
		
			<linearGradient id="SVGID_52_" gradientUnits="userSpaceOnUse" x1="4013.6772" y1="-490.6645" x2="4049.2273" y2="-512.6146" gradientTransform="matrix(-1 0 0 -1 4232.6504 -114.33)">
			<stop  offset="0" style="stop-color:#38D611"/>
			<stop  offset="1" style="stop-color:#BCF0A7"/>
		</linearGradient>
		<path class="st58" d="M167,406l45.4-26.3c0.5-0.3,0.9,0,0.9,0.7v0.8c0,0.7-0.3,1.3-0.9,1.7L167,409.2c-0.5,0.3-0.9,0-0.9-0.7v-0.8
			C166.1,407,166.5,406.4,167,406z"/>
		
			<linearGradient id="SVGID_53_" gradientUnits="userSpaceOnUse" x1="4013.1438" y1="-491.5276" x2="4048.6638" y2="-513.4677" gradientTransform="matrix(-1 0 0 -1 4232.6504 -114.33)">
			<stop  offset="0" style="stop-color:#38D611"/>
			<stop  offset="1" style="stop-color:#BCF0A7"/>
		</linearGradient>
		<path class="st59" d="M217.2,377.1c0.6-0.4,1.2,0,1.2,0.9c0,0.9-0.4,1.7-1.2,2.2c-0.6,0.4-1.1,0-1.1-0.9
			C216.1,378.4,216.5,377.6,217.2,377.1z"/>
		
			<linearGradient id="SVGID_54_" gradientUnits="userSpaceOnUse" x1="4013.072" y1="-491.647" x2="4048.6221" y2="-513.597" gradientTransform="matrix(-1 0 0 -1 4232.6504 -114.33)">
			<stop  offset="0" style="stop-color:#38D611"/>
			<stop  offset="1" style="stop-color:#BCF0A7"/>
		</linearGradient>
		<path class="st60" d="M220.6,375.1c0.6-0.4,1.2,0,1.2,0.9c0,0.9-0.4,1.7-1.2,2.2c-0.6,0.4-1.2,0-1.2-0.9
			C219.5,376.5,219.9,375.7,220.6,375.1z"/>
		
			<linearGradient id="SVGID_55_" gradientUnits="userSpaceOnUse" x1="3977.6433" y1="-590.3124" x2="4029.8535" y2="-544.7824" gradientTransform="matrix(-1 0 0 -1 4234.1904 -114.33)">
			<stop  offset="0" style="stop-color:#0070E6"/>
			<stop  offset="1" style="stop-color:#00152B"/>
		</linearGradient>
		<path class="st61" d="M189.7,440.4v-27.3c0.2,2.4,1.9,4.8,5.1,6.6l55.6,32.4c3.8,2,8.1,3,12.4,2.9v28.3c-4.3,0.1-8.6-1-12.4-3
			l-55.6-32.4C191.2,446,189.5,443.2,189.7,440.4z"/>
		
			<linearGradient id="SVGID_56_" gradientUnits="userSpaceOnUse" x1="3962.2957" y1="-619.5514" x2="3912.9456" y2="-517.0514" gradientTransform="matrix(-1 0 0 -1 4234.1904 -114.33)">
			<stop  offset="0" style="stop-color:#0070E6"/>
			<stop  offset="1" style="stop-color:#00152B"/>
		</linearGradient>
		<path class="st62" d="M275.2,452.2l54.6-31.5c3.4-2,5.1-4.5,5.1-7.1l0,0v28.3c0,2.6-1.7,5.2-5.1,7.2l-54.6,31.5
			c-3.8,2-8.1,3.1-12.4,3v-28.3C267.1,455.2,271.4,454.2,275.2,452.2z"/>
		
			<linearGradient id="SVGID_57_" gradientUnits="userSpaceOnUse" x1="3983.0427" y1="-517.4917" x2="3926.7827" y2="-567.3116" gradientTransform="matrix(-1 0 0 -1 4234.1904 -114.33)">
			<stop  offset="0" style="stop-color:#0070E6"/>
			<stop  offset="1" style="stop-color:#A5C5FF"/>
		</linearGradient>
		<path class="st63" d="M249.4,373.9c6.8-3.9,18-3.9,24.8,0l55.6,32.4c6.8,4,6.8,10.4,0,14.3l-54.6,31.5c-6.8,3.9-18,3.9-24.8,0
			l-55.6-32.4c-6.8-3.9-6.8-10.4,0-14.3L249.4,373.9z"/>
		<path class="st11" d="M262.8,452.1c3.8,0.1,7.5-0.8,10.9-2.6l54.6-31.5c2.3-1.3,3.6-3,3.6-4.6s-1.3-3.2-3.6-4.6l-55.6-32.4
			c-6.9-3.4-14.9-3.4-21.8,0L196.3,408c-2.3,1.3-3.6,3-3.6,4.6s1.3,3.2,3.6,4.6l55.6,32.4C255.2,451.3,259,452.2,262.8,452.1z"/>
		
			<linearGradient id="SVGID_58_" gradientUnits="userSpaceOnUse" x1="3928.866" y1="-581.7128" x2="4047.2461" y2="-417.0528" gradientTransform="matrix(-1 0 0 -1 4232.6504 -114.33)">
			<stop  offset="0" style="stop-color:#0070E6"/>
			<stop  offset="1" style="stop-color:#A5C5FF"/>
		</linearGradient>
		<path class="st64" d="M250.4,459.8c6.8,3.9,18,3.9,24.8,0l54.6-31.5c3.4-2,5.1-4.5,5.1-7.1l0,0v14.6c0,2.6-1.7,5.2-5.1,7.2
			l-54.6,31.5c-6.8,3.9-18,3.9-24.8,0l-10-5.8V454L250.4,459.8z"/>
		
			<linearGradient id="SVGID_59_" gradientUnits="userSpaceOnUse" x1="3907.0493" y1="-551.4135" x2="3942.5894" y2="-573.3635" gradientTransform="matrix(-1 0 0 -1 4232.6504 -114.33)">
			<stop  offset="0" style="stop-color:#38D611"/>
			<stop  offset="1" style="stop-color:#BCF0A7"/>
		</linearGradient>
		<path class="st65" d="M273.6,466.7l45.4-26.3c0.5-0.3,0.9,0,0.9,0.7v0.8c0,0.7-0.3,1.3-0.9,1.7l-45.4,26.3c-0.5,0.3-0.9,0-0.9-0.7
			v-0.8C272.7,467.8,273.1,467.1,273.6,466.7z"/>
		
			<linearGradient id="SVGID_60_" gradientUnits="userSpaceOnUse" x1="3906.5198" y1="-552.2703" x2="3942.0498" y2="-574.2104" gradientTransform="matrix(-1 0 0 -1 4232.6504 -114.33)">
			<stop  offset="0" style="stop-color:#38D611"/>
			<stop  offset="1" style="stop-color:#BCF0A7"/>
		</linearGradient>
		<path class="st66" d="M323.9,437.8c0.6-0.4,1.1,0,1.1,0.9c0,0.9-0.4,1.7-1.1,2.2c-0.6,0.4-1.1,0-1.1-0.9
			C322.7,439.1,323.2,438.3,323.9,437.8z"/>
		
			<linearGradient id="SVGID_61_" gradientUnits="userSpaceOnUse" x1="3906.4617" y1="-552.3671" x2="3942.0017" y2="-574.3171" gradientTransform="matrix(-1 0 0 -1 4232.6504 -114.33)">
			<stop  offset="0" style="stop-color:#38D611"/>
			<stop  offset="1" style="stop-color:#BCF0A7"/>
		</linearGradient>
		<path class="st67" d="M327.2,435.9c0.6-0.4,1.2,0,1.2,0.9c0,0.9-0.4,1.7-1.2,2.2c-0.6,0.4-1.2,0-1.2-0.9
			C326.1,437.2,326.5,436.4,327.2,435.9z"/>
	</g>
</g>
</svg>
