<svg xmlns="http://www.w3.org/2000/svg" width="169" height="169"><g fill="none" fill-rule="evenodd"><path stroke="#FFF" stroke-width="2" d="M86.625 113.324l5.76-15.738m-1.594 15.738l6.67-18.222m-2.506 18.222l6.764-18.222m-2.598 18.222l6.52-17.81m-2.354 17.81l5.76-15.738m-1.596 15.738l5.348-14.605m-1.182 14.605l4.293-11.726m-.127 11.726l2.672-7.303m32.125 8.672v-2.5"/><path stroke="#FFF" stroke-dasharray="6.07" stroke-width="2" d="M150.58 106.123V97.02"/><path stroke="#FFF" stroke-width="2" d="M150.58 93.982v-2.5"/><path stroke="#FFF" stroke-dasharray="4.745" stroke-width="2" d="M150.579 95.351a8.462 8.462 0 1 0 0-16.924 8.462 8.462 0 0 0 0 16.924z"/><path stroke="#FFF" stroke-width="2" d="M34.634 113.357h-2.5"/><path stroke="#FFF" stroke-dasharray="5.044" stroke-width="2" d="M29.107 113.357H14.479"/><path stroke="#FFF" stroke-width="2" d="M12.967 113.357h-2.5v.537c.725.402 1.456.803 2.194 1.193"/><path stroke="#FFF" stroke-dasharray="5.1" stroke-width="2" d="M15.378 116.494c19.725 9.906 43.76 15.721 69.696 15.721 26.406 0 50.842-6.027 70.766-16.264"/><path stroke="#FFF" stroke-width="2" d="M157.201 115.242a135.1 135.1 0 0 0 2.196-1.189v-.695h-2.5"/><path stroke="#FFF" stroke-dasharray="4.041" stroke-width="2" d="M154.473 113.357h-11.719"/><path stroke="#FFF" stroke-width="2" d="M141.543 113.357h-2.5m-57.192.459c0-13.641 11.125-24.697 24.85-24.697 13.723 0 24.848 11.057 24.848 24.697"/><path stroke="#FFF" stroke-dasharray="5" stroke-width=".75" d="M150.579 91.724a4.835 4.835 0 1 0 0-9.67 4.835 4.835 0 0 0 0 9.67z"/><path stroke="#FFF" stroke-width="2" d="M55.642 129.646v2.67h9.675v-1.336m48.581-1.334v2.67h-9.675v-1.336m-41.186 1.336v2.5"/><path stroke="#FFF" stroke-dasharray="3.782" stroke-width="2" d="M63.037 137.086v1.195c-.027 1.182-.416 2.467-.881 3.602"/><path stroke="#FFF" stroke-width="2" d="M61.693 142.918c-.617 1.279-1.213 2.182-1.213 2.182s-.598-.902-1.215-2.182"/><path stroke="#FFF" stroke-dasharray="3.782" stroke-width="2" d="M58.409 140.814c-.272-.836-.467-1.709-.486-2.533v-2.33"/><path stroke="#FFF" stroke-width="2" d="M57.922 134.816v-2.5m53.696.426v2.5"/><path stroke="#FFF" stroke-dasharray="3.782" stroke-width="2" d="M111.618 137.512v1.195c-.028 1.182-.416 2.469-.881 3.602"/><path stroke="#FFF" stroke-width="2" d="M110.275 143.344c-.617 1.279-1.215 2.182-1.215 2.182s-.597-.902-1.214-2.182"/><path stroke="#FFF" stroke-dasharray="3.782" stroke-width="2" d="M106.989 141.242c-.272-.838-.467-1.711-.485-2.535v-2.33"/><path stroke="#FFF" stroke-width="2" d="M106.504 135.242v-2.5m12.54-47.028l-.002-2.5"/><path stroke="#FFF" stroke-dasharray="5.362" stroke-width="2" d="M119.037 77.852l-.019-18.769"/><path stroke="#FFF" stroke-width="2" d="M119.015 56.403l-.002-2.5"/><path stroke="#FFF" stroke-dasharray="4.745" stroke-width="2" d="M119.043 57.849a8.462 8.462 0 1 0 0-16.924 8.462 8.462 0 0 0 0 16.924z"/><path stroke="#FFF" stroke-dasharray="5" stroke-width=".75" d="M119.043 54.222a4.835 4.835 0 1 0 0-9.67 4.835 4.835 0 0 0 0 9.67z"/><path stroke="#FFF" stroke-width="2" d="M93.018 86.09v-2.5"/><path stroke="#FFF" stroke-dasharray="4.943" stroke-width="2" d="M93.018 80.625V46.659a3.41 3.41 0 0 0-3.41-3.41H68.3a3.409 3.409 0 0 0-3.409 3.41v59.087"/><path stroke="#FFF" stroke-width="2" d="M64.891 107.229v2.5-2.5zm-4-22.072H40.765a4 4 0 0 0-4 4v20.127a4 4 0 0 0 4 4h20.126a4 4 0 0 0 4-4V89.157a4 4 0 0 0-4-4z"/><path stroke="#FFF" stroke-dasharray="5" stroke-width=".75" d="M86.198 43.675H21.849m15.129-14.347V86.93m56.465-57.602v15.341"/><path stroke="#FFF" stroke-width=".75" d="M43.798 29.328h43.89"/><path fill="#FFF" fill-rule="nonzero" d="M45.905 32.105l-1.179-2.777 1.179-2.778-6.584 2.778 6.584 2.777zm39.676 0l1.181-2.777-1.181-2.778 6.584 2.778-6.584 2.777z"/><path stroke="#FFF" stroke-width=".75" d="M21.849 51.278v54.968"/><path fill="#FFF" fill-rule="nonzero" d="M19.072 53.384l2.777-1.179 2.777 1.179-2.777-6.584-2.777 6.584zm0 50.757l2.777 1.179 2.777-1.179-2.777 6.584-2.777-6.584z"/><path stroke="#FFF" stroke-width="2" d="M76.568 113.283c0-16.555 13.42-29.975 29.977-29.975 16.554 0 29.975 13.42 29.975 29.975H76.568z"/><path stroke="#FFF" stroke-dasharray="5" stroke-width="2" d="M64.891 109.02v4.261h10.228"/></g></svg>