<svg xmlns="http://www.w3.org/2000/svg" xmlns:xlink="http://www.w3.org/1999/xlink" width="284" height="268" viewBox="0 0 284 268">
    <defs>
        <path id="a" d="M0 .702h3.798v3.802H0z"/>
        <path id="c" d="M0 .702h3.798v3.802H0z"/>
        <path id="e" d="M.075.55h3.798v3.802H.075z"/>
        <path id="g" d="M.183.32h9.884v9.895H.183z"/>
        <path id="i" d="M79.908 12.47L40.233 35.427.698 12.572 22.006.244l18.297 10.572L58.678.198z"/>
        <linearGradient id="j" x1="0%" x2="100.016%" y1="50.002%" y2="50.002%">
            <stop offset="0%" stop-color="#304A6C"/>
            <stop offset="100%" stop-color="#38D611"/>
        </linearGradient>
        <path id="l" d="M37.968 32.93L19.353 43.69.74 32.93V11.413L19.353.653l18.615 10.76z"/>
        <linearGradient id="m" x1="-.143%" y1="49.996%" y2="49.996%">
            <stop offset="0%" stop-color="#304A6C"/>
            <stop offset="100%" stop-color="#FA0171"/>
        </linearGradient>
        <path id="o" d="M37.968 32.979L19.353 43.737.74 32.979V11.46L19.353.701l18.615 10.76z"/>
        <path id="q" d="M37.968 32.687L19.353 43.446.74 32.687V11.17L19.353.41 37.968 11.17z"/>
        <path id="s" d="M37.808 32.94L19.194 43.7.58 32.94V11.424L19.194.663l18.614 10.76z"/>
        <path id="u" d="M37.857 32.522L19.24 43.281.627 32.522V11.004L19.241.244l18.616 10.76z"/>
    </defs>
    <g fill="none" fill-rule="evenodd">
        <g fill="#FFF" opacity=".5">
            <path d="M41.749 93.434l19.576 11.314 19.574-11.314V70.806L61.325 59.493 41.749 70.806v22.628zm19.576 11.764L41.36 93.658V70.583l19.964-11.538 19.962 11.538v23.077l-19.962 11.54z"/>
            <path d="M61.518 104.987h-.388V82.232L21.592 59.38V44.355h.388v14.8l39.538 22.853z"/>
            <path d="M41.652 93.715l-.194-.337 39.538-22.853.194.338z"/>
            <path d="M80.996 93.715L61.227 82.289l.194-.337 19.77 11.426zM120.632 139.47l-19.964-11.54v-23.077l19.867-11.482.194.337-19.673 11.37v22.628l19.576 11.314 19.575-11.314v-22.74h.388v22.965z"/>
            <path d="M120.826 162.366h-.388v-45.861l-19.673-11.371.194-.336 19.867 11.482z"/>
            <path d="M100.96 127.987l-.194-.337 39.538-22.853.194.337z"/>
            <path d="M160.498 140.272L140.3 127.985l-19.765-11.424.194-.337 19.77 11.426 19.611 11.931V93.323l19.867-11.483.194.337-19.673 11.37zM81.287 93.427l19.576 11.314 19.575-11.314V70.8l-19.575-11.315L81.287 70.8v22.627zm19.576 11.764L80.899 93.65V70.576l19.964-11.539 19.963 11.539v23.077l-19.963 11.539z"/>
            <path d="M81.19 93.708l-.194-.337 39.539-22.852 20.06-10.889v22.483h-.388v-21.83l-19.483 10.575zM41.458 139.42l-19.867-11.482V104.86l19.964-11.54 19.964 11.54v22.964h-.388v-22.74L41.555 93.772l-19.576 11.315v22.627l19.673 11.37z"/>
            <path d="M41.749 139.266h-.388v-22.754l-19.673-11.37-13.526-7.575.302-.17 13.227-7.38.19.34-12.924 7.21 12.924 7.237 19.868 11.483z"/>
            <path d="M1.705 162.695V139.84h.388v22.198l19.499-10.79v-23.534l39.635-22.908.194.337-39.441 22.796v23.538z"/>
            <path d="M61.227 127.994l-19.77-11.426.195-.337 19.77 11.426z"/>
            <path d="M61.518 127.706l19.575 11.314 19.576-11.314v-22.628L81.093 93.764l-19.575 11.314v22.628zm19.575 11.764L61.13 127.93v-23.077l19.963-11.538 19.964 11.538v23.078L81.093 139.47z"/>
            <path d="M81.092 163.109l-20.147-11.875L80.9 139.15v-22.645l-19.672-11.371.194-.336 19.866 11.482v23.088l-.093.057-19.49 11.804 19.39 11.43 19.671-11.466.195.336z"/>
            <path d="M61.421 127.987l-.194-.337 39.539-22.853.194.337zM8.656 67.051l-.194-.337L21.69 59.1l.194.336zM8.366 112.52h.388V97.567h-.388zM61.13 59.601V36.263h.388v22.672L80.9 47.933V25.254h.388V48.16l-.098.056zM120.535 93.708l-19.867-11.482V44.244l13.646-8.019.197.336-13.455 7.906V82l19.673 11.37zM140.27 60.188l-18.714-10.605.262-.464 18.714 10.605zM41.461 162.536l-19.77-11.005.189-.34 19.769 11.006zM232.957 181.53l19.576 11.314 19.575-11.314v-22.628l-19.575-11.314-19.576 11.314v22.628zm19.576 11.763l-19.964-11.538v-23.078l19.964-11.538 19.963 11.538v23.078l-19.963 11.538z"/>
            <path d="M232.86 181.81l-.194-.336 39.539-22.853.194.337z"/>
            <path d="M232.666 227.516L212.8 216.034v-23.078l19.963-11.538 19.964 11.538v22.965h-.388v-22.74l-19.576-11.314-19.575 11.314v22.628l19.672 11.37z"/>
            <path d="M232.957 227.362h-.388v-22.755l-19.672-11.37-13.225-7.405.19-.338 13.227 7.406 19.868 11.482z"/>
            <path d="M213.188 238.68h-.388v-22.87l39.538-22.853v-22.762h.388v22.986l-39.538 22.853z"/>
            <path d="M252.435 216.09l-19.77-11.427.195-.337 19.77 11.427zM200.036 70.477l19.576 11.314 19.575-11.314V47.85l-19.575-11.314-19.576 11.314v22.628zm19.576 11.763L199.65 70.702V47.624l19.963-11.538 19.963 11.538v23.078L219.612 82.24z"/>
            <path d="M219.806 82.03h-.388V59.05l39.539-22.852v-14.8h.388v15.025l-39.539 22.852z"/>
            <path d="M239.284 70.758l-39.538-22.853.194-.337 39.538 22.853z"/>
            <path d="M199.94 70.758l-.194-.337 19.77-11.427.193.337zM160.304 116.512l-19.963-11.538V82.009h.388v22.74l19.575 11.314 19.576-11.315V82.121l-19.673-11.37.194-.338 19.867 11.483v23.078z"/>
            <path d="M179.977 105.03l-39.539-22.853.194-.337 39.539 22.852z"/>
            <path d="M140.632 105.03l-.194-.338 19.77-11.426.194.337zM160.498 70.47l19.576 11.314 19.574-11.314V47.842l-19.574-11.314-19.576 11.314V70.47zm19.576 11.764l-19.964-11.54V47.617l19.964-11.538 19.962 11.538v23.077l-19.962 11.54z"/>
            <path d="M199.611 70.75l-39.538-22.852-19.478-10.572v22.607h-.388v-23.26l20.056 10.886 39.542 22.854zM239.478 116.463l-.194-.337 19.672-11.37V82.129l-19.575-11.314-19.575 11.314v22.74h-.388V81.904l19.963-11.54 19.963 11.54v23.077z"/>
            <path d="M239.575 116.308h-.388V93.33l19.866-11.482 12.926-7.238-12.924-7.21.19-.339 13.53 7.55-13.53 7.575-19.67 11.369z"/>
            <path d="M279.231 139.738l-20.274-11.22v-23.537l-39.442-22.797.194-.336 39.635 22.908v23.533l19.5 10.79v-22.198h.387z"/>
            <path d="M219.709 105.037l-.194-.337 19.77-11.427.194.337z"/>
            <path d="M180.268 104.749l19.575 11.314 19.575-11.314V82.12l-19.575-11.314-19.575 11.314v22.628zm19.575 11.764l-19.963-11.54V81.896l19.963-11.538 19.963 11.538v23.077l-19.963 11.54z"/>
            <path d="M199.843 140.152l-.098-.057-19.845-11.568.196-.335 19.746 11.51 19.39-11.43-19.583-11.86v-23.09l19.866-11.481.194.336-19.672 11.37v22.645l19.954 12.085z"/>
            <path d="M219.515 105.03l-39.538-22.853.194-.337 39.538 22.852zM219.806 36.643l-.29-.164-19.867-11.278V2.297h.387l.001 22.678 19.381 11.003V13.306h.388zM160.401 70.75l-.194-.337 19.673-11.37V21.51l-13.455-7.906.197-.335 13.646 8.018v37.982zM140.504 37.164l-.207-.33 12.928-8.148.206.33zM101.116 219.997l19.575 11.313 19.575-11.313v-22.629l-19.575-11.313-19.575 11.313v22.629zm19.575 11.763l-19.963-11.539v-23.077l19.963-11.538 19.963 11.538v23.077L120.69 231.76z"/>
            <path d="M81.346 246.448h-.388v-15.025l39.538-22.853v-22.754h.388v22.979l-39.538 22.852z"/>
            <path d="M140.363 220.277l-39.538-22.853.194-.337 39.538 22.853z"/>
            <path d="M120.787 208.851l-.194-.337 19.77-11.427.194.337zM179.901 197.432l-19.866-11.483v-23.077l19.963-11.538 19.964 11.538v22.965h-.388v-22.74l-19.576-11.314-19.575 11.314v22.628l19.672 11.37z"/>
            <path d="M160.326 186.005l-.194-.337 19.672-11.37V128.36h.388v46.164z"/>
            <path d="M199.67 186.005l-39.538-22.852.194-.337 39.538 22.852z"/>
            <path d="M180.095 174.58l-.194-.338 19.77-11.426 13.58-8.263.202.332-13.585 8.266zM140.654 220.004l19.576 11.314 19.574-11.314v-22.628l-19.574-11.314-19.576 11.314v22.628zm19.576 11.764l-19.964-11.54v-23.077l19.964-11.538 19.962 11.538v23.077l-19.962 11.54z"/>
            <path d="M212.9 238.37l-18.16-10.03-14.834-8.053-39.543-22.855.194-.337 39.538 22.852 14.832 8.051 18.161 10.032zM100.922 197.48l-19.964-11.538v-22.964h.388v22.74l19.576 11.314 19.575-11.315v-22.74h.388v22.965z"/>
            <path d="M81.058 200.786l-13.53-7.55 13.53-7.575 19.67-11.37v-22.753h.388v22.978l-19.867 11.482-12.926 7.238 12.924 7.21z"/>
            <path d="M101.019 174.572l-.194-.337 19.769-11.426.194.337z"/>
            <path d="M120.884 185.724l19.576 11.315 19.575-11.315v-22.627l-19.575-11.314-19.576 11.314v22.627zm19.576 11.765l-19.964-11.54v-23.077l19.964-11.538 19.963 11.538v23.077l-19.963 11.54z"/>
            <path d="M120.787 186.005l-.194-.337 19.673-11.37v-22.645l-19.676-11.916.201-.332 19.863 12.03v23.088z"/>
            <path d="M160.132 186.005l-39.538-22.852.194-.337 39.538 22.852zM81.055 231.704l-13.227-7.616.194-.336 13.227 7.614zM67.732 193.237h.388v-14.954h-.388zM140.654 265.549h-.388V242.87l-19.382-11.003v22.67h-.388v-23.336l.29.164 19.868 11.28zM173.68 254.578l-13.645-8.018v-37.983l19.866-11.482.194.337-19.672 11.37v37.535l13.455 7.905zM272.205 181.81l-39.539-22.852.194-.337 39.539 22.853z"/>
        </g>
        <g opacity=".5">
            <path fill="#FFF" d="M23.685 43.308a1.9 1.9 0 1 1-3.8.001 1.9 1.9 0 0 1 3.8 0M9.851 66.883a1.9 1.9 0 1 1-1.898-1.9 1.9 1.9 0 0 1 1.898 1.9M23.685 59.268a1.9 1.9 0 1 1-3.799 0 1.9 1.9 0 1 1 3.8 0M43.227 70.694a1.9 1.9 0 1 1-1.9-1.9 1.9 1.9 0 0 1 1.9 1.9M63.234 82.009a1.9 1.9 0 1 1-1.899-1.901 1.9 1.9 0 0 1 1.9 1.9M102.767 82.009a1.9 1.9 0 1 1-1.899-1.901 1.9 1.9 0 0 1 1.899 1.9M63.234 59.268a1.9 1.9 0 1 1-3.798 0 1.9 1.9 0 1 1 3.798 0M63.234 36.393a1.9 1.9 0 1 1-1.899-1.9 1.9 1.9 0 0 1 1.9 1.9M82.993 25.254a1.9 1.9 0 1 1-3.801.001 1.9 1.9 0 0 1 3.8 0M82.993 47.974a1.9 1.9 0 1 1-3.801 0 1.9 1.9 0 0 1 3.8 0M82.993 70.694a1.9 1.9 0 1 1-3.8.002 1.9 1.9 0 0 1 3.8-.002M82.993 93.435a1.9 1.9 0 1 1-3.8.002 1.9 1.9 0 0 1 3.8-.002M63.234 104.987a1.9 1.9 0 0 1-1.899 1.901 1.9 1.9 0 0 1 0-3.802 1.9 1.9 0 0 1 1.9 1.9M63.223 127.966a1.9 1.9 0 1 1-1.898-1.901 1.9 1.9 0 0 1 1.898 1.9M43.227 116.414a1.9 1.9 0 1 1-1.9-1.901 1.9 1.9 0 0 1 1.9 1.9M43.074 139.245a1.9 1.9 0 1 1-1.898-1.901 1.9 1.9 0 0 1 1.898 1.9M23.685 127.819a1.9 1.9 0 1 1-3.8.001 1.9 1.9 0 0 1 3.8-.001M23.685 151.361a1.9 1.9 0 1 1-3.8.001 1.9 1.9 0 0 1 3.8 0M42.825 162.076a1.9 1.9 0 1 1-1.899-1.9 1.9 1.9 0 0 1 1.899 1.9"/>
            <g transform="translate(0 159.473)">
                <mask id="b" fill="#fff">
                    <use xlink:href="#a"/>
                </mask>
                <path fill="#FFF" d="M3.798 2.603A1.9 1.9 0 1 1 1.9.703a1.9 1.9 0 0 1 1.898 1.9" mask="url(#b)"/>
            </g>
            <g transform="translate(0 137.722)">
                <mask id="d" fill="#fff">
                    <use xlink:href="#c"/>
                </mask>
                <path fill="#FFF" d="M3.798 2.603A1.9 1.9 0 1 1 1.9.703a1.9 1.9 0 0 1 1.898 1.9" mask="url(#d)"/>
            </g>
            <path fill="#FFF" d="M82.993 116.414a1.9 1.9 0 1 1-3.8.002 1.9 1.9 0 0 1 3.8-.002M83.051 139.245a1.9 1.9 0 1 1-1.899-1.901 1.9 1.9 0 0 1 1.9 1.9M102.762 127.966a1.9 1.9 0 1 1-1.9-1.901 1.9 1.9 0 0 1 1.9 1.9M63.234 151.361a1.9 1.9 0 1 1-1.899-1.9 1.9 1.9 0 0 1 1.9 1.9M102.767 59.54a1.9 1.9 0 1 1-1.899-1.901 1.9 1.9 0 0 1 1.899 1.9M102.829 44.355a1.9 1.9 0 1 1-1.899-1.9 1.9 1.9 0 0 1 1.899 1.9M116.232 36.393a1.9 1.9 0 1 1-1.899-1.9 1.9 1.9 0 0 1 1.899 1.9M122.526 70.966a1.9 1.9 0 1 1-1.899-1.901 1.9 1.9 0 0 1 1.899 1.9M123.303 49.371a1.9 1.9 0 1 1-1.899-1.9 1.9 1.9 0 0 1 1.9 1.9M142.3 59.956a1.9 1.9 0 1 1-1.899-1.9c1.05 0 1.9.85 1.9 1.9M142.3 37a1.9 1.9 0 1 1-3.8.001 1.9 1.9 0 0 1 3.8-.002M155.227 28.85a1.9 1.9 0 0 1-1.9 1.902 1.9 1.9 0 0 1 0-3.803 1.9 1.9 0 0 1 1.9 1.901M162.203 47.736a1.9 1.9 0 1 1-1.898-1.9 1.9 1.9 0 0 1 1.898 1.9M162.203 70.694a1.9 1.9 0 1 1-1.898-1.9 1.9 1.9 0 0 1 1.898 1.9M201.608 70.582a1.9 1.9 0 1 1-3.8.002 1.9 1.9 0 0 1 3.8-.002M181.898 59.646a1.9 1.9 0 1 1-3.801 0 1.9 1.9 0 0 1 3.8 0M181.973 82.009a1.9 1.9 0 1 1-1.899-1.901 1.9 1.9 0 0 1 1.899 1.9M182.04 104.735a1.9 1.9 0 1 1-1.9-1.9 1.9 1.9 0 0 1 1.9 1.9M221.444 104.624a1.9 1.9 0 1 1-1.898-1.901 1.9 1.9 0 0 1 1.898 1.9M241.28 93.442a1.9 1.9 0 1 1-1.898-1.901 1.9 1.9 0 0 1 1.898 1.9M241.28 116.393a1.9 1.9 0 1 1-1.898-1.901 1.9 1.9 0 0 1 1.898 1.9M221.444 128.36a1.9 1.9 0 1 1-3.798 0 1.9 1.9 0 1 1 3.798 0M202.217 139.57a1.9 1.9 0 1 1-3.798 0 1.9 1.9 0 1 1 3.798 0M182.04 128.886a1.9 1.9 0 1 1-1.9-1.9 1.9 1.9 0 0 1 1.9 1.9M181.897 151.558a1.9 1.9 0 1 1-3.798 0 1.9 1.9 0 0 1 1.9-1.901 1.9 1.9 0 0 1 1.898 1.901M201.666 162.985a1.9 1.9 0 1 1-1.898-1.901 1.9 1.9 0 0 1 1.898 1.9M162.203 163.32a1.9 1.9 0 1 1-1.898-1.9 1.9 1.9 0 0 1 1.898 1.9M214.893 154.719a1.9 1.9 0 1 1-3.799 0 1.9 1.9 0 1 1 3.8 0M261.05 104.735a1.9 1.9 0 1 1-3.8.002 1.9 1.9 0 0 1 3.8-.002M280.936 117.308a1.9 1.9 0 1 1-3.798 0 1.9 1.9 0 1 1 3.798 0M280.936 139.245a1.9 1.9 0 1 1-1.899-1.901 1.9 1.9 0 0 1 1.899 1.9M261.05 128.36a1.9 1.9 0 1 1-1.9-1.901c1.05 0 1.9.85 1.9 1.9M201.734 93.687a1.9 1.9 0 1 1-1.899-1.901 1.9 1.9 0 0 1 1.899 1.9M201.809 116.05a1.9 1.9 0 1 1-1.899-1.901 1.9 1.9 0 0 1 1.899 1.9M201.742 47.974a1.9 1.9 0 1 1-3.8.002 1.9 1.9 0 0 1 3.8-.002M181.973 36.393a1.9 1.9 0 1 1-1.899-1.9 1.9 1.9 0 0 1 1.899 1.9M240.737 70.537a1.9 1.9 0 1 1-1.899-1.9 1.9 1.9 0 0 1 1.9 1.9M221.027 59.601a1.9 1.9 0 1 1-3.799 0 1.9 1.9 0 1 1 3.799 0M221.51 81.963a1.9 1.9 0 1 1-1.898-1.9 1.9 1.9 0 0 1 1.899 1.9M254.369 170.455a1.9 1.9 0 1 1-3.799 0 1.9 1.9 0 1 1 3.799 0M274.205 159.273a1.9 1.9 0 1 1-1.899-1.9 1.9 1.9 0 0 1 1.899 1.9M274.205 181.447a1.9 1.9 0 1 1-1.899-1.901 1.9 1.9 0 0 1 1.899 1.9M254.369 192.637a1.9 1.9 0 1 1-1.9-1.901 1.9 1.9 0 0 1 1.9 1.9M234.658 159.518a1.9 1.9 0 1 1-1.899-1.9 1.9 1.9 0 0 1 1.9 1.9M234.733 181.881a1.9 1.9 0 1 1-1.898-1.9 1.9 1.9 0 0 1 1.898 1.9M234.604 204.586a1.9 1.9 0 1 1-3.8 0 1.9 1.9 0 1 1 3.8 0M254.369 215.42a1.9 1.9 0 1 1-3.799 0 1.9 1.9 0 1 1 3.799 0M234.604 226.767a1.9 1.9 0 1 1-1.9-1.9 1.9 1.9 0 0 1 1.9 1.9M214.893 193.649a1.9 1.9 0 1 1-1.898-1.901 1.9 1.9 0 0 1 1.898 1.9M181.897 174.404a1.9 1.9 0 1 1-1.899-1.901 1.9 1.9 0 0 1 1.899 1.9M162.203 185.663a1.9 1.9 0 1 1-3.798 0 1.9 1.9 0 1 1 3.798 0M201.666 185.837a1.9 1.9 0 1 1-3.798 0 1.9 1.9 0 1 1 3.798 0M214.968 216.012a1.9 1.9 0 1 1-1.898-1.901 1.9 1.9 0 0 1 1.898 1.9M181.941 197.23a1.9 1.9 0 1 1-3.798 0 1.9 1.9 0 1 1 3.798 0M162.176 208.4a1.9 1.9 0 1 1-3.798 0 1.9 1.9 0 1 1 3.798 0M181.941 220.012a1.9 1.9 0 1 1-1.899-1.9 1.9 1.9 0 0 1 1.899 1.9M162.176 231.36a1.9 1.9 0 1 1-1.899-1.9 1.9 1.9 0 0 1 1.899 1.9M162.176 246.448a1.9 1.9 0 1 1-1.899-1.901 1.9 1.9 0 0 1 1.899 1.9M142.359 265.549a1.9 1.9 0 1 1-1.899-1.901 1.9 1.9 0 0 1 1.899 1.9M142.359 242.646a1.9 1.9 0 1 1-3.798 0 1.9 1.9 0 1 1 3.798 0M122.59 254.41a1.9 1.9 0 1 1-1.9-1.9 1.9 1.9 0 0 1 1.9 1.9M122.59 231.36a1.9 1.9 0 1 1-1.9-1.9 1.9 1.9 0 0 1 1.9 1.9M102.762 220.012a1.9 1.9 0 1 1-1.9-1.9 1.9 1.9 0 0 1 1.9 1.9M83.051 231.36a1.9 1.9 0 1 1-1.899-1.9 1.9 1.9 0 0 1 1.9 1.9M82.993 246.448a1.9 1.9 0 1 1-3.8.002 1.9 1.9 0 0 1 3.8-.002M69.825 223.92a1.9 1.9 0 1 1-3.8.002 1.9 1.9 0 0 1 3.8-.002M175.755 254.41a1.9 1.9 0 1 1-1.899-1.9 1.9 1.9 0 0 1 1.9 1.9M142.466 198.242a1.9 1.9 0 1 1-1.899-1.9 1.9 1.9 0 0 1 1.899 1.9M122.526 208.69a1.9 1.9 0 1 1-1.899-1.901 1.9 1.9 0 0 1 1.899 1.9M102.82 197.23a1.9 1.9 0 1 1-3.798 0 1.9 1.9 0 1 1 3.799 0M122.59 185.837a1.9 1.9 0 1 1-3.799 0 1.9 1.9 0 1 1 3.798 0M142.3 174.404a1.9 1.9 0 1 1-3.8.002 1.9 1.9 0 0 1 3.8-.002M142.3 151.558a1.9 1.9 0 1 1-3.799 0 1.9 1.9 0 1 1 3.8 0M122.526 162.985a1.9 1.9 0 1 1-1.899-1.901 1.9 1.9 0 0 1 1.899 1.9M102.82 174.404a1.9 1.9 0 1 1-1.898-1.901 1.9 1.9 0 0 1 1.899 1.9M83.051 185.816a1.9 1.9 0 1 1-3.798 0 1.9 1.9 0 1 1 3.798 0M83.051 162.884a1.9 1.9 0 1 1-3.798 0 1.9 1.9 0 1 1 3.798 0M102.762 151.537a1.9 1.9 0 1 1-1.9-1.9 1.9 1.9 0 0 1 1.9 1.9M69.825 193.069a1.9 1.9 0 1 1-3.8.001 1.9 1.9 0 0 1 3.8-.001M69.825 178.283a1.9 1.9 0 1 1-3.8.001 1.9 1.9 0 0 1 3.8-.001M82.993 200.616a1.9 1.9 0 1 1-3.8.002 1.9 1.9 0 0 1 3.8-.002M142.541 220.604a1.9 1.9 0 1 1-1.9-1.9c1.05 0 1.9.85 1.9 1.9M214.968 238.2a1.9 1.9 0 1 1-1.898-1.901 1.9 1.9 0 0 1 1.898 1.9M254.435 147.795a1.9 1.9 0 1 1-1.898-1.9 1.9 1.9 0 0 1 1.898 1.9M240.871 47.93a1.9 1.9 0 1 1-1.899-1.902 1.9 1.9 0 0 1 1.9 1.901M261.05 21.398a1.9 1.9 0 1 1-1.899-1.901 1.9 1.9 0 0 1 1.899 1.9M221.51 36.303a1.9 1.9 0 1 1-3.797 0 1.9 1.9 0 1 1 3.798 0M261.05 36.303a1.9 1.9 0 1 1-1.9-1.901c1.05 0 1.9.85 1.9 1.9M261.826 67.674a1.9 1.9 0 1 1-1.899-1.9 1.9 1.9 0 0 1 1.899 1.9M274.276 74.496a1.9 1.9 0 1 1-1.899-1.9 1.9 1.9 0 0 1 1.899 1.9M261.05 81.963a1.9 1.9 0 1 1-3.8.002 1.9 1.9 0 0 1 3.8-.002M221.51 13.435a1.9 1.9 0 1 1-1.898-1.9 1.9 1.9 0 0 1 1.899 1.9"/>
            <g transform="translate(197.869 .227)">
                <mask id="f" fill="#fff">
                    <use xlink:href="#e"/>
                </mask>
                <path fill="#FFF" d="M3.873 2.45a1.9 1.9 0 1 1-3.8.003 1.9 1.9 0 0 1 3.8-.002" mask="url(#f)"/>
            </g>
            <path fill="#FFF" d="M201.742 25.048a1.9 1.9 0 1 1-3.8.002 1.9 1.9 0 0 1 3.8-.002M181.898 21.398a1.9 1.9 0 1 1-3.801 0 1.9 1.9 0 0 1 3.8 0M168.772 13.435a1.9 1.9 0 1 1-1.898-1.9 1.9 1.9 0 0 1 1.898 1.9M122.526 93.706a1.9 1.9 0 1 1-3.801.003 1.9 1.9 0 0 1 3.8-.003M102.767 105.26a1.9 1.9 0 1 1-1.899-1.902 1.9 1.9 0 0 1 1.899 1.901M122.587 116.274a1.9 1.9 0 1 1-1.899-1.9 1.9 1.9 0 0 1 1.9 1.9M122.645 139.105a1.9 1.9 0 1 1-3.798 0 1.9 1.9 0 1 1 3.798 0M142.357 127.826a1.9 1.9 0 1 1-3.801.001 1.9 1.9 0 0 1 3.8 0M162.203 139.57a1.9 1.9 0 1 1-3.798 0 1.9 1.9 0 1 1 3.798 0M142.362 105.12a1.9 1.9 0 1 1-1.899-1.901 1.9 1.9 0 0 1 1.899 1.9M162.203 93.435a1.9 1.9 0 1 1-1.898-1.901 1.9 1.9 0 0 1 1.898 1.9M142.435 81.963a1.9 1.9 0 1 1-3.8.002 1.9 1.9 0 0 1 3.8-.002M162.128 116.05a1.9 1.9 0 1 1-1.898-1.901 1.9 1.9 0 0 1 1.898 1.9M43.454 93.56a1.9 1.9 0 1 1-1.899-1.9 1.9 1.9 0 0 1 1.899 1.9M24.151 105.26a1.9 1.9 0 1 1-1.898-1.902 1.9 1.9 0 0 1 1.898 1.901M10.458 97.567a1.9 1.9 0 1 1-1.898-1.9 1.9 1.9 0 0 1 1.898 1.9M10.458 112.52a1.9 1.9 0 1 1-1.898-1.9 1.9 1.9 0 0 1 1.898 1.9M23.685 90.187a1.9 1.9 0 1 1-3.8.001 1.9 1.9 0 0 1 3.8 0"/>
        </g>
        <g opacity=".5">
            <path fill="#FFF" d="M26.61 43.07a4.945 4.945 0 0 1-4.942 4.949 4.946 4.946 0 0 1-4.943-4.949 4.945 4.945 0 0 1 4.943-4.947 4.945 4.945 0 0 1 4.942 4.947M86.036 47.736a4.945 4.945 0 0 1-4.943 4.948 4.944 4.944 0 0 1-4.942-4.948 4.944 4.944 0 0 1 4.942-4.947 4.945 4.945 0 0 1 4.943 4.947M126.346 49.371a4.945 4.945 0 0 1-4.942 4.948 4.944 4.944 0 0 1-4.942-4.948 4.944 4.944 0 0 1 4.942-4.947 4.945 4.945 0 0 1 4.942 4.947M264.093 21.219a4.945 4.945 0 0 1-4.943 4.947 4.944 4.944 0 0 1-4.942-4.947 4.944 4.944 0 0 1 4.942-4.948 4.945 4.945 0 0 1 4.943 4.948M224.487 36.303a4.945 4.945 0 0 1-4.942 4.948 4.945 4.945 0 0 1-4.942-4.948 4.945 4.945 0 0 1 4.942-4.948 4.945 4.945 0 0 1 4.942 4.948M184.941 21.578a4.945 4.945 0 0 1-4.943 4.948 4.944 4.944 0 0 1-4.942-4.948 4.944 4.944 0 0 1 4.942-4.947 4.945 4.945 0 0 1 4.943 4.947M264.093 82.03a4.945 4.945 0 0 1-4.942 4.947 4.944 4.944 0 0 1-4.943-4.947 4.945 4.945 0 0 1 4.943-4.948 4.945 4.945 0 0 1 4.942 4.948"/>
            <g transform="translate(273.913 133.838)">
                <mask id="h" fill="#fff">
                    <use xlink:href="#g"/>
                </mask>
                <path fill="#FFF" d="M10.067 5.267a4.946 4.946 0 0 1-4.942 4.948A4.944 4.944 0 0 1 .183 5.267 4.944 4.944 0 0 1 5.125.319a4.945 4.945 0 0 1 4.942 4.948" mask="url(#h)"/>
            </g>
            <path fill="#FFF" d="M277.32 181.447a4.945 4.945 0 0 1-4.943 4.947 4.944 4.944 0 0 1-4.942-4.947 4.944 4.944 0 0 1 4.942-4.948 4.945 4.945 0 0 1 4.942 4.948M237.647 226.767a4.945 4.945 0 0 1-4.942 4.948 4.945 4.945 0 0 1-4.943-4.948 4.945 4.945 0 0 1 4.943-4.947 4.945 4.945 0 0 1 4.942 4.947M257.475 147.795a4.945 4.945 0 0 1-4.942 4.948 4.944 4.944 0 0 1-4.942-4.948 4.944 4.944 0 0 1 4.942-4.948 4.945 4.945 0 0 1 4.942 4.948M165.142 246.448a4.945 4.945 0 0 1-4.942 4.947 4.944 4.944 0 0 1-4.942-4.947 4.944 4.944 0 0 1 4.942-4.948 4.945 4.945 0 0 1 4.942 4.948M125.633 254.41a4.945 4.945 0 0 1-4.942 4.948 4.944 4.944 0 0 1-4.943-4.948 4.944 4.944 0 0 1 4.943-4.947 4.945 4.945 0 0 1 4.942 4.947M86.036 231.36a4.945 4.945 0 0 1-4.943 4.948 4.944 4.944 0 0 1-4.942-4.947 4.945 4.945 0 0 1 4.942-4.949 4.946 4.946 0 0 1 4.943 4.949M205.261 139.245a4.945 4.945 0 0 1-4.943 4.947 4.944 4.944 0 0 1-4.942-4.947 4.944 4.944 0 0 1 4.942-4.948 4.945 4.945 0 0 1 4.943 4.948M105.805 151.558a4.945 4.945 0 0 1-4.942 4.948 4.944 4.944 0 0 1-4.942-4.948 4.945 4.945 0 0 1 4.942-4.948 4.945 4.945 0 0 1 4.942 4.948M125.569 93.706a4.945 4.945 0 0 1-4.942 4.949 4.946 4.946 0 0 1-4.943-4.949 4.945 4.945 0 0 1 4.943-4.947 4.945 4.945 0 0 1 4.942 4.947M13.502 97.567a4.945 4.945 0 0 1-4.942 4.948 4.944 4.944 0 0 1-4.942-4.948 4.944 4.944 0 0 1 4.942-4.948 4.945 4.945 0 0 1 4.942 4.948M72.868 193.236a4.945 4.945 0 0 1-4.942 4.948 4.944 4.944 0 0 1-4.943-4.948 4.944 4.944 0 0 1 4.943-4.947 4.945 4.945 0 0 1 4.942 4.947M145.344 174.41a4.945 4.945 0 0 1-4.943 4.948 4.944 4.944 0 0 1-4.942-4.947 4.944 4.944 0 0 1 4.942-4.948 4.945 4.945 0 0 1 4.943 4.948M26.729 151.361a4.945 4.945 0 0 1-4.943 4.948 4.944 4.944 0 0 1-4.942-4.948 4.944 4.944 0 0 1 4.942-4.947 4.945 4.945 0 0 1 4.943 4.947M46.118 70.582a4.946 4.946 0 0 1-4.943 4.948 4.945 4.945 0 0 1-4.942-4.948 4.944 4.944 0 0 1 4.942-4.948 4.945 4.945 0 0 1 4.943 4.948"/>
        </g>
        <g transform="translate(120.273 126.847)">
            <mask id="k" fill="#fff">
                <use xlink:href="#i"/>
            </mask>
            <path fill="url(#j)" d="M79.908 12.47L40.233 35.427.698 12.572 22.006.244l18.297 10.572L58.678.198z" mask="url(#k)" opacity=".7"/>
        </g>
        <g transform="translate(141.224 3.334)">
            <mask id="n" fill="#fff">
                <use xlink:href="#l"/>
            </mask>
            <path fill="url(#m)" d="M37.968 32.93V11.413L19.353.653.74 11.413V32.93l18.614 10.758z" mask="url(#n)" opacity=".7"/>
        </g>
        <g transform="translate(141.224 187.438)">
            <mask id="p" fill="#fff">
                <use xlink:href="#o"/>
            </mask>
            <path fill="url(#m)" d="M37.968 32.979V11.46L19.353.701.74 11.461V32.98l18.614 10.758z" mask="url(#p)" opacity=".7"/>
        </g>
        <g transform="translate(141.224 94.221)">
            <mask id="r" fill="#fff">
                <use xlink:href="#q"/>
            </mask>
            <path fill="url(#j)" d="M37.968 32.687V11.17L19.353.41.74 11.17v21.518l18.614 10.759z" mask="url(#r)" opacity=".7"/>
        </g>
        <g transform="translate(62.077 94.221)">
            <mask id="t" fill="#fff">
                <use xlink:href="#s"/>
            </mask>
            <path fill="url(#m)" d="M37.808 32.94V11.424L19.194.663.58 11.423v21.518L19.194 43.7z" mask="url(#t)" opacity=".7"/>
        </g>
        <g transform="translate(221.148 94.221)">
            <mask id="v" fill="#fff">
                <use xlink:href="#u"/>
            </mask>
            <path fill="url(#m)" d="M37.857 32.522V11.004L19.24.244.627 11.005v21.518l18.614 10.759z" mask="url(#v)" opacity=".7"/>
        </g>
        <g>
            <path fill="#38D611" d="M124.074 139.092l36.432 21.06 36.572-21.167-17.845-10.309-18.657 10.782L142 128.723l-17.925 10.37zm36.433 24.648l-42.638-24.646 24.133-13.963 1.059.617 17.515 10.122 17.064-9.862v-1.793l2.328 1.298 23.316 13.469-42.777 24.758z"/>
            <path fill="#38D611" d="M143.513 126.01l17.063 9.86 17.064-9.861v-19.726l-17.064-9.86-17.063 9.86v19.727zm17.063 13.448l-20.128-11.637-.039-.917V104.49l20.167-11.656 20.167 11.656v23.308l-1.012.59-19.155 11.07z"/>
            <path fill="#FA0171" d="M143.514 35.368l17.063 9.861 17.063-9.86V15.642l-17.063-9.861-17.063 9.86v19.726zm17.063 13.45L140.41 37.161V13.85l20.166-11.656 20.167 11.656v23.312l-20.167 11.655zM64.208 126.265l17.062 9.86 17.064-9.86V106.54L81.27 96.68l-17.062 9.861v19.725zm17.062 13.449l-20.166-11.655v-23.312L81.27 93.09l20.167 11.657v23.312L81.27 139.714zM223.327 125.846l17.062 9.862 17.063-9.862v-19.725L240.39 96.26l-17.062 9.861v19.725zm17.062 13.45l-20.166-11.656v-23.311l20.166-11.657 20.167 11.657v23.31l-20.167 11.657zM143.514 218.888l17.063 9.861 17.063-9.86v-19.726l-17.063-9.861-17.063 9.86v19.726zm17.063 13.45l-20.166-11.656V197.37l20.166-11.656 20.167 11.656v23.312l-20.167 11.655z"/>
        </g>
        <g>
            <path fill="#FA0171" d="M142.217 38.837c-.21 0-.411-.039-.598-.115a1.565 1.565 0 0 1-.504-.335 1.567 1.567 0 0 1-.194-1.958c.062-.085.124-.17.194-.24.078-.07.155-.14.24-.195.086-.053.17-.1.264-.14.094-.038.194-.07.295-.085a1.55 1.55 0 0 1 1.397.42c.07.07.14.155.194.24.054.078.101.171.14.264.039.094.07.195.093.288a1.541 1.541 0 0 1-.427 1.406c-.147.147-.31.256-.504.335a1.52 1.52 0 0 1-.59.115M136.747 40.15a1.555 1.555 0 0 1 .66-2.097 1.55 1.55 0 1 1 1.434 2.75 1.472 1.472 0 0 1-.714.178 1.561 1.561 0 0 1-1.38-.83m-4.082 2.136a1.554 1.554 0 0 1 .651-2.098 1.556 1.556 0 0 1 2.095.653 1.56 1.56 0 0 1-.651 2.097 1.522 1.522 0 0 1-.721.178 1.544 1.544 0 0 1-1.374-.83m-4.089 2.136a1.553 1.553 0 0 1 .652-2.097c.76-.397 1.7-.101 2.095.659.396.762.1 1.702-.652 2.098-.233.117-.481.17-.722.17a1.54 1.54 0 0 1-1.373-.83m-4.09 2.136a1.558 1.558 0 0 1 .66-2.097 1.558 1.558 0 0 1 2.095.66 1.557 1.557 0 0 1-1.38 2.276 1.548 1.548 0 0 1-1.375-.839m-4.089 2.144a1.556 1.556 0 0 1 2.754-1.446 1.557 1.557 0 0 1-1.372 2.277 1.555 1.555 0 0 1-1.382-.83m-4.011 2.274a1.554 1.554 0 0 1 2.708-1.523 1.555 1.555 0 0 1-.598 2.115 1.54 1.54 0 0 1-2.11-.591m-4.028 2.253a1.555 1.555 0 0 1 .598-2.113 1.546 1.546 0 0 1 2.11.598 1.555 1.555 0 0 1-.597 2.112 1.558 1.558 0 0 1-2.111-.597m-4.027 2.252a1.555 1.555 0 0 1 .597-2.112 1.552 1.552 0 0 1 2.11.598 1.554 1.554 0 0 1-1.349 2.315c-.543 0-1.07-.288-1.358-.801m-4.02 2.26a1.547 1.547 0 0 1 .598-2.112 1.549 1.549 0 0 1 2.11.59 1.564 1.564 0 0 1-.597 2.121 1.585 1.585 0 0 1-.76.195c-.544 0-1.07-.288-1.35-.794m-4.027 2.254a1.556 1.556 0 0 1 .596-2.113 1.547 1.547 0 0 1 2.112.598 1.549 1.549 0 0 1-.599 2.112c-.24.132-.495.203-.751.203-.544 0-1.071-.287-1.358-.8m-4.028 2.26a1.564 1.564 0 0 1 .598-2.121 1.56 1.56 0 0 1 2.11.599c.42.753.156 1.7-.597 2.113a1.473 1.473 0 0 1-.753.201c-.544 0-1.071-.287-1.358-.792m-4.019 2.252a1.548 1.548 0 0 1 .597-2.112 1.546 1.546 0 0 1 2.111.598 1.556 1.556 0 0 1-.598 2.113c-.24.132-.504.195-.76.195-.543 0-1.07-.288-1.35-.794m-4.028 2.254a1.552 1.552 0 1 1 2.111.597 1.48 1.48 0 0 1-.753.203c-.542 0-1.07-.287-1.358-.8m-4.026 2.26a1.556 1.556 0 0 1 .596-2.112 1.547 1.547 0 0 1 2.112.598 1.549 1.549 0 0 1-1.35 2.306c-.544 0-1.071-.279-1.358-.791M81.514 72.077a1.55 1.55 0 0 1-.59-.116 1.491 1.491 0 0 1-.504-.342 1.541 1.541 0 0 1-.427-1.398c.023-.101.047-.202.085-.296.039-.093.094-.178.148-.264a1.543 1.543 0 0 1 1.591-.66 1.38 1.38 0 0 1 .558.233c.086.054.17.116.24.186.07.078.133.156.195.241.054.086.1.171.14.264.038.094.07.195.085.296.023.1.03.201.03.302 0 .101-.007.202-.03.303a1.251 1.251 0 0 1-.085.288c-.04.093-.086.186-.14.272a1.93 1.93 0 0 1-.194.233 1.542 1.542 0 0 1-1.102.458M81.42 77.018a1.559 1.559 0 0 1-1.528-1.577 1.547 1.547 0 0 1 1.576-1.53 1.547 1.547 0 0 1 1.528 1.576 1.557 1.557 0 0 1-1.552 1.53h-.023zm-.07 4.94a1.552 1.552 0 0 1-1.528-1.576 1.553 1.553 0 1 1 1.552 1.576h-.023zm-.07 4.941a1.558 1.558 0 0 1-1.535-1.578 1.557 1.557 0 0 1 1.575-1.53 1.549 1.549 0 0 1 1.53 1.578c-.01.846-.7 1.53-1.545 1.53h-.024zm-.076 4.94a1.553 1.553 0 1 1 1.574-1.531 1.557 1.557 0 0 1-1.551 1.531h-.023zM81.157 96.78c-.101 0-.21-.008-.303-.032a1.335 1.335 0 0 1-.295-.084 1.676 1.676 0 0 1-.263-.14 1.89 1.89 0 0 1-.241-.203 1.553 1.553 0 0 1-.334-1.685c.04-.094.086-.187.14-.272.062-.086.124-.163.194-.233.582-.583 1.614-.583 2.196 0 .295.287.458.684.458 1.095 0 .42-.163.808-.458 1.095-.148.149-.31.264-.504.343a1.546 1.546 0 0 1-.59.116M179.214 38.837a1.55 1.55 0 0 1-1.52-1.856 1.393 1.393 0 0 1 .232-.552c.055-.085.117-.17.194-.24.575-.575 1.614-.575 2.189 0 .077.07.14.155.194.24.062.078.108.171.147.264.039.094.07.195.085.288a1.541 1.541 0 0 1-.427 1.406c-.07.07-.147.14-.232.194-.086.054-.17.101-.263.14-.094.039-.194.07-.296.093a1.904 1.904 0 0 1-.303.023M182.582 40.803a1.554 1.554 0 0 1-.652-2.098 1.55 1.55 0 0 1 2.095-.652 1.558 1.558 0 0 1 .652 2.097 1.54 1.54 0 0 1-1.373.83c-.24 0-.49-.053-.722-.177m4.09 2.136a1.552 1.552 0 0 1 1.443-2.75 1.56 1.56 0 0 1 .652 2.098 1.553 1.553 0 0 1-2.095.652m4.089 2.144a1.556 1.556 0 0 1 1.436-2.758 1.557 1.557 0 0 1 .659 2.098c-.28.528-.815.83-1.381.83a1.58 1.58 0 0 1-.714-.17m4.09 2.136a1.553 1.553 0 1 1 2.094-.66c-.28.536-.823.839-1.381.839-.24 0-.488-.062-.713-.179m4.088 2.137a1.55 1.55 0 1 1 1.436-2.75 1.556 1.556 0 0 1 .66 2.097c-.28.528-.822.831-1.382.831-.24 0-.489-.054-.714-.178m3.996 2.213a1.554 1.554 0 1 1 .753.202c-.256 0-.512-.062-.753-.202m4.028 2.26a1.55 1.55 0 0 1-.598-2.112 1.542 1.542 0 0 1 2.11-.598c.746.42 1.018 1.36.599 2.113a1.567 1.567 0 0 1-1.358.792c-.256 0-.52-.063-.753-.194m4.02 2.253a1.547 1.547 0 0 1-.59-2.113 1.55 1.55 0 0 1 2.11-.598 1.553 1.553 0 0 1 .59 2.112 1.533 1.533 0 0 1-2.11.599m4.026 2.26a1.563 1.563 0 0 1-.597-2.12 1.55 1.55 0 0 1 2.11-.59 1.55 1.55 0 1 1-.753 2.905c-.262 0-.518-.063-.76-.195m4.027 2.252a1.549 1.549 0 0 1-.597-2.112 1.547 1.547 0 0 1 2.111-.598 1.556 1.556 0 0 1-.76 2.913c-.257 0-.52-.07-.754-.203m4.02 2.254a1.552 1.552 0 0 1-.597-2.113 1.566 1.566 0 0 1 2.118-.598 1.56 1.56 0 0 1 .59 2.12 1.542 1.542 0 0 1-2.111.59m4.028 2.261a1.556 1.556 0 0 1-.598-2.113 1.546 1.546 0 0 1 2.11-.598 1.55 1.55 0 0 1-.76 2.905c-.256 0-.512-.062-.752-.194m4.026 2.252a1.553 1.553 0 0 1 1.513-2.71 1.556 1.556 0 0 1-.76 2.913c-.255 0-.511-.062-.753-.203m4.02 2.262a1.563 1.563 0 0 1-.598-2.113 1.554 1.554 0 0 1 2.12-.599 1.553 1.553 0 0 1 .588 2.113c-.279.513-.807.793-1.35.793-.256 0-.52-.062-.76-.194M239.918 72.077c-.42 0-.807-.163-1.102-.458a1.567 1.567 0 0 1-.334-1.694c.038-.093.086-.178.148-.264.053-.085.115-.163.186-.24.078-.07.154-.133.24-.187a1.38 1.38 0 0 1 .558-.233 1.33 1.33 0 0 1 .607 0c.1.016.194.047.287.085.093.04.186.086.27.148.087.054.163.116.233.186.07.078.14.156.194.241a1.722 1.722 0 0 1 .234.56 1.539 1.539 0 0 1-.428 1.398 1.538 1.538 0 0 1-1.093.458M238.436 75.487a1.547 1.547 0 0 1 1.528-1.576 1.552 1.552 0 0 1 1.576 1.53 1.559 1.559 0 0 1-1.53 1.577h-.022a1.558 1.558 0 0 1-1.552-1.53m.07 4.94a1.548 1.548 0 0 1 1.528-1.577 1.548 1.548 0 0 1 1.575 1.53 1.557 1.557 0 0 1-1.528 1.577h-.024a1.557 1.557 0 0 1-1.551-1.53m.07 4.94a1.56 1.56 0 0 1 1.536-1.577 1.547 1.547 0 0 1 1.567 1.53 1.547 1.547 0 0 1-1.528 1.577h-.024a1.557 1.557 0 0 1-1.552-1.53m.077 4.94a1.548 1.548 0 0 1 1.53-1.576 1.556 1.556 0 0 1 1.574 1.53 1.557 1.557 0 0 1-1.528 1.578h-.03a1.547 1.547 0 0 1-1.546-1.531M240.275 96.78c-.411 0-.807-.164-1.094-.459a1.515 1.515 0 0 1-.427-1.398c.016-.101.047-.194.085-.287a1.8 1.8 0 0 1 .148-.272c.053-.086.124-.163.194-.233a1.525 1.525 0 0 1 1.396-.428c.101.024.201.048.295.086.093.046.179.094.263.147.087.055.163.125.233.195.079.07.14.147.194.233.062.085.11.178.148.272.038.093.07.186.086.287.022.1.03.202.03.303 0 .42-.162.808-.458 1.095a1.38 1.38 0 0 1-.79.427 1.291 1.291 0 0 1-.303.032M179.331 198.534c-.411 0-.8-.163-1.094-.458a1.52 1.52 0 0 1-.427-1.398 1.327 1.327 0 0 1 .233-.56c.054-.085.116-.163.194-.24.574-.575 1.614-.575 2.188 0 .078.077.14.155.194.24.054.086.109.171.148.264.038.094.062.195.085.296a1.52 1.52 0 0 1-.427 1.398 1.54 1.54 0 0 1-1.094.458M234.65 166.762a1.556 1.556 0 0 1 .597-2.12 1.551 1.551 0 0 1 2.11.598 1.547 1.547 0 0 1-.597 2.114 1.491 1.491 0 0 1-.753.202c-.543 0-1.07-.289-1.358-.794m-4.02 2.253a1.553 1.553 0 1 1 2.709-1.515 1.557 1.557 0 0 1-.598 2.114 1.584 1.584 0 0 1-.76.194c-.544 0-1.07-.28-1.351-.793m-4.026 2.261a1.558 1.558 0 0 1 .596-2.121 1.554 1.554 0 0 1 2.112.599 1.554 1.554 0 0 1-.598 2.112 1.54 1.54 0 0 1-2.11-.59m-4.028 2.253a1.557 1.557 0 0 1 .598-2.113 1.546 1.546 0 0 1 2.11.598 1.548 1.548 0 0 1-1.35 2.307c-.544 0-1.07-.288-1.358-.792m-4.02 2.252a1.548 1.548 0 1 1 2.7-1.515 1.555 1.555 0 0 1-1.349 2.316c-.543 0-1.07-.287-1.35-.8m-4.028 2.26a1.548 1.548 0 0 1 .598-2.112 1.55 1.55 0 0 1 2.11.59c.42.753.148 1.7-.597 2.12a1.564 1.564 0 0 1-2.111-.597m-4.027 2.252a1.55 1.55 0 1 1 2.709-1.515 1.55 1.55 0 0 1-1.35 2.307c-.544 0-1.071-.28-1.359-.792m-4.028 2.26a1.56 1.56 0 0 1 .599-2.113 1.547 1.547 0 0 1 2.11.59 1.563 1.563 0 0 1-.59 2.122 1.565 1.565 0 0 1-2.12-.599m-4.017 2.253a1.55 1.55 0 0 1 .596-2.112 1.547 1.547 0 0 1 2.112.597 1.556 1.556 0 0 1-.598 2.113 1.533 1.533 0 0 1-2.11-.598m-4.06 2.199a1.557 1.557 0 0 1 .661-2.098 1.545 1.545 0 0 1 2.087.66c.396.754.109 1.694-.652 2.097a1.575 1.575 0 0 1-.721.172 1.555 1.555 0 0 1-1.374-.831m-4.089 2.136a1.557 1.557 0 0 1 .659-2.098 1.547 1.547 0 0 1 2.088.661c.403.76.108 1.7-.652 2.097a1.564 1.564 0 0 1-2.095-.66m-4.09 2.136a1.55 1.55 0 0 1 .66-2.09 1.544 1.544 0 0 1 2.096.653c.395.76.1 1.7-.66 2.097-.226.124-.473.18-.714.18a1.56 1.56 0 0 1-1.382-.84m-4.088 2.144c-.396-.76-.101-1.7.658-2.098a1.55 1.55 0 0 1 2.096.653c.395.761.1 1.7-.66 2.106a1.568 1.568 0 0 1-2.094-.661m-4.09 2.136a1.553 1.553 0 1 1 2.755-1.436c.396.76.1 1.7-.66 2.097a1.564 1.564 0 0 1-2.095-.661M240.034 165.302c-.42 0-.807-.163-1.102-.458a1.534 1.534 0 0 1-.45-1.096c0-.1.008-.21.023-.302a1.675 1.675 0 0 1 .427-.8 1.585 1.585 0 0 1 1.692-.335 1.5 1.5 0 0 1 .264.14c.085.062.17.124.24.194a1.675 1.675 0 0 1 .427.8c.015.094.023.202.023.303 0 .203-.039.405-.116.592a1.449 1.449 0 0 1-.334.504 1.81 1.81 0 0 1-.504.342 1.719 1.719 0 0 1-.287.085c-.101.016-.202.031-.303.031M240.298 145.533a1.545 1.545 0 0 1-1.529-1.577 1.548 1.548 0 1 1 3.097.046 1.547 1.547 0 0 1-1.545 1.53h-.023zm-.078 4.94a1.552 1.552 0 0 1-1.528-1.577 1.562 1.562 0 0 1 1.575-1.53 1.56 1.56 0 0 1 1.529 1.577c-.016.854-.7 1.53-1.552 1.53h-.024zm-.07 4.94a1.545 1.545 0 0 1-1.528-1.569 1.558 1.558 0 0 1 1.575-1.537 1.562 1.562 0 0 1 1.53 1.577 1.553 1.553 0 0 1-1.553 1.53h-.023zm-.069 4.95a1.554 1.554 0 0 1-1.53-1.578 1.542 1.542 0 0 1 1.576-1.53 1.55 1.55 0 0 1 1.529 1.568 1.559 1.559 0 0 1-1.552 1.54h-.023zM240.39 140.592c-.209 0-.41-.039-.597-.116a1.577 1.577 0 0 1-.504-.342 1.93 1.93 0 0 1-.194-.233 1.718 1.718 0 0 1-.233-.552 2.094 2.094 0 0 1-.023-.31c0-.412.163-.808.45-1.096.078-.07.155-.14.241-.194.085-.054.17-.109.263-.148a1.59 1.59 0 0 1 1.187 0c.094.04.187.094.272.148.086.054.163.124.233.194a1.56 1.56 0 0 1 .427 1.406c-.023.093-.047.194-.085.288-.04.093-.094.178-.148.264a1.106 1.106 0 0 1-.194.233 1.533 1.533 0 0 1-1.094.458M142.326 198.534c-.101 0-.202-.008-.303-.03a1.223 1.223 0 0 1-.287-.086 1.838 1.838 0 0 1-.272-.148 1.343 1.343 0 0 1-.233-.194 1.49 1.49 0 0 1-.341-.505 1.506 1.506 0 0 1-.116-.59c0-.101.016-.202.03-.303.024-.101.055-.202.094-.296.039-.093.086-.178.14-.264.054-.085.124-.163.193-.24.582-.575 1.614-.575 2.196 0 .07.077.132.155.194.24.055.086.101.171.14.264.039.094.07.195.085.296a1.52 1.52 0 0 1-.085.893 1.556 1.556 0 0 1-1.436.963M84.897 167.353a1.553 1.553 0 0 1-.598-2.113 1.55 1.55 0 0 1 2.111-.59 1.545 1.545 0 0 1 .598 2.112 1.553 1.553 0 0 1-1.358.793c-.256 0-.512-.062-.753-.202m4.02 2.26a1.555 1.555 0 0 1-.59-2.113 1.546 1.546 0 0 1 2.11-.597 1.556 1.556 0 0 1 .598 2.113 1.548 1.548 0 0 1-1.358.792c-.256 0-.52-.062-.76-.194m4.027 2.253a1.554 1.554 0 1 1 2.11-.59 1.542 1.542 0 0 1-2.11.59m4.027 2.26a1.556 1.556 0 0 1-.597-2.113 1.546 1.546 0 0 1 2.11-.599 1.551 1.551 0 0 1-.753 2.906c-.256 0-.52-.062-.76-.194m4.027 2.253a1.551 1.551 0 1 1 2.11-.598c-.286.512-.814.8-1.357.8-.256 0-.52-.07-.753-.202m4.02 2.26a1.562 1.562 0 0 1-.598-2.12 1.56 1.56 0 0 1 2.119-.59c.744.419 1.008 1.359.589 2.112a1.54 1.54 0 0 1-1.35.792c-.256 0-.52-.062-.76-.194m4.027 2.253a1.553 1.553 0 0 1 1.513-2.712 1.55 1.55 0 0 1 .598 2.114 1.53 1.53 0 0 1-1.35.792 1.56 1.56 0 0 1-.761-.194m4.027 2.26a1.56 1.56 0 0 1-.597-2.12 1.55 1.55 0 0 1 2.11-.59 1.546 1.546 0 0 1 .598 2.112 1.564 1.564 0 0 1-2.11.599m4.019 2.252a1.547 1.547 0 0 1-.59-2.112 1.545 1.545 0 0 1 2.11-.599 1.554 1.554 0 0 1 .59 2.113 1.534 1.534 0 0 1-2.11.598m4.081 2.26a1.56 1.56 0 0 1-.66-2.096 1.554 1.554 0 0 1 2.096-.66 1.552 1.552 0 0 1 .65 2.097c-.27.527-.813.83-1.372.83-.24 0-.489-.054-.714-.17m4.082 2.135a1.552 1.552 0 0 1-.652-2.096 1.553 1.553 0 0 1 2.095-.66 1.553 1.553 0 0 1-.723 2.928c-.24 0-.488-.054-.72-.172m4.089 2.137a1.555 1.555 0 0 1-.66-2.097 1.549 1.549 0 0 1 2.095-.653 1.547 1.547 0 0 1 .66 2.09 1.544 1.544 0 0 1-2.095.66m4.09 2.144a1.567 1.567 0 0 1-.66-2.105 1.55 1.55 0 0 1 2.094-.653 1.557 1.557 0 0 1 .66 2.098c-.28.528-.814.831-1.38.831-.241 0-.482-.054-.715-.17m4.09 2.136a1.557 1.557 0 0 1-.66-2.098 1.553 1.553 0 1 1 1.373 2.269c-.24 0-.48-.055-.714-.171M81.63 165.302c-.41 0-.807-.163-1.094-.458a1.541 1.541 0 0 1-.426-1.398 1.339 1.339 0 0 1 .232-.559c.055-.086.117-.172.194-.242.357-.357.893-.52 1.397-.42a1.507 1.507 0 0 1 .558.226c.086.062.164.124.234.194.077.079.14.156.194.242.053.085.108.17.147.263.038.094.062.195.085.296a1.541 1.541 0 0 1-.427 1.398 1.538 1.538 0 0 1-1.094.458M79.791 144.002a1.546 1.546 0 0 1 1.529-1.576 1.554 1.554 0 0 1 .047 3.107h-.024a1.553 1.553 0 0 1-1.552-1.531m.07 4.94a1.559 1.559 0 0 1 1.529-1.576 1.553 1.553 0 0 1 1.575 1.53 1.548 1.548 0 0 1-1.529 1.577h-.023a1.552 1.552 0 0 1-1.552-1.53m.07 4.94a1.563 1.563 0 0 1 1.529-1.577 1.555 1.555 0 0 1 1.575 1.538 1.54 1.54 0 0 1-1.529 1.57h-.023a1.552 1.552 0 0 1-1.552-1.53m.078 4.94a1.54 1.54 0 0 1 1.528-1.569 1.551 1.551 0 0 1 1.575 1.53 1.564 1.564 0 0 1-1.528 1.577h-.031a1.548 1.548 0 0 1-1.544-1.539M81.274 140.592c-.11 0-.21-.008-.31-.031a1.396 1.396 0 0 1-.289-.085 1.412 1.412 0 0 1-.503-.342c-.07-.07-.14-.148-.194-.233-.055-.086-.101-.171-.14-.264a2.167 2.167 0 0 1-.093-.288 2.094 2.094 0 0 1-.023-.31c0-.412.163-.808.45-1.096a1.56 1.56 0 0 1 1.404-.427c.093.023.194.046.287.085.093.04.186.094.264.148.085.054.17.124.24.194a1.406 1.406 0 0 1 .334.505c.04.093.07.186.093.287.015.101.024.202.024.303 0 .42-.156.808-.45 1.096a1.535 1.535 0 0 1-1.094.458"/>
            <path fill="#38D611" d="M156.487 72.768a1.546 1.546 0 0 1 .574-2.113 1.543 1.543 0 0 1 2.118.576c.428.738.171 1.693-.574 2.112a1.541 1.541 0 0 1-2.118-.575m-4.043 2.323a1.559 1.559 0 0 1 .574-2.12 1.549 1.549 0 0 1 2.119.574c.427.747.17 1.694-.574 2.12a1.56 1.56 0 0 1-2.12-.575m-4.034 2.317a1.554 1.554 0 1 1 2.693-1.547 1.561 1.561 0 0 1-1.35 2.33c-.536 0-1.056-.28-1.343-.783m-4.043 2.322a1.554 1.554 0 1 1 2.119.574 1.562 1.562 0 0 1-2.118-.574m-4.036 2.314a1.552 1.552 0 1 1 2.693-1.546c.427.746.17 1.695-.574 2.122a1.582 1.582 0 0 1-.776.209 1.557 1.557 0 0 1-1.343-.785m-4.042 2.324a1.552 1.552 0 1 1 2.692-1.547c.427.739.17 1.694-.574 2.122a1.564 1.564 0 0 1-2.118-.575m-4.035 2.314a1.55 1.55 0 1 1 2.692-1.545 1.559 1.559 0 0 1-.574 2.12c-.248.14-.512.202-.776.202a1.537 1.537 0 0 1-1.342-.777m-4.042 2.316a1.553 1.553 0 0 1 .573-2.122 1.554 1.554 0 0 1 1.544 2.696 1.543 1.543 0 0 1-2.118-.575m-4.042 2.323a1.56 1.56 0 0 1 .573-2.121c.745-.427 1.7-.17 2.119.575.426.738.17 1.693-.575 2.12a1.56 1.56 0 0 1-2.118-.574m-4.035 2.314a1.553 1.553 0 1 1 2.119.576 1.543 1.543 0 0 1-2.118-.576m-4.044 2.316a1.567 1.567 0 0 1 .575-2.121 1.565 1.565 0 0 1 2.126.575 1.56 1.56 0 0 1-.582 2.12c-.24.14-.504.21-.768.21-.536 0-1.063-.28-1.35-.784m-4.036 2.322a1.552 1.552 0 1 1 2.119.575c-.248.14-.512.202-.768.202a1.55 1.55 0 0 1-1.35-.777m-4.036 2.316a1.547 1.547 0 0 1 .575-2.122 1.542 1.542 0 0 1 2.11.575c.427.746.171 1.693-.574 2.121a1.531 1.531 0 0 1-2.11-.574m-4.043 2.322a1.552 1.552 0 1 1 2.692-1.546 1.558 1.558 0 0 1-.573 2.12c-.241.14-.513.203-.77.203-.542 0-1.062-.28-1.35-.777m-4.042 2.314a1.559 1.559 0 0 1 .574-2.12 1.547 1.547 0 0 1 2.119.575 1.553 1.553 0 0 1-.574 2.121 1.537 1.537 0 0 1-.769.209 1.568 1.568 0 0 1-1.35-.785"/>
            <path fill="#38D611" d="M159.536 71.93a1.554 1.554 0 0 1-.582-2.12 1.55 1.55 0 0 1 2.118-.576 1.562 1.562 0 0 1 .582 2.121 1.562 1.562 0 0 1-2.118.575m4.043 2.314a1.562 1.562 0 0 1-.582-2.12 1.551 1.551 0 0 1 2.118-.582 1.561 1.561 0 0 1 .582 2.12 1.55 1.55 0 0 1-1.35.784 1.6 1.6 0 0 1-.768-.202m4.043 2.307a1.553 1.553 0 0 1-.582-2.12 1.55 1.55 0 0 1 2.118-.575 1.548 1.548 0 0 1 .582 2.113 1.551 1.551 0 0 1-2.118.582m4.043 2.308a1.552 1.552 0 0 1 1.536-2.696 1.553 1.553 0 1 1-.768 2.905 1.52 1.52 0 0 1-.768-.209m4.043 2.314a1.552 1.552 0 0 1-.575-2.12 1.538 1.538 0 0 1 2.11-.575 1.55 1.55 0 1 1-.768 2.897c-.264 0-.528-.062-.767-.202m4.042 2.316a1.571 1.571 0 0 1-.582-2.129 1.564 1.564 0 0 1 2.126-.575 1.56 1.56 0 0 1 .574 2.121 1.545 1.545 0 0 1-1.35.785c-.264 0-.528-.07-.768-.202m4.043 2.307a1.554 1.554 0 0 1-.574-2.121 1.537 1.537 0 0 1 2.11-.574 1.548 1.548 0 0 1-.768 2.896c-.264 0-.528-.062-.768-.201m4.043 2.306a1.544 1.544 0 0 1-.575-2.112 1.543 1.543 0 0 1 2.11-.582 1.554 1.554 0 0 1-.768 2.905c-.264 0-.527-.07-.767-.21m4.043 2.315a1.555 1.555 0 0 1-.575-2.121 1.548 1.548 0 0 1 2.119-.575c.745.42 1 1.375.573 2.113a1.545 1.545 0 0 1-1.35.785c-.255 0-.528-.063-.767-.202m4.042 2.307a1.545 1.545 0 0 1-.575-2.113 1.545 1.545 0 0 1 2.111-.582 1.554 1.554 0 0 1-.767 2.905c-.257 0-.521-.07-.769-.21m4.043 2.315a1.554 1.554 0 0 1 1.544-2.696 1.55 1.55 0 0 1 .574 2.113 1.557 1.557 0 0 1-2.118.583m4.043 2.307a1.56 1.56 0 0 1-.575-2.121 1.551 1.551 0 1 1 2.693 1.546 1.559 1.559 0 0 1-1.35.784c-.256 0-.52-.07-.768-.209m4.05 2.314a1.551 1.551 0 1 1 1.537-2.696 1.543 1.543 0 0 1 .573 2.114 1.542 1.542 0 0 1-2.11.582m4.035 2.308a1.547 1.547 0 0 1-.575-2.113 1.553 1.553 0 0 1 2.12-.583 1.563 1.563 0 0 1 .581 2.121 1.583 1.583 0 0 1-1.358.784c-.256 0-.52-.069-.768-.209m4.05 2.314a1.554 1.554 0 0 1 1.537-2.702 1.554 1.554 0 0 1 .574 2.12 1.53 1.53 0 0 1-1.343.784 1.52 1.52 0 0 1-.768-.202M215.622 130.431a1.556 1.556 0 0 1 .45-2.152 1.558 1.558 0 0 1 2.15.451 1.562 1.562 0 0 1-.45 2.152 1.543 1.543 0 0 1-2.15-.45m-3.903 2.54a1.548 1.548 0 0 1 .459-2.145 1.535 1.535 0 0 1 2.14.451 1.562 1.562 0 0 1-.45 2.152 1.553 1.553 0 0 1-2.15-.458m-3.894 2.547a1.55 1.55 0 0 1 .45-2.151 1.545 1.545 0 0 1 2.142.458 1.539 1.539 0 0 1-.45 2.144 1.539 1.539 0 0 1-2.142-.45m-3.903 2.547a1.561 1.561 0 0 1 .45-2.151 1.56 1.56 0 0 1 2.15.45 1.562 1.562 0 0 1-1.296 2.408c-.513 0-1.01-.256-1.304-.707m-3.902 2.548a1.555 1.555 0 0 1 .457-2.152 1.536 1.536 0 0 1 2.141.451 1.548 1.548 0 0 1-1.296 2.4 1.57 1.57 0 0 1-1.302-.699M100.106 129.08a1.549 1.549 0 0 1-.566-2.12 1.546 1.546 0 0 1 2.118-.568 1.545 1.545 0 0 1 .566 2.121 1.55 1.55 0 0 1-1.342.777c-.264 0-.528-.07-.776-.21m4.035 2.33a1.55 1.55 0 0 1-.566-2.12 1.549 1.549 0 0 1 2.118-.576 1.56 1.56 0 0 1-.776 2.906 1.57 1.57 0 0 1-.776-.21m4.035 2.323a1.55 1.55 0 0 1-.567-2.121 1.554 1.554 0 0 1 2.119-.567c.737.427.994 1.375.566 2.12a1.548 1.548 0 0 1-2.118.568m4.035 2.33a1.554 1.554 0 0 1-.575-2.12 1.56 1.56 0 0 1 2.127-.575c.737.427.993 1.382.566 2.128a1.544 1.544 0 0 1-2.118.567m4.035 2.323a1.552 1.552 0 0 1-.574-2.121 1.561 1.561 0 0 1 2.125-.566c.738.426.994 1.374.567 2.12a1.548 1.548 0 0 1-2.118.567m4.035 2.33a1.554 1.554 0 0 1 1.544-2.695 1.555 1.555 0 0 1 .574 2.12 1.542 1.542 0 0 1-2.118.575M160.7 49.604a1.554 1.554 0 0 1-1.529-1.577 1.54 1.54 0 0 1 1.568-1.53c.861.008 1.544.715 1.536 1.57a1.56 1.56 0 0 1-1.559 1.537h-.016zm-.07 4.653a1.548 1.548 0 0 1-1.529-1.569 1.558 1.558 0 0 1 1.576-1.538 1.562 1.562 0 0 1 1.528 1.577 1.552 1.552 0 0 1-1.552 1.53h-.023zm-.062 4.661a1.543 1.543 0 0 1-1.529-1.569 1.552 1.552 0 0 1 1.569-1.538c.86.015 1.543.722 1.535 1.577a1.553 1.553 0 0 1-1.559 1.53h-.016zm-.07 4.661a1.55 1.55 0 0 1 .047-3.1 1.547 1.547 0 0 1 1.53 1.57c-.009.854-.7 1.53-1.546 1.53h-.03zm-.062 4.66a1.548 1.548 0 0 1-1.529-1.568 1.553 1.553 0 0 1 1.576-1.538 1.558 1.558 0 0 1 1.528 1.577 1.552 1.552 0 0 1-1.552 1.53h-.023zM160.7 166.709a1.55 1.55 0 0 1-1.529-1.577 1.545 1.545 0 0 1 1.568-1.53c.861.007 1.544.714 1.53 1.576-.009.847-.7 1.53-1.553 1.53h-.016zm-.07 4.66a1.56 1.56 0 0 1-1.529-1.577 1.552 1.552 0 0 1 1.576-1.53 1.546 1.546 0 0 1 1.528 1.57 1.559 1.559 0 0 1-1.552 1.537h-.023zm-.062 4.661a1.554 1.554 0 0 1-1.529-1.577 1.542 1.542 0 0 1 1.576-1.53 1.55 1.55 0 0 1 1.528 1.57 1.559 1.559 0 0 1-1.552 1.537h-.023zm-.07 4.661a1.563 1.563 0 0 1-1.528-1.577 1.55 1.55 0 0 1 1.576-1.53c.86.008 1.543.715 1.528 1.577a1.553 1.553 0 0 1-1.552 1.53h-.024zm-.062 4.661a1.56 1.56 0 0 1-1.529-1.577 1.54 1.54 0 0 1 1.568-1.53 1.552 1.552 0 0 1 1.536 1.569 1.56 1.56 0 0 1-1.559 1.538h-.016z"/>
        </g>
        <g fill="#FA0171">
            <path d="M239.803 63.72c-3.525 0-6.393 2.87-6.393 6.4 0 3.53 2.868 6.4 6.393 6.4 3.526 0 6.394-2.87 6.394-6.4 0-3.53-2.868-6.4-6.394-6.4m0 13.577c-3.953 0-7.17-3.22-7.17-7.177 0-3.957 3.217-7.177 7.17-7.177 3.954 0 7.17 3.22 7.17 7.177 0 3.958-3.216 7.177-7.17 7.177M81.516 63.964c-3.526 0-6.394 2.87-6.394 6.4 0 3.53 2.868 6.402 6.394 6.402 3.525 0 6.393-2.871 6.393-6.401s-2.868-6.401-6.393-6.401m0 13.578c-3.954 0-7.17-3.22-7.17-7.177 0-3.957 3.216-7.178 7.17-7.178 3.953 0 7.17 3.22 7.17 7.178 0 3.958-3.217 7.177-7.17 7.177M81.933 156.411c-3.526 0-6.394 2.871-6.394 6.401s2.868 6.401 6.394 6.401c3.526 0 6.394-2.871 6.394-6.4 0-3.53-2.868-6.402-6.394-6.402m0 13.579c-3.954 0-7.17-3.22-7.17-7.178 0-3.957 3.216-7.178 7.17-7.178 3.953 0 7.17 3.221 7.17 7.178 0 3.958-3.217 7.178-7.17 7.178M239.803 157.3c-3.525 0-6.393 2.87-6.393 6.4 0 3.53 2.868 6.401 6.393 6.401 3.526 0 6.394-2.87 6.394-6.4 0-3.53-2.868-6.401-6.394-6.401m0 13.578c-3.953 0-7.17-3.22-7.17-7.178 0-3.957 3.217-7.177 7.17-7.177 3.954 0 7.17 3.22 7.17 7.177 0 3.958-3.216 7.178-7.17 7.178"/>
        </g>
    </g>
</svg>
