<svg xmlns="http://www.w3.org/2000/svg" xmlns:xlink="http://www.w3.org/1999/xlink" width="284" height="268" viewBox="0 0 284 268">
    <defs>
        <path id="a" d="M0 .702h3.798v3.802H0z"/>
        <path id="c" d="M0 .702h3.798v3.802H0z"/>
        <path id="e" d="M.075.55h3.798v3.802H.075z"/>
        <path id="g" d="M.183.32h9.884v9.895H.183z"/>
        <path id="i" d="M37.441 32.826L18.825 43.584.211 32.826v-21.52L18.825.548l18.616 10.758z"/>
        <linearGradient id="j" x1="0%" x2="100.016%" y1="50.002%" y2="50.002%">
            <stop offset="0%" stop-color="#304A6C"/>
            <stop offset="100%" stop-color="#38D611"/>
        </linearGradient>
        <path id="l" d="M37.878 32.301l-18.614 10.76L.649 32.3V10.784L19.264.024l18.614 10.76z"/>
        <path id="n" d="M77.464 67.415l-38.547 22.28L.369 67.415v-44.56L38.917.575l38.547 22.28z"/>
        <linearGradient id="o" x1="-.143%" y1="49.996%" y2="49.996%">
            <stop offset="0%" stop-color="#304A6C"/>
            <stop offset="100%" stop-color="#FA0171"/>
        </linearGradient>
    </defs>
    <g fill="none" fill-rule="evenodd">
        <g fill="#FFF" opacity=".5">
            <path d="M41.749 93.434l19.576 11.314 19.574-11.314V70.806L61.325 59.493 41.749 70.806v22.628zm19.576 11.764L41.36 93.658V70.583l19.964-11.538 19.962 11.538v23.077l-19.962 11.54z"/>
            <path d="M61.518 104.987h-.388V82.232L21.592 59.38V44.355h.388v14.8l39.538 22.853z"/>
            <path d="M41.652 93.715l-.194-.337 39.538-22.853.194.338z"/>
            <path d="M80.996 93.715L61.227 82.289l.194-.337 19.77 11.426zM120.632 139.47l-19.964-11.54v-23.077l19.867-11.482.194.337-19.673 11.37v22.628l19.576 11.314 19.575-11.314v-22.74h.388v22.965z"/>
            <path d="M120.826 162.366h-.388v-45.861l-19.673-11.371.194-.336 19.867 11.482z"/>
            <path d="M100.96 127.987l-.194-.337 39.538-22.853.194.337z"/>
            <path d="M160.498 140.272L140.3 127.985l-19.765-11.424.194-.337 19.77 11.426 19.611 11.931V93.323l19.867-11.483.194.337-19.673 11.37zM81.287 93.427l19.576 11.314 19.575-11.314V70.8l-19.575-11.315L81.287 70.8v22.627zm19.576 11.764L80.899 93.65V70.576l19.964-11.539 19.963 11.539v23.077l-19.963 11.539z"/>
            <path d="M81.19 93.708l-.194-.337 39.539-22.852 20.06-10.889v22.483h-.388v-21.83l-19.483 10.575zM41.458 139.42l-19.867-11.482V104.86l19.964-11.54 19.964 11.54v22.964h-.388v-22.74L41.555 93.772l-19.576 11.315v22.627l19.673 11.37z"/>
            <path d="M41.749 139.266h-.388v-22.754l-19.673-11.37-13.526-7.575.302-.17 13.227-7.38.19.34-12.924 7.21 12.924 7.237 19.868 11.483z"/>
            <path d="M1.705 162.695V139.84h.388v22.198l19.499-10.79v-23.534l39.635-22.908.194.337-39.441 22.796v23.538z"/>
            <path d="M61.227 127.994l-19.77-11.426.195-.337 19.77 11.426z"/>
            <path d="M61.518 127.706l19.575 11.314 19.576-11.314v-22.628L81.093 93.764l-19.575 11.314v22.628zm19.575 11.764L61.13 127.93v-23.077l19.963-11.538 19.964 11.538v23.078L81.093 139.47z"/>
            <path d="M81.092 163.109l-20.147-11.875L80.9 139.15v-22.645l-19.672-11.371.194-.336 19.866 11.482v23.088l-.093.057-19.49 11.804 19.39 11.43 19.671-11.466.195.336z"/>
            <path d="M61.421 127.987l-.194-.337 39.539-22.853.194.337zM8.656 67.051l-.194-.337L21.69 59.1l.194.336zM8.366 112.52h.388V97.567h-.388zM61.13 59.601V36.263h.388v22.672L80.9 47.933V25.254h.388V48.16l-.098.056zM120.535 93.708l-19.867-11.482V44.244l13.646-8.019.197.336-13.455 7.906V82l19.673 11.37zM140.27 60.188l-18.714-10.605.262-.464 18.714 10.605zM41.461 162.536l-19.77-11.005.189-.34 19.769 11.006zM232.957 181.53l19.576 11.314 19.575-11.314v-22.628l-19.575-11.314-19.576 11.314v22.628zm19.576 11.763l-19.964-11.538v-23.078l19.964-11.538 19.963 11.538v23.078l-19.963 11.538z"/>
            <path d="M232.86 181.81l-.194-.336 39.539-22.853.194.337z"/>
            <path d="M232.666 227.516L212.8 216.034v-23.078l19.963-11.538 19.964 11.538v22.965h-.388v-22.74l-19.576-11.314-19.575 11.314v22.628l19.672 11.37z"/>
            <path d="M232.957 227.362h-.388v-22.755l-19.672-11.37-13.225-7.405.19-.338 13.227 7.406 19.868 11.482z"/>
            <path d="M213.188 238.68h-.388v-22.87l39.538-22.853v-22.762h.388v22.986l-39.538 22.853z"/>
            <path d="M252.435 216.09l-19.77-11.427.195-.337 19.77 11.427zM200.036 70.477l19.576 11.314 19.575-11.314V47.85l-19.575-11.314-19.576 11.314v22.628zm19.576 11.763L199.65 70.702V47.624l19.963-11.538 19.963 11.538v23.078L219.612 82.24z"/>
            <path d="M219.806 82.03h-.388V59.05l39.539-22.852v-14.8h.388v15.025l-39.539 22.852z"/>
            <path d="M239.284 70.758l-39.538-22.853.194-.337 39.538 22.853z"/>
            <path d="M199.94 70.758l-.194-.337 19.77-11.427.193.337zM160.304 116.512l-19.963-11.538V82.009h.388v22.74l19.575 11.314 19.576-11.315V82.121l-19.673-11.37.194-.338 19.867 11.483v23.078z"/>
            <path d="M179.977 105.03l-39.539-22.853.194-.337 39.539 22.852z"/>
            <path d="M140.632 105.03l-.194-.338 19.77-11.426.194.337zM160.498 70.47l19.576 11.314 19.574-11.314V47.842l-19.574-11.314-19.576 11.314V70.47zm19.576 11.764l-19.964-11.54V47.617l19.964-11.538 19.962 11.538v23.077l-19.962 11.54z"/>
            <path d="M199.611 70.75l-39.538-22.852-19.478-10.572v22.607h-.388v-23.26l20.056 10.886 39.542 22.854zM239.478 116.463l-.194-.337 19.672-11.37V82.129l-19.575-11.314-19.575 11.314v22.74h-.388V81.904l19.963-11.54 19.963 11.54v23.077z"/>
            <path d="M239.575 116.308h-.388V93.33l19.866-11.482 12.926-7.238-12.924-7.21.19-.339 13.53 7.55-13.53 7.575-19.67 11.369z"/>
            <path d="M279.231 139.738l-20.274-11.22v-23.537l-39.442-22.797.194-.336 39.635 22.908v23.533l19.5 10.79v-22.198h.387z"/>
            <path d="M219.709 105.037l-.194-.337 19.77-11.427.194.337z"/>
            <path d="M180.268 104.749l19.575 11.314 19.575-11.314V82.12l-19.575-11.314-19.575 11.314v22.628zm19.575 11.764l-19.963-11.54V81.896l19.963-11.538 19.963 11.538v23.077l-19.963 11.54z"/>
            <path d="M199.843 140.152l-.098-.057-19.845-11.568.196-.335 19.746 11.51 19.39-11.43-19.583-11.86v-23.09l19.866-11.481.194.336-19.672 11.37v22.645l19.954 12.085z"/>
            <path d="M219.515 105.03l-39.538-22.853.194-.337 39.538 22.852zM219.806 36.643l-.29-.164-19.867-11.278V2.297h.387l.001 22.678 19.381 11.003V13.306h.388zM160.401 70.75l-.194-.337 19.673-11.37V21.51l-13.455-7.906.197-.335 13.646 8.018v37.982zM140.504 37.164l-.207-.33 12.928-8.148.206.33zM101.116 219.997l19.575 11.313 19.575-11.313v-22.629l-19.575-11.313-19.575 11.313v22.629zm19.575 11.763l-19.963-11.539v-23.077l19.963-11.538 19.963 11.538v23.077L120.69 231.76z"/>
            <path d="M81.346 246.448h-.388v-15.025l39.538-22.853v-22.754h.388v22.979l-39.538 22.852z"/>
            <path d="M140.363 220.277l-39.538-22.853.194-.337 39.538 22.853z"/>
            <path d="M120.787 208.851l-.194-.337 19.77-11.427.194.337zM179.901 197.432l-19.866-11.483v-23.077l19.963-11.538 19.964 11.538v22.965h-.388v-22.74l-19.576-11.314-19.575 11.314v22.628l19.672 11.37z"/>
            <path d="M160.326 186.005l-.194-.337 19.672-11.37V128.36h.388v46.164z"/>
            <path d="M199.67 186.005l-39.538-22.852.194-.337 39.538 22.852z"/>
            <path d="M180.095 174.58l-.194-.338 19.77-11.426 13.58-8.263.202.332-13.585 8.266zM140.654 220.004l19.576 11.314 19.574-11.314v-22.628l-19.574-11.314-19.576 11.314v22.628zm19.576 11.764l-19.964-11.54v-23.077l19.964-11.538 19.962 11.538v23.077l-19.962 11.54z"/>
            <path d="M212.9 238.37l-18.16-10.03-14.834-8.053-39.543-22.855.194-.337 39.538 22.852 14.832 8.051 18.161 10.032zM100.922 197.48l-19.964-11.538v-22.964h.388v22.74l19.576 11.314 19.575-11.315v-22.74h.388v22.965z"/>
            <path d="M81.058 200.786l-13.53-7.55 13.53-7.575 19.67-11.37v-22.753h.388v22.978l-19.867 11.482-12.926 7.238 12.924 7.21z"/>
            <path d="M101.019 174.572l-.194-.337 19.769-11.426.194.337z"/>
            <path d="M120.884 185.724l19.576 11.315 19.575-11.315v-22.627l-19.575-11.314-19.576 11.314v22.627zm19.576 11.765l-19.964-11.54v-23.077l19.964-11.538 19.963 11.538v23.077l-19.963 11.54z"/>
            <path d="M120.787 186.005l-.194-.337 19.673-11.37v-22.645l-19.676-11.916.201-.332 19.863 12.03v23.088z"/>
            <path d="M160.132 186.005l-39.538-22.852.194-.337 39.538 22.852zM81.055 231.704l-13.227-7.616.194-.336 13.227 7.614zM67.732 193.237h.388v-14.954h-.388zM140.654 265.549h-.388V242.87l-19.382-11.003v22.67h-.388v-23.336l.29.164 19.868 11.28zM173.68 254.578l-13.645-8.018v-37.983l19.866-11.482.194.337-19.672 11.37v37.535l13.455 7.905zM272.205 181.81l-39.539-22.852.194-.337 39.539 22.853z"/>
        </g>
        <g opacity=".5">
            <path fill="#FFF" d="M23.685 43.308a1.9 1.9 0 1 1-3.8.001 1.9 1.9 0 0 1 3.8 0M9.851 66.883a1.9 1.9 0 1 1-1.898-1.9 1.9 1.9 0 0 1 1.898 1.9M23.685 59.268a1.9 1.9 0 1 1-3.799 0 1.9 1.9 0 1 1 3.8 0M43.227 70.694a1.9 1.9 0 1 1-1.9-1.9 1.9 1.9 0 0 1 1.9 1.9M63.234 82.009a1.9 1.9 0 1 1-1.899-1.901 1.9 1.9 0 0 1 1.9 1.9M102.767 82.009a1.9 1.9 0 1 1-1.899-1.901 1.9 1.9 0 0 1 1.899 1.9M63.234 59.268a1.9 1.9 0 1 1-3.798 0 1.9 1.9 0 1 1 3.798 0M63.234 36.393a1.9 1.9 0 1 1-1.899-1.9 1.9 1.9 0 0 1 1.9 1.9M82.993 25.254a1.9 1.9 0 1 1-3.801.001 1.9 1.9 0 0 1 3.8 0M82.993 47.974a1.9 1.9 0 1 1-3.801 0 1.9 1.9 0 0 1 3.8 0M82.993 70.694a1.9 1.9 0 1 1-3.8.002 1.9 1.9 0 0 1 3.8-.002M82.993 93.435a1.9 1.9 0 1 1-3.8.002 1.9 1.9 0 0 1 3.8-.002M63.234 104.987a1.9 1.9 0 0 1-1.899 1.901 1.9 1.9 0 0 1 0-3.802 1.9 1.9 0 0 1 1.9 1.9M63.223 127.966a1.9 1.9 0 1 1-1.898-1.901 1.9 1.9 0 0 1 1.898 1.9M43.227 116.414a1.9 1.9 0 1 1-1.9-1.901 1.9 1.9 0 0 1 1.9 1.9M43.074 139.245a1.9 1.9 0 1 1-1.898-1.901 1.9 1.9 0 0 1 1.898 1.9M23.685 127.819a1.9 1.9 0 1 1-3.8.001 1.9 1.9 0 0 1 3.8-.001M23.685 151.361a1.9 1.9 0 1 1-3.8.001 1.9 1.9 0 0 1 3.8 0M42.825 162.076a1.9 1.9 0 1 1-1.899-1.9 1.9 1.9 0 0 1 1.899 1.9"/>
            <g transform="translate(0 159.473)">
                <mask id="b" fill="#fff">
                    <use xlink:href="#a"/>
                </mask>
                <path fill="#FFF" d="M3.798 2.603A1.9 1.9 0 1 1 1.9.703a1.9 1.9 0 0 1 1.898 1.9" mask="url(#b)"/>
            </g>
            <g transform="translate(0 137.722)">
                <mask id="d" fill="#fff">
                    <use xlink:href="#c"/>
                </mask>
                <path fill="#FFF" d="M3.798 2.603A1.9 1.9 0 1 1 1.9.703a1.9 1.9 0 0 1 1.898 1.9" mask="url(#d)"/>
            </g>
            <path fill="#FFF" d="M82.993 116.414a1.9 1.9 0 1 1-3.8.002 1.9 1.9 0 0 1 3.8-.002M83.051 139.245a1.9 1.9 0 1 1-1.899-1.901 1.9 1.9 0 0 1 1.9 1.9M102.762 127.966a1.9 1.9 0 1 1-1.9-1.901 1.9 1.9 0 0 1 1.9 1.9M63.234 151.361a1.9 1.9 0 1 1-1.899-1.9 1.9 1.9 0 0 1 1.9 1.9M102.767 59.54a1.9 1.9 0 1 1-1.899-1.901 1.9 1.9 0 0 1 1.899 1.9M102.829 44.355a1.9 1.9 0 1 1-1.899-1.9 1.9 1.9 0 0 1 1.899 1.9M116.232 36.393a1.9 1.9 0 1 1-1.899-1.9 1.9 1.9 0 0 1 1.899 1.9M122.526 70.966a1.9 1.9 0 1 1-1.899-1.901 1.9 1.9 0 0 1 1.899 1.9M123.303 49.371a1.9 1.9 0 1 1-1.899-1.9 1.9 1.9 0 0 1 1.9 1.9M142.3 59.956a1.9 1.9 0 1 1-1.899-1.9c1.05 0 1.9.85 1.9 1.9M142.3 37a1.9 1.9 0 1 1-3.8.001 1.9 1.9 0 0 1 3.8-.002M155.227 28.85a1.9 1.9 0 0 1-1.9 1.902 1.9 1.9 0 0 1 0-3.803 1.9 1.9 0 0 1 1.9 1.901M162.203 47.736a1.9 1.9 0 1 1-1.898-1.9 1.9 1.9 0 0 1 1.898 1.9M162.203 70.694a1.9 1.9 0 1 1-1.898-1.9 1.9 1.9 0 0 1 1.898 1.9M201.608 70.582a1.9 1.9 0 1 1-3.8.002 1.9 1.9 0 0 1 3.8-.002M181.898 59.646a1.9 1.9 0 1 1-3.801 0 1.9 1.9 0 0 1 3.8 0M181.973 82.009a1.9 1.9 0 1 1-1.899-1.901 1.9 1.9 0 0 1 1.899 1.9M182.04 104.735a1.9 1.9 0 1 1-1.9-1.9 1.9 1.9 0 0 1 1.9 1.9M221.444 104.624a1.9 1.9 0 1 1-1.898-1.901 1.9 1.9 0 0 1 1.898 1.9M241.28 93.442a1.9 1.9 0 1 1-1.898-1.901 1.9 1.9 0 0 1 1.898 1.9M241.28 116.393a1.9 1.9 0 1 1-1.898-1.901 1.9 1.9 0 0 1 1.898 1.9M221.444 128.36a1.9 1.9 0 1 1-3.798 0 1.9 1.9 0 1 1 3.798 0M202.217 139.57a1.9 1.9 0 1 1-3.798 0 1.9 1.9 0 1 1 3.798 0M182.04 128.886a1.9 1.9 0 1 1-1.9-1.9 1.9 1.9 0 0 1 1.9 1.9M181.897 151.558a1.9 1.9 0 1 1-3.798 0 1.9 1.9 0 0 1 1.9-1.901 1.9 1.9 0 0 1 1.898 1.901M201.666 162.985a1.9 1.9 0 1 1-1.898-1.901 1.9 1.9 0 0 1 1.898 1.9M162.203 163.32a1.9 1.9 0 1 1-1.898-1.9 1.9 1.9 0 0 1 1.898 1.9M214.893 154.719a1.9 1.9 0 1 1-3.799 0 1.9 1.9 0 1 1 3.8 0M261.05 104.735a1.9 1.9 0 1 1-3.8.002 1.9 1.9 0 0 1 3.8-.002M280.936 117.308a1.9 1.9 0 1 1-3.798 0 1.9 1.9 0 1 1 3.798 0M280.936 139.245a1.9 1.9 0 1 1-1.899-1.901 1.9 1.9 0 0 1 1.899 1.9M261.05 128.36a1.9 1.9 0 1 1-1.9-1.901c1.05 0 1.9.85 1.9 1.9M201.734 93.687a1.9 1.9 0 1 1-1.899-1.901 1.9 1.9 0 0 1 1.899 1.9M201.809 116.05a1.9 1.9 0 1 1-1.899-1.901 1.9 1.9 0 0 1 1.899 1.9M201.742 47.974a1.9 1.9 0 1 1-3.8.002 1.9 1.9 0 0 1 3.8-.002M181.973 36.393a1.9 1.9 0 1 1-1.899-1.9 1.9 1.9 0 0 1 1.899 1.9M240.737 70.537a1.9 1.9 0 1 1-1.899-1.9 1.9 1.9 0 0 1 1.9 1.9M221.027 59.601a1.9 1.9 0 1 1-3.799 0 1.9 1.9 0 1 1 3.799 0M221.51 81.963a1.9 1.9 0 1 1-1.898-1.9 1.9 1.9 0 0 1 1.899 1.9M254.369 170.455a1.9 1.9 0 1 1-3.799 0 1.9 1.9 0 1 1 3.799 0M274.205 159.273a1.9 1.9 0 1 1-1.899-1.9 1.9 1.9 0 0 1 1.899 1.9M274.205 181.447a1.9 1.9 0 1 1-1.899-1.901 1.9 1.9 0 0 1 1.899 1.9M254.369 192.637a1.9 1.9 0 1 1-1.9-1.901 1.9 1.9 0 0 1 1.9 1.9M234.658 159.518a1.9 1.9 0 1 1-1.899-1.9 1.9 1.9 0 0 1 1.9 1.9M234.733 181.881a1.9 1.9 0 1 1-1.898-1.9 1.9 1.9 0 0 1 1.898 1.9M234.604 204.586a1.9 1.9 0 1 1-3.8 0 1.9 1.9 0 1 1 3.8 0M254.369 215.42a1.9 1.9 0 1 1-3.799 0 1.9 1.9 0 1 1 3.799 0M234.604 226.767a1.9 1.9 0 1 1-1.9-1.9 1.9 1.9 0 0 1 1.9 1.9M214.893 193.649a1.9 1.9 0 1 1-1.898-1.901 1.9 1.9 0 0 1 1.898 1.9M181.897 174.404a1.9 1.9 0 1 1-1.899-1.901 1.9 1.9 0 0 1 1.899 1.9M162.203 185.663a1.9 1.9 0 1 1-3.798 0 1.9 1.9 0 1 1 3.798 0M201.666 185.837a1.9 1.9 0 1 1-3.798 0 1.9 1.9 0 1 1 3.798 0M214.968 216.012a1.9 1.9 0 1 1-1.898-1.901 1.9 1.9 0 0 1 1.898 1.9M181.941 197.23a1.9 1.9 0 1 1-3.798 0 1.9 1.9 0 1 1 3.798 0M162.176 208.4a1.9 1.9 0 1 1-3.798 0 1.9 1.9 0 1 1 3.798 0M181.941 220.012a1.9 1.9 0 1 1-1.899-1.9 1.9 1.9 0 0 1 1.899 1.9M162.176 231.36a1.9 1.9 0 1 1-1.899-1.9 1.9 1.9 0 0 1 1.899 1.9M162.176 246.448a1.9 1.9 0 1 1-1.899-1.901 1.9 1.9 0 0 1 1.899 1.9M142.359 265.549a1.9 1.9 0 1 1-1.899-1.901 1.9 1.9 0 0 1 1.899 1.9M142.359 242.646a1.9 1.9 0 1 1-3.798 0 1.9 1.9 0 1 1 3.798 0M122.59 254.41a1.9 1.9 0 1 1-1.9-1.9 1.9 1.9 0 0 1 1.9 1.9M122.59 231.36a1.9 1.9 0 1 1-1.9-1.9 1.9 1.9 0 0 1 1.9 1.9M102.762 220.012a1.9 1.9 0 1 1-1.9-1.9 1.9 1.9 0 0 1 1.9 1.9M83.051 231.36a1.9 1.9 0 1 1-1.899-1.9 1.9 1.9 0 0 1 1.9 1.9M82.993 246.448a1.9 1.9 0 1 1-3.8.002 1.9 1.9 0 0 1 3.8-.002M69.825 223.92a1.9 1.9 0 1 1-3.8.002 1.9 1.9 0 0 1 3.8-.002M175.755 254.41a1.9 1.9 0 1 1-1.899-1.9 1.9 1.9 0 0 1 1.9 1.9M142.466 198.242a1.9 1.9 0 1 1-1.899-1.9 1.9 1.9 0 0 1 1.899 1.9M122.526 208.69a1.9 1.9 0 1 1-1.899-1.901 1.9 1.9 0 0 1 1.899 1.9M102.82 197.23a1.9 1.9 0 1 1-3.798 0 1.9 1.9 0 1 1 3.799 0M122.59 185.837a1.9 1.9 0 1 1-3.799 0 1.9 1.9 0 1 1 3.798 0M142.3 174.404a1.9 1.9 0 1 1-3.8.002 1.9 1.9 0 0 1 3.8-.002M142.3 151.558a1.9 1.9 0 1 1-3.799 0 1.9 1.9 0 1 1 3.8 0M122.526 162.985a1.9 1.9 0 1 1-1.899-1.901 1.9 1.9 0 0 1 1.899 1.9M102.82 174.404a1.9 1.9 0 1 1-1.898-1.901 1.9 1.9 0 0 1 1.899 1.9M83.051 185.816a1.9 1.9 0 1 1-3.798 0 1.9 1.9 0 1 1 3.798 0M83.051 162.884a1.9 1.9 0 1 1-3.798 0 1.9 1.9 0 1 1 3.798 0M102.762 151.537a1.9 1.9 0 1 1-1.9-1.9 1.9 1.9 0 0 1 1.9 1.9M69.825 193.069a1.9 1.9 0 1 1-3.8.001 1.9 1.9 0 0 1 3.8-.001M69.825 178.283a1.9 1.9 0 1 1-3.8.001 1.9 1.9 0 0 1 3.8-.001M82.993 200.616a1.9 1.9 0 1 1-3.8.002 1.9 1.9 0 0 1 3.8-.002M142.541 220.604a1.9 1.9 0 1 1-1.9-1.9c1.05 0 1.9.85 1.9 1.9M214.968 238.2a1.9 1.9 0 1 1-1.898-1.901 1.9 1.9 0 0 1 1.898 1.9M254.435 147.795a1.9 1.9 0 1 1-1.898-1.9 1.9 1.9 0 0 1 1.898 1.9M240.871 47.93a1.9 1.9 0 1 1-1.899-1.902 1.9 1.9 0 0 1 1.9 1.901M261.05 21.398a1.9 1.9 0 1 1-1.899-1.901 1.9 1.9 0 0 1 1.899 1.9M221.51 36.303a1.9 1.9 0 1 1-3.797 0 1.9 1.9 0 1 1 3.798 0M261.05 36.303a1.9 1.9 0 1 1-1.9-1.901c1.05 0 1.9.85 1.9 1.9M261.826 67.674a1.9 1.9 0 1 1-1.899-1.9 1.9 1.9 0 0 1 1.899 1.9M274.276 74.496a1.9 1.9 0 1 1-1.899-1.9 1.9 1.9 0 0 1 1.899 1.9M261.05 81.963a1.9 1.9 0 1 1-3.8.002 1.9 1.9 0 0 1 3.8-.002M221.51 13.435a1.9 1.9 0 1 1-1.898-1.9 1.9 1.9 0 0 1 1.899 1.9"/>
            <g transform="translate(197.869 .227)">
                <mask id="f" fill="#fff">
                    <use xlink:href="#e"/>
                </mask>
                <path fill="#FFF" d="M3.873 2.45a1.9 1.9 0 1 1-3.8.003 1.9 1.9 0 0 1 3.8-.002" mask="url(#f)"/>
            </g>
            <path fill="#FFF" d="M201.742 25.048a1.9 1.9 0 1 1-3.8.002 1.9 1.9 0 0 1 3.8-.002M181.898 21.398a1.9 1.9 0 1 1-3.801 0 1.9 1.9 0 0 1 3.8 0M168.772 13.435a1.9 1.9 0 1 1-1.898-1.9 1.9 1.9 0 0 1 1.898 1.9M122.526 93.706a1.9 1.9 0 1 1-3.801.003 1.9 1.9 0 0 1 3.8-.003M102.767 105.26a1.9 1.9 0 1 1-1.899-1.902 1.9 1.9 0 0 1 1.899 1.901M122.587 116.274a1.9 1.9 0 1 1-1.899-1.9 1.9 1.9 0 0 1 1.9 1.9M122.645 139.105a1.9 1.9 0 1 1-3.798 0 1.9 1.9 0 1 1 3.798 0M142.357 127.826a1.9 1.9 0 1 1-3.801.001 1.9 1.9 0 0 1 3.8 0M162.203 139.57a1.9 1.9 0 1 1-3.798 0 1.9 1.9 0 1 1 3.798 0M142.362 105.12a1.9 1.9 0 1 1-1.899-1.901 1.9 1.9 0 0 1 1.899 1.9M162.203 93.435a1.9 1.9 0 1 1-1.898-1.901 1.9 1.9 0 0 1 1.898 1.9M142.435 81.963a1.9 1.9 0 1 1-3.8.002 1.9 1.9 0 0 1 3.8-.002M162.128 116.05a1.9 1.9 0 1 1-1.898-1.901 1.9 1.9 0 0 1 1.898 1.9M43.454 93.56a1.9 1.9 0 1 1-1.899-1.9 1.9 1.9 0 0 1 1.899 1.9M24.151 105.26a1.9 1.9 0 1 1-1.898-1.902 1.9 1.9 0 0 1 1.898 1.901M10.458 97.567a1.9 1.9 0 1 1-1.898-1.9 1.9 1.9 0 0 1 1.898 1.9M10.458 112.52a1.9 1.9 0 1 1-1.898-1.9 1.9 1.9 0 0 1 1.898 1.9M23.685 90.187a1.9 1.9 0 1 1-3.8.001 1.9 1.9 0 0 1 3.8 0"/>
        </g>
        <g opacity=".5">
            <path fill="#FFF" d="M26.61 43.07a4.945 4.945 0 0 1-4.942 4.949 4.946 4.946 0 0 1-4.943-4.949 4.945 4.945 0 0 1 4.943-4.947 4.945 4.945 0 0 1 4.942 4.947M86.036 47.736a4.945 4.945 0 0 1-4.943 4.948 4.944 4.944 0 0 1-4.942-4.948 4.944 4.944 0 0 1 4.942-4.947 4.945 4.945 0 0 1 4.943 4.947M126.346 49.371a4.945 4.945 0 0 1-4.942 4.948 4.944 4.944 0 0 1-4.942-4.948 4.944 4.944 0 0 1 4.942-4.947 4.945 4.945 0 0 1 4.942 4.947M264.093 21.219a4.945 4.945 0 0 1-4.943 4.947 4.944 4.944 0 0 1-4.942-4.947 4.944 4.944 0 0 1 4.942-4.948 4.945 4.945 0 0 1 4.943 4.948M224.487 36.303a4.945 4.945 0 0 1-4.942 4.948 4.945 4.945 0 0 1-4.942-4.948 4.945 4.945 0 0 1 4.942-4.948 4.945 4.945 0 0 1 4.942 4.948M184.941 21.578a4.945 4.945 0 0 1-4.943 4.948 4.944 4.944 0 0 1-4.942-4.948 4.944 4.944 0 0 1 4.942-4.947 4.945 4.945 0 0 1 4.943 4.947M264.093 82.03a4.945 4.945 0 0 1-4.942 4.947 4.944 4.944 0 0 1-4.943-4.947 4.945 4.945 0 0 1 4.943-4.948 4.945 4.945 0 0 1 4.942 4.948"/>
            <g transform="translate(273.913 133.838)">
                <mask id="h" fill="#fff">
                    <use xlink:href="#g"/>
                </mask>
                <path fill="#FFF" d="M10.067 5.267a4.946 4.946 0 0 1-4.942 4.948A4.944 4.944 0 0 1 .183 5.267 4.944 4.944 0 0 1 5.125.319a4.945 4.945 0 0 1 4.942 4.948" mask="url(#h)"/>
            </g>
            <path fill="#FFF" d="M277.32 181.447a4.945 4.945 0 0 1-4.943 4.947 4.944 4.944 0 0 1-4.942-4.947 4.944 4.944 0 0 1 4.942-4.948 4.945 4.945 0 0 1 4.942 4.948M237.647 226.767a4.945 4.945 0 0 1-4.942 4.948 4.945 4.945 0 0 1-4.943-4.948 4.945 4.945 0 0 1 4.943-4.947 4.945 4.945 0 0 1 4.942 4.947M257.475 147.795a4.945 4.945 0 0 1-4.942 4.948 4.944 4.944 0 0 1-4.942-4.948 4.944 4.944 0 0 1 4.942-4.948 4.945 4.945 0 0 1 4.942 4.948M165.142 246.448a4.945 4.945 0 0 1-4.942 4.947 4.944 4.944 0 0 1-4.942-4.947 4.944 4.944 0 0 1 4.942-4.948 4.945 4.945 0 0 1 4.942 4.948M125.633 254.41a4.945 4.945 0 0 1-4.942 4.948 4.944 4.944 0 0 1-4.943-4.948 4.944 4.944 0 0 1 4.943-4.947 4.945 4.945 0 0 1 4.942 4.947M86.036 231.36a4.945 4.945 0 0 1-4.943 4.948 4.944 4.944 0 0 1-4.942-4.947 4.945 4.945 0 0 1 4.942-4.949 4.946 4.946 0 0 1 4.943 4.949M205.261 139.245a4.945 4.945 0 0 1-4.943 4.947 4.944 4.944 0 0 1-4.942-4.947 4.944 4.944 0 0 1 4.942-4.948 4.945 4.945 0 0 1 4.943 4.948M105.805 151.558a4.945 4.945 0 0 1-4.942 4.948 4.944 4.944 0 0 1-4.942-4.948 4.945 4.945 0 0 1 4.942-4.948 4.945 4.945 0 0 1 4.942 4.948M125.569 93.706a4.945 4.945 0 0 1-4.942 4.949 4.946 4.946 0 0 1-4.943-4.949 4.945 4.945 0 0 1 4.943-4.947 4.945 4.945 0 0 1 4.942 4.947M13.502 97.567a4.945 4.945 0 0 1-4.942 4.948 4.944 4.944 0 0 1-4.942-4.948 4.944 4.944 0 0 1 4.942-4.948 4.945 4.945 0 0 1 4.942 4.948M72.868 193.236a4.945 4.945 0 0 1-4.942 4.948 4.944 4.944 0 0 1-4.943-4.948 4.944 4.944 0 0 1 4.943-4.947 4.945 4.945 0 0 1 4.942 4.947M145.344 174.41a4.945 4.945 0 0 1-4.943 4.948 4.944 4.944 0 0 1-4.942-4.947 4.944 4.944 0 0 1 4.942-4.948 4.945 4.945 0 0 1 4.943 4.948M26.729 151.361a4.945 4.945 0 0 1-4.943 4.948 4.944 4.944 0 0 1-4.942-4.948 4.944 4.944 0 0 1 4.942-4.947 4.945 4.945 0 0 1 4.943 4.947M46.118 70.582a4.946 4.946 0 0 1-4.943 4.948 4.945 4.945 0 0 1-4.942-4.948 4.944 4.944 0 0 1 4.942-4.948 4.945 4.945 0 0 1 4.943 4.948"/>
        </g>
        <g transform="translate(23.279 71.693)">
            <mask id="k" fill="#fff">
                <use xlink:href="#i"/>
            </mask>
            <path fill="url(#j)" d="M37.441 32.826v-21.52L18.825.548.211 11.306v21.52l18.614 10.758z" mask="url(#k)" opacity=".7"/>
        </g>
        <g transform="translate(220.372 72.47)">
            <mask id="m" fill="#fff">
                <use xlink:href="#l"/>
            </mask>
            <path fill="url(#j)" d="M37.878 32.301V10.784L19.264.024.649 10.784V32.3l18.615 10.76z" mask="url(#m)" opacity=".7"/>
        </g>
        <g transform="translate(103.202 60.041)">
            <mask id="p" fill="#fff">
                <use xlink:href="#n"/>
            </mask>
            <path fill="url(#o)" d="M77.464 67.415v-44.56L38.917.575.369 22.856v44.56l38.548 22.28z" mask="url(#p)" opacity=".7"/>
        </g>
        <g>
            <path fill="#FA0171" d="M198.776 140.965c-.21 0-.403-.04-.597-.116a1.58 1.58 0 0 1-.505-.343 1.871 1.871 0 0 1-.194-.233 1.79 1.79 0 0 1-.14-.271 1.305 1.305 0 0 1-.085-.287 1.342 1.342 0 0 1-.03-.304c0-.101.007-.202.03-.303.017-.101.048-.194.086-.295.039-.093.085-.179.147-.264.055-.086.117-.163.186-.233a1.32 1.32 0 0 1 .241-.194 1.38 1.38 0 0 1 .559-.234 1.586 1.586 0 0 1 .892.086c.093.039.186.086.272.148.085.054.163.116.232.194a1.538 1.538 0 0 1 0 2.19 1.538 1.538 0 0 1-1.094.459M197.224 76.886a1.552 1.552 0 1 1 3.104 0 1.552 1.552 0 0 1-3.104 0m0 4.808c0-.854.691-1.554 1.552-1.554.855 0 1.552.7 1.552 1.554 0 .863-.697 1.553-1.552 1.553-.861 0-1.552-.69-1.552-1.553m0 4.809a1.552 1.552 0 1 1 3.104 0 1.552 1.552 0 1 1-3.104 0m0 4.807c0-.853.691-1.553 1.552-1.553.855 0 1.552.7 1.552 1.553 0 .864-.697 1.554-1.552 1.554-.861 0-1.552-.69-1.552-1.554m0 4.81a1.552 1.552 0 1 1 3.104 0c0 .862-.697 1.561-1.552 1.561-.861 0-1.552-.699-1.552-1.561m0 4.816a1.552 1.552 0 1 1 3.104 0c0 .854-.697 1.554-1.552 1.554-.861 0-1.552-.7-1.552-1.554m0 4.808a1.552 1.552 0 0 1 3.104 0 1.552 1.552 0 1 1-3.104 0m0 4.809a1.551 1.551 0 1 1 3.104 0c0 .854-.697 1.553-1.552 1.553-.861 0-1.552-.7-1.552-1.553m0 4.808c0-.854.691-1.554 1.552-1.554.855 0 1.552.7 1.552 1.554 0 .863-.697 1.553-1.552 1.553-.861 0-1.552-.69-1.552-1.553m0 4.809a1.552 1.552 0 1 1 3.104 0 1.552 1.552 0 1 1-3.104 0m0 4.816a1.552 1.552 0 1 1 3.104 0 1.55 1.55 0 0 1-1.552 1.545c-.861 0-1.552-.69-1.552-1.545m0 4.8a1.552 1.552 0 1 1 3.104 0c0 .863-.697 1.561-1.552 1.561a1.553 1.553 0 0 1-1.552-1.56m0 4.816a1.551 1.551 0 1 1 3.104 0c0 .854-.697 1.554-1.552 1.554-.861 0-1.552-.7-1.552-1.554M198.776 73.63c-.21 0-.403-.046-.597-.116a1.714 1.714 0 0 1-.505-.342 1.682 1.682 0 0 1-.333-.505 1.537 1.537 0 0 1-.086-.893 1.371 1.371 0 0 1 .233-.56c.055-.085.117-.17.186-.24a2.92 2.92 0 0 1 .241-.194c.085-.055.17-.101.264-.14.094-.039.194-.07.295-.085.201-.047.403-.047.605 0 .102.016.194.046.287.085.093.039.186.085.272.14.085.062.163.124.232.194.078.07.14.155.194.24.055.079.11.172.14.265.039.093.07.194.093.295a1.551 1.551 0 0 1-.085.893 1.61 1.61 0 0 1-.847.847c-.184.07-.387.117-.589.117M143.908 42.155a1.543 1.543 0 0 1-.565-2.121 1.553 1.553 0 0 1 2.117-.567 1.544 1.544 0 0 1 .567 2.12 1.55 1.55 0 0 1-2.119.568m4.16 2.408a1.56 1.56 0 0 1-.567-2.122 1.542 1.542 0 0 1 2.119-.566 1.543 1.543 0 0 1 .566 2.12 1.548 1.548 0 0 1-2.118.568m4.159 2.4a1.557 1.557 0 0 1-.567-2.12 1.556 1.556 0 0 1 2.693 1.554 1.562 1.562 0 0 1-1.35.776 1.49 1.49 0 0 1-.776-.21m4.167 2.408a1.546 1.546 0 0 1-.567-2.12 1.546 1.546 0 0 1 2.119-.567c.737.427.993 1.374.566 2.12a1.55 1.55 0 0 1-2.118.567m4.159 2.4a1.553 1.553 0 0 1 1.552-2.688c.737.428.993 1.383.566 2.12a1.547 1.547 0 0 1-1.342.778c-.264 0-.536-.063-.776-.21m4.16 2.408a1.543 1.543 0 0 1-.568-2.12 1.548 1.548 0 0 1 2.12-.567c.744.426 1 1.375.565 2.12a1.549 1.549 0 0 1-1.341.777c-.265 0-.529-.07-.776-.21m4.166 2.409a1.562 1.562 0 0 1-.574-2.129 1.556 1.556 0 0 1 2.118-.567 1.565 1.565 0 0 1 .574 2.129 1.563 1.563 0 0 1-1.35.777c-.264 0-.528-.07-.768-.21m4.159 2.4a1.554 1.554 0 0 1-.574-2.121 1.562 1.562 0 0 1 2.126-.567c.737.428.993 1.375.567 2.12a1.562 1.562 0 0 1-1.35.777c-.265 0-.529-.062-.77-.209m4.16 2.408a1.546 1.546 0 0 1-.566-2.12 1.54 1.54 0 0 1 2.118-.567c.737.426.993 1.375.566 2.12a1.55 1.55 0 0 1-2.118.567m4.16 2.4a1.543 1.543 0 0 1-.567-2.12 1.555 1.555 0 0 1 2.118-.568 1.56 1.56 0 0 1 .566 2.122 1.55 1.55 0 0 1-2.118.566m4.16 2.409a1.551 1.551 0 0 1-.567-2.122 1.542 1.542 0 0 1 2.118-.566 1.543 1.543 0 0 1 .567 2.12 1.548 1.548 0 0 1-2.119.568m4.16 2.408a1.567 1.567 0 0 1-.567-2.13 1.555 1.555 0 0 1 2.692 1.563 1.563 1.563 0 0 1-1.35.768c-.264 0-.527-.062-.776-.201m4.16 2.4a1.557 1.557 0 0 1-.567-2.12 1.55 1.55 0 0 1 2.126-.568 1.552 1.552 0 1 1-1.56 2.688M140.525 39.956a1.566 1.566 0 0 1-1.102-.45 1.558 1.558 0 0 1-.419-1.398 1.365 1.365 0 0 1 .234-.56c.053-.085.115-.17.185-.24.079-.07.155-.133.242-.195.084-.054.17-.1.263-.14.093-.04.194-.07.294-.085a1.541 1.541 0 0 1 1.591.66c.054.078.11.171.148.263.038.094.062.195.085.296a1.557 1.557 0 0 1-.085.893 1.581 1.581 0 0 1-.342.506c-.287.295-.675.45-1.094.45M135.024 41.587a1.547 1.547 0 0 1 .56-2.12 1.56 1.56 0 0 1 2.124.567 1.556 1.556 0 0 1-1.342 2.33 1.55 1.55 0 0 1-1.342-.777m-4.167 2.408a1.557 1.557 0 0 1 .566-2.12 1.54 1.54 0 0 1 2.119.567 1.55 1.55 0 1 1-2.685 1.553m-4.159 2.4a1.559 1.559 0 0 1 .566-2.12 1.553 1.553 0 0 1 2.118.567 1.544 1.544 0 0 1-.566 2.12 1.549 1.549 0 0 1-2.118-.567m-4.16 2.409a1.544 1.544 0 0 1 .568-2.12 1.545 1.545 0 0 1 2.117.566 1.553 1.553 0 0 1-1.341 2.33 1.55 1.55 0 0 1-1.343-.776m-4.167 2.408a1.562 1.562 0 0 1 .574-2.129 1.555 1.555 0 0 1 2.119.568 1.557 1.557 0 0 1-1.343 2.33 1.563 1.563 0 0 1-1.35-.77m-4.152 2.401a1.548 1.548 0 0 1 .559-2.12 1.556 1.556 0 0 1 2.126.567 1.557 1.557 0 0 1-1.342 2.33 1.55 1.55 0 0 1-1.343-.777m-4.167 2.408a1.57 1.57 0 0 1 .568-2.128 1.564 1.564 0 0 1 2.125.567 1.567 1.567 0 0 1-.566 2.13c-.249.138-.513.208-.776.208-.544 0-1.063-.28-1.35-.777m-4.16 2.4a1.56 1.56 0 0 1 .567-2.12 1.554 1.554 0 0 1 2.118.567 1.544 1.544 0 0 1-.566 2.12 1.548 1.548 0 0 1-2.118-.567m-4.16 2.41a1.551 1.551 0 0 1 .567-2.122 1.541 1.541 0 0 1 2.119.568 1.544 1.544 0 0 1-.567 2.12c-.24.14-.513.21-.776.21a1.55 1.55 0 0 1-1.342-.776m-4.16 2.4a1.546 1.546 0 0 1 .567-2.121 1.555 1.555 0 0 1 2.118.567c.427.745.17 1.7-.566 2.128-.249.14-.512.202-.776.202a1.533 1.533 0 0 1-1.343-.777m-4.16 2.408a1.548 1.548 0 0 1 .56-2.12 1.548 1.548 0 0 1 2.126.567 1.556 1.556 0 0 1-1.343 2.33 1.54 1.54 0 0 1-1.342-.777m-4.166 2.41a1.568 1.568 0 0 1 .565-2.13 1.565 1.565 0 0 1 2.127.567c.426.746.17 1.701-.567 2.129a1.553 1.553 0 0 1-2.125-.566m-4.16 2.399a1.56 1.56 0 0 1 .566-2.12 1.54 1.54 0 0 1 2.119.566 1.544 1.544 0 0 1-.567 2.12 1.543 1.543 0 0 1-2.118-.566M82.275 73.63a1.74 1.74 0 0 1-.599-.116 1.581 1.581 0 0 1-.496-.342 1.573 1.573 0 0 1-.342-.505 1.551 1.551 0 0 1-.084-.893 1.327 1.327 0 0 1 .232-.56c.055-.085.117-.17.194-.24.07-.07.148-.132.233-.194a1.456 1.456 0 0 1 .558-.225 1.33 1.33 0 0 1 .606 0c.101.016.194.046.287.085.101.039.187.085.271.14.086.062.163.124.234.194.07.07.14.155.194.24.053.079.108.172.147.265.038.093.062.194.085.295a1.537 1.537 0 0 1-.427 1.398 1.538 1.538 0 0 1-1.093.459M80.723 76.886a1.552 1.552 0 1 1 3.103 0c0 .854-.698 1.553-1.551 1.553-.855 0-1.552-.699-1.552-1.553m0 4.808c0-.854.697-1.554 1.552-1.554.853 0 1.551.7 1.551 1.554a1.552 1.552 0 1 1-3.103 0m0 4.809c0-.855.697-1.554 1.552-1.554a1.553 1.553 0 1 1-1.552 1.554m0 4.807c0-.853.697-1.553 1.552-1.553.853 0 1.551.7 1.551 1.553a1.552 1.552 0 1 1-3.103 0m0 4.81c0-.856.697-1.554 1.552-1.554a1.557 1.557 0 0 1 0 3.115c-.855 0-1.552-.699-1.552-1.561m0 4.816a1.552 1.552 0 1 1 3.103 0c0 .854-.698 1.554-1.551 1.554-.855 0-1.552-.7-1.552-1.554m0 4.808a1.552 1.552 0 1 1 3.103 0c0 .855-.698 1.553-1.551 1.553a1.556 1.556 0 0 1-1.552-1.553m0 4.809a1.551 1.551 0 1 1 3.103 0c0 .854-.698 1.553-1.551 1.553-.855 0-1.552-.7-1.552-1.553m0 4.808c0-.854.697-1.554 1.552-1.554.853 0 1.551.7 1.551 1.554a1.552 1.552 0 1 1-3.103 0m0 4.809c0-.855.697-1.554 1.552-1.554.853 0 1.551.7 1.551 1.554a1.552 1.552 0 1 1-3.103 0m0 4.816a1.552 1.552 0 1 1 3.103 0 1.55 1.55 0 0 1-1.551 1.545 1.55 1.55 0 0 1-1.552-1.545m0 4.8c0-.854.697-1.553 1.552-1.553a1.557 1.557 0 0 1 0 3.114 1.558 1.558 0 0 1-1.552-1.56m0 4.816a1.551 1.551 0 1 1 3.103 0c0 .854-.698 1.554-1.551 1.554-.855 0-1.552-.7-1.552-1.554M82.275 140.965c-.412 0-.807-.164-1.095-.459a1.515 1.515 0 0 1-.426-1.398 2.11 2.11 0 0 1 .084-.295 1.79 1.79 0 0 1 .148-.264c.055-.086.117-.163.194-.233.07-.078.148-.14.233-.194.086-.062.17-.11.263-.148a1.59 1.59 0 0 1 1.188 0c.101.039.187.086.271.148.086.054.163.116.234.194.077.07.14.147.194.233.053.085.108.17.147.264.038.1.062.194.085.295a1.528 1.528 0 0 1-.427 1.398 1.525 1.525 0 0 1-1.093.459M85.657 143.163a1.568 1.568 0 0 1-.565-2.128 1.555 1.555 0 0 1 2.117-.568 1.548 1.548 0 0 1 .567 2.122 1.535 1.535 0 0 1-1.343.777c-.264 0-.528-.062-.776-.203m4.16 2.4a1.556 1.556 0 0 1-.566-2.12 1.554 1.554 0 1 1 2.693 1.554 1.563 1.563 0 0 1-1.352.776 1.57 1.57 0 0 1-.776-.21m4.16 2.408a1.56 1.56 0 0 1-.567-2.12 1.56 1.56 0 0 1 2.126-.574c.738.427.994 1.382.567 2.127a1.549 1.549 0 0 1-2.126.567m4.167 2.4a1.544 1.544 0 0 1-.567-2.12 1.555 1.555 0 0 1 2.119-.567c.736.427.992 1.375.566 2.121a1.55 1.55 0 0 1-1.342.777c-.265 0-.536-.062-.776-.21m4.158 2.408a1.559 1.559 0 0 1-.565-2.12 1.541 1.541 0 0 1 2.117-.568 1.552 1.552 0 1 1-1.552 2.688m4.16 2.401a1.558 1.558 0 0 1-.567-2.121 1.554 1.554 0 0 1 2.12-.567 1.544 1.544 0 0 1 .565 2.12 1.539 1.539 0 0 1-1.342.777c-.264 0-.527-.062-.776-.209m4.16 2.407a1.558 1.558 0 0 1-.568-2.12 1.55 1.55 0 0 1 2.127-.567c.737.427.993 1.375.566 2.12a1.561 1.561 0 0 1-1.35.777 1.57 1.57 0 0 1-.776-.21m4.167 2.408a1.56 1.56 0 0 1-.574-2.127 1.563 1.563 0 0 1 2.126-.568 1.56 1.56 0 0 1 .567 2.128c-.288.498-.808.77-1.343.77a1.54 1.54 0 0 1-.776-.203m4.159 2.402a1.551 1.551 0 0 1-.567-2.122 1.546 1.546 0 0 1 2.119-.566 1.55 1.55 0 0 1 .567 2.12 1.55 1.55 0 0 1-2.12.568m4.16 2.407a1.548 1.548 0 0 1-.567-2.12 1.55 1.55 0 0 1 2.12-.575 1.552 1.552 0 0 1 .565 2.128 1.547 1.547 0 0 1-2.117.567m4.158 2.4a1.556 1.556 0 0 1-.566-2.12 1.555 1.555 0 0 1 2.118-.567 1.545 1.545 0 0 1 .567 2.121 1.552 1.552 0 0 1-1.343.777 1.49 1.49 0 0 1-.776-.21m4.167 2.408a1.556 1.556 0 0 1-.574-2.121 1.544 1.544 0 0 1 2.118-.567 1.553 1.553 0 0 1 .575 2.12 1.563 1.563 0 0 1-1.35.777c-.264 0-.528-.07-.77-.209m4.16 2.408a1.548 1.548 0 0 1-.566-2.121 1.55 1.55 0 0 1 2.119-.574c.737.426.993 1.382.565 2.12a1.555 1.555 0 0 1-1.341.784 1.55 1.55 0 0 1-.776-.21M140.525 174.632a1.54 1.54 0 0 1-1.102-.459 1.536 1.536 0 0 1-.45-1.094c0-.412.163-.808.45-1.096a1.565 1.565 0 0 1 1.693-.342c.093.038.185.094.27.148.087.054.163.116.233.194.295.288.458.684.458 1.096 0 .41-.163.807-.458 1.094-.287.296-.683.46-1.094.46M193.267 142.589a1.559 1.559 0 0 1 .566-2.121c.745-.427 1.7-.17 2.127.567.427.746.17 1.693-.567 2.128-.248.14-.512.202-.776.202a1.547 1.547 0 0 1-1.35-.776m-4.159 2.408a1.558 1.558 0 0 1 .567-2.122 1.557 1.557 0 0 1 2.125.568 1.553 1.553 0 0 1-.573 2.12c-.241.14-.505.21-.769.21-.543 0-1.063-.28-1.35-.776m-4.16 2.407a1.559 1.559 0 0 1 .568-2.128 1.547 1.547 0 0 1 2.117.574 1.552 1.552 0 1 1-2.685 1.554m-4.158 2.401a1.542 1.542 0 0 1 .566-2.12 1.55 1.55 0 1 1 1.552 2.688 1.549 1.549 0 0 1-2.118-.567m-4.16 2.407a1.545 1.545 0 0 1 .567-2.121 1.543 1.543 0 0 1 2.119.568 1.56 1.56 0 0 1-.567 2.12c-.248.14-.512.21-.776.21a1.55 1.55 0 0 1-1.342-.777m-4.168 2.4a1.555 1.555 0 0 1 2.694-1.554c.426.746.17 1.694-.567 2.122a1.563 1.563 0 0 1-2.127-.568m-4.158 2.408a1.555 1.555 0 0 1 .566-2.12 1.54 1.54 0 0 1 2.119.566 1.544 1.544 0 0 1-.567 2.122 1.548 1.548 0 0 1-2.118-.568m-4.16 2.409a1.56 1.56 0 0 1 .567-2.13 1.555 1.555 0 0 1 2.119.569c.433.745.178 1.7-.567 2.127-.24.14-.512.203-.776.203a1.543 1.543 0 0 1-1.342-.77m-4.16 2.401a1.551 1.551 0 1 1 2.119.567c-.248.14-.512.21-.776.21-.536 0-1.056-.28-1.343-.777m-4.167 2.408a1.563 1.563 0 0 1 .574-2.128 1.555 1.555 0 1 1 .776 2.904 1.571 1.571 0 0 1-1.35-.776m-4.158 2.4a1.559 1.559 0 0 1 .565-2.12c.745-.427 1.7-.17 2.127.567a1.557 1.557 0 0 1-1.342 2.33c-.543 0-1.063-.28-1.35-.776m-4.16 2.408a1.57 1.57 0 0 1 .567-2.13 1.55 1.55 0 0 1 2.117.576c.436.738.18 1.693-.565 2.12a1.55 1.55 0 0 1-2.118-.567m-4.16 2.4a1.549 1.549 0 1 1 2.685-1.546 1.555 1.555 0 0 1-1.342 2.331 1.554 1.554 0 0 1-1.343-.785"/>
            <path fill="#38D611" d="M240.6 95.451a1.59 1.59 0 0 1-.598-.116 1.553 1.553 0 0 1-.495-.334 1.578 1.578 0 0 1-.343-.505 1.568 1.568 0 0 1-.084-.901c.015-.101.046-.195.084-.288.04-.093.094-.186.149-.27.054-.087.115-.164.194-.235a1.374 1.374 0 0 1 .503-.334c.093-.039.186-.07.287-.093a1.59 1.59 0 0 1 .606 0c.101.023.194.054.295.093.093.04.179.086.263.14.086.054.163.124.242.194.07.071.131.148.186.234.061.085.108.178.147.271.038.093.07.187.086.288a1.554 1.554 0 0 1-.419 1.406c-.149.14-.319.256-.505.334a1.588 1.588 0 0 1-.597.116M239.049 98.489a1.552 1.552 0 1 1 3.104 0c0 .854-.692 1.553-1.552 1.553-.855 0-1.552-.699-1.552-1.553m0 4.583a1.552 1.552 0 1 1 3.104 0c0 .854-.692 1.553-1.552 1.553-.855 0-1.552-.699-1.552-1.553m0 4.583a1.552 1.552 0 1 1 3.104 0c0 .855-.692 1.554-1.552 1.554-.855 0-1.552-.7-1.552-1.554m0 4.583a1.552 1.552 0 1 1 3.104 0c0 .855-.692 1.554-1.552 1.554-.855 0-1.552-.7-1.552-1.554m0 4.583c0-.854.697-1.553 1.552-1.553.86 0 1.552.699 1.552 1.553a1.552 1.552 0 1 1-3.104 0m0 4.584c0-.855.697-1.554 1.552-1.554.86 0 1.552.7 1.552 1.554a1.552 1.552 0 1 1-3.104 0m0 4.583c0-.855.697-1.554 1.552-1.554.86 0 1.552.7 1.552 1.554 0 .862-.692 1.561-1.552 1.561-.855 0-1.552-.699-1.552-1.561m0 4.592a1.551 1.551 0 1 1 3.104 0c0 .853-.692 1.553-1.552 1.553-.855 0-1.552-.7-1.552-1.553m0 4.582a1.552 1.552 0 1 1 3.104 0 1.552 1.552 0 1 1-3.104 0M240.6 141.3c-.41 0-.799-.164-1.093-.46a1.53 1.53 0 0 1-.427-1.398c.022-.101.046-.194.084-.288.04-.092.094-.185.149-.27.054-.087.115-.164.194-.234.07-.078.146-.14.232-.194a1.38 1.38 0 0 1 .558-.233c.203-.04.405-.04.606 0a1.281 1.281 0 0 1 .558.233c.086.054.163.116.234.194.077.07.14.147.194.233.053.086.108.179.147.271.038.094.07.187.086.288a1.53 1.53 0 0 1-.427 1.399 1.526 1.526 0 0 1-1.094.458M235.3 142.844a1.567 1.567 0 0 1 .56-2.127 1.562 1.562 0 0 1 2.126.558 1.562 1.562 0 0 1-.56 2.13 1.59 1.59 0 0 1-.784.208 1.575 1.575 0 0 1-1.341-.769m-3.958 2.315a1.567 1.567 0 0 1 .56-2.128 1.561 1.561 0 0 1 2.124.56c.428.737.18 1.693-.557 2.128a1.563 1.563 0 0 1-2.127-.56m-3.957 2.316a1.567 1.567 0 0 1 .559-2.129 1.555 1.555 0 0 1 2.126.559 1.569 1.569 0 0 1-.559 2.13 1.589 1.589 0 0 1-.784.208 1.576 1.576 0 0 1-1.342-.768m-3.957 2.314a1.565 1.565 0 0 1 .558-2.128 1.562 1.562 0 0 1 2.127.56 1.564 1.564 0 0 1-.56 2.127 1.561 1.561 0 0 1-2.125-.56m-3.958 2.317a1.566 1.566 0 0 1 .558-2.129 1.555 1.555 0 0 1 2.127.559 1.57 1.57 0 0 1-.559 2.129 1.589 1.589 0 0 1-.783.209 1.575 1.575 0 0 1-1.343-.768m-3.957 2.314a1.566 1.566 0 0 1 .559-2.129 1.564 1.564 0 0 1 2.126.56 1.565 1.565 0 0 1-.559 2.128 1.56 1.56 0 0 1-2.126-.56m-3.958 2.316a1.567 1.567 0 0 1 .56-2.128 1.56 1.56 0 0 1 2.125.559c.427.738.179 1.693-.558 2.129-.25.139-.513.209-.784.209a1.568 1.568 0 0 1-1.343-.769m-3.957 2.315a1.565 1.565 0 0 1 .559-2.129 1.558 1.558 0 0 1 2.126.56 1.565 1.565 0 0 1-.559 2.128 1.561 1.561 0 0 1-2.126-.56m-3.957 2.316a1.565 1.565 0 0 1 .559-2.128 1.562 1.562 0 0 1 2.126.558 1.568 1.568 0 0 1-.56 2.13 1.557 1.557 0 0 1-2.125-.56m-3.958 2.314a1.566 1.566 0 0 1 .558-2.128 1.559 1.559 0 0 1 2.127.56 1.566 1.566 0 0 1-.558 2.128c-.249.14-.513.21-.784.21-.529 0-1.048-.28-1.343-.77m-3.957 2.316a1.566 1.566 0 0 1 .559-2.128 1.562 1.562 0 0 1 2.126.558 1.558 1.558 0 0 1-1.343 2.338 1.557 1.557 0 0 1-1.342-.768m-3.958 2.314a1.567 1.567 0 0 1 .56-2.128 1.547 1.547 0 0 1 2.118.56 1.557 1.557 0 0 1-.551 2.127 1.56 1.56 0 0 1-2.127-.56m-3.957 2.317a1.565 1.565 0 0 1 .559-2.129 1.562 1.562 0 0 1 2.126.559 1.558 1.558 0 0 1-1.342 2.338 1.557 1.557 0 0 1-1.343-.768m-3.957 2.314a1.567 1.567 0 0 1 .559-2.128 1.545 1.545 0 0 1 2.117.56 1.557 1.557 0 0 1-.55 2.128 1.557 1.557 0 0 1-2.125-.56m-3.958 2.316a1.567 1.567 0 0 1 .557-2.13 1.557 1.557 0 0 1 2.127.56 1.558 1.558 0 0 1-1.342 2.339c-.535 0-1.048-.28-1.342-.77m-3.958 2.315a1.565 1.565 0 0 1 .559-2.128 1.539 1.539 0 0 1 2.118.56 1.56 1.56 0 0 1-.55 2.128 1.558 1.558 0 0 1-2.126-.56m-3.959 2.315a1.568 1.568 0 0 1 .56-2.129 1.556 1.556 0 0 1 2.125.56c.427.737.18 1.694-.558 2.121a1.543 1.543 0 0 1-2.127-.552m-3.957 2.315a1.564 1.564 0 0 1 .56-2.128 1.552 1.552 0 0 1 2.117.56 1.558 1.558 0 0 1-.55 2.128c-.249.14-.52.209-.784.209-.536 0-1.048-.28-1.343-.77m-3.957 2.316a1.566 1.566 0 0 1 .559-2.129 1.557 1.557 0 0 1 2.126.56 1.567 1.567 0 0 1-.56 2.128 1.557 1.557 0 0 1-2.125-.559m-3.957 2.314a1.565 1.565 0 0 1 .558-2.127 1.54 1.54 0 0 1 2.119.559 1.56 1.56 0 0 1-.551 2.128c-.249.14-.52.21-.784.21-.535 0-1.047-.28-1.342-.77m-3.958 2.316a1.567 1.567 0 0 1 .559-2.13 1.559 1.559 0 0 1 2.126.56 1.568 1.568 0 0 1-.559 2.129 1.56 1.56 0 0 1-2.126-.559m-3.958 2.314a1.566 1.566 0 0 1 .56-2.128 1.546 1.546 0 0 1 2.118.56 1.547 1.547 0 0 1-.551 2.12c-.25.147-.52.217-.784.217a1.558 1.558 0 0 1-1.343-.769m-3.956 2.316a1.566 1.566 0 0 1 .558-2.13 1.548 1.548 0 0 1 2.119.56 1.558 1.558 0 0 1-.551 2.128 1.56 1.56 0 0 1-2.126-.559m-3.958 2.315a1.564 1.564 0 0 1 .559-2.128 1.55 1.55 0 0 1 2.117.56 1.545 1.545 0 0 1-.55 2.12c-.248.147-.52.217-.783.217a1.556 1.556 0 0 1-1.343-.769M141.666 199.172c-.411 0-.807-.164-1.094-.459a1.53 1.53 0 0 1-.427-1.399 1.339 1.339 0 0 1 .233-.558c.054-.087.116-.163.194-.241.07-.07.147-.132.233-.187a1.302 1.302 0 0 1 .558-.233c.202-.04.404-.04.606 0a1.335 1.335 0 0 1 .558.233 1.36 1.36 0 0 1 .428.427c.053.086.108.17.147.264.038.094.062.194.085.295.015.101.031.203.031.304 0 .41-.163.808-.458 1.095-.14.148-.31.264-.496.342a1.574 1.574 0 0 1-.598.117M45.898 143.932a1.543 1.543 0 0 1-.567-2.12 1.547 1.547 0 0 1 2.119-.568 1.553 1.553 0 0 1-1.552 2.688m3.957 2.292a1.554 1.554 0 0 1-.575-2.12 1.566 1.566 0 0 1 2.127-.568 1.552 1.552 0 0 1-.784 2.897 1.45 1.45 0 0 1-.768-.21m3.957 2.292a1.543 1.543 0 0 1-.566-2.12 1.553 1.553 0 0 1 2.118-.567 1.56 1.56 0 0 1 .567 2.128 1.55 1.55 0 0 1-1.343.777c-.264 0-.535-.07-.776-.218m3.958 2.3a1.555 1.555 0 1 1 1.552-2.696 1.56 1.56 0 0 1 .566 2.129 1.546 1.546 0 0 1-2.118.567m3.957 2.292a1.555 1.555 0 0 1 1.551-2.696c.745.435.994 1.382.568 2.128a1.55 1.55 0 0 1-2.12.568m3.959 2.29a1.552 1.552 0 0 1-.567-2.12 1.542 1.542 0 0 1 2.119-.567 1.543 1.543 0 0 1 .565 2.12 1.549 1.549 0 0 1-1.341.778c-.264 0-.529-.07-.776-.21m3.957 2.291a1.556 1.556 0 0 1-.566-2.12 1.542 1.542 0 0 1 2.118-.567 1.545 1.545 0 0 1 .566 2.12 1.55 1.55 0 0 1-2.118.567m3.957 2.292a1.558 1.558 0 0 1-.566-2.12 1.556 1.556 0 0 1 2.118-.568 1.546 1.546 0 0 1 .567 2.121 1.55 1.55 0 0 1-2.12.567m3.959 2.292a1.558 1.558 0 0 1-.567-2.121 1.564 1.564 0 0 1 2.127-.567 1.55 1.55 0 0 1 .557 2.12 1.546 1.546 0 0 1-2.117.568m3.956 2.299a1.568 1.568 0 0 1-.565-2.128 1.564 1.564 0 0 1 2.126-.567 1.57 1.57 0 0 1 .566 2.128 1.554 1.554 0 0 1-1.35.769c-.264 0-.527-.062-.777-.202m3.966 2.292a1.55 1.55 0 0 1-.567-2.121 1.54 1.54 0 0 1 2.12-.566c.736.426.992 1.374.565 2.12a1.56 1.56 0 0 1-1.35.776 1.53 1.53 0 0 1-.768-.209m3.957 2.291a1.554 1.554 0 0 1-.573-2.12 1.55 1.55 0 0 1 2.125-.568 1.55 1.55 0 0 1 .567 2.121 1.562 1.562 0 0 1-1.35.777 1.53 1.53 0 0 1-.77-.21m3.96 2.292a1.546 1.546 0 0 1-.568-2.12 1.541 1.541 0 0 1 2.119-.568 1.55 1.55 0 0 1 .566 2.12 1.552 1.552 0 0 1-1.35.778c-.264 0-.527-.07-.768-.21m3.957 2.291a1.55 1.55 0 0 1-.566-2.12 1.547 1.547 0 0 1 2.118-.567 1.552 1.552 0 0 1-.776 2.897 1.47 1.47 0 0 1-.776-.21m3.958 2.292a1.55 1.55 0 0 1-.567-2.12 1.547 1.547 0 0 1 2.119-.568 1.56 1.56 0 0 1 .566 2.129c-.287.49-.807.769-1.342.769-.265 0-.536-.062-.776-.21m3.957 2.3a1.554 1.554 0 1 1 2.118-.567 1.548 1.548 0 0 1-2.118.566m3.957 2.292a1.569 1.569 0 0 1-.566-2.128 1.545 1.545 0 0 1 2.118-.559 1.544 1.544 0 0 1 .567 2.12 1.55 1.55 0 0 1-2.12.567m3.959 2.292a1.567 1.567 0 0 1-.567-2.129 1.547 1.547 0 0 1 2.119-.56 1.543 1.543 0 0 1 .566 2.121 1.549 1.549 0 0 1-1.342.777c-.264 0-.528-.07-.776-.21m3.957 2.292a1.558 1.558 0 0 1-.566-2.12 1.548 1.548 0 0 1 2.125-.568c.738.428.994 1.375.56 2.121a1.55 1.55 0 0 1-2.119.567m3.957 2.292a1.557 1.557 0 0 1-.566-2.12 1.558 1.558 0 0 1 2.126-.568c.738.427.993 1.383.566 2.12a1.56 1.56 0 0 1-1.35.777c-.264 0-.528-.07-.776-.21m3.966 2.292a1.553 1.553 0 0 1-.575-2.12 1.566 1.566 0 0 1 2.127-.567 1.56 1.56 0 0 1 .566 2.12 1.563 1.563 0 0 1-1.35.777 1.45 1.45 0 0 1-.768-.21m3.949 2.292a1.557 1.557 0 0 1-.566-2.12 1.563 1.563 0 0 1 2.126-.567 1.56 1.56 0 0 1 .567 2.12 1.563 1.563 0 0 1-1.351.777 1.5 1.5 0 0 1-.776-.21m3.966 2.3a1.555 1.555 0 0 1 1.552-2.696c.744.435.993 1.382.565 2.12a1.535 1.535 0 0 1-1.35.777c-.263 0-.528-.062-.767-.202m3.956 2.292a1.554 1.554 0 0 1-.565-2.129 1.553 1.553 0 0 1 2.117-.567c.745.435.994 1.383.567 2.129a1.55 1.55 0 0 1-2.119.567M42.716 141.85c-.21 0-.41-.038-.598-.116a1.577 1.577 0 0 1-.504-.342 1.522 1.522 0 0 1-.45-1.095c0-.101.009-.202.023-.304a1.904 1.904 0 0 1 .233-.558c.062-.087.124-.163.194-.233.07-.078.155-.14.241-.195a1.335 1.335 0 0 1 .558-.233 1.56 1.56 0 0 1 1.855 1.523c0 .41-.163.808-.458 1.095a1.538 1.538 0 0 1-1.094.459M41.164 99.033a1.552 1.552 0 1 1 3.104 0 1.552 1.552 0 1 1-3.104 0m0 4.582c0-.854.691-1.545 1.552-1.545a1.55 1.55 0 0 1 1.552 1.545c0 .863-.698 1.562-1.552 1.562-.86 0-1.552-.699-1.552-1.562m0 4.592a1.552 1.552 0 1 1 3.104 0c0 .854-.698 1.553-1.552 1.553-.86 0-1.552-.699-1.552-1.553m0 4.583a1.552 1.552 0 1 1 3.104 0c0 .854-.698 1.554-1.552 1.554-.86 0-1.552-.7-1.552-1.554m0 4.583c0-.854.691-1.553 1.552-1.553.854 0 1.552.699 1.552 1.553a1.552 1.552 0 1 1-3.104 0m0 4.583c0-.854.691-1.553 1.552-1.553.854 0 1.552.699 1.552 1.553a1.552 1.552 0 1 1-3.104 0m0 4.584c0-.855.691-1.554 1.552-1.554a1.557 1.557 0 0 1 0 3.115c-.86 0-1.552-.7-1.552-1.561m0 4.59a1.552 1.552 0 1 1 3.104 0c0 .855-.698 1.554-1.552 1.554-.86 0-1.552-.699-1.552-1.554m0 4.584a1.552 1.552 0 1 1 3.104 0c0 .854-.698 1.553-1.552 1.553-.86 0-1.552-.699-1.552-1.553M42.716 96.003a1.562 1.562 0 0 1-1.102-.45 1.546 1.546 0 0 1-.458-1.104c0-.1.017-.202.031-.303a1.943 1.943 0 0 1 .233-.558c.062-.087.124-.164.194-.234.07-.078.155-.14.241-.194.085-.054.17-.11.263-.148a1.59 1.59 0 0 1 .9-.085c.094.023.195.047.288.085.093.039.186.094.271.148.086.054.163.116.233.194a1.411 1.411 0 0 1 .334.505c.04.093.07.186.093.287.015.101.03.202.03.303a1.546 1.546 0 0 1-.96 1.438 1.55 1.55 0 0 1-.591.116"/>
            <g>
                <path fill="#FA0171" d="M104.275 126.473l36.995 21.382 36.995-21.382V83.707L141.27 62.325l-36.995 21.382v42.766zm36.995 24.971l-40.099-23.177V81.914l40.1-23.177 40.098 23.177v46.353l-40.099 23.177z"/>
                <path fill="#38D611" d="M25.472 103.555l17.063 9.86 17.063-9.86V83.829l-17.063-9.86-17.063 9.86v19.726zm17.063 13.449l-20.167-11.656V82.036L42.535 70.38l20.167 11.656v23.312l-20.167 11.656zM222.451 103.555l17.063 9.86 17.063-9.86V83.829l-17.063-9.86-17.063 9.86v19.726zm17.063 13.449l-20.167-11.656V82.036l20.167-11.656 20.167 11.656v23.312l-20.167 11.656z"/>
                <path fill="#FA0171" d="M142.822 149.664l-3.104-.029.427-45.315 38.886-22.849 1.571 2.68-37.37 21.958z"/>
                <path fill="#FA0171" d="M140.915 106.562L101.95 84.158l1.546-2.695 38.965 22.404z"/>
            </g>
        </g>
        <g>
            <path fill="#38D611" d="M42.535 87.29c-3.526 0-6.394 2.872-6.394 6.402 0 3.53 2.868 6.4 6.394 6.4 3.526 0 6.394-2.87 6.394-6.4 0-3.53-2.868-6.401-6.394-6.401m0 13.579c-3.954 0-7.17-3.22-7.17-7.178 0-3.957 3.216-7.178 7.17-7.178 3.953 0 7.17 3.22 7.17 7.178 0 3.958-3.217 7.178-7.17 7.178M240.534 87.29c-3.525 0-6.393 2.872-6.393 6.402 0 3.53 2.868 6.4 6.393 6.4 3.526 0 6.394-2.87 6.394-6.4 0-3.53-2.868-6.401-6.394-6.401m0 13.579c-3.954 0-7.17-3.22-7.17-7.178 0-3.957 3.216-7.178 7.17-7.178 3.953 0 7.17 3.22 7.17 7.178 0 3.958-3.217 7.178-7.17 7.178"/>
            <path fill="#FA0171" d="M82.66 65.97c-3.526 0-6.394 2.87-6.394 6.4 0 3.53 2.868 6.4 6.394 6.4 3.525 0 6.393-2.87 6.393-6.4 0-3.53-2.868-6.4-6.393-6.4m0 13.577c-3.954 0-7.17-3.22-7.17-7.177 0-3.957 3.216-7.177 7.17-7.177 3.953 0 7.17 3.22 7.17 7.177 0 3.958-3.217 7.177-7.17 7.177M140.525 31.23c-3.526 0-6.394 2.87-6.394 6.4 0 3.53 2.868 6.4 6.394 6.4 3.526 0 6.394-2.87 6.394-6.4 0-3.53-2.868-6.4-6.394-6.4m0 13.577c-3.953 0-7.17-3.219-7.17-7.177 0-3.957 3.217-7.178 7.17-7.178 3.954 0 7.17 3.221 7.17 7.178 0 3.958-3.216 7.177-7.17 7.177M199.443 64.958c-3.526 0-6.394 2.87-6.394 6.4 0 3.53 2.868 6.4 6.394 6.4 3.526 0 6.394-2.87 6.394-6.4 0-3.53-2.868-6.4-6.394-6.4m0 13.577c-3.953 0-7.17-3.22-7.17-7.177 0-3.957 3.217-7.177 7.17-7.177 3.954 0 7.17 3.22 7.17 7.177 0 3.958-3.216 7.177-7.17 7.177M200.152 133.31c-3.526 0-6.393 2.871-6.393 6.401s2.867 6.401 6.393 6.401 6.394-2.871 6.394-6.4c0-3.53-2.868-6.402-6.394-6.402m0 13.579c-3.953 0-7.17-3.22-7.17-7.178 0-3.957 3.217-7.178 7.17-7.178 3.954 0 7.17 3.221 7.17 7.178 0 3.958-3.216 7.178-7.17 7.178M83.828 133.31c-3.526 0-6.394 2.871-6.394 6.401s2.868 6.401 6.394 6.401c3.526 0 6.394-2.871 6.394-6.4 0-3.53-2.868-6.402-6.394-6.402m0 13.579c-3.954 0-7.17-3.22-7.17-7.178 0-3.957 3.216-7.178 7.17-7.178 3.953 0 7.17 3.221 7.17 7.178 0 3.958-3.217 7.178-7.17 7.178M140.566 168.5c-3.526 0-6.394 2.87-6.394 6.4 0 3.53 2.868 6.4 6.394 6.4 3.525 0 6.393-2.87 6.393-6.4 0-3.53-2.868-6.4-6.393-6.4m0 13.577c-3.954 0-7.17-3.219-7.17-7.176 0-3.958 3.216-7.178 7.17-7.178 3.953 0 7.169 3.22 7.169 7.178 0 3.957-3.216 7.176-7.169 7.176"/>
            <path fill="#38D611" d="M140.566 191.216c-3.526 0-6.394 2.871-6.394 6.4 0 3.53 2.868 6.401 6.394 6.401 3.525 0 6.393-2.871 6.393-6.4 0-3.53-2.868-6.401-6.393-6.401m0 13.578c-3.954 0-7.17-3.22-7.17-7.178 0-3.957 3.216-7.177 7.17-7.177 3.953 0 7.169 3.22 7.169 7.177 0 3.958-3.216 7.178-7.169 7.178M42.535 134.198c-3.526 0-6.394 2.872-6.394 6.4 0 3.53 2.868 6.402 6.394 6.402 3.526 0 6.394-2.872 6.394-6.401 0-3.53-2.868-6.4-6.394-6.4m0 13.577c-3.954 0-7.17-3.22-7.17-7.177 0-3.957 3.216-7.177 7.17-7.177 3.953 0 7.17 3.22 7.17 7.177 0 3.957-3.217 7.177-7.17 7.177M238.635 134.088c-3.525 0-6.393 2.87-6.393 6.4 0 3.53 2.868 6.4 6.393 6.4 3.526 0 6.394-2.87 6.394-6.4 0-3.53-2.868-6.4-6.394-6.4m0 13.578c-3.953 0-7.169-3.22-7.169-7.177 0-3.957 3.216-7.178 7.169-7.178 3.954 0 7.17 3.22 7.17 7.178 0 3.958-3.216 7.177-7.17 7.177"/>
        </g>
    </g>
</svg>
