<svg xmlns="http://www.w3.org/2000/svg" width="150" height="150"><g fill="none" fill-rule="evenodd" transform="translate(0 11)"><path fill="#FFF" fill-rule="nonzero" d="M114.919 108.729a7.789 7.789 0 0 1-9.151 6.134 7.79 7.79 0 0 1-6.134-9.152 7.789 7.789 0 0 1 9.151-6.133 7.79 7.79 0 0 1 6.134 9.151m-62.768 12.198a7.79 7.79 0 1 1-15.285-3.018 7.79 7.79 0 0 1 15.285 3.018M41.423 43.766a7.79 7.79 0 1 1-15.286-3.019 7.79 7.79 0 0 1 15.286 3.019M65.108 6.184a5.314 5.314 0 0 1-6.033 4.477A5.314 5.314 0 0 1 60.631.151a5.312 5.312 0 0 1 4.477 6.033m45.595 1.178a5.313 5.313 0 0 1-6.032 4.477 5.314 5.314 0 0 1 1.556-10.51 5.31 5.31 0 0 1 4.476 6.033m38.471 30.399a5.311 5.311 0 1 1-10.508-1.556 5.311 5.311 0 0 1 10.508 1.556m-17.215 43.1a5.312 5.312 0 1 1-10.51-1.557 5.312 5.312 0 0 1 10.51 1.557M10.862 89.039a5.313 5.313 0 0 1-6.033 4.477 5.313 5.313 0 0 1 1.557-10.509 5.311 5.311 0 0 1 4.476 6.032m51.918-4.018c-1.137 5.756-6.724 9.501-12.479 8.364-5.756-1.136-9.501-6.724-8.365-12.479 1.137-5.757 6.724-9.501 12.48-8.363 5.756 1.135 9.501 6.723 8.364 12.478m46.759-44.014c-1.137 5.756-6.725 9.5-12.479 8.364-5.756-1.136-9.501-6.724-8.364-12.48 1.137-5.756 6.724-9.501 12.48-8.364 5.756 1.136 9.5 6.723 8.363 12.48"/><path stroke="#FFF" stroke-width="2" d="M46.553 69.68L36.446 48.352"/><path stroke="#FFF" stroke-width="3" d="M64.404 73.909l24.593-23.86"/><path stroke="#FFF" stroke-width="2" d="M63.212 8.677L87.975 30.87m16.318-20.788l-2.367 14.644m46.093 12.992l-34.439.224m13.031 40.259l-19.759-27.163M66.11 87.546l36.492 15.688m-53.874-6.237l-3.09 17.347m-7.647-29.44L7.08 88.846"/><circle cx="52.359" cy="82.964" r="14.498" stroke="#FFF" stroke-width="2"/><circle cx="99.117" cy="38.949" r="14.497" stroke="#FFF" stroke-width="2"/></g></svg>