<svg xmlns="http://www.w3.org/2000/svg" width="160" height="154" viewBox="0 0 160 154">
    <defs>
        <linearGradient id="a" x1="0%" y1="50.006%" y2="50.006%">
            <stop offset="0%" stop-color="#364A68"/>
            <stop offset="100%" stop-color="#38D611"/>
        </linearGradient>
        <linearGradient id="b" x1="0%" y1="49.994%" y2="49.994%">
            <stop offset="0%" stop-color="#364A68"/>
            <stop offset="100%" stop-color="#FA0171"/>
        </linearGradient>
    </defs>
    <g fill="none" fill-rule="evenodd">
        <path fill-rule="nonzero" d="M-12-13h184v180H-12z"/>
        <g transform="translate(0 1)">
            <g stroke="#00152B" stroke-width=".5" opacity=".2">
                <path d="M45.76 55.15V42.326l-11.105-6.412-11.108 6.412V55.15l11.108 6.412z"/>
                <path d="M34.655 61.57V48.739l-11.108-6.412-11.109-6.412v-8.365"/>
                <path d="M45.76 42.326l-11.105 6.412-11.108 6.412M45.76 55.15l-11.105-6.412M67.976 55.145l-11.108 6.412v12.825l11.108 6.412 11.104-6.412V61.557"/>
                <path d="M56.868 61.557l11.108 6.412v25.797"/>
                <path d="M79.08 61.557L67.976 67.97l-11.108 6.413"/>
                <path d="M67.976 67.97l11.104 6.412 7.634 4.637 3.553 2.158-.004-.292V67.917l.004-12.828 11.104-6.412M67.976 55.145V42.321L56.868 35.91l-11.109 6.412v12.824l11.109 6.412z"/>
                <path d="M45.76 55.145l11.108-6.412 11.108-6.412 11.104-6.02v12.432M34.655 74.386V61.562L23.547 55.15l-11.109 6.412v12.824l11.109 6.412"/>
                <path d="M12.438 53.267l-7.429 4.14 7.43 4.155 11.108 6.412v12.833"/>
                <path d="M34.655 61.562l-11.108 6.412-11.109 6.412v13.208L1.264 93.766V81.125M34.655 74.386l-11.108-6.412M56.868 74.382V61.557l-11.109-6.412-11.104 6.412v12.825l11.104 6.412z"/>
                <path d="M34.655 61.557l11.104 6.412v12.833L34.655 87.52l11.104 6.539 11.109-6.464"/>
                <path d="M56.868 61.557L45.759 67.97l-11.104 6.413M5.01 40.19l7.428-4.276M5.01 65.799v-8.391M45.76 16.83v12.79l-11.105 6.294V23.007M67.976 55.145l-11.108-6.412V27.55l7.612-4.468M71.821 31.729l7.26 4.573M23.547 93.766l-11.109-6.172M153.19 104.585V91.76l-11.108-6.412-11.109 6.412v12.824l11.109 6.412z"/>
                <path d="M153.19 91.76l-11.108 6.413-11.109 6.412"/>
                <path d="M142.082 123.821v-12.824l-11.109-6.412-11.104 6.412v12.824l11.104 6.408"/>
                <path d="M112.436 106.838l7.433 4.159 11.104 6.412v12.828"/>
                <path d="M119.87 136.588v-12.767l11.103-6.412 11.109-6.412V98.16M142.082 123.817l-11.109-6.408M112.48 42.269V29.445l11.108-6.412 11.104 6.412v12.824l-11.104 6.412z"/>
                <path d="M123.588 48.685V35.857l11.104-6.412 11.109-6.412v-8.37"/>
                <path d="M112.48 29.445l11.108 6.412 11.104 6.412M112.48 42.269l11.108-6.412M90.263 42.265l11.108 6.412V61.5l-11.108 6.412L79.159 61.5V48.677"/>
                <path d="M79.159 48.677l11.108 6.412 11.104 6.412M90.263 55.089L79.159 61.5M90.267 42.265V29.44l11.104-6.413 11.109 6.413v12.824l-11.109 6.412z"/>
                <path d="M112.405 42.265l-11.108-6.412-11.108-6.412-11.109-6.02v12.867M123.588 61.505V48.681l11.104-6.412 11.109 6.412v12.824l-11.109 6.408"/>
                <path d="M145.8 40.382l7.434 4.14-7.433 4.159-11.109 6.412v12.829"/>
                <path d="M123.588 48.681l11.104 6.412 11.109 6.412v13.203l11.173 6.177v-12.64M123.588 61.5l11.104-6.407M101.371 61.5V48.678l11.109-6.412 11.108 6.412V61.5l-11.108 6.412z"/>
                <path d="M123.588 48.677l-11.108 6.412v12.828l11.108 6.722-11.108 6.538-11.148-6.49"/>
                <path d="M101.371 48.677l11.109 6.412 11.108 6.412M112.48 3.945v12.79l11.108 6.298V10.126M90.267 42.265l11.104-6.412V14.664l-7.612-4.468M86.343 18.848l-7.263 4.573M79.115 113.346v12.825l-11.108 6.407-11.105-6.407v-12.825l11.105-6.412z"/>
                <path d="M68.007 106.926v12.832l-11.105 6.413-11.108 6.407v8.37"/>
                <path d="M79.115 126.17l-11.108-6.412-11.105-6.412M79.115 113.346l-11.108 6.412M101.332 113.35l-11.109-6.411V94.115l11.109-6.412 11.104 6.412v12.824"/>
                <path d="M90.223 106.939l11.109-6.412v-25.84"/>
                <path d="M112.436 106.939l-11.104-6.412-11.109-6.412"/>
                <path d="M101.332 100.527l11.104-6.412 7.634-4.638M101.332 113.35v12.82l-11.109 6.413-11.108-6.412v-12.82l11.108-6.412z"/>
                <path d="M79.115 113.35l11.108 6.413 11.109 6.408 8.331 4.52 10.206 5.627M68.007 94.11v12.824l-11.105 6.412-11.108-6.412V94.11"/>
                <path d="M45.794 115.23l-7.433-4.142 7.433-4.154 11.108-6.412V87.69M68.007 94.11l-11.105 6.412M90.223 94.115v12.824l-11.108 6.412-11.108-6.412V94.115l11.108-6.412z"/>
                <path d="M68.007 106.939l11.108-6.412V87.694l-11.108-6.717M90.223 106.939l-11.108-6.412-11.108-6.412M38.36 128.306l7.434 4.277M38.36 102.697v8.391M79.115 151.666v-12.79l-11.108-6.298v12.911M101.332 113.35l-11.109 6.413v21.184l7.612 4.468M130.973 91.76l22.217 12.825"/>
            </g>
            <g fill="#00152B" fill-rule="nonzero" opacity=".3" transform="translate(0 3.051)">
                <ellipse cx="12.438" cy="23.909" rx="1.068" ry="1.068"/>
                <ellipse cx="4.665" cy="37.138" rx="1.068" ry="1.068"/>
                <ellipse cx="12.438" cy="32.862" rx="1.068" ry="1.068"/>
                <ellipse cx="23.42" cy="39.274" rx="1.068" ry="1.068"/>
                <ellipse cx="34.659" cy="45.625" rx="1.068" ry="1.068"/>
                <ellipse cx="56.872" cy="45.625" rx="1.068" ry="1.068"/>
                <ellipse cx="34.659" cy="32.862" rx="1.068" ry="1.068"/>
                <ellipse cx="34.659" cy="20.029" rx="1.068" ry="1.068"/>
                <ellipse cx="45.759" cy="13.779" rx="1.068" ry="1.068"/>
                <ellipse cx="45.759" cy="26.524" rx="1.068" ry="1.068"/>
                <ellipse cx="45.759" cy="39.274" rx="1.068" ry="1.068"/>
                <ellipse cx="45.759" cy="52.037" rx="1.068" ry="1.068"/>
                <ellipse cx="34.659" cy="58.519" rx="1.068" ry="1.068"/>
                <ellipse cx="34.655" cy="71.413" rx="1.068" ry="1.068"/>
                <ellipse cx="23.42" cy="64.931" rx="1.068" ry="1.068"/>
                <ellipse cx="23.333" cy="77.742" rx="1.068" ry="1.068"/>
                <ellipse cx="12.438" cy="71.33" rx="1.068" ry="1.068"/>
                <ellipse cx="12.438" cy="84.542" rx="1.068" ry="1.068"/>
                <ellipse cx="23.193" cy="90.553" rx="1.068" ry="1.068"/>
                <ellipse cx="1.264" cy="90.553" rx="1.068" ry="1.068"/>
                <ellipse cx="1.264" cy="78.348" rx="1.068" ry="1.068"/>
                <ellipse cx="45.759" cy="64.931" rx="1.068" ry="1.068"/>
                <ellipse cx="45.794" cy="77.742" rx="1.068" ry="1.068"/>
                <ellipse cx="56.868" cy="71.413" rx="1.068" ry="1.068"/>
                <ellipse cx="34.659" cy="84.542" rx="1.068" ry="1.068"/>
                <ellipse cx="56.872" cy="33.015" rx="1.068" ry="1.068"/>
                <ellipse cx="56.907" cy="24.497" rx="1.068" ry="1.068"/>
                <ellipse cx="64.436" cy="20.029" rx="1.068" ry="1.068"/>
                <ellipse cx="67.972" cy="39.427" rx="1.068" ry="1.068"/>
                <ellipse cx="71.821" cy="28.721" rx="1.068" ry="1.068"/>
                <ellipse cx="79.08" cy="33.25" rx="1.068" ry="1.068"/>
                <ellipse cx="79.08" cy="20.369" rx="1.068" ry="1.068"/>
                <ellipse cx="86.343" cy="15.797" rx="1.068" ry="1.068"/>
                <ellipse cx="90.263" cy="26.394" rx="1.068" ry="1.068"/>
                <ellipse cx="90.263" cy="39.274" rx="1.068" ry="1.068"/>
                <ellipse cx="112.405" cy="39.213" rx="1.068" ry="1.068"/>
                <ellipse cx="101.328" cy="33.076" rx="1.068" ry="1.068"/>
                <ellipse cx="101.371" cy="45.625" rx="1.068" ry="1.068"/>
                <ellipse cx="101.41" cy="58.375" rx="1.068" ry="1.068"/>
                <ellipse cx="123.549" cy="58.314" rx="1.068" ry="1.068"/>
                <ellipse cx="134.692" cy="52.042" rx="1.068" ry="1.068"/>
                <ellipse cx="134.692" cy="64.918" rx="1.068" ry="1.068"/>
                <ellipse cx="123.549" cy="71.635" rx="1.068" ry="1.068"/>
                <ellipse cx="112.746" cy="77.925" rx="1.068" ry="1.068"/>
                <ellipse cx="101.41" cy="71.927" rx="1.068" ry="1.068"/>
                <ellipse cx="101.328" cy="84.651" rx="1.068" ry="1.068"/>
                <ellipse cx="112.436" cy="91.063" rx="1.068" ry="1.068"/>
                <ellipse cx="90.263" cy="91.251" rx="1.068" ry="1.068"/>
                <ellipse cx="119.869" cy="86.425" rx="1.068" ry="1.068"/>
                <ellipse cx="145.801" cy="58.375" rx="1.068" ry="1.068"/>
                <ellipse cx="156.974" cy="65.433" rx="1.068" ry="1.068"/>
                <ellipse cx="156.974" cy="77.742" rx="1.068" ry="1.068"/>
                <ellipse cx="145.801" cy="71.635" rx="1.068" ry="1.068"/>
                <ellipse cx="112.475" cy="52.177" rx="1.068" ry="1.068"/>
                <ellipse cx="112.519" cy="64.726" rx="1.068" ry="1.068"/>
                <ellipse cx="112.48" cy="26.524" rx="1.068" ry="1.068"/>
                <ellipse cx="101.371" cy="20.029" rx="1.068" ry="1.068"/>
                <ellipse cx="134.387" cy="39.187" rx="1.068" ry="1.068"/>
                <ellipse cx="123.313" cy="33.05" rx="1.068" ry="1.068"/>
                <ellipse cx="123.588" cy="45.599" rx="1.068" ry="1.068"/>
                <ellipse cx="142.047" cy="95.257" rx="1.068" ry="1.068"/>
                <ellipse cx="153.19" cy="88.98" rx="1.068" ry="1.068"/>
                <ellipse cx="153.19" cy="101.425" rx="1.068" ry="1.068"/>
                <ellipse cx="142.047" cy="107.702" rx="1.068" ry="1.068"/>
                <ellipse cx="130.973" cy="89.119" rx="1.068" ry="1.068"/>
                <ellipse cx="131.017" cy="101.664" rx="1.068" ry="1.068"/>
                <ellipse cx="130.943" cy="114.406" rx="1.068" ry="1.068"/>
                <ellipse cx="142.047" cy="120.486" rx="1.068" ry="1.068"/>
                <ellipse cx="130.943" cy="126.855" rx="1.068" ry="1.068"/>
                <ellipse cx="119.869" cy="108.268" rx="1.068" ry="1.068"/>
                <ellipse cx="101.328" cy="97.471" rx="1.068" ry="1.068"/>
                <ellipse cx="90.263" cy="103.787" rx="1.068" ry="1.068"/>
                <ellipse cx="112.436" cy="103.887" rx="1.068" ry="1.068"/>
                <ellipse cx="119.908" cy="120.818" rx="1.068" ry="1.068"/>
                <ellipse cx="101.354" cy="110.278" rx="1.068" ry="1.068"/>
                <ellipse cx="90.25" cy="116.546" rx="1.068" ry="1.068"/>
                <ellipse cx="101.354" cy="123.063" rx="1.068" ry="1.068"/>
                <ellipse cx="90.25" cy="129.431" rx="1.068" ry="1.068"/>
                <ellipse cx="90.25" cy="137.896" rx="1.068" ry="1.068"/>
                <ellipse cx="79.115" cy="148.615" rx="1.068" ry="1.068"/>
                <ellipse cx="79.115" cy="135.765" rx="1.068" ry="1.068"/>
                <ellipse cx="68.007" cy="142.364" rx="1.068" ry="1.068"/>
                <ellipse cx="68.007" cy="129.431" rx="1.068" ry="1.068"/>
                <ellipse cx="56.868" cy="123.063" rx="1.068" ry="1.068"/>
                <ellipse cx="45.794" cy="129.431" rx="1.068" ry="1.068"/>
                <ellipse cx="45.759" cy="137.896" rx="1.068" ry="1.068"/>
                <ellipse cx="38.361" cy="125.255" rx="1.068" ry="1.068"/>
                <ellipse cx="97.879" cy="142.364" rx="1.068" ry="1.068"/>
                <ellipse cx="79.176" cy="110.849" rx="1.068" ry="1.068"/>
                <ellipse cx="67.972" cy="116.712" rx="1.068" ry="1.068"/>
                <ellipse cx="56.902" cy="110.278" rx="1.068" ry="1.068"/>
                <ellipse cx="68.007" cy="103.887" rx="1.068" ry="1.068"/>
                <ellipse cx="79.08" cy="97.471" rx="1.068" ry="1.068"/>
                <ellipse cx="79.08" cy="84.651" rx="1.068" ry="1.068"/>
                <ellipse cx="67.972" cy="91.063" rx="1.068" ry="1.068"/>
                <ellipse cx="56.902" cy="97.471" rx="1.068" ry="1.068"/>
                <ellipse cx="45.794" cy="103.874" rx="1.068" ry="1.068"/>
                <ellipse cx="45.794" cy="91.007" rx="1.068" ry="1.068"/>
                <ellipse cx="56.868" cy="84.638" rx="1.068" ry="1.068"/>
                <ellipse cx="38.361" cy="107.946" rx="1.068" ry="1.068"/>
                <ellipse cx="38.361" cy="99.646" rx="1.068" ry="1.068"/>
                <ellipse cx="45.759" cy="112.178" rx="1.068" ry="1.068"/>
                <ellipse cx="79.215" cy="123.394" rx="1.068" ry="1.068"/>
                <ellipse cx="119.908" cy="133.267" rx="1.068" ry="1.068"/>
                <ellipse cx="142.086" cy="82.542" rx="1.068" ry="1.068"/>
                <ellipse cx="134.465" cy="26.503" rx="1.068" ry="1.068"/>
                <ellipse cx="145.801" cy="11.612" rx="1.068" ry="1.068"/>
                <ellipse cx="123.588" cy="19.977" rx="1.068" ry="1.068"/>
                <ellipse cx="145.801" cy="19.977" rx="1.068" ry="1.068"/>
                <ellipse cx="146.237" cy="37.579" rx="1.068" ry="1.068"/>
                <ellipse cx="153.234" cy="41.41" rx="1.068" ry="1.068"/>
                <ellipse cx="145.801" cy="45.599" rx="1.068" ry="1.068"/>
                <ellipse cx="123.588" cy="7.144" rx="1.068" ry="1.068"/>
                <ellipse cx="112.48" cy="1.107" rx="1.068" ry="1.068"/>
                <ellipse cx="112.48" cy="13.661" rx="1.068" ry="1.068"/>
                <ellipse cx="101.328" cy="11.612" rx="1.068" ry="1.068"/>
                <ellipse cx="93.955" cy="7.144" rx="1.068" ry="1.068"/>
                <ellipse cx="67.972" cy="52.19" rx="1.068" ry="1.068"/>
                <ellipse cx="56.872" cy="58.672" rx="1.068" ry="1.068"/>
                <ellipse cx="68.007" cy="64.853" rx="1.068" ry="1.068"/>
                <ellipse cx="68.041" cy="77.664" rx="1.068" ry="1.068"/>
                <ellipse cx="79.115" cy="71.335" rx="1.068" ry="1.068"/>
                <ellipse cx="90.263" cy="77.925" rx="1.068" ry="1.068"/>
                <ellipse cx="79.115" cy="58.593" rx="1.068" ry="1.068"/>
                <ellipse cx="90.263" cy="52.037" rx="1.068" ry="1.068"/>
                <ellipse cx="79.159" cy="45.599" rx="1.068" ry="1.068"/>
                <ellipse cx="90.223" cy="64.726" rx="1.068" ry="1.068"/>
                <ellipse cx="23.547" cy="52.107" rx="1.068" ry="1.068"/>
                <ellipse cx="12.7" cy="58.672" rx="1.068" ry="1.068"/>
                <ellipse cx="5.009" cy="54.356" rx="1.068" ry="1.068"/>
                <ellipse cx="5.009" cy="62.747" rx="1.068" ry="1.068"/>
                <ellipse cx="12.438" cy="50.215" rx="1.068" ry="1.068"/>
            </g>
            <g fill="#00152B" fill-rule="nonzero" opacity=".1" transform="translate(2.18 11.77)">
                <ellipse cx="10.193" cy="15.056" rx="2.777" ry="2.777"/>
                <ellipse cx="43.579" cy="17.676" rx="2.777" ry="2.777"/>
                <ellipse cx="69.641" cy="19.907" rx="2.777" ry="2.777"/>
                <ellipse cx="143.621" cy="2.794" rx="2.777" ry="2.777"/>
                <ellipse cx="121.369" cy="11.259" rx="2.777" ry="2.777"/>
                <ellipse cx="99.148" cy="2.995" rx="2.777" ry="2.777"/>
                <ellipse cx="143.621" cy="36.916" rx="2.777" ry="2.777"/>
                <ellipse cx="154.795" cy="68.946" rx="2.777" ry="2.777"/>
                <ellipse cx="151.054" cy="92.707" rx="2.777" ry="2.777"/>
                <ellipse cx="128.763" cy="118.137" rx="2.777" ry="2.777"/>
                <ellipse cx="139.902" cy="73.824" rx="2.777" ry="2.777"/>
                <ellipse cx="88.026" cy="129.178" rx="2.777" ry="2.777"/>
                <ellipse cx="65.827" cy="133.646" rx="2.777" ry="2.777"/>
                <ellipse cx="43.579" cy="120.713" rx="2.777" ry="2.777"/>
                <ellipse cx="110.566" cy="69.024" rx="2.777" ry="2.777"/>
                <ellipse cx="54.688" cy="75.933" rx="2.777" ry="2.777"/>
                <ellipse cx="65.792" cy="43.472" rx="2.777" ry="2.777"/>
                <ellipse cx="2.829" cy="45.638" rx="2.777" ry="2.777"/>
                <ellipse cx="36.181" cy="99.319" rx="2.777" ry="2.777"/>
                <ellipse cx="76.9" cy="88.757" rx="2.777" ry="2.777"/>
                <ellipse cx="10.258" cy="75.824" rx="2.777" ry="2.777"/>
                <ellipse cx="21.153" cy="30.495" rx="2.777" ry="2.777"/>
            </g>
            <g stroke-dasharray="0" stroke-linecap="round" stroke-width="1.743">
                <path stroke="#38D611" d="M102.226 87.955l-.872 26.442-10.036 5.2"/>
                <path stroke="#FA0171" d="M56.872 47.609l-.004-20.06 7.612-4.468M12.438 35.914l10.895 6.35L5.009 57.409l18.376 11.154.162 25.204-10.04-6.172"/>
                <path stroke="#38D611" d="M136.057 68.357l9.744-6.852v-12.82l-11.109-6.416M102.444 49.248V14.664l-9.557-5.536"/>
                <path stroke="#FA0171" d="M67.976 118.695l-21.114 13.787M90.25 140.947l-.027-8.364-22.251-12.82V94.115l-11.07 6.407.114-12.628M55.839 27.549L45.759 16.83"/>
                <path stroke="#38D611" d="M101.354 116.742v8.2M103.669 127.391l15.04 8.29M150.753 45.913l-3.714 2.08M104.279 24.35l7.176 4.454M114.694 28.159l7.747-4.49M123.557 20.448l.027-9.032M121.365 8.888l-7.774-4.324M103.512 99.228l16.357-9.751 9.87 2.393M130.982 94.677l.03 8.788M133.01 103.434l6.975-4.485"/>
            </g>
            <g stroke-width="1.307">
                <path stroke="#38D611" d="M69.083 68.623l33.36-19.375 33.326 19.236-33.055 19.471z"/>
                <path stroke="#FA0171" d="M23.385 68.562L56.75 49.187l33.32 19.231-33.054 19.476z"/>
            </g>
            <path fill="url(#a)" fill-rule="nonzero" d="M69.371 68.501l33.36-19.38 33.326 19.236-33.055 19.476z" opacity=".3"/>
            <path fill="url(#b)" fill-rule="nonzero" d="M23.673 68.436l33.36-19.376L90.36 68.296 57.304 87.772z" opacity=".3"/>
            <ellipse cx="46.618" cy="17.75" stroke="#FA0171" stroke-width=".5" rx="3.81" ry="3.81"/>
            <ellipse cx="64.48" cy="22.789" stroke="#FA0171" stroke-width=".5" rx="3.81" ry="3.81"/>
            <ellipse cx="13.136" cy="36.066" stroke="#FA0171" stroke-width=".5" rx="3.81" ry="3.81"/>
            <ellipse cx="13.506" cy="87.833" stroke="#FA0171" stroke-width=".5" rx="3.81" ry="3.81"/>
            <ellipse cx="45.794" cy="132.482" stroke="#FA0171" stroke-width=".5" rx="3.81" ry="3.81"/>
            <ellipse cx="90.206" cy="140.947" stroke="#FA0171" stroke-width=".5" rx="3.81" ry="3.81"/>
            <ellipse cx="119.869" cy="136.292" stroke="#38D611" stroke-width=".5" rx="3.81" ry="3.81"/>
            <ellipse cx="91.318" cy="119.597" stroke="#38D611" stroke-width=".5" rx="3.81" ry="3.81"/>
            <ellipse cx="142.047" cy="98.16" stroke="#38D611" stroke-width=".5" rx="3.81" ry="3.81"/>
            <ellipse cx="153.234" cy="44.418" stroke="#38D611" stroke-width=".5" rx="3.81" ry="3.81"/>
            <ellipse cx="134.692" cy="42.238" stroke="#38D611" stroke-width=".5" rx="3.81" ry="3.81"/>
            <ellipse cx="112.405" cy="3.945" stroke="#38D611" stroke-width=".5" rx="3.81" ry="3.81"/>
            <ellipse cx="93.955" cy="9.681" stroke="#38D611" stroke-width=".5" rx="3.81" ry="3.81"/>
        </g>
    </g>
</svg>
