<svg xmlns="http://www.w3.org/2000/svg" width="104" height="105"><g fill="none" fill-rule="evenodd" transform="translate(1 1)"><path fill="#60B22F" fill-rule="nonzero" d="M94.725 67.672a7.788 7.788 0 0 1-9.151 6.133 7.79 7.79 0 1 1 9.151-6.133M52.244 86.658a7.791 7.791 0 1 1-15.286-3.018 7.791 7.791 0 0 1 15.286 3.018m-8.115-65.829a7.79 7.79 0 1 1-15.286-3.019 7.79 7.79 0 0 1 15.286 3.019m-27.178 37.38a5.312 5.312 0 1 1-10.509-1.557 5.312 5.312 0 0 1 10.509 1.557m45.065-3.916c-1.136 5.756-6.724 9.5-12.479 8.363-5.756-1.136-9.5-6.724-8.364-12.48 1.136-5.756 6.724-9.501 12.48-8.364 5.755 1.137 9.5 6.725 8.363 12.481"/><path stroke="#60B22F" stroke-width="2" d="M45.789 38.95L35.683 17.623m29.663 39.193L90.544 67.65m-42.581-1.382l-3.089 17.346m-7.647-29.438L9.179 57.752"/><path fill="#60B22F" fill-rule="nonzero" d="M63.766 33.09a5.31 5.31 0 1 1 8.914-5.778 5.311 5.311 0 1 1-8.914 5.778"/><path stroke="#60B22F" stroke-width="2" d="M59.795 40.532l8.428-9.574"/><circle cx="51.594" cy="52.235" r="14.498" stroke="#60B22F" stroke-width="2"/><circle cx="51.107" cy="51.613" r="50.625" stroke="#60B22F" stroke-width="2"/></g></svg>