<svg id="Layer_1" xmlns="http://www.w3.org/2000/svg" xmlns:xlink="http://www.w3.org/1999/xlink" viewBox="0 0 203.3 83.9"><style>.st1{fill:none;stroke:#fff;stroke-miterlimit:10}</style><image width="74" height="74" xlink:href="B03DC8C81A601F51.png" transform="translate(113 8.94)" overflow="visible" opacity=".75"/><circle cx="143.3" cy="38.9" r="20.9" fill="#fa0171"/><circle class="st1" cx="143.3" cy="38.9" r="20.9"/><title>style-sm-flat-icon-gradient-multiple-color</title><path d="M43.6 69.9V63c-4.8-.2-9.5-1.5-12.2-3.1l2.1-8.4c3 1.6 7.3 3.2 11.9 3.2 4.1 0 6.9-1.6 6.9-4.5 0-2.7-2.3-4.4-7.6-6.2-7.7-2.6-12.9-6.2-12.9-13.1 0-6.4 4.4-11.3 12.1-12.8v-6.8H51v6.3c4.8.2 8 1.2 10.4 2.3L59.3 28c-1.8-.8-5.2-2.5-10.3-2.5-4.6 0-6.1 2.1-6.1 4.1 0 2.3 2.5 3.9 8.6 6.1 8.6 3 12 7 12 13.5 0 6.4-4.5 11.8-12.7 13.2v7.4l-7.2.1z" fill="none" stroke="#fa0171" stroke-miterlimit="10"/><path class="st1" d="M141.6 51.9v-3c-2.1-.1-4.2-.7-5.4-1.4l1-3.7c1.4.7 3.2 1.4 5.3 1.4 1.8 0 3.1-.7 3.1-2 0-1.2-1-2-3.4-2.8-3.4-1.2-5.8-2.8-5.8-5.9 0-2.8 2-5 5.4-5.7v-3h3.1v2.8c2.1.1 3.6.5 4.6 1l-1 3.6c-.8-.4-2.3-1.1-4.6-1.1-2.1 0-2.7.9-2.7 1.8 0 1 1.1 1.7 3.8 2.7 3.8 1.3 5.3 3.1 5.3 6 0 2.8-2 5.3-5.7 5.9v3.3l-3 .1z"/></svg>