<svg width="1081" height="218" xmlns="http://www.w3.org/2000/svg"><g fill="none" fill-rule="evenodd"><path d="M732.3809 19.9023l-3.3985 2.6075c-1.875-2.4415-4.126-4.292-6.753-5.5518-2.6269-1.2598-5.5126-1.8896-8.6571-1.8896-3.4376 0-6.6211.8251-9.5508 2.4755-2.9297 1.6504-5.2002 3.8672-6.8115 6.6504-1.6114 2.7833-2.417 5.9131-2.417 9.3897 0 5.254 1.8017 9.6386 5.4052 13.1543 3.6036 3.5156 8.1494 5.2734 13.6377 5.2734 6.0352 0 11.084-2.3632 15.1465-7.0898L732.381 47.5c-2.1485 2.7344-4.8291 4.8486-8.042 6.3428-3.213 1.4941-6.8018 2.2412-10.7666 2.2412-7.5391 0-13.4863-2.5098-17.8418-7.5293-3.6524-4.2383-5.4785-9.3555-5.4785-15.3516 0-6.3086 2.2118-11.6162 6.6357-15.9228 4.4238-4.3067 9.9658-6.46 16.626-6.46 4.0234 0 7.6562.7959 10.8984 2.3877 3.2422 1.5918 5.8984 3.8232 7.9688 6.6943zm23.0566 2.4024c4.9024 0 8.9648 1.7773 12.1875 5.332 2.9297 3.2422 4.3945 7.08 4.3945 11.5137 0 4.4531-1.5478 8.3447-4.6435 11.6748-3.0957 3.33-7.0752 4.9951-11.9385 4.9951-4.8828 0-8.872-1.665-11.9678-4.9951-3.0957-3.3301-4.6435-7.2217-4.6435-11.6748 0-4.414 1.4648-8.2422 4.3945-11.4844 3.2227-3.5742 7.2949-5.3613 12.2168-5.3613zm0 4.0137c-3.3985 0-6.3183 1.2597-8.7598 3.7793-2.4414 2.5195-3.662 5.5663-3.662 9.1406 0 2.3047.5566 4.4531 1.6698 6.4453 1.1133 1.9922 2.6172 3.5303 4.5118 4.6143 1.8945 1.084 3.9746 1.626 6.2402 1.626 2.2656 0 4.3457-.542 6.2402-1.626 1.8946-1.084 3.3985-2.6221 4.5118-4.6143 1.1132-1.9922 1.6699-4.1406 1.6699-6.4453 0-3.5743-1.2256-6.6211-3.6768-9.1406-2.4512-2.5196-5.3662-3.7793-8.7451-3.7793zm23.584-15.498h4.1015V55h-4.1015V10.8203zm12.0117 0h4.1016V55h-4.1016V10.8203zM835.418 23.125V55h-4.043v-5.4785c-1.7188 2.0898-3.6474 3.662-5.7861 4.7168-2.1387 1.0547-4.4776 1.582-7.0166 1.582-4.5118 0-8.3643-1.6357-11.5577-4.9072-3.1933-3.2715-4.79-7.251-4.79-11.9385 0-4.5899 1.6113-8.5156 4.834-11.7773 3.2227-3.2618 7.0996-4.8926 11.6309-4.8926 2.6172 0 4.9853.5566 7.1044 1.67 2.1192 1.1132 3.9795 2.7831 5.5811 5.0097V23.125h4.043zm-16.4063 3.1348c-2.2851 0-4.3945.5615-6.3281 1.6845-1.9336 1.123-3.4717 2.7002-4.6143 4.7315-1.1425 2.0312-1.7138 4.1797-1.7138 6.4453 0 2.2461.5761 4.3945 1.7285 6.4453 1.1523 2.0508 2.7002 3.6475 4.6435 4.79 1.9434 1.1426 4.0283 1.714 6.255 1.714 2.246 0 4.375-.5665 6.3866-1.6993 2.0118-1.1328 3.5596-2.666 4.6436-4.5996 1.084-1.9336 1.626-4.1113 1.626-6.5332 0-3.6914-1.2158-6.7774-3.6475-9.2578-2.4316-2.4805-5.4248-3.7207-8.9795-3.7207zM844.9102 55V10.8203h4.0722v17.7832c1.7188-2.1094 3.6426-3.6865 5.7715-4.7314 2.129-1.045 4.4629-1.5674 7.002-1.5674 4.5117 0 8.3642 1.6357 11.5576 4.9072 3.1934 3.2715 4.79 7.2412 4.79 11.9092 0 4.6094-1.6113 8.5449-4.834 11.8066-3.2226 3.2618-7.0996 4.8926-11.6308 4.8926-2.5977 0-4.9512-.5566-7.0606-1.67-2.1094-1.1132-3.9746-2.7831-5.5957-5.0097V55h-4.0722zm16.4062-3.1348c2.2852 0 4.3945-.5615 6.3281-1.6845 1.9336-1.123 3.4717-2.7002 4.6143-4.7315 1.1426-2.0312 1.7139-4.1797 1.7139-6.4453 0-2.2656-.5762-4.4238-1.7286-6.4746-1.1523-2.0508-2.7001-3.6475-4.6435-4.79-1.9434-1.1426-4.0186-1.714-6.2256-1.714-2.2461 0-4.3799.5714-6.4014 1.714-2.0215 1.1425-3.5742 2.6806-4.6582 4.6142-1.084 1.9336-1.626 4.1113-1.626 6.5332 0 3.6914 1.2159 6.7774 3.6475 9.2578 2.4317 2.4805 5.4248 3.7207 8.9795 3.7207zm39.3457-29.5605c4.9024 0 8.9648 1.7773 12.1875 5.332 2.9297 3.2422 4.3945 7.08 4.3945 11.5137 0 4.4531-1.5478 8.3447-4.6435 11.6748-3.0957 3.33-7.0752 4.9951-11.9385 4.9951-4.8828 0-8.872-1.665-11.9678-4.9951-3.0957-3.3301-4.6435-7.2217-4.6435-11.6748 0-4.414 1.4648-8.2422 4.3945-11.4844 3.2227-3.5742 7.295-5.3613 12.2168-5.3613zm0 4.0137c-3.3984 0-6.3183 1.2597-8.7598 3.7793-2.4414 2.5195-3.662 5.5663-3.662 9.1406 0 2.3047.5566 4.4531 1.6699 6.4453 1.1132 1.9922 2.6171 3.5303 4.5117 4.6143 1.8945 1.084 3.9746 1.626 6.2402 1.626 2.2656 0 4.3457-.542 6.2402-1.626 1.8946-1.084 3.3985-2.6221 4.5118-4.6143 1.1132-1.9922 1.6699-4.1406 1.6699-6.4453 0-3.5743-1.2256-6.6211-3.6768-9.1406-2.4512-2.5196-5.3662-3.7793-8.745-3.7793zm22.6465-3.1934h4.1894v4.6582c1.25-1.836 2.5684-3.208 3.9551-4.1162 1.3868-.9082 2.832-1.3623 4.336-1.3623 1.1328 0 2.3437.3613 3.6328 1.084l-2.1387 3.457c-.8594-.371-1.582-.5566-2.168-.5566-1.3672 0-2.6855.5615-3.955 1.6845-1.2696 1.123-2.2364 2.8662-2.9004 5.2295-.5078 1.8164-.7618 5.4883-.7618 11.0157V55h-4.1894V23.125zm51.3574 0V55h-4.043v-5.4785c-1.7187 2.0898-3.6474 3.662-5.786 4.7168-2.1388 1.0547-4.4776 1.582-7.0167 1.582-4.5117 0-8.3642-1.6357-11.5576-4.9072-3.1934-3.2715-4.79-7.251-4.79-11.9385 0-4.5899 1.6113-8.5156 4.834-11.7773 3.2226-3.2618 7.0995-4.8926 11.6308-4.8926 2.6172 0 4.9853.5566 7.1045 1.67 2.1191 1.1132 3.9795 2.7831 5.581 5.0097V23.125h4.043zm-16.4062 3.1348c-2.2852 0-4.3946.5615-6.3282 1.6845-1.9336 1.123-3.4716 2.7002-4.6142 4.7315-1.1426 2.0312-1.7139 4.1797-1.7139 6.4453 0 2.2461.5762 4.3945 1.7285 6.4453 1.1524 2.0508 2.7002 3.6475 4.6436 4.79 1.9434 1.1426 4.0283 1.714 6.2549 1.714 2.246 0 4.375-.5665 6.3867-1.6993 2.0117-1.1328 3.5596-2.666 4.6435-4.5996 1.084-1.9336 1.626-4.1113 1.626-6.5332 0-3.6914-1.2158-6.7774-3.6474-9.2578-2.4317-2.4805-5.4248-3.7207-8.9795-3.7207zm29.209-14.9707h4.1308V23.125h6.504v3.5156h-6.504V55h-4.1309V26.6406h-5.5957V23.125h5.5957V11.289zM1005.662 10c.9375 0 1.7383.332 2.4024.996.664.6642.996 1.465.996 2.4024 0 .918-.332 1.709-.996 2.373-.6641.6642-1.4649.9962-2.4024.9962-.918 0-1.709-.332-2.373-.9961-.6641-.664-.9961-1.455-.9961-2.373 0-.9376.332-1.7383.996-2.4024.6641-.664 1.4551-.9961 2.3731-.9961zm-2.0508 13.125h4.1309V55h-4.1309V23.125zm9.6094 0h4.3652l10.6641 23.2031 10.5762-23.2031h4.3945L1028.6309 55h-.7325l-14.6777-31.875zm63.1055 21.2988l3.457 1.8164c-1.1328 2.2266-2.4414 4.0235-3.9258 5.3907-1.4844 1.3672-3.1543 2.4072-5.0097 3.12-1.8555.713-3.9551 1.0694-6.2989 1.0694-5.1953 0-9.2578-1.704-12.1875-5.1123-2.9297-3.4082-4.3945-7.2607-4.3945-11.5576 0-4.043 1.2402-7.6465 3.7207-10.8106 3.1445-4.0234 7.3535-6.0351 12.627-6.0351 5.4297 0 9.7656 2.0605 13.0078 6.1816 2.3047 2.9102 3.4765 6.543 3.5156 10.8985h-28.6524c.0782 3.711 1.2598 6.7529 3.545 9.126 2.2851 2.373 5.1074 3.5595 8.4668 3.5595 1.621 0 3.1982-.2832 4.7314-.8496s2.837-1.3184 3.9111-2.2559c1.0743-.9375 2.2364-2.4511 3.4864-4.541zm0-8.584c-.547-2.1875-1.3428-3.9355-2.3877-5.2441-1.045-1.3086-2.4268-2.3633-4.1455-3.164-1.7188-.8008-3.5254-1.2012-5.42-1.2012-3.125 0-5.8105 1.0058-8.0566 3.0175-1.6406 1.4649-2.8808 3.6621-3.7207 6.5918h23.7305zm-384.082 51.0645h4.3945v16.1719l17.1972-16.1719h5.8301l-20.7129 19.336L721.2773 130h-5.7128l-18.9258-20.0977V130h-4.3946V86.9043zm34.7753 11.2207h4.1016v5.7129c1.6406-2.1875 3.457-3.8232 5.4492-4.9072 1.9922-1.084 4.1602-1.626 6.504-1.626 2.3827 0 4.497.6055 6.3427 1.8164 1.8457 1.211 3.208 2.8418 4.087 4.8926.8788 2.0508 1.3183 5.244 1.3183 9.58V130H750.75v-15.205c0-3.672-.1562-6.1231-.4688-7.3536-.4882-2.1094-1.4062-3.6963-2.7539-4.7607-1.3476-1.0645-3.1054-1.5967-5.2734-1.5967-2.4805 0-4.7021.8203-6.665 2.461-1.963 1.6406-3.2569 3.6718-3.8819 6.0937-.3906 1.582-.586 4.4726-.586 8.6718V130h-4.1015V98.125zm51.6797-.8203c4.9024 0 8.9648 1.7773 12.1875 5.332 2.9297 3.2422 4.3946 7.08 4.3946 11.5137 0 4.4531-1.5479 8.3447-4.6436 11.6748-3.0957 3.33-7.0752 4.9951-11.9385 4.9951-4.8828 0-8.872-1.665-11.9678-4.9951-3.0957-3.3301-4.6435-7.2217-4.6435-11.6748 0-4.414 1.4648-8.2422 4.3945-11.4844 3.2227-3.5742 7.295-5.3613 12.2168-5.3613zm0 4.0137c-3.3984 0-6.3183 1.2597-8.7597 3.7793-2.4415 2.5195-3.6622 5.5663-3.6622 9.1406 0 2.3047.5567 4.4531 1.67 6.4453 1.1133 1.9922 2.6171 3.5303 4.5117 4.6143 1.8945 1.084 3.9746 1.626 6.2402 1.626 2.2657 0 4.3457-.542 6.2403-1.626 1.8945-1.084 3.3984-2.6221 4.5117-4.6143 1.1133-1.9922 1.6699-4.1406 1.6699-6.4453 0-3.5743-1.2256-6.6211-3.6768-9.1406-2.4511-2.5196-5.3662-3.7793-8.745-3.7793zm19.8926-3.1934h4.2187l9.756 23.1445L822.791 98.125h.7324l10.1953 23.1445 9.9317-23.1445h4.2773L834.0997 130h-.7911l-10.1367-22.8223L812.9473 130h-.7618l-13.5937-31.875zm53.5547-12.3047h4.1015V130h-4.1015V85.8203zm39.4629 33.6035l3.457 1.8164c-1.1328 2.2266-2.4414 4.0235-3.9258 5.3907-1.4844 1.3672-3.1543 2.4072-5.0097 3.12-1.8555.713-3.9551 1.0694-6.2989 1.0694-5.1953 0-9.2578-1.704-12.1875-5.1123-2.9297-3.4082-4.3945-7.2607-4.3945-11.5576 0-4.043 1.2402-7.6465 3.7207-10.8106 3.1446-4.0234 7.3535-6.0351 12.627-6.0351 5.4297 0 9.7656 2.0605 13.0078 6.1816 2.3047 2.9102 3.4765 6.543 3.5156 10.8985h-28.6524c.0782 3.711 1.2598 6.7529 3.545 9.126 2.2851 2.373 5.1074 3.5595 8.4668 3.5595 1.621 0 3.1982-.2832 4.7314-.8496s2.837-1.3184 3.9111-2.2559c1.0743-.9375 2.2364-2.4511 3.4864-4.541zm0-8.584c-.5469-2.1875-1.3428-3.9355-2.3877-5.2441-1.045-1.3086-2.4268-2.3633-4.1455-3.164-1.7188-.8008-3.5254-1.2012-5.42-1.2012-3.125 0-5.8105 1.0058-8.0566 3.0175-1.6406 1.4649-2.8808 3.6621-3.7207 6.5918h23.7305zm43.9746-25.0195V130h-4.043v-5.4785c-1.7187 2.0898-3.6474 3.662-5.7861 4.7168-2.1387 1.0547-4.4775 1.582-7.0166 1.582-4.5118 0-8.3643-1.6357-11.5576-4.9072-3.1934-3.2715-4.79-7.251-4.79-11.9385 0-4.5899 1.6112-8.5156 4.834-11.7773 3.2226-3.2618 7.0995-4.8926 11.6308-4.8926 2.6172 0 4.9853.5566 7.1045 1.67 2.1191 1.1132 3.9794 2.7831 5.581 5.0097v-18.164h4.043zm-16.4063 15.4395c-2.2851 0-4.3945.5615-6.328 1.6845-1.9337 1.123-3.4718 2.7002-4.6143 4.7315-1.1426 2.0312-1.714 4.1797-1.714 6.4453 0 2.2461.5763 4.3945 1.7286 6.4453 1.1524 2.0508 2.7002 3.6475 4.6436 4.79 1.9433 1.1426 4.0283 1.714 6.2548 1.714 2.2461 0 4.375-.5665 6.3868-1.6993 2.0117-1.1328 3.5595-2.666 4.6435-4.5996 1.084-1.9336 1.626-4.1113 1.626-6.5332 0-3.6914-1.2158-6.7773-3.6475-9.2578-2.4316-2.4805-5.4248-3.7207-8.9795-3.7207zm53.1446-3.1348h4.1308v25.4004c0 4.4727-.3906 7.7441-1.1718 9.8144-1.0743 2.9297-2.9395 5.1856-5.5958 6.7676-2.6562 1.582-5.8495 2.373-9.58 2.373-2.7344 0-5.1904-.3857-7.3682-1.1572-2.1777-.7714-3.9502-1.8066-5.3174-3.1054-1.3672-1.2989-2.627-3.1983-3.7793-5.6983h4.4532c1.2109 2.1094 2.7734 3.6719 4.6875 4.6875 1.914 1.0157 4.287 1.5235 7.119 1.5235 2.793 0 5.1514-.5225 7.0753-1.5674 1.9238-1.045 3.2959-2.3584 4.1162-3.9404.8203-1.582 1.2305-4.1309 1.2305-7.6465v-1.6407c-1.543 1.9532-3.4278 3.4522-5.6543 4.4971-2.2266 1.045-4.5899 1.5674-7.0899 1.5674-2.9297 0-5.6836-.7275-8.2617-2.1826-2.5781-1.4551-4.5703-3.413-5.9766-5.874-1.4062-2.461-2.1093-5.166-2.1093-8.1153 0-2.9492.7324-5.6982 2.1972-8.247 1.4649-2.5489 3.4912-4.5655 6.0791-6.0499 2.588-1.4843 5.3174-2.2265 8.1885-2.2265 2.3828 0 4.6045.4931 6.665 1.4795 2.0606.9863 4.0479 2.6123 5.962 4.878V98.125zm-12.0996 3.1348c-2.3243 0-4.4825.5615-6.4747 1.6845-1.9922 1.123-3.5546 2.6758-4.6875 4.6582-1.1328 1.9825-1.6992 4.126-1.6992 6.4307 0 3.4961 1.1719 6.3867 3.5157 8.6719 2.3437 2.2851 5.3808 3.4277 9.1113 3.4277 3.7695 0 6.8017-1.1328 9.0967-3.3984 2.2949-2.2657 3.4423-5.2441 3.4423-8.9356 0-2.4023-.5273-4.5459-1.582-6.4306-1.0547-1.8848-2.5488-3.374-4.4824-4.4678-1.9336-1.0938-4.0137-1.6406-6.2402-1.6406zm51.8554 18.164l3.457 1.8164c-1.1328 2.2266-2.4413 4.0235-3.9257 5.3907-1.4844 1.3672-3.1543 2.4072-5.0098 3.12-1.8555.713-3.955 1.0694-6.2988 1.0694-5.1954 0-9.2578-1.704-12.1875-5.1123-2.9297-3.4082-4.3946-7.2607-4.3946-11.5576 0-4.043 1.2403-7.6465 3.7208-10.8106 3.1445-4.0234 7.3534-6.0351 12.627-6.0351 5.4296 0 9.7655 2.0605 13.0077 6.1816 2.3047 2.9102 3.4766 6.543 3.5156 10.8985h-28.6523c.0781 3.711 1.2598 6.7529 3.545 9.126 2.285 2.373 5.1073 3.5595 8.4667 3.5595 1.6211 0 3.1983-.2832 4.7315-.8496 1.5332-.5664 2.8369-1.3184 3.9111-2.2559 1.0742-.9375 2.2363-2.4511 3.4863-4.541zm0-8.584c-.5469-2.1875-1.3427-3.9355-2.3877-5.2441-1.0449-1.3086-2.4267-2.3633-4.1455-3.164-1.7187-.8008-3.5254-1.2012-5.4199-1.2012-3.125 0-5.8105 1.0058-8.0566 3.0175-1.6407 1.4649-2.8809 3.6621-3.7207 6.5918h23.7304zM692.2734 205v-43.0957h.9375l28.6524 32.9883v-32.9883h4.248V205h-.9668l-28.418-32.5781V205h-4.453zm70.5176-10.5762l3.457 1.8164c-1.1328 2.2266-2.4414 4.0235-3.9257 5.3907-1.4844 1.3672-3.1543 2.4072-5.0098 3.12-1.8555.713-3.955 1.0694-6.2988 1.0694-5.1954 0-9.2578-1.704-12.1875-5.1123-2.9297-3.4082-4.3946-7.2607-4.3946-11.5576 0-4.043 1.2403-7.6465 3.7207-10.8106 3.1446-4.0234 7.3535-6.0351 12.627-6.0351 5.4297 0 9.7656 2.0605 13.0078 6.1816 2.3047 2.9102 3.4766 6.543 3.5156 10.8985h-28.6523c.0781 3.711 1.2597 6.7529 3.545 9.126 2.285 2.373 5.1073 3.5595 8.4667 3.5595 1.6211 0 3.1982-.2832 4.7315-.8496 1.5332-.5664 2.8369-1.3184 3.911-2.2559 1.0743-.9375 2.2364-2.4511 3.4864-4.541zm0-8.584c-.5469-2.1875-1.3428-3.9355-2.3877-5.2441-1.045-1.3086-2.4267-2.3633-4.1455-3.164-1.7187-.8008-3.5254-1.2012-5.42-1.2012-3.125 0-5.8104 1.0058-8.0565 3.0175-1.6407 1.4649-2.881 3.6621-3.7208 6.5918h23.7305zm15.7324-24.5507h4.1309v11.8359h6.5039v3.5156h-6.5039V205h-4.1309v-28.3594h-5.5957v-3.5156h5.5957v-11.836zm12.4512 11.8359h4.2188l9.7558 23.1445 10.2246-23.1445h.7324l10.1954 23.1445 9.9316-23.1445h4.2773L826.4825 205h-.791l-10.1368-22.8223L805.33 205h-.7617l-13.5938-31.875zm69.2578-.8203c4.9024 0 8.9649 1.7773 12.1875 5.332 2.9297 3.2422 4.3946 7.08 4.3946 11.5137 0 4.4531-1.5479 8.3447-4.6436 11.6748-3.0957 3.33-7.0752 4.9951-11.9385 4.9951-4.8828 0-8.872-1.665-11.9678-4.9951-3.0957-3.3301-4.6435-7.2217-4.6435-11.6748 0-4.414 1.4648-8.2422 4.3945-11.4844 3.2227-3.5742 7.295-5.3613 12.2168-5.3613zm0 4.0137c-3.3984 0-6.3183 1.2597-8.7597 3.7793-2.4415 2.5195-3.6622 5.5663-3.6622 9.1406 0 2.3047.5567 4.4531 1.67 6.4453 1.1133 1.9922 2.6171 3.5303 4.5117 4.6143 1.8945 1.084 3.9746 1.626 6.2402 1.626 2.2657 0 4.3457-.542 6.2403-1.626 1.8945-1.084 3.3984-2.6221 4.5117-4.6143 1.1133-1.9922 1.6699-4.1406 1.6699-6.4453 0-3.5743-1.2256-6.6211-3.6768-9.1406-2.4511-2.5196-5.3662-3.7793-8.745-3.7793zm22.6465-3.1934h4.1895v4.6582c1.25-1.836 2.5683-3.208 3.955-4.1162 1.3868-.9082 2.832-1.3623 4.336-1.3623 1.1328 0 2.3437.3613 3.6328 1.084l-2.1387 3.457c-.8594-.371-1.582-.5566-2.168-.5566-1.3671 0-2.6855.5615-3.955 1.6845-1.2696 1.123-2.2364 2.8662-2.9004 5.2295-.5078 1.8164-.7617 5.4883-.7617 11.0156V205h-4.1895v-31.875zm19.5703-12.3047h4.1309v25.1367l14.7363-12.832h6.0352l-17.4903 15.205L928.377 205h-5.8008L906.58 190.6738V205h-4.1309v-44.1797zM.1558 173.426l17.587-10.5406c12.3815 22.7676 26.6855 34.1512 42.9126 34.1512 6.9411 0 13.46-1.6162 19.5569-4.8487 6.0969-3.2324 10.7398-7.5656 13.929-12.9999 3.1891-5.4342 4.7837-11.1963 4.7837-17.2863 0-6.9334-2.345-13.726-7.0349-20.3783-6.472-9.182-18.2905-20.2376-35.4556-33.1673C39.1756 95.3327 28.436 85.9166 24.215 80.1076c-7.3162-9.7441-10.9743-20.2845-10.9743-31.6214 0-8.9946 2.1573-17.1927 6.472-24.5945C24.0275 16.49 30.1008 10.6577 37.933 6.3946 45.765 2.1315 54.277 0 63.4694 0c9.755 0 18.8768 2.4126 27.3655 7.2378 8.4888 4.8252 17.4698 13.7025 26.9435 26.6323l-16.8837 12.789C93.1095 36.353 86.4733 29.5602 80.9861 26.281c-5.4872-3.2793-11.4667-4.9189-17.9388-4.9189-8.348 0-15.1718 2.5297-20.4714 7.5892-5.2996 5.0594-7.9494 11.29-7.9494 18.6917 0 4.4973.938 8.854 2.814 13.0702 1.876 4.2162 5.2995 8.8071 10.2708 13.773 2.7202 2.6233 11.6309 9.5097 26.7324 20.6592 17.9155 13.2108 30.203 24.9692 36.8626 35.2755 6.6597 10.3063 9.9895 20.6593 9.9895 31.0592 0 14.991-5.6982 28.0142-17.0947 39.07-11.3965 11.0559-25.255 16.5837-41.576 16.5837-12.5689 0-23.9652-3.3495-34.1892-10.0486-10.224-6.699-19.6507-17.9187-28.2801-33.6592zm284.536-12.227l16.6022 8.7134c-5.4403 10.681-11.7247 19.3008-18.8534 25.8593-7.1287 6.5586-15.1483 11.5477-24.0592 14.9675-8.9108 3.4198-18.994 5.1297-30.2498 5.1297-24.9504 0-44.4601-8.1747-58.5299-24.5242s-21.1045-34.8303-21.1045-55.4429c0-19.3945 5.956-36.6807 17.8685-51.8591 15.1015-19.3009 35.3148-28.9512 60.6403-28.9512 26.076 0 46.8989 9.8846 62.4694 29.6539 11.0682 13.9603 16.696 31.387 16.8837 52.2807H168.7575c.3752 17.8018 6.05 32.3944 17.0243 43.7781 10.9745 11.3838 24.5281 17.0756 40.6614 17.0756 7.7853 0 15.3594-1.3585 22.7226-4.0756 7.3632-2.7172 13.6241-6.3243 18.783-10.8216 5.159-4.4973 10.7398-11.7584 16.743-21.7836zm0-41.1782c-2.6264-10.4936-6.4486-18.879-11.4669-25.1565-5.0182-6.2775-11.6543-11.3369-19.9086-15.1783-8.2542-3.8415-16.9304-5.7622-26.0289-5.7622-15.0077 0-27.9048 4.8252-38.6916 14.4756-7.879 7.027-13.8352 17.5674-17.8685 31.6214h113.9644zm46.1954 91.913L360.2928 5.2h3.3768l84.1367 169.6313 18.3826-37.4376 20.9937.0856-36.8438 74.4545h-5.2057l-74.1473-148.972-20.1196 148.972h-19.979zM600.1497 5.2h20.6825v206.7338h-20.6825V5.2z" fill="#2E3536"/><path d="M559.8365 181.808c1.5626.808 3.0132 1.8868 4.352 3.2364 3.3358 3.363 5.0037 7.4732 5.0037 12.3308 0 4.7642-1.6679 8.851-5.0037 12.2608-3.3359 3.4096-7.3666 5.1144-12.0924 5.1144s-8.7565-1.7048-12.0924-5.1144C536.668 206.2263 535 202.1394 535 197.3752c0-4.8576 1.6679-8.9678 5.0037-12.3308l.0642-.0644-16.5667-120.894-18.1527 36.6833c.5625 1.7426.8437 3.6113.8437 5.606 0 4.7641-1.6679 8.851-5.0037 12.2607-3.3359 3.4096-7.3666 5.1144-12.0924 5.1144s-8.7565-1.7048-12.0924-5.1144C473.668 115.2263 472 111.1394 472 106.3752c0-4.8576 1.6679-8.9678 5.0037-12.3308C480.3396 90.6814 484.3703 89 489.0961 89c.2846 0 .5666.0061.8462.0183l28.487-58.0159a19.248 19.248 0 0 1-1.3668-1.2602C513.6875 26.3203 512 22.2188 512 17.4375c0-4.875 1.6875-9 5.0625-12.375S524.5156 0 529.2969 0c4.7812 0 8.8593 1.6875 12.2343 5.0625s5.0625 7.5 5.0625 12.375c0 4.7813-1.6874 8.8828-5.0625 12.3047-.993 1.0068-2.0468 1.8654-3.1615 2.576l21.4668 149.4898z" fill="#FA0171"/></g></svg>