<svg xmlns="http://www.w3.org/2000/svg" width="150" height="150"><g fill="none" fill-rule="evenodd" transform="translate(2 7)"><path fill="#FFF" fill-rule="nonzero" d="M141.077 17.291c-1.138 5.756-6.726 9.5-12.48 8.364-5.756-1.136-9.5-6.725-8.364-12.48 1.137-5.756 6.725-9.501 12.48-8.364 5.755 1.137 9.501 6.723 8.364 12.48"/><circle cx="130.655" cy="15.233" r="14.498" stroke="#FFF" stroke-width="2"/><path stroke="#FFF" stroke-width="3" d="M75.904 38.593v-9.322.311c0-6.693 5.427-12.119 12.119-12.119 6.693 0 12.119 5.426 12.119 12.119v-.311 9.322"/><path fill="#FFF" fill-rule="nonzero" d="M62.874 101.627c0 16.104-13.055 29.157-29.157 29.157-16.104 0-29.157-13.054-29.157-29.157S17.613 72.47 33.717 72.47c16.102 0 29.157 13.053 29.157 29.157"/><path stroke="#FFF" stroke-width="2" d="M103.315 40.737l17.009-15.367M59.458 81.034l14.579-13.099"/><circle cx="88.024" cy="52.761" r="3.568" stroke="#FFF" stroke-width="2"/><path fill="#FFF" fill-rule="nonzero" d="M89.545 60.146a2.632 2.632 0 1 1-3.13-4.23 2.632 2.632 0 0 1 3.13 4.23"/><path stroke="#FFF" stroke-width="3" d="M82.502 36.405h11.045c6.6 0 12 5.4 12 12V59.45c0 6.601-5.4 12-12 12H82.502c-6.6 0-12-5.399-12-12V48.405c0-6.599 5.4-12 12-12z"/><circle cx="33.815" cy="101.801" r="33.5" stroke="#FFF" stroke-width="2"/></g></svg>