<svg xmlns="http://www.w3.org/2000/svg" xmlns:xlink="http://www.w3.org/1999/xlink" width="284" height="267" viewBox="0 0 284 267">
    <defs>
        <path id="a" d="M37.332 32.201L18.77 42.933.205 32.201V10.737L18.77.005l18.563 10.732z"/>
        <linearGradient id="b" x1="0%" x2="100.016%" y1="50.002%" y2="50.002%">
            <stop offset="0%" stop-color="#304A6C"/>
            <stop offset="100%" stop-color="#38D611"/>
        </linearGradient>
        <path id="d" d="M37.769 32.454l-18.565 10.73L.641 32.455V10.99L19.204.258 37.77 10.99z"/>
        <path id="f" d="M77.246 66.703L38.804 88.927.362 66.703V22.257L38.804.033l38.442 22.224z"/>
        <linearGradient id="g" x1="-.143%" y1="49.996%" y2="49.996%">
            <stop offset="0%" stop-color="#304A6C"/>
            <stop offset="100%" stop-color="#FA0171"/>
        </linearGradient>
    </defs>
    <g fill="none" fill-rule="evenodd">
        <g stroke="#00152B" stroke-width=".5" opacity=".2">
            <path d="M81.103 93.155V70.32L61.332 58.903 41.568 70.32v22.835l19.764 11.417z"/>
            <path d="M61.332 104.588v-22.85L41.568 70.32 21.797 58.903V44.008"/>
            <path d="M81.103 70.32L61.332 81.738 41.568 93.155M81.103 93.155L61.332 81.738M120.638 93.147l-19.764 11.418v22.834l19.764 11.418 19.771-11.418v-22.834"/>
            <path d="M100.874 104.565l19.764 11.417v45.933"/>
            <path d="M140.41 104.565l-19.772 11.417-19.764 11.417"/>
            <path d="M120.638 115.982l19.771 11.417 13.587 8.259 6.317 3.842V93.046l19.77-11.417M120.638 93.147V70.313l-19.764-11.418-19.771 11.418v22.834l19.771 11.418z"/>
            <path d="M81.103 93.147l19.771-11.417 19.764-11.417 19.771-10.72V81.73M61.332 127.407v-22.835L41.568 93.155l-19.771 11.417v22.835l19.771 11.417"/>
            <path d="M21.797 89.802l-13.23 7.374 13.23 7.396 19.771 11.418v22.85"/>
            <path d="M61.332 104.572L41.568 115.99l-19.771 11.417v23.518l-19.888 10.99v-22.508M61.332 127.407L41.568 115.99"/>
            <path d="M100.874 127.4v-22.835L81.103 93.147l-19.771 11.418v22.834l19.771 11.418z"/>
            <path d="M61.332 104.565l19.771 11.417v22.85l-19.771 11.96 19.771 11.643 19.771-11.51M100.874 104.565l-19.771 11.417-19.771 11.417M8.567 66.517l13.23-7.614M8.567 112.117V97.176M81.103 24.923v22.772L61.332 58.903V35.921M120.638 93.147L100.874 81.73V44.008l13.549-7.955M127.482 51.452l12.927 8.142M41.568 161.915l-19.771-10.99M272.314 181.18v-22.835l-19.771-11.417-19.772 11.417v22.835l19.772 11.417z"/>
            <path d="M272.314 158.345l-19.771 11.417-19.772 11.418M252.543 215.432v-22.835L232.77 181.18 213 192.597v22.835l19.771 11.41"/>
            <path d="M199.778 185.192L213 192.597l19.771 11.417v22.843"/>
            <path d="M213 238.166v-22.734l19.771-11.418 19.772-11.417v-22.858M252.543 215.424l-19.772-11.41M199.855 70.22V47.384l19.764-11.418 19.771 11.418v22.834L219.62 81.637z"/>
            <path d="M219.619 81.645V58.802l19.771-11.417 19.772-11.418V21.065"/>
            <path d="M199.855 47.385l19.764 11.417L239.39 70.22M199.855 70.22l19.764-11.418M160.313 70.212l19.77 11.417v22.835l-19.77 11.41-19.764-11.41V81.629"/>
            <path d="M140.549 81.629l19.764 11.417 19.77 11.418M160.313 93.046l-19.764 11.418M160.313 70.212V47.377l19.77-11.417 19.772 11.417v22.835l-19.771 11.417z"/>
            <path d="M199.716 70.212l-19.764-11.418-19.771-11.417-19.772-10.719V59.57M219.619 104.464V81.637l19.771-11.418 19.772 11.418v22.827L239.39 115.88"/>
            <path d="M259.162 66.859l13.222 7.373-13.222 7.405-19.772 11.417v22.843"/>
            <path d="M219.619 81.637l19.771 11.417 19.772 11.41v23.517l19.887 10.999V116.47M219.619 104.464l19.771-11.41"/>
            <path d="M180.084 104.464V81.629l19.771-11.417 19.764 11.417v22.835l-19.764 11.41z"/>
            <path d="M219.619 81.629l-19.764 11.417v22.843l19.764 11.968-19.764 11.643-19.849-11.557"/>
            <path d="M180.084 81.629l19.771 11.417 19.764 11.418M199.855 1.98v22.772l19.764 11.215V12.985M160.313 70.212l19.77-11.418V21.065l-13.547-7.956M153.337 28.516l-12.928 8.142M140.471 196.78v22.835l-19.771 11.41-19.771-11.41v-22.834l19.771-11.418z"/>
            <path d="M120.7 185.348v22.85l-19.771 11.417-19.764 11.41v14.902M140.471 219.615L120.7 208.198l-19.771-11.417M140.471 196.78L120.7 208.199M180.006 196.788l-19.763-11.417v-22.835l19.763-11.417 19.772 11.417v22.835"/>
            <path d="M160.243 185.371l19.763-11.417v-46.011"/>
            <path d="M199.778 185.371l-19.772-11.417-19.763-11.418"/>
            <path d="M180.006 173.954l19.772-11.418 13.587-8.258M180.006 196.788v22.827l-19.763 11.418-19.772-11.418v-22.827l19.772-11.417z"/>
            <path d="M140.471 196.788l19.772 11.418 19.763 11.41 14.837 8.048L213 237.684M120.7 162.528v22.835l-19.771 11.418-19.764-11.418v-22.835"/>
            <path d="M81.165 200.134l-13.23-7.374 13.23-7.397 19.764-11.417v-22.85M120.7 162.528l-19.771 11.418M160.243 162.536v22.835l-19.772 11.417-19.771-11.417v-22.835l19.771-11.417z"/>
            <path d="M120.7 185.371l19.771-11.417v-22.85L120.7 139.142"/>
            <path d="M160.243 185.371l-19.772-11.417-19.771-11.418M67.935 223.418l13.23 7.615M67.935 177.819v14.941M140.471 265.013V242.24L120.7 231.025v22.99M180.006 196.788l-19.763 11.418V245.927l13.548 7.956M232.771 158.345l39.543 22.835"/>
        </g>
        <g fill="#00152B" fill-rule="nonzero" opacity=".3">
            <ellipse cx="21.797" cy="42.961" rx="1.901" ry="1.902"/>
            <ellipse cx="7.961" cy="66.517" rx="1.901" ry="1.902"/>
            <ellipse cx="21.797" cy="58.903" rx="1.901" ry="1.902"/>
            <ellipse cx="41.335" cy="70.32" rx="1.901" ry="1.902"/>
            <ellipse cx="61.347" cy="81.629" rx="1.901" ry="1.902"/>
            <ellipse cx="100.882" cy="81.629" rx="1.901" ry="1.902"/>
            <ellipse cx="61.347" cy="58.903" rx="1.901" ry="1.902"/>
            <ellipse cx="61.347" cy="36.053" rx="1.901" ry="1.902"/>
            <ellipse cx="81.103" cy="24.923" rx="1.901" ry="1.902"/>
            <ellipse cx="81.103" cy="47.618" rx="1.901" ry="1.902"/>
            <ellipse cx="81.103" cy="70.32" rx="1.901" ry="1.902"/>
            <ellipse cx="81.103" cy="93.046" rx="1.901" ry="1.902"/>
            <ellipse cx="61.347" cy="104.588" rx="1.901" ry="1.902"/>
            <ellipse cx="61.332" cy="127.547" rx="1.901" ry="1.902"/>
            <ellipse cx="41.335" cy="116.005" rx="1.901" ry="1.902"/>
            <ellipse cx="41.188" cy="138.817" rx="1.901" ry="1.902"/>
            <ellipse cx="21.797" cy="127.399" rx="1.901" ry="1.902"/>
            <ellipse cx="21.797" cy="150.925" rx="1.901" ry="1.902"/>
            <ellipse cx="40.939" cy="161.628" rx="1.901" ry="1.902"/>
            <ellipse cx="1.909" cy="161.628" rx="1.901" ry="1.902"/>
            <ellipse cx="1.909" cy="139.896" rx="1.901" ry="1.902"/>
            <ellipse cx="81.103" cy="116.005" rx="1.901" ry="1.902"/>
            <ellipse cx="81.165" cy="138.817" rx="1.901" ry="1.902"/>
            <ellipse cx="100.874" cy="127.547" rx="1.901" ry="1.902"/>
            <ellipse cx="61.347" cy="150.925" rx="1.901" ry="1.902"/>
            <ellipse cx="100.882" cy="59.175" rx="1.901" ry="1.902"/>
            <ellipse cx="100.936" cy="44.008" rx="1.901" ry="1.902"/>
            <ellipse cx="114.345" cy="36.053" rx="1.901" ry="1.902"/>
            <ellipse cx="120.638" cy="70.592" rx="1.901" ry="1.902"/>
            <ellipse cx="127.482" cy="51.529" rx="1.901" ry="1.902"/>
            <ellipse cx="140.409" cy="59.594" rx="1.901" ry="1.902"/>
            <ellipse cx="140.409" cy="36.658" rx="1.901" ry="1.902"/>
            <ellipse cx="153.337" cy="28.516" rx="1.901" ry="1.902"/>
            <ellipse cx="160.313" cy="47.385" rx="1.901" ry="1.902"/>
            <ellipse cx="160.313" cy="70.32" rx="1.901" ry="1.902"/>
            <ellipse cx="199.716" cy="70.212" rx="1.901" ry="1.902"/>
            <ellipse cx="180.006" cy="59.283" rx="1.901" ry="1.902"/>
            <ellipse cx="180.084" cy="81.629" rx="1.901" ry="1.902"/>
            <ellipse cx="180.154" cy="104.332" rx="1.901" ry="1.902"/>
            <ellipse cx="219.557" cy="104.223" rx="1.901" ry="1.902"/>
            <ellipse cx="239.39" cy="93.054" rx="1.901" ry="1.902"/>
            <ellipse cx="239.39" cy="115.982" rx="1.901" ry="1.902"/>
            <ellipse cx="219.557" cy="127.943" rx="1.901" ry="1.902"/>
            <ellipse cx="200.329" cy="139.143" rx="1.901" ry="1.902"/>
            <ellipse cx="180.154" cy="128.463" rx="1.901" ry="1.902"/>
            <ellipse cx="180.006" cy="151.119" rx="1.901" ry="1.902"/>
            <ellipse cx="199.778" cy="162.536" rx="1.901" ry="1.902"/>
            <ellipse cx="160.313" cy="162.87" rx="1.901" ry="1.902"/>
            <ellipse cx="213.008" cy="154.278" rx="1.901" ry="1.902"/>
            <ellipse cx="259.162" cy="104.332" rx="1.901" ry="1.902"/>
            <ellipse cx="279.049" cy="116.898" rx="1.901" ry="1.902"/>
            <ellipse cx="279.049" cy="138.817" rx="1.901" ry="1.902"/>
            <ellipse cx="259.162" cy="127.943" rx="1.901" ry="1.902"/>
            <ellipse cx="199.848" cy="93.295" rx="1.901" ry="1.902"/>
            <ellipse cx="199.917" cy="115.64" rx="1.901" ry="1.902"/>
            <ellipse cx="199.855" cy="47.618" rx="1.901" ry="1.902"/>
            <ellipse cx="180.084" cy="36.053" rx="1.901" ry="1.902"/>
            <ellipse cx="238.847" cy="70.165" rx="1.901" ry="1.902"/>
            <ellipse cx="219.138" cy="59.237" rx="1.901" ry="1.902"/>
            <ellipse cx="219.619" cy="81.582" rx="1.901" ry="1.902"/>
            <ellipse cx="252.481" cy="170.003" rx="1.901" ry="1.902"/>
            <ellipse cx="272.314" cy="158.826" rx="1.901" ry="1.902"/>
            <ellipse cx="272.314" cy="180.986" rx="1.901" ry="1.902"/>
            <ellipse cx="252.481" cy="192.162" rx="1.901" ry="1.902"/>
            <ellipse cx="232.771" cy="159.075" rx="1.901" ry="1.902"/>
            <ellipse cx="232.841" cy="181.413" rx="1.901" ry="1.902"/>
            <ellipse cx="232.717" cy="204.1" rx="1.901" ry="1.902"/>
            <ellipse cx="252.481" cy="214.927" rx="1.901" ry="1.902"/>
            <ellipse cx="232.717" cy="226.267" rx="1.901" ry="1.902"/>
            <ellipse cx="213.008" cy="193.171" rx="1.901" ry="1.902"/>
            <ellipse cx="180.006" cy="173.946" rx="1.901" ry="1.902"/>
            <ellipse cx="160.313" cy="185.192" rx="1.901" ry="1.902"/>
            <ellipse cx="199.778" cy="185.371" rx="1.901" ry="1.902"/>
            <ellipse cx="213.078" cy="215.517" rx="1.901" ry="1.902"/>
            <ellipse cx="180.053" cy="196.75" rx="1.901" ry="1.902"/>
            <ellipse cx="160.289" cy="207.911" rx="1.901" ry="1.902"/>
            <ellipse cx="180.053" cy="219.514" rx="1.901" ry="1.902"/>
            <ellipse cx="160.289" cy="230.854" rx="1.901" ry="1.902"/>
            <ellipse cx="160.289" cy="245.927" rx="1.901" ry="1.902"/>
            <ellipse cx="140.471" cy="265.013" rx="1.901" ry="1.902"/>
            <ellipse cx="140.471" cy="242.132" rx="1.901" ry="1.902"/>
            <ellipse cx="120.7" cy="253.883" rx="1.901" ry="1.902"/>
            <ellipse cx="120.7" cy="230.854" rx="1.901" ry="1.902"/>
            <ellipse cx="100.874" cy="219.514" rx="1.901" ry="1.902"/>
            <ellipse cx="81.165" cy="230.854" rx="1.901" ry="1.902"/>
            <ellipse cx="81.103" cy="245.927" rx="1.901" ry="1.902"/>
            <ellipse cx="67.935" cy="223.418" rx="1.901" ry="1.902"/>
            <ellipse cx="173.869" cy="253.883" rx="1.901" ry="1.902"/>
            <ellipse cx="140.58" cy="197.766" rx="1.901" ry="1.902"/>
            <ellipse cx="120.638" cy="208.206" rx="1.901" ry="1.902"/>
            <ellipse cx="100.929" cy="196.75" rx="1.901" ry="1.902"/>
            <ellipse cx="120.7" cy="185.371" rx="1.901" ry="1.902"/>
            <ellipse cx="140.409" cy="173.946" rx="1.901" ry="1.902"/>
            <ellipse cx="140.409" cy="151.119" rx="1.901" ry="1.902"/>
            <ellipse cx="120.638" cy="162.536" rx="1.901" ry="1.902"/>
            <ellipse cx="100.929" cy="173.946" rx="1.901" ry="1.902"/>
            <ellipse cx="81.165" cy="185.348" rx="1.901" ry="1.902"/>
            <ellipse cx="81.165" cy="162.435" rx="1.901" ry="1.902"/>
            <ellipse cx="100.874" cy="151.096" rx="1.901" ry="1.902"/>
            <ellipse cx="67.935" cy="192.597" rx="1.901" ry="1.902"/>
            <ellipse cx="67.935" cy="177.819" rx="1.901" ry="1.902"/>
            <ellipse cx="81.103" cy="200.134" rx="1.901" ry="1.902"/>
            <ellipse cx="140.65" cy="220.104" rx="1.901" ry="1.902"/>
            <ellipse cx="213.078" cy="237.684" rx="1.901" ry="1.902"/>
            <ellipse cx="252.55" cy="147.362" rx="1.901" ry="1.902"/>
            <ellipse cx="238.979" cy="47.579" rx="1.901" ry="1.902"/>
            <ellipse cx="259.162" cy="21.065" rx="1.901" ry="1.902"/>
            <ellipse cx="219.619" cy="35.96" rx="1.901" ry="1.902"/>
            <ellipse cx="259.162" cy="35.96" rx="1.901" ry="1.902"/>
            <ellipse cx="259.938" cy="67.301" rx="1.901" ry="1.902"/>
            <ellipse cx="272.384" cy="74.124" rx="1.901" ry="1.902"/>
            <ellipse cx="259.162" cy="81.582" rx="1.901" ry="1.902"/>
            <ellipse cx="219.619" cy="13.109" rx="1.901" ry="1.902"/>
            <ellipse cx="199.855" cy="2.36" rx="1.901" ry="1.902"/>
            <ellipse cx="199.855" cy="24.713" rx="1.901" ry="1.902"/>
            <ellipse cx="180.006" cy="21.065" rx="1.901" ry="1.902"/>
            <ellipse cx="166.885" cy="13.109" rx="1.901" ry="1.902"/>
            <ellipse cx="120.638" cy="93.318" rx="1.901" ry="1.902"/>
            <ellipse cx="100.882" cy="104.86" rx="1.901" ry="1.902"/>
            <ellipse cx="120.7" cy="115.866" rx="1.901" ry="1.902"/>
            <ellipse cx="120.754" cy="138.677" rx="1.901" ry="1.902"/>
            <ellipse cx="140.464" cy="127.407" rx="1.901" ry="1.902"/>
            <ellipse cx="160.313" cy="139.143" rx="1.901" ry="1.902"/>
            <ellipse cx="140.471" cy="104.72" rx="1.901" ry="1.902"/>
            <ellipse cx="160.313" cy="93.046" rx="1.901" ry="1.902"/>
            <ellipse cx="140.549" cy="81.582" rx="1.901" ry="1.902"/>
            <ellipse cx="160.243" cy="115.64" rx="1.901" ry="1.902"/>
            <ellipse cx="41.568" cy="93.171" rx="1.901" ry="1.902"/>
            <ellipse cx="22.262" cy="104.86" rx="1.901" ry="1.902"/>
            <ellipse cx="8.567" cy="97.176" rx="1.901" ry="1.902"/>
            <ellipse cx="8.567" cy="112.117" rx="1.901" ry="1.902"/>
            <ellipse cx="21.797" cy="89.802" rx="1.901" ry="1.902"/>
        </g>
        <g fill="#00152B" fill-rule="nonzero" opacity=".1" transform="translate(3.104 15.523)">
            <ellipse cx="18.576" cy="27.197" rx="4.943" ry="4.944"/>
            <ellipse cx="77.999" cy="31.861" rx="4.943" ry="4.944"/>
            <ellipse cx="124.378" cy="35.835" rx="4.943" ry="4.944"/>
            <ellipse cx="256.058" cy="5.363" rx="4.943" ry="4.944"/>
            <ellipse cx="216.453" cy="20.436" rx="4.943" ry="4.944"/>
            <ellipse cx="176.903" cy="5.72" rx="4.943" ry="4.944"/>
            <ellipse cx="256.058" cy="66.121" rx="4.943" ry="4.944"/>
            <ellipse cx="275.946" cy="123.154" rx="4.943" ry="4.944"/>
            <ellipse cx="269.28" cy="165.462" rx="4.943" ry="4.944"/>
            <ellipse cx="229.613" cy="210.744" rx="4.943" ry="4.944"/>
            <ellipse cx="249.439" cy="131.839" rx="4.943" ry="4.944"/>
            <ellipse cx="157.108" cy="230.404" rx="4.943" ry="4.944"/>
            <ellipse cx="117.596" cy="238.36" rx="4.943" ry="4.944"/>
            <ellipse cx="77.999" cy="215.331" rx="4.943" ry="4.944"/>
            <ellipse cx="197.225" cy="123.293" rx="4.943" ry="4.944"/>
            <ellipse cx="97.77" cy="135.596" rx="4.943" ry="4.944"/>
            <ellipse cx="117.534" cy="77.795" rx="4.943" ry="4.944"/>
            <ellipse cx="5.463" cy="81.652" rx="4.943" ry="4.944"/>
            <ellipse cx="64.831" cy="177.237" rx="4.943" ry="4.944"/>
            <ellipse cx="137.305" cy="158.43" rx="4.943" ry="4.944"/>
            <ellipse cx="18.693" cy="135.402" rx="4.943" ry="4.944"/>
            <ellipse cx="38.084" cy="54.688" rx="4.943" ry="4.944"/>
        </g>
        <g transform="translate(42.561 82.79)">
            <mask id="c" fill="#fff">
                <use xlink:href="#a"/>
            </mask>
            <path fill="url(#b)" d="M37.332 32.201V10.737L18.77.005.205 10.737v21.464L18.77 42.933z" mask="url(#c)" opacity=".7"/>
        </g>
        <g transform="translate(239.117 82.79)">
            <mask id="e" fill="#fff">
                <use xlink:href="#d"/>
            </mask>
            <path fill="url(#b)" d="M37.769 32.454V10.99L19.204.258.641 10.99v21.464l18.563 10.73z" mask="url(#e)" opacity=".7"/>
        </g>
        <g transform="translate(122.267 71.166)">
            <mask id="h" fill="#fff">
                <use xlink:href="#f"/>
            </mask>
            <path fill="url(#g)" d="M77.246 66.703V22.257L38.804.033.362 22.257v44.446l38.442 22.224z" mask="url(#h)" opacity=".7"/>
        </g>
        <path fill="#FA0171" d="M159.26 50.07a1.559 1.559 0 0 1 .572-2.124 1.548 1.548 0 0 1 2.114.573 1.548 1.548 0 0 1-1.34 2.325 1.566 1.566 0 0 1-1.346-.775m4.59 2.394a1.553 1.553 0 0 1-.566-2.115 1.55 1.55 0 0 1 2.686 1.55 1.569 1.569 0 0 1-1.347.775 1.57 1.57 0 0 1-.774-.21m-8.605-.07a1.546 1.546 0 0 1 .564-2.115 1.537 1.537 0 0 1 2.114.566 1.54 1.54 0 0 1-.566 2.115 1.54 1.54 0 0 1-2.112-.565m12.63 2.394a1.54 1.54 0 0 1-.567-2.115 1.543 1.543 0 0 1 2.114-.566c.734.426.99 1.371.564 2.115a1.545 1.545 0 0 1-2.112.566m-16.654-.07a1.554 1.554 0 0 1 .566-2.115 1.544 1.544 0 0 1 2.12.566c.426.736.17 1.689-.572 2.114-.241.14-.504.21-.766.21-.535 0-1.061-.279-1.348-.775m20.67 2.395a1.553 1.553 0 0 1-.564-2.116c.425-.744 1.376-1 2.111-.565a1.55 1.55 0 0 1 .574 2.115 1.559 1.559 0 0 1-1.348.775c-.263 0-.525-.07-.773-.21m-24.685-.07a1.54 1.54 0 0 1 .564-2.115 1.537 1.537 0 0 1 2.113.566 1.548 1.548 0 0 1-2.677 1.55m28.71 2.394a1.547 1.547 0 0 1-.566-2.115 1.544 1.544 0 0 1 2.113-.566 1.54 1.54 0 0 1 .565 2.115 1.545 1.545 0 0 1-2.113.566m-32.733-.07a1.565 1.565 0 0 1 .564-2.123 1.546 1.546 0 0 1 2.113.574c.433.736.178 1.689-.565 2.114a1.54 1.54 0 0 1-2.112-.565m36.757 2.395a1.54 1.54 0 0 1-.565-2.116 1.543 1.543 0 0 1 2.113-.565c.735.426.99 1.371.564 2.115a1.545 1.545 0 0 1-2.112.566m-40.781-.07a1.564 1.564 0 0 1 .565-2.123 1.553 1.553 0 0 1 2.12.573 1.55 1.55 0 0 1-.573 2.115c-.24.14-.503.21-.766.21-.534 0-1.06-.28-1.346-.775m44.797 2.394a1.554 1.554 0 0 1-.564-2.115 1.55 1.55 0 0 1 2.684 1.55 1.556 1.556 0 0 1-2.12.565m-48.814-.07a1.558 1.558 0 0 1 .566-2.123 1.544 1.544 0 0 1 2.111.574 1.54 1.54 0 0 1-.564 2.114c-.248.14-.511.21-.774.21a1.545 1.545 0 0 1-1.34-.775m52.839 2.395a1.54 1.54 0 0 1-.564-2.116 1.542 1.542 0 0 1 2.111-.565 1.54 1.54 0 0 1 .566 2.115 1.545 1.545 0 0 1-2.113.566m-56.861-.07a1.557 1.557 0 0 1 .572-2.123 1.539 1.539 0 0 1 2.105.573c.433.736.177 1.69-.566 2.115-.239.14-.502.21-.766.21-.533 0-1.059-.279-1.345-.775m60.878 2.394a1.554 1.554 0 0 1-.566-2.115 1.554 1.554 0 0 1 2.121-.566c.735.427.99 1.372.564 2.116a1.543 1.543 0 0 1-1.338.775c-.263 0-.534-.07-.781-.21m-64.895-.07a1.54 1.54 0 0 1 .565-2.115 1.537 1.537 0 0 1 2.112.566c.426.736.17 1.69-.564 2.114-.248.14-.51.21-.774.21a1.546 1.546 0 0 1-1.34-.774m68.92 2.394a1.553 1.553 0 0 1-.565-2.115 1.544 1.544 0 0 1 2.112-.566 1.54 1.54 0 0 1 .565 2.115 1.547 1.547 0 0 1-1.338.775c-.264 0-.527-.07-.774-.21m-72.943-.069a1.547 1.547 0 0 1 .565-2.115 1.535 1.535 0 0 1 2.112.565 1.54 1.54 0 0 1-.564 2.115 1.544 1.544 0 0 1-2.113-.565m76.966 2.394a1.54 1.54 0 0 1-.564-2.115c.425-.744 1.369-1 2.112-.566.743.427.991 1.372.565 2.116a1.545 1.545 0 0 1-2.113.565m-80.99-.077a1.542 1.542 0 0 1 .572-2.108 1.54 1.54 0 0 1 2.114.566 1.554 1.554 0 0 1-1.34 2.325 1.54 1.54 0 0 1-1.346-.783m85.007 2.402a1.553 1.553 0 0 1-.566-2.115 1.545 1.545 0 0 1 2.114-.566 1.55 1.55 0 0 1 .572 2.115 1.558 1.558 0 0 1-1.346.775 1.57 1.57 0 0 1-.774-.209m-89.023-.07a1.548 1.548 0 0 1 2.677-1.55 1.555 1.555 0 0 1-1.339 2.325 1.545 1.545 0 0 1-1.338-.775m93.047 2.395a1.554 1.554 0 0 1-.566-2.116 1.543 1.543 0 0 1 2.114-.565 1.54 1.54 0 0 1 .564 2.115 1.545 1.545 0 0 1-2.112.566m-97.072-.07a1.565 1.565 0 0 1 .566-2.123 1.544 1.544 0 0 1 2.112.573 1.54 1.54 0 0 1-.564 2.115 1.544 1.544 0 0 1-2.114-.565m101.095 2.394a1.549 1.549 0 0 1-.572-2.115 1.552 1.552 0 0 1 2.12-.566 1.55 1.55 0 1 1-.782 2.89c-.255 0-.525-.062-.766-.209m-105.118-.07a1.56 1.56 0 0 1 .572-2.123 1.548 1.548 0 0 1 2.114.574 1.554 1.554 0 0 1-1.34 2.324c-.533 0-1.06-.279-1.346-.775m109.135 2.395a1.552 1.552 0 0 1-.565-2.116 1.544 1.544 0 0 1 2.113-.565c.742.426.998 1.379.573 2.115a1.567 1.567 0 0 1-1.347.775 1.57 1.57 0 0 1-.774-.21m-113.151-.069c-.426-.744-.179-1.697.564-2.115a1.537 1.537 0 0 1 2.114.565 1.548 1.548 0 0 1-2.678 1.55m114.605 2.092c0-.852.69-1.55 1.548-1.55.852 0 1.548.698 1.548 1.55a1.548 1.548 0 1 1-3.096 0m-116.184.984c0-.852.688-1.55 1.548-1.55a1.549 1.549 0 1 1-1.548 1.55m116.184 3.665c0-.852.69-1.55 1.548-1.55.852 0 1.548.698 1.548 1.55a1.548 1.548 0 1 1-3.096 0m-116.184.984c0-.852.688-1.55 1.548-1.55a1.549 1.549 0 1 1-1.548 1.55m116.184 3.665c0-.852.69-1.55 1.548-1.55.852 0 1.548.698 1.548 1.55a1.548 1.548 0 1 1-3.096 0m-116.184.984c0-.852.688-1.55 1.548-1.55a1.549 1.549 0 1 1-1.548 1.55m116.184 3.665c0-.852.69-1.55 1.548-1.55.852 0 1.548.698 1.548 1.55a1.548 1.548 0 1 1-3.096 0m-116.184.985c0-.853.688-1.55 1.548-1.55a1.549 1.549 0 1 1-1.548 1.55m116.184 3.665c0-.853.69-1.55 1.548-1.55.852 0 1.548.697 1.548 1.55a1.548 1.548 0 1 1-3.096 0m-116.184.984c0-.853.688-1.55 1.548-1.55a1.549 1.549 0 1 1-1.548 1.55m116.184 3.665c0-.853.69-1.55 1.548-1.55.852 0 1.548.697 1.548 1.55a1.548 1.548 0 1 1-3.096 0m-116.184.984c0-.853.688-1.55 1.548-1.55a1.549 1.549 0 1 1-1.548 1.55m116.184 3.665c0-.853.69-1.55 1.548-1.55.852 0 1.548.697 1.548 1.55a1.548 1.548 0 1 1-3.096 0m-116.184.984c0-.852.688-1.55 1.548-1.55a1.549 1.549 0 1 1-1.548 1.55m116.184 3.665c0-.852.69-1.55 1.548-1.55.852 0 1.548.698 1.548 1.55a1.548 1.548 0 1 1-3.096 0m-116.184.984c0-.852.688-1.55 1.548-1.55a1.549 1.549 0 1 1-1.548 1.55m116.184 3.665c0-.852.69-1.55 1.548-1.55.852 0 1.548.698 1.548 1.55a1.548 1.548 0 1 1-3.096 0m-116.184.984c0-.852.688-1.55 1.548-1.55a1.549 1.549 0 1 1-1.548 1.55m116.184 3.665c0-.852.69-1.55 1.548-1.55.852 0 1.548.698 1.548 1.55a1.548 1.548 0 1 1-3.096 0m-116.184.984c0-.852.688-1.55 1.548-1.55a1.549 1.549 0 1 1-1.548 1.55m116.184 3.665c0-.852.69-1.55 1.548-1.55.852 0 1.548.698 1.548 1.55a1.548 1.548 0 1 1-3.096 0m-116.184.984c0-.852.688-1.55 1.548-1.55a1.549 1.549 0 1 1-1.548 1.55m116.184 3.665c0-.852.69-1.55 1.548-1.55.852 0 1.548.698 1.548 1.55a1.548 1.548 0 1 1-3.096 0m-116.184.984c0-.852.688-1.55 1.548-1.55a1.549 1.549 0 1 1-1.548 1.55m116.184 3.666c0-.853.69-1.55 1.548-1.55.852 0 1.548.697 1.548 1.55a1.548 1.548 0 1 1-3.096 0m-116.184.984c0-.853.688-1.55 1.548-1.55a1.549 1.549 0 1 1-1.548 1.55m116.184 3.665c0-.853.69-1.55 1.548-1.55.852 0 1.548.697 1.548 1.55a1.548 1.548 0 1 1-3.096 0m-116.184.984c0-.853.688-1.55 1.548-1.55a1.549 1.549 0 1 1-1.548 1.55m116.184 3.665c0-.853.69-1.55 1.548-1.55.852 0 1.548.697 1.548 1.55a1.548 1.548 0 1 1-3.096 0m-114.56 1.836a1.54 1.54 0 0 1-.563-2.115c.425-.744 1.369-1 2.111-.566.743.426.992 1.372.566 2.116a1.547 1.547 0 0 1-2.113.565m112.021.527a1.553 1.553 0 0 1 .566-2.115 1.535 1.535 0 0 1 2.112.565 1.54 1.54 0 0 1-.565 2.115 1.544 1.544 0 0 1-2.113-.565m-107.997 1.798a1.551 1.551 0 0 1-.573-2.116c.426-.743 1.378-1 2.113-.573a1.56 1.56 0 0 1 .573 2.123 1.56 1.56 0 0 1-1.346.775c-.264 0-.527-.07-.767-.21m103.974.528a1.548 1.548 0 0 1 .572-2.116 1.538 1.538 0 0 1 2.113.566 1.555 1.555 0 0 1-1.34 2.325c-.533 0-1.059-.28-1.345-.775m-99.957 1.797a1.55 1.55 0 0 1-.566-2.115c.426-.744 1.37-1 2.113-.573.743.434.99 1.379.565 2.123a1.546 1.546 0 0 1-1.338.775c-.264 0-.527-.07-.774-.21m95.94.527a1.54 1.54 0 0 1 .566-2.115 1.535 1.535 0 0 1 2.111.566c.426.743.18 1.689-.564 2.114-.247.14-.51.21-.774.21a1.547 1.547 0 0 1-1.34-.775m-91.916 1.798a1.55 1.55 0 1 1 1.548-2.689c.735.434.99 1.38.565 2.123a1.547 1.547 0 0 1-2.113.566m87.893.527a1.554 1.554 0 0 1 .566-2.116 1.535 1.535 0 0 1 2.111.566c.434.744.18 1.69-.564 2.115a1.544 1.544 0 0 1-2.113-.565m-83.876 1.797a1.555 1.555 0 0 1-.566-2.115c.427-.744 1.378-1 2.114-.566a1.55 1.55 0 0 1 .572 2.116 1.57 1.57 0 0 1-1.346.775 1.57 1.57 0 0 1-.774-.21m79.86.527a1.54 1.54 0 0 1 .565-2.115 1.538 1.538 0 0 1 2.113.566 1.552 1.552 0 0 1-1.34 2.324c-.533 0-1.06-.279-1.338-.775m-75.836 1.798a1.543 1.543 0 0 1-.566-2.115c.426-.744 1.37-1 2.114-.566.735.426.99 1.372.564 2.115a1.546 1.546 0 0 1-2.112.566m71.812.527a1.54 1.54 0 0 1 .565-2.115 1.537 1.537 0 0 1 2.113.565 1.54 1.54 0 0 1-.566 2.115c-.247.14-.51.21-.774.21a1.545 1.545 0 0 1-1.338-.775m-67.788 1.798a1.55 1.55 0 0 1-.573-2.116c.433-.744 1.377-1 2.12-.565a1.55 1.55 0 1 1-.782 2.89 1.54 1.54 0 0 1-.765-.21m63.764.527a1.554 1.554 0 0 1 .565-2.115 1.552 1.552 0 0 1 2.12.566 1.553 1.553 0 0 1-1.346 2.324 1.546 1.546 0 0 1-1.34-.775m-59.748 1.798a1.553 1.553 0 0 1-.564-2.115c.426-.744 1.37-1 2.112-.566a1.54 1.54 0 0 1 .566 2.115 1.547 1.547 0 0 1-1.34.775c-.262 0-.525-.07-.774-.209m55.733.527a1.54 1.54 0 0 1 .564-2.115 1.538 1.538 0 0 1 2.114.565 1.554 1.554 0 0 1-1.34 2.325 1.544 1.544 0 0 1-1.338-.775m-51.708 1.798a1.543 1.543 0 0 1-.566-2.116c.427-.744 1.37-1 2.114-.573.735.434.99 1.38.564 2.123a1.545 1.545 0 0 1-2.112.566m47.684.527a1.546 1.546 0 0 1 .564-2.116 1.537 1.537 0 0 1 2.114.566c.432.736.177 1.69-.566 2.114a1.54 1.54 0 0 1-2.112-.564m-43.668 1.797a1.556 1.556 0 0 1-.565-2.115c.425-.744 1.378-1 2.112-.573a1.56 1.56 0 0 1 .573 2.123 1.558 1.558 0 0 1-1.347.774 1.57 1.57 0 0 1-.773-.209m39.644.527a1.55 1.55 0 0 1 .573-2.115 1.538 1.538 0 0 1 2.112.565 1.552 1.552 0 0 1-1.338 2.325c-.535 0-1.06-.279-1.347-.775m-35.62 1.798a1.54 1.54 0 0 1-.565-2.116c.426-.743 1.37-1 2.112-.573.743.434.998 1.38.566 2.123a1.547 1.547 0 0 1-1.34.775c-.263 0-.525-.07-.773-.21m31.603.528a1.54 1.54 0 0 1 .566-2.116 1.535 1.535 0 0 1 2.112.566c.426.744.178 1.69-.564 2.115-.249.14-.512.21-.774.21a1.545 1.545 0 0 1-1.34-.775m-27.58 1.797a1.542 1.542 0 0 1-.564-2.115c.426-.744 1.37-1 2.105-.566a1.55 1.55 0 0 1 .573 2.116 1.56 1.56 0 0 1-1.347.775c-.255 0-.527-.07-.766-.21m23.556.527a1.553 1.553 0 0 1 .564-2.115 1.548 1.548 0 1 1 1.548 2.68c-.24.14-.51.21-.766.21-.541 0-1.06-.279-1.346-.775m-19.54 1.798a1.556 1.556 0 0 1-.565-2.115c.425-.744 1.378-1 2.113-.566a1.54 1.54 0 0 1 .564 2.115 1.546 1.546 0 0 1-1.338.775c-.264 0-.527-.07-.773-.21m15.515.528a1.55 1.55 0 0 1 .573-2.116 1.537 1.537 0 0 1 2.112.566c.425.736.17 1.69-.565 2.115-.247.14-.51.21-.773.21a1.567 1.567 0 0 1-1.347-.775m-11.492 1.798a1.54 1.54 0 0 1-.564-2.116c.424-.744 1.369-1 2.111-.565a1.548 1.548 0 0 1-1.547 2.68m7.475.527a1.554 1.554 0 0 1 .566-2.115 1.542 1.542 0 0 1 2.112.566 1.54 1.54 0 0 1-.565 2.114 1.544 1.544 0 0 1-2.113-.565m-3.451 1.798a1.55 1.55 0 1 1 1.54-2.689 1.56 1.56 0 0 1 .573 2.123 1.55 1.55 0 0 1-1.346.775c-.264 0-.527-.07-.767-.209"/>
        <path fill="#38D611" d="M257.74 104.402a1.548 1.548 0 0 1 3.095 0c0 .852-.697 1.55-1.548 1.55a1.548 1.548 0 0 1-1.548-1.55M60.386 108.85a1.547 1.547 0 1 1 3.095 0c0 .86-.688 1.55-1.54 1.55a1.55 1.55 0 0 1-1.555-1.55m197.353.193c0-.852.689-1.542 1.548-1.542.851 0 1.548.69 1.548 1.542 0 .86-.697 1.558-1.548 1.558a1.55 1.55 0 0 1-1.548-1.558M60.386 113.5a1.547 1.547 0 1 1 3.095 0c0 .86-.688 1.55-1.54 1.55a1.55 1.55 0 0 1-1.555-1.55m197.353.201c0-.86.689-1.557 1.548-1.557.851 0 1.548.697 1.548 1.557 0 .853-.697 1.542-1.548 1.542-.859 0-1.548-.69-1.548-1.542m-197.353 4.448a1.547 1.547 0 1 1 3.095 0c0 .86-.688 1.55-1.54 1.55a1.55 1.55 0 0 1-1.555-1.55m197.353.194c0-.853.689-1.542 1.548-1.542.851 0 1.548.69 1.548 1.542 0 .86-.697 1.557-1.548 1.557a1.55 1.55 0 0 1-1.548-1.557m-197.353 4.455a1.547 1.547 0 1 1 3.095 0c0 .86-.688 1.55-1.54 1.55a1.55 1.55 0 0 1-1.555-1.55m197.353.201c0-.86.689-1.557 1.548-1.557.851 0 1.548.697 1.548 1.557 0 .853-.697 1.542-1.548 1.542-.859 0-1.548-.69-1.548-1.542m-197.353 4.448a1.547 1.547 0 1 1 3.095 0c0 .86-.688 1.55-1.54 1.55a1.55 1.55 0 0 1-1.555-1.55m197.353.194c0-.853.689-1.542 1.548-1.542.851 0 1.548.69 1.548 1.542 0 .86-.697 1.557-1.548 1.557a1.55 1.55 0 0 1-1.548-1.557m-197.353 4.455a1.547 1.547 0 1 1 3.095 0c0 .86-.688 1.55-1.54 1.55a1.55 1.55 0 0 1-1.555-1.55m197.353.202c0-.86.689-1.558 1.548-1.558.851 0 1.548.698 1.548 1.558 0 .852-.697 1.542-1.548 1.542-.859 0-1.548-.69-1.548-1.542m-197.353 4.447a1.547 1.547 0 1 1 3.095 0c0 .86-.688 1.55-1.54 1.55a1.55 1.55 0 0 1-1.555-1.55m197.353.194c0-.852.689-1.542 1.548-1.542.851 0 1.548.69 1.548 1.542 0 .86-.697 1.558-1.548 1.558a1.55 1.55 0 0 1-1.548-1.558m-197.353 4.455a1.547 1.547 0 1 1 3.095 0c0 .86-.688 1.55-1.54 1.55a1.55 1.55 0 0 1-1.555-1.55m197.353.202c0-.86.689-1.558 1.548-1.558.851 0 1.548.698 1.548 1.558 0 .852-.697 1.542-1.548 1.542-.859 0-1.548-.69-1.548-1.542m-197.353 4.448a1.547 1.547 0 1 1 3.095 0c0 .86-.688 1.55-1.54 1.55a1.55 1.55 0 0 1-1.555-1.55m197.353.193c0-.852.689-1.542 1.548-1.542.851 0 1.548.69 1.548 1.542 0 .86-.697 1.558-1.548 1.558a1.55 1.55 0 0 1-1.548-1.558m-.449 5.06a1.561 1.561 0 0 1 .558-2.123 1.546 1.546 0 0 1 2.12.558c.426.736.177 1.69-.557 2.114-.248.148-.511.218-.783.218-.533 0-1.043-.28-1.338-.767m-196.114.728a1.547 1.547 0 0 1-.565-2.116 1.548 1.548 0 1 1 1.339 2.325c-.264 0-.527-.062-.774-.209m192.106 1.62a1.561 1.561 0 0 1 .557-2.123 1.545 1.545 0 0 1 2.12.558 1.554 1.554 0 0 1-1.338 2.332 1.562 1.562 0 0 1-1.339-.767m-188.09.713a1.554 1.554 0 0 1-.565-2.116c.433-.743 1.377-1 2.12-.565.736.426.99 1.371.565 2.115a1.557 1.557 0 0 1-1.346.775c-.263 0-.526-.07-.774-.21m184.081 1.627a1.564 1.564 0 0 1 .557-2.122 1.56 1.56 0 0 1 2.12.558 1.563 1.563 0 0 1-.556 2.123 1.6 1.6 0 0 1-.782.21 1.537 1.537 0 0 1-1.339-.769m-180.057.705a1.55 1.55 0 0 1-.566-2.122 1.544 1.544 0 0 1 2.114-.566c.735.427.99 1.38.564 2.116a1.528 1.528 0 0 1-1.338.775 1.53 1.53 0 0 1-.774-.203m176.049 1.644a1.564 1.564 0 0 1 .557-2.124 1.554 1.554 0 0 1 2.12.559 1.554 1.554 0 0 1-1.34 2.332c-.532 0-1.05-.28-1.337-.767m-172.034.68a1.547 1.547 0 0 1-.564-2.114c.426-.744 1.378-1 2.112-.565.743.425.991 1.371.566 2.115a1.545 1.545 0 0 1-2.114.565m168.025 1.667a1.548 1.548 0 0 1 .558-2.124 1.546 1.546 0 0 1 2.12.558 1.555 1.555 0 0 1-1.339 2.333 1.553 1.553 0 0 1-1.339-.767m-164.008.657a1.547 1.547 0 1 1 1.548-2.68 1.55 1.55 0 0 1 .573 2.116 1.567 1.567 0 0 1-1.347.774c-.263 0-.526-.062-.774-.21m160 1.682a1.549 1.549 0 0 1 .557-2.122 1.544 1.544 0 0 1 2.113.565 1.546 1.546 0 0 1-.55 2.116c-.248.147-.518.209-.781.209a1.537 1.537 0 0 1-1.339-.768m-155.976.652a1.543 1.543 0 0 1-.565-2.116c.425-.744 1.37-1 2.113-.565.735.426.99 1.371.564 2.115a1.546 1.546 0 0 1-2.112.566m151.967 1.696a1.55 1.55 0 0 1 .558-2.123 1.543 1.543 0 0 1 2.112.558c.434.736.185 1.69-.55 2.123a1.554 1.554 0 0 1-2.12-.557m-147.951.627a1.547 1.547 0 0 1-.564-2.115 1.55 1.55 0 0 1 2.112-.566c.742.426.998 1.38.565 2.115a1.547 1.547 0 0 1-2.113.566m143.943 1.72a1.548 1.548 0 0 1 .557-2.123 1.536 1.536 0 0 1 2.112.557 1.545 1.545 0 0 1-.55 2.116 1.534 1.534 0 0 1-.78.217 1.553 1.553 0 0 1-1.34-.767m-139.925.612a1.558 1.558 0 0 1-.566-2.115c.427-.744 1.378-1 2.121-.566.735.427.99 1.372.557 2.116a1.535 1.535 0 0 1-1.338.775 1.57 1.57 0 0 1-.774-.21m135.917 1.728a1.54 1.54 0 0 1 .558-2.115 1.535 1.535 0 0 1 2.112.558 1.541 1.541 0 0 1-.557 2.115c-.24.147-.51.216-.774.216a1.545 1.545 0 0 1-1.34-.774m-131.892.597a1.54 1.54 0 0 1-.565-2.115 1.542 1.542 0 0 1 2.113-.566 1.549 1.549 0 0 1-1.548 2.68m127.885 1.752a1.55 1.55 0 0 1 .557-2.123 1.549 1.549 0 1 1 .78 2.89 1.539 1.539 0 0 1-1.337-.767m-123.87.581a1.556 1.556 0 0 1-.564-2.123 1.54 1.54 0 0 1 2.112-.558 1.54 1.54 0 0 1 .566 2.116 1.545 1.545 0 0 1-1.34.774c-.262 0-.525-.07-.774-.209m119.861 1.767a1.548 1.548 0 0 1 .558-2.123 1.54 1.54 0 0 1 2.111.558c.435.736.187 1.689-.556 2.115-.24.147-.511.217-.774.217a1.554 1.554 0 0 1-1.339-.767m-115.844.558a1.554 1.554 0 0 1-.565-2.116 1.554 1.554 0 0 1 2.12-.565c.736.426.991 1.38.566 2.115a1.569 1.569 0 0 1-1.347.775c-.263 0-.526-.062-.774-.21m4.024 2.333a1.542 1.542 0 0 1-.565-2.115c.425-.744 1.37-1 2.113-.566a1.55 1.55 0 1 1-.782 2.89 1.52 1.52 0 0 1-.766-.209m107.811-.55a1.54 1.54 0 0 1 .558-2.115 1.537 1.537 0 0 1 2.113.558 1.541 1.541 0 0 1-.557 2.115c-.241.147-.511.217-.774.217a1.546 1.546 0 0 1-1.34-.775m-103.794 2.875a1.54 1.54 0 0 1-.565-2.116 1.55 1.55 0 0 1 2.112-.565 1.548 1.548 0 0 1-.774 2.89c-.263 0-.534-.062-.773-.21m99.786-.526a1.55 1.55 0 0 1 .557-2.123 1.552 1.552 0 0 1 2.113.557c.434.744.177 1.69-.557 2.124-.24.14-.51.209-.782.209a1.536 1.536 0 0 1-1.33-.767m-95.771 2.859a1.555 1.555 0 0 1-.565-2.115 1.54 1.54 0 0 1 2.112-.567 1.54 1.54 0 0 1 .565 2.116 1.546 1.546 0 0 1-1.338.775c-.264 0-.527-.07-.774-.209m91.762-.511a1.553 1.553 0 0 1 .55-2.124 1.548 1.548 0 0 1 1.563 2.674 1.51 1.51 0 0 1-.782.216 1.55 1.55 0 0 1-1.331-.766m-87.747 2.836a1.55 1.55 0 1 1 1.556-2.682c.735.427.99 1.38.565 2.124a1.556 1.556 0 0 1-2.12.558m83.737-.49a1.553 1.553 0 0 1 .55-2.122 1.545 1.545 0 0 1 2.12.558 1.547 1.547 0 0 1-.557 2.115c-.248.148-.51.218-.782.218a1.551 1.551 0 0 1-1.331-.768m-79.713 2.82a1.55 1.55 0 0 1-.565-2.114c.426-.744 1.377-1 2.113-.575.743.435.99 1.38.565 2.124a1.545 1.545 0 0 1-2.113.566m75.705-.48a1.544 1.544 0 0 1 .55-2.117 1.55 1.55 0 0 1 2.12.55c.432.744.177 1.69-.557 2.124-.248.148-.511.21-.774.21a1.537 1.537 0 0 1-1.34-.768m-71.688 2.805a1.553 1.553 0 0 1-.565-2.115 1.544 1.544 0 0 1 2.113-.566c.743.427.998 1.379.565 2.116a1.546 1.546 0 0 1-2.113.565m67.672-.457a1.562 1.562 0 0 1 .558-2.123 1.557 1.557 0 0 1 2.12.558 1.55 1.55 0 0 1-1.339 2.332c-.534 0-1.044-.27-1.34-.767m-63.648 2.79a1.549 1.549 0 0 1-.564-2.123 1.539 1.539 0 0 1 2.112-.558c.735.426.991 1.37.566 2.114a1.544 1.544 0 0 1-2.114.567m59.641-.443a1.562 1.562 0 0 1 .557-2.122 1.553 1.553 0 0 1 2.12.558c.426.736.179 1.689-.556 2.114a1.522 1.522 0 0 1-.782.218c-.534 0-1.046-.28-1.339-.768m-55.624 2.767a1.547 1.547 0 0 1-.564-2.116 1.544 1.544 0 0 1 2.112-.565c.743.433.998 1.38.565 2.115a1.543 1.543 0 0 1-1.339.775 1.47 1.47 0 0 1-.774-.209m51.616-.426a1.552 1.552 0 0 1 2.677-1.566c.426.744.177 1.69-.557 2.124a1.556 1.556 0 0 1-2.12-.558m-47.6 2.759a1.555 1.555 0 0 1-.564-2.116c.425-.744 1.377-1 2.12-.565.735.425.99 1.371.557 2.115a1.545 1.545 0 0 1-2.112.566m43.59-.411a1.563 1.563 0 0 1 .557-2.123 1.558 1.558 0 0 1 2.12.558 1.562 1.562 0 0 1-.557 2.123c-.247.14-.518.209-.781.209a1.546 1.546 0 0 1-1.339-.767m-39.567 2.735a1.548 1.548 0 0 1-.572-2.115 1.56 1.56 0 0 1 2.12-.566c.735.426.99 1.38.565 2.116a1.53 1.53 0 0 1-1.34.774c-.262 0-.532-.062-.773-.209m35.559-.387a1.564 1.564 0 0 1 .556-2.124 1.554 1.554 0 0 1 2.121.559 1.554 1.554 0 0 1-1.339 2.332c-.534 0-1.045-.28-1.338-.767m-31.542 2.719a1.548 1.548 0 0 1-.566-2.115 1.54 1.54 0 0 1 2.114-.566c.742.427.99 1.372.564 2.116a1.544 1.544 0 0 1-2.112.565m27.533-.38a1.55 1.55 0 1 1 2.677-1.565c.426.744.178 1.69-.556 2.124a1.519 1.519 0 0 1-.783.208c-.533 0-1.051-.27-1.338-.766m-23.517 2.703a1.545 1.545 0 0 1-.565-2.114 1.554 1.554 0 0 1 2.113-.567c.743.427.997 1.38.572 2.124a1.567 1.567 0 0 1-1.346.767c-.264 0-.526-.062-.774-.21m19.509-.356a1.562 1.562 0 0 1 .557-2.122 1.547 1.547 0 0 1 2.112.557c.434.744.186 1.69-.55 2.124-.247.139-.517.209-.78.209a1.536 1.536 0 0 1-1.34-.768m-15.492 2.69a1.547 1.547 0 0 1-.557-2.116c.426-.744 1.37-1 2.112-.566.736.427.991 1.372.566 2.116a1.545 1.545 0 0 1-2.12.565m11.483-.34a1.549 1.549 0 0 1 .557-2.124 1.55 1.55 0 1 1 .782 2.89 1.554 1.554 0 0 1-1.339-.767m-7.46 2.666a1.54 1.54 0 0 1-.565-2.115 1.547 1.547 0 0 1 2.677 1.55 1.544 1.544 0 0 1-2.112.565m3.452-.326a1.545 1.545 0 0 1 .557-2.115 1.535 1.535 0 0 1 2.112.557c.434.737.185 1.69-.549 2.116a1.448 1.448 0 0 1-.782.209c-.534 0-1.052-.27-1.338-.767"/>
        <g>
            <path fill="#38D611" d="M44.742 114.029l17.017 9.836 17.016-9.836V94.353L61.76 84.517l-17.017 9.836v19.676zm17.017 13.415l-20.112-11.626V92.565l20.112-11.627L81.87 92.565v23.253l-20.11 11.626zM241.185 114.029l17.016 9.836 17.017-9.836V94.353L258.2 84.517l-17.016 9.836v19.676zm17.016 13.415l-20.112-11.626V92.565l20.112-11.627 20.112 11.627v23.253l-20.112 11.626z"/>
            <path fill="#FA0171" d="M161.772 160.022l-3.095-.029.426-45.2L197.883 92l1.567 2.673-37.27 21.903z"/>
            <path fill="#FA0171" d="M159.871 117.028l-38.859-22.347 1.542-2.688 38.858 22.347z"/>
            <path fill="#FA0171" d="M123.331 136.89l36.894 21.328 36.894-21.328V94.232l-36.894-21.329-36.894 21.329v42.658zm36.894 24.907l-39.99-23.118V92.443l39.99-23.119 39.99 23.12v46.235l-39.99 23.118z"/>
        </g>
        <g>
            <path fill="#38D611" d="M61.76 97.807c-3.517 0-6.377 2.863-6.377 6.384 0 3.52 2.86 6.384 6.376 6.384 3.516 0 6.376-2.863 6.376-6.384 0-3.52-2.86-6.384-6.376-6.384m0 13.543c-3.942 0-7.15-3.21-7.15-7.159 0-3.947 3.208-7.16 7.15-7.16 3.943 0 7.15 3.213 7.15 7.16 0 3.948-3.207 7.16-7.15 7.16M259.219 97.807c-3.516 0-6.377 2.863-6.377 6.384 0 3.52 2.86 6.384 6.377 6.384 3.516 0 6.376-2.863 6.376-6.384 0-3.52-2.86-6.384-6.376-6.384m0 13.543c-3.943 0-7.15-3.21-7.15-7.159 0-3.947 3.207-7.16 7.15-7.16 3.943 0 7.15 3.213 7.15 7.16 0 3.948-3.207 7.16-7.15 7.16"/>
            <path fill="#FA0171" d="M103.323 77.314c-3.516 0-6.376 2.864-6.376 6.385 0 3.52 2.86 6.384 6.376 6.384 3.516 0 6.376-2.864 6.376-6.384 0-3.521-2.86-6.385-6.376-6.385m0 13.543c-3.943 0-7.15-3.21-7.15-7.158 0-3.947 3.207-7.16 7.15-7.16 3.943 0 7.15 3.213 7.15 7.16 0 3.948-3.207 7.158-7.15 7.158M160.256 41.885c-3.516 0-6.376 2.864-6.376 6.385s2.86 6.385 6.376 6.385c3.517 0 6.377-2.864 6.377-6.385 0-3.52-2.86-6.385-6.377-6.385m0 13.545c-3.942 0-7.15-3.212-7.15-7.16 0-3.947 3.208-7.16 7.15-7.16 3.943 0 7.15 3.213 7.15 7.16 0 3.948-3.207 7.16-7.15 7.16M219.014 74.753c-3.516 0-6.377 2.864-6.377 6.385 0 3.52 2.86 6.385 6.377 6.385 3.515 0 6.376-2.864 6.376-6.385s-2.86-6.385-6.376-6.385m0 13.545c-3.943 0-7.15-3.212-7.15-7.16 0-3.947 3.207-7.16 7.15-7.16 3.943 0 7.15 3.213 7.15 7.16 0 3.948-3.207 7.16-7.15 7.16M218.173 143.71c-3.517 0-6.377 2.864-6.377 6.385 0 3.52 2.86 6.384 6.377 6.384 3.515 0 6.376-2.864 6.376-6.384 0-3.521-2.86-6.385-6.376-6.385m0 13.544c-3.943 0-7.15-3.211-7.15-7.16 0-3.946 3.207-7.159 7.15-7.159 3.943 0 7.15 3.213 7.15 7.16 0 3.948-3.207 7.159-7.15 7.159M102.94 143.71c-3.517 0-6.377 2.864-6.377 6.385 0 3.52 2.86 6.384 6.376 6.384 3.517 0 6.377-2.864 6.377-6.384 0-3.521-2.86-6.385-6.377-6.385m0 13.544c-3.943 0-7.15-3.211-7.15-7.16 0-3.946 3.207-7.159 7.15-7.159 3.943 0 7.15 3.213 7.15 7.16 0 3.948-3.207 7.159-7.15 7.159M159.523 178.035c-3.517 0-6.377 2.864-6.377 6.385 0 3.52 2.86 6.384 6.377 6.384 3.516 0 6.376-2.864 6.376-6.384 0-3.521-2.86-6.385-6.376-6.385m0 13.544c-3.943 0-7.15-3.211-7.15-7.16 0-3.946 3.207-7.159 7.15-7.159 3.942 0 7.15 3.213 7.15 7.16 0 3.948-3.208 7.159-7.15 7.159"/>
            <path fill="#38D611" d="M159.523 201.469c-3.517 0-6.377 2.864-6.377 6.385 0 3.52 2.86 6.385 6.377 6.385 3.516 0 6.376-2.864 6.376-6.385s-2.86-6.385-6.376-6.385m0 13.544c-3.943 0-7.15-3.211-7.15-7.16 0-3.946 3.207-7.159 7.15-7.159 3.942 0 7.15 3.213 7.15 7.16 0 3.948-3.208 7.16-7.15 7.16M61.76 144.595c-3.517 0-6.377 2.864-6.377 6.385 0 3.52 2.86 6.385 6.376 6.385 3.516 0 6.376-2.864 6.376-6.385s-2.86-6.385-6.376-6.385m0 13.545c-3.942 0-7.15-3.212-7.15-7.16 0-3.947 3.208-7.16 7.15-7.16 3.943 0 7.15 3.213 7.15 7.16 0 3.948-3.207 7.16-7.15 7.16M257.325 144.485c-3.516 0-6.376 2.864-6.376 6.385 0 3.52 2.86 6.384 6.376 6.384 3.516 0 6.376-2.864 6.376-6.384 0-3.521-2.86-6.385-6.376-6.385m0 13.544c-3.943 0-7.15-3.212-7.15-7.16 0-3.947 3.207-7.16 7.15-7.16 3.943 0 7.15 3.213 7.15 7.16 0 3.948-3.207 7.16-7.15 7.16"/>
        </g>
    </g>
</svg>
