<svg id="Layer_1" xmlns="http://www.w3.org/2000/svg" xmlns:xlink="http://www.w3.org/1999/xlink" viewBox="0 0 406 83.9" enable-background="new 0 0 406 83.9"><style>.st1{fill:#fff}.st3{fill:#00152b}</style><title>style-sm-flat-icon-gradient-multiple-color</title><defs><filter id="Adobe_OpacityMaskFilter" filterUnits="userSpaceOnUse" x="33.2" y="20.4" width="44.8" height="42.5"><feColorMatrix values="1 0 0 0 0 0 1 0 0 0 0 0 1 0 0 0 0 0 1 0"/></filter></defs><mask maskUnits="userSpaceOnUse" x="33.2" y="20.4" width="44.8" height="42.5" id="b_2_"><g filter="url(#Adobe_OpacityMaskFilter)"><path id="a_2_" class="st1" d="M33.2 20.4H78v42.5H33.2V20.4z"/></g></mask><path d="M33.2 33.8h3.1c.2 0 .3.1.4.3 1 1.3 2 2.6 2.9 3.9.1.2.3.3.5.3h12l-5.5-17.9h4c.3 0 .6.1.7.4l10.7 17c.2.3.6.5.9.5h11.5c1.8-.1 3.4 1.3 3.5 3.1.1 1.8-1.3 3.4-3.1 3.5h-12c-.3 0-.7.1-.8.4-3.6 5.7-7.1 11.4-10.7 17-.2.3-.5.5-.8.5h-3.9L52.2 45H40.4c-.3 0-.5.1-.7.3-.9 1.3-1.9 2.6-2.9 3.9-.1.1-.3.2-.4.3h-3.1v-.2c0-.1.1-.1.1-.2l2.1-7.2c.1-.2.1-.4 0-.6L34 36.1l-.6-2.1c-.2.1-.2-.2-.2-.2z" mask="url(#b_2_)" fill="#00152b"/><image width="86" height="86" xlink:href="1CD18823E4AC2FB7.png" transform="translate(295 5.94)" overflow="visible" opacity=".75"/><circle class="st3" cx="331.2" cy="41.7" r="27.1"/><circle cx="331.2" cy="41.7" r="27.1" fill="none" stroke="#fff" stroke-miterlimit="10"/><g><defs><filter id="Adobe_OpacityMaskFilter_1_" filterUnits="userSpaceOnUse" x="315.8" y="27" width="30.8" height="29.3"><feColorMatrix values="1 0 0 0 0 0 1 0 0 0 0 0 1 0 0 0 0 0 1 0"/></filter></defs><mask maskUnits="userSpaceOnUse" x="315.8" y="27" width="30.8" height="29.3" id="b_4_"><g filter="url(#Adobe_OpacityMaskFilter_1_)"><path id="a_4_" class="st1" d="M315.8 27h30.8v29.3h-30.8V27z"/></g></mask><path d="M315.8 36.3h2.1c.1 0 .2.1.3.2.7.9 1.3 1.8 2 2.7.1.1.2.2.4.2h8.2L325 27h2.8c.2 0 .4.1.5.3l7.3 11.7c.1.2.4.4.6.3h7.9c1.3-.1 2.4.9 2.4 2.2.1 1.3-.9 2.4-2.2 2.4H336c-.2 0-.4.1-.6.3-2.4 3.9-4.9 7.8-7.3 11.7-.1.2-.3.3-.6.3H325l3.8-12.3h-8.2c-.2 0-.4.1-.5.2-.6.9-1.3 1.8-2 2.7-.1.1-.2.2-.3.2h-2.1v-.1l.1-.1c.5-1.7 1-3.3 1.4-5v-.4l-1-3.6c-.1-.5-.3-.9-.4-1.4v-.1z" mask="url(#b_4_)" fill="#fff"/></g><g><circle class="st3" cx="147.5" cy="41.7" r="30.2"/><defs><filter id="Adobe_OpacityMaskFilter_2_" filterUnits="userSpaceOnUse" x="128.7" y="23.9" width="37.5" height="35.6"><feColorMatrix values="1 0 0 0 0 0 1 0 0 0 0 0 1 0 0 0 0 0 1 0"/></filter></defs><mask maskUnits="userSpaceOnUse" x="128.7" y="23.9" width="37.5" height="35.6" id="b_1_"><g filter="url(#Adobe_OpacityMaskFilter_2_)"><path id="a_1_" class="st1" d="M128.7 23.9h37.5v35.6h-37.5V23.9z"/></g></mask><path d="M128.7 35.1h2.6c.2 0 .3.1.4.2.8 1.1 1.6 2.2 2.5 3.2.1.1.3.2.4.3h10l-4.6-15h3.4c.2 0 .5.1.6.3l8.9 14.3c.2.3.5.5.8.4h9.6c1.5-.1 2.9 1.1 3 2.6.1 1.5-1.1 2.9-2.6 3h-10c-.3 0-.5.1-.7.4-3 4.8-5.9 9.5-8.9 14.2-.1.3-.4.4-.7.4H140l4.7-15h-9.9c-.2 0-.5.1-.6.3-.8 1.1-1.6 2.2-2.4 3.2-.1.1-.2.2-.4.2h-2.6V48s.1-.1.1-.2c.6-2 1.2-4 1.7-6v-.5l-1.2-4.4c-.2-.6-.4-1.1-.5-1.7-.1.1-.2-.1-.2-.1z" mask="url(#b_1_)" fill="#fff"/></g><g><circle cx="239.3" cy="41.7" r="30.2" fill="none" stroke="#00152b" stroke-width="3" stroke-miterlimit="10"/><defs><filter id="Adobe_OpacityMaskFilter_3_" filterUnits="userSpaceOnUse" x="220.6" y="23.9" width="37.5" height="35.6"><feColorMatrix values="1 0 0 0 0 0 1 0 0 0 0 0 1 0 0 0 0 0 1 0"/></filter></defs><mask maskUnits="userSpaceOnUse" x="220.6" y="23.9" width="37.5" height="35.6" id="b_3_"><g filter="url(#Adobe_OpacityMaskFilter_3_)"><path id="a_3_" class="st1" d="M220.6 23.9h37.5v35.6h-37.5V23.9z"/></g></mask><path d="M220.6 35.1h2.6c.2 0 .3.1.4.2.8 1.1 1.6 2.2 2.5 3.2.1.1.3.2.4.3h10l-4.6-15h3.4c.2 0 .5.1.6.3l8.9 14.3c.2.3.5.5.8.4h9.6c1.5-.1 2.9 1.1 3 2.6.1 1.5-1.1 2.9-2.6 3h-10c-.3 0-.5.1-.7.4-3 4.8-5.9 9.5-8.9 14.2-.1.3-.4.4-.7.4H232l4.7-15h-9.9c-.2 0-.5.1-.6.3-.8 1.1-1.6 2.2-2.4 3.2-.1.1-.2.2-.4.2h-2.6V48s.1-.1.1-.2c.6-2 1.2-4 1.7-6v-.5l-1.2-4.4c-.2-.6-.4-1.1-.5-1.7-.3.1-.3-.1-.3-.1z" mask="url(#b_3_)" fill="#00152b"/></g></svg>