<svg data-name="Layer 1" xmlns="http://www.w3.org/2000/svg" viewBox="0 0 203.38 84"><defs><mask id="a" x="115.17" y=".11" width="88.21" height="83.77" maskUnits="userSpaceOnUse"><path d="M115.17.11h88.21v83.77h-88.21z" fill="#fff"/></mask></defs><title>style-sm-flat-icon-solid-color</title><g mask="url(#a)"><path d="M115.17 26.61h6.12a1.17 1.17 0 0 1 .88.52c2 2.53 3.85 5.11 5.77 7.64a1.53 1.53 0 0 0 1 .59h23.55L141.63.12h7.91a1.4 1.4 0 0 1 1.36.73l21 33.56a1.84 1.84 0 0 0 1.86 1h22.64a6.6 6.6 0 0 1 7 6.19 6.59 6.59 0 0 1-6.2 7h-23.69a1.57 1.57 0 0 0-1.57.87q-10.5 16.8-21 33.53a1.65 1.65 0 0 1-1.65.91h-7.66l11-35.21h-23.39a1.42 1.42 0 0 0-1.37.67c-1.85 2.55-3.78 5.07-5.7 7.59a1.32 1.32 0 0 1-.88.53h-6.12v-.39a1.17 1.17 0 0 0 .21-.36q2.06-7.1 4.06-14.2a2.4 2.4 0 0 0 0-1.19l-2.94-10.26c-.39-1.36-.84-2.69-1.26-4.06z" fill="#00152b"/></g><path d="M0 26.57h6.14a1.14 1.14 0 0 1 .86.53c2 2.53 3.86 5.12 5.79 7.65a1.57 1.57 0 0 0 1 .6h23.66L26.53 0h7.94a1.37 1.37 0 0 1 1.36.73L56.89 34.4a1.86 1.86 0 0 0 1.86 1h22.71a6.61 6.61 0 0 1 .77 13.2H58.51a1.57 1.57 0 0 0-1.58.88q-10.51 16.8-21.06 33.6a1.64 1.64 0 0 1-1.65.91h-7.69l11-35.3H14.11a1.44 1.44 0 0 0-1.37.66C10.88 51.91 9 54.44 7 57a1.3 1.3 0 0 1-.88.53H0v-.36a1.13 1.13 0 0 0 .21-.35C1.58 52.05 3 47.28 4.28 42.54a2.19 2.19 0 0 0 0-1.19L1.33 31.07C1 29.7.49 28.36.07 27z" fill="#ff17aa"/></svg>