<svg xmlns="http://www.w3.org/2000/svg" xmlns:xlink="http://www.w3.org/1999/xlink" width="284" height="273" viewBox="0 0 284 273">
    <defs>
        <path id="a" d="M.515 34.713L59.895.238l59.308 34.224-58.831 34.647z"/>
        <linearGradient id="b" x1="0%" x2="100.016%" y1="50.002%" y2="50.002%">
            <stop offset="0%" stop-color="#304A6C"/>
            <stop offset="100%" stop-color="#38D611"/>
        </linearGradient>
        <path id="d" d="M.656 34.604L60.036.129l59.308 34.223L60.51 69z"/>
        <linearGradient id="e" x1="-.143%" y1="49.996%" y2="49.996%">
            <stop offset="0%" stop-color="#304A6C"/>
            <stop offset="100%" stop-color="#FA0171"/>
        </linearGradient>
        <path id="g" d="M.102.33h14.34V14.66H.101z"/>
    </defs>
    <g fill="none" fill-rule="evenodd">
        <g stroke="#00152B" stroke-width=".5" opacity=".2">
            <path d="M81.103 99.155V76.32L61.332 64.903 41.568 76.32v22.835l19.764 11.417z"/>
            <path d="M61.332 110.588v-22.85L41.568 76.32 21.797 64.903V50.008"/>
            <path d="M81.103 76.32L61.332 87.738 41.568 99.155M81.103 99.155L61.332 87.738M120.638 99.147l-19.764 11.418v22.834l19.764 11.418 19.771-11.418v-22.834"/>
            <path d="M100.874 110.565l19.764 11.417v45.933"/>
            <path d="M140.41 110.565l-19.772 11.417-19.764 11.417"/>
            <path d="M120.638 121.982l19.771 11.417 13.587 8.259 6.317 3.842V99.046l19.77-11.417M120.638 99.147V76.313l-19.764-11.418-19.771 11.418v22.834l19.771 11.418z"/>
            <path d="M81.103 99.147l19.771-11.417 19.764-11.417 19.771-10.72V87.73M61.332 133.407v-22.835L41.568 99.155l-19.771 11.417v22.835l19.771 11.417"/>
            <path d="M21.797 95.802l-13.23 7.374 13.23 7.396 19.771 11.418v22.85"/>
            <path d="M61.332 110.572L41.568 121.99l-19.771 11.417v23.518l-19.888 10.99v-22.508M61.332 133.407L41.568 121.99"/>
            <path d="M100.874 133.4v-22.835L81.103 99.147l-19.771 11.418v22.834l19.771 11.418z"/>
            <path d="M61.332 110.565l19.771 11.417v22.85l-19.771 11.96 19.771 11.643 19.771-11.51M100.874 110.565l-19.771 11.417-19.771 11.417M8.567 72.517l13.23-7.614M8.567 118.117v-14.941M81.103 30.923v22.772L61.332 64.903V41.921M120.638 99.147L100.874 87.73V50.008l13.549-7.955M127.482 57.452l12.927 8.142M41.568 167.915l-19.771-10.99M272.314 187.18v-22.835l-19.771-11.417-19.772 11.417v22.835l19.772 11.417z"/>
            <path d="M272.314 164.345l-19.771 11.417-19.772 11.418M252.543 221.432v-22.835L232.77 187.18 213 198.597v22.835l19.771 11.41"/>
            <path d="M199.778 191.192L213 198.597l19.771 11.417v22.843"/>
            <path d="M213 244.166v-22.734l19.771-11.418 19.772-11.417v-22.858M252.543 221.424l-19.772-11.41M199.855 76.22V53.384l19.764-11.418 19.771 11.418v22.834L219.62 87.637z"/>
            <path d="M219.619 87.645V64.802l19.771-11.417 19.772-11.418V27.065"/>
            <path d="M199.855 53.385l19.764 11.417L239.39 76.22M199.855 76.22l19.764-11.418M160.313 76.212l19.77 11.417v22.835l-19.77 11.41-19.764-11.41V87.629"/>
            <path d="M140.549 87.629l19.764 11.417 19.77 11.418M160.313 99.046l-19.764 11.418M160.313 76.212V53.377l19.77-11.417 19.772 11.417v22.835l-19.771 11.417z"/>
            <path d="M199.716 76.212l-19.764-11.418-19.771-11.417-19.772-10.719V65.57M219.619 110.464V87.637l19.771-11.418 19.772 11.418v22.827L239.39 121.88"/>
            <path d="M259.162 72.859l13.222 7.373-13.222 7.405-19.772 11.417v22.843"/>
            <path d="M219.619 87.637l19.771 11.417 19.772 11.41v23.517l19.887 10.999V122.47M219.619 110.464l19.771-11.41"/>
            <path d="M180.084 110.464V87.629l19.771-11.417 19.764 11.417v22.835l-19.764 11.41z"/>
            <path d="M219.619 87.629l-19.764 11.417v22.843l19.764 11.968-19.764 11.643-19.849-11.557"/>
            <path d="M180.084 87.629l19.771 11.417 19.764 11.418M199.855 7.98v22.772l19.764 11.215V18.985M160.313 76.212l19.77-11.418V27.065l-13.547-7.956M153.337 34.516l-12.928 8.142M140.471 202.78v22.835l-19.771 11.41-19.771-11.41v-22.834l19.771-11.418z"/>
            <path d="M120.7 191.348v22.85l-19.771 11.417-19.764 11.41v14.902M140.471 225.615L120.7 214.198l-19.771-11.417M140.471 202.78L120.7 214.199M180.006 202.788l-19.763-11.417v-22.835l19.763-11.417 19.772 11.417v22.835"/>
            <path d="M160.243 191.371l19.763-11.417v-46.011"/>
            <path d="M199.778 191.371l-19.772-11.417-19.763-11.418"/>
            <path d="M180.006 179.954l19.772-11.418 13.587-8.258M180.006 202.788v22.827l-19.763 11.418-19.772-11.418v-22.827l19.772-11.417z"/>
            <path d="M140.471 202.788l19.772 11.418 19.763 11.41 14.837 8.048L213 243.684M120.7 168.528v22.835l-19.771 11.418-19.764-11.418v-22.835"/>
            <path d="M81.165 206.134l-13.23-7.374 13.23-7.397 19.764-11.417v-22.85M120.7 168.528l-19.771 11.418M160.243 168.536v22.835l-19.772 11.417-19.771-11.417v-22.835l19.771-11.417z"/>
            <path d="M120.7 191.371l19.771-11.417v-22.85L120.7 145.142"/>
            <path d="M160.243 191.371l-19.772-11.417-19.771-11.418M67.935 229.418l13.23 7.615M67.935 183.819v14.941M140.471 271.013V248.24L120.7 237.025v22.99M180.006 202.788l-19.763 11.418V251.927l13.548 7.956M232.771 164.345l39.543 22.835"/>
        </g>
        <g fill="#00152B" fill-rule="nonzero" opacity=".3" transform="translate(0 6)">
            <ellipse cx="21.797" cy="42.961" rx="1.901" ry="1.902"/>
            <ellipse cx="7.961" cy="66.517" rx="1.901" ry="1.902"/>
            <ellipse cx="21.797" cy="58.903" rx="1.901" ry="1.902"/>
            <ellipse cx="41.335" cy="70.32" rx="1.901" ry="1.902"/>
            <ellipse cx="61.347" cy="81.629" rx="1.901" ry="1.902"/>
            <ellipse cx="100.882" cy="81.629" rx="1.901" ry="1.902"/>
            <ellipse cx="61.347" cy="58.903" rx="1.901" ry="1.902"/>
            <ellipse cx="61.347" cy="36.053" rx="1.901" ry="1.902"/>
            <ellipse cx="81.103" cy="24.923" rx="1.901" ry="1.902"/>
            <ellipse cx="81.103" cy="47.618" rx="1.901" ry="1.902"/>
            <ellipse cx="81.103" cy="70.32" rx="1.901" ry="1.902"/>
            <ellipse cx="81.103" cy="93.046" rx="1.901" ry="1.902"/>
            <ellipse cx="61.347" cy="104.588" rx="1.901" ry="1.902"/>
            <ellipse cx="61.332" cy="127.547" rx="1.901" ry="1.902"/>
            <ellipse cx="41.335" cy="116.005" rx="1.901" ry="1.902"/>
            <ellipse cx="41.188" cy="138.817" rx="1.901" ry="1.902"/>
            <ellipse cx="21.797" cy="127.399" rx="1.901" ry="1.902"/>
            <ellipse cx="21.797" cy="150.925" rx="1.901" ry="1.902"/>
            <ellipse cx="40.939" cy="161.628" rx="1.901" ry="1.902"/>
            <ellipse cx="1.909" cy="161.628" rx="1.901" ry="1.902"/>
            <ellipse cx="1.909" cy="139.896" rx="1.901" ry="1.902"/>
            <ellipse cx="81.103" cy="116.005" rx="1.901" ry="1.902"/>
            <ellipse cx="81.165" cy="138.817" rx="1.901" ry="1.902"/>
            <ellipse cx="100.874" cy="127.547" rx="1.901" ry="1.902"/>
            <ellipse cx="61.347" cy="150.925" rx="1.901" ry="1.902"/>
            <ellipse cx="100.882" cy="59.175" rx="1.901" ry="1.902"/>
            <ellipse cx="100.936" cy="44.008" rx="1.901" ry="1.902"/>
            <ellipse cx="114.345" cy="36.053" rx="1.901" ry="1.902"/>
            <ellipse cx="120.638" cy="70.592" rx="1.901" ry="1.902"/>
            <ellipse cx="127.482" cy="51.529" rx="1.901" ry="1.902"/>
            <ellipse cx="140.409" cy="59.594" rx="1.901" ry="1.902"/>
            <ellipse cx="140.409" cy="36.658" rx="1.901" ry="1.902"/>
            <ellipse cx="153.337" cy="28.516" rx="1.901" ry="1.902"/>
            <ellipse cx="160.313" cy="47.385" rx="1.901" ry="1.902"/>
            <ellipse cx="160.313" cy="70.32" rx="1.901" ry="1.902"/>
            <ellipse cx="199.716" cy="70.212" rx="1.901" ry="1.902"/>
            <ellipse cx="180.006" cy="59.283" rx="1.901" ry="1.902"/>
            <ellipse cx="180.084" cy="81.629" rx="1.901" ry="1.902"/>
            <ellipse cx="180.154" cy="104.332" rx="1.901" ry="1.902"/>
            <ellipse cx="219.557" cy="104.223" rx="1.901" ry="1.902"/>
            <ellipse cx="239.39" cy="93.054" rx="1.901" ry="1.902"/>
            <ellipse cx="239.39" cy="115.982" rx="1.901" ry="1.902"/>
            <ellipse cx="219.557" cy="127.943" rx="1.901" ry="1.902"/>
            <ellipse cx="200.329" cy="139.143" rx="1.901" ry="1.902"/>
            <ellipse cx="180.154" cy="128.463" rx="1.901" ry="1.902"/>
            <ellipse cx="180.006" cy="151.119" rx="1.901" ry="1.902"/>
            <ellipse cx="199.778" cy="162.536" rx="1.901" ry="1.902"/>
            <ellipse cx="160.313" cy="162.87" rx="1.901" ry="1.902"/>
            <ellipse cx="213.008" cy="154.278" rx="1.901" ry="1.902"/>
            <ellipse cx="259.162" cy="104.332" rx="1.901" ry="1.902"/>
            <ellipse cx="279.049" cy="116.898" rx="1.901" ry="1.902"/>
            <ellipse cx="279.049" cy="138.817" rx="1.901" ry="1.902"/>
            <ellipse cx="259.162" cy="127.943" rx="1.901" ry="1.902"/>
            <ellipse cx="199.848" cy="93.295" rx="1.901" ry="1.902"/>
            <ellipse cx="199.917" cy="115.64" rx="1.901" ry="1.902"/>
            <ellipse cx="199.855" cy="47.618" rx="1.901" ry="1.902"/>
            <ellipse cx="180.084" cy="36.053" rx="1.901" ry="1.902"/>
            <ellipse cx="238.847" cy="70.165" rx="1.901" ry="1.902"/>
            <ellipse cx="219.138" cy="59.237" rx="1.901" ry="1.902"/>
            <ellipse cx="219.619" cy="81.582" rx="1.901" ry="1.902"/>
            <ellipse cx="252.481" cy="170.003" rx="1.901" ry="1.902"/>
            <ellipse cx="272.314" cy="158.826" rx="1.901" ry="1.902"/>
            <ellipse cx="272.314" cy="180.986" rx="1.901" ry="1.902"/>
            <ellipse cx="252.481" cy="192.162" rx="1.901" ry="1.902"/>
            <ellipse cx="232.771" cy="159.075" rx="1.901" ry="1.902"/>
            <ellipse cx="232.841" cy="181.413" rx="1.901" ry="1.902"/>
            <ellipse cx="232.717" cy="204.1" rx="1.901" ry="1.902"/>
            <ellipse cx="252.481" cy="214.927" rx="1.901" ry="1.902"/>
            <ellipse cx="232.717" cy="226.267" rx="1.901" ry="1.902"/>
            <ellipse cx="213.008" cy="193.171" rx="1.901" ry="1.902"/>
            <ellipse cx="180.006" cy="173.946" rx="1.901" ry="1.902"/>
            <ellipse cx="160.313" cy="185.192" rx="1.901" ry="1.902"/>
            <ellipse cx="199.778" cy="185.371" rx="1.901" ry="1.902"/>
            <ellipse cx="213.078" cy="215.517" rx="1.901" ry="1.902"/>
            <ellipse cx="180.053" cy="196.75" rx="1.901" ry="1.902"/>
            <ellipse cx="160.289" cy="207.911" rx="1.901" ry="1.902"/>
            <ellipse cx="180.053" cy="219.514" rx="1.901" ry="1.902"/>
            <ellipse cx="160.289" cy="230.854" rx="1.901" ry="1.902"/>
            <ellipse cx="160.289" cy="245.927" rx="1.901" ry="1.902"/>
            <ellipse cx="140.471" cy="265.013" rx="1.901" ry="1.902"/>
            <ellipse cx="140.471" cy="242.132" rx="1.901" ry="1.902"/>
            <ellipse cx="120.7" cy="253.883" rx="1.901" ry="1.902"/>
            <ellipse cx="120.7" cy="230.854" rx="1.901" ry="1.902"/>
            <ellipse cx="100.874" cy="219.514" rx="1.901" ry="1.902"/>
            <ellipse cx="81.165" cy="230.854" rx="1.901" ry="1.902"/>
            <ellipse cx="81.103" cy="245.927" rx="1.901" ry="1.902"/>
            <ellipse cx="67.935" cy="223.418" rx="1.901" ry="1.902"/>
            <ellipse cx="173.869" cy="253.883" rx="1.901" ry="1.902"/>
            <ellipse cx="140.58" cy="197.766" rx="1.901" ry="1.902"/>
            <ellipse cx="120.638" cy="208.206" rx="1.901" ry="1.902"/>
            <ellipse cx="100.929" cy="196.75" rx="1.901" ry="1.902"/>
            <ellipse cx="120.7" cy="185.371" rx="1.901" ry="1.902"/>
            <ellipse cx="140.409" cy="173.946" rx="1.901" ry="1.902"/>
            <ellipse cx="140.409" cy="151.119" rx="1.901" ry="1.902"/>
            <ellipse cx="120.638" cy="162.536" rx="1.901" ry="1.902"/>
            <ellipse cx="100.929" cy="173.946" rx="1.901" ry="1.902"/>
            <ellipse cx="81.165" cy="185.348" rx="1.901" ry="1.902"/>
            <ellipse cx="81.165" cy="162.435" rx="1.901" ry="1.902"/>
            <ellipse cx="100.874" cy="151.096" rx="1.901" ry="1.902"/>
            <ellipse cx="67.935" cy="192.597" rx="1.901" ry="1.902"/>
            <ellipse cx="67.935" cy="177.819" rx="1.901" ry="1.902"/>
            <ellipse cx="81.103" cy="200.134" rx="1.901" ry="1.902"/>
            <ellipse cx="140.65" cy="220.104" rx="1.901" ry="1.902"/>
            <ellipse cx="213.078" cy="237.684" rx="1.901" ry="1.902"/>
            <ellipse cx="252.55" cy="147.362" rx="1.901" ry="1.902"/>
            <ellipse cx="238.979" cy="47.579" rx="1.901" ry="1.902"/>
            <ellipse cx="259.162" cy="21.065" rx="1.901" ry="1.902"/>
            <ellipse cx="219.619" cy="35.96" rx="1.901" ry="1.902"/>
            <ellipse cx="259.162" cy="35.96" rx="1.901" ry="1.902"/>
            <ellipse cx="259.938" cy="67.301" rx="1.901" ry="1.902"/>
            <ellipse cx="272.384" cy="74.124" rx="1.901" ry="1.902"/>
            <ellipse cx="259.162" cy="81.582" rx="1.901" ry="1.902"/>
            <ellipse cx="219.619" cy="13.109" rx="1.901" ry="1.902"/>
            <ellipse cx="199.855" cy="2.36" rx="1.901" ry="1.902"/>
            <ellipse cx="199.855" cy="24.713" rx="1.901" ry="1.902"/>
            <ellipse cx="180.006" cy="21.065" rx="1.901" ry="1.902"/>
            <ellipse cx="166.885" cy="13.109" rx="1.901" ry="1.902"/>
            <ellipse cx="120.638" cy="93.318" rx="1.901" ry="1.902"/>
            <ellipse cx="100.882" cy="104.86" rx="1.901" ry="1.902"/>
            <ellipse cx="120.7" cy="115.866" rx="1.901" ry="1.902"/>
            <ellipse cx="120.754" cy="138.677" rx="1.901" ry="1.902"/>
            <ellipse cx="140.464" cy="127.407" rx="1.901" ry="1.902"/>
            <ellipse cx="160.313" cy="139.143" rx="1.901" ry="1.902"/>
            <ellipse cx="140.471" cy="104.72" rx="1.901" ry="1.902"/>
            <ellipse cx="160.313" cy="93.046" rx="1.901" ry="1.902"/>
            <ellipse cx="140.549" cy="81.582" rx="1.901" ry="1.902"/>
            <ellipse cx="160.243" cy="115.64" rx="1.901" ry="1.902"/>
            <ellipse cx="41.568" cy="93.171" rx="1.901" ry="1.902"/>
            <ellipse cx="22.262" cy="104.86" rx="1.901" ry="1.902"/>
            <ellipse cx="8.567" cy="97.176" rx="1.901" ry="1.902"/>
            <ellipse cx="8.567" cy="112.117" rx="1.901" ry="1.902"/>
            <ellipse cx="21.797" cy="89.802" rx="1.901" ry="1.902"/>
        </g>
        <g fill="#00152B" fill-rule="nonzero" opacity=".1" transform="translate(3.104 21.523)">
            <ellipse cx="18.576" cy="27.197" rx="4.943" ry="4.944"/>
            <ellipse cx="77.999" cy="31.861" rx="4.943" ry="4.944"/>
            <ellipse cx="124.378" cy="35.835" rx="4.943" ry="4.944"/>
            <ellipse cx="256.058" cy="5.363" rx="4.943" ry="4.944"/>
            <ellipse cx="216.453" cy="20.436" rx="4.943" ry="4.944"/>
            <ellipse cx="176.903" cy="5.72" rx="4.943" ry="4.944"/>
            <ellipse cx="256.058" cy="66.121" rx="4.943" ry="4.944"/>
            <ellipse cx="275.946" cy="123.154" rx="4.943" ry="4.944"/>
            <ellipse cx="269.28" cy="165.462" rx="4.943" ry="4.944"/>
            <ellipse cx="229.613" cy="210.744" rx="4.943" ry="4.944"/>
            <ellipse cx="249.439" cy="131.839" rx="4.943" ry="4.944"/>
            <ellipse cx="157.108" cy="230.404" rx="4.943" ry="4.944"/>
            <ellipse cx="117.596" cy="238.36" rx="4.943" ry="4.944"/>
            <ellipse cx="77.999" cy="215.331" rx="4.943" ry="4.944"/>
            <ellipse cx="197.225" cy="123.293" rx="4.943" ry="4.944"/>
            <ellipse cx="97.77" cy="135.596" rx="4.943" ry="4.944"/>
            <ellipse cx="117.534" cy="77.795" rx="4.943" ry="4.944"/>
            <ellipse cx="5.463" cy="81.652" rx="4.943" ry="4.944"/>
            <ellipse cx="64.831" cy="177.237" rx="4.943" ry="4.944"/>
            <ellipse cx="137.305" cy="158.43" rx="4.943" ry="4.944"/>
            <ellipse cx="18.693" cy="135.402" rx="4.943" ry="4.944"/>
            <ellipse cx="38.084" cy="54.688" rx="4.943" ry="4.944"/>
        </g>
        <g transform="translate(122.601 88.085)">
            <mask id="c" fill="#fff">
                <use xlink:href="#a"/>
            </mask>
            <path fill="url(#b)" d="M.515 34.713L59.895.238l59.308 34.224-58.831 34.647z" mask="url(#c)" opacity=".7"/>
        </g>
        <g transform="translate(41.126 88.085)">
            <mask id="f" fill="#fff">
                <use xlink:href="#d"/>
            </mask>
            <path fill="url(#e)" d="M.656 34.604L60.036.129l59.308 34.223L60.51 69z" mask="url(#f)" opacity=".7"/>
        </g>
        <path fill="#FA0171" d="M82.62 26.112c-3.524 0-6.393 2.867-6.393 6.391s2.869 6.39 6.394 6.39 6.394-2.866 6.394-6.39c0-3.524-2.869-6.39-6.394-6.39m0 13.556c-3.954 0-7.17-3.214-7.17-7.166 0-3.95 3.216-7.166 7.17-7.166 3.953 0 7.17 3.215 7.17 7.166 0 3.952-3.217 7.166-7.17 7.166M114.413 35.075c-3.526 0-6.394 2.867-6.394 6.391s2.868 6.39 6.394 6.39c3.525 0 6.394-2.866 6.394-6.39 0-3.524-2.87-6.39-6.394-6.39m0 13.556c-3.954 0-7.17-3.214-7.17-7.166 0-3.95 3.216-7.166 7.17-7.166 3.953 0 7.17 3.215 7.17 7.166 0 3.952-3.217 7.166-7.17 7.166M23.029 58.702c-3.526 0-6.394 2.867-6.394 6.39 0 3.525 2.868 6.391 6.394 6.391 3.525 0 6.393-2.866 6.393-6.39 0-3.524-2.868-6.39-6.393-6.39m0 13.556c-3.954 0-7.17-3.215-7.17-7.166 0-3.95 3.216-7.166 7.17-7.166 3.953 0 7.17 3.215 7.17 7.166 0 3.951-3.217 7.166-7.17 7.166M23.685 150.804c-3.525 0-6.394 2.866-6.394 6.39 0 3.524 2.869 6.39 6.394 6.39s6.394-2.866 6.394-6.39c0-3.524-2.869-6.39-6.394-6.39m0 13.556c-3.954 0-7.17-3.214-7.17-7.165s3.216-7.167 7.17-7.167c3.953 0 7.17 3.216 7.17 7.167 0 3.951-3.217 7.165-7.17 7.165M81.152 230.248c-3.525 0-6.394 2.867-6.394 6.39 0 3.524 2.87 6.39 6.394 6.39 3.525 0 6.394-2.866 6.394-6.39 0-3.523-2.869-6.39-6.394-6.39m0 13.556c-3.953 0-7.17-3.214-7.17-7.166 0-3.95 3.217-7.165 7.17-7.165 3.954 0 7.17 3.214 7.17 7.165 0 3.952-3.216 7.166-7.17 7.166M160.2 245.311c-3.525 0-6.394 2.867-6.394 6.39 0 3.524 2.869 6.39 6.394 6.39s6.394-2.866 6.394-6.39c0-3.523-2.87-6.39-6.394-6.39m0 13.556c-3.954 0-7.17-3.214-7.17-7.165s3.216-7.167 7.17-7.167c3.953 0 7.17 3.216 7.17 7.167 0 3.951-3.217 7.165-7.17 7.165"/>
        <path fill="#38D611" d="M212.994 237.026c-3.525 0-6.394 2.866-6.394 6.39 0 3.525 2.869 6.391 6.394 6.391s6.394-2.866 6.394-6.39c0-3.525-2.869-6.391-6.394-6.391m0 13.557c-3.954 0-7.17-3.215-7.17-7.166 0-3.951 3.216-7.167 7.17-7.167 3.953 0 7.17 3.216 7.17 7.167 0 3.951-3.217 7.166-7.17 7.166M162.176 207.325c-3.525 0-6.393 2.866-6.393 6.39 0 3.525 2.868 6.391 6.393 6.391 3.526 0 6.394-2.866 6.394-6.39 0-3.525-2.868-6.391-6.394-6.391m0 13.557c-3.953 0-7.17-3.215-7.17-7.166 0-3.951 3.217-7.167 7.17-7.167 3.954 0 7.17 3.216 7.17 7.167 0 3.951-3.216 7.166-7.17 7.166M252.47 169.18c-3.526 0-6.394 2.867-6.394 6.39 0 3.525 2.868 6.391 6.394 6.391 3.525 0 6.393-2.866 6.393-6.39 0-3.524-2.868-6.39-6.393-6.39m0 13.556c-3.954 0-7.17-3.215-7.17-7.167 0-3.95 3.216-7.165 7.17-7.165 3.953 0 7.17 3.215 7.17 7.165 0 3.952-3.217 7.167-7.17 7.167M272.377 73.56c-3.525 0-6.394 2.867-6.394 6.39 0 3.525 2.869 6.391 6.394 6.391s6.394-2.866 6.394-6.39c0-3.524-2.869-6.39-6.394-6.39m0 13.556c-3.954 0-7.17-3.215-7.17-7.166 0-3.951 3.216-7.166 7.17-7.166 3.953 0 7.17 3.215 7.17 7.166 0 3.951-3.217 7.166-7.17 7.166M239.381 69.682c-3.525 0-6.394 2.867-6.394 6.39 0 3.525 2.87 6.391 6.394 6.391 3.526 0 6.394-2.866 6.394-6.39 0-3.524-2.868-6.391-6.394-6.391m0 13.557c-3.953 0-7.17-3.215-7.17-7.166 0-3.951 3.217-7.167 7.17-7.167 3.954 0 7.17 3.216 7.17 7.167 0 3.951-3.216 7.166-7.17 7.166"/>
        <g transform="translate(192.437 .446)">
            <mask id="h" fill="#fff">
                <use xlink:href="#g"/>
            </mask>
            <path fill="#38D611" d="M7.272 1.105c-3.526 0-6.394 2.866-6.394 6.39 0 3.524 2.868 6.39 6.394 6.39 3.525 0 6.393-2.866 6.393-6.39 0-3.524-2.868-6.39-6.393-6.39m0 13.556c-3.954 0-7.17-3.214-7.17-7.165S3.318.329 7.272.329c3.953 0 7.17 3.216 7.17 7.167 0 3.951-3.217 7.165-7.17 7.165" mask="url(#h)"/>
        </g>
        <path fill="#38D611" d="M166.873 11.752c-3.525 0-6.393 2.867-6.393 6.39 0 3.524 2.868 6.39 6.393 6.39 3.526 0 6.394-2.866 6.394-6.39 0-3.523-2.868-6.39-6.394-6.39m0 13.556c-3.953 0-7.17-3.214-7.17-7.166 0-3.95 3.217-7.165 7.17-7.165 3.954 0 7.17 3.214 7.17 7.165 0 3.952-3.216 7.166-7.17 7.166"/>
        <g>
            <path fill="#38D611" d="M181.545 158.962a1.54 1.54 0 0 1-1.498-1.598 1.552 1.552 0 0 1 1.598-1.504 1.557 1.557 0 0 1 1.498 1.605 1.544 1.544 0 0 1-1.544 1.497h-.054zm-.156 4.654a1.552 1.552 0 0 1-1.497-1.606 1.545 1.545 0 0 1 1.598-1.496 1.547 1.547 0 0 1 1.498 1.604 1.544 1.544 0 0 1-1.544 1.498h-.055zm-.155 4.653a1.552 1.552 0 0 1 .109-3.102 1.55 1.55 0 0 1 1.497 1.598 1.557 1.557 0 0 1-1.551 1.504h-.055zm-.155 4.645a1.557 1.557 0 0 1-1.498-1.604 1.553 1.553 0 1 1 3.104.109 1.545 1.545 0 0 1-1.552 1.495h-.054zm-.147 4.654a1.547 1.547 0 0 1-1.498-1.605 1.546 1.546 0 0 1 1.598-1.498 1.552 1.552 0 0 1 1.498 1.607 1.545 1.545 0 0 1-1.552 1.496h-.046zm-.156 4.653a1.556 1.556 0 0 1-1.497-1.605 1.546 1.546 0 0 1 1.598-1.497 1.54 1.54 0 0 1 1.498 1.598 1.55 1.55 0 0 1-1.544 1.504h-.055zm-.155 4.646a1.552 1.552 0 1 1 .054 0h-.054zm-.155 4.653a1.557 1.557 0 0 1-1.498-1.605 1.553 1.553 0 0 1 3.104.109 1.55 1.55 0 0 1-1.552 1.496h-.054zm-.147 4.653a1.563 1.563 0 0 1-1.506-1.604 1.553 1.553 0 0 1 1.606-1.498 1.546 1.546 0 0 1 1.498 1.599 1.556 1.556 0 0 1-1.552 1.503h-.046zm-.156 4.647a1.562 1.562 0 0 1-1.505-1.598 1.553 1.553 0 0 1 1.606-1.497 1.542 1.542 0 0 1 1.498 1.598 1.544 1.544 0 0 1-1.544 1.497h-.055zm-.155 4.653a1.55 1.55 0 0 1-1.497-1.597 1.547 1.547 0 0 1 1.598-1.505 1.564 1.564 0 0 1 1.505 1.605 1.556 1.556 0 0 1-1.551 1.497h-.055zm-4.997 1.597a1.55 1.55 0 0 1 .66-2.093c.76-.396 1.699-.093 2.095.666a1.55 1.55 0 0 1-.668 2.087 1.578 1.578 0 0 1-.714.178 1.55 1.55 0 0 1-1.373-.838zm-4.136 2.142a1.555 1.555 0 0 1 .668-2.095c.76-.395 1.691-.1 2.087.667.396.76.1 1.691-.667 2.087a1.538 1.538 0 0 1-.707.178c-.566 0-1.101-.31-1.38-.837zm-4.136 2.14c-.388-.76-.093-1.7.668-2.094.76-.395 1.699-.094 2.095.667.388.76.093 1.69-.668 2.086-.225.124-.473.179-.713.179a1.573 1.573 0 0 1-1.382-.838zm-4.128 2.14c-.395-.76-.1-1.698.66-2.094.76-.395 1.7-.093 2.095.668.388.759.093 1.698-.667 2.086a1.485 1.485 0 0 1-.714.178 1.552 1.552 0 0 1-1.374-.837z"/>
            <path fill="#FA0171" d="M112.888 42.875a1.55 1.55 0 0 1 .559-2.124 1.545 1.545 0 0 1 2.118.55c.435.745.186 1.69-.55 2.125a1.515 1.515 0 0 1-.785.217 1.576 1.576 0 0 1-1.342-.768m-4.012 2.358a1.552 1.552 0 1 1 2.126.55c-.248.148-.52.21-.783.21a1.552 1.552 0 0 1-1.343-.76m-4.011 2.35a1.544 1.544 0 0 1 .55-2.117 1.55 1.55 0 1 1 .784 2.885 1.54 1.54 0 0 1-1.334-.768m-4.02 2.357a1.555 1.555 0 0 1 .551-2.125 1.557 1.557 0 0 1 2.126.56 1.544 1.544 0 0 1-.55 2.116c-.249.148-.52.218-.784.218a1.552 1.552 0 0 1-1.343-.769m-1.536 3.11a1.552 1.552 0 1 1 1.552 1.551c-.854 0-1.552-.69-1.552-1.55m0 4.653a1.552 1.552 0 1 1 3.104 0c0 .86-.691 1.55-1.552 1.56a1.558 1.558 0 0 1-1.552-1.56m0 4.653c0-.852.698-1.551 1.56-1.551a1.55 1.55 0 0 1 1.544 1.551c0 .861-.691 1.551-1.545 1.56a1.56 1.56 0 0 1-1.56-1.56m.009 4.654c0-.853.69-1.552 1.551-1.552.854 0 1.545.7 1.552 1.552 0 .86-.698 1.55-1.552 1.56a1.553 1.553 0 0 1-1.551-1.56m0 4.653a1.552 1.552 0 1 1 3.103 0 1.552 1.552 0 0 1-3.103 0m0 4.653a1.551 1.551 0 1 1 3.102 0 1.551 1.551 0 0 1-3.102 0m0 4.654a1.551 1.551 0 1 1 3.102 0 1.551 1.551 0 0 1-3.102 0m0 4.653a1.551 1.551 0 1 1 3.103 0c0 .861-.69 1.551-1.552 1.56a1.553 1.553 0 0 1-1.551-1.56M21.007 66.158a1.548 1.548 0 1 1 1.56-2.676c.745.434.993 1.38.558 2.117a1.55 1.55 0 0 1-1.342.776c-.264 0-.536-.07-.776-.217m4.02 2.35a1.557 1.557 0 0 1-.56-2.125 1.548 1.548 0 0 1 2.127-.559c.737.435.985 1.38.558 2.118a1.57 1.57 0 0 1-1.342.775c-.271 0-.535-.07-.784-.21m4.02 2.343a1.562 1.562 0 0 1-.559-2.125 1.564 1.564 0 0 1 2.126-.558c.737.433.993 1.38.559 2.125a1.559 1.559 0 0 1-2.126.558m4.027 2.342a1.548 1.548 0 0 1-.559-2.125 1.554 1.554 0 0 1 2.119-.558c.745.434.993 1.38.558 2.125a1.542 1.542 0 0 1-1.342.768c-.264 0-.528-.07-.776-.21m4.02 2.342a1.551 1.551 0 1 1 .776.21c-.264 0-.528-.062-.777-.21m2.243 2.102a1.549 1.549 0 0 1 .21-2.18 1.542 1.542 0 0 1 2.18.203c.55.667.458 1.644-.21 2.187-.287.24-.636.356-.985.356-.442 0-.885-.193-1.195-.566M35.742 80.6a1.549 1.549 0 0 1 .21-2.18 1.546 1.546 0 0 1 2.188.21c.543.66.45 1.636-.21 2.18-.287.24-.636.356-.985.356a1.56 1.56 0 0 1-1.203-.566m-3.585 2.97a1.558 1.558 0 0 1 .21-2.187 1.551 1.551 0 0 1 2.18.209c.551.66.458 1.637-.201 2.18-.295.24-.644.357-.994.357-.442 0-.884-.194-1.195-.559m-3.585 2.963a1.551 1.551 0 0 1 .202-2.187 1.56 1.56 0 0 1 2.188.21c.544.659.45 1.636-.21 2.179-.286.24-.635.356-.985.356-.45 0-.892-.186-1.195-.558m-3.592 2.963a1.549 1.549 0 0 1 .21-2.18 1.542 1.542 0 0 1 2.18.202 1.55 1.55 0 0 1-.202 2.187 1.608 1.608 0 0 1-.993.357c-.443 0-.885-.194-1.195-.566m-3.593 2.962a1.549 1.549 0 0 1 .21-2.179 1.547 1.547 0 0 1 2.188.21 1.55 1.55 0 0 1-1.195 2.536 1.56 1.56 0 0 1-1.203-.567m-3.585 2.97a1.558 1.558 0 0 1 .21-2.186 1.551 1.551 0 0 1 2.18.208c.551.66.458 1.638-.21 2.18-.286.24-.636.357-.985.357-.442 0-.884-.194-1.195-.558m-3.585 2.962a1.55 1.55 0 0 1 .202-2.187 1.56 1.56 0 0 1 2.188.21c.543.659.45 1.636-.21 2.18-.286.24-.636.356-.985.356-.45 0-.892-.186-1.195-.559m-3.592 2.963a1.55 1.55 0 1 1 2.39-1.978 1.55 1.55 0 0 1-.202 2.187 1.604 1.604 0 0 1-.993.357c-.443 0-.885-.194-1.195-.566m-2.507 3.25a1.544 1.544 0 0 1-.527-2.125 1.557 1.557 0 0 1 2.134-.528c.737.45.97 1.396.52 2.132-.288.482-.8.746-1.327.746-.272 0-.551-.07-.8-.225m3.98 2.419a1.555 1.555 0 0 1-.527-2.133 1.554 1.554 0 0 1 2.134-.519c.73.442.97 1.396.52 2.125a1.544 1.544 0 0 1-2.126.527m3.973 2.413a1.556 1.556 0 0 1-.52-2.133 1.56 1.56 0 0 1 2.134-.52c.73.442.97 1.403.52 2.133-.287.48-.8.744-1.327.744-.272 0-.551-.07-.807-.224m3.98 2.412a1.553 1.553 0 0 1 1.614-2.652c.73.449.963 1.403.52 2.132-.294.48-.799.744-1.327.744-.271 0-.55-.07-.807-.224m3.981 2.42a1.56 1.56 0 0 1-.52-2.133 1.551 1.551 0 0 1 2.134-.52c.73.442.962 1.396.52 2.133-.295.473-.8.744-1.327.744-.271 0-.55-.077-.807-.225m3.98 2.412a1.556 1.556 0 0 1-.52-2.132 1.557 1.557 0 0 1 2.135-.52c.73.45.962 1.396.52 2.133a1.556 1.556 0 0 1-2.134.52m3.98 2.42a1.546 1.546 0 0 1-.52-2.134 1.544 1.544 0 0 1 2.134-.52c.73.443.963 1.397.52 2.126-.295.48-.807.752-1.334.752-.272 0-.551-.078-.8-.225m3.981 2.412a1.544 1.544 0 0 1-.52-2.133 1.551 1.551 0 0 1 2.134-.52c.73.443.962 1.397.52 2.133a1.556 1.556 0 0 1-2.134.52m3.98 2.411a1.543 1.543 0 0 1-.527-2.124 1.557 1.557 0 0 1 2.134-.527c.737.45.97 1.403.52 2.133-.287.48-.8.744-1.327.744a1.5 1.5 0 0 1-.8-.226m-.209 3.057a1.547 1.547 0 1 1 3.096-.023 1.543 1.543 0 0 1-1.536 1.558h-.016a1.54 1.54 0 0 1-1.544-1.535m.024 4.646c0-.854.69-1.552 1.544-1.56a1.542 1.542 0 0 1 1.56 1.544 1.544 1.544 0 0 1-1.537 1.558h-.016a1.549 1.549 0 0 1-1.551-1.542m.03 4.653a1.552 1.552 0 1 1 1.568 1.543h-.016c-.853 0-1.544-.69-1.551-1.543m.03 4.661a1.554 1.554 0 0 1 1.545-1.567 1.55 1.55 0 1 1 .016 3.102h-.008a1.547 1.547 0 0 1-1.552-1.535m.03 4.646a1.552 1.552 0 1 1 1.56 1.542h-.007a1.549 1.549 0 0 1-1.552-1.542m.03 4.653a1.55 1.55 0 0 1 1.537-1.56 1.55 1.55 0 1 1 .023 3.102h-.015c-.846 0-1.544-.689-1.544-1.542m.023 4.661c0-.86.69-1.559 1.544-1.567.861 0 1.56.683 1.568 1.544a1.56 1.56 0 0 1-1.545 1.558h-.007a1.554 1.554 0 0 1-1.56-1.535m-15.97 3.855a1.548 1.548 0 0 1-.504-2.133 1.552 1.552 0 0 1 2.134-.513 1.554 1.554 0 1 1-1.63 2.645m16.001.8c0-.861.69-1.56 1.544-1.568.854 0 1.56.684 1.56 1.544a1.539 1.539 0 0 1-1.537 1.559H41.5c-.854 0-1.544-.69-1.552-1.535m-12.027 1.636a1.544 1.544 0 0 1-.512-2.133 1.559 1.559 0 0 1 2.133-.511c.73.45.955 1.41.513 2.14a1.566 1.566 0 0 1-1.327.737c-.28 0-.559-.078-.807-.233m3.965 2.443a1.551 1.551 0 1 1 1.622-2.644c.729.45.962 1.403.512 2.132a1.566 1.566 0 0 1-2.134.512m8.093.566c0-.853.683-1.55 1.544-1.56a1.552 1.552 0 0 1 .016 3.103h-.008c-.854 0-1.544-.69-1.552-1.543m-4.136 1.87a1.548 1.548 0 0 1-.504-2.133 1.552 1.552 0 1 1 .504 2.133m3.965 2.435a1.55 1.55 0 1 1 1.63-2.637c.73.45.962 1.404.512 2.133a1.566 1.566 0 0 1-1.327.736c-.28 0-.559-.077-.815-.232"/>
            <path fill="#38D611" d="M240.06 78.303a1.54 1.54 0 0 1-.567-2.117 1.548 1.548 0 0 1 2.118-.566 1.55 1.55 0 1 1-1.552 2.683m4.027 2.335a1.558 1.558 0 0 1-.566-2.125 1.55 1.55 0 1 1 2.685 1.551 1.54 1.54 0 0 1-2.119.574m4.035 2.327a1.552 1.552 0 0 1-.574-2.119 1.56 1.56 0 0 1 2.126-.573c.737.435.994 1.38.567 2.125a1.56 1.56 0 0 1-1.35.775c-.256 0-.528-.07-.769-.208m4.028 2.326a1.547 1.547 0 0 1-.567-2.118 1.548 1.548 0 0 1 2.119-.565c.744.426.993 1.38.566 2.116a1.548 1.548 0 0 1-2.118.567m4.035 2.327a1.55 1.55 0 0 1-.575-2.118 1.566 1.566 0 0 1 2.127-.566c.737.434.993 1.381.566 2.117a1.544 1.544 0 0 1-1.35.776c-.264 0-.528-.062-.768-.209m1.412 2.047a1.552 1.552 0 1 1 1.552 1.551 1.55 1.55 0 0 1-1.552-1.551m0 4.653a1.552 1.552 0 1 1 1.552 1.551 1.55 1.55 0 0 1-1.552-1.55m0 4.652a1.552 1.552 0 1 1 1.552 1.551 1.55 1.55 0 0 1-1.552-1.55m0 4.653a1.552 1.552 0 1 1 1.552 1.551 1.55 1.55 0 0 1-1.552-1.551m0 4.653a1.552 1.552 0 1 1 1.552 1.551 1.55 1.55 0 0 1-1.552-1.55m-1.831 4.452a1.547 1.547 0 0 1 .38-2.164 1.552 1.552 0 1 1 .892 2.822c-.489 0-.97-.232-1.272-.658m-3.81 2.676a1.555 1.555 0 0 1 2.545-1.784 1.55 1.55 0 0 1-.38 2.155 1.527 1.527 0 0 1-.893.287 1.56 1.56 0 0 1-1.272-.658m-3.803 2.675a1.553 1.553 0 0 1 .373-2.164 1.563 1.563 0 0 1 2.165.38 1.555 1.555 0 0 1-1.273 2.444c-.48 0-.962-.225-1.265-.66m-3.81 2.684a1.546 1.546 0 0 1 .38-2.164 1.546 1.546 0 0 1 2.158.371 1.548 1.548 0 0 1-.38 2.164c-.264.194-.582.28-.885.28-.489 0-.97-.225-1.272-.651m-3.81 2.675a1.56 1.56 0 0 1 .38-2.163 1.545 1.545 0 0 1 2.157.379 1.544 1.544 0 0 1-.373 2.157 1.527 1.527 0 0 1-.892.287c-.489 0-.97-.233-1.272-.66M165.986 19.546a1.563 1.563 0 0 1-.566-2.124 1.566 1.566 0 0 1 2.126-.567c.737.435.993 1.38.567 2.125a1.573 1.573 0 0 1-1.35.776 1.57 1.57 0 0 1-.777-.21m4.035 2.335a1.551 1.551 0 0 1-.566-2.125 1.548 1.548 0 0 1 2.118-.567c.745.435.994 1.38.567 2.125a1.554 1.554 0 0 1-1.35.769c-.264 0-.528-.063-.769-.202m4.028 2.327a1.543 1.543 0 0 1-.567-2.118 1.547 1.547 0 0 1 2.119-.566c.744.427.993 1.38.566 2.117a1.56 1.56 0 0 1-1.35.775c-.256 0-.528-.062-.768-.208m4.027 2.334a1.558 1.558 0 0 1-.567-2.126 1.556 1.556 0 0 1 2.119-.565 1.55 1.55 0 0 1 .566 2.124 1.548 1.548 0 0 1-2.118.567m2.359 1.505c0-.854.69-1.551 1.552-1.551.853 0 1.552.697 1.552 1.55 0 .86-.699 1.552-1.552 1.552a1.547 1.547 0 0 1-1.552-1.551m0 4.653c0-.854.69-1.55 1.552-1.55.853 0 1.552.696 1.552 1.55 0 .86-.699 1.551-1.552 1.551a1.547 1.547 0 0 1-1.552-1.55m0 4.653c0-.861.69-1.552 1.552-1.552a1.551 1.551 0 1 1 0 3.103 1.547 1.547 0 0 1-1.552-1.551m0 4.653c0-.854.69-1.551 1.552-1.551a1.552 1.552 0 0 1 0 3.102 1.547 1.547 0 0 1-1.552-1.551m0 4.653c0-.853.69-1.55 1.552-1.55.853 0 1.552.697 1.552 1.55a1.551 1.551 0 1 1-3.104 0m0 4.654c0-.854.69-1.551 1.552-1.551.853 0 1.552.697 1.552 1.55 0 .86-.699 1.552-1.552 1.552a1.547 1.547 0 0 1-1.552-1.551m0 4.653c0-.854.69-1.55 1.552-1.55.853 0 1.552.696 1.552 1.55 0 .86-.699 1.551-1.552 1.551a1.547 1.547 0 0 1-1.552-1.55m0 4.653c0-.854.69-1.551 1.552-1.551.853 0 1.552.697 1.552 1.55a1.551 1.551 0 1 1-3.104 0m0 4.654c0-.854.69-1.551 1.552-1.551a1.552 1.552 0 0 1 0 3.102 1.547 1.547 0 0 1-1.552-1.55m0 4.652c0-.853.69-1.55 1.552-1.55.853 0 1.552.697 1.552 1.55 0 .86-.699 1.552-1.552 1.552a1.547 1.547 0 0 1-1.552-1.552m0 4.654c0-.854.69-1.551 1.552-1.551.853 0 1.552.697 1.552 1.55 0 .861-.699 1.552-1.552 1.552a1.547 1.547 0 0 1-1.552-1.551m0 4.653c0-.854.69-1.55 1.552-1.55.853 0 1.552.696 1.552 1.55 0 .86-.699 1.551-1.552 1.551a1.547 1.547 0 0 1-1.552-1.55m0 4.653c0-.854.69-1.551 1.552-1.551.853 0 1.552.697 1.552 1.55 0 .86-.699 1.552-1.552 1.552a1.547 1.547 0 0 1-1.552-1.551m0 4.653c0-.854.69-1.551 1.552-1.551a1.552 1.552 0 0 1 0 3.102 1.547 1.547 0 0 1-1.552-1.55"/>
            <path fill="#FA0171" d="M119.336 212.958a1.544 1.544 0 0 1 .45-2.15 1.537 1.537 0 0 1 2.142.451 1.545 1.545 0 0 1-1.296 2.396 1.551 1.551 0 0 1-1.296-.697m-3.903 2.543a1.556 1.556 0 0 1 .45-2.148 1.544 1.544 0 0 1 2.15.45 1.552 1.552 0 0 1-.45 2.148 1.565 1.565 0 0 1-2.15-.45m-3.895 2.544a1.543 1.543 0 0 1 .45-2.148 1.56 1.56 0 0 1 2.149.45 1.554 1.554 0 0 1-.458 2.148c-.256.17-.55.248-.846.248a1.55 1.55 0 0 1-1.295-.698m-3.904 2.544a1.555 1.555 0 1 1 2.607-1.7 1.554 1.554 0 0 1-.457 2.15 1.573 1.573 0 0 1-2.15-.45m-3.895 2.543a1.556 1.556 0 0 1 .45-2.147 1.559 1.559 0 0 1 2.15.45 1.55 1.55 0 0 1-.45 2.147 1.55 1.55 0 0 1-2.15-.45m-3.895 2.544a1.544 1.544 0 0 1 .45-2.147 1.56 1.56 0 0 1 2.15.45 1.556 1.556 0 0 1-1.297 2.404 1.543 1.543 0 0 1-1.303-.707m-3.903 2.545a1.56 1.56 0 0 1 .45-2.15 1.56 1.56 0 0 1 2.15.45 1.544 1.544 0 0 1-.45 2.15 1.53 1.53 0 0 1-.847.256 1.562 1.562 0 0 1-1.303-.706m-3.896 2.544a1.56 1.56 0 0 1 .45-2.15 1.555 1.555 0 0 1 2.15.458 1.55 1.55 0 0 1-1.296 2.397 1.542 1.542 0 0 1-1.304-.705m-3.895 2.543a1.536 1.536 0 0 1 .45-2.14 1.548 1.548 0 1 1 1.692 2.59 1.54 1.54 0 0 1-2.142-.45m-3.903 2.544a1.555 1.555 0 0 1 .458-2.148 1.545 1.545 0 0 1 2.142.458 1.536 1.536 0 0 1-.45 2.14 1.505 1.505 0 0 1-.846.256 1.564 1.564 0 0 1-1.304-.706"/>
            <path fill="#FA0171" d="M101.085 161.374a1.55 1.55 0 1 1 .031-3.102 1.552 1.552 0 0 1-.015 3.102h-.016zm-.038 4.653a1.551 1.551 0 1 1 .016 0h-.016zm17.52 3.538a1.547 1.547 0 0 1 .567-2.118 1.55 1.55 0 1 1 1.552 2.683 1.548 1.548 0 0 1-2.118-.565zM101 170.68a1.55 1.55 0 1 1 .031-3.102 1.547 1.547 0 0 1 1.536 1.567 1.548 1.548 0 0 1-1.551 1.535H101zm13.54 1.21a1.544 1.544 0 0 1 .567-2.118 1.558 1.558 0 0 1 2.118.567c.427.745.179 1.69-.566 2.117a1.551 1.551 0 0 1-2.118-.565zm4.532.31c0-.86.698-1.551 1.552-1.551a1.55 1.55 0 1 1 0 3.102 1.556 1.556 0 0 1-1.552-1.551zm-8.567 2.024a1.556 1.556 0 0 1 2.693-1.558c.427.745.17 1.698-.566 2.125a1.584 1.584 0 0 1-.776.209c-.536 0-1.063-.28-1.35-.776zm-9.544 1.11a1.551 1.551 0 1 1 .008 0h-.008zm5.517 1.225a1.557 1.557 0 0 1 .567-2.125 1.555 1.555 0 0 1 2.118.566c.435.744.179 1.69-.566 2.118-.24.146-.512.208-.776.208a1.54 1.54 0 0 1-1.343-.767zm12.594.294c0-.86.698-1.55 1.552-1.55a1.55 1.55 0 0 1 0 3.102 1.556 1.556 0 0 1-1.552-1.552zm-18.157 3.134a1.551 1.551 0 1 1 1.38-2.287c.11-.38.358-.723.723-.931a1.542 1.542 0 0 1 2.118.565 1.55 1.55 0 0 1-2.685 1.551c-.008-.014-.015-.022-.023-.038a1.548 1.548 0 0 1-1.49 1.14h-.023zm18.157 1.52c0-.86.698-1.551 1.552-1.551a1.55 1.55 0 0 1 0 3.102 1.556 1.556 0 0 1-1.552-1.551zm0 4.653c0-.86.698-1.551 1.552-1.551a1.55 1.55 0 1 1 0 3.102 1.556 1.556 0 0 1-1.552-1.55zm0 4.654c0-.86.698-1.552 1.552-1.552.861 0 1.552.691 1.552 1.552a1.55 1.55 0 0 1-1.552 1.55 1.556 1.556 0 0 1-1.552-1.55zm0 4.653c0-.86.698-1.551 1.552-1.551a1.55 1.55 0 1 1 0 3.102 1.556 1.556 0 0 1-1.552-1.551zm0 4.653c0-.86.698-1.55 1.552-1.55a1.55 1.55 0 0 1 0 3.102 1.556 1.556 0 0 1-1.552-1.552zm0 4.654c0-.86.698-1.551 1.552-1.551a1.55 1.55 0 0 1 0 3.102 1.556 1.556 0 0 1-1.552-1.551zm0 4.653c0-.86.698-1.55 1.552-1.55a1.55 1.55 0 0 1 0 3.102 1.556 1.556 0 0 1-1.552-1.552zm.846 5.957a1.55 1.55 0 0 1-.574-2.118c.434-.744 1.38-1 2.126-.574.737.435.993 1.38.566 2.125a1.551 1.551 0 0 1-2.118.567zm4.035 2.327a1.552 1.552 0 1 1 2.118-.575 1.544 1.544 0 0 1-1.35.776c-.264 0-.528-.062-.768-.2zm4.027 2.318a1.553 1.553 0 0 1-.566-2.117 1.557 1.557 0 0 1 2.118-.566 1.55 1.55 0 0 1 .574 2.117 1.562 1.562 0 0 1-2.126.566zm4.035 2.327a1.555 1.555 0 0 1-.566-2.117c.426-.745 1.373-1 2.118-.567a1.538 1.538 0 0 1 .566 2.118 1.55 1.55 0 0 1-2.118.566zm4.035 2.319a1.552 1.552 0 0 1-.566-2.117 1.555 1.555 0 0 1 2.118-.567 1.542 1.542 0 0 1 .566 2.119 1.551 1.551 0 0 1-2.118.565zm4.035 2.327a1.539 1.539 0 0 1-.567-2.117c.427-.744 1.374-1 2.119-.567a1.551 1.551 0 1 1-1.552 2.683zm4.035 2.326a1.548 1.548 0 0 1-.574-2.116 1.56 1.56 0 0 1 2.126-.575 1.557 1.557 0 0 1-.776 2.901c-.264 0-.536-.07-.776-.21zm4.027 2.327a1.564 1.564 0 0 1-.566-2.125 1.558 1.558 0 0 1 2.118-.566 1.549 1.549 0 0 1 .574 2.117 1.56 1.56 0 0 1-1.35.776c-.264 0-.528-.062-.776-.202zm4.035 2.319a1.553 1.553 0 0 1 1.552-2.69 1.55 1.55 0 0 1 .566 2.124c-.279.497-.807.775-1.342.775-.264 0-.528-.07-.776-.209zm4.035 2.327a1.548 1.548 0 0 1-.566-2.118 1.55 1.55 0 0 1 2.118-.573 1.54 1.54 0 0 1 .566 2.117c-.279.497-.807.775-1.342.775-.264 0-.528-.062-.776-.201zm2.46 1.443c0-.854.69-1.551 1.552-1.551a1.539 1.539 0 0 1 1.552 1.542 1.544 1.544 0 0 1-1.544 1.552h-.008c-.854 0-1.544-.69-1.552-1.543zm.015 4.653c0-.853.691-1.55 1.552-1.55a1.543 1.543 0 0 1 1.552 1.542 1.557 1.557 0 0 1-1.544 1.56 1.558 1.558 0 0 1-1.56-1.552zm.016 4.654c0-.854.69-1.551 1.552-1.551a1.539 1.539 0 0 1 1.552 1.542 1.557 1.557 0 0 1-1.544 1.56 1.558 1.558 0 0 1-1.56-1.551zm.015 4.653c0-.854.691-1.55 1.552-1.55a1.539 1.539 0 0 1 1.552 1.542 1.544 1.544 0 0 1-1.544 1.55h-.008a1.55 1.55 0 0 1-1.552-1.542zM81.958 34.041a1.554 1.554 0 0 1 .062-2.194 1.563 1.563 0 0 1 2.196.07c.59.628.559 1.605-.07 2.194a1.53 1.53 0 0 1-1.055.42c-.419 0-.83-.164-1.133-.49m3.19 3.39a1.554 1.554 0 0 1 .061-2.195 1.563 1.563 0 0 1 2.196.07c.59.628.559 1.605-.07 2.195a1.55 1.55 0 0 1-2.188-.07m3.182 3.397a1.556 1.556 0 0 1 2.266-2.133c.59.628.558 1.613-.07 2.195a1.523 1.523 0 0 1-1.063.426 1.59 1.59 0 0 1-1.133-.488m3.197 3.389a1.55 1.55 0 1 1 2.258-2.125c.59.62.558 1.605-.07 2.187a1.523 1.523 0 0 1-1.063.427 1.591 1.591 0 0 1-1.125-.49m3.181 3.39a1.561 1.561 0 0 1 .07-2.195 1.556 1.556 0 0 1 2.196.07c.59.62.559 1.606-.07 2.195a1.56 1.56 0 0 1-2.196-.07m3.197 3.39a1.554 1.554 0 0 1 .062-2.195 1.563 1.563 0 0 1 2.196.07c.59.628.559 1.605-.07 2.194a1.55 1.55 0 0 1-2.188-.07"/>
            <path fill="#38D611" d="M180.047 206.009a1.562 1.562 0 0 1-1.102-.45 1.54 1.54 0 0 1-.427-1.405c.023-.093.055-.194.093-.287.04-.093.086-.185.14-.264.054-.085.124-.17.194-.24a1.57 1.57 0 0 1 1.397-.427c.1.024.201.055.295.094.093.04.178.086.263.14.086.062.163.124.24.194.07.07.133.154.195.24.054.078.1.17.14.263.038.093.07.194.085.287.023.101.031.21.031.311a1.533 1.533 0 0 1-1.544 1.544M178.487 208.63c0-.854.698-1.551 1.552-1.551a1.55 1.55 0 1 1 0 3.102 1.556 1.556 0 0 1-1.552-1.551m0 4.172c0-.86.698-1.55 1.552-1.55a1.552 1.552 0 1 1-1.552 1.551m0 4.164c0-.854.698-1.55 1.552-1.55a1.55 1.55 0 1 1 0 3.101 1.552 1.552 0 0 1-1.552-1.55m0 4.172c0-.861.698-1.551 1.552-1.551a1.552 1.552 0 1 1-1.552 1.551M180.039 226.863c-.411 0-.8-.163-1.094-.457a1.538 1.538 0 0 1-.427-1.396 1.87 1.87 0 0 1 .093-.296c.039-.092.086-.185.14-.263.054-.085.124-.17.194-.24.07-.07.147-.132.233-.194a1.874 1.874 0 0 1 .558-.233 1.606 1.606 0 0 1 1.405.427c.07.07.132.155.194.24.054.078.1.17.14.263.038.094.07.194.093.296a1.905 1.905 0 0 1 0 .605 1.772 1.772 0 0 1-.233.55 1.544 1.544 0 0 1-1.296.698M183.414 228.934a1.547 1.547 0 0 1-.613-2.102 1.555 1.555 0 0 1 2.111-.612 1.544 1.544 0 0 1 .605 2.11c-.28.51-.807.798-1.358.798-.256 0-.512-.062-.745-.194m4.113 2.272a1.558 1.558 0 0 1-.605-2.11 1.55 1.55 0 1 1 .605 2.11m4.12 2.273a1.553 1.553 0 0 1-.605-2.11 1.548 1.548 0 0 1 2.103-.612 1.548 1.548 0 1 1-.745 2.908c-.256 0-.512-.062-.753-.186m4.12 2.264a1.537 1.537 0 0 1-.605-2.101 1.548 1.548 0 0 1 2.103-.613 1.554 1.554 0 0 1 .613 2.11 1.556 1.556 0 0 1-2.11.604m4.12 2.273a1.554 1.554 0 0 1-.613-2.11 1.555 1.555 0 0 1 2.724 1.497 1.566 1.566 0 0 1-1.366.807c-.248 0-.512-.062-.745-.194m4.12 2.272a1.556 1.556 0 0 1-.613-2.11 1.554 1.554 0 1 1 2.724 1.497 1.559 1.559 0 0 1-1.366.8c-.248 0-.512-.063-.745-.187m4.12 2.265a1.547 1.547 0 0 1-.612-2.102 1.555 1.555 0 0 1 2.11-.613 1.551 1.551 0 0 1-1.497 2.715M212.994 245.02c-.1 0-.202-.01-.303-.032a1.369 1.369 0 0 1-.558-.232 1.105 1.105 0 0 1-.233-.194 1.511 1.511 0 0 1-.427-1.397c.023-.1.047-.2.085-.295.04-.093.094-.177.148-.263a1.36 1.36 0 0 1 .194-.24c.574-.574 1.614-.574 2.188 0 .078.078.14.154.194.24.054.086.109.17.147.263.04.094.07.194.086.295.023.1.03.202.03.303 0 .42-.162.807-.457 1.094-.07.077-.147.14-.233.194a1.304 1.304 0 0 1-.558.232c-.101.023-.202.031-.303.031M272.378 81.693c-.42 0-.807-.163-1.102-.459a1.562 1.562 0 0 1-.334-1.69c.039-.093.086-.187.148-.263a1.39 1.39 0 0 1 .186-.24c.077-.071.155-.133.24-.195a1.72 1.72 0 0 1 .56-.233c.2-.039.403-.039.604 0a1.94 1.94 0 0 1 .559.233c.085.062.163.124.233.194s.14.155.194.24c.054.077.1.17.14.264.046.093.07.193.093.294a1.537 1.537 0 0 1-.427 1.396 1.524 1.524 0 0 1-1.094.459M266.613 83.367a1.549 1.549 0 0 1 .597-2.11 1.549 1.549 0 1 1 1.52 2.7c-.24.14-.503.202-.76.202-.543 0-1.07-.288-1.357-.792m-4.408 2.467a1.547 1.547 0 0 1 .598-2.11 1.549 1.549 0 0 1 2.11.597c.42.745.148 1.691-.597 2.11-.24.132-.497.194-.753.194-.543 0-1.07-.279-1.358-.79M259.148 89.1c-.411 0-.8-.164-1.094-.458a1.535 1.535 0 0 1-.458-1.094c0-.1.015-.202.031-.303a1.707 1.707 0 0 1 .233-.558 1.362 1.362 0 0 1 .427-.427 1.388 1.388 0 0 1 .559-.233c.201-.046.41-.046.604.001a1.325 1.325 0 0 1 .56.233c.084.054.162.116.24.186.287.294.45.69.45 1.101a1.545 1.545 0 0 1-1.552 1.551M181.59 43.535c-.1 0-.2-.008-.302-.031a1.303 1.303 0 0 1-.287-.086 1.097 1.097 0 0 1-.264-.147 1.148 1.148 0 0 1-.24-.194 1.41 1.41 0 0 1-.194-.233 1.672 1.672 0 0 1-.233-.558 1.901 1.901 0 0 1-.031-.303c0-.1.015-.201.031-.303.023-.1.054-.194.093-.286.039-.102.085-.186.14-.271a1.362 1.362 0 0 1 .427-.427c.085-.062.178-.109.271-.148.093-.038.194-.062.287-.085a1.63 1.63 0 0 1 .613 0c.093.023.194.047.287.085.093.04.187.086.264.148.086.054.17.116.24.186.07.078.133.155.195.24.054.086.1.17.14.272.038.092.07.185.092.286.016.102.032.203.032.303 0 .42-.163.807-.458 1.094-.078.078-.155.14-.24.194a1.44 1.44 0 0 1-.55.233 1.36 1.36 0 0 1-.312.03M184.423 45.567a1.556 1.556 0 0 1-.496-2.142 1.555 1.555 0 0 1 2.134-.495c.73.45.954 1.403.504 2.133a1.563 1.563 0 0 1-1.32.736c-.278 0-.566-.078-.822-.232m3.655 2.264a1.559 1.559 0 0 1-.504-2.14 1.553 1.553 0 1 1 .504 2.14m3.647 2.265a1.559 1.559 0 0 1-.504-2.14 1.553 1.553 0 0 1 2.141-.498c.73.45.955 1.405.497 2.133a1.543 1.543 0 0 1-2.134.505m3.647 2.257a1.553 1.553 0 0 1 1.637-2.637c.73.457.955 1.411.505 2.14-.295.474-.807.73-1.32.73-.279 0-.566-.07-.822-.233M199.841 54.85a1.538 1.538 0 0 1-1.094-.458 1.536 1.536 0 0 1 0-2.187c.582-.581 1.614-.581 2.188 0 .078.07.14.148.194.233.062.085.11.178.148.271.039.094.07.186.085.287a1.511 1.511 0 0 1-.427 1.396c-.14.148-.31.264-.496.342a1.548 1.548 0 0 1-.598.116M214.259 44.954a1.564 1.564 0 0 1 .566-2.125 1.566 1.566 0 0 1 2.126.565c.427.746.171 1.692-.566 2.125a1.57 1.57 0 0 1-.776.21c-.536 0-1.063-.279-1.35-.775m-3.942 2.28a1.555 1.555 0 1 1 2.693-1.558c.426.744.17 1.69-.567 2.124a1.56 1.56 0 0 1-2.126-.567m-3.934 2.281a1.541 1.541 0 0 1 .566-2.118 1.544 1.544 0 0 1 2.119.567 1.556 1.556 0 0 1-1.343 2.327 1.55 1.55 0 0 1-1.342-.776m-3.942 2.28a1.54 1.54 0 0 1 .566-2.117 1.55 1.55 0 1 1-.566 2.117M219.543 43.441c-.202 0-.404-.038-.59-.116a1.468 1.468 0 0 1-.698-.574 1.444 1.444 0 0 1-.148-.264 1.752 1.752 0 0 1-.085-.286c-.015-.101-.031-.202-.031-.31 0-.102.016-.202.031-.303a1.794 1.794 0 0 1 .233-.558c.054-.086.124-.163.194-.233a1.404 1.404 0 0 1 .504-.334c.093-.039.186-.07.287-.093a1.57 1.57 0 0 1 1.405.427c.07.07.132.147.186.232.062.086.109.179.147.272.04.093.07.194.086.287.023.1.03.201.03.302 0 .109-.007.21-.03.31-.016.101-.047.194-.086.287a1.419 1.419 0 0 1-.14.264 2.918 2.918 0 0 1-.193.24 1.88 1.88 0 0 1-.24.194c-.086.055-.171.101-.265.14a1.39 1.39 0 0 1-.287.085 1.36 1.36 0 0 1-.31.031M219.597 25.076a1.551 1.551 0 1 1 1.552-1.543 1.55 1.55 0 0 1-1.552 1.543zm-.015 4.592a1.551 1.551 0 0 1-1.552-1.552 1.563 1.563 0 0 1 1.56-1.55 1.546 1.546 0 0 1 1.544 1.558c0 .853-.691 1.544-1.552 1.544zm-.016 4.59a1.545 1.545 0 0 1-1.544-1.55 1.552 1.552 0 0 1 3.104.008 1.555 1.555 0 0 1-1.552 1.543h-.008zm-.015 4.592a1.55 1.55 0 1 1 .015-3.102 1.561 1.561 0 0 1 1.544 1.559 1.55 1.55 0 0 1-1.552 1.543h-.007zM219.613 20.485c-.42 0-.807-.164-1.094-.458a1.51 1.51 0 0 1-.458-1.093c0-.411.163-.807.458-1.094.07-.078.147-.14.232-.194a1.369 1.369 0 0 1 .559-.233 1.589 1.589 0 0 1 .892.085c.094.039.187.086.272.148.085.054.163.116.233.194.295.287.458.683.458 1.094 0 .418-.163.806-.458 1.093a1.41 1.41 0 0 1-.505.342 1.552 1.552 0 0 1-.59.116M203.038 11.495a1.55 1.55 0 0 1-.597-2.11 1.556 1.556 0 0 1 2.11-.604 1.553 1.553 0 0 1 .598 2.11c-.28.511-.807.798-1.35.798-.256 0-.52-.062-.76-.194m3.957 2.195a1.542 1.542 0 0 1-.598-2.11 1.55 1.55 0 1 1 2.708 1.514 1.556 1.556 0 0 1-1.358.799c-.256 0-.512-.062-.752-.203m3.95 2.203a1.552 1.552 0 0 1-.598-2.11 1.55 1.55 0 1 1 2.708 1.506c-.28.512-.807.798-1.35.798-.256 0-.52-.061-.76-.194m3.957 2.195a1.55 1.55 0 1 1 2.11-.597c-.279.512-.814.8-1.358.8-.256 0-.512-.063-.752-.203M199.841 9.494c-.201 0-.403-.038-.59-.123a1.367 1.367 0 0 1-.504-.334 1.538 1.538 0 0 1-.458-1.094c0-.41.163-.806.458-1.101.07-.07.148-.132.233-.185.085-.062.178-.11.272-.149a1.565 1.565 0 0 1 1.692.333c.286.296.45.692.45 1.102a1.536 1.536 0 0 1-.45 1.094 1.434 1.434 0 0 1-.505.334 1.434 1.434 0 0 1-.598.123M180 181.33c-.411 0-.807-.163-1.102-.458a1.517 1.517 0 0 1-.45-1.093c0-.101.008-.202.031-.304.016-.1.047-.194.086-.286.039-.093.085-.186.14-.271.062-.086.124-.163.193-.233a1.836 1.836 0 0 1 .504-.342c.094-.038.195-.061.296-.085a1.589 1.589 0 0 1 .892.085c.093.04.186.094.272.148.085.054.163.124.232.194a1.404 1.404 0 0 1 .334.504c.039.092.07.185.093.286a1.511 1.511 0 0 1-.427 1.397c-.07.078-.147.14-.232.202-.086.054-.179.1-.272.14a1.303 1.303 0 0 1-.287.085c-.101.023-.202.03-.303.03M214.825 162.158a1.544 1.544 0 0 1-1.14-1.87 1.55 1.55 0 0 1 1.87-1.148 1.562 1.562 0 0 1 1.14 1.877 1.548 1.548 0 0 1-1.505 1.187c-.117 0-.24-.015-.365-.046m-5.106-.085a1.567 1.567 0 0 1 .536-2.133 1.565 1.565 0 0 1 2.134.543 1.554 1.554 0 0 1-1.335 2.341c-.528 0-1.048-.27-1.335-.751m9.498 1.155a1.554 1.554 0 0 1-1.14-1.877 1.55 1.55 0 0 1 1.87-1.14 1.549 1.549 0 0 1 1.148 1.869 1.563 1.563 0 0 1-1.513 1.187c-.124 0-.24-.016-.365-.039m4.392 1.063a1.551 1.551 0 1 1 .73-3.018 1.542 1.542 0 0 1 1.14 1.877 1.549 1.549 0 0 1-1.505 1.18c-.117 0-.24-.008-.365-.04m-17.77.093a1.542 1.542 0 0 1 .536-2.124 1.544 1.544 0 0 1 2.126.534 1.544 1.544 0 0 1-.535 2.126c-.249.147-.52.225-.792.225a1.547 1.547 0 0 1-1.334-.761m22.16.97a1.549 1.549 0 0 1-1.14-1.869 1.55 1.55 0 0 1 1.87-1.149 1.555 1.555 0 1 1-.365 3.064 1.52 1.52 0 0 1-.364-.047m-26.041 1.343a1.546 1.546 0 0 1 .535-2.126 1.554 1.554 0 0 1 1.59 2.669 1.55 1.55 0 0 1-2.125-.543m-3.888 2.311a1.554 1.554 0 0 1 .543-2.125 1.555 1.555 0 0 1 2.127.543c.442.728.194 1.683-.544 2.124-.248.148-.52.218-.791.218-.528 0-1.04-.271-1.335-.76m-3.88 2.318a1.56 1.56 0 0 1 .536-2.132 1.565 1.565 0 0 1 2.134.543 1.554 1.554 0 0 1-1.335 2.342 1.558 1.558 0 0 1-1.335-.753m-3.88 2.312a1.543 1.543 0 0 1 .536-2.125 1.544 1.544 0 0 1 2.126.535c.442.736.202 1.691-.535 2.125-.249.148-.52.225-.792.225-.527 0-1.047-.271-1.334-.76m-3.888 2.31a1.553 1.553 0 0 1 .543-2.124 1.554 1.554 0 1 1 .8 2.885 1.561 1.561 0 0 1-1.343-.76m-3.88 2.312a1.554 1.554 0 0 1 2.67-1.59c.434.736.194 1.69-.544 2.133a1.557 1.557 0 0 1-2.126-.543M232.758 166.462a1.538 1.538 0 0 1-1.094-.457 1.524 1.524 0 0 1-.458-1.094c0-.411.17-.807.458-1.094.574-.581 1.614-.581 2.196 0 .287.287.45.683.45 1.094a1.55 1.55 0 0 1-1.552 1.551M231.221 169.378c0-.853.69-1.551 1.544-1.551a1.551 1.551 0 0 1 .016 3.102h-.008c-.853 0-1.552-.69-1.552-1.55m.016 4.466c0-.853.69-1.55 1.544-1.55a1.541 1.541 0 0 1 1.56 1.543c0 .853-.69 1.55-1.544 1.559-.862 0-1.56-.69-1.56-1.552m.015 4.468c0-.861.691-1.551 1.545-1.56.86 0 1.56.691 1.56 1.552a1.55 1.55 0 0 1-1.545 1.551 1.541 1.541 0 0 1-1.56-1.543m.016 4.467a1.551 1.551 0 1 1 1.56 1.543h-.008a1.55 1.55 0 0 1-1.552-1.543M232.835 188.79c-.419 0-.807-.162-1.094-.457a1.568 1.568 0 0 1-.342-.504 1.535 1.535 0 0 1-.085-.893 1.296 1.296 0 0 1 .233-.557c.054-.086.116-.163.194-.233.07-.078.147-.14.233-.202.085-.054.17-.1.264-.14.093-.038.193-.069.294-.085.202-.047.404-.047.606 0 .1.016.194.047.287.085.093.04.186.086.271.14.086.062.163.124.233.202.078.07.14.147.194.233.054.085.109.17.148.263.038.093.062.194.085.294a1.535 1.535 0 0 1-.085.893 1.568 1.568 0 0 1-.342.504 1.51 1.51 0 0 1-1.094.458M245.716 178.948a1.552 1.552 0 1 1 2.613-1.673 1.552 1.552 0 0 1-2.613 1.673m-3.546 2.288a1.552 1.552 0 0 1 2.607-1.683 1.559 1.559 0 0 1-.458 2.149c-.264.163-.55.24-.846.24a1.553 1.553 0 0 1-1.303-.706m-3.546 2.281a1.552 1.552 0 1 1 2.142.465 1.565 1.565 0 0 1-2.142-.465m-3.546 2.28a1.553 1.553 0 0 1 .465-2.148 1.56 1.56 0 0 1 2.142.465 1.554 1.554 0 0 1-1.304 2.396 1.55 1.55 0 0 1-1.303-.713M250.574 177.382c-.42 0-.807-.163-1.102-.457a1.41 1.41 0 0 1-.194-.234 2.102 2.102 0 0 1-.14-.263 1.887 1.887 0 0 1-.093-.294 1.985 1.985 0 0 1 0-.606 1.707 1.707 0 0 1 .233-.558c.062-.086.124-.163.194-.24.07-.07.155-.132.24-.186a1.388 1.388 0 0 1 .55-.233 1.598 1.598 0 0 1 .901.085c.094.038.187.086.272.148.085.054.163.115.233.186.07.077.14.154.194.24a1.707 1.707 0 0 1 .233.558c.015.1.03.202.03.303 0 .1-.015.202-.03.303-.024.1-.055.2-.094.294a1.415 1.415 0 0 1-.333.497 1.569 1.569 0 0 1-.505.34 1.552 1.552 0 0 1-.59.117"/>
        </g>
        <g>
            <path fill="#38D611" d="M124.93 123.011l57.523 33.057 56.529-33.292-56.996-32.89-57.055 33.125zm57.537 35.749l-.586-.338-61.603-35.4 61.704-35.825 61.62 35.56-61.135 36.003z"/>
            <path fill="#FA0171" d="M43.596 122.902l57.522 33.056 56.528-33.292-56.994-32.89-57.056 33.126zm57.536 35.748l-62.189-35.737 61.705-35.826 61.62 35.56-61.136 36.003z"/>
        </g>
    </g>
</svg>
