<svg xmlns="http://www.w3.org/2000/svg" width="320" height="299" viewBox="0 0 320 299">
    <defs>
        <linearGradient id="a" x1="0%" y1="50%" y2="50%">
            <stop offset="0%" stop-color="#364A68"/>
            <stop offset="100%" stop-color="#38D611"/>
        </linearGradient>
        <linearGradient id="b" x1="100%" x2="0%" y1="49.994%" y2="49.994%">
            <stop offset="0%" stop-color="#364A68"/>
            <stop offset="100%" stop-color="#38D611"/>
        </linearGradient>
        <linearGradient id="c" x1="100%" x2="0%" y1="50.006%" y2="50.006%">
            <stop offset="0%" stop-color="#364A68"/>
            <stop offset="100%" stop-color="#FA0171"/>
        </linearGradient>
        <linearGradient id="d" x1="0%" y1="50.008%" y2="50.008%">
            <stop offset="0%" stop-color="#364A68"/>
            <stop offset="100%" stop-color="#FA0171"/>
        </linearGradient>
        <linearGradient id="e" x1="0%" y1="49.992%" y2="49.992%">
            <stop offset="0%" stop-color="#364A68"/>
            <stop offset="100%" stop-color="#38D611"/>
        </linearGradient>
    </defs>
    <g fill="none" fill-rule="evenodd">
        <g stroke="#FFF" stroke-width=".567" opacity=".5">
            <path d="M91.518 103.885V78.314L69.31 65.528 47.093 78.314v25.571l22.217 12.786z"/>
            <path d="M69.31 116.688V91.1L47.093 78.314 24.876 65.528v-16.68"/>
            <path d="M91.518 78.314L69.31 91.099l-22.217 12.786M91.518 103.885L69.31 91.1M135.952 103.876l-22.217 12.786v25.572l22.217 12.785 22.208-12.785v-25.572"/>
            <path d="M113.735 116.662l22.217 12.786v51.439"/>
            <path d="M158.16 116.662l-22.208 12.786-22.217 12.786"/>
            <path d="M135.952 129.448l22.208 12.786 15.268 9.248 7.106 4.302-.009-.582v-25.858l.01-25.58 22.207-12.786M135.952 103.876V78.305l-22.217-12.786-22.217 12.786v25.571l22.217 12.786z"/>
            <path d="M91.518 103.876l22.217-12.785 22.217-12.786 22.208-12.003V91.09M69.31 142.242v-25.571l-22.217-12.786-22.217 12.786v25.571l22.217 12.786"/>
            <path d="M24.876 100.13l-14.857 8.258 14.857 8.283 22.217 12.786v25.588"/>
            <path d="M69.31 116.67l-22.217 12.787-22.217 12.785v26.337L2.53 180.886V155.68M69.31 142.242l-22.217-12.785M113.735 142.234v-25.572l-22.217-12.786-22.208 12.786v25.572l22.208 12.785z"/>
            <path d="M69.31 116.662l22.208 12.786v25.589L69.31 168.43l22.208 13.038 22.217-12.89"/>
            <path d="M113.735 116.662l-22.217 12.786-22.208 12.786M10.019 74.055l14.857-8.527M10.019 125.12v-16.733M91.518 27.475v25.502L69.31 65.527V39.792M135.952 103.876l-22.217-12.785V48.849l15.224-8.91M143.643 57.184l14.517 9.118M47.093 180.886L24.876 168.58M306.38 202.46v-25.572l-22.217-12.786-22.216 12.786v25.572l22.216 12.785z"/>
            <path d="M306.38 176.888l-22.217 12.786-22.216 12.786M284.163 240.817v-25.572l-22.216-12.785-22.209 12.785v25.572l22.209 12.777"/>
            <path d="M224.872 206.953l14.866 8.292 22.209 12.786v25.58"/>
            <path d="M239.738 266.275v-25.458l22.209-12.786 22.216-12.786v-25.597M284.163 240.808l-22.216-12.777M224.96 78.2V52.63l22.216-12.787 22.208 12.786v25.572l-22.208 12.785z"/>
            <path d="M247.176 90.995v-25.58l22.208-12.786 22.217-12.786V23.155"/>
            <path d="M224.96 52.63l22.216 12.785L269.384 78.2M224.96 78.2l22.216-12.785M180.525 78.192l22.217 12.786v25.571l-22.217 12.786-22.208-12.786V90.978"/>
            <path d="M158.317 90.978l22.217 12.785 22.208 12.786M180.525 103.763l-22.208 12.786M180.534 78.192V52.621l22.208-12.786L224.96 52.62v25.571l-22.217 12.786z"/>
            <path d="M224.81 78.192l-22.216-12.786-22.217-12.785-22.217-12.004v25.658M247.176 116.558V90.986l22.208-12.785 22.217 12.785v25.572l-22.217 12.777"/>
            <path d="M291.601 74.437l14.867 8.257-14.867 8.292-22.217 12.786v25.58"/>
            <path d="M247.176 90.986l22.208 12.786 22.217 12.786v26.327l22.348 12.317v-25.207M247.176 116.55l22.208-12.778M202.742 116.55V90.977l22.217-12.786 22.217 12.786v25.571l-22.217 12.786z"/>
            <path d="M247.176 90.978l-22.217 12.785v25.58l22.217 13.403-22.217 13.038-22.295-12.942"/>
            <path d="M202.742 90.978l22.217 12.785 22.217 12.786M224.96 1.782v25.502l22.216 12.56V14.106M180.534 78.192l22.208-12.786V23.155l-15.224-8.909M172.687 31.5l-14.527 9.117M158.23 219.93v25.572l-22.217 12.777-22.208-12.777V219.93l22.208-12.786z"/>
            <path d="M136.013 207.127v25.589l-22.208 12.786-22.217 12.777v16.688"/>
            <path d="M158.23 245.502l-22.217-12.786-22.208-12.786M158.23 219.93l-22.217 12.786M202.664 219.939l-22.217-12.786v-25.571l22.217-12.786 22.208 12.786v25.571"/>
            <path d="M180.447 207.153l22.217-12.786V142.842"/>
            <path d="M224.872 207.153l-22.208-12.786-22.217-12.785"/>
            <path d="M202.664 194.367l22.208-12.785 15.268-9.248M202.664 219.939v25.563l-22.217 12.785-22.217-12.785v-25.563l22.217-12.786z"/>
            <path d="M158.23 219.939l22.217 12.786 22.217 12.777 16.662 9.013 20.412 11.221M136.013 181.573v25.571l-22.208 12.786-22.217-12.786v-25.571"/>
            <path d="M91.588 223.685l-14.866-8.257 14.866-8.284 22.217-12.785v-25.59M136.013 181.573l-22.208 12.786M180.447 181.582v25.571L158.23 219.94l-22.217-12.786v-25.571l22.217-12.786z"/>
            <path d="M136.013 207.153l22.217-12.786V168.78l-22.217-13.395"/>
            <path d="M180.447 207.153l-22.217-12.786-22.217-12.785M76.722 249.76l14.866 8.527M76.722 198.696v16.732M158.23 296.34v-25.502l-22.217-12.56v25.746M202.664 219.939l-22.217 12.786V274.967l15.224 8.91M261.947 176.888l44.433 25.572"/>
        </g>
        <g fill="#FFF" fill-rule="nonzero" opacity=".5">
            <ellipse cx="24.876" cy="47.675" rx="2.136" ry="2.13"/>
            <ellipse cx="9.33" cy="74.055" rx="2.136" ry="2.13"/>
            <ellipse cx="24.876" cy="65.528" rx="2.136" ry="2.13"/>
            <ellipse cx="46.84" cy="78.314" rx="2.136" ry="2.13"/>
            <ellipse cx="69.319" cy="90.978" rx="2.136" ry="2.13"/>
            <ellipse cx="113.744" cy="90.978" rx="2.136" ry="2.13"/>
            <ellipse cx="69.319" cy="65.528" rx="2.136" ry="2.13"/>
            <ellipse cx="69.319" cy="39.939" rx="2.136" ry="2.13"/>
            <ellipse cx="91.518" cy="27.475" rx="2.136" ry="2.13"/>
            <ellipse cx="91.518" cy="52.89" rx="2.136" ry="2.13"/>
            <ellipse cx="91.518" cy="78.314" rx="2.136" ry="2.13"/>
            <ellipse cx="91.518" cy="103.763" rx="2.136" ry="2.13"/>
            <ellipse cx="69.319" cy="116.688" rx="2.136" ry="2.13"/>
            <ellipse cx="69.31" cy="142.399" rx="2.136" ry="2.13"/>
            <ellipse cx="46.84" cy="129.474" rx="2.136" ry="2.13"/>
            <ellipse cx="46.666" cy="155.019" rx="2.136" ry="2.13"/>
            <ellipse cx="24.876" cy="142.234" rx="2.136" ry="2.13"/>
            <ellipse cx="24.876" cy="168.579" rx="2.136" ry="2.13"/>
            <ellipse cx="46.387" cy="180.565" rx="2.136" ry="2.13"/>
            <ellipse cx="2.529" cy="180.565" rx="2.136" ry="2.13"/>
            <ellipse cx="2.529" cy="156.227" rx="2.136" ry="2.13"/>
            <ellipse cx="91.518" cy="129.474" rx="2.136" ry="2.13"/>
            <ellipse cx="91.588" cy="155.019" rx="2.136" ry="2.13"/>
            <ellipse cx="113.735" cy="142.399" rx="2.136" ry="2.13"/>
            <ellipse cx="69.319" cy="168.579" rx="2.136" ry="2.13"/>
            <ellipse cx="113.744" cy="65.832" rx="2.136" ry="2.13"/>
            <ellipse cx="113.814" cy="48.848" rx="2.136" ry="2.13"/>
            <ellipse cx="128.872" cy="39.939" rx="2.136" ry="2.13"/>
            <ellipse cx="135.943" cy="78.618" rx="2.136" ry="2.13"/>
            <ellipse cx="143.643" cy="57.271" rx="2.136" ry="2.13"/>
            <ellipse cx="158.16" cy="66.302" rx="2.136" ry="2.13"/>
            <ellipse cx="158.16" cy="40.617" rx="2.136" ry="2.13"/>
            <ellipse cx="172.687" cy="31.499" rx="2.136" ry="2.13"/>
            <ellipse cx="180.525" cy="52.629" rx="2.136" ry="2.13"/>
            <ellipse cx="180.525" cy="78.314" rx="2.136" ry="2.13"/>
            <ellipse cx="224.811" cy="78.192" rx="2.136" ry="2.13"/>
            <ellipse cx="202.655" cy="65.954" rx="2.136" ry="2.13"/>
            <ellipse cx="202.742" cy="90.978" rx="2.136" ry="2.13"/>
            <ellipse cx="202.821" cy="116.401" rx="2.136" ry="2.13"/>
            <ellipse cx="247.098" cy="116.28" rx="2.136" ry="2.13"/>
            <ellipse cx="269.384" cy="103.772" rx="2.136" ry="2.13"/>
            <ellipse cx="269.384" cy="129.448" rx="2.136" ry="2.13"/>
            <ellipse cx="247.098" cy="142.842" rx="2.136" ry="2.13"/>
            <ellipse cx="225.491" cy="155.384" rx="2.136" ry="2.13"/>
            <ellipse cx="202.821" cy="143.424" rx="2.136" ry="2.13"/>
            <ellipse cx="202.655" cy="168.796" rx="2.136" ry="2.13"/>
            <ellipse cx="224.872" cy="181.582" rx="2.136" ry="2.13"/>
            <ellipse cx="180.525" cy="181.955" rx="2.136" ry="2.13"/>
            <ellipse cx="239.738" cy="172.334" rx="2.136" ry="2.13"/>
            <ellipse cx="291.601" cy="116.401" rx="2.136" ry="2.13"/>
            <ellipse cx="313.949" cy="130.474" rx="2.136" ry="2.13"/>
            <ellipse cx="313.949" cy="155.019" rx="2.136" ry="2.13"/>
            <ellipse cx="291.601" cy="142.842" rx="2.136" ry="2.13"/>
            <ellipse cx="224.95" cy="104.042" rx="2.136" ry="2.13"/>
            <ellipse cx="225.038" cy="129.065" rx="2.136" ry="2.13"/>
            <ellipse cx="224.959" cy="52.89" rx="2.136" ry="2.13"/>
            <ellipse cx="202.742" cy="39.939" rx="2.136" ry="2.13"/>
            <ellipse cx="268.774" cy="78.14" rx="2.136" ry="2.13"/>
            <ellipse cx="246.627" cy="65.902" rx="2.136" ry="2.13"/>
            <ellipse cx="247.176" cy="90.926" rx="2.136" ry="2.13"/>
            <ellipse cx="284.094" cy="189.943" rx="2.136" ry="2.13"/>
            <ellipse cx="306.38" cy="177.427" rx="2.136" ry="2.13"/>
            <ellipse cx="306.38" cy="202.242" rx="2.136" ry="2.13"/>
            <ellipse cx="284.094" cy="214.758" rx="2.136" ry="2.13"/>
            <ellipse cx="261.947" cy="177.705" rx="2.136" ry="2.13"/>
            <ellipse cx="262.034" cy="202.72" rx="2.136" ry="2.13"/>
            <ellipse cx="261.886" cy="228.127" rx="2.136" ry="2.13"/>
            <ellipse cx="284.094" cy="240.252" rx="2.136" ry="2.13"/>
            <ellipse cx="261.886" cy="252.951" rx="2.136" ry="2.13"/>
            <ellipse cx="239.738" cy="215.888" rx="2.136" ry="2.13"/>
            <ellipse cx="202.655" cy="194.359" rx="2.136" ry="2.13"/>
            <ellipse cx="180.525" cy="206.953" rx="2.136" ry="2.13"/>
            <ellipse cx="224.872" cy="207.153" rx="2.136" ry="2.13"/>
            <ellipse cx="239.817" cy="240.912" rx="2.136" ry="2.13"/>
            <ellipse cx="202.707" cy="219.895" rx="2.136" ry="2.13"/>
            <ellipse cx="180.499" cy="232.394" rx="2.136" ry="2.13"/>
            <ellipse cx="202.707" cy="245.389" rx="2.136" ry="2.13"/>
            <ellipse cx="180.499" cy="258.087" rx="2.136" ry="2.13"/>
            <ellipse cx="180.499" cy="274.967" rx="2.136" ry="2.13"/>
            <ellipse cx="158.23" cy="296.34" rx="2.136" ry="2.13"/>
            <ellipse cx="158.23" cy="270.717" rx="2.136" ry="2.13"/>
            <ellipse cx="136.013" cy="283.876" rx="2.136" ry="2.13"/>
            <ellipse cx="136.013" cy="258.087" rx="2.136" ry="2.13"/>
            <ellipse cx="113.735" cy="245.389" rx="2.136" ry="2.13"/>
            <ellipse cx="91.588" cy="258.087" rx="2.136" ry="2.13"/>
            <ellipse cx="91.518" cy="274.967" rx="2.136" ry="2.13"/>
            <ellipse cx="76.722" cy="249.761" rx="2.136" ry="2.13"/>
            <ellipse cx="195.758" cy="283.876" rx="2.136" ry="2.13"/>
            <ellipse cx="158.352" cy="221.034" rx="2.136" ry="2.13"/>
            <ellipse cx="135.943" cy="232.725" rx="2.136" ry="2.13"/>
            <ellipse cx="113.805" cy="219.895" rx="2.136" ry="2.13"/>
            <ellipse cx="136.013" cy="207.153" rx="2.136" ry="2.13"/>
            <ellipse cx="158.16" cy="194.359" rx="2.136" ry="2.13"/>
            <ellipse cx="158.16" cy="168.796" rx="2.136" ry="2.13"/>
            <ellipse cx="135.943" cy="181.582" rx="2.136" ry="2.13"/>
            <ellipse cx="113.805" cy="194.359" rx="2.136" ry="2.13"/>
            <ellipse cx="91.588" cy="207.127" rx="2.136" ry="2.13"/>
            <ellipse cx="91.588" cy="181.469" rx="2.136" ry="2.13"/>
            <ellipse cx="113.735" cy="168.77" rx="2.136" ry="2.13"/>
            <ellipse cx="76.722" cy="215.245" rx="2.136" ry="2.13"/>
            <ellipse cx="76.722" cy="198.696" rx="2.136" ry="2.13"/>
            <ellipse cx="91.518" cy="223.685" rx="2.136" ry="2.13"/>
            <ellipse cx="158.431" cy="246.049" rx="2.136" ry="2.13"/>
            <ellipse cx="239.817" cy="265.736" rx="2.136" ry="2.13"/>
            <ellipse cx="284.172" cy="164.589" rx="2.136" ry="2.13"/>
            <ellipse cx="268.931" cy="52.847" rx="2.136" ry="2.13"/>
            <ellipse cx="291.601" cy="23.155" rx="2.136" ry="2.13"/>
            <ellipse cx="247.176" cy="39.835" rx="2.136" ry="2.13"/>
            <ellipse cx="291.601" cy="39.835" rx="2.136" ry="2.13"/>
            <ellipse cx="292.473" cy="74.933" rx="2.136" ry="2.13"/>
            <ellipse cx="306.468" cy="82.573" rx="2.136" ry="2.13"/>
            <ellipse cx="291.601" cy="90.926" rx="2.136" ry="2.13"/>
            <ellipse cx="247.176" cy="14.246" rx="2.136" ry="2.13"/>
            <ellipse cx="224.959" cy="2.208" rx="2.136" ry="2.13"/>
            <ellipse cx="224.959" cy="27.24" rx="2.136" ry="2.13"/>
            <ellipse cx="202.655" cy="23.155" rx="2.136" ry="2.13"/>
            <ellipse cx="187.911" cy="14.246" rx="2.136" ry="2.13"/>
            <ellipse cx="135.943" cy="104.068" rx="2.136" ry="2.13"/>
            <ellipse cx="113.744" cy="116.992" rx="2.136" ry="2.13"/>
            <ellipse cx="136.013" cy="129.317" rx="2.136" ry="2.13"/>
            <ellipse cx="136.083" cy="154.863" rx="2.136" ry="2.13"/>
            <ellipse cx="158.23" cy="142.242" rx="2.136" ry="2.13"/>
            <ellipse cx="180.525" cy="155.384" rx="2.136" ry="2.13"/>
            <ellipse cx="158.23" cy="116.836" rx="2.136" ry="2.13"/>
            <ellipse cx="180.525" cy="103.763" rx="2.136" ry="2.13"/>
            <ellipse cx="158.317" cy="90.926" rx="2.136" ry="2.13"/>
            <ellipse cx="180.447" cy="129.065" rx="2.136" ry="2.13"/>
            <ellipse cx="47.093" cy="103.903" rx="2.136" ry="2.13"/>
            <ellipse cx="25.399" cy="116.992" rx="2.136" ry="2.13"/>
            <ellipse cx="10.019" cy="108.388" rx="2.136" ry="2.13"/>
            <ellipse cx="10.019" cy="125.119" rx="2.136" ry="2.13"/>
            <ellipse cx="24.876" cy="100.13" rx="2.136" ry="2.13"/>
        </g>
        <g fill="#FFF" fill-rule="nonzero" opacity=".5" transform="translate(4.36 17.384)">
            <ellipse cx="20.386" cy="30.022" rx="5.554" ry="5.537"/>
            <ellipse cx="87.159" cy="35.245" rx="5.554" ry="5.537"/>
            <ellipse cx="139.283" cy="39.696" rx="5.554" ry="5.537"/>
            <ellipse cx="287.241" cy="5.571" rx="5.554" ry="5.537"/>
            <ellipse cx="242.738" cy="22.451" rx="5.554" ry="5.537"/>
            <ellipse cx="198.295" cy="5.971" rx="5.554" ry="5.537"/>
            <ellipse cx="287.241" cy="73.611" rx="5.554" ry="5.537"/>
            <ellipse cx="309.589" cy="137.479" rx="5.554" ry="5.537"/>
            <ellipse cx="302.108" cy="184.858" rx="5.554" ry="5.537"/>
            <ellipse cx="257.526" cy="235.567" rx="5.554" ry="5.537"/>
            <ellipse cx="279.804" cy="147.205" rx="5.554" ry="5.537"/>
            <ellipse cx="176.052" cy="257.583" rx="5.554" ry="5.537"/>
            <ellipse cx="131.653" cy="266.492" rx="5.554" ry="5.537"/>
            <ellipse cx="87.159" cy="240.704" rx="5.554" ry="5.537"/>
            <ellipse cx="221.131" cy="137.636" rx="5.554" ry="5.537"/>
            <ellipse cx="109.375" cy="151.412" rx="5.554" ry="5.537"/>
            <ellipse cx="131.584" cy="86.684" rx="5.554" ry="5.537"/>
            <ellipse cx="5.659" cy="91.004" rx="5.554" ry="5.537"/>
            <ellipse cx="72.362" cy="198.044" rx="5.554" ry="5.537"/>
            <ellipse cx="153.801" cy="176.984" rx="5.554" ry="5.537"/>
            <ellipse cx="20.517" cy="151.195" rx="5.554" ry="5.537"/>
            <ellipse cx="42.306" cy="60.808" rx="5.554" ry="5.537"/>
        </g>
        <g fill-rule="nonzero" style="mix-blend-mode:lighten">
            <path fill="url(#a)" d="M45.297 65.65v51.125L.863 91.212V40.078z" transform="translate(46.213 38.244)"/>
            <path fill="url(#b)" d="M156.53 156.749v51.134l44.433-25.563v-51.142z" transform="translate(46.213 38.244)"/>
            <path fill="url(#c)" d="M45.375 168.214v51.134l44.426-25.563v-51.143z" transform="translate(46.213 38.244)"/>
            <path fill="url(#d)" d="M265.73 91.012l-44.433-25.571-44.573 25.693 44.425 25.563zM156.73 104.042L112.296 78.47l-44.582 25.685 44.434 25.571z" transform="translate(46.213 38.244)"/>
            <path fill="url(#e)" d="M201.234 25.867L156.8.304 112.218 25.99l44.434 25.571z" transform="translate(46.213 38.244)"/>
        </g>
        <g stroke-dasharray="0" stroke-linecap="round" stroke-width="3.483">
            <path stroke="#FA0171" d="M207.259 140.156l15.555-9.709M158.151 65.589l.079 51.064M91.518 207.657v-51.43l22.13-13.89M158.082 167.91l44.66 26.962"/>
            <path stroke="#38D611" d="M91.588 102.85l64.445-36.548M247.159 65.467l22.225 12.734v23.442"/>
            <path stroke="#FA0171" d="M269.314 155.784l-22.138 13.525"/>
            <path stroke="#38D611" d="M202.742 246.006l-22.295 12.281-44.434-26.258"/>
        </g>
        <g stroke-width="2.613">
            <path stroke="#38D611" d="M247.159 65.467l-44.425-25.563L158.15 65.59l44.434 25.571z"/>
            <path stroke="#FA0171" d="M313.888 130.091l-44.425-25.571-44.582 25.693 44.433 25.571zM202.664 142.225l-44.434-25.572-44.582 25.685 44.434 25.571z"/>
            <path stroke="#38D611" d="M91.518 103.885v51.134l-44.425-25.562V78.314zM202.742 194.872v51.134l44.434-25.563v-51.134z"/>
            <path stroke="#FA0171" d="M91.588 206.458v51.134l44.425-25.563v-51.143z"/>
        </g>
    </g>
</svg>
