<svg xmlns="http://www.w3.org/2000/svg" xmlns:xlink="http://www.w3.org/1999/xlink" width="284" height="267" viewBox="0 0 284 267">
    <defs>
        <path id="a" d="M37.69 32.764L19.125 43.482.562 32.764V11.327L19.126.607l18.563 10.72z"/>
        <linearGradient id="b" x1="-.143%" y1="49.996%" y2="49.996%">
            <stop offset="0%" stop-color="#304A6C"/>
            <stop offset="100%" stop-color="#FA0171"/>
        </linearGradient>
        <path id="d" d="M37.325 32.754L18.762 43.473.198 32.753V11.317L18.762.596l18.563 10.72z"/>
        <path id="f" d="M79.09 12.372l-39.566 22.87L.088 12.473 21.346.191l18.248 10.533L57.91.144z"/>
        <linearGradient id="g" x1="0%" x2="100.016%" y1="50.002%" y2="50.002%">
            <stop offset="0%" stop-color="#304A6C"/>
            <stop offset="100%" stop-color="#38D611"/>
        </linearGradient>
        <path id="i" d="M37.758 32.802L19.194 43.52.63 32.802V11.364L19.194.645l18.564 10.72z"/>
        <path id="k" d="M37.737 32.347L19.173 43.066.609 32.347V10.91L19.173.19l18.564 10.72z"/>
        <path id="m" d="M37.257 11.072V32.51l-.24.14L18.7 43.227.453 32.696l-.318-.186V11.072L18.7.354z"/>
    </defs>
    <g fill="none" fill-rule="evenodd">
        <g stroke="#00152B" stroke-width=".5" opacity=".2">
            <path d="M81.103 93.155V70.32L61.332 58.903 41.568 70.32v22.835l19.764 11.417z"/>
            <path d="M61.332 104.588v-22.85L41.568 70.32 21.797 58.903V44.008"/>
            <path d="M81.103 70.32L61.332 81.738 41.568 93.155M81.103 93.155L61.332 81.738M120.638 93.147l-19.764 11.418v22.834l19.764 11.418 19.771-11.418v-22.834"/>
            <path d="M100.874 104.565l19.764 11.417v45.933"/>
            <path d="M140.41 104.565l-19.772 11.417-19.764 11.417"/>
            <path d="M120.638 115.982l19.771 11.417 13.587 8.259 6.317 3.842V93.046l19.77-11.417M120.638 93.147V70.313l-19.764-11.418-19.771 11.418v22.834l19.771 11.418z"/>
            <path d="M81.103 93.147l19.771-11.417 19.764-11.417 19.771-10.72V81.73M61.332 127.407v-22.835L41.568 93.155l-19.771 11.417v22.835l19.771 11.417"/>
            <path d="M21.797 89.802l-13.23 7.374 13.23 7.396 19.771 11.418v22.85"/>
            <path d="M61.332 104.572L41.568 115.99l-19.771 11.417v23.518l-19.888 10.99v-22.508M61.332 127.407L41.568 115.99"/>
            <path d="M100.874 127.4v-22.835L81.103 93.147l-19.771 11.418v22.834l19.771 11.418z"/>
            <path d="M61.332 104.565l19.771 11.417v22.85l-19.771 11.96 19.771 11.643 19.771-11.51M100.874 104.565l-19.771 11.417-19.771 11.417M8.567 66.517l13.23-7.614M8.567 112.117V97.176M81.103 24.923v22.772L61.332 58.903V35.921M120.638 93.147L100.874 81.73V44.008l13.549-7.955M127.482 51.452l12.927 8.142M41.568 161.915l-19.771-10.99M272.314 181.18v-22.835l-19.771-11.417-19.772 11.417v22.835l19.772 11.417z"/>
            <path d="M272.314 158.345l-19.771 11.417-19.772 11.418M252.543 215.432v-22.835L232.77 181.18 213 192.597v22.835l19.771 11.41"/>
            <path d="M199.778 185.192L213 192.597l19.771 11.417v22.843"/>
            <path d="M213 238.166v-22.734l19.771-11.418 19.772-11.417v-22.858M252.543 215.424l-19.772-11.41M199.855 70.22V47.384l19.764-11.418 19.771 11.418v22.834L219.62 81.637z"/>
            <path d="M219.619 81.645V58.802l19.771-11.417 19.772-11.418V21.065"/>
            <path d="M199.855 47.385l19.764 11.417L239.39 70.22M199.855 70.22l19.764-11.418M160.313 70.212l19.77 11.417v22.835l-19.77 11.41-19.764-11.41V81.629"/>
            <path d="M140.549 81.629l19.764 11.417 19.77 11.418M160.313 93.046l-19.764 11.418M160.313 70.212V47.377l19.77-11.417 19.772 11.417v22.835l-19.771 11.417z"/>
            <path d="M199.716 70.212l-19.764-11.418-19.771-11.417-19.772-10.719V59.57M219.619 104.464V81.637l19.771-11.418 19.772 11.418v22.827L239.39 115.88"/>
            <path d="M259.162 66.859l13.222 7.373-13.222 7.405-19.772 11.417v22.843"/>
            <path d="M219.619 81.637l19.771 11.417 19.772 11.41v23.517l19.887 10.999V116.47M219.619 104.464l19.771-11.41"/>
            <path d="M180.084 104.464V81.629l19.771-11.417 19.764 11.417v22.835l-19.764 11.41z"/>
            <path d="M219.619 81.629l-19.764 11.417v22.843l19.764 11.968-19.764 11.643-19.849-11.557"/>
            <path d="M180.084 81.629l19.771 11.417 19.764 11.418M199.855 1.98v22.772l19.764 11.215V12.985M160.313 70.212l19.77-11.418V21.065l-13.547-7.956M153.337 28.516l-12.928 8.142M140.471 196.78v22.835l-19.771 11.41-19.771-11.41v-22.834l19.771-11.418z"/>
            <path d="M120.7 185.348v22.85l-19.771 11.417-19.764 11.41v14.902M140.471 219.615L120.7 208.198l-19.771-11.417M140.471 196.78L120.7 208.199M180.006 196.788l-19.763-11.417v-22.835l19.763-11.417 19.772 11.417v22.835"/>
            <path d="M160.243 185.371l19.763-11.417v-46.011"/>
            <path d="M199.778 185.371l-19.772-11.417-19.763-11.418"/>
            <path d="M180.006 173.954l19.772-11.418 13.587-8.258M180.006 196.788v22.827l-19.763 11.418-19.772-11.418v-22.827l19.772-11.417z"/>
            <path d="M140.471 196.788l19.772 11.418 19.763 11.41 14.837 8.048L213 237.684M120.7 162.528v22.835l-19.771 11.418-19.764-11.418v-22.835"/>
            <path d="M81.165 200.134l-13.23-7.374 13.23-7.397 19.764-11.417v-22.85M120.7 162.528l-19.771 11.418M160.243 162.536v22.835l-19.772 11.417-19.771-11.417v-22.835l19.771-11.417z"/>
            <path d="M120.7 185.371l19.771-11.417v-22.85L120.7 139.142"/>
            <path d="M160.243 185.371l-19.772-11.417-19.771-11.418M67.935 223.418l13.23 7.615M67.935 177.819v14.941M140.471 265.013V242.24L120.7 231.025v22.99M180.006 196.788l-19.763 11.418V245.927l13.548 7.956M232.771 158.345l39.543 22.835"/>
        </g>
        <g fill="#00152B" fill-rule="nonzero" opacity=".3">
            <ellipse cx="21.797" cy="42.961" rx="1.901" ry="1.902"/>
            <ellipse cx="7.961" cy="66.517" rx="1.901" ry="1.902"/>
            <ellipse cx="21.797" cy="58.903" rx="1.901" ry="1.902"/>
            <ellipse cx="41.335" cy="70.32" rx="1.901" ry="1.902"/>
            <ellipse cx="61.347" cy="81.629" rx="1.901" ry="1.902"/>
            <ellipse cx="100.882" cy="81.629" rx="1.901" ry="1.902"/>
            <ellipse cx="61.347" cy="58.903" rx="1.901" ry="1.902"/>
            <ellipse cx="61.347" cy="36.053" rx="1.901" ry="1.902"/>
            <ellipse cx="81.103" cy="24.923" rx="1.901" ry="1.902"/>
            <ellipse cx="81.103" cy="47.618" rx="1.901" ry="1.902"/>
            <ellipse cx="81.103" cy="70.32" rx="1.901" ry="1.902"/>
            <ellipse cx="81.103" cy="93.046" rx="1.901" ry="1.902"/>
            <ellipse cx="61.347" cy="104.588" rx="1.901" ry="1.902"/>
            <ellipse cx="61.332" cy="127.547" rx="1.901" ry="1.902"/>
            <ellipse cx="41.335" cy="116.005" rx="1.901" ry="1.902"/>
            <ellipse cx="41.188" cy="138.817" rx="1.901" ry="1.902"/>
            <ellipse cx="21.797" cy="127.399" rx="1.901" ry="1.902"/>
            <ellipse cx="21.797" cy="150.925" rx="1.901" ry="1.902"/>
            <ellipse cx="40.939" cy="161.628" rx="1.901" ry="1.902"/>
            <ellipse cx="1.909" cy="161.628" rx="1.901" ry="1.902"/>
            <ellipse cx="1.909" cy="139.896" rx="1.901" ry="1.902"/>
            <ellipse cx="81.103" cy="116.005" rx="1.901" ry="1.902"/>
            <ellipse cx="81.165" cy="138.817" rx="1.901" ry="1.902"/>
            <ellipse cx="100.874" cy="127.547" rx="1.901" ry="1.902"/>
            <ellipse cx="61.347" cy="150.925" rx="1.901" ry="1.902"/>
            <ellipse cx="100.882" cy="59.175" rx="1.901" ry="1.902"/>
            <ellipse cx="100.936" cy="44.008" rx="1.901" ry="1.902"/>
            <ellipse cx="114.345" cy="36.053" rx="1.901" ry="1.902"/>
            <ellipse cx="120.638" cy="70.592" rx="1.901" ry="1.902"/>
            <ellipse cx="127.482" cy="51.529" rx="1.901" ry="1.902"/>
            <ellipse cx="140.409" cy="59.594" rx="1.901" ry="1.902"/>
            <ellipse cx="140.409" cy="36.658" rx="1.901" ry="1.902"/>
            <ellipse cx="153.337" cy="28.516" rx="1.901" ry="1.902"/>
            <ellipse cx="160.313" cy="47.385" rx="1.901" ry="1.902"/>
            <ellipse cx="160.313" cy="70.32" rx="1.901" ry="1.902"/>
            <ellipse cx="199.716" cy="70.212" rx="1.901" ry="1.902"/>
            <ellipse cx="180.006" cy="59.283" rx="1.901" ry="1.902"/>
            <ellipse cx="180.084" cy="81.629" rx="1.901" ry="1.902"/>
            <ellipse cx="180.154" cy="104.332" rx="1.901" ry="1.902"/>
            <ellipse cx="219.557" cy="104.223" rx="1.901" ry="1.902"/>
            <ellipse cx="239.39" cy="93.054" rx="1.901" ry="1.902"/>
            <ellipse cx="239.39" cy="115.982" rx="1.901" ry="1.902"/>
            <ellipse cx="219.557" cy="127.943" rx="1.901" ry="1.902"/>
            <ellipse cx="200.329" cy="139.143" rx="1.901" ry="1.902"/>
            <ellipse cx="180.154" cy="128.463" rx="1.901" ry="1.902"/>
            <ellipse cx="180.006" cy="151.119" rx="1.901" ry="1.902"/>
            <ellipse cx="199.778" cy="162.536" rx="1.901" ry="1.902"/>
            <ellipse cx="160.313" cy="162.87" rx="1.901" ry="1.902"/>
            <ellipse cx="213.008" cy="154.278" rx="1.901" ry="1.902"/>
            <ellipse cx="259.162" cy="104.332" rx="1.901" ry="1.902"/>
            <ellipse cx="279.049" cy="116.898" rx="1.901" ry="1.902"/>
            <ellipse cx="279.049" cy="138.817" rx="1.901" ry="1.902"/>
            <ellipse cx="259.162" cy="127.943" rx="1.901" ry="1.902"/>
            <ellipse cx="199.848" cy="93.295" rx="1.901" ry="1.902"/>
            <ellipse cx="199.917" cy="115.64" rx="1.901" ry="1.902"/>
            <ellipse cx="199.855" cy="47.618" rx="1.901" ry="1.902"/>
            <ellipse cx="180.084" cy="36.053" rx="1.901" ry="1.902"/>
            <ellipse cx="238.847" cy="70.165" rx="1.901" ry="1.902"/>
            <ellipse cx="219.138" cy="59.237" rx="1.901" ry="1.902"/>
            <ellipse cx="219.619" cy="81.582" rx="1.901" ry="1.902"/>
            <ellipse cx="252.481" cy="170.003" rx="1.901" ry="1.902"/>
            <ellipse cx="272.314" cy="158.826" rx="1.901" ry="1.902"/>
            <ellipse cx="272.314" cy="180.986" rx="1.901" ry="1.902"/>
            <ellipse cx="252.481" cy="192.162" rx="1.901" ry="1.902"/>
            <ellipse cx="232.771" cy="159.075" rx="1.901" ry="1.902"/>
            <ellipse cx="232.841" cy="181.413" rx="1.901" ry="1.902"/>
            <ellipse cx="232.717" cy="204.1" rx="1.901" ry="1.902"/>
            <ellipse cx="252.481" cy="214.927" rx="1.901" ry="1.902"/>
            <ellipse cx="232.717" cy="226.267" rx="1.901" ry="1.902"/>
            <ellipse cx="213.008" cy="193.171" rx="1.901" ry="1.902"/>
            <ellipse cx="180.006" cy="173.946" rx="1.901" ry="1.902"/>
            <ellipse cx="160.313" cy="185.192" rx="1.901" ry="1.902"/>
            <ellipse cx="199.778" cy="185.371" rx="1.901" ry="1.902"/>
            <ellipse cx="213.078" cy="215.517" rx="1.901" ry="1.902"/>
            <ellipse cx="180.053" cy="196.75" rx="1.901" ry="1.902"/>
            <ellipse cx="160.289" cy="207.911" rx="1.901" ry="1.902"/>
            <ellipse cx="180.053" cy="219.514" rx="1.901" ry="1.902"/>
            <ellipse cx="160.289" cy="230.854" rx="1.901" ry="1.902"/>
            <ellipse cx="160.289" cy="245.927" rx="1.901" ry="1.902"/>
            <ellipse cx="140.471" cy="265.013" rx="1.901" ry="1.902"/>
            <ellipse cx="140.471" cy="242.132" rx="1.901" ry="1.902"/>
            <ellipse cx="120.7" cy="253.883" rx="1.901" ry="1.902"/>
            <ellipse cx="120.7" cy="230.854" rx="1.901" ry="1.902"/>
            <ellipse cx="100.874" cy="219.514" rx="1.901" ry="1.902"/>
            <ellipse cx="81.165" cy="230.854" rx="1.901" ry="1.902"/>
            <ellipse cx="81.103" cy="245.927" rx="1.901" ry="1.902"/>
            <ellipse cx="67.935" cy="223.418" rx="1.901" ry="1.902"/>
            <ellipse cx="173.869" cy="253.883" rx="1.901" ry="1.902"/>
            <ellipse cx="140.58" cy="197.766" rx="1.901" ry="1.902"/>
            <ellipse cx="120.638" cy="208.206" rx="1.901" ry="1.902"/>
            <ellipse cx="100.929" cy="196.75" rx="1.901" ry="1.902"/>
            <ellipse cx="120.7" cy="185.371" rx="1.901" ry="1.902"/>
            <ellipse cx="140.409" cy="173.946" rx="1.901" ry="1.902"/>
            <ellipse cx="140.409" cy="151.119" rx="1.901" ry="1.902"/>
            <ellipse cx="120.638" cy="162.536" rx="1.901" ry="1.902"/>
            <ellipse cx="100.929" cy="173.946" rx="1.901" ry="1.902"/>
            <ellipse cx="81.165" cy="185.348" rx="1.901" ry="1.902"/>
            <ellipse cx="81.165" cy="162.435" rx="1.901" ry="1.902"/>
            <ellipse cx="100.874" cy="151.096" rx="1.901" ry="1.902"/>
            <ellipse cx="67.935" cy="192.597" rx="1.901" ry="1.902"/>
            <ellipse cx="67.935" cy="177.819" rx="1.901" ry="1.902"/>
            <ellipse cx="81.103" cy="200.134" rx="1.901" ry="1.902"/>
            <ellipse cx="140.65" cy="220.104" rx="1.901" ry="1.902"/>
            <ellipse cx="213.078" cy="237.684" rx="1.901" ry="1.902"/>
            <ellipse cx="252.55" cy="147.362" rx="1.901" ry="1.902"/>
            <ellipse cx="238.979" cy="47.579" rx="1.901" ry="1.902"/>
            <ellipse cx="259.162" cy="21.065" rx="1.901" ry="1.902"/>
            <ellipse cx="219.619" cy="35.96" rx="1.901" ry="1.902"/>
            <ellipse cx="259.162" cy="35.96" rx="1.901" ry="1.902"/>
            <ellipse cx="259.938" cy="67.301" rx="1.901" ry="1.902"/>
            <ellipse cx="272.384" cy="74.124" rx="1.901" ry="1.902"/>
            <ellipse cx="259.162" cy="81.582" rx="1.901" ry="1.902"/>
            <ellipse cx="219.619" cy="13.109" rx="1.901" ry="1.902"/>
            <ellipse cx="199.855" cy="2.36" rx="1.901" ry="1.902"/>
            <ellipse cx="199.855" cy="24.713" rx="1.901" ry="1.902"/>
            <ellipse cx="180.006" cy="21.065" rx="1.901" ry="1.902"/>
            <ellipse cx="166.885" cy="13.109" rx="1.901" ry="1.902"/>
            <ellipse cx="120.638" cy="93.318" rx="1.901" ry="1.902"/>
            <ellipse cx="100.882" cy="104.86" rx="1.901" ry="1.902"/>
            <ellipse cx="120.7" cy="115.866" rx="1.901" ry="1.902"/>
            <ellipse cx="120.754" cy="138.677" rx="1.901" ry="1.902"/>
            <ellipse cx="140.464" cy="127.407" rx="1.901" ry="1.902"/>
            <ellipse cx="160.313" cy="139.143" rx="1.901" ry="1.902"/>
            <ellipse cx="140.471" cy="104.72" rx="1.901" ry="1.902"/>
            <ellipse cx="160.313" cy="93.046" rx="1.901" ry="1.902"/>
            <ellipse cx="140.549" cy="81.582" rx="1.901" ry="1.902"/>
            <ellipse cx="160.243" cy="115.64" rx="1.901" ry="1.902"/>
            <ellipse cx="41.568" cy="93.171" rx="1.901" ry="1.902"/>
            <ellipse cx="22.262" cy="104.86" rx="1.901" ry="1.902"/>
            <ellipse cx="8.567" cy="97.176" rx="1.901" ry="1.902"/>
            <ellipse cx="8.567" cy="112.117" rx="1.901" ry="1.902"/>
            <ellipse cx="21.797" cy="89.802" rx="1.901" ry="1.902"/>
        </g>
        <g fill="#00152B" fill-rule="nonzero" opacity=".1" transform="translate(3.104 15.523)">
            <ellipse cx="18.576" cy="27.197" rx="4.943" ry="4.944"/>
            <ellipse cx="77.999" cy="31.861" rx="4.943" ry="4.944"/>
            <ellipse cx="124.378" cy="35.835" rx="4.943" ry="4.944"/>
            <ellipse cx="256.058" cy="5.363" rx="4.943" ry="4.944"/>
            <ellipse cx="216.453" cy="20.436" rx="4.943" ry="4.944"/>
            <ellipse cx="176.903" cy="5.72" rx="4.943" ry="4.944"/>
            <ellipse cx="256.058" cy="66.121" rx="4.943" ry="4.944"/>
            <ellipse cx="275.946" cy="123.154" rx="4.943" ry="4.944"/>
            <ellipse cx="269.28" cy="165.462" rx="4.943" ry="4.944"/>
            <ellipse cx="229.613" cy="210.744" rx="4.943" ry="4.944"/>
            <ellipse cx="249.439" cy="131.839" rx="4.943" ry="4.944"/>
            <ellipse cx="157.108" cy="230.404" rx="4.943" ry="4.944"/>
            <ellipse cx="117.596" cy="238.36" rx="4.943" ry="4.944"/>
            <ellipse cx="77.999" cy="215.331" rx="4.943" ry="4.944"/>
            <ellipse cx="197.225" cy="123.293" rx="4.943" ry="4.944"/>
            <ellipse cx="97.77" cy="135.596" rx="4.943" ry="4.944"/>
            <ellipse cx="117.534" cy="77.795" rx="4.943" ry="4.944"/>
            <ellipse cx="5.463" cy="81.652" rx="4.943" ry="4.944"/>
            <ellipse cx="64.831" cy="177.237" rx="4.943" ry="4.944"/>
            <ellipse cx="137.305" cy="158.43" rx="4.943" ry="4.944"/>
            <ellipse cx="18.693" cy="135.402" rx="4.943" ry="4.944"/>
            <ellipse cx="38.084" cy="54.688" rx="4.943" ry="4.944"/>
        </g>
        <g transform="translate(41.787 105.478)">
            <mask id="c" fill="#fff">
                <use xlink:href="#a"/>
            </mask>
            <path fill="url(#b)" d="M37.69 32.764V11.327L19.125.607.562 11.328v21.437l18.564 10.718z" mask="url(#c)" opacity=".7"/>
        </g>
        <g transform="translate(121.493 14.156)">
            <mask id="e" fill="#fff">
                <use xlink:href="#d"/>
            </mask>
            <path fill="url(#b)" d="M37.325 32.754V11.316L18.762.596.198 11.317v21.438l18.564 10.719z" mask="url(#e)" opacity=".7"/>
        </g>
        <g transform="translate(100.6 137.983)">
            <mask id="h" fill="#fff">
                <use xlink:href="#f"/>
            </mask>
            <path fill="url(#g)" fill-opacity=".7" d="M79.09 12.372l-39.566 22.87L.088 12.473 21.346.191l18.248 10.533L57.91.144z" mask="url(#h)"/>
        </g>
        <g transform="translate(119.946 198.348)">
            <mask id="j" fill="#fff">
                <use xlink:href="#i"/>
            </mask>
            <path fill="url(#b)" d="M37.758 32.802V11.364L19.194.645.63 11.365v21.437L19.194 43.52z" mask="url(#j)" opacity=".7"/>
        </g>
        <g transform="translate(200.425 105.478)">
            <mask id="l" fill="#fff">
                <use xlink:href="#k"/>
            </mask>
            <path fill="url(#b)" d="M37.737 32.347V10.91L19.173.19.609 10.91v21.437l18.564 10.719z" mask="url(#l)" opacity=".7"/>
        </g>
        <g transform="translate(121.493 105.478)">
            <mask id="n" fill="#fff">
                <use xlink:href="#m"/>
            </mask>
            <path fill="url(#g)" fill-opacity=".7" d="M37.257 11.072V32.51l-.24.14L18.7 43.227.453 32.696l-.318-.186V11.072L18.7.354z" mask="url(#n)"/>
        </g>
        <g>
            <path fill="#FA0171" d="M121.69 50.257c-.41 0-.797-.163-1.09-.457a1.558 1.558 0 0 1-.342-.503 1.554 1.554 0 0 1-.084-.897 1.39 1.39 0 0 1 .232-.558 1.81 1.81 0 0 1 .193-.232 1.4 1.4 0 0 1 .503-.333c.092-.038.185-.069.286-.093.504-.1 1.038.062 1.394.426a1.54 1.54 0 0 1 0 2.19c-.07.07-.147.14-.233.193a1.668 1.668 0 0 1-.557.233 1.898 1.898 0 0 1-.302.03M116.243 51.549a1.55 1.55 0 1 1 1.37.836 1.54 1.54 0 0 1-1.37-.836m-4.08 2.137a1.55 1.55 0 0 1 .66-2.09 1.541 1.541 0 0 1 2.089.65 1.55 1.55 0 0 1-2.748 1.44m-4.078 2.128a1.55 1.55 0 0 1 2.747-1.432c.395.75.101 1.687-.657 2.09a1.56 1.56 0 0 1-2.09-.657m-4.079 2.127a1.55 1.55 0 0 1 2.748-1.432 1.55 1.55 0 0 1-2.748 1.432m-4.077 2.129a1.554 1.554 0 0 1 .658-2.09 1.55 1.55 0 1 1-.658 2.09m-4 2.266a1.549 1.549 0 0 1 .595-2.104 1.543 1.543 0 0 1 2.105.595 1.543 1.543 0 0 1-.596 2.105 1.56 1.56 0 0 1-.75.202 1.55 1.55 0 0 1-1.355-.798m-4.016 2.253a1.546 1.546 0 0 1 .596-2.106 1.538 1.538 0 0 1 2.105.59c.418.75.154 1.693-.588 2.104-.241.139-.503.2-.759.2a1.56 1.56 0 0 1-1.354-.788m-4.009 2.244a1.543 1.543 0 0 1 .596-2.105 1.543 1.543 0 0 1 2.105.596 1.55 1.55 0 0 1-.596 2.106c-.24.13-.503.193-.758.193-.542 0-1.068-.28-1.347-.79m-4.017 2.252a1.556 1.556 0 0 1 .597-2.112 1.555 1.555 0 0 1 2.105.595 1.54 1.54 0 0 1-.596 2.105c-.24.14-.495.202-.751.202a1.56 1.56 0 0 1-1.355-.79m-4.015 2.245a1.548 1.548 0 0 1 .596-2.106 1.544 1.544 0 0 1 2.105.596 1.547 1.547 0 0 1-.59 2.105 1.56 1.56 0 0 1-2.112-.595m-4.008 2.244a1.547 1.547 0 1 1 2.701-1.509 1.549 1.549 0 0 1-.596 2.105c-.24.139-.503.2-.758.2a1.53 1.53 0 0 1-1.347-.796m-4.016 2.252a1.55 1.55 0 0 1 2.7-1.517 1.55 1.55 0 0 1-.595 2.113 1.56 1.56 0 0 1-2.105-.597m-4.017 2.245a1.549 1.549 0 0 1 .597-2.104 1.549 1.549 0 0 1 2.105.595 1.543 1.543 0 0 1-.596 2.105c-.24.132-.495.202-.752.202-.54 0-1.067-.286-1.354-.798m-4.008 2.253a1.546 1.546 0 0 1 .589-2.106 1.554 1.554 0 0 1 2.112.589c.41.75.146 1.694-.596 2.112-.24.132-.503.194-.758.194a1.539 1.539 0 0 1-1.347-.79M61.152 83.357c-.1 0-.2-.008-.301-.023a1.934 1.934 0 0 1-.287-.093 1.463 1.463 0 0 1-.263-.14 1.492 1.492 0 0 1-.572-.696 1.803 1.803 0 0 1-.093-.287c-.015-.1-.031-.2-.031-.3 0-.412.17-.813.456-1.1.356-.356.89-.526 1.4-.425a1.876 1.876 0 0 1 .558.232c.085.062.163.124.232.193.07.07.14.155.194.24.054.078.1.17.14.262.038.093.069.194.093.295.014.1.03.202.03.302 0 .1-.016.201-.03.301-.024.1-.055.194-.093.287a1.287 1.287 0 0 1-.14.271 1.55 1.55 0 0 1-1.292.681M61.06 88.279a1.546 1.546 0 0 1-1.525-1.563c.016-.86.72-1.54 1.572-1.524.858.007 1.54.712 1.523 1.57a1.54 1.54 0 0 1-1.54 1.525c-.007 0-.022-.008-.03-.008zm-.07 4.93a1.547 1.547 0 0 1-1.525-1.57c.016-.86.712-1.54 1.572-1.526a1.54 1.54 0 0 1 1.524 1.564 1.554 1.554 0 0 1-1.548 1.532h-.023zm-.07 4.922a1.546 1.546 0 0 1-1.524-1.571 1.549 1.549 0 0 1 3.095.047 1.553 1.553 0 0 1-1.547 1.524h-.024zm-.07 4.923a1.56 1.56 0 0 1-1.532-1.571c.017-.86.72-1.541 1.571-1.525.86.008 1.54.712 1.525 1.57a1.54 1.54 0 0 1-1.54 1.526h-.023zM60.796 107.975c-.1 0-.2-.008-.301-.03a1.257 1.257 0 0 1-.287-.085 1.821 1.821 0 0 1-.27-.14 1.45 1.45 0 0 1-.233-.201 1.459 1.459 0 0 1-.34-.495 1.573 1.573 0 0 1-.116-.597c0-.41.162-.805.456-1.09.07-.078.147-.14.233-.194.085-.054.177-.109.27-.147a1.564 1.564 0 0 1 1.687.34 1.546 1.546 0 0 1-1.099 2.639M158.594 50.257a1.539 1.539 0 0 1-1.431-.96 1.555 1.555 0 0 1-.116-.596c0-.1.008-.201.023-.301a1.864 1.864 0 0 1 .232-.558c.062-.077.124-.163.194-.232.07-.07.154-.14.232-.194a1.79 1.79 0 0 1 .558-.232c.2-.039.41-.039.611 0a1.82 1.82 0 0 1 .556.232c.078.055.163.124.233.194s.131.155.193.232a1.79 1.79 0 0 1 .232.558c.016.1.023.2.023.301a1.54 1.54 0 0 1-.95 1.432c-.093.04-.186.07-.287.093-.1.015-.202.03-.303.03M161.953 52.207a1.549 1.549 0 1 1 2.09-.659c-.279.535-.82.836-1.377.836-.241 0-.489-.061-.713-.177m4.079 2.129a1.549 1.549 0 0 1-.658-2.09 1.538 1.538 0 0 1 2.089-.65 1.54 1.54 0 0 1 .65 2.09 1.54 1.54 0 0 1-2.081.65m4.07 2.136a1.56 1.56 0 0 1-.65-2.09 1.55 1.55 0 0 1 2.746 1.432c-.277.526-.819.827-1.376.827a1.61 1.61 0 0 1-.72-.17m4.078 2.129a1.546 1.546 0 0 1-.65-2.09 1.549 1.549 0 0 1 2.089-.658 1.552 1.552 0 0 1-.72 2.925c-.247 0-.487-.061-.719-.177m4.078 2.128a1.55 1.55 0 0 1-.657-2.09 1.553 1.553 0 0 1 2.089-.657 1.555 1.555 0 0 1 .658 2.09 1.544 1.544 0 0 1-2.09.657m3.986 2.205a1.549 1.549 0 1 1 1.516-2.7 1.54 1.54 0 0 1 .588 2.105 1.53 1.53 0 0 1-2.104.595m4.015 2.245a1.546 1.546 0 0 1-.595-2.105 1.54 1.54 0 0 1 2.104-.589 1.54 1.54 0 0 1 .597 2.106c-.287.502-.813.79-1.354.79a1.49 1.49 0 0 1-.752-.202m4.017 2.252a1.543 1.543 0 0 1-.596-2.105 1.54 1.54 0 0 1 2.105-.596 1.548 1.548 0 0 1 .595 2.104c-.286.512-.811.79-1.354.79-.255 0-.518-.061-.75-.193m4.008 2.244a1.547 1.547 0 0 1-.595-2.105 1.563 1.563 0 0 1 2.112-.595 1.554 1.554 0 0 1 .588 2.112 1.536 1.536 0 0 1-2.105.588m4.017 2.252a1.549 1.549 0 0 1-.597-2.104 1.544 1.544 0 0 1 2.106-.597 1.541 1.541 0 0 1 .595 2.106 1.556 1.556 0 0 1-2.104.595m4.015 2.245a1.543 1.543 0 0 1-.595-2.105 1.541 1.541 0 0 1 2.104-.596 1.549 1.549 0 0 1-.757 2.902c-.256 0-.519-.062-.752-.201m4.01 2.252a1.557 1.557 0 0 1-.597-2.113 1.547 1.547 0 0 1 2.105-.588 1.542 1.542 0 0 1 .597 2.105 1.54 1.54 0 0 1-1.348.79c-.255 0-.518-.062-.757-.194m4.015 2.244a1.548 1.548 0 0 1-.595-2.105 1.549 1.549 0 0 1 2.104-.596 1.543 1.543 0 0 1 .596 2.105 1.528 1.528 0 0 1-2.105.596m4.017 2.252a1.548 1.548 0 1 1 2.104-.596 1.56 1.56 0 0 1-2.104.596M219.125 83.357c-.41 0-.805-.155-1.091-.449-.078-.07-.14-.154-.201-.232a1.795 1.795 0 0 1-.14-.27 1.275 1.275 0 0 1-.085-.288c-.023-.1-.03-.2-.03-.3 0-.101.007-.202.03-.303.023-.101.047-.202.085-.295.038-.092.093-.184.147-.263.054-.084.116-.17.194-.239.07-.07.146-.131.232-.193.085-.054.17-.1.27-.14.093-.04.186-.07.286-.092.202-.04.404-.04.605 0a1.732 1.732 0 0 1 .556.232c.086.062.163.124.232.193.07.07.14.155.194.24.054.078.109.17.148.262.037.093.068.194.085.295a1.532 1.532 0 0 1-.426 1.393c-.07.07-.147.14-.233.194-.084.053-.177.1-.262.14a2.064 2.064 0 0 1-.294.092 2.004 2.004 0 0 1-.302.023M217.647 86.762a1.548 1.548 0 0 1 1.531-1.57 1.535 1.535 0 0 1 1.564 1.524 1.536 1.536 0 0 1-1.525 1.563c-.007 0-.015.008-.022.008a1.553 1.553 0 0 1-1.548-1.525m.07 4.915a1.547 1.547 0 0 1 1.53-1.564 1.537 1.537 0 0 1 1.565 1.525 1.548 1.548 0 0 1-1.525 1.57h-.023a1.553 1.553 0 0 1-1.548-1.53m.077 4.929a1.544 1.544 0 0 1 1.525-1.572 1.552 1.552 0 0 1 1.57 1.525 1.556 1.556 0 0 1-1.523 1.57h-.024c-.843 0-1.532-.68-1.548-1.523m.07 4.921a1.543 1.543 0 0 1 1.525-1.57 1.54 1.54 0 0 1 1.57 1.525 1.552 1.552 0 0 1-1.524 1.57h-.03a1.552 1.552 0 0 1-1.541-1.525M219.48 107.975c-.1 0-.201-.008-.302-.03a1.257 1.257 0 0 1-.286-.085 1.9 1.9 0 0 1-.27-.14 1.412 1.412 0 0 1-.232-.201 1.461 1.461 0 0 1-.457-1.092c0-.41.17-.805.457-1.09.07-.078.146-.14.232-.194a1.435 1.435 0 0 1 .556-.232c.504-.101 1.037.061 1.402.425.286.286.449.681.449 1.091 0 .41-.155.805-.45 1.092a1.539 1.539 0 0 1-1.098.456M158.703 209.35c-.41 0-.797-.162-1.09-.456a1.567 1.567 0 0 1-.342-.504 1.547 1.547 0 0 1-.084-.89c.022-.1.053-.2.084-.294.039-.092.094-.185.148-.263.054-.085.124-.17.193-.24.07-.07.146-.131.232-.193a1.82 1.82 0 0 1 .557-.232 1.56 1.56 0 0 1 1.393.425c.078.07.14.155.194.24a1.372 1.372 0 0 1 .232.557 1.548 1.548 0 0 1-.085.89 1.565 1.565 0 0 1-.34.504c-.071.07-.148.139-.234.193-.084.053-.169.108-.262.147-.093.039-.193.062-.287.085-.1.015-.208.031-.309.031M213.878 177.69a1.547 1.547 0 0 1 .588-2.106 1.545 1.545 0 0 1 2.104.596 1.547 1.547 0 0 1-1.345 2.306 1.53 1.53 0 0 1-1.347-.797m-4.016 2.252a1.543 1.543 0 0 1 .596-2.105 1.547 1.547 0 0 1 2.105.588c.417.751.147 1.695-.596 2.113a1.558 1.558 0 0 1-2.105-.596m-4.016 2.245a1.544 1.544 0 0 1 .595-2.105 1.543 1.543 0 0 1 2.105.596 1.543 1.543 0 0 1-.596 2.105c-.24.139-.495.2-.75.2a1.552 1.552 0 0 1-1.354-.796m-4.017 2.252a1.546 1.546 0 0 1 .596-2.105 1.554 1.554 0 0 1 2.113.588c.418.75.147 1.695-.596 2.105-.24.14-.503.201-.758.201a1.559 1.559 0 0 1-1.355-.79m-4.008 2.245a1.543 1.543 0 0 1 .596-2.105 1.543 1.543 0 0 1 2.105.596 1.55 1.55 0 0 1-.596 2.105 1.53 1.53 0 0 1-2.105-.596m-4.016 2.252a1.557 1.557 0 0 1 .595-2.113 1.547 1.547 0 0 1 1.51 2.701 1.46 1.46 0 0 1-.751.202 1.56 1.56 0 0 1-1.354-.79m-4.009 2.245a1.54 1.54 0 0 1 .588-2.105 1.543 1.543 0 0 1 2.105.595 1.548 1.548 0 0 1-.588 2.105 1.58 1.58 0 0 1-.758.194 1.523 1.523 0 0 1-1.347-.79m-4.017 2.245a1.543 1.543 0 0 1 .597-2.105 1.547 1.547 0 0 1 1.509 2.701 1.531 1.531 0 0 1-2.106-.596m-4.015 2.252a1.547 1.547 0 1 1 2.104.596 1.56 1.56 0 0 1-2.105-.596m-4.047 2.19a1.55 1.55 0 0 1 2.748-1.432c.394.751.1 1.688-.658 2.082a1.472 1.472 0 0 1-.712.178 1.56 1.56 0 0 1-1.378-.828m-4.078 2.128a1.55 1.55 0 0 1 2.747-1.431c.395.758.101 1.687-.657 2.09a1.56 1.56 0 0 1-2.09-.658m-4.079 2.128a1.55 1.55 0 1 1 2.748-1.43 1.55 1.55 0 0 1-2.748 1.43m-4.07 2.128a1.547 1.547 0 1 1 2.09.658 1.501 1.501 0 0 1-.72.178 1.532 1.532 0 0 1-1.37-.836m-4.077 2.136a1.553 1.553 0 0 1 .65-2.09 1.55 1.55 0 0 1 2.089.658 1.538 1.538 0 0 1-.65 2.082 1.548 1.548 0 0 1-2.089-.65M219.24 176.234c-.208 0-.41-.038-.595-.116a1.44 1.44 0 0 1-.496-.332 1.416 1.416 0 0 1-.34-.503 1.3 1.3 0 0 1-.085-.287 1.333 1.333 0 0 1-.031-.302c0-.1.008-.209.03-.31a1.436 1.436 0 0 1 .233-.556c.054-.086.116-.163.193-.233.07-.07.147-.139.233-.193a1.668 1.668 0 0 1 .557-.232 1.55 1.55 0 0 1 1.393.425c.07.07.139.147.193.233.054.085.108.178.148.27.038.093.062.194.084.287.024.1.031.209.031.31 0 .1-.007.2-.03.301-.023.1-.047.194-.085.286-.04.093-.086.186-.148.264a1.514 1.514 0 0 1-1.285.689M219.504 156.546a1.543 1.543 0 0 1-1.525-1.57 1.543 1.543 0 0 1 1.572-1.526c.85.016 1.531.712 1.523 1.571a1.552 1.552 0 0 1-1.547 1.525h-.023zm-.07 4.922a1.557 1.557 0 0 1-1.531-1.571 1.552 1.552 0 0 1 1.57-1.525 1.55 1.55 0 0 1 1.525 1.572 1.542 1.542 0 0 1-1.54 1.524h-.024zm-.077 4.923a1.547 1.547 0 0 1-1.524-1.572c.015-.85.72-1.532 1.57-1.524.859.015 1.54.719 1.525 1.57a1.542 1.542 0 0 1-1.54 1.526h-.03zm-.07 4.921a1.543 1.543 0 0 1-1.525-1.57 1.553 1.553 0 0 1 1.571-1.526 1.547 1.547 0 1 1-.023 3.096h-.022zM219.597 151.624c-.41 0-.797-.162-1.092-.456a1.509 1.509 0 0 1-.456-1.092c0-.41.162-.805.456-1.09.07-.078.147-.14.233-.194.085-.055.178-.109.27-.148a1.564 1.564 0 0 1 1.687.341c.287.286.45.681.45 1.091 0 .418-.163.805-.45 1.092a1.552 1.552 0 0 1-1.098.456M121.806 209.35a1.539 1.539 0 0 1-1.432-.96 1.548 1.548 0 0 1-.085-.89 1.483 1.483 0 0 1 .224-.557c.063-.085.125-.17.194-.24.078-.07.155-.131.24-.193a1.668 1.668 0 0 1 .557-.232c.504-.1 1.037.07 1.393.425.07.07.14.155.194.24.054.078.109.17.147.263.038.093.062.193.085.294a1.547 1.547 0 0 1-.084.89 1.567 1.567 0 0 1-.342.504 1.521 1.521 0 0 1-1.09.456M64.527 178.286a1.55 1.55 0 0 1-.597-2.106 1.557 1.557 0 0 1 2.113-.595 1.546 1.546 0 0 1 .588 2.104 1.53 1.53 0 0 1-2.104.597m4.015 2.25a1.556 1.556 0 0 1-.595-2.111 1.547 1.547 0 0 1 2.105-.588 1.543 1.543 0 0 1-.759 2.893c-.255 0-.51-.062-.751-.193m4.017 2.245a1.543 1.543 0 0 1-.596-2.105 1.542 1.542 0 0 1 2.105-.597 1.55 1.55 0 0 1-.758 2.902c-.256 0-.519-.061-.75-.2m4.008 2.244a1.544 1.544 0 0 1-.589-2.105 1.545 1.545 0 0 1 2.105-.589 1.547 1.547 0 0 1 .596 2.105c-.286.504-.812.79-1.354.79-.255 0-.519-.061-.758-.2m4.016 2.25a1.543 1.543 0 0 1-.597-2.104 1.544 1.544 0 0 1 2.106-.596 1.543 1.543 0 0 1 .596 2.106 1.54 1.54 0 0 1-1.348.797c-.262 0-.517-.07-.757-.202m4.015 2.245a1.542 1.542 0 0 1-.595-2.105 1.55 1.55 0 0 1 2.105-.597 1.558 1.558 0 0 1 .596 2.114 1.56 1.56 0 0 1-1.354.788 1.49 1.49 0 0 1-.752-.2m4.01 2.252a1.55 1.55 0 1 1 1.516-2.702 1.547 1.547 0 0 1 .588 2.105c-.279.511-.804.79-1.346.79a1.58 1.58 0 0 1-.758-.193m4.016 2.243a1.547 1.547 0 1 1 2.105-.595 1.53 1.53 0 0 1-2.105.595m4.016 2.253a1.542 1.542 0 0 1-.597-2.105 1.548 1.548 0 0 1 2.701 1.51 1.56 1.56 0 0 1-2.104.595m4.063 2.245a1.544 1.544 0 0 1-.658-2.083 1.543 1.543 0 0 1 2.09-.657 1.55 1.55 0 0 1 .657 2.09 1.56 1.56 0 0 1-1.377.827c-.24 0-.488-.054-.712-.177m4.078 2.135a1.551 1.551 0 0 1-.658-2.09 1.55 1.55 0 0 1 2.747 1.433 1.56 1.56 0 0 1-2.09.657m4.071 2.128a1.551 1.551 0 0 1 1.44-2.747 1.546 1.546 0 0 1 .649 2.09c-.27.533-.812.836-1.37.836-.239 0-.487-.062-.719-.179m4.078 2.128a1.553 1.553 0 0 1-.65-2.09 1.548 1.548 0 0 1 2.09-.65 1.548 1.548 0 0 1 .65 2.083 1.542 1.542 0 0 1-2.09.657m4.079 2.129a1.538 1.538 0 0 1-.651-2.081 1.55 1.55 0 0 1 2.09-.659 1.554 1.554 0 0 1 .65 2.09 1.54 1.54 0 0 1-2.09.65M61.269 176.234a1.527 1.527 0 0 1-1.285-.688 1.123 1.123 0 0 1-.148-.264 1.826 1.826 0 0 1-.084-.286 1.996 1.996 0 0 1-.03-.302c0-.1.015-.209.03-.31.023-.092.046-.193.084-.286.04-.092.094-.185.148-.27.054-.086.116-.163.194-.233a1.4 1.4 0 0 1 .503-.332c.093-.04.185-.07.286-.093.201-.039.41-.039.604 0a1.711 1.711 0 0 1 .557.232c.085.054.162.124.24.193.07.07.131.147.185.233a1.436 1.436 0 0 1 .232.557c.024.1.031.209.031.31 0 .1-.007.2-.03.301a1.3 1.3 0 0 1-.086.286 1.416 1.416 0 0 1-.139.264 2.912 2.912 0 0 1-.193.24 1.532 1.532 0 0 1-1.1.448M59.435 155.021a1.548 1.548 0 0 1 1.524-1.57 1.543 1.543 0 0 1 1.571 1.524 1.548 1.548 0 0 1-1.524 1.57h-.024a1.553 1.553 0 0 1-1.547-1.524m.07 4.922a1.558 1.558 0 0 1 1.524-1.57 1.543 1.543 0 0 1 1.57 1.524 1.547 1.547 0 0 1-1.524 1.571h-.023a1.553 1.553 0 0 1-1.548-1.525m.078 4.922a1.547 1.547 0 0 1 1.524-1.57 1.558 1.558 0 0 1 1.571 1.524 1.547 1.547 0 0 1-1.524 1.571h-.031a1.54 1.54 0 0 1-1.54-1.525m.07 4.923a1.552 1.552 0 0 1 1.524-1.571 1.547 1.547 0 1 1 .046 3.096H61.2a1.547 1.547 0 0 1-1.548-1.525M60.913 151.624c-.41 0-.797-.162-1.091-.456a1.464 1.464 0 0 1-.457-1.092c0-.1.008-.2.031-.302.016-.1.047-.194.084-.286.04-.101.094-.186.148-.27.054-.087.116-.163.194-.233.572-.58 1.61-.58 2.182 0 .286.286.456.681.456 1.091 0 .418-.162.805-.456 1.092a1.535 1.535 0 0 1-1.091.456"/>
            <path fill="#38D611" d="M135.96 84.123a1.548 1.548 0 1 1 2.694-1.534 1.548 1.548 0 0 1-2.694 1.534m-4.032 2.306a1.556 1.556 0 0 1 .58-2.113 1.547 1.547 0 0 1 2.114.573 1.557 1.557 0 0 1-1.348 2.322c-.534 0-1.06-.278-1.346-.782m-4.032 2.307a1.556 1.556 0 0 1 .58-2.113 1.548 1.548 0 0 1 2.114.573 1.548 1.548 0 0 1-1.347 2.314c-.534 0-1.06-.279-1.347-.774m-4.032 2.299a1.556 1.556 0 0 1 .58-2.114 1.556 1.556 0 0 1 2.114.58 1.55 1.55 0 0 1-.58 2.114 1.562 1.562 0 0 1-2.113-.58m-4.025 2.305a1.545 1.545 0 0 1 .573-2.112 1.554 1.554 0 0 1 2.113.573 1.557 1.557 0 0 1-.58 2.12 1.539 1.539 0 0 1-2.106-.58m-4.031 2.306a1.547 1.547 0 1 1 2.686-1.54c.425.742.17 1.695-.574 2.113a1.54 1.54 0 0 1-2.113-.573m-4.03 2.306a1.543 1.543 0 0 1 .572-2.112 1.547 1.547 0 1 1-.573 2.112m-4.032 2.299a1.547 1.547 0 0 1 .573-2.114 1.556 1.556 0 0 1 2.113.58c.426.744.17 1.688-.572 2.114-.241.14-.504.202-.767.202-.542 0-1.06-.28-1.347-.782m-4.031 2.305a1.545 1.545 0 1 1 2.686-1.531c.425.743.17 1.687-.573 2.112a1.6 1.6 0 0 1-.767.201c-.542 0-1.06-.278-1.346-.782m-4.032 2.308a1.55 1.55 0 0 1 .58-2.114 1.545 1.545 0 0 1 2.106.573c.426.743.17 1.687-.573 2.112-.24.14-.503.21-.767.21-.534 0-1.06-.287-1.346-.781m-4.032 2.305a1.548 1.548 0 0 1 .58-2.112 1.546 1.546 0 0 1 2.114.572 1.556 1.556 0 0 1-.58 2.113c-.241.139-.504.2-.767.2-.534 0-1.06-.277-1.347-.773m-4.032 2.299a1.55 1.55 0 0 1 .58-2.112 1.556 1.556 0 0 1 2.114.58 1.555 1.555 0 0 1-.58 2.112 1.55 1.55 0 0 1-2.113-.58m-4.032 2.306a1.55 1.55 0 1 1 2.694-1.532 1.545 1.545 0 0 1-.58 2.105 1.547 1.547 0 0 1-2.113-.573m-4.033 2.307a1.556 1.556 0 0 1 .58-2.114 1.548 1.548 0 0 1 2.114.574 1.548 1.548 0 0 1-.58 2.112c-.241.14-.504.21-.767.21-.534 0-1.06-.287-1.347-.782m-4.024 2.305a1.545 1.545 0 0 1 .573-2.112 1.546 1.546 0 1 1 .767 2.886 1.546 1.546 0 0 1-1.34-.774"/>
            <path fill="#38D611" d="M139.248 83.148a1.545 1.545 0 0 1-.571-2.112c.425-.743 1.369-1 2.111-.574.743.426.999 1.379.573 2.113a1.54 1.54 0 0 1-2.113.573m4.024 2.314a1.546 1.546 0 0 1-.572-2.113 1.546 1.546 0 0 1 2.112-.572c.743.425.999 1.37.574 2.112a1.54 1.54 0 0 1-2.114.573m4.024 2.314a1.537 1.537 0 0 1-.564-2.113 1.538 1.538 0 0 1 2.105-.573c.743.427.998 1.378.572 2.113a1.534 1.534 0 0 1-2.113.573m4.025 2.315a1.545 1.545 0 0 1-.566-2.114 1.547 1.547 0 0 1 2.114-.573c.743.426.998 1.371.564 2.113a1.536 1.536 0 0 1-2.112.574m4.024 2.313a1.551 1.551 0 0 1-.566-2.113 1.547 1.547 0 1 1 2.686 1.541 1.55 1.55 0 0 1-2.12.572m4.032 2.314a1.545 1.545 0 0 1-.573-2.112 1.548 1.548 0 0 1 2.684 1.54 1.54 1.54 0 0 1-1.346.782 1.54 1.54 0 0 1-.765-.21m4.023 2.314a1.545 1.545 0 0 1-.572-2.113 1.546 1.546 0 0 1 2.112-.572c.743.426.998 1.37.573 2.112a1.538 1.538 0 0 1-2.113.573m4.024 2.315a1.548 1.548 0 1 1 2.113-.573 1.537 1.537 0 0 1-2.113.573m4.024 2.313a1.537 1.537 0 0 1-.565-2.113 1.546 1.546 0 0 1 2.113-.573c.736.426.991 1.378.565 2.114a1.536 1.536 0 0 1-2.113.572m4.025 2.314a1.55 1.55 0 0 1 1.547-2.686c.743.426.999 1.37.565 2.113a1.527 1.527 0 0 1-1.338.783 1.57 1.57 0 0 1-.774-.21m4.031 2.314a1.546 1.546 0 0 1-.573-2.113 1.546 1.546 0 0 1 2.113-.572c.743.425.999 1.37.572 2.112a1.547 1.547 0 0 1-1.345.782c-.264 0-.527-.07-.767-.21m4.024 2.316a1.548 1.548 0 1 1 2.112-.574 1.54 1.54 0 0 1-2.112.574m4.024 2.313a1.545 1.545 0 0 1-.572-2.113 1.547 1.547 0 1 1 2.684 1.541 1.538 1.538 0 0 1-2.112.572m4.024 2.314a1.552 1.552 0 0 1-.573-2.112 1.558 1.558 0 0 1 2.12-.574c.735.426.99 1.37.566 2.113a1.539 1.539 0 0 1-2.113.573m4.031 2.314a1.546 1.546 0 0 1-.572-2.113 1.545 1.545 0 1 1 2.678 1.54 1.527 1.527 0 0 1-2.106.573M194.896 141.494a1.548 1.548 0 0 1 .448-2.137 1.556 1.556 0 0 1 2.145.449 1.55 1.55 0 0 1-.45 2.144 1.558 1.558 0 0 1-2.144-.457m-3.892 2.538a1.55 1.55 0 0 1 2.6-1.686 1.551 1.551 0 0 1-.456 2.143 1.558 1.558 0 0 1-2.144-.457m-3.885 2.54a1.547 1.547 0 1 1 2.593-1.688 1.546 1.546 0 0 1-.449 2.136 1.54 1.54 0 0 1-2.144-.449m-3.892 2.539a1.55 1.55 0 0 1 .457-2.145 1.541 1.541 0 0 1 2.136.45 1.55 1.55 0 0 1-.45 2.144 1.559 1.559 0 0 1-2.144-.449m-3.884 2.53a1.542 1.542 0 0 1 .45-2.143 1.55 1.55 0 1 1 .843 2.848c-.503 0-.999-.248-1.293-.705M79.694 140.154a1.55 1.55 0 0 1-.565-2.112 1.56 1.56 0 0 1 2.112-.573c.743.433.999 1.378.573 2.121a1.55 1.55 0 0 1-2.12.564m4.031 2.322a1.554 1.554 0 0 1-.572-2.12 1.548 1.548 0 1 1 2.684 1.548 1.557 1.557 0 0 1-2.112.572m4.017 2.314a1.55 1.55 0 0 1-.565-2.113 1.537 1.537 0 0 1 2.112-.565c.743.426.998 1.37.565 2.113a1.535 1.535 0 0 1-1.339.774c-.262 0-.525-.07-.773-.209m4.024 2.322a1.546 1.546 0 0 1-.565-2.113 1.546 1.546 0 0 1 2.113-.572c.743.425.998 1.377.564 2.112a1.536 1.536 0 0 1-2.112.573m4.024 2.314a1.544 1.544 0 0 1-.565-2.113 1.543 1.543 0 0 1 2.113-.564c.734.425.99 1.37.572 2.112a1.567 1.567 0 0 1-1.346.774c-.264 0-.527-.07-.774-.209m4.023 2.322a1.545 1.545 0 0 1-.564-2.113 1.545 1.545 0 1 1 2.677 1.54 1.53 1.53 0 0 1-1.339.774c-.263 0-.526-.062-.774-.201M140.309 60.967a1.54 1.54 0 0 1-1.525-1.563 1.554 1.554 0 0 1 1.572-1.532c.85.016 1.531.72 1.524 1.57a1.547 1.547 0 0 1-1.548 1.525h-.023zm-.062 4.644a1.539 1.539 0 0 1-1.525-1.57 1.546 1.546 0 0 1 1.563-1.526c.86.017 1.54.72 1.525 1.571a1.542 1.542 0 0 1-1.548 1.525h-.015zm-.07 4.643a1.542 1.542 0 0 1-1.524-1.57 1.553 1.553 0 0 1 1.571-1.525c.85.016 1.54.72 1.524 1.57a1.553 1.553 0 0 1-1.548 1.525h-.023zm-.062 4.644a1.538 1.538 0 0 1-1.524-1.57 1.546 1.546 0 0 1 1.563-1.526c.859.016 1.54.712 1.532 1.571a1.548 1.548 0 0 1-1.555 1.525h-.016zm-.07 4.643a1.548 1.548 0 0 1-1.524-1.57 1.558 1.558 0 0 1 1.571-1.525 1.548 1.548 0 0 1-.023 3.095h-.023zM140.309 177.643a1.553 1.553 0 0 1-1.525-1.57c.016-.86.712-1.542 1.572-1.526.85.008 1.531.712 1.524 1.564a1.554 1.554 0 0 1-1.548 1.532h-.023zm-.062 4.644a1.561 1.561 0 0 1-1.532-1.571c.015-.86.72-1.541 1.57-1.525a1.547 1.547 0 0 1-.015 3.096h-.023zm-.07 4.643a1.56 1.56 0 0 1-1.524-1.57c.015-.86.712-1.542 1.571-1.526a1.54 1.54 0 0 1 1.524 1.564 1.554 1.554 0 0 1-1.548 1.532h-.023zm-.062 4.644a1.549 1.549 0 0 1-1.524-1.571c.008-.86.712-1.541 1.563-1.525a1.547 1.547 0 0 1-.016 3.096h-.023zm-.07 4.643a1.56 1.56 0 0 1-1.524-1.571c.016-.86.712-1.54 1.571-1.533.851.016 1.54.72 1.524 1.572a1.549 1.549 0 0 1-1.547 1.532h-.023z"/>
        </g>
        <g>
            <path fill="#38D611" d="M123.176 137.092l17.017 9.827 17.01-9.825v-19.65l-17.01-9.825-17.017 9.824v19.649zm17.017 13.402l-19.274-11.13-.807-.415-.031-.962v-22.33l20.112-11.613 20.105 11.613v23.224l-20.105 11.613z"/>
            <path fill="#FA0171" d="M123.239 46.017l17.016 9.825 17.017-9.825V26.366l-17.017-9.825-17.016 9.825v19.65zm17.016 13.4l-20.112-11.613V24.579l20.112-11.613 20.112 11.613v23.225l-20.112 11.612zM43.897 137.35l17.016 9.823 17.016-9.824v-19.651l-17.016-9.825-17.016 9.825v19.651zm17.016 13.398L40.8 139.136v-23.224l20.112-11.614 20.112 11.614v23.224l-20.112 11.612zM202.582 136.932l17.016 9.825 17.017-9.825V117.28l-17.017-9.825-17.016 9.825v19.65zm17.016 13.4l-20.112-11.613v-23.225l20.112-11.613 20.112 11.613v23.225l-20.112 11.612zM123.002 229.627l17.016 9.824 17.017-9.824v-19.652l-17.017-9.824-17.016 9.824v19.652zm17.016 13.399l-20.111-11.612v-23.225l20.111-11.613 20.112 11.613v23.225l-20.112 11.612z"/>
            <path fill="#38D611" d="M103.782 150.13l36.34 20.981 36.474-21.089-17.799-10.274-18.604 10.746-18.532-10.703-17.88 10.339zm36.342 24.556l-42.53-24.555 24.065-13.915 18.534 10.704 17.01-9.826v-1.787l2.32 1.286 23.261 13.428-42.66 24.665z"/>
        </g>
        <g fill="#FA0171">
            <path d="M219.014 75.037a6.384 6.384 0 0 0-6.377 6.377 6.383 6.383 0 0 0 6.377 6.376 6.383 6.383 0 0 0 6.376-6.376 6.384 6.384 0 0 0-6.376-6.377m0 13.527a7.158 7.158 0 0 1-7.15-7.15c0-3.942 3.207-7.151 7.15-7.151 3.943 0 7.15 3.209 7.15 7.15a7.158 7.158 0 0 1-7.15 7.151M61.157 75.28a6.383 6.383 0 0 0-6.376 6.377 6.383 6.383 0 0 0 6.376 6.377 6.384 6.384 0 0 0 6.376-6.377 6.384 6.384 0 0 0-6.376-6.377m0 13.528c-3.943 0-7.15-3.208-7.15-7.15 0-3.943 3.207-7.152 7.15-7.152 3.943 0 7.15 3.209 7.15 7.151 0 3.943-3.207 7.151-7.15 7.151M61.573 167.383a6.383 6.383 0 0 0-6.376 6.377 6.383 6.383 0 0 0 6.376 6.377 6.384 6.384 0 0 0 6.376-6.377 6.384 6.384 0 0 0-6.376-6.377m0 13.528c-3.943 0-7.15-3.208-7.15-7.151 0-3.943 3.207-7.151 7.15-7.151 3.942 0 7.15 3.208 7.15 7.15 0 3.944-3.208 7.152-7.15 7.152M219.014 168.268a6.384 6.384 0 0 0-6.377 6.377 6.384 6.384 0 0 0 6.377 6.377 6.384 6.384 0 0 0 6.376-6.377 6.384 6.384 0 0 0-6.376-6.377m0 13.528c-3.943 0-7.15-3.208-7.15-7.151 0-3.943 3.207-7.151 7.15-7.151 3.943 0 7.15 3.208 7.15 7.15 0 3.944-3.207 7.152-7.15 7.152"/>
        </g>
    </g>
</svg>
