<svg xmlns="http://www.w3.org/2000/svg" xmlns:xlink="http://www.w3.org/1999/xlink" width="284" height="267" viewBox="0 0 284 267">
    <defs>
        <path id="a" d="M157.25 53.998l-18.563 10.718-18.564-10.718V32.561l18.564-10.72 18.564 10.72z"/>
        <linearGradient id="b" x1="0%" x2="100.016%" y1="50.002%" y2="50.002%">
            <stop offset="0%" stop-color="#304A6C"/>
            <stop offset="100%" stop-color="#38D611"/>
        </linearGradient>
        <path id="d" d="M78.331 191.957l-18.564 10.72-18.563-10.72V170.52l18.563-10.718 18.564 10.718z"/>
        <path id="f" d="M38.66 32.907L20.098 43.625 1.533 32.907V11.47L20.097.751l18.564 10.718z"/>
        <linearGradient id="g" x1="-.143%" y1="49.996%" y2="49.996%">
            <stop offset="0%" stop-color="#304A6C"/>
            <stop offset="100%" stop-color="#FA0171"/>
        </linearGradient>
        <path id="i" d="M77.972 78.255L59.408 88.974l-18.563-10.72V56.818l18.563-10.719 18.564 10.719z"/>
        <path id="k" d="M209.764 154.284l-18.563 10.718-18.565-10.718v-21.438l18.565-10.719 18.563 10.719z"/>
    </defs>
    <g fill="none" fill-rule="evenodd">
        <g stroke="#00152B" stroke-width=".5" opacity=".2">
            <path d="M81.103 93.155V70.32L61.332 58.903 41.568 70.32v22.835l19.764 11.417z"/>
            <path d="M61.332 104.588v-22.85L41.568 70.32 21.797 58.903V44.008"/>
            <path d="M81.103 70.32L61.332 81.738 41.568 93.155M81.103 93.155L61.332 81.738M120.638 93.147l-19.764 11.418v22.834l19.764 11.418 19.771-11.418v-22.834"/>
            <path d="M100.874 104.565l19.764 11.417v45.933"/>
            <path d="M140.41 104.565l-19.772 11.417-19.764 11.417"/>
            <path d="M120.638 115.982l19.771 11.417 13.587 8.259 6.317 3.842V93.046l19.77-11.417M120.638 93.147V70.313l-19.764-11.418-19.771 11.418v22.834l19.771 11.418z"/>
            <path d="M81.103 93.147l19.771-11.417 19.764-11.417 19.771-10.72V81.73M61.332 127.407v-22.835L41.568 93.155l-19.771 11.417v22.835l19.771 11.417"/>
            <path d="M21.797 89.802l-13.23 7.374 13.23 7.396 19.771 11.418v22.85"/>
            <path d="M61.332 104.572L41.568 115.99l-19.771 11.417v23.518l-19.888 10.99v-22.508M61.332 127.407L41.568 115.99"/>
            <path d="M100.874 127.4v-22.835L81.103 93.147l-19.771 11.418v22.834l19.771 11.418z"/>
            <path d="M61.332 104.565l19.771 11.417v22.85l-19.771 11.96 19.771 11.643 19.771-11.51M100.874 104.565l-19.771 11.417-19.771 11.417M8.567 66.517l13.23-7.614M8.567 112.117V97.176M81.103 24.923v22.772L61.332 58.903V35.921M120.638 93.147L100.874 81.73V44.008l13.549-7.955M127.482 51.452l12.927 8.142M41.568 161.915l-19.771-10.99M272.314 181.18v-22.835l-19.771-11.417-19.772 11.417v22.835l19.772 11.417z"/>
            <path d="M272.314 158.345l-19.771 11.417-19.772 11.418M252.543 215.432v-22.835L232.77 181.18 213 192.597v22.835l19.771 11.41"/>
            <path d="M199.778 185.192L213 192.597l19.771 11.417v22.843"/>
            <path d="M213 238.166v-22.734l19.771-11.418 19.772-11.417v-22.858M252.543 215.424l-19.772-11.41M199.855 70.22V47.384l19.764-11.418 19.771 11.418v22.834L219.62 81.637z"/>
            <path d="M219.619 81.645V58.802l19.771-11.417 19.772-11.418V21.065"/>
            <path d="M199.855 47.385l19.764 11.417L239.39 70.22M199.855 70.22l19.764-11.418M160.313 70.212l19.77 11.417v22.835l-19.77 11.41-19.764-11.41V81.629"/>
            <path d="M140.549 81.629l19.764 11.417 19.77 11.418M160.313 93.046l-19.764 11.418M160.313 70.212V47.377l19.77-11.417 19.772 11.417v22.835l-19.771 11.417z"/>
            <path d="M199.716 70.212l-19.764-11.418-19.771-11.417-19.772-10.719V59.57M219.619 104.464V81.637l19.771-11.418 19.772 11.418v22.827L239.39 115.88"/>
            <path d="M259.162 66.859l13.222 7.373-13.222 7.405-19.772 11.417v22.843"/>
            <path d="M219.619 81.637l19.771 11.417 19.772 11.41v23.517l19.887 10.999V116.47M219.619 104.464l19.771-11.41"/>
            <path d="M180.084 104.464V81.629l19.771-11.417 19.764 11.417v22.835l-19.764 11.41z"/>
            <path d="M219.619 81.629l-19.764 11.417v22.843l19.764 11.968-19.764 11.643-19.849-11.557"/>
            <path d="M180.084 81.629l19.771 11.417 19.764 11.418M199.855 1.98v22.772l19.764 11.215V12.985M160.313 70.212l19.77-11.418V21.065l-13.547-7.956M153.337 28.516l-12.928 8.142M140.471 196.78v22.835l-19.771 11.41-19.771-11.41v-22.834l19.771-11.418z"/>
            <path d="M120.7 185.348v22.85l-19.771 11.417-19.764 11.41v14.902M140.471 219.615L120.7 208.198l-19.771-11.417M140.471 196.78L120.7 208.199M180.006 196.788l-19.763-11.417v-22.835l19.763-11.417 19.772 11.417v22.835"/>
            <path d="M160.243 185.371l19.763-11.417v-46.011"/>
            <path d="M199.778 185.371l-19.772-11.417-19.763-11.418"/>
            <path d="M180.006 173.954l19.772-11.418 13.587-8.258M180.006 196.788v22.827l-19.763 11.418-19.772-11.418v-22.827l19.772-11.417z"/>
            <path d="M140.471 196.788l19.772 11.418 19.763 11.41 14.837 8.048L213 237.684M120.7 162.528v22.835l-19.771 11.418-19.764-11.418v-22.835"/>
            <path d="M81.165 200.134l-13.23-7.374 13.23-7.397 19.764-11.417v-22.85M120.7 162.528l-19.771 11.418M160.243 162.536v22.835l-19.772 11.417-19.771-11.417v-22.835l19.771-11.417z"/>
            <path d="M120.7 185.371l19.771-11.417v-22.85L120.7 139.142"/>
            <path d="M160.243 185.371l-19.772-11.417-19.771-11.418M67.935 223.418l13.23 7.615M67.935 177.819v14.941M140.471 265.013V242.24L120.7 231.025v22.99M180.006 196.788l-19.763 11.418V245.927l13.548 7.956M232.771 158.345l39.543 22.835"/>
        </g>
        <g fill="#00152B" fill-rule="nonzero" opacity=".3">
            <ellipse cx="21.797" cy="42.961" rx="1.901" ry="1.902"/>
            <ellipse cx="7.961" cy="66.517" rx="1.901" ry="1.902"/>
            <ellipse cx="21.797" cy="58.903" rx="1.901" ry="1.902"/>
            <ellipse cx="41.335" cy="70.32" rx="1.901" ry="1.902"/>
            <ellipse cx="61.347" cy="81.629" rx="1.901" ry="1.902"/>
            <ellipse cx="100.882" cy="81.629" rx="1.901" ry="1.902"/>
            <ellipse cx="61.347" cy="58.903" rx="1.901" ry="1.902"/>
            <ellipse cx="61.347" cy="36.053" rx="1.901" ry="1.902"/>
            <ellipse cx="81.103" cy="24.923" rx="1.901" ry="1.902"/>
            <ellipse cx="81.103" cy="47.618" rx="1.901" ry="1.902"/>
            <ellipse cx="81.103" cy="70.32" rx="1.901" ry="1.902"/>
            <ellipse cx="81.103" cy="93.046" rx="1.901" ry="1.902"/>
            <ellipse cx="61.347" cy="104.588" rx="1.901" ry="1.902"/>
            <ellipse cx="61.332" cy="127.547" rx="1.901" ry="1.902"/>
            <ellipse cx="41.335" cy="116.005" rx="1.901" ry="1.902"/>
            <ellipse cx="41.188" cy="138.817" rx="1.901" ry="1.902"/>
            <ellipse cx="21.797" cy="127.399" rx="1.901" ry="1.902"/>
            <ellipse cx="21.797" cy="150.925" rx="1.901" ry="1.902"/>
            <ellipse cx="40.939" cy="161.628" rx="1.901" ry="1.902"/>
            <ellipse cx="1.909" cy="161.628" rx="1.901" ry="1.902"/>
            <ellipse cx="1.909" cy="139.896" rx="1.901" ry="1.902"/>
            <ellipse cx="81.103" cy="116.005" rx="1.901" ry="1.902"/>
            <ellipse cx="81.165" cy="138.817" rx="1.901" ry="1.902"/>
            <ellipse cx="100.874" cy="127.547" rx="1.901" ry="1.902"/>
            <ellipse cx="61.347" cy="150.925" rx="1.901" ry="1.902"/>
            <ellipse cx="100.882" cy="59.175" rx="1.901" ry="1.902"/>
            <ellipse cx="100.936" cy="44.008" rx="1.901" ry="1.902"/>
            <ellipse cx="114.345" cy="36.053" rx="1.901" ry="1.902"/>
            <ellipse cx="120.638" cy="70.592" rx="1.901" ry="1.902"/>
            <ellipse cx="127.482" cy="51.529" rx="1.901" ry="1.902"/>
            <ellipse cx="140.409" cy="59.594" rx="1.901" ry="1.902"/>
            <ellipse cx="140.409" cy="36.658" rx="1.901" ry="1.902"/>
            <ellipse cx="153.337" cy="28.516" rx="1.901" ry="1.902"/>
            <ellipse cx="160.313" cy="47.385" rx="1.901" ry="1.902"/>
            <ellipse cx="160.313" cy="70.32" rx="1.901" ry="1.902"/>
            <ellipse cx="199.716" cy="70.212" rx="1.901" ry="1.902"/>
            <ellipse cx="180.006" cy="59.283" rx="1.901" ry="1.902"/>
            <ellipse cx="180.084" cy="81.629" rx="1.901" ry="1.902"/>
            <ellipse cx="180.154" cy="104.332" rx="1.901" ry="1.902"/>
            <ellipse cx="219.557" cy="104.223" rx="1.901" ry="1.902"/>
            <ellipse cx="239.39" cy="93.054" rx="1.901" ry="1.902"/>
            <ellipse cx="239.39" cy="115.982" rx="1.901" ry="1.902"/>
            <ellipse cx="219.557" cy="127.943" rx="1.901" ry="1.902"/>
            <ellipse cx="200.329" cy="139.143" rx="1.901" ry="1.902"/>
            <ellipse cx="180.154" cy="128.463" rx="1.901" ry="1.902"/>
            <ellipse cx="180.006" cy="151.119" rx="1.901" ry="1.902"/>
            <ellipse cx="199.778" cy="162.536" rx="1.901" ry="1.902"/>
            <ellipse cx="160.313" cy="162.87" rx="1.901" ry="1.902"/>
            <ellipse cx="213.008" cy="154.278" rx="1.901" ry="1.902"/>
            <ellipse cx="259.162" cy="104.332" rx="1.901" ry="1.902"/>
            <ellipse cx="279.049" cy="116.898" rx="1.901" ry="1.902"/>
            <ellipse cx="279.049" cy="138.817" rx="1.901" ry="1.902"/>
            <ellipse cx="259.162" cy="127.943" rx="1.901" ry="1.902"/>
            <ellipse cx="199.848" cy="93.295" rx="1.901" ry="1.902"/>
            <ellipse cx="199.917" cy="115.64" rx="1.901" ry="1.902"/>
            <ellipse cx="199.855" cy="47.618" rx="1.901" ry="1.902"/>
            <ellipse cx="180.084" cy="36.053" rx="1.901" ry="1.902"/>
            <ellipse cx="238.847" cy="70.165" rx="1.901" ry="1.902"/>
            <ellipse cx="219.138" cy="59.237" rx="1.901" ry="1.902"/>
            <ellipse cx="219.619" cy="81.582" rx="1.901" ry="1.902"/>
            <ellipse cx="252.481" cy="170.003" rx="1.901" ry="1.902"/>
            <ellipse cx="272.314" cy="158.826" rx="1.901" ry="1.902"/>
            <ellipse cx="272.314" cy="180.986" rx="1.901" ry="1.902"/>
            <ellipse cx="252.481" cy="192.162" rx="1.901" ry="1.902"/>
            <ellipse cx="232.771" cy="159.075" rx="1.901" ry="1.902"/>
            <ellipse cx="232.841" cy="181.413" rx="1.901" ry="1.902"/>
            <ellipse cx="232.717" cy="204.1" rx="1.901" ry="1.902"/>
            <ellipse cx="252.481" cy="214.927" rx="1.901" ry="1.902"/>
            <ellipse cx="232.717" cy="226.267" rx="1.901" ry="1.902"/>
            <ellipse cx="213.008" cy="193.171" rx="1.901" ry="1.902"/>
            <ellipse cx="180.006" cy="173.946" rx="1.901" ry="1.902"/>
            <ellipse cx="160.313" cy="185.192" rx="1.901" ry="1.902"/>
            <ellipse cx="199.778" cy="185.371" rx="1.901" ry="1.902"/>
            <ellipse cx="213.078" cy="215.517" rx="1.901" ry="1.902"/>
            <ellipse cx="180.053" cy="196.75" rx="1.901" ry="1.902"/>
            <ellipse cx="160.289" cy="207.911" rx="1.901" ry="1.902"/>
            <ellipse cx="180.053" cy="219.514" rx="1.901" ry="1.902"/>
            <ellipse cx="160.289" cy="230.854" rx="1.901" ry="1.902"/>
            <ellipse cx="160.289" cy="245.927" rx="1.901" ry="1.902"/>
            <ellipse cx="140.471" cy="265.013" rx="1.901" ry="1.902"/>
            <ellipse cx="140.471" cy="242.132" rx="1.901" ry="1.902"/>
            <ellipse cx="120.7" cy="253.883" rx="1.901" ry="1.902"/>
            <ellipse cx="120.7" cy="230.854" rx="1.901" ry="1.902"/>
            <ellipse cx="100.874" cy="219.514" rx="1.901" ry="1.902"/>
            <ellipse cx="81.165" cy="230.854" rx="1.901" ry="1.902"/>
            <ellipse cx="81.103" cy="245.927" rx="1.901" ry="1.902"/>
            <ellipse cx="67.935" cy="223.418" rx="1.901" ry="1.902"/>
            <ellipse cx="173.869" cy="253.883" rx="1.901" ry="1.902"/>
            <ellipse cx="140.58" cy="197.766" rx="1.901" ry="1.902"/>
            <ellipse cx="120.638" cy="208.206" rx="1.901" ry="1.902"/>
            <ellipse cx="100.929" cy="196.75" rx="1.901" ry="1.902"/>
            <ellipse cx="120.7" cy="185.371" rx="1.901" ry="1.902"/>
            <ellipse cx="140.409" cy="173.946" rx="1.901" ry="1.902"/>
            <ellipse cx="140.409" cy="151.119" rx="1.901" ry="1.902"/>
            <ellipse cx="120.638" cy="162.536" rx="1.901" ry="1.902"/>
            <ellipse cx="100.929" cy="173.946" rx="1.901" ry="1.902"/>
            <ellipse cx="81.165" cy="185.348" rx="1.901" ry="1.902"/>
            <ellipse cx="81.165" cy="162.435" rx="1.901" ry="1.902"/>
            <ellipse cx="100.874" cy="151.096" rx="1.901" ry="1.902"/>
            <ellipse cx="67.935" cy="192.597" rx="1.901" ry="1.902"/>
            <ellipse cx="67.935" cy="177.819" rx="1.901" ry="1.902"/>
            <ellipse cx="81.103" cy="200.134" rx="1.901" ry="1.902"/>
            <ellipse cx="140.65" cy="220.104" rx="1.901" ry="1.902"/>
            <ellipse cx="213.078" cy="237.684" rx="1.901" ry="1.902"/>
            <ellipse cx="252.55" cy="147.362" rx="1.901" ry="1.902"/>
            <ellipse cx="238.979" cy="47.579" rx="1.901" ry="1.902"/>
            <ellipse cx="259.162" cy="21.065" rx="1.901" ry="1.902"/>
            <ellipse cx="219.619" cy="35.96" rx="1.901" ry="1.902"/>
            <ellipse cx="259.162" cy="35.96" rx="1.901" ry="1.902"/>
            <ellipse cx="259.938" cy="67.301" rx="1.901" ry="1.902"/>
            <ellipse cx="272.384" cy="74.124" rx="1.901" ry="1.902"/>
            <ellipse cx="259.162" cy="81.582" rx="1.901" ry="1.902"/>
            <ellipse cx="219.619" cy="13.109" rx="1.901" ry="1.902"/>
            <ellipse cx="199.855" cy="2.36" rx="1.901" ry="1.902"/>
            <ellipse cx="199.855" cy="24.713" rx="1.901" ry="1.902"/>
            <ellipse cx="180.006" cy="21.065" rx="1.901" ry="1.902"/>
            <ellipse cx="166.885" cy="13.109" rx="1.901" ry="1.902"/>
            <ellipse cx="120.638" cy="93.318" rx="1.901" ry="1.902"/>
            <ellipse cx="100.882" cy="104.86" rx="1.901" ry="1.902"/>
            <ellipse cx="120.7" cy="115.866" rx="1.901" ry="1.902"/>
            <ellipse cx="120.754" cy="138.677" rx="1.901" ry="1.902"/>
            <ellipse cx="140.464" cy="127.407" rx="1.901" ry="1.902"/>
            <ellipse cx="160.313" cy="139.143" rx="1.901" ry="1.902"/>
            <ellipse cx="140.471" cy="104.72" rx="1.901" ry="1.902"/>
            <ellipse cx="160.313" cy="93.046" rx="1.901" ry="1.902"/>
            <ellipse cx="140.549" cy="81.582" rx="1.901" ry="1.902"/>
            <ellipse cx="160.243" cy="115.64" rx="1.901" ry="1.902"/>
            <ellipse cx="41.568" cy="93.171" rx="1.901" ry="1.902"/>
            <ellipse cx="22.262" cy="104.86" rx="1.901" ry="1.902"/>
            <ellipse cx="8.567" cy="97.176" rx="1.901" ry="1.902"/>
            <ellipse cx="8.567" cy="112.117" rx="1.901" ry="1.902"/>
            <ellipse cx="21.797" cy="89.802" rx="1.901" ry="1.902"/>
        </g>
        <g fill="#00152B" fill-rule="nonzero" opacity=".1" transform="translate(3.104 15.523)">
            <ellipse cx="18.576" cy="27.197" rx="4.943" ry="4.944"/>
            <ellipse cx="77.999" cy="31.861" rx="4.943" ry="4.944"/>
            <ellipse cx="124.378" cy="35.835" rx="4.943" ry="4.944"/>
            <ellipse cx="256.058" cy="5.363" rx="4.943" ry="4.944"/>
            <ellipse cx="216.453" cy="20.436" rx="4.943" ry="4.944"/>
            <ellipse cx="176.903" cy="5.72" rx="4.943" ry="4.944"/>
            <ellipse cx="256.058" cy="66.121" rx="4.943" ry="4.944"/>
            <ellipse cx="275.946" cy="123.154" rx="4.943" ry="4.944"/>
            <ellipse cx="269.28" cy="165.462" rx="4.943" ry="4.944"/>
            <ellipse cx="229.613" cy="210.744" rx="4.943" ry="4.944"/>
            <ellipse cx="249.439" cy="131.839" rx="4.943" ry="4.944"/>
            <ellipse cx="157.108" cy="230.404" rx="4.943" ry="4.944"/>
            <ellipse cx="117.596" cy="238.36" rx="4.943" ry="4.944"/>
            <ellipse cx="77.999" cy="215.331" rx="4.943" ry="4.944"/>
            <ellipse cx="197.225" cy="123.293" rx="4.943" ry="4.944"/>
            <ellipse cx="97.77" cy="135.596" rx="4.943" ry="4.944"/>
            <ellipse cx="117.534" cy="77.795" rx="4.943" ry="4.944"/>
            <ellipse cx="5.463" cy="81.652" rx="4.943" ry="4.944"/>
            <ellipse cx="64.831" cy="177.237" rx="4.943" ry="4.944"/>
            <ellipse cx="137.305" cy="158.43" rx="4.943" ry="4.944"/>
            <ellipse cx="18.693" cy="135.402" rx="4.943" ry="4.944"/>
            <ellipse cx="38.084" cy="54.688" rx="4.943" ry="4.944"/>
        </g>
        <path fill="#FA0171" d="M78.889 73.016c-.108 0-.21-.008-.31-.03a1.282 1.282 0 0 1-.55-.232 1.533 1.533 0 0 1-.689-1.285c.001-.41.164-.806.45-1.091.077-.078.155-.14.24-.194.085-.054.17-.109.262-.148.094-.037.194-.061.295-.085a1.584 1.584 0 0 1 .89.085c.093.04.186.094.27.148.086.054.163.116.233.194.07.07.14.146.193.232.054.084.101.17.14.262.038.1.07.194.093.294.014.101.03.202.03.302 0 .418-.162.805-.456 1.091-.07.079-.155.14-.24.194-.077.062-.17.11-.263.148a1.747 1.747 0 0 1-.286.084c-.1.023-.202.031-.302.031M94.9 62.29a1.555 1.555 0 0 1 .58-2.113 1.556 1.556 0 0 1 2.112.58 1.546 1.546 0 0 1-1.346 2.315c-.534 0-1.06-.28-1.347-.782m-4.333 2.492a1.547 1.547 0 0 1 .573-2.113 1.545 1.545 0 0 1 2.112.572 1.546 1.546 0 0 1-.572 2.114 1.562 1.562 0 0 1-2.113-.573m-4.342 2.484a1.546 1.546 0 0 1 .573-2.112 1.548 1.548 0 1 1 1.54 2.685c-.248.14-.51.208-.773.208a1.554 1.554 0 0 1-1.34-.78m-4.34 2.484a1.546 1.546 0 0 1 .573-2.113 1.547 1.547 0 1 1 1.54 2.685c-.24.14-.503.209-.767.209-.534 0-1.06-.278-1.346-.781M100.587 60.587c-.2 0-.403-.038-.596-.116a1.538 1.538 0 0 1-.495-.34 1.522 1.522 0 0 1-.456-1.091c0-.41.162-.805.456-1.092.573-.58 1.61-.58 2.183 0 .294.287.456.681.456 1.092 0 .41-.162.804-.457 1.09-.147.148-.309.264-.495.341a1.571 1.571 0 0 1-.596.116M99.04 49.141c0-.859.688-1.548 1.547-1.548s1.548.69 1.548 1.548a1.548 1.548 0 1 1-3.095 0m0 4.945a1.547 1.547 0 1 1 3.095 0c0 .86-.69 1.548-1.548 1.548a1.542 1.542 0 0 1-1.547-1.548M100.587 45.736c-.41 0-.797-.163-1.09-.457a1.413 1.413 0 0 1-.202-.232c-.054-.085-.1-.17-.14-.263a1.39 1.39 0 0 1-.084-.287 1.392 1.392 0 0 1-.031-.31c0-.1.007-.2.03-.301.016-.1.047-.194.085-.286.04-.093.094-.186.148-.27.054-.086.116-.163.193-.233.07-.07.147-.14.232-.193.086-.054.17-.11.263-.148a1.588 1.588 0 0 1 1.192 0c.093.039.178.094.263.148.085.053.163.123.233.193.077.07.139.147.193.233.053.084.108.177.147.27a1.3 1.3 0 0 1 .085.286c.023.1.031.201.031.302 0 .101-.008.21-.03.31a1.443 1.443 0 0 1-.427.781 1.464 1.464 0 0 1-1.09.457M106.229 40.876a1.54 1.54 0 0 1 .55-2.113 1.545 1.545 0 0 1 2.12.549 1.553 1.553 0 0 1-.55 2.121c-.248.139-.52.208-.79.208-.526 0-1.044-.27-1.33-.765m-3.49 2.05a1.548 1.548 0 1 1 2.12.55 1.519 1.519 0 0 1-.782.217c-.534 0-1.053-.28-1.338-.767M111.05 39.599c-.101 0-.202-.016-.302-.031-.101-.023-.2-.047-.295-.085a2.293 2.293 0 0 1-.262-.147 1.406 1.406 0 0 1-.233-.194 1.564 1.564 0 0 1-.34-.503 1.545 1.545 0 0 1-.116-.588c0-.41.162-.813.456-1.1a1.54 1.54 0 0 1 1.394-.417c.1.016.193.047.286.085.1.039.185.085.27.14.086.061.163.123.232.193.07.07.14.155.194.24a1.268 1.268 0 0 1 .232.557 1.544 1.544 0 0 1-.084.89 1.567 1.567 0 0 1-.342.503 1.535 1.535 0 0 1-1.09.457"/>
        <path fill="#FA0171" d="M108.39 45.696l1.871-7.185-7.184-1.867 3.842-2.256 7.182 1.87-1.869 7.182z"/>
        <path fill="#38D611" d="M199.298 94.632a1.562 1.562 0 0 1-1.099-.449 1.546 1.546 0 0 1-.418-1.402c.017-.1.048-.193.086-.285.038-.093.086-.186.139-.27.062-.078.124-.163.193-.233a1.565 1.565 0 0 1 1.402-.426 1.82 1.82 0 0 1 .556.232c.086.055.163.124.232.194a1.37 1.37 0 0 1 .333.503c.04.092.07.185.093.286a1.56 1.56 0 0 1-.084.899 1.575 1.575 0 0 1-.342.502 1.527 1.527 0 0 1-1.09.449M233.44 73.372a1.547 1.547 0 0 1 .573-2.112 1.553 1.553 0 0 1 2.113.564 1.56 1.56 0 0 1-.565 2.12 1.565 1.565 0 0 1-2.12-.573m-3.94 2.276a1.551 1.551 0 0 1 .566-2.112 1.555 1.555 0 0 1 2.12.572 1.54 1.54 0 0 1-.572 2.106c-.24.146-.512.216-.774.216a1.535 1.535 0 0 1-1.34-.782m-3.938 2.276a1.54 1.54 0 0 1 .565-2.113 1.549 1.549 0 0 1 1.547 2.685c-.247.14-.51.202-.774.202a1.53 1.53 0 0 1-1.338-.774m-3.947 2.275a1.542 1.542 0 0 1 .565-2.104 1.536 1.536 0 0 1 2.113.564 1.54 1.54 0 0 1-.565 2.113 1.535 1.535 0 0 1-2.113-.573m-3.947 2.276a1.54 1.54 0 0 1 .573-2.106 1.539 1.539 0 0 1 2.113.566 1.546 1.546 0 0 1-.572 2.112c-.24.14-.504.21-.767.21a1.55 1.55 0 0 1-1.347-.782m-3.938 2.283a1.552 1.552 0 0 1 .564-2.113 1.537 1.537 0 0 1 2.113.565 1.536 1.536 0 0 1-.565 2.112 1.545 1.545 0 0 1-2.113-.564m-3.946 2.275a1.545 1.545 0 0 1 .573-2.112 1.537 1.537 0 0 1 2.112.564c.426.743.17 1.687-.572 2.113a1.547 1.547 0 0 1-2.113-.565m-3.939 2.276a1.538 1.538 0 0 1 .565-2.114 1.54 1.54 0 0 1 2.113.566 1.536 1.536 0 0 1-.565 2.112c-.24.14-.511.21-.774.21-.534 0-1.053-.28-1.339-.774m-3.946 2.274a1.548 1.548 0 0 1 .572-2.112 1.551 1.551 0 0 1 2.113.564c.425.743.17 1.688-.573 2.114-.24.146-.503.208-.766.208-.534 0-1.06-.278-1.346-.774M238.726 71.871c-.41 0-.797-.155-1.091-.449a1.54 1.54 0 0 1-.457-1.099c0-.1.016-.201.031-.302a1.864 1.864 0 0 1 .232-.557 1.4 1.4 0 0 1 .194-.232 1.4 1.4 0 0 1 .503-.333c.092-.038.193-.07.286-.093.201-.038.41-.038.611 0 .094.024.194.055.287.093.092.039.185.085.263.14.085.054.162.123.24.193.07.07.131.147.193.232.054.085.1.178.14.271.038.093.069.194.084.286.024.101.031.202.031.302 0 .109-.007.21-.03.31a1.55 1.55 0 0 1-.418.79 1.532 1.532 0 0 1-1.1.448M237.186 52.113c0-.858.69-1.548 1.54-1.548.86 0 1.547.69 1.547 1.548 0 .852-.688 1.548-1.547 1.548-.85 0-1.54-.696-1.54-1.548m0 4.55c0-.85.69-1.547 1.54-1.547.86 0 1.547.696 1.547 1.548 0 .859-.688 1.547-1.547 1.547-.85 0-1.54-.688-1.54-1.547m0 4.559c0-.86.69-1.557 1.54-1.557.86 0 1.547.697 1.547 1.557 0 .85-.688 1.539-1.547 1.539a1.54 1.54 0 0 1-1.54-1.54m0 4.55c0-.859.69-1.547 1.54-1.547.86 0 1.547.688 1.547 1.547 0 .852-.688 1.548-1.547 1.548-.85 0-1.54-.696-1.54-1.548M238.726 49.11c-.41 0-.797-.162-1.091-.456a1.535 1.535 0 0 1-.457-1.092c0-.108.016-.209.031-.31a1.864 1.864 0 0 1 .232-.557c.054-.084.124-.162.194-.232.356-.363.89-.526 1.4-.425.094.024.194.054.287.093.092.038.185.085.263.139.085.054.162.124.24.193.07.07.131.148.193.233.054.085.1.178.14.27.038.093.069.194.084.287.024.1.031.201.031.31 0 .1-.007.2-.03.301a1.541 1.541 0 0 1-1.517 1.246M249.877 41.123a1.56 1.56 0 0 1 .564-2.12 1.546 1.546 0 0 1 2.113.572 1.539 1.539 0 0 1-.565 2.113 1.543 1.543 0 0 1-2.112-.565m-4.163 2.4a1.553 1.553 0 0 1 .565-2.113 1.55 1.55 0 0 1 2.112.565 1.536 1.536 0 0 1-.565 2.112c-.24.14-.511.21-.774.21-.534 0-1.052-.28-1.338-.774m-4.164 2.406a1.546 1.546 0 0 1 .572-2.113 1.53 1.53 0 0 1 2.106.565 1.539 1.539 0 0 1-.565 2.113 1.544 1.544 0 0 1-2.113-.565M255.38 39.49c-.41 0-.806-.162-1.092-.456a1.464 1.464 0 0 1-.456-1.091c0-.1.007-.201.03-.303.023-.1.054-.193.093-.294.039-.093.085-.177.14-.262.053-.086.123-.163.193-.232.07-.078.146-.14.232-.194.085-.054.177-.108.27-.148a1.588 1.588 0 0 1 .89-.084c.102.022.201.046.295.084.093.04.178.094.262.148.086.054.163.116.241.194.07.07.132.146.194.232.053.085.1.17.139.262.038.1.069.194.085.294a1.56 1.56 0 0 1-.085.899 1.559 1.559 0 0 1-1.432.952"/>
        <path fill="#38D611" d="M252.665 45.572l1.923-7.171-7.17-1.919 3.858-2.228 7.169 1.92-1.921 7.17zM119.33 232.064c-.41 0-.805-.155-1.092-.45a1.535 1.535 0 0 1-.425-1.4c.023-.094.047-.194.085-.287.039-.092.094-.185.147-.27a1.81 1.81 0 0 1 .193-.232c.07-.07.148-.132.233-.194a1.79 1.79 0 0 1 .557-.232c.201-.04.402-.04.603 0a1.72 1.72 0 0 1 .558.232c.085.062.162.124.24.194a1.745 1.745 0 0 1 .333.502c.038.093.069.193.084.286a1.56 1.56 0 0 1-.418 1.402 1.559 1.559 0 0 1-1.098.449M134.567 222.273a1.547 1.547 0 1 1 2.722-1.47 1.547 1.547 0 0 1-2.722 1.47m-4.148 2.245a1.544 1.544 0 0 1 .618-2.098 1.55 1.55 0 0 1 2.097.627 1.542 1.542 0 0 1-1.354 2.283c-.55 0-1.082-.294-1.36-.812m-4.15 2.252a1.552 1.552 0 0 1 .62-2.105 1.552 1.552 0 0 1 2.097.627 1.543 1.543 0 0 1-1.362 2.283c-.55 0-1.075-.295-1.354-.805m-4.155 2.244a1.552 1.552 0 0 1 .627-2.097 1.542 1.542 0 0 1 2.097.619c.41.758.131 1.695-.62 2.106-.24.123-.487.185-.735.185a1.571 1.571 0 0 1-1.37-.813M140.077 220.842c-.41 0-.797-.163-1.091-.457a1.533 1.533 0 0 1 0-2.182c.363-.364.889-.526 1.393-.426a1.732 1.732 0 0 1 .556.232c.086.054.162.124.232.194.078.07.14.146.194.232.061.085.109.178.147.27a1.3 1.3 0 0 1 .086.286 1.52 1.52 0 0 1-.426 1.394 1.534 1.534 0 0 1-1.091.457M138.53 201.076c0-.852.695-1.54 1.547-1.54a1.54 1.54 0 0 1 1.547 1.54 1.55 1.55 0 0 1-1.547 1.556 1.554 1.554 0 0 1-1.548-1.556m0 4.558a1.548 1.548 0 1 1 3.095 0 1.548 1.548 0 0 1-3.095 0m0 4.558c0-.858.696-1.555 1.548-1.555a1.55 1.55 0 0 1 1.547 1.555c0 .852-.689 1.54-1.547 1.54a1.545 1.545 0 0 1-1.548-1.54m0 4.551c0-.859.696-1.548 1.548-1.548a1.548 1.548 0 1 1-1.548 1.548M140.077 198.073c-.21 0-.403-.04-.59-.116a1.572 1.572 0 0 1-.501-.333 1.32 1.32 0 0 1-.194-.24 1.243 1.243 0 0 1-.148-.263 2.013 2.013 0 0 1-.084-.287 1.39 1.39 0 0 1-.03-.309c0-.1.007-.202.03-.302.022-.1.046-.194.092-.286.031-.093.086-.185.14-.27a1.04 1.04 0 0 1 .194-.233c.572-.58 1.61-.572 2.181 0 .078.07.14.147.194.232.061.086.109.178.147.27a1.3 1.3 0 0 1 .086.287c.022.1.03.201.03.302 0 .101-.008.21-.03.31a1.443 1.443 0 0 1-.225.549 1.892 1.892 0 0 1-.202.24c-.14.14-.309.256-.494.333a1.56 1.56 0 0 1-.596.116M193.936 165.43a1.545 1.545 0 0 1 .573-2.113 1.538 1.538 0 0 1 2.112.564 1.552 1.552 0 0 1-1.339 2.322c-.534 0-1.06-.278-1.346-.774m-3.939 2.275a1.546 1.546 0 1 1 2.677-1.548 1.539 1.539 0 0 1-.564 2.113 1.544 1.544 0 0 1-2.113-.565m-3.947 2.276a1.548 1.548 0 0 1 .573-2.113 1.54 1.54 0 0 1 2.113.565 1.55 1.55 0 0 1-2.686 1.548m-3.938 2.275a1.537 1.537 0 0 1 .564-2.113 1.55 1.55 0 0 1 2.113.565 1.544 1.544 0 0 1-.565 2.113 1.545 1.545 0 0 1-2.113-.565m-3.946 2.276a1.553 1.553 0 0 1 .565-2.113 1.546 1.546 0 0 1 2.112.573 1.54 1.54 0 0 1-.564 2.112c-.24.14-.511.21-.767.21a1.55 1.55 0 0 1-1.346-.782m-3.939 2.275a1.54 1.54 0 0 1 .565-2.112 1.55 1.55 0 0 1 1.548 2.684c-.248.14-.511.202-.774.202-.534 0-1.053-.27-1.339-.774m-3.946 2.283a1.55 1.55 0 0 1 .564-2.113 1.537 1.537 0 0 1 2.113.565 1.539 1.539 0 0 1-.565 2.113c-.24.14-.51.209-.766.209-.542 0-1.06-.279-1.346-.774m-3.94 2.275a1.537 1.537 0 0 1 .566-2.113 1.537 1.537 0 0 1 2.112.565 1.55 1.55 0 0 1-1.339 2.322 1.545 1.545 0 0 1-1.338-.774m-3.947 2.275a1.544 1.544 0 0 1 .565-2.112 1.543 1.543 0 0 1 2.113.565 1.538 1.538 0 0 1-.565 2.113 1.545 1.545 0 0 1-2.113-.566m-3.939 2.276a1.54 1.54 0 0 1 .565-2.113 1.55 1.55 0 0 1 2.113.566 1.55 1.55 0 0 1-1.339 2.321c-.534 0-1.06-.279-1.339-.774m-3.946 2.275a1.544 1.544 0 0 1 .565-2.112 1.55 1.55 0 0 1 1.547 2.685c-.24.139-.51.209-.774.2-.534 0-1.052-.27-1.338-.773m-3.94 2.283a1.537 1.537 0 0 1 .566-2.113 1.539 1.539 0 0 1 2.112.565 1.552 1.552 0 0 1-1.338 2.322c-.534 0-1.06-.279-1.34-.774m-3.946 2.275a1.544 1.544 0 0 1 .565-2.112 1.537 1.537 0 0 1 2.113.564 1.539 1.539 0 0 1-.565 2.113c-.248.14-.511.21-.774.21a1.544 1.544 0 0 1-1.339-.775m-3.946 2.276a1.545 1.545 0 0 1 .572-2.112 1.543 1.543 0 0 1 2.112.564 1.55 1.55 0 0 1-1.338 2.322c-.534 0-1.06-.28-1.346-.774M199.221 163.92c-.1 0-.2-.008-.302-.023a1.905 1.905 0 0 1-.557-.232 1.4 1.4 0 0 1-.232-.193 1.149 1.149 0 0 1-.193-.24 1.457 1.457 0 0 1-.148-.263 1.86 1.86 0 0 1-.084-.287c-.016-.1-.031-.2-.031-.301 0-.101.015-.21.03-.31.024-.094.055-.194.093-.287a1.37 1.37 0 0 1 .333-.502c.07-.07.147-.14.232-.194a1.868 1.868 0 0 1 .557-.233c.503-.1 1.037.07 1.401.427.07.07.132.146.186.232a1.436 1.436 0 0 1 .232.556c.023.1.031.21.031.31 0 .101-.008.202-.031.302-.016.1-.047.193-.085.287a1.385 1.385 0 0 1-.14.262c-.061.086-.123.17-.193.24a1.557 1.557 0 0 1-1.099.448M199.276 145.548a1.558 1.558 0 0 1-1.54-1.557c0-.85.695-1.547 1.555-1.539.85 0 1.54.696 1.54 1.548 0 .851-.697 1.548-1.548 1.548h-.007zm-.017 4.589a1.547 1.547 0 1 1 1.556-1.54c0 .851-.696 1.54-1.548 1.54h-.008zm-.014 4.597a1.548 1.548 0 1 1 .008 0h-.008zm-.009 4.597a1.554 1.554 0 0 1-1.547-1.555 1.558 1.558 0 0 1 1.556-1.54c.851 0 1.539.696 1.539 1.547 0 .852-.688 1.548-1.54 1.548h-.008zM199.298 140.95c-.1 0-.209-.007-.301-.03-.101-.016-.2-.047-.295-.085a1.74 1.74 0 0 1-.262-.14 1.932 1.932 0 0 1-.233-.193 1.54 1.54 0 0 1-.456-1.1c0-.41.162-.804.456-1.09.573-.581 1.61-.581 2.182 0a1.54 1.54 0 0 1 0 2.19 1.56 1.56 0 0 1-1.09.448M250.054 109.43a1.552 1.552 0 0 1 .55-2.121 1.544 1.544 0 0 1 2.12.55c.434.734.186 1.679-.55 2.12-.238.14-.518.208-.78.208-.535 0-1.045-.27-1.34-.758m-4.008 2.368a1.553 1.553 0 0 1 .55-2.12 1.546 1.546 0 1 1 1.572 2.663c-.242.145-.512.216-.782.216a1.568 1.568 0 0 1-1.34-.759m-4 2.36a1.54 1.54 0 0 1 .542-2.112 1.542 1.542 0 0 1 2.12.542 1.545 1.545 0 0 1-.55 2.12 1.535 1.535 0 0 1-2.113-.55m-4.007 2.37a1.55 1.55 0 0 1 .541-2.121 1.55 1.55 0 0 1 2.12.549 1.549 1.549 0 0 1-1.331 2.336 1.55 1.55 0 0 1-1.33-.765m-4.01 2.367a1.545 1.545 0 0 1 .55-2.12 1.547 1.547 0 0 1 2.12.55c.434.735.186 1.68-.55 2.12-.247.14-.518.21-.788.21a1.545 1.545 0 0 1-1.332-.76m-4.008 2.37a1.552 1.552 0 0 1 2.67-1.58 1.551 1.551 0 0 1-2.67 1.58m-4.008 2.36a1.542 1.542 0 0 1 .55-2.114 1.546 1.546 0 1 1 1.57 2.663 1.54 1.54 0 0 1-2.12-.55m-4 2.368a1.55 1.55 0 0 1 .54-2.12 1.552 1.552 0 0 1 1.579 2.67 1.528 1.528 0 0 1-.79.217c-.525 0-1.043-.28-1.33-.767m-4.009 2.37a1.543 1.543 0 0 1 .542-2.121 1.551 1.551 0 0 1 1.578 2.67c-.247.139-.518.208-.788.208-.527 0-1.046-.27-1.332-.758m-4.009 2.368a1.546 1.546 0 0 1 .55-2.12 1.542 1.542 0 0 1 2.113.54 1.55 1.55 0 0 1-1.332 2.339 1.546 1.546 0 0 1-1.33-.759m-4.008 2.369a1.558 1.558 0 0 1 .541-2.129 1.567 1.567 0 0 1 2.128.55 1.552 1.552 0 0 1-2.67 1.579m-4.009 2.36a1.544 1.544 0 0 1 .55-2.114 1.542 1.542 0 0 1 2.12.543 1.551 1.551 0 0 1-1.33 2.337c-.535 0-1.045-.27-1.34-.766m-4 2.367a1.552 1.552 0 0 1 .541-2.12 1.554 1.554 0 0 1 2.121.55c.433.735.194 1.68-.549 2.12a1.554 1.554 0 0 1-2.113-.55M255.394 107.827c-.1 0-.2-.016-.301-.03a1.768 1.768 0 0 1-.55-.233 1.459 1.459 0 0 1-.433-.433 1.769 1.769 0 0 1-.232-.55c-.015-.1-.031-.201-.031-.31 0-.1.016-.201.03-.301a1.896 1.896 0 0 1 .232-.557 1.573 1.573 0 0 1 1.594-.658c.094.023.194.054.288.092.092.04.185.086.262.14.085.054.17.124.24.193.07.07.132.155.194.232a1.82 1.82 0 0 1 .232.558c.015.1.03.2.03.301 0 .109-.015.21-.03.31a1.769 1.769 0 0 1-.232.55c-.055.085-.124.17-.194.24a1.546 1.546 0 0 1-.502.332 1.553 1.553 0 0 1-.597.124"/>
        <path fill="#38D611" d="M252.757 113.93l1.854-7.189-7.19-1.849 3.837-2.265 7.187 1.85-1.851 7.187z"/>
        <path fill="#FA0171" d="M191.8 29.391a1.549 1.549 0 0 1 2.67-1.57 1.546 1.546 0 0 1-.558 2.12c-.247.146-.51.216-.78.216a1.55 1.55 0 0 1-1.332-.766m-4.01 2.344a1.552 1.552 0 0 1 .55-2.12 1.56 1.56 0 0 1 2.121.558 1.536 1.536 0 0 1-.557 2.112 1.537 1.537 0 0 1-2.113-.55m-4.008 2.346a1.539 1.539 0 0 1 .557-2.113 1.542 1.542 0 0 1 2.113.55 1.551 1.551 0 0 1-.55 2.12 1.549 1.549 0 0 1-2.12-.556m-4 2.352a1.55 1.55 0 0 1 .549-2.121 1.552 1.552 0 0 1 2.12.55 1.554 1.554 0 0 1-.557 2.12 1.51 1.51 0 0 1-.782.217c-.526 0-1.044-.28-1.33-.766m-4.01 2.345a1.55 1.55 0 0 1 .55-2.12 1.557 1.557 0 0 1 2.12.556 1.548 1.548 0 1 1-2.67 1.564m-4.008 2.344a1.538 1.538 0 0 1 .558-2.112 1.55 1.55 0 0 1 2.12.55 1.56 1.56 0 0 1-.557 2.12 1.53 1.53 0 0 1-.782.208c-.535 0-1.053-.27-1.34-.766m-4 2.353a1.547 1.547 0 1 1 2.67-1.563c.434.735.186 1.68-.557 2.112-.24.148-.51.217-.781.217a1.552 1.552 0 0 1-1.332-.766m-4.008 2.345a1.552 1.552 0 0 1 .55-2.12 1.56 1.56 0 0 1 2.12.557 1.546 1.546 0 0 1-1.332 2.33 1.538 1.538 0 0 1-1.338-.767m-4.008 2.345a1.544 1.544 0 0 1 .55-2.113 1.55 1.55 0 0 1 1.57 2.67c-.248.14-.52.21-.782.21a1.54 1.54 0 0 1-1.338-.767m-4.001 2.353a1.546 1.546 0 1 1 2.669-1.564c.426.735.186 1.68-.556 2.114a1.521 1.521 0 0 1-.782.216 1.55 1.55 0 0 1-1.331-.766m-4.01 2.344a1.551 1.551 0 0 1 .55-2.12 1.553 1.553 0 0 1 2.121.558 1.548 1.548 0 1 1-2.67 1.562m-4.008 2.345a1.535 1.535 0 0 1 .557-2.112 1.542 1.542 0 0 1 2.113.55 1.551 1.551 0 0 1-.55 2.12c-.247.14-.518.21-.782.21-.533 0-1.052-.272-1.338-.768m-4.009 2.353a1.553 1.553 0 0 1 .558-2.12 1.548 1.548 0 1 1 1.562 2.67c-.247.147-.51.217-.78.217-.527 0-1.046-.28-1.34-.767m-4 2.346a1.553 1.553 0 0 1 .55-2.122 1.552 1.552 0 0 1 1.57 2.678c-.248.14-.518.21-.782.21a1.538 1.538 0 0 1-1.338-.766m-1.246 3.265c0-.85.688-1.548 1.54-1.548.858 0 1.555.697 1.555 1.548 0 .86-.697 1.548-1.555 1.548a1.54 1.54 0 0 1-1.54-1.548m0 4.643c0-.85.688-1.548 1.54-1.548.858 0 1.555.698 1.555 1.548 0 .86-.697 1.548-1.555 1.548a1.54 1.54 0 0 1-1.54-1.548m0 4.644c0-.85.688-1.548 1.54-1.548.858 0 1.555.697 1.555 1.548 0 .86-.697 1.548-1.555 1.548a1.54 1.54 0 0 1-1.54-1.548m0 4.643c0-.85.688-1.548 1.54-1.548.858 0 1.555.698 1.555 1.548 0 .86-.697 1.548-1.555 1.548a1.54 1.54 0 0 1-1.54-1.548m0 4.644c0-.85.688-1.548 1.54-1.548.858 0 1.555.697 1.555 1.548 0 .86-.697 1.548-1.555 1.548a1.54 1.54 0 0 1-1.54-1.548m0 4.643c0-.85.688-1.548 1.54-1.548.858 0 1.555.698 1.555 1.548 0 .86-.697 1.548-1.555 1.548a1.54 1.54 0 0 1-1.54-1.548m0 4.644c0-.85.688-1.548 1.54-1.548.858 0 1.555.697 1.555 1.548 0 .86-.697 1.548-1.555 1.548a1.54 1.54 0 0 1-1.54-1.548m0 4.643c0-.85.688-1.548 1.54-1.548.858 0 1.555.698 1.555 1.548 0 .86-.697 1.548-1.555 1.548a1.54 1.54 0 0 1-1.54-1.548m0 4.644c0-.85.688-1.548 1.54-1.548.858 0 1.555.697 1.555 1.548 0 .86-.697 1.547-1.555 1.547a1.54 1.54 0 0 1-1.54-1.547m-.186 5.13a1.546 1.546 0 0 1 .68-2.08 1.554 1.554 0 0 1 2.083.68 1.553 1.553 0 0 1-1.386 2.253 1.558 1.558 0 0 1-1.377-.852m-4.14 2.106a1.545 1.545 0 0 1 .681-2.082 1.546 1.546 0 0 1 2.08.68c.388.76.079 1.696-.68 2.083a1.614 1.614 0 0 1-.704.162c-.557 0-1.106-.31-1.377-.843m-4.14 2.105a1.552 1.552 0 0 1 2.763-1.41 1.553 1.553 0 0 1-1.379 2.253c-.564 0-1.113-.31-1.385-.843m-4.14 2.097a1.545 1.545 0 0 1 .682-2.074 1.546 1.546 0 0 1 1.4 2.755 1.544 1.544 0 0 1-2.08-.681m-4.141 2.104a1.553 1.553 0 0 1 .68-2.08 1.551 1.551 0 0 1 2.082.68 1.544 1.544 0 0 1-.68 2.081 1.508 1.508 0 0 1-.698.171c-.564 0-1.113-.31-1.384-.852m-4.133 2.105a1.545 1.545 0 1 1 2.756-1.4 1.548 1.548 0 0 1-.682 2.082 1.611 1.611 0 0 1-.696.163c-.565 0-1.107-.31-1.378-.845"/>
        <path fill="#FA0171" d="M193.58 34.429l1.877-7.183-7.183-1.874 3.843-2.253 7.182 1.876-1.875 7.18zM244.723 151.87a1.549 1.549 0 1 1 2.525-1.795 1.549 1.549 0 0 1-2.525 1.796m-3.784 2.685a1.54 1.54 0 0 1 .364-2.152 1.55 1.55 0 0 1 2.159.364 1.556 1.556 0 0 1-.364 2.16 1.542 1.542 0 0 1-2.159-.371m-3.784 2.692a1.549 1.549 0 0 1 2.523-1.795 1.55 1.55 0 0 1-1.262 2.445c-.487 0-.96-.224-1.261-.65m-3.792 2.686a1.55 1.55 0 0 1 .371-2.16 1.538 1.538 0 0 1 2.152.364 1.548 1.548 0 1 1-2.523 1.796m-2.786 2.453a1.547 1.547 0 1 1 1.548 1.548 1.542 1.542 0 0 1-1.548-1.548m0 4.644a1.547 1.547 0 1 1 3.096 0c0 .859-.69 1.547-1.548 1.547a1.547 1.547 0 0 1-1.548-1.547m0 4.643a1.547 1.547 0 1 1 3.095 0c0 .86-.688 1.548-1.547 1.548a1.547 1.547 0 0 1-1.548-1.548m0 4.644a1.547 1.547 0 1 1 3.095 0c0 .859-.688 1.547-1.547 1.547a1.547 1.547 0 0 1-1.548-1.547m0 4.643a1.552 1.552 0 0 1 3.103 0 1.552 1.552 0 0 1-3.103 0"/>
        <path fill="#FA0171" d="M246.971 156.711l1.242-7.32-7.319-1.238 3.633-2.58 7.318 1.24-1.241 7.318zM59.612 104.592a1.547 1.547 0 1 1 3.096 0 1.548 1.548 0 1 1-3.096 0m0 4.644a1.547 1.547 0 1 1 3.096 0 1.548 1.548 0 1 1-3.096 0m0 4.643a1.547 1.547 0 1 1 3.096 0 1.548 1.548 0 1 1-3.096 0m0 4.644a1.547 1.547 0 1 1 3.096 0 1.548 1.548 0 1 1-3.096 0m0 4.643a1.547 1.547 0 1 1 3.096 0 1.548 1.548 0 1 1-3.096 0M100.587 150.624c-.21 0-.403-.038-.596-.115a1.572 1.572 0 0 1-.502-.341 1.546 1.546 0 0 1-.45-1.092c0-.41.163-.804.45-1.09.58-.581 1.617-.581 2.19 0a1.535 1.535 0 0 1 0 2.182 1.521 1.521 0 0 1-1.092.456M99.055 154.014a1.541 1.541 0 0 1 1.54-1.548c.86-.008 1.547.69 1.547 1.54a1.546 1.546 0 0 1-1.54 1.556 1.547 1.547 0 0 1-1.547-1.548m.008 4.938c0-.859.688-1.548 1.548-1.556a1.547 1.547 0 1 1 0 3.096 1.54 1.54 0 0 1-1.548-1.54m.008 4.938c0-.86.696-1.556 1.548-1.556.85 0 1.547.69 1.547 1.547a1.541 1.541 0 0 1-1.54 1.548 1.551 1.551 0 0 1-1.555-1.54m.015 4.93c0-.851.69-1.548 1.547-1.548a1.54 1.54 0 0 1 1.548 1.54 1.547 1.547 0 1 1-3.095.008M100.65 175.305c-.11 0-.21-.016-.31-.031a2.063 2.063 0 0 1-.287-.093c-.093-.03-.177-.086-.263-.14a1.706 1.706 0 0 1-.24-.194 1.664 1.664 0 0 1-.333-.502 1.547 1.547 0 0 1-.084-.898 1.39 1.39 0 0 1 .084-.287c.04-.093.086-.185.14-.27.062-.085.124-.162.194-.233.571-.572 1.61-.572 2.19 0 .07.07.139.148.193.233a1.817 1.817 0 0 1 .232.557c.015.1.031.2.031.31 0 .201-.047.402-.124.588a1.538 1.538 0 0 1-1.424.96M115.568 165.128a1.554 1.554 0 0 1 .565-2.113 1.547 1.547 0 0 1 2.114.572 1.54 1.54 0 0 1-.566 2.113 1.54 1.54 0 0 1-2.113-.573m-4.062 2.353a1.538 1.538 0 0 1 .565-2.113 1.545 1.545 0 0 1 2.113.565c.433.743.17 1.688-.566 2.113-.239.14-.51.21-.773.21a1.545 1.545 0 0 1-1.34-.775m-4.07 2.353a1.562 1.562 0 0 1 .566-2.12 1.55 1.55 0 1 1-.566 2.12m-4.062 2.345a1.544 1.544 0 0 1 .565-2.113 1.543 1.543 0 0 1 2.112.565 1.536 1.536 0 0 1-.564 2.113 1.546 1.546 0 0 1-2.113-.565M120.978 163.556c-.1 0-.201-.007-.302-.03-.1-.016-.2-.047-.294-.085a1.74 1.74 0 0 1-.262-.14 1.45 1.45 0 0 1-.233-.201 1.445 1.445 0 0 1-.202-.232c-.054-.086-.1-.17-.139-.263a1.378 1.378 0 0 1-.085-.294 1.535 1.535 0 0 1 .426-1.394c.58-.58 1.602-.58 2.182 0a1.535 1.535 0 0 1 .426 1.394c-.023.1-.047.2-.085.294-.04.093-.086.177-.148.263a1.102 1.102 0 0 1-.193.232c-.07.077-.146.14-.232.201-.085.054-.178.1-.271.14a1.24 1.24 0 0 1-.286.084 1.344 1.344 0 0 1-.302.031M24.58 62.484a1.552 1.552 0 0 1-.564-2.113c.425-.743 1.377-1 2.113-.565a1.545 1.545 0 1 1-1.548 2.678m4.023 2.321a1.538 1.538 0 0 1-.564-2.112c.426-.743 1.369-1 2.112-.565.743.425.99 1.37.565 2.112a1.546 1.546 0 0 1-2.113.565m4.024 2.322a1.546 1.546 0 0 1-.573-2.113c.435-.743 1.378-.999 2.12-.572.737.433.992 1.377.566 2.12a1.548 1.548 0 0 1-2.113.565m4.017 2.322a1.553 1.553 0 0 1-.566-2.113c.426-.743 1.379-.999 2.114-.565.743.426.998 1.37.564 2.113a1.545 1.545 0 0 1-2.112.565m4.024 2.322a1.538 1.538 0 0 1-.565-2.113c.425-.743 1.37-1 2.113-.565a1.547 1.547 0 1 1-1.548 2.678"/>
        <path fill="#38D611" d="M179.643 128.057a1.537 1.537 0 0 1-1.54-1.556c0-.85.704-1.54 1.556-1.54a1.553 1.553 0 0 1 1.54 1.557 1.546 1.546 0 0 1-1.548 1.539h-.008zm-.03 4.643a1.551 1.551 0 0 1-1.54-1.555 1.552 1.552 0 0 1 1.554-1.54 1.549 1.549 0 0 1 0 3.095h-.015zm-.024 4.644a1.543 1.543 0 0 1-1.54-1.556c0-.85.696-1.548 1.555-1.54a1.552 1.552 0 0 1 1.54 1.556 1.55 1.55 0 0 1-1.548 1.54h-.007zm-.031 4.643a1.553 1.553 0 0 1-1.54-1.555 1.547 1.547 0 1 1 3.095.016c0 .85-.696 1.54-1.548 1.54h-.007zm-.024 4.644a1.536 1.536 0 0 1-1.54-1.556 1.552 1.552 0 0 1 1.556-1.54c.85.009 1.54.704 1.54 1.556a1.551 1.551 0 0 1-1.547 1.54h-.009zm-.03 4.643a1.547 1.547 0 1 1 .023-3.095c.85.008 1.54.704 1.532 1.556 0 .85-.696 1.54-1.54 1.54h-.016zm-4.334 2.067a1.542 1.542 0 0 1 .62-2.098 1.544 1.544 0 0 1 2.096.62c.41.75.131 1.687-.619 2.097a1.493 1.493 0 0 1-.735.194 1.545 1.545 0 0 1-1.362-.813zm-4.079 2.22a1.545 1.545 0 0 1 .62-2.097 1.545 1.545 0 0 1 2.097.62c.41.751.132 1.687-.619 2.097a1.489 1.489 0 0 1-.735.193c-.55 0-1.083-.294-1.363-.812zm-4.077 2.222a1.544 1.544 0 0 1 .618-2.097 1.542 1.542 0 0 1 2.097.619c.411.751.132 1.688-.618 2.097a1.493 1.493 0 0 1-.736.193c-.55 0-1.082-.294-1.36-.812zm-4.078 2.221a1.544 1.544 0 0 1 .619-2.097 1.542 1.542 0 0 1 2.097.619c.41.75.14 1.688-.619 2.097a1.497 1.497 0 0 1-.735.194c-.55 0-1.077-.295-1.362-.813zm-4.078 2.221a1.545 1.545 0 0 1 .618-2.097 1.543 1.543 0 0 1 2.097.619c.411.75.14 1.696-.611 2.097a1.539 1.539 0 0 1-2.104-.619zM82.541 188.345a1.547 1.547 0 0 1-.797-2.035 1.547 1.547 0 1 1 1.416 2.167c-.209 0-.418-.04-.619-.132zm4.249 1.865a1.548 1.548 0 0 1-.798-2.035 1.559 1.559 0 0 1 2.044-.797 1.556 1.556 0 0 1 .796 2.043 1.548 1.548 0 0 1-2.042.79zm4.256 1.865a1.542 1.542 0 0 1-.797-2.036 1.547 1.547 0 1 1 1.416 2.168c-.208 0-.418-.04-.62-.132zm4.248 1.873a1.548 1.548 0 0 1-.79-2.043 1.547 1.547 0 1 1 1.41 2.167c-.21 0-.419-.039-.62-.124zm4.256 1.857a1.54 1.54 0 0 1-.797-2.035 1.548 1.548 0 0 1 2.035-.798 1.548 1.548 0 1 1-.62 2.965c-.208 0-.417-.039-.618-.132zm1.084 4.466a1.55 1.55 0 0 1-1.548-1.556 1.553 1.553 0 0 1 1.556-1.54c.85 0 1.54.697 1.54 1.548 0 .86-.697 1.548-1.548 1.548zm-.016 4.643a1.54 1.54 0 0 1-1.54-1.547 1.548 1.548 0 1 1 1.548 1.547h-.008zm-.015 4.644a1.548 1.548 0 1 1 .009 0h-.01zm-.008 4.643a1.536 1.536 0 0 1-1.54-1.547c0-.86.696-1.548 1.548-1.548.859 0 1.547.696 1.54 1.555a1.54 1.54 0 0 1-1.548 1.54zm-.008 4.644a1.547 1.547 0 1 1 1.548-1.548c0 .86-.697 1.548-1.54 1.548h-.008z"/>
        <path fill="#38D611" d="M153.135 169.56a1.548 1.548 0 0 1-1.094-2.642l12.002-12.004a1.547 1.547 0 1 1 2.188 2.189l-12.002 12.003a1.541 1.541 0 0 1-1.094.453"/>
        <path fill="#38D611" d="M165.137 169.56c-.396 0-.792-.151-1.094-.454l-12.003-12.003a1.548 1.548 0 0 1 2.189-2.19l12.002 12.004a1.548 1.548 0 0 1-1.094 2.642M74.871 191.92a1.548 1.548 0 0 1-1.094-2.642l12.003-12.005a1.547 1.547 0 1 1 2.188 2.188l-12.002 12.005a1.541 1.541 0 0 1-1.095.453"/>
        <path fill="#38D611" d="M86.874 191.92c-.397 0-.792-.152-1.095-.454L73.777 179.46a1.548 1.548 0 0 1 2.189-2.188l12.002 12.004a1.548 1.548 0 0 1-1.094 2.642"/>
        <path fill="#FA0171" d="M15.608 67.282a1.548 1.548 0 0 1-1.094-2.642l12.002-12.004a1.547 1.547 0 1 1 2.188 2.19L16.702 66.827a1.541 1.541 0 0 1-1.094.454"/>
        <path fill="#FA0171" d="M27.61 67.282c-.397 0-.792-.15-1.095-.454L14.513 54.825a1.548 1.548 0 0 1 2.189-2.189L28.704 64.64a1.548 1.548 0 0 1-1.094 2.642M55.096 135.955a1.548 1.548 0 0 1-1.094-2.642l12.002-12.005a1.547 1.547 0 1 1 2.189 2.189L56.19 135.501a1.541 1.541 0 0 1-1.094.454"/>
        <path fill="#FA0171" d="M67.098 135.955c-.396 0-.791-.151-1.094-.454l-12.002-12.004a1.548 1.548 0 0 1 2.188-2.189l12.003 12.005a1.548 1.548 0 0 1-1.095 2.642M114.976 170.26a1.548 1.548 0 0 1-1.094-2.642l12.003-12.003a1.547 1.547 0 1 1 2.188 2.189l-12.003 12.003a1.541 1.541 0 0 1-1.094.454"/>
        <path fill="#FA0171" d="M126.979 170.26c-.396 0-.792-.15-1.094-.453l-12.003-12.003a1.548 1.548 0 0 1 2.188-2.189l12.003 12.004a1.548 1.548 0 0 1-1.094 2.642"/>
        <g transform="translate(41 60)">
            <mask id="c" fill="#fff">
                <use xlink:href="#a"/>
            </mask>
            <path fill="url(#b)" fill-opacity=".7" d="M157.25 53.998V32.561l-18.563-10.72-18.564 10.72v21.437l18.564 10.718z" mask="url(#c)"/>
            <mask id="e" fill="#fff">
                <use xlink:href="#d"/>
            </mask>
            <path fill="url(#b)" fill-opacity=".7" d="M78.331 191.957V170.52l-18.564-10.718-18.563 10.718v21.438l18.563 10.72z" mask="url(#e)"/>
            <mask id="h" fill="#fff">
                <use xlink:href="#f"/>
            </mask>
            <path fill="url(#g)" fill-opacity=".7" d="M38.66 32.907V11.47L20.098.751 1.533 11.469v21.438l18.564 10.718z" mask="url(#h)"/>
            <mask id="j" fill="#fff">
                <use xlink:href="#i"/>
            </mask>
            <path fill="url(#g)" fill-opacity=".7" d="M77.972 78.255V56.817L59.408 46.098 40.845 56.817v21.438l18.563 10.719z" mask="url(#j)"/>
            <mask id="l" fill="#fff">
                <use xlink:href="#k"/>
            </mask>
            <path fill="url(#g)" fill-opacity=".7" d="M209.764 154.284v-21.438l-18.563-10.719-18.565 10.719v21.438l18.565 10.718z" mask="url(#l)"/>
        </g>
        <g>
            <path fill="#38D611" d="M162.313 113.105l17.016 9.824 17.016-9.824V93.453L179.33 83.63l-17.016 9.824v19.652zm17.016 13.398l-20.112-11.611V91.667l20.112-11.613 20.112 11.613v23.225l-20.112 11.611zM83.392 251.064l17.016 9.824 17.017-9.824v-19.652l-17.017-9.824-17.016 9.824v19.652zm17.016 13.4L80.297 252.85v-23.225l20.111-11.612 20.112 11.612v23.225l-20.112 11.612z"/>
            <path fill="#FA0171" d="M44.081 92.014l17.016 9.824 17.017-9.824V72.362l-17.017-9.824-17.016 9.824v19.652zm17.016 13.399L40.986 93.8V70.576l20.111-11.613L81.21 70.576V93.8l-20.112 11.612zM83.392 137.361l17.016 9.825 17.017-9.825V117.71l-17.017-9.825-17.016 9.825v19.651zm17.016 13.4l-20.111-11.613v-23.224l20.111-11.614 20.112 11.614v23.224l-20.112 11.613zM215.184 213.39l17.016 9.825 17.017-9.824v-19.652l-17.017-9.824-17.016 9.824v19.652zm17.016 13.4l-20.111-11.612v-23.226L232.2 180.34l20.112 11.612v23.226L232.2 226.789z"/>
        </g>
        <g>
            <path fill="#FA0171" d="M99.814 52.581a6.384 6.384 0 0 0-6.377 6.377 6.383 6.383 0 0 0 6.377 6.377 6.383 6.383 0 0 0 6.376-6.377 6.384 6.384 0 0 0-6.376-6.377m0 13.528a7.158 7.158 0 0 1-7.15-7.15c0-3.943 3.207-7.151 7.15-7.151 3.942 0 7.15 3.208 7.15 7.15a7.158 7.158 0 0 1-7.15 7.15M140.364 54.13a6.384 6.384 0 0 0-6.377 6.377 6.384 6.384 0 0 0 6.377 6.377 6.384 6.384 0 0 0 6.376-6.377 6.384 6.384 0 0 0-6.376-6.377m0 13.528c-3.943 0-7.15-3.208-7.15-7.15 0-3.943 3.207-7.152 7.15-7.152 3.943 0 7.15 3.209 7.15 7.151 0 3.943-3.207 7.151-7.15 7.151"/>
            <path fill="#38D611" d="M238.32 63.216a6.383 6.383 0 0 0-6.375 6.377 6.383 6.383 0 0 0 6.376 6.377 6.384 6.384 0 0 0 6.376-6.377 6.384 6.384 0 0 0-6.376-6.377m0 13.528c-3.943 0-7.15-3.208-7.15-7.151 0-3.942 3.207-7.151 7.15-7.151 3.942 0 7.15 3.209 7.15 7.151 0 3.943-3.208 7.15-7.15 7.15M198.591 156.3a6.383 6.383 0 0 0-6.376 6.377 6.384 6.384 0 0 0 6.376 6.377 6.384 6.384 0 0 0 6.376-6.377 6.383 6.383 0 0 0-6.376-6.376m0 13.527c-3.943 0-7.15-3.208-7.15-7.15 0-3.943 3.207-7.151 7.15-7.151 3.943 0 7.15 3.208 7.15 7.15 0 3.943-3.207 7.151-7.15 7.151"/>
            <path fill="#FA0171" d="M232.2 155.038a6.384 6.384 0 0 0-6.376 6.377 6.384 6.384 0 0 0 6.376 6.377 6.384 6.384 0 0 0 6.377-6.377 6.384 6.384 0 0 0-6.377-6.377m0 13.528c-3.942 0-7.15-3.208-7.15-7.151 0-3.942 3.208-7.15 7.15-7.15 3.943 0 7.15 3.208 7.15 7.15 0 3.943-3.207 7.151-7.15 7.151"/>
        </g>
    </g>
</svg>
