<svg xmlns="http://www.w3.org/2000/svg" xmlns:xlink="http://www.w3.org/1999/xlink" width="89" height="84" viewBox="0 0 89 84">
    <defs>
        <path id="a" d="M0 .222h88.211V83.99H0z"/>
    </defs>
    <g fill="none" fill-rule="evenodd">
        <mask id="b" fill="#fff">
            <use xlink:href="#a"/>
        </mask>
        <path fill="#00152B" d="M0 26.724h6.125c.357.028.682.22.875.521 1.96 2.524 3.85 5.11 5.775 7.634a1.55 1.55 0 0 0 1.015.595h23.555L26.46.229h7.91a1.402 1.402 0 0 1 1.365.735l21 33.561a1.851 1.851 0 0 0 1.855.984h22.645a6.59 6.59 0 0 1 6.965 6.195 6.59 6.59 0 0 1-6.195 6.965h-23.66a1.58 1.58 0 0 0-1.575.875c-7 11.2-14 22.375-21 33.53a1.64 1.64 0 0 1-1.645.906H26.46l10.99-35.206H14.07c-.543-.06-1.075.199-1.365.665C10.85 51.994 8.925 54.51 7 57.034a1.301 1.301 0 0 1-.875.525H0v-.35c.09-.102.16-.224.21-.354A2162.37 2162.37 0 0 0 4.27 42.65a2.287 2.287 0 0 0 0-1.19L1.33 31.204c-.385-1.365-.84-2.695-1.26-4.06l-.07-.42z" mask="url(#b)"/>
    </g>
</svg>
