<svg height="37" width="184" xmlns="http://www.w3.org/2000/svg"><g fill="none" fill-rule="evenodd"><path d="m124.6883 3.3985-.5758.4428c-.3177-.4146-.699-.7288-1.144-.9428-.4451-.2139-.934-.3209-1.4667-.3209-.5824 0-1.1217.1402-1.618.4204-.4964.2803-.881.6567-1.154 1.1293-.273.4727-.4095 1.0041-.4095 1.5945 0 .8922.3052 1.6368.9157 2.2338s1.3806.8954 2.3104.8954c1.0225 0 1.8778-.4013 2.5661-1.2039l.5758.4378c-.364.4643-.8182.8234-1.3625 1.077-.5443.2538-1.1523.3807-1.824.3807-1.2773 0-2.2848-.4262-3.0227-1.2786-.6188-.7197-.9282-1.5887-.9282-2.6069 0-1.0712.3748-1.9725 1.1242-2.7038.7495-.7314 1.6884-1.097 2.8167-1.097.6817 0 1.2971.1351 1.8464.4054s.9993.6493 1.35 1.1368zm3.9061.408c.8306 0 1.5188.3018 2.0648.9054.4963.5506.7445 1.2023.7445 1.9551 0 .7562-.2622 1.417-.7867 1.9826-.5245.5654-1.1987.8482-2.0226.8482-.8272 0-1.503-.2828-2.0275-.8482-.5245-.5655-.7867-1.2264-.7867-1.9826 0-.7495.2482-1.3996.7445-1.9501.546-.607 1.2359-.9104 2.0697-.9104zm0 .6815c-.5757 0-1.0704.214-1.484.6418s-.6204.9452-.6204 1.5522c0 .3913.0943.7562.2829 1.0945s.4434.5994.7643.7835c.321.184.6734.2761 1.0572.2761.3839 0 .7363-.092 1.0572-.276.321-.1842.5758-.4453.7644-.7836s.2829-.7032.2829-1.0945c0-.607-.2076-1.1244-.623-1.5522-.4152-.4279-.909-.6418-1.4815-.6418zm3.9955-2.6317h.695v7.5022h-.695zm2.035 0h.6949v7.5022h-.6949zm7.5195 2.0895v5.4127h-.685v-.9303c-.2911.3549-.6179.6218-.9802.801-.3623.179-.7586.2686-1.1887.2686-.7644 0-1.417-.2778-1.958-.8333-.541-.5556-.8116-1.2313-.8116-2.0273 0-.7794.273-1.446.819-2 .546-.5538 1.2028-.8307 1.9704-.8307.4434 0 .8446.0945 1.2036.2835s.6742.4726.9456.8507v-.995h.685zm-2.7795.5323c-.3871 0-.7445.0953-1.072.286-.3276.1907-.5882.4586-.7818.8035-.1936.345-.2903.7097-.2903 1.0945 0 .3814.0976.7462.2928 1.0945.1952.3482.4574.6193.7867.8134.3292.194.6824.291 1.0597.291.3805 0 .7412-.0962 1.082-.2886.3408-.1923.603-.4527.7867-.781.1836-.3284.2754-.6982.2754-1.1094 0-.6269-.206-1.1509-.6179-1.5721-.412-.4212-.919-.6318-1.5213-.6318zm4.3876 4.8804v-7.5022h.69v3.0197c.2911-.3582.617-.626.9777-.8035.3607-.1774.7561-.2661 1.1863-.2661.7643 0 1.417.2777 1.958.8333.541.5555.8115 1.2296.8115 2.0223 0 .7827-.273 1.451-.819 2.0049-.5459.5539-1.2027.8308-1.9704.8308-.44 0-.8388-.0945-1.1961-.2836-.3574-.189-.6734-.4726-.948-.8507v.995h-.69zm2.7795-.5323c.3872 0 .7445-.0954 1.0721-.286.3276-.1908.5882-.4586.7817-.8035.1936-.345.2904-.7098.2904-1.0945 0-.3848-.0976-.7512-.2928-1.0995-.1953-.3482-.4575-.6194-.7867-.8134-.3293-.194-.6808-.291-1.0547-.291-.3806 0-.742.097-1.0845.291s-.6056.4552-.7892.7836c-.1837.3283-.2755.6981-.2755 1.1094 0 .6268.206 1.1508.618 1.572.412.4213.919.6319 1.5212.6319zm6.6658-5.0197c.8306 0 1.5188.3018 2.0648.9054.4963.5506.7445 1.2023.7445 1.9551 0 .7562-.2622 1.417-.7867 1.9826-.5245.5654-1.1986.8482-2.0226.8482-.8272 0-1.503-.2828-2.0275-.8482-.5245-.5655-.7867-1.2264-.7867-1.9826 0-.7495.2482-1.3996.7445-1.9501.546-.607 1.2359-.9104 2.0697-.9104zm0 .6815c-.5757 0-1.0704.214-1.484.6418s-.6204.9452-.6204 1.5522c0 .3913.0943.7562.2829 1.0945s.4434.5994.7643.7835c.321.184.6734.2761 1.0572.2761.3839 0 .7363-.092 1.0572-.276.321-.1842.5758-.4453.7644-.7836s.2829-.7032.2829-1.0945c0-.607-.2076-1.1244-.6229-1.5522-.4153-.4279-.9091-.6418-1.4816-.6418zm3.8367-.5422h.7098v.791c.2117-.3118.4351-.5448.67-.699.235-.1542.4798-.2313.7346-.2313.192 0 .397.0613.6155.184l-.3624.587c-.1456-.063-.268-.0945-.3672-.0945-.2317 0-.455.0954-.6701.2861-.215.1907-.3789.4867-.4914.888-.086.3085-.129.932-.129 1.8706v1.8308h-.7098zm8.7008 0v5.4127h-.685v-.9303c-.2911.3549-.6179.6218-.9802.801-.3623.179-.7586.2686-1.1887.2686-.7644 0-1.417-.2778-1.958-.8333-.5411-.5556-.8116-1.2313-.8116-2.0273 0-.7794.273-1.446.819-2 .546-.5538 1.2027-.8307 1.9704-.8307.4434 0 .8446.0945 1.2036.2835s.6742.4726.9456.8507v-.995h.6849zm-2.7795.5323c-.3871 0-.7445.0953-1.072.286-.3277.1907-.5882.4586-.7818.8035-.1936.345-.2904.7097-.2904 1.0945 0 .3814.0976.7462.2929 1.0945.1952.3482.4574.6193.7867.8134.3292.194.6824.291 1.0596.291.3806 0 .7412-.0962 1.082-.2886.3409-.1923.6031-.4527.7868-.781.1836-.3284.2754-.6982.2754-1.1094 0-.6269-.206-1.1509-.618-1.5721-.4119-.4212-.919-.6318-1.5212-.6318zm4.9485-2.5422h.6998v2.0099h1.1019v.597h-1.1019v4.8157h-.6998v-4.8158h-.948v-.597h.948v-2.0097zm3.0822-.219c.1589 0 .2945.0565.407.1692.1125.1128.1688.2488.1688.408 0 .1559-.0563.2902-.1688.403-.1125.1127-.2481.169-.407.169-.1555 0-.2895-.0563-.402-.169-.1125-.1128-.1687-.2471-.1687-.403 0-.1592.0562-.2952.1687-.408.1125-.1127.2465-.1691.402-.1691zm-.3474 2.2289h.6998v5.4127h-.6998zm1.628 0h.7395l1.8067 3.9401 1.7918-3.9401h.7445l-2.4718 5.4127h-.124zm10.691 3.6167.5858.3085c-.192.378-.4137.6832-.6651.9154a2.6402 2.6402 0 0 1 -.8488.5298c-.3143.121-.67.1816-1.0671.1816-.8802 0-1.5684-.2894-2.0648-.8681-.4963-.5788-.7445-1.233-.7445-1.9627 0-.6865.2102-1.2984.6304-1.8357.5327-.6832 1.2458-1.0248 2.1392-1.0248.9199 0 1.6545.3499 2.2037 1.0497.3905.4941.589 1.111.5956 1.8506h-4.8541c.0132.6302.2134 1.1468.6005 1.5497.3872.403.8653.6045 1.4344.6045.2747 0 .5419-.048.8016-.1443.2598-.0962.4806-.2238.6626-.383s.379-.4163.5907-.7712zm0-1.4576c-.0926-.3715-.2274-.6683-.4044-.8905-.177-.2223-.4112-.4013-.7024-.5373a2.1447 2.1447 0 0 0 -.9182-.204c-.5294 0-.9844.1708-1.3649.5124-.278.2488-.488.6219-.6303 1.1194h4.0203zm-65.0697 8.6713h.7445v2.7462l2.9135-2.7462h.9878l-3.5091 3.2835 3.782 4.0346h-.9678l-3.2064-3.4128v3.4128h-.7445zm5.8916 1.9054h.6948v.9701c.278-.3714.5857-.6492.9232-.8333.3375-.184.7048-.276 1.1019-.276.4037 0 .7619.1027 1.0746.3084.3126.2056.5434.4825.6923.8308.149.3482.2234.8905.2234 1.6268v2.786h-.69v-2.582c0-.6236-.0264-1.0398-.0793-1.2488-.0828-.3582-.2383-.6276-.4666-.8084-.2283-.1807-.5261-.2711-.8934-.2711-.4202 0-.7966.1393-1.1292.4179-.3325.2786-.5517.6235-.6576 1.0348-.0662.2686-.0993.7595-.0993 1.4725v1.985h-.6948zm8.7553-.1393c.8306 0 1.5188.3018 2.0648.9054.4963.5506.7445 1.2023.7445 1.9552 0 .7562-.2622 1.417-.7867 1.9825s-1.1986.8482-2.0226.8482c-.8272 0-1.503-.2827-2.0275-.8482s-.7867-1.2263-.7867-1.9825c0-.7496.2482-1.3996.7445-1.9502.546-.607 1.2359-.9104 2.0697-.9104zm0 .6816c-.5757 0-1.0704.2139-1.484.6417-.4136.4279-.6204.9453-.6204 1.5522 0 .3914.0943.7562.2829 1.0945s.4434.5995.7643.7836c.321.184.6734.276 1.0572.276.3839 0 .7363-.092 1.0572-.276.321-.1841.5758-.4453.7644-.7836s.2829-.7031.2829-1.0945c0-.607-.2076-1.1243-.6229-1.5522-.4153-.4278-.9091-.6417-1.4816-.6417zm3.3702-.5423h.7147l1.6528 3.9302 1.7322-3.9302h.124l1.7273 3.9302 1.6826-3.9302h.7247l-2.3427 5.4127h-.134l-1.7174-3.8754-1.7322 3.8754h-.129zm9.073-2.0895h.6949v7.5022h-.6949zm6.6857 5.7063.5856.3084c-.1919.3781-.4136.6833-.665.9154a2.6402 2.6402 0 0 1 -.8488.5299c-.3143.121-.67.1815-1.0671.1815-.8802 0-1.5684-.2893-2.0648-.868-.4963-.5788-.7445-1.233-.7445-1.9627 0-.6865.2101-1.2985.6304-1.8358.5327-.6832 1.2458-1.0248 2.1392-1.0248.9199 0 1.6544.35 2.2037 1.0497.3905.4942.589 1.111.5956 1.8507h-4.8542c.0133.6302.2135 1.1467.6006 1.5497s.8653.6044 1.4344.6044a2.29 2.29 0 0 0 .8016-.1442c.2598-.0962.4806-.2239.6626-.3831s.3789-.4162.5907-.7711zm0-1.4577c-.0927-.3714-.2275-.6683-.4046-.8905-.177-.2222-.411-.4013-.7023-.5373a2.1447 2.1447 0 0 0 -.9182-.204c-.5294 0-.9844.1709-1.365.5125-.2779.2487-.488.6218-.6303 1.1193zm7.45-4.2486v7.5022h-.685v-.9303c-.2912.355-.618.6219-.9802.801-.3624.179-.7586.2686-1.1888.2686-.7643 0-1.417-.2777-1.958-.8333-.541-.5555-.8115-1.2313-.8115-2.0273 0-.7794.273-1.446.819-1.9999.5459-.5539 1.2027-.8308 1.9704-.8308.4434 0 .8446.0945 1.2036.2836.359.189.6742.4726.9455.8507v-3.0846h.685zm-2.7795 2.6218c-.3872 0-.7445.0954-1.0721.286-.3276.1908-.5882.4586-.7817.8035-.1936.345-.2904.7098-.2904 1.0945 0 .3814.0976.7463.2928 1.0945.1953.3483.4575.6194.7867.8134.3293.194.6825.291 1.0597.291.3805 0 .7412-.0961 1.082-.2885s.603-.4527.7867-.781c.1837-.3284.2755-.6982.2755-1.1095 0-.6268-.206-1.1508-.618-1.572-.412-.4213-.919-.6319-1.5212-.6319zm9.0035-.5323h.6999v4.3133c0 .7595-.0662 1.315-.1986 1.6666-.182.4975-.498.8805-.948 1.1492-.45.2686-.991.403-1.623.403-.4632 0-.8793-.0655-1.2483-.1965s-.6692-.3068-.9008-.5274c-.2317-.2205-.445-.543-.6403-.9676h.7544c.2052.3582.4699.6235.7942.796.3242.1724.7263.2587 1.206.2587.4732 0 .8728-.0887 1.1987-.2662.326-.1774.5584-.4005.6974-.6691.139-.2687.2084-.7015.2084-1.2985v-.2786c-.2614.3317-.5807.5862-.9579.7637-.3772.1774-.7776.2661-1.2011.2661-.4964 0-.963-.1235-1.3997-.3706-.4368-.247-.7743-.5796-1.0125-.9975-.2383-.4179-.3574-.8772-.3574-1.378s.124-.9677.3723-1.4005c.2481-.4328.5914-.7752 1.0299-1.0273.4384-.252.9008-.378 1.3872-.378.4037 0 .78.0836 1.1292.2511.349.1675.6858.4436 1.01.8284zm-2.0498.5323c-.3938 0-.7594.0954-1.097.286-.3375.1908-.6022.4545-.794.7911-.192.3366-.288.7006-.288 1.092 0 .5937.1986 1.0845.5956 1.4726.3971.388.9116.582 1.5436.582.6387 0 1.1524-.1923 1.5412-.577.3888-.3848.5832-.8906.5832-1.5174 0-.408-.0894-.772-.268-1.092-.1787-.32-.4319-.573-.7594-.7587a2.109 2.109 0 0 0 -1.0572-.2786zm8.7851 3.0845.5857.3084c-.192.3781-.4136.6833-.6651.9154a2.6402 2.6402 0 0 1 -.8487.5299c-.3144.121-.67.1815-1.0672.1815-.8801 0-1.5684-.2893-2.0647-.868-.4964-.5788-.7445-1.233-.7445-1.9627 0-.6865.21-1.2985.6303-1.8358.5328-.6832 1.2458-1.0248 2.1392-1.0248.92 0 1.6545.35 2.2038 1.0497.3904.4942.589 1.111.5956 1.8507h-4.8542c.0132.6302.2134 1.1467.6006 1.5497.3871.403.8652.6044 1.4344.6044.2746 0 .5418-.048.8016-.1442.2597-.0962.4806-.2239.6626-.3831s.3788-.4162.5906-.7711zm0-1.4577c-.0926-.3714-.2275-.6683-.4045-.8905s-.4111-.4013-.7023-.5373a2.1447 2.1447 0 0 0 -.9182-.204c-.5295 0-.9844.1709-1.365.5125-.278.2487-.488.6218-.6303 1.1193zm-54.18 15.9895v-7.3182h.1587l4.8542 5.6017v-5.6017h.7197v7.318h-.1638l-4.8145-5.532v5.532h-.7544zm11.9467-1.796.5857.3085c-.192.378-.4136.6832-.665.9154a2.6402 2.6402 0 0 1 -.8488.5298c-.3144.121-.67.1816-1.0671.1816-.8802 0-1.5685-.2894-2.0648-.8681-.4963-.5788-.7445-1.233-.7445-1.9627 0-.6865.2101-1.2984.6303-1.8357.5328-.6832 1.2458-1.0248 2.1392-1.0248.92 0 1.6545.3499 2.2038 1.0497.3904.4941.589 1.111.5956 1.8506h-4.8542c.0133.6302.2134 1.1468.6006 1.5497.3871.403.8653.6045 1.4344.6045.2746 0 .5418-.0481.8016-.1443.2597-.0962.4806-.2239.6626-.383.182-.1592.3789-.4163.5906-.7712zm0-1.4576c-.0926-.3715-.2275-.6683-.4045-.8905-.177-.2223-.4111-.4013-.7023-.5373a2.1447 2.1447 0 0 0 -.9182-.204c-.5295 0-.9844.1708-1.365.5124-.2779.2488-.488.6219-.6303 1.1194zm2.6654-4.169h.6998v2.0099h1.1019v.597h-1.102v4.8157h-.6997v-4.8158h-.948v-.597h.948zm2.1094 2.0099h.7147l1.6528 3.9302 1.7322-3.9302h.1241l1.7273 3.9302 1.6825-3.9302h.7247l-2.3427 5.4127h-.134l-1.7173-3.8755-1.7323 3.8755h-.129zm11.7334-.1393c.8305 0 1.5188.3018 2.0647.9054.4964.5506.7446 1.2023.7446 1.9551 0 .7562-.2623 1.417-.7867 1.9826-.5245.5654-1.1987.8482-2.0226.8482-.8272 0-1.503-.2828-2.0275-.8482-.5245-.5655-.7867-1.2264-.7867-1.9826 0-.7495.2481-1.3996.7445-1.9501.546-.607 1.2358-.9104 2.0697-.9104zm0 .6815c-.5758 0-1.0704.214-1.484.6418-.4137.4278-.6205.9452-.6205 1.5522 0 .3913.0943.7562.283 1.0945.1885.3383.4433.5994.7643.7835.321.184.6734.2761 1.0572.2761s.7362-.092 1.0572-.276c.321-.1842.5757-.4453.7643-.7836.1887-.3383.283-.7032.283-1.0945 0-.607-.2077-1.1244-.623-1.5522-.4152-.4279-.909-.6418-1.4815-.6418zm3.8367-.5422h.7097v.791c.2118-.3118.4352-.5448.67-.699.235-.1542.4799-.2313.7347-.2313.1919 0 .397.0613.6154.184l-.3623.587c-.1456-.063-.268-.0945-.3673-.0945-.2316 0-.455.0954-.67.2861-.2151.1907-.379.4867-.4914.888-.086.3085-.129.932-.129 1.8706v1.8308h-.7098zm3.3155-2.0895h.6998v4.2685l2.4966-2.179h1.0225l-2.9632 2.582 3.1369 2.8307h-.9828l-2.71-2.4328v2.4328h-.6998zm-153.5006 2.2241 2.9752-1.7961c2.0946 3.8796 4.5144 5.8194 7.2595 5.8194 1.1743 0 2.277-.2754 3.3085-.8262 1.0314-.5508 1.8168-1.2892 2.3564-2.2152.5395-.926.8092-1.9079.8092-2.9457 0-1.1814-.3967-2.3389-1.19-3.4724-1.095-1.5647-3.0943-3.4486-5.9981-5.6518-2.9197-2.2192-4.7365-3.8237-5.4506-4.8136-1.2377-1.6605-1.8565-3.4565-1.8565-5.3885 0-1.5327.365-2.9296 1.0948-4.1909.73-1.2613 1.7574-2.2551 3.0824-2.9816 1.325-.7263 2.765-1.0895 4.32-1.0895 1.6502 0 3.1934.4111 4.6294 1.2333 1.436.8223 2.9554 2.335 4.558 4.5382l-2.8562 2.1793c-1.317-1.7562-2.4396-2.9137-3.368-3.4725-.9282-.5588-1.9397-.8382-3.0346-.8382-1.4123 0-2.5666.431-3.4632 1.2932-.8965.8622-1.3448 1.9239-1.3448 3.1851 0 .7664.1587 1.5088.476 2.2272.3174.7185.8966 1.5008 1.7376 2.347.4602.447 1.9676 1.6204 4.5223 3.5203 3.0308 2.2512 5.1094 4.2548 6.236 6.011 1.1267 1.7563 1.69 3.5204 1.69 5.2926 0 2.5545-.964 4.7737-2.892 6.6576-1.9278 1.884-4.2723 2.8259-7.0333 2.8259-2.1263 0-4.0543-.5708-5.7839-1.7123s-3.3243-3.0534-4.7841-5.7356zm48.135-2.0835 2.8086 1.4848c-.9203 1.82-1.9834 3.2889-3.1894 4.4065s-2.5626 1.9677-4.0701 2.5505c-1.5074.5827-3.2132.874-5.1174.874-4.2208 0-7.5213-1.393-9.9015-4.1789-2.3802-2.786-3.5702-5.9351-3.5702-9.4476 0-3.3048 1.0076-6.2504 3.0228-8.8369 2.5547-3.2889 5.9742-4.9333 10.2585-4.9333 4.4113 0 7.934 1.6843 10.568 5.053 1.8724 2.379 2.8245 5.3485 2.8562 8.9088h-23.2781c.0635 3.0335 1.0235 5.52 2.88 7.4599 1.8566 1.9398 4.1494 2.9097 6.8787 2.9097 1.317 0 2.5984-.2315 3.844-.6945s2.3048-1.0777 3.1775-1.844c.8728-.7664 1.8169-2.0037 2.8324-3.712zm0-7.0168c-.4443-1.7882-1.0909-3.217-1.9398-4.2868-.849-1.0696-1.9716-1.9318-3.368-2.5864-1.3963-.6545-2.864-.9818-4.4033-.9818-2.5388 0-4.7206.8222-6.5455 2.4666-1.3329 1.1974-2.3405 2.9935-3.0228 5.3884zm7.815 15.6621 4.9744-35.2278h.5712l14.2335 28.9055 3.1098-6.3795 3.5515.0146-6.2329 12.6872h-.8807l-12.5434-25.3851-3.4036 25.3851h-3.3799zm45.551-35.2278h3.499v35.2278h-3.4989v-35.2278z" fill="#fff"/><path d="m94.4598 30.4776c.2573.1355.496.3163.7165.5426.5491.5637.8237 1.2528.8237 2.067 0 .7987-.2746 1.4838-.8237 2.0554-.5492.5716-1.2127.8574-1.9907.8574s-1.4415-.2858-1.9907-.8574c-.5491-.5716-.8237-1.2567-.8237-2.0553 0-.8143.2746-1.5034.8237-2.0671a3.3274 3.3274 0 0 1 .0106-.0108l-2.7273-20.2662-2.9883 6.1494c.0926.2921.1389.6054.1389.9398 0 .7986-.2746 1.4837-.8237 2.0553-.5492.5716-1.2127.8574-1.9907.8574s-1.4415-.2858-1.9907-.8574c-.5491-.5716-.8237-1.2567-.8237-2.0553 0-.8143.2746-1.5034.8237-2.0671.5492-.5638 1.2127-.8457 1.9907-.8457.0468 0 .0933.001.1393.0031l4.6896-9.7256a3.191 3.191 0 0 1 -.225-.2112c-.5556-.5737-.8334-1.2612-.8334-2.0627 0-.8173.2778-1.5088.8334-2.0745.5556-.5658 1.227-.8487 2.014-.8487.7871 0 1.4585.2829 2.014.8487.5557.5657.8335 1.2572.8335 2.0745 0 .8015-.2778 1.489-.8334 2.0627-.1635.1687-.337.3127-.5205.4318l3.534 25.06z" fill="#00152b"/></g></svg>