<svg xmlns="http://www.w3.org/2000/svg" width="320" height="307" viewBox="0 0 320 307">
    <defs>
        <linearGradient id="a" x1="0%" y1="50.006%" y2="50.006%">
            <stop offset="0%" stop-color="#364A68"/>
            <stop offset="100%" stop-color="#38D611"/>
        </linearGradient>
        <linearGradient id="b" x1="0%" y1="49.994%" y2="49.994%">
            <stop offset="0%" stop-color="#364A68"/>
            <stop offset="100%" stop-color="#FA0171"/>
        </linearGradient>
    </defs>
    <g fill="none" fill-rule="evenodd">
        <g stroke="#FFF" stroke-width=".58" opacity=".5">
            <path d="M91.518 111.3V85.65L69.31 72.827 47.093 85.651V111.3l22.217 12.825z"/>
            <path d="M69.31 124.141V98.475L47.093 85.651 24.876 72.827v-16.73"/>
            <path d="M91.518 85.651L69.31 98.475 47.093 111.3M91.518 111.3L69.31 98.474M135.952 111.29l-22.217 12.825v25.648l22.217 12.824 22.208-12.824v-25.648"/>
            <path d="M113.735 124.115l22.217 12.824v51.593"/>
            <path d="M158.16 124.115l-22.208 12.824-22.217 12.824"/>
            <path d="M135.952 136.939l22.208 12.824 15.268 9.276 7.106 4.315-.009-.584v-25.936l.01-25.657 22.207-12.824M135.952 111.29V85.644l-22.217-12.825-22.217 12.825v25.648l22.217 12.824z"/>
            <path d="M91.518 111.29l22.217-12.823 22.217-12.824 22.208-12.04v24.864M69.31 149.772v-25.648l-22.217-12.825-22.217 12.825v25.648l22.217 12.824"/>
            <path d="M24.876 107.533l-14.857 8.282 14.857 8.309 22.217 12.824v25.665"/>
            <path d="M69.31 124.124l-22.217 12.824-22.217 12.824v26.415L2.53 188.532V163.25M69.31 149.772l-22.217-12.824M113.735 149.763v-25.648L91.518 111.29 69.31 124.115v25.648l22.208 12.824z"/>
            <path d="M69.31 124.115l22.208 12.824v25.666L69.31 176.039l22.208 13.077 22.217-12.929"/>
            <path d="M113.735 124.115l-22.217 12.824-22.208 12.824M10.019 81.38l14.857-8.553M10.019 132.597v-16.782M91.518 34.66v25.578L69.31 72.828V47.012M135.952 111.29l-22.217-12.823V56.098l15.224-8.936M143.643 64.458l14.517 9.145M47.093 188.532l-22.217-12.345M306.38 210.17v-25.648l-22.217-12.825-22.216 12.825v25.648l22.216 12.824z"/>
            <path d="M306.38 184.522l-22.217 12.824-22.216 12.824"/>
            <path d="M284.163 248.642v-25.648l-22.216-12.824-22.209 12.824v25.648l22.209 12.815"/>
            <path d="M224.872 214.677l14.866 8.317 22.209 12.824v25.657"/>
            <path d="M239.738 274.177v-25.535l22.209-12.824 22.216-12.824v-25.675M284.163 248.633l-22.216-12.815M224.96 85.538V59.89l22.216-12.824 22.208 12.824v25.648l-22.208 12.824z"/>
            <path d="M247.176 98.37V72.715l22.208-12.824 22.217-12.824V30.327"/>
            <path d="M224.96 59.89l22.216 12.824 22.208 12.824M224.96 85.538l22.216-12.824M180.525 85.53l22.217 12.823v25.649l-22.217 12.824-22.208-12.824V98.353"/>
            <path d="M158.317 98.353l22.217 12.824 22.208 12.825M180.525 111.177l-22.208 12.825M180.534 85.53V59.88l22.208-12.824L224.96 59.88v25.648l-22.217 12.824z"/>
            <path d="M224.81 85.53l-22.216-12.825-22.217-12.824-22.217-12.04v25.736M247.176 124.01V98.362l22.208-12.824 22.217 12.824v25.648l-22.217 12.816"/>
            <path d="M291.601 81.763l14.867 8.282-14.867 8.317-22.217 12.824v25.657"/>
            <path d="M247.176 98.362l22.208 12.824 22.217 12.824v26.407l22.348 12.353v-25.282M247.176 124.002l22.208-12.816"/>
            <path d="M202.742 124.002V98.353L224.96 85.53l22.217 12.824v25.649l-22.217 12.824z"/>
            <path d="M247.176 98.353l-22.217 12.824v25.657l22.217 13.443-22.217 13.077-22.295-12.98"/>
            <path d="M202.742 98.353l22.217 12.824 22.217 12.825M224.96 8.89v25.578l22.216 12.598V21.252M180.534 85.53l22.208-12.825V30.327l-15.224-8.936M172.687 38.696l-14.527 9.146M158.23 227.693v25.648l-22.217 12.815-22.208-12.815v-25.648l22.208-12.824z"/>
            <path d="M136.013 214.851v25.666l-22.208 12.824-22.217 12.815v16.739"/>
            <path d="M158.23 253.341l-22.217-12.824-22.208-12.824M158.23 227.693l-22.217 12.824M202.664 227.702l-22.217-12.825V189.23l22.217-12.824 22.208 12.824v25.648"/>
            <path d="M180.447 214.877l22.217-12.824v-51.68"/>
            <path d="M224.872 214.877l-22.208-12.824-22.217-12.824"/>
            <path d="M202.664 202.053l22.208-12.824 15.268-9.276M202.664 227.702v25.639l-22.217 12.824-22.217-12.824v-25.64l22.217-12.824z"/>
            <path d="M158.23 227.702l22.217 12.824 22.217 12.815 16.662 9.04 20.412 11.255M136.013 189.22v25.649l-22.208 12.824-22.217-12.824V189.22"/>
            <path d="M91.588 231.459l-14.866-8.282 14.866-8.308 22.217-12.824v-25.666M136.013 189.22l-22.208 12.825M180.447 189.23v25.647l-22.217 12.825-22.217-12.825V189.23l22.217-12.824z"/>
            <path d="M136.013 214.877l22.217-12.824v-25.665l-22.217-13.435M180.447 214.877l-22.217-12.824-22.217-12.824M76.722 257.613l14.866 8.552M76.722 206.395v16.782M158.23 304.332v-25.578l-22.217-12.598v25.823M202.664 227.702l-22.217 12.824v42.369l15.224 8.936M261.947 184.522l44.433 25.648"/>
        </g>
        <g fill="#FFF" fill-rule="nonzero" opacity=".5" transform="translate(0 7.103)">
            <ellipse cx="24.876" cy="47.818" rx="2.136" ry="2.136"/>
            <ellipse cx="9.33" cy="74.277" rx="2.136" ry="2.136"/>
            <ellipse cx="24.876" cy="65.725" rx="2.136" ry="2.136"/>
            <ellipse cx="46.84" cy="78.549" rx="2.136" ry="2.136"/>
            <ellipse cx="69.319" cy="91.251" rx="2.136" ry="2.136"/>
            <ellipse cx="113.744" cy="91.251" rx="2.136" ry="2.136"/>
            <ellipse cx="69.319" cy="65.725" rx="2.136" ry="2.136"/>
            <ellipse cx="69.319" cy="40.059" rx="2.136" ry="2.136"/>
            <ellipse cx="91.518" cy="27.557" rx="2.136" ry="2.136"/>
            <ellipse cx="91.518" cy="53.049" rx="2.136" ry="2.136"/>
            <ellipse cx="91.518" cy="78.549" rx="2.136" ry="2.136"/>
            <ellipse cx="91.518" cy="104.075" rx="2.136" ry="2.136"/>
            <ellipse cx="69.319" cy="117.038" rx="2.136" ry="2.136"/>
            <ellipse cx="69.31" cy="142.826" rx="2.136" ry="2.136"/>
            <ellipse cx="46.84" cy="129.863" rx="2.136" ry="2.136"/>
            <ellipse cx="46.666" cy="155.485" rx="2.136" ry="2.136"/>
            <ellipse cx="24.876" cy="142.661" rx="2.136" ry="2.136"/>
            <ellipse cx="24.876" cy="169.085" rx="2.136" ry="2.136"/>
            <ellipse cx="46.387" cy="181.107" rx="2.136" ry="2.136"/>
            <ellipse cx="2.529" cy="181.107" rx="2.136" ry="2.136"/>
            <ellipse cx="2.529" cy="156.696" rx="2.136" ry="2.136"/>
            <ellipse cx="91.518" cy="129.863" rx="2.136" ry="2.136"/>
            <ellipse cx="91.588" cy="155.485" rx="2.136" ry="2.136"/>
            <ellipse cx="113.735" cy="142.826" rx="2.136" ry="2.136"/>
            <ellipse cx="69.319" cy="169.085" rx="2.136" ry="2.136"/>
            <ellipse cx="113.744" cy="66.03" rx="2.136" ry="2.136"/>
            <ellipse cx="113.814" cy="48.995" rx="2.136" ry="2.136"/>
            <ellipse cx="128.872" cy="40.059" rx="2.136" ry="2.136"/>
            <ellipse cx="135.943" cy="78.854" rx="2.136" ry="2.136"/>
            <ellipse cx="143.643" cy="57.443" rx="2.136" ry="2.136"/>
            <ellipse cx="158.16" cy="66.501" rx="2.136" ry="2.136"/>
            <ellipse cx="158.16" cy="40.739" rx="2.136" ry="2.136"/>
            <ellipse cx="172.687" cy="31.594" rx="2.136" ry="2.136"/>
            <ellipse cx="180.525" cy="52.787" rx="2.136" ry="2.136"/>
            <ellipse cx="180.525" cy="78.549" rx="2.136" ry="2.136"/>
            <ellipse cx="224.811" cy="78.427" rx="2.136" ry="2.136"/>
            <ellipse cx="202.655" cy="66.152" rx="2.136" ry="2.136"/>
            <ellipse cx="202.742" cy="91.251" rx="2.136" ry="2.136"/>
            <ellipse cx="202.821" cy="116.751" rx="2.136" ry="2.136"/>
            <ellipse cx="247.098" cy="116.629" rx="2.136" ry="2.136"/>
            <ellipse cx="269.384" cy="104.084" rx="2.136" ry="2.136"/>
            <ellipse cx="269.384" cy="129.836" rx="2.136" ry="2.136"/>
            <ellipse cx="247.098" cy="143.271" rx="2.136" ry="2.136"/>
            <ellipse cx="225.491" cy="155.851" rx="2.136" ry="2.136"/>
            <ellipse cx="202.821" cy="143.855" rx="2.136" ry="2.136"/>
            <ellipse cx="202.655" cy="169.303" rx="2.136" ry="2.136"/>
            <ellipse cx="224.872" cy="182.127" rx="2.136" ry="2.136"/>
            <ellipse cx="180.525" cy="182.502" rx="2.136" ry="2.136"/>
            <ellipse cx="239.738" cy="172.851" rx="2.136" ry="2.136"/>
            <ellipse cx="291.601" cy="116.751" rx="2.136" ry="2.136"/>
            <ellipse cx="313.949" cy="130.865" rx="2.136" ry="2.136"/>
            <ellipse cx="313.949" cy="155.485" rx="2.136" ry="2.136"/>
            <ellipse cx="291.601" cy="143.271" rx="2.136" ry="2.136"/>
            <ellipse cx="224.95" cy="104.354" rx="2.136" ry="2.136"/>
            <ellipse cx="225.038" cy="129.453" rx="2.136" ry="2.136"/>
            <ellipse cx="224.959" cy="53.049" rx="2.136" ry="2.136"/>
            <ellipse cx="202.742" cy="40.059" rx="2.136" ry="2.136"/>
            <ellipse cx="268.774" cy="78.374" rx="2.136" ry="2.136"/>
            <ellipse cx="246.627" cy="66.099" rx="2.136" ry="2.136"/>
            <ellipse cx="247.176" cy="91.198" rx="2.136" ry="2.136"/>
            <ellipse cx="284.094" cy="190.513" rx="2.136" ry="2.136"/>
            <ellipse cx="306.38" cy="177.959" rx="2.136" ry="2.136"/>
            <ellipse cx="306.38" cy="202.849" rx="2.136" ry="2.136"/>
            <ellipse cx="284.094" cy="215.403" rx="2.136" ry="2.136"/>
            <ellipse cx="261.947" cy="178.238" rx="2.136" ry="2.136"/>
            <ellipse cx="262.034" cy="203.329" rx="2.136" ry="2.136"/>
            <ellipse cx="261.886" cy="228.811" rx="2.136" ry="2.136"/>
            <ellipse cx="284.094" cy="240.973" rx="2.136" ry="2.136"/>
            <ellipse cx="261.886" cy="253.71" rx="2.136" ry="2.136"/>
            <ellipse cx="239.738" cy="216.536" rx="2.136" ry="2.136"/>
            <ellipse cx="202.655" cy="194.942" rx="2.136" ry="2.136"/>
            <ellipse cx="180.525" cy="207.574" rx="2.136" ry="2.136"/>
            <ellipse cx="224.872" cy="207.775" rx="2.136" ry="2.136"/>
            <ellipse cx="239.817" cy="241.635" rx="2.136" ry="2.136"/>
            <ellipse cx="202.707" cy="220.555" rx="2.136" ry="2.136"/>
            <ellipse cx="180.499" cy="233.092" rx="2.136" ry="2.136"/>
            <ellipse cx="202.707" cy="246.125" rx="2.136" ry="2.136"/>
            <ellipse cx="180.499" cy="258.862" rx="2.136" ry="2.136"/>
            <ellipse cx="180.499" cy="275.792" rx="2.136" ry="2.136"/>
            <ellipse cx="158.23" cy="297.23" rx="2.136" ry="2.136"/>
            <ellipse cx="158.23" cy="271.529" rx="2.136" ry="2.136"/>
            <ellipse cx="136.013" cy="284.728" rx="2.136" ry="2.136"/>
            <ellipse cx="136.013" cy="258.862" rx="2.136" ry="2.136"/>
            <ellipse cx="113.735" cy="246.125" rx="2.136" ry="2.136"/>
            <ellipse cx="91.588" cy="258.862" rx="2.136" ry="2.136"/>
            <ellipse cx="91.518" cy="275.792" rx="2.136" ry="2.136"/>
            <ellipse cx="76.722" cy="250.51" rx="2.136" ry="2.136"/>
            <ellipse cx="195.758" cy="284.728" rx="2.136" ry="2.136"/>
            <ellipse cx="158.352" cy="221.697" rx="2.136" ry="2.136"/>
            <ellipse cx="135.943" cy="233.423" rx="2.136" ry="2.136"/>
            <ellipse cx="113.805" cy="220.555" rx="2.136" ry="2.136"/>
            <ellipse cx="136.013" cy="207.775" rx="2.136" ry="2.136"/>
            <ellipse cx="158.16" cy="194.942" rx="2.136" ry="2.136"/>
            <ellipse cx="158.16" cy="169.303" rx="2.136" ry="2.136"/>
            <ellipse cx="135.943" cy="182.127" rx="2.136" ry="2.136"/>
            <ellipse cx="113.805" cy="194.942" rx="2.136" ry="2.136"/>
            <ellipse cx="91.588" cy="207.749" rx="2.136" ry="2.136"/>
            <ellipse cx="91.588" cy="182.013" rx="2.136" ry="2.136"/>
            <ellipse cx="113.735" cy="169.276" rx="2.136" ry="2.136"/>
            <ellipse cx="76.722" cy="215.891" rx="2.136" ry="2.136"/>
            <ellipse cx="76.722" cy="199.292" rx="2.136" ry="2.136"/>
            <ellipse cx="91.518" cy="224.356" rx="2.136" ry="2.136"/>
            <ellipse cx="158.431" cy="246.788" rx="2.136" ry="2.136"/>
            <ellipse cx="239.817" cy="266.534" rx="2.136" ry="2.136"/>
            <ellipse cx="284.172" cy="165.083" rx="2.136" ry="2.136"/>
            <ellipse cx="268.931" cy="53.005" rx="2.136" ry="2.136"/>
            <ellipse cx="291.601" cy="23.225" rx="2.136" ry="2.136"/>
            <ellipse cx="247.176" cy="39.954" rx="2.136" ry="2.136"/>
            <ellipse cx="291.601" cy="39.954" rx="2.136" ry="2.136"/>
            <ellipse cx="292.473" cy="75.157" rx="2.136" ry="2.136"/>
            <ellipse cx="306.468" cy="82.821" rx="2.136" ry="2.136"/>
            <ellipse cx="291.601" cy="91.198" rx="2.136" ry="2.136"/>
            <ellipse cx="247.176" cy="14.289" rx="2.136" ry="2.136"/>
            <ellipse cx="224.959" cy="2.214" rx="2.136" ry="2.136"/>
            <ellipse cx="224.959" cy="27.322" rx="2.136" ry="2.136"/>
            <ellipse cx="202.655" cy="23.225" rx="2.136" ry="2.136"/>
            <ellipse cx="187.911" cy="14.289" rx="2.136" ry="2.136"/>
            <ellipse cx="135.943" cy="104.38" rx="2.136" ry="2.136"/>
            <ellipse cx="113.744" cy="117.344" rx="2.136" ry="2.136"/>
            <ellipse cx="136.013" cy="129.706" rx="2.136" ry="2.136"/>
            <ellipse cx="136.083" cy="155.328" rx="2.136" ry="2.136"/>
            <ellipse cx="158.23" cy="142.669" rx="2.136" ry="2.136"/>
            <ellipse cx="180.525" cy="155.851" rx="2.136" ry="2.136"/>
            <ellipse cx="158.23" cy="117.187" rx="2.136" ry="2.136"/>
            <ellipse cx="180.525" cy="104.075" rx="2.136" ry="2.136"/>
            <ellipse cx="158.317" cy="91.198" rx="2.136" ry="2.136"/>
            <ellipse cx="180.447" cy="129.453" rx="2.136" ry="2.136"/>
            <ellipse cx="47.093" cy="104.214" rx="2.136" ry="2.136"/>
            <ellipse cx="25.399" cy="117.344" rx="2.136" ry="2.136"/>
            <ellipse cx="10.019" cy="108.713" rx="2.136" ry="2.136"/>
            <ellipse cx="10.019" cy="125.495" rx="2.136" ry="2.136"/>
            <ellipse cx="24.876" cy="100.431" rx="2.136" ry="2.136"/>
        </g>
        <g fill="#FFF" fill-rule="nonzero" opacity=".5" transform="translate(4.36 24.538)">
            <ellipse cx="20.386" cy="30.112" rx="5.554" ry="5.553"/>
            <ellipse cx="87.159" cy="35.351" rx="5.554" ry="5.553"/>
            <ellipse cx="139.283" cy="39.815" rx="5.554" ry="5.553"/>
            <ellipse cx="287.241" cy="5.588" rx="5.554" ry="5.553"/>
            <ellipse cx="242.738" cy="22.518" rx="5.554" ry="5.553"/>
            <ellipse cx="198.295" cy="5.989" rx="5.554" ry="5.553"/>
            <ellipse cx="287.241" cy="73.832" rx="5.554" ry="5.553"/>
            <ellipse cx="309.589" cy="137.892" rx="5.554" ry="5.553"/>
            <ellipse cx="302.108" cy="185.413" rx="5.554" ry="5.553"/>
            <ellipse cx="257.526" cy="236.274" rx="5.554" ry="5.553"/>
            <ellipse cx="279.804" cy="147.647" rx="5.554" ry="5.553"/>
            <ellipse cx="176.052" cy="258.356" rx="5.554" ry="5.553"/>
            <ellipse cx="131.653" cy="267.292" rx="5.554" ry="5.553"/>
            <ellipse cx="87.159" cy="241.426" rx="5.554" ry="5.553"/>
            <ellipse cx="221.131" cy="138.049" rx="5.554" ry="5.553"/>
            <ellipse cx="109.375" cy="151.867" rx="5.554" ry="5.553"/>
            <ellipse cx="131.584" cy="86.944" rx="5.554" ry="5.553"/>
            <ellipse cx="5.659" cy="91.277" rx="5.554" ry="5.553"/>
            <ellipse cx="72.362" cy="198.638" rx="5.554" ry="5.553"/>
            <ellipse cx="153.801" cy="177.515" rx="5.554" ry="5.553"/>
            <ellipse cx="20.517" cy="151.649" rx="5.554" ry="5.553"/>
            <ellipse cx="42.306" cy="60.991" rx="5.554" ry="5.553"/>
        </g>
        <g style="mix-blend-mode:lighten" transform="translate(18.31 1)">
            <path fill="url(#a)" fill-rule="nonzero" d="M120.432 137.003l66.72-38.76 66.65 38.472-66.11 38.952z"/>
            <path fill="url(#b)" fill-rule="nonzero" d="M29.035 136.872l66.72-38.751 66.652 38.472-66.11 38.952z"/>
            <ellipse cx="74.925" cy="35.499" stroke="#FA0171" stroke-width=".872" rx="7.621" ry="7.619"/>
            <ellipse cx="110.649" cy="45.577" stroke="#FA0171" stroke-width=".872" rx="7.621" ry="7.619"/>
            <ellipse cx="7.961" cy="72.132" stroke="#FA0171" stroke-width=".872" rx="7.621" ry="7.619"/>
            <ellipse cx="8.702" cy="175.667" stroke="#FA0171" stroke-width=".872" rx="7.621" ry="7.619"/>
            <ellipse cx="73.277" cy="264.965" stroke="#FA0171" stroke-width=".872" rx="7.621" ry="7.619"/>
            <ellipse cx="162.101" cy="281.895" stroke="#FA0171" stroke-width=".872" rx="7.621" ry="7.619"/>
            <ellipse cx="221.428" cy="272.584" stroke="#38D611" stroke-width=".872" rx="7.621" ry="7.619"/>
            <ellipse cx="164.325" cy="239.194" stroke="#38D611" stroke-width=".872" rx="7.621" ry="7.619"/>
            <ellipse cx="265.783" cy="196.319" stroke="#38D611" stroke-width=".872" rx="7.621" ry="7.619"/>
            <ellipse cx="288.157" cy="88.836" stroke="#38D611" stroke-width=".872" rx="7.621" ry="7.619"/>
            <ellipse cx="251.074" cy="84.477" stroke="#38D611" stroke-width=".872" rx="7.621" ry="7.619"/>
            <ellipse cx="206.5" cy="7.89" stroke="#38D611" stroke-width=".872" rx="7.621" ry="7.619"/>
            <ellipse cx="169.6" cy="19.363" stroke="#38D611" stroke-width=".872" rx="7.621" ry="7.619"/>
        </g>
        <g stroke-dasharray="0" stroke-linecap="round" stroke-width="3.488">
            <path stroke="#38D611" d="M204.451 176.91l-1.744 52.884-20.072 10.4"/>
            <path stroke="#FA0171" d="M113.744 96.217l-.009-40.12 15.224-8.935M24.876 72.827l21.79 12.702-36.647 30.286 36.752 22.31.322 50.407-20.08-12.345"/>
            <path stroke="#38D611" d="M272.113 137.715l19.488-13.705V98.37l-22.217-12.832M204.887 99.495V30.327l-19.113-11.072"/>
            <path stroke="#FA0171" d="M135.952 238.39l-42.228 27.575M180.5 282.895l-.053-16.73-44.504-25.64V189.23l-22.138 12.816.227-25.256M111.677 56.097L91.518 34.66"/>
            <path stroke="#38D611" d="M202.707 234.484v16.399M207.337 255.782l30.082 16.582M301.506 92.826l-7.429 4.159M208.558 49.698l14.352 8.91M229.389 57.318l15.494-8.98M247.115 41.896l.052-18.064M242.73 18.776l-15.547-8.648M207.023 199.455l32.715-19.502 19.741 4.786M261.964 190.354l.061 17.575M266.019 207.868l13.95-8.97"/>
        </g>
        <g stroke-width="2.616">
            <path stroke="#38D611" d="M138.167 138.247l66.72-38.752 66.65 38.473-66.11 38.943z"/>
            <path stroke="#FA0171" d="M46.77 138.125l66.73-38.752 66.642 38.464-66.11 38.952z"/>
        </g>
    </g>
</svg>
