<svg xmlns="http://www.w3.org/2000/svg" width="151" height="154" viewBox="0 0 151 154">
    <defs>
        <linearGradient id="a" x1="0%" y1="50%" y2="50%">
            <stop offset="0%" stop-color="#364A68"/>
            <stop offset="100%" stop-color="#38D611"/>
        </linearGradient>
        <linearGradient id="b" x1="0%" y1="50%" y2="50%">
            <stop offset="0%" stop-color="#364A68"/>
            <stop offset="100%" stop-color="#FA0171"/>
        </linearGradient>
    </defs>
    <g fill="none" fill-rule="evenodd">
        <path d="M-17-14h184v180H-17z"/>
        <g>
            <g stroke="#00152B" stroke-width=".5" opacity=".2">
                <path d="M43.02 49.157v-12.1l-10.44-6.05-10.443 6.05v12.1l10.443 6.05z"/>
                <path d="M32.58 55.216V43.107l-10.443-6.05-10.443-6.05v-7.892"/>
                <path d="M43.02 37.057l-10.44 6.05-10.443 6.05M43.02 49.157l-10.44-6.05M63.907 49.153l-10.444 6.05v12.1l10.444 6.05 10.439-6.05v-12.1"/>
                <path d="M53.463 55.203l10.444 6.05v24.341"/>
                <path d="M74.346 55.203l-10.44 6.05-10.443 6.05"/>
                <path d="M63.907 61.253l10.439 6.05 7.177 4.377 3.34 2.036-.004-.276V61.204l.004-12.104 10.44-6.05M63.907 49.153v-12.1l-10.444-6.05-10.443 6.05v12.1l10.443 6.05z"/>
                <path d="M43.02 49.153l10.443-6.05 10.444-6.05 10.439-5.68v11.73M32.58 67.308v-12.1l-10.443-6.05-10.443 6.05v12.1l10.443 6.05"/>
                <path d="M11.694 47.38l-6.985 3.908 6.985 3.92 10.443 6.05v12.108"/>
                <path d="M32.58 55.208l-10.443 6.05-10.443 6.05V79.77L1.189 85.594V73.666M32.58 67.308l-10.443-6.05M53.463 67.304v-12.1l-10.443-6.05-10.44 6.05v12.1l10.44 6.05z"/>
                <path d="M32.58 55.203l10.44 6.05v12.109L32.58 79.7l10.44 6.17 10.443-6.1"/>
                <path d="M53.463 55.203l-10.443 6.05-10.44 6.05M4.71 35.042l6.984-4.035M4.71 59.205v-7.917M43.02 13v12.068l-10.44 5.94v-12.18M63.907 49.153l-10.444-6.05V23.115l7.156-4.216M67.522 27.059l6.824 4.314M22.137 85.594L11.694 79.77M144.02 95.802v-12.1l-10.444-6.05-10.444 6.05v12.1l10.444 6.05z"/>
                <path d="M144.02 83.702l-10.444 6.05-10.444 6.05M133.576 113.952v-12.1l-10.444-6.05-10.439 6.05v12.1l10.44 6.046"/>
                <path d="M105.705 97.928l6.988 3.924 10.44 6.05v12.104"/>
                <path d="M112.693 125.999v-12.047l10.44-6.05 10.443-6.05V89.739M133.576 113.948l-10.444-6.046M105.746 37.004v-12.1l10.443-6.05 10.44 6.05v12.1l-10.44 6.05z"/>
                <path d="M116.19 43.058V30.954l10.439-6.05 10.443-6.05v-7.897"/>
                <path d="M105.746 24.904l10.443 6.05 10.44 6.05M105.746 37.004l10.443-6.05M84.859 37l10.443 6.05v12.1L84.86 61.2l-10.44-6.05v-12.1"/>
                <path d="M74.42 43.05l10.443 6.05 10.44 6.05M84.859 49.1l-10.44 6.05M84.863 37V24.9l10.44-6.05 10.443 6.05V37l-10.444 6.05z"/>
                <path d="M105.676 37l-10.443-6.05-10.444-6.05-10.443-5.68v12.14M116.19 55.154v-12.1l10.439-6.05 10.443 6.05v12.1L126.63 61.2"/>
                <path d="M137.072 35.223l6.988 3.907-6.988 3.924-10.443 6.05v12.104"/>
                <path d="M116.19 43.054l10.439 6.05 10.443 6.05v12.458l10.505 5.828V61.513M116.19 55.15l10.439-6.046M95.302 55.15v-12.1L105.746 37l10.443 6.05v12.1l-10.443 6.05z"/>
                <path d="M116.19 43.05l-10.444 6.05v12.104l10.443 6.342-10.443 6.17-10.48-6.125"/>
                <path d="M95.302 43.05l10.444 6.05 10.443 6.05M105.746.843V12.91l10.443 5.944V6.675M84.863 37l10.44-6.05V10.957L88.145 6.74M81.174 14.905l-6.828 4.315M74.379 104.069v12.1l-10.444 6.046-10.44-6.046v-12.1l10.44-6.05z"/>
                <path d="M63.935 98.01v12.109l-10.44 6.05-10.442 6.046v7.897"/>
                <path d="M74.379 116.169l-10.444-6.05-10.44-6.05M74.379 104.069l-10.444 6.05M95.266 104.073l-10.444-6.05v-12.1l10.444-6.05 10.439 6.05v12.1"/>
                <path d="M84.822 98.023l10.444-6.05V67.59"/>
                <path d="M105.705 98.023l-10.44-6.05-10.443-6.05M95.266 91.973l10.439-6.05 7.177-4.376M95.266 104.073v12.096l-10.444 6.05-10.443-6.05v-12.096l10.443-6.05z"/>
                <path d="M74.379 104.073l10.443 6.05 10.444 6.046 7.832 4.265 9.595 5.31M63.935 85.919v12.1l-10.44 6.05-10.442-6.05v-12.1"/>
                <path d="M43.053 105.846l-6.989-3.908 6.989-3.92 10.443-6.05V79.86M63.935 85.919l-10.44 6.05M84.822 85.923v12.1l-10.443 6.05-10.444-6.05v-12.1l10.444-6.05z"/>
                <path d="M63.935 98.023l10.444-6.05V79.864l-10.444-6.338"/>
                <path d="M84.822 98.023l-10.443-6.05-10.444-6.05M36.064 118.184l6.989 4.035M36.064 94.021v7.917M74.379 140.225v-12.067l-10.444-5.943v12.182M95.266 104.073l-10.444 6.05v19.989l7.156 4.215M123.132 83.702l20.887 12.1"/>
            </g>
            <g fill="#00152B" fill-rule="nonzero" opacity=".3">
                <ellipse cx="11.694" cy="22.559" rx="1.004" ry="1.008"/>
                <ellipse cx="4.386" cy="35.042" rx="1.004" ry="1.008"/>
                <ellipse cx="11.694" cy="31.007" rx="1.004" ry="1.008"/>
                <ellipse cx="22.018" cy="37.057" rx="1.004" ry="1.008"/>
                <ellipse cx="32.584" cy="43.05" rx="1.004" ry="1.008"/>
                <ellipse cx="53.467" cy="43.05" rx="1.004" ry="1.008"/>
                <ellipse cx="32.584" cy="31.007" rx="1.004" ry="1.008"/>
                <ellipse cx="32.584" cy="18.899" rx="1.004" ry="1.008"/>
                <ellipse cx="43.02" cy="13.001" rx="1.004" ry="1.008"/>
                <ellipse cx="43.02" cy="25.027" rx="1.004" ry="1.008"/>
                <ellipse cx="43.02" cy="37.057" rx="1.004" ry="1.008"/>
                <ellipse cx="43.02" cy="49.1" rx="1.004" ry="1.008"/>
                <ellipse cx="32.584" cy="55.216" rx="1.004" ry="1.008"/>
                <ellipse cx="32.58" cy="67.382" rx="1.004" ry="1.008"/>
                <ellipse cx="22.018" cy="61.266" rx="1.004" ry="1.008"/>
                <ellipse cx="21.936" cy="73.354" rx="1.004" ry="1.008"/>
                <ellipse cx="11.694" cy="67.304" rx="1.004" ry="1.008"/>
                <ellipse cx="11.694" cy="79.77" rx="1.004" ry="1.008"/>
                <ellipse cx="21.805" cy="85.441" rx="1.004" ry="1.008"/>
                <ellipse cx="1.189" cy="85.441" rx="1.004" ry="1.008"/>
                <ellipse cx="1.189" cy="73.925" rx="1.004" ry="1.008"/>
                <ellipse cx="43.02" cy="61.266" rx="1.004" ry="1.008"/>
                <ellipse cx="43.053" cy="73.354" rx="1.004" ry="1.008"/>
                <ellipse cx="53.463" cy="67.382" rx="1.004" ry="1.008"/>
                <ellipse cx="32.584" cy="79.77" rx="1.004" ry="1.008"/>
                <ellipse cx="53.467" cy="31.151" rx="1.004" ry="1.008"/>
                <ellipse cx="53.5" cy="23.115" rx="1.004" ry="1.008"/>
                <ellipse cx="60.578" cy="18.899" rx="1.004" ry="1.008"/>
                <ellipse cx="63.902" cy="37.201" rx="1.004" ry="1.008"/>
                <ellipse cx="67.522" cy="27.1" rx="1.004" ry="1.008"/>
                <ellipse cx="74.346" cy="31.373" rx="1.004" ry="1.008"/>
                <ellipse cx="74.346" cy="19.22" rx="1.004" ry="1.008"/>
                <ellipse cx="81.174" cy="14.905" rx="1.004" ry="1.008"/>
                <ellipse cx="84.859" cy="24.904" rx="1.004" ry="1.008"/>
                <ellipse cx="84.859" cy="37.057" rx="1.004" ry="1.008"/>
                <ellipse cx="105.676" cy="37" rx="1.004" ry="1.008"/>
                <ellipse cx="95.261" cy="31.209" rx="1.004" ry="1.008"/>
                <ellipse cx="95.302" cy="43.05" rx="1.004" ry="1.008"/>
                <ellipse cx="95.339" cy="55.08" rx="1.004" ry="1.008"/>
                <ellipse cx="116.152" cy="55.022" rx="1.004" ry="1.008"/>
                <ellipse cx="126.629" cy="49.104" rx="1.004" ry="1.008"/>
                <ellipse cx="126.629" cy="61.253" rx="1.004" ry="1.008"/>
                <ellipse cx="116.152" cy="67.591" rx="1.004" ry="1.008"/>
                <ellipse cx="105.996" cy="73.526" rx="1.004" ry="1.008"/>
                <ellipse cx="95.339" cy="67.867" rx="1.004" ry="1.008"/>
                <ellipse cx="95.261" cy="79.873" rx="1.004" ry="1.008"/>
                <ellipse cx="105.705" cy="85.923" rx="1.004" ry="1.008"/>
                <ellipse cx="84.859" cy="86.1" rx="1.004" ry="1.008"/>
                <ellipse cx="112.693" cy="81.547" rx="1.004" ry="1.008"/>
                <ellipse cx="137.072" cy="55.08" rx="1.004" ry="1.008"/>
                <ellipse cx="147.577" cy="61.739" rx="1.004" ry="1.008"/>
                <ellipse cx="147.577" cy="73.354" rx="1.004" ry="1.008"/>
                <ellipse cx="137.072" cy="67.591" rx="1.004" ry="1.008"/>
                <ellipse cx="105.742" cy="49.231" rx="1.004" ry="1.008"/>
                <ellipse cx="105.783" cy="61.072" rx="1.004" ry="1.008"/>
                <ellipse cx="105.746" cy="25.027" rx="1.004" ry="1.008"/>
                <ellipse cx="95.302" cy="18.899" rx="1.004" ry="1.008"/>
                <ellipse cx="126.342" cy="36.975" rx="1.004" ry="1.008"/>
                <ellipse cx="115.931" cy="31.184" rx="1.004" ry="1.008"/>
                <ellipse cx="116.189" cy="43.025" rx="1.004" ry="1.008"/>
                <ellipse cx="133.543" cy="89.879" rx="1.004" ry="1.008"/>
                <ellipse cx="144.019" cy="83.957" rx="1.004" ry="1.008"/>
                <ellipse cx="144.019" cy="95.699" rx="1.004" ry="1.008"/>
                <ellipse cx="133.543" cy="101.622" rx="1.004" ry="1.008"/>
                <ellipse cx="123.132" cy="84.088" rx="1.004" ry="1.008"/>
                <ellipse cx="123.173" cy="95.925" rx="1.004" ry="1.008"/>
                <ellipse cx="123.104" cy="107.947" rx="1.004" ry="1.008"/>
                <ellipse cx="133.543" cy="113.685" rx="1.004" ry="1.008"/>
                <ellipse cx="123.104" cy="119.694" rx="1.004" ry="1.008"/>
                <ellipse cx="112.693" cy="102.156" rx="1.004" ry="1.008"/>
                <ellipse cx="95.261" cy="91.969" rx="1.004" ry="1.008"/>
                <ellipse cx="84.859" cy="97.928" rx="1.004" ry="1.008"/>
                <ellipse cx="105.705" cy="98.023" rx="1.004" ry="1.008"/>
                <ellipse cx="112.73" cy="113.997" rx="1.004" ry="1.008"/>
                <ellipse cx="95.286" cy="104.052" rx="1.004" ry="1.008"/>
                <ellipse cx="84.847" cy="109.967" rx="1.004" ry="1.008"/>
                <ellipse cx="95.286" cy="116.115" rx="1.004" ry="1.008"/>
                <ellipse cx="84.847" cy="122.124" rx="1.004" ry="1.008"/>
                <ellipse cx="84.847" cy="130.112" rx="1.004" ry="1.008"/>
                <ellipse cx="74.379" cy="140.225" rx="1.004" ry="1.008"/>
                <ellipse cx="74.379" cy="128.1" rx="1.004" ry="1.008"/>
                <ellipse cx="63.935" cy="134.327" rx="1.004" ry="1.008"/>
                <ellipse cx="63.935" cy="122.124" rx="1.004" ry="1.008"/>
                <ellipse cx="53.463" cy="116.115" rx="1.004" ry="1.008"/>
                <ellipse cx="43.053" cy="122.124" rx="1.004" ry="1.008"/>
                <ellipse cx="43.02" cy="130.112" rx="1.004" ry="1.008"/>
                <ellipse cx="36.064" cy="118.184" rx="1.004" ry="1.008"/>
                <ellipse cx="92.019" cy="134.327" rx="1.004" ry="1.008"/>
                <ellipse cx="74.436" cy="104.591" rx="1.004" ry="1.008"/>
                <ellipse cx="63.902" cy="110.123" rx="1.004" ry="1.008"/>
                <ellipse cx="53.496" cy="104.052" rx="1.004" ry="1.008"/>
                <ellipse cx="63.935" cy="98.023" rx="1.004" ry="1.008"/>
                <ellipse cx="74.346" cy="91.969" rx="1.004" ry="1.008"/>
                <ellipse cx="74.346" cy="79.873" rx="1.004" ry="1.008"/>
                <ellipse cx="63.902" cy="85.923" rx="1.004" ry="1.008"/>
                <ellipse cx="53.496" cy="91.969" rx="1.004" ry="1.008"/>
                <ellipse cx="43.053" cy="98.01" rx="1.004" ry="1.008"/>
                <ellipse cx="43.053" cy="85.869" rx="1.004" ry="1.008"/>
                <ellipse cx="53.463" cy="79.86" rx="1.004" ry="1.008"/>
                <ellipse cx="36.064" cy="101.852" rx="1.004" ry="1.008"/>
                <ellipse cx="36.064" cy="94.021" rx="1.004" ry="1.008"/>
                <ellipse cx="43.02" cy="105.846" rx="1.004" ry="1.008"/>
                <ellipse cx="74.473" cy="116.428" rx="1.004" ry="1.008"/>
                <ellipse cx="112.73" cy="125.744" rx="1.004" ry="1.008"/>
                <ellipse cx="133.58" cy="77.882" rx="1.004" ry="1.008"/>
                <ellipse cx="126.416" cy="25.006" rx="1.004" ry="1.008"/>
                <ellipse cx="137.072" cy="10.957" rx="1.004" ry="1.008"/>
                <ellipse cx="116.189" cy="18.849" rx="1.004" ry="1.008"/>
                <ellipse cx="137.072" cy="18.849" rx="1.004" ry="1.008"/>
                <ellipse cx="137.482" cy="35.457" rx="1.004" ry="1.008"/>
                <ellipse cx="144.06" cy="39.073" rx="1.004" ry="1.008"/>
                <ellipse cx="137.072" cy="43.025" rx="1.004" ry="1.008"/>
                <ellipse cx="116.189" cy="6.741" rx="1.004" ry="1.008"/>
                <ellipse cx="105.746" cy="1.045" rx="1.004" ry="1.008"/>
                <ellipse cx="105.746" cy="12.89" rx="1.004" ry="1.008"/>
                <ellipse cx="95.261" cy="10.957" rx="1.004" ry="1.008"/>
                <ellipse cx="88.331" cy="6.741" rx="1.004" ry="1.008"/>
                <ellipse cx="63.902" cy="49.244" rx="1.004" ry="1.008"/>
                <ellipse cx="53.467" cy="55.36" rx="1.004" ry="1.008"/>
                <ellipse cx="63.935" cy="61.192" rx="1.004" ry="1.008"/>
                <ellipse cx="63.968" cy="73.28" rx="1.004" ry="1.008"/>
                <ellipse cx="74.379" cy="67.308" rx="1.004" ry="1.008"/>
                <ellipse cx="84.859" cy="73.526" rx="1.004" ry="1.008"/>
                <ellipse cx="74.379" cy="55.286" rx="1.004" ry="1.008"/>
                <ellipse cx="84.859" cy="49.1" rx="1.004" ry="1.008"/>
                <ellipse cx="74.42" cy="43.025" rx="1.004" ry="1.008"/>
                <ellipse cx="84.822" cy="61.072" rx="1.004" ry="1.008"/>
                <ellipse cx="22.137" cy="49.166" rx="1.004" ry="1.008"/>
                <ellipse cx="11.939" cy="55.36" rx="1.004" ry="1.008"/>
                <ellipse cx="4.709" cy="51.288" rx="1.004" ry="1.008"/>
                <ellipse cx="4.709" cy="59.205" rx="1.004" ry="1.008"/>
                <ellipse cx="11.694" cy="47.381" rx="1.004" ry="1.008"/>
            </g>
            <g fill="#00152B" fill-rule="nonzero" opacity=".1" transform="translate(2.05 8.226)">
                <ellipse cx="9.583" cy="14.206" rx="2.611" ry="2.62"/>
                <ellipse cx="40.97" cy="16.678" rx="2.611" ry="2.62"/>
                <ellipse cx="65.472" cy="18.784" rx="2.611" ry="2.62"/>
                <ellipse cx="135.023" cy="2.636" rx="2.611" ry="2.62"/>
                <ellipse cx="114.103" cy="10.624" rx="2.611" ry="2.62"/>
                <ellipse cx="93.212" cy="2.826" rx="2.611" ry="2.62"/>
                <ellipse cx="135.023" cy="34.832" rx="2.611" ry="2.62"/>
                <ellipse cx="145.528" cy="65.054" rx="2.611" ry="2.62"/>
                <ellipse cx="142.011" cy="87.473" rx="2.611" ry="2.62"/>
                <ellipse cx="121.054" cy="111.468" rx="2.611" ry="2.62"/>
                <ellipse cx="131.527" cy="69.656" rx="2.611" ry="2.62"/>
                <ellipse cx="82.756" cy="121.886" rx="2.611" ry="2.62"/>
                <ellipse cx="61.886" cy="126.102" rx="2.611" ry="2.62"/>
                <ellipse cx="40.97" cy="113.899" rx="2.611" ry="2.62"/>
                <ellipse cx="103.947" cy="65.128" rx="2.611" ry="2.62"/>
                <ellipse cx="51.414" cy="71.647" rx="2.611" ry="2.62"/>
                <ellipse cx="61.853" cy="41.018" rx="2.611" ry="2.62"/>
                <ellipse cx="2.66" cy="43.062" rx="2.611" ry="2.62"/>
                <ellipse cx="34.015" cy="93.713" rx="2.611" ry="2.62"/>
                <ellipse cx="72.297" cy="83.747" rx="2.611" ry="2.62"/>
                <ellipse cx="9.644" cy="71.544" rx="2.611" ry="2.62"/>
                <ellipse cx="19.887" cy="28.774" rx="2.611" ry="2.62"/>
            </g>
            <g stroke-dasharray="0" stroke-linecap="round" stroke-width="1.645">
                <path stroke="#FA0171" d="M95.302 18.899l20.887 12.055 20.883-12.1M123.132 84.088l-27.87-16.497M74.436 104.591l-20.973 11.524v25.118"/>
                <path stroke="#38D611" d="M53.676 91.557l-17.612 10.381M53.5 66.863l-.033-23.813L32.58 31.007M53.467 43.05l20.826-11.455M32.58 79.7L11.694 67.304V55.208"/>
                <path stroke="#FA0171" d="M53.463 116.115L74.38 128.1v24.793M136.068 67.591l-19.916-11.56-20.067 11.277M74.379 79.864l31.326 18.159"/>
            </g>
            <g stroke-width="1.234">
                <path stroke="#FA0171" d="M116.19 55.154v-24.2L95.301 43.05l-.036 24.541-20.887 12.282-.947 24.718 21.834 11.578M74.346 55.203L95.26 67.591M74.379 56.293l-.033-23.912"/>
                <path stroke="#38D611" d="M53.41 19.553l20.883 12.042M53.463 67.382l.033 23.579M32.584 79.77L53.5 66.863 32.58 55.207"/>
            </g>
            <path fill="url(#a)" fill-rule="nonzero" d="M74.411 55.047V31.048l-20.71-12.001-20.71 12.001v24L53.7 67.043z" opacity=".3"/>
            <path fill="url(#b)" fill-rule="nonzero" d="M136.916 66.966V42.968l-20.71-12.002-20.71 12.002v23.998l20.71 11.998zM94.085 140.098v-23.999l-20.71-11.997-20.711 11.997v23.999l20.71 12.001z" opacity=".3"/>
            <ellipse cx="136.478" cy="18.985" stroke="#FA0171" stroke-width=".5" rx="3.582" ry="3.595"/>
            <ellipse cx="95.22" cy="18.985" stroke="#FA0171" stroke-width=".5" rx="3.582" ry="3.595"/>
            <ellipse cx="123.104" cy="84.088" stroke="#FA0171" stroke-width=".5" rx="3.582" ry="3.595"/>
            <ellipse cx="104.016" cy="97.015" stroke="#FA0171" stroke-width=".5" rx="3.582" ry="3.595"/>
            <ellipse cx="53.41" cy="139.172" stroke="#FA0171" stroke-width=".5" rx="3.582" ry="3.595"/>
            <ellipse cx="36.064" cy="101.938" stroke="#38D611" stroke-width=".5" rx="3.582" ry="3.595"/>
            <ellipse cx="11.632" cy="55.36" stroke="#38D611" stroke-width=".5" rx="3.582" ry="3.595"/>
            <ellipse cx="32.478" cy="31.003" stroke="#38D611" stroke-width=".5" rx="3.582" ry="3.595"/>
        </g>
    </g>
</svg>
