<svg height='100px' width='100px'  fill="#fa0171" xmlns="http://www.w3.org/2000/svg" xmlns:xlink="http://www.w3.org/1999/xlink" version="1.1" x="0px" y="0px" viewBox="0 0 32 32" style="enable-background:new 0 0 32 32;" xml:space="preserve"><g><path d="M7.498,32H2.522c-1.379,0-2.501-1.122-2.501-2.502V14.502C0.021,13.123,1.143,12,2.522,12h4.976   C8.877,12,10,13.123,10,14.502v14.996C10,30.878,8.877,32,7.498,32z M2.522,14c-0.276,0-0.501,0.225-0.501,0.502v14.996   C2.021,29.774,2.246,30,2.522,30h4.976C7.775,30,8,29.774,8,29.498V14.502C8,14.225,7.775,14,7.498,14H2.522z"></path><path d="M25.827,32h-12.12c-0.617,0-1.234-0.146-1.787-0.422l-3.368-1.684c-0.494-0.247-0.694-0.848-0.447-1.342   s0.847-0.694,1.342-0.447l3.368,1.684C13.091,29.927,13.399,30,13.707,30h12.12c0.365,0,0.705-0.197,0.887-0.515l1.129-1.976   C29.254,25.04,30,22.23,30,19.386v-3.384C30,14.898,29.102,14,27.998,14h-7.527c-0.663,0-1.281-0.328-1.653-0.877   c-0.371-0.549-0.446-1.245-0.2-1.86C19.535,8.971,20,6.556,20,4.085V2.926C20,2.416,19.585,2,19.074,2h-0.622   c-0.411,0-0.777,0.276-0.89,0.671l-0.392,1.371c-0.84,2.937-2.233,5.635-4.141,8.021C12.045,13.294,10.577,14,9,14H6   c-0.552,0-1-0.448-1-1s0.448-1,1-1h3c0.965,0,1.865-0.433,2.468-1.187c1.741-2.178,3.013-4.641,3.779-7.321l0.392-1.371   C15.996,0.873,17.153,0,18.452,0h0.622C20.688,0,22,1.312,22,2.926v1.159c0,2.727-0.514,5.392-1.525,7.921L27.998,12   C30.205,12,32,13.795,32,16.002v3.384c0,3.192-0.837,6.345-2.421,9.116l-1.129,1.976C27.913,31.417,26.908,32,25.827,32z"></path><circle cx="5" cy="27" r="1"></circle></g></svg>