<svg xmlns="http://www.w3.org/2000/svg" viewBox="0 0 661.72 565.57"><defs><style>.cls-1{opacity:0.5;}.cls-2,.cls-5,.cls-6{fill:none;}.cls-2{stroke:#b3b3b3;stroke-width:0.86px;}.cls-2,.cls-4,.cls-5,.cls-6,.cls-9{stroke-miterlimit:10;}.cls-3{fill:gray;}.cls-4,.cls-8{fill:#38d611;}.cls-4,.cls-5,.cls-6,.cls-9{stroke:#364a68;}.cls-4{stroke-width:2px;}.cls-5,.cls-6,.cls-9{stroke-width:3px;}.cls-6{stroke-dasharray:4.03 4.03;}.cls-10,.cls-7,.cls-9{fill:#364a68;}.cls-10{stroke:#38d611;stroke-linejoin:round;stroke-width:5px;}</style></defs><title>customization</title><g id="Layer_2" data-name="Layer 2"><g id="we_logo" data-name="we logo"><g class="cls-1"><polyline class="cls-2" points="231.78 182.59 187.71 208.03 187.71 258.91 231.78 284.35 275.84 258.91 275.84 208.03"/><polyline class="cls-2" points="187.71 208.03 231.78 233.47 231.78 284.38 231.78 335.83"/><polyline class="cls-2" points="275.84 208.03 231.78 233.47 187.71 258.91"/><polyline class="cls-2" points="231.78 233.47 275.84 258.91 306.12 277.31 320.2 285.87 320.2 284.71 320.2 233.27 320.2 182.35 364.27 156.91"/><line class="cls-2" x1="99.58" y1="258.93" x2="55.51" y2="233.48"/><polyline class="cls-2" points="99.58 208.03 143.64 233.47 143.64 284.38 99.58 311.04 143.64 336.98 187.71 311.33"/><polyline class="cls-2" points="187.71 208.03 143.64 233.47 99.58 258.91"/><polyline class="cls-2" points="231.78 182.59 187.71 157.15 187.71 106.26 187.71 73.08 217.91 55.35"/><line class="cls-2" x1="247.03" y1="89.67" x2="275.84" y2="107.81"/><line class="cls-2" x1="55.51" y1="335.83" x2="11.45" y2="311.33"/><polygon class="cls-2" points="569.84 378.75 569.84 327.87 525.78 302.43 481.71 327.87 481.71 378.75 525.78 404.19 569.84 378.75"/><polyline class="cls-2" points="569.84 327.87 525.78 353.31 481.71 378.75"/><polyline class="cls-2" points="320.2 131.47 364.27 156.91 364.27 207.79 320.2 233.24 276.14 207.79 276.14 156.91"/><polyline class="cls-2" points="276.14 156.91 320.2 182.35 364.27 207.79"/><line class="cls-2" x1="320.2" y1="182.35" x2="276.14" y2="207.79"/><polygon class="cls-2" points="320.2 131.47 320.2 80.59 364.27 55.15 408.33 80.59 408.33 131.47 364.27 156.91 320.2 131.47"/><polyline class="cls-2" points="408.04 131.47 363.97 106.03 319.9 80.59 275.84 56.7 275.84 107.76"/><polyline class="cls-2" points="452.4 207.81 452.4 156.93 496.46 131.49 540.53 156.93 540.53 207.81 496.46 233.25"/><polyline class="cls-2" points="540.53 124.01 570.01 140.44 540.53 156.93 496.46 182.37 496.46 233.28"/><polyline class="cls-2" points="452.4 156.93 496.46 182.37 540.53 207.81 540.53 260.21 584.86 284.71 584.86 234.56"/><line class="cls-2" x1="452.4" y1="207.81" x2="496.47" y2="182.37"/><polygon class="cls-2" points="364.27 207.79 364.27 156.91 408.33 131.47 452.4 156.91 452.4 207.79 408.33 233.24 364.27 207.79"/><polyline class="cls-2" points="452.4 156.91 408.33 182.35 408.33 233.27 452.4 259.93 408.33 285.87 364.1 260.12"/><polyline class="cls-2" points="364.27 156.91 408.33 182.35 452.4 207.79"/><polyline class="cls-2" points="320.2 131.47 364.27 106.03 364.27 55.15 364.27 21.96 334.07 4.23"/><line class="cls-2" x1="304.65" y1="38.55" x2="275.84" y2="56.7"/><polygon class="cls-2" points="275.97 413.51 275.97 464.4 231.91 489.84 187.84 464.4 187.84 413.51 231.91 388.07 275.97 413.51"/><polyline class="cls-2" points="231.91 388.04 231.91 438.96 187.84 464.4 143.78 489.84 143.78 523.04"/><polyline class="cls-2" points="275.97 464.4 231.91 438.96 187.84 413.51"/><line class="cls-2" x1="275.97" y1="413.52" x2="231.91" y2="438.96"/><polyline class="cls-2" points="364.1 413.53 320.04 388.09 320.04 337.21 364.1 311.77 408.17 337.21 408.17 388.09"/><polyline class="cls-2" points="320.04 388.09 364.1 362.65 364.1 311.74 364.1 260.12"/><polyline class="cls-2" points="408.17 388.09 364.1 362.65 320.04 337.21"/><polyline class="cls-2" points="364.1 362.65 408.17 337.21 438.45 318.81"/><polygon class="cls-2" points="364.1 413.53 364.1 464.41 320.04 489.85 275.97 464.41 275.97 413.53 320.04 388.09 364.1 413.53"/><polyline class="cls-2" points="275.97 413.53 320.04 438.97 364.1 464.41 397.17 482.34 437.65 504.68"/><polyline class="cls-2" points="231.91 337.19 231.91 388.07 187.84 413.51 143.78 388.07 143.78 337.19"/><polyline class="cls-2" points="143.78 421 114.29 404.56 143.78 388.07 187.84 362.63 187.84 311.72"/><line class="cls-2" x1="231.91" y1="337.19" x2="187.84" y2="362.63"/><polygon class="cls-2" points="320.04 337.21 320.04 388.09 275.97 413.53 231.91 388.09 231.91 337.21 275.97 311.77 320.04 337.21"/><polyline class="cls-2" points="231.91 388.09 275.97 362.65 275.97 311.74 231.91 285.08"/><polyline class="cls-2" points="320.04 388.09 275.97 362.65 231.91 337.21"/><line class="cls-2" x1="114.29" y1="472.88" x2="143.78" y2="489.84"/><line class="cls-2" x1="114.29" y1="371.27" x2="114.29" y2="404.56"/><polyline class="cls-2" points="275.97 565.57 275.97 514.83 231.91 489.84 231.91 541.06"/><polyline class="cls-2" points="364.1 413.53 320.04 438.97 320.04 489.85 320.04 523.04 350.24 540.77"/><line class="cls-2" x1="481.71" y1="327.87" x2="569.84" y2="378.75"/><circle class="cls-3" cx="187.72" cy="156.91" r="4.23"/><circle class="cls-3" cx="99.6" cy="208.08" r="4.23"/><circle class="cls-3" cx="99.58" cy="259.24" r="4.23"/><circle class="cls-3" cx="55.01" cy="233.52" r="4.23"/><circle class="cls-3" cx="11.45" cy="311.33" r="4.23"/><circle class="cls-3" cx="54.11" cy="335.19" r="4.23"/><circle class="cls-3" cx="143.64" cy="233.52" r="4.23"/><circle class="cls-3" cx="143.78" cy="284.35" r="4.23"/><circle class="cls-3" cx="187.71" cy="259.24" r="4.23"/><circle class="cls-3" cx="99.6" cy="311.33" r="4.23"/><circle class="cls-3" cx="187.72" cy="106.88" r="4.23"/><circle class="cls-3" cx="187.86" cy="73.08" r="4.23"/><circle class="cls-3" cx="217.73" cy="55.35" r="4.23"/><circle class="cls-3" cx="231.76" cy="132.33" r="4.23"/><circle class="cls-3" cx="247.03" cy="89.85" r="4.23"/><circle class="cls-3" cx="275.84" cy="107.81" r="4.23"/><circle class="cls-3" cx="275.84" cy="56.7" r="4.23"/><circle class="cls-3" cx="304.65" cy="38.55" r="4.23"/><circle class="cls-3" cx="320.2" cy="80.6" r="4.23"/><circle class="cls-3" cx="320.2" cy="131.72" r="4.23"/><circle class="cls-3" cx="408.04" cy="131.47" r="4.23"/><circle class="cls-3" cx="364.1" cy="107.12" r="4.23"/><circle class="cls-3" cx="364.27" cy="156.91" r="4.23"/><circle class="cls-3" cx="364.42" cy="207.51" r="4.23"/><circle class="cls-3" cx="452.25" cy="207.26" r="4.23"/><circle class="cls-3" cx="496.47" cy="182.37" r="4.23"/><circle class="cls-3" cx="496.47" cy="233.47" r="4.23"/><circle class="cls-3" cx="452.25" cy="260.12" r="4.23"/><circle class="cls-3" cx="409.4" cy="285.08" r="4.23"/><circle class="cls-3" cx="364.42" cy="261.29" r="4.23"/><circle class="cls-3" cx="364.1" cy="311.77" r="4.23"/><circle class="cls-3" cx="408.17" cy="337.21" r="4.23"/><circle class="cls-3" cx="320.2" cy="337.96" r="4.23"/><circle class="cls-3" cx="437.65" cy="318.8" r="4.23"/><circle class="cls-3" cx="540.53" cy="207.51" r="4.23"/><circle class="cls-3" cx="584.86" cy="235.51" r="4.23"/><circle class="cls-3" cx="584.86" cy="284.35" r="4.23"/><circle class="cls-3" cx="540.53" cy="260.12" r="4.23"/><circle class="cls-3" cx="408.32" cy="182.91" r="4.23"/><circle class="cls-3" cx="408.48" cy="232.71" r="4.23"/><circle class="cls-3" cx="408.33" cy="81.13" r="4.23"/><circle class="cls-3" cx="364.27" cy="55.35" r="4.23"/><circle class="cls-3" cx="495.25" cy="131.37" r="4.23"/><circle class="cls-3" cx="452.4" cy="156.81" r="4.23"/><circle class="cls-3" cx="525.64" cy="353.84" r="4.23"/><circle class="cls-3" cx="569.85" cy="328.95" r="4.23"/><circle class="cls-3" cx="569.85" cy="378.31" r="4.23"/><circle class="cls-3" cx="525.64" cy="403.23" r="4.23"/><circle class="cls-3" cx="481.7" cy="329.49" r="4.23"/><circle class="cls-3" cx="481.87" cy="379.28" r="4.23"/><circle class="cls-3" cx="364.1" cy="362.63" r="4.23"/><circle class="cls-3" cx="320.2" cy="387.7" r="4.23"/><circle class="cls-3" cx="408.17" cy="388.09" r="4.23"/><circle class="cls-3" cx="364.2" cy="413.46" r="4.23"/><circle class="cls-3" cx="320.14" cy="438.33" r="4.23"/><circle class="cls-3" cx="364.2" cy="464.18" r="4.23"/><circle class="cls-3" cx="320.14" cy="489.45" r="4.23"/><circle class="cls-3" cx="320.14" cy="523.04" r="4.23"/><circle class="cls-3" cx="275.97" cy="514.57" r="4.23"/><circle class="cls-3" cx="231.91" cy="540.77" r="4.23"/><circle class="cls-3" cx="231.91" cy="489.45" r="4.23"/><circle class="cls-3" cx="187.71" cy="464.18" r="4.23"/><circle class="cls-3" cx="143.78" cy="489.45" r="4.23"/><circle class="cls-3" cx="143.64" cy="523.04" r="4.23"/><circle class="cls-3" cx="114.29" cy="472.88" r="4.23"/><circle class="cls-3" cx="350.41" cy="540.77" r="4.23"/><circle class="cls-3" cx="276.21" cy="415.71" r="4.23"/><circle class="cls-3" cx="231.76" cy="438.97" r="4.23"/><circle class="cls-3" cx="187.84" cy="413.46" r="4.23"/><circle class="cls-3" cx="231.91" cy="388.09" r="4.23"/><circle class="cls-3" cx="275.84" cy="362.63" r="4.23"/><circle class="cls-3" cx="275.84" cy="311.77" r="4.23"/><circle class="cls-3" cx="231.76" cy="337.21" r="4.23"/><circle class="cls-3" cx="187.84" cy="362.63" r="4.23"/><circle class="cls-3" cx="143.78" cy="388.04" r="4.23"/><circle class="cls-3" cx="143.78" cy="336.98" r="4.23"/><circle class="cls-3" cx="187.71" cy="311.72" r="4.23"/><circle class="cls-3" cx="114.29" cy="404.19" r="4.23"/><circle class="cls-3" cx="114.29" cy="371.27" r="4.23"/><circle class="cls-3" cx="143.64" cy="420.99" r="4.23"/><circle class="cls-3" cx="276.38" cy="465.5" r="4.23"/><circle class="cls-3" cx="437.82" cy="504.68" r="4.23"/><circle class="cls-3" cx="525.79" cy="303.39" r="4.23"/><circle class="cls-3" cx="542.26" cy="125" r="4.23"/><circle class="cls-3" cx="570.01" cy="140.19" r="4.23"/><circle class="cls-3" cx="540.53" cy="156.81" r="4.23"/><circle class="cls-3" cx="364.1" cy="21.96" r="4.23"/><circle class="cls-3" cx="334.85" cy="4.23" r="4.23"/><circle class="cls-3" cx="231.76" cy="182.96" r="4.23"/><circle class="cls-3" cx="187.72" cy="208.68" r="4.23"/><circle class="cls-3" cx="231.9" cy="233.21" r="4.23"/><circle class="cls-3" cx="232.03" cy="284.04" r="4.23"/><circle class="cls-3" cx="275.96" cy="258.93" r="4.23"/><circle class="cls-3" cx="320.2" cy="285.08" r="4.23"/><circle class="cls-3" cx="275.98" cy="208.37" r="4.23"/><circle class="cls-3" cx="320.2" cy="182.35" r="4.23"/><circle class="cls-3" cx="276.14" cy="156.81" r="4.23"/><circle class="cls-3" cx="320.04" cy="232.71" r="4.23"/><circle class="cls-2" cx="247.03" cy="89.46" r="11.02"/><circle class="cls-2" cx="364.1" cy="22.36" r="11.02"/><circle class="cls-2" cx="540.53" cy="156.96" r="11.02"/><circle class="cls-2" cx="584.86" cy="284.04" r="11.02"/><circle class="cls-2" cx="570.01" cy="378.31" r="11.02"/><circle class="cls-2" cx="525.78" cy="303.39" r="11.02"/><circle class="cls-2" cx="319.97" cy="523.04" r="11.02"/><circle class="cls-2" cx="231.91" cy="540.77" r="11.02"/><circle class="cls-2" cx="143.64" cy="489.45" r="11.02"/><circle class="cls-2" cx="409.4" cy="284.35" r="11.02"/><circle class="cls-2" cx="187.71" cy="311.77" r="11.02"/><circle class="cls-2" cx="231.76" cy="182.96" r="11.02"/><circle class="cls-2" cx="114.29" cy="404.56" r="11.02"/><circle class="cls-2" cx="275.84" cy="362.65" r="11.02"/><circle class="cls-2" cx="11.45" cy="311.33" r="11.02"/></g><polygon class="cls-4" points="192.22 304.83 192.22 261.16 154.41 239.33 116.59 261.16 116.59 304.83 154.41 326.67 192.22 304.83"/><polyline class="cls-5" points="295.77 148.11 297.51 147.11 297.51 145.11"/><line class="cls-6" x1="297.51" y1="141.08" x2="297.51" y2="54.39"/><polyline class="cls-5" points="297.51 52.37 297.51 50.37 295.77 49.37"/><line class="cls-6" x1="292.28" y1="47.36" x2="217.21" y2="4.01"/><polyline class="cls-5" points="215.46 3 213.73 2 212 3"/><line class="cls-6" x1="208.51" y1="5.02" x2="133.43" y2="48.37"/><polyline class="cls-5" points="131.69 49.37 129.96 50.37 129.96 52.37"/><line class="cls-6" x1="129.96" y1="56.41" x2="129.96" y2="143.09"/><polyline class="cls-5" points="129.96 145.11 129.96 147.11 131.69 148.11"/><line class="cls-6" x1="135.18" y1="150.13" x2="210.25" y2="193.47"/><polyline class="cls-5" points="212 194.48 213.73 195.48 215.46 194.48"/><line class="cls-6" x1="218.96" y1="192.46" x2="294.03" y2="149.12"/><polygon class="cls-5" points="238.18 331.37 238.18 234.63 154.41 186.26 70.63 234.63 70.63 331.37 154.41 379.74 238.18 331.37"/><polyline class="cls-5" points="296.78 514.13 298.51 513.13 298.51 511.13"/><line class="cls-6" x1="298.51" y1="507.09" x2="298.51" y2="420.41"/><polyline class="cls-5" points="298.51 418.39 298.51 416.39 296.78 415.39"/><line class="cls-6" x1="293.28" y1="413.37" x2="218.21" y2="370.03"/><polyline class="cls-5" points="216.46 369.02 214.73 368.02 213 369.02"/><line class="cls-6" x1="209.51" y1="371.04" x2="134.43" y2="414.38"/><polyline class="cls-5" points="132.69 415.39 130.96 416.39 130.96 418.39"/><line class="cls-6" x1="130.96" y1="422.42" x2="130.96" y2="509.11"/><polyline class="cls-5" points="130.96 511.13 130.96 513.13 132.69 514.13"/><line class="cls-6" x1="136.18" y1="516.14" x2="211.25" y2="559.49"/><polyline class="cls-5" points="213 560.49 214.73 561.49 216.46 560.49"/><line class="cls-6" x1="219.96" y1="558.48" x2="295.03" y2="515.13"/><polygon class="cls-5" points="321.26 378.09 321.26 474.82 405.04 523.19 488.82 474.82 488.82 378.09 405.04 329.72 321.26 378.09"/><polyline class="cls-5" points="494.4 232.98 492.67 233.98 492.67 235.98"/><line class="cls-6" x1="492.67" y1="240.01" x2="492.67" y2="326.7"/><polyline class="cls-5" points="492.67 328.72 492.67 330.72 494.4 331.72"/><line class="cls-6" x1="497.89" y1="333.73" x2="572.97" y2="377.08"/><polyline class="cls-5" points="574.71 378.08 576.44 379.08 578.18 378.08"/><line class="cls-6" x1="581.67" y1="376.07" x2="656.74" y2="332.73"/><polyline class="cls-5" points="658.49 331.72 660.22 330.72 660.22 328.72"/><line class="cls-6" x1="660.22" y1="324.69" x2="660.22" y2="238"/><polyline class="cls-5" points="660.22 235.98 660.22 233.98 658.49 232.98"/><line class="cls-6" x1="655" y1="230.97" x2="579.92" y2="187.62"/><polyline class="cls-5" points="578.18 186.61 576.44 185.61 574.71 186.61"/><line class="cls-6" x1="571.22" y1="188.63" x2="496.15" y2="231.97"/><polygon class="cls-5" points="320.42 90.55 320.42 187.29 404.19 235.66 487.97 187.29 487.97 90.55 404.19 42.19 320.42 90.55"/><path class="cls-7" d="M151.49,305.28v-5.7A24.3,24.3,0,0,1,141.32,297l1.79-7a21.64,21.64,0,0,0,9.95,2.63c3.42,0,5.76-1.35,5.76-3.72s-1.92-3.69-6.37-5.19c-6.41-2.17-10.78-5.17-10.78-11,0-5.3,3.7-9.44,10.13-10.67v-5.69h5.89v5.29a21.39,21.39,0,0,1,8.67,1.95l-1.78,6.78a19.11,19.11,0,0,0-8.61-2.07c-3.85,0-5.12,1.71-5.12,3.38,0,2,2.09,3.25,7.17,5.13,7.14,2.5,10,5.8,10,11.23s-3.74,9.84-10.62,11v6.15Z"/><polygon class="cls-4" points="251.55 120.58 251.55 76.91 213.73 55.07 175.91 76.91 175.91 120.58 213.73 142.41 251.55 120.58"/><polygon class="cls-4" points="442.01 160.76 442.01 117.09 404.19 95.25 366.38 117.09 366.38 160.76 404.19 182.59 442.01 160.76"/><polygon class="cls-4" points="614.26 304.18 614.26 260.51 576.44 238.68 538.63 260.51 538.63 304.18 576.44 326.02 614.26 304.18"/><polygon class="cls-4" points="442.86 448.29 442.86 404.62 405.04 382.79 367.22 404.62 367.22 448.29 405.04 470.12 442.86 448.29"/><polygon class="cls-4" points="252.55 486.59 252.55 442.92 214.73 421.09 176.91 442.92 176.91 486.59 214.73 508.43 252.55 486.59"/><path class="cls-7" d="M190.86,464.76a23.87,23.87,0,1,1,23.9,23.87A23.88,23.88,0,0,1,190.86,464.76Z"/><path class="cls-8" d="M216.56,460.91c0,1.68,0,3.37,0,5a2.39,2.39,0,0,1-.72,1.78c-2.51,2.55-5,5.1-7.53,7.64a1.87,1.87,0,0,1-2.7-2.59q3.39-3.5,6.8-7a1.23,1.23,0,0,0,.39-1c0-3.11,0-6.21,0-9.32a1.83,1.83,0,0,1,1.25-1.74,1.75,1.75,0,0,1,2.05.61,2.69,2.69,0,0,1,.43,1.35C216.59,457.47,216.56,459.19,216.56,460.91Z"/><path class="cls-7" d="M410.88,143.53a1.85,1.85,0,0,1,.37.25q6.56,6.51,13.08,13.05a2.57,2.57,0,0,1,.6.86,1.52,1.52,0,0,1-.61,1.77,1.59,1.59,0,0,1-1.83,0A5.74,5.74,0,0,1,422,159L408.94,146l-.29-.27a15.23,15.23,0,0,1-13.07,3.1,14.91,14.91,0,0,1-9.23-6,15.53,15.53,0,1,1,24.53.79Z"/><path class="cls-8" d="M387.94,133.06a11,11,0,0,1,10.81-10.43.93.93,0,0,1,1,.69.85.85,0,0,1-.43,1,1.64,1.64,0,0,1-.66.16,9.19,9.19,0,0,0-8.84,7.8c-.06.42-.07.86-.09,1.29a1,1,0,0,1-.9,1,.92.92,0,0,1-.9-.94C387.93,133.41,387.94,133.23,387.94,133.06Z"/><path class="cls-9" d="M406.44,443.71H390.62a3.21,3.21,0,0,1-3.13-1.81,3.52,3.52,0,0,1-.34-1.53q0-13.29,0-26.57a3.21,3.21,0,0,1,3.34-3.33c2.43,0,4.86,0,7.28,0a3.4,3.4,0,0,1,2.81,1.48l1.08,1.44a3.29,3.29,0,0,0,2.8,1.38h17.81a3.15,3.15,0,0,1,3.11,1.83,3.88,3.88,0,0,1,.34,1.61q0,11,0,22.06a3.25,3.25,0,0,1-3.47,3.44C417,443.72,411.71,443.71,406.44,443.71Z"/><path class="cls-7" d="M553.12,277.92c1.58-.79,3.14-1.63,4.75-2.35a2.72,2.72,0,0,0,1.5-1.68,3.49,3.49,0,0,0-.07-3c-.64-1.38-1.12-2.82-1.68-4.23a.51.51,0,0,1,.12-.65c1.29-1.27,2.58-2.55,3.84-3.84a.53.53,0,0,1,.68-.13q2.7,1.08,5.42,2.11a.89.89,0,0,0,.58,0c.69-.21,1.37-.45,2-.71a.93.93,0,0,0,.44-.39q1.32-2.6,2.6-5.2a.53.53,0,0,1,.56-.34c1.71,0,3.41,0,5.12,0a.48.48,0,0,1,.5.32q1.29,2.63,2.61,5.24a.9.9,0,0,0,.44.38c.67.26,1.35.49,2,.7a.92.92,0,0,0,.59,0c1.84-.7,3.67-1.42,5.49-2.14a.42.42,0,0,1,.54.11q1.95,2,3.93,3.92a.43.43,0,0,1,.1.57c-.8,1.81-1.58,3.62-2.38,5.43a.66.66,0,0,0,0,.65c.32.66.59,1.34.9,2a1.11,1.11,0,0,0,.41.47q2.6,1.32,5.21,2.59a.54.54,0,0,1,.34.57q0,2.54,0,5.07a.5.5,0,0,1-.35.55q-2.46,1.14-4.9,2.33a1.1,1.1,0,0,0-.45.48c-.33.66-.64,1.34-.93,2a.77.77,0,0,0,0,.54q1.05,2.76,2.13,5.49a.48.48,0,0,1-.12.61q-2,1.92-3.9,3.89a.42.42,0,0,1-.53.11l-5.45-2.14a.77.77,0,0,0-.69.06c-.66.32-1.34.59-2,.91a1,1,0,0,0-.43.39c-.89,1.74-1.76,3.48-2.63,5.23a.47.47,0,0,1-.5.32c-1.71,0-3.43,0-5.15,0a.47.47,0,0,1-.5-.32q-1.29-2.61-2.61-5.2a1,1,0,0,0-.49-.43c-.66-.26-1.33-.5-2-.71a1,1,0,0,0-.59,0q-2.73,1.05-5.45,2.13a.48.48,0,0,1-.61-.12c-1.29-1.31-2.58-2.61-3.89-3.9a.41.41,0,0,1-.1-.57c.8-1.82,1.59-3.64,2.39-5.47a.58.58,0,0,0,0-.57c-.31-.63-.61-1.27-.87-1.93a1.06,1.06,0,0,0-.57-.64q-2.56-1.26-5.13-2.57c-.12-.06-.28-.22-.28-.34C553.11,281.68,553.12,279.81,553.12,277.92Zm14.57,2.94a8.75,8.75,0,1,0,8.74-8.77A8.6,8.6,0,0,0,567.69,280.86Z"/><path class="cls-7" d="M218.81,75.49v11c0,1,.27,1.27,1.27,1.27h11.17v32.56c0,.94-.28,1.22-1.22,1.22H198.6c-.93,0-1.23-.29-1.23-1.22V76.67c0-.87.32-1.21,1.16-1.21H218.4Zm-4.46,23h11.84a.85.85,0,0,0,.9-.77.89.89,0,0,0-.71-1,2.82,2.82,0,0,0-.58,0h-23a3.85,3.85,0,0,0-.48,0,.85.85,0,0,0-.79.84c0,.59.38.9,1.13.9Zm0,13.86H202.83a2.21,2.21,0,0,0-.58,0,.84.84,0,0,0-.08,1.62,1.58,1.58,0,0,0,.53.07h23.24a1.83,1.83,0,0,0,.57-.08.78.78,0,0,0,.55-.82.76.76,0,0,0-.61-.78,2.64,2.64,0,0,0-.63,0Zm.1-3.48h11.74a.85.85,0,0,0,.47-1.6,1.72,1.72,0,0,0-.75-.13H202.79a2.54,2.54,0,0,0-.48,0,.83.83,0,0,0-.73.88.8.8,0,0,0,.77.8,5.52,5.52,0,0,0,.58,0Zm0-5.2h0c4,0,7.92,0,11.88,0a.84.84,0,0,0,.19-1.67,3,3,0,0,0-.67,0H202.89a3.07,3.07,0,0,0-.68,0,.76.76,0,0,0-.63.81c0,.56.36.85,1.11.85Zm0-10.39h11.88a.83.83,0,0,0,.83-1c-.12-.49-.45-.69-1.17-.69H202.37a.83.83,0,0,0-.79.88.8.8,0,0,0,.79.81,4.87,4.87,0,0,0,.54,0Zm-6-7h-5.79c-.7,0-1.06.36-1,1s.38.77,1,.78c3.86,0,7.71,0,11.57,0a1,1,0,0,0,.79-.35,1,1,0,0,0,.08-.88,1.19,1.19,0,0,0-.86-.46C212.24,86.24,210.31,86.26,208.38,86.26Z"/><path class="cls-7" d="M231.57,85h-9.24c-.56,0-.8-.22-.8-.75,0-3,0-6,0-9,0,0,0-.06.07-.17l10,9.83Z"/><polygon class="cls-10" points="405.94 334.34 405.94 234.26 319.27 184.22 232.6 234.26 232.6 334.34 319.27 384.38 405.94 334.34"/><polygon class="cls-8" points="261.89 283.49 261.89 316.63 290.59 333.2 319.29 316.63 347.98 333.2 376.68 316.63 376.68 283.49 347.99 266.92 347.98 300.06 319.29 283.49 290.59 300.06 290.59 266.93 261.89 283.49"/></g></g></svg>