<?xml version="1.0" encoding="UTF-8"?><svg xmlns="http://www.w3.org/2000/svg" xmlns:xlink="http://www.w3.org/1999/xlink" viewBox="0 0 288.55 319.32"><defs><style>.cls-1{fill:url(#linear-gradient);}.cls-2{fill:#f1cfbd;}.cls-3{fill:#e2e8fc;}.cls-4{fill:#fff;}.cls-5{fill:#eff6fd;}.cls-6{fill:#2f6edd;}.cls-7{fill:#aab7c5;}.cls-8{fill:#aac3f9;}.cls-9{fill:#bf2968;}.cls-10{fill:#d5c554;}.cls-11{fill:#dadcdd;}.cls-12{fill:#e43272;}.cls-13{fill:#35121f;}.cls-14{fill:#764953;}.cls-15{fill:url(#linear-gradient-16);}.cls-15,.cls-16,.cls-17,.cls-18,.cls-19{mix-blend-mode:multiply;}.cls-15,.cls-16,.cls-17,.cls-18,.cls-19,.cls-20,.cls-21{opacity:.5;}.cls-16{fill:url(#linear-gradient-59);}.cls-17{fill:url(#linear-gradient-60);}.cls-18{fill:url(#linear-gradient-61);}.cls-19{fill:url(#linear-gradient-45);}.cls-22{fill:url(#radial-gradient-5);}.cls-23{fill:url(#radial-gradient-3);}.cls-24{fill:url(#radial-gradient-4);}.cls-25{fill:url(#radial-gradient-2);}.cls-26{fill:url(#linear-gradient-8);}.cls-27{fill:url(#linear-gradient-9);}.cls-28{fill:url(#linear-gradient-3);}.cls-29{fill:url(#linear-gradient-4);}.cls-30{fill:url(#linear-gradient-2);}.cls-31{fill:url(#linear-gradient-6);}.cls-32{fill:url(#linear-gradient-7);}.cls-33{fill:url(#linear-gradient-5);}.cls-34{fill:url(#radial-gradient);}.cls-21{fill:url(#linear-gradient-20);}.cls-35{fill:url(#linear-gradient-57);}.cls-36{fill:url(#linear-gradient-58);}.cls-37{fill:url(#linear-gradient-55);}.cls-38{fill:url(#linear-gradient-56);}.cls-39{fill:url(#linear-gradient-53);}.cls-40{fill:url(#linear-gradient-54);}.cls-41{fill:url(#linear-gradient-51);}.cls-42{fill:url(#linear-gradient-52);}.cls-43{fill:url(#linear-gradient-50);}.cls-44{fill:url(#linear-gradient-77);}.cls-45{fill:url(#linear-gradient-78);}.cls-46{fill:url(#linear-gradient-79);}.cls-47{fill:url(#linear-gradient-74);}.cls-48{fill:url(#linear-gradient-75);}.cls-49{fill:url(#linear-gradient-76);}.cls-50{fill:url(#linear-gradient-70);}.cls-51{fill:url(#linear-gradient-71);}.cls-52{fill:url(#linear-gradient-72);}.cls-53{fill:url(#linear-gradient-73);}.cls-54{fill:url(#linear-gradient-68);}.cls-55{fill:url(#linear-gradient-67);}.cls-56{fill:url(#linear-gradient-69);}.cls-57{fill:url(#linear-gradient-64);}.cls-58{fill:url(#linear-gradient-63);}.cls-59{fill:url(#linear-gradient-66);}.cls-60{fill:url(#linear-gradient-65);}.cls-61{fill:url(#linear-gradient-62);}.cls-62{fill:url(#linear-gradient-91);}.cls-63{fill:url(#linear-gradient-94);}.cls-64{fill:url(#linear-gradient-92);}.cls-65{fill:url(#linear-gradient-93);}.cls-66{fill:url(#linear-gradient-90);}.cls-67{fill:url(#linear-gradient-81);}.cls-68{fill:url(#linear-gradient-80);}.cls-69{fill:url(#linear-gradient-88);}.cls-70{fill:url(#linear-gradient-89);}.cls-71{fill:url(#linear-gradient-87);}.cls-72{fill:url(#linear-gradient-86);}.cls-73{fill:url(#linear-gradient-85);}.cls-74{fill:url(#linear-gradient-84);}.cls-75{fill:url(#linear-gradient-83);}.cls-76{fill:url(#linear-gradient-82);}.cls-77{fill:url(#linear-gradient-41);}.cls-78{fill:url(#linear-gradient-40);}.cls-79{fill:url(#linear-gradient-43);}.cls-80{fill:url(#linear-gradient-42);}.cls-81{fill:url(#linear-gradient-46);}.cls-82{fill:url(#linear-gradient-44);}.cls-83{fill:url(#linear-gradient-49);}.cls-84{fill:url(#linear-gradient-47);}.cls-85{fill:url(#linear-gradient-48);}.cls-86{fill:url(#linear-gradient-14);}.cls-87{fill:url(#linear-gradient-18);}.cls-88{fill:url(#linear-gradient-22);}.cls-89{fill:url(#linear-gradient-21);}.cls-90{fill:url(#linear-gradient-23);}.cls-91{fill:url(#linear-gradient-15);}.cls-92{fill:url(#linear-gradient-19);}.cls-93{fill:url(#linear-gradient-17);}.cls-94{fill:url(#linear-gradient-13);}.cls-95{fill:url(#linear-gradient-12);}.cls-96{fill:url(#linear-gradient-10);}.cls-97{fill:url(#linear-gradient-11);}.cls-98{fill:url(#linear-gradient-27);}.cls-99{fill:url(#linear-gradient-24);}.cls-100{fill:url(#linear-gradient-26);}.cls-101{fill:url(#linear-gradient-38);}.cls-102{fill:url(#linear-gradient-35);}.cls-103{fill:url(#linear-gradient-37);}.cls-104{fill:url(#linear-gradient-34);}.cls-105{fill:url(#linear-gradient-39);}.cls-106{fill:url(#linear-gradient-36);}.cls-107{fill:url(#linear-gradient-25);}.cls-108{fill:url(#linear-gradient-28);}.cls-109{fill:url(#linear-gradient-29);}.cls-110{fill:url(#linear-gradient-33);}.cls-111{fill:url(#linear-gradient-30);}.cls-112{fill:url(#linear-gradient-32);}.cls-113{fill:url(#linear-gradient-31);}.cls-114{isolation:isolate;}</style><linearGradient id="linear-gradient" x1="175.49" y1="54.47" x2="253.36" y2="-18.61" gradientTransform="matrix(1, 0, 0, 1, 0, 0)" gradientUnits="userSpaceOnUse"><stop offset="0" stop-color="#6dd242"/><stop offset="1" stop-color="#fff" stop-opacity="0"/></linearGradient><linearGradient id="linear-gradient-2" x1="85.37" y1="145.51" x2="148.88" y2="95.48" xlink:href="#linear-gradient"/><linearGradient id="linear-gradient-3" x1="128.38" y1="240.15" x2="197.01" y2="240.15" gradientTransform="matrix(1, 0, 0, 1, 0, 0)" gradientUnits="userSpaceOnUse"><stop offset="0" stop-color="#aac3f9"/><stop offset="1" stop-color="#80a2f2"/></linearGradient><linearGradient id="linear-gradient-4" x1="119.34" y1="246.69" x2="36" y2="324.4" gradientTransform="matrix(1, 0, 0, 1, 0, 0)" gradientUnits="userSpaceOnUse"><stop offset="0" stop-color="#aac3f9"/><stop offset="1" stop-color="#2b65d3"/></linearGradient><linearGradient id="linear-gradient-5" x1="85.32" y1="48.95" x2="99.97" y2="13.85" gradientTransform="matrix(1, 0, 0, 1, 0, 0)" gradientUnits="userSpaceOnUse"><stop offset="0" stop-color="#2f6edd"/><stop offset="1" stop-color="#eff6fd"/></linearGradient><linearGradient id="linear-gradient-6" x1="25.04" y1="103.27" x2="13.37" y2="140.27" gradientTransform="matrix(1, 0, 0, 1, 0, 0)" gradientUnits="userSpaceOnUse"><stop offset="0" stop-color="#2f6edd"/><stop offset="1" stop-color="#041529"/></linearGradient><linearGradient id="linear-gradient-7" x1="21.42" y1="116.67" x2="21.42" y2="144.57" gradientTransform="matrix(1, 0, 0, 1, 0, 0)" gradientUnits="userSpaceOnUse"><stop offset="0" stop-color="#2f6edd"/><stop offset="1" stop-color="#aac3f9"/></linearGradient><linearGradient id="linear-gradient-8" x1="19.86" y1="122.35" x2="50.15" y2="147.13" gradientTransform="matrix(1, 0, 0, 1, 0, 0)" gradientUnits="userSpaceOnUse"><stop offset="0" stop-color="#265cc7"/><stop offset="1" stop-color="#041529"/></linearGradient><linearGradient id="linear-gradient-9" x1="-3749.94" y1="26.35" x2="-3759.17" y2="55.58" gradientTransform="translate(-3576.52) rotate(-180) scale(1 -1)" gradientUnits="userSpaceOnUse"><stop offset="0" stop-color="#5a6e8f"/><stop offset=".24" stop-color="#33415c"/><stop offset="1" stop-color="#1b2a3d"/></linearGradient><linearGradient id="linear-gradient-10" x1="-3752.8" y1="36.94" x2="-3752.8" y2="58.98" gradientTransform="translate(-3576.52) rotate(-180) scale(1 -1)" gradientUnits="userSpaceOnUse"><stop offset="0" stop-color="#3a4966"/><stop offset="1" stop-color="#5a6e8f"/></linearGradient><linearGradient id="linear-gradient-11" x1="-3754.04" y1="41.43" x2="-3730.1" y2="61.01" gradientTransform="translate(-3576.52) rotate(-180) scale(1 -1)" gradientUnits="userSpaceOnUse"><stop offset="0" stop-color="#3a4966"/><stop offset="1" stop-color="#1b2a3d"/></linearGradient><linearGradient id="linear-gradient-12" x1="1030.99" y1="40.97" x2="1022.99" y2="66.33" gradientTransform="translate(-984.64)" gradientUnits="userSpaceOnUse"><stop offset="0" stop-color="#6dd242"/><stop offset="1" stop-color="#45992b"/></linearGradient><linearGradient id="linear-gradient-13" x1="1028.51" y1="50.16" x2="1028.51" y2="69.27" gradientTransform="translate(-984.64)" gradientUnits="userSpaceOnUse"><stop offset="0" stop-color="#6dd242"/><stop offset="1" stop-color="#c6eead"/></linearGradient><linearGradient id="linear-gradient-14" x1="1027.61" y1="57.77" x2="1032.96" y2="40.86" gradientTransform="translate(-984.64)" gradientUnits="userSpaceOnUse"><stop offset="0" stop-color="#6dd242" stop-opacity="0"/><stop offset="1" stop-color="#c6eead"/></linearGradient><linearGradient id="linear-gradient-15" x1="1026.17" y1="52.36" x2="1041.6" y2="69.3" xlink:href="#linear-gradient-12"/><linearGradient id="linear-gradient-16" x1="132.88" y1="235.33" x2="164.71" y2="208.05" gradientTransform="matrix(1, 0, 0, 1, 0, 0)" gradientUnits="userSpaceOnUse"><stop offset="0" stop-color="#aac3f9" stop-opacity="0"/><stop offset="1" stop-color="#80a2f2"/></linearGradient><linearGradient id="linear-gradient-17" x1="-1800.99" y1="77.4" x2="-1786.96" y2="85.12" gradientTransform="translate(-1617.16 -113.5) rotate(-171.78) scale(1 -1)" xlink:href="#linear-gradient-6"/><linearGradient id="linear-gradient-18" x1="-1788.48" y1="86.47" x2="-1781.99" y2="86.82" gradientTransform="translate(-1617.16 -113.5) rotate(-171.78) scale(1 -1)" xlink:href="#linear-gradient-6"/><linearGradient id="linear-gradient-19" x1="138.69" y1="212.98" x2="134.21" y2="225.93" xlink:href="#linear-gradient-6"/><linearGradient id="linear-gradient-20" x1="92.48" y1="348.19" x2="135.26" y2="348.19" gradientTransform="translate(-2.78 -101.21) rotate(-2.99)" xlink:href="#linear-gradient-16"/><radialGradient id="radial-gradient" cx="74.95" cy="249.2" fx="74.95" fy="249.2" r="2.39" gradientTransform="translate(38.81)" gradientUnits="userSpaceOnUse"><stop offset="0" stop-color="#130a45"/><stop offset="1" stop-color="#000"/></radialGradient><radialGradient id="radial-gradient-2" cx="104.1" cy="248.72" fx="104.1" fy="248.72" r="2.4" xlink:href="#radial-gradient"/><radialGradient id="radial-gradient-3" cx="74.1" cy="231.86" fx="74.1" fy="231.86" r="2.27" xlink:href="#radial-gradient"/><linearGradient id="linear-gradient-21" x1="74.24" y1="229.29" x2="88.08" y2="229.29" gradientTransform="translate(38.81)" gradientUnits="userSpaceOnUse"><stop offset="0" stop-color="#fff"/><stop offset="1" stop-color="#b9c5d6"/></linearGradient><radialGradient id="radial-gradient-4" cx="104.4" cy="232.55" fx="104.4" fy="232.55" r="2.53" xlink:href="#radial-gradient"/><linearGradient id="linear-gradient-22" x1="102.16" y1="229.84" x2="89.09" y2="228.82" xlink:href="#linear-gradient-21"/><linearGradient id="linear-gradient-23" x1="87.16" y1="228.79" x2="91.68" y2="228.79" gradientTransform="translate(38.81)" gradientUnits="userSpaceOnUse"><stop offset="0" stop-color="#eff3f7"/><stop offset="1" stop-color="#b9c5d6"/></linearGradient><linearGradient id="linear-gradient-24" y1="238.53" x2="88.72" y2="238.53" xlink:href="#linear-gradient-21"/><linearGradient id="linear-gradient-25" x1="97.48" y1="231.67" x2="97.31" y2="242.49" xlink:href="#linear-gradient-21"/><linearGradient id="linear-gradient-26" x1="127.45" y1="224.96" x2="128.09" y2="223.21" gradientTransform="matrix(1, 0, 0, 1, 0, 0)" xlink:href="#linear-gradient-23"/><linearGradient id="linear-gradient-27" x1="85.74" y1="227.19" x2="88.74" y2="218.98" xlink:href="#linear-gradient-23"/><linearGradient id="linear-gradient-28" x1="121.59" y1="214.04" x2="128.26" y2="206.96" gradientTransform="matrix(1, 0, 0, 1, 0, 0)" gradientUnits="userSpaceOnUse"><stop offset="0" stop-color="#172640"/><stop offset="1" stop-color="#364969"/></linearGradient><linearGradient id="linear-gradient-29" x1="129.13" y1="207.92" x2="140.77" y2="201.18" gradientTransform="matrix(1, 0, 0, 1, 0, 0)" gradientUnits="userSpaceOnUse"><stop offset="0" stop-color="#435679" stop-opacity="0"/><stop offset="1" stop-color="#7683a3"/></linearGradient><linearGradient id="linear-gradient-30" x1="130.04" y1="219.22" x2="143.85" y2="207.99" xlink:href="#linear-gradient-28"/><linearGradient id="linear-gradient-31" x1="145.63" y1="188.65" x2="133.33" y2="197.54" xlink:href="#linear-gradient-6"/><linearGradient id="linear-gradient-32" x1="-1772.74" y1="222.92" x2="-1758.7" y2="230.63" gradientTransform="translate(-1609.28) rotate(-180) scale(1 -1)" xlink:href="#linear-gradient-6"/><linearGradient id="linear-gradient-33" x1="-1760.23" y1="231.98" x2="-1753.74" y2="232.34" gradientTransform="translate(-1609.28) rotate(-180) scale(1 -1)" xlink:href="#linear-gradient-6"/><linearGradient id="linear-gradient-34" x1="156.77" y1="208.15" x2="146.96" y2="213.89" xlink:href="#linear-gradient-6"/><linearGradient id="linear-gradient-35" x1="143.41" y1="195.51" x2="132.84" y2="206.61" xlink:href="#linear-gradient-6"/><linearGradient id="linear-gradient-36" x1="-4576.93" y1="195.7" x2="-4575.87" y2="218.48" gradientTransform="translate(-4377.6) rotate(-180) scale(1 -1)" xlink:href="#linear-gradient-6"/><linearGradient id="linear-gradient-37" x1="-4553.74" y1="207.16" x2="-4552.43" y2="235.42" gradientTransform="translate(-4377.6) rotate(-180) scale(1 -1)" xlink:href="#linear-gradient-6"/><linearGradient id="linear-gradient-38" x1="-4516.42" y1="160.54" x2="-4515.36" y2="183.33" gradientTransform="translate(-4377.6) rotate(-180) scale(1 -1)" gradientUnits="userSpaceOnUse"><stop offset="0" stop-color="#312d9f"/><stop offset="1" stop-color="#130a45"/></linearGradient><linearGradient id="linear-gradient-39" x1="-4493.23" y1="172" x2="-4491.92" y2="200.26" gradientTransform="translate(-4377.6) rotate(-180) scale(1 -1)" xlink:href="#linear-gradient-6"/><linearGradient id="linear-gradient-40" x1="117.39" y1="137.8" x2="117.39" y2="178.58" gradientTransform="translate(38.81)" gradientUnits="userSpaceOnUse"><stop offset="0" stop-color="#aac3f9"/><stop offset="1" stop-color="#fff"/></linearGradient><linearGradient id="linear-gradient-41" x1="154.02" y1="198.22" x2="111.99" y2="175.81" gradientTransform="matrix(1, 0, 0, 1, 0, 0)" xlink:href="#linear-gradient-40"/><linearGradient id="linear-gradient-42" x1="104.17" y1="189.4" x2="170.77" y2="189.4" xlink:href="#linear-gradient-3"/><linearGradient id="linear-gradient-43" x1="177.38" y1="205.62" x2="198.27" y2="191.99" xlink:href="#linear-gradient-3"/><linearGradient id="linear-gradient-44" x1="-1613.14" y1="241.08" x2="-1626.98" y2="226.67" gradientTransform="translate(1792.04)" gradientUnits="userSpaceOnUse"><stop offset="0" stop-color="#130a45"/><stop offset="1" stop-color="#5656ea"/></linearGradient><linearGradient id="linear-gradient-45" x1="137.24" y1="180.63" x2="144.08" y2="176.61" xlink:href="#linear-gradient-16"/><linearGradient id="linear-gradient-46" x1="152.21" y1="182.7" x2="150.8" y2="180.64" gradientTransform="matrix(1, 0, 0, 1, 0, 0)" xlink:href="#linear-gradient-40"/><linearGradient id="linear-gradient-47" x1="147.05" y1="176.29" x2="144.57" y2="168.02" xlink:href="#linear-gradient-3"/><linearGradient id="linear-gradient-48" x1="159.14" y1="175.83" x2="158.34" y2="177.14" xlink:href="#linear-gradient-3"/><radialGradient id="radial-gradient-5" cx="-4059.91" cy="176.62" fx="-4059.91" fy="176.62" r="0" gradientTransform="translate(-3901.29) rotate(-180) scale(1 -1)" gradientUnits="userSpaceOnUse"><stop offset="0" stop-color="#aafb4e"/><stop offset="1" stop-color="#ec712e"/></radialGradient><linearGradient id="linear-gradient-49" x1="158.9" y1="175.68" x2="158.09" y2="176.99" xlink:href="#linear-gradient-3"/><linearGradient id="linear-gradient-50" x1="167.36" y1="181.64" x2="156.12" y2="191.83" xlink:href="#linear-gradient-6"/><linearGradient id="linear-gradient-51" x1="-4538.7" y1="185.67" x2="-4543.78" y2="183.56" gradientTransform="translate(-4377.6) rotate(-180) scale(1 -1)" xlink:href="#linear-gradient-21"/><linearGradient id="linear-gradient-52" x1="-3232.73" y1="-150.3" x2="-3238.85" y2="-150.33" gradientTransform="translate(3277.44 -594.32) rotate(-16.21)" gradientUnits="userSpaceOnUse"><stop offset="0" stop-color="#f1cfbd"/><stop offset="1" stop-color="#e3956d"/></linearGradient><linearGradient id="linear-gradient-53" x1="-3221.61" y1="-163.31" x2="-3235.18" y2="-154.01" gradientTransform="translate(3277.44 -594.32) rotate(-16.21)" gradientUnits="userSpaceOnUse"><stop offset="0" stop-color="#66d2ee"/><stop offset="1" stop-color="#000"/></linearGradient><linearGradient id="linear-gradient-54" x1="-1909.39" y1="825.7" x2="-1951.84" y2="838.84" gradientTransform="translate(-1946.76 -104.08) rotate(164.43) scale(1 -1)" gradientUnits="userSpaceOnUse"><stop offset="0" stop-color="#e43272"/><stop offset="1" stop-color="#ef95bb"/></linearGradient><linearGradient id="linear-gradient-55" x1="122.22" y1="213.34" x2="119.91" y2="185.03" xlink:href="#linear-gradient-28"/><linearGradient id="linear-gradient-56" x1="-1666.82" y1="219.66" x2="-1666.82" y2="219.68" gradientTransform="translate(1792.04)" xlink:href="#linear-gradient-28"/><linearGradient id="linear-gradient-57" x1="116.96" y1="220.05" x2="118.39" y2="193.24" xlink:href="#linear-gradient-28"/><linearGradient id="linear-gradient-58" x1="118.28" y1="198.45" x2="129.17" y2="182.52" xlink:href="#linear-gradient-29"/><linearGradient id="linear-gradient-59" x1="172.63" y1="198.45" x2="172.68" y2="193.54" xlink:href="#linear-gradient-16"/><linearGradient id="linear-gradient-60" x1="172.44" y1="189.94" x2="172.44" y2="193.58" xlink:href="#linear-gradient-16"/><linearGradient id="linear-gradient-61" x1="133.64" y1="192.64" x2="133.64" y2="196.4" gradientTransform="translate(38.81)" xlink:href="#linear-gradient-16"/><linearGradient id="linear-gradient-62" x1="172.39" y1="190.84" x2="172.39" y2="195.74" gradientTransform="matrix(1, 0, 0, 1, 0, 0)" xlink:href="#linear-gradient-40"/><linearGradient id="linear-gradient-63" x1="169.07" y1="187.37" x2="168.69" y2="191.32" gradientTransform="matrix(1, 0, 0, 1, 0, 0)" xlink:href="#linear-gradient-40"/><linearGradient id="linear-gradient-64" x1="-4550.68" y1="188.73" x2="-4547.03" y2="189.91" gradientTransform="translate(-4377.6) rotate(-180) scale(1 -1)" xlink:href="#linear-gradient-3"/><linearGradient id="linear-gradient-65" x1="169.94" y1="189.61" x2="174.83" y2="189.61" xlink:href="#linear-gradient-6"/><linearGradient id="linear-gradient-66" x1="175.63" y1="99.17" x2="195.17" y2="167.38" xlink:href="#linear-gradient-6"/><linearGradient id="linear-gradient-67" x1="182.2" y1="156.2" x2="170.32" y2="69.79" xlink:href="#linear-gradient-7"/><linearGradient id="linear-gradient-68" x1="153.82" y1="162.45" x2="196.13" y2="85.67" xlink:href="#linear-gradient-6"/><linearGradient id="linear-gradient-69" x1="175.04" y1="99.02" x2="178.05" y2="181.88" xlink:href="#linear-gradient-6"/><linearGradient id="linear-gradient-70" x1="190.53" y1="121.93" x2="164.87" y2="147.47" gradientTransform="matrix(1, 0, 0, 1, 0, 0)" gradientUnits="userSpaceOnUse"><stop offset="0" stop-color="#e43272"/><stop offset="1" stop-color="#ef95bb" stop-opacity="0"/></linearGradient><linearGradient id="linear-gradient-71" x1="186.12" y1="112.52" x2="170.42" y2="144.31" gradientTransform="matrix(1, 0, 0, 1, 0, 0)" gradientUnits="userSpaceOnUse"><stop offset="0" stop-color="#6dd242"/><stop offset="1" stop-color="#45992b" stop-opacity="0"/></linearGradient><linearGradient id="linear-gradient-72" x1="232.34" y1="169.4" x2="241.42" y2="201.11" xlink:href="#linear-gradient-6"/><linearGradient id="linear-gradient-73" x1="235.25" y1="196.37" x2="229.61" y2="155.3" xlink:href="#linear-gradient-7"/><linearGradient id="linear-gradient-74" x1="219.32" y1="203.77" x2="243.84" y2="159.27" xlink:href="#linear-gradient-6"/><linearGradient id="linear-gradient-75" x1="231.7" y1="169.07" x2="233.14" y2="208.97" xlink:href="#linear-gradient-6"/><linearGradient id="linear-gradient-76" x1="556.89" y1="-851.74" x2="561.31" y2="-848.77" gradientTransform="translate(-259.56 864.82) rotate(30) skewX(30)" xlink:href="#linear-gradient-12"/><linearGradient id="linear-gradient-77" x1="562.89" y1="-849.31" x2="567.79" y2="-849.31" gradientTransform="translate(-259.56 864.82) rotate(30) skewX(30)" xlink:href="#linear-gradient-54"/><linearGradient id="linear-gradient-78" x1="563.24" y1="-844.15" x2="563.24" y2="-846.65" gradientTransform="translate(-259.56 864.82) rotate(30) skewX(30)" gradientUnits="userSpaceOnUse"><stop offset="0" stop-color="#aca033"/><stop offset="1" stop-color="#e6d787"/></linearGradient><linearGradient id="linear-gradient-79" x1="577.88" y1="-845.64" x2="577.88" y2="-852.32" xlink:href="#linear-gradient-78"/><linearGradient id="linear-gradient-80" x1="577.88" y1="-843.63" x2="577.88" y2="-856.8" gradientTransform="translate(-259.56 864.82) rotate(30) skewX(30)" xlink:href="#linear-gradient-54"/><linearGradient id="linear-gradient-81" x1="572.99" y1="-845.64" x2="572.99" y2="-852.32" gradientTransform="translate(-259.56 864.82) rotate(30) skewX(30)" xlink:href="#linear-gradient-12"/><linearGradient id="linear-gradient-82" x1="573.95" y1="-845.64" x2="573.95" y2="-852.32" gradientTransform="translate(-259.56 864.82) rotate(30) skewX(30)" xlink:href="#linear-gradient-12"/><linearGradient id="linear-gradient-83" x1="573.95" y1="-842.8" x2="573.95" y2="-847.63" xlink:href="#linear-gradient-78"/><linearGradient id="linear-gradient-84" x1="232.34" y1="109.58" x2="241.42" y2="141.28" xlink:href="#linear-gradient-6"/><linearGradient id="linear-gradient-85" x1="235.25" y1="136.54" x2="229.61" y2="95.47" xlink:href="#linear-gradient-7"/><linearGradient id="linear-gradient-86" x1="219.32" y1="143.95" x2="243.85" y2="99.44" xlink:href="#linear-gradient-6"/><linearGradient id="linear-gradient-87" x1="231.7" y1="109.25" x2="233.14" y2="149.14" xlink:href="#linear-gradient-6"/><linearGradient id="linear-gradient-88" x1="1059.01" y1="108.88" x2="1049.64" y2="138.58" gradientTransform="translate(-969.53)" xlink:href="#linear-gradient-12"/><linearGradient id="linear-gradient-89" x1="1056.1" y1="119.64" x2="1056.1" y2="142.03" gradientTransform="translate(-969.53)" xlink:href="#linear-gradient-13"/><linearGradient id="linear-gradient-90" x1="1055.05" y1="128.55" x2="1061.31" y2="108.75" gradientTransform="translate(-969.53)" xlink:href="#linear-gradient-14"/><linearGradient id="linear-gradient-91" x1="1053.37" y1="122.22" x2="1071.44" y2="142.06" gradientTransform="translate(-969.53)" xlink:href="#linear-gradient-12"/><linearGradient id="linear-gradient-92" x1="-4935.51" y1="9.77" x2="-4949.82" y2="55.13" gradientTransform="translate(-4703.38) rotate(-180) scale(1 -1)" xlink:href="#linear-gradient-6"/><linearGradient id="linear-gradient-93" x1="-4939.95" y1="26.2" x2="-4939.95" y2="60.4" gradientTransform="translate(-4703.38) rotate(-180) scale(1 -1)" xlink:href="#linear-gradient-13"/><linearGradient id="linear-gradient-94" x1="-4939.95" y1="26.42" x2="-4939.95" y2="59.75" gradientTransform="translate(-4703.38) rotate(-180) scale(1 -1)" xlink:href="#linear-gradient-12"/></defs><g class="cls-114"><g id="Layer_2"><g id="Heading_1"><g><path class="cls-1" d="M178.58,97.51h-1.51V9.8c0-2.21,.79-3.88,2.22-4.71,1.43-.83,3.27-.67,5.19,.43l41.36,23.86-.75,1.31L183.73,6.83c-1.43-.82-2.73-.97-3.68-.43-.95,.55-1.47,1.75-1.47,3.4V97.51Z"/><path class="cls-30" d="M224.37,163.62l-97.55-56.32c-3.2-1.85-8.6-1.85-11.8,0L23.75,160c-1.91,1.1-3.75,1.26-5.19,.43-1.43-.83-2.22-2.5-2.22-4.71V78.69c0-4.24,2.98-9.41,6.65-11.52L103.38,20.76l.75,1.31L23.75,68.47c-3.2,1.85-5.9,6.52-5.9,10.22v77.03c0,1.65,.52,2.85,1.47,3.4,.95,.54,2.25,.39,3.68-.43l91.27-52.69c3.67-2.12,9.64-2.12,13.31,0l97.55,56.32-.75,1.31Z"/><g><path class="cls-28" d="M288.5,235.39h.05v-11.72h-29.98l-104.59-60.38c-5.34-3.08-14.07-3.08-19.4,0L29.99,223.67H.05v11.72c-.31,2.24,1,4.54,3.95,6.24l130.57,75.39c5.34,3.08,14.07,3.08,19.4,0l130.57-75.39c2.95-1.7,4.26-4,3.95-6.24Z"/><path class="cls-5" d="M153.98,142.46c-5.34-3.08-14.07-3.08-19.4,0L4,217.84c-5.33,3.08-5.33,8.12,0,11.21l130.57,75.38c5.34,3.08,14.07,3.08,19.4,0l130.57-75.38c5.33-3.08,5.33-8.12,0-11.21l-130.57-75.38Z"/></g><path class="cls-29" d="M144.28,276.55c-2.44,0-4.74-.55-6.48-1.55l-82.07-47.38c-1.86-1.08-2.89-2.56-2.89-4.18s1.03-3.1,2.89-4.17l82.07-47.38c1.74-1,4.04-1.55,6.48-1.55s4.74,.55,6.47,1.55l82.07,47.38c1.86,1.08,2.89,2.56,2.89,4.17s-1.03,3.1-2.89,4.18l-82.07,47.38c-1.74,1-4.04,1.55-6.47,1.55Zm0-104.71c-2.18,0-4.21,.48-5.72,1.35l-82.07,47.38c-1.38,.8-2.14,1.81-2.14,2.87s.76,2.07,2.14,2.87l82.07,47.38c1.51,.87,3.54,1.35,5.72,1.35s4.21-.48,5.72-1.35l82.07-47.38c1.38-.8,2.14-1.81,2.14-2.87s-.76-2.07-2.14-2.87l-82.07-47.38c-1.51-.87-3.54-1.35-5.72-1.35Z"/><g><path class="cls-33" d="M77.27,56.16V21.46c0-2.32,1.43-5.05,3.18-6.06L106.47,.38c.88-.51,1.67-.48,2.25-.04l2.24,1.29c-.51,.42-.96,.63-1.36,.71,.01,.14,.03,.28,.03,.43V37.47c0,2.33-1.43,5.05-3.17,6.06l-25.64,14.8,.09,1.84-2.51-1.45h.01c-.7-.38-1.15-1.27-1.15-2.57Z"/><path class="cls-10" d="M83.04,16.9L109.06,1.87c1.74-1.01,3.17,.07,3.17,2.4V38.97c0,2.32-1.42,5.05-3.17,6.06l-26.03,15.02c-1.74,1.01-3.17-.07-3.17-2.39V22.95c0-2.32,1.43-5.05,3.17-6.05Z"/><g><path class="cls-4" d="M88.75,38.79l-2.08,1.2c-.49,.28-.88,1.04-.88,1.69v5.96c0,.65,.4,.95,.88,.67l2.08-1.2c.48-.28,.88-1.04,.88-1.69v-5.96c0-.65-.4-.95-.88-.67Z"/><path class="cls-4" d="M94.31,29.6l-2.08,1.2c-.49,.28-.88,1.04-.88,1.69v11.94c0,.65,.4,.95,.88,.67l2.08-1.2c.49-.28,.88-1.04,.88-1.69v-11.94c0-.65-.4-.95-.88-.67Z"/><path class="cls-4" d="M99.87,29.9l-2.08,1.2c-.49,.28-.88,1.04-.88,1.69v8.43c0,.65,.4,.95,.88,.67l2.08-1.2c.48-.28,.88-1.04,.88-1.69v-8.43c0-.65-.4-.95-.88-.67Z"/><path class="cls-4" d="M105.43,18.93l-2.08,1.2c-.49,.28-.88,1.04-.88,1.69v16.19c0,.65,.4,.95,.88,.67l2.08-1.2c.49-.28,.88-1.04,.88-1.69V19.59c0-.65-.4-.95-.88-.67Z"/><path class="cls-4" d="M87.7,36.41c.59-.34,1.06-1.24,1.06-2.03,0-.26-.05-.46-.14-.62l4.03-7.16c.18,.07,.39,.05,.62-.09,.32-.18,.6-.53,.79-.93l3.77,.67c-.03,.15-.05,.3-.05,.45,0,.78,.47,1.14,1.06,.8,.59-.34,1.06-1.24,1.06-2.03,0-.38-.11-.66-.3-.81l4.4-11.24c.12,0,.26-.04,.39-.13,.59-.34,1.06-1.24,1.06-2.03,0-.78-.48-1.14-1.06-.8-.59,.34-1.06,1.24-1.06,2.03,0,.38,.11,.66,.3,.81l-4.4,11.24c-.12,0-.26,.04-.4,.12-.31,.18-.59,.53-.79,.93l-3.77-.67c.03-.15,.05-.3,.05-.45,0-.78-.48-1.14-1.06-.8-.59,.34-1.06,1.24-1.06,2.03,0,.26,.05,.46,.15,.62l-4.03,7.16c-.18-.07-.39-.05-.62,.09-.58,.34-1.06,1.24-1.06,2.03s.47,1.14,1.06,.8Z"/></g></g><g><path class="cls-31" d="M4.24,146.69v-31.75c0-2.13,1.31-4.62,2.91-5.54l23.81-13.75c.8-.46,1.53-.44,2.06-.03l2.05,1.18c-.46,.39-.88,.58-1.24,.65,0,.13,.03,.26,.03,.4v31.75c0,2.13-1.3,4.62-2.9,5.54l-23.46,13.55,.08,1.69-2.29-1.33h.01c-.64-.35-1.06-1.16-1.06-2.35Z"/><path class="cls-32" d="M9.52,110.77l23.81-13.75c1.6-.92,2.9,.06,2.9,2.19v31.75c0,2.13-1.3,4.62-2.9,5.54l-23.81,13.75c-1.59,.92-2.9-.06-2.9-2.19v-31.75c0-2.13,1.31-4.62,2.9-5.54Z"/><path class="cls-26" d="M8.37,149.91c-.79,0-1.07-1-1.07-1.85v-31.75c0-1.88,1.17-4.15,2.56-4.95l23.81-13.75c.29-.17,.57-.25,.8-.25s.42,.08,.59,.24c.31,.31,.48,.9,.48,1.61v31.75c0,1.88-1.17,4.15-2.56,4.95l-23.81,13.75c-.29,.17-.57,.25-.8,.25Z"/><path class="cls-4" d="M30.2,119.55v-5.19c.57-.57,.89-1.57,.71-2.23-.18-.66-.79-.73-1.37-.16-.19,.19-.36,.43-.49,.7l-6.03-1.15c.01-.09,.02-.17,.02-.25,0-.81-.48-1.19-1.08-.85-.6,.34-1.1,1.27-1.1,2.08,0,.81,.48,1.19,1.08,.85,.31-.17,.61-.52,.82-.94l6.03,1.16c-.01,.09-.02,.17-.02,.25,0,.66,.33,1.04,.81,.93v5.19c-.19,.19-.35,.43-.49,.7l-6.08-1.17c.11-.85-.28-1.39-.87-1.19-.32,.11-.66,.42-.91,.85l-3.4-.66c.13-.86-.24-1.42-.82-1.26-.59,.16-1.17,.99-1.3,1.85-.02,.11-.03,.22-.03,.33,0,.12,.02,.24,.04,.35l-1.85,2.49c-.1,.13-.16,.3-.16,.45v2.27c-.58,.56-.9,1.56-.73,2.23,.17,.67,.78,.75,1.36,.19,.13-.13,.25-.28,.36-.46l2,.37v3.57l2.63,.51,2.3-3.1,4.66,.88c-.03,.16-.05,.31-.05,.46,0,.12,.01,.23,.03,.34l-3.4,4.59c-.33-.48-1.01-.27-1.51,.47-.12,.18-.22,.37-.3,.58l-6.04-1.16c.06-.22,.09-.44,.09-.65,0-.8-.5-1.16-1.1-.81-.6,.35-1.09,1.29-1.08,2.09,0,.8,.5,1.16,1.1,.81,.21-.12,.41-.31,.58-.56l6.26,1.2c0,.81,.49,1.18,1.09,.83,.6-.35,1.09-1.28,1.09-2.09l3.52-4.76c.2,.13,.46,.12,.73-.03,.6-.35,1.09-1.28,1.1-2.08,0-.81-.49-1.18-1.09-.83-.26,.15-.5,.41-.7,.74l-1.74-.35,2.33-3.13v-3.57l1.63,.32c0,.08-.01,.15-.01,.22,0,.81,.48,1.18,1.09,.83,.6-.34,1.09-1.28,1.09-2.08,0-.66-.33-1.05-.81-.94h0Zm-7.85-7.21c-.28,.44-.67,.59-.88,.34-.21-.25-.16-.8,.12-1.24,.28-.44,.67-.59,.88-.34,.07,.08,.11,.19,.12,.33v.11c0,.26-.09,.55-.24,.8Zm-7.73,21.98c-.08,.35-.28,.68-.52,.85l-.07,.04c-.35,.2-.63-.01-.63-.47s.28-1,.63-1.2c.35-.2,.63,.01,.63,.47h0c0,.1-.01,.2-.04,.31Zm7.88,1.64c-.18,.5-.56,.84-.86,.77-.08-.02-.16-.07-.21-.16-.06-.09-.1-.23-.1-.38,0-.18,.04-.38,.12-.56,.21-.49,.6-.79,.88-.68,.16,.07,.25,.26,.25,.52,0,.15-.03,.32-.09,.49Zm4.21-6.64v-.11c.03-.31,.18-.64,.38-.87,.08-.09,.16-.15,.24-.2,.35-.23,.64-.05,.66,.4,.02,.45-.24,1-.59,1.23-.03,.02-.05,.03-.08,.04-.11,.06-.21,.08-.3,.07-.19-.03-.31-.23-.32-.52v-.04Zm-5.37-9.24c.02-.31,.16-.64,.36-.88,.08-.1,.17-.18,.27-.23,.32-.18,.59-.01,.62,.4,0,.03,0,.05,0,.08-.02,.47-.32,1-.67,1.17-.31,.16-.57-.03-.59-.44,0-.03,0-.06,0-.09Zm-5.18-.96c0-.46,.27-1,.62-1.2,.35-.21,.63,0,.63,.46v.02c0,.46-.28,1-.63,1.2-.11,.06-.21,.09-.31,.07-.19-.03-.31-.23-.32-.52v-.02Zm-1.51,6.82c-.04,.32-.19,.65-.4,.88-.07,.08-.14,.14-.22,.18-.34,.2-.62-.01-.62-.48,0-.3,.12-.65,.32-.91,.19-.26,.43-.39,.62-.36,.2,.03,.32,.24,.32,.54,0,.04,0,.09,0,.14Zm9.94-1.69l-2.62-.5-2.34,3.14-.29,.39v-4.03l-2.34,3.15-1.94-.37c.19-.87-.12-1.52-.69-1.44-.01,0-.02,0-.04,0v-2.04l1.7-2.28c.42,.29,1.09-.11,1.51-.89l3.37,.65c-.03,.15-.05,.3-.05,.44,0,.8,.49,1.17,1.09,.82,.3-.17,.58-.5,.79-.91l1.84,.35v3.52Zm4.68-10.59v-.11c0-.46,.28-.99,.63-1.2,.35-.2,.63,0,.63,.47,0,.46-.28,1-.62,1.2-.1,.06-.2,.09-.29,.08-.19-.02-.31-.18-.34-.44Zm.67,8.29c-.31,.19-.58,.04-.63-.34,0-.04,0-.09,0-.14,0-.29,.11-.62,.29-.87,.1-.14,.22-.26,.34-.32,.35-.23,.64-.05,.66,.4,.02,.45-.24,1-.59,1.23-.03,.02-.05,.03-.08,.05h0Z"/></g><g><path class="cls-27" d="M189.86,60.66v-25.09c0-1.68-1.03-3.65-2.3-4.38l-18.81-10.86c-.64-.37-1.21-.35-1.63-.03l-1.62,.93c.37,.31,.69,.45,.98,.51,0,.1-.02,.2-.02,.31v25.09c0,1.68,1.03,3.65,2.29,4.38l18.54,10.7-.07,1.33,1.81-1.05h0c.5-.27,.83-.92,.83-1.86Z"/><path class="cls-96" d="M185.69,32.27l-18.82-10.86c-1.26-.73-2.29,.05-2.29,1.73v25.09c0,1.68,1.03,3.65,2.29,4.38l18.82,10.86c1.26,.73,2.29-.05,2.29-1.73v-25.09c0-1.68-1.03-3.65-2.29-4.38Z"/><path class="cls-97" d="M186.6,63.2c.63,0,.85-.79,.85-1.46v-25.09c0-1.49-.93-3.28-2.02-3.91l-18.82-10.86c-.23-.13-.45-.2-.63-.2s-.33,.06-.46,.19c-.24,.24-.38,.71-.38,1.27v25.09c0,1.49,.92,3.28,2.02,3.91l18.82,10.86c.23,.13,.45,.2,.63,.2Z"/><g><path class="cls-4" d="M168.85,43.46c-.11-.14-.17-.33-.17-.5v-10.92c0-.16,.07-.28,.17-.3l2.42-.46,.34,.99-2.24,.43v10.38l2.17,2.93-.34,.6-2.34-3.15Zm11.9,7.84l2.11-.41v-10.38l-2.17-2.93,.34-.6,2.34,3.16c.11,.14,.17,.33,.17,.5v10.9c0,.16-.07,.28-.17,.3l-2.29,.44-.34-.99Z"/><path class="cls-4" d="M180.79,44.4v3.6l-2.34,.45-2.34-3.15-2.34,.45-2.34-3.15v-3.6l2.34-.45v3.6l2.34-.45,2.34,3.15v-3.6l2.34,3.15Z"/></g></g><g><path class="cls-95" d="M32.09,70.73v-21.76c0-1.46,.9-3.17,1.99-3.8l16.32-9.42c.55-.32,1.05-.3,1.41-.02l1.41,.81c-.32,.26-.6,.39-.85,.44,0,.09,.02,.18,.02,.27v21.76c0,1.46-.89,3.17-1.99,3.8l-16.08,9.29,.06,1.16-1.57-.91h0c-.44-.24-.72-.8-.72-1.61Z"/><g><path class="cls-94" d="M35.71,46.11l16.32-9.42c1.09-.63,1.99,.04,1.99,1.5v21.76c0,1.46-.89,3.17-1.99,3.8l-16.32,9.42c-1.09,.63-1.99-.05-1.99-1.5v-21.76c0-1.46,.9-3.17,1.99-3.8Z"/><path class="cls-86" d="M35.71,46.11l16.32-9.42c1.09-.63,1.99,.04,1.99,1.5v21.76c0,1.46-.89,3.17-1.99,3.8l-16.32,9.42c-1.09,.63-1.99-.05-1.99-1.5v-21.76c0-1.46,.9-3.17,1.99-3.8Z"/></g><path class="cls-91" d="M34.92,72.94c-.54,0-.73-.68-.73-1.27v-21.76c0-1.29,.8-2.84,1.76-3.39l16.32-9.42c.2-.11,.39-.18,.55-.18s.29,.06,.4,.17c.21,.21,.33,.61,.33,1.1v21.76c0,1.29-.8,2.84-1.75,3.39l-16.32,9.42c-.2,.11-.39,.18-.55,.18Z"/><g><path class="cls-4" d="M44.21,63.32l-5.73-1.1-.29,.82,5.87,1.13s.09,0,.14-.03c.05-.03,.1-.08,.14-.13l5.87-7.91-.28-.49-5.73,7.71Z"/><path class="cls-4" d="M50.22,46.62l-5.87-1.13c-.09-.02-.2,.05-.28,.16l-5.87,7.91c-.09,.12-.14,.27-.14,.41v3.05l.57-.33v-2.83l5.59-7.52,5.58,1.07v2.79l.57-.33v-3.01c0-.14-.05-.23-.14-.25Z"/><polygon class="cls-4" points="40.34 57.3 40.34 60.28 42.27 60.65 44.21 58.05 46.15 58.42 48.08 55.81 48.08 52.83 46.15 52.46 46.15 55.44 44.21 55.06 42.27 57.67 42.27 54.69 40.34 57.3"/></g></g><g><path class="cls-15" d="M139.83,185.59c.85-.49,2.23-.5,3.08,0l64.62,37.33c.85,.49,.85,1.3,0,1.79l-34.99,20.41c-.85,.49-2.23,.5-3.08,0l-64.62-37.34c-.85-.49-.85-1.3,0-1.79l34.99-20.41Z"/><g><g><path class="cls-93" d="M141.73,223.87s1.97,.29,3.42,.29,2.49,.61,2.48,1.66c-.01,1.06-.54,2.01-2.94,2.54-2.41,.53-5.36,.91-6.48,.64,0,0-.47,.63-1.55,.51-1.08-.12-3.51-.46-3.3-1.88,.21-1.42,.9-3.08,1.74-3.99,.84-.9,6.64,.22,6.64,.22Z"/><path class="cls-87" d="M144.68,228.37c-2.41,.53-5.36,.91-6.48,.64,0,0-.47,.63-1.55,.51-1.08-.12-3.51-.46-3.3-1.88,.02-.16,.05-.32,.09-.49,1.07,.98,3.07,1.36,4.62,1.43,1.78,.08,5.03-.41,6.94-.78,1.91-.37,2.55-1.37,2.56-1.38-.21,.81-.93,1.51-2.87,1.94Z"/></g><path class="cls-92" d="M136.06,201.66c-.91,5.33-1.56,11.77-1.86,14.09-.4,3.12-.75,9.32-.45,10.01,.3,.69,2.34,.64,4.2,.16,3.55-.88,3.63-2.46,3.63-2.46,0,0,.45-4.5,.81-7.63,.3-2.53,1.28-8.8,2.3-14.18h-8.62Z"/></g><g><path class="cls-21" d="M116.39,250.47c9.52,3.84,22.91,2.52,29.91-2.95,7-5.48,4.97-13.03-4.55-16.87-9.52-3.85-22.91-2.52-29.91,2.95-7,5.47-4.97,13.03,4.55,16.87Z"/><path class="cls-34" d="M116.04,248.24c0,.96-.78,1.73-1.73,1.73s-1.73-.77-1.73-1.73,.77-1.73,1.73-1.73,1.73,.77,1.73,1.73Z"/><path class="cls-25" d="M140.42,248.24c0,.96,.77,1.73,1.73,1.73s1.73-.77,1.73-1.73-.77-1.73-1.73-1.73-1.73,.77-1.73,1.73Z"/><path class="cls-23" d="M115.92,232.09c0,.98-.79,1.77-1.78,1.77s-1.78-.79-1.78-1.77,.79-1.78,1.78-1.78,1.78,.79,1.78,1.78Z"/><polygon class="cls-7" points="113.04 229.79 113.04 231.44 126.64 232.23 126.64 229.79 113.04 229.79"/><polygon class="cls-89" points="113.04 229.79 113.7 229.17 126.89 228.79 126.64 229.79 113.04 229.79"/><path class="cls-24" d="M140.55,232.09c0,.98,.79,1.77,1.77,1.77s1.78-.79,1.78-1.77-.79-1.78-1.78-1.78-1.77,.79-1.77,1.78Z"/><polygon class="cls-7" points="143.42 229.79 143.42 231.44 129.83 232.23 129.83 229.79 143.42 229.79"/><polygon class="cls-88" points="143.42 229.79 142.77 229.17 129.58 228.79 129.83 229.79 143.42 229.79"/><path class="cls-90" d="M125.96,222.83v10.97c0,.52,1.01,.94,2.26,.94s2.26-.42,2.26-.94v-10.97h-4.53Z"/><polygon class="cls-99" points="125.96 230.54 113.04 245.75 114.35 246.51 127.52 231.44 125.96 230.54"/><polygon class="cls-11" points="113.04 245.75 113.04 246.91 114.31 247.67 114.35 246.51 113.04 245.75"/><polygon class="cls-7" points="114.31 247.67 127.52 234.53 127.52 231.44 114.35 246.51 114.31 247.67"/><polygon class="cls-107" points="130.5 230.54 143.42 245.75 142.12 246.51 128.94 231.44 130.5 230.54"/><polygon class="cls-11" points="143.42 245.75 143.42 246.91 142.15 247.67 142.12 246.51 143.42 245.75"/><polygon class="cls-7" points="142.15 247.67 128.94 234.53 128.94 231.44 142.12 246.51 142.15 247.67"/><path class="cls-100" d="M130.49,222.83c0,.59-1.01,1.06-2.26,1.06s-2.26-.48-2.26-1.06,1.01-1.06,2.26-1.06,2.26,.48,2.26,1.06Z"/><path class="cls-98" d="M126.64,211.48v11.2c0,.37,.71,.66,1.59,.66s1.59-.3,1.59-.66v-11.2h-3.18Z"/></g><g><g><path class="cls-108" d="M126.31,220.19s.04-1.92,2.43-3.76c2.39-1.84,13.79-8.88,13.79-8.88,0,0,2.05-1.37,3.11-.98l-16.54-9.3h0c-.61-1.52-3.6,.49-3.6,.49,0,0-11.4,7.04-13.79,8.88-2.39,1.83-2.44,3.75-2.44,3.75-.03,1.1,.3,1.59,.73,1.78l16.63,9.47h0c-.21-.28-.34-.74-.32-1.45Z"/><path class="cls-109" d="M126.31,220.19s.04-1.92,2.43-3.76c2.39-1.84,13.79-8.88,13.79-8.88,0,0,2.05-1.37,3.11-.98l-16.54-9.3h0c-.61-1.52-3.6,.49-3.6,.49,0,0-11.4,7.04-13.79,8.88-2.39,1.83-2.44,3.75-2.44,3.75-.03,1.1,.3,1.59,.73,1.78l16.63,9.47h0c-.21-.28-.34-.74-.32-1.45Z"/></g><path class="cls-111" d="M126.31,220.19s.04-1.92,2.43-3.76c2.39-1.84,13.79-8.88,13.79-8.88,0,0,3.76-2.52,3.71,.21-.04,2.73-2.35,4.14-4.52,5.38-2.18,1.24-13.02,8.63-13.02,8.63,0,0-2.48,1.32-2.39-1.58Z"/></g><path class="cls-113" d="M146.23,192.58c-.54-1.67-1.74-3.03-4.21-2.95-7.69,.27-18.37,7.32-18.37,7.32l-2.68,7.6s4.77,6.57,20.09-5.04c0,0,5.98-4.43,5.17-6.93Z"/><g><g><path class="cls-112" d="M151.56,227.89s1.99,0,3.43-.2c1.43-.21,2.55,.24,2.69,1.29,.14,1.05-.24,2.06-2.55,2.94-2.31,.87-5.17,1.67-6.33,1.56,0,0-.38,.69-1.46,.73-1.08,.04-3.54,.04-3.54-1.39s.45-3.18,1.15-4.19c.7-1.01,6.6-.73,6.6-.73Z"/><path class="cls-110" d="M155.13,231.92c-2.31,.87-5.17,1.67-6.33,1.56,0,0-.38,.69-1.46,.73-1.08,.04-3.54,.04-3.54-1.39,0-.16,0-.33,.02-.5,1.19,.82,3.24,.91,4.77,.76,1.77-.18,4.92-1.13,6.76-1.77,1.84-.64,2.33-1.72,2.34-1.73-.09,.83-.7,1.63-2.56,2.33Z"/></g><path class="cls-104" d="M151.6,200.54s.15-4.68-.72-5.98c-.73-1.08-2.93,4.09-3.67,5.89h-3.98c-.03,.38-.07,.78-.13,1.23-.69,5.45-.2,16.1-.15,19.24,.05,3.15,.59,9.34,.98,9.98,.39,.64,2.41,.29,4.18-.44,3.39-1.38,3.24-2.95,3.24-2.95,0,0-.2-4.52-.29-7.66-.09-3.39,.07-13.49,.53-19.31h0Z"/></g><path class="cls-102" d="M150.98,194.8c-.67-1.62-1.98-2.88-4.43-2.6-7.64,.88-17.72,8.76-17.72,8.76l-2.06,7.79s5.28,6.17,19.62-6.64c0,0,5.61-4.89,4.6-7.32Z"/><g><path class="cls-106" d="M197.42,190.61l5.96,33.06h0s.01,.04,.01,.06c0,.19-.31,.35-.69,.35s-.69-.16-.69-.35l-7.89-31.42,3.29-1.7Z"/><path class="cls-103" d="M176.09,202.9l3.33-1.8-6.5,40.54c0,.19-.31,.35-.69,.35s-.69-.16-.69-.35l4.55-38.73Z"/><path class="cls-101" d="M136.91,155.45l5.96,33.06h0s.01,.04,.01,.06c0,.19-.31,.35-.69,.35s-.69-.16-.69-.35l-7.89-31.42,3.29-1.7Z"/><path class="cls-105" d="M115.58,167.75l3.33-1.8-6.5,40.53c0,.19-.31,.35-.69,.35s-.69-.16-.69-.35l4.55-38.73Z"/><polygon class="cls-78" points="141.62 147.36 208.22 185.84 170.77 207.68 104.17 169.2 141.62 147.36"/><polygon class="cls-77" points="104.17 169.2 170.77 207.68 170.77 209.59 104.17 171.11 104.17 169.2"/><polygon class="cls-80" points="170.41 207.94 104.17 169.67 104.17 169.2 170.77 207.68 170.77 209.59 170.41 209.38 170.41 207.94"/><polygon class="cls-79" points="208.22 185.84 208.22 187.75 170.77 209.59 170.77 207.68 208.22 185.84"/><polygon class="cls-4" points="208.22 185.84 208.22 186.19 171.03 207.88 171.03 209.44 170.77 209.59 170.77 207.68 208.22 185.84"/></g><path class="cls-82" d="M145.89,206.71h0l-.05-.03s.03,.02,.04,.03Z"/><g><g><path class="cls-19" d="M150.16,182.24c.24,.14,.62,.14,.85,0l7.77-4.5c.23-.14,.23-.36,0-.49l-15.86-9.18c-.23-.14-.62-.14-.85,0l-7.77,4.5c-.23,.14-.23,.36,0,.49l15.86,9.18Z"/><path class="cls-81" d="M134.36,171.79l15.86,9.17c.17,.09,.44,.09,.61,0h0l7.51-4.34c.21-.12,.39,0,.39,.29s-.17,.62-.39,.74c-.21,.12-.39,0-.39-.29,0-.1,.02-.21,.06-.32l-7.18,4.15c-.17,.1-.44,.1-.61,0l-15.86-9.17c-.08-.05-.13-.11-.13-.18v-.23c0,.06,.04,.13,.13,.18Z"/><path class="cls-84" d="M158.34,176.62l-.3,.17h0l-3.6,2.08-3.6,2.08h0c-.17,.09-.44,.09-.61,0l-15.86-9.17c-.08-.05-.13-.11-.13-.18s.04-.13,.13-.17l.58-.33h0l6.63-3.83h0l.3-.18c.11-.06,.21-.06,.28,0l16.4,9.48c-.06-.02-.14-.01-.22,.04Z"/><path class="cls-85" d="M158.13,177.26c0,.15,.09,.22,.21,.16,.11-.07,.21-.25,.21-.4s-.09-.22-.21-.16c-.12,.07-.21,.25-.21,.4Z"/><polygon class="cls-22" points="158.62 176.62 158.62 176.63 158.62 176.63 158.62 176.62"/><path class="cls-83" d="M157.51,177.34l.51-.29c-.04,.1-.06,.21-.06,.32,0,.14,.04,.24,.11,.29l-.55-.32Z"/><g><path class="cls-4" d="M137.03,171.45l-.69-.4s-.13-.02-.19,0l-.93,.54c-.05,.03-.06,.08-.01,.11l.69,.4s.13,.02,.19,0l.93-.54c.05-.03,.06-.08,.01-.11Z"/><path class="cls-4" d="M137.38,170.35l-.8,.46c-.05,.03-.06,.08-.01,.11l2.12,1.22s.13,.02,.19,0l.8-.46c.05-.03,.06-.08,.01-.11l-2.12-1.22s-.13-.02-.19,0Z"/><path class="cls-4" d="M137.8,170.2l1.56,.9s.13,.02,.19,0l.8-.46c.05-.03,.06-.08,.01-.11l-1.56-.9s-.13-.02-.19,0l-.8,.46c-.05,.03-.06,.08-.01,.11Z"/><path class="cls-4" d="M139.03,169.49l1.37,.79s.13,.02,.19,0l.8-.46c.06-.03,.06-.08,.01-.11l-1.37-.79s-.13-.02-.19,0l-.8,.46c-.06,.03-.06,.08-.01,.11Z"/><path class="cls-4" d="M154.03,178.42l-1.56-.9s-.13-.02-.19,0l-.8,.46c-.06,.03-.06,.08-.01,.11l1.56,.9s.13,.02,.19,0l.8-.46c.06-.03,.06-.08,.01-.11Z"/><path class="cls-4" d="M152.79,179.13l-2.12-1.23s-.13-.02-.19,0l-.8,.46c-.05,.03-.06,.08-.01,.11l2.12,1.23s.13,.02,.19,0l.8-.46c.06-.03,.06-.08,.01-.11Z"/><path class="cls-4" d="M138.09,172.06l-.69-.4s-.13-.02-.19,0l-.93,.54c-.05,.03-.06,.08-.01,.11l.69,.4s.13,.02,.19,0l.93-.54c.06-.03,.06-.08,.01-.11Z"/><path class="cls-4" d="M139.07,172.35l.69,.4s.13,.02,.19,0l.8-.46c.05-.03,.06-.08,.01-.11l-.69-.4s-.13-.02-.19,0l-.8,.46c-.06,.03-.06,.08-.01,.11Z"/><path class="cls-4" d="M140.62,171.71l.8-.46c.05-.03,.06-.08,.01-.11l-.69-.4s-.13-.02-.19,0l-.8,.46c-.05,.03-.06,.08-.01,.11l.69,.4s.13,.02,.19,0Z"/><path class="cls-4" d="M141.81,172.79l-.69-.4s-.13-.02-.19,0l-.8,.46c-.05,.03-.06,.08-.01,.11l.69,.4s.13,.02,.19,0l.8-.46c.05-.03,.06-.08,.01-.11Z"/><path class="cls-4" d="M141.19,173.58l.69,.4s.13,.02,.19,0l.8-.46c.05-.03,.06-.08,.01-.11l-.69-.4s-.13-.02-.18,0l-.8,.46c-.06,.03-.06,.08-.01,.11Z"/><path class="cls-4" d="M142.25,174.19l.69,.4s.13,.02,.19,0l.8-.46c.06-.03,.06-.08,.01-.11l-.69-.4s-.13-.02-.19,0l-.8,.46c-.05,.03-.06,.08-.01,.11Z"/><path class="cls-4" d="M143.31,174.8l.69,.4s.13,.03,.19,0l.8-.46c.06-.03,.06-.08,.01-.11l-.69-.4s-.13-.02-.19,0l-.8,.46c-.05,.03-.06,.08-.01,.11Z"/><path class="cls-4" d="M144.37,175.42l.69,.4s.13,.02,.19,0l.8-.46c.05-.03,.06-.08,.01-.11l-.69-.4s-.13-.02-.19,0l-.8,.46c-.06,.03-.06,.08-.01,.11Z"/><path class="cls-4" d="M145.43,176.03l.69,.4s.13,.02,.19,0l.8-.46c.05-.03,.06-.08,.01-.11l-.69-.4s-.13-.02-.19,0l-.8,.46c-.05,.03-.06,.08-.01,.11Z"/><path class="cls-4" d="M147.18,177.04s.13,.02,.19,0l.8-.46c.05-.03,.06-.08,.01-.11l-.69-.4s-.13-.02-.19,0l-.8,.46c-.06,.03-.06,.08-.01,.11l.69,.4Z"/><path class="cls-4" d="M147.55,177.25l.69,.4s.13,.02,.19,0l.8-.46c.06-.03,.06-.08,.01-.11l-.69-.4s-.13-.02-.19,0l-.8,.46c-.06,.03-.06,.08-.01,.11Z"/><path class="cls-4" d="M148.61,177.87l.69,.4s.13,.02,.19,0l.8-.46c.06-.03,.06-.08,.01-.11l-.69-.4s-.13-.02-.19,0l-.8,.46c-.05,.03-.06,.08-.01,.11Z"/><path class="cls-4" d="M141.68,172.33l.8-.46c.06-.03,.06-.08,.01-.11l-.69-.4s-.13-.02-.19,0l-.8,.46c-.05,.03-.06,.08-.01,.11l.69,.4s.13,.02,.19,0Z"/><path class="cls-4" d="M141.87,172.55l.69,.4s.13,.02,.18,0l.8-.46c.05-.03,.06-.08,.01-.11l-.69-.4s-.13-.02-.19,0l-.8,.46c-.06,.03-.06,.08-.01,.11Z"/><path class="cls-4" d="M143.81,173.56l.8-.46c.05-.03,.06-.08,.01-.11l-.69-.4s-.13-.03-.19,0l-.8,.46c-.05,.03-.06,.08-.01,.11l.69,.4s.13,.02,.19,0Z"/><path class="cls-4" d="M144.88,174.18l.8-.46c.05-.03,.06-.08,.01-.11l-.69-.4s-.13-.02-.19,0l-.8,.46c-.06,.03-.06,.08-.01,.11l.69,.4s.13,.02,.19,0Z"/><path class="cls-4" d="M145.95,174.79l.8-.46c.06-.03,.06-.08,.01-.11l-.69-.4s-.13-.02-.19,0l-.8,.46c-.05,.03-.06,.08-.01,.11l.69,.4s.13,.02,.19,0Z"/><path class="cls-4" d="M147.01,175.4l.8-.46c.05-.03,.06-.08,.01-.11l-.69-.4s-.13-.02-.19,0l-.8,.46c-.05,.03-.06,.08-.01,.11l.69,.4s.13,.02,.19,0Z"/><path class="cls-4" d="M148.08,176.02l.8-.46c.05-.03,.06-.08,.01-.11l-.69-.4s-.13-.02-.19,0l-.8,.46c-.06,.03-.06,.08-.01,.11l.69,.4s.13,.02,.19,0Z"/><path class="cls-4" d="M148.27,176.25l.69,.4s.13,.02,.19,0l.8-.46c.05-.03,.06-.08,.01-.11l-.69-.4s-.13-.02-.19,0l-.8,.46c-.06,.03-.06,.08-.01,.11Z"/><path class="cls-4" d="M150.21,177.25l.8-.46c.05-.03,.06-.08,.01-.11l-.69-.4s-.13-.02-.19,0l-.8,.46c-.05,.03-.06,.08-.01,.11l.69,.4s.13,.02,.19,0Z"/><path class="cls-4" d="M151.27,177.87l.8-.46c.05-.03,.06-.08,.01-.11l-.69-.4s-.13-.02-.19,0l-.8,.46c-.05,.03-.06,.08-.01,.11l.69,.4s.13,.02,.19,0Z"/><path class="cls-4" d="M141.47,170.9s.13,.02,.19,0l.8-.46c.06-.03,.06-.08,.01-.11l-.69-.4s-.13-.02-.19,0l-.8,.46c-.05,.03-.06,.08-.01,.11l.69,.4Z"/><path class="cls-4" d="M142.54,171.51s.13,.02,.19,0l.8-.46c.05-.03,.06-.08,.01-.11l-.69-.4s-.13-.03-.19,0l-.8,.46c-.06,.03-.06,.08-.01,.11l.69,.4Z"/><path class="cls-4" d="M143.79,172.12l.8-.46c.05-.03,.06-.08,.01-.11l-.69-.4s-.13-.02-.19,0l-.8,.46c-.06,.03-.06,.08-.01,.11l.69,.4s.13,.02,.19,0Z"/><path class="cls-4" d="M144.67,172.74s.13,.02,.19,0l.8-.46c.05-.03,.06-.08,.01-.11l-.69-.4s-.13-.02-.19,0l-.8,.46c-.05,.03-.06,.08-.01,.11l.69,.4Z"/><path class="cls-4" d="M145.85,172.39l-.8,.46c-.06,.03-.06,.08-.01,.11l.69,.4s.13,.02,.19,0l.8-.46c.06-.03,.06-.08,.01-.11l-.69-.4s-.13-.02-.19,0Z"/><path class="cls-4" d="M146.92,173.01l-.8,.46c-.05,.03-.06,.08-.01,.11l.69,.4s.13,.02,.19,0l.8-.46c.05-.03,.06-.08,.01-.11l-.69-.4s-.13-.02-.19,0Z"/><path class="cls-4" d="M147.99,173.62l-.8,.46c-.05,.03-.06,.08-.01,.11l.69,.4s.13,.02,.19,0l.8-.46c.05-.03,.06-.08,.01-.11l-.69-.4s-.13-.02-.19,0Z"/><path class="cls-4" d="M149.05,174.24l-.8,.46c-.05,.03-.06,.08-.01,.11l.69,.4s.13,.02,.19,0l.8-.46c.06-.03,.06-.08,.01-.11l-.69-.4s-.13-.02-.19,0Z"/><path class="cls-4" d="M149.31,175.42l.69,.4s.13,.02,.19,0l.8-.46c.05-.03,.06-.08,.01-.11l-.69-.4s-.13-.02-.19,0l-.8,.46c-.05,.03-.06,.08-.01,.11Z"/><path class="cls-4" d="M151.18,175.47l-.8,.46c-.05,.03-.06,.08-.01,.11l.69,.4s.13,.02,.19,0l.8-.46c.05-.03,.06-.08,.01-.11l-.69-.4s-.13-.02-.19,0Z"/><path class="cls-4" d="M152.25,176.08l-.8,.46c-.06,.03-.06,.08-.01,.11l.69,.4s.13,.02,.19,0l.8-.46c.06-.03,.06-.08,.01-.11l-.69-.4s-.13-.02-.19,0Z"/><path class="cls-4" d="M153.31,176.7l-.8,.46c-.05,.03-.06,.08-.01,.11l.69,.4s.13,.02,.19,0l.8-.46c.06-.03,.06-.08,.01-.11l-.69-.4s-.13-.02-.19,0Z"/><path class="cls-4" d="M155.26,177.71l-.69-.4s-.13-.02-.19,0l-.8,.46c-.06,.03-.06,.08-.01,.11l.69,.4s.13,.02,.19,0l.8-.46c.05-.03,.06-.08,.01-.11Z"/><path class="cls-4" d="M156.49,176.99l-1.37-.79s-.13-.02-.19,0l-.8,.46c-.05,.03-.06,.08-.01,.11l1.37,.79s.13,.02,.19,0l.8-.46c.05-.03,.06-.08,.01-.11Z"/><path class="cls-4" d="M154.74,175.99l-.69-.4s-.13-.02-.19,0l-.8,.46c-.06,.03-.06,.08-.01,.11l.69,.4s.13,.03,.19,0l.8-.46c.05-.03,.06-.08,.01-.11Z"/><path class="cls-4" d="M153.68,175.37l-.69-.4s-.13-.02-.19,0l-.8,.46c-.06,.03-.06,.08-.01,.11l.69,.4s.13,.02,.19,0l.8-.46c.05-.03,.06-.08,.01-.11Z"/><path class="cls-4" d="M152.61,174.76l-.69-.4s-.13-.02-.19,0l-.8,.46c-.06,.03-.06,.08-.01,.11l.69,.4s.13,.02,.19,0l.8-.46c.05-.03,.06-.08,.01-.11Z"/><path class="cls-4" d="M150.73,174.71l.8-.46c.06-.03,.06-.08,.01-.11l-.69-.4s-.13-.02-.19,0l-.8,.46c-.06,.03-.06,.08-.01,.11l.69,.4s.13,.02,.19,0Z"/><path class="cls-4" d="M150.48,173.53l-.69-.4s-.13-.02-.19,0l-.8,.46c-.05,.03-.06,.08-.01,.11l.69,.4s.13,.02,.19,0l.8-.46c.05-.03,.06-.08,.01-.11Z"/><path class="cls-4" d="M149.41,172.91l-.69-.4s-.13-.02-.19,0l-.8,.46c-.05,.03-.06,.08-.01,.11l.69,.4s.13,.02,.19,0l.8-.46c.05-.03,.06-.08,.01-.11Z"/><path class="cls-4" d="M148.35,172.3l-.69-.4s-.13-.02-.19,0l-.8,.46c-.06,.03-.06,.08-.01,.11l.69,.4s.13,.02,.19,0l.8-.46c.05-.03,.06-.08,.01-.11Z"/><path class="cls-4" d="M146.4,171.29l-.8,.46c-.06,.03-.06,.08-.01,.11l.69,.4s.13,.02,.19,0l.8-.46c.05-.03,.06-.08,.01-.11l-.69-.4s-.13-.02-.19,0Z"/><path class="cls-4" d="M144.54,171.13c-.06,.03-.06,.08-.01,.11l.69,.4s.13,.02,.19,0l.8-.46c.05-.03,.06-.08,.01-.11l-.69-.4s-.13-.02-.19,0l-.8,.46Z"/><path class="cls-4" d="M143.46,170.63l.69,.4s.13,.02,.19,0l.8-.46c.06-.03,.06-.08,.01-.11l-.69-.4s-.13-.02-.19,0l-.8,.46c-.06,.03-.06,.08-.01,.11Z"/><path class="cls-4" d="M142.4,170.01l.69,.4s.13,.02,.19,0l.8-.46c.05-.03,.06-.08,.01-.11l-.69-.4s-.13-.02-.19,0l-.8,.46c-.05,.03-.06,.08-.01,.11Z"/><path class="cls-4" d="M141.33,169.4l.69,.4s.13,.02,.19,0l.8-.46c.05-.03,.06-.08,.01-.11l-.69-.4s-.13-.02-.19,0l-.8,.46c-.05,.03-.06,.08-.01,.11Z"/><path class="cls-4" d="M140.26,168.78l.69,.4s.13,.02,.19,0l.8-.46c.06-.03,.06-.08,.01-.11l-.69-.4s-.13-.02-.19,0l-.8,.46c-.06,.03-.06,.08-.02,.11Z"/><path class="cls-4" d="M141.49,168.07l.75,.43s.13,.02,.19,0l.4-.23c.06-.03,.06-.08,.01-.11l-.75-.43s-.13-.02-.19,0l-.4,.23c-.06,.03-.06,.08-.01,.11Z"/><path class="cls-4" d="M142.61,168.71l.75,.43s.13,.02,.19,0l.4-.23c.06-.03,.06-.08,.01-.11l-.75-.43s-.13-.02-.18,0l-.4,.23c-.05,.03-.06,.08-.01,.11Z"/><path class="cls-4" d="M143.72,169.36l.75,.43s.13,.02,.19,0l.4-.23c.05-.03,.06-.08,.01-.11l-.75-.43s-.13-.02-.19,0l-.4,.23c-.05,.03-.06,.08-.01,.11Z"/><path class="cls-4" d="M144.84,170l.75,.43s.13,.02,.19,0l.4-.23c.05-.03,.06-.08,.01-.11l-.75-.43s-.13-.02-.19,0l-.4,.23c-.05,.03-.06,.08-.01,.11Z"/><path class="cls-4" d="M145.95,170.64l.75,.43s.13,.02,.19,0l.4-.23c.05-.03,.06-.08,.01-.11l-.75-.43s-.13-.02-.19,0l-.4,.23c-.05,.03-.06,.08-.01,.11Z"/><path class="cls-4" d="M147.06,171.28l.75,.43s.13,.02,.19,0l.4-.23c.05-.03,.06-.08,.01-.11l-.75-.44s-.13-.02-.19,0l-.4,.23c-.06,.03-.06,.08-.01,.11Z"/><path class="cls-4" d="M148.18,171.93l.75,.43s.13,.02,.19,0l.4-.23c.05-.03,.06-.08,.01-.11l-.75-.43s-.13-.02-.19,0l-.4,.23c-.05,.03-.06,.08-.01,.11Z"/><path class="cls-4" d="M149.29,172.57l.75,.43s.13,.02,.19,0l.4-.23c.06-.03,.06-.08,.01-.11l-.75-.43s-.13-.02-.19,0l-.4,.23c-.05,.03-.06,.08-.01,.11Z"/><path class="cls-4" d="M150.4,173.21l.75,.43s.13,.02,.19,0l.4-.23c.06-.03,.06-.08,.01-.11l-.75-.43s-.13-.02-.19,0l-.4,.23c-.05,.03-.06,.08-.01,.11Z"/><path class="cls-4" d="M151.52,173.86l.75,.43s.13,.02,.19,0l.4-.23c.05-.03,.06-.08,.01-.11l-.75-.43s-.13-.02-.19,0l-.4,.23c-.05,.03-.06,.08-.01,.11Z"/><path class="cls-4" d="M152.63,174.5l.75,.43s.13,.02,.19,0l.4-.23c.06-.03,.06-.08,.01-.11l-.75-.43s-.13-.02-.19,0l-.4,.23c-.05,.03-.06,.08-.01,.11Z"/><path class="cls-4" d="M153.74,175.14l.75,.43s.13,.03,.19,0l.4-.23c.05-.03,.06-.08,.01-.11l-.75-.44s-.13-.02-.19,0l-.4,.23c-.05,.03-.06,.08-.01,.11Z"/><path class="cls-4" d="M154.86,175.78l.75,.43s.13,.02,.19,0l.4-.23c.05-.03,.06-.08,.01-.11l-.75-.43s-.13-.02-.19,0l-.4,.23c-.06,.03-.06,.08-.01,.11Z"/><path class="cls-4" d="M157.32,176.52l-.75-.43s-.13-.02-.19,0l-.4,.23c-.06,.03-.06,.08-.01,.11l.75,.43s.13,.02,.19,0l.4-.23c.05-.03,.06-.08,.01-.11Z"/><path class="cls-4" d="M148.37,178l-.69-.4s-.13-.02-.19,0l-.93,.54c-.05,.03-.06,.08-.01,.11l.69,.4s.13,.02,.19,0l.93-.54c.05-.03,.06-.08,.01-.11Z"/><path class="cls-4" d="M148.81,178.97l-.69-.4s-.13-.02-.19,0l-.3,.17c-.05,.03-.06,.08-.01,.11l.69,.4s.13,.02,.19,0l.3-.17c.06-.03,.06-.08,.01-.11Z"/><path class="cls-4" d="M149.87,179.59l-.69-.4s-.13-.02-.19,0l-.3,.17c-.05,.03-.06,.08-.01,.11l.69,.4s.13,.02,.19,0l.3-.17c.05-.03,.06-.08,.01-.11Z"/><path class="cls-4" d="M150.5,179.23l-.69-.4s-.13-.03-.19,0l-.37,.21c-.06,.03-.06,.08-.01,.11l.69,.4s.13,.02,.19,0l.37-.21c.06-.03,.06-.08,.01-.11Z"/><path class="cls-4" d="M150.93,180.2l-.69-.4s-.13-.02-.19,0l-.3,.17c-.06,.03-.06,.08-.01,.11l.69,.4s.13,.02,.19,0l.3-.17c.05-.03,.06-.08,.01-.11Z"/><path class="cls-4" d="M139.16,172.68l-.69-.4s-.13-.02-.19,0l-.93,.54c-.05,.03-.06,.08-.01,.11l.69,.4s.13,.02,.18,0l.93-.54c.05-.03,.06-.08,.01-.11Z"/><path class="cls-4" d="M140.51,173.46l-.98-.57s-.13-.02-.19,0l-.93,.54c-.05,.03-.06,.08-.01,.11l.98,.57s.13,.02,.19,0l.93-.54c.05-.03,.06-.08,.01-.11Z"/><path class="cls-4" d="M145.95,176.6l-5.07-2.93s-.13-.02-.18,0l-.93,.54c-.05,.03-.06,.08-.01,.11l5.07,2.93s.13,.02,.19,0l.93-.54c.05-.03,.06-.08,.01-.11Z"/><path class="cls-4" d="M147.31,177.38l-.98-.57s-.13-.02-.19,0l-.93,.54c-.05,.03-.06,.08-.01,.11l.98,.57s.13,.02,.19,0l.93-.54c.05-.03,.06-.08,.01-.11Z"/></g></g><path class="cls-2" d="M133.42,171.6l2.2-1.59s.64-.56,1.49-.2c.67,.28,1.41,.24,2.05,.76,.64,.52,1.2,.95,.98,1.24-.22,.28-.6,.05-.98,0-.38-.05-1.24-.27-1.55,.08-.38,.42-.52,.82-.52,.82,0,0,0,.54,.55,.46,.55-.08,.67-.3,.89-.46,.36-.28,.56,.32,.3,.62-.27,.3-.42,.82-1.52,.77-1.1-.05-3.88-2.51-3.88-2.51Z"/><path class="cls-43" d="M162.45,190.6c-.5,.29-1.27,.32-1.71,.07l-6.77-3.91c-.44-.25-.38-.7,.12-.99l10.28-5.94c.5-.29,1.27-.32,1.71-.07l6.77,3.91c.44,.25,.38,.7-.12,.99l-10.29,5.94Z"/><g><path class="cls-41" d="M162.18,183.21s-1.37,.9-2,1.6c-.63,.7-.53,.98-.38,1.34,.16,.36,.9,.66,1.17,.85,.27,.19,.82,.48,1.5,.19,.67-.3,4.72-2.76,4.72-2.76,0,0,.37-.16,.46-.45,.09-.29-.43-.49-.88-.73-.45-.25-1.14-.66-1.14-.66,0,0-.56-.32-1.16-.22-.62,.1-1.27,.23-2.29,.84Z"/><path class="cls-4" d="M159.81,186.15c.16,.36,.9,.66,1.17,.85,.27,.19,.82,.48,1.5,.19,.67-.3,4.72-2.76,4.72-2.76,0,0,.37-.16,.46-.45,.03-.09,0-.17-.07-.24,0,.22-.09,.22-.51,.29-.51,.09-1.34,.43-2.05,.8-.71,.37-2.03,1.56-2.18,1.75-.15,.19-.35,.36-.73,.46-.38,.1-.73-.05-.73-.05,0,0-.95-.53-1.16-.66-.21-.13-.33-.26-.41-.49-.05-.14-.05-.32-.04-.45-.14,.31-.06,.52,.04,.76Z"/><path class="cls-7" d="M167.58,184.13s-.11,.07-.2,.08c-.35,.04-1.32,.34-2.19,.81-.87,.47-1.86,1.35-2.1,1.62-.24,.26-.49,.5-.5,.51,.93-.47,4.6-2.71,4.6-2.71,0,0,.25-.11,.39-.31Z"/></g><path class="cls-2" d="M159.46,183.91s1.04-1.31,1.8-1.68c.76-.37,2.62,0,3.16,.15,.53,.15,1.05,.82,1.47,1.21,.42,.38,.68,.71,.41,1.08-.27,.37-.46,.47-1.21,.39-.75-.08-1.69,.08-2.01,.4-.09,.09-.82,1.29-2.99,1.41-2.18,.12-.62-2.95-.62-2.95Z"/><path class="cls-9" d="M115.61,169.41s-1.66,11.19,.4,16.53c2.07,5.34,11.13,0,11.13,0l-11.53-16.53Z"/><path class="cls-12" d="M135.74,191.83s0-.01,0-.02c0-2.7,.33-6.05,1.27-10.14,.67-2.93,.75-7.38-1.08-9.29-2.2-2.29-6.51-4.46-9.65-5.52-4.96-1.68-9.8-1.51-10.45,1.34-1.29,5.63,1.08,10.86,1.52,14.15,.44,3.34,.64,5.41,0,10.56,0,.07-.02,.13-.03,.2h0s-.34,2.43-.56,3.83c1.57,1.2,7.02,4.71,13.45,4.71,2.81,0,6.73-1.2,6.73-4.71-.31-1.23-1.44-1.44-1.21-5.12Z"/><path class="cls-42" d="M123.58,162.51s-.42,2.71-.66,3.53c0,0-.47,.73,2.15,1.82,1.68,.7,5.23,.72,5.23,.72,0,0-.51-3.23-.16-3.3,.35-.08,1.25-.07,1.25-.07,0,0-1.65-4.9-3.25-5.3-1.6-.39-4.56,2.6-4.56,2.6Z"/><path class="cls-2" d="M133.11,153.68s.6,1.1,.74,1.84c.15,.75-.16,.89-.01,1.47,.25,.98-.21,3.99-.35,5.42-.14,1.43-.58,2.65-1.39,2.82-.81,.16-1.84-.42-2.15-1.35-.32-.93-.5-1.73-.5-1.73,0,0-1-1.5-.71-3.02,.23-1.2,3.33-6.98,4.38-5.45Z"/><path class="cls-14" d="M123.61,151.75s1.28-1.94,4.72-1.77c3.49,.17,4.74-.12,5.73-.45,0,0,.47,3.46-1.38,4.11,0,0-.48,1.86,.07,2.97,0,0-1.71,.59-1.55,4.24,0,0-.56,.47-.53-.31,.03-.77-.59-1.86-1.25-1.67-.67,.18-.79,.86-.61,1.82,0,0-1.16,1.36-1.46,2.4l-3.77-.58s-.61-1.56-1.46-3.17c-.84-1.61-1.88-5.35,1.49-7.58Z"/><path class="cls-39" d="M128.81,160.69c-.19-.97-.06-1.64,.61-1.82,.67-.18,1.29,.9,1.25,1.67-.03,.78,.53,.31,.53,.31-.16-3.65,1.55-4.24,1.55-4.24-.56-1.11-.07-2.97-.07-2.97,0,0-8.09,.64-5.33,9.44,.3-1.04,1.46-2.4,1.46-2.4Z"/><path class="cls-13" d="M128.81,160.69c-.19-.97-.06-1.64,.61-1.82,.67-.18,1.29,.9,1.25,1.67-.03,.78,.53,.31,.53,.31-.16-3.65,1.55-4.24,1.55-4.24-.56-1.11-.07-2.97-.07-2.97,0,0-8.09,.64-5.33,9.44,.3-1.04,1.46-2.4,1.46-2.4Z"/><path class="cls-40" d="M158.98,187.32c1.73,.04,2.66-1.65,2.3-2.85-.47-1.57-1.58-1.31-1.58-1.31l-14.51-2.25-4.71-4.57c-2.15-1.97-3.59-3.28-3.59-3.28-.08-.08-.18-.16-.27-.23-1.6-1.2-3.88-.88-5.08,.72-1.2,1.6-.88,3.88,.72,5.08,0,0,1.56,1.17,3.89,2.92,1.17,.88,2.53,1.9,3.98,2.99,.37,.27,.74,.55,1.11,.83,.19,.14,.38,.28,.57,.43l.14,.11,.07,.05,.19,.15,.15,.11c.18,.12,.39,.25,.57,.34,.63,.32,1.46,.52,2.32,.44,0,0,12,.29,13.72,.32Z"/></g><path class="cls-37" d="M130.08,194.3c-.15-1.5-2.03-6.94-2.69-8.39-.65-1.46-2.76-3.18-2.76-3.18,0,0-5.25-3.29-7.17-4.41-1.8-1.04-3.36-2.24-4.6-1.8l-.02-.02-.16,.07s-.04,0-.05,.02c0,0-.01,.01-.02,.01l-2.7,1.4c1.27-.69,2.91,.61,4.83,1.72,1.92,1.11,7.17,4.41,7.17,4.41,0,0,2.11,1.72,2.76,3.18,.65,1.46,2.53,6.9,2.68,8.39,.15,1.49,.23,15.09,0,16.7-.23,1.61-1,5.86-1.3,6.51-.1,.22-.29,.45-.58,.61l3.2-1.58s.04-.02,.06-.03h.02v-.02c.3-.17,.51-.41,.62-.64,.31-.65,.46-4.66,.69-6.27,.23-1.61,.15-15.2,0-16.69Z"/><path class="cls-38" d="M125.17,219.68h0l.09-.03s-.06,.02-.09,.03Z"/><g><path class="cls-35" d="M109.92,201.91s-.38-17.16-.58-18.81c-.19-1.65-.69-4.4,.58-5.1,1.27-.69,2.91,.61,4.83,1.72,1.92,1.11,7.17,4.41,7.17,4.41,0,0,2.11,1.72,2.76,3.18,.65,1.46,2.53,6.9,2.68,8.39,.15,1.49,.23,15.09,0,16.7-.23,1.61-.43,6.04-.73,6.7-.31,.65-1.91,1.23-3.94,.05-2.03-1.19-11.07-6.07-11.07-6.07,0,0-2.34-1.18-2.29-3.07,.09-3.11,.65-6.7,.59-8.11Z"/><path class="cls-36" d="M109.92,201.91s-.38-17.16-.58-18.81c-.19-1.65-.69-4.4,.58-5.1,1.27-.69,2.91,.61,4.83,1.72,1.92,1.11,7.17,4.41,7.17,4.41,0,0,2.11,1.72,2.76,3.18,.65,1.46,2.53,6.9,2.68,8.39,.15,1.49,.23,15.09,0,16.7-.23,1.61-.43,6.04-.73,6.7-.31,.65-1.91,1.23-3.94,.05-2.03-1.19-11.07-6.07-11.07-6.07,0,0-2.34-1.18-2.29-3.07,.09-3.11,.65-6.7,.59-8.11Z"/></g><g><path class="cls-16" d="M177.27,194.18c0,1.46-2.06,2.64-4.59,2.64s-4.59-1.18-4.59-2.64,2.06-2.64,4.59-2.64,4.59,1.18,4.59,2.64Z"/><path class="cls-4" d="M177.05,193.58c0,1.53-2.09,2.76-4.67,2.76s-4.67-1.24-4.67-2.76,2.09-2.76,4.67-2.76,4.67,1.24,4.67,2.76Z"/><path class="cls-17" d="M176.77,193.51c0,1.38-1.94,2.49-4.33,2.49s-4.33-1.12-4.33-2.49,1.94-2.49,4.33-2.49,4.33,1.12,4.33,2.49Z"/><path class="cls-18" d="M175.4,193.68c0,.96-1.32,1.73-2.95,1.73s-2.95-.78-2.95-1.73,1.32-1.73,2.95-1.73,2.95,.78,2.95,1.73Z"/><path class="cls-61" d="M172.39,189.25l-2.88-.09,.1,3.74c0,1.3,1.6,2.35,2.78,2.35s2.78-1.05,2.78-2.35l.1-3.74-2.89,.09Z"/><path class="cls-4" d="M175.27,189.16c0,.92-1.29,1.66-2.88,1.66s-2.88-.74-2.88-1.66,1.29-1.66,2.88-1.66,2.88,.74,2.88,1.66Z"/><path class="cls-58" d="M169.6,192.9v-.29c-1.12-.37-1.49-1.17-1.46-1.81,.02-.39,.21-.72,.42-.73,.41-.04,.75,.15,.97,.3l-.02-.61c-.27-.13-.61-.24-1-.2-.49,.04-.86,.54-.89,1.22-.05,.86,.46,1.97,2,2.38-.01-.09-.02-.17-.02-.26Z"/><path class="cls-57" d="M172.39,188.64c1.14,0,2.1,.41,2.45,.97,.09-.14,.14-.29,.14-.45,0-.79-1.16-1.43-2.58-1.43s-2.58,.64-2.58,1.43c0,.16,.05,.31,.14,.45,.34-.56,1.31-.97,2.44-.97Z"/><path class="cls-60" d="M172.39,190.58c1.14,0,2.1-.41,2.45-.97-.34-.56-1.31-.97-2.45-.97s-2.1,.41-2.44,.97c.34,.56,1.31,.97,2.44,.97Z"/></g></g><g><path class="cls-59" d="M224.3,103.73l-87.45-50.46c-1.51-.87-2.89-.92-3.95-.3l-3.34,1.9,2.04,3.12v62.4c0,4.43,2.72,9.62,6.04,11.54l84.17,48.57,3.03,4.64,3.35-1.91h0c1.31-.74,2.14-2.46,2.14-4.91v-63.04c0-4.43-2.72-9.62-6.04-11.54Z"/><path class="cls-55" d="M127.45,122.78c0,4.43,2.72,9.62,6.04,11.54l87.45,50.46c3.32,1.92,6.04-.14,6.04-4.57v-63.04c0-4.43-2.72-9.62-6.04-11.54l-87.45-50.46c-3.32-1.92-6.04,.14-6.04,4.57v63.04Z"/><path class="cls-54" d="M220.02,180.06c1.93,1.12,3.51-.07,3.51-2.65v-61.42c0-2.58-1.58-5.59-3.51-6.7l-85.59-49.39c-1.93-1.12-3.51,.07-3.51,2.65v61.42c0,2.58,1.57,5.59,3.51,6.7l85.59,49.39Z"/><g><path class="cls-6" d="M228.52,167.43c.26-.15,.47,.01,.47,.36v1.96c0,.35-.21,.75-.47,.9-.26,.15-.47-.01-.47-.36v-1.97c0-.35,.21-.75,.47-.9Z"/><path class="cls-6" d="M228.52,163.89c.26-.15,.47,0,.47,.35s-.21,.74-.47,.89c-.26,.15-.47,0-.47-.35s.21-.75,.47-.89Z"/><path class="cls-6" d="M228.52,165.55c.26-.15,.47,0,.47,.35s-.21,.74-.47,.89c-.26,.15-.47-.01-.47-.35s.21-.74,.47-.89Z"/><path class="cls-6" d="M228.52,163.49c-.26,.15-.47,0-.47-.35s.21-.75,.47-.89c.26-.15,.47,.01,.47,.35s-.21,.74-.47,.89Z"/></g><path class="cls-56" d="M221.56,179.15l-85.59-49.38c-1.94-1.12-3.51-4.12-3.51-6.7V61.65c0-.91,.2-1.64,.53-2.16-1.22,.03-2.07,1.17-2.07,3.07v61.42c0,2.58,1.57,5.59,3.51,6.7l85.59,49.39c1.26,.73,2.36,.48,2.97-.49-.44,.01-.92-.12-1.43-.42Z"/><path class="cls-50" d="M217.17,171.77l-7.73-22.59c-2.92-8.52-7.49-12.34-10.16-8.49-2.67,3.85-7.37,.13-10.45-8.26l-2.28-6.21c-3.08-8.39-8.33-11.76-11.67-7.49l-1.58,2.02c-3.34,4.27-8.51,.83-11.49-7.64l-4.95-14.09c-2.97-8.47-8.17-12.27-11.54-8.44-3.37,3.83-6.13,6.97-6.13,6.97v29.19l77.97,45.02Z"/><path class="cls-51" d="M206.66,165.7l-7.48-24.18c-2.68-8.67-8.2-13.84-12.27-11.48l-5.55,3.21c-4.06,2.35-9.13-3-11.26-11.91l-.78-3.24c-2.13-8.9-7.35-14.76-11.59-13.02l-18.5,7.6-.05,14.06,67.47,38.95Z"/><g class="cls-20"><polygon class="cls-3" points="215.79 129.67 142.71 87.47 142.83 87.27 215.91 129.46 215.79 129.67"/><rect class="cls-3" x="179.19" y="79.51" width=".24" height="84.39" transform="translate(-15.75 216.14) rotate(-60)"/><polygon class="cls-3" points="215.79 156.15 142.71 113.96 142.83 113.75 215.91 155.94 215.79 156.15"/><polygon class="cls-3" points="140.59 86.25 138.37 84.97 138.48 84.76 140.71 86.04 140.59 86.25"/><polygon class="cls-3" points="140.59 99.49 138.36 98.21 138.49 98 140.71 99.28 140.59 99.49"/><polygon class="cls-3" points="140.59 112.73 138.36 111.45 138.49 111.24 140.71 112.53 140.59 112.73"/></g><path class="cls-4" d="M180.26,122.26c0,.7-.43,1.03-.95,.72-.53-.3-.95-1.12-.95-1.82,0-.7,.43-1.03,.95-.72,.53,.3,.95,1.12,.95,1.82Z"/><path class="cls-4" d="M158.96,123.29c0,.7-.43,1.03-.95,.72-.53-.3-.95-1.12-.95-1.82,0-.7,.43-1.03,.95-.72,.53,.3,.95,1.12,.95,1.82Z"/><path class="cls-4" d="M198.34,119.53c0,.7-.43,1.03-.95,.72-.53-.3-.95-1.12-.95-1.82,0-.7,.43-1.03,.95-.72,.53,.3,.95,1.12,.95,1.82Z"/><path class="cls-4" d="M211.2,153.65c0,.7-.43,1.03-.95,.72-.53-.3-.95-1.12-.95-1.82,0-.7,.43-1.03,.95-.72,.53,.3,.95,1.12,.95,1.82Z"/><g><path class="cls-4" d="M160.98,131.45l-5.57-3.21c-.06-.04-.12,0-.12,.09v.44c0,.09,.05,.19,.12,.23l5.57,3.21c.07,.04,.12,0,.12-.09v-.44c0-.09-.05-.19-.12-.23Z"/><path class="cls-4" d="M169.26,133.18l-6.6-3.81c-.07-.04-.12,0-.12,.09v.44c0,.09,.05,.19,.12,.23l6.6,3.81c.07,.04,.12,0,.12-.09v-.44c0-.09-.05-.19-.12-.23Z"/><path class="cls-4" d="M155.41,125.94l2.27,1.31c.07,.04,.12,0,.12-.09v-.44c0-.09-.05-.19-.12-.23l-2.27-1.31c-.06-.04-.12,0-.12,.09v.44c0,.09,.05,.19,.12,.23Z"/><path class="cls-4" d="M161.91,129.54v-.44c0-.09-.05-.19-.12-.23l-3.28-1.89c-.06-.04-.12,0-.12,.09v.44c0,.09,.05,.19,.12,.23l3.28,1.89c.06,.04,.12,0,.12-.09Z"/><path class="cls-4" d="M169.26,134.69l-4.61-2.66c-.06-.04-.12,0-.12,.09v.44c0,.09,.05,.19,.12,.22l4.61,2.66c.07,.04,.12,0,.12-.09v-.44c0-.09-.05-.19-.12-.23Z"/><path class="cls-4" d="M163.77,131.52l-3.51-2.02c-.06-.04-.12,0-.12,.09v.44c0,.09,.05,.19,.12,.23l3.51,2.02c.06,.04,.12,0,.12-.09v-.44c0-.09-.05-.19-.12-.23Z"/><path class="cls-4" d="M155.41,126.7c-.06-.04-.12,0-.12,.09v.44c0,.09,.05,.19,.12,.23l3.93,2.27c.06,.04,.12,0,.12-.09v-.44c0-.09-.05-.19-.12-.23l-3.93-2.27Z"/></g><g><path class="cls-4" d="M181.7,129.94l-5.57-3.21c-.06-.04-.12,0-.12,.09v.44c0,.09,.05,.19,.12,.23l5.57,3.21c.07,.04,.12,0,.12-.09v-.44c0-.09-.05-.19-.12-.23Z"/><path class="cls-4" d="M189.98,131.67l-6.6-3.81c-.07-.04-.12,0-.12,.09v.44c0,.09,.05,.19,.12,.23l6.6,3.81c.07,.04,.12,0,.12-.09v-.44c0-.09-.05-.19-.12-.23Z"/><path class="cls-4" d="M176.13,124.43l2.27,1.31c.07,.04,.12,0,.12-.09v-.44c0-.09-.05-.19-.12-.23l-2.27-1.31c-.06-.04-.12,0-.12,.09v.44c0,.09,.05,.19,.12,.23Z"/><path class="cls-4" d="M182.64,128.03v-.44c0-.09-.05-.19-.12-.23l-3.28-1.89c-.06-.04-.12,0-.12,.09v.44c0,.09,.05,.19,.12,.23l3.28,1.89c.06,.04,.12,0,.12-.09Z"/><path class="cls-4" d="M189.98,133.18l-4.61-2.66c-.06-.04-.12,0-.12,.09v.44c0,.09,.05,.19,.12,.22l4.61,2.66c.07,.04,.12,0,.12-.09v-.44c0-.09-.05-.19-.12-.23Z"/><path class="cls-4" d="M184.49,130.01l-3.51-2.02c-.06-.04-.12,0-.12,.09v.44c0,.09,.05,.19,.12,.23l3.51,2.02c.06,.04,.12,0,.12-.09v-.44c0-.09-.05-.19-.12-.23Z"/><path class="cls-4" d="M176.13,125.19c-.06-.04-.12,0-.12,.09v.44c0,.09,.05,.19,.12,.23l3.93,2.27c.06,.04,.12,0,.12-.09v-.44c0-.09-.05-.19-.12-.23l-3.93-2.27Z"/></g><g><path class="cls-4" d="M201.33,116.91l-5.57-3.21c-.06-.04-.12,0-.12,.09v.44c0,.09,.05,.19,.12,.23l5.57,3.21c.07,.04,.12,0,.12-.09v-.44c0-.09-.05-.19-.12-.23Z"/><path class="cls-4" d="M209.61,118.65l-6.6-3.81c-.07-.04-.12,0-.12,.09v.44c0,.09,.05,.19,.12,.23l6.6,3.81c.07,.04,.12,0,.12-.09v-.44c0-.09-.05-.19-.12-.23Z"/><path class="cls-4" d="M195.76,111.41l2.27,1.31c.07,.04,.12,0,.12-.09v-.44c0-.09-.05-.19-.12-.23l-2.27-1.31c-.06-.04-.12,0-.12,.09v.44c0,.09,.05,.19,.12,.23Z"/><path class="cls-4" d="M202.27,115.01v-.44c0-.09-.05-.19-.12-.23l-3.28-1.89c-.06-.04-.12,0-.12,.09v.44c0,.09,.05,.19,.12,.23l3.28,1.89c.06,.04,.12,0,.12-.09Z"/><path class="cls-4" d="M209.61,120.16l-4.61-2.66c-.06-.04-.12,0-.12,.09v.44c0,.09,.05,.19,.12,.22l4.61,2.66c.07,.04,.12,0,.12-.09v-.44c0-.09-.05-.19-.12-.23Z"/><path class="cls-4" d="M204.12,116.99l-3.51-2.02c-.06-.04-.12,0-.12,.09v.44c0,.09,.05,.19,.12,.23l3.51,2.02c.06,.04,.12,0,.12-.09v-.44c0-.09-.05-.19-.12-.23Z"/><path class="cls-4" d="M195.76,112.16c-.06-.04-.12,0-.12,.09v.44c0,.09,.05,.19,.12,.23l3.93,2.27c.06,.04,.12,0,.12-.09v-.44c0-.09-.05-.19-.12-.23l-3.93-2.27Z"/></g><g><path class="cls-4" d="M203.52,157.28l-5.57-3.21c-.06-.04-.12,0-.12,.09v.44c0,.09,.05,.19,.12,.23l5.57,3.21c.07,.04,.12,0,.12-.09v-.44c0-.09-.05-.19-.12-.23Z"/><path class="cls-4" d="M211.8,159.01l-6.6-3.81c-.07-.04-.12,0-.12,.09v.44c0,.09,.05,.19,.12,.23l6.6,3.81c.07,.04,.12,0,.12-.09v-.44c0-.09-.05-.19-.12-.23Z"/><path class="cls-4" d="M197.95,151.78l2.27,1.31c.07,.04,.12,0,.12-.09v-.44c0-.09-.05-.19-.12-.23l-2.27-1.31c-.06-.04-.12,0-.12,.09v.44c0,.09,.05,.19,.12,.23Z"/><path class="cls-4" d="M204.46,155.37v-.44c0-.09-.05-.19-.12-.23l-3.28-1.89c-.06-.04-.12,0-.12,.09v.44c0,.09,.05,.19,.12,.23l3.28,1.89c.06,.04,.12,0,.12-.09Z"/><path class="cls-4" d="M211.8,160.52l-4.61-2.66c-.06-.04-.12,0-.12,.09v.44c0,.09,.05,.19,.12,.22l4.61,2.66c.07,.04,.12,0,.12-.09v-.44c0-.09-.05-.19-.12-.23Z"/><path class="cls-4" d="M206.31,157.36l-3.51-2.02c-.06-.04-.12,0-.12,.09v.44c0,.09,.05,.19,.12,.23l3.51,2.02c.06,.04,.12,0,.12-.09v-.44c0-.09-.05-.19-.12-.23Z"/><path class="cls-4" d="M197.95,152.53c-.06-.04-.12,0-.12,.09v.44c0,.09,.05,.19,.12,.23l3.93,2.27c.06,.04,.12,0,.12-.09v-.44c0-.09-.05-.19-.12-.23l-3.93-2.27Z"/></g><g><path class="cls-6" d="M150.17,84.09l-10-5.78c-.12-.07-.21,0-.21,.16v.79c0,.15,.1,.34,.21,.41l10,5.77c.12,.07,.21,0,.21-.16v-.79c0-.16-.1-.34-.21-.4Z"/><path class="cls-6" d="M140.16,71.49l6.44,3.72c.12,.07,.21,0,.21-.16v-.79c0-.16-.09-.34-.21-.41l-6.44-3.71c-.12-.07-.21,0-.21,.16v.79c0,.16,.1,.34,.21,.4Z"/><path class="cls-6" d="M148.04,76.03l5.23,3.02c.12,.07,.21,0,.21-.16v-.79c0-.16-.1-.34-.21-.41l-5.23-3.02c-.12-.07-.21,0-.21,.16v.79c0,.16,.09,.34,.21,.41Z"/><path class="cls-6" d="M154.66,79.85l2.78,1.6c.12,.07,.21,0,.21-.16v-.79c0-.16-.09-.34-.21-.41l-2.78-1.6c-.12-.07-.21,0-.21,.16v.79c0,.16,.1,.34,.21,.41Z"/><path class="cls-6" d="M158.81,82.25l6.23,3.6c.12,.07,.21,0,.21-.16v-.79c0-.16-.1-.34-.21-.41l-6.23-3.6c-.12-.07-.21,0-.21,.16v.79c0,.16,.1,.34,.21,.41Z"/><path class="cls-6" d="M165.05,87.21l-11.86-6.85c-.12-.07-.21,0-.21,.16v.79c0,.16,.1,.34,.21,.41l11.86,6.85c.12,.07,.21,0,.21-.16v-.79c0-.16-.1-.34-.21-.41Z"/><path class="cls-6" d="M140.16,74.2l4.09,2.36c.12,.07,.21,0,.21-.16v-.79c0-.15-.1-.34-.21-.4l-4.09-2.36c-.12-.07-.21,0-.21,.16v.79c0,.16,.1,.34,.21,.41Z"/><path class="cls-6" d="M151.85,80.66v-.79c0-.16-.09-.34-.21-.41l-5.9-3.4c-.12-.07-.21,0-.21,.16v.79c0,.16,.1,.34,.21,.4l5.9,3.4c.12,.07,.21,0,.21-.16Z"/><path class="cls-6" d="M165.05,89.92l-8.29-4.79c-.12-.07-.21,0-.21,.16v.79c0,.15,.1,.34,.21,.4l8.29,4.79c.12,.07,.21,0,.21-.16v-.79c0-.16-.1-.34-.21-.41Z"/><path class="cls-6" d="M155.19,84.23l-6.3-3.64c-.12-.07-.21,0-.21,.16v.79c0,.16,.1,.34,.21,.41l6.3,3.64c.12,.07,.21,0,.21-.16v-.79c0-.16-.1-.34-.21-.4Z"/><path class="cls-6" d="M140.16,75.56c-.12-.07-.21,0-.21,.16v.79c0,.16,.1,.34,.21,.41l7.06,4.07c.12,.07,.21,0,.21-.16v-.79c0-.16-.1-.34-.21-.41l-7.06-4.08Z"/></g></g><g><path class="cls-52" d="M249.57,163.89l-29.92-17.27c-.77-.45-1.48-.47-2.03-.15l-1.71,.98,1.05,1.6v37.24c0,2.28,1.4,4.95,3.11,5.93l28.23,16.3,1.56,2.38,1.72-.98h0c.67-.38,1.1-1.26,1.1-2.52v-37.57c0-2.28-1.4-4.95-3.11-5.93Z"/><path class="cls-53" d="M214.82,187.51c0,2.28,1.4,4.95,3.11,5.93l29.92,17.27c1.71,.99,3.11-.07,3.11-2.35v-37.57c0-2.28-1.4-4.95-3.11-5.93l-29.92-17.27c-1.71-.99-3.1,.07-3.1,2.35v37.57Z"/><path class="cls-47" d="M247.37,208.29c.99,.57,1.8-.04,1.8-1.36v-36.74c0-1.33-.81-2.87-1.8-3.45l-28.96-16.72c-.99-.57-1.8,.04-1.8,1.36v36.74c0,1.33,.81,2.87,1.8,3.45l28.96,16.72Z"/><path class="cls-8" d="M232.73,200.43l-2.91-1.68c-.15-.09-.27,0-.27,.2s.12,.43,.27,.52l2.91,1.68c.15,.09,.27,0,.27-.2s-.12-.43-.27-.52Z"/><g><path class="cls-6" d="M251.74,201.8c.13-.08,.24,0,.24,.18v1.01c0,.18-.11,.39-.24,.46-.13,.08-.24,0-.24-.19v-1.01c0-.18,.11-.39,.24-.46Z"/><path class="cls-6" d="M251.74,199.98c.13-.08,.24,0,.24,.18s-.11,.38-.24,.46c-.13,.08-.24,0-.24-.18s.11-.38,.24-.46Z"/><path class="cls-6" d="M251.74,200.83c.13-.08,.24,0,.24,.18s-.11,.38-.24,.46c-.13,.08-.24,0-.24-.18s.11-.38,.24-.46Z"/><path class="cls-6" d="M251.74,199.77c-.13,.08-.24,0-.24-.18s.11-.38,.24-.46c.13-.08,.24,0,.24,.18s-.11,.38-.24,.46Z"/></g><path class="cls-48" d="M248.16,207.83l-28.96-16.72c-.99-.57-1.8-2.12-1.8-3.45v-36.74c0-.47,.1-.84,.27-1.11-.63,.01-1.07,.6-1.07,1.58v36.74c0,1.33,.81,2.87,1.8,3.45l28.96,16.72c.65,.37,1.21,.24,1.53-.25-.23,0-.47-.06-.74-.21Z"/><g><path class="cls-6" d="M222.57,173.92l5.41,3.12c.1,.06,.18,0,.18-.13v-.66c0-.13-.08-.28-.18-.34l-5.41-3.12c-.1-.06-.18,0-.18,.14v.67c0,.13,.08,.28,.18,.34Z"/><path class="cls-6" d="M233.76,180.14v-.66c0-.13-.08-.28-.18-.34l-4.39-2.54c-.1-.06-.18,0-.18,.14v.66c0,.13,.08,.28,.18,.34l4.39,2.54c.1,.06,.18,0,.18-.13Z"/><path class="cls-6" d="M234.57,179.94v.67c0,.13,.08,.28,.18,.34l2.33,1.35c.1,.06,.18,0,.18-.14v-.66c0-.13-.08-.28-.18-.34l-2.33-1.35c-.1-.06-.18,0-.18,.13Z"/><path class="cls-6" d="M243.48,184.85l-5.24-3.02c-.1-.06-.18,0-.18,.14v.66c0,.13,.08,.28,.18,.34l5.24,3.02c.1,.06,.18,0,.18-.14v-.67c0-.13-.08-.28-.18-.34Z"/><path class="cls-6" d="M243.48,187.13l-9.96-5.75c-.1-.06-.18,0-.18,.13v.67c0,.13,.08,.28,.18,.34l9.96,5.75c.1,.06,.18,0,.18-.13v-.66c0-.13-.08-.28-.18-.34Z"/><path class="cls-6" d="M222.57,176.2l3.43,1.98c.1,.06,.18,0,.18-.13v-.66c0-.13-.08-.29-.18-.34l-3.43-1.98c-.1-.06-.18,0-.18,.13v.66c0,.13,.08,.28,.18,.34Z"/><path class="cls-6" d="M232.21,180.62l-4.95-2.86c-.1-.06-.18,0-.18,.13v.67c0,.13,.08,.28,.18,.34l4.95,2.86c.1,.06,.18,0,.18-.13v-.67c0-.13-.08-.28-.18-.34Z"/><path class="cls-6" d="M243.48,189.41l-6.97-4.02c-.1-.06-.18,0-.18,.14v.66c0,.13,.08,.28,.18,.34l6.97,4.02c.1,.06,.18,0,.18-.14v-.67c0-.13-.08-.28-.18-.34Z"/><path class="cls-6" d="M235.37,185.63v-.66c0-.13-.08-.28-.18-.34l-5.29-3.05c-.1-.06-.18,0-.18,.13v.66c0,.13,.08,.28,.18,.34l5.29,3.06c.1,.06,.18,0,.18-.14Z"/><path class="cls-6" d="M222.57,178.48l5.93,3.42c.1,.06,.18,0,.18-.14v-.66c0-.13-.08-.28-.18-.34l-5.93-3.42c-.1-.06-.18,0-.18,.13v.66c0,.13,.08,.28,.18,.34Z"/><path class="cls-6" d="M222.57,180.76l8.4,4.85c.1,.06,.18,0,.18-.13v-.66c0-.13-.08-.28-.18-.34l-8.4-4.85c-.1-.06-.18,0-.18,.13v.67c0,.13,.08,.28,.18,.34Z"/><path class="cls-6" d="M230.98,193.63l-8.4-4.85c-.1-.06-.18,0-.18,.14v.66c0,.13,.08,.28,.18,.34l8.4,4.85c.1,.06,.18,0,.18-.14v-.66c0-.13-.08-.28-.18-.34Z"/><path class="cls-6" d="M233.94,187.08v-.66c0-.13-.08-.28-.18-.34l-1.49-.86c-.1-.06-.18,0-.18,.13v.66c0,.13,.08,.28,.18,.34l1.49,.86c.1,.06,.18,0,.18-.13Z"/><path class="cls-6" d="M243.48,191.69l-8.46-4.89c-.1-.06-.18,0-.18,.14v.66c0,.13,.08,.28,.18,.34l8.46,4.89c.1,.06,.18,0,.18-.13v-.66c0-.13-.08-.28-.18-.34Z"/><path class="cls-6" d="M222.57,183.04l5.41,3.12c.1,.06,.18,0,.18-.14v-.66c0-.13-.08-.28-.18-.34l-5.41-3.12c-.1-.06-.18,0-.18,.13v.67c0,.13,.08,.28,.18,.34Z"/><path class="cls-6" d="M233.76,189.26v-.66c0-.13-.08-.28-.18-.34l-4.39-2.54c-.1-.06-.18,0-.18,.14v.66c0,.13,.08,.28,.18,.34l4.39,2.54c.1,.06,.18,0,.18-.13Z"/><path class="cls-6" d="M234.57,189.73c0,.13,.08,.28,.18,.34l2.33,1.35c.1,.06,.18,0,.18-.14v-.66c0-.13-.08-.28-.18-.34l-2.33-1.35c-.1-.06-.18,0-.18,.13v.66Z"/><path class="cls-6" d="M243.48,193.97l-5.24-3.02c-.1-.06-.18,0-.18,.14v.67c0,.13,.08,.28,.18,.34l5.24,3.02c.1,.06,.18,0,.18-.13v-.66c0-.13-.08-.28-.18-.34Z"/><path class="cls-6" d="M243.48,196.25l-9.96-5.75c-.1-.06-.18,0-.18,.13v.67c0,.13,.08,.28,.18,.34l9.96,5.75c.1,.06,.18,0,.18-.14v-.66c0-.13-.08-.28-.18-.34Z"/><path class="cls-6" d="M222.57,185.32l3.43,1.98c.1,.06,.18,0,.18-.13v-.67c0-.13-.08-.28-.18-.34l-3.43-1.98c-.1-.06-.18,0-.18,.14v.66c0,.13,.08,.28,.18,.34Z"/><path class="cls-6" d="M227.26,186.88c-.1-.06-.18,0-.18,.14v.66c0,.13,.08,.28,.18,.34l4.95,2.86c.1,.06,.18,0,.18-.13v-.66c0-.13-.08-.28-.18-.34l-4.95-2.86Z"/><path class="cls-6" d="M243.48,198.53l-6.97-4.02c-.1-.06-.18,0-.18,.13v.67c0,.13,.08,.28,.18,.34l6.97,4.02c.1,.06,.18,0,.18-.14v-.66c0-.13-.08-.28-.18-.34Z"/><path class="cls-6" d="M235.2,193.75l-5.29-3.06c-.1-.06-.18,0-.18,.14v.66c0,.13,.08,.28,.18,.34l5.29,3.05c.1,.06,.18,0,.18-.13v-.67c0-.13-.08-.28-.18-.34Z"/><path class="cls-6" d="M222.57,187.6l5.93,3.42c.1,.06,.18,0,.18-.13v-.66c0-.13-.08-.28-.18-.34l-5.93-3.42c-.1-.06-.18,0-.18,.13v.66c0,.13,.08,.28,.18,.34Z"/><g><path class="cls-49" d="M225.88,165.73c0-1.49,.91-2.18,2.03-1.54v-2.94c-2.34-1.35-4.24,.08-4.24,3.2,0,1.56,.47,3.25,1.24,4.71l1.56-1.18c-.37-.7-.59-1.51-.6-2.26Z"/><path class="cls-44" d="M227.91,161.26v2.94c1.12,.65,2.03,2.38,2.03,3.88,0,.52-.11,.94-.31,1.25l1.87,2.63c.4-.63,.64-1.51,.64-2.61,0-3.12-1.9-6.75-4.24-8.1Z"/><path class="cls-45" d="M229.63,169.33c-.36,.56-.99,.71-1.72,.29-.56-.32-1.07-.92-1.43-1.62l-1.56,1.18c.77,1.47,1.83,2.71,3,3.39,1.52,.88,2.85,.57,3.6-.6l-1.87-2.63Z"/><path class="cls-46" d="M243.01,175.63c0-3.12-1.9-6.75-4.24-8.1v2.94c1.12,.65,2.03,2.38,2.03,3.88s-.91,2.18-2.03,1.54v2.94c2.34,1.35,4.24-.08,4.24-3.2Z"/><path class="cls-68" d="M243.01,175.63c0-3.12-1.9-6.75-4.24-8.1v2.94c1.12,.65,2.03,2.38,2.03,3.88s-.91,2.18-2.03,1.54v2.94c2.34,1.35,4.24-.08,4.24-3.2Z"/><path class="cls-67" d="M236.74,172.01c0-1.5,.91-2.18,2.03-1.53v-2.94h0c-2.34-1.35-4.24,.08-4.24,3.2,0,1.82,.65,3.82,1.66,5.43l1.34-1.55c-.48-.77-.79-1.73-.79-2.6Z"/><path class="cls-76" d="M238.77,178.83v-2.94c-.47-.27-.89-.73-1.24-1.28l-1.34,1.55c.72,1.15,1.61,2.11,2.58,2.67h0Z"/><path class="cls-75" d="M238.77,178.83v-2.94c-.47-.27-.89-.73-1.24-1.28l-1.34,1.55c.72,1.15,1.61,2.11,2.58,2.67h0Z"/></g></g></g><g><path class="cls-74" d="M249.57,104.06l-29.92-17.27c-.77-.45-1.48-.47-2.03-.15l-1.71,.98,1.05,1.6v37.24c0,2.28,1.4,4.95,3.11,5.93l28.23,16.3,1.56,2.38,1.72-.98h0c.67-.38,1.1-1.26,1.1-2.52v-37.57c0-2.28-1.4-4.95-3.11-5.93Z"/><path class="cls-73" d="M214.82,127.69c0,2.28,1.4,4.95,3.11,5.93l29.92,17.27c1.71,.99,3.11-.07,3.11-2.35v-37.57c0-2.28-1.4-4.95-3.11-5.93l-29.92-17.27c-1.71-.99-3.1,.07-3.1,2.35v37.57Z"/><path class="cls-72" d="M247.37,148.46c.99,.57,1.8-.04,1.8-1.36v-36.74c0-1.33-.81-2.87-1.8-3.45l-28.96-16.72c-.99-.57-1.8,.04-1.8,1.36v36.74c0,1.33,.81,2.87,1.8,3.45l28.96,16.72Z"/><path class="cls-8" d="M232.73,140.6l-2.91-1.68c-.15-.09-.27,0-.27,.2s.12,.43,.27,.52l2.91,1.68c.15,.09,.27,0,.27-.2s-.12-.43-.27-.52Z"/><g><path class="cls-6" d="M251.74,141.97c.13-.08,.24,0,.24,.18v1.01c0,.18-.11,.39-.24,.46-.13,.08-.24,0-.24-.19v-1.01c0-.18,.11-.39,.24-.46Z"/><path class="cls-6" d="M251.74,140.15c.13-.08,.24,0,.24,.18s-.11,.38-.24,.46c-.13,.08-.24,0-.24-.18s.11-.38,.24-.46Z"/><path class="cls-6" d="M251.74,141c.13-.08,.24,0,.24,.18s-.11,.38-.24,.46c-.13,.08-.24,0-.24-.18s.11-.38,.24-.46Z"/><path class="cls-6" d="M251.74,139.95c-.13,.08-.24,0-.24-.18s.11-.38,.24-.46c.13-.08,.24,0,.24,.18s-.11,.38-.24,.46Z"/></g><path class="cls-71" d="M248.16,148l-28.96-16.72c-.99-.57-1.8-2.12-1.8-3.45v-36.74c0-.47,.1-.84,.27-1.11-.63,.01-1.07,.6-1.07,1.58v36.74c0,1.33,.81,2.87,1.8,3.45l28.96,16.72c.65,.37,1.21,.24,1.53-.25-.23,0-.47-.06-.74-.21Z"/><path class="cls-6" d="M240.29,117.66s-.01-.05-.02-.07c-.01-.05-.02-.09-.04-.14,0-.03-.02-.05-.03-.08-.02-.04-.03-.08-.05-.12-.02-.03-.03-.06-.05-.08-.02-.03-.03-.06-.05-.09l-7.51-10.56c-.18-.26-.41-.39-.6-.34l-7.52,1.88s-.04,.02-.05,.03c-.02,0-.04,.01-.05,.03-.02,.01-.04,.04-.05,.06-.01,.01-.03,.03-.04,.04-.02,.03-.03,.06-.04,.1,0,.02-.01,.03-.02,.05-.01,.05-.02,.12-.02,.18v12.43c0,.26,.1,.56,.27,.79l7.52,10.55h.01s0,.03,.01,.03c.03,.04,.05,.06,.08,.09,.02,.02,.03,.03,.04,.05,.05,.05,.1,.08,.15,.11,.05,.03,.1,.05,.15,.06,.01,0,.03,0,.04,0,.03,0,.06,0,.08,0h.02l7.51-1.88c.17-.04,.27-.23,.27-.49v-12.43c0-.07,0-.14-.02-.21Zm-8.06-9.79l6.45,9.05-6.45,1.61-6.44-9.05,6.44-1.61Zm-6.95,2.67l6.39,8.97v10.66l-6.39-8.97v-10.66Zm13.9,18.69l-6.39,1.6v-10.66l6.39-1.59v10.66Z"/><g><path class="cls-6" d="M226.21,103.91l-6.12-3.53c-.07-.04-.13,0-.13,.1v.48c0,.09,.06,.21,.13,.25l6.12,3.53c.07,.04,.13,0,.13-.1v-.48c0-.1-.06-.21-.13-.25Z"/><path class="cls-6" d="M220.09,96.2l3.93,2.27c.07,.04,.13,0,.13-.1v-.48c0-.09-.06-.21-.13-.25l-3.93-2.27c-.07-.04-.13,0-.13,.1v.48c0,.09,.06,.21,.13,.25Z"/><path class="cls-6" d="M224.9,98.98l3.2,1.85c.07,.04,.13,0,.13-.1v-.48c0-.09-.06-.21-.13-.25l-3.2-1.85c-.07-.04-.13,0-.13,.1v.48c0,.1,.06,.21,.13,.25Z"/><path class="cls-6" d="M228.95,101.31l1.7,.98c.07,.04,.13,0,.13-.1v-.48c0-.1-.06-.21-.13-.25l-1.7-.98c-.07-.04-.13,0-.13,.1v.48c0,.1,.06,.21,.13,.25Z"/><path class="cls-6" d="M220.09,97.86l2.5,1.44c.07,.04,.13,0,.13-.1v-.48c0-.09-.06-.21-.13-.25l-2.5-1.44c-.07-.04-.13,0-.13,.1v.48c0,.1,.06,.21,.13,.25Z"/><path class="cls-6" d="M227.23,101.81v-.48c0-.09-.06-.21-.13-.25l-3.61-2.08c-.07-.04-.13,0-.13,.1v.48c0,.09,.06,.21,.13,.25l3.61,2.08c.07,.04,.13,0,.13-.1Z"/><path class="cls-6" d="M229.28,103.99l-3.85-2.22c-.07-.04-.13,0-.13,.1v.48c0,.1,.06,.21,.13,.25l3.85,2.22c.07,.04,.13,0,.13-.1v-.48c0-.1-.06-.21-.13-.25Z"/><path class="cls-6" d="M220.09,98.69c-.07-.04-.13,0-.13,.1v.48c0,.09,.06,.21,.13,.25l4.32,2.49c.07,.04,.13,0,.13-.1v-.48c0-.09-.06-.21-.13-.25l-4.32-2.49Z"/></g><g><path class="cls-6" d="M242.62,140.66l-5.3-3.06c-.06-.04-.11,0-.11,.09v.42c0,.08,.05,.18,.11,.21l5.3,3.06c.06,.04,.11,0,.11-.08v-.42c0-.08-.05-.18-.11-.21Z"/><path class="cls-6" d="M237.32,133.98l3.41,1.97c.06,.04,.11,0,.11-.08v-.42c0-.08-.05-.18-.11-.22l-3.41-1.97c-.06-.04-.11,0-.11,.08v.42c0,.08,.05,.18,.11,.21Z"/><path class="cls-6" d="M241.49,136.39l2.77,1.6c.06,.04,.11,0,.11-.08v-.42c0-.08-.05-.18-.11-.21l-2.77-1.6c-.06-.04-.11,0-.11,.08v.42c0,.08,.05,.18,.11,.21Z"/><path class="cls-6" d="M245,138.42l1.47,.85c.06,.03,.11,0,.11-.09v-.42c0-.08-.05-.18-.11-.22l-1.47-.85c-.06-.04-.11,0-.11,.08v.42c0,.08,.05,.18,.11,.21Z"/><path class="cls-6" d="M237.32,135.42l2.16,1.25c.06,.03,.11,0,.11-.09v-.42c0-.08-.05-.18-.11-.21l-2.16-1.25c-.06-.04-.11,0-.11,.09v.42c0,.08,.05,.18,.11,.21Z"/><path class="cls-6" d="M243.51,138.84v-.42c0-.08-.05-.18-.11-.21l-3.12-1.8c-.06-.04-.11,0-.11,.08v.42c0,.08,.05,.18,.11,.21l3.12,1.8c.06,.04,.11,0,.11-.08Z"/><path class="cls-6" d="M245.28,140.73l-3.34-1.93c-.06-.04-.11,0-.11,.09v.42c0,.08,.05,.18,.11,.22l3.34,1.93c.06,.04,.11,0,.11-.08v-.42c0-.08-.05-.18-.11-.21Z"/><path class="cls-6" d="M237.32,136.14c-.06-.04-.11,0-.11,.08v.42c0,.08,.05,.18,.11,.22l3.74,2.16c.06,.04,.11,0,.11-.08v-.42c0-.08-.05-.18-.11-.21l-3.74-2.16Z"/></g></g><g><path class="cls-69" d="M72.79,143.73v-25.49c0-1.71,1.05-3.71,2.33-4.45l19.11-11.04c.64-.37,1.23-.35,1.65-.03l1.65,.95c-.37,.31-.7,.46-1,.52,0,.1,.03,.21,.03,.32v25.49c0,1.71-1.05,3.71-2.33,4.45l-18.83,10.87,.07,1.36-1.84-1.07h0c-.51-.28-.85-.93-.85-1.89Z"/><g><path class="cls-70" d="M77.02,114.9l19.12-11.04c1.28-.74,2.33,.05,2.33,1.76v25.49c0,1.71-1.05,3.71-2.33,4.45l-19.12,11.03c-1.28,.74-2.33-.05-2.33-1.76v-25.49c0-1.71,1.05-3.71,2.33-4.45Z"/><path class="cls-66" d="M77.02,114.9l19.12-11.04c1.28-.74,2.33,.05,2.33,1.76v25.49c0,1.71-1.05,3.71-2.33,4.45l-19.12,11.03c-1.28,.74-2.33-.05-2.33-1.76v-25.49c0-1.71,1.05-3.71,2.33-4.45Z"/></g><path class="cls-62" d="M76.1,146.32c-.64,0-.86-.8-.86-1.49v-25.49c0-1.51,.94-3.33,2.06-3.97l19.12-11.04c.23-.13,.45-.21,.64-.21s.34,.06,.47,.19c.25,.25,.39,.72,.39,1.29v25.49c0,1.51-.94,3.33-2.05,3.97l-19.11,11.04c-.23,.13-.45,.2-.65,.2Z"/><g><polygon class="cls-4" points="91.66 122.65 89.56 122.24 89.56 122.53 89.46 122.36 89.02 122.95 89.15 123.16 89.56 122.6 89.56 125.47 89.3 125.43 89.31 125.42 88.88 125.34 88.88 125.34 88.45 125.26 88.45 125.26 88.02 125.17 88.02 125.18 87.7 125.12 87.87 124.89 87.74 124.67 87.59 124.89 87.59 124.64 87.34 124.78 87.34 125.04 87.17 125.01 87.04 125.36 87.22 125.4 86.89 125.83 86.89 125.83 86.46 126.4 86.46 126.41 86.04 126.98 86.04 126.98 85.61 127.55 85.61 127.56 85.36 127.9 85.36 125.04 85.76 125.12 85.87 124.76 85.45 124.67 85.36 124.95 85.36 124.67 83.26 127.5 83.26 130.73 83.05 131.01 83.17 131.22 83.5 130.78 85.36 131.13 87.46 128.31 89.56 128.71 91.42 126.2 91.75 126.27 91.88 125.91 91.66 125.87 91.66 122.65"/><path class="cls-4" d="M93.95,116.26l-6.34-1.22c-.09-.02-.21,.05-.31,.18l-6.34,8.55c-.1,.13-.15,.3-.15,.45v9.77c0,.15,.06,.25,.15,.27l6.34,1.22s.1,0,.15-.03c.05-.03,.11-.08,.15-.15l6.34-8.55c.1-.13,.15-.3,.15-.44v-9.77c0-.15-.06-.25-.15-.27Zm-6.37,18.11v-.51l-.24,.14v.52l-5.8-1.12,.33-.45-.12-.21-.33,.45v-8.91h.06l.13-.35h-.06l5.79-7.82v.1l.24-.14v-.09l5.78,1.11-.06,.08,.12,.22,.07-.09v8.92l-.34-.06-.12,.36,.33,.06-5.79,7.8Z"/><polygon class="cls-4" points="83.31 124.27 82.89 124.18 82.76 124.54 83.19 124.62 83.31 124.27"/><polygon class="cls-4" points="82.46 124.1 82.03 124.02 81.91 124.38 82.33 124.46 82.46 124.1"/><polygon class="cls-4" points="84.17 124.43 83.74 124.35 83.62 124.71 84.05 124.79 84.17 124.43"/><polygon class="cls-4" points="85.03 124.6 84.6 124.51 84.47 124.87 84.9 124.95 85.03 124.6"/><polygon class="cls-4" points="86.74 124.94 86.31 124.84 86.19 125.2 86.61 125.28 86.74 124.94"/><polygon class="cls-4" points="92.18 126.35 92.61 126.44 92.73 126.07 92.3 125.99 92.18 126.35"/><polygon class="cls-4" points="88.73 123.75 88.6 123.53 88.18 124.11 88.29 124.31 88.73 123.75"/><polygon class="cls-4" points="91.29 120.28 91.16 120.06 90.73 120.64 90.86 120.85 91.29 120.28"/><polygon class="cls-4" points="90.43 121.43 90.31 121.22 89.88 121.79 90 122.01 90.43 121.43"/><polygon class="cls-4" points="91.59 119.49 91.71 119.7 92.14 119.13 92.02 118.91 91.59 119.49"/><polygon class="cls-4" points="92.46 118.32 92.57 118.55 93.02 117.96 92.89 117.75 92.46 118.32"/><polygon class="cls-4" points="82.18 132.17 82.31 132.38 82.73 131.8 82.61 131.59 82.18 132.17"/><polygon class="cls-4" points="87.59 116.73 87.34 116.87 87.34 117.53 87.58 117.39 87.59 116.73"/><polygon class="cls-4" points="87.34 133.34 87.58 133.21 87.59 132.54 87.34 132.68 87.34 133.34"/><polygon class="cls-4" points="87.59 118.04 87.34 118.19 87.34 118.85 87.58 118.71 87.59 118.04"/><polygon class="cls-4" points="87.34 130.71 87.58 130.57 87.59 129.91 87.34 130.05 87.34 130.71"/><polygon class="cls-4" points="87.34 129.39 87.58 129.25 87.59 128.59 87.34 128.73 87.34 129.39"/><polygon class="cls-4" points="87.59 123.32 87.34 123.46 87.34 124.12 87.58 123.98 87.59 123.32"/><polygon class="cls-4" points="87.34 132.03 87.58 131.89 87.59 131.22 87.34 131.37 87.34 132.03"/><polygon class="cls-4" points="87.59 120.68 87.34 120.82 87.34 121.48 87.58 121.35 87.59 120.68"/><polygon class="cls-4" points="87.59 119.36 87.34 119.5 87.34 120.16 87.58 120.03 87.59 119.36"/><polygon class="cls-4" points="87.59 122 87.34 122.14 87.34 122.8 87.58 122.66 87.59 122"/></g></g><g><path class="cls-64" d="M257.63,63V24.07c0-2.61-1.6-5.66-3.56-6.79L224.88,.42c-.98-.57-1.88-.54-2.52-.04l-2.52,1.44c.57,.47,1.08,.7,1.52,.8-.01,.16-.04,.31-.04,.49V42.04c0,2.61,1.6,5.67,3.55,6.79l28.76,16.61-.1,2.07,2.81-1.63h-.01c.78-.43,1.29-1.42,1.29-2.88Z"/><path class="cls-65" d="M251.16,18.96L221.97,2.1c-1.96-1.13-3.56,.08-3.55,2.69V43.72c0,2.61,1.6,5.66,3.55,6.8l29.19,16.86c1.96,1.13,3.56-.08,3.56-2.69V25.75c0-2.61-1.6-5.66-3.56-6.79Z"/><path class="cls-63" d="M252.57,66.95c.97,0,1.32-1.22,1.32-2.27V25.75c0-2.31-1.44-5.08-3.14-6.07L221.55,2.83c-.35-.2-.69-.31-.98-.31s-.52,.1-.72,.3c-.38,.38-.59,1.1-.59,1.98V43.72c0,2.31,1.43,5.09,3.13,6.07l29.19,16.85c.35,.2,.69,.31,.99,.31Z"/><g><polygon class="cls-4" points="247 45.22 247.33 45.68 247.25 45.83 246.9 45.39 247 45.22"/><polygon class="cls-4" points="227.97 32.78 228.31 32.72 228.41 33 228.07 33.07 227.97 32.78"/><polygon class="cls-4" points="229.08 32.87 228.75 32.94 228.62 32.64 228.96 32.57 229.08 32.87"/><polygon class="cls-4" points="223.89 33.56 224.23 33.49 224.32 33.77 223.99 33.84 223.89 33.56"/><polygon class="cls-4" points="245.34 42.97 245.26 43.11 244.9 42.68 245 42.51 245.34 42.97"/><polygon class="cls-4" points="244.67 42.05 244.58 42.2 244.23 41.77 244.33 41.6 244.67 42.05"/><polygon class="cls-4" points="246.32 44.31 246.65 44.76 246.57 44.92 246.22 44.48 246.32 44.31"/><polygon class="cls-4" points="245.63 43.39 245.97 43.85 245.89 44 245.54 43.56 245.63 43.39"/><polygon class="cls-4" points="224.99 33.64 224.65 33.7 224.55 33.42 224.89 33.36 224.99 33.64"/><polygon class="cls-4" points="225.89 33.15 226.23 33.09 226.33 33.37 225.99 33.43 225.89 33.15"/><polygon class="cls-4" points="249.39 48.43 249.31 48.58 248.96 48.14 249.05 47.97 249.39 48.43"/><polygon class="cls-4" points="248.73 47.52 248.64 47.68 248.29 47.23 248.39 47.07 248.73 47.52"/><polygon class="cls-4" points="247.69 46.14 248.03 46.6 247.94 46.75 247.59 46.31 247.69 46.14"/><polygon class="cls-4" points="226.61 33.05 226.91 32.95 227.01 33.24 226.67 33.3 226.61 33.05"/><polygon class="cls-4" points="227.3 32.92 227.63 32.85 227.73 33.13 227.39 33.2 227.3 32.92"/><polygon class="cls-4" points="225.57 33.23 225.67 33.51 225.33 33.57 225.23 33.29 225.57 33.23"/><polygon class="cls-4" points="241.64 44.57 241.27 44.36 241.25 44.1 241.64 44.33 241.64 44.57"/><polygon class="cls-4" points="242.42 45.02 242.05 44.81 242.03 44.56 242.42 44.78 242.42 45.02"/><polygon class="cls-4" points="248.69 48.64 248.3 48.42 248.3 48.18 248.69 48.4 248.69 48.64"/><polygon class="cls-4" points="230.7 38.26 230.33 38.04 230.31 37.79 230.7 38.02 230.7 38.26"/><polygon class="cls-4" points="247.88 48.18 247.52 47.97 247.49 47.71 247.88 47.94 247.88 48.18"/><polygon class="cls-4" points="247.1 47.73 246.74 47.51 246.71 47.26 247.1 47.49 247.1 47.73"/><polygon class="cls-4" points="245.54 46.82 245.18 46.61 245.15 46.36 245.54 46.59 245.54 46.82"/><polygon class="cls-4" points="246.32 47.28 245.96 47.06 245.93 46.81 246.32 47.04 246.32 47.28"/><polygon class="cls-4" points="244.76 46.37 244.39 46.16 244.37 45.91 244.76 46.13 244.76 46.37"/><polygon class="cls-4" points="228.36 36.9 227.99 36.69 227.96 36.44 228.36 36.66 228.36 36.9"/><polygon class="cls-4" points="229.14 37.35 228.77 37.14 228.75 36.89 229.14 37.11 229.14 37.35"/><polygon class="cls-4" points="227.57 36.45 227.21 36.24 227.18 35.99 227.57 36.21 227.57 36.45"/><polygon class="cls-4" points="240.85 44.12 240.49 43.91 240.46 43.65 240.85 43.88 240.85 44.12"/><polygon class="cls-4" points="235 40.5 235.38 40.72 235.38 40.96 235.02 40.75 235 40.5"/><polygon class="cls-4" points="226.82 36.01 226.43 35.79 226.43 35.55 226.82 35.77 226.82 36.01"/><polygon class="cls-4" points="225.25 35.11 224.86 34.89 224.86 34.65 225.25 34.87 225.25 35.11"/><polygon class="cls-4" points="226.03 35.56 225.64 35.34 225.64 35.1 226.03 35.32 226.03 35.56"/><polygon class="cls-4" points="234.22 40.04 234.61 40.27 234.61 40.51 234.24 40.3 234.22 40.04"/><polygon class="cls-4" points="238.51 42.76 238.14 42.55 238.12 42.3 238.51 42.53 238.51 42.76"/><polygon class="cls-4" points="239.29 43.22 238.92 43 238.9 42.75 239.29 42.98 239.29 43.22"/><polygon class="cls-4" points="233.43 39.59 233.82 39.82 233.82 40.06 233.46 39.85 233.43 39.59"/><polygon class="cls-4" points="240.07 43.67 239.71 43.46 239.68 43.2 240.07 43.43 240.07 43.67"/><polygon class="cls-4" points="231.09 38.24 231.48 38.47 231.48 38.7 231.11 38.49 231.09 38.24"/><polygon class="cls-4" points="232.65 39.14 233.04 39.37 233.04 39.61 232.67 39.4 232.65 39.14"/><polygon class="cls-4" points="231.87 38.69 232.26 38.92 232.26 39.16 231.89 38.95 231.87 38.69"/><path class="cls-4" d="M222.89,33.92l7.03,9.49,6.64-1.29,6.64,8.96,7.03-1.37v-10.86l-7.42-10.01v10.27l-6.25-8.43-6.25,1.21v-10.27l-7.42,1.45v10.85Zm20.72,11.79l.37,.21v-.24l-.37-.21v-4.54l.27,.34,.1-.14-.34-.45-.03,.05v-9.61l5.86,7.9v9.64l-.25,.05-.15-.08v.11l-5.47,1.04v-4.07Zm-13.3-12.63l6.25-1.21,6.25,8.42v9.02l-5.3-7.13,.22,.13v-.24l-.39-.23v.13l-.78-1.07-.64,.12-.14-.08v.11l-5.47,1.04v-9.02Zm-.78,8.57l-5.28-7.12,.22,.13v-.24l-.39-.23v.11l-.41-.56v-9.62l5.86-1.13v9.48l-.22,.04,.1,.28,.13-.02v8.88Z"/></g></g></g></g></g></g></svg>