<svg width="102" height="41" viewBox="0 0 102 41" fill="none" xmlns="http://www.w3.org/2000/svg">
<path d="M31.3493 29.9959H27.2321L30.7857 22.8154H30.8347L31.3493 29.9959ZM31.5454 33.2308L31.7904 36.0736H36.2997L34.8048 19.4824H28.0899L19.5859 36.0736H24.1933L25.6147 33.2308H31.5454Z" fill="#B9C8DE"/>
<path d="M42.6238 28.8195H43.2855L46.5204 24.4573H50.6866L46.2263 30.0449L48.9711 36.0736H44.5353L42.7463 31.3683H42.0846L41.0798 36.0736H37.2812L40.7858 19.4824H44.6089L42.6238 28.8195Z" fill="#B9C8DE"/>
<path d="M55.5637 31.2714C56.8136 31.2714 57.6223 31.3694 57.4263 32.3252C57.1567 33.5505 56.642 33.7466 55.0491 33.7466C54.4609 33.7466 53.3826 33.7466 53.6522 32.4967C53.8727 31.4429 54.6325 31.2714 55.5637 31.2714ZM56.6175 36.0747H60.4161L61.9601 28.8207C62.8178 24.8261 61.2739 24.3359 57.3773 24.3359C54.657 24.3359 52.0347 24.3114 51.2505 27.9139H55.0491C55.2696 26.8602 55.9068 26.6641 56.8626 26.6641C58.5291 26.6641 58.4556 27.3503 58.2105 28.4286L57.8184 30.2666H57.6468C57.4998 28.9432 55.8333 28.9677 54.755 28.9677C52.0102 28.9677 50.3682 29.8255 49.7801 32.6193C49.1429 35.5846 50.5643 36.2218 53.2111 36.2218C54.5344 36.2218 56.3234 35.9522 56.9361 34.3593H57.0587L56.6175 36.0747Z" fill="#B9C8DE"/>
<path d="M68.1111 24.4585L67.768 26.1004H67.9151C68.6748 24.728 70.1697 24.3359 71.4686 24.3359C73.1106 24.3359 74.728 24.63 74.5075 26.6151H74.679C75.2427 24.9486 76.9337 24.3359 78.4041 24.3359C81.0754 24.3359 82.2272 25.4387 81.639 28.1345L79.948 36.0747H76.1494L77.5709 29.3598C77.7669 28.1345 77.963 27.2523 76.4925 27.2523C75.0221 27.2523 74.5075 28.2325 74.2624 29.4824L72.8655 36.0747H69.0669L70.5618 29.0413C70.7334 27.9875 70.8314 27.2523 69.508 27.2523C67.9396 27.2523 67.474 28.0855 67.1799 29.4824L65.783 36.0747H61.9844L64.4596 24.4585H68.1111Z" fill="#B9C8DE"/>
<path d="M87.6202 31.2714C88.8455 31.2714 89.6788 31.3694 89.4827 32.3252C89.2377 33.5505 88.6985 33.7466 87.1055 33.7466C86.5419 33.7466 85.4391 33.7466 85.7086 32.4967C85.9292 31.4429 86.6889 31.2714 87.6202 31.2714ZM88.674 36.0747H92.4726L94.0165 28.8207C94.8743 24.8261 93.3303 24.3359 89.4337 24.3359C86.7134 24.3359 84.0667 24.3114 83.3069 27.9139H87.1055C87.3261 26.8602 87.9633 26.6641 88.9191 26.6641C90.5855 26.6641 90.512 27.3503 90.267 28.4286L89.9239 30.2666H89.7523C89.6053 28.9432 87.9388 28.9677 86.8605 28.9677C84.1157 28.9677 82.4737 29.8255 81.8855 32.6193C81.2484 35.5846 82.6698 36.2218 85.3165 36.2218C86.6399 36.2218 88.4289 35.9522 89.0661 34.3593H89.1886L88.674 36.0747Z" fill="#B9C8DE"/>
<path d="M97.9627 36.0733H94.1641L96.6148 24.457H100.413L97.9627 36.0733Z" fill="#B9C8DE"/>
<path d="M21.5213 40.0932C13.0909 37.52 6.93964 29.7268 6.93964 20.5123C6.93964 11.1751 13.2134 3.30843 21.7909 0.833234C22.6732 0.588165 22.4281 0 21.3743 0C9.97851 0 0.714844 9.19008 0.714844 20.5123C0.714844 31.8344 9.954 41 21.3743 41C22.4281 41 22.4771 40.3873 21.5213 40.0932Z" fill="#B9C8DE"/>
<path d="M10.8593 25.292C10.8103 24.7529 10.7613 24.1892 10.7613 23.6255C10.7613 14.6315 18.0399 7.35297 27.034 7.35297C35.5379 7.35297 38.0867 11.1515 38.4053 10.9065C38.7484 10.6369 35.3174 3.11328 25.343 3.11328C16.3489 3.11328 9.07031 10.3918 9.07031 19.3858C9.07031 21.4689 9.46243 23.454 10.1731 25.2675C10.4672 26.0517 10.9328 26.0517 10.8593 25.292Z" fill="#B9C8DE"/>
<path d="M17.6734 13.5776C21.8886 11.7396 27.2067 11.6906 32.4267 13.5041C35.9312 14.7294 37.9653 16.4694 38.1368 16.3959C38.4064 16.2734 36.1027 12.5973 31.912 11.0289C26.8391 9.11737 21.3985 10.1222 17.4284 13.2345C16.9872 13.5776 17.1588 13.7982 17.6734 13.5776Z" fill="#B9C8DE"/>
<path d="M101.268 21.2473C101.268 22.4237 100.312 23.3794 99.136 23.3794C97.9597 23.3794 97.0039 22.4237 97.0039 21.2473C97.0039 20.071 97.9597 19.1152 99.136 19.1152C100.312 19.1152 101.268 20.071 101.268 21.2473Z" fill="#B9C8DE"/>
</svg>
