<svg width="100" height="33" viewBox="0 0 100 33" fill="none" xmlns="http://www.w3.org/2000/svg">
<path d="M51.5716 23.1605V21.0251C51.474 21.2393 51.2246 21.5497 50.8235 21.9564C50.4333 22.3632 49.9128 22.7325 49.2622 23.0643C48.6118 23.3853 47.8528 23.546 46.9855 23.546C45.6845 23.546 44.5461 23.2355 43.5703 22.6147C42.5946 21.9831 41.8356 21.1429 41.2936 20.0939C40.7515 19.0343 40.4805 17.8623 40.4805 16.5779C40.4805 15.2934 40.7515 14.1267 41.2936 13.0778C41.8356 12.0181 42.5946 11.1725 43.5703 10.541C44.5461 9.90951 45.6845 9.59375 46.9855 9.59375C47.8203 9.59375 48.5521 9.72755 49.181 9.99515C49.8098 10.252 50.3193 10.5624 50.7096 10.9264C51.1 11.2796 51.371 11.606 51.5228 11.9057V9.97908H56.4341V23.1605H51.5716ZM45.3268 16.5779C45.3268 17.1772 45.4676 17.7178 45.7496 18.1995C46.0315 18.6704 46.4055 19.0397 46.8717 19.3072C47.3486 19.5749 47.8745 19.7086 48.4491 19.7086C49.0455 19.7086 49.5712 19.5749 50.0266 19.3072C50.482 19.0397 50.8398 18.6704 51.1 18.1995C51.371 17.7178 51.5065 17.1772 51.5065 16.5779C51.5065 15.9785 51.371 15.4433 51.1 14.9723C50.8398 14.4907 50.482 14.116 50.0266 13.8484C49.5712 13.5701 49.0455 13.431 48.4491 13.431C47.8745 13.431 47.3486 13.5701 46.8717 13.8484C46.4055 14.116 46.0315 14.4907 45.7496 14.9723C45.4676 15.4433 45.3268 15.9785 45.3268 16.5779Z" fill="#B9C8DE"/>
<path d="M62.8898 23.1605H57.9297V1.06836H62.8898V23.1605Z" fill="#B9C8DE"/>
<path d="M68.3862 17.6054C68.4188 18.0763 68.5704 18.4937 68.8416 18.8576C69.1126 19.2216 69.4866 19.5106 69.9637 19.7248C70.4516 19.928 71.0262 20.0298 71.6875 20.0298C72.3163 20.0298 72.8801 19.9655 73.3789 19.8372C73.8884 19.7086 74.3275 19.5481 74.6962 19.3555C75.0756 19.1628 75.3683 18.9648 75.5742 18.7614L77.4934 21.7797C77.2222 22.0688 76.8374 22.3524 76.3386 22.6307C75.8508 22.8984 75.2057 23.1178 74.4033 23.289C73.6011 23.4603 72.5874 23.546 71.3622 23.546C69.8877 23.546 68.576 23.2729 67.4266 22.7271C66.2774 22.1812 65.3721 21.3785 64.7108 20.3187C64.0494 19.2591 63.7188 17.9639 63.7188 16.4334C63.7188 15.1489 64.0007 13.9929 64.5645 12.9654C65.1391 11.9271 65.9684 11.1083 67.0527 10.5089C68.1369 9.89881 69.4432 9.59375 70.9719 9.59375C72.4247 9.59375 73.6825 9.85599 74.7449 10.3805C75.8182 10.9049 76.6422 11.6863 77.2168 12.7246C77.8024 13.7521 78.095 15.0365 78.095 16.5779C78.095 16.6636 78.0896 16.8347 78.0787 17.0916C78.0787 17.3485 78.068 17.5198 78.0463 17.6054H68.3862ZM73.4439 15.0526C73.433 14.7101 73.3409 14.3729 73.1674 14.0411C72.9939 13.6986 72.7337 13.4203 72.3868 13.2062C72.0399 12.9814 71.5954 12.8691 71.0532 12.8691C70.5112 12.8691 70.0504 12.9761 69.6709 13.1902C69.3024 13.3935 69.0204 13.6611 68.8253 13.9929C68.6301 14.3247 68.5217 14.678 68.5 15.0526H73.4439Z" fill="#B9C8DE"/>
<path d="M88.4868 16.0795L94.1626 23.1599H88.682L85.5271 19.098L82.372 23.1599H77.2656L82.9251 16.465L77.8347 9.97852H83.364L85.8361 13.3662L88.4218 9.97852H93.4308L88.4868 16.0795Z" fill="#B9C8DE"/>
<path d="M94.6509 23.16V9.97859H99.5947V23.16H94.6509ZM97.1878 7.26523C96.4071 7.26523 95.7458 6.99764 95.2038 6.46247C94.6616 5.91658 94.3906 5.26901 94.3906 4.51976C94.3906 3.77052 94.6616 3.12294 95.2038 2.57707C95.7567 2.02048 96.418 1.74219 97.1878 1.74219C97.6974 1.74219 98.1635 1.87063 98.5863 2.12752C99.0093 2.3737 99.3507 2.70551 99.611 3.12294C99.8712 3.54039 100.001 4.00599 100.001 4.51976C100.001 5.26901 99.7248 5.91658 99.1719 6.46247C98.6189 6.99764 97.9576 7.26523 97.1878 7.26523Z" fill="#B9C8DE"/>
<path d="M10.756 5.44861C10.5565 5.55262 10.3409 5.35809 10.4343 5.15336C10.6413 4.69964 10.8934 4.27664 11.1779 3.87146C12.3359 2.22245 13.8319 1.01055 15.7606 0.375828C16.9402 -0.0123227 18.1474 -0.103056 19.3748 0.118729C21.2483 0.457303 22.7825 1.40896 24.1158 2.72705C25.3204 3.91801 26.3064 5.27947 27.1521 6.73674C29.1851 10.2394 31.2041 13.7503 33.1997 17.2742C34.1324 18.9209 34.9895 20.6099 35.6957 22.3696C35.9592 23.0264 36.2207 23.689 36.2972 24.3975C36.3442 24.8328 36.3557 25.2776 36.3261 25.7143C36.2576 26.7225 36.008 27.6906 35.526 28.5839C34.3958 30.6784 32.6824 32.0471 30.3511 32.5644C28.0088 33.0843 25.8763 32.561 23.9969 31.0754C23.1344 30.3936 22.4607 29.5282 21.8946 28.5959C21.2105 27.4692 20.5773 26.3109 19.9373 25.1579C18.8616 23.2195 17.7985 21.2739 16.7287 19.3325C16.2955 18.5461 15.8683 17.7563 15.4199 16.9788C15.0891 16.4052 14.6905 15.8793 14.1998 15.4274C13.273 14.574 12.2258 14.5116 11.2028 15.2477C10.5378 15.7264 10.0071 16.3357 9.55249 17.004C9.00294 17.8117 8.49691 18.6489 7.9736 19.4744C7.50901 20.207 7.03348 20.9333 6.58661 21.6768C6.06986 22.5363 5.61042 23.4254 5.36687 24.4087C5.24918 24.8839 5.21768 25.364 5.33149 25.8413C5.58449 26.9034 6.53733 27.4692 7.61328 27.2213C8.38394 27.0438 8.98342 26.597 9.52073 26.0474C10.0512 25.5046 10.4352 24.8569 10.8229 24.2123C11.3581 23.3221 11.8944 22.4325 12.4341 21.5449C12.5467 21.3599 12.8277 21.3866 12.9351 21.5747C12.9895 21.6701 13.0424 21.763 13.0948 21.8563C13.9057 23.2994 14.7149 24.7435 15.5288 26.1851C15.5832 26.2813 15.5868 26.3554 15.5393 26.454C15.0549 27.4617 14.4128 28.3692 13.758 29.2686C13.2993 29.8986 12.7925 30.484 12.1777 30.9704C11.1915 31.7503 10.078 32.2206 8.82977 32.3841C7.54521 32.5523 6.28356 32.4875 5.05331 32.0552C3.1061 31.3708 1.6831 30.093 0.767329 28.2499C0.181432 27.0701 -0.056668 25.813 0.0112485 24.5047C0.0737043 23.3005 0.395356 22.1569 0.982886 21.1022C2.05015 19.1865 3.11483 17.2686 4.22359 15.377C5.0421 13.9805 6.00533 12.6844 7.22671 11.602C8.37552 10.5839 9.68911 9.8964 11.2118 9.62721C11.956 9.49569 12.7056 9.44019 13.456 9.51172C14.7962 9.63935 15.9995 10.1246 17.0567 10.9645C18.1694 11.8484 19.0083 12.9623 19.7586 14.1529C20.7275 15.6905 21.5331 17.3147 22.3302 18.9443C23.1597 20.64 24.024 22.3175 25.0489 23.9057C25.6566 24.8471 26.3054 25.7587 27.1433 26.5164C27.6476 26.9726 28.2159 27.2979 28.909 27.3736C29.8931 27.4807 30.8562 26.8963 31.0382 25.7575C31.1585 25.005 30.9404 24.3098 30.6189 23.6548C30.21 22.8225 29.7648 22.0065 29.3018 21.2027C27.8624 18.704 26.5562 16.1354 25.2389 13.5721C24.3499 11.8419 23.3685 10.1653 22.1517 8.63841C21.223 7.47287 20.1764 6.43518 18.8765 5.68014C17.9459 5.13954 16.942 4.81195 15.8733 4.69043C15.3767 4.63387 14.8783 4.57548 14.3793 4.55976C13.0917 4.51894 11.8915 4.85713 10.756 5.44861Z" fill="#B9C8DE"/>
</svg>
