<svg width="634" height="210" viewBox="0 0 634 210" fill="none" xmlns="http://www.w3.org/2000/svg">
<path d="M327.083 147.242V133.752C326.467 135.105 324.891 137.066 322.357 139.635C319.892 142.205 316.604 144.538 312.494 146.634C308.385 148.662 303.59 149.677 298.111 149.677C289.892 149.677 282.7 147.716 276.536 143.794C270.372 139.804 265.577 134.496 262.153 127.869C258.728 121.175 257.016 113.771 257.016 105.657C257.016 97.5423 258.728 90.1718 262.153 83.5451C265.577 76.8509 270.372 71.509 276.536 67.5194C282.7 63.5299 289.892 61.5351 298.111 61.5351C303.385 61.5351 308.008 62.3804 311.981 64.0709C315.953 65.6937 319.172 67.6547 321.638 69.9537C324.104 72.1851 325.816 74.2475 326.775 76.1409V63.9694H357.802V147.242H327.083ZM287.632 105.657C287.632 109.443 288.522 112.858 290.303 115.901C292.084 118.876 294.447 121.209 297.392 122.899C300.405 124.59 303.727 125.435 307.357 125.435C311.125 125.435 314.446 124.59 317.323 122.899C320.2 121.209 322.46 118.876 324.104 115.901C325.816 112.858 326.672 109.443 326.672 105.657C326.672 101.87 325.816 98.4889 324.104 95.5137C322.46 92.4709 320.2 90.1042 317.323 88.4137C314.446 86.6556 311.125 85.7766 307.357 85.7766C303.727 85.7766 300.405 86.6556 297.392 88.4137C294.447 90.1042 292.084 92.4709 290.303 95.5137C288.522 98.4889 287.632 101.87 287.632 105.657Z" fill="#210080"/>
<path d="M398.579 147.242H367.244V7.67657H398.579V147.242Z" fill="#210080"/>
<path d="M433.305 112.148C433.511 115.123 434.469 117.76 436.182 120.059C437.894 122.358 440.257 124.184 443.271 125.537C446.353 126.821 449.983 127.464 454.161 127.464C458.133 127.464 461.695 127.058 464.846 126.247C468.065 125.435 470.839 124.421 473.168 123.204C475.565 121.987 477.414 120.736 478.715 119.451L490.839 138.519C489.126 140.345 486.695 142.137 483.544 143.895C480.462 145.586 476.387 146.972 471.318 148.054C466.25 149.136 459.846 149.677 452.106 149.677C442.791 149.677 434.504 147.952 427.243 144.504C419.983 141.055 414.264 135.984 410.086 129.289C405.908 122.595 403.819 114.413 403.819 104.744C403.819 96.6294 405.6 89.3266 409.162 82.8351C412.792 76.2761 418.031 71.1032 424.881 67.3166C431.73 63.4623 439.983 61.5351 449.64 61.5351C458.818 61.5351 466.764 63.1918 473.476 66.5051C480.256 69.8185 485.462 74.7547 489.092 81.3137C492.791 87.8052 494.64 95.9194 494.64 105.657C494.64 106.198 494.606 107.279 494.537 108.902C494.537 110.525 494.469 111.607 494.332 112.148H433.305ZM465.257 96.0209C465.188 93.857 464.606 91.727 463.51 89.6309C462.414 87.467 460.77 85.709 458.579 84.3566C456.387 82.9366 453.579 82.2266 450.154 82.2266C446.73 82.2266 443.819 82.9028 441.421 84.2551C439.093 85.5399 437.312 87.2304 436.079 89.3266C434.846 91.4228 434.161 93.6542 434.024 96.0209H465.257Z" fill="#210080"/>
<path d="M560.288 102.512L596.144 147.242H561.521L541.59 121.581L521.658 147.242H489.399L525.152 104.947L492.994 63.9694H527.925L543.542 85.3709L559.877 63.9694H591.521L560.288 102.512Z" fill="#210080"/>
<path d="M599.215 147.242V63.9694H630.447V147.242H599.215ZM615.242 46.828C610.31 46.828 606.132 45.1375 602.708 41.7566C599.283 38.308 597.571 34.217 597.571 29.4837C597.571 24.7504 599.283 20.6594 602.708 17.2109C606.201 13.6947 610.379 11.9366 615.242 11.9366C618.461 11.9366 621.406 12.748 624.077 14.3709C626.749 15.9261 628.906 18.0223 630.55 20.6594C632.194 23.2966 633.016 26.238 633.016 29.4837C633.016 34.217 631.269 38.308 627.776 41.7566C624.283 45.1375 620.105 46.828 615.242 46.828Z" fill="#210080"/>
<path d="M69.2239 35.3499C67.9632 36.007 66.6014 34.7781 67.1914 33.4847C68.4991 30.6184 70.0916 27.9461 71.8892 25.3864C79.2048 14.9689 88.6553 7.31287 100.84 3.30304C108.292 0.850931 115.918 0.277733 123.672 1.67884C135.508 3.81775 145.2 9.82974 153.623 18.1567C161.233 25.6805 167.462 34.2814 172.805 43.4876C185.648 65.6152 198.403 87.795 211.01 110.057C216.902 120.46 222.317 131.13 226.778 142.247C228.443 146.396 230.095 150.582 230.578 155.058C230.875 157.808 230.948 160.618 230.761 163.377C230.328 169.746 228.751 175.862 225.706 181.505C218.566 194.737 207.742 203.384 193.014 206.652C178.217 209.936 164.745 206.63 152.872 197.245C147.423 192.938 143.167 187.471 139.591 181.581C135.269 174.463 131.269 167.146 127.226 159.862C120.43 147.616 113.714 135.325 106.956 123.06C104.219 118.092 101.52 113.103 98.6877 108.191C96.5974 104.567 94.0795 101.245 90.9796 98.3904C85.1246 92.9987 78.5089 92.6046 72.0464 97.2547C67.8452 100.279 64.4928 104.128 61.6206 108.35C58.1489 113.453 54.9521 118.742 51.6461 123.957C48.7111 128.585 45.707 133.173 42.8839 137.87C39.6194 143.3 36.7169 148.917 35.1783 155.129C34.4348 158.131 34.2358 161.164 34.9548 164.179C36.5531 170.889 42.5726 174.463 49.3698 172.897C54.2384 171.776 58.0256 168.953 61.42 165.481C64.7713 162.052 67.1973 157.96 69.6461 153.888C73.0275 148.264 76.4154 142.644 79.825 137.037V137.037C80.536 135.868 82.3112 136.037 82.9898 137.225C83.3339 137.828 83.6679 138.415 83.9989 139.004C89.1217 148.121 94.2338 157.244 99.3756 166.351C99.7191 166.959 99.742 167.427 99.4419 168.05C96.3815 174.416 92.3255 180.149 88.1884 185.831C85.2907 189.811 82.0892 193.509 78.2053 196.582C71.9751 201.509 64.9403 204.48 57.0549 205.513C48.9398 206.575 40.9694 206.166 33.1974 203.435C20.8961 199.111 11.9064 191.039 6.12108 179.395C2.41972 171.942 0.915543 164 1.3446 155.735C1.73916 148.128 3.77117 140.903 7.48284 134.24C14.2252 122.138 20.9512 110.022 27.9557 98.0716C33.1266 89.2496 39.2117 81.0617 46.9277 74.2234C54.1852 67.7914 62.4837 63.4485 72.103 61.7479C76.8046 60.917 81.54 60.5664 86.281 61.0183C94.7472 61.8246 102.349 64.8901 109.028 70.1963C116.057 75.7802 121.357 82.8169 126.097 90.3386C132.218 100.052 137.307 110.313 142.343 120.608C147.583 131.32 153.043 141.918 159.518 151.951C163.357 157.898 167.456 163.657 172.749 168.444C175.935 171.326 179.525 173.381 183.904 173.859C190.121 174.536 196.205 170.844 197.355 163.65C198.115 158.896 196.737 154.504 194.706 150.366C192.123 145.108 189.31 139.953 186.385 134.875C177.292 119.09 169.04 102.863 160.718 86.6696C155.102 75.7391 148.902 65.1472 141.215 55.5012C135.348 48.138 128.736 41.5825 120.524 36.8126C114.645 33.3974 108.303 31.3279 101.552 30.5602C98.4146 30.2029 95.2661 29.834 92.1134 29.7347C83.9794 29.4768 76.3973 31.6133 69.2239 35.3499V35.3499Z" fill="#5133EA"/>
</svg>
