<?xml version="1.0" encoding="utf-8"?>
<!-- Generator: Adobe Illustrator 29.7.1, SVG Export Plug-In . SVG Version: 9.03 Build 0)  -->
<svg version="1.0" id="Layer_1" xmlns="http://www.w3.org/2000/svg" xmlns:xlink="http://www.w3.org/1999/xlink" x="0px" y="0px"
	 viewBox="0 0 682 156" style="enable-background:new 0 0 682 156;" xml:space="preserve">
<style type="text/css">
	.st0{fill:#B9C8DE;}
</style>
<g transform="translate(0.000000,156.000000) scale(0.100000,-0.100000)">
	<path class="st0" d="M332,1549c-149-19-254-102-307-244c-18-46-20-89-23-489c-2-287,1-463,8-509C41,107,153,5,340,6
		c89,0,167,29,205,78l25,31V68V20h120h121l-3,623l-3,622l-26,62c-14,33-37,74-50,90C644,1521,496,1570,332,1549z M487,1300
		c69-41,68-36,68-520c0-421-1-436-21-470c-32-56-80-83-137-77c-59,5-95,30-122,83c-19,37-20,59-20,464c0,422,0,425,23,467
		c12,23,34,49,50,57C367,1326,448,1324,487,1300z"/>
	<path class="st0" d="M1273,1549c-136-17-241-101-285-227l-23-67V640V25l122-3l122-3l3,598c3,533,5,602,20,635c21,47,61,73,114,73
		c52,0,85-18,110-58c18-30,19-63,24-637l5-605l123-3l122-3v615c0,588-1,617-20,679C1656,1487,1489,1578,1273,1549z"/>
	<path class="st0" d="M2185,1549c-87-13-178-60-220-116c-60-79-79-142-79-273c0-200,34-253,320-481c188-150,204-172,204-271
		c0-111-56-178-149-178c-100,0-150,68-151,203v77h-130h-130v-57c0-204,79-355,217-414c176-75,404-32,510,98c106,131,113,373,14,516
		c-35,51-84,96-280,254c-74,59-144,121-155,136c-30,41-35,150-8,210c51,115,196,96,231-30c6-21,11-71,11-110v-73h126h126l-4,118
		c-4,90-10,131-28,176c-26,67-94,148-150,176C2387,1547,2280,1563,2185,1549z"/>
	<path class="st0" d="M4564,1550c-180-26-287-122-324-290c-8-39-11-185-8-515c3-453,3-461,26-517c65-160,249-251,448-220
		c99,16,152,40,214,98c81,76,120,184,120,336v68h-124h-123l-5-83c-7-127-50-186-145-194c-102-9-158,57-158,187c0,62,4,80,23,107
		c13,18,98,86,190,151c277,197,334,276,336,462c2,162-49,275-158,348C4797,1540,4672,1566,4564,1550z M4718,1300
		c77-47,96-193,34-269c-16-20-84-75-151-123l-121-88v178c0,200,8,242,55,289c30,30,39,33,92,33C4668,1320,4695,1314,4718,1300z"/>
	<path class="st0" d="M5494,1550c-180-26-287-122-324-290c-8-40-11-187-8-525c3-468,3-470,27-529c27-67,88-139,141-166
		c40-20,126-40,174-40c57,0,136,30,176,66l39,35l3-38l3-38h120h120l3,565c3,598-1,666-42,756C5857,1497,5686,1578,5494,1550z
		 M5641,1303c16-10,38-36,49-58c19-39,20-63,20-471c0-426,0-429-23-469c-56-99-199-99-251,1c-20,38-21,55-21,474c0,484-1,479,68,520
		C5524,1325,5601,1326,5641,1303z"/>
	<path class="st0" d="M6505,1550c-206-22-325-123-370-312c-12-52-15-166-15-641V19l123,3l122,3l5,565c4,427,8,572,18,594
		c40,90,114,136,220,136h62v114v114l-31,6C6605,1561,6606,1561,6505,1550z"/>
	<path class="st0" d="M2782,913l4-618l23-65c18-47,39-79,80-121c76-77,142-102,271-103c84-1,101,2,150,26c30,15,70,43,89,62l33,34
		l34-38c55-61,121-85,234-84c130,1,195,26,272,104c45,46,61,72,80,126c23,69,23,72,26,682l3,612h-131h-130V935c0-657,1-646-62-685
		c-42-25-94-25-136,0c-63,39-62,28-62,685v595h-130h-130V938c0-561-1-595-19-635c-25-53-68-77-128-70c-50,5-79,27-102,77
		c-14,31-16,108-19,628l-3,592h-125h-125L2782,913z"/>
	<path class="st0" d="M6602,283c-52-25-77-69-77-133c0-70,28-112,90-135c57-22,104-14,150,26C6892,153,6754,358,6602,283z"/>
</g>
</svg>
