<svg width="420" height="64" viewBox="0 0 420 64" fill="none" xmlns="http://www.w3.org/2000/svg">
<path fill-rule="evenodd" clip-rule="evenodd" d="M62.4824 2L97.0304 61.8743H79.0773L49.5152 10.6379L19.9511 61.8743H2L36.546 2H44.5313H54.4991H62.4824ZM82.4758 2.00008L117.022 61.8744H125.007H134.973H142.958L177.504 2.00008H159.553L129.991 53.2365L100.427 2.00008H82.4758ZM223.436 2.00008L257.984 61.8744H240.031L210.469 10.6379L180.904 61.8744H162.953L197.499 2.00008H205.485H215.452H223.436ZM268.48 2.00008L255.96 23.7005L277.987 61.8744H295.939L270.373 17.5674H329.188L338.171 2.00008H268.48ZM418.585 61.8744L384.037 2.00008H376.053H366.086H358.102L323.554 61.8744H341.505L371.069 10.6379L400.634 61.8744H418.585Z" fill="white" style="fill:white;fill:white;fill-opacity:1;"/>
</svg>
