<svg width="197" height="29" viewBox="0 0 197 29" fill="none" xmlns="http://www.w3.org/2000/svg">
<path fill-rule="evenodd" clip-rule="evenodd" d="M29.3066 0L45.5113 28.0661H37.0904L23.2244 4.04902L9.35742 28.0661H0.9375L17.1412 0H20.8867H25.5621H29.3066ZM38.6845 3.75509e-05L54.8883 28.0661H58.6336H63.3082H67.0535L83.2572 3.75509e-05H74.8374L60.9714 24.0171L47.1044 3.75509e-05H38.6845ZM104.802 3.75509e-05L121.006 28.0661H112.585L98.7194 4.04902L84.852 28.0661H76.4321L92.6358 3.75509e-05H96.3817H101.057H104.802ZM125.929 3.75509e-05L120.057 10.1721L130.389 28.0661H138.809L126.817 7.29722H154.404L158.618 3.75509e-05H125.929ZM196.336 28.0661L180.131 3.75509e-05H176.386H171.711H167.966L151.762 28.0661H160.182L174.048 4.04902L187.916 28.0661H196.336Z" fill="#B9C8DE"/>
</svg>
