<?xml version="1.0" encoding="UTF-8"?>
<svg id="svg3769" xmlns="http://www.w3.org/2000/svg" xmlns:x="ns_extend;" xmlns:svg="http://www.w3.org/2000/svg" xmlns:sodipodi="http://sodipodi.sourceforge.net/DTD/sodipodi-0.dtd" xmlns:rdf="http://www.w3.org/1999/02/22-rdf-syntax-ns#" xmlns:inkscape="http://www.inkscape.org/namespaces/inkscape" xmlns:dc="http://purl.org/dc/elements/1.1/" xmlns:cc="http://creativecommons.org/ns#" version="1.1" viewBox="0 0 304.1 50.4">
  <!-- Generator: Adobe Illustrator 30.1.0, SVG Export Plug-In . SVG Version: 2.1.1 Build 136)  -->
  <defs>
    <style>
      .st0 {
        fill: #b9c8de;
      }
    </style>
  </defs>
  <sodipodi:namedview id="base" bordercolor="#666666" borderopacity="1.0" fit-margin-bottom="0" fit-margin-left="0" fit-margin-right="0" fit-margin-top="0" inkscape:current-layer="layer1" inkscape:cx="59.04975" inkscape:cy="9.8114313" inkscape:document-units="px" inkscape:pageopacity="0.0" inkscape:pageshadow="2" inkscape:window-height="744" inkscape:window-maximized="1" inkscape:window-width="1280" inkscape:window-x="-4" inkscape:window-y="-4" inkscape:zoom="7.6630299" pagecolor="#ffffff" showgrid="false" units="px"/>
  <g id="layer1" inkscape:groupmode="layer" inkscape:label="Layer 1">
    <g id="g3358">
      <g id="g3360">
        <g id="g3366">
          <path id="path3372" class="st0" d="M119.4,4.6c0-2.6,2.1-4.6,4.6-4.6s4.6,2.1,4.6,4.6-2.1,4.6-4.6,4.6-4.6-2.1-4.6-4.6" inkscape:connector-curvature="0"/>
          <path id="path3374" class="st0" d="M192.4,35.3c0-2.6,2.1-4.6,4.6-4.6s4.6,2.1,4.6,4.6-2.1,4.6-4.6,4.6-4.6-2-4.6-4.6" inkscape:connector-curvature="0"/>
          <path id="path3376" class="st0" d="M43.5,33.3c-4,0-6.8-3.1-6.8-7.6s2.8-7.6,6.8-7.6,6.8,3.1,6.8,7.6-2.8,7.6-6.8,7.6ZM43.5,11.2c-8.4,0-14.5,6.1-14.5,14.4s6.1,14.4,14.5,14.4,14.6-6.1,14.6-14.4-6.2-14.4-14.6-14.4" inkscape:connector-curvature="0"/>
          <path id="path3378" class="st0" d="M110.4,26.4c-.4-.6-.7-1.1-1.1-1.5l-.3-.2.3-.2c.4-.4.7-.9,1.1-1.5l7.4-11h-9l-5.6,8.6c-.4.5-1,.8-1.9.8h-1.2V4.9c0-3.3-2-3.8-4.3-3.8h-3.8v38.6h8v-11.6h.7c.9,0,1.5.1,1.9.6l4.4,8.4c1.2,2.2,2.5,2.6,4.7,2.6h6.1l-4.6-7.5-2.9-5.9" inkscape:connector-curvature="0"/>
          <path id="path3380" class="st0" d="M149.3,11.2c-4.1,0-6.6,1.7-8.1,3.4l-.5.5v-.6c-.5-1.6-2-2.5-4.1-2.5h-3.6v27.9h8v-13c0-1.2.1-2.4.5-3.4.9-3,3.4-4.9,6.4-4.9s3.5,1.2,3.5,4.8v12.1c0,2.9,1.4,4.3,4.3,4.3h3.8v-17.7c-.1-7-3.5-10.8-10-10.8" inkscape:connector-curvature="0"/>
          <path id="path3382" class="st0" d="M124.1,11.8h-3.8v21.5h0v6.4h7.9v-23.6c0-2.9-1.4-4.2-4.1-4.2" inkscape:connector-curvature="0"/>
          <path id="path3384" class="st0" d="M74.6,33.3c-4,0-6.8-3.1-6.8-7.6s2.8-7.6,6.8-7.6,6.8,3.1,6.8,7.6c.1,4.6-2.6,7.6-6.8,7.6ZM74.6,11.2c-8.4,0-14.5,6.1-14.5,14.4s6.1,14.5,14.5,14.5,14.6-6.1,14.6-14.4-6.1-14.5-14.6-14.5" inkscape:connector-curvature="0"/>
        </g>
      </g>
    </g>
    <g id="g3386">
      <g id="g3388">
        <g id="g3394">
          <g id="g3400">
            <path id="path3406" class="st0" d="M245,33.3c-4,0-6.8-3.1-6.8-7.6s2.8-7.6,6.8-7.6,6.8,3.1,6.8,7.6-2.8,7.6-6.8,7.6ZM245,11.2c-8.4,0-14.5,6.1-14.5,14.4s6.1,14.4,14.5,14.4c8.4.1,14.6-5.9,14.6-14.3s-6.2-14.5-14.6-14.5" inkscape:connector-curvature="0"/>
            <path id="path3408" class="st0" d="M175.9,32.2c-4.4,0-5.9-3.8-5.9-7.4s.4-6.6,5.5-6.6,5.9.8,5.9,6.9-3,7.1-5.5,7.1ZM185.5,11.7c-1.5,0-2.6.6-3.2,1.7l-.3.4-.4-.4c-1.2-1.1-3.6-2.4-7.4-2.4-7.4,0-12.4,5.6-12.4,13.9s5.1,14.1,12.6,14.1,4.5-.6,6.1-1.7l.6-.5v.8c0,3.8-2.4,5.8-6.8,5.8s-4-.5-5.4-1c-1.6-.5-2.6-.1-3.4,1.6l-.6,1.5-.9,2.3.5.2c2.8,1.5,6.4,2.4,9.7,2.4,6.8,0,14.6-3.5,14.6-13.3V11.4l-3.6.3" inkscape:connector-curvature="0"/>
          </g>
        </g>
      </g>
    </g>
    <g id="g3410">
      <g id="g3412">
        <g id="g3418">
          <path id="path3424" class="st0" d="M13.9,33.1h-6.5v-7.8c0-1.6.6-2.5,2-2.7h4.4c3.1,0,5.1,2,5.1,5.2.1,3.3-1.7,5.3-5,5.3h0ZM7.4,12.2v-2c0-1.7.7-2.6,2.4-2.8h3.2c2.9,0,4.5,1.7,4.5,4.5s-1.1,4.8-4.4,4.8h-5.9v-4.5h.1ZM22.1,19.9l-1.1-.6,1-.9c1.1-1,3.1-3.4,3.1-7.3,0-6.1-4.7-10-12-10H3.9C1.8,1.3,0,3.1,0,5.2v34.4h13.4c8.1,0,13.4-4.4,13.4-11.2-.1-3.6-1.8-6.9-4.6-8.4" inkscape:connector-curvature="0"/>
          <path id="path3426" class="st0" d="M295,11.3c-3.2,0-6.5,1.5-8.5,4.1l-.6.8-.5-.9c-1.5-2.6-4-4-7.5-4s-6.1,2-7.4,3.3l-.7.9-.3-1.1c-.4-1.5-1.8-2.4-3.9-2.4h-3.4v27.7h7.6v-12.3c0-1.1.1-2.1.4-3.2.7-3,2.8-6.1,6-5.9,2.1.2,3.1,1.7,3.1,4.9v16.5h7.6v-12.3c0-1.4.1-2.4.4-3.4.6-2.9,2.8-5.8,5.9-5.8s3.2,1.4,3.2,4.9v12.4c0,2.8,1.2,4,4,4h3.6v-17.7c.1-7-2.9-10.5-9.1-10.5" inkscape:connector-curvature="0"/>
          <path id="path3428" class="st0" d="M226,30.1s-3.2,3.5-7.6,3.5-7.9-2.4-7.9-7.7,3.1-7.9,7.5-7.9,3,.5,3.2,1.4h0c.6,2.1,2.4,2.1,2.8,2.1h4.1v-3.6c0-4.7-6.1-6.5-10.3-6.5-8.8,0-15.1,6.1-15.1,14.5s6.2,14.5,15,14.5,11.6-5,11.6-5l.3-.2-3.2-5.5-.4.5" inkscape:connector-curvature="0"/>
        </g>
      </g>
    </g>
  </g>
</svg>