<?xml version="1.0" encoding="UTF-8"?>
<svg id="Ebene_1" xmlns="http://www.w3.org/2000/svg" version="1.1" viewBox="0 0 433 97">
  <!-- Generator: Adobe Illustrator 30.1.0, SVG Export Plug-In . SVG Version: 2.1.1 Build 136)  -->
  <defs>
    <style>
      .st0, .st1 {
        fill: #b9c8de;
      }

      .st1 {
        fill-rule: evenodd;
      }
    </style>
  </defs>
  <g id="logotype">
    <path id="logotype-b-47" class="st1" d="M185.2,46.9c5.4-2.1,8.9-7.3,8.8-13,0-11.7-8.3-17.5-19.7-17.5h-29.9v63.6h32.5c10,0,19.8-7,19.8-17.7s-11.5-15.3-11.5-15.4ZM160,29.6h11.6c3.1-.2,5.8,2.2,6,5.3,0,0,0,0,0,0,0,.2,0,.5,0,.7,0,3.3-2.7,5.8-6,5.8h-11.7v-11.8ZM171.7,66.7h-11.6v-12.5h11.3c5.7,0,8.4,2.5,8.4,6.2s-3.4,6.3-8.1,6.3Z"/>
    <path id="logotype-o-47" class="st1" d="M231.1,14.8c-18.4,0-29.2,14.7-29.2,33.3s10.8,33.3,29.2,33.3,29.2-14.6,29.2-33.3-10.7-33.3-29.2-33.3ZM231.1,66.2c-9,0-13.5-8.1-13.5-18.1s4.5-18,13.5-18,13.6,8.1,13.6,18c0,10.1-4.6,18.1-13.6,18.1Z"/>
    <path id="logotype-s-47" class="st1" d="M294.2,41.4l-2.2-.5c-5.4-1.1-9.7-2.5-9.7-6.4s4.1-5.9,7.7-5.9c5,0,9.7,2.2,13,5.9l9.9-9.8c-4.5-5.1-11.8-10-23.2-10s-23.6,7.5-23.6,20,8.2,17,18.2,19.1l2.2.5c8.3,1.7,11.4,3,11.4,7s-3.4,6.3-8.6,6.3-11.8-2.7-16.1-8.2l-10.1,10c5.6,6.7,12.7,11.9,26.4,11.9s24.6-6.8,24.6-20.7c.2-14.5-10.8-17.3-19.9-19.2Z"/>
    <path id="logotype-c-47" class="st1" d="M349.7,66.2c-7,0-14.3-5.8-14.3-18.5s6.8-17.6,13.9-17.6,8.9,2.6,11.5,7.1l12.8-8.5c-6.4-9.7-14-13.8-24.5-13.8-19.2,0-29.6,14.9-29.6,32.9s11.5,33.7,29.4,33.7,18.6-4.4,25.1-13.8l-12.9-8.7c-2.6,4.2-5.4,7.2-11.4,7.2Z"/>
    <polygon id="logotype-h-47" class="st1" points="416.3 16.4 416.3 39.8 397 39.8 397 16.4 380.3 16.4 380.3 80 397 80 397 54.9 416.3 54.9 416.3 80 433 80 433 16.4 416.3 16.4"/>
  </g>
  <g id="symbol">
    <path class="st0" d="M48.2.2C21.6.2,0,21.8,0,48.4s21.6,48.2,48.2,48.2,48.2-21.6,48.2-48.2S74.8.2,48.2.2s0,0,0,0ZM48.2,92.1c-24.1,0-43.7-19.6-43.7-43.7S24.1,4.7,48.2,4.7s43.7,19.6,43.7,43.7c0,24.1-19.6,43.7-43.7,43.7Z"/>
    <path class="st0" d="M68.1,18.3h-3.3v16.5H31.7v-16.5h-3.4c-16.6,11-21.2,33.3-10.2,50,2.7,4.1,6.2,7.6,10.2,10.2h3.4v-16.5h33.1v16.5h3.3c16.6-11,21.2-33.3,10.3-49.9-2.7-4.1-6.2-7.6-10.3-10.3h0ZM27.1,72c-13-11.6-14.2-31.6-2.6-44.6,0,0,0,0,0,0,.8-.9,1.7-1.8,2.6-2.6v47.2ZM64.8,57.4H31.7v-18.1h33.1v18.1ZM69.3,71.9v-10h0v-27.1h0v-10c13,11.7,14.1,31.7,2.4,44.7,0,0,0,0,0,0-.8.8-1.6,1.6-2.4,2.4h0Z"/>
  </g>
</svg>