<svg width="87" height="41" viewBox="0 0 87 41" fill="none" xmlns="http://www.w3.org/2000/svg">
<path d="M82.5488 23.4378C82.6052 23.4943 82.6052 23.4943 82.6616 23.4943H85.0878C85.2007 23.4943 85.3135 23.4943 85.4264 23.4943C85.7085 23.4378 85.9906 23.2686 86.0471 22.9865C86.1599 22.7608 86.2163 22.5351 86.2728 22.2529C86.2728 22.1965 86.2728 22.0837 86.3292 22.0837C86.442 22.0837 86.5549 22.0837 86.6677 22.0837C86.7242 22.0837 86.7241 22.1401 86.7241 22.1401V22.2529C86.6677 22.93 86.6677 23.6635 86.6113 24.3406C86.6113 24.6792 86.6113 24.6228 86.3292 24.6228H81.8152C81.5331 24.6228 81.5895 24.6228 81.5331 24.3971C81.5331 24.2278 81.5331 24.0021 81.646 23.8328C82.2102 22.6479 83.0001 21.6323 83.9029 20.6731C84.1851 20.3909 84.4672 20.1088 84.7493 19.7703C85.0314 19.4317 85.2571 19.0368 85.3135 18.5289C85.37 18.1904 85.3135 17.7954 85.2007 17.4569C85.0314 17.0055 84.6365 16.7234 84.1286 16.7234C83.6772 16.6669 83.2258 16.8362 82.8873 17.1183C82.718 17.2312 82.6052 17.4569 82.5488 17.6261C82.4923 17.7954 82.5488 17.8518 82.718 17.8518C83.3951 17.8518 83.6772 18.5854 83.4515 19.0368C83.2258 19.5446 82.6052 19.7138 82.1538 19.3189C81.9281 19.1496 81.7588 18.8675 81.7588 18.5854C81.7024 17.7954 81.9845 17.1747 82.6052 16.6669C83.2258 16.1591 83.9594 16.0463 84.6929 16.1027C84.975 16.1591 85.2571 16.2155 85.5392 16.3284C87.0063 16.9491 87.0063 18.5854 86.442 19.4317C86.2163 19.7703 85.9342 20.0524 85.6521 20.2781C85.3135 20.5602 84.975 20.8423 84.6365 21.068C84.0158 21.5194 83.4515 22.0272 83.0001 22.5915C82.8309 22.9865 82.718 23.2121 82.5488 23.4378ZM65.2829 20.2217C65.3393 20.1652 65.3958 20.1088 65.3958 19.996C65.565 19.601 65.8472 19.2624 66.1857 18.9803C66.6935 18.5289 67.2578 18.4725 67.9349 18.6418C68.3863 18.7546 68.7248 19.0368 68.8941 19.4881C69.0069 19.8267 69.0633 20.1652 69.0633 20.5038V23.325C69.0633 23.4378 69.0633 23.5507 69.0633 23.6635C69.1198 23.8892 69.1762 24.0021 69.4019 24.0021C69.4583 24.0021 69.4583 24.0021 69.5147 24.0021C69.7969 24.0021 69.7969 24.0021 69.7969 24.2842C69.7969 24.6228 69.8533 24.5663 69.5147 24.5663H67.2013C67.0321 24.5663 66.9757 24.5663 67.0321 24.3406C67.0321 24.2278 66.9757 24.0585 67.0321 24.0021C67.0885 23.8892 67.2578 24.0021 67.3706 23.9457C67.427 23.9457 67.5399 23.9457 67.5963 23.8892C67.7656 23.8892 67.8784 23.7764 67.8784 23.6071C67.8784 23.4943 67.8784 23.3814 67.8784 23.2686V20.3909C67.8784 20.2217 67.8784 20.0524 67.822 19.8831C67.7092 19.3189 67.2013 19.0932 66.6935 19.2624C66.4678 19.3189 66.2986 19.4881 66.1857 19.601C65.8472 19.996 65.6215 20.4474 65.5086 20.9552C65.4522 21.2373 65.3958 21.463 65.3958 21.7451V23.1557C65.3958 23.2686 65.3958 23.325 65.3958 23.4378C65.4522 23.6635 65.5086 23.7764 65.7907 23.8328C65.9036 23.8328 66.0164 23.8328 66.1857 23.8328C66.2421 23.8328 66.2986 23.8328 66.2986 23.9457C66.355 24.3971 66.355 24.3971 65.8472 24.3971H63.5902C63.4209 24.3971 63.4209 24.3971 63.4209 24.2278C63.4209 24.1149 63.3645 23.9457 63.4209 23.8892C63.4773 23.7764 63.6466 23.8892 63.7595 23.8328C64.098 23.8328 64.2109 23.6635 64.2109 23.3814C64.2109 23.325 64.2109 23.2121 64.2109 23.1557V19.8267C64.2109 19.7138 64.2109 19.601 64.2109 19.4881C64.2109 19.2624 64.098 19.1496 63.8723 19.1496C63.7595 19.1496 63.6466 19.1496 63.5338 19.1496C63.4773 19.1496 63.4209 19.0932 63.4209 19.0368C63.4209 18.9239 63.4209 18.8111 63.4209 18.6982C63.4209 18.5854 63.4773 18.5854 63.5338 18.5854C63.7595 18.5854 64.0416 18.5289 64.2673 18.5289C64.6058 18.5289 64.8879 18.4725 65.2265 18.4725C65.3958 18.4725 65.3958 18.4725 65.3958 18.6418C65.3393 19.0932 65.3393 19.5446 65.2829 19.9395C65.2829 20.1088 65.2829 20.1652 65.2829 20.2217ZM58.117 19.3189C57.6092 18.7546 56.9321 18.4725 56.1986 18.4725C55.5215 18.4725 54.9573 18.7546 54.4495 19.2624C53.2081 20.5038 53.0953 22.6479 54.2238 23.9457C55.2394 25.1306 56.9321 25.187 58.0606 24.0585C59.3019 22.8172 59.3019 20.6166 58.117 19.3189ZM57.4399 23.2686C57.3835 23.4943 57.2707 23.72 57.1014 23.8892C56.8757 24.1149 56.5936 24.2842 56.255 24.2842C55.9165 24.2842 55.6344 24.1714 55.4087 23.9457C55.1265 23.6071 54.9573 23.2686 54.8444 22.8172C54.6752 21.9708 54.6752 21.1244 54.9009 20.2781C54.9573 20.0524 55.0701 19.8267 55.183 19.601C55.6344 18.8111 56.5936 18.8111 57.1578 19.5446C57.3835 19.8831 57.4964 20.2217 57.5528 20.6166C57.6092 20.9552 57.6656 21.2937 57.6656 21.6887C57.6656 22.2529 57.6092 22.7608 57.4399 23.2686ZM80.5175 17.5133H78.0912C77.922 17.5133 77.7527 17.5133 77.5834 17.5697C77.2449 17.6261 76.9063 17.8518 76.7935 18.1904C76.6806 18.4725 76.5678 18.7546 76.5114 19.0932C76.5114 19.1496 76.5114 19.2624 76.4549 19.3189C76.3421 19.3753 76.2292 19.3753 76.1164 19.3189C76.06 19.3189 76.06 19.2624 76.06 19.206C76.06 18.9803 76.1164 18.7546 76.1164 18.4725C76.1728 17.8518 76.2292 17.1747 76.2857 16.5541C76.2857 16.3848 76.2857 16.3848 76.4549 16.3848H81.3074C81.4767 16.3848 81.4767 16.3848 81.4767 16.5541C81.5331 16.9491 81.4203 17.2876 81.1946 17.6261C80.6303 18.3597 80.1789 19.0932 79.8404 19.9395C79.4454 20.7859 79.2197 21.6887 79.2197 22.5915C79.2197 22.8736 79.2761 23.1557 79.2761 23.4378C79.2761 23.6635 79.3326 23.8892 79.2761 24.1149C79.2761 24.2278 79.2197 24.3406 79.1633 24.5099C79.1069 24.7356 78.8812 24.8485 78.6555 24.9049C78.4298 24.9613 78.2041 24.8485 78.0348 24.6228C77.922 24.4535 77.8655 24.1714 77.8091 23.9457C77.7527 23.325 77.8655 22.7043 78.0912 22.0837C78.3734 21.1245 78.8247 20.2217 79.389 19.3189C79.6711 18.8111 80.0097 18.3032 80.3482 17.7954C80.4046 17.6826 80.4046 17.6261 80.5175 17.5133ZM70.9253 21.4066V19.5446C70.9253 19.3753 70.9254 19.3753 70.7561 19.3753H70.1918C70.0226 19.3753 70.0226 19.3753 70.0226 19.1496V19.0932C70.0226 18.9239 69.9661 18.8675 70.2483 18.8111C70.6997 18.6982 71.0946 18.3032 71.2639 17.8518C71.3767 17.5133 71.4896 17.1183 71.546 16.7234C71.546 16.6105 71.6024 16.4977 71.6024 16.3848C71.6024 16.3284 71.6589 16.272 71.7153 16.272C72.1667 16.2155 72.1667 16.2155 72.1667 16.6669V18.4161C72.1667 18.6982 72.1667 18.6982 72.4488 18.6982H73.7466C73.9158 18.6982 73.9158 18.6982 73.9158 18.8675C73.9158 18.9803 73.9158 19.0368 73.9158 19.1496C73.9158 19.2624 73.8594 19.3189 73.7466 19.3189H72.336C72.1103 19.3189 72.1103 19.3189 72.1103 19.5446V22.93C72.1103 23.0993 72.1103 23.325 72.1667 23.4943C72.2231 23.8328 72.4488 24.0021 72.6745 24.0585C72.9566 24.1149 73.2952 23.9457 73.408 23.6635C73.5773 23.3814 73.6337 23.0993 73.6337 22.7608C73.6901 22.5351 73.6901 22.5351 73.9158 22.5351C74.198 22.5351 74.198 22.4786 74.198 22.8172C74.198 23.1557 74.0851 23.4943 73.9723 23.8328C73.5773 24.7356 72.6181 25.1306 71.7153 24.6792C71.2639 24.4535 71.0946 24.0585 70.9818 23.6071C70.9254 23.4378 70.9253 23.2686 70.9253 23.0993C70.9253 22.5351 70.9253 21.9708 70.9253 21.4066ZM61.6718 21.1809V23.4378C61.6718 23.5507 61.6718 23.6071 61.6718 23.72C61.7282 23.9457 61.7846 24.0585 62.0103 24.0585C62.0667 24.0585 62.1796 24.0585 62.236 24.0585C62.4053 24.0585 62.4053 24.0585 62.4053 24.2278V24.4535C62.4053 24.6228 62.4053 24.6228 62.1796 24.6228H60.0355C59.9226 24.6228 59.7533 24.6792 59.6969 24.5663C59.6405 24.4535 59.6969 24.2278 59.6969 24.0585C59.6969 24.0021 59.7533 24.0021 59.8098 24.0021C59.9226 24.0021 60.0355 24.0021 60.1483 24.0021C60.3176 24.0021 60.4869 23.8328 60.4869 23.6635C60.4869 23.5507 60.4869 23.4943 60.4869 23.3814V19.8831C60.4869 19.7703 60.4869 19.7138 60.4869 19.601C60.4304 19.3753 60.3176 19.2624 60.0919 19.2624C59.979 19.2624 59.8098 19.2624 59.6969 19.2624C59.5841 19.2624 59.5841 19.206 59.5841 19.1496C59.5841 19.0368 59.5841 18.9803 59.5841 18.9239C59.5841 18.6982 59.5841 18.6982 59.8098 18.6418L61.5025 18.5854C61.6718 18.5854 61.6718 18.5854 61.6718 18.7546V20.9552V21.1809ZM60.0355 16.6105C60.0355 16.1027 60.4304 15.7077 60.9382 15.7077C61.4461 15.7077 61.841 16.1027 61.841 16.6105C61.841 17.1183 61.4461 17.5133 60.9382 17.5133C60.4304 17.4569 60.0355 17.0619 60.0355 16.6105ZM52.4182 16.4412C52.2489 16.3284 52.0796 16.272 51.8539 16.1591C51.2333 15.9334 50.6126 15.877 49.9919 15.877C49.4277 15.877 48.8635 15.877 48.3556 15.877H46.5501C46.1551 15.877 46.1551 15.877 46.1551 16.272C46.1551 16.4412 46.1551 16.4412 46.3244 16.4412C46.5501 16.4412 46.7193 16.4412 46.945 16.4977C47.1707 16.5541 47.34 16.6669 47.34 16.8926C47.34 16.9491 47.34 17.0055 47.34 17.1183V23.4943C47.34 23.6071 47.34 23.6635 47.2836 23.7764C47.2271 23.9457 47.1143 24.0585 46.945 24.1149C46.7758 24.1714 46.6065 24.1714 46.4936 24.1714C46.0422 24.1714 46.0422 24.1714 46.0422 24.6228C46.0422 24.6792 46.0987 24.7356 46.1551 24.7356H50.0484C50.1048 24.7356 50.1048 24.7356 50.1048 24.6792C50.1048 24.5099 50.1612 24.3406 50.1048 24.1714C50.0484 24.0585 49.8791 24.1149 49.7662 24.1149C49.597 24.1149 49.4841 24.1149 49.3148 24.1149C49.202 24.1149 49.1456 24.1149 49.0327 24.0585C48.8635 24.0021 48.7506 23.8892 48.6942 23.72C48.6942 23.6635 48.6942 23.6071 48.6942 23.4943V21.0116C48.6942 20.8988 48.7506 20.8423 48.8635 20.8423C49.202 20.8423 49.4841 20.8423 49.8227 20.8423C50.3305 20.8423 50.8947 20.7859 51.4025 20.6166C51.9104 20.5038 52.4182 20.2217 52.8132 19.8831C53.7159 19.0368 53.7159 17.2312 52.4182 16.4412ZM51.9104 18.9803C51.7411 19.7138 51.2333 20.0524 50.5562 20.2217C50.2741 20.2781 49.9919 20.2781 49.6534 20.2781H48.8635C48.6942 20.2781 48.6942 20.2781 48.6942 20.1088V17.1747C48.6942 16.6669 48.8635 16.4977 49.3713 16.4977C49.7662 16.4977 50.2176 16.4977 50.6126 16.5541C51.4025 16.7234 51.7975 17.1747 51.9104 17.9647C51.9668 18.3032 51.9668 18.6418 51.9104 18.9803Z" fill="#B9C8DE"/>
<path d="M32.6133 26.9925C32.6133 27.5003 32.2183 27.9517 31.654 27.9517C31.1462 27.9517 30.6948 27.5568 30.6948 26.9925C30.6948 26.4847 31.0898 26.0333 31.654 26.0333C32.2183 26.0333 32.6133 26.4283 32.6133 26.9925ZM18.0558 8.88033C18.0558 8.48536 18.2815 8.14682 18.62 8.03397C19.1278 7.8647 19.6357 8.09039 19.8614 8.54179C20.0306 9.04961 19.8049 9.55742 19.3535 9.78312C19.2407 9.83955 19.1278 9.83955 19.015 9.83955C18.4508 9.83955 18.0558 9.44458 18.0558 8.88033C18.0558 8.93676 18.0558 8.93676 18.0558 8.88033Z" fill="#B9C8DE"/>
<path d="M11.6234 27.8953C11.1156 27.8953 10.6642 27.5004 10.6642 26.9361C10.6642 26.4283 11.0592 25.9769 11.6234 25.9769C12.1312 25.9769 12.5826 26.3719 12.5826 26.9361C12.5826 27.5004 12.1312 27.8953 11.6234 27.8953Z" fill="#B9C8DE"/>
<path d="M16.3066 29.9266C15.7988 29.9266 15.3474 29.4752 15.3474 28.9674C15.3474 28.911 15.3474 28.8545 15.3474 28.7981C15.4603 28.2903 15.9681 27.9518 16.4759 28.0646C16.5323 28.0646 16.5887 28.121 16.6452 28.121C16.9837 28.2903 17.2094 28.6288 17.2094 28.9674C17.2658 29.5316 16.8709 29.9266 16.3066 29.9266Z" fill="#B9C8DE"/>
<path d="M19.9177 31.6758C19.9177 32.1836 19.4663 32.635 18.9585 32.635C18.9021 32.635 18.8457 32.635 18.7893 32.635C18.2814 32.5222 17.9429 32.0144 18.0557 31.5065C18.0557 31.4501 18.1122 31.3937 18.1122 31.3373C18.2814 30.9987 18.62 30.773 19.015 30.773C19.5228 30.7166 19.9177 31.1116 19.9177 31.6758Z" fill="#B9C8DE"/>
<path d="M10.6642 16.2719C10.6642 16.0462 10.777 15.7641 10.9463 15.5948C11.0592 15.482 11.1156 15.4256 11.2284 15.3691C11.3413 15.3127 11.4541 15.3127 11.567 15.3127C11.9619 15.3127 12.3005 15.5384 12.4698 15.877C12.639 16.2155 12.5262 16.6669 12.2441 16.8926C11.8491 17.2876 11.2849 17.2311 10.8899 16.8926C10.8335 16.8362 10.8335 16.7798 10.777 16.7233C10.7206 16.6669 10.6642 16.4976 10.6642 16.2719Z" fill="#B9C8DE"/>
<path d="M18.0558 34.3277C18.0558 33.8199 18.5072 33.3685 19.015 33.4249C19.5228 33.4249 19.9742 33.8763 19.9178 34.3841C19.9178 34.8919 19.4664 35.3433 18.9586 35.2869C18.4508 35.2305 18.0558 34.8355 18.0558 34.3277Z" fill="#B9C8DE"/>
<path d="M11.6234 19.9395C11.1156 19.9395 10.6642 19.4881 10.6642 18.9803C10.6642 18.4725 11.1156 18.0211 11.6234 18.0211C12.1312 18.0211 12.5826 18.4725 12.5826 18.9803C12.5826 19.4881 12.1312 19.9395 11.6234 19.9395Z" fill="#B9C8DE"/>
<path d="M31.7105 19.9396C31.3155 19.9396 30.9769 19.7139 30.8077 19.3753C30.6384 19.0368 30.7512 18.6418 31.0334 18.3597C31.4283 17.9647 31.9926 17.9647 32.3875 18.3597C32.5568 18.529 32.6697 18.7547 32.6697 19.0368C32.6697 19.4317 32.444 19.7703 32.1054 19.8831C31.9362 19.8831 31.8233 19.9396 31.7105 19.9396ZM16.3066 32.5786C15.7988 32.5786 15.3474 32.1272 15.3474 31.6194C15.3474 31.3373 15.4603 31.1116 15.6295 30.9423C15.9117 30.6602 16.3066 30.6038 16.7016 30.7166C17.0401 30.8859 17.2658 31.2244 17.2658 31.6194C17.2658 32.1836 16.8144 32.5786 16.3066 32.5786Z" fill="#B9C8DE"/>
<path d="M10.6642 21.6323C10.6642 21.1244 11.1156 20.673 11.6234 20.673C11.8491 20.673 12.1312 20.7859 12.3005 20.9552C12.4698 21.1244 12.5826 21.3501 12.5826 21.6323C12.5826 21.858 12.4698 22.1401 12.3005 22.3094C12.1312 22.4786 11.9055 22.5915 11.6234 22.5915C11.0592 22.5915 10.6642 22.1401 10.6642 21.6323Z" fill="#B9C8DE"/>
<path d="M29.9614 21.6323C29.9614 22.0272 29.7357 22.3658 29.3971 22.4786C28.8893 22.7043 28.3815 22.4222 28.1558 21.9708C28.1558 21.9144 28.0994 21.858 28.0994 21.8015C27.9865 21.2937 28.3251 20.7859 28.8329 20.673C28.8893 20.673 28.9457 20.673 29.0022 20.673C29.5664 20.673 29.9614 21.1244 29.9614 21.6323Z" fill="#B9C8DE"/>
<path d="M8.91502 27.8953C8.4072 27.8953 7.95581 27.4439 7.95581 26.9361C7.95581 26.4283 8.4072 25.9769 8.91502 25.9769C9.42284 25.9769 9.87424 26.4283 9.87424 26.9361C9.87424 27.5004 9.47927 27.8953 8.91502 27.8953Z" fill="#B9C8DE"/>
<path d="M34.3624 27.8953C33.8546 27.8953 33.4032 27.5004 33.4032 26.9361C33.4032 26.4283 33.7982 25.9769 34.3624 25.9769C34.5881 25.9769 34.8702 26.0897 35.0395 26.259C35.4345 26.654 35.4345 27.2182 35.0395 27.6132C34.8702 27.7825 34.5881 27.8953 34.3624 27.8953Z" fill="#B9C8DE"/>
<path d="M10.6642 13.62C10.6642 13.225 10.8899 12.8865 11.2284 12.7172C11.3413 12.6608 11.4541 12.6608 11.567 12.6608C11.7927 12.6608 12.0748 12.7736 12.2441 12.9429C12.5262 13.225 12.5826 13.62 12.4698 13.9585C12.3005 14.2971 11.9619 14.5228 11.6234 14.5792C11.1156 14.5792 10.6642 14.1842 10.6642 13.62Z" fill="#B9C8DE"/>
<path d="M26.0681 8.88038C26.0681 8.48541 26.2938 8.14686 26.6887 8.03402C27.0273 7.86474 27.4787 7.97759 27.7044 8.25971C28.0429 8.65468 28.0429 9.21893 27.7044 9.6139C27.5351 9.78317 27.253 9.89602 27.0273 9.89602C26.463 9.83959 26.0681 9.44462 26.0681 8.88038Z" fill="#B9C8DE"/>
<path d="M16.3066 12.548C15.7988 12.548 15.3474 12.0966 15.3474 11.5887C15.3474 11.363 15.4602 11.0809 15.6295 10.9117C16.0245 10.5167 16.5887 10.5731 16.9837 10.9117C17.153 11.0809 17.2658 11.3066 17.2658 11.5887C17.2658 12.0966 16.8709 12.548 16.3066 12.548ZM24.3189 29.9266C23.811 29.9266 23.3597 29.4752 23.3597 28.9674C23.3597 28.911 23.3597 28.8546 23.3597 28.7981C23.4725 28.2903 23.9803 27.9518 24.4881 28.0646C24.5446 28.0646 24.601 28.1211 24.6574 28.1211C24.996 28.2903 25.2217 28.6289 25.2217 29.0238C25.2781 29.5317 24.8267 29.9266 24.3189 29.9266ZM10.6642 24.2842C10.6642 23.8892 10.8899 23.5507 11.2284 23.4378C11.3413 23.3814 11.4541 23.3814 11.567 23.3814C11.7927 23.3814 12.0748 23.4943 12.2441 23.6635C12.3569 23.7764 12.4133 23.8328 12.4698 24.0021C12.5262 24.1149 12.5262 24.2278 12.5262 24.3406C12.5262 24.8485 12.0748 25.2998 11.567 25.2998C11.0592 25.2434 10.6642 24.792 10.6642 24.2842Z" fill="#B9C8DE"/>
<path d="M14.614 8.93681C14.614 9.16251 14.5011 9.44463 14.3319 9.61391C14.1626 9.78318 13.9369 9.89603 13.6548 9.89603C13.147 9.89603 12.6956 9.50106 12.6956 8.93681C12.6956 8.48542 13.0341 8.09045 13.4855 7.9776C13.8805 7.92118 14.2754 8.09045 14.4447 8.37257C14.5576 8.54184 14.614 8.71112 14.614 8.93681Z" fill="#B9C8DE"/>
<path d="M29.9613 13.62C29.9613 14.0149 29.7356 14.3535 29.3406 14.4663C28.8328 14.6356 28.325 14.4099 28.0993 13.9585C28.0993 13.9021 28.0429 13.8457 28.0429 13.7892C27.93 13.2814 28.2686 12.7736 28.7764 12.6608C28.8328 12.6608 28.8892 12.6608 28.9457 12.6608C29.1713 12.6608 29.4535 12.7736 29.6227 12.9429C29.9049 13.1686 29.9613 13.3943 29.9613 13.62Z" fill="#B9C8DE"/>
<path d="M35.3216 21.6323C35.3216 22.1401 34.8702 22.5915 34.3624 22.5915C33.8546 22.5915 33.4032 22.1401 33.4032 21.6323C33.4032 21.1244 33.8546 20.673 34.3624 20.673C34.8702 20.673 35.3216 21.1244 35.3216 21.6323ZM16.363 33.3685C16.8709 33.3685 17.3223 33.8199 17.2658 34.3277C17.2658 34.8355 16.8144 35.2869 16.3066 35.2869C15.7988 35.2869 15.3474 34.8355 15.3474 34.3277C15.3474 34.0456 15.4603 33.8199 15.6295 33.6506C15.7424 33.5378 15.8552 33.4814 15.9681 33.4249C16.0809 33.3685 16.2502 33.3685 16.363 33.3685Z" fill="#B9C8DE"/>
<path d="M25.2781 8.93682C25.2781 9.44464 24.8267 9.89603 24.3189 9.89603C23.8111 9.89603 23.3597 9.44464 23.3597 8.93682C23.3597 8.429 23.8111 7.97761 24.3189 7.97761C24.8267 7.97761 25.2781 8.37258 25.2781 8.93682Z" fill="#B9C8DE"/>
<path d="M22.6262 11.5887C22.6262 11.9837 22.4005 12.3222 22.062 12.4915C21.7234 12.6608 21.272 12.5479 21.0463 12.2658C20.6514 11.8708 20.6514 11.3066 21.0463 10.9116C21.2156 10.7423 21.4413 10.6295 21.7234 10.6295C21.9491 10.6295 22.2313 10.7423 22.4005 10.9116C22.5134 11.0809 22.6262 11.3066 22.6262 11.5887Z" fill="#B9C8DE"/>
<path d="M26.9708 32.5785C26.5759 32.5785 26.2373 32.3528 26.1245 32.0143C26.0681 31.9014 26.0681 31.7886 26.0681 31.6758C26.0681 31.1679 26.5194 30.7165 27.0273 30.7165C27.0837 30.7165 27.1401 30.7165 27.1965 30.7165C27.7044 30.8294 28.0429 31.3372 27.9301 31.845C27.9301 31.9014 27.8736 31.9579 27.8736 32.0143C27.7044 32.3528 27.3658 32.5785 26.9708 32.5785Z" fill="#B9C8DE"/>
<path d="M7.22237 21.6323C7.22237 22.1401 6.77098 22.5915 6.26316 22.5915C6.20673 22.5915 6.15031 22.5915 6.09388 22.5915C5.69891 22.535 5.41679 22.1965 5.36037 21.858C5.24752 21.3501 5.58607 20.8423 6.09388 20.7295C6.37601 20.673 6.71455 20.7859 6.94025 21.0116C7.10952 21.1244 7.22237 21.4066 7.22237 21.6323Z" fill="#B9C8DE"/>
<path d="M29.002 23.3814C29.2277 23.3814 29.5099 23.4943 29.6791 23.6635C29.8484 23.8328 29.9612 24.0585 29.9612 24.3406C29.9612 24.7356 29.7355 25.0741 29.397 25.2434C29.1713 25.3563 28.8892 25.3563 28.6635 25.2434C28.3249 25.0741 28.0992 24.7356 28.0992 24.3406C28.0992 24.1149 28.2121 23.8328 28.3814 23.6635C28.5506 23.4378 28.7763 23.3814 29.002 23.3814Z" fill="#B9C8DE"/>
<path d="M32.6132 21.6323C32.6132 21.858 32.5004 22.1401 32.3311 22.3094C32.1619 22.4786 31.9362 22.5915 31.654 22.5915C31.1462 22.5915 30.6948 22.1965 30.6948 21.6323C30.6948 21.5758 30.6948 21.5194 30.6948 21.463C30.8077 20.9552 31.3155 20.6166 31.8233 20.7295C32.3311 20.7859 32.6132 21.1809 32.6132 21.6323Z" fill="#B9C8DE"/>
<path d="M8.97145 15.3692C9.19714 15.3692 9.47927 15.482 9.64854 15.6513C9.81781 15.8206 9.93066 16.0463 9.93066 16.3284C9.93066 16.7234 9.70496 17.0619 9.36642 17.2312C9.25357 17.2876 9.14072 17.2876 9.02787 17.2876C8.52005 17.2876 8.06866 16.8926 8.06866 16.3284C8.01223 15.7642 8.4072 15.3692 8.97145 15.3692ZM22.6261 8.93681C22.6261 9.33178 22.4004 9.67033 22.0619 9.8396C21.949 9.89602 21.8362 9.89602 21.7233 9.89602C21.3284 9.89602 20.9898 9.67033 20.8205 9.33178C20.5949 8.82396 20.8205 8.31614 21.3284 8.09045C21.8362 7.86475 22.344 8.09045 22.5697 8.59827C22.5697 8.65469 22.6261 8.76754 22.6261 8.93681ZM9.87424 18.9803C9.87424 19.206 9.76139 19.4882 9.59211 19.6574C9.42284 19.8267 9.19714 19.9396 8.91502 19.9396C8.4072 19.9396 7.95581 19.5446 7.95581 18.9803C7.95581 18.7546 8.06866 18.4725 8.23793 18.3032C8.6329 17.9083 9.19714 17.9647 9.59211 18.3032C9.64854 18.3597 9.64854 18.4161 9.70496 18.4725C9.81781 18.5854 9.87424 18.8111 9.87424 18.9803Z" fill="#B9C8DE"/>
<path d="M3.61107 19.9395C3.38537 19.9395 3.10325 19.8267 2.93398 19.6574C2.7647 19.4881 2.65186 19.2624 2.65186 18.9803C2.65186 18.4725 3.10325 18.0211 3.61107 18.0211C3.83677 18.0211 4.11889 18.1339 4.28816 18.3032C4.62671 18.6982 4.62671 19.2624 4.28816 19.6574C4.11889 19.8267 3.83677 19.9395 3.61107 19.9395Z" fill="#B9C8DE"/>
<path d="M31.7105 23.3814C31.9362 23.3814 32.2183 23.4943 32.3876 23.6636C32.5569 23.8328 32.6697 24.0585 32.6697 24.3406C32.6697 24.8485 32.2183 25.2999 31.7105 25.2999C31.2027 25.2999 30.7513 24.8485 30.7513 24.3406C30.7513 24.0585 30.8641 23.8328 31.0334 23.6636C31.2027 23.4379 31.4284 23.325 31.7105 23.3814Z" fill="#B9C8DE"/>
<path d="M26.9708 28.0646C27.4786 28.0646 27.93 28.516 27.93 29.0238C27.93 29.5316 27.4786 29.983 26.9708 29.983C26.463 29.983 26.0116 29.5316 26.0116 29.0238C26.068 28.4595 26.463 28.0646 26.9708 28.0646Z" fill="#B9C8DE"/>
<path d="M34.3624 19.9396C33.8546 19.9396 33.4032 19.5446 33.4032 18.9803C33.4032 18.4725 33.7982 18.0211 34.3624 18.0211C34.8702 18.0211 35.3216 18.4161 35.3216 18.9803C35.3216 19.4882 34.8702 19.9396 34.3624 19.9396ZM24.3189 7.18767C23.8111 7.18767 23.3597 6.73628 23.3597 6.22846C23.3597 6.17203 23.3597 6.11561 23.3597 6.05919C23.4725 5.55137 23.9803 5.21282 24.4882 5.32567C24.5446 5.32567 24.601 5.38209 24.6574 5.38209C24.996 5.55137 25.2217 5.88991 25.2217 6.28488C25.2217 6.51058 25.1088 6.7927 24.9396 6.96197C24.8267 7.07482 24.601 7.18767 24.3189 7.18767Z" fill="#B9C8DE"/>
<path d="M24.3189 10.6295C24.8267 10.6295 25.2781 11.0245 25.2781 11.5887C25.2781 11.9837 25.0524 12.3222 24.7138 12.4351C24.206 12.6608 23.6982 12.3786 23.4725 11.9272C23.4725 11.8708 23.4161 11.8144 23.4161 11.758C23.3597 11.363 23.5289 11.0245 23.8111 10.7988C23.9803 10.6859 24.1496 10.6295 24.3189 10.6295Z" fill="#B9C8DE"/>
<path d="M7.22238 13.62C7.22238 14.1278 6.77099 14.5792 6.26317 14.5792C5.75535 14.5792 5.30396 14.1278 5.30396 13.62C5.30396 13.1122 5.75535 12.6608 6.26317 12.6608C6.82741 12.7172 7.22238 13.1122 7.22238 13.62Z" fill="#B9C8DE"/>
<path d="M32.6132 13.6764C32.6132 14.1842 32.1618 14.6356 31.654 14.5792C31.5976 14.5792 31.5412 14.5792 31.4848 14.5792C30.9769 14.4663 30.6384 13.9585 30.7512 13.4507C30.8641 12.9993 31.2591 12.7172 31.654 12.7172C31.9361 12.7172 32.1618 12.83 32.3311 12.9993C32.5568 13.1686 32.6132 13.3943 32.6132 13.6764Z" fill="#B9C8DE"/>
<path d="M0.959213 19.9395C0.451394 19.9395 0 19.4881 0 18.9803C0 18.5289 0.338546 18.1339 0.78994 18.0775C1.18491 18.0211 1.52346 18.1903 1.74915 18.4725C1.862 18.6417 1.91843 18.811 1.91843 18.9803C1.862 19.4881 1.46703 19.9395 0.959213 19.9395Z" fill="#B9C8DE"/>
<path d="M29.0584 15.3691C29.4534 15.3691 29.7919 15.5948 29.9048 15.9334C29.9612 16.0462 29.9612 16.1591 29.9612 16.2719C29.9612 16.6669 29.7355 17.0054 29.3969 17.1747C29.0584 17.344 28.607 17.2311 28.3813 16.949C27.9863 16.554 28.0428 15.9898 28.3813 15.5948C28.4377 15.5384 28.4942 15.482 28.5506 15.482C28.6634 15.4256 28.8327 15.3691 29.0584 15.3691Z" fill="#B9C8DE"/>
<path d="M40.6255 21.6323C40.6255 22.1401 40.2306 22.5915 39.6663 22.5915C39.1585 22.5915 38.7071 22.1965 38.7071 21.6323C38.7071 21.068 39.1021 20.673 39.6663 20.673C40.2306 20.673 40.6255 21.1244 40.6255 21.6323Z" fill="#B9C8DE"/>
<path d="M22.6261 28.9675C22.6261 29.4753 22.2311 29.9267 21.6669 29.9267C21.159 29.9267 20.7076 29.5317 20.7076 28.9675C20.7076 28.6289 20.8769 28.3468 21.1026 28.1775C21.2719 28.0647 21.4412 28.0083 21.6104 28.0083C22.1747 28.0083 22.5696 28.4596 22.6261 28.9675Z" fill="#B9C8DE"/>
<path d="M26.9708 10.6295C27.4786 10.6295 27.93 11.0245 27.93 11.5323C27.93 12.0401 27.5351 12.4915 27.0272 12.4915C27.0272 12.4915 27.0272 12.4915 26.9708 12.4915C26.463 12.4915 26.0116 12.0401 26.0116 11.5323C26.0116 11.5323 26.0116 11.5323 26.0116 11.4759C26.068 11.0809 26.463 10.6295 26.9708 10.6295Z" fill="#B9C8DE"/>
<path d="M9.87426 21.6322C9.87426 22.0272 9.64856 22.3657 9.31002 22.535C9.19717 22.5914 9.08432 22.5914 8.97147 22.5914C8.5765 22.5914 8.23796 22.3657 8.06868 22.0272C7.89941 21.6887 8.01226 21.2373 8.23796 21.0116C8.5765 20.6166 9.19717 20.6166 9.59214 21.0116C9.64856 21.068 9.70499 21.1244 9.70499 21.1808C9.81784 21.2373 9.87426 21.463 9.87426 21.6322Z" fill="#B9C8DE"/>
<path d="M18.0558 11.5887C18.0558 11.0809 18.4508 10.6859 18.9586 10.6295C18.9586 10.6295 18.9586 10.6295 19.015 10.6295C19.2407 10.6295 19.5228 10.7423 19.6921 10.9116C19.9742 11.1937 20.0306 11.5887 19.9178 11.9272C19.6921 12.4351 19.1843 12.6608 18.6765 12.4351C18.4508 12.3222 18.2815 12.1529 18.1686 11.9272C18.0558 11.8144 18.0558 11.7015 18.0558 11.5887Z" fill="#B9C8DE"/>
<path d="M14.614 11.5887C14.614 11.8144 14.5011 12.0965 14.3319 12.2658C14.1626 12.4351 13.9369 12.5479 13.6548 12.5479C13.147 12.5479 12.6956 12.0965 12.6956 11.5887C12.6956 11.0809 13.147 10.6295 13.6548 10.6295C13.8805 10.6295 14.1626 10.7423 14.3319 10.9116C14.5011 11.0809 14.614 11.363 14.614 11.5887Z" fill="#B9C8DE"/>
<path d="M37.9735 21.6323C37.9735 22.1401 37.5221 22.5915 37.0143 22.5351C36.5065 22.4786 36.0551 22.0837 36.1115 21.5759C36.1115 21.2937 36.2808 20.9552 36.5065 20.7859C36.6758 20.6731 36.845 20.6166 37.0143 20.6166C37.2964 20.6166 37.5221 20.7295 37.6914 20.8988C37.8607 21.1245 37.9735 21.4066 37.9735 21.6323Z" fill="#B9C8DE"/>
<path d="M5.36036 16.2719C5.36036 15.7641 5.81176 15.3127 6.31958 15.3127C6.82739 15.3127 7.27879 15.7641 7.27879 16.2719C7.27879 16.7798 6.82739 17.2311 6.31958 17.2311C5.75533 17.2311 5.30394 16.8362 5.36036 16.2719Z" fill="#B9C8DE"/>
<path d="M26.0681 3.57649C26.0681 3.06867 26.463 2.61728 27.0273 2.61728C27.5351 2.61728 27.9865 3.01225 27.9865 3.57649C27.9865 4.14074 27.5915 4.53571 27.0273 4.53571C26.463 4.53571 26.0681 4.08431 26.0681 3.57649Z" fill="#B9C8DE"/>
<path d="M34.3624 23.3814C34.8702 23.3814 35.3216 23.8328 35.3216 24.3406C35.3216 24.8484 34.8702 25.2998 34.3624 25.2998C33.8546 25.2998 33.4032 24.8484 33.4032 24.3406C33.4032 23.7764 33.7982 23.3814 34.3624 23.3814Z" fill="#B9C8DE"/>
<path d="M13.6548 29.9267C13.147 29.9267 12.6956 29.4753 12.6956 28.9675C12.6956 28.4596 13.147 28.0083 13.6548 28.0083C14.1626 28.0083 14.614 28.4596 14.614 28.9675C14.614 29.1932 14.5011 29.4753 14.3319 29.6446C14.1626 29.8138 13.8805 29.9267 13.6548 29.9267Z" fill="#B9C8DE"/>
<path d="M19.015 29.9266C18.62 29.9266 18.2815 29.7009 18.1686 29.3624C17.9994 29.0239 18.1122 28.6289 18.3943 28.3468C18.7893 27.9518 19.3536 27.9518 19.7485 28.3468C19.9178 28.516 20.0306 28.7417 20.0306 29.0239C19.9178 29.5317 19.5228 29.9266 19.015 29.9266Z" fill="#B9C8DE"/>
<path d="M21.6669 32.5786C21.159 32.5786 20.7076 32.1272 20.7076 31.6193C20.7076 31.1115 21.1026 30.6601 21.6104 30.6601C21.7233 30.6601 21.8926 30.6601 22.0054 30.7166C22.2311 30.8294 22.4004 30.9987 22.5132 31.2244C22.5696 31.3372 22.5696 31.4501 22.5696 31.6193C22.5696 31.845 22.4568 32.1272 22.2875 32.2964C22.1182 32.5221 21.8926 32.5786 21.6669 32.5786Z" fill="#B9C8DE"/>
<path d="M14.614 34.3277C14.614 34.8355 14.1626 35.2869 13.6548 35.2869C13.147 35.2869 12.6956 34.8355 12.6956 34.3277C12.6956 34.0456 12.8084 33.8199 12.9777 33.6506C13.147 33.4813 13.4291 33.3685 13.6548 33.3685C14.0497 33.3685 14.3883 33.5942 14.5011 33.9892C14.614 34.102 14.614 34.2149 14.614 34.3277Z" fill="#B9C8DE"/>
<path d="M22.6262 3.57649C22.6262 3.97146 22.4005 4.31001 22.0619 4.47928C21.9491 4.5357 21.8362 4.53571 21.7234 4.53571C21.2156 4.53571 20.7642 4.14074 20.7642 3.57649C20.7642 3.06867 21.2156 2.61728 21.7234 2.61728C22.1183 2.61728 22.4569 2.84298 22.5697 3.18152C22.5697 3.35079 22.6262 3.46364 22.6262 3.57649Z" fill="#B9C8DE"/>
<path d="M2.65186 13.62C2.65186 13.1122 3.04683 12.6608 3.61107 12.6608C4.00604 12.6608 4.34458 12.8865 4.51386 13.225C4.73955 13.7328 4.51386 14.2406 4.00604 14.4663C3.94961 14.4663 3.89319 14.5228 3.83677 14.5228C3.32895 14.6356 2.82113 14.2971 2.70828 13.7892C2.65186 13.7892 2.65186 13.6764 2.65186 13.62Z" fill="#B9C8DE"/>
<path d="M29.9612 26.9362C29.9612 27.444 29.5663 27.8954 29.0585 27.8954C28.5506 27.8954 28.0992 27.5004 28.0992 26.9926C28.0992 26.4848 28.4942 26.0334 29.002 26.0334C29.5099 26.0334 29.9612 26.4283 29.9612 26.9362Z" fill="#B9C8DE"/>
<path d="M14.614 31.6758C14.614 31.9014 14.5011 32.1836 14.3319 32.3528C14.1626 32.5221 13.9369 32.635 13.6548 32.635C13.147 32.635 12.6956 32.1836 12.6956 31.6758C12.6956 31.1679 13.147 30.7165 13.6548 30.7165C14.1626 30.7165 14.614 31.1115 14.614 31.6758Z" fill="#B9C8DE"/>
<path d="M29.0021 19.9395C28.4943 19.9395 28.0429 19.4881 28.0429 18.9803C28.0429 18.9239 28.0429 18.8675 28.0429 18.811C28.0993 18.4161 28.4379 18.1339 28.7764 18.0775C29.2842 17.9647 29.7921 18.3032 29.8485 18.811C29.8485 18.8675 29.8485 18.9239 29.8485 18.9803C29.8485 19.0932 29.8485 19.206 29.7921 19.3189C29.6792 19.5445 29.5099 19.7138 29.2842 19.8267C29.2842 19.8831 29.115 19.9395 29.0021 19.9395Z" fill="#B9C8DE"/>
<path d="M22.6262 34.3277C22.6262 34.7227 22.4005 35.0612 22.0619 35.2305C21.5541 35.4562 21.0463 35.2305 20.8206 34.7227C20.5949 34.2148 20.8206 33.707 21.3284 33.4813C21.4412 33.4249 21.5541 33.4249 21.6669 33.4249C21.8926 33.4249 22.1748 33.5377 22.344 33.707C22.5133 33.8199 22.6262 34.0456 22.6262 34.3277Z" fill="#B9C8DE"/>
<path d="M14.6139 36.9796C14.6139 37.2053 14.501 37.4875 14.3318 37.6567C14.2189 37.7696 14.1625 37.826 14.0496 37.8824C13.9368 37.9389 13.8239 37.9389 13.7111 37.9389C13.2033 37.9389 12.7519 37.4875 12.8083 36.9796C12.8083 36.4718 13.2597 36.0769 13.7675 36.0769C13.9932 36.0769 14.2753 36.1897 14.4446 36.359C14.501 36.5283 14.6139 36.7539 14.6139 36.9796ZM18.9586 40.5908C18.4507 40.5908 18.0558 40.1958 18.0558 39.6316C18.0558 39.4059 18.1686 39.1238 18.3379 38.9545C18.5072 38.7852 18.7893 38.6724 19.015 38.6724C19.2407 38.6724 19.5228 38.7852 19.6921 38.9545C19.8613 39.1238 19.9742 39.4059 19.9742 39.6316C19.9742 39.8573 19.8613 40.1394 19.6921 40.3087C19.4664 40.5344 19.2407 40.5908 18.9586 40.5908Z" fill="#B9C8DE"/>
<path d="M7.2223 18.9803C7.2223 19.3753 6.9966 19.7138 6.65806 19.8831C6.31951 20.0523 5.92454 19.9395 5.64242 19.7138C5.24745 19.3753 5.24745 18.7546 5.64242 18.3596C5.69884 18.3032 5.75527 18.3032 5.81169 18.2468C6.20666 18.0211 6.65806 18.0211 6.9966 18.3596C7.10945 18.4725 7.2223 18.6982 7.2223 18.9803Z" fill="#B9C8DE"/>
<path d="M22.6261 0.924534C22.6261 1.43235 22.2311 1.88375 21.6669 1.88375C21.159 1.88375 20.7076 1.48878 20.7076 0.924534C20.7076 0.86811 20.7076 0.811685 20.7076 0.755261C20.8205 0.247442 21.3283 -0.0911034 21.8361 0.0217452C21.8926 0.0217452 21.949 0.0781695 22.0054 0.0781695C22.4004 0.191018 22.6261 0.529564 22.6261 0.924534Z" fill="#B9C8DE"/>
<path d="M9.87429 13.62C9.87429 13.8456 9.76144 14.1278 9.59217 14.297C9.4229 14.4663 9.1972 14.5792 8.91508 14.5792C8.40726 14.5792 7.95587 14.1278 8.01229 13.62C8.01229 13.1121 8.46368 12.7172 8.9715 12.7172C9.1972 12.7172 9.47932 12.83 9.64859 12.9993C9.81787 13.1686 9.87429 13.3943 9.87429 13.62Z" fill="#B9C8DE"/>
<path d="M27.0273 7.18767C26.5194 7.18767 26.0681 6.7927 26.0681 6.22845C26.0681 5.72064 26.463 5.26924 27.0273 5.26924C27.5351 5.26924 27.9865 5.66421 27.9865 6.22845C27.9865 6.7927 27.5351 7.18767 27.0273 7.18767Z" fill="#B9C8DE"/>
<path d="M19.015 7.18767C18.5072 7.18767 18.0558 6.7927 18.0558 6.22845C18.0558 5.72064 18.4508 5.26924 19.015 5.26924C19.5228 5.26924 19.9742 5.66421 19.9742 6.22845C19.9742 6.73627 19.5228 7.18767 19.015 7.18767Z" fill="#B9C8DE"/>
<path d="M22.6262 6.28488C22.6262 6.67985 22.4005 7.0184 22.0619 7.13125C21.9491 7.18767 21.8362 7.18767 21.7234 7.18767C21.2156 7.18767 20.7642 6.73628 20.7642 6.22846C20.7642 6.17203 20.7642 6.11561 20.7642 6.05919C20.877 5.55137 21.3848 5.21282 21.8926 5.32567C22.2876 5.43852 22.6262 5.83349 22.6262 6.28488Z" fill="#B9C8DE"/>
<path d="M19.015 37.9389C18.9022 37.9389 18.7893 37.9389 18.6765 37.8825C18.3379 37.7132 18.1122 37.3747 18.1122 37.0361C18.1122 36.8104 18.2251 36.5283 18.3944 36.359C18.5636 36.1898 18.7893 36.0769 19.0715 36.0769C19.5793 36.0769 20.0307 36.5283 20.0307 37.0361C20.0307 37.2618 19.9178 37.5439 19.7485 37.7132C19.4664 37.8261 19.2407 37.9389 19.015 37.9389ZM37.9736 26.9926C37.9736 27.3876 37.7479 27.7261 37.3529 27.839C36.8451 28.0082 36.3373 27.7825 36.1116 27.3311C35.9423 26.8233 36.168 26.3155 36.6194 26.0898C36.7323 26.0334 36.8451 26.0334 36.958 26.0334C37.1837 26.0334 37.4658 26.1462 37.635 26.3155C37.8607 26.4848 37.9736 26.7105 37.9736 26.9926Z" fill="#B9C8DE"/>
</svg>
