<svg width="42" height="41" viewBox="0 0 42 41" fill="none" xmlns="http://www.w3.org/2000/svg">
<path d="M21.0349 38.7236C10.9278 38.7236 2.64727 30.4025 2.64727 20.2954C2.64727 18.0223 3.05318 15.871 3.8244 13.8415L14.581 35.4764C14.7027 35.7605 14.9057 36.004 15.2304 36.004C15.5551 36.004 15.7581 35.7605 15.8799 35.4764L20.832 24.3951C20.8725 24.2733 20.9537 24.1515 21.0755 24.1515C21.1973 24.1515 21.2379 24.2733 21.319 24.3951L26.2711 35.4764C26.3929 35.7605 26.5958 36.004 26.9206 36.004C27.2453 36.004 27.4483 35.7605 27.57 35.4764L38.3266 13.8415C39.0978 15.871 39.5037 18.0223 39.5037 20.2954C39.4225 30.4025 31.142 38.7236 21.0349 38.7236ZM21.0349 16.1145C20.9131 16.1145 20.8725 15.9928 20.7914 15.871L15.0275 2.88195C16.8946 2.1919 18.9242 1.82659 21.0349 1.82659C23.1456 1.82659 25.1752 2.1919 27.0423 2.88195L21.2785 15.871C21.1973 16.0334 21.1567 16.1145 21.0349 16.1145ZM15.1492 29.4689C15.0275 29.4689 14.9869 29.3472 14.9057 29.2254L5.56981 10.3912C7.23403 7.83403 9.46653 5.68271 12.1861 4.18085L18.9242 19.1589C19.0054 19.4024 19.2083 19.4836 19.4113 19.4836H22.6585C22.9021 19.4836 23.0644 19.443 23.1862 19.1589L29.9243 4.18085C32.6033 5.68271 34.8764 7.83403 36.5406 10.3912L27.1235 29.2254C27.0829 29.3472 27.0018 29.4689 26.88 29.4689C26.7582 29.4689 26.7176 29.3472 26.6364 29.2254L23.105 21.1884C22.9833 20.9043 22.8209 20.8637 22.5774 20.8637H19.3301C19.0865 20.8637 18.9242 20.9043 18.8024 21.1884L15.3928 29.2254C15.3522 29.3472 15.271 29.4689 15.1492 29.4689ZM21.0349 40.5908C32.2786 40.5908 41.3303 31.5391 41.3303 20.2954C41.3303 9.05175 32.2786 0 21.0349 0C9.79125 0 0.739502 9.05175 0.739502 20.2954C0.739502 31.5391 9.79125 40.5908 21.0349 40.5908Z" fill="#B9C8DE"/>
</svg>
