<svg width="93" height="28" viewBox="0 0 93 28" fill="none" xmlns="http://www.w3.org/2000/svg">
<path d="M5.78093 27.0605H13.4797L23.5662 14.1425H15.5154L5.78093 27.0605ZM5.4442 7.04063L7.67884 9.93341L5.33706 12.9027H0.79126L5.4442 7.04063Z" fill="#B9C8DE"/>
<path d="M23.5662 12.918H15.6378L5.76562 0H13.4797L23.5662 12.918ZM5.4442 19.974L7.67884 17.0812L5.33706 14.1119H0.79126L5.4442 19.974Z" fill="#B9C8DE"/>
<path d="M49.4788 3.39787H30.5916V7.40797H37.9995V24.9943H42.2392V7.39266H49.4788V3.39787ZM92.6257 20.9076L83.2586 20.8158C79.8454 20.7546 77.1057 17.9995 77.0751 14.6017V13.7752C77.0751 10.4997 79.922 7.63756 83.2892 7.36206L83.6259 7.33144L90.0237 7.36206V3.38256H83.5953C77.7026 3.33665 72.8966 8.08143 72.8354 13.9588V14.3874C72.8966 20.2801 77.7026 25.0096 83.5953 24.9637H92.6104L92.6257 20.9076ZM70.8763 24.9637L64.356 16.6986L64.6162 16.6832C67.4631 16.4231 69.6977 13.4997 69.6977 10.0406C69.6977 6.56616 67.4631 3.64276 64.6162 3.39787H53.6726V7.45389H63.7132H63.7438C64.8917 7.56103 65.7794 8.75488 65.7794 10.1783C65.7794 11.6017 64.8917 12.7803 63.7591 12.9027H49.4788V25.0096H53.6726V16.7292H58.9378L65.458 24.9943L70.8763 24.9637Z" fill="#B9C8DE"/>
</svg>
