<svg width="81" height="30" viewBox="0 0 81 30" fill="none" xmlns="http://www.w3.org/2000/svg">
<path d="M80.2862 6.01081V6.19405L73.8857 14.9784L80.2862 23.6893V23.9093L80.1574 24.0194H76.3687L76.2214 23.946C76.0864 23.8178 75.9771 23.6636 75.8718 23.524C74.3574 21.5113 72.8931 19.4299 71.3843 17.3988C71.2919 17.2746 71.1852 17.1112 71.0898 16.9952C71.0711 16.9724 70.971 16.8696 70.961 16.8667C70.9003 16.8501 70.7921 16.878 70.7218 16.8667V23.7436C70.7218 23.7554 70.6894 23.7649 70.685 23.7804C70.6733 23.8215 70.6733 23.885 70.6482 23.9273C70.6232 23.9695 70.5518 24.0114 70.5194 24.0558H67.356C67.3188 24.0117 67.2625 24.0187 67.2272 23.964C67.2165 23.9475 67.2003 23.8792 67.1904 23.8538C67.1841 23.838 67.1565 23.8307 67.1536 23.8171V6.17569C67.2158 6.10224 67.232 5.98877 67.3192 5.93736C67.3302 5.93075 67.374 5.94213 67.3928 5.90064H70.4826C70.501 5.94213 70.5452 5.93075 70.5562 5.93736C70.6309 5.98143 70.6552 6.06442 70.685 6.13897C70.6913 6.15512 70.7218 6.1643 70.7218 6.17569V13.0527C70.7918 13.0413 70.9003 13.0692 70.961 13.0527C70.9699 13.0501 71.074 12.9454 71.0898 12.9242C72.6679 10.8016 74.2268 8.59459 75.7982 6.46873C75.8873 6.34792 76.0672 6.17642 76.1294 6.06515C76.139 6.0479 76.1224 6.01705 76.1294 6.01007C76.1364 6.00309 76.1673 6.01962 76.1846 6.01007C76.2281 5.98583 76.277 5.9212 76.3319 5.8999C76.3918 5.89954 76.4445 5.91606 76.4791 5.86318H80.1206L80.2862 6.01007V6.01081Z" fill="#B9C8DE"/>
<path d="M58.4732 9.34852V23.7811C58.4732 23.7929 58.4416 23.8024 58.4364 23.8179C58.4294 23.8395 58.443 23.8682 58.4364 23.8913C58.4272 23.9229 58.2984 24.0125 58.2708 24.0562H55.1074C55.0702 24.0121 55.0135 24.0191 54.9786 23.9644C54.9734 23.9563 54.9841 23.9379 54.9786 23.9277C54.9657 23.9045 54.905 23.8241 54.905 23.8175V9.34852H49.4057C49.3932 9.34852 49.3564 9.28867 49.3321 9.27508C49.3148 9.26553 49.2839 9.28206 49.2769 9.27508C49.2699 9.2681 49.2865 9.23726 49.2769 9.22C49.2526 9.17666 49.1878 9.12782 49.1665 9.07311V6.17572C49.232 6.05857 49.3248 5.96566 49.4425 5.90067H63.8253C63.8922 5.94767 64.0177 6.02405 64.0645 6.10227C64.0693 6.11035 64.0593 6.12761 64.0645 6.13899C64.0715 6.15405 64.0954 6.16139 64.1013 6.17572C64.113 6.20473 64.0818 6.2565 64.1381 6.28588V9.00003C64.0634 9.08559 64.0383 9.25084 63.9357 9.3118C63.9276 9.31658 63.9103 9.30666 63.8989 9.3118C63.8827 9.31915 63.8731 9.34852 63.8621 9.34852H58.4732Z" fill="#B9C8DE"/>
<path d="M48.8909 20.645C48.9045 20.6487 49.0892 20.833 49.0933 20.8466C49.1036 20.8826 49.0749 20.9263 49.1301 20.9568V23.7444C49.0668 23.8601 48.9998 23.9691 48.8909 24.0561H38.26C38.2276 24.0121 38.1566 23.9698 38.1312 23.9276C38.0988 23.8736 38.108 23.7859 38.0576 23.7444V6.2124C38.1139 6.18339 38.0826 6.13124 38.0944 6.10223C38.1003 6.08791 38.1242 6.08057 38.1312 6.06551C38.1364 6.05413 38.1264 6.03687 38.1312 6.02879C38.1868 5.93588 38.2681 5.95204 38.3336 5.90026H41.3867C41.4456 5.94396 41.546 5.99354 41.5891 6.06514C41.5939 6.07322 41.5839 6.09048 41.5891 6.10187C41.5964 6.11802 41.6259 6.12757 41.6259 6.13859V20.5896C41.6259 20.5936 41.677 20.6446 41.6811 20.6446H48.8909V20.645Z" fill="#B9C8DE"/>
<path d="M12.6215 9.89863C12.6689 9.88541 12.7499 9.90744 12.8055 9.89863L15.8953 12.6862C15.9189 12.6322 15.9906 12.6238 16.0057 12.6128C16.115 12.5331 16.2284 12.3789 16.3369 12.2826C17.0755 11.6264 17.8414 10.9577 18.5807 10.3022C18.7169 10.1814 18.8004 10.0727 18.9487 9.97207C18.9738 9.95518 19.0054 9.9034 19.0223 9.89863C19.0698 9.88541 19.1508 9.90744 19.2064 9.89863C19.418 10.0888 19.6196 10.2963 19.8316 10.4855C20.4329 11.0216 21.0707 11.5644 21.6709 12.0994C21.7545 12.1739 21.8226 12.2489 21.8734 12.3377V15.8219C21.8281 15.895 21.7825 15.963 21.7078 16.0235C21.3283 16.3327 20.9316 16.6864 20.5673 17.0139C19.1052 18.3275 17.6758 19.6737 16.1901 20.9385C16.0996 21.0156 16.0389 21.1107 15.9325 21.1584H15.8589C15.7062 21.074 15.591 20.9146 15.4544 20.7916C13.7642 19.2691 11.9727 17.7565 10.3044 16.2068C10.1841 16.0952 10.0744 15.9714 9.95483 15.8583V12.3006C10.0741 12.1875 10.1841 12.0641 10.3044 11.9521C10.7847 11.5063 11.3235 11.069 11.8126 10.6316C12.0584 10.4116 12.2858 10.1494 12.5482 9.97134C12.5733 9.95445 12.6049 9.90267 12.6218 9.89789L12.6215 9.89863Z" fill="#B9C8DE"/>
<path d="M25.6981 12.9062C25.7828 12.8904 25.8446 12.8526 25.9373 12.8695C25.966 12.8747 26.0886 12.9349 26.1213 12.943C27.6236 13.3039 29.1232 13.6477 30.6089 14.0432C30.663 14.0575 30.6961 14.0608 30.7561 14.0799C30.7778 14.0869 30.8065 14.0733 30.8297 14.0799C30.836 14.0817 30.9199 14.1654 30.9217 14.1717C30.8967 14.7633 30.9552 15.3806 30.9217 15.9689C30.7064 19.7296 28.7946 23.7301 25.8269 26.257C25.7055 26.3602 25.6565 26.4946 25.4589 26.4403C25.4527 26.4384 25.3688 26.3547 25.3669 26.3484C25.3584 26.318 25.3746 26.271 25.3669 26.2383C25.3636 26.224 25.3338 26.2159 25.3301 26.2016C24.9091 24.5443 24.4701 22.9046 24.0428 21.2499C24.0347 21.2183 23.9729 21.0902 23.9692 21.0667C23.9622 21.0197 23.9589 20.8467 23.9692 20.81C23.9751 20.7891 24.0564 20.7329 24.0796 20.6998C24.7258 19.7836 25.2171 18.6918 25.5141 17.6555C25.9005 16.3071 25.9914 14.6935 25.7349 13.2544C25.7324 13.2404 25.7 13.2312 25.6981 13.2176C25.686 13.12 25.7066 13.0061 25.6981 12.9059V12.9062Z" fill="#B9C8DE"/>
<path d="M1.18106 17.6375C1.21565 17.6283 1.35844 17.6313 1.40187 17.6375C1.42542 17.6408 1.55423 17.7029 1.58587 17.711C3.23568 18.1347 4.88181 18.5695 6.51506 19.0315C6.57063 19.0473 6.67257 19.0477 6.73587 19.0682C6.76053 19.1005 6.80764 19.1284 6.82788 19.16C6.88161 19.2445 6.92614 19.395 6.97508 19.4902C8.03349 21.5444 9.74145 23.1558 11.8491 24.0933C12.0467 24.1814 12.2704 24.2578 12.4743 24.35C12.5185 24.3702 12.6271 24.3955 12.6399 24.4418C12.6528 24.4881 12.6311 24.57 12.6399 24.625L9.01683 28.2378L8.86962 28.2745C8.85564 28.2701 8.84828 28.244 8.83282 28.2378C8.70843 28.1878 8.58735 28.1206 8.46481 28.0545C5.05478 26.214 2.31896 22.5605 1.34703 18.9401C1.27637 18.6775 1.15787 18.2409 1.12622 17.9864C1.11813 17.9217 1.11739 17.7932 1.12622 17.7297C1.13101 17.6937 1.15015 17.6463 1.18143 17.6379L1.18106 17.6375Z" fill="#B9C8DE"/>
<path d="M23.7852 27.7971C23.7256 27.7802 23.7219 27.8177 23.6932 27.8338C23.154 28.1401 22.6278 28.4273 22.0746 28.6773C20.6935 29.302 19.3344 29.667 17.8811 29.851C17.653 29.88 17.3744 29.9457 17.1455 29.9612C15.0452 30.1018 13.1161 29.8591 11.2598 29.2642C11.2156 29.2502 11.1159 29.2429 11.0758 29.2274C11.0283 29.2094 10.9716 29.1386 10.9102 29.154C10.9301 29.0938 10.8793 29.0817 10.8734 29.0622C10.8535 28.9965 10.9098 28.9704 10.9102 28.9153L14.9013 24.9357L14.9749 24.899C15.0665 24.8781 15.1074 24.9335 15.1221 24.9357C15.8026 25.0349 16.9228 24.9001 17.5499 24.7888C18.9156 24.5468 20.1956 24.0871 21.4122 23.285C21.689 23.1025 21.9466 22.8844 22.2215 22.6982C22.2465 22.6813 22.2782 22.6295 22.2951 22.6248C22.3691 22.6046 22.5133 22.6413 22.5343 22.7166C22.5428 22.7478 22.5258 22.7952 22.5343 22.8267C22.9439 24.3382 23.3531 25.8534 23.748 27.3748C23.7568 27.409 23.8161 27.5287 23.8216 27.558C23.8393 27.655 23.7981 27.7163 23.7848 27.7964L23.7852 27.7971Z" fill="#B9C8DE"/>
<path d="M7.85748 2.26954C7.86447 2.26256 7.89539 2.27909 7.91268 2.26954C7.97672 2.23392 8.06541 2.16415 8.13349 2.12265C11.8887 -0.156704 16.6895 -0.606185 20.8609 0.802483C20.982 0.870787 21.0541 0.914853 21.0265 1.07753L17.0722 5.05713L16.9986 5.09385C16.907 5.11479 16.8661 5.05933 16.8514 5.05713C16.7104 5.03657 16.5239 5.06594 16.3733 5.05713C14.0265 4.92273 11.7518 5.64836 9.86243 7.03757C9.74724 7.12239 9.64456 7.2153 9.53121 7.29426C9.48558 7.3262 9.44252 7.37615 9.38401 7.40442L9.2184 7.31262L9.1816 7.12937C8.76942 5.74347 8.38779 4.34619 8.00432 2.94817C7.97046 2.82478 7.87625 2.6151 7.85711 2.50787C7.85086 2.47335 7.84865 2.27799 7.85711 2.26954H7.85748Z" fill="#B9C8DE"/>
<path d="M6.27598 3.62678C6.25648 3.68737 6.30506 3.69692 6.31278 3.71859C6.32051 3.74025 6.30579 3.76926 6.31278 3.79203C6.72864 5.12211 7.07457 6.48084 7.45326 7.82671C7.55447 8.18733 7.69542 8.56887 7.78447 8.92691C7.79699 8.97759 7.75945 9.03855 7.82128 9.0738C7.83673 9.12999 7.73847 9.21408 7.71087 9.25705C7.47792 9.62464 7.22436 10.0238 7.01201 10.4307C6.03714 12.298 5.6971 14.4613 6.01874 16.5927C6.02095 16.6067 6.0537 16.6158 6.05554 16.6294C6.08388 16.8553 6.02904 16.9856 5.77953 16.9412C5.76591 16.9386 5.75745 16.9081 5.74273 16.9045C4.31226 16.5497 2.89614 16.1443 1.4756 15.7675C1.34238 15.7323 1.19885 15.6875 1.07115 15.6574C1.0384 15.6497 0.99166 15.6658 0.960747 15.6574C0.954491 15.6555 0.870583 15.5718 0.868743 15.5656C0.860279 15.5351 0.876471 15.4885 0.868743 15.4554C0.865431 15.4407 0.833782 15.4323 0.831942 15.4187C0.79514 15.1686 0.820533 14.6629 0.831942 14.3916C0.994236 10.4891 2.74967 6.45146 5.85313 3.81002C5.94367 3.73291 6.00439 3.6378 6.11074 3.59006L6.27635 3.62678H6.27598Z" fill="#B9C8DE"/>
<path d="M22.8841 1.79289C22.9106 1.78555 23.0784 1.78555 23.1049 1.79289C23.1237 1.79803 23.1531 1.85275 23.1785 1.86634C26.1123 3.44356 28.2593 5.89221 29.6342 8.85349C30.0957 9.84757 30.3872 10.8372 30.6275 11.8611C30.6411 11.9191 30.5918 12.084 30.5355 12.0994C30.5101 12.1064 30.4185 12.1049 30.3883 12.0994C30.3607 12.0942 30.2345 12.0325 30.2043 12.0259C28.4985 11.6525 26.8314 11.203 25.1279 10.8156C25.1084 10.8112 25.0528 10.7495 24.9807 10.7788C24.956 10.7465 24.9089 10.7186 24.8887 10.687C24.8206 10.5805 24.7448 10.3852 24.6679 10.2467C23.7018 8.50243 22.3041 7.12975 20.5663 6.1937C20.1862 5.98878 19.7781 5.79159 19.3891 5.68032C19.3386 5.666 19.2974 5.55289 19.2603 5.51543L19.2971 5.40527L22.8834 1.79253L22.8841 1.79289Z" fill="#B9C8DE"/>
</svg>
