<svg width="888" height="156" viewBox="0 0 888 156" fill="none" xmlns="http://www.w3.org/2000/svg">
<g clip-path="url(#clip0_5428_5998)">
<path d="M103.141 26.2682H50.4932C43.6094 26.2682 38.0229 20.6925 38.0229 13.8104C38.0229 6.92821 43.6028 1.35255 50.4932 1.35255H103.141C110.025 1.35255 115.611 6.92821 115.611 13.8104C115.611 20.6925 110.031 26.2682 103.141 26.2682Z" fill="#000000"/>
<path d="M141.29 67.7997H12.3445C5.5269 67.7997 0 62.224 0 55.3419C0 48.4597 5.5269 42.8841 12.3445 42.8841H141.29C148.108 42.8841 153.634 48.4597 153.634 55.3419C153.634 62.224 148.108 67.7997 141.29 67.7997Z" fill="#000000"/>
<path d="M23.2364 109.323C16.4254 109.323 10.9051 103.747 10.9051 96.865C10.9051 89.9828 16.4254 84.4072 23.2364 84.4072H130.392C137.203 84.4072 142.723 89.9828 142.723 96.865C142.723 103.747 137.203 109.323 130.392 109.323H23.2364Z" fill="#000000"/>
<path d="M97.2867 150.847H56.3678C49.484 150.847 43.8976 145.272 43.8976 138.389C43.8976 131.507 49.4774 125.932 56.3678 125.932H97.2867C104.171 125.932 109.757 131.507 109.757 138.389C109.757 145.272 104.177 150.847 97.2867 150.847Z" fill="#000000"/>
<path d="M799.631 90.0202C800.676 73.5197 813.871 62.8669 833.558 62.8669C852.2 62.8669 865.388 73.5197 865.388 88.7661C865.388 89.3931 864.971 90.0202 863.919 90.0202H799.631ZM835.021 155.818C854.496 155.818 871.456 147.878 881.303 134.096C882.772 132.011 883.606 129.707 883.606 127.41C883.606 122.19 879.629 118.427 874.395 118.427C871.046 118.427 868.32 119.893 864.76 123.648C856.177 132.836 847.17 137.014 835.65 137.014C814.705 137.014 800.465 124.902 799.419 106.309H884.44C886.743 106.309 888 105.055 888 102.97V100.673C888 66.8336 866.427 44.6966 833.34 44.6966C800.253 44.6966 776.589 67.0449 776.589 100.673C776.589 134.301 799.624 155.818 835.014 155.818H835.021ZM754.189 155.818C760.892 155.818 765.71 150.801 765.71 144.122V11.6956C765.71 5.00955 760.681 0 754.189 0C747.697 0 742.668 5.01615 742.668 11.6956V144.122C742.668 150.808 747.697 155.818 754.189 155.818ZM625.817 155.818C632.309 155.818 636.915 150.801 636.915 144.122V137.436C644.035 149.132 658.064 155.818 675.66 155.818C708.959 155.818 731.782 133.053 731.782 99.8413C731.782 66.629 709.164 44.6966 677.546 44.6966C659.745 44.6966 644.247 52.2142 637.55 64.3322V11.6956C637.55 5.00955 632.521 0 626.029 0C619.537 0 614.508 5.01615 614.508 11.6956V144.122C614.508 150.808 619.326 155.818 625.817 155.818ZM672.517 137.02C649.898 137.02 636.498 123.444 636.498 100.257C636.498 77.0706 649.898 63.4939 672.517 63.4939C695.135 63.4939 708.747 77.0706 708.747 100.257C708.747 123.444 695.347 137.02 672.517 137.02ZM359.439 155.818C374.725 155.818 387.921 149.132 394.2 138.479V144.115C394.2 150.801 399.23 155.811 405.721 155.811C412.213 155.811 417.242 150.795 417.242 144.115V59.7318C417.242 53.0458 412.213 48.0363 405.721 48.0363C399.23 48.0363 394.2 53.0524 394.2 59.7318V110.276C394.2 128.242 384.566 138.056 366.976 138.056C349.387 138.056 339.541 128.242 339.541 110.276V59.7318C339.541 53.0458 334.511 48.0363 328.02 48.0363C321.528 48.0363 316.499 53.0524 316.499 59.7318V111.53C316.499 139.937 331.785 155.811 359.426 155.811L359.439 155.818ZM208.244 61.4083V21.0942C208.244 20.256 209.084 19.4244 209.918 19.4244H254.731C269.184 19.4244 277.767 27.1532 277.767 40.314C277.767 53.4748 269.184 61.4083 254.731 61.4083H208.244ZM188.352 152.478H256.624C286.78 152.478 305.626 135.35 305.626 108.197C305.626 86.8917 295.786 74.7803 275.259 71.0182C291.591 67.6785 301.014 55.7717 301.014 38.6442C301.014 15.0419 283.425 0 255.989 0H188.345C186.459 0 184.997 1.46525 184.997 3.3397V149.132C184.997 151.013 186.466 152.471 188.345 152.471L188.352 152.478ZM208.244 131.172V81.4597H255.572C272.115 81.4597 282.167 91.2742 282.167 107.148C282.167 123.021 272.115 132.836 255.572 132.836H209.918C209.078 132.836 208.244 131.997 208.244 131.166V131.172ZM442.164 155.818C448.867 155.818 453.685 150.801 453.685 144.122V90.2314C453.685 73.1038 463.525 62.4511 479.651 62.4511C495.778 62.4511 504.361 72.688 504.361 90.2314V144.122C504.361 150.808 509.39 155.818 515.882 155.818C522.374 155.818 527.403 150.801 527.403 144.122V90.2314C527.403 73.1038 537.243 62.4511 553.37 62.4511C569.496 62.4511 578.079 72.688 578.079 90.2314V144.122C578.079 150.808 583.108 155.818 589.6 155.818C596.092 155.818 601.121 150.801 601.121 144.122V88.9773C601.121 61.1971 585.623 44.6966 559.656 44.6966C542.484 44.6966 529.712 52.0096 522.797 65.5862C515.889 51.5938 504.156 44.6966 486.99 44.6966C471.287 44.6966 459.978 50.5443 453.691 62.0353V59.7384C453.691 53.0524 448.662 48.0429 442.17 48.0429C435.679 48.0429 430.649 53.059 430.649 59.7384V144.122C430.649 150.808 435.679 155.818 442.17 155.818H442.164Z" fill="#000000"/>
</g>
<defs>
<clipPath id="clip0_5428_5998">
<rect width="888" height="156" fill="white"/>
</clipPath>
</defs>
</svg>
