<svg width="171" height="30" viewBox="0 0 171 30" fill="none" xmlns="http://www.w3.org/2000/svg">
<mask id="mask0_1149_1044" style="mask-type:luminance" maskUnits="userSpaceOnUse" x="0" y="0" width="171" height="30">
<path d="M171 0H0V30H171V0Z" fill="white"/>
</mask>
<g mask="url(#mask0_1149_1044)">
<path d="M19.8619 5.05124H9.72364C8.39804 5.05124 7.32227 3.97899 7.32227 2.65551C7.32227 1.33201 8.39677 0.259766 9.72364 0.259766H19.8619C21.1875 0.259766 22.2632 1.33201 22.2632 2.65551C22.2632 3.97899 21.1887 5.05124 19.8619 5.05124Z" fill="#B9C8DE"/>
<path d="M27.2079 13.0376H2.37715C1.0643 13.0376 0 11.9653 0 10.6418C0 9.31832 1.0643 8.24609 2.37715 8.24609H27.2079C28.5208 8.24609 29.5849 9.31832 29.5849 10.6418C29.5849 11.9653 28.5208 13.0376 27.2079 13.0376Z" fill="#B9C8DE"/>
<path d="M4.47422 21.0239C3.16264 21.0239 2.09961 19.9516 2.09961 18.6282C2.09961 17.3047 3.16264 16.2324 4.47422 16.2324H25.1089C26.4205 16.2324 27.4835 17.3047 27.4835 18.6282C27.4835 19.9516 26.4205 21.0239 25.1089 21.0239H4.47422Z" fill="#B9C8DE"/>
<path d="M18.7341 29.0081H10.8545C9.52889 29.0081 8.45312 27.936 8.45312 26.6124C8.45312 25.2889 9.52761 24.2168 10.8545 24.2168H18.7341C20.0598 24.2168 21.1355 25.2889 21.1355 26.6124C21.1355 27.936 20.061 29.0081 18.7341 29.0081Z" fill="#B9C8DE"/>
<path d="M153.984 17.3116C154.185 14.1384 156.726 12.0898 160.517 12.0898C164.107 12.0898 166.646 14.1384 166.646 17.0704C166.646 17.191 166.566 17.3116 166.363 17.3116H153.984ZM160.799 29.965C164.549 29.965 167.815 28.4381 169.711 25.7877C169.994 25.3867 170.154 24.9437 170.154 24.5019C170.154 23.4981 169.389 22.7744 168.381 22.7744C167.736 22.7744 167.211 23.0563 166.525 23.7785C164.873 25.5454 163.138 26.3488 160.92 26.3488C156.886 26.3488 154.144 24.0196 153.943 20.444H170.315C170.759 20.444 171.001 20.2029 171.001 19.8019V19.3602C171.001 12.8526 166.846 8.5955 160.475 8.5955C154.103 8.5955 149.546 12.8932 149.546 19.3602C149.546 25.8271 153.982 29.965 160.797 29.965H160.799ZM145.233 29.965C146.524 29.965 147.451 29.0002 147.451 27.7158V2.24915C147.451 0.963375 146.483 0 145.233 0C143.983 0 143.014 0.964644 143.014 2.24915V27.7158C143.014 29.0015 143.983 29.965 145.233 29.965ZM120.513 29.965C121.763 29.965 122.65 29.0002 122.65 27.7158V26.43C124.021 28.6792 126.722 29.965 130.111 29.965C136.523 29.965 140.918 25.5871 140.918 19.2003C140.918 12.8133 136.563 8.5955 130.474 8.5955C127.046 8.5955 124.062 10.0412 122.772 12.3716V2.24915C122.772 0.963375 121.804 0 120.553 0C119.303 0 118.335 0.964644 118.335 2.24915V27.7158C118.335 29.0015 119.263 29.965 120.513 29.965ZM129.506 26.35C125.15 26.35 122.569 23.7392 122.569 19.2802C122.569 14.8213 125.15 12.2104 129.506 12.2104C133.861 12.2104 136.482 14.8213 136.482 19.2802C136.482 23.7392 133.902 26.35 129.506 26.35ZM69.2169 29.965C72.1605 29.965 74.7016 28.6792 75.9107 26.6306V27.7144C75.9107 29.0002 76.8793 29.9637 78.1293 29.9637C79.3794 29.9637 80.3479 28.999 80.3479 27.7144V11.4869C80.3479 10.2011 79.3794 9.23775 78.1293 9.23775C76.8793 9.23775 75.9107 10.2024 75.9107 11.4869V21.2069C75.9107 24.6619 74.0555 26.5492 70.6683 26.5492C67.2812 26.5492 65.3852 24.6619 65.3852 21.2069V11.4869C65.3852 10.2011 64.4165 9.23775 63.1666 9.23775C61.9164 9.23775 60.948 10.2024 60.948 11.4869V21.4481C60.948 26.911 63.8916 29.9637 69.2144 29.9637L69.2169 29.965ZM40.1016 11.8093V4.05658C40.1016 3.89538 40.2634 3.73546 40.424 3.73546H49.0535C51.8367 3.73546 53.4895 5.22177 53.4895 7.75269C53.4895 10.2836 51.8367 11.8093 49.0535 11.8093H40.1016ZM36.2711 29.3227H49.418C55.2251 29.3227 58.8542 26.0288 58.8542 20.8071C58.8542 16.7099 56.9594 14.3808 53.0065 13.6573C56.1515 13.0151 57.9661 10.7253 57.9661 7.43158C57.9661 2.89267 54.579 0 49.2958 0H36.2697C35.9065 0 35.625 0.281779 35.625 0.64225V28.6792C35.625 29.041 35.9079 29.3213 36.2697 29.3213L36.2711 29.3227ZM40.1016 25.2254V15.6653H49.2155C52.4011 15.6653 54.3368 17.5527 54.3368 20.6054C54.3368 23.6579 52.4011 25.5454 49.2155 25.5454H40.424C40.2622 25.5454 40.1016 25.384 40.1016 25.2242V25.2254ZM85.147 29.965C86.4378 29.965 87.3656 29.0002 87.3656 27.7158V17.3522C87.3656 14.0584 89.2605 12.0098 92.3658 12.0098C95.4713 12.0098 97.1242 13.9785 97.1242 17.3522V27.7158C97.1242 29.0015 98.0926 29.965 99.3427 29.965C100.593 29.965 101.561 29.0002 101.561 27.7158V17.3522C101.561 14.0584 103.456 12.0098 106.562 12.0098C109.667 12.0098 111.32 13.9785 111.32 17.3522V27.7158C111.32 29.0015 112.288 29.965 113.538 29.965C114.789 29.965 115.757 29.0002 115.757 27.7158V17.111C115.757 11.7687 112.773 8.5955 107.772 8.5955C104.465 8.5955 102.006 10.0018 100.674 12.6127C99.3441 9.92188 97.0847 8.5955 93.7791 8.5955C90.7552 8.5955 88.5774 9.72006 87.3668 11.9299V11.4882C87.3668 10.2024 86.3983 9.23902 85.1482 9.23902C83.8982 9.23902 82.9296 10.2037 82.9296 11.4882V27.7158C82.9296 29.0015 83.8982 29.965 85.1482 29.965H85.147Z" fill="#B9C8DE"/>
</g>
</svg>
