<svg width="73" height="30" viewBox="0 0 73 30" fill="none" xmlns="http://www.w3.org/2000/svg">
<path d="M49.8965 22.9161H53.2285V14.1678C53.2277 12.1787 52.4372 10.2713 51.0307 8.86481C49.6242 7.45832 47.7168 6.6678 45.7277 6.667C43.7392 6.6686 41.8326 7.45947 40.4267 8.86587C39.0209 10.2723 38.2308 12.1792 38.23 14.1678V22.9191H41.562V14.1678C41.562 11.6393 43.4289 9.58514 45.7308 9.58514C48.0266 9.58514 49.8965 11.6393 49.8965 14.1678V22.9161ZM31.56 7.0869H34.895V15.8353C34.8942 17.8238 34.1041 19.7307 32.6983 21.1371C31.2924 22.5436 29.3858 23.3344 27.3973 23.336C25.4082 23.3352 23.5008 22.5447 22.0943 21.1382C20.6878 19.7317 19.8973 17.8243 19.8965 15.8353V7.08388H23.2285V15.8353C23.2285 18.3637 25.0954 20.4179 27.3973 20.4179C29.6931 20.4179 31.563 18.3637 31.563 15.8353L31.56 7.0869ZM0.312378 0V15.0015C0.312378 15.1405 0.315399 15.2824 0.324461 15.4214H0.312378V22.9191H3.22749L3.39364 21.4691C4.6166 22.4605 6.09523 23.0853 7.65849 23.2714C9.22175 23.4575 10.8057 23.1971 12.2272 22.5205C13.6487 21.8439 14.8496 20.7787 15.6909 19.4481C16.5322 18.1174 16.9797 16.5758 16.9814 15.0015C16.9806 13.4542 16.5491 11.9376 15.7354 10.6215C14.9217 9.30535 13.7577 8.24165 12.3739 7.5494C10.99 6.85715 9.4408 6.56367 7.89962 6.70179C6.35844 6.83992 4.88611 7.4042 3.64739 8.33149V0.00302063L0.312378 0ZM8.43845 9.58212C11.3113 9.58212 13.6464 12.0079 13.6464 14.9985C13.6464 17.9891 11.3113 20.4149 8.43543 20.4149C5.5626 20.4149 3.22749 17.9891 3.22749 14.9985C3.22749 12.0079 5.5626 9.58212 8.43543 9.58212H8.43845ZM64.4811 6.667C62.2704 6.667 60.1502 7.545 58.5867 9.10794C57.0232 10.6709 56.1444 12.7908 56.1436 15.0015C56.145 16.5486 56.5768 18.0648 57.3908 19.3805C58.2047 20.6961 59.3687 21.7594 60.7525 22.4513C62.1362 23.1432 63.6852 23.4364 65.2261 23.2981C66.767 23.1599 68.2391 22.5957 69.4776 21.6685V30H72.8126V15.0015C72.8131 14.8615 72.8091 14.7214 72.8005 14.5816H72.8126V7.0869H69.8975L69.7314 8.5369C68.2491 7.32783 66.394 6.66924 64.4811 6.67304V6.667ZM64.6896 9.58212C67.5624 9.58212 69.8975 12.0079 69.8975 14.9985C69.8975 17.9891 67.5624 20.4149 64.6896 20.4149C61.8137 20.4149 59.4786 17.9891 59.4786 14.9985C59.4786 12.0079 61.8137 9.58212 64.6896 9.58212Z" fill="#B9C8DE"/>
</svg>
