<svg width="66" height="28" viewBox="0 0 66 28" fill="none" xmlns="http://www.w3.org/2000/svg">
<path d="M45.1385 20.8615H48.1717V12.8975C48.171 11.0868 47.4514 9.35039 46.171 8.07C44.8906 6.78961 43.1542 6.06998 41.3435 6.06925C39.5332 6.07071 37.7976 6.79066 36.5178 8.07097C35.238 9.35128 34.5187 11.0872 34.518 12.8975V20.8642H37.5512V12.8975C37.5512 10.5957 39.2507 8.72575 41.3462 8.72575C43.4362 8.72575 45.1385 10.5957 45.1385 12.8975V20.8615ZM28.446 6.4515H31.482V14.4155C31.4813 16.2258 30.762 17.9617 29.4822 19.242C28.2024 20.5223 26.4667 21.2423 24.6565 21.2437C22.8457 21.243 21.1094 20.5234 19.829 19.243C18.5486 17.9626 17.829 16.2262 17.8282 14.4155V6.44875H20.8615V14.4155C20.8615 16.7172 22.561 18.5872 24.6565 18.5872C26.7465 18.5872 28.4487 16.7172 28.4487 14.4155L28.446 6.4515ZM0 0V13.6565C0 13.783 0.00275 13.9122 0.011 14.0387H0V20.8642H2.65375L2.805 19.5442C3.91831 20.4467 5.26437 21.0155 6.68747 21.1849C8.11057 21.3543 9.55254 21.1173 10.8466 20.5014C12.1406 19.8854 13.2338 18.9157 13.9997 17.7044C14.7656 16.493 15.1729 15.0896 15.1745 13.6565C15.1737 12.2479 14.781 10.8673 14.0402 9.66915C13.2994 8.47104 12.2399 7.50271 10.9801 6.87253C9.72028 6.24235 8.30998 5.97518 6.90698 6.10092C5.50398 6.22666 4.16366 6.74035 3.036 7.5845V0.0027498L0 0ZM7.3975 8.723C10.0127 8.723 12.1385 10.9312 12.1385 13.6537C12.1385 16.3762 10.0127 18.5845 7.39475 18.5845C4.7795 18.5845 2.65375 16.3762 2.65375 13.6537C2.65375 10.9312 4.7795 8.723 7.39475 8.723H7.3975ZM58.4155 6.06925C56.403 6.06925 54.4728 6.86853 53.0495 8.29133C51.6262 9.71414 50.8262 11.644 50.8255 13.6565C50.8267 15.0649 51.2199 16.4451 51.9608 17.6428C52.7018 18.8406 53.7614 19.8085 55.0211 20.4383C56.2808 21.0682 57.6909 21.3351 59.0937 21.2093C60.4964 21.0834 61.8365 20.5698 62.964 19.7257V27.3102H66V13.6565C66.0004 13.529 65.9968 13.4015 65.989 13.2742H66V6.4515H63.3462L63.195 7.7715C61.8456 6.67082 60.1568 6.07129 58.4155 6.07475V6.06925ZM58.6052 8.723C61.2205 8.723 63.3462 10.9312 63.3462 13.6537C63.3462 16.3762 61.2205 18.5845 58.6052 18.5845C55.9872 18.5845 53.8615 16.3762 53.8615 13.6537C53.8615 10.9312 55.9872 8.723 58.6052 8.723Z" fill="#B9C8DE"/>
</svg>
