<svg width="78" height="41" viewBox="0 0 78 41" fill="none" xmlns="http://www.w3.org/2000/svg">
<path d="M38.6518 27.1538C38.5512 27.1263 37.0042 26.7273 35.3601 26.7273C32.2474 26.7273 30.3734 28.4081 30.3734 30.9111C30.3734 33.1267 31.9412 34.2316 33.8227 34.826C34.0313 34.8948 34.3386 34.9911 34.5433 35.0588C35.3808 35.3223 36.0493 35.7138 36.0493 36.392C36.0493 37.1503 35.2767 37.6413 33.597 37.6413C32.1209 37.6413 30.7057 37.2191 30.4076 37.1439V40.2234C30.5738 40.2587 32.2556 40.5889 34.0523 40.5889C36.6366 40.5889 39.5927 39.4597 39.5927 36.0982C39.5927 34.4677 38.5944 32.9666 36.4027 32.2699L35.471 31.9732C34.9151 31.7978 33.9229 31.5137 33.9229 30.6989C33.9229 30.0554 34.6581 29.6022 36.0119 29.6022C37.1799 29.6022 38.6015 29.9948 38.6518 30.0104V27.1538ZM67.1903 33.6583C67.1903 35.6054 65.6989 37.1806 63.6976 37.1806C61.6941 37.1806 60.2066 35.6054 60.2066 33.6583C60.2066 31.7151 61.6941 30.1392 63.6976 30.1392C65.6989 30.1392 67.1903 31.7151 67.1903 33.6583ZM63.6976 26.7316C59.5816 26.7316 56.6297 29.8361 56.6297 33.6583C56.6297 37.4866 59.5816 40.5889 63.6976 40.5889C67.8132 40.5889 70.7694 37.4866 70.7694 33.6583C70.7694 29.8361 67.8132 26.7316 63.6976 26.7316ZM25.8449 40.3507H22.4677V26.9687H25.8449" fill="#B9C8DE"/>
<path d="M17.8264 27.2131C17.509 27.119 16.336 26.7335 14.7472 26.7335C10.6376 26.7335 7.62085 29.6636 7.62085 33.6602C7.62085 37.9719 10.951 40.5908 14.7472 40.5908C16.2554 40.5908 17.4067 40.2335 17.8264 40.1144V36.5222C17.6812 36.6028 16.5774 37.2325 14.9893 37.2325C12.7395 37.2325 11.2883 35.649 11.2883 33.6602C11.2883 31.6108 12.8022 30.0908 14.9893 30.0908C16.6045 30.0908 17.6905 30.7344 17.8264 30.8053" fill="#B9C8DE"/>
<path d="M53.0773 27.2131C52.76 27.119 51.587 26.7335 49.9982 26.7335C45.8886 26.7335 42.8718 29.6636 42.8718 33.6602C42.8718 37.9719 46.202 40.5908 49.9982 40.5908C51.5064 40.5908 52.6577 40.2335 53.0773 40.1144V36.5222C52.9322 36.6028 51.8283 37.2325 50.2403 37.2325C47.9904 37.2325 46.5393 35.649 46.5393 33.6602C46.5393 31.6108 48.0532 30.0908 50.2403 30.0908C51.8554 30.0908 52.9415 30.7344 53.0773 30.8053" fill="#B9C8DE"/>
<path d="M22.4572 1.67045C22.4572 0.748055 21.7038 1.52588e-05 20.7803 1.52588e-05C19.8572 1.52588e-05 19.1038 0.748055 19.1038 1.67045V19.4408C19.1038 20.3686 19.8572 21.1163 20.7803 21.1163C21.7038 21.1163 22.4572 20.3686 22.4572 19.4408V1.67045ZM13.2479 7.97851C13.2479 7.05647 12.4948 6.30736 11.5714 6.30736C10.6479 6.30736 9.89486 7.05647 9.89486 7.97851V16.1025C9.89486 17.0299 10.6479 17.7779 11.5714 17.7779C12.4948 17.7779 13.2479 17.0299 13.2479 16.1025V7.97851ZM4.0389 12.5894C4.0389 11.667 3.28587 10.9193 2.36241 10.9193C1.44001 10.9193 0.685913 11.667 0.685913 12.5894V16.1025C0.685913 17.0299 1.44001 17.7779 2.36241 17.7779C3.28587 17.7779 4.0389 17.0299 4.0389 16.1025" fill="#B9C8DE"/>
<path d="M19.1074 1.67046C19.1074 0.74807 19.8608 3.05176e-05 20.7843 3.05176e-05C21.7074 3.05176e-05 22.4608 0.74807 22.4608 1.67046V19.4408C22.4608 20.3686 21.7074 21.1163 20.7843 21.1163C19.8608 21.1163 19.1074 20.3686 19.1074 19.4408V1.67046ZM28.3167 7.97852C28.3167 7.05649 29.0698 6.30738 29.9932 6.30738C30.9167 6.30738 31.6697 7.05649 31.6697 7.97852V16.1025C31.6697 17.0299 30.9167 17.7779 29.9932 17.7779C29.0698 17.7779 28.3167 17.0299 28.3167 16.1025V7.97852ZM37.5257 12.5894C37.5257 11.667 38.2787 10.9193 39.2022 10.9193C40.1246 10.9193 40.8787 11.667 40.8787 12.5894V16.1025C40.8787 17.0299 40.1246 17.7779 39.2022 17.7779C38.2787 17.7779 37.5257 17.0299 37.5257 16.1025" fill="#B9C8DE"/>
<path d="M55.9418 1.67046C55.9418 0.74807 56.6952 3.05176e-05 57.6186 3.05176e-05C58.5417 3.05176e-05 59.2951 0.74807 59.2951 1.67046V19.4408C59.2951 20.3686 58.5417 21.1163 57.6186 21.1163C56.6952 21.1163 55.9418 20.3686 55.9418 19.4408V1.67046ZM65.1511 7.97852C65.1511 7.05649 65.9041 6.30738 66.8276 6.30738C67.751 6.30738 68.5041 7.05649 68.5041 7.97852V16.1025C68.5041 17.0299 67.751 17.7779 66.8276 17.7779C65.9041 17.7779 65.1511 17.0299 65.1511 16.1025V7.97852ZM74.36 12.5894C74.36 11.667 75.1131 10.9193 76.0365 10.9193C76.9589 10.9193 77.713 11.667 77.713 12.5894V16.1025C77.713 17.0299 76.9589 17.7779 76.0365 17.7779C75.1131 17.7779 74.36 17.0299 74.36 16.1025" fill="#B9C8DE"/>
<path d="M59.2916 1.67048C59.2916 0.748085 58.5382 4.57764e-05 57.6148 4.57764e-05C56.6917 4.57764e-05 55.9383 0.748085 55.9383 1.67048V19.4409C55.9383 20.3686 56.6917 21.1163 57.6148 21.1163C58.5382 21.1163 59.2916 20.3686 59.2916 19.4409V1.67048ZM50.0823 7.97854C50.0823 7.0565 49.3293 6.30739 48.4058 6.30739C47.4824 6.30739 46.7293 7.0565 46.7293 7.97854V16.1025C46.7293 17.0299 47.4824 17.7779 48.4058 17.7779C49.3293 17.7779 50.0823 17.0299 50.0823 16.1025V7.97854ZM40.8734 12.5894C40.8734 11.667 40.1203 10.9194 39.1969 10.9194C38.2745 10.9194 37.5204 11.667 37.5204 12.5894V16.1025C37.5204 17.0299 38.2745 17.7779 39.1969 17.7779C40.1203 17.7779 40.8734 17.0299 40.8734 16.1025" fill="#B9C8DE"/>
</svg>
