<svg xmlns="http://www.w3.org/2000/svg" id="Layer_1" data-name="Layer 1" version="1.1" viewBox="34.5 23.9 581.9 200.9">
  <defs>
    <style>
      .cls-1 {
        fill: #ff6b00;
      }

      .cls-1, .cls-2, .cls-3 {
        stroke-width: 0px;
      }

      .cls-1, .cls-3 {
        fill-rule: evenodd;
      }

      .cls-2, .cls-3 {
        fill: #012d76;
      }
    </style>
  </defs>
  <path class="cls-3" d="M601.2,29.8h-2.6v4.9h2.6c1.1,0,2.2-.1,3.1-.6.6-.5.9-1.2.9-2,0-.7-.3-1.4-1-1.8-.9-.4-2-.6-3-.6M601.6,28.6c1.4,0,2.9.2,4.1.9.9.6,1.4,1.6,1.4,2.7,0,.9-.3,1.7-.9,2.4-.6.6-1.4,1-2.3,1.1l3,6.2h-2l-2.9-5.9h-3.4v5.9h-1.8v-13.3h4.8ZM611.7,35.4c0,1.4-.3,2.7-.8,4-.5,1.2-1.3,2.4-2.2,3.3-1,1-2.2,1.8-3.4,2.3-2.5,1.1-5.4,1.1-7.9,0-2.5-1.1-4.6-3.1-5.7-5.7-1.1-2.5-1.1-5.4,0-7.9.5-1.3,1.3-2.4,2.3-3.4.9-1,2.1-1.7,3.3-2.2,2.6-1,5.4-1,8,0,1.3.5,2.4,1.3,3.4,2.3,1.9,1.9,3,4.6,3,7.3M601.2,23.9c1.5,0,3,.3,4.5.9,1.4.6,2.7,1.4,3.8,2.5,1.1,1.1,1.9,2.3,2.5,3.7.6,1.4.9,2.9.8,4.4,0,1.5-.3,3-.8,4.4-.6,1.4-1.4,2.6-2.5,3.7-1.1,1.1-2.4,2-3.8,2.6-1.4.6-2.9.9-4.4.9-1.5,0-3-.3-4.4-.9-4.3-1.8-7.1-6-7.1-10.7,0-1.5.3-3,.9-4.4.6-1.4,1.5-2.7,2.5-3.8,1.1-1,2.3-1.9,3.7-2.4,1.4-.6,2.9-.9,4.4-.8"/>
  <path class="cls-3" d="M372.8,77.3c0-8.8,4.1-13,12.6-13h43.6v-10.5h-43.6c-7.2,0-12.8,2.1-17,6.4s-6.4,9.9-6.2,17.2v46.3c-.2,7,2,12.6,6.2,16.8s9.9,6.4,17,6.5h43.6v-10.8h-43.6c-8.5,0-12.6-4.3-12.6-12.6v-46.3Z"/>
  <path class="cls-3" d="M385.4,70.6c-4.3,0-6.3,2.3-6.3,6.7v19.9h37v-8.7h-26.3v-7.4h39.2v-10.5h-43.5Z"/>
  <path class="cls-3" d="M389.8,119.3v-7.4h26.2v-8.7h-36.9v20.3c0,4.2,2,6.4,6.3,6.4h43.6v-10.6h-39.2Z"/>
  <path class="cls-3" d="M352.9,81.1v-10.6h-20.1c-8-.2-15.6,3-21.1,8.8-5.8,5.5-9.1,13.2-9,21.2,0,7.9,3.2,15.5,9,20.9,5.5,5.7,13.1,8.9,21.1,8.8h20.1v-10.6h-20c-5.1,0-9.9-2-13.5-5.6-3.7-3.5-5.8-8.4-5.8-13.5-.1-5.3,2-10.3,5.8-14,3.6-3.6,8.4-5.6,13.5-5.5h20.1Z"/>
  <path class="cls-3" d="M352.9,64.2v-10.8h-20.1c-12.5,0-24.4,5-33.1,14-9,8.6-13.9,20.6-13.7,33.1-.2,12.4,4.7,24.3,13.7,32.9,8.6,9,20.6,14,33.1,13.8h20.1v-10.6h-20.1c-9.6,0-18.8-3.8-25.5-10.6-6.9-6.6-10.8-15.8-10.6-25.4,0-20,16.1-36.2,36.1-36.3,0,0,0,0,0,0h20.1Z"/>
  <path class="cls-3" d="M148,53.8c-7.2,0-12.8,2.1-17,6.4s-6.4,9.9-6.2,17.2v46.3c-.2,7,2,12.6,6.2,16.8,4.2,4.2,9.9,6.4,17,6.5h33.8l3-10.8h-36.9c-8.5,0-12.6-4.3-12.6-12.6v-46.3c0-8.8,4.1-13,12.6-13h43.6v-10.5h-43.6Z"/>
  <path class="cls-3" d="M148,70.6c-4.3,0-6.2,2.3-6.2,6.7v19.9h36.9v-8.7h-26.4v-7.4h39.3v-10.5h-43.6Z"/>
  <path class="cls-3" d="M152.2,111.9h26.4v-8.7h-36.9v20.3c0,4.2,2,6.4,6.2,6.4h38.7l3.3-10.6h-37.8v-7.4Z"/>
  <path class="cls-3" d="M95.5,125.8c-6.8,6.8-16,10.6-25.7,10.6h-21.6c-1.5.2-3-.9-3.2-2.4,0-.3,0-.5,0-.8v-56c0-8.8,4.3-13,12.6-13h12.2c9.7-.2,18.9,3.7,25.7,10.6,7,6.7,10.8,16,10.6,25.7.2,9.6-3.7,18.8-10.6,25.4M102.8,133.3c18.2-17.6,18.6-46.7,1-64.9-.3-.3-.7-.7-1-1-8.6-9-20.5-14.1-32.9-14l-12.3.3c-7.1,0-12.6,2.1-16.7,6.4s-6.5,9.9-6.4,17.2v69.8h35.4c12.4.2,24.4-4.8,32.9-13.8"/>
  <path class="cls-3" d="M83.7,86.5c3.6,3.8,5.6,8.8,5.5,14,0,5-2,9.9-5.5,13.5-3.7,3.5-8.7,5.5-13.8,5.6h-7.9v-38.5h7.9c5.1,0,10.1,1.9,13.8,5.5M90.8,79.3c-5.4-5.8-13-9-20.9-8.8l-12.1.2c-4.3,0-6.4,2.3-6.4,6.7v52.9h18.5c7.9.1,15.5-3.1,20.9-8.8,5.8-5.4,9.1-13,8.9-20.9.2-8-3.1-15.8-8.9-21.2"/>
  <path class="cls-3" d="M260,61.5l-.5-.6c-3.8-8.5-10-12.9-18.7-12.9s-14.9,4.4-18.5,12.9l-.5.6-31.6,92.9H34.5v10.8h157.3c4.1,0,6.7-1.5,7.7-4.8l32.3-95h.1c2.1-4.5,5.1-6.8,9-6.8s7,2.3,9,6.8h.3l32.1,95c.9,3.3,3.5,4.8,7.8,4.8h228.1l-36.1-57.8h5.3c3.3-.1,6.4-1.8,9.1-5.5,2.9-3.8,4.5-8.5,4.4-13.4,0-4.9-1.8-9.6-5.2-13.1-3.2-3.2-6.5-4.8-10-4.8h-22.9c-3.7,0-5.5,1.8-5.5,5.5v70.9h10.8v-65.9h15.8c2.4,0,4.7,1.1,6.2,3,1.4,1.9,2.2,4.2,2.1,6.5,0,1.9-.5,3.8-1.5,5.5-1.2,1.6-2.9,2.6-4.9,2.7h-6.5c-1.9,0-3.8.9-5,2.4-2.4,3.2-2,7.9,1.5,14.1l23.4,39h-207.6l-31.6-92.9Z"/>
  <path class="cls-3" d="M214.5,147.3c6.6,1.2,12.7,4.2,17.8,8.6,4.5,3.8,7.7,9.1,9,14.9,2.8-12.7,12-20.5,27-23.5-15.2-3.1-24.3-11-27-23.5-.6,6.2-3.6,11.9-8.4,15.8-5.3,4.3-11.6,7-18.4,7.7"/>
  <path class="cls-3" d="M569.6,64c20,0,36.3,16.2,36.3,36.3s-16.2,36.3-36.3,36.3c-20,0-36.3-16.2-36.3-36.3h0c0-20,16.2-36.3,36.3-36.3M569.6,53.5c-25.8,0-46.8,21-46.8,46.8,0,25.8,21,46.8,46.8,46.8,25.8,0,46.8-21,46.8-46.8h0c0-25.8-21-46.8-46.8-46.8M569.6,81c-10.7,0-19.4,8.7-19.4,19.4s8.7,19.4,19.4,19.4,19.4-8.7,19.4-19.4c0-10.7-8.6-19.4-19.3-19.4,0,0,0,0,0,0M569.6,70.3c-16.6,0-30,13.4-30,30s13.4,30,30,30,30-13.4,30-30h0c0-16.6-13.4-30-30-30h0"/>
  <path class="cls-3" d="M451,76c-.2-3.2.9-6.3,3.1-8.5,2.3-2.3,5.4-3.5,8.7-3.3h22.9c5.5,0,10.3,2.3,14.7,7,4.5,4.6,6.9,10.9,6.8,17.3,0,5.5-1.5,10.8-4.5,15.3-2.3,4-5.9,7-10.2,8.6l32.7,52.7h88.3v-10.8h-82.5l-24.2-38.4c7.4-6.8,11.1-16.1,11.1-27.5.2-9.3-3.5-18.3-10.1-24.9-6.7-6.7-14-9.9-22-9.9h-22.9c-6-.2-11.8,2.1-15.9,6.4-4.3,4.2-6.6,9.9-6.5,15.9v70.9h10.6v-70.9Z"/>
  <path class="cls-1" d="M290.1,171.4c-7.3,0-12-3.2-14-9.3l.3.3-3.9-11.7-10,3.3,3.8,11.5c3.3,11,11.4,16.4,23.9,16.4h323.4v-10.6h-323.4ZM240.9,64.8c-1.4,0-2.4.9-3.3,2.9l-25.2,75.4h.8c4.3-1.2,8.3-3,12-5.5l15.8-46.4,15.6,46.1c4.1,2.8,8.6,4.8,13.3,6.1-6.2-18.5-14.9-43.7-25.8-75.7-.7-2-2-2.9-3.2-2.9M215.5,165.6l4-11.8-10.2-3.3-3.8,12v-.3c-1.7,6.1-6.2,9.3-13.8,9.3H34.5v10.6h157.2c12.4,0,20.4-5.5,23.8-16.4"/>
  <path class="cls-2" d="M39.6,224.2h-5.1v-25.4h5.1v25.4Z"/>
  <path class="cls-2" d="M52.6,198.8h6l6.2,17.4v-17.4h4.7v25.4h-5.9l-6.3-17.8v17.8h-4.7v-25.4Z"/>
  <path class="cls-2" d="M82.6,224.2v-25.4h8.4c3.3,0,5.6,1.1,6.8,3.4,1,1.8,1.5,4.8,1.5,9,0,4.7-.6,8-1.8,9.9-1.3,2.1-3.6,3.2-6.8,3.2h-8.1ZM87.7,202.6v17.9h2.3c1.5.2,2.9-.6,3.5-2,.7-2.3.9-4.7.8-7.2.1-2.2-.1-4.4-.7-6.5-.6-1.5-2.1-2.4-3.7-2.2h-2.2Z"/>
  <path class="cls-2" d="M111.7,198.8h5.1v17.8c0,2.9,1,4.4,3,4.4s3-1.5,3-4.4v-17.8h5.1v17.8c0,5.5-2.7,8.2-8.1,8.2s-8.1-2.7-8.1-8.2v-17.8Z"/>
  <path class="cls-2" d="M139.5,216.3h5.1v.8c0,1,.2,2,.7,2.8.7.8,1.7,1.2,2.7,1.1.8,0,1.6-.3,2.2-.8.6-.6,1-1.4.9-2.3,0-1-.3-1.9-1-2.6-1.1-.8-2.3-1.4-3.6-1.8-1.9-.5-3.6-1.5-5-2.8-1.2-1.3-1.7-3.1-1.6-4.8-.1-2.1.6-4.1,2.1-5.6,1.6-1.3,3.7-2,5.7-1.9,2-.1,4,.4,5.7,1.6,1.5,1.3,2.3,3.2,2.2,5.2v.7h-4.9c0-2.5-.9-3.8-2.7-3.8-1.4-.2-2.7.8-2.9,2.2,0,.2,0,.5,0,.7,0,.7.1,1.4.5,2,.6.7,1.3,1.2,2.1,1.5l4,1.7c1.5.6,2.9,1.5,3.9,2.8.7,1.2,1,2.5,1,3.9,0,5.2-2.9,7.8-8.8,7.8-5.4,0-8.1-2.5-8.1-7.4v-1Z"/>
  <path class="cls-2" d="M166.9,198.8h16.2v4.2h-5.6v21.2h-5.1v-21.2h-5.5v-4.2Z"/>
  <path class="cls-2" d="M194.6,224.2v-25.4h9.5c1.8-.1,3.6.5,5,1.7,1.3,1.3,1.9,3.1,1.8,4.9,0,3.6-1.4,5.7-4.2,6.3h0c1.4,0,2.7.8,3.3,2,.6,1.8.9,3.8.8,5.7,0,1,0,2.1.2,3.1,0,.6.4,1.1.9,1.5v.2h-5.6c-.4-.8-.7-1.7-.6-2.7v-4.9c-.2-2.1-1.2-3.2-3.2-3.2h-2.7v10.8h-5.1ZM199.7,202.6v7.3h2.1c1.8.3,3.6-1,3.8-2.8,0-.3,0-.6,0-1,.2-1.7-1-3.3-2.7-3.5-.3,0-.6,0-.9,0h-2.4Z"/>
  <path class="cls-2" d="M229,224.2h-5.1v-25.4h5.1v25.4Z"/>
  <path class="cls-2" d="M240.3,224.2l6.7-25.4h6.3l6.7,25.4h-5.3l-1.2-5.4h-6.8l-1.2,5.4h-5.3ZM250.2,203.2l-2.5,11.4h5l-2.5-11.4Z"/>
  <path class="cls-2" d="M285.3,224.2h-14.2v-25.4h5.1v21.2h9.1v4.2Z"/>
  <path class="cls-2" d="M320,224.2h-5.1v-25.4h5.1v25.4Z"/>
  <path class="cls-2" d="M333.1,198.8h6l6.2,17.4v-17.4h4.7v25.4h-5.9l-6.3-17.8v17.8h-4.8v-25.4Z"/>
  <path class="cls-2" d="M361.5,198.8h16.2v4.2h-5.6v21.2h-5.1v-21.2h-5.6v-4.2Z"/>
  <path class="cls-2" d="M389.2,198.8h14.2v4.2h-9.1v6h8.5v4.2h-8.5v6.8h9.4v4.2h-14.6v-25.4Z"/>
  <path class="cls-2" d="M429.8,224.2h-14.2v-25.4h5.1v21.2h9.1v4.2Z"/>
  <path class="cls-2" d="M455.5,224.2h-14.2v-25.4h5.1v21.2h9.1v4.2Z"/>
  <path class="cls-2" d="M472.4,224.2h-5.1v-25.4h5.1v25.4Z"/>
  <path class="cls-2" d="M501.7,206.4h-4.9c0-1-.2-2-.7-2.8-.4-.8-1.3-1.4-2.2-1.4-1.3,0-2.4.8-2.7,2.1-.7,2.2-.9,4.5-.8,6.8,0,2.4.1,4.9.6,7.3.5,1.8,1.5,2.7,2.9,2.7.8,0,1.5-.4,2-1,.8-.8,1.2-1.9,1.1-3.1v-2.6h-3.4v-3.8h8.4v13.7h-3.8v-2.4c-1.1,1.9-3.2,3-5.4,2.8-3,0-5.1-1.1-6.2-3.4-1-1.9-1.4-5.3-1.4-10s.6-7.7,1.8-9.7,3.6-3.2,6.7-3.2c5.2,0,7.9,2.7,7.9,8Z"/>
  <path class="cls-2" d="M514.6,198.8h14.2v4.2h-9.1v6h8.5v4.2h-8.5v6.8h9.4v4.2h-14.6v-25.4Z"/>
  <path class="cls-2" d="M540.9,198.8h5.9l6.2,17.4v-17.4h4.7v25.4h-5.9l-6.3-17.8v17.8h-4.7v-25.4Z"/>
  <path class="cls-2" d="M586.6,207.4h-5.1c0-1.4-.1-2.8-.7-4.1-.5-.8-1.4-1.3-2.4-1.2-1.3,0-2.4.9-2.6,2.2-.5,2.5-.8,5-.6,7.6-.2,2.5.1,5,.8,7.4.3,1.1,1.4,1.7,2.5,1.7.9,0,1.8-.4,2.3-1.2.7-1.7,1-3.5.9-5.3h5.2c.2,2.5-.4,5-1.5,7.2-1.3,2-3.5,3.1-6.5,3.1s-5.9-1.2-7.2-3.7c-1-1.9-1.5-5.1-1.5-9.6,0-4.5.5-7.7,1.5-9.5,1.3-2.5,3.7-3.7,7.2-3.7,3.2,0,5.5,1,6.7,3.1.9,1.9,1.3,4,1.1,6.1Z"/>
  <path class="cls-2" d="M599,198.8h14.2v4.2h-9.1v6h8.5v4.2h-8.5v6.8h9.4v4.2h-14.6v-25.4Z"/>
</svg>