<svg width="88" height="30" viewBox="0 0 88 30" fill="none" xmlns="http://www.w3.org/2000/svg">
<path fill-rule="evenodd" clip-rule="evenodd" d="M85.5052 0.881035H85.1165V1.61274H85.5052C85.6697 1.61274 85.8341 1.59781 85.9687 1.52315C86.0584 1.44848 86.1032 1.34395 86.1032 1.22449C86.1032 1.11996 86.0584 1.01543 85.9537 0.955699C85.8192 0.895968 85.6547 0.866103 85.5052 0.866103M85.565 0.701842C85.7743 0.701842 85.9986 0.731707 86.178 0.836237C86.3126 0.925834 86.3873 1.07516 86.3873 1.23942C86.3873 1.37382 86.3425 1.49328 86.2528 1.59781C86.163 1.68741 86.0434 1.74714 85.9089 1.76207L86.3574 2.6879H86.0584L85.6248 1.80687H85.1165V2.6879H84.8474V0.701842H85.565ZM87.0751 1.71727C87.0751 1.92633 87.0302 2.12046 86.9555 2.31458C86.8807 2.49378 86.7611 2.67297 86.6265 2.80737C86.477 2.9567 86.2976 3.07616 86.1182 3.15082C85.7444 3.31508 85.3108 3.31508 84.9371 3.15082C84.5633 2.98656 84.2493 2.6879 84.0849 2.29965C83.9204 1.92633 83.9204 1.49328 84.0849 1.11996C84.1596 0.925834 84.2792 0.761573 84.4287 0.612245C84.5633 0.462917 84.7427 0.358387 84.9221 0.283723C85.3108 0.134395 85.7295 0.134395 86.1182 0.283723C86.3126 0.358387 86.477 0.47785 86.6265 0.627178C86.9106 0.910901 87.0751 1.31409 87.0751 1.71727ZM85.5052 0C85.7295 0 85.9537 0.0447983 86.178 0.134395C86.3873 0.223992 86.5817 0.343454 86.7461 0.507715C86.9106 0.671976 87.0302 0.85117 87.1199 1.06023C87.2096 1.26929 87.2545 1.49328 87.2395 1.71727C87.2395 1.94126 87.1947 2.16526 87.1199 2.37432C87.0302 2.58337 86.9106 2.76257 86.7461 2.92683C86.5817 3.09109 86.3873 3.22549 86.178 3.31508C85.9687 3.40468 85.7444 3.44948 85.5201 3.44948C85.2959 3.44948 85.0716 3.40468 84.8623 3.31508C84.2194 3.04629 83.8008 2.41911 83.8008 1.71727C83.8008 1.49328 83.8456 1.26929 83.9353 1.06023C84.0251 0.85117 84.1596 0.657043 84.3091 0.492783C84.4736 0.343455 84.653 0.209059 84.8623 0.134395C85.0716 0.0447983 85.2959 5.67416e-08 85.5201 0.0149329" fill="#B9C8DE"/>
<path fill-rule="evenodd" clip-rule="evenodd" d="M51.3562 7.97405C51.3562 6.65997 51.9692 6.03279 53.24 6.03279H59.7587V4.46484H53.24C52.1636 4.46484 51.3263 4.77843 50.6984 5.42054C50.0704 6.06265 49.7415 6.89889 49.7714 7.98899V14.9029C49.7415 15.9482 50.0704 16.7844 50.6984 17.4116C51.3263 18.0388 52.1785 18.3673 53.24 18.3822H59.7587V16.7695H53.24C51.9692 16.7695 51.3562 16.1274 51.3562 14.8879V7.97405Z" fill="#B9C8DE"/>
<path fill-rule="evenodd" clip-rule="evenodd" d="M53.2407 6.97266C52.5978 6.97266 52.2988 7.31611 52.2988 7.97315V10.9448H57.8307V9.64563H53.8986V8.5406H59.7594V6.97266H53.2557H53.2407Z" fill="#B9C8DE"/>
<path fill-rule="evenodd" clip-rule="evenodd" d="M53.8986 14.246V13.141H57.8158V11.8418H52.2988V14.8732C52.2988 15.5003 52.5978 15.8289 53.2407 15.8289H59.7594V14.246H53.8986Z" fill="#B9C8DE"/>
<path fill-rule="evenodd" clip-rule="evenodd" d="M48.3807 8.54123V6.95835H45.3756C44.1795 6.92849 43.0432 7.40634 42.2209 8.27244C41.3538 9.09374 40.8604 10.2436 40.8753 11.4382C40.8753 12.6179 41.3538 13.7528 42.2209 14.5591C43.0432 15.4103 44.1795 15.8882 45.3756 15.8732H48.3807V14.2904H45.3905C44.628 14.2904 43.9104 13.9917 43.3721 13.4541C42.819 12.9315 42.505 12.1998 42.505 11.4382C42.49 10.6468 42.804 9.90011 43.3721 9.3476C43.9104 8.81002 44.628 8.51136 45.3905 8.5263H48.3957L48.3807 8.54123Z" fill="#B9C8DE"/>
<path fill-rule="evenodd" clip-rule="evenodd" d="M48.382 6.01704V4.4043H45.3769C43.508 4.4043 41.7288 5.15094 40.4281 6.49489C39.0825 7.77911 38.3499 9.57105 38.3798 11.4376C38.3499 13.2893 39.0825 15.0663 40.4281 16.3505C41.7139 17.6945 43.508 18.4411 45.3769 18.4113H48.382V16.8284H45.3769C43.9416 16.8284 42.5661 16.2609 41.5644 15.2455C40.5327 14.2599 39.9496 12.8861 39.9795 11.4526C39.9795 8.46602 42.3867 6.04691 45.3769 6.03197H48.382V6.01704Z" fill="#B9C8DE"/>
<path fill-rule="evenodd" clip-rule="evenodd" d="M17.7459 4.46484C16.6694 4.46484 15.8322 4.77843 15.2042 5.42054C14.5763 6.06265 14.2474 6.89889 14.2773 7.98899V14.9029C14.2474 15.9482 14.5763 16.7844 15.2042 17.4116C15.8322 18.0388 16.6844 18.3673 17.7459 18.3822H22.7993L23.2479 16.7695H17.7309C16.4601 16.7695 15.8471 16.1274 15.8471 14.8879V7.97405C15.8471 6.65997 16.4601 6.03279 17.7309 6.03279H24.2496V4.46484H17.7309H17.7459Z" fill="#B9C8DE"/>
<path fill-rule="evenodd" clip-rule="evenodd" d="M17.7473 6.97266C17.1044 6.97266 16.8203 7.31611 16.8203 7.97315V10.9448H22.3372V9.64563H18.3902V8.5406H24.2659V6.97266H17.7473Z" fill="#B9C8DE"/>
<path fill-rule="evenodd" clip-rule="evenodd" d="M18.3745 13.141H22.3216V11.8418H16.8047V14.8732C16.8047 15.5003 17.1037 15.8289 17.7317 15.8289H23.5177L24.0111 14.246H18.3596V13.141H18.3745Z" fill="#B9C8DE"/>
<path fill-rule="evenodd" clip-rule="evenodd" d="M9.89792 15.2159C8.88125 16.2313 7.50575 16.7987 6.0555 16.7987H2.82608C2.60182 16.8286 2.37755 16.6643 2.34765 16.4404C2.34765 16.3956 2.34765 16.3657 2.34765 16.3209V7.95852C2.34765 6.64443 2.99054 6.01725 4.23148 6.01725H6.0555C7.50575 5.98739 8.88125 6.56977 9.89792 7.60013C10.9445 8.60063 11.5126 9.98938 11.4827 11.4379C11.5126 12.8714 10.9295 14.2452 9.89792 15.2308M10.9893 16.3358C13.7104 13.7076 13.7702 9.3622 11.1389 6.64443C11.094 6.59963 11.0342 6.5399 10.9893 6.4951C9.70355 5.15115 7.92438 4.38958 6.07046 4.40451L4.23148 4.44931C3.16996 4.44931 2.34765 4.7629 1.73466 5.40501C1.12167 6.04712 0.762842 6.88336 0.777793 7.97345V18.3965H6.07046C7.92438 18.4264 9.7185 17.6798 10.9893 16.3358Z" fill="#B9C8DE"/>
<path fill-rule="evenodd" clip-rule="evenodd" d="M8.13387 9.3476C8.6721 9.91505 8.97112 10.6617 8.95617 11.4382C8.95617 12.1848 8.65715 12.9165 8.13387 13.4541C7.58068 13.9768 6.83313 14.2754 6.07063 14.2904H4.8895V8.54123H6.07063C6.83313 8.54123 7.58068 8.82495 8.13387 9.36253M9.19539 8.27244C8.38804 7.40634 7.25176 6.92849 6.07063 6.95835L4.26155 6.98822C3.61866 6.98822 3.30469 7.33167 3.30469 7.98872V15.8882H6.07063C7.25176 15.9031 8.38804 15.4253 9.19539 14.5741C10.0625 13.7677 10.5559 12.6328 10.526 11.4531C10.5559 10.2585 10.0625 9.09374 9.19539 8.28737" fill="#B9C8DE"/>
<path fill-rule="evenodd" clip-rule="evenodd" d="M34.4919 5.61554L34.4171 5.52594C33.849 4.25665 32.922 3.59961 31.6213 3.59961C30.3206 3.59961 29.3936 4.25665 28.8554 5.52594L28.7806 5.61554L24.0561 19.4881H0.777344V21.1009H24.2953C24.9083 21.1009 25.297 20.8769 25.4465 20.3841L30.2757 6.19792H30.2907C30.6046 5.52594 31.0532 5.18249 31.6363 5.18249C32.2193 5.18249 32.6828 5.52594 32.9818 6.19792H33.0267L37.826 20.3841C37.9605 20.8769 38.3493 21.1009 38.9922 21.1009H73.0954L67.6981 12.4697H68.4905C68.9839 12.4548 69.4474 12.2009 69.8511 11.6484C70.2846 11.0809 70.5239 10.3791 70.5089 9.64739C70.5089 8.91569 70.2398 8.21385 69.7315 7.6912C69.253 7.21335 68.7596 6.97442 68.2364 6.97442H64.8126C64.2594 6.97442 63.9903 7.24321 63.9903 7.79573V18.3831H65.605V8.54237H67.9672C68.3261 8.54237 68.6699 8.70663 68.8942 8.99035C69.1035 9.27407 69.2231 9.61753 69.2082 9.96098C69.2082 10.2447 69.1334 10.5284 68.9839 10.7823C68.8045 11.0212 68.5503 11.1705 68.2513 11.1855H67.2795C66.9954 11.1855 66.7113 11.3199 66.5319 11.5439C66.1731 12.0217 66.2329 12.7236 66.7562 13.6494L70.2547 19.4732H39.2164L34.4919 5.60061V5.61554Z" fill="#B9C8DE"/>
<path fill-rule="evenodd" clip-rule="evenodd" d="M27.6895 18.4272C28.6762 18.6064 29.5882 19.0544 30.3507 19.7114C31.0235 20.2788 31.502 21.0703 31.6963 21.9364C32.115 20.0399 33.4904 18.8752 35.7331 18.4272C33.4605 17.9643 32.1 16.7846 31.6963 14.918C31.6066 15.8438 31.1581 16.695 30.4404 17.2774C29.648 17.9195 28.7061 18.3226 27.6895 18.4272Z" fill="#B9C8DE"/>
<path fill-rule="evenodd" clip-rule="evenodd" d="M80.7803 5.98787C83.7705 5.98787 86.2075 8.40698 86.2075 11.4085C86.2075 14.41 83.7854 16.8291 80.7803 16.8291C77.7901 16.8291 75.3531 14.41 75.3531 11.4085C75.3531 8.42191 77.7751 5.98787 80.7803 5.98787ZM80.7803 4.41992C76.9229 4.41992 73.7832 7.55581 73.7832 11.4085C73.7832 15.2611 76.9229 18.397 80.7803 18.397C84.6376 18.397 87.7774 15.2611 87.7774 11.4085C87.7774 7.55581 84.6376 4.41992 80.7803 4.41992ZM80.7803 8.52644C79.1805 8.52644 77.8798 9.8256 77.8798 11.4234C77.8798 13.0212 79.1805 14.3204 80.7803 14.3204C82.38 14.3204 83.6808 13.0212 83.6808 11.4234C83.6808 9.8256 82.395 8.52644 80.7952 8.52644M80.7803 6.92863C78.2984 6.92863 76.295 8.92963 76.295 11.4085C76.295 13.8873 78.2984 15.8883 80.7803 15.8883C83.2621 15.8883 85.2656 13.8873 85.2656 11.4085C85.2656 8.92963 83.2621 6.92863 80.7803 6.92863Z" fill="#B9C8DE"/>
<path fill-rule="evenodd" clip-rule="evenodd" d="M63.0488 7.78034C63.0189 7.30249 63.1834 6.83957 63.5123 6.51105C63.8562 6.1676 64.3197 5.9884 64.8131 6.01827H68.2368C69.0592 6.01827 69.7768 6.36172 70.4346 7.06356C71.1074 7.75047 71.4663 8.69124 71.4513 9.64694C71.4513 10.4682 71.2271 11.2597 70.7785 11.9317C70.4346 12.529 69.8964 12.977 69.2535 13.2159L74.1425 21.0855H87.3443V19.4727H75.0097L71.3915 13.7385C72.4979 12.7231 73.0511 11.3343 73.0511 9.63201C73.081 8.24326 72.5278 6.8993 71.541 5.91374C70.5393 4.91324 69.4479 4.43539 68.2518 4.43539H64.828C63.9309 4.40552 63.0638 4.74898 62.4508 5.39109C61.8079 6.01827 61.464 6.86944 61.479 7.76541V18.3528H63.0638V7.76541L63.0488 7.78034Z" fill="#B9C8DE"/>
<path fill-rule="evenodd" clip-rule="evenodd" d="M38.9922 22.0258C37.9007 22.0258 37.198 21.5479 36.899 20.637L36.9439 20.6818L36.3608 18.9347L34.8657 19.4275L35.4338 21.1448C35.9272 22.7874 37.1382 23.5937 39.0071 23.5937H87.3587V22.0109H39.0071L38.9922 22.0258ZM31.6363 6.10742C31.4269 6.10742 31.2774 6.24182 31.1429 6.54047L27.3752 17.7998H27.4948C28.1377 17.6206 28.7358 17.3518 29.2889 16.9785L31.6512 10.0497L33.9836 16.9337C34.5966 17.3518 35.2694 17.6505 35.972 17.8446C35.0451 15.082 33.7443 11.319 32.1147 6.54047C32.01 6.24182 31.8157 6.10742 31.6363 6.10742ZM27.8387 21.1597L28.4367 19.3976L26.9117 18.9048L26.3436 20.6968V20.652C26.0894 21.5629 25.4166 22.0407 24.2803 22.0407H0.777344V23.6236H24.2803C26.1343 23.6236 27.3304 22.8023 27.8387 21.1746" fill="#B9C8DE"/>
<path d="M1.53985 29.9101H0.777344V26.1172H1.53985V29.9101Z" fill="#B9C8DE"/>
<path d="M3.48438 26.1172H4.38144L5.3084 28.7155V26.1172H6.0111V29.9101H5.12899L4.18707 27.2521V29.9101H3.48438V26.1172Z" fill="#B9C8DE"/>
<path d="M7.96875 29.9101V26.1172H9.22464C9.71802 26.1172 10.0619 26.2814 10.2413 26.6249C10.3908 26.8937 10.4656 27.3417 10.4656 27.9689C10.4656 28.6707 10.3759 29.1635 10.1965 29.4472C10.0021 29.7608 9.65822 29.9251 9.17978 29.9251H7.96875V29.9101ZM8.73125 26.6846V29.3576H9.07513C9.29939 29.3875 9.50871 29.268 9.59841 29.0589C9.70307 28.7155 9.73297 28.3571 9.71802 27.9838C9.73297 27.6553 9.70307 27.3267 9.61336 27.0132C9.52366 26.7892 9.29939 26.6548 9.06018 26.6846H8.73125Z" fill="#B9C8DE"/>
<path d="M12.3203 26.1172H13.0828V28.7752C13.0828 29.2083 13.2323 29.4323 13.5313 29.4323C13.8304 29.4323 13.9799 29.2083 13.9799 28.7752V26.1172H14.7424V28.7752C14.7424 29.5965 14.3387 29.9997 13.5313 29.9997C12.724 29.9997 12.3203 29.5965 12.3203 28.7752V26.1172Z" fill="#B9C8DE"/>
<path d="M16.4766 28.7315H17.2391V28.8509C17.2391 29.0003 17.269 29.1496 17.3437 29.2691C17.4484 29.3885 17.5979 29.4482 17.7474 29.4333C17.867 29.4333 17.9866 29.3885 18.0763 29.3139C18.166 29.2243 18.2258 29.1048 18.2109 28.9704C18.2109 28.8211 18.166 28.6867 18.0614 28.5821C17.8969 28.4627 17.7175 28.3731 17.5231 28.3134C17.2391 28.2387 16.9849 28.0894 16.7756 27.8952C16.5962 27.7011 16.5214 27.4323 16.5364 27.1785C16.5214 26.8649 16.6261 26.5662 16.8503 26.3422C17.0896 26.1481 17.4035 26.0436 17.7025 26.0585C18.0016 26.0436 18.3006 26.1182 18.5548 26.2974C18.779 26.4916 18.8986 26.7753 18.8837 27.0739V27.1785H18.1511C18.1511 26.8051 18.0165 26.611 17.7474 26.611C17.5381 26.5811 17.3437 26.7305 17.3138 26.9395C17.3138 26.9694 17.3138 27.0142 17.3138 27.0441C17.3138 27.1486 17.3288 27.2531 17.3886 27.3427C17.4783 27.4473 17.5829 27.5219 17.7025 27.5667L18.3006 27.8206C18.5249 27.9102 18.7342 28.0446 18.8837 28.2387C18.9883 28.4179 19.0332 28.612 19.0332 28.8211C19.0332 29.5976 18.5996 29.9858 17.7175 29.9858C16.9101 29.9858 16.5065 29.6125 16.5065 28.8808V28.7315H16.4766Z" fill="#B9C8DE"/>
<path d="M20.5723 26.1172H22.9943V26.7444H22.1571V29.9101H21.3946V26.7444H20.5723V26.1172Z" fill="#B9C8DE"/>
<path d="M24.7148 29.9098V26.1168H26.1352C26.4043 26.1019 26.6734 26.1915 26.8827 26.3707C27.0771 26.5648 27.1668 26.8336 27.1519 27.1024C27.1519 27.64 26.9425 27.9536 26.5239 28.0432C26.7332 28.0432 26.9276 28.1626 27.0173 28.3418C27.107 28.6106 27.1519 28.9093 27.1369 29.193C27.1369 29.3423 27.1369 29.5066 27.1668 29.6559C27.1668 29.7455 27.2266 29.8202 27.3014 29.8799V29.9098H26.4641C26.4043 29.7903 26.3595 29.6559 26.3744 29.5066V28.7749C26.3445 28.4613 26.195 28.297 25.896 28.297H25.4923V29.9098H24.7298H24.7148ZM25.4773 26.6843V27.7744H25.7913C26.0604 27.8192 26.3296 27.6251 26.3595 27.3563C26.3595 27.3115 26.3595 27.2667 26.3595 27.2069C26.3894 26.9531 26.2099 26.7142 25.9558 26.6843C25.9109 26.6843 25.8661 26.6843 25.8212 26.6843H25.4624H25.4773Z" fill="#B9C8DE"/>
<path d="M29.8563 29.9101H29.0938V26.1172H29.8563V29.9101Z" fill="#B9C8DE"/>
<path d="M31.5462 29.9101L32.5479 26.1172H33.4898L34.4916 29.9101H33.6991L33.5197 29.1037H32.5031L32.3237 29.9101H31.5312H31.5462ZM33.0264 26.7742L32.6526 28.4766H33.4001L33.0264 26.7742Z" fill="#B9C8DE"/>
<path d="M38.2754 29.9101H36.1523V26.1172H36.9148V29.2829H38.2754V29.9101Z" fill="#B9C8DE"/>
<path d="M43.4617 29.9101H42.6992V26.1172H43.4617V29.9101Z" fill="#B9C8DE"/>
<path d="M45.4212 26.1172H46.3183L47.2452 28.7155V26.1172H47.9479V29.9101H47.0658L46.1239 27.2521V29.9101H45.4062V26.1172H45.4212Z" fill="#B9C8DE"/>
<path d="M49.6673 26.1172H52.0894V26.7444H51.2521V29.9101H50.4896V26.7444H49.6523V26.1172H49.6673Z" fill="#B9C8DE"/>
<path d="M53.8079 26.1172H55.931V26.7444H54.5704V27.6403H55.8413V28.2675H54.5704V29.2829H55.9758V29.9101H53.793V26.1172H53.8079Z" fill="#B9C8DE"/>
<path d="M59.8789 29.9101H57.7559V26.1172H58.5184V29.2829H59.8789V29.9101Z" fill="#B9C8DE"/>
<path d="M63.7207 29.9101H61.5977V26.1172H62.3602V29.2829H63.7207V29.9101Z" fill="#B9C8DE"/>
<path d="M66.2488 29.9101H65.4863V26.1172H66.2488V29.9101Z" fill="#B9C8DE"/>
<path d="M70.629 27.2532H69.8964C69.8964 27.1039 69.8665 26.9546 69.7918 26.8351C69.732 26.7156 69.5974 26.626 69.4628 26.626C69.2685 26.626 69.104 26.7455 69.0592 26.9396C68.9545 27.2682 68.9246 27.6116 68.9396 27.9551C68.9396 28.3134 68.9545 28.6868 69.0293 29.0452C69.104 29.3139 69.2535 29.4483 69.4628 29.4483C69.5825 29.4483 69.6871 29.3886 69.7619 29.299C69.8815 29.1796 69.9413 29.0153 69.9263 28.8361V28.4478H69.418V27.8804H70.6739V29.9262H70.1057V29.5678C69.9413 29.8515 69.6273 30.0158 69.2984 29.9859C68.8499 29.9859 68.5359 29.8217 68.3714 29.4782C68.2219 29.1945 68.1621 28.6868 68.1621 27.9849C68.1621 27.2831 68.2518 26.8351 68.4312 26.5364C68.6106 26.2378 68.9695 26.0586 69.4329 26.0586C70.2104 26.0586 70.6141 26.4618 70.6141 27.2532H70.629Z" fill="#B9C8DE"/>
<path d="M72.5579 26.1172H74.681V26.7444H73.3204V27.6403H74.5913V28.2675H73.3204V29.2829H74.7258V29.9101H72.543V26.1172H72.5579Z" fill="#B9C8DE"/>
<path d="M76.4896 26.1172H77.3717L78.2986 28.7155V26.1172H79.0013V29.9101H78.1192L77.1773 27.2521V29.9101H76.4746V26.1172H76.4896Z" fill="#B9C8DE"/>
<path d="M83.3211 27.4019H82.5586C82.5586 27.1928 82.5437 26.9837 82.4539 26.7896C82.3792 26.6701 82.2446 26.5955 82.0951 26.6104C81.9008 26.6104 81.7363 26.7448 81.7064 26.9389C81.6316 27.3123 81.5868 27.6856 81.6167 28.0738C81.5868 28.4471 81.6316 28.8205 81.7363 29.1789C81.7812 29.3431 81.9456 29.4327 82.1101 29.4327C82.2446 29.4327 82.3792 29.373 82.4539 29.2535C82.5586 28.9997 82.6035 28.7309 82.5885 28.4621H83.366C83.3959 28.8354 83.3062 29.2087 83.1417 29.5372C82.9473 29.8359 82.6184 30.0002 82.1699 30.0002C81.7214 30.0002 81.2878 29.821 81.0934 29.4476C80.9439 29.1639 80.8691 28.6861 80.8691 28.0141C80.8691 27.3421 80.9439 26.8643 81.0934 26.5955C81.2878 26.2222 81.6466 26.043 82.1699 26.043C82.6483 26.043 82.9922 26.1923 83.1716 26.5059C83.3062 26.7896 83.366 27.1032 83.3361 27.4168L83.3211 27.4019Z" fill="#B9C8DE"/>
<path d="M85.1751 26.1172H87.2982V26.7444H85.9376V27.6403H87.2084V28.2675H85.9376V29.2829H87.343V29.9101H85.1602V26.1172H85.1751Z" fill="#B9C8DE"/>
</svg>
