<?xml version="1.0" encoding="UTF-8"?>
<svg id="Layer_1" xmlns="http://www.w3.org/2000/svg" version="1.1" viewBox="0 0 78 28">
  <!-- Generator: Adobe Illustrator 30.1.0, SVG Export Plug-In . SVG Version: 2.1.1 Build 136)  -->
  <defs>
    <style>
      .st0 {
        fill: #b9c8de;
      }
    </style>
  </defs>
  <path class="st0" d="M32.9,27.2c-2,0-3.8-.4-5.4-1.2-1.6-.8-2.8-1.9-3.7-3.4-.9-1.5-1.3-3.3-1.3-5.3s.4-4,1.3-5.7c.9-1.6,2.1-2.9,3.6-3.8,1.6-.9,3.4-1.4,5.4-1.4s3.9.5,5.3,1.4c1.4.9,2.5,2.2,3.2,3.9.7,1.7,1.1,3.7,1,6h-17.9v-3.4h15.1l-2.1,1.6c0-1.2-.2-2.2-.5-3.1-.3-.9-.8-1.6-1.5-2.1-.7-.5-1.5-.8-2.6-.8s-2,.3-2.8.9c-.8.6-1.4,1.4-1.8,2.5-.4,1.1-.7,2.4-.7,3.9s.2,2.5.7,3.4c.5,1,1.1,1.7,2,2.2.8.5,1.8.7,2.8.7s2.6-.4,3.5-1.1c.9-.8,1.6-1.7,2.1-2.9l4.1,2.5c-1.2,1.7-2.6,3-4.2,3.9-1.6.8-3.5,1.3-5.4,1.3Z"/>
  <path class="st0" d="M54.2,27.2c-2,0-3.8-.4-5.4-1.2s-2.8-1.9-3.7-3.4c-.9-1.5-1.3-3.3-1.3-5.3s.4-4,1.3-5.7,2.1-2.9,3.6-3.8c1.6-.9,3.4-1.4,5.4-1.4s3.9.5,5.3,1.4c1.4.9,2.5,2.2,3.2,3.9.7,1.7,1.1,3.7,1,6h-17.9v-3.4h15.1l-2.1,1.6c0-1.2-.2-2.2-.5-3.1-.3-.9-.8-1.6-1.5-2.1-.7-.5-1.5-.8-2.6-.8s-2,.3-2.8.9c-.8.6-1.4,1.4-1.8,2.5-.4,1.1-.7,2.4-.7,3.9s.2,2.5.7,3.4c.5,1,1.1,1.7,2,2.2.8.5,1.8.7,2.8.7s2.6-.4,3.5-1.1c.9-.8,1.6-1.7,2.1-2.9l4.1,2.5c-1.2,1.7-2.6,3-4.2,3.9-1.6.8-3.5,1.3-5.4,1.3Z"/>
  <path class="st0" d="M65.2.8h4.9v21.2c0,1.7,0,3.3.3,4.7h-5.1V.8Z"/>
  <path class="st0" d="M0,16.8C0,9.7,4.6,6.5,9.6,6.5s6.5,2.9,6.5,2.9V.8h5v21.2c0,1.7,0,3.3.2,4.7h-5.1v-2.4s-2,2.9-6.5,2.9S0,24.4,0,16.8ZM10.9,23.4c3.5,0,5.8-2.7,5.8-6.6s-2.3-6.6-5.8-6.6-5.7,2.4-5.7,6.6,2.3,6.6,5.7,6.6Z"/>
  <path class="st0" d="M73.2,22h4.8v4.6h-4.8v-4.6Z"/>
</svg>