<svg width="116" height="22" viewBox="0 0 116 22" fill="none" xmlns="http://www.w3.org/2000/svg">
<path d="M115.167 1.8261V2.89198C114.971 3.49407 114.71 3.95098 114.147 4.27724C114.058 4.3292 113.566 4.56759 113.519 4.56759H108.575V20.1386C108.575 20.2142 108.367 20.7567 108.311 20.866C107.565 22.3208 105.362 22.3788 104.528 20.9607C104.446 20.8209 104.206 20.3395 104.206 20.2142V4.56682H87.5731V17.3589H95.7363C96.2054 17.3589 96.9451 17.87 97.2333 18.2322C98.2213 19.4761 97.5644 21.2228 96.0859 21.6652L85.0053 21.6988C84.041 21.5315 83.2891 20.7269 83.2009 19.7604V2.31816C83.3059 1.11552 84.1008 0.32776 85.3096 0.223846H113.062C114.118 0.306366 114.787 0.87025 115.167 1.82534V1.8261Z" fill="#B9C8DE"/>
<path d="M24.107 0C24.6581 0.185669 25.0989 0.443161 25.4254 0.93675L34.2065 18.8634C35.2305 21.1556 32.4014 23.0742 30.62 21.2839L23.6456 7.15781C23.4463 7.1219 23.5275 7.18608 23.4869 7.26554C21.1368 11.8431 19.0803 16.5857 16.6704 21.1281C15.2309 22.8969 12.4362 21.6774 12.7973 19.4127C12.8992 18.774 13.681 17.3933 13.9999 16.724C16.5378 11.4099 19.2321 6.16452 21.7922 0.860343C22.1248 0.358349 22.4989 0.216996 23.0339 0L24.107 0Z" fill="#B9C8DE"/>
<path d="M0.880371 1.90174C1.1977 0.942063 1.89369 0.342268 2.9208 0.236063C6.21984 0.391933 9.76185 -0.00309145 13.0333 0.223073C14.6184 0.333099 15.8517 1.61521 15.1956 3.21594C14.9909 3.71564 14.1294 4.56681 13.566 4.56681H5.24944V19.9101C5.24944 20.5687 4.67533 21.4191 4.09049 21.7286C2.74221 22.4415 1.34717 21.6721 0.880371 20.3288V1.90174Z" fill="#B9C8DE"/>
<path d="M59.1329 4.56856V20.2924C59.1329 20.3344 58.9091 20.8494 58.86 20.9349C58.0989 22.2629 56.1397 22.3431 55.2375 21.1168C54.4472 20.0433 54.8343 18.1988 54.8451 16.9457C54.8795 12.8205 54.8113 8.69301 54.8412 4.56856H43.6886C41.8107 4.56856 39.6369 6.15248 38.7316 7.71577C36.1807 12.1199 39.3686 17.1207 44.3026 17.4363C45.6938 17.5249 47.6576 17.23 48.943 17.4714C51.044 17.8664 51.0777 21.2666 48.8663 21.6662C47.7994 21.8587 44.938 21.7724 43.7614 21.7044C39.3119 21.4476 35.3268 18.1278 34.1249 13.9162C32.1887 7.13125 37.079 0.629781 44.0718 0.229408H63.692C65.8689 0.307343 66.6208 3.2238 64.723 4.29732C64.6371 4.34622 64.119 4.56856 64.0761 4.56856H59.1321H59.1329Z" fill="#B9C8DE"/>
<path d="M71.0013 0.327201C73.3491 0.0635964 76.0955 0.474666 78.4855 0.312683C80.949 0.790991 80.8218 4.35385 78.2647 4.57314C76.1124 4.75804 73.7017 4.42567 71.5218 4.57543C70.461 4.82681 70.0356 6.10357 70.9822 6.77748C73.6519 8.92987 77.2254 10.6765 79.7931 12.8732C83.0776 15.6827 80.6141 21.3804 76.4259 21.7066C73.6703 21.9214 70.6304 21.5462 67.8449 21.6975C65.1751 20.8272 65.6289 17.5768 68.5248 17.3606C70.8151 17.1902 73.3783 17.5501 75.6372 17.421C76.6719 17.3621 77.01 16.1152 76.3009 15.429L67.3022 9.29204C64.496 6.13261 66.9113 0.787171 71.0021 0.328729L71.0013 0.327201Z" fill="#B9C8DE"/>
<path d="M90.3886 8.54952C91.5813 8.40664 94.0533 8.43032 95.2759 8.52583C97.9333 8.7329 97.7203 12.0719 95.571 12.3271C94.3875 12.4677 91.5729 12.4486 90.3641 12.3385C88.1336 12.1361 87.9297 8.84369 90.3886 8.54952Z" fill="#B9C8DE"/>
<path d="M8.14235 8.55067C9.34729 8.42078 11.574 8.43453 12.7981 8.52545C15.592 8.73175 15.3007 12.0623 13.2488 12.329C12.1075 12.4772 9.14494 12.4451 7.96299 12.3389C5.77462 12.141 5.46265 8.83872 8.14235 8.55067Z" fill="#B9C8DE"/>
<path d="M21.8606 14.4856C22.5137 14.3833 24.4591 14.394 25.1382 14.4665C26.9142 14.6568 27.5166 17.1247 25.8411 17.9836C25.0109 18.4091 22.109 18.4237 21.2888 17.9851C19.7489 17.1622 20.1804 14.7485 21.8598 14.4856H21.8606Z" fill="#B9C8DE"/>
</svg>
