<svg width="276" height="29" viewBox="0 0 276 29" fill="none" xmlns="http://www.w3.org/2000/svg">
<path d="M264.445 0L269.675 13.9071H266.573L265.675 11.5393L259.66 11.4868L258.545 13.9071H255.443L260.674 0H264.445ZM264.811 8.90544L262.501 2.80582L260.309 8.90544H264.811Z" fill="#B9C8DE"/>
<path d="M276.001 0V13.7851C275.116 14.0657 274.03 13.8315 273.08 13.9083V0H276.001Z" fill="#B9C8DE"/>
<path d="M137.209 0.00121951C137.376 0.214707 137.793 0.119553 138.06 0.123213C141.378 0.175669 144.646 1.47367 147.126 3.65977L147.12 4.14407L144.063 8.03929C141.644 6.03374 136.956 4.17214 133.925 5.55187C132.374 6.2582 131.584 8.28206 133.082 9.44587C134.644 10.6609 138.79 11.1757 140.829 11.8015C144.303 12.8665 147.598 14.6745 147.917 18.7221C148.383 24.6254 143.998 27.8753 138.546 28.1814C138.237 28.1985 137.779 28.0754 137.573 28.3034H136.478C136.376 28.1082 136.064 28.185 135.87 28.1814C132.126 28.1192 128.011 26.7407 125.525 23.8508L128.636 19.52C129.805 20.5436 130.858 21.4256 132.298 22.0647C134.58 23.0772 141.048 24.2069 141.894 20.8656C142.531 18.3537 140.115 17.6426 138.244 17.0777C134.28 15.8834 128.096 15.4308 126.66 10.6402C124.886 4.71866 129.857 0.413555 135.384 0.121992C135.563 0.112233 135.73 0.15493 135.871 0L137.209 0.00121951Z" fill="#B9C8DE"/>
<path d="M138.547 28.1803V28.3022H137.574C137.781 28.0741 138.238 28.1974 138.547 28.1803Z" fill="#B9C8DE"/>
<path d="M138.061 0V0.121993C137.793 0.118333 137.376 0.213487 137.209 0H138.061Z" fill="#B9C8DE"/>
<path d="M136.479 28.3038H135.871V28.1818C136.066 28.1855 136.377 28.1086 136.479 28.3038Z" fill="#B9C8DE"/>
<path d="M135.871 0C135.73 0.15493 135.564 0.112233 135.385 0.121993V0H135.871Z" fill="#B9C8DE"/>
<path d="M180.878 0.488281V5.61197H172.971V27.8145H167.193L167.012 27.6315V5.61197H159.105V0.488281H180.878Z" fill="#B9C8DE"/>
<path d="M95.3653 0.488281L107.615 17.7783L107.894 17.9331V0.488281H113.733V27.8145H108.077L95.4674 9.96221L95.122 9.75971V27.8145H89.2832V0.488281H95.3653Z" fill="#B9C8DE"/>
<path d="M58.8739 0.488281V5.48997H45.5544L45.3718 5.67296V11.3456H58.4481L58.6306 11.5286V16.2863L58.4481 16.4693H45.5544L45.3718 16.6523V27.8145H39.7156L39.5332 27.6315V0.488281H58.8739Z" fill="#B9C8DE"/>
<path d="M76.8757 0.488281H71.0371V27.8145H76.8757V0.488281Z" fill="#B9C8DE"/>
<path d="M26.8822 0.488281H0V8.17379H26.8822V0.488281Z" fill="#B9C8DE"/>
<path d="M17.2728 10.125H0V17.8104H17.2728V10.125Z" fill="#B9C8DE"/>
<path d="M7.66329 19.7637H0V27.4492H7.66329V19.7637Z" fill="#B9C8DE"/>
<path d="M13.4162 27.3897C15.5176 27.3897 17.2212 25.6812 17.2212 23.5738C17.2212 21.4663 15.5176 19.7578 13.4162 19.7578C11.3148 19.7578 9.61133 21.4663 9.61133 23.5738C9.61133 25.6812 11.3148 27.3897 13.4162 27.3897Z" fill="#B9C8DE"/>
<path d="M23.0185 27.3912C25.1193 27.3912 26.8222 25.6833 26.8222 23.5765C26.8222 21.4696 25.1193 19.7617 23.0185 19.7617C20.9178 19.7617 19.2148 21.4696 19.2148 23.5765C19.2148 25.6833 20.9178 27.3912 23.0185 27.3912Z" fill="#B9C8DE"/>
<path d="M23.0166 17.7583C25.1172 17.7583 26.8201 16.0504 26.8201 13.9435C26.8201 11.8368 25.1172 10.1289 23.0166 10.1289C20.9158 10.1289 19.2129 11.8368 19.2129 13.9435C19.2129 16.0504 20.9158 17.7583 23.0166 17.7583Z" fill="#B9C8DE"/>
<path d="M199.123 5.48996V11.3456H212.26V16.4693H199.123V22.6909H212.443L212.626 22.8739V27.6316L212.443 27.8146H193.285V0.488281H212.443L212.626 0.671266V5.30697L212.443 5.48996H199.123Z" fill="#B9C8DE"/>
<path d="M238.84 0.488281C239.621 0.563911 240.959 0.967711 241.693 1.28612C248.581 4.27004 248.282 15.5641 240.722 17.3867L246.685 27.8158H240.176L234.703 18.0563H230.506V27.8158H224.668V0.488281H238.84ZM230.507 12.9315H237.623C237.907 12.9315 239.167 12.2752 239.429 12.0593C241.34 10.488 240.94 7.09538 238.703 5.99258C238.513 5.89863 237.383 5.48996 237.259 5.48996H230.507V12.9315Z" fill="#B9C8DE"/>
</svg>
