<svg width="118" height="30" viewBox="0 0 118 30" fill="none" xmlns="http://www.w3.org/2000/svg">
<path fill-rule="evenodd" clip-rule="evenodd" d="M23.0213 28.0396L23.293 21.6135C23.3064 21.3002 23.1504 21.0039 22.8857 20.839L17.3216 17.3688C16.5839 16.9091 16.9079 15.7637 17.7754 15.7637H31.7194C32.414 15.7637 32.8234 16.5481 32.4295 17.1236L24.5925 28.569C24.1012 29.2859 22.9846 28.9093 23.0213 28.0396Z" fill="#B9C8DE"/>
<mask id="mask0_1149_1113" style="mask-type:luminance" maskUnits="userSpaceOnUse" x="0" y="0" width="30" height="30">
<path d="M0 0H29.1821V30H0V0Z" fill="#B9C8DE"/>
</mask>
<g mask="url(#mask0_1149_1113)">
<path fill-rule="evenodd" clip-rule="evenodd" d="M14.9012 24.3143C9.64265 24.3143 5.40898 19.8991 5.65885 14.5501C5.8812 9.79307 9.70689 5.932 14.4325 5.69752C18.4184 5.49928 21.8842 7.84264 23.3749 11.2575C23.4949 11.5325 23.7631 11.7115 24.061 11.7108L28.3222 11.708C28.9059 11.708 29.3146 11.1374 29.1424 10.5754C27.2168 4.28639 21.2948 -0.237604 14.3605 0.0096638C6.46493 0.290326 0.111604 6.83367 0.00149231 14.786C-0.114972 23.1682 6.60045 30.0001 14.9012 30.0001C16.3023 30.0001 17.6575 29.8054 18.9429 29.4409C19.3008 29.34 19.552 29.016 19.5676 28.6422L19.7631 24.0159C19.7836 23.5363 19.2895 23.2137 18.8582 23.4198C17.6582 23.9932 16.3171 24.3143 14.9012 24.3143Z" fill="#B9C8DE"/>
</g>
<path fill-rule="evenodd" clip-rule="evenodd" d="M50.7871 13.3623V2.05975C50.7871 1.9489 50.876 1.85938 50.9862 1.85938H52.124C52.2334 1.85938 52.323 1.9489 52.323 2.05975V13.3623C52.323 13.4731 52.2334 13.5627 52.124 13.5627H50.9862C50.876 13.5627 50.7871 13.4731 50.7871 13.3623Z" fill="#B9C8DE"/>
<path fill-rule="evenodd" clip-rule="evenodd" d="M61.4151 1.85938H62.5678C62.7012 1.85938 62.7965 1.98869 62.7584 2.1173L59.3851 13.4198C59.3597 13.5044 59.2821 13.5627 59.1945 13.5627H58.0221C57.9346 13.5627 57.857 13.5051 57.8315 13.4198L54.4421 2.11801C54.4039 1.9894 54.4992 1.85938 54.6326 1.85938H55.7846C55.8735 1.85938 55.9512 1.91764 55.9759 2.00361L58.5 10.6388C58.5296 10.739 58.6708 10.739 58.6997 10.6388L61.2238 2.00361C61.2493 1.91764 61.3269 1.85938 61.4151 1.85938Z" fill="#B9C8DE"/>
<path fill-rule="evenodd" clip-rule="evenodd" d="M64.9121 13.3623V2.05975C64.9121 1.9489 65.001 1.85938 65.1112 1.85938H66.2483C66.3584 1.85938 66.4473 1.9489 66.4473 2.05975V13.3623C66.4473 13.4731 66.3584 13.5627 66.2483 13.5627H65.1112C65.001 13.5627 64.9121 13.4731 64.9121 13.3623Z" fill="#B9C8DE"/>
<path fill-rule="evenodd" clip-rule="evenodd" d="M76.7219 1.85938H77.859C77.9691 1.85938 78.0587 1.9489 78.0587 2.05975V13.3623C78.0587 13.4731 77.9691 13.5627 77.859 13.5627H76.6859C76.616 13.5627 76.5511 13.5264 76.5151 13.466L71.4005 4.96585C71.3461 4.87561 71.2078 4.91469 71.2078 5.02056V13.3623C71.2078 13.4731 71.1182 13.5627 71.008 13.5627H69.8709C69.7615 13.5627 69.6719 13.4731 69.6719 13.3623V2.05975C69.6719 1.9489 69.7615 1.85938 69.8709 1.85938H71.0786C71.1485 1.85938 71.2127 1.89632 71.2487 1.95601L76.3294 10.4214C76.3838 10.5123 76.5228 10.4732 76.5228 10.3667V2.05975C76.5228 1.9489 76.6118 1.85938 76.7219 1.85938Z" fill="#B9C8DE"/>
<path fill-rule="evenodd" clip-rule="evenodd" d="M54.8805 26.777C53.094 26.777 51.7967 25.3794 51.7967 23.4538C51.7967 21.5382 53.094 20.1477 54.8805 20.1477C56.6776 20.1477 57.9813 21.5382 57.9813 23.4538C57.9813 25.3794 56.6776 26.777 54.8805 26.777ZM54.8974 17.373C51.5757 17.373 48.873 20.1008 48.873 23.4538C48.873 26.8161 51.5757 29.5517 54.8974 29.5517C58.21 29.5517 60.9049 26.8161 60.9049 23.4538C60.9049 20.1008 58.21 17.373 54.8974 17.373Z" fill="#B9C8DE"/>
<path fill-rule="evenodd" clip-rule="evenodd" d="M72.3033 17.64L69.2307 24.3716C69.194 24.4526 69.0797 24.4533 69.0422 24.3723L65.9224 17.6393C65.8899 17.5682 65.8193 17.5234 65.7424 17.5234H63.6411C63.5402 17.5234 63.4555 17.5988 63.4435 17.6989L62.0367 29.1741C62.0219 29.2935 62.1151 29.3994 62.2343 29.3994H64.8086C64.9095 29.3994 64.9942 29.3233 65.0062 29.2225L65.6704 23.541C65.6824 23.4365 65.8222 23.4131 65.8673 23.5076L67.9926 27.957C68.0258 28.0259 68.095 28.07 68.1719 28.07H70.1045C70.1808 28.07 70.2506 28.0259 70.2838 27.9563L72.407 23.4969C72.4522 23.4024 72.5926 23.4259 72.6039 23.5303L73.2533 29.2217C73.2653 29.3226 73.35 29.3994 73.4517 29.3994H76.0252C76.1445 29.3994 76.2376 29.2942 76.2228 29.1741L74.833 17.6997C74.821 17.5988 74.7363 17.5234 74.6354 17.5234H72.4839C72.4063 17.5234 72.3357 17.5689 72.3033 17.64Z" fill="#B9C8DE"/>
<path fill-rule="evenodd" clip-rule="evenodd" d="M82.8431 22.8731H81.0834C81.0255 22.8731 80.9789 22.8262 80.9789 22.7686V20.2178C80.9789 20.1602 81.0255 20.1134 81.0834 20.1134H82.8593C83.7409 20.1134 84.055 20.8303 84.055 21.501C84.055 22.1647 83.7367 22.8731 82.8431 22.8731ZM82.9603 17.5234H78.2713C78.1612 17.5234 78.0723 17.613 78.0723 17.7238V29.199C78.0723 29.3099 78.1612 29.3994 78.2713 29.3994H80.7799C80.89 29.3994 80.9789 29.3099 80.9789 29.199V25.4623H82.9603C85.7356 25.4623 86.9786 23.4728 86.9786 21.501C86.9786 19.5215 85.7356 17.5234 82.9603 17.5234Z" fill="#B9C8DE"/>
<path fill-rule="evenodd" clip-rule="evenodd" d="M91.2047 23.9986L92.1569 20.9987C92.188 20.9013 92.3242 20.9013 92.3553 20.998L93.3194 23.9979C93.3413 24.0661 93.2912 24.135 93.2206 24.135H91.3042C91.2337 24.135 91.1835 24.0661 91.2047 23.9986ZM90.7043 17.6542L86.4854 29.1294C86.4367 29.2608 86.5334 29.3994 86.6718 29.3994H89.3547C89.4415 29.3994 89.5177 29.3432 89.5446 29.2601L90.3083 26.8471C90.3344 26.764 90.4114 26.7079 90.4982 26.7079H94.0458C94.1319 26.7079 94.2088 26.764 94.2349 26.8464L95.0149 29.2608C95.0417 29.344 95.1179 29.3994 95.2041 29.3994H97.8707C98.0091 29.3994 98.1051 29.2608 98.0571 29.1301L93.8552 17.6549C93.8262 17.576 93.7514 17.5234 93.6681 17.5234H90.8913C90.808 17.5234 90.7332 17.576 90.7043 17.6542Z" fill="#B9C8DE"/>
<path fill-rule="evenodd" clip-rule="evenodd" d="M104.183 22.2573L102.977 21.8864C102.291 21.6924 101.944 21.3819 101.944 20.9641C101.944 20.3744 102.442 19.9622 103.156 19.9622C103.861 19.9622 104.195 20.3481 104.297 20.7879C104.325 20.9108 104.458 20.9776 104.572 20.925L106.861 19.877C106.957 19.8336 107.005 19.7214 106.965 19.624C106.408 18.2356 105.037 17.373 103.206 17.373C100.771 17.373 99.0039 18.9043 99.0039 21.0138C99.0039 22.2168 99.5467 23.797 102.129 24.4983L103.496 24.9183C104.53 25.2593 104.669 25.653 104.669 25.994C104.669 26.7323 103.965 26.9952 103.306 26.9952C102.694 26.9952 102.183 26.7195 101.951 26.3159C101.899 26.2264 101.79 26.188 101.695 26.2313L99.4225 27.2723C99.3159 27.3213 99.275 27.4513 99.3314 27.5551C100.003 28.7822 101.412 29.551 103.206 29.551C105.39 29.551 107.592 28.4098 107.592 25.859C107.592 23.5725 105.647 22.7085 104.183 22.2573Z" fill="#B9C8DE"/>
<path fill-rule="evenodd" clip-rule="evenodd" d="M114.027 22.2573L112.821 21.8864C112.135 21.6924 111.788 21.3819 111.788 20.9641C111.788 20.3744 112.286 19.9622 112.999 19.9622C113.705 19.9622 114.04 20.3481 114.141 20.7879C114.169 20.9108 114.302 20.9776 114.416 20.925L116.704 19.877C116.8 19.8336 116.848 19.7214 116.809 19.624C116.251 18.2356 114.881 17.373 113.05 17.373C110.615 17.373 108.848 18.9043 108.848 21.0138C108.848 22.2168 109.39 23.797 111.972 24.4983L113.34 24.9183C114.374 25.2593 114.513 25.653 114.513 25.994C114.513 26.7323 113.809 26.9952 113.15 26.9952C112.538 26.9952 112.027 26.7195 111.795 26.3159C111.742 26.2264 111.634 26.188 111.539 26.2313L109.266 27.2723C109.16 27.3213 109.119 27.4513 109.175 27.5551C109.846 28.7822 111.256 29.551 113.05 29.551C115.233 29.551 117.436 28.4098 117.436 25.859C117.436 23.5725 115.49 22.7085 114.027 22.2573Z" fill="#B9C8DE"/>
<path fill-rule="evenodd" clip-rule="evenodd" d="M86.521 8.28427V9.42894C86.521 9.53979 86.6099 9.63003 86.72 9.63003H90.5478C90.6248 9.63003 90.677 9.71103 90.6431 9.78066C89.8434 11.4099 88.1211 12.497 86.1617 12.3478C83.9002 12.1745 82.0763 10.3136 81.933 8.03487C81.7629 5.34193 83.8825 3.10444 86.521 3.10444C88.2969 3.10444 89.8371 4.11909 90.6029 5.60269C90.6523 5.69862 90.7659 5.74125 90.8634 5.69649L91.812 5.26235C91.9137 5.21545 91.9595 5.09182 91.9094 4.99092C90.8619 2.89767 88.6477 1.4972 86.1257 1.65921C83.0468 1.85745 80.5862 4.42604 80.4931 7.52967C80.39 10.9687 83.1287 13.7888 86.521 13.7888C89.6564 13.7888 92.2313 11.3801 92.5235 8.30061C92.5341 8.18408 92.4402 8.08389 92.3237 8.08389H86.72C86.6099 8.08389 86.521 8.17342 86.521 8.28427Z" fill="#B9C8DE"/>
<path fill-rule="evenodd" clip-rule="evenodd" d="M43.1343 8.26278V9.40746C43.1343 9.5183 43.2232 9.60854 43.3333 9.60854H47.1611C47.2381 9.60854 47.2903 9.68954 47.2564 9.75918C46.4567 11.3884 44.7344 12.4756 42.775 12.3264C40.5135 12.153 38.6895 10.2921 38.5463 8.01338C38.3762 5.32044 40.4958 3.08296 43.1343 3.08296C44.9102 3.08296 46.4503 4.09761 47.2162 5.58121C47.2656 5.67713 47.3792 5.71977 47.4766 5.675L48.4253 5.24086C48.5269 5.19397 48.5728 5.07033 48.5227 4.96944C47.4752 2.87619 45.261 1.47572 42.739 1.63772C39.6601 1.83596 37.1995 4.40456 37.1063 7.50819C37.0033 10.9472 39.7413 13.7673 43.1343 13.7673C46.2696 13.7673 48.8446 11.3586 49.1368 8.27912C49.1474 8.1626 49.0535 8.06241 48.937 8.06241H43.3333C43.2232 8.06241 43.1343 8.15194 43.1343 8.26278Z" fill="#B9C8DE"/>
<path fill-rule="evenodd" clip-rule="evenodd" d="M43.1873 26.7603C41.2497 26.7603 39.7046 25.0721 39.9234 23.0776C40.0935 21.5272 41.3619 20.2888 42.9063 20.1594C44.0851 20.0607 45.1481 20.59 45.8003 21.4505C45.8652 21.5365 45.9881 21.5514 46.0756 21.4903L48.0004 20.1459C48.0922 20.082 48.1155 19.9541 48.0498 19.8639C46.8937 18.2794 44.9928 17.2803 42.8661 17.3912C39.7547 17.5539 37.2455 20.1452 37.1586 23.2808C37.064 26.7127 39.7992 29.525 43.1873 29.525C45.1834 29.525 46.9523 28.5481 48.0498 27.0438C48.1162 26.9543 48.0922 26.8264 48.0011 26.7625L46.0714 25.4146C45.9824 25.3528 45.8624 25.3755 45.7968 25.4622C45.1961 26.2516 44.251 26.7603 43.1873 26.7603Z" fill="#B9C8DE"/>
</svg>
