<svg width="118" height="60" viewBox="0 0 118 60" fill="none" xmlns="http://www.w3.org/2000/svg">
<g clip-path="url(#clip0_1864_1319)">
<path d="M58.983 3.40171C45.1196 3.40171 31.2562 3.40171 17.3928 3.40171C15.8945 3.40171 14.4101 3.44319 12.9258 3.71975C9.48092 4.3835 6.68024 5.97373 4.99983 9.14035C4.03359 10.9795 3.51547 12.9569 3.48746 15.0035C3.43145 20.6038 3.45945 26.2042 3.45945 31.7907C3.45945 32.7864 3.59949 33.7681 3.79553 34.7499C4.63574 38.8016 6.86228 41.7193 10.9233 43.0883C12.8277 43.7244 14.7882 43.9318 16.7907 43.9318C25.8649 43.9318 34.9531 43.9318 44.0273 43.9318C45.5257 43.9318 47.0241 44.0009 48.4944 44.2222C52.7935 44.8859 56.4064 46.6283 58.5909 50.5554C58.8149 50.9703 58.969 50.9841 59.207 50.5554C60.2013 48.7578 61.5876 47.3058 63.3801 46.2411C66.2648 44.5126 69.4715 43.9594 72.7623 43.9456C82.0326 43.9041 91.3169 43.9318 100.587 43.9456C102.029 43.9456 103.472 43.9041 104.9 43.6276C108.373 42.9638 111.202 41.3598 112.868 38.1516C113.946 36.0913 114.394 33.8511 114.408 31.5557C114.45 26.619 114.408 21.6686 114.437 16.732C114.437 15.4736 114.324 14.2153 114.114 12.9707C113.316 8.11708 110.362 4.99193 105.53 3.85803C103.892 3.47085 102.24 3.40171 100.559 3.40171C86.6957 3.40171 72.8324 3.40171 58.969 3.40171H58.983ZM58.927 0C73.1404 0 87.3539 0 101.553 0C103.92 0 106.245 0.331874 108.499 1.10625C113.4 2.77944 116.173 6.29177 117.279 11.1869C117.699 13.0122 117.867 14.8652 117.867 16.732C117.867 21.558 117.867 26.384 117.867 31.1961C117.867 33.1597 117.601 35.1095 117.069 37.0177C115.501 42.6181 111.692 45.7986 105.992 46.891C104.368 47.1952 102.744 47.3473 101.091 47.3335C91.667 47.3335 82.2427 47.3335 72.8184 47.3335C71.544 47.3335 70.2697 47.4579 69.0234 47.7345C64.1923 48.8131 61.3216 51.9659 60.7474 56.8334C60.6914 57.3173 60.6354 57.8013 60.5934 58.2715C60.4954 59.3224 59.8232 59.9723 58.8569 59.9723C57.8907 59.9723 57.2326 59.2948 57.1625 58.23C57.0365 56.3079 56.6584 54.4273 55.7622 52.6988C54.1938 49.6843 51.5472 48.2185 48.2844 47.6239C47.0521 47.4026 45.8058 47.3058 44.5455 47.3058C35.1212 47.3058 25.6969 47.3058 16.2726 47.3058C14.2561 47.3058 12.2536 47.0569 10.3071 46.5176C4.71976 44.9551 1.58299 41.2215 0.448719 35.7041C0.154647 34.2106 0.00060936 32.6757 0.00060936 31.1132C0.0146128 25.8032 -0.0414009 20.4932 0.0426196 15.197C0.0846298 12.1825 0.756794 9.27864 2.32518 6.6513C4.4677 3.08366 7.78651 1.24453 11.7915 0.456326C13.4999 0.110625 15.2363 0 16.9867 0C30.9762 0 44.9656 0 58.955 0L58.927 0Z" fill="white"/>
<path d="M75.9408 22.2494C76.3469 22.2494 77.131 22.2909 77.8872 22.0558C78.5454 21.8484 78.8955 21.3921 78.9375 20.7145C78.9795 20.0507 78.6154 19.6082 78.0133 19.3732C77.7052 19.2487 77.3551 19.1519 77.019 19.1381C76.0668 19.1104 75.1146 19.1381 74.1623 19.1104C73.7702 19.1104 73.5602 19.2487 73.5742 19.6636C73.5742 19.8848 73.5742 20.0922 73.5742 20.3135C73.5742 21.5949 74.363 22.2356 75.9408 22.2356V22.2494ZM76.0388 29.1081V29.0805C76.6969 29.0805 77.3551 29.122 78.0133 29.0805C79.0635 29.0113 79.6657 28.4582 79.6937 27.6147C79.7357 26.6882 79.2035 26.1351 78.1393 25.9553C76.795 25.7479 75.4506 25.8585 74.1063 25.8309C73.7422 25.8309 73.5742 25.983 73.5742 26.3563C73.5742 27.0754 73.5742 27.8083 73.5742 28.5273C73.5742 28.9698 73.7842 29.122 74.2043 29.122C74.8205 29.122 75.4226 29.122 76.0388 29.122V29.1081ZM81.6121 23.7013C81.8922 23.8396 82.0602 23.9226 82.2423 23.9917C84.0907 24.7799 84.987 26.2734 85.015 28.1816C85.043 30.1176 84.1608 31.6248 82.3403 32.5237C80.7999 33.2842 79.1335 33.4363 77.4811 33.464C74.7645 33.5193 72.0338 33.464 69.3171 33.4916C68.561 33.4916 68.3509 33.2427 68.3649 32.5237C68.3929 26.9509 68.3649 21.3782 68.3649 15.8055C68.3649 14.8514 68.3929 14.8237 69.3591 14.8237C72.1738 14.8237 75.0025 14.8237 77.8172 14.8237C79.1475 14.8237 80.4499 15.045 81.6681 15.6258C83.2085 16.3725 84.0907 17.5755 84.1748 19.2764C84.2728 21.0878 83.6286 22.5536 81.9482 23.4524C81.8642 23.4939 81.7942 23.5492 81.5981 23.6737" fill="white"/>
<path d="M101.216 24.1715C101.216 21.4612 99.1577 19.2763 96.6231 19.2902C94.0745 19.304 91.988 21.5303 92.03 24.1991C92.072 26.9371 94.0325 28.956 96.6651 28.9422C99.2978 28.9422 101.23 26.9094 101.216 24.1715ZM106.692 24.1438C106.678 29.039 102.981 33.699 96.5951 33.7267C90.9657 33.7543 86.6527 29.841 86.6387 24.13C86.6387 18.6126 90.9097 14.5748 96.6791 14.6163C102.757 14.6439 106.608 18.737 106.692 24.1438Z" fill="white"/>
<path d="M61.4614 24.2821C61.4894 21.4335 59.6129 19.3731 56.9383 19.304C54.4597 19.2349 52.2611 21.475 52.2191 24.1023C52.1771 26.7297 54.2776 28.9283 56.8403 28.956C59.5289 28.9836 61.4194 27.0477 61.4474 24.2821H61.4614ZM66.9367 24.1576C67.0487 28.9698 63.1838 33.7682 56.8683 33.7543C50.4547 33.7267 46.8698 29.0804 46.8838 24.1576C46.8978 18.8062 51.0428 14.6163 56.8823 14.6439C63.1278 14.6716 66.9647 18.8753 66.9507 24.1715" fill="white"/>
<path d="M26.2005 22.5398C27.3768 22.5398 28.5531 22.5537 29.7294 22.5398C30.2895 22.526 30.5276 22.7196 30.5276 23.2865C30.5136 25.6097 30.5276 27.9328 30.5276 30.2697C30.5276 30.6292 30.4296 30.9196 30.1215 31.1547C26.4106 34.0448 20.4591 34.8745 16.3561 32.0535C12.8833 29.6613 11.707 26.2872 12.4072 22.2633C13.0513 18.6127 16.1601 15.6396 19.955 14.8791C23.3438 14.2015 26.4246 14.8929 29.2113 16.898C29.7154 17.2575 29.7434 17.5202 29.3093 17.9766C28.5531 18.7924 27.8389 19.6636 27.1248 20.5348C26.8027 20.9219 26.5786 20.9219 26.1585 20.6454C24.4641 19.5115 22.6297 18.9445 20.5992 19.6498C18.4426 20.3965 17.2243 22.6366 17.6024 25.1118C17.9525 27.435 19.731 29.0528 22.0275 29.1358C22.9377 29.1635 23.834 29.1358 24.7022 28.8039C25.2203 28.5965 25.5284 28.32 25.4583 27.7254C25.4163 27.435 25.4443 27.1446 25.4583 26.8542C25.4724 26.4532 25.2903 26.2872 24.8842 26.3011C24.1 26.3011 23.3158 26.2734 22.5316 26.3011C21.9435 26.3287 21.7474 26.0798 21.7755 25.5267C21.8035 24.78 21.8035 24.0194 21.7755 23.2727C21.7614 22.7472 21.9575 22.5398 22.5036 22.5537C23.7359 22.5813 24.9542 22.5537 26.1865 22.5537" fill="white"/>
<path d="M32.5996 24.1853C32.5996 21.3782 32.6136 18.5573 32.5996 15.7502C32.5996 15.0588 32.8377 14.8098 33.5378 14.8375C34.6581 14.879 35.7924 14.8375 36.9267 14.8375C37.9629 14.8375 37.9629 14.8375 37.9629 15.8331C37.9629 19.788 37.9629 23.729 37.9629 27.6838C37.9629 28.6517 37.9629 28.6656 38.9291 28.6656C41.3377 28.6656 43.7323 28.6794 46.1409 28.6656C46.8131 28.6656 47.0651 28.8868 47.0511 29.5506C47.0231 30.5877 47.0231 31.6386 47.0511 32.6757C47.0511 33.2427 46.8551 33.5054 46.2389 33.5054C41.9679 33.4916 37.6968 33.4916 33.4398 33.5054C32.7676 33.5054 32.6136 33.2012 32.6136 32.6204C32.6276 29.8133 32.6136 26.9924 32.6136 24.1853" fill="white"/>
</g>
<defs>
<clipPath id="clip0_1864_1319">
<rect width="117.895" height="60" fill="white"/>
</clipPath>
</defs>
</svg>
