<svg width="59" height="30" viewBox="0 0 59 30" fill="none" xmlns="http://www.w3.org/2000/svg">
<mask id="mask0_1149_1136" style="mask-type:luminance" maskUnits="userSpaceOnUse" x="0" y="0" width="59" height="30">
<path d="M58.9475 0H0V30H58.9475V0Z" fill="white"/>
</mask>
<g mask="url(#mask0_1149_1136)">
<path d="M29.492 1.70086C22.5603 1.70086 15.6286 1.70086 8.69689 1.70086C7.94774 1.70086 7.20554 1.72159 6.46339 1.85987C4.74095 2.19175 3.34061 2.98687 2.5004 4.57018C2.01728 5.48975 1.75822 6.47845 1.74422 7.50175C1.71621 10.3019 1.73021 13.1021 1.73021 15.8954C1.73021 16.3932 1.80023 16.8841 1.89825 17.375C2.31836 19.4008 3.43163 20.8596 5.46214 21.5441C6.41434 21.8622 7.39459 21.9659 8.39584 21.9659C12.9329 21.9659 17.477 21.9659 22.0141 21.9659C22.7633 21.9659 23.5125 22.0004 24.2477 22.1111C26.3972 22.4429 28.2037 23.3142 29.2959 25.2777C29.4079 25.4852 29.485 25.4921 29.604 25.2777C30.1011 24.3789 30.7943 23.6529 31.6905 23.1206C33.1329 22.2563 34.7362 21.9797 36.3816 21.9728C41.0168 21.952 45.6589 21.9659 50.294 21.9728C51.015 21.9728 51.7365 21.9521 52.4505 21.8138C54.187 21.4819 55.6015 20.6799 56.4345 19.0758C56.9735 18.0456 57.1975 16.9256 57.2045 15.7779C57.2255 13.3095 57.2045 10.8343 57.219 8.366C57.219 7.7368 57.1625 7.10765 57.0575 6.48535C56.6585 4.05854 55.1815 2.49597 52.7655 1.92902C51.9465 1.73543 51.1205 1.70086 50.28 1.70086C43.3483 1.70086 36.4167 1.70086 29.485 1.70086H29.492ZM29.464 0C36.5707 0 43.6774 0 50.777 0C51.9605 0 53.123 0.165937 54.25 0.553125C56.7005 1.38972 58.087 3.14588 58.64 5.59345C58.85 6.5061 58.934 7.4326 58.934 8.366C58.934 10.779 58.934 13.192 58.934 15.5981C58.934 16.5799 58.801 17.5548 58.535 18.5089C57.751 21.3091 55.8465 22.8993 52.9965 23.4455C52.1845 23.5976 51.3725 23.6736 50.546 23.6667C45.834 23.6667 41.1218 23.6667 36.4097 23.6667C35.7725 23.6667 35.1353 23.729 34.5122 23.8673C32.0966 24.4066 30.6613 25.983 30.3742 28.4167C30.3462 28.6587 30.3182 28.9006 30.2972 29.1357C30.2482 29.6612 29.9121 29.9862 29.4289 29.9862C28.9458 29.9862 28.6168 29.6474 28.5817 29.115C28.5187 28.1539 28.3297 27.2136 27.8816 26.3494C27.0974 24.8421 25.7741 24.1093 24.1427 23.812C23.5265 23.7013 22.9034 23.6529 22.2732 23.6529C17.5611 23.6529 12.8489 23.6529 8.13679 23.6529C7.12854 23.6529 6.12729 23.5285 5.15404 23.2588C2.36037 22.4776 0.791983 20.6108 0.224848 17.8521C0.0778118 17.1053 0.000792962 16.3378 0.000792962 15.5566C0.00779468 12.9016 -0.0202122 10.2466 0.0217981 7.5985C0.0428032 6.09125 0.378885 4.63932 1.16308 3.32565C2.23434 1.54183 3.89374 0.622265 5.89624 0.228163C6.75044 0.0553125 7.61864 0 8.49384 0C15.4886 0 22.4833 0 29.478 0H29.464Z" fill="#B9C8DE"/>
<path d="M37.9699 11.125C38.173 11.125 38.565 11.1457 38.9431 11.0282C39.2722 10.9245 39.4473 10.6963 39.4683 10.3575C39.4893 10.0256 39.3072 9.80436 39.0062 9.68686C38.8521 9.62461 38.6771 9.57621 38.509 9.56931C38.0329 9.55546 37.5568 9.56931 37.0807 9.55546C36.8846 9.55546 36.7796 9.62461 36.7866 9.83206C36.7866 9.94266 36.7866 10.0464 36.7866 10.157C36.7866 10.7977 37.181 11.1181 37.9699 11.1181V11.125ZM38.0189 14.5543V14.5405C38.348 14.5405 38.6771 14.5613 39.0062 14.5405C39.5313 14.5059 39.8324 14.2294 39.8464 13.8076C39.8674 13.3444 39.6013 13.0678 39.0692 12.9779C38.397 12.8742 37.7248 12.9295 37.0527 12.9157C36.8706 12.9157 36.7866 12.9918 36.7866 13.1784C36.7866 13.538 36.7866 13.9044 36.7866 14.2639C36.7866 14.4852 36.8916 14.5613 37.1017 14.5613C37.4098 14.5613 37.7108 14.5613 38.0189 14.5613V14.5543ZM40.8056 11.8509C40.9456 11.9201 41.0296 11.9616 41.1207 11.9961C42.0449 12.3902 42.493 13.137 42.507 14.0911C42.521 15.0591 42.0799 15.8127 41.1697 16.2621C40.3995 16.6424 39.5663 16.7184 38.7401 16.7323C37.3818 16.7599 36.0164 16.7323 34.6581 16.7461C34.28 16.7461 34.175 16.6216 34.182 16.2621C34.196 13.4757 34.182 10.6894 34.182 7.90301C34.182 7.42596 34.196 7.41211 34.6791 7.41211C36.0864 7.41211 37.5008 7.41211 38.9081 7.41211C39.5733 7.41211 40.2245 7.52276 40.8336 7.81316C41.6038 8.18651 42.0449 8.78801 42.0869 9.63846C42.1359 10.5442 41.8138 11.2771 40.9736 11.7265C40.9316 11.7472 40.8966 11.7749 40.7986 11.8371" fill="#B9C8DE"/>
<path d="M50.609 12.0864C50.609 10.7312 49.5798 9.63875 48.3125 9.6457C47.0382 9.6526 45.995 10.7658 46.016 12.1002C46.037 13.4692 47.0172 14.4786 48.3335 14.4717C49.6499 14.4717 50.616 13.4553 50.609 12.0864ZM53.347 12.0725C53.34 14.5201 51.4915 16.8501 48.2985 16.864C45.4838 16.8778 43.3273 14.9211 43.3203 12.0656C43.3203 9.3069 45.4558 7.288 48.3405 7.30875C51.3795 7.32255 53.305 9.3691 53.347 12.0725Z" fill="#B9C8DE"/>
<path d="M30.7302 12.1414C30.7442 10.7171 29.806 9.68693 28.4687 9.65238C27.2294 9.61783 26.1301 10.7379 26.1091 12.0515C26.0881 13.3652 27.1383 14.4645 28.4197 14.4784C29.764 14.4922 30.7092 13.5242 30.7232 12.1414H30.7302ZM33.4679 12.0792C33.5239 14.4853 31.5914 16.8845 28.4337 16.8775C25.2269 16.8637 23.4344 14.5406 23.4414 12.0792C23.4484 9.40348 25.5209 7.30853 28.4407 7.32233C31.5634 7.33618 33.4819 9.43803 33.4749 12.0861" fill="#B9C8DE"/>
<path d="M13.1007 11.269C13.6889 11.269 14.277 11.276 14.8652 11.269C15.1452 11.2621 15.2643 11.3589 15.2643 11.6424C15.2573 12.804 15.2643 13.9655 15.2643 15.134C15.2643 15.3137 15.2153 15.4589 15.0612 15.5765C13.2058 17.0215 10.23 17.4364 8.17853 16.0259C6.44213 14.8298 5.85398 13.1427 6.20408 11.1308C6.52613 9.30549 8.08053 7.81894 9.97798 7.43869C11.6724 7.09989 13.2128 7.44559 14.6061 8.44814C14.8582 8.62789 14.8722 8.75924 14.6551 8.98744C14.277 9.39534 13.9199 9.83094 13.5629 10.2665C13.4018 10.4601 13.2898 10.4601 13.0797 10.3218C12.2325 9.75489 11.3153 9.47139 10.3001 9.82404C9.22178 10.1974 8.61263 11.3174 8.80168 12.555C8.97673 13.7166 9.86598 14.5255 11.0142 14.567C11.4693 14.5809 11.9175 14.567 12.3516 14.4011C12.6106 14.2974 12.7647 14.1591 12.7296 13.8618C12.7086 13.7166 12.7226 13.5714 12.7296 13.4262C12.7367 13.2257 12.6456 13.1427 12.4426 13.1497C12.0505 13.1497 11.6584 13.1358 11.2663 13.1497C10.9722 13.1635 10.8742 13.039 10.8882 12.7625C10.9022 12.3891 10.9022 12.0088 10.8882 11.6355C10.8812 11.3727 10.9792 11.269 11.2523 11.276C11.8684 11.2898 12.4776 11.276 13.0937 11.276" fill="#B9C8DE"/>
<path d="M16.3008 12.0929C16.3008 10.6893 16.3078 9.2789 16.3008 7.87535C16.3008 7.52965 16.4198 7.40515 16.7699 7.419C17.33 7.43975 17.8972 7.419 18.4643 7.419C18.9824 7.419 18.9824 7.419 18.9824 7.9168C18.9824 9.89425 18.9824 11.8647 18.9824 13.8421C18.9824 14.3261 18.9824 14.333 19.4655 14.333C20.6698 14.333 21.8671 14.3399 23.0714 14.333C23.4075 14.333 23.5335 14.4436 23.5265 14.7755C23.5125 15.2941 23.5125 15.8195 23.5265 16.3381C23.5265 16.6216 23.4285 16.7529 23.1204 16.7529C20.9849 16.746 18.8494 16.746 16.7209 16.7529C16.3848 16.7529 16.3078 16.6008 16.3078 16.3104C16.3148 14.9069 16.3078 13.4964 16.3078 12.0929" fill="#B9C8DE"/>
</g>
</svg>
