<svg xmlns="http://www.w3.org/2000/svg"  xmlns:xlink="http://www.w3.org/1999/xlink"  width="65" height="33" fill="none" id="svg652015984_1071"><path fill-rule="evenodd" clip-rule="evenodd" d="M20.94 0h3.373v24.808H20.94V0Zm9.772 16.49c0 3.132 2.278 5.653 5.45 5.653 3.116 0 5.34-2.52 5.34-5.653 0-3.025-2.224-5.545-5.34-5.545-3.19 0-5.45 2.502-5.45 5.545Zm-3.39 0c0-4.753 3.79-8.623 8.84-8.623 4.994 0 8.73 3.87 8.73 8.623 0 4.825-3.755 8.731-8.73 8.731-5.067 0-8.84-3.906-8.84-8.731Zm28.672 5.653c-3.172 0-5.45-2.52-5.45-5.653 0-3.043 2.26-5.545 5.45-5.545 3.117 0 5.34 2.52 5.34 5.545 0 3.132-2.224 5.653-5.34 5.653Zm0-14.277c-5.049 0-8.84 3.871-8.84 8.624 0 4.825 3.773 8.731 8.84 8.731 4.976 0 8.73-3.906 8.73-8.731 0-4.753-3.736-8.623-8.73-8.623ZM8.84 25.224C3.79 25.223 0 21.316 0 16.49c0-4.752 3.791-8.623 8.858-8.623 2.041 0 3.882.666 5.34 1.764l.146-1.62h3.19V23.89c0 7.633-4.393 9.11-8.73 9.11l-.037-3.115c3.5 0 5.413-1.369 5.413-5.24V23.44c-1.458 1.116-3.28 1.782-5.34 1.782ZM3.39 16.49c0 3.133 2.26 5.653 5.45 5.653 3.117 0 5.34-2.502 5.34-5.652 0-3.025-2.223-5.545-5.34-5.545-3.19 0-5.45 2.502-5.45 5.544Z" fill="#fff"></path></svg>