<svg width="59" height="30" viewBox="0 0 59 30" fill="none" xmlns="http://www.w3.org/2000/svg">
<path fill-rule="evenodd" clip-rule="evenodd" d="M19.0071 0H22.0687V22.5527H19.0071V0ZM27.877 14.9909C27.877 17.8382 29.9448 20.13 32.824 20.13C35.6523 20.13 37.671 17.8391 37.671 14.9909C37.671 12.2409 35.6523 9.95 32.824 9.95C29.9284 9.95 27.877 12.2245 27.877 14.9909ZM24.8 14.9909C24.8 10.67 28.2401 7.15182 32.824 7.15182C37.357 7.15182 40.7481 10.67 40.7481 14.9909C40.7481 19.3773 37.3397 22.9282 32.824 22.9282C28.2247 22.9282 24.8 19.3773 24.8 14.9909ZM50.8253 20.13C47.9461 20.13 45.8784 17.8391 45.8784 14.9909C45.8784 12.2245 47.9298 9.95 50.8253 9.95C53.6546 9.95 55.6724 12.2409 55.6724 14.9909C55.6724 17.8382 53.6537 20.13 50.8253 20.13ZM50.8253 7.15091C46.2424 7.15091 42.8013 10.67 42.8013 14.9909C42.8013 19.3773 46.226 22.9282 50.8253 22.9282C55.342 22.9282 58.7495 19.3773 58.7495 14.9909C58.7495 10.67 55.3583 7.15091 50.8253 7.15091ZM8.024 22.9309C3.44015 22.93 0 19.3782 0 14.9909C0 10.6709 3.44106 7.15182 8.04034 7.15182C9.89294 7.15182 11.564 7.75727 12.8874 8.75545L13.0199 7.28273H15.9155V21.7182C15.9155 28.6573 11.928 30 7.99132 30L7.95774 27.1682C11.1347 27.1682 12.8711 25.9236 12.8711 22.4045V21.3091C11.5477 22.3236 9.89385 22.9291 8.024 22.9291V22.9309ZM3.07708 14.9909C3.07708 17.8391 5.12846 20.13 8.024 20.13C10.8533 20.13 12.8711 17.8555 12.8711 14.9918C12.8711 12.2418 10.8533 9.95091 8.024 9.95091C5.12846 9.95091 3.07708 12.2255 3.07708 14.9909Z" fill="#B9C8DE"/>
</svg>
