<svg width="82" height="25" viewBox="0 0 82 25" fill="none" xmlns="http://www.w3.org/2000/svg">
<g opacity="0.6">
<path d="M22.6673 9.91681H14.5343V11.4503C14.5241 13.2564 15.9711 14.7286 17.7671 14.7388H19.7563V18.6884C19.7563 19.2132 19.3327 19.6357 18.8143 19.6357H6.48265C5.69985 19.6357 5.06955 18.9985 5.06955 18.2147V6.51928C5.06955 5.73209 5.69985 5.09484 6.48265 5.09484H19.7224V0.000244141H6.11328C5.16443 0.000244141 4.22575 0.221748 3.37518 0.651125C2.18912 1.23385 1.22672 2.20165 0.647249 3.39778C0.220268 4.24971 0 5.19366 0 6.14783V18.5793C0 19.5369 0.220268 20.4809 0.647249 21.3362C1.22672 22.5289 2.18912 23.4967 3.37518 24.076C4.22575 24.5054 5.16105 24.7269 6.11328 24.7269H16.3778C18.2856 24.7269 19.8309 23.1696 19.8343 21.251V19.8675C19.8309 19.7414 19.9258 19.6357 20.0512 19.6289H20.0681C22.8164 19.5505 24.5853 18.2079 24.5853 15.877V9.9134H22.6605L22.6673 9.91681Z" fill="#B9C8DE"/>
<path d="M28.3047 9.5997C28.3047 12.7587 30.9377 14.7352 34.5129 14.7352H46.5327C47.2613 14.6807 47.8916 15.2293 47.9458 15.962C47.9492 16.0267 47.9492 16.0949 47.9458 16.1596V18.2145C48 18.9472 47.4544 19.581 46.7259 19.6355C46.6615 19.6389 46.5937 19.6389 46.5293 19.6355H29.5992V24.7301H46.6479C50.0129 24.8153 52.812 22.1436 52.8967 18.7597C52.8967 18.6575 52.8967 18.5519 52.8967 18.4496V16.2005C52.9815 12.8166 50.3247 10.0052 46.9631 9.92003C46.858 9.92003 46.7564 9.92003 46.6513 9.92003H34.6687C33.9402 9.97455 33.3099 9.4259 33.2556 8.69323C33.2522 8.62849 33.2522 8.56033 33.2556 8.49558V6.04541C33.2116 5.56491 33.564 5.14235 34.0418 5.09805C34.096 5.09464 34.1469 5.09464 34.2011 5.09805H50.8567V5.07084e-05H36.5969C34.6992 -0.0101726 33.1506 1.52673 33.1404 3.43507V4.8561C33.1438 4.98219 33.0489 5.08783 32.9235 5.09464H32.9066C30.4735 5.17302 28.3149 6.55657 28.3149 9.5997H28.3047Z" fill="#B9C8DE"/>
<path d="M57.0234 17.4991V24.7269H62.0896V13.3927C62.0896 12.8782 62.4827 12.7998 62.7572 13.0758L74.6991 24.7303H81.6121L68.962 12.3636L81.6087 0.000244141H74.6957L62.7538 11.6548C62.4793 11.9308 62.0862 11.8524 62.0862 11.3378V0.000244141H57.0234V7.26899C57.0234 9.87592 58.711 11.4571 61.7372 12.2852C61.8558 12.3261 61.8558 12.442 61.7372 12.4829C58.711 13.3109 57.0234 14.8921 57.0234 17.4991Z" fill="#B9C8DE"/>
</g>
</svg>
