<svg width="105" height="30" viewBox="0 0 105 30" fill="none" xmlns="http://www.w3.org/2000/svg">
<path d="M81.5 16.9312V24.3187H105V30H75.5V11.25H105V16.9312H81.5Z" fill="#B9C8DE"/>
<path d="M57.6402 0H39.0456V30H45.0456V22.3735H57.5473C65.446 22.3735 69.9831 17.8756 69.9831 11.2496C69.9829 4.58021 65.4458 0 57.6402 0ZM57.2483 16.6235H45.0456V5.68125H57.2483C61.9731 5.68125 63.7652 7.86541 63.7652 11.2496C63.7652 14.5994 61.9731 16.6235 57.2483 16.6235ZM81.5 8.46458H75.5V0H105V5.68125H81.5V8.46458ZM31.5 0V30H25.5V17.705H6V30H0V0H6V11.955H25.5V0H31.5Z" fill="#B9C8DE"/>
</svg>
