<svg width="76" height="29" viewBox="0 0 76 29" fill="none" xmlns="http://www.w3.org/2000/svg">
<path d="M6.30346 0.404297H0.902344V5.81161H6.30346V0.404297Z" fill="#B9C8DE"/>
<path d="M6.17108 28.576V9.08275H1.03906V28.5568H6.17108V28.576ZM40.1539 28.7684V23.9962C39.4043 23.9962 38.77 23.9577 38.3087 23.8807C37.7705 23.8037 37.3668 23.6113 37.0977 23.3419C36.8286 23.0725 36.6557 22.6876 36.5595 22.1681C36.4827 21.687 36.4442 21.052 36.4442 20.2822V13.4894H40.1539V9.08275H36.4442V1.50096H31.3122V20.34C31.3122 21.9371 31.4468 23.2842 31.7158 24.3618C31.9849 25.4201 32.4462 26.2861 33.0805 26.9403C33.7148 27.5946 34.5606 28.0564 35.5793 28.3451C36.6172 28.6337 37.9242 28.7684 39.4811 28.7684H40.1539ZM69.5236 28.576V0H64.3916V28.576H69.5236ZM26.3724 11.0071C24.95 9.46761 22.951 8.69788 20.4139 8.69788C19.1837 8.69788 18.0497 8.94804 17.0502 9.44836C16.0315 9.94869 15.1857 10.6414 14.4938 11.5266L14.2247 11.8922V11.5651V9.08275H9.16956V28.5568H14.2631V18.1847V18.8967C14.2631 18.7813 14.2631 18.6658 14.2631 18.5504C14.3208 16.7223 14.7629 15.3752 15.6086 14.5093C16.512 13.5856 17.6076 13.1238 18.857 13.1238C20.337 13.1238 21.471 13.5856 22.2207 14.4708C22.951 15.356 23.3355 16.6068 23.3355 18.204V18.2617V28.5568H28.5059V17.5112C28.5252 14.7402 27.7948 12.5465 26.3724 11.0071ZM61.7391 18.8005C61.7391 17.3958 61.4892 16.0872 61.0087 14.8557C60.509 13.6434 59.817 12.5657 58.9521 11.6421C58.0679 10.7184 57.0107 10.0064 55.7806 9.48685C54.5504 8.96729 53.1858 8.71713 51.7057 8.71713C50.3026 8.71713 48.9763 8.98653 47.7462 9.50609C46.516 10.0449 45.4397 10.7569 44.5363 11.6613C43.6329 12.5657 42.9025 13.6434 42.3835 14.8749C41.8453 16.1065 41.5955 17.4343 41.5955 18.839C41.5955 20.2437 41.8453 21.5715 42.3451 22.8031C42.8448 24.0346 43.556 25.1123 44.4402 26.0167C45.3243 26.9211 46.4199 27.6523 47.6885 28.1719C48.9571 28.7107 50.3603 28.9801 51.8595 28.9801C56.2035 28.9801 58.8944 26.9981 60.509 25.1507L56.8185 22.3412C56.0497 23.2649 54.2045 24.5157 51.8979 24.5157C50.4564 24.5157 49.2647 24.1886 48.3613 23.5151C47.4579 22.8608 46.8428 21.9371 46.516 20.8018L46.4584 20.6286H61.7391V18.8005ZM46.4968 17.0109C46.4968 15.5869 48.1306 13.1046 51.6481 13.0853C55.1655 13.0853 56.8185 15.5677 56.8185 16.9917L46.4968 17.0109ZM75.3668 26.1129C75.2707 25.882 75.1362 25.6895 74.9632 25.5164C74.7902 25.3432 74.598 25.2085 74.3673 25.1123C74.1367 25.016 73.8868 24.9583 73.6369 24.9583C73.3678 24.9583 73.1372 25.016 72.9065 25.1123C72.6759 25.2085 72.4837 25.3432 72.3107 25.5164C72.1377 25.6895 72.0032 25.882 71.907 26.1129C71.8109 26.3438 71.7533 26.594 71.7533 26.8441C71.7533 27.1135 71.8109 27.3444 71.907 27.5754C72.0032 27.8063 72.1377 27.9987 72.3107 28.1719C72.4837 28.3451 72.6759 28.4798 72.9065 28.576C73.1372 28.6722 73.3871 28.73 73.6369 28.73C73.906 28.73 74.1367 28.6722 74.3673 28.576C74.598 28.4798 74.7902 28.3451 74.9632 28.1719C75.1362 27.9987 75.2707 27.8063 75.3668 27.5754C75.4629 27.3444 75.5206 27.0943 75.5206 26.8441C75.5206 26.594 75.4629 26.3438 75.3668 26.1129ZM75.0593 27.4599C74.9824 27.6523 74.8671 27.8255 74.7325 27.9602C74.598 28.0949 74.425 28.2104 74.2328 28.2874C74.0406 28.3643 73.8484 28.4028 73.6177 28.4028C73.4063 28.4028 73.1949 28.3643 73.0026 28.2874C72.8104 28.2104 72.6374 28.0949 72.5029 27.9602C72.3684 27.8255 72.253 27.6523 72.1761 27.4599C72.0993 27.2675 72.0608 27.075 72.0608 26.8441C72.0608 26.6325 72.0993 26.4208 72.1761 26.2283C72.253 26.0359 72.3684 25.8627 72.5029 25.728C72.6374 25.5933 72.8104 25.4779 73.0026 25.4009C73.1949 25.3239 73.3871 25.2854 73.6177 25.2854C73.8292 25.2854 74.0406 25.3239 74.2328 25.4009C74.425 25.4779 74.598 25.5933 74.7325 25.728C74.8671 25.8627 74.9824 26.0359 75.0593 26.2283C75.1362 26.4208 75.1746 26.6132 75.1746 26.8441C75.1746 27.075 75.1362 27.2675 75.0593 27.4599ZM73.9829 27.0173C74.1367 26.9981 74.252 26.9403 74.3481 26.8441C74.4442 26.7479 74.5019 26.6132 74.5019 26.4208C74.5019 26.2091 74.4442 26.0552 74.3097 25.9397C74.1944 25.8242 73.9829 25.7665 73.733 25.7665H72.8873V27.941H73.291V27.0558H73.5793L74.1175 27.941H74.5403L73.9829 27.0173ZM73.7715 26.6902C73.7138 26.6902 73.6562 26.6902 73.5793 26.6902H73.291V26.0744H73.5793C73.6369 26.0744 73.6946 26.0744 73.7715 26.0744C73.8291 26.0744 73.8868 26.0936 73.9445 26.1129C74.0021 26.1321 74.0406 26.1706 74.0598 26.2091C74.0982 26.2476 74.0982 26.3053 74.0982 26.3823C74.0982 26.4593 74.079 26.517 74.0598 26.5555C74.0214 26.594 73.9829 26.6325 73.9445 26.6517C73.8868 26.6709 73.8291 26.6902 73.7715 26.6902Z" fill="#B9C8DE"/>
</svg>
