<svg width="2930" height="125" viewBox="0 0 2930 125" fill="none" xmlns="http://www.w3.org/2000/svg">
<path d="M301.368 68.2986C301.368 97.0181 325.18 118.012 355.443 118.012C385.708 118.012 409.564 97.0181 409.564 68.2986V2.31752H380.255V64.8905C380.255 80.3861 369.531 90.8378 355.353 90.8378C341.175 90.8378 330.451 80.4315 330.451 64.8905V2.31752H301.141L301.323 68.2986H301.368ZM487.815 28.719H522.76V115.876H552.069V28.719H587.013V2.27208H487.815V28.719ZM468.866 2.27208H439.556V115.876H468.866V2.27208ZM182.993 28.719H217.938V115.876H247.247V28.719H282.191V2.27208H182.993V28.719ZM29.3098 2.27208H0V115.876H29.3098V2.27208ZM167.588 49.7131C167.588 20.9939 143.732 0 113.467 0C83.2034 0 59.3921 20.9939 59.3921 49.7131V115.876H88.7018V53.2575C88.7018 37.7619 99.4258 27.3104 113.603 27.3104C127.782 27.3104 138.505 37.7164 138.505 53.2575V115.83H167.816L167.634 49.6676L167.588 49.7131Z" fill="#236CFF"/>
<path d="M760.955 115.822C785.284 115.822 805.007 96.0989 805.007 71.7702C805.007 47.4413 785.284 27.7188 760.955 27.7188C736.626 27.7188 716.904 47.4413 716.904 71.7702C716.904 96.0989 736.626 115.822 760.955 115.822Z" fill="#D52B1E"/>
<path d="M751.186 87.8344C746.04 84.1837 741.207 80.2896 736.548 76.1175C734.845 79.7681 733.385 83.6621 731.924 87.591C739.26 93.9186 749.239 101.011 756.088 105.149C764.849 82.48 778.549 67.5644 791.691 57.0992C789.987 53.4485 787.797 50.2498 784.841 47.6074C770.934 58.3161 759.461 71.98 751.186 87.8344Z" fill="white"/>
<path d="M815.819 73.6816V65.7545H822.771V54.2461H832.543V65.7545H842.487V73.6816H832.543V92.1437C832.543 95.7246 833.379 98.2626 837.755 98.2626C839.077 98.2626 840.85 97.9845 841.967 97.4284L842.316 105.216C840.576 105.877 837.899 106.294 835.707 106.294C825.175 106.294 822.771 99.8274 822.771 92.2478V73.7163H815.819V73.6816Z" fill="black"/>
<path d="M884.173 105.459H874.75V99.0618H874.613C872.873 103.06 868.148 106.572 862.272 106.572C851.945 106.572 847.597 98.6447 847.597 90.5087V65.6494H857.506V87.6925C857.506 92.3861 858.588 98.2968 864.95 98.2968C871.312 98.2968 874.229 92.8381 874.229 87.5535V65.7189H884.173V105.459Z" fill="black"/>
<path d="M903.711 65.7202V72.3262H903.854C906.012 67.7715 910.251 64.5381 915.428 64.5381C916.195 64.5381 917.167 64.6077 917.832 64.8163V73.9256C916.51 73.5779 915.674 73.5083 914.736 73.5083C905.799 73.5083 904.06 81.2964 904.06 84.1822V105.461H894.116V65.7202H903.676H903.711Z" fill="black"/>
<path d="M932.781 42.877V70.7611H933.055C935.11 68.1883 939.109 64.5724 946.409 64.5724C957.743 64.5724 965.708 73.6817 965.708 85.4334C965.708 97.1847 958.263 106.642 946.163 106.642C940.602 106.642 935.212 104.069 932.535 99.5494H932.398V105.529H922.975V42.877H932.815H932.781ZM944.149 72.6734C936.849 72.6734 932.466 79.3837 932.466 85.5724C932.466 91.7609 936.883 98.3325 944.149 98.3325C951.867 98.3325 955.586 91.6568 955.586 85.4334C955.586 79.2098 951.867 72.6734 944.149 72.6734Z" fill="black"/>
<path d="M992.827 64.5732C1004.82 64.5732 1014.45 72.9176 1014.45 85.4342C1014.45 97.9511 1004.82 106.643 992.827 106.643C980.829 106.643 971.2 97.9511 971.2 85.4342C971.2 72.9176 980.795 64.5732 992.827 64.5732ZM992.827 98.3332C1000.68 98.3332 1004.33 91.6575 1004.33 85.4342C1004.33 79.2106 1000.68 72.6742 992.827 72.6742C984.965 72.6742 981.315 79.2106 981.315 85.4342C981.315 91.6575 984.965 98.3332 992.827 98.3332Z" fill="black"/>
<path d="M1016.78 73.6816V65.7545H1023.73V54.2461H1033.5V65.7545H1043.45V73.6816H1033.5V92.1437C1033.5 95.7246 1034.34 98.2626 1038.72 98.2626C1040.04 98.2626 1041.81 97.9845 1042.93 97.4284L1043.27 105.216C1041.54 105.877 1038.86 106.294 1036.67 106.294C1026.14 106.294 1023.73 99.8274 1023.73 92.2478V73.7163H1016.78V73.6816Z" fill="black"/>
<path d="M1074.46 100.384H1074.18C1072.2 103.896 1067.51 106.434 1061.84 106.434C1055.44 106.434 1046.96 103.374 1046.96 94.0912C1046.96 82.2351 1061.84 80.6011 1074.29 80.6011V79.6275C1074.29 74.7252 1070.15 72.3262 1065.18 72.3262C1060.97 72.3262 1056.91 74.308 1054.36 76.8808L1049.22 70.8312C1053.71 66.6937 1059.96 64.5381 1066.01 64.5381C1080.26 64.5381 1083.71 73.2997 1083.71 81.2616V105.426H1074.42V100.384H1074.46ZM1074.32 87.3461H1072.09C1065.8 87.3461 1056.94 88.111 1056.94 93.9522C1056.94 97.742 1060.52 98.924 1063.89 98.924C1070.7 98.924 1074.35 95.0644 1074.35 88.7368V87.3461H1074.32Z" fill="black"/>
<path d="M1104.4 84.356L1090.07 65.7549H1101.99L1110.62 78.0976L1119.48 65.7549H1130.93L1116.67 84.356L1132.91 105.46H1120.84L1110.51 90.9967L1100.05 105.46H1088.3L1104.43 84.356H1104.4Z" fill="black"/>
<path d="M1884.47 115.022C1908.8 115.022 1928.52 95.2995 1928.52 70.9704C1928.52 46.6415 1908.8 26.9189 1884.47 26.9189C1860.14 26.9189 1840.42 46.6415 1840.42 70.9704C1840.42 95.2995 1860.14 115.022 1884.47 115.022Z" fill="#2CA01C"/>
<path d="M1852.69 70.9707C1852.69 80.2886 1860.27 87.729 1869.76 87.729H1872.19V81.5055H1869.76C1863.92 81.5055 1859.05 76.7422 1859.05 70.9707C1859.05 65.1992 1863.92 60.4359 1869.76 60.4359H1875.6V93.0137C1875.6 96.3865 1878.52 99.2374 1881.97 99.2374V54.1776H1869.76C1860.27 54.1776 1852.69 61.6181 1852.69 70.936V70.9707ZM1899.07 54.2124H1896.64V60.4359H1899.07C1904.91 60.4359 1909.78 65.1992 1909.78 70.9707C1909.78 76.7422 1904.91 81.5055 1899.07 81.5055H1893.23V48.9276C1893.23 45.5551 1890.31 42.7041 1886.87 42.7041V87.729H1899.07C1908.56 87.729 1916.15 80.2886 1916.15 70.9707C1916.15 61.6528 1908.56 54.2124 1899.07 54.2124Z" fill="white"/>
<path d="M1982.37 124.131H1972.47V99.4454H1972.33C1969.75 103.374 1964.71 105.773 1959.19 105.773C1947.09 105.773 1939.65 96.3514 1939.65 84.9473C1939.65 73.5433 1947.61 64.4688 1958.98 64.4688C1966.28 64.4688 1970.73 67.9803 1972.75 71.0747H1972.99V65.6161H1982.52V124.166H1982.45L1982.37 124.131ZM1961.1 97.6032C1968.4 97.6032 1972.78 91.1708 1972.78 85.0863C1972.78 79.0019 1968.4 72.3959 1961.1 72.3959C1953.38 72.3959 1949.66 78.7932 1949.66 84.9125C1949.66 91.0317 1953.38 97.6032 1961.1 97.6032Z" fill="black"/>
<path d="M2028.76 104.626H2019.33V98.3683H2019.2C2017.46 102.297 2012.73 105.739 2006.86 105.739C1996.53 105.739 1992.18 97.9506 1992.18 89.9542V65.5469H2002.09V87.1727C2002.09 91.7968 2003.17 97.5685 2009.53 97.5685C2015.9 97.5685 2018.81 92.1796 2018.81 86.9989V65.5469H2028.79V104.557L2028.76 104.626Z" fill="black"/>
<path d="M2038.87 65.6162H2048.86V104.626H2038.87V65.6162Z" fill="black"/>
<path d="M2085.88 76.4292C2084.32 74.2388 2080.91 72.6394 2077.67 72.6394C2070.37 72.6394 2066.72 79.0368 2066.72 85.1561C2066.72 91.2753 2070.44 97.6723 2077.99 97.6723C2081.08 97.6723 2084.45 96.4554 2086.37 94.1613L2092.56 100.35C2089.25 103.861 2083.76 105.809 2077.89 105.809C2066.13 105.809 2056.33 98.1592 2056.33 85.1908C2056.33 72.2222 2065.96 64.5732 2077.61 64.5732C2083.41 64.5732 2089.47 66.8332 2092.59 70.6577L2085.78 76.4987L2085.88 76.4292Z" fill="black"/>
<path d="M2097.67 43.1895H2107.61V82.0604H2107.85L2122.95 65.6498H2135.71L2118.5 83.3121L2136.82 104.695H2123.67L2107.92 84.7028H2107.68V104.695H2097.71V43.1895H2097.64H2097.67Z" fill="black"/>
<path d="M2151.39 43.1895V70.5869H2151.66C2153.72 68.0488 2157.72 64.5024 2165.02 64.5024C2176.35 64.5024 2184.31 73.4378 2184.31 84.9809C2184.31 96.524 2176.87 105.807 2164.77 105.807C2159.21 105.807 2153.82 103.269 2151.11 98.8189H2150.97V104.66H2141.55V43.1895H2151.39ZM2162.76 72.4296C2155.46 72.4296 2151.07 79.0356 2151.07 85.12C2151.07 91.2045 2155.46 97.6369 2162.76 97.6369C2170.47 97.6369 2174.19 91.0654 2174.19 84.9461C2174.19 78.827 2170.47 72.4296 2162.76 72.4296Z" fill="black"/>
<path d="M2211.47 64.5039C2223.49 64.5039 2233.09 72.7092 2233.09 84.9824C2233.09 97.2556 2223.46 105.808 2211.47 105.808C2199.47 105.808 2189.84 97.2556 2189.84 84.9824C2189.84 72.7092 2199.47 64.5039 2211.47 64.5039ZM2211.47 97.6727C2219.32 97.6727 2222.97 91.1016 2222.97 84.9824C2222.97 78.8633 2219.32 72.4659 2211.47 72.4659C2203.61 72.4659 2199.96 78.8633 2199.96 84.9824C2199.96 91.1016 2203.61 97.6727 2211.47 97.6727Z" fill="black"/>
<path d="M2260.1 64.5039C2272.1 64.5039 2281.73 72.7092 2281.73 84.9824C2281.73 97.2556 2272.1 105.808 2260.1 105.808C2248.11 105.808 2238.48 97.2556 2238.48 84.9824C2238.48 72.7092 2248.11 64.5039 2260.1 64.5039ZM2260.1 97.6727C2267.97 97.6727 2271.62 91.1016 2271.62 84.9824C2271.62 78.8633 2267.97 72.4659 2260.1 72.4659C2252.25 72.4659 2248.6 78.8633 2248.6 84.9824C2248.6 91.1016 2252.25 97.6727 2260.1 97.6727Z" fill="black"/>
<path d="M2289.55 43.1895H2299.5V82.0604H2299.78L2314.87 65.6498H2327.66L2310.45 83.3121L2328.77 104.695H2315.63L2299.88 84.7028H2299.6V104.695H2289.63V43.1895H2289.55Z" fill="black"/>
<path d="M2355.82 76.0122C2354.08 73.7523 2350.78 71.8053 2347.13 71.8053C2343.97 71.8053 2340.74 72.9178 2340.74 76.0122C2340.74 79.1066 2343.83 79.8019 2349.36 81.1232C2355.27 82.5139 2362.22 85.1215 2362.22 92.7707C2362.22 102.297 2354.36 105.774 2345.64 105.774C2339.52 105.774 2333.12 103.514 2329.33 99.3416L2335.87 93.3268C2338.02 96.0736 2341.74 98.1945 2346.06 98.1945C2348.94 98.1945 2352.45 97.0467 2352.45 93.5699C2352.45 90.3368 2349.36 89.3632 2343.34 87.9725C2337.43 86.5818 2331.59 84.2523 2331.59 76.9162C2331.59 68.2241 2339.55 64.5039 2347.41 64.5039C2353.11 64.5039 2359.09 66.4509 2362.33 70.4493L2355.86 76.047V75.9775L2355.82 76.0122Z" fill="black"/>
<path d="M1354.92 71.634C1351.8 67.78 1345.81 65.484 1340.07 65.484C1328.51 65.484 1319 73.52 1319 86.312C1319 99.432 1328.68 107.14 1340.32 107.14C1346.14 107.14 1351.55 105.172 1354.83 101.646L1348.68 95.414C1346.8 97.71 1343.44 98.94 1340.4 98.94C1332.94 98.94 1329.25 92.462 1329.25 86.312C1329.25 80.162 1332.86 73.684 1340.07 73.684C1343.27 73.684 1346.63 75.324 1348.19 77.538L1354.92 71.634Z" fill="black"/>
<path d="M1360.34 105.992H1370.18V84.918C1370.18 82.048 1371.9 74.34 1380.75 74.34C1381.66 74.34 1382.48 74.422 1383.79 74.75V65.73C1383.13 65.566 1382.15 65.484 1381.41 65.484C1376.24 65.484 1372.06 68.682 1369.93 73.192H1369.77V66.632H1360.34V105.992Z" fill="black"/>
<path d="M1395.31 82.376C1395.72 76.882 1400.39 72.864 1406.21 72.864C1412.61 72.864 1415.48 77.292 1415.48 82.376H1395.31ZM1425.32 86.804C1425.32 72.618 1417.28 65.484 1406.29 65.484C1394.4 65.484 1385.47 73.848 1385.47 86.558C1385.47 99.35 1394.49 107.14 1406.62 107.14C1414.08 107.14 1419.66 104.516 1423.51 99.268L1416.95 94.02C1414.74 97.136 1411.46 99.104 1406.54 99.104C1400.8 99.104 1395.72 95.004 1395.31 89.428H1425.24C1425.32 88.526 1425.32 87.706 1425.32 86.804Z" fill="black"/>
<path d="M1472.86 44H1463.02V71.634H1462.78C1460.73 69.092 1456.79 65.484 1449.58 65.484C1438.34 65.484 1430.47 74.504 1430.47 86.148C1430.47 97.628 1437.85 107.14 1449.82 107.14C1455.32 107.14 1460.65 104.598 1463.35 100.088H1463.52V105.992H1472.86V44ZM1440.47 86.148C1440.47 79.998 1444.16 73.52 1451.79 73.52C1459.01 73.52 1463.35 80.162 1463.35 86.312C1463.35 92.462 1459.01 98.94 1451.79 98.94C1444.16 98.94 1440.47 92.298 1440.47 86.148Z" fill="black"/>
<path d="M1482.98 105.992H1492.82V66.632H1482.98V105.992ZM1481.59 53.266C1481.59 56.382 1484.21 59.17 1487.82 59.17C1491.43 59.17 1494.22 56.628 1494.22 53.266C1494.22 49.904 1491.43 47.362 1487.82 47.362C1484.21 47.362 1481.59 50.15 1481.59 53.266Z" fill="black"/>
<path d="M1506.99 74.504V92.872C1506.99 100.416 1509.37 106.812 1519.78 106.812C1522 106.812 1524.62 106.402 1526.34 105.746L1526.01 98.038C1524.87 98.612 1523.14 98.858 1521.83 98.858C1517.49 98.858 1516.67 96.316 1516.67 92.79V74.504H1526.51V66.632H1516.67V55.234H1506.99V66.632H1500.1V74.504H1506.99Z" fill="black"/>
<path d="M1533.79 105.992H1543.63V85.82H1543.88L1559.46 105.992H1572.5L1554.37 84.426L1571.43 66.632H1558.8L1543.88 83.196H1543.63V44H1533.79V105.992Z" fill="black"/>
<path d="M1601.11 105.992H1610.29V82.048C1610.29 74.176 1606.85 65.484 1592.74 65.484C1586.76 65.484 1580.52 67.616 1576.1 71.716L1581.18 77.702C1583.72 75.16 1587.74 73.192 1591.92 73.192C1596.84 73.192 1600.94 75.57 1600.94 80.408V81.392C1588.64 81.392 1573.88 83.032 1573.88 94.758C1573.88 103.942 1582.33 106.976 1588.64 106.976C1594.22 106.976 1598.89 104.434 1600.86 100.99H1601.11V105.992ZM1600.94 89.428C1600.94 95.66 1597.33 99.514 1590.61 99.514C1587.25 99.514 1583.72 98.366 1583.72 94.594C1583.72 88.772 1592.5 88.034 1598.73 88.034H1600.94V89.428Z" fill="black"/>
<path d="M1618.75 105.992H1628.59V84.918C1628.59 82.048 1630.32 74.34 1639.17 74.34C1640.07 74.34 1640.89 74.422 1642.21 74.75V65.73C1641.55 65.566 1640.57 65.484 1639.83 65.484C1634.66 65.484 1630.48 68.682 1628.35 73.192H1628.18V66.632H1618.75V105.992Z" fill="black"/>
<path d="M1696.61 65.484C1690.71 65.484 1686.28 68.19 1683.65 72.946C1681.44 68.518 1677.42 65.484 1671.35 65.484C1665.04 65.484 1660.86 69.092 1659.14 72.946H1658.97V66.632H1649.62V105.992H1659.46V84.344C1659.46 79.096 1662.17 73.684 1668.07 73.684C1673.08 73.684 1675.37 77.374 1675.37 82.212V105.992H1685.21V84.508C1685.21 79.424 1687.75 73.684 1693.9 73.684C1700.22 73.684 1701.28 79.506 1701.28 84.18V105.992H1711.12V81.392C1711.12 73.356 1706.86 65.484 1696.61 65.484Z" fill="black"/>
<path d="M1744.01 105.992H1753.2V82.048C1753.2 74.176 1749.75 65.484 1735.65 65.484C1729.66 65.484 1723.43 67.616 1719 71.716L1724.09 77.702C1726.63 75.16 1730.65 73.192 1734.83 73.192C1739.75 73.192 1743.85 75.57 1743.85 80.408V81.392C1731.55 81.392 1716.79 83.032 1716.79 94.758C1716.79 103.942 1725.23 106.976 1731.55 106.976C1737.12 106.976 1741.8 104.434 1743.77 100.99H1744.01V105.992ZM1743.85 89.428C1743.85 95.66 1740.24 99.514 1733.52 99.514C1730.15 99.514 1726.63 98.366 1726.63 94.594C1726.63 88.772 1735.4 88.034 1741.63 88.034H1743.85V89.428Z" fill="black"/>
<path d="M1264.05 116.1C1288.38 116.1 1308.1 96.3781 1308.1 72.05C1308.1 47.7219 1288.38 28 1264.05 28C1239.72 28 1220 47.7219 1220 72.05C1220 96.3781 1239.72 116.1 1264.05 116.1Z" fill="#008600"/>
<path d="M1241.83 76.4656C1241.83 68.8863 1245.48 64.9924 1251.36 64.9924C1255.74 64.9924 1258.45 66.696 1259.43 67.1828C1260.16 66.4527 1260.64 65.2358 1260.64 64.0189C1260.64 61.8286 1258.21 59.6383 1251.12 59.6383C1242.81 59.6383 1235.75 65.4792 1235.75 76.4656C1235.75 87.452 1242.11 93.2929 1250.39 93.2929C1255.5 93.2929 1259.43 91.5893 1260.64 91.1026V85.0183C1259.43 85.9918 1255.29 87.9388 1251.36 87.9388C1246.01 87.9388 1241.83 84.0448 1241.83 76.4656ZM1282.34 76.2222C1285.99 71.8415 1289.43 66.696 1291.86 60.125L1286.51 58.1781C1283.1 67.4609 1277.96 73.7885 1271.87 78.9341V46.9482H1266.03V92.5976H1271.87V85.7484C1274.06 84.0448 1276.01 82.3413 1278.23 80.3943L1283.59 89.6771C1284.81 91.8675 1286.75 93.0843 1289.43 93.0843C1290.89 93.0843 1291.86 92.5976 1292.11 92.3542L1282.34 76.257V76.2222Z" fill="white"/>
<path d="M2614.85 79.9403V105.008H2604.87V82.7565C2604.87 77.9933 2603.79 72.0479 2597.39 72.0479C2591 72.0479 2588.6 77.9238 2588.6 83.1042V105.008H2578.66V80.7747C2578.66 75.8377 2576.32 72.0827 2571.25 72.0827C2565.27 72.0827 2562.52 77.6109 2562.52 82.9304V104.974H2552.58V64.8856H2562.04V71.3178H2562.17C2563.91 67.4237 2568.15 63.7383 2574.55 63.7383C2580.95 63.7383 2584.77 66.8326 2587.03 71.3178C2589.71 66.485 2594.16 63.7383 2600.14 63.7383C2610.5 63.7383 2614.85 71.735 2614.85 79.9403Z" fill="black"/>
<path d="M2649.51 99.863H2649.23C2647.25 103.374 2642.52 105.947 2636.85 105.947C2630.46 105.947 2621.9 102.853 2621.9 93.5003C2621.9 81.5399 2636.85 79.9057 2649.3 79.9057V78.8975C2649.3 73.9604 2645.13 71.5266 2640.16 71.5266C2635.91 71.5266 2631.85 73.5083 2629.31 76.116L2624.16 70.0316C2628.65 65.8593 2634.94 63.6689 2641.03 63.6689C2655.31 63.6689 2658.79 72.5349 2658.79 80.5315V104.904H2649.51V99.7931H2649.55L2649.51 99.863ZM2649.37 86.7203H2647.11C2640.78 86.7203 2631.92 87.4852 2631.92 93.3955C2631.92 97.2202 2635.5 98.4022 2638.91 98.4022C2645.72 98.4022 2649.37 94.5083 2649.37 88.1458V86.7203Z" fill="black"/>
<path d="M2668.84 64.8857H2678.78V104.973H2668.84V64.8857Z" fill="black"/>
<path d="M2674.02 58.3839C2677.36 58.3839 2680.11 55.6372 2680.11 52.2647C2680.11 48.8922 2677.39 46.1455 2674.02 46.1455C2670.65 46.1455 2667.94 48.8922 2667.94 52.2647C2667.94 55.6372 2670.65 58.3839 2674.02 58.3839Z" fill="black"/>
<path d="M2799.47 58.5929C2802.81 58.5929 2805.55 55.8463 2805.55 52.4737C2805.55 49.1012 2802.84 46.3545 2799.47 46.3545C2796.09 46.3545 2793.38 49.1012 2793.38 52.4737C2793.38 55.8463 2796.09 58.5929 2799.47 58.5929Z" fill="black"/>
<path d="M2688.76 41.626H2698.74V104.765H2688.76V41.626Z" fill="black"/>
<path d="M2736.22 75.9767C2734.66 73.7168 2731.21 72.0827 2727.98 72.0827C2720.68 72.0827 2717 78.6886 2717 84.9469C2717 91.2052 2720.72 97.811 2728.26 97.811C2731.36 97.811 2734.73 96.5598 2736.64 94.1951L2742.86 100.558C2739.56 104.174 2734.07 106.156 2728.16 106.156C2716.37 106.156 2706.53 98.2979 2706.53 84.9469C2706.53 71.5959 2716.16 63.7383 2727.88 63.7383C2733.72 63.7383 2739.77 66.0678 2742.9 69.9966L2736.08 76.0115L2736.19 75.9419L2736.22 75.9767Z" fill="black"/>
<path d="M2784.73 105.009H2774.75V82.9658C2774.75 78.2026 2773.74 72.3615 2767.34 72.3615C2760.94 72.3615 2757.96 77.8201 2757.96 83.1397V105.043H2748.01V41.835H2757.96V70.484H2758.09C2759.65 67.1463 2764.07 63.7042 2769.98 63.7042C2780.34 63.7042 2784.69 71.7009 2784.69 79.9062V105.009H2784.73Z" fill="black"/>
<path d="M2794.49 64.8857H2804.44V104.973H2794.49V64.8857Z" fill="black"/>
<path d="M2876.83 79.9403V105.008H2866.85V82.7565C2866.85 77.9933 2865.77 72.0479 2859.37 72.0479C2852.98 72.0479 2850.58 77.9238 2850.58 83.1042V105.008H2840.63V80.7747C2840.63 75.8377 2838.3 72.0827 2833.22 72.0827C2827.25 72.0827 2824.5 77.6109 2824.5 82.9304V104.974H2814.56V64.8856H2824.01V71.3178H2824.15C2825.89 67.4237 2830.13 63.7383 2836.53 63.7383C2842.93 63.7383 2846.75 66.8326 2849.01 71.3178C2851.69 66.485 2856.17 63.7383 2862.12 63.7383C2872.48 63.7383 2876.83 71.735 2876.83 79.9403Z" fill="black"/>
<path d="M2896.33 64.8862V70.4839H2896.61C2898.59 67.32 2903.08 63.7041 2910.41 63.7041C2921.81 63.7041 2929.78 72.9177 2929.78 84.739C2929.78 96.5603 2922.3 106.121 2910.21 106.121C2904.64 106.121 2899.56 103.618 2897.03 99.6201H2896.89V125H2886.91V64.8862H2896.4H2896.33ZM2908.12 71.9094C2900.78 71.9094 2896.4 78.6892 2896.4 84.9476C2896.4 91.2058 2900.82 97.8121 2908.12 97.8121C2915.87 97.8121 2919.59 91.0668 2919.59 84.7737C2919.59 78.4806 2915.87 71.9094 2908.12 71.9094Z" fill="black"/>
<path d="M2493.33 116.204C2517.66 116.204 2537.38 96.4808 2537.38 72.152C2537.38 47.8231 2517.66 28.1006 2493.33 28.1006C2469 28.1006 2449.28 47.8231 2449.28 72.152C2449.28 96.4808 2469 116.204 2493.33 116.204Z" fill="#FFE01B"/>
<path d="M2508.07 69.393C2508.52 69.3375 2508.95 69.3375 2509.35 69.393C2509.58 68.8645 2509.62 67.9506 2509.41 66.958C2509.1 65.4806 2508.68 64.5871 2507.83 64.7273C2506.96 64.8674 2506.93 65.9361 2507.24 67.4134C2507.41 68.2426 2507.72 68.955 2508.07 69.393Z" fill="black"/>
<path d="M2500.66 70.5614C2501.28 70.8329 2501.66 71.011 2501.81 70.8563C2501.9 70.757 2501.87 70.573 2501.72 70.3307C2501.42 69.8344 2500.79 69.3292 2500.13 69.046C2498.77 68.4621 2497.14 68.6548 2495.9 69.5541C2495.49 69.8577 2495.09 70.2753 2495.15 70.5293C2495.16 70.611 2495.23 70.6723 2495.38 70.6927C2495.72 70.7307 2496.9 70.1293 2498.27 70.0475C2499.24 69.9891 2500.04 70.2898 2500.66 70.5614H2500.66Z" fill="black"/>
<path d="M2499.42 71.2672C2498.61 71.3927 2498.17 71.6584 2497.88 71.9066C2497.64 72.1197 2497.49 72.3533 2497.49 72.5197C2497.49 72.5985 2497.53 72.6423 2497.55 72.6657C2497.59 72.6978 2497.64 72.7154 2497.68 72.7154C2497.87 72.7154 2498.27 72.5518 2498.27 72.5518C2499.39 72.1518 2500.13 72.1985 2500.86 72.2832C2501.26 72.3299 2501.46 72.3533 2501.55 72.216C2501.57 72.1752 2501.6 72.0905 2501.52 71.9591C2501.33 71.6526 2500.52 71.1387 2499.41 71.2701L2499.42 71.2672Z" fill="black"/>
<path d="M2505.56 73.8684C2506.11 74.137 2506.71 74.0319 2506.91 73.6319C2507.1 73.2348 2506.82 72.6946 2506.27 72.4261C2505.72 72.1574 2505.12 72.2625 2504.93 72.6625C2504.73 73.0597 2505.02 73.5998 2505.56 73.8684Z" fill="black"/>
<path d="M2509.07 70.8029C2508.63 70.7941 2508.26 71.2817 2508.25 71.889C2508.24 72.4963 2508.59 72.9956 2509.04 73.0043C2509.48 73.0131 2509.85 72.5255 2509.86 71.9182C2509.87 71.3109 2509.52 70.8116 2509.07 70.8029Z" fill="black"/>
<path d="M2479.29 81.7668C2479.18 81.6296 2478.99 81.6704 2478.82 81.7113C2478.7 81.7405 2478.56 81.7727 2478.41 81.7697C2478.08 81.7639 2477.81 81.6237 2477.65 81.3872C2477.45 81.0778 2477.46 80.6135 2477.69 80.0851C2477.71 80.015 2477.75 79.9332 2477.79 79.8485C2478.15 79.0515 2478.74 77.7142 2478.07 76.4441C2477.57 75.4865 2476.75 74.8909 2475.76 74.7654C2474.82 74.6456 2473.84 74.996 2473.22 75.6821C2472.24 76.7653 2472.08 78.2369 2472.28 78.7566C2472.34 78.9463 2472.45 78.9989 2472.53 79.0106C2472.69 79.0339 2472.95 78.9113 2473.1 78.4967C2473.11 78.4675 2473.13 78.4208 2473.15 78.3624C2473.21 78.1434 2473.34 77.7317 2473.55 77.4047C2473.8 77.0077 2474.2 76.7361 2474.66 76.6368C2475.13 76.5347 2475.62 76.6252 2476.02 76.8909C2476.71 77.3405 2476.97 78.1814 2476.68 78.9872C2476.52 79.4018 2476.28 80.196 2476.33 80.85C2476.44 82.1727 2477.25 82.7011 2477.99 82.7595C2478.69 82.7858 2479.19 82.3887 2479.32 82.0967C2479.39 81.9245 2479.33 81.8194 2479.29 81.7755V81.7668Z" fill="black"/>
<path d="M2520.26 79.3527C2520.23 79.2564 2520.06 78.614 2519.82 77.8374C2519.58 77.0607 2519.32 76.5148 2519.32 76.5148C2520.3 75.0636 2520.31 73.7644 2520.18 73.0286C2520.04 72.1177 2519.67 71.3381 2518.9 70.5352C2518.14 69.7323 2516.57 68.9089 2514.37 68.2929C2514.12 68.2228 2513.29 67.995 2513.22 67.9717C2513.21 67.925 2513.16 65.2505 2513.11 64.1031C2513.07 63.2739 2513 61.9775 2512.6 60.7016C2512.12 58.9761 2511.28 57.4636 2510.25 56.4972C2513.12 53.5191 2514.91 50.2373 2514.91 47.4198C2514.9 42.0067 2508.25 40.3687 2500.06 43.7614C2500.05 43.7643 2498.33 44.4913 2498.32 44.4972C2498.31 44.4885 2495.18 41.4169 2495.14 41.376C2485.79 33.2329 2456.58 65.7001 2465.92 73.5863L2467.96 75.3148C2467.43 76.687 2467.22 78.2579 2467.39 79.9483C2467.61 82.1177 2468.73 84.1994 2470.55 85.8053C2472.27 87.3323 2474.54 88.2958 2476.73 88.2958C2480.36 96.6693 2488.67 101.808 2498.4 102.097C2508.85 102.407 2517.62 97.5075 2521.29 88.7045C2521.53 88.0856 2522.55 85.3031 2522.55 82.8447C2522.55 80.3863 2521.15 79.3527 2520.26 79.3527ZM2477.53 85.9455C2477.21 86.0009 2476.89 86.0213 2476.56 86.0126C2473.41 85.9279 2470 83.087 2469.67 79.7206C2469.29 75.9979 2471.19 73.1337 2474.56 72.4534C2474.97 72.3717 2475.45 72.325 2475.97 72.3513C2477.86 72.4534 2480.64 73.9045 2481.27 78.0125C2481.84 81.6535 2480.95 85.3586 2477.54 85.9425L2477.53 85.9455ZM2474.01 70.2286C2471.91 70.6374 2470.06 71.8257 2468.93 73.4666C2468.26 72.9031 2467 71.814 2466.78 71.3877C2464.98 67.9629 2468.75 61.303 2471.38 57.5425C2477.9 48.2432 2488.1 41.2096 2492.82 42.4855C2493.59 42.7015 2496.13 45.6505 2496.13 45.6505C2496.13 45.6505 2491.41 48.2695 2487.03 51.9191C2481.13 56.4593 2476.68 63.0608 2474.01 70.2228V70.2286ZM2507.12 84.5557C2507.18 84.5264 2507.24 84.4476 2507.22 84.3717C2507.22 84.2754 2507.13 84.2053 2507.04 84.217C2507.04 84.217 2502.09 84.9498 2497.42 83.2388C2497.94 81.5863 2499.29 82.1819 2501.33 82.3484C2505.02 82.5673 2508.31 82.0301 2510.76 81.3293C2512.87 80.722 2515.65 79.525 2517.8 77.8257C2518.53 79.4228 2518.79 81.1834 2518.79 81.1834C2518.79 81.1834 2519.35 81.0812 2519.82 81.3732C2520.26 81.6476 2520.59 82.2169 2520.37 83.6855C2519.92 86.4331 2518.75 88.6637 2516.78 90.7133C2515.59 91.9981 2514.14 93.1192 2512.48 93.9307C2511.6 94.395 2510.66 94.7949 2509.67 95.1189C2502.27 97.537 2494.7 94.8799 2492.25 89.1746C2492.05 88.7454 2491.9 88.2958 2491.76 87.8257C2490.72 84.0651 2491.6 79.5542 2494.37 76.7162C2494.53 76.5352 2494.71 76.3221 2494.71 76.0535C2494.71 75.8287 2494.57 75.5921 2494.44 75.4257C2493.48 74.0242 2490.13 71.6359 2490.81 67.0169C2491.29 63.6972 2494.19 61.3586 2496.9 61.4987C2497.13 61.5104 2497.35 61.525 2497.59 61.5366C2498.76 61.6067 2499.78 61.7556 2500.74 61.7965C2502.36 61.8666 2503.81 61.6301 2505.54 60.1965C2506.12 59.7118 2506.59 59.2943 2507.37 59.16C2507.46 59.1454 2507.66 59.0724 2508.07 59.0928C2508.49 59.1162 2508.89 59.2301 2509.25 59.4695C2510.63 60.3863 2510.82 62.6111 2510.9 64.2374C2510.94 65.1658 2511.05 67.414 2511.09 68.0563C2511.18 69.5308 2511.56 69.7381 2512.35 69.9979C2512.79 70.1439 2513.2 70.252 2513.8 70.4213C2515.63 70.9352 2516.71 71.4549 2517.39 72.1235C2517.8 72.541 2517.99 72.9849 2518.05 73.4082C2518.26 74.979 2516.83 76.9206 2513.03 78.6841C2508.88 80.6111 2503.84 81.0987 2500.35 80.7133C2500.09 80.6841 2499.13 80.5761 2499.13 80.5761C2496.35 80.2023 2494.76 83.7994 2496.44 86.2666C2497.51 87.8549 2500.44 88.8885 2503.38 88.8914C2510.11 88.8914 2515.28 86.0184 2517.21 83.5367C2517.27 83.4637 2517.27 83.4549 2517.36 83.3177C2517.45 83.1746 2517.38 83.0958 2517.26 83.1775C2515.69 84.252 2508.7 88.5235 2501.24 87.2389C2501.24 87.2389 2500.33 87.0899 2499.5 86.7659C2498.84 86.5089 2497.46 85.8753 2497.29 84.4622C2503.33 86.3279 2507.12 84.5644 2507.12 84.5644V84.5557ZM2486.04 57.5016C2488.36 54.8271 2491.2 52.5001 2493.76 51.195C2493.85 51.1512 2493.94 51.2446 2493.9 51.3322C2493.69 51.7001 2493.3 52.4855 2493.18 53.0811C2493.16 53.1746 2493.26 53.2447 2493.33 53.1892C2494.92 52.1059 2497.68 50.9468 2500.11 50.7979C2500.22 50.7921 2500.26 50.9264 2500.18 50.9877C2499.82 51.2709 2499.42 51.6622 2499.12 52.0564C2499.07 52.1235 2499.11 52.2198 2499.2 52.2198C2500.9 52.2315 2503.31 52.8271 2504.87 53.706C2504.97 53.7644 2504.89 53.9717 2504.78 53.9425C2502.41 53.3994 2498.54 52.9877 2494.51 53.9687C2490.92 54.8447 2488.18 56.1965 2486.18 57.6534C2486.08 57.7264 2485.96 57.5921 2486.04 57.4987V57.5016Z" fill="black"/>
</svg>
