<svg width="141" height="29" viewBox="0 0 141 29" fill="none" xmlns="http://www.w3.org/2000/svg">
<path d="M72.3077 16.3917C72.3077 23.2843 78.021 28.3229 85.2821 28.3229C92.5436 28.3229 98.2674 23.2843 98.2674 16.3917V0.556205H91.2352V15.5737C91.2352 19.2927 88.6622 21.8011 85.2605 21.8011C81.8587 21.8011 79.2857 19.3036 79.2857 15.5737V0.556205H72.2533L72.2969 16.3917H72.3077ZM117.042 6.89256H125.427V27.8102H132.459V6.89256H140.843V0.545299H117.042V6.89256ZM112.496 0.545299H105.463V27.8102H112.496V0.545299ZM43.9058 6.89256H52.2902V27.8102H59.3224V6.89256H67.7066V0.545299H43.9058V6.89256ZM7.03235 0.545299H0V27.8102H7.03235V0.545299ZM40.2097 11.9311C40.2097 5.03854 34.4859 0 27.2243 0C19.9631 0 14.25 5.03854 14.25 11.9311V27.8102H21.2824V12.7818C21.2824 9.06286 23.8554 6.5545 27.257 6.5545C30.659 6.5545 33.2317 9.05194 33.2317 12.7818V27.7992H40.2644L40.2207 11.9202L40.2097 11.9311Z" fill="#B9C8DE"/>
</svg>
