<?xml version="1.0" encoding="UTF-8"?>
<svg id="Layer_1" xmlns="http://www.w3.org/2000/svg" version="1.1" viewBox="0 0 1366 768">
  <!-- Generator: Adobe Illustrator 29.4.0, SVG Export Plug-In . SVG Version: 2.1.0 Build 152)  -->
  <defs>
    <style>
      .st0 {
        fill-rule: evenodd;
      }

      .st0, .st1 {
        fill: #fff;
      }
    </style>
  </defs>
  <path class="st0" d="M256.3,430.8v-93.3h-18.8v93.3h18.8ZM1128.7,430.8v-93.3h-20.9l-25.7,41.3-25.7-41.3h-20.9v93.3h18.4v-64.5l28,42.4,28.2-42.9v64.9h18.7ZM991.2,430.8l-40-94h-17.9l-40,94h19c9.9-24.2,19.7-48.5,29.7-72.7l29.6,72.7h19.6ZM846.7,430.8v-93.3h-18.8v93.3h18.8ZM775.1,430.8v-93.3h-18.5v60.9l-46.4-60.9h-17.7v93.3h18.5v-62.8l47.9,62.8h16.2ZM528.2,337.6h-20.3l-25.7,69.3-25.7-69.3h-20.8l37.7,94h17.1l37.7-94h0ZM391.5,430.8v-93.3h-18.5v60.9l-46.4-60.9h-17.7v93.3h18.5v-62.8l47.9,62.8h16.2Z"/>
  <path class="st1" d="M641.8,430.8v-16.5h-69.8v16.5h69.8ZM641.8,392.1v-16.5h-69.8v16.5h69.8ZM641.8,354.1v-16.5h-69.8v16.5h69.8Z"/>
</svg>