<svg width="187" height="20" viewBox="0 0 187 20" fill="none" xmlns="http://www.w3.org/2000/svg">
<path fill-rule="evenodd" clip-rule="evenodd" d="M3.93953 19.8312V0.147682H0V19.8312H3.93953ZM186.751 19.8312V0.147682H182.371L176.986 8.86076L171.6 0.147682H167.221V19.8312H171.076V6.22363L176.944 15.1688L182.853 6.11814V19.8101H186.771L186.751 19.8312ZM157.937 19.8312L149.555 0H145.805L137.423 19.8312H141.404C143.479 14.7257 145.532 9.59916 147.628 4.49367L153.83 19.8312H157.937ZM127.658 19.8312V0.147682H123.718V19.8312H127.658ZM112.654 19.8312V0.147682H108.777V12.9958L99.0541 0.147682H95.345V19.8312H99.2217V6.58228L109.259 19.8312H112.654ZM60.916 0.16878H56.6622L51.2768 14.789L45.8913 0.16878H41.5327L49.4327 20H53.016L60.916 0.16878ZM32.2706 19.8312V0.147682H28.394V12.9958L18.6709 0.147682H14.9618V19.8312H18.8385V6.58228L28.8759 19.8312H32.2706Z" fill="#B9C8DE"/>
<path d="M84.7223 19.8304V16.3494H70.0957V19.8304H84.7223ZM84.7223 11.6659V8.18484H70.0957V11.6659H84.7223ZM84.7223 3.64898V0.167969H70.0957V3.64898H84.7223Z" fill="#B9C8DE"/>
</svg>
