<svg width="206" height="20" viewBox="0 0 206 20" fill="none" xmlns="http://www.w3.org/2000/svg">
<path d="M98.082 8.82283e-06L132.821 0V19.5684H98.082V8.82283e-06Z" fill="#B9C8DE"/>
<path d="M137.211 0.0226888L141.99 0.0164164C146.093 0.0139338 152.822 -0.35154 152.211 5.91321C151.992 8.15413 150.539 9.01965 148.481 9.44522C152.025 10.1339 153.588 11.8475 152.925 15.5849C151.782 20.0296 146.255 19.5428 142.697 19.542L137.211 19.5387V0.0226888ZM141.38 16.1234C143.429 16.1342 146.45 16.4513 148.103 15.4147C148.543 14.9673 148.775 14.6328 148.846 13.9867C149.247 10.3416 143.771 11.1265 141.38 11.1365V16.1234ZM141.38 8.10618C143.149 8.1168 145.858 8.38155 147.293 7.40886C147.821 6.90027 148.007 6.57069 148.038 5.8279C148.12 3.88142 146.253 3.45745 144.674 3.43787C143.576 3.43296 142.478 3.43515 141.38 3.44443V8.10618Z" fill="#B9C8DE"/>
<path d="M80.0686 0.0214844H92.529V3.54646H83.6219C83.4851 4.99836 83.2607 6.58342 83.0725 8.03491C83.9357 7.30793 84.5985 6.91849 85.7441 6.67394C92.0021 5.3373 95.919 11.5553 92.8307 16.8695C91.8219 18.606 89.9153 19.4546 87.9701 19.8679C84.5752 20.2979 80.503 19.795 78.9961 16.2177C78.6968 15.5074 78.6031 14.92 78.4805 14.1583C79.8804 14.1194 81.3332 14.0346 82.7362 13.9721C82.7442 14.0079 82.7531 14.0435 82.7627 14.0787C82.8239 14.3046 82.9124 14.6248 83.0097 14.8315C84.0547 17.0604 88.0352 17.0249 89.1631 14.8909C89.6401 14.0294 89.719 12.8808 89.4286 11.9299C88.5131 8.92899 84.3556 8.81846 82.8939 11.4545H78.7284C79.1263 7.66131 79.6537 3.82441 80.0686 0.0214844Z" fill="#B9C8DE"/>
<path d="M191.369 0.0214844H204.921V3.54646H195.552V8.02493H204.591V11.4905H196.334C196.088 11.485 195.8 11.4534 195.585 11.5602C195.479 12.4178 195.549 15.0219 195.552 16.0058H205.144V19.5375H191.369V0.0214844Z" fill="#B9C8DE"/>
<path d="M171.67 0L175.845 1.92951e-05L175.841 8.77144C175.841 10.4196 175.762 11.9629 175.969 13.635C176.31 16.6651 180.672 17.2596 182.543 15.4284C183.913 14.0881 183.545 10.6739 183.545 8.83001L183.54 3.22225e-06L187.728 1.92951e-05V3.48543L187.733 9.81034C187.739 12.7314 187.992 15.5343 185.74 17.7796C182.761 20.7502 176.624 20.7306 173.672 17.7778C172.825 16.9279 172.223 15.8671 171.926 14.7056C171.554 13.204 171.666 10.1999 171.666 8.51023L171.67 0Z" fill="#B9C8DE"/>
<path d="M24.1387 0.0214844H37.6134V3.54646H28.3226V8.2793H37.1184V10.2427V11.7459H28.3226V19.5552H24.1387V0.0214844Z" fill="#B9C8DE"/>
<path d="M0 0.0214844H13.4554V3.54646H4.18406V8.2793H12.9679V10.3231V11.7459H4.18406V19.5552H0V0.0214844Z" fill="#B9C8DE"/>
<path d="M59.3262 0.0214844H63.9537L68.2082 7.88141C69.6324 5.37276 71.0617 2.58007 72.4365 0.0214844H77.0654C75.7135 2.51879 74.1887 5.108 72.7828 7.59003L70.3036 11.9709V19.5552H66.1202L66.1287 14.6327C66.1299 13.8066 66.2235 12.8403 66.0596 12.0331C65.9071 11.2819 60.2056 1.5678 59.3262 0.0214844Z" fill="#B9C8DE"/>
<path d="M40.627 0.0214844H56.5216V3.54646H50.6693V13.7019V19.5552H46.4474V3.54646H40.627V0.0214844Z" fill="#B9C8DE"/>
<path d="M156.141 0.0214844H160.325V16.0058H169.286V19.5375H156.141V0.0214844Z" fill="#B9C8DE"/>
<path d="M16.623 0.0214844H20.8088V19.5548L16.623 19.5552V0.0214844Z" fill="#B9C8DE"/>
</svg>
