<svg width="160" height="30" viewBox="0 0 160 30" fill="none" xmlns="http://www.w3.org/2000/svg">
<path d="M0 0.216797H5.30312V13.0829H5.42917L17.8721 0.216797H25.021L11.1014 13.9653L25.9484 29.9917H18.5024L5.42917 15.0637H5.30312V29.9917H0V0.216797Z" fill="#B9C8DE"/>
<path d="M45.8014 29.4056H41.0025V26.1643H40.9215C40.4713 27.1727 39.697 28.064 38.5895 28.8384C37.4821 29.6127 36.1676 29.9998 34.655 29.9998C33.3404 29.9998 32.206 29.7657 31.2696 29.3065C30.3332 28.8474 29.5589 28.2351 28.9557 27.4788C28.3524 26.7225 27.9113 25.8492 27.6322 24.8678C27.353 23.8864 27.209 22.878 27.209 21.8426V9.22852H32.26V20.42C32.26 21.0052 32.305 21.6265 32.3861 22.2747C32.4671 22.923 32.6562 23.4992 32.9353 24.0214C33.2144 24.5436 33.6015 24.9668 34.0877 25.3089C34.5739 25.6421 35.2312 25.8131 36.0415 25.8131C36.8518 25.8131 37.5181 25.6511 38.1214 25.327C38.7246 25.0028 39.2108 24.5887 39.5889 24.0845C39.9671 23.5803 40.2552 22.995 40.4533 22.3378C40.6514 21.6805 40.7504 21.0142 40.7504 20.339V9.23752H45.8014V29.4236V29.4056Z" fill="#B9C8DE"/>
<path d="M64.2422 9.21969C65.5567 9.21969 66.6911 9.45378 67.6275 9.91296C68.5639 10.3721 69.3382 10.9844 69.9414 11.7407C70.5447 12.497 70.9859 13.3703 71.265 14.3517C71.5441 15.3331 71.6881 16.3415 71.6881 17.3769V29.991H66.6371V18.8896C66.6371 18.3043 66.5921 17.6921 66.5111 17.0618C66.43 16.4316 66.25 15.8553 65.9889 15.3331C65.7188 14.8109 65.3406 14.3878 64.8544 14.0546C64.3592 13.7215 63.7109 13.5504 62.9006 13.5504C62.0903 13.5504 61.388 13.7035 60.7938 14.0096C60.1995 14.3157 59.7133 14.7299 59.3262 15.2521C58.939 15.7743 58.6419 16.3505 58.4438 16.9988C58.2458 17.6471 58.1467 18.3043 58.1467 18.9706V29.991H53.0957V0H58.1467V12.623H58.2278C58.4258 12.1999 58.7139 11.7857 59.0921 11.3806C59.4702 10.9754 59.9114 10.6062 60.4156 10.2911C60.9198 9.96699 61.4961 9.70588 62.1443 9.51681C62.7926 9.31873 63.4859 9.21969 64.2512 9.21969H64.2422Z" fill="#B9C8DE"/>
<path d="M78.2133 9.80594H83.0122V13.0472H83.0933C83.5435 12.0388 84.3178 11.1475 85.4252 10.3732C86.5326 9.59886 87.8472 9.2207 89.3598 9.2207C90.6743 9.2207 91.8088 9.4548 92.7451 9.91398C93.6815 10.3732 94.4558 10.9854 95.0591 11.7417C95.6623 12.498 96.1035 13.3714 96.3826 14.3528C96.6617 15.3341 96.8058 16.3426 96.8058 17.378V29.992H91.7547V18.8005C91.7547 18.2153 91.7097 17.5941 91.6287 16.9458C91.5477 16.2975 91.3586 15.7213 91.0795 15.1991C90.8004 14.6769 90.4132 14.2537 89.918 13.9116C89.4318 13.5784 88.7745 13.4074 87.9642 13.4074C87.1539 13.4074 86.4516 13.5694 85.8574 13.8936C85.2721 14.2177 84.786 14.6319 84.4078 15.1361C84.0296 15.6403 83.7415 16.2255 83.5435 16.8828C83.3454 17.54 83.2463 18.2063 83.2463 18.8816V29.983H78.1953V9.80594H78.2133Z" fill="#B9C8DE"/>
<path d="M122.341 19.5644V20.2396C122.341 20.4647 122.323 20.6898 122.296 20.9149H106.945C106.999 21.6442 107.188 22.3105 107.512 22.9137C107.836 23.517 108.26 24.0392 108.8 24.4713C109.331 24.9035 109.934 25.2456 110.61 25.4977C111.285 25.7498 111.987 25.8759 112.716 25.8759C113.977 25.8759 115.039 25.6418 115.913 25.1826C116.786 24.7234 117.497 24.0842 118.056 23.2649L121.423 25.9569C119.433 28.649 116.543 29.9905 112.761 29.9905C111.195 29.9905 109.745 29.7474 108.431 29.2523C107.116 28.7661 105.973 28.0638 105 27.1724C104.037 26.2721 103.272 25.1736 102.731 23.8681C102.182 22.5626 101.912 21.086 101.912 19.4293C101.912 17.7727 102.182 16.3231 102.731 14.9905C103.281 13.658 104.028 12.5236 104.982 11.5872C105.937 10.6508 107.062 9.92152 108.368 9.39931C109.673 8.8771 111.078 8.625 112.59 8.625C113.995 8.625 115.291 8.85909 116.48 9.31828C117.668 9.77746 118.704 10.4707 119.568 11.3801C120.433 12.2895 121.117 13.4239 121.612 14.7835C122.098 16.143 122.35 17.7366 122.35 19.5554L122.341 19.5644ZM117.299 17.2955C117.299 16.6472 117.209 16.035 117.029 15.4407C116.849 14.8555 116.561 14.3333 116.165 13.8831C115.769 13.4329 115.273 13.0728 114.67 12.8117C114.067 12.5506 113.356 12.4155 112.545 12.4155C111.033 12.4155 109.745 12.8747 108.701 13.7841C107.647 14.6934 107.071 15.8639 106.954 17.2955H117.299Z" fill="#B9C8DE"/>
<path d="M127.346 0H132.397V29.991H127.346V0Z" fill="#B9C8DE"/>
<path d="M137.729 19.223C137.729 17.6204 138.017 16.1708 138.593 14.8743C139.169 13.5687 139.943 12.4523 140.925 11.5339C141.906 10.6156 143.068 9.89527 144.418 9.39107C145.769 8.88687 147.191 8.63477 148.704 8.63477C150.217 8.63477 151.648 8.88687 152.99 9.39107C154.331 9.89527 155.502 10.6066 156.483 11.5339C157.464 12.4613 158.239 13.5777 158.815 14.8743C159.391 16.1798 159.679 17.6294 159.679 19.223C159.679 20.8166 159.391 22.2752 158.815 23.5988C158.239 24.9133 157.464 26.0477 156.483 26.9841C155.502 27.9205 154.34 28.6588 152.99 29.19C151.639 29.7212 150.217 29.9913 148.704 29.9913C147.191 29.9913 145.76 29.7212 144.418 29.19C143.077 28.6588 141.906 27.9205 140.925 26.9841C139.943 26.0477 139.169 24.9133 138.593 23.5988C138.017 22.2842 137.729 20.8256 137.729 19.223ZM142.861 19.223C142.861 20.0063 142.978 20.7896 143.221 21.5819C143.464 22.3743 143.815 23.0675 144.292 23.6888C144.769 24.31 145.373 24.8142 146.102 25.2014C146.831 25.5976 147.705 25.7866 148.713 25.7866C149.721 25.7866 150.595 25.5885 151.324 25.2014C152.053 24.8052 152.656 24.301 153.134 23.6888C153.611 23.0675 153.971 22.3743 154.205 21.5819C154.439 20.7986 154.565 20.0153 154.565 19.223C154.565 18.4307 154.448 17.6564 154.205 16.8911C153.962 16.1168 153.611 15.4235 153.134 14.8112C152.656 14.19 152.053 13.6948 151.324 13.3166C150.595 12.9385 149.721 12.7494 148.713 12.7494C147.705 12.7494 146.831 12.9385 146.102 13.3166C145.373 13.6948 144.769 14.19 144.292 14.8112C143.815 15.4325 143.455 16.1258 143.221 16.8911C142.987 17.6564 142.861 18.4397 142.861 19.223Z" fill="#B9C8DE"/>
</svg>
