<svg width="104" height="30" viewBox="0 0 104 30" fill="none" xmlns="http://www.w3.org/2000/svg">
<path d="M45.2629 0V23.2572H57.4252V28.9422H38.6035V0H45.2629Z" fill="#B9C8DE"/>
<path d="M14.5963 0V10.2571C14.6601 10.246 14.7821 10.2794 14.8292 10.2507C14.8555 10.234 15.0852 9.7978 15.145 9.7119C16.6396 7.57699 19.222 6.78502 21.7422 7.40665C23.4322 7.8238 25.008 8.83231 26.7977 8.90636C26.8097 8.96124 26.7563 8.94931 26.718 8.96526C25.7386 9.37597 24.768 9.59409 23.8062 10.1178C21.6888 11.272 20.5212 13.1983 19.9788 15.5043C20.6448 15.7542 21.29 16.0718 21.9049 16.4277C25.7027 18.6237 28.3585 22.5098 28.9846 26.8622C29.0843 27.554 29.113 28.2457 29.1505 28.943H14.5955V17.0159H14.3562C13.7486 20.7419 11.5211 24.132 8.44341 26.2876C5.99896 28.0005 3.00983 28.9732 0.0015418 28.9422V14.4711H11.4461L11.4229 14.1487C4.87844 12.7637 -0.100542 6.71496 0.0015418 0H14.5963ZM20.5196 9.89577C20.5196 9.31868 20.0506 8.85141 19.4717 8.85141C18.8926 8.85141 18.4237 9.31868 18.4237 9.89577C18.4237 10.4728 18.8926 10.9401 19.4717 10.9401C20.0506 10.9401 20.5196 10.4728 20.5196 9.89577Z" fill="#B9C8DE"/>
<path d="M91.3182 2.0293V7.67445H95.1465V12.2864H91.3182L91.3168 21.6106C91.4237 22.6987 91.4259 24.1045 92.6754 24.5096C93.3587 24.7309 94.2105 24.6808 94.907 24.5311V29.2226C93.9637 29.3564 93.0123 29.4726 92.0543 29.4631C90.6261 29.4479 88.823 29.2418 87.5691 28.5278C85.3185 27.2462 85.0248 24.5104 84.9362 22.1678L84.9376 12.2864H81.748V7.67445H84.9376V2.0293H91.3182Z" fill="#B9C8DE"/>
<path d="M104 7.67383H97.6602V28.9435H104V7.67383Z" fill="#B9C8DE"/>
<path d="M104 0H97.6602V5.20816H104V0Z" fill="#B9C8DE"/>
<path d="M69.1404 6.97029C76.6875 6.60891 81.8875 11.9922 81.2709 19.5015C80.6688 26.8358 74.338 30.5873 67.346 29.4092C62.1086 28.5273 58.7645 24.6651 58.3427 19.422C57.7852 12.5008 62.1524 7.30543 69.1404 6.97029ZM69.1404 11.9794C66.5125 12.2175 65.1727 14.6532 64.9223 17.0371C64.5825 20.2665 65.396 24.3396 69.3287 24.6094C73.6481 24.9064 74.8793 21.0219 74.6112 17.4344C74.3724 14.2345 72.6814 11.6586 69.1404 11.9794Z" fill="#B9C8DE"/>
</svg>
