<svg width="147" height="29" viewBox="0 0 147 29" fill="none" xmlns="http://www.w3.org/2000/svg">
<path d="M51.6445 1.00529C51.0096 0.317456 50.1101 0 48.8932 0C47.835 0 46.9884 0.264544 46.3535 0.846553C46.4594 0.899466 46.6181 1.00529 46.7238 1.05819C48.8402 2.53968 49.8985 4.70899 49.8985 7.30159C49.8985 8.99474 49.4223 10.4762 48.4699 11.746C47.9937 12.4339 47.6762 12.8571 47.6762 13.545C47.6762 14.2328 48.417 14.7619 49.0519 15.6084C50.1101 16.9841 50.6392 18.6772 50.6392 20.6349C50.6392 22.4339 50.2688 23.9153 49.2635 25.2381C48.5228 26.2963 47.5704 27.0899 46.3535 27.7249C46.9884 28.3069 47.7821 28.5714 48.8402 28.5714C50.0572 28.5714 50.9566 28.254 51.5916 27.5661C52.2265 26.8783 52.544 26.1376 52.544 24.9736V3.65079C52.5969 2.43386 52.2795 1.69312 51.6445 1.00529Z" fill="#B9C8DE"/>
<path d="M70.0574 0.9522C69.4754 0.370191 68.6817 0.0527344 67.5707 0.0527344C66.5124 0.0527344 65.7188 0.370191 65.1367 0.9522C64.5547 1.53421 64.2373 2.43368 64.2373 3.49189V11.2697H52.2267L52.1738 16.8781H64.2373V16.9311V25.185C64.2373 26.2961 64.5547 27.1427 65.1367 27.7247C65.7188 28.3067 66.5124 28.6241 67.5707 28.6241C68.6817 28.6241 69.4754 28.3067 70.0574 27.7247C70.6394 27.1427 70.904 26.2432 70.904 25.185V3.54479C70.904 2.43368 70.5865 1.58712 70.0574 0.9522Z" fill="#B9C8DE"/>
<path d="M43.6563 27.4601C45.032 26.8252 46.1431 25.9787 46.9367 24.8676C47.7833 23.7036 48.2065 22.3279 48.2065 20.7406C48.2065 18.9945 47.7304 17.5131 46.831 16.2961C45.9314 15.0792 44.6087 14.2327 42.9156 13.7035C44.3441 13.1744 45.4553 12.3808 46.249 11.2697C47.0425 10.1586 47.4658 8.83584 47.4658 7.40723C47.4658 5.1321 46.5664 3.33315 44.7674 2.0104C44.3971 1.74585 44.0267 1.53421 43.6034 1.32257C41.9632 0.476016 39.8997 0.0527344 37.4659 0.0527344H26.778C26.6722 0.0527344 26.6193 0.0527344 26.5135 0.0527344C26.4606 0.0527344 26.3547 0.0527344 26.3019 0.0527344C24.8733 0.0527344 23.7092 0.846384 22.8626 2.43368L15.3494 16.1902L7.78331 2.43368C7.36002 1.64003 6.88383 1.05803 6.24891 0.687656C5.6669 0.264375 4.97907 0.0527344 4.23833 0.0527344C3.18013 0.0527344 2.33357 0.370191 1.64574 1.05802C1.01082 1.69295 0.693359 2.5395 0.693359 3.5977V25.2379C0.693359 26.2432 1.01082 27.0368 1.59282 27.6188C2.22775 28.2008 3.0214 28.5184 3.97378 28.5184C4.97907 28.5184 5.77273 28.2008 6.35473 27.6188C6.98966 27.0368 7.25421 26.2432 7.25421 25.2379V13.8094L11.9103 21.9575C12.3865 22.804 12.8627 23.386 13.3917 23.7564C13.9209 24.1268 14.5029 24.2856 15.2437 24.2856C15.9314 24.2856 16.5664 24.1268 17.0955 23.7564C17.6245 23.386 18.1008 22.804 18.577 21.9575L26.3019 7.98923C27.4659 5.97865 28.2595 5.6612 30.4288 5.6612C31.2224 5.6612 36.196 5.6612 36.196 5.6612C37.6246 5.6612 38.6828 5.87284 39.3706 6.34903C40.0584 6.82522 40.3759 7.51305 40.3759 8.51831C40.3759 9.47072 40.0584 10.1586 39.3706 10.5818C38.6828 11.0051 37.6246 11.2167 36.196 11.2167H35.9844C34.45 11.2167 33.2331 12.4866 33.2331 14.021C33.2331 15.5554 34.45 16.8252 35.9844 16.8252H36.9368C38.4712 16.8252 39.5822 17.0368 40.2172 17.5131C40.852 17.9892 41.2224 18.7829 41.2224 19.8411C41.2224 20.8993 40.905 21.6929 40.2172 22.1692C39.5822 22.6453 38.4712 22.857 36.9368 22.857H29.7939V11.111C28.0479 11.1638 27.3071 11.64 26.2489 13.439L23.1802 18.7829V25.0263C23.1802 26.1374 23.4976 26.984 24.0796 27.566C24.7145 28.148 25.561 28.4654 26.7251 28.4654H37.8362C39.9526 28.4654 41.8044 28.148 43.3917 27.5131C43.4976 27.5131 43.6034 27.5131 43.6563 27.4601Z" fill="#B9C8DE"/>
<path d="M91.8048 15.3963C91.2228 14.7614 90.4291 14.3381 89.4767 14.1264C90.2704 13.8619 90.9582 13.3857 91.4874 12.8037C92.1751 12.01 92.4926 11.0577 92.4926 9.84073C92.4926 8.78257 92.2281 7.88306 91.7518 7.14232C91.2757 6.40158 90.5878 5.87248 89.6884 5.4492C88.7889 5.07883 87.6778 4.86719 86.408 4.86719H80.0588C79.6884 4.86719 79.3709 4.973 79.1592 5.18464C78.9476 5.39628 78.8418 5.71375 78.8418 6.08412V22.5392C78.8418 22.9095 78.9476 23.227 79.1592 23.4386C79.3709 23.6503 79.6884 23.756 80.0588 23.756H86.7254C88.6831 23.756 90.2175 23.3328 91.3285 22.4333C92.4397 21.5339 92.9691 20.264 92.9691 18.5709C92.9156 17.2481 92.5455 16.1899 91.8048 15.3963ZM80.9582 6.71904H86.0376C87.4133 6.71904 88.4714 6.98358 89.2121 7.5656C89.953 8.14761 90.2704 8.94129 90.2704 10.0524C90.2704 11.1106 89.9 11.9571 89.2121 12.4863C88.4714 13.0683 87.4133 13.3328 86.0376 13.3328H80.9582V6.71904ZM89.6884 21.1635C89.0005 21.7455 87.8894 22.01 86.4609 22.01H80.9582V15.1317H86.4609C87.8894 15.1317 88.9477 15.3963 89.6884 15.9783C90.3762 16.5604 90.7465 17.4068 90.7465 18.5709C90.7465 19.7349 90.3762 20.5815 89.6884 21.1635Z" fill="#B9C8DE"/>
<path d="M111.75 22.2744L104.502 5.8723C104.343 5.50193 104.184 5.29029 103.973 5.13156C103.761 4.97283 103.497 4.91992 103.232 4.91992C102.967 4.91992 102.702 4.97283 102.491 5.13156C102.28 5.29029 102.068 5.55484 101.909 5.8723L94.7131 22.2744C94.6072 22.539 94.5547 22.8036 94.5547 23.0151C94.5547 23.2268 94.6606 23.3856 94.8191 23.5443C94.9775 23.6501 95.1894 23.7559 95.5072 23.7559C95.8241 23.7559 96.0359 23.703 96.1944 23.5443C96.3538 23.3856 96.5122 23.121 96.6706 22.8036L98.3637 18.8882H107.994L109.687 22.8036C109.793 23.121 109.951 23.3326 110.163 23.5443C110.375 23.7559 110.586 23.8088 110.904 23.8088C111.168 23.8088 111.38 23.7559 111.538 23.6501C111.698 23.5443 111.803 23.3326 111.803 23.121C111.909 22.8036 111.856 22.539 111.75 22.2744ZM103.232 7.56542L107.306 16.9835H99.2103L103.232 7.56542Z" fill="#B9C8DE"/>
<path d="M129 5.13174C128.841 4.973 128.576 4.86719 128.259 4.86719C127.941 4.86719 127.677 4.973 127.518 5.13174C127.359 5.29047 127.253 5.55502 127.253 5.92539V19.9465L116.46 5.55502C116.301 5.29047 116.142 5.13174 115.984 5.02592C115.878 4.9201 115.666 4.86719 115.349 4.86719C115.085 4.86719 114.819 4.973 114.661 5.13174C114.502 5.34338 114.396 5.60792 114.396 5.92539V22.592C114.396 22.9624 114.502 23.227 114.661 23.3857C114.819 23.5444 115.085 23.6503 115.401 23.6503C115.719 23.6503 115.984 23.5444 116.142 23.3857C116.301 23.227 116.407 22.9095 116.407 22.592V8.62376L127.201 23.0682C127.359 23.2799 127.518 23.4386 127.677 23.5444C127.836 23.6503 128.047 23.7032 128.312 23.7032C128.576 23.7032 128.788 23.5973 128.946 23.4386C129.106 23.2799 129.158 23.0153 129.158 22.645V5.92539C129.264 5.60792 129.158 5.34338 129 5.13174Z" fill="#B9C8DE"/>
<path d="M146.353 22.1159L137.623 14.0207L145.931 6.34867C146.142 6.13703 146.247 5.92539 146.301 5.71375C146.353 5.50211 146.301 5.29047 146.142 5.13174C145.983 4.973 145.771 4.9201 145.401 4.9201C145.137 4.9201 144.925 4.973 144.714 5.07883C144.502 5.18464 144.29 5.34338 144.078 5.55502L135.507 13.5444V5.97829C135.507 5.60793 135.402 5.34338 135.242 5.13174C135.084 4.973 134.766 4.86719 134.449 4.86719C134.079 4.86719 133.813 4.973 133.655 5.13174C133.497 5.29047 133.391 5.60793 133.391 5.97829V22.592C133.391 22.9624 133.497 23.227 133.655 23.4386C133.813 23.6503 134.131 23.756 134.449 23.756C134.819 23.756 135.084 23.6503 135.242 23.4386C135.402 23.227 135.507 22.9624 135.507 22.592V14.8672H135.56L144.554 23.0682C144.766 23.2799 144.978 23.4915 145.189 23.5973C145.348 23.7032 145.613 23.756 145.877 23.756C146.195 23.756 146.459 23.6503 146.618 23.4915C146.777 23.3328 146.882 23.1212 146.83 22.8566C146.777 22.592 146.618 22.3275 146.353 22.1159Z" fill="#B9C8DE"/>
</svg>
