<svg xmlns:xlink="http://www.w3.org/1999/xlink"  xmlns="http://www.w3.org/2000/svg" width="160" height="32" viewBox="0 0 160 32" fill="none">
               
               <path d="M56.1551 2.20122C55.4779 1.46753 54.5184 1.12891 53.2204 1.12891C52.0916 1.12891 51.1886 1.41109 50.5114 2.0319C50.6243 2.08834 50.7936 2.20122 50.9064 2.25765C53.1639 3.8379 54.2927 6.15183 54.2927 8.91727C54.2927 10.7233 53.7848 12.3035 52.7689 13.658C52.2609 14.3917 51.9223 14.8432 51.9223 15.5769C51.9223 16.3106 52.7124 16.8749 53.3897 17.7779C54.5184 19.2453 55.0828 21.0513 55.0828 23.1395C55.0828 25.0584 54.6877 26.6386 53.6154 28.0495C52.8253 29.1783 51.8094 30.0248 50.5114 30.7021C51.1886 31.3229 52.0352 31.6051 53.1639 31.6051C54.462 31.6051 55.4214 31.2665 56.0987 30.5328C56.7759 29.7991 57.1146 29.009 57.1146 27.7674V5.02309C57.171 3.72503 56.8324 2.9349 56.1551 2.20122Z" fill="url(#paint0_linear_6386_4449)"></path>
               
               <path d="M75.7953 2.14498C75.1745 1.52417 74.3279 1.18555 73.1428 1.18555C72.014 1.18555 71.1675 1.52417 70.5466 2.14498C69.9258 2.76579 69.5872 3.72523 69.5872 4.85398V13.1503H56.7759L56.7195 19.1326H69.5872V19.1891V27.9933C69.5872 29.1785 69.9258 30.0815 70.5466 30.7023C71.1675 31.3231 72.014 31.6617 73.1428 31.6617C74.3279 31.6617 75.1745 31.3231 75.7953 30.7023C76.4161 30.0815 76.6983 29.1221 76.6983 27.9933V4.91041C76.6983 3.72523 76.3597 2.82223 75.7953 2.14498Z" fill="url(#paint1_linear_6386_4449)"></path>
               
               <path d="M47.6331 30.4201C49.1005 29.7429 50.2857 28.8399 51.1322 27.6547C52.0352 26.4131 52.4867 24.9457 52.4867 23.2526C52.4867 21.3901 51.9788 19.8099 51.0194 18.5118C50.0599 17.2138 48.649 16.3108 46.843 15.7464C48.3668 15.182 49.552 14.3355 50.3986 13.1503C51.2451 11.9651 51.6966 10.5542 51.6966 9.03034C51.6966 6.60354 50.7372 4.68466 48.8183 3.27373C48.4233 2.99154 48.0282 2.76579 47.5767 2.54004C45.8271 1.63705 43.6261 1.18555 41.03 1.18555H29.6296C29.5167 1.18555 29.4603 1.18555 29.3474 1.18555C29.291 1.18555 29.1781 1.18555 29.1217 1.18555C27.5979 1.18555 26.3562 2.03211 25.4532 3.72523L17.4391 18.3989L9.36858 3.72523C8.91708 2.87867 8.40914 2.25786 7.73189 1.8628C7.11108 1.4113 6.3774 1.18555 5.58727 1.18555C4.45853 1.18555 3.55553 1.52417 2.82184 2.25786C2.14459 2.93511 1.80597 3.8381 1.80597 4.96685V28.0497C1.80597 29.1221 2.14459 29.9686 2.7654 30.5894C3.44265 31.2102 4.28921 31.5489 5.30509 31.5489C6.3774 31.5489 7.22396 31.2102 7.84477 30.5894C8.52202 29.9686 8.80421 29.1221 8.80421 28.0497V15.8593L13.7707 24.5506C14.2786 25.4536 14.7866 26.0744 15.3509 26.4695C15.9153 26.8646 16.5361 27.0339 17.3263 27.0339C18.0599 27.0339 18.7372 26.8646 19.3016 26.4695C19.8659 26.0744 20.3739 25.4536 20.8818 24.5506L29.1217 9.65115C30.3633 7.50653 31.2098 7.16791 33.5238 7.16791C34.3703 7.16791 39.6755 7.16791 39.6755 7.16791C41.1993 7.16791 42.328 7.39366 43.0617 7.9016C43.7954 8.40953 44.134 9.14322 44.134 10.2155C44.134 11.2314 43.7954 11.9651 43.0617 12.4166C42.328 12.8681 41.1993 13.0938 39.6755 13.0938H39.4497C37.813 13.0938 36.515 14.4483 36.515 16.085C36.515 17.7217 37.813 19.0762 39.4497 19.0762H40.4656C42.1023 19.0762 43.2874 19.3019 43.9647 19.8099C44.6419 20.3178 45.037 21.1644 45.037 22.2931C45.037 23.4219 44.6984 24.2684 43.9647 24.7764C43.2874 25.2843 42.1023 25.5101 40.4656 25.5101H32.8465V12.981C30.9841 13.0374 30.194 13.5453 29.0652 15.4642L25.7919 21.1644V27.824C25.7919 29.0092 26.1305 29.9122 26.7513 30.533C27.4285 31.1538 28.3315 31.4924 29.5732 31.4924H41.425C43.6825 31.4924 45.6578 31.1538 47.3509 30.4766C47.4638 30.4766 47.5767 30.4766 47.6331 30.4201Z" fill="url(#paint2_linear_6386_4449)"></path>
               
               <path d="M98.9911 17.5523C98.3703 16.8751 97.5237 16.4236 96.5078 16.1978C97.3544 15.9156 98.0881 15.4077 98.6525 14.7869C99.3861 13.9403 99.7248 12.9245 99.7248 11.6264C99.7248 10.4977 99.4426 9.53822 98.9346 8.7481C98.4267 7.95797 97.693 7.3936 96.7336 6.9421C95.7741 6.54704 94.589 6.32129 93.2345 6.32129H86.462C86.0669 6.32129 85.7283 6.43416 85.5025 6.65991C85.2768 6.88566 85.1639 7.22429 85.1639 7.61935V25.1714C85.1639 25.5664 85.2768 25.9051 85.5025 26.1308C85.7283 26.3566 86.0669 26.4694 86.462 26.4694H93.5731C95.6613 26.4694 97.298 26.0179 98.4831 25.0585C99.6683 24.0991 100.233 22.7446 100.233 20.9386C100.176 19.5276 99.7812 18.3989 98.9911 17.5523ZM87.4214 8.2966H92.8394C94.3068 8.2966 95.4355 8.57878 96.2256 9.1996C97.0158 9.82041 97.3544 10.667 97.3544 11.8522C97.3544 12.9809 96.9593 13.8839 96.2256 14.4483C95.4355 15.0691 94.3068 15.3513 92.8394 15.3513H87.4214V8.2966ZM96.7336 23.704C95.9999 24.3248 94.8147 24.607 93.2909 24.607H87.4214V17.2701H93.2909C94.8147 17.2701 95.9435 17.5523 96.7336 18.1731C97.4673 18.794 97.8623 19.6969 97.8623 20.9386C97.8623 22.1802 97.4673 23.0832 96.7336 23.704Z" fill="#203768"></path>
               
               <path d="M120.268 24.8894L112.536 7.3938C112.367 6.99874 112.197 6.77299 111.972 6.60368C111.746 6.43437 111.464 6.37793 111.182 6.37793C110.899 6.37793 110.617 6.43437 110.391 6.60368C110.166 6.77299 109.94 7.05518 109.771 7.3938L102.095 24.8894C101.982 25.1716 101.926 25.4538 101.926 25.6795C101.926 25.9053 102.039 26.0746 102.208 26.2439C102.377 26.3568 102.603 26.4696 102.942 26.4696C103.28 26.4696 103.506 26.4132 103.675 26.2439C103.845 26.0746 104.014 25.7924 104.183 25.4538L105.989 21.2774H116.261L118.067 25.4538C118.18 25.7924 118.349 26.0181 118.575 26.2439C118.801 26.4696 119.026 26.5261 119.365 26.5261C119.647 26.5261 119.873 26.4696 120.042 26.3568C120.212 26.2439 120.324 26.0181 120.324 25.7924C120.437 25.4538 120.381 25.1716 120.268 24.8894ZM111.182 9.1998L115.527 19.2457H106.892L111.182 9.1998Z" fill="#203768"></path>
               
               <path d="M138.667 6.60348C138.497 6.43416 138.215 6.32129 137.877 6.32129C137.538 6.32129 137.256 6.43416 137.086 6.60348C136.917 6.77279 136.804 7.05498 136.804 7.45004V22.4059L125.291 7.05498C125.122 6.77279 124.952 6.60348 124.783 6.4906C124.67 6.37773 124.444 6.32129 124.106 6.32129C123.824 6.32129 123.541 6.43416 123.372 6.60348C123.203 6.82923 123.09 7.11141 123.09 7.45004V25.2278C123.09 25.6229 123.203 25.9051 123.372 26.0744C123.541 26.2437 123.824 26.3566 124.162 26.3566C124.501 26.3566 124.783 26.2437 124.952 26.0744C125.122 25.9051 125.235 25.5664 125.235 25.2278V10.3283L136.748 25.7357C136.917 25.9615 137.086 26.1308 137.256 26.2437C137.425 26.3566 137.651 26.413 137.933 26.413C138.215 26.413 138.441 26.3001 138.61 26.1308C138.78 25.9615 138.836 25.6793 138.836 25.2843V7.45004C138.949 7.11141 138.836 6.82923 138.667 6.60348Z" fill="#203768"></path>
               
               <path d="M157.178 24.7199L147.866 16.085L156.727 7.90154C156.952 7.67579 157.065 7.45004 157.122 7.22429C157.178 6.99854 157.122 6.77279 156.952 6.60348C156.783 6.43416 156.557 6.37773 156.162 6.37773C155.88 6.37773 155.654 6.43416 155.429 6.54704C155.203 6.65991 154.977 6.82923 154.751 7.05498L145.608 15.577V7.50647C145.608 7.11141 145.496 6.82923 145.326 6.60348C145.157 6.43416 144.818 6.32129 144.48 6.32129C144.085 6.32129 143.802 6.43416 143.633 6.60348C143.464 6.77279 143.351 7.11141 143.351 7.50647V25.2278C143.351 25.6229 143.464 25.9051 143.633 26.1308C143.802 26.3566 144.141 26.4694 144.48 26.4694C144.875 26.4694 145.157 26.3566 145.326 26.1308C145.496 25.9051 145.608 25.6229 145.608 25.2278V16.988H145.665L155.259 25.7357C155.485 25.9615 155.711 26.1872 155.936 26.3001C156.106 26.413 156.388 26.4694 156.67 26.4694C157.009 26.4694 157.291 26.3566 157.46 26.1872C157.63 26.0179 157.742 25.7922 157.686 25.51C157.63 25.2278 157.46 24.9456 157.178 24.7199Z" fill="#203768"></path>
               
               <defs>
                  
                  <linearGradient id="paint0_linear_6386_4449" x1="-2.88368" y1="31.4514" x2="77.1641" y2="9.96487" gradientUnits="userSpaceOnUse">
                     
                     <stop offset="0.0504317" stop-color="#2A2D61"></stop>
                     
                     <stop offset="0.092677" stop-color="#2F3C6C"></stop>
                     
                     <stop offset="0.161" stop-color="#33567F"></stop>
                     
                     <stop offset="0.2339" stop-color="#386F91"></stop>
                     
                     <stop offset="0.3104" stop-color="#3F86A1"></stop>
                     
                     <stop offset="0.3915" stop-color="#4799AE"></stop>
                     
                     <stop offset="0.4788" stop-color="#4FA8B8"></stop>
                     
                     <stop offset="0.5753" stop-color="#55B3BF"></stop>
                     
                     <stop offset="0.6881" stop-color="#59B9C3"></stop>
                     
                     <stop offset="0.8568" stop-color="#5ABBC4"></stop>
                     
                  </linearGradient>
                  
                  <linearGradient id="paint1_linear_6386_4449" x1="-1.53625" y1="36.4714" x2="78.5115" y2="14.9849" gradientUnits="userSpaceOnUse">
                     
                     <stop offset="0.0504317" stop-color="#2A2D61"></stop>
                     
                     <stop offset="0.092677" stop-color="#2F3C6C"></stop>
                     
                     <stop offset="0.161" stop-color="#33567F"></stop>
                     
                     <stop offset="0.2339" stop-color="#386F91"></stop>
                     
                     <stop offset="0.3104" stop-color="#3F86A1"></stop>
                     
                     <stop offset="0.3915" stop-color="#4799AE"></stop>
                     
                     <stop offset="0.4788" stop-color="#4FA8B8"></stop>
                     
                     <stop offset="0.5753" stop-color="#55B3BF"></stop>
                     
                     <stop offset="0.6881" stop-color="#59B9C3"></stop>
                     
                     <stop offset="0.8568" stop-color="#5ABBC4"></stop>
                     
                  </linearGradient>
                  
                  <linearGradient id="paint2_linear_6386_4449" x1="-4.82441" y1="24.2213" x2="75.2234" y2="2.73476" gradientUnits="userSpaceOnUse">
                     
                     <stop offset="0.0504317" stop-color="#2A2D61"></stop>
                     
                     <stop offset="0.092677" stop-color="#2F3C6C"></stop>
                     
                     <stop offset="0.161" stop-color="#33567F"></stop>
                     
                     <stop offset="0.2339" stop-color="#386F91"></stop>
                     
                     <stop offset="0.3104" stop-color="#3F86A1"></stop>
                     
                     <stop offset="0.3915" stop-color="#4799AE"></stop>
                     
                     <stop offset="0.4788" stop-color="#4FA8B8"></stop>
                     
                     <stop offset="0.5753" stop-color="#55B3BF"></stop>
                     
                     <stop offset="0.6881" stop-color="#59B9C3"></stop>
                     
                     <stop offset="0.8568" stop-color="#5ABBC4"></stop>
                     
                  </linearGradient>
                  
               </defs>
               
            </svg>