<svg width="269" height="30" viewBox="0 0 269 30" fill="none" xmlns="http://www.w3.org/2000/svg">
<path d="M268.498 21.2811L266.246 27.9964L244.788 27.8437C244.523 26.4803 245.704 26.7924 246.582 26.3481C247.647 25.8122 247.922 24.9745 248.006 23.8621C248.454 17.8658 247.667 11.3032 247.983 5.24931C247.755 4.25559 247.474 3.59085 246.49 3.18726C245.646 2.84132 244.493 3.10925 244.812 1.79673L264.818 1.58984L266.89 7.18588C265.571 8.14569 265.5 6.74159 264.832 5.86997C263.553 4.19454 261.549 3.40432 259.477 3.21778C258.174 3.09908 254.257 3.02786 253.168 3.45858C252.537 3.70616 252.1 4.62188 252.1 5.23575V13.8367H259.321C259.819 13.8367 260.813 13.2126 261.094 12.765C261.63 11.9171 261.254 10.0789 262.536 10.8114L262.617 18.8019C261.043 19.1037 261.752 17.2554 260.748 16.3159C260.426 16.0141 259.185 15.6105 258.785 15.6105H252.1V23.3262C252.1 23.7332 252.422 24.8728 252.666 25.2458C253.633 26.7279 257.835 26.5346 259.507 26.4363C262.275 26.2701 264.496 25.8427 266.08 23.4008C266.412 22.8921 267.155 20.8572 267.277 20.7792C267.487 20.6469 268.189 20.8165 268.501 20.7554V21.2879L268.498 21.2811Z" fill="#B9C8DE"/>
<path d="M95.7461 0L86.3312 26.0267C86.5347 28.0684 88.6748 25.7452 89.5871 25.7045C89.855 25.6943 90.1162 25.6027 90.0382 25.9792C88.6883 27.5393 85.3748 29.2045 83.4518 27.9225C81.5288 26.6405 83.7469 23.561 83.9741 21.8144L80.864 25.7214C76.5297 30.0456 70.6996 28.9163 73.3213 21.7669C75.0883 16.9509 81.4135 10.7376 86.901 11.1887C87.3283 11.2226 87.7692 11.6465 87.9829 11.3549L90.747 3.79513C90.998 2.82854 88.7087 3.11682 88.6103 3.01508L88.7833 2.03492L95.2069 0H95.7427L95.7461 0ZM85.7173 11.9213C82.7294 12.3622 78.7613 18.2567 77.5844 20.8647C77.1062 21.9263 75.285 26.4167 77.6251 26.2437C79.6702 26.0945 82.9905 21.0275 84.0521 19.3148C84.6727 18.3109 87.5657 13.3593 87.3419 12.5385C87.1757 11.9314 86.243 11.8399 85.7173 11.9179V11.9213Z" fill="#B9C8DE"/>
<path d="M39.2336 21.815L55.3502 1.76084C56.0149 1.35725 56.7543 1.77101 57.4936 1.78119C58.7892 1.79815 60.0509 1.69301 61.3329 1.59805C61.4176 2.92075 60.0542 2.67316 59.0978 3.00893C57.5208 3.56514 57.0934 4.55547 56.6084 6.03079C54.6108 12.1254 53.5289 18.9254 51.7212 25.115C51.6805 27.0244 53.9834 26.648 54.0139 27.0414L53.5561 27.8214L43.1508 27.8418C43.0423 26.5055 44.6567 26.8209 45.6945 26.3834C46.7323 25.9459 47.1461 25.3388 47.5836 24.3621L52.4199 8.15728L36.0829 28.3607C35.5131 28.2114 35.296 27.7705 35.2892 27.2245C35.2723 25.7797 35.7234 23.7685 35.8421 22.2559L36.9104 8.51339C36.6357 8.55748 36.5746 8.84237 36.4695 9.04926C33.0067 15.7882 26.3593 25.9391 19.0811 28.8185C11.1856 31.9421 1.81814 28.8423 0.234289 19.9056C0.12576 19.2849 -0.376188 17.406 0.542919 17.3823C0.631099 21.1604 2.78812 24.8097 6.06774 26.6954C16.9715 32.963 27.7024 19.6783 32.888 11.6913C33.4205 10.8705 37.4632 4.08404 37.0935 3.72454C33.5222 3.89412 29.6423 3.0191 26.1389 3.91107C25.9829 3.95177 24.1107 4.89123 24.6975 4.07387C24.9756 3.68723 26.3525 2.88683 26.8409 2.6596C30.7921 0.807817 35.1739 1.88293 39.3319 1.78458C39.8949 1.77101 40.7666 1.31994 40.8446 2.03895C39.8 8.57105 39.5897 15.2151 39.237 21.815H39.2336Z" fill="#B9C8DE"/>
<path d="M234.272 20.7493V5.76546C234.272 5.67389 234.017 4.64625 233.956 4.48346C233.705 3.80176 233.152 3.35747 232.484 3.10989C231.477 2.74021 230.568 3.19128 231.236 1.67188L239.81 1.88554C240.027 3.1031 238.898 2.81822 238.07 3.15737C237.178 3.52026 236.768 4.13074 236.605 5.0702L236.598 27.4103C236.635 27.7867 236.154 28.3802 235.788 28.3836L215.554 6.74222V23.6796C215.554 23.7542 215.771 24.87 215.815 25.0158C216.035 25.7518 216.639 26.2537 217.341 26.5115C218.345 26.8812 219.261 26.4335 218.589 27.9461C215.723 27.5832 212.901 27.8613 210.025 27.8478C209.771 26.4912 210.86 26.7896 211.728 26.4369C212.79 26.0028 213.146 25.1379 213.244 24.0425C213.783 18.0767 212.84 11.3038 213.22 5.24995C212.993 4.25623 212.712 3.58809 211.728 3.18789C211.165 2.95727 209.408 2.88265 210.042 1.79058C210.205 1.50569 212.966 1.96016 213.495 1.96016C214.417 1.96016 216.151 1.34968 216.893 1.94998C222.571 8.31929 228.492 14.4749 234.272 20.7527V20.7493Z" fill="#B9C8DE"/>
<path d="M152.616 20.5725V5.05282C152.616 4.8188 152.036 3.78438 151.788 3.57071C151.12 2.99076 148.733 2.98737 149.421 1.78676C149.533 1.59006 151.91 1.88851 152.355 1.76642C154.145 2.01061 156.045 1.78337 157.859 1.61719C158.836 3.15016 157.595 2.74657 156.591 3.15695C155.319 3.67924 155.078 4.52374 154.956 5.78539L154.946 27.7592C154.949 28.0915 154.519 28.1492 154.271 28.3459L134.071 6.73841V24.5643C134.071 24.795 134.709 25.9617 134.966 26.155C135.852 26.8163 137.605 26.3042 137.279 27.844L128.57 27.732C128.214 26.3958 129.113 26.8638 130.093 26.4602C131.463 25.9006 131.656 24.6593 131.758 23.3298C132.182 17.7406 131.446 11.6087 131.727 5.96514C131.551 4.62209 131.361 3.62159 129.964 3.10946C128.963 2.74318 127.888 3.11964 128.824 1.61719C129.72 1.6918 130.988 1.94956 131.843 1.95295C132.697 1.95634 134.451 1.44422 135.126 1.86816C140.983 8.07468 146.694 14.4406 152.613 20.5759L152.616 20.5725Z" fill="#B9C8DE"/>
<path d="M185.954 8.69233C185.703 8.64824 185.025 8.77712 184.899 8.67538C184.784 8.57702 184.336 6.47088 183.956 5.80274C182.366 2.99116 177.943 2.49599 175.067 3.0963C166.541 4.87685 164.821 18.3854 171.347 23.4862C174.755 26.152 182.952 27.8511 183.451 21.726C183.556 20.4474 183.509 17.3543 182.447 16.5234C181.599 15.8587 179.503 16.1334 180.236 14.8039H190.414C191.146 16.1334 189.05 15.862 188.202 16.5234C186.507 17.8495 187.911 22.1194 187.297 23.9577C186.975 24.9208 183.278 26.8778 182.25 27.2746C175.026 30.059 166.354 27.4408 163.478 19.959C159.256 8.97383 169.268 -0.5123 180.249 1.50227C181.307 1.69559 185.075 2.95724 185.499 3.90687C185.659 4.26638 186.12 8.52615 185.947 8.69573L185.954 8.69233Z" fill="#B9C8DE"/>
<path d="M106.8 23.3233C106.882 24.1509 107.156 25.2972 107.879 25.7992C109.412 26.8641 115.73 26.4741 117.595 25.9043C119 25.477 119.993 24.6121 120.784 23.398C121.112 22.8892 121.859 20.8543 121.981 20.7763C122.103 20.6983 123.198 20.7051 123.208 20.8441L120.953 28.0003L99.4948 27.8477C99.2303 26.4843 100.411 26.7963 101.289 26.352C102.354 25.8161 102.629 24.9784 102.713 23.866C103.161 17.8697 102.374 11.3071 102.69 5.25322C102.462 4.2595 102.181 3.59476 101.197 3.19116C100.353 2.84523 99.1998 3.11316 99.5186 1.80063L119.525 1.59375L121.597 7.18979C120.278 8.14959 120.207 6.7455 119.539 5.87387C118.26 4.19845 116.256 3.40822 114.184 3.22169C112.881 3.10298 108.964 3.03176 107.875 3.46249C107.244 3.71007 106.807 4.62579 106.807 5.23965V13.8406H114.028C114.526 13.8406 115.52 13.2166 115.801 12.7689C116.337 11.921 115.961 10.0828 117.243 10.8153L117.324 18.8058C115.75 19.1077 116.459 17.2593 115.455 16.3198C115.133 16.018 113.892 15.6144 113.492 15.6144H106.807C106.987 18.0936 106.566 20.8882 106.807 23.3301L106.8 23.3233Z" fill="#B9C8DE"/>
<path d="M194.379 2.79396C194.053 2.52603 194.117 1.73919 194.592 1.66797L199.408 1.96303C200.938 1.88503 202.715 1.59335 204.238 1.76632C204.479 1.79346 204.743 1.77311 204.838 2.058C205.147 2.98389 203.78 2.9364 203.18 3.21112C202.155 3.68254 201.735 4.49312 201.637 5.57841C201.104 11.5509 202.037 18.3136 201.66 24.3709C201.735 24.7304 201.84 25.1069 202.027 25.4223C202.752 26.65 204.55 26.6161 204.774 26.9485C204.964 27.23 204.906 27.7048 204.56 27.8167C203.536 28.1457 200.382 27.6607 199.052 27.6573C197.723 27.6539 196.193 28.0134 194.772 27.8506C194.531 27.8235 194.267 27.8439 194.172 27.559C193.863 26.6331 195.23 26.6806 195.83 26.4059C196.749 25.9853 197.278 25.2052 197.373 24.2183C197.96 18.1848 196.926 11.1982 197.353 5.06629C197.261 4.48634 196.759 3.80464 196.281 3.47227C195.691 3.06189 194.592 2.97371 194.379 2.79735V2.79396Z" fill="#B9C8DE"/>
<path d="M69.8928 23.2355C70.293 23.7544 66.9489 26.4506 66.4199 26.7864C60.9866 30.239 56.9982 27.7903 58.6091 21.3226C59.803 16.5304 65.555 10.5206 70.8763 11.1718C73.5624 11.5007 72.9757 14.4921 71.67 16.0488C69.6757 18.4296 65.711 19.3148 62.7502 19.5896C61.0816 24.3547 62.9741 28.1261 67.9155 24.375C68.5769 23.8731 69.0178 22.8013 69.8928 23.2388V23.2355ZM63.1199 18.4432C65.4974 18.5212 68.4582 17.1883 69.1331 14.7634C69.3773 13.885 69.4926 12.3452 68.2038 12.4029C66.274 12.4877 63.805 16.8153 63.1165 18.4432H63.1199Z" fill="#B9C8DE"/>
<path d="M0.1875 15.6077C0.228198 13.8339 2.33774 9.94043 4.21665 9.75728C5.24428 9.65554 6.0413 11.8838 5.81406 12.2399C5.67501 12.4569 3.01265 13.5049 2.44966 13.8678C1.76796 14.3019 1.30671 14.8989 0.726755 15.3465C0.547003 15.4856 0.499522 15.6891 0.190892 15.6111L0.1875 15.6077Z" fill="#B9C8DE"/>
<path d="M23.3642 5.85352L24.2867 8.03767C24.4834 8.75328 26.1724 9.69274 26.2233 10.2083C26.2911 10.9137 23.6525 12.6332 23.0386 11.5818C22.2009 10.1404 22.6825 7.33223 23.3642 5.85352Z" fill="#B9C8DE"/>
</svg>
