<svg width="31" height="30" viewBox="0 0 31 30" fill="none" xmlns="http://www.w3.org/2000/svg">
<path fill-rule="evenodd" clip-rule="evenodd" d="M4.79873 25.9848L0.777344 19.0152L7.72223 15L0.777344 10.9909L4.79873 4.01521L11.7498 8.03044V0H19.7987V8.03044L26.7498 4.01521L30.7773 10.9909L23.8263 15L30.7773 19.0152L26.7498 25.9848L19.7987 21.9757V30H11.7498V21.9757L4.79873 25.9848Z" fill="#B9C8DE"/>
<path fill-rule="evenodd" clip-rule="evenodd" d="M15.2657 18.5963L15.167 16.6349C16.3451 15.7962 20.3233 15.4569 19.1452 13.0515C18.7998 12.41 18.3558 12.1202 17.5231 12.0215C17.5231 12.41 17.5231 13.0022 17.4244 13.3907C17.3258 14.0322 17.2764 13.9335 16.7398 14.1308C16.0984 14.3775 15.3644 14.7661 14.871 15.1609C13.7916 15.9935 13.4955 16.8323 14.4824 17.9116C14.5749 18.0597 15.0683 18.4976 15.2657 18.5963Z" fill="#130C49"/>
<path fill-rule="evenodd" clip-rule="evenodd" d="M15.4638 13.002C15.4144 12.6566 15.4638 11.4292 15.1678 11.2812C15.1184 11.2319 15.1184 11.2319 15.0197 11.2319C14.921 11.1825 14.8717 11.1332 14.773 11.1332C14.4338 10.9852 14.2364 10.8433 13.9404 10.5966C13.743 10.4486 13.7923 10.3499 13.7923 10.0539C14.5325 9.56658 14.7236 9.85647 16.0497 9.36919C16.2964 9.27052 16.4445 9.22119 16.4445 8.77708C16.0497 8.67841 15.8524 8.53041 15.3158 8.53041C14.8717 8.48108 14.4831 8.57974 14.0884 8.72774C12.5156 9.41858 12.2689 11.1332 13.4963 12.1632C13.9404 12.5086 14.625 13.1007 15.4638 13.002Z" fill="#130C49"/>
<path fill-rule="evenodd" clip-rule="evenodd" d="M17.3258 20.4161L16.1477 21.15C15.7098 21.3968 15.2657 21.6435 14.9697 21.884C14.433 22.4268 14.2357 23.1608 14.9203 23.8515C15.0684 23.9995 15.2657 24.1969 15.4631 24.2956V22.7228C15.901 22.4762 17.9179 21.1994 18.1645 20.9527C18.3064 20.7553 18.4544 20.5641 18.5038 20.2187C18.5038 19.972 18.6025 19.3368 18.5532 19.1394C18.5038 18.6953 17.7698 18.208 17.3258 18.1094V20.4161Z" fill="#130C49"/>
<path fill-rule="evenodd" clip-rule="evenodd" d="M15.8027 10.2994L15.8521 13.6362C16.0001 13.6855 16.1975 13.5869 16.3455 13.5375C16.4935 13.4882 16.4935 13.4882 16.5922 13.4389C16.5922 13.4389 16.7402 13.297 16.7402 13.2476C16.9869 13.0009 16.8882 11.7735 17.0795 10.7929C17.1781 10.4475 17.0795 9.85535 17.0795 9.4668C16.9869 9.6148 16.6908 9.90468 16.5922 10.0034C16.4442 10.0527 15.9507 10.2501 15.8027 10.2994Z" fill="#130C49"/>
<path fill-rule="evenodd" clip-rule="evenodd" d="M17.2262 8.62918C17.2756 7.79651 17.621 5.93385 16.7883 5.63779C16.1469 5.34174 15.709 5.78585 15.6103 6.3224C15.5609 6.66779 15.6103 6.96385 15.6596 7.30307C15.709 7.79651 15.6103 7.69785 16.0976 7.79651C16.739 7.9939 16.6897 7.9939 16.9857 8.38863C17.0782 8.48113 17.1769 8.53046 17.2262 8.62918Z" fill="#130C49"/>
<path fill-rule="evenodd" clip-rule="evenodd" d="M15.9004 16.9801V20.1195C15.9991 20.0701 16.3938 19.8234 16.4431 19.7248C16.7392 19.4349 16.5418 17.27 16.5418 16.832L15.9004 16.9801Z" fill="#130C49"/>
<path fill-rule="evenodd" clip-rule="evenodd" d="M15.6602 26.2567C16.7889 26.306 17.4735 25.6646 17.3254 24.6346C17.2761 24.2459 17.2268 23.9993 16.8382 24.0979C16.6902 25.9606 16.0487 25.1773 15.6602 26.2567Z" fill="#130C49"/>
</svg>
