<svg width="54" height="54" viewBox="0 0 54 54" fill="none" xmlns="http://www.w3.org/2000/svg">
<path fill-rule="evenodd" clip-rule="evenodd" d="M7.23849 46.7726L0 34.2274L12.5008 27L0 19.7837L7.23849 7.22738L19.7504 14.4548V0H34.2385V14.4548L46.7504 7.22738L54 19.7837L41.4881 27L54 34.2274L46.7504 46.7726L34.2385 39.5563V54H19.7504V39.5563L7.23849 46.7726Z" fill="white"/>
<path fill-rule="evenodd" clip-rule="evenodd" d="M26.0787 33.4722L25.9011 29.9417C28.0216 28.4319 35.1823 27.8213 33.0618 23.4915C32.4401 22.3369 31.6408 21.8151 30.142 21.6375C30.142 22.3369 30.142 23.4027 29.9644 24.1021C29.7868 25.2567 29.6979 25.0791 28.7321 25.4343C27.5775 25.8784 26.2563 26.5778 25.3682 27.2884C23.4253 28.7871 22.8924 30.297 24.6688 32.2398C24.8353 32.5063 25.7234 33.2945 26.0787 33.4722Z" fill="#2F388D"/>
<path fill-rule="evenodd" clip-rule="evenodd" d="M26.434 23.4026C26.3451 22.7809 26.434 20.5716 25.9011 20.3051C25.8122 20.2163 25.8122 20.2163 25.6346 20.2163C25.457 20.1275 25.3682 20.0387 25.1905 20.0387C24.5799 19.7723 24.2247 19.5169 23.6918 19.0728C23.3365 18.8064 23.4253 18.6288 23.4253 18.0959C24.7576 17.2188 25.1017 17.7406 27.4886 16.8635C27.9327 16.6859 28.1992 16.5971 28.1992 15.7977C27.4886 15.6201 27.1334 15.3537 26.1675 15.3537C25.3682 15.2649 24.6687 15.4425 23.9582 15.7089C21.1272 16.9524 20.6831 20.0387 22.8924 21.8927C23.6918 22.5144 24.9241 23.5802 26.434 23.4026Z" fill="#2F388D"/>
<path fill-rule="evenodd" clip-rule="evenodd" d="M29.7867 36.7476L27.6662 38.0687C26.878 38.5128 26.0786 38.9569 25.5457 39.3899C24.5798 40.3668 24.2246 41.688 25.4569 42.9314C25.7234 43.1978 26.0786 43.5531 26.4339 43.7307V40.8997C27.2221 40.4557 30.8525 38.1575 31.2965 37.7135C31.5519 37.3582 31.8183 37.014 31.9072 36.3923C31.9072 35.9483 32.0848 34.8048 31.996 34.4495C31.9072 33.6501 30.586 32.7731 29.7867 32.5955V36.7476Z" fill="#2F388D"/>
<path fill-rule="evenodd" clip-rule="evenodd" d="M27.0446 18.5401L27.1334 24.5463C27.3998 24.6351 27.7551 24.4575 28.0215 24.3687C28.288 24.2799 28.288 24.2799 28.4656 24.1911C28.4656 24.1911 28.7321 23.9357 28.7321 23.8469C29.1761 23.4028 28.9985 21.1935 29.3427 19.4283C29.5203 18.8066 29.3427 17.7408 29.3427 17.0414C29.1761 17.3078 28.6432 17.8296 28.4656 18.0073C28.1992 18.0961 27.311 18.4513 27.0446 18.5401Z" fill="#2F388D"/>
<path fill-rule="evenodd" clip-rule="evenodd" d="M29.6091 15.5315C29.698 14.0327 30.3197 10.6799 28.8209 10.147C27.6663 9.61411 26.8781 10.4135 26.7004 11.3793C26.6116 12.001 26.7004 12.5339 26.7892 13.1445C26.8781 14.0327 26.7004 13.8551 27.5775 14.0327C28.7321 14.388 28.6433 14.388 29.1762 15.0985C29.3427 15.265 29.5203 15.3538 29.6091 15.5315Z" fill="#2F388D"/>
<path fill-rule="evenodd" clip-rule="evenodd" d="M27.2222 30.5637V36.2146C27.3998 36.1258 28.1103 35.6817 28.1991 35.5041C28.732 34.9823 28.3768 31.0855 28.3768 30.2972L27.2222 30.5637Z" fill="#2F388D"/>
<path fill-rule="evenodd" clip-rule="evenodd" d="M26.7893 47.2611C28.821 47.3499 30.0533 46.1953 29.7868 44.3413C29.698 43.6418 29.6092 43.1978 28.9098 43.3754C28.6433 46.7282 27.4887 45.3182 26.7893 47.2611Z" fill="#2F388D"/>
</svg>
