<svg xmlns="http://www.w3.org/2000/svg" xmlns:xlink="http://www.w3.org/1999/xlink" width="248" height="115" viewBox="0 0 248 115"><defs><clipPath id="clip-path"><rect id="Rectangle_22" data-name="Rectangle 22" width="248" height="115" fill="#fff"></rect></clipPath></defs><g id="MTG-Logo-KO-Red-Arrow" clip-path="url(#clip-path)"><path id="Path_23" data-name="Path 23" d="M228.468,31.942l12.519-17.876-21.033-.152-9.021-.152a32.827,32.827,0,0,1,9.477,5.84A29.077,29.077,0,0,1,228.468,31.942Z" transform="translate(7.159 0.467)" fill="#bd352a"></path><path id="Path_24" data-name="Path 24" d="M198.424,68.573H180.38a3.268,3.268,0,0,1-3.093-2.438,3.857,3.857,0,0,1-.152-.813v-.3a2.889,2.889,0,0,1,.355-1.117,3.075,3.075,0,0,1,1.268-1.117l.456-.152a7.583,7.583,0,0,1,1.318-.254,4.463,4.463,0,0,1,1.165,0c1.825.1,3.547.3,5.271.559.659.1,1.369.2,2.028.3s1.368.2,2.028.355c.709.1,1.368.2,2.078.3,1.317.152,2.737.3,4.257.355.507,0,1.014.051,1.521.051a71.084,71.084,0,0,0,14.343-1.27l1.369-.3a32.431,32.431,0,0,0,3.953-1.168c1.268-.457,2.534-.965,3.7-1.524a27.59,27.59,0,0,0,3.345-1.981c.355-.254.659-.508,1.013-.762a22.033,22.033,0,0,0,2.687-2.641,15.661,15.661,0,0,0,1.52-2.082,19.309,19.309,0,0,0,2.737-7.872,19.683,19.683,0,0,0,.152-2.438V41.149a31.278,31.278,0,0,0-.811-5.079,25.3,25.3,0,0,0-7.805-13.407c-7.3-6.5-17.739-8.278-25.038-8.684h-1.368a68.142,68.142,0,0,0-10.289.508c-1.116.152-2.18.3-3.194.508a43.032,43.032,0,0,0-5.98,1.625c-.456.152-.963.355-1.419.559a28.737,28.737,0,0,0-4.663,2.387,25.659,25.659,0,0,0-2.686,1.93c-.355.3-.71.609-1.014.914a17.373,17.373,0,0,0-1.824,2.031,22.245,22.245,0,0,0-2.23,3.453,25.406,25.406,0,0,0-1.42,3.606c-.051.254-.152.508-.2.762A27.2,27.2,0,0,0,163,38.2c0,4.825,1.368,10.868,5.626,13.915h-.051a8.1,8.1,0,0,0-1.064.254c-.1.051-.152.051-.253.1a4.713,4.713,0,0,0-.761.3c-.051.051-.152.051-.2.1-.253.1-.507.254-.76.356-.051.051-.1.051-.152.1l-.76.457c-.052,0-.052.051-.1.051-.253.2-.507.355-.76.559h-.051a12.692,12.692,0,0,0-2.129,2.235l-.051.051a8.353,8.353,0,0,0-.709,1.117c-6.386,8.989-20.476,4.875-20.223-5.282V29.163H156L166.138,14.74H140.593V-.14H117.076V14.791H103.291l-6.082,9.091C85.5,10.119,61.882,11.287,54.229,22.663,49.972,12.2,27.823,10.271,21.336,21.7l-1.774-6.907H7.043L.049,25.151V80.457H23.87V46.532c0-6.754,1.926-12.138,8.819-12.29,6.741-.254,8.109,6.5,8.109,11.579V80.406H63.5V45.821c0-7.161,2.737-11.325,8.819-11.427,6.994-.254,7.957,5.79,7.957,11.427V80.406H103.95V43.891a32.345,32.345,0,0,0-3.193-14.677H117.38V52.575c0,18.74,10.339,28.8,29.448,28.948a40.036,40.036,0,0,0,19.209-5.891c.3.152.608.3.963.457.051,0,.1.051.152.051a6.824,6.824,0,0,0,.913.356l.456.152c.253.1.456.152.709.254.405.1.862.254,1.318.355a11.406,11.406,0,0,0-1.217.406,14.544,14.544,0,0,0-9.781,13.915C159.4,109.2,178,114.737,199.437,114.737c11.81,0,25.747-1.625,33.248-9.6,3.446-3.606,5.524-8.532,5.524-15.236C238.21,69.132,214.237,68.573,198.424,68.573ZM188.642,34.8a5.975,5.975,0,0,1,1.165-1.371,12.054,12.054,0,0,1,7.907-3.149h.913a12.018,12.018,0,0,1,8.616,3.047,8.218,8.218,0,0,1,1.572,1.981,9.486,9.486,0,0,1,.76,1.625c.1.254.152.559.253.863a6.45,6.45,0,0,1,.2,1.727v.863a9.175,9.175,0,0,1-.405,1.981,7.682,7.682,0,0,1-.659,1.473,8.192,8.192,0,0,1-1.572,1.981,11.282,11.282,0,0,1-7.2,2.793,12.783,12.783,0,0,1-1.419.051c-6.032,0-9.63-2.742-10.948-6.094a9.5,9.5,0,0,1-.355-1.117.645.645,0,0,1-.051-.3,7.905,7.905,0,0,1-.152-1.574v-.051A7.712,7.712,0,0,1,188.642,34.8Zm15,61.907c-1.622.152-3.4.254-5.372.254a26.608,26.608,0,0,1-10.847-1.93,10.544,10.544,0,0,1-1.824-1.016,8.274,8.274,0,0,1-1.42-1.168,5.274,5.274,0,0,1-1.469-2.692c-.558-3.149.963-5.383,3.851-6.5,2.686,0,5.322-.051,8.008-.051,2.686-.051,5.372-.051,8.109-.051a24.443,24.443,0,0,1,4.055.3c3.6.61,5.879,1.981,6.995,3.657a3.032,3.032,0,0,1,.3.559,4.479,4.479,0,0,1,.253.762,7.908,7.908,0,0,1,.2,1.067C214.743,93.407,210.942,95.9,203.644,96.708Z" transform="translate(0.002 -0.005)" fill="#fff"></path><path id="Path_25" data-name="Path 25" d="M6.435,90.733c0-1.422,0-2.945.051-3.809H6.435c-.355,1.473-1.521,4.825-2.281,7.11H3.141c-.608-1.879-1.774-5.586-2.129-7.11H.961c.051.914.1,2.692.1,4.012v3.1H.049V86.112H1.721c.76,2.235,1.774,5.383,2.027,6.5.152-.813,1.368-4.215,2.179-6.5H7.5v7.922H6.435Z" transform="translate(0.002 2.923)" fill="#fff"></path><path id="Path_26" data-name="Path 26" d="M10.109,91.7,9.4,93.985H8.284c.456-1.371,2.027-6.348,2.534-7.922h1.419l2.636,7.922H13.707l-.76-2.285Zm2.585-.914c-.659-1.93-1.064-3.149-1.216-3.758-.2.914-.608,2.133-1.115,3.758Z" transform="translate(0.281 2.921)" fill="#fff"></path><path id="Path_27" data-name="Path 27" d="M21.581,94.038h-.862a5.181,5.181,0,0,1-.1-1.117,2.233,2.233,0,0,1-2.281,1.219c-2.078,0-3.092-1.777-3.092-4.012,0-2.285,1.216-4.114,3.446-4.114A2.642,2.642,0,0,1,21.581,88.3H20.516a1.689,1.689,0,0,0-1.875-1.371c-1.571,0-2.23,1.422-2.23,3.2,0,1.676.659,3.1,2.129,3.1,1.571,0,1.926-1.117,1.926-2.488v-.051H18.489v-.965H21.53C21.581,91.245,21.581,93.885,21.581,94.038Z" transform="translate(0.517 2.919)" fill="#fff"></path><path id="Path_28" data-name="Path 28" d="M23.039,94.035V86.112h1.419c2.99,5.485,3.4,6.247,3.548,6.6-.051-1.016-.1-2.285-.1-3.606v-3h1.014v7.922H27.55c-3.193-5.942-3.446-6.45-3.6-6.805C24,88.245,24,89.565,24,90.987v3h-.963Z" transform="translate(0.782 2.923)" fill="#fff"></path><path id="Path_29" data-name="Path 29" d="M31.726,91.7l-.71,2.285H29.9c.456-1.371,2.027-6.348,2.534-7.922h1.419l2.636,7.922H35.325l-.76-2.285Zm2.585-.914c-.659-1.93-1.064-3.149-1.216-3.758-.2.914-.608,2.133-1.115,3.758Z" transform="translate(1.015 2.921)" fill="#fff"></path><path id="Path_30" data-name="Path 30" d="M41.153,87.075H38.872v-.914h5.677v.914H42.268v6.958H41.153Z" transform="translate(1.319 2.924)" fill="#fff"></path><path id="Path_31" data-name="Path 31" d="M50,90.378H46.456V93.12h3.9l-.152.914H45.392V86.112h4.764v.914h-3.7v2.387H50v.965Z" transform="translate(1.541 2.923)" fill="#fff"></path><path id="Path_32" data-name="Path 32" d="M57.31,91.7a2.78,2.78,0,0,1-2.94,2.438c-2.331,0-3.244-1.777-3.244-4.114,0-2.133,1.014-4.012,3.294-4.012A2.589,2.589,0,0,1,57.26,88.5H56.145a1.708,1.708,0,0,0-1.825-1.524c-1.521,0-2.129,1.473-2.129,3.1s.507,3.2,2.129,3.2a1.745,1.745,0,0,0,1.825-1.524H57.31Z" transform="translate(1.735 2.919)" fill="#fff"></path><path id="Path_33" data-name="Path 33" d="M58.382,86.112H59.5v3.3h3.548v-3.3H64.16v7.922H63.045V90.378H59.5v3.657H58.382Z" transform="translate(1.981 2.923)" fill="#fff"></path><path id="Path_34" data-name="Path 34" d="M65.833,94.035V86.112h1.419c2.99,5.485,3.4,6.247,3.548,6.6-.051-1.016-.1-2.285-.1-3.606v-3h1.014v7.922H70.344c-3.193-5.942-3.446-6.45-3.6-6.805.051,1.016.051,2.336.051,3.758v3h-.963Z" transform="translate(2.234 2.923)" fill="#fff"></path><path id="Path_35" data-name="Path 35" d="M79.827,90.026c0,2.285-1.064,4.114-3.4,4.114-2.23,0-3.294-1.777-3.294-4.114,0-2.031,1.064-4.012,3.4-4.012C78.712,86.014,79.827,87.791,79.827,90.026Zm-5.626,0c0,1.828.71,3.2,2.23,3.2,1.571,0,2.23-1.371,2.23-3.2,0-1.727-.659-3.1-2.23-3.1C74.911,86.928,74.2,88.3,74.2,90.026Z" transform="translate(2.482 2.919)" fill="#fff"></path><path id="Path_36" data-name="Path 36" d="M81.078,86.112h1.115V93.07h3.751l-.152.914H81.078V86.112Z" transform="translate(2.752 2.923)" fill="#fff"></path><path id="Path_37" data-name="Path 37" d="M92.965,90.026c0,2.285-1.064,4.114-3.4,4.114-2.23,0-3.294-1.777-3.294-4.114,0-2.031,1.064-4.012,3.4-4.012C91.85,86.014,92.965,87.791,92.965,90.026Zm-5.626,0c0,1.828.71,3.2,2.23,3.2,1.571,0,2.23-1.371,2.23-3.2,0-1.727-.659-3.1-2.23-3.1C88.048,86.928,87.339,88.3,87.339,90.026Z" transform="translate(2.928 2.919)" fill="#fff"></path><path id="Path_38" data-name="Path 38" d="M100.159,94.038H99.3a5.171,5.171,0,0,1-.1-1.117,2.233,2.233,0,0,1-2.281,1.219c-2.078,0-3.092-1.777-3.092-4.012,0-2.285,1.216-4.114,3.447-4.114a2.642,2.642,0,0,1,2.889,2.285H99.094a1.689,1.689,0,0,0-1.875-1.371c-1.571,0-2.23,1.422-2.23,3.2,0,1.676.659,3.1,2.129,3.1,1.571,0,1.926-1.117,1.926-2.488v-.051H97.067v-.965h3.041C100.159,91.245,100.159,93.885,100.159,94.038Z" transform="translate(3.184 2.919)" fill="#fff"></path><path id="Path_39" data-name="Path 39" d="M103.075,94.033v-3.1c0-.1,0-.152-.051-.2l-2.534-4.571h1.268c.659,1.219,1.621,3.1,1.976,3.758.609-1.117,1.369-2.539,1.977-3.758h1.166l-2.585,4.621c-.051.051-.051.1-.051.2v3.1h-1.166Z" transform="translate(3.411 2.924)" fill="#fff"></path><path id="Path_40" data-name="Path 40" d="M116.041,94.038h-.861a5.18,5.18,0,0,1-.1-1.117,2.232,2.232,0,0,1-2.281,1.219c-2.078,0-3.091-1.777-3.091-4.012,0-2.285,1.217-4.114,3.446-4.114a2.642,2.642,0,0,1,2.889,2.285h-1.064a1.689,1.689,0,0,0-1.876-1.371c-1.571,0-2.23,1.422-2.23,3.2,0,1.676.66,3.1,2.129,3.1,1.572,0,1.926-1.117,1.926-2.488v-.051h-1.977v-.965h3.041C116.041,91.245,116.041,93.885,116.041,94.038Z" transform="translate(3.723 2.919)" fill="#fff"></path><path id="Path_41" data-name="Path 41" d="M118.564,90.48v3.555H117.5V86.112h2.889c1.42,0,2.433.711,2.433,2.082a1.784,1.784,0,0,1-1.267,1.828c.811.254,1.165.914,1.165,1.981v.152a10.2,10.2,0,0,0,.1,1.879h-1.064a7.755,7.755,0,0,1-.152-1.879V92c0-1.067-.406-1.524-1.622-1.524Zm0-.863h1.42c.963,0,1.673-.254,1.673-1.32,0-.813-.558-1.219-1.42-1.219h-1.673Z" transform="translate(3.988 2.923)" fill="#fff"></path><path id="Path_42" data-name="Path 42" d="M130.465,90.026c0,2.285-1.064,4.114-3.4,4.114-2.23,0-3.3-1.777-3.3-4.114,0-2.031,1.065-4.012,3.4-4.012C129.35,86.014,130.465,87.791,130.465,90.026Zm-5.575,0c0,1.828.709,3.2,2.23,3.2,1.571,0,2.23-1.371,2.23-3.2,0-1.727-.66-3.1-2.23-3.1S124.89,88.3,124.89,90.026Z" transform="translate(4.201 2.919)" fill="#fff"></path><path id="Path_43" data-name="Path 43" d="M132.781,86.112V91.14c0,1.168.406,2.082,1.774,2.082s1.724-.863,1.724-2.082V86.112h1.115v5.079c0,1.676-.709,2.946-2.889,2.946-2.078,0-2.838-1.117-2.838-2.895V86.112Z" transform="translate(4.469 2.923)" fill="#fff"></path><path id="Path_44" data-name="Path 44" d="M139.071,86.112h2.686c1.469,0,2.585.762,2.585,2.235,0,1.574-1.116,2.336-2.737,2.336h-1.47v3.352H139.02V86.112Zm1.115,3.657h1.42c1.013,0,1.672-.355,1.672-1.422,0-.914-.659-1.32-1.621-1.32h-1.42v2.742Z" transform="translate(4.718 2.923)" fill="#fff"></path></g></svg>