<svg width="66" height="30" viewBox="0 0 66 30" fill="none" xmlns="http://www.w3.org/2000/svg">
<mask id="mask0_1149_1240" style="mask-type:luminance" maskUnits="userSpaceOnUse" x="0" y="0" width="66" height="30">
<path d="M65.7773 0H0.777344V30H65.7773V0Z" fill="white"/>
</mask>
<g mask="url(#mask0_1149_1240)">
<path d="M62.5353 8.4555L65.8165 3.79219L60.3038 3.75254L57.9395 3.71289C58.8485 4.07627 59.6886 4.5915 60.4233 5.23637C61.3934 6.11108 62.1208 7.21974 62.5353 8.4555Z" fill="#B9C8DE"/>
<path d="M52.7845 17.888H48.0552C47.869 17.8842 47.6891 17.82 47.5428 17.7052C47.3965 17.5904 47.2918 17.4313 47.2445 17.252C47.2236 17.183 47.2103 17.1118 47.2047 17.0399V16.9617C47.2154 16.8592 47.247 16.7601 47.2977 16.6703C47.379 16.5442 47.4941 16.4432 47.6301 16.3789L47.7496 16.3392C47.8625 16.307 47.9781 16.2849 48.095 16.273C48.1964 16.2597 48.299 16.2597 48.4004 16.273C48.8787 16.2991 49.33 16.3512 49.7819 16.4188C49.9546 16.4449 50.1407 16.471 50.3134 16.4971C50.4861 16.5232 50.672 16.5492 50.8449 16.5897C51.0308 16.6158 51.2035 16.6418 51.3896 16.6679C51.7348 16.7076 52.1069 16.7462 52.5053 16.7605C52.6382 16.7605 52.7711 16.7738 52.904 16.7738C54.1651 16.7903 55.4246 16.6793 56.6632 16.4425L57.022 16.3643C57.3735 16.2847 57.7196 16.1829 58.0581 16.0596C58.3904 15.9404 58.7223 15.8078 59.0279 15.662C59.332 15.5105 59.6249 15.3378 59.9046 15.1452C59.9976 15.079 60.0773 15.0127 60.1701 14.9465C60.4242 14.7372 60.6598 14.5067 60.8743 14.2575C61.0219 14.0877 61.1552 13.906 61.2727 13.7144C61.6592 13.09 61.904 12.3891 61.9901 11.6608C62.0166 11.4498 62.0299 11.2374 62.0299 11.0248V10.7339C61.9957 10.2872 61.9246 9.84407 61.8174 9.40898C61.5203 8.0587 60.8047 6.83535 59.7717 5.9115C57.8584 4.21585 55.1224 3.75202 53.2093 3.64611H52.8508C51.9498 3.62249 51.0483 3.66679 50.1541 3.77863C49.8616 3.81828 49.5827 3.85689 49.3169 3.91115C48.7849 4.01478 48.2611 4.15645 47.7496 4.33506C47.6301 4.37472 47.4972 4.42767 47.3777 4.48089C46.9521 4.65099 46.543 4.85942 46.1555 5.10359C45.9102 5.25617 45.6751 5.42434 45.4515 5.60706C45.3585 5.68533 45.2654 5.76593 45.1858 5.8455C45.0127 6.00935 44.8528 6.18651 44.7077 6.37533C44.4853 6.65699 44.2897 6.95854 44.1232 7.27611C43.9753 7.57978 43.8508 7.89426 43.751 8.2168C43.7377 8.28306 43.7112 8.34933 43.6986 8.41559C43.5753 8.92309 43.5087 9.44258 43.4999 9.96463C43.4999 11.2233 43.8585 12.7998 44.9745 13.5946H44.9611C44.8668 13.6104 44.7736 13.6326 44.6823 13.6609C44.6561 13.6742 44.6424 13.6742 44.616 13.687C44.5473 13.7073 44.4806 13.7334 44.4165 13.7652C44.4031 13.7785 44.3767 13.7785 44.3641 13.7913C44.2978 13.8174 44.2312 13.8576 44.1649 13.8842C44.1515 13.8975 44.1387 13.8975 44.125 13.9103L43.9259 14.0295C43.9122 14.0295 43.9122 14.0428 43.8996 14.0428C43.8333 14.095 43.7668 14.1354 43.7005 14.1886H43.6871C43.4779 14.3597 43.2906 14.5555 43.1291 14.7717L43.1157 14.785C43.0461 14.8771 42.984 14.9745 42.9299 15.0764C41.2561 17.4213 37.5632 16.3481 37.6295 13.6985V7.60715H41.6653L44.3224 3.84463H37.6271V-0.0371094H31.4634V3.85793H27.8504L26.2563 6.2295C23.1874 2.63915 16.9972 2.94385 14.9914 5.9115C13.8757 3.18202 8.07049 2.6788 6.37027 5.66028L5.90531 3.85846H2.62412L0.791016 6.56054V20.9882H7.03442V12.1382C7.03442 10.3763 7.53922 8.97176 9.34585 8.93211C11.1126 8.86585 11.4712 10.6278 11.4712 11.9527V20.9749H17.4213V11.9527C17.4213 10.0846 18.1387 8.99837 19.7327 8.97176C21.5659 8.9055 21.8183 10.4822 21.8183 11.9527V20.9749H28.0231V11.4492C28.0499 10.1253 27.7632 8.81367 27.1863 7.62046H31.5431V13.7146C31.5431 18.6033 34.2529 21.2277 39.2613 21.2663C41.0435 21.1883 42.7763 20.6594 44.2959 19.7295C44.3746 19.7692 44.4553 19.8078 44.5483 19.8487C44.5617 19.8487 44.5745 19.862 44.5882 19.862C44.6656 19.8986 44.7456 19.9297 44.8275 19.9549L44.947 19.9945C45.0133 20.0206 45.0665 20.0342 45.1328 20.0608C45.239 20.0869 45.3587 20.1271 45.4783 20.1534C45.37 20.1827 45.2635 20.2181 45.1593 20.2593C44.4033 20.5201 43.7489 21.011 43.2888 21.6625C42.8287 22.314 42.5862 23.093 42.5957 23.8893C42.5564 28.4864 47.4314 29.9308 53.05 29.9308C56.1453 29.9308 59.7982 29.5069 61.7642 27.4265C62.6673 26.4858 63.212 25.2007 63.212 23.4518C63.2122 18.0338 56.929 17.888 52.7845 17.888ZM50.2206 9.07767C50.3037 8.9438 50.4066 8.82322 50.526 8.72002C51.0934 8.20449 51.8302 7.91245 52.5984 7.89854H52.8377C53.6662 7.85718 54.4777 8.14281 55.0959 8.69341C55.2592 8.84348 55.3982 9.01781 55.5079 9.21019C55.5876 9.34492 55.6543 9.48686 55.7071 9.63411C55.7333 9.70037 55.7469 9.77993 55.7734 9.85924C55.8112 10.0064 55.8289 10.1579 55.8258 10.3098V10.5349C55.8097 10.7105 55.7741 10.8838 55.7197 11.0517C55.6758 11.1854 55.6179 11.3142 55.547 11.4359C55.4373 11.6284 55.2983 11.8027 55.1349 11.9527C54.6116 12.409 53.9434 12.667 53.2478 12.6813C53.1242 12.6926 53.0001 12.6971 52.8759 12.6946C51.295 12.6946 50.3519 11.9793 50.0065 11.1049C49.9695 11.0098 49.9384 10.9124 49.9135 10.8135C49.9028 10.7888 49.8982 10.762 49.9001 10.7352C49.8731 10.6 49.8597 10.4625 49.8602 10.3246V10.3113C49.8417 9.87196 49.9683 9.43864 50.2206 9.07767ZM54.1521 25.2273C53.727 25.267 53.261 25.2936 52.7441 25.2936C51.7715 25.325 50.8031 25.1535 49.9011 24.7901C49.7334 24.7177 49.5732 24.6289 49.4231 24.5251C49.288 24.4376 49.1632 24.3354 49.0509 24.2204C48.8555 24.0294 48.7215 23.785 48.6659 23.5181C48.5196 22.6966 48.9183 22.1138 49.6752 21.8225C50.3792 21.8225 51.0701 21.8092 51.7741 21.8092C52.4781 21.7958 53.1821 21.7958 53.8994 21.7958C54.2553 21.7925 54.6108 21.8187 54.9622 21.8741C55.9058 22.0332 56.5031 22.3909 56.7956 22.8281C56.8269 22.8738 56.8532 22.9227 56.8742 22.9739C56.9023 23.0381 56.9245 23.1046 56.9405 23.1727C56.9644 23.2642 56.9819 23.3572 56.993 23.4511C57.0616 24.3665 56.0654 25.0168 54.1526 25.2276L54.1521 25.2273Z" fill="#B9C8DE"/>
<path d="M2.46477 24.432C2.46477 24.0611 2.46477 23.6638 2.47813 23.4384H2.46477C2.37172 23.8227 2.06612 24.6971 1.86692 25.2932H1.60142C1.44206 24.803 1.13646 23.836 1.04341 23.4384H1.03005C1.04341 23.6768 1.05626 24.1406 1.05626 24.485V25.2937H0.791016V23.2266H1.22924C1.42843 23.8096 1.6942 24.6308 1.76051 24.9222C1.80035 24.7101 2.11906 23.8226 2.33162 23.2266H2.7439V25.2932H2.46477V24.432Z" fill="#B9C8DE"/>
<path d="M3.50176 24.6854L3.31594 25.2815H3.02344C3.14295 24.9238 3.55471 23.6255 3.68759 23.2148H4.05951L4.75039 25.2815H4.44479L4.24559 24.6854H3.50176ZM4.17928 24.4469C4.00656 23.9435 3.90041 23.6255 3.86057 23.4666C3.80816 23.705 3.70122 24.023 3.56834 24.4469H4.17928Z" fill="#B9C8DE"/>
<path d="M6.56859 25.2941H6.34266C6.32336 25.1982 6.31457 25.1005 6.31645 25.0027C6.26227 25.1109 6.17561 25.1996 6.06849 25.2566C5.96137 25.3136 5.83909 25.336 5.71861 25.3207C5.17397 25.3207 4.9082 24.8571 4.9082 24.2741C4.9082 23.678 5.22691 23.2009 5.81139 23.2009C5.99077 23.1826 6.17024 23.2346 6.31164 23.346C6.45305 23.4574 6.54523 23.6192 6.56859 23.7972H6.28945C6.26904 23.6863 6.20672 23.5875 6.11531 23.521C6.0239 23.4544 5.91035 23.4253 5.79802 23.4396C5.38627 23.4396 5.21355 23.8105 5.21355 24.2743C5.21355 24.7116 5.38627 25.083 5.77155 25.083C6.1833 25.083 6.27635 24.7916 6.27635 24.434V24.4207H5.75818V24.1689H6.55522C6.56859 24.5655 6.56859 25.2542 6.56859 25.2941Z" fill="#B9C8DE"/>
<path d="M7.02201 25.295V23.2281H7.39392C8.17759 24.659 8.28505 24.8578 8.32384 24.9499C8.31048 24.6848 8.29763 24.3538 8.29763 24.0092V23.2266H8.5634V25.2932H8.20433C7.36745 23.7431 7.30114 23.6106 7.26078 23.518C7.27388 23.7846 7.27388 24.1289 7.27388 24.4999V25.2825H7.02148L7.02201 25.295Z" fill="#B9C8DE"/>
<path d="M9.35945 24.6854L9.17336 25.2815H8.88086C9.00038 24.9238 9.41213 23.6255 9.54501 23.2148H9.91693L10.6078 25.2815H10.3027L10.1035 24.6854H9.35945ZM10.037 24.4469C9.86425 23.9435 9.7581 23.6255 9.71826 23.4666C9.66584 23.705 9.5589 24.023 9.42602 24.4469H10.037Z" fill="#B9C8DE"/>
<path d="M11.9103 23.4787H11.3125V23.2402H12.8004V23.4787H12.2026V25.2938H11.9103V23.4787Z" fill="#B9C8DE"/>
<path d="M14.2859 24.3394H13.357V25.0547H14.3792L14.3393 25.2932H13.0781V23.2266H14.3268V23.465H13.357V24.0877H14.2859V24.3394Z" fill="#B9C8DE"/>
<path d="M16.2536 24.6843C16.2311 24.8682 16.1387 25.0366 15.9954 25.1549C15.8521 25.2731 15.6688 25.3323 15.4831 25.3203C14.8721 25.3203 14.6328 24.8567 14.6328 24.2471C14.6328 23.6907 14.8986 23.2005 15.4962 23.2005C15.5885 23.1915 15.6816 23.2014 15.7699 23.2296C15.8582 23.2579 15.9397 23.3038 16.0095 23.3646C16.0792 23.4255 16.1357 23.4999 16.1755 23.5833C16.2152 23.6667 16.2373 23.7573 16.2405 23.8495H15.9483C15.9361 23.7344 15.8793 23.6285 15.79 23.5543C15.7007 23.4801 15.5859 23.4434 15.4699 23.452C15.0713 23.452 14.9119 23.8362 14.9119 24.2607C14.9119 24.6851 15.0448 25.0954 15.4699 25.0954C15.5854 25.1016 15.6989 25.0641 15.7877 24.9903C15.8764 24.9165 15.9338 24.8121 15.9483 24.6979H16.2536V24.6843Z" fill="#B9C8DE"/>
<path d="M16.5977 23.2266H16.8907V24.0874H17.8206V23.2266H18.1121V25.2932H17.8198V24.3394H16.8907V25.2934H16.5977V23.2266Z" fill="#B9C8DE"/>
<path d="M18.6174 25.295V23.2281H18.9894C19.773 24.659 19.8805 24.8578 19.9193 24.9499C19.9059 24.6848 19.8931 24.3538 19.8931 24.0092V23.2266H20.1588V25.2932H19.7998C18.9629 23.7431 18.8966 23.6106 18.8562 23.518C18.8696 23.783 18.8696 24.1273 18.8696 24.4983V25.2809H18.6172L18.6174 25.295Z" fill="#B9C8DE"/>
<path d="M22.3502 24.2478C22.3502 24.8439 22.0713 25.321 21.459 25.321C20.8746 25.321 20.5957 24.8574 20.5957 24.2478C20.5957 23.718 20.8746 23.2012 21.4868 23.2012C22.0579 23.2012 22.3502 23.6647 22.3502 24.2478ZM20.8756 24.2478C20.8756 24.7247 21.0617 25.0826 21.4601 25.0826C21.8719 25.0826 22.0446 24.7249 22.0446 24.2478C22.0446 23.7973 21.8719 23.4391 21.4601 23.4391C21.0617 23.4396 20.8756 23.7975 20.8756 24.2478Z" fill="#B9C8DE"/>
<path d="M22.75 23.2266H23.0422V25.0417H24.0254L23.9855 25.2801H22.75V23.2266Z" fill="#B9C8DE"/>
<path d="M25.9107 24.2478C25.9107 24.8439 25.6319 25.321 25.0196 25.321C24.4351 25.321 24.1562 24.8574 24.1562 24.2478C24.1562 23.718 24.4351 23.2012 25.0474 23.2012C25.6185 23.2012 25.9107 23.6647 25.9107 24.2478ZM24.4362 24.2478C24.4362 24.7247 24.6223 25.0826 25.0206 25.0826C25.4324 25.0826 25.6051 24.7249 25.6051 24.2478C25.6051 23.7973 25.4324 23.4391 25.0206 23.4391C24.622 23.4396 24.4362 23.7975 24.4362 24.2478Z" fill="#B9C8DE"/>
<path d="M27.8627 25.2941H27.6376C27.6183 25.1982 27.6095 25.1005 27.6114 25.0027C27.5572 25.1109 27.4705 25.1996 27.3634 25.2566C27.2563 25.3136 27.134 25.336 27.0135 25.3207C26.4689 25.3207 26.2031 24.8571 26.2031 24.2741C26.2031 23.678 26.5218 23.2009 27.1066 23.2009C27.2859 23.1826 27.4653 23.2346 27.6067 23.3459C27.7481 23.4572 27.8403 23.619 27.8638 23.7969H27.5836C27.5632 23.6861 27.5009 23.5872 27.4094 23.5207C27.318 23.4542 27.2045 23.425 27.0922 23.4393C26.6804 23.4393 26.5077 23.8103 26.5077 24.2741C26.5077 24.7113 26.6804 25.0828 27.0657 25.0828C27.4774 25.0828 27.5705 24.7914 27.5705 24.4337V24.4204H27.0523V24.1687H27.8494C27.8627 24.5655 27.8627 25.2542 27.8627 25.2941Z" fill="#B9C8DE"/>
<path d="M28.6873 25.2935V24.4848C28.6873 24.4588 28.6873 24.4452 28.6739 24.4327L28.0098 23.2402H28.3421C28.5148 23.5582 28.767 24.0489 28.86 24.2206C29.0196 23.9292 29.2188 23.5582 29.3782 23.2402H29.6838L29.0063 24.4457C28.9929 24.459 28.9929 24.4718 28.9929 24.4979V25.3066H28.6873V25.2935Z" fill="#B9C8DE"/>
<path d="M32.1677 25.2941H31.942C31.9227 25.1982 31.9139 25.1005 31.9158 25.0027C31.8616 25.1109 31.775 25.1997 31.6679 25.2567C31.5607 25.3136 31.4384 25.336 31.318 25.3207C30.7733 25.3207 30.5078 24.8571 30.5078 24.2741C30.5078 23.678 30.8268 23.2009 31.411 23.2009C31.5903 23.1826 31.7698 23.2346 31.9112 23.3459C32.0526 23.4572 32.1448 23.619 32.1682 23.7969H31.8893C31.8689 23.686 31.8066 23.5871 31.7151 23.5206C31.6236 23.4541 31.51 23.425 31.3976 23.4393C30.9859 23.4393 30.8132 23.8103 30.8132 24.2741C30.8132 24.7113 30.9861 25.0828 31.3712 25.0828C31.7832 25.0828 31.876 24.7914 31.876 24.4337V24.4204H31.3578V24.1687H32.1548C32.1677 24.5655 32.1677 25.2542 32.1677 25.2941Z" fill="#B9C8DE"/>
<path d="M32.898 24.366V25.2934H32.6191V23.2266H33.3763C33.7485 23.2266 34.014 23.412 34.014 23.7697C34.0211 23.8749 33.9921 23.9793 33.9318 24.0659C33.8715 24.1526 33.7834 24.2163 33.6819 24.2466C33.8945 24.3128 33.9873 24.485 33.9873 24.7633V24.803C33.9808 24.9668 33.9896 25.1309 34.0135 25.2932H33.7346C33.7014 25.132 33.688 24.9674 33.6948 24.803V24.7626C33.6948 24.4842 33.5884 24.365 33.2697 24.365L32.898 24.366ZM32.898 24.1409H33.2702C33.5226 24.1409 33.7087 24.0746 33.7087 23.7966C33.7087 23.5845 33.5624 23.4786 33.3365 23.4786H32.898V24.1409Z" fill="#B9C8DE"/>
<path d="M36.0725 24.2478C36.0725 24.8439 35.7936 25.321 35.1813 25.321C34.5969 25.321 34.3164 24.8574 34.3164 24.2478C34.3164 23.718 34.5955 23.2012 35.2075 23.2012C35.7802 23.2012 36.0725 23.6647 36.0725 24.2478ZM34.6113 24.2478C34.6113 24.7247 34.7971 25.0826 35.1957 25.0826C35.6075 25.0826 35.7802 24.7249 35.7802 24.2478C35.7802 23.7973 35.6072 23.4391 35.1957 23.4391C34.7842 23.4391 34.6113 23.7975 34.6113 24.2478Z" fill="#B9C8DE"/>
<path d="M36.751 23.2266V24.5382C36.751 24.8429 36.8574 25.0813 37.2159 25.0813C37.5745 25.0813 37.6678 24.8562 37.6678 24.5382V23.2266H37.96V24.5515C37.96 24.9887 37.7742 25.32 37.2028 25.32C36.6582 25.32 36.459 25.0286 36.459 24.5648V23.2266H36.751Z" fill="#B9C8DE"/>
<path d="M38.4645 23.2266H39.1685C39.5536 23.2266 39.846 23.4253 39.846 23.8096C39.846 24.2202 39.5535 24.419 39.1287 24.419H38.7434V25.2934H38.4512V23.2266H38.4645ZM38.7568 24.1806H39.129C39.3945 24.1806 39.5672 24.088 39.5672 23.8096C39.5672 23.5712 39.3945 23.4653 39.1423 23.4653H38.7701V24.1806H38.7568Z" fill="#B9C8DE"/>
</g>
</svg>
