<svg width="82" height="41" viewBox="0 0 82 41" fill="none" xmlns="http://www.w3.org/2000/svg">
<path d="M81.9964 0H0V41H81.9964V0Z" fill="#B9C8DE"/>
<path d="M20.7079 41H0V0H41V41H20.7079ZM20.2957 35.8727H20.7043V40.4866H40.4829V20.7043H35.8691V20.2957H40.4829V0.513449H20.7007V5.12726H20.2921V0.513449H0.513449V20.2921H5.12726V20.7007H0.513449V40.4866H20.2993V35.8727H20.2957ZM9.67237 18.4878C10.5004 14.0222 14.0295 10.504 18.5022 9.68683L18.3432 10.1931C14.2573 11.0392 11.0392 14.25 10.1786 18.3251L9.66875 18.4878H9.67237ZM17.1102 23.785L6.49405 20.4982H20.5018L17.7899 18.0033L7.45948 20.227L17.2078 17.1138L20.4982 6.51213V20.4982L22.9967 17.7935L20.7694 7.47756L23.8862 17.2114L34.5023 20.4982H20.4982L23.2065 22.9931L33.5369 20.7694L23.7886 23.8826L20.4982 34.4843V20.4982L17.9996 23.2028L20.227 33.5188L17.1102 23.785ZM10.175 22.6532C11.0247 26.7319 14.2356 29.9464 18.3178 30.8033L18.4806 31.3132C14.0114 30.4851 10.4859 26.9633 9.66875 22.4978L10.175 22.6532ZM31.3276 22.5122C30.4996 26.9778 26.9705 30.4996 22.4941 31.3168L22.6496 30.8106C26.7355 29.9645 29.9572 26.7536 30.8178 22.6749L31.3276 22.5122ZM22.5158 9.69045C26.9886 10.5185 30.5105 14.0403 31.3312 18.5095L30.825 18.3504C29.9753 14.2717 26.7644 11.0536 22.6822 10.1967L22.5194 9.68683L22.5158 9.69045Z" fill="#130C49"/>
<path d="M40.9964 20.1908H35.8728V20.8055H40.9964V20.1908Z" fill="#130C49"/>
<path d="M5.12364 20.1908H0V20.8055H5.12364V20.1908Z" fill="#130C49"/>
<path d="M20.8056 0H20.1909V5.12364H20.8056V0Z" fill="#130C49"/>
<path d="M20.8056 35.8727H20.1909V40.9964H20.8056V35.8727Z" fill="#130C49"/>
<path fill-rule="evenodd" clip-rule="evenodd" d="M77.0571 12.6482C77.0065 12.7241 75.8024 14.5321 73.2171 14.5321C71.8865 14.5321 70.7547 14.1018 69.9411 13.2882C69.1456 12.4927 68.6901 11.3574 68.6901 10.175C68.6901 8.99259 69.0986 7.991 69.8399 7.2136C70.6896 6.32772 71.919 5.85766 73.3979 5.85766C74.649 5.85766 75.7952 6.31326 76.6232 7.1449C77.4078 7.92954 77.8381 8.98174 77.8381 10.1099C77.8381 10.8005 77.7767 11.5671 77.0571 12.6518V12.6482ZM68.5056 8.29474C68.314 8.29474 68.2706 8.14649 68.173 7.7162C67.9741 6.8484 67.6704 6.8484 66.5459 6.8484H65.5334C65.5407 7.30761 65.537 8.12117 65.5334 8.97813C65.5262 10.8222 65.519 13.1074 65.6021 13.4726C65.6347 13.6172 65.9601 13.733 66.1264 13.7619L66.4374 13.8017C66.7592 13.8414 66.9074 13.8559 66.9942 13.9933C67.0702 14.109 67.0521 14.2319 66.9508 14.3079C66.8894 14.3549 66.77 14.3549 66.1264 14.3332C65.7829 14.3223 65.3562 14.3079 64.8609 14.3043C64.2498 14.3043 63.8521 14.3223 63.5628 14.3368C63.2301 14.3513 63.053 14.3621 62.883 14.326C62.8179 14.3006 62.7782 14.2536 62.7637 14.1886C62.7456 14.1162 62.7637 14.0367 62.8179 13.9716C62.9083 13.8631 62.9915 13.8523 63.2193 13.827C63.3241 13.8161 63.4399 13.8017 63.5881 13.78C63.787 13.7438 64.1956 13.5883 64.2173 13.4726C64.2607 13.1906 64.2751 9.37949 64.2823 7.54626V6.8484L62.7528 6.85202C62.3262 6.85563 62.0514 7.01111 61.7079 7.4414C61.6283 7.56072 61.4078 7.86083 61.2487 8.05609C61.1583 8.16818 61.0028 8.28389 60.8726 8.22965C60.8256 8.20796 60.7461 8.1501 60.7641 7.97654L61.2957 5.85043C61.3137 5.76726 61.3824 5.62625 61.5235 5.62625C61.6826 5.62625 61.7115 5.67687 61.8272 5.89743L61.8778 5.99145C61.9754 6.15054 62.055 6.2771 62.742 6.26263L67.938 6.28433C67.9633 6.28433 68.0103 6.26987 68.0175 6.24455C68.22 5.83958 68.3393 5.61178 68.4948 5.61178C68.6069 5.61178 68.7443 5.67325 68.7443 5.96613V8.06694C68.7298 8.20434 68.6394 8.28389 68.502 8.28389L68.5056 8.29474ZM62.3443 14.1524C62.3334 14.2283 62.2864 14.2826 62.2466 14.3079C62.1309 14.3549 61.9357 14.3476 61.5415 14.3332C61.321 14.3223 61.0209 14.3115 60.7099 14.3151C60.4423 14.3151 60.1928 14.326 59.9433 14.3332C59.4154 14.3513 59.2563 14.3549 59.1876 14.3043C59.1189 14.25 59.0683 14.1235 59.1189 14.0041C59.1732 13.874 59.2708 13.8631 59.4877 13.8378C59.5818 13.827 59.6938 13.8161 59.8385 13.7944C59.9144 13.78 60.0844 13.7474 60.1241 13.6823C60.1097 13.5847 59.8059 12.7458 59.3757 11.5815L59.0538 10.7137C57.7268 10.6414 56.8337 10.6776 56.5553 10.692L56.2009 11.6394L56.0888 11.9431L55.5031 13.5232C55.4814 13.5883 55.4814 13.6389 55.5031 13.6751C55.5465 13.7474 55.673 13.7727 55.749 13.7872C55.8791 13.8053 55.9768 13.8161 56.0563 13.8234C56.2805 13.845 56.4034 13.8559 56.4902 14.0584C56.5119 14.1199 56.5083 14.1813 56.4794 14.2319C56.4504 14.2789 56.3962 14.3115 56.3311 14.3187C56.0491 14.344 55.7779 14.3368 55.4633 14.326C55.2644 14.3187 55.0077 14.3115 54.7184 14.3115C54.4473 14.3115 54.2086 14.3223 54.017 14.326C53.5831 14.3404 53.4999 14.3404 53.4529 14.3079C53.3987 14.2753 53.3408 14.2102 53.3372 14.1271C53.3372 14.0801 53.348 14.0078 53.4276 13.9391C53.5433 13.845 53.6301 13.8378 53.8434 13.8197C53.9483 13.8089 54.0857 13.798 54.2737 13.7727C54.4183 13.7547 54.7365 13.6136 54.8197 13.4473C54.8884 13.3135 55.5826 11.4658 56.2552 9.6796L56.2841 9.60367C56.8916 7.991 57.5786 6.16139 57.763 5.71303L58.186 5.65156C58.2692 5.73472 59.0683 7.82106 60.1964 10.7644C60.7388 12.1854 61.2125 13.4148 61.2703 13.5485C61.3607 13.704 61.6247 13.7474 61.7657 13.7727C62.1345 13.8306 62.196 13.8559 62.29 13.9608C62.3551 14.0331 62.3623 14.1018 62.3551 14.1488L62.3443 14.1524ZM53.1636 14.4634C53.1058 14.5284 53.0949 14.5321 53.0877 14.5321L52.7912 14.5574C51.6414 13.4292 49.0886 10.6342 47.5627 8.96728L46.5575 7.87168C46.5575 8.89496 46.5647 12.8832 46.5973 13.5956C46.6226 13.7257 46.854 13.7655 46.9769 13.7872C47.136 13.8089 47.2554 13.8234 47.3421 13.8342C47.5844 13.8595 47.6712 13.8704 47.758 13.9788C47.8556 14.0982 47.8267 14.2211 47.758 14.2862C47.6929 14.3476 47.541 14.3477 47.0312 14.3296C46.8178 14.3223 46.496 14.3115 46.1778 14.3115C45.8958 14.3115 45.6138 14.3223 45.3896 14.3296C44.8761 14.3477 44.7785 14.3477 44.7279 14.3115C44.6881 14.2826 44.6592 14.2392 44.652 14.1886C44.6447 14.1415 44.652 14.0728 44.717 13.9897C44.8074 13.8812 44.8906 13.8704 45.1184 13.8487C45.2196 13.8378 45.339 13.8234 45.4872 13.8017C45.6644 13.7691 45.8741 13.6643 45.8813 13.6028C45.9392 13.2521 45.9211 9.12999 45.9103 7.57518C45.8958 7.16298 45.8705 7.04004 45.8452 6.97134C45.715 6.60975 45.1329 6.56998 44.8834 6.55552C44.8219 6.5519 44.7857 6.54828 44.7604 6.54105L44.6809 6.16862L46.4635 6.06015C46.6154 6.14331 46.9082 6.36026 47.1794 6.64591L52.4911 12.4927C52.4477 11.0572 52.3067 7.81383 52.2669 6.83394C52.238 6.67845 52.003 6.63507 51.8872 6.61337C51.7101 6.58806 51.5799 6.5736 51.504 6.56636C51.2762 6.54105 51.193 6.53382 51.1026 6.42173C51.005 6.30241 51.0339 6.17947 51.1026 6.11438C51.1677 6.05291 51.3196 6.05292 51.833 6.07099C52.0753 6.07823 52.379 6.08907 52.6827 6.08907C52.9684 6.08907 53.2468 6.07823 53.4746 6.07099C53.988 6.05292 54.0821 6.05291 54.1363 6.08907C54.1761 6.118 54.205 6.16139 54.2122 6.21201C54.2195 6.25902 54.2122 6.32772 54.1471 6.40727C54.0568 6.51574 53.9736 6.52659 53.7458 6.5519C53.6482 6.56275 53.5288 6.57721 53.377 6.59529C53.16 6.63506 52.9828 6.73992 52.9828 6.77608C52.9828 6.81224 53.1636 12.8362 53.16 13.3569L53.1781 14.438L53.1673 14.4634H53.1636ZM41 0V20.1908H61.1908V17.9382H61.8055V20.1908H81.9963V0H40.9963H41ZM56.7903 10.0629C57.0941 10.081 57.9365 10.1243 58.8188 10.0882L57.7991 7.36546L56.7903 10.0629ZM73.2279 6.38196C72.3637 6.38196 71.6478 6.65676 71.1054 7.19914C70.3099 7.99462 70.0243 9.22762 70.0243 10.1171C70.0243 11.0066 70.328 12.3083 71.185 13.1653C71.7201 13.7004 72.3782 13.968 73.1484 13.968C74.2621 13.968 75.1082 13.6064 75.6614 12.8905C76.1604 12.2432 76.4171 11.3212 76.4171 10.1569C76.4171 8.89858 76.0772 7.9223 75.4083 7.25337C74.649 6.49405 73.7161 6.38196 73.2243 6.38196H73.2279Z" fill="#130C49"/>
<path fill-rule="evenodd" clip-rule="evenodd" d="M78.207 26.9452C78.1166 27.0537 78.0334 27.0646 77.8056 27.0899C77.7116 27.1007 77.5923 27.1116 77.4368 27.1333C77.2162 27.173 77.0391 27.2779 77.0427 27.3141C77.0427 27.3574 77.2235 33.3742 77.2199 33.8949L77.2379 34.9724L76.8619 35.0917C75.7012 33.9563 73.152 31.1722 71.6334 29.5052L70.6246 28.406C70.6246 29.4293 70.6318 33.4212 70.6643 34.1299C70.6897 34.2601 70.9283 34.2999 71.0404 34.3215C71.214 34.3469 71.3405 34.3613 71.4237 34.3686C71.6515 34.3939 71.7346 34.4011 71.825 34.5132C71.9227 34.6325 71.8937 34.7554 71.825 34.8205C71.7599 34.882 71.6081 34.882 71.0946 34.8639C70.8524 34.8567 70.5486 34.8458 70.2413 34.8458C69.9737 34.8458 69.7025 34.8567 69.4856 34.8639C68.9287 34.882 68.842 34.882 68.7913 34.8458C68.7516 34.8169 68.7226 34.7735 68.7154 34.7229C68.7082 34.6759 68.7154 34.6072 68.7805 34.524C68.8709 34.4156 68.9541 34.4047 69.1819 34.3794C69.2903 34.3686 69.406 34.3541 69.5507 34.336C69.7315 34.3035 69.9339 34.1986 69.9448 34.1335C70.0171 33.7105 69.9737 28.1602 69.9737 28.1059C69.9593 27.6937 69.9339 27.5708 69.9086 27.5021C69.7785 27.1405 69.1963 27.1043 68.9468 27.0863C68.8781 27.0826 68.8456 27.079 68.8239 27.0718L68.7443 26.6994L70.5269 26.5909C70.6788 26.674 70.9753 26.8946 71.2429 27.1767L76.5545 33.0235C76.5112 31.5988 76.3738 28.359 76.3304 27.3828C76.3014 27.2092 76.0628 27.1658 75.9507 27.1441C75.7699 27.1188 75.6397 27.1043 75.5674 27.0971C75.3396 27.0718 75.2565 27.0646 75.1661 26.9525C75.054 26.8151 75.1118 26.6957 75.1661 26.6451C75.2312 26.5837 75.383 26.5873 75.8928 26.6017C76.1351 26.609 76.4388 26.6198 76.7462 26.6162C77.0318 26.6162 77.3103 26.6053 77.5381 26.5981C78.0587 26.58 78.1455 26.58 78.1998 26.6162C78.2395 26.6451 78.2685 26.6885 78.2757 26.7391C78.2829 26.7861 78.2757 26.8548 78.2106 26.9344L78.207 26.9452ZM68.7118 34.6867C68.7009 34.7627 68.6539 34.8169 68.6142 34.8422C68.4985 34.8892 68.3032 34.882 67.9055 34.8675C67.6994 34.8603 67.3884 34.8458 67.0774 34.8495C66.8062 34.8495 66.5495 34.8603 66.3253 34.8675C65.783 34.8856 65.6275 34.8892 65.5552 34.8386C65.5009 34.7952 65.4322 34.6759 65.4865 34.5385C65.5407 34.4083 65.6419 34.3975 65.8589 34.3722C65.9565 34.3613 66.0686 34.3469 66.2096 34.3288C66.2856 34.3143 66.4591 34.2818 66.4953 34.2167C66.4844 34.1227 66.1843 33.2983 65.7468 32.1159L65.425 31.2481C64.1016 31.1758 63.2049 31.2119 62.9264 31.2264L62.5468 32.2424L61.8742 34.0576C61.8525 34.1227 61.8525 34.1733 61.8742 34.2095C61.9176 34.2818 62.0442 34.3071 62.1201 34.3215C62.2467 34.3396 62.3443 34.3505 62.4202 34.3577C62.6516 34.3794 62.7746 34.3902 62.8577 34.5927C62.8831 34.6542 62.8758 34.7157 62.8469 34.7663C62.818 34.8133 62.7637 34.8458 62.6986 34.8495C62.413 34.8784 62.1382 34.8675 61.8236 34.8567C61.6103 34.8495 61.368 34.8422 61.0896 34.8422C60.8148 34.8422 60.5653 34.8531 60.3845 34.8603C59.9506 34.8748 59.8711 34.8748 59.8241 34.8422C59.7698 34.8097 59.712 34.7446 59.7084 34.6614C59.7084 34.6144 59.7192 34.5421 59.7987 34.4734C59.9108 34.3794 60.0012 34.3722 60.2146 34.3541C60.323 34.3432 60.4568 34.3324 60.6412 34.3071C60.7859 34.2854 61.1041 34.148 61.1872 33.9817C61.2559 33.8443 62.0008 31.8664 62.6553 30.1236C63.2302 28.5977 63.9425 26.703 64.1269 26.2438L64.55 26.1823C64.6331 26.2655 65.4358 28.359 66.5676 31.3132C67.1064 32.727 67.5764 33.9455 67.6343 34.0829C67.7247 34.2384 67.9886 34.2818 68.1296 34.3071C68.4912 34.3649 68.5599 34.3902 68.6539 34.4951C68.719 34.5674 68.7263 34.6397 68.719 34.6831L68.7118 34.6867ZM59.5673 34.8495C59.5059 34.8965 59.3865 34.8965 58.7429 34.8748C58.3994 34.8639 57.9727 34.8495 57.481 34.8458C56.8482 34.8458 56.4396 34.8675 56.1721 34.8784C55.8503 34.8928 55.6731 34.9037 55.5031 34.8675C55.438 34.8422 55.3983 34.7952 55.3838 34.7301C55.3657 34.6578 55.3838 34.5783 55.438 34.5132C55.5284 34.4047 55.6116 34.3939 55.8394 34.3686C55.9443 34.3577 56.06 34.3432 56.2082 34.3215C56.4071 34.2854 56.8157 34.1263 56.8374 34.0142C56.8808 33.7285 56.8952 29.8849 56.9025 28.0372V27.39L55.373 27.3936C54.9463 27.3972 54.6715 27.5527 54.328 27.983C54.2521 28.0987 54.0315 28.3988 53.8688 28.5977C53.7784 28.7134 53.6229 28.8255 53.4927 28.7712C53.453 28.7568 53.3626 28.6989 53.3842 28.5181L53.9158 26.392C53.9339 26.3088 54.0026 26.1678 54.1436 26.1678C54.3027 26.1678 54.3316 26.2185 54.4473 26.439L54.4979 26.533C54.5956 26.6921 54.6751 26.8187 55.3621 26.8042L60.5581 26.8259C60.5834 26.8259 60.6304 26.8115 60.6376 26.7861C60.8401 26.3812 60.9594 26.1534 61.1149 26.1534C61.227 26.1534 61.3644 26.2148 61.3644 26.5077V28.6085C61.3499 28.7459 61.2595 28.8255 61.1221 28.8255C60.9305 28.8255 60.8871 28.6772 60.7895 28.2469C60.5906 27.3791 60.2869 27.3791 59.166 27.3791H58.1535C58.1608 27.8383 58.1572 28.6519 58.1535 29.5089C58.1463 31.3602 58.1391 33.6382 58.2222 34.0034C58.2548 34.148 58.5802 34.2637 58.7465 34.2962C58.8912 34.3179 59.0105 34.3288 59.0864 34.3396C59.3793 34.3722 59.5239 34.3902 59.6143 34.5276C59.7047 34.6687 59.6469 34.7844 59.571 34.8422L59.5673 34.8495ZM53.001 33.1826C52.9503 33.2585 51.7463 35.0664 49.161 35.0664C47.8303 35.0664 46.6986 34.6361 45.885 33.8226C45.0895 33.0271 44.6339 31.8917 44.6339 30.7093C44.6339 29.5269 45.0425 28.5254 45.7838 27.748C46.6335 26.8621 47.8629 26.392 49.3417 26.392C50.5928 26.392 51.739 26.8476 52.5671 27.6756C53.3517 28.4603 53.782 29.5125 53.782 30.6406C53.782 31.3312 53.7205 32.0978 53.001 33.1826ZM61.8055 20.8055V23.0618H61.1908V20.8055H41V40.9964H82V20.8055H61.8092H61.8055ZM63.1579 30.5972C63.4616 30.6153 64.2969 30.6587 65.1863 30.6225L64.1667 27.8998L63.1579 30.5972ZM49.1754 26.9163C48.3112 26.9163 47.5953 27.1911 47.0529 27.7335C46.2574 28.529 45.9718 29.7656 45.9718 30.6515C45.9718 31.5374 46.2755 32.8427 47.1325 33.6996C47.664 34.2312 48.3257 34.5023 49.0959 34.5023C50.2095 34.5023 51.0556 34.1408 51.6089 33.4248C52.1115 32.7776 52.3646 31.8555 52.3646 30.6912C52.3646 29.4329 52.0247 28.4567 51.3558 27.7877C50.5964 27.0284 49.6636 26.9163 49.1718 26.9163H49.1754Z" fill="#130C49"/>
</svg>
