<svg width="126" height="23" viewBox="0 0 126 23" fill="none" xmlns="http://www.w3.org/2000/svg">
<path d="M22.3357 0V18.0203H13.717V7.20974H8.786V18.0203H0.167236V0H22.3357Z" fill="#B9C8DE"/>
<path fill-rule="evenodd" clip-rule="evenodd" d="M32.1814 6.86646e-05H35.9109L44.4963 11.1446V6.86646e-05H48.4761V18.0122H45.047L36.1696 6.63954V18.0122H32.1814V6.86646e-05ZM50.4201 11.2424V11.1935C50.4201 7.28312 53.2736 4.06522 57.3619 4.06522C62.0509 4.06522 64.1952 7.61714 64.1952 11.5031C64.1952 11.8045 64.1701 12.1629 64.1451 12.5214H54.3749C54.7671 14.281 56.0186 15.2016 57.8041 15.2016C59.139 15.2016 60.1069 14.7943 61.2082 13.8004L63.486 15.7637C62.1761 17.3523 60.2904 18.3218 57.754 18.3218C53.5323 18.3218 50.4118 15.4379 50.4118 11.2424H50.4201ZM60.3238 10.0937C60.0902 8.35033 59.0389 7.17722 57.3702 7.17722C55.7099 7.17722 54.6336 8.33404 54.3249 10.0937H60.3238ZM66.6815 7.64158H65.0128V4.31776H66.6815V0.822875H70.6697V4.31776H73.9653V7.64158H70.6697V13.4908C70.6697 14.387 71.0618 14.8269 71.9462 14.8269C72.6804 14.8269 73.3396 14.6395 73.9153 14.3299V17.4501C73.0809 17.9389 72.1047 18.2403 70.7698 18.2403C68.3335 18.2403 66.6898 17.2953 66.6898 14.1263L66.6815 7.64158ZM94.874 4.32591H98.8538V6.28924C99.8216 5.01022 101.157 4.07337 103.226 4.07337C106.505 4.07337 109.617 6.57437 109.617 11.1446V11.1935C109.617 15.7719 106.555 18.2729 103.226 18.2729C101.107 18.2729 99.7966 17.3279 98.8538 16.2281V22.1099H94.874V4.32591ZM105.629 11.1446C105.629 8.87171 104.06 7.36459 102.2 7.36459C100.347 7.36459 98.7954 8.87171 98.7954 11.1446V11.1935C98.7954 13.4664 100.339 14.9817 102.2 14.9817C104.06 14.9817 105.629 13.4908 105.629 11.1935V11.1446ZM111.235 4.32591H115.215V6.28924C116.191 5.01022 117.526 4.06522 119.596 4.06522C122.866 4.06522 125.987 6.57437 125.987 11.1446V11.1935C125.987 15.7719 122.916 18.2729 119.596 18.2729C117.468 18.2729 116.158 17.3279 115.215 16.2281V22.1099H111.235V4.32591ZM122.007 11.1446C122.007 8.87171 120.43 7.36459 118.569 7.36459C116.717 7.36459 115.165 8.87171 115.165 11.1446V11.1935C115.165 13.4664 116.717 14.9735 118.569 14.9735C120.43 14.9735 122.007 13.4908 122.007 11.1935V11.1446ZM82.5841 6.86646e-05H86.2135L93.8728 18.0203H89.676L87.9823 14.0041H80.7152L79.0381 18.0203H74.9248L82.5841 6.86646e-05ZM86.7892 10.5255L84.3529 4.71695L81.9083 10.5255H86.7892Z" fill="#B9C8DE"/>
</svg>
