<svg width="171" height="30" viewBox="0 0 171 30" fill="none" xmlns="http://www.w3.org/2000/svg">
<path d="M144.711 0.564453H157.436C161.978 0.807111 165.807 3.34642 166.13 8.16518C166.342 11.314 165.43 13.9202 162.809 15.7506L161.217 16.683C163.206 19.721 165.176 22.7896 167.303 25.734C168.302 27.1173 169.384 28.2828 170.394 29.5974C170.448 29.6662 170.526 29.6834 170.496 29.8018C168.583 30.0961 166.716 30.1018 164.85 29.5477C162.866 28.9592 161.12 27.7115 159.826 26.1161L154.295 17.8084H151.396V25.2372H144.711V0.564453ZM151.396 12.4241C153.934 12.2254 159.421 13.4673 159.452 9.46063C159.469 7.23467 157.807 6.53918 155.864 6.42645C154.402 6.34238 152.866 6.48759 151.396 6.42645V12.4241Z" fill="#B9C8DE"/>
<path d="M132.703 0.564453V6.35767H119.878V10.1064H131.474V15.4908H119.878V19.444H132.839V25.2372H113.262V0.564453H132.703Z" fill="#B9C8DE"/>
<path d="M13.9353 0.0200622C22.8181 0.507288 28.5884 9.40919 25.2237 17.7398C21.0278 28.132 5.55315 28.369 1.09742 18.0589C-2.54818 9.62319 3.31764 0.541681 12.3667 0.0200622C12.8443 -0.00668741 13.4577 -0.00668741 13.9353 0.0200622ZM12.6934 6.17248C4.06854 6.72467 5.62002 21.2173 14.4818 19.4097C21.7826 17.9194 20.4508 5.6757 12.6934 6.17248Z" fill="#B9C8DE"/>
<path d="M85.3258 0.496094L90.9528 16.1045L96.4117 0.496094H103.779L94.0061 25.2548L93.8876 25.4077L87.9148 25.4459L87.7123 25.3733L77.9238 0.496094H85.3258Z" fill="#B9C8DE"/>
<path d="M41.2226 0.496094V19.1368C41.2226 19.1368 41.3181 19.24 41.3258 19.24H53.0249V25.2376H34.5371V0.599271C34.5371 0.599271 34.6326 0.496094 34.6403 0.496094H41.2226Z" fill="#B9C8DE"/>
<path d="M68.5101 0.496094H61.7559V25.2357H68.5101V0.496094Z" fill="#B9C8DE"/>
</svg>
