<svg xmlns:xlink="http://www.w3.org/1999/xlink"  xmlns="http://www.w3.org/2000/svg" viewBox="0 0 451.14 400">
  <defs>
    <style>
      .cls-1{fill:#f62b44;}.cls-2{fill:#fff;}.cls-3{fill:#7c8b9a;}
    </style>
  </defs>
  <path class="cls-1" d="M352.39,105.79c-15.54,0-30.15-6.05-41.14-17.04-10.99-10.99-17.04-25.6-17.04-41.14,0-7.58,1.44-14.94,4.19-21.76C269.35,9.4,235.77,0,200,0,89.54,0,0,89.54,0,200s89.54,200,200,200,200-89.54,200-200c0-35.77-9.39-69.35-25.85-98.41-6.83,2.75-14.18,4.19-21.76,4.19Z"></path>
  <path class="cls-2" d="M143.02,120.52H77.39v147.98h30.03v-44.82h35.6c34.53,0,57.26-20.59,57.26-51.48s-22.73-51.68-57.26-51.68Zm.21,75.27h-35.81v-47.39h35.81c17.59,0,26.6,9.43,26.6,23.8s-9.01,23.59-26.6,23.59Z"></path>
  <path class="cls-2" d="M285.21,120.52h-36.67l-62.63,147.98h31.96l11.58-28.74h74.42l11.59,28.74h31.95l-62.2-147.98Zm-45.03,91.36l26.59-65.2,26.38,65.2h-52.97Z"></path>
  <g>
    <circle class="cls-3" cx="352.39" cy="47.61" r="47.61"></circle>
    <circle class="cls-3" cx="424.68" cy="108.43" r="25.74"></circle>
    <circle class="cls-3" cx="436.13" cy="47.61" r="15.02"></circle>
  </g>
</svg>