<svg width="34" height="30" viewBox="0 0 34 30" fill="none" xmlns="http://www.w3.org/2000/svg">
<path d="M26.5577 7.93425C25.3866 7.93425 24.2855 7.4805 23.4572 6.65625C22.629 5.832 22.173 4.73625 22.173 3.57075C22.173 3.00225 22.2816 2.45025 22.4888 1.93875C20.2995 0.705 17.7687 0 15.0729 0C6.74815 0 0 6.7155 0 15C0 23.2845 6.74815 30 15.0729 30C23.3977 30 30.1459 23.2845 30.1459 15C30.1459 12.3173 29.4382 9.79875 28.1977 7.61925C27.6829 7.8255 27.129 7.9335 26.5577 7.9335V7.93425Z" fill="#B9C8DE"/>
<path d="M10.7782 9.03906H5.83203V20.1376H8.09523V16.7761H10.7782C13.3806 16.7761 15.0936 15.2318 15.0936 12.9151C15.0936 10.5983 13.3806 9.03906 10.7782 9.03906ZM10.794 14.6843H8.09523V11.1301H10.794C12.1197 11.1301 12.7987 11.8373 12.7987 12.9151C12.7987 13.9928 12.1197 14.6843 10.794 14.6843Z" fill="#130C49"/>
<path d="M21.4954 9.03906H18.7318L14.0117 20.1376H16.4204L17.2931 17.9821H22.9017L23.7752 20.1376H26.1831L21.4954 9.03906ZM18.1018 15.8911L20.1057 11.0011L22.0938 15.8911H18.1018Z" fill="#130C49"/>
<path d="M26.5569 7.1415C28.5385 7.1415 30.145 5.54282 30.145 3.57075C30.145 1.59868 28.5385 0 26.5569 0C24.5752 0 22.9688 1.59868 22.9688 3.57075C22.9688 5.54282 24.5752 7.1415 26.5569 7.1415Z" fill="#B9C8DE"/>
<path d="M32.0043 10.0622C33.0757 10.0622 33.9442 9.19786 33.9442 8.13167C33.9442 7.06549 33.0757 6.20117 32.0043 6.20117C30.933 6.20117 30.0645 7.06549 30.0645 8.13167C30.0645 9.19786 30.933 10.0622 32.0043 10.0622Z" fill="#B9C8DE"/>
<path d="M32.8683 4.69636C33.4935 4.69636 34.0003 4.19201 34.0003 3.56986C34.0003 2.94771 33.4935 2.44336 32.8683 2.44336C32.2431 2.44336 31.7363 2.94771 31.7363 3.56986C31.7363 4.19201 32.2431 4.69636 32.8683 4.69636Z" fill="#B9C8DE"/>
</svg>
