<svg xmlns:xlink="http://www.w3.org/1999/xlink"  xmlns="http://www.w3.org/2000/svg" viewBox="0 0 217.61 45.807"><linearGradient id="a" gradientUnits="objectBoundingBox" x1=".063" x2=".932" y1=".824" y2=".005"><stop offset="0" stop-color="#227fc8"/><stop offset=".234" stop-color="#2b9fc6"/><stop offset=".571" stop-color="#37c7c3"/><stop offset=".838" stop-color="#3fe0c2"/><stop offset="1" stop-color="#42eac2"/></linearGradient><path d="M1489.846 562.483h5.389v13.247h-5.389zm8.083 24.025-8.083 8.083v-13.473h25.025a1.92 1.92 0 0 0 1.92-1.921v-23.1a1.92 1.92 0 0 0-1.92-1.92h-28.494a1.92 1.92 0 0 0-1.92 1.92v30.414a5.389 5.389 0 0 1-5.389-5.389v-26.949a5.389 5.389 0 0 1 5.389-5.389h32.334a5.389 5.389 0 0 1 5.389 5.389v26.945a5.389 5.389 0 0 1-5.389 5.389zm8.083-26.946h5.389v16.167h-5.389zm-2.695 5.683v10.485h-5.389v-10.486z" fill="url(#a)" fill-rule="evenodd" transform="translate(-1479.068 -548.784)"/><path d="M57.395 32.179h-5.431V5.827a51.025 51.025 0 0 1 8.722-.736c5.972 0 10.77 1.185 10.77 8.515 0 7.123-4.326 8.665-10.483 8.665-1.173 0-2.543-.057-3.578-.127zm0-14.338a26.45 26.45 0 0 0 3.314.149c3.429 0 5.351-.886 5.351-4.384 0-3.05-1.277-4.258-5.236-4.258a26.655 26.655 0 0 0-3.429.23zm15.732 4.084c0-7.433 2.336-10.517 9.195-10.517 7.479 0 9.021 3.924 9.021 10.126 0 .541-.023 1.093-.069 1.646a97.449 97.449 0 0 1-9.7 1.024l-3.372.173c.184 3.2 1.887 3.982 4.845 3.982a58.4 58.4 0 0 0 7.388-.541l.426 3.855a51.63 51.63 0 0 1-8.964.782c-6.952-.001-8.77-4.454-8.77-10.53zm8.446-1.219c1.335-.069 3.406-.242 4.6-.4a6.553 6.553 0 0 0 .046-.817c0-2.692-1-4.165-3.9-4.165-3.763 0-4.269 2.348-4.269 5.558zm12.65 11.472V17.196a38.761 38.761 0 0 1 .172-3.889 17.065 17.065 0 0 1 8.239-1.9 19.664 19.664 0 0 1 2.083.1l-.414 4.1a11.56 11.56 0 0 0-1.473-.081 8.4 8.4 0 0 0-3.406.633 26.272 26.272 0 0 0-.126 2.75v13.268zm26.218-.506a27.225 27.225 0 0 1-6.709.782c-6.87 0-7.928-5.225-7.928-10.713 0-6.709 1.576-10.333 9.114-10.333a18.2 18.2 0 0 1 5.489.782l-.414 3.751a19.469 19.469 0 0 0-3.717-.472c-4.787 0-5.3 1.416-5.3 6.272 0 4.591.208 6.559 5.351 6.559a18.256 18.256 0 0 0 3.671-.483zm1.545-9.747c0-7.433 2.336-10.517 9.194-10.517 7.48 0 9.021 3.924 9.021 10.126 0 .541-.023 1.093-.069 1.646a97.465 97.465 0 0 1-9.7 1.024l-3.372.173c.184 3.2 1.888 3.982 4.845 3.982a58.4 58.4 0 0 0 7.388-.541l.426 3.855a51.633 51.633 0 0 1-8.964.782c-6.951-.001-8.769-4.454-8.769-10.53zm8.446-1.219c1.335-.069 3.406-.242 4.6-.4a6.507 6.507 0 0 0 .046-.817c0-2.692-1-4.165-3.9-4.165-3.763 0-4.269 2.348-4.269 5.558zm17.701 19.021h-5.1V17.196a38.867 38.867 0 0 1 .173-3.889 17.08 17.08 0 0 1 8.25-1.9c6.824 0 9.7 2.474 9.7 10.529 0 7.94-2.808 10.517-9.114 10.517a19.6 19.6 0 0 1-3.912-.437zm2.877-11.3c4.891 0 5.017-2.761 5.017-6.49 0-3.348-.2-6.525-4.568-6.525a8.574 8.574 0 0 0-3.2.541 26.275 26.275 0 0 0-.126 2.75v9.274a10.5 10.5 0 0 0 2.88.45zm19.852-22.531v5.788h4.119v3.878h-4.119v10.6c0 1.7.713 2.371 2.428 2.371.576 0 1.139-.023 1.726-.07l.391 3.637a21.33 21.33 0 0 1-3.51.357c-4.315 0-6.133-1.887-6.133-5.776V15.562h-3.35v-3.878h3.348V6.725zm19.999 5.788h5.2l-9.539 28.043h-5.2l3.222-8.987-8.239-19.056h5.42l5.132 12.646zm20.696 0h5.489l-6.893 9.816 7.457 10.679h-5.972l-4.534-6.778-4.465 6.778h-5.616l7.423-10.575-6.9-9.919h5.857l4.1 6.133z" fill="#040725"/></svg>