<svg width="144" height="30" viewBox="0 0 144 30" fill="none" xmlns="http://www.w3.org/2000/svg">
<path fill-rule="evenodd" clip-rule="evenodd" d="M7.85996 8.97176H11.4013V17.6475H7.85996V8.97176ZM13.1716 24.7063L7.85996 30V21.1762H24.3049C24.4706 21.1762 24.6347 21.1437 24.7879 21.0805C24.941 21.0172 25.0801 20.9246 25.1973 20.8077C25.3145 20.6909 25.4074 20.5522 25.4707 20.3995C25.5341 20.2469 25.5667 20.0833 25.5666 19.9182V4.78944C25.5666 4.6243 25.534 4.4608 25.4706 4.30824C25.4072 4.15568 25.3142 4.01708 25.197 3.90031C25.0799 3.78355 24.9408 3.69093 24.7877 3.62773C24.6346 3.56454 24.4706 3.532 24.3049 3.532H5.58035C5.24572 3.532 4.92487 3.66449 4.68825 3.90031C4.45163 4.13613 4.31869 4.45594 4.31869 4.78944V24.7082C3.37947 24.7082 2.47868 24.3364 1.81455 23.6745C1.15042 23.0126 0.777344 22.1149 0.777344 21.1789V3.52936C0.777344 3.06587 0.868986 2.60695 1.04695 2.17874C1.22492 1.75054 1.48571 1.36148 1.81455 1.03375C2.14339 0.706016 2.53385 0.446028 2.9635 0.26866C3.39315 0.0912926 3.85364 0 4.31869 0H25.5666C26.5058 0 27.4065 0.371862 28.0707 1.03375C28.7348 1.69563 29.108 2.59331 29.108 3.52936V21.1762C29.108 22.1123 28.7348 23.01 28.0707 23.6719C27.4065 24.3338 26.5058 24.7056 25.5666 24.7056L13.1716 24.7063ZM18.4833 7.05876H22.0246V17.6469H18.4833V7.05876ZM16.7123 10.7807V17.6475H13.171V10.78L16.7123 10.7807Z" fill="#B9C8DE"/>
<path d="M38.4947 21.0746H34.9258V3.81605C36.8189 3.49206 38.7365 3.33079 40.6573 3.33403C44.5818 3.33403 47.7347 4.11011 47.7347 8.91069C47.7347 13.5757 44.8919 14.5856 40.8459 14.5856C40.0751 14.5856 39.1748 14.5483 38.4947 14.5024V21.0746ZM38.4947 11.6843C39.2179 11.7622 39.9452 11.7948 40.6725 11.7819C42.9258 11.7819 44.1888 11.2016 44.1888 8.91069C44.1888 6.91318 43.3496 6.12203 40.748 6.12203C39.9945 6.12388 39.2418 6.1742 38.4947 6.27267V11.6843ZM48.8328 14.359C48.8328 9.49095 50.3679 7.47117 54.8752 7.47117C59.7899 7.47117 60.8033 10.0411 60.8033 14.1029C60.8033 14.4572 60.7881 14.8187 60.7579 15.1809C58.6457 15.5104 56.5183 15.7342 54.3837 15.8516L52.1678 15.9649C52.2887 18.0606 53.4078 18.5728 55.3516 18.5728C56.9758 18.5572 58.5974 18.4388 60.2066 18.2184L60.4865 20.7432C58.5417 21.0844 56.5707 21.2558 54.5959 21.2553C50.0275 21.2547 48.8328 18.3383 48.8328 14.359ZM54.383 13.5606C55.2603 13.5154 56.6212 13.4021 57.4058 13.2987C57.4271 13.1211 57.4372 12.9424 57.4361 12.7636C57.4361 11.0005 56.7789 10.0358 54.8732 10.0358C52.4004 10.0358 52.0679 11.5736 52.0679 13.6759L54.383 13.5606ZM62.6958 21.0739V11.2619C62.6907 10.4115 62.7284 9.56144 62.8088 8.71487C64.4803 7.85401 66.3421 7.42609 68.223 7.47052C68.6801 7.4682 69.137 7.49007 69.5918 7.53601L69.3198 10.2212C68.9986 10.183 68.6753 10.1653 68.3518 10.1681C67.5849 10.1498 66.8227 10.291 66.1136 10.5827C66.0544 11.1812 66.0268 11.7824 66.0308 12.3837V21.0732L62.6958 21.0739ZM79.9247 20.7425C78.4821 21.095 77.0012 21.267 75.5159 21.2547C71.0014 21.2547 70.3061 17.8327 70.3061 14.2385C70.3061 9.84461 71.3418 7.47117 76.2953 7.47117C77.5168 7.45729 78.7333 7.63001 79.9023 7.98332L79.6303 10.4399C78.828 10.2589 78.01 10.1553 77.1877 10.1308C74.042 10.1308 73.7049 11.0582 73.7049 14.2385C73.7049 17.2452 73.8416 18.5341 77.2212 18.5341C78.034 18.5104 78.8423 18.4044 79.6336 18.2178L79.9247 20.7425ZM80.94 14.359C80.94 9.49095 82.475 7.47117 86.9817 7.47117C91.8971 7.47117 92.9097 10.0411 92.9097 14.1029C92.9097 14.4572 92.8946 14.8187 92.8644 15.1809C90.7522 15.5103 88.6248 15.7342 86.4902 15.8516L84.2743 15.9649C84.3952 18.0606 85.515 18.5728 87.4581 18.5728C89.0823 18.5572 90.7039 18.4388 92.3131 18.2184L92.593 20.7432C90.6482 21.0844 88.6772 21.2558 86.7024 21.2553C82.1346 21.2547 80.94 18.3383 80.94 14.359ZM86.4902 13.5606C87.3674 13.5154 88.7284 13.4021 89.513 13.2987C89.5343 13.1211 89.5444 12.9424 89.5432 12.7636C89.5432 11.0005 88.8861 10.0358 86.9804 10.0358C84.5076 10.0358 84.1751 11.5736 84.1751 13.6759L86.4902 13.5606ZM98.1222 26.0179H94.7708V11.2619C94.766 10.4115 94.8039 9.56144 94.8844 8.71487C96.5582 7.85323 98.4226 7.4253 100.306 7.47052C104.79 7.47052 106.68 9.09079 106.68 14.3662C106.68 19.5663 104.835 21.254 100.691 21.254C99.8266 21.2448 98.9653 21.1489 98.1202 20.9678L98.1222 26.0179ZM100.013 18.6173C103.227 18.6173 103.31 16.809 103.31 14.3668C103.31 12.1742 103.178 10.0935 100.308 10.0935C99.5906 10.0771 98.8769 10.1973 98.205 10.4478C98.1458 11.0463 98.1182 11.6475 98.1222 12.2488V18.3226C98.7362 18.508 99.3732 18.6072 100.015 18.6173H100.013ZM113.058 3.86124V7.65193H115.765V10.1917H113.058V17.1339C113.058 18.2473 113.527 18.6867 114.654 18.6867C115.032 18.6867 115.402 18.6716 115.788 18.6409L116.045 21.0228C115.284 21.1641 114.512 21.2423 113.738 21.2566C110.903 21.2566 109.708 20.0208 109.708 17.4738V10.1917H107.507V7.65193H109.707V4.40417L113.058 3.86124ZM126.2 7.65193H129.618L123.349 26.0179H119.932L122.049 20.1321L116.635 7.65193H120.197L123.569 15.9341L126.2 7.65193ZM139.801 7.65193H143.408L138.878 14.0806L143.778 21.0746H139.854L136.874 16.6355L133.94 21.0746H130.25L135.128 14.1488L130.593 7.65259H134.442L137.137 11.6692L139.801 7.65193Z" fill="#B9C8DE"/>
</svg>
