<svg width="80" height="30" viewBox="0 0 80 30" fill="none" xmlns="http://www.w3.org/2000/svg">
<path d="M15.797 0C7.55929 0 0.886719 6.68194 0.886719 14.9313C0.886719 23.1806 7.55929 29.8625 15.797 29.8625C24.0348 29.8625 30.7074 23.1806 30.7074 14.9313C30.7348 6.68194 24.0348 0 15.797 0Z" fill="#B9C8DE"/>
<path d="M54.8703 13.4476C54.3486 11.9627 52.9207 10.9453 51.3555 10.9453C49.2961 10.9453 47.6211 12.6227 47.6211 14.685C47.6211 16.7473 49.2961 18.4247 51.3281 18.4247C51.3555 18.4247 51.3555 18.4247 51.4105 18.4247C51.7125 18.4247 52.7285 18.3697 53.6896 17.8197C53.9916 17.6548 54.074 17.2698 53.9092 16.9673C53.7445 16.6648 53.3601 16.5823 53.058 16.7473C52.2342 17.2148 51.3555 17.1873 51.3555 17.1873H51.3281C50.1748 17.1873 49.1863 16.3899 48.9117 15.3174H54.431C54.7605 15.3174 55.0351 15.0425 55.0351 14.7125C55.0351 14.575 55.0351 14.4375 55.0076 14.2725C55.0076 13.9701 54.9527 13.6951 54.8703 13.4476ZM48.9391 14.0526C49.2137 12.9801 50.2023 12.1827 51.3555 12.1827C52.4264 12.1827 53.3601 12.8427 53.717 13.8601C53.7445 13.9151 53.7719 13.9976 53.7719 14.0526H48.9391Z" fill="#B9C8DE"/>
<path d="M78.815 10.9453C78.4855 10.9453 78.2109 11.2203 78.2109 11.5503V17.7922C78.2109 18.1222 78.4855 18.3972 78.815 18.3972C79.1446 18.3972 79.4191 18.1222 79.4191 17.7922V11.5503C79.4191 11.2203 79.1446 10.9453 78.815 10.9453Z" fill="#B9C8DE"/>
<path d="M78.8156 8.7173C79.2251 8.7173 79.557 8.3849 79.557 7.97486C79.557 7.56482 79.2251 7.23242 78.8156 7.23242C78.4062 7.23242 78.0742 7.56482 78.0742 7.97486C78.0742 8.3849 78.4062 8.7173 78.8156 8.7173Z" fill="#B9C8DE"/>
<path d="M67.9141 10.9453C65.8547 10.9453 64.1797 12.6227 64.1797 14.685C64.1797 16.7473 65.8547 18.4247 67.9141 18.4247C69.9736 18.4247 71.6486 16.7473 71.6486 14.685C71.6486 12.6227 69.9736 10.9453 67.9141 10.9453ZM67.9141 17.1873C66.5412 17.1873 65.4153 16.0599 65.4153 14.685C65.4153 13.3101 66.5412 12.1827 67.9141 12.1827C69.2871 12.1827 70.4129 13.3101 70.4129 14.685C70.4129 16.0599 69.2871 17.1873 67.9141 17.1873Z" fill="#B9C8DE"/>
<path d="M38.2305 10.918C36.1711 10.918 34.4961 12.5953 34.4961 14.6577V21.5321C34.4961 21.8621 34.7707 22.137 35.1002 22.137C35.4297 22.137 35.7043 21.8621 35.7043 21.5321V14.6577C35.7043 13.2828 36.8301 12.1554 38.2031 12.1554C39.576 12.1554 40.7019 13.2828 40.7019 14.6577C40.7019 16.0325 39.576 17.1599 38.2031 17.1599C37.9285 17.1599 37.6539 17.105 37.4068 17.0225C37.0773 16.9125 36.7203 17.0775 36.6104 17.4074C36.5006 17.7374 36.6654 18.0949 36.9949 18.2049C37.3793 18.3424 37.7912 18.3973 38.2031 18.3973C40.2625 18.3973 41.9375 16.72 41.9375 14.6577C41.965 12.5953 40.29 10.918 38.2305 10.918Z" fill="#B9C8DE"/>
<path d="M62.669 7.20508C62.3395 7.20508 62.0649 7.48006 62.0649 7.81003V14.657C62.0649 16.0318 60.9391 17.1318 59.5936 17.1318C58.2481 17.1318 57.1223 16.0043 57.1223 14.657C57.1223 13.2821 58.2481 12.1822 59.5936 12.1822C59.8682 12.1822 60.1428 12.2372 60.3899 12.3197C60.7194 12.4296 61.0764 12.2647 61.1862 11.9347C61.2961 11.6047 61.1313 11.2472 60.8018 11.1373C60.4174 10.9998 60.0055 10.9448 59.621 10.9448C57.5616 10.9448 55.9141 12.6221 55.9141 14.657C55.9141 16.7193 57.5891 18.3691 59.621 18.3691C61.5981 18.3691 63.2182 16.8293 63.328 14.8769V7.83753C63.3006 7.50755 63.026 7.20508 62.669 7.20508Z" fill="#B9C8DE"/>
<path d="M47.2373 11.1378C46.8529 11.0003 46.441 10.9453 46.0291 10.9453C43.8049 10.9453 42.8164 12.4852 42.8164 13.9976V17.7922C42.8164 18.1222 43.091 18.3972 43.4205 18.3972C43.75 18.3972 44.0246 18.1222 44.0246 17.7922V13.9976C44.0246 12.2652 45.6722 12.1827 46.0017 12.1827C46.2763 12.1827 46.5509 12.2377 46.798 12.3202C47.1275 12.4302 47.4845 12.2652 47.5943 11.9352C47.7316 11.5778 47.5668 11.2478 47.2373 11.1378Z" fill="#B9C8DE"/>
<path d="M76.9483 11.1378C76.5638 11.0003 76.152 10.9453 75.7401 10.9453C73.5159 10.9453 72.5273 12.4852 72.5273 13.9976V17.7922C72.5273 18.1222 72.8019 18.3972 73.1314 18.3972C73.461 18.3972 73.7356 18.1222 73.7356 17.7922V13.9976C73.7356 12.2652 75.3831 12.1827 75.7126 12.1827C75.9872 12.1827 76.2618 12.2377 76.5089 12.3202C76.8384 12.4302 77.1954 12.2652 77.3052 11.9352C77.4425 11.6053 77.2778 11.2478 76.9483 11.1378Z" fill="#B9C8DE"/>
<path d="M18.8733 21.915C18.3241 22.7675 17.5003 23.3449 16.5392 23.5374C16.2647 23.5924 15.9901 23.6199 15.7429 23.6199C15.029 23.6199 14.3425 23.4274 13.7384 23.015C12.0085 21.915 11.4868 19.5777 12.6126 17.8454C12.8323 17.4879 13.1069 17.1854 13.4364 16.938C13.711 16.718 14.0954 16.773 14.3151 17.048C14.5347 17.3229 14.4798 17.7079 14.2052 17.9279C13.9855 18.0929 13.8208 18.2853 13.656 18.5328C12.9146 19.6877 13.2441 21.2551 14.3974 21.9975C14.9466 22.355 15.6331 22.465 16.2647 22.3275C16.9237 22.19 17.4729 21.8051 17.8298 21.2276C18.1868 20.6776 18.2966 19.9902 18.1593 19.3303C18.022 18.6703 17.6376 18.1204 17.061 17.7629L12.2831 14.7106C12.0085 14.5182 11.8987 14.1332 12.0909 13.8582C12.2831 13.5832 12.6675 13.5007 12.9421 13.6657L17.9122 16.8555C18.6536 17.4054 19.1479 18.1754 19.3675 19.0828C19.5872 20.0727 19.395 21.0626 18.8733 21.915ZM18.1868 9.43109C18.0495 8.77114 17.6651 8.22119 17.0884 7.86372C16.5392 7.50625 15.8528 7.36876 15.2212 7.53374C14.5622 7.67123 14.013 8.0562 13.656 8.63365C13.2991 9.18361 13.1618 9.87105 13.3265 10.531C13.4638 11.1909 13.8483 11.7409 14.4249 12.0984L19.1753 15.1506C19.4499 15.3431 19.5598 15.7281 19.3675 16.003C19.2577 16.1955 19.038 16.278 18.8458 16.278C18.736 16.278 18.6261 16.2505 18.5163 16.168L13.5187 12.9783C12.8048 12.4283 12.2831 11.6584 12.0909 10.7785C11.8712 9.81605 12.0634 8.79864 12.5851 7.97371C13.1343 7.12128 13.9581 6.54383 14.9192 6.35134C15.8802 6.13136 16.8962 6.32384 17.72 6.8463C18.5712 7.39626 19.1479 8.22119 19.3401 9.18361C19.5598 10.146 19.3675 11.1634 18.8458 11.9884C18.6261 12.3458 18.3516 12.6483 18.022 12.8958C17.7475 13.1158 17.363 13.0608 17.1433 12.7858C16.9237 12.5108 16.9786 12.1259 17.2532 11.9059C17.4729 11.7409 17.6376 11.5209 17.8024 11.3009C18.2143 10.751 18.3241 10.091 18.1868 9.43109Z" fill="#130C49"/>
</svg>
