<?xml version="1.0" encoding="UTF-8"?>
<svg id="Layer_1" xmlns="http://www.w3.org/2000/svg" version="1.1" viewBox="0 0 126 43">
  <!-- Generator: Adobe Illustrator 29.7.1, SVG Export Plug-In . SVG Version: 2.1.1 Build 8)  -->
  <defs>
    <style>
      .st0 {
        fill: #b9c8de;
      }
    </style>
  </defs>
  <path class="st0" d="M111.4,9c.7,1.5,1.1,3.1,1.2,4.9,0,.4,0,.9,0,1.4h0v12.3c0,1.9,1,3.6,2.5,4.6.5.4,1.1.6,1.8.8V9h-5.5ZM19.4,29.4c1.5,0,3.2-.4,4.5-1.8,1.4-1.5,2.5-4.1,2.5-8.4,0-8.4-3.8-10.2-7-10.2h0c-3.2,0-7,1.8-7,10.2s1,6.9,2.5,8.4c1.3,1.4,3,1.8,4.5,1.8ZM2.4,9.8c-.5-.4-1.1-.6-1.8-.8v34h4.2V14.4c0-1.9-1-3.6-2.5-4.6ZM100.9,33c.6-.2,1.2-.4,1.8-.8,1.5-1,2.5-2.7,2.5-4.6v-12.3h0v-.6c0-3.1-2.5-5.6-5.6-5.6-3.1,0-5.6,2.5-5.6,5.6v13c0,1.9,1,3.6,2.5,4.6.5.4,1.1.6,1.8.8v1.8h-16v-1.8c.6-.2,1.2-.4,1.8-.8,1.5-1,2.5-2.7,2.5-4.6v-13c0-3.1-2.5-5.6-5.6-5.6s-5.6,2.5-5.6,5.6v13c0,1.9,1,3.6,2.5,4.6.5.4,1.1.6,1.8.8v1.8h-16v-1.8c3.1-1.5,4.2-4.6,4.2-6.5V9s-34.5,0-34.5,0c.2,0,.6,1.2.7,1.3.2.5.4,1,.6,1.5.8,2.6,1.2,5.4,1.1,8.1-.1,5.1-2,11-6.8,13.4-1.9.9-4.2,1.5-7.1,1.5-.7,0-1.5,0-2.3-.2-2.6-.5-4.9-1.9-6.8-3.8,0,0-.1-.1-.2-.2v12.3h29.2v-15.4c0-1.9-1-3.6-2.5-4.6-.4-.3-.9-.5-1.4-.7,0-.6.1-1.3.2-1.9h11.2v4.8c1.1-3.1,4.8-5.8,8.5-5.8s7.6,3,7.6,6.7v.4c0,2.8-2.3,5.1-5.2,5.1s-5.2-2.3-5.2-5.1.6-2.8,1.6-3.7c-2.6.4-4.9,1.9-6.2,5.1-.2.6-.5,1.2-.6,1.9-.3,1.3-.5,2.8-.6,4.5v8.7h67.8v-8.2h-16v-1.8h0Z"/>
  <path class="st0" d="M116.9.5v4.2h4.2v15.6h4.2V.5h-8.5Z"/>
</svg>