<svg width="106" height="30" viewBox="0 0 106 30" fill="none" xmlns="http://www.w3.org/2000/svg">
<path d="M10.8516 6.23334L6.18064 1.56236C5.83706 1.2188 5.28003 1.2188 4.93646 1.56236L0.265488 6.23333C-0.0780794 6.57691 -0.0780794 7.13393 0.265488 7.47752L4.93646 12.1485C5.28003 12.4921 5.83706 12.4921 6.18064 12.1485L10.8516 7.47752C11.1952 7.13393 11.1952 6.57691 10.8516 6.23334Z" fill="#B9C8DE"/>
<path d="M18.9747 14.3857L14.3037 9.71472C13.9601 9.37114 13.4031 9.37114 13.0595 9.71472L8.38855 14.3857C8.04496 14.7293 8.04496 15.2863 8.38855 15.6299L13.0595 20.3009C13.4031 20.6444 13.9601 20.6444 14.3037 20.3009L18.9747 15.6299C19.3182 15.2863 19.3182 14.7293 18.9747 14.3857Z" fill="#B9C8DE"/>
<path d="M10.8619 22.5297L6.16912 17.8369C5.83191 17.4997 5.28504 17.4997 4.94783 17.8369L0.252905 22.5297C-0.0843018 22.8669 -0.0843018 23.4137 0.252905 23.7509L4.94567 28.4437C5.28288 28.7809 5.82975 28.7809 6.16693 28.4437L10.8597 23.7509C11.1969 23.4137 11.1969 22.8669 10.8597 22.5297H10.8619ZM8.39556 23.4527L5.87085 25.9774C5.69573 26.1525 5.40825 26.1525 5.231 25.9774L2.72358 23.4699C2.54633 23.2927 2.54849 23.0074 2.72358 22.8301L5.24829 20.3054C5.42338 20.1303 5.7087 20.1282 5.8881 20.3054L8.39556 22.8128C8.57276 22.9901 8.57276 23.2776 8.39556 23.4527Z" fill="#B9C8DE"/>
<mask id="mask0_3437_1113" style="mask-type:luminance" maskUnits="userSpaceOnUse" x="30" y="0" width="76" height="30">
<path d="M106 0H30V30H106V0Z" fill="white"/>
</mask>
<g mask="url(#mask0_3437_1113)">
<mask id="mask1_3437_1113" style="mask-type:luminance" maskUnits="userSpaceOnUse" x="1" y="0" width="105" height="30">
<path d="M105.433 0.0410156H1.33398V29.3743H105.433V0.0410156Z" fill="white"/>
</mask>
<g mask="url(#mask1_3437_1113)">
<path d="M32.3593 10.9324H32.3109V12.1889H30.3027V0.0410156H32.3777V2.91602C32.3777 3.60307 32.3455 4.30395 32.3131 4.76044H32.3616C32.9333 3.84515 33.8141 3.2411 35.0567 3.2411C37.2931 3.2411 38.7963 5.06939 38.7963 7.84525C38.7963 10.6211 37.36 12.4679 35.0406 12.4679C33.8809 12.4679 32.8849 11.9607 32.3616 10.9324H32.3593ZM36.6867 7.83145C36.6867 6.1161 35.9836 4.85958 34.5957 4.85958C33.0117 4.85958 32.2924 6.18296 32.2924 7.84758C32.2924 9.51218 33.0925 10.771 34.5957 10.771C35.9836 10.771 36.6867 9.57905 36.6867 7.83145Z" fill="#B9C8DE"/>
<path d="M39.7855 7.8483C39.7855 5.25226 41.5331 3.24414 44.113 3.24414C45.3879 3.24414 46.3839 3.68449 47.1171 4.46838C47.9655 5.36754 48.3736 6.7393 48.3575 8.3555H41.8421C41.9896 9.8587 42.7896 10.8708 44.2421 10.8708C45.2381 10.8708 45.8905 10.4466 46.1695 9.7273H48.1938C47.7696 11.2951 46.3655 12.4548 44.2259 12.4548C41.4501 12.4548 39.7832 10.4305 39.7832 7.85057L39.7855 7.8483ZM41.8766 7.0483H46.2203C46.1395 5.61193 45.3718 4.74504 44.113 4.74504C42.7573 4.74504 42.0565 5.67648 41.8766 7.0483Z" fill="#B9C8DE"/>
<path d="M49.1289 3.46923H50.4684V0.693359H52.5088V3.46923H54.2564V4.88944H52.5088V9.77259C52.5088 10.4089 52.8524 10.5887 53.4402 10.5887C53.6524 10.5887 53.9474 10.5565 54.1088 10.5242H54.208V12.1403C53.8644 12.2049 53.3918 12.2718 52.8362 12.2718C51.4321 12.2718 50.4684 11.7645 50.4684 10.2314V4.89174H49.1289V3.47153V3.46923Z" fill="#B9C8DE"/>
<path d="M56.1289 3.46923V0.693359H58.1693V3.46923H59.9169V4.88944H58.1693V9.77259C58.1693 10.4089 58.5128 10.5887 59.1007 10.5887C59.3128 10.5887 59.608 10.5565 59.7694 10.5242H59.8685V12.1403C59.525 12.2049 59.0523 12.2718 58.4967 12.2718C57.0926 12.2718 56.1289 11.7645 56.1289 10.2314V3.46923Z" fill="#B9C8DE"/>
<path d="M60.9301 7.8483C60.9301 5.25226 62.6776 3.24414 65.2575 3.24414C66.5302 3.24414 67.5285 3.68449 68.2619 4.46838C69.1099 5.36754 69.5179 6.7393 69.5019 8.3555H62.9866C63.1341 9.8587 63.9341 10.8708 65.3867 10.8708C66.3826 10.8708 67.0351 10.4466 67.3141 9.7273H69.3386C68.9139 11.2951 67.5101 12.4548 65.3705 12.4548C62.5947 12.4548 60.9277 10.4305 60.9277 7.85057L60.9301 7.8483ZM63.0189 7.0483H67.3625C67.2818 5.61193 66.5141 4.74504 65.2552 4.74504C63.8996 4.74504 63.1987 5.67648 63.0189 7.0483Z" fill="#B9C8DE"/>
<path d="M72.9657 5.03512H73.0138C73.5698 3.90771 74.4018 3.33594 75.5131 3.33594C75.7578 3.33594 75.921 3.35208 76.0684 3.41663V5.2795H76.0044C75.8084 5.23108 75.6444 5.21495 75.4324 5.21495C74.0604 5.19881 73.0324 6.13024 73.0324 7.81096V12.1869H70.957V3.46735H72.9657V5.03512Z" fill="#B9C8DE"/>
<path d="M30.2988 17.7322H32.307V19.0232H32.3554C32.9756 18.0272 33.8424 17.5039 35.0667 17.5039C37.3376 17.5039 38.8224 19.3322 38.8224 22.108C38.8224 24.8839 37.3537 26.7306 35.0022 26.7306C33.8424 26.7306 32.8949 26.2234 32.3577 25.3427H32.3093C32.3416 25.6701 32.3738 26.2234 32.3738 27.0419V29.3774H30.2988V17.7344V17.7322ZM36.7174 22.1565C36.7174 20.425 36.0143 19.1846 34.594 19.1846C33.0263 19.1846 32.2908 20.508 32.2908 22.1565C32.2908 23.805 33.0102 25.0799 34.6102 25.0799C35.982 25.0799 36.7174 23.8718 36.7174 22.1565Z" fill="#B9C8DE"/>
<path d="M42.2854 19.2988H42.3339C42.8895 18.1714 43.7218 17.5996 44.8331 17.5996C45.0774 17.5996 45.2411 17.6157 45.3887 17.6803V19.5432H45.3241C45.1281 19.4947 44.9645 19.4786 44.7523 19.4786C43.3805 19.4625 42.3523 20.3939 42.3523 22.0747V26.4506H40.2773V17.731H42.2854V19.2988Z" fill="#B9C8DE"/>
<path d="M46.0586 22.108C46.0586 19.512 47.8062 17.5039 50.5175 17.5039C53.2289 17.5039 54.9419 19.512 54.9419 22.108C54.9419 24.7041 53.2265 26.7122 50.5175 26.7122C47.8085 26.7122 46.0586 24.688 46.0586 22.108ZM52.8369 22.108C52.8369 20.3443 52.0207 19.0371 50.5014 19.0371C48.9821 19.0371 48.1659 20.3443 48.1659 22.108C48.1659 23.8718 48.9659 25.1444 50.5014 25.1444C52.0369 25.1444 52.8369 23.8534 52.8369 22.108Z" fill="#B9C8DE"/>
<path d="M56.3945 17.7322H58.4025V19.0232H58.451C59.0712 18.0272 59.9381 17.5039 61.1623 17.5039C63.4333 17.5039 64.918 19.3322 64.918 22.108C64.918 24.8839 63.4471 26.7306 61.0977 26.7306C59.9381 26.7306 58.9905 26.2234 58.4533 25.3427H58.4049C58.4371 25.6701 58.4694 26.2234 58.4694 27.0419V29.3774H56.3945V17.7344V17.7322ZM62.8107 22.1565C62.8107 20.425 62.1075 19.1846 60.6873 19.1846C59.1196 19.1846 58.3841 20.508 58.3841 22.1565C58.3841 23.805 59.1035 25.0799 60.7035 25.0799C62.0753 25.0799 62.8107 23.8718 62.8107 22.1565Z" fill="#B9C8DE"/>
<path d="M65.9316 22.108C65.9316 19.512 67.6792 17.5039 70.3908 17.5039C73.1022 17.5039 74.8148 19.512 74.8148 22.108C74.8148 24.7041 73.0995 26.7122 70.3908 26.7122C67.6816 26.7122 65.9316 24.688 65.9316 22.108ZM72.7075 22.108C72.7075 20.3443 71.8915 19.0371 70.3722 19.0371C68.8528 19.0371 68.0368 20.3443 68.0368 22.108C68.0368 23.8718 68.8368 25.1444 70.3722 25.1444C71.9075 25.1444 72.7075 23.8534 72.7075 22.108Z" fill="#B9C8DE"/>
<path d="M75.7129 23.7711H77.7049C77.8682 24.8155 78.6682 25.2581 79.7796 25.2581C80.8909 25.2581 81.4629 24.7693 81.4629 24.0661C81.4629 23.2016 80.5796 23.0379 79.2102 22.7751C77.5782 22.4477 76.0262 22.0719 76.0262 20.096C76.0262 18.4475 77.4302 17.5 79.4729 17.5C81.7922 17.5 82.9522 18.5444 83.1642 20.0637H81.1882C81.0409 19.3121 80.4849 18.9041 79.4569 18.9041C78.4936 18.9041 77.9862 19.3444 77.9862 19.9485C77.9862 20.7162 78.8849 20.8638 80.2062 21.1081C81.8549 21.4194 83.4896 21.8113 83.4896 23.9325C83.4896 25.7607 81.9216 26.7245 79.7656 26.7245C77.2829 26.7245 75.8462 25.5325 75.7149 23.7687L75.7129 23.7711Z" fill="#B9C8DE"/>
<path d="M90.2949 25.3243H90.2622C89.6902 26.092 88.9069 26.6638 87.5189 26.6638C85.8195 26.6638 84.5469 25.7808 84.5469 24.0839C84.5469 22.108 86.0502 21.6354 88.1229 21.3887C89.5589 21.2089 90.2782 20.9806 90.2782 20.1968C90.2782 19.4129 89.7549 18.9402 88.7109 18.9402C87.5509 18.9402 86.9795 19.4798 86.9309 20.3443H84.9709C85.0355 18.8572 86.2115 17.5039 88.6942 17.5039C89.6902 17.5039 90.4582 17.6514 91.0302 18.0111C91.8462 18.5022 92.2702 19.3345 92.2702 20.4942V25.0822C92.2702 25.8015 92.4015 26.1773 92.5975 26.3064V26.454H90.5895C90.4422 26.258 90.3289 25.9145 90.2969 25.3266L90.2949 25.3243ZM90.3269 23.2839V21.9928C89.9189 22.2533 89.2662 22.4332 88.6275 22.5646C87.3529 22.809 86.6195 23.0718 86.6195 24.0355C86.6195 24.9992 87.3229 25.2436 88.1229 25.2436C89.5429 25.2436 90.3269 24.2638 90.3269 23.2839Z" fill="#B9C8DE"/>
<path d="M94.2129 14.3008H96.3042V26.451H94.2129V14.3008Z" fill="#B9C8DE"/>
<path d="M97.6602 23.7711H99.6522C99.8162 24.8155 100.616 25.2581 101.727 25.2581C102.839 25.2581 103.41 24.7693 103.41 24.0661C103.41 23.2016 102.529 23.0379 101.158 22.7751C99.5255 22.4477 97.9742 22.0719 97.9742 20.096C97.9742 18.4475 99.3782 17.5 101.418 17.5C103.737 17.5 104.897 18.5444 105.109 20.0637H103.133C102.986 19.3121 102.431 18.9041 101.402 18.9041C100.439 18.9041 99.9315 19.3444 99.9315 19.9485C99.9315 20.7162 100.831 20.8638 102.151 21.1081C103.8 21.4194 105.435 21.8113 105.435 23.9325C105.435 25.7607 103.867 26.7245 101.711 26.7245C99.2282 26.7245 97.7922 25.5325 97.6602 23.7687V23.7711Z" fill="#B9C8DE"/>
</g>
</g>
</svg>
