<svg width="32" height="45" viewBox="0 0 32 45" fill="none" xmlns="http://www.w3.org/2000/svg">
<path d="M17.9798 8.88489L10.5067 1.41178C9.95701 0.862103 9.06581 0.862103 8.51614 1.41178L1.04303 8.88489C0.493355 9.43456 0.493355 10.3258 1.04303 10.8754L8.51614 18.3485C9.06582 18.8982 9.95701 18.8982 10.5067 18.3485L17.9798 10.8754C18.5295 10.3258 18.5295 9.43456 17.9798 8.88489Z" fill="#0A0A0A"/>
<path d="M30.9765 21.9313L23.5033 14.4582C22.9537 13.9085 22.0625 13.9085 21.5128 14.4582L14.0397 21.9313C13.49 22.481 13.49 23.3721 14.0397 23.9218L21.5128 31.3949C22.0625 31.9446 22.9537 31.9446 23.5033 31.3949L30.9765 23.9218C31.5261 23.3721 31.5261 22.481 30.9765 21.9313Z" fill="#0A0A0A"/>
<path d="M17.9977 34.957L10.4897 27.4491C9.95021 26.9096 9.07526 26.9096 8.53576 27.4491L1.02433 34.957C0.484831 35.4965 0.484831 36.3715 1.02433 36.911L8.5323 44.419C9.0718 44.9584 9.94675 44.9584 10.4862 44.419L17.9942 36.911C18.5337 36.3715 18.5337 35.4965 17.9942 34.957H17.9977ZM14.0518 36.4337L10.0125 40.473C9.73233 40.7531 9.27238 40.7531 8.9888 40.473L4.97717 36.4614C4.69359 36.1778 4.69705 35.7213 4.97717 35.4377L9.01647 31.3984C9.29659 31.1183 9.75308 31.1149 10.0401 31.3984L14.0518 35.4101C14.3353 35.6937 14.3353 36.1536 14.0518 36.4337Z" fill="#0A0A0A"/>
</svg>
