<svg width="21" height="30" viewBox="0 0 21 30" fill="none" xmlns="http://www.w3.org/2000/svg">
<path d="M11.5767 5.25691L6.67248 0.274839C6.31175 -0.0916128 5.7269 -0.0916128 5.36618 0.274839L0.461949 5.25691C0.101225 5.62336 0.101225 6.21752 0.461949 6.58392L5.36618 11.566C5.72691 11.9325 6.31175 11.9325 6.67248 11.566L11.5767 6.58392C11.9374 6.21752 11.9374 5.62336 11.5767 5.25691Z" fill="#B9C8DE"/>
<path d="M20.106 13.9542L15.2017 8.97212C14.8411 8.60565 14.2562 8.60565 13.8955 8.97212L8.99126 13.9542C8.63052 14.3206 8.63052 14.9147 8.99126 15.2812L13.8955 20.2632C14.2562 20.6297 14.8411 20.6297 15.2017 20.2632L20.106 15.2812C20.4667 14.9147 20.4667 14.3206 20.106 13.9542Z" fill="#B9C8DE"/>
<path d="M11.5879 22.6383L6.66078 17.633C6.30674 17.2734 5.73255 17.2734 5.3785 17.633L0.449128 22.6383C0.0950822 22.998 0.0950822 23.5813 0.449128 23.941L5.37623 28.9463C5.73028 29.3059 6.30447 29.3059 6.65848 28.9463L11.5856 23.941C11.9397 23.5813 11.9397 22.998 11.5856 22.6383H11.5879ZM8.99841 23.6228L6.34761 26.3156C6.16375 26.5024 5.86191 26.5024 5.67581 26.3156L3.04318 23.6412C2.85708 23.4522 2.85935 23.1478 3.04318 22.9588L5.69397 20.2659C5.8778 20.0792 6.17737 20.0769 6.36573 20.2659L8.99841 22.9404C9.18445 23.1294 9.18445 23.436 8.99841 23.6228Z" fill="#B9C8DE"/>
</svg>
