<svg width="89" height="21" viewBox="0 0 89 21" fill="none" xmlns="http://www.w3.org/2000/svg">
<path fill-rule="evenodd" clip-rule="evenodd" d="M18.466 11.9418C20.2884 11.9418 22.9113 11.5698 22.9113 9.42374C22.9113 9.25205 22.9113 9.0899 22.8727 8.93729L21.7927 4.28265C21.542 3.25253 21.3202 2.78515 19.4977 1.8981C18.0899 1.18274 15.0042 0 14.1074 0C13.2685 0 13.0081 1.08735 12.0053 1.08735C11.0024 1.08735 10.3178 0.276608 9.40172 0.276608C8.48566 0.276608 7.95529 0.858438 7.52137 2.07933C7.52137 2.07933 6.30638 5.494 6.15209 5.99953C6.13281 6.09491 6.11353 6.19029 6.11353 6.2666C6.11353 7.58287 11.3881 11.9323 18.466 11.9514M23.2102 10.3013C23.4609 11.484 23.4609 11.5985 23.4609 11.7511C23.4609 13.7636 21.1659 14.8891 18.167 14.8891C11.3688 14.8891 5.40961 10.9499 5.40961 8.35546C5.40961 7.98347 5.48675 7.6401 5.62175 7.30626C3.17248 7.40164 0 7.83086 0 10.6065C0 15.1467 10.8385 20.7074 19.4495 20.7074C26.0355 20.7074 27.7037 17.7601 27.7037 15.4328C27.6845 13.611 26.0934 11.5317 23.2102 10.2917" fill="#B9C8DE"/>
<path fill-rule="evenodd" clip-rule="evenodd" d="M84.2554 13.2777C84.2554 14.985 85.2968 15.8148 87.1964 15.8148C87.7846 15.7958 88.3535 15.7195 88.9225 15.5859V13.6115C88.5657 13.726 88.18 13.7832 87.8039 13.7832C87.0228 13.7832 86.7239 13.5543 86.7239 12.8103V9.76762H88.9996V7.73598H86.7432V5.12252L84.2747 5.64712V7.69783H82.6257V9.72947H84.2554V13.2777ZM76.5508 13.3158C76.5508 12.7912 77.0811 12.5242 77.9008 12.5242C78.3925 12.5242 78.8843 12.5814 79.3665 12.6958V13.726C78.894 13.974 78.3636 14.117 77.814 14.117C77.0136 14.117 76.5411 13.8309 76.5411 13.3254L76.5508 13.3158ZM77.2933 15.8339C78.1707 15.8339 78.865 15.6622 79.5304 15.2139V15.7004H81.9797V10.5593C81.9797 8.60396 80.6489 7.53568 78.4311 7.53568C77.1968 7.53568 75.9626 7.82183 74.6511 8.40366L75.5286 10.2064C76.4736 9.81531 77.274 9.56732 77.9779 9.56732C79 9.56732 79.5304 9.95839 79.5304 10.7691V11.1602C78.9229 11.0076 78.3154 10.9313 77.6886 10.9313C75.6154 10.9313 74.3522 11.7993 74.3522 13.3349C74.3522 14.7656 75.4901 15.853 77.2933 15.8339ZM63.8416 15.7195H66.4644V11.5703H70.8712V15.7195H73.5133V5.11298H70.8905V9.18579H66.4837V5.11298H63.8609L63.8416 15.7195ZM53.8227 11.7039C53.8227 10.5593 54.7484 9.67224 55.9441 9.67224C56.5709 9.65316 57.1784 9.88208 57.6509 10.2922V13.0869C57.1784 13.5161 56.5709 13.7451 55.9441 13.726C54.7677 13.726 53.8227 12.858 53.8227 11.7134V11.7039ZM57.7087 15.7195H60.158V4.58838L57.6895 5.11298V8.11751C57.0627 7.7646 56.3588 7.57384 55.6356 7.59291C53.2827 7.59291 51.4217 9.39563 51.4217 11.6848V11.742C51.4217 13.974 53.2827 15.8148 55.5391 15.8148H55.5584C56.3395 15.8148 57.1109 15.5859 57.7377 15.1186L57.7184 15.7195H57.7087ZM46.4749 9.55778C47.256 9.55778 47.902 10.0633 48.1817 10.8359H44.8067C45.0381 10.0442 45.6456 9.55778 46.4749 9.55778ZM42.2996 11.7134C42.2996 14.0407 44.2185 15.8625 46.7063 15.8625C48.0563 15.8625 49.0592 15.4905 50.1006 14.6607L48.4517 13.23C48.0563 13.6211 47.5067 13.8309 46.822 13.8309C45.9638 13.85 45.1538 13.3444 44.826 12.5528H50.5924V11.9519C50.5924 9.41471 48.8663 7.57383 46.5135 7.57383H46.4556C44.1799 7.57383 42.2996 9.43378 42.2996 11.6848V11.723V11.7134ZM38.0278 7.35446C38.9053 7.35446 39.3778 7.89813 39.3778 8.55627C39.3778 9.21441 38.886 9.75808 38.0278 9.75808H35.4243V7.37353L38.0278 7.35446ZM32.7918 15.7099H35.4146V11.8469H37.43L39.4453 15.7099H42.3864L40.0335 11.4654C41.2485 10.979 42.0489 9.79624 42.0489 8.47996C42.0489 6.58186 40.5349 5.10344 38.2689 5.10344H32.7821V15.7099H32.7918Z" fill="#B9C8DE"/>
</svg>
