<svg width="106" height="30" viewBox="0 0 106 30" fill="none" xmlns="http://www.w3.org/2000/svg">
<path d="M86.911 17.2763C86.911 16.5753 86.9096 15.8686 86.911 15.1424C86.911 15.1424 86.911 15.1396 86.911 15.1382C86.911 10.4903 83.1297 6.70898 78.4819 6.70898C73.8341 6.70898 70.0527 10.4903 70.0527 15.1382C70.0527 19.786 73.8341 23.5673 78.4819 23.5673C80.5653 23.5673 82.4735 22.8046 83.9457 21.5469V21.6241C83.9457 24.6118 81.429 27.043 78.3361 27.043C77.7837 27.043 77.2425 26.9673 76.7265 26.8173L75.9021 29.6578C76.6859 29.885 77.5046 29.9999 78.3361 29.9999C83.061 29.9999 86.904 26.2424 86.904 21.6241V20.637C86.9138 19.4859 86.9138 18.3615 86.911 17.2763ZM78.4805 20.6552C75.438 20.6552 72.9634 18.1806 72.9634 15.1382C72.9634 12.0957 75.438 9.62105 78.4805 9.62105C81.5229 9.62105 83.9976 12.0957 83.9976 15.1382C83.9976 18.1806 81.5229 20.6552 78.4805 20.6552Z" fill="#B9C8DE"/>
<path d="M64.9443 8.77281C63.4651 7.48853 61.5359 6.70898 59.4272 6.70898C54.7794 6.70898 50.998 10.4903 50.998 15.1382C50.998 19.786 54.7794 23.5673 59.4272 23.5673C61.5359 23.5673 63.4637 22.7878 64.9443 21.5035V23.3682H67.8578V7.16185H64.9443V8.77281ZM59.4272 20.6552C56.3847 20.6552 53.9101 18.1806 53.9101 15.1382C53.9101 12.0957 56.3847 9.62105 59.4272 9.62105C62.4697 9.62105 64.9443 12.0957 64.9443 15.1382C64.9443 18.1806 62.4697 20.6552 59.4272 20.6552Z" fill="#B9C8DE"/>
<path d="M102.767 7.16185V8.77281C101.287 7.48853 99.3582 6.70898 97.2495 6.70898C92.6017 6.70898 88.8203 10.4903 88.8203 15.1382C88.8203 19.786 92.6017 23.5673 97.2495 23.5673C99.3582 23.5673 101.286 22.7878 102.767 21.5035V23.3682H105.68V7.16185H102.767ZM97.2509 20.6552C94.2084 20.6552 91.7338 18.1806 91.7338 15.1382C91.7338 12.0957 94.2084 9.62105 97.2509 9.62105C100.293 9.62105 102.768 12.0957 102.768 15.1382C102.768 18.1806 100.293 20.6552 97.2509 20.6552Z" fill="#B9C8DE"/>
<path d="M41.7371 23.5821C39.3032 23.5821 36.715 22.7297 34.3301 21.0991L36.1205 18.4801C39.6887 20.9196 42.5111 20.4654 43.5584 20.1569C44.7249 19.8134 45.6194 18.9456 45.9531 17.8351C46.2574 16.8214 46.0456 15.7825 45.3699 14.9819L45.318 14.9175C44.5048 13.8435 42.9892 13.2714 41.3852 12.6643C39.5934 11.9871 37.5632 11.2202 36.1527 9.55878L36.0925 9.48307C35.1307 8.2016 34.8264 6.62288 35.2372 5.03996C35.6845 3.31684 36.9365 1.84748 38.5895 1.10159C41.6586 -0.378982 44.8876 0.558992 47.644 1.67363L46.455 4.61514C42.6849 3.0897 41.0529 3.43181 39.9551 3.96599L39.9061 3.98842C39.1265 4.33613 38.5138 5.04417 38.3077 5.83773C38.1941 6.27377 38.1563 6.92012 38.6021 7.54263C39.4868 8.55491 40.9548 9.11013 42.5069 9.69619C44.3576 10.3958 46.455 11.188 47.8206 12.9672C49.1582 14.5754 49.5957 16.7331 48.99 18.7479C48.3464 20.8888 46.6499 22.553 44.4529 23.1994C43.5836 23.456 42.6709 23.5807 41.7357 23.5807L41.7371 23.5821Z" fill="#B9C8DE"/>
<path d="M23.2615 24.087C23.5223 24.087 23.7845 24.0365 24.0354 23.9342C24.8023 23.6201 25.2973 22.8813 25.2973 22.0526V2.03407C25.2973 1.20826 24.8038 0.470785 24.041 0.155322C23.2783 -0.16014 22.409 0.013714 21.8258 0.596968L2.98638 19.4574V4.37831L8.79649 10.3062L10.929 8.21573L3.48411 0.620803C2.89945 0.0277343 2.03018 -0.150326 1.26185 0.163735C0.496327 0.477795 0 1.21668 0 2.04529V21.7582C0 22.584 0.492121 23.3201 1.25484 23.637C2.01756 23.9524 2.88823 23.78 3.47149 23.1953L22.3123 4.33484V19.7238L16.3494 13.6235L14.221 15.7168L21.816 23.4771C22.2071 23.8739 22.7301 24.0856 23.2629 24.0856L23.2615 24.087Z" fill="#B9C8DE"/>
</svg>
