<svg width="112" height="28" viewBox="0 0 112 28" fill="none" xmlns="http://www.w3.org/2000/svg">
<path d="M22.131 17.0615C22.131 19.9468 19.6852 22.3837 15.7906 22.3837C11.8961 22.3837 9.49703 20.1126 9.23665 16.8724H12.3712C12.6561 18.576 13.9146 19.4506 15.7906 19.4506C17.6667 19.4506 19.0443 18.5515 19.0443 17.2507C19.0443 16.1869 18.3789 15.477 16.8833 15.1454L14.1049 14.5301C10.7566 13.8201 9.64057 12.0932 9.64057 9.84657C9.64057 7.0792 11.9918 4.69017 15.577 4.69017C19.1622 4.69017 21.4656 7.03136 21.7271 10.0357H18.5691C18.3076 8.47457 17.1682 7.62333 15.577 7.62333C13.9858 7.62333 12.7518 8.4512 12.7518 9.6574C12.7518 10.6511 13.3693 11.2186 14.8181 11.5268L17.5732 12.1421C20.9448 12.8988 22.1321 14.7682 22.1321 17.0615H22.131ZM82.164 13.3483C83.2567 12.5917 83.921 11.3376 83.921 9.84768C83.921 8.35773 83.3747 7.22163 82.4489 6.32255C81.6177 5.49467 80.407 5.02176 78.4831 5.02176H72.4521V22.0521H78.9115C80.8343 22.0521 82.0694 21.5559 82.9485 20.7269C83.8743 19.8278 84.3728 18.5748 84.3728 17.155C84.3728 15.4514 83.5416 14.056 82.164 13.3472V13.3483ZM75.5377 7.95604H78.5053C79.4545 7.95604 80.0009 8.23978 80.3569 8.68933C80.6652 9.04429 80.8076 9.49383 80.8076 10.0146C80.8076 10.5821 80.6407 11.1028 80.2846 11.4578C79.9052 11.8606 79.1919 12.0731 78.5031 12.0731H75.5355V7.95715L75.5377 7.95604ZM80.6674 18.5281C80.2879 18.8831 79.7416 19.0956 78.9104 19.0956H75.5388V14.885H78.9104C79.8362 14.885 80.4059 15.1454 80.762 15.5705C81.0702 15.9488 81.2838 16.4217 81.2838 16.9892C81.2838 17.6045 81.0468 18.1487 80.6663 18.527L80.6674 18.5281ZM101.807 7.76576C100.477 6.06217 98.4822 5.02176 95.6092 5.02176H89.7673V22.0521H95.6092C98.6013 22.0521 100.691 20.916 102.021 19.001C103.042 17.5578 103.635 15.6895 103.635 13.5375C103.635 11.243 102.97 9.25682 101.807 7.76687V7.76576ZM99.5516 17.1094C98.7682 18.3389 97.5575 19.0956 95.6103 19.0956H92.8551V7.9794H95.6103C97.5097 7.9794 98.697 8.66485 99.4804 9.84879C100.121 10.7946 100.477 12.072 100.477 13.5386C100.477 15.0052 100.146 16.1647 99.5516 17.1105V17.1094ZM33.7156 7.64781C35.6396 7.64781 37.2486 8.83064 37.6992 10.6043H40.7548C40.1917 7.05472 37.3821 4.69128 33.7145 4.69128C29.119 4.69128 25.9721 8.42895 25.9721 13.5375C25.9721 18.6461 29.119 22.3837 33.7145 22.3837C37.3365 22.3837 40.2118 20.0592 40.7314 16.5408L37.6759 16.5641C37.1885 18.3223 35.5928 19.4261 33.7145 19.4261C30.8849 19.4261 29.0833 16.9425 29.0833 13.5364C29.0833 10.1303 30.8849 7.6467 33.7145 7.6467L33.7156 7.64781ZM0.627441 27.0605H6.95332V24.1029H3.71416V2.95653H6.95332V0H0.627441V27.0605ZM105.575 0V2.95653H108.814V24.104H105.575V27.0605H111.901V0H105.575ZM62.8114 22.0532H65.8981V5.02287H62.8114V22.0532ZM45.564 5.01842H51.6685C53.7504 5.01842 55.099 5.58592 55.9981 6.55622C56.8493 7.45531 57.3467 8.68599 57.3467 10.1047C57.3467 11.7605 56.5656 13.1569 55.2882 13.9381C55.6665 14.1039 55.9747 14.3398 56.2351 14.648C56.6368 15.1454 56.8738 15.8075 56.8738 17.0137V22.0532H53.6803V17.2741C53.6803 16.6353 53.5379 16.3282 53.3253 16.0912C53.0649 15.8075 52.6633 15.6417 51.9767 15.6417H48.6407V22.0532H45.5651V5.01842H45.564ZM53.6313 12.0687C54.033 11.6192 54.2467 11.0517 54.2467 10.3651C54.2467 9.77313 54.0809 9.1589 53.6547 8.68488C53.253 8.23533 52.5898 7.95158 51.3836 7.95158H48.6396V12.7775H51.3836C52.4952 12.7775 53.1818 12.4938 53.6313 12.0676V12.0687Z" fill="#B9C8DE"/>
</svg>
