<svg width="87" height="30" viewBox="0 0 87 30" fill="none" xmlns="http://www.w3.org/2000/svg">
<path d="M0 28.9194V22.0352L86.9365 22.0826V28.9194H0ZM0 30.0006V29.1781H86.9365V30.0006H0Z" fill="#B9C8DE"/>
<path d="M4.29883 27.1995C4.29883 27.6524 4.64755 28.022 5.07316 28.022C5.49878 28.022 5.84749 27.6524 5.84749 27.1995V25.6047C5.84749 25.3004 5.6177 25.056 5.33157 25.056H4.81653V23.2312H5.33157V24.0608H5.84749V23.4603C5.84749 23.0092 5.49878 22.6387 5.07316 22.6387C4.64755 22.6387 4.29883 23.0092 4.29883 23.4603V25.056C4.29883 25.3603 4.52862 25.6047 4.81653 25.6047H5.33157V27.4286H4.81653V26.599H4.29883V27.1995Z" fill="#130C49"/>
<path d="M10.4883 27.9773H11.0051V22.6816H10.4883V27.9773Z" fill="#130C49"/>
<path d="M15.6465 27.9773H16.1624V26.4424C16.1624 25.9752 16.1213 25.0328 16.0927 24.5888H16.1061C16.2599 25.7684 16.5245 26.8657 16.707 27.9773H17.1943V22.6816H16.6783V24.2174C16.6783 24.6837 16.7204 25.6261 16.7481 26.071H16.7347C16.5818 24.8914 16.3153 23.7941 16.1347 22.6816H15.6465V27.9773Z" fill="#130C49"/>
<path d="M21.8359 27.1995C21.8359 27.6524 22.1856 28.022 22.6112 28.022C23.0368 28.022 23.3846 27.6524 23.3846 27.1995V25.056H22.6452V25.6047H22.8687V27.4286H22.3519V23.2312H22.8687V24.0608H23.3846V23.4603C23.3846 23.0092 23.0368 22.6387 22.6112 22.6387C22.1856 22.6387 21.8359 23.0092 21.8359 23.4603V27.1995Z" fill="#130C49"/>
<path d="M34.7318 27.9773H35.2495V23.2311H35.7655V22.6816H34.2168V23.2311H34.7318V27.9773Z" fill="#130C49"/>
<path d="M40.4062 27.9762H40.9231V25.6036H41.4381V27.9762H41.9558V23.4592C41.9558 23.0081 41.6062 22.6367 41.1806 22.6367C40.7559 22.6367 40.4062 23.0081 40.4062 23.4592V27.9762ZM40.9231 23.2301H41.4381V25.055H40.9231V23.2301Z" fill="#130C49"/>
<path d="M46.5977 27.1995C46.5977 27.6524 46.9473 28.022 47.372 28.022C47.7976 28.022 48.1463 27.6524 48.1463 27.1995V23.4603C48.1463 23.0092 47.7976 22.6387 47.372 22.6387C46.9473 22.6387 46.5977 23.0092 46.5977 23.4603V27.1995ZM47.6304 27.4286H47.1145V23.2312H47.6304V27.4286Z" fill="#130C49"/>
<path d="M58.9766 27.9773H60.0093C60.2937 27.9773 60.5252 27.7338 60.5252 27.4286V23.2311C60.5252 22.9268 60.2937 22.6816 60.0093 22.6816H58.9766V27.9773ZM59.4925 23.2311H60.0093V27.4286H59.4925V23.2311Z" fill="#130C49"/>
<path d="M65.168 27.9762H65.683V25.6036H66.1989V27.9762H66.714V23.4592C66.714 23.0081 66.3679 22.6367 65.9423 22.6367C65.5167 22.6367 65.168 23.0081 65.168 23.4592V27.9762ZM65.683 23.2301H66.1989V25.055H65.683V23.2301Z" fill="#130C49"/>
<path d="M71.3555 27.9773H71.8732V22.6816H71.3555V27.9773Z" fill="#130C49"/>
<path d="M76.5137 27.9773H78.0623V26.3314H77.5464V27.4286H77.0305V22.6816H76.5137V27.9773Z" fill="#130C49"/>
<path d="M83.221 27.9773H83.7369V25.6109C83.8979 25.5438 84.0222 25.4418 84.1125 25.3075C84.2055 25.167 84.252 25.0041 84.252 24.8332V22.6816H83.7369V25.0623H83.221V22.6816H82.7051V24.8332C82.7051 25.0041 82.7534 25.167 82.8446 25.3075C82.934 25.4418 83.0601 25.5438 83.221 25.6109V27.9773Z" fill="#130C49"/>
<path fill-rule="evenodd" clip-rule="evenodd" d="M15.683 7.29236H4.67246V5.66437H15.683V7.29236ZM12.9308 9.30966V10.9242H20.0215V12.9415H12.9308V14.7575H20.0215V16.7748H12.9308V18.6095H20.346V20.6268H0.199021V18.6095H8.11405V16.7748H0.714945V14.7575H8.11405V12.9415H4.15564C3.58249 13.4893 2.78759 13.6942 1.75485 13.8159C0.722994 13.8768 0.141794 13.8732 0.0273438 13.8732V11.5006C0.887517 11.318 1.43206 10.9833 1.66186 10.4964C1.83353 10.0095 1.91937 9.89946 1.91937 9.8386H5.53263L5.13564 10.9242H8.11405V9.30966H0.37159V1.95465L2.27881 0H20.1565L20.1558 7.23508C20.1558 8.40125 19.2464 9.30966 18.1698 9.30966H12.9308ZM39.5506 17.864H38.322V15.6963H34.8116V17.6814H32.5297V14.5999H39.5506V17.864ZM39.0061 6.91557H27.9472V5.75656H39.0061V6.91557ZM39.0061 3.91288H27.9472V2.75478H39.0061V3.91288ZM40.8149 20.6241H37.9626L37.0944 19.8947H23.0866V15.6963H26.4218V17.6814H28.7055V14.5999H23.734V4.56086H23.0321V1.82309H24.2615L26.0418 0H29.7391L28.8405 0.911099H43.0432V6.66229C43.0432 7.85083 42.1347 8.75924 41.0564 8.75924L27.9472 8.75997V9.74893H43.045V11.5926H27.9472V12.5825H43.0619V18.4339C43.0655 19.7164 42.1392 20.6239 41.0617 20.6239L40.8149 20.6241ZM15.683 3.64618H4.67246V2.01819H15.683V3.64618Z" fill="#B9C8DE"/>
<path fill-rule="evenodd" clip-rule="evenodd" d="M60.2685 9.31993H49.3151V2.20746H60.2685V9.31993ZM60.2685 18.4783H49.3151V11.365H60.2685V18.4783ZM47.8022 0.161522L45.8047 2.20746V20.5234H62.0452C62.9831 20.5234 63.7592 19.7242 63.7592 18.7934V0.163306L47.8022 0.161522ZM83.004 12.584L82.5051 11.7489H79.6894L81.8613 15.3763L80.572 18.5231H79.3121V9.63228H84.2165L83.004 12.584ZM76.5715 11.1251H73.3061L75.6568 7.46105H76.5715V11.1251ZM76.5715 15.8542H73.3061V13.1675H76.5715V15.8542ZM71.55 9.50609L70.2374 7.46105H72.8617L71.55 9.50609ZM86.5628 18.5231L84.4472 14.9924L86.645 9.63228V7.59171H79.3121V2.48938H84.3855V4.62215L81.45 4.62467V6.67061H84.9327C85.7929 6.67061 86.4787 6.02085 86.6146 5.17598C86.629 5.04262 86.6146 0.687621 86.6146 0.687621V0.446858H78.5655L76.5715 2.48922V5.41853H73.3061V3.25176H75.5379V1.20939H73.3061V0.078125H69.7912V1.20939H67.436V3.25176H69.7912V5.41853H66.4971V7.46088H67.4574L69.8073 11.125H66.5266V13.1673H69.7912V15.8541H66.5266V17.8982H69.7912V20.7049H73.3061V17.8982H76.5715V20.7049H81.3874C82.3621 20.5143 82.7608 19.1109 83.3018 17.7828C83.3537 17.8687 83.9608 18.8827 84.3345 19.494C84.7029 20.1706 85.0964 20.7049 85.7473 20.7049H87V18.5229L86.5628 18.5231Z" fill="#B9C8DE"/>
</svg>
