<?xml version="1.0" encoding="UTF-8" standalone="no"?>
<!-- Created with Inkscape (http://www.inkscape.org/) -->

<svg
   xmlns:dc="http://purl.org/dc/elements/1.1/"
   xmlns:cc="http://creativecommons.org/ns#"
   xmlns:rdf="http://www.w3.org/1999/02/22-rdf-syntax-ns#"
   xmlns:svg="http://www.w3.org/2000/svg"
   xmlns="http://www.w3.org/2000/svg"
   version="1.1"
   width="250.00002"
   height="86.126274"
   id="svg29258">
  <defs
     id="defs29260">
    <clipPath
       id="clipPath26102">
      <path
         d="m -20.34,855.197 0,-872.887 642,0 0,872.887"
         id="path26104" />
    </clipPath>
    <clipPath
       id="clipPath26110">
      <path
         d="m -11.34,855.31 619.62,0 0,-868.2 -619.62,0 0,868.2 z"
         id="path26112" />
    </clipPath>
    <clipPath
       id="clipPath26118">
      <path
         d="m -1,843 597,0 0,-844 -597,0 0,844 z"
         id="path26120" />
    </clipPath>
    <clipPath
       id="clipPath26126">
      <path
         d="M 0.5,842 595,842 595,0.5 0.5,0.5 0.5,842 z"
         id="path26128" />
    </clipPath>
  </defs>
  <metadata
     id="metadata29263">
    <rdf:RDF>
      <cc:Work
         rdf:about="">
        <dc:format>image/svg+xml</dc:format>
        <dc:type
           rdf:resource="http://purl.org/dc/dcmitype/StillImage" />
        <dc:title></dc:title>
      </cc:Work>
    </rdf:RDF>
  </metadata>
  <g
     transform="translate(-257.84072,-465.30709)"
     id="layer1">
    <g
       transform="matrix(1.0361052,0,0,1.0361052,-9.3093792,-19.909587)"
       id="g29750">
      <g
         id="g29733">
        <path
           d="m 257.84071,548.43766 0,-19.07511 241.11217,0.13143 0,18.94368 -241.11217,0 z m 0,2.99568 0,-2.279 241.11217,0 0,2.279 -241.11217,0"
           id="path26136"
           style="fill:#e8ddb7;fill-opacity:1;fill-rule:nonzero;stroke:none" />
        <path
           d="m 269.76144,543.67139 c 0,1.25481 0.96715,2.27899 2.14756,2.27899 1.18042,0 2.14756,-1.02418 2.14756,-2.27899 l 0,-4.41912 c 0,-0.84315 -0.63732,-1.52015 -1.43088,-1.52015 l -1.4284,0 0,-5.05644 1.4284,0 0,2.29883 1.43088,0 0,-1.66399 c 0,-1.24985 -0.96714,-2.27651 -2.14756,-2.27651 -1.18041,0 -2.14756,1.02666 -2.14756,2.27651 l 0,4.4216 c 0,0.84315 0.63732,1.52015 1.43584,1.52015 l 1.4284,0 0,5.05397 -1.4284,0 0,-2.29884 -1.43584,0 0,1.66399"
           id="path26140"
           style="fill:#7b7979;fill-opacity:1;fill-rule:nonzero;stroke:none" />
        <path
           d="m 286.92952,545.82636 1.43336,0 0,-14.67335 -1.43336,0 0,14.67335 z"
           id="path26142"
           style="fill:#7b7979;fill-opacity:1;fill-rule:nonzero;stroke:none" />
        <path
           d="m 301.23587,545.82634 1.43088,0 0,-4.25297 c 0,-1.29448 -0.11407,-3.90578 -0.19343,-5.13579 l 0.0372,0 c 0.42654,3.26846 1.16058,6.30877 1.66647,9.38876 l 1.35152,0 0,-14.67335 -1.43088,0 0,4.25544 c 0,1.29201 0.11656,3.90331 0.19343,5.1358 l -0.0372,0 c -0.42405,-3.26846 -1.16305,-6.30877 -1.66398,-9.39124 l -1.35401,0 0,14.67335"
           id="path26146"
           style="fill:#7b7979;fill-opacity:1;fill-rule:nonzero;stroke:none" />
        <path
           d="m 318.40147,543.67139 c 0,1.25481 0.96963,2.27899 2.15004,2.27899 1.18042,0 2.14508,-1.02418 2.14508,-2.27899 l 0,-5.93927 -2.05084,0 0,1.52015 0.61996,0 0,5.05397 -1.43336,0 0,-11.63056 1.43336,0 0,2.29883 1.43088,0 0,-1.66399 c 0,-1.24985 -0.96466,-2.27651 -2.14508,-2.27651 -1.18041,0 -2.15004,1.02666 -2.15004,2.27651 l 0,10.36087"
           id="path26150"
           style="fill:#7b7979;fill-opacity:1;fill-rule:nonzero;stroke:none" />
        <path
           d="m 354.16855,545.82634 1.43584,0 0,-13.15072 1.43088,0 0,-1.52263 -4.29512,0 0,1.52263 1.4284,0 0,13.15072"
           id="path26154"
           style="fill:#7b7979;fill-opacity:1;fill-rule:nonzero;stroke:none" />
        <path
           d="m 369.90575,545.82634 1.43336,0 0,-6.57412 1.4284,0 0,6.57412 1.43584,0 0,-12.51587 c 0,-1.24985 -0.96962,-2.279 -2.15004,-2.279 -1.17793,0 -2.14756,1.02915 -2.14756,2.279 l 0,12.51587 z m 1.43336,-13.15072 1.4284,0 0,5.05645 -1.4284,0 0,-5.05645"
           id="path26158"
           style="fill:#7b7979;fill-opacity:1;fill-rule:nonzero;stroke:none" />
        <path
           d="m 387.07385,543.67139 c 0,1.25481 0.96963,2.27899 2.14756,2.27899 1.18042,0 2.14756,-1.02418 2.14756,-2.27899 l 0,-10.36087 c 0,-1.24985 -0.96714,-2.27651 -2.14756,-2.27651 -1.17793,0 -2.14756,1.02666 -2.14756,2.27651 l 0,10.36087 z m 2.86424,0.63485 -1.43088,0 0,-11.63056 1.43088,0 0,11.63056"
           id="path26162"
           style="fill:#7b7979;fill-opacity:1;fill-rule:nonzero;stroke:none" />
        <path
           d="m 421.41004,545.82634 2.86424,0 c 0.7886,0 1.43088,-0.67452 1.43088,-1.52016 l 0,-11.63056 c 0,-0.84315 -0.64228,-1.52263 -1.43088,-1.52263 l -2.86424,0 0,14.67335 z m 1.43088,-13.15072 1.43336,0 0,11.63056 -1.43336,0 0,-11.63056"
           id="path26166"
           style="fill:#7b7979;fill-opacity:1;fill-rule:nonzero;stroke:none" />
        <path
           d="m 438.57814,545.82634 1.4284,0 0,-6.57412 1.43088,0 0,6.57412 1.4284,0 0,-12.51587 c 0,-1.24985 -0.9597,-2.279 -2.14012,-2.279 -1.18041,0 -2.14756,1.02915 -2.14756,2.279 l 0,12.51587 z m 1.4284,-13.15072 1.43088,0 0,5.05645 -1.43088,0 0,-5.05645"
           id="path26170"
           style="fill:#7b7979;fill-opacity:1;fill-rule:nonzero;stroke:none" />
        <path
           d="m 455.74127,545.82636 1.43584,0 0,-14.67335 -1.43584,0 0,14.67335 z"
           id="path26172"
           style="fill:#7b7979;fill-opacity:1;fill-rule:nonzero;stroke:none" />
        <path
           d="m 470.0476,545.82634 4.29512,0 0,-4.56047 -1.43088,0 0,3.04031 -1.43088,0 0,-13.15319 -1.43336,0 0,14.67335"
           id="path26176"
           style="fill:#7b7979;fill-opacity:1;fill-rule:nonzero;stroke:none" />
        <path
           d="m 488.64658,545.82634 1.43088,0 0,-6.55676 c 0.44638,-0.18599 0.79108,-0.46869 1.04154,-0.84067 0.25791,-0.38934 0.38686,-0.84068 0.38686,-1.31433 l 0,-5.96159 -1.4284,0 0,6.59643 -1.43088,0 0,-6.59643 -1.43088,0 0,5.96159 c 0,0.47365 0.13391,0.92499 0.38686,1.31433 0.24798,0.37198 0.59764,0.65468 1.04402,0.84067 l 0,6.55676"
           id="path26180"
           style="fill:#7b7979;fill-opacity:1;fill-rule:nonzero;stroke:none" />
        <path
           d="m 301.33754,488.51424 -30.53704,0 0,-4.51087 30.53704,0 0,4.51087 z m -7.63302,5.58961 0,4.47368 19.66532,0 0,5.58961 -19.66532,0 0,5.03164 19.66532,0 0,5.58961 -19.66532,0 0,5.08372 20.56551,0 0,5.58962 -55.87629,0 0,-5.58962 21.95176,0 0,-5.08372 -20.52087,0 0,-5.58961 20.52087,0 0,-5.03164 -10.97836,0 c -1.58959,1.51767 -3.79419,2.08556 -6.65843,2.42283 -2.86177,0.16863 -4.47368,0.15871 -4.7911,0.15871 l 0,-6.57412 c 2.38563,-0.50589 3.89587,-1.43336 4.53319,-2.78241 0.47613,-1.34904 0.7142,-1.65407 0.7142,-1.8227 l 10.02113,0 -1.10106,3.00808 8.26043,0 0,-4.47368 -21.47314,0 0,-20.37952 5.28955,-5.41602 49.58239,0 -0.002,20.04722 c 0,3.23126 -2.52202,5.74832 -5.50778,5.74832 l -14.52952,0 z m 73.82802,23.70254 -3.40734,0 0,-6.00623 -9.73594,0 0,5.50034 -6.32861,0 0,-8.53817 19.47189,0 0,9.04406 z m -1.51024,-30.33617 -30.67095,0 0,-3.21143 30.67095,0 0,3.21143 z m 0,-8.31994 -30.67095,0 0,-3.20895 30.67095,0 0,3.20895 z m 5.01676,46.30401 -7.91076,0 -2.40795,-2.02109 -38.84954,0 0,-11.63304 9.24989,0 0,5.50034 6.33357,0 0,-8.53817 -13.78804,0 0,-27.81663 -1.94669,0 0,-7.58591 3.40981,0 4.93741,-5.05148 10.25423,0 -2.49226,2.5245 39.39015,0 0,15.93561 c 0,3.29325 -2.51954,5.81032 -5.51025,5.81032 l -36.35728,0.002 0,2.74025 41.87249,0 0,5.10851 -41.87249,0 0,2.74273 41.91961,0 0,16.21335 c 0.01,3.55365 -2.55922,6.06823 -5.54745,6.06823 l -0.68445,0 z m -69.70152,-47.04301 -30.53704,0 0,-4.51088 30.53704,0 0,4.51088"
           id="path26184"
           style="fill:#0f1f47;fill-opacity:1;fill-rule:evenodd;stroke:none" />
        <path
           d="m 424.99096,494.13358 -30.37833,0 0,-19.70748 30.37833,0 0,19.70748 z m 0,25.37644 -30.37833,0 0,-19.70995 30.37833,0 0,19.70995 z m -34.57426,-50.75288 -5.54001,5.66896 0,50.75041 45.04176,0 c 2.60138,0 4.7539,-2.21452 4.7539,-4.79357 l 0,-51.62084 -44.25565,-0.005 z m 97.62975,34.4205 -1.38376,-2.31371 -7.80909,0 6.02358,10.05089 -3.57596,8.7192 -3.49413,0 0,-24.63497 13.60205,0 -3.36269,8.17859 z m -17.84014,-4.04218 -9.05646,0 6.51956,-10.15256 2.5369,0 0,10.15256 z m 0,13.1036 -9.05646,0 0,-7.44455 9.05646,0 0,7.44455 z m -13.92691,-17.58967 -3.64044,-5.66649 7.2784,0 -3.63796,5.66649 z m 41.63691,24.98463 -5.86736,-9.78307 6.0955,-14.8519 0,-5.65409 -20.33736,0 0,-14.1377 14.07075,0 0,5.90952 -8.14139,0.007 0,5.66896 9.65906,0 c 2.38563,0 4.28769,-1.80038 4.66463,-4.14137 0.0397,-0.3695 0,-12.43651 0,-12.43651 l 0,-0.66709 -22.32373,0 -5.5301,5.65905 0,8.1166 -9.05646,0 0,-6.00375 6.18974,0 0,-5.65905 -6.18974,0 0,-3.13455 -9.74834,0 0,3.13455 -6.53196,0 0,5.65905 6.53196,0 0,6.00375 -9.13582,0 0,5.65904 2.66337,0 6.51708,10.15256 -9.09862,0 0,5.65905 9.05399,0 0,7.44455 -9.05399,0 0,5.66401 9.05399,0 0,7.77685 9.74834,0 0,-7.77685 9.05646,0 0,7.77685 13.35655,0 c 2.70305,-0.52821 3.80907,-4.41663 5.30938,-8.09675 0.14384,0.23807 1.82766,3.04775 2.86425,4.7415 1.0217,1.87478 2.11284,3.35525 3.91818,3.35525 l 3.47429,0 0,-6.0459 -1.21265,0"
           id="path26188"
           style="fill:#c4161d;fill-opacity:1;fill-rule:evenodd;stroke:none" />
      </g>
    </g>
  </g>
</svg>
