<svg width="116" height="37" viewBox="0 0 116 37" fill="none" xmlns="http://www.w3.org/2000/svg">
<g opacity="0.6">
<path d="M48.6459 12.6104L47.0203 12.4764C45.771 12.3721 45.2592 11.8808 45.2592 11.0322C45.2592 10.0347 46.0419 9.39446 47.4869 9.39446C48.5405 9.39446 49.4436 9.63267 50.1661 10.1984L51.1143 9.26046C50.1962 8.53093 48.9469 8.18849 47.4869 8.18849C45.3495 8.18849 43.7992 9.29024 43.7992 11.1066C43.7992 12.7444 44.8528 13.6228 46.8096 13.7865L48.4652 13.9205C49.6092 14.0248 50.1209 14.4863 50.1209 15.3647C50.1209 16.5409 49.1125 17.1067 47.4417 17.1067C46.1924 17.1067 45.1087 16.7791 44.326 15.9751L43.3477 16.9429C44.4615 17.9851 45.786 18.3871 47.4718 18.3871C49.9102 18.3871 51.5659 17.2853 51.5659 15.3796C51.596 13.4441 50.3768 12.8039 48.6158 12.6401L48.6459 12.6104ZM61.2441 8.12894C59.6186 8.12894 58.6101 8.42671 57.722 9.57312L58.6703 10.5111C59.2423 9.67734 59.9196 9.37957 61.214 9.37957C63.0353 9.37957 63.7879 10.1091 63.7879 11.5533V12.521H60.7775C58.5499 12.521 57.3307 13.6526 57.3307 15.3945C57.3307 16.1985 57.6016 16.9429 58.0682 17.4044C58.7155 18.0446 59.5282 18.3126 60.913 18.3126C62.2978 18.3126 62.9751 18.0446 63.818 17.2407V18.2084H65.278V11.4491C65.2479 9.30513 63.9233 8.12894 61.2441 8.12894ZM63.7879 14.6947C63.7879 15.5285 63.6223 16.0943 63.2761 16.4069C62.6289 17.0025 61.8914 17.0769 61.0485 17.0769C59.453 17.0769 58.7456 16.5409 58.7456 15.3647C58.7456 14.1885 59.4831 13.6228 60.9732 13.6228H63.7879V14.6947ZM70.9976 9.43912C71.9459 9.43912 72.563 9.70711 73.3006 10.5409L74.2789 9.60289C73.2705 8.50115 72.3824 8.15871 70.9976 8.15871C68.4539 8.15871 66.5574 9.87089 66.5574 13.2506C66.5574 16.6302 68.469 18.3424 70.9976 18.3424C72.3824 18.3424 73.2705 17.9702 74.309 16.8685L73.3006 15.9305C72.563 16.7642 71.9459 17.062 70.9976 17.062C70.0494 17.062 69.2065 16.6898 68.6646 15.9305C68.198 15.2903 68.0174 14.531 68.0174 13.2506C68.0174 11.9702 68.183 11.2406 68.6646 10.5706C69.2065 9.79644 70.0193 9.43912 70.9976 9.43912ZM83.5959 8.26293H81.7747L77.199 12.655V3.84106H75.7389V18.2084H77.199V14.5905L78.9901 12.8188L82.3466 18.2084H84.1679L79.9986 11.8064L83.5809 8.26293H83.5959ZM55.7051 9.84111L57.0598 8.50115H54.2903V5.22569H52.8302V15.5434C52.8302 17.0173 53.6731 18.2233 55.4041 18.2233H56.4577V16.9876H55.675C54.7268 16.9876 54.3204 16.4516 54.3204 15.5434V9.856H55.7051V9.84111Z" fill="#B9C8DE"/>
<path d="M0 36.1937V23.2854H3.25117V32.9778H26.0696V23.2854H29.3659V36.1937H0Z" fill="#B9C8DE"/>
<path d="M6.86515 22.3922L22.8651 25.6975L23.5274 22.5262L7.52742 19.221L6.86515 22.3922ZM8.95733 14.814L23.7532 21.6478L25.1379 18.7446L10.3421 11.8661L8.95733 14.814ZM13.0514 7.63777L25.6196 17.9555L27.7118 15.484L15.1436 5.16629L13.0514 7.63777ZM21.1643 0.0148884L18.5302 1.95039L28.2837 14.9033L30.9178 12.9678L21.1643 0V0.0148884ZM6.50391 29.7173H22.8049V26.5014H6.50391V29.7173Z" fill="#B9C8DE"/>
<path d="M47.4258 25.2199C45.8604 25.2199 44.8519 25.8154 44.2047 26.4854C43.2565 27.4531 43.0156 28.6293 43.0156 30.5201C43.0156 32.411 43.2565 33.5723 44.2047 34.5549C44.8519 35.2249 45.8905 35.8204 47.4258 35.8204C48.961 35.8204 50.0297 35.2249 50.6769 34.5549C51.6252 33.5872 51.866 32.411 51.866 30.5201C51.866 28.6293 51.6252 27.468 50.6769 26.4854C50.0297 25.8154 48.946 25.2199 47.4258 25.2199ZM48.645 33.0214C48.3439 33.3192 47.9375 33.483 47.4258 33.483C46.914 33.483 46.5076 33.3192 46.2066 33.0214C45.6647 32.4854 45.6045 31.5772 45.6045 30.5053C45.6045 29.4333 45.6798 28.5251 46.2066 27.9891C46.5076 27.6913 46.8839 27.5276 47.4258 27.5276C47.9375 27.5276 48.3439 27.6913 48.645 27.9891C49.1868 28.5251 49.247 29.4333 49.247 30.5053C49.247 31.5772 49.1718 32.4854 48.645 33.0214ZM58.8049 25.3539L56.7127 31.7559L54.5753 25.3539H51.8359L55.6892 35.7013H57.7211L61.5443 25.3539H58.8049ZM66.0146 25.2199C63.3053 25.2199 61.4389 27.1107 61.4389 30.5053C61.4389 34.6889 63.802 35.7907 66.2856 35.7907C68.1821 35.7907 69.1905 35.2249 70.2442 34.1529L68.6487 32.6045C67.9714 33.2745 67.4295 33.5723 66.2856 33.5723C64.8256 33.5723 63.9827 32.6045 63.9827 31.2646H70.5151V30.133C70.5452 27.3191 68.8895 25.205 66.0146 25.205V25.2199ZM64.0128 29.5375C64.0429 29.076 64.073 28.808 64.2536 28.4358C64.5245 27.8402 65.0965 27.3638 66.0146 27.3638C66.3759 27.3638 66.7371 27.4531 67.0532 27.6318C67.3693 27.8253 67.6101 28.0933 67.7757 28.4209C67.9412 28.7931 68.0165 29.0909 68.0165 29.5226H64.0128V29.5375ZM74.3984 26.3216V25.3241H71.8547V35.7013H74.4586V29.478C74.4586 28.1678 75.3316 27.5871 76.1444 27.5871C76.7917 27.5871 77.1228 27.7956 77.5292 28.1827L79.4859 26.2472C78.7785 25.5474 78.0259 25.2794 77.0174 25.2794C75.8735 25.2496 74.8801 25.7856 74.3834 26.3514L74.3984 26.3216ZM80.2837 24.2819V35.7013H82.8876V27.5276H84.7992V25.5474H82.8876V24.4159C82.8876 23.8203 83.1886 23.4779 83.8058 23.4779H84.8142V21.3042H83.3241C81.2319 21.3042 80.2837 22.8079 80.2837 24.2819ZM95.5912 25.2199C94.0259 25.2199 93.0174 25.8154 92.3702 26.4854C91.4219 27.4531 91.1811 28.6293 91.1811 30.5201C91.1811 32.411 91.4219 33.5723 92.3702 34.5549C93.0174 35.2249 94.056 35.8204 95.5912 35.8204C97.1265 35.8204 98.1952 35.2249 98.8424 34.5549C99.7907 33.5872 100.031 32.411 100.031 30.5201C100.031 28.6293 99.7907 27.468 98.8424 26.4854C98.1952 25.8154 97.1115 25.2199 95.5912 25.2199ZM96.8104 33.0214C96.5094 33.3192 96.103 33.483 95.5912 33.483C95.0795 33.483 94.6731 33.3192 94.3721 33.0214C93.8302 32.4854 93.77 31.5772 93.77 30.5053C93.77 29.4333 93.8302 28.5251 94.3721 27.9891C94.6731 27.6913 95.0494 27.5276 95.5912 27.5276C96.103 27.5276 96.5094 27.6913 96.8104 27.9891C97.3523 28.5251 97.4125 29.4333 97.4125 30.5053C97.4125 31.5772 97.3523 32.4854 96.8104 33.0214ZM112.344 25.3539L110.658 31.7559L108.521 25.3539H106.624L104.487 31.7559L102.801 25.3539H100.031L103.253 35.7013H105.39L107.587 29.21L109.785 35.7013H111.922L115.098 25.3539H112.344ZM88.6825 32.5896V21.3042H86.0786V32.7236C86.0786 34.1976 86.9967 35.6716 89.119 35.6716H90.6091V33.4978H89.6007C88.9534 33.4978 88.6825 33.2001 88.6825 32.5896Z" fill="#B9C8DE"/>
</g>
</svg>
