<svg width="86" height="28" viewBox="0 0 86 28" fill="none" xmlns="http://www.w3.org/2000/svg">
<path d="M36.3495 9.42258L35.1348 9.32246C34.2013 9.24459 33.819 8.87747 33.819 8.24336C33.819 7.498 34.4038 7.01964 35.4835 7.01964C36.2707 7.01964 36.9455 7.19764 37.4854 7.62038L38.1939 6.91952C37.5079 6.37441 36.5744 6.11854 35.4835 6.11854C33.8864 6.11854 32.728 6.94177 32.728 8.29898C32.728 9.5227 33.5153 10.1791 34.9774 10.3014L36.2145 10.4016C37.0693 10.4794 37.4516 10.8243 37.4516 11.4807C37.4516 12.3595 36.6981 12.7823 35.4497 12.7823C34.5163 12.7823 33.7065 12.5375 33.1217 11.9368L32.3906 12.6599C33.2229 13.4386 34.2126 13.739 35.4722 13.739C37.2942 13.739 38.5313 12.9157 38.5313 11.4918C38.5538 10.0456 37.6428 9.5672 36.327 9.44483L36.3495 9.42258ZM45.763 6.07404C44.5483 6.07404 43.7948 6.29653 43.1312 7.15314L43.8398 7.854C44.2672 7.23101 44.7733 7.00852 45.7405 7.00852C47.1013 7.00852 47.6637 7.55363 47.6637 8.63273V9.35583H45.4143C43.7498 9.35583 42.8388 10.2013 42.8388 11.5029C42.8388 12.1036 43.0413 12.6599 43.3899 13.0047C43.8735 13.4831 44.4809 13.6834 45.5155 13.6834C46.5502 13.6834 47.0563 13.4831 47.6862 12.8824V13.6055H48.7771V8.55485C48.7546 6.95289 47.7649 6.07404 45.763 6.07404ZM47.6637 10.98C47.6637 11.603 47.54 12.0258 47.2813 12.2594C46.7977 12.7044 46.2466 12.76 45.6168 12.76C44.4246 12.76 43.896 12.3595 43.896 11.4807C43.896 10.6018 44.4471 10.1791 45.5605 10.1791H47.6637V10.98ZM53.0508 7.05301C53.7594 7.05301 54.2205 7.25326 54.7716 7.87624L55.5026 7.17539C54.7491 6.35216 54.0855 6.09629 53.0508 6.09629C51.1502 6.09629 49.7331 7.37563 49.7331 9.90095C49.7331 12.4263 51.1614 13.7056 53.0508 13.7056C54.0855 13.7056 54.7491 13.4275 55.5251 12.6043L54.7716 11.9034C54.2205 12.5264 53.7594 12.7489 53.0508 12.7489C52.3423 12.7489 51.7125 12.4708 51.3076 11.9034C50.959 11.425 50.824 10.8577 50.824 9.90095C50.824 8.94422 50.9477 8.39911 51.3076 7.89849C51.7125 7.32001 52.3198 7.05301 53.0508 7.05301ZM62.4644 6.17416H61.1035L57.6845 9.45596V2.87012H56.5936V13.6055H57.6845V10.9022L59.0229 9.57833L61.5309 13.6055H62.8917L59.7764 8.82185L62.4531 6.17416H62.4644ZM41.6242 7.35338L42.6364 6.35216H40.567V3.90472H39.4761V11.6142C39.4761 12.7155 40.1059 13.6166 41.3993 13.6166H42.1865V12.6933H41.6017C40.8931 12.6933 40.5895 12.2928 40.5895 11.6142V7.36451H41.6242V7.35338Z" fill="#B9C8DE"/>
<path d="M0 27.0439V17.3988H2.42929V24.641H19.4793V17.3988H21.9424V27.0439H0Z" fill="#B9C8DE"/>
<path d="M5.1293 16.7316L17.0846 19.2013L17.5794 16.8317L5.62415 14.362L5.1293 16.7316ZM6.69259 11.0691L17.7481 16.1754L18.7828 14.006L7.72729 8.86641L6.69259 11.0691ZM9.7517 5.70699L19.1427 13.4164L20.706 11.5697L11.315 3.86028L9.7517 5.70699ZM15.8137 0.0111247L13.8455 1.45734L21.1334 11.1359L23.1015 9.68964L15.8137 0V0.0111247ZM4.85938 22.205H17.0396V19.802H4.85938V22.205Z" fill="#B9C8DE"/>
<path d="M35.4359 18.8445C34.2663 18.8445 33.5127 19.2895 33.0291 19.7901C32.3206 20.5132 32.1406 21.3921 32.1406 22.8049C32.1406 24.2177 32.3206 25.0855 33.0291 25.8197C33.5127 26.3203 34.2887 26.7653 35.4359 26.7653C36.5831 26.7653 37.3816 26.3203 37.8652 25.8197C38.5737 25.0966 38.7537 24.2177 38.7537 22.8049C38.7537 21.3921 38.5737 20.5243 37.8652 19.7901C37.3816 19.2895 36.5718 18.8445 35.4359 18.8445ZM36.3469 24.6739C36.122 24.8964 35.8183 25.0187 35.4359 25.0187C35.0535 25.0187 34.7499 24.8964 34.5249 24.6739C34.12 24.2734 34.0751 23.5948 34.0751 22.7938C34.0751 21.9928 34.1313 21.3142 34.5249 20.9137C34.7499 20.6912 35.031 20.5688 35.4359 20.5688C35.8183 20.5688 36.122 20.6912 36.3469 20.9137C36.7518 21.3142 36.7968 21.9928 36.7968 22.7938C36.7968 23.5948 36.7405 24.2734 36.3469 24.6739ZM43.9384 18.9446L42.3751 23.7283L40.7781 18.9446H38.7312L41.6104 26.6763H43.1287L45.9853 18.9446H43.9384ZM49.3256 18.8445C47.3012 18.8445 45.9066 20.2573 45.9066 22.7938C45.9066 25.9198 47.6723 26.7431 49.5281 26.7431C50.9451 26.7431 51.6987 26.3203 52.4859 25.5193L51.2938 24.3624C50.7877 24.863 50.3828 25.0855 49.5281 25.0855C48.4371 25.0855 47.8073 24.3624 47.8073 23.3611H52.6884V22.5157C52.7109 20.4131 51.4737 18.8334 49.3256 18.8334V18.8445ZM47.8298 22.0707C47.8523 21.7258 47.8748 21.5256 48.0097 21.2474C48.2122 20.8025 48.6396 20.4465 49.3256 20.4465C49.5955 20.4465 49.8655 20.5132 50.1016 20.6467C50.3378 20.7913 50.5178 20.9916 50.6415 21.2363C50.7652 21.5144 50.8214 21.7369 50.8214 22.0596H47.8298V22.0707ZM55.59 19.6677V18.9224H53.6893V26.6763H55.635V22.0262C55.635 21.0472 56.2873 20.6133 56.8947 20.6133C57.3783 20.6133 57.6257 20.7691 57.9293 21.0583L59.3914 19.6121C58.8628 19.0892 58.3005 18.889 57.547 18.889C56.6922 18.8668 55.9499 19.2672 55.5788 19.69L55.59 19.6677ZM59.9875 18.1436V26.6763H61.9332V20.5688H63.3615V19.0892H61.9332V18.2438C61.9332 17.7988 62.1581 17.5429 62.6192 17.5429H63.3728V15.9187H62.2593C60.696 15.9187 59.9875 17.0423 59.9875 18.1436ZM71.4254 18.8445C70.2558 18.8445 69.5022 19.2895 69.0186 19.7901C68.3101 20.5132 68.1301 21.3921 68.1301 22.8049C68.1301 24.2177 68.3101 25.0855 69.0186 25.8197C69.5022 26.3203 70.2782 26.7653 71.4254 26.7653C72.5726 26.7653 73.3711 26.3203 73.8547 25.8197C74.5632 25.0966 74.7432 24.2177 74.7432 22.8049C74.7432 21.3921 74.5632 20.5243 73.8547 19.7901C73.3711 19.2895 72.5613 18.8445 71.4254 18.8445ZM72.3364 24.6739C72.1115 24.8964 71.8078 25.0187 71.4254 25.0187C71.043 25.0187 70.7394 24.8964 70.5144 24.6739C70.1096 24.2734 70.0646 23.5948 70.0646 22.7938C70.0646 21.9928 70.1096 21.3142 70.5144 20.9137C70.7394 20.6912 71.0205 20.5688 71.4254 20.5688C71.8078 20.5688 72.1115 20.6912 72.3364 20.9137C72.7413 21.3142 72.7863 21.9928 72.7863 22.7938C72.7863 23.5948 72.7413 24.2734 72.3364 24.6739ZM83.943 18.9446L82.6834 23.7283L81.0863 18.9446H79.6693L78.0722 23.7283L76.8126 18.9446H74.7432L77.15 26.6763H78.747L80.389 21.8259L82.0311 26.6763H83.6281L86.0012 18.9446H83.943ZM66.2632 24.3512V15.9187H64.3175V24.4514C64.3175 25.5527 65.0035 26.6541 66.5893 26.6541H67.7027V25.0299H66.9492C66.4656 25.0299 66.2632 24.8074 66.2632 24.3512Z" fill="#B9C8DE"/>
</svg>
