<svg width="117" height="28" viewBox="0 0 117 28" fill="none" xmlns="http://www.w3.org/2000/svg">
<path d="M43.4901 12.0273C41.1695 11.4687 39.2786 11.0596 39.2786 9.11404C39.2786 7.60791 40.44 6.80695 42.7081 6.80695C45.3307 6.80695 46.5673 7.9494 46.8699 10.0395H49.7447C49.4697 6.54285 46.7973 4.52475 42.6881 4.52475C38.8018 4.52475 36.3832 6.24844 36.3832 9.26394C36.3832 12.5636 39.4859 13.4392 42.3109 14.1671C45.5856 14.9708 47.3515 15.2847 47.3515 17.4949C47.3515 19.0735 46.4699 20.288 43.5697 20.288C40.1927 20.288 38.7569 18.7093 38.5545 16.3773H35.6792C35.8816 20.288 39.1287 22.5653 43.6422 22.5653C48.1557 22.5653 50.249 20.3356 50.249 17.345C50.249 13.6757 46.9694 12.8753 43.4923 12.0273H43.4901ZM54.7626 18.8046V11.8108H57.2331V9.84518H54.7626V5.86203H52.2926V9.85059H50.4266V11.8156H52.2926V18.7375L52.2872 18.732C52.2872 21.5982 53.5714 22.3737 55.6918 22.3737C56.2216 22.3737 56.6237 22.3488 57.2553 22.2287V20.3085C56.831 20.3805 56.6286 20.4059 56.1989 20.4059C55.1425 20.4059 54.7626 20.1164 54.7626 18.8019V18.8046ZM68.9276 19.415V13.7282C68.9276 10.526 66.8094 9.45607 64.1619 9.45607C60.2302 9.45607 58.6115 11.3286 58.4892 13.7087H61.0122C61.1421 12.0527 61.8213 11.3762 64.0645 11.3762C65.9554 11.3762 66.5096 12.1274 66.5096 13.0274C66.5096 14.2423 65.2708 14.487 63.2554 14.8485C60.0532 15.4319 57.8874 16.2599 57.8874 19.0286H57.8825C57.8825 21.1387 59.5261 22.5729 62.0935 22.5729C64.1868 22.5729 65.648 21.7697 66.4825 20.4828H66.535C66.6844 21.8942 67.3441 22.3558 68.5753 22.3558C68.9753 22.3558 69.405 22.3082 69.8347 22.2113V20.7523C69.6848 20.7772 69.6122 20.7772 69.5348 20.7772C69.0526 20.7772 68.9276 20.3156 68.9276 19.415ZM66.5026 17.4023C66.5026 19.5649 64.866 20.6571 62.6482 20.6571H62.6433C61.1096 20.6571 60.4526 20.026 60.4526 18.8614C60.4526 17.5744 61.4116 16.9634 63.6797 16.5294C64.991 16.2599 66.0999 15.9909 66.5026 15.6289V17.4023ZM76.6883 11.4411C79.0365 11.4411 79.7931 13.0447 79.9159 14.3343H82.466C82.1662 11.5407 79.9733 9.47555 76.6688 9.47555C72.8594 9.47555 70.3639 12.149 70.3639 16.0353L70.3688 16.0304C70.3688 19.9216 72.8621 22.5902 76.6959 22.5902C79.9955 22.5902 82.2912 20.4752 82.4687 17.634H79.9181C79.7931 19.0459 79.0587 20.5997 76.691 20.5997C73.9461 20.5997 72.9341 18.3602 72.9341 16.0304C72.9341 13.7006 73.9434 11.4411 76.691 11.4411H76.6883ZM94.6152 9.84681H91.7653L86.145 15.0947V4.86624H83.6723V22.2379H86.145V17.6237L88.0083 15.9L92.2226 22.2379H95.145L89.6719 14.3912L94.6152 9.84681ZM102.838 4.86624L96.1337 22.233H99.0562L100.543 18.0529H108.081L109.567 22.233H112.592L105.836 4.86624H102.836H102.838ZM101.377 15.7983L104.299 7.34489H104.352L107.299 15.7983H101.377ZM116.686 4.86624H113.913V22.233H116.686V4.86624ZM26.0379 14.2829L20.6823 11.0726C20.6213 11.0359 20.5708 10.984 20.5358 10.9219C20.5008 10.8599 20.4825 10.7899 20.4826 10.7187V4.46793C20.4826 4.0339 20.2553 3.63017 19.8808 3.40828L14.7075 0.309435C14.3685 0.106928 13.9809 0 13.5859 0C13.191 0 12.8034 0.106928 12.4643 0.309435L7.29163 3.41045C7.10858 3.52031 6.957 3.67559 6.85157 3.86123C6.74613 4.04688 6.69042 4.2566 6.68983 4.47009V10.7252C6.68951 10.7964 6.67093 10.8664 6.63588 10.9285C6.60083 10.9905 6.55046 11.0426 6.48959 11.0796L1.13182 14.2824C0.887381 14.4288 0.685061 14.6361 0.544593 14.8841C0.404125 15.132 0.330302 15.4121 0.330322 15.6971V21.7405C0.330322 22.5707 0.744873 23.3392 1.41432 23.7429L6.36999 26.7514C6.89711 27.0707 7.55628 27.0707 8.08339 26.7514L13.3962 23.5535C13.4603 23.5159 13.5334 23.4964 13.6077 23.4968C13.682 23.4973 13.7548 23.5178 13.8184 23.5562L19.299 26.8807C19.4928 26.9983 19.7152 27.0605 19.9419 27.0605C20.1686 27.0605 20.391 26.9983 20.5849 26.8807L25.7554 23.7429C26.4248 23.337 26.8394 22.5707 26.8394 21.7405V15.6971C26.8394 15.118 26.5347 14.5822 26.0379 14.2829ZM13.0093 21.7405C13.0093 22.1843 12.7971 22.5886 12.4627 22.7926L8.29337 25.3221C7.95134 25.5288 7.54112 25.2398 7.54112 24.7907V19.8626C7.54112 19.4188 7.75381 19.0145 8.08826 18.81L12.2576 16.281C12.5996 16.0743 13.0093 16.3633 13.0093 16.8124V21.7411V21.7405ZM19.3683 10.7484C19.3683 11.1922 19.1561 11.5965 18.8217 11.801L14.6529 14.33C14.3103 14.5373 13.9006 14.2478 13.9006 13.7986V8.87104C13.9006 8.42727 14.1133 8.023 14.4478 7.81843L18.6171 5.28837C18.9597 5.08164 19.3693 5.37117 19.3693 5.81982V10.7484H19.3683ZM25.7256 21.74C25.7256 22.1843 25.5135 22.5886 25.179 22.7931L21.0097 25.3221C20.6677 25.5288 20.2574 25.2398 20.2574 24.7907V19.8626C20.2574 19.4188 20.4701 19.0145 20.8051 18.81L24.9739 16.281C25.3159 16.0743 25.7256 16.3633 25.7256 16.8124V21.7411V21.74Z" fill="#B9C8DE"/>
</svg>
