<svg width="135" height="30" viewBox="0 0 135 30" fill="none" xmlns="http://www.w3.org/2000/svg">
<path d="M135 11.7379C135 13.9126 134.358 14.5539 132.628 15.0836C130.758 15.6413 127.438 16.0037 125.457 16.0037C123.113 16.0037 120.183 15.8643 117.699 15.2788V12.7695H131.456V9.34015H121.717C118.787 9.34015 117.699 8.5316 117.699 5.68773V4.18216C117.699 1.92379 118.369 1.25465 120.183 0.780669C122.024 0.306691 125.038 0 127.019 0C129.419 0 132.293 0.195167 134.777 0.752788V3.26208H121.243V6.13383H130.982C133.911 6.13383 135 6.9145 135 9.78625V11.7379Z" fill="#B9C8DE"/>
<path d="M111.532 15.2509C108.686 15.8086 105.812 15.9758 103.022 15.9758C100.231 15.9758 97.3292 15.8086 94.4551 15.2509V0.752788C97.3013 0.195167 100.203 0 102.966 0C105.756 0 108.575 0.167286 111.421 0.752788V3.34572H98.5291V6.24535H106.928V9.25651H98.5291V12.6859H111.477V15.2509H111.532Z" fill="#B9C8DE"/>
<path d="M89.5727 15.2518C87.0055 15.8094 84.4383 15.9767 81.9549 15.9767C79.4714 15.9767 76.8484 15.8373 74.2812 15.2518V0.363281H78.3831V12.4915H89.5727V15.2518Z" fill="#B9C8DE"/>
<path d="M69.3698 15.3627C68.0025 15.7531 66.1888 15.8925 64.8494 15.9204L58.5151 3.15085H58.1524L51.8461 15.9204C50.5067 15.8925 48.9161 15.7531 47.5488 15.3627L55.5573 0.390625H61.2776L69.3698 15.3627Z" fill="#B9C8DE"/>
<path d="M61.0269 11.5432C61.0269 13.0209 59.8271 14.1919 58.3482 14.1919C56.8692 14.1919 55.6973 12.993 55.6973 11.5432C55.6973 10.0655 56.8971 8.89453 58.3482 8.89453C59.8271 8.89453 61.0269 10.0655 61.0269 11.5432Z" fill="#B9C8DE"/>
<path d="M42.6095 15.3623C41.298 15.7526 39.9028 15.8641 38.5076 15.892V9.39571H28.3226V15.892C26.9274 15.8641 25.5322 15.7247 24.2207 15.3623V0.641068C25.5322 0.250733 26.9274 0.139209 28.3226 0.111328V6.38456H38.5076V0.111328C39.9028 0.139209 41.298 0.278614 42.6095 0.641068V15.3623Z" fill="#B9C8DE"/>
<path d="M18.4725 3.37361H11.2733V15.6413H7.19926V3.37361H0V0.752788C3.09735 0.195167 6.22261 0 9.23625 0C12.2499 0 15.3752 0.167286 18.4725 0.752788V3.37361Z" fill="#B9C8DE"/>
<path d="M5.38603 22.9737C5.38603 23.9495 5.10699 24.4235 4.35358 24.5629V24.5908C5.27442 24.7023 5.52555 25.2599 5.52555 26.2358C5.52555 27.7135 4.77214 28.1596 3.06999 28.1596C2.31658 28.1596 1.11671 28.1317 0.307489 28.0759C0.195873 28.0759 0.167969 28.048 0.167969 27.9365V21.2451C0.167969 21.1335 0.195873 21.1335 0.307489 21.1057C1.11671 21.022 2.09335 20.9941 2.84676 20.9941C4.63262 21.022 5.38603 21.496 5.38603 22.9737ZM1.61898 22.2488V24.0611H2.53982C3.57227 24.0611 3.93502 23.9495 3.93502 23.1689C3.93502 22.444 3.57227 22.2488 2.70724 22.2488H1.61898ZM1.61898 25.0927V26.9049H2.98628C3.7676 26.9049 4.10245 26.7098 4.10245 26.0406C4.10245 25.2878 3.73969 25.0927 3.01419 25.0927H1.61898Z" fill="#B9C8DE"/>
<path d="M10.7989 23.002C10.8826 23.002 10.9384 23.0577 10.9384 23.1414V27.8254C10.9384 27.9369 10.9105 27.9648 10.7989 27.9927C10.185 28.1042 9.29209 28.1599 8.62239 28.1599C6.86443 28.1599 6.41797 27.8254 6.41797 25.9573V23.1414C6.41797 23.0577 6.47378 23.002 6.55749 23.002H7.64575C7.72946 23.002 7.78527 23.0577 7.78527 23.1414V25.5949C7.78527 26.9053 7.92479 26.9611 8.76191 26.9611H9.57113V23.1414C9.57113 23.0577 9.62694 23.002 9.71065 23.002H10.7989Z" fill="#B9C8DE"/>
<path d="M13.4773 21.6077C13.4773 22.0817 13.1982 22.3326 12.6959 22.3326C12.1937 22.3326 11.8867 22.0538 11.8867 21.6077C11.8867 21.1337 12.1658 20.8828 12.6959 20.8828C13.1982 20.8549 13.4773 21.1337 13.4773 21.6077ZM13.2261 23.0017C13.3098 23.0017 13.3656 23.0575 13.3656 23.1411V27.9646C13.3656 28.0761 13.3098 28.104 13.2261 28.104H12.1379C12.0541 28.104 11.9983 28.0482 11.9983 27.9646V23.1411C11.9983 23.0575 12.0541 23.0017 12.1379 23.0017H13.2261Z" fill="#B9C8DE"/>
<path d="M15.6829 21.0787C15.7666 21.0787 15.8224 21.1344 15.8224 21.2181V27.9932C15.8224 28.1047 15.7666 28.1326 15.6829 28.1326H14.5946C14.5109 28.1326 14.4551 28.0768 14.4551 27.9932V21.1902C14.4551 21.1065 14.5109 21.0508 14.5946 21.0508H15.6829V21.0787Z" fill="#B9C8DE"/>
<path d="M21.1516 21.0781C21.2632 21.0781 21.2911 21.1339 21.2911 21.2175V27.7696C21.2911 27.909 21.2074 27.9926 21.0958 27.9926C20.3424 28.1041 19.7285 28.1599 19.0867 28.1599C17.1613 28.1599 16.7148 27.6302 16.7148 25.567C16.7148 23.5595 17.1334 22.974 18.8077 22.974C19.2262 22.974 19.589 23.0019 19.9238 23.0298V21.2175C19.9238 21.106 19.9517 21.0781 20.0633 21.0781H21.1516ZM19.1425 24.145C18.2217 24.145 18.11 24.396 18.11 25.567C18.11 26.6543 18.1938 26.9889 19.0867 26.9889C19.3099 26.9889 19.7006 26.961 19.9517 26.9331V24.145H19.1425Z" fill="#B9C8DE"/>
<path d="M23.8581 21.6077C23.8581 22.0817 23.5791 22.3326 23.0768 22.3326C22.5745 22.3326 22.2676 22.0538 22.2676 21.6077C22.2676 21.1337 22.5466 20.8828 23.0768 20.8828C23.5791 20.8549 23.8581 21.1337 23.8581 21.6077ZM23.5791 23.0017C23.6628 23.0017 23.7186 23.0575 23.7186 23.1411V27.9646C23.7186 28.0761 23.6628 28.104 23.5791 28.104H22.4908C22.4071 28.104 22.3513 28.0482 22.3513 27.9646V23.1411C22.3513 23.0575 22.4071 23.0017 22.4908 23.0017H23.5791Z" fill="#B9C8DE"/>
<path d="M29.3277 25.1479V27.9639C29.3277 28.0754 29.2719 28.1033 29.1881 28.1033H28.0999C28.0162 28.1033 27.9604 28.0475 27.9604 27.9639V25.5104C27.9604 24.2 27.8208 24.1442 26.9837 24.1442H26.1466V27.9639C26.1466 28.0754 26.0908 28.1033 26.0071 28.1033H24.9188C24.8351 28.1033 24.7793 28.0475 24.7793 27.9639V23.252C24.7793 23.1405 24.8351 23.1405 24.9188 23.1126C25.5327 22.9732 26.4256 22.9453 27.0953 22.9453C28.8812 22.9732 29.3277 23.3078 29.3277 25.1479Z" fill="#B9C8DE"/>
<path d="M34.6011 23.1405C34.7127 23.1684 34.7964 23.252 34.7964 23.3635V27.9918C34.7964 29.358 34.5174 29.9713 32.5641 29.9713C32.006 29.9713 31.42 29.9435 30.8898 29.8319C30.8061 29.8319 30.7503 29.7762 30.7503 29.6925V28.9955C30.7503 28.884 30.7782 28.8561 30.8898 28.8561H32.4525C33.2617 28.8561 33.457 28.6609 33.457 28.0754V28.0197C33.0664 28.1033 32.7315 28.1312 32.3409 28.1312C30.6945 28.1312 30.248 27.5457 30.248 25.4546C30.248 23.4751 30.6945 22.9453 32.6199 22.9453C33.3175 22.9732 34.0709 23.029 34.6011 23.1405ZM32.5362 24.1442C31.6433 24.1442 31.5595 24.4788 31.5595 25.5661C31.5595 26.7371 31.6991 26.9881 32.6199 26.9881C32.8431 26.9881 33.178 26.9881 33.4291 26.9323V24.1442H32.5362Z" fill="#B9C8DE"/>
<path d="M41.8569 24.5345V27.6851C41.8569 27.8245 41.829 27.9081 41.6616 27.9639C41.0198 28.1033 40.2106 28.1591 39.5967 28.1591C38.2294 28.1591 37.5039 28.0197 37.5039 26.5977C37.5318 25.371 38.1736 25.0922 39.3735 25.0922H40.5175V24.7576C40.5175 24.3115 40.2385 24.1163 39.6525 24.1163H38.0062C37.8946 24.1163 37.8667 24.0884 37.8667 23.9769V23.2241C37.8667 23.1126 37.8946 23.0847 38.0062 23.0847C38.5643 22.9732 39.0944 22.9453 39.6525 22.9453C41.4663 22.9732 41.8569 23.5587 41.8569 24.5345ZM39.4572 25.9565C38.9828 25.9565 38.8154 26.1237 38.8154 26.5141C38.8154 26.9602 39.0107 27.0717 39.5967 27.0717C39.792 27.0717 40.2385 27.0438 40.5175 26.9881V25.9843H39.4572V25.9565Z" fill="#B9C8DE"/>
<path d="M47.7436 21.1051C47.8552 21.133 47.8831 21.1609 47.8831 21.2724V22.0252C47.8831 22.1367 47.8273 22.1646 47.7157 22.1646H46.9902C46.6274 22.1646 46.4879 22.2204 46.4879 22.5271V23.001H47.6041C47.7157 23.001 47.7436 23.0568 47.7157 23.1683L47.5762 23.9211C47.5483 24.0048 47.4924 24.0605 47.4087 24.0605H46.4879V27.9639C46.4879 28.0754 46.4321 28.1033 46.3484 28.1033H45.2601C45.1764 28.1033 45.1206 28.0475 45.1206 27.9639V24.0605H44.5346C44.423 24.0605 44.3672 24.0048 44.3672 23.9211V23.1404C44.3672 23.0568 44.423 23.001 44.5346 23.001H45.1206V22.304C45.1206 21.1609 45.9019 21.0215 46.7111 21.0215C47.046 21.0215 47.4087 21.0494 47.7436 21.1051Z" fill="#B9C8DE"/>
<path d="M52.711 23.002C52.7947 23.002 52.8505 23.0577 52.8505 23.1414V27.8254C52.8505 27.9369 52.8226 27.9648 52.711 27.9927C52.0971 28.1042 51.2042 28.1599 50.5345 28.1599C48.7765 28.1599 48.3301 27.8254 48.3301 25.9573V23.1414C48.3301 23.0577 48.3859 23.002 48.4696 23.002H49.5579C49.6416 23.002 49.6974 23.0577 49.6974 23.1414V25.5949C49.6974 26.9053 49.8369 26.9611 50.674 26.9611H51.4832V23.1414C51.4832 23.0577 51.539 23.002 51.6228 23.002H52.711Z" fill="#B9C8DE"/>
<path d="M55.4463 21.6067C55.53 21.5788 55.5858 21.6346 55.5858 21.7461V23.0565H56.423C56.5346 23.0565 56.5904 23.1123 56.5904 23.1959V23.9208C56.5904 24.0045 56.5346 24.0602 56.423 24.0602H55.5858V26.5417C55.5858 26.932 55.7254 27.0156 56.116 27.0156H56.4788C56.5904 27.0156 56.6462 27.0435 56.6462 27.155V27.9357C56.6462 28.0472 56.5904 28.103 56.5067 28.103C56.1997 28.1588 55.9207 28.1866 55.7253 28.1866C54.944 28.1866 54.2185 28.1588 54.2185 27.0156V24.0324H53.6883C53.5767 24.0324 53.5488 23.9766 53.5488 23.893V23.1681C53.5488 23.0844 53.6046 23.0286 53.6883 23.0286H54.2185V22.0249C54.2185 21.9413 54.2464 21.8855 54.358 21.8855L55.4463 21.6067Z" fill="#B9C8DE"/>
<path d="M61.7247 23.002C61.8084 23.002 61.8642 23.0577 61.8642 23.1414V27.8254C61.8642 27.9369 61.8363 27.9648 61.7247 27.9927C61.1108 28.1042 60.2179 28.1599 59.5482 28.1599C57.7902 28.1599 57.3438 27.8254 57.3438 25.9573V23.1414C57.3438 23.0577 57.3996 23.002 57.4833 23.002H58.5715C58.6552 23.002 58.711 23.0577 58.711 23.1414V25.5949C58.711 26.9053 58.8506 26.9611 59.6877 26.9611H60.4969V23.1414C60.4969 23.0577 60.5527 23.002 60.6364 23.002H61.7247Z" fill="#B9C8DE"/>
<path d="M65.798 23.0583C65.9096 23.0861 65.9375 23.114 65.9375 23.2534V24.0062C65.9375 24.0899 65.8817 24.1456 65.77 24.1456H64.905C64.4307 24.1456 64.2632 24.2293 64.2632 24.6196V27.9932C64.2632 28.1047 64.2074 28.1326 64.1237 28.1326H63.0633C62.9796 28.1326 62.9238 28.0768 62.9238 27.9932V24.2571C62.9238 23.114 63.733 22.9746 64.5702 22.9746C64.8492 22.9746 65.4631 23.0025 65.798 23.0583Z" fill="#B9C8DE"/>
<path d="M70.9613 25.5104V25.7892C70.9613 25.9844 70.9055 26.0401 70.6823 26.0401H67.8361C67.864 26.8487 68.0593 27.016 68.8685 27.016H70.4869C70.5707 27.016 70.6265 27.0717 70.6265 27.1554V27.9081C70.6265 28.0197 70.5707 28.0476 70.4869 28.0476C70.0126 28.1591 69.3429 28.187 68.7569 28.187C66.9152 28.187 66.4688 27.6572 66.4688 25.594C66.4688 23.5029 66.9152 23.0011 68.7569 23.0011C70.5148 22.9732 70.9613 23.4751 70.9613 25.5104ZM67.8081 25.1479H69.6219C69.6219 24.3394 69.3987 24.1442 68.729 24.1442C68.0593 24.1442 67.8361 24.3394 67.8081 25.1479Z" fill="#B9C8DE"/>
<path d="M80.3639 23.1406C80.4755 23.1406 80.5034 23.1685 80.4755 23.28L79.6663 27.1276C79.4709 28.0198 79.3314 28.1592 78.6059 28.1592C77.7967 28.1592 77.7688 28.0477 77.5456 27.1276L76.9596 24.5904L76.3736 27.1276C76.1504 28.0477 76.1224 28.1592 75.3132 28.1592C74.5877 28.1592 74.4482 28.0198 74.2529 27.1276L73.4437 23.28C73.4158 23.1685 73.4437 23.1406 73.5553 23.1406H74.225C74.2808 23.1406 74.3087 23.1685 74.3366 23.28L75.09 27.0161C75.1737 27.3228 75.2295 27.3507 75.3411 27.3507C75.5086 27.3507 75.5086 27.3228 75.5923 27.0161L76.4573 23.4194C76.4852 23.3079 76.5131 23.28 76.5968 23.28H77.3502C77.4339 23.28 77.4618 23.3079 77.4898 23.4194L78.3827 27.0161C78.4664 27.3228 78.4664 27.3507 78.6338 27.3507C78.7454 27.3507 78.8012 27.3228 78.885 27.0161L79.6384 23.28C79.6663 23.1685 79.6942 23.1406 79.75 23.1406H80.3639Z" fill="#B9C8DE"/>
<path d="M85.3583 25.4823V25.7332C85.3583 25.9284 85.3025 25.9841 85.0235 25.9841H82.1214C82.1493 27.0994 82.3447 27.3782 83.3213 27.3782H84.8281C84.9119 27.3782 84.9677 27.434 84.9677 27.5176V27.9079C84.9677 27.9916 84.9119 28.0473 84.8281 28.0473C84.3538 28.1031 83.8515 28.131 83.2934 28.131C81.5913 28.131 81.2285 27.6291 81.2285 25.5938C81.2285 23.5585 81.5913 23.0566 83.2934 23.0566C84.9398 23.0845 85.3304 23.5585 85.3583 25.4823ZM82.1214 25.2871H84.4933C84.4654 24.144 84.2701 23.8373 83.3492 23.8373C82.3447 23.8373 82.1493 24.144 82.1214 25.2871Z" fill="#B9C8DE"/>
<path d="M91.7776 23.1683C91.8613 23.1683 91.9172 23.224 91.9172 23.3355V23.7259C91.9172 23.8095 91.8613 23.8653 91.7776 23.8653H90.4103C89.3221 23.8653 89.1826 24.2277 89.1826 25.6497C89.1826 27.0716 89.3221 27.4062 90.4103 27.4062H91.7776C91.8613 27.4062 91.9172 27.4619 91.9172 27.5456V27.9359C91.9172 28.0196 91.8613 28.0753 91.7776 28.1032C91.3033 28.159 90.7731 28.1868 90.3824 28.1868C88.6245 28.1868 88.2617 27.685 88.2617 25.6497C88.2617 23.6144 88.5966 23.1125 90.3824 23.1125C90.7731 23.0846 91.3033 23.1125 91.7776 23.1683Z" fill="#B9C8DE"/>
<path d="M96.4931 24.5079V27.6863C96.4931 27.77 96.4931 27.8815 96.3256 27.9372C96.0187 28.0488 95.2095 28.1324 94.3165 28.1324C93.1167 28.1324 92.5586 27.8815 92.5586 26.6547C92.5586 25.5673 93.1446 25.2607 94.177 25.2607H95.6559V24.6473C95.6559 24.0897 95.3211 23.8387 94.484 23.8387H93.1167C93.0051 23.8387 92.9772 23.8108 92.9772 23.6993V23.3369C92.9772 23.2253 93.0051 23.1975 93.1167 23.1975C93.6469 23.1138 94.1212 23.0859 94.484 23.0859C95.8513 23.0859 96.4931 23.532 96.4931 24.5079ZM94.1491 25.9856C93.6468 25.9856 93.3957 26.1529 93.3957 26.6547C93.3957 27.2681 93.7027 27.3796 94.4561 27.3796C94.7351 27.3796 95.2653 27.3517 95.628 27.2681V25.9577H94.1491V25.9856Z" fill="#B9C8DE"/>
<path d="M101.85 25.2049V27.9651C101.85 28.0488 101.794 28.1045 101.682 28.1045H101.096C101.013 28.1045 100.957 28.0488 100.957 27.9651V25.2885C100.957 23.8945 100.678 23.8387 99.8127 23.8387H98.557V27.9651C98.557 28.0488 98.5012 28.1045 98.4175 28.1045H97.8036C97.7199 28.1045 97.6641 28.0488 97.6641 27.9651V23.3647C97.6641 23.2532 97.7199 23.2253 97.8036 23.2253C98.5012 23.0859 99.2546 23.0859 99.7011 23.0859C101.347 23.0859 101.85 23.2811 101.85 25.2049Z" fill="#B9C8DE"/>
<path d="M108.77 24.5079V27.6863C108.77 27.77 108.77 27.8815 108.603 27.9372C108.296 28.0488 107.487 28.1324 106.594 28.1324C105.394 28.1324 104.836 27.8815 104.836 26.6547C104.836 25.5673 105.422 25.2607 106.454 25.2607H107.933V24.6473C107.933 24.0897 107.598 23.8387 106.761 23.8387H105.394C105.282 23.8387 105.254 23.8108 105.254 23.6993V23.3369C105.254 23.2253 105.282 23.1975 105.394 23.1975C105.924 23.1138 106.399 23.0859 106.761 23.0859C108.129 23.0859 108.77 23.532 108.77 24.5079ZM106.426 25.9856C105.924 25.9856 105.673 26.1529 105.673 26.6547C105.673 27.2681 105.98 27.3796 106.733 27.3796C107.012 27.3796 107.543 27.3517 107.905 27.2681V25.9577H106.426V25.9856Z" fill="#B9C8DE"/>
<path d="M110.724 21.2168C110.808 21.2168 110.864 21.2726 110.864 21.3562V27.964C110.864 28.0477 110.808 28.1034 110.724 28.1034H110.11C110.027 28.1034 109.971 28.0477 109.971 27.964V21.3562C109.971 21.2726 110.027 21.2168 110.11 21.2168H110.724Z" fill="#B9C8DE"/>
<path d="M112.845 21.2168C112.929 21.2168 112.985 21.2726 112.985 21.3562V27.964C112.985 28.0477 112.929 28.1034 112.845 28.1034H112.231C112.148 28.1034 112.092 28.0477 112.092 27.964V21.3562C112.092 21.2726 112.148 21.2168 112.231 21.2168H112.845Z" fill="#B9C8DE"/>
<path d="M117.281 21.7475C117.392 21.7196 117.448 21.7754 117.448 21.859V23.1415H118.397C118.509 23.1415 118.536 23.1973 118.536 23.2809V23.6992C118.536 23.7828 118.481 23.8386 118.397 23.8386H117.448V26.9055C117.448 27.2958 117.56 27.4073 118.034 27.4073H118.481C118.592 27.4073 118.62 27.4352 118.62 27.5467V27.9928C118.62 28.0765 118.564 28.1322 118.481 28.1322C118.285 28.188 118.062 28.188 117.978 28.188C117.337 28.188 116.583 28.188 116.583 27.1564V23.8386H116.081C115.997 23.8386 115.941 23.7828 115.941 23.6992V23.2809C115.941 23.1973 115.997 23.1415 116.081 23.1415H116.583V22.0542C116.583 21.9705 116.611 21.9148 116.695 21.9148L117.281 21.7475Z" fill="#B9C8DE"/>
<path d="M121.857 23.1975C121.941 23.2253 121.997 23.2532 121.997 23.3647V23.7551C121.997 23.8387 121.941 23.8945 121.857 23.8945H121.076C120.434 23.8945 120.295 24.006 120.295 24.3963V28.0209C120.295 28.1045 120.239 28.1603 120.155 28.1603H119.569C119.485 28.1603 119.43 28.1045 119.43 28.0209V24.1454C119.43 23.1138 120.351 23.0859 120.881 23.0859C121.048 23.0859 121.69 23.1138 121.857 23.1975Z" fill="#B9C8DE"/>
<path d="M126.714 23.1412C126.797 23.1412 126.853 23.1969 126.853 23.2806V27.8809C126.853 27.9925 126.797 27.9925 126.714 28.0203C125.988 28.1597 125.235 28.1597 124.816 28.1597C123.198 28.1597 122.695 27.9367 122.695 26.0129V23.2527C122.695 23.169 122.751 23.1133 122.863 23.1133H123.449C123.532 23.1133 123.588 23.169 123.588 23.2527V25.9293C123.588 27.3233 123.867 27.3791 124.732 27.3791H125.988V23.2806C125.988 23.1969 126.044 23.1412 126.128 23.1412H126.714Z" fill="#B9C8DE"/>
<path d="M131.206 23.1682C131.29 23.1682 131.345 23.2239 131.345 23.3076V23.6979C131.345 23.7815 131.29 23.8373 131.206 23.8373H129.504C129.085 23.8373 128.834 23.9767 128.834 24.3113V24.4228C128.834 24.6737 128.946 24.8968 129.392 25.0641L130.592 25.5381C131.429 25.8447 131.513 26.3187 131.513 26.8206V26.9321C131.513 27.9637 130.899 28.1589 129.671 28.1589C128.89 28.1589 128.164 28.1031 127.997 28.0752C127.885 28.0752 127.857 28.0195 127.857 27.9358V27.5455C127.857 27.4618 127.913 27.4061 127.997 27.4061H129.671C130.397 27.4061 130.62 27.3224 130.62 26.9321V26.8206C130.62 26.5697 130.508 26.3745 130.09 26.2072L128.806 25.7053C128.109 25.4265 127.941 24.8968 127.941 24.3949V24.1998C127.941 23.196 128.806 23.0566 129.783 23.0566C130.201 23.0845 130.676 23.1124 131.206 23.1682Z" fill="#B9C8DE"/>
<path d="M133.494 21.7475C133.606 21.7196 133.662 21.7754 133.662 21.859V23.1415H134.61C134.722 23.1415 134.75 23.1973 134.75 23.2809V23.6992C134.75 23.7828 134.694 23.8386 134.61 23.8386H133.662V26.9055C133.662 27.2958 133.773 27.4073 134.248 27.4073H134.694C134.806 27.4073 134.834 27.4352 134.834 27.5467V27.9928C134.834 28.0765 134.778 28.1322 134.694 28.1322C134.499 28.188 134.276 28.188 134.192 28.188C133.55 28.188 132.797 28.188 132.797 27.1564V23.8386H132.266C132.183 23.8386 132.127 23.7828 132.127 23.6992V23.2809C132.127 23.1973 132.183 23.1415 132.266 23.1415H132.769V22.0542C132.769 21.9705 132.797 21.9148 132.88 21.9148L133.494 21.7475Z" fill="#B9C8DE"/>
</svg>
