<svg width="129" height="30" viewBox="0 0 129 30" fill="none" xmlns="http://www.w3.org/2000/svg">
<path d="M0.135931 6.68194C-0.0453109 6.86358 -0.0453102 7.15811 0.135932 7.33976L5.04143 12.2561C6.48416 13.702 6.4812 16.0503 5.0336 17.5011L0.143557 22.402C-0.0376856 22.5836 -0.0376835 22.8781 0.143558 23.0598L0.955294 23.8733C1.13653 24.055 1.43038 24.055 1.61163 23.8733L6.50167 18.9724C8.76154 16.7075 8.76724 13.0402 6.51315 10.7811L1.60766 5.86475C1.42641 5.68311 1.13256 5.6831 0.951317 5.86475L0.135931 6.68194Z" fill="#B9C8DE"/>
<path d="M5.38938 2.09639C5.16492 2.21981 5.08194 2.50246 5.20393 2.72805L11.5067 14.3839C11.676 14.697 11.6755 15.0747 11.5055 15.3874L5.14461 27.0796C5.02192 27.3051 5.10486 27.5876 5.32988 27.7106L6.33806 28.2617C6.56309 28.3847 6.84499 28.3016 6.96768 28.0761L11.7278 19.3262C11.7799 19.2306 11.9248 19.2678 11.9247 19.3767L11.9104 29.3276C11.91 29.5845 12.1174 29.7931 12.3737 29.7936L13.5242 29.7962C13.7806 29.7968 13.9887 29.5889 13.9891 29.332L14.0034 19.4151C14.0035 19.3063 14.1486 19.2695 14.2004 19.3653L18.9091 28.0732C19.0314 28.2993 19.3131 28.3824 19.5381 28.2587L20.5487 27.703C20.7732 27.5796 20.8561 27.2969 20.7342 27.0713L14.4158 15.3866C14.2464 15.0735 14.2469 14.6957 14.417 14.3831L20.7712 2.70322C20.8938 2.47769 20.8109 2.19516 20.5859 2.07216L19.5777 1.52109C19.3527 1.39808 19.0708 1.48121 18.9481 1.70676L14.2133 10.4101C14.1612 10.5057 14.0162 10.4686 14.0164 10.3596L14.0306 0.468565C14.031 0.211727 13.8236 0.00308899 13.5673 0.00252756L12.4168 1.13466e-06C12.1604 -0.000560294 11.9522 0.207295 11.9519 0.46422L11.9376 10.3895C11.9375 10.4984 11.7924 10.5351 11.7406 10.4394L7.02897 1.72617C6.90674 1.50006 6.62495 1.41696 6.39998 1.54068L5.38938 2.09639Z" fill="#B9C8DE"/>
<path d="M19.4035 10.7636C17.1437 13.0286 17.138 16.6959 19.3921 18.955L24.2976 23.8713C24.4788 24.053 24.7727 24.053 24.9539 23.8713L25.7693 23.0541C25.9505 22.8725 25.9505 22.578 25.7693 22.3963L20.8638 17.48C19.4211 16.0341 19.424 13.6858 20.8716 12.235L25.7617 7.33414C25.9429 7.15249 25.9429 6.85797 25.7617 6.67633L24.9499 5.8628C24.7687 5.68115 24.4748 5.68115 24.2936 5.8628L19.4035 10.7636Z" fill="#B9C8DE"/>
<path d="M105.483 6.66992H102.389V23.6384H105.483V6.66992Z" fill="#B9C8DE"/>
<path d="M40.2285 9.62879H46.598V23.6384H49.7226V9.62879H56.0921V6.66992H40.2285V9.62879Z" fill="#B9C8DE"/>
<path d="M67.4194 6.21875C62.1916 6.21875 57.8652 9.50981 57.8652 15.1257C57.8652 20.7415 62.1916 23.9722 67.4194 23.9722C72.6468 23.9722 76.9736 20.5302 76.9736 15.1257C76.9736 9.7211 72.6774 6.21875 67.4194 6.21875ZM67.4194 21.3454C63.8441 21.3454 60.9297 18.9904 60.9297 15.1257C60.9297 11.261 63.8441 8.84553 67.4194 8.84553C70.9947 8.84553 73.909 11.1704 73.909 15.1257C73.909 19.081 71.0247 21.3454 67.4194 21.3454Z" fill="#B9C8DE"/>
<path d="M95.9007 15.6992C96.7723 14.884 97.433 13.6763 97.433 11.8647C97.433 6.42998 92.3856 6.67153 91.5446 6.67153H84.0933H81.4798H80.9688V23.6399H84.0633V17.3296H91.5147C92.4455 17.3296 94.5187 17.3296 94.5187 20.0772V23.6098H97.6133V19.6243C97.6432 17.6919 96.8621 16.4842 95.9007 15.6992ZM84.0933 14.3707V9.63043H91.5446C91.9052 9.63043 94.4888 9.50965 94.4888 12.0761C94.4888 14.1594 92.6864 14.3707 91.7249 14.4009C91.6344 14.4009 91.5745 14.4009 91.5745 14.4009H84.0933V14.3707Z" fill="#B9C8DE"/>
<path d="M125.103 17.6317C124.142 20.0471 121.828 21.3454 119.064 21.3454C115.489 21.3454 112.574 18.9904 112.574 15.1257C112.574 11.261 115.489 8.84553 119.064 8.84553C121.678 8.84553 123.931 10.0835 124.953 12.3177H128.167C126.965 8.5436 123.3 6.21875 119.064 6.21875C113.806 6.21875 109.51 9.50981 109.51 15.1257C109.51 20.7415 113.836 23.9722 119.064 23.9722C123.45 23.9722 127.176 21.5567 128.287 17.6317H125.103Z" fill="#B9C8DE"/>
</svg>
