<svg width="181" height="42" viewBox="0 0 181 42" fill="none" xmlns="http://www.w3.org/2000/svg">
<path d="M0.504202 9.49685C0.249901 9.75115 0.249902 10.1635 0.504203 10.4178L7.38711 17.3007C9.41141 19.325 9.40726 22.6125 7.37612 24.6437L0.514902 31.5049C0.2606 31.7592 0.260603 32.1715 0.514903 32.4258L1.65385 33.5648C1.90815 33.8191 2.32045 33.8191 2.57475 33.5648L9.43597 26.7035C12.6068 23.5327 12.6148 18.3984 9.45208 15.2357L2.56918 8.35279C2.31487 8.09849 1.90257 8.09848 1.64827 8.35279L0.504202 9.49685Z" fill="black"/>
<path d="M7.87499 3.07765C7.56005 3.25044 7.44362 3.64614 7.61478 3.96197L16.4582 20.2802C16.6958 20.7185 16.6951 21.2473 16.4565 21.6851L7.53155 38.0541C7.3594 38.3699 7.47578 38.7654 7.7915 38.9376L9.20608 39.7091C9.52182 39.8813 9.91735 39.765 10.0895 39.4492L16.7684 27.1994C16.8415 27.0655 17.0449 27.1176 17.0447 27.2701L17.0246 41.2014C17.0241 41.561 17.3151 41.8531 17.6747 41.8538L19.289 41.8574C19.6487 41.8582 19.9407 41.5672 19.9413 41.2075L19.9613 27.3239C19.9615 27.1715 20.165 27.12 20.2377 27.2541L26.8445 39.4452C27.0161 39.7617 27.4114 39.8781 27.7271 39.7049L29.1451 38.9269C29.46 38.7541 29.5764 38.3584 29.4053 38.0425L20.5399 21.6839C20.3023 21.2456 20.303 20.7167 20.5417 20.279L29.4572 3.92721C29.6293 3.61147 29.5129 3.21592 29.1972 3.04373L27.7826 2.27222C27.4669 2.10001 27.0714 2.21639 26.8992 2.53216L20.2558 14.7168C20.1827 14.8507 19.9793 14.7987 19.9795 14.6462L19.9995 0.798692C20 0.439118 19.709 0.147025 19.3494 0.146239L17.7351 0.142702C17.3754 0.141916 17.0833 0.432913 17.0828 0.792608L17.0628 14.688C17.0626 14.8405 16.8591 14.8919 16.7864 14.7579L10.1755 2.55934C10.004 2.24279 9.60861 2.12645 9.29296 2.29965L7.87499 3.07765Z" fill="black"/>
<path d="M27.5371 15.2108C24.3663 18.3817 24.3583 23.516 27.521 26.6787L34.4039 33.5616C34.6582 33.8159 35.0705 33.8159 35.3248 33.5616L36.4689 32.4175C36.7232 32.1632 36.7232 31.7509 36.4689 31.4966L29.586 24.6137C27.5617 22.5894 27.5658 19.3018 29.5969 17.2707L36.4582 10.4095C36.7125 10.1552 36.7125 9.74287 36.4582 9.48857L35.3192 8.34963C35.0649 8.09532 34.6526 8.09532 34.3983 8.34963L27.5371 15.2108Z" fill="black"/>
<path d="M148.317 9.48108H143.975V33.2369H148.317V9.48108Z" fill="black"/>
<path d="M56.7568 13.6235H65.6938V33.2369H70.078V13.6235H79.015V9.48108H56.7568V13.6235Z" fill="black"/>
<path d="M94.9074 8.84741C87.5723 8.84741 81.502 13.4549 81.502 21.3171C81.502 29.1793 87.5723 33.7022 94.9074 33.7022C102.242 33.7022 108.313 28.8834 108.313 21.3171C108.313 13.7507 102.285 8.84741 94.9074 8.84741ZM94.9074 30.0247C89.8909 30.0247 85.8018 26.7277 85.8018 21.3171C85.8018 15.9065 89.8909 12.5249 94.9074 12.5249C99.9239 12.5249 104.013 15.7797 104.013 21.3171C104.013 26.8545 99.9661 30.0247 94.9074 30.0247Z" fill="black"/>
<path d="M134.872 22.1199C136.095 20.9786 137.022 19.2878 137.022 16.7516C137.022 9.14297 129.94 9.48114 128.76 9.48114H118.305H114.638H113.921V33.2369H118.263V24.4025H128.718C130.024 24.4025 132.933 24.4025 132.933 28.2491V33.1947H137.275V27.615C137.317 24.9097 136.221 23.2189 134.872 22.1199ZM118.305 20.26V13.6236H128.76C129.266 13.6236 132.891 13.4545 132.891 17.0475C132.891 19.9641 130.362 20.26 129.013 20.3023C128.886 20.3023 128.802 20.3023 128.802 20.3023H118.305V20.26Z" fill="black"/>
<path d="M175.846 24.8255C174.497 28.2071 171.251 30.0247 167.372 30.0247C162.356 30.0247 158.267 26.7277 158.267 21.3171C158.267 15.9065 162.356 12.5249 167.372 12.5249C171.04 12.5249 174.201 14.258 175.635 17.386H180.145C178.459 12.1022 173.316 8.84741 167.372 8.84741C159.995 8.84741 153.967 13.4549 153.967 21.3171C153.967 29.1793 160.037 33.7022 167.372 33.7022C173.527 33.7022 178.754 30.3206 180.314 24.8255H175.846Z" fill="black"/>
</svg>
