<svg width="86" height="30" viewBox="0 0 86 30" fill="none" xmlns="http://www.w3.org/2000/svg">
<mask id="mask0_1149_1740" style="mask-type:luminance" maskUnits="userSpaceOnUse" x="0" y="0" width="86" height="30">
<path d="M85.7773 0H0.777344V30H85.7773V0Z" fill="white"/>
</mask>
<g mask="url(#mask0_1149_1740)">
<path d="M14.3615 15.9062H7.9235L7.01758 18.4825H15.2935L14.3615 15.9062Z" fill="#B9C8DE"/>
<path d="M7.25098 18.4823L12.6716 5.87109H12.6679H9.43563L2.49023 23.2786H5.55844L7.25098 18.4823Z" fill="#B9C8DE"/>
<path d="M19.6208 23.2748L12.6717 5.87109H9.43945L14.8862 18.4786L16.5526 23.2748H19.6208Z" fill="#B9C8DE"/>
<mask id="mask1_1149_1740" style="mask-type:alpha" maskUnits="userSpaceOnUse" x="11" y="3" width="75" height="27">
<path d="M85.1246 3.44531V29.6248H21.561L11.6816 3.44531H85.1246Z" fill="#121212"/>
</mask>
<g mask="url(#mask1_1149_1740)">
<path d="M23.3055 17.7861V9.96464H20.5859V18.1794C20.5859 19.8984 20.9998 21.2344 21.8187 22.1961L21.8982 22.2831C22.7293 23.1673 23.915 23.6136 25.4666 23.6136C26.3064 23.6136 27.103 23.4155 27.8574 23.0189C28.6123 22.622 29.1661 22.1151 29.5229 21.4999L29.5444 21.4625H29.8185V23.1942H32.3817V9.96464H29.6621V17.1565C29.6621 17.8492 29.5206 18.4985 29.2375 19.1035C28.954 19.7096 28.5457 20.2009 28.0131 20.5759L28.0116 20.577C27.4768 20.9356 26.8624 21.1141 26.1709 21.1141C25.3187 21.1141 24.6202 20.8366 24.083 20.2782L24.0819 20.2771C23.5599 19.7157 23.3055 18.8807 23.3055 17.7861ZM39.1761 12.5792C39.7888 12.2295 40.4636 12.0443 41.17 12.0443C42.2842 12.0443 43.2162 12.4365 43.9609 13.2205C44.7262 13.9903 45.1044 15.07 45.1044 16.4482C45.1044 17.3499 44.9287 18.1406 44.5744 18.8178L44.5741 18.8185C44.2203 19.4767 43.7416 19.9859 43.1379 20.3431L43.1364 20.3438C42.5338 20.6825 41.8778 20.852 41.17 20.852C40.4451 20.852 39.7803 20.6826 39.1775 20.3438L39.1761 20.3431C38.5724 19.9859 38.0937 19.4769 37.7399 18.8185C37.3851 18.1582 37.2092 17.3672 37.2092 16.4482C37.2092 15.5292 37.3851 14.7378 37.7399 14.0774C38.0936 13.4194 38.5722 12.919 39.1761 12.5792ZM43.0927 10.0878C42.374 9.72645 41.5597 9.54494 40.6483 9.54494C39.5496 9.54494 38.5285 9.83826 37.5839 10.4256L37.5832 10.426C36.6393 10.9957 35.8831 11.8074 35.3152 12.8634L35.3149 12.863C34.7651 13.8999 34.4896 15.0946 34.4896 16.4482C34.4896 17.8012 34.7652 19.0041 35.3149 20.0586L35.4235 20.2503C35.9779 21.1964 36.698 21.9358 37.5832 22.47C38.5279 23.0401 39.5491 23.325 40.6483 23.325C41.5199 23.325 42.29 23.1728 42.9604 22.8704L43.093 22.8081C43.8126 22.4461 44.3851 21.9558 44.812 21.3374L44.8343 21.3052H45.1044V22.6129C45.1044 23.9372 44.7531 24.9723 44.0411 25.7072C43.3458 26.4603 42.3766 26.8331 41.1437 26.8331C40.2955 26.8331 39.5503 26.6107 38.9108 26.164C38.3083 25.7485 37.8645 25.1977 37.5796 24.5137L34.9285 25.2672L35.0069 25.526L35.0783 25.7148C35.455 26.6502 36.1331 27.4673 37.1177 28.1655L37.3203 28.3002C38.3492 28.952 39.6222 29.2802 41.1437 29.2802C42.4376 29.2802 43.5735 29.0199 44.5522 28.5018C45.5469 27.9843 46.3188 27.2163 46.8682 26.1973C47.4172 25.1965 47.6938 23.9766 47.6938 22.5345V9.96464H45.1044V11.5911H44.8343C44.3894 10.9453 43.7905 10.4389 43.0927 10.0878ZM53.0054 17.7861V9.96464H50.2859V18.1794C50.2859 19.8984 50.6996 21.2344 51.5185 22.1961L51.598 22.2831C52.4291 23.1673 53.6149 23.6136 55.1666 23.6136C56.0063 23.6136 56.8029 23.4155 57.5574 23.0189C58.3123 22.622 58.866 22.1151 59.2228 21.4999L59.2443 21.4625H59.5184V23.1942H62.0816V9.96464H59.362V17.1565C59.362 17.8492 59.2205 18.4985 58.9374 19.1035C58.6539 19.7096 58.2456 20.2009 57.713 20.5759L57.7115 20.577C57.1767 20.9356 56.5622 21.1141 55.8707 21.1141C55.0185 21.1141 54.3202 20.8366 53.7829 20.2782L53.7818 20.2771C53.2599 19.7157 53.0054 18.8807 53.0054 17.7861ZM72.7456 10.2965C71.8191 9.79605 70.7448 9.54494 69.5208 9.54494C68.6085 9.54494 67.7665 9.70929 66.9941 10.0373L66.9926 10.038C66.2208 10.3485 65.6061 10.796 65.1456 11.3793C64.7046 11.9598 64.4837 12.6341 64.4837 13.405C64.4837 14.3999 64.8238 15.2193 65.5036 15.8689C66.1885 16.5232 67.0545 16.9811 68.1043 17.2408L69.6947 17.6343C70.5669 17.8448 71.2205 18.0921 71.6487 18.3793C72.0861 18.6725 72.3078 19.0804 72.3078 19.5962C72.3078 19.8623 72.244 20.0996 72.1139 20.3053C71.9839 20.5107 71.7905 20.6809 71.5383 20.8168L71.5365 20.8175C71.0367 21.069 70.4244 21.1929 69.7034 21.1929C68.96 21.1929 68.294 21.0056 67.7074 20.6301L67.7063 20.6298C67.1524 20.2642 66.7186 19.7384 66.4028 19.0569L63.8706 19.821L63.957 20.0677C64.3512 21.1022 65.0284 21.9561 65.9906 22.6302C66.9486 23.2838 68.1842 23.6136 69.7034 23.6136C70.7031 23.6136 71.615 23.4402 72.4394 23.0947C73.2636 22.7493 73.9041 22.2671 74.3643 21.6498L74.3647 21.6494C74.8413 21.0159 75.0798 20.2886 75.0798 19.465C75.0798 18.5052 74.7483 17.7027 74.0851 17.0527L74.0837 17.0513C73.4359 16.3825 72.4677 15.8805 71.1717 15.5503L69.2156 15.0516H69.2146C68.5672 14.8756 68.0703 14.6623 67.7292 14.4096L67.727 14.4081C67.38 14.1325 67.2033 13.779 67.2033 13.3526C67.2033 12.9005 67.4401 12.5376 67.8914 12.2651C68.3405 11.9941 68.8938 11.8607 69.547 11.8607C70.2257 11.8607 70.8041 11.9914 71.2785 12.257C71.7359 12.5132 72.0925 12.8926 72.3489 13.3922L74.8218 12.5917L74.7463 12.4103C74.336 11.4828 73.6703 10.779 72.7467 10.2972L72.7456 10.2965ZM81.1569 9.96428V5.80469H78.4373V9.96428H76.1162V12.3589H78.4373V19.3601C78.4373 20.639 78.8059 21.6412 79.5366 22.3762C79.8579 22.682 80.2742 22.9304 80.7877 23.1198C81.3005 23.3089 81.8482 23.4034 82.4312 23.4034C82.8398 23.4034 83.3316 23.4038 83.7212 23.4039H84.3237V20.8523C84.1164 20.8523 83.9088 20.8526 83.7015 20.8523C83.4694 20.8521 83.237 20.8516 83.0049 20.8516C82.3537 20.8516 81.8757 20.6752 81.5943 20.3031C81.2964 19.9845 81.1569 19.453 81.1569 18.7302V12.3589H84.3908V9.96428H81.1569Z" fill="#B9C8DE"/>
</g>
</g>
</svg>
