<svg xmlns:xlink="http://www.w3.org/1999/xlink"  xmlns="http://www.w3.org/2000/svg" viewBox="0 0 228 80" width="228" height="80" preserveAspectRatio="xMidYMid slice" style="width: 100%; height: 100%; transform: translate3d(0px, 0px, 0px);"><defs><clipPath id="__lottie_element_2"><rect width="228" height="80" x="0" y="0"></rect></clipPath><mask id="__lottie_element_3" mask-type="alpha"><g transform="matrix(1,0,0,1,114,40)" opacity="1" style="display: block;"><g opacity="1" transform="matrix(1,0,0,1,18.125,-1.156000018119812)"><path fill="rgb(18,18,18)" fill-opacity="1" d=" M94.125,-29.6560001373291 C94.125,-29.6560001373291 94.125,40.15599822998047 94.125,40.15599822998047 C94.125,40.15599822998047 -76.375,40.15599822998047 -76.375,40.15599822998047 C-76.375,40.15599822998047 -102.875,-29.6560001373291 -102.875,-29.6560001373291 C-102.875,-29.6560001373291 94.125,-29.6560001373291 94.125,-29.6560001373291z"></path></g></g></mask></defs><g clip-path="url(#__lottie_element_2)"><g transform="matrix(1,0,0,1,27.604999542236328,45.849998474121094)" opacity="1" style="display: block;"><g opacity="1" transform="matrix(1,0,0,1,0,0)"><path fill="rgb(18,18,18)" fill-opacity="1" d=" M8.833999633789062,-3.434999942779541 C8.833999633789062,-3.434999942779541 -8.4350004196167,-3.434999942779541 -8.4350004196167,-3.434999942779541 C-8.4350004196167,-3.434999942779541 -10.864999771118164,3.434999942779541 -10.864999771118164,3.434999942779541 C-10.864999771118164,3.434999942779541 11.333999633789062,3.434999942779541 11.333999633789062,3.434999942779541 C11.333999633789062,3.434999942779541 8.833999633789062,-3.434999942779541 8.833999633789062,-3.434999942779541z"></path></g></g><g transform="matrix(1,0,0,1,18.25,38.8650016784668)" opacity="1" style="display: block;"><g opacity="1" transform="matrix(1,0,0,1,0,0)"><path fill="rgb(18,18,18)" fill-opacity="1" d=" M-0.8849999904632568,10.420000076293945 C-0.8849999904632568,10.420000076293945 13.654999732971191,-23.209999084472656 13.654999732971191,-23.209999084472656 C13.654999732971191,-23.209999084472656 13.645000457763672,-23.209999084472656 13.645000457763672,-23.209999084472656 C13.645000457763672,-23.209999084472656 4.974999904632568,-23.209999084472656 4.974999904632568,-23.209999084472656 C4.974999904632568,-23.209999084472656 -13.654999732971191,23.209999084472656 -13.654999732971191,23.209999084472656 C-13.654999732971191,23.209999084472656 -5.425000190734863,23.209999084472656 -5.425000190734863,23.209999084472656 C-5.425000190734863,23.209999084472656 -0.8849999904632568,10.420000076293945 -0.8849999904632568,10.420000076293945z"></path></g></g><g transform="matrix(1,0,0,1,36.88999938964844,38.86000061035156)" opacity="1" style="display: block;"><g opacity="1" transform="matrix(1,0,0,1,0,0)"><path fill="rgb(18,18,18)" fill-opacity="1" d=" M13.654999732971191,23.204999923706055 C13.654999732971191,23.204999923706055 -4.985000133514404,-23.204999923706055 -4.985000133514404,-23.204999923706055 C-4.985000133514404,-23.204999923706055 -13.654999732971191,-23.204999923706055 -13.654999732971191,-23.204999923706055 C-13.654999732971191,-23.204999923706055 0.9549999833106995,10.414999961853027 0.9549999833106995,10.414999961853027 C0.9549999833106995,10.414999961853027 5.425000190734863,23.204999923706055 5.425000190734863,23.204999923706055 C5.425000190734863,23.204999923706055 13.654999732971191,23.204999923706055 13.654999732971191,23.204999923706055z"></path></g></g><g transform="matrix(1,0,0,1,27.56999969482422,33.47999954223633)" opacity="1" style="display: block;"><g opacity="1" transform="matrix(1,0,0,1,0,0)"><path fill="rgb(255,255,255)" fill-opacity="1" d=" M-2.875,-3.015000104904175 C-2.875,-3.015000104904175 -0.3449999988079071,-8.9350004196167 -0.3449999988079071,-8.9350004196167 C-0.3449999988079071,-8.9350004196167 0.33500000834465027,-8.9350004196167 0.33500000834465027,-8.9350004196167 C0.33500000834465027,-8.9350004196167 2.875,-3.015000104904175 2.875,-3.015000104904175 C2.875,-3.015000104904175 2.875,-3.005000114440918 2.875,-3.005000114440918 C2.875,-3.005000114440918 7.775000095367432,8.9350004196167 7.775000095367432,8.9350004196167 C7.775000095367432,8.9350004196167 -7.775000095367432,8.9350004196167 -7.775000095367432,8.9350004196167 C-7.775000095367432,8.9350004196167 -2.875,-3.005000114440918 -2.875,-3.005000114440918 C-2.875,-3.005000114440918 -2.875,-3.015000104904175 -2.875,-3.015000104904175z"></path></g></g><g transform="matrix(1.004483938217163,0,0,1.004483938217163,39.43767166137695,38.5)" opacity="1" style="display: none;"><g opacity="1" transform="matrix(1,0,0,1,0,0)"><path fill="rgb(18,18,18)" fill-opacity="1" d=" M9.65926742553711,-23.802337646484375 C10.395267486572266,-23.802337646484375 10.992267608642578,-23.20433807373047 10.992267608642578,-22.468338012695312 C10.992267608642578,-22.468338012695312 13.558367729187012,-1.8311553001403809 13.558367729187012,-1.8311553001403809 C13.558367729187012,-0.3581553101539612 13.061580657958984,0.5964862704277039 14.53458023071289,0.5964862704277039 C14.53458023071289,0.5964862704277039 18.179317474365234,0.8352081179618835 18.179317474365234,0.8352081179618835 C18.915315628051758,0.8352081179618835 19.51231575012207,1.4328447580337524 19.51231575012207,2.168844699859619 C19.51231575012207,2.168844699859619 21.660812377929688,23.284448623657227 21.660812377929688,23.284448623657227 C21.660812377929688,24.020448684692383 19.313186645507812,24.299516677856445 18.577186584472656,24.299516677856445 C18.577186584472656,24.299516677856445 15.8290433883667,24.326251983642578 15.8290433883667,24.326251983642578 C11.695818901062012,24.332618713378906 8.283616065979004,19.70261573791504 8.283616065979004,10.865616798400879 C8.283616065979004,10.865616798400879 4.384492874145508,-7.852932929992676 4.384492874145508,-7.852932929992676 C4.384492874145508,-9.1719331741333 2.5153450965881348,-8.695576667785645 1.783345103263855,-7.597577095031738 C1.783345103263855,-7.597577095031738 -14.168121337890625,18.069562911987305 -14.168121337890625,18.069562911987305 C-17.135120391845703,22.52056312561035 -19.680879592895508,23.934749603271484 -22.169401168823242,23.9213809967041 C-22.169401168823242,23.9213809967041 -32.14222717285156,23.881912231445312 -32.14222717285156,23.881912231445312 C-33.22122573852539,23.881912231445312 -33.86341094970703,22.8175106048584 -32.51805877685547,21.067747116088867 C-32.51805877685547,21.067747116088867 -8.194845199584961,-16.022451400756836 -8.194845199584961,-16.022451400756836 C-5.200845241546631,-20.299449920654297 -4.2865424156188965,-23.324893951416016 0.9344577789306641,-23.324893951416016 C0.9344577789306641,-23.324893951416016 9.65926742553711,-23.802337646484375 9.65926742553711,-23.802337646484375z"></path></g></g><g mask="url(#__lottie_element_3)" style="display: block;"><g transform="matrix(1.649999976158142,0,0,1.649999976158142,114.41500091552734,46.733001708984375)" opacity="1"><g opacity="1" transform="matrix(0.1899999976158142,0,0,0.1899999976158142,0,0)"><path fill="rgb(18,18,18)" fill-opacity="1" d=" M-172.2010040283203,2.2300000190734863 C-172.2010040283203,2.2300000190734863 -172.2010040283203,-64.30000305175781 -172.2010040283203,-64.30000305175781 C-172.2010040283203,-64.30000305175781 -195.47000122070312,-64.30000305175781 -195.47000122070312,-64.30000305175781 C-195.47000122070312,-64.30000305175781 -195.47000122070312,5.576000213623047 -195.47000122070312,5.576000213623047 C-195.47000122070312,20.197999954223633 -191.9290008544922,31.562000274658203 -184.9219970703125,39.742000579833984 C-184.9219970703125,39.742000579833984 -184.24200439453125,40.481998443603516 -184.24200439453125,40.481998443603516 C-177.13099670410156,48.00299835205078 -166.98599243164062,51.79999923706055 -153.7100067138672,51.79999923706055 C-146.52499389648438,51.79999923706055 -139.70899963378906,50.1150016784668 -133.25399780273438,46.74100112915039 C-126.79499816894531,43.3650016784668 -122.05699920654297,39.053001403808594 -119.00399780273438,33.81999969482422 C-119.00399780273438,33.81999969482422 -118.81999969482422,33.50199890136719 -118.81999969482422,33.50199890136719 C-118.81999969482422,33.50199890136719 -116.4749984741211,33.50199890136719 -116.4749984741211,33.50199890136719 C-116.4749984741211,33.50199890136719 -116.4749984741211,48.231998443603516 -116.4749984741211,48.231998443603516 C-116.4749984741211,48.231998443603516 -94.54399871826172,48.231998443603516 -94.54399871826172,48.231998443603516 C-94.54399871826172,48.231998443603516 -94.54399871826172,-64.30000305175781 -94.54399871826172,-64.30000305175781 C-94.54399871826172,-64.30000305175781 -117.81300354003906,-64.30000305175781 -117.81300354003906,-64.30000305175781 C-117.81300354003906,-64.30000305175781 -117.81300354003906,-3.125 -117.81300354003906,-3.125 C-117.81300354003906,2.7669999599456787 -119.02400207519531,8.289999961853027 -121.44599914550781,13.435999870300293 C-123.87200164794922,18.591999053955078 -127.36499786376953,22.770999908447266 -131.9219970703125,25.961000442504883 C-131.9219970703125,25.961000442504883 -131.93499755859375,25.969999313354492 -131.93499755859375,25.969999313354492 C-136.51100158691406,29.020000457763672 -141.76800537109375,30.538999557495117 -147.6840057373047,30.538999557495117 C-154.9759979248047,30.538999557495117 -160.95199584960938,28.17799949645996 -165.5489959716797,23.42799949645996 C-165.5489959716797,23.42799949645996 -165.55799865722656,23.41900062561035 -165.55799865722656,23.41900062561035 C-170.0240020751953,18.643999099731445 -172.2010040283203,11.541000366210938 -172.2010040283203,2.2300000190734863z M-36.40999984741211,-42.060001373291016 C-31.16699981689453,-45.03499984741211 -25.393999099731445,-46.61000061035156 -19.350000381469727,-46.61000061035156 C-9.815999984741211,-46.61000061035156 -1.8420000076293945,-43.27399826049805 4.53000020980835,-36.60499954223633 C11.07800006866455,-30.05699920654297 14.314000129699707,-20.87299919128418 14.314000129699707,-9.149999618530273 C14.314000129699707,-1.4800000190734863 12.8100004196167,5.245999813079834 9.779000282287598,11.005999565124512 C9.779000282287598,11.005999565124512 9.776000022888184,11.01200008392334 9.776000022888184,11.01200008392334 C6.749000072479248,16.611000061035156 2.6530001163482666,20.941999435424805 -2.51200008392334,23.979999542236328 C-2.51200008392334,23.979999542236328 -2.5250000953674316,23.986000061035156 -2.5250000953674316,23.986000061035156 C-7.681000232696533,26.867000579833984 -13.293999671936035,28.30900001525879 -19.350000381469727,28.30900001525879 C-25.552000045776367,28.30900001525879 -31.239999771118164,26.868000030517578 -36.39799880981445,23.986000061035156 C-36.39799880981445,23.986000061035156 -36.40999984741211,23.979999542236328 -36.40999984741211,23.979999542236328 C-41.57500076293945,20.941999435424805 -45.67100143432617,16.61199951171875 -48.698001861572266,11.01200008392334 C-51.73400115966797,5.394999980926514 -53.23899841308594,-1.3329999446868896 -53.23899841308594,-9.149999618530273 C-53.23899841308594,-16.966999053955078 -51.73400115966797,-23.698999404907227 -48.698001861572266,-29.31599998474121 C-45.672000885009766,-34.91299819946289 -41.57699966430664,-39.16999816894531 -36.40999984741211,-42.060001373291016z M-2.8989999294281006,-63.25199890136719 C-9.04800033569336,-66.32599639892578 -16.014999389648438,-67.87000274658203 -23.812999725341797,-67.87000274658203 C-33.2140007019043,-67.87000274658203 -41.95100021362305,-65.375 -50.03300094604492,-60.37900161743164 C-50.03300094604492,-60.37900161743164 -50.03900146484375,-60.375999450683594 -50.03900146484375,-60.375999450683594 C-58.1150016784668,-55.529998779296875 -64.58499908447266,-48.625 -69.44400024414062,-39.643001556396484 C-69.44400024414062,-39.643001556396484 -69.4469985961914,-39.645999908447266 -69.4469985961914,-39.645999908447266 C-74.1510009765625,-30.826000213623047 -76.50800323486328,-20.663999557495117 -76.50800323486328,-9.149999618530273 C-76.50800323486328,2.3589999675750732 -74.1500015258789,12.590999603271484 -69.4469985961914,21.559999465942383 C-69.4469985961914,21.559999465942383 -68.51799774169922,23.19099998474121 -68.51799774169922,23.19099998474121 C-63.77399826049805,31.23900032043457 -57.612998962402344,37.52799987792969 -50.03900146484375,42.071998596191406 C-41.95600128173828,46.92100143432617 -33.21799850463867,49.345001220703125 -23.812999725341797,49.345001220703125 C-16.356000900268555,49.345001220703125 -9.767000198364258,48.04999923706055 -4.031000137329102,45.47800064086914 C-4.031000137329102,45.47800064086914 -2.8959999084472656,44.948001861572266 -2.8959999084472656,44.948001861572266 C3.260999917984009,41.86899948120117 8.159000396728516,37.698001861572266 11.812000274658203,32.4379997253418 C11.812000274658203,32.4379997253418 12.003000259399414,32.16400146484375 12.003000259399414,32.16400146484375 C12.003000259399414,32.16400146484375 14.314000129699707,32.16400146484375 14.314000129699707,32.16400146484375 C14.314000129699707,32.16400146484375 14.314000129699707,43.28799819946289 14.314000129699707,43.28799819946289 C14.314000129699707,54.551998138427734 11.307999610900879,63.356998443603516 5.216000080108643,69.60800170898438 C-0.7329999804496765,76.01399993896484 -9.026000022888184,79.18499755859375 -19.575000762939453,79.18499755859375 C-26.832000732421875,79.18499755859375 -33.20800018310547,77.29299926757812 -38.68000030517578,73.49400329589844 C-43.834999084472656,69.95899963378906 -47.63199996948242,65.27400207519531 -50.06999969482422,59.45600128173828 C-50.06999969482422,59.45600128173828 -72.75299835205078,65.86499786376953 -72.75299835205078,65.86499786376953 C-72.75299835205078,65.86499786376953 -72.08200073242188,68.06700134277344 -72.08200073242188,68.06700134277344 C-72.08200073242188,68.06700134277344 -71.47100067138672,69.6729965209961 -71.47100067138672,69.6729965209961 C-68.24800109863281,77.62899780273438 -62.44599914550781,84.58000183105469 -54.02199935913086,90.51899719238281 C-54.02199935913086,90.51899719238281 -52.28799819946289,91.66400146484375 -52.28799819946289,91.66400146484375 C-43.48500061035156,97.20899963378906 -32.59299850463867,100 -19.575000762939453,100 C-8.503999710083008,100 1.215000033378601,97.78600311279297 9.58899974822998,93.37899780273438 C18.100000381469727,88.97699737548828 24.70400047302246,82.44499969482422 29.405000686645508,73.7770004272461 C34.10200119018555,65.26399993896484 36.46900177001953,54.887001037597656 36.46900177001953,42.62099838256836 C36.46900177001953,42.62099838256836 36.46900177001953,-64.30000305175781 36.46900177001953,-64.30000305175781 C36.46900177001953,-64.30000305175781 14.314000129699707,-64.30000305175781 14.314000129699707,-64.30000305175781 C14.314000129699707,-64.30000305175781 14.314000129699707,-50.46500015258789 14.314000129699707,-50.46500015258789 C14.314000129699707,-50.46500015258789 12.003000259399414,-50.46500015258789 12.003000259399414,-50.46500015258789 C8.196000099182129,-55.95800018310547 3.072000026702881,-60.26599884033203 -2.8989999294281006,-63.25199890136719z M81.91600036621094,2.2300000190734863 C81.91600036621094,2.2300000190734863 81.91600036621094,-64.30000305175781 81.91600036621094,-64.30000305175781 C81.91600036621094,-64.30000305175781 58.64699935913086,-64.30000305175781 58.64699935913086,-64.30000305175781 C58.64699935913086,-64.30000305175781 58.64699935913086,5.576000213623047 58.64699935913086,5.576000213623047 C58.64699935913086,20.197999954223633 62.1870002746582,31.562000274658203 69.19400024414062,39.742000579833984 C69.19400024414062,39.742000579833984 69.8740005493164,40.481998443603516 69.8740005493164,40.481998443603516 C76.98500061035156,48.00299835205078 87.13099670410156,51.79999923706055 100.40699768066406,51.79999923706055 C107.59200286865234,51.79999923706055 114.40799713134766,50.1150016784668 120.86299896240234,46.74100112915039 C127.3219985961914,43.3650016784668 132.05999755859375,39.053001403808594 135.11300659179688,33.81999969482422 C135.11300659179688,33.81999969482422 135.2969970703125,33.50199890136719 135.2969970703125,33.50199890136719 C135.2969970703125,33.50199890136719 137.64199829101562,33.50199890136719 137.64199829101562,33.50199890136719 C137.64199829101562,33.50199890136719 137.64199829101562,48.231998443603516 137.64199829101562,48.231998443603516 C137.64199829101562,48.231998443603516 159.572998046875,48.231998443603516 159.572998046875,48.231998443603516 C159.572998046875,48.231998443603516 159.572998046875,-64.30000305175781 159.572998046875,-64.30000305175781 C159.572998046875,-64.30000305175781 136.3040008544922,-64.30000305175781 136.3040008544922,-64.30000305175781 C136.3040008544922,-64.30000305175781 136.3040008544922,-3.125 136.3040008544922,-3.125 C136.3040008544922,2.7669999599456787 135.09300231933594,8.289999961853027 132.67100524902344,13.435999870300293 C130.2449951171875,18.591999053955078 126.75199890136719,22.770999908447266 122.19499969482422,25.961000442504883 C122.19499969482422,25.961000442504883 122.18199920654297,25.969999313354492 122.18199920654297,25.969999313354492 C117.60600280761719,29.020000457763672 112.3479995727539,30.538999557495117 106.43199920654297,30.538999557495117 C99.13999938964844,30.538999557495117 93.16500091552734,28.17799949645996 88.56800079345703,23.42799949645996 C88.56800079345703,23.42799949645996 88.55899810791016,23.41900062561035 88.55899810791016,23.41900062561035 C84.09300231933594,18.643999099731445 81.91600036621094,11.541000366210938 81.91600036621094,2.2300000190734863z M250.8159942626953,-61.47700119018555 C242.88900756835938,-65.73400115966797 233.69700622558594,-67.87000274658203 223.2239990234375,-67.87000274658203 C215.41799926757812,-67.87000274658203 208.21400451660156,-66.47200012207031 201.60499572753906,-63.68199920654297 C201.60499572753906,-63.68199920654297 201.5919952392578,-63.67599868774414 201.5919952392578,-63.67599868774414 C194.98899841308594,-61.03499984741211 189.72900390625,-57.22800064086914 185.78900146484375,-52.266998291015625 C182.01600646972656,-47.32899856567383 180.12600708007812,-41.59299850463867 180.12600708007812,-35.0359992980957 C180.12600708007812,-26.572999954223633 183.03599548339844,-19.60300064086914 188.8520050048828,-14.07800006866455 C194.71200561523438,-8.51200008392334 202.1219940185547,-4.617000102996826 211.10400390625,-2.4079999923706055 C211.10400390625,-2.4079999923706055 224.71200561523438,0.9390000104904175 224.71200561523438,0.9390000104904175 C232.1750030517578,2.7300000190734863 237.76699829101562,4.833000183105469 241.43099975585938,7.276000022888184 C245.17300415039062,9.770000457763672 247.07000732421875,13.239999771118164 247.07000732421875,17.62700080871582 C247.07000732421875,19.891000747680664 246.5240020751953,21.909000396728516 245.41099548339844,23.659000396728516 C244.2989959716797,25.4060001373291 242.6439971923828,26.854000091552734 240.48599243164062,28.010000228881836 C240.48599243164062,28.010000228881836 240.4709930419922,28.016000747680664 240.4709930419922,28.016000747680664 C236.19400024414062,30.155000686645508 230.9550018310547,31.208999633789062 224.78599548339844,31.208999633789062 C218.42599487304688,31.208999633789062 212.7270050048828,29.615999221801758 207.70799255371094,26.422000885009766 C207.70799255371094,26.422000885009766 207.69900512695312,26.41900062561035 207.69900512695312,26.41900062561035 C202.9600067138672,23.30900001525879 199.2480010986328,18.836999893188477 196.54600524902344,13.039999961853027 C196.54600524902344,13.039999961853027 174.8800048828125,19.538999557495117 174.8800048828125,19.538999557495117 C174.8800048828125,19.538999557495117 175.61900329589844,21.63800048828125 175.61900329589844,21.63800048828125 C178.99200439453125,30.437000274658203 184.78599548339844,37.70100021362305 193.0189971923828,43.435001373291016 C201.21600341796875,48.99399948120117 211.78799438476562,51.79999923706055 224.78599548339844,51.79999923706055 C233.33999633789062,51.79999923706055 241.14199829101562,50.32500076293945 248.1959991455078,47.38600158691406 C255.2480010986328,44.448001861572266 260.7279968261719,40.34600067138672 264.6659851074219,35.095001220703125 C264.6659851074219,35.095001220703125 264.66900634765625,35.09199905395508 264.66900634765625,35.09199905395508 C268.74700927734375,29.702999114990234 270.7879943847656,23.517000198364258 270.7879943847656,16.51099967956543 C270.7879943847656,8.347000122070312 267.95098876953125,1.5210000276565552 262.2770080566406,-4.007999897003174 C262.2770080566406,-4.007999897003174 262.2650146484375,-4.019999980926514 262.2650146484375,-4.019999980926514 C256.72198486328125,-9.708999633789062 248.43800354003906,-13.979000091552734 237.3489990234375,-16.788000106811523 C237.3489990234375,-16.788000106811523 220.61300659179688,-21.030000686645508 220.61300659179688,-21.030000686645508 C220.61300659179688,-21.030000686645508 220.60400390625,-21.030000686645508 220.60400390625,-21.030000686645508 C215.06500244140625,-22.527000427246094 210.81300354003906,-24.340999603271484 207.89500427246094,-26.490999221801758 C207.89500427246094,-26.490999221801758 207.87600708007812,-26.503000259399414 207.87600708007812,-26.503000259399414 C204.90699768066406,-28.847999572753906 203.39500427246094,-31.854999542236328 203.39500427246094,-35.481998443603516 C203.39500427246094,-39.32699966430664 205.42100524902344,-42.41400146484375 209.2830047607422,-44.731998443603516 C213.125,-47.0369987487793 217.85899353027344,-48.172000885009766 223.447998046875,-48.172000885009766 C229.2550048828125,-48.172000885009766 234.20399475097656,-47.060001373291016 238.26300048828125,-44.80099868774414 C242.177001953125,-42.62200164794922 245.22799682617188,-39.39400100708008 247.4219970703125,-35.14500045776367 C247.4219970703125,-35.14500045776367 268.5799865722656,-41.95399856567383 268.5799865722656,-41.95399856567383 C268.5799865722656,-41.95399856567383 267.9339904785156,-43.49700164794922 267.9339904785156,-43.49700164794922 C264.42401123046875,-51.38600158691406 258.7279968261719,-57.37300109863281 250.8249969482422,-61.47100067138672 C250.8249969482422,-61.47100067138672 250.8159942626953,-61.47700119018555 250.8159942626953,-61.47700119018555z M322.78399658203125,-64.3030014038086 C322.78399658203125,-64.3030014038086 322.78399658203125,-99.68499755859375 322.78399658203125,-99.68499755859375 C322.78399658203125,-99.68499755859375 299.5150146484375,-99.68499755859375 299.5150146484375,-99.68499755859375 C299.5150146484375,-99.68499755859375 299.5150146484375,-64.3030014038086 299.5150146484375,-64.3030014038086 C299.5150146484375,-64.3030014038086 279.6549987792969,-64.3030014038086 279.6549987792969,-64.3030014038086 C279.6549987792969,-64.3030014038086 279.6549987792969,-43.933998107910156 279.6549987792969,-43.933998107910156 C279.6549987792969,-43.933998107910156 299.5150146484375,-43.933998107910156 299.5150146484375,-43.933998107910156 C299.5150146484375,-43.933998107910156 299.5150146484375,15.619000434875488 299.5150146484375,15.619000434875488 C299.5150146484375,26.496999740600586 302.66900634765625,35.02199935913086 308.9209899902344,41.27399826049805 C311.6700134277344,43.875 315.23199462890625,45.987998962402344 319.625,47.5989990234375 C324.01300048828125,49.20800018310547 328.6990051269531,50.012001037597656 333.68701171875,50.012001037597656 C337.1830139160156,50.012001037597656 341.3909912109375,50.01499938964844 344.7250061035156,50.01599884033203 C344.7250061035156,50.01599884033203 349.8800048828125,50.01599884033203 349.8800048828125,50.01599884033203 C349.8800048828125,50.01599884033203 349.8800048828125,28.312000274658203 349.8800048828125,28.312000274658203 C348.1059875488281,28.312000274658203 346.3299865722656,28.31399917602539 344.5559997558594,28.312000274658203 C342.57000732421875,28.309999465942383 340.5820007324219,28.305999755859375 338.59600830078125,28.305999755859375 C333.02398681640625,28.305999755859375 328.9339904785156,26.80500030517578 326.5270080566406,23.639999389648438 C323.9779968261719,20.93000030517578 322.78399658203125,16.409000396728516 322.78399658203125,10.26099967956543 C322.78399658203125,10.26099967956543 322.78399658203125,-43.933998107910156 322.78399658203125,-43.933998107910156 C322.78399658203125,-43.933998107910156 350.4540100097656,-43.933998107910156 350.4540100097656,-43.933998107910156 C350.4540100097656,-43.933998107910156 350.4540100097656,-64.3030014038086 350.4540100097656,-64.3030014038086 C350.4540100097656,-64.3030014038086 322.78399658203125,-64.3030014038086 322.78399658203125,-64.3030014038086z"></path></g></g></g></g></svg>