<?xml version="1.0" encoding="UTF-8"?>
<svg id="Layer_2" xmlns="http://www.w3.org/2000/svg" version="1.1" viewBox="0 0 520.2 72.5">
  <!-- Generator: Adobe Illustrator 29.7.1, SVG Export Plug-In . SVG Version: 2.1.1 Build 8)  -->
  <defs>
    <style>
      .st0 {
        fill: #b9c8de;
      }
    </style>
  </defs>
  <path class="st0" d="M49.4,1.5v69.6c0,.2-.2.4-.4.4h-11.7c-.2,0-.4-.2-.4-.4V18.1l-11.8,11.1c-.2.2-.5.2-.7,0l-11.8-11.1v53c0,.2-.2.4-.4.4H.4c-.2,0-.4-.2-.4-.4V1.5c0-.2.2-.4.4-.4h10.6c.4,0,.8.1,1.1.4l12.2,11.5c.2.2.5.2.7,0L37.4,1.5c.3-.3.7-.4,1-.4h10.5c.2,0,.4.2.4.4ZM188.1,21.1c0-2.2-.8-4-2.4-5.6-1.6-1.6-3.5-2.3-5.6-2.3h-7.1v46h6.2c2.5,0,4.6-.9,6.3-2.6,1.7-1.8,2.6-3.9,2.6-6.3v-29.1h0ZM161.2,71.4c-.2,0-.4-.2-.4-.4V1.6c0-.2.2-.4.4-.4h18.8c3.7-.2,7.1.7,10.2,2.5,3.1,1.8,5.5,4.3,7.3,7.3,1.8,3.1,2.7,6.5,2.7,10.2v29.1c0,3.9-.9,7.5-2.8,10.7-1.9,3.2-4.4,5.8-7.6,7.6-3.2,1.9-6.7,2.9-10.7,2.9h-17.9ZM248.4,71.5c.2,0,.4-.2.4-.4V1.5c0-.2-.2-.4-.4-.4h-11.5c-.2,0-.4.2-.4.4v69.6c0,.2.2.4.4.4h11.5ZM372.9,71.5c.2,0,.4-.2.4-.4V1.5c0-.2-.2-.4-.4-.4h-11.5c-.2,0-.4.2-.4.4v69.6c0,.2.2.4.4.4h11.5ZM448.5,1.5c0-.2-.2-.4-.4-.4h-11.1c-.2,0-.4.2-.4.4l.2,25-16.3-25.1c-.1-.2-.3-.3-.6-.3h-9c-.2,0-.4.2-.4.4v69.6c0,.2.2.4.4.4h11c.2,0,.4-.2.4-.4l-.7-48.2,14.9,21.7c0,.1.1.3.1.4v26.1c0,.2.2.4.4.4h11.1c.2,0,.4-.2.4-.4V1.5h0ZM90.3,30.1h-16.3c-.2,0-.4.2-.4.4v11.3c0,.2.2.4.4.4h16.3v28.8c0,.2.2.4.4.4h32.9c.2,0,.4-.2.4-.4v-11.6c0-.2-.2-.4-.4-.4h-21v-16.8h16.4c.2,0,.4-.2.4-.4v-11.3c0-.2-.2-.4-.4-.4h-16.4V13.3h20.7c.2,0,.4-.2.4-.4V1.5c0-.2-.2-.4-.4-.4h-32.5c-.2,0-.4.2-.4.4v28.6h0ZM486.5,71.1c0,.2.2.4.4.4h32.9c.2,0,.4-.2.4-.4v-11.6c0-.2-.2-.4-.4-.4h-21v-16.8h16.4c.2,0,.4-.2.4-.4v-11.3c0-.2-.2-.4-.4-.4h-16.4V13.3h20.7c.2,0,.4-.2.4-.4V1.5c0-.2-.2-.4-.4-.4h-32.5c-.2,0-.4.2-.4.4v69.5ZM324.8,46c0-.2-.2-.4-.4-.4h-11.4c-.2,0-.4.2-.4.4v6c0,2.2-.7,4.1-2.2,5.8-1.4,1.7-3.3,2.6-5.4,2.6s-3.9-.8-5.3-2.3c-1.4-1.5-2.2-3.6-2.2-6.1v-31.6c0-2.2.6-4.1,1.9-5.7,1.3-1.6,3.1-2.5,5.6-2.5s4,.8,5.4,2.4c1.4,1.6,2.2,3.5,2.2,5.8v5.8c0,.2.2.4.4.4h11.4c.2,0,.4-.2.4-.4v-5.8c0-3.8-1-7.2-2.7-10.3-1.8-3.1-4.1-5.5-7.1-7.3C312,.9,308.6,0,304.9,0s-7.1.9-10.1,2.8c-3,1.9-5.4,4.3-7.1,7.4-1.7,3.1-2.7,6.5-2.7,10.2v31.6c0,3.9.9,7.3,2.6,10.4,1.8,3.1,4.1,5.6,7.1,7.4,3,1.9,6.4,2.8,10.1,2.8s7.1-.9,10-2.8c3-1.9,5.3-4.3,7.1-7.4,1.8-3.1,2.7-6.6,2.7-10.4v-6h0Z"/>
</svg>