<svg xmlns="http://www.w3.org/2000/svg" viewBox="0 0 459.4 144"><defs><style>.cls-1{fill:#181e26;}</style></defs><g id="Layer_2" data-name="Layer 2"><g id="Layer_1-2" data-name="Layer 1"><rect class="cls-1" x="55.23" y="-19.51" width="11.45" height="160.95" transform="translate(60.96 -25.24) rotate(45)"/><circle class="cls-1" cx="19.05" cy="19.05" r="19.05"/><path class="cls-1" d="M204,123.38c-12.47,0-21.17-7.33-21.17-17.83,0-14.12,14.8-18.61,40.39-21.54v-.88c0-11.48-7-13.89-12.9-13.89-7.83,0-12.57,4.11-13,11.27l0,.6H185.5l.06-.69c1.05-13.57,13.17-20.67,24.6-20.67,8.31,0,14.3,2,18.33,6s6.11,10.46,6,19.26l-.11,13.75c-.1,9.38.39,16.5,1.54,22.4l.15.76H224.59l-.08-.54c-.27-1.78-.54-3.73-.7-6.33C219.68,120.66,213.17,123.38,204,123.38Zm20-30.1c-18.17,1.91-28.67,4.51-28.67,12,0,5.42,4.17,8.79,10.9,8.79s17.77-2.31,17.77-17.78Z"/><path class="cls-1" d="M277.56,123.38c-8.21,0-14.71-3.07-18.89-8.9v7.46H247.3V40.21h11.37V68.86C262.85,63,269.35,60,277.56,60c12.6,0,26.16,9.93,26.16,31.71S290.16,123.38,277.56,123.38ZM275,69.9c-8.11,0-16.78,5.72-16.78,21.77s8.67,21.77,16.78,21.77c10.14,0,16.45-8.34,16.45-21.77S285.15,69.9,275,69.9Z"/><path class="cls-1" d="M343.81,123.35c-8.21,0-14.72-3.07-18.89-8.9v7.45H313.55V40.18h11.37V68.83c4.17-5.83,10.68-8.9,18.89-8.9,12.6,0,26.16,9.92,26.16,31.71S356.41,123.35,343.81,123.35Zm-2.55-53.48c-8.11,0-16.78,5.72-16.78,21.77s8.67,21.77,16.78,21.77c10.14,0,16.45-8.34,16.45-21.77S351.4,69.87,341.26,69.87Z"/><rect class="cls-1" x="379.92" y="40.22" width="11.38" height="81.72"/><path class="cls-1" d="M431.14,123.38c-18.19,0-29.93-12.48-29.93-31.81C401.21,73,413.38,60,430.8,60A26.87,26.87,0,0,1,451,68.45c6,6.42,9,16,8.26,26.38l0,.59H413.39c.72,12.23,9.67,17.81,17.75,17.81,7.81,0,12.95-3.11,15.72-9.49l.17-.39h11.68l-.22.81C455.36,115.84,444.62,123.38,431.14,123.38Zm16.19-37.89c-.51-7.62-6.4-15.58-16.53-15.58-9.85,0-16.28,5.81-17.27,15.58Z"/><polygon class="cls-1" points="135.19 144 146.17 117.25 121.92 60.96 134.43 60.96 151.89 103.37 168.11 60.96 180.15 60.96 147.07 144 135.19 144"/></g></g></svg>