<svg width="97" height="30" viewBox="0 0 97 30" fill="none" xmlns="http://www.w3.org/2000/svg">
<path d="M26.2524 1.69065L24.5605 0.00390625L0.778117 23.7141L2.47 25.4008L26.2524 1.69065Z" fill="#B9C8DE"/>
<path d="M4.75819 7.9375C6.95675 7.9375 8.73903 6.16063 8.73903 3.96875C8.73903 1.77687 6.95675 0 4.75819 0C2.55963 0 0.777344 1.77687 0.777344 3.96875C0.777344 6.16063 2.55963 7.9375 4.75819 7.9375Z" fill="#B9C8DE"/>
<path d="M43.4063 25.7035C40.8004 25.7035 38.9824 24.1764 38.9824 21.9889C38.9824 19.0473 42.0752 18.1118 47.4226 17.5014V17.3181C47.4226 14.9264 45.9599 14.4243 44.727 14.4243C43.0907 14.4243 42.1002 15.2806 42.0104 16.7723V16.8973H39.5404L39.5529 16.7535C39.7723 13.9264 42.305 12.4473 44.6935 12.4473C46.43 12.4473 47.6818 12.8639 48.5239 13.6973C49.3661 14.5306 49.8007 15.8764 49.7777 17.7098L49.7547 20.5743C49.7338 22.5285 49.8362 24.0118 50.0765 25.241L50.1079 25.3993H47.7089L47.6922 25.2868C47.6358 24.916 47.5794 24.5098 47.5459 23.9681C46.6829 25.1368 45.3225 25.7035 43.4063 25.7035ZM47.5856 19.4327C43.7887 19.8306 41.5945 20.3723 41.5945 21.9327C41.5945 23.0618 42.4659 23.7639 43.8723 23.7639C45.2786 23.7639 47.5856 23.2827 47.5856 20.0598V19.4327Z" fill="#B9C8DE"/>
<path d="M58.7785 25.704C57.0628 25.704 55.7045 25.0645 54.831 23.8499V25.404H52.4551V8.37695H54.831V14.3457C55.7045 13.1249 57.0628 12.4999 58.7785 12.4999C61.4115 12.4999 64.2451 14.5686 64.2451 19.1061C64.2451 23.6436 61.4115 25.704 58.7785 25.704ZM58.2435 14.5624C56.5488 14.5624 54.737 15.754 54.737 19.0978C54.737 22.4415 56.5488 23.6332 58.2435 23.6332C60.3624 23.6332 61.681 21.8957 61.681 19.0978C61.681 16.2999 60.3645 14.5624 58.2435 14.5624Z" fill="#B9C8DE"/>
<path d="M72.6222 25.6982C70.9066 25.6982 69.5462 25.0586 68.6748 23.844V25.3961H66.2988V8.37109H68.6748V14.3398C69.5462 13.1253 70.9066 12.4857 72.6222 12.4857C75.2552 12.4857 78.0888 14.5523 78.0888 19.0919C78.0888 23.6315 75.2552 25.6982 72.6222 25.6982ZM72.0893 14.5565C70.3946 14.5565 68.5829 15.7482 68.5829 19.0919C68.5829 22.4357 70.3946 23.6273 72.0893 23.6273C74.2083 23.6273 75.5269 21.8898 75.5269 19.0919C75.5269 16.294 74.2083 14.5565 72.0893 14.5565Z" fill="#B9C8DE"/>
<path d="M82.546 8.37891H80.168V25.4039H82.546V8.37891Z" fill="#B9C8DE"/>
<path d="M90.8716 25.7038C87.0705 25.7038 84.6172 23.1038 84.6172 19.0767C84.6172 15.2079 87.1603 12.4996 90.8006 12.4996C91.5887 12.4812 92.3719 12.6284 93.0992 12.9317C93.8264 13.235 94.4815 13.6876 95.0217 14.26C96.2755 15.5975 96.9024 17.5933 96.7478 19.7558V19.8788H87.1624C87.3129 22.4267 89.1831 23.5892 90.8716 23.5892C92.5037 23.5892 93.5777 22.9413 94.1566 21.6121L94.1921 21.5308H96.6329L96.5869 21.6996C95.9328 24.1329 93.6885 25.7038 90.8716 25.7038ZM94.2548 17.81C94.1482 16.2225 92.9174 14.5642 90.8006 14.5642C88.7422 14.5642 87.3986 15.7746 87.1917 17.81H94.2548Z" fill="#B9C8DE"/>
<path d="M29.0269 29.9992L31.3214 24.4263L26.2539 12.6992H28.8681L32.5167 21.5346L35.9061 12.6992H38.4221L31.5095 29.9992H29.0269Z" fill="#B9C8DE"/>
</svg>
