<svg width="120" height="24" viewBox="0 0 120 24" fill="none" xmlns="http://www.w3.org/2000/svg">
<g id="AI21 Logo 1">
<g id="Clip path group">
<mask id="mask0_3950_880" style="mask-type:luminance" maskUnits="userSpaceOnUse" x="1" y="0" width="118" height="24">
<g id="clip0">
<path id="Vector" d="M118.908 0H1.08984V24H118.908V0Z" fill="white"/>
</g>
</mask>
<g mask="url(#mask0_3950_880)">
<g id="Group">
<path id="Vector_2" d="M16.6209 23.4327L15.7409 20.6609H7.62099L6.74059 23.4327H1.10156L9.25327 0.609131H14.1117L22.3612 23.4327H16.6209ZM11.6989 7.12926L8.89461 16.52H14.4379L11.6989 7.12926Z" fill="#1F2127"/>
<path id="Vector_3" d="M22.9883 0.609131H28.3357V23.4327H22.9883V0.609131Z" fill="#1F2127"/>
<path id="Vector_4" d="M29.7795 18.7697C30.0196 17.6428 30.4437 16.5632 31.0348 15.5743C31.5489 14.7385 32.1929 13.9901 32.9425 13.357C33.7083 12.7218 34.5202 12.1443 35.3715 11.6294C36.0451 11.2378 36.67 10.8627 37.2464 10.5043C37.7779 10.178 38.2847 9.81296 38.7626 9.4121C39.1753 9.06912 39.5232 8.65497 39.7898 8.18927C40.0444 7.72502 40.1736 7.20247 40.1647 6.67309C40.1647 5.7602 39.9148 5.10266 39.4149 4.70047C38.8848 4.2885 38.2273 4.07506 37.5563 4.09717C36.7927 4.07408 36.0501 4.34892 35.4856 4.86356C34.9313 5.37448 34.6542 6.2277 34.6542 7.42323H29.4043C29.3949 6.43009 29.5777 5.44452 29.9426 4.52079C30.2925 3.64199 30.8325 2.85144 31.5237 2.20575C32.2599 1.52916 33.125 1.00796 34.0672 0.673329C35.1771 0.285645 36.347 0.0978787 37.5224 0.118755C38.5312 0.114098 39.5356 0.25135 40.5061 0.526479C41.4088 0.777025 42.2554 1.19757 43.0005 1.76555C43.7325 2.33806 44.319 3.07539 44.7122 3.9175C45.1564 4.89419 45.3738 5.95876 45.348 7.0314C45.3597 7.93876 45.1469 8.83495 44.7284 9.64014C44.3277 10.406 43.8169 11.109 43.2123 11.7268C42.6219 12.3291 41.972 12.87 41.2725 13.3411C40.5761 13.8087 39.9456 14.2054 39.381 14.5311C38.5979 15.0529 37.9511 15.504 37.4409 15.8845C37.0031 16.2011 36.594 16.5556 36.2184 16.9439C35.9374 17.2322 35.7206 17.5768 35.5823 17.9549C35.4564 18.3444 35.3958 18.752 35.403 19.1612H45.1852V23.4326H29.3393C29.3114 21.8667 29.459 20.3027 29.7795 18.7697Z" fill="#1F2127"/>
<path id="Vector_5" d="M46.1953 4.61724C47.109 4.63586 48.022 4.55382 48.9178 4.37261C49.5161 4.25901 50.0799 4.00788 50.5646 3.63905C50.9535 3.31635 51.2373 2.88492 51.3797 2.39998C51.5426 1.81652 51.6195 1.21237 51.6077 0.606689H56.2723V23.4327H50.8925V8.33548H46.1953V4.61724Z" fill="#1F2127"/>
<path id="Vector_6" d="M62.3203 0.609131H67.3084V23.4327H62.3203V0.609131Z" fill="#E91E63"/>
<path id="Vector_7" d="M85.7295 7.70403V23.4207H80.7408V21.2028C80.5361 21.5845 80.2719 21.9312 79.9581 22.2297C79.6227 22.552 79.2442 22.8263 78.8334 23.0448C78.393 23.279 77.9282 23.4643 77.4475 23.5977C76.9597 23.737 76.4549 23.8083 75.9476 23.8095C74.8762 23.8217 73.8146 23.6049 72.8337 23.1737C71.9148 22.7692 71.0883 22.1813 70.4046 21.446C69.7137 20.6898 69.1815 19.8028 68.8394 18.8373C68.1004 16.7151 68.1004 14.4055 68.8394 12.2833C69.1815 11.3178 69.7137 10.4308 70.4046 9.67458C71.0883 8.93933 71.9148 8.35144 72.8337 7.94693C73.8149 7.51608 74.8768 7.29979 75.9483 7.31254C76.4556 7.31372 76.9604 7.38499 77.4482 7.52435C77.9312 7.65896 78.3965 7.85058 78.8341 8.09517C79.2459 8.3251 79.6243 8.61027 79.9588 8.94275C80.2645 9.24246 80.5278 9.58249 80.7414 9.95342V7.70403H85.7295ZM76.9911 19.5729C77.5199 19.581 78.0437 19.4696 78.5235 19.2471C78.968 19.0391 79.3672 18.7455 79.6983 18.3833C80.0322 18.0118 80.2923 17.5802 80.4647 17.1114C80.6502 16.6163 80.7439 16.0915 80.7411 15.5627C80.7487 14.5317 80.3773 13.5337 79.6976 12.7584C79.3701 12.388 78.9703 12.0884 78.5228 11.878C78.0405 11.6632 77.5184 11.5522 76.9904 11.5522C76.4624 11.5522 75.9403 11.6632 75.458 11.878C75.0106 12.0885 74.6108 12.3881 74.2832 12.7584C73.6038 13.5339 73.2326 14.5318 73.24 15.5627C73.2369 16.0915 73.3306 16.6164 73.5165 17.1114C73.6888 17.5801 73.9487 18.0118 74.2825 18.3833C74.6137 18.7454 75.0129 19.0389 75.4573 19.2471C75.9375 19.4699 76.4618 19.5813 76.9911 19.5729Z" fill="#E91E63"/>
<path id="Vector_8" d="M91.7899 23.4327H86.8008V0.609131H91.7899V9.96571C92.0036 9.59477 92.2669 9.25474 92.5726 8.95503C92.9105 8.61978 93.2944 8.33438 93.7128 8.10745C94.1522 7.86649 94.617 7.67504 95.0987 7.53664C95.5916 7.39502 96.102 7.32371 96.6149 7.32483C97.6863 7.31264 98.7479 7.5294 99.7288 7.9606C100.648 8.36519 101.475 8.95307 102.158 9.68825C102.849 10.4446 103.381 11.3316 103.724 12.297C104.462 14.4192 104.462 16.7288 103.724 18.851C103.381 19.8163 102.849 20.7034 102.158 21.4597C101.475 22.1949 100.648 22.7828 99.7288 23.1874C98.7479 23.6186 97.6863 23.8353 96.6149 23.8231C96.102 23.8243 95.5916 23.753 95.0987 23.6113C94.6193 23.4743 94.1549 23.2891 93.7128 23.0585C93.2956 22.8429 92.9116 22.5684 92.5726 22.2434C92.2588 21.9448 91.9946 21.5982 91.7899 21.2165V23.4327ZM95.5724 19.5849C96.0906 19.5906 96.6033 19.4793 97.0724 19.2591C97.5169 19.051 97.9161 18.7575 98.2472 18.3952C98.5811 18.0238 98.8412 17.5921 99.0136 17.1233C99.1991 16.6282 99.2927 16.1034 99.29 15.5747C99.2975 14.5436 98.9262 13.5457 98.2465 12.7704C97.9189 12.4 97.5192 12.1004 97.0717 11.89C96.6029 11.6696 96.0904 11.5576 95.5724 11.5624C95.0385 11.5558 94.5098 11.6671 94.0238 11.8882C93.5701 12.0955 93.1647 12.3954 92.8338 12.7686C92.1541 13.544 91.7827 14.5419 91.7903 15.5729C91.7874 16.1017 91.881 16.6265 92.0667 17.1216C92.2388 17.5905 92.499 18.0222 92.8331 18.3935C93.1676 18.7585 93.5724 19.0523 94.0231 19.2573C94.509 19.4795 95.0381 19.5914 95.5724 19.5849Z" fill="#E91E63"/>
<path id="Vector_9" d="M113.653 14.1721C114.348 14.3677 115 14.5796 115.609 14.8079C116.178 15.0152 116.716 15.3006 117.207 15.6558C117.659 15.9885 118.032 16.4172 118.299 16.9111C118.59 17.4977 118.73 18.1477 118.707 18.8022C118.734 19.6254 118.542 20.441 118.152 21.1663C117.781 21.809 117.254 22.3474 116.62 22.7316C115.922 23.1516 115.154 23.4441 114.354 23.5954C113.446 23.7736 112.523 23.8609 111.598 23.8559C109.359 23.8559 107.593 23.3669 106.3 22.3888C105.006 21.4106 104.621 20.0085 104.621 18.1823H109.251C109.251 19.0089 109.485 19.6012 109.952 19.9594C110.478 20.3364 111.115 20.5258 111.762 20.4974C112.278 20.5196 112.791 20.4014 113.245 20.1553C113.435 20.0384 113.588 19.8716 113.689 19.6731C113.789 19.4746 113.833 19.2521 113.816 19.0303C113.829 18.7638 113.742 18.5022 113.571 18.2967C113.358 18.0758 113.103 17.8986 112.821 17.775C112.399 17.5797 111.963 17.4162 111.517 17.2857C110.984 17.1226 110.348 16.9216 109.61 16.6827C108.958 16.4869 108.338 16.275 107.751 16.047C107.201 15.8385 106.68 15.5589 106.202 15.2153C105.757 14.8904 105.395 14.4661 105.143 13.9762C104.862 13.3863 104.728 12.7376 104.751 12.0848C104.751 10.4546 105.376 9.24824 106.626 8.46573C107.876 7.68323 109.566 7.29163 111.696 7.29094C112.706 7.27405 113.712 7.41155 114.68 7.69866C115.455 7.9259 116.176 8.30856 116.799 8.82336C117.342 9.28555 117.771 9.86562 118.055 10.5192C118.338 11.178 118.483 11.8885 118.479 12.6059H113.555C113.59 12.0541 113.408 11.5104 113.05 11.0897C112.843 10.8973 112.599 10.75 112.332 10.6574C112.065 10.5648 111.782 10.5288 111.501 10.5517C111.042 10.5405 110.59 10.6592 110.197 10.8941C110.016 11.0035 109.87 11.16 109.772 11.3468C109.674 11.5335 109.629 11.7434 109.642 11.9538C109.633 12.2128 109.727 12.4649 109.903 12.6549C110.123 12.8713 110.384 13.043 110.669 13.1604C111.078 13.3389 111.497 13.4913 111.925 13.6169C112.424 13.7701 113 13.9551 113.653 14.1721Z" fill="#E91E63"/>
</g>
</g>
</g>
</g>
</svg>
