<svg width="101" height="41" viewBox="0 0 101 41" fill="none" xmlns="http://www.w3.org/2000/svg">
<path d="M30.6325 29.9973H26.5153L30.0689 22.8168H30.1179L30.6325 29.9973ZM30.8286 33.2322L31.0737 36.075H35.583L34.088 19.4839H27.3731L18.8691 36.075H23.4765L24.8979 33.2322H30.8286Z" fill="#262262"/>
<path d="M41.906 28.821H42.5677L45.8026 24.4588H49.9688L45.5086 30.0463L48.2533 36.075H43.8176L42.0286 31.3697H41.3669L40.3621 36.075H36.5635L40.068 19.4839H43.8911L41.906 28.821Z" fill="#262262"/>
<path d="M54.8469 31.2729C56.0968 31.2729 56.9055 31.3709 56.7095 32.3267C56.4399 33.552 55.9252 33.748 54.3323 33.748C53.7441 33.748 52.6658 33.748 52.9354 32.4982C53.1559 31.4444 53.9157 31.2729 54.8469 31.2729ZM55.9007 36.0762H59.6993L61.2433 28.8222C62.101 24.8275 60.5571 24.3374 56.6605 24.3374C53.9402 24.3374 51.3179 24.3129 50.5337 27.9154H54.3323C54.5528 26.8616 55.19 26.6656 56.1458 26.6656C57.8123 26.6656 57.7388 27.3518 57.4937 28.4301L57.1016 30.2681H56.93C56.783 28.9447 55.1165 28.9692 54.0382 28.9692C51.2934 28.9692 49.6514 29.8269 49.0633 32.6207C48.4261 35.5861 49.8475 36.2232 52.4943 36.2232C53.8176 36.2232 55.6067 35.9537 56.2193 34.3607H56.3419L55.9007 36.0762Z" fill="#262262"/>
<path d="M67.3943 24.4599L67.0512 26.1019H67.1983C67.958 24.7295 69.4529 24.3374 70.7518 24.3374C72.3938 24.3374 74.0112 24.6315 73.7907 26.6165H73.9622C74.5259 24.9501 76.2169 24.3374 77.6873 24.3374C80.3586 24.3374 81.5104 25.4402 80.9222 28.136L79.2312 36.0762H75.4327L76.8541 29.3613C77.0501 28.136 77.2462 27.2537 75.7757 27.2537C74.3053 27.2537 73.7907 28.234 73.5456 29.4838L72.1487 36.0762H68.3501L69.845 29.0427C70.0166 27.9889 70.1146 27.2537 68.7912 27.2537C67.2228 27.2537 66.7572 28.087 66.4631 29.4838L65.0662 36.0762H61.2676L63.7428 24.4599H67.3943Z" fill="#262262"/>
<path d="M86.9014 31.2729C88.1268 31.2729 88.96 31.3709 88.764 32.3267C88.5189 33.552 87.9798 33.748 86.3868 33.748C85.8231 33.748 84.7203 33.748 84.9899 32.4982C85.2105 31.4444 85.9702 31.2729 86.9014 31.2729ZM87.9552 36.0762H91.7538L93.2978 28.8222C94.1555 24.8275 92.6116 24.3374 88.715 24.3374C85.9947 24.3374 83.3479 24.3129 82.5882 27.9154H86.3868C86.6074 26.8616 87.2445 26.6656 88.2003 26.6656C89.8668 26.6656 89.7933 27.3518 89.5482 28.4301L89.2051 30.2681H89.0336C88.8865 28.9447 87.22 28.9692 86.1417 28.9692C83.3969 28.9692 81.755 29.8269 81.1668 32.6207C80.5296 35.5861 81.951 36.2232 84.5978 36.2232C85.9212 36.2232 87.7102 35.9537 88.3474 34.3607H88.4699L87.9552 36.0762Z" fill="#262262"/>
<path d="M97.2449 36.075H93.4463L95.897 24.4587H99.6956L97.2449 36.075Z" fill="#262262"/>
<path d="M20.8065 40.0932C12.3761 37.52 6.22479 29.7268 6.22479 20.5123C6.22479 11.1751 12.4986 3.30843 21.0761 0.833234C21.9583 0.588165 21.7132 0 20.6594 0C9.26367 0 0 9.19008 0 20.5123C0 31.8344 9.23916 41 20.6594 41C21.7132 41 21.7623 40.3873 20.8065 40.0932Z" fill="#262262"/>
<path d="M10.1455 25.2919C10.0964 24.7527 10.0474 24.1891 10.0474 23.6254C10.0474 14.6314 17.326 7.35285 26.3201 7.35285C34.8241 7.35285 37.3728 11.1514 37.6914 10.9063C38.0345 10.6368 34.6035 3.11316 24.6291 3.11316C15.635 3.11316 8.35645 10.3917 8.35645 19.3857C8.35645 21.4688 8.74856 23.4539 9.45926 25.2674C9.75335 26.0516 10.219 26.0516 10.1455 25.2919Z" fill="#262262"/>
<path d="M16.9586 13.5768C21.1738 11.7387 26.4918 11.6897 31.7118 13.5032C35.2163 14.7286 37.2504 16.4686 37.422 16.3951C37.6915 16.2725 35.3879 12.5965 31.1972 11.028C26.1242 9.11651 20.6837 10.1213 16.7135 13.2337C16.2724 13.5768 16.4439 13.7973 16.9586 13.5768Z" fill="#262262"/>
<path d="M100.551 21.2478C100.551 22.4241 99.5956 23.3799 98.4192 23.3799C97.2429 23.3799 96.2871 22.4241 96.2871 21.2478C96.2871 20.0715 97.2429 19.1157 98.4192 19.1157C99.5956 19.1157 100.551 20.0715 100.551 21.2478Z" fill="#262262"/>
</svg>
