<svg width="156" height="76" viewBox="0 0 156 76" fill="none" xmlns="http://www.w3.org/2000/svg">
<g clip-path="url(#clip0_5367_407)">
<path d="M39.8868 19.2046C38.7491 18.8361 38.6392 18.2672 38.581 17.6854C38.4646 16.4442 37.9992 15.3064 37.5466 14.1622C36.5899 11.7638 34.7539 10.432 32.2521 10.3997C26.408 10.3157 20.5575 10.4191 14.7134 10.4514C14.6488 10.4514 14.5777 10.529 14.3255 10.6777C18.7538 17.1941 23.1692 23.6976 27.7203 30.395C22.5227 37.0471 17.3251 43.7057 12.0952 50.4031C12.7223 50.888 13.3817 50.6876 13.9829 50.6876C20.1631 50.707 26.3498 50.5971 32.5301 50.7393C35.924 50.8168 37.8957 49.2589 39.1563 46.3045C39.8933 44.572 40.1972 42.7102 40.7725 41.0164C41.225 40.8742 41.5353 40.8289 41.9685 41.372C41.2961 45.4188 41.9168 49.7631 41.225 54.1332H5.86328C11.8366 46.2528 17.9458 38.896 23.7963 31.2612C18.6763 23.6652 13.2718 16.3666 8.20349 8.71244C10.2334 8.20174 35.0319 8.04658 39.4731 8.46679C39.8804 11.9383 40.2941 15.4422 39.8868 19.2046Z" fill="#1B1464"/>
<path d="M155.072 30.1122C155.531 30.7134 155.37 31.1788 155.286 31.6249C153.379 32.058 63.7911 32.2326 58.7099 31.8318C58.1863 31.3857 58.2574 30.8556 58.4837 30.3126C59.0073 29.86 149.448 29.679 155.072 30.1122Z" fill="#1B1464"/>
<path d="M139.902 56.9654C140.994 56.6421 141.227 55.4074 142.281 55.8793C142.184 58.1161 141.511 58.7625 138.57 59.5318C137.355 59.3444 137.115 58.3617 136.863 57.2627C135.7 58.2971 134.704 59.4478 133.107 59.5512C130.58 58.8595 129.623 57.8058 129.726 55.2199C129.856 51.7742 131.271 48.9039 134.148 46.8481C135.797 45.6716 137.503 45.232 139.404 46.596C140.012 44.6114 140.483 42.7366 140.535 40.8231C139.746 40.3447 139.469 40.0538 139.081 39.3427C140.761 38.541 141.667 38.36 143.871 38.4182C144 40.558 143.102 42.5039 142.688 44.5338C142.287 46.5378 141.815 48.529 141.363 50.5201C140.897 52.5758 140.432 54.6316 139.902 56.9654ZM137.484 47.3524C133.437 48.6647 131.362 54.1662 133.689 57.6312C136.643 55.6336 137.943 52.6405 138.977 49.628C138.699 48.6195 138.402 47.876 137.477 47.3589L137.484 47.3524Z" fill="#1B1464"/>
<path d="M62.7714 41.0118C62.3448 40.139 61.304 40.5398 61.1423 39.6865C62.0021 38.6521 63.4179 38.2837 66.1525 38.4841C65.2603 42.4534 64.3682 46.3904 63.4373 50.5148C65.8422 48.9245 67.6199 46.7782 70.2058 45.8409C70.7424 45.6469 71.3436 45.6663 71.8672 45.9443C72.3133 46.274 72.5202 46.7007 72.4426 47.2243C72.3391 47.929 71.9642 48.4332 71.0268 48.7758C70.5032 48.9827 69.8503 48.4267 69.1327 48.3944C67.7816 48.9374 66.7989 49.9265 65.771 51.0514C66.7666 53.0554 67.7686 55.0724 68.6608 56.8567C69.902 57.5548 70.3092 55.3051 71.5634 56.6692C71.0527 58.0526 70.0248 58.9641 68.6866 59.5524C66.8636 59.4425 66.0684 58.2336 65.4219 56.8437C64.7367 55.3698 64.4199 53.7342 63.3791 52.1633C61.847 54.5229 62.752 57.7423 60.4506 59.6623C59.9981 59.5072 59.6684 59.4425 59.4033 59.2809C59.2029 59.1646 59.0801 58.9189 58.8086 58.6021C60.108 52.8033 61.4268 46.914 62.752 41.0053L62.7714 41.0118Z" fill="#1B1464"/>
<path d="M30.375 75.4612C30.7112 73.942 31.9847 74.6014 32.5471 73.8967C33.7302 69.7529 34.4736 65.5121 35.1718 61.685C34.9261 60.5019 33.8207 60.8704 33.6784 60.1334C33.8013 59.946 33.8789 59.7197 33.9758 59.7132C36.8397 59.4094 39.7358 59.3512 42.5868 59.6486C46.6854 60.0753 49.2324 64.1415 48.1658 68.169C46.9246 72.8624 43.7827 75.3577 38.9019 75.4483C36.1156 75.5 33.3294 75.4547 30.3815 75.4547L30.375 75.4612ZM35.6243 73.7804C39.5936 75.0604 43.3431 73.3666 44.6167 69.8305C44.9722 68.8414 45.3795 67.7747 45.3472 66.7533C45.2437 63.3529 44.1383 60.8898 39.9944 60.9932C39.432 61.0062 38.8373 60.9351 38.1003 61.4393C37.1177 65.4022 36.316 69.5913 35.6243 73.7804Z" fill="#1B1464"/>
<path d="M9.66954 64.9949C9.97338 63.4951 10.5423 62.2086 10.413 60.7476C10.4259 60.0882 9.39803 60.2434 9.3851 59.403C10.4647 58.2781 12.0421 58.8276 13.7229 58.0195C12.7467 63.4434 11.1887 68.2208 10.1867 73.1986C10.8914 73.4636 11.1112 72.6297 11.6348 72.5974C11.958 72.7137 12.2037 72.9077 12.3071 73.2503C11.5141 74.5303 10.3397 75.3578 8.78389 75.7327C7.74307 75.6293 7.39398 74.9246 7.21297 74.0261C6.17216 74.7889 5.22831 75.6034 3.83195 75.7457C1.25901 75.0863 0.231124 73.2955 1.06507 70.3994C1.74386 68.0333 3.18548 66.1715 5.43518 65.0272C6.77984 64.342 7.4457 64.3484 9.66954 64.9949ZM4.27801 74.0519C6.46953 73.2955 7.24529 71.4143 8.24085 69.7917C8.88732 68.738 9.39156 67.5808 8.45419 66.2943C6.79923 65.4733 5.78428 66.5852 5.04084 67.7295C3.83841 69.5913 2.8881 71.6018 4.27154 74.0519H4.27801Z" fill="#1B1464"/>
<path d="M127.536 64.6984C126.754 65.4289 126.282 64.8859 125.81 64.4333C123.121 61.8733 121.498 58.738 120.658 55.1371C119.061 48.2975 122.435 41.3932 126.657 37.9605C127.032 37.8183 127.271 38.0252 127.497 38.2773C127.51 38.4324 127.588 38.6264 127.523 38.7427C126.864 39.8676 126.069 40.9278 125.513 42.1044C122.048 49.3965 122.41 56.4753 126.844 63.2891C127.103 63.6899 127.562 63.9808 127.536 64.7049V64.6984Z" fill="#1B1464"/>
<path d="M145.254 38.6566C145.577 38.2881 145.732 38.1135 145.868 37.9648C146.075 37.9842 146.282 37.939 146.385 38.023C150.458 41.3329 152.553 45.7548 152.734 50.8489C152.921 56.0401 150.949 60.6171 147.251 64.3666C146.805 64.8191 146.34 65.3815 145.364 64.651C146.87 62.0199 148.641 59.4663 149.236 56.4021C149.837 53.3184 150.025 50.2348 149.34 47.1317C148.654 44.0481 147.433 41.223 145.26 38.663L145.254 38.6566Z" fill="#1B1464"/>
<path d="M108.788 16.6132C109.725 17.3372 110.533 16.9946 111.05 17.4407C111.341 17.6928 111.322 18.0096 111.264 18.3392C110.727 18.8823 105.439 18.934 103.008 18.4039C102.976 16.7295 104.637 17.473 105.29 16.8265C105.982 15.178 106.131 6.6188 105.516 4.01354C104.508 3.5998 103.525 5.04142 102.504 4.06525C103.086 2.84343 105.361 1.49231 108.788 0.40625V16.6132Z" fill="#1B1464"/>
<path d="M27.4347 68.4405C27.7644 68.99 27.7256 69.3003 27.564 69.7723C24.9394 70.367 22.1337 69.63 19.2957 70.1925C19.9486 72.2418 21.2157 73.2761 23.2392 73.4636C24.7777 73.6058 26.3551 73.2955 27.6998 73.6705C28.3139 74.2135 28.204 74.6596 27.9778 75.2543C25.7733 75.4159 23.5753 75.6293 21.4226 74.9117C18.6945 74.0002 16.949 71.1686 17.324 68.3565C17.7248 65.3634 20.1426 63.1072 23.1228 62.9908C24.5192 62.9391 25.922 62.9714 27.3184 62.9908C27.5511 62.9908 27.8291 62.9908 27.8808 63.0878C28.2557 63.6244 28.2557 63.9864 27.7321 64.5941C26.4844 64.5941 25.0234 64.5294 23.5689 64.607C21.2868 64.7298 20.1296 65.7189 19.3862 68.1561C22.0626 68.628 24.7584 68.1432 27.4283 68.447L27.4347 68.4405Z" fill="#1B1464"/>
<path d="M88.47 50.0882V44.3282C89.0712 43.5589 89.653 43.7205 90.3318 43.8046C91.0106 45.8086 90.2607 47.9743 90.8102 50.2304H96.9839C97.5528 50.961 97.527 51.4846 97.068 52.2604H90.7003V58.6216C89.9375 59.3068 89.3427 59.2422 88.5282 58.8737V52.3896H82.238C81.5463 51.6785 81.5916 51.142 81.8889 50.4438C83.8995 49.9007 86.0522 50.4567 88.47 50.0882Z" fill="#1B1464"/>
<path d="M109.22 59.1441C108.638 59.3381 108.334 59.5062 108.031 59.5191C107.61 59.532 107.268 59.2799 106.828 58.7627C107.132 55.2912 108.509 51.8326 108.858 48.3934C108.496 47.4819 106.983 47.8762 107.345 46.5897C108.845 46.0036 110.229 45.8528 111.496 46.1372C112.097 46.635 111.69 47.3914 111.987 48.0249C112.795 47.359 113.532 46.6156 114.398 46.079C115.31 45.5166 116.279 45.5748 117.107 46.551C117.463 47.5918 117.411 48.555 116.551 49.0399C115.316 49.5829 114.767 48.6908 114.023 48.5098C111.082 51.4189 110.048 55.1878 109.22 59.1441Z" fill="#1B1464"/>
</g>
<defs>
<clipPath id="clip0_5367_407">
<rect width="154.603" height="75.3393" fill="white" transform="translate(0.78125 0.40625)"/>
</clipPath>
</defs>
</svg>
