<svg width="60" height="15" viewBox="0 0 60 15" fill="none" xmlns="http://www.w3.org/2000/svg">
<g id="amd">
<path id="Vector" d="M13.8898 13.1508H10.597L9.5952 10.733H4.13397L3.22094 13.1508H0L4.92018 0.943359H8.44547L13.8898 13.1508ZM6.75045 3.85151L4.94132 8.60684H8.69908L6.75045 3.85151Z" fill="#181818"/>
<path id="Vector_2" d="M25.7644 0.943359H28.4147V13.1508H25.3713V5.54229L22.0785 9.37192H21.6136L18.3208 5.52538V13.1339H15.2773V0.943359H17.9276L21.846 5.48311L25.7644 0.943359Z" fill="#181818"/>
<path id="Vector_3" d="M36.1277 0.943359C40.5829 0.943359 42.8908 3.71625 42.8908 7.064C42.8908 10.5724 40.6716 13.1508 35.8022 13.1508H30.7383V0.943359H36.1277ZM33.7817 10.9148H35.7684C38.8287 10.9148 39.7417 8.83932 39.7417 7.04709C39.7417 4.93361 38.6131 3.17942 35.7345 3.17942H33.7817V10.9148Z" fill="#181818"/>
<path id="Vector_4" d="M55.2215 3.83808H48.9276L45.0938 0H59.0596V13.9701L55.2215 10.132V3.83808Z" fill="#181818"/>
<path id="Vector_5" d="M48.9245 10.1382V4.60938L44.9766 8.55736V14.0904H50.5054L54.4534 10.1382H48.9245Z" fill="#181818"/>
</g>
</svg>
