<svg width="101" height="24" viewBox="0 0 101 24" fill="none" xmlns="http://www.w3.org/2000/svg">
<path d="M23.6599 22.401H18.0509L16.3445 18.2825H7.0418L5.48656 22.401H0L8.38104 1.60693H14.386L23.6599 22.401ZM11.4987 6.56066L8.41704 14.6609H14.818L11.4987 6.56066Z" fill="#262262"/>
<path d="M43.8881 1.60693H48.4027V22.401H43.2185V9.44073L37.6095 15.9641H36.8175L31.2086 9.41193V22.3722H26.0244V1.60693H30.5389L37.2135 9.33992L43.8881 1.60693Z" fill="#262262"/>
<path d="M61.5416 1.60693C69.1306 1.60693 73.0619 6.33025 73.0619 12.0328C73.0619 18.0089 69.2818 22.401 60.9872 22.401H52.3613V1.60693H61.5416ZM57.5455 18.5922H60.9296C66.1425 18.5922 67.6978 15.0569 67.6978 12.004C67.6978 8.4039 65.7753 5.41583 60.872 5.41583H57.5455V18.5922Z" fill="#262262"/>
<path d="M94.0622 6.53776H83.3411L76.8105 0H100.6V23.7966L94.0622 17.2588V6.53776Z" fill="#262262"/>
<path d="M83.3373 17.2678V7.84998L76.6123 14.5749V24H86.0302L92.7552 17.2678H83.3373Z" fill="#262262"/>
</svg>
