<svg width="146" height="97" viewBox="0 0 146 97" fill="none" xmlns="http://www.w3.org/2000/svg">
<g clip-path="url(#clip0_5367_835)">
<path d="M145.025 20.4531V95.8489H125.005L108.766 30.2922L145.025 20.4531Z" fill="#130C49"/>
<path d="M145.025 1.14258V20.4529L108.766 30.292L65.0771 42.1445L49.537 24.2193L29.5312 1.14258H145.025Z" fill="#EDEDED"/>
<path d="M108.767 30.291L125.006 95.8477H111.631L98.3449 80.5251L65.0781 42.1436L108.767 30.291Z" fill="#61BD73"/>
<path d="M98.3421 80.5264L111.628 95.849H1.23828V61.9336L98.3421 80.5264Z" fill="#EDEDED"/>
<path d="M65.0754 42.1439L98.3421 80.5255L1.23828 61.9327V48.495L49.5352 24.2188L65.0754 42.1439Z" fill="#130C49"/>
<path d="M29.5295 1.14258L49.5352 24.2193L1.23828 48.4956V1.14258H29.5295Z" fill="#61BD73"/>
<path d="M1.23828 48.4956V1.14258H29.5295H145.023V20.4529V95.8487H125.003" stroke="#130C49" stroke-width="1.29293" stroke-miterlimit="10"/>
<path d="M111.628 95.849H1.23828V61.9336" stroke="#130C49" stroke-width="1.29293" stroke-miterlimit="10"/>
<path d="M49.5352 24.2188L1.23828 48.495V61.9327L98.3421 80.5255" stroke="#130C49" stroke-width="1.29293" stroke-miterlimit="10"/>
<path d="M145.026 20.4531L108.767 30.2922L65.0781 42.1447" stroke="#130C49" stroke-width="1.29293" stroke-miterlimit="10"/>
<path d="M65.0781 42.1436L98.3449 80.5251L111.631 95.8477H125.006L108.767 30.291" stroke="#130C49" stroke-width="1.29293" stroke-miterlimit="10"/>
<path d="M65.0753 42.1439L49.5352 24.2188" stroke="#130C49" stroke-width="1.29293" stroke-miterlimit="10"/>
<path d="M29.5312 1.14258L49.537 24.2193" stroke="#130C49" stroke-width="1.29293" stroke-miterlimit="10"/>
<path d="M56.4333 53.8687C57.6133 53.8687 58.5698 52.9113 58.5698 51.7302C58.5698 50.5492 57.6133 49.5918 56.4333 49.5918C55.2534 49.5918 54.2969 50.5492 54.2969 51.7302C54.2969 52.9113 55.2534 53.8687 56.4333 53.8687Z" fill="white"/>
<path d="M39.531 60.2906C40.7109 60.2906 41.6675 59.3332 41.6675 58.1521C41.6675 56.9711 40.7109 56.0137 39.531 56.0137C38.3511 56.0137 37.3945 56.9711 37.3945 58.1521C37.3945 59.3332 38.3511 60.2906 39.531 60.2906Z" fill="white"/>
<path d="M26.9685 52.3687C28.1484 52.3687 29.105 51.4113 29.105 50.2302C29.105 49.0492 28.1484 48.0918 26.9685 48.0918C25.7886 48.0918 24.832 49.0492 24.832 50.2302C24.832 51.4113 25.7886 52.3687 26.9685 52.3687Z" fill="white"/>
<path d="M20.6169 14.8199C21.7969 14.8199 22.7534 13.8625 22.7534 12.6814C22.7534 11.5004 21.7969 10.543 20.6169 10.543C19.437 10.543 18.4805 11.5004 18.4805 12.6814C18.4805 13.8625 19.437 14.8199 20.6169 14.8199Z" fill="white"/>
<path d="M13.6326 28.4957C14.8125 28.4957 15.769 27.5382 15.769 26.3572C15.769 25.1762 14.8125 24.2188 13.6326 24.2188C12.4526 24.2188 11.4961 25.1762 11.4961 26.3572C11.4961 27.5382 12.4526 28.4957 13.6326 28.4957Z" fill="white"/>
<path d="M11.4958 80.523C12.6758 80.523 13.6323 79.5656 13.6323 78.3845C13.6323 77.2035 12.6758 76.2461 11.4958 76.2461C10.3159 76.2461 9.35938 77.2035 9.35938 78.3845C9.35938 79.5656 10.3159 80.523 11.4958 80.523Z" fill="#130C49"/>
<path d="M35.2536 86.8375C36.4336 86.8375 37.3901 85.88 37.3901 84.699C37.3901 83.518 36.4336 82.5605 35.2536 82.5605C34.0737 82.5605 33.1172 83.518 33.1172 84.699C33.1172 85.88 34.0737 86.8375 35.2536 86.8375Z" fill="#130C49"/>
<path d="M62.1248 88.9761C63.3047 88.9761 64.2612 88.0187 64.2612 86.8377C64.2612 85.6566 63.3047 84.6992 62.1248 84.6992C60.9448 84.6992 59.9883 85.6566 59.9883 86.8377C59.9883 88.0187 60.9448 88.9761 62.1248 88.9761Z" fill="#130C49"/>
<path d="M84.4724 49.0953C85.6523 49.0953 86.6089 48.1378 86.6089 46.9568C86.6089 45.7758 85.6523 44.8184 84.4724 44.8184C83.2925 44.8184 82.3359 45.7758 82.3359 46.9568C82.3359 48.1378 83.2925 49.0953 84.4724 49.0953Z" fill="white"/>
<path d="M108.765 58.15C109.945 58.15 110.902 57.1925 110.902 56.0115C110.902 54.8305 109.945 53.873 108.765 53.873C107.585 53.873 106.629 54.8305 106.629 56.0115C106.629 57.1925 107.585 58.15 108.765 58.15Z" fill="white"/>
<path d="M110.906 80.2945C112.086 80.2945 113.042 79.3371 113.042 78.156C113.042 76.975 112.086 76.0176 110.906 76.0176C109.726 76.0176 108.77 76.975 108.77 78.156C108.77 79.3371 109.726 80.2945 110.906 80.2945Z" fill="white"/>
<path d="M127.14 56.0113C128.32 56.0113 129.277 55.0539 129.277 53.8728C129.277 52.6918 128.32 51.7344 127.14 51.7344C125.96 51.7344 125.004 52.6918 125.004 53.8728C125.004 55.0539 125.96 56.0113 127.14 56.0113Z" fill="white"/>
<path d="M136.312 38.107C137.492 38.107 138.449 37.1496 138.449 35.9685C138.449 34.7875 137.492 33.8301 136.312 33.8301C135.132 33.8301 134.176 34.7875 134.176 35.9685C134.176 37.1496 135.132 38.107 136.312 38.107Z" fill="white"/>
<path d="M126.894 12.6773C128.074 12.6773 129.031 11.7199 129.031 10.5388C129.031 9.35781 128.074 8.40039 126.894 8.40039C125.714 8.40039 124.758 9.35781 124.758 10.5388C124.758 11.7199 125.714 12.6773 126.894 12.6773Z" fill="#130C49"/>
<path d="M97.1755 23.7085C98.3555 23.7085 99.312 22.7511 99.312 21.5701C99.312 20.3891 98.3555 19.4316 97.1755 19.4316C95.9956 19.4316 95.0391 20.3891 95.0391 21.5701C95.0391 22.7511 95.9956 23.7085 97.1755 23.7085Z" fill="#130C49"/>
<path d="M62.1248 16.9566C63.3047 16.9566 64.2612 15.9992 64.2612 14.8181C64.2612 13.6371 63.3047 12.6797 62.1248 12.6797C60.9448 12.6797 59.9883 13.6371 59.9883 14.8181C59.9883 15.9992 60.9448 16.9566 62.1248 16.9566Z" fill="#130C49"/>
<path d="M131.172 82.4371C132.352 82.4371 133.308 81.4797 133.308 80.2986C133.308 79.1176 132.352 78.1602 131.172 78.1602C129.992 78.1602 129.035 79.1176 129.035 80.2986C129.035 81.4797 129.992 82.4371 131.172 82.4371Z" fill="white"/>
</g>
<defs>
<clipPath id="clip0_5367_835">
<rect width="144.809" height="95.6771" fill="white" transform="translate(0.882812 0.703125)"/>
</clipPath>
</defs>
</svg>
