<svg width="216" height="113" viewBox="0 0 216 113" fill="none" xmlns="http://www.w3.org/2000/svg">
<g clip-path="url(#clip0_5367_1242)">
<path d="M67.2339 56.416H37.375V57.2297H67.2339V56.416Z" fill="#130C49"/>
<path d="M65.0725 59.4877L64.6289 59.0117L66.9812 56.8269L64.6289 54.6381L65.0725 54.1621L67.9375 56.8269L65.0725 59.4877Z" fill="#130C49"/>
<path d="M178.386 56.416H148.527V57.2297H178.386V56.416Z" fill="#130C49"/>
<path d="M176.229 59.4877L175.781 59.0117L178.133 56.8269L175.781 54.6381L176.229 54.1621L179.09 56.8269L176.229 59.4877Z" fill="#130C49"/>
<path d="M19.9171 100.425L6.07625 91.3032C5.97044 91.23 5.83208 91.23 5.7222 91.287C5.61232 91.348 5.53906 91.466 5.53906 91.5921V109.831C5.53906 109.957 5.60825 110.075 5.7222 110.136C5.77103 110.16 5.82801 110.177 5.88498 110.177C5.9501 110.177 6.01521 110.156 6.07218 110.12L19.913 100.998C20.0107 100.937 20.0677 100.827 20.0677 100.709C20.0677 100.591 20.0066 100.486 19.913 100.421L19.9171 100.425Z" fill="#A590DD"/>
<path d="M5.8857 110.583C5.76768 110.583 5.64559 110.555 5.53571 110.498C5.28339 110.359 5.13281 110.107 5.13281 109.83V91.5918C5.13281 91.3192 5.28339 91.0629 5.5235 90.9327C5.77175 90.7985 6.06883 90.8147 6.29673 90.9693L20.1335 100.087C20.3451 100.225 20.4713 100.461 20.4713 100.713C20.4713 100.965 20.3451 101.201 20.1294 101.34L6.29266 110.457C6.17464 110.538 6.02813 110.583 5.87756 110.583H5.8857ZM5.95081 91.7098V109.717L19.6126 100.713L5.95081 91.7098Z" fill="#130C49"/>
<path d="M25.2875 5.1503V21.3426C25.2875 22.2864 24.5224 23.0554 23.5742 23.0554H2.04177C1.09354 23.0554 0.320312 22.2864 0.320312 21.3426V5.1503C0.320312 4.20643 1.08947 3.4375 2.04177 3.4375H23.5701C24.5184 3.4375 25.2835 4.20643 25.2835 5.1503H25.2875ZM24.7096 21.0456V5.28863C24.7096 4.58479 24.1399 4.01115 23.4358 4.01115H2.17607C1.47202 4.01115 0.90227 4.58886 0.90227 5.28863V16.3791L7.18986 10.0934L15.3658 18.2058L18.6662 14.8779L24.7137 21.0496L24.7096 21.0456Z" fill="#130C49"/>
<path d="M24.7099 5.2892V21.0461L18.6624 14.8744L15.3619 18.2023L7.18603 10.0899L0.898438 16.3756V5.2892C0.898438 4.58536 1.46819 4.01172 2.17223 4.01172H23.4361C24.1401 4.01172 24.7099 4.58943 24.7099 5.2892Z" fill="#7AD6EB"/>
<path d="M23.5746 23.2591H2.04213C0.97995 23.2591 0.117188 22.4006 0.117188 21.3429V5.15059C0.117188 4.09281 0.97995 3.23438 2.04213 3.23438H23.5705C24.6286 3.23438 25.4873 4.09281 25.4873 5.15059V21.3429C25.4873 22.4006 24.6286 23.2591 23.5705 23.2591H23.5746ZM2.04213 3.63715C1.20378 3.63715 0.524151 4.31657 0.524151 5.14653V21.3388C0.524151 22.1728 1.20378 22.8482 2.04213 22.8482H23.5705C24.4048 22.8482 25.0803 22.1687 25.0803 21.3388V5.15059C25.0803 4.31657 24.4007 3.64122 23.5705 3.64122H2.04213V3.63715Z" fill="#130C49"/>
<path d="M24.9137 21.5468L18.6628 15.1676L15.3663 18.4955L7.19045 10.3831L0.695312 16.8722V5.28949C0.695312 4.47174 1.35866 3.80859 2.17259 3.80859H23.4364C24.2504 3.80859 24.9137 4.47581 24.9137 5.28949V21.5428V21.5468ZM18.6668 14.5858L24.5108 20.5501V5.28949C24.5108 4.69551 24.0306 4.21543 23.4405 4.21543H2.17259C1.58249 4.21543 1.10228 4.69958 1.10228 5.28949V15.8877L7.18638 9.80543L15.3623 17.9178L18.6628 14.5858H18.6668Z" fill="#130C49"/>
<path d="M15.2172 7.32812C14.2202 7.32812 13.4062 8.13774 13.4062 9.13857C13.4062 10.1394 14.2202 10.9531 15.2172 10.9531C16.2143 10.9531 17.0323 10.1394 17.0323 9.13857C17.0323 8.13774 16.2184 7.32812 15.2172 7.32812Z" fill="#130C49"/>
<path d="M5.74479 63.8379C5.17097 63.8379 4.70703 64.3017 4.70703 64.8753V78.236C4.70703 78.8096 5.17097 79.2734 5.74479 79.2734C6.31861 79.2734 6.78255 78.8096 6.78255 78.236V64.8753C6.78255 64.3017 6.31861 63.8379 5.74479 63.8379Z" fill="#130C49"/>
<path d="M10.4557 66.0664C9.88191 66.0664 9.41797 66.5302 9.41797 67.1039V76.0055C9.41797 76.5792 9.88191 77.043 10.4557 77.043C11.0295 77.043 11.4935 76.5792 11.4935 76.0055V67.1039C11.4935 66.5302 11.0295 66.0664 10.4557 66.0664Z" fill="#130C49"/>
<path d="M19.8698 66.0664C19.296 66.0664 18.832 66.5302 18.832 67.1039V76.0055C18.832 76.5792 19.296 77.043 19.8698 77.043C20.4436 77.043 20.9075 76.5792 20.9075 76.0055V67.1039C20.9075 66.5302 20.4436 66.0664 19.8698 66.0664Z" fill="#130C49"/>
<path d="M15.1589 68.627C14.585 68.627 14.1211 69.0908 14.1211 69.6644V73.448C14.1211 74.0217 14.585 74.4855 15.1589 74.4855C15.7327 74.4855 16.1966 74.0217 16.1966 73.448V69.6644C16.1966 69.0908 15.7327 68.627 15.1589 68.627Z" fill="#130C49"/>
<path d="M24.5729 68.627C23.9991 68.627 23.5352 69.0908 23.5352 69.6644V73.448C23.5352 74.0217 23.9991 74.4855 24.5729 74.4855C25.1467 74.4855 25.6107 74.0217 25.6107 73.448V69.6644C25.6107 69.0908 25.1467 68.627 24.5729 68.627Z" fill="#130C49"/>
<path d="M1.03776 68.627C0.463938 68.627 0 69.0908 0 69.6644V73.448C0 74.0217 0.463938 74.4855 1.03776 74.4855C1.61158 74.4855 2.07551 74.0217 2.07551 73.448V69.6644C2.07551 69.0908 1.61158 68.627 1.03776 68.627Z" fill="#130C49"/>
<path d="M21.4419 40.9812C21.0634 40.9731 20.8599 41.2091 20.8396 41.6932C20.8355 41.7664 20.8355 41.8397 20.8314 41.9129C20.6768 45.7697 17.6001 49.0855 13.7828 49.5086C9.03355 50.0375 4.93135 46.502 4.77264 41.7298C4.75636 41.2131 4.56102 40.9649 4.16626 40.9812C3.78779 40.9975 3.625 41.2294 3.625 41.742C3.62907 43.2433 3.99941 44.6509 4.74822 45.9487C6.31096 48.6705 8.65507 50.2694 11.7887 50.66C12.1387 50.7047 12.2364 50.839 12.216 51.1644C12.1957 51.5916 12.2119 52.0269 12.2119 52.4582H12.216C12.216 52.9627 12.1997 53.4712 12.2201 53.9716C12.2282 54.3215 12.4073 54.5697 12.7817 54.5941C13.1154 54.6185 13.3596 54.3663 13.3921 53.9716C13.4003 53.8699 13.3962 53.7601 13.3962 53.6543C13.3962 52.8244 13.4125 51.9903 13.3921 51.1644C13.384 50.8308 13.4817 50.7047 13.8276 50.66C17.2257 50.2165 19.6634 48.4142 21.1692 45.3548C21.7308 44.2075 21.9994 42.9788 21.9872 41.6973C21.9872 41.2294 21.8081 40.9975 21.4378 40.9853L21.4419 40.9812Z" fill="#130C49"/>
<path d="M7.51997 41.7995C7.68276 44.5579 9.86815 46.7223 12.5378 46.8199C15.3581 46.9216 17.7429 45.0095 18.0278 42.1982C18.2638 39.9158 18.2516 37.5968 18.0359 35.3063C17.7795 32.5357 15.4761 30.5911 12.7372 30.6155C10.0554 30.6358 7.81705 32.6415 7.54846 35.3877C7.43858 36.4943 7.52811 37.6131 7.52811 38.7279H7.50776C7.50776 39.749 7.45893 40.7743 7.5159 41.7954L7.51997 41.7995Z" fill="#61BD73"/>
<path d="M12.7528 47.231C12.6755 47.231 12.5982 47.231 12.5209 47.227C9.61514 47.1212 7.28731 44.7981 7.11232 41.8241C7.07162 41.1081 7.07976 40.3839 7.09197 39.6841C7.09604 39.3668 7.10011 39.0495 7.10011 38.7321L7.11639 38.3253C7.11639 38.1178 7.10825 37.9103 7.10418 37.7028C7.08383 36.9339 7.06755 36.1406 7.14081 35.3554C7.42975 32.4464 9.83084 30.2373 12.7325 30.2129C12.7488 30.2129 12.7691 30.2129 12.7854 30.2129C15.744 30.2129 18.1695 32.3773 18.4381 35.274C18.6619 37.6825 18.6579 40.0259 18.4259 42.2432C18.1329 45.1236 15.7115 47.2351 12.7447 47.2351L12.7528 47.231ZM7.92625 41.7753C8.07682 44.3262 10.0669 46.3197 12.5534 46.4133C15.219 46.5109 17.3637 44.7208 17.6242 42.1577C17.848 39.9933 17.8521 37.6988 17.6323 35.3472C17.4004 32.837 15.3696 31.0266 12.7935 31.0266C12.7773 31.0266 12.761 31.0266 12.7447 31.0266C10.2622 31.0428 8.20298 32.9387 7.95473 35.4327C7.88148 36.169 7.90183 36.938 7.91811 37.6825C7.92625 38.0324 7.93438 38.3822 7.93438 38.7321V39.139H7.91404C7.91404 39.3261 7.90997 39.5133 7.9059 39.6963C7.89369 40.3798 7.88555 41.0877 7.92218 41.7753H7.92625Z" fill="#130C49"/>
<path d="M210.304 34.5535L196.463 25.4321C196.357 25.3589 196.219 25.3589 196.109 25.4159C195.999 25.4769 195.926 25.5949 195.926 25.721V43.9597C195.926 44.0858 195.995 44.2038 196.109 44.2648C196.158 44.2892 196.215 44.3055 196.272 44.3055C196.337 44.3055 196.402 44.2851 196.459 44.2485L210.3 35.1272C210.397 35.0661 210.454 34.9563 210.454 34.8383C210.454 34.7203 210.393 34.6145 210.3 34.5494L210.304 34.5535Z" fill="#7AD6EB"/>
<path d="M196.276 44.7119C196.154 44.7119 196.036 44.6834 195.926 44.6264C195.674 44.4881 195.523 44.2359 195.523 43.9633V25.7246C195.523 25.452 195.674 25.1998 195.914 25.0655C196.166 24.9313 196.459 24.9475 196.691 25.1021L210.528 34.2194C210.74 34.3578 210.866 34.5937 210.866 34.846C210.866 35.0982 210.74 35.3342 210.528 35.4725L196.691 44.5898C196.573 44.6712 196.427 44.7159 196.276 44.7159V44.7119ZM196.337 25.8385V43.8453L209.999 34.8419L196.337 25.8385Z" fill="#130C49"/>
<path d="M215.678 57.6737V73.866C215.678 74.8099 214.913 75.5788 213.965 75.5788H192.436C191.488 75.5788 190.715 74.8099 190.715 73.866V57.6737C190.715 56.7299 191.484 55.9609 192.436 55.9609H213.965C214.913 55.9609 215.678 56.7299 215.678 57.6737ZM215.1 73.569V57.8121C215.1 57.1082 214.53 56.5346 213.826 56.5346H192.562C191.858 56.5346 191.289 57.1123 191.289 57.8121V68.9025L197.576 62.6169L205.752 70.7293L209.053 67.4013L215.1 73.5731V73.569Z" fill="#130C49"/>
<path d="M215.1 57.8167V73.5736L209.053 67.4019L205.753 70.7298L197.577 62.6174L191.289 68.9031V57.8126C191.289 57.1088 191.859 56.5352 192.563 56.5352H213.827C214.531 56.5352 215.1 57.1129 215.1 57.8126V57.8167Z" fill="#61BD73"/>
<path d="M213.961 75.7825H192.433C191.371 75.7825 190.508 74.9241 190.508 73.8663V57.674C190.508 56.6162 191.371 55.7578 192.433 55.7578H213.961C215.019 55.7578 215.878 56.6162 215.878 57.674V73.8663C215.878 74.9241 215.015 75.7825 213.961 75.7825ZM192.433 56.1606C191.594 56.1606 190.915 56.84 190.915 57.67V73.8622C190.915 74.6962 191.594 75.3716 192.433 75.3716H213.961C214.795 75.3716 215.471 74.6922 215.471 73.8622V57.67C215.471 56.8359 214.791 56.1606 213.961 56.1606H192.433Z" fill="#130C49"/>
<path d="M215.304 74.0701L209.053 67.6909L205.757 71.0188L197.581 62.9064L191.09 69.3955V57.8168C191.09 56.9991 191.753 56.3359 192.567 56.3359H213.831C214.645 56.3359 215.308 57.0032 215.308 57.8168V74.0701H215.304ZM209.053 67.1091L214.897 73.0734V57.8168C214.897 57.2228 214.417 56.7428 213.827 56.7428H192.563C191.973 56.7428 191.493 57.2269 191.493 57.8168V68.415L197.577 62.3328L205.753 70.4452L209.053 67.1131V67.1091Z" fill="#130C49"/>
<path d="M205.608 59.8555C204.611 59.8555 203.797 60.6651 203.797 61.6659C203.797 62.6667 204.611 63.4804 205.608 63.4804C206.605 63.4804 207.423 62.6667 207.423 61.6659C207.423 60.6651 206.609 59.8555 205.608 59.8555Z" fill="#130C49"/>
<path d="M196.132 0C195.558 0 195.094 0.463798 195.094 1.03744V14.3981C195.094 14.9717 195.558 15.4355 196.132 15.4355C196.705 15.4355 197.169 14.9717 197.169 14.3981V1.03744C197.169 0.463798 196.705 0 196.132 0Z" fill="#130C49"/>
<path d="M200.842 2.22852C200.269 2.22852 199.805 2.69231 199.805 3.26596V12.1676C199.805 12.7413 200.269 13.2051 200.842 13.2051C201.416 13.2051 201.88 12.7413 201.88 12.1676V3.26596C201.88 2.69231 201.416 2.22852 200.842 2.22852Z" fill="#130C49"/>
<path d="M210.253 2.22852C209.679 2.22852 209.215 2.69231 209.215 3.26596V12.1676C209.215 12.7413 209.679 13.2051 210.253 13.2051C210.826 13.2051 211.29 12.7413 211.29 12.1676V3.26596C211.29 2.69231 210.826 2.22852 210.253 2.22852Z" fill="#130C49"/>
<path d="M205.549 4.78906C204.976 4.78906 204.512 5.25286 204.512 5.82651V9.61012C204.512 10.1838 204.976 10.6476 205.549 10.6476C206.123 10.6476 206.587 10.1838 206.587 9.61012V5.82651C206.587 5.25286 206.123 4.78906 205.549 4.78906Z" fill="#130C49"/>
<path d="M214.964 4.78906C214.39 4.78906 213.926 5.25286 213.926 5.82651V9.61012C213.926 10.1838 214.39 10.6476 214.964 10.6476C215.537 10.6476 216.001 10.1838 216.001 9.61012V5.82651C216.001 5.25286 215.537 4.78906 214.964 4.78906Z" fill="#130C49"/>
<path d="M191.428 4.78906C190.855 4.78906 190.391 5.25286 190.391 5.82651V9.61012C190.391 10.1838 190.855 10.6476 191.428 10.6476C192.002 10.6476 192.466 10.1838 192.466 9.61012V5.82651C192.466 5.25286 192.002 4.78906 191.428 4.78906Z" fill="#130C49"/>
<path d="M211.829 99.3894C211.45 99.3813 211.247 99.6173 211.226 100.101C211.222 100.175 211.222 100.248 211.218 100.321C211.063 104.178 207.987 107.494 204.17 107.917C199.42 108.446 195.318 104.91 195.159 100.138C195.143 99.6213 194.948 99.3731 194.553 99.3894C194.174 99.4057 194.012 99.6376 194.012 100.15C194.016 101.651 194.386 103.059 195.135 104.357C196.698 107.079 199.042 108.678 202.175 109.068C202.525 109.113 202.623 109.247 202.603 109.573C202.582 110 202.599 110.435 202.599 110.866H202.603C202.603 111.371 202.586 111.879 202.607 112.38C202.615 112.73 202.794 112.978 203.168 113.002C203.502 113.027 203.746 112.774 203.779 112.38C203.787 112.278 203.783 112.168 203.783 112.063C203.783 111.233 203.799 110.399 203.779 109.573C203.771 109.239 203.868 109.113 204.214 109.068C207.612 108.625 210.05 106.822 211.556 103.763C212.118 102.616 212.386 101.387 212.374 100.105C212.374 99.6376 212.195 99.4057 211.825 99.3935L211.829 99.3894Z" fill="#130C49"/>
<path d="M197.907 100.208C198.069 102.966 200.255 105.13 202.925 105.228C205.745 105.33 208.13 103.418 208.414 100.606C208.651 98.324 208.638 96.0051 208.423 93.7145C208.166 90.944 205.863 88.9993 203.124 89.0237C200.442 89.044 198.204 91.0497 197.935 93.7959C197.825 94.9025 197.915 96.0213 197.915 97.1361H197.894C197.894 98.1572 197.846 99.1825 197.903 100.204L197.907 100.208Z" fill="#A590DD"/>
<path d="M203.14 105.639C203.062 105.639 202.985 105.639 202.908 105.635C200.002 105.53 197.674 103.206 197.499 100.232C197.458 99.5164 197.466 98.7923 197.479 98.0925C197.483 97.7752 197.487 97.4578 197.487 97.1405L197.503 96.7337C197.503 96.5262 197.495 96.3187 197.491 96.1112C197.471 95.3423 197.454 94.5489 197.532 93.7597C197.821 90.8507 200.222 88.6416 203.123 88.6172C203.14 88.6172 203.16 88.6172 203.176 88.6172C206.135 88.6172 208.56 90.7816 208.829 93.6783C209.053 96.0827 209.049 98.4302 208.821 100.647C208.528 103.528 206.106 105.639 203.14 105.639ZM198.313 100.184C198.464 102.735 200.454 104.728 202.94 104.822C205.622 104.919 207.75 103.129 208.011 100.566C208.235 98.3976 208.239 96.1071 208.019 93.7556C207.787 91.2454 205.756 89.4349 203.18 89.4349C203.164 89.4349 203.148 89.4349 203.131 89.4349C200.649 89.4512 198.59 91.3471 198.341 93.841C198.268 94.5774 198.289 95.3463 198.305 96.0908C198.313 96.4407 198.321 96.7906 198.321 97.1405V97.5473H198.301C198.301 97.7345 198.297 97.9176 198.293 98.1047C198.28 98.7882 198.272 99.4961 198.313 100.184Z" fill="#130C49"/>
<path d="M103.585 87.1486C103.08 87.1486 102.58 87.0184 102.132 86.7621L75.5779 71.4364C74.6825 70.9197 74.125 69.9515 74.125 68.9181V38.2667C74.125 37.2333 74.6825 36.2691 75.5779 35.7484L102.132 20.4227C103.032 19.906 104.143 19.906 105.038 20.4227L131.592 35.7484C132.488 36.265 133.045 37.2293 133.045 38.2667V68.9181C133.045 69.9515 132.488 70.9157 131.592 71.4364L105.038 86.7621C104.59 87.0184 104.086 87.1486 103.585 87.1486ZM103.585 20.5691C103.174 20.5691 102.763 20.6749 102.401 20.8865L75.8465 36.2122C75.1139 36.6353 74.6581 37.4205 74.6581 38.2667V68.9181C74.6581 69.7602 75.1139 70.5495 75.8465 70.9726L102.401 86.2983C103.129 86.7214 104.041 86.7214 104.773 86.2983L131.328 70.9726C132.06 70.5495 132.516 69.7643 132.516 68.9181V38.2667C132.516 37.4205 132.06 36.6353 131.328 36.2122L104.773 20.8865C104.407 20.6749 104 20.5691 103.589 20.5691H103.585Z" fill="#130C49"/>
<path d="M103.585 87.2503C103.056 87.2503 102.535 87.112 102.08 86.8475L75.5253 71.5219C74.5974 70.9848 74.0195 69.9881 74.0195 68.9181V38.2667C74.0195 37.1967 74.5974 36.1959 75.5253 35.6629L102.08 20.3372C103.008 19.8043 104.159 19.8043 105.087 20.3372L131.642 35.6629C132.569 36.1999 133.143 37.1967 133.143 38.2667V68.9181C133.143 69.9881 132.565 70.9848 131.642 71.5219L105.087 86.8475C104.631 87.112 104.11 87.2503 103.581 87.2503H103.585ZM103.585 20.1379C103.101 20.1379 102.617 20.264 102.181 20.5122L75.627 35.8378C74.7602 36.3383 74.223 37.2699 74.223 38.2667V68.9181C74.223 69.9148 74.7602 70.8465 75.627 71.3469L102.181 86.6726C103.032 87.1608 104.139 87.1608 104.985 86.6726L131.54 71.3469C132.403 70.8465 132.94 69.9148 132.94 68.9181V38.2667C132.94 37.2699 132.403 36.3383 131.54 35.8378L104.985 20.5122C104.554 20.264 104.07 20.1379 103.581 20.1379H103.585ZM103.585 86.7133C103.158 86.7133 102.731 86.6034 102.348 86.3837L75.7939 71.0581C75.0288 70.6187 74.5567 69.7968 74.5567 68.9181V38.2667C74.5567 37.3838 75.0329 36.5661 75.7939 36.1267L102.348 20.801C103.093 20.3698 104.074 20.3698 104.823 20.801L131.377 36.1267C132.142 36.5661 132.614 37.3879 132.614 38.2667V68.9181C132.614 69.7968 132.138 70.6187 131.377 71.0581L104.823 86.3837C104.44 86.6034 104.013 86.7133 103.585 86.7133ZM103.585 20.6708C103.187 20.6708 102.792 20.7766 102.45 20.9719L75.8956 36.2976C75.1957 36.7004 74.7602 37.453 74.7602 38.2626V68.914C74.7602 69.7236 75.1957 70.4763 75.8956 70.879L102.45 86.2047C103.15 86.6075 104.021 86.6075 104.721 86.2047L131.275 70.879C131.975 70.4722 132.411 69.7195 132.411 68.914V38.2626C132.411 37.453 131.975 36.7004 131.275 36.2976L104.721 20.9719C104.379 20.7725 103.984 20.6708 103.585 20.6708Z" fill="#130C49"/>
<path d="M103.994 20.3613H103.18V43.8727H103.994V20.3613Z" fill="#130C49"/>
<path d="M74.9229 70.7118L74.5078 70.012L103.996 52.5098L132.895 70.0161L132.476 70.7118L103.992 53.4618L74.9229 70.7118Z" fill="#130C49"/>
<path d="M118.515 61.9622V45.2207C118.515 45.0702 118.434 44.9278 118.303 44.8546L103.799 36.4818C103.669 36.4045 103.506 36.4045 103.376 36.4818L88.8718 44.8546C88.7415 44.9319 88.6602 45.0702 88.6602 45.2207V61.9622C88.6602 62.1128 88.7415 62.2552 88.8718 62.3284L103.376 70.7012C103.506 70.7785 103.669 70.7785 103.799 70.7012L118.303 62.3284C118.434 62.2511 118.515 62.1128 118.515 61.9622Z" fill="#130C49"/>
<path d="M103.586 70.7613C103.317 70.7613 103.053 70.6922 102.813 70.5539L89.2771 62.7425C88.801 62.4659 88.5039 61.9532 88.5039 61.404V45.7773C88.5039 45.228 88.801 44.7154 89.2771 44.4388L102.813 36.6274C103.289 36.3508 103.883 36.3508 104.359 36.6274L117.895 44.4388C118.371 44.7154 118.668 45.228 118.668 45.7773V61.404C118.668 61.9532 118.371 62.4659 117.895 62.7425L104.359 70.5539C104.119 70.6922 103.855 70.7613 103.586 70.7613ZM103.586 36.7251C103.37 36.7251 103.159 36.782 102.967 36.8919L89.4318 44.7032C89.0492 44.9229 88.8132 45.3338 88.8132 45.7773V61.404C88.8132 61.8434 89.0492 62.2543 89.4318 62.4781L102.967 70.2894C103.35 70.5091 103.822 70.5132 104.205 70.2894L117.74 62.4781C118.123 62.2584 118.359 61.8475 118.359 61.404V45.7773C118.359 45.3379 118.123 44.927 117.74 44.7032L104.205 36.8919C104.013 36.782 103.802 36.7251 103.586 36.7251Z" fill="#130C49"/>
<path d="M107.842 47.9746V53.2106L103.585 50.7533L99.3279 53.2106V47.9746L94.2734 50.8957V56.441L99.0634 59.2115L103.585 56.5956L108.106 59.2115L112.892 56.441V50.9039L107.842 47.9746Z" fill="#61BD73"/>
<path d="M147.551 83.6587V70.4934C147.551 69.3867 146.961 68.3615 146.001 67.8082L134.598 61.2255C133.637 60.6722 132.453 60.6722 131.497 61.2255L120.093 67.8082C119.133 68.3615 118.543 69.3867 118.543 70.4934V83.6587C118.543 84.7653 119.133 85.7906 120.093 86.3439L131.497 92.9266C132.457 93.4799 133.641 93.4799 134.598 92.9266L146.001 86.3439C146.961 85.7906 147.551 84.7653 147.551 83.6587Z" fill="#61B973"/>
<path d="M133.044 93.749C132.438 93.749 131.831 93.5944 131.29 93.2812L119.883 86.6985C118.8 86.072 118.129 84.9084 118.129 83.6594V70.494C118.129 69.245 118.8 68.0815 119.883 67.4549L131.29 60.8722C132.373 60.2457 133.716 60.2457 134.798 60.8722L146.205 67.4549C147.288 68.0815 147.959 69.245 147.959 70.494V83.6594C147.959 84.9084 147.288 86.072 146.205 86.6985L134.798 93.2812C134.257 93.5944 133.651 93.749 133.044 93.749ZM133.044 61.2181C132.576 61.2181 132.112 61.336 131.697 61.5761L120.29 68.1588C119.46 68.6388 118.943 69.5339 118.943 70.494V83.6594C118.943 84.6195 119.46 85.5146 120.29 85.9947L131.697 92.5773C132.527 93.0574 133.561 93.0574 134.391 92.5773L145.798 85.9947C146.629 85.5146 147.145 84.6195 147.145 83.6594V70.494C147.145 69.5339 146.629 68.6388 145.798 68.1588L134.391 61.5761C133.976 61.336 133.508 61.2181 133.044 61.2181Z" fill="#130C49"/>
<path d="M132.6 79.5529C131.016 79.5529 129.73 78.2672 129.73 76.6846C129.73 75.102 131.016 73.8164 132.6 73.8164C134.183 73.8164 135.469 75.102 135.469 76.6846C135.469 78.2672 134.183 79.5529 132.6 79.5529ZM132.6 74.6301C131.468 74.6301 130.544 75.5495 130.544 76.6846C130.544 77.8197 131.464 78.7392 132.6 78.7392C133.735 78.7392 134.655 77.8197 134.655 76.6846C134.655 75.5495 133.735 74.6301 132.6 74.6301Z" fill="#130C49"/>
<path d="M132.6 71.6935C131.016 71.6935 129.73 70.4079 129.73 68.8253C129.73 67.2426 131.016 65.957 132.6 65.957C134.183 65.957 135.469 67.2426 135.469 68.8253C135.469 70.4079 134.183 71.6935 132.6 71.6935ZM132.6 66.7748C131.468 66.7748 130.544 67.6942 130.544 68.8293C130.544 69.9644 131.464 70.8839 132.6 70.8839C133.735 70.8839 134.655 69.9644 134.655 68.8293C134.655 67.6942 133.735 66.7748 132.6 66.7748Z" fill="#130C49"/>
<path d="M140.6 79.5529C139.016 79.5529 137.73 78.2672 137.73 76.6846C137.73 75.102 139.016 73.8164 140.6 73.8164C142.183 73.8164 143.469 75.102 143.469 76.6846C143.469 78.2672 142.183 79.5529 140.6 79.5529ZM140.6 74.6301C139.468 74.6301 138.544 75.5495 138.544 76.6846C138.544 77.8197 139.464 78.7392 140.6 78.7392C141.735 78.7392 142.655 77.8197 142.655 76.6846C142.655 75.5495 141.735 74.6301 140.6 74.6301Z" fill="#130C49"/>
<path d="M127.389 86.1036C125.806 86.1036 124.52 84.818 124.52 83.2354C124.52 81.6528 125.806 80.3672 127.389 80.3672C128.972 80.3672 130.258 81.6528 130.258 83.2354C130.258 84.818 128.972 86.1036 127.389 86.1036ZM127.389 81.1849C126.257 81.1849 125.333 82.1044 125.333 83.2395C125.333 84.3746 126.253 85.294 127.389 85.294C128.524 85.294 129.444 84.3746 129.444 83.2395C129.444 82.1044 128.52 81.1849 127.389 81.1849Z" fill="#130C49"/>
<path d="M135.986 86.9298C134.403 86.9298 133.117 85.6442 133.117 84.0616C133.117 82.479 134.403 81.1934 135.986 81.1934C137.569 81.1934 138.855 82.479 138.855 84.0616C138.855 85.6442 137.569 86.9298 135.986 86.9298ZM135.986 82.007C134.855 82.007 133.931 82.9265 133.931 84.0616C133.931 85.1967 134.851 86.1161 135.986 86.1161C137.122 86.1161 138.041 85.1967 138.041 84.0616C138.041 82.9265 137.122 82.007 135.986 82.007Z" fill="#130C49"/>
<path d="M138.135 76.2793H135.059V77.093H138.135V76.2793Z" fill="#130C49"/>
<path d="M134.096 78.7873L133.352 79.1172L134.599 81.9287L135.343 81.5988L134.096 78.7873Z" fill="#130C49"/>
<path d="M133.005 71.1523H132.191V74.2281H133.005V71.1523Z" fill="#130C49"/>
<path d="M130.472 78.3798L128.641 80.8516L129.295 81.3358L131.126 78.864L130.472 78.3798Z" fill="#130C49"/>
</g>
<defs>
<clipPath id="clip0_5367_1242">
<rect width="216" height="113" fill="white"/>
</clipPath>
</defs>
</svg>
