<svg width="60" height="60" viewBox="0 0 60 60" fill="none" xmlns="http://www.w3.org/2000/svg">
<g id="Group">
<path id="Vector" d="M46.5075 0H13.4925C6.04081 0 0 6.0408 0 13.4925V46.5075C0 53.9592 6.04081 60 13.4925 60H46.5075C53.9592 60 60 53.9592 60 46.5075V13.4925C60 6.0408 53.9592 0 46.5075 0Z" fill="#130C49"/>
<path id="Vector_2" d="M20.6505 14.4365H14.418V20.669H20.6505V14.4365Z" fill="#61D384"/>
<path id="Vector_3" d="M20.6505 39.3447H14.418V45.5772H20.6505V39.3447Z" fill="#61D384"/>
<path id="Vector_4" d="M45.5919 14.4297H39.3594V20.6622H45.5919V14.4297Z" fill="#61D384"/>
<path id="Vector_5" d="M45.5919 39.3379H39.3594V45.5704H45.5919V39.3379Z" fill="#61D384"/>
<path id="Vector_6" d="M20.6523 20.6621V39.3596H39.3573V20.6621H20.6523ZM30.0048 33.1271C28.2873 33.1271 26.8923 31.7321 26.8923 30.0146C26.8923 28.2971 28.2873 26.9021 30.0048 26.9021C31.7223 26.9021 33.1173 28.2971 33.1173 30.0146C33.1173 31.7321 31.7223 33.1271 30.0048 33.1271Z" fill="#A254EC"/>
</g>
</svg>
