<svg width="60" height="60" viewBox="0 0 60 60" fill="none" xmlns="http://www.w3.org/2000/svg">
<g id="Group">
<path id="Vector" d="M46.5075 0H13.4925C6.0408 0 0 6.0408 0 13.4925V46.5075C0 53.9592 6.0408 60 13.4925 60H46.5075C53.9592 60 60 53.9592 60 46.5075V13.4925C60 6.0408 53.9592 0 46.5075 0Z" fill="#130C49"/>
<path id="Vector_2" d="M29.9792 33.0297C31.6526 33.0297 33.0092 31.6732 33.0092 29.9997C33.0092 28.3263 31.6526 26.9697 29.9792 26.9697C28.3058 26.9697 26.9492 28.3263 26.9492 29.9997C26.9492 31.6732 28.3058 33.0297 29.9792 33.0297Z" fill="#A254EC"/>
<path id="Vector_3" d="M26.8906 14.4297H20.7031H14.5231H14.5156V20.6097H14.5231V26.8047H20.7031V20.6097H26.8906V14.4297Z" fill="#61D384"/>
<path id="Vector_4" d="M45.5469 26.8184V20.6309V14.4509V14.4434H39.3669V14.4509H33.1719V20.6309H39.3669V26.8184H45.5469Z" fill="#61D384"/>
<path id="Vector_5" d="M33.1719 45.5469H39.3594H45.5394H45.5469V39.3669H45.5394V33.1719H39.3594V39.3669H33.1719V45.5469Z" fill="#61D384"/>
<path id="Vector_6" d="M14.4336 33.1582V39.3457V45.5257V45.5332H20.6136V45.5257H26.8086V39.3457H20.6136V33.1582H14.4336Z" fill="#61D384"/>
</g>
</svg>
