<svg width="60" height="60" viewBox="0 0 60 60" fill="none" xmlns="http://www.w3.org/2000/svg">
<g id="Group">
<path id="Vector" d="M46.5075 0H13.4925C6.04079 0 0 6.0408 0 13.4925V46.5075C0 53.9592 6.04079 60 13.4925 60H46.5075C53.9592 60 60 53.9592 60 46.5075V13.4925C60 6.0408 53.9592 0 46.5075 0Z" fill="#130C49"/>
<g id="Group_2">
<path id="Vector_2" d="M32.8591 21.4277H27.1366H21.4216H21.4141V27.1427H21.4216V32.8652H27.1366V27.1427H32.8591V21.4277Z" fill="#61D384"/>
<path id="Vector_3" d="M27.1328 38.5732H32.8553H38.5703H38.5778V32.8582H38.5703V27.1357H32.8553V32.8582H27.1328V38.5732Z" fill="#61D384"/>
</g>
<path id="Vector_4" d="M29.998 45.8914C38.7752 45.8914 45.8905 38.7761 45.8905 29.9989C45.8905 21.2218 38.7752 14.1064 29.998 14.1064C21.2208 14.1064 14.1055 21.2218 14.1055 29.9989C14.1055 38.7761 21.2208 45.8914 29.998 45.8914Z" stroke="#A254EC" stroke-width="3.75293" stroke-miterlimit="10"/>
</g>
</svg>
