<svg width="60" height="60" viewBox="0 0 60 60" fill="none" xmlns="http://www.w3.org/2000/svg">
<g id="Group">
<path id="Vector" d="M46.5075 0H13.4925C6.04079 0 0 6.0408 0 13.4925V46.5075C0 53.9592 6.04079 60 13.4925 60H46.5075C53.9592 60 60 53.9592 60 46.5075V13.4925C60 6.0408 53.9592 0 46.5075 0Z" fill="#130C49"/>
<g id="Group_2">
<path id="Vector_2" d="M45.5801 14.416H14.4102V20.386V20.6635V33.121H20.6501V20.6635H45.5801V14.416Z" fill="#7487EC"/>
<path id="Vector_3" d="M39.3326 26.8887V39.3462H14.4102V45.5937H45.5801V39.6237V39.3462V26.8887H39.3326Z" fill="#7487EC"/>
<path id="Vector_4" d="M29.9942 26.7764H29.9867C28.2056 26.7764 26.7617 28.2202 26.7617 30.0014C26.7617 31.7825 28.2056 33.2264 29.9867 33.2264H29.9942C31.7753 33.2264 33.2192 31.7825 33.2192 30.0014C33.2192 28.2202 31.7753 26.7764 29.9942 26.7764Z" fill="#97DF44"/>
</g>
</g>
</svg>
