<svg width="60" height="60" viewBox="0 0 60 60" fill="none" xmlns="http://www.w3.org/2000/svg">
<g id="Group">
<path id="Vector" d="M46.5075 0H13.4925C6.04081 0 0 6.0408 0 13.4925V46.5075C0 53.9592 6.04081 60 13.4925 60H46.5075C53.9592 60 60 53.9592 60 46.5075V13.4925C60 6.0408 53.9592 0 46.5075 0Z" fill="#130C49"/>
<path id="Vector_2" d="M17.4933 45.6064H17.5008C19.2198 45.6064 20.6133 44.2129 20.6133 42.4939C20.6133 40.775 19.2198 39.3814 17.5008 39.3814H17.4933C15.7743 39.3814 14.3808 40.775 14.3808 42.4939C14.3808 44.2129 15.7743 45.6064 17.4933 45.6064Z" fill="#61D384"/>
<path id="Vector_3" d="M42.5206 20.6846H42.5281C44.2471 20.6846 45.6406 19.2911 45.6406 17.5721C45.6406 15.8531 44.2471 14.4596 42.5281 14.4596H42.5206C40.8016 14.4596 39.4081 15.8531 39.4081 17.5721C39.4081 19.2911 40.8016 20.6846 42.5206 20.6846Z" fill="#61D384"/>
<path id="Vector_4" d="M45.652 45.6073H26.9545L26.8945 33.1498H33.0745L33.127 26.9248H45.652V45.6073Z" fill="#A254EC"/>
<path id="Vector_5" d="M14.3281 14.4365H33.0331L33.0856 26.8865H26.9131L26.8606 33.119H14.3281V14.4365Z" fill="#61D384"/>
</g>
</svg>
