<svg width="10" height="9" viewBox="0 0 10 9" fill="none" xmlns="http://www.w3.org/2000/svg">
<path id="Vector" d="M9.93925 2.54582C9.97834 2.75937 10.0032 2.97666 9.99966 3.1977C9.99611 4.23921 9.53764 5.08216 8.92634 5.84643C7.97029 7.05278 6.76546 7.94069 5.53219 8.79487C5.14124 9.06462 4.85692 9.07211 4.46597 8.79487C3.28246 7.97066 2.12739 7.12022 1.18556 5.98505C0.631125 5.31818 0.161989 4.59138 0.0375959 3.69223C-0.193419 2.04755 0.652446 0.38413 2.23756 0.0619362C3.24337 -0.140371 4.11057 0.223034 4.7965 1.01728C4.95999 1.20835 5.03107 1.21584 5.20167 1.02102C5.96579 0.155596 6.91118 -0.215301 7.99873 0.125625C9.11471 0.474043 9.72245 1.34696 9.93925 2.53833V2.54582Z" fill="#61BD73"/>
</svg>
