<svg width="60" height="60" viewBox="0 0 60 60" fill="none" xmlns="http://www.w3.org/2000/svg">
<g id="Group">
<path id="Vector" d="M46.5075 0H13.4925C6.0408 0 0 6.0408 0 13.4925V46.5075C0 53.9592 6.0408 60 13.4925 60H46.5075C53.9592 60 60 53.9592 60 46.5075V13.4925C60 6.0408 53.9592 0 46.5075 0Z" fill="#130C49"/>
<path id="Vector_2" d="M45.502 14.4736H26.8945V20.6986H45.502V14.4736Z" fill="#7487EC"/>
<path id="Vector_3" d="M39.4645 26.8877H26.8945V33.1127H39.4645V26.8877Z" fill="#7487EC"/>
<path id="Vector_4" d="M45.5995 39.293H26.8945V45.518H45.5995V39.293Z" fill="#7487EC"/>
<path id="Vector_5" d="M17.53 20.6245C19.2034 20.6245 20.56 19.2679 20.56 17.5945C20.56 15.921 19.2034 14.5645 17.53 14.5645C15.8566 14.5645 14.5 15.921 14.5 17.5945C14.5 19.2679 15.8566 20.6245 17.53 20.6245Z" fill="#97DF44"/>
<path id="Vector_6" d="M17.53 33.0297C19.2034 33.0297 20.56 31.6732 20.56 29.9997C20.56 28.3263 19.2034 26.9697 17.53 26.9697C15.8566 26.9697 14.5 28.3263 14.5 29.9997C14.5 31.6732 15.8566 33.0297 17.53 33.0297Z" fill="#97DF44"/>
<path id="Vector_7" d="M17.53 45.434C19.2034 45.434 20.56 44.0774 20.56 42.404C20.56 40.7306 19.2034 39.374 17.53 39.374C15.8566 39.374 14.5 40.7306 14.5 42.404C14.5 44.0774 15.8566 45.434 17.53 45.434Z" fill="#97DF44"/>
</g>
</svg>
