<svg width="122" height="32" viewBox="0 0 122 32" fill="none" xmlns="http://www.w3.org/2000/svg">
<path d="M111.733 11.5807C114.577 11.5222 116.733 13.0415 117.3 15.5444H106.69C107.091 13.3176 109.24 11.6329 111.733 11.5807ZM121.671 19.405C122.325 13.2667 118.823 8.41739 113.422 7.87787C107.155 7.25437 102.759 10.8516 102.267 17.0065C101.834 22.4589 105.72 27.1136 111.046 27.517C116.001 27.8898 120.975 24.8321 121.182 21.245C119.855 21.245 118.528 21.2297 117.202 21.2628C117.005 21.2679 116.752 21.4562 116.626 21.6331C115.188 23.6563 113.162 24.047 110.897 23.6589C108.698 23.2809 107.353 21.8863 106.647 19.8237C106.608 19.7092 106.629 19.5743 106.622 19.4038L121.671 19.405Z" fill="black"/>
<path d="M14.8207 3.37333C15.6121 3.33133 16.3069 3.71943 16.8108 4.44346C20.8725 10.2904 24.9329 16.1373 28.9806 21.9932C29.8166 23.2033 29.5493 24.6513 28.4067 25.4479C27.2818 26.2304 25.7765 25.9187 24.9163 24.6844C22.1169 20.666 19.3302 16.6374 16.5385 12.6126C16.4876 12.5363 16.4367 12.4612 16.3832 12.3861C15.2762 10.821 14.1819 10.8185 13.0952 12.3836C10.2755 16.4453 7.45442 20.5057 4.64357 24.5737C4.17912 25.2456 3.61288 25.7444 2.77687 25.8334C1.75127 25.9441 0.927994 25.5828 0.387201 24.6882C-0.166317 23.7721 -0.119237 22.8521 0.482635 21.9779C1.83398 20.0183 3.19806 18.0676 4.55831 16.1144C7.23937 12.264 9.9268 8.41607 12.6002 4.56053C13.1181 3.81232 13.7709 3.35806 14.8207 3.37333Z" fill="#FF008C"/>
<path d="M46.5235 11.7194C50.6386 10.8465 53.8058 13.5734 53.634 17.8692C53.6123 18.5319 53.5119 19.1897 53.335 19.8288C52.5651 22.5111 50.3065 24.019 47.4995 23.7759C44.6416 23.5278 42.5751 21.5402 42.2888 18.7561C42.2481 18.3693 42.2379 17.9799 42.2239 17.7534C42.271 14.5786 43.9659 12.2615 46.5235 11.7194ZM57.5341 8.15653H53.4991V9.72801C53.3452 9.67457 53.2739 9.66821 53.2268 9.63131C50.491 7.49358 47.4346 7.38542 44.3018 8.38557C40.5404 9.58677 38.1508 13.1789 38.1101 17.5294C38.0732 21.3977 39.5441 24.5865 43.0179 26.4201C46.4726 28.2422 49.9846 28.0488 53.2612 25.7368C53.3057 25.7062 53.3782 25.7139 53.5144 25.6922V27.2345H57.5354L57.5341 8.15653Z" fill="black"/>
<path d="M94.2915 11.8607H84.3664V8.16553H99.8916C99.8916 9.24584 99.9171 10.3134 99.8713 11.3785C99.8624 11.6101 99.6231 11.8518 99.4501 12.0554C96.4089 15.6285 93.3588 19.1977 90.3138 22.7695C90.1662 22.94 90.0288 23.1194 89.8023 23.4006H99.8445V27.2129H84.1895C84.1895 26.125 84.1679 25.0548 84.2073 23.986C84.215 23.7735 84.4275 23.5495 84.584 23.3625C87.676 19.7118 90.7757 16.0649 93.8704 12.4168C93.9849 12.2819 94.0867 12.1343 94.2915 11.8607Z" fill="black"/>
<path d="M66.2693 27.3897H62.2344V8.29527H66.2681V10.3503C67.3382 9.70388 68.3422 8.99894 69.4288 8.4696C70.5601 7.91862 71.8172 7.92244 73.119 8.00897V11.9281C72.9116 11.9434 72.7143 11.9688 72.5158 11.9714C69.3576 12.0083 67.1639 13.7783 66.4971 16.8983C66.3368 17.6516 66.2871 18.4393 66.2795 19.2129C66.2528 21.684 66.2693 24.1552 66.2693 26.6263V27.3897Z" fill="black"/>
<path d="M76.5469 8.12085H80.5309V27.2331H76.5481L76.5469 8.12085Z" fill="black"/>
<path d="M14.7197 26.046C16.3917 26.0422 17.7036 27.3185 17.7188 28.9651C17.7354 30.6231 16.3624 32.0164 14.7286 31.9999C13.9417 31.9905 13.1902 31.6713 12.6371 31.1115C12.084 30.5518 11.7739 29.7965 11.7739 29.0096C11.7667 28.6199 11.8379 28.2327 11.9831 27.871C12.1284 27.5093 12.3448 27.1804 12.6195 26.9039C12.8942 26.6274 13.2217 26.4089 13.5824 26.2613C13.9432 26.1137 14.3299 26.0401 14.7197 26.0448V26.046Z" fill="#FF008C"/>
<path d="M81.3422 2.81608C81.346 4.40665 80.1207 5.66639 78.5594 5.68038C78.1823 5.68443 77.8082 5.61349 77.4588 5.47168C77.1094 5.32987 76.7917 5.12003 76.5241 4.85434C76.2565 4.58865 76.0444 4.27242 75.9001 3.92404C75.7558 3.57566 75.6822 3.20207 75.6836 2.82499C75.6839 2.45348 75.7575 2.08567 75.9001 1.7426C76.0426 1.39953 76.2514 1.08791 76.5144 0.825565C76.7775 0.56322 77.0897 0.355289 77.4331 0.213658C77.7766 0.0720265 78.1446 -0.000528316 78.5161 0.000140626C78.8874 -0.00358198 79.2557 0.0666376 79.5996 0.206707C79.9435 0.346776 80.2561 0.553893 80.5192 0.815987C80.7822 1.07808 80.9904 1.38991 81.1318 1.7333C81.2731 2.07669 81.3446 2.44477 81.3422 2.81608Z" fill="black"/>
</svg>
