<svg xmlns="http://www.w3.org/2000/svg" width="97" height="26" viewBox="0 0 97 26"><g><g><g><g><path d="M88.245 9.527c2.235-.046 3.929 1.148 4.375 3.115h-8.338c.315-1.75 2.004-3.074 3.963-3.115zm7.81 6.149c.514-4.824-2.238-8.635-6.483-9.059-4.925-.49-8.38 2.337-8.766 7.174-.341 4.285 2.713 7.943 6.899 8.26 3.894.293 7.803-2.11 7.966-4.929-1.043 0-2.086-.012-3.128.014-.155.004-.354.152-.453.291-1.13 1.59-2.722 1.897-4.502 1.592-1.728-.297-2.785-1.393-3.34-3.014-.031-.09-.014-.196-.02-.33h11.827z"/></g><g><path fill="#ff008c" d="M12.084 3.077c.622-.033 1.168.272 1.564.841 3.192 4.595 6.383 9.19 9.564 13.792.657.951.447 2.089-.451 2.715-.884.615-2.067.37-2.743-.6-2.2-3.158-4.39-6.324-6.584-9.487-.04-.06-.08-.119-.122-.178-.87-1.23-1.73-1.232-2.584-.002-2.216 3.192-4.433 6.383-6.642 9.58-.365.528-.81.92-1.467.99-.806.087-1.453-.197-1.878-.9-.435-.72-.398-1.443.075-2.13 1.062-1.54 2.134-3.073 3.203-4.608 2.107-3.026 4.219-6.05 6.32-9.08.407-.588.92-.945 1.745-.933z"/></g><g><path d="M37.001 9.636c3.234-.686 5.723 1.457 5.588 4.833a6.579 6.579 0 0 1-.235 1.54c-.605 2.108-2.38 3.293-4.586 3.102-2.246-.195-3.87-1.757-4.095-3.945-.032-.304-.04-.61-.051-.788.037-2.495 1.37-4.316 3.38-4.742zm8.653-2.8h-3.171v1.235c-.121-.042-.177-.047-.214-.076-2.15-1.68-4.552-1.765-7.014-.979-2.956.944-4.834 3.767-4.866 7.186-.029 3.04 1.127 5.546 3.857 6.987 2.715 1.432 5.475 1.28 8.05-.537.035-.024.092-.018.199-.035v1.212h3.16z"/></g><g><path d="M74.542 9.747h-7.8V6.843h12.201c0 .849.02 1.688-.016 2.525-.007.182-.195.372-.331.532-2.39 2.808-4.787 5.613-7.18 8.42-.116.134-.224.275-.402.496h7.892v2.996H66.603c0-.855-.017-1.696.014-2.536.006-.167.173-.343.296-.49 2.43-2.869 4.866-5.735 7.298-8.602.09-.106.17-.222.331-.437z"/></g><g><path d="M52.517 21.951h-3.171V6.945h3.17V8.56c.841-.508 1.63-1.062 2.484-1.478.889-.433 1.877-.43 2.9-.362V9.8c-.163.012-.318.032-.474.034-2.482.029-4.206 1.42-4.73 3.872-.126.592-.165 1.211-.171 1.819-.021 1.942-.008 3.884-.008 5.826z"/></g><g><path d="M60.596 6.808h3.131v15.02h-3.13z"/></g><g><path fill="#ff008c" d="M12.006 20.895c1.314-.003 2.345 1 2.357 2.294.013 1.303-1.066 2.398-2.35 2.385a2.35 2.35 0 0 1-2.322-2.35 2.288 2.288 0 0 1 2.315-2.33z"/></g><g><path d="M64.366 2.639c.003 1.25-.96 2.24-2.187 2.251a2.236 2.236 0 0 1-2.26-2.244 2.222 2.222 0 0 1 2.226-2.22 2.199 2.199 0 0 1 2.221 2.213z"/></g></g></g></g></svg>