<svg xmlns="http://www.w3.org/2000/svg" fill="none" viewBox="0 0 600 300">
<rect width="600" height="300" fill="white"/>
<path d="M232 149.5C232 205.005 187.005 250 131.5 250C75.9954 250 31 205.005 31 149.5C31 93.9954 75.9954 49 131.5 49C187.005 49 232 93.9954 232 149.5Z" stroke="#7FB5B5" stroke-width="10"/>
<path d="M194.153 151.873C179.042 162.134 165.017 175.718 151.425 187.77C144.881 193.575 101.125 231.834 93.6663 214.496C89.943 205.864 111.713 181.447 119.764 171.801C134.121 154.592 148.833 137.966 161.647 119.775C161.701 119.691 161.723 119.594 161.712 119.497C161.699 119.4 161.655 119.309 161.583 119.239C161.512 119.169 161.417 119.123 161.316 119.109C161.213 119.094 161.11 119.112 161.019 119.16C133.128 135.171 113.757 158.908 90.434 179.667C85.1345 184.382 77.9502 189.971 70.6976 191.179C48.3456 194.924 58.9676 167.583 63.719 159.264C74.4667 140.458 93.2095 119.893 110.239 103.493C110.505 103.241 110.483 103.015 110.171 102.813C106.47 100.504 95.2196 95.0451 105.167 90.6754C112.569 87.4313 119.993 84.2448 127.44 81.1159C132.191 79.1199 136.212 79.3788 135.458 85.4209C134.452 93.4626 133.566 101.511 132.797 109.568C131.94 118.566 124.653 112.373 120.998 110.69C120.595 110.503 120.252 110.571 119.97 110.894C103.192 130.23 83.7981 150.935 73.1875 173.992C72.8676 174.682 73.0199 174.798 73.6443 174.337C89.2919 162.922 103.375 147.687 117.286 134.373C125.635 126.378 163.931 95.0559 175.958 104.453C182.001 109.169 178.7 118.706 175.205 124.22C162.07 144.925 142.779 166.86 127.794 183.67C123.804 188.143 120.302 192.489 117.286 196.704C116.761 197.452 116.895 197.578 117.686 197.082C142.105 181.889 162.892 163.062 185.028 145.217C189.813 141.364 201.874 132.15 208.476 135.377C222.673 142.292 195.513 168.381 188.889 174.218C186.124 176.657 181.27 174.962 183.337 171.424C187.091 165.022 190.826 158.613 194.542 152.197C194.914 151.556 194.785 151.449 194.153 151.873Z" fill="#7FB5B5"/>
<path d="M177.197 182.699C178.466 183.78 180.807 183.118 182.426 181.218C184.044 179.316 184.329 176.898 183.059 175.815C181.79 174.732 179.449 175.395 177.83 177.295C176.21 179.196 175.927 181.616 177.197 182.699Z" fill="#7FB5B5"/>
<path d="M170.71 190.087C171.98 191.17 174.321 190.506 175.94 188.606C177.558 186.705 177.842 184.286 176.573 183.203C175.303 182.12 172.962 182.783 171.343 184.683C169.724 186.585 169.441 189.004 170.71 190.087Z" fill="#7FB5B5"/>
<path d="M163.999 197.699C165.268 198.782 167.609 198.119 169.229 196.218C170.848 194.316 171.131 191.898 169.862 190.815C168.593 189.732 166.251 190.395 164.633 192.296C163.014 194.197 162.73 196.616 163.999 197.699Z" fill="#7FB5B5"/>
<path d="M157.642 204.518C158.798 205.503 160.929 204.899 162.403 203.169C163.877 201.439 164.134 199.238 162.979 198.251C161.824 197.266 159.693 197.869 158.219 199.6C156.746 201.33 156.487 203.532 157.642 204.518Z" fill="#7FB5B5"/>
<path d="M151.806 210.729C152.89 211.653 154.887 211.088 156.268 209.466C157.649 207.845 157.891 205.78 156.809 204.857C155.726 203.933 153.728 204.498 152.347 206.12C150.966 207.741 150.724 209.806 151.806 210.729Z" fill="#7FB5B5"/>
<path d="M365.905 194.585C366.997 197.076 365.905 200.033 363.407 201.123C362.627 201.434 362.003 201.59 361.378 201.59C359.349 201.59 357.632 200.5 356.852 198.632L345.146 172.17H289.738L278.188 198.632C277.095 201.123 274.13 202.212 271.632 201.123C269.135 200.033 267.887 197.076 268.979 194.585L312.837 94.6507C313.774 92.7827 315.491 91.6931 317.52 91.6931C319.393 91.6931 321.266 92.7827 322.046 94.6507L365.905 194.585ZM294.108 162.208H340.776L317.52 108.971L294.108 162.208ZM409.688 117.533C412.498 117.533 414.683 119.712 414.683 122.358C414.683 125.16 412.498 127.339 409.688 127.339C395.953 127.339 385.496 138.547 385.496 153.335V154.113C385.496 154.269 385.496 154.425 385.496 154.58V196.609C385.496 199.411 383.311 201.59 380.501 201.59C377.848 201.59 375.663 199.411 375.663 196.609V122.358C375.663 119.712 377.848 117.533 380.501 117.533C383.311 117.533 385.496 119.712 385.496 122.358V127.495C391.583 121.269 400.011 117.533 409.688 117.533ZM488.129 117.533C490.783 117.533 493.124 119.712 493.124 122.358V207.972C493.124 228.052 476.736 244.397 456.601 244.397C443.335 244.397 431.16 237.236 424.605 225.562C423.356 223.227 424.137 220.269 426.634 218.868C428.975 217.623 432.097 218.401 433.345 220.892C438.028 229.297 446.924 234.434 456.601 234.434C471.273 234.434 483.135 222.604 483.135 207.972V191.316C476.892 197.698 468.307 201.59 458.63 201.59C438.964 201.59 423.981 186.024 423.981 165.165V122.358C423.981 119.712 426.322 117.533 428.975 117.533C431.785 117.533 433.97 119.712 433.97 122.358V165.165C433.97 180.264 444.583 191.627 458.63 191.627C472.521 191.627 483.135 180.264 483.135 165.165V122.358C483.135 119.712 485.32 117.533 488.129 117.533ZM561.632 128.273C567.407 134.811 570.528 143.684 570.528 153.335V196.609C570.528 199.411 568.343 201.59 565.69 201.59C562.88 201.59 560.695 199.411 560.695 196.609V153.335C560.695 138.391 550.862 127.339 537.283 127.339C523.236 127.339 512.311 138.858 512.311 153.335V154.113C512.311 154.269 512.311 154.425 512.311 154.58V196.609C512.311 199.411 510.125 201.59 507.316 201.59C504.663 201.59 502.478 199.411 502.478 196.609V122.358C502.478 119.712 504.663 117.533 507.316 117.533C510.125 117.533 512.311 119.712 512.311 122.358V127.962C518.71 121.424 527.45 117.533 537.283 117.533C546.804 117.533 555.545 121.269 561.632 128.273Z" fill="#7FB5B5"/>
</svg>