<svg width="226" height="24" viewBox="0 0 226 24" fill="none" xmlns="http://www.w3.org/2000/svg">
<g id="astronomer-logo-RGB-standard 1">
<path id="Vector" fill-rule="evenodd" clip-rule="evenodd" d="M26.4275 3.13692C25.7987 4.09166 25.4847 5.1372 25.4847 6.27384C25.4847 7.73284 25.8258 8.90176 26.5087 9.78089C27.1919 10.6607 27.9989 11.3092 28.9311 11.7271C29.8628 12.1456 31.0987 12.58 32.6381 13.0304C33.7648 13.331 34.6481 13.6094 35.2882 13.8672C35.9273 14.1244 36.4583 14.4679 36.8813 14.8966C37.3039 15.3255 37.5152 15.8836 37.5152 16.5694C37.5152 17.5137 37.1086 18.3125 36.2959 18.9667C35.4832 19.6213 34.3719 19.9477 32.9629 19.9477C30.7304 19.9477 28.8224 19.1224 27.2405 17.4704L24.8344 19.7873C25.6148 20.7095 26.7037 21.5032 28.1021 22.1679C29.5002 22.8332 31.1205 23.165 32.9629 23.165C34.589 23.165 36.0196 22.8648 37.255 22.2644C38.4907 21.6642 39.4386 20.8601 40.1001 19.8512C40.7612 18.8434 41.0921 17.7491 41.0921 16.5694C41.0921 15.1111 40.7507 13.9421 40.0678 13.0627C39.3849 12.1836 38.5773 11.5344 37.6457 11.1162C36.7131 10.698 35.4774 10.2636 33.9387 9.81316C32.8111 9.51294 31.9277 9.23392 31.2886 8.97673C30.6489 8.71922 30.1182 8.37598 29.6956 7.94701C29.2726 7.51836 29.0613 6.96095 29.0613 6.27384C29.0613 5.41622 29.4353 4.69241 30.1831 4.10242C30.9309 3.51243 31.9658 3.21759 33.2884 3.21759C34.2638 3.21759 35.1577 3.41626 35.9707 3.81264C36.7837 4.20998 37.4718 4.67628 38.0354 5.21249L40.4415 2.89555C39.7043 2.12365 38.7129 1.44793 37.4663 0.868695C36.2198 0.289776 34.8271 0 33.2884 0C31.7055 0 30.3238 0.284398 29.1428 0.852562C27.9605 1.42104 27.0561 2.18281 26.4275 3.13692ZM142.31 3.33369C143.309 3.49376 144.254 3.82245 145.142 4.32734C146.443 5.06728 147.467 6.08118 148.214 7.36809C148.962 8.655 149.336 10.0599 149.336 11.5828C149.336 13.1057 148.962 14.5106 148.214 15.7975C147.467 17.0844 146.443 18.0977 145.142 18.8377C143.841 19.5779 142.421 19.9477 140.882 19.9477C139.343 19.9477 137.923 19.5779 136.623 18.8377C136.464 18.7472 136.309 18.6523 136.158 18.5536L134.892 21.6845C136.702 22.6693 138.699 23.165 140.882 23.165C143.115 23.165 145.152 22.6506 146.995 21.6209C148.837 20.5912 150.284 19.1917 151.336 17.422C152.387 15.6527 152.913 13.7062 152.913 11.5828C152.913 9.45916 152.387 7.51267 151.336 5.74301C150.284 3.97366 148.837 2.57382 146.995 1.54442C145.914 0.940507 144.764 0.518813 143.549 0.269213L142.31 3.33369ZM95.4229 3.33369C96.4217 3.49376 97.3661 3.82245 98.2539 4.32734C99.5548 5.06728 100.579 6.08118 101.327 7.36809C102.075 8.655 102.448 10.0599 102.448 11.5828C102.448 13.1057 102.075 14.5106 101.327 15.7975C100.579 17.0844 99.5548 18.0977 98.2539 18.8377C96.9533 19.5779 95.5332 19.9477 93.9944 19.9477C92.4551 19.9477 91.0356 19.5779 89.735 18.8377C89.5758 18.7472 89.4211 18.6523 89.2702 18.5536L88.0048 21.6845C89.8149 22.6693 91.8109 23.165 93.9944 23.165C96.227 23.165 98.2648 22.6506 100.107 21.6209C101.949 20.5912 103.396 19.1917 104.448 17.422C105.499 15.6527 106.025 13.7062 106.025 11.5828C106.025 9.45916 105.499 7.51267 104.448 5.74301C103.396 3.97366 101.949 2.57382 100.107 1.54442C99.0266 0.940507 97.8766 0.518813 96.6614 0.269213L95.4229 3.33369ZM208.279 0.321727V22.8436H211.856V14.4784H217.221L221.936 22.8436H226L220.863 13.8991C222.185 13.3414 223.236 12.4835 224.017 11.3253C224.797 10.1668 225.187 8.85905 225.187 7.39973C225.187 6.07011 224.867 4.86957 224.228 3.79651C223.588 2.7244 222.7 1.87722 221.562 1.25496C220.424 0.633015 219.139 0.321727 217.708 0.321727H208.279ZM211.856 3.539H217.708C218.857 3.539 219.795 3.89869 220.521 4.61712C221.247 5.33587 221.61 6.2634 221.61 7.39973C221.61 8.51549 221.247 9.43797 220.521 10.1668C219.795 10.8963 218.857 11.2608 217.708 11.2608H211.856V3.539ZM186.591 0.321727V22.8436H203.011V19.626H190.167V12.7729H200.085V9.55565H190.167V3.539H202.686V0.321727H186.591ZM177.779 0.321727L169.195 11.2285H169.13L160.546 0.321727H157.262V22.8436H160.839V6.37033H160.969L169.13 16.7305L177.292 6.37033H177.422V22.8436H180.999V0.321727H177.779ZM126.49 0.321727V16.7627H126.392L113.971 0.321727H110.72V22.8436H114.296V6.4026H114.394L126.815 22.8436H130.066V0.321727H126.49ZM66.8182 0.321727V22.8436H70.3951V14.4784H75.76L80.4751 22.8436H84.5392L79.4018 13.8991C80.7235 13.3414 81.7753 12.4835 82.5557 11.3253C83.3358 10.1668 83.7261 8.85905 83.7261 7.39973C83.7261 6.07011 83.4064 4.86957 82.767 3.79651C82.1273 2.7244 81.2388 1.87722 80.1007 1.25496C78.9625 0.633015 77.6783 0.321727 76.2476 0.321727H66.8182ZM70.3951 3.539H76.2476C77.3966 3.539 78.3337 3.89869 79.06 4.61712C79.7861 5.33587 80.1496 6.2634 80.1496 7.39973C80.1496 8.51549 79.7861 9.43797 79.06 10.1668C78.3337 10.8963 77.3966 11.2608 76.2476 11.2608H70.3951V3.539ZM44.5254 0.321727V3.539H51.3537V22.8436H54.9306V3.539H61.7585V0.321727H44.5254ZM9.09243 0.351148L0 22.8436H3.66958L5.94269 17.0598H15.9805L18.2821 22.8436H22.0814L16.2104 8.31999H12.5369L14.7103 13.8466H7.24134L12.5478 0.351148H9.09243Z" fill="url(#paint0_linear_10423_895)"/>
</g>
<defs>
<linearGradient id="paint0_linear_10423_895" x1="4.57509e-06" y1="1409.68" x2="271170" y2="4258.66" gradientUnits="userSpaceOnUse">
<stop stop-color="#3F2971"/>
<stop offset="1" stop-color="#9478D2"/>
</linearGradient>
</defs>
</svg>
