<svg width="169" height="18" viewBox="0 0 169 18" fill="none" xmlns="http://www.w3.org/2000/svg">
<path fill-rule="evenodd" clip-rule="evenodd" d="M19.7622 2.34055C19.2919 3.05291 19.0571 3.83302 19.0571 4.6811C19.0571 5.7697 19.3122 6.64186 19.8229 7.29781C20.3338 7.95423 20.9372 8.43811 21.6343 8.74991C22.331 9.06219 23.2553 9.38627 24.4064 9.72239C25.2489 9.94663 25.9094 10.1543 26.3881 10.3467C26.866 10.5386 27.2631 10.7949 27.5793 11.1148C27.8954 11.4348 28.0534 11.8512 28.0534 12.3629C28.0534 13.0675 27.7493 13.6635 27.1416 14.1516C26.5339 14.64 25.7029 14.8836 24.6493 14.8836C22.9798 14.8836 21.5531 14.2678 20.3701 13.0352L18.5709 14.7639C19.1544 15.452 19.9687 16.0442 21.0144 16.5401C22.0599 17.0365 23.2715 17.2841 24.6493 17.2841C25.8652 17.2841 26.935 17.0601 27.8588 16.6121C28.7828 16.1643 29.4917 15.5643 29.9863 14.8116C30.4807 14.0596 30.7282 13.2431 30.7282 12.3629C30.7282 11.2748 30.4728 10.4026 29.9622 9.74646C29.4515 9.09052 28.8476 8.60617 28.151 8.29413C27.4536 7.98208 26.5296 7.658 25.3789 7.32189C24.5357 7.09789 23.8752 6.8897 23.3973 6.6978C22.9189 6.50567 22.522 6.24957 22.206 5.9295C21.8897 5.60967 21.7316 5.19377 21.7316 4.6811C21.7316 4.0412 22.0114 3.50115 22.5705 3.06094C23.1297 2.62073 23.9036 2.40074 24.8927 2.40074C25.6221 2.40074 26.2905 2.54897 26.8985 2.84473C27.5064 3.14119 28.0209 3.48911 28.4424 3.88919L30.2417 2.16045C29.6904 1.58452 28.949 1.08034 28.0168 0.648159C27.0847 0.21621 26.0433 0 24.8927 0C23.709 0 22.6757 0.212198 21.7926 0.636121C20.9085 1.06028 20.2322 1.62866 19.7622 2.34055ZM106.418 2.48736C107.165 2.6068 107.871 2.85204 108.535 3.22876C109.508 3.78085 110.274 4.53735 110.833 5.49755C111.392 6.45775 111.672 7.506 111.672 8.64228C111.672 9.77857 111.392 10.8268 110.833 11.787C110.274 12.7472 109.508 13.5032 108.535 14.0553C107.563 14.6077 106.501 14.8836 105.35 14.8836C104.199 14.8836 103.137 14.6077 102.165 14.0553C102.046 13.9878 101.93 13.917 101.817 13.8434L100.871 16.1794C102.224 16.9142 103.717 17.2841 105.35 17.2841C107.019 17.2841 108.543 16.9003 109.921 16.132C111.299 15.3637 112.381 14.3195 113.167 12.9991C113.953 11.6789 114.346 10.2266 114.346 8.64228C114.346 7.05776 113.953 5.60542 113.167 4.28503C112.381 2.96487 111.299 1.9204 109.921 1.15234C109.113 0.70174 108.253 0.387102 107.345 0.200868L106.418 2.48736ZM71.3561 2.48736C72.1029 2.6068 72.8091 2.85204 73.473 3.22876C74.4458 3.78085 75.2118 4.53735 75.771 5.49755C76.3302 6.45775 76.6097 7.506 76.6097 8.64228C76.6097 9.77857 76.3302 10.8268 75.771 11.787C75.2118 12.7472 74.4458 13.5032 73.473 14.0553C72.5005 14.6077 71.4385 14.8836 70.2879 14.8836C69.1368 14.8836 68.0753 14.6077 67.1027 14.0553C66.9837 13.9878 66.868 13.917 66.7551 13.8434L65.8089 16.1794C67.1625 16.9142 68.655 17.2841 70.2879 17.2841C71.9573 17.2841 73.4812 16.9003 74.8589 16.132C76.2365 15.3637 77.3185 14.3195 78.1051 12.9991C78.8911 11.6789 79.2844 10.2266 79.2844 8.64228C79.2844 7.05776 78.8911 5.60542 78.1051 4.28503C77.3185 2.96487 76.2365 1.9204 74.8589 1.15234C74.0509 0.70174 73.1909 0.387102 72.2822 0.200868L71.3561 2.48736ZM155.748 0.24005V17.0443H158.423V10.8027H162.435L165.961 17.0443H169L165.158 10.3705C166.147 9.95441 166.933 9.31428 167.517 8.45015C168.1 7.58578 168.392 6.61 168.392 5.52116C168.392 4.52909 168.153 3.63333 167.675 2.83269C167.197 2.03276 166.532 1.40065 165.681 0.936361C164.83 0.472311 163.87 0.24005 162.8 0.24005H155.748ZM158.423 2.64055H162.8C163.659 2.64055 164.36 2.90893 164.903 3.44497C165.446 3.98125 165.718 4.67331 165.718 5.52116C165.718 6.35366 165.446 7.04195 164.903 7.58578C164.36 8.13008 163.659 8.402 162.8 8.402H158.423V2.64055ZM139.53 0.24005V17.0443H151.809V14.6435H142.205V9.53026H149.621V7.12975H142.205V2.64055H151.566V0.24005H139.53ZM132.941 0.24005L126.522 8.37792H126.473L120.055 0.24005H117.599V17.0443H120.273V4.75309H120.371L126.473 12.4831L132.576 4.75309H132.674V17.0443H135.348V0.24005H132.941ZM94.5874 0.24005V12.5072H94.5143L85.2261 0.24005H82.7947V17.0443H85.4692V4.77717H85.5424L94.8305 17.0443H97.2619V0.24005H94.5874ZM49.9658 0.24005V17.0443H52.6405V10.8027H56.6524L60.1782 17.0443H63.2173L59.3757 10.3705C60.364 9.95441 61.1506 9.31428 61.7341 8.45015C62.3175 7.58578 62.6094 6.61 62.6094 5.52116C62.6094 4.52909 62.3703 3.63333 61.8922 2.83269C61.4138 2.03276 60.7494 1.40065 59.8983 0.936361C59.0472 0.472311 58.0868 0.24005 57.017 0.24005H49.9658ZM52.6405 2.64055H57.017C57.8762 2.64055 58.5769 2.90893 59.1201 3.44497C59.663 3.98125 59.9349 4.67331 59.9349 5.52116C59.9349 6.35366 59.663 7.04195 59.1201 7.58578C58.5769 8.13008 57.8762 8.402 57.017 8.402H52.6405V2.64055ZM33.2956 0.24005V2.64055H38.4017V17.0443H41.0764V2.64055H46.1823V0.24005H33.2956ZM6.79921 0.262002L0 17.0443H2.74407L4.44387 12.7288H11.95L13.6711 17.0443H16.5122L12.1219 6.20779H9.37497L11.0002 10.3314H5.41498L9.3831 0.262002H6.79921Z" fill="url(#paint0_linear_4065_5754)"/>
<defs>
<linearGradient id="paint0_linear_4065_5754" x1="3.4212e-06" y1="1051.8" x2="202778" y2="3186.97" gradientUnits="userSpaceOnUse">
<stop stop-color="#3F2971"/>
<stop offset="1" stop-color="#9478D2"/>
</linearGradient>
</defs>
</svg>
