<svg width="141" height="134" viewBox="0 0 141 134" fill="none" xmlns="http://www.w3.org/2000/svg">
<path d="M66.5363 73.5893C70.0716 73.5893 72.9376 70.7141 72.9376 67.1672C72.9376 63.6204 70.0716 60.7452 66.5363 60.7452C63.001 60.7452 60.135 63.6204 60.135 67.1672C60.135 70.7141 63.001 73.5893 66.5363 73.5893Z" fill="#85E3BC" stroke="#130C49" stroke-width="0.661905" stroke-miterlimit="10"/>
<path d="M67.1483 114.395C93.2424 114.395 114.396 93.2413 114.396 67.1471C114.396 41.0529 93.2424 19.8994 67.1483 19.8994C41.0541 19.8994 19.9006 41.0529 19.9006 67.1471C19.9006 93.2413 41.0541 114.395 67.1483 114.395Z" stroke="#130C49" stroke-opacity="0.75" stroke-miterlimit="10" stroke-linecap="round" stroke-dasharray="2.06 2.06"/>
<path d="M67.1467 133.294C103.679 133.294 133.294 103.679 133.294 67.1468C133.294 30.6149 103.679 1 67.1467 1C30.6148 1 1 30.6149 1 67.1468C1 103.679 30.6148 133.294 67.1467 133.294Z" stroke="#130C49" stroke-opacity="0.5" stroke-width="0.5" stroke-miterlimit="10" stroke-linecap="round" stroke-dasharray="2.06 2.06"/>
<path d="M67.1472 95.496C82.8037 95.496 95.4959 82.8039 95.4959 67.1474C95.4959 51.4908 82.8037 38.7988 67.1472 38.7988C51.4907 38.7988 38.7986 51.4908 38.7986 67.1474C38.7986 82.8039 51.4907 95.496 67.1472 95.496Z" stroke="#130C49" stroke-miterlimit="10" stroke-linecap="round" stroke-dasharray="2.06 2.06"/>
<path d="M14.7187 107.121C18.254 107.121 21.12 104.245 21.12 100.698C21.12 97.1517 18.254 94.2764 14.7187 94.2764C11.1833 94.2764 8.31738 97.1517 8.31738 100.698C8.31738 104.245 11.1833 107.121 14.7187 107.121Z" fill="#F7F9FD" stroke="#130C49" stroke-width="0.661905" stroke-miterlimit="10"/>
<path d="M133.599 29.6937C137.134 29.6937 140 26.8185 140 23.2717C140 19.7248 137.134 16.8496 133.599 16.8496C130.063 16.8496 127.197 19.7248 127.197 23.2717C127.197 26.8185 130.063 29.6937 133.599 29.6937Z" fill="#F7F9FD" stroke="#130C49" stroke-width="0.661905" stroke-miterlimit="10"/>
<path d="M87.328 36.5836C90.8634 36.5836 93.7294 33.7083 93.7294 30.1615C93.7294 26.6147 90.8634 23.7394 87.328 23.7394C83.7927 23.7394 80.9268 26.6147 80.9268 30.1615C80.9268 33.7083 83.7927 36.5836 87.328 36.5836Z" fill="#F7F9FD" stroke="#130C49" stroke-width="0.661905" stroke-miterlimit="10"/>
<path d="M114.701 105.293C118.236 105.293 121.102 102.417 121.102 98.8705C121.102 95.3237 118.236 92.4485 114.701 92.4485C111.165 92.4485 108.299 95.3237 108.299 98.8705C108.299 102.417 111.165 105.293 114.701 105.293Z" fill="#F7F9FD" stroke="#130C49" stroke-width="0.661905" stroke-miterlimit="10"/>
<path d="M80.5578 82.7346C84.0931 82.7346 86.9591 79.8593 86.9591 76.3125C86.9591 72.7657 84.0931 69.8904 80.5578 69.8904C77.0224 69.8904 74.1565 72.7657 74.1565 76.3125C74.1565 79.8593 77.0224 82.7346 80.5578 82.7346Z" fill="#85E3DA" stroke="#130C49" stroke-width="0.661905" stroke-miterlimit="10"/>
<path d="M66.6572 95.8381C70.1925 95.8381 73.0585 92.9628 73.0585 89.416C73.0585 85.8692 70.1925 82.9939 66.6572 82.9939C63.1218 82.9939 60.2559 85.8692 60.2559 89.416C60.2559 92.9628 63.1218 95.8381 66.6572 95.8381Z" fill="#85E3DA" stroke="#130C49" stroke-width="0.661905" stroke-miterlimit="10"/>
<path d="M41.8556 51.7407C45.391 51.7407 48.257 48.8655 48.257 45.3186C48.257 41.7718 45.391 38.8966 41.8556 38.8966C38.3203 38.8966 35.4543 41.7718 35.4543 45.3186C35.4543 48.8655 38.3203 51.7407 41.8556 51.7407Z" fill="#F7F9FD" stroke="#130C49" stroke-width="0.661905" stroke-miterlimit="10"/>
</svg>
