<svg width="48" height="48" viewBox="0 0 48 48" fill="none" xmlns="http://www.w3.org/2000/svg">
<path d="M24.0049 47.7208C37.1071 47.7208 47.7286 37.1007 47.7286 24.0001C47.7286 10.8994 37.1071 0.279297 24.0049 0.279297C10.9027 0.279297 0.28125 10.8994 0.28125 24.0001C0.28125 37.1007 10.9027 47.7208 24.0049 47.7208Z" fill="white"/>
<path d="M24.0029 48C10.7711 48 0 37.2302 0 24C0 10.7698 10.7711 0 24.0029 0C37.2347 0 48.0059 10.7698 48.0059 24C48.0059 37.2302 37.2347 48 24.0029 48ZM24.0029 0.558483C11.0806 0.558483 0.566107 11.0717 0.566107 23.9924C0.566107 36.9132 11.0806 47.4264 24.0029 47.4264C36.9253 47.4264 47.4398 36.9132 47.4398 23.9924C47.4398 11.0717 36.9253 0.558483 24.0029 0.558483Z" fill="#130C49"/>
<path d="M21.9127 22.8156C22.3128 21.1099 22.7128 19.4193 23.1129 17.7288C23.128 17.6533 23.1506 17.5854 23.1733 17.5175C23.2186 17.3665 23.3318 17.2835 23.4827 17.276C23.7771 17.2609 24.0639 17.2609 24.3583 17.276C24.5093 17.2835 24.5999 17.3741 24.6452 17.5175C24.7055 17.7062 24.7433 17.9024 24.7886 18.091C25.166 19.6759 25.5358 21.2609 25.9132 22.8458C25.9585 22.8307 25.951 22.7854 25.9585 22.7627C26.3661 21.1929 26.7662 19.6307 27.1738 18.0609C27.2266 17.8722 27.2643 17.676 27.3398 17.4948C27.4002 17.359 27.4983 17.2835 27.6417 17.276C27.9286 17.276 28.2079 17.276 28.4947 17.276C28.6004 17.276 28.6532 17.3363 28.6607 17.4495C28.6607 17.5401 28.6456 17.6307 28.6154 17.7137C27.9814 19.7363 27.3549 21.759 26.7209 23.7892C26.6982 23.8571 26.6756 23.9175 26.6529 23.9779C26.5926 24.1288 26.4793 24.2043 26.3208 24.2043C26.034 24.2043 25.7472 24.2043 25.4603 24.2043C25.2943 24.2043 25.1961 24.1061 25.1509 23.9552C25.0905 23.759 25.0452 23.5552 24.9999 23.3514C24.6376 21.8571 24.2828 20.3552 23.9205 18.8533C23.9205 18.8382 23.913 18.8231 23.8979 18.793C23.8224 19.1099 23.7545 19.4042 23.679 19.6986C23.3544 21.0646 23.0223 22.4307 22.6977 23.7967C22.6147 24.1439 22.5317 24.2043 22.1769 24.2043C21.9807 24.2043 21.7844 24.2043 21.5882 24.2043C21.2938 24.2043 21.2032 24.1439 21.1126 23.8646C20.9692 23.4118 20.8333 22.959 20.6899 22.4986C20.2069 20.9137 19.7238 19.3288 19.2407 17.7439C19.2181 17.6609 19.1954 17.5854 19.1879 17.5024C19.1652 17.359 19.2332 17.276 19.3766 17.276C19.6559 17.276 19.9351 17.276 20.2144 17.276C20.3805 17.276 20.4937 17.3514 20.5541 17.5099C20.6522 17.7741 20.705 18.0533 20.7805 18.3325C21.1579 19.7967 21.5278 21.2609 21.8976 22.725C21.8976 22.7476 21.9127 22.7778 21.9278 22.8156H21.9127Z" fill="#130C49"/>
<path d="M23.6943 31.1171C21.4827 31.1171 19.4976 30.7775 17.5804 30.0831C15.7764 29.4265 14.1234 28.4982 12.6288 27.2907C12.3948 27.102 12.1684 26.9058 11.942 26.7096C11.942 26.7096 11.9269 26.6945 11.9193 26.6945C11.8136 26.5888 11.791 26.4681 11.8589 26.3775C11.9269 26.2945 12.0476 26.2719 12.1684 26.3398C12.4477 26.4907 12.727 26.6492 13.0138 26.8001C14.4706 27.5624 15.9953 28.1511 17.5804 28.5888C18.5012 28.8454 19.4372 29.0416 20.3807 29.1775C21.0676 29.2831 21.762 29.3511 22.4565 29.3888C23.1056 29.4266 23.7472 29.4341 24.3963 29.419C25.204 29.3964 26.0116 29.3284 26.8193 29.2228C28.6685 28.9737 30.465 28.5058 32.201 27.8265C32.3746 27.7586 32.5483 27.6832 32.7219 27.6153C32.8426 27.5624 32.971 27.5549 33.0917 27.6153C33.288 27.7209 33.3333 27.9549 33.1747 28.1209C33.0766 28.2341 32.9408 28.3096 32.82 28.3926C31.6425 29.2077 30.3593 29.7888 29.0082 30.2341C27.9288 30.5888 26.8268 30.8303 25.7021 30.9737C24.9775 31.0643 24.2453 31.1171 23.6868 31.1171H23.6943Z" fill="#FE9901"/>
<path d="M17.2317 23.306C17.0958 23.457 16.9599 23.6004 16.8014 23.7287C16.2127 24.2117 15.5334 24.4079 14.7861 24.3777C14.3936 24.3626 14.0162 24.2796 13.6841 24.0683C13.1406 23.7287 12.8613 23.2155 12.8009 22.589C12.7557 22.1362 12.8009 21.6985 13.0274 21.291C13.3293 20.74 13.8048 20.4079 14.4011 20.2343C14.9144 20.0834 15.4352 20.0758 15.956 20.1287C16.3334 20.1664 16.7033 20.2343 17.0732 20.3173C17.1034 20.3173 17.1486 20.3551 17.1486 20.2796C17.1486 19.9173 17.1713 19.5551 17.0958 19.2004C16.9675 18.5664 16.6505 18.272 16.0013 18.189C15.2843 18.0909 14.6049 18.2343 13.9407 18.4758C13.8048 18.5287 13.6614 18.5815 13.5255 18.6268C13.3444 18.6796 13.2614 18.6268 13.2538 18.4305C13.2538 18.2796 13.2538 18.1211 13.2538 17.9702C13.2538 17.8041 13.3293 17.691 13.4803 17.6155C13.7218 17.4872 13.9784 17.389 14.2351 17.3136C14.9974 17.0796 15.7749 17.0268 16.5599 17.1551C16.9524 17.2154 17.3223 17.3438 17.6393 17.5928C18.0846 17.94 18.2884 18.4155 18.3865 18.9513C18.4318 19.2004 18.4469 19.457 18.4469 19.706C18.4469 20.4985 18.4469 21.2834 18.4469 22.0758C18.4469 22.257 18.4696 22.4456 18.4922 22.6268C18.5299 22.9136 18.6583 23.1702 18.7866 23.4192C18.8847 23.6154 18.8621 23.7362 18.6734 23.8645C18.5224 23.9702 18.3714 24.0683 18.2205 24.1664C18.0318 24.2872 17.8884 24.2721 17.7374 24.0985C17.5789 23.9249 17.4506 23.7211 17.3524 23.5098C17.3222 23.4419 17.2845 23.3815 17.2468 23.306H17.2317ZM15.9787 21.0343C15.6088 21.0268 15.3597 21.0343 15.1107 21.0872C14.6955 21.1777 14.3634 21.3891 14.22 21.8117C14.1445 22.0381 14.1445 22.2645 14.1747 22.4985C14.2275 22.9287 14.5219 23.2532 14.9446 23.3287C15.4881 23.4192 16.0013 23.3211 16.4618 23.0268C16.7939 22.8155 17.0279 22.5211 17.1033 22.1211C17.1562 21.8343 17.1637 21.5475 17.1637 21.2607C17.1637 21.2155 17.1411 21.2079 17.1033 21.1928C16.6957 21.0947 16.2806 21.0419 15.9787 21.0343Z" fill="#130C49"/>
<path d="M31.8835 17.0723C32.4043 17.0723 32.9176 17.1629 33.4082 17.3289C33.4988 17.3591 33.5818 17.3968 33.6724 17.4421C33.8913 17.5553 33.997 17.7213 33.9819 17.9779C33.9743 18.0911 33.9819 18.2044 33.9743 18.3176C33.9592 18.4836 33.8762 18.5364 33.7177 18.4987C33.5592 18.4534 33.4082 18.3704 33.2497 18.3176C32.6081 18.1062 31.959 18.0458 31.2948 18.1968C31.2117 18.2119 31.1362 18.2496 31.0608 18.2798C30.472 18.5289 30.4494 19.3515 30.9324 19.6685C31.2117 19.8496 31.5212 19.9553 31.8307 20.061C32.276 20.2119 32.7364 20.3251 33.1742 20.5062C33.5743 20.6723 33.9215 20.9138 34.1404 21.3062C34.5933 22.0987 34.3819 23.1553 33.6573 23.7666C33.2648 24.0911 32.8119 24.2647 32.3213 24.3478C31.4306 24.4987 30.5626 24.3779 29.7172 24.0534C29.6191 24.0157 29.5285 23.9628 29.4379 23.91C29.2945 23.8194 29.2266 23.6987 29.2266 23.5326C29.2266 23.3892 29.2266 23.2458 29.2266 23.1024C29.2266 22.9062 29.3322 22.8308 29.5209 22.8912C29.7549 22.9666 29.9738 23.0798 30.2078 23.1477C30.8041 23.3213 31.4155 23.3893 32.0345 23.3062C32.2835 23.2685 32.5175 23.2006 32.7213 23.0572C33.1893 22.7402 33.2422 21.9553 32.661 21.6383C32.427 21.51 32.1703 21.4194 31.9137 21.3439C31.4608 21.2005 31.0004 21.0874 30.5626 20.8987C29.9738 20.6496 29.5587 20.2345 29.3775 19.6157C29.1662 18.8911 29.4228 18.1289 30.0116 17.6534C30.4871 17.2761 31.0306 17.11 31.6269 17.0723C31.7175 17.0723 31.808 17.0723 31.8986 17.0723H31.8835Z" fill="#130C49"/>
<path d="M33.6962 25.8271C34.1038 25.8347 34.5039 25.8649 34.8888 25.9705C35.2587 26.0762 35.3417 26.1743 35.3417 26.5592C35.3417 27.2385 35.1606 27.88 34.9039 28.4989C34.6624 29.08 34.3303 29.6083 33.8547 30.0309C33.7943 30.0838 33.7415 30.1366 33.666 30.1593C33.6056 30.1744 33.5453 30.1819 33.5 30.1366C33.4547 30.0913 33.4471 30.0385 33.4698 29.9781C33.5377 29.7894 33.6132 29.6007 33.6887 29.4196C33.8849 28.9064 34.0736 28.3932 34.1868 27.8498C34.2321 27.631 34.2699 27.4121 34.2397 27.1857C34.217 27.0347 34.1416 26.9366 34.0057 26.8762C33.7943 26.7857 33.5603 26.763 33.3339 26.7555C32.7753 26.7328 32.2243 26.7781 31.6733 26.8385C31.4997 26.8611 31.3261 26.8838 31.145 26.8989C31.0695 26.9064 30.994 26.8989 30.9563 26.8309C30.911 26.7555 30.9563 26.6875 31.0015 26.6271C31.1072 26.5064 31.2506 26.4385 31.3865 26.363C31.8696 26.0989 32.3904 25.9555 32.9339 25.8875C33.1905 25.8498 33.4471 25.8423 33.6962 25.8347V25.8271Z" fill="#FE9901"/>
</svg>
