<svg width="155" height="142" viewBox="0 0 155 142" fill="none" xmlns="http://www.w3.org/2000/svg">
<g id="Group 288">
<path id="Vector" d="M37.0234 79.58V61.9065C37.0234 60.8628 36.4722 59.9128 35.5692 59.3851L20.2648 50.5425C19.3618 50.0265 18.2594 50.0265 17.3563 50.5425L2.05188 59.3851C1.14886 59.9011 0.597656 60.8628 0.597656 61.9065V79.58C0.597656 80.6237 1.14886 81.5736 2.05188 82.1014L17.3563 90.944C18.2594 91.46 19.3618 91.46 20.2648 90.944L35.5692 82.1014C36.4722 81.5854 37.0234 80.6237 37.0234 79.58Z" fill="#F3F3F3"/>
<path id="Vector_2" d="M18.7993 91.9178C18.1894 91.9178 17.5913 91.7653 17.0519 91.4487L1.74739 82.6061C0.668459 81.9845 0 80.8235 0 79.5804V61.907C0 60.6638 0.668459 59.5028 1.74739 58.8813L17.0519 50.0387C18.1308 49.4171 19.4677 49.4171 20.5467 50.0387L35.8511 58.8813C36.9301 59.5028 37.5985 60.6638 37.5985 61.907V79.5804C37.5985 80.8235 36.9301 81.9845 35.8511 82.6061L20.5467 91.4487C20.0072 91.7653 19.4091 91.9178 18.7993 91.9178ZM18.7993 50.7541C18.4005 50.7541 18.0018 50.8596 17.6382 51.059L2.33377 59.9016C1.61839 60.312 1.17276 61.086 1.17276 61.907V79.5804C1.17276 80.4013 1.61839 81.1753 2.33377 81.5858L17.6382 90.4284C18.3536 90.8389 19.2449 90.8389 19.9603 90.4284L35.2648 81.5858C35.9801 81.1753 36.4258 80.4013 36.4258 79.5804V61.907C36.4258 61.086 35.9801 60.312 35.2648 59.9016L19.9603 51.059C19.5967 50.8479 19.198 50.7541 18.7993 50.7541Z" fill="#1B1464"/>
<path id="Vector_3" d="M63.2471 30.0077V12.3343C63.2471 11.2905 62.6959 10.3406 61.7929 9.81284L46.4884 0.970261C45.5854 0.454249 44.483 0.454249 43.58 0.970261L28.2755 9.81284C27.3725 10.3289 26.8213 11.2905 26.8213 12.3343V30.0077C26.8213 31.0514 27.3725 32.0014 28.2755 32.5291L43.58 41.3717C44.483 41.8877 45.5854 41.8877 46.4884 41.3717L61.7929 32.5291C62.6959 32.0131 63.2471 31.0514 63.2471 30.0077Z" fill="#F3F3F3"/>
<path id="Vector_4" d="M45.0336 42.3453C44.4238 42.3453 43.8257 42.1928 43.2862 41.8762L27.9818 33.0336C26.9029 32.412 26.2344 31.251 26.2344 30.0079V12.3345C26.2344 11.0913 26.9029 9.93031 27.9818 9.30875L43.2862 0.46617C44.3652 -0.15539 45.7021 -0.15539 46.7811 0.46617L62.0855 9.30875C63.1644 9.93031 63.8329 11.0913 63.8329 12.3345V30.0079C63.8329 31.251 63.1644 32.412 62.0855 33.0336L46.7811 41.8762C46.2416 42.1928 45.6435 42.3453 45.0336 42.3453ZM45.0336 1.18155C44.6349 1.18155 44.2362 1.2871 43.8726 1.48647L28.5682 10.329C27.8528 10.7395 27.4071 11.5135 27.4071 12.3345V30.0079C27.4071 30.8288 27.8528 31.6028 28.5682 32.0133L43.8726 40.8559C44.588 41.2663 45.4793 41.2663 46.1947 40.8559L61.4991 32.0133C62.2145 31.6028 62.6602 30.8288 62.6602 30.0079V12.3345C62.6602 11.5135 62.2145 10.7395 61.4991 10.329L46.1947 1.48647C45.8311 1.27537 45.4324 1.18155 45.0336 1.18155Z" fill="#1B1464"/>
<path id="Vector_5" d="M63.2471 129.129V111.456C63.2471 110.412 62.6959 109.462 61.7929 108.934L46.4884 100.092C45.5854 99.5756 44.483 99.5756 43.58 100.092L28.2755 108.934C27.3725 109.45 26.8213 110.412 26.8213 111.456V129.129C26.8213 130.173 27.3725 131.123 28.2755 131.65L43.58 140.493C44.483 141.009 45.5854 141.009 46.4884 140.493L61.7929 131.65C62.6959 131.134 63.2471 130.173 63.2471 129.129Z" fill="#F3F3F3"/>
<path id="Vector_6" d="M45.0336 141.467C44.4238 141.467 43.8257 141.314 43.2862 140.998L27.9818 132.155C26.9029 131.533 26.2344 130.372 26.2344 129.129V111.456C26.2344 110.213 26.9029 109.052 27.9818 108.43L43.2862 99.5875C44.3652 98.9659 45.7021 98.9659 46.7811 99.5875L62.0855 108.43C63.1644 109.052 63.8329 110.213 63.8329 111.456V129.129C63.8329 130.372 63.1644 131.533 62.0855 132.155L46.7811 140.998C46.2416 141.314 45.6435 141.467 45.0336 141.467ZM45.0336 100.303C44.6349 100.303 44.2362 100.408 43.8726 100.608L28.5682 109.45C27.8528 109.861 27.4071 110.635 27.4071 111.456V129.129C27.4071 129.95 27.8528 130.724 28.5682 131.135L43.8726 139.977C44.588 140.388 45.4793 140.388 46.1947 139.977L61.4991 131.135C62.2145 130.724 62.6602 129.95 62.6602 129.129V111.456C62.6602 110.635 62.2145 109.861 61.4991 109.45L46.1947 100.608C45.8311 100.397 45.4324 100.303 45.0336 100.303Z" fill="#1B1464"/>
<path id="Vector_7" d="M117.58 61.4024V79.0758C117.58 80.1196 118.131 81.0695 119.034 81.5972L134.339 90.4398C135.242 90.9558 136.344 90.9558 137.247 90.4398L152.552 81.5972C153.455 81.0812 154.006 80.1196 154.006 79.0758V61.4024C154.006 60.3586 153.455 59.4087 152.552 58.881L137.247 50.0384C136.344 49.5224 135.242 49.5224 134.339 50.0384L119.034 58.881C118.131 59.397 117.58 60.3586 117.58 61.4024Z" fill="#F3F3F3"/>
<path id="Vector_8" d="M135.793 91.4131C135.184 91.4131 134.585 91.2607 134.046 90.944L118.742 82.1015C117.663 81.4799 116.994 80.3189 116.994 79.0758V61.4023C116.994 60.1592 117.663 58.9982 118.742 58.3766L134.046 49.534C135.125 48.9125 136.462 48.9125 137.541 49.534L152.845 58.3766C153.924 58.9982 154.593 60.1592 154.593 61.4023V79.0758C154.593 80.3189 153.924 81.4799 152.845 82.1015L137.541 90.944C137.001 91.2607 136.403 91.4131 135.793 91.4131ZM135.793 50.2494C135.395 50.2494 134.996 50.355 134.632 50.5543L119.328 59.3969C118.613 59.8074 118.167 60.5814 118.167 61.4023V79.0758C118.167 79.8967 118.613 80.6707 119.328 81.0812L134.632 89.9238C135.348 90.3342 136.239 90.3342 136.954 89.9238L152.259 81.0812C152.974 80.6707 153.42 79.8967 153.42 79.0758V61.4023C153.42 60.5814 152.974 59.8074 152.259 59.3969L136.954 50.5543C136.591 50.3432 136.192 50.2494 135.793 50.2494Z" fill="#1B1464"/>
<path id="Vector_9" d="M90.0449 111.948V129.622C90.0449 130.665 90.5961 131.615 91.4991 132.143L106.804 140.986C107.707 141.502 108.809 141.502 109.712 140.986L125.016 132.143C125.92 131.627 126.471 130.665 126.471 129.622V111.948C126.471 110.905 125.92 109.955 125.016 109.427L109.712 100.584C108.809 100.068 107.707 100.068 106.804 100.584L91.4991 109.427C90.5961 109.943 90.0449 110.905 90.0449 111.948Z" fill="#F3F3F3"/>
<path id="Vector_10" d="M108.257 141.947C107.647 141.947 107.049 141.795 106.51 141.478L91.2054 132.636C90.1265 132.014 89.458 130.853 89.458 129.61V111.937C89.458 110.693 90.1265 109.532 91.2054 108.911L106.51 100.068C107.589 99.4467 108.926 99.4467 110.005 100.068L125.309 108.911C126.388 109.532 127.057 110.693 127.057 111.937V129.61C127.057 130.853 126.388 132.014 125.309 132.636L110.005 141.478C109.465 141.795 108.867 141.947 108.257 141.947ZM108.257 100.784C107.859 100.784 107.46 100.889 107.096 101.089L91.7918 109.931C91.0764 110.342 90.6308 111.116 90.6308 111.937V129.61C90.6308 130.431 91.0764 131.205 91.7918 131.615L107.096 140.458C107.812 140.868 108.703 140.868 109.418 140.458L124.723 131.615C125.438 131.205 125.884 130.431 125.884 129.61V111.937C125.884 111.116 125.438 110.342 124.723 109.931L109.418 101.089C109.055 100.877 108.656 100.784 108.257 100.784Z" fill="#1B1464"/>
<path id="Vector_11" d="M91.3457 12.3343V30.0077C91.3457 31.0514 91.8969 32.0014 92.7999 32.5291L108.104 41.3717C109.007 41.8877 110.11 41.8877 111.013 41.3717L126.317 32.5291C127.22 32.0131 127.771 31.0514 127.771 30.0077V12.3343C127.771 11.2905 127.22 10.3406 126.317 9.81284L111.013 0.970261C110.11 0.454249 109.007 0.454249 108.104 0.970261L92.7999 9.81284C91.8969 10.3289 91.3457 11.2905 91.3457 12.3343Z" fill="#F3F3F3"/>
<path id="Vector_12" d="M109.558 42.3453C108.948 42.3453 108.35 42.1928 107.811 41.8762L92.5062 33.0336C91.4272 32.412 90.7588 31.251 90.7588 30.0079V12.3345C90.7588 11.0913 91.4272 9.93031 92.5062 9.30875L107.811 0.46617C108.89 -0.15539 110.227 -0.15539 111.305 0.46617L126.61 9.30875C127.689 9.93031 128.357 11.0913 128.357 12.3345V30.0079C128.357 31.251 127.689 32.412 126.61 33.0336L111.305 41.8762C110.766 42.1928 110.168 42.3453 109.558 42.3453ZM109.558 1.18155C109.159 1.18155 108.761 1.2871 108.397 1.48647L93.0926 10.329C92.3772 10.7395 91.9315 11.5135 91.9315 12.3345V30.0079C91.9315 30.8288 92.3772 31.6028 93.0926 32.0133L108.397 40.8559C109.112 41.2663 110.004 41.2663 110.719 40.8559L126.024 32.0133C126.739 31.6028 127.185 30.8288 127.185 30.0079V12.3345C127.185 11.5135 126.739 10.7395 126.024 10.329L110.719 1.48647C110.356 1.27537 109.957 1.18155 109.558 1.18155Z" fill="#1B1464"/>
<path id="Vector_13" d="M52.1288 14.0815H37.9385V28.2719H52.1288V14.0815Z" fill="#1B1464"/>
<path id="Vector_14" d="M52.7147 28.8585H37.3516V13.4954H52.7147V28.8585ZM38.5243 27.6857H51.5419V14.6681H38.5243V27.6857Z" fill="#1B1464"/>
<path id="Vector_15" d="M24.0176 73.7517V67.7354L18.7988 64.7214L13.5918 67.7354V73.7517L18.7988 76.7539L24.0176 73.7517Z" fill="#61BD73"/>
<path id="Vector_16" d="M18.7993 77.4341L13.0059 74.0918V67.3953L18.7993 64.053L24.5927 67.3953V74.0918L18.7993 77.4341ZM14.1786 73.4116L18.7993 76.0855L23.4199 73.4116V68.0755L18.7993 65.4016L14.1786 68.0755V73.4116Z" fill="#1B1464"/>
<path id="Vector_17" d="M141.47 64.5688H130.106V75.9329H141.47V64.5688Z" fill="#1B1464"/>
<path id="Vector_18" d="M142.056 76.5192H129.52V63.9824H142.056V76.5192ZM130.692 75.3464H140.884V65.1552H130.692V75.3464Z" fill="#1B1464"/>
<path id="Vector_19" d="M109.558 30.0194C114.442 30.0194 118.401 26.0604 118.401 21.1768C118.401 16.2932 114.442 12.3342 109.558 12.3342C104.675 12.3342 100.716 16.2932 100.716 21.1768C100.716 26.0604 104.675 30.0194 109.558 30.0194Z" fill="#61BD73"/>
<path id="Vector_20" d="M109.559 30.594C104.364 30.594 100.13 26.3603 100.13 21.165C100.13 15.9697 104.364 11.7361 109.559 11.7361C114.754 11.7361 118.988 15.9697 118.988 21.165C118.988 26.3603 114.754 30.594 109.559 30.594ZM109.559 12.9206C105.009 12.9206 101.303 16.6265 101.303 21.1768C101.303 25.7271 105.009 29.433 109.559 29.433C114.109 29.433 117.815 25.7271 117.815 21.1768C117.815 16.6265 114.109 12.9206 109.559 12.9206Z" fill="#1B1464"/>
<path id="Vector_21" d="M49.7607 108.078H43.3223V114.517H49.7607V108.078Z" fill="#61BD73"/>
<path id="Vector_22" d="M50.3465 115.103H42.7354V107.492H50.3465V115.103ZM43.9081 113.93H49.1738V108.665H43.9081V113.93Z" fill="#1B1464"/>
<path id="Vector_23" d="M56.0703 114.247H49.6318V120.685H56.0703V114.247Z" fill="#F3F3F3"/>
<path id="Vector_24" d="M56.6561 121.272H49.0449V113.661H56.6561V121.272ZM50.2177 120.099H55.4834V114.833H50.2177V120.099Z" fill="#1B1464"/>
<path id="Vector_25" d="M43.873 125.634H37.4346V132.073H43.873V125.634Z" fill="#1B1464"/>
<path id="Vector_26" d="M44.4588 132.659H36.8477V125.048H44.4588V132.659ZM38.0204 131.486H43.2861V126.221H38.0204V131.486Z" fill="#1B1464"/>
<path id="Vector_27" d="M115.517 124.59V116.006L108.082 111.714L100.658 116.006V124.59L108.082 128.871L115.517 124.59Z" fill="#1B1464"/>
<path id="Vector_28" d="M108.081 129.552L100.06 124.919V115.666L108.081 111.034L116.103 115.666V124.919L108.081 129.552ZM101.232 124.251L108.081 128.203L114.93 124.251V116.346L108.081 112.394L101.232 116.346V124.251Z" fill="#1B1464"/>
<path id="Vector_29" d="M118.741 121.401H112.303V127.839H118.741V121.401Z" fill="#61BD73"/>
<path id="Vector_30" d="M119.328 128.425H111.717V120.814H119.328V128.425ZM112.89 127.253H118.155V121.987H112.89V127.253Z" fill="#1B1464"/>
<path id="Vector_31" d="M55.3093 36.25L54.3281 36.8923L62.6077 49.5401L63.589 48.8978L55.3093 36.25Z" fill="#1B1464"/>
<path id="Vector_32" d="M90.616 91.4458L89.6348 92.0881L98.409 105.491L99.3902 104.849L90.616 91.4458Z" fill="#1B1464"/>
<path id="Vector_33" d="M60.7167 92.2033L53.1328 103.793L54.1141 104.435L61.698 92.8455L60.7167 92.2033Z" fill="#1B1464"/>
<path id="Vector_34" d="M99.2994 36.2302L92.377 46.8088L93.3583 47.451L100.281 36.8724L99.2994 36.2302Z" fill="#1B1464"/>
<path id="Vector_35" d="M117.581 69.4592H37.0244V70.632H117.581V69.4592Z" fill="#1B1464"/>
<path id="Vector_36" d="M105.326 83.6262V56.8639C105.326 55.2924 104.493 53.8499 103.133 53.0642L79.9472 39.6831C78.5868 38.8973 76.9097 38.8973 75.5493 39.6831L52.3639 53.0642C51.0035 53.8499 50.1709 55.3042 50.1709 56.8639V83.6262C50.1709 85.1977 51.0035 86.6402 52.3639 87.4259L75.5493 100.807C76.9097 101.593 78.5868 101.593 79.9472 100.807L103.133 87.4259C104.493 86.6402 105.326 85.186 105.326 83.6262Z" fill="#61BD73"/>
<path id="Vector_37" d="M77.7536 101.992C76.8974 101.992 76.0296 101.769 75.2673 101.323L52.0819 87.9419C50.5456 87.0506 49.5957 85.4088 49.5957 83.6262V56.8639C49.5957 55.093 50.5456 53.4394 52.0819 52.5481L75.2673 39.167C76.8036 38.2757 78.7152 38.2757 80.2515 39.167L103.437 52.5481C104.973 53.4394 105.923 55.0813 105.923 56.8639V83.6262C105.923 85.397 104.973 87.0506 103.437 87.9419L80.2515 101.323C79.4892 101.769 78.6214 101.992 77.7653 101.992H77.7536ZM77.7536 39.6713C77.0968 39.6713 76.4401 39.8355 75.8537 40.1756L52.6683 53.5567C51.4956 54.2369 50.7685 55.4918 50.7685 56.8522V83.6144C50.7685 84.9748 51.4956 86.2297 52.6683 86.9099L75.8537 100.291C77.0265 100.971 78.4807 100.971 79.6652 100.291L102.851 86.9099C104.023 86.2297 104.75 84.9631 104.75 83.6144V56.8522C104.75 55.4918 104.023 54.2369 102.851 53.5567L79.6652 40.1756C79.0788 39.8355 78.422 39.6713 77.7653 39.6713H77.7536Z" fill="#1B1464"/>
</g>
</svg>
