<svg width="131" height="148" viewBox="0 0 131 148" fill="none" xmlns="http://www.w3.org/2000/svg">
<g id="Isolation_Mode" clip-path="url(#clip0_1301_555)">
<path id="Vector" d="M65.5 148C63.6124 148 61.7248 147.516 60.0377 146.536L5.46227 115.011C2.08817 113.063 0 109.439 0 105.542V42.4814C0 38.5851 2.09996 34.9603 5.46227 33.0122L60.0377 1.46404C63.4118 -0.484107 67.6 -0.484107 70.9741 1.46404L125.55 33.0004C128.924 34.9485 131.012 38.5733 131.012 42.4695V105.53C131.012 109.427 128.912 113.051 125.55 115L70.9741 146.536C69.287 147.504 67.3994 148 65.5118 148H65.5ZM65.5 1.18067C63.813 1.18067 62.1259 1.61753 60.6276 2.47944L6.05214 34.0158C3.04377 35.7514 1.17976 38.9865 1.17976 42.4695V105.53C1.17976 109.002 3.04377 112.249 6.05214 113.984L60.6276 145.521C63.636 147.256 67.3758 147.256 70.3842 145.521L124.96 113.984C127.968 112.249 129.832 109.013 129.832 105.53V42.4695C129.832 38.9983 127.968 35.7514 124.96 34.0158L70.3842 2.47944C68.8859 1.60572 67.1988 1.18067 65.5118 1.18067H65.5Z" fill="#1B1464"/>
<path id="Vector_2" d="M70.8325 110.737H60.085V121.493H70.8325V110.737Z" fill="#61BD73"/>
<path id="Vector_3" d="M71.4224 122.084H59.4951V110.147H71.4224V122.084ZM60.6749 120.903H70.2427V111.328H60.6749V120.903Z" fill="#1B1464"/>
<path id="Vector_4" d="M81.3677 121.93H70.6201V132.686H81.3677V121.93Z" fill="#F3F3F3"/>
<path id="Vector_5" d="M81.9576 133.277H70.0303V121.34H81.9576V133.277ZM71.21 132.096H80.7778V122.521H71.21V132.096Z" fill="#1B1464"/>
<path id="Vector_6" d="M115.557 42.1389H104.81V52.895H115.557V42.1389Z" fill="#61BD73"/>
<path id="Vector_7" d="M116.147 53.4854H104.22V41.5486H116.147V53.4854ZM105.399 52.3047H114.967V42.7293H105.399V52.3047Z" fill="#1B1464"/>
<path id="Vector_8" d="M103.335 66.6501H97.9551V72.0341H103.335V66.6501Z" fill="#1B1464"/>
<path id="Vector_9" d="M32.4549 74.5491H27.0752V79.933H32.4549V74.5491Z" fill="#1B1464"/>
<path id="Vector_10" d="M121.538 96.4863H116.158V101.87H121.538V96.4863Z" fill="#1B1464"/>
<path id="Vector_11" d="M19.0057 70.0269H13.626V75.4108H19.0057V70.0269Z" fill="#1B1464"/>
<path id="Vector_12" d="M19.0057 61.6204H13.626V67.0043H19.0057V61.6204Z" fill="#1B1464"/>
<path id="Vector_13" d="M19.0057 53.2256H13.626V58.6095H19.0057V53.2256Z" fill="#1B1464"/>
<path id="Vector_14" d="M19.0057 44.8191H13.626V50.2031H19.0057V44.8191Z" fill="#61BD73"/>
<path id="Vector_15" d="M19.5956 50.7934H13.0361V44.2288H19.5956V50.7934ZM14.2159 49.6127H18.4158V45.4095H14.2159V49.6127Z" fill="#1B1464"/>
<path id="Vector_16" d="M30.821 97.5345L20.5352 87.2405L10.2493 97.5345L20.5352 107.829L30.821 97.5345Z" fill="#61BD73"/>
<path id="Vector_17" d="M20.5392 108.671L9.41406 97.537L20.5392 86.4031L31.6642 97.537L20.5392 108.671ZM11.0893 97.537L20.5392 106.994L29.989 97.537L20.5392 88.0797L11.0893 97.537Z" fill="#1B1464"/>
<path id="Vector_18" d="M47.7919 43.6622V33.6145L39.0971 28.5847L30.4023 33.6145V43.6622L39.0971 48.6919L47.7919 43.6622Z" fill="#E7E7E7"/>
<path id="Vector_19" d="M39.0972 49.3767L29.8125 44.0046V33.2721L39.0972 27.8999L48.3818 33.2721V44.0046L39.0972 49.3767ZM30.9923 43.3316L39.0972 48.0189L47.2021 43.3316V33.9569L39.0972 29.2695L30.9923 33.9569V43.3316Z" fill="#1B1464"/>
<path id="Vector_20" d="M55.1653 25.7036C57.2047 25.7036 58.8579 24.0491 58.8579 22.0081C58.8579 19.9671 57.2047 18.3125 55.1653 18.3125C53.1259 18.3125 51.4727 19.9671 51.4727 22.0081C51.4727 24.0491 53.1259 25.7036 55.1653 25.7036Z" fill="#61BB73"/>
<path id="Vector_21" d="M55.1653 26.294C52.8058 26.294 50.8828 24.3695 50.8828 22.0081C50.8828 19.6467 52.8058 17.7222 55.1653 17.7222C57.5248 17.7222 59.4478 19.6467 59.4478 22.0081C59.4478 24.3695 57.5248 26.294 55.1653 26.294ZM55.1653 18.9147C53.4547 18.9147 52.0626 20.3079 52.0626 22.0199C52.0626 23.7319 53.4547 25.1251 55.1653 25.1251C56.876 25.1251 58.2681 23.7319 58.2681 22.0199C58.2681 20.3079 56.876 18.9147 55.1653 18.9147Z" fill="#1B1464"/>
<path id="Vector_22" d="M65.9485 25.7036C67.9879 25.7036 69.6411 24.0491 69.6411 22.0081C69.6411 19.9671 67.9879 18.3125 65.9485 18.3125C63.9091 18.3125 62.2559 19.9671 62.2559 22.0081C62.2559 24.0491 63.9091 25.7036 65.9485 25.7036Z" fill="#1B1464"/>
<path id="Vector_23" d="M76.719 25.7036C78.7584 25.7036 80.4116 24.0491 80.4116 22.0081C80.4116 19.9671 78.7584 18.3125 76.719 18.3125C74.6796 18.3125 73.0264 19.9671 73.0264 22.0081C73.0264 24.0491 74.6796 25.7036 76.719 25.7036Z" fill="#61BD73"/>
<path id="Vector_24" d="M76.719 26.294C74.3595 26.294 72.4365 24.3695 72.4365 22.0081C72.4365 19.6467 74.3595 17.7222 76.719 17.7222C79.0785 17.7222 81.0015 19.6467 81.0015 22.0081C81.0015 24.3695 79.0785 26.294 76.719 26.294ZM76.719 18.9147C75.0084 18.9147 73.6163 20.3079 73.6163 22.0199C73.6163 23.7319 75.0084 25.1251 76.719 25.1251C78.4297 25.1251 79.8218 23.7319 79.8218 22.0199C79.8218 20.3079 78.4297 18.9147 76.719 18.9147Z" fill="#1B1464"/>
<path id="Vector_25" d="M101.116 93.6526C103.156 93.6526 104.809 91.9981 104.809 89.9571C104.809 87.916 103.156 86.2615 101.116 86.2615C99.0771 86.2615 97.4238 87.916 97.4238 89.9571C97.4238 91.9981 99.0771 93.6526 101.116 93.6526Z" fill="#61BD73"/>
<path id="Vector_26" d="M101.116 94.2313C98.757 94.2313 96.834 92.3067 96.834 89.9453C96.834 87.584 98.757 85.6594 101.116 85.6594C103.476 85.6594 105.399 87.584 105.399 89.9453C105.399 92.3067 103.476 94.2313 101.116 94.2313ZM101.116 86.8519C99.4058 86.8519 98.0137 88.2451 98.0137 89.9571C98.0137 91.6692 99.4058 93.0624 101.116 93.0624C102.827 93.0624 104.219 91.6692 104.219 89.9571C104.219 88.2451 102.827 86.8519 101.116 86.8519Z" fill="#1B1464"/>
<path id="Vector_27" d="M118.849 74.6553C120.888 74.6553 122.542 73.0007 122.542 70.9597C122.542 68.9187 120.888 67.2642 118.849 67.2642C116.809 67.2642 115.156 68.9187 115.156 70.9597C115.156 73.0007 116.809 74.6553 118.849 74.6553Z" fill="#61BD73"/>
<path id="Vector_28" d="M118.849 75.234C116.489 75.234 114.566 73.3094 114.566 70.948C114.566 68.5866 116.489 66.6621 118.849 66.6621C121.208 66.6621 123.131 68.5866 123.131 70.948C123.131 73.3094 121.208 75.234 118.849 75.234ZM118.849 67.8546C117.138 67.8546 115.746 69.2478 115.746 70.9598C115.746 72.6718 117.138 74.0651 118.849 74.0651C120.56 74.0651 121.952 72.6718 121.952 70.9598C121.952 69.2478 120.56 67.8546 118.849 67.8546Z" fill="#1B1464"/>
<path id="Vector_29" d="M45.0905 113.465L46.7775 115.165C47.1433 115.531 47.3202 115.838 47.3202 116.098C47.3202 116.357 47.1433 116.664 46.7775 117.03C46.4118 117.385 46.1051 117.574 45.8455 117.574C45.586 117.574 45.2793 117.396 44.9135 117.03L43.2383 115.342L41.5512 117.03C41.1855 117.396 40.8788 117.574 40.631 117.574C40.3833 117.574 40.0765 117.396 39.699 117.03C39.3333 116.676 39.1445 116.357 39.1445 116.098C39.1445 115.838 39.3215 115.531 39.6872 115.165L41.3743 113.465L39.6872 111.765C39.3215 111.399 39.1445 111.092 39.1445 110.832C39.1445 110.572 39.3333 110.265 39.699 109.899C40.0647 109.533 40.3715 109.356 40.631 109.356C40.8906 109.356 41.1855 109.533 41.5512 109.899L43.2383 111.599L44.9135 109.899C45.2793 109.533 45.586 109.356 45.8455 109.356C46.1051 109.356 46.4118 109.533 46.7775 109.899C47.1433 110.265 47.3202 110.572 47.3202 110.832C47.3202 111.092 47.1433 111.399 46.7775 111.765L45.0905 113.465Z" fill="#1B1464"/>
<path id="Vector_30" d="M98.2028 110.761L99.8899 112.461C100.256 112.827 100.433 113.134 100.433 113.394C100.433 113.654 100.256 113.961 99.8899 114.327C99.5241 114.681 99.2174 114.87 98.9578 114.87C98.6983 114.87 98.3916 114.693 98.0258 114.327L96.3506 112.638L94.6635 114.327C94.2978 114.693 93.9911 114.87 93.7433 114.87C93.4956 114.87 93.1888 114.693 92.8113 114.327C92.4456 113.972 92.2568 113.654 92.2568 113.394C92.2568 113.134 92.4338 112.827 92.7995 112.461L94.4866 110.761L92.7995 109.061C92.4338 108.695 92.2568 108.388 92.2568 108.128C92.2568 107.868 92.4456 107.561 92.8113 107.195C93.177 106.829 93.4838 106.652 93.7433 106.652C94.0029 106.652 94.2978 106.829 94.6635 107.195L96.3506 108.895L98.0258 107.195C98.3916 106.829 98.6983 106.652 98.9578 106.652C99.2174 106.652 99.5241 106.829 99.8899 107.195C100.256 107.561 100.433 107.868 100.433 108.128C100.433 108.388 100.256 108.695 99.8899 109.061L98.2028 110.761Z" fill="#1B1464"/>
<path id="Vector_31" d="M89.7438 39.872L91.4309 41.5722C91.7966 41.9382 91.9736 42.2452 91.9736 42.5049C91.9736 42.7647 91.7966 43.0717 91.4309 43.4377C91.0651 43.7919 90.7584 43.9808 90.4989 43.9808C90.2393 43.9808 89.9326 43.8037 89.5669 43.4377L87.8916 41.7493L86.2046 43.4377C85.8388 43.8037 85.5321 43.9808 85.2843 43.9808C85.0366 43.9808 84.7299 43.8037 84.3523 43.4377C83.9866 43.0835 83.7979 42.7647 83.7979 42.5049C83.7979 42.2452 83.9748 41.9382 84.3405 41.5722L86.0276 39.872L84.3405 38.1718C83.9748 37.8058 83.7979 37.4988 83.7979 37.2391C83.7979 36.9793 83.9866 36.6723 84.3523 36.3063C84.7181 35.9403 85.0248 35.7632 85.2843 35.7632C85.5439 35.7632 85.8388 35.9403 86.2046 36.3063L87.8916 38.0065L89.5669 36.3063C89.9326 35.9403 90.2393 35.7632 90.4989 35.7632C90.7584 35.7632 91.0651 35.9403 91.4309 36.3063C91.7966 36.6723 91.9736 36.9793 91.9736 37.2391C91.9736 37.4988 91.7966 37.8058 91.4309 38.1718L89.7438 39.872Z" fill="#1B1464"/>
<path id="Vector_32" d="M90.2753 85.0926V60.8057C90.2753 59.3299 89.4849 57.9602 88.2107 57.2282L67.1993 45.0789C65.9252 44.335 64.3443 44.335 63.0701 45.0789L42.0587 57.2282C40.7846 57.9721 39.9941 59.3299 39.9941 60.8057V85.0926C39.9941 86.5685 40.7846 87.9381 42.0587 88.6701L63.0701 100.819C64.3443 101.563 65.9252 101.563 67.1993 100.819L88.2107 88.6701C89.4849 87.9263 90.2753 86.5685 90.2753 85.0926Z" fill="#1B1464"/>
<g id="ynd8qe">
<path id="Vector_33" d="M62.8926 71.2195C63.4353 68.929 63.9662 66.6502 64.5089 64.3833C64.5325 64.2888 64.5561 64.1944 64.5915 64.0999C64.6505 63.8992 64.8038 63.7929 65.0044 63.7811C65.3937 63.7575 65.783 63.7575 66.1723 63.7811C66.3729 63.7811 66.4909 63.911 66.5617 64.0999C66.6442 64.3479 66.6914 64.6194 66.7504 64.8674C67.2577 66.9926 67.7532 69.1297 68.2605 71.2667C68.3195 71.2431 68.3077 71.1841 68.3195 71.1487C68.8622 69.047 69.4049 66.9336 69.9476 64.832C70.0183 64.5722 70.0655 64.3124 70.1717 64.0645C70.2543 63.8756 70.3841 63.7811 70.5846 63.7693C70.9621 63.7693 71.3515 63.7693 71.729 63.7693C71.8706 63.7693 71.9413 63.852 71.9531 64.0055C71.9531 64.1235 71.9295 64.2416 71.8941 64.3597C71.0447 67.0871 70.1953 69.8027 69.3459 72.5301C69.3223 72.6127 69.2869 72.7072 69.2515 72.7898C69.1689 72.9906 69.0156 73.0968 68.815 73.0968C68.4257 73.0968 68.0364 73.0968 67.6588 73.0968C67.4465 73.0968 67.3049 72.9669 67.2459 72.7662C67.1751 72.4947 67.1043 72.2231 67.0454 71.9515C66.5617 69.9326 66.078 67.9254 65.5943 65.9064C65.5943 65.8828 65.5825 65.871 65.5589 65.8237C65.4527 66.2488 65.3583 66.6384 65.2639 67.0399C64.8274 68.8817 64.3909 70.7118 63.9426 72.5537C63.8364 73.0142 63.7184 73.0968 63.2465 73.0968C62.987 73.0968 62.7275 73.0968 62.4561 73.0968C62.0668 73.0968 61.937 73.0142 61.819 72.6363C61.6303 72.0224 61.4415 71.4202 61.2528 70.8063C60.6039 68.6692 59.955 66.544 59.3062 64.4069C59.2708 64.3006 59.2472 64.1944 59.2354 64.0763C59.2118 63.8874 59.2944 63.7811 59.4831 63.7811C59.8606 63.7811 60.2264 63.7811 60.6039 63.7811C60.828 63.7811 60.9814 63.8874 61.0522 64.0999C61.182 64.4541 61.2528 64.832 61.3471 65.2098C61.8544 67.1815 62.3499 69.1415 62.8454 71.1132C62.8454 71.1487 62.869 71.1841 62.8808 71.2313L62.8926 71.2195Z" fill="white"/>
<path id="Vector_34" d="M65.2877 82.389C62.3147 82.389 59.6485 81.9285 57.0766 80.9958C54.6463 80.122 52.4284 78.8587 50.4228 77.2411C50.1043 76.9814 49.8093 76.7216 49.5026 76.4619C49.5026 76.4619 49.479 76.4501 49.479 76.4383C49.3374 76.2966 49.302 76.1431 49.3964 76.0132C49.479 75.8952 49.6442 75.8715 49.8211 75.966C50.1987 76.1667 50.5762 76.3911 50.9537 76.5918C52.9121 77.619 54.9531 78.41 57.0884 79.0004C58.3272 79.3428 59.5777 79.6025 60.8518 79.7915C61.7721 79.9331 62.7041 80.0276 63.6361 80.0748C64.5091 80.122 65.3703 80.1339 66.2433 80.122C67.3287 80.0984 68.4141 80.004 69.4995 79.8505C71.9887 79.5081 74.3954 78.8823 76.7313 77.9732C76.9673 77.8787 77.2033 77.7843 77.4392 77.6898C77.6044 77.619 77.7695 77.6072 77.9347 77.6898C78.206 77.8315 78.2532 78.1385 78.0527 78.3746C77.9229 78.5281 77.7459 78.6226 77.5808 78.7406C75.9999 79.8269 74.2775 80.6179 72.4606 81.2201C71.0095 81.6924 69.5348 82.023 68.013 82.2119C67.0338 82.3417 66.0546 82.4126 65.2995 82.4008L65.2877 82.389Z" fill="#FE9901"/>
<path id="Vector_35" d="M56.6042 71.8807C56.4155 72.0814 56.2385 72.2704 56.0262 72.4475C55.2357 73.0968 54.3273 73.3684 53.3127 73.3212C52.7818 73.2976 52.2863 73.1913 51.8262 72.9079C51.0948 72.4475 50.7173 71.7627 50.6347 70.9126C50.5757 70.3104 50.6347 69.7083 50.9414 69.1651C51.3425 68.4213 51.9914 67.9844 52.7818 67.7483C53.4661 67.5476 54.1621 67.5358 54.87 67.6066C55.3773 67.6538 55.8728 67.7483 56.3683 67.8664C56.4037 67.8664 56.4745 67.9136 56.4745 67.8191C56.4745 67.3351 56.4981 66.851 56.4037 66.3669C56.2385 65.505 55.802 65.1272 54.9408 64.9973C53.9734 64.8674 53.065 65.0563 52.1684 65.3869C51.9796 65.4578 51.8026 65.5286 51.6021 65.5876C51.3543 65.6585 51.2482 65.5876 51.2364 65.3279C51.2364 65.1154 51.2364 64.9146 51.2364 64.7021C51.2364 64.4778 51.3425 64.3243 51.5313 64.2298C51.8498 64.0527 52.192 63.9347 52.5459 63.8284C53.5723 63.5096 54.6105 63.4388 55.6604 63.6159C56.1913 63.6985 56.6868 63.8756 57.1115 64.2062C57.7132 64.6667 57.9846 65.3161 58.1143 66.0363C58.1733 66.3787 58.1969 66.7093 58.1851 67.0517C58.1851 68.1143 58.1851 69.1769 58.1851 70.2396C58.1851 70.4875 58.2087 70.7355 58.2441 70.9834C58.2913 71.373 58.4683 71.7154 58.6452 72.046C58.775 72.3176 58.7396 72.4711 58.4919 72.6364C58.2913 72.7781 58.0907 72.9079 57.8784 73.0496C57.6188 73.2149 57.4301 73.1913 57.2295 72.967C57.0172 72.7308 56.852 72.4593 56.7104 72.1759C56.6632 72.0814 56.616 71.9988 56.5689 71.9043L56.6042 71.8807ZM54.9172 68.8227C54.4217 68.8109 54.0796 68.8227 53.7492 68.8936C53.1948 69.0234 52.7464 69.295 52.5577 69.8736C52.4515 70.1805 52.4515 70.4875 52.4987 70.7945C52.5695 71.373 52.9588 71.8099 53.5369 71.9043C54.2683 72.0224 54.9526 71.9043 55.5779 71.4911C56.0262 71.2077 56.3329 70.8181 56.4391 70.275C56.5099 69.8972 56.5217 69.5075 56.5217 69.1179C56.5217 69.0589 56.4981 69.0471 56.4391 69.0353C55.8964 68.9054 55.3419 68.8345 54.929 68.8227H54.9172Z" fill="white"/>
<path id="Vector_36" d="M76.2827 63.4978C76.9906 63.4978 77.6749 63.6159 78.3355 63.8402C78.4535 63.8874 78.5715 63.9347 78.6894 63.9937C78.9844 64.1472 79.126 64.3715 79.1024 64.7139C79.0906 64.8674 79.1024 65.0209 79.1024 65.1744C79.0788 65.3987 78.9726 65.4696 78.7484 65.4223C78.5361 65.3633 78.3355 65.2452 78.1232 65.1744C77.2619 64.891 76.3889 64.8084 75.4923 65.0091C75.3861 65.0327 75.28 65.0799 75.1738 65.1272C74.3833 65.4696 74.3479 66.5676 74.9968 66.9927C75.3743 67.2406 75.7872 67.3823 76.2002 67.524C76.8018 67.7247 77.4153 67.8782 78.0052 68.1261C78.5479 68.3505 79.008 68.6811 79.3029 69.2006C79.9164 70.2632 79.6332 71.6918 78.6541 72.5065C78.135 72.9434 77.5215 73.1795 76.8608 73.2858C75.6575 73.4865 74.4895 73.3212 73.357 72.8961C73.2272 72.8489 73.0974 72.7781 72.9794 72.7072C72.7907 72.5892 72.6963 72.4239 72.6963 72.1995C72.6963 72.0106 72.6963 71.8217 72.6963 71.621C72.6963 71.3612 72.8379 71.255 73.0974 71.3376C73.4041 71.4321 73.6991 71.5856 74.0176 71.68C74.8199 71.9162 75.6339 72.0106 76.4715 71.8925C76.8018 71.8453 77.1204 71.7509 77.4035 71.5501C78.0288 71.1251 78.0996 70.0743 77.3209 69.6374C77.0024 69.4603 76.6603 69.3422 76.3181 69.236C75.7165 69.0353 75.0912 68.8936 74.5013 68.6338C73.7109 68.2914 73.1564 67.7365 72.9086 66.91C72.6255 65.9418 72.9676 64.9146 73.7699 64.2771C74.4069 63.7694 75.1384 63.545 75.9406 63.4978C76.0586 63.4978 76.1766 63.4978 76.3063 63.4978H76.2827Z" fill="white"/>
<path id="Vector_37" d="M78.7247 75.2694C79.2792 75.2812 79.8101 75.3166 80.3292 75.4583C80.8247 75.6 80.9427 75.7298 80.9427 76.2494C80.9427 77.1585 80.7067 78.0204 80.3528 78.8587C80.0225 79.6379 79.5742 80.3464 78.9371 80.9131C78.8545 80.9839 78.7837 81.0548 78.6775 81.0784C78.595 81.102 78.5242 81.1138 78.4534 81.043C78.3944 80.9839 78.3826 80.9131 78.418 80.8304C78.5124 80.5825 78.6067 80.3227 78.7129 80.0748C78.9725 79.39 79.232 78.6934 79.3854 77.9614C79.4444 77.6662 79.5034 77.371 79.4562 77.0758C79.4208 76.8751 79.3264 76.7452 79.1376 76.6626C78.8545 76.5327 78.5478 76.5091 78.241 76.4973C77.4978 76.4619 76.7545 76.5209 76.0113 76.6036C75.7753 76.6272 75.5394 76.6626 75.3034 76.6862C75.2091 76.6862 75.1029 76.6862 75.0557 76.5918C74.9967 76.4855 75.0557 76.391 75.1147 76.3202C75.2562 76.1549 75.445 76.0604 75.6338 75.966C76.2826 75.6118 76.9905 75.4229 77.7219 75.3284C78.0641 75.2812 78.4062 75.2694 78.7365 75.2576L78.7247 75.2694Z" fill="#FE9901"/>
</g>
</g>
<defs>
<clipPath id="clip0_1301_555">
<rect width="131" height="148" fill="white"/>
</clipPath>
</defs>
</svg>
