<svg width="322" height="367" viewBox="0 0 322 367" fill="none" xmlns="http://www.w3.org/2000/svg">
<path d="M130.234 155.846V108.168C130.234 102.47 127.206 97.2147 122.285 94.3593L81.0808 70.5205C76.1606 67.6771 70.0913 67.6771 65.1711 70.5205L23.9664 94.3593C19.0463 97.2027 16.0176 102.47 16.0176 108.168V155.846C16.0176 161.545 19.0463 166.799 23.9664 169.655L65.1711 193.494C70.0913 196.337 76.1606 196.337 81.0808 193.494L122.285 169.655C127.206 166.811 130.234 161.545 130.234 155.846Z" fill="#1B1464"/>
<path d="M71.288 211.514C70.881 211.466 70.5817 211.094 70.6296 210.674C70.6774 210.266 71.0485 209.966 71.4556 210.014C71.8746 210.062 72.1619 210.434 72.126 210.842C72.0781 211.226 71.7548 211.514 71.3718 211.514H71.288ZM75.1187 210.746C75.0469 210.338 75.3222 209.954 75.7293 209.882C76.1363 209.81 76.5313 210.086 76.5912 210.494C76.675 210.902 76.3997 211.286 75.9926 211.358C75.9926 211.358 75.8969 211.37 75.8609 211.37C75.5018 211.37 75.1906 211.118 75.1187 210.746ZM66.7389 210.338C66.3678 210.182 66.1763 209.738 66.3319 209.354C66.4995 208.97 66.9305 208.79 67.3135 208.946C67.6966 209.114 67.8882 209.546 67.7206 209.93C67.6009 210.218 67.3255 210.398 67.0262 210.398C66.9305 210.398 66.8347 210.374 66.7389 210.338ZM79.4523 209.558C79.2727 209.186 79.4284 208.742 79.7995 208.562C80.1706 208.371 80.6135 208.526 80.7931 208.898C80.9846 209.27 80.829 209.726 80.4579 209.906C80.3501 209.954 80.2424 209.99 80.1227 209.99C79.8473 209.978 79.584 209.834 79.4523 209.558ZM62.6927 208.155C62.3335 207.951 62.2138 207.495 62.4173 207.135C62.6328 206.775 63.0877 206.655 63.4469 206.859C63.806 207.063 63.9257 207.531 63.7222 207.891C63.5785 208.131 63.3272 208.263 63.0638 208.263C62.9441 208.263 62.8124 208.227 62.6927 208.155ZM83.3908 207.387C83.1873 207.027 83.307 206.571 83.6661 206.355C84.0253 206.151 84.4802 206.271 84.6957 206.631C84.8992 206.991 84.7794 207.447 84.4203 207.663C84.3006 207.723 84.1689 207.759 84.0372 207.759C83.7739 207.759 83.5225 207.627 83.3908 207.387ZM58.7901 205.899C58.4429 205.695 58.3112 205.239 58.5267 204.879C58.7302 204.519 59.1851 204.399 59.5443 204.603C59.9034 204.807 60.0231 205.275 59.8196 205.635C59.6879 205.875 59.4365 206.007 59.1732 206.007C59.0415 206.007 58.9098 205.971 58.7901 205.899ZM87.2934 205.131C87.0779 204.771 87.2096 204.315 87.5687 204.099C87.9279 203.896 88.3828 204.015 88.5863 204.375C88.8018 204.735 88.6701 205.191 88.3109 205.407C88.2032 205.467 88.0715 205.503 87.9398 205.503C87.6884 205.503 87.4251 205.371 87.2934 205.131ZM54.8995 203.644C54.5403 203.44 54.4206 202.984 54.6241 202.624C54.8276 202.264 55.2945 202.144 55.6537 202.348C56.0128 202.552 56.1325 203.02 55.929 203.38C55.7853 203.62 55.5339 203.752 55.2706 203.752C55.1509 203.752 55.0192 203.716 54.8995 203.644ZM91.184 202.876C90.9805 202.516 91.1002 202.06 91.4594 201.844C91.8185 201.64 92.2854 201.76 92.4889 202.12C92.6924 202.48 92.5727 202.936 92.2135 203.152C92.0938 203.212 91.9622 203.248 91.8424 203.248C91.5791 203.248 91.3277 203.116 91.184 202.876ZM50.9969 201.388C50.6377 201.184 50.518 200.728 50.7215 200.368C50.925 200.008 51.3919 199.888 51.7511 200.092C52.1102 200.296 52.2299 200.764 52.0264 201.124C51.8827 201.364 51.6313 201.496 51.3799 201.496C51.2483 201.496 51.1166 201.46 50.9969 201.388ZM95.0866 200.62C94.8831 200.26 95.0028 199.804 95.362 199.588C95.7211 199.384 96.176 199.504 96.3795 199.864C96.595 200.224 96.4753 200.68 96.1161 200.896C95.9964 200.956 95.8647 200.992 95.745 200.992C95.4817 200.992 95.2303 200.86 95.0866 200.62ZM47.1062 199.133C46.7471 198.929 46.6154 198.473 46.8309 198.113C47.0344 197.753 47.4893 197.633 47.8604 197.837C48.2076 198.041 48.3393 198.509 48.1238 198.869C47.9921 199.109 47.7407 199.241 47.4774 199.241C47.3457 199.241 47.226 199.205 47.1062 199.133ZM98.9892 198.365C98.7737 198.005 98.8934 197.549 99.2526 197.333C99.6117 197.129 100.079 197.249 100.282 197.609C100.486 197.969 100.366 198.425 100.007 198.641C99.887 198.701 99.7673 198.737 99.6357 198.737C99.3723 198.737 99.1209 198.605 98.9892 198.365ZM43.2037 196.877C42.8445 196.673 42.7248 196.217 42.9283 195.857C43.1318 195.497 43.5987 195.377 43.9578 195.581C44.317 195.785 44.4367 196.253 44.2212 196.613C44.0895 196.853 43.8381 196.985 43.5748 196.985C43.4551 196.985 43.3234 196.949 43.2037 196.877ZM102.88 196.109C102.676 195.749 102.796 195.293 103.155 195.077C103.514 194.873 103.981 194.993 104.185 195.353C104.388 195.713 104.268 196.169 103.909 196.385C103.79 196.445 103.658 196.481 103.538 196.481C103.275 196.481 103.023 196.349 102.88 196.109ZM39.3011 194.634C38.9419 194.418 38.8222 193.962 39.0257 193.602C39.2412 193.242 39.6961 193.122 40.0552 193.326C40.4144 193.53 40.5341 193.998 40.3306 194.358C40.1869 194.598 39.9355 194.73 39.6841 194.73C39.5525 194.73 39.4208 194.694 39.3011 194.634ZM106.782 193.854C106.567 193.494 106.699 193.026 107.058 192.822C107.417 192.618 107.872 192.738 108.075 193.098C108.291 193.458 108.159 193.914 107.8 194.13C107.692 194.19 107.561 194.226 107.429 194.226C107.166 194.226 106.914 194.094 106.782 193.854ZM35.4104 192.366C35.0513 192.162 34.9196 191.706 35.1351 191.346C35.3386 190.986 35.7935 190.866 36.1526 191.07C36.5118 191.274 36.6435 191.742 36.428 192.102C36.2963 192.342 36.0449 192.474 35.7815 192.474C35.6499 192.474 35.5301 192.438 35.4104 192.366ZM110.685 191.598C110.47 191.238 110.601 190.782 110.96 190.566C111.308 190.362 111.774 190.482 111.978 190.842C112.181 191.202 112.062 191.658 111.703 191.874C111.583 191.934 111.463 191.97 111.331 191.97C111.068 191.97 110.817 191.838 110.685 191.598ZM31.5078 190.123C31.1487 189.907 31.029 189.451 31.2325 189.091C31.436 188.731 31.9029 188.611 32.262 188.815C32.6212 189.019 32.7409 189.487 32.5374 189.847C32.3937 190.087 32.1423 190.218 31.8789 190.218C31.7592 190.218 31.6276 190.182 31.5078 190.123ZM114.576 189.343C114.372 188.983 114.492 188.515 114.851 188.311C115.21 188.107 115.665 188.227 115.881 188.587C116.084 188.947 115.964 189.403 115.605 189.619C115.485 189.679 115.354 189.715 115.234 189.715C114.971 189.715 114.719 189.583 114.576 189.343ZM27.6052 187.867C27.2461 187.651 27.1264 187.195 27.3419 186.835C27.5454 186.475 28.0003 186.355 28.3594 186.559C28.7186 186.763 28.8383 187.231 28.6348 187.579C28.4911 187.819 28.2397 187.963 27.9883 187.963C27.8566 187.963 27.725 187.927 27.6052 187.867ZM118.478 187.087C118.263 186.727 118.394 186.259 118.754 186.055C119.113 185.851 119.568 185.971 119.771 186.331C119.987 186.691 119.855 187.147 119.496 187.351C119.388 187.423 119.256 187.459 119.125 187.459C118.861 187.459 118.61 187.327 118.478 187.087ZM23.7146 185.611C23.3555 185.396 23.2358 184.94 23.4393 184.58C23.6428 184.22 24.0977 184.1 24.4568 184.304C24.816 184.508 24.9477 184.976 24.7322 185.336C24.6005 185.576 24.3491 185.707 24.0857 185.707C23.954 185.707 23.8343 185.671 23.7146 185.611ZM122.369 184.832C122.165 184.472 122.285 184.004 122.644 183.8C123.003 183.596 123.47 183.716 123.674 184.076C123.877 184.436 123.758 184.892 123.398 185.096C123.279 185.168 123.147 185.204 123.027 185.204C122.764 185.204 122.513 185.072 122.369 184.832ZM19.812 183.356C19.4529 183.14 19.3332 182.684 19.5367 182.324C19.7402 181.964 20.2071 181.844 20.5662 182.048C20.9253 182.252 21.0451 182.72 20.8415 183.068C20.6979 183.32 20.4465 183.452 20.1831 183.452C20.0634 183.452 19.9317 183.416 19.812 183.356ZM126.271 182.576C126.068 182.216 126.188 181.748 126.547 181.544C126.906 181.34 127.361 181.46 127.576 181.82C127.78 182.18 127.66 182.636 127.301 182.84C127.181 182.912 127.05 182.948 126.918 182.948C126.667 182.948 126.415 182.816 126.271 182.576ZM15.9094 181.1C15.5503 180.885 15.4306 180.429 15.6341 180.069C15.8496 179.709 16.3045 179.589 16.6636 179.793C17.0227 179.997 17.1425 180.465 16.939 180.813C16.7953 181.052 16.5439 181.196 16.2805 181.196C16.1608 181.196 16.0291 181.16 15.9094 181.1ZM130.174 180.321C129.959 179.961 130.078 179.493 130.437 179.289C130.797 179.085 131.263 179.205 131.467 179.565C131.67 179.925 131.551 180.381 131.192 180.585C131.072 180.657 130.952 180.693 130.82 180.693C130.557 180.693 130.306 180.561 130.174 180.321ZM12.0188 178.845C11.6597 178.629 11.54 178.173 11.7435 177.813C11.947 177.453 12.4019 177.333 12.773 177.537C13.1321 177.741 13.2518 178.197 13.0364 178.557C12.9047 178.809 12.6533 178.941 12.3899 178.941C12.2582 178.941 12.1385 178.905 12.0188 178.845ZM134.065 178.065C133.861 177.705 133.981 177.237 134.34 177.033C134.699 176.829 135.166 176.949 135.37 177.309C135.573 177.669 135.453 178.125 135.094 178.329C134.974 178.401 134.843 178.437 134.711 178.437C134.46 178.437 134.208 178.305 134.065 178.065ZM8.14016 176.326C7.81694 176.062 7.76905 175.582 8.03242 175.27C8.30775 174.946 8.77463 174.898 9.09785 175.162C9.4091 175.426 9.45698 175.906 9.19362 176.23C9.04996 176.41 8.83448 176.493 8.619 176.493C8.45141 176.493 8.27184 176.445 8.14016 176.326ZM137.836 175.594C137.548 175.294 137.56 174.814 137.86 174.538C138.171 174.25 138.638 174.262 138.925 174.562C139.212 174.874 139.188 175.342 138.889 175.63C138.745 175.762 138.566 175.834 138.374 175.834C138.183 175.834 137.979 175.75 137.836 175.594ZM4.97977 172.846C4.74035 172.498 4.83612 172.03 5.17131 171.802C5.51848 171.563 5.98535 171.659 6.2128 171.994C6.45223 172.342 6.35646 172.81 6.02126 173.038C5.88958 173.134 5.74593 173.17 5.5903 173.17C5.35088 173.17 5.12343 173.062 4.97977 172.846ZM140.804 172.222C140.445 172.006 140.326 171.551 140.541 171.191C140.745 170.831 141.211 170.711 141.559 170.927C141.918 171.131 142.037 171.599 141.834 171.958C141.69 172.186 141.439 172.318 141.176 172.318C141.056 172.318 140.924 172.294 140.804 172.222ZM2.90876 168.611C2.77708 168.215 2.99256 167.795 3.38761 167.663C3.78266 167.543 4.21362 167.759 4.33333 168.155C4.46501 168.539 4.24953 168.971 3.85449 169.103C3.77069 169.127 3.69886 169.139 3.62703 169.139C3.30381 169.139 3.01651 168.935 2.90876 168.611ZM142.708 168.143C142.313 168.047 142.073 167.627 142.169 167.231C142.277 166.824 142.684 166.584 143.079 166.692C143.486 166.8 143.725 167.207 143.63 167.603C143.534 167.939 143.235 168.167 142.899 168.167C142.899 168.167 142.78 168.167 142.708 168.143ZM2.1067 163.98C2.1067 163.56 2.41795 163.212 2.83694 163.2C3.24396 163.188 3.59112 163.512 3.60309 163.932C3.61506 164.34 3.29184 164.7 2.87285 164.7H2.84891C2.44189 164.7 2.11867 164.388 2.1067 163.98ZM142.648 163.464C142.648 163.044 142.983 162.708 143.39 162.708C143.809 162.708 144.144 163.044 144.144 163.464C144.144 163.872 143.809 164.208 143.39 164.208C142.983 164.208 142.648 163.872 142.648 163.464ZM2.09473 159.445C2.09473 159.025 2.42992 158.689 2.84891 158.689C3.2679 158.689 3.59112 159.025 3.59112 159.445C3.59112 159.853 3.2679 160.189 2.84891 160.189C2.42992 160.189 2.09473 159.853 2.09473 159.445ZM142.648 158.953C142.648 158.533 142.983 158.197 143.39 158.197C143.809 158.197 144.144 158.533 144.144 158.953C144.144 159.361 143.809 159.697 143.39 159.697C142.983 159.697 142.648 159.361 142.648 158.953ZM2.09473 154.934C2.09473 154.514 2.42992 154.178 2.84891 154.178C3.2679 154.178 3.59112 154.514 3.59112 154.934C3.59112 155.342 3.2679 155.678 2.84891 155.678C2.42992 155.678 2.09473 155.342 2.09473 154.934ZM142.648 154.442C142.648 154.022 142.983 153.686 143.39 153.686C143.809 153.686 144.144 154.022 144.144 154.442C144.144 154.85 143.809 155.186 143.39 155.186C142.983 155.186 142.648 154.85 142.648 154.442ZM2.09473 150.423C2.09473 150.003 2.42992 149.667 2.84891 149.667C3.2679 149.667 3.59112 150.003 3.59112 150.423C3.59112 150.831 3.2679 151.167 2.84891 151.167C2.42992 151.167 2.09473 150.831 2.09473 150.423ZM142.648 149.931C142.648 149.511 142.983 149.175 143.39 149.175C143.809 149.175 144.144 149.511 144.144 149.931C144.144 150.339 143.809 150.675 143.39 150.675C142.983 150.675 142.648 150.339 142.648 149.931ZM2.09473 145.912C2.09473 145.492 2.42992 145.156 2.84891 145.156C3.2679 145.156 3.59112 145.492 3.59112 145.912C3.59112 146.32 3.2679 146.656 2.84891 146.656C2.42992 146.656 2.09473 146.32 2.09473 145.912ZM142.648 145.42C142.648 145 142.983 144.664 143.39 144.664C143.809 144.664 144.144 145 144.144 145.42C144.144 145.828 143.809 146.164 143.39 146.164C142.983 146.164 142.648 145.828 142.648 145.42ZM2.09473 141.401C2.09473 140.981 2.42992 140.645 2.84891 140.645C3.2679 140.645 3.59112 140.981 3.59112 141.401C3.59112 141.809 3.2679 142.145 2.84891 142.145C2.42992 142.145 2.09473 141.809 2.09473 141.401ZM142.648 140.897C142.648 140.489 142.983 140.153 143.39 140.153C143.809 140.153 144.144 140.489 144.144 140.897C144.144 141.317 143.809 141.653 143.39 141.653C142.983 141.653 142.648 141.317 142.648 140.897ZM2.09473 136.89C2.09473 136.47 2.42992 136.134 2.84891 136.134C3.2679 136.134 3.59112 136.47 3.59112 136.89C3.59112 137.298 3.2679 137.634 2.84891 137.634C2.42992 137.634 2.09473 137.298 2.09473 136.89ZM142.648 136.386C142.648 135.978 142.983 135.642 143.39 135.642C143.809 135.642 144.144 135.978 144.144 136.386C144.144 136.806 143.809 137.142 143.39 137.142C142.983 137.142 142.648 136.806 142.648 136.386ZM2.09473 132.379C2.09473 131.959 2.42992 131.623 2.84891 131.623C3.2679 131.623 3.59112 131.959 3.59112 132.379C3.59112 132.787 3.2679 133.123 2.84891 133.123C2.42992 133.123 2.09473 132.787 2.09473 132.379ZM142.648 131.875C142.648 131.467 142.983 131.131 143.39 131.131C143.809 131.131 144.144 131.467 144.144 131.875C144.144 132.295 143.809 132.631 143.39 132.631C142.983 132.631 142.648 132.295 142.648 131.875ZM2.09473 127.868C2.09473 127.448 2.42992 127.112 2.84891 127.112C3.2679 127.112 3.59112 127.448 3.59112 127.868C3.59112 128.276 3.2679 128.612 2.84891 128.612C2.42992 128.612 2.09473 128.276 2.09473 127.868ZM142.648 127.364C142.648 126.956 142.983 126.62 143.39 126.62C143.809 126.62 144.144 126.956 144.144 127.364C144.144 127.784 143.809 128.12 143.39 128.12C142.983 128.12 142.648 127.784 142.648 127.364ZM2.09473 123.357C2.09473 122.937 2.42992 122.601 2.84891 122.601C3.2679 122.601 3.59112 122.937 3.59112 123.357C3.59112 123.765 3.2679 124.101 2.84891 124.101C2.42992 124.101 2.09473 123.765 2.09473 123.357ZM142.648 122.853C142.648 122.445 142.983 122.109 143.39 122.109C143.809 122.109 144.144 122.445 144.144 122.853C144.144 123.273 143.809 123.609 143.39 123.609C142.983 123.609 142.648 123.273 142.648 122.853ZM2.09473 118.846C2.09473 118.426 2.42992 118.09 2.84891 118.09C3.2679 118.09 3.59112 118.426 3.59112 118.846C3.59112 119.254 3.2679 119.59 2.84891 119.59C2.42992 119.59 2.09473 119.254 2.09473 118.846ZM142.648 118.342C142.648 117.934 142.983 117.598 143.39 117.598C143.809 117.598 144.144 117.934 144.144 118.342C144.144 118.762 143.809 119.098 143.39 119.098C142.983 119.098 142.648 118.762 142.648 118.342ZM2.09473 114.335C2.09473 113.915 2.42992 113.579 2.84891 113.579C3.2679 113.579 3.59112 113.915 3.59112 114.335C3.59112 114.743 3.2679 115.079 2.84891 115.079C2.42992 115.079 2.09473 114.743 2.09473 114.335ZM142.648 113.831C142.648 113.423 142.983 113.087 143.39 113.087C143.809 113.087 144.144 113.423 144.144 113.831C144.144 114.251 143.809 114.587 143.39 114.587C142.983 114.587 142.648 114.251 142.648 113.831ZM2.09473 109.824C2.09473 109.404 2.42992 109.068 2.84891 109.068C3.2679 109.068 3.59112 109.404 3.59112 109.824C3.59112 110.232 3.2679 110.568 2.84891 110.568C2.42992 110.568 2.09473 110.232 2.09473 109.824ZM142.648 109.32C142.648 108.912 142.983 108.576 143.39 108.576C143.809 108.576 144.144 108.912 144.144 109.32C144.144 109.74 143.809 110.076 143.39 110.076C142.983 110.076 142.648 109.74 142.648 109.32ZM2.09473 105.313C2.09473 104.893 2.42992 104.557 2.84891 104.557C3.2679 104.557 3.59112 104.893 3.59112 105.313C3.59112 105.721 3.2679 106.057 2.84891 106.057C2.42992 106.057 2.09473 105.721 2.09473 105.313ZM142.648 104.809C142.648 104.401 142.983 104.065 143.39 104.065C143.809 104.065 144.144 104.401 144.144 104.809C144.144 105.229 143.809 105.565 143.39 105.565C142.983 105.565 142.648 105.229 142.648 104.809ZM2.09473 100.79C2.09473 100.382 2.42992 100.046 2.84891 100.046C3.2679 100.046 3.59112 100.382 3.59112 100.79C3.59112 101.21 3.2679 101.546 2.84891 101.546C2.42992 101.546 2.09473 101.21 2.09473 100.79ZM142.648 100.31C142.648 99.9022 142.971 99.5543 143.378 99.5543C143.797 99.5423 144.132 99.8782 144.144 100.286C144.144 100.706 143.821 101.042 143.402 101.054C142.995 101.054 142.66 100.73 142.66 100.31H142.648ZM3.20804 97.0588C2.813 96.9508 2.57357 96.5429 2.68131 96.135C2.80102 95.7391 3.20804 95.4991 3.60309 95.6191C4.01011 95.7151 4.23756 96.135 4.12982 96.5309C4.04602 96.8668 3.73477 97.0948 3.41155 97.0948C3.33973 97.0948 3.27987 97.0828 3.20804 97.0588ZM141.978 96.075C141.858 95.6791 142.073 95.2592 142.468 95.1392C142.875 95.0192 143.294 95.2472 143.414 95.6431C143.534 96.039 143.306 96.4589 142.911 96.5789C142.84 96.6029 142.768 96.6149 142.696 96.6149C142.373 96.6149 142.073 96.3989 141.978 96.075ZM4.80021 92.8477C4.44107 92.6438 4.33333 92.1759 4.54881 91.8159C4.76429 91.468 5.23117 91.36 5.57833 91.564C5.93747 91.7919 6.04521 92.2478 5.82973 92.6078C5.68607 92.8357 5.44665 92.9677 5.18328 92.9677C5.0516 92.9677 4.91992 92.9317 4.80021 92.8477ZM140.158 92.1998C139.931 91.8639 140.026 91.396 140.373 91.1561C140.721 90.9401 141.188 91.0361 141.415 91.384C141.642 91.72 141.547 92.1879 141.199 92.4158C141.068 92.4998 140.924 92.5478 140.78 92.5478C140.541 92.5478 140.302 92.4278 140.158 92.1998ZM7.49372 89.2605C7.21838 88.9486 7.24232 88.4687 7.5416 88.1927C7.85285 87.9168 8.31972 87.9288 8.60703 88.2407C8.88237 88.5526 8.85843 89.0205 8.55915 89.3085C8.41549 89.4405 8.22395 89.5004 8.04439 89.5004C7.84088 89.5004 7.64934 89.4165 7.49372 89.2605ZM137.333 88.9965C137.022 88.7206 136.986 88.2407 137.249 87.9288C137.524 87.6168 137.991 87.5809 138.302 87.8448C138.626 88.1207 138.662 88.5886 138.386 88.9126C138.243 89.0805 138.039 89.1765 137.824 89.1765C137.644 89.1765 137.476 89.1165 137.333 88.9965ZM11.097 86.5611C10.8816 86.2012 11.0132 85.7453 11.3724 85.5413C11.7315 85.3254 12.1864 85.4573 12.3899 85.8172C12.6054 86.1772 12.4737 86.6331 12.1146 86.837C11.9949 86.909 11.8752 86.945 11.7435 86.945C11.4801 86.945 11.2287 86.801 11.097 86.5611ZM133.694 86.5851C133.334 86.3811 133.215 85.9252 133.418 85.5653C133.622 85.2054 134.089 85.0854 134.448 85.2894C134.807 85.4933 134.927 85.9612 134.723 86.3211C134.579 86.5611 134.328 86.6931 134.077 86.6931C133.945 86.6931 133.813 86.6571 133.694 86.5851ZM14.9877 84.3056C14.7841 83.9456 14.9039 83.4897 15.263 83.2858C15.6221 83.0698 16.089 83.2018 16.2925 83.5617C16.496 83.9217 16.3763 84.3776 16.0172 84.5815C15.8975 84.6535 15.7658 84.6895 15.6461 84.6895C15.3827 84.6895 15.1313 84.5455 14.9877 84.3056ZM129.791 84.3416C129.432 84.1256 129.312 83.6697 129.516 83.3098C129.731 82.9499 130.186 82.8299 130.545 83.0338C130.904 83.2378 131.024 83.7057 130.82 84.0656C130.677 84.3056 130.425 84.4375 130.174 84.4375C130.042 84.4375 129.911 84.4016 129.791 84.3416ZM18.8902 82.0501C18.6867 81.6901 18.8065 81.2342 19.1656 81.0303C19.5247 80.8143 19.9796 80.9463 20.1831 81.3062C20.3986 81.6661 20.2789 82.122 19.9198 82.326C19.8001 82.398 19.6684 82.434 19.5367 82.434C19.2853 82.434 19.0339 82.29 18.8902 82.0501ZM125.9 82.0861C125.541 81.8701 125.422 81.4142 125.625 81.0543C125.829 80.6944 126.295 80.5744 126.655 80.7783C127.014 80.9823 127.133 81.4502 126.918 81.8101C126.786 82.0501 126.535 82.182 126.271 82.182C126.14 82.182 126.02 82.146 125.9 82.0861ZM22.7928 79.7946C22.5774 79.4346 22.709 78.9787 23.0682 78.7748C23.4273 78.5588 23.8822 78.6908 24.0857 79.0507C24.3012 79.4106 24.1695 79.8665 23.8104 80.0705C23.6907 80.1425 23.571 80.1785 23.4393 80.1785C23.1759 80.1785 22.9245 80.0345 22.7928 79.7946ZM121.998 79.8305C121.639 79.6146 121.519 79.1587 121.722 78.7988C121.938 78.4388 122.393 78.3189 122.752 78.5228C123.111 78.7268 123.231 79.1947 123.027 79.5546C122.884 79.7945 122.632 79.9265 122.381 79.9265C122.249 79.9265 122.117 79.8905 121.998 79.8305ZM26.6835 77.539C26.48 77.1791 26.5997 76.7232 26.9588 76.5193C27.3179 76.3033 27.7848 76.4353 27.9883 76.7952C28.1918 77.1551 28.0721 77.611 27.713 77.815C27.5933 77.887 27.4616 77.923 27.3419 77.923C27.0785 77.923 26.8271 77.779 26.6835 77.539ZM118.107 77.575C117.748 77.3591 117.616 76.9032 117.832 76.5433C118.035 76.1833 118.49 76.0634 118.849 76.2673C119.208 76.4713 119.34 76.9392 119.125 77.2991C118.993 77.539 118.742 77.671 118.478 77.671C118.347 77.671 118.215 77.635 118.107 77.575ZM30.5861 75.2835C30.3826 74.9236 30.5023 74.4677 30.8614 74.2638C31.2205 74.0478 31.6754 74.1798 31.8909 74.5397C32.0944 74.8996 31.9747 75.3555 31.6156 75.5595C31.4959 75.6315 31.3642 75.6675 31.2325 75.6675C30.9811 75.6675 30.7297 75.5235 30.5861 75.2835ZM114.205 75.3195C113.845 75.1036 113.726 74.6477 113.929 74.2878C114.133 73.9278 114.6 73.8079 114.959 74.0118C115.306 74.2158 115.438 74.6837 115.234 75.0436C115.09 75.2835 114.839 75.4155 114.576 75.4155C114.456 75.4155 114.324 75.3795 114.205 75.3195ZM34.4887 73.028C34.2732 72.6681 34.3929 72.2122 34.752 72.0083C35.1112 71.7923 35.578 71.9243 35.7815 72.2842C35.9851 72.6441 35.8653 73.1 35.5062 73.304C35.3865 73.3759 35.2668 73.4119 35.1351 73.4119C34.8717 73.4119 34.6203 73.268 34.4887 73.028ZM110.302 73.064C109.943 72.8481 109.823 72.3922 110.027 72.0322C110.242 71.6723 110.697 71.5524 111.056 71.7563C111.415 71.9603 111.535 72.4282 111.331 72.7881C111.188 73.028 110.936 73.16 110.685 73.16C110.553 73.16 110.422 73.124 110.302 73.064ZM38.3793 70.7725C38.1758 70.4126 38.2955 69.9567 38.6546 69.7527C39.0138 69.5368 39.4687 69.6688 39.6841 70.0287C39.8876 70.3886 39.7679 70.8445 39.4088 71.0485C39.2891 71.1204 39.1574 71.1564 39.0377 71.1564C38.7743 71.1564 38.5229 71.0125 38.3793 70.7725ZM106.399 70.8085C106.052 70.5926 105.921 70.1367 106.136 69.7767C106.34 69.4168 106.794 69.2968 107.154 69.5008C107.513 69.7048 107.632 70.1727 107.429 70.5326C107.297 70.7725 107.046 70.9045 106.782 70.9045C106.651 70.9045 106.519 70.8685 106.399 70.8085ZM42.2819 68.517C42.0784 68.1571 42.1981 67.7012 42.5572 67.4972C42.9163 67.2813 43.3713 67.4133 43.5748 67.7732C43.7902 68.1331 43.6586 68.589 43.2994 68.793C43.1917 68.8649 43.06 68.9009 42.9283 68.9009C42.665 68.9009 42.4136 68.757 42.2819 68.517ZM102.509 68.553C102.15 68.3371 102.03 67.8811 102.233 67.5212C102.437 67.1613 102.904 67.0413 103.263 67.2453C103.622 67.4492 103.742 67.9171 103.538 68.2771C103.395 68.517 103.143 68.649 102.88 68.649C102.76 68.649 102.628 68.613 102.509 68.553ZM46.1725 66.2615C45.969 65.9016 46.1007 65.4457 46.4478 65.2417C46.807 65.0258 47.2738 65.1577 47.4774 65.5177C47.6809 65.8776 47.5612 66.3335 47.202 66.5374C47.0823 66.6094 46.9506 66.6454 46.8309 66.6454C46.5675 66.6454 46.3162 66.5015 46.1725 66.2615ZM98.6061 66.2975C98.247 66.0815 98.1273 65.6256 98.3308 65.2657C98.5463 64.9058 99.0012 64.7858 99.3603 64.9898C99.7195 65.1937 99.8392 65.6616 99.6357 66.0216C99.492 66.2615 99.2406 66.3935 98.9892 66.3935C98.8575 66.3935 98.7258 66.3575 98.6061 66.2975ZM50.0751 64.006C49.8716 63.6461 49.9913 63.1902 50.3504 62.9862C50.7096 62.7703 51.1645 62.9022 51.3799 63.2622C51.5835 63.6221 51.4637 64.078 51.1046 64.2819C50.9849 64.3539 50.8532 64.3899 50.7335 64.3899C50.4701 64.3899 50.2188 64.2459 50.0751 64.006ZM94.7155 64.042C94.3564 63.826 94.2367 63.3701 94.4402 63.0102C94.6437 62.6503 95.0986 62.5303 95.4577 62.7343C95.8169 62.9382 95.9485 63.4061 95.7331 63.766C95.6014 64.006 95.35 64.138 95.0866 64.138C94.9549 64.138 94.8352 64.102 94.7155 64.042ZM53.9777 61.7505C53.7742 61.3906 53.8939 60.9347 54.253 60.7307C54.6122 60.5148 55.0671 60.6467 55.2706 61.0066C55.486 61.3666 55.3544 61.8225 55.0072 62.0264C54.8875 62.0984 54.7558 62.1344 54.6241 62.1344C54.3608 62.1344 54.1094 61.9904 53.9777 61.7505ZM90.8129 61.7865C90.4538 61.5705 90.3341 61.1146 90.5376 60.7547C90.7531 60.3948 91.208 60.2748 91.5671 60.4788C91.9262 60.6827 92.0459 61.1506 91.8424 61.5105C91.6988 61.7505 91.4474 61.8825 91.184 61.8825C91.0643 61.8825 90.9326 61.8465 90.8129 61.7865ZM57.8803 59.495C57.6648 59.1351 57.7845 58.6792 58.1436 58.4752C58.5028 58.2593 58.9697 58.3912 59.1732 58.7511C59.3767 59.1111 59.257 59.567 58.8978 59.7709C58.7781 59.8429 58.6464 59.8789 58.5267 59.8789C58.2634 59.8789 58.012 59.7349 57.8803 59.495ZM86.9223 59.531C86.5632 59.315 86.4315 58.8591 86.6469 58.4992C86.8505 58.1393 87.3054 58.0193 87.6645 58.2233C88.0236 58.4272 88.1433 58.8951 87.9398 59.255C87.8082 59.495 87.5568 59.627 87.2934 59.627C87.1617 59.627 87.03 59.591 86.9223 59.531ZM61.7709 57.2395C61.5674 56.8795 61.6871 56.4236 62.0462 56.2197C62.4054 56.0037 62.8603 56.1357 63.0758 56.4956C63.2793 56.8556 63.1596 57.3115 62.8004 57.5154C62.6807 57.5874 62.549 57.6234 62.4173 57.6234C62.166 57.6234 61.9146 57.4794 61.7709 57.2395ZM83.0197 57.2755C82.6606 57.0595 82.5409 56.6036 82.7444 56.2437C82.9479 55.8838 83.4028 55.7638 83.7619 55.9677C84.121 56.1717 84.2527 56.6396 84.0492 56.9995C83.9056 57.2395 83.6542 57.3714 83.3908 57.3714C83.2711 57.3714 83.1394 57.3355 83.0197 57.2755ZM65.6615 54.984C65.4939 54.6 65.6615 54.1561 66.0207 53.9762C66.4037 53.7962 66.8467 53.9642 67.0262 54.3361C67.2058 54.72 67.0262 55.1639 66.6671 55.3439C66.5594 55.3919 66.4516 55.4159 66.3439 55.4159C66.0685 55.4159 65.7932 55.2479 65.6615 54.984ZM79.141 55.1399C78.7699 54.984 78.5904 54.5401 78.758 54.1561C78.9256 53.7722 79.3685 53.6043 79.7396 53.7602C80.1107 53.9282 80.2903 54.3721 80.1227 54.756C80.003 55.0439 79.7276 55.2119 79.4403 55.2119C79.3326 55.2119 79.2368 55.1879 79.1291 55.1399H79.141ZM69.8873 53.4603C69.8275 53.0404 70.1028 52.6565 70.5098 52.5965C70.9169 52.5245 71.2999 52.8124 71.3598 53.2203C71.4316 53.6283 71.1443 54.0122 70.7373 54.0842H70.6176C70.2585 54.0842 69.9472 53.8322 69.8754 53.4603H69.8873ZM75.023 54.0122C74.6159 53.9642 74.3286 53.5923 74.3765 53.1724C74.4244 52.7644 74.7955 52.4645 75.2145 52.5245C75.6215 52.5725 75.9208 52.9564 75.8609 53.3643C75.8131 53.7482 75.4898 54.0242 75.1187 54.0242C75.1187 54.0242 75.0589 54.0122 75.023 54.0122Z" fill="#00261C"/>
<path d="M307.144 258.747V211.07C307.144 205.371 304.115 200.116 299.195 197.261L257.99 173.422C253.07 170.579 247 170.579 242.08 173.422L200.876 197.261C195.955 200.104 192.927 205.371 192.927 211.07V258.747C192.927 264.446 195.955 269.701 200.876 272.556L242.08 296.395C247 299.239 253.07 299.239 257.99 296.395L299.195 272.556C304.115 269.713 307.144 264.446 307.144 258.747Z" fill="#1B1464"/>
<path d="M248.197 314.415C247.79 314.367 247.491 313.996 247.527 313.588C247.575 313.168 247.946 312.88 248.365 312.916C248.772 312.964 249.071 313.336 249.023 313.756C248.987 314.14 248.652 314.415 248.281 314.415H248.197ZM252.028 313.66C251.956 313.252 252.231 312.856 252.638 312.784C253.045 312.712 253.429 312.988 253.5 313.396C253.572 313.804 253.297 314.2 252.89 314.272C252.89 314.272 252.806 314.283 252.77 314.283C252.411 314.283 252.088 314.02 252.028 313.66ZM243.648 313.24C243.265 313.084 243.085 312.652 243.241 312.256C243.397 311.884 243.84 311.692 244.223 311.86C244.606 312.016 244.785 312.46 244.63 312.844C244.51 313.132 244.235 313.3 243.935 313.3C243.84 313.3 243.744 313.288 243.648 313.24ZM256.361 312.472C256.17 312.1 256.326 311.644 256.697 311.464C257.068 311.284 257.523 311.44 257.702 311.812C257.882 312.184 257.738 312.628 257.355 312.808C257.247 312.868 257.128 312.892 257.02 312.892C256.745 312.892 256.469 312.736 256.35 312.472H256.361ZM239.602 311.068C239.243 310.864 239.111 310.396 239.327 310.036C239.53 309.677 239.985 309.557 240.344 309.76C240.703 309.976 240.835 310.432 240.619 310.792C240.488 311.032 240.236 311.164 239.973 311.164C239.841 311.164 239.722 311.14 239.602 311.068ZM260.3 310.288C260.085 309.928 260.204 309.473 260.563 309.257C260.934 309.053 261.389 309.185 261.593 309.545C261.796 309.904 261.677 310.36 261.318 310.564C261.198 310.636 261.078 310.672 260.946 310.672C260.683 310.672 260.432 310.528 260.3 310.288ZM235.699 308.813C235.34 308.609 235.22 308.141 235.424 307.781C235.627 307.421 236.094 307.301 236.453 307.505C236.813 307.721 236.932 308.177 236.729 308.537C236.585 308.777 236.334 308.909 236.07 308.909C235.951 308.909 235.819 308.885 235.699 308.813ZM264.191 308.033C263.987 307.673 264.107 307.217 264.466 307.013C264.825 306.797 265.292 306.917 265.495 307.277C265.699 307.649 265.579 308.105 265.22 308.309C265.1 308.381 264.969 308.417 264.849 308.417C264.586 308.417 264.334 308.273 264.191 308.033ZM231.797 306.557C231.45 306.353 231.318 305.885 231.521 305.525C231.737 305.165 232.192 305.046 232.551 305.249C232.91 305.465 233.03 305.921 232.826 306.281C232.683 306.521 232.431 306.653 232.18 306.653C232.048 306.653 231.916 306.629 231.797 306.557ZM268.093 305.777C267.89 305.417 268.009 304.962 268.369 304.758C268.728 304.542 269.183 304.662 269.386 305.022C269.602 305.381 269.482 305.849 269.123 306.053C269.003 306.125 268.871 306.161 268.74 306.161C268.488 306.149 268.237 306.017 268.093 305.777ZM227.906 304.302C227.547 304.098 227.427 303.63 227.631 303.27C227.834 302.91 228.301 302.79 228.648 302.994C229.019 303.21 229.139 303.666 228.936 304.026C228.792 304.266 228.541 304.398 228.277 304.398C228.157 304.398 228.026 304.374 227.906 304.302ZM271.996 303.522C271.78 303.162 271.912 302.706 272.259 302.502C272.618 302.286 273.085 302.418 273.289 302.766C273.492 303.126 273.372 303.594 273.013 303.798C272.894 303.87 272.774 303.894 272.642 303.894C272.379 303.894 272.127 303.762 271.996 303.522ZM224.003 302.046C223.644 301.83 223.525 301.374 223.728 301.014C223.944 300.654 224.399 300.535 224.758 300.738C225.117 300.954 225.236 301.41 225.033 301.77C224.889 302.01 224.638 302.142 224.375 302.142C224.255 302.142 224.123 302.118 224.003 302.046ZM275.886 301.266C275.683 300.906 275.803 300.451 276.162 300.235C276.521 300.031 276.976 300.163 277.191 300.523C277.395 300.87 277.275 301.338 276.916 301.542C276.796 301.614 276.665 301.638 276.533 301.638C276.281 301.638 276.03 301.506 275.886 301.266ZM220.113 299.791C219.754 299.587 219.622 299.119 219.837 298.759C220.041 298.399 220.496 298.279 220.855 298.483C221.214 298.699 221.346 299.155 221.13 299.515C220.999 299.755 220.735 299.887 220.484 299.887C220.352 299.887 220.221 299.863 220.113 299.791ZM279.789 299.011C279.586 298.651 279.705 298.195 280.064 297.979C280.423 297.775 280.878 297.907 281.082 298.267C281.297 298.615 281.166 299.083 280.807 299.287C280.699 299.359 280.567 299.395 280.435 299.395C280.172 299.395 279.921 299.251 279.789 299.011ZM216.21 297.535C215.851 297.331 215.731 296.863 215.935 296.503C216.138 296.143 216.605 296.023 216.952 296.227C217.324 296.431 217.443 296.899 217.24 297.259C217.096 297.499 216.845 297.631 216.581 297.631C216.462 297.631 216.33 297.607 216.21 297.535ZM283.68 296.755C283.476 296.395 283.596 295.939 283.955 295.736C284.314 295.52 284.781 295.64 284.984 296.011C285.188 296.371 285.068 296.827 284.709 297.031C284.589 297.103 284.458 297.127 284.338 297.127C284.075 297.127 283.823 296.995 283.68 296.755ZM212.308 295.28C211.949 295.076 211.829 294.608 212.032 294.248C212.248 293.888 212.703 293.768 213.062 293.972C213.421 294.188 213.541 294.644 213.337 295.004C213.194 295.244 212.942 295.376 212.691 295.376C212.559 295.376 212.427 295.352 212.308 295.28ZM287.582 294.5C287.379 294.14 287.498 293.684 287.858 293.48C288.217 293.264 288.672 293.384 288.887 293.744C289.091 294.104 288.971 294.572 288.612 294.776C288.492 294.848 288.36 294.872 288.241 294.872C287.977 294.872 287.726 294.74 287.582 294.5ZM208.417 293.024C208.058 292.82 207.926 292.352 208.142 291.992C208.345 291.632 208.8 291.512 209.159 291.716C209.518 291.932 209.65 292.388 209.435 292.748C209.303 292.988 209.051 293.12 208.788 293.12C208.656 293.12 208.537 293.096 208.417 293.024ZM291.485 292.244C291.269 291.884 291.401 291.428 291.76 291.225C292.119 291.009 292.574 291.129 292.778 291.488C292.981 291.848 292.862 292.316 292.502 292.52C292.395 292.592 292.263 292.616 292.131 292.616C291.868 292.616 291.617 292.484 291.485 292.244ZM204.514 290.769C204.155 290.553 204.036 290.097 204.239 289.737C204.443 289.377 204.909 289.257 205.269 289.461C205.628 289.677 205.747 290.133 205.544 290.493C205.4 290.733 205.149 290.865 204.886 290.865C204.766 290.865 204.634 290.841 204.514 290.769ZM295.375 289.989C295.172 289.629 295.304 289.173 295.651 288.957C296.01 288.753 296.477 288.885 296.68 289.233C296.884 289.593 296.764 290.061 296.405 290.265C296.285 290.337 296.166 290.361 296.034 290.361C295.77 290.361 295.519 290.229 295.375 289.989ZM200.612 288.513C200.253 288.297 200.133 287.841 200.337 287.481C200.552 287.121 201.007 287.001 201.366 287.205C201.725 287.421 201.845 287.877 201.641 288.237C201.498 288.477 201.246 288.609 200.995 288.609C200.863 288.609 200.732 288.585 200.612 288.513ZM299.278 287.733C299.075 287.373 299.194 286.917 299.553 286.702C299.913 286.498 300.367 286.63 300.583 286.989C300.786 287.337 300.667 287.805 300.308 288.009C300.188 288.081 300.056 288.117 299.924 288.117C299.661 288.117 299.422 287.973 299.278 287.733ZM196.721 286.258C196.362 286.054 196.23 285.586 196.446 285.226C196.649 284.866 197.104 284.746 197.463 284.95C197.823 285.154 197.954 285.622 197.739 285.982C197.607 286.222 197.356 286.354 197.092 286.354C196.961 286.354 196.841 286.33 196.721 286.258ZM303.181 285.478C302.965 285.118 303.097 284.662 303.456 284.446C303.803 284.242 304.27 284.362 304.474 284.734C304.689 285.094 304.557 285.55 304.198 285.754C304.078 285.826 303.959 285.85 303.827 285.85C303.564 285.85 303.312 285.718 303.181 285.478ZM192.819 284.002C192.459 283.798 192.34 283.33 192.543 282.97C192.747 282.61 193.214 282.49 193.573 282.694C193.932 282.91 194.052 283.366 193.848 283.726C193.704 283.966 193.453 284.098 193.202 284.098C193.07 284.098 192.938 284.062 192.819 284.002ZM307.071 283.222C306.868 282.862 306.987 282.406 307.347 282.202C307.706 281.987 308.173 282.107 308.376 282.466C308.58 282.826 308.46 283.294 308.101 283.498C307.981 283.57 307.849 283.594 307.73 283.594C307.466 283.594 307.215 283.462 307.071 283.222ZM188.916 281.747C188.569 281.543 188.437 281.075 188.653 280.715C188.856 280.355 189.311 280.235 189.67 280.439C190.029 280.655 190.149 281.111 189.946 281.471C189.814 281.711 189.562 281.843 189.299 281.843C189.167 281.843 189.036 281.819 188.916 281.747ZM310.974 280.967C310.77 280.607 310.89 280.151 311.249 279.947C311.608 279.731 312.063 279.851 312.279 280.211C312.482 280.571 312.363 281.039 311.991 281.243C311.884 281.315 311.752 281.339 311.62 281.339C311.369 281.339 311.117 281.207 310.974 280.967ZM185.037 279.227C184.726 278.963 184.678 278.495 184.942 278.171C185.205 277.859 185.684 277.811 185.995 278.075C186.318 278.339 186.366 278.807 186.103 279.131C185.947 279.311 185.732 279.407 185.516 279.407C185.349 279.407 185.181 279.347 185.037 279.227ZM314.733 278.507C314.457 278.195 314.469 277.727 314.769 277.44C315.068 277.152 315.547 277.176 315.834 277.476C316.109 277.775 316.098 278.255 315.798 278.531C315.655 278.675 315.463 278.735 315.283 278.735C315.08 278.735 314.888 278.663 314.733 278.507ZM181.877 275.748C181.65 275.412 181.733 274.932 182.081 274.704C182.428 274.476 182.895 274.56 183.122 274.908C183.349 275.244 183.266 275.712 182.918 275.952C182.799 276.036 182.643 276.084 182.499 276.084C182.26 276.084 182.033 275.964 181.877 275.748ZM317.702 275.124C317.354 274.92 317.235 274.452 317.438 274.092C317.654 273.744 318.109 273.624 318.468 273.828C318.827 274.044 318.947 274.5 318.731 274.86C318.599 275.1 318.336 275.232 318.085 275.232C317.953 275.232 317.821 275.196 317.702 275.124ZM179.818 271.525C179.686 271.129 179.902 270.697 180.297 270.577C180.692 270.445 181.111 270.661 181.243 271.057C181.374 271.453 181.159 271.873 180.764 272.005C180.68 272.029 180.608 272.041 180.524 272.041C180.213 272.041 179.914 271.837 179.818 271.525ZM319.617 271.057C319.21 270.949 318.971 270.541 319.078 270.145C319.186 269.737 319.593 269.497 319.988 269.593C320.395 269.701 320.635 270.109 320.527 270.517C320.443 270.853 320.144 271.081 319.809 271.081C319.737 271.081 319.677 271.069 319.617 271.057ZM179.004 266.882C179.004 266.462 179.327 266.126 179.734 266.114C180.153 266.102 180.5 266.426 180.512 266.834C180.512 267.254 180.201 267.602 179.782 267.614H179.758C179.351 267.614 179.016 267.29 179.004 266.882ZM319.557 266.366C319.557 265.946 319.892 265.61 320.299 265.61C320.718 265.61 321.054 265.946 321.054 266.366C321.054 266.774 320.718 267.122 320.299 267.122C319.892 267.122 319.557 266.774 319.557 266.366ZM179.004 262.347C179.004 261.927 179.339 261.591 179.746 261.591C180.165 261.591 180.5 261.927 180.5 262.347C180.5 262.767 180.165 263.103 179.746 263.103C179.339 263.103 179.004 262.767 179.004 262.347ZM319.557 261.855C319.557 261.435 319.892 261.099 320.299 261.099C320.718 261.099 321.054 261.435 321.054 261.855C321.054 262.275 320.718 262.599 320.299 262.599C319.892 262.599 319.557 262.275 319.557 261.855ZM179.004 257.836C179.004 257.416 179.339 257.092 179.746 257.092C180.165 257.092 180.5 257.416 180.5 257.836C180.5 258.256 180.165 258.592 179.746 258.592C179.339 258.592 179.004 258.256 179.004 257.836ZM319.557 257.344C319.557 256.924 319.892 256.588 320.299 256.588C320.718 256.588 321.054 256.924 321.054 257.344C321.054 257.764 320.718 258.1 320.299 258.1C319.892 258.1 319.557 257.764 319.557 257.344ZM179.004 253.325C179.004 252.917 179.339 252.569 179.746 252.569C180.165 252.569 180.5 252.917 180.5 253.325C180.5 253.745 180.165 254.081 179.746 254.081C179.339 254.081 179.004 253.745 179.004 253.325ZM319.557 252.833C319.557 252.413 319.892 252.077 320.299 252.077C320.718 252.077 321.054 252.413 321.054 252.833C321.054 253.241 320.718 253.589 320.299 253.589C319.892 253.589 319.557 253.241 319.557 252.833ZM179.004 248.814C179.004 248.394 179.339 248.07 179.746 248.07C180.165 248.07 180.5 248.394 180.5 248.814C180.5 249.234 180.165 249.57 179.746 249.57C179.339 249.57 179.004 249.234 179.004 248.814ZM319.557 248.322C319.557 247.902 319.892 247.566 320.299 247.566C320.718 247.566 321.054 247.902 321.054 248.322C321.054 248.742 320.718 249.066 320.299 249.066C319.892 249.066 319.557 248.742 319.557 248.322ZM179.004 244.303C179.004 243.883 179.339 243.547 179.746 243.547C180.165 243.547 180.5 243.883 180.5 244.303C180.5 244.723 180.165 245.059 179.746 245.059C179.339 245.059 179.004 244.723 179.004 244.303ZM319.557 243.811C319.557 243.391 319.892 243.055 320.299 243.055C320.718 243.055 321.054 243.391 321.054 243.811C321.054 244.219 320.718 244.567 320.299 244.567C319.892 244.567 319.557 244.219 319.557 243.811ZM179.004 239.792C179.004 239.384 179.339 239.036 179.746 239.036C180.165 239.036 180.5 239.384 180.5 239.792C180.5 240.212 180.165 240.548 179.746 240.548C179.339 240.548 179.004 240.212 179.004 239.792ZM319.557 239.3C319.557 238.88 319.892 238.544 320.299 238.544C320.718 238.544 321.054 238.88 321.054 239.3C321.054 239.708 320.718 240.056 320.299 240.056C319.892 240.056 319.557 239.708 319.557 239.3ZM179.004 235.281C179.004 234.861 179.339 234.537 179.746 234.537C180.165 234.537 180.5 234.861 180.5 235.281C180.5 235.701 180.165 236.037 179.746 236.037C179.339 236.037 179.004 235.701 179.004 235.281ZM319.557 234.789C319.557 234.369 319.892 234.033 320.299 234.033C320.718 234.033 321.054 234.369 321.054 234.789C321.054 235.209 320.718 235.533 320.299 235.533C319.892 235.533 319.557 235.209 319.557 234.789ZM179.004 230.77C179.004 230.362 179.339 230.014 179.746 230.014C180.165 230.014 180.5 230.362 180.5 230.77C180.5 231.19 180.165 231.526 179.746 231.526C179.339 231.526 179.004 231.19 179.004 230.77ZM319.557 230.278C319.557 229.858 319.892 229.522 320.299 229.522C320.718 229.522 321.054 229.858 321.054 230.278C321.054 230.686 320.718 231.034 320.299 231.034C319.892 231.034 319.557 230.686 319.557 230.278ZM179.004 226.259C179.004 225.839 179.339 225.503 179.746 225.503C180.165 225.503 180.5 225.839 180.5 226.259C180.5 226.679 180.165 227.015 179.746 227.015C179.339 227.015 179.004 226.679 179.004 226.259ZM319.557 225.767C319.557 225.347 319.892 225.011 320.299 225.011C320.718 225.011 321.054 225.347 321.054 225.767C321.054 226.175 320.718 226.511 320.299 226.511C319.892 226.511 319.557 226.175 319.557 225.767ZM179.004 221.748C179.004 221.328 179.339 220.992 179.746 220.992C180.165 220.992 180.5 221.328 180.5 221.748C180.5 222.168 180.165 222.504 179.746 222.504C179.339 222.504 179.004 222.168 179.004 221.748ZM319.557 221.256C319.557 220.836 319.892 220.5 320.299 220.5C320.718 220.5 321.054 220.836 321.054 221.256C321.054 221.664 320.718 222 320.299 222C319.892 222 319.557 221.664 319.557 221.256ZM179.004 217.237C179.004 216.829 179.339 216.481 179.746 216.481C180.165 216.481 180.5 216.829 180.5 217.237C180.5 217.657 180.165 217.992 179.746 217.992C179.339 217.992 179.004 217.657 179.004 217.237ZM319.557 216.745C319.557 216.325 319.892 215.989 320.299 215.989C320.718 215.989 321.054 216.325 321.054 216.745C321.054 217.153 320.718 217.501 320.299 217.501C319.892 217.501 319.557 217.153 319.557 216.745ZM179.004 212.726C179.004 212.306 179.339 211.97 179.746 211.97C180.165 211.97 180.5 212.306 180.5 212.726C180.5 213.146 180.165 213.481 179.746 213.481C179.339 213.481 179.004 213.146 179.004 212.726ZM319.557 212.234C319.557 211.814 319.892 211.478 320.299 211.478C320.718 211.478 321.054 211.814 321.054 212.234C321.054 212.642 320.718 212.978 320.299 212.978C319.892 212.978 319.557 212.642 319.557 212.234ZM179.004 208.215C179.004 207.795 179.339 207.459 179.746 207.459C180.165 207.459 180.5 207.795 180.5 208.215C180.5 208.635 180.165 208.97 179.746 208.97C179.339 208.97 179.004 208.635 179.004 208.215ZM319.557 207.723C319.557 207.303 319.892 206.967 320.299 206.967C320.718 206.967 321.054 207.303 321.054 207.723C321.054 208.131 320.718 208.467 320.299 208.467C319.892 208.467 319.557 208.131 319.557 207.723ZM179.004 203.704C179.004 203.284 179.339 202.948 179.746 202.948C180.165 202.948 180.5 203.284 180.5 203.704C180.5 204.123 180.165 204.459 179.746 204.459C179.339 204.459 179.004 204.123 179.004 203.704ZM319.545 203.224C319.545 202.804 319.88 202.468 320.287 202.456C320.706 202.444 321.042 202.78 321.054 203.2H321.042C321.054 203.608 320.73 203.956 320.311 203.956C319.904 203.956 319.569 203.632 319.557 203.224H319.545ZM180.117 199.972C179.722 199.852 179.483 199.445 179.59 199.049C179.698 198.641 180.117 198.413 180.512 198.521C180.907 198.629 181.147 199.037 181.039 199.445C180.943 199.78 180.644 199.996 180.321 199.996C180.249 199.996 180.189 199.984 180.117 199.972ZM318.887 198.989C318.767 198.593 318.983 198.173 319.378 198.053C319.773 197.933 320.192 198.149 320.311 198.545C320.443 198.941 320.216 199.361 319.821 199.481C319.749 199.505 319.677 199.517 319.605 199.517C319.282 199.517 318.983 199.313 318.887 198.989ZM181.709 195.761C181.35 195.545 181.243 195.077 181.458 194.73C181.673 194.37 182.128 194.262 182.488 194.478C182.835 194.694 182.954 195.161 182.739 195.509C182.595 195.737 182.344 195.869 182.092 195.869C181.961 195.869 181.829 195.833 181.709 195.761ZM317.067 195.113C316.84 194.766 316.936 194.298 317.283 194.07C317.63 193.842 318.097 193.938 318.312 194.286C318.54 194.634 318.444 195.101 318.097 195.329C317.965 195.413 317.821 195.449 317.678 195.449C317.438 195.449 317.199 195.329 317.055 195.113H317.067ZM184.403 192.162C184.128 191.85 184.14 191.382 184.451 191.094C184.75 190.818 185.229 190.842 185.516 191.142C185.792 191.454 185.768 191.934 185.456 192.21C185.313 192.342 185.133 192.402 184.954 192.402C184.75 192.402 184.547 192.318 184.403 192.162ZM314.242 191.898C313.919 191.634 313.883 191.154 314.158 190.842C314.422 190.518 314.9 190.482 315.212 190.758C315.535 191.022 315.559 191.502 315.295 191.814C315.152 191.994 314.936 192.078 314.721 192.078C314.553 192.078 314.374 192.018 314.242 191.898ZM187.994 189.475C187.791 189.115 187.922 188.647 188.27 188.443C188.629 188.239 189.096 188.359 189.299 188.719C189.503 189.079 189.383 189.535 189.024 189.751C188.904 189.811 188.772 189.847 188.653 189.847C188.389 189.847 188.138 189.715 187.994 189.475ZM310.603 189.499C310.244 189.295 310.112 188.827 310.327 188.467C310.531 188.107 310.998 187.987 311.345 188.203C311.704 188.407 311.836 188.863 311.632 189.223C311.489 189.463 311.237 189.595 310.974 189.595C310.842 189.595 310.722 189.571 310.603 189.499ZM191.897 187.219C191.693 186.859 191.813 186.391 192.172 186.187C192.531 185.983 192.998 186.103 193.202 186.463C193.405 186.823 193.285 187.291 192.926 187.495C192.807 187.555 192.675 187.591 192.555 187.591C192.292 187.591 192.04 187.459 191.897 187.219ZM306.7 187.243C306.341 187.039 306.221 186.571 306.425 186.211C306.628 185.863 307.095 185.732 307.454 185.935C307.813 186.151 307.933 186.607 307.73 186.967C307.586 187.207 307.335 187.339 307.071 187.339C306.952 187.339 306.82 187.315 306.7 187.243ZM195.799 184.964C195.584 184.604 195.716 184.148 196.075 183.932C196.434 183.728 196.889 183.848 197.092 184.208C197.308 184.568 197.176 185.024 196.817 185.24C196.697 185.3 196.578 185.336 196.446 185.336C196.183 185.336 195.931 185.204 195.799 184.964ZM302.81 184.988C302.45 184.784 302.319 184.316 302.522 183.968C302.738 183.608 303.193 183.476 303.552 183.68C303.911 183.896 304.043 184.352 303.827 184.712C303.695 184.952 303.444 185.084 303.181 185.084C303.049 185.084 302.917 185.06 302.81 184.988ZM199.69 182.708C199.487 182.348 199.606 181.892 199.965 181.676C200.325 181.472 200.791 181.592 200.995 181.952C201.198 182.312 201.079 182.768 200.72 182.984C200.6 183.044 200.468 183.08 200.348 183.08C200.085 183.08 199.834 182.948 199.69 182.708ZM298.907 182.732C298.548 182.528 298.416 182.06 298.632 181.712C298.835 181.34 299.29 181.22 299.649 181.424C300.008 181.64 300.14 182.096 299.936 182.456C299.793 182.696 299.541 182.828 299.278 182.828C299.158 182.828 299.027 182.804 298.907 182.732ZM203.593 180.453C203.389 180.093 203.509 179.625 203.868 179.421C204.227 179.217 204.682 179.337 204.898 179.697C205.101 180.057 204.981 180.513 204.622 180.729C204.502 180.789 204.371 180.825 204.239 180.825C203.988 180.825 203.736 180.693 203.593 180.453ZM295.004 180.477C294.645 180.273 294.525 179.805 294.729 179.445C294.933 179.085 295.399 178.965 295.759 179.181C296.118 179.385 296.237 179.841 296.034 180.201C295.89 180.441 295.639 180.573 295.387 180.573C295.256 180.573 295.124 180.549 295.004 180.477ZM207.483 178.197C207.28 177.837 207.411 177.369 207.771 177.165C208.118 176.961 208.585 177.081 208.788 177.441C209.004 177.801 208.872 178.257 208.513 178.473C208.393 178.533 208.273 178.569 208.142 178.569C207.878 178.569 207.627 178.437 207.483 178.197ZM291.114 178.221C290.755 178.017 290.623 177.549 290.826 177.189C291.042 176.829 291.497 176.709 291.856 176.925C292.215 177.129 292.347 177.585 292.131 177.945C291.988 178.185 291.736 178.317 291.485 178.317C291.353 178.317 291.221 178.293 291.114 178.221ZM211.386 175.942C211.182 175.582 211.302 175.114 211.661 174.91C212.02 174.706 212.487 174.826 212.691 175.186C212.894 175.546 212.775 176.002 212.415 176.218C212.296 176.278 212.164 176.314 212.044 176.314C211.781 176.314 211.53 176.182 211.386 175.942ZM287.211 175.966C286.852 175.762 286.732 175.294 286.936 174.934C287.139 174.574 287.606 174.454 287.953 174.658C288.324 174.874 288.444 175.33 288.241 175.69C288.097 175.93 287.846 176.062 287.582 176.062C287.451 176.062 287.331 176.038 287.211 175.966ZM215.288 173.686C215.073 173.326 215.205 172.858 215.564 172.654C215.923 172.45 216.378 172.57 216.593 172.93C216.797 173.29 216.665 173.746 216.306 173.962C216.198 174.022 216.067 174.058 215.935 174.058C215.684 174.058 215.432 173.926 215.288 173.686ZM283.309 173.71C282.949 173.506 282.83 173.038 283.033 172.678C283.249 172.33 283.704 172.198 284.063 172.402C284.422 172.618 284.542 173.074 284.338 173.434C284.194 173.674 283.943 173.806 283.68 173.806C283.56 173.806 283.428 173.782 283.309 173.71ZM219.179 171.431C218.976 171.071 219.095 170.615 219.466 170.399C219.826 170.195 220.28 170.315 220.484 170.675C220.699 171.035 220.568 171.491 220.209 171.707C220.089 171.767 219.957 171.803 219.837 171.803C219.574 171.803 219.323 171.671 219.179 171.431ZM279.418 171.455C279.059 171.251 278.927 170.783 279.143 170.435C279.346 170.063 279.801 169.943 280.16 170.147C280.519 170.363 280.651 170.819 280.447 171.179C280.304 171.419 280.052 171.551 279.789 171.551C279.657 171.551 279.538 171.527 279.418 171.455ZM223.082 169.175C222.878 168.815 222.998 168.347 223.357 168.143C223.716 167.939 224.183 168.059 224.387 168.419C224.59 168.779 224.47 169.235 224.111 169.451C223.991 169.511 223.86 169.547 223.728 169.547C223.477 169.547 223.225 169.415 223.082 169.175ZM275.515 169.199C275.156 168.995 275.036 168.539 275.24 168.167C275.443 167.807 275.91 167.687 276.269 167.891C276.629 168.107 276.748 168.563 276.545 168.923C276.401 169.163 276.15 169.295 275.886 169.295C275.767 169.295 275.635 169.271 275.515 169.199ZM226.984 166.92C226.781 166.56 226.9 166.092 227.26 165.888C227.619 165.684 228.074 165.804 228.277 166.164C228.493 166.524 228.361 166.98 228.002 167.196C227.894 167.256 227.762 167.292 227.631 167.292C227.379 167.292 227.116 167.16 226.984 166.92ZM271.625 166.944C271.266 166.74 271.134 166.272 271.337 165.912C271.553 165.552 272.008 165.432 272.367 165.648C272.726 165.852 272.846 166.308 272.642 166.668C272.499 166.908 272.247 167.04 271.996 167.04C271.864 167.04 271.732 167.016 271.625 166.944ZM230.875 164.664C230.671 164.304 230.791 163.836 231.15 163.632C231.509 163.428 231.976 163.548 232.18 163.908C232.383 164.268 232.264 164.724 231.904 164.94C231.785 165 231.653 165.036 231.533 165.036C231.27 165.036 231.019 164.904 230.875 164.664ZM267.722 164.688C267.363 164.484 267.231 164.016 267.447 163.656C267.65 163.296 268.105 163.176 268.464 163.392C268.823 163.596 268.955 164.052 268.74 164.412C268.608 164.652 268.357 164.784 268.093 164.784C267.962 164.784 267.842 164.76 267.722 164.688ZM234.777 162.409C234.574 162.049 234.694 161.581 235.053 161.377C235.412 161.173 235.867 161.293 236.082 161.653C236.286 162.013 236.166 162.469 235.807 162.685C235.687 162.745 235.556 162.781 235.424 162.781C235.173 162.781 234.921 162.649 234.777 162.409ZM263.82 162.433C263.46 162.229 263.341 161.761 263.544 161.401C263.748 161.053 264.215 160.921 264.574 161.125C264.933 161.341 265.053 161.797 264.849 162.157C264.705 162.397 264.454 162.529 264.191 162.529C264.071 162.529 263.939 162.505 263.82 162.433ZM238.68 160.153C238.465 159.793 238.596 159.325 238.955 159.121C239.315 158.917 239.769 159.037 239.973 159.397C240.188 159.757 240.057 160.213 239.698 160.429C239.578 160.489 239.446 160.525 239.327 160.525C239.063 160.525 238.812 160.393 238.68 160.153ZM259.917 160.177C259.57 159.973 259.438 159.505 259.654 159.145C259.857 158.785 260.312 158.665 260.671 158.869C261.03 159.085 261.15 159.541 260.946 159.901C260.815 160.141 260.551 160.273 260.3 160.273C260.168 160.273 260.037 160.249 259.917 160.177ZM242.571 157.886C242.391 157.514 242.571 157.07 242.93 156.89C243.301 156.71 243.756 156.866 243.935 157.25C244.103 157.622 243.935 158.066 243.564 158.245C243.469 158.293 243.361 158.317 243.253 158.317C242.966 158.317 242.702 158.162 242.571 157.886ZM256.05 158.054C255.667 157.886 255.5 157.442 255.667 157.07C255.823 156.686 256.266 156.506 256.649 156.674C257.032 156.842 257.211 157.274 257.044 157.658C256.912 157.946 256.637 158.114 256.35 158.114C256.254 158.114 256.146 158.09 256.05 158.054ZM246.797 156.362C246.737 155.954 247.012 155.57 247.419 155.498C247.826 155.438 248.209 155.714 248.281 156.122C248.341 156.542 248.065 156.926 247.658 156.986C247.658 156.986 247.575 156.998 247.539 156.998C247.168 156.998 246.856 156.734 246.797 156.362ZM251.932 156.926C251.525 156.866 251.226 156.494 251.274 156.086C251.334 155.666 251.705 155.378 252.124 155.426C252.531 155.474 252.818 155.858 252.77 156.266C252.722 156.65 252.399 156.926 252.028 156.926H251.932Z" fill="#00261C"/>
<mask id="mask0_766_883" style="mask-type:luminance" maskUnits="userSpaceOnUse" x="217" y="215" width="66" height="40">
<path d="M282.1 241.351V225.995C282.1 224.495 281.31 223.115 280.017 222.359L268.907 215.893C267.04 214.813 264.706 216.157 264.706 218.316V234.681L256.817 230.122C252.591 227.686 247.395 227.686 243.181 230.134L235.34 234.681V218.304C235.34 216.145 233.006 214.801 231.139 215.881L220.029 222.347C218.736 223.103 217.946 224.483 217.946 225.983V241.351C217.946 243.499 219.048 245.514 220.855 246.666L230.971 253.121C233.605 254.8 236.992 254.668 239.482 252.785L246.509 247.47C248.437 246.006 251.597 246.006 253.537 247.47L260.564 252.785C263.054 254.668 266.441 254.8 269.075 253.121L279.191 246.654C280.998 245.49 282.1 243.499 282.1 241.339V241.351Z" fill="white"/>
</mask>
<g mask="url(#mask0_766_883)">
<path d="M282.099 244.819L250.053 226.151L250.005 226.331V226.151L217.958 244.819L235.34 255.928L250.029 249.27L264.717 255.928L282.099 244.819Z" fill="url(#paint0_linear_766_883)"/>
<path style="mix-blend-mode:multiply" d="M282.1 244.819L250.053 226.151L217.946 244.819L235.34 255.928L246.282 247.65C248.497 245.971 251.549 245.971 253.764 247.65L264.706 255.928L282.1 244.819Z" fill="url(#paint1_linear_766_883)"/>
<g style="mix-blend-mode:overlay">
<path d="M282.136 244.819L250.089 226.151L217.982 244.819L226.59 250.338L244.738 238.712C247.97 236.637 252.112 236.649 255.344 238.712L273.457 250.326L282.124 244.819H282.136Z" fill="url(#paint2_linear_766_883)"/>
<g style="mix-blend-mode:overlay" opacity="0.3">
<path d="M282.136 244.819L250.089 226.151L217.982 244.819L226.59 250.338L244.738 238.712C247.97 236.637 252.112 236.649 255.344 238.712L273.457 250.326L282.124 244.819H282.136Z" fill="white"/>
</g>
</g>
<path d="M239.901 252.473L235.34 255.928L217.946 244.819V223.571L235.34 213.446V250.206C235.34 251.897 236.729 253.061 238.201 253.061C238.776 253.061 239.375 252.881 239.901 252.485V252.473Z" fill="url(#paint3_linear_766_883)"/>
<path style="mix-blend-mode:color-dodge" d="M239.901 252.485L235.34 255.94L217.946 244.831V223.583L235.34 213.458V250.218C235.34 251.909 236.729 253.073 238.201 253.073C238.776 253.073 239.375 252.893 239.901 252.497V252.485Z" fill="url(#paint4_linear_766_883)"/>
<path style="mix-blend-mode:hard-light" d="M238.201 253.061C236.729 253.061 235.34 251.897 235.34 250.205V234.693L222.232 242.335C221.765 242.599 221.286 242.731 220.807 242.731C219.323 242.731 217.958 241.543 217.958 239.876V244.843L235.352 255.952L239.913 252.497C239.386 252.893 238.788 253.073 238.213 253.073L238.201 253.061Z" fill="url(#paint5_linear_766_883)"/>
<path style="mix-blend-mode:hard-light" d="M238.202 253.061C236.729 253.061 235.341 251.897 235.341 250.206V244.771L230.373 247.914C227.918 249.486 224.722 249.126 222.304 247.602C222.28 247.59 222.268 247.578 222.244 247.566L235.353 255.94L239.914 252.485C239.387 252.881 238.788 253.061 238.214 253.061H238.202Z" fill="url(#paint6_linear_766_883)"/>
<path d="M260.181 252.473L264.742 255.928L282.136 244.819V223.571L264.742 213.446V250.206C264.742 251.897 263.353 253.061 261.881 253.061C261.306 253.061 260.707 252.881 260.181 252.485V252.473Z" fill="url(#paint7_linear_766_883)"/>
<path style="mix-blend-mode:color-dodge" d="M260.181 252.473L264.742 255.928L282.136 244.819V223.571L264.742 213.446V250.206C264.742 251.897 263.353 253.061 261.881 253.061C261.306 253.061 260.707 252.881 260.181 252.485V252.473Z" fill="url(#paint8_linear_766_883)"/>
<path style="mix-blend-mode:hard-light" d="M260.181 252.473L264.742 255.928L282.136 244.819V239.852C282.136 241.519 280.771 242.707 279.287 242.707C278.808 242.707 278.317 242.587 277.862 242.311L264.754 234.669V250.182C264.754 251.873 263.365 253.037 261.893 253.037C261.318 253.037 260.719 252.857 260.193 252.461L260.181 252.473Z" fill="url(#paint9_linear_766_883)"/>
<path style="mix-blend-mode:hard-light" d="M260.181 252.473L264.742 255.928L277.85 247.554C277.826 247.566 277.814 247.578 277.79 247.59C275.372 249.114 272.164 249.474 269.722 247.902L264.754 244.759V250.194C264.754 251.885 263.365 253.049 261.893 253.049C261.318 253.049 260.719 252.869 260.193 252.473H260.181Z" fill="url(#paint10_linear_766_883)"/>
</g>
<path d="M68.6911 128.576C69.7685 124.017 70.822 119.506 71.8874 114.995C71.9353 114.803 71.9832 114.611 72.043 114.419C72.1628 114.011 72.462 113.807 72.8691 113.783C73.6472 113.747 74.4253 113.747 75.1915 113.783C75.5865 113.807 75.8379 114.047 75.9576 114.419C76.1252 114.923 76.221 115.439 76.3407 115.955C77.3343 120.19 78.3399 124.413 79.3335 128.66C79.4412 128.612 79.4292 128.504 79.4412 128.432C80.5186 124.245 81.596 120.058 82.6854 115.883C82.8171 115.367 82.9248 114.851 83.1164 114.359C83.272 113.987 83.5353 113.783 83.9304 113.783C84.6846 113.771 85.4507 113.771 86.2049 113.783C86.4922 113.783 86.6359 113.951 86.6478 114.239C86.6478 114.479 86.6 114.719 86.5281 114.947C84.8402 120.358 83.1642 125.768 81.4763 131.167C81.4165 131.335 81.3566 131.515 81.2967 131.683C81.1411 132.091 80.8299 132.283 80.4228 132.295C79.6567 132.307 78.8905 132.295 78.1244 132.295C77.6934 132.295 77.4181 132.031 77.2984 131.635C77.1428 131.107 77.023 130.567 76.8914 130.028C75.9337 126.02 74.976 122.025 74.0063 118.018C74.0063 117.982 73.9824 117.946 73.9465 117.85C73.7429 118.69 73.5634 119.482 73.3718 120.262C72.4979 123.909 71.6241 127.568 70.7502 131.215C70.5227 132.139 70.3072 132.295 69.3615 132.295C68.8467 132.295 68.32 132.295 67.8053 132.295C67.0271 132.295 66.7757 132.139 66.5363 131.383C66.1532 130.172 65.7821 128.96 65.423 127.736C64.1421 123.501 62.8492 119.266 61.5683 115.019C61.5084 114.803 61.4486 114.587 61.4127 114.371C61.3528 113.987 61.5324 113.771 61.9155 113.771C62.6577 113.771 63.3999 113.771 64.1421 113.771C64.597 113.771 64.8843 113.987 65.0399 114.407C65.3033 115.127 65.4469 115.871 65.6385 116.602C66.6321 120.514 67.6257 124.425 68.6193 128.336C68.6313 128.408 68.6672 128.48 68.6911 128.576Z" fill="white"/>
<path d="M73.4313 150.759C67.5415 150.759 62.2502 149.847 57.1266 147.988C52.3142 146.248 47.9088 143.753 43.9224 140.525C43.2999 140.021 42.6894 139.493 42.0908 138.966C42.0669 138.954 42.0549 138.93 42.031 138.918C41.7437 138.642 41.6838 138.318 41.8634 138.078C42.031 137.85 42.3662 137.802 42.7013 137.982C43.4555 138.39 44.1977 138.822 44.9639 139.218C48.8425 141.257 52.9127 142.829 57.1386 143.992C59.5926 144.664 62.0826 145.192 64.6085 145.564C66.4401 145.84 68.2957 146.02 70.1392 146.14C71.8631 146.248 73.5869 146.272 75.3108 146.224C77.4775 146.176 79.6204 145.984 81.7632 145.696C86.6953 145.024 91.4718 143.777 96.1046 141.965C96.5715 141.785 97.0384 141.581 97.5053 141.389C97.8285 141.257 98.1637 141.233 98.4869 141.401C99.0136 141.677 99.1214 142.301 98.7144 142.757C98.451 143.057 98.1038 143.261 97.7806 143.477C94.6561 145.648 91.2324 147.22 87.6171 148.396C84.744 149.331 81.7991 149.991 78.8063 150.375C76.879 150.627 74.9277 150.759 73.4313 150.747V150.759Z" fill="#FE9901"/>
<path d="M56.2171 129.896C55.846 130.291 55.4868 130.675 55.0798 131.011C53.5116 132.307 51.7039 132.835 49.7048 132.751C48.6633 132.703 47.6577 132.487 46.7599 131.923C45.3114 131.011 44.5691 129.656 44.4015 127.964C44.2818 126.752 44.4135 125.576 45.0121 124.497C45.8141 123.021 47.0951 122.133 48.6752 121.665C50.04 121.257 51.4286 121.245 52.8173 121.389C53.8228 121.485 54.8045 121.677 55.7861 121.893C55.8579 121.905 55.9896 121.989 55.9896 121.797C55.9776 120.837 56.0495 119.866 55.8579 118.906C55.5227 117.202 54.6608 116.434 52.9489 116.194C51.0336 115.931 49.2259 116.314 47.4422 116.962C47.0711 117.094 46.712 117.25 46.3289 117.37C45.8501 117.514 45.6226 117.358 45.5987 116.842C45.5867 116.434 45.5987 116.015 45.5987 115.607C45.5987 115.163 45.8022 114.863 46.1972 114.659C46.8437 114.323 47.514 114.059 48.2084 113.855C50.2435 113.231 52.3025 113.087 54.3975 113.435C55.4389 113.603 56.4326 113.951 57.2705 114.611C58.4557 115.535 58.9944 116.806 59.2577 118.234C59.3775 118.906 59.4134 119.578 59.4134 120.262C59.4134 122.373 59.4134 124.473 59.4134 126.584C59.4134 127.076 59.4732 127.568 59.5331 128.06C59.6288 128.828 59.988 129.5 60.3232 130.183C60.5865 130.711 60.5147 131.023 60.0239 131.359C59.6169 131.635 59.2218 131.911 58.8148 132.175C58.312 132.511 57.9289 132.451 57.5219 132.007C57.1029 131.539 56.7677 131.011 56.4804 130.447C56.3966 130.267 56.3009 130.099 56.2051 129.896H56.2171ZM52.8771 123.825C51.8955 123.801 51.2251 123.825 50.5547 123.957C49.4414 124.209 48.5675 124.761 48.1844 125.888C47.9809 126.488 47.9809 127.1 48.0647 127.724C48.2084 128.876 48.9865 129.752 50.1238 129.932C51.5723 130.171 52.937 129.908 54.17 129.116C55.0559 128.552 55.6784 127.772 55.8819 126.704C56.0255 125.948 56.0375 125.181 56.0375 124.413C56.0375 124.293 55.9776 124.269 55.8819 124.245C54.7925 123.993 53.6912 123.849 52.8771 123.813V123.825Z" fill="white"/>
<path d="M95.2547 113.243C96.6553 113.243 98.008 113.483 99.3249 113.939C99.5643 114.023 99.7917 114.131 100.019 114.251C100.594 114.551 100.893 115.007 100.845 115.679C100.821 115.979 100.845 116.291 100.821 116.59C100.785 117.034 100.558 117.178 100.127 117.07C99.696 116.962 99.3129 116.722 98.8819 116.59C97.17 116.027 95.4342 115.871 93.6625 116.267C93.447 116.315 93.2435 116.398 93.04 116.494C91.4718 117.166 91.4119 119.35 92.6928 120.19C93.4351 120.682 94.2491 120.957 95.0871 121.233C96.2842 121.629 97.5052 121.929 98.6664 122.433C99.7319 122.889 100.654 123.525 101.252 124.569C102.461 126.68 101.899 129.512 99.9593 131.131C98.9178 131.995 97.6968 132.463 96.3919 132.679C94.0097 133.087 91.6992 132.751 89.4487 131.899C89.1853 131.803 88.9459 131.659 88.7064 131.515C88.3234 131.287 88.1438 130.939 88.1318 130.507C88.1318 130.123 88.1318 129.752 88.1318 129.368C88.1438 128.852 88.4191 128.648 88.9219 128.804C89.5444 129.008 90.119 129.308 90.7535 129.488C92.3457 129.956 93.9618 130.135 95.6258 129.908C96.2842 129.812 96.9067 129.62 97.4693 129.236C98.7143 128.384 98.858 126.296 97.3137 125.445C96.6792 125.097 96.0088 124.869 95.3265 124.653C94.1174 124.257 92.8844 123.969 91.7112 123.465C90.155 122.793 89.0416 121.689 88.5508 120.034C87.9762 118.102 88.6586 116.063 90.2507 114.803C91.5077 113.795 92.9682 113.351 94.5484 113.255C94.7878 113.243 95.0272 113.255 95.2666 113.255L95.2547 113.243Z" fill="white"/>
<path d="M100.091 136.626C101.181 136.65 102.246 136.722 103.276 137.01C104.257 137.286 104.485 137.562 104.485 138.582C104.485 140.393 104.006 142.109 103.312 143.764C102.653 145.324 101.779 146.716 100.51 147.856C100.355 147.988 100.199 148.131 99.9956 148.191C99.84 148.239 99.6844 148.251 99.5527 148.131C99.433 148.011 99.421 147.868 99.4689 147.712C99.6604 147.208 99.852 146.716 100.044 146.212C100.57 144.844 101.073 143.464 101.372 142.025C101.492 141.449 101.6 140.861 101.516 140.261C101.456 139.865 101.253 139.601 100.881 139.445C100.307 139.193 99.6963 139.145 99.0978 139.109C97.6134 139.049 96.1409 139.157 94.6804 139.325C94.2135 139.373 93.7467 139.433 93.2798 139.493C93.0883 139.517 92.8848 139.493 92.777 139.313C92.6693 139.109 92.765 138.929 92.8967 138.774C93.184 138.462 93.5671 138.258 93.9262 138.066C95.2191 137.358 96.6078 136.986 98.0563 136.794C98.7387 136.698 99.421 136.674 100.079 136.662L100.091 136.626Z" fill="#FE9901"/>
<path d="M176.634 193.326C176.275 193.122 176.143 192.666 176.347 192.306C176.562 191.946 177.017 191.814 177.376 192.018C177.735 192.234 177.855 192.69 177.652 193.05C177.52 193.29 177.257 193.434 177.005 193.434C176.873 193.434 176.742 193.398 176.634 193.326ZM172.719 191.094C172.36 190.878 172.241 190.422 172.444 190.062C172.648 189.703 173.115 189.571 173.474 189.787C173.833 189.99 173.953 190.446 173.749 190.806C173.605 191.058 173.354 191.19 173.091 191.19C172.971 191.19 172.839 191.154 172.719 191.094ZM168.817 188.851C168.458 188.647 168.326 188.191 168.542 187.831C168.745 187.459 169.2 187.339 169.559 187.543C169.918 187.747 170.05 188.203 169.834 188.563C169.703 188.815 169.451 188.947 169.188 188.947C169.056 188.947 168.937 188.923 168.817 188.851ZM164.914 186.607C164.555 186.403 164.423 185.947 164.627 185.587C164.83 185.228 165.297 185.096 165.657 185.3C166.016 185.515 166.135 185.971 165.932 186.331C165.788 186.571 165.537 186.715 165.285 186.715C165.154 186.715 165.022 186.679 164.914 186.607ZM161 184.376C160.641 184.16 160.521 183.704 160.724 183.344C160.928 182.984 161.383 182.852 161.742 183.068C162.101 183.272 162.233 183.728 162.029 184.088C161.886 184.34 161.634 184.472 161.371 184.472C161.239 184.472 161.119 184.436 161 184.376ZM157.097 182.132C156.738 181.928 156.606 181.46 156.81 181.112C157.025 180.741 157.48 180.621 157.839 180.824C158.198 181.028 158.33 181.484 158.115 181.844C157.983 182.096 157.732 182.228 157.468 182.228C157.337 182.228 157.205 182.192 157.097 182.132ZM153.183 179.889C152.823 179.685 152.704 179.229 152.907 178.869C153.111 178.509 153.566 178.377 153.937 178.581C154.296 178.797 154.416 179.253 154.212 179.613C154.068 179.853 153.817 179.997 153.554 179.997C153.434 179.997 153.302 179.961 153.183 179.889ZM149.28 177.657C148.921 177.441 148.789 176.985 149.005 176.625C149.208 176.265 149.663 176.134 150.022 176.349C150.381 176.553 150.513 177.009 150.298 177.369C150.166 177.621 149.914 177.753 149.651 177.753C149.519 177.753 149.4 177.717 149.28 177.657ZM145.377 175.414C145.018 175.21 144.887 174.742 145.09 174.382C145.294 174.022 145.76 173.902 146.12 174.106C146.479 174.31 146.598 174.766 146.395 175.126C146.251 175.378 146 175.51 145.748 175.51C145.617 175.51 145.485 175.474 145.377 175.414Z" fill="#00261C"/>
<defs>
<linearGradient id="paint0_linear_766_883" x1="250.029" y1="202.192" x2="250.029" y2="264.495" gradientUnits="userSpaceOnUse">
<stop offset="0.34" stop-color="#FDF400"/>
<stop offset="0.42" stop-color="#92DF1C"/>
<stop offset="0.48" stop-color="#43D030"/>
<stop offset="0.52" stop-color="#12C63D"/>
<stop offset="0.54" stop-color="#00C342"/>
<stop offset="0.81" stop-color="#135090"/>
</linearGradient>
<linearGradient id="paint1_linear_766_883" x1="215.959" y1="205.443" x2="279.325" y2="278.358" gradientUnits="userSpaceOnUse">
<stop stop-opacity="0"/>
<stop offset="0.85" stop-opacity="0.56"/>
<stop offset="1"/>
</linearGradient>
<linearGradient id="paint2_linear_766_883" x1="229.499" y1="216.685" x2="265.37" y2="265.559" gradientUnits="userSpaceOnUse">
<stop stop-color="white" stop-opacity="0"/>
<stop offset="0.11" stop-color="#FCFFFA" stop-opacity="0.02"/>
<stop offset="0.23" stop-color="#F4FFEE" stop-opacity="0.08"/>
<stop offset="0.37" stop-color="#E8FFD9" stop-opacity="0.17"/>
<stop offset="0.51" stop-color="#D7FFBC" stop-opacity="0.3"/>
<stop offset="0.65" stop-color="#C0FF97" stop-opacity="0.47"/>
<stop offset="0.8" stop-color="#A5FF69" stop-opacity="0.68"/>
<stop offset="0.95" stop-color="#86FF34" stop-opacity="0.92"/>
<stop offset="1" stop-color="#7BFF22"/>
</linearGradient>
<linearGradient id="paint3_linear_766_883" x1="228.936" y1="125.565" x2="228.936" y2="298.639" gradientUnits="userSpaceOnUse">
<stop stop-color="#F8FF5D"/>
<stop offset="0.49" stop-color="#FFCB00"/>
<stop offset="1" stop-color="#06CD00"/>
</linearGradient>
<linearGradient id="paint4_linear_766_883" x1="229.403" y1="235.125" x2="216.86" y2="207.996" gradientUnits="userSpaceOnUse">
<stop stop-color="white" stop-opacity="0"/>
<stop offset="1" stop-color="white"/>
</linearGradient>
<linearGradient id="paint5_linear_766_883" x1="228.936" y1="195.917" x2="228.936" y2="256.54" gradientUnits="userSpaceOnUse">
<stop stop-color="#2FC514"/>
<stop offset="0.12" stop-color="#2BB814" stop-opacity="0.92"/>
<stop offset="0.36" stop-color="#219616" stop-opacity="0.71"/>
<stop offset="0.68" stop-color="#116019" stop-opacity="0.37"/>
<stop offset="1" stop-color="#00261C" stop-opacity="0"/>
</linearGradient>
<linearGradient id="paint6_linear_766_883" x1="231.079" y1="224.387" x2="231.079" y2="256.252" gradientUnits="userSpaceOnUse">
<stop stop-color="#2FC514"/>
<stop offset="0.11" stop-color="#2CBB14" stop-opacity="0.94"/>
<stop offset="0.31" stop-color="#24A015" stop-opacity="0.77"/>
<stop offset="0.57" stop-color="#177517" stop-opacity="0.5"/>
<stop offset="0.89" stop-color="#063B1A" stop-opacity="0.13"/>
<stop offset="1" stop-color="#00261C" stop-opacity="0"/>
</linearGradient>
<linearGradient id="paint7_linear_766_883" x1="271.158" y1="124.209" x2="271.158" y2="301.626" gradientUnits="userSpaceOnUse">
<stop stop-color="#F8FF5D"/>
<stop offset="0.5" stop-color="#FFCB00"/>
<stop offset="1" stop-color="#06CD00"/>
</linearGradient>
<linearGradient id="paint8_linear_766_883" x1="269.578" y1="235.101" x2="254.143" y2="206.515" gradientUnits="userSpaceOnUse">
<stop stop-color="white" stop-opacity="0"/>
<stop offset="1" stop-color="white"/>
</linearGradient>
<linearGradient id="paint9_linear_766_883" x1="271.146" y1="195.917" x2="271.146" y2="256.54" gradientUnits="userSpaceOnUse">
<stop stop-color="#2FC514"/>
<stop offset="0.12" stop-color="#2BB814" stop-opacity="0.92"/>
<stop offset="0.35" stop-color="#219616" stop-opacity="0.71"/>
<stop offset="0.68" stop-color="#116119" stop-opacity="0.37"/>
<stop offset="1" stop-color="#00261C" stop-opacity="0"/>
</linearGradient>
<linearGradient id="paint10_linear_766_883" x1="269.015" y1="224.387" x2="269.015" y2="256.252" gradientUnits="userSpaceOnUse">
<stop stop-color="#2FC514"/>
<stop offset="0.1" stop-color="#2DBE14" stop-opacity="0.96"/>
<stop offset="0.26" stop-color="#28AD15" stop-opacity="0.85"/>
<stop offset="0.45" stop-color="#1F9116" stop-opacity="0.67"/>
<stop offset="0.68" stop-color="#146A18" stop-opacity="0.43"/>
<stop offset="0.92" stop-color="#05381B" stop-opacity="0.12"/>
<stop offset="1" stop-color="#00261C" stop-opacity="0"/>
</linearGradient>
</defs>
</svg>
