<svg width="38" height="23" viewBox="0 0 38 23" fill="none" xmlns="http://www.w3.org/2000/svg">
<g id="ynd8qe" opacity="0.3">
<path id="Vector" d="M15.8872 9.03833C16.5214 6.35364 17.1456 3.6958 17.7732 1.03796C17.8 0.923861 17.8302 0.813118 17.8671 0.702375C17.941 0.464109 18.1121 0.339942 18.3537 0.329874C18.8101 0.306383 19.2699 0.306383 19.7263 0.329874C19.9612 0.343298 20.1055 0.4876 20.1793 0.70573C20.2766 1.00105 20.3337 1.30643 20.4042 1.61181C20.9948 4.10522 21.5821 6.59527 22.1727 9.09538C22.2398 9.06853 22.2264 9.00477 22.2398 8.96115C22.8774 6.49795 23.515 4.03139 24.1527 1.56819C24.2298 1.26616 24.2902 0.960776 24.4111 0.672172C24.5017 0.454041 24.6628 0.336586 24.891 0.329874C25.3406 0.319807 25.787 0.319807 26.2366 0.323162C26.4044 0.323162 26.4883 0.423838 26.4951 0.594987C26.5018 0.739289 26.4682 0.876879 26.4279 1.01111C25.4346 4.19583 24.4413 7.38054 23.4446 10.5652C23.4144 10.6659 23.3741 10.7666 23.3372 10.8673C23.2466 11.1055 23.0654 11.223 22.8204 11.2264C22.3673 11.2331 21.9143 11.2331 21.4613 11.2264C21.2062 11.223 21.0418 11.072 20.9747 10.8371C20.884 10.525 20.8136 10.2062 20.7364 9.89072C20.1693 7.53491 19.6021 5.17574 19.035 2.81992C19.0283 2.79643 19.0182 2.7763 18.9981 2.7226C18.8806 3.21927 18.7699 3.67902 18.6591 4.14213C18.1423 6.29324 17.6289 8.44099 17.1121 10.5921C16.9812 11.1357 16.8537 11.2297 16.2899 11.2297C15.9845 11.2297 15.6758 11.2297 15.3704 11.2297C14.9106 11.2297 14.7663 11.1357 14.6254 10.6894C14.3972 9.97797 14.1824 9.25982 13.9643 8.54502C13.2058 6.04826 12.4474 3.55486 11.689 1.0581C11.6521 0.933929 11.6185 0.803051 11.6017 0.675528C11.5682 0.450685 11.6756 0.323162 11.8971 0.323162C12.3367 0.323162 12.7729 0.323162 13.2126 0.323162C13.481 0.323162 13.6522 0.447329 13.7428 0.695663C13.8972 1.11515 13.9844 1.55476 14.0951 1.98767C14.6824 4.28979 15.2663 6.59191 15.8503 8.89403C15.8603 8.9343 15.8771 8.97457 15.8939 9.03833H15.8872Z" fill="#1A1A1A"/>
<path id="Vector_2" d="M18.6823 22.1062C15.2023 22.1029 12.0813 21.5693 9.06106 20.4753C6.21865 19.4484 3.61786 17.9785 1.26875 16.0791C0.902966 15.7804 0.543892 15.4717 0.191526 15.1596C0.181459 15.1495 0.168033 15.1394 0.157966 15.1294C-0.00982723 14.9649 -0.0467394 14.777 0.0606481 14.6361C0.161324 14.5018 0.355961 14.475 0.550601 14.5824C0.99693 14.824 1.43319 15.0757 1.88288 15.3106C4.17493 16.512 6.57437 17.4382 9.06778 18.1228C10.5175 18.5222 11.9874 18.8309 13.4774 19.0524C14.5613 19.2135 15.652 19.3242 16.746 19.388C17.7628 19.4484 18.7796 19.4652 19.7998 19.4383C21.075 19.4081 22.3469 19.2974 23.6121 19.1229C26.5216 18.7269 29.3439 17.9953 32.0789 16.9248C32.3541 16.8174 32.6293 16.6999 32.9045 16.5892C33.0991 16.5086 33.2937 16.4986 33.4817 16.5959C33.7938 16.757 33.8575 17.1261 33.6159 17.3979C33.4582 17.5758 33.2535 17.6933 33.0622 17.8241C31.2165 19.1027 29.1962 20.0256 27.0653 20.7202C25.3672 21.274 23.6322 21.6565 21.8637 21.8847C20.7227 22.0324 19.5783 22.1129 18.689 22.1062H18.6823Z" fill="#FE9901"/>
<path id="Vector_3" d="M8.5203 9.81361C8.30216 10.0519 8.08739 10.2767 7.84577 10.4747C6.92291 11.2331 5.85574 11.5486 4.67112 11.4983C4.05364 11.4714 3.46301 11.3439 2.93614 11.0083C2.0804 10.468 1.64414 9.67266 1.54682 8.67933C1.47634 7.96788 1.55688 7.27658 1.90254 6.63896C2.37571 5.7698 3.13078 5.24964 4.06371 4.97446C4.86576 4.73619 5.6846 4.72948 6.51014 4.81002C7.10077 4.86707 7.68469 4.97781 8.26525 5.10869C8.31223 5.11876 8.38606 5.16574 8.38271 5.05164C8.37264 4.4845 8.41626 3.91065 8.30552 3.34686C8.10752 2.34346 7.60079 1.89042 6.58732 1.74948C5.45975 1.59511 4.38924 1.81659 3.33885 2.20252C3.12072 2.28306 2.90594 2.37367 2.6811 2.44414C2.39585 2.53139 2.26162 2.43407 2.25155 2.1354C2.24148 1.89378 2.25155 1.6488 2.25155 1.40382C2.25155 1.14206 2.37571 0.967559 2.60056 0.846748C2.97977 0.645397 3.37912 0.494383 3.78853 0.370216C4.98658 0.00442747 6.20475 -0.079469 7.44307 0.121883C8.06054 0.222558 8.64111 0.42391 9.14113 0.81319C9.83915 1.35348 10.1613 2.1052 10.3123 2.94752C10.3828 3.34015 10.4029 3.7395 10.4029 4.13885C10.4029 5.38052 10.3962 6.62218 10.4029 7.86385C10.4029 8.15246 10.4365 8.44442 10.4734 8.73302C10.5305 9.18271 10.7385 9.58205 10.9432 9.9814C11.101 10.2935 11.0573 10.4781 10.7687 10.6761C10.5305 10.8371 10.2922 10.9982 10.0539 11.1526C9.75525 11.3472 9.53041 11.3137 9.29214 11.0519C9.04045 10.7767 8.84582 10.4613 8.68138 10.1324C8.63104 10.0284 8.57734 9.92435 8.5203 9.81025V9.81361ZM6.54705 6.23962C5.96649 6.22284 5.5705 6.2329 5.17786 6.32016C4.52011 6.46446 4.00666 6.78998 3.78182 7.46115C3.66437 7.81352 3.66436 8.17595 3.71135 8.54509C3.7986 9.22298 4.25164 9.73642 4.92281 9.84717C5.7752 9.98811 6.58397 9.83374 7.31219 9.37063C7.8357 9.0384 8.20149 8.57865 8.3223 7.95111C8.4062 7.50478 8.41627 7.05173 8.41291 6.59869C8.41291 6.52822 8.37935 6.51144 8.31895 6.49802C7.67798 6.347 7.02694 6.26311 6.54705 6.24633V6.23962Z" fill="#1A1A1A"/>
<path id="Vector_4" d="M31.5694 0.00783034C32.395 0.00447448 33.1937 0.148776 33.9756 0.413889C34.1199 0.464227 34.2541 0.527989 34.3884 0.595106C34.7273 0.772967 34.9018 1.04144 34.8716 1.43407C34.8582 1.61193 34.8716 1.7965 34.8582 1.97436C34.8347 2.23612 34.7004 2.32337 34.4488 2.25961C34.1937 2.1925 33.9655 2.05826 33.7172 1.97436C32.7071 1.64213 31.6835 1.54817 30.6399 1.78644C30.5123 1.81664 30.3915 1.86698 30.2707 1.91732C29.3479 2.30995 29.3109 3.5986 30.066 4.09862C30.5023 4.38723 30.9889 4.55167 31.4755 4.71275C32.1802 4.9443 32.9051 5.12552 33.5897 5.41748C34.2206 5.68595 34.7642 6.06516 35.1132 6.67593C35.8247 7.92095 35.4958 9.58546 34.3481 10.5419C33.734 11.052 33.0158 11.3238 32.244 11.4547C30.8379 11.6963 29.472 11.4949 28.1464 10.9949C27.9921 10.9379 27.8478 10.854 27.7068 10.7667C27.4853 10.6291 27.3746 10.4278 27.3712 10.1727C27.3645 9.94789 27.3645 9.72305 27.3712 9.50156C27.3813 9.19618 27.539 9.07872 27.8377 9.17269C28.2035 9.29014 28.5458 9.468 28.9149 9.57539C29.8546 9.85057 30.811 9.96131 31.7876 9.82372C32.1768 9.77003 32.5426 9.65257 32.8749 9.42773C33.6064 8.92771 33.6937 7.69611 32.7809 7.19273C32.4084 6.98802 32.009 6.85379 31.6063 6.72291C30.8949 6.49135 30.1633 6.31685 29.4754 6.02153C28.5525 5.62554 27.8981 4.97786 27.6095 4.0013C27.2739 2.86367 27.6766 1.66227 28.6129 0.917269C29.3579 0.326637 30.217 0.0615241 31.1499 0.00447448C31.2909 -0.0055931 31.4318 0.00447448 31.5728 0.00447448L31.5694 0.00783034Z" fill="#1A1A1A"/>
<path id="Vector_5" d="M34.421 13.7769C35.0653 13.7903 35.6895 13.8305 36.3003 14.0017C36.8809 14.1628 37.0151 14.3239 37.0117 14.9279C37.0117 15.9951 36.7332 17.0052 36.3204 17.9784C35.9345 18.8945 35.4143 19.7201 34.666 20.3879C34.5754 20.4684 34.4848 20.549 34.364 20.5859C34.27 20.6161 34.1794 20.6228 34.1056 20.549C34.0351 20.4819 34.0284 20.3913 34.0586 20.304C34.1693 20.0087 34.2834 19.7134 34.3975 19.4214C34.7063 18.6127 35.0049 17.8005 35.1861 16.9515C35.26 16.6092 35.3237 16.2635 35.2667 15.9112C35.2298 15.6796 35.109 15.5219 34.8942 15.4279C34.5552 15.2836 34.1962 15.2501 33.8371 15.2333C32.9646 15.1964 32.0954 15.2635 31.2296 15.3608C30.9544 15.391 30.6792 15.4279 30.404 15.4548C30.2899 15.4682 30.1691 15.4615 30.1087 15.3474C30.0416 15.2266 30.0987 15.1192 30.1792 15.0286C30.3503 14.8407 30.5718 14.7266 30.79 14.6091C31.5517 14.193 32.3739 13.9715 33.2297 13.8574C33.6324 13.8037 34.0351 13.7869 34.4244 13.7769H34.421Z" fill="#FE9901"/>
</g>
</svg>
