<?xml version="1.0" encoding="UTF-8"?>
<svg id="Layer_1" data-name="Layer 1" xmlns="http://www.w3.org/2000/svg" xmlns:xlink="http://www.w3.org/1999/xlink" version="1.1" viewBox="0 0 48 48">
  <defs>
    <style>
      .cls-1, .cls-2 {
        fill: #130c49;
      }

      .cls-1, .cls-2, .cls-3, .cls-4 {
        stroke-width: 0px;
      }

      .cls-1, .cls-4 {
        display: none;
      }

      .cls-3 {
        fill: #fff;
      }

      .cls-4 {
        fill: #fe9901;
      }
    </style>
  </defs>
  <path class="cls-3" d="M24,47.7c13.1,0,23.7-10.6,23.7-23.7S37.1.3,24,.3.3,10.9.3,24s10.6,23.7,23.7,23.7Z"/>
  <image width="48" height="48" transform="translate(0 0)" xlink:href="azure-pricing-icon.png"/>
  <path class="cls-2" d="M24,48C10.8,48,0,37.2,0,24S10.8,0,24,0s24,10.8,24,24-10.8,24-24,24ZM24,.6C11.1.6.6,11.1.6,24s10.5,23.4,23.4,23.4,23.4-10.5,23.4-23.4S36.9.6,24,.6Z"/>
  <path class="cls-1" d="M21.9,22.8c.4-1.7.8-3.4,1.2-5.1,0,0,0-.1,0-.2,0-.2.2-.2.3-.2.3,0,.6,0,.9,0,.2,0,.2,0,.3.2,0,.2,0,.4.1.6.4,1.6.7,3.2,1.1,4.8,0,0,0,0,0,0,.4-1.6.8-3.1,1.2-4.7,0-.2,0-.4.2-.6,0-.1.2-.2.3-.2h.9c.1,0,.2,0,.2.2,0,0,0,.2,0,.3-.6,2-1.3,4-1.9,6.1,0,0,0,.1,0,.2,0,.2-.2.2-.3.2h-.9c-.2,0-.3,0-.3-.2,0-.2-.1-.4-.2-.6-.4-1.5-.7-3-1.1-4.5,0,0,0,0,0,0,0,.3-.1.6-.2.9-.3,1.4-.7,2.7-1,4.1,0,.3-.2.4-.5.4h-.6c-.3,0-.4,0-.5-.3-.1-.5-.3-.9-.4-1.4-.5-1.6-1-3.2-1.4-4.8,0,0,0-.2,0-.2,0-.1,0-.2.2-.2h.8c.2,0,.3,0,.3.2,0,.3.2.5.2.8.4,1.5.7,2.9,1.1,4.4,0,0,0,0,0,0h0Z"/>
  <path class="cls-4" d="M23.7,31.1c-2.2,0-4.2-.3-6.1-1-1.8-.7-3.5-1.6-5-2.8-.2-.2-.5-.4-.7-.6,0,0,0,0,0,0-.1-.1-.1-.2,0-.3,0,0,.2-.1.3,0,.3.2.6.3.8.5,1.5.8,3,1.4,4.6,1.8.9.3,1.9.5,2.8.6.7.1,1.4.2,2.1.2.6,0,1.3,0,1.9,0,.8,0,1.6,0,2.4-.2,1.8-.2,3.6-.7,5.4-1.4.2,0,.3-.1.5-.2.1,0,.2,0,.4,0,.2.1.2.3,0,.5,0,.1-.2.2-.4.3-1.2.8-2.5,1.4-3.8,1.8-1.1.4-2.2.6-3.3.7-.7,0-1.5.1-2,.1h0Z"/>
  <path class="cls-1" d="M17.2,23.3c-.1.2-.3.3-.4.4-.6.5-1.3.7-2,.6-.4,0-.8,0-1.1-.3-.5-.3-.8-.9-.9-1.5,0-.5,0-.9.2-1.3.3-.6.8-.9,1.4-1.1.5-.2,1-.2,1.6-.1.4,0,.7.1,1.1.2,0,0,0,0,0,0,0-.4,0-.7,0-1.1-.1-.6-.4-.9-1.1-1-.7,0-1.4,0-2.1.3-.1,0-.3.1-.4.2-.2,0-.3,0-.3-.2v-.5c0-.2,0-.3.2-.4.2-.1.5-.2.8-.3.8-.2,1.5-.3,2.3-.2.4,0,.8.2,1.1.4.4.3.6.8.7,1.4,0,.2,0,.5,0,.8v2.4c0,.2,0,.4,0,.6,0,.3.2.5.3.8,0,.2,0,.3-.1.4-.2.1-.3.2-.5.3-.2.1-.3.1-.5,0-.2-.2-.3-.4-.4-.6,0,0,0-.1-.1-.2h0ZM16,21c-.4,0-.6,0-.9,0-.4,0-.7.3-.9.7,0,.2,0,.5,0,.7,0,.4.3.8.8.8.5,0,1.1,0,1.5-.3.3-.2.6-.5.6-.9,0-.3,0-.6,0-.9s0,0,0,0c-.4,0-.8-.2-1.1-.2Z"/>
  <path class="cls-1" d="M31.9,17.1c.5,0,1,0,1.5.3,0,0,.2,0,.3.1.2.1.3.3.3.5,0,.1,0,.2,0,.3,0,.2,0,.2-.3.2-.2,0-.3-.1-.5-.2-.6-.2-1.3-.3-2-.1,0,0-.2,0-.2,0-.6.2-.6,1.1-.1,1.4.3.2.6.3.9.4.4.2.9.3,1.3.4.4.2.7.4,1,.8.5.8.2,1.8-.5,2.5-.4.3-.8.5-1.3.6-.9.2-1.8,0-2.6-.3,0,0-.2,0-.3-.1-.1,0-.2-.2-.2-.4v-.4c0-.2.1-.3.3-.2.2,0,.5.2.7.3.6.2,1.2.2,1.8.2.2,0,.5-.1.7-.2.5-.3.5-1.1,0-1.4-.2-.1-.5-.2-.7-.3-.5-.1-.9-.3-1.4-.4-.6-.2-1-.7-1.2-1.3-.2-.7,0-1.5.6-2,.5-.4,1-.5,1.6-.6h.3,0Z"/>
  <path class="cls-4" d="M33.7,25.8c.4,0,.8,0,1.2.1.4.1.5.2.5.6,0,.7-.2,1.3-.4,1.9-.2.6-.6,1.1-1,1.5,0,0-.1.1-.2.1,0,0-.1,0-.2,0,0,0,0,0,0-.2,0-.2.1-.4.2-.6.2-.5.4-1,.5-1.6,0-.2,0-.4,0-.7,0-.2,0-.2-.2-.3-.2,0-.4-.1-.7-.1-.6,0-1.1,0-1.7,0-.2,0-.3,0-.5,0,0,0-.2,0-.2,0,0,0,0-.1,0-.2.1-.1.2-.2.4-.3.5-.3,1-.4,1.5-.5.3,0,.5,0,.8,0h0Z"/>
</svg>