<svg width="149" height="48" viewBox="0 0 149 48" fill="none" xmlns="http://www.w3.org/2000/svg">
<g id="Group 2615">
<path id="Vector" d="M106.811 38.4073C103.505 38.1954 101.583 36.3148 101.075 32.7971C100.939 31.861 100.939 31.8368 100.925 25.7615L100.911 19.8812H103.837L103.848 25.569C103.859 30.6949 103.865 31.2967 103.914 31.6564C104.113 33.1204 104.509 34.1049 105.185 34.8109C105.725 35.3764 106.357 35.707 107.232 35.8825C107.644 35.9661 108.82 35.9661 109.197 35.8825C110.042 35.7104 110.817 35.2905 111.422 34.6764C112.138 33.962 112.667 32.9484 112.924 31.8029L113.009 31.4166L113.018 25.6816L113.028 19.9442H116.015V37.9799H113.059V36.5486C113.059 35.5774 113.049 35.1221 113.026 35.1293C112.958 35.2076 112.902 35.2943 112.857 35.3873C112.318 36.3446 111.527 37.1358 110.57 37.6747C109.456 38.2863 108.338 38.5042 106.811 38.4073ZM140.354 38.3928C139.15 38.2927 137.986 37.9128 136.955 37.2836C134.838 35.9758 133.586 33.8203 133.22 30.8559C133.093 29.8291 133.077 28.451 133.184 27.5791C133.42 25.6295 134.187 23.7162 135.279 22.3515C135.557 22.0004 136.193 21.367 136.543 21.0873C137.487 20.3338 138.592 19.8072 139.771 19.5482C140.457 19.3993 141.663 19.329 142.391 19.3956C144.219 19.5652 145.893 20.4249 147.031 21.7775C148.189 23.152 148.823 25.0725 148.906 27.4375C148.919 27.9189 148.921 28.4006 148.912 28.8821L148.896 29.6523L142.495 29.6595L136.094 29.668V29.9538C136.094 30.822 136.305 31.8114 136.67 32.6542C136.985 33.3795 137.529 34.1715 137.972 34.5553C138.883 35.3419 140.018 35.8215 141.217 35.9261C141.67 35.9685 142.823 35.9237 143.338 35.845C144.809 35.6186 146.208 35.0421 147.335 34.1981C147.468 34.0976 147.595 34.0044 147.618 33.9911C147.651 33.9705 147.66 34.2296 147.658 35.3231V36.6793L147.354 36.867C146.049 37.6657 144.585 38.1721 143.065 38.3516C142.603 38.4086 140.907 38.434 140.354 38.3928ZM145.924 26.9434C145.924 25.4891 145.31 23.8725 144.442 23.0405C143.823 22.4467 143.031 22.0637 142.181 21.9459C141.76 21.8805 140.872 21.9059 140.428 21.9943C139.52 22.1672 138.685 22.6104 138.034 23.2658C137.316 23.976 136.774 24.8433 136.449 25.7991C136.328 26.1502 136.187 26.7254 136.142 27.0451L136.122 27.1977H145.924V26.9434ZM59.094 37.9387L63.9244 25.2638L68.7415 12.6289H71.8367L71.9651 12.9559C72.3574 13.9621 81.6077 37.952 81.6077 37.9641C81.6077 37.9726 80.8667 37.9787 79.9609 37.9787H78.314L76.982 34.433L75.6475 30.8874H64.9113L64.8653 31.0085C64.8399 31.0739 64.2695 32.6699 63.5987 34.5529L62.3805 37.9787H60.73C59.4246 37.9787 59.0831 37.9714 59.094 37.9387ZM74.6679 28.1822C74.6679 28.1761 73.7718 25.747 72.6747 22.7814C70.6233 17.2377 70.5083 16.9035 70.346 16.0135C70.2697 15.5969 70.231 15.5848 70.1862 15.965C70.1222 16.3776 70.0292 16.7851 69.9077 17.1844C69.8532 17.3528 68.9292 19.8848 67.8539 22.8129C67.1963 24.5949 66.5444 26.379 65.8983 28.1652C65.8983 28.1798 67.8721 28.1919 70.2831 28.1919C72.6952 28.1919 74.6679 28.187 74.6679 28.1822ZM82.6031 37.5185V37.0559L87.9518 29.7116L93.3006 22.3673L88.4568 22.3515L83.6155 22.3358L83.607 21.1079L83.5985 19.8812H97.6067V20.7095L92.2579 28.0938C89.3154 32.1553 86.908 35.4854 86.908 35.4926C86.908 35.5011 89.2863 35.5084 92.1926 35.5084H97.4783V37.9787H82.6031V37.5185ZM121.851 37.9581C121.839 37.946 121.83 33.8736 121.83 28.9087V19.88H124.753V21.7412C124.753 22.7657 124.766 23.6024 124.78 23.6024C124.796 23.6024 124.867 23.4353 124.939 23.2307C125.278 22.2761 125.837 21.4152 126.572 20.718C127.204 20.1051 128.011 19.7043 128.882 19.5712C129.132 19.5312 129.344 19.5228 129.845 19.5361C130.475 19.553 130.803 19.5991 131.186 19.7238L131.307 19.7625V22.7947L130.962 22.6228C130.364 22.3197 129.694 22.1857 129.026 22.2353C128.555 22.2595 128.246 22.32 127.869 22.4605C127.105 22.7424 126.457 23.2713 126.027 23.9633C125.372 25.0324 124.955 26.2301 124.804 27.475C124.78 27.6893 124.767 29.4391 124.761 32.8867L124.752 37.9811H123.312C122.52 37.9811 121.863 37.9702 121.851 37.9581Z" fill="#0089D6"/>
<path id="Vector_2" d="M16.6433 0.000726223H31.4165L16.0808 45.4387C15.9233 45.9058 15.6233 46.3116 15.2229 46.5991C14.8225 46.8866 14.342 47.0412 13.8491 47.0411H2.35228C1.97889 47.041 1.61089 46.9521 1.27866 46.7817C0.946423 46.6113 0.659501 46.3643 0.441587 46.0611C0.223735 45.7578 0.0812533 45.4071 0.0259387 45.0378C-0.029376 44.6685 0.00406776 44.2914 0.123501 43.9376L14.4116 1.60278C14.5691 1.13574 14.8692 0.729886 15.2696 0.44236C15.6699 0.154834 16.1504 0.000119595 16.6433 0V0.000726223Z" fill="url(#paint0_linear_3950_1319)"/>
<path id="Vector_3" d="M38.1096 30.478H14.684C14.4661 30.4775 14.2532 30.5427 14.0729 30.665C13.8926 30.7873 13.7534 30.9612 13.6734 31.1638C13.5934 31.3664 13.5763 31.5885 13.6244 31.801C13.6724 32.0134 13.7834 32.2065 13.9429 32.355L28.996 46.4055C29.4346 46.8143 30.0119 47.0415 30.6114 47.0412H43.876L38.1096 30.478Z" fill="#0078D4"/>
<path id="Vector_4" d="M16.6399 0.000748914C16.1416 -0.00112274 15.6558 0.156361 15.2534 0.450201C14.851 0.74404 14.5531 1.15884 14.4031 1.63403L0.137921 43.8991C0.01057 44.2542 -0.0293994 44.6347 0.0213932 45.0085C0.0721858 45.3823 0.212246 45.7383 0.429728 46.0465C0.647211 46.3547 0.935718 46.606 1.27085 46.7791C1.60598 46.9523 1.97787 47.0421 2.35508 47.0411H14.1489C14.5882 46.9627 14.9987 46.7691 15.3387 46.48C15.6786 46.1909 15.9356 45.8168 16.0836 45.3959L18.9282 37.012L29.0899 46.4896C29.5156 46.8418 30.0497 47.0366 30.6023 47.0411H43.8181L38.0217 30.4774L21.1251 30.4814L31.4665 0.000748914H16.6399Z" fill="url(#paint1_linear_3950_1319)"/>
<path id="Vector_5" d="M35.5094 1.6006C35.3521 1.13422 35.0524 0.728965 34.6525 0.441942C34.2527 0.154919 33.7728 0.000600199 33.2806 0.000732507H16.8164C17.3085 0.000785306 17.7882 0.155182 18.188 0.442184C18.5877 0.729187 18.8874 1.13434 19.0448 1.6006L33.3333 43.9372C33.4529 44.2911 33.4865 44.6683 33.4313 45.0377C33.3761 45.4072 33.2338 45.7581 33.016 46.0615C32.7982 46.365 32.5112 46.6122 32.1789 46.7826C31.8465 46.9531 31.4784 47.042 31.1049 47.0419H47.5698C47.9432 47.0416 48.3111 46.9525 48.6432 46.7819C48.9753 46.6113 49.2621 46.3641 49.4798 46.0608C49.6975 45.7575 49.8399 45.4067 49.8952 45.0374C49.9505 44.6682 49.9171 44.2911 49.7978 43.9372L35.5094 1.6006Z" fill="url(#paint2_linear_3950_1319)"/>
</g>
<defs>
<linearGradient id="paint0_linear_3950_1319" x1="22.0279" y1="3.4866" x2="6.68566" y2="48.8106" gradientUnits="userSpaceOnUse">
<stop stop-color="#114A8B"/>
<stop offset="1" stop-color="#0669BC"/>
</linearGradient>
<linearGradient id="paint1_linear_3950_1319" x1="26.8168" y1="24.6088" x2="23.2681" y2="25.8089" gradientUnits="userSpaceOnUse">
<stop stop-opacity="0.3"/>
<stop offset="0.071" stop-opacity="0.2"/>
<stop offset="0.321" stop-opacity="0.1"/>
<stop offset="0.623" stop-opacity="0.05"/>
<stop offset="1" stop-opacity="0"/>
</linearGradient>
<linearGradient id="paint2_linear_3950_1319" x1="24.8655" y1="2.16452" x2="41.7066" y2="47.0321" gradientUnits="userSpaceOnUse">
<stop stop-color="#3CCBF4"/>
<stop offset="1" stop-color="#2892DF"/>
</linearGradient>
</defs>
</svg>
