<svg width="58" height="51" viewBox="0 0 58 51" fill="none" xmlns="http://www.w3.org/2000/svg">
<rect width="58" height="51" fill="#464646"/>
<g id="Weaviate About us">
<rect width="1444" height="5743" transform="translate(-585 -820)" fill="white"/>
<path id="Rectangle 191" d="M-584 -820H855V4781H-584V-820Z" fill="#F5F5F5"/>
<rect id="Rectangle 248" x="-581" y="-164" width="1440" height="997" fill="#EDEDED"/>
<g id="Rectangle 4.1" filter="url(#filter0_d_0_1)">
<rect x="-27" y="-42" width="323" height="376" rx="15" fill="white"/>
<rect x="-26.5" y="-41.5" width="322" height="375" rx="14.5" stroke="#130C49"/>
</g>
<g id="Group 169">
<g id="Layer_1" clip-path="url(#clip0_0_1)">
<g id="Group 168">
<g id="Group" opacity="0.8">
<path id="Vector" d="M36.2757 24.6392C37.6781 24.6392 38.815 23.502 38.815 22.0991C38.815 20.6963 37.6781 19.5591 36.2757 19.5591C34.8732 19.5591 33.7363 20.6963 33.7363 22.0991C33.7363 23.502 34.8732 24.6392 36.2757 24.6392Z" fill="#20E220"/>
</g>
<g id="Group_2" opacity="0.8">
<path id="Vector_2" d="M43.3289 17.6569C44.2172 17.6569 44.9372 16.9366 44.9372 16.0482C44.9372 15.1597 44.2172 14.4395 43.3289 14.4395C42.4407 14.4395 41.7207 15.1597 41.7207 16.0482C41.7207 16.9366 42.4407 17.6569 43.3289 17.6569Z" fill="#00B7E2"/>
</g>
<g id="Group_3" opacity="0.8">
<path id="Vector_3" d="M11.6942 50.0624C12.5824 50.0624 13.3024 49.3421 13.3024 48.4537C13.3024 47.5652 12.5824 46.845 11.6942 46.845C10.806 46.845 10.0859 47.5652 10.0859 48.4537C10.0859 49.3421 10.806 50.0624 11.6942 50.0624Z" fill="#20E220"/>
</g>
<g id="Group_4" opacity="0.8">
<path id="Vector_4" d="M21.6316 45.8459C21.1633 45.8459 20.6892 45.6991 20.283 45.3943C15.3454 41.7028 11.2881 38.1128 7.8741 34.41C4.72533 31.0007 1.02919 26.2366 0.43668 19.6833C-0.00347072 14.8515 1.60477 10.0424 4.85511 6.50322C8.09981 2.96407 12.744 0.960251 17.5687 0.965895C21.9363 0.994118 25.7679 2.47864 28.99 5.36866C32.5225 2.11739 37.24 0.559486 42.1551 1.05056C43.3965 1.17474 44.2994 2.28108 44.1809 3.52289C44.0567 4.76469 42.9451 5.67347 41.7093 5.54364C37.7535 5.15417 34.001 6.53709 31.3883 9.34808C30.6604 10.1327 29.8534 10.5278 28.99 10.5334H28.9731C27.7317 10.5334 26.9755 9.73756 26.6144 9.35373C26.5692 9.30857 26.5241 9.26341 26.4789 9.21261C23.9622 6.729 21.0391 5.50978 17.5405 5.4872H17.4841C13.8895 5.4872 10.5884 6.93221 8.17882 9.55693C5.75234 12.2042 4.59554 15.6587 4.92847 19.2769C5.30091 23.3918 7.17437 27.0043 11.1922 31.3563C14.4143 34.8503 18.2741 38.2596 22.9859 41.7818C23.9847 42.5269 24.1879 43.9437 23.443 44.9427C22.9972 45.5354 22.3201 45.8515 21.6316 45.8515V45.8459Z" fill="#20E220"/>
</g>
<g id="Group_5" opacity="0.8">
<path id="Vector_5" d="M28.9615 50.7116C28.2054 50.7116 27.4549 50.4519 26.6987 49.9439C24.2948 48.3126 22.1956 46.8281 20.2827 45.4C19.2839 44.6549 19.0807 43.2382 19.8256 42.2391C20.5705 41.24 21.9869 41.0368 22.9857 41.7819C24.7745 43.1196 26.7382 44.5082 28.9785 46.0379C34.9657 42.002 39.6493 38.3217 43.7066 34.4609C46.5789 31.7289 49.5019 28.6752 51.4318 24.8594C54.558 18.6617 53.1811 11.8656 48.0065 7.9596C46.2177 6.61054 44.0452 5.77515 41.7146 5.54372C40.4732 5.41954 39.5703 4.3132 39.6888 3.0714C39.813 1.82959 40.9133 0.915173 42.1604 1.045C45.3148 1.35545 48.2774 2.5013 50.7264 4.34707C57.5939 9.53443 59.5407 18.8028 55.4609 26.8858C53.2206 31.3281 49.8348 34.856 46.8159 37.7291C42.5272 41.8101 37.5953 45.6766 31.3034 49.91C30.5077 50.4463 29.7346 50.7116 28.9615 50.7116Z" fill="#00B7E2"/>
</g>
</g>
</g>
</g>
</g>
<defs>
<filter id="filter0_d_0_1" x="-91" y="-82" width="451" height="504" filterUnits="userSpaceOnUse" color-interpolation-filters="sRGB">
<feFlood flood-opacity="0" result="BackgroundImageFix"/>
<feColorMatrix in="SourceAlpha" type="matrix" values="0 0 0 0 0 0 0 0 0 0 0 0 0 0 0 0 0 0 127 0" result="hardAlpha"/>
<feOffset dy="24"/>
<feGaussianBlur stdDeviation="32"/>
<feColorMatrix type="matrix" values="0 0 0 0 0.0846666 0 0 0 0 0.105686 0 0 0 0 0.174672 0 0 0 0.08 0"/>
<feBlend mode="normal" in2="BackgroundImageFix" result="effect1_dropShadow_0_1"/>
<feBlend mode="normal" in="SourceGraphic" in2="effect1_dropShadow_0_1" result="shape"/>
</filter>
<clipPath id="clip0_0_1">
<rect width="57.2139" height="49.7512" fill="white" transform="translate(0.363281 0.960205)"/>
</clipPath>
</defs>
</svg>
