<svg width="159" height="36" viewBox="0 0 159 36" fill="none" xmlns="http://www.w3.org/2000/svg">
<g id="Bigdata-Boutique 1">
<g id="Group">
<g id="Group_2">
<path id="Vector" fill-rule="evenodd" clip-rule="evenodd" d="M87.3298 32.1435C87.992 32.1435 88.3396 31.8922 88.3396 31.398C88.3396 30.9205 88.0003 30.7111 87.3298 30.7111H86.6509V32.1435H87.3298ZM87.2139 29.84C87.8099 29.84 88.0748 29.5804 88.0748 29.17C88.0748 28.7594 87.7933 28.5919 87.2305 28.5919H86.6509V29.84H87.2139ZM85.4258 27.6371H87.2718C88.3976 27.6371 89.2667 27.947 89.2667 28.9939C89.2667 29.4799 88.9855 30.0075 88.3562 30.175V30.2085C89.1262 30.3511 89.5318 30.7613 89.5318 31.4902C89.5318 32.6043 88.6047 33.0985 87.4291 33.0985H85.4258V27.6371ZM95.4749 30.3427C95.4749 29.2537 95.0114 28.6004 94.2745 28.6004C93.5461 28.6004 93.0743 29.2537 93.0743 30.3427C93.0743 31.4399 93.5461 32.135 94.2745 32.135C95.0114 32.135 95.4749 31.4399 95.4749 30.3427ZM91.8242 30.3427C91.8242 28.5583 92.826 27.5365 94.2745 27.5365C95.7315 27.5365 96.725 28.5667 96.725 30.3427C96.725 32.1268 95.7315 33.1989 94.2745 33.1989C92.826 33.1989 91.8242 32.1268 91.8242 30.3427ZM99.365 27.637H100.582V30.6943C100.582 31.7665 100.913 32.1351 101.517 32.1351C102.122 32.1351 102.478 31.7665 102.478 30.6943V27.637H103.653V30.5688C103.653 32.4031 102.916 33.1989 101.517 33.1989C100.118 33.1989 99.365 32.4031 99.365 30.5688V27.637ZM107.593 28.6756H106.103V27.6371H110.292V28.6756H108.81V33.0985H107.593V28.6756ZM112.783 33.0984V27.637H114.008V33.0984H112.783ZM119.09 32.1351C119.827 32.1351 120.291 31.44 120.291 30.3428C120.291 29.2536 119.827 28.6003 119.09 28.6003C118.354 28.6003 117.89 29.2536 117.89 30.3428C117.89 31.44 118.354 32.1351 119.09 32.1351ZM121.822 34.4136C121.624 34.514 121.284 34.5893 120.87 34.5893C119.728 34.5893 118.917 33.9947 118.536 33.1404C117.385 32.8973 116.64 31.8839 116.64 30.3428C116.64 28.5584 117.633 27.5366 119.09 27.5366C120.547 27.5366 121.541 28.5668 121.541 30.3428C121.541 31.8085 120.87 32.7968 119.827 33.0985C120.075 33.4754 120.556 33.6094 121.011 33.6094C121.243 33.6094 121.45 33.5675 121.607 33.5089L121.822 34.4136ZM124.206 27.637H125.423V30.6943C125.423 31.7665 125.754 32.1351 126.358 32.1351C126.962 32.1351 127.318 31.7665 127.318 30.6943V27.637H128.494V30.5688C128.494 32.4031 127.757 33.1989 126.358 33.1989C124.959 33.1989 124.206 32.4031 124.206 30.5688V27.637ZM131.374 27.637H134.76V28.6756H132.599V29.773H134.437V30.8033H132.599V32.0598H134.843V33.0984H131.374V27.637Z" fill="#F19020"/>
<path id="Vector_2" fill-rule="evenodd" clip-rule="evenodd" d="M68.4195 18.6734C70.0753 18.6734 70.8543 18.0456 70.8543 16.8868C70.8543 15.7278 70.0753 15.2452 68.4195 15.2452H66.7152V18.6734H68.4195ZM68.1274 12.3477C69.4909 12.3477 70.1238 11.6718 70.1238 10.7059C70.1238 9.74032 69.4909 9.35399 68.1274 9.35399H66.7152V12.3477H68.1274ZM62.5273 6.16691H68.2248C71.536 6.16691 74.2144 6.98772 74.2144 10.0781C74.2144 11.4303 73.4352 12.9756 71.5846 13.4584V13.555C73.8247 13.9895 74.9448 15.1485 74.9448 17.2248C74.9448 20.46 72.1204 21.8605 68.7116 21.8605H62.5273V6.16691ZM137.921 7.71215H133.075V6.02203H144.787V7.71215H139.941V21.8604H137.921V7.71215ZM154.651 15.4139L153.896 12.9997C153.336 11.2372 152.824 9.49887 152.313 7.66392H152.216C151.704 9.49887 151.193 11.2372 150.633 12.9997L149.854 15.4139H154.651ZM155.162 17.0317H149.343L147.809 21.8603H145.739L151.144 6.02214H153.433L158.838 21.8603H156.696L155.162 17.0317ZM78.7451 21.8603V6.1669H82.9328V21.8603H78.7451ZM95.0601 5.87726C97.3 5.87726 99.0045 6.84289 100.124 7.95353L97.8358 10.5128C97.0565 9.83681 96.3749 9.45066 95.1087 9.45066C92.9661 9.45066 91.3592 11.1406 91.3592 13.9895C91.3592 16.9351 92.6739 18.5767 95.4983 18.5767C95.9367 18.5767 96.4235 18.4804 96.7158 18.2871V16.1141H94.3784V12.7341H100.417V20.2185C99.248 21.1845 97.2028 22.1501 94.9628 22.1501C90.6289 22.1501 87.0738 19.4944 87.0738 14.1343C87.0738 8.871 90.7261 5.87726 95.0601 5.87726ZM109.014 20.2186C112.763 20.2186 114.614 17.8767 114.614 13.8687C114.614 9.88506 112.763 7.66396 109.014 7.66396H107.212V20.2186H109.014ZM105.166 6.02217H109.16C114.078 6.02217 116.707 8.84683 116.707 13.8687C116.707 18.9148 114.078 21.8604 109.257 21.8604H105.166V6.02217ZM127.935 15.4139L127.18 12.9997C126.62 11.2372 126.109 9.49887 125.598 7.66392H125.5C124.989 9.49887 124.478 11.2372 123.918 12.9997L123.139 15.4139H127.935ZM128.446 17.0317H122.627L121.093 21.8603H119.024L124.429 6.02214H126.718L132.123 21.8603H129.98L128.446 17.0317ZM62.2578 31.3398V30.2929H81.9783V31.3398H62.2578ZM139.118 31.3398V30.2929H158.838V31.3398H139.118Z" fill="#1B1A19"/>
</g>
<path id="Vector_3" d="M11.2636 0.138988C5.64697 0.863543 0.894478 5.84019 0.09949 11.8631C-0.637057 17.4354 2.7872 23.4364 8.01124 25.7344C12.3491 27.6409 16.9862 27.1436 20.5322 24.4938C22.4758 26.4547 24.4195 28.4168 26.3444 30.3967C29.7223 33.8719 33.7387 35.2899 38.5013 34.6755C44.1172 33.9517 48.8697 28.9745 49.6654 22.9508C50.402 17.3791 46.9777 11.378 41.7537 9.08065C37.4158 7.17412 32.7793 7.67084 29.2328 10.3209C27.2885 8.36035 25.3454 6.39769 23.4203 4.4176C20.5519 1.46711 17.2238 0 13.3694 0C12.6842 0 11.9823 0.0462647 11.2636 0.138988ZM7.0417 13.7696C7.0417 11.161 8.61174 8.92289 10.8496 7.96701C13.1596 6.72832 15.5344 7.16076 17.5408 9.10136C21.873 13.2923 25.9999 17.6989 30.3087 21.9132C30.2747 21.6453 30.2508 21.3749 30.2508 21.0979C30.2508 18.0632 32.3761 15.5314 35.2045 14.935C35.207 14.9346 35.2095 14.934 35.2118 14.9332C35.3901 14.8957 35.5727 14.8693 35.7559 14.8473C35.7843 14.8444 35.8121 14.8378 35.8397 14.8353C36.05 14.8126 36.2641 14.8018 36.4806 14.8018H36.4815H36.4829C36.9132 14.8018 37.3333 14.8452 37.7389 14.9292C38.7533 15.1384 39.6784 15.5968 40.4469 16.2395C41.8326 17.394 42.7154 19.1414 42.7154 21.0979C42.7154 21.0982 42.7148 21.099 42.7148 21.099C42.7148 21.4083 42.6853 21.7086 42.6431 22.0049C42.6339 22.069 42.6255 22.1323 42.6148 22.1948C42.5642 22.4842 42.4979 22.7669 42.4094 23.0408C42.3979 23.0766 42.3835 23.1114 42.3707 23.1478C42.282 23.4072 42.1771 23.6592 42.0568 23.9024C42.0403 23.9359 42.026 23.9694 42.0091 24.0023C41.8734 24.2648 41.7192 24.5156 41.5504 24.7541C41.5299 24.783 41.5082 24.8103 41.4877 24.8387C41.1279 25.3296 40.6994 25.7644 40.2156 26.1316C40.2009 26.1424 40.1871 26.1529 40.1727 26.1637C39.6682 26.5393 39.1076 26.8403 38.5032 27.0492H38.5025C38.4988 27.0511 38.4959 27.0521 38.4923 27.0534C38.4381 27.0724 38.3844 27.0954 38.3294 27.1123C36.2081 27.9899 34.0617 27.4899 32.224 25.7125C27.8857 21.5162 23.7529 17.1028 19.4375 12.8831C19.4779 13.1736 19.5065 13.4682 19.5065 13.7696C19.5065 17.247 16.7163 20.0665 13.2736 20.0665C9.83153 20.0665 7.0417 17.247 7.0417 13.7696Z" fill="url(#paint0_radial_3950_1043)"/>
</g>
</g>
<defs>
<radialGradient id="paint0_radial_3950_1043" cx="0" cy="0" r="1" gradientUnits="userSpaceOnUse" gradientTransform="translate(-2229.81 2068.26) rotate(127.517) scale(3204.24 2174.98)">
<stop stop-color="#F6A71C"/>
<stop offset="1" stop-color="#F29120"/>
</radialGradient>
</defs>
</svg>
