<?xml version="1.0" encoding="UTF-8"?>
<svg id="Layer_1" xmlns="http://www.w3.org/2000/svg" viewBox="0 0 192.5 106.5">
  <defs>
    <style>
      .cls-1 {
        fill: #bcf0a7;
      }

      .cls-2 {
        fill: #61b973;
      }

      .cls-3 {
        fill: #f7f9fd;
      }

      .cls-4 {
        fill: #7ac7c0;
      }

      .cls-5 {
        fill: #9ae5f7;
      }

      .cls-6 {
        fill: none;
        stroke: #131144;
        stroke-width: .5px;
      }

      .cls-7 {
        fill: #7ad6eb;
      }

      .cls-8 {
        fill: #130c49;
      }

      .cls-9 {
        fill: #a7e9f8;
      }

      .cls-10 {
        fill: #daf5cf;
      }
    </style>
  </defs>
  <path class="cls-8" d="M96.71,71.43v-38.61h-1.33v38.61h1.33Z"/>
  <path class="cls-8" d="M90.6,68.01l.97-.91,4.47,4.81,4.47-4.81.98.91-5.45,5.85-5.45-5.85Z"/>
  <rect class="cls-7" x=".25" y=".25" width="24" height="25"/>
  <rect class="cls-6" x=".25" y=".25" width="24" height="25"/>
  <rect class="cls-6" x=".25" y=".25" width="24" height="25"/>
  <rect class="cls-6" x=".25" y=".25" width="24" height="25"/>
  <rect class="cls-4" x="24.25" y=".25" width="24" height="25"/>
  <rect class="cls-6" x="24.25" y=".25" width="24" height="25"/>
  <rect class="cls-6" x="24.25" y=".25" width="24" height="25"/>
  <rect class="cls-6" x="24.25" y=".25" width="24" height="25"/>
  <rect class="cls-5" x="48.25" y=".25" width="24" height="25"/>
  <rect class="cls-6" x="48.25" y=".25" width="24" height="25"/>
  <rect class="cls-6" x="48.25" y=".25" width="24" height="25"/>
  <rect class="cls-6" x="48.25" y=".25" width="24" height="25"/>
  <rect class="cls-1" x="72.25" y=".25" width="24" height="25"/>
  <rect class="cls-6" x="72.25" y=".25" width="24" height="25"/>
  <rect class="cls-6" x="72.25" y=".25" width="24" height="25"/>
  <rect class="cls-6" x="72.25" y=".25" width="24" height="25"/>
  <rect class="cls-10" x="96.25" y=".25" width="24" height="25"/>
  <rect class="cls-6" x="96.25" y=".25" width="24" height="25"/>
  <rect class="cls-6" x="96.25" y=".25" width="24" height="25"/>
  <rect class="cls-6" x="96.25" y=".25" width="24" height="25"/>
  <rect class="cls-4" x="120.25" y=".25" width="24" height="25"/>
  <rect class="cls-6" x="120.25" y=".25" width="24" height="25"/>
  <rect class="cls-6" x="120.25" y=".25" width="24" height="25"/>
  <rect class="cls-6" x="120.25" y=".25" width="24" height="25"/>
  <rect class="cls-9" x="144.25" y=".25" width="24" height="25"/>
  <rect class="cls-6" x="144.25" y=".25" width="24" height="25"/>
  <rect class="cls-6" x="144.25" y=".25" width="24" height="25"/>
  <rect class="cls-6" x="144.25" y=".25" width="24" height="25"/>
  <rect class="cls-2" x="168.25" y=".25" width="24" height="25"/>
  <rect class="cls-6" x="168.25" y=".25" width="24" height="25"/>
  <rect class="cls-6" x="168.25" y=".25" width="24" height="25"/>
  <rect class="cls-6" x="168.25" y=".25" width="24" height="25"/>
  <rect class="cls-7" x="83.25" y="81.25" width="2.67" height="25"/>
  <rect class="cls-6" x="83.25" y="81.25" width="2.67" height="25"/>
  <rect class="cls-6" x="83.25" y="81.25" width="2.67" height="25"/>
  <rect class="cls-6" x="83.25" y="81.25" width="2.67" height="25"/>
  <rect class="cls-3" x="85.92" y="81.25" width="2.67" height="25"/>
  <rect class="cls-6" x="85.92" y="81.25" width="2.67" height="25"/>
  <rect class="cls-6" x="85.92" y="81.25" width="2.67" height="25"/>
  <rect class="cls-6" x="85.92" y="81.25" width="2.67" height="25"/>
  <rect class="cls-7" x="88.58" y="81.25" width="2.67" height="25"/>
  <rect class="cls-6" x="88.58" y="81.25" width="2.67" height="25"/>
  <rect class="cls-6" x="88.58" y="81.25" width="2.67" height="25"/>
  <rect class="cls-6" x="88.58" y="81.25" width="2.67" height="25"/>
  <rect class="cls-3" x="91.25" y="81.25" width="2.67" height="25"/>
  <rect class="cls-6" x="91.25" y="81.25" width="2.67" height="25"/>
  <rect class="cls-6" x="91.25" y="81.25" width="2.67" height="25"/>
  <rect class="cls-6" x="91.25" y="81.25" width="2.67" height="25"/>
  <rect class="cls-3" x="93.92" y="81.25" width="2.67" height="25"/>
  <rect class="cls-6" x="93.92" y="81.25" width="2.67" height="25"/>
  <rect class="cls-6" x="93.92" y="81.25" width="2.67" height="25"/>
  <rect class="cls-6" x="93.92" y="81.25" width="2.67" height="25"/>
  <rect class="cls-3" x="96.58" y="81.25" width="2.67" height="25"/>
  <rect class="cls-6" x="96.58" y="81.25" width="2.67" height="25"/>
  <rect class="cls-6" x="96.58" y="81.25" width="2.67" height="25"/>
  <rect class="cls-6" x="96.58" y="81.25" width="2.67" height="25"/>
  <rect class="cls-7" x="99.25" y="81.25" width="2.67" height="25"/>
  <rect class="cls-6" x="99.25" y="81.25" width="2.67" height="25"/>
  <rect class="cls-6" x="99.25" y="81.25" width="2.67" height="25"/>
  <rect class="cls-6" x="99.25" y="81.25" width="2.67" height="25"/>
  <rect class="cls-3" x="101.92" y="81.25" width="2.67" height="25"/>
  <rect class="cls-6" x="101.92" y="81.25" width="2.67" height="25"/>
  <rect class="cls-6" x="101.92" y="81.25" width="2.67" height="25"/>
  <rect class="cls-6" x="101.92" y="81.25" width="2.67" height="25"/>
  <rect class="cls-7" x="104.58" y="81.25" width="2.67" height="25"/>
  <rect class="cls-6" x="104.58" y="81.25" width="2.67" height="25"/>
  <rect class="cls-6" x="104.58" y="81.25" width="2.67" height="25"/>
  <rect class="cls-6" x="104.58" y="81.25" width="2.67" height="25"/>
</svg>