<svg width="17" height="17" viewBox="0 0 17 17" fill="none" xmlns="http://www.w3.org/2000/svg">
<g id="Pen-Write--Streamline-Ultimate 2" clip-path="url(#clip0_4718_7777)">
<path id="Vector" d="M5.76171 7.88866L5.05176 10.7305L7.89292 10.0199L12.1553 5.75743L10.0241 3.62622L5.76171 7.88866Z" stroke="black" stroke-width="1.09599" stroke-linecap="round" stroke-linejoin="round"/>
<path id="Vector_2" d="M14.6424 3.27124L15.3524 3.9812C15.4457 4.0745 15.5198 4.18528 15.5703 4.30721C15.6209 4.42915 15.6469 4.55984 15.6469 4.69182C15.6469 4.82382 15.6209 4.95451 15.5703 5.07644C15.5198 5.19837 15.4457 5.30915 15.3524 5.40245L13.1348 7.6194" stroke="black" stroke-width="1.09599" stroke-linecap="round" stroke-linejoin="round"/>
<path id="Vector_3" d="M12.1556 5.7575L14.6425 3.27131C14.8308 3.0829 14.9366 2.82741 14.9366 2.56102C14.9366 2.29462 14.8308 2.03913 14.6425 1.85073L13.9319 1.1401C13.7435 0.951753 13.488 0.845947 13.2216 0.845947C12.9552 0.845947 12.6997 0.951753 12.5113 1.1401L10.0244 3.62562" stroke="black" stroke-width="1.09599" stroke-linecap="round" stroke-linejoin="round"/>
<path id="Vector_4" d="M12.632 9.8878V14.9111C12.632 15.1775 12.5262 15.4331 12.3378 15.6215C12.1494 15.8099 11.8938 15.9157 11.6274 15.9157H1.58083C1.31438 15.9157 1.05884 15.8099 0.870429 15.6215C0.682019 15.4331 0.576172 15.1775 0.576172 14.9111V4.86452C0.576172 4.59807 0.682019 4.34253 0.870429 4.15412C1.05884 3.96571 1.31438 3.85986 1.58083 3.85986H6.60411" stroke="black" stroke-width="1.09599" stroke-linecap="round" stroke-linejoin="round"/>
</g>
<defs>
<clipPath id="clip0_4718_7777">
<rect width="16.0745" height="16.0745" fill="white" transform="translate(0.0742188 0.34375)"/>
</clipPath>
</defs>
</svg>
