<svg width="232" height="30" viewBox="0 0 232 30" fill="none" xmlns="http://www.w3.org/2000/svg">
<g clip-path="url(#clip0_5367_325)">
<path d="M106.807 11.6518C106.77 11.4726 106.763 11.329 106.812 11.1562H231.199C231.276 11.3096 231.259 11.4662 231.215 11.6518H106.809H106.807Z" fill="#1B1464"/>
<path d="M67.0185 17.4934C63.457 17.4918 59.9326 17.5257 56.3824 17.4304C57.8903 15.5952 59.4662 13.8487 61.0113 12.0716C60.9951 11.865 60.8315 11.7472 60.723 11.6003C59.335 9.70372 57.9453 7.81038 56.5524 5.91864C56.431 5.75401 56.2982 5.60067 56.4083 5.32304C59.9278 5.27623 63.4683 5.31497 67.0169 5.29883C67.3749 6.12202 67.7199 6.91939 68.0616 7.70869C67.9482 7.80715 67.8429 7.7668 67.749 7.75711C67.7182 7.73129 67.6923 7.71837 67.6794 7.69577C67.038 6.54653 65.9706 6.0849 64.7365 5.89766C63.8149 5.75723 62.8852 5.74271 61.9556 5.74271C60.8364 5.74271 59.7172 5.74271 58.5964 5.74432C58.4669 5.74432 58.3324 5.70881 58.1688 5.79597C59.5455 7.66833 60.9157 9.53263 62.2908 11.405C60.7424 13.1563 59.2265 14.8721 57.7089 16.5895C57.7979 16.6976 57.8984 16.6541 57.9842 16.6541C59.6832 16.6573 61.3822 16.6637 63.0812 16.6508C63.8084 16.646 64.534 16.5782 65.2483 16.4329C66.4258 16.194 67.0088 15.7744 67.7069 14.6703C67.8073 14.6316 67.9094 14.6267 68.0632 14.7074C67.7199 15.6194 67.3749 16.5378 67.0169 17.4886L67.0185 17.4934Z" fill="#1B1464"/>
<path d="M37.774 13.5495C37.7854 13.8594 37.8647 14.1371 38.1789 14.2339C38.4802 14.3275 38.7588 14.2258 39.0049 14.0241C39.1912 13.8723 39.2754 13.6431 39.3969 13.4785C39.4989 13.4995 39.5346 13.5415 39.5265 13.5737C39.3742 14.2113 39.154 14.8134 38.5207 15.1378C37.9117 15.4493 37.476 15.2121 37.3497 14.5422C37.2995 14.2743 37.3383 14.0079 37.3221 13.7238C37.1715 13.6722 37.0274 13.7238 36.8897 13.7448C35.3737 13.9805 34.1768 12.8974 34.2578 11.364C34.3485 9.64823 35.6361 8.00184 37.3027 7.54667C38.566 7.20125 39.6512 7.60639 40.1533 8.7863C40.4416 9.46584 40.3946 10.1777 40.1743 10.8733C39.8196 11.9903 39.0762 12.7861 38.0656 13.3558C37.9732 13.4075 37.8647 13.4349 37.7756 13.5511L37.774 13.5495ZM37.6898 13.0556C38.5838 12.4245 39.0276 11.5593 39.2641 10.5699C39.3953 10.0195 39.4568 9.46422 39.3321 8.89767C39.1766 8.18585 38.5304 7.77103 37.9295 7.82268C37.3918 7.86949 36.9302 8.08578 36.5642 8.44895C35.5519 9.45292 35.1275 10.6909 35.2312 12.1001C35.262 12.5262 35.4255 12.92 35.8499 13.1525C36.1252 12.4794 36.4637 12.205 36.9512 12.2292C37.4614 12.2534 37.5424 12.6602 37.6898 13.0556ZM37.3464 13.2251C37.2881 12.715 37.165 12.5714 36.8249 12.5827C36.4832 12.594 36.3001 12.8151 36.2888 13.259C36.637 13.5027 36.9788 13.3752 37.3464 13.2251Z" fill="#1B1464"/>
<path d="M73.4549 13.5565C73.3982 13.4161 73.4079 13.3112 73.4387 13.195C73.6962 13.0545 74.0298 13.2563 74.2857 13.0368V8.1396C74.0104 8.02177 73.7318 8.09602 73.463 8.02177C73.3852 7.90232 73.3998 7.77804 73.4646 7.60533C74.0023 7.60533 74.553 7.58434 75.1004 7.61178C75.5588 7.63438 76.0188 7.66666 76.4739 7.63115C77.8749 7.52301 79.0345 8.61092 79.3066 9.83279C79.5317 10.8448 79.3876 11.7729 78.7365 12.5994C78.3008 13.153 77.7194 13.5162 77.0213 13.5452C75.839 13.5937 74.6534 13.5581 73.4532 13.5581L73.4549 13.5565ZM75.2608 13.1304C75.7758 13.1304 76.2358 13.1659 76.6893 13.1223C77.5963 13.0368 78.1291 12.4993 78.2927 11.5922C78.3883 11.0595 78.385 10.522 78.3413 9.99098C78.2895 9.34856 78.1016 8.75296 77.5121 8.37203C76.8124 7.92008 76.0479 8.06696 75.2608 8.08794V13.1304Z" fill="#1B1464"/>
<path d="M155.119 6.84864C155.077 6.71628 155.085 6.6146 155.164 6.52098C155.425 6.36925 155.759 6.55326 156.053 6.32567C156.491 4.72932 156.904 3.08939 157.289 1.44462C157.02 1.31549 156.747 1.43009 156.513 1.31226C156.445 1.16376 156.497 1.04916 156.627 0.916804C157.514 0.916804 158.431 0.916804 159.346 0.916804C159.574 0.916804 159.803 0.908733 160.031 0.944244C161.061 1.0992 161.708 1.7513 161.818 2.77303C161.994 4.41134 160.954 5.91892 159.61 6.55649C159.098 6.7986 158.572 6.90191 158.008 6.89222C157.186 6.87931 156.363 6.88899 155.54 6.88899C155.407 6.88899 155.271 6.90514 155.119 6.84703V6.84864ZM158.193 1.39781C157.769 3.06841 157.317 4.72286 156.934 6.43059C157.493 6.45964 157.99 6.49354 158.483 6.42897C158.943 6.36764 159.372 6.19977 159.712 5.87856C160.687 4.96014 160.925 3.76247 160.894 2.5067C160.88 1.90786 160.399 1.48013 159.795 1.40104C159.275 1.33324 158.75 1.35423 158.193 1.39942V1.39781Z" fill="#1B1464"/>
<path d="M127.659 23.2462C128.09 21.6369 128.516 20.0034 128.888 18.3587C128.632 18.1666 128.35 18.2925 128.119 18.1924C128.048 18.0617 128.119 17.9616 128.205 17.8066C128.606 17.8066 129.036 17.8066 129.463 17.8066C130.122 17.8083 130.783 17.8099 131.442 17.8163C132.466 17.8276 133.298 18.5669 133.415 19.5822C133.545 20.7136 133.192 21.695 132.43 22.5327C131.658 23.3834 130.71 23.8256 129.536 23.7804C128.742 23.7514 127.947 23.7756 127.152 23.774C127.006 23.774 126.855 23.8014 126.724 23.7304C126.663 23.6126 126.681 23.5141 126.762 23.3947C127.009 23.3075 127.304 23.3753 127.656 23.2446L127.659 23.2462ZM128.524 23.322C129.133 23.3576 129.659 23.3737 130.177 23.293C130.634 23.2203 131.057 23.0509 131.389 22.7055C132.299 21.758 132.558 20.5894 132.497 19.3352C132.471 18.8074 132.037 18.4087 131.509 18.3038C131.018 18.2069 130.517 18.2182 130.02 18.2489C129.939 18.2537 129.862 18.278 129.774 18.3716C129.368 19.9825 128.951 21.6256 128.524 23.3204V23.322Z" fill="#1B1464"/>
<path d="M24.4644 7.65627C25.6468 7.57879 26.8048 7.60946 27.958 7.66111C28.8958 7.70146 29.6165 8.46978 29.704 9.45922C29.8222 10.8038 29.3039 11.8868 28.29 12.752C27.5968 13.3444 26.7935 13.6139 25.8735 13.5833C25.0653 13.5574 24.2571 13.58 23.4489 13.5768C23.3048 13.5768 23.1509 13.6123 23.0165 13.5203C22.929 13.3912 23.0035 13.296 23.0667 13.2023C23.3372 13.1023 23.6157 13.1813 23.9251 13.0893C24.377 11.4688 24.79 9.81594 25.1787 8.15341C24.9147 7.99846 24.6393 8.11144 24.4094 8.00814C24.317 7.8774 24.3915 7.77732 24.466 7.65465L24.4644 7.65627ZM26.0776 8.09692C25.6532 9.77882 25.237 11.4317 24.8078 13.1362C25.3196 13.1362 25.7618 13.1507 26.2023 13.1329C26.8631 13.1055 27.4332 12.8488 27.8511 12.3323C28.5767 11.4365 28.8293 10.376 28.7986 9.25584C28.7808 8.62957 28.3694 8.20183 27.749 8.10983C27.221 8.03074 26.6801 8.02428 26.0792 8.09692H26.0776Z" fill="#1B1464"/>
<path d="M167.625 13.8225C167.502 14.1082 167.27 14.2841 167.097 14.4956C166.506 15.2106 166.124 16.0274 165.811 16.8909C165.357 18.1402 165.199 19.4331 165.134 20.7502C165.064 22.1771 165.163 23.583 165.442 24.9856C165.751 26.5465 166.439 27.9104 167.463 29.1194C167.52 29.1872 167.622 29.2307 167.597 29.3631C167.395 29.5132 167.269 29.3696 167.128 29.242C165.932 28.1541 165.176 26.7983 164.742 25.2649C163.979 22.5693 164.092 19.8835 164.972 17.2396C165.4 15.9547 166.107 14.8168 167.154 13.9145C167.283 13.8015 167.4 13.7063 167.625 13.8225Z" fill="#1B1464"/>
<path d="M225.793 13.8278C226.038 13.689 226.164 13.8343 226.305 13.9666C227.563 15.1401 228.347 16.596 228.731 18.244C229.324 20.7846 229.29 23.3252 228.47 25.8222C228.041 27.1297 227.314 28.2644 226.318 29.2232C226.174 29.362 226.031 29.5137 225.809 29.3684C225.79 29.2409 225.872 29.1764 225.931 29.1118C227.048 27.8835 227.69 26.4243 227.992 24.8167C228.454 22.36 228.433 19.9082 227.774 17.4854C227.447 16.2845 226.904 15.1837 226.06 14.2475C225.955 14.1313 225.838 14.0151 225.793 13.8294V13.8278Z" fill="#1B1464"/>
<path d="M80.9938 8.20622C80.7298 8.0206 80.4318 8.11422 80.158 8.06096C80.0884 7.93667 80.1159 7.82207 80.1354 7.68164H84.9975C85.1271 8.35795 85.1676 9.03426 85.2469 9.68636C85.1352 9.78321 85.0445 9.76061 84.9279 9.73478C84.7951 9.52172 84.821 9.25701 84.7594 9.01489C84.6153 8.46125 84.3756 8.22398 83.8006 8.13359C83.2127 8.04159 82.6231 8.08033 81.9818 8.10131C81.9202 8.87608 81.9542 9.61695 81.9623 10.3982C82.445 10.3837 82.9033 10.495 83.2937 10.2158C83.4945 9.97206 83.433 9.68313 83.5026 9.4507C83.616 9.3474 83.7164 9.38129 83.8379 9.40551V11.7944C83.7277 11.867 83.637 11.8589 83.5431 11.8218C83.4394 11.6991 83.4751 11.5442 83.4524 11.4005C83.3989 11.0632 83.2775 10.9373 82.939 10.876C82.6329 10.8211 82.3251 10.7953 81.9834 10.8404V13.0405C82.3041 13.239 82.6733 13.0776 83.007 13.1712C83.0961 13.2777 83.0637 13.394 83.0394 13.5392H80.1564C80.09 13.4166 80.1143 13.3036 80.1418 13.1922C80.4139 13.0663 80.7249 13.239 80.9954 13.0324V8.20461L80.9938 8.20622Z" fill="#1B1464"/>
<path d="M176.873 1.4476C176.702 1.32332 176.483 1.42501 176.324 1.29426C176.251 1.17159 176.311 1.0699 176.379 0.935931C176.83 0.900421 177.28 0.866525 177.787 0.826172C177.746 1.47666 177.534 2.05128 177.395 2.64043C177.257 3.22473 177.108 3.80742 176.957 4.41433C177.186 4.36591 177.314 4.23193 177.443 4.10281C177.709 3.83648 177.983 3.57822 178.279 3.34418C178.473 3.19084 178.687 3.08592 178.932 3.04557C179.278 2.99069 179.512 3.13434 179.614 3.45878C179.722 3.80097 179.575 4.20288 179.293 4.32394C179.092 4.40949 178.888 4.41756 178.744 4.22871C178.598 4.03663 178.673 3.83971 178.807 3.67668C178.888 3.57661 179.011 3.51043 179.095 3.40067C178.265 3.45071 177.897 4.18028 177.26 4.61771C177.487 4.69518 177.647 4.74199 177.801 4.80494C178.329 5.02607 178.493 5.31823 178.409 5.87994C178.373 6.11398 178.282 6.35125 178.473 6.62243C179.112 6.57239 179.027 5.94127 179.282 5.59101C179.379 5.52645 179.478 5.52483 179.594 5.61038C179.517 6.01552 179.382 6.39484 179.092 6.71281C178.84 6.99044 178.53 7.0195 178.205 6.92265C177.879 6.8258 177.694 6.59337 177.667 6.24311C177.659 6.13658 177.651 6.03166 177.659 5.92513C177.703 5.28917 177.513 5.08095 176.83 5.02607C176.556 5.62491 176.591 6.3335 176.259 6.88391C176.026 6.97107 175.846 7.01788 175.681 6.85486C175.612 6.68053 175.668 6.51428 175.71 6.34641C176.083 4.85337 176.452 3.36032 176.828 1.8705C176.865 1.72523 176.893 1.58803 176.875 1.4476H176.873Z" fill="#1B1464"/>
<path d="M149.385 21.889C149.268 22.3539 149.161 22.7961 149.048 23.2352C149.016 23.3643 148.986 23.4999 148.925 23.6161C148.777 23.8953 148.518 23.9179 148.199 23.6629C148.583 21.8955 149.082 20.1345 149.493 18.3735C149.31 18.1798 149.074 18.2879 148.905 18.1911C148.842 18.0587 148.862 17.949 148.957 17.8295C149.407 17.7763 149.871 17.7295 150.394 17.7246C150.161 18.9578 149.803 20.1167 149.535 21.3225C149.774 21.2256 149.939 21.0803 150.097 20.9222C150.353 20.6655 150.606 20.404 150.904 20.191C151.071 20.0715 151.249 19.9811 151.447 19.9343C151.777 19.8552 151.997 19.9472 152.132 20.2055C152.277 20.488 152.234 20.9335 152.041 21.111C151.779 21.3547 151.516 21.3208 151.254 21.0012C151.231 20.6833 151.374 20.4557 151.774 20.3346C151.231 20.2458 150.588 20.6833 149.919 21.5178C150.284 21.6824 150.71 21.7421 150.927 22.1198C151.189 22.5556 150.757 23.0641 151.061 23.5386C151.649 23.4014 151.625 22.8607 151.845 22.4814C151.939 22.42 152.046 22.3748 152.187 22.5072C152.093 22.9543 151.934 23.3869 151.557 23.7C151.126 24.06 150.391 23.8033 150.269 23.2561C150.237 23.1141 150.214 22.9559 150.243 22.8187C150.357 22.2812 150.091 21.9439 149.386 21.8906L149.385 21.889Z" fill="#1B1464"/>
<path d="M116.899 25.4377C116.826 25.3667 116.81 25.315 116.823 25.2618C116.839 25.1988 116.868 25.1391 116.889 25.0842C117.104 24.9922 117.336 25.0794 117.587 24.9405C117.772 24.5483 117.846 24.0754 117.956 23.5782C117.801 23.5831 117.725 23.688 117.628 23.7332C116.895 24.077 116.113 23.7235 115.912 22.9439C115.692 22.0836 115.995 21.3621 116.536 20.7132C116.716 20.4969 116.915 20.2839 117.174 20.1628C117.896 19.8271 118.225 19.7722 118.844 20.3129C119.059 20.1741 119.242 19.9594 119.522 19.9271C119.65 20.074 119.565 20.2128 119.532 20.35C119.189 21.743 118.844 23.1344 118.497 24.5257C118.462 24.6678 118.418 24.8066 118.432 24.9535C118.604 25.1149 118.836 24.968 119.02 25.0842C119.053 25.2036 119.032 25.3134 118.928 25.4377H116.902H116.899ZM117.135 23.525C117.606 23.454 117.984 23.1876 118.139 22.7922C118.363 22.224 118.471 21.6074 118.598 21.0054C118.656 20.7326 118.489 20.5098 118.274 20.3549C118.063 20.2048 117.841 20.2726 117.628 20.3839C117.428 20.4872 117.276 20.6454 117.181 20.8343C116.853 21.4718 116.656 22.1481 116.635 22.8713C116.625 23.207 116.751 23.4427 117.135 23.525Z" fill="#1B1464"/>
<path d="M147.215 3.45143C147.45 3.28357 147.635 3.07696 147.986 3.01562C147.868 3.9163 147.596 4.73465 147.401 5.56914C147.207 6.40202 146.985 7.22844 146.776 8.05325C146.963 8.22434 147.193 8.09037 147.372 8.19529C147.463 8.32926 147.423 8.44225 147.309 8.55685H145.27C145.174 8.42126 145.208 8.31635 145.28 8.22112C145.497 8.07585 145.782 8.23564 145.997 8.02258C146.153 7.6239 146.243 7.18486 146.336 6.74259C146.169 6.69256 146.096 6.8233 145.991 6.86527C145.184 7.19939 144.368 6.7313 144.248 5.87259C144.076 4.62973 144.966 3.516 145.766 3.17704C146.26 2.9672 146.839 2.95752 147.214 3.45143H147.215ZM147.013 4.09546C146.992 4.02928 146.976 3.96472 146.953 3.90177C146.758 3.3449 146.305 3.22384 145.856 3.608C145.691 3.75004 145.571 3.92437 145.476 4.12129C145.234 4.62166 145.128 5.15916 145.019 5.69665C144.987 5.85806 144.996 6.01302 145.037 6.17282C145.145 6.58764 145.44 6.75228 145.827 6.55697C146.205 6.36812 146.517 6.10502 146.618 5.65469C146.734 5.13172 146.878 4.6152 147.011 4.09546H147.013Z" fill="#1B1464"/>
<path d="M91.4041 13.4222C91.0073 13.6434 90.6105 13.7386 90.1862 13.6079C89.6112 13.4319 89.2905 12.9687 89.318 12.2633C89.3585 11.24 89.8217 10.4394 90.732 9.93577C91.3555 9.59035 91.7815 9.65976 92.3095 10.1262C92.6162 9.90349 92.8764 9.78566 93.0902 9.77274C92.7371 11.4514 92.2626 13.0849 91.8819 14.741C92.0633 14.9104 92.2933 14.7813 92.4715 14.8717C92.5751 15.017 92.4861 15.1203 92.3873 15.2462H90.3303C90.2882 15.1122 90.319 15.0024 90.3611 14.8959C90.5554 14.7878 90.7692 14.8765 91.0057 14.7958C91.2827 14.4068 91.2924 13.9032 91.4058 13.4206L91.4041 13.4222ZM92.1168 10.7347C92.0698 10.6347 92.0293 10.5378 91.9791 10.4442C91.7767 10.0697 91.4284 9.97612 91.0689 10.2053C90.9328 10.2925 90.8146 10.4055 90.7304 10.5443C90.2979 11.2448 90.1068 12.0163 90.1181 12.8299C90.1246 13.2221 90.4534 13.4238 90.834 13.2899C91.2276 13.1511 91.5499 12.8815 91.6762 12.4844C91.8576 11.913 91.9742 11.3223 92.1184 10.7347H92.1168Z" fill="#1B1464"/>
<path d="M184.33 18.366C184.124 18.1723 183.888 18.2998 183.723 18.1788C183.648 18.0416 183.71 17.9431 183.829 17.8221C184.26 17.793 184.719 17.7058 185.238 17.751C185.034 18.5855 184.843 19.3732 184.641 20.2061C184.853 20.1431 184.989 20.0172 185.162 19.9704C185.844 19.788 186.444 20.0899 186.665 20.7549C186.801 21.1633 186.787 21.5716 186.665 21.9816C186.465 22.666 186.077 23.2148 185.467 23.5893C184.984 23.8863 184.472 24.0105 183.946 23.6829C183.413 23.3488 183.348 22.8129 183.395 22.2657C183.446 21.6782 183.643 21.1148 183.786 20.5434C183.967 19.8187 184.148 19.0924 184.33 18.3644V18.366ZM185.966 21.0406C185.962 20.7371 185.974 20.4869 185.724 20.3401C185.451 20.1803 185.19 20.29 184.97 20.4434C184.647 20.6677 184.39 20.9486 184.328 21.3699C184.285 21.6733 184.191 21.9687 184.124 22.2689C184.069 22.5191 184.045 22.7725 184.095 23.0259C184.184 23.473 184.545 23.6377 184.944 23.4133C185.196 23.2713 185.392 23.0582 185.506 22.7983C185.76 22.2189 185.912 21.6104 185.964 21.0406H185.966Z" fill="#1B1464"/>
<path d="M198.774 18.3232C198.616 18.1715 198.376 18.3022 198.214 18.178C198.143 18.0408 198.204 17.9423 198.324 17.8212C198.753 17.7986 199.212 17.7034 199.731 17.7518C199.524 18.5944 199.328 19.3918 199.134 20.1891C199.257 20.2198 199.294 20.1294 199.361 20.0923C200.093 19.6758 200.925 19.997 201.165 20.8025C201.388 21.5563 201.166 22.2342 200.737 22.8508C200.426 23.2963 200.025 23.6498 199.48 23.808C198.695 24.0355 198.049 23.6256 197.909 22.8266C197.843 22.4456 197.893 22.0809 197.984 21.7161C198.233 20.704 198.488 19.692 198.737 18.6799C198.765 18.567 198.829 18.454 198.776 18.3264L198.774 18.3232ZM198.562 22.7071C198.567 22.7717 198.567 22.8944 198.588 23.0106C198.672 23.4625 199.019 23.632 199.424 23.4125C199.704 23.2608 199.905 23.0267 200.026 22.733C200.221 22.2616 200.347 21.7709 200.433 21.269C200.467 21.0704 200.472 20.8671 200.433 20.6685C200.378 20.3812 200.167 20.2263 199.88 20.2779C199.424 20.3618 199.069 20.6378 198.923 21.0511C198.743 21.5627 198.603 22.0986 198.562 22.7039V22.7071Z" fill="#1B1464"/>
<path d="M136.99 7.46768C137.212 7.82763 137.204 7.88251 136.86 8.27151C137.045 8.35706 137.157 8.28765 137.247 8.13108C137.385 7.89381 137.432 7.6291 137.484 7.36761C137.717 6.18608 137.945 5.00456 138.175 3.82142C138.188 3.75524 138.188 3.68745 138.195 3.6019C137.941 3.48407 137.633 3.64871 137.391 3.47762C137.34 3.3388 137.382 3.23711 137.519 3.12574H138.237C138.378 2.93043 138.378 2.72221 138.415 2.53014C138.486 2.16051 138.579 1.79733 138.741 1.45837C139.035 0.84501 139.641 0.586753 140.163 0.836939C140.477 0.987051 140.623 1.3357 140.498 1.64076C140.372 1.94906 140.065 2.06205 139.693 1.9313C139.461 1.62785 139.627 1.38896 139.857 1.16137C139.576 1.10972 139.479 1.13716 139.421 1.35184C139.267 1.91839 139.168 2.49463 139.079 3.0757C139.408 3.18385 139.727 3.05956 140.022 3.16448C140.098 3.27585 140.062 3.37108 140.001 3.47923C139.69 3.6132 139.343 3.51635 138.98 3.58576C138.857 4.21849 138.745 4.86252 138.603 5.49848C138.434 6.25388 138.339 7.03026 138.017 7.74531C137.866 8.07943 137.665 8.37481 137.32 8.55075C137.034 8.69602 136.752 8.70086 136.476 8.54106C136.204 8.38288 136.105 8.01971 136.238 7.72917C136.361 7.45961 136.606 7.37407 136.988 7.46607L136.99 7.46768Z" fill="#1B1464"/>
<path d="M108.717 24.8373C108.662 24.9987 108.502 25.0181 108.476 25.1666C108.672 25.2634 108.766 25.1407 108.861 25.0052C109.006 24.8002 109.041 24.5564 109.088 24.324C109.336 23.0892 109.569 21.8528 109.807 20.6164C109.814 20.5793 109.807 20.5389 109.807 20.4792C109.553 20.3436 109.248 20.5083 109.006 20.3694C108.946 20.2419 108.993 20.1483 109.065 20.0434C109.325 19.9578 109.614 20.024 109.901 19.9691C109.99 19.585 110.07 19.2073 110.168 18.8344C110.269 18.4535 110.434 18.1049 110.75 17.8466C111.106 17.5544 111.673 17.5625 111.971 17.866C112.29 18.192 112.149 18.7618 111.72 18.8683C111.558 18.9087 111.393 18.9151 111.275 18.7666C111.161 18.6246 111.189 18.4648 111.247 18.3082C111.291 18.192 111.403 18.1275 111.487 18.0274C111.155 18.0064 111.061 18.0597 110.996 18.3567C110.881 18.8796 110.784 19.4058 110.677 19.9401C111.004 20.0934 111.386 19.8691 111.683 20.095C111.715 20.229 111.657 20.3146 111.556 20.4292H110.599C110.455 21.1668 110.324 21.877 110.173 22.5824C110.037 23.2232 109.937 23.8753 109.691 24.4886C109.512 24.9341 109.266 25.328 108.784 25.5088C108.486 25.6201 108.225 25.5394 107.992 25.3506C107.807 25.2005 107.77 24.9922 107.813 24.7663C107.818 24.7404 107.822 24.713 107.83 24.6872C107.911 24.4402 108.188 24.253 108.418 24.2885C108.661 24.3272 108.74 24.479 108.711 24.8405L108.717 24.8373Z" fill="#1B1464"/>
<path d="M208.722 21.8306C208.678 21.6611 208.673 21.5191 208.726 21.3496C213.932 21.3496 219.141 21.3496 224.349 21.3496C224.421 21.4109 224.409 21.4949 224.409 21.5724C224.409 21.6514 224.426 21.7322 224.362 21.8306H208.723H208.722Z" fill="#1B1464"/>
<path d="M70.2261 8.00465C70.171 7.8836 70.1742 7.78029 70.218 7.64148C71.1185 7.64632 72.0287 7.68506 72.9325 7.62695C73.0572 7.74963 73.0183 7.87875 72.9843 8.0095C72.7009 8.12733 72.3591 7.96592 72.1065 8.17736C72.0125 9.00379 72.0546 12.7969 72.1615 13.0891C72.411 13.2118 72.6912 13.0923 72.9503 13.1746C73.0442 13.2796 73.0199 13.3958 72.9892 13.5104C72.9649 13.5281 72.9422 13.5556 72.9211 13.5556C72.0336 13.5572 71.146 13.5572 70.2536 13.5572C70.1483 13.4377 70.171 13.3151 70.2261 13.1892C70.5046 13.0633 70.8318 13.2553 71.112 13.0148C71.1574 11.4169 71.1525 9.79954 71.1136 8.18705C70.8431 7.97237 70.5176 8.12248 70.2244 8.00465H70.2261Z" fill="#1B1464"/>
<path d="M11.6641 11.736C11.6625 12.8416 10.7992 13.689 9.6833 13.6745C8.42322 13.6584 7.76888 12.5818 7.76565 11.736C7.76079 10.59 8.64187 9.66831 9.73998 9.66992C10.8106 9.67154 11.6641 10.5884 11.6625 11.7344L11.6641 11.736ZM10.7847 11.6052C10.7717 11.3793 10.7798 11.1355 10.7393 10.9015C10.6421 10.3333 10.2777 10.0605 9.74646 10.0283C9.35289 10.004 8.85566 10.1994 8.73095 10.8143C8.61596 11.3841 8.62081 11.9539 8.73905 12.522C8.83299 12.9772 9.16501 13.2662 9.63633 13.2936C10.1271 13.321 10.464 13.1612 10.6551 12.6899C10.796 12.3445 10.7587 11.9813 10.7847 11.6085V11.6052Z" fill="#1B1464"/>
<path d="M214.209 18.3124C214.196 18.0784 214.348 18.0671 214.499 18.0606C214.635 18.0558 214.771 18.0606 214.9 17.9073C215.185 16.8177 215.488 15.6879 215.734 14.5548C215.566 14.3998 215.363 14.5112 215.2 14.4111C215.169 14.2368 215.257 14.1658 215.417 14.1658C216.198 14.169 216.981 14.1286 217.757 14.1932C218.468 14.2529 219.004 14.8679 218.975 15.775C218.927 17.2455 217.61 18.4609 216.245 18.3834C215.708 18.3528 215.167 18.3802 214.63 18.377C214.499 18.377 214.359 18.406 214.207 18.3108L214.209 18.3124ZM215.493 18.0525C215.854 18.0525 216.162 18.0687 216.468 18.0493C217.038 18.0122 217.506 17.7588 217.808 17.2761C218.154 16.7209 218.306 16.0946 218.316 15.4441C218.324 14.9744 218.099 14.6629 217.671 14.5354C217.255 14.4111 216.829 14.4337 216.384 14.5193C216.091 15.6846 215.801 16.8339 215.493 18.0525Z" fill="#1B1464"/>
<path d="M170.59 23.2169C170.959 23.4058 171.307 23.3089 171.626 23.3606C171.73 23.4736 171.699 23.5914 171.665 23.7431H168.746C168.666 23.6366 168.691 23.5204 168.722 23.3832C169.036 23.2815 169.389 23.4138 169.738 23.254V18.8169C169.389 18.8443 169.056 18.9783 168.706 18.9266C168.601 18.8023 168.648 18.678 168.675 18.5473C169.014 18.4601 169.351 18.4505 169.676 18.3633C169.984 18.2794 170.185 17.9695 170.59 17.9727V23.2185V23.2169Z" fill="#1B1464"/>
<path d="M18.9107 11.6007H16.5638C16.3808 12.2044 16.7161 13.0018 17.2311 13.1939C17.8547 13.4263 18.1462 13.2923 18.7277 12.4433C18.8248 12.3997 18.9074 12.4352 18.9933 12.5046C18.9933 12.5353 19.0046 12.5789 18.9917 12.6112C18.5025 13.7943 17.1712 14.0284 16.2285 13.139C15.1385 12.1108 15.5499 10.14 16.9752 9.74129C17.7202 9.53307 18.7438 9.77518 18.9479 10.9147C18.9836 11.1165 19.1002 11.3263 18.9107 11.6007ZM16.533 11.1924H18.2401C18.164 10.3902 17.8611 9.99632 17.3623 10.0189C16.9023 10.0399 16.5606 10.5177 16.5347 11.1924H16.533Z" fill="#1B1464"/>
<path d="M195.309 6.86046C195.24 6.73618 195.246 6.62319 195.308 6.4989C195.63 6.38107 196.007 6.56185 196.338 6.34072V1.94551C195.972 1.94067 195.623 2.10692 195.257 2.02945C195.168 1.92291 195.197 1.80831 195.24 1.6469C195.889 1.6243 196.501 1.43545 197.046 1.03516C197.075 1.0626 197.105 1.09004 197.135 1.11748C197.154 2.86394 197.173 4.61201 197.191 6.34879C197.536 6.53441 197.888 6.40367 198.21 6.48599C198.288 6.60221 198.267 6.71842 198.231 6.86046H195.308H195.309Z" fill="#1B1464"/>
<path d="M1.05182 13.4033C0.834789 13.4501 0.757046 13.7261 0.483327 13.6567V12.2234C0.608039 12.1427 0.69388 12.1653 0.797537 12.2331C0.974078 12.6188 1.04696 13.116 1.56525 13.2693C1.91671 13.3726 2.25683 13.3371 2.56618 13.137C2.87715 12.6059 2.74596 12.2266 2.17909 12.0507C1.91023 11.9667 1.62679 11.928 1.35793 11.8457C0.745709 11.6585 0.410443 11.2113 0.467131 10.6755C0.506002 10.3026 0.685782 10.0153 1.03562 9.85872C1.55067 9.62791 2.07381 9.59401 2.58886 9.83935C2.76864 9.85711 2.84962 9.62468 3.08771 9.707C3.18488 10.0702 3.11524 10.4656 3.12982 10.8336C3.01482 10.9708 2.90793 10.9725 2.79131 10.8998C2.55646 10.1444 2.27303 9.92652 1.64137 10.0088C1.2235 10.0637 1.08583 10.2219 1.06154 10.6835C1.2235 10.9838 1.52475 11.0628 1.83087 11.1193C2.10944 11.171 2.37506 11.2501 2.64069 11.355C3.06989 11.5245 3.41163 12.1023 3.31122 12.6915C3.22052 13.2209 2.84314 13.5647 2.25845 13.6486C1.81791 13.7116 1.40166 13.6599 1.04858 13.4033H1.05182Z" fill="#1B1464"/>
<path d="M199.352 0.451699C199.585 0.245093 199.71 0.398433 199.838 0.506578C200.625 1.17966 201.067 2.05612 201.296 3.04234C201.612 4.40464 201.565 5.75888 201.085 7.0776C200.836 7.7636 200.442 8.37212 199.896 8.87249C199.759 8.99839 199.611 9.12429 199.336 8.99032C200.06 8.19779 200.513 7.29066 200.685 6.25118C200.854 5.223 200.85 4.19965 200.685 3.17147C200.518 2.13198 200.081 1.22324 199.354 0.451699H199.352Z" fill="#1B1464"/>
<path d="M96.4258 15.6807C97.5773 14.4539 97.8948 12.9867 97.8948 11.4033C97.8948 9.81824 97.5806 8.35102 96.4339 7.13721C96.6914 6.9758 96.8275 7.10008 96.9667 7.2276C97.4802 7.69569 97.8802 8.24448 98.1151 8.89658C98.7386 10.6269 98.771 12.3556 98.0422 14.0666C97.8041 14.625 97.4656 15.127 97.0056 15.5354C96.8696 15.6565 96.7416 15.8146 96.4258 15.6823V15.6807Z" fill="#1B1464"/>
<path d="M162.488 8.98824C163.659 7.78251 163.975 6.29753 163.973 4.727C163.973 3.15325 163.68 1.66182 162.516 0.472222C162.728 0.230106 162.871 0.388288 163.003 0.51096C163.596 1.05491 164.035 1.69894 164.286 2.46887C164.761 3.92802 164.774 5.39847 164.323 6.85601C164.093 7.60011 163.698 8.27965 163.11 8.81876C162.966 8.95112 162.814 9.1432 162.488 8.98824Z" fill="#1B1464"/>
<path d="M41.2109 15.6786C42.4192 14.4583 42.701 12.9653 42.7042 11.3931C42.7075 9.81939 42.3933 8.33765 41.2271 7.13029C41.4766 6.97373 41.6094 7.0964 41.7535 7.22391C42.518 7.89699 42.952 8.75247 43.1804 9.729C43.4979 11.0913 43.4541 12.4407 42.9812 13.7594C42.735 14.447 42.3414 15.0539 41.7972 15.5543C41.658 15.6834 41.5154 15.8061 41.2126 15.6786H41.2109Z" fill="#1B1464"/>
<path d="M22.2077 15.6573C21.955 15.8204 21.8271 15.7106 21.6894 15.5863C20.9687 14.9358 20.5281 14.1256 20.2981 13.191C19.9321 11.7044 19.9726 10.242 20.5605 8.81676C20.8132 8.20502 21.1857 7.66106 21.6926 7.22202C21.819 7.11227 21.9388 6.95086 22.1834 7.13325C21.5096 7.929 21.0351 8.81515 20.8715 9.86109C20.7128 10.878 20.7047 11.8852 20.865 12.9004C21.0302 13.9415 21.4205 14.8761 22.2077 15.6573Z" fill="#1B1464"/>
<path d="M174.683 0.386738C174.72 0.475514 174.69 0.522323 174.654 0.559448C173.838 1.42622 173.451 2.48346 173.347 3.64077C173.243 4.79163 173.268 5.94087 173.609 7.06268C173.787 7.64698 174.068 8.17157 174.471 8.6332C174.565 8.74135 174.682 8.84142 174.693 9.00445C174.469 9.15456 174.337 8.98024 174.205 8.86402C173.624 8.34266 173.224 7.70025 172.981 6.9626C172.474 5.42436 172.479 3.87805 173.005 2.35272C173.261 1.61184 173.713 0.974273 174.314 0.451302C174.435 0.344772 174.555 0.29312 174.682 0.386738H174.683Z" fill="#1B1464"/>
<path d="M143.475 0.461337C142.308 1.65578 142.004 3.14882 142.015 4.71935C142.027 6.28342 142.287 7.78938 143.479 8.96767C143.207 9.1533 143.075 8.99673 142.94 8.87244C142.355 8.33494 141.944 7.68769 141.701 6.93551C141.259 5.57321 141.223 4.19476 141.591 2.8147C141.834 1.90273 142.302 1.11182 143.021 0.480707C143.19 0.332209 143.191 0.333823 143.478 0.459723L143.475 0.461337Z" fill="#1B1464"/>
<path d="M134.105 17.3122C134.386 17.1718 134.525 17.3041 134.667 17.4316C135.325 18.024 135.748 18.7633 135.981 19.6042C136.388 21.0763 136.368 22.5467 135.843 23.9897C135.594 24.679 135.187 25.2778 134.638 25.7733C134.507 25.8912 134.374 26.0106 134.114 25.8766C134.815 25.0841 135.285 24.1915 135.455 23.152C135.621 22.1238 135.625 21.1021 135.458 20.0739C135.288 19.0296 134.852 18.1176 134.105 17.3122Z" fill="#1B1464"/>
<path d="M115.072 25.8316C114.872 26.0253 114.753 25.9252 114.625 25.8122C114.021 25.2763 113.588 24.6307 113.332 23.864C112.854 22.4371 112.832 20.9973 113.245 19.5592C113.484 18.7214 113.931 17.9951 114.591 17.4076C114.728 17.2849 114.861 17.1848 115.052 17.28C115.065 17.393 114.987 17.4527 114.926 17.5222C114.119 18.4357 113.753 19.5253 113.669 20.7132C113.593 21.7979 113.627 22.8794 113.943 23.935C114.158 24.6533 114.552 25.265 115.072 25.8316Z" fill="#1B1464"/>
<path d="M88.5745 7.15512C87.4149 8.33826 87.1071 9.82485 87.1185 11.4002C87.1298 12.9691 87.389 14.4702 88.5826 15.6502C88.3267 15.8358 88.1988 15.6954 88.0562 15.5695C87.1331 14.7495 86.7184 13.6826 86.5306 12.501C86.3686 11.4793 86.4285 10.4673 86.7006 9.47459C86.9468 8.57715 87.4116 7.80076 88.1194 7.18094C88.2425 7.0728 88.3688 6.96465 88.5729 7.15512H88.5745Z" fill="#1B1464"/>
<path d="M7.18702 10.5396C7.10766 10.7381 6.99266 10.8785 6.80316 10.9447C6.25411 10.8721 6.16179 10.7284 6.2784 10.1248C5.54794 9.9472 5.08959 10.1958 4.89685 10.8931C4.74784 11.4338 4.73813 11.9794 4.9341 12.512C5.07015 12.8816 5.31472 13.1528 5.71153 13.2593C6.16989 13.382 6.53754 13.2271 6.76591 12.8187C6.8307 12.7025 6.85823 12.5653 6.96189 12.4765C7.05745 12.4216 7.14491 12.4394 7.21131 12.47C7.2842 12.5491 7.27448 12.6234 7.25018 12.6799C6.95217 13.3433 6.46466 13.7565 5.63055 13.6629C4.5875 13.545 3.87972 12.6815 3.91535 11.6275C3.9607 10.2894 5.06043 9.44683 6.41607 9.71316C6.85823 9.80032 7.14005 10.0457 7.18864 10.538L7.18702 10.5396Z" fill="#1B1464"/>
<path d="M218.102 25.0706C217.979 25.0819 217.917 25.1271 217.862 25.2078C218.055 25.5806 218.162 25.9632 217.825 26.3167C217.435 26.7266 216.963 26.7605 216.456 26.5797C216.21 26.7605 216.364 26.901 216.498 27.0979C216.736 27.0979 216.989 27.093 217.243 27.0979C217.554 27.1043 217.856 27.1463 218.136 27.3061C218.414 27.4643 218.523 27.7064 218.518 28.005C218.512 28.3004 218.358 28.5054 218.086 28.6264C217.533 28.8718 216.975 28.9121 216.401 28.6958C215.667 28.4182 215.574 27.9324 216.181 27.3981C215.987 27.0753 215.956 26.7347 216.17 26.3877C215.931 26.0164 215.778 25.6355 216.11 25.2465C216.461 24.8349 216.952 24.7574 217.64 24.9995C217.856 24.9075 218.071 24.7526 218.351 24.7833C218.506 24.8876 218.579 25.0431 218.571 25.2497C218.376 25.3369 218.22 25.2777 218.103 25.0722L218.102 25.0706ZM218.056 27.8533C217.938 27.7145 217.809 27.6596 217.66 27.6257C217.368 27.5579 217.073 27.5676 216.779 27.574C216.438 27.5805 216.276 27.6951 216.238 27.9356C216.2 28.168 216.367 28.415 216.651 28.4989C216.978 28.5958 217.311 28.6006 217.637 28.4925C217.964 28.3843 218.063 28.2261 218.056 27.8533ZM216.864 25.0948C216.506 25.3288 216.372 25.8841 216.583 26.2182C216.748 26.4813 217.196 26.499 217.368 26.2295C217.537 25.9632 217.478 25.6581 217.409 25.3789C217.347 25.1319 217.111 25.1061 216.864 25.0948Z" fill="#1B1464"/>
<path d="M221.008 25.061C221.022 24.5962 221.04 24.1749 220.995 23.8214C220.851 23.6374 220.679 23.7197 220.585 23.6277C220.533 23.5599 220.536 23.4937 220.559 23.4033C220.852 23.2904 221.168 23.2952 221.531 23.3113C221.576 24.5994 221.511 25.881 221.583 27.1287C221.698 27.2788 221.861 27.2223 221.975 27.303C222.039 27.366 222.036 27.4402 221.996 27.5419C221.694 27.6081 221.38 27.6452 221.085 27.6275C220.987 27.558 221.016 27.4596 220.956 27.3789C220.11 27.8454 219.403 27.7049 219.004 26.8026C218.758 26.2442 218.863 25.6631 219.323 25.2079C219.751 24.785 220.214 24.7479 221.006 25.0626L221.008 25.061ZM221.001 25.4581C220.893 25.3612 220.82 25.2789 220.732 25.2208C220.336 24.9561 219.743 25.153 219.613 25.605C219.498 26.0085 219.503 26.4282 219.584 26.8365C219.652 27.1868 220.029 27.4257 220.368 27.3805C220.736 27.3305 220.996 27.0464 221.001 26.6784C221.006 26.2781 221.001 25.8778 221.001 25.4597V25.4581Z" fill="#1B1464"/>
<path d="M13.3819 9.72622C13.4823 9.89893 13.4175 10.041 13.4677 10.1701C13.6151 10.1685 13.6443 10.0232 13.7301 9.94897C14.0524 9.6778 14.6306 9.65359 14.9254 9.92153C15.0971 10.0765 15.17 10.2669 15.0825 10.501C15.0048 10.7092 14.8428 10.7899 14.6404 10.7786C14.4363 10.7673 14.284 10.6559 14.2387 10.4461C14.216 10.3444 14.2241 10.2347 14.216 10.1072C13.9471 10.1265 13.8257 10.3218 13.722 10.5139C13.6135 10.7141 13.5455 10.9416 13.5406 11.166C13.526 11.7939 13.5358 12.4218 13.5358 13.0481C13.7771 13.2175 14.0508 13.0884 14.2921 13.174C14.3877 13.2756 14.3537 13.3935 14.3261 13.5404H12.1364C12.0586 13.4241 12.0667 13.3112 12.1137 13.1901C12.2919 13.0803 12.5219 13.2143 12.7454 13.0255C12.7713 12.1619 12.8312 11.2532 12.6838 10.3477C12.4992 10.2185 12.3016 10.2815 12.1429 10.2105C12.0586 10.1023 12.0635 9.98771 12.1218 9.83921C12.5251 9.723 12.9559 9.77787 13.3819 9.72461V9.72622Z" fill="#1B1464"/>
<path d="M188.95 4.45776V1.97527C189.032 1.82677 189.125 1.82354 189.209 1.82031C189.335 1.91232 189.329 2.0366 189.329 2.15766C189.329 2.78716 189.329 3.41828 189.332 4.04778C189.332 4.19143 189.298 4.34155 189.4 4.51587C189.944 4.51587 190.506 4.51587 191.07 4.51587C191.298 4.51587 191.528 4.51748 191.757 4.51587C191.901 4.51587 192.03 4.5304 192.056 4.71118C191.991 4.93715 191.805 4.91132 191.63 4.91132C191.01 4.91132 190.391 4.91132 189.771 4.91132C189.638 4.91132 189.504 4.89841 189.329 4.96136V7.45354C189.209 7.59881 189.126 7.61334 188.964 7.53425C188.906 6.70782 188.968 5.84266 188.934 4.99364C188.791 4.86936 188.636 4.91617 188.495 4.91455C187.861 4.90971 187.228 4.91455 186.595 4.91132C186.438 4.91132 186.258 4.93715 186.211 4.7144C186.263 4.49811 186.434 4.51748 186.596 4.51748C187.23 4.51748 187.863 4.51748 188.496 4.51587C188.627 4.51587 188.763 4.54331 188.95 4.45937V4.45776Z" fill="#1B1464"/>
<path d="M142.448 18.6969C142.662 18.7615 142.637 18.9213 142.637 19.0666C142.637 19.6977 142.637 20.3288 142.639 20.9599C142.639 21.0923 142.615 21.2278 142.673 21.3634C142.848 21.4522 143.041 21.407 143.225 21.4086C143.805 21.4151 144.385 21.4086 144.966 21.4119C145.109 21.4119 145.268 21.3796 145.371 21.541C145.347 21.7912 145.161 21.7734 144.987 21.7734C144.353 21.7734 143.719 21.7718 143.084 21.775C142.953 21.775 142.815 21.746 142.649 21.8251V24.314C142.547 24.4528 142.461 24.4754 142.307 24.4625C142.198 24.038 142.266 23.5973 142.255 23.1648C142.244 22.7225 142.252 22.2802 142.252 21.8654C142.129 21.7331 141.999 21.775 141.884 21.775C141.223 21.7702 140.563 21.775 139.9 21.7718C139.745 21.7718 139.562 21.8089 139.52 21.5797C139.591 21.3667 139.772 21.4119 139.926 21.4119C140.546 21.4086 141.167 21.4102 141.789 21.4102C141.921 21.4102 142.054 21.4102 142.161 21.4102C142.292 21.2634 142.25 21.1229 142.252 20.9938C142.257 20.3627 142.252 19.7316 142.255 19.1005C142.255 18.9455 142.218 18.7663 142.451 18.6953L142.448 18.6969Z" fill="#1B1464"/>
<path d="M191.985 18.7541C192.178 18.6751 192.259 18.7009 192.356 18.8235V21.3964C193.276 21.4336 194.173 21.3851 195.028 21.4239C195.112 21.5869 195.095 21.6692 194.972 21.7644H192.456C192.325 21.8758 192.361 21.9904 192.361 22.0921C192.357 22.7491 192.361 23.4076 192.357 24.0646C192.357 24.205 192.406 24.3664 192.225 24.4778C191.98 24.481 191.995 24.2938 191.995 24.121C191.995 23.4899 191.995 22.8604 191.993 22.2293C191.993 22.097 192.016 21.9614 191.941 21.7806H189.364C189.228 21.6273 189.254 21.5369 189.381 21.4142H191.987V18.7541H191.985Z" fill="#1B1464"/>
<path d="M63.0875 3.38292C63.5524 3.32966 63.5588 2.90353 63.7516 2.64044C63.8228 2.60977 63.8811 2.63398 63.9378 2.6937C63.9378 2.72598 63.9475 2.76795 63.9378 2.80185C63.8455 3.10046 63.7111 3.37324 63.426 3.54272C63.2025 3.67508 62.932 3.68638 62.7458 3.53626C62.5498 3.37808 62.4947 3.16825 62.5676 2.92613C62.6842 2.54359 62.8413 2.17234 62.9256 1.78012C62.9709 1.56867 63.013 1.36045 62.8705 1.16999C62.3133 1.07798 61.8728 1.37659 61.7108 1.96413C61.5877 2.41446 61.4889 2.87287 61.3561 3.32159C61.2573 3.65087 61.1342 3.68799 60.82 3.52012C60.8897 2.7276 61.293 1.98349 61.2816 1.17967C61.0257 1.08767 60.9593 1.23778 60.8994 1.37013C60.8443 1.49119 60.8233 1.62678 60.7747 1.74945C60.7277 1.86889 60.6419 1.91247 60.4961 1.81724C60.5593 1.4008 60.6937 1.03279 61.1083 0.860077C61.4484 0.827795 61.6671 0.984363 61.8436 1.25069C62.1724 0.945625 62.5239 0.7826 62.9579 0.879447C63.2835 0.952081 63.4406 1.12156 63.4778 1.45407C63.4989 1.64292 63.4746 1.82531 63.4114 2.00609C63.3062 2.30793 63.2122 2.61461 63.1086 2.91806C63.06 3.05849 63.0179 3.1973 63.0859 3.38292H63.0875Z" fill="#1B1464"/>
<path d="M211.644 27.6038C211.431 27.5506 211.362 27.3924 211.249 27.2649C210.864 27.6603 210.417 27.7281 209.916 27.5409C209.37 27.3375 209.267 26.7613 209.693 26.3577C209.984 26.0817 210.349 26.0107 210.719 25.9397C210.862 25.9123 211.019 25.9494 211.141 25.8412C211.209 25.2311 210.975 25.031 210.258 25.0842C210.187 25.1762 210.282 25.2553 210.284 25.3409C210.287 25.4877 210.226 25.6007 210.093 25.6669C209.96 25.7331 209.827 25.7153 209.72 25.6136C209.615 25.5136 209.582 25.3861 209.631 25.2456C209.697 25.0568 209.822 24.9244 210.021 24.8728C210.407 24.7727 210.791 24.7533 211.162 24.9276C211.52 25.0971 211.725 25.3699 211.72 25.7783C211.716 26.1269 211.711 26.4756 211.724 26.8226C211.73 26.984 211.696 27.1745 211.903 27.2778C212.106 27.1244 211.955 26.8888 212.051 26.7161C212.101 26.6564 212.164 26.6644 212.248 26.6935C212.318 26.8646 212.313 27.055 212.25 27.2278C212.143 27.5231 211.89 27.599 211.644 27.599V27.6038ZM210.106 26.5934C209.994 27.0211 210.047 27.2019 210.311 27.3262C210.626 27.4731 211.058 27.2713 211.142 26.9259C211.201 26.6806 211.207 26.4288 211.137 26.1608C210.741 26.1834 210.391 26.2738 210.107 26.595L210.106 26.5934Z" fill="#1B1464"/>
<path d="M154.993 24.8009C155.035 24.8864 155.032 24.9526 155.008 25.0462H152.947C152.899 24.9575 152.904 24.8832 152.951 24.8041C153.155 24.6944 153.404 24.8299 153.637 24.6863V21.6276C153.378 21.5501 153.148 21.7244 152.907 21.6469C152.832 21.5598 152.862 21.4775 152.931 21.3806C153.348 21.2983 153.793 21.2563 154.185 20.9609C154.259 21.6066 154.214 22.2296 154.25 22.8478C154.285 23.4612 154.255 24.0762 154.29 24.6766C154.517 24.8283 154.765 24.7089 154.993 24.8025V24.8009Z" fill="#1B1464"/>
<path d="M64.7071 22.7924C64.9388 22.6924 65.1849 22.8102 65.4263 22.673V19.59C65.1995 19.5352 64.9679 19.6772 64.7412 19.6336C64.6537 19.5675 64.6667 19.4867 64.6861 19.356C65.1072 19.2769 65.5688 19.2462 65.9786 18.875C66.1195 19.5755 66.032 20.1986 66.0482 20.8152C66.0644 21.4285 66.0514 22.0435 66.0514 22.6407C66.2863 22.8037 66.5357 22.6972 66.7365 22.7827C66.8159 22.8522 66.8062 22.9296 66.7754 23.0345H64.7395C64.644 22.9603 64.6958 22.8748 64.7071 22.794V22.7924Z" fill="#1B1464"/>
<path d="M181.073 7.80435V4.71334C180.822 4.70204 180.59 4.8231 180.349 4.75853C180.263 4.68428 180.278 4.59874 180.341 4.47929C180.78 4.46638 181.206 4.32918 181.667 4.02734V7.77368C181.933 7.96415 182.195 7.84793 182.417 7.92864C182.482 8.00289 182.468 8.07875 182.429 8.18044H180.404C180.328 8.11426 180.338 8.03517 180.364 7.94639C180.574 7.82211 180.846 7.98513 181.073 7.80435Z" fill="#1B1464"/>
<path d="M223.32 27.204C223.512 27.2395 223.631 27.2605 223.728 27.2783C223.822 27.3558 223.812 27.4332 223.783 27.543H222.358C222.275 27.4817 222.314 27.4009 222.314 27.3332C222.434 27.204 222.618 27.3073 222.756 27.1621V23.7902C222.628 23.6546 222.468 23.7095 222.366 23.6401C222.29 23.5658 222.293 23.4916 222.335 23.3915C222.633 23.2914 222.952 23.3108 223.321 23.3027V27.2073L223.32 27.204Z" fill="#1B1464"/>
<path d="M213.789 24.9291C213.899 25.2583 213.585 25.1776 213.487 25.3197C213.677 25.8104 213.87 26.3059 214.085 26.8628C214.312 26.3398 214.53 25.8765 214.628 25.4133C214.564 25.2083 214.257 25.197 214.411 24.9258C214.746 24.8903 215.102 24.8935 215.449 24.9258C215.501 25.0049 215.494 25.0695 215.475 25.134C214.971 25.3665 214.974 25.3665 214.773 25.9056C214.587 26.406 214.393 26.9015 214.205 27.4019C214.148 27.552 214.079 27.6714 213.837 27.6149C213.462 26.8854 213.248 26.0541 212.898 25.3277C212.767 25.1873 212.603 25.2599 212.519 25.1922C212.414 25.1147 212.425 25.0372 212.452 24.9323H213.792L213.789 24.9291Z" fill="#1B1464"/>
<path d="M58.1953 20.6061C57.8762 20.6109 57.7563 20.8337 57.6559 21.0661C57.5976 21.2001 57.5733 21.3502 57.379 21.347C57.3158 20.966 57.643 20.456 58.0074 20.3478C58.3248 20.2542 58.5629 20.3979 58.7475 20.803C58.7346 21.1646 58.5354 21.4793 58.4301 21.8215C58.3281 22.1556 58.0948 22.4575 58.1612 22.8626C58.5224 22.8416 58.6212 22.5931 58.7297 22.3509C58.7832 22.2315 58.7864 22.0346 59.0731 22.1476C58.9565 22.4978 58.8512 22.8287 58.4933 23.0385C58.205 23.208 57.9847 23.108 57.7774 22.9595C57.5668 22.6915 57.6365 22.4365 57.7369 22.1798C57.8713 21.8312 58.0041 21.4825 58.1386 21.1339C58.2001 20.9725 58.2519 20.8095 58.1936 20.6093L58.1953 20.6061Z" fill="#1B1464"/>
<path d="M119.605 23.3589C119.671 22.9538 119.822 22.6439 120.155 22.4405C120.392 22.2968 120.632 22.3227 120.836 22.476C121.038 22.6277 121.072 22.8505 120.981 23.091C120.828 23.5042 120.672 23.9174 120.53 24.3338C120.471 24.5033 120.366 24.676 120.481 24.8875C120.922 24.8391 120.943 24.4275 121.106 24.1676C121.207 24.0982 121.268 24.1482 121.356 24.1999C121.25 24.5162 121.132 24.8084 120.858 25.0069C120.615 25.1845 120.358 25.1942 120.144 25.0457C119.96 24.9165 119.874 24.6696 119.964 24.3968C120.104 23.9787 120.277 23.572 120.419 23.1539C120.47 23.0087 120.564 22.8618 120.5 22.6923C120.215 22.6487 120.123 22.7036 119.972 23.0184C119.903 23.1652 119.903 23.3751 119.602 23.3573L119.605 23.3589Z" fill="#1B1464"/>
<path d="M93.0859 13.1307C93.1556 12.8289 93.2722 12.5771 93.4747 12.3705C93.7014 12.1397 93.9946 12.0961 94.2456 12.2446C94.4869 12.3882 94.5711 12.6239 94.461 12.9435C94.3136 13.3728 94.1468 13.7957 93.9832 14.2203C93.9298 14.3607 93.8779 14.4947 93.9605 14.6883C94.3817 14.6302 94.4383 14.2525 94.5954 13.9717C94.6732 13.9329 94.7477 13.9281 94.8303 13.9959C94.772 14.3171 94.6311 14.5947 94.3638 14.8029C94.1581 14.9627 93.8407 14.9918 93.6479 14.8659C93.4406 14.7303 93.3532 14.4656 93.452 14.1864C93.5977 13.7699 93.7565 13.3583 93.9152 12.9451C93.9784 12.7805 94.0221 12.6174 93.9622 12.4415C93.6366 12.4205 93.5654 12.6756 93.4439 12.8789C93.3742 12.9968 93.384 13.226 93.0892 13.1323L93.0859 13.1307Z" fill="#1B1464"/>
<path d="M148.849 7.97547C149.157 8.02066 149.242 7.79792 149.353 7.601C149.429 7.46541 149.422 7.24589 149.665 7.25074C149.715 7.65103 149.388 8.15141 149.03 8.23695C148.565 8.34833 148.222 8.00775 148.361 7.54289C148.483 7.13452 148.646 6.73906 148.795 6.33877C148.865 6.15314 148.935 5.97075 148.891 5.75607C148.512 5.73832 148.421 6.00465 148.322 6.24838C148.264 6.39365 148.227 6.53407 147.973 6.434C148.096 6.10956 148.185 5.7819 148.499 5.57852C148.726 5.43164 149.027 5.43002 149.217 5.58659C149.413 5.748 149.461 5.94977 149.387 6.19834C149.257 6.63415 149.046 7.0409 148.91 7.47348C148.86 7.63166 148.76 7.79146 148.847 7.97708L148.849 7.97547Z" fill="#1B1464"/>
<path d="M47.2185 12.3957C47.1214 12.3166 47.1116 12.231 47.1651 12.1277C47.1926 12.1132 47.2282 12.0809 47.2639 12.0793C47.6008 12.0728 47.9377 12.068 48.2745 12.068C49.7031 12.068 51.1316 12.068 52.5601 12.068C52.7512 12.068 52.9942 12.0244 52.9213 12.394H47.2202L47.2185 12.3957Z" fill="#1B1464"/>
<path d="M52.9028 10.701C52.0153 10.8237 47.4074 10.7608 47.1434 10.6268C47.111 10.5396 47.158 10.4751 47.2179 10.3992C47.2859 10.3928 47.3653 10.3782 47.4446 10.3782C49.1404 10.3782 50.8362 10.3782 52.5335 10.3782C52.6145 10.3782 52.6971 10.3718 52.7749 10.3879C52.9449 10.4234 52.9887 10.5267 52.9028 10.7027V10.701Z" fill="#1B1464"/>
<path d="M180.324 21.5012C180.363 21.6239 180.321 21.6868 180.251 21.7482H175.083C174.979 21.619 175.005 21.5286 175.096 21.4463C175.752 21.3495 180.044 21.3931 180.324 21.5012Z" fill="#1B1464"/>
<path d="M31.4034 13.6009C31.0751 13.5697 30.8165 13.4573 30.6276 13.2636C30.6195 13.2313 30.6 13.1926 30.6017 13.1554C30.6195 12.7632 30.7831 12.5469 31.0778 12.5179C31.3661 12.4904 31.6415 12.718 31.7403 13.0489C31.8407 13.383 31.784 13.7171 31.7192 14.04C31.622 14.5194 31.4018 14.9439 31.0049 15.2409C30.8705 15.2586 30.8365 15.1585 30.7474 15.0794C31.0875 14.6436 31.4261 14.2094 31.4018 13.6009H31.4034Z" fill="#1B1464"/>
<path d="M123.557 25.4674C123.42 25.419 123.362 25.3496 123.313 25.2205C123.69 24.8347 123.964 24.3715 123.979 23.7597C123.64 23.8194 123.35 23.7404 123.169 23.4224C123.164 23.3966 123.153 23.3691 123.157 23.3449C123.23 22.8639 123.342 22.7283 123.679 22.7154C123.995 22.7025 124.249 22.9155 124.307 23.3207C124.429 24.152 124.186 24.8702 123.557 25.4674Z" fill="#1B1464"/>
<path d="M151.958 8.57113C151.796 8.53078 151.741 8.46137 151.705 8.34354C152.055 7.94163 152.365 7.50743 152.35 6.91344C152.19 6.89085 152.029 6.886 151.883 6.84081C151.741 6.79723 151.642 6.67617 151.564 6.5648C151.509 6.32107 151.59 6.12899 151.718 5.94982C152.211 5.71416 152.585 5.86589 152.682 6.38724C152.839 7.23465 152.577 7.961 151.96 8.56951L151.958 8.57113Z" fill="#1B1464"/>
<path d="M219.923 13.7825C219.975 13.7599 220.025 13.7615 220.098 13.8309C220.098 15.8066 220.098 17.8113 220.095 19.8144C220.095 19.8612 220.028 19.8935 219.96 19.8903C219.844 19.8612 219.852 19.7595 219.852 19.6675C219.852 17.7645 219.853 15.8631 219.857 13.96C219.857 13.8939 219.857 13.8245 219.925 13.7809L219.923 13.7825Z" fill="#1B1464"/>
<path d="M213.165 19.9025C212.913 19.8476 212.982 19.67 212.98 19.5409C212.975 18.6289 212.98 17.7186 212.98 16.8066C212.98 15.9092 212.975 15.0101 212.98 14.1127C212.98 13.9722 212.915 13.7721 213.176 13.7656C213.286 14.1078 213.281 19.5732 213.165 19.9041V19.9025Z" fill="#1B1464"/>
<path d="M63.7843 20.9058C63.7616 21.0027 63.7065 21.0334 63.6353 21.0447C63.3259 21.0931 59.902 21.043 59.6947 20.9849C59.6445 20.7977 59.774 20.7896 59.9004 20.788C60.2227 20.7848 60.5466 20.788 60.8689 20.788C61.716 20.788 62.5647 20.7864 63.4117 20.7896C63.5462 20.7896 63.713 20.7348 63.7826 20.9058H63.7843Z" fill="#1B1464"/>
<path d="M63.778 22.0576C63.7813 22.2449 63.663 22.2433 63.5578 22.2433C62.3463 22.2449 61.1364 22.2449 59.9249 22.2433C59.818 22.2433 59.703 22.2481 59.6836 22.098C59.7144 21.9737 59.8164 21.9785 59.9087 21.9785C61.1202 21.9785 62.3301 21.9785 63.5416 21.9785C63.6226 21.9785 63.7035 21.985 63.778 22.0576Z" fill="#1B1464"/>
<path d="M160.058 21.5735C160.064 21.8867 159.849 22.1127 159.536 22.1191C159.227 22.1256 158.99 21.906 158.981 21.6026C158.971 21.3072 159.209 21.057 159.506 21.049C159.805 21.0425 160.051 21.2765 160.058 21.5735Z" fill="#1B1464"/>
<path d="M102.02 11.3478C102.054 11.0411 102.329 10.8345 102.648 10.8765C102.925 10.9136 103.131 11.1606 103.11 11.435C103.087 11.7384 102.804 11.9725 102.501 11.9354C102.213 11.8998 101.988 11.6271 102.018 11.3494L102.02 11.3478Z" fill="#1B1464"/>
<path d="M169.182 4.70108C169.185 4.99 168.936 5.24342 168.644 5.24665C168.351 5.25149 168.098 5.00776 168.09 4.7156C168.082 4.42022 168.32 4.18295 168.628 4.17972C168.936 4.17649 169.178 4.40408 169.182 4.69946V4.70108Z" fill="#1B1464"/>
<path d="M204.472 21.0509C204.773 21.0573 205.005 21.2946 205 21.5964C204.997 21.9063 204.768 22.1242 204.456 22.1194C204.154 22.1145 203.915 21.8724 203.918 21.5803C203.921 21.2946 204.18 21.046 204.47 21.0509H204.472Z" fill="#1B1464"/>
<path d="M58.8507 19.0267C58.9349 19.0978 58.9787 19.1882 58.9819 19.2979C58.7778 19.6643 58.7341 19.6805 58.3729 19.5255C58.2919 19.1042 58.394 18.9977 58.8507 19.0284V19.0267Z" fill="#1B1464"/>
<path d="M94.0898 11.2058C94.1401 10.9281 94.2939 10.8022 94.5547 10.8248C94.6843 10.8878 94.7345 10.9895 94.7539 11.1057C94.7247 11.3075 94.6016 11.4204 94.417 11.4543C94.2469 11.4866 94.1417 11.3914 94.0898 11.2058Z" fill="#1B1464"/>
<path d="M149.028 4.61899C148.975 4.36719 149.093 4.20255 149.325 4.13314C149.524 4.07342 149.616 4.21385 149.668 4.38172C149.487 4.803 149.385 4.84174 149.028 4.6206V4.61899Z" fill="#1B1464"/>
<path d="M120.659 21.5526C120.617 21.1426 120.693 21.0587 121.115 21.0312C121.272 21.1475 121.339 21.2895 121.203 21.4687C121.06 21.6591 120.884 21.6963 120.657 21.5526H120.659Z" fill="#1B1464"/>
</g>
<defs>
<clipPath id="clip0_5367_325">
<rect width="230.789" height="29.091" fill="white" transform="translate(0.460938 0.335938)"/>
</clipPath>
</defs>
</svg>
