<svg width="313" height="162" viewBox="0 0 313 162" fill="none" xmlns="http://www.w3.org/2000/svg">
<path d="M184.832 48.5685V18.4597H228.991" stroke="#130C49" stroke-width="0.968224" stroke-dasharray="1.94 1.94"/>
<rect y="0.655449" width="7.48002" height="7.48002" rx="0.463472" transform="matrix(0.707106 0.707108 -0.707106 0.707108 185.214 12.6307)" fill="#61D384" stroke="#130C49" stroke-width="0.926943"/>
<path d="M184.832 111.949V142.058H228.991" stroke="#130C49" stroke-width="0.968224" stroke-dasharray="1.94 1.94"/>
<rect y="-0.655449" width="7.48002" height="7.48002" rx="0.463472" transform="matrix(0.707106 -0.707108 -0.707106 -0.707108 184.288 146.96)" fill="#61D384" stroke="#130C49" stroke-width="0.926943"/>
<path d="M129.245 48.5685V18.4597H85.0859" stroke="#130C49" stroke-width="0.968224" stroke-dasharray="1.94 1.94"/>
<rect y="0.655449" width="7.48002" height="7.48002" rx="0.463472" transform="matrix(-0.707106 0.707108 0.707106 0.707108 128.863 12.6307)" fill="#61D384" stroke="#130C49" stroke-width="0.926943"/>
<path d="M129.245 111.949V142.058H85.0859" stroke="#130C49" stroke-width="0.968224" stroke-dasharray="1.94 1.94"/>
<rect y="-0.655449" width="7.48002" height="7.48002" rx="0.463472" transform="matrix(-0.707106 -0.707108 0.707106 -0.707108 129.79 146.96)" fill="#61D384" stroke="#130C49" stroke-width="0.926943"/>
<rect x="268.799" y="41.7926" width="41.3084" height="41.3085" rx="6.93144" transform="rotate(180 268.799 41.7926)" fill="#DDEBF2" stroke="#130C49" stroke-width="0.968224"/>
<path d="M243.103 30.1078C243.043 30.1078 242.985 30.0848 242.938 30.041L235.101 22.2413C235.057 22.1976 235.034 22.14 235.034 22.0778C235.034 22.0156 235.06 21.9581 235.101 21.9143L242.938 14.1169C243.029 14.0271 243.175 14.0271 243.265 14.1169C243.355 14.2067 243.355 14.3518 243.265 14.4416L235.592 22.0801L243.265 29.7163C243.355 29.8061 243.355 29.9512 243.265 30.041C243.218 30.0871 243.161 30.1078 243.1 30.1078H243.103Z" fill="#130C49" stroke="#130C49" stroke-width="0.641293"/>
<path d="M253.726 30.1077C253.666 30.1077 253.608 30.0847 253.562 30.0409C253.472 29.9511 253.472 29.806 253.562 29.7162L261.235 22.08L253.562 14.4438C253.472 14.354 253.472 14.2089 253.562 14.1191C253.652 14.0293 253.798 14.0293 253.888 14.1191L261.725 21.9188C261.769 21.9626 261.792 22.0201 261.792 22.0823C261.792 22.1445 261.767 22.2021 261.725 22.2458L253.888 30.0455C253.842 30.0916 253.784 30.1123 253.724 30.1123L253.726 30.1077Z" fill="#130C49" stroke="#130C49" stroke-width="0.641293"/>
<path d="M248.415 25.576C250.355 25.576 251.927 24.0109 251.927 22.0803C251.927 20.1497 250.355 18.5846 248.415 18.5846C246.475 18.5846 244.902 20.1497 244.902 22.0803C244.902 24.0109 246.475 25.576 248.415 25.576Z" fill="#61D384"/>
<rect x="268.799" y="161.516" width="41.3084" height="41.3085" rx="6.93144" transform="rotate(180 268.799 161.516)" fill="#DDEBF2" stroke="#130C49" stroke-width="0.968224"/>
<path d="M251.313 147.036C255.768 147.036 259.38 143.424 259.38 138.969C259.38 134.514 255.768 130.903 251.313 130.903C246.859 130.903 243.247 134.514 243.247 138.969C243.247 143.424 246.859 147.036 251.313 147.036Z" fill="#61D384" stroke="#130C49" stroke-width="1.28259"/>
<path d="M240.03 150.313C239.955 150.313 239.883 150.284 239.825 150.229C239.713 150.117 239.713 149.935 239.825 149.823L245.264 144.385C245.376 144.272 245.558 144.272 245.67 144.385C245.782 144.497 245.782 144.678 245.67 144.791L240.234 150.226C240.177 150.284 240.105 150.31 240.03 150.31V150.313Z" fill="#130C49" stroke="#130C49" stroke-width="0.641293"/>
<rect x="0.484112" y="61.1231" width="41.3084" height="41.3085" rx="6.93144" fill="#DDEBF2" stroke="#130C49" stroke-width="0.968224"/>
<path d="M27.311 81.4231C27.3223 84.892 24.4848 87.7434 21.0384 87.7322C17.6397 87.721 14.8359 84.9172 14.8107 81.5045C14.7882 77.9991 17.533 75.1953 21.0131 75.1729C24.4933 75.1504 27.297 77.9289 27.311 81.4231Z" fill="#61D384"/>
<path d="M21.0614 88.01H21.0389C17.4746 87.9987 14.5558 85.0799 14.5334 81.5044C14.5081 77.8194 17.3568 74.9146 21.0165 74.8893C22.779 74.8669 24.4208 75.5461 25.6613 76.7725C26.9046 78.0018 27.5922 79.6521 27.5978 81.4202C27.6035 83.1799 26.9158 84.8386 25.6641 86.0903C24.4264 87.328 22.793 88.01 21.0642 88.01H21.0614ZM21.0389 87.4487H21.0586C22.6359 87.4487 24.1289 86.8256 25.26 85.6946C26.4051 84.5495 27.0337 83.0311 27.0281 81.423C27.0225 79.8064 26.3938 78.2965 25.26 77.1739C24.1374 76.0625 22.6471 75.4535 21.0558 75.4535C21.0417 75.4535 21.0277 75.4535 21.0137 75.4535C17.6683 75.4759 15.0666 78.1337 15.0891 81.5016C15.1115 84.7712 17.7805 87.4374 21.0361 87.4487H21.0389Z" fill="#130C49" stroke="#130C49" stroke-width="0.641293"/>
<path d="M20.9054 88.0981C18.9015 88.0784 16.8612 87.3543 14.6665 85.8837C13.1313 84.8537 11.6971 83.5739 10.2854 81.9658C10.1507 81.8086 9.8364 81.4465 10.2349 81.0003C12.4212 78.5446 14.5149 76.8971 16.8191 75.8138C20.1533 74.2449 23.451 74.5228 26.9086 76.6558C28.6122 77.7082 30.2288 79.1059 31.8509 80.9273C32.0109 81.107 32.3168 81.4522 31.9379 81.89H31.9351C29.3363 84.8144 26.9591 86.5573 24.2228 87.5424C23.204 87.9157 22.1515 88.0897 20.911 88.0953L20.9054 88.0981ZM21.0542 75.3816C19.7154 75.3816 18.3879 75.6959 17.0576 76.3218C14.8236 77.3714 12.7889 78.9768 10.6531 81.3736C10.6054 81.4269 10.5998 81.4522 10.5998 81.4522C10.6026 81.4606 10.625 81.4999 10.7092 81.5981C12.0873 83.167 13.4849 84.4159 14.9808 85.4178C17.0829 86.8267 19.0222 87.5171 20.911 87.5368C22.0814 87.5312 23.0749 87.3656 24.0319 87.0176C26.6757 86.0661 28.9827 84.371 31.5142 81.5251C31.5534 81.4774 31.5591 81.455 31.5591 81.455C31.5506 81.4381 31.4861 81.3652 31.444 81.3146C29.8471 79.5212 28.2726 78.1601 26.6139 77.1357C24.7223 75.9653 22.8784 75.3816 21.057 75.3816H21.0542Z" fill="#130C49" stroke="#130C49" stroke-width="0.641293"/>
<path d="M14.9502 73.8971C14.8772 73.8971 14.8071 73.869 14.7509 73.8157L12.421 71.4773C12.3115 71.3678 12.3115 71.191 12.421 71.0815C12.5305 70.972 12.7073 70.972 12.8168 71.0815L15.1467 73.4199C15.2562 73.5294 15.2562 73.7062 15.1467 73.8157C15.0934 73.869 15.0204 73.8971 14.9474 73.8971H14.9502Z" fill="#130C49" stroke="#130C49" stroke-width="0.641293"/>
<path d="M27.2482 73.9082C27.1752 73.9082 27.105 73.8801 27.0489 73.8268C26.9394 73.7173 26.9394 73.5405 27.0489 73.431L29.3788 71.0926C29.4883 70.9831 29.6652 70.9831 29.7747 71.0926C29.8841 71.2021 29.8841 71.3789 29.7747 71.4884L27.4447 73.8268C27.3886 73.8829 27.3184 73.9082 27.2454 73.9082H27.2482Z" fill="#130C49" stroke="#130C49" stroke-width="0.641293"/>
<path d="M21.0971 72.5303C20.9427 72.5303 20.8164 72.4039 20.8164 72.2495L20.822 68.9483C20.822 68.7939 20.9483 68.6676 21.1027 68.6676C21.2571 68.6676 21.3835 68.7939 21.3835 68.9483L21.3778 72.2495C21.3778 72.4039 21.2515 72.5303 21.0971 72.5303Z" fill="#130C49" stroke="#130C49" stroke-width="0.641293"/>
<path d="M12.6203 92.4949C12.5473 92.4949 12.4771 92.4668 12.421 92.4135C12.3115 92.304 12.3115 92.1271 12.421 92.0176L14.7509 89.6793C14.8604 89.5698 15.0372 89.5698 15.1467 89.6793C15.2562 89.7888 15.2562 89.9656 15.1467 90.0751L12.8168 92.4135C12.7606 92.4696 12.6905 92.4949 12.6175 92.4949H12.6203Z" fill="#130C49" stroke="#130C49" stroke-width="0.641293"/>
<path d="M29.5782 92.4839C29.5052 92.4839 29.435 92.4558 29.3788 92.4025L27.0489 90.0641C26.9394 89.9546 26.9394 89.7778 27.0489 89.6683C27.1584 89.5588 27.3352 89.5588 27.4447 89.6683L29.7747 92.0067C29.8841 92.1161 29.8841 92.293 29.7747 92.4025C29.7213 92.4558 29.6483 92.4839 29.5754 92.4839H29.5782Z" fill="#130C49" stroke="#130C49" stroke-width="0.641293"/>
<path d="M21.1027 94.8251C20.9483 94.8251 20.822 94.6987 20.822 94.5443L20.8164 91.2431C20.8164 91.0887 20.9427 90.9624 21.0971 90.9624C21.2515 90.9624 21.3778 91.0887 21.3778 91.2431L21.3835 94.5443C21.3835 94.6987 21.2599 94.8195 21.1027 94.8251Z" fill="#130C49" stroke="#130C49" stroke-width="0.641293"/>
<rect x="45.5749" y="0.484112" width="41.3084" height="41.3085" rx="6.93144" fill="#DDEBF2" stroke="#130C49" stroke-width="0.968224"/>
<path d="M61.0503 26.9647C57.781 26.9647 55.124 24.297 55.124 21.0147C55.124 18.3347 56.9546 15.9621 59.5075 15.2675C59.5075 15.1999 59.5075 15.1323 59.5075 15.0585C59.5075 12.2925 61.7482 10.0366 64.5093 10.0366C66.3398 10.0366 67.9867 11.0201 68.8744 12.6121C69.4071 12.4892 69.9519 12.4277 70.5029 12.4277C74.4885 12.4277 77.7271 15.6793 77.7271 19.6808C77.7271 23.6824 74.4885 26.934 70.5029 26.934C69.4928 26.934 67.5214 26.934 65.5929 26.9463C63.744 26.9463 61.938 26.9586 61.0564 26.9586L61.0503 26.9647ZM64.5032 10.6574C62.0849 10.6574 60.1136 12.6305 60.1136 15.0646C60.1136 15.206 60.1197 15.3413 60.132 15.4765L60.1564 15.7469L59.8932 15.8084C57.4811 16.3432 55.7301 18.5376 55.7301 21.0208C55.7301 23.9651 58.1178 26.3562 61.0442 26.3562C61.9258 26.3562 63.7318 26.3562 65.5746 26.3439C67.5031 26.3439 69.4805 26.3316 70.4846 26.3316C74.1334 26.3316 77.0965 23.3505 77.0965 19.6931C77.0965 16.0358 74.1272 13.0547 70.4846 13.0547C69.9091 13.0547 69.3336 13.1284 68.7765 13.2821L68.5316 13.3497L68.4214 13.1223C67.6745 11.6102 66.1684 10.6697 64.4909 10.6697L64.5032 10.6574Z" fill="#130C49" stroke="#130C49" stroke-width="0.641293"/>
<path d="M72.6769 20.5599H62.1406V31.1385H72.6769V20.5599Z" fill="#61D384"/>
<rect x="312.334" y="102.431" width="41.3084" height="41.3085" rx="6.93144" transform="rotate(180 312.334 102.431)" fill="#DDEBF2" stroke="#130C49" stroke-width="0.968224"/>
<path d="M290.151 92.9571C289.782 92.9571 289.481 92.6615 289.475 92.2905L289.456 91.1208C288.517 90.9007 287.621 90.5485 286.788 90.058L285.999 90.8881C285.742 91.1585 285.31 91.1648 285.04 90.907L282.723 88.6807C282.591 88.555 282.516 88.3852 282.516 88.2028C282.516 88.0204 282.579 87.8506 282.704 87.7186L283.518 86.8633C283.011 86.052 282.635 85.1779 282.391 84.2535H281.251C280.875 84.2535 280.574 83.9453 280.574 83.568V80.3481C280.58 79.9771 280.887 79.669 281.257 79.669H282.297C282.51 78.7131 282.867 77.7949 283.368 76.9459L282.616 76.1598C282.359 75.8894 282.366 75.4618 282.635 75.1976L284.94 72.9588C285.072 72.8331 285.247 72.7639 285.422 72.7702C285.604 72.7702 285.773 72.8456 285.898 72.9777L286.556 73.6569C287.439 73.0972 288.404 72.6947 289.418 72.4557L289.4 71.4244C289.4 71.0471 289.694 70.7389 290.064 70.7326L293.271 70.676C293.665 70.676 293.953 70.9716 293.96 71.3426L293.978 72.4998C294.937 72.745 295.845 73.1412 296.684 73.6695L297.423 72.9023C297.549 72.7702 297.718 72.701 297.899 72.6947C298.087 72.7073 298.25 72.7576 298.382 72.8834L300.687 75.1222C300.818 75.248 300.887 75.4178 300.893 75.6001C300.9 75.7825 300.831 75.9523 300.706 76.0844L299.86 76.9648C300.374 77.8515 300.743 78.8074 300.944 79.8136H301.977C302.347 79.8136 302.654 80.1155 302.654 80.4928V83.7126C302.66 83.895 302.591 84.0648 302.466 84.1969C302.34 84.3226 302.165 84.3981 301.99 84.3981H300.787C300.543 85.266 300.179 86.0898 299.703 86.8633L300.48 87.6746C300.737 87.945 300.731 88.3789 300.461 88.6367L298.144 90.8629C298.012 90.9887 297.843 91.0579 297.661 91.0516C297.48 91.0516 297.311 90.9761 297.185 90.8441L296.434 90.0517C295.682 90.4982 294.874 90.8315 294.028 91.0516L294.047 92.2087C294.054 92.5861 293.753 92.8942 293.383 92.9005L290.176 92.9571H290.164H290.151ZM286.669 89.3096L286.894 89.4165C287.796 89.9762 288.773 90.3661 289.807 90.58L290.032 90.624L290.045 90.8567L290.07 92.2779C290.07 92.3219 290.107 92.3534 290.151 92.3534L293.358 92.2968C293.402 92.2968 293.44 92.259 293.433 92.215L293.408 90.6114L293.646 90.5234C294.592 90.3033 295.488 89.9259 296.315 89.4165L296.521 89.2908L297.611 90.429H297.724L300.042 88.2028C300.073 88.1714 300.073 88.121 300.042 88.0896L298.939 86.9325L299.071 86.7312C299.616 85.8948 300.023 84.983 300.267 84.0208L300.323 83.8007H301.983L302.065 83.7126V80.4928C302.058 80.4488 302.021 80.411 301.977 80.411H300.442L300.399 80.1658C300.204 79.0715 299.81 78.0276 299.227 77.078L299.108 76.883L300.273 75.6693V75.5561L297.962 73.3173C297.937 73.2922 297.874 73.2922 297.849 73.3173L296.766 74.443L296.559 74.3046C295.657 73.7009 294.667 73.267 293.615 73.028L293.39 72.9777L293.365 71.3552C293.365 71.3112 293.327 71.2798 293.283 71.2798L290.076 71.3363C290.032 71.3363 289.995 71.3741 290.001 71.4181L290.026 72.9463L289.782 72.9966C288.736 73.2104 287.752 73.6129 286.85 74.1852L286.468 74.4367L285.466 73.3991C285.466 73.3991 285.378 73.3676 285.353 73.3991L283.048 75.6379C283.048 75.6379 283.017 75.7196 283.048 75.7511L284.126 76.8705L284.007 77.0654C283.443 77.9836 283.048 78.9835 282.842 80.04L282.792 80.2853H281.257C281.213 80.2853 281.176 80.3167 281.176 80.3607V83.5806C281.169 83.6246 281.207 83.6623 281.251 83.6623H282.842L282.911 83.895C283.155 84.9075 283.568 85.8697 284.144 86.7438L284.276 86.9451L283.136 88.1462C283.136 88.1462 283.105 88.228 283.136 88.2594L285.454 90.4856C285.454 90.4856 285.541 90.5108 285.566 90.4856L286.675 89.3222L286.669 89.3096Z" fill="#130C49" stroke="#130C49" stroke-width="0.641293"/>
<path d="M291.608 86.1526C293.991 86.1526 295.923 84.2127 295.923 81.8196C295.923 79.4266 293.991 77.4867 291.608 77.4867C289.224 77.4867 287.292 79.4266 287.292 81.8196C287.292 84.2127 289.224 86.1526 291.608 86.1526Z" fill="#61D384"/>
<rect x="45.5749" y="120.207" width="41.3084" height="41.3085" rx="6.93144" fill="#DDEBF2" stroke="#130C49" stroke-width="0.968224"/>
<path d="M75.0389 145.302V134.936L66.0805 129.759L57.1348 134.936V145.302L66.0805 150.492L75.0389 145.302Z" stroke="#130C49" stroke-width="1.28259"/>
<path d="M78.9084 141.46H71.1562V149.231H78.9084V141.46Z" fill="#61D384"/>
<line x1="41.9805" y1="81.9227" x2="270.542" y2="81.9227" stroke="#130C49" stroke-width="0.968224" stroke-dasharray="1.94 1.94"/>
<path d="M115.548 42.4652H198.411C202.422 42.4653 205.673 45.7165 205.673 49.7269V59.5619H108.286V49.7269C108.286 45.7164 111.537 42.4652 115.548 42.4652Z" fill="#130C49" stroke="#130C49" stroke-width="0.968224"/>
<ellipse cx="117.748" cy="51.9218" rx="1.91164" ry="1.91165" fill="#61D384"/>
<ellipse cx="124.433" cy="51.9218" rx="1.91164" ry="1.91165" fill="#61D384"/>
<ellipse cx="131.127" cy="51.9218" rx="1.91164" ry="1.91165" fill="#61D384"/>
<path d="M205.671 58.5234V112.518C205.671 116.528 202.42 119.779 198.409 119.779H115.546C111.535 119.779 108.284 116.528 108.284 112.518V58.5234H205.671Z" fill="#DDEBF2" stroke="#130C49" stroke-width="0.968224"/>
<path d="M150.944 97.5035H126.71V99.6253H150.944V97.5035Z" fill="#130C49"/>
<path d="M140.161 103.297H126.71V105.418H140.161V103.297Z" fill="#130C49"/>
<path d="M181.636 68.4785H157.402V70.6003H181.636V68.4785Z" fill="#130C49"/>
<path d="M170.854 74.2716H157.402V76.3934H170.854V74.2716Z" fill="#130C49"/>
<path d="M132.048 68.6907H126.752V89.7809H132.048V68.6907Z" fill="#61D384"/>
<path d="M141.496 68.6907H136.2V89.7809H141.496V68.6907Z" fill="#61D384"/>
<path d="M150.944 68.6907H145.648V89.7809H150.944V68.6907Z" fill="#61D384"/>
<rect y="0.655449" width="7.48002" height="7.48002" rx="0.463472" transform="matrix(0.707106 0.707108 -0.707106 0.707108 74.8228 76.3795)" fill="#61D384" stroke="#130C49" stroke-width="0.926943"/>
<rect y="0.655449" width="7.48002" height="7.48002" rx="0.463472" transform="matrix(0.707106 0.707108 -0.707106 0.707108 242.746 76.3795)" fill="#61D384" stroke="#130C49" stroke-width="0.926943"/>
<path d="M184.59 102.446V88.8003C184.59 88.6756 184.523 88.5612 184.419 88.4989L172.603 81.6762C172.493 81.6138 172.364 81.6138 172.254 81.6762L160.438 88.4989C160.329 88.5612 160.267 88.6756 160.267 88.8003V102.446C160.267 102.57 160.334 102.685 160.438 102.747L172.254 109.57C172.364 109.632 172.493 109.632 172.603 109.57L184.419 102.747C184.528 102.685 184.59 102.57 184.59 102.446Z" fill="#130C49"/>
<path d="M172.432 109.617C172.214 109.617 171.996 109.559 171.804 109.45L160.777 103.085C160.387 102.861 160.148 102.446 160.148 101.994V89.2576C160.148 88.8107 160.387 88.3898 160.777 88.1663L171.804 81.8009C172.193 81.5774 172.677 81.5774 173.061 81.8009L184.088 88.1663C184.477 88.3898 184.716 88.8055 184.716 89.2576V101.994C184.716 102.441 184.472 102.861 184.088 103.085L173.061 109.45C172.869 109.565 172.651 109.617 172.432 109.617ZM172.432 81.8788C172.256 81.8788 172.084 81.9256 171.928 82.0139L160.902 88.3794C160.59 88.5613 160.398 88.8938 160.398 89.2524V101.988C160.398 102.347 160.59 102.68 160.902 102.861L171.928 109.227C172.24 109.404 172.625 109.409 172.936 109.227L183.963 102.861C184.275 102.68 184.467 102.347 184.467 101.988V89.2524C184.467 88.8938 184.275 88.5613 183.963 88.3794L172.936 82.0139C172.781 81.9256 172.609 81.8788 172.432 81.8788Z" fill="#130C49"/>
<path d="M175.898 91.0452V95.3165L172.432 93.3107L168.966 95.3165V91.0452L164.851 93.4251V97.9458L168.748 100.201L172.432 98.0706L176.116 100.201L180.013 97.9458V93.4303L175.898 91.0452Z" fill="#61D384"/>
</svg>
