<svg width="376" height="162" viewBox="0 0 376 162" fill="none" xmlns="http://www.w3.org/2000/svg">
<rect x="101.138" y="44.9936" width="35.5149" height="35.5149" rx="6.20363" fill="#DDEBF2" stroke="#130C49" stroke-width="0.814642"/>
<rect x="0.407321" y="86.2772" width="35.5149" height="35.5149" rx="6.20363" fill="#DDEBF2" stroke="#130C49" stroke-width="0.814642"/>
<rect x="339.718" y="81.5219" width="35.5149" height="35.5149" rx="6.20363" fill="#DDEBF2" stroke="#130C49" stroke-width="0.814642"/>
<rect x="204.709" y="81.3958" width="35.5149" height="35.5149" rx="6.20363" fill="#DDEBF2" stroke="#130C49" stroke-width="0.814642"/>
<rect x="205.117" y="0.407321" width="35.5149" height="35.5149" rx="6.20363" fill="#DDEBF2" stroke="#130C49" stroke-width="0.814642"/>
<path d="M365.489 93.1105H349.689C349.32 93.1105 349.021 93.4097 349.021 93.7787V102.496C349.021 102.865 349.32 103.164 349.689 103.164H361.714L364.253 105.678V103.164H365.489C365.858 103.164 366.157 102.865 366.157 102.496V93.7787C366.157 93.4097 365.858 93.1105 365.489 93.1105Z" fill="#61D384" stroke="#130C49" stroke-width="0.814642"/>
<path d="M126.031 67.7627V60.9028C126.031 60.6522 125.898 60.4199 125.681 60.2946L119.739 56.8628C119.521 56.7375 119.252 56.7375 119.035 56.8628L113.096 60.2946C112.879 60.4199 112.746 60.6522 112.746 60.9028V67.7627C112.746 68.0134 112.879 68.2456 113.096 68.3709L119.038 71.8027C119.256 71.9281 119.525 71.9281 119.742 71.8027L125.684 68.3709C125.902 68.2456 126.035 68.0134 126.035 67.7627H126.031Z" fill="#130C49"/>
<path d="M120.697 66.0377C120.697 66.7602 120.111 67.3463 119.389 67.3463C118.666 67.3463 118.08 66.7602 118.08 66.0377" fill="#61D384"/>
<path d="M122.458 64.6559C122.92 64.6559 123.295 64.2813 123.295 63.8192C123.295 63.357 122.92 62.9824 122.458 62.9824C121.996 62.9824 121.621 63.357 121.621 63.8192C121.621 64.2813 121.996 64.6559 122.458 64.6559Z" fill="#61D384"/>
<path d="M116.318 64.6553C116.78 64.6553 117.155 64.2807 117.155 63.8186C117.155 63.3564 116.78 62.9818 116.318 62.9818C115.856 62.9818 115.481 63.3564 115.481 63.8186C115.481 64.2807 115.856 64.6553 116.318 64.6553Z" fill="#61D384"/>
<path d="M119.389 74.1174C119.204 74.1174 119.024 74.0694 118.862 73.9773L111.345 69.6387C111.021 69.4507 110.818 69.1005 110.818 68.7245V60.0473C110.818 59.6714 111.021 59.3212 111.345 59.1332L119.204 54.5955C119.319 54.5292 119.459 54.5292 119.573 54.5955L127.428 59.1332C127.753 59.3212 127.955 59.6714 127.955 60.0473V68.7245C127.955 69.1005 127.753 69.4507 127.428 69.6387L119.916 73.9773C119.754 74.0731 119.569 74.1174 119.389 74.1174ZM119.389 55.3438L111.714 59.7746C111.615 59.8299 111.556 59.9368 111.556 60.051V68.7282C111.556 68.8425 111.618 68.9494 111.714 69.0047L119.226 73.3433C119.326 73.3986 119.448 73.4022 119.547 73.3433L127.06 69.0047C127.159 68.9494 127.218 68.8425 127.218 68.7282V60.051C127.218 59.9368 127.155 59.8299 127.06 59.7746L119.389 55.3438Z" fill="#130C49"/>
<path d="M119.389 55.2444C119.186 55.2444 119.021 55.0785 119.021 54.8758V53.5525C119.021 53.3497 119.186 53.1838 119.389 53.1838C119.592 53.1838 119.758 53.3497 119.758 53.5525V54.8758C119.758 55.0785 119.592 55.2444 119.389 55.2444Z" fill="#130C49"/>
<path d="M119.389 53.2464C119.951 53.2464 120.407 52.7909 120.407 52.229C120.407 51.6672 119.951 51.2117 119.389 51.2117C118.828 51.2117 118.372 51.6672 118.372 52.229C118.372 52.7909 118.828 53.2464 119.389 53.2464Z" fill="#130C49"/>
<path d="M119.389 53.6115C118.626 53.6115 118.003 52.9885 118.003 52.2255C118.003 51.4624 118.626 50.8395 119.389 50.8395C120.152 50.8395 120.775 51.4624 120.775 52.2255C120.775 52.9885 120.152 53.6115 119.389 53.6115ZM119.389 51.5804C119.031 51.5804 118.74 51.8716 118.74 52.2292C118.74 52.5867 119.031 52.8779 119.389 52.8779C119.746 52.8779 120.038 52.5867 120.038 52.2292C120.038 51.8716 119.746 51.5804 119.389 51.5804Z" fill="#130C49"/>
<path d="M17.958 93.5177C20.6045 93.5177 22.75 95.6632 22.75 98.3097C22.75 100.956 20.6045 103.102 17.958 103.102C15.3115 103.102 13.166 100.956 13.166 98.3097C13.166 95.6632 15.3115 93.5177 17.958 93.5177Z" fill="#61D384" stroke="#130C49" stroke-width="0.814642"/>
<mask id="path-16-inside-1_13652_4394" fill="white">
<path d="M9.71094 112.532C9.71094 107.893 13.4741 104.129 18.1139 104.129C22.7537 104.129 26.5169 107.893 26.5169 112.532"/>
</mask>
<path d="M9.71094 112.532C9.71094 107.893 13.4741 104.129 18.1139 104.129C22.7537 104.129 26.5169 107.893 26.5169 112.532" fill="#61D384"/>
<path d="M9.71094 112.532V112.94H26.5169V112.532V112.125H9.71094V112.532ZM9.71094 112.532H10.5256C10.5256 108.342 13.924 104.944 18.1139 104.944V104.129V103.315C13.0242 103.315 8.8963 107.443 8.8963 112.532H9.71094ZM18.1139 104.129V104.944C22.3038 104.944 25.7022 108.342 25.7022 112.532H26.5169H27.3315C27.3315 107.443 23.2036 103.315 18.1139 103.315V104.129Z" fill="#130C49" mask="url(#path-16-inside-1_13652_4394)"/>
<rect x="150.647" y="126.084" width="35.5032" height="35.5032" rx="6.19777" fill="#130C49" stroke="#130C49" stroke-width="0.826369"/>
<path d="M36.3301 102.384H69.3569" stroke="#130C49" stroke-width="0.826369"/>
<path d="M306.751 99.3939H339.778" stroke="#130C49" stroke-width="0.826369"/>
<path d="M137.061 62.751L168.436 62.751" stroke="#130C49" stroke-width="0.826369"/>
<path d="M100.731 62.751H75.965C73.2267 62.751 71.0068 64.9708 71.0068 67.7092V138.709C71.0068 141.447 73.2267 143.667 75.9651 143.667H150.271" stroke="#130C49" stroke-width="0.826369"/>
<path d="M204.768 18.1647H175.048C172.31 18.1647 170.09 20.3845 170.09 23.1229V94.1222C170.09 96.8606 172.31 99.0805 175.048 99.0805H204.768" stroke="#130C49" stroke-width="0.826369"/>
<path d="M240.488 18.2794H265.804C268.543 18.2794 270.763 20.4993 270.763 23.2376V93.8646C270.763 96.6029 268.543 98.8228 265.804 98.8228H240.488" stroke="#130C49" stroke-width="0.826369"/>
<path d="M271.491 62.751H297.237C299.975 62.751 302.195 64.9708 302.195 67.7092V138.709C302.195 141.447 299.975 143.667 297.237 143.667H186.601" stroke="#130C49" stroke-width="0.826369"/>
<rect x="71.1621" y="98.0135" width="6.39797" height="6.39797" rx="0.413185" transform="rotate(45 71.1621 98.0135)" fill="#61D384" stroke="#130C49" stroke-width="0.826369"/>
<rect x="170.242" y="58.3815" width="6.39797" height="6.39797" rx="0.413185" transform="rotate(45 170.242 58.3815)" fill="#61D384" stroke="#130C49" stroke-width="0.826369"/>
<rect x="270.976" y="58.3815" width="6.39797" height="6.39797" rx="0.413185" transform="rotate(45 270.976 58.3815)" fill="#61D384" stroke="#130C49" stroke-width="0.826369"/>
<rect x="302.35" y="94.7112" width="6.39797" height="6.39797" rx="0.413185" transform="rotate(45 302.35 94.7112)" fill="#61D384" stroke="#130C49" stroke-width="0.826369"/>
<path d="M172.792 137.666V143.251L168.234 140.63L163.662 143.251V137.666L158.23 140.786V146.699L163.376 149.662L168.234 146.87L173.078 149.662L178.223 146.699V140.786L172.792 137.666Z" fill="#61D384"/>
<path d="M224.83 23.5631C227.447 23.5631 229.568 21.4421 229.568 18.8257C229.568 16.2093 227.447 14.0883 224.83 14.0883C222.214 14.0883 220.093 16.2093 220.093 18.8257C220.093 21.4421 222.214 23.5631 224.83 23.5631Z" fill="#130C49"/>
<path d="M224.836 24.0865C223.28 24.0865 221.739 23.4036 220.702 22.0909C219.829 20.9899 219.437 19.6084 219.601 18.211C219.765 16.8136 220.459 15.5644 221.565 14.691C222.666 13.8177 224.047 13.426 225.439 13.59C226.837 13.7541 228.086 14.4475 228.959 15.5538C229.833 16.6548 230.224 18.0363 230.06 19.4337C229.896 20.8311 229.203 22.0803 228.097 22.9537C227.133 23.7159 225.979 24.0865 224.836 24.0865ZM224.825 14.6169C223.883 14.6169 222.973 14.9292 222.221 15.5274C221.337 16.2261 220.781 17.2212 220.654 18.338C220.522 19.4549 220.834 20.5559 221.533 21.4346C222.973 23.2554 225.625 23.5624 227.446 22.1227C228.33 21.424 228.885 20.4289 229.012 19.312C229.139 18.1951 228.832 17.0941 228.134 16.2155C227.435 15.3368 226.44 14.7757 225.323 14.6487C225.159 14.6275 224.995 14.6222 224.825 14.6222V14.6169Z" fill="#130C49"/>
<path d="M226.993 11.4475L226.024 14.1088L227.019 14.4707L227.987 11.8094L226.993 11.4475Z" fill="#130C49"/>
<path d="M220.191 19.0416L217.381 19.3901L217.511 20.4407L220.321 20.0922L220.191 19.0416Z" fill="#130C49"/>
<path d="M228.131 22.278L227.306 22.9412L229.08 25.1484L229.905 24.4852L228.131 22.278Z" fill="#130C49"/>
<path d="M230.886 28.8359C232.099 28.8359 233.083 27.8524 233.083 26.6392C233.083 25.426 232.099 24.4425 230.886 24.4425C229.673 24.4425 228.689 25.426 228.689 26.6392C228.689 27.8524 229.673 28.8359 230.886 28.8359Z" fill="#61D384"/>
<path d="M230.891 29.3647C230.785 29.3647 230.68 29.3594 230.568 29.3435C229.843 29.2588 229.197 28.8989 228.748 28.3272C228.298 27.7555 228.091 27.0409 228.176 26.3211C228.261 25.5959 228.62 24.9501 229.192 24.5002C229.764 24.0503 230.478 23.8438 231.198 23.9285C231.923 24.0132 232.569 24.3732 233.019 24.9448C233.951 26.1252 233.75 27.8402 232.575 28.7771C232.088 29.1635 231.5 29.3647 230.886 29.3647H230.891ZM230.881 24.9713C230.505 24.9713 230.145 25.0983 229.849 25.3312C229.499 25.6065 229.277 26.0035 229.229 26.4481C229.182 26.8927 229.303 27.3268 229.579 27.6761C230.15 28.396 231.198 28.5177 231.923 27.9514C232.643 27.3797 232.765 26.3317 232.199 25.6065C231.923 25.2571 231.526 25.0348 231.082 24.9819C231.018 24.9766 230.949 24.9713 230.886 24.9713H230.881Z" fill="#130C49"/>
<path d="M228.32 11.8445C229.533 11.8445 230.516 10.861 230.516 9.64785C230.516 8.43466 229.533 7.45117 228.32 7.45117C227.107 7.45117 226.123 8.43466 226.123 9.64785C226.123 10.861 227.107 11.8445 228.32 11.8445Z" fill="#61D384"/>
<path d="M228.325 12.3733C228.219 12.3733 228.113 12.368 228.002 12.3522C227.277 12.2675 226.631 11.9075 226.181 11.3359C225.731 10.7642 225.525 10.0496 225.609 9.32973C225.694 8.60456 226.054 7.95879 226.626 7.50887C227.197 7.05895 227.912 6.85252 228.632 6.93721C229.357 7.0219 230.003 7.38184 230.453 7.9535C230.903 8.52517 231.109 9.23975 231.024 9.95962C230.94 10.6848 230.58 11.3306 230.008 11.7805C229.521 12.1669 228.934 12.368 228.32 12.368L228.325 12.3733ZM228.314 7.97997C227.938 7.97997 227.579 8.107 227.282 8.3399C226.933 8.61515 226.71 9.01214 226.663 9.45677C226.61 9.9014 226.737 10.3354 227.012 10.6848C227.287 11.0341 227.684 11.2565 228.129 11.3094C228.574 11.3623 229.008 11.2353 229.357 10.96C229.706 10.6848 229.929 10.2878 229.976 9.84317C230.029 9.39854 229.902 8.9645 229.627 8.61515C229.352 8.2658 228.955 8.04349 228.51 7.99055C228.447 7.98526 228.378 7.97997 228.314 7.97997Z" fill="#130C49"/>
<path d="M215.171 22.4412C216.384 22.4412 217.368 21.4577 217.368 20.2445C217.368 19.0313 216.384 18.0479 215.171 18.0479C213.958 18.0479 212.975 19.0313 212.975 20.2445C212.975 21.4577 213.958 22.4412 215.171 22.4412Z" fill="#61D384"/>
<path d="M215.175 22.9713C214.371 22.9713 213.572 22.6167 213.032 21.9391C212.582 21.3675 212.375 20.6529 212.46 19.933C212.545 19.2078 212.905 18.5621 213.476 18.1121C214.048 17.6622 214.757 17.4558 215.482 17.5405C216.208 17.6252 216.853 17.9851 217.303 18.5568C218.235 19.7372 218.034 21.4522 216.859 22.3891C216.361 22.786 215.763 22.9766 215.17 22.9766L215.175 22.9713ZM215.17 18.5779C214.81 18.5779 214.445 18.6944 214.138 18.9379C213.789 19.2131 213.566 19.6101 213.519 20.0547C213.471 20.4994 213.593 20.9334 213.868 21.2828C214.44 22.0026 215.488 22.1244 216.213 21.558C216.933 20.9864 217.055 19.9383 216.488 19.2131C216.16 18.795 215.673 18.5832 215.175 18.5832L215.17 18.5779Z" fill="#130C49"/>
<path d="M217.528 105.256C214.277 105.256 211.628 102.607 211.628 99.3558C211.628 96.7768 213.343 94.4817 215.778 93.7225C215.789 90.9638 218.038 88.7209 220.802 88.7209C222.564 88.7209 224.164 89.6251 225.079 91.1145C225.537 91.0218 226.007 90.9754 226.476 90.9754C230.406 90.9754 233.605 94.1746 233.605 98.104C233.605 102.033 230.406 105.233 226.476 105.233C225.526 105.233 223.654 105.232 221.828 105.244C220.078 105.244 218.368 105.256 217.534 105.256H217.528ZM220.797 89.8801C218.664 89.8801 216.931 91.6129 216.931 93.7457C216.931 93.8674 216.937 93.9891 216.948 94.1108L216.995 94.6208L216.496 94.7309C214.346 95.2062 212.781 97.1535 212.781 99.3616C212.781 101.975 214.908 104.102 217.522 104.102C218.357 104.102 220.066 104.102 221.811 104.091C223.636 104.091 225.508 104.079 226.459 104.079C229.751 104.079 232.428 101.402 232.428 98.1098C232.428 94.8179 229.751 92.1403 226.459 92.1403C225.937 92.1403 225.421 92.2099 224.917 92.3432L224.459 92.4649L224.251 92.0418C223.596 90.7146 222.269 89.8859 220.791 89.8859L220.797 89.8801Z" fill="#130C49"/>
<path d="M228.534 98.9265H218.56V108.901H228.534V98.9265Z" fill="#61D384"/>
<path d="M229.113 109.48H217.979V98.347H229.113V109.48ZM219.139 108.321H227.954V99.5062H219.139V108.321Z" fill="#130C49"/>
</svg>
