<svg width="82" height="82" viewBox="0 0 82 82" fill="none" xmlns="http://www.w3.org/2000/svg">
<rect width="81.9178" height="81.9178" rx="18.4085" fill="#130C49"/>
<path d="M35.136 23H25.0227C23.9056 23 23 23.9056 23 25.0227V39.1813C23 40.2984 23.9056 41.2039 25.0227 41.2039H35.136C36.2531 41.2039 37.1586 40.2984 37.1586 39.1813V25.0227C37.1586 23.9056 36.2531 23 35.136 23Z" fill="#130C49"/>
<path d="M57.3852 23H47.2719C46.1548 23 45.2493 23.9056 45.2493 25.0227V31.0906C45.2493 32.2077 46.1548 33.1133 47.2719 33.1133H57.3852C58.5023 33.1133 59.4079 32.2077 59.4079 31.0906V25.0227C59.4079 23.9056 58.5023 23 57.3852 23Z" fill="#130C49"/>
<path d="M57.3852 41.2039H47.2719C46.1548 41.2039 45.2493 42.1095 45.2493 43.2266V57.3852C45.2493 58.5023 46.1548 59.4079 47.2719 59.4079H57.3852C58.5023 59.4079 59.4079 58.5023 59.4079 57.3852V43.2266C59.4079 42.1095 58.5023 41.2039 57.3852 41.2039Z" fill="#130C49"/>
<path d="M35.136 49.2946H25.0227C23.9056 49.2946 23 50.2002 23 51.3173V57.3852C23 58.5023 23.9056 59.4079 25.0227 59.4079H35.136C36.2531 59.4079 37.1586 58.5023 37.1586 57.3852V51.3173C37.1586 50.2002 36.2531 49.2946 35.136 49.2946Z" fill="#130C49"/>
<path d="M35.136 23H25.0227C23.9056 23 23 23.9056 23 25.0227V39.1813C23 40.2984 23.9056 41.2039 25.0227 41.2039H35.136C36.2531 41.2039 37.1586 40.2984 37.1586 39.1813V25.0227C37.1586 23.9056 36.2531 23 35.136 23Z" stroke="url(#paint0_linear_13629_3870)" stroke-width="3" stroke-linecap="round" stroke-linejoin="round"/>
<path d="M57.3852 23H47.2719C46.1548 23 45.2493 23.9056 45.2493 25.0227V31.0906C45.2493 32.2077 46.1548 33.1133 47.2719 33.1133H57.3852C58.5023 33.1133 59.4079 32.2077 59.4079 31.0906V25.0227C59.4079 23.9056 58.5023 23 57.3852 23Z" stroke="url(#paint1_linear_13629_3870)" stroke-width="3" stroke-linecap="round" stroke-linejoin="round"/>
<path d="M57.3852 41.2039H47.2719C46.1548 41.2039 45.2493 42.1095 45.2493 43.2266V57.3852C45.2493 58.5023 46.1548 59.4079 47.2719 59.4079H57.3852C58.5023 59.4079 59.4079 58.5023 59.4079 57.3852V43.2266C59.4079 42.1095 58.5023 41.2039 57.3852 41.2039Z" stroke="url(#paint2_linear_13629_3870)" stroke-width="3" stroke-linecap="round" stroke-linejoin="round"/>
<path d="M35.136 49.2946H25.0227C23.9056 49.2946 23 50.2002 23 51.3173V57.3852C23 58.5023 23.9056 59.4079 25.0227 59.4079H35.136C36.2531 59.4079 37.1586 58.5023 37.1586 57.3852V51.3173C37.1586 50.2002 36.2531 49.2946 35.136 49.2946Z" stroke="url(#paint3_linear_13629_3870)" stroke-width="3" stroke-linecap="round" stroke-linejoin="round"/>
<defs>
<linearGradient id="paint0_linear_13629_3870" x1="29.8384" y1="23" x2="58.2752" y2="56.6026" gradientUnits="userSpaceOnUse">
<stop stop-color="#75FBAE"/>
<stop offset="1" stop-color="#B6F874"/>
</linearGradient>
<linearGradient id="paint1_linear_13629_3870" x1="29.8384" y1="23" x2="58.2752" y2="56.6026" gradientUnits="userSpaceOnUse">
<stop stop-color="#75FBAE"/>
<stop offset="1" stop-color="#B6F874"/>
</linearGradient>
<linearGradient id="paint2_linear_13629_3870" x1="29.8384" y1="23" x2="58.2752" y2="56.6026" gradientUnits="userSpaceOnUse">
<stop stop-color="#75FBAE"/>
<stop offset="1" stop-color="#B6F874"/>
</linearGradient>
<linearGradient id="paint3_linear_13629_3870" x1="29.8384" y1="23" x2="58.2752" y2="56.6026" gradientUnits="userSpaceOnUse">
<stop stop-color="#75FBAE"/>
<stop offset="1" stop-color="#B6F874"/>
</linearGradient>
</defs>
</svg>
