<svg width="82" height="82" viewBox="0 0 82 82" fill="none" xmlns="http://www.w3.org/2000/svg">
<rect width="81.9178" height="81.9178" rx="18.4085" fill="#130C49"/>
<path d="M32.25 26.0689L40.5 30.8602L48.75 26.0689M32.25 54.78V45.2158L24 40.4245M57 40.4245L48.75 45.2158V54.78M24.495 31.1367L40.5 40.4428L56.505 31.1367M40.5 59V40.4245M57 47.7955V33.0531C56.9993 32.4068 56.8296 31.772 56.5078 31.2124C56.186 30.6528 55.7235 30.1882 55.1667 29.865L42.3333 22.4938C41.7759 22.1703 41.1436 22 40.5 22C39.8564 22 39.2241 22.1703 38.6667 22.4938L25.8333 29.865C25.2765 30.1882 24.814 30.6528 24.4922 31.2124C24.1704 31.772 24.0007 32.4068 24 33.0531V47.7955C24.0007 48.4419 24.1704 49.0766 24.4922 49.6362C24.814 50.1958 25.2765 50.6604 25.8333 50.9836L38.6667 58.3548C39.2241 58.6783 39.8564 58.8486 40.5 58.8486C41.1436 58.8486 41.7759 58.6783 42.3333 58.3548L55.1667 50.9836C55.7235 50.6604 56.186 50.1958 56.5078 49.6362C56.8296 49.0766 56.9993 48.4419 57 47.7955Z" stroke="url(#paint0_linear_13657_4806)" stroke-width="3" stroke-linecap="round" stroke-linejoin="round"/>
<defs>
<linearGradient id="paint0_linear_13657_4806" x1="30.1983" y1="22" x2="59.4607" y2="52.8401" gradientUnits="userSpaceOnUse">
<stop stop-color="#75FBAE"/>
<stop offset="1" stop-color="#B6F874"/>
</linearGradient>
</defs>
</svg>
