<svg width="63" height="63" viewBox="0 0 63 63" fill="none" xmlns="http://www.w3.org/2000/svg">
<rect x="0.776855" y="0.952637" width="61.7976" height="61.7976" rx="9.75" fill="#61D384" stroke="#B9C8DE" stroke-width="0.5"/>
<path d="M20.3488 21.4926C20.4104 21.4597 20.46 21.4722 20.5076 21.4722C22.7948 21.4716 25.082 21.4722 27.3698 21.4696C27.4784 21.4696 27.5474 21.4998 27.6144 21.5872C29.2141 23.6662 30.8171 25.7426 32.42 27.8196C32.4768 27.8927 32.538 27.8927 32.6037 27.8196C34.4425 25.7596 36.2821 23.701 38.1169 21.6384C38.2235 21.5188 38.3267 21.4676 38.4915 21.4683C39.5142 21.4762 40.5368 21.4722 41.5588 21.4729C41.607 21.4729 41.6566 21.4624 41.7095 21.486C41.6948 21.5399 41.6506 21.5721 41.6171 21.6095C39.1677 24.3539 36.7177 27.0984 34.2683 29.8428C34.2442 29.8704 34.2227 29.9006 34.1946 29.9242C34.1215 29.986 34.1249 30.0385 34.1852 30.1154C34.5611 30.5936 34.9304 31.0764 35.3023 31.5579C37.8636 34.8764 40.4256 38.1956 42.9868 41.5142C43.0043 41.5365 43.021 41.5595 43.0384 41.5818C43.0713 41.6239 43.0632 41.6469 43.0069 41.6475C42.9781 41.6475 42.9493 41.6475 42.9205 41.6475C40.6862 41.6475 38.4527 41.6469 36.2184 41.6502C36.1112 41.6502 36.0482 41.6147 35.9852 41.5332C34.2113 39.2552 32.4348 36.9798 30.6589 34.703C30.5959 34.6224 30.5298 34.6211 30.4605 34.6991C28.4186 36.9857 26.376 39.2716 24.3354 41.5595C24.2791 41.6226 24.2215 41.6495 24.1357 41.6488C23.0722 41.6462 22.0087 41.6475 20.9452 41.6462C20.9036 41.6462 20.8433 41.6725 20.8239 41.6232C20.8098 41.5871 20.8628 41.5582 20.8889 41.5286C23.5272 38.572 26.1669 35.6154 28.806 32.6595C28.822 32.6411 28.8361 32.6207 28.8549 32.6056C28.9346 32.5406 28.9279 32.4847 28.8643 32.404C28.1103 31.4436 27.3611 30.4806 26.6106 29.5183C24.5526 26.8816 22.4946 24.2442 20.4359 21.6069C20.4091 21.5721 20.3823 21.5366 20.3488 21.4926ZM25.4546 23.3962C25.1671 23.3962 24.8796 23.3949 24.5921 23.3975C24.5331 23.3975 24.45 23.3653 24.4212 23.4225C24.3971 23.4711 24.4695 23.5171 24.5036 23.5604C27.6339 27.572 30.7655 31.5829 33.8964 35.5937C34.917 36.9009 35.9363 38.2088 36.9556 39.5166C36.9984 39.5718 37.0366 39.6191 37.1218 39.6184C37.7008 39.6145 38.2798 39.6165 38.8588 39.6158C38.8896 39.6158 38.9298 39.6296 38.9472 39.5928C38.9646 39.558 38.9298 39.5343 38.9124 39.5087C38.899 39.4884 38.8829 39.47 38.8681 39.4509C36.8738 36.8674 34.8795 34.2846 32.8851 31.7011C30.7748 28.9665 28.6652 26.2319 26.557 23.496C26.502 23.4244 26.4464 23.3923 26.3532 23.3942C26.0537 23.4001 25.7535 23.3962 25.4539 23.3962H25.4546Z" fill="#130C49"/>
</svg>
