<svg width="63" height="63" viewBox="0 0 63 63" fill="none" xmlns="http://www.w3.org/2000/svg">
<rect x="0.425659" y="0.952637" width="61.7976" height="61.7976" rx="9.75" fill="#61D384" stroke="#B9C8DE" stroke-width="0.5"/>
<path d="M24.6972 34.6744C24.6972 35.9692 23.6407 37.0268 22.3474 37.0268C21.0542 37.0268 19.9977 35.9692 19.9977 34.6744C19.9977 33.3797 21.0542 32.322 22.3474 32.322H24.6972V34.6744Z" fill="#130C49"/>
<path d="M25.8821 34.6744C25.8821 33.3797 26.9386 32.322 28.2318 32.322C29.5251 32.322 30.5816 33.3797 30.5816 34.6744V40.5645C30.5816 41.8593 29.5251 42.9169 28.2318 42.9169C26.9386 42.9169 25.8821 41.8593 25.8821 40.5645V34.6744Z" fill="#130C49"/>
<path d="M28.2317 25.2297C26.9384 25.2297 25.882 24.172 25.882 22.8773C25.882 21.5826 26.9384 20.5249 28.2317 20.5249C29.525 20.5249 30.5815 21.5826 30.5815 22.8773V25.2297H28.2317Z" fill="#130C49"/>
<path d="M28.231 26.415C29.5242 26.415 30.5807 27.4727 30.5807 28.7674C30.5807 30.0622 29.5242 31.1198 28.231 31.1198H22.3474C21.0542 31.1198 19.9977 30.0622 19.9977 28.7674C19.9977 27.4727 21.0542 26.415 22.3474 26.415H28.231Z" fill="#130C49"/>
<path d="M37.6671 28.7677C37.6671 27.473 38.7236 26.4153 40.0169 26.4153C41.3102 26.4153 42.3666 27.473 42.3666 28.7677C42.3666 30.0624 41.3102 31.1201 40.0169 31.1201H37.6671V28.7677Z" fill="#130C49"/>
<path d="M36.4822 28.7674C36.4822 30.0622 35.4258 31.1198 34.1325 31.1198C32.8392 31.1198 31.7827 30.0622 31.7827 28.7674V22.8773C31.7827 21.5826 32.8392 20.5249 34.1325 20.5249C35.4258 20.5249 36.4822 21.5826 36.4822 22.8773V28.7674Z" fill="#130C49"/>
<path d="M34.1325 38.2122C35.4258 38.2122 36.4822 39.2698 36.4822 40.5646C36.4822 41.8593 35.4258 42.917 34.1325 42.917C32.8392 42.917 31.7827 41.8593 31.7827 40.5646V38.2122H34.1325Z" fill="#130C49"/>
<path d="M34.1325 37.0266C32.8392 37.0266 31.7827 35.9689 31.7827 34.6742C31.7827 33.3794 32.8392 32.3218 34.1325 32.3218H40.016C41.3093 32.3218 42.3657 33.3794 42.3657 34.6742C42.3657 35.9689 41.3093 37.0266 40.016 37.0266H34.1325Z" fill="#130C49"/>
</svg>
