<svg width="61" height="12" viewBox="0 0 61 12" fill="none" xmlns="http://www.w3.org/2000/svg">
<path d="M60.3334 0.964018V1.52671C60.2298 1.84456 60.0918 2.08577 59.7948 2.25801C59.7478 2.28544 59.4881 2.41129 59.4634 2.41129H56.8534V10.6314C56.8534 10.6714 56.7434 10.9578 56.7138 11.0154C56.3201 11.7834 55.1571 11.8141 54.7169 11.0655C54.6736 10.9916 54.5469 10.7375 54.5469 10.6714V2.41088H45.7661V9.164H50.0756C50.3232 9.164 50.7137 9.43385 50.8659 9.62504C51.3875 10.2817 51.0407 11.2038 50.2601 11.4374L44.4105 11.4551C43.9015 11.3668 43.5045 10.942 43.458 10.4318V1.22378C43.5134 0.58889 43.9331 0.173022 44.5712 0.118164H59.2222C59.7794 0.161727 60.1327 0.45941 60.3334 0.963614V0.964018Z" fill="#00B7E2"/>
<path d="M12.2618 0C12.5527 0.0980174 12.7854 0.233951 12.9578 0.494524L17.5934 9.95824C18.134 11.1683 16.6405 12.1812 15.7001 11.2361L12.0182 3.77871C11.913 3.75975 11.9559 3.79363 11.9344 3.83558C10.6938 6.25214 9.60813 8.75581 8.33592 11.1538C7.57599 12.0876 6.10065 11.4438 6.29124 10.2483C6.34506 9.91105 6.7578 9.18217 6.92613 8.82882C8.26592 6.02343 9.68825 3.25434 11.0398 0.454187C11.2154 0.189178 11.4128 0.114555 11.6953 0L12.2618 0Z" fill="#00B7E2"/>
<path d="M0 1.0039C0.167523 0.497274 0.534942 0.180634 1.07717 0.124566C2.81877 0.206852 4.68863 -0.00168683 6.41566 0.117709C7.25247 0.175793 7.90355 0.852637 7.55717 1.69768C7.44913 1.96148 6.99431 2.41083 6.69689 2.41083H2.30648V10.5108C2.30648 10.8585 2.0034 11.3074 1.69466 11.4708C0.982885 11.8471 0.24643 11.4409 0 10.7318V1.0039Z" fill="#00B7E2"/>
<path d="M30.7523 2.4118V10.7126C30.7523 10.7348 30.6341 11.0067 30.6083 11.0518C30.2064 11.7529 29.1722 11.7952 28.6959 11.1478C28.2787 10.5811 28.483 9.6074 28.4887 8.94588C28.5069 6.76812 28.4709 4.58915 28.4867 2.4118H22.5991C21.6077 2.4118 20.4601 3.24797 19.9822 4.07325C18.6356 6.39824 20.3185 9.03825 22.9232 9.20484C23.6576 9.25163 24.6943 9.09594 25.3729 9.2234C26.4821 9.43194 26.4999 11.2269 25.3325 11.4379C24.7692 11.5395 23.2587 11.4939 22.6375 11.458C20.2886 11.3225 18.1848 9.56989 17.5503 7.34655C16.5282 3.76468 19.1098 0.332456 22.8014 0.121094H33.1591C34.3083 0.162237 34.7053 1.70188 33.7034 2.2686C33.6581 2.29442 33.3845 2.4118 33.3619 2.4118H30.7519H30.7523Z" fill="#00B7E2"/>
<path d="M37.0175 0.172656C38.257 0.0334958 39.7068 0.250505 40.9685 0.164992C42.269 0.417498 42.2019 2.29838 40.852 2.41415C39.7157 2.51176 38.4431 2.3363 37.2923 2.41536C36.7323 2.54806 36.5077 3.22209 37.0074 3.57785C38.4168 4.71413 40.3033 5.63622 41.6588 6.79589C43.3927 8.27906 42.0922 11.2869 39.8812 11.4592C38.4265 11.5725 36.8217 11.3745 35.3512 11.4543C33.9418 10.9949 34.1814 9.27899 35.7101 9.16484C36.9192 9.07489 38.2723 9.26488 39.4648 9.19671C40.0111 9.16565 40.1896 8.50736 39.8153 8.14514L35.0647 4.90532C33.5833 3.23741 34.8583 0.415481 37.0179 0.173463L37.0175 0.172656Z" fill="#00B7E2"/>
<path d="M47.2526 4.51341C47.8822 4.43798 49.1872 4.45048 49.8326 4.5009C51.2355 4.61021 51.123 6.37291 49.9884 6.50764C49.3636 6.58186 47.8777 6.57177 47.2396 6.51369C46.0621 6.4068 45.9545 4.6687 47.2526 4.51341Z" fill="#00B7E2"/>
<path d="M3.83399 4.51402C4.47009 4.44545 5.64559 4.45271 6.29181 4.50071C7.76675 4.60962 7.61298 6.36788 6.52974 6.50866C5.92723 6.58691 4.36327 6.56997 3.7393 6.5139C2.58404 6.40943 2.41935 4.66609 3.83399 4.51402Z" fill="#00B7E2"/>
<path d="M11.0757 7.64712C11.4205 7.59307 12.4475 7.59872 12.806 7.63704C13.7435 7.73748 14.0616 9.04034 13.177 9.49372C12.7388 9.71839 11.2068 9.72606 10.7738 9.49453C9.9609 9.06011 10.1887 7.78588 11.0753 7.64712H11.0757Z" fill="#00B7E2"/>
</svg>
