<svg width="75" height="18" viewBox="0 0 75 18" fill="none" xmlns="http://www.w3.org/2000/svg">
<path d="M27.7144 7.7231C26.2242 7.36447 25.01 7.10175 25.01 5.85243C25.01 4.88529 25.7558 4.37097 27.2122 4.37097C28.8963 4.37097 29.6903 5.10457 29.8846 6.44668H31.7306C31.5541 4.20138 29.838 2.9055 27.1993 2.9055C24.7038 2.9055 23.1508 4.01233 23.1508 5.94869C23.1508 8.06749 25.1431 8.62977 26.9571 9.09718C29.0599 9.61324 30.1939 9.8148 30.1939 11.2341C30.1939 12.2478 29.6278 13.0276 27.7654 13.0276C25.5969 13.0276 24.675 12.0139 24.545 10.5164H22.6987C22.8286 13.0276 24.9137 14.4899 27.812 14.4899C30.7103 14.4899 32.0545 13.0582 32.0545 11.1378C32.0545 8.78164 29.9485 8.26766 27.7157 7.7231H27.7144ZM34.9528 12.075V7.5841H36.5392V6.32192H34.9528V3.76421H33.3667V6.3254H32.1685V7.58722H33.3667V12.0319L33.3632 12.0285C33.3632 13.8689 34.1879 14.3669 35.5494 14.3669C35.8897 14.3669 36.1479 14.3509 36.5534 14.2738V13.0408C36.281 13.087 36.151 13.1033 35.8751 13.1033C35.1967 13.1033 34.9528 12.9174 34.9528 12.0733V12.075ZM44.0486 12.467V8.81534C44.0486 6.7591 42.6884 6.07206 40.9884 6.07206C38.4637 6.07206 37.4243 7.27446 37.3457 8.80283H38.9659C39.0493 7.73944 39.4854 7.30504 40.9258 7.30504C42.1401 7.30504 42.4959 7.78739 42.4959 8.36531C42.4959 9.14548 41.7005 9.30256 40.4063 9.5347C38.3501 9.90932 36.9593 10.441 36.9593 12.2189H36.9562C36.9562 13.5739 38.0116 14.4948 39.6602 14.4948C41.0044 14.4948 41.9427 13.9791 42.4785 13.1527H42.5123C42.6082 14.059 43.0318 14.3554 43.8224 14.3554C44.0792 14.3554 44.3551 14.3249 44.6311 14.2627V13.3257C44.5348 13.3417 44.4882 13.3417 44.4385 13.3417C44.1289 13.3417 44.0486 13.0453 44.0486 12.467ZM42.4914 11.1746C42.4914 12.5633 41.4405 13.2646 40.0164 13.2646H40.0133C39.0284 13.2646 38.6065 12.8594 38.6065 12.1115C38.6065 11.2851 39.2223 10.8928 40.6788 10.6141C41.5208 10.441 42.2329 10.2683 42.4914 10.0358V11.1746ZM49.032 7.34674C50.5399 7.34674 51.0257 8.37643 51.1046 9.20456H52.7421C52.5495 7.41069 51.1414 6.08457 49.0195 6.08457C46.5733 6.08457 44.9709 7.80129 44.9709 10.2968L44.9741 10.2937C44.9741 12.7923 46.5751 14.5059 49.0369 14.5059C51.1557 14.5059 52.6298 13.1478 52.7438 11.3234H51.106C51.0257 12.23 50.5541 13.2277 49.0337 13.2277C47.2711 13.2277 46.6213 11.7897 46.6213 10.2937C46.6213 8.79762 47.2694 7.34674 49.0337 7.34674H49.032ZM60.5434 6.32296H58.7134L55.1045 9.69282V3.12478H53.5167V14.2797H55.1045V11.3168L56.301 10.2099L59.0071 14.2797H60.8837L57.3692 9.24105L60.5434 6.32296ZM65.8236 3.12478L61.5186 14.2766H63.3952L64.3498 11.5923H69.1903L70.1446 14.2766H72.0869L67.7485 3.12478H65.8222H65.8236ZM64.8853 10.1446L66.7619 4.7164H66.7956L68.6882 10.1446H64.8853ZM74.7158 3.12478H72.9355V14.2766H74.7158V3.12478ZM16.5077 9.17155L13.0687 7.11009C13.0295 7.0865 12.9971 7.05317 12.9746 7.01334C12.9521 6.97351 12.9404 6.92854 12.9404 6.88281V2.86901C12.9404 2.5903 12.7945 2.33105 12.554 2.18857L9.23209 0.198698C9.01436 0.0686617 8.76548 0 8.51187 0C8.25826 0 8.00938 0.0686617 7.79164 0.198698L4.47009 2.18996C4.35255 2.26051 4.25521 2.36022 4.18751 2.47943C4.11981 2.59864 4.08403 2.73331 4.08365 2.8704V6.88698C4.08345 6.93275 4.07152 6.97769 4.04901 7.01754C4.0265 7.05739 3.99416 7.0908 3.95507 7.1146L0.51467 9.1712C0.357706 9.26524 0.22779 9.39836 0.137591 9.55756C0.0473911 9.71676 -1.31269e-05 9.89663 2.72665e-09 10.0796V13.9603C2.72665e-09 14.4934 0.266197 14.9869 0.696073 15.2461L3.87827 17.178C4.21675 17.383 4.64003 17.383 4.97851 17.178L8.39007 15.1245C8.43122 15.1004 8.47813 15.0878 8.52584 15.0881C8.57354 15.0884 8.62028 15.1016 8.66113 15.1262L12.1804 17.261C12.3049 17.3365 12.4477 17.3765 12.5933 17.3765C12.7389 17.3765 12.8816 17.3365 13.0061 17.261L16.3263 15.2461C16.7562 14.9855 17.0223 14.4934 17.0223 13.9603V10.0796C17.0223 9.70776 16.8267 9.36372 16.5077 9.17155ZM8.14159 13.9603C8.14159 14.2453 8.00537 14.5049 7.7906 14.6359L5.11334 16.2602C4.89371 16.3929 4.6303 16.2073 4.6303 15.9189V12.7544C4.6303 12.4695 4.76687 12.2099 4.98163 12.0785L7.65889 10.4546C7.87852 10.3218 8.14159 10.5074 8.14159 10.7958V13.9607V13.9603ZM12.2249 6.90192C12.2249 7.18689 12.0887 7.44648 11.8739 7.57784L9.197 9.20178C8.97702 9.33488 8.71395 9.14896 8.71395 8.86052V5.69639C8.71395 5.41143 8.85052 5.15184 9.06529 5.02048L11.7425 3.39584C11.9625 3.26309 12.2256 3.44901 12.2256 3.7371V6.90192H12.2249ZM16.3072 13.96C16.3072 14.2453 16.1709 14.5049 15.9562 14.6362L13.2789 16.2602C13.0593 16.3929 12.7959 16.2073 12.7959 15.9189V12.7544C12.7959 12.4695 12.9324 12.2099 13.1476 12.0785L15.8245 10.4546C16.0441 10.3218 16.3072 10.5074 16.3072 10.7958V13.9607V13.96Z" fill="#F7F9FD"/>
</svg>
