<svg width="137" height="24" viewBox="0 0 137 24" fill="none" xmlns="http://www.w3.org/2000/svg">
<mask id="mask0_13641_3918" style="mask-type:luminance" maskUnits="userSpaceOnUse" x="0" y="0" width="137" height="24">
<path d="M136.8 0H0V24H136.8V0Z" fill="white"/>
</mask>
<g mask="url(#mask0_13641_3918)">
<path d="M15.8891 4.04131H7.77852C6.71804 4.04131 5.85742 3.18351 5.85742 2.12472C5.85742 1.06592 6.71703 0.20813 7.77852 0.20813H15.8891C16.9496 0.20813 17.8102 1.06592 17.8102 2.12472C17.8102 3.18351 16.9506 4.04131 15.8891 4.04131Z" fill="#262262"/>
<path d="M21.7663 10.4307H1.90172C0.851441 10.4307 0 9.5729 0 8.51412C0 7.45532 0.851441 6.59753 1.90172 6.59753H21.7663C22.8166 6.59753 23.6679 7.45532 23.6679 8.51412C23.6679 9.5729 22.8166 10.4307 21.7663 10.4307Z" fill="#262262"/>
<path d="M3.57937 16.8189C2.53011 16.8189 1.67969 15.9611 1.67969 14.9023C1.67969 13.8435 2.53011 12.9857 3.57937 12.9857H20.0871C21.1364 12.9857 21.9868 13.8435 21.9868 14.9023C21.9868 15.9611 21.1364 16.8189 20.0871 16.8189H3.57937Z" fill="#262262"/>
<path d="M14.9875 23.2072H8.68378C7.6233 23.2072 6.7627 22.3495 6.7627 21.2906C6.7627 20.2318 7.62229 19.3741 8.68378 19.3741H14.9875C16.0481 19.3741 16.9086 20.2318 16.9086 21.2906C16.9086 22.3495 16.049 23.2072 14.9875 23.2072Z" fill="#262262"/>
<path d="M123.186 13.8493C123.347 11.3107 125.38 9.67183 128.412 9.67183C131.284 9.67183 133.316 11.3107 133.316 13.6563C133.316 13.7528 133.252 13.8493 133.09 13.8493H123.186ZM128.638 23.972C131.638 23.972 134.251 22.7505 135.768 20.6302C135.994 20.3094 136.123 19.9549 136.123 19.6015C136.123 18.7985 135.51 18.2195 134.704 18.2195C134.188 18.2195 133.768 18.4451 133.219 19.0228C131.897 20.4363 130.509 21.0791 128.735 21.0791C125.508 21.0791 123.314 19.2157 123.153 16.3552H136.251C136.606 16.3552 136.799 16.1623 136.799 15.8415V15.4882C136.799 10.2821 133.476 6.8764 128.379 6.8764C123.282 6.8764 119.636 10.3146 119.636 15.4882C119.636 20.6617 123.185 23.972 128.637 23.972H128.638ZM116.185 23.972C117.218 23.972 117.96 23.2002 117.96 22.1726V1.79932C117.96 0.7707 117.185 0 116.185 0C115.185 0 114.411 0.771715 114.411 1.79932V22.1726C114.411 23.2012 115.185 23.972 116.185 23.972ZM96.4091 23.972C97.4093 23.972 98.1188 23.2002 98.1188 22.1726V21.144C99.2157 22.9434 101.377 23.972 104.088 23.972C109.217 23.972 112.733 20.4697 112.733 15.3602C112.733 10.2506 109.249 6.8764 104.378 6.8764C101.636 6.8764 99.2483 8.03295 98.2166 9.89726V1.79932C98.2166 0.7707 97.4419 0 96.4418 0C95.4417 0 94.6669 0.771715 94.6669 1.79932V22.1726C94.6669 23.2012 95.4092 23.972 96.4091 23.972ZM103.603 21.08C100.119 21.08 98.0546 18.9914 98.0546 15.4242C98.0546 11.857 100.119 9.76829 103.603 9.76829C107.088 9.76829 109.185 11.857 109.185 15.4242C109.185 18.9914 107.121 21.08 103.603 21.08ZM55.3725 23.972C57.7274 23.972 59.7603 22.9434 60.7276 21.3045V22.1715C60.7276 23.2002 61.5025 23.9709 62.5025 23.9709C63.5026 23.9709 64.2773 23.1992 64.2773 22.1715V9.18951C64.2773 8.16089 63.5026 7.3902 62.5025 7.3902C61.5025 7.3902 60.7276 8.16191 60.7276 9.18951V16.9655C60.7276 19.7295 59.2434 21.2394 56.5336 21.2394C53.824 21.2394 52.3072 19.7295 52.3072 16.9655V9.18951C52.3072 8.16089 51.5323 7.3902 50.5323 7.3902C49.5322 7.3902 48.7574 8.16191 48.7574 9.18951V17.1585C48.7574 21.5288 51.1123 23.9709 55.3705 23.9709L55.3725 23.972ZM32.0803 9.44743V3.24526C32.0803 3.11631 32.2097 2.98837 32.3382 2.98837H39.2418C41.4684 2.98837 42.7906 4.17741 42.7906 6.20215C42.7906 8.22689 41.4684 9.44743 39.2418 9.44743H32.0803ZM29.0159 23.4582H39.5335C44.1791 23.4582 47.0824 20.8231 47.0824 16.6457C47.0824 13.368 45.5665 11.5047 42.4043 10.9259C44.9203 10.4121 46.3719 8.58026 46.3719 5.94526C46.3719 2.31414 43.6623 0 39.4356 0H29.0148C28.7243 0 28.499 0.225423 28.499 0.5138V22.9434C28.499 23.2328 28.7253 23.4571 29.0148 23.4571L29.0159 23.4582ZM32.0803 20.1803V12.5323H39.3714C41.9199 12.5323 43.4685 14.0422 43.4685 16.4843C43.4685 18.9263 41.9199 20.4363 39.3714 20.4363H32.3382C32.2088 20.4363 32.0803 20.3072 32.0803 20.1794V20.1803ZM68.1166 23.972C69.1493 23.972 69.8915 23.2002 69.8915 22.1726V13.8818C69.8915 11.2467 71.4074 9.60786 73.8917 9.60786C76.3761 9.60786 77.6983 11.1828 77.6983 13.8818V22.1726C77.6983 23.2012 78.4731 23.972 79.4732 23.972C80.4733 23.972 81.2481 23.2002 81.2481 22.1726V13.8818C81.2481 11.2467 82.7639 9.60786 85.2484 9.60786C87.7327 9.60786 89.0549 11.1828 89.0549 13.8818V22.1726C89.0549 23.2012 89.8296 23.972 90.8298 23.972C91.8299 23.972 92.6046 23.2002 92.6046 22.1726V13.6888C92.6046 9.41494 90.2171 6.8764 86.2168 6.8764C83.5713 6.8764 81.6038 8.00148 80.5385 10.0902C79.4743 7.93751 77.6668 6.8764 75.0223 6.8764C72.6032 6.8764 70.861 7.77605 69.8924 9.54389V9.19052C69.8924 8.16191 69.1177 7.39121 68.1176 7.39121C67.1176 7.39121 66.3427 8.16292 66.3427 9.19052V22.1726C66.3427 23.2012 67.1176 23.972 68.1176 23.972H68.1166Z" fill="#262262"/>
</g>
</svg>
