<?xml version="1.0" encoding="utf-8"?>
<!-- Generator: Adobe Illustrator 26.0.3, SVG Export Plug-In . SVG Version: 6.00 Build 0)  -->
<svg version="1.0" id="katman_1" xmlns="http://www.w3.org/2000/svg" xmlns:xlink="http://www.w3.org/1999/xlink" x="0px" y="0px"
	 viewBox="0 0 600 450" style="enable-background:new 0 0 600 450;" xml:space="preserve">
<style type="text/css">
	.st0{fill-rule:evenodd;clip-rule:evenodd;fill:#8BC057;}
	.st1{fill-rule:evenodd;clip-rule:evenodd;fill:#218747;}
	.st2{fill-rule:evenodd;clip-rule:evenodd;fill:#2F9B47;}
	.st3{fill-rule:evenodd;clip-rule:evenodd;fill:#64B550;}
	.st4{fill-rule:evenodd;clip-rule:evenodd;fill:#3EB7AC;}
	.st5{fill-rule:evenodd;clip-rule:evenodd;fill:#3793D0;}
	.st6{fill-rule:evenodd;clip-rule:evenodd;fill:#2A72B8;}
	.st7{fill-rule:evenodd;clip-rule:evenodd;fill:#1D5C85;}
	.st8{fill-rule:evenodd;clip-rule:evenodd;fill:#993233;}
	.st9{fill-rule:evenodd;clip-rule:evenodd;fill:#E13130;}
	.st10{fill-rule:evenodd;clip-rule:evenodd;fill:#F18726;}
	.st11{fill-rule:evenodd;clip-rule:evenodd;fill:#F5C836;}
</style>
<path class="st0" d="M265.4,269.3c-5.5,2.5-11.5,3.9-18,3.9c-23.8,0-43.1-19.3-43.1-43.1v-50.3h19.1v50.3
	c0,14.5,10.7,26.3,23.9,26.3c7.2,0,13.6-3.5,18-8.9V269.3z"/>
<path class="st1" d="M111,139.2v47.9c8-6,18-9.6,28.7-9.6c7.8,0,15.1,1.8,21.5,5.1v22.5c-5.5-6.7-13.6-10.9-22.7-10.9
	c-16.5,0-29.9,13.9-29.9,31.1s13.4,31.1,29.9,31.1c9.1,0,17.3-4.2,22.7-10.9v22.5c-6.5,3.3-13.8,5.1-21.5,5.1
	c-11.4,0-21.9-4-30.2-10.7l-0.9,8.3H91.9v-43.1h0.1c0-0.8-0.1-1.6-0.1-2.4v-86.2H111z"/>
<path class="st2" d="M126.6,179.3c4.2-1.2,8.6-1.8,13.2-1.8c26.4,0,47.9,21.5,47.9,47.9s-21.4,47.9-47.9,47.9c-4.6,0-9-0.6-13.2-1.8
	v-17.5c3.7,1.7,7.7,2.6,12,2.6c16.5,0,29.9-13.9,29.9-31.1s-13.4-31.1-29.9-31.1c-4.3,0-8.3,0.9-12,2.6V179.3z"/>
<path class="st3" d="M161.3,182.6c15.6,7.9,26.3,24.1,26.3,42.8s-10.7,34.9-26.3,42.8v-22.5c4.5-5.4,7.2-12.5,7.2-20.2
	s-2.7-14.8-7.2-20.2V182.6z"/>
<path class="st4" d="M230.7,249c4.3,4.7,10.2,7.5,16.8,7.5c13.2,0,23.9-11.8,23.9-26.3v-50.3h19.1v50.3c0,23.8-19.3,43.1-43.1,43.1
	c-5.9,0-11.6-1.2-16.8-3.4V249z"/>
<path class="st5" d="M265.4,247.6c3.7-4.6,6-10.7,6-17.4v-50.3h19.1v50.3c0,17.4-10.3,32.4-25.1,39.2V247.6z"/>
<path class="st6" d="M369.5,201.8c-4.3-4.7-10.2-7.5-16.8-7.5c-13.2,0-23.9,11.8-23.9,26.3v50.3h-19.1v-50.3
	c0-23.8,19.3-43.1,43.1-43.1c5.9,0,11.6,1.2,16.8,3.4V201.8z"/>
<path class="st7" d="M334.8,181.4c5.5-2.5,11.5-3.9,18-3.9c23.8,0,43.1,19.3,43.1,43.1v50.3h-19.1v-50.3c0-14.5-10.7-26.3-23.9-26.3
	c-7.2,0-13.6,3.5-18,8.9V181.4z"/>
<path class="st8" d="M369.5,180.9c15.5,6.5,26.3,21.9,26.3,39.7v50.3h-19.1v-50.3c0-7.4-2.8-14-7.2-18.8V180.9z"/>
<path class="st9" d="M473.7,271.4c-4.2,1.2-8.6,1.8-13.2,1.8c-26.4,0-47.9-21.5-47.9-47.9s21.4-47.9,47.9-47.9c4.6,0,9,0.6,13.2,1.8
	v17.5c-3.7-1.7-7.7-2.6-12-2.6c-16.5,0-29.9,13.9-29.9,31.1s13.4,31.1,29.9,31.1c4.3,0,8.3-0.9,12-2.6V271.4z"/>
<path class="st10" d="M439,182.6c6.5-3.3,13.8-5.1,21.5-5.1c11.4,0,21.9,4,30.2,10.7l0.9-8.3h16.8V223h0c0,0.8,0,1.6,0,2.4v86.2
	h-19.1v-47.9c-8,6-18,9.6-28.7,9.6c-7.8,0-15.1-1.8-21.5-5.1v-22.5c5.5,6.7,13.6,10.9,22.7,10.9c16.5,0,29.9-13.9,29.9-31.1
	s-13.4-31.1-29.9-31.1c-9.1,0-17.3,4.2-22.7,10.9V182.6z"/>
<path class="st11" d="M473.7,179.3c6.3,1.8,12.1,4.9,17,8.9l0.9-8.3h16.8v43.1h0c0,0.8,0,1.6,0,2.4v86.2h-19.1v-47.9
	c-4.6,3.5-9.9,6.1-15.6,7.7v-17.5c10.6-4.8,18-15.8,18-28.5s-7.4-23.7-18-28.5V179.3z"/>
</svg>
