<svg width="51" height="21" viewBox="0 0 51 21" fill="none" xmlns="http://www.w3.org/2000/svg">
<g id="bunq (1) 1">
<path id="Vector" d="M34.5468 15.9664H36.8683V9.87111C36.8677 8.48526 36.3169 7.15633 35.337 6.17638C34.3571 5.19644 33.0281 4.64566 31.6423 4.6451C30.2568 4.64622 28.9284 5.19724 27.9489 6.17712C26.9694 7.15701 26.4189 8.48562 26.4184 9.87111V15.9685H28.7399V9.87111C28.7399 8.10946 30.0406 6.67826 31.6444 6.67826C33.244 6.67826 34.5468 8.10946 34.5468 9.87111V15.9664ZM21.7712 4.93766H24.0948V11.0329C24.0942 12.4184 23.5437 13.747 22.5642 14.7269C21.5847 15.7068 20.2564 16.2578 18.8709 16.2589C17.485 16.2584 16.1561 15.7076 15.1761 14.7276C14.1962 13.7477 13.6454 12.4188 13.6449 11.0329V4.93555H15.9664V11.0329C15.9664 12.7946 17.2671 14.2258 18.8709 14.2258C20.4704 14.2258 21.7733 12.7946 21.7733 11.0329L21.7712 4.93766ZM0 0V10.452C0 10.5488 0.00210471 10.6477 0.00841886 10.7446H0V15.9685H2.03105L2.14681 14.9582C2.99888 15.6489 4.02909 16.0843 5.11826 16.2139C6.20743 16.3435 7.31105 16.1621 8.30143 15.6907C9.29182 15.2193 10.1285 14.4771 10.7147 13.5501C11.3009 12.623 11.6126 11.5489 11.6138 10.452C11.6132 9.37392 11.3126 8.31727 10.7457 7.40029C10.1787 6.48332 9.3678 5.74221 8.40361 5.2599C7.43943 4.77759 6.36005 4.57311 5.28626 4.66934C4.21248 4.76558 3.18666 5.15873 2.3236 5.8048V0.00210456L0 0ZM5.66168 6.67615C7.66326 6.67615 9.29021 8.36624 9.29021 10.4499C9.29021 12.5336 7.66326 14.2237 5.65958 14.2237C3.65799 14.2237 2.03105 12.5336 2.03105 10.4499C2.03105 8.36624 3.65799 6.67615 5.65958 6.67615H5.66168ZM44.7083 4.6451C43.1681 4.6451 41.6908 5.25683 40.6015 6.34578C39.5121 7.43472 38.8999 8.91173 38.8993 10.452C38.9003 11.5299 39.2012 12.5863 39.7683 13.503C40.3354 14.4196 41.1464 15.1604 42.1105 15.6425C43.0746 16.1245 44.1538 16.3288 45.2274 16.2325C46.301 16.1362 47.3266 15.7431 48.1895 15.0971V20.9019H50.5131V10.452C50.5135 10.3544 50.5107 10.2569 50.5047 10.1595H50.5131V4.93766H48.4821L48.3663 5.94792C47.3336 5.10552 46.0411 4.64666 44.7083 4.64931V4.6451ZM44.8536 6.67615C46.8551 6.67615 48.4821 8.36624 48.4821 10.4499C48.4821 12.5336 46.8551 14.2237 44.8536 14.2237C42.8499 14.2237 41.2229 12.5336 41.2229 10.4499C41.2229 8.36624 42.8499 6.67615 44.8536 6.67615Z" fill="#181818"/>
</g>
</svg>
