<svg width="220" height="192" viewBox="0 0 220 192" fill="none" xmlns="http://www.w3.org/2000/svg">
<g id="Internship-finder" opacity="0.6" clip-path="url(#clip0_10186_1401)">
<g id="Group">
<path id="Vector" d="M217.113 192C217.972 192 218.83 191.618 219.393 190.883C220.367 189.622 220.136 187.814 218.881 186.841L168.78 148.078C167.517 147.105 165.706 147.329 164.732 148.59C163.758 149.85 163.989 151.659 165.244 152.632L215.345 191.402C215.872 191.805 216.493 192.007 217.113 192.007V192Z" fill="#ECF4F8"/>
</g>
<path id="Vector_2" d="M93.9163 187.223C145.511 187.223 187.48 145.311 187.48 93.788C187.48 68.8298 177.747 45.3701 160.078 27.7178L155.994 31.7958C172.574 48.353 181.708 70.3716 181.708 93.788C181.708 142.127 142.322 181.459 93.9163 181.459C78.4978 181.459 63.3318 177.41 50.0562 169.751L47.1702 174.744C61.3189 182.907 77.4805 187.223 93.9163 187.223Z" fill="#ECF4F8"/>
<path id="Vector_3" d="M34.9407 166.797L39.0244 161.753C38.6637 161.458 38.3029 161.162 37.9494 160.867L33.7936 165.846C34.1759 166.163 34.5583 166.48 34.9479 166.79L34.9407 166.797ZM31.528 163.908L35.8426 159.059C35.4963 158.749 35.15 158.439 34.8109 158.129L30.4241 162.906C30.7921 163.245 31.1601 163.576 31.5353 163.908H31.528ZM28.2452 160.853L32.7907 156.22C32.4588 155.896 32.1269 155.564 31.8022 155.24L27.1918 159.801C27.5381 160.154 27.8917 160.507 28.2524 160.853H28.2452ZM25.1211 157.646L29.8758 153.23C29.5583 152.891 29.2481 152.545 28.9378 152.207L24.111 156.551C24.4429 156.919 24.782 157.286 25.1211 157.654V157.646ZM22.1485 154.303L27.1052 150.117C26.8094 149.764 26.5136 149.411 26.2178 149.051L21.1889 153.158C21.5064 153.547 21.8238 153.929 22.1485 154.31V154.303ZM19.3347 150.809L24.4862 146.86C24.2048 146.493 23.9234 146.125 23.6492 145.751L18.4328 149.613C18.7286 150.016 19.0316 150.412 19.3347 150.809ZM16.6868 147.192L22.0259 143.496C21.7589 143.114 21.4992 142.732 21.2394 142.35L15.8426 145.96C16.124 146.37 16.3981 146.781 16.6868 147.192ZM14.2192 143.452L19.7243 140.016C19.479 139.619 19.2337 139.23 18.9956 138.827L13.4328 142.177C13.6925 142.602 13.9523 143.027 14.212 143.452H14.2192ZM11.9321 139.598L17.5959 136.42C17.3722 136.017 17.1485 135.613 16.9249 135.203L11.2106 138.286C11.4487 138.726 11.6868 139.165 11.9321 139.598ZM9.83249 135.642L15.6406 132.739C15.4314 132.328 15.2293 131.91 15.0273 131.492L9.16873 134.295C9.38518 134.749 9.60162 135.195 9.8253 135.642H9.83249ZM7.92775 131.579L13.8729 128.963C13.6853 128.538 13.5049 128.113 13.3174 127.688L7.33611 130.21C7.53091 130.671 7.72572 131.125 7.92775 131.579ZM6.21779 127.436L12.2784 125.108C12.1124 124.676 11.9465 124.244 11.7878 123.804L5.69109 126.038C5.86424 126.506 6.03741 126.974 6.21779 127.436ZM4.70264 123.213L10.8643 121.182C10.72 120.742 10.5756 120.303 10.4386 119.856L4.24086 121.787C4.39238 122.262 4.5439 122.738 4.70264 123.213ZM3.40392 118.919L9.65935 117.183C9.53668 116.736 9.41403 116.289 9.2986 115.835L3.01433 117.471C3.13698 117.954 3.26683 118.437 3.40392 118.919ZM2.30725 114.567L8.64203 113.134C8.54102 112.68 8.44 112.233 8.34621 111.772L1.98979 113.098C2.09079 113.588 2.19902 114.077 2.30725 114.56V114.567ZM1.4198 110.172L7.8123 109.048C7.73294 108.594 7.65356 108.133 7.58142 107.672L1.16728 108.695C1.24666 109.192 1.32602 109.682 1.4126 110.172H1.4198ZM0.741577 105.734L7.1846 104.913C7.12688 104.452 7.06915 103.99 7.01865 103.529L0.561203 104.243C0.618927 104.74 0.676651 105.237 0.741577 105.734ZM0.287048 101.274L6.75891 100.763C6.72284 100.301 6.68675 99.8403 6.6579 99.372L0.178818 99.7827C0.207672 100.28 0.243759 100.777 0.287048 101.267V101.274ZM0.0345306 96.807L6.52803 96.6052C6.5136 96.1441 6.49916 95.6758 6.49194 95.2146L-0.0015564 95.3155C0.00564575 95.8127 0.0200958 96.3098 0.0345306 96.807ZM6.49194 92.4335C6.49194 91.9724 6.50638 91.5041 6.52081 91.0429L0.027298 90.8412C0.0128784 91.3383 -0.0015564 91.8355 -0.00875854 92.3326L6.48474 92.4335H6.49194ZM6.6579 88.269C6.68675 87.8079 6.72284 87.3467 6.75891 86.8856L0.287048 86.3813C0.250977 86.8784 0.21489 87.3756 0.178818 87.8655L6.6579 88.269ZM7.01143 84.1189C7.06194 83.6578 7.11966 83.1966 7.17738 82.7355L0.734375 81.9213C0.669449 82.4113 0.61171 82.9084 0.561203 83.4056L7.01865 84.1189H7.01143ZM7.567 79.9832C7.63914 79.5221 7.71852 79.0681 7.79788 78.6142L1.39815 77.4974C1.31157 77.9874 1.23221 78.4773 1.15285 78.9673L7.567 79.9904V79.9832ZM8.32455 75.8907C8.41835 75.4368 8.51936 74.9829 8.62038 74.529L2.2856 73.1096C2.17738 73.5923 2.06915 74.0823 1.96814 74.565L8.32455 75.8907ZM9.26973 71.8271C9.38516 71.3804 9.50783 70.9337 9.63048 70.4869L3.37508 68.7577C3.24521 69.2405 3.11533 69.716 2.98546 70.1987L9.26973 71.8271ZM10.4169 67.8211C10.554 67.3816 10.6983 66.9349 10.8426 66.4953L4.67377 64.4707C4.51505 64.9463 4.36353 65.4146 4.21922 65.8901L10.4169 67.8139V67.8211ZM11.7517 63.8799C11.9104 63.4476 12.0692 63.0081 12.2351 62.583L6.1745 60.263C5.99413 60.7241 5.82095 61.1924 5.6478 61.6608L11.7517 63.8799ZM13.2668 60.0036C13.4472 59.5785 13.6276 59.1534 13.8152 58.7355L7.87001 56.1273C7.668 56.5812 7.47321 57.0351 7.2784 57.4963L13.2668 60.0036ZM14.9696 56.221C15.1716 55.8031 15.3736 55.3852 15.5757 54.9745L9.76035 52.0925C9.53668 52.5392 9.32024 52.9787 9.11099 53.4254L14.9696 56.221ZM16.8527 52.5104C17.0692 52.0997 17.2928 51.6962 17.5237 51.2927L11.8527 48.1297C11.6146 48.562 11.3693 48.9943 11.1384 49.4338L16.8527 52.5104ZM18.909 48.8934C19.1471 48.4971 19.3852 48.1081 19.6305 47.7118L14.1182 44.2822C13.8585 44.7001 13.5987 45.1252 13.339 45.5575L18.909 48.8934ZM21.1384 45.3846C21.3982 45.0027 21.6579 44.6208 21.9176 44.239L16.5785 40.55C16.2971 40.9607 16.0158 41.3714 15.7416 41.782L21.1456 45.3846H21.1384ZM23.5338 41.9766C23.808 41.6019 24.0893 41.2345 24.3707 40.867L19.2048 36.9331C18.9018 37.3293 18.6059 37.7256 18.3101 38.1219L23.5338 41.9766ZM26.0879 38.6911C26.3837 38.3308 26.6796 37.9778 26.9754 37.6175L22.0042 33.4458C21.6868 33.8277 21.3693 34.2095 21.0518 34.5914L26.0879 38.6911ZM28.8008 35.5209C29.111 35.175 29.4212 34.8364 29.7387 34.4977L24.9696 30.0955C24.6305 30.4629 24.2986 30.8304 23.9667 31.1978L28.8008 35.5209ZM31.6651 32.4803C31.9898 32.1489 32.3145 31.8247 32.6463 31.5005L28.1009 26.8748C27.7474 27.2279 27.3938 27.5737 27.0403 27.934L31.6723 32.4803H31.6651ZM34.6593 29.5911C34.9984 29.2741 35.3448 28.9643 35.6911 28.6545L31.3621 23.8199C30.9941 24.1513 30.6189 24.4827 30.2582 24.8214L34.6593 29.5911ZM37.7979 26.8316C38.1514 26.5362 38.5121 26.2408 38.8657 25.9526L34.7748 20.9162C34.3852 21.2333 34.0028 21.5503 33.6204 21.8673L37.7979 26.8316ZM41.0591 24.2378C41.427 23.9568 41.8022 23.6758 42.1774 23.402L38.3318 18.1783C37.9277 18.4737 37.5309 18.7691 37.1341 19.0717L41.0591 24.2378ZM143.858 22.1123L147.574 16.795C147.163 16.5068 146.752 16.2258 146.34 15.952L142.711 21.3341C143.094 21.5935 143.476 21.8529 143.858 22.1195V22.1123ZM44.4429 21.7881C44.8253 21.5287 45.2077 21.2693 45.5973 21.0099L42.0042 15.6061C41.5857 15.8799 41.1745 16.1609 40.7632 16.4419L44.4429 21.7881ZM140.374 19.8139L143.83 14.3236C143.411 14.057 142.985 13.7977 142.56 13.5383L139.19 19.079C139.587 19.3167 139.984 19.5617 140.374 19.8067V19.8139ZM47.9422 19.5113C48.339 19.2663 48.7358 19.0285 49.1326 18.7908L45.7993 13.2285C45.3736 13.4878 44.9407 13.7472 44.515 14.0066L47.9422 19.5185V19.5113ZM136.788 17.6812L139.977 12.0324C139.544 11.7875 139.111 11.5497 138.671 11.3119L135.568 17.0111C135.972 17.2345 136.384 17.4578 136.788 17.6812ZM51.5425 17.4002C51.9465 17.1768 52.3578 16.9535 52.769 16.7301L49.7026 11.0093C49.2625 11.2471 48.8224 11.4848 48.3895 11.7226L51.5425 17.393V17.4002ZM133.108 15.7214L136.023 9.92855C135.576 9.70519 135.136 9.48904 134.681 9.27289L131.86 15.109C132.278 15.3107 132.697 15.5125 133.108 15.7214ZM55.251 15.462C55.6694 15.2531 56.0879 15.0513 56.5064 14.8568L53.7286 8.9991C53.2741 9.21525 52.8267 9.4314 52.3794 9.64755L55.2582 15.462H55.251ZM129.342 13.9418L131.975 8.01201C131.521 7.81027 131.066 7.61573 130.605 7.4212L128.065 13.387C128.491 13.5671 128.916 13.7544 129.342 13.9418ZM59.0461 13.6968C59.4717 13.5095 59.8974 13.3293 60.3231 13.1564L57.8267 7.16902C57.365 7.36355 56.9032 7.55809 56.4414 7.75983L59.0389 13.704L59.0461 13.6968ZM125.489 12.3422L127.834 6.29721C127.372 6.11708 126.903 5.94416 126.434 5.77124L124.19 11.8523C124.623 12.0108 125.056 12.1765 125.489 12.3422ZM62.9133 12.1261C63.3462 11.9604 63.7863 11.8019 64.2264 11.6433L62.0186 5.54788C61.5497 5.7208 61.0807 5.89373 60.6117 6.06665L62.9061 12.1333L62.9133 12.1261ZM121.564 10.9301L123.613 4.77694C123.144 4.61843 122.668 4.46713 122.199 4.31582L120.244 10.4977C120.684 10.6418 121.131 10.7787 121.571 10.9301H121.564ZM66.8599 10.7355C67.3073 10.5914 67.7474 10.4473 68.1947 10.3104L66.2827 4.11408C65.8065 4.25818 65.3303 4.40949 64.8541 4.56079L66.8527 10.7283L66.8599 10.7355ZM117.574 9.7124L119.327 3.46563C118.851 3.32873 118.368 3.19904 117.884 3.07655L116.232 9.34494C116.68 9.46022 117.127 9.58271 117.574 9.7124ZM70.8643 9.54668C71.3116 9.4242 71.7589 9.30892 72.2135 9.19364L70.6045 2.91084C70.1211 3.03332 69.6377 3.16301 69.1615 3.29271L70.8643 9.54668ZM113.541 8.68208L114.991 2.36325C114.508 2.25518 114.024 2.1471 113.534 2.03903L112.185 8.37947C112.639 8.47313 113.094 8.574 113.541 8.68208ZM74.9191 8.54518C75.3736 8.44431 75.821 8.35065 76.2755 8.25698L74.9768 1.90213C74.4862 2.003 74.0028 2.10387 73.5122 2.21195L74.9191 8.54518ZM109.45 7.8535L110.597 1.46983C110.107 1.38337 109.616 1.29691 109.125 1.21765L108.086 7.61573C108.541 7.68778 108.996 7.76704 109.45 7.84629V7.8535ZM79.01 7.74542C79.4645 7.66617 79.9191 7.59412 80.3809 7.52207L79.3852 1.11678C78.8946 1.19604 78.3967 1.27529 77.9061 1.35455L79.01 7.74542ZM105.33 7.21225L106.167 0.78535C105.677 0.720504 105.179 0.662864 104.681 0.605224L103.945 7.04653C104.407 7.09697 104.861 7.15461 105.323 7.21225H105.33ZM83.137 7.13299C83.5987 7.07535 84.0605 7.02492 84.5223 6.97448L83.8296 0.525968C83.3318 0.576403 82.8412 0.634044 82.3505 0.698889L83.1442 7.13299H83.137ZM101.189 6.77274L101.723 0.309817C101.225 0.266587 100.727 0.230561 100.229 0.201741L99.8109 6.67187C100.273 6.70069 100.727 6.73672 101.189 6.77274ZM87.2928 6.72231C87.7546 6.68628 88.2164 6.65746 88.6781 6.62864L88.2957 0.158511C87.7979 0.187331 87.3 0.223356 86.8022 0.259382L87.2856 6.72231H87.2928ZM97.0259 6.53497L97.2568 0.0576403C96.7589 0.0432303 96.2611 0.0288202 95.7632 0.0144101L95.6406 6.49895C96.1023 6.50615 96.5641 6.52056 97.0259 6.53497ZM91.4631 6.51336C91.9249 6.49895 92.3866 6.49174 92.8556 6.48454L92.7762 0C92.2784 0 91.7806 0.0144101 91.2827 0.0288202L91.4631 6.51336Z" fill="#ECF4F8"/>
<path id="Vector_4" d="M94.2353 164.592C94.9568 164.592 95.6711 164.578 96.3854 164.549C96.5369 164.549 96.6523 164.419 96.6451 164.268C96.6451 164.116 96.5369 163.994 96.3637 164.008C95.6567 164.03 94.9424 164.044 94.2353 164.052C94.0838 164.052 93.9684 164.174 93.9684 164.325C93.9684 164.477 94.091 164.592 94.2425 164.592H94.2353ZM90.8082 164.527C90.9525 164.527 91.0751 164.412 91.0751 164.268C91.0751 164.116 90.9669 163.994 90.8154 163.987C90.1011 163.958 89.394 163.915 88.687 163.864C88.5354 163.85 88.4056 163.965 88.3984 164.116C88.3912 164.268 88.4994 164.397 88.6509 164.405C89.3652 164.455 90.0795 164.498 90.7937 164.527H90.8082ZM99.7909 164.354C99.7909 164.354 99.8053 164.354 99.8125 164.354C100.527 164.297 101.241 164.224 101.948 164.145C102.1 164.131 102.201 163.994 102.186 163.843C102.172 163.691 102.042 163.598 101.883 163.605C101.176 163.684 100.469 163.756 99.762 163.814C99.6105 163.828 99.5023 163.958 99.5167 164.102C99.5311 164.246 99.6466 164.347 99.7836 164.347L99.7909 164.354ZM85.267 164.073C85.4041 164.073 85.5196 163.972 85.534 163.835C85.5556 163.684 85.4474 163.554 85.2959 163.533C84.5888 163.446 83.8818 163.353 83.1819 163.245C83.0376 163.223 82.8933 163.324 82.8717 163.468C82.85 163.612 82.951 163.756 83.0953 163.778C83.8024 163.886 84.5095 163.987 85.2238 164.073C85.2382 164.073 85.2454 164.073 85.2598 164.073H85.267ZM105.31 163.684C105.31 163.684 105.339 163.684 105.354 163.684C106.061 163.569 106.768 163.446 107.468 163.309C107.612 163.281 107.713 163.137 107.684 162.992C107.655 162.848 107.511 162.755 107.367 162.776C106.674 162.913 105.974 163.036 105.267 163.151C105.123 163.173 105.022 163.317 105.043 163.461C105.065 163.59 105.18 163.691 105.31 163.691V163.684ZM79.7764 163.18C79.8991 163.18 80.0145 163.093 80.0434 162.964C80.0722 162.819 79.9784 162.675 79.8341 162.647C79.1343 162.502 78.4417 162.351 77.749 162.193C77.6047 162.157 77.4604 162.25 77.4243 162.394C77.3883 162.538 77.4821 162.683 77.6264 162.719C78.319 162.884 79.0189 163.036 79.7259 163.18C79.7476 163.18 79.762 163.18 79.7836 163.18H79.7764ZM110.765 162.575C110.765 162.575 110.808 162.575 110.83 162.567C111.53 162.394 112.222 162.214 112.908 162.027C113.052 161.984 113.139 161.84 113.095 161.695C113.052 161.551 112.908 161.465 112.763 161.508C112.078 161.695 111.393 161.876 110.7 162.049C110.556 162.085 110.469 162.229 110.498 162.373C110.527 162.495 110.642 162.582 110.758 162.582L110.765 162.575ZM74.3724 161.861C74.4878 161.861 74.5961 161.782 74.6321 161.667C74.6754 161.523 74.5888 161.371 74.4445 161.335C73.7591 161.141 73.0809 160.932 72.4027 160.716C72.2584 160.672 72.1069 160.752 72.0636 160.889C72.0203 161.025 72.0924 161.184 72.2367 161.227C72.915 161.443 73.6004 161.652 74.293 161.854C74.3147 161.854 74.3435 161.861 74.3652 161.861H74.3724ZM116.111 161.047C116.111 161.047 116.169 161.047 116.198 161.033C116.883 160.809 117.561 160.572 118.232 160.327C118.369 160.276 118.442 160.118 118.391 159.981C118.341 159.837 118.182 159.765 118.045 159.822C117.374 160.067 116.703 160.298 116.025 160.521C115.88 160.572 115.808 160.723 115.851 160.86C115.888 160.975 115.996 161.047 116.111 161.047ZM69.091 160.118C69.1992 160.118 69.3002 160.053 69.3435 159.945C69.394 159.808 69.3219 159.649 69.1848 159.599C68.521 159.347 67.8572 159.087 67.2007 158.821C67.0636 158.763 66.9049 158.828 66.8471 158.965C66.7894 159.102 66.8543 159.26 66.9914 159.318C67.6552 159.592 68.319 159.851 68.99 160.103C69.0189 160.118 69.0549 160.118 69.0838 160.118H69.091ZM121.328 159.087C121.328 159.087 121.4 159.087 121.436 159.066C122.1 158.785 122.756 158.496 123.406 158.201C123.543 158.136 123.6 157.978 123.535 157.841C123.471 157.704 123.312 157.646 123.175 157.711C122.525 158.007 121.876 158.295 121.219 158.569C121.082 158.626 121.017 158.785 121.075 158.922C121.118 159.022 121.219 159.087 121.328 159.087ZM63.9756 157.963C64.0766 157.963 64.1776 157.906 64.2209 157.805C64.2858 157.668 64.2209 157.509 64.091 157.445C63.4489 157.142 62.8139 156.832 62.179 156.515C62.0419 156.45 61.8832 156.501 61.8183 156.638C61.7533 156.774 61.8038 156.933 61.9409 156.998C62.5758 157.322 63.218 157.632 63.8673 157.934C63.9034 157.949 63.9467 157.963 63.9828 157.963H63.9756ZM126.378 156.724C126.421 156.724 126.465 156.717 126.501 156.695C127.136 156.364 127.771 156.025 128.398 155.679C128.528 155.607 128.579 155.442 128.507 155.312C128.434 155.182 128.268 155.132 128.139 155.211C127.518 155.557 126.89 155.895 126.256 156.22C126.126 156.292 126.068 156.45 126.14 156.587C126.191 156.681 126.284 156.731 126.378 156.731V156.724ZM59.0477 155.413C59.1415 155.413 59.2353 155.362 59.2858 155.276C59.3579 155.146 59.3147 154.98 59.1848 154.908C58.5715 154.555 57.9582 154.195 57.3522 153.828C57.2223 153.748 57.0564 153.792 56.977 153.914C56.8976 154.044 56.9409 154.209 57.0636 154.289C57.6769 154.663 58.2901 155.024 58.9106 155.377C58.9539 155.398 58.9972 155.413 59.0477 155.413ZM131.212 153.972C131.263 153.972 131.313 153.957 131.357 153.928C131.963 153.547 132.569 153.165 133.167 152.768C133.29 152.682 133.326 152.516 133.24 152.394C133.153 152.271 132.987 152.235 132.864 152.322C132.273 152.718 131.674 153.1 131.068 153.475C130.938 153.554 130.902 153.72 130.981 153.849C131.032 153.928 131.118 153.979 131.212 153.979V153.972ZM54.3291 152.48C54.4157 152.48 54.5023 152.437 54.5528 152.365C54.6393 152.242 54.6033 152.07 54.4806 151.99C53.8962 151.594 53.3118 151.183 52.7346 150.773C52.6119 150.686 52.446 150.715 52.3594 150.83C52.2728 150.953 52.3017 151.118 52.4171 151.205C52.9943 151.623 53.5787 152.034 54.1776 152.437C54.2209 152.466 54.2786 152.48 54.3291 152.48ZM135.823 150.845C135.88 150.845 135.938 150.83 135.981 150.794C136.559 150.369 137.129 149.937 137.691 149.49C137.807 149.396 137.828 149.231 137.735 149.108C137.641 148.993 137.475 148.971 137.352 149.065C136.797 149.505 136.227 149.937 135.657 150.355C135.534 150.441 135.512 150.614 135.599 150.729C135.649 150.801 135.736 150.838 135.815 150.838L135.823 150.845ZM49.8558 149.195C49.9352 149.195 50.0145 149.159 50.065 149.094C50.1588 148.979 50.1372 148.806 50.0217 148.712C49.4662 148.265 48.9178 147.819 48.3767 147.357C48.2613 147.264 48.0953 147.278 47.9943 147.386C47.9005 147.502 47.9077 147.667 48.0232 147.768C48.5643 148.229 49.1199 148.683 49.6754 149.13C49.7259 149.166 49.7836 149.188 49.8414 149.188L49.8558 149.195ZM140.166 147.372C140.231 147.372 140.289 147.35 140.346 147.307C140.888 146.839 141.421 146.363 141.948 145.88C142.056 145.78 142.064 145.607 141.963 145.499C141.862 145.39 141.688 145.383 141.58 145.484C141.061 145.967 140.527 146.435 139.993 146.904C139.877 147.004 139.87 147.17 139.964 147.285C140.015 147.343 140.094 147.379 140.166 147.379V147.372ZM45.6494 145.556C45.7216 145.556 45.7937 145.527 45.8442 145.47C45.9453 145.362 45.938 145.189 45.8298 145.088C45.3103 144.605 44.7981 144.108 44.3002 143.611C44.192 143.503 44.0261 143.51 43.9178 143.611C43.8096 143.719 43.8096 143.885 43.9178 143.993C44.4229 144.497 44.9424 144.994 45.4618 145.484C45.5124 145.535 45.5773 145.556 45.6494 145.556ZM144.221 143.575C144.293 143.575 144.358 143.546 144.416 143.496C144.921 142.984 145.411 142.472 145.902 141.946C146.003 141.838 145.996 141.665 145.888 141.565C145.779 141.464 145.606 141.471 145.505 141.579C145.022 142.098 144.531 142.609 144.033 143.114C143.925 143.222 143.932 143.395 144.033 143.496C144.084 143.546 144.156 143.575 144.221 143.575ZM41.7389 141.608C41.8038 141.608 41.8688 141.586 41.9193 141.536C42.0275 141.435 42.0347 141.262 41.9337 141.154C41.4575 140.628 40.9813 140.095 40.5196 139.562C40.4258 139.446 40.2526 139.432 40.1372 139.533C40.0218 139.626 40.0145 139.799 40.1083 139.915C40.5773 140.455 41.0463 140.995 41.5297 141.521C41.5802 141.579 41.6595 141.608 41.7317 141.608H41.7389ZM147.965 139.468C148.045 139.468 148.117 139.439 148.175 139.374C148.636 138.827 149.091 138.272 149.531 137.717C149.625 137.602 149.603 137.429 149.488 137.335C149.372 137.242 149.199 137.263 149.105 137.378C148.665 137.933 148.218 138.481 147.756 139.028C147.662 139.144 147.677 139.309 147.792 139.41C147.843 139.454 147.908 139.475 147.965 139.475V139.468ZM38.1531 137.357C38.2108 137.357 38.2685 137.335 38.319 137.299C38.4344 137.206 38.4561 137.04 38.3695 136.917C37.9366 136.355 37.5037 135.793 37.0852 135.217C36.9986 135.094 36.8255 135.073 36.7101 135.159C36.5874 135.246 36.5658 135.419 36.6523 135.534C37.078 136.11 37.5109 136.68 37.9438 137.249C37.9943 137.314 38.0737 137.35 38.1603 137.35L38.1531 137.357ZM151.378 135.087C151.465 135.087 151.544 135.051 151.602 134.972C152.02 134.388 152.424 133.805 152.821 133.214C152.908 133.091 152.872 132.919 152.749 132.839C152.626 132.753 152.46 132.789 152.374 132.911C151.977 133.502 151.573 134.086 151.162 134.655C151.075 134.777 151.104 134.943 151.227 135.03C151.277 135.066 151.328 135.08 151.385 135.08L151.378 135.087ZM34.9063 132.839C34.9568 132.839 35.0073 132.825 35.0578 132.796C35.1805 132.717 35.2165 132.544 35.1372 132.421C34.7476 131.831 34.3652 131.225 33.99 130.62C33.9106 130.498 33.7447 130.454 33.6148 130.534C33.4849 130.613 33.4489 130.779 33.5282 130.908C33.9034 131.521 34.293 132.119 34.6826 132.717C34.7331 132.796 34.8197 132.839 34.9063 132.839ZM154.437 130.454C154.531 130.454 154.618 130.411 154.668 130.325C155.036 129.712 155.397 129.1 155.75 128.473C155.823 128.343 155.779 128.178 155.649 128.106C155.52 128.034 155.354 128.077 155.281 128.206C154.935 128.826 154.574 129.439 154.206 130.044C154.127 130.173 154.17 130.339 154.3 130.411C154.344 130.44 154.394 130.447 154.437 130.447V130.454ZM32.0275 128.084C32.0708 128.084 32.1141 128.077 32.1574 128.048C32.2872 127.976 32.3377 127.81 32.2656 127.68C31.9193 127.061 31.5874 126.427 31.2627 125.8C31.1978 125.67 31.0318 125.613 30.902 125.685C30.7721 125.75 30.7144 125.915 30.7865 126.045C31.1112 126.686 31.4503 127.313 31.7966 127.94C31.8471 128.026 31.9409 128.077 32.0347 128.077L32.0275 128.084ZM157.114 125.598C157.215 125.598 157.309 125.541 157.359 125.447C157.677 124.813 157.987 124.164 158.29 123.516C158.355 123.379 158.29 123.221 158.16 123.156C158.023 123.091 157.864 123.156 157.8 123.285C157.504 123.927 157.193 124.568 156.876 125.195C156.811 125.332 156.862 125.49 156.999 125.555C157.035 125.577 157.078 125.584 157.121 125.584L157.114 125.598ZM29.5311 123.105C29.5672 123.105 29.6033 123.098 29.6393 123.084C29.7764 123.026 29.8342 122.86 29.7764 122.723C29.4806 122.075 29.1992 121.427 28.9251 120.764C28.8673 120.627 28.7086 120.562 28.5715 120.62C28.4344 120.677 28.3695 120.836 28.4272 120.973C28.7014 121.635 28.99 122.291 29.2858 122.947C29.3291 123.048 29.4301 123.105 29.5311 123.105ZM159.401 120.547C159.509 120.547 159.61 120.483 159.654 120.382C159.921 119.719 160.18 119.056 160.433 118.379C160.483 118.242 160.411 118.083 160.274 118.033C160.13 117.983 159.978 118.055 159.928 118.191C159.683 118.854 159.423 119.517 159.156 120.173C159.098 120.31 159.163 120.468 159.307 120.526C159.344 120.54 159.372 120.547 159.408 120.547H159.401ZM27.4388 117.946C27.4388 117.946 27.4965 117.946 27.5325 117.932C27.6696 117.882 27.749 117.73 27.6985 117.586C27.4604 116.916 27.2295 116.246 27.0059 115.569C26.9626 115.425 26.8038 115.345 26.6668 115.396C26.5225 115.439 26.4503 115.598 26.4936 115.735C26.7173 116.419 26.9481 117.096 27.1934 117.774C27.2367 117.882 27.3378 117.954 27.446 117.954L27.4388 117.946ZM161.284 115.324C161.4 115.324 161.508 115.252 161.544 115.137C161.761 114.452 161.963 113.768 162.157 113.083C162.201 112.939 162.114 112.788 161.97 112.752C161.825 112.716 161.674 112.795 161.638 112.939C161.443 113.623 161.241 114.301 161.025 114.978C160.981 115.122 161.061 115.273 161.198 115.317C161.227 115.324 161.256 115.331 161.277 115.331L161.284 115.324ZM25.7649 112.644C25.7649 112.644 25.8154 112.644 25.837 112.636C25.9813 112.6 26.0679 112.449 26.0246 112.305C25.837 111.62 25.6639 110.936 25.4979 110.244C25.4619 110.1 25.3176 110.007 25.1732 110.043C25.0289 110.079 24.9352 110.223 24.9712 110.367C25.1372 111.066 25.3176 111.757 25.5051 112.442C25.5412 112.564 25.6494 112.644 25.7649 112.644ZM162.749 109.963C162.872 109.963 162.98 109.877 163.009 109.754C163.167 109.063 163.319 108.364 163.456 107.658C163.485 107.514 163.391 107.369 163.247 107.341C163.103 107.312 162.958 107.406 162.929 107.55C162.792 108.248 162.641 108.94 162.482 109.632C162.446 109.776 162.54 109.92 162.684 109.956C162.706 109.956 162.727 109.956 162.742 109.956L162.749 109.963ZM24.5167 107.233C24.5167 107.233 24.5528 107.233 24.5672 107.233C24.7115 107.204 24.8125 107.067 24.7836 106.916C24.6538 106.224 24.5311 105.518 24.4229 104.819C24.4012 104.675 24.2642 104.567 24.1126 104.596C23.9683 104.617 23.8673 104.754 23.889 104.905C24.0044 105.611 24.1199 106.318 24.257 107.016C24.2786 107.146 24.394 107.24 24.5239 107.24L24.5167 107.233ZM163.781 104.502C163.911 104.502 164.026 104.408 164.048 104.271C164.156 103.565 164.25 102.859 164.329 102.146C164.344 101.995 164.243 101.865 164.091 101.843C163.947 101.822 163.81 101.93 163.788 102.081C163.701 102.787 163.608 103.493 163.507 104.192C163.485 104.343 163.586 104.48 163.737 104.502C163.752 104.502 163.766 104.502 163.781 104.502ZM23.6942 101.735C23.6942 101.735 23.7158 101.735 23.723 101.735C23.8745 101.721 23.9756 101.584 23.9611 101.44C23.8818 100.734 23.8168 100.028 23.7663 99.3214C23.7519 99.1701 23.6364 99.0476 23.4777 99.0765C23.3262 99.0909 23.218 99.2206 23.2324 99.3647C23.2901 100.078 23.3551 100.791 23.4344 101.497C23.4489 101.634 23.5643 101.735 23.7014 101.735H23.6942ZM164.38 98.9828C164.524 98.9828 164.639 98.8747 164.647 98.7306C164.697 98.0173 164.733 97.304 164.762 96.5907C164.762 96.4394 164.654 96.3169 164.502 96.3097C164.351 96.3313 164.228 96.4178 164.221 96.5691C164.192 97.2824 164.156 97.9885 164.105 98.6946C164.098 98.8459 164.206 98.9684 164.358 98.9828C164.358 98.9828 164.372 98.9828 164.38 98.9828ZM23.319 96.1944H23.3262C23.4777 96.1944 23.5932 96.0648 23.5859 95.9135C23.5643 95.2074 23.5571 94.5013 23.5571 93.788C23.5571 93.6367 23.4344 93.5142 23.2829 93.5142C23.1314 93.5142 23.0087 93.6367 23.0087 93.788C23.0087 94.5085 23.016 95.2218 23.0376 95.9351C23.0376 96.0792 23.1603 96.1944 23.3118 96.1944H23.319ZM164.546 93.4277C164.697 93.4277 164.812 93.3052 164.812 93.1539C164.812 92.4334 164.791 91.7201 164.762 91.0068C164.762 90.8555 164.61 90.7618 164.481 90.7474C164.329 90.7474 164.214 90.8771 164.221 91.0284C164.25 91.7345 164.264 92.4406 164.271 93.1539C164.271 93.3052 164.394 93.4205 164.546 93.4205V93.4277ZM23.319 91.893C23.4633 91.893 23.586 91.7778 23.5932 91.6337C23.6148 90.9204 23.6437 90.2143 23.687 89.5082C23.6942 89.3569 23.5787 89.2344 23.4344 89.22C23.2829 89.1911 23.1603 89.3208 23.1458 89.4722C23.1025 90.1854 23.0737 90.8988 23.052 91.612C23.052 91.7634 23.1675 91.8858 23.3118 91.893H23.319ZM164.286 87.8798C164.286 87.8798 164.3 87.8798 164.307 87.8798C164.459 87.8654 164.567 87.7357 164.553 87.5844C164.488 86.8711 164.416 86.1578 164.336 85.4517C164.322 85.3004 164.178 85.1996 164.033 85.214C163.882 85.2284 163.781 85.3653 163.795 85.5166C163.875 86.2227 163.947 86.9288 164.012 87.6349C164.026 87.779 164.142 87.8798 164.279 87.8798H164.286ZM23.7014 86.3524C23.8385 86.3524 23.9539 86.2515 23.9683 86.1146C24.0477 85.4085 24.1343 84.7024 24.2281 84.0035C24.2497 83.8522 24.1487 83.7225 23.9972 83.7009C23.8457 83.6793 23.7158 83.7874 23.6942 83.9315C23.5932 84.6376 23.5066 85.3509 23.4272 86.057C23.4128 86.2083 23.521 86.338 23.6653 86.3524C23.6725 86.3524 23.687 86.3524 23.6942 86.3524H23.7014ZM163.586 82.3752C163.586 82.3752 163.615 82.3752 163.629 82.3752C163.774 82.3536 163.875 82.2095 163.853 82.0654C163.737 81.3593 163.608 80.6532 163.463 79.9543C163.434 79.8102 163.29 79.7165 163.146 79.7453C163.002 79.7742 162.901 79.9183 162.937 80.0624C163.074 80.754 163.204 81.4529 163.319 82.159C163.341 82.2887 163.456 82.3824 163.586 82.3824V82.3752ZM24.5167 80.8621C24.6465 80.8621 24.7548 80.7757 24.7836 80.646C24.9135 79.9471 25.0578 79.2482 25.2093 78.5637C25.2382 78.4196 25.1516 78.2755 25.0001 78.2395C24.8558 78.2035 24.7115 78.2971 24.6754 78.4484C24.5239 79.1473 24.3796 79.8462 24.2425 80.5523C24.2137 80.6964 24.3147 80.8405 24.459 80.8693C24.4734 80.8693 24.495 80.8693 24.5095 80.8693L24.5167 80.8621ZM162.453 76.9354C162.453 76.9354 162.496 76.9354 162.518 76.9282C162.662 76.8921 162.749 76.748 162.713 76.5967C162.54 75.905 162.352 75.2134 162.165 74.5217C162.121 74.3776 161.977 74.2983 161.833 74.3343C161.688 74.3776 161.602 74.5217 161.645 74.6658C161.84 75.3503 162.02 76.0347 162.193 76.7264C162.222 76.8489 162.338 76.9282 162.453 76.9282V76.9354ZM25.7721 75.4511C25.8947 75.4511 26.003 75.3719 26.0318 75.2494C26.2194 74.5649 26.4142 73.8804 26.6235 73.2032C26.6668 73.0591 26.5874 72.9078 26.4431 72.8645C26.2988 72.8213 26.1473 72.9005 26.104 73.0446C25.8948 73.7291 25.6927 74.4136 25.5051 75.1053C25.4691 75.2494 25.5484 75.4007 25.6927 75.4367C25.7144 75.4367 25.7432 75.4439 25.7649 75.4439L25.7721 75.4511ZM160.895 71.6036C160.895 71.6036 160.952 71.6036 160.981 71.5892C161.126 71.5388 161.198 71.3875 161.154 71.2506C160.924 70.5661 160.686 69.896 160.44 69.2188C160.39 69.0819 160.231 69.0098 160.094 69.0603C159.957 69.1107 159.885 69.2692 159.935 69.4061C160.18 70.0762 160.419 70.7462 160.649 71.4163C160.686 71.5316 160.794 71.6036 160.909 71.6036H160.895ZM27.446 70.1482C27.5542 70.1482 27.6624 70.0834 27.6985 69.9681C27.9366 69.298 28.1891 68.6352 28.4489 67.9795C28.5066 67.8426 28.4344 67.6841 28.2973 67.6265C28.1602 67.576 28.0015 67.6409 27.9438 67.7778C27.6841 68.4406 27.4315 69.1107 27.1862 69.788C27.1357 69.9249 27.2079 70.0834 27.3522 70.1338C27.381 70.1482 27.4099 70.1482 27.446 70.1482ZM158.911 66.3944C158.911 66.3944 158.983 66.3944 159.019 66.3728C159.156 66.3151 159.221 66.1566 159.163 66.0197C158.882 65.3569 158.586 64.7012 158.29 64.0528C158.225 63.9159 158.066 63.8582 157.929 63.9231C157.792 63.9879 157.735 64.1464 157.8 64.2833C158.095 64.9318 158.391 65.5802 158.665 66.2359C158.709 66.3368 158.81 66.4016 158.911 66.4016V66.3944ZM29.5311 65.011C29.6321 65.011 29.7331 64.9534 29.7764 64.8525C30.0722 64.2041 30.3681 63.57 30.6783 62.9288C30.7432 62.7919 30.6855 62.6334 30.5556 62.5685C30.4185 62.5037 30.2598 62.5613 30.1949 62.691C29.8846 63.3323 29.5744 63.9735 29.2858 64.6292C29.2209 64.7661 29.2858 64.9246 29.4229 64.9894C29.459 65.0038 29.495 65.011 29.5311 65.011ZM156.522 61.3725C156.566 61.3725 156.609 61.3653 156.645 61.3437C156.775 61.2716 156.825 61.1131 156.761 60.9762C156.429 60.3422 156.082 59.7153 155.736 59.0885C155.664 58.9588 155.498 58.9156 155.368 58.9876C155.238 59.0597 155.195 59.2254 155.267 59.3551C155.613 59.9747 155.952 60.6015 156.284 61.2284C156.335 61.322 156.429 61.3725 156.522 61.3725ZM32.0203 60.054C32.1141 60.054 32.2079 60.0035 32.2584 59.9171C32.6047 59.2974 32.951 58.685 33.3118 58.0726C33.3911 57.9429 33.3479 57.7772 33.218 57.7051C33.0881 57.6331 32.9221 57.6691 32.85 57.7988C32.4893 58.4112 32.1285 59.0308 31.7894 59.6577C31.7173 59.7874 31.7678 59.9531 31.8976 60.0251C31.9409 60.0467 31.9842 60.0612 32.0275 60.0612L32.0203 60.054ZM153.745 56.5451C153.795 56.5451 153.846 56.5307 153.889 56.5019C154.019 56.4226 154.055 56.2569 153.976 56.1272C153.593 55.522 153.204 54.924 152.807 54.3259C152.72 54.2035 152.554 54.1674 152.432 54.2539C152.309 54.3404 152.273 54.5061 152.359 54.6286C152.756 55.2194 153.146 55.8174 153.521 56.4154C153.572 56.4947 153.658 56.5379 153.752 56.5379L153.745 56.5451ZM34.8919 55.3058C34.9784 55.3058 35.065 55.2626 35.1155 55.1833C35.5051 54.5925 35.9092 54.0089 36.3132 53.4253C36.3998 53.3028 36.3709 53.1371 36.2483 53.0506C36.1256 52.9642 35.9597 52.993 35.8731 53.1155C35.4619 53.6991 35.0578 54.2899 34.6682 54.8879C34.5888 55.0104 34.6177 55.1833 34.7476 55.2626C34.7908 55.2914 34.8414 55.3058 34.8991 55.3058H34.8919ZM150.599 51.9627C150.657 51.9627 150.714 51.9483 150.758 51.9123C150.88 51.8258 150.902 51.6529 150.815 51.5376C150.39 50.9612 149.95 50.3992 149.502 49.8372C149.408 49.7219 149.243 49.7003 149.12 49.794C149.004 49.8876 148.983 50.0534 149.077 50.1758C149.517 50.7306 149.95 51.2926 150.375 51.8618C150.426 51.9339 150.512 51.9699 150.592 51.9699L150.599 51.9627ZM38.1242 50.7955C38.2036 50.7955 38.2829 50.7594 38.3406 50.6946C38.7735 50.1326 39.2209 49.5778 39.6754 49.0374C39.7692 48.9222 39.7548 48.7492 39.6394 48.6556C39.5239 48.5619 39.3508 48.5763 39.257 48.6916C38.8024 49.2392 38.3551 49.8012 37.915 50.3632C37.8212 50.4785 37.8428 50.6514 37.9655 50.745C38.016 50.7811 38.0737 50.8027 38.1314 50.8027L38.1242 50.7955ZM147.1 47.6397C147.165 47.6397 147.23 47.618 147.28 47.5748C147.395 47.4739 147.403 47.3082 147.309 47.193C146.84 46.6526 146.357 46.1266 145.873 45.6006C145.772 45.4926 145.599 45.4854 145.491 45.5862C145.382 45.6871 145.375 45.86 145.476 45.9681C145.96 46.4869 146.436 47.0128 146.905 47.5532C146.955 47.6108 147.035 47.6469 147.107 47.6469L147.1 47.6397ZM41.7101 46.5517C41.7822 46.5517 41.8544 46.5229 41.9121 46.4652C42.3883 45.9393 42.8789 45.4205 43.3695 44.9162C43.4705 44.8081 43.4705 44.6352 43.3695 44.5343C43.2613 44.4334 43.0881 44.4334 42.9871 44.5343C42.4893 45.0459 41.9986 45.5718 41.5152 46.0978C41.4142 46.2059 41.4215 46.3788 41.5297 46.4797C41.5802 46.5301 41.6451 46.5517 41.7101 46.5517ZM143.276 43.6048C143.348 43.6048 143.413 43.576 143.471 43.5256C143.579 43.4175 143.572 43.2446 143.471 43.1437C142.958 42.6466 142.439 42.1494 141.912 41.6667C141.804 41.5658 141.631 41.573 141.53 41.6811C141.429 41.7892 141.436 41.9621 141.544 42.063C142.064 42.5457 142.583 43.0284 143.088 43.5256C143.139 43.576 143.211 43.6048 143.276 43.6048ZM45.6134 42.5961C45.6783 42.5961 45.7432 42.5745 45.8009 42.5241C46.3204 42.0413 46.8471 41.5586 47.381 41.0903C47.4965 40.9894 47.5037 40.8237 47.4027 40.7084C47.3017 40.5931 47.1357 40.5859 47.0203 40.6868C46.4864 41.1623 45.9525 41.6379 45.433 42.1278C45.3248 42.2287 45.3176 42.4016 45.4186 42.5097C45.4691 42.5673 45.5412 42.5961 45.6134 42.5961ZM139.149 39.8798C139.228 39.8798 139.3 39.8438 139.358 39.7862C139.452 39.6709 139.437 39.498 139.322 39.4043C138.774 38.9504 138.218 38.4965 137.655 38.057C137.54 37.9633 137.367 37.9849 137.273 38.1002C137.179 38.2155 137.201 38.3884 137.316 38.4821C137.872 38.9216 138.427 39.3683 138.968 39.8222C139.019 39.8654 139.084 39.887 139.142 39.887L139.149 39.8798ZM49.8197 38.9576C49.8774 38.9576 49.9424 38.936 49.9857 38.8999C50.5412 38.4532 51.104 38.0209 51.674 37.5958C51.7966 37.5094 51.8183 37.3365 51.7245 37.214C51.6379 37.0915 51.4648 37.0699 51.3421 37.1635C50.7721 37.5958 50.2021 38.0353 49.6466 38.4821C49.5311 38.5757 49.5095 38.7486 49.6033 38.8639C49.6538 38.9288 49.7331 38.9648 49.8125 38.9648L49.8197 38.9576ZM134.748 36.4935C134.834 36.4935 134.914 36.4574 134.971 36.3782C135.058 36.2557 135.029 36.09 134.906 36.0035C134.322 35.5928 133.737 35.1821 133.139 34.7931C133.016 34.7138 132.843 34.7426 132.763 34.8651C132.684 34.9876 132.713 35.1605 132.836 35.2398C133.427 35.6289 134.012 36.0323 134.589 36.443C134.639 36.4791 134.69 36.4935 134.748 36.4935ZM54.3002 35.6577C54.3507 35.6577 54.4085 35.6433 54.4518 35.6144C55.0434 35.2182 55.635 34.8219 56.2339 34.4472C56.3565 34.368 56.3998 34.2023 56.3204 34.0726C56.2411 33.9501 56.0751 33.9069 55.9453 33.9861C55.3392 34.368 54.7403 34.7643 54.1487 35.1677C54.0261 35.2542 53.99 35.4199 54.0766 35.5424C54.1271 35.6217 54.2136 35.6577 54.3002 35.6577ZM130.094 33.4673C130.188 33.4673 130.274 33.4169 130.325 33.3377C130.404 33.208 130.361 33.0422 130.231 32.9702C129.618 32.6027 128.997 32.2497 128.377 31.9038C128.247 31.8318 128.081 31.875 128.009 32.0047C127.937 32.1344 127.98 32.3001 128.117 32.3722C128.737 32.718 129.351 33.0711 129.957 33.4313C130 33.4601 130.051 33.4673 130.094 33.4673ZM59.0261 32.718C59.0694 32.718 59.1199 32.7036 59.1632 32.682C59.7836 32.3289 60.4041 31.9903 61.0318 31.6517C61.1617 31.5796 61.2122 31.4211 61.1473 31.2842C61.0751 31.1545 60.9164 31.1041 60.7793 31.1689C60.1444 31.5076 59.5167 31.8462 58.8962 32.2065C58.7663 32.2785 58.723 32.4442 58.7952 32.5739C58.8457 32.6604 58.9395 32.7108 59.0333 32.7108L59.0261 32.718ZM125.217 30.8087C125.318 30.8087 125.411 30.751 125.462 30.6574C125.527 30.5205 125.476 30.362 125.339 30.2971C124.697 29.9801 124.055 29.6775 123.406 29.3749C123.268 29.31 123.11 29.3749 123.045 29.5046C122.98 29.6415 123.045 29.8 123.175 29.8648C123.817 30.1602 124.459 30.4628 125.094 30.7799C125.13 30.8015 125.173 30.8087 125.217 30.8087ZM63.9756 30.1602C64.0116 30.1602 64.0549 30.153 64.091 30.1314C64.7331 29.8288 65.3825 29.5406 66.0391 29.2524C66.1761 29.1948 66.2411 29.0362 66.1833 28.8993C66.1256 28.7625 65.9669 28.6976 65.8298 28.7552C65.1733 29.0362 64.5167 29.3317 63.8673 29.6343C63.7302 29.6991 63.6725 29.8576 63.7375 29.9945C63.7808 30.0954 63.8818 30.153 63.9828 30.153L63.9756 30.1602ZM120.152 28.5463C120.26 28.5463 120.361 28.4815 120.404 28.3734C120.462 28.2365 120.39 28.078 120.253 28.0203C119.589 27.7537 118.918 27.5016 118.247 27.2494C118.11 27.199 117.951 27.271 117.901 27.4079C117.85 27.5448 117.922 27.7033 118.059 27.7537C118.73 27.9987 119.394 28.2509 120.051 28.5175C120.087 28.5319 120.116 28.5391 120.152 28.5391V28.5463ZM69.1126 27.9987C69.1126 27.9987 69.1776 27.9987 69.2064 27.9843C69.8702 27.7321 70.5412 27.4944 71.2194 27.2638C71.3637 27.2134 71.4359 27.0621 71.3854 26.918C71.3349 26.7739 71.1834 26.7018 71.0391 26.7522C70.3608 26.9828 69.6826 27.2278 69.0116 27.48C68.8745 27.5304 68.8024 27.6889 68.8529 27.8258C68.8962 27.9339 68.9972 27.9987 69.1054 27.9987H69.1126ZM114.906 26.6946C115.022 26.6946 115.13 26.6226 115.166 26.5073C115.209 26.3632 115.13 26.2119 114.986 26.1686C114.3 25.9597 113.615 25.7579 112.922 25.5634C112.778 25.5202 112.626 25.6066 112.59 25.7507C112.547 25.8948 112.634 26.0461 112.778 26.0822C113.463 26.2695 114.149 26.4712 114.82 26.6802C114.849 26.6874 114.87 26.6946 114.899 26.6946H114.906ZM74.4012 26.2551C74.4012 26.2551 74.4518 26.2551 74.4734 26.2479C75.1516 26.0534 75.8442 25.866 76.5297 25.6931C76.674 25.6571 76.7606 25.513 76.7245 25.3617C76.6884 25.2176 76.5369 25.1311 76.3926 25.1671C75.7 25.3473 75.0073 25.5274 74.3147 25.7291C74.1704 25.7724 74.091 25.9237 74.1271 26.0606C74.1632 26.183 74.2714 26.2551 74.3868 26.2551H74.4012ZM109.538 25.2536C109.661 25.2536 109.776 25.1671 109.805 25.0446C109.841 24.9005 109.748 24.7564 109.603 24.7204C108.903 24.5619 108.204 24.4178 107.504 24.2809C107.359 24.2521 107.215 24.3458 107.186 24.4971C107.157 24.6412 107.251 24.7853 107.403 24.8141C108.103 24.951 108.795 25.0951 109.488 25.2536C109.509 25.2536 109.531 25.2536 109.546 25.2536H109.538ZM79.7981 24.9366C79.7981 24.9366 79.8341 24.9366 79.8558 24.9366C80.5484 24.7925 81.2483 24.6628 81.9481 24.5475C82.0924 24.5187 82.1935 24.3818 82.1718 24.2377C82.143 24.0936 82.0059 23.9999 81.8616 24.0143C81.1545 24.1368 80.4474 24.2665 79.7476 24.4106C79.6033 24.4394 79.5095 24.5835 79.5383 24.7276C79.5672 24.8573 79.6754 24.9438 79.8053 24.9438L79.7981 24.9366ZM104.069 24.2449C104.199 24.2449 104.315 24.1512 104.336 24.0143C104.358 23.863 104.257 23.7261 104.105 23.7117C103.398 23.6108 102.691 23.5172 101.977 23.4379C101.833 23.4307 101.696 23.5244 101.681 23.6757C101.667 23.827 101.768 23.9567 101.919 23.9783C102.626 24.0576 103.333 24.1512 104.033 24.2521C104.048 24.2521 104.062 24.2521 104.069 24.2521V24.2449ZM85.2887 24.0431C85.2887 24.0431 85.3103 24.0431 85.3248 24.0431C86.0318 23.9567 86.7317 23.8846 87.446 23.8198C87.5975 23.8054 87.7057 23.6757 87.6913 23.5244C87.6769 23.3731 87.547 23.2506 87.3955 23.2794C86.6812 23.3443 85.9669 23.4163 85.2598 23.51C85.1083 23.5316 85.0073 23.6613 85.0217 23.8126C85.0362 23.9495 85.1588 24.0504 85.2887 24.0504V24.0431ZM98.5354 23.6757C98.6797 23.6757 98.7952 23.5676 98.8024 23.4235C98.8096 23.2722 98.7014 23.1425 98.5499 23.1353C97.8356 23.0921 97.1213 23.0561 96.407 23.0272C96.2411 23.0272 96.1328 23.1425 96.1256 23.2866C96.1256 23.4379 96.2411 23.5604 96.3854 23.5676C97.0997 23.5892 97.8067 23.6253 98.5138 23.6757H98.5282H98.5354ZM90.837 23.5892H90.8515C91.5585 23.5604 92.2656 23.5388 92.9799 23.5316C93.1314 23.5316 93.2468 23.4091 93.2468 23.2578C93.2468 23.1065 93.1242 22.9912 92.9727 22.9912C92.2512 22.9984 91.5369 23.02 90.8226 23.0489C90.6711 23.0489 90.5556 23.1785 90.5629 23.3298C90.5629 23.4739 90.6855 23.5892 90.8298 23.5892H90.837Z" fill="#ECF4F8"/>
<g id="Group_2">
<g id="Group_3">
<path id="Vector_5" d="M93.919 132.803C72.3417 132.803 54.8498 115.335 54.8498 93.7878C54.8498 72.2402 72.3417 54.7725 93.919 54.7725C115.496 54.7725 132.988 72.2402 132.988 93.7878C132.988 115.335 115.496 132.803 93.919 132.803Z" fill="#130C49"/>
<path id="Vector_6" d="M93.919 133.416C115.795 133.416 133.602 115.641 133.602 93.7879C133.602 71.935 115.802 54.1602 93.919 54.1602C72.0359 54.1602 54.2365 71.935 54.2365 93.7879C54.2365 115.641 72.0359 133.416 93.919 133.416ZM93.919 55.3778C115.131 55.3778 132.382 72.6123 132.382 93.7879C132.382 114.964 115.124 132.198 93.919 132.198C72.7141 132.198 55.4558 114.964 55.4558 93.7879C55.4558 72.6123 72.7141 55.3778 93.919 55.3778Z" fill="#ECF4F8"/>
</g>
<path id="Vector_7" d="M102.482 80.5887C102.627 80.5959 102.764 80.6031 102.901 80.6103C105.83 80.6247 108.759 80.6319 111.689 80.6391C112.013 80.6391 112.36 80.6535 112.684 80.7183C115.549 81.3092 117.562 83.7301 117.576 86.6121C117.598 91.9798 117.591 97.4412 117.576 102.73C117.576 104.207 117.576 105.684 117.576 107.161C117.576 107.672 117.511 108.155 117.389 108.587C116.602 111.361 114.221 113.155 111.314 113.17C109.625 113.17 107.785 113.177 105.534 113.177C104.236 113.177 102.937 113.177 101.638 113.177C100.585 113.177 99.5315 113.177 98.4708 113.177C91.1909 113.177 83.911 113.177 76.631 113.177C76.1693 113.177 75.6859 113.17 75.2241 113.069C71.9485 112.385 70.2169 109.402 70.2457 106.937C70.2962 102.953 70.2818 98.9111 70.2674 94.9987C70.2674 93.4713 70.2602 91.951 70.2529 90.4235C70.2529 90.1425 70.2529 89.8687 70.2529 89.5877C70.2529 88.4277 70.2529 87.2245 70.2746 86.0501C70.3323 83.8742 72.4247 80.7039 76.0682 80.6607C77.5185 80.6463 78.9615 80.6391 80.6714 80.6391H81.5733H82.4752C83.1967 80.6391 83.9254 80.6391 84.6469 80.6391C84.6974 80.6391 84.7479 80.6391 84.7984 80.6391C84.8633 80.6391 84.9355 80.6391 85.0004 80.6391C85.188 80.6391 85.4766 80.6175 85.7652 80.459L85.9745 80.3437L86.0394 80.1131C86.1332 79.7745 86.126 79.4431 86.1188 79.1476C86.1188 79.0324 86.1188 78.9243 86.1188 78.8234C86.1404 78.1389 86.2414 77.5986 86.4362 77.1158C87.1144 75.4226 88.6224 74.45 90.5704 74.4355C91.4506 74.4355 92.3164 74.4355 93.0596 74.4355H93.911H94.7623C95.4838 74.4355 96.2053 74.4355 96.9268 74.4355H96.9557C97.367 74.4355 97.7999 74.4788 98.2688 74.5724C100.015 74.9111 101.299 76.2152 101.609 77.9876C101.667 78.2902 101.667 78.6145 101.667 78.9603C101.667 79.3278 101.667 79.7024 101.732 80.1131L101.804 80.5742L102.266 80.5959C102.345 80.5959 102.417 80.6031 102.49 80.6103L102.482 80.5887ZM108.868 95.5175V110.951L109.416 110.972L109.726 110.987C110.152 111.008 110.556 111.023 110.96 111.023C111.364 111.023 111.746 111.001 112.086 110.965C113.983 110.742 115.376 109.149 115.397 107.19C115.412 105.525 115.412 103.832 115.412 102.197C115.412 101.656 115.412 101.109 115.412 100.568C115.412 99.0768 115.412 97.5781 115.412 96.0867C115.412 92.9669 115.412 89.7391 115.412 86.5688C115.412 85.3512 115.029 84.4145 114.243 83.7084C113.608 83.1392 112.85 82.8582 111.985 82.8582C111.876 82.8582 111.768 82.8582 111.653 82.8727L111.371 82.8943L111.22 83.132C111.003 83.4707 111.025 83.8021 111.039 84.0183C111.039 84.0615 111.039 84.0975 111.039 84.1407C111.039 84.6955 111.039 85.2431 111.039 85.7979C111.039 87.3542 111.025 88.9681 111.047 90.5604C111.068 92.1383 110.549 93.4785 109.452 94.6529C109.351 94.761 109.257 94.869 109.156 94.9843C109.113 95.0348 109.062 95.0924 109.012 95.15L108.868 95.3086V95.5247V95.5175ZM81.3713 96.7279V110.735L81.7753 110.857C81.8763 110.886 82.1433 110.965 93.8605 110.965C99.3439 110.965 105.946 110.944 106.306 110.85L106.732 110.742V96.4037L106.335 96.2812C105.809 96.1155 102.187 96.1155 101.775 96.1155C101.083 96.1155 99.4016 96.1227 98.8027 96.1948L98.6151 96.2164L98.4781 96.3461C98.1534 96.6559 98.1822 97.0522 98.1895 97.2395C98.1895 97.2683 98.1895 97.3043 98.1895 97.3332C98.1895 97.679 98.1895 98.0249 98.1895 98.3563C98.1895 98.839 98.1895 99.3434 98.175 99.8261C98.1462 100.756 97.771 101.454 97.0278 101.966C96.631 102.24 96.2342 102.369 95.8085 102.369H95.7941C95.5488 102.369 95.3035 102.369 95.0582 102.369C94.8489 102.369 94.6325 102.369 94.4232 102.369C94.214 102.369 93.9975 102.369 93.7883 102.369C93.3843 102.369 92.8504 102.369 92.3164 102.355C90.8374 102.319 89.6613 101.13 89.6469 99.646C89.6469 99.1993 89.6469 98.7382 89.6541 98.2914C89.6541 98.0032 89.6613 97.715 89.6613 97.4268C89.6613 97.3908 89.6613 97.3476 89.6613 97.3116C89.6758 97.0954 89.6974 96.764 89.481 96.4181L89.315 96.1515H81.3785V96.7207L81.3713 96.7279ZM96.1188 93.709L96.0682 93.1975H91.7104V100.273H95.9239L96.0394 99.8549C96.2126 99.2281 96.2414 94.9627 96.1188 93.709ZM78.3338 94.3575C77.403 93.3704 76.9557 92.2176 76.9557 90.8342C76.9557 89.2851 76.9557 87.7072 76.9557 86.187C76.9557 85.5313 76.9557 84.8757 76.9557 84.22V82.8294L76.4001 82.815C76.3424 82.815 76.2847 82.815 76.227 82.815C75.5055 82.815 74.8778 82.9591 74.3006 83.2473C73.175 83.8165 72.5545 84.746 72.504 85.9204C72.468 86.7346 72.468 87.5631 72.468 88.3629C72.468 88.5574 72.468 88.7448 72.468 88.9393C72.468 90.9423 72.4607 92.9453 72.4535 94.9483C72.4463 98.8462 72.4319 102.874 72.4175 106.844C72.4175 108.458 73.0379 109.668 74.2861 110.446C74.8561 110.799 75.354 110.98 75.8662 111.001C76.1909 111.016 76.5517 111.023 76.9846 111.023C77.2443 111.023 77.504 111.023 77.771 111.023C78.0524 111.023 78.3338 111.023 78.6296 111.023H79.1996V110.454C79.214 106.988 79.214 103.486 79.214 100.1C79.214 98.5796 79.214 97.0666 79.214 95.5463V95.323L79.0625 95.1573L78.8388 94.9195L78.3265 94.3791L78.3338 94.3575ZM99.5315 78.1678C99.3583 77.2455 98.5358 76.5754 97.569 76.5754C96.6671 76.5754 95.7724 76.5754 94.8706 76.5754C93.2688 76.5754 91.8042 76.5754 90.39 76.5899C89.2068 76.5971 88.4059 77.3248 88.2544 78.528C88.1895 79.0252 88.1895 79.5295 88.2544 80.0843L88.3121 80.5887H99.416L99.5098 80.1347C99.6469 79.4863 99.6541 78.8234 99.5315 78.175V78.1678ZM79.7551 82.851H79.517L79.3511 83.0168C79.0553 83.3122 79.0697 83.658 79.0697 83.8309C79.0697 83.8525 79.0697 83.8669 79.0697 83.8886C79.0553 86.4896 79.0481 88.6151 79.0408 90.5748C79.0408 90.9927 79.0408 91.5187 79.2645 92.0375C79.8128 93.3056 80.7869 93.9828 82.0928 93.9972C82.8215 94.0044 83.6151 94.0116 84.5242 94.0116C85.3684 94.0116 86.2126 94.0117 87.0567 94.0044C87.6628 94.0044 88.2616 94.0044 88.8677 94.0044C89.0336 94.0044 89.1563 93.9396 89.214 93.9108L89.2934 93.882L89.3655 93.8171C89.6036 93.6082 89.6469 93.356 89.6685 93.2191V93.1831C89.8417 92.2969 90.3684 91.2305 91.898 91.1584C92.5906 91.1296 93.3121 91.108 94.0408 91.108C94.7263 91.108 95.4478 91.1224 96.1765 91.1512C97.2443 91.1945 98.0019 91.9222 98.1967 93.0966C98.2039 93.1543 98.2111 93.2191 98.2183 93.2767C98.2183 93.3128 98.2183 93.3416 98.2255 93.3704L98.24 93.5217L98.3338 93.6442C98.5141 93.8964 98.7739 94.0189 99.1058 94.0189C99.1274 94.0189 99.1491 94.0189 99.1635 94.0189H99.1996C99.9571 94.0189 100.715 94.0189 101.472 94.0116C102.482 94.0116 103.5 94.0044 104.51 94.0044C104.972 94.0044 105.433 94.0044 105.888 94.0044H105.902C107.771 94.0044 108.911 92.5418 108.933 91.1224C108.961 89.3212 108.954 87.5631 108.947 85.697C108.947 84.9477 108.947 84.1984 108.947 83.4346V82.8654H79.7623L79.7551 82.851Z" fill="#61BB73"/>
</g>
</g>
<defs>
<clipPath id="clip0_10186_1401">
<rect width="220" height="192" fill="white" transform="matrix(-1 0 0 1 220 0)"/>
</clipPath>
</defs>
</svg>
