<svg width="55" height="58" viewBox="0 0 55 58" fill="none" xmlns="http://www.w3.org/2000/svg">
<g id="byoc-icon-03">
<path id="Vector" d="M36.72 21.2002H0V57.9202H36.72V21.2002Z" fill="#61BD73"/>
<path id="Vector_2" d="M43.53 5.64965C43.26 5.50965 42.99 5.37965 42.71 5.25965C41.13 4.54965 39.44 4.04965 37.68 3.80965C37.38 3.76965 37.08 3.72965 36.78 3.70965C36.25 3.65965 35.71 3.63965 35.17 3.63965C24.88 3.63965 16.5 12.1396 16.5 22.5996C16.5 23.0196 16.51 23.4396 16.54 23.8496C16.56 24.1596 16.59 24.4597 16.62 24.7596C16.83 26.6396 17.31 28.4396 18.03 30.0996C18.15 30.3897 18.27 30.6696 18.41 30.9396C21.46 37.2197 27.83 41.5496 35.17 41.5496C38.84 41.5496 42.26 40.4697 45.14 38.6096C45.39 38.4496 45.64 38.2796 45.89 38.0996C47.56 36.9096 49.02 35.4496 50.23 33.7796C50.41 33.5296 50.58 33.2796 50.75 33.0296C52.71 30.0396 53.84 26.4496 53.84 22.5896C53.84 15.1796 49.64 8.75965 43.54 5.63965L43.53 5.64965ZM50.65 32.1296C50.5 32.3896 50.34 32.6396 50.17 32.8896C48.8 34.9396 47.04 36.6996 44.99 38.0496C44.74 38.2196 44.49 38.3696 44.23 38.5296C41.56 40.1096 38.46 41.0096 35.16 41.0096C28.28 41.0096 22.29 37.0996 19.22 31.3496C19.08 31.0796 18.94 30.8097 18.81 30.5396C17.86 28.5396 17.26 26.3296 17.09 24.0096C17.06 23.7097 17.05 23.4096 17.04 23.0996C17.04 22.9296 17.04 22.7696 17.04 22.5996C17.04 12.4496 25.17 4.19965 35.16 4.19965C35.45 4.19965 35.74 4.19965 36.03 4.21965C36.33 4.22965 36.62 4.24965 36.92 4.28965C39.12 4.49965 41.22 5.11965 43.12 6.06965C43.39 6.19965 43.65 6.33965 43.91 6.48965C49.49 9.62965 53.28 15.6696 53.28 22.5996C53.28 26.0896 52.32 29.3496 50.66 32.1296H50.65Z" fill="#130C49" stroke="#130C49" stroke-width="0.5" stroke-miterlimit="10"/>
<path id="Vector_3" d="M43.9117 6.48977C43.7917 6.19977 43.6617 5.91977 43.5317 5.64977C43.2617 5.50977 42.9917 5.37977 42.7117 5.25977C42.8517 5.52977 42.9917 5.79977 43.1217 6.06977C44.2617 8.46977 44.8917 11.1698 44.8917 13.9998C44.8917 15.9798 44.5817 17.8898 44.0017 19.6798C43.9417 19.8698 43.8817 20.0598 43.8117 20.2498C41.9617 25.4398 37.8717 29.5598 32.7317 31.3798C32.5517 31.4398 32.3617 31.5098 32.1717 31.5598C30.4617 32.1098 28.6517 32.3998 26.7617 32.3998C23.9117 32.3998 21.2017 31.7298 18.8017 30.5298C18.5317 30.3998 18.2717 30.2598 18.0117 30.0998C18.1317 30.3898 18.2517 30.6698 18.3917 30.9398C18.6617 31.0698 18.9417 31.2098 19.2117 31.3298C21.5217 32.3798 24.0817 32.9498 26.7617 32.9498C28.7817 32.9498 30.7317 32.6198 32.5517 32.0198C32.7417 31.9598 32.9217 31.8998 33.1117 31.8198C38.2417 29.9298 42.3317 25.8198 44.2517 20.6298C44.3217 20.4498 44.3917 20.2598 44.4517 20.0698C45.0817 18.1598 45.4317 16.1098 45.4317 13.9898C45.4317 11.3198 44.8817 8.77977 43.9017 6.47977L43.9117 6.48977Z" fill="#130C49" stroke="#130C49" stroke-width="0.5" stroke-miterlimit="10"/>
<path id="Vector_4" d="M33.112 31.84C32.982 31.69 32.862 31.54 32.732 31.39C30.172 28.22 28.632 24.16 28.632 19.74C28.632 18.52 28.752 17.32 28.972 16.17C29.012 15.97 29.052 15.78 29.092 15.58C30.172 10.87 33.032 6.83996 36.912 4.28996C37.162 4.11996 37.412 3.96996 37.672 3.80996C37.372 3.76996 37.072 3.72996 36.772 3.70996C36.522 3.86996 36.272 4.03996 36.032 4.21996C32.272 6.90996 29.532 10.97 28.512 15.68C28.472 15.88 28.432 16.08 28.392 16.28C28.182 17.4 28.082 18.55 28.082 19.73C28.082 24.2 29.612 28.32 32.182 31.57C32.302 31.73 32.432 31.88 32.562 32.03C35.472 35.49 39.582 37.88 44.232 38.52C44.532 38.56 44.832 38.6 45.132 38.62C45.382 38.46 45.632 38.29 45.882 38.11C45.582 38.1 45.292 38.08 44.992 38.04C40.272 37.58 36.072 35.27 33.122 31.83L33.112 31.84Z" fill="#130C49" stroke="#130C49" stroke-width="0.5" stroke-miterlimit="10"/>
<path id="Vector_5" d="M50.6517 32.1301C50.1217 27.3501 47.8217 23.1101 44.4517 20.0901C44.3017 19.9601 44.1517 19.8201 43.9917 19.6901C40.7617 16.9701 36.6117 15.3301 32.0917 15.3301C31.0717 15.3301 30.0617 15.4101 29.0817 15.5801C28.8817 15.6101 28.6917 15.6501 28.5017 15.6901C23.8217 16.6201 19.7617 19.3401 17.0317 23.1101C16.8517 23.3601 16.6817 23.6101 16.5117 23.8701C16.5317 24.1801 16.5617 24.4801 16.5917 24.7801C16.7417 24.5201 16.9017 24.2701 17.0717 24.0201C19.6617 20.1201 23.6817 17.2801 28.3717 16.2901C28.5617 16.2501 28.7617 16.2101 28.9517 16.1701C29.9717 15.9901 31.0217 15.9001 32.0817 15.9001C36.5417 15.9001 40.6317 17.5401 43.7917 20.2601C43.9417 20.3901 44.0817 20.5201 44.2317 20.6601C47.5717 23.7301 49.7917 28.0601 50.1417 32.9001C50.1717 33.2001 50.1817 33.5001 50.1917 33.8001C50.3717 33.5501 50.5417 33.3001 50.7117 33.0501C50.6917 32.7401 50.6617 32.4401 50.6317 32.1401L50.6517 32.1301Z" fill="#130C49" stroke="#130C49" stroke-width="0.5" stroke-miterlimit="10"/>
<path id="Vector_6" d="M43.3891 8.61984C44.9631 8.61984 46.2391 7.32595 46.2391 5.72984C46.2391 4.13374 44.9631 2.83984 43.3891 2.83984C41.815 2.83984 40.5391 4.13374 40.5391 5.72984C40.5391 7.32595 41.815 8.61984 43.3891 8.61984Z" fill="white" stroke="#130C49" stroke-miterlimit="10"/>
<path id="Vector_7" d="M36.6195 6.78C38.1935 6.78 39.4695 5.4861 39.4695 3.89C39.4695 2.2939 38.1935 1 36.6195 1C35.0455 1 33.7695 2.2939 33.7695 3.89C33.7695 5.4861 35.0455 6.78 36.6195 6.78Z" fill="white" stroke="#130C49" stroke-miterlimit="10"/>
<path id="Vector_8" d="M28.7328 18.82C30.3068 18.82 31.5828 17.5261 31.5828 15.93C31.5828 14.3339 30.3068 13.04 28.7328 13.04C27.1588 13.04 25.8828 14.3339 25.8828 15.93C25.8828 17.5261 27.1588 18.82 28.7328 18.82Z" fill="white" stroke="#130C49" stroke-miterlimit="10"/>
<path id="Vector_9" d="M44.2094 23.07C45.7834 23.07 47.0594 21.7761 47.0594 20.18C47.0594 18.5839 45.7834 17.29 44.2094 17.29C42.6354 17.29 41.3594 18.5839 41.3594 20.18C41.3594 21.7761 42.6354 23.07 44.2094 23.07Z" fill="white" stroke="#130C49" stroke-miterlimit="10"/>
<path id="Vector_10" d="M32.8695 34.4499C34.4435 34.4499 35.7195 33.156 35.7195 31.5599C35.7195 29.9638 34.4435 28.6699 32.8695 28.6699C31.2955 28.6699 30.0195 29.9638 30.0195 31.5599C30.0195 33.156 31.2955 34.4499 32.8695 34.4499Z" fill="#61BD73" stroke="#130C49" stroke-miterlimit="10"/>
<path id="Vector_11" d="M16.85 26.74C18.424 26.74 19.7 25.4461 19.7 23.85C19.7 22.2539 18.424 20.96 16.85 20.96C15.276 20.96 14 22.2539 14 23.85C14 25.4461 15.276 26.74 16.85 26.74Z" fill="#61BD73" stroke="#130C49" stroke-miterlimit="10"/>
<path id="Vector_12" d="M18.6508 33.6003C20.2248 33.6003 21.5008 32.3064 21.5008 30.7103C21.5008 29.1142 20.2248 27.8203 18.6508 27.8203C17.0768 27.8203 15.8008 29.1142 15.8008 30.7103C15.8008 32.3064 17.0768 33.6003 18.6508 33.6003Z" fill="#61BD73" stroke="#130C49" stroke-miterlimit="10"/>
<path id="Vector_13" d="M45.6313 40.9597C47.2053 40.9597 48.4813 39.6658 48.4813 38.0697C48.4813 36.4736 47.2053 35.1797 45.6313 35.1797C44.0572 35.1797 42.7812 36.4736 42.7812 38.0697C42.7812 39.6658 44.0572 40.9597 45.6313 40.9597Z" fill="white" stroke="#130C49" stroke-miterlimit="10"/>
<path id="Vector_14" d="M50.6 35.9499C52.174 35.9499 53.45 34.656 53.45 33.0599C53.45 31.4638 52.174 30.1699 50.6 30.1699C49.026 30.1699 47.75 31.4638 47.75 33.0599C47.75 34.656 49.026 35.9499 50.6 35.9499Z" fill="white" stroke="#130C49" stroke-miterlimit="10"/>
</g>
</svg>
