<svg width="53" height="55" viewBox="0 0 53 55" fill="none" xmlns="http://www.w3.org/2000/svg">
<g id="byoc-icon-01">
<path id="Vector" d="M36.72 17.3799H0V54.0999H36.72V17.3799Z" fill="#61BD73"/>
<g id="Group 2832">
<path id="Vector_2" d="M36.6192 33.3L36.2492 33.09C33.2092 31.38 27.5792 27.42 24.0392 20.21C21.1592 14.33 20.8292 8.76 21.0592 5.12L21.0792 4.74L21.3992 4.53C24.0492 2.82 29.5192 0 36.7592 0C36.8992 0 37.0392 0 37.1892 0C43.8792 0.1 48.9892 2.52 52.1092 4.52L52.4292 4.73L52.4492 5.11C52.6492 8.88 52.2392 14.65 49.0892 20.68C45.4592 27.64 39.9392 31.43 36.9792 33.08L36.6092 33.28L36.6192 33.3ZM22.5392 5.6C22.3692 9.06 22.7492 14.18 25.3892 19.56C28.6192 26.13 33.6692 29.85 36.6192 31.58C39.5092 29.92 44.4592 26.34 47.7592 20.01C50.6492 14.48 51.1192 9.18 50.9692 5.6C47.9892 3.74 43.2692 1.61 37.1592 1.52C30.4192 1.44 25.1892 3.94 22.5292 5.6H22.5392Z" fill="#130C49"/>
<path id="Vector_3" d="M36.7498 14.53C38.4951 14.53 39.9098 13.1152 39.9098 11.37C39.9098 9.62474 38.4951 8.20996 36.7498 8.20996C35.0046 8.20996 33.5898 9.62474 33.5898 11.37C33.5898 13.1152 35.0046 14.53 36.7498 14.53Z" fill="#130C49"/>
<path id="Vector_4" d="M39.3889 21.2098H34.1289L35.3089 13.2998H38.1689L39.3889 21.2098Z" fill="#130C49"/>
</g>
</g>
</svg>
