<svg width="52" height="49" viewBox="0 0 52 49" fill="none" xmlns="http://www.w3.org/2000/svg">
<g id="byoc-icon-02">
<path id="Vector" d="M36.72 11.3896H0V48.1096H36.72V11.3896Z" fill="#61BD73"/>
<g id="Group 2833">
<path id="Vector_2" d="M16.42 7.57012V1.13012H15V0.120117H17.6V7.57012H16.42Z" fill="#130C49"/>
<path id="Vector_3" d="M22.1692 7.69C21.5792 7.69 21.0692 7.53 20.6192 7.21C20.1692 6.89 19.8292 6.44 19.5792 5.86C19.3292 5.28 19.1992 4.61 19.1992 3.84C19.1992 3.07 19.3192 2.39 19.5792 1.82C19.8392 1.25 20.1692 0.8 20.6092 0.48C21.0492 0.16 21.5692 0 22.1592 0C22.7492 0 23.2792 0.16 23.7192 0.48C24.1592 0.8 24.5092 1.25 24.7592 1.82C25.0092 2.4 25.1392 3.07 25.1392 3.83C25.1392 4.59 25.0192 5.27 24.7692 5.85C24.5192 6.43 24.1792 6.88 23.7292 7.2C23.2792 7.52 22.7592 7.69 22.1692 7.69ZM22.1792 6.61C22.5492 6.61 22.8592 6.5 23.1292 6.27C23.3992 6.04 23.5992 5.72 23.7492 5.31C23.8992 4.9 23.9692 4.41 23.9692 3.84C23.9692 3.27 23.8992 2.78 23.7492 2.37C23.5992 1.96 23.3892 1.64 23.1292 1.41C22.8592 1.19 22.5392 1.08 22.1692 1.08C21.7992 1.08 21.4892 1.19 21.2192 1.41C20.9492 1.63 20.7492 1.95 20.5992 2.37C20.4492 2.78 20.3792 3.27 20.3792 3.84C20.3792 4.41 20.4492 4.89 20.5992 5.31C20.7492 5.73 20.9592 6.05 21.2192 6.27C21.4892 6.5 21.8092 6.61 22.1792 6.61Z" fill="#130C49"/>
<path id="Vector_4" d="M27.4981 7.57012V1.13012H26.0781V0.120117H28.6781V7.57012H27.4981Z" fill="#130C49"/>
<path id="Vector_5" d="M31.42 7.57012V1.13012H30V0.120117H32.6V7.57012H31.42Z" fill="#130C49"/>
<path id="Vector_6" d="M37.1692 7.69C36.5792 7.69 36.0692 7.53 35.6192 7.21C35.1692 6.89 34.8292 6.44 34.5792 5.86C34.3292 5.28 34.1992 4.61 34.1992 3.84C34.1992 3.07 34.3192 2.39 34.5792 1.82C34.8392 1.25 35.1692 0.8 35.6092 0.48C36.0492 0.16 36.5692 0 37.1592 0C37.7492 0 38.2792 0.16 38.7192 0.48C39.1592 0.8 39.5092 1.25 39.7592 1.82C40.0092 2.4 40.1392 3.07 40.1392 3.83C40.1392 4.59 40.0192 5.27 39.7692 5.85C39.5192 6.43 39.1792 6.88 38.7292 7.2C38.2792 7.52 37.7592 7.69 37.1692 7.69ZM37.1792 6.61C37.5492 6.61 37.8592 6.5 38.1292 6.27C38.3992 6.04 38.5992 5.72 38.7492 5.31C38.8992 4.9 38.9692 4.41 38.9692 3.84C38.9692 3.27 38.8992 2.78 38.7492 2.37C38.5992 1.96 38.3892 1.64 38.1292 1.41C37.8592 1.19 37.5392 1.08 37.1692 1.08C36.7992 1.08 36.4892 1.19 36.2192 1.41C35.9492 1.63 35.7492 1.95 35.5992 2.37C35.4492 2.78 35.3792 3.27 35.3792 3.84C35.3792 4.41 35.4492 4.89 35.5992 5.31C35.7492 5.73 35.9592 6.05 36.2192 6.27C36.4892 6.5 36.8092 6.61 37.1792 6.61Z" fill="#130C49"/>
<path id="Vector_7" d="M42.4981 7.57012V1.13012H41.0781V0.120117H43.6781V7.57012H42.4981Z" fill="#130C49"/>
<path id="Vector_8" d="M48.2473 7.69C47.6573 7.69 47.1473 7.53 46.6973 7.21C46.2473 6.89 45.9073 6.44 45.6573 5.86C45.4073 5.28 45.2773 4.61 45.2773 3.84C45.2773 3.07 45.3973 2.39 45.6573 1.82C45.9173 1.25 46.2473 0.8 46.6873 0.48C47.1273 0.16 47.6473 0 48.2373 0C48.8273 0 49.3573 0.16 49.7973 0.48C50.2373 0.8 50.5873 1.25 50.8373 1.82C51.0873 2.4 51.2173 3.07 51.2173 3.83C51.2173 4.59 51.0973 5.27 50.8473 5.85C50.5973 6.43 50.2573 6.88 49.8073 7.2C49.3573 7.52 48.8373 7.69 48.2473 7.69ZM48.2573 6.61C48.6273 6.61 48.9373 6.5 49.2073 6.27C49.4773 6.04 49.6773 5.72 49.8273 5.31C49.9773 4.9 50.0473 4.41 50.0473 3.84C50.0473 3.27 49.9773 2.78 49.8273 2.37C49.6773 1.96 49.4673 1.64 49.2073 1.41C48.9373 1.19 48.6173 1.08 48.2473 1.08C47.8773 1.08 47.5673 1.19 47.2973 1.41C47.0273 1.63 46.8273 1.95 46.6773 2.37C46.5273 2.78 46.4573 3.27 46.4573 3.84C46.4573 4.41 46.5273 4.89 46.6773 5.31C46.8273 5.73 47.0373 6.05 47.2973 6.27C47.5673 6.5 47.8873 6.61 48.2573 6.61Z" fill="#130C49"/>
<path id="Vector_9" d="M21.7473 19.69C21.1573 19.69 20.6473 19.53 20.1973 19.21C19.7473 18.89 19.4073 18.44 19.1573 17.86C18.9073 17.28 18.7773 16.61 18.7773 15.84C18.7773 15.07 18.8973 14.39 19.1573 13.82C19.4173 13.25 19.7473 12.8 20.1873 12.48C20.6273 12.16 21.1473 12 21.7373 12C22.3273 12 22.8573 12.16 23.2973 12.48C23.7373 12.8 24.0873 13.25 24.3373 13.82C24.5873 14.4 24.7173 15.07 24.7173 15.83C24.7173 16.59 24.5973 17.27 24.3473 17.85C24.0973 18.43 23.7573 18.88 23.3073 19.2C22.8573 19.52 22.3373 19.69 21.7473 19.69ZM21.7573 18.61C22.1273 18.61 22.4373 18.5 22.7073 18.27C22.9773 18.04 23.1773 17.72 23.3273 17.31C23.4773 16.9 23.5473 16.41 23.5473 15.84C23.5473 15.27 23.4773 14.78 23.3273 14.37C23.1773 13.96 22.9673 13.64 22.7073 13.41C22.4373 13.19 22.1173 13.08 21.7473 13.08C21.3773 13.08 21.0673 13.19 20.7973 13.41C20.5273 13.63 20.3273 13.95 20.1773 14.37C20.0273 14.78 19.9573 15.27 19.9573 15.84C19.9573 16.41 20.0273 16.89 20.1773 17.31C20.3273 17.73 20.5373 18.05 20.7973 18.27C21.0673 18.5 21.3873 18.61 21.7573 18.61Z" fill="#130C49"/>
<path id="Vector_10" d="M27.0684 19.5701V13.1301H25.6484V12.1201H28.2484V19.5701H27.0684Z" fill="#130C49"/>
<path id="Vector_11" d="M30.9981 19.5701V13.1301H29.5781V12.1201H32.1781V19.5701H30.9981Z" fill="#130C49"/>
<path id="Vector_12" d="M36.7473 19.69C36.1573 19.69 35.6473 19.53 35.1973 19.21C34.7473 18.89 34.4073 18.44 34.1573 17.86C33.9073 17.28 33.7773 16.61 33.7773 15.84C33.7773 15.07 33.8973 14.39 34.1573 13.82C34.4173 13.25 34.7473 12.8 35.1873 12.48C35.6273 12.16 36.1473 12 36.7373 12C37.3273 12 37.8573 12.16 38.2973 12.48C38.7373 12.8 39.0873 13.25 39.3373 13.82C39.5873 14.4 39.7173 15.07 39.7173 15.83C39.7173 16.59 39.5973 17.27 39.3473 17.85C39.0973 18.43 38.7573 18.88 38.3073 19.2C37.8573 19.52 37.3373 19.69 36.7473 19.69ZM36.7573 18.61C37.1273 18.61 37.4373 18.5 37.7073 18.27C37.9773 18.04 38.1773 17.72 38.3273 17.31C38.4773 16.9 38.5473 16.41 38.5473 15.84C38.5473 15.27 38.4773 14.78 38.3273 14.37C38.1773 13.96 37.9673 13.64 37.7073 13.41C37.4373 13.19 37.1173 13.08 36.7473 13.08C36.3773 13.08 36.0673 13.19 35.7973 13.41C35.5273 13.63 35.3273 13.95 35.1773 14.37C35.0273 14.78 34.9573 15.27 34.9573 15.84C34.9573 16.41 35.0273 16.89 35.1773 17.31C35.3273 17.73 35.5373 18.05 35.7973 18.27C36.0673 18.5 36.3873 18.61 36.7573 18.61Z" fill="#130C49"/>
<path id="Vector_13" d="M42.0684 19.5701V13.1301H40.6484V12.1201H43.2484V19.5701H42.0684Z" fill="#130C49"/>
<path id="Vector_14" d="M45.9903 19.5701V13.1301H44.5703V12.1201H47.1703V19.5701H45.9903Z" fill="#130C49"/>
<path id="Vector_15" d="M49.9083 19.5701V13.1301H48.4883V12.1201H51.0883V19.5701H49.9083Z" fill="#130C49"/>
<path id="Vector_16" d="M30.4083 31.5701V25.1301H28.9883V24.1201H31.5883V31.5701H30.4083Z" fill="#130C49"/>
<path id="Vector_17" d="M37.8262 31.5701V25.1301H36.4062V24.1201H39.0062V31.5701H37.8262Z" fill="#130C49"/>
<path id="Vector_18" d="M43.5794 31.69C42.9894 31.69 42.4794 31.53 42.0294 31.21C41.5794 30.89 41.2394 30.44 40.9894 29.86C40.7394 29.28 40.6094 28.61 40.6094 27.84C40.6094 27.07 40.7294 26.39 40.9894 25.82C41.2494 25.25 41.5794 24.8 42.0194 24.48C42.4594 24.16 42.9794 24 43.5694 24C44.1594 24 44.6894 24.16 45.1294 24.48C45.5694 24.8 45.9194 25.25 46.1694 25.82C46.4194 26.4 46.5494 27.07 46.5494 27.83C46.5494 28.59 46.4294 29.27 46.1794 29.85C45.9294 30.43 45.5894 30.88 45.1394 31.2C44.6894 31.52 44.1694 31.69 43.5794 31.69ZM43.5894 30.61C43.9594 30.61 44.2694 30.5 44.5394 30.27C44.8094 30.04 45.0094 29.72 45.1594 29.31C45.3094 28.9 45.3794 28.41 45.3794 27.84C45.3794 27.27 45.3094 26.78 45.1594 26.37C45.0094 25.96 44.7994 25.64 44.5394 25.41C44.2694 25.19 43.9494 25.08 43.5794 25.08C43.2094 25.08 42.8994 25.19 42.6294 25.41C42.3594 25.63 42.1594 25.95 42.0094 26.37C41.8594 26.78 41.7894 27.27 41.7894 27.84C41.7894 28.41 41.8594 28.89 42.0094 29.31C42.1594 29.73 42.3694 30.05 42.6294 30.27C42.8994 30.5 43.2194 30.61 43.5894 30.61Z" fill="#130C49"/>
<path id="Vector_19" d="M50.6583 31.5701V25.1301H49.2383V24.1201H51.8383V31.5701H50.6583Z" fill="#130C49"/>
</g>
</g>
</svg>
