<svg width="55" height="41" viewBox="0 0 55 41" fill="none" xmlns="http://www.w3.org/2000/svg">
<path d="M37.4102 6.70505C35.9218 6.70505 34.4772 6.90065 33.0983 7.27012C31.2488 3.55369 27.3966 1 22.9424 1C16.6825 1 11.5936 6.04217 11.5936 12.2688C11.5936 12.6274 11.6155 12.9752 11.6484 13.3338C5.56358 14.6704 1 20.0603 1 26.5043C1 33.9589 7.08477 39.9899 14.5813 39.9899C18.937 39.9899 32.6386 39.9356 37.3992 39.9356C46.6358 39.9356 54.1214 32.5027 54.1214 23.3312C54.1214 14.1596 46.6358 6.72678 37.3992 6.72678L37.4102 6.70505Z" fill="white" stroke="#130C49" stroke-miterlimit="10"/>
<path d="M19.9648 16.6698C21.7925 14.6377 24.4518 13.3555 27.4176 13.3555C29.4094 13.3555 31.2589 13.9314 32.8239 14.9311" stroke="#61BB73" stroke-miterlimit="10"/>
<path d="M25.1193 32.9371C20.7089 31.9047 17.4258 27.971 17.4258 23.2765C17.4258 23.0375 17.4258 22.8093 17.4477 22.5811" stroke="#61BB73" stroke-miterlimit="10"/>
<path d="M36.9507 20.3535C37.2353 21.2772 37.3994 22.2661 37.3994 23.2875C37.3994 27.2539 35.0574 30.6769 31.6758 32.2635" stroke="#61BB73" stroke-miterlimit="10"/>
<path d="M17.5464 22.5057C18.586 22.5057 19.4287 21.6689 19.4287 20.6367C19.4287 19.6044 18.586 18.7676 17.5464 18.7676C16.5068 18.7676 15.6641 19.6044 15.6641 20.6367C15.6641 21.6689 16.5068 22.5057 17.5464 22.5057Z" fill="#61BB73" stroke="#61BB73" stroke-width="0.72" stroke-miterlimit="10"/>
<path d="M34.3003 17.9305C35.3399 17.9305 36.1827 17.0937 36.1827 16.0615C36.1827 15.0292 35.3399 14.1924 34.3003 14.1924C33.2607 14.1924 32.418 15.0292 32.418 16.0615C32.418 17.0937 33.2607 17.9305 34.3003 17.9305Z" fill="#61BB73" stroke="#61BB73" stroke-width="0.72" stroke-miterlimit="10"/>
<path d="M30.0112 34.6874C31.0508 34.6874 31.8936 33.8506 31.8936 32.8183C31.8936 31.786 31.0508 30.9492 30.0112 30.9492C28.9717 30.9492 28.1289 31.786 28.1289 32.8183C28.1289 33.8506 28.9717 34.6874 30.0112 34.6874Z" fill="#61BB73" stroke="#61BB73" stroke-width="0.72" stroke-miterlimit="10"/>
</svg>
