<?xml version="1.0" encoding="UTF-8"?><svg id="Layer_2" xmlns="http://www.w3.org/2000/svg" xmlns:xlink="http://www.w3.org/1999/xlink" viewBox="0 0 694.99 876.07"><defs><style>.cls-1{fill:none;}.cls-2{fill:url(#linear-gradient);}.cls-2,.cls-3,.cls-4,.cls-5,.cls-6,.cls-7,.cls-8,.cls-9{opacity:.5;}.cls-10{clip-path:url(#clippath);}.cls-11{fill:#1c1468;}.cls-12{opacity:.8;}.cls-13{fill:url(#linear-gradient-9);opacity:.3;}.cls-3{fill:url(#linear-gradient-4);}.cls-4{fill:url(#linear-gradient-2);}.cls-5{fill:url(#linear-gradient-3);}.cls-6{fill:url(#linear-gradient-8);}.cls-7{fill:url(#linear-gradient-5);}.cls-8{fill:url(#linear-gradient-6);}.cls-9{fill:url(#linear-gradient-7);}</style><clipPath id="clippath"><rect class="cls-1" x="276.21" y="91.55" width="326.9" height="420.58" rx="23.42" ry="23.42"/></clipPath><linearGradient id="linear-gradient" x1="2031.76" y1="4412.6" x2="2454.57" y2="4412.6" gradientTransform="translate(5296.48 335.12) rotate(-117.81) scale(1 -1)" gradientUnits="userSpaceOnUse"><stop offset="0" stop-color="#00da00"/><stop offset="1" stop-color="#ffd400"/></linearGradient><linearGradient id="linear-gradient-2" x1="1910.37" y1="4404.57" x2="2561.09" y2="4404.57" xlink:href="#linear-gradient"/><linearGradient id="linear-gradient-3" x1="2135.72" y1="4364.23" x2="2355.79" y2="4364.23" xlink:href="#linear-gradient"/><linearGradient id="linear-gradient-4" x1="2422.47" y1="4148.43" x2="2518.2" y2="4148.43" xlink:href="#linear-gradient"/><linearGradient id="linear-gradient-5" x1="2205.88" y1="4394.28" x2="2301.61" y2="4394.28" xlink:href="#linear-gradient"/><linearGradient id="linear-gradient-6" x1="2340.85" y1="4145.09" x2="2395.97" y2="4145.09" xlink:href="#linear-gradient"/><linearGradient id="linear-gradient-7" x1="2232.07" y1="4050.15" x2="2305.56" y2="4050.15" xlink:href="#linear-gradient"/><linearGradient id="linear-gradient-8" x1="2205.54" y1="4715.18" x2="2403.52" y2="4715.18" xlink:href="#linear-gradient"/><linearGradient id="linear-gradient-9" x1="1881.24" y1="4680.45" x2="1986.01" y2="4680.45" xlink:href="#linear-gradient"/></defs><g id="cards"><g><rect class="cls-11" x="276.21" y="91.55" width="326.9" height="420.58" rx="23.42" ry="23.42"/><g class="cls-12"><g class="cls-10"><g><path class="cls-2" d="M257.97,260.07c-12.82,21.27-36.21,12.46-50.07,30.57-11.48,15-5.63,42.99,6.06,98.98,7.39,35.4,11.78,43.71,6.5,58.17-7.15,19.59-20.95,20.14-34.72,44.78-3.23,5.78-16.02,28.68-13.07,52.94,4.62,37.89,45.35,60.05,59.15,67.55,58.4,31.77,121.72,16.71,142.39,11.48,68.36-17.29,194.19-81.07,199.17-205.58,3.69-92.27-61.04-166.72-124.62-198.85-73.16-36.97-170.55-30.92-184.67,.55-5.43,12.1,3.39,23.64-6.12,39.41Z"/><path class="cls-4" d="M214.87,151.88c-11.25,16.34-7.75,19.63-14.77,27.05-18.78,19.84-46.95-.35-77.82,17.75-1.12,.66-26.31,15.89-30.53,41.47-3.39,20.52,10.28,26.11,7.57,47-3.38,26.04-26.08,28.39-27.32,50.83-.95,17.32,12.19,22.93,27.28,53.2,9.01,18.07,12.27,32.02,17.66,55.04,3.45,14.76,14.11,64.69,6.34,129.88-5.42,45.45-22.14,50.89-23.29,94.22-.62,23.37-.9,48.04,16.75,65.19,15.08,14.64,39.73,20.41,59.72,14.22,26.98-8.36,24.14-31.9,51.68-42.66,19.08-7.46,37.42-2.8,72.41,6.09,27.42,6.97,41.62,14.17,53.37,18.28,62.17,21.73,132.28-16.67,160.56-32.16,60.51-33.14,90.9-78.73,112.63-111.33,25.68-38.52,47.66-71.49,42.65-112.18-3.48-28.28-16.44-31.29-17.86-63.55-1.84-41.58,18.88-54.56,9.48-84.46-7.95-25.29-30.65-41.04-37.22-45.6-26.7-18.52-45.84-12.96-54.1-29.54-6.21-12.47-1.01-26.92,5.59-45.24,10.04-27.89,21.48-35.88,27.58-49.45,17.89-39.82-14.86-117.34-77.57-144.74-37.11-16.21-87.05-15.9-118.09,8.35-13.89,10.86-23.81,26.36-42.18,55.09-23.47,36.71-20.85,44.14-33.08,50.5-29.33,15.25-58.05-20.38-88.9-2.93-13.25,7.49-24.02,23.15-28.52,29.68Z"/><path class="cls-5" d="M374.09,289.71c-3.55-.69-36.47-6.54-63.28,12.11-28.26,19.66-32.68,54.68-34.89,72.28-2.02,16.04-8.51,89.34,41.96,121.29,25.77,16.31,66.28,21.78,86.97,3.97,14.81-12.74,7.79-27.34,28.97-54.27,6.57-8.35,7.36-7.1,34.93-32.92,33.59-31.47,35.88-36.57,37.16-40.85,6.96-23.2-5.8-54.39-24.77-60.86-13.04-4.44-17.85,6.6-37.97,7.27-29.17,.97-36.2-21.67-69.08-28.01Z"/><path class="cls-3" d="M434.69,77.57c-1.3,6.22-4.72,28.3,10.11,43.04,16.36,16.26,45.95,14.66,60.28,1.58,25.02-22.84,7.06-83.91-19.11-90.05-18.8-4.41-45.68,18.63-51.28,45.42Z"/><path class="cls-7" d="M318.26,383.84c-1.3,6.22-4.72,28.3,10.11,43.04,16.36,16.26,45.95,14.66,60.28,1.58,25.02-22.84,7.06-83.91-19.11-90.05-18.8-4.41-45.68,18.63-51.28,45.42Z"/><path class="cls-8" d="M495.73,161.47c-8.06,13.65,2.43,36.66,17.34,41.66,20.46,6.86,47.6-20.7,43.62-36.46-2.72-10.79-20.03-16.03-31.27-16.5-3.52-.15-22.46-.95-29.7,11.31Z"/><path class="cls-9" d="M615.62,200.37c-8.74,13.7-2.36,38.41,15.11,49.58,17.2,11,40.16,5.68,52.78-8.23,14.37-15.84,15.13-42.6,2.97-53.04-8.06-6.92-19.87-5.04-36.08-2.46-16.55,2.63-28.65,4.56-34.77,14.15Z"/><path class="cls-6" d="M11.91,473.35c8.11,19.35,8.57,41.06,9,47.01,2.65,37.1-9.02,49.06,1.26,65.35,6.88,10.91,20.78,19.31,33.43,17.97,27.25-2.9,39.93-50.17,42.74-60.66,14.83-55.29,1.3-133.01-39.22-146.17-19.66-6.39-46.26,2.22-54.66,17.96-4.39,8.23-9.93,17.07,7.46,58.55Z"/><path class="cls-13" d="M227.52,876.04c-14.21,.7-29.8-13.83-31.56-28.11-.88-7.18,2.28-9.87,5.21-20.35,7.68-27.43-4.43-43.17,2.15-48.22,3.6-2.75,11.93-1.66,21.07,2.57,2.28-8.07,6.82-17.24,15.72-24.41,18.2-14.67,44.85-13.14,62.49-.58,23.47,16.72,29.36,51.83,14.97,72.26-11.44,16.25-32.79,19.06-37.22,19.64-4.9,.65-14.08,1.73-24.33-1.64-4.9,15.34-15.76,28.2-28.51,28.83Z"/></g></g></g></g></g></svg>