<svg width="399" height="413" viewBox="0 0 399 413" fill="none" xmlns="http://www.w3.org/2000/svg">
<path d="M304.432 410.334C304.432 409.544 305.062 408.896 305.854 408.896C306.666 408.896 307.316 409.524 307.316 410.314C307.316 411.104 306.686 411.773 305.874 411.773C305.082 411.773 304.432 411.125 304.432 410.334ZM296.717 410.253C296.737 409.443 297.387 408.815 298.199 408.835C298.991 408.855 299.62 409.504 299.6 410.314C299.6 411.104 298.93 411.732 298.138 411.712C297.346 411.712 296.696 411.043 296.717 410.253ZM312.128 410.233C312.107 409.422 312.737 408.754 313.529 408.734C314.321 408.734 314.991 409.341 315.011 410.132C315.052 410.922 314.422 411.591 313.63 411.611C313.63 411.611 313.61 411.631 313.59 411.631C312.818 411.631 312.168 411.003 312.148 410.233H312.128ZM290.402 411.469C289.59 411.428 288.981 410.76 289.021 409.97C289.062 409.179 289.732 408.551 290.524 408.592C291.316 408.632 291.945 409.301 291.905 410.091C291.864 410.861 291.235 411.469 290.463 411.469H290.402ZM321.366 411.266C320.554 411.327 319.884 410.719 319.823 409.909C319.782 409.119 320.392 408.43 321.183 408.389C321.996 408.349 322.666 408.956 322.727 409.747C322.767 410.557 322.158 411.226 321.366 411.266ZM282.666 411.023C281.874 410.962 281.265 410.273 281.326 409.483C281.387 408.693 282.077 408.105 282.869 408.146C283.661 408.207 284.27 408.896 284.209 409.686C284.148 410.456 283.519 411.023 282.768 411.023H282.666ZM327.518 409.422C327.458 408.632 328.046 407.923 328.838 407.862C329.63 407.781 330.341 408.389 330.402 409.179C330.463 409.97 329.874 410.658 329.082 410.74H328.96C328.229 410.74 327.579 410.172 327.518 409.422ZM274.95 410.395C274.159 410.314 273.57 409.605 273.651 408.815C273.732 408.024 274.443 407.437 275.235 407.518C276.027 407.599 276.615 408.308 276.534 409.098C276.453 409.828 275.823 410.395 275.093 410.395H274.95ZM335.194 408.713C335.112 407.923 335.681 407.214 336.473 407.133C337.265 407.031 337.975 407.619 338.077 408.409C338.158 409.2 337.589 409.909 336.798 410.01H336.635C335.904 410.01 335.275 409.463 335.194 408.713ZM267.255 409.544C266.463 409.443 265.895 408.734 265.996 407.943C266.098 407.153 266.808 406.586 267.6 406.687C268.392 406.788 268.961 407.498 268.859 408.288C268.778 409.017 268.148 409.564 267.438 409.564C267.438 409.564 267.316 409.564 267.255 409.564V409.544ZM342.848 407.822C342.747 407.031 343.295 406.322 344.087 406.201C344.879 406.099 345.61 406.667 345.711 407.457C345.813 408.227 345.264 408.956 344.473 409.078H344.29C343.579 409.078 342.95 408.551 342.848 407.822ZM259.56 408.511C258.768 408.389 258.22 407.66 258.341 406.869C258.463 406.079 259.194 405.532 259.986 405.654C260.778 405.775 261.326 406.505 261.204 407.295C261.083 408.004 260.473 408.511 259.783 408.511H259.56ZM350.483 406.748C350.361 405.958 350.889 405.228 351.681 405.107C352.473 404.985 353.203 405.512 353.346 406.302C353.467 407.072 352.919 407.822 352.148 407.943C352.148 407.943 351.985 407.943 351.904 407.943C351.214 407.943 350.605 407.437 350.483 406.728V406.748ZM251.885 407.275C251.093 407.133 250.585 406.383 250.707 405.593C250.849 404.803 251.6 404.296 252.392 404.438C253.164 404.56 253.692 405.309 253.55 406.099C253.448 406.788 252.819 407.295 252.128 407.295C252.128 407.295 251.966 407.295 251.885 407.295V407.275ZM358.077 405.492C357.934 404.701 358.462 403.952 359.234 403.79C360.026 403.648 360.777 404.174 360.919 404.965C361.061 405.735 360.554 406.484 359.762 406.647C359.762 406.647 359.579 406.647 359.498 406.647C358.828 406.647 358.219 406.16 358.077 405.471V405.492ZM244.271 405.836C243.479 405.674 242.971 404.904 243.133 404.134C243.296 403.344 244.047 402.837 244.839 402.999C245.611 403.161 246.118 403.931 245.956 404.701C245.834 405.39 245.225 405.856 244.555 405.856C244.555 405.856 244.352 405.856 244.271 405.856V405.836ZM365.63 404.033C365.467 403.242 365.975 402.472 366.746 402.31C367.538 402.148 368.29 402.635 368.452 403.425C368.635 404.195 368.127 404.965 367.356 405.127C367.356 405.127 367.153 405.167 367.051 405.167C366.381 405.167 365.772 404.701 365.63 404.033ZM236.677 404.195C235.885 404.033 235.418 403.242 235.58 402.472C235.763 401.702 236.535 401.216 237.306 401.399C238.098 401.561 238.585 402.331 238.403 403.121C238.24 403.789 237.651 404.235 237.002 404.235C236.88 404.235 236.778 404.235 236.677 404.195ZM373.163 402.371C372.96 401.601 373.447 400.831 374.219 400.629C374.99 400.446 375.782 400.933 375.965 401.702C376.147 402.472 375.66 403.263 374.889 403.445C374.889 403.445 374.665 403.486 374.564 403.486C373.894 403.486 373.305 403.04 373.163 402.371ZM229.123 402.371C228.352 402.168 227.885 401.399 228.088 400.629C228.271 399.859 229.083 399.393 229.854 399.595C230.606 399.778 231.073 400.568 230.89 401.338C230.707 401.986 230.118 402.412 229.489 402.412C229.367 402.412 229.245 402.412 229.123 402.371ZM380.614 400.548C380.411 399.778 380.878 398.987 381.65 398.785C382.421 398.562 383.213 399.028 383.416 399.798C383.619 400.568 383.152 401.358 382.381 401.561C382.259 401.601 382.137 401.601 382.015 401.601C381.386 401.601 380.797 401.176 380.614 400.548ZM221.631 400.365C220.86 400.142 220.413 399.352 220.636 398.582C220.86 397.812 221.651 397.366 222.423 397.589C223.195 397.812 223.641 398.602 223.418 399.372C223.235 400 222.646 400.406 222.017 400.406C221.895 400.406 221.773 400.406 221.631 400.365ZM388.046 398.521C387.822 397.751 388.269 396.941 389.02 396.718C389.792 396.495 390.604 396.941 390.827 397.69C391.051 398.46 390.604 399.271 389.833 399.494C389.711 399.534 389.569 399.555 389.426 399.555C388.797 399.555 388.229 399.149 388.046 398.521ZM214.2 398.157C213.428 397.913 213.002 397.103 213.245 396.353C213.489 395.583 214.301 395.158 215.053 395.401C215.824 395.644 216.25 396.434 216.007 397.204C215.824 397.812 215.235 398.217 214.626 398.217C214.484 398.217 214.342 398.197 214.2 398.157ZM395.416 396.292C395.173 395.543 395.599 394.732 396.35 394.489C397.102 394.246 397.914 394.651 398.157 395.421C398.401 396.171 397.995 396.981 397.244 397.224C397.081 397.285 396.939 397.306 396.797 397.306C396.188 397.306 395.619 396.921 395.416 396.292ZM206.829 395.745C206.058 395.502 205.652 394.671 205.916 393.922C206.18 393.172 206.992 392.767 207.763 393.03C208.514 393.273 208.921 394.104 208.657 394.854C208.454 395.462 207.885 395.826 207.296 395.826C207.134 395.826 206.971 395.826 206.829 395.745ZM402.726 393.901C402.462 393.131 402.868 392.321 403.619 392.058C404.37 391.794 405.203 392.199 405.447 392.949C405.711 393.699 405.325 394.53 404.574 394.793C404.411 394.833 404.249 394.874 404.086 394.874C403.497 394.874 402.929 394.489 402.726 393.901ZM199.52 393.172C198.768 392.909 198.383 392.058 198.667 391.328C198.931 390.578 199.763 390.193 200.515 390.477C201.266 390.74 201.652 391.571 201.367 392.321C201.144 392.909 200.596 393.253 200.007 393.253C199.845 393.253 199.682 393.253 199.52 393.172ZM409.975 391.308C409.69 390.558 410.076 389.727 410.827 389.464C411.558 389.16 412.391 389.545 412.675 390.295C412.959 391.044 412.594 391.875 411.842 392.159C411.68 392.22 411.497 392.24 411.335 392.24C410.746 392.24 410.198 391.895 409.975 391.308ZM192.271 390.416C191.54 390.112 191.175 389.261 191.479 388.532C191.763 387.782 192.596 387.438 193.347 387.721C194.078 388.025 194.444 388.856 194.139 389.586C193.916 390.173 193.388 390.497 192.799 390.497C192.616 390.497 192.454 390.497 192.271 390.416ZM417.162 388.532C416.858 387.802 417.203 386.951 417.954 386.668C418.685 386.364 419.538 386.708 419.842 387.458C420.127 388.187 419.782 389.038 419.03 389.322C418.868 389.403 418.685 389.444 418.502 389.444C417.934 389.444 417.386 389.099 417.162 388.532ZM185.104 387.458C184.373 387.134 184.027 386.283 184.352 385.553C184.657 384.824 185.51 384.479 186.241 384.804C186.972 385.108 187.317 385.959 187.012 386.688C186.768 387.235 186.241 387.559 185.672 387.559C185.489 387.559 185.286 387.559 185.104 387.458ZM424.269 385.594C423.944 384.864 424.269 383.993 425.02 383.689C425.731 383.365 426.583 383.689 426.908 384.439C427.233 385.148 426.908 386.019 426.157 386.323C425.974 386.404 425.792 386.445 425.589 386.445C425.04 386.445 424.492 386.121 424.269 385.594ZM178.017 384.317C177.307 383.993 176.982 383.122 177.307 382.413C177.632 381.683 178.505 381.359 179.236 381.703C179.946 382.028 180.271 382.879 179.946 383.608C179.703 384.135 179.175 384.439 178.626 384.439C178.423 384.439 178.22 384.398 178.017 384.317ZM431.294 382.453C430.949 381.724 431.274 380.873 431.984 380.528C432.715 380.204 433.568 380.528 433.913 381.217C434.238 381.947 433.913 382.818 433.223 383.142C433.02 383.243 432.817 383.284 432.594 383.284C432.066 383.284 431.538 382.98 431.294 382.453ZM171.012 380.994C170.302 380.65 169.997 379.799 170.363 379.069C170.708 378.36 171.561 378.056 172.291 378.421C173.002 378.765 173.307 379.637 172.941 380.346C172.698 380.852 172.19 381.156 171.662 381.156C171.439 381.156 171.236 381.096 171.012 380.994ZM438.238 379.13C437.893 378.421 438.177 377.55 438.888 377.205C439.599 376.84 440.472 377.124 440.817 377.833C441.182 378.563 440.898 379.414 440.167 379.778C439.964 379.88 439.741 379.92 439.538 379.92C439.01 379.92 438.502 379.637 438.238 379.13ZM164.109 377.509C163.398 377.144 163.114 376.273 163.5 375.564C163.865 374.855 164.738 374.591 165.449 374.956C166.139 375.321 166.424 376.192 166.058 376.901C165.794 377.388 165.286 377.671 164.779 377.671C164.556 377.671 164.312 377.631 164.109 377.509ZM445.101 375.645C444.715 374.936 445 374.064 445.69 373.7C446.401 373.315 447.274 373.578 447.659 374.287C448.025 374.976 447.761 375.868 447.05 376.233C446.847 376.354 446.604 376.415 446.38 376.415C445.852 376.415 445.365 376.131 445.101 375.645ZM157.287 373.862C156.576 373.457 156.332 372.585 156.718 371.896C157.104 371.187 157.977 370.944 158.688 371.329C159.378 371.714 159.642 372.606 159.236 373.295C158.992 373.761 158.485 374.024 157.977 374.024C157.754 374.024 157.51 373.983 157.287 373.862ZM451.862 371.977C451.477 371.268 451.72 370.397 452.411 370.012C453.101 369.607 453.994 369.87 454.38 370.559C454.766 371.248 454.522 372.119 453.832 372.525C453.609 372.646 453.365 372.707 453.121 372.707C452.634 372.707 452.126 372.443 451.862 371.977ZM150.566 370.012C149.875 369.627 149.632 368.735 150.038 368.047C150.444 367.358 151.337 367.135 152.028 367.54C152.718 367.945 152.941 368.816 152.535 369.505C152.271 369.971 151.784 370.215 151.297 370.215C151.033 370.215 150.789 370.154 150.566 370.012ZM458.543 368.128C458.136 367.459 458.36 366.567 459.03 366.142C459.72 365.737 460.614 365.959 461.02 366.648C461.426 367.337 461.202 368.209 460.512 368.634C460.289 368.776 460.025 368.837 459.781 368.837C459.294 368.837 458.807 368.594 458.543 368.128ZM143.926 366.02C143.256 365.595 143.033 364.703 143.459 364.035C143.886 363.346 144.779 363.143 145.449 363.569C146.139 363.994 146.343 364.886 145.916 365.554C145.652 366 145.165 366.243 144.698 366.243C144.434 366.243 144.17 366.162 143.926 366.02ZM465.101 364.116C464.674 363.447 464.878 362.555 465.548 362.13C466.238 361.704 467.111 361.907 467.558 362.576C467.984 363.244 467.781 364.136 467.111 364.561C466.867 364.723 466.603 364.784 466.339 364.784C465.852 364.784 465.385 364.561 465.101 364.116ZM137.409 361.846C136.739 361.4 136.556 360.529 137.002 359.861C137.429 359.192 138.322 359.009 138.992 359.435C139.662 359.881 139.845 360.772 139.398 361.441C139.134 361.866 138.667 362.089 138.2 362.089C137.936 362.089 137.652 362.008 137.409 361.846ZM471.578 359.942C471.131 359.293 471.294 358.381 471.964 357.956C472.634 357.51 473.527 357.672 473.974 358.341C474.421 358.989 474.238 359.901 473.588 360.347C473.324 360.509 473.06 360.59 472.776 360.59C472.309 360.59 471.862 360.367 471.578 359.942ZM130.992 357.51C130.343 357.064 130.18 356.173 130.627 355.504C131.094 354.856 131.987 354.694 132.657 355.139C133.307 355.605 133.47 356.497 133.003 357.166C132.718 357.571 132.272 357.773 131.825 357.773C131.541 357.773 131.256 357.692 130.992 357.51ZM477.933 355.605C477.466 354.957 477.629 354.065 478.278 353.599C478.928 353.133 479.822 353.275 480.289 353.944C480.756 354.592 480.593 355.484 479.943 355.95C479.7 356.132 479.395 356.213 479.111 356.213C478.664 356.213 478.217 356.011 477.933 355.605ZM124.698 353.032C124.048 352.566 123.906 351.654 124.393 351.006C124.86 350.357 125.774 350.236 126.404 350.702C127.053 351.168 127.195 352.08 126.708 352.728C126.424 353.093 125.998 353.316 125.551 353.316C125.246 353.316 124.962 353.214 124.698 353.032ZM484.187 351.107C483.7 350.479 483.822 349.567 484.471 349.081C485.101 348.615 486.014 348.736 486.481 349.365C486.969 350.013 486.847 350.904 486.197 351.391C485.933 351.593 485.629 351.674 485.344 351.674C484.898 351.674 484.451 351.492 484.187 351.107ZM118.505 348.372C117.876 347.885 117.774 346.994 118.262 346.345C118.749 345.717 119.642 345.596 120.292 346.102C120.921 346.589 121.023 347.48 120.536 348.129C120.251 348.493 119.825 348.676 119.399 348.676C119.094 348.676 118.769 348.574 118.505 348.372ZM490.299 346.447C489.811 345.819 489.913 344.907 490.542 344.421C491.172 343.914 492.085 344.036 492.573 344.664C493.06 345.272 492.958 346.183 492.329 346.69C492.065 346.893 491.74 346.994 491.436 346.994C491.009 346.994 490.583 346.791 490.299 346.447ZM112.454 343.569C111.825 343.063 111.744 342.151 112.251 341.543C112.759 340.935 113.673 340.834 114.282 341.341C114.911 341.847 114.993 342.759 114.485 343.367C114.201 343.711 113.795 343.894 113.368 343.894C113.043 343.894 112.718 343.792 112.454 343.569ZM496.309 341.624C495.801 341.016 495.882 340.105 496.491 339.598C497.101 339.091 498.014 339.173 498.522 339.78C499.03 340.388 498.948 341.3 498.339 341.807C498.075 342.05 497.75 342.151 497.425 342.151C496.999 342.151 496.593 341.969 496.309 341.624ZM106.526 338.625C105.916 338.099 105.835 337.187 106.363 336.579C106.891 335.991 107.805 335.91 108.394 336.437C109.003 336.944 109.084 337.855 108.556 338.463C108.272 338.788 107.866 338.97 107.46 338.97C107.135 338.97 106.79 338.848 106.526 338.625ZM502.197 336.66C501.669 336.072 501.73 335.161 502.319 334.634C502.928 334.107 503.842 334.168 504.37 334.755C504.897 335.363 504.837 336.275 504.227 336.802C503.963 337.025 503.618 337.146 503.273 337.146C502.867 337.146 502.481 336.984 502.197 336.66ZM100.719 333.519C100.109 332.992 100.069 332.081 100.617 331.493C101.145 330.885 102.059 330.845 102.647 331.392C103.236 331.919 103.277 332.83 102.749 333.418C102.465 333.742 102.079 333.904 101.673 333.904C101.328 333.904 100.983 333.762 100.719 333.519ZM507.943 331.554C507.395 330.966 507.435 330.054 508.024 329.507C508.613 328.98 509.527 329.001 510.055 329.588C510.603 330.176 510.562 331.088 509.994 331.635C509.71 331.878 509.344 332.02 508.999 332.02C508.613 332.02 508.227 331.858 507.943 331.554ZM95.0333 328.271C94.4648 327.724 94.4242 326.812 94.9927 326.245C95.541 325.657 96.4547 325.637 97.0232 326.184C97.612 326.731 97.6323 327.643 97.0841 328.231C96.7998 328.514 96.414 328.677 96.0283 328.677C95.6831 328.677 95.3176 328.535 95.0333 328.271ZM513.567 326.286C512.999 325.718 513.019 324.806 513.567 324.239C514.136 323.692 515.07 323.712 515.618 324.28C516.166 324.847 516.166 325.759 515.578 326.326C515.293 326.59 514.928 326.731 514.562 326.731C514.177 326.731 513.811 326.59 513.527 326.286H513.567ZM89.4903 322.882C88.942 322.334 88.942 321.423 89.4903 320.855C90.0588 320.288 90.9725 320.288 91.541 320.855C92.1095 321.423 92.1095 322.334 91.541 322.882C91.2567 323.165 90.8913 323.307 90.5258 323.307C90.14 323.307 89.7745 323.165 89.4903 322.882ZM84.0893 317.37C83.5411 316.783 83.5614 315.871 84.1502 315.324C84.7187 314.777 85.6324 314.797 86.2009 315.384C86.7492 315.952 86.7086 316.864 86.14 317.411C85.8558 317.674 85.5106 317.816 85.1451 317.816C84.7593 317.816 84.3735 317.654 84.0893 317.37ZM78.8508 311.697C78.3025 311.109 78.3431 310.197 78.9523 309.67C79.5411 309.144 80.4548 309.184 80.9827 309.772C81.5309 310.359 81.47 311.271 80.8812 311.818C80.5969 312.061 80.2518 312.183 79.9066 312.183C79.5208 312.183 79.135 312.021 78.8508 311.697ZM73.7341 305.902C73.2061 305.314 73.2874 304.402 73.8965 303.875C74.4853 303.369 75.399 303.43 75.9269 304.037C76.4345 304.645 76.3736 305.557 75.7645 306.064C75.5005 306.307 75.1554 306.408 74.8305 306.408C74.4244 306.408 74.0183 306.246 73.7341 305.902ZM68.7798 300.005C68.2722 299.377 68.3534 298.465 68.9828 297.979C69.592 297.472 70.5057 297.553 71.0133 298.182C71.5209 298.789 71.4193 299.701 70.8102 300.208C70.5463 300.431 70.2214 300.532 69.8965 300.532C69.4701 300.532 69.064 300.35 68.7798 300.005ZM63.9677 293.967C63.4804 293.319 63.6022 292.427 64.2316 291.941C64.861 291.454 65.7544 291.556 66.262 292.204C66.729 292.832 66.6275 293.724 65.9981 294.21C65.7341 294.413 65.4093 294.514 65.1047 294.514C64.6783 294.514 64.2519 294.332 63.9677 293.967ZM59.318 287.807C58.851 287.159 58.9931 286.247 59.6225 285.781C60.2723 285.315 61.186 285.457 61.653 286.105C62.12 286.733 61.9778 287.645 61.3484 288.111C61.0844 288.293 60.7799 288.395 60.4753 288.395C60.0489 288.395 59.6022 288.192 59.318 287.807ZM54.8307 281.526C54.3637 280.877 54.5464 279.986 55.1962 279.52C55.8459 279.074 56.7393 279.236 57.2063 279.885C57.653 280.533 57.4906 281.445 56.8408 281.891C56.5972 282.073 56.3129 282.154 56.0286 282.154C55.5616 282.154 55.1149 281.931 54.8307 281.526ZM50.5058 275.143C50.0592 274.474 50.2419 273.583 50.9119 273.137C51.582 272.712 52.4754 272.894 52.9221 273.563C53.3485 274.231 53.1657 275.123 52.516 275.548C52.2723 275.71 51.9881 275.792 51.7038 275.792C51.2368 275.792 50.7901 275.569 50.5058 275.143ZM46.3435 268.659C45.9171 267.97 46.1201 267.079 46.8105 266.673C47.4805 266.248 48.3739 266.451 48.8003 267.139C49.2267 267.808 49.0033 268.7 48.3333 269.125C48.0896 269.267 47.8257 269.328 47.582 269.328C47.0947 269.328 46.6277 269.085 46.3435 268.659ZM42.3638 262.054C41.9577 261.365 42.1811 260.493 42.8714 260.088C43.5618 259.683 44.4348 259.906 44.8409 260.595C45.247 261.284 45.0237 262.175 44.3333 262.58C44.11 262.702 43.846 262.763 43.6024 262.763C43.1151 262.763 42.6278 262.52 42.3638 262.054ZM38.5466 255.367C38.1405 254.658 38.4044 253.786 39.0948 253.402C39.8054 253.017 40.6785 253.28 41.0643 253.969C41.4501 254.658 41.1861 255.549 40.4958 255.934C40.2724 256.056 40.0288 256.117 39.8055 256.117C39.2978 256.117 38.7902 255.833 38.5466 255.367ZM34.8715 248.559C34.506 247.85 34.7903 246.978 35.4806 246.614C36.1913 246.249 37.0847 246.512 37.4501 247.221C37.8156 247.931 37.5314 248.802 36.8207 249.167C36.6177 249.288 36.3943 249.329 36.1507 249.329C35.643 249.329 35.1354 249.045 34.8715 248.559ZM31.3994 241.649C31.0543 240.94 31.3385 240.089 32.0695 239.724C32.7801 239.38 33.6532 239.684 33.9984 240.393C34.3436 241.102 34.039 241.973 33.3284 242.318C33.1253 242.419 32.902 242.48 32.6989 242.48C32.171 242.48 31.6431 242.176 31.3994 241.649ZM28.0898 234.679C27.765 233.95 28.0898 233.078 28.8005 232.754C29.5314 232.43 30.3842 232.754 30.7294 233.484C31.0543 234.193 30.7294 235.044 30.0187 235.388C29.8157 235.469 29.6126 235.51 29.4096 235.51C28.8614 235.51 28.3335 235.206 28.0898 234.679ZM24.9629 227.607C24.6584 226.858 25.0036 226.027 25.7345 225.703C26.4655 225.399 27.3183 225.743 27.6228 226.473C27.9477 227.202 27.6025 228.053 26.8716 228.357C26.6888 228.438 26.4858 228.479 26.303 228.479C25.7345 228.479 25.2066 228.154 24.9629 227.607ZM22.0391 220.455C21.7346 219.705 22.1 218.874 22.8513 218.57C23.5822 218.287 24.435 218.651 24.7193 219.381C25.0239 220.131 24.6584 220.961 23.9071 221.265C23.7447 221.326 23.5619 221.367 23.3792 221.367C22.8107 221.367 22.2625 221.022 22.0391 220.455ZM19.2777 213.221C19.0138 212.492 19.3996 211.661 20.1508 211.377C20.8818 211.114 21.7143 211.499 21.9985 212.248C22.2625 212.998 21.8767 213.829 21.1254 214.092C20.963 214.153 20.8005 214.173 20.6381 214.173C20.0493 214.173 19.5011 213.809 19.2777 213.221ZM16.7194 205.947C16.4554 205.177 16.8615 204.366 17.6128 204.123C18.3843 203.86 19.1965 204.265 19.4605 205.015C19.7041 205.785 19.298 206.595 18.5468 206.838C18.3843 206.899 18.2422 206.919 18.0798 206.919C17.4706 206.919 16.9224 206.534 16.7194 205.947ZM14.3438 198.592H14.3235C14.1001 197.842 14.5265 197.011 15.2981 196.788C16.0493 196.545 16.8615 196.971 17.0848 197.741C17.3285 198.49 16.9021 199.301 16.1305 199.544C16.0087 199.584 15.8463 199.605 15.7245 199.605C15.095 199.605 14.5265 199.22 14.3438 198.592ZM12.1509 191.175C11.9275 190.406 12.3742 189.615 13.1458 189.392C13.9174 189.19 14.7092 189.636 14.9326 190.406C15.1356 191.155 14.6889 191.966 13.9174 192.189C13.7955 192.209 13.6534 192.229 13.5316 192.229C12.9021 192.229 12.3336 191.824 12.1509 191.175ZM10.1408 183.719C9.93771 182.949 10.4047 182.159 11.1763 181.976C11.9681 181.774 12.7397 182.24 12.9428 183.01C13.1458 183.78 12.6788 184.57 11.9072 184.752C11.7854 184.793 11.6636 184.813 11.5418 184.813C10.892 184.813 10.3032 184.367 10.1408 183.719ZM8.33367 176.202C8.15093 175.432 8.63823 174.662 9.4301 174.479C10.2017 174.297 10.9732 174.783 11.156 175.573C11.3184 176.343 10.8311 177.113 10.0595 177.296C9.95801 177.296 9.83619 177.336 9.73467 177.336C9.08493 177.336 8.4758 176.87 8.33367 176.202ZM6.70931 168.644C6.54688 167.874 7.05449 167.104 7.84636 166.962C8.63823 166.8 9.38949 167.306 9.55193 168.076C9.71436 168.867 9.20675 169.616 8.41488 169.778C8.31336 169.778 8.23214 169.819 8.13062 169.819C7.46058 169.819 6.85144 169.333 6.70931 168.644ZM5.28801 161.065C5.14588 160.295 5.67379 159.546 6.46566 159.404C7.25753 159.262 7.98849 159.789 8.13062 160.579C8.27275 161.369 7.74484 162.099 6.95297 162.241C6.95297 162.241 6.79053 162.241 6.70931 162.241C6.01896 162.241 5.40984 161.754 5.28801 161.045V161.065ZM4.04944 153.447C3.92762 152.657 4.47583 151.927 5.2677 151.806C6.05957 151.684 6.79053 152.231 6.91236 153.021C7.03419 153.811 6.48596 154.541 5.69409 154.663C5.69409 154.663 5.55197 154.663 5.47075 154.663C4.7804 154.663 4.15097 154.136 4.04944 153.427V153.447ZM3.01392 145.788C2.91239 144.997 3.48092 144.288 4.27279 144.187C5.04436 144.086 5.77531 144.653 5.87683 145.443C5.97835 146.233 5.40983 146.943 4.61796 147.044C4.61796 147.044 4.49614 147.044 4.43522 147.044C3.70427 147.044 3.09513 146.497 3.01392 145.767V145.788ZM2.14083 138.108C2.07991 137.318 2.64844 136.609 3.44031 136.528C4.25249 136.447 4.94284 137.034 5.02405 137.824C5.10527 138.615 4.51644 139.324 3.72457 139.405H3.58244C2.85149 139.405 2.22204 138.858 2.14083 138.108ZM1.49109 130.408C1.43018 129.618 2.03931 128.929 2.83118 128.868C3.62305 128.808 4.3134 129.395 4.37431 130.206C4.43523 130.996 3.8261 131.685 3.03422 131.746H2.9327C2.18144 131.746 1.552 131.178 1.49109 130.408ZM1.02409 122.709C0.98348 121.898 1.61292 121.229 2.40479 121.189C3.19666 121.148 3.8667 121.756 3.92761 122.567C3.92761 123.357 3.33879 124.026 2.54692 124.066H2.48601C1.71444 124.066 1.0647 123.458 1.02409 122.709ZM0.760129 114.968C0.739825 114.178 1.36926 113.509 2.18144 113.489C2.97331 113.489 3.62305 114.117 3.66366 114.908C3.66366 115.698 3.03423 116.366 2.24236 116.387H2.20175C1.43018 116.387 0.780434 115.759 0.760129 114.968ZM0.699219 107.248C0.699219 106.438 1.34896 105.81 2.14083 105.81C2.953 105.81 3.58244 106.458 3.58244 107.248C3.58244 108.059 2.9327 108.687 2.14083 108.687C1.32865 108.687 0.699219 108.039 0.699219 107.248ZM2.22205 100.987C1.43018 100.987 0.800743 100.319 0.821048 99.5081C0.841352 98.7179 1.5114 98.0897 2.30327 98.11C3.11544 98.11 3.74488 98.7989 3.72457 99.5891C3.68397 100.379 3.05453 101.008 2.26266 101.008C2.26266 101.008 2.26266 101.008 2.22205 101.008V100.987ZM2.50631 93.3078C1.71444 93.2673 1.10531 92.5783 1.14592 91.7881C1.20683 90.9979 1.87688 90.39 2.66875 90.4305C3.48092 90.471 4.09005 91.16 4.02913 91.9502C3.98853 92.7202 3.3591 93.3078 2.60783 93.3078H2.50631ZM2.99362 85.6283C2.20174 85.5675 1.61291 84.8786 1.67383 84.0884C1.73474 83.2779 2.44539 82.6903 3.23727 82.751C4.02914 82.8321 4.61797 83.521 4.55705 84.3113C4.49614 85.061 3.86671 85.6283 3.11544 85.6283H2.99362ZM3.68396 77.9691C2.89209 77.888 2.32357 77.1789 2.40479 76.3886C2.486 75.5984 3.19665 75.0108 3.98853 75.0918C4.7804 75.1931 5.36923 75.9023 5.2677 76.6926C5.20679 77.422 4.57735 77.9691 3.8464 77.9691H3.68396ZM4.55705 70.3301C3.78549 70.2288 3.21696 69.4994 3.31849 68.7092C3.44031 67.9189 4.15096 67.3718 4.94283 67.4732C5.7347 67.5745 6.30322 68.3039 6.2017 69.0941C6.10018 69.8236 5.47075 70.3504 4.76009 70.3504C4.76009 70.3504 4.63827 70.3504 4.55705 70.3504V70.3301ZM5.65349 62.7115C4.86162 62.5899 4.3134 61.8402 4.45553 61.0702C4.57736 60.28 5.30831 59.7329 6.10018 59.8544C6.89205 59.9963 7.41997 60.7258 7.29814 61.516C7.17631 62.2252 6.56718 62.7317 5.87683 62.7317C5.87683 62.7317 5.7144 62.7317 5.65349 62.7317V62.7115ZM6.91236 55.1333C6.14079 54.9915 5.61288 54.2215 5.75501 53.4515C5.91745 52.6613 6.6687 52.1345 7.44027 52.2966C8.23214 52.4384 8.73975 53.1881 8.59762 53.9783C8.47579 54.6673 7.86667 55.1536 7.17632 55.1536C7.17632 55.1536 7.01388 55.1536 6.91236 55.1536V55.1333ZM8.39458 47.5754C7.60271 47.4133 7.1154 46.6433 7.27784 45.8734C7.44027 45.0831 8.21184 44.5968 8.98341 44.7589C9.77528 44.921 10.2626 45.691 10.1001 46.461C9.95802 47.1499 9.34889 47.5957 8.69915 47.5957C8.69915 47.5957 8.4961 47.5957 8.39458 47.5754ZM10.0595 40.058C9.26767 39.8757 8.80067 39.1057 8.98341 38.3155C9.16615 37.5455 9.93771 37.0795 10.7296 37.2618C11.5012 37.4442 11.9681 38.2141 11.7854 39.0044H11.8057C11.6433 39.6528 11.0341 40.0985 10.3844 40.0985C10.3844 40.0985 10.1611 40.0985 10.0595 40.058ZM11.9072 32.6014C11.1357 32.3988 10.6687 31.6086 10.892 30.8386C11.0951 30.0686 11.8869 29.6026 12.6585 29.8052C13.4301 30.0079 13.8768 30.7981 13.6737 31.5883C13.5113 32.2165 12.9225 32.642 12.2727 32.642C12.1509 32.642 12.0291 32.6217 11.9072 32.6014ZM13.958 25.1854C13.1864 24.9625 12.76 24.152 12.9834 23.4023C13.2067 22.6323 13.9986 22.1865 14.7702 22.4094C15.5417 22.6526 15.9681 23.4428 15.7448 24.2128C15.562 24.8409 14.9935 25.2462 14.3641 25.2462C14.2219 25.2462 14.0798 25.2462 13.958 25.1854ZM16.1915 17.8301C15.4199 17.587 15.0138 16.7562 15.2575 16.0065C15.5011 15.2568 16.3133 14.8313 17.0848 15.0744C17.8361 15.3176 18.2625 16.1281 18.0188 16.898C17.8158 17.5059 17.2473 17.8909 16.6382 17.8909C16.496 17.8909 16.3336 17.8909 16.1915 17.8301ZM18.628 10.5154C17.8564 10.2519 17.4706 9.44144 17.7346 8.69173C17.9985 7.92176 18.8107 7.53679 19.562 7.8002C20.3336 8.06361 20.7193 8.89436 20.4554 9.64407C20.2523 10.2317 19.6838 10.5964 19.095 10.5964C18.9326 10.5964 18.7701 10.5964 18.628 10.5154ZM21.2269 3.28166C20.4757 2.99799 20.1102 2.16723 20.3945 1.41752C20.6787 0.688068 21.5112 0.303074 22.2625 0.58675C22.9934 0.870424 23.3792 1.7012 23.0949 2.45091C22.8716 3.01826 22.3234 3.38298 21.7346 3.38298C21.5721 3.38298 21.3894 3.34245 21.2269 3.28166ZM24.0289 -3.89125C23.2777 -4.17493 22.9325 -5.02595 23.2371 -5.7554C23.5416 -6.50511 24.3741 -6.84957 25.1254 -6.54563C25.8563 -6.24169 26.2015 -5.41093 25.8969 -4.66122C25.6533 -4.11413 25.1254 -3.76967 24.5569 -3.76967C24.3741 -3.76967 24.1914 -3.8102 24.0086 -3.89125H24.0289ZM27.0137 -10.9831C26.2827 -11.2871 25.9376 -12.1381 26.2624 -12.8675C26.5873 -13.6172 27.4401 -13.9414 28.171 -13.6172C28.902 -13.293 29.2269 -12.442 28.902 -11.7126C28.6583 -11.1655 28.1304 -10.8615 27.5822 -10.8615C27.3792 -10.8615 27.1964 -10.9021 27.0137 -10.9831ZM30.1609 -17.9939C29.4299 -18.3384 29.1253 -19.1894 29.4705 -19.8986C29.8157 -20.6281 30.6685 -20.932 31.3994 -20.6078C32.1101 -20.2633 32.4146 -19.392 32.0898 -18.6828C31.8258 -18.156 31.3182 -17.8521 30.77 -17.8521C30.567 -17.8521 30.3639 -17.8926 30.1609 -17.9939ZM33.4908 -24.9237C32.7801 -25.2884 32.4959 -26.1597 32.841 -26.8689C33.2065 -27.5781 34.0796 -27.8618 34.7903 -27.497C35.5009 -27.1526 35.8055 -26.2813 35.44 -25.5721C35.176 -25.0655 34.6684 -24.7616 34.1405 -24.7616C33.9172 -24.7616 33.6938 -24.8224 33.4908 -24.9237Z" fill="#F4F9FD"/>
<path d="M306.158 329.467C306.158 328.676 306.767 328.008 307.579 328.008C308.371 328.008 309.021 328.616 309.041 329.426C309.041 330.216 308.411 330.865 307.62 330.885C306.828 330.885 306.178 330.257 306.178 329.467H306.158ZM299.863 330.865C299.071 330.865 298.422 330.196 298.442 329.406C298.462 328.616 299.112 327.967 299.924 327.988C300.716 327.988 301.346 328.656 301.346 329.467C301.325 330.237 300.675 330.865 299.884 330.865H299.863ZM313.853 329.264C313.812 328.454 314.422 327.785 315.234 327.744C316.026 327.704 316.696 328.312 316.736 329.102C316.777 329.912 316.168 330.581 315.376 330.622H315.295C314.523 330.622 313.894 330.014 313.853 329.264ZM292.107 330.601C291.315 330.541 290.706 329.872 290.747 329.082C290.787 328.271 291.478 327.663 292.269 327.724C293.061 327.765 293.67 328.433 293.63 329.224C293.589 329.994 292.96 330.601 292.188 330.601H292.107ZM321.548 328.778C321.467 327.988 322.076 327.278 322.868 327.218C323.66 327.157 324.35 327.744 324.432 328.535C324.493 329.325 323.904 330.014 323.112 330.095H322.99C322.239 330.095 321.609 329.527 321.548 328.778ZM284.351 330.054C283.559 329.973 282.97 329.264 283.051 328.474C283.112 327.684 283.823 327.096 284.615 327.177C285.407 327.238 285.995 327.947 285.934 328.737C285.853 329.487 285.224 330.054 284.473 330.054H284.351ZM329.223 328.048C329.122 327.258 329.69 326.529 330.482 326.427C331.274 326.346 331.985 326.914 332.086 327.684C332.188 328.494 331.619 329.203 330.827 329.305H330.665C329.934 329.305 329.305 328.778 329.223 328.048ZM276.635 329.203C275.823 329.122 275.275 328.393 275.376 327.603C275.478 326.812 276.188 326.265 276.98 326.346C277.772 326.448 278.341 327.177 278.239 327.967C278.138 328.697 277.528 329.224 276.798 329.224C276.798 329.224 276.696 329.224 276.635 329.224V329.203ZM336.858 327.035C336.736 326.245 337.284 325.515 338.056 325.394C338.848 325.272 339.599 325.799 339.721 326.589C339.843 327.38 339.294 328.109 338.503 328.231C338.503 328.231 338.36 328.231 338.299 328.231C337.589 328.231 336.98 327.724 336.858 327.015V327.035ZM268.919 328.129H268.94C268.148 327.988 267.6 327.258 267.721 326.468C267.864 325.678 268.595 325.151 269.386 325.272C270.178 325.394 270.706 326.144 270.584 326.934C270.463 327.643 269.853 328.129 269.163 328.129H268.919ZM344.472 325.779C344.31 324.989 344.837 324.239 345.609 324.097C346.401 323.935 347.152 324.462 347.294 325.232C347.457 326.022 346.929 326.772 346.157 326.914C346.157 326.914 345.975 326.954 345.873 326.954C345.203 326.954 344.594 326.468 344.472 325.779ZM261.285 326.752C260.493 326.61 259.986 325.84 260.148 325.07C260.29 324.279 261.062 323.773 261.833 323.915C262.625 324.077 263.133 324.827 262.97 325.617C262.848 326.306 262.239 326.792 261.549 326.792C261.549 326.792 261.366 326.772 261.285 326.752ZM352.025 324.259C351.842 323.469 352.33 322.699 353.101 322.537C353.873 322.355 354.645 322.841 354.827 323.611C355.01 324.401 354.523 325.151 353.731 325.333C353.731 325.333 353.528 325.374 353.426 325.374C352.756 325.374 352.167 324.928 352.025 324.259ZM253.691 325.13C252.899 324.948 252.432 324.158 252.615 323.388C252.798 322.618 253.569 322.132 254.341 322.314C255.133 322.496 255.6 323.266 255.417 324.057C255.275 324.705 254.666 325.151 254.016 325.151C253.915 325.151 253.793 325.151 253.691 325.151V325.13ZM359.497 322.476C359.294 321.706 359.761 320.916 360.533 320.713C361.304 320.511 362.096 320.956 362.299 321.747C362.502 322.496 362.035 323.287 361.264 323.489C361.142 323.53 361.02 323.55 360.898 323.55C360.269 323.55 359.68 323.125 359.497 322.476ZM246.158 323.226C245.387 323.023 244.92 322.233 245.143 321.463C245.346 320.693 246.138 320.227 246.909 320.43C247.681 320.652 248.128 321.443 247.925 322.213C247.762 322.861 247.173 323.287 246.524 323.287C246.402 323.287 246.28 323.287 246.158 323.226ZM366.929 320.43C366.705 319.66 367.132 318.869 367.903 318.647C368.655 318.403 369.467 318.829 369.69 319.599C369.934 320.369 369.507 321.159 368.736 321.402C368.594 321.443 368.451 321.463 368.309 321.463C367.7 321.463 367.132 321.058 366.929 320.43ZM238.686 321.078C237.935 320.835 237.509 320.024 237.732 319.275C237.976 318.505 238.788 318.079 239.559 318.322C240.331 318.545 240.757 319.356 240.514 320.105C240.331 320.734 239.762 321.139 239.133 321.139C238.991 321.139 238.849 321.119 238.707 321.078H238.686ZM374.279 318.14C374.035 317.39 374.441 316.559 375.193 316.296C375.944 316.053 376.776 316.458 377.02 317.208C377.284 317.958 376.878 318.788 376.127 319.031C375.964 319.092 375.802 319.113 375.66 319.113C375.05 319.113 374.482 318.728 374.279 318.14ZM231.316 318.647C230.564 318.383 230.158 317.573 230.422 316.803C230.686 316.053 231.519 315.668 232.27 315.931C233.021 316.174 233.427 317.005 233.163 317.755C232.96 318.363 232.392 318.728 231.783 318.728C231.641 318.728 231.478 318.728 231.316 318.647ZM381.548 315.587C381.264 314.837 381.649 314.006 382.38 313.723C383.132 313.439 383.964 313.824 384.248 314.553C384.533 315.303 384.167 316.134 383.416 316.418C383.253 316.478 383.071 316.519 382.908 316.519C382.319 316.519 381.771 316.154 381.548 315.587ZM224.026 315.972C223.296 315.688 222.91 314.857 223.214 314.108C223.499 313.358 224.331 312.993 225.082 313.277C225.813 313.581 226.199 314.412 225.894 315.161C225.671 315.729 225.143 316.073 224.554 316.073C224.392 316.073 224.209 316.033 224.026 315.972ZM388.715 312.77C388.411 312.041 388.756 311.19 389.507 310.886C390.238 310.582 391.071 310.927 391.395 311.656C391.7 312.406 391.355 313.236 390.624 313.561C390.441 313.621 390.238 313.662 390.055 313.662C389.487 313.662 388.959 313.338 388.715 312.77ZM216.839 313.054C216.108 312.73 215.763 311.879 216.087 311.149C216.392 310.42 217.245 310.076 217.976 310.4C218.707 310.704 219.052 311.555 218.747 312.304C218.504 312.831 217.976 313.176 217.407 313.176C217.224 313.176 217.021 313.135 216.839 313.054ZM395.801 309.731C395.456 309.002 395.781 308.151 396.492 307.806C397.223 307.482 398.076 307.806 398.421 308.515C398.746 309.245 398.421 310.096 397.71 310.42C397.527 310.521 397.304 310.562 397.121 310.562C396.573 310.562 396.045 310.258 395.801 309.731ZM209.773 309.873C209.042 309.528 208.737 308.677 209.062 307.948C209.407 307.239 210.26 306.915 210.991 307.259C211.722 307.603 212.027 308.475 211.681 309.184C211.438 309.711 210.91 310.015 210.382 310.015C210.179 310.015 209.956 309.974 209.773 309.873ZM402.746 306.428C402.38 305.719 402.685 304.848 403.395 304.483C404.106 304.139 404.979 304.422 405.324 305.131C405.69 305.841 405.405 306.712 404.695 307.056C404.492 307.178 404.268 307.218 404.045 307.218C403.517 307.218 403.009 306.935 402.746 306.428ZM202.808 306.469C202.098 306.104 201.813 305.233 202.179 304.524C202.544 303.814 203.418 303.531 204.128 303.895C204.839 304.26 205.103 305.131 204.758 305.841C204.494 306.327 203.986 306.611 203.458 306.611C203.235 306.611 203.011 306.57 202.808 306.469ZM409.588 302.882C409.202 302.193 409.466 301.302 410.157 300.937C410.867 300.532 411.74 300.795 412.126 301.504C412.512 302.193 412.248 303.065 411.558 303.45C411.334 303.571 411.091 303.632 410.867 303.632C410.339 303.632 409.852 303.369 409.588 302.882ZM195.966 302.801C195.255 302.416 195.012 301.545 195.397 300.836C195.783 300.147 196.676 299.883 197.367 300.289C198.057 300.674 198.321 301.545 197.935 302.254C197.671 302.72 197.164 302.984 196.656 302.984C196.433 302.984 196.189 302.923 195.966 302.801ZM416.309 299.113C415.883 298.425 416.106 297.533 416.796 297.128C417.487 296.723 418.38 296.945 418.786 297.634C419.192 298.303 418.969 299.195 418.278 299.6C418.055 299.742 417.791 299.802 417.547 299.802C417.06 299.802 416.573 299.559 416.309 299.113ZM189.245 298.911C188.575 298.506 188.352 297.614 188.758 296.945C189.184 296.256 190.057 296.034 190.748 296.439C191.438 296.864 191.641 297.736 191.235 298.425C190.971 298.87 190.484 299.113 189.996 299.113C189.753 299.113 189.489 299.053 189.245 298.911ZM422.867 295.102C422.441 294.433 422.644 293.521 423.314 293.096C423.984 292.67 424.877 292.852 425.304 293.521C425.73 294.19 425.547 295.102 424.877 295.527C424.634 295.669 424.349 295.75 424.085 295.75C423.618 295.75 423.151 295.527 422.867 295.102ZM182.687 294.798C182.017 294.352 181.834 293.46 182.26 292.792C182.707 292.123 183.6 291.941 184.271 292.386C184.941 292.812 185.123 293.703 184.677 294.372C184.413 294.798 183.946 295.02 183.479 295.02C183.194 295.02 182.93 294.96 182.687 294.798ZM429.304 290.846C428.837 290.198 428.999 289.306 429.669 288.84C430.319 288.395 431.212 288.557 431.679 289.205C432.126 289.854 431.964 290.765 431.314 291.211C431.07 291.394 430.766 291.475 430.481 291.475C430.035 291.475 429.588 291.252 429.304 290.846ZM176.271 290.461C175.621 289.995 175.458 289.104 175.905 288.435C176.372 287.787 177.286 287.645 177.936 288.091C178.585 288.557 178.748 289.448 178.281 290.097C177.996 290.502 177.55 290.705 177.083 290.705C176.799 290.705 176.514 290.624 176.271 290.461ZM169.997 285.882C169.367 285.416 169.245 284.504 169.733 283.876C170.2 283.228 171.113 283.106 171.743 283.592C172.392 284.079 172.514 284.97 172.027 285.619C171.743 285.983 171.316 286.186 170.87 286.186C170.565 286.186 170.26 286.085 169.997 285.882ZM163.905 281.12C163.276 280.614 163.195 279.702 163.682 279.074C164.189 278.466 165.103 278.365 165.712 278.871C166.342 279.378 166.443 280.29 165.936 280.898C165.651 281.262 165.225 281.445 164.819 281.445C164.494 281.445 164.169 281.323 163.905 281.12ZM157.976 276.136C157.367 275.609 157.306 274.697 157.834 274.11C158.342 273.502 159.256 273.421 159.865 273.948C160.474 274.474 160.535 275.386 160.007 275.994C159.723 276.318 159.316 276.48 158.91 276.48C158.585 276.48 158.24 276.379 157.976 276.136ZM152.21 270.949C151.621 270.402 151.601 269.49 152.149 268.922C152.677 268.335 153.611 268.294 154.179 268.841C154.768 269.388 154.789 270.3 154.261 270.888C153.976 271.192 153.591 271.334 153.205 271.334C152.839 271.334 152.494 271.212 152.21 270.949ZM146.646 265.559C146.078 265.012 146.078 264.1 146.646 263.533C147.215 262.965 148.129 262.965 148.697 263.533C149.266 264.1 149.266 265.012 148.697 265.559C148.433 265.843 148.047 265.984 147.682 265.984C147.317 265.984 146.951 265.843 146.667 265.559H146.646ZM141.266 260.007C140.718 259.419 140.758 258.508 141.347 257.96C141.916 257.413 142.829 257.454 143.377 258.041C143.926 258.609 143.885 259.521 143.296 260.068C143.032 260.331 142.667 260.453 142.322 260.453C141.936 260.453 141.55 260.311 141.266 260.007ZM136.088 254.252C135.56 253.645 135.621 252.733 136.23 252.206C136.839 251.699 137.753 251.76 138.261 252.368C138.789 252.956 138.728 253.867 138.119 254.394C137.855 254.637 137.51 254.739 137.164 254.739C136.758 254.739 136.372 254.577 136.088 254.252ZM131.114 248.316C130.606 247.708 130.708 246.796 131.317 246.289C131.946 245.803 132.84 245.884 133.347 246.512C133.855 247.12 133.753 248.032 133.144 248.538C132.88 248.741 132.555 248.863 132.23 248.863C131.804 248.863 131.398 248.68 131.114 248.316ZM126.342 242.237C125.855 241.588 125.977 240.697 126.626 240.211C127.256 239.724 128.17 239.866 128.657 240.494C129.124 241.122 129.002 242.034 128.373 242.52C128.109 242.703 127.804 242.804 127.499 242.804C127.053 242.804 126.626 242.602 126.342 242.237ZM121.794 235.976C121.327 235.327 121.489 234.415 122.139 233.97C122.789 233.504 123.703 233.666 124.17 234.314C124.616 234.983 124.454 235.874 123.804 236.32C123.56 236.502 123.256 236.584 122.972 236.584C122.525 236.584 122.078 236.381 121.794 235.976ZM117.469 229.573C117.022 228.904 117.225 228.013 117.896 227.567C118.566 227.141 119.459 227.324 119.885 227.992C120.332 228.661 120.129 229.552 119.459 229.998C119.215 230.14 118.951 230.221 118.687 230.221C118.2 230.221 117.733 229.998 117.469 229.573ZM113.368 223.008C112.962 222.319 113.165 221.447 113.855 221.042C114.545 220.617 115.439 220.84 115.845 221.529C116.251 222.197 116.027 223.089 115.357 223.514C115.114 223.636 114.85 223.717 114.606 223.717C114.119 223.717 113.632 223.453 113.368 223.008ZM109.51 216.321H109.489C109.124 215.632 109.368 214.741 110.058 214.356C110.769 213.971 111.642 214.214 112.028 214.923C112.413 215.632 112.17 216.503 111.459 216.888C111.236 217.01 110.992 217.071 110.769 217.071C110.261 217.071 109.753 216.787 109.51 216.321ZM105.875 209.493C105.51 208.783 105.794 207.912 106.505 207.547C107.215 207.203 108.088 207.466 108.454 208.196C108.819 208.885 108.535 209.756 107.825 210.121C107.601 210.222 107.378 210.283 107.175 210.283C106.647 210.283 106.119 209.999 105.875 209.493ZM102.484 202.543C102.16 201.833 102.464 200.982 103.195 200.638C103.906 200.293 104.779 200.638 105.104 201.327C105.449 202.056 105.124 202.907 104.413 203.252C104.21 203.333 104.007 203.394 103.804 203.394C103.256 203.394 102.728 203.069 102.484 202.543ZM99.3373 195.491C99.0327 194.742 99.3779 193.891 100.109 193.587C100.86 193.283 101.693 193.627 101.997 194.357C102.322 195.086 101.997 195.937 101.246 196.241C101.063 196.322 100.86 196.363 100.677 196.363C100.109 196.363 99.581 196.038 99.3373 195.491Z" fill="#F4F9FD"/>
<path d="M99.4995 193.384C98.8904 191.905 98.2813 190.406 97.7127 188.906L98.6061 188.562C99.195 190.061 99.7838 191.54 100.393 193.02L99.4995 193.384ZM95.0529 181.693C94.525 180.173 94.0173 178.654 93.5097 177.134L94.4234 176.83C94.9107 178.35 95.4184 179.869 95.9463 181.369L95.0326 181.693H95.0529ZM91.2763 169.738C90.8296 168.198 90.4032 166.638 89.9971 165.098L90.9311 164.855C91.3372 166.415 91.7636 167.955 92.1899 169.475L91.2559 169.738H91.2763ZM88.1697 157.621C87.8245 156.061 87.4793 154.48 87.1545 152.92L88.0885 152.738C88.4133 154.298 88.7382 155.879 89.1037 157.419L88.1697 157.621ZM522.785 145.909L521.831 145.747C522.094 144.167 522.358 142.586 522.582 141.006L523.536 141.148C523.292 142.728 523.049 144.329 522.785 145.909ZM85.7535 145.322C85.6113 144.511 85.4895 143.701 85.3677 142.89C85.2459 142.12 85.124 141.33 85.0225 140.56L85.9768 140.418C86.0986 141.188 86.2002 141.979 86.322 142.748C86.4438 143.559 86.5859 144.37 86.7078 145.16L85.7535 145.322ZM524.531 133.509L523.577 133.408C523.759 131.827 523.922 130.226 524.064 128.626L525.018 128.707C524.876 130.307 524.714 131.908 524.531 133.509ZM84.0276 132.921C83.8449 131.32 83.6824 129.72 83.5403 128.119L84.4946 128.038C84.6367 129.618 84.7992 131.219 84.9616 132.82L84.0073 132.921H84.0276ZM525.567 121.027L524.612 120.966C524.693 119.366 524.775 117.765 524.815 116.164L525.77 116.205C525.709 117.805 525.648 119.406 525.567 121.027ZM82.9921 120.44C82.9109 118.839 82.8296 117.238 82.789 115.617L83.7433 115.577C83.7839 117.177 83.8652 118.778 83.9464 120.379L82.9921 120.44ZM524.917 108.505C524.917 106.904 524.897 105.303 524.856 103.703H525.81C525.851 105.283 525.871 106.904 525.871 108.505H524.917ZM83.6418 107.917H82.6875C82.6875 106.317 82.7078 104.696 82.7484 103.095H83.7027C83.6621 104.716 83.6418 106.317 83.6418 107.917ZM524.531 96.0435C524.43 94.4428 524.328 92.8623 524.186 91.2616L525.14 91.1805C525.262 92.7813 525.384 94.382 525.485 95.9827L524.531 96.0435ZM84.0276 95.4762L83.0733 95.4154C83.1748 93.8146 83.2763 92.2139 83.4185 90.6132L84.3728 90.6942C84.2509 92.295 84.1291 93.8754 84.0276 95.4762ZM523.455 83.6226C523.272 82.0421 523.069 80.4414 522.846 78.8609L523.8 78.7394C524.023 80.3401 524.226 81.9206 524.409 83.5213L523.455 83.6226ZM85.124 83.0553L84.1697 82.954C84.3525 81.3532 84.5555 79.7525 84.7789 78.1517L85.7332 78.2936C85.5098 79.8741 85.3068 81.4748 85.124 83.0755V83.0553ZM521.668 71.2625C521.404 69.6821 521.1 68.1218 520.795 66.5616L521.749 66.3793C522.054 67.9395 522.338 69.5199 522.622 71.1004L521.668 71.2625ZM86.9514 70.6749L85.9971 70.5128C86.2814 68.9323 86.5656 67.3316 86.8905 65.7714L87.8448 65.9538C87.5402 67.5342 87.2357 69.0944 86.9514 70.6749ZM519.191 59.0645C518.826 57.5043 518.46 55.9441 518.054 54.4041L518.988 54.161C519.374 55.7212 519.759 57.2814 520.125 58.8416L519.191 59.0645ZM89.4692 58.4364L88.5352 58.2135C88.9006 56.6533 89.2864 55.0931 89.6925 53.5329L90.6265 53.776C90.2204 55.3362 89.8346 56.8762 89.4692 58.4364ZM516.044 47.0083C515.597 45.4684 515.13 43.9487 514.643 42.429L515.556 42.1454C516.044 43.6651 516.511 45.205 516.957 46.7449L516.023 47.0083H516.044ZM92.6773 46.3599L91.7433 46.0965C92.2103 44.5566 92.6773 43.0166 93.1646 41.4767L94.0783 41.7604C93.591 43.2801 93.124 44.82 92.657 46.3599H92.6773ZM512.227 35.1345C511.699 33.6149 511.13 32.1154 510.582 30.6363L511.475 30.2918C512.044 31.7912 512.592 33.2906 513.14 34.8103L512.227 35.1345ZM96.5757 34.4861L95.662 34.1619C96.2102 32.6422 96.7584 31.1428 97.3473 29.6434L98.2407 29.9879C97.6721 31.4873 97.1036 32.9867 96.5554 34.4861H96.5757ZM507.719 23.5039C507.09 22.0247 506.46 20.5658 505.81 19.1069L506.683 18.7219C507.333 20.1808 507.983 21.66 508.592 23.1392L507.699 23.5039H507.719ZM101.144 22.8757L100.251 22.4908C100.88 21.0116 101.53 19.5324 102.18 18.0735L103.053 18.4788C102.383 19.9377 101.753 21.3966 101.124 22.8757H101.144ZM502.562 12.1569C501.851 10.7183 501.14 9.27962 500.409 7.86126L501.262 7.41548C501.993 8.83385 502.724 10.2725 503.435 11.7111L502.562 12.1366V12.1569ZM106.362 11.5288L105.489 11.1032C106.2 9.66461 106.931 8.22598 107.682 6.8076L108.535 7.25337C107.784 8.67175 107.073 10.1104 106.362 11.5288ZM496.775 1.13412C496.003 -0.263992 495.191 -1.64184 494.379 -2.99943L495.212 -3.48573C496.024 -2.10787 496.816 -0.730034 497.607 0.668076L496.775 1.13412ZM112.21 0.505989L111.378 0.0399399C112.169 -1.35817 112.982 -2.75627 113.794 -4.13412L114.626 -3.64783C113.814 -2.26997 113.002 -0.89212 112.21 0.505989ZM490.379 -9.54421C489.526 -10.8815 488.653 -12.2188 487.76 -13.5562L488.552 -14.083C489.445 -12.7457 490.318 -11.4083 491.191 -10.071L490.379 -9.54421ZM118.667 -10.1723L117.855 -10.6992C118.728 -12.0568 119.601 -13.3941 120.515 -14.7314L121.306 -14.1843C120.413 -12.847 119.54 -11.5299 118.667 -10.1723ZM483.374 -19.8173C482.44 -21.1141 481.486 -22.3906 480.531 -23.6671L481.303 -24.2547C482.278 -22.9782 483.212 -21.6814 484.166 -20.3846L483.394 -19.8173H483.374ZM125.712 -20.4657L124.941 -21.033C125.895 -22.3298 126.85 -23.6266 127.824 -24.9031L128.596 -24.3155C127.621 -23.039 126.667 -21.7625 125.733 -20.4657H125.712ZM475.801 -29.7054C474.785 -30.9414 473.77 -32.1774 472.735 -33.3931L473.466 -34.0213C474.501 -32.8055 475.537 -31.5695 476.531 -30.3132L475.78 -29.7054H475.801ZM133.327 -30.3538L132.575 -30.9616C133.591 -32.1976 134.626 -33.4336 135.662 -34.6697L136.393 -34.0415C135.357 -32.8258 134.322 -31.5898 133.327 -30.3538ZM467.679 -39.1477C466.603 -40.3229 465.506 -41.4981 464.41 -42.6531L465.1 -43.3217C466.197 -42.1668 467.293 -40.9916 468.389 -39.7961L467.679 -39.1477ZM141.489 -39.7758L140.778 -40.4242C141.854 -41.5994 142.951 -42.7746 144.068 -43.9499L144.758 -43.2812C143.662 -42.1262 142.565 -40.951 141.489 -39.7758ZM459.029 -48.1239C457.892 -49.2384 456.735 -50.3528 455.557 -51.447L456.227 -52.1562C457.405 -51.062 458.562 -49.9476 459.699 -48.8129L459.029 -48.1239ZM150.159 -48.7318L149.489 -49.4207C150.646 -50.5352 151.804 -51.6496 152.981 -52.7438L153.631 -52.0346C152.453 -50.9404 151.316 -49.8462 150.159 -48.7318ZM449.872 -56.6139C448.674 -57.6676 447.456 -58.7009 446.237 -59.7343L446.846 -60.4638C448.085 -59.4304 449.303 -58.397 450.501 -57.3231L449.872 -56.5936V-56.6139ZM159.316 -57.1813L158.687 -57.9107C159.905 -58.9644 161.123 -59.9977 162.342 -61.0311L162.951 -60.3017C161.732 -59.2683 160.514 -58.2349 159.296 -57.1813H159.316ZM440.268 -64.5568C439.009 -65.5497 437.73 -66.502 436.451 -67.4746L437.019 -68.2446C438.298 -67.2922 439.577 -66.2994 440.857 -65.3268L440.268 -64.5771V-64.5568ZM168.94 -65.1039L168.352 -65.8739C169.611 -66.8667 170.89 -67.8191 172.189 -68.7917L172.758 -68.0217C171.479 -67.0694 170.199 -66.0968 168.94 -65.1242V-65.1039ZM430.217 -71.9526C428.897 -72.8644 427.578 -73.756 426.238 -74.6475L426.765 -75.4377C428.105 -74.5462 429.425 -73.6546 430.765 -72.7428L430.217 -71.9526ZM178.991 -72.4592L178.443 -73.2494C179.763 -74.1612 181.103 -75.0528 182.443 -75.9443L182.971 -75.1338C181.631 -74.2625 180.311 -73.371 178.991 -72.4592ZM419.76 -78.7811C418.4 -79.6118 417.019 -80.4426 415.639 -81.2531L416.126 -82.0838C417.507 -81.2733 418.887 -80.4426 420.268 -79.6118L419.76 -78.8013V-78.7811ZM189.448 -79.2471L188.94 -80.0576C190.301 -80.8883 191.681 -81.7191 193.082 -82.5093L193.57 -81.6786C192.189 -80.8883 190.808 -80.0576 189.448 -79.2268V-79.2471ZM408.938 -85.0219C407.537 -85.7919 406.116 -86.5213 404.674 -87.2508L405.121 -88.1018C406.563 -87.3723 407.984 -86.6226 409.405 -85.8526L408.938 -85.0016V-85.0219ZM200.27 -85.4069L199.823 -86.2579C201.245 -87.0076 202.666 -87.7573 204.108 -88.4868L204.534 -87.6357C203.092 -86.9063 201.691 -86.1768 200.27 -85.4271V-85.4069ZM397.771 -90.6346C396.329 -91.3235 394.867 -91.9719 393.385 -92.6203L393.771 -93.4916C395.253 -92.8432 396.715 -92.1745 398.177 -91.4856L397.771 -90.6143V-90.6346ZM211.438 -90.979L211.031 -91.8503C212.493 -92.519 213.955 -93.1877 215.438 -93.8361L215.823 -92.9445C214.361 -92.2961 212.899 -91.6477 211.438 -90.979ZM386.299 -95.5989C384.817 -96.1865 383.314 -96.7741 381.812 -97.3415L382.157 -98.233C383.659 -97.6657 385.162 -97.0781 386.664 -96.4904L386.299 -95.5989ZM222.93 -95.8826L222.585 -96.7741C224.087 -97.3617 225.59 -97.9291 227.092 -98.4964L227.437 -97.5846C225.935 -97.0375 224.432 -96.4499 222.95 -95.8623L222.93 -95.8826ZM374.563 -99.9351C373.04 -100.442 371.517 -100.948 369.974 -101.414L370.258 -102.326C371.802 -101.84 373.324 -101.353 374.867 -100.827L374.563 -99.9148V-99.9351ZM234.666 -100.138L234.361 -101.049C235.884 -101.556 237.427 -102.042 238.95 -102.508L239.234 -101.597C237.691 -101.131 236.168 -100.644 234.666 -100.138ZM362.583 -103.582C361.04 -104.008 359.477 -104.413 357.934 -104.798L358.177 -105.73C359.741 -105.345 361.304 -104.92 362.868 -104.494L362.604 -103.562L362.583 -103.582ZM246.625 -103.724L246.381 -104.656C247.924 -105.082 249.488 -105.467 251.051 -105.852L251.275 -104.92C249.711 -104.535 248.168 -104.129 246.625 -103.724ZM350.421 -106.541C348.858 -106.885 347.274 -107.189 345.69 -107.493L345.873 -108.445C347.457 -108.141 349.04 -107.817 350.624 -107.493L350.421 -106.561V-106.541ZM258.767 -106.622L258.564 -107.554C260.127 -107.878 261.711 -108.202 263.295 -108.486L263.478 -107.533C261.894 -107.23 260.33 -106.926 258.767 -106.601V-106.622ZM338.117 -108.81C336.533 -109.053 334.929 -109.276 333.345 -109.499L333.467 -110.451C335.071 -110.249 336.675 -110.006 338.259 -109.762L338.117 -108.81ZM271.072 -108.851L270.929 -109.803C272.533 -110.046 274.117 -110.269 275.701 -110.472L275.823 -109.519C274.239 -109.317 272.655 -109.094 271.072 -108.851ZM325.69 -110.37C324.107 -110.532 322.502 -110.654 320.898 -110.775L320.98 -111.728C322.584 -111.606 324.188 -111.464 325.792 -111.323L325.69 -110.37ZM283.477 -110.37L283.396 -111.323C285 -111.485 286.604 -111.606 288.208 -111.728L288.29 -110.775C286.686 -110.654 285.102 -110.532 283.498 -110.37H283.477ZM313.244 -111.201C311.64 -111.262 310.036 -111.302 308.432 -111.343V-112.295C310.056 -112.275 311.66 -112.214 313.264 -112.153L313.223 -111.201H313.244ZM295.944 -111.221L295.904 -112.174C297.508 -112.234 299.132 -112.275 300.736 -112.315V-111.363C299.152 -111.343 297.548 -111.282 295.944 -111.221Z" fill="#F4F9FD"/>
<path d="M303.963 253.786C273.426 253.786 243.761 244.182 218.624 225.885C187.294 203.049 166.726 169.413 160.757 131.158C157.731 111.828 158.604 92.4972 163.315 73.6734L164.614 73.9976C159.944 92.639 159.092 111.807 162.076 130.955C168.005 168.866 188.371 202.178 219.416 224.811C250.461 247.424 288.491 256.623 326.461 250.706C364.45 244.79 397.83 224.467 420.51 193.485C443.19 162.504 452.388 124.573 446.459 86.6616C440.855 50.8376 422.094 18.7216 393.607 -3.76975C365.303 -26.1395 329.933 -37.0204 294.055 -34.4471L293.953 -35.7844C330.176 -38.3983 365.851 -27.3958 394.419 -4.8234C423.15 17.8706 442.094 50.2905 447.759 86.459C453.749 124.715 444.449 163.011 421.566 194.276C398.683 225.54 364.978 246.066 326.643 252.024C319.05 253.199 311.456 253.786 303.923 253.786H303.963Z" fill="#F4F9FD"/>
<path d="M163.622 75.2335C162.851 75.0511 162.384 74.2609 162.587 73.4909C162.769 72.7209 163.561 72.2549 164.333 72.4373C165.104 72.6399 165.571 73.4099 165.389 74.1798C165.226 74.8485 164.637 75.274 163.988 75.274C163.866 75.274 163.744 75.274 163.622 75.2335ZM165.632 67.7971C164.861 67.5743 164.434 66.7638 164.678 66.0141C164.901 65.2441 165.713 64.8186 166.485 65.0415C167.236 65.2846 167.663 66.0951 167.439 66.8448C167.236 67.473 166.668 67.8782 166.059 67.8782C165.916 67.8782 165.774 67.8782 165.632 67.7971ZM168.028 60.5027C167.277 60.219 166.891 59.3883 167.155 58.6385C167.439 57.8888 168.272 57.5038 169.023 57.7875C169.774 58.0712 170.14 58.8817 169.876 59.6314C169.652 60.219 169.104 60.5837 168.515 60.5837C168.353 60.5837 168.191 60.5432 168.028 60.5027ZM170.81 53.3095C170.059 53.0056 169.734 52.1545 170.038 51.4251C170.363 50.6956 171.216 50.3512 171.947 50.6551C172.678 50.9793 173.023 51.8304 172.698 52.5598C172.454 53.1069 171.927 53.4311 171.378 53.4311C171.175 53.4311 170.993 53.3906 170.81 53.3095ZM173.957 46.2987C173.246 45.9542 172.942 45.0829 173.307 44.3737C173.652 43.6443 174.526 43.3606 175.236 43.7051C175.947 44.0698 176.251 44.9411 175.886 45.6503C175.642 46.1569 175.135 46.4405 174.607 46.4405C174.383 46.4405 174.16 46.4 173.957 46.2987ZM177.49 39.45C176.8 39.065 176.536 38.1937 176.942 37.5048C177.328 36.7956 178.201 36.5524 178.911 36.9374C179.602 37.3427 179.845 38.214 179.459 38.9029C179.196 39.3689 178.708 39.6526 178.201 39.6526C177.957 39.6526 177.713 39.5918 177.49 39.45ZM181.368 32.8242C180.698 32.3986 180.495 31.5071 180.921 30.8384C181.348 30.1495 182.241 29.9671 182.911 30.3724C183.602 30.8182 183.784 31.6895 183.378 32.3784C183.094 32.8039 182.627 33.047 182.14 33.047C181.876 33.047 181.612 32.966 181.368 32.8242ZM185.612 26.401C184.962 25.9349 184.8 25.0434 185.267 24.3747C185.734 23.7263 186.627 23.5845 187.277 24.0505C187.926 24.4963 188.089 25.4081 187.622 26.0565C187.338 26.4415 186.891 26.6644 186.444 26.6644C186.16 26.6644 185.855 26.5833 185.612 26.401ZM190.18 20.2006C189.551 19.7143 189.449 18.8025 189.937 18.1744C190.444 17.5462 191.358 17.4449 191.967 17.9312C192.596 18.4378 192.698 19.3496 192.211 19.9777C191.926 20.3222 191.5 20.5046 191.074 20.5046C190.749 20.5046 190.444 20.4033 190.18 20.2006ZM195.074 14.2637C194.464 13.7369 194.404 12.8251 194.931 12.2375C195.459 11.6296 196.373 11.5688 196.982 12.0956C197.571 12.6225 197.632 13.5343 197.104 14.1422C196.82 14.4461 196.414 14.6285 196.028 14.6285C195.683 14.6285 195.338 14.5069 195.074 14.2637ZM200.251 8.59025C199.683 8.0229 199.683 7.11108 200.231 6.54374H200.251C200.799 5.97639 201.713 5.97639 202.282 6.54374C202.85 7.11108 202.85 8.0229 202.282 8.59025C201.997 8.87392 201.632 9.01576 201.246 9.01576C200.881 9.01576 200.515 8.87393 200.231 8.61052L200.251 8.59025ZM205.754 3.20043C205.205 2.61282 205.246 1.70102 205.835 1.15393C206.424 0.627106 207.337 0.667622 207.886 1.25523C208.414 1.84284 208.373 2.75465 207.784 3.28148C207.52 3.54489 207.155 3.66647 206.809 3.66647C206.424 3.66647 206.038 3.50436 205.754 3.20043ZM211.52 -1.90571C211.013 -2.51358 211.114 -3.42539 211.723 -3.93195C212.332 -4.43851 213.246 -4.33721 213.754 -3.72933C214.261 -3.12146 214.16 -2.20965 213.551 -1.70309C213.287 -1.4802 212.962 -1.37888 212.637 -1.37888C212.231 -1.37888 211.804 -1.54098 211.52 -1.90571ZM217.551 -6.66738C217.084 -7.31578 217.226 -8.20733 217.855 -8.69363C218.505 -9.15967 219.419 -9.01784 219.886 -8.38971C220.353 -7.74131 220.21 -6.82949 219.581 -6.36346C219.317 -6.1811 219.012 -6.07977 218.728 -6.07977C218.281 -6.07977 217.835 -6.2824 217.551 -6.66738ZM223.825 -11.1251C223.398 -11.7938 223.581 -12.6853 224.251 -13.1108C224.921 -13.5566 225.814 -13.3743 226.241 -12.7056C226.687 -12.0369 226.505 -11.1454 225.835 -10.6996C225.591 -10.5375 225.307 -10.4767 225.043 -10.4767C224.576 -10.4767 224.109 -10.6996 223.825 -11.1251ZM230.342 -15.2384C229.936 -15.9071 230.16 -16.7986 230.85 -17.2039C231.561 -17.6091 232.434 -17.366 232.84 -16.677C233.246 -15.9881 233.002 -15.0966 232.312 -14.7116C232.088 -14.5697 231.845 -14.509 231.581 -14.509C231.094 -14.509 230.606 -14.7724 230.342 -15.2384ZM237.063 -18.987C236.698 -19.6961 236.962 -20.5472 237.672 -20.9119C238.383 -21.2766 239.256 -20.993 239.621 -20.304C239.987 -19.5746 239.703 -18.7236 238.992 -18.3588C238.789 -18.2373 238.566 -18.1967 238.342 -18.1967C237.814 -18.1967 237.307 -18.4804 237.063 -18.987ZM243.966 -22.3708C243.642 -23.1002 243.966 -23.9513 244.697 -24.2755C245.428 -24.5997 246.281 -24.2755 246.606 -23.546C246.931 -22.8166 246.606 -21.9655 245.875 -21.6413C245.672 -21.5603 245.469 -21.5198 245.286 -21.5198C244.718 -21.5198 244.21 -21.8237 243.966 -22.3708ZM251.053 -25.3899C250.768 -26.1194 251.134 -26.9704 251.885 -27.2338C252.616 -27.5175 253.469 -27.1527 253.753 -26.403C254.037 -25.6736 253.652 -24.8428 252.921 -24.5389C252.738 -24.4781 252.576 -24.4578 252.393 -24.4578C251.804 -24.4578 251.256 -24.8023 251.053 -25.3899ZM258.281 -28.0038C258.037 -28.7737 258.464 -29.5842 259.215 -29.8274C259.966 -30.0705 260.799 -29.645 261.042 -28.8953C261.286 -28.1456 260.86 -27.3351 260.108 -27.0919C259.966 -27.0312 259.804 -27.0109 259.662 -27.0109C259.053 -27.0109 258.484 -27.3959 258.281 -28.0038ZM265.652 -30.2529C265.449 -31.0229 265.916 -31.8131 266.687 -32.0157C267.459 -32.2184 268.251 -31.7726 268.454 -30.9823C268.657 -30.2326 268.19 -29.4424 267.418 -29.2195C267.296 -29.2195 267.174 -29.179 267.053 -29.179C266.403 -29.179 265.834 -29.6045 265.652 -30.2529ZM273.144 -32.0968C272.981 -32.887 273.469 -33.6367 274.261 -33.7988C275.032 -33.9812 275.804 -33.4746 275.966 -32.6844C276.129 -31.9144 275.621 -31.1444 274.849 -30.9823C274.849 -30.9823 274.646 -30.9823 274.545 -30.9823C273.875 -30.9823 273.286 -31.4484 273.144 -32.117V-32.0968ZM280.697 -33.5557C280.575 -34.3459 281.124 -35.0754 281.915 -35.1969C282.687 -35.3185 283.438 -34.7917 283.56 -34.0015C283.682 -33.2112 283.134 -32.4818 282.342 -32.3399H282.118C281.428 -32.3399 280.819 -32.8465 280.697 -33.5557ZM288.332 -34.6093C288.25 -35.3996 288.839 -36.1087 289.631 -36.1898C290.423 -36.2708 291.134 -35.6832 291.215 -34.893C291.296 -34.1028 290.707 -33.3936 289.915 -33.3125H289.773C289.042 -33.3125 288.413 -33.8596 288.332 -34.6093Z" fill="#F4F9FD"/>
<path d="M275.009 342.84C285.281 342.84 293.608 334.53 293.608 324.28C293.608 314.029 285.281 305.719 275.009 305.719C264.737 305.719 256.41 314.029 256.41 324.28C256.41 334.53 264.737 342.84 275.009 342.84Z" fill="#61BD73"/>
<path d="M275.011 343.327C265.772 343.327 257.65 336.599 256.168 327.218C254.544 316.844 261.671 307.097 272.067 305.476C282.462 303.855 292.229 310.988 293.853 321.342C295.477 331.696 288.351 341.462 277.955 343.083C276.96 343.246 275.985 343.306 275.011 343.306V343.327ZM275.011 306.206C274.077 306.206 273.143 306.287 272.209 306.429C262.341 307.969 255.579 317.228 257.102 327.076C258.645 336.924 267.924 343.671 277.792 342.151C287.66 340.611 294.422 331.351 292.899 321.504C291.498 312.609 283.782 306.226 275.011 306.226V306.206Z" fill="#F4F9FD"/>
<path d="M99.3175 211.864C109.589 211.864 117.916 203.554 117.916 193.303C117.916 183.052 109.589 174.743 99.3175 174.743C89.0457 174.743 80.7188 183.052 80.7188 193.303C80.7188 203.554 89.0457 211.864 99.3175 211.864Z" fill="#61BD73"/>
<path d="M99.2748 212.33C95.2748 212.33 91.3763 211.073 88.0667 208.662C83.9449 205.663 81.2445 201.246 80.4729 196.221C78.8486 185.846 85.9754 176.1 96.3712 174.479C106.767 172.858 116.533 179.97 118.158 190.345C118.95 195.37 117.731 200.395 114.726 204.508C111.721 208.621 107.295 211.316 102.259 212.086C101.265 212.248 100.27 212.309 99.2748 212.309V212.33ZM99.3154 175.229C98.3814 175.229 97.4474 175.31 96.5134 175.452C86.6454 176.992 79.8841 186.252 81.4069 196.099C82.1582 200.861 84.7165 205.055 88.615 207.912C92.5134 210.769 97.3052 211.924 102.077 211.175C106.848 210.425 111.051 207.872 113.914 203.981C116.757 200.091 117.934 195.309 117.183 190.547C115.782 181.652 108.067 175.269 99.295 175.269L99.3154 175.229Z" fill="#F4F9FD"/>
<path d="M144.959 69.5874L160.715 94.4785L185.657 78.7551L169.902 53.864L144.959 69.5874Z" fill="#262262"/>
<path d="M160.554 95.1515L144.27 69.4385L144.676 69.1751L170.036 53.188L186.32 78.9011L185.914 79.1645L160.554 95.1515ZM145.61 69.7424L160.858 93.8345L185 78.6174L169.752 54.5253L145.61 69.7424Z" fill="#F4F9FD"/>
<path d="M76.5627 305.984L76.8047 335.425L106.306 335.183L106.064 305.743L76.5627 305.984Z" fill="#262262"/>
<path d="M76.353 335.951L76.1094 305.537L106.586 305.294L106.83 335.708L76.353 335.951ZM77.0637 306.489L77.287 334.979L105.835 334.756L105.612 306.267L77.0637 306.489Z" fill="#F4F9FD"/>
<path d="M341.962 125.099V81.2914L303.952 59.3877L265.922 81.2914V125.099L303.952 147.003L341.962 125.099Z" fill="#A590DD"/>
<path d="M303.948 147.732L303.643 147.55L265.309 125.464V80.9472L303.948 58.6787L304.252 58.8611L342.587 80.9472V125.464L303.948 147.732ZM266.547 124.755L303.948 146.294L341.348 124.755V81.6564L303.948 60.1174L266.547 81.6564V124.755Z" fill="#F4F9FD"/>
</svg>
