<svg width="37" height="37" viewBox="0 0 37 37" fill="none" xmlns="http://www.w3.org/2000/svg">
<g id="Group">
<path id="Vector" d="M28.6348 0H8.30738C3.71935 0 0 3.72516 0 8.32038V28.6796C0 33.2748 3.71935 37 8.30738 37H28.6348C33.2228 37 36.9422 33.2748 36.9422 28.6796V8.32038C36.9422 3.72516 33.2228 0 28.6348 0Z" fill="#85E3BC"/>
<path id="Vector_2" d="M10.7704 28.123H10.775C11.8334 28.123 12.6914 27.2637 12.6914 26.2037C12.6914 25.1436 11.8334 24.2843 10.775 24.2843H10.7704C9.71203 24.2843 8.85404 25.1436 8.85404 26.2037C8.85404 27.2637 9.71203 28.123 10.7704 28.123Z" fill="#ECF4F8"/>
<path id="Vector_3" d="M26.1767 12.7559H26.1813C27.2397 12.7559 28.0977 11.8965 28.0977 10.8365C28.0977 9.77644 27.2397 8.91711 26.1813 8.91711H26.1767C25.1183 8.91711 24.2603 9.77644 24.2603 10.8365C24.2603 11.8965 25.1183 12.7559 26.1767 12.7559Z" fill="#ECF4F8"/>
<path id="Vector_4" d="M28.1076 28.1244H16.5955L16.5586 20.4423H20.3636L20.396 16.6035H28.1076V28.1244Z" fill="#262262"/>
<path id="Vector_5" d="M8.82422 8.9043H20.3409L20.3733 16.5818H16.5728L16.5405 20.4252H8.82422V8.9043Z" fill="#ECF4F8"/>
</g>
</svg>
