<svg width="203" height="55" viewBox="0 0 203 55" fill="none" xmlns="http://www.w3.org/2000/svg">
<g id="Layer_1" clip-path="url(#clip0_2366_1750)">
<path id="Vector" d="M201.771 12.847L180.187 0.328347C179.428 -0.109449 178.485 -0.109449 177.729 0.328347L156.141 12.847C155.382 13.2848 154.912 14.1038 154.912 14.9832V40.0168C154.912 40.8962 155.382 41.7152 156.141 42.1567L177.729 54.6717C178.101 54.8868 178.526 55 178.958 55C179.39 55 179.815 54.8868 180.187 54.6717L201.771 42.1567C202.53 41.7152 203 40.8962 203 40.0168V14.9832C203 14.1038 202.53 13.2848 201.771 12.847ZM155.536 40.0168V14.9832C155.536 14.3265 155.886 13.7151 156.453 13.3867L178.041 0.871818C178.207 0.773691 178.391 0.701983 178.582 0.664242V19.5649H179.334V0.664242C179.522 0.705757 179.706 0.773691 179.875 0.871818L201.459 13.3867C202.027 13.7151 202.376 14.3265 202.376 14.9832V40.0168C202.376 40.2055 202.346 40.3904 202.294 40.5641L179.484 26.6829L179.289 26.5659L155.653 40.666C155.577 40.4622 155.536 40.2433 155.536 40.0168ZM201.459 41.6133L179.875 54.132C179.308 54.4603 178.605 54.4603 178.041 54.132L156.453 41.6133C156.306 41.5265 156.171 41.4208 156.055 41.3L179.285 27.4453L201.925 41.2245C201.798 41.3755 201.64 41.5076 201.459 41.6133Z" fill="#131144"/>
<path id="Vector_2" d="M191.092 34.3105V20.6897C191.092 20.5501 191.017 20.418 190.896 20.3501L179.154 13.5416C179.033 13.4699 178.883 13.4699 178.763 13.5416L167.02 20.3501C166.9 20.4218 166.824 20.5501 166.824 20.6897V34.3105C166.824 34.4501 166.9 34.5822 167.02 34.6501L178.763 41.4586C178.883 41.5303 179.033 41.5303 179.154 41.4586L190.896 34.6501C191.017 34.5784 191.092 34.4501 191.092 34.3105Z" fill="#131144"/>
<path id="Vector_3" d="M178.954 41.5264C178.736 41.5264 178.518 41.4698 178.327 41.3566L167.32 34.9746C166.933 34.7519 166.693 34.333 166.693 33.8801V21.1161C166.693 20.6669 166.933 20.248 167.32 20.0216L178.327 13.6396C178.714 13.4131 179.195 13.4131 179.582 13.6396L190.588 20.0216C190.975 20.2442 191.216 20.6632 191.216 21.1161V33.8801C191.216 34.3292 190.975 34.7481 190.588 34.9746L179.582 41.3566C179.386 41.4698 179.172 41.5264 178.954 41.5264ZM178.954 13.7264C178.781 13.7264 178.605 13.7717 178.451 13.8622L167.444 20.2442C167.133 20.4254 166.941 20.7613 166.941 21.1198V33.8839C166.941 34.2424 167.133 34.5783 167.444 34.7594L178.451 41.1414C178.763 41.3188 179.146 41.3226 179.458 41.1414L190.464 34.7594C190.776 34.5783 190.968 34.2424 190.968 33.8839V21.1198C190.968 20.7613 190.776 20.4254 190.464 20.2442L179.458 13.8622C179.304 13.7717 179.127 13.7264 178.954 13.7264Z" fill="#131144"/>
<path id="Vector_4" d="M182.415 22.9126V27.1924L178.954 25.1808L175.493 27.1924V22.9126L171.386 25.3016V29.8268L175.279 32.0874L178.954 29.9551L182.629 32.0874L186.522 29.8268V25.3054L182.415 22.9126Z" fill="#61BD73"/>
<path id="Vector_5" d="M3.21662 29.9326H0V27.7134H3.21662V29.9326ZM0.751546 29.1777H2.46507V28.4682H0.751546V29.1777Z" fill="#61BB73"/>
<path id="Vector_6" d="M21.329 15.1983C21.2576 15.1266 21.1636 15.0889 21.0659 15.0889L2.36747 15.1417C2.1608 15.1417 1.9917 15.3115 1.9917 15.5191V39.5337C1.9917 39.7451 2.1608 39.9111 2.36747 39.9111H21.0434C21.2538 39.9111 21.4192 39.7451 21.4192 39.5375L21.4455 15.4663C21.4455 15.3644 21.4041 15.27 21.3327 15.1983H21.329ZM20.6639 39.1563H2.73949V15.8965L20.6864 15.8437L20.6639 39.1563Z" fill="#262262"/>
<path id="Vector_7" d="M20.6864 15.8438L20.6639 39.1564H2.7395V15.8966L20.6864 15.8438Z" fill="white"/>
<path id="Vector_8" d="M18.1274 23.6747H5.27592C5.06924 23.6747 4.90015 23.5049 4.90015 23.2973C4.90015 23.0898 5.06924 22.9199 5.27592 22.9199H18.1274C18.334 22.9199 18.5031 23.0898 18.5031 23.2973C18.5031 23.5049 18.334 23.6747 18.1274 23.6747Z" fill="#131144"/>
<path id="Vector_9" d="M13.0093 25.7695H5.27592C5.06924 25.7695 4.90015 25.5996 4.90015 25.3921C4.90015 25.1845 5.06924 25.0146 5.27592 25.0146H13.0093C13.216 25.0146 13.3851 25.1845 13.3851 25.3921C13.3851 25.5996 13.216 25.7695 13.0093 25.7695Z" fill="#131144"/>
<path id="Vector_10" d="M18.1274 27.8642H5.27592C5.06924 27.8642 4.90015 27.6944 4.90015 27.4868C4.90015 27.2792 5.06924 27.1094 5.27592 27.1094H18.1274C18.334 27.1094 18.5031 27.2792 18.5031 27.4868C18.5031 27.6944 18.334 27.8642 18.1274 27.8642Z" fill="#131144"/>
<path id="Vector_11" d="M7.44785 18.7349H5.27588V21.2673H7.44785V18.7349Z" fill="#61BB73"/>
<path id="Vector_12" d="M18.5331 29.2192H0V37.0581H18.5331V29.2192Z" fill="#61BD73"/>
<path id="Vector_13" d="M5.20825 35.0992V31.6836H6.54976C6.80904 31.6836 7.02699 31.7327 7.20736 31.8308C7.38773 31.9289 7.52677 32.0648 7.62447 32.2384C7.71842 32.412 7.76727 32.612 7.76727 32.8385C7.76727 33.0649 7.71841 33.2649 7.62071 33.4386C7.52301 33.6122 7.38398 33.748 7.19985 33.8424C7.01572 33.9367 6.79401 33.9858 6.53097 33.9858H5.67797V33.4084H6.41448C6.55352 33.4084 6.66625 33.3857 6.75644 33.3367C6.84662 33.2876 6.91426 33.2197 6.95935 33.1366C7.00445 33.0536 7.02699 32.9517 7.02699 32.8385C7.02699 32.7252 7.00445 32.6271 6.95935 32.5403C6.91426 32.4573 6.84662 32.3894 6.75644 32.3403C6.66625 32.2912 6.54976 32.2686 6.41072 32.2686H5.92598V35.0916H5.20825V35.0992Z" fill="#131144"/>
<path id="Vector_14" d="M9.43939 35.0992H8.23315V31.6836H9.4469C9.78885 31.6836 10.082 31.7515 10.33 31.8874C10.578 32.0233 10.7659 32.2195 10.9011 32.4724C11.0327 32.7252 11.1003 33.0309 11.1003 33.3857C11.1003 33.7405 11.0327 34.0462 10.9011 34.3028C10.7696 34.5595 10.578 34.7557 10.33 34.8916C10.082 35.0274 9.7851 35.0954 9.43939 35.0954V35.0992ZM8.95464 34.4802H9.40932C9.61976 34.4802 9.80013 34.4425 9.94668 34.367C10.0932 34.2915 10.2022 34.1707 10.2736 34.0122C10.3488 33.8499 10.3826 33.6424 10.3826 33.3895C10.3826 33.1366 10.345 32.9328 10.2736 32.7705C10.1984 32.612 10.0895 32.4913 9.94668 32.4158C9.80388 32.3403 9.62351 32.3025 9.40932 32.3025H8.95088V34.4802H8.95464Z" fill="#131144"/>
<path id="Vector_15" d="M11.634 35.0992V31.6836H13.8849V32.2799H12.3518V33.0951H13.7346V33.6914H12.3518V35.1029H11.634V35.0992Z" fill="#131144"/>
<path id="Vector_16" d="M60.0522 7.5332H46.2764C46.0697 7.5332 45.9006 7.69926 45.9006 7.91061V25.6225C45.9006 25.8301 46.0697 25.9999 46.2764 25.9999H60.0522C60.2589 25.9999 60.428 25.8301 60.428 25.6225V7.91061C60.428 7.69926 60.2589 7.5332 60.0522 7.5332ZM59.6765 25.2451H46.6522V8.28802H59.6765V25.2451Z" fill="#1B1464"/>
<path id="Vector_17" d="M59.6764 8.28809H46.6521V25.2451H59.6764V8.28809Z" fill="white"/>
<path id="Vector_18" d="M57.9029 14.0244H48.4222C48.2155 14.0244 48.0464 13.8545 48.0464 13.6469C48.0464 13.4394 48.2155 13.2695 48.4222 13.2695H57.9029C58.1096 13.2695 58.2787 13.4394 58.2787 13.6469C58.2787 13.8545 58.1096 14.0244 57.9029 14.0244Z" fill="#262262"/>
<path id="Vector_19" d="M57.9029 15.5683H48.4222C48.2155 15.5683 48.0464 15.3985 48.0464 15.1909C48.0464 14.9833 48.2155 14.8135 48.4222 14.8135H57.9029C58.1096 14.8135 58.2787 14.9833 58.2787 15.1909C58.2787 15.3985 58.1096 15.5683 57.9029 15.5683Z" fill="#262262"/>
<path id="Vector_20" d="M57.9029 17.1118H48.4222C48.2155 17.1118 48.0464 16.9419 48.0464 16.7343C48.0464 16.5268 48.2155 16.3569 48.4222 16.3569H57.9029C58.1096 16.3569 58.2787 16.5268 58.2787 16.7343C58.2787 16.9419 58.1096 17.1118 57.9029 17.1118Z" fill="#262262"/>
<path id="Vector_21" d="M57.9029 18.6591H48.4222C48.2155 18.6591 48.0464 18.4893 48.0464 18.2817C48.0464 18.0741 48.2155 17.9043 48.4222 17.9043H57.9029C58.1096 17.9043 58.2787 18.0741 58.2787 18.2817C58.2787 18.4893 58.1096 18.6591 57.9029 18.6591Z" fill="#262262"/>
<path id="Vector_22" d="M57.9029 21.4291H48.4222C48.2155 21.4291 48.0464 21.2593 48.0464 21.0517C48.0464 20.8442 48.2155 20.6743 48.4222 20.6743H57.9029C58.1096 20.6743 58.2787 20.8442 58.2787 21.0517C58.2787 21.2593 58.1096 21.4291 57.9029 21.4291Z" fill="#262262"/>
<path id="Vector_23" d="M50.9436 22.9692H48.4222C48.2155 22.9692 48.0464 22.7993 48.0464 22.5918C48.0464 22.3842 48.2155 22.2144 48.4222 22.2144H50.9436C51.1503 22.2144 51.3194 22.3842 51.3194 22.5918C51.3194 22.7993 51.1503 22.9692 50.9436 22.9692Z" fill="#262262"/>
<path id="Vector_24" d="M50.0267 10.2808H48.4221V12.1489H50.0267V10.2808Z" fill="#61BD73"/>
<path id="Vector_25" d="M78.3712 7.5332H64.5992C64.3887 7.5332 64.2234 7.69926 64.2234 7.91061V25.6225C64.2234 25.8301 64.3887 25.9999 64.5992 25.9999H78.3712C78.5817 25.9999 78.747 25.8301 78.747 25.6225V7.91061C78.747 7.69926 78.5817 7.5332 78.3712 7.5332ZM77.9955 25.2451H64.9749V8.28802H77.9955V25.2451Z" fill="#1B1464"/>
<path id="Vector_26" d="M77.9954 8.28809H64.9749V25.2451H77.9954V8.28809Z" fill="white"/>
<path id="Vector_27" d="M76.2218 14.0244H66.741C66.5343 14.0244 66.3652 13.8545 66.3652 13.6469C66.3652 13.4394 66.5343 13.2695 66.741 13.2695H76.2218C76.4284 13.2695 76.5975 13.4394 76.5975 13.6469C76.5975 13.8545 76.4284 14.0244 76.2218 14.0244Z" fill="#262262"/>
<path id="Vector_28" d="M76.2218 15.5683H66.741C66.5343 15.5683 66.3652 15.3985 66.3652 15.1909C66.3652 14.9833 66.5343 14.8135 66.741 14.8135H76.2218C76.4284 14.8135 76.5975 14.9833 76.5975 15.1909C76.5975 15.3985 76.4284 15.5683 76.2218 15.5683Z" fill="#262262"/>
<path id="Vector_29" d="M76.2218 17.1118H66.741C66.5343 17.1118 66.3652 16.9419 66.3652 16.7343C66.3652 16.5268 66.5343 16.3569 66.741 16.3569H76.2218C76.4284 16.3569 76.5975 16.5268 76.5975 16.7343C76.5975 16.9419 76.4284 17.1118 76.2218 17.1118Z" fill="#262262"/>
<path id="Vector_30" d="M76.2218 18.6591H66.741C66.5343 18.6591 66.3652 18.4893 66.3652 18.2817C66.3652 18.0741 66.5343 17.9043 66.741 17.9043H76.2218C76.4284 17.9043 76.5975 18.0741 76.5975 18.2817C76.5975 18.4893 76.4284 18.6591 76.2218 18.6591Z" fill="#262262"/>
<path id="Vector_31" d="M76.2218 21.4291H66.741C66.5343 21.4291 66.3652 21.2593 66.3652 21.0517C66.3652 20.8442 66.5343 20.6743 66.741 20.6743H76.2218C76.4284 20.6743 76.5975 20.8442 76.5975 21.0517C76.5975 21.2593 76.4284 21.4291 76.2218 21.4291Z" fill="#262262"/>
<path id="Vector_32" d="M69.2661 22.9692H66.7447C66.538 22.9692 66.3689 22.7993 66.3689 22.5918C66.3689 22.3842 66.538 22.2144 66.7447 22.2144H69.2661C69.4728 22.2144 69.6419 22.3842 69.6419 22.5918C69.6419 22.7993 69.4728 22.9692 69.2661 22.9692Z" fill="#262262"/>
<path id="Vector_33" d="M68.3494 10.2808H66.7449V12.1489H68.3494V10.2808Z" fill="#61BD73"/>
<path id="Vector_34" d="M69.766 29H55.9939C55.7835 29 55.6182 29.1698 55.6182 29.3774V47.0931C55.6182 47.3006 55.7835 47.4705 55.9939 47.4705H69.766C69.9764 47.4705 70.1418 47.3006 70.1418 47.0931V29.3774C70.1418 29.1698 69.9764 29 69.766 29ZM69.3902 46.7156H56.3697V29.7548H69.3902V46.7156Z" fill="#1B1464"/>
<path id="Vector_35" d="M69.3902 29.7549H56.3696V46.7157H69.3902V29.7549Z" fill="white"/>
<path id="Vector_36" d="M67.6165 35.4916H58.1358C57.9291 35.4916 57.76 35.3218 57.76 35.1142C57.76 34.9067 57.9291 34.7368 58.1358 34.7368H67.6165C67.8232 34.7368 67.9923 34.9067 67.9923 35.1142C67.9923 35.3218 67.8232 35.4916 67.6165 35.4916Z" fill="#262262"/>
<path id="Vector_37" d="M67.6165 37.039H58.1358C57.9291 37.039 57.76 36.8692 57.76 36.6616C57.76 36.454 57.9291 36.2842 58.1358 36.2842H67.6165C67.8232 36.2842 67.9923 36.454 67.9923 36.6616C67.9923 36.8692 67.8232 37.039 67.6165 37.039Z" fill="#262262"/>
<path id="Vector_38" d="M67.6165 38.5825H58.1358C57.9291 38.5825 57.76 38.4126 57.76 38.205C57.76 37.9975 57.9291 37.8276 58.1358 37.8276H67.6165C67.8232 37.8276 67.9923 37.9975 67.9923 38.205C67.9923 38.4126 67.8232 38.5825 67.6165 38.5825Z" fill="#262262"/>
<path id="Vector_39" d="M67.6165 40.1264H58.1358C57.9291 40.1264 57.76 39.9566 57.76 39.749C57.76 39.5414 57.9291 39.3716 58.1358 39.3716H67.6165C67.8232 39.3716 67.9923 39.5414 67.9923 39.749C67.9923 39.9566 67.8232 40.1264 67.6165 40.1264Z" fill="#262262"/>
<path id="Vector_40" d="M67.6165 42.9003H58.1358C57.9291 42.9003 57.76 42.7305 57.76 42.5229C57.76 42.3153 57.9291 42.1455 58.1358 42.1455H67.6165C67.8232 42.1455 67.9923 42.3153 67.9923 42.5229C67.9923 42.7305 67.8232 42.9003 67.6165 42.9003Z" fill="#262262"/>
<path id="Vector_41" d="M60.6572 44.4399H58.1358C57.9291 44.4399 57.76 44.27 57.76 44.0625C57.76 43.8549 57.9291 43.6851 58.1358 43.6851H60.6572C60.8639 43.6851 61.033 43.8549 61.033 44.0625C61.033 44.27 60.8639 44.4399 60.6572 44.4399Z" fill="#262262"/>
<path id="Vector_42" d="M59.7442 31.7515H58.1396V33.6196H59.7442V31.7515Z" fill="#61BD73"/>
<path id="Vector_43" d="M130.822 20.7837V34.2195C130.822 35.1102 130.344 35.9368 129.578 36.3821L117.993 43.1C117.226 43.5454 116.272 43.5454 115.505 43.1L103.92 36.3821C103.15 35.9368 102.672 35.1065 102.672 34.2195V20.7837C102.672 19.8931 103.15 19.0628 103.92 18.6174L115.505 11.8995C115.888 11.6768 116.317 11.5674 116.749 11.5674C117.181 11.5674 117.609 11.6768 117.993 11.8995L129.578 18.6174C130.344 19.0628 130.822 19.8931 130.822 20.7837Z" fill="#61B973"/>
<path id="Vector_44" d="M129.954 17.9648L118.368 11.2469C117.369 10.6657 116.129 10.6657 115.129 11.2469L103.544 17.9648C102.545 18.5423 101.921 19.6255 101.921 20.7841V34.2199C101.921 35.3786 102.545 36.458 103.544 37.0354L115.129 43.7533C115.629 44.0439 116.189 44.1873 116.749 44.1873C117.309 44.1873 117.869 44.0439 118.368 43.7533L129.954 37.0354C130.953 36.458 131.573 35.3786 131.573 34.2199V20.7841C131.573 19.6217 130.953 18.5423 129.954 17.9648ZM130.822 34.2199C130.822 35.1106 130.344 35.9371 129.578 36.3825L117.993 43.1004C117.226 43.5457 116.272 43.5457 115.505 43.1004L103.92 36.3825C103.15 35.9371 102.672 35.1068 102.672 34.2199V20.7841C102.672 19.8934 103.15 19.0631 103.92 18.6178L115.505 11.8999C115.888 11.6772 116.317 11.5677 116.749 11.5677C117.181 11.5677 117.609 11.6772 117.993 11.8999L129.578 18.6178C130.344 19.0631 130.822 19.8934 130.822 20.7841V34.2199Z" fill="#1B1464"/>
<path id="Vector_45" d="M124.268 24.2711C122.836 24.2711 121.653 25.3467 121.469 26.7356H119.101C118.932 25.4713 117.936 24.4712 116.678 24.3013V22.0595C118.06 21.8746 119.131 20.6857 119.131 19.2478C119.131 17.6815 117.861 16.4097 116.302 16.4097C114.742 16.4097 113.476 17.6853 113.476 19.2478C113.476 20.6857 114.547 21.8746 115.926 22.0595V24.3013C114.543 24.4862 113.476 25.6751 113.476 27.113C113.476 27.8075 113.724 28.4415 114.137 28.9359L112.48 31.1853C112.074 30.9588 111.608 30.8305 111.116 30.8305C109.557 30.8305 108.29 32.1062 108.29 33.6724C108.29 35.2387 109.56 36.5105 111.116 36.5105C112.672 36.5105 113.946 35.2349 113.946 33.6724C113.946 32.8761 113.615 32.1552 113.085 31.6382L114.697 29.453C115.156 29.77 115.708 29.9587 116.306 29.9587C116.617 29.9587 116.918 29.9059 117.2 29.8115L118.203 32.0835C117.395 32.5855 116.854 33.4799 116.854 34.4989C116.854 36.0652 118.124 37.3371 119.68 37.3371C121.236 37.3371 122.51 36.0614 122.51 34.4989C122.51 32.9365 121.239 31.657 119.68 31.657C119.406 31.657 119.139 31.6986 118.887 31.774L117.872 29.4794C118.53 29.034 118.992 28.3207 119.101 27.498H121.469C121.653 28.8869 122.836 29.9587 124.268 29.9587C125.828 29.9587 127.094 28.6831 127.094 27.1206C127.094 25.5581 125.824 24.2787 124.268 24.2787V24.2711ZM113.19 33.6649C113.19 34.816 112.258 35.7482 111.112 35.7482C109.966 35.7482 109.038 34.8122 109.038 33.6649C109.038 32.5175 109.97 31.5778 111.112 31.5778C112.255 31.5778 113.19 32.5138 113.19 33.6649ZM121.754 34.4914C121.754 35.6425 120.822 36.5747 119.676 36.5747C118.53 36.5747 117.602 35.6387 117.602 34.4914C117.602 33.3441 118.534 32.4043 119.676 32.4043C120.819 32.4043 121.754 33.3403 121.754 34.4914ZM114.228 19.244C114.228 18.0929 115.159 17.1607 116.302 17.1607C117.444 17.1607 118.38 18.0967 118.38 19.244C118.38 20.3913 117.448 21.3311 116.302 21.3311C115.156 21.3311 114.228 20.3951 114.228 19.244ZM116.302 29.1963C115.156 29.1963 114.228 28.2604 114.228 27.113C114.228 25.9657 115.159 25.0259 116.302 25.0259C117.444 25.0259 118.38 25.9619 118.38 27.113C118.38 28.2641 117.448 29.1963 116.302 29.1963ZM124.268 29.1963C123.122 29.1963 122.19 28.2604 122.19 27.113C122.19 25.9657 123.122 25.0259 124.268 25.0259C125.414 25.0259 126.342 25.9619 126.342 27.113C126.342 28.2641 125.411 29.1963 124.268 29.1963Z" fill="#1B1464"/>
<path id="Vector_46" d="M38.3325 25.4751L40.1024 27.1244H25.4773V27.8792H40.1024L38.3325 29.5285L38.7458 29.9701L41.3875 27.5018L38.7458 25.0298L38.3325 25.4751Z" fill="#131144"/>
<path id="Vector_47" d="M95.1719 25.4751L96.9381 27.1244H82.313V27.8792H96.9381L95.1719 29.5285L95.5815 29.9701L98.2232 27.5018L95.5815 25.0298L95.1719 25.4751Z" fill="#131144"/>
<path id="Vector_48" d="M148.374 25.0298L147.964 25.4751L149.731 27.1244H135.105V27.8792H149.731L147.964 29.5285L148.374 29.9701L151.019 27.5018L148.374 25.0298Z" fill="#131144"/>
</g>
<defs>
<clipPath id="clip0_2366_1750">
<rect width="203" height="55" fill="white"/>
</clipPath>
</defs>
</svg>
