<svg width="47" height="25" viewBox="0 0 47 25" fill="none" xmlns="http://www.w3.org/2000/svg">
<g id="Cisco_logo_blue_2016 1">
<path id="path10" d="M22.9917 16.4438C22.9308 16.4271 21.994 16.1855 20.9984 16.1855C19.1135 16.1855 17.9787 17.2033 17.9787 18.719C17.9787 20.0607 18.9281 20.7298 20.0674 21.0897C20.1937 21.1313 20.3798 21.1896 20.5038 21.2307C21.0109 21.3902 21.4158 21.6273 21.4158 22.0379C21.4158 22.4972 20.9479 22.7945 19.9308 22.7945C19.0369 22.7945 18.18 22.5388 17.9995 22.4933V24.3581C18.1001 24.3795 19.1185 24.5794 20.2065 24.5794C21.7714 24.5794 23.5615 23.8956 23.5615 21.86C23.5615 20.8727 22.9569 19.9637 21.6297 19.5418L21.0656 19.3622C20.729 19.256 20.1281 19.0839 20.1281 18.5905C20.1281 18.2008 20.5733 17.9264 21.3931 17.9264C22.1004 17.9264 22.9612 18.1641 22.9917 18.1736V16.4438ZM40.2731 20.3826C40.2731 21.5617 39.37 22.5155 38.1581 22.5155C36.9449 22.5155 36.0442 21.5617 36.0442 20.3826C36.0442 19.2059 36.9449 18.2516 38.1581 18.2516C39.37 18.2516 40.2731 19.2059 40.2731 20.3826ZM38.1581 16.1881C35.6657 16.1881 33.8782 18.068 33.8782 20.3826C33.8782 22.7008 35.6657 24.5794 38.1581 24.5794C40.6503 24.5794 42.4404 22.7008 42.4404 20.3826C42.4404 18.068 40.6503 16.1881 38.1581 16.1881ZM15.2365 24.4352H13.1914V16.3317H15.2365" fill="#181818"/>
<path id="path12" d="M10.3791 16.4779C10.187 16.4209 9.47665 16.1875 8.51457 16.1875C6.02601 16.1875 4.19922 17.9618 4.19922 20.3819C4.19922 22.9929 6.2158 24.5788 8.51457 24.5788C9.42786 24.5788 10.125 24.3624 10.3791 24.2903V22.115C10.2913 22.1638 9.62282 22.5451 8.66117 22.5451C7.29879 22.5451 6.42005 21.5863 6.42005 20.3819C6.42005 19.1409 7.33679 18.2205 8.66117 18.2205C9.63923 18.2205 10.2969 18.6102 10.3791 18.6532" fill="#181818"/>
<path id="use14" d="M31.7268 16.4779C31.5346 16.4209 30.8243 16.1875 29.8622 16.1875C27.3737 16.1875 25.5469 17.9618 25.5469 20.3819C25.5469 22.9929 27.5635 24.5788 29.8622 24.5788C30.7755 24.5788 31.4727 24.3624 31.7268 24.2903V22.115C31.6389 22.1638 30.9705 22.5451 30.0088 22.5451C28.6464 22.5451 27.7677 21.5863 27.7677 20.3819C27.7677 19.1409 28.6844 18.2205 30.0088 18.2205C30.9869 18.2205 31.6445 18.6102 31.7268 18.6532" fill="#181818"/>
<g id="g22">
<path id="path16" d="M13.1835 1.01153C13.1835 0.452974 12.7273 0 12.1681 0C11.6091 0 11.1529 0.452974 11.1529 1.01153V11.7724C11.1529 12.3342 11.6091 12.7869 12.1681 12.7869C12.7273 12.7869 13.1835 12.3342 13.1835 11.7724V1.01153ZM7.60686 4.83137C7.60686 4.27303 7.15087 3.81941 6.59166 3.81941C6.03246 3.81941 5.57647 4.27303 5.57647 4.83137V9.75083C5.57647 10.3124 6.03246 10.7654 6.59166 10.7654C7.15087 10.7654 7.60686 10.3124 7.60686 9.75083V4.83137ZM2.0304 7.62349C2.0304 7.06493 1.5744 6.61218 1.0152 6.61218C0.456645 6.61218 0 7.06493 0 7.62349V9.75083C0 10.3124 0.456645 10.7654 1.0152 10.7654C1.5744 10.7654 2.0304 10.3124 2.0304 9.75083" fill="#181818"/>
<path id="use18" d="M11.1563 1.01153C11.1563 0.452974 11.6125 0 12.1717 0C12.7307 0 13.1869 0.452974 13.1869 1.01153V11.7724C13.1869 12.3342 12.7307 12.7869 12.1717 12.7869C11.6125 12.7869 11.1563 12.3342 11.1563 11.7724V1.01153ZM16.733 4.83137C16.733 4.27303 17.189 3.81941 17.7482 3.81941C18.3074 3.81941 18.7634 4.27303 18.7634 4.83137V9.75083C18.7634 10.3124 18.3074 10.7654 17.7482 10.7654C17.189 10.7654 16.733 10.3124 16.733 9.75083V4.83137ZM22.3094 7.62349C22.3094 7.06493 22.7654 6.61218 23.3246 6.61218C23.8832 6.61218 24.3398 7.06493 24.3398 7.62349V9.75083C24.3398 10.3124 23.8832 10.7654 23.3246 10.7654C22.7654 10.7654 22.3094 10.3124 22.3094 9.75083" fill="#181818"/>
</g>
<g id="use20">
<path id="path16_2" d="M33.461 1.01153C33.461 0.452974 33.9172 0 34.4764 0C35.0354 0 35.4916 0.452974 35.4916 1.01153V11.7724C35.4916 12.3342 35.0354 12.7869 34.4764 12.7869C33.9172 12.7869 33.461 12.3342 33.461 11.7724V1.01153ZM39.0377 4.83137C39.0377 4.27303 39.4937 3.81941 40.0529 3.81941C40.6121 3.81941 41.0681 4.27303 41.0681 4.83137V9.75083C41.0681 10.3124 40.6121 10.7654 40.0529 10.7654C39.4937 10.7654 39.0377 10.3124 39.0377 9.75083V4.83137ZM44.6141 7.62349C44.6141 7.06493 45.0701 6.61218 45.6293 6.61218C46.1879 6.61218 46.6445 7.06493 46.6445 7.62349V9.75083C46.6445 10.3124 46.1879 10.7654 45.6293 10.7654C45.0701 10.7654 44.6141 10.3124 44.6141 9.75083" fill="#181818"/>
<path id="use18_2" d="M35.4882 1.01153C35.4882 0.452974 35.032 0 34.4728 0C33.9138 0 33.4576 0.452974 33.4576 1.01153V11.7724C33.4576 12.3342 33.9138 12.7869 34.4728 12.7869C35.032 12.7869 35.4882 12.3342 35.4882 11.7724V1.01153ZM29.9115 4.83137C29.9115 4.27303 29.4556 3.81941 28.8964 3.81941C28.3372 3.81941 27.8812 4.27303 27.8812 4.83137V9.75083C27.8812 10.3124 28.3372 10.7654 28.8964 10.7654C29.4556 10.7654 29.9115 10.3124 29.9115 9.75083V4.83137ZM24.3351 7.62349C24.3351 7.06493 23.8791 6.61218 23.3199 6.61218C22.7613 6.61218 22.3047 7.06493 22.3047 7.62349V9.75083C22.3047 10.3124 22.7613 10.7654 23.3199 10.7654C23.8791 10.7654 24.3351 10.3124 24.3351 9.75083" fill="#181818"/>
</g>
</g>
</svg>
