<svg width="78" height="41" viewBox="0 0 78 41" fill="none" xmlns="http://www.w3.org/2000/svg">
<path d="M37.9654 27.1537C37.8648 27.1263 36.3178 26.7273 34.6737 26.7273C31.561 26.7273 29.687 28.4081 29.687 30.911C29.687 33.1266 31.2548 34.2316 33.1363 34.8259C33.3449 34.8948 33.6522 34.991 33.8569 35.0588C34.6944 35.3223 35.3629 35.7137 35.3629 36.3919C35.3629 37.1503 34.5903 37.6413 32.9106 37.6413C31.4345 37.6413 30.0193 37.2191 29.7212 37.1439V40.2234C29.8874 40.2587 31.5692 40.5888 33.3659 40.5888C35.9502 40.5888 38.9063 39.4596 38.9063 36.0981C38.9063 34.4676 37.908 32.9665 35.7163 32.2698L34.7846 31.9732C34.2287 31.7978 33.2365 31.5136 33.2365 30.6989C33.2365 30.0553 33.9717 29.6021 35.3255 29.6021C36.4935 29.6021 37.9151 29.9947 37.9654 30.0104V27.1537ZM66.5039 33.6582C66.5039 35.6054 65.0125 37.1806 63.0112 37.1806C61.0077 37.1806 59.5202 35.6054 59.5202 33.6582C59.5202 31.7151 61.0077 30.1391 63.0112 30.1391C65.0125 30.1391 66.5039 31.7151 66.5039 33.6582ZM63.0112 26.7316C58.8952 26.7316 55.9433 29.836 55.9433 33.6582C55.9433 37.4865 58.8952 40.5888 63.0112 40.5888C67.1268 40.5888 70.083 37.4865 70.083 33.6582C70.083 29.836 67.1268 26.7316 63.0112 26.7316ZM25.1585 40.3507H21.7812V26.9687H25.1585" fill="#262262"/>
<path d="M17.1401 27.2131C16.8227 27.119 15.6497 26.7335 14.0609 26.7335C9.95133 26.7335 6.93457 29.6636 6.93457 33.6602C6.93457 37.9719 10.2647 40.5908 14.0609 40.5908C15.5691 40.5908 16.7204 40.2335 17.1401 40.1144V36.5222C16.995 36.6028 15.8911 37.2325 14.303 37.2325C12.0532 37.2325 10.602 35.649 10.602 33.6602C10.602 31.6108 12.1159 30.0908 14.303 30.0908C15.9182 30.0908 17.0042 30.7344 17.1401 30.8053" fill="#262262"/>
<path d="M52.3911 27.2131C52.0737 27.119 50.9007 26.7335 49.3119 26.7335C45.2023 26.7335 42.1855 29.6636 42.1855 33.6602C42.1855 37.9719 45.5157 40.5908 49.3119 40.5908C50.8201 40.5908 51.9714 40.2335 52.3911 40.1144V36.5222C52.2459 36.6028 51.1421 37.2325 49.554 37.2325C47.3042 37.2325 45.853 35.649 45.853 33.6602C45.853 31.6108 47.3669 30.0908 49.554 30.0908C51.1692 30.0908 52.2552 30.7344 52.3911 30.8053" fill="#262262"/>
<path d="M21.7712 1.67043C21.7712 0.748039 21.0179 0 20.0944 0C19.1713 0 18.4179 0.748039 18.4179 1.67043V19.4408C18.4179 20.3686 19.1713 21.1162 20.0944 21.1162C21.0179 21.1162 21.7712 20.3686 21.7712 19.4408V1.67043ZM12.5619 7.97849C12.5619 7.05646 11.8089 6.30735 10.8854 6.30735C9.96198 6.30735 9.20895 7.05646 9.20895 7.97849V16.1025C9.20895 17.0298 9.96198 17.7779 10.8854 17.7779C11.8089 17.7779 12.5619 17.0298 12.5619 16.1025V7.97849ZM3.35299 12.5894C3.35299 11.667 2.59996 10.9193 1.67649 10.9193C0.754102 10.9193 0 11.667 0 12.5894V16.1025C0 17.0298 0.754102 17.7779 1.67649 17.7779C2.59996 17.7779 3.35299 17.0298 3.35299 16.1025" fill="#262262"/>
<path d="M18.4211 1.67043C18.4211 0.748039 19.1745 0 20.098 0C21.0211 0 21.7745 0.748039 21.7745 1.67043V19.4408C21.7745 20.3686 21.0211 21.1162 20.098 21.1162C19.1745 21.1162 18.4211 20.3686 18.4211 19.4408V1.67043ZM27.6304 7.97849C27.6304 7.05646 28.3835 6.30735 29.3069 6.30735C30.2304 6.30735 30.9834 7.05646 30.9834 7.97849V16.1025C30.9834 17.0298 30.2304 17.7779 29.3069 17.7779C28.3835 17.7779 27.6304 17.0298 27.6304 16.1025V7.97849ZM36.8394 12.5894C36.8394 11.667 37.5924 10.9193 38.5159 10.9193C39.4383 10.9193 40.1924 11.667 40.1924 12.5894V16.1025C40.1924 17.0298 39.4383 17.7779 38.5159 17.7779C37.5924 17.7779 36.8394 17.0298 36.8394 16.1025" fill="#262262"/>
<path d="M55.2561 1.67043C55.2561 0.748039 56.0095 0 56.9329 0C57.8561 0 58.6094 0.748039 58.6094 1.67043V19.4408C58.6094 20.3686 57.8561 21.1162 56.9329 21.1162C56.0095 21.1162 55.2561 20.3686 55.2561 19.4408V1.67043ZM64.4654 7.97849C64.4654 7.05646 65.2184 6.30735 66.1419 6.30735C67.0654 6.30735 67.8184 7.05646 67.8184 7.97849V16.1025C67.8184 17.0298 67.0654 17.7779 66.1419 17.7779C65.2184 17.7779 64.4654 17.0298 64.4654 16.1025V7.97849ZM73.6744 12.5894C73.6744 11.667 74.4274 10.9193 75.3508 10.9193C76.2732 10.9193 77.0273 11.667 77.0273 12.5894V16.1025C77.0273 17.0298 76.2732 17.7779 75.3508 17.7779C74.4274 17.7779 73.6744 17.0298 73.6744 16.1025" fill="#262262"/>
<path d="M58.6062 1.67043C58.6062 0.748039 57.8528 0 56.9294 0C56.0063 0 55.2529 0.748039 55.2529 1.67043V19.4408C55.2529 20.3686 56.0063 21.1162 56.9294 21.1162C57.8528 21.1162 58.6062 20.3686 58.6062 19.4408V1.67043ZM49.3969 7.97849C49.3969 7.05646 48.6439 6.30735 47.7204 6.30735C46.7969 6.30735 46.0439 7.05646 46.0439 7.97849V16.1025C46.0439 17.0298 46.7969 17.7779 47.7204 17.7779C48.6439 17.7779 49.3969 17.0298 49.3969 16.1025V7.97849ZM40.1879 12.5894C40.1879 11.667 39.4349 10.9193 38.5115 10.9193C37.5891 10.9193 36.835 11.667 36.835 12.5894V16.1025C36.835 17.0298 37.5891 17.7779 38.5115 17.7779C39.4349 17.7779 40.1879 17.0298 40.1879 16.1025" fill="#262262"/>
</svg>
