<svg width="34" height="34" viewBox="0 0 34 34" fill="none" xmlns="http://www.w3.org/2000/svg">
<g id="Group 1261162320">
<path id="Vector" d="M17 32.9727C25.8365 32.9727 33 25.8092 33 16.9727C33 8.1361 25.8365 0.972656 17 0.972656C8.16344 0.972656 1 8.1361 1 16.9727C1 25.8092 8.16344 32.9727 17 32.9727Z" fill="#130C49" stroke="#130C49" stroke-miterlimit="10"/>
<g id="Group 1261162319">
<g id="Group 1261162318">
<g id="Group 1261162316">
<path id="Vector_2" d="M12.6758 25.1269C16.971 25.1269 20.4531 21.6449 20.4531 17.3496C20.4531 13.0543 16.971 9.57227 12.6758 9.57227C8.38046 9.57227 4.89844 13.0543 4.89844 17.3496C4.89844 21.6449 8.38046 25.1269 12.6758 25.1269Z" stroke="white" stroke-width="0.7" stroke-miterlimit="10"/>
<path id="Vector_3" d="M21.8359 25.1269C26.1312 25.1269 29.6132 21.6449 29.6132 17.3496C29.6132 13.0543 26.1312 9.57227 21.8359 9.57227C17.5406 9.57227 14.0586 13.0543 14.0586 17.3496C14.0586 21.6449 17.5406 25.1269 21.8359 25.1269Z" stroke="white" stroke-width="0.7" stroke-miterlimit="10"/>
</g>
<g id="Group 1261162317">
<path id="Vector_4" d="M25.1601 21.8028C25.1601 17.5075 21.6781 14.0254 17.3828 14.0254C13.0875 14.0254 9.60547 17.5075 9.60547 21.8028C9.60547 26.0981 13.0875 29.5801 17.3828 29.5801C21.6781 29.5801 25.1601 26.0981 25.1601 21.8028Z" stroke="white" stroke-width="0.7" stroke-miterlimit="10"/>
<path id="Vector_5" d="M25.1601 12.6446C25.1601 8.34927 21.6781 4.86724 17.3828 4.86724C13.0875 4.86724 9.60547 8.34927 9.60547 12.6446C9.60547 16.9399 13.0875 20.4219 17.3828 20.4219C21.6781 20.4219 25.1601 16.9399 25.1601 12.6446Z" stroke="white" stroke-width="0.7" stroke-miterlimit="10"/>
</g>
</g>
<circle id="Ellipse 51" cx="17.2574" cy="17.2242" r="1.76519" fill="#61BD73"/>
</g>
</g>
</svg>
