<svg width="34" height="34" viewBox="0 0 34 34" fill="none" xmlns="http://www.w3.org/2000/svg">
<path d="M17 33C25.8366 33 33 25.8366 33 17C33 8.16344 25.8366 1 17 1C8.16344 1 1 8.16344 1 17C1 25.8366 8.16344 33 17 33Z" fill="#130C49" stroke="#130C49" stroke-miterlimit="10"/>
<path d="M16.9989 20.3669C18.8579 20.3669 20.365 18.8599 20.365 17.0008C20.365 15.1418 18.8579 13.6348 16.9989 13.6348C15.1399 13.6348 13.6328 15.1418 13.6328 17.0008C13.6328 18.8599 15.1399 20.3669 16.9989 20.3669Z" fill="#61BB73"/>
<path d="M12.6055 9.7545L17.0025 5.35742L21.4052 9.7545" stroke="white" stroke-width="0.7" stroke-miterlimit="10"/>
<path d="M21.4052 24.2402L17.0025 28.6373L12.6055 24.2402" stroke="white" stroke-width="0.7" stroke-miterlimit="10"/>
<path d="M9.47129 21.3977L5.07422 17.0006L9.47129 12.6035" stroke="white" stroke-width="0.7" stroke-miterlimit="10"/>
<path d="M23.9531 12.6035L28.3502 17.0006L23.9531 21.3977" stroke="white" stroke-width="0.7" stroke-miterlimit="10"/>
</svg>
