<svg width="51" height="52" viewBox="0 0 51 52" fill="none" xmlns="http://www.w3.org/2000/svg">
<g id="Group">
<g id="Group_2">
<path id="Vector" d="M37.2275 6.16893C36.8925 5.98926 36.5575 5.83355 36.1987 5.67784C34.2368 4.79148 32.1194 4.16863 29.9063 3.86918C29.5355 3.80929 29.1527 3.77336 28.7819 3.73742C28.1119 3.67754 27.442 3.6416 26.7721 3.6416C13.9123 3.6416 3.45703 14.2779 3.45703 27.3578C3.45703 27.8848 3.46899 28.4118 3.50488 28.9269C3.52881 29.3102 3.5647 29.6935 3.61255 30.0648C3.87572 32.4124 4.47386 34.6643 5.37105 36.7484C5.5146 37.1078 5.67011 37.4671 5.84955 37.8025C9.65366 45.648 17.6088 51.062 26.7841 51.062C31.3658 51.062 35.6364 49.7085 39.2372 47.3848C39.5482 47.1811 39.8592 46.9775 40.1703 46.7499C42.2517 45.2647 44.082 43.4321 45.5893 41.3359C45.8166 41.0245 46.0319 40.7131 46.2353 40.4017C48.6757 36.6526 50.0992 32.1609 50.0992 27.3458C50.0992 18.0869 44.8596 10.0498 37.2394 6.14498L37.2275 6.16893ZM46.1276 39.2877C45.9362 39.6111 45.7329 39.9226 45.5175 40.234C43.8069 42.7972 41.6058 45.0012 39.0458 46.6901C38.7347 46.9057 38.4237 47.0973 38.1007 47.2889C34.7632 49.2653 30.8992 50.3912 26.7721 50.3912C18.183 50.3912 10.6944 45.5042 6.86637 38.3175C6.68693 37.9821 6.51945 37.6468 6.35198 37.2994C5.16768 34.796 4.41404 32.0411 4.21068 29.1305C4.17479 28.7472 4.16283 28.3759 4.15086 27.9926C4.15086 27.777 4.15086 27.5854 4.15086 27.3698C4.15086 14.6732 14.3071 4.3483 26.7841 4.3483C27.143 4.3483 27.5138 4.3483 27.8727 4.37225C28.2435 4.38423 28.6144 4.42016 28.9852 4.4561C31.7366 4.71961 34.3564 5.49817 36.737 6.68398C37.0719 6.85167 37.4069 7.03134 37.7299 7.21101C44.7041 11.1397 49.4293 18.6978 49.4293 27.3578C49.4293 31.7177 48.233 35.7902 46.1516 39.2758L46.1276 39.2877Z" fill="white" stroke="white" stroke-width="0.3" stroke-miterlimit="10"/>
<g id="Group_3">
<path id="Vector_2" d="M37.7026 7.22386C37.559 6.86452 37.3916 6.51716 37.2241 6.1698C36.8891 5.99014 36.5542 5.83442 36.1953 5.67871C36.3747 6.01409 36.5422 6.34947 36.7097 6.69683C38.1332 9.70327 38.9228 13.0691 38.9228 16.6145C38.9228 19.0939 38.54 21.4895 37.8102 23.7174C37.7385 23.9569 37.6547 24.1965 37.571 24.4241C35.2622 30.9161 30.1542 36.0666 23.7303 38.3424C23.503 38.4142 23.2637 38.4981 23.0364 38.5699C20.9071 39.2527 18.6342 39.624 16.2776 39.624C12.7127 39.624 9.33926 38.7855 6.33665 37.2763C6.0017 37.1086 5.66674 36.929 5.34375 36.7493C5.4873 37.1086 5.64282 37.468 5.82226 37.8034C6.15721 37.971 6.50412 38.1387 6.85104 38.2944C9.74599 39.6 12.928 40.3187 16.2776 40.3187C18.8017 40.3187 21.2301 39.9115 23.503 39.1449C23.7422 39.073 23.9695 38.9892 24.1968 38.9053C30.6088 36.5457 35.7168 31.3952 38.1093 24.9152C38.193 24.6876 38.2768 24.448 38.3605 24.2085C39.1501 21.8129 39.5807 19.2616 39.5807 16.6025C39.5807 13.2607 38.8988 10.0866 37.6667 7.21188L37.7026 7.22386Z" fill="white"/>
<path id="Vector_3" d="M16.2885 40.5108C12.9749 40.5108 9.78088 39.828 6.77827 38.4626C6.43136 38.3068 6.08445 38.1392 5.74949 37.9715L5.70164 37.9475L5.67772 37.8996C5.51024 37.5762 5.35473 37.2169 5.19921 36.8336L5.00781 36.3544L5.45043 36.618C5.74949 36.7857 6.06052 36.9653 6.43136 37.145C9.50574 38.6901 12.8314 39.4687 16.2885 39.4687C18.5854 39.4687 20.8463 39.1213 22.9876 38.4266C23.1551 38.3787 23.3345 38.3188 23.502 38.2589L23.6814 38.199C29.9977 35.9592 35.1296 30.7847 37.4145 24.3886C37.4863 24.173 37.558 23.9454 37.6298 23.7298C38.3715 21.43 38.7423 19.0584 38.7423 16.6389C38.7423 13.1773 38.0007 9.87138 36.5412 6.79307C36.4096 6.49363 36.2541 6.1822 36.0388 5.78693L35.7995 5.34375L36.2661 5.54737C36.613 5.70309 36.9599 5.8588 37.3068 6.03847L37.3547 6.06242L37.3786 6.11033C37.5461 6.44571 37.7136 6.80505 37.8571 7.16439C39.1371 10.1589 39.7831 13.345 39.7831 16.6269C39.7831 19.2381 39.3644 21.8133 38.5509 24.2927C38.4672 24.5443 38.3835 24.7838 38.2997 25.0114C35.8713 31.5753 30.7633 36.7138 24.2796 39.1094C24.0523 39.2052 23.813 39.2771 23.5738 39.3609C21.2171 40.1395 18.7648 40.5347 16.2885 40.5347V40.5108ZM5.96482 37.684C6.28781 37.8397 6.6108 37.9954 6.93379 38.1392C9.88855 39.4807 13.0347 40.1514 16.2885 40.1514C18.7289 40.1514 21.1454 39.7562 23.4661 38.9896C23.6934 38.9177 23.9326 38.8339 24.148 38.75C30.548 36.3904 35.5722 31.3237 37.9648 24.8557C38.0485 24.6281 38.1323 24.4005 38.216 24.173C39.0294 21.7175 39.4362 19.1782 39.4362 16.6149C39.4362 13.3689 38.8022 10.2427 37.5341 7.28416C37.4025 6.94878 37.2351 6.6134 37.0915 6.29C36.924 6.20616 36.7566 6.12231 36.5891 6.03847C36.6967 6.24209 36.7805 6.42176 36.8642 6.60143C38.3476 9.71567 39.1012 13.0815 39.1012 16.591C39.1012 19.0464 38.7304 21.454 37.9887 23.7537C37.905 24.0172 37.8332 24.2448 37.7494 24.4604C35.4287 30.9644 30.225 36.2107 23.8011 38.4865L23.6216 38.5464C23.4541 38.6063 23.2747 38.6662 23.0953 38.7141C20.9181 39.4088 18.6213 39.7681 16.2885 39.7681C12.7715 39.7681 9.39808 38.9776 6.26388 37.4085C6.07248 37.3127 5.89305 37.2169 5.71361 37.121C5.79734 37.3007 5.86912 37.4684 5.95285 37.6361L5.96482 37.684Z" fill="white"/>
</g>
<g id="Group_4">
<path id="Vector_4" d="M24.2218 38.9195C24.0663 38.7278 23.9107 38.5482 23.7433 38.3565C20.5493 34.3919 18.6233 29.3132 18.6233 23.7795C18.6233 22.2583 18.7668 20.761 19.0539 19.3117C19.1018 19.0722 19.1616 18.8206 19.2094 18.5811C20.5612 12.688 24.1261 7.65726 28.9829 4.45917C29.2939 4.24356 29.6049 4.05192 29.9279 3.86027C29.5571 3.80038 29.1743 3.76445 28.8034 3.72852C28.4924 3.93214 28.1814 4.13576 27.8704 4.36334C23.1691 7.71714 19.7478 12.7958 18.4797 18.7008C18.4199 18.9404 18.3721 19.1919 18.3362 19.4555C18.073 20.8569 17.9414 22.2942 17.9414 23.7675C17.9414 29.3612 19.8554 34.5116 23.0614 38.5721C23.2169 38.7638 23.3724 38.9674 23.5399 39.1471C27.1765 43.4831 32.3085 46.4536 38.1223 47.2681C38.4932 47.3279 38.8759 47.3639 39.2468 47.3998C39.5578 47.1962 39.8689 46.9926 40.1799 46.765C39.809 46.753 39.4382 46.7171 39.0674 46.6811C33.1698 46.1062 27.9302 43.2076 24.2337 38.9195H24.2218Z" fill="white"/>
<path id="Vector_5" d="M39.2707 47.5905H39.2109C38.8281 47.5545 38.4453 47.5186 38.0745 47.4587C32.3683 46.6682 27.1526 43.7695 23.3844 39.2778C23.2169 39.0862 23.0614 38.8945 22.9059 38.6909C19.5803 34.4747 17.75 29.1805 17.75 23.7785C17.75 22.2932 17.8816 20.8319 18.1448 19.4305C18.1806 19.179 18.2405 18.9274 18.2883 18.6759C19.5444 12.8307 22.9059 7.69219 27.7507 4.23059C28.0378 4.01499 28.3489 3.81136 28.6838 3.58378L28.7317 3.54785H28.7915C29.1743 3.58379 29.5571 3.61972 29.9279 3.67961L30.4184 3.75148L29.9877 4.00301C29.6408 4.20663 29.3298 4.39828 29.0547 4.58993C24.1261 7.83593 20.6808 12.8067 19.3649 18.604L19.2932 18.9514C19.2692 19.0831 19.2453 19.2029 19.2094 19.3347C18.9343 20.772 18.7907 22.2573 18.7907 23.7665C18.7907 29.0248 20.5971 34.1633 23.8748 38.2238C23.9825 38.3555 24.0902 38.4753 24.1978 38.6071L24.3534 38.7867C28.1455 43.1946 33.3732 45.9255 39.0674 46.4885C39.4382 46.5364 39.809 46.5604 40.1679 46.5724L40.6823 46.5963L40.2636 46.8958C39.9526 47.1233 39.6416 47.327 39.3186 47.5426L39.2707 47.5785V47.5905ZM28.8274 3.93114C28.5044 4.13477 28.2292 4.32641 27.9541 4.53004C23.181 7.94373 19.8674 12.9984 18.6352 18.7597C18.5754 18.9993 18.5395 19.2508 18.4917 19.5024C18.2285 20.8918 18.0969 22.3291 18.0969 23.7904C18.0969 29.1925 19.8554 34.2711 23.181 38.4873C23.3365 38.6789 23.492 38.8706 23.6476 39.0622C27.356 43.4821 32.4879 46.3448 38.1103 47.1233C38.4573 47.1712 38.8161 47.2192 39.163 47.2431C39.3186 47.1473 39.4741 47.0395 39.6296 46.9317C39.4262 46.9197 39.2229 46.8958 39.0075 46.8718C33.2176 46.2969 27.9062 43.518 24.0663 39.0502L23.9107 38.8706C23.8031 38.7388 23.6954 38.619 23.5877 38.4873C20.2621 34.3549 18.4199 29.1446 18.4199 23.8024C18.4199 22.2693 18.5635 20.76 18.8506 19.3107C18.8745 19.179 18.8984 19.0472 18.9343 18.9155L19.0061 18.5681C20.3578 12.675 23.8509 7.62033 28.8513 4.33839C29.0188 4.23059 29.1862 4.11081 29.3776 4.00301C29.1862 3.97905 29.0068 3.96708 28.8154 3.9551L28.8274 3.93114Z" fill="white"/>
</g>
<g id="Group_5">
<path id="Vector_6" d="M46.123 39.2904C45.4531 33.3135 42.594 28.0073 38.3832 24.2223C38.1918 24.0546 38.0004 23.8869 37.809 23.7312C33.7776 20.3295 28.5858 18.2812 22.9514 18.2812C21.6714 18.2812 20.4154 18.3891 19.1832 18.5927C18.932 18.6406 18.6927 18.6765 18.4535 18.7244C12.6038 19.8983 7.53164 23.288 4.13426 28.0073C3.91893 28.3187 3.69165 28.6301 3.48828 28.9535C3.51221 29.3368 3.54809 29.7201 3.59594 30.0914C3.78735 29.768 3.99071 29.4566 4.20604 29.1452C7.4479 24.2702 12.4722 20.7247 18.3219 19.479C18.5612 19.4191 18.8004 19.3712 19.0397 19.3353C20.3077 19.1077 21.6236 18.9879 22.9514 18.9879C28.514 18.9879 33.6221 21.0481 37.5817 24.4499C37.7731 24.6175 37.9406 24.7733 38.132 24.9409C42.3069 28.7858 45.0703 34.1998 45.5249 40.2487C45.5607 40.6319 45.5727 41.0033 45.5847 41.3746C45.812 41.0632 46.0273 40.7517 46.2306 40.4403C46.2067 40.057 46.1708 39.6737 46.123 39.3024V39.2904Z" fill="white"/>
<path id="Vector_7" d="M45.4291 41.8766L45.4052 41.3736C45.3933 40.9663 45.3813 40.619 45.3454 40.2596C44.9148 34.4144 42.3069 29.0124 38.0123 25.0597L37.4621 24.5686C33.4067 21.0831 28.2628 19.1546 22.9514 19.1546C21.6595 19.1546 20.3436 19.2744 19.0636 19.49C18.8243 19.526 18.5851 19.5739 18.3458 19.6338C12.6157 20.8435 7.6393 24.2452 4.33762 29.216C4.12229 29.5275 3.93089 29.8389 3.73949 30.1623L3.46435 30.6175L3.40454 30.0904C3.35669 29.7071 3.33276 29.3358 3.29688 28.9406V28.8807L3.3208 28.8328C3.53613 28.4854 3.77538 28.162 3.96678 27.8865C7.48378 23.0115 12.6157 19.6936 18.3937 18.5438C18.6329 18.4959 18.8841 18.4479 19.1234 18.412C20.3675 18.2084 21.6475 18.1006 22.9155 18.1006C28.3705 18.1006 33.6938 20.053 37.8927 23.5864C38.0841 23.7422 38.2755 23.9218 38.4669 24.0895C42.8452 28.0183 45.6086 33.4083 46.2665 39.2655C46.3144 39.6488 46.3383 40.0321 46.3742 40.4154V40.4752L46.3503 40.5232C46.099 40.8945 45.8957 41.1939 45.6923 41.4694L45.3933 41.8766H45.4291ZM22.9634 18.7953C28.3466 18.7953 33.5862 20.7477 37.7013 24.2931L38.2516 24.7962C42.6179 28.8088 45.2617 34.2947 45.6923 40.2237C45.7163 40.4273 45.7282 40.631 45.7402 40.8346C45.8359 40.6908 45.9435 40.5351 46.0512 40.3674C46.0273 40.0081 45.9914 39.6488 45.9555 39.2894C45.3095 33.5161 42.582 28.2099 38.2755 24.3411C38.0961 24.1734 37.9047 24.0057 37.7133 23.85C33.5742 20.3644 28.3346 18.436 22.9634 18.436C21.7073 18.436 20.4512 18.5438 19.2311 18.7474C18.9798 18.7833 18.7526 18.8312 18.5133 18.8791C12.8071 20.017 7.75892 23.287 4.30173 28.0901C4.11033 28.3536 3.895 28.6531 3.69164 28.9765C3.7036 29.1681 3.71556 29.3478 3.73949 29.5275C3.84715 29.3598 3.95482 29.1801 4.07444 29.0124C7.42397 23.9697 12.4842 20.5081 18.298 19.2744C18.5372 19.2145 18.7765 19.1666 19.0277 19.1307C20.3316 18.9031 21.6595 18.7833 22.9753 18.7833L22.9634 18.7953Z" fill="white"/>
</g>
</g>
<g id="Group_6">
<path id="Vector_8" d="M37.0568 9.88112C39.019 9.88112 40.6097 8.26159 40.6097 6.2638C40.6097 4.26601 39.019 2.64648 37.0568 2.64648C35.0946 2.64648 33.5039 4.26601 33.5039 6.2638C33.5039 8.26159 35.0946 9.88112 37.0568 9.88112Z" fill="#61BB73"/>
<path id="Vector_9" d="M37.0563 10.2409C34.903 10.2409 33.1445 8.45617 33.1445 6.2762C33.1445 4.09623 34.8911 2.31152 37.0563 2.31152C39.2215 2.31152 40.9681 4.09623 40.9681 6.2762C40.9681 8.45617 39.2096 10.2409 37.0563 10.2409ZM37.0563 3.00624C35.2858 3.00624 33.8503 4.46754 33.8503 6.26422C33.8503 8.0609 35.2858 9.5222 37.0563 9.5222C38.8268 9.5222 40.2623 8.0609 40.2623 6.26422C40.2623 4.46754 38.8268 3.00624 37.0563 3.00624Z" fill="white"/>
</g>
<g id="Group_7">
<path id="Vector_10" d="M28.5998 7.58229C30.562 7.58229 32.1527 5.96276 32.1527 3.96497C32.1527 1.96718 30.562 0.347656 28.5998 0.347656C26.6376 0.347656 25.0469 1.96718 25.0469 3.96497C25.0469 5.96276 26.6376 7.58229 28.5998 7.58229Z" fill="#61BB73"/>
<path id="Vector_11" d="M28.5993 7.92935C26.446 7.92935 24.6875 6.14465 24.6875 3.96467C24.6875 1.7847 26.434 0 28.5993 0C30.7645 0 32.511 1.7847 32.511 3.96467C32.511 6.14465 30.7525 7.92935 28.5993 7.92935ZM28.5993 0.706694C26.8288 0.706694 25.3933 2.16799 25.3933 3.96467C25.3933 5.76135 26.8288 7.22265 28.5993 7.22265C30.3697 7.22265 31.8053 5.76135 31.8053 3.96467C31.8053 2.16799 30.3697 0.706694 28.5993 0.706694Z" fill="white"/>
</g>
<g id="Group_8">
<path id="Vector_12" d="M18.7443 22.637C20.7065 22.637 22.2972 21.0174 22.2972 19.0197C22.2972 17.0219 20.7065 15.4023 18.7443 15.4023C16.7821 15.4023 15.1914 17.0219 15.1914 19.0197C15.1914 21.0174 16.7821 22.637 18.7443 22.637Z" fill="#61BB73"/>
<path id="Vector_13" d="M18.7438 22.984C16.5905 22.984 14.832 21.1993 14.832 19.0194C14.832 16.8394 16.5905 15.0547 18.7438 15.0547C20.8971 15.0547 22.6556 16.8394 22.6556 19.0194C22.6556 21.1993 20.909 22.984 18.7438 22.984ZM18.7438 15.7614C16.9733 15.7614 15.5378 17.2227 15.5378 19.0194C15.5378 20.816 16.9733 22.2773 18.7438 22.2773C20.5143 22.2773 21.9498 20.816 21.9498 19.0194C21.9498 17.2227 20.5143 15.7614 18.7438 15.7614Z" fill="white"/>
</g>
<g id="Group_9">
<path id="Vector_14" d="M38.088 27.9563C40.0503 27.9563 41.6409 26.3368 41.6409 24.339C41.6409 22.3412 40.0503 20.7217 38.088 20.7217C36.1258 20.7217 34.5352 22.3412 34.5352 24.339C34.5352 26.3368 36.1258 27.9563 38.088 27.9563Z" fill="#61BB73"/>
<path id="Vector_15" d="M38.0876 28.3034C35.9343 28.3034 34.1758 26.5187 34.1758 24.3387C34.1758 22.1587 35.9343 20.374 38.0876 20.374C40.2408 20.374 41.9993 22.1587 41.9993 24.3387C41.9993 26.5187 40.2528 28.3034 38.0876 28.3034ZM38.0876 21.0807C36.3171 21.0807 34.8816 22.542 34.8816 24.3387C34.8816 26.1354 36.3171 27.5967 38.0876 27.5967C39.858 27.5967 41.2935 26.1354 41.2935 24.3387C41.2935 22.542 39.858 21.0807 38.0876 21.0807Z" fill="white"/>
</g>
<g id="Group_10">
<path id="Vector_16" d="M23.9162 42.1868C25.8784 42.1868 27.4691 40.5673 27.4691 38.5695C27.4691 36.5717 25.8784 34.9521 23.9162 34.9521C21.954 34.9521 20.3633 36.5717 20.3633 38.5695C20.3633 40.5673 21.954 42.1868 23.9162 42.1868Z" fill="#61BB73"/>
<path id="Vector_17" d="M23.9157 42.5338C21.7624 42.5338 20.0039 40.7491 20.0039 38.5692C20.0039 36.3892 21.7504 34.6045 23.9157 34.6045C26.0809 34.6045 27.8274 36.3892 27.8274 38.5692C27.8274 40.7491 26.0689 42.5338 23.9157 42.5338ZM23.9157 35.2992C22.1452 35.2992 20.7097 36.7605 20.7097 38.5572C20.7097 40.3539 22.1452 41.8152 23.9157 41.8152C25.6861 41.8152 27.1216 40.3539 27.1216 38.5572C27.1216 36.7605 25.6861 35.2992 23.9157 35.2992Z" fill="white"/>
</g>
<g id="Group_11">
<path id="Vector_18" d="M3.91227 32.5432C5.87448 32.5432 7.46516 30.9237 7.46516 28.9259C7.46516 26.9281 5.87448 25.3086 3.91227 25.3086C1.95006 25.3086 0.359375 26.9281 0.359375 28.9259C0.359375 30.9237 1.95006 32.5432 3.91227 32.5432Z" fill="#61BB73"/>
<path id="Vector_19" d="M3.91177 32.903C1.7585 32.903 0 31.1183 0 28.9383C0 26.7583 1.7585 24.9736 3.91177 24.9736C6.06504 24.9736 7.82354 26.7583 7.82354 28.9383C7.82354 31.1183 6.06504 32.903 3.91177 32.903ZM3.91177 25.6683C2.14131 25.6683 0.705793 27.1296 0.705793 28.9263C0.705793 30.723 2.14131 32.1843 3.91177 32.1843C5.68223 32.1843 7.11775 30.723 7.11775 28.9263C7.11775 27.1296 5.68223 25.6683 3.91177 25.6683Z" fill="white"/>
</g>
<g id="Group_12">
<path id="Vector_20" d="M6.15836 41.134C8.12057 41.134 9.71126 39.5145 9.71126 37.5167C9.71126 35.5189 8.12057 33.8994 6.15836 33.8994C4.19615 33.8994 2.60547 35.5189 2.60547 37.5167C2.60547 39.5145 4.19615 41.134 6.15836 41.134Z" fill="#61BB73"/>
<path id="Vector_21" d="M6.15786 41.4811C4.0046 41.4811 2.24609 39.6964 2.24609 37.5164C2.24609 35.3365 3.99263 33.5518 6.15786 33.5518C8.32309 33.5518 10.0696 35.3365 10.0696 37.5164C10.0696 39.6964 8.31113 41.4811 6.15786 41.4811ZM6.15786 34.2465C4.3874 34.2465 2.95189 35.7078 2.95189 37.5045C2.95189 39.3011 4.3874 40.7624 6.15786 40.7624C7.92833 40.7624 9.36384 39.3011 9.36384 37.5045C9.36384 35.7078 7.92833 34.2465 6.15786 34.2465Z" fill="white"/>
</g>
<g id="Group_13">
<path id="Vector_22" d="M39.8576 50.3313C41.8198 50.3313 43.4105 48.7118 43.4105 46.714C43.4105 44.7162 41.8198 43.0967 39.8576 43.0967C37.8954 43.0967 36.3047 44.7162 36.3047 46.714C36.3047 48.7118 37.8954 50.3313 39.8576 50.3313Z" fill="#61BB73"/>
<path id="Vector_23" d="M39.8571 50.6911C37.7038 50.6911 35.9453 48.9064 35.9453 46.7264C35.9453 44.5464 37.6918 42.7617 39.8571 42.7617C42.0223 42.7617 43.7689 44.5464 43.7689 46.7264C43.7689 48.9064 42.0103 50.6911 39.8571 50.6911ZM39.8571 43.4564C38.0866 43.4564 36.6511 44.9177 36.6511 46.7144C36.6511 48.5111 38.0866 49.9724 39.8571 49.9724C41.6275 49.9724 43.0631 48.5111 43.0631 46.7144C43.0631 44.9177 41.6275 43.4564 39.8571 43.4564Z" fill="white"/>
</g>
<g id="Group_14">
<path id="Vector_24" d="M46.0607 44.0667C48.0229 44.0667 49.6136 42.4471 49.6136 40.4493C49.6136 38.4516 48.0229 36.832 46.0607 36.832C44.0985 36.832 42.5078 38.4516 42.5078 40.4493C42.5078 42.4471 44.0985 44.0667 46.0607 44.0667Z" fill="#61BB73"/>
<path id="Vector_25" d="M46.0602 44.4264C43.9069 44.4264 42.1484 42.6417 42.1484 40.4617C42.1484 38.2818 43.895 36.4971 46.0602 36.4971C48.2254 36.4971 49.972 38.2818 49.972 40.4617C49.972 42.6417 48.2135 44.4264 46.0602 44.4264ZM46.0602 37.1918C44.2897 37.1918 42.8542 38.6531 42.8542 40.4498C42.8542 42.2464 44.2897 43.7077 46.0602 43.7077C47.8307 43.7077 49.2662 42.2464 49.2662 40.4498C49.2662 38.6531 47.8307 37.1918 46.0602 37.1918Z" fill="white"/>
</g>
</g>
</svg>
