<svg width="34" height="34" viewBox="0 0 34 34" fill="none" xmlns="http://www.w3.org/2000/svg">
<g id="gen feedback loops">
<path id="Vector" d="M17 33C25.8366 33 33 25.8366 33 17C33 8.16344 25.8366 1 17 1C8.16344 1 1 8.16344 1 17C1 25.8366 8.16344 33 17 33Z" fill="#130C49" stroke="#130C49" stroke-miterlimit="10"/>
<path id="Vector_2" d="M16.9998 27.2262C22.6477 27.2262 27.2262 22.6477 27.2262 16.9998C27.2262 11.352 22.6477 6.77344 16.9998 6.77344C11.352 6.77344 6.77344 11.352 6.77344 16.9998C6.77344 22.6477 11.352 27.2262 16.9998 27.2262Z" stroke="white" stroke-width="0.7" stroke-miterlimit="10"/>
<path id="Vector_3" d="M10.1395 13.2224C11.9985 13.2224 13.5056 11.7153 13.5056 9.85631C13.5056 7.99728 11.9985 6.49023 10.1395 6.49023C8.28048 6.49023 6.77344 7.99728 6.77344 9.85631C6.77344 11.7153 8.28048 13.2224 10.1395 13.2224Z" fill="#61BB73"/>
<path id="Vector_4" d="M24.9764 25.4488C26.2168 25.4488 27.2223 24.4433 27.2223 23.2029C27.2223 21.9626 26.2168 20.957 24.9764 20.957C23.736 20.957 22.7305 21.9626 22.7305 23.2029C22.7305 24.4433 23.736 25.4488 24.9764 25.4488Z" fill="#61BB73"/>
</g>
</svg>
