<?xml version="1.0" encoding="UTF-8"?><svg id="Layer_2" xmlns="http://www.w3.org/2000/svg" viewBox="0 0 513.47 394.55"><defs><style>.cls-1,.cls-2,.cls-3,.cls-4,.cls-5,.cls-6{fill:#00e300;}.cls-7,.cls-8,.cls-9,.cls-10,.cls-11,.cls-12,.cls-13{fill:#00b7e2;}.cls-14,.cls-15{fill:#fff;}.cls-16,.cls-17,.cls-18,.cls-19,.cls-20{fill:#fff000;}.cls-21{fill:#ffab00;}.cls-22{fill:#ff2146;}.cls-23{fill:#1c1468;}.cls-15,.cls-24{letter-spacing:0em;}.cls-8,.cls-2,.cls-25{letter-spacing:-.03em;}.cls-17,.cls-9,.cls-3{letter-spacing:-.02em;}.cls-26{font-family:Niramit-Medium, Niramit;font-size:13.39px;font-weight:500;}.cls-27,.cls-19,.cls-5,.cls-12{letter-spacing:-.04em;}.cls-28,.cls-20,.cls-6,.cls-13{letter-spacing:-.05em;}.cls-10{letter-spacing:-.04em;}.cls-29,.cls-18,.cls-11,.cls-4{letter-spacing:0em;}</style></defs><g id="cards"><g><rect class="cls-23" width="513.47" height="394.55" rx="23.42" ry="23.42"/><text class="cls-26" transform="translate(40.26 67.06)"><tspan class="cls-14"><tspan x="0" y="0">{</tspan></tspan><tspan class="cls-14" x="0" y="23.43"> </tspan><tspan class="cls-3" x="3.45" y="23.43">Ge</tspan><tspan class="cls-4" x="18.93" y="23.43">t </tspan><tspan class="cls-14" x="27.46" y="23.43">{</tspan><tspan class="cls-14" x="0" y="46.87" xml:space="preserve">    </tspan><tspan class="cls-2" x="13.82" y="46.87">M</tspan><tspan class="cls-1" x="23.95" y="46.87">yCla</tspan><tspan class="cls-2" x="50.6" y="46.87">s</tspan><tspan class="cls-4" x="56.87" y="46.87">s</tspan><tspan class="cls-14" x="63.47" y="46.87">(</tspan><tspan class="cls-14" x="0" y="70.3" xml:space="preserve">        </tspan><tspan class="cls-20" x="27.64" y="70.3">h</tspan><tspan class="cls-16" x="34.32" y="70.3">ybridS</tspan><tspan class="cls-17" x="74.17" y="70.3">e</tspan><tspan class="cls-18" x="81.18" y="70.3">a</tspan><tspan class="cls-19" x="88.85" y="70.3">r</tspan><tspan class="cls-16" x="93.65" y="70.3">ch:</tspan><tspan class="cls-14" x="110.85" y="70.3" xml:space="preserve"> {</tspan><tspan class="cls-14" x="0" y="93.73" xml:space="preserve">          </tspan><tspan class="cls-1" x="34.55" y="93.73">que</tspan><tspan class="cls-2" x="56.87" y="93.73">r</tspan><tspan class="cls-1" x="61.93" y="93.73">y:</tspan><tspan class="cls-15" x="72.57" y="93.73"> </tspan><tspan class="cls-7" x="76.03" y="93.73">&quot;</tspan><tspan class="cls-12" x="80.43" y="93.73">m</tspan><tspan class="cls-7" x="90.49" y="93.73">y </tspan><tspan class="cls-10" x="101.64" y="93.73">a</tspan><tspan class="cls-8" x="108.85" y="93.73">we</tspan><tspan class="cls-11" x="125.1" y="93.73">some </tspan><tspan class="cls-12" x="160.6" y="93.73">h</tspan><tspan class="cls-7" x="167.28" y="93.73">ybrid s</tspan><tspan class="cls-9" x="209.31" y="93.73">e</tspan><tspan class="cls-7" x="216.33" y="93.73">a</tspan><tspan class="cls-13" x="224" y="93.73">r</tspan><tspan class="cls-7" x="228.79" y="93.73">ch que</tspan><tspan class="cls-8" x="268.83" y="93.73">r</tspan><tspan class="cls-7" x="273.89" y="93.73">y&quot; </tspan><tspan class="cls-14" x="0" y="117.16" xml:space="preserve">          </tspan><tspan class="cls-4" x="34.55" y="117.16">alpha:</tspan><tspan class="cls-15" x="70.66" y="117.16"> </tspan><tspan class="cls-7" x="74.11" y="117.16">0.25</tspan><tspan class="cls-14"><tspan x="0" y="140.59" xml:space="preserve">      }</tspan></tspan><tspan class="cls-14"><tspan x="0" y="164.03" xml:space="preserve">  ){</tspan></tspan><tspan class="cls-14" x="0" y="187.46" xml:space="preserve">       </tspan><tspan class="cls-5" x="24.18" y="187.46">m</tspan><tspan class="cls-1" x="34.24" y="187.46">yP</tspan><tspan class="cls-6" x="49.89" y="187.46">r</tspan><tspan class="cls-1" x="54.68" y="187.46">ope</tspan><tspan class="cls-2" x="77.19" y="187.46">rt</tspan><tspan class="cls-1" x="86.99" y="187.46">y</tspan><tspan class="cls-1" x="0" y="210.89" xml:space="preserve">       _a</tspan><tspan class="cls-3" x="39.53" y="210.89">d</tspan><tspan class="cls-1" x="46.92" y="210.89">ditional </tspan><tspan class="cls-14" x="95.36" y="210.89">{</tspan><tspan class="cls-1"><tspan x="0" y="234.32" xml:space="preserve">           di</tspan><tspan class="cls-25" x="49.15" y="234.32">s</tspan><tspan class="cls-27" x="55.42" y="234.32">t</tspan><tspan class="cls-29" x="59.89" y="234.32">an</tspan><tspan class="cls-25" x="74.98" y="234.32">c</tspan><tspan class="cls-24" x="81.62" y="234.32">e </tspan></tspan><tspan class="cls-1"><tspan x="0" y="257.76" xml:space="preserve">            s</tspan><tspan class="cls-25" x="48.06" y="257.76">c</tspan><tspan x="54.7" y="257.76">o</tspan><tspan class="cls-28" x="62.13" y="257.76">r</tspan><tspan class="cls-24" x="66.92" y="257.76">e</tspan></tspan><tspan class="cls-14"><tspan x="0" y="281.19" xml:space="preserve">           }</tspan></tspan><tspan class="cls-14"><tspan x="0" y="304.62" xml:space="preserve">        }</tspan></tspan></text><circle class="cls-22" cx="28" cy="24.67" r="4.08"/><circle class="cls-21" cx="42.06" cy="24.67" r="4.08"/><circle class="cls-1" cx="56.12" cy="24.67" r="4.08"/></g></g></svg>