<svg width="157" height="26" viewBox="0 0 157 26" fill="none" xmlns="http://www.w3.org/2000/svg">
<path d="M43.9749 25.9934C47.8443 25.9934 51.2294 24.062 52.5671 20.1639C52.828 19.3825 52.4543 18.8637 51.7114 18.8637H50.261C49.591 18.8637 49.1466 19.1595 48.8459 19.7908C47.6939 22.0577 46.0931 22.8722 44.0855 22.8722C40.5146 22.8722 38.3191 20.3824 38.3191 16.226C38.3191 12.0674 40.5898 9.57976 44.0081 9.57976C46.0909 9.57976 47.8023 10.4715 48.8813 12.5883C49.2173 13.2196 49.6242 13.5154 50.2963 13.5154H51.7468C52.4897 13.5154 52.8611 13.0342 52.6025 12.3257C51.0415 8.09202 47.5436 6.45861 43.9727 6.45861C38.58 6.45861 34.5625 10.434 34.5625 16.226C34.5625 22.018 38.3943 25.9934 43.9749 25.9934ZM141.314 14.5175C141.796 11.3611 143.954 9.39214 146.893 9.39214C149.831 9.39214 152.027 11.3964 152.285 14.5175H141.314ZM147.045 25.9934C150.468 25.9934 153.891 24.3975 155.564 20.7951C155.973 19.9409 155.602 19.3471 154.859 19.3471H153.484C152.816 19.3471 152.405 19.6429 152.069 20.2389C150.954 22.2056 149.02 23.0245 147.047 23.0245C143.662 23.0245 141.469 20.7223 141.208 16.9721H154.861C155.604 16.9721 156.091 16.5637 156.091 15.7823C155.94 9.95279 152.148 6.46302 146.902 6.46302C141.655 6.46302 137.491 10.2508 137.491 16.2304C137.491 22.21 141.546 25.9978 147.052 25.9978L147.045 25.9934ZM125.395 16.7094H126.622C127.365 16.7094 127.774 16.301 127.887 15.5197C128.596 10.5024 131.537 9.83802 134.666 9.98591C135.336 10.0168 135.884 9.50471 135.884 8.83369V7.68367C135.884 6.94201 135.51 6.49393 134.77 6.45861C132.001 6.35487 129.532 7.30181 128.103 9.98811C128.024 10.1338 127.805 10.0963 127.785 9.93073L127.555 7.9044C127.482 7.16274 127.073 6.79192 126.328 6.79192H120.712C120.055 6.79192 119.52 7.32388 119.52 7.98166V8.61296C119.52 9.26853 120.053 9.8027 120.712 9.8027H123.018C123.674 9.8027 124.21 10.3347 124.21 10.9924V15.5219C124.21 16.1774 124.742 16.7116 125.401 16.7116H125.395V16.7094ZM120.376 25.6226H132.017C132.76 25.6226 133.209 25.1767 133.209 24.4328V23.8015C133.209 23.0599 132.762 22.6118 132.017 22.6118H129.041C128.298 22.6118 127.849 22.1659 127.849 21.422V19.378C127.849 18.6364 127.402 18.1883 126.657 18.1883H125.392C124.65 18.1883 124.201 18.6342 124.201 19.378V21.422C124.201 22.1637 123.754 22.6118 123.009 22.6118H120.369C119.626 22.6118 119.177 23.0576 119.177 23.8015V24.4328C119.177 25.1745 119.624 25.6226 120.369 25.6226H120.376ZM102.409 14.5197C102.891 11.3633 105.049 9.39434 107.987 9.39434C110.926 9.39434 113.121 11.3986 113.38 14.5197H102.409ZM108.137 25.9956C111.56 25.9956 114.983 24.3997 116.657 20.7973C117.066 19.9431 116.694 19.3493 115.951 19.3493H114.576C113.906 19.3493 113.497 19.6451 113.161 20.2411C112.047 22.2078 110.112 23.0267 108.14 23.0267C104.755 23.0267 102.561 20.7245 102.3 16.9743H115.951C116.694 16.9743 117.181 16.5659 117.181 15.7845C117.03 9.955 113.238 6.46523 107.994 6.46523C102.747 6.46523 98.5835 10.253 98.5835 16.2326C98.5835 22.2122 102.639 26 108.144 26L108.137 25.9956ZM65.1037 25.9956C70.6822 25.9956 74.6643 21.8745 74.6643 16.2282C74.6643 10.5819 70.6822 6.46082 65.1037 6.46082C59.5253 6.46082 55.5432 10.6569 55.5432 16.2282C55.5432 17.5283 55.7665 18.9763 56.4342 20.5722C56.7703 21.3536 57.4027 21.464 58.0726 20.9806L59.1516 20.1992C59.711 19.7908 59.8569 19.3074 59.6712 18.6033C59.3749 17.6762 59.2975 16.8573 59.2975 16.1532C59.2975 12.255 61.6412 9.57976 65.0993 9.57976C68.5574 9.57976 70.9011 12.2153 70.9011 16.226C70.9011 20.2367 68.595 22.8722 65.1723 22.8722C63.9805 22.8722 62.8662 22.6493 61.5263 21.645C60.9669 21.1991 60.4473 21.1262 59.8525 21.5721L59.0344 22.1659C58.3645 22.6471 58.2915 23.3159 58.9216 23.8368C60.8563 25.3952 63.0873 25.9912 65.0971 25.9912H65.1037V25.9956ZM79.3849 25.6226H80.6143C81.2709 25.6226 81.806 25.0906 81.806 24.4328V15.5594C81.806 11.8114 83.8136 9.57976 86.9401 9.57976C89.7658 9.57976 91.4042 11.4383 91.4042 14.853V24.435C91.4042 25.0906 91.937 25.6248 92.5959 25.6248H93.8607C94.5173 25.6248 95.0524 25.0928 95.0524 24.435V14.2593C95.0524 9.24645 92.4854 6.46302 88.134 6.46302C85.1712 6.46302 83.4201 7.67264 82.1133 9.35903C82.0138 9.48706 81.8126 9.41642 81.8126 9.25749V1.18974C81.8038 0.531964 81.2731 0 80.6165 0H79.3871C78.7304 0 78.1954 0.531964 78.1954 1.18974V24.435C78.1932 25.0884 78.726 25.6226 79.3849 25.6226Z" fill="#3A594D"/>
<mask id="mask0_4065_5704" style="mask-type:luminance" maskUnits="userSpaceOnUse" x="0" y="0" width="27" height="26">
<path d="M26.0417 0H0V25.9978H26.0417V0Z" fill="white"/>
</mask>
<g mask="url(#mask0_4065_5704)">
<path fill-rule="evenodd" clip-rule="evenodd" d="M8.43567 15.4798C9.13657 15.4798 10.5317 15.4423 12.4576 14.6498C14.704 13.7272 19.1725 12.0518 22.394 10.3301C24.6493 9.12713 25.6354 7.53345 25.6354 5.39014C25.6354 2.41467 23.2188 0.0020752 20.2383 0.0020752H7.74803C3.46523 0.0020752 -0.00390625 3.46756 -0.00390625 7.74093C-0.00390625 12.0143 3.24855 15.4798 8.43567 15.4798Z" fill="#3A594D"/>
<path fill-rule="evenodd" clip-rule="evenodd" d="M10.5508 20.8083C10.5508 18.7135 11.8133 16.8241 13.7524 16.0206L17.6858 14.3916C21.6635 12.7427 26.0436 15.663 26.0436 19.9629C26.0436 23.2937 23.3373 25.9955 20.0008 25.9933H15.7423C12.8746 25.9911 10.5508 23.6712 10.5508 20.8083Z" fill="#BD8FC0"/>
<path d="M4.46853 16.4995C2.001 16.4995 0 18.4971 0 20.9605V21.5388C0 24.0022 2.001 25.9998 4.46853 25.9998C6.93606 25.9998 8.93707 24.0022 8.93707 21.5388V20.9605C8.93707 18.4971 6.93606 16.4995 4.46853 16.4995Z" fill="#EE765C"/>
</g>
</svg>
