<svg width="29" height="23" viewBox="0 0 29 23" fill="none" xmlns="http://www.w3.org/2000/svg">
<path d="M23.2719 18.2943H21.7656V17.4697H22.4473V16.7881H23.2719V18.2943Z" fill="#130C49"/>
<path d="M19.557 18.2953H17.3581V17.4707H19.557V18.2953ZM15.1592 18.2953H12.9603V17.4707H15.1592V18.2953ZM10.7614 18.2953H8.5625V17.4707H10.7614V18.2953Z" fill="#130C49"/>
<path d="M6.35318 18.2943H4.83594V16.7881H5.66052V17.4697H6.35318V18.2943Z" fill="#130C49"/>
<path d="M5.66052 14.6118H4.83594V12.424H5.66052V14.6118ZM5.66052 10.247H4.83594V8.07014H5.66052V10.247ZM5.66052 5.88223H4.83594V3.69434H5.66052V5.88223Z" fill="#130C49"/>
<path d="M5.66052 1.50625H4.83594V0H6.35318V0.824586H5.66052V1.50625Z" fill="#130C49"/>
<path d="M19.557 0.824586H17.3581V0H19.557V0.824586ZM15.1592 0.824586H12.9603V0H15.1592V0.824586ZM10.7614 0.824586H8.5625V0H10.7614V0.824586Z" fill="#130C49"/>
<path d="M23.2719 1.50625H22.4473V0.824586H21.7656V0H23.2719V1.50625Z" fill="#130C49"/>
<path d="M23.2738 14.6118H22.4492V12.424H23.2738V14.6118ZM23.2738 10.247H22.4492V8.07014H23.2738V10.247ZM23.2738 5.88223H22.4492V3.69434H23.2738V5.88223Z" fill="#130C49"/>
<path d="M22.5168 14.4252C24.3081 14.4252 25.7602 12.9731 25.7602 11.1818C25.7602 9.39058 24.3081 7.93848 22.5168 7.93848C20.7256 7.93848 19.2734 9.39058 19.2734 11.1818C19.2734 12.9731 20.7256 14.4252 22.5168 14.4252Z" fill="#61BD73"/>
<path d="M22.5056 14.8316C20.4937 14.8316 18.8555 13.1934 18.8555 11.1814C18.8555 9.16943 20.4937 7.53125 22.5056 7.53125C24.5176 7.53125 26.1558 9.16943 26.1558 11.1814C26.1558 13.1934 24.5176 14.8316 22.5056 14.8316ZM22.5056 8.35584C20.9444 8.35584 19.6801 9.6202 19.6801 11.1814C19.6801 12.7426 20.9444 14.007 22.5056 14.007C24.0669 14.007 25.3312 12.7426 25.3312 11.1814C25.3312 9.6202 24.0669 8.35584 22.5056 8.35584Z" fill="#130C49"/>
<path d="M17.3711 20.0429C17.3711 17.1514 19.7129 14.8096 22.6044 14.8096C25.496 14.8096 27.8378 17.1514 27.8378 20.0429" fill="#61BD73"/>
<path d="M28.2554 20.0428H27.4309C27.4309 17.3821 25.2649 15.2162 22.6043 15.2162C19.9436 15.2162 17.7777 17.3821 17.7777 20.0428H16.9531C16.9531 16.9313 19.4818 14.3916 22.6043 14.3916C25.7267 14.3916 28.2554 16.9203 28.2554 20.0428Z" fill="#130C49"/>
<path d="M5.55585 14.4252C7.34711 14.4252 8.79923 12.9731 8.79923 11.1818C8.79923 9.39058 7.34711 7.93848 5.55585 7.93848C3.76459 7.93848 2.3125 9.39058 2.3125 11.1818C2.3125 12.9731 3.76459 14.4252 5.55585 14.4252Z" fill="#61BD73"/>
<path d="M5.55639 14.8316C3.5444 14.8316 1.90625 13.1934 1.90625 11.1814C1.90625 9.16943 3.5444 7.53125 5.55639 7.53125C7.56838 7.53125 9.20656 9.16943 9.20656 11.1814C9.20656 13.1934 7.56838 14.8316 5.55639 14.8316ZM5.55639 8.35584C3.99517 8.35584 2.73084 9.6202 2.73084 11.1814C2.73084 12.7426 3.99517 14.007 5.55639 14.007C7.11761 14.007 8.38198 12.7426 8.38198 11.1814C8.38198 9.6202 7.11761 8.35584 5.55639 8.35584Z" fill="#130C49"/>
<path d="M0.417969 20.0429C0.417969 17.1514 2.7598 14.8096 5.65135 14.8096C8.5429 14.8096 10.8847 17.1514 10.8847 20.0429" fill="#61BD73"/>
<path d="M11.3023 20.0428H10.4777C10.4777 17.3821 8.31184 15.2162 5.65118 15.2162C2.99051 15.2162 0.824586 17.3821 0.824586 20.0428H0C0 16.9313 2.52875 14.3916 5.65118 14.3916C8.77361 14.3916 11.3023 16.9203 11.3023 20.0428Z" fill="#130C49"/>
<path d="M14.1418 16.4926C15.9331 16.4926 17.3852 15.0405 17.3852 13.2492C17.3852 11.458 15.9331 10.0059 14.1418 10.0059C12.3506 10.0059 10.8984 11.458 10.8984 13.2492C10.8984 15.0405 12.3506 16.4926 14.1418 16.4926Z" fill="#130C49"/>
<path d="M14.1424 16.899C12.1304 16.899 10.4922 15.2608 10.4922 13.2488C10.4922 11.2368 12.1304 9.59863 14.1424 9.59863C16.1543 9.59863 17.7925 11.2368 17.7925 13.2488C17.7925 15.2608 16.1543 16.899 14.1424 16.899ZM14.1424 10.4232C12.5811 10.4232 11.3168 11.6876 11.3168 13.2488C11.3168 14.81 12.5811 16.0744 14.1424 16.0744C15.7036 16.0744 16.9679 14.81 16.9679 13.2488C16.9679 11.6876 15.7036 10.4232 14.1424 10.4232Z" fill="#61BD73"/>
<path d="M8.99609 22.1103C8.99609 19.2188 11.3379 16.877 14.2295 16.877C17.121 16.877 19.4629 19.2188 19.4629 22.1103" fill="#130C49"/>
<path d="M19.8804 22.1101H19.0559C19.0559 19.4495 16.8899 17.2836 14.2293 17.2836C11.5686 17.2836 9.40271 19.4495 9.40271 22.1101H8.57812C8.57812 18.9987 11.1068 16.459 14.2293 16.459C17.3517 16.459 19.8804 18.9987 19.8804 22.1101Z" fill="#61BD73"/>
</svg>
