<svg width="198" height="115" viewBox="0 0 198 115" fill="none" xmlns="http://www.w3.org/2000/svg">
<path d="M23.6069 81.7596C26.6905 81.7596 29.1903 79.2439 29.1903 76.1406C29.1903 73.0372 26.6905 70.5215 23.6069 70.5215C20.5232 70.5215 18.0234 73.0372 18.0234 76.1406C18.0234 79.2439 20.5232 81.7596 23.6069 81.7596Z" fill="#A590DD"/>
<path d="M23.607 81.8471C20.4825 81.8471 17.9375 79.2897 17.9375 76.1413C17.9375 72.9929 20.4825 70.4355 23.607 70.4355C26.7316 70.4355 29.2766 72.9929 29.2766 76.1413C29.2766 79.2897 26.7355 81.8471 23.607 81.8471ZM23.607 70.6129C20.5765 70.6129 18.1098 73.0914 18.1098 76.1453C18.1098 79.1991 20.5765 81.6776 23.607 81.6776C26.6376 81.6776 29.1043 79.1991 29.1043 76.1453C29.1043 73.0914 26.6415 70.6129 23.607 70.6129Z" fill="#A590DD"/>
<path d="M16.8702 103.627C19.4002 103.627 21.4512 101.563 21.4512 99.0166C21.4512 96.4704 19.4002 94.4062 16.8702 94.4062C14.3401 94.4062 12.2891 96.4704 12.2891 99.0166C12.2891 101.563 14.3401 103.627 16.8702 103.627Z" fill="#61BD73"/>
<path d="M16.8703 103.698C14.3057 103.698 12.2188 101.598 12.2188 99.0172C12.2188 96.4362 14.3057 94.3359 16.8703 94.3359C19.4349 94.3359 21.5218 96.4362 21.5218 99.0172C21.5218 101.598 19.4349 103.698 16.8703 103.698ZM16.8703 94.4778C14.384 94.4778 12.3597 96.515 12.3597 99.0172C12.3597 101.519 14.384 103.557 16.8703 103.557C19.3566 103.557 21.3809 101.519 21.3809 99.0172C21.3809 96.515 19.3566 94.4778 16.8703 94.4778Z" fill="#61BD73"/>
<path d="M26.8347 92.3124C28.3743 92.3124 29.6225 91.0563 29.6225 89.5068C29.6225 87.9573 28.3743 86.7012 26.8347 86.7012C25.295 86.7012 24.0469 87.9573 24.0469 89.5068C24.0469 91.0563 25.295 92.3124 26.8347 92.3124Z" fill="#61BD73"/>
<path d="M26.8348 92.3561C25.2725 92.3561 24.0039 91.0794 24.0039 89.5071C24.0039 87.9349 25.2764 86.6582 26.8348 86.6582C28.3931 86.6582 29.6656 87.9349 29.6656 89.5071C29.6656 91.0794 28.397 92.3561 26.8348 92.3561ZM26.8348 86.7449C25.3195 86.7449 24.09 87.9822 24.09 89.5071C24.09 91.0321 25.3234 92.2694 26.8348 92.2694C28.3461 92.2694 29.5795 91.0321 29.5795 89.5071C29.5795 87.9822 28.35 86.7449 26.8348 86.7449Z" fill="#61BD73"/>
<path d="M30.3212 105.262C31.437 105.262 32.3415 104.352 32.3415 103.229C32.3415 102.106 31.437 101.195 30.3212 101.195C29.2053 101.195 28.3008 102.106 28.3008 103.229C28.3008 104.352 29.2053 105.262 30.3212 105.262Z" fill="#61BD73"/>
<path d="M30.3212 105.294C29.1897 105.294 28.2695 104.368 28.2695 103.229C28.2695 102.09 29.1897 101.164 30.3212 101.164C31.4528 101.164 32.3729 102.09 32.3729 103.229C32.3729 104.368 31.4528 105.294 30.3212 105.294ZM30.3212 101.227C29.2249 101.227 28.3322 102.126 28.3322 103.229C28.3322 104.332 29.2249 105.231 30.3212 105.231C31.4175 105.231 32.3102 104.332 32.3102 103.229C32.3102 102.126 31.4175 101.227 30.3212 101.227Z" fill="#61BD73"/>
<path d="M9.58467 89.2753C11.1243 89.2753 12.3725 88.0191 12.3725 86.4697C12.3725 84.9202 11.1243 83.6641 9.58467 83.6641C8.04501 83.6641 6.79688 84.9202 6.79688 86.4697C6.79688 88.0191 8.04501 89.2753 9.58467 89.2753Z" fill="#A590DD"/>
<path d="M9.58476 89.319C8.0225 89.319 6.75391 88.0423 6.75391 86.47C6.75391 84.8978 8.02642 83.6211 9.58476 83.6211C11.1431 83.6211 12.4156 84.8978 12.4156 86.47C12.4156 88.0423 11.147 89.319 9.58476 89.319ZM9.58476 83.7038C8.06949 83.7038 6.84003 84.9411 6.84003 86.4661C6.84003 87.9911 8.0734 89.2284 9.58476 89.2284C11.0961 89.2284 12.3295 87.9911 12.3295 86.4661C12.3295 84.9411 11.1 83.7038 9.58476 83.7038Z" fill="#A590DD"/>
<path d="M36.3986 80.6452C37.3457 80.6452 38.1135 79.8725 38.1135 78.9193C38.1135 77.9661 37.3457 77.1934 36.3986 77.1934C35.4514 77.1934 34.6836 77.9661 34.6836 78.9193C34.6836 79.8725 35.4514 80.6452 36.3986 80.6452Z" fill="#A590DD"/>
<path d="M36.3986 80.673C35.4393 80.673 34.6562 79.8849 34.6562 78.9195C34.6562 77.9541 35.4393 77.166 36.3986 77.166C37.3579 77.166 38.141 77.9541 38.141 78.9195C38.141 79.8849 37.3579 80.673 36.3986 80.673ZM36.3986 77.2172C35.4667 77.2172 34.7071 77.9817 34.7071 78.9195C34.7071 79.8573 35.4667 80.6218 36.3986 80.6218C37.3305 80.6218 38.09 79.8573 38.09 78.9195C38.09 77.9817 37.3305 77.2172 36.3986 77.2172Z" fill="#A590DD"/>
<path d="M22.9725 8.41016H18.0508V13.3633H22.9725V8.41016Z" fill="#55CBDE"/>
<path d="M29.2409 13.5527H23.1367V19.6959H29.2409V13.5527Z" fill="#130C49"/>
<path d="M17.0508 23.0605H7.05469V33.1205H17.0508V23.0605Z" fill="#130C49"/>
<path d="M30.8386 28.8535H26.3867V33.3338H30.8386V28.8535Z" fill="#55CBDE"/>
<path d="M38.1482 34.2988H33.2344V39.2441H38.1482V34.2988Z" fill="#130C49"/>
<path d="M17.6236 44.6172H23.2109V38.9942H17.6236V44.6172Z" fill="#61BD73"/>
<path d="M25.65 52.4008C25.3955 52.4008 25.1762 52.1801 25.1762 51.924C25.1762 51.656 25.3955 51.4511 25.65 51.4511C25.9163 51.4511 26.1199 51.656 26.1199 51.924C26.1199 52.1801 25.9163 52.4008 25.65 52.4008ZM22.7839 52.2431C22.5177 52.2195 22.3375 51.987 22.3728 51.7191C22.3963 51.4511 22.6273 51.2698 22.8936 51.2935C23.1481 51.3171 23.3399 51.5614 23.3046 51.8294C23.2812 52.0737 23.0776 52.2431 22.8348 52.2431H22.7878H22.7839ZM27.9954 51.8176C27.9719 51.5496 28.152 51.3171 28.4182 51.2935C28.6727 51.258 28.9155 51.4511 28.939 51.7072C28.9625 51.9752 28.7824 52.2077 28.5161 52.2431H28.4691C28.2264 52.2431 28.0228 52.0619 27.9954 51.8176ZM19.957 51.7703C19.7025 51.7112 19.5341 51.455 19.5928 51.1989C19.6516 50.9428 19.9061 50.7733 20.1606 50.8325C20.4151 50.8916 20.5717 51.1477 20.5129 51.4038C20.466 51.6205 20.2702 51.7821 20.0549 51.7821C20.0196 51.7821 19.9805 51.7703 19.957 51.7703ZM30.7871 51.4038C30.7284 51.1359 30.8849 50.8797 31.1394 50.8325C31.3939 50.7694 31.6485 50.927 31.7072 51.1871C31.7659 51.4432 31.6093 51.6994 31.3548 51.7585C31.3196 51.7703 31.2843 51.7703 31.2452 51.7703C31.0298 51.7703 30.8341 51.6245 30.7871 51.4038ZM17.1887 50.9664C16.946 50.8837 16.8129 50.6118 16.899 50.3596C16.9851 50.1153 17.2514 49.9813 17.502 50.068C17.7447 50.1665 17.8779 50.4345 17.7917 50.6748C17.7173 50.8679 17.5372 51.0058 17.3454 51.0058C17.2984 51.0058 17.2357 50.994 17.1887 50.9704V50.9664ZM33.5083 50.663C33.4222 50.4187 33.5553 50.1389 33.798 50.0562C34.0369 49.9734 34.3188 50.1035 34.401 50.3478C34.4833 50.6039 34.3541 50.8719 34.1113 50.9546C34.0643 50.9783 34.0017 50.9782 33.9547 50.9782C33.7628 50.9782 33.5788 50.8561 33.5083 50.663ZM14.5302 49.871C14.2992 49.7488 14.1895 49.4691 14.3148 49.2248C14.4244 48.9923 14.7142 48.8819 14.9413 49.008C15.184 49.1184 15.282 49.41 15.1723 49.6385C15.0862 49.8079 14.9178 49.9064 14.7377 49.9064C14.6672 49.9064 14.6046 49.8946 14.5341 49.871H14.5302ZM36.1277 49.6267C36.0181 49.3824 36.116 49.1026 36.3431 48.9804C36.5858 48.8701 36.8638 48.9686 36.9852 49.2129C37.0948 49.4415 36.9969 49.7252 36.7698 49.8434C36.6955 49.867 36.625 49.8907 36.5506 49.8907C36.3822 49.8907 36.2138 49.7922 36.1277 49.6227V49.6267ZM12.0165 48.4721C11.8011 48.3263 11.7267 48.0347 11.8716 47.8141C12.0165 47.5816 12.3062 47.5225 12.5255 47.6564C12.7408 47.8022 12.8152 48.0938 12.6704 48.3263C12.5842 48.4603 12.4276 48.543 12.271 48.543C12.1848 48.543 12.1026 48.5194 12.0165 48.4721ZM38.618 48.2909C38.4848 48.0741 38.5475 47.7786 38.7628 47.6328C38.9939 47.487 39.2836 47.5619 39.4284 47.7904C39.5616 48.0072 39.4911 48.3027 39.2718 48.4485C39.2013 48.4958 39.1152 48.5194 39.0291 48.5194C38.8607 48.5194 38.7159 48.4327 38.618 48.2869V48.2909ZM9.67111 46.7935C9.46751 46.6359 9.444 46.3325 9.60061 46.1236C9.76898 45.9187 10.0587 45.8911 10.2663 46.0488C10.4699 46.2064 10.509 46.5098 10.3406 46.7186C10.2545 46.8408 10.1097 46.8999 9.97653 46.8999C9.8669 46.8999 9.77292 46.8644 9.67503 46.7896L9.67111 46.7935ZM40.9516 46.695C40.7832 46.4901 40.8184 46.1827 41.022 46.0251C41.2139 45.8557 41.5193 45.8911 41.6877 46.096C41.856 46.3009 41.8208 46.5965 41.6172 46.7659C41.531 46.8408 41.4253 46.8644 41.3157 46.8644C41.1825 46.8644 41.0494 46.8053 40.9516 46.695ZM7.5333 44.8706C7.35319 44.6893 7.35319 44.3819 7.5333 44.2007C7.71341 44.0194 8.0188 44.0194 8.1989 44.2007H8.21066C8.39077 44.3819 8.39077 44.6854 8.21066 44.8706C8.11669 44.9691 7.99532 45.0163 7.87394 45.0163C7.75256 45.0163 7.61944 44.9691 7.5333 44.8706ZM43.0776 44.8351C42.8975 44.6538 42.8975 44.3504 43.0776 44.1652C43.2695 43.984 43.5749 43.984 43.755 44.1652C43.9351 44.3465 43.9351 44.6538 43.755 44.8351C43.6571 44.9336 43.5396 44.9809 43.4183 44.9809C43.2969 44.9809 43.1755 44.9336 43.0776 44.8351ZM5.61081 42.7191C5.45419 42.5142 5.48942 42.2226 5.69693 42.0492C5.90054 41.8916 6.19031 41.9152 6.36259 42.1241C6.51921 42.329 6.48393 42.6363 6.27641 42.8058C6.19027 42.8649 6.0963 42.9043 5.98667 42.9043C5.85355 42.9043 5.70869 42.8452 5.61081 42.723V42.7191ZM45.0001 42.7545C44.7965 42.5969 44.7574 42.2935 44.9297 42.0847C45.0863 41.8797 45.3877 41.8522 45.5953 42.0137C45.7989 42.1713 45.838 42.4748 45.6658 42.6836C45.5679 42.8058 45.4386 42.8649 45.2898 42.8649C45.192 42.8649 45.0862 42.8294 45.0001 42.7545ZM3.95458 40.3706C3.80971 40.1538 3.8841 39.8465 4.09945 39.7125C4.3148 39.5667 4.60843 39.6416 4.7533 39.8583C4.88643 40.075 4.82378 40.3706 4.60843 40.5164C4.52229 40.5636 4.4401 40.5873 4.35397 40.5873C4.19735 40.5873 4.04072 40.5164 3.95458 40.3706ZM46.6798 40.4809C46.4527 40.3351 46.3901 40.0435 46.535 39.8228C46.6681 39.6061 46.9578 39.5312 47.1771 39.6652C47.4081 39.811 47.4668 40.1026 47.3337 40.3233C47.2358 40.4691 47.0949 40.5558 46.9344 40.5558C46.8521 40.5558 46.7542 40.5321 46.6798 40.4809ZM2.55283 37.8408C2.43145 37.6122 2.5411 37.3167 2.76819 37.2103C3.01095 37.1 3.28895 37.1985 3.41033 37.427C3.51996 37.6595 3.4221 37.9511 3.18325 38.0615C3.12061 38.0969 3.05012 38.1087 2.97964 38.1087C2.81128 38.1087 2.63897 38.0102 2.55674 37.8408H2.55283ZM48.0933 38.0221C47.8545 37.8999 47.7566 37.6201 47.8662 37.3758C47.9876 37.1473 48.2656 37.0488 48.5083 37.1591C48.7354 37.2812 48.8333 37.561 48.7237 37.8053V37.7935C48.6376 37.9629 48.4692 38.0733 48.3008 38.0733C48.2264 38.0733 48.156 38.0496 48.0933 38.026V38.0221ZM1.45261 35.1771C1.35473 34.9209 1.48785 34.653 1.74235 34.5702C1.98511 34.4835 2.26312 34.6057 2.34534 34.8618C2.43148 35.1061 2.29836 35.3741 2.05561 35.4686C1.99687 35.4805 1.94596 35.4923 1.89898 35.4923C1.69538 35.4923 1.51134 35.3701 1.45261 35.1771ZM49.221 35.4214C48.9665 35.3386 48.8451 35.0707 48.9312 34.8145C49.0174 34.5584 49.2836 34.4362 49.5342 34.5229C49.777 34.6057 49.9101 34.8776 49.824 35.1298C49.7496 35.3228 49.5694 35.445 49.3776 35.445C49.3189 35.445 49.2679 35.4332 49.221 35.4214ZM0.653848 32.403C0.595116 32.135 0.751743 31.8789 1.00625 31.8316C1.26075 31.7686 1.51523 31.9301 1.57397 32.1862C1.6327 32.4424 1.47612 32.6985 1.22161 32.7576C1.18638 32.7694 1.14721 32.7694 1.11197 32.7694C0.892707 32.7694 0.700829 32.6236 0.649928 32.403H0.653848ZM50.051 32.7064C49.7965 32.6473 49.6281 32.3912 49.6869 32.135C49.7456 31.8789 50.0001 31.7213 50.2546 31.7804C50.5091 31.8277 50.6657 32.0838 50.6188 32.3399C50.5561 32.5685 50.3643 32.7182 50.145 32.7182C50.1098 32.7182 50.0745 32.7182 50.0471 32.7064H50.051ZM0.172256 29.5462H0.160499C0.137006 29.29 0.317147 29.0457 0.583396 29.0221C0.849646 28.9984 1.08064 29.1797 1.10413 29.4358C1.13937 29.7038 0.947496 29.9363 0.692992 29.9717H0.646009C0.403252 29.9717 0.199668 29.7905 0.176176 29.5462H0.172256ZM50.5718 29.9205C50.3055 29.885 50.1254 29.6525 50.1489 29.3846C50.1724 29.1285 50.4151 28.9354 50.6697 28.9708C50.9359 28.9945 51.116 29.227 51.0926 29.4949C51.0691 29.7353 50.8498 29.9205 50.6227 29.9205H50.5757H50.5718ZM0 26.6617C0 26.3938 0.207503 26.1849 0.473753 26.1849C0.740003 26.1849 0.943586 26.3899 0.943586 26.6617C0.943586 26.9297 0.740003 27.1346 0.473753 27.1346C0.207503 27.1346 0 26.9297 0 26.6617ZM50.3055 26.6145V26.579V26.5199C50.2938 26.2519 50.5091 26.0313 50.7793 26.0313C51.0455 26.0313 51.2491 26.2362 51.2491 26.5081V26.5672V26.6145C51.2491 26.8824 51.0455 27.0873 50.7793 27.0873C50.513 27.0873 50.3055 26.8824 50.3055 26.6145ZM0.571639 24.3014C0.317135 24.2778 0.12526 24.0453 0.160499 23.7773C0.183991 23.5094 0.415033 23.3281 0.681282 23.3518C0.935786 23.3872 1.12763 23.6197 1.10413 23.8758C1.06889 24.1202 0.86531 24.3014 0.634299 24.3014H0.575558H0.571639ZM50.1372 23.73C50.1137 23.4739 50.2938 23.2296 50.5601 23.206C50.8146 23.1705 51.0573 23.3518 51.0808 23.6197C51.116 23.8877 50.9242 24.1202 50.6697 24.1556H50.607C50.3799 24.1556 50.1724 23.9744 50.1372 23.73ZM0.97886 21.4919C0.724356 21.4446 0.567718 21.1885 0.614703 20.9205H0.626461C0.673446 20.6644 0.927919 20.5068 1.18242 20.5659C1.44867 20.6289 1.60531 20.8811 1.54658 21.1372C1.49959 21.354 1.3038 21.5037 1.08846 21.5037C1.05322 21.5037 1.01801 21.5037 0.97886 21.4919ZM49.6673 20.9954C49.6047 20.7392 49.7652 20.4713 50.0314 20.424C50.2859 20.361 50.5405 20.5186 50.5874 20.7787C50.6579 21.0348 50.4895 21.2909 50.235 21.35C50.1998 21.3618 50.1607 21.3618 50.1372 21.3618C49.9218 21.3618 49.7143 21.216 49.6673 20.9954ZM1.70713 18.7572C1.46828 18.6705 1.33125 18.3907 1.41739 18.1504C1.49961 17.8942 1.76974 17.7721 2.02033 17.8588C2.25917 17.9455 2.39621 18.2134 2.31007 18.4656C2.23959 18.6587 2.05561 18.7808 1.86375 18.7808C1.80502 18.7808 1.75411 18.769 1.70713 18.7572ZM48.8921 18.3159C48.8099 18.0716 48.9391 17.7918 49.1818 17.709C49.4363 17.6224 49.7025 17.7445 49.7848 18.0006C49.8709 18.2449 49.7495 18.5247 49.495 18.6075C49.448 18.6311 49.3972 18.6311 49.3384 18.6311C49.1466 18.6311 48.9626 18.509 48.8921 18.3159ZM2.73297 16.1053C2.49021 15.9949 2.39229 15.7152 2.50192 15.4748C2.6233 15.2423 2.9013 15.132 3.14406 15.2581C3.37116 15.3684 3.48472 15.66 3.35943 15.8886C3.2772 16.058 3.10493 16.1565 2.92482 16.1565C2.86217 16.1565 2.7917 16.1447 2.73297 16.1092V16.1053ZM47.831 15.7506C47.7096 15.5221 47.8192 15.2266 48.0463 15.1202C48.2773 14.998 48.5553 15.0965 48.6767 15.3369C48.7981 15.5694 48.7002 15.861 48.4613 15.9713C48.3869 16.0068 48.3283 16.0186 48.2578 16.0186C48.0777 16.0186 47.9054 15.9201 47.8349 15.7506H47.831ZM4.04071 13.5992C3.82145 13.4534 3.76272 13.1618 3.89584 12.9411C4.02897 12.7086 4.33047 12.6495 4.54974 12.7953C4.76509 12.9293 4.83944 13.2209 4.70632 13.4415C4.60843 13.5873 4.45184 13.6701 4.29522 13.6701C4.20908 13.6701 4.12685 13.6464 4.04071 13.5992ZM46.4762 13.3194C46.3431 13.1027 46.4058 12.8071 46.6211 12.6613C46.8521 12.5155 47.1419 12.5904 47.275 12.8071C47.4199 13.0396 47.3494 13.3312 47.1301 13.4652C47.0597 13.5125 46.9618 13.54 46.8756 13.54C46.719 13.54 46.5741 13.4652 46.4762 13.3194ZM5.63427 11.2506C5.43067 11.0812 5.39545 10.7857 5.55206 10.5808C5.72043 10.3759 6.0102 10.3404 6.21772 10.5098C6.42132 10.6675 6.46046 10.9709 6.30385 11.1797C6.20596 11.2901 6.06106 11.3492 5.92793 11.3492C5.8183 11.3492 5.72433 11.3255 5.63819 11.2506H5.63427ZM44.867 11.0576C44.6986 10.8527 44.7338 10.5571 44.9414 10.3877C45.145 10.2182 45.4387 10.2537 45.607 10.4586C45.7754 10.6635 45.7401 10.9709 45.5365 11.1285C45.4504 11.2034 45.3447 11.2388 45.235 11.2388C45.1019 11.2388 44.9688 11.1797 44.8709 11.0576H44.867ZM7.45888 9.09916C7.27877 8.9179 7.27877 8.61449 7.45888 8.41746C7.63899 8.2362 7.94047 8.2362 8.13624 8.41746C8.31635 8.59872 8.31635 8.90214 8.13624 9.09916C8.03836 9.18585 7.9209 9.23314 7.7956 9.23314C7.67422 9.23314 7.55285 9.18585 7.45888 9.09916ZM43.0189 8.98883C42.8271 8.80757 42.8271 8.50021 43.0189 8.31895C43.199 8.12587 43.5005 8.12587 43.6845 8.31895C43.8764 8.50021 43.8764 8.80363 43.6845 8.98883C43.5866 9.08734 43.4692 9.13462 43.3439 9.13462C43.2225 9.13462 43.1011 9.08734 43.0189 8.98883ZM9.52624 7.1644C9.36963 6.9595 9.39314 6.65214 9.59674 6.49452C9.80035 6.32509 10.1057 6.36055 10.2623 6.56545C10.4307 6.75854 10.3955 7.06589 10.1918 7.23533C10.1057 7.3102 10 7.33384 9.90211 7.33384C9.75724 7.33384 9.62413 7.28655 9.52624 7.1644ZM40.9516 7.13682C40.748 6.9792 40.7088 6.67579 40.8771 6.46694C41.0338 6.26204 41.3235 6.2384 41.531 6.39601C41.7346 6.55363 41.7738 6.85705 41.6172 7.06589C41.5193 7.18804 41.3744 7.24715 41.2413 7.24715C41.1317 7.24715 41.0377 7.21169 40.9516 7.13682ZM11.7855 5.45819C11.6523 5.24146 11.715 4.94593 11.9303 4.81589C12.1496 4.6701 12.4511 4.7292 12.5959 4.94987C12.7291 5.18235 12.6664 5.47395 12.4393 5.61974C12.3688 5.66703 12.271 5.69461 12.1848 5.69461C12.0282 5.69461 11.8833 5.60792 11.7855 5.46213V5.45819ZM38.6923 5.53305C38.4613 5.39908 38.3908 5.10749 38.5357 4.875C38.6806 4.65828 38.9703 4.58341 39.1896 4.7292C39.405 4.86318 39.4794 5.15477 39.3462 5.38726C39.2484 5.53305 39.0917 5.60398 38.9351 5.60398C38.849 5.60398 38.7667 5.58034 38.6923 5.53305ZM14.2287 4.03568C14.1073 3.80714 14.2052 3.5116 14.444 3.40521C14.675 3.28306 14.9648 3.39339 15.0744 3.62194C15.1958 3.85442 15.0979 4.14602 14.8552 4.25635C14.7964 4.29181 14.722 4.30363 14.6515 4.30363C14.4714 4.30363 14.3148 4.20512 14.2287 4.03568ZM36.2609 4.1933C36.0338 4.08297 35.9241 3.79138 36.0455 3.56283C36.1551 3.31852 36.4331 3.22001 36.6759 3.33034C36.903 3.4525 37.0126 3.73227 36.8912 3.97658C36.8208 4.14602 36.6485 4.24453 36.4683 4.24453C36.394 4.24453 36.3235 4.23271 36.2609 4.19724V4.1933ZM16.8011 2.89295C16.715 2.64865 16.8481 2.36888 17.0909 2.28613C17.3454 2.19944 17.6116 2.33341 17.6938 2.57772C17.78 2.83385 17.6469 3.1018 17.4041 3.18455C17.3571 3.20819 17.3062 3.20819 17.2475 3.20819C17.0556 3.20819 16.8716 3.08604 16.8011 2.89295ZM33.7002 3.13726C33.4574 3.05057 33.3243 2.78262 33.4104 2.53043C33.4966 2.28613 33.7746 2.15215 34.0134 2.23884C34.2679 2.32159 34.3893 2.59348 34.3032 2.84567C34.2288 3.03875 34.0486 3.1609 33.8568 3.1609C33.8098 3.1609 33.7589 3.16091 33.7002 3.13726ZM19.4989 2.05364C19.4362 1.79751 19.5968 1.54138 19.8513 1.48227C20.1058 1.42317 20.372 1.58078 20.419 1.83691C20.4777 2.09304 20.3211 2.34917 20.0666 2.40828C20.0314 2.4201 19.9922 2.4201 19.957 2.4201C19.7377 2.4201 19.5458 2.2743 19.4989 2.05364ZM31.0416 2.38464V2.37282C30.7871 2.31371 30.6305 2.0694 30.6775 1.81327C30.7362 1.55714 30.9907 1.3877 31.2452 1.44681C31.4997 1.50592 31.6681 1.76205 31.6093 2.01818C31.5623 2.23884 31.3666 2.39646 31.1512 2.39646C31.116 2.39646 31.0807 2.38464 31.0416 2.38464ZM22.2671 1.51774C22.2436 1.24979 22.4237 1.0173 22.6782 0.993658H22.6899C22.9445 0.958194 23.1754 1.15128 23.2107 1.4074C23.2342 1.66353 23.0541 1.90784 22.7996 1.94331H22.7408C22.4981 1.94331 22.2945 1.76205 22.271 1.51774H22.2671ZM28.3203 1.91966C28.0541 1.89602 27.8623 1.65171 27.8975 1.39558C27.921 1.12763 28.152 0.946373 28.4182 0.970016C28.6727 0.993658 28.8646 1.23797 28.8294 1.50592C28.8176 1.75022 28.5983 1.91966 28.3595 1.91966H28.3243H28.3203ZM25.5522 1.77387C25.2859 1.77387 25.0784 1.56896 25.0784 1.29707C25.0666 1.04094 25.2859 0.824219 25.5522 0.824219C25.8067 0.824219 26.022 1.02912 26.022 1.29707C26.022 1.5532 25.8067 1.77387 25.5522 1.77387Z" fill="#130C49"/>
<path d="M146.434 113.446C146.434 113.162 146.653 112.929 146.935 112.929C147.217 112.929 147.436 113.162 147.436 113.446C147.436 113.718 147.217 113.95 146.935 113.95C146.653 113.95 146.434 113.718 146.434 113.446ZM143.877 113.859C143.607 113.848 143.388 113.603 143.415 113.316C143.427 113.044 143.658 112.823 143.944 112.851C144.214 112.863 144.433 113.095 144.418 113.379C144.406 113.651 144.175 113.855 143.916 113.855H143.877V113.859ZM149.453 113.379C149.441 113.095 149.645 112.851 149.927 112.835C150.197 112.823 150.44 113.028 150.455 113.312C150.479 113.584 150.263 113.828 149.981 113.855H149.954C149.684 113.855 149.465 113.651 149.453 113.379ZM140.847 113.588C140.565 113.564 140.373 113.304 140.396 113.02C140.436 112.748 140.678 112.555 140.96 112.583C141.23 112.622 141.434 112.866 141.395 113.15C141.371 113.41 141.152 113.588 140.894 113.588H140.843H140.847ZM152.472 113.134C152.432 112.851 152.624 112.602 152.906 112.567C153.176 112.543 153.435 112.736 153.47 113.008C153.494 113.292 153.302 113.536 153.02 113.576H152.953C152.71 113.576 152.491 113.394 152.464 113.138L152.472 113.134ZM137.828 113.134C137.546 113.083 137.366 112.823 137.417 112.539C137.468 112.268 137.726 112.086 138.008 112.137C138.278 112.189 138.458 112.449 138.407 112.721C138.368 112.965 138.153 113.134 137.918 113.134H137.828ZM155.463 112.709C155.412 112.425 155.592 112.165 155.862 112.114C156.133 112.063 156.403 112.244 156.454 112.528C156.505 112.799 156.324 113.056 156.043 113.107C156.015 113.123 155.992 113.123 155.952 113.123C155.721 113.123 155.502 112.953 155.463 112.709ZM134.837 112.488C134.566 112.425 134.402 112.153 134.465 111.881C134.527 111.609 134.797 111.44 135.079 111.507C135.349 111.586 135.514 111.854 135.451 112.126C135.389 112.346 135.181 112.512 134.962 112.512C134.911 112.512 134.872 112.5 134.833 112.488H134.837ZM158.431 112.102C158.353 111.83 158.521 111.546 158.791 111.479C159.061 111.416 159.332 111.582 159.394 111.854C159.472 112.126 159.304 112.398 159.034 112.461C158.995 112.476 158.944 112.476 158.905 112.476C158.685 112.476 158.482 112.323 158.431 112.102ZM131.892 111.673C131.622 111.594 131.481 111.31 131.559 111.038C131.638 110.766 131.92 110.624 132.19 110.703C132.46 110.782 132.601 111.066 132.526 111.338C132.46 111.558 132.256 111.7 132.053 111.7C132.002 111.7 131.951 111.688 131.9 111.676L131.892 111.673ZM161.348 111.31C161.258 111.038 161.411 110.754 161.669 110.676C161.939 110.585 162.221 110.743 162.299 110.999C162.389 111.271 162.237 111.554 161.978 111.645C161.927 111.661 161.877 111.661 161.826 111.661C161.618 111.661 161.415 111.531 161.352 111.31H161.348ZM129.003 110.676C128.732 110.573 128.603 110.274 128.705 110.018C128.795 109.757 129.089 109.631 129.347 109.722C129.617 109.824 129.746 110.108 129.645 110.38C129.566 110.573 129.374 110.703 129.171 110.703C129.12 110.703 129.057 110.691 129.003 110.676ZM164.214 110.341C164.112 110.081 164.238 109.785 164.508 109.694C164.766 109.592 165.06 109.722 165.15 109.978C165.252 110.25 165.126 110.534 164.856 110.64C164.805 110.664 164.739 110.664 164.688 110.664C164.484 110.664 164.288 110.549 164.214 110.341ZM126.176 109.501H126.164C125.921 109.387 125.804 109.076 125.921 108.831C126.035 108.571 126.332 108.457 126.591 108.571C126.833 108.686 126.951 108.985 126.833 109.245C126.755 109.426 126.563 109.541 126.371 109.541C126.305 109.541 126.242 109.529 126.18 109.501H126.176ZM167.014 109.206C166.9 108.946 167.014 108.65 167.272 108.532C167.515 108.43 167.812 108.532 167.926 108.792C168.039 109.052 167.926 109.348 167.683 109.466C167.605 109.489 167.542 109.505 167.48 109.505C167.288 109.505 167.108 109.403 167.017 109.21L167.014 109.206ZM123.431 108.142C123.172 108.012 123.082 107.716 123.212 107.456C123.341 107.212 123.646 107.117 123.893 107.247C124.136 107.377 124.226 107.685 124.1 107.933C124.01 108.102 123.842 108.205 123.666 108.205C123.587 108.205 123.497 108.181 123.435 108.142H123.431ZM169.735 107.898C169.606 107.653 169.696 107.342 169.942 107.212C170.197 107.082 170.494 107.173 170.624 107.433C170.765 107.677 170.663 107.976 170.42 108.118C170.342 108.158 170.267 108.169 170.189 108.169C170.009 108.169 169.829 108.067 169.739 107.898H169.735ZM120.757 106.644C120.514 106.491 120.447 106.18 120.588 105.947C120.729 105.703 121.039 105.624 121.281 105.766H121.266C121.508 105.919 121.587 106.231 121.446 106.463C121.344 106.633 121.176 106.708 121.007 106.708C120.917 106.708 120.839 106.68 120.753 106.641L120.757 106.644ZM172.382 106.44C172.241 106.195 172.303 105.884 172.55 105.742C172.781 105.588 173.102 105.663 173.243 105.912C173.384 106.144 173.31 106.455 173.075 106.609C172.985 106.648 172.895 106.672 172.805 106.672C172.636 106.672 172.472 106.581 172.382 106.44ZM118.188 104.962C117.957 104.808 117.906 104.497 118.059 104.264C118.212 104.032 118.533 103.969 118.764 104.134C118.995 104.288 119.046 104.599 118.893 104.832C118.791 104.974 118.634 105.053 118.482 105.053C118.38 105.053 118.274 105.025 118.188 104.962ZM174.938 104.796C174.77 104.564 174.837 104.253 175.052 104.099C175.283 103.93 175.604 103.996 175.757 104.229C175.909 104.461 175.859 104.773 175.628 104.926C175.537 104.989 175.447 105.017 175.346 105.017C175.177 105.017 175.025 104.938 174.935 104.796H174.938ZM115.733 103.153C115.514 102.972 115.475 102.661 115.643 102.428C115.811 102.219 116.132 102.168 116.348 102.349C116.567 102.519 116.606 102.842 116.438 103.059C116.336 103.189 116.179 103.252 116.039 103.252C115.921 103.252 115.819 103.212 115.729 103.149L115.733 103.153ZM177.378 103.023C177.209 102.803 177.249 102.479 177.468 102.314C177.687 102.133 177.996 102.172 178.173 102.393C178.341 102.613 178.302 102.937 178.083 103.106V103.118C177.992 103.181 177.891 103.22 177.773 103.22C177.632 103.22 177.48 103.157 177.374 103.027L177.378 103.023ZM113.384 101.175C113.165 100.994 113.153 100.671 113.333 100.466C113.525 100.257 113.846 100.233 114.053 100.426C114.261 100.608 114.284 100.919 114.093 101.136C113.991 101.25 113.85 101.305 113.721 101.305C113.591 101.305 113.478 101.266 113.388 101.175H113.384ZM179.731 101.096C179.539 100.876 179.551 100.568 179.77 100.387C179.978 100.194 180.299 100.218 180.475 100.426C180.667 100.635 180.643 100.943 180.436 101.136C180.334 101.226 180.216 101.266 180.099 101.266C179.958 101.266 179.817 101.199 179.727 101.096H179.731ZM111.16 99.0828C110.956 98.8739 110.956 98.5508 111.16 98.3577C111.352 98.1646 111.661 98.1646 111.869 98.3577C112.06 98.5508 112.06 98.8739 111.869 99.0828C111.767 99.1734 111.638 99.2246 111.508 99.2246C111.379 99.2246 111.25 99.1734 111.16 99.0828ZM181.939 99.0315C181.747 98.8385 181.747 98.5153 181.939 98.3223C182.147 98.1134 182.468 98.1292 182.66 98.3223C182.852 98.5153 182.852 98.8385 182.66 99.0315C182.558 99.134 182.429 99.1852 182.299 99.1852C182.17 99.1852 182.041 99.134 181.939 99.0315ZM109.053 96.8446V96.8288C108.873 96.62 108.901 96.3126 109.104 96.1196C109.312 95.9383 109.633 95.9501 109.809 96.1708C109.989 96.3796 109.977 96.687 109.77 96.8801C109.668 96.9589 109.551 97.0101 109.437 97.0101C109.296 97.0101 109.155 96.9431 109.053 96.8406V96.8446ZM184.034 96.8328C183.826 96.6515 183.815 96.3284 183.995 96.1235C184.175 95.9146 184.496 95.891 184.715 96.0841C184.919 96.2653 184.935 96.5885 184.754 96.7973C184.653 96.9116 184.512 96.9667 184.371 96.9667C184.257 96.9667 184.14 96.9273 184.038 96.8367L184.034 96.8328ZM107.103 94.4803C106.935 94.2597 106.962 93.9484 107.194 93.7671C107.413 93.5977 107.722 93.6371 107.898 93.8577H107.887C108.067 94.0784 108.028 94.3897 107.808 94.567C107.718 94.6301 107.601 94.6695 107.499 94.6695C107.346 94.6695 107.201 94.6064 107.1 94.4764L107.103 94.4803ZM186 94.5197C185.78 94.3503 185.741 94.0272 185.921 93.8104C186.09 93.5898 186.411 93.5504 186.614 93.7198C186.845 93.9011 186.873 94.2124 186.704 94.433C186.614 94.5631 186.462 94.6261 186.305 94.6261C186.203 94.6261 186.086 94.6025 186 94.5237V94.5197ZM105.291 92.0097C105.138 91.7772 105.189 91.4659 105.42 91.3122C105.639 91.1585 105.96 91.2097 106.113 91.4265C106.266 91.659 106.215 91.9821 105.984 92.1357C105.894 92.1988 105.804 92.2264 105.702 92.2264C105.533 92.2264 105.381 92.1476 105.291 92.0057V92.0097ZM187.82 92.0885C187.589 91.9348 187.538 91.6117 187.691 91.3792C187.844 91.1585 188.165 91.0955 188.384 91.2491C188.615 91.4028 188.666 91.7259 188.513 91.9584C188.423 92.1003 188.255 92.1791 188.102 92.1791C188 92.1791 187.91 92.1515 187.82 92.0885ZM103.623 89.4365C103.482 89.2041 103.556 88.8928 103.791 88.7391C104.034 88.5972 104.343 88.676 104.484 88.9085C104.637 89.1528 104.562 89.4641 104.316 89.606C104.237 89.6572 104.147 89.6848 104.061 89.6848C103.881 89.6848 103.713 89.5942 103.627 89.4405L103.623 89.4365ZM189.492 89.5429C189.249 89.4011 189.171 89.0898 189.312 88.8455H189.324C189.465 88.613 189.774 88.5342 190.005 88.676C190.248 88.8179 190.326 89.1292 190.185 89.3735C190.083 89.5272 189.915 89.6178 189.751 89.6178C189.66 89.6178 189.57 89.5942 189.492 89.539V89.5429ZM102.119 86.761C101.99 86.5167 102.08 86.2172 102.338 86.0911C102.581 85.9492 102.879 86.0517 103.02 86.2999C103.149 86.5443 103.047 86.8556 102.8 86.9856C102.722 87.025 102.648 87.0368 102.569 87.0368C102.389 87.0368 102.209 86.9462 102.119 86.7649V86.761ZM191.007 86.9186C190.765 86.7767 190.663 86.4812 190.788 86.2211C190.917 85.9768 191.223 85.8862 191.469 86.0123C191.712 86.1423 191.814 86.4536 191.689 86.6979C191.599 86.8674 191.419 86.9698 191.238 86.9698C191.16 86.9698 191.086 86.958 191.007 86.9186ZM100.78 84.0105C100.666 83.7662 100.768 83.4549 101.023 83.3407C101.281 83.2264 101.575 83.3407 101.692 83.6007C101.806 83.8569 101.692 84.1563 101.434 84.2706C101.371 84.2943 101.305 84.31 101.226 84.31C101.035 84.31 100.854 84.2076 100.776 84.0105H100.78ZM192.354 84.176C192.1 84.0736 191.994 83.7741 192.112 83.518C192.225 83.2579 192.523 83.1436 192.765 83.2579C193.024 83.3722 193.137 83.6717 193.024 83.9317C192.934 84.113 192.754 84.2273 192.562 84.2273C192.499 84.2273 192.421 84.2154 192.354 84.176ZM99.6015 81.1774H99.6171C99.5153 80.9173 99.6406 80.6218 99.899 80.5154C100.157 80.4247 100.451 80.5548 100.553 80.8148C100.643 81.0749 100.514 81.3704 100.259 81.4729C100.208 81.4847 100.142 81.5005 100.079 81.5005C99.8873 81.5005 99.6798 81.3823 99.6054 81.1774H99.6015ZM193.537 81.3823C193.278 81.2798 193.149 80.9803 193.255 80.7242C193.357 80.4641 193.639 80.3381 193.909 80.4405C194.167 80.5311 194.296 80.8267 194.191 81.0867C194.112 81.2956 193.92 81.4098 193.729 81.4098C193.666 81.4098 193.599 81.398 193.537 81.3823ZM98.5991 78.2693C98.5208 78.0092 98.6618 77.7255 98.9319 77.6349C99.2021 77.5561 99.484 77.6979 99.5623 77.9698C99.6524 78.2417 99.4958 78.5254 99.2413 78.6042C99.1904 78.6161 99.1395 78.6279 99.0886 78.6279C98.8693 78.6279 98.6774 78.486 98.5991 78.2654V78.2693ZM194.567 78.5136C194.296 78.423 194.144 78.1393 194.23 77.8792C194.32 77.6073 194.602 77.4536 194.86 77.5443C195.13 77.6231 195.271 77.9068 195.193 78.1787C195.13 78.3993 194.923 78.5254 194.704 78.5254C194.653 78.5254 194.613 78.5254 194.563 78.5136H194.567ZM97.7769 75.3219C97.7143 75.05 97.8787 74.7663 98.1489 74.6993C98.419 74.6362 98.6892 74.7899 98.7518 75.0736C98.8302 75.3455 98.6618 75.6174 98.3916 75.6804C98.3407 75.6923 98.3016 75.6923 98.2624 75.6923C98.0432 75.6923 97.8396 75.5386 97.773 75.3179L97.7769 75.3219ZM195.401 75.5937C195.13 75.5149 194.966 75.243 195.04 74.9712C195.091 74.6993 195.373 74.5338 195.643 74.5968C195.913 74.6638 196.066 74.9475 196.015 75.2194H196.003C195.953 75.4519 195.745 75.6056 195.514 75.6056C195.475 75.6056 195.436 75.5937 195.401 75.5937ZM97.1348 72.3114C97.0839 72.0395 97.264 71.7676 97.5459 71.7163C97.8161 71.6769 98.0745 71.8582 98.1254 72.1301C98.1763 72.402 97.9962 72.6739 97.726 72.7093C97.6869 72.7251 97.6634 72.7251 97.636 72.7251C97.3932 72.7251 97.1857 72.5557 97.1348 72.3114ZM196.054 72.6187C195.784 72.5675 195.604 72.2956 195.655 72.0237C195.706 71.7518 195.964 71.5705 196.234 71.6218C196.516 71.673 196.697 71.9331 196.646 72.205C196.606 72.4493 196.387 72.6187 196.144 72.6187H196.054ZM96.6727 69.2733C96.6453 69.0014 96.8411 68.7413 97.1074 68.7177C97.3893 68.6783 97.6359 68.8713 97.6712 69.1551C97.6986 69.4269 97.5028 69.687 97.2366 69.7107C97.2131 69.7107 97.1857 69.7225 97.1739 69.7225C96.9312 69.7225 96.7119 69.5294 96.6727 69.2693V69.2733ZM196.544 69.6082C196.274 69.5806 196.07 69.3245 196.109 69.0526C196.133 68.7689 196.391 68.5758 196.661 68.6113C196.943 68.6389 197.135 68.895 197.112 69.1669C197.072 69.423 196.853 69.62 196.61 69.62C196.583 69.62 196.571 69.62 196.548 69.6082H196.544ZM96.4026 66.2194C96.3752 65.9357 96.5944 65.6875 96.8646 65.6756C97.1465 65.6638 97.3775 65.8687 97.4049 66.1524C97.4206 66.4243 97.2131 66.6686 96.9312 66.6844H96.9077C96.6375 66.6844 96.4183 66.4755 96.4065 66.2194H96.4026ZM196.849 66.5819C196.567 66.5662 196.348 66.3219 196.36 66.05C196.387 65.7663 196.618 65.5456 196.9 65.5732C197.182 65.585 197.39 65.8333 197.374 66.1051C197.362 66.377 197.131 66.5819 196.861 66.5819H196.845H196.849ZM96.3008 63.1459C96.3008 62.8622 96.5201 62.6415 96.802 62.6415C97.0839 62.6415 97.3149 62.8622 97.3149 63.1459C97.3149 63.4178 97.0839 63.6502 96.802 63.6502C96.5201 63.6502 96.3008 63.4178 96.3008 63.1459ZM196.465 63.0395V62.937V62.8346C196.454 62.5509 196.685 62.3302 196.955 62.3302C197.237 62.3302 197.468 62.5509 197.468 62.8346C197.468 62.874 197.468 62.8976 197.456 62.937C197.468 62.9607 197.468 63.0001 197.468 63.0395C197.468 63.3114 197.237 63.5439 196.967 63.5439C196.685 63.5439 196.465 63.3114 196.465 63.0395ZM96.8646 60.6003C96.5827 60.5846 96.3634 60.356 96.3908 60.0684C96.4065 59.7965 96.6336 59.5758 96.9194 59.5916C97.2013 59.6152 97.4089 59.8517 97.3932 60.1354C97.3697 60.3954 97.1504 60.6122 96.892 60.6122C96.892 60.6122 96.8646 60.6122 96.8646 60.6003ZM196.364 59.8201C196.34 59.5364 196.544 59.3039 196.826 59.2882C197.108 59.2645 197.354 59.4813 197.366 59.7531C197.378 60.0369 197.174 60.2693 196.892 60.2969H196.869C196.599 60.2969 196.379 60.0881 196.368 59.8201H196.364ZM97.0956 57.5741C96.8137 57.5347 96.6218 57.2904 96.6453 57.0185C96.6845 56.7348 96.9272 56.5417 97.2091 56.5653C97.4793 56.6047 97.683 56.849 97.6438 57.1327C97.6164 57.3928 97.401 57.5701 97.1426 57.5701H97.0917L97.0956 57.5741ZM196.082 56.8214C196.043 56.5496 196.234 56.2934 196.516 56.2658C196.787 56.2264 197.045 56.4195 197.08 56.7032C197.104 56.9751 196.912 57.2352 196.646 57.2588C196.618 57.2707 196.595 57.2707 196.579 57.2707C196.325 57.2707 196.105 57.0776 196.078 56.8175L196.082 56.8214ZM97.5067 54.5596C97.2366 54.5084 97.0447 54.2523 97.0956 53.9646C97.1465 53.6927 97.4167 53.5115 97.6869 53.5627C97.957 53.6021 98.1371 53.874 98.098 54.1459C98.0471 54.3902 97.8435 54.5596 97.5968 54.5596H97.5067ZM195.616 53.8503C195.565 53.5785 195.745 53.3066 196.027 53.2553C196.297 53.2041 196.556 53.3972 196.606 53.6691C196.657 53.941 196.477 54.201 196.207 54.2523C196.184 54.2641 196.144 54.2641 196.117 54.2641C195.886 54.2641 195.667 54.0947 195.616 53.8503ZM98.098 51.5728C97.8278 51.5097 97.6634 51.2378 97.7378 50.9659C97.8004 50.694 98.0705 50.5285 98.3407 50.5916C98.6109 50.6546 98.7754 50.9265 98.7127 51.1984C98.6501 51.4309 98.4425 51.5846 98.2115 51.5846C98.1724 51.5846 98.1332 51.5846 98.098 51.5728ZM194.989 50.9029C194.911 50.631 195.079 50.3591 195.35 50.2961C195.62 50.233 195.89 50.3867 195.968 50.6704L195.957 50.6586C196.035 50.9305 195.866 51.2024 195.596 51.2812C195.557 51.293 195.518 51.293 195.483 51.293C195.252 51.293 195.048 51.1393 194.993 50.9068L194.989 50.9029ZM98.881 48.6253C98.6109 48.5465 98.4582 48.2628 98.5482 48.0067V47.9948C98.6265 47.7348 98.9085 47.5811 99.1786 47.6717C99.437 47.7505 99.5897 48.0342 99.5153 48.3061C99.437 48.515 99.2452 48.6568 99.0259 48.6568C98.975 48.6568 98.9359 48.6568 98.885 48.6292L98.881 48.6253ZM194.167 48.0067H194.183C194.093 47.7466 194.234 47.4511 194.504 47.3723C194.774 47.2934 195.044 47.4353 195.134 47.7072C195.224 47.9673 195.072 48.251 194.813 48.3416C194.762 48.3534 194.711 48.3692 194.66 48.3692C194.441 48.3692 194.249 48.2273 194.171 48.0067H194.167ZM99.8325 45.7448C99.5741 45.6424 99.4331 45.3429 99.5349 45.0868C99.625 44.8267 99.9187 44.6967 100.177 44.7873C100.447 44.8898 100.576 45.1735 100.475 45.4454C100.396 45.6385 100.204 45.7685 100.013 45.7685C99.95 45.7685 99.8834 45.7567 99.8325 45.7448ZM193.177 45.1617H193.188C193.086 44.9016 193.216 44.6179 193.47 44.5154C193.729 44.413 194.022 44.5391 194.128 44.7991C194.218 45.071 194.089 45.3547 193.83 45.4611C193.78 45.4848 193.717 45.5005 193.65 45.5005C193.458 45.5005 193.263 45.3705 193.177 45.1656V45.1617ZM100.948 42.9117C100.69 42.7974 100.588 42.4979 100.706 42.2418H100.694C100.807 41.9817 101.117 41.8674 101.36 41.9817C101.618 42.096 101.731 42.3955 101.618 42.6516C101.54 42.8447 101.348 42.9511 101.156 42.9511C101.093 42.9511 101.027 42.9392 100.952 42.9117H100.948ZM192.033 42.3955C191.92 42.1354 192.021 41.8399 192.276 41.7216C192.534 41.6074 192.828 41.7216 192.942 41.966C193.059 42.226 192.942 42.5216 192.699 42.6358C192.621 42.6752 192.558 42.6871 192.48 42.6871C192.299 42.6871 192.108 42.5728 192.029 42.3915L192.033 42.3955ZM102.248 40.1612C102.006 40.0312 101.9 39.7238 102.029 39.4756H102.041C102.17 39.2313 102.464 39.1288 102.722 39.2549C102.953 39.385 103.055 39.6923 102.93 39.9406C102.84 40.1218 102.671 40.2125 102.479 40.2125C102.401 40.2125 102.327 40.2006 102.248 40.1612ZM190.714 39.6923C190.585 39.448 190.675 39.1367 190.921 39.0067C191.164 38.8766 191.473 38.9673 191.603 39.2155C191.732 39.4716 191.642 39.7711 191.395 39.9012C191.317 39.9524 191.242 39.9681 191.152 39.9681C190.972 39.9681 190.804 39.8657 190.718 39.6963L190.714 39.6923ZM103.697 37.4817C103.466 37.3399 103.388 37.0286 103.529 36.7843C103.67 36.5518 103.979 36.4769 104.222 36.6148C104.453 36.7567 104.531 37.068 104.39 37.3123C104.3 37.466 104.132 37.5566 103.967 37.5566C103.877 37.5566 103.787 37.529 103.697 37.4778V37.4817ZM189.234 37.0837C189.081 36.8394 189.155 36.5281 189.402 36.3863C189.633 36.2444 189.942 36.3232 190.083 36.5557C190.236 36.7882 190.162 37.1113 189.915 37.2532C189.837 37.3044 189.747 37.3162 189.657 37.3162C189.488 37.3162 189.324 37.2374 189.234 37.0837ZM105.318 34.9125C105.087 34.7589 105.036 34.4358 105.189 34.2151C105.342 33.9826 105.663 33.9156 105.894 34.0732C106.113 34.2427 106.175 34.55 106.023 34.7825C105.921 34.9244 105.768 35.0032 105.6 35.0032C105.498 35.0032 105.408 34.9795 105.318 34.9125ZM187.589 34.5618C187.437 34.3294 187.487 34.0181 187.718 33.8526C187.949 33.6989 188.259 33.7501 188.423 33.9826C188.576 34.2151 188.525 34.5264 188.294 34.6958C188.204 34.7471 188.102 34.7865 188.012 34.7865C187.844 34.7865 187.691 34.7076 187.589 34.5658V34.5618ZM107.088 32.4419C106.857 32.2606 106.818 31.9493 106.998 31.7326C107.166 31.5119 107.487 31.4725 107.703 31.642C107.922 31.8114 107.961 32.1345 107.793 32.3513C107.691 32.4813 107.534 32.5443 107.393 32.5443C107.28 32.5443 107.174 32.5049 107.084 32.4419H107.088ZM185.816 32.1464C185.635 31.9257 185.675 31.6026 185.894 31.4371C186.113 31.2558 186.434 31.2952 186.599 31.5159C186.767 31.7365 186.74 32.0597 186.52 32.2252C186.419 32.304 186.317 32.3394 186.215 32.3394C186.062 32.3394 185.906 32.2606 185.816 32.1464ZM108.991 30.0776C108.783 29.8964 108.76 29.5732 108.952 29.3683C109.132 29.1477 109.453 29.1359 109.656 29.3171C109.864 29.5102 109.887 29.8215 109.695 30.0422C109.605 30.1446 109.464 30.2116 109.324 30.2116C109.21 30.2116 109.093 30.1722 108.991 30.0816V30.0776ZM183.889 29.8294C183.697 29.6245 183.721 29.3013 183.928 29.1201C184.136 28.927 184.457 28.9506 184.633 29.1595C184.813 29.3683 184.801 29.6915 184.594 29.8688C184.504 29.9594 184.375 29.9988 184.261 29.9988C184.12 29.9988 183.979 29.9476 183.889 29.8294ZM111.046 27.8394C110.839 27.6345 110.839 27.3114 111.035 27.1144C111.226 26.9213 111.547 26.9213 111.755 27.1144C111.947 27.3075 111.947 27.6306 111.755 27.8394C111.653 27.9301 111.524 27.9813 111.395 27.9813C111.266 27.9813 111.136 27.9301 111.046 27.8394ZM181.822 27.6464C181.63 27.4533 181.63 27.1302 181.822 26.9371C182.025 26.7282 182.335 26.7282 182.542 26.9371C182.734 27.1302 182.734 27.4415 182.542 27.6464C182.44 27.7488 182.311 27.7882 182.182 27.7882C182.053 27.7882 181.928 27.7488 181.822 27.6464ZM113.215 25.7195C113.024 25.5106 113.047 25.1875 113.255 25.0102C113.458 24.8289 113.779 24.8408 113.975 25.0496C114.155 25.2545 114.128 25.5776 113.924 25.7746C113.834 25.8535 113.705 25.8889 113.591 25.8889C113.45 25.8889 113.321 25.8377 113.219 25.7195H113.215ZM179.641 25.5894C179.433 25.4082 179.41 25.0851 179.602 24.8762C179.782 24.6556 180.103 24.6437 180.307 24.825C180.514 25.0063 180.538 25.3294 180.357 25.5382C180.256 25.6525 180.115 25.7195 179.974 25.7195C179.86 25.7195 179.743 25.6801 179.641 25.5894ZM115.518 23.7414C115.349 23.5207 115.377 23.2094 115.608 23.0321H115.596C115.815 22.8627 116.136 22.9021 116.301 23.1227C116.481 23.3434 116.442 23.6547 116.223 23.832C116.132 23.8951 116.015 23.9345 115.913 23.9345C115.76 23.9345 115.62 23.8714 115.514 23.7414H115.518ZM177.339 23.6665C177.119 23.4971 177.08 23.174 177.249 22.9572C177.417 22.7366 177.738 22.6972 177.953 22.8666C178.173 23.0479 178.212 23.3592 178.043 23.5759C177.942 23.7059 177.801 23.769 177.644 23.769C177.527 23.769 177.425 23.7414 177.335 23.6665H177.339ZM117.918 21.9051C117.765 21.6845 117.816 21.3613 118.047 21.2077C118.278 21.054 118.587 21.1052 118.752 21.3377C118.905 21.5584 118.854 21.8815 118.623 22.0352C118.533 22.0982 118.431 22.1258 118.341 22.1258C118.172 22.1258 118.02 22.0627 117.918 21.9051ZM174.927 21.8815H174.915C174.696 21.7278 174.633 21.4165 174.797 21.184C174.95 20.9515 175.259 20.9003 175.491 21.054C175.722 21.2077 175.772 21.519 175.62 21.7515C175.53 21.8933 175.361 21.9721 175.209 21.9721C175.107 21.9721 175.017 21.9485 174.927 21.8815ZM120.436 20.2265C120.295 19.994 120.369 19.6827 120.604 19.529C120.847 19.3872 121.156 19.466 121.297 19.6985C121.45 19.9428 121.375 20.2541 121.129 20.3959C121.05 20.4472 120.96 20.4747 120.87 20.4747C120.702 20.4747 120.537 20.3841 120.436 20.2304V20.2265ZM172.409 20.2541C172.166 20.1122 172.088 19.8009 172.229 19.5566C172.382 19.3241 172.691 19.2453 172.922 19.3872C173.165 19.529 173.231 19.8403 173.09 20.0846C173 20.2383 172.836 20.3289 172.667 20.3289C172.577 20.3289 172.487 20.3014 172.409 20.2501V20.2541ZM123.055 18.7015C122.914 18.4572 123.016 18.1459 123.259 18.0159C123.501 17.8859 123.811 17.9765 123.94 18.2247C124.069 18.4691 123.979 18.7804 123.732 18.9104C123.654 18.9498 123.564 18.9734 123.49 18.9734C123.309 18.9734 123.141 18.871 123.055 18.7015ZM169.786 18.7764C169.543 18.6464 169.453 18.339 169.578 18.0908C169.707 17.8465 170.001 17.7558 170.259 17.8859C170.502 18.0159 170.592 18.3114 170.463 18.5557C170.373 18.737 170.209 18.8395 170.013 18.8395C169.935 18.8395 169.86 18.8158 169.782 18.7764H169.786ZM125.741 17.3303C125.627 17.0702 125.741 16.7747 125.999 16.6604C126.254 16.5461 126.551 16.6604 126.665 16.9205C126.779 17.1648 126.665 17.4761 126.422 17.5903C126.344 17.6179 126.281 17.6297 126.203 17.6297C126.011 17.6297 125.831 17.5273 125.741 17.3303ZM167.088 17.4603C166.833 17.346 166.728 17.0466 166.845 16.7865C166.947 16.5422 167.245 16.424 167.499 16.5422C167.758 16.6564 167.871 16.9559 167.758 17.2002C167.667 17.3933 167.487 17.5115 167.295 17.5115C167.233 17.5115 167.155 17.4958 167.088 17.4603ZM128.517 16.1284C128.427 15.8684 128.556 15.5728 128.811 15.4822C129.069 15.3797 129.363 15.5058 129.465 15.7659C129.555 16.0378 129.425 16.3215 129.171 16.424C129.108 16.4515 129.057 16.4634 128.991 16.4634C128.783 16.4634 128.591 16.3333 128.517 16.1284ZM164.316 16.3215C164.057 16.2191 163.928 15.9314 164.034 15.6595C164.124 15.4034 164.418 15.2734 164.676 15.364C164.934 15.4664 165.06 15.7659 164.974 16.022C164.895 16.2309 164.703 16.3452 164.5 16.3452C164.437 16.3452 164.386 16.3452 164.32 16.3215H164.316ZM131.367 15.096C131.277 14.836 131.43 14.5522 131.7 14.4734V14.4616C131.959 14.3828 132.241 14.5247 132.331 14.7966C132.409 15.0684 132.268 15.3522 131.998 15.431C131.947 15.4428 131.896 15.4546 131.845 15.4546C131.638 15.4546 131.434 15.3128 131.371 15.0921L131.367 15.096ZM161.477 15.3403C161.223 15.2615 161.066 14.9778 161.156 14.7059C161.234 14.4459 161.516 14.2922 161.786 14.367C162.045 14.4577 162.198 14.7414 162.108 15.0015C162.045 15.2221 161.849 15.364 161.634 15.364C161.583 15.364 161.532 15.364 161.481 15.3364L161.477 15.3403ZM134.269 14.2528C134.19 13.9809 134.359 13.6972 134.629 13.6341C134.899 13.5671 135.181 13.7366 135.244 14.0085C135.31 14.2804 135.142 14.5522 134.872 14.6153C134.833 14.6271 134.793 14.6389 134.758 14.6389C134.527 14.6389 134.324 14.4695 134.269 14.2528ZM158.599 14.5522C158.329 14.4734 158.165 14.2015 158.227 13.9297C158.29 13.6578 158.56 13.4923 158.83 13.5553C159.1 13.6341 159.265 13.8903 159.202 14.1779C159.151 14.4104 158.944 14.5641 158.713 14.5641C158.674 14.5641 158.635 14.5522 158.599 14.5522ZM137.225 13.5671C137.162 13.2952 137.342 13.0391 137.624 12.9879C137.894 12.9367 138.165 13.1179 138.204 13.3898C138.255 13.6735 138.075 13.9336 137.804 13.9848C137.781 13.9848 137.742 13.9966 137.714 13.9966C137.483 13.9966 137.264 13.8154 137.225 13.5711V13.5671ZM155.671 13.9297C155.389 13.8784 155.209 13.6184 155.259 13.3347C155.31 13.0628 155.569 12.8815 155.851 12.9327C156.121 12.9721 156.301 13.2401 156.25 13.512C156.211 13.7563 155.992 13.9257 155.761 13.9257H155.671V13.9297ZM140.205 13.0785C140.165 12.8066 140.357 12.5466 140.639 12.5229C140.909 12.4835 141.168 12.6766 141.191 12.9603C141.23 13.2322 141.039 13.4923 140.753 13.5159C140.753 13.5159 140.714 13.5317 140.69 13.5317C140.447 13.5317 140.228 13.3386 140.201 13.0785H140.205ZM152.703 13.4923C152.433 13.4529 152.229 13.2086 152.264 12.9248C152.292 12.653 152.546 12.448 152.816 12.4875C153.098 12.515 153.29 12.7712 153.266 13.0431C153.243 13.2992 153.024 13.4962 152.765 13.4962H152.703V13.4923ZM143.736 13.244C143.466 13.2598 143.223 13.0509 143.208 12.7672C143.184 12.4953 143.4 12.251 143.67 12.2353V12.2195C143.952 12.2077 144.198 12.4283 144.21 12.6963C144.222 12.98 144.018 13.2283 143.736 13.2401V13.244ZM149.723 13.2322C149.441 13.2086 149.234 12.9721 149.249 12.6884C149.261 12.4165 149.508 12.1959 149.79 12.2116H149.778C150.06 12.2234 150.279 12.4717 150.252 12.7554C150.236 13.0273 150.021 13.2322 149.75 13.2322H149.727H149.723ZM146.23 12.6372C146.23 12.3535 146.45 12.1328 146.732 12.1328C147.014 12.1328 147.233 12.3535 147.233 12.6372C147.233 12.9209 147.014 13.1416 146.732 13.1416C146.45 13.1416 146.23 12.9209 146.23 12.6372Z" fill="#130C49"/>
<path d="M25.1762 114.522C25.1762 114.265 25.3955 114.049 25.65 114.049C25.9163 114.049 26.1199 114.254 26.1199 114.522C26.1199 114.79 25.9163 114.998 25.65 114.998C25.3955 114.998 25.1762 114.79 25.1762 114.522ZM22.7839 114.853C22.5177 114.817 22.3375 114.585 22.3728 114.317C22.3963 114.061 22.6273 113.867 22.8936 113.891C23.1481 113.927 23.3399 114.159 23.3046 114.427C23.2812 114.671 23.0776 114.853 22.8348 114.853H22.7878H22.7839ZM27.9954 114.415C27.9719 114.159 28.152 113.915 28.4182 113.891C28.6727 113.867 28.9155 114.049 28.939 114.317C28.9625 114.573 28.7824 114.817 28.5161 114.841H28.4691C28.2264 114.841 28.0228 114.671 27.9954 114.415ZM19.957 114.364C19.7025 114.305 19.5341 114.049 19.5928 113.793C19.6516 113.536 19.9061 113.379 20.1606 113.438C20.4151 113.485 20.5717 113.741 20.5129 114.009C20.466 114.226 20.2702 114.376 20.0549 114.376C20.0196 114.376 19.9805 114.376 19.957 114.364ZM30.7871 114.001C30.7284 113.734 30.8849 113.477 31.1394 113.43C31.3939 113.367 31.6485 113.529 31.7072 113.785C31.7659 114.041 31.6093 114.297 31.3548 114.356C31.3196 114.368 31.2843 114.368 31.2334 114.368C31.0298 114.368 30.8341 114.222 30.7871 114.001ZM17.1887 113.576C16.946 113.493 16.8129 113.209 16.899 112.969C16.9851 112.713 17.2514 112.591 17.502 112.677C17.7447 112.76 17.8779 113.032 17.7917 113.284C17.7173 113.477 17.5372 113.6 17.3454 113.6C17.2866 113.6 17.2357 113.588 17.1887 113.576ZM33.5083 113.257C33.4222 113.012 33.5553 112.744 33.798 112.65C34.0369 112.567 34.3188 112.697 34.401 112.953C34.4833 113.198 34.3541 113.466 34.1113 113.548V113.56C34.0643 113.572 34.0017 113.584 33.9547 113.584C33.7628 113.584 33.5788 113.462 33.5083 113.253V113.257ZM14.5302 112.469C14.2992 112.346 14.1895 112.067 14.3148 111.834C14.4244 111.59 14.7142 111.491 14.9413 111.606C15.184 111.728 15.282 112.008 15.1723 112.248C15.0862 112.417 14.9178 112.516 14.7377 112.516C14.6672 112.516 14.6046 112.504 14.5341 112.469H14.5302ZM36.1277 112.224C36.0181 111.98 36.116 111.7 36.3431 111.59C36.5858 111.468 36.8638 111.566 36.9852 111.811C37.0948 112.039 36.9969 112.335 36.7698 112.441C36.6955 112.477 36.625 112.488 36.5506 112.488C36.3822 112.488 36.2138 112.39 36.1277 112.22V112.224ZM12.0165 111.07C11.8011 110.936 11.7267 110.632 11.8716 110.412C12.0165 110.195 12.3062 110.12 12.5255 110.266C12.7408 110.4 12.8152 110.691 12.6704 110.924C12.5842 111.058 12.4276 111.141 12.271 111.141C12.1848 111.141 12.1026 111.117 12.0165 111.07ZM38.618 110.885C38.4848 110.668 38.5475 110.372 38.7628 110.242V110.23C38.9939 110.096 39.2836 110.171 39.4284 110.388C39.5616 110.605 39.4911 110.9 39.2718 111.046C39.2013 111.093 39.1034 111.117 39.0173 111.117C38.8607 111.117 38.7159 111.03 38.618 110.885ZM9.67111 109.403V109.391C9.46751 109.234 9.444 108.93 9.60061 108.733C9.76898 108.528 10.0587 108.489 10.2663 108.646C10.4699 108.816 10.509 109.107 10.3406 109.316C10.2545 109.438 10.1097 109.498 9.97653 109.498C9.8669 109.498 9.77292 109.462 9.67503 109.399L9.67111 109.403ZM40.9516 109.293C40.7832 109.088 40.8184 108.78 41.022 108.623C41.2139 108.453 41.5193 108.489 41.6877 108.694C41.856 108.899 41.8208 109.194 41.6172 109.364C41.5193 109.438 41.4253 109.474 41.3157 109.474C41.1825 109.474 41.0377 109.411 40.9516 109.293ZM7.5333 107.48C7.35319 107.287 7.35319 106.98 7.5333 106.798C7.71341 106.617 8.0188 106.617 8.1989 106.798H8.21066C8.39077 106.98 8.39077 107.283 8.21066 107.48C8.11669 107.567 7.99532 107.614 7.87394 107.614C7.75256 107.614 7.61944 107.567 7.5333 107.48ZM43.0776 107.445C42.8975 107.263 42.8975 106.956 43.0776 106.763C43.2695 106.582 43.5749 106.582 43.755 106.763C43.9351 106.956 43.9351 107.263 43.755 107.445V107.433C43.6571 107.531 43.5396 107.579 43.4183 107.579C43.2969 107.579 43.1755 107.531 43.0776 107.445ZM5.61081 105.329C5.45419 105.124 5.48942 104.816 5.69693 104.647C5.90054 104.489 6.19031 104.525 6.36259 104.722C6.51921 104.927 6.48393 105.234 6.27641 105.403C6.19027 105.463 6.08456 105.502 5.98667 105.502C5.8418 105.502 5.70869 105.443 5.61081 105.332V105.329ZM45.0001 105.364C44.7965 105.195 44.7574 104.903 44.9297 104.694C45.0863 104.489 45.3877 104.45 45.5953 104.611C45.7989 104.781 45.838 105.072 45.6658 105.281C45.5679 105.403 45.4386 105.463 45.2898 105.463C45.192 105.463 45.0862 105.427 45.0001 105.364ZM3.95458 102.968C3.80971 102.751 3.8841 102.456 4.09945 102.31C4.3148 102.176 4.60843 102.239 4.7533 102.456C4.88643 102.673 4.82378 102.98 4.60843 103.114C4.52229 103.161 4.4401 103.189 4.35397 103.189C4.19735 103.189 4.04072 103.114 3.95458 102.968ZM46.6798 103.079C46.4527 102.933 46.3901 102.641 46.535 102.42C46.6681 102.204 46.9578 102.129 47.1771 102.275C47.4081 102.409 47.4668 102.7 47.3337 102.929C47.2358 103.075 47.0949 103.149 46.9344 103.149C46.8521 103.149 46.7542 103.126 46.6798 103.075V103.079ZM2.55283 100.438C2.43145 100.21 2.5411 99.9262 2.76819 99.808C3.01095 99.6976 3.28895 99.7962 3.41033 100.025C3.51996 100.269 3.4221 100.549 3.18325 100.671C3.12061 100.695 3.05008 100.718 2.99135 100.718C2.81124 100.718 2.63897 100.608 2.55674 100.438H2.55283ZM48.0933 100.62C47.8545 100.509 47.7566 100.218 47.8662 99.9853C47.9876 99.7449 48.2656 99.6464 48.5083 99.7567C48.7354 99.8789 48.8333 100.159 48.7237 100.403C48.6376 100.572 48.4692 100.671 48.2891 100.671C48.2304 100.671 48.156 100.659 48.0972 100.624L48.0933 100.62ZM1.45261 97.7747C1.35473 97.5304 1.48785 97.2506 1.74235 97.1679C1.98511 97.0812 2.26312 97.2033 2.34534 97.4595C2.43148 97.7038 2.29836 97.9835 2.05561 98.0663C1.99687 98.0781 1.94595 98.0899 1.88722 98.0899C1.69536 98.0899 1.51134 97.9678 1.45261 97.7747ZM49.221 98.019C48.9665 97.9323 48.8451 97.6644 48.9312 97.4122C49.0174 97.1679 49.2836 97.0339 49.5342 97.1206C49.777 97.2033 49.9101 97.4871 49.824 97.7274C49.7496 97.9205 49.5694 98.0427 49.3776 98.0427C49.3189 98.0427 49.2679 98.0427 49.221 98.019ZM0.653848 95.0006C0.595116 94.7445 0.751743 94.4884 1.00625 94.4293C1.26075 94.3702 1.51523 94.5278 1.57397 94.7957V94.7839C1.6327 95.04 1.47612 95.2962 1.22161 95.3553C1.18638 95.3671 1.14721 95.3671 1.11197 95.3671C0.892707 95.3671 0.700829 95.2213 0.649928 95.0006H0.653848ZM50.051 95.304C49.7965 95.2449 49.6281 94.9888 49.6869 94.7327C49.7456 94.4765 50.0001 94.3189 50.2546 94.378C50.5091 94.4371 50.6657 94.6933 50.6188 94.9494C50.5561 95.1661 50.3643 95.3159 50.145 95.3159C50.1098 95.3159 50.0745 95.3159 50.0471 95.304H50.051ZM0.172256 92.1556H0.160499C0.137006 91.8877 0.317147 91.6434 0.583396 91.6197C0.849646 91.5961 1.08064 91.7773 1.10413 92.0453C1.13937 92.3014 0.947496 92.5457 0.692992 92.5694H0.646009C0.403252 92.5694 0.199668 92.3999 0.176176 92.1556H0.172256ZM50.5718 92.5181C50.3055 92.4827 50.1254 92.2502 50.1489 91.9941C50.1724 91.7261 50.4151 91.5449 50.6697 91.5685C50.9359 91.5921 51.116 91.8364 51.0926 92.0926V92.1044C51.0691 92.3329 50.8615 92.5181 50.6227 92.5181H50.5757H50.5718ZM0 89.2712C0 89.0033 0.207503 88.7826 0.473753 88.7826C0.740003 88.7826 0.943586 88.9875 0.943586 89.2594C0.943586 89.5273 0.740003 89.7441 0.473753 89.7441C0.207503 89.7441 0 89.5273 0 89.2712ZM50.3055 89.2121V89.1766V89.1175C50.2938 88.8496 50.5091 88.6289 50.7793 88.6289C51.0455 88.6289 51.2491 88.8496 51.2491 89.1175V89.1648V89.2121C51.2491 89.4801 51.0455 89.6968 50.7793 89.6968C50.513 89.6968 50.3055 89.4801 50.3055 89.2121ZM0.571639 86.8991C0.317135 86.8754 0.12526 86.6429 0.160499 86.375C0.183991 86.1189 0.415033 85.9258 0.681282 85.9494C0.935786 85.9849 1.12763 86.2174 1.10413 86.4853C1.06889 86.7296 0.86531 86.9109 0.634299 86.9109C0.610806 86.9109 0.599051 86.9109 0.575558 86.8991H0.571639ZM50.1372 86.3277C50.1137 86.0716 50.2938 85.8273 50.5601 85.8036C50.8146 85.78 51.0573 85.9612 51.0808 86.2292C51.116 86.4853 50.9242 86.7178 50.6697 86.7533H50.607C50.3682 86.7533 50.1724 86.572 50.1372 86.3277ZM0.97886 84.1013C0.724356 84.0422 0.567718 83.7861 0.614703 83.53H0.626461C0.673446 83.2739 0.927919 83.1044 1.18242 83.1635C1.44867 83.2266 1.60531 83.4788 1.54658 83.7349C1.49959 83.9516 1.3038 84.1132 1.08846 84.1132C1.05322 84.1132 1.01801 84.1013 0.97886 84.1013ZM49.6673 83.5891C49.6047 83.333 49.7652 83.0768 50.0314 83.0177C50.2859 82.9547 50.5405 83.1162 50.5874 83.3724C50.6579 83.6285 50.4895 83.8846 50.235 83.9437C50.1998 83.9556 50.1606 83.9556 50.1254 83.9556C49.9061 83.9556 49.7143 83.8098 49.6673 83.5891ZM1.70713 81.3509C1.46828 81.2642 1.33125 80.9963 1.41739 80.7441C1.49961 80.4998 1.76974 80.3658 2.02033 80.4525C2.25917 80.5392 2.39621 80.8071 2.31007 81.0593C2.23959 81.2524 2.05561 81.3746 1.86375 81.3746C1.81677 81.3746 1.75411 81.3746 1.70713 81.3509ZM48.8921 80.9135C48.8099 80.6692 48.9391 80.3894 49.1818 80.3067C49.4363 80.22 49.7025 80.354 49.7848 80.5983C49.8709 80.8544 49.7495 81.1224 49.495 81.2051C49.448 81.2288 49.3972 81.2406 49.3384 81.2406C49.1466 81.2406 48.9626 81.1066 48.8921 80.9096V80.9135ZM2.73297 78.7148C2.49021 78.5926 2.39229 78.3128 2.50192 78.0685C2.6233 77.836 2.9013 77.7257 3.14406 77.8518C3.37116 77.9621 3.48472 78.2537 3.35943 78.4823C3.2772 78.6517 3.10493 78.762 2.92482 78.762C2.86217 78.762 2.7917 78.7384 2.73297 78.7148ZM47.831 78.3483C47.7096 78.1198 47.8192 77.836 48.0463 77.7178C48.2773 77.6075 48.5553 77.706 48.6767 77.9345C48.7981 78.1789 48.7002 78.4586 48.4613 78.569C48.3869 78.6044 48.3283 78.6162 48.2578 78.6162C48.0777 78.6162 47.9054 78.5177 47.8349 78.3483H47.831ZM4.04071 76.1929C3.82145 76.0589 3.76272 75.7673 3.89584 75.5348C4.02897 75.3181 4.33047 75.2432 4.54974 75.389C4.76509 75.523 4.83944 75.8146 4.70632 76.0471C4.60843 76.1929 4.45184 76.2638 4.29522 76.2638C4.20908 76.2638 4.12685 76.2402 4.04071 76.1929ZM46.4762 75.9131C46.3431 75.6964 46.4058 75.4008 46.6211 75.255C46.8521 75.1211 47.1419 75.1841 47.275 75.4127C47.4199 75.6294 47.3494 75.9249 47.1301 76.0707C47.0597 76.118 46.9618 76.1416 46.8756 76.1416C46.719 76.1416 46.5741 76.055 46.4762 75.9092V75.9131ZM5.63427 73.8483C5.43067 73.6789 5.39545 73.3873 5.55206 73.1784C5.72043 72.9735 6.0102 72.9381 6.21772 73.1075C6.42132 73.2769 6.46046 73.5685 6.30385 73.7774C6.20596 73.8995 6.0728 73.9586 5.92793 73.9586C5.8183 73.9586 5.72433 73.9232 5.63819 73.8483H5.63427ZM44.867 73.6513V73.6631C44.6986 73.4582 44.7338 73.1508 44.9414 72.9814C45.145 72.8238 45.4387 72.8593 45.607 73.0642C45.7754 73.2691 45.7401 73.5646 45.5365 73.734C45.4504 73.7971 45.3447 73.8325 45.2468 73.8325C45.1019 73.8325 44.9688 73.7734 44.8709 73.6513H44.867ZM7.45888 71.6929C7.27877 71.5116 7.27877 71.2082 7.45888 71.023C7.63899 70.8299 7.94047 70.8299 8.13624 71.0112C8.31635 71.2043 8.31635 71.5116 8.13624 71.6929C8.03836 71.7914 7.9209 71.8269 7.7956 71.8269C7.67422 71.8269 7.55285 71.7914 7.45888 71.6929ZM43.0189 71.5825C42.8271 71.4013 42.8271 71.0939 43.0189 70.9127C43.199 70.7314 43.5005 70.7314 43.6845 70.9127C43.8764 71.0939 43.8764 71.3973 43.6845 71.5825C43.5866 71.6811 43.4692 71.7283 43.3439 71.7283C43.2225 71.7283 43.1011 71.6811 43.0189 71.5825ZM9.52624 69.7581C9.36963 69.5532 9.39314 69.2577 9.59674 69.0882C9.80035 68.9188 10.1057 68.9543 10.2623 69.1592C10.4307 69.3641 10.3955 69.6714 10.1918 69.829C10.1057 69.9039 10 69.9394 9.90211 69.9394C9.75724 69.9394 9.62413 69.8763 9.52624 69.7581ZM40.9516 69.7345C40.748 69.5769 40.7088 69.2695 40.8771 69.0764C41.0338 68.8676 41.3235 68.8321 41.531 68.9897C41.7346 69.1473 41.7738 69.4508 41.6172 69.6596C41.5193 69.7818 41.3862 69.8409 41.2413 69.8409C41.1317 69.8409 41.0377 69.8054 40.9516 69.7305V69.7345ZM11.7855 68.0677C11.6523 67.8352 11.715 67.5436 11.9303 67.4096C12.1496 67.2638 12.4511 67.3347 12.5959 67.5554C12.7291 67.7721 12.6664 68.0677 12.4393 68.2135C12.3688 68.2607 12.271 68.2844 12.1848 68.2844C12.0282 68.2844 11.8833 68.1977 11.7855 68.0677ZM38.6923 68.1307V68.1425C38.4613 67.9967 38.3908 67.7051 38.5357 67.4845C38.6806 67.2559 38.9703 67.1929 39.1896 67.3269C39.405 67.4727 39.4794 67.7643 39.3462 67.9849C39.2484 68.1307 39.0917 68.2016 38.9351 68.2016C38.849 68.2016 38.7667 68.1898 38.6923 68.1307ZM14.2287 66.6452C14.1073 66.4009 14.2052 66.1211 14.444 65.9989C14.675 65.8768 14.9648 65.9871 15.0744 66.2157C15.1958 66.46 15.0979 66.7397 14.8552 66.8619C14.7964 66.8855 14.722 66.9092 14.6515 66.9092C14.4714 66.9092 14.3148 66.8107 14.2287 66.6412V66.6452ZM36.2609 66.791C36.0338 66.6806 35.9241 66.4009 36.0455 66.1605C36.1551 65.928 36.4331 65.8177 36.6759 65.9438C36.903 66.0541 37.0126 66.3339 36.8912 66.5742C36.8208 66.7437 36.6367 66.8422 36.4683 66.8422C36.394 66.8422 36.3235 66.8304 36.2609 66.7949V66.791ZM16.8011 65.5024C16.715 65.2463 16.8481 64.9783 17.0909 64.8956C17.3454 64.7971 17.6116 64.9311 17.6938 65.1754C17.78 65.4315 17.6469 65.6995 17.4041 65.7822C17.3571 65.8058 17.3062 65.8177 17.2475 65.8177C17.0556 65.8177 16.8716 65.6955 16.8011 65.5024ZM33.7002 65.7349C33.4574 65.6482 33.3243 65.3803 33.4104 65.1399C33.4966 64.8838 33.7746 64.7498 34.0134 64.8365C34.2679 64.9192 34.3893 65.203 34.3032 65.4433C34.2288 65.6364 34.0486 65.7586 33.8568 65.7586C33.8098 65.7586 33.7589 65.7586 33.7002 65.7349ZM19.4989 64.6513C19.4362 64.3952 19.5968 64.139 19.8513 64.0799C20.1058 64.0208 20.372 64.1784 20.419 64.4346C20.4777 64.7025 20.3211 64.9587 20.0666 65.0178C20.0314 65.0178 19.9922 65.0296 19.957 65.0296C19.7377 65.0296 19.5458 64.872 19.4989 64.6513ZM31.0416 64.9784C30.7871 64.9153 30.6305 64.6631 30.6775 64.407C30.7362 64.1509 30.9907 63.9932 31.2452 64.0405C31.4997 64.0996 31.6681 64.3558 31.6093 64.6119C31.5623 64.8326 31.3548 64.9902 31.1394 64.9902C31.116 64.9902 31.0807 64.9902 31.0416 64.9784ZM22.2671 64.1154C22.2436 63.8593 22.4237 63.615 22.6782 63.5913H22.6899C22.9445 63.5677 23.1754 63.7489 23.2107 64.0051C23.2342 64.273 23.0541 64.5055 22.7996 64.541H22.7408C22.4981 64.541 22.2945 64.3597 22.271 64.1154H22.2671ZM28.3203 64.5291C28.0541 64.4937 27.8623 64.2612 27.8975 63.9932C27.921 63.7371 28.152 63.544 28.4182 63.5677C28.6727 63.6031 28.8646 63.8356 28.8294 64.1036C28.8176 64.3479 28.5983 64.5291 28.3595 64.5291H28.3243H28.3203ZM25.0823 63.9105C25.0705 63.6425 25.2898 63.4219 25.556 63.4219C25.8105 63.4219 26.0259 63.6386 26.0259 63.8947C26.0259 64.1627 25.8105 64.3715 25.556 64.3715V64.3833C25.2898 64.3833 25.0823 64.1666 25.0823 63.9105Z" fill="#130C49"/>
<path d="M156.235 42.9863H147.605V51.6711H156.235V42.9863Z" fill="#55CBDE"/>
<path d="M117.626 68.1855H108.996V76.8703H117.626V68.1855Z" fill="#55CBDE"/>
<path d="M181.243 44.623H175.812V50.0885H181.243V44.623Z" fill="#A590DD"/>
<path d="M165.92 61.5586H158.48V69.0454H165.92V61.5586Z" fill="#A590DD"/>
<path d="M186.564 49.8555H181.133V55.3209H186.564V49.8555Z" fill="#130C49"/>
<path d="M187.544 73.8008H183.629V77.7412H187.544V73.8008Z" fill="#130C49"/>
<path d="M157.966 94.9414H154.051V98.8819H157.966V94.9414Z" fill="#55CBDE"/>
<path d="M179.598 66.8848H174.316V72.2004H179.598V66.8848Z" fill="#130C49"/>
<path d="M125.03 33.0801H120.633V37.5052H125.03V33.0801Z" fill="#61BD73"/>
<path d="M168.212 47.4277H164.273V51.3918H168.212V47.4277Z" fill="#130C49"/>
<path d="M168.212 41.2383H164.273V45.2024H168.212V41.2383Z" fill="#130C49"/>
<path d="M168.212 35.0508H164.273V39.0149H168.212V35.0508Z" fill="#130C49"/>
<path d="M168.212 28.8613H164.273V32.8254H168.212V28.8613Z" fill="#61BD73"/>
<path d="M168.33 32.9427H164.156V28.7461H168.33V32.9427ZM164.391 32.7062H168.095V28.9786H164.391V32.7062Z" fill="#61BD73"/>
<path d="M138.983 30.873C140.401 30.873 141.551 29.7157 141.551 28.2881C141.551 26.8604 140.401 25.7031 138.983 25.7031C137.564 25.7031 136.414 26.8604 136.414 28.2881C136.414 29.7157 137.564 30.873 138.983 30.873Z" fill="#61BD73"/>
<path d="M146.483 30.873C147.901 30.873 149.051 29.7157 149.051 28.2881C149.051 26.8604 147.901 25.7031 146.483 25.7031C145.064 25.7031 143.914 26.8604 143.914 28.2881C143.914 29.7157 145.064 30.873 146.483 30.873Z" fill="#130C49"/>
<path d="M153.979 30.873C155.397 30.873 156.547 29.7157 156.547 28.2881C156.547 26.8604 155.397 25.7031 153.979 25.7031C152.56 25.7031 151.41 26.8604 151.41 28.2881C151.41 29.7157 152.56 30.873 153.979 30.873Z" fill="#A590DD"/>
<path d="M113.182 57.6893C115.524 57.6893 117.422 55.7787 117.422 53.4218C117.422 51.0649 115.524 49.1543 113.182 49.1543C110.84 49.1543 108.941 51.0649 108.941 53.4218C108.941 55.7787 110.84 57.6893 113.182 57.6893Z" fill="#A590DD"/>
<path d="M145.415 75.9123C148.384 75.9123 150.791 73.49 150.791 70.502C150.791 67.514 148.384 65.0918 145.415 65.0918C142.446 65.0918 140.039 67.514 140.039 70.502C140.039 73.49 142.446 75.9123 145.415 75.9123Z" fill="#130C49"/>
<path d="M134.549 72.2012H128.758V78.0291H134.549V72.2012Z" fill="#61BD73"/>
<path d="M137.099 49.4342C138.353 49.4342 139.37 48.411 139.37 47.1487C139.37 45.8865 138.353 44.8633 137.099 44.8633C135.845 44.8633 134.828 45.8865 134.828 47.1487C134.828 48.411 135.845 49.4342 137.099 49.4342Z" fill="#130C49"/>
<path d="M156.361 87.4281C158.597 87.4281 160.41 85.604 160.41 83.3537C160.41 81.1035 158.597 79.2793 156.361 79.2793C154.125 79.2793 152.312 81.1035 152.312 83.3537C152.312 85.604 154.125 87.4281 156.361 87.4281Z" fill="#55CBDE"/>
<path d="M149.661 103.572H154.41V98.7925H149.661V103.572Z" fill="#61BD73"/>
<path d="M129.775 96.8926H139.004V87.6049H129.775V96.8926Z" fill="#55CBDE"/>
<path d="M124.842 82.0762H128.898V77.9939H124.842V82.0762Z" fill="#130C49"/>
<path d="M173.176 90.666H179.871V83.9278H173.176V90.666Z" fill="#130C49"/>
<path d="M166.043 79.9727H170.953V75.0313H166.043V79.9727Z" fill="#61BD73"/>
<path d="M94.8559 50.6627C94.8207 50.6627 94.7854 50.6548 94.7541 50.6351L43.2895 23.4421C43.1682 23.379 43.1134 23.2135 43.1721 23.0756C43.2269 22.9337 43.3718 22.8746 43.4932 22.9416L94.9577 50.1347C95.079 50.1977 95.1339 50.3632 95.0751 50.5011C95.036 50.6036 94.946 50.6627 94.8559 50.6627Z" fill="#130C49"/>
<path d="M92.5589 51.6745L92.4062 51.1426L94.685 50.2954L93.7767 47.7577L94.2269 47.5449L95.335 50.6382L92.5589 51.6745Z" fill="#130C49"/>
<path d="M43.5562 94.4842C43.4544 94.4842 43.3604 94.4094 43.3252 94.2872C43.2821 94.1375 43.3526 93.972 43.4779 93.9208L94.7545 73.5723C94.8837 73.525 95.0207 73.6038 95.0599 73.7535C95.099 73.9033 95.0325 74.0688 94.9072 74.12L43.6306 94.4685C43.6032 94.4803 43.5797 94.4842 43.5523 94.4842H43.5562Z" fill="#130C49"/>
<path d="M93.9409 76.6931L93.5142 76.4134L94.6575 73.9191L92.4805 72.7409L92.6802 72.2168L95.3348 73.6511L93.9409 76.6931Z" fill="#130C49"/>
<path d="M39.8381 99.2088C42.18 99.2088 44.0785 97.2982 44.0785 94.9413C44.0785 92.5845 42.18 90.6738 39.8381 90.6738C37.4962 90.6738 35.5977 92.5845 35.5977 94.9413C35.5977 97.2982 37.4962 99.2088 39.8381 99.2088Z" fill="#A590DD"/>
<path d="M43.3673 18.8594H35.0156V27.2644H43.3673V18.8594Z" fill="#55CBDE"/>
<path d="M124.33 62.8164H133.633V53.4539H124.33V62.8164Z" fill="#130C49"/>
</svg>
