<?xml version="1.0" encoding="UTF-8"?>
<svg id="Layer_1" xmlns="http://www.w3.org/2000/svg" version="1.1" viewBox="0 0 856 128">
  <!-- Generator: Adobe Illustrator 29.7.0, SVG Export Plug-In . SVG Version: 2.1.1 Build 138)  -->
  <defs>
    <style>
      .st0 {
        fill: #050509;
      }
    </style>
  </defs>
  <path class="st0" d="M130.193,101.797c0-9.549-7.689-17.258-17.128-17.258H42.035c-12.198,0-23.167-5.229-30.846-13.558-1.92,4.269-2.98,9.019-2.98,14.008v.46c.24,18.618,15.308,33.606,33.826,33.606h71.04c9.439,0,17.128-7.709,17.128-17.258h-.01ZM130.193,25.467c0-9.549-7.689-17.258-17.128-17.258H42.025c-18.508,0-33.566,14.968-33.826,33.586v.48c0,4.999,1.07,9.739,2.98,14.008,7.669-8.339,18.648-13.558,30.846-13.558h71.03c9.439,0,17.128-7.709,17.128-17.258h.01ZM138.392,25.467c0,14.048-11.318,25.467-25.327,25.467H42.035c-10.639,0-20.147,4.949-26.347,12.698,6.199,7.749,15.708,12.698,26.347,12.698h71.03c14.009,0,25.327,11.419,25.327,25.467s-11.318,25.467-25.327,25.467H42.025C18.798,127.264,0,108.316,0,84.989v-4.109h.2c.6-6.249,2.55-12.098,5.559-17.258C2.76,58.482.8,52.623.2,46.374h-.2v-4.109C0,18.948,18.798,0,42.025,0h71.04c14.009,0,25.327,11.418,25.327,25.467Z"/>
  <path class="st0" d="M268.646,79.31c-3.67,15.108-17.208,26.356-37.856,26.356-25.576,0-41.524-17.947-41.524-42.044s16.058-42.045,41.754-42.045c20.538,0,32.576,10.569,37.746,26.357h-13.879c-4.239-9.769-11.818-14.768-23.857-14.768-17.437,0-27.876,13.518-27.876,30.446s10.329,30.446,27.876,30.446c12.849,0,20.648-5.909,23.977-14.768h13.649l-.01.02Z"/>
  <path class="st0" d="M304.931,105.786c-17.548,0-30.626-12.498-30.626-30.906s13.078-31.016,30.626-31.016,30.516,12.608,30.516,31.016-13.078,30.906-30.516,30.906ZM287.263,74.88c0,11.138,6.999,20.227,17.668,20.227s17.548-9.089,17.548-20.227-7-20.337-17.548-20.337-17.668,9.089-17.668,20.337Z"/>
  <path class="st0" d="M342.536,104.197v-58.743h13.078v10.339c3.1-6.699,8.599-11.928,17.778-11.928,15.368,0,21.337,10.109,21.337,23.637v36.706h-13.188v-33.976c0-9.089-3.1-14.998-11.359-14.998s-14.338,7.049-14.338,21.697v27.267h-13.308Z"/>
  <path class="st0" d="M421.016,83.969c0,6.359,1.83,9.769,7.569,9.769h3.899v10.569l-6.419.11c-13.648.11-18.127-7.949-18.127-18.858v-29.886h-9.289v-10.229h9.289v-13.408h13.078v13.408h11.588v10.229h-11.588v28.296Z"/>
  <path class="st0" d="M493.517,86.809c-3.44,11.928-13.649,18.977-27.757,18.977-17.778,0-29.826-12.608-29.826-31.136s12.618-30.796,29.826-30.796c20.308,0,28.566,15.448,28.676,32.156,0,.57,0,1.48-.11,2.5h-45.654c1.03,10.339,7.689,16.698,17.088,16.698,6.769,0,12.509-2.61,14.568-8.409h13.189v.01ZM448.782,69.201h32.576c-.8-8.409-5.739-15.108-15.598-15.108s-15.718,6.019-16.978,15.108Z"/>
  <path class="st0" d="M494.516,104.197l21.108-29.996-20.308-28.746h15.028l12.849,18.518,12.728-18.518h15.028l-20.187,28.636,20.987,30.106h-15.028l-13.538-19.888-13.648,19.888h-15.028.009Z"/>
  <path class="st0" d="M575.926,83.969c0,6.359,1.83,9.769,7.569,9.769h3.899v10.569l-6.419.11c-13.648.11-18.127-7.949-18.127-18.858v-29.886h-9.289v-10.229h9.289v-13.408h13.078v13.408h11.588v10.229h-11.588v28.296Z"/>
  <path class="st0" d="M594.284,45.454h13.188v33.976c0,9.089,2.98,14.998,11.358,14.998s14.339-7.049,14.339-21.697v-27.266h13.308v58.743h-13.078v-10.339c-3.21,6.699-8.609,11.928-17.778,11.928-15.488,0-21.337-10.108-21.337-23.636v-36.705Z"/>
  <path class="st0" d="M656.826,63.402c1.489-9.319,9.408-19.658,24.896-19.658,19.618,0,25.007,11.699,25.007,24.317v22.607c0,4.429.23,10.109.92,13.519h-13.538c-.23-2.27-.34-4.55-.34-6.929v-2.73h-.11c-1.95,4.769-6.999,11.138-18.818,11.138-13.418,0-20.877-8.178-20.877-17.497,0-16.248,20.077-17.608,28.676-18.978,7.569-1.14,11.009-2.61,11.009-7.609,0-4.659-4.47-7.609-11.699-7.609-6.429,0-11.128,3.639-12.508,9.429h-12.618ZM667.154,87.719c0,4.659,4.02,8.069,11.009,8.069,7.919,0,15.718-4.889,15.718-18.858v-6.139c-1.26,3.3-4.36,6.139-14.458,8.069-8.149,1.48-12.279,3.979-12.279,8.859h.01Z"/>
  <path class="st0" d="M716.908,23.067h13.308v81.13h-13.308V23.067Z"/>
  <path class="st0" d="M772.301,104.197h-14.458l30.056-81.13h17.317l29.937,81.13h-14.569l-7.918-22.048h-32.466l-7.919,22.048h.02ZM784.119,71.131h24.667l-12.158-35.565h-.34l-12.159,35.565h-.01Z"/>
  <path class="st0" d="M841.832,23.067h13.878v81.13h-13.878V23.067Z"/>
</svg>