<svg width="64" height="64" viewBox="0 0 64 64" fill="none" xmlns="http://www.w3.org/2000/svg">
<g id="dynamic indexing">
<path id="Vector" d="M31.8861 63.1877C48.944 63.1877 62.7722 49.2665 62.7722 32.0939C62.7722 14.9212 48.944 1 31.8861 1C14.8282 1 1 14.9212 1 32.0939C1 49.2665 14.8282 63.1877 31.8861 63.1877Z" stroke="#130C49" stroke-miterlimit="10"/>
<g id="Group">
<g id="Group_2">
<path id="Vector_2" d="M31.854 14.332H14.2109V32.0938H31.854V14.332Z" stroke="#130C49" stroke-miterlimit="10"/>
<path id="Vector_3" d="M49.561 32.1045H31.918V49.8662H49.561V32.1045Z" stroke="#130C49" stroke-miterlimit="10"/>
</g>
<g id="Group_3">
<path id="Vector_4" d="M23.0308 27.5774C25.4252 27.5774 27.3662 25.6233 27.3662 23.2128C27.3662 20.8023 25.4252 18.8481 23.0308 18.8481C20.6364 18.8481 18.6953 20.8023 18.6953 23.2128C18.6953 25.6233 20.6364 27.5774 23.0308 27.5774Z" fill="#61BB73"/>
<path id="Vector_5" d="M40.7495 45.3498C43.1439 45.3498 45.085 43.3957 45.085 40.9852C45.085 38.5747 43.1439 36.6206 40.7495 36.6206C38.3551 36.6206 36.4141 38.5747 36.4141 40.9852C36.4141 43.3957 38.3551 45.3498 40.7495 45.3498Z" fill="#61BB73"/>
</g>
</g>
</g>
</svg>
