<svg width="64" height="64" viewBox="0 0 64 64" fill="none" xmlns="http://www.w3.org/2000/svg">
<g id="tenant management">
<path id="Vector" d="M31.8861 63.1877C48.944 63.1877 62.7722 49.2665 62.7722 32.0939C62.7722 14.9212 48.944 1 31.8861 1C14.8281 1 1 14.9212 1 32.0939C1 49.2665 14.8281 63.1877 31.8861 63.1877Z" stroke="#130C49" stroke-miterlimit="10"/>
<g id="Group">
<g id="Group_2">
<g id="Group_3">
<path id="Vector_2" d="M26.7734 10.9746L30.7431 14.8519L34.6483 11.0288" stroke="#130C49" stroke-linejoin="round"/>
<path id="Vector_3" d="M26.7734 53.2239L30.7431 49.3467L34.6483 53.1698" stroke="#130C49" stroke-linejoin="round"/>
</g>
<g id="Group_4">
<path id="Vector_4" d="M10.9062 27.5342L14.7576 31.5197L10.96 35.4511" stroke="#130C49" stroke-linejoin="round"/>
<path id="Vector_5" d="M52.8748 27.5342L49.0234 31.5197L52.821 35.4511" stroke="#130C49" stroke-linejoin="round"/>
</g>
<g id="Group_5">
<path id="Vector_6" d="M13.2617 43.7578L18.7913 43.8011L18.8989 49.2921" stroke="#130C49" stroke-linejoin="round"/>
<path id="Vector_7" d="M42.7617 13.6929L42.8693 19.2597L48.3236 19.303" stroke="#130C49" stroke-linejoin="round"/>
</g>
<g id="Group_6">
<path id="Vector_8" d="M43.9961 49.141L44.0391 43.5742L49.4826 43.4551" stroke="#130C49" stroke-linejoin="round"/>
<path id="Vector_9" d="M14.1328 19.444L19.6624 19.3357L19.7054 13.8447" stroke="#130C49" stroke-linejoin="round"/>
</g>
</g>
<g id="Group_7">
<path id="Vector_10" d="M31.8855 43.3358C38.0527 43.3358 43.0523 38.3026 43.0523 32.0939C43.0523 25.8852 38.0527 20.8521 31.8855 20.8521C25.7183 20.8521 20.7188 25.8852 20.7188 32.0939C20.7188 38.3026 25.7183 43.3358 31.8855 43.3358Z" stroke="#130C49" stroke-miterlimit="10"/>
<path id="Vector_11" d="M31.8862 36.4587C34.2806 36.4587 36.2217 34.5046 36.2217 32.0941C36.2217 29.6836 34.2806 27.7295 31.8862 27.7295C29.4918 27.7295 27.5508 29.6836 27.5508 32.0941C27.5508 34.5046 29.4918 36.4587 31.8862 36.4587Z" fill="#61BB73"/>
</g>
</g>
</g>
</svg>
