<svg width="42" height="42" viewBox="0 0 42 42" fill="none" xmlns="http://www.w3.org/2000/svg">
<g id="hybrid search">
<path id="Vector" d="M21.25 41C32.2957 41 41.25 32.0457 41.25 21C41.25 9.9543 32.2957 1 21.25 1C10.2043 1 1.25 9.9543 1.25 21C1.25 32.0457 10.2043 41 21.25 41Z" fill="#130C49" stroke="#130C49" stroke-miterlimit="10"/>
<path id="Vector_2" d="M21.2467 25.2082C23.5704 25.2082 25.4542 23.3244 25.4542 21.0006C25.4542 18.6768 23.5704 16.793 21.2467 16.793C18.9229 16.793 17.0391 18.6768 17.0391 21.0006C17.0391 23.3244 18.9229 25.2082 21.2467 25.2082Z" fill="#61BB73"/>
<path id="Vector_3" d="M15.7578 11.9436L21.2542 6.44727L26.7575 11.9436" stroke="white" stroke-width="0.7" stroke-miterlimit="10"/>
<path id="Vector_4" d="M26.7575 30.0488L21.2542 35.5452L15.7578 30.0488" stroke="white" stroke-width="0.7" stroke-miterlimit="10"/>
<path id="Vector_5" d="M11.8401 26.4966L6.34375 21.0002L11.8401 15.5039" stroke="white" stroke-width="0.7" stroke-miterlimit="10"/>
<path id="Vector_6" d="M29.9414 15.5039L35.4377 21.0002L29.9414 26.4966" stroke="white" stroke-width="0.7" stroke-miterlimit="10"/>
</g>
</svg>
