<svg width="42" height="42" viewBox="0 0 42 42" fill="none" xmlns="http://www.w3.org/2000/svg">
<g id="resources">
<path id="Vector" d="M21 41C32.0457 41 41 32.0457 41 21C41 9.9543 32.0457 1 21 1C9.9543 1 1 9.9543 1 21C1 32.0457 9.9543 41 21 41Z" fill="#130C49" stroke="#130C49" stroke-miterlimit="10"/>
<path id="Vector_2" d="M20.9978 33.7823C28.0577 33.7823 33.7808 28.0592 33.7808 20.9993C33.7808 13.9395 28.0577 8.21631 20.9978 8.21631C13.938 8.21631 8.21484 13.9395 8.21484 20.9993C8.21484 28.0592 13.938 33.7823 20.9978 33.7823Z" stroke="white" stroke-width="0.7" stroke-miterlimit="10"/>
<path id="Vector_3" d="M12.4224 16.277C14.7462 16.277 16.63 14.3932 16.63 12.0694C16.63 9.74562 14.7462 7.86182 12.4224 7.86182C10.0986 7.86182 8.21484 9.74562 8.21484 12.0694C8.21484 14.3932 10.0986 16.277 12.4224 16.277Z" fill="#61BB73"/>
<path id="Vector_4" d="M30.9714 31.5611C32.5219 31.5611 33.7788 30.3041 33.7788 28.7537C33.7788 27.2032 32.5219 25.9463 30.9714 25.9463C29.421 25.9463 28.1641 27.2032 28.1641 28.7537C28.1641 30.3041 29.421 31.5611 30.9714 31.5611Z" fill="#61BB73"/>
</g>
</svg>
