<svg width="177" height="116" viewBox="0 0 177 116" fill="none" xmlns="http://www.w3.org/2000/svg">
<path d="M7.66848 69.8666C11.9037 69.8666 15.337 66.4113 15.337 62.1491C15.337 57.8869 11.9037 54.4316 7.66848 54.4316C3.4333 54.4316 0 57.8869 0 62.1491C0 66.4113 3.4333 69.8666 7.66848 69.8666Z" fill="#A590DD"/>
<path d="M42.4029 69.4818C46.638 69.4818 50.0713 66.0266 50.0713 61.7643C50.0713 57.5021 46.638 54.0469 42.4029 54.0469C38.1677 54.0469 34.7344 57.5021 34.7344 61.7643C34.7344 66.0266 38.1677 69.4818 42.4029 69.4818Z" fill="#A590DD"/>
<path d="M85.3286 16.3763C89.5638 16.3763 92.9971 12.9211 92.9971 8.65887C92.9971 4.39663 89.5638 0.941406 85.3286 0.941406C81.0935 0.941406 77.6602 4.39663 77.6602 8.65887C77.6602 12.9211 81.0935 16.3763 85.3286 16.3763Z" fill="#A590DD"/>
<path d="M112.883 69.8666C117.119 69.8666 120.552 66.4113 120.552 62.1491C120.552 57.8869 117.119 54.4316 112.883 54.4316C108.648 54.4316 105.215 57.8869 105.215 62.1491C105.215 66.4113 108.648 69.8666 112.883 69.8666Z" fill="#A590DD"/>
<path d="M169.055 69.8666C173.29 69.8666 176.724 66.4113 176.724 62.1491C176.724 57.8869 173.29 54.4316 169.055 54.4316C164.82 54.4316 161.387 57.8869 161.387 62.1491C161.387 66.4113 164.82 69.8666 169.055 69.8666Z" fill="#A590DD"/>
<path d="M77.3208 115.294C81.556 115.294 84.9893 111.839 84.9893 107.577C84.9893 103.315 81.556 99.8594 77.3208 99.8594C73.0856 99.8594 69.6523 103.315 69.6523 107.577C69.6523 111.839 73.0856 115.294 77.3208 115.294Z" fill="#A590DD"/>
<path d="M74.2422 14.3992L17.2852 51.5527L17.7317 52.2461L74.6888 15.0926L74.2422 14.3992Z" fill="#130C49"/>
<path d="M17.8671 48.4375L18.5034 48.5986L17.7111 51.7591L20.9008 52.3251L20.79 52.9779L16.9023 52.288L17.8671 48.4375Z" fill="#130C49"/>
<path d="M79.1468 20.8834L50.5938 51.5371L51.1928 52.1022L79.7458 21.4485L79.1468 20.8834Z" fill="#130C49"/>
<path d="M79.9204 24.6109L79.2595 24.6068L79.2759 21.3471L76.0452 21.5743L76 20.9133L79.9328 20.6406L79.9204 24.6109Z" fill="#130C49"/>
<path d="M100.615 61.7363H56.5625V62.5626H100.615V61.7363Z" fill="#130C49"/>
<path d="M58.7375 59.4473L59.185 59.9306L56.8163 62.1492L59.185 64.3678L58.7375 64.8511L55.8516 62.1492L58.7375 59.4473Z" fill="#130C49"/>
<path d="M156.994 61.7363H124.066V62.5626H156.994V61.7363Z" fill="#130C49"/>
<path d="M154.819 64.8553L154.371 64.3678L156.744 62.1492L154.371 59.9306L154.819 59.4473L157.709 62.1492L154.819 64.8553Z" fill="#130C49"/>
<path d="M161.329 72.0747L89.8125 103.25L90.1388 104.008L161.655 72.8329L161.329 72.0747Z" fill="#130C49"/>
<path d="M90.9049 100.281L91.5043 100.55L90.207 103.533L93.2572 104.619L93.0396 105.243L89.3203 103.917L90.9049 100.281Z" fill="#130C49"/>
<path d="M16.2931 72.4323L15.8672 73.1387L65.2644 103.305L65.6903 102.599L16.2931 72.4323Z" fill="#130C49"/>
<path d="M19.3356 71.6055L19.467 72.2541L16.2937 72.9151L17.1804 76.0509L16.5482 76.2285L15.4727 72.4111L19.3356 71.6055Z" fill="#130C49"/>
<path d="M99.1872 12.9031L98.7578 13.6074L159.891 51.3535L160.32 50.6492L99.1872 12.9031Z" fill="#130C49"/>
<path d="M102.226 12.0918L102.358 12.7404L99.1804 13.3808L100.051 16.5207L99.4185 16.6983L98.3594 12.8768L102.226 12.0918Z" fill="#130C49"/>
</svg>
