<svg width="162" height="30" viewBox="0 0 162 30" fill="none" xmlns="http://www.w3.org/2000/svg">
<mask id="mask0_4065_5735" style="mask-type:luminance" maskUnits="userSpaceOnUse" x="0" y="0" width="162" height="30">
<path d="M162 0H0V29.6045H162V0Z" fill="white"/>
</mask>
<g mask="url(#mask0_4065_5735)">
<path d="M26.0422 18.4049C25.8034 18.3615 25.6298 18.5351 25.4996 18.6437C21.7664 20.7273 18.0333 22.8326 14.3436 24.9596C13.9746 25.1983 13.6491 25.2417 13.2367 24.9596C8.93927 22.507 4.66354 20.1195 0.366116 17.7104C0.12737 17.515 -0.00285481 17.3414 0.0405536 17.0158V12.5014C0.0405536 11.8502 0.452933 11.6332 1.06065 11.9588C5.16274 14.2594 9.26483 16.5601 13.3669 18.8824C13.6491 19.0777 13.8661 19.0777 14.1917 18.8824C18.0116 16.712 21.8533 14.5416 25.6732 12.4363C25.9553 12.306 26.0856 12.1107 26.0856 11.7851C26.0422 11.134 26.0422 10.5046 26.0856 9.85346C26.129 9.31086 25.8468 9.48449 25.5864 9.61472C22.5478 11.3293 19.5092 13.0657 16.4489 14.7803C15.6676 15.1927 14.9296 15.6051 14.1483 16.0609C13.9095 16.1911 13.7359 16.2345 13.4537 16.0609C9.0912 13.5649 4.75036 11.134 0.366116 8.68144C-0.13308 8.39928 -0.0896715 7.76986 0.366116 7.48771C4.70695 5.03514 9.0912 2.60427 13.4103 0.108289C13.6925 -0.0219362 13.8661 -0.0219362 14.1483 0.108289C17.3822 1.90974 20.551 3.75459 23.7849 5.55604C24.1973 5.79478 24.2841 6.05523 24.1539 6.4242C24.0671 6.70636 23.3291 6.87999 23.047 6.74977C20.0952 5.10025 17.1434 3.42903 14.1917 1.77951C13.8661 1.60588 13.6491 1.60588 13.3235 1.77951C9.67721 3.86311 6.03091 5.8816 2.44972 7.9652C2.3629 8.00861 2.31949 8.05202 2.16756 8.13883C2.66676 8.42099 3.14425 8.68144 3.60004 8.92019C6.87737 10.765 10.1113 12.5665 13.3669 14.4113C13.6491 14.585 13.8661 14.585 14.1917 14.4113C18.2504 12.1107 22.309 9.85346 26.3677 7.53112C27.1057 7.11874 27.5615 7.40089 27.5615 8.22565V12.5231C27.5615 12.8486 27.4746 13.0223 27.1925 13.1742C22.8516 15.6268 18.5325 18.0576 14.1917 20.5102C13.8661 20.6838 13.6925 20.6404 13.4103 20.4668C9.6338 18.3398 5.85727 16.2345 2.05904 14.0641C1.69731 13.9483 1.51644 14.0858 1.51644 14.4765V16.4081C1.51644 16.6469 1.60325 16.7771 1.79859 16.8639C5.72705 19.0777 9.59039 21.2482 13.5188 23.462C13.801 23.5922 13.9746 23.5488 14.2134 23.4186C18.3155 21.1179 22.461 18.7522 26.5631 16.4515C26.8452 16.2779 27.0623 16.2779 27.3444 16.4515C27.5397 16.5818 27.5832 16.6903 27.5832 16.9073V21.6605C27.5832 21.8993 27.5397 22.0295 27.301 22.1597C22.8734 24.5472 18.4457 27.0432 14.0615 29.5392C13.7793 29.6694 13.6491 29.5826 13.4103 29.4523C9.35165 27.2385 5.33637 24.9379 1.3211 22.6806C1.03895 22.5504 0.778496 22.3551 0.496341 22.2248C0.12737 22.0946 0.0405536 21.8125 0.0405536 21.4435C0.0839619 20.8358 0.496341 20.6187 1.01724 20.9009C4.75036 22.9845 8.48348 25.0898 12.1732 27.1734C12.6724 27.4556 13.2367 27.9547 13.7793 27.9982C14.3219 28.0416 14.8428 27.499 15.3854 27.2168C18.793 25.3285 22.1571 23.3969 25.5864 21.5086C25.9988 21.2699 26.129 21.0528 26.129 20.597C26.0422 19.8591 26.0422 19.1646 26.0422 18.47V18.4049Z" fill="#EC3F30"/>
<path d="M93.2383 13.3478V4.01499C93.2383 3.5592 93.3251 3.36386 93.846 3.40727C94.4971 3.45068 95.1265 3.45068 95.7777 3.40727C96.2769 3.36386 96.3854 3.5809 96.3854 4.0584C96.342 6.27222 96.3854 8.48605 96.3854 10.6565C96.3854 10.8301 96.2986 11.1123 96.5156 11.1991C96.7544 11.2859 96.8412 11.1123 96.9714 10.9603C99.7929 8.2473 104.112 8.61627 106.521 11.7417C109.386 15.4314 108.127 21.1396 104.134 23.1364C101.746 24.3301 98.9248 23.9177 96.9931 22.0729C96.8629 21.9426 96.7544 21.7473 96.5373 21.8341C96.2552 21.9209 96.3637 22.1597 96.3637 22.3767C96.3347 23.1147 95.9658 23.4836 95.2568 23.4836C94.801 23.4836 94.3452 23.4402 93.8677 23.4836C93.3685 23.527 93.26 23.3534 93.26 22.8759V13.2827L93.2383 13.3478ZM104.915 16.4298C104.915 13.8904 102.983 11.9153 100.531 11.9153C98.0783 11.9587 96.1901 13.9338 96.1901 16.4732C96.1901 19.0126 98.1217 20.9442 100.531 20.9442C102.983 20.9877 104.915 18.9692 104.915 16.4298Z" fill="#030303"/>
<path d="M48.3774 13.3911V22.8541C48.3774 23.3099 48.2906 23.5053 47.7697 23.4619C47.1186 23.4184 46.424 23.4184 45.7946 23.4619C45.3822 23.4619 45.2954 23.3316 45.2954 22.9627C45.2954 22.5503 45.5342 21.9426 45.1218 21.7689C44.7094 21.5953 44.5141 22.2247 44.2102 22.4635C42.2785 24.0696 39.2834 24.2649 36.961 22.8324C34.3782 21.2263 33.4015 18.7303 33.6403 15.822C33.8139 13.1524 35.1162 11.0254 37.6121 9.78822C39.9996 8.59449 42.7343 9.05028 44.666 10.8517C44.7962 10.9819 44.9048 11.1773 45.1218 11.1339C45.4039 11.0471 45.2954 10.8083 45.2954 10.6347V4.01491C45.2954 3.51571 45.4256 3.32037 45.9466 3.36378C46.5543 3.40719 47.1403 3.40719 47.748 3.36378C48.3557 3.32037 48.3991 3.53741 48.3991 4.05832V13.3694L48.3774 13.3911ZM41.0414 21.0093C43.494 21.0093 45.4257 19.0342 45.4257 16.4948C45.4257 13.9554 43.494 12.0237 41.0848 11.9803C38.6974 11.9369 36.744 13.912 36.7006 16.4514C36.7006 18.9908 38.5888 20.9659 41.0414 21.0093Z" fill="#030303"/>
<path d="M90.8969 16.5602V22.8761C90.8969 23.3319 90.81 23.4838 90.3543 23.4838C89.7031 23.4404 89.0086 23.4404 88.3792 23.4838C88.0102 23.4838 87.88 23.397 87.88 22.9846C87.88 22.5722 88.1187 21.9645 87.7497 21.7909C87.3374 21.6173 87.0986 22.2467 86.7731 22.4854C84.8414 24.0047 82.7144 24.2001 80.5006 23.3102C77.8743 22.2901 76.2031 19.5337 76.2031 16.4951C76.2031 13.4565 77.9178 10.6784 80.544 9.67996C82.9965 8.76838 85.2972 9.02883 87.2723 10.9171C87.4025 11.0473 87.511 11.2427 87.728 11.1558C87.9668 11.069 87.8583 10.8303 87.8583 10.6566C87.8872 9.9187 88.2851 9.54973 89.052 9.54973C89.6597 9.54973 90.4411 9.3761 90.81 9.63655C91.2224 10.0055 90.9403 10.7869 90.9403 11.3946C90.9403 13.1526 90.8969 14.8456 90.8969 16.6036V16.5602ZM87.9885 16.43C87.9885 13.8906 86.1002 11.9155 83.6477 11.9155C81.1951 11.9155 79.2634 13.8906 79.2634 16.43C79.2634 18.9693 81.1951 20.901 83.6043 20.9444C86.0568 20.9878 87.9885 19.0128 87.9885 16.43Z" fill="#030303"/>
<path d="M64.8294 16.5167V22.8326C64.8294 23.2884 64.7425 23.4837 64.2216 23.4403C63.6139 23.3969 62.9845 23.3969 62.3768 23.4403C61.8342 23.4837 61.6823 23.2667 61.7691 22.7892C61.8125 22.5504 61.7691 22.3334 61.7691 22.0946C61.7691 21.9644 61.8125 21.7691 61.6388 21.6823C61.4435 21.5954 61.3567 21.7257 61.2265 21.8559C60.6839 22.507 59.9893 23.0062 59.1429 23.3318C55.54 24.7643 51.5898 22.6807 50.3744 18.7305C49.3109 15.0842 50.8736 11.2208 54.1075 9.74496C56.495 8.63805 59.2297 9.05043 61.1179 10.8519C61.2482 10.9821 61.3567 11.1774 61.5737 11.0906C61.8559 11.0038 61.7474 10.7651 61.7474 10.548C61.7763 9.83902 62.1453 9.48451 62.8543 9.48451C63.3101 9.48451 63.831 9.52792 64.2868 9.48451C64.6991 9.44111 64.8294 9.57133 64.8294 9.98371C64.7425 12.1975 64.786 14.368 64.786 16.5384L64.8294 16.5167ZM61.8776 16.4733C61.8776 13.9339 59.9893 11.9588 57.5368 11.9154C55.1493 11.9154 53.1959 13.8905 53.1525 16.3864C53.1525 18.9258 54.9974 20.9443 57.4499 20.9443C59.9459 20.9877 61.8776 19.0126 61.8776 16.4733Z" fill="#030303"/>
<path d="M151.86 23.4403H148.626C148.257 23.4403 148.018 23.3101 147.758 23.0279C146.369 21.2699 144.936 19.5335 143.525 17.7755C143.352 17.5367 143.2 17.081 142.831 17.3197C142.462 17.4933 142.136 17.7755 142.136 18.3398C142.18 19.7723 142.093 21.2482 142.18 22.6806C142.223 23.3752 142.006 23.5488 141.355 23.462C140.747 23.4186 140.118 23.4186 139.51 23.462C139.228 23.462 139.098 23.3752 139.098 23.093V4.16697C139.098 3.62436 139.228 3.42902 139.836 3.47243C140.443 3.51584 141.073 3.51584 141.68 3.47243C142.136 3.42902 142.18 3.60266 142.18 4.01504V13.9338C142.18 14.1726 142.049 14.5416 142.353 14.6718C142.635 14.7586 142.766 14.433 142.961 14.2594C144.393 12.8269 145.869 11.3511 147.302 9.91857C147.475 9.74494 147.671 9.5496 147.996 9.5496H151.23C151.274 9.83176 151.057 9.91857 150.905 10.0488C149.255 11.7634 147.541 13.4564 145.826 15.1276C145.457 15.4965 145.457 15.6702 145.783 16.1043C147.714 18.4049 149.602 20.7056 151.491 23.0279C151.578 23.0713 151.664 23.2015 151.86 23.4403Z" fill="#030303"/>
<path d="M131.935 23.766C128.158 23.766 125.293 21.5955 124.642 18.2748C123.904 14.5417 125.51 11.0907 128.744 9.78847C131.739 8.59474 134.604 9.09393 137.187 11.0256C137.513 11.2644 137.556 11.438 137.23 11.6767C136.818 12.0023 136.449 12.3713 136.08 12.7836C135.755 13.1092 135.537 13.1526 135.103 12.8705C133.259 11.7201 131.327 11.5248 129.482 12.7836C127.724 13.934 127.138 16.3865 128.05 18.3616C128.983 20.3367 131.175 21.3568 133.454 20.7491C134.105 20.5537 134.734 20.3367 135.255 19.9677C135.624 19.6856 135.863 19.7941 136.08 20.098C136.21 20.2716 136.406 20.4235 136.536 20.5971C137.158 21.2483 137.078 21.8343 136.297 22.3552C134.865 23.2234 133.432 23.8311 131.913 23.7443L131.935 23.766Z" fill="#030303"/>
<path d="M156.833 23.7656C154.619 23.7222 152.904 22.854 151.797 20.8573C151.624 20.4883 151.559 20.2495 152.036 20.0759C152.579 19.8372 153.099 19.5767 153.599 19.2511C153.968 19.0124 154.098 19.1209 154.293 19.4899C155.075 20.879 156.507 21.465 157.853 21.0092C158.46 20.8355 158.873 20.4015 158.96 19.772C159.046 19.0341 158.677 18.5783 158.091 18.2962C157.354 17.9272 156.485 17.7536 155.682 17.4714C155.14 17.2978 154.619 17.1024 154.12 16.8203C152.839 16.0823 152.036 15.0188 152.036 13.4995C152.036 11.9802 152.731 10.7431 154.054 9.89664C156.507 8.42076 159.958 9.28892 161.477 11.6981C161.716 12.0671 161.803 12.3058 161.304 12.5228C160.804 12.7616 160.327 13.022 159.871 13.3042C159.502 13.5429 159.263 13.5429 159.046 13.1306C158.439 12.1105 157.527 11.6113 156.333 11.85C155.682 11.9802 155.183 12.3058 155.053 13.0003C154.966 13.6515 155.292 14.1073 155.791 14.4328C156.333 14.8018 156.985 14.932 157.636 15.1708C158.374 15.4095 159.155 15.67 159.849 16.0389C162.931 17.645 162.389 21.6169 159.98 23.0494C159.068 23.5052 158.135 23.7873 156.854 23.7873L156.833 23.7656Z" fill="#030303"/>
<path d="M68.8869 16.1477V12.6967C68.8869 12.2409 68.8001 11.9588 68.2358 12.0022C67.6932 12.0456 66.8901 12.1975 66.5863 11.9154C66.1739 11.5898 66.5428 10.8085 66.456 10.2007C66.3692 9.65813 66.5863 9.46279 67.1506 9.46279C68.9086 9.5062 68.9086 9.46279 68.9086 7.74816V5.62115C68.9086 5.25218 68.9954 5.12196 69.3644 5.16536C70.0589 5.20877 70.7969 5.20877 71.4914 5.16536C71.9038 5.16536 71.9906 5.29559 71.9472 5.66456C71.9472 6.68466 71.9906 7.74816 71.9472 8.74655C71.9038 9.35427 72.1208 9.4845 72.6851 9.4845C73.3797 9.44109 74.0742 9.4845 74.7687 9.44109C75.1377 9.44109 75.2679 9.5279 75.2245 9.89688C75.1811 10.548 75.5067 11.3728 75.0943 11.8285C74.7253 12.2409 73.9006 11.9588 73.2494 11.9588C72.3523 11.9588 71.9038 12.3856 71.9038 13.2393V17.8406C71.9038 18.2096 71.9038 18.5785 71.9472 18.9475C72.1859 20.4234 72.6851 20.8358 74.161 20.7924C74.6168 20.7924 75.2679 20.5102 75.5501 20.8358C75.8756 21.1613 75.6369 21.8125 75.6369 22.3117C75.6369 23.462 75.6369 23.5054 74.4866 23.5054C73.7486 23.5054 72.9673 23.5488 72.2293 23.462C70.2543 23.2232 69.0388 21.8125 68.9086 19.5335C68.8652 18.4266 68.9086 17.2329 68.9086 16.0826L68.8869 16.1477Z" fill="#030303"/>
<path d="M109.714 16.4731V10.0703C109.714 9.61454 109.844 9.46261 110.256 9.52772C110.907 9.57113 111.602 9.57113 112.231 9.52772C112.6 9.52772 112.774 9.61454 112.73 10.0269C112.687 10.3525 112.73 10.7215 112.73 11.047C112.73 11.2207 112.73 11.416 112.904 11.4594C113.143 11.5462 113.23 11.3726 113.316 11.1772C113.859 10.3525 114.597 9.78817 115.487 9.46261C115.53 9.46261 115.574 9.4192 115.617 9.4192C116.225 9.22387 116.919 9.00682 117.419 9.28898C117.831 9.57113 117.505 10.2657 117.549 10.7649C117.592 11.2206 117.679 11.8284 117.505 12.1973C117.267 12.6097 116.681 12.2842 116.225 12.3927C114.337 12.7182 113.034 14.1073 112.861 16.1692C112.622 18.3396 112.774 20.51 112.774 22.6153C112.774 23.2231 112.687 23.4835 111.992 23.3967C111.385 23.3533 110.799 23.3533 110.191 23.3967C109.692 23.4401 109.648 23.2231 109.648 22.789C109.735 20.7054 109.692 18.6001 109.692 16.4731H109.714Z" fill="#030303"/>
<path d="M122.668 16.4299V22.876C122.668 23.2884 122.582 23.4837 122.169 23.4186C121.475 23.3752 120.737 23.4186 120.042 23.4186C119.717 23.4186 119.543 23.3752 119.543 22.9628V9.87519C119.543 9.54963 119.63 9.4194 119.955 9.46281C120.693 9.46281 121.431 9.50622 122.169 9.46281C122.625 9.46281 122.668 9.59303 122.668 10.0054V16.4081V16.4299Z" fill="#030303"/>
<path d="M119.197 5.23042C119.24 4.16691 120.065 3.38556 121.129 3.42897C122.192 3.47238 122.974 4.29714 122.93 5.36064C122.93 6.42415 122.019 7.24891 120.955 7.2055C119.935 7.16209 119.154 6.29392 119.197 5.23042Z" fill="#030303"/>
</g>
</svg>
