<svg width="202" height="110" viewBox="0 0 202 110" fill="none" xmlns="http://www.w3.org/2000/svg">
<rect x="78.6908" y="0.690825" width="47.008" height="22.8132" rx="1.38165" fill="#85E3BC" stroke="#130C49" stroke-width="1.38165"/>
<rect x="16.5" y="59.5" width="47.3896" height="23.1948" rx="1.57247" fill="#BCF0A7" stroke="#130C49"/>
<path d="M88.0336 14.0649H86.4831V9.04076H88.1023C88.5896 9.04076 89.0067 9.14134 89.3534 9.34251C89.7001 9.54203 89.9659 9.82906 90.1507 10.2036C90.3355 10.5765 90.4279 11.023 90.4279 11.543C90.4279 12.0664 90.3347 12.517 90.1482 12.8948C89.9618 13.2709 89.6903 13.5604 89.3338 13.7632C88.9772 13.9644 88.5438 14.0649 88.0336 14.0649ZM87.0915 13.5252H87.9943C88.4097 13.5252 88.754 13.4451 89.0271 13.2848C89.3002 13.1245 89.5039 12.8964 89.638 12.6004C89.7721 12.3044 89.8391 11.9519 89.8391 11.543C89.8391 11.1374 89.7729 10.7883 89.6404 10.4955C89.508 10.2011 89.3101 9.97543 89.0467 9.81843C88.7834 9.65979 88.4555 9.58047 88.063 9.58047H87.0915V13.5252ZM92.9007 14.1434C92.5606 14.1434 92.2621 14.0625 92.0053 13.9006C91.7502 13.7387 91.5507 13.5122 91.4067 13.221C91.2645 12.9299 91.1933 12.5897 91.1933 12.2005C91.1933 11.808 91.2645 11.4654 91.4067 11.1726C91.5507 10.8799 91.7502 10.6525 92.0053 10.4906C92.2621 10.3287 92.5606 10.2477 92.9007 10.2477C93.2409 10.2477 93.5386 10.3287 93.7937 10.4906C94.0505 10.6525 94.25 10.8799 94.3923 11.1726C94.5362 11.4654 94.6082 11.808 94.6082 12.2005C94.6082 12.5897 94.5362 12.9299 94.3923 13.221C94.25 13.5122 94.0505 13.7387 93.7937 13.9006C93.5386 14.0625 93.2409 14.1434 92.9007 14.1434ZM92.9007 13.6234C93.1592 13.6234 93.3718 13.5571 93.5386 13.4247C93.7054 13.2922 93.8289 13.118 93.909 12.9021C93.9892 12.6862 94.0292 12.4524 94.0292 12.2005C94.0292 11.9486 93.9892 11.7139 93.909 11.4964C93.8289 11.2789 93.7054 11.1031 93.5386 10.969C93.3718 10.8349 93.1592 10.7678 92.9007 10.7678C92.6423 10.7678 92.4297 10.8349 92.2629 10.969C92.0961 11.1031 91.9726 11.2789 91.8925 11.4964C91.8123 11.7139 91.7723 11.9486 91.7723 12.2005C91.7723 12.4524 91.8123 12.6862 91.8925 12.9021C91.9726 13.118 92.0961 13.2922 92.2629 13.4247C92.4297 13.5571 92.6423 13.6234 92.9007 13.6234ZM97.0228 14.1434C96.6695 14.1434 96.3653 14.06 96.1102 13.8932C95.855 13.7264 95.6588 13.4966 95.5214 13.2039C95.384 12.9111 95.3153 12.5767 95.3153 12.2005C95.3153 11.8178 95.3856 11.4801 95.5263 11.1873C95.6686 10.8929 95.8665 10.6632 96.12 10.498C96.3751 10.3312 96.6728 10.2477 97.0129 10.2477C97.2779 10.2477 97.5167 10.2968 97.7293 10.3949C97.9419 10.4931 98.1161 10.6304 98.2518 10.8071C98.3876 10.9837 98.4718 11.1898 98.5045 11.4253H97.9255C97.8814 11.2536 97.7833 11.1015 97.6312 10.969C97.4807 10.8349 97.2779 10.7678 97.0228 10.7678C96.7971 10.7678 96.5992 10.8267 96.4291 10.9445C96.2606 11.0606 96.129 11.2249 96.0341 11.4375C95.9409 11.6485 95.8943 11.8963 95.8943 12.1809C95.8943 12.472 95.9401 12.7255 96.0317 12.9414C96.1249 13.1573 96.2557 13.3249 96.4242 13.4443C96.5943 13.5637 96.7938 13.6234 97.0228 13.6234C97.1732 13.6234 97.3098 13.5972 97.4324 13.5449C97.5551 13.4925 97.659 13.4173 97.744 13.3192C97.829 13.221 97.8896 13.1033 97.9255 12.9659H98.5045C98.4718 13.1883 98.3908 13.3887 98.2616 13.5669C98.1341 13.7436 97.9648 13.8842 97.7538 13.9889C97.5445 14.0919 97.3008 14.1434 97.0228 14.1434ZM101.726 12.5243V10.2968H102.305V14.0649H101.726V13.4271H101.686C101.598 13.6185 101.461 13.7812 101.274 13.9153C101.088 14.0478 100.852 14.114 100.568 14.114C100.332 14.114 100.123 14.0625 99.9396 13.9595C99.7565 13.8548 99.6125 13.6978 99.5079 13.4884C99.4032 13.2775 99.3509 13.0117 99.3509 12.6911V10.2968H99.9298V12.6519C99.9298 12.9267 100.007 13.1458 100.16 13.3094C100.316 13.4729 100.514 13.5547 100.754 13.5547C100.898 13.5547 101.044 13.5179 101.193 13.4443C101.344 13.3707 101.47 13.2578 101.571 13.1057C101.674 12.9536 101.726 12.7598 101.726 12.5243ZM103.365 14.0649V10.2968H103.924V10.8856H103.973C104.052 10.6844 104.179 10.5282 104.354 10.417C104.529 10.3042 104.739 10.2477 104.984 10.2477C105.233 10.2477 105.44 10.3042 105.605 10.417C105.772 10.5282 105.902 10.6844 105.995 10.8856H106.034C106.131 10.691 106.275 10.5364 106.468 10.4219C106.661 10.3058 106.893 10.2477 107.163 10.2477C107.499 10.2477 107.775 10.3532 107.989 10.5642C108.203 10.7735 108.311 11.0998 108.311 11.543V14.0649H107.732V11.543C107.732 11.265 107.656 11.0663 107.504 10.9469C107.351 10.8275 107.172 10.7678 106.966 10.7678C106.701 10.7678 106.496 10.848 106.35 11.0082C106.205 11.1669 106.132 11.368 106.132 11.6117V14.0649H105.543V11.4842C105.543 11.2699 105.474 11.0974 105.335 10.9665C105.196 10.8341 105.017 10.7678 104.798 10.7678C104.647 10.7678 104.506 10.8079 104.376 10.888C104.246 10.9682 104.142 11.0794 104.062 11.2217C103.983 11.3623 103.944 11.525 103.944 11.7099V14.0649H103.365ZM110.949 14.1434C110.586 14.1434 110.273 14.0633 110.009 13.903C109.748 13.7411 109.546 13.5154 109.404 13.2259C109.263 12.9348 109.193 12.5963 109.193 12.2103C109.193 11.8243 109.263 11.4842 109.404 11.1898C109.546 10.8938 109.744 10.6632 109.997 10.498C110.252 10.3312 110.55 10.2477 110.89 10.2477C111.086 10.2477 111.28 10.2805 111.472 10.3459C111.663 10.4113 111.837 10.5176 111.994 10.6648C112.151 10.8103 112.276 11.0033 112.369 11.2437C112.463 11.4842 112.509 11.7802 112.509 12.1318V12.3771H109.605V11.8767H111.921C111.921 11.6641 111.878 11.4743 111.793 11.3075C111.71 11.1407 111.59 11.0091 111.435 10.9126C111.281 10.8161 111.1 10.7678 110.89 10.7678C110.66 10.7678 110.46 10.8251 110.292 10.9395C110.125 11.0524 109.996 11.1996 109.906 11.3811C109.816 11.5627 109.771 11.7573 109.771 11.965V12.2986C109.771 12.5832 109.821 12.8244 109.919 13.0223C110.018 13.2186 110.157 13.3682 110.333 13.4713C110.51 13.5727 110.715 13.6234 110.949 13.6234C111.101 13.6234 111.239 13.6021 111.361 13.5596C111.485 13.5154 111.593 13.45 111.683 13.3633C111.772 13.275 111.842 13.1654 111.891 13.0346L112.45 13.1916C112.392 13.3813 112.293 13.5481 112.154 13.6921C112.015 13.8343 111.843 13.9456 111.638 14.0257C111.434 14.1042 111.204 14.1434 110.949 14.1434ZM113.969 11.7982V14.0649H113.39V10.2968H113.949V10.8856H113.998C114.087 10.6942 114.221 10.5405 114.401 10.4244C114.581 10.3066 114.813 10.2477 115.097 10.2477C115.353 10.2477 115.576 10.3001 115.767 10.4047C115.959 10.5078 116.107 10.6648 116.214 10.8758C116.32 11.0851 116.373 11.3501 116.373 11.6706V14.0649H115.794V11.7099C115.794 11.4138 115.717 11.1832 115.564 11.0181C115.41 10.8512 115.199 10.7678 114.931 10.7678C114.746 10.7678 114.581 10.8079 114.435 10.888C114.291 10.9682 114.177 11.0851 114.094 11.2388C114.011 11.3926 113.969 11.579 113.969 11.7982ZM119.07 10.2968V10.7874H117.117V10.2968H119.07ZM117.686 9.39402H118.265V12.9855C118.265 13.1491 118.289 13.2717 118.336 13.3535C118.385 13.4336 118.447 13.4876 118.523 13.5154C118.6 13.5416 118.681 13.5547 118.766 13.5547C118.829 13.5547 118.882 13.5514 118.923 13.5449C118.963 13.5367 118.996 13.5301 119.021 13.5252L119.138 14.0453C119.099 14.06 119.044 14.0748 118.974 14.0895C118.904 14.1058 118.815 14.114 118.707 14.114C118.543 14.114 118.383 14.0788 118.226 14.0085C118.071 13.9382 117.941 13.8311 117.838 13.6871C117.737 13.5432 117.686 13.3617 117.686 13.1425V9.39402Z" fill="#130C49"/>
<path d="M32.8001 73V67.9758H33.4085V70.2131H36.0874V67.9758H36.6958V73H36.0874V70.7529H33.4085V73H32.8001ZM39.4152 73.0785C39.0521 73.0785 38.7389 72.9984 38.4756 72.8381C38.214 72.6762 38.012 72.4505 37.8697 72.161C37.729 71.8699 37.6587 71.5313 37.6587 71.1454C37.6587 70.7594 37.729 70.4192 37.8697 70.1248C38.012 69.8288 38.2099 69.5982 38.4634 69.433C38.7185 69.2662 39.0162 69.1828 39.3563 69.1828C39.5526 69.1828 39.7464 69.2155 39.9377 69.2809C40.1291 69.3463 40.3033 69.4527 40.4603 69.5998C40.6173 69.7454 40.7424 69.9384 40.8356 70.1788C40.9288 70.4192 40.9755 70.7152 40.9755 71.0669V71.3122H38.0709V70.8117H40.3867C40.3867 70.5991 40.3442 70.4094 40.2591 70.2426C40.1757 70.0758 40.0563 69.9441 39.9009 69.8476C39.7472 69.7511 39.5657 69.7029 39.3563 69.7029C39.1257 69.7029 38.9262 69.7601 38.7578 69.8746C38.5909 69.9875 38.4625 70.1346 38.3726 70.3162C38.2826 70.4977 38.2377 70.6923 38.2377 70.9V71.2337C38.2377 71.5183 38.2867 71.7595 38.3849 71.9574C38.4846 72.1536 38.6228 72.3033 38.7995 72.4063C38.9761 72.5077 39.1813 72.5584 39.4152 72.5584C39.5673 72.5584 39.7047 72.5372 39.8274 72.4946C39.9516 72.4505 40.0588 72.3851 40.1487 72.2984C40.2387 72.2101 40.3082 72.1005 40.3572 71.9697L40.9166 72.1267C40.8577 72.3164 40.7588 72.4832 40.6197 72.6271C40.4807 72.7694 40.309 72.8806 40.1046 72.9607C39.9001 73.0393 39.6703 73.0785 39.4152 73.0785ZM42.965 73.0883C42.7262 73.0883 42.5095 73.0433 42.3149 72.9534C42.1203 72.8618 41.9657 72.7301 41.8513 72.5584C41.7368 72.3851 41.6795 72.1757 41.6795 71.9304C41.6795 71.7145 41.7221 71.5395 41.8071 71.4054C41.8921 71.2697 42.0058 71.1634 42.1481 71.0865C42.2904 71.0096 42.4474 70.9524 42.6191 70.9148C42.7925 70.8755 42.9666 70.8444 43.1416 70.8215C43.3706 70.7921 43.5562 70.77 43.6985 70.7553C43.8424 70.739 43.9471 70.712 44.0125 70.6744C44.0796 70.6367 44.1131 70.5713 44.1131 70.4781V70.4585C44.1131 70.2164 44.0469 70.0283 43.9144 69.8942C43.7836 69.7601 43.5849 69.6931 43.3183 69.6931C43.0419 69.6931 42.8252 69.7536 42.6682 69.8746C42.5112 69.9956 42.4008 70.1248 42.337 70.2622L41.7875 70.066C41.8856 69.837 42.0164 69.6587 42.18 69.5312C42.3452 69.402 42.5251 69.312 42.7197 69.2613C42.9159 69.209 43.1089 69.1828 43.2986 69.1828C43.4197 69.1828 43.5587 69.1975 43.7157 69.227C43.8743 69.2548 44.0273 69.3128 44.1744 69.4011C44.3233 69.4895 44.4468 69.6227 44.5449 69.801C44.643 69.9793 44.6921 70.2181 44.6921 70.5173V73H44.1131V72.4897H44.0837C44.0444 72.5715 43.979 72.659 43.8874 72.7522C43.7958 72.8454 43.674 72.9248 43.5219 72.9902C43.3698 73.0556 43.1842 73.0883 42.965 73.0883ZM43.0533 72.5682C43.2823 72.5682 43.4753 72.5233 43.6323 72.4333C43.7909 72.3434 43.9103 72.2272 43.9905 72.085C44.0722 71.9427 44.1131 71.793 44.1131 71.636V71.1061C44.0886 71.1356 44.0346 71.1625 43.9512 71.1871C43.8694 71.21 43.7746 71.2304 43.6666 71.2484C43.5603 71.2648 43.4565 71.2795 43.3551 71.2926C43.2553 71.304 43.1744 71.3138 43.1122 71.322C42.9617 71.3416 42.8211 71.3735 42.6903 71.4177C42.561 71.4602 42.4564 71.5248 42.3762 71.6115C42.2977 71.6965 42.2585 71.8126 42.2585 71.9598C42.2585 72.161 42.3329 72.3131 42.4817 72.4161C42.6322 72.5175 42.8227 72.5682 43.0533 72.5682ZM47.1717 73.0785C46.8576 73.0785 46.5804 72.9992 46.34 72.8405C46.0996 72.6803 45.9115 72.4546 45.7758 72.1635C45.64 71.8707 45.5722 71.5248 45.5722 71.1257C45.5722 70.73 45.64 70.3865 45.7758 70.0954C45.9115 69.8043 46.1004 69.5794 46.3425 69.4208C46.5845 69.2621 46.8642 69.1828 47.1815 69.1828C47.4268 69.1828 47.6206 69.2237 47.7629 69.3055C47.9068 69.3856 48.0164 69.4772 48.0916 69.5802C48.1685 69.6816 48.2282 69.765 48.2707 69.8304H48.3198V67.9758H48.8987V73H48.3394V72.421H48.2707C48.2282 72.4897 48.1677 72.5764 48.0892 72.6811C48.0107 72.7841 47.8986 72.8765 47.7531 72.9583C47.6075 73.0384 47.4137 73.0785 47.1717 73.0785ZM47.2502 72.5584C47.4824 72.5584 47.6787 72.4979 47.8389 72.3769C47.9992 72.2542 48.1211 72.085 48.2045 71.8691C48.2879 71.6516 48.3296 71.4005 48.3296 71.1159C48.3296 70.8346 48.2887 70.5885 48.2069 70.3775C48.1251 70.1649 48.0041 69.9997 47.8438 69.882C47.6836 69.7626 47.4857 69.7029 47.2502 69.7029C47.0048 69.7029 46.8004 69.7658 46.6369 69.8918C46.4749 70.0161 46.3531 70.1853 46.2713 70.3996C46.1912 70.6122 46.1511 70.851 46.1511 71.1159C46.1511 71.3841 46.192 71.6278 46.2738 71.847C46.3572 72.0645 46.4799 72.2379 46.6418 72.3671C46.8053 72.4946 47.0081 72.5584 47.2502 72.5584Z" fill="#130C49"/>
<rect x="128" y="94" width="34" height="16" rx="2.07247" fill="#85E3BC"/>
<rect x="128" y="94" width="34" height="16" rx="2.07247" stroke="#130C49"/>
<rect x="163" y="94" width="34" height="16" rx="2.07247" fill="#85E3BC"/>
<rect x="163" y="94" width="34" height="16" rx="2.07247" stroke="#130C49"/>
<rect x="6" y="94" width="34" height="16" rx="2.07247" fill="#85E3BC"/>
<rect x="6" y="94" width="34" height="16" rx="2.07247" stroke="#130C49"/>
<rect x="41" y="94" width="34" height="16" rx="2.07247" fill="#85E3BC"/>
<rect x="41" y="94" width="34" height="16" rx="2.07247" stroke="#130C49"/>
<path d="M10.3347 101.763V101.37L13.4944 99.7608V100.389L11.0706 101.557L11.0902 101.517V101.615L11.0706 101.576L13.4944 102.744V103.372L10.3347 101.763ZM14.8001 104V98.9758H15.4085V101.213H18.0874V98.9758H18.6958V104H18.0874V101.753H15.4085V104H14.8001ZM21.4152 104.079C21.0521 104.079 20.7389 103.998 20.4756 103.838C20.214 103.676 20.012 103.45 19.8697 103.161C19.729 102.87 19.6587 102.531 19.6587 102.145C19.6587 101.759 19.729 101.419 19.8697 101.125C20.012 100.829 20.2099 100.598 20.4634 100.433C20.7185 100.266 21.0162 100.183 21.3563 100.183C21.5526 100.183 21.7464 100.216 21.9377 100.281C22.1291 100.346 22.3033 100.453 22.4603 100.6C22.6173 100.745 22.7424 100.938 22.8356 101.179C22.9288 101.419 22.9755 101.715 22.9755 102.067V102.312H20.0709V101.812H22.3867C22.3867 101.599 22.3442 101.409 22.2591 101.243C22.1757 101.076 22.0563 100.944 21.9009 100.848C21.7472 100.751 21.5657 100.703 21.3563 100.703C21.1257 100.703 20.9262 100.76 20.7578 100.875C20.5909 100.987 20.4625 101.135 20.3726 101.316C20.2826 101.498 20.2377 101.692 20.2377 101.9V102.234C20.2377 102.518 20.2867 102.759 20.3849 102.957C20.4846 103.154 20.6228 103.303 20.7995 103.406C20.9761 103.508 21.1813 103.558 21.4152 103.558C21.5673 103.558 21.7047 103.537 21.8274 103.495C21.9516 103.45 22.0588 103.385 22.1487 103.298C22.2387 103.21 22.3082 103.1 22.3572 102.97L22.9166 103.127C22.8577 103.316 22.7588 103.483 22.6197 103.627C22.4807 103.769 22.309 103.881 22.1046 103.961C21.9001 104.039 21.6703 104.079 21.4152 104.079ZM24.965 104.088C24.7262 104.088 24.5095 104.043 24.3149 103.953C24.1203 103.862 23.9657 103.73 23.8513 103.558C23.7368 103.385 23.6795 103.176 23.6795 102.93C23.6795 102.715 23.7221 102.54 23.8071 102.405C23.8921 102.27 24.0058 102.163 24.1481 102.086C24.2904 102.01 24.4474 101.952 24.6191 101.915C24.7925 101.876 24.9666 101.844 25.1416 101.822C25.3706 101.792 25.5562 101.77 25.6985 101.755C25.8424 101.739 25.9471 101.712 26.0125 101.674C26.0796 101.637 26.1131 101.571 26.1131 101.478V101.458C26.1131 101.216 26.0469 101.028 25.9144 100.894C25.7836 100.76 25.5849 100.693 25.3183 100.693C25.0419 100.693 24.8252 100.754 24.6682 100.875C24.5112 100.996 24.4008 101.125 24.337 101.262L23.7875 101.066C23.8856 100.837 24.0164 100.659 24.18 100.531C24.3452 100.402 24.5251 100.312 24.7197 100.261C24.9159 100.209 25.1089 100.183 25.2986 100.183C25.4197 100.183 25.5587 100.198 25.7157 100.227C25.8743 100.255 26.0273 100.313 26.1744 100.401C26.3233 100.489 26.4468 100.623 26.5449 100.801C26.643 100.979 26.6921 101.218 26.6921 101.517V104H26.1131V103.49H26.0837C26.0444 103.572 25.979 103.659 25.8874 103.752C25.7958 103.845 25.674 103.925 25.5219 103.99C25.3698 104.056 25.1842 104.088 24.965 104.088ZM25.0533 103.568C25.2823 103.568 25.4753 103.523 25.6323 103.433C25.7909 103.343 25.9103 103.227 25.9905 103.085C26.0722 102.943 26.1131 102.793 26.1131 102.636V102.106C26.0886 102.136 26.0346 102.163 25.9512 102.187C25.8694 102.21 25.7746 102.23 25.6666 102.248C25.5603 102.265 25.4565 102.279 25.3551 102.293C25.2553 102.304 25.1744 102.314 25.1122 102.322C24.9617 102.342 24.8211 102.374 24.6903 102.418C24.561 102.46 24.4564 102.525 24.3762 102.611C24.2977 102.697 24.2585 102.813 24.2585 102.96C24.2585 103.161 24.3329 103.313 24.4817 103.416C24.6322 103.518 24.8227 103.568 25.0533 103.568ZM29.1717 104.079C28.8576 104.079 28.5804 103.999 28.34 103.841C28.0996 103.68 27.9115 103.455 27.7758 103.163C27.64 102.871 27.5722 102.525 27.5722 102.126C27.5722 101.73 27.64 101.387 27.7758 101.095C27.9115 100.804 28.1004 100.579 28.3425 100.421C28.5845 100.262 28.8642 100.183 29.1815 100.183C29.4268 100.183 29.6206 100.224 29.7629 100.305C29.9068 100.386 30.0164 100.477 30.0916 100.58C30.1685 100.682 30.2282 100.765 30.2707 100.83H30.3198V98.9758H30.8987V104H30.3394V103.421H30.2707C30.2282 103.49 30.1677 103.576 30.0892 103.681C30.0107 103.784 29.8986 103.877 29.7531 103.958C29.6075 104.038 29.4137 104.079 29.1717 104.079ZM29.2502 103.558C29.4824 103.558 29.6787 103.498 29.8389 103.377C29.9992 103.254 30.1211 103.085 30.2045 102.869C30.2879 102.652 30.3296 102.401 30.3296 102.116C30.3296 101.835 30.2887 101.588 30.2069 101.378C30.1251 101.165 30.0041 101 29.8438 100.882C29.6836 100.763 29.4857 100.703 29.2502 100.703C29.0048 100.703 28.8004 100.766 28.6369 100.892C28.4749 101.016 28.3531 101.185 28.2713 101.4C28.1912 101.612 28.1511 101.851 28.1511 102.116C28.1511 102.384 28.192 102.628 28.2738 102.847C28.3572 103.065 28.4799 103.238 28.6418 103.367C28.8053 103.495 29.0081 103.558 29.2502 103.558ZM35.366 102.234L32.2063 103.843V103.215L34.6301 102.047L34.6104 102.086V101.988L34.6301 102.028L32.2063 100.86V100.232L35.366 101.841V102.234Z" fill="#130C49"/>
<path d="M43.1035 102.234V101.841L46.2632 100.232V100.86L43.8394 102.028L43.859 101.988V102.086L43.8394 102.047L46.2632 103.215V103.843L43.1035 102.234ZM49.2665 98.7403L47.6474 104.756H47.1175L48.7366 98.7403H49.2665ZM50.0313 104V98.9758H50.6397V101.213H53.3186V98.9758H53.927V104H53.3186V101.753H50.6397V104H50.0313ZM56.6464 104.079C56.2833 104.079 55.9701 103.998 55.7068 103.838C55.4452 103.676 55.2432 103.45 55.1009 103.161C54.9602 102.87 54.8899 102.531 54.8899 102.145C54.8899 101.759 54.9602 101.419 55.1009 101.125C55.2432 100.829 55.4411 100.598 55.6946 100.433C55.9497 100.266 56.2474 100.183 56.5875 100.183C56.7838 100.183 56.9776 100.216 57.169 100.281C57.3603 100.346 57.5345 100.453 57.6915 100.6C57.8485 100.745 57.9736 100.938 58.0668 101.179C58.1601 101.419 58.2067 101.715 58.2067 102.067V102.312H55.3021V101.812H57.6179C57.6179 101.599 57.5754 101.409 57.4903 101.243C57.4069 101.076 57.2875 100.944 57.1322 100.848C56.9784 100.751 56.7969 100.703 56.5875 100.703C56.3569 100.703 56.1574 100.76 55.989 100.875C55.8221 100.987 55.6938 101.135 55.6038 101.316C55.5139 101.498 55.4689 101.692 55.4689 101.9V102.234C55.4689 102.518 55.5179 102.759 55.6161 102.957C55.7158 103.154 55.854 103.303 56.0307 103.406C56.2073 103.508 56.4125 103.558 56.6464 103.558C56.7985 103.558 56.9359 103.537 57.0586 103.495C57.1829 103.45 57.29 103.385 57.3799 103.298C57.4699 103.21 57.5394 103.1 57.5885 102.97L58.1478 103.127C58.0889 103.316 57.99 103.483 57.8509 103.627C57.7119 103.769 57.5402 103.881 57.3358 103.961C57.1313 104.039 56.9016 104.079 56.6464 104.079ZM60.1962 104.088C59.9574 104.088 59.7407 104.043 59.5461 103.953C59.3515 103.862 59.1969 103.73 59.0825 103.558C58.968 103.385 58.9107 103.176 58.9107 102.93C58.9107 102.715 58.9533 102.54 59.0383 102.405C59.1233 102.27 59.237 102.163 59.3793 102.086C59.5216 102.01 59.6786 101.952 59.8503 101.915C60.0237 101.876 60.1979 101.844 60.3729 101.822C60.6018 101.792 60.7874 101.77 60.9297 101.755C61.0737 101.739 61.1783 101.712 61.2437 101.674C61.3108 101.637 61.3443 101.571 61.3443 101.478V101.458C61.3443 101.216 61.2781 101.028 61.1456 100.894C61.0148 100.76 60.8161 100.693 60.5495 100.693C60.2731 100.693 60.0564 100.754 59.8994 100.875C59.7424 100.996 59.632 101.125 59.5682 101.262L59.0187 101.066C59.1168 100.837 59.2476 100.659 59.4112 100.531C59.5764 100.402 59.7563 100.312 59.9509 100.261C60.1472 100.209 60.3401 100.183 60.5299 100.183C60.6509 100.183 60.7899 100.198 60.9469 100.227C61.1055 100.255 61.2585 100.313 61.4057 100.401C61.5545 100.489 61.678 100.623 61.7761 100.801C61.8742 100.979 61.9233 101.218 61.9233 101.517V104H61.3443V103.49H61.3149C61.2756 103.572 61.2102 103.659 61.1186 103.752C61.027 103.845 60.9052 103.925 60.7531 103.99C60.601 104.056 60.4154 104.088 60.1962 104.088ZM60.2845 103.568C60.5135 103.568 60.7065 103.523 60.8635 103.433C61.0221 103.343 61.1415 103.227 61.2217 103.085C61.3034 102.943 61.3443 102.793 61.3443 102.636V102.106C61.3198 102.136 61.2658 102.163 61.1824 102.187C61.1006 102.21 61.0058 102.23 60.8978 102.248C60.7915 102.265 60.6877 102.279 60.5863 102.293C60.4865 102.304 60.4056 102.314 60.3434 102.322C60.1929 102.342 60.0523 102.374 59.9215 102.418C59.7923 102.46 59.6876 102.525 59.6074 102.611C59.5289 102.697 59.4897 102.813 59.4897 102.96C59.4897 103.161 59.5641 103.313 59.7129 103.416C59.8634 103.518 60.0539 103.568 60.2845 103.568ZM64.4029 104.079C64.0889 104.079 63.8116 103.999 63.5712 103.841C63.3308 103.68 63.1427 103.455 63.007 103.163C62.8712 102.871 62.8034 102.525 62.8034 102.126C62.8034 101.73 62.8712 101.387 63.007 101.095C63.1427 100.804 63.3316 100.579 63.5737 100.421C63.8157 100.262 64.0954 100.183 64.4127 100.183C64.658 100.183 64.8518 100.224 64.9941 100.305C65.138 100.386 65.2476 100.477 65.3228 100.58C65.3997 100.682 65.4594 100.765 65.5019 100.83H65.551V98.9758H66.1299V104H65.5706V103.421H65.5019C65.4594 103.49 65.3989 103.576 65.3204 103.681C65.2419 103.784 65.1298 103.877 64.9843 103.958C64.8387 104.038 64.6449 104.079 64.4029 104.079ZM64.4814 103.558C64.7136 103.558 64.9099 103.498 65.0701 103.377C65.2304 103.254 65.3523 103.085 65.4357 102.869C65.5191 102.652 65.5608 102.401 65.5608 102.116C65.5608 101.835 65.5199 101.588 65.4381 101.378C65.3563 101.165 65.2353 101 65.075 100.882C64.9148 100.763 64.7169 100.703 64.4814 100.703C64.236 100.703 64.0316 100.766 63.8681 100.892C63.7062 101.016 63.5843 101.185 63.5025 101.4C63.4224 101.612 63.3823 101.851 63.3823 102.116C63.3823 102.384 63.4232 102.628 63.505 102.847C63.5884 103.065 63.7111 103.238 63.873 103.367C64.0365 103.495 64.2393 103.558 64.4814 103.558ZM70.5972 102.234L67.4375 103.843V103.215L69.8613 102.047L69.8416 102.086V101.988L69.8613 102.028L67.4375 100.86V100.232L70.5972 101.841V102.234Z" fill="#130C49"/>
<path d="M132.618 101.763V101.37L135.778 99.7608V100.389L133.354 101.557L133.374 101.517V101.615L133.354 101.576L135.778 102.744V103.372L132.618 101.763ZM137.083 104V98.9758H138.84C139.19 98.9758 139.479 99.0363 139.706 99.1574C139.933 99.2767 140.103 99.4378 140.214 99.6406C140.325 99.8418 140.381 100.065 140.381 100.31C140.381 100.526 140.342 100.705 140.265 100.845C140.19 100.986 140.09 101.097 139.966 101.179C139.843 101.261 139.71 101.321 139.566 101.36V101.409C139.72 101.419 139.874 101.473 140.03 101.571C140.185 101.669 140.315 101.81 140.42 101.993C140.525 102.176 140.577 102.401 140.577 102.665C140.577 102.917 140.52 103.144 140.405 103.345C140.291 103.546 140.11 103.706 139.863 103.823C139.616 103.941 139.295 104 138.899 104H137.083ZM137.692 103.46H138.899C139.296 103.46 139.578 103.383 139.745 103.23C139.914 103.074 139.998 102.886 139.998 102.665C139.998 102.495 139.955 102.338 139.868 102.194C139.781 102.049 139.658 101.933 139.497 101.846C139.337 101.758 139.147 101.714 138.928 101.714H137.692V103.46ZM137.692 101.184H138.82C139.004 101.184 139.169 101.148 139.316 101.076C139.465 101.004 139.582 100.902 139.669 100.772C139.757 100.641 139.802 100.487 139.802 100.31C139.802 100.09 139.725 99.9023 139.571 99.7486C139.417 99.5932 139.174 99.5155 138.84 99.5155H137.692V101.184ZM143.029 104.079C142.689 104.079 142.39 103.998 142.133 103.836C141.878 103.674 141.679 103.447 141.535 103.156C141.393 102.865 141.321 102.525 141.321 102.136C141.321 101.743 141.393 101.4 141.535 101.108C141.679 100.815 141.878 100.588 142.133 100.426C142.39 100.264 142.689 100.183 143.029 100.183C143.369 100.183 143.667 100.264 143.922 100.426C144.179 100.588 144.378 100.815 144.52 101.108C144.664 101.4 144.736 101.743 144.736 102.136C144.736 102.525 144.664 102.865 144.52 103.156C144.378 103.447 144.179 103.674 143.922 103.836C143.667 103.998 143.369 104.079 143.029 104.079ZM143.029 103.558C143.287 103.558 143.5 103.492 143.667 103.36C143.833 103.227 143.957 103.053 144.037 102.837C144.117 102.621 144.157 102.387 144.157 102.136C144.157 101.884 144.117 101.649 144.037 101.431C143.957 101.214 143.833 101.038 143.667 100.904C143.5 100.77 143.287 100.703 143.029 100.703C142.77 100.703 142.558 100.77 142.391 100.904C142.224 101.038 142.101 101.214 142.021 101.431C141.94 101.649 141.9 101.884 141.9 102.136C141.9 102.387 141.94 102.621 142.021 102.837C142.101 103.053 142.224 103.227 142.391 103.36C142.558 103.492 142.77 103.558 143.029 103.558ZM147.043 104.079C146.729 104.079 146.452 103.999 146.211 103.841C145.971 103.68 145.783 103.455 145.647 103.163C145.511 102.871 145.443 102.525 145.443 102.126C145.443 101.73 145.511 101.387 145.647 101.095C145.783 100.804 145.972 100.579 146.214 100.421C146.456 100.262 146.735 100.183 147.053 100.183C147.298 100.183 147.492 100.224 147.634 100.305C147.778 100.386 147.888 100.477 147.963 100.58C148.04 100.682 148.099 100.765 148.142 100.83H148.191V98.9758H148.77V104H148.211V103.421H148.142C148.099 103.49 148.039 103.576 147.96 103.681C147.882 103.784 147.77 103.877 147.624 103.958C147.479 104.038 147.285 104.079 147.043 104.079ZM147.121 103.558C147.354 103.558 147.55 103.498 147.71 103.377C147.87 103.254 147.992 103.085 148.076 102.869C148.159 102.652 148.201 102.401 148.201 102.116C148.201 101.835 148.16 101.588 148.078 101.378C147.996 101.165 147.875 101 147.715 100.882C147.555 100.763 147.357 100.703 147.121 100.703C146.876 100.703 146.672 100.766 146.508 100.892C146.346 101.016 146.224 101.185 146.143 101.4C146.062 101.612 146.022 101.851 146.022 102.116C146.022 102.384 146.063 102.628 146.145 102.847C146.228 103.065 146.351 103.238 146.513 103.367C146.677 103.495 146.879 103.558 147.121 103.558ZM150.284 105.413C150.185 105.413 150.098 105.405 150.021 105.389C149.944 105.374 149.891 105.359 149.862 105.344L150.009 104.834C150.149 104.87 150.274 104.883 150.382 104.873C150.49 104.864 150.585 104.815 150.669 104.729C150.754 104.644 150.831 104.505 150.902 104.314L151.01 104.02L149.616 100.232H150.244L151.285 103.235H151.324L152.364 100.232H152.992L151.392 104.55C151.32 104.744 151.231 104.905 151.125 105.033C151.019 105.162 150.895 105.258 150.755 105.32C150.616 105.382 150.459 105.413 150.284 105.413ZM157.083 102.234L153.923 103.843V103.215L156.347 102.047L156.327 102.086V101.988L156.347 102.028L153.923 100.86V100.232L157.083 101.841V102.234Z" fill="#130C49"/>
<path d="M165.387 102.234V101.841L168.547 100.232V100.86L166.123 102.028L166.142 101.988V102.086L166.123 102.047L168.547 103.215V103.843L165.387 102.234ZM171.55 98.7403L169.931 104.756H169.401L171.02 98.7403H171.55ZM172.315 104V98.9758H174.071C174.421 98.9758 174.71 99.0363 174.937 99.1574C175.164 99.2767 175.334 99.4378 175.445 99.6406C175.556 99.8418 175.612 100.065 175.612 100.31C175.612 100.526 175.573 100.705 175.496 100.845C175.421 100.986 175.321 101.097 175.197 101.179C175.075 101.261 174.941 101.321 174.797 101.36V101.409C174.951 101.419 175.106 101.473 175.261 101.571C175.416 101.669 175.546 101.81 175.651 101.993C175.756 102.176 175.808 102.401 175.808 102.665C175.808 102.917 175.751 103.144 175.636 103.345C175.522 103.546 175.341 103.706 175.094 103.823C174.847 103.941 174.526 104 174.13 104H172.315ZM172.923 103.46H174.13C174.527 103.46 174.81 103.383 174.976 103.23C175.145 103.074 175.229 102.886 175.229 102.665C175.229 102.495 175.186 102.338 175.099 102.194C175.012 102.049 174.889 101.933 174.729 101.846C174.568 101.758 174.379 101.714 174.159 101.714H172.923V103.46ZM172.923 101.184H174.052C174.235 101.184 174.4 101.148 174.547 101.076C174.696 101.004 174.814 100.902 174.9 100.772C174.989 100.641 175.033 100.487 175.033 100.31C175.033 100.09 174.956 99.9023 174.802 99.7486C174.648 99.5932 174.405 99.5155 174.071 99.5155H172.923V101.184ZM178.26 104.079C177.92 104.079 177.621 103.998 177.365 103.836C177.109 103.674 176.91 103.447 176.766 103.156C176.624 102.865 176.553 102.525 176.553 102.136C176.553 101.743 176.624 101.4 176.766 101.108C176.91 100.815 177.109 100.588 177.365 100.426C177.621 100.264 177.92 100.183 178.26 100.183C178.6 100.183 178.898 100.264 179.153 100.426C179.41 100.588 179.609 100.815 179.752 101.108C179.896 101.4 179.967 101.743 179.967 102.136C179.967 102.525 179.896 102.865 179.752 103.156C179.609 103.447 179.41 103.674 179.153 103.836C178.898 103.998 178.6 104.079 178.26 104.079ZM178.26 103.558C178.518 103.558 178.731 103.492 178.898 103.36C179.065 103.227 179.188 103.053 179.268 102.837C179.348 102.621 179.389 102.387 179.389 102.136C179.389 101.884 179.348 101.649 179.268 101.431C179.188 101.214 179.065 101.038 178.898 100.904C178.731 100.77 178.518 100.703 178.26 100.703C178.002 100.703 177.789 100.77 177.622 100.904C177.455 101.038 177.332 101.214 177.252 101.431C177.172 101.649 177.132 101.884 177.132 102.136C177.132 102.387 177.172 102.621 177.252 102.837C177.332 103.053 177.455 103.227 177.622 103.36C177.789 103.492 178.002 103.558 178.26 103.558ZM182.274 104.079C181.96 104.079 181.683 103.999 181.442 103.841C181.202 103.68 181.014 103.455 180.878 103.163C180.742 102.871 180.675 102.525 180.675 102.126C180.675 101.73 180.742 101.387 180.878 101.095C181.014 100.804 181.203 100.579 181.445 100.421C181.687 100.262 181.967 100.183 182.284 100.183C182.529 100.183 182.723 100.224 182.865 100.305C183.009 100.386 183.119 100.477 183.194 100.58C183.271 100.682 183.331 100.765 183.373 100.83H183.422V98.9758H184.001V104H183.442V103.421H183.373C183.331 103.49 183.27 103.576 183.192 103.681C183.113 103.784 183.001 103.877 182.856 103.958C182.71 104.038 182.516 104.079 182.274 104.079ZM182.353 103.558C182.585 103.558 182.781 103.498 182.941 103.377C183.102 103.254 183.224 103.085 183.307 102.869C183.39 102.652 183.432 102.401 183.432 102.116C183.432 101.835 183.391 101.588 183.309 101.378C183.228 101.165 183.107 101 182.946 100.882C182.786 100.763 182.588 100.703 182.353 100.703C182.107 100.703 181.903 100.766 181.739 100.892C181.577 101.016 181.456 101.185 181.374 101.4C181.294 101.612 181.254 101.851 181.254 102.116C181.254 102.384 181.294 102.628 181.376 102.847C181.46 103.065 181.582 103.238 181.744 103.367C181.908 103.495 182.111 103.558 182.353 103.558ZM185.515 105.413C185.417 105.413 185.329 105.405 185.252 105.389C185.175 105.374 185.122 105.359 185.093 105.344L185.24 104.834C185.381 104.87 185.505 104.883 185.613 104.873C185.721 104.864 185.817 104.815 185.9 104.729C185.985 104.644 186.063 104.505 186.133 104.314L186.241 104.02L184.848 100.232H185.476L186.516 103.235H186.555L187.595 100.232H188.223L186.624 104.55C186.552 104.744 186.463 104.905 186.356 105.033C186.25 105.162 186.126 105.258 185.986 105.32C185.847 105.382 185.69 105.413 185.515 105.413ZM192.314 102.234L189.154 103.843V103.215L191.578 102.047L191.558 102.086V101.988L191.578 102.028L189.154 100.86V100.232L192.314 101.841V102.234Z" fill="#130C49"/>
<rect x="138.5" y="59.5" width="47.3896" height="23.1948" rx="1.57247" fill="#BCF0A7" stroke="#130C49"/>
<path d="M155.083 73V67.9758H156.84C157.19 67.9758 157.479 68.0363 157.706 68.1574C157.933 68.2767 158.103 68.4378 158.214 68.6406C158.325 68.8418 158.381 69.065 158.381 69.3104C158.381 69.5262 158.342 69.7045 158.265 69.8452C158.19 69.9858 158.09 70.097 157.966 70.1788C157.843 70.2606 157.71 70.3211 157.566 70.3603V70.4094C157.72 70.4192 157.874 70.4732 158.03 70.5713C158.185 70.6694 158.315 70.8101 158.42 70.9933C158.525 71.1764 158.577 71.4005 158.577 71.6655C158.577 71.9173 158.52 72.1438 158.405 72.345C158.291 72.5462 158.11 72.7056 157.863 72.8234C157.616 72.9411 157.295 73 156.899 73H155.083ZM155.692 72.4603H156.899C157.296 72.4603 157.578 72.3834 157.745 72.2297C157.914 72.0743 157.998 71.8862 157.998 71.6655C157.998 71.4954 157.955 71.3384 157.868 71.1944C157.781 71.0489 157.658 70.9328 157.497 70.8461C157.337 70.7578 157.147 70.7136 156.928 70.7136H155.692V72.4603ZM155.692 70.1837H156.82C157.004 70.1837 157.169 70.1477 157.316 70.0758C157.465 70.0038 157.582 69.9024 157.669 69.7716C157.757 69.6407 157.802 69.487 157.802 69.3104C157.802 69.0896 157.725 68.9023 157.571 68.7486C157.417 68.5932 157.174 68.5155 156.84 68.5155H155.692V70.1837ZM161.029 73.0785C160.689 73.0785 160.39 72.9975 160.133 72.8356C159.878 72.6737 159.679 72.4472 159.535 72.1561C159.393 71.865 159.321 71.5248 159.321 71.1356C159.321 70.743 159.393 70.4004 159.535 70.1077C159.679 69.8149 159.878 69.5876 160.133 69.4257C160.39 69.2638 160.689 69.1828 161.029 69.1828C161.369 69.1828 161.667 69.2638 161.922 69.4257C162.179 69.5876 162.378 69.8149 162.52 70.1077C162.664 70.4004 162.736 70.743 162.736 71.1356C162.736 71.5248 162.664 71.865 162.52 72.1561C162.378 72.4472 162.179 72.6737 161.922 72.8356C161.667 72.9975 161.369 73.0785 161.029 73.0785ZM161.029 72.5584C161.287 72.5584 161.5 72.4922 161.667 72.3597C161.833 72.2272 161.957 72.0531 162.037 71.8372C162.117 71.6213 162.157 71.3874 162.157 71.1356C162.157 70.8837 162.117 70.649 162.037 70.4315C161.957 70.214 161.833 70.0382 161.667 69.904C161.5 69.7699 161.287 69.7029 161.029 69.7029C160.77 69.7029 160.558 69.7699 160.391 69.904C160.224 70.0382 160.101 70.214 160.021 70.4315C159.94 70.649 159.9 70.8837 159.9 71.1356C159.9 71.3874 159.94 71.6213 160.021 71.8372C160.101 72.0531 160.224 72.2272 160.391 72.3597C160.558 72.4922 160.77 72.5584 161.029 72.5584ZM165.043 73.0785C164.729 73.0785 164.452 72.9992 164.211 72.8405C163.971 72.6803 163.783 72.4546 163.647 72.1635C163.511 71.8707 163.443 71.5248 163.443 71.1257C163.443 70.73 163.511 70.3865 163.647 70.0954C163.783 69.8043 163.972 69.5794 164.214 69.4208C164.456 69.2621 164.735 69.1828 165.053 69.1828C165.298 69.1828 165.492 69.2237 165.634 69.3055C165.778 69.3856 165.888 69.4772 165.963 69.5802C166.04 69.6816 166.099 69.765 166.142 69.8304H166.191V67.9758H166.77V73H166.211V72.421H166.142C166.099 72.4897 166.039 72.5764 165.96 72.6811C165.882 72.7841 165.77 72.8765 165.624 72.9583C165.479 73.0384 165.285 73.0785 165.043 73.0785ZM165.121 72.5584C165.354 72.5584 165.55 72.4979 165.71 72.3769C165.87 72.2542 165.992 72.085 166.076 71.8691C166.159 71.6516 166.201 71.4005 166.201 71.1159C166.201 70.8346 166.16 70.5885 166.078 70.3775C165.996 70.1649 165.875 69.9997 165.715 69.882C165.555 69.7626 165.357 69.7029 165.121 69.7029C164.876 69.7029 164.672 69.7658 164.508 69.8918C164.346 70.0161 164.224 70.1853 164.143 70.3996C164.062 70.6122 164.022 70.851 164.022 71.1159C164.022 71.3841 164.063 71.6278 164.145 71.847C164.228 72.0645 164.351 72.2379 164.513 72.3671C164.677 72.4946 164.879 72.5584 165.121 72.5584ZM168.284 74.4131C168.185 74.4131 168.098 74.4049 168.021 74.3885C167.944 74.3738 167.891 74.3591 167.862 74.3444L168.009 73.8341C168.149 73.8701 168.274 73.8832 168.382 73.8733C168.49 73.8635 168.585 73.8153 168.669 73.7286C168.754 73.6436 168.831 73.5054 168.902 73.314L169.01 73.0196L167.616 69.2319H168.244L169.285 72.2346H169.324L170.364 69.2319H170.992L169.392 73.5495C169.32 73.7441 169.231 73.9052 169.125 74.0328C169.019 74.162 168.895 74.2577 168.755 74.3198C168.616 74.382 168.459 74.4131 168.284 74.4131Z" fill="#130C49"/>
<path d="M41 56L43.8868 51H38.1132L41 56ZM41 35V34.5H40.5V35H41ZM162 35H162.5V34.5H162V35ZM162 56L164.887 51H159.113L162 56ZM41.5 51.5V35H40.5V51.5H41.5ZM41 35.5H162V34.5H41V35.5ZM161.5 35V51.5H162.5V35H161.5Z" fill="black"/>
<path d="M102 24L102 35" stroke="#130C49" stroke-width="0.896104"/>
<path d="M57 83L57 94" stroke="#130C49" stroke-width="0.896104"/>
<path d="M146 83L146 94" stroke="#130C49" stroke-width="0.896104"/>
<path d="M180 83L180 94" stroke="#130C49" stroke-width="0.896104"/>
</svg>
