<svg width="170" height="76" viewBox="0 0 170 76" fill="none" xmlns="http://www.w3.org/2000/svg">
<g clip-path="url(#clip0_3950_796)">
<path d="M86.3264 0C86.7965 0.257666 87.3273 0.169889 87.8257 0.239261C92.8881 0.942886 97.2376 3.10614 100.842 6.70921C104.3 10.1665 106.436 14.3372 107.221 19.1848C108.797 28.9095 103.973 38.5097 95.2132 43.0712C86.6709 47.5181 76.1734 46.0457 69.1854 39.4016C65.45 35.8495 63.0924 31.5343 62.3343 26.4206C61.2403 19.0432 63.2251 12.5661 68.3271 7.12686C72.2502 2.94475 77.1348 0.648411 82.8437 0.127417C82.9778 0.114675 83.1317 0.148653 83.2221 0H86.325L86.3264 0ZM84.7665 43.7253C96.0108 43.7989 105.555 34.6065 105.651 23.0087C105.749 11.2538 96.1929 1.94806 84.854 1.90842C73.4812 1.86878 63.9253 11.1122 63.8999 22.7793C63.8731 34.5074 73.4897 43.7932 84.7679 43.7253H84.7665Z" fill="#69C9E9"/>
<path d="M150.359 67.388C150.359 69.9321 150.359 72.4748 150.359 75.0189C150.359 75.6744 150.351 75.6404 149.705 75.6928C149.038 75.7466 148.592 75.5328 148.155 74.9863C145.075 71.1256 141.955 67.2974 138.841 63.465C138.671 63.2569 138.533 62.8789 138.266 62.9355C138.117 62.9666 138.208 63.4084 138.207 63.6632C138.203 67.3611 138.204 71.059 138.204 74.7555C138.204 74.9198 138.194 75.0854 138.204 75.2496C138.221 75.5455 138.088 75.656 137.795 75.6871C136.239 75.8485 136.239 75.8542 136.239 74.2869C136.239 69.5527 136.239 64.8199 136.239 60.0856C136.239 59.8973 136.252 59.7076 136.238 59.5207C136.211 59.188 136.346 59.0408 136.685 59.0705C136.872 59.0875 137.064 59.0932 137.248 59.0691C137.675 59.0125 137.939 59.2135 138.194 59.5335C141.129 63.2087 144.076 66.8755 147.019 70.5451C147.342 70.9486 147.667 71.3521 147.996 71.7513C148.081 71.8547 148.151 72.0444 148.299 72.0005C148.5 71.9396 148.398 71.7244 148.412 71.5758C148.428 71.413 148.417 71.2459 148.417 71.0817C148.417 67.3838 148.417 63.6858 148.417 59.9893C148.417 59.8251 148.426 59.6595 148.417 59.4952C148.398 59.2008 148.511 59.0606 148.822 59.0719C149.221 59.0875 149.621 59.0818 150.02 59.0748C150.255 59.0705 150.37 59.164 150.359 59.4075C150.352 59.5717 150.36 59.7373 150.36 59.9016C150.36 62.3975 150.36 64.8949 150.36 67.3908L150.359 67.388Z" fill="#1D1D1D"/>
<path d="M57.9677 67.4291C57.9677 69.9477 57.9677 72.4663 57.9677 74.9849C57.9677 75.6758 57.9578 75.6277 57.2788 75.6971C56.5899 75.7664 56.1635 75.496 55.7428 74.9722C52.6879 71.1554 49.6075 67.3597 46.5272 63.5627C46.3451 63.3376 46.1855 62.9157 45.899 62.9978C45.6943 63.0559 45.8185 63.5047 45.8171 63.7779C45.8114 67.4022 45.8128 71.0279 45.8128 74.6522C45.8128 74.8165 45.7987 74.9835 45.8157 75.1463C45.8552 75.5385 45.6928 75.6758 45.2961 75.6928C43.8477 75.7537 43.8491 75.7664 43.8491 74.3224C43.8491 69.5683 43.8491 64.8128 43.8491 60.0587C43.8491 59.8705 43.859 59.6822 43.8491 59.4939C43.8336 59.2036 43.9381 59.0479 44.2515 59.072C44.4152 59.0847 44.5832 59.0932 44.7442 59.0691C45.2439 58.9969 45.5545 59.2263 45.8622 59.6114C49.0273 63.5811 52.2121 67.5353 55.3913 71.4937C55.5085 71.6395 55.6257 71.7868 55.7485 71.9298C55.7922 71.9807 55.8515 72.0544 55.9024 72.0529C56.0435 72.0487 55.9941 71.9184 55.9998 71.8406C56.0097 71.6763 56.004 71.5107 56.004 71.3465C56.004 67.5565 56.004 63.7666 56.004 59.9781C56.004 59.7898 56.0125 59.6015 56.004 59.4132C55.9955 59.1767 56.1014 59.0975 56.3358 59.072C57.9705 58.8879 57.9705 58.8837 57.9705 60.5132C57.9705 62.8195 57.9705 65.1271 57.9705 67.4334L57.9677 67.4291Z" fill="#1D1D1D"/>
<path d="M38.2888 67.3569C38.2295 72.3403 34.3544 75.9165 29.7437 75.9632C24.917 76.0113 21.0461 72.1973 21.0235 67.3951C21.0009 62.7019 24.8182 58.8497 29.4938 58.7817C34.0579 58.7152 38.2069 62.2007 38.2874 67.3569H38.2888ZM36.2785 67.3965C36.3872 63.9662 33.6245 60.6222 29.6435 60.6207C25.973 60.6207 23.0183 63.6264 23.0084 67.354C22.9971 71.2275 26.1396 74.1369 29.6703 74.127C33.3845 74.117 36.3675 70.9797 36.2785 67.3965Z" fill="#1D1D1D"/>
<path d="M118.913 67.3342C118.913 64.8864 118.913 62.4386 118.913 59.9908C118.913 59.8492 118.929 59.7062 118.911 59.5675C118.857 59.147 119.066 59.0224 119.443 59.0705C119.489 59.0762 119.536 59.0705 119.584 59.0705C122.991 59.0705 126.397 59.0705 129.803 59.0705C130.488 59.0705 130.499 59.0748 130.492 59.7643C130.478 61.1135 130.662 60.8898 129.398 60.8969C126.791 60.9096 124.183 60.8997 121.575 60.9011C120.845 60.9011 120.881 60.853 120.881 61.5877C120.881 62.9992 120.88 64.4121 120.881 65.8236C120.881 66.5343 120.886 66.5372 121.627 66.5372C123.976 66.5386 126.325 66.5372 128.674 66.5372C128.838 66.5372 129.003 66.5443 129.167 66.5372C129.421 66.5273 129.573 66.6221 129.563 66.8982C129.563 66.9223 129.563 66.9449 129.566 66.969C129.644 67.8987 129.217 68.3635 128.284 68.3635C126.053 68.3635 123.821 68.3635 121.589 68.3635C120.886 68.3635 120.881 68.3692 120.88 69.0416C120.877 70.4305 120.877 71.8193 120.88 73.2082C120.881 73.8792 120.886 73.8835 121.593 73.8835C124.247 73.8849 126.902 73.8835 129.556 73.8835C129.72 73.8835 129.887 73.8962 130.049 73.8835C130.388 73.8566 130.499 74.0151 130.494 74.3422C130.467 75.9675 130.69 75.6673 129.232 75.6758C126.108 75.6928 122.982 75.6815 119.858 75.6815C119.67 75.6815 119.482 75.6758 119.295 75.6801C119.039 75.6857 118.894 75.5909 118.911 75.3106C118.921 75.1463 118.911 74.9807 118.911 74.8165C118.911 72.3219 118.911 69.8274 118.911 67.3314L118.913 67.3342Z" fill="#1D1D1D"/>
<path d="M2.06538e-05 67.3866C-0.0112731 62.0379 4.61068 58.0724 9.90179 58.8865C13.0979 59.3777 15.255 61.1262 16.2898 64.2139C16.558 65.0124 16.5312 64.9643 15.7195 65.0379C14.8682 65.1157 14.4362 64.8949 14.0833 64.01C13.2377 61.8921 11.4843 60.8643 9.26652 60.6476C5.90381 60.3192 2.94627 62.4329 2.15712 65.6792C1.32986 69.0784 3.00838 72.4663 6.17063 73.7008C7.81104 74.3407 9.47545 74.3407 11.1173 73.6725C12.6899 73.0326 13.7459 71.8858 14.2866 70.2846C14.4334 69.8486 14.6452 69.6744 15.0941 69.7212C15.3962 69.7523 15.7053 69.7197 16.0103 69.7296C16.4846 69.7452 16.5001 69.7551 16.3773 70.2167C15.8677 72.1378 14.8202 73.6937 13.1233 74.74C8.2402 77.7527 1.17174 75.2114 0.111546 68.8632C0.0296667 68.3719 -0.00139106 67.8835 0.00143237 67.388L2.06538e-05 67.3866Z" fill="#1D1D1D"/>
<path d="M98.0366 64.3669C98.0366 62.7897 98.0338 61.2126 98.038 59.6369C98.0394 59.0876 98.0493 59.0876 98.5688 59.0734C99.51 59.046 99.9806 59.5085 99.9806 60.4608C99.9876 63.332 99.941 66.2045 100.026 69.0728C100.082 70.9628 100.881 72.5471 102.595 73.4984C105.121 74.9 109.432 74.1638 110.167 69.6844C110.259 69.128 110.293 68.5646 110.292 67.9969C110.283 65.314 110.287 62.6312 110.287 59.9483C110.287 59.76 110.293 59.5718 110.293 59.3835C110.293 59.1853 110.379 59.0762 110.585 59.0762C111.031 59.0762 111.478 59.0791 111.924 59.0762C112.14 59.0762 112.209 59.2008 112.214 59.3891C112.219 59.5307 112.222 59.6709 112.222 59.8124C112.222 62.7543 112.23 65.6963 112.217 68.6382C112.212 69.8232 112.025 70.9869 111.514 72.0671C110.293 74.6494 108.171 75.8585 105.386 75.959C103.305 76.034 101.433 75.455 99.9608 73.9048C98.6324 72.506 98.0889 70.7774 98.0451 68.8859C98.0098 67.381 98.038 65.8732 98.038 64.3669H98.0366Z" fill="#1D1D1D"/>
<path d="M64.8672 67.3356C64.8672 64.8156 64.8672 62.2956 64.8672 59.7755C64.8672 59.0776 64.8728 59.0733 65.549 59.0733C68.8877 59.0719 72.225 59.0719 75.5637 59.0733C76.2442 59.0733 76.2541 59.0776 76.2484 59.7755C76.2371 61.1276 76.3952 60.8926 75.1402 60.8982C72.602 60.911 70.0623 60.9011 67.524 60.9025C66.8069 60.9025 66.8026 60.9067 66.8012 61.6472C66.7984 63.1776 66.7984 64.7094 66.8012 66.2398C66.8026 66.9576 66.8083 66.9619 67.5551 66.9619C69.8124 66.9633 72.0683 66.9619 74.3257 66.9619C74.5134 66.9619 74.7012 66.9661 74.8904 66.9689C75.0894 66.9703 75.1911 67.0695 75.1939 67.2705C75.1939 67.2946 75.1939 67.3172 75.1981 67.3413C75.352 68.733 75.3294 68.7584 73.9473 68.7584C71.8552 68.7584 69.763 68.7584 67.6709 68.7584C66.8041 68.7584 66.8026 68.7613 66.8012 69.6603C66.8012 71.4271 66.8026 73.1925 66.7998 74.9594C66.7998 75.6729 66.7928 75.6729 66.1123 75.6828C65.2822 75.6951 64.8672 75.2907 64.8672 74.4695C64.8672 72.0911 64.8672 69.7126 64.8672 67.3342V67.3356Z" fill="#1D1D1D"/>
<path d="M161.51 68.287C161.51 66.0969 161.512 63.9067 161.51 61.7166C161.508 60.8062 161.601 60.9082 160.661 60.9039C159.11 60.8983 157.558 60.9053 156.007 60.9011C155.46 60.8997 155.46 60.8898 155.446 60.3674C155.422 59.5047 155.85 59.0734 156.731 59.0734C160.728 59.0734 164.724 59.0734 168.721 59.0734C168.908 59.0734 169.096 59.0762 169.285 59.079C169.459 59.0819 169.539 59.1781 169.539 59.3452C169.541 59.7685 169.539 60.1932 169.541 60.6165C169.541 60.8869 169.359 60.9025 169.16 60.9025C168.595 60.9025 168.032 60.9025 167.467 60.9025C166.315 60.9025 165.163 60.8983 164.011 60.9053C163.473 60.9082 163.461 60.9181 163.458 61.4546C163.451 62.8676 163.455 64.2805 163.455 65.6934C163.455 68.7783 163.455 71.8632 163.455 74.9495C163.455 75.6786 163.451 75.6786 162.711 75.6857C161.911 75.6933 161.511 75.3002 161.511 74.5064C161.511 72.4337 161.511 70.3611 161.511 68.2884L161.51 68.287Z" fill="#1D1D1D"/>
<path d="M82.8286 67.371C82.8286 64.8283 82.8272 62.2857 82.8286 59.7416C82.8286 59.079 82.8356 59.0776 83.4751 59.0719C83.7801 59.0691 84.0864 59.0847 84.3913 59.0691C84.7047 59.0535 84.8078 59.2036 84.7923 59.4924C84.7824 59.6807 84.7923 59.869 84.7923 60.0573C84.7923 64.3668 84.7923 68.6749 84.7923 72.9844C84.7923 73.1727 84.7993 73.361 84.7951 73.5493C84.7909 73.79 84.9151 73.8863 85.1438 73.8834C85.3075 73.882 85.4727 73.8863 85.6379 73.8863C88.1056 73.8863 90.5732 73.8863 93.0409 73.8863C93.2287 73.8863 93.4164 73.8919 93.6042 73.8934C93.8061 73.8948 93.9035 73.9995 93.9077 74.1977C93.9077 74.2218 93.9077 74.2445 93.9105 74.2685C94.0616 75.6531 94.0362 75.6829 92.647 75.6829C89.7333 75.6829 86.8181 75.6829 83.9043 75.6829C83.7391 75.6829 83.5754 75.6871 83.4102 75.6829C82.8399 75.6645 82.8286 75.663 82.8272 75.0713C82.8215 72.9519 82.8257 70.8325 82.8257 68.7131C82.8257 68.2658 82.8257 67.8184 82.8257 67.371H82.8286Z" fill="#1D1D1D"/>
<path d="M85.6171 17.8978C85.6171 19.2682 85.6129 20.3045 85.6185 21.3409C85.6213 21.9496 85.6284 21.9496 86.2524 21.9624C88.624 22.0105 90.9971 22.0417 93.3688 22.1096C94.9881 22.1563 96.6059 22.2526 98.2251 22.3319C98.698 22.3545 98.9042 22.7 98.7305 23.1318C98.6472 23.3399 98.4722 23.3045 98.3169 23.3116C97.1677 23.3682 96.0172 23.4192 94.8681 23.4758C93.1077 23.5636 91.3472 23.6046 89.5854 23.6188C89.4513 23.6188 89.2297 23.5636 89.2043 23.6683C89.1704 23.8127 89.3793 23.8453 89.5035 23.9019C91.1524 24.6424 92.8041 25.3786 94.4488 26.1289C95.4737 26.5975 96.4845 27.1001 97.5122 27.5616C97.8284 27.7032 97.8665 27.8632 97.731 28.1548C97.5983 28.438 97.484 28.6277 97.1056 28.4847C94.9965 27.6919 92.8775 26.9231 90.7642 26.1402C90.1035 25.8953 89.4513 25.6306 88.7934 25.3757C88.7073 25.3432 88.6113 25.2865 88.5351 25.363C88.521 25.3771 88.6043 25.5102 88.6608 25.5711C89.5967 26.5621 90.544 27.5432 91.4729 28.5413C92.5303 29.6768 93.5749 30.8235 94.6196 31.9703C95.0149 32.4035 94.9909 32.4247 94.5998 32.8126C94.374 33.0377 94.2314 32.991 94.021 32.7956C93.0907 31.9335 92.135 31.0982 91.2089 30.2317C90.0245 29.1246 88.8598 27.9949 87.6838 26.8778C87.5893 26.7886 87.489 26.6018 87.3606 26.6867C87.2335 26.7717 87.3507 26.9444 87.3987 27.0718C88.2048 29.2053 89.0137 31.3374 89.8141 33.4724C90.0287 34.0443 90.1981 34.6347 90.4282 35.1996C90.5892 35.5932 90.3605 35.6696 90.0838 35.8013C89.7647 35.9528 89.6292 35.8494 89.4965 35.5563C88.6763 33.7598 87.8377 31.9717 87.0147 30.1765C86.6236 29.3214 86.2566 28.455 85.874 27.5956C85.8387 27.5163 85.7625 27.396 85.7074 27.396C85.531 27.4002 85.6002 27.5659 85.5973 27.6593C85.5437 29.3526 85.507 31.0472 85.4477 32.7404C85.4053 33.9396 85.3475 35.1387 85.2726 36.3364C85.2416 36.8263 85.1159 36.8928 84.6487 36.8546C84.4143 36.8348 84.3084 36.7258 84.2873 36.5106C84.2661 36.2996 84.2477 36.0887 84.2378 35.8777C84.0755 32.0453 83.9216 28.2115 83.9287 24.3734C83.9287 23.6896 83.923 23.6783 83.2242 23.6825C80.405 23.6981 77.5873 23.5905 74.7681 23.5324C73.6175 23.5084 72.4684 23.4319 71.3207 23.3555C70.835 23.3229 70.6289 22.9293 70.8124 22.4805C70.8661 22.3475 70.9663 22.322 71.0877 22.3121C71.3447 22.2908 71.6016 22.2568 71.8585 22.2441C74.3925 22.1266 76.928 22.0218 79.4648 22.0247C79.5354 22.0247 79.6088 22.0374 79.6752 22.0218C79.8418 21.985 80.1072 22.1252 80.1509 21.8888C80.1792 21.7401 79.9166 21.7019 79.7754 21.6382C77.6776 20.691 75.577 19.7524 73.4792 18.8067C72.9653 18.5745 72.4641 18.3168 71.9503 18.0875C71.7004 17.9756 71.6369 17.8284 71.7837 17.5976C71.9164 17.3867 71.8613 16.9719 72.3018 17.0865C72.5517 17.1517 72.7931 17.2465 73.0359 17.3315C75.5163 18.2064 77.9642 19.1663 80.4163 20.1148C80.5265 20.1573 80.6337 20.2026 80.7453 20.2422C80.8088 20.2649 80.9104 20.3088 80.933 20.2847C81.0304 20.1828 80.9076 20.1276 80.854 20.0724C80.0592 19.2385 79.2517 18.4159 78.4653 17.5736C77.2626 16.2852 76.0683 14.9884 74.8796 13.6859C74.5097 13.2796 74.5436 13.2839 74.8909 12.886C75.1591 12.5788 75.3426 12.6255 75.6207 12.8761C77.4574 14.524 79.2418 16.2286 81.029 17.9289C81.3184 18.205 81.6022 18.4867 81.8888 18.7642C81.9706 18.8435 82.085 19.002 82.1584 18.9497C82.3038 18.8449 82.1584 18.6962 82.1118 18.5745C81.4737 16.9053 80.8257 15.239 80.1961 13.567C79.8234 12.5774 79.486 11.5751 79.1176 10.5826C78.999 10.2627 78.9242 10.0262 79.3632 9.88041C79.8785 9.7091 79.8855 9.66804 80.1086 10.1466C80.9528 11.9573 81.7871 13.7737 82.6158 15.5915C82.9871 16.4042 83.3343 17.2267 83.6972 18.0436C83.731 18.12 83.7452 18.2616 83.8595 18.2375C83.9583 18.2177 83.9343 18.0861 83.9357 18.0025C83.9541 17.2961 83.9569 16.5896 83.9809 15.8846C84.0529 13.768 84.132 11.6529 84.2082 9.53638C84.211 9.44294 84.2308 9.34809 84.2237 9.25465C84.1969 8.87098 84.3988 8.78462 84.7432 8.7832C85.1018 8.7832 85.3079 8.84408 85.3192 9.27447C85.3587 10.8035 85.4364 12.3311 85.4886 13.8601C85.5394 15.3183 85.5776 16.7765 85.61 17.9006L85.6171 17.8978Z" fill="#69C9E9"/>
</g>
<defs>
<clipPath id="clip0_3950_796">
<rect width="169.538" height="76" fill="white"/>
</clipPath>
</defs>
</svg>
