<svg width="220" height="56" viewBox="0 0 220 56" fill="none" xmlns="http://www.w3.org/2000/svg">
<path d="M0 9.25128C0 8.51361 0.598003 7.9156 1.33568 7.9156H46.7487C47.4864 7.9156 48.0844 8.51361 48.0844 9.25128V54.6643C48.0844 55.402 47.4864 56 46.7487 56H1.33568C0.598004 56 0 55.402 0 54.6643V9.25128Z" fill="#F7F9FD"/>
<path fill-rule="evenodd" clip-rule="evenodd" d="M46.7487 8.36083H1.33568C0.843895 8.36083 0.445226 8.7595 0.445226 9.25128V54.6643C0.445226 55.1561 0.843895 55.5548 1.33568 55.5548H46.7487C47.2405 55.5548 47.6392 55.1561 47.6392 54.6643V9.25128C47.6392 8.7595 47.2405 8.36083 46.7487 8.36083ZM1.33568 7.9156C0.598003 7.9156 0 8.51361 0 9.25128V54.6643C0 55.402 0.598004 56 1.33568 56H46.7487C47.4864 56 48.0844 55.402 48.0844 54.6643V9.25128C48.0844 8.51361 47.4864 7.9156 46.7487 7.9156H1.33568Z" fill="#130C49"/>
<path d="M17.4421 17.3439H30.1703V32.9006H17.4421V17.3439Z" fill="#85E3BC"/>
<path fill-rule="evenodd" clip-rule="evenodd" d="M29.7246 17.7896H17.8877V32.455H29.7246V17.7896ZM17.4421 17.3439V32.9006H30.1703V17.3439H17.4421Z" fill="#130C49"/>
<path fill-rule="evenodd" clip-rule="evenodd" d="M20.2703 21.3509C20.2703 21.2207 20.37 21.1152 20.4931 21.1152H27.1187C27.2417 21.1152 27.3415 21.2207 27.3415 21.3509C27.3415 21.4811 27.2417 21.5866 27.1187 21.5866H20.4931C20.37 21.5866 20.2703 21.4811 20.2703 21.3509Z" fill="#130C49"/>
<path fill-rule="evenodd" clip-rule="evenodd" d="M20.2703 24.1794C20.2703 24.0493 20.37 23.9437 20.4931 23.9437H27.1187C27.2417 23.9437 27.3415 24.0493 27.3415 24.1794C27.3415 24.3096 27.2417 24.4152 27.1187 24.4152H20.4931C20.37 24.4152 20.2703 24.3096 20.2703 24.1794Z" fill="#130C49"/>
<path fill-rule="evenodd" clip-rule="evenodd" d="M20.2703 27.0079C20.2703 26.8777 20.37 26.7722 20.4931 26.7722H27.1187C27.2417 26.7722 27.3415 26.8777 27.3415 27.0079C27.3415 27.1381 27.2417 27.2436 27.1187 27.2436H20.4931C20.37 27.2436 20.2703 27.1381 20.2703 27.0079Z" fill="#130C49"/>
<path d="M28.2837 23.4723H41.0119V39.029H28.2837V23.4723Z" fill="#85E3BC"/>
<path fill-rule="evenodd" clip-rule="evenodd" d="M40.5663 23.9179H28.7293V38.5834H40.5663V23.9179ZM28.2837 23.4723V39.029H41.0119V23.4723H28.2837Z" fill="#130C49"/>
<path fill-rule="evenodd" clip-rule="evenodd" d="M31.1119 27.4793C31.1119 27.3491 31.2117 27.2436 31.3348 27.2436H37.9603C38.0834 27.2436 38.1832 27.3491 38.1832 27.4793C38.1832 27.6094 38.0834 27.715 37.9603 27.715H31.3348C31.2117 27.715 31.1119 27.6094 31.1119 27.4793Z" fill="#130C49"/>
<path fill-rule="evenodd" clip-rule="evenodd" d="M31.1119 30.3078C31.1119 30.1777 31.2117 30.0721 31.3348 30.0721H37.9603C38.0834 30.0721 38.1832 30.1777 38.1832 30.3078C38.1832 30.438 38.0834 30.5435 37.9603 30.5435H31.3348C31.2117 30.5435 31.1119 30.438 31.1119 30.3078Z" fill="#130C49"/>
<path fill-rule="evenodd" clip-rule="evenodd" d="M31.1119 33.1363C31.1119 33.0061 31.2117 32.9006 31.3348 32.9006H37.9603C38.0834 32.9006 38.1832 33.0061 38.1832 33.1363C38.1832 33.2665 38.0834 33.372 37.9603 33.372H31.3348C31.2117 33.372 31.1119 33.2665 31.1119 33.1363Z" fill="#130C49"/>
<path d="M7.07031 23.4723H19.7985V39.029H7.07031V23.4723Z" fill="#85E3BC"/>
<path fill-rule="evenodd" clip-rule="evenodd" d="M19.3529 23.9179H7.51596V38.5834H19.3529V23.9179ZM7.07031 23.4723V39.029H19.7985V23.4723H7.07031Z" fill="#130C49"/>
<path fill-rule="evenodd" clip-rule="evenodd" d="M9.8985 27.4793C9.8985 27.3491 9.99826 27.2436 10.1213 27.2436H16.7469C16.87 27.2436 16.9697 27.3491 16.9697 27.4793C16.9697 27.6094 16.87 27.715 16.7469 27.715H10.1213C9.99826 27.715 9.8985 27.6094 9.8985 27.4793Z" fill="#130C49"/>
<path fill-rule="evenodd" clip-rule="evenodd" d="M9.8985 30.3078C9.8985 30.1777 9.99826 30.0721 10.1213 30.0721H16.7469C16.87 30.0721 16.9697 30.1777 16.9697 30.3078C16.9697 30.438 16.87 30.5435 16.7469 30.5435H10.1213C9.99826 30.5435 9.8985 30.438 9.8985 30.3078Z" fill="#130C49"/>
<path fill-rule="evenodd" clip-rule="evenodd" d="M9.8985 33.1363C9.8985 33.0061 9.99826 32.9006 10.1213 32.9006H16.7469C16.87 32.9006 16.9697 33.0061 16.9697 33.1363C16.9697 33.2665 16.87 33.372 16.7469 33.372H10.1213C9.99826 33.372 9.8985 33.2665 9.8985 33.1363Z" fill="#130C49"/>
<path d="M17.4421 31.9577H30.1703V47.5144H17.4421V31.9577Z" fill="#85E3BC"/>
<path fill-rule="evenodd" clip-rule="evenodd" d="M29.7246 32.4034H17.8877V47.0688H29.7246V32.4034ZM17.4421 31.9577V47.5144H30.1703V31.9577H17.4421Z" fill="#130C49"/>
<path fill-rule="evenodd" clip-rule="evenodd" d="M20.2703 35.9647C20.2703 35.8345 20.37 35.729 20.4931 35.729H27.1187C27.2417 35.729 27.3415 35.8345 27.3415 35.9647C27.3415 36.0949 27.2417 36.2004 27.1187 36.2004H20.4931C20.37 36.2004 20.2703 36.0949 20.2703 35.9647Z" fill="#130C49"/>
<path fill-rule="evenodd" clip-rule="evenodd" d="M20.2703 38.7933C20.2703 38.6631 20.37 38.5575 20.4931 38.5575H27.1187C27.2417 38.5575 27.3415 38.6631 27.3415 38.7933C27.3415 38.9234 27.2417 39.029 27.1187 39.029H20.4931C20.37 39.029 20.2703 38.9234 20.2703 38.7933Z" fill="#130C49"/>
<path fill-rule="evenodd" clip-rule="evenodd" d="M20.2703 41.6217C20.2703 41.4915 20.37 41.386 20.4931 41.386H27.1187C27.2417 41.386 27.3415 41.4915 27.3415 41.6217C27.3415 41.7519 27.2417 41.8574 27.1187 41.8574H20.4931C20.37 41.8574 20.2703 41.7519 20.2703 41.6217Z" fill="#130C49"/>
<path d="M85.3267 9.2513C85.3267 8.51362 85.9305 7.91562 86.6754 7.91562H132.534C133.279 7.91562 133.882 8.51362 133.882 9.2513V54.6643C133.882 55.402 133.279 56 132.534 56H86.6754C85.9305 56 85.3267 55.402 85.3267 54.6643V9.2513Z" fill="#F7F9FD"/>
<path fill-rule="evenodd" clip-rule="evenodd" d="M132.534 8.36084H86.6754C86.1788 8.36084 85.7763 8.75951 85.7763 9.2513V54.6643C85.7763 55.1561 86.1788 55.5548 86.6754 55.5548H132.534C133.03 55.5548 133.433 55.1561 133.433 54.6643V9.2513C133.433 8.75951 133.03 8.36084 132.534 8.36084ZM86.6754 7.91562C85.9305 7.91562 85.3267 8.51362 85.3267 9.2513V54.6643C85.3267 55.402 85.9305 56 86.6754 56H132.534C133.279 56 133.882 55.402 133.882 54.6643V9.2513C133.882 8.51362 133.279 7.91562 132.534 7.91562H86.6754Z" fill="#130C49"/>
<path d="M105.126 19.7009H120.212V37.6147H105.126V19.7009Z" fill="#85E3BC"/>
<path fill-rule="evenodd" clip-rule="evenodd" d="M119.763 20.1372H105.575V37.1783H119.763V20.1372ZM105.126 19.7009V37.6147H120.212V19.7009H105.126Z" fill="#130C49"/>
<path fill-rule="evenodd" clip-rule="evenodd" d="M108.427 24.1793C108.427 24.0491 108.528 23.9436 108.654 23.9436H116.685C116.81 23.9436 116.912 24.0491 116.912 24.1793C116.912 24.3094 116.81 24.415 116.685 24.415H108.654C108.528 24.415 108.427 24.3094 108.427 24.1793Z" fill="#130C49"/>
<path fill-rule="evenodd" clip-rule="evenodd" d="M108.427 27.4792C108.427 27.3491 108.528 27.2435 108.654 27.2435H116.685C116.81 27.2435 116.912 27.3491 116.912 27.4792C116.912 27.6094 116.81 27.7149 116.685 27.7149H108.654C108.528 27.7149 108.427 27.6094 108.427 27.4792Z" fill="#130C49"/>
<path fill-rule="evenodd" clip-rule="evenodd" d="M108.427 30.7791C108.427 30.6489 108.528 30.5434 108.654 30.5434H116.685C116.81 30.5434 116.912 30.6489 116.912 30.7791C116.912 30.9093 116.81 31.0148 116.685 31.0148H108.654C108.528 31.0148 108.427 30.9093 108.427 30.7791Z" fill="#130C49"/>
<path d="M101.826 22.5294H116.911V40.9146H101.826V22.5294Z" fill="#85E3BC"/>
<path fill-rule="evenodd" clip-rule="evenodd" d="M116.462 22.9773H102.275V40.4668H116.462V22.9773ZM101.826 22.5294V40.9146H116.911V22.5294H101.826Z" fill="#130C49"/>
<path fill-rule="evenodd" clip-rule="evenodd" d="M105.126 27.4792C105.126 27.349 105.228 27.2435 105.354 27.2435H113.384C113.51 27.2435 113.612 27.349 113.612 27.4792C113.612 27.6094 113.51 27.7149 113.384 27.7149H105.354C105.228 27.7149 105.126 27.6094 105.126 27.4792Z" fill="#130C49"/>
<path fill-rule="evenodd" clip-rule="evenodd" d="M105.126 30.7792C105.126 30.649 105.228 30.5435 105.354 30.5435H113.384C113.51 30.5435 113.612 30.649 113.612 30.7792C113.612 30.9094 113.51 31.0149 113.384 31.0149H105.354C105.228 31.0149 105.126 30.9094 105.126 30.7792Z" fill="#130C49"/>
<path fill-rule="evenodd" clip-rule="evenodd" d="M105.126 34.0791C105.126 33.9489 105.228 33.8434 105.354 33.8434H113.384C113.51 33.8434 113.612 33.9489 113.612 34.0791C113.612 34.2092 113.51 34.3148 113.384 34.3148H105.354C105.228 34.3148 105.126 34.2092 105.126 34.0791Z" fill="#130C49"/>
<path d="M98.998 26.3008H114.083V44.2146H98.998V26.3008Z" fill="#85E3BC"/>
<path fill-rule="evenodd" clip-rule="evenodd" d="M113.634 26.7372H99.4472V43.7782H113.634V26.7372ZM98.998 26.3008V44.2146H114.083V26.3008H98.998Z" fill="#130C49"/>
<path fill-rule="evenodd" clip-rule="evenodd" d="M102.298 30.7792C102.298 30.649 102.4 30.5435 102.526 30.5435H110.556C110.682 30.5435 110.784 30.649 110.784 30.7792C110.784 30.9094 110.682 31.0149 110.556 31.0149H102.526C102.4 31.0149 102.298 30.9094 102.298 30.7792Z" fill="#130C49"/>
<path fill-rule="evenodd" clip-rule="evenodd" d="M102.298 34.0792C102.298 33.949 102.4 33.8435 102.526 33.8435H110.556C110.682 33.8435 110.784 33.949 110.784 34.0792C110.784 34.2094 110.682 34.3149 110.556 34.3149H102.526C102.4 34.3149 102.298 34.2094 102.298 34.0792Z" fill="#130C49"/>
<path fill-rule="evenodd" clip-rule="evenodd" d="M102.298 37.379C102.298 37.2488 102.4 37.1433 102.526 37.1433H110.556C110.682 37.1433 110.784 37.2488 110.784 37.379C110.784 37.5092 110.682 37.6147 110.556 37.6147H102.526C102.4 37.6147 102.298 37.5092 102.298 37.379Z" fill="#130C49"/>
<path d="M171.124 9.2513C171.124 8.51362 171.722 7.91562 172.46 7.91562H217.873C218.61 7.91562 219.208 8.51362 219.208 9.2513V54.6643C219.208 55.402 218.61 56 217.873 56H172.46C171.722 56 171.124 55.402 171.124 54.6643V9.2513Z" fill="#F7F9FD"/>
<path fill-rule="evenodd" clip-rule="evenodd" d="M217.873 8.36084H172.46C171.968 8.36084 171.569 8.75951 171.569 9.2513V54.6643C171.569 55.1561 171.968 55.5548 172.46 55.5548H217.873C218.365 55.5548 218.763 55.1561 218.763 54.6643V9.2513C218.763 8.75951 218.365 8.36084 217.873 8.36084ZM172.46 7.91562C171.722 7.91562 171.124 8.51362 171.124 9.2513V54.6643C171.124 55.402 171.722 56 172.46 56H217.873C218.61 56 219.208 55.402 219.208 54.6643V9.2513C219.208 8.51362 218.61 7.91562 217.873 7.91562H172.46Z" fill="#130C49"/>
<path d="M190.923 19.7009H205.537V37.6147H190.923V19.7009Z" fill="#85E3BC"/>
<path fill-rule="evenodd" clip-rule="evenodd" d="M205.102 20.1373H191.359V37.1783H205.102V20.1373ZM190.923 19.7009V37.6147H205.537V19.7009H190.923Z" fill="#130C49"/>
<path fill-rule="evenodd" clip-rule="evenodd" d="M194.224 24.1794C194.224 24.0492 194.32 23.9437 194.438 23.9437H202.023C202.142 23.9437 202.238 24.0492 202.238 24.1794C202.238 24.3096 202.142 24.4151 202.023 24.4151H194.438C194.32 24.4151 194.224 24.3096 194.224 24.1794Z" fill="#130C49"/>
<path fill-rule="evenodd" clip-rule="evenodd" d="M194.224 27.4793C194.224 27.3491 194.32 27.2436 194.438 27.2436H202.023C202.142 27.2436 202.238 27.3491 202.238 27.4793C202.238 27.6095 202.142 27.715 202.023 27.715H194.438C194.32 27.715 194.224 27.6095 194.224 27.4793Z" fill="#130C49"/>
<path fill-rule="evenodd" clip-rule="evenodd" d="M194.224 30.7792C194.224 30.6491 194.32 30.5435 194.438 30.5435H202.023C202.142 30.5435 202.238 30.6491 202.238 30.7792C202.238 30.9094 202.142 31.0149 202.023 31.0149H194.438C194.32 31.0149 194.224 30.9094 194.224 30.7792Z" fill="#130C49"/>
<path d="M187.623 22.5296H202.709V40.9148H187.623V22.5296Z" fill="#85E3BC"/>
<path fill-rule="evenodd" clip-rule="evenodd" d="M202.259 22.9774H188.072V40.467H202.259V22.9774ZM187.623 22.5296V40.9148H202.709V22.5296H187.623Z" fill="#130C49"/>
<path fill-rule="evenodd" clip-rule="evenodd" d="M190.923 27.4794C190.923 27.3492 191.025 27.2437 191.151 27.2437H199.182C199.307 27.2437 199.409 27.3492 199.409 27.4794C199.409 27.6096 199.307 27.7151 199.182 27.7151H191.151C191.025 27.7151 190.923 27.6096 190.923 27.4794Z" fill="#130C49"/>
<path fill-rule="evenodd" clip-rule="evenodd" d="M190.923 30.7794C190.923 30.6492 191.025 30.5437 191.151 30.5437H199.182C199.307 30.5437 199.409 30.6492 199.409 30.7794C199.409 30.9095 199.307 31.0151 199.182 31.0151H191.151C191.025 31.0151 190.923 30.9095 190.923 30.7794Z" fill="#130C49"/>
<path fill-rule="evenodd" clip-rule="evenodd" d="M190.923 34.0792C190.923 33.9491 191.025 33.8435 191.151 33.8435H199.182C199.307 33.8435 199.409 33.9491 199.409 34.0792C199.409 34.2094 199.307 34.3149 199.182 34.3149H191.151C191.025 34.3149 190.923 34.2094 190.923 34.0792Z" fill="#130C49"/>
<path d="M184.323 26.301H199.408V44.2148H184.323V26.301Z" fill="#85E3BC"/>
<path fill-rule="evenodd" clip-rule="evenodd" d="M198.959 26.7373H184.772V43.7784H198.959V26.7373ZM184.323 26.301V44.2148H199.408V26.301H184.323Z" fill="#130C49"/>
<path d="M31.8713 3.02754C31.7217 3.02754 31.5918 3.00261 31.4816 2.95274C31.3713 2.90287 31.286 2.83201 31.2257 2.74015C31.1653 2.64566 31.1351 2.53674 31.1351 2.41338C31.1351 2.29527 31.1614 2.19029 31.2139 2.09843C31.2664 2.00394 31.3477 1.9252 31.458 1.86221C31.5682 1.79922 31.7073 1.7546 31.8753 1.72836L32.576 1.61418V2.00788L31.9737 2.11024C31.8713 2.12861 31.7952 2.16142 31.7454 2.20866C31.6955 2.2559 31.6706 2.31758 31.6706 2.3937C31.6706 2.46719 31.6981 2.52624 31.7532 2.57086C31.811 2.61285 31.8818 2.63385 31.9658 2.63385C32.0734 2.63385 32.1679 2.61154 32.2493 2.56692C32.3333 2.51968 32.3976 2.45537 32.4422 2.37401C32.4894 2.29265 32.5131 2.20341 32.5131 2.1063V1.55513C32.5131 1.46327 32.4763 1.38715 32.4028 1.32679C32.332 1.2638 32.2375 1.2323 32.1194 1.2323C32.0091 1.2323 31.9107 1.26249 31.8241 1.32285C31.7401 1.38059 31.6784 1.45802 31.6391 1.55513L31.2178 1.35041C31.2598 1.23755 31.3254 1.14044 31.4147 1.05908C31.5065 0.97509 31.6141 0.909474 31.7375 0.862231C31.8608 0.814988 31.9947 0.791367 32.139 0.791367C32.3149 0.791367 32.4697 0.824174 32.6036 0.88979C32.7375 0.952781 32.8411 1.04202 32.9146 1.1575C32.9907 1.27036 33.0288 1.4029 33.0288 1.55513V2.9803H32.5406V2.61416L32.6508 2.60629C32.5957 2.69815 32.5301 2.77558 32.454 2.83857C32.3779 2.89894 32.2913 2.94618 32.1942 2.9803C32.0971 3.01179 31.9894 3.02754 31.8713 3.02754Z" fill="#130C49"/>
<path d="M30.5802 3.00385C30.3387 3.00385 30.151 2.93823 30.0172 2.807C29.8859 2.67314 29.8203 2.48548 29.8203 2.24402V1.29916H29.4503V0.838536H29.4896C29.5946 0.838536 29.676 0.810978 29.7337 0.755861C29.7915 0.700744 29.8203 0.620693 29.8203 0.515708V0.350357H30.3361V0.838536H30.8282V1.29916H30.3361V2.21646C30.3361 2.28733 30.3479 2.34769 30.3715 2.39756C30.3977 2.44743 30.4371 2.48548 30.4896 2.51173C30.5447 2.53798 30.6143 2.5511 30.6983 2.5511C30.7166 2.5511 30.7376 2.54979 30.7613 2.54716C30.7875 2.54454 30.8124 2.54191 30.8361 2.53929V2.98022C30.7993 2.98547 30.7573 2.99072 30.7101 2.99597C30.6628 3.00122 30.6195 3.00385 30.5802 3.00385Z" fill="#130C49"/>
<path d="M28.0076 3.02754C27.858 3.02754 27.7281 3.00261 27.6179 2.95274C27.5076 2.90287 27.4223 2.83201 27.362 2.74015C27.3016 2.64566 27.2714 2.53674 27.2714 2.41338C27.2714 2.29527 27.2977 2.19029 27.3502 2.09843C27.4027 2.00394 27.484 1.9252 27.5943 1.86221C27.7045 1.79922 27.8436 1.7546 28.0116 1.72836L28.7123 1.61418V2.00788L28.11 2.11024C28.0076 2.12861 27.9315 2.16142 27.8816 2.20866C27.8318 2.2559 27.8068 2.31758 27.8068 2.3937C27.8068 2.46719 27.8344 2.52624 27.8895 2.57086C27.9473 2.61285 28.0181 2.63385 28.1021 2.63385C28.2097 2.63385 28.3042 2.61154 28.3856 2.56692C28.4696 2.51968 28.5339 2.45537 28.5785 2.37401C28.6257 2.29265 28.6493 2.20341 28.6493 2.1063V1.55513C28.6493 1.46327 28.6126 1.38715 28.5391 1.32679C28.4682 1.2638 28.3738 1.2323 28.2557 1.2323C28.1454 1.2323 28.047 1.26249 27.9604 1.32285C27.8764 1.38059 27.8147 1.45802 27.7753 1.55513L27.3541 1.35041C27.3961 1.23755 27.4617 1.14044 27.5509 1.05908C27.6428 0.97509 27.7504 0.909474 27.8738 0.862231C27.9971 0.814988 28.131 0.791367 28.2753 0.791367C28.4512 0.791367 28.606 0.824174 28.7399 0.88979C28.8738 0.952781 28.9774 1.04202 29.0509 1.1575C29.127 1.27036 29.1651 1.4029 29.1651 1.55513V2.9803H28.6769V2.61416L28.7871 2.60629C28.732 2.69815 28.6664 2.77558 28.5903 2.83857C28.5142 2.89894 28.4276 2.94618 28.3305 2.9803C28.2333 3.01179 28.1257 3.02754 28.0076 3.02754Z" fill="#130C49"/>
<path d="M24.4947 2.98026V0.0472488H25.4514C25.7611 0.0472488 26.0301 0.11024 26.2584 0.236222C26.4894 0.359579 26.6679 0.531491 26.7939 0.751959C26.9198 0.969802 26.9828 1.22308 26.9828 1.51179C26.9828 1.79787 26.9198 2.05246 26.7939 2.27555C26.6679 2.49602 26.4894 2.66924 26.2584 2.79522C26.0301 2.91858 25.7611 2.98026 25.4514 2.98026H24.4947ZM25.0301 2.50783H25.4632C25.6626 2.50783 25.8346 2.46715 25.9789 2.38578C26.1259 2.3018 26.2401 2.18631 26.3214 2.03933C26.4028 1.88973 26.4435 1.71388 26.4435 1.51179C26.4435 1.30707 26.4028 1.13122 26.3214 0.984238C26.2401 0.837259 26.1259 0.723088 25.9789 0.641725C25.8346 0.560362 25.6626 0.51968 25.4632 0.51968H25.0301V2.50783Z" fill="#130C49"/>
<path d="M20.8151 2.98026L20.0789 0.83857H20.6222L21.1615 2.46452L20.9725 2.46058L21.5473 0.83857H22.004L22.5749 2.46058L22.3859 2.46452L22.9253 0.83857H23.4686L22.7323 2.98026H22.2717L21.6891 1.28344H21.8623L21.2717 2.98026H20.8151Z" fill="#130C49"/>
<path d="M18.6428 3.02754C18.4932 3.02754 18.3633 3.00261 18.2531 2.95274C18.1428 2.90287 18.0575 2.83201 17.9972 2.74015C17.9368 2.64566 17.9066 2.53674 17.9066 2.41338C17.9066 2.29527 17.9329 2.19029 17.9854 2.09843C18.0378 2.00394 18.1192 1.9252 18.2294 1.86221C18.3397 1.79922 18.4788 1.7546 18.6468 1.72836L19.3475 1.61418V2.00788L18.7452 2.11024C18.6428 2.12861 18.5667 2.16142 18.5168 2.20866C18.467 2.2559 18.442 2.31758 18.442 2.3937C18.442 2.46719 18.4696 2.52624 18.5247 2.57086C18.5825 2.61285 18.6533 2.63385 18.7373 2.63385C18.8449 2.63385 18.9394 2.61154 19.0208 2.56692C19.1048 2.51968 19.1691 2.45537 19.2137 2.37401C19.2609 2.29265 19.2845 2.20341 19.2845 2.1063V1.55513C19.2845 1.46327 19.2478 1.38715 19.1743 1.32679C19.1034 1.2638 19.009 1.2323 18.8908 1.2323C18.7806 1.2323 18.6822 1.26249 18.5956 1.32285C18.5116 1.38059 18.4499 1.45802 18.4105 1.55513L17.9893 1.35041C18.0313 1.23755 18.0969 1.14044 18.1861 1.05908C18.278 0.97509 18.3856 0.909474 18.509 0.862231C18.6323 0.814988 18.7662 0.791367 18.9105 0.791367C19.0864 0.791367 19.2412 0.824174 19.3751 0.88979C19.5089 0.952781 19.6126 1.04202 19.6861 1.1575C19.7622 1.27036 19.8003 1.4029 19.8003 1.55513V2.9803H19.3121V2.61416L19.4223 2.60629C19.3672 2.69815 19.3016 2.77558 19.2255 2.83857C19.1494 2.89894 19.0628 2.94618 18.9656 2.9803C18.8685 3.01179 18.7609 3.02754 18.6428 3.02754Z" fill="#130C49"/>
<path d="M15.4331 2.98046V0.0474472H16.5236C16.7231 0.0474472 16.899 0.0841919 17.0512 0.157681C17.206 0.228546 17.3268 0.333531 17.4134 0.472636C17.5 0.609116 17.5433 0.775779 17.5433 0.972625C17.5433 1.17472 17.4947 1.34663 17.3976 1.48836C17.3031 1.63009 17.1745 1.73508 17.0118 1.80332L17.685 2.98046H17.0787L16.3583 1.69308L16.7047 1.8978H15.9685V2.98046H15.4331ZM15.9685 1.42537H16.5315C16.6286 1.42537 16.7126 1.407 16.7835 1.37026C16.8543 1.33089 16.9095 1.27708 16.9488 1.20884C16.9882 1.1406 17.0079 1.06186 17.0079 0.972625C17.0079 0.880764 16.9882 0.802025 16.9488 0.73641C16.9095 0.66817 16.8543 0.615677 16.7835 0.578933C16.7126 0.539563 16.6286 0.519879 16.5315 0.519879H15.9685V1.42537Z" fill="#130C49"/>
<path d="M119.641 3.0275C119.491 3.0275 119.361 3.00257 119.251 2.9527C119.141 2.90283 119.056 2.83197 118.995 2.74011C118.935 2.64562 118.905 2.5367 118.905 2.41334C118.905 2.29523 118.931 2.19025 118.983 2.09839C119.036 2.0039 119.117 1.92516 119.227 1.86217C119.338 1.79918 119.477 1.75456 119.645 1.72832L120.346 1.61415V2.00784L119.743 2.1102C119.641 2.12857 119.565 2.16138 119.515 2.20862C119.465 2.25587 119.44 2.31754 119.44 2.39366C119.44 2.46715 119.468 2.5262 119.523 2.57082C119.581 2.61281 119.651 2.63381 119.735 2.63381C119.843 2.63381 119.937 2.6115 120.019 2.56688C120.103 2.51964 120.167 2.45534 120.212 2.37397C120.259 2.29261 120.283 2.20337 120.283 2.10626V1.55509C120.283 1.46323 120.246 1.38712 120.172 1.32675C120.101 1.26376 120.007 1.23226 119.889 1.23226C119.779 1.23226 119.68 1.26245 119.594 1.32281C119.51 1.38056 119.448 1.45798 119.409 1.55509L118.987 1.35037C119.029 1.23751 119.095 1.1404 119.184 1.05904C119.276 0.975052 119.384 0.909436 119.507 0.862193C119.63 0.81495 119.764 0.791328 119.909 0.791328C120.084 0.791328 120.239 0.824136 120.373 0.889752C120.507 0.952743 120.611 1.04198 120.684 1.15746C120.76 1.27032 120.798 1.40286 120.798 1.55509V2.98026H120.31V2.61413L120.42 2.60625C120.365 2.69811 120.3 2.77554 120.224 2.83853C120.147 2.8989 120.061 2.94614 119.964 2.98026C119.867 3.01176 119.759 3.0275 119.641 3.0275Z" fill="#130C49"/>
<path d="M118.349 3.00379C118.107 3.00379 117.92 2.93818 117.786 2.80695C117.655 2.67309 117.589 2.48543 117.589 2.24397V1.2991H117.219V0.838483H117.258C117.363 0.838483 117.445 0.810924 117.502 0.755807C117.56 0.70069 117.589 0.620639 117.589 0.515655V0.350304H118.105V0.838483H118.597V1.2991H118.105V2.21641C118.105 2.28727 118.116 2.34764 118.14 2.39751C118.166 2.44737 118.206 2.48543 118.258 2.51168C118.313 2.53792 118.383 2.55105 118.467 2.55105C118.485 2.55105 118.506 2.54973 118.53 2.54711C118.556 2.54448 118.581 2.54186 118.605 2.53924V2.98017C118.568 2.98542 118.526 2.99067 118.479 2.99592C118.431 3.00117 118.388 3.00379 118.349 3.00379Z" fill="#130C49"/>
<path d="M115.778 3.0275C115.628 3.0275 115.499 3.00257 115.388 2.9527C115.278 2.90283 115.193 2.83197 115.132 2.74011C115.072 2.64562 115.042 2.5367 115.042 2.41334C115.042 2.29523 115.068 2.19025 115.121 2.09839C115.173 2.0039 115.254 1.92516 115.365 1.86217C115.475 1.79918 115.614 1.75456 115.782 1.72832L116.483 1.61415V2.00784L115.88 2.1102C115.778 2.12857 115.702 2.16138 115.652 2.20862C115.602 2.25587 115.577 2.31754 115.577 2.39366C115.577 2.46715 115.605 2.5262 115.66 2.57082C115.718 2.61281 115.789 2.63381 115.873 2.63381C115.98 2.63381 116.075 2.6115 116.156 2.56688C116.24 2.51964 116.304 2.45534 116.349 2.37397C116.396 2.29261 116.42 2.20337 116.42 2.10626V1.55509C116.42 1.46323 116.383 1.38712 116.31 1.32675C116.239 1.26376 116.144 1.23226 116.026 1.23226C115.916 1.23226 115.817 1.26245 115.731 1.32281C115.647 1.38056 115.585 1.45798 115.546 1.55509L115.125 1.35037C115.167 1.23751 115.232 1.1404 115.321 1.05904C115.413 0.975052 115.521 0.909436 115.644 0.862193C115.768 0.81495 115.901 0.791328 116.046 0.791328C116.222 0.791328 116.376 0.824136 116.51 0.889752C116.644 0.952743 116.748 1.04198 116.821 1.15746C116.897 1.27032 116.936 1.40286 116.936 1.55509V2.98026H116.447V2.61413L116.558 2.60625C116.502 2.69811 116.437 2.77554 116.361 2.83853C116.285 2.8989 116.198 2.94614 116.101 2.98026C116.004 3.01176 115.896 3.0275 115.778 3.0275Z" fill="#130C49"/>
<path d="M112.264 2.98021V0.0471954H113.221C113.531 0.0471954 113.8 0.110186 114.028 0.236168C114.259 0.359525 114.437 0.531438 114.563 0.751906C114.689 0.969749 114.752 1.22302 114.752 1.51173C114.752 1.79782 114.689 2.0524 114.563 2.2755C114.437 2.49596 114.259 2.66919 114.028 2.79517C113.8 2.91853 113.531 2.98021 113.221 2.98021H112.264ZM112.8 2.50778H113.233C113.432 2.50778 113.604 2.46709 113.749 2.38573C113.895 2.30174 114.01 2.18626 114.091 2.03928C114.172 1.88968 114.213 1.71383 114.213 1.51173C114.213 1.30701 114.172 1.13116 114.091 0.984184C114.01 0.837206 113.895 0.723035 113.749 0.641672C113.604 0.560309 113.432 0.519627 113.233 0.519627H112.8V2.50778Z" fill="#130C49"/>
<path d="M109.872 3.0275C109.665 3.0275 109.48 2.97894 109.317 2.88183C109.154 2.7821 109.026 2.64693 108.931 2.47633C108.837 2.30573 108.789 2.11675 108.789 1.90941C108.789 1.69944 108.837 1.51047 108.931 1.34249C109.026 1.17452 109.154 1.04066 109.317 0.940926C109.482 0.84119 109.666 0.791322 109.868 0.791322C110.031 0.791322 110.175 0.82413 110.301 0.889746C110.43 0.952736 110.531 1.04197 110.604 1.15746L110.526 1.26375V0H111.041V2.98025H110.553V2.56688L110.608 2.66924C110.535 2.78472 110.432 2.87396 110.301 2.93695C110.17 2.99731 110.027 3.0275 109.872 3.0275ZM109.927 2.55507C110.045 2.55507 110.149 2.52751 110.238 2.47239C110.327 2.41727 110.397 2.34116 110.447 2.24405C110.499 2.14694 110.526 2.03539 110.526 1.90941C110.526 1.78605 110.499 1.67582 110.447 1.57871C110.397 1.47897 110.327 1.40155 110.238 1.34643C110.149 1.29131 110.045 1.26375 109.927 1.26375C109.812 1.26375 109.708 1.29262 109.616 1.35037C109.524 1.40548 109.452 1.4816 109.4 1.57871C109.35 1.67319 109.325 1.78343 109.325 1.90941C109.325 2.03539 109.35 2.14694 109.4 2.24405C109.452 2.34116 109.524 2.41727 109.616 2.47239C109.708 2.52751 109.812 2.55507 109.927 2.55507Z" fill="#130C49"/>
<path d="M107.481 3.0275C107.261 3.0275 107.068 2.97764 106.903 2.8779C106.737 2.77816 106.609 2.643 106.517 2.4724C106.425 2.3018 106.379 2.11282 106.379 1.90548C106.379 1.69026 106.425 1.49998 106.517 1.33462C106.611 1.16665 106.738 1.03411 106.899 0.936995C107.061 0.839884 107.242 0.791328 107.442 0.791328C107.61 0.791328 107.757 0.818887 107.883 0.874004C108.011 0.929121 108.12 1.00523 108.21 1.10235C108.299 1.19946 108.367 1.311 108.414 1.43698C108.462 1.56034 108.485 1.6942 108.485 1.83855C108.485 1.8753 108.483 1.91335 108.477 1.95272C108.475 1.99209 108.468 2.02621 108.458 2.05508H106.804V1.66139H108.166L107.922 1.84643C107.946 1.72569 107.939 1.61808 107.902 1.5236C107.868 1.42911 107.811 1.35431 107.729 1.29919C107.651 1.24408 107.555 1.21652 107.442 1.21652C107.334 1.21652 107.238 1.24408 107.154 1.29919C107.07 1.35168 107.006 1.43042 106.962 1.53541C106.92 1.63777 106.904 1.76244 106.914 1.90942C106.904 2.04065 106.921 2.15744 106.966 2.2598C107.013 2.35954 107.081 2.43696 107.17 2.49208C107.262 2.5472 107.367 2.57476 107.485 2.57476C107.603 2.57476 107.703 2.54982 107.784 2.49996C107.868 2.45009 107.934 2.38316 107.981 2.29917L108.399 2.50389C108.357 2.60625 108.291 2.6968 108.202 2.77554C108.112 2.85428 108.006 2.91596 107.883 2.96058C107.762 3.00519 107.628 3.0275 107.481 3.0275Z" fill="#130C49"/>
<path d="M105.257 3.0275C105.029 3.0275 104.83 2.9737 104.659 2.86609C104.491 2.75586 104.376 2.60756 104.313 2.42122L104.698 2.23618C104.754 2.35691 104.83 2.4514 104.927 2.51964C105.027 2.58788 105.137 2.622 105.257 2.622C105.352 2.622 105.427 2.601 105.482 2.55901C105.537 2.51702 105.565 2.4619 105.565 2.39366C105.565 2.35166 105.553 2.31754 105.529 2.2913C105.508 2.26243 105.478 2.23881 105.439 2.22043C105.402 2.19944 105.361 2.18238 105.317 2.16925L104.966 2.07083C104.785 2.01834 104.647 1.93829 104.553 1.83068C104.461 1.72307 104.415 1.59577 104.415 1.4488C104.415 1.31756 104.448 1.20339 104.513 1.10628C104.582 1.00655 104.675 0.929121 104.793 0.874004C104.914 0.818887 105.051 0.791328 105.206 0.791328C105.408 0.791328 105.587 0.839884 105.742 0.936995C105.897 1.03411 106.007 1.17059 106.072 1.34644L105.679 1.53147C105.642 1.43436 105.58 1.35693 105.494 1.29919C105.407 1.24145 105.31 1.21258 105.202 1.21258C105.116 1.21258 105.048 1.23226 104.998 1.27163C104.948 1.311 104.923 1.36218 104.923 1.42517C104.923 1.46454 104.933 1.49866 104.954 1.52753C104.975 1.5564 105.004 1.58003 105.041 1.5984C105.08 1.61677 105.125 1.63383 105.175 1.64958L105.517 1.75194C105.693 1.80443 105.828 1.88317 105.923 1.98815C106.02 2.09314 106.068 2.22175 106.068 2.37397C106.068 2.50258 106.034 2.61675 105.966 2.71649C105.898 2.8136 105.803 2.88971 105.683 2.94483C105.562 2.99994 105.42 3.0275 105.257 3.0275Z" fill="#130C49"/>
<path d="M102.971 2.98024V0.838548H103.455V1.31492L103.416 1.24405C103.466 1.08395 103.543 0.972403 103.648 0.909412C103.756 0.846421 103.884 0.814926 104.034 0.814926H104.16V1.27161H103.975C103.828 1.27161 103.71 1.31754 103.621 1.4094C103.531 1.49864 103.487 1.62462 103.487 1.78735V2.98024H102.971Z" fill="#130C49"/>
<path d="M101.337 3.0275C101.187 3.0275 101.057 3.00257 100.947 2.9527C100.837 2.90283 100.752 2.83197 100.691 2.74011C100.631 2.64562 100.601 2.5367 100.601 2.41334C100.601 2.29523 100.627 2.19025 100.679 2.09839C100.732 2.0039 100.813 1.92516 100.923 1.86217C101.034 1.79918 101.173 1.75456 101.341 1.72832L102.042 1.61415V2.00784L101.439 2.1102C101.337 2.12857 101.261 2.16138 101.211 2.20862C101.161 2.25587 101.136 2.31754 101.136 2.39366C101.136 2.46715 101.164 2.5262 101.219 2.57082C101.276 2.61281 101.347 2.63381 101.431 2.63381C101.539 2.63381 101.633 2.6115 101.715 2.56688C101.799 2.51964 101.863 2.45534 101.908 2.37397C101.955 2.29261 101.979 2.20337 101.979 2.10626V1.55509C101.979 1.46323 101.942 1.38712 101.868 1.32675C101.797 1.26376 101.703 1.23226 101.585 1.23226C101.475 1.23226 101.376 1.26245 101.29 1.32281C101.206 1.38056 101.144 1.45798 101.105 1.55509L100.683 1.35037C100.725 1.23751 100.791 1.1404 100.88 1.05904C100.972 0.975052 101.08 0.909436 101.203 0.862193C101.326 0.81495 101.46 0.791328 101.605 0.791328C101.78 0.791328 101.935 0.824136 102.069 0.889752C102.203 0.952743 102.307 1.04198 102.38 1.15746C102.456 1.27032 102.494 1.40286 102.494 1.55509V2.98026H102.006V2.61413L102.116 2.60625C102.061 2.69811 101.996 2.77554 101.919 2.83853C101.843 2.8989 101.757 2.94614 101.66 2.98026C101.563 3.01176 101.455 3.0275 101.337 3.0275Z" fill="#130C49"/>
<path d="M98.3044 2.98046V0.0474472H99.3989C99.5984 0.0474472 99.7742 0.0841919 99.9265 0.157681C100.081 0.228546 100.202 0.333531 100.289 0.472636C100.375 0.609116 100.419 0.775779 100.419 0.972625C100.419 1.16685 100.374 1.33351 100.285 1.47262C100.198 1.6091 100.079 1.71408 99.9265 1.78757C99.7742 1.86106 99.5984 1.8978 99.3989 1.8978H98.8399V2.98046H98.3044ZM98.8399 1.42537H99.4068C99.5039 1.42537 99.5879 1.407 99.6587 1.37026C99.7296 1.33089 99.7847 1.27708 99.8241 1.20884C99.8635 1.1406 99.8832 1.06186 99.8832 0.972625C99.8832 0.880764 99.8635 0.802025 99.8241 0.73641C99.7847 0.66817 99.7296 0.615677 99.6587 0.578933C99.5879 0.539563 99.5039 0.519879 99.4068 0.519879H98.8399V1.42537Z" fill="#130C49"/>
<path d="M207.837 3.02762C207.687 3.02762 207.557 3.00268 207.447 2.95282C207.337 2.90295 207.252 2.83208 207.191 2.74022C207.131 2.64574 207.101 2.53681 207.101 2.41346C207.101 2.29535 207.127 2.19036 207.179 2.0985C207.232 2.00402 207.313 1.92528 207.423 1.86229C207.534 1.7993 207.673 1.75468 207.841 1.72843L208.542 1.61426V2.00795L207.939 2.11031C207.837 2.12869 207.761 2.16149 207.711 2.20874C207.661 2.25598 207.636 2.31766 207.636 2.39377C207.636 2.46726 207.664 2.52632 207.719 2.57093C207.776 2.61293 207.847 2.63392 207.931 2.63392C208.039 2.63392 208.133 2.61162 208.215 2.567C208.299 2.51975 208.363 2.45545 208.408 2.37409C208.455 2.29272 208.479 2.20349 208.479 2.10638V1.55521C208.479 1.46335 208.442 1.38723 208.368 1.32687C208.297 1.26387 208.203 1.23238 208.085 1.23238C207.975 1.23238 207.876 1.26256 207.79 1.32293C207.706 1.38067 207.644 1.4581 207.605 1.55521L207.183 1.35049C207.225 1.23763 207.291 1.14052 207.38 1.05915C207.472 0.975166 207.58 0.909551 207.703 0.862307C207.826 0.815064 207.96 0.791443 208.105 0.791443C208.28 0.791443 208.435 0.824251 208.569 0.889866C208.703 0.952857 208.807 1.04209 208.88 1.15758C208.956 1.27044 208.994 1.40298 208.994 1.55521V2.98037H208.506V2.61424L208.616 2.60637C208.561 2.69823 208.496 2.77565 208.419 2.83864C208.343 2.89901 208.257 2.94625 208.16 2.98037C208.063 3.01187 207.955 3.02762 207.837 3.02762Z" fill="#130C49"/>
<path d="M206.545 3.00379C206.303 3.00379 206.115 2.93818 205.982 2.80695C205.85 2.67309 205.785 2.48543 205.785 2.24397V1.2991H205.415V0.838483H205.454C205.559 0.838483 205.64 0.810924 205.698 0.755807C205.756 0.70069 205.785 0.620639 205.785 0.515655V0.350304H206.3V0.838483H206.793V1.2991H206.3V2.21641C206.3 2.28727 206.312 2.34764 206.336 2.39751C206.362 2.44737 206.402 2.48543 206.454 2.51168C206.509 2.53792 206.579 2.55105 206.663 2.55105C206.681 2.55105 206.702 2.54973 206.726 2.54711C206.752 2.54448 206.777 2.54186 206.8 2.53924V2.98017C206.764 2.98542 206.722 2.99067 206.674 2.99592C206.627 3.00117 206.584 3.00379 206.545 3.00379Z" fill="#130C49"/>
<path d="M203.972 3.02762C203.822 3.02762 203.693 3.00268 203.582 2.95282C203.472 2.90295 203.387 2.83208 203.326 2.74022C203.266 2.64574 203.236 2.53681 203.236 2.41346C203.236 2.29535 203.262 2.19036 203.315 2.0985C203.367 2.00402 203.448 1.92528 203.559 1.86229C203.669 1.7993 203.808 1.75468 203.976 1.72843L204.677 1.61426V2.00795L204.074 2.11031C203.972 2.12869 203.896 2.16149 203.846 2.20874C203.796 2.25598 203.771 2.31766 203.771 2.39377C203.771 2.46726 203.799 2.52632 203.854 2.57093C203.912 2.61293 203.983 2.63392 204.067 2.63392C204.174 2.63392 204.269 2.61162 204.35 2.567C204.434 2.51975 204.498 2.45545 204.543 2.37409C204.59 2.29272 204.614 2.20349 204.614 2.10638V1.55521C204.614 1.46335 204.577 1.38723 204.504 1.32687C204.433 1.26387 204.338 1.23238 204.22 1.23238C204.11 1.23238 204.011 1.26256 203.925 1.32293C203.841 1.38067 203.779 1.4581 203.74 1.55521L203.319 1.35049C203.361 1.23763 203.426 1.14052 203.515 1.05915C203.607 0.975166 203.715 0.909551 203.838 0.862307C203.962 0.815064 204.095 0.791443 204.24 0.791443C204.416 0.791443 204.57 0.824251 204.704 0.889866C204.838 0.952857 204.942 1.04209 205.015 1.15758C205.091 1.27044 205.13 1.40298 205.13 1.55521V2.98037H204.641V2.61424L204.752 2.60637C204.696 2.69823 204.631 2.77565 204.555 2.83864C204.479 2.89901 204.392 2.94625 204.295 2.98037C204.198 3.01187 204.09 3.02762 203.972 3.02762Z" fill="#130C49"/>
<path d="M200.46 2.98021V0.0471954H201.417C201.726 0.0471954 201.995 0.110186 202.224 0.236168C202.455 0.359525 202.633 0.531438 202.759 0.751906C202.885 0.969749 202.948 1.22302 202.948 1.51173C202.948 1.79782 202.885 2.0524 202.759 2.2755C202.633 2.49596 202.455 2.66919 202.224 2.79517C201.995 2.91853 201.726 2.98021 201.417 2.98021H200.46ZM200.995 2.50778H201.428C201.628 2.50778 201.8 2.46709 201.944 2.38573C202.091 2.30174 202.205 2.18626 202.287 2.03928C202.368 1.88968 202.409 1.71383 202.409 1.51173C202.409 1.30701 202.368 1.13116 202.287 0.984184C202.205 0.837206 202.091 0.723035 201.944 0.641672C201.8 0.560309 201.628 0.519627 201.428 0.519627H200.995V2.50778Z" fill="#130C49"/>
<path d="M198.068 3.0275C197.861 3.0275 197.676 2.97894 197.513 2.88183C197.35 2.7821 197.222 2.64693 197.127 2.47633C197.033 2.30573 196.985 2.11675 196.985 1.90941C196.985 1.69944 197.033 1.51047 197.127 1.34249C197.222 1.17452 197.35 1.04066 197.513 0.940926C197.678 0.84119 197.862 0.791322 198.064 0.791322C198.227 0.791322 198.371 0.82413 198.497 0.889746C198.626 0.952736 198.727 1.04197 198.8 1.15746L198.722 1.26375V0H199.237V2.98025H198.749V2.56688L198.804 2.66924C198.731 2.78472 198.628 2.87396 198.497 2.93695C198.366 2.99731 198.223 3.0275 198.068 3.0275ZM198.123 2.55507C198.241 2.55507 198.345 2.52751 198.434 2.47239C198.523 2.41727 198.593 2.34116 198.643 2.24405C198.695 2.14694 198.722 2.03539 198.722 1.90941C198.722 1.78605 198.695 1.67582 198.643 1.57871C198.593 1.47897 198.523 1.40155 198.434 1.34643C198.345 1.29131 198.241 1.26375 198.123 1.26375C198.008 1.26375 197.904 1.29262 197.812 1.35037C197.72 1.40548 197.648 1.4816 197.596 1.57871C197.546 1.67319 197.521 1.78343 197.521 1.90941C197.521 2.03539 197.546 2.14694 197.596 2.24405C197.648 2.34116 197.72 2.41727 197.812 2.47239C197.904 2.52751 198.008 2.55507 198.123 2.55507Z" fill="#130C49"/>
<path d="M195.677 3.02762C195.457 3.02762 195.264 2.97775 195.098 2.87801C194.933 2.77828 194.804 2.64311 194.713 2.47251C194.621 2.30191 194.575 2.11294 194.575 1.90559C194.575 1.69037 194.621 1.50009 194.713 1.33474C194.807 1.16676 194.934 1.03422 195.095 0.937109C195.257 0.839998 195.438 0.791443 195.638 0.791443C195.806 0.791443 195.953 0.819001 196.079 0.874118C196.207 0.929235 196.316 1.00535 196.406 1.10246C196.495 1.19957 196.563 1.31112 196.61 1.4371C196.657 1.56046 196.681 1.69431 196.681 1.83867C196.681 1.87541 196.678 1.91347 196.673 1.95284C196.671 1.99221 196.664 2.02633 196.654 2.0552H195V1.6615H196.362L196.118 1.84654C196.142 1.72581 196.135 1.6182 196.098 1.52371C196.064 1.42923 196.007 1.35442 195.925 1.29931C195.846 1.24419 195.751 1.21663 195.638 1.21663C195.53 1.21663 195.434 1.24419 195.35 1.29931C195.266 1.3518 195.202 1.43054 195.157 1.53552C195.116 1.63788 195.1 1.76255 195.11 1.90953C195.1 2.04076 195.117 2.15756 195.161 2.25992C195.209 2.35965 195.277 2.43708 195.366 2.4922C195.458 2.54731 195.563 2.57487 195.681 2.57487C195.799 2.57487 195.899 2.54994 195.98 2.50007C196.064 2.4502 196.13 2.38327 196.177 2.29929L196.594 2.50401C196.552 2.60637 196.487 2.69692 196.398 2.77565C196.308 2.85439 196.202 2.91607 196.079 2.96069C195.958 3.00531 195.824 3.02762 195.677 3.02762Z" fill="#130C49"/>
<path d="M193.453 3.02762C193.225 3.02762 193.025 2.97381 192.855 2.8662C192.687 2.75597 192.571 2.60768 192.508 2.42133L192.894 2.2363C192.949 2.35703 193.025 2.45151 193.123 2.51975C193.222 2.58799 193.333 2.62211 193.453 2.62211C193.548 2.62211 193.623 2.60112 193.678 2.55912C193.733 2.51713 193.76 2.46201 193.76 2.39377C193.76 2.35178 193.749 2.31766 193.725 2.29141C193.704 2.26254 193.674 2.23892 193.634 2.22055C193.598 2.19955 193.557 2.18249 193.512 2.16937L193.162 2.07094C192.981 2.01845 192.843 1.9384 192.749 1.83079C192.657 1.72318 192.611 1.59589 192.611 1.44891C192.611 1.31768 192.644 1.20351 192.709 1.1064C192.777 1.00666 192.871 0.929235 192.989 0.874118C193.109 0.819001 193.247 0.791443 193.402 0.791443C193.604 0.791443 193.783 0.839998 193.938 0.937109C194.092 1.03422 194.203 1.1707 194.268 1.34655L193.875 1.53159C193.838 1.43447 193.776 1.35705 193.69 1.29931C193.603 1.24156 193.506 1.21269 193.398 1.21269C193.312 1.21269 193.243 1.23238 193.193 1.27175C193.144 1.31112 193.119 1.3623 193.119 1.42529C193.119 1.46466 193.129 1.49878 193.15 1.52765C193.171 1.55652 193.2 1.58014 193.237 1.59851C193.276 1.61689 193.321 1.63395 193.371 1.64969L193.713 1.75205C193.889 1.80455 194.024 1.88328 194.119 1.98827C194.216 2.09325 194.264 2.22186 194.264 2.37409C194.264 2.50269 194.23 2.61686 194.162 2.7166C194.094 2.81371 193.999 2.88983 193.878 2.94494C193.758 3.00006 193.616 3.02762 193.453 3.02762Z" fill="#130C49"/>
<path d="M190.305 2.98037V0.838686H190.789V1.25994L190.75 1.18514C190.8 1.05653 190.881 0.959419 190.994 0.893803C191.109 0.825563 191.243 0.791443 191.395 0.791443C191.553 0.791443 191.692 0.825563 191.813 0.893803C191.936 0.962043 192.032 1.05784 192.1 1.1812C192.168 1.30193 192.202 1.44235 192.202 1.60245V2.98037H191.687V1.72449C191.687 1.63001 191.668 1.54865 191.632 1.48041C191.595 1.41217 191.544 1.35967 191.478 1.32293C191.415 1.28356 191.34 1.26387 191.254 1.26387C191.17 1.26387 191.095 1.28356 191.029 1.32293C190.964 1.35967 190.912 1.41217 190.876 1.48041C190.839 1.54865 190.821 1.63001 190.821 1.72449V2.98037H190.305Z" fill="#130C49"/>
<path d="M188.671 3.02762C188.521 3.02762 188.391 3.00268 188.281 2.95282C188.171 2.90295 188.085 2.83208 188.025 2.74022C187.965 2.64574 187.934 2.53681 187.934 2.41346C187.934 2.29535 187.961 2.19036 188.013 2.0985C188.066 2.00402 188.147 1.92528 188.257 1.86229C188.367 1.7993 188.506 1.75468 188.674 1.72843L189.375 1.61426V2.00795L188.773 2.11031C188.671 2.12869 188.594 2.16149 188.545 2.20874C188.495 2.25598 188.47 2.31766 188.47 2.39377C188.47 2.46726 188.497 2.52632 188.552 2.57093C188.61 2.61293 188.681 2.63392 188.765 2.63392C188.873 2.63392 188.967 2.61162 189.048 2.567C189.132 2.51975 189.197 2.45545 189.241 2.37409C189.289 2.29272 189.312 2.20349 189.312 2.10638V1.55521C189.312 1.46335 189.276 1.38723 189.202 1.32687C189.131 1.26387 189.037 1.23238 188.919 1.23238C188.808 1.23238 188.71 1.26256 188.623 1.32293C188.539 1.38067 188.478 1.4581 188.438 1.55521L188.017 1.35049C188.059 1.23763 188.125 1.14052 188.214 1.05915C188.306 0.975166 188.413 0.909551 188.537 0.862307C188.66 0.815064 188.794 0.791443 188.938 0.791443C189.114 0.791443 189.269 0.824251 189.403 0.889866C189.537 0.952857 189.64 1.04209 189.714 1.15758C189.79 1.27044 189.828 1.40298 189.828 1.55521V2.98037H189.34V2.61424L189.45 2.60637C189.395 2.69823 189.329 2.77565 189.253 2.83864C189.177 2.89901 189.09 2.94625 188.993 2.98037C188.896 3.01187 188.789 3.02762 188.671 3.02762Z" fill="#130C49"/>
<path d="M186.635 3.02762C186.414 3.02762 186.221 2.97775 186.056 2.87801C185.891 2.77828 185.762 2.64311 185.67 2.47251C185.578 2.30191 185.532 2.11294 185.532 1.90559C185.532 1.69037 185.578 1.50009 185.67 1.33474C185.765 1.16676 185.892 1.03422 186.052 0.937109C186.215 0.839998 186.396 0.791443 186.595 0.791443C186.763 0.791443 186.91 0.819001 187.036 0.874118C187.165 0.929235 187.274 1.00535 187.363 1.10246C187.452 1.19957 187.521 1.31112 187.568 1.4371C187.615 1.56046 187.639 1.69431 187.639 1.83867C187.639 1.87541 187.636 1.91347 187.631 1.95284C187.628 1.99221 187.622 2.02633 187.611 2.0552H185.958V1.6615H187.32L187.076 1.84654C187.099 1.72581 187.093 1.6182 187.056 1.52371C187.022 1.42923 186.964 1.35442 186.883 1.29931C186.804 1.24419 186.708 1.21663 186.595 1.21663C186.488 1.21663 186.392 1.24419 186.308 1.29931C186.224 1.3518 186.16 1.43054 186.115 1.53552C186.073 1.63788 186.057 1.76255 186.068 1.90953C186.057 2.04076 186.074 2.15756 186.119 2.25992C186.166 2.35965 186.235 2.43708 186.324 2.4922C186.416 2.54731 186.521 2.57487 186.639 2.57487C186.757 2.57487 186.857 2.54994 186.938 2.50007C187.022 2.4502 187.088 2.38327 187.135 2.29929L187.552 2.50401C187.51 2.60637 187.445 2.69692 187.355 2.77565C187.266 2.85439 187.16 2.91607 187.036 2.96069C186.916 3.00531 186.782 3.02762 186.635 3.02762Z" fill="#130C49"/>
<path d="M184.625 2.98025V0H185.141V2.98025H184.625Z" fill="#130C49"/>
<path d="M182.999 3.0275C182.789 3.0275 182.595 2.98944 182.416 2.91333C182.24 2.83721 182.085 2.73092 181.951 2.59444C181.82 2.45796 181.718 2.29785 181.644 2.11413C181.571 1.93041 181.534 1.72962 181.534 1.51178C181.534 1.29394 181.57 1.09315 181.64 0.90943C181.714 0.723082 181.816 0.562981 181.948 0.429125C182.081 0.292645 182.238 0.18766 182.416 0.114171C182.595 0.0380569 182.789 0 182.999 0C183.209 0 183.396 0.0354324 183.562 0.106297C183.73 0.177162 183.871 0.271648 183.987 0.389756C184.102 0.505239 184.185 0.632533 184.235 0.771638L183.755 0.996043C183.699 0.849064 183.606 0.728332 183.475 0.633845C183.344 0.536734 183.185 0.488179 182.999 0.488179C182.815 0.488179 182.652 0.531485 182.511 0.618098C182.371 0.70471 182.263 0.82413 182.184 0.976358C182.108 1.12859 182.07 1.30706 182.07 1.51178C182.07 1.7165 182.108 1.89629 182.184 2.05114C182.263 2.20337 182.371 2.32279 182.511 2.4094C182.652 2.49601 182.815 2.53932 182.999 2.53932C183.185 2.53932 183.344 2.49207 183.475 2.39759C183.606 2.30048 183.699 2.17843 183.755 2.03145L184.235 2.25586C184.185 2.39496 184.102 2.52357 183.987 2.64168C183.871 2.75716 183.73 2.85034 183.562 2.9212C183.396 2.99207 183.209 3.0275 182.999 3.0275Z" fill="#130C49"/>
<path d="M75.8857 26.9182C75.7312 26.9182 75.5983 26.8979 75.487 26.8574C75.3764 26.8169 75.2861 26.7633 75.2161 26.6967C75.146 26.63 75.0937 26.557 75.0591 26.4777L75.3844 26.3435C75.4072 26.3807 75.4376 26.4199 75.4756 26.4612C75.5144 26.5034 75.5667 26.5393 75.6325 26.5688C75.6992 26.5984 75.7848 26.6131 75.8895 26.6131C76.0329 26.6131 76.1515 26.5781 76.2451 26.5081C76.3388 26.4389 76.3856 26.3283 76.3856 26.1764V25.7942H76.3616C76.3388 25.8355 76.3059 25.8815 76.2629 25.9322C76.2207 25.9828 76.1624 26.0267 76.0882 26.0638C76.0139 26.1009 75.9173 26.1195 75.7983 26.1195C75.6448 26.1195 75.5064 26.0836 75.3832 26.0119C75.2608 25.9393 75.1638 25.8326 75.092 25.6917C75.0212 25.5499 74.9857 25.3756 74.9857 25.1689C74.9857 24.9622 75.0207 24.785 75.0908 24.6373C75.1617 24.4896 75.2587 24.3765 75.3819 24.2981C75.5051 24.2187 75.6448 24.1791 75.8009 24.1791C75.9215 24.1791 76.019 24.1993 76.0933 24.2398C76.1675 24.2795 76.2253 24.3259 76.2667 24.3791C76.3089 24.4322 76.3413 24.4791 76.3641 24.5196H76.392V24.2044H76.7628V26.1916C76.7628 26.3587 76.724 26.4958 76.6464 26.603C76.5688 26.7102 76.4637 26.7895 76.3312 26.841C76.1996 26.8924 76.0511 26.9182 75.8857 26.9182ZM75.8819 25.8056C75.9907 25.8056 76.0827 25.7803 76.1578 25.7296C76.2338 25.6782 76.2911 25.6047 76.3299 25.5094C76.3696 25.4132 76.3894 25.298 76.3894 25.1638C76.3894 25.033 76.37 24.9179 76.3312 24.8183C76.2924 24.7187 76.2354 24.6411 76.1603 24.5854C76.0852 24.5289 75.9924 24.5006 75.8819 24.5006C75.768 24.5006 75.673 24.5301 75.5971 24.5892C75.5211 24.6474 75.4638 24.7267 75.4249 24.8271C75.387 24.9276 75.368 25.0398 75.368 25.1638C75.368 25.2913 75.3874 25.4031 75.4262 25.4993C75.465 25.5955 75.5224 25.6706 75.5983 25.7246C75.6751 25.7786 75.7696 25.8056 75.8819 25.8056Z" fill="#130C49"/>
<path d="M73.358 24.9942V26.1486H72.9795V24.2044H73.3428V24.5208H73.3668C73.4115 24.4179 73.4816 24.3352 73.5769 24.2727C73.6731 24.2103 73.7942 24.1791 73.9402 24.1791C74.0727 24.1791 74.1887 24.2069 74.2883 24.2626C74.3879 24.3175 74.4651 24.3993 74.5199 24.5082C74.5748 24.617 74.6022 24.7516 74.6022 24.912V26.1486H74.2237V24.9575C74.2237 24.8166 74.187 24.7065 74.1136 24.6272C74.0402 24.547 73.9394 24.5069 73.8111 24.5069C73.7233 24.5069 73.6453 24.5259 73.5769 24.5639C73.5094 24.6018 73.4558 24.6575 73.4162 24.731C73.3774 24.8035 73.358 24.8913 73.358 24.9942Z" fill="#130C49"/>
<path d="M72.1304 26.1485V24.2043H72.5088V26.1485H72.1304ZM72.3215 23.9044C72.2557 23.9044 72.1991 23.8824 72.1519 23.8385C72.1055 23.7938 72.0823 23.7407 72.0823 23.6791C72.0823 23.6166 72.1055 23.5634 72.1519 23.5196C72.1991 23.4748 72.2557 23.4525 72.3215 23.4525C72.3873 23.4525 72.4434 23.4748 72.4898 23.5196C72.5371 23.5634 72.5607 23.6166 72.5607 23.6791C72.5607 23.7407 72.5371 23.7938 72.4898 23.8385C72.4434 23.8824 72.3873 23.9044 72.3215 23.9044Z" fill="#130C49"/>
<path d="M71.7162 24.6791L71.3732 24.7398C71.3588 24.6959 71.336 24.6542 71.3048 24.6145C71.2744 24.5748 71.2331 24.5424 71.1808 24.517C71.1284 24.4917 71.063 24.4791 70.9846 24.4791C70.8774 24.4791 70.788 24.5031 70.7162 24.5512C70.6445 24.5985 70.6086 24.6596 70.6086 24.7347C70.6086 24.7997 70.6327 24.852 70.6808 24.8917C70.7289 24.9314 70.8065 24.9639 70.9137 24.9892L71.2225 25.06C71.4014 25.1014 71.5347 25.1651 71.6225 25.2512C71.7103 25.3372 71.7541 25.4491 71.7541 25.5866C71.7541 25.7031 71.7204 25.8068 71.6529 25.898C71.5862 25.9883 71.493 26.0591 71.3732 26.1106C71.2542 26.1621 71.1162 26.1878 70.9592 26.1878C70.7415 26.1878 70.5639 26.1414 70.4264 26.0486C70.2888 25.9549 70.2044 25.822 70.1732 25.6499L70.539 25.5942C70.5618 25.6896 70.6086 25.7617 70.6795 25.8106C70.7504 25.8587 70.8428 25.8828 70.9567 25.8828C71.0808 25.8828 71.1799 25.8571 71.2542 25.8056C71.3284 25.7533 71.3656 25.6895 71.3656 25.6144C71.3656 25.5537 71.3428 25.5026 71.2972 25.4613C71.2525 25.4199 71.1837 25.3887 71.0909 25.3676L70.7618 25.2955C70.5804 25.2541 70.4462 25.1883 70.3593 25.098C70.2732 25.0077 70.2302 24.8934 70.2302 24.755C70.2302 24.6402 70.2622 24.5398 70.3264 24.4538C70.3905 24.3677 70.4791 24.3006 70.5922 24.2525C70.7053 24.2036 70.8348 24.1791 70.9808 24.1791C71.1909 24.1791 71.3563 24.2247 71.4769 24.3158C71.5976 24.4061 71.6774 24.5272 71.7162 24.6791Z" fill="#130C49"/>
<path d="M68.9308 26.1486V24.2044H69.2966V24.5132H69.3168C69.3523 24.4086 69.4147 24.3263 69.5042 24.2664C69.5945 24.2056 69.6966 24.1753 69.8105 24.1753C69.8341 24.1753 69.862 24.1761 69.894 24.1778C69.9269 24.1795 69.9527 24.1816 69.9712 24.1841V24.5461C69.956 24.5419 69.929 24.5373 69.8902 24.5322C69.8514 24.5263 69.8126 24.5233 69.7738 24.5233C69.6843 24.5233 69.6046 24.5423 69.5346 24.5803C69.4654 24.6174 69.4105 24.6693 69.37 24.736C69.3295 24.8018 69.3092 24.8769 69.3092 24.9613V26.1486H68.9308Z" fill="#130C49"/>
<path d="M67.5062 26.1916C67.383 26.1916 67.2716 26.1688 67.172 26.1233C67.0724 26.0769 66.9935 26.0098 66.9353 25.922C66.8779 25.8343 66.8492 25.7267 66.8492 25.5993C66.8492 25.4896 66.8703 25.3993 66.9125 25.3284C66.9547 25.2575 67.0117 25.2014 67.0834 25.16C67.1551 25.1187 67.2353 25.0875 67.3239 25.0664C67.4125 25.0453 67.5028 25.0292 67.5948 25.0183C67.7112 25.0048 67.8057 24.9938 67.8783 24.9854C67.9509 24.9761 68.0036 24.9613 68.0365 24.9411C68.0694 24.9208 68.0859 24.8879 68.0859 24.8423V24.8335C68.0859 24.7229 68.0547 24.6373 67.9922 24.5765C67.9306 24.5158 67.8386 24.4854 67.7163 24.4854C67.5889 24.4854 67.4884 24.5137 67.415 24.5702C67.3425 24.6259 67.2923 24.6879 67.2644 24.7563L66.9087 24.6753C66.9509 24.5571 67.0125 24.4618 67.0935 24.3892C67.1754 24.3158 67.2695 24.2626 67.3758 24.2297C67.4821 24.196 67.5939 24.1791 67.7112 24.1791C67.7889 24.1791 67.8711 24.1884 67.958 24.2069C68.0458 24.2247 68.1277 24.2576 68.2036 24.3057C68.2804 24.3538 68.3433 24.4225 68.3922 24.512C68.4411 24.6006 68.4656 24.7158 68.4656 24.8575V26.1486H68.096V25.8828H68.0808C68.0564 25.9317 68.0196 25.9798 67.9707 26.0271C67.9218 26.0743 67.8589 26.1136 67.7821 26.1448C67.7053 26.176 67.6133 26.1916 67.5062 26.1916ZM67.5884 25.8879C67.6931 25.8879 67.7825 25.8672 67.8568 25.8258C67.9319 25.7845 67.9888 25.7305 68.0277 25.6638C68.0673 25.5963 68.0872 25.5242 68.0872 25.4474V25.1968C68.0736 25.2103 68.0475 25.2229 68.0087 25.2347C67.9707 25.2457 67.9272 25.2554 67.8783 25.2638C67.8294 25.2714 67.7817 25.2786 67.7353 25.2854C67.6889 25.2913 67.65 25.2963 67.6188 25.3005C67.5454 25.3098 67.4783 25.3254 67.4176 25.3474C67.3577 25.3693 67.3096 25.401 67.2733 25.4423C67.2378 25.4828 67.2201 25.5368 67.2201 25.6043C67.2201 25.698 67.2547 25.7689 67.3239 25.817C67.3931 25.8642 67.4813 25.8879 67.5884 25.8879Z" fill="#130C49"/>
<path d="M64.7476 26.1486V23.5563H65.6716C65.8732 23.5563 66.0403 23.593 66.1728 23.6664C66.3053 23.7398 66.4044 23.8402 66.4702 23.9677C66.5361 24.0942 66.569 24.2369 66.569 24.3955C66.569 24.555 66.5356 24.6984 66.469 24.8258C66.4032 24.9524 66.3036 25.0528 66.1703 25.1271C66.0378 25.2005 65.8711 25.2372 65.6703 25.2372H65.0349V24.9056H65.6349C65.7623 24.9056 65.8656 24.8837 65.945 24.8398C66.0243 24.795 66.0825 24.7343 66.1196 24.6575C66.1568 24.5807 66.1753 24.4934 66.1753 24.3955C66.1753 24.2976 66.1568 24.2107 66.1196 24.1347C66.0825 24.0588 66.0239 23.9993 65.9437 23.9563C65.8644 23.9132 65.7597 23.8917 65.6298 23.8917H65.1387V26.1486H64.7476Z" fill="#130C49"/>
<path d="M62.3885 26.1916C62.2653 26.1916 62.1539 26.1688 62.0543 26.1233C61.9548 26.0769 61.8759 26.0098 61.8176 25.922C61.7603 25.8343 61.7316 25.7267 61.7316 25.5993C61.7316 25.4896 61.7527 25.3993 61.7949 25.3284C61.837 25.2575 61.894 25.2014 61.9657 25.16C62.0375 25.1187 62.1176 25.0875 62.2062 25.0664C62.2948 25.0453 62.3851 25.0292 62.4771 25.0183C62.5935 25.0048 62.6881 24.9938 62.7606 24.9854C62.8332 24.9761 62.8859 24.9613 62.9188 24.9411C62.9518 24.9208 62.9682 24.8879 62.9682 24.8423V24.8335C62.9682 24.7229 62.937 24.6373 62.8745 24.5765C62.8129 24.5158 62.721 24.4854 62.5986 24.4854C62.4712 24.4854 62.3708 24.5137 62.2974 24.5702C62.2248 24.6259 62.1746 24.6879 62.1467 24.7563L61.7911 24.6753C61.8332 24.5571 61.8948 24.4618 61.9759 24.3892C62.0577 24.3158 62.1518 24.2626 62.2581 24.2297C62.3644 24.196 62.4763 24.1791 62.5935 24.1791C62.6712 24.1791 62.7535 24.1884 62.8404 24.2069C62.9281 24.2247 63.01 24.2576 63.0859 24.3057C63.1627 24.3538 63.2256 24.4225 63.2745 24.512C63.3235 24.6006 63.3479 24.7158 63.3479 24.8575V26.1486H62.9783V25.8828H62.9631C62.9387 25.9317 62.902 25.9798 62.853 26.0271C62.8041 26.0743 62.7412 26.1136 62.6644 26.1448C62.5876 26.176 62.4957 26.1916 62.3885 26.1916ZM62.4708 25.8879C62.5754 25.8879 62.6648 25.8672 62.7391 25.8258C62.8142 25.7845 62.8712 25.7305 62.91 25.6638C62.9496 25.5963 62.9695 25.5242 62.9695 25.4474V25.1968C62.956 25.2103 62.9298 25.2229 62.891 25.2347C62.853 25.2457 62.8096 25.2554 62.7606 25.2638C62.7117 25.2714 62.664 25.2786 62.6176 25.2854C62.5712 25.2913 62.5324 25.2963 62.5011 25.3005C62.4277 25.3098 62.3606 25.3254 62.2999 25.3474C62.24 25.3693 62.1919 25.401 62.1556 25.4423C62.1202 25.4828 62.1024 25.5368 62.1024 25.6043C62.1024 25.698 62.137 25.7689 62.2062 25.817C62.2754 25.8642 62.3636 25.8879 62.4708 25.8879Z" fill="#130C49"/>
<path d="M61.4423 24.2045V24.5082H60.3804V24.2045H61.4423ZM60.6652 23.7387H61.0436V25.5778C61.0436 25.6512 61.0546 25.7065 61.0765 25.7436C61.0985 25.7799 61.1267 25.8048 61.1613 25.8183C61.1968 25.831 61.2352 25.8373 61.2765 25.8373C61.3069 25.8373 61.3335 25.8352 61.3563 25.831C61.3791 25.8267 61.3968 25.8234 61.4094 25.8208L61.4778 26.1335C61.4558 26.1419 61.4246 26.1504 61.3841 26.1588C61.3436 26.1681 61.293 26.1731 61.2322 26.174C61.1327 26.1757 61.0398 26.1579 60.9538 26.1208C60.8677 26.0837 60.7981 26.0263 60.7449 25.9487C60.6917 25.871 60.6652 25.7736 60.6652 25.6563V23.7387Z" fill="#130C49"/>
<path d="M59.111 26.1916C58.9878 26.1916 58.8764 26.1688 58.7769 26.1233C58.6773 26.0769 58.5984 26.0098 58.5402 25.922C58.4828 25.8343 58.4541 25.7267 58.4541 25.5993C58.4541 25.4896 58.4752 25.3993 58.5174 25.3284C58.5596 25.2575 58.6165 25.2014 58.6883 25.16C58.76 25.1187 58.8402 25.0875 58.9288 25.0664C59.0174 25.0453 59.1077 25.0292 59.1996 25.0183C59.3161 25.0048 59.4106 24.9938 59.4832 24.9854C59.5557 24.9761 59.6085 24.9613 59.6414 24.9411C59.6743 24.9208 59.6907 24.8879 59.6907 24.8423V24.8335C59.6907 24.7229 59.6595 24.6373 59.5971 24.5765C59.5355 24.5158 59.4435 24.4854 59.3211 24.4854C59.1937 24.4854 59.0933 24.5137 59.0199 24.5702C58.9473 24.6259 58.8971 24.6879 58.8693 24.7563L58.5136 24.6753C58.5558 24.5571 58.6174 24.4618 58.6984 24.3892C58.7802 24.3158 58.8743 24.2626 58.9807 24.2297C59.087 24.196 59.1988 24.1791 59.3161 24.1791C59.3937 24.1791 59.476 24.1884 59.5629 24.2069C59.6507 24.2247 59.7325 24.2576 59.8085 24.3057C59.8852 24.3538 59.9481 24.4225 59.9971 24.512C60.046 24.6006 60.0705 24.7158 60.0705 24.8575V26.1486H59.7009V25.8828H59.6857C59.6612 25.9317 59.6245 25.9798 59.5756 26.0271C59.5266 26.0743 59.4638 26.1136 59.387 26.1448C59.3102 26.176 59.2182 26.1916 59.111 26.1916ZM59.1933 25.8879C59.2979 25.8879 59.3874 25.8672 59.4616 25.8258C59.5367 25.7845 59.5937 25.7305 59.6325 25.6638C59.6722 25.5963 59.692 25.5242 59.692 25.4474V25.1968C59.6785 25.2103 59.6523 25.2229 59.6135 25.2347C59.5756 25.2457 59.5321 25.2554 59.4832 25.2638C59.4342 25.2714 59.3865 25.2786 59.3401 25.2854C59.2937 25.2913 59.2549 25.2963 59.2237 25.3005C59.1503 25.3098 59.0832 25.3254 59.0224 25.3474C58.9625 25.3693 58.9144 25.401 58.8781 25.4423C58.8427 25.4828 58.825 25.5368 58.825 25.6043C58.825 25.698 58.8596 25.7689 58.9288 25.817C58.998 25.8642 59.0861 25.8879 59.1933 25.8879Z" fill="#130C49"/>
<path d="M56.8819 26.1486H56.0427V23.5563H56.9085C57.1625 23.5563 57.3806 23.6082 57.5629 23.712C57.7452 23.8149 57.8848 23.963 57.9819 24.1563C58.0797 24.3487 58.1287 24.5794 58.1287 24.8486C58.1287 25.1187 58.0793 25.3507 57.9806 25.5448C57.8827 25.7389 57.7409 25.8882 57.5553 25.9929C57.3697 26.0967 57.1452 26.1486 56.8819 26.1486ZM56.4338 25.8068H56.8604C57.0579 25.8068 57.222 25.7697 57.3528 25.6954C57.4836 25.6203 57.5815 25.5119 57.6464 25.3701C57.7114 25.2275 57.7439 25.0537 57.7439 24.8486C57.7439 24.6453 57.7114 24.4727 57.6464 24.3309C57.5823 24.1892 57.4865 24.0816 57.3591 24.0082C57.2317 23.9348 57.0735 23.8981 56.8845 23.8981H56.4338V25.8068Z" fill="#130C49"/>
<path d="M65.7642 20.6374V18.9261H66.1047V20.6374H65.7642ZM65.0795 19.9514V19.6109H66.7908V19.9514H65.0795Z" fill="#130C49"/>
<path d="M77.279 14.3011V15.4554H76.9005V13.5112H77.2638V13.8277H77.2878C77.3326 13.7247 77.4026 13.642 77.4979 13.5796C77.5941 13.5172 77.7152 13.4859 77.8612 13.4859C77.9937 13.4859 78.1097 13.5138 78.2093 13.5695C78.3089 13.6243 78.3861 13.7062 78.4409 13.815C78.4958 13.9239 78.5232 14.0585 78.5232 14.2188V15.4554H78.1447V14.2644C78.1447 14.1234 78.108 14.0133 78.0346 13.934C77.9612 13.8538 77.8604 13.8138 77.7321 13.8138C77.6444 13.8138 77.5663 13.8327 77.4979 13.8707C77.4304 13.9087 77.3769 13.9644 77.3372 14.0378C77.2984 14.1104 77.279 14.1981 77.279 14.3011Z" fill="#130C49"/>
<path d="M75.6107 15.4947C75.4285 15.4947 75.2694 15.4529 75.1336 15.3694C74.9977 15.2858 74.8922 15.169 74.8171 15.0188C74.742 14.8686 74.7045 14.693 74.7045 14.4922C74.7045 14.2905 74.742 14.1142 74.8171 13.9631C74.8922 13.8121 74.9977 13.6948 75.1336 13.6112C75.2694 13.5277 75.4285 13.4859 75.6107 13.4859C75.793 13.4859 75.9521 13.5277 76.0879 13.6112C76.2238 13.6948 76.3293 13.8121 76.4044 13.9631C76.4795 14.1142 76.517 14.2905 76.517 14.4922C76.517 14.693 76.4795 14.8686 76.4044 15.0188C76.3293 15.169 76.2238 15.2858 76.0879 15.3694C75.9521 15.4529 75.793 15.4947 75.6107 15.4947ZM75.612 15.177C75.7302 15.177 75.828 15.1458 75.9057 15.0833C75.9833 15.0209 76.0407 14.9378 76.0778 14.834C76.1158 14.7302 76.1348 14.6158 76.1348 14.4909C76.1348 14.3669 76.1158 14.253 76.0778 14.1492C76.0407 14.0446 75.9833 13.9606 75.9057 13.8973C75.828 13.834 75.7302 13.8024 75.612 13.8024C75.493 13.8024 75.3943 13.834 75.3158 13.8973C75.2382 13.9606 75.1804 14.0446 75.1424 14.1492C75.1053 14.253 75.0867 14.3669 75.0867 14.4909C75.0867 14.6158 75.1053 14.7302 75.1424 14.834C75.1804 14.9378 75.2382 15.0209 75.3158 15.0833C75.3943 15.1458 75.493 15.177 75.612 15.177Z" fill="#130C49"/>
<path d="M73.943 15.4555V13.5113H74.3215V15.4555H73.943ZM74.1341 13.2113C74.0683 13.2113 74.0118 13.1894 73.9645 13.1455C73.9181 13.1008 73.8949 13.0476 73.8949 12.986C73.8949 12.9236 73.9181 12.8704 73.9645 12.8265C74.0118 12.7818 74.0683 12.7594 74.1341 12.7594C74.1999 12.7594 74.2561 12.7818 74.3025 12.8265C74.3497 12.8704 74.3734 12.9236 74.3734 12.986C74.3734 13.0476 74.3497 13.1008 74.3025 13.1455C74.2561 13.1894 74.1999 13.2113 74.1341 13.2113Z" fill="#130C49"/>
<path d="M73.5638 13.5113V13.8151H72.5018V13.5113H73.5638ZM72.7866 13.0455H73.1651V14.8846C73.1651 14.9581 73.1761 15.0133 73.198 15.0505C73.2199 15.0867 73.2482 15.1116 73.2828 15.1251C73.3182 15.1378 73.3566 15.1441 73.398 15.1441C73.4284 15.1441 73.4549 15.142 73.4777 15.1378C73.5005 15.1336 73.5182 15.1302 73.5309 15.1277L73.5992 15.4403C73.5773 15.4488 73.5461 15.4572 73.5056 15.4656C73.4651 15.4749 73.4144 15.48 73.3537 15.4808C73.2541 15.4825 73.1613 15.4648 73.0752 15.4277C72.9891 15.3905 72.9195 15.3331 72.8664 15.2555C72.8132 15.1779 72.7866 15.0804 72.7866 14.9631V13.0455Z" fill="#130C49"/>
<path d="M71.4923 15.4947C71.3042 15.4947 71.1421 15.4521 71.0063 15.3668C70.8713 15.2808 70.7675 15.1622 70.6949 15.0112C70.6223 14.8601 70.5861 14.6871 70.5861 14.4922C70.5861 14.2947 70.6232 14.1205 70.6974 13.9694C70.7717 13.8176 70.8763 13.699 71.0114 13.6138C71.1464 13.5285 71.3054 13.4859 71.4885 13.4859C71.6362 13.4859 71.7679 13.5134 71.8835 13.5682C71.9991 13.6222 72.0923 13.6982 72.1632 13.796C72.2349 13.8939 72.2775 14.0083 72.291 14.1391H71.9227C71.9024 14.0479 71.856 13.9694 71.7835 13.9036C71.7117 13.8378 71.6155 13.8049 71.4949 13.8049C71.3894 13.8049 71.297 13.8327 71.2177 13.8884C71.1392 13.9433 71.078 14.0218 71.0341 14.1239C70.9903 14.2251 70.9683 14.345 70.9683 14.4833C70.9683 14.6251 70.9898 14.7475 71.0329 14.8504C71.0759 14.9534 71.1367 15.0331 71.2151 15.0896C71.2945 15.1462 71.3877 15.1744 71.4949 15.1744C71.5666 15.1744 71.6316 15.1614 71.6898 15.1352C71.7489 15.1082 71.7982 15.0698 71.8379 15.02C71.8784 14.9702 71.9067 14.9103 71.9227 14.8403H72.291C72.2775 14.966 72.2366 15.0782 72.1683 15.177C72.0999 15.2757 72.0083 15.3533 71.8936 15.4099C71.7797 15.4664 71.6459 15.4947 71.4923 15.4947Z" fill="#130C49"/>
<path d="M69.2492 15.4985C69.126 15.4985 69.0146 15.4757 68.9151 15.4301C68.8155 15.3837 68.7366 15.3166 68.6784 15.2289C68.621 15.1411 68.5923 15.0335 68.5923 14.9061C68.5923 14.7964 68.6134 14.7061 68.6556 14.6352C68.6978 14.5644 68.7547 14.5082 68.8264 14.4669C68.8982 14.4255 68.9783 14.3943 69.0669 14.3732C69.1555 14.3521 69.2458 14.3361 69.3378 14.3251C69.4543 14.3116 69.5488 14.3007 69.6213 14.2922C69.6939 14.2829 69.7467 14.2682 69.7796 14.2479C69.8125 14.2277 69.8289 14.1948 69.8289 14.1492V14.1403C69.8289 14.0298 69.7977 13.9441 69.7353 13.8834C69.6737 13.8226 69.5817 13.7922 69.4593 13.7922C69.3319 13.7922 69.2315 13.8205 69.1581 13.877C69.0855 13.9327 69.0353 13.9948 69.0075 14.0631L68.6518 13.9821C68.694 13.864 68.7556 13.7686 68.8366 13.696C68.9184 13.6226 69.0125 13.5695 69.1188 13.5366C69.2252 13.5028 69.337 13.4859 69.4543 13.4859C69.5319 13.4859 69.6142 13.4952 69.7011 13.5138C69.7888 13.5315 69.8707 13.5644 69.9466 13.6125C70.0234 13.6606 70.0863 13.7294 70.1352 13.8188C70.1842 13.9074 70.2087 14.0226 70.2087 14.1644V15.4554H69.8391V15.1896H69.8239C69.7994 15.2386 69.7627 15.2867 69.7137 15.3339C69.6648 15.3812 69.6019 15.4204 69.5251 15.4516C69.4484 15.4829 69.3564 15.4985 69.2492 15.4985ZM69.3315 15.1947C69.4361 15.1947 69.5256 15.174 69.5998 15.1327C69.6749 15.0913 69.7319 15.0373 69.7707 14.9707C69.8104 14.9032 69.8302 14.831 69.8302 14.7542V14.5036C69.8167 14.5171 69.7905 14.5298 69.7517 14.5416C69.7137 14.5525 69.6703 14.5622 69.6213 14.5707C69.5724 14.5783 69.5247 14.5854 69.4783 14.5922C69.4319 14.5981 69.3931 14.6032 69.3619 14.6074C69.2884 14.6167 69.2214 14.6323 69.1606 14.6542C69.1007 14.6762 69.0526 14.7078 69.0163 14.7492C68.9809 14.7897 68.9632 14.8437 68.9632 14.9112C68.9632 15.0048 68.9977 15.0757 69.0669 15.1238C69.1361 15.1711 69.2243 15.1947 69.3315 15.1947Z" fill="#130C49"/>
<path d="M67.3727 15.4554V13.5112H67.7385V13.8201H67.7587C67.7942 13.7154 67.8566 13.6332 67.9461 13.5732C68.0364 13.5125 68.1385 13.4821 68.2524 13.4821C68.276 13.4821 68.3039 13.483 68.3359 13.4846C68.3688 13.4863 68.3946 13.4884 68.4131 13.491V13.853C68.3979 13.8488 68.3709 13.8441 68.3321 13.8391C68.2933 13.8331 68.2545 13.8302 68.2157 13.8302C68.1262 13.8302 68.0465 13.8492 67.9764 13.8872C67.9073 13.9243 67.8524 13.9762 67.8119 14.0428C67.7714 14.1087 67.7511 14.1838 67.7511 14.2681V15.4554H67.3727Z" fill="#130C49"/>
<path d="M66.9919 13.5113V13.8151H65.9299V13.5113H66.9919ZM66.2147 13.0455H66.5932V14.8846C66.5932 14.9581 66.6042 15.0133 66.6261 15.0505C66.648 15.0867 66.6763 15.1116 66.7109 15.1251C66.7463 15.1378 66.7847 15.1441 66.8261 15.1441C66.8565 15.1441 66.883 15.142 66.9058 15.1378C66.9286 15.1336 66.9463 15.1302 66.959 15.1277L67.0273 15.4403C67.0054 15.4488 66.9742 15.4572 66.9337 15.4656C66.8932 15.4749 66.8425 15.48 66.7818 15.4808C66.6822 15.4825 66.5894 15.4648 66.5033 15.4277C66.4172 15.3905 66.3476 15.3331 66.2945 15.2555C66.2413 15.1779 66.2147 15.0804 66.2147 14.9631V13.0455Z" fill="#130C49"/>
<path d="M64.46 13.5113L64.8891 14.2682L65.322 13.5113H65.7359L65.1296 14.4834L65.7409 15.4555H65.327L64.8891 14.729L64.4524 15.4555H64.0372L64.6423 14.4834L64.0448 13.5113H64.46Z" fill="#130C49"/>
<path d="M62.0834 15.4555V12.8633H63.7086V13.1999H62.4745V13.9898H63.6238V14.3252H62.4745V15.1188H63.7238V15.4555H62.0834Z" fill="#130C49"/>
<path d="M59.7232 15.4985C59.6 15.4985 59.4886 15.4757 59.3891 15.4301C59.2895 15.3837 59.2106 15.3166 59.1524 15.2289C59.095 15.1411 59.0663 15.0335 59.0663 14.9061C59.0663 14.7964 59.0874 14.7061 59.1296 14.6352C59.1718 14.5644 59.2287 14.5082 59.3004 14.4669C59.3722 14.4255 59.4523 14.3943 59.5409 14.3732C59.6295 14.3521 59.7198 14.3361 59.8118 14.3251C59.9283 14.3116 60.0228 14.3007 60.0953 14.2922C60.1679 14.2829 60.2207 14.2682 60.2536 14.2479C60.2865 14.2277 60.3029 14.1948 60.3029 14.1492V14.1403C60.3029 14.0298 60.2717 13.9441 60.2093 13.8834C60.1477 13.8226 60.0557 13.7922 59.9333 13.7922C59.8059 13.7922 59.7055 13.8205 59.6321 13.877C59.5595 13.9327 59.5093 13.9948 59.4815 14.0631L59.1258 13.9821C59.168 13.864 59.2296 13.7686 59.3106 13.696C59.3924 13.6226 59.4865 13.5695 59.5928 13.5366C59.6992 13.5028 59.811 13.4859 59.9283 13.4859C60.0059 13.4859 60.0882 13.4952 60.1751 13.5138C60.2628 13.5315 60.3447 13.5644 60.4206 13.6125C60.4974 13.6606 60.5603 13.7294 60.6092 13.8188C60.6582 13.9074 60.6827 14.0226 60.6827 14.1644V15.4554H60.3131V15.1896H60.2979C60.2734 15.2386 60.2367 15.2867 60.1877 15.3339C60.1388 15.3812 60.0759 15.4204 59.9991 15.4516C59.9224 15.4829 59.8304 15.4985 59.7232 15.4985ZM59.8055 15.1947C59.9101 15.1947 59.9996 15.174 60.0738 15.1327C60.1489 15.0913 60.2059 15.0373 60.2447 14.9707C60.2844 14.9032 60.3042 14.831 60.3042 14.7542V14.5036C60.2907 14.5171 60.2645 14.5298 60.2257 14.5416C60.1877 14.5525 60.1443 14.5622 60.0953 14.5707C60.0464 14.5783 59.9987 14.5854 59.9523 14.5922C59.9059 14.5981 59.8671 14.6032 59.8359 14.6074C59.7624 14.6167 59.6954 14.6323 59.6346 14.6542C59.5747 14.6762 59.5266 14.7078 59.4903 14.7492C59.4549 14.7897 59.4372 14.8437 59.4372 14.9112C59.4372 15.0048 59.4717 15.0757 59.5409 15.1238C59.6101 15.1711 59.6983 15.1947 59.8055 15.1947Z" fill="#130C49"/>
<path d="M58.7791 13.5113V13.8151H57.7172V13.5113H58.7791ZM58.002 13.0455H58.3804V14.8846C58.3804 14.9581 58.3914 15.0133 58.4133 15.0505C58.4353 15.0867 58.4635 15.1116 58.4981 15.1251C58.5336 15.1378 58.572 15.1441 58.6133 15.1441C58.6437 15.1441 58.6703 15.142 58.6931 15.1378C58.7158 15.1336 58.7336 15.1302 58.7462 15.1277L58.8146 15.4403C58.7926 15.4488 58.7614 15.4572 58.7209 15.4656C58.6804 15.4749 58.6298 15.48 58.569 15.4808C58.4694 15.4825 58.3766 15.4648 58.2905 15.4277C58.2045 15.3905 58.1349 15.3331 58.0817 15.2555C58.0285 15.1779 58.002 15.0804 58.002 14.9631V13.0455Z" fill="#130C49"/>
<path d="M56.4468 15.4985C56.3236 15.4985 56.2123 15.4757 56.1127 15.4301C56.0131 15.3837 55.9342 15.3166 55.876 15.2289C55.8186 15.1411 55.7899 15.0335 55.7899 14.9061C55.7899 14.7964 55.811 14.7061 55.8532 14.6352C55.8954 14.5644 55.9524 14.5082 56.0241 14.4669C56.0958 14.4255 56.176 14.3943 56.2646 14.3732C56.3532 14.3521 56.4435 14.3361 56.5354 14.3251C56.6519 14.3116 56.7464 14.3007 56.819 14.2922C56.8915 14.2829 56.9443 14.2682 56.9772 14.2479C57.0101 14.2277 57.0266 14.1948 57.0266 14.1492V14.1403C57.0266 14.0298 56.9953 13.9441 56.9329 13.8834C56.8713 13.8226 56.7793 13.7922 56.657 13.7922C56.5295 13.7922 56.4291 13.8205 56.3557 13.877C56.2831 13.9327 56.2329 13.9948 56.2051 14.0631L55.8494 13.9821C55.8916 13.864 55.9532 13.7686 56.0342 13.696C56.1161 13.6226 56.2101 13.5695 56.3165 13.5366C56.4228 13.5028 56.5346 13.4859 56.6519 13.4859C56.7295 13.4859 56.8118 13.4952 56.8987 13.5138C56.9865 13.5315 57.0683 13.5644 57.1443 13.6125C57.2211 13.6606 57.2839 13.7294 57.3329 13.8188C57.3818 13.9074 57.4063 14.0226 57.4063 14.1644V15.4554H57.0367V15.1896H57.0215C56.997 15.2386 56.9603 15.2867 56.9114 15.3339C56.8624 15.3812 56.7996 15.4204 56.7228 15.4516C56.646 15.4829 56.554 15.4985 56.4468 15.4985ZM56.5291 15.1947C56.6338 15.1947 56.7232 15.174 56.7975 15.1327C56.8726 15.0913 56.9295 15.0373 56.9683 14.9707C57.008 14.9032 57.0278 14.831 57.0278 14.7542V14.5036C57.0143 14.5171 56.9882 14.5298 56.9493 14.5416C56.9114 14.5525 56.8679 14.5622 56.819 14.5707C56.77 14.5783 56.7224 14.5854 56.6759 14.5922C56.6295 14.5981 56.5907 14.6032 56.5595 14.6074C56.4861 14.6167 56.419 14.6323 56.3582 14.6542C56.2983 14.6762 56.2502 14.7078 56.2139 14.7492C56.1785 14.7897 56.1608 14.8437 56.1608 14.9112C56.1608 15.0048 56.1954 15.0757 56.2646 15.1238C56.3338 15.1711 56.4219 15.1947 56.5291 15.1947Z" fill="#130C49"/>
<path d="M54.2177 15.4555H53.3785V12.8633H54.2443C54.4983 12.8633 54.7164 12.9152 54.8987 13.0189C55.081 13.1219 55.2206 13.27 55.3177 13.4632C55.4156 13.6556 55.4645 13.8864 55.4645 14.1556C55.4645 14.4256 55.4151 14.6577 55.3164 14.8518C55.2185 15.0458 55.0768 15.1952 54.8911 15.2998C54.7055 15.4036 54.481 15.4555 54.2177 15.4555ZM53.7697 15.1138H54.1962C54.3937 15.1138 54.5578 15.0766 54.6886 15.0024C54.8194 14.9273 54.9173 14.8188 54.9822 14.6771C55.0472 14.5345 55.0797 14.3606 55.0797 14.1556C55.0797 13.9522 55.0472 13.7797 54.9822 13.6379C54.9181 13.4961 54.8223 13.3885 54.6949 13.3151C54.5675 13.2417 54.4093 13.205 54.2203 13.205H53.7697V15.1138Z" fill="#130C49"/>
<path d="M164.541 24.9942V26.1486H164.163V24.2044H164.526V24.5208H164.55C164.595 24.4179 164.665 24.3352 164.76 24.2727C164.856 24.2103 164.977 24.1791 165.123 24.1791C165.256 24.1791 165.372 24.2069 165.471 24.2626C165.571 24.3175 165.648 24.3993 165.703 24.5082C165.758 24.617 165.785 24.7516 165.785 24.9119V26.1486H165.407V24.9575C165.407 24.8166 165.37 24.7065 165.297 24.6272C165.223 24.547 165.122 24.5069 164.994 24.5069C164.906 24.5069 164.828 24.5259 164.76 24.5639C164.693 24.6018 164.639 24.6575 164.599 24.7309C164.56 24.8035 164.541 24.8913 164.541 24.9942Z" fill="#130C49"/>
<path d="M162.873 26.1878C162.691 26.1878 162.532 26.1461 162.396 26.0625C162.26 25.979 162.154 25.8621 162.079 25.7119C162.004 25.5617 161.967 25.3862 161.967 25.1854C161.967 24.9837 162.004 24.8073 162.079 24.6563C162.154 24.5052 162.26 24.3879 162.396 24.3044C162.532 24.2208 162.691 24.1791 162.873 24.1791C163.055 24.1791 163.214 24.2208 163.35 24.3044C163.486 24.3879 163.591 24.5052 163.667 24.6563C163.742 24.8073 163.779 24.9837 163.779 25.1854C163.779 25.3862 163.742 25.5617 163.667 25.7119C163.591 25.8621 163.486 25.979 163.35 26.0625C163.214 26.1461 163.055 26.1878 162.873 26.1878ZM162.874 25.8701C162.992 25.8701 163.09 25.8389 163.168 25.7765C163.246 25.714 163.303 25.6309 163.34 25.5271C163.378 25.4233 163.397 25.309 163.397 25.1841C163.397 25.06 163.378 24.9461 163.34 24.8423C163.303 24.7377 163.246 24.6537 163.168 24.5904C163.09 24.5272 162.992 24.4955 162.874 24.4955C162.755 24.4955 162.657 24.5272 162.578 24.5904C162.5 24.6537 162.443 24.7377 162.405 24.8423C162.367 24.9461 162.349 25.06 162.349 25.1841C162.349 25.309 162.367 25.4233 162.405 25.5271C162.443 25.6309 162.5 25.714 162.578 25.7765C162.657 25.8389 162.755 25.8701 162.874 25.8701Z" fill="#130C49"/>
<path d="M161.206 26.1485V24.2043H161.585V26.1485H161.206ZM161.397 23.9044C161.331 23.9044 161.275 23.8824 161.228 23.8385C161.181 23.7938 161.158 23.7406 161.158 23.679C161.158 23.6166 161.181 23.5634 161.228 23.5196C161.275 23.4748 161.331 23.4525 161.397 23.4525C161.463 23.4525 161.519 23.4748 161.566 23.5196C161.613 23.5634 161.636 23.6166 161.636 23.679C161.636 23.7406 161.613 23.7938 161.566 23.8385C161.519 23.8824 161.463 23.9044 161.397 23.9044Z" fill="#130C49"/>
<path d="M160.826 24.2045V24.5082H159.764V24.2045H160.826ZM160.049 23.7387H160.427V25.5778C160.427 25.6512 160.438 25.7065 160.46 25.7436C160.482 25.7799 160.51 25.8048 160.545 25.8183C160.58 25.831 160.619 25.8373 160.66 25.8373C160.69 25.8373 160.717 25.8352 160.74 25.831C160.763 25.8267 160.78 25.8234 160.793 25.8208L160.861 26.1335C160.839 26.1419 160.808 26.1503 160.768 26.1588C160.727 26.1681 160.677 26.1731 160.616 26.174C160.516 26.1757 160.423 26.1579 160.337 26.1208C160.251 26.0837 160.182 26.0263 160.128 25.9487C160.075 25.871 160.049 25.7736 160.049 25.6563V23.7387Z" fill="#130C49"/>
<path d="M158.754 26.1878C158.566 26.1878 158.404 26.1452 158.268 26.06C158.133 25.9739 158.03 25.8554 157.957 25.7043C157.884 25.5533 157.848 25.3803 157.848 25.1854C157.848 24.9879 157.885 24.8136 157.96 24.6626C158.034 24.5107 158.138 24.3921 158.273 24.3069C158.408 24.2217 158.568 24.1791 158.751 24.1791C158.898 24.1791 159.03 24.2065 159.146 24.2614C159.261 24.3154 159.354 24.3913 159.425 24.4892C159.497 24.5871 159.54 24.7014 159.553 24.8322H159.185C159.165 24.7411 159.118 24.6626 159.046 24.5968C158.974 24.531 158.878 24.498 158.757 24.498C158.651 24.498 158.559 24.5259 158.48 24.5816C158.401 24.6364 158.34 24.7149 158.296 24.817C158.252 24.9183 158.23 25.0381 158.23 25.1765C158.23 25.3183 158.252 25.4406 158.295 25.5436C158.338 25.6465 158.399 25.7262 158.477 25.7828C158.557 25.8393 158.65 25.8676 158.757 25.8676C158.829 25.8676 158.894 25.8545 158.952 25.8284C159.011 25.8014 159.06 25.763 159.1 25.7132C159.14 25.6634 159.169 25.6035 159.185 25.5334H159.553C159.54 25.6592 159.499 25.7714 159.43 25.8701C159.362 25.9689 159.27 26.0465 159.156 26.103C159.042 26.1596 158.908 26.1878 158.754 26.1878Z" fill="#130C49"/>
<path d="M157.087 25.3422V24.2043H157.467V26.1485H157.095V25.8118H157.074C157.03 25.9156 156.958 26.0021 156.859 26.0713C156.761 26.1397 156.639 26.1739 156.493 26.1739C156.368 26.1739 156.258 26.1464 156.162 26.0916C156.066 26.0359 155.991 25.9536 155.936 25.8448C155.882 25.7359 155.855 25.6013 155.855 25.441V24.2043H156.234V25.3954C156.234 25.5279 156.271 25.6334 156.344 25.7118C156.417 25.7903 156.513 25.8296 156.63 25.8296C156.701 25.8296 156.771 25.8118 156.841 25.7764C156.912 25.741 156.971 25.6874 157.017 25.6157C157.065 25.5439 157.088 25.4528 157.087 25.3422Z" fill="#130C49"/>
<path d="M154.391 26.1865C154.234 26.1865 154.094 26.1464 153.971 26.0663C153.848 25.9853 153.752 25.8701 153.682 25.7207C153.613 25.5705 153.578 25.3904 153.578 25.1803C153.578 24.9701 153.613 24.7904 153.683 24.641C153.754 24.4917 153.851 24.3773 153.974 24.298C154.098 24.2187 154.237 24.179 154.393 24.179C154.514 24.179 154.611 24.1993 154.685 24.2398C154.759 24.2795 154.816 24.3259 154.857 24.379C154.898 24.4322 154.93 24.479 154.953 24.5195H154.976V23.5563H155.354V26.1486H154.985V25.846H154.953C154.93 25.8874 154.897 25.9346 154.854 25.9878C154.812 26.041 154.754 26.0874 154.679 26.127C154.605 26.1667 154.509 26.1865 154.391 26.1865ZM154.474 25.8638C154.583 25.8638 154.675 25.8351 154.75 25.7777C154.826 25.7195 154.884 25.6389 154.922 25.5359C154.962 25.433 154.982 25.3132 154.982 25.1765C154.982 25.0414 154.963 24.9233 154.924 24.822C154.885 24.7208 154.828 24.6419 154.753 24.5853C154.678 24.5288 154.585 24.5005 154.474 24.5005C154.36 24.5005 154.266 24.5301 154.19 24.5891C154.114 24.6482 154.056 24.7288 154.017 24.8309C153.979 24.933 153.961 25.0482 153.961 25.1765C153.961 25.3064 153.98 25.4233 154.019 25.5271C154.058 25.6309 154.115 25.7131 154.191 25.7739C154.268 25.8338 154.362 25.8638 154.474 25.8638Z" fill="#130C49"/>
<path d="M152.448 26.1878C152.256 26.1878 152.091 26.1469 151.953 26.065C151.815 25.9824 151.709 25.8663 151.634 25.717C151.56 25.5668 151.522 25.3908 151.522 25.1891C151.522 24.99 151.56 24.8145 151.634 24.6626C151.709 24.5107 151.814 24.3921 151.948 24.3069C152.083 24.2217 152.241 24.1791 152.421 24.1791C152.531 24.1791 152.637 24.1972 152.74 24.2335C152.843 24.2698 152.935 24.3267 153.017 24.4044C153.099 24.482 153.164 24.5829 153.211 24.7069C153.258 24.8301 153.282 24.9799 153.282 25.1562V25.2904H151.736V25.0069H152.911C152.911 24.9073 152.891 24.8191 152.85 24.7423C152.81 24.6647 152.753 24.6035 152.679 24.5588C152.607 24.5141 152.522 24.4917 152.424 24.4917C152.317 24.4917 152.225 24.5179 152.145 24.5702C152.067 24.6217 152.006 24.6892 151.963 24.7727C151.921 24.8554 151.9 24.9453 151.9 25.0423V25.2638C151.9 25.3938 151.922 25.5043 151.968 25.5955C152.014 25.6866 152.079 25.7562 152.162 25.8043C152.244 25.8516 152.341 25.8752 152.452 25.8752C152.523 25.8752 152.589 25.8651 152.648 25.8448C152.707 25.8237 152.758 25.7925 152.801 25.7511C152.844 25.7098 152.877 25.6587 152.9 25.598L153.258 25.6625C153.229 25.768 153.178 25.8604 153.103 25.9397C153.03 26.0182 152.938 26.0794 152.826 26.1233C152.716 26.1663 152.589 26.1878 152.448 26.1878Z" fill="#130C49"/>
<path d="M149.407 26.1486V23.5563H150.331C150.532 23.5563 150.699 23.5909 150.831 23.6601C150.965 23.7293 151.064 23.8251 151.13 23.9474C151.196 24.0689 151.229 24.2094 151.229 24.3689C151.229 24.5275 151.196 24.6672 151.129 24.7879C151.063 24.9077 150.964 25.0009 150.83 25.0676C150.698 25.1343 150.531 25.1676 150.33 25.1676H149.63V24.8309H150.295C150.421 24.8309 150.524 24.8128 150.604 24.7765C150.684 24.7402 150.742 24.6875 150.78 24.6183C150.817 24.5491 150.835 24.4659 150.835 24.3689C150.835 24.271 150.816 24.1862 150.778 24.1145C150.741 24.0428 150.683 23.9879 150.602 23.9499C150.523 23.9111 150.419 23.8917 150.29 23.8917H149.799V26.1486H149.407ZM150.687 24.979L151.328 26.1486H150.882L150.254 24.979H150.687Z" fill="#130C49"/>
<path d="M147.258 26.1878C147.066 26.1878 146.901 26.1469 146.763 26.065C146.625 25.9824 146.519 25.8663 146.444 25.717C146.369 25.5668 146.332 25.3908 146.332 25.1891C146.332 24.99 146.369 24.8145 146.444 24.6626C146.519 24.5107 146.623 24.3921 146.758 24.3069C146.893 24.2217 147.05 24.1791 147.231 24.1791C147.341 24.1791 147.447 24.1972 147.55 24.2335C147.653 24.2698 147.745 24.3267 147.827 24.4044C147.909 24.482 147.974 24.5829 148.021 24.7069C148.068 24.8301 148.092 24.9799 148.092 25.1562V25.2904H146.546V25.0069H147.721C147.721 24.9073 147.701 24.8191 147.66 24.7423C147.62 24.6647 147.563 24.6035 147.489 24.5588C147.417 24.5141 147.331 24.4917 147.233 24.4917C147.127 24.4917 147.034 24.5179 146.955 24.5702C146.877 24.6217 146.816 24.6892 146.773 24.7727C146.731 24.8554 146.709 24.9453 146.709 25.0423V25.2638C146.709 25.3938 146.732 25.5043 146.778 25.5955C146.824 25.6866 146.889 25.7562 146.971 25.8043C147.054 25.8516 147.151 25.8752 147.261 25.8752C147.333 25.8752 147.398 25.8651 147.458 25.8448C147.517 25.8237 147.568 25.7925 147.611 25.7511C147.654 25.7098 147.687 25.6587 147.709 25.598L148.068 25.6625C148.039 25.768 147.987 25.8604 147.913 25.9397C147.84 26.0182 147.747 26.0794 147.636 26.1233C147.525 26.1663 147.399 26.1878 147.258 26.1878Z" fill="#130C49"/>
<path d="M146.004 24.679L145.661 24.7398C145.647 24.6959 145.624 24.6542 145.593 24.6145C145.563 24.5748 145.521 24.5423 145.469 24.517C145.417 24.4917 145.351 24.4791 145.273 24.4791C145.166 24.4791 145.076 24.5031 145.004 24.5512C144.933 24.5985 144.897 24.6596 144.897 24.7347C144.897 24.7997 144.921 24.852 144.969 24.8917C145.017 24.9314 145.095 24.9638 145.202 24.9892L145.511 25.06C145.69 25.1014 145.823 25.1651 145.911 25.2512C145.998 25.3372 146.042 25.449 146.042 25.5866C146.042 25.703 146.009 25.8068 145.941 25.898C145.874 25.9883 145.781 26.0591 145.661 26.1106C145.542 26.1621 145.404 26.1878 145.247 26.1878C145.03 26.1878 144.852 26.1414 144.715 26.0486C144.577 25.9549 144.493 25.822 144.461 25.6499L144.827 25.5942C144.85 25.6895 144.897 25.7617 144.968 25.8106C145.039 25.8587 145.131 25.8828 145.245 25.8828C145.369 25.8828 145.468 25.857 145.542 25.8056C145.617 25.7533 145.654 25.6895 145.654 25.6144C145.654 25.5537 145.631 25.5026 145.585 25.4613C145.541 25.4199 145.472 25.3887 145.379 25.3676L145.05 25.2955C144.869 25.2541 144.734 25.1883 144.647 25.098C144.561 25.0077 144.518 24.8934 144.518 24.755C144.518 24.6402 144.55 24.5398 144.615 24.4537C144.679 24.3677 144.767 24.3006 144.88 24.2525C144.993 24.2035 145.123 24.1791 145.269 24.1791C145.479 24.1791 145.644 24.2246 145.765 24.3158C145.886 24.4061 145.966 24.5272 146.004 24.679Z" fill="#130C49"/>
<path d="M143.7 26.1485V24.2043H144.079V26.1485H143.7ZM143.891 23.9044C143.825 23.9044 143.769 23.8824 143.722 23.8385C143.675 23.7938 143.652 23.7406 143.652 23.679C143.652 23.6166 143.675 23.5634 143.722 23.5196C143.769 23.4748 143.825 23.4525 143.891 23.4525C143.957 23.4525 144.013 23.4748 144.06 23.5196C144.107 23.5634 144.13 23.6166 144.13 23.679C144.13 23.7406 144.107 23.7938 144.06 23.8385C144.013 23.8824 143.957 23.9044 143.891 23.9044Z" fill="#130C49"/>
<path d="M142.41 26.1878C142.228 26.1878 142.069 26.1461 141.933 26.0625C141.797 25.979 141.691 25.8621 141.616 25.7119C141.541 25.5617 141.504 25.3862 141.504 25.1854C141.504 24.9837 141.541 24.8073 141.616 24.6563C141.691 24.5052 141.797 24.3879 141.933 24.3044C142.069 24.2208 142.228 24.1791 142.41 24.1791C142.592 24.1791 142.751 24.2208 142.887 24.3044C143.023 24.3879 143.128 24.5052 143.204 24.6563C143.279 24.8073 143.316 24.9837 143.316 25.1854C143.316 25.3862 143.279 25.5617 143.204 25.7119C143.128 25.8621 143.023 25.979 142.887 26.0625C142.751 26.1461 142.592 26.1878 142.41 26.1878ZM142.411 25.8701C142.529 25.8701 142.627 25.8389 142.705 25.7765C142.782 25.714 142.84 25.6309 142.877 25.5271C142.915 25.4233 142.934 25.309 142.934 25.1841C142.934 25.06 142.915 24.9461 142.877 24.8423C142.84 24.7377 142.782 24.6537 142.705 24.5904C142.627 24.5272 142.529 24.4955 142.411 24.4955C142.292 24.4955 142.193 24.5272 142.115 24.5904C142.037 24.6537 141.98 24.7377 141.942 24.8423C141.904 24.9461 141.886 25.06 141.886 25.1841C141.886 25.309 141.904 25.4233 141.942 25.5271C141.98 25.6309 142.037 25.714 142.115 25.7765C142.193 25.8389 142.292 25.8701 142.411 25.8701Z" fill="#130C49"/>
<path d="M141.09 23.5563V26.1486H140.73L139.413 24.2474H139.389V26.1486H138.998V23.5563H139.36L140.679 25.46H140.703V23.5563H141.09Z" fill="#130C49"/>
<path d="M152.204 20.6374V18.9261H152.545V20.6374H152.204ZM151.52 19.9514V19.6109H153.231V19.9514H151.52Z" fill="#130C49"/>
<path d="M162.95 16.225C162.795 16.225 162.662 16.2048 162.551 16.1643C162.44 16.1238 162.35 16.0702 162.28 16.0035C162.21 15.9368 162.158 15.8639 162.123 15.7845L162.448 15.6504C162.471 15.6875 162.501 15.7267 162.539 15.7681C162.578 15.8103 162.631 15.8461 162.696 15.8757C162.763 15.9052 162.849 15.92 162.953 15.92C163.097 15.92 163.215 15.8849 163.309 15.8149C163.403 15.7457 163.449 15.6352 163.449 15.4833V15.101H163.425C163.403 15.1424 163.37 15.1884 163.327 15.239C163.285 15.2896 163.226 15.3335 163.152 15.3706C163.078 15.4078 162.981 15.4263 162.862 15.4263C162.709 15.4263 162.57 15.3905 162.447 15.3187C162.325 15.2462 162.228 15.1394 162.156 14.9985C162.085 14.8567 162.05 14.6825 162.05 14.4757C162.05 14.269 162.085 14.0918 162.155 13.9441C162.226 13.7965 162.323 13.6834 162.446 13.6049C162.569 13.5256 162.709 13.4859 162.865 13.4859C162.985 13.4859 163.083 13.5062 163.157 13.5467C163.231 13.5863 163.289 13.6328 163.331 13.6859C163.373 13.7391 163.405 13.7859 163.428 13.8264H163.456V13.5112H163.827V15.4985C163.827 15.6656 163.788 15.8027 163.71 15.9098C163.633 16.017 163.528 16.0963 163.395 16.1478C163.263 16.1993 163.115 16.225 162.95 16.225ZM162.946 15.1124C163.055 15.1124 163.147 15.0871 163.222 15.0365C163.298 14.985 163.355 14.9116 163.394 14.8162C163.433 14.72 163.453 14.6048 163.453 14.4707C163.453 14.3399 163.434 14.2247 163.395 14.1251C163.356 14.0256 163.299 13.9479 163.224 13.8922C163.149 13.8357 163.056 13.8074 162.946 13.8074C162.832 13.8074 162.737 13.837 162.661 13.896C162.585 13.9543 162.528 14.0336 162.489 14.134C162.451 14.2344 162.432 14.3466 162.432 14.4707C162.432 14.5981 162.451 14.7099 162.49 14.8061C162.529 14.9023 162.586 14.9774 162.662 15.0314C162.739 15.0854 162.833 15.1124 162.946 15.1124Z" fill="#130C49"/>
<path d="M160.422 14.3011V15.4554H160.043V13.5112H160.407V13.8277H160.431C160.475 13.7247 160.545 13.642 160.641 13.5796C160.737 13.5171 160.858 13.4859 161.004 13.4859C161.137 13.4859 161.253 13.5138 161.352 13.5695C161.452 13.6243 161.529 13.7062 161.584 13.815C161.639 13.9239 161.666 14.0585 161.666 14.2188V15.4554H161.288V14.2644C161.288 14.1234 161.251 14.0133 161.177 13.934C161.104 13.8538 161.003 13.8138 160.875 13.8138C160.787 13.8138 160.709 13.8327 160.641 13.8707C160.573 13.9087 160.52 13.9644 160.48 14.0378C160.441 14.1104 160.422 14.1981 160.422 14.3011Z" fill="#130C49"/>
<path d="M159.194 15.4555V13.5113H159.573V15.4555H159.194ZM159.385 13.2113C159.319 13.2113 159.263 13.1894 159.216 13.1455C159.169 13.1008 159.146 13.0476 159.146 12.986C159.146 12.9236 159.169 12.8704 159.216 12.8265C159.263 12.7818 159.319 12.7594 159.385 12.7594C159.451 12.7594 159.507 12.7818 159.554 12.8265C159.601 12.8704 159.624 12.9236 159.624 12.986C159.624 13.0476 159.601 13.1008 159.554 13.1455C159.507 13.1894 159.451 13.2113 159.385 13.2113Z" fill="#130C49"/>
<path d="M157.482 14.3011V15.4554H157.104V13.5112H157.467V13.8277H157.491C157.536 13.7247 157.606 13.642 157.701 13.5796C157.797 13.5171 157.918 13.4859 158.064 13.4859C158.197 13.4859 158.313 13.5138 158.412 13.5695C158.512 13.6243 158.589 13.7062 158.644 13.815C158.699 13.9239 158.726 14.0585 158.726 14.2188V15.4554H158.348V14.2644C158.348 14.1234 158.311 14.0133 158.238 13.934C158.164 13.8538 158.063 13.8138 157.935 13.8138C157.847 13.8138 157.769 13.8327 157.701 13.8707C157.633 13.9087 157.58 13.9644 157.54 14.0378C157.501 14.1104 157.482 14.1981 157.482 14.3011Z" fill="#130C49"/>
<path d="M155.679 15.4985C155.556 15.4985 155.444 15.4757 155.345 15.4301C155.245 15.3837 155.166 15.3166 155.108 15.2289C155.051 15.1411 155.022 15.0335 155.022 14.9061C155.022 14.7964 155.043 14.7061 155.085 14.6352C155.127 14.5643 155.184 14.5082 155.256 14.4669C155.328 14.4255 155.408 14.3943 155.497 14.3732C155.585 14.3521 155.676 14.3361 155.768 14.3251C155.884 14.3116 155.978 14.3006 156.051 14.2922C156.124 14.2829 156.176 14.2682 156.209 14.2479C156.242 14.2277 156.259 14.1947 156.259 14.1492V14.1403C156.259 14.0298 156.227 13.9441 156.165 13.8834C156.103 13.8226 156.011 13.7922 155.889 13.7922C155.762 13.7922 155.661 13.8205 155.588 13.877C155.515 13.9327 155.465 13.9948 155.437 14.0631L155.081 13.9821C155.124 13.864 155.185 13.7686 155.266 13.696C155.348 13.6226 155.442 13.5695 155.549 13.5366C155.655 13.5028 155.767 13.4859 155.884 13.4859C155.962 13.4859 156.044 13.4952 156.131 13.5138C156.219 13.5315 156.3 13.5644 156.376 13.6125C156.453 13.6606 156.516 13.7294 156.565 13.8188C156.614 13.9074 156.638 14.0226 156.638 14.1644V15.4554H156.269V15.1896H156.254C156.229 15.2386 156.192 15.2867 156.143 15.3339C156.094 15.3812 156.032 15.4204 155.955 15.4516C155.878 15.4829 155.786 15.4985 155.679 15.4985ZM155.761 15.1947C155.866 15.1947 155.955 15.174 156.03 15.1327C156.105 15.0913 156.162 15.0373 156.2 14.9707C156.24 14.9031 156.26 14.831 156.26 14.7542V14.5036C156.246 14.5171 156.22 14.5297 156.181 14.5416C156.143 14.5525 156.1 14.5622 156.051 14.5707C156.002 14.5783 155.954 14.5854 155.908 14.5922C155.862 14.5981 155.823 14.6032 155.792 14.6074C155.718 14.6167 155.651 14.6323 155.59 14.6542C155.53 14.6762 155.482 14.7078 155.446 14.7491C155.411 14.7896 155.393 14.8437 155.393 14.9112C155.393 15.0048 155.427 15.0757 155.497 15.1238C155.566 15.1711 155.654 15.1947 155.761 15.1947Z" fill="#130C49"/>
<path d="M153.899 15.4947C153.707 15.4947 153.542 15.4537 153.404 15.3719C153.267 15.2892 153.16 15.1732 153.085 15.0238C153.011 14.8736 152.974 14.6977 152.974 14.496C152.974 14.2968 153.011 14.1213 153.085 13.9694C153.16 13.8176 153.265 13.699 153.399 13.6138C153.534 13.5285 153.692 13.4859 153.872 13.4859C153.982 13.4859 154.088 13.5041 154.191 13.5404C154.294 13.5766 154.387 13.6336 154.469 13.7112C154.55 13.7889 154.615 13.8897 154.662 14.0137C154.71 14.1369 154.733 14.2867 154.733 14.4631V14.5973H153.188V14.3137H154.362C154.362 14.2142 154.342 14.126 154.302 14.0492C154.261 13.9716 154.204 13.9104 154.131 13.8656C154.058 13.8209 153.973 13.7986 153.875 13.7986C153.769 13.7986 153.676 13.8247 153.597 13.877C153.518 13.9285 153.457 13.996 153.414 14.0796C153.372 14.1623 153.351 14.2521 153.351 14.3492V14.5707C153.351 14.7006 153.374 14.8112 153.419 14.9023C153.466 14.9934 153.53 15.0631 153.613 15.1112C153.696 15.1584 153.792 15.182 153.903 15.182C153.975 15.182 154.04 15.1719 154.099 15.1517C154.158 15.1306 154.209 15.0993 154.252 15.058C154.295 15.0166 154.328 14.9656 154.351 14.9048L154.709 14.9694C154.68 15.0749 154.629 15.1673 154.555 15.2466C154.481 15.3251 154.389 15.3862 154.277 15.4301C154.167 15.4732 154.041 15.4947 153.899 15.4947Z" fill="#130C49"/>
<path d="M152.591 12.8633V15.4555H152.213V12.8633H152.591Z" fill="#130C49"/>
<path d="M151.815 13.7063H151.42C151.405 13.6219 151.376 13.5476 151.335 13.4835C151.294 13.4194 151.243 13.365 151.183 13.3202C151.123 13.2755 151.056 13.2418 150.982 13.219C150.908 13.1962 150.83 13.1848 150.748 13.1848C150.598 13.1848 150.465 13.2224 150.346 13.2975C150.229 13.3726 150.136 13.4827 150.068 13.6278C150 13.773 149.967 13.9502 149.967 14.1594C149.967 14.3704 150 14.5484 150.068 14.6936C150.136 14.8387 150.23 14.9484 150.348 15.0227C150.466 15.0969 150.599 15.1341 150.746 15.1341C150.828 15.1341 150.906 15.1231 150.979 15.1012C151.054 15.0784 151.121 15.045 151.181 15.0012C151.24 14.9573 151.291 14.9037 151.332 14.8404C151.375 14.7763 151.404 14.7029 151.42 14.6202L151.815 14.6214C151.794 14.7488 151.753 14.8661 151.692 14.9733C151.632 15.0796 151.555 15.1716 151.46 15.2492C151.367 15.326 151.259 15.3855 151.139 15.4277C151.018 15.4699 150.886 15.491 150.744 15.491C150.519 15.491 150.319 15.4378 150.144 15.3315C149.968 15.2244 149.83 15.0712 149.729 14.872C149.628 14.6729 149.578 14.4354 149.578 14.1594C149.578 13.8827 149.629 13.6451 149.73 13.4468C149.831 13.2477 149.97 13.0949 150.145 12.9886C150.321 12.8814 150.52 12.8279 150.744 12.8279C150.881 12.8279 151.01 12.8477 151.129 12.8873C151.248 12.9262 151.356 12.9835 151.451 13.0595C151.547 13.1346 151.626 13.2266 151.688 13.3354C151.751 13.4434 151.793 13.5671 151.815 13.7063Z" fill="#130C49"/>
<path d="M147.302 15.4985C147.179 15.4985 147.067 15.4757 146.968 15.4301C146.868 15.3837 146.789 15.3166 146.731 15.2289C146.674 15.1411 146.645 15.0335 146.645 14.9061C146.645 14.7964 146.666 14.7061 146.708 14.6352C146.75 14.5643 146.807 14.5082 146.879 14.4669C146.951 14.4255 147.031 14.3943 147.12 14.3732C147.208 14.3521 147.299 14.3361 147.391 14.3251C147.507 14.3116 147.602 14.3006 147.674 14.2922C147.747 14.2829 147.799 14.2682 147.832 14.2479C147.865 14.2277 147.882 14.1947 147.882 14.1492V14.1403C147.882 14.0298 147.85 13.9441 147.788 13.8834C147.726 13.8226 147.634 13.7922 147.512 13.7922C147.385 13.7922 147.284 13.8205 147.211 13.877C147.138 13.9327 147.088 13.9948 147.06 14.0631L146.705 13.9821C146.747 13.864 146.808 13.7686 146.889 13.696C146.971 13.6226 147.065 13.5695 147.172 13.5366C147.278 13.5028 147.39 13.4859 147.507 13.4859C147.585 13.4859 147.667 13.4952 147.754 13.5138C147.842 13.5315 147.923 13.5644 147.999 13.6125C148.076 13.6606 148.139 13.7294 148.188 13.8188C148.237 13.9074 148.261 14.0226 148.261 14.1644V15.4554H147.892V15.1896H147.877C147.852 15.2386 147.815 15.2867 147.766 15.3339C147.718 15.3812 147.655 15.4204 147.578 15.4516C147.501 15.4829 147.409 15.4985 147.302 15.4985ZM147.384 15.1947C147.489 15.1947 147.578 15.174 147.653 15.1327C147.728 15.0913 147.785 15.0373 147.823 14.9707C147.863 14.9031 147.883 14.831 147.883 14.7542V14.5036C147.869 14.5171 147.843 14.5297 147.804 14.5416C147.766 14.5525 147.723 14.5622 147.674 14.5707C147.625 14.5783 147.577 14.5854 147.531 14.5922C147.485 14.5981 147.446 14.6032 147.415 14.6074C147.341 14.6167 147.274 14.6323 147.213 14.6542C147.153 14.6762 147.105 14.7078 147.069 14.7491C147.034 14.7896 147.016 14.8437 147.016 14.9112C147.016 15.0048 147.05 15.0757 147.12 15.1238C147.189 15.1711 147.277 15.1947 147.384 15.1947Z" fill="#130C49"/>
<path d="M146.357 13.5113V13.8151H145.295V13.5113H146.357ZM145.58 13.0455H145.958V14.8846C145.958 14.958 145.969 15.0133 145.991 15.0504C146.013 15.0867 146.041 15.1116 146.076 15.1251C146.111 15.1378 146.15 15.1441 146.191 15.1441C146.221 15.1441 146.248 15.142 146.271 15.1378C146.293 15.1336 146.311 15.1302 146.324 15.1277L146.392 15.4403C146.37 15.4487 146.339 15.4572 146.299 15.4656C146.258 15.4749 146.207 15.48 146.147 15.4808C146.047 15.4825 145.954 15.4648 145.868 15.4276C145.782 15.3905 145.712 15.3331 145.659 15.2555C145.606 15.1779 145.58 15.0804 145.58 14.9631V13.0455Z" fill="#130C49"/>
<path d="M144.025 15.4985C143.902 15.4985 143.79 15.4757 143.691 15.4301C143.591 15.3837 143.512 15.3166 143.454 15.2289C143.396 15.1411 143.368 15.0335 143.368 14.9061C143.368 14.7964 143.389 14.7061 143.431 14.6352C143.473 14.5643 143.53 14.5082 143.602 14.4669C143.674 14.4255 143.754 14.3943 143.842 14.3732C143.931 14.3521 144.021 14.3361 144.113 14.3251C144.23 14.3116 144.324 14.3006 144.397 14.2922C144.469 14.2829 144.522 14.2682 144.555 14.2479C144.588 14.2277 144.604 14.1947 144.604 14.1492V14.1403C144.604 14.0298 144.573 13.9441 144.511 13.8834C144.449 13.8226 144.357 13.7922 144.235 13.7922C144.107 13.7922 144.007 13.8205 143.934 13.877C143.861 13.9327 143.811 13.9948 143.783 14.0631L143.427 13.9821C143.469 13.864 143.531 13.7686 143.612 13.696C143.694 13.6226 143.788 13.5695 143.894 13.5366C144.001 13.5028 144.112 13.4859 144.23 13.4859C144.307 13.4859 144.39 13.4952 144.477 13.5138C144.564 13.5315 144.646 13.5644 144.722 13.6125C144.799 13.6606 144.862 13.7294 144.911 13.8188C144.96 13.9074 144.984 14.0226 144.984 14.1644V15.4554H144.615V15.1896H144.599C144.575 15.2386 144.538 15.2867 144.489 15.3339C144.44 15.3812 144.377 15.4204 144.301 15.4516C144.224 15.4829 144.132 15.4985 144.025 15.4985ZM144.107 15.1947C144.212 15.1947 144.301 15.174 144.375 15.1327C144.45 15.0913 144.507 15.0373 144.546 14.9707C144.586 14.9031 144.606 14.831 144.606 14.7542V14.5036C144.592 14.5171 144.566 14.5297 144.527 14.5416C144.489 14.5525 144.446 14.5622 144.397 14.5707C144.348 14.5783 144.3 14.5854 144.254 14.5922C144.207 14.5981 144.169 14.6032 144.137 14.6074C144.064 14.6167 143.997 14.6323 143.936 14.6542C143.876 14.6762 143.828 14.7078 143.792 14.7491C143.756 14.7896 143.739 14.8437 143.739 14.9112C143.739 15.0048 143.773 15.0757 143.842 15.1238C143.912 15.1711 144 15.1947 144.107 15.1947Z" fill="#130C49"/>
<path d="M141.795 15.4555H140.956V12.8633H141.822C142.076 12.8633 142.294 12.9151 142.476 13.0189C142.659 13.1219 142.798 13.27 142.895 13.4632C142.993 13.6556 143.042 13.8864 143.042 14.1556C143.042 14.4256 142.993 14.6577 142.894 14.8517C142.796 15.0458 142.654 15.1952 142.469 15.2998C142.283 15.4036 142.059 15.4555 141.795 15.4555ZM141.347 15.1138H141.774C141.971 15.1138 142.135 15.0766 142.266 15.0024C142.397 14.9273 142.495 14.8188 142.56 14.6771C142.625 14.5345 142.657 14.3606 142.657 14.1556C142.657 13.9522 142.625 13.7797 142.56 13.6379C142.496 13.4961 142.4 13.3885 142.273 13.3151C142.145 13.2417 141.987 13.205 141.798 13.205H141.347V15.1138Z" fill="#130C49"/>
<path fill-rule="evenodd" clip-rule="evenodd" d="M83.1094 30.5437L85.3262 31.9579L83.1094 33.3722V32.2029H48.0844V31.713H83.1094V30.5437Z" fill="#130C49"/>
<path fill-rule="evenodd" clip-rule="evenodd" d="M168.907 28.658L171.124 30.0723L168.907 31.4865V30.3172H133.882V29.8273H168.907V28.658Z" fill="#130C49"/>
<path d="M187.715 35.9816C188.331 35.8638 188.954 35.7725 189.569 35.6315C190.01 35.5308 190.443 35.4007 190.851 35.1993C191.609 34.8276 192.032 34.1909 192.28 33.4133C192.506 32.707 192.622 31.9774 192.732 31.2447C192.747 31.1441 192.766 31.0434 192.822 30.9396C192.848 31.1146 192.873 31.2881 192.901 31.4632C193.009 32.1432 193.13 32.817 193.339 33.4768C193.671 34.5224 194.377 35.1622 195.415 35.4689C196.076 35.664 196.753 35.7833 197.433 35.884C197.59 35.9072 197.744 35.932 197.901 35.9738C197.529 36.0327 197.156 36.0885 196.786 36.152C196.18 36.2542 195.582 36.3812 195.009 36.6105C194.216 36.928 193.689 37.4965 193.398 38.2958C193.181 38.8921 193.06 39.5086 192.955 40.1313C192.907 40.4179 192.865 40.7045 192.781 40.9926C192.732 40.6843 192.685 40.3745 192.634 40.0678C192.531 39.4637 192.405 38.8643 192.196 38.2849C191.868 37.3741 191.223 36.8072 190.319 36.5098C189.618 36.2805 188.897 36.1582 188.17 36.0513C188.018 36.028 187.867 36.0048 187.715 35.9816Z" fill="#130C49"/>
<path d="M185.521 31.6459C185.809 31.5909 186.099 31.5483 186.386 31.4825C186.592 31.4355 186.794 31.3748 186.985 31.2808C187.338 31.1073 187.536 30.8102 187.651 30.4474C187.757 30.1177 187.811 29.7773 187.862 29.4354C187.87 29.3884 187.878 29.3414 187.904 29.293C187.917 29.3746 187.928 29.4556 187.941 29.5373C187.992 29.8546 188.048 30.1691 188.146 30.477C188.301 30.9649 188.63 31.2635 189.114 31.4066C189.423 31.4977 189.739 31.5534 190.056 31.6003C190.129 31.6112 190.202 31.6227 190.275 31.6423C190.101 31.6697 189.927 31.6958 189.754 31.7254C189.472 31.7731 189.193 31.8324 188.925 31.9394C188.555 32.0875 188.309 32.3528 188.173 32.7258C188.072 33.0041 188.016 33.2918 187.967 33.5824C187.944 33.7162 187.925 33.8499 187.886 33.9843C187.862 33.8405 187.841 33.6959 187.817 33.5528C187.769 33.2709 187.71 32.9911 187.612 32.7208C187.459 32.2957 187.158 32.0312 186.736 31.8924C186.41 31.7854 186.073 31.7283 185.734 31.6784C185.663 31.6676 185.592 31.6567 185.521 31.6459Z" fill="#130C49"/>
<path d="M187.474 39.7702C187.681 39.7308 187.89 39.7001 188.096 39.6529C188.244 39.6192 188.388 39.5756 188.525 39.5081C188.779 39.3835 188.921 39.1702 189.004 38.9097C189.08 38.673 189.119 38.4285 189.156 38.183C189.161 38.1493 189.167 38.1155 189.186 38.0808C189.194 38.1394 189.203 38.1975 189.212 38.2562C189.248 38.484 189.289 38.7098 189.359 38.9309C189.47 39.2813 189.707 39.4956 190.054 39.5984C190.276 39.6638 190.503 39.7038 190.731 39.7375C190.783 39.7453 190.835 39.7536 190.888 39.7676C190.763 39.7873 190.638 39.806 190.514 39.8273C190.311 39.8616 190.111 39.9041 189.918 39.9809C189.653 40.0873 189.476 40.2778 189.379 40.5456C189.306 40.7455 189.266 40.952 189.23 41.1607C189.214 41.2567 189.2 41.3527 189.172 41.4493C189.156 41.346 189.14 41.2422 189.123 41.1394C189.088 40.937 189.046 40.7361 188.976 40.542C188.866 40.2368 188.65 40.0469 188.347 39.9472C188.112 39.8704 187.87 39.8294 187.627 39.7936C187.576 39.7858 187.525 39.778 187.474 39.7702Z" fill="#130C49"/>
</svg>
