<svg width="63" height="63" viewBox="0 0 63 63" fill="none" xmlns="http://www.w3.org/2000/svg">
<g id="Datadog_logo 1" clip-path="url(#clip0_3950_964)">
<g id="layer1">
<path id="path20188" fill-rule="evenodd" clip-rule="evenodd" d="M61.2543 59.1271V61.3284C60.8516 61.4339 60.4902 61.4853 60.1739 61.4853C58.0378 61.4853 56.971 60.3573 56.971 58.0994C56.971 56.0149 58.103 54.9733 60.3646 54.9733C61.3093 54.9733 62.1879 55.149 63 55.5006V53.9216C62.1879 53.6155 61.2657 53.4611 60.2327 53.4611C56.8504 53.4611 55.1576 55.0059 55.1576 58.0994C55.1576 61.3647 56.8206 63.0001 60.1462 63.0001C61.2909 63.0001 62.2405 62.8333 63 62.4995V57.5798H60.1798L59.5901 59.1271H61.2543ZM49.3095 61.4841C51.2069 61.4841 52.1559 60.3911 52.1559 58.2036C52.1559 56.05 51.2069 54.9721 49.3095 54.9721C47.3632 54.9721 46.3905 56.05 46.3905 58.2036C46.3905 60.3911 47.3632 61.4841 49.3095 61.4841ZM44.5768 58.2439C44.5768 55.0548 46.1555 53.4611 49.3095 53.4611C52.4155 53.4611 53.9677 55.0548 53.9677 58.2439C53.9677 61.414 52.4155 63.0001 49.3095 63.0001C46.2948 63.0001 44.7186 61.414 44.5768 58.2439ZM36.639 61.4189H38.7149C40.6688 61.4189 41.6477 60.2705 41.6477 57.9729C41.6477 56.0162 40.6688 55.0385 38.7149 55.0385H36.639V61.4189ZM38.9785 62.9324H34.8933V53.5287H38.9785C41.9227 53.5287 43.3946 55.0109 43.3946 57.9738C43.3946 61.2783 41.9227 62.9324 38.9785 62.9324ZM25.5627 62.9324H23.7693L27.7701 53.5287H29.6475L33.7339 62.9324H31.8553L30.6691 60.3671H27.6511L28.2497 58.8561H30.2074L28.665 55.3234L25.5627 62.9324ZM17.5145 53.5287H24.6654V55.041H21.9632V62.9324H20.2178V55.041H17.5145V53.5287ZM10.331 62.9324H8.53761L12.5373 53.5287H14.4146L18.5022 62.9324H16.6236L15.4375 60.3671H12.4191L13.0193 58.8561H14.977L13.4346 55.3234L10.331 62.9324ZM1.74696 61.4189H3.82153C5.77675 61.4189 6.75312 60.2705 6.75312 57.9729C6.75312 56.0162 5.77675 55.0385 3.82153 55.0385H1.74696V61.4189ZM4.08485 62.9324H0V53.5287H4.08485C7.02782 53.5287 8.50131 55.0109 8.50131 57.9738C8.50131 61.2783 7.02782 62.9324 4.08485 62.9324Z" fill="#612BA6"/>
<path id="path20192" fill-rule="evenodd" clip-rule="evenodd" d="M31.3579 15.1925C31.6945 14.8729 29.6811 14.4527 28.1187 15.5183C26.9664 16.3045 26.9295 17.9894 28.0326 18.9445C28.1433 19.039 28.2341 19.1063 28.319 19.1614C28.6408 19.0097 29.008 18.8565 29.4304 18.7193C30.1444 18.488 30.7375 18.3677 31.225 18.3041C31.4585 18.0432 31.7301 17.5842 31.6625 16.7527C31.5702 15.6247 30.7153 15.8034 31.3579 15.1925ZM41.9267 21.3169C41.7363 21.2114 40.8445 21.2532 40.2179 21.3276C39.0241 21.4685 37.7355 21.8825 37.4531 22.1028C36.9396 22.4996 37.1728 23.1915 37.5524 23.4757C38.6162 24.2703 39.5486 24.8031 40.5326 24.6733C41.1368 24.5936 41.6699 23.6372 42.047 22.7691C42.3051 22.1714 42.305 21.5261 41.9267 21.3169ZM37.85 14.2557C37.7811 14.4123 37.6728 14.515 37.8351 15.026L37.8455 15.0552L37.8711 15.1214L37.9388 15.2745C38.231 15.8719 38.5519 16.4355 39.0884 16.7231C39.2275 16.7001 39.3711 16.6841 39.5196 16.6767C40.0235 16.6545 40.3416 16.7342 40.5431 16.8431C40.5612 16.7428 40.5649 16.5958 40.5535 16.3789C40.514 15.6222 40.7033 14.3351 39.2489 13.658C38.6998 13.4033 37.9295 13.4817 37.6726 13.8001C37.7196 13.8062 37.7613 13.8158 37.7945 13.8269C38.1827 13.9616 37.9199 14.0951 37.85 14.2557ZM52.8295 24.628L51.5766 24.8668L49.1701 0L8.16016 4.75519L13.2124 45.7548L18.0128 45.058C17.6295 44.5108 17.0328 43.8481 16.013 43.001C14.5992 41.8265 15.0991 39.8316 15.9333 38.5715C17.0364 36.4431 22.7211 33.7379 22.3994 30.3359C22.2838 29.099 22.0871 27.4886 20.9388 26.3852C20.8958 26.8432 20.9733 27.284 20.9733 27.284C20.9733 27.284 20.5014 26.683 20.2667 25.8625C20.0336 25.5475 19.8505 25.4472 19.6023 25.0273C19.4254 25.5134 19.4488 26.0766 19.4488 26.0766C19.4488 26.0766 19.063 25.1658 19.0006 24.3964C18.772 24.7406 18.7142 25.3946 18.7142 25.3946C18.7142 25.3946 18.2131 23.9581 18.3272 23.1841C18.099 22.5107 17.4207 21.1747 17.6123 18.1376C18.864 19.0143 21.6193 18.8063 22.6929 17.2239C23.0491 16.7001 23.2937 15.2696 22.5148 12.4506C22.0149 10.643 20.7768 7.95136 20.2938 6.93006L20.2362 6.97158C20.4903 7.79447 21.0148 9.51868 21.2163 10.3551C21.8257 12.8914 21.989 13.7743 21.7026 14.9439C21.4596 15.9602 20.8761 16.6253 19.397 17.3685C17.9183 18.1142 15.9551 16.2995 15.8311 16.199C14.394 15.054 13.2822 13.1864 13.1583 12.279C13.0294 11.286 13.7307 10.6895 14.0845 9.87767C13.5785 10.0222 13.0146 10.2794 13.0146 10.2794C13.0146 10.2794 13.6877 9.58266 14.5179 8.98003C14.8621 8.75209 15.0636 8.60782 15.4257 8.30635C14.9012 8.29773 14.4752 8.31245 14.4752 8.31245C14.4752 8.31245 15.3497 7.83995 16.2563 7.49572C15.5931 7.46619 14.9578 7.49079 14.9578 7.49079C14.9578 7.49079 16.9097 6.61777 18.4514 5.97731C19.5115 5.54233 20.5469 5.67122 21.1292 6.51225C21.8931 7.61445 22.6953 8.21339 24.3955 8.58438C25.4396 8.12141 25.7564 7.88393 27.0684 7.52617C28.2229 6.25632 29.1294 6.09235 29.1294 6.09235C29.1294 6.09235 28.68 6.50487 28.5594 7.15272C29.2143 6.63715 29.9317 6.20617 29.9317 6.20617C29.9317 6.20617 29.6539 6.54917 29.3949 7.09397L29.4549 7.18348C30.219 6.72543 31.1169 6.36429 31.1169 6.36429C31.1169 6.36429 30.8603 6.68883 30.5592 7.10873C31.1354 7.1038 32.3037 7.13332 32.7568 7.1847C35.4334 7.24345 35.9886 4.3263 37.0155 3.96024C38.3016 3.50096 38.8766 3.22318 41.068 5.3759C42.9485 7.22378 44.4177 10.5316 43.688 11.2724C43.0764 11.887 41.87 11.0324 40.5325 9.36573C39.8259 8.48286 39.2915 7.43941 39.0411 6.11326C38.8298 4.99384 38.0081 4.34476 38.0081 4.34476C38.0081 4.34476 38.4846 5.40789 38.4846 6.34459C38.4846 6.85647 38.5486 8.76926 39.369 9.84316C39.2878 10 39.25 10.6196 39.1602 10.7383C38.2059 9.58476 36.1557 8.75941 35.8216 8.51578C36.953 9.44294 39.5533 11.5723 40.5521 13.614C41.4968 15.544 40.94 17.3134 41.4181 17.7714C41.5541 17.9025 43.4496 20.2647 43.8144 21.4512C44.4506 23.5196 43.8525 25.6933 43.0198 27.0416L40.6942 27.404C40.3543 27.3098 40.1246 27.2621 39.82 27.0856C39.988 26.7881 40.3223 26.0461 40.3257 25.8929L40.1947 25.6628C39.4708 26.6878 38.2585 27.6833 37.2514 28.2551C35.9333 29.0023 34.4139 28.887 33.4249 28.5809C30.6182 27.7153 27.9638 25.8182 27.3237 25.3198C27.3237 25.3198 27.304 25.7179 27.4245 25.8074C28.1321 26.6057 29.7535 28.0496 31.3208 29.0562L27.9795 29.4235L29.5594 41.7221C28.8593 41.8224 28.7497 41.8716 27.9832 41.9805C27.3076 39.5937 26.0153 38.035 24.6028 37.1275C23.3572 36.3268 21.6389 36.1465 19.994 36.4723L19.8886 36.5947C21.032 36.476 22.3821 36.6412 23.7688 37.5194C25.13 38.3801 26.2267 40.603 26.6309 41.9415C27.148 43.6521 27.5055 45.4818 26.1138 47.4214C25.1239 48.8005 22.2335 49.5621 19.8984 47.9139C20.5222 48.9167 21.3648 49.7372 22.4999 49.8916C24.1854 50.1205 25.7847 49.8279 26.8853 48.6977C27.8248 47.7312 28.3237 45.7107 28.1921 43.5826L29.6797 43.367L30.2165 47.1864L54.8379 44.2215L52.8295 24.628ZM29.2535 30.2747L32.3515 29.8484C32.8526 30.0738 33.2014 30.1597 33.8022 30.3126C34.7383 30.5562 35.8217 30.7903 37.4259 29.9819C37.7994 29.797 38.577 29.0855 38.8914 28.6803L51.5828 26.3778L52.8775 42.048L31.1342 45.9667L29.2535 30.2747ZM47.2589 35.4753L43.1021 32.7335L39.6346 38.526L35.6017 37.3469L32.0506 42.7669L32.2324 44.4726L51.5397 40.9153L50.4181 28.8517L47.2589 35.4753Z" fill="#612BA6"/>
</g>
</g>
<defs>
<clipPath id="clip0_3950_964">
<rect width="63" height="63" fill="white"/>
</clipPath>
</defs>
</svg>
