<svg width="220" height="56" viewBox="0 0 220 56" fill="none" xmlns="http://www.w3.org/2000/svg">
<path d="M0 8.80399C0 8.06312 0.600589 7.46253 1.34145 7.46253H46.9509C47.6917 7.46253 48.2923 8.06312 48.2923 8.80399V54.4134C48.2923 55.1543 47.6917 55.7549 46.9509 55.7549H1.34145C0.60059 55.7549 0 55.1543 0 54.4134V8.80399Z" fill="#F7F9FD"/>
<path fill-rule="evenodd" clip-rule="evenodd" d="M46.9509 7.90968H1.34145C0.847544 7.90968 0.447151 8.31008 0.447151 8.80399V54.4134C0.447151 54.9073 0.847544 55.3077 1.34145 55.3077H46.9509C47.4448 55.3077 47.8452 54.9073 47.8452 54.4134V8.80399C47.8452 8.31008 47.4448 7.90968 46.9509 7.90968ZM1.34145 7.46253C0.600589 7.46253 0 8.06312 0 8.80399V54.4134C0 55.1543 0.60059 55.7549 1.34145 55.7549H46.9509C47.6917 55.7549 48.2923 55.1543 48.2923 54.4134V8.80399C48.2923 8.06312 47.6917 7.46253 46.9509 7.46253H1.34145Z" fill="#130C49"/>
<path d="M85.8533 8.8042C85.8533 8.06334 86.4539 7.46275 87.1947 7.46275H132.804C133.545 7.46275 134.146 8.06333 134.146 8.8042V54.4136C134.146 55.1545 133.545 55.7551 132.804 55.7551H87.1947C86.4539 55.7551 85.8533 55.1545 85.8533 54.4136V8.8042Z" fill="#F7F9FD"/>
<path fill-rule="evenodd" clip-rule="evenodd" d="M132.804 7.9099H87.1947C86.7008 7.9099 86.3004 8.31029 86.3004 8.8042V54.4136C86.3004 54.9075 86.7008 55.3079 87.1947 55.3079H132.804C133.298 55.3079 133.698 54.9075 133.698 54.4136V8.8042C133.698 8.31029 133.298 7.9099 132.804 7.9099ZM87.1947 7.46275C86.4539 7.46275 85.8533 8.06334 85.8533 8.8042V54.4136C85.8533 55.1545 86.4539 55.7551 87.1947 55.7551H132.804C133.545 55.7551 134.146 55.1545 134.146 54.4136V8.8042C134.146 8.06333 133.545 7.46275 132.804 7.46275H87.1947Z" fill="#130C49"/>
<path d="M105.528 19.0886H120.547V37.4453H105.528V19.0886Z" fill="#85E3BC"/>
<path fill-rule="evenodd" clip-rule="evenodd" d="M120.1 19.5357H105.975V36.9981H120.1V19.5357ZM105.528 19.0886V37.4453H120.547V19.0886H105.528Z" fill="#130C49"/>
<path fill-rule="evenodd" clip-rule="evenodd" d="M108.866 23.8711C108.866 23.7476 108.966 23.6475 109.09 23.6475H116.986C117.11 23.6475 117.21 23.7476 117.21 23.8711C117.21 23.9945 117.11 24.0946 116.986 24.0946H109.09C108.966 24.0946 108.866 23.9945 108.866 23.8711Z" fill="#130C49"/>
<path fill-rule="evenodd" clip-rule="evenodd" d="M108.866 27.209C108.866 27.0855 108.966 26.9854 109.09 26.9854H116.986C117.11 26.9854 117.21 27.0855 117.21 27.209C117.21 27.3325 117.11 27.4326 116.986 27.4326H109.09C108.966 27.4326 108.866 27.3325 108.866 27.209Z" fill="#130C49"/>
<path fill-rule="evenodd" clip-rule="evenodd" d="M108.866 30.5467C108.866 30.4232 108.966 30.3231 109.09 30.3231H116.986C117.11 30.3231 117.21 30.4232 117.21 30.5467C117.21 30.6702 117.11 30.7703 116.986 30.7703H109.09C108.966 30.7703 108.866 30.6702 108.866 30.5467Z" fill="#130C49"/>
<path d="M102.397 22.2184H117.416V40.5751H102.397V22.2184Z" fill="#85E3BC"/>
<path fill-rule="evenodd" clip-rule="evenodd" d="M116.969 22.6655H102.844V40.128H116.969V22.6655ZM102.397 22.2184V40.5751H117.416V22.2184H102.397Z" fill="#130C49"/>
<path fill-rule="evenodd" clip-rule="evenodd" d="M105.735 27.001C105.735 26.8775 105.835 26.7774 105.959 26.7774H113.855C113.979 26.7774 114.079 26.8775 114.079 27.001C114.079 27.1245 113.979 27.2246 113.855 27.2246H105.959C105.835 27.2246 105.735 27.1245 105.735 27.001Z" fill="#130C49"/>
<path fill-rule="evenodd" clip-rule="evenodd" d="M105.735 30.3389C105.735 30.2155 105.835 30.1154 105.959 30.1154H113.855C113.979 30.1154 114.079 30.2155 114.079 30.3389C114.079 30.4624 113.979 30.5625 113.855 30.5625H105.959C105.835 30.5625 105.735 30.4624 105.735 30.3389Z" fill="#130C49"/>
<path fill-rule="evenodd" clip-rule="evenodd" d="M105.735 33.6767C105.735 33.5532 105.835 33.4531 105.959 33.4531H113.855C113.979 33.4531 114.079 33.5532 114.079 33.6767C114.079 33.8001 113.979 33.9002 113.855 33.9002H105.959C105.835 33.9002 105.735 33.8001 105.735 33.6767Z" fill="#130C49"/>
<path d="M99.2671 25.7957H114.286V44.1524H99.2671V25.7957Z" fill="#85E3BC"/>
<path fill-rule="evenodd" clip-rule="evenodd" d="M113.839 26.2429H99.7142V43.7053H113.839V26.2429ZM99.2671 25.7957V44.1524H114.286V25.7957H99.2671Z" fill="#130C49"/>
<path d="M171.708 8.80398C171.708 8.06311 172.308 7.46252 173.049 7.46252H218.659C219.399 7.46252 220 8.06311 220 8.80398V54.4134C220 55.1543 219.399 55.7548 218.659 55.7548H173.049C172.308 55.7548 171.708 55.1543 171.708 54.4134V8.80398Z" fill="#F7F9FD"/>
<path fill-rule="evenodd" clip-rule="evenodd" d="M218.659 7.90968H173.049C172.555 7.90968 172.155 8.31007 172.155 8.80398V54.4134C172.155 54.9073 172.555 55.3077 173.049 55.3077H218.659C219.153 55.3077 219.553 54.9073 219.553 54.4134V8.80398C219.553 8.31007 219.153 7.90968 218.659 7.90968ZM173.049 7.46252C172.308 7.46252 171.708 8.06311 171.708 8.80398V54.4134C171.708 55.1543 172.308 55.7548 173.049 55.7548H218.659C219.399 55.7548 220 55.1543 220 54.4134V8.80398C220 8.06311 219.399 7.46252 218.659 7.46252H173.049Z" fill="#130C49"/>
<path d="M18.3392 19.5351H33.3584V37.8918H18.3392V19.5351Z" fill="#85E3BC"/>
<path fill-rule="evenodd" clip-rule="evenodd" d="M32.9112 19.9822H18.7864V37.4447H32.9112V19.9822ZM18.3392 19.5351V37.8918H33.3584V19.5351H18.3392Z" fill="#130C49"/>
<path fill-rule="evenodd" clip-rule="evenodd" d="M21.677 24.3177C21.677 24.1942 21.7771 24.0941 21.9006 24.0941H29.7974C29.9209 24.0941 30.021 24.1942 30.021 24.3177C30.021 24.4412 29.9209 24.5413 29.7974 24.5413H21.9006C21.7771 24.5413 21.677 24.4412 21.677 24.3177Z" fill="#130C49"/>
<path fill-rule="evenodd" clip-rule="evenodd" d="M21.677 27.6558C21.677 27.5323 21.7771 27.4322 21.9006 27.4322H29.7974C29.9209 27.4322 30.021 27.5323 30.021 27.6558C30.021 27.7792 29.9209 27.8793 29.7974 27.8793H21.9006C21.7771 27.8793 21.677 27.7792 21.677 27.6558Z" fill="#130C49"/>
<path fill-rule="evenodd" clip-rule="evenodd" d="M21.677 30.9935C21.677 30.87 21.7771 30.7699 21.9006 30.7699H29.7974C29.9209 30.7699 30.021 30.87 30.021 30.9935C30.021 31.117 29.9209 31.217 29.7974 31.217H21.9006C21.7771 31.217 21.677 31.117 21.677 30.9935Z" fill="#130C49"/>
<path d="M15.2091 22.6652H30.2283V41.022H15.2091V22.6652Z" fill="#85E3BC"/>
<path fill-rule="evenodd" clip-rule="evenodd" d="M29.7811 23.1124H15.6563V40.5748H29.7811V23.1124ZM15.2091 22.6652V41.022H30.2283V22.6652H15.2091Z" fill="#130C49"/>
<path fill-rule="evenodd" clip-rule="evenodd" d="M18.547 27.4478C18.547 27.3244 18.6471 27.2243 18.7706 27.2243H26.6674C26.7909 27.2243 26.891 27.3244 26.891 27.4478C26.891 27.5713 26.7909 27.6714 26.6674 27.6714H18.7706C18.6471 27.6714 18.547 27.5713 18.547 27.4478Z" fill="#130C49"/>
<path fill-rule="evenodd" clip-rule="evenodd" d="M18.547 30.7854C18.547 30.6619 18.6471 30.5618 18.7706 30.5618H26.6674C26.7909 30.5618 26.891 30.6619 26.891 30.7854C26.891 30.9088 26.7909 31.0089 26.6674 31.0089H18.7706C18.6471 31.0089 18.547 30.9088 18.547 30.7854Z" fill="#130C49"/>
<path fill-rule="evenodd" clip-rule="evenodd" d="M18.547 34.1232C18.547 33.9997 18.6471 33.8996 18.7706 33.8996H26.6674C26.7909 33.8996 26.891 33.9997 26.891 34.1232C26.891 34.2467 26.7909 34.3467 26.6674 34.3467H18.7706C18.6471 34.3467 18.547 34.2467 18.547 34.1232Z" fill="#130C49"/>
<path d="M12.0797 26.2427H27.0989V44.5995H12.0797V26.2427Z" fill="#85E3BC"/>
<path fill-rule="evenodd" clip-rule="evenodd" d="M26.6517 26.6899H12.5269V44.1523H26.6517V26.6899ZM12.0797 26.2427V44.5995H27.0989V26.2427H12.0797Z" fill="#130C49"/>
<path d="M77.8939 23.7431V24.9016H77.514V22.9504H77.8786V23.268H77.9028C77.9476 23.1647 78.0179 23.0817 78.1136 23.019C78.2102 22.9563 78.3317 22.925 78.4782 22.925C78.6112 22.925 78.7276 22.9529 78.8275 23.0088C78.9275 23.0639 79.005 23.146 79.06 23.2553C79.1151 23.3645 79.1426 23.4996 79.1426 23.6605V24.9016H78.7628V23.7062C78.7628 23.5648 78.7259 23.4543 78.6522 23.3747C78.5786 23.2942 78.4774 23.254 78.3486 23.254C78.2606 23.254 78.1822 23.2731 78.1136 23.3112C78.0459 23.3493 77.9921 23.4052 77.9523 23.4788C77.9133 23.5517 77.8939 23.6398 77.8939 23.7431Z" fill="#130C49"/>
<path d="M76.2184 24.941C76.0355 24.941 75.8758 24.8991 75.7395 24.8152C75.6031 24.7314 75.4973 24.6141 75.4219 24.4633C75.3465 24.3126 75.3088 24.1364 75.3088 23.9349C75.3088 23.7325 75.3465 23.5555 75.4219 23.4039C75.4973 23.2523 75.6031 23.1346 75.7395 23.0507C75.8758 22.9669 76.0355 22.925 76.2184 22.925C76.4013 22.925 76.5609 22.9669 76.6973 23.0507C76.8336 23.1346 76.9395 23.2523 77.0149 23.4039C77.0902 23.5555 77.1279 23.7325 77.1279 23.9349C77.1279 24.1364 77.0902 24.3126 77.0149 24.4633C76.9395 24.6141 76.8336 24.7314 76.6973 24.8152C76.5609 24.8991 76.4013 24.941 76.2184 24.941ZM76.2197 24.6221C76.3382 24.6221 76.4365 24.5908 76.5144 24.5281C76.5923 24.4655 76.6499 24.382 76.6871 24.2779C76.7252 24.1737 76.7443 24.059 76.7443 23.9336C76.7443 23.8091 76.7252 23.6948 76.6871 23.5906C76.6499 23.4856 76.5923 23.4014 76.5144 23.3378C76.4365 23.2743 76.3382 23.2426 76.2197 23.2426C76.1002 23.2426 76.0012 23.2743 75.9224 23.3378C75.8445 23.4014 75.7865 23.4856 75.7484 23.5906C75.7111 23.6948 75.6925 23.8091 75.6925 23.9336C75.6925 24.059 75.7111 24.1737 75.7484 24.2779C75.7865 24.382 75.8445 24.4655 75.9224 24.5281C76.0012 24.5908 76.1002 24.6221 76.2197 24.6221Z" fill="#130C49"/>
<path d="M74.5466 24.9014V22.9502H74.9264V24.9014H74.5466ZM74.7384 22.6491C74.6723 22.6491 74.6156 22.6271 74.5682 22.5831C74.5216 22.5382 74.4983 22.4848 74.4983 22.423C74.4983 22.3603 74.5216 22.307 74.5682 22.2629C74.6156 22.2181 74.6723 22.1956 74.7384 22.1956C74.8044 22.1956 74.8608 22.2181 74.9073 22.2629C74.9548 22.307 74.9785 22.3603 74.9785 22.423C74.9785 22.4848 74.9548 22.5382 74.9073 22.5831C74.8608 22.6271 74.8044 22.6491 74.7384 22.6491Z" fill="#130C49"/>
<path d="M74.1653 22.95V23.2549H73.0995V22.95H74.1653ZM73.3853 22.4826H73.7651V24.3283C73.7651 24.402 73.7761 24.4575 73.7982 24.4947C73.8202 24.5312 73.8486 24.5561 73.8833 24.5697C73.9188 24.5824 73.9574 24.5887 73.9989 24.5887C74.0294 24.5887 74.056 24.5866 74.0789 24.5824C74.1018 24.5782 74.1196 24.5748 74.1323 24.5722L74.2009 24.886C74.1788 24.8945 74.1475 24.9029 74.1068 24.9114C74.0662 24.9207 74.0154 24.9258 73.9544 24.9266C73.8545 24.9283 73.7613 24.9106 73.6749 24.8733C73.5886 24.836 73.5187 24.7784 73.4653 24.7005C73.412 24.6226 73.3853 24.5248 73.3853 24.4071V22.4826Z" fill="#130C49"/>
<path d="M71.8259 24.9448C71.7023 24.9448 71.5905 24.9219 71.4906 24.8762C71.3906 24.8296 71.3114 24.7623 71.253 24.6742C71.1954 24.5861 71.1666 24.4782 71.1666 24.3503C71.1666 24.2402 71.1878 24.1496 71.2301 24.0784C71.2725 24.0073 71.3296 23.951 71.4016 23.9095C71.4736 23.868 71.5541 23.8367 71.643 23.8155C71.7319 23.7943 71.8225 23.7782 71.9148 23.7672C72.0317 23.7537 72.1266 23.7426 72.1994 23.7342C72.2722 23.7249 72.3252 23.71 72.3582 23.6897C72.3912 23.6694 72.4077 23.6364 72.4077 23.5906V23.5817C72.4077 23.4708 72.3764 23.3848 72.3137 23.3239C72.2519 23.2629 72.1596 23.2324 72.0368 23.2324C71.9089 23.2324 71.8081 23.2608 71.7345 23.3175C71.6616 23.3734 71.6112 23.4357 71.5833 23.5043L71.2263 23.423C71.2687 23.3044 71.3305 23.2087 71.4118 23.1359C71.4939 23.0622 71.5884 23.0088 71.6951 22.9758C71.8018 22.9419 71.914 22.925 72.0317 22.925C72.1096 22.925 72.1922 22.9343 72.2794 22.9529C72.3675 22.9707 72.4496 23.0037 72.5259 23.052C72.6029 23.1003 72.666 23.1693 72.7151 23.2591C72.7643 23.348 72.7888 23.4636 72.7888 23.6059V24.9016H72.4179V24.6348H72.4026C72.3781 24.684 72.3412 24.7322 72.2921 24.7796C72.243 24.8271 72.1799 24.8665 72.1028 24.8978C72.0258 24.9291 71.9335 24.9448 71.8259 24.9448ZM71.9085 24.6399C72.0135 24.6399 72.1033 24.6192 72.1778 24.5777C72.2532 24.5362 72.3103 24.482 72.3493 24.4151C72.3891 24.3473 72.409 24.2749 72.409 24.1978V23.9463C72.3954 23.9599 72.3692 23.9726 72.3302 23.9844C72.2921 23.9954 72.2485 24.0052 72.1994 24.0136C72.1503 24.0213 72.1024 24.0285 72.0558 24.0352C72.0093 24.0412 71.9703 24.0463 71.939 24.0505C71.8653 24.0598 71.798 24.0755 71.737 24.0975C71.6769 24.1195 71.6286 24.1513 71.5922 24.1928C71.5566 24.2334 71.5388 24.2876 71.5388 24.3554C71.5388 24.4494 71.5736 24.5205 71.643 24.5688C71.7124 24.6162 71.8009 24.6399 71.9085 24.6399Z" fill="#130C49"/>
<path d="M68.1353 24.9016V22.9504H68.4998V23.268H68.524C68.5646 23.1604 68.6311 23.0766 68.7234 23.0165C68.8157 22.9555 68.9262 22.925 69.055 22.925C69.1854 22.925 69.2946 22.9555 69.3827 23.0165C69.4716 23.0774 69.5373 23.1613 69.5796 23.268H69.5999C69.6465 23.1638 69.7206 23.0808 69.8222 23.019C69.9239 22.9563 70.045 22.925 70.1855 22.925C70.3625 22.925 70.5069 22.9805 70.6187 23.0914C70.7314 23.2023 70.7877 23.3696 70.7877 23.5932V24.9016H70.4078V23.6287C70.4078 23.4966 70.3719 23.4009 70.2999 23.3417C70.2279 23.2824 70.1419 23.2527 70.042 23.2527C69.9184 23.2527 69.8222 23.2908 69.7536 23.3671C69.685 23.4424 69.6507 23.5394 69.6507 23.658V24.9016H69.2722V23.6046C69.2722 23.4987 69.2392 23.4136 69.1731 23.3493C69.107 23.2849 69.0211 23.2527 68.9152 23.2527C68.8432 23.2527 68.7768 23.2718 68.7158 23.3099C68.6557 23.3472 68.607 23.3992 68.5697 23.4661C68.5333 23.533 68.5151 23.6105 68.5151 23.6986V24.9016H68.1353Z" fill="#130C49"/>
<path d="M66.802 24.9015V22.9503H67.1691V23.2603H67.1894C67.225 23.1553 67.2877 23.0727 67.3775 23.0126C67.4681 22.9516 67.5705 22.9211 67.6849 22.9211C67.7086 22.9211 67.7365 22.922 67.7687 22.9237C67.8017 22.9253 67.8276 22.9275 67.8462 22.93V23.2933C67.831 23.2891 67.8039 23.2844 67.7649 23.2793C67.7259 23.2734 67.687 23.2704 67.648 23.2704C67.5583 23.2704 67.4782 23.2895 67.4079 23.3276C67.3385 23.3649 67.2835 23.417 67.2428 23.4839C67.2022 23.5499 67.1818 23.6253 67.1818 23.71V24.9015H66.802Z" fill="#130C49"/>
<path d="M65.5072 24.941C65.3243 24.941 65.1646 24.8991 65.0283 24.8152C64.8919 24.7314 64.7861 24.6141 64.7107 24.4633C64.6353 24.3126 64.5977 24.1364 64.5977 23.9349C64.5977 23.7325 64.6353 23.5555 64.7107 23.4039C64.7861 23.2523 64.8919 23.1346 65.0283 23.0507C65.1646 22.9669 65.3243 22.925 65.5072 22.925C65.6901 22.925 65.8498 22.9669 65.9861 23.0507C66.1225 23.1346 66.2283 23.2523 66.3037 23.4039C66.3791 23.5555 66.4167 23.7325 66.4167 23.9349C66.4167 24.1364 66.3791 24.3126 66.3037 24.4633C66.2283 24.6141 66.1225 24.7314 65.9861 24.8152C65.8498 24.8991 65.6901 24.941 65.5072 24.941ZM65.5085 24.6221C65.627 24.6221 65.7253 24.5908 65.8032 24.5281C65.8811 24.4655 65.9387 24.382 65.9759 24.2779C66.0141 24.1737 66.0331 24.059 66.0331 23.9336C66.0331 23.8091 66.0141 23.6948 65.9759 23.5906C65.9387 23.4856 65.8811 23.4014 65.8032 23.3378C65.7253 23.2743 65.627 23.2426 65.5085 23.2426C65.3891 23.2426 65.29 23.2743 65.2112 23.3378C65.1333 23.4014 65.0753 23.4856 65.0372 23.5906C64.9999 23.6948 64.9813 23.8091 64.9813 23.9336C64.9813 24.059 64.9999 24.1737 65.0372 24.2779C65.0753 24.382 65.1333 24.4655 65.2112 24.5281C65.29 24.5908 65.3891 24.6221 65.5085 24.6221Z" fill="#130C49"/>
<path d="M64.41 22.9502V23.2551H63.3074V22.9502H64.41ZM63.6097 24.9014V22.7241C63.6097 22.6021 63.6364 22.5009 63.6897 22.4205C63.7431 22.3392 63.8138 22.2786 63.9019 22.2388C63.99 22.1982 64.0857 22.1778 64.189 22.1778C64.2652 22.1778 64.3304 22.1842 64.3846 22.1969C64.4388 22.2088 64.479 22.2198 64.5053 22.2299L64.4164 22.5373C64.3986 22.5323 64.3757 22.5263 64.3478 22.5196C64.3198 22.5119 64.2859 22.5081 64.2461 22.5081C64.1538 22.5081 64.0878 22.531 64.048 22.5767C64.009 22.6225 63.9895 22.6885 63.9895 22.7749V24.9014H63.6097Z" fill="#130C49"/>
<path d="M63.065 23.4268L62.7207 23.4877C62.7063 23.4437 62.6835 23.4018 62.6521 23.362C62.6217 23.3222 62.5802 23.2896 62.5277 23.2642C62.4751 23.2388 62.4095 23.2261 62.3308 23.2261C62.2232 23.2261 62.1334 23.2502 62.0614 23.2985C61.9895 23.3459 61.9535 23.4073 61.9535 23.4827C61.9535 23.5479 61.9776 23.6004 62.0259 23.6402C62.0741 23.68 62.1521 23.7126 62.2596 23.738L62.5696 23.8091C62.7491 23.8506 62.8829 23.9146 62.971 24.0009C63.0591 24.0873 63.1031 24.1995 63.1031 24.3376C63.1031 24.4544 63.0692 24.5586 63.0015 24.6501C62.9346 24.7407 62.841 24.8118 62.7207 24.8635C62.6013 24.9151 62.4629 24.941 62.3053 24.941C62.0869 24.941 61.9086 24.8944 61.7705 24.8012C61.6325 24.7072 61.5478 24.5739 61.5165 24.4011L61.8836 24.3452C61.9065 24.4409 61.9535 24.5133 62.0246 24.5624C62.0957 24.6107 62.1885 24.6348 62.3028 24.6348C62.4273 24.6348 62.5268 24.609 62.6013 24.5573C62.6759 24.5048 62.7131 24.4409 62.7131 24.3655C62.7131 24.3046 62.6903 24.2533 62.6445 24.2118C62.5996 24.1703 62.5306 24.139 62.4375 24.1178L62.1072 24.0454C61.9251 24.0039 61.7904 23.9379 61.7032 23.8472C61.6168 23.7566 61.5736 23.6419 61.5736 23.503C61.5736 23.3878 61.6058 23.287 61.6702 23.2006C61.7346 23.1143 61.8235 23.0469 61.937 22.9987C62.0504 22.9495 62.1804 22.925 62.3269 22.925C62.5378 22.925 62.7038 22.9707 62.8249 23.0622C62.946 23.1528 63.026 23.2743 63.065 23.4268Z" fill="#130C49"/>
<path d="M59.8851 23.7431V24.9016H59.5052V22.9504H59.8698V23.268H59.894C59.9389 23.1647 60.0091 23.0817 60.1048 23.019C60.2014 22.9563 60.3229 22.925 60.4694 22.925C60.6024 22.925 60.7188 22.9529 60.8188 23.0088C60.9187 23.0639 60.9962 23.146 61.0512 23.2553C61.1063 23.3645 61.1338 23.4996 61.1338 23.6605V24.9016H60.754V23.7062C60.754 23.5648 60.7171 23.4543 60.6435 23.3747C60.5698 23.2942 60.4686 23.254 60.3398 23.254C60.2518 23.254 60.1734 23.2731 60.1048 23.3112C60.0371 23.3493 59.9833 23.4052 59.9435 23.4788C59.9046 23.5517 59.8851 23.6398 59.8851 23.7431Z" fill="#130C49"/>
<path d="M58.0749 24.9448C57.9513 24.9448 57.8395 24.9219 57.7396 24.8762C57.6396 24.8296 57.5605 24.7623 57.502 24.6742C57.4444 24.5861 57.4156 24.4782 57.4156 24.3503C57.4156 24.2402 57.4368 24.1496 57.4792 24.0784C57.5215 24.0073 57.5787 23.951 57.6507 23.9095C57.7226 23.868 57.8031 23.8367 57.892 23.8155C57.9809 23.7943 58.0716 23.7782 58.1639 23.7672C58.2807 23.7537 58.3756 23.7426 58.4484 23.7342C58.5212 23.7249 58.5742 23.71 58.6072 23.6897C58.6402 23.6694 58.6567 23.6364 58.6567 23.5906V23.5817C58.6567 23.4708 58.6254 23.3848 58.5627 23.3239C58.5009 23.2629 58.4086 23.2324 58.2858 23.2324C58.1579 23.2324 58.0572 23.2608 57.9835 23.3175C57.9106 23.3734 57.8603 23.4357 57.8323 23.5043L57.4754 23.423C57.5177 23.3044 57.5795 23.2087 57.6608 23.1359C57.743 23.0622 57.8374 23.0088 57.9441 22.9758C58.0508 22.9419 58.163 22.925 58.2807 22.925C58.3586 22.925 58.4412 22.9343 58.5284 22.9529C58.6165 22.9707 58.6987 23.0037 58.7749 23.052C58.852 23.1003 58.915 23.1693 58.9642 23.2591C59.0133 23.348 59.0378 23.4636 59.0378 23.6059V24.9016H58.6669V24.6348H58.6517C58.6271 24.684 58.5903 24.7322 58.5411 24.7796C58.492 24.8271 58.4289 24.8665 58.3519 24.8978C58.2748 24.9291 58.1825 24.9448 58.0749 24.9448ZM58.1575 24.6399C58.2625 24.6399 58.3523 24.6192 58.4268 24.5777C58.5022 24.5362 58.5594 24.482 58.5983 24.4151C58.6381 24.3473 58.658 24.2749 58.658 24.1978V23.9463C58.6445 23.9599 58.6182 23.9726 58.5793 23.9844C58.5411 23.9954 58.4975 24.0052 58.4484 24.0136C58.3993 24.0213 58.3514 24.0285 58.3049 24.0352C58.2583 24.0412 58.2193 24.0463 58.188 24.0505C58.1143 24.0598 58.047 24.0755 57.986 24.0975C57.9259 24.1195 57.8776 24.1513 57.8412 24.1928C57.8056 24.2334 57.7879 24.2876 57.7879 24.3554C57.7879 24.4494 57.8226 24.5205 57.892 24.5688C57.9615 24.6162 58.05 24.6399 58.1575 24.6399Z" fill="#130C49"/>
<path d="M56.1915 24.9015V22.9503H56.5586V23.2603H56.579C56.6145 23.1553 56.6772 23.0727 56.767 23.0126C56.8576 22.9516 56.9601 22.9211 57.0744 22.9211C57.0981 22.9211 57.1261 22.922 57.1582 22.9237C57.1913 22.9253 57.2171 22.9275 57.2357 22.93V23.2933C57.2205 23.2891 57.1934 23.2844 57.1544 23.2793C57.1155 23.2734 57.0765 23.2704 57.0376 23.2704C56.9478 23.2704 56.8678 23.2895 56.7975 23.3276C56.728 23.3649 56.673 23.417 56.6323 23.4839C56.5917 23.5499 56.5714 23.6253 56.5714 23.71V24.9015H56.1915Z" fill="#130C49"/>
<path d="M54.0054 22.6379V22.3H56.0188V22.6379H55.2071V24.9016H54.8158V22.6379H54.0054Z" fill="#130C49"/>
<path d="M68.8885 19.5789C68.7649 19.5789 68.6531 19.556 68.5532 19.5103C68.4532 19.4637 68.3741 19.3964 68.3156 19.3083C68.258 19.2202 68.2292 19.1122 68.2292 18.9843C68.2292 18.8743 68.2504 18.7836 68.2928 18.7125C68.3351 18.6414 68.3923 18.585 68.4643 18.5435C68.5362 18.502 68.6167 18.4707 68.7056 18.4495C68.7945 18.4284 68.8852 18.4123 68.9775 18.4013C69.0943 18.3877 69.1892 18.3767 69.262 18.3682C69.3348 18.3589 69.3878 18.3441 69.4208 18.3238C69.4538 18.3035 69.4703 18.2704 69.4703 18.2247V18.2158C69.4703 18.1049 69.439 18.0189 69.3763 17.9579C69.3145 17.897 69.2222 17.8665 69.0994 17.8665C68.9715 17.8665 68.8708 17.8948 68.7971 17.9516C68.7242 18.0075 68.6739 18.0697 68.6459 18.1383L68.289 18.057C68.3313 17.9385 68.3931 17.8428 68.4744 17.7699C68.5566 17.6962 68.651 17.6429 68.7577 17.6099C68.8644 17.576 68.9766 17.5591 69.0943 17.5591C69.1722 17.5591 69.2548 17.5684 69.342 17.587C69.4301 17.6048 69.5123 17.6378 69.5885 17.6861C69.6656 17.7344 69.7286 17.8034 69.7778 17.8931C69.8269 17.9821 69.8514 18.0977 69.8514 18.2399V19.5357H69.4805V19.2689H69.4653C69.4407 19.318 69.4039 19.3663 69.3547 19.4137C69.3056 19.4611 69.2425 19.5005 69.1655 19.5319C69.0884 19.5632 68.9961 19.5789 68.8885 19.5789ZM68.9711 19.274C69.0761 19.274 69.1659 19.2532 69.2404 19.2117C69.3158 19.1702 69.373 19.116 69.4119 19.0491C69.4517 18.9814 69.4716 18.909 69.4716 18.8319V18.5804C69.4581 18.5939 69.4318 18.6066 69.3929 18.6185C69.3547 18.6295 69.3111 18.6392 69.262 18.6477C69.2129 18.6553 69.165 18.6625 69.1185 18.6693C69.0719 18.6752 69.0329 18.6803 69.0016 18.6846C68.9279 18.6939 68.8606 18.7095 68.7996 18.7316C68.7395 18.7536 68.6912 18.7853 68.6548 18.8268C68.6192 18.8675 68.6015 18.9217 68.6015 18.9894C68.6015 19.0834 68.6362 19.1546 68.7056 19.2028C68.7751 19.2503 68.8636 19.274 68.9711 19.274Z" fill="#130C49"/>
<path d="M67.9419 17.5844V17.8893H66.8761V17.5844H67.9419ZM67.1619 17.117H67.5417V18.9627C67.5417 19.0364 67.5528 19.0919 67.5748 19.1291C67.5968 19.1655 67.6252 19.1905 67.6599 19.2041C67.6955 19.2168 67.734 19.2231 67.7755 19.2231C67.806 19.2231 67.8326 19.221 67.8555 19.2168C67.8784 19.2125 67.8962 19.2092 67.9089 19.2066L67.9775 19.5204C67.9554 19.5289 67.9241 19.5373 67.8835 19.5458C67.8428 19.5551 67.792 19.5602 67.731 19.561C67.6311 19.5627 67.5379 19.5449 67.4516 19.5077C67.3652 19.4704 67.2953 19.4128 67.2419 19.3349C67.1886 19.257 67.1619 19.1592 67.1619 19.0415V17.117Z" fill="#130C49"/>
<path d="M65.5998 19.5789C65.4762 19.5789 65.3644 19.556 65.2645 19.5103C65.1646 19.4637 65.0854 19.3964 65.0269 19.3083C64.9693 19.2202 64.9406 19.1122 64.9406 18.9843C64.9406 18.8743 64.9617 18.7836 65.0041 18.7125C65.0464 18.6414 65.1036 18.585 65.1756 18.5435C65.2475 18.502 65.328 18.4707 65.4169 18.4495C65.5058 18.4284 65.5965 18.4123 65.6888 18.4013C65.8056 18.3877 65.9005 18.3767 65.9733 18.3682C66.0461 18.3589 66.0991 18.3441 66.1321 18.3238C66.1651 18.3035 66.1817 18.2704 66.1817 18.2247V18.2158C66.1817 18.1049 66.1503 18.0189 66.0876 17.9579C66.0258 17.897 65.9335 17.8665 65.8107 17.8665C65.6828 17.8665 65.5821 17.8948 65.5084 17.9516C65.4356 18.0075 65.3852 18.0697 65.3572 18.1383L65.0003 18.057C65.0426 17.9385 65.1044 17.8428 65.1857 17.7699C65.2679 17.6962 65.3623 17.6429 65.469 17.6099C65.5757 17.576 65.6879 17.5591 65.8056 17.5591C65.8835 17.5591 65.9661 17.5684 66.0533 17.587C66.1414 17.6048 66.2236 17.6378 66.2998 17.6861C66.3769 17.7344 66.4399 17.8034 66.4891 17.8931C66.5382 17.9821 66.5627 18.0977 66.5627 18.2399V19.5357H66.1918V19.2689H66.1766C66.152 19.318 66.1152 19.3663 66.0661 19.4137C66.0169 19.4611 65.9538 19.5005 65.8768 19.5319C65.7997 19.5632 65.7074 19.5789 65.5998 19.5789ZM65.6824 19.274C65.7874 19.274 65.8772 19.2532 65.9517 19.2117C66.0271 19.1702 66.0843 19.116 66.1232 19.0491C66.163 18.9814 66.1829 18.909 66.1829 18.8319V18.5804C66.1694 18.5939 66.1431 18.6066 66.1042 18.6185C66.0661 18.6295 66.0224 18.6392 65.9733 18.6477C65.9242 18.6553 65.8764 18.6625 65.8298 18.6693C65.7832 18.6752 65.7442 18.6803 65.7129 18.6846C65.6392 18.6939 65.5719 18.7095 65.5109 18.7316C65.4508 18.7536 65.4025 18.7853 65.3661 18.8268C65.3305 18.8675 65.3128 18.9217 65.3128 18.9894C65.3128 19.0834 65.3475 19.1546 65.4169 19.2028C65.4864 19.2503 65.5749 19.274 65.6824 19.274Z" fill="#130C49"/>
<path d="M63.3614 19.5357H62.5192V16.9341H63.3881C63.643 16.9341 63.8619 16.9862 64.0448 17.0904C64.2277 17.1937 64.3679 17.3423 64.4653 17.5362C64.5635 17.7293 64.6126 17.961 64.6126 18.2311C64.6126 18.5021 64.5631 18.735 64.464 18.9298C64.3658 19.1246 64.2235 19.2745 64.0372 19.3795C63.8509 19.4836 63.6256 19.5357 63.3614 19.5357ZM62.9117 19.1927H63.3398C63.538 19.1927 63.7027 19.1555 63.8339 19.081C63.9652 19.0056 64.0634 18.8968 64.1287 18.7545C64.1939 18.6114 64.2265 18.4369 64.2265 18.2311C64.2265 18.027 64.1939 17.8538 64.1287 17.7116C64.0643 17.5693 63.9682 17.4613 63.8403 17.3876C63.7124 17.3139 63.5536 17.2771 63.3639 17.2771H62.9117V19.1927Z" fill="#130C49"/>
<path d="M159.793 24.3325C159.638 24.3325 159.504 24.3121 159.392 24.2715C159.282 24.2308 159.191 24.1771 159.121 24.1101C159.05 24.0432 158.998 23.97 158.963 23.8904L159.29 23.7557C159.312 23.793 159.343 23.8324 159.381 23.8739C159.42 23.9162 159.472 23.9522 159.539 23.9818C159.605 24.0115 159.691 24.0263 159.796 24.0263C159.94 24.0263 160.059 23.9912 160.153 23.9209C160.247 23.8514 160.294 23.7405 160.294 23.588V23.2044H160.27C160.247 23.2459 160.214 23.2921 160.171 23.3429C160.129 23.3937 160.07 23.4377 159.996 23.475C159.921 23.5123 159.824 23.5309 159.705 23.5309C159.551 23.5309 159.412 23.4949 159.288 23.4229C159.165 23.3501 159.068 23.2429 158.996 23.1015C158.925 22.9592 158.889 22.7844 158.889 22.5769C158.889 22.3694 158.925 22.1915 158.995 22.0433C159.066 21.8951 159.163 21.7817 159.287 21.7029C159.411 21.6233 159.551 21.5835 159.707 21.5835C159.829 21.5835 159.926 21.6038 160.001 21.6445C160.075 21.6843 160.133 21.7308 160.175 21.7842C160.217 21.8376 160.25 21.8846 160.273 21.9252H160.301V21.6089H160.673V23.6033C160.673 23.771 160.634 23.9086 160.556 24.0161C160.478 24.1237 160.373 24.2033 160.24 24.255C160.108 24.3066 159.959 24.3325 159.793 24.3325ZM159.789 23.2158C159.898 23.2158 159.99 23.1904 160.066 23.1396C160.142 23.088 160.2 23.0143 160.238 22.9186C160.278 22.822 160.298 22.7064 160.298 22.5718C160.298 22.4405 160.279 22.3249 160.24 22.225C160.201 22.1251 160.144 22.0472 160.068 21.9913C159.993 21.9345 159.9 21.9061 159.789 21.9061C159.674 21.9061 159.579 21.9358 159.503 21.9951C159.427 22.0535 159.369 22.1331 159.33 22.2339C159.292 22.3347 159.273 22.4473 159.273 22.5718C159.273 22.6997 159.293 22.8119 159.331 22.9084C159.37 23.005 159.428 23.0803 159.504 23.1345C159.581 23.1887 159.676 23.2158 159.789 23.2158Z" fill="#130C49"/>
<path d="M157.255 22.4016V23.5601H156.875V21.6089H157.24V21.9265H157.264C157.309 21.8232 157.379 21.7402 157.475 21.6775C157.571 21.6148 157.693 21.5835 157.84 21.5835C157.972 21.5835 158.089 21.6114 158.189 21.6673C158.289 21.7224 158.366 21.8045 158.421 21.9138C158.476 22.023 158.504 22.1581 158.504 22.319V23.5601H158.124V22.3647C158.124 22.2233 158.087 22.1128 158.014 22.0332C157.94 21.9527 157.839 21.9125 157.71 21.9125C157.622 21.9125 157.544 21.9316 157.475 21.9697C157.407 22.0078 157.353 22.0637 157.314 22.1373C157.275 22.2102 157.255 22.2983 157.255 22.4016Z" fill="#130C49"/>
<path d="M156.025 23.5599V21.6087H156.405V23.5599H156.025ZM156.217 21.3076C156.151 21.3076 156.094 21.2856 156.047 21.2416C156 21.1967 155.977 21.1433 155.977 21.0815C155.977 21.0188 156 20.9655 156.047 20.9214C156.094 20.8766 156.151 20.8541 156.217 20.8541C156.283 20.8541 156.339 20.8766 156.386 20.9214C156.433 20.9655 156.457 21.0188 156.457 21.0815C156.457 21.1433 156.433 21.1967 156.386 21.2416C156.339 21.2856 156.283 21.3076 156.217 21.3076Z" fill="#130C49"/>
<path d="M154.422 22.8981L154.419 22.4345H154.485L155.263 21.6087H155.718L154.831 22.5488H154.771L154.422 22.8981ZM154.073 23.56V20.9583H154.452V23.56H154.073ZM155.305 23.56L154.606 22.6326L154.868 22.3671L155.771 23.56H155.305Z" fill="#130C49"/>
<path d="M152.352 22.4016V23.5601H151.973V21.6089H152.337V21.9265H152.361C152.406 21.8232 152.476 21.7402 152.572 21.6775C152.669 21.6148 152.79 21.5835 152.937 21.5835C153.07 21.5835 153.186 21.6114 153.286 21.6673C153.386 21.7224 153.463 21.8045 153.519 21.9138C153.574 22.023 153.601 22.1581 153.601 22.319V23.5601H153.221V22.3647C153.221 22.2233 153.184 22.1128 153.111 22.0332C153.037 21.9527 152.936 21.9125 152.807 21.9125C152.719 21.9125 152.641 21.9316 152.572 21.9697C152.504 22.0078 152.451 22.0637 152.411 22.1373C152.372 22.2102 152.352 22.2983 152.352 22.4016Z" fill="#130C49"/>
<path d="M151.122 22.7507V21.6087H151.503V23.5599H151.13V23.222H151.11C151.065 23.3261 150.993 23.413 150.894 23.4824C150.795 23.551 150.673 23.5853 150.526 23.5853C150.401 23.5853 150.29 23.5578 150.194 23.5027C150.098 23.4468 150.023 23.3643 149.968 23.255C149.913 23.1458 149.886 23.0107 149.886 22.8498V21.6087H150.266V22.804C150.266 22.937 150.303 23.0429 150.377 23.1216C150.45 23.2004 150.546 23.2398 150.664 23.2398C150.735 23.2398 150.806 23.222 150.876 23.1864C150.947 23.1508 151.006 23.0971 151.052 23.0251C151.1 22.9531 151.123 22.8616 151.122 22.7507Z" fill="#130C49"/>
<path d="M148.153 22.4014V23.56H147.773V20.9583H148.148V21.9263H148.172C148.218 21.8213 148.288 21.7379 148.382 21.6761C148.476 21.6143 148.599 21.5833 148.75 21.5833C148.884 21.5833 149.001 21.6109 149.101 21.6659C149.202 21.721 149.279 21.8031 149.335 21.9124C149.39 22.0208 149.418 22.1563 149.418 22.3189V23.56H149.039V22.3646C149.039 22.2215 149.002 22.1105 148.928 22.0318C148.854 21.9522 148.752 21.9124 148.621 21.9124C148.531 21.9124 148.45 21.9314 148.379 21.9695C148.309 22.0076 148.253 22.0635 148.213 22.1372C148.173 22.21 148.153 22.2981 148.153 22.4014Z" fill="#130C49"/>
<path d="M147.374 21.8043H146.977C146.962 21.7196 146.934 21.6451 146.892 21.5807C146.851 21.5164 146.8 21.4617 146.74 21.4169C146.68 21.372 146.612 21.3381 146.538 21.3152C146.464 21.2924 146.386 21.2809 146.303 21.2809C146.153 21.2809 146.019 21.3186 145.9 21.394C145.782 21.4694 145.689 21.5799 145.621 21.7255C145.553 21.8712 145.519 22.049 145.519 22.2591C145.519 22.4708 145.553 22.6495 145.621 22.7951C145.689 22.9408 145.783 23.0509 145.901 23.1254C146.02 23.2 146.153 23.2372 146.301 23.2372C146.384 23.2372 146.461 23.2262 146.535 23.2042C146.61 23.1813 146.677 23.1479 146.737 23.1038C146.797 23.0598 146.848 23.006 146.89 22.9425C146.932 22.8781 146.961 22.8045 146.977 22.7215L147.374 22.7227C147.352 22.8506 147.311 22.9683 147.25 23.0759C147.19 23.1826 147.113 23.2749 147.018 23.3528C146.924 23.4299 146.816 23.4896 146.695 23.5319C146.574 23.5743 146.442 23.5954 146.299 23.5954C146.074 23.5954 145.873 23.5421 145.697 23.4354C145.521 23.3278 145.382 23.1741 145.28 22.9743C145.179 22.7744 145.129 22.536 145.129 22.2591C145.129 21.9813 145.18 21.7429 145.281 21.5439C145.383 21.344 145.522 21.1907 145.698 21.084C145.874 20.9765 146.074 20.9227 146.299 20.9227C146.437 20.9227 146.566 20.9426 146.685 20.9824C146.805 21.0214 146.913 21.0789 147.009 21.1552C147.105 21.2305 147.184 21.3228 147.247 21.4321C147.309 21.5405 147.352 21.6646 147.374 21.8043Z" fill="#130C49"/>
<path fill-rule="evenodd" clip-rule="evenodd" d="M83.6171 30.3179L85.8528 31.6087L83.6171 32.8996V31.8323H48.2921V31.3852H83.6171V30.3179Z" fill="#130C49"/>
<path fill-rule="evenodd" clip-rule="evenodd" d="M169.47 28.5292L171.706 29.82L169.47 31.1108V30.0436H134.145V29.5964H169.47V28.5292Z" fill="#130C49"/>
<path d="M35.0923 3.03824C34.9421 3.03824 34.8117 3.01322 34.7011 2.96317C34.5905 2.91312 34.5049 2.842 34.4443 2.74981C34.3837 2.65498 34.3534 2.54567 34.3534 2.42187C34.3534 2.30333 34.3797 2.19797 34.4324 2.10578C34.4851 2.01095 34.5668 1.93193 34.6774 1.86871C34.788 1.80549 34.9276 1.76071 35.0962 1.73437L35.7995 1.61979V2.0149L35.195 2.11763C35.0923 2.13607 35.0159 2.169 34.9658 2.21641C34.9158 2.26382 34.8907 2.32572 34.8907 2.40211C34.8907 2.47587 34.9184 2.53513 34.9737 2.57991C35.0317 2.62206 35.1028 2.64313 35.1871 2.64313C35.2951 2.64313 35.3899 2.62074 35.4716 2.57596C35.5559 2.52855 35.6204 2.46401 35.6652 2.38236C35.7126 2.3007 35.7363 2.21114 35.7363 2.11368V1.56052C35.7363 1.46833 35.6994 1.39194 35.6257 1.33136C35.5545 1.26814 35.4597 1.23653 35.3412 1.23653C35.2305 1.23653 35.1318 1.26682 35.0448 1.32741C34.9605 1.38536 34.8986 1.46306 34.8591 1.56052L34.4364 1.35507C34.4785 1.2418 34.5444 1.14434 34.6339 1.06268C34.7261 0.978392 34.8341 0.91254 34.9579 0.865126C35.0817 0.817713 35.2161 0.794006 35.3609 0.794006C35.5374 0.794006 35.6928 0.826932 35.8272 0.892784C35.9615 0.956002 36.0655 1.04556 36.1393 1.16146C36.2157 1.27473 36.2539 1.40775 36.2539 1.56052V2.99083H35.7639V2.62337L35.8746 2.61547C35.8193 2.70766 35.7534 2.78537 35.677 2.84859C35.6006 2.90917 35.5137 2.95659 35.4162 2.99083C35.3188 3.02244 35.2108 3.03824 35.0923 3.03824Z" fill="#130C49"/>
<path d="M33.7947 3.01464C33.5524 3.01464 33.3641 2.94879 33.2297 2.81708C33.098 2.68275 33.0322 2.49441 33.0322 2.25207V1.3038H32.6608V0.841524H32.7003C32.8056 0.841524 32.8873 0.813866 32.9452 0.758551C33.0032 0.703235 33.0322 0.622896 33.0322 0.517532V0.351585H33.5498V0.841524H34.0437V1.3038H33.5498V2.22442C33.5498 2.29554 33.5616 2.35612 33.5853 2.40617C33.6117 2.45621 33.6512 2.49441 33.7039 2.52075C33.7592 2.54709 33.829 2.56026 33.9133 2.56026C33.9317 2.56026 33.9528 2.55894 33.9765 2.55631C34.0028 2.55368 34.0279 2.55104 34.0516 2.54841V2.99093C34.0147 2.9962 33.9725 3.00147 33.9251 3.00674C33.8777 3.01201 33.8342 3.01464 33.7947 3.01464Z" fill="#130C49"/>
<path d="M31.2144 3.03824C31.0643 3.03824 30.9339 3.01322 30.8233 2.96317C30.7127 2.91312 30.627 2.842 30.5665 2.74981C30.5059 2.65498 30.4756 2.54567 30.4756 2.42187C30.4756 2.30333 30.5019 2.19797 30.5546 2.10578C30.6073 2.01095 30.6889 1.93193 30.7996 1.86871C30.9102 1.80549 31.0498 1.76071 31.2184 1.73437L31.9217 1.61979V2.0149L31.3172 2.11763C31.2144 2.13607 31.1381 2.169 31.088 2.21641C31.038 2.26382 31.0129 2.32572 31.0129 2.40211C31.0129 2.47587 31.0406 2.53513 31.0959 2.57991C31.1539 2.62206 31.225 2.64313 31.3093 2.64313C31.4173 2.64313 31.5121 2.62074 31.5938 2.57596C31.678 2.52855 31.7426 2.46401 31.7874 2.38236C31.8348 2.3007 31.8585 2.21114 31.8585 2.11368V1.56052C31.8585 1.46833 31.8216 1.39194 31.7478 1.33136C31.6767 1.26814 31.5819 1.23653 31.4634 1.23653C31.3527 1.23653 31.254 1.26682 31.167 1.32741C31.0827 1.38536 31.0208 1.46306 30.9813 1.56052L30.5586 1.35507C30.6007 1.2418 30.6666 1.14434 30.7561 1.06268C30.8483 0.978392 30.9563 0.91254 31.0801 0.865126C31.2039 0.817713 31.3382 0.794006 31.4831 0.794006C31.6596 0.794006 31.815 0.826932 31.9494 0.892784C32.0837 0.956002 32.1877 1.04556 32.2615 1.16146C32.3379 1.27473 32.3761 1.40775 32.3761 1.56052V2.99083H31.8861V2.62337L31.9968 2.61547C31.9415 2.70766 31.8756 2.78537 31.7992 2.84859C31.7228 2.90917 31.6359 2.95659 31.5384 2.99083C31.441 3.02244 31.333 3.03824 31.2144 3.03824Z" fill="#130C49"/>
<path d="M27.689 2.99089V0.0473022H28.6491C28.9599 0.0473022 29.2299 0.11052 29.4591 0.236956C29.6909 0.360758 29.87 0.53329 29.9964 0.754553C30.1229 0.973181 30.1861 1.22737 30.1861 1.51712C30.1861 1.80423 30.1229 2.05974 29.9964 2.28364C29.87 2.5049 29.6909 2.67875 29.4591 2.80518C29.2299 2.92899 28.9599 2.99089 28.6491 2.99089H27.689ZM28.2263 2.51675H28.6609C28.8611 2.51675 29.0337 2.47592 29.1785 2.39427C29.326 2.30998 29.4406 2.19408 29.5223 2.04657C29.6039 1.89643 29.6448 1.71994 29.6448 1.51712C29.6448 1.31166 29.6039 1.13518 29.5223 0.987669C29.4406 0.84016 29.326 0.725578 29.1785 0.643921C29.0337 0.562265 28.8611 0.521437 28.6609 0.521437H28.2263V2.51675Z" fill="#130C49"/>
<path d="M25.2879 3.03844C25.0798 3.03844 24.8941 2.98971 24.7307 2.89225C24.5674 2.79215 24.4384 2.6565 24.3435 2.48528C24.2487 2.31407 24.2013 2.12442 24.2013 1.91632C24.2013 1.7056 24.2487 1.51594 24.3435 1.34736C24.4384 1.17878 24.5674 1.04444 24.7307 0.944348C24.8967 0.844253 25.0811 0.794205 25.2839 0.794205C25.4472 0.794205 25.5921 0.827131 25.7185 0.892983C25.8476 0.956201 25.949 1.04576 26.0228 1.16166L25.9437 1.26834V3.05176e-05H26.4613V2.99103H25.9714V2.57616L26.0267 2.67889C25.953 2.79479 25.8502 2.88435 25.7185 2.94757C25.5868 3.00815 25.4433 3.03844 25.2879 3.03844ZM25.3432 2.56431C25.4617 2.56431 25.5657 2.53665 25.6553 2.48133C25.7449 2.42602 25.8147 2.34963 25.8647 2.25217C25.9174 2.15471 25.9437 2.04276 25.9437 1.91632C25.9437 1.79252 25.9174 1.68189 25.8647 1.58443C25.8147 1.48433 25.7449 1.40663 25.6553 1.35131C25.5657 1.296 25.4617 1.26834 25.3432 1.26834C25.2273 1.26834 25.1232 1.29731 25.031 1.35526C24.9388 1.41058 24.8664 1.48697 24.8137 1.58443C24.7637 1.67926 24.7386 1.78989 24.7386 1.91632C24.7386 2.04276 24.7637 2.15471 24.8137 2.25217C24.8664 2.34963 24.9388 2.42602 25.031 2.48133C25.1232 2.53665 25.2273 2.56431 25.3432 2.56431Z" fill="#130C49"/>
<path d="M22.8879 3.03824C22.6667 3.03824 22.4731 2.98819 22.3071 2.8881C22.1412 2.788 22.0121 2.65235 21.9199 2.48113C21.8277 2.30992 21.7816 2.12027 21.7816 1.91217C21.7816 1.69618 21.8277 1.50521 21.9199 1.33926C22.0147 1.17068 22.1425 1.03766 22.3032 0.940198C22.4665 0.842737 22.6482 0.794006 22.8484 0.794006C23.017 0.794006 23.1645 0.821664 23.2909 0.87698C23.42 0.932296 23.5293 1.00868 23.6189 1.10614C23.7084 1.20361 23.7769 1.31555 23.8243 1.44199C23.8718 1.56579 23.8955 1.70013 23.8955 1.845C23.8955 1.88188 23.8928 1.92008 23.8876 1.95959C23.8849 1.9991 23.8783 2.03334 23.8678 2.06232H22.2083V1.6672H23.5754L23.3305 1.85291C23.3542 1.73174 23.3476 1.62374 23.3107 1.52891C23.2765 1.43409 23.2185 1.35902 23.1369 1.3037C23.0578 1.24839 22.9617 1.22073 22.8484 1.22073C22.7404 1.22073 22.6443 1.24839 22.56 1.3037C22.4757 1.35638 22.4112 1.4354 22.3664 1.54077C22.3242 1.6435 22.3084 1.76862 22.319 1.91612C22.3084 2.04783 22.3256 2.16504 22.3703 2.26777C22.4177 2.36787 22.4862 2.44557 22.5758 2.50089C22.668 2.55621 22.7733 2.58386 22.8919 2.58386C23.0104 2.58386 23.1105 2.55884 23.1922 2.50879C23.2765 2.45874 23.3423 2.39158 23.3897 2.30728L23.8085 2.51274C23.7664 2.61547 23.7005 2.70635 23.611 2.78537C23.5214 2.86439 23.4147 2.92629 23.2909 2.97107C23.1698 3.01585 23.0354 3.03824 22.8879 3.03824Z" fill="#130C49"/>
<path d="M20.6582 3.03824C20.4291 3.03824 20.2289 2.98424 20.0577 2.87625C19.8891 2.76561 19.7732 2.61679 19.71 2.42977L20.0972 2.24407C20.1525 2.36523 20.2289 2.46006 20.3263 2.52855C20.4264 2.59703 20.5371 2.63128 20.6582 2.63128C20.7531 2.63128 20.8281 2.6102 20.8834 2.56806C20.9388 2.52591 20.9664 2.4706 20.9664 2.40211C20.9664 2.35997 20.9546 2.32572 20.9309 2.29938C20.9098 2.27041 20.8795 2.2467 20.84 2.22826C20.8031 2.20719 20.7623 2.19007 20.7175 2.1769L20.3658 2.07812C20.1841 2.02544 20.0458 1.9451 19.951 1.8371C19.8588 1.7291 19.8127 1.60135 19.8127 1.45384C19.8127 1.32214 19.8456 1.20756 19.9115 1.1101C19.98 1.01 20.0735 0.932296 20.192 0.87698C20.3132 0.821664 20.4515 0.794006 20.6069 0.794006C20.8097 0.794006 20.9888 0.842737 21.1442 0.940198C21.2996 1.03766 21.4103 1.17463 21.4761 1.35111L21.081 1.53682C21.0441 1.43936 20.9822 1.36165 20.8953 1.3037C20.8084 1.24575 20.7109 1.21678 20.6029 1.21678C20.516 1.21678 20.4475 1.23653 20.3975 1.27604C20.3474 1.31555 20.3224 1.36692 20.3224 1.43014C20.3224 1.46965 20.3329 1.50389 20.354 1.53287C20.3751 1.56184 20.404 1.58555 20.4409 1.60399C20.4804 1.62242 20.5252 1.63955 20.5753 1.65535L20.919 1.75808C21.0955 1.81076 21.2311 1.88978 21.326 1.99515C21.4234 2.10051 21.4722 2.22958 21.4722 2.38236C21.4722 2.51143 21.4379 2.62601 21.3694 2.7261C21.3009 2.82356 21.2061 2.89995 21.085 2.95527C20.9638 3.01058 20.8215 3.03824 20.6582 3.03824Z" fill="#130C49"/>
<path d="M17.4972 2.99083V0.84142H17.9832V1.26419L17.9437 1.18912C17.9937 1.06005 18.0754 0.962588 18.1886 0.896736C18.3045 0.828249 18.4389 0.794006 18.5917 0.794006C18.7497 0.794006 18.8893 0.828249 19.0105 0.896736C19.1343 0.965222 19.2304 1.06137 19.2989 1.18517C19.3674 1.30633 19.4016 1.44726 19.4016 1.60794V2.99083H18.884V1.73042C18.884 1.63559 18.8656 1.55394 18.8287 1.48545C18.7918 1.41697 18.7405 1.36428 18.6746 1.32741C18.6114 1.2879 18.5363 1.26814 18.4494 1.26814C18.3651 1.26814 18.29 1.2879 18.2242 1.32741C18.1583 1.36428 18.107 1.41697 18.0701 1.48545C18.0332 1.55394 18.0148 1.63559 18.0148 1.73042V2.99083H17.4972Z" fill="#130C49"/>
<path d="M15.8569 3.03824C15.7068 3.03824 15.5764 3.01322 15.4657 2.96317C15.3551 2.91312 15.2695 2.842 15.2089 2.74981C15.1483 2.65498 15.118 2.54567 15.118 2.42187C15.118 2.30333 15.1444 2.19797 15.1971 2.10578C15.2497 2.01095 15.3314 1.93193 15.442 1.86871C15.5527 1.80549 15.6923 1.76071 15.8609 1.73437L16.5642 1.61979V2.0149L15.9596 2.11763C15.8569 2.13607 15.7805 2.169 15.7305 2.21641C15.6804 2.26382 15.6554 2.32572 15.6554 2.40211C15.6554 2.47587 15.6831 2.53513 15.7384 2.57991C15.7963 2.62206 15.8674 2.64313 15.9517 2.64313C16.0597 2.64313 16.1546 2.62074 16.2362 2.57596C16.3205 2.52855 16.385 2.46401 16.4298 2.38236C16.4772 2.3007 16.5009 2.21114 16.5009 2.11368V1.56052C16.5009 1.46833 16.4641 1.39194 16.3903 1.33136C16.3192 1.26814 16.2244 1.23653 16.1058 1.23653C15.9952 1.23653 15.8964 1.26682 15.8095 1.32741C15.7252 1.38536 15.6633 1.46306 15.6238 1.56052L15.201 1.35507C15.2432 1.2418 15.309 1.14434 15.3986 1.06268C15.4908 0.978392 15.5988 0.91254 15.7226 0.865126C15.8464 0.817713 15.9807 0.794006 16.1256 0.794006C16.3021 0.794006 16.4575 0.826932 16.5918 0.892784C16.7261 0.956002 16.8302 1.04556 16.9039 1.16146C16.9803 1.27473 17.0185 1.40775 17.0185 1.56052V2.99083H16.5286V2.62337L16.6392 2.61547C16.5839 2.70766 16.5181 2.78537 16.4417 2.84859C16.3653 2.90917 16.2784 2.95659 16.1809 2.99083C16.0834 3.02244 15.9754 3.03824 15.8569 3.03824Z" fill="#130C49"/>
<path d="M13.8135 3.03824C13.5922 3.03824 13.3986 2.98819 13.2327 2.8881C13.0667 2.788 12.9376 2.65235 12.8454 2.48113C12.7532 2.30992 12.7072 2.12027 12.7072 1.91217C12.7072 1.69618 12.7532 1.50521 12.8454 1.33926C12.9403 1.17068 13.068 1.03766 13.2287 0.940198C13.392 0.842737 13.5738 0.794006 13.774 0.794006C13.9425 0.794006 14.09 0.821664 14.2165 0.87698C14.3456 0.932296 14.4549 1.00868 14.5444 1.10614C14.634 1.20361 14.7025 1.31555 14.7499 1.44199C14.7973 1.56579 14.821 1.70013 14.821 1.845C14.821 1.88188 14.8184 1.92008 14.8131 1.95959C14.8105 1.9991 14.8039 2.03334 14.7933 2.06232H13.1339V1.6672H14.501L14.256 1.85291C14.2797 1.73174 14.2731 1.62374 14.2362 1.52891C14.202 1.43409 14.144 1.35902 14.0624 1.3037C13.9834 1.24839 13.8872 1.22073 13.774 1.22073C13.666 1.22073 13.5698 1.24839 13.4855 1.3037C13.4012 1.35638 13.3367 1.4354 13.2919 1.54077C13.2498 1.6435 13.234 1.76862 13.2445 1.91612C13.234 2.04783 13.2511 2.16504 13.2959 2.26777C13.3433 2.36787 13.4118 2.44557 13.5013 2.50089C13.5935 2.55621 13.6989 2.58386 13.8174 2.58386C13.936 2.58386 14.036 2.55884 14.1177 2.50879C14.202 2.45874 14.2678 2.39158 14.3153 2.30728L14.7341 2.51274C14.6919 2.61547 14.6261 2.70635 14.5365 2.78537C14.447 2.86439 14.3403 2.92629 14.2165 2.97107C14.0953 3.01585 13.961 3.03824 13.8135 3.03824Z" fill="#130C49"/>
<path d="M11.7974 2.99103V3.05176e-05H12.315V2.99103H11.7974Z" fill="#130C49"/>
<path d="M10.1645 3.03842C9.95379 3.03842 9.75887 3.00022 9.57975 2.92384C9.40327 2.84745 9.24786 2.74077 9.11352 2.6038C8.98182 2.46682 8.87909 2.30614 8.80533 2.12176C8.73158 1.93737 8.6947 1.73587 8.6947 1.51724C8.6947 1.29861 8.73026 1.0971 8.80138 0.912716C8.87514 0.725696 8.97787 0.565018 9.10957 0.43068C9.24391 0.293707 9.40064 0.188344 9.57975 0.11459C9.75887 0.0382017 9.95379 7.62939e-06 10.1645 7.62939e-06C10.3752 7.62939e-06 10.5636 0.0355677 10.7295 0.106688C10.8981 0.177808 11.0403 0.272635 11.1562 0.391168C11.2721 0.507068 11.3551 0.634821 11.4052 0.774427L10.9231 0.999641C10.8678 0.852132 10.7743 0.730965 10.6426 0.636138C10.5109 0.538677 10.3515 0.489946 10.1645 0.489946C9.98013 0.489946 9.81682 0.533409 9.67458 0.620333C9.53497 0.707258 9.42566 0.827108 9.34664 0.979885C9.27025 1.13266 9.23205 1.31178 9.23205 1.51724C9.23205 1.7227 9.27025 1.90313 9.34664 2.05854C9.42566 2.21132 9.53497 2.33117 9.67458 2.41809C9.81682 2.50502 9.98013 2.54848 10.1645 2.54848C10.3515 2.54848 10.5109 2.50107 10.6426 2.40624C10.7743 2.30878 10.8678 2.18629 10.9231 2.03878L11.4052 2.264C11.3551 2.4036 11.2721 2.53267 11.1562 2.65121C11.0403 2.76711 10.8981 2.86062 10.7295 2.93174C10.5636 3.00286 10.3752 3.03842 10.1645 3.03842Z" fill="#130C49"/>
<path d="M124.872 3.03835C124.722 3.03835 124.591 3.01332 124.481 2.96328C124.37 2.91323 124.285 2.84211 124.224 2.74992C124.163 2.65509 124.133 2.54578 124.133 2.42197C124.133 2.30344 124.159 2.19808 124.212 2.10588C124.265 2.01106 124.346 1.93204 124.457 1.86882C124.568 1.8056 124.707 1.76082 124.876 1.73448L125.579 1.6199V2.01501L124.975 2.11774C124.872 2.13618 124.796 2.1691 124.745 2.21652C124.695 2.26393 124.67 2.32583 124.67 2.40222C124.67 2.47597 124.698 2.53524 124.753 2.58002C124.811 2.62216 124.882 2.64324 124.967 2.64324C125.075 2.64324 125.17 2.62085 125.251 2.57607C125.336 2.52865 125.4 2.46412 125.445 2.38246C125.492 2.30081 125.516 2.21125 125.516 2.11379V1.56063C125.516 1.46844 125.479 1.39205 125.405 1.33147C125.334 1.26825 125.239 1.23664 125.121 1.23664C125.01 1.23664 124.911 1.26693 124.825 1.32751C124.74 1.38546 124.678 1.46317 124.639 1.56063L124.216 1.35517C124.258 1.24191 124.324 1.14445 124.414 1.06279C124.506 0.978499 124.614 0.912647 124.738 0.865233C124.861 0.81782 124.996 0.794113 125.141 0.794113C125.317 0.794113 125.472 0.827039 125.607 0.892891C125.741 0.956109 125.845 1.04567 125.919 1.16157C125.995 1.27483 126.034 1.40785 126.034 1.56063V2.99094H125.544V2.62348L125.654 2.61558C125.599 2.70777 125.533 2.78548 125.457 2.84869C125.38 2.90928 125.293 2.95669 125.196 2.99094C125.098 3.02254 124.99 3.03835 124.872 3.03835Z" fill="#130C49"/>
<path d="M123.577 3.01464C123.335 3.01464 123.146 2.94879 123.012 2.81708C122.88 2.68275 122.814 2.49441 122.814 2.25207V1.3038H122.443V0.841524H122.483C122.588 0.841524 122.67 0.813866 122.727 0.758551C122.785 0.703235 122.814 0.622896 122.814 0.517532V0.351585H123.332V0.841524H123.826V1.3038H123.332V2.22442C123.332 2.29554 123.344 2.35612 123.368 2.40617C123.394 2.45621 123.433 2.49441 123.486 2.52075C123.541 2.54709 123.611 2.56026 123.695 2.56026C123.714 2.56026 123.735 2.55894 123.759 2.55631C123.785 2.55368 123.81 2.55104 123.834 2.54841V2.99093C123.797 2.9962 123.755 3.00147 123.707 3.00674C123.66 3.01201 123.616 3.01464 123.577 3.01464Z" fill="#130C49"/>
<path d="M120.995 3.03835C120.845 3.03835 120.714 3.01332 120.604 2.96328C120.493 2.91323 120.407 2.84211 120.347 2.74992C120.286 2.65509 120.256 2.54578 120.256 2.42197C120.256 2.30344 120.282 2.19808 120.335 2.10588C120.388 2.01106 120.469 1.93204 120.58 1.86882C120.691 1.8056 120.83 1.76082 120.999 1.73448L121.702 1.6199V2.01501L121.098 2.11774C120.995 2.13618 120.918 2.1691 120.868 2.21652C120.818 2.26393 120.793 2.32583 120.793 2.40222C120.793 2.47597 120.821 2.53524 120.876 2.58002C120.934 2.62216 121.005 2.64324 121.09 2.64324C121.198 2.64324 121.292 2.62085 121.374 2.57607C121.458 2.52865 121.523 2.46412 121.568 2.38246C121.615 2.30081 121.639 2.21125 121.639 2.11379V1.56063C121.639 1.46844 121.602 1.39205 121.528 1.33147C121.457 1.26825 121.362 1.23664 121.244 1.23664C121.133 1.23664 121.034 1.26693 120.947 1.32751C120.863 1.38546 120.801 1.46317 120.762 1.56063L120.339 1.35517C120.381 1.24191 120.447 1.14445 120.537 1.06279C120.629 0.978499 120.737 0.912647 120.861 0.865233C120.984 0.81782 121.119 0.794113 121.264 0.794113C121.44 0.794113 121.595 0.827039 121.73 0.892891C121.864 0.956109 121.968 1.04567 122.042 1.16157C122.118 1.27483 122.156 1.40785 122.156 1.56063V2.99094H121.667V2.62348L121.777 2.61558C121.722 2.70777 121.656 2.78548 121.58 2.84869C121.503 2.90928 121.416 2.95669 121.319 2.99094C121.221 3.02254 121.113 3.03835 120.995 3.03835Z" fill="#130C49"/>
<path d="M117.471 2.99099V0.0474091H118.431C118.742 0.0474091 119.012 0.110627 119.241 0.237063C119.473 0.360865 119.652 0.533397 119.779 0.754659C119.905 0.973288 119.968 1.22748 119.968 1.51723C119.968 1.80434 119.905 2.05985 119.779 2.28374C119.652 2.505 119.473 2.67885 119.241 2.80529C119.012 2.92909 118.742 2.99099 118.431 2.99099H117.471ZM118.009 2.51686H118.443C118.643 2.51686 118.816 2.47603 118.961 2.39437C119.108 2.31008 119.223 2.19418 119.305 2.04668C119.386 1.89653 119.427 1.72005 119.427 1.51723C119.427 1.31177 119.386 1.13528 119.305 0.987775C119.223 0.840267 119.108 0.725685 118.961 0.644028C118.816 0.562372 118.643 0.521544 118.443 0.521544H118.009V2.51686Z" fill="#130C49"/>
<path d="M115.069 3.03845C114.861 3.03845 114.675 2.98972 114.512 2.89226C114.349 2.79216 114.22 2.65651 114.125 2.48529C114.03 2.31408 113.983 2.12442 113.983 1.91633C113.983 1.7056 114.03 1.51595 114.125 1.34737C114.22 1.17879 114.349 1.04445 114.512 0.944355C114.678 0.84426 114.862 0.794213 115.065 0.794213C115.228 0.794213 115.373 0.827139 115.5 0.892991C115.629 0.956209 115.73 1.04577 115.804 1.16167L115.725 1.26835V3.8147e-05H116.243V2.99103H115.753V2.57617L115.808 2.6789C115.734 2.7948 115.631 2.88435 115.5 2.94757C115.368 3.00816 115.225 3.03845 115.069 3.03845ZM115.124 2.56431C115.243 2.56431 115.347 2.53666 115.437 2.48134C115.526 2.42602 115.596 2.34964 115.646 2.25218C115.699 2.15471 115.725 2.04277 115.725 1.91633C115.725 1.79253 115.699 1.6819 115.646 1.58444C115.596 1.48434 115.526 1.40664 115.437 1.35132C115.347 1.29601 115.243 1.26835 115.124 1.26835C115.009 1.26835 114.904 1.29732 114.812 1.35527C114.72 1.41059 114.648 1.48698 114.595 1.58444C114.545 1.67926 114.52 1.78989 114.52 1.91633C114.52 2.04277 114.545 2.15471 114.595 2.25218C114.648 2.34964 114.72 2.42602 114.812 2.48134C114.904 2.53666 115.009 2.56431 115.124 2.56431Z" fill="#130C49"/>
<path d="M112.67 3.03835C112.449 3.03835 112.255 2.9883 112.089 2.88821C111.923 2.78811 111.794 2.65246 111.702 2.48124C111.61 2.31003 111.564 2.12037 111.564 1.91228C111.564 1.69629 111.61 1.50531 111.702 1.33937C111.797 1.17079 111.925 1.03777 112.085 0.940305C112.249 0.842844 112.43 0.794113 112.631 0.794113C112.799 0.794113 112.947 0.821771 113.073 0.877087C113.202 0.932402 113.312 1.00879 113.401 1.10625C113.491 1.20371 113.559 1.31566 113.607 1.4421C113.654 1.5659 113.678 1.70024 113.678 1.84511C113.678 1.88199 113.675 1.92018 113.67 1.95969C113.667 1.9992 113.661 2.03345 113.65 2.06242H111.991V1.66731H113.358L113.113 1.85301C113.136 1.73185 113.13 1.62385 113.093 1.52902C113.059 1.43419 113.001 1.35912 112.919 1.30381C112.84 1.24849 112.744 1.22083 112.631 1.22083C112.523 1.22083 112.427 1.24849 112.342 1.30381C112.258 1.35649 112.193 1.43551 112.149 1.54087C112.106 1.6436 112.091 1.76872 112.101 1.91623C112.091 2.04794 112.108 2.16515 112.153 2.26788C112.2 2.36798 112.268 2.44568 112.358 2.501C112.45 2.55631 112.556 2.58397 112.674 2.58397C112.793 2.58397 112.893 2.55895 112.974 2.5089C113.059 2.45885 113.125 2.39168 113.172 2.30739L113.591 2.51285C113.549 2.61558 113.483 2.70645 113.393 2.78548C113.304 2.8645 113.197 2.9264 113.073 2.97118C112.952 3.01596 112.818 3.03835 112.67 3.03835Z" fill="#130C49"/>
<path d="M108 2.99094V0.841527H108.485V1.33937L108.43 1.25639C108.47 1.10098 108.549 0.985084 108.667 0.908696C108.786 0.832307 108.925 0.794113 109.086 0.794113C109.263 0.794113 109.418 0.840209 109.552 0.932402C109.687 1.0246 109.774 1.14576 109.813 1.29591L109.667 1.30776C109.733 1.13654 109.832 1.00879 109.963 0.9245C110.095 0.837575 110.246 0.794113 110.418 0.794113C110.57 0.794113 110.706 0.828356 110.825 0.896842C110.946 0.965328 111.041 1.06147 111.109 1.18527C111.178 1.30644 111.212 1.44736 111.212 1.60804V2.99094H110.694V1.73053C110.694 1.6357 110.677 1.55404 110.643 1.48556C110.609 1.41707 110.561 1.36439 110.501 1.32751C110.44 1.288 110.366 1.26825 110.279 1.26825C110.198 1.26825 110.125 1.288 110.062 1.32751C109.999 1.36439 109.95 1.41707 109.916 1.48556C109.882 1.55404 109.864 1.6357 109.864 1.73053V2.99094H109.347V1.73053C109.347 1.6357 109.33 1.55404 109.295 1.48556C109.261 1.41707 109.213 1.36439 109.149 1.32751C109.089 1.288 109.016 1.26825 108.932 1.26825C108.85 1.26825 108.778 1.288 108.715 1.32751C108.651 1.36439 108.603 1.41707 108.568 1.48556C108.534 1.55404 108.517 1.6357 108.517 1.73053V2.99094H108Z" fill="#130C49"/>
<path d="M106.521 2.99103V0.841624H107.007V1.31971L106.968 1.24859C107.018 1.08791 107.096 0.975961 107.201 0.912744C107.309 0.849526 107.438 0.817917 107.588 0.817917H107.715V1.27625H107.529C107.381 1.27625 107.263 1.32234 107.173 1.41454C107.084 1.50409 107.039 1.63053 107.039 1.79384V2.99103H106.521Z" fill="#130C49"/>
<path d="M104.996 3.03835C104.785 3.03835 104.593 2.98962 104.419 2.89216C104.248 2.7947 104.111 2.66168 104.008 2.49309C103.908 2.32451 103.858 2.13223 103.858 1.91623C103.858 1.70024 103.908 1.50795 104.008 1.33937C104.111 1.17079 104.248 1.03777 104.419 0.940305C104.59 0.842844 104.782 0.794113 104.996 0.794113C105.207 0.794113 105.398 0.842844 105.569 0.940305C105.74 1.03777 105.876 1.17079 105.976 1.33937C106.078 1.50531 106.13 1.6976 106.13 1.91623C106.13 2.13223 106.078 2.32451 105.976 2.49309C105.873 2.66168 105.736 2.7947 105.565 2.89216C105.394 2.98962 105.204 3.03835 104.996 3.03835ZM104.996 2.56421C105.112 2.56421 105.213 2.53656 105.3 2.48124C105.39 2.42593 105.459 2.34954 105.509 2.25208C105.562 2.15198 105.588 2.04003 105.588 1.91623C105.588 1.7898 105.562 1.67916 105.509 1.58434C105.459 1.48688 105.39 1.41049 105.3 1.35517C105.213 1.29722 105.112 1.26825 104.996 1.26825C104.877 1.26825 104.773 1.29722 104.684 1.35517C104.594 1.41049 104.523 1.48688 104.47 1.58434C104.42 1.67916 104.395 1.7898 104.395 1.91623C104.395 2.04003 104.42 2.15198 104.47 2.25208C104.523 2.34954 104.594 2.42593 104.684 2.48124C104.773 2.53656 104.877 2.56421 104.996 2.56421Z" fill="#130C49"/>
<path d="M102.651 2.99103V1.30391H102.271V0.841626H102.651V0.770506C102.651 0.607193 102.684 0.468904 102.749 0.355639C102.818 0.239739 102.913 0.151498 103.034 0.0909139C103.155 0.0303301 103.299 3.8147e-05 103.465 3.8147e-05C103.496 3.8147e-05 103.53 0.00267214 103.567 0.00794023C103.607 0.0105744 103.64 0.0145256 103.666 0.0197937V0.46627C103.64 0.461002 103.615 0.458368 103.591 0.458368C103.57 0.455734 103.55 0.454417 103.532 0.454417C103.416 0.454417 103.326 0.480758 103.263 0.533439C103.2 0.583487 103.168 0.662509 103.168 0.770506V0.841626H103.646V1.30391H103.168V2.99103H102.651Z" fill="#130C49"/>
<path d="M101.189 3.03835C100.96 3.03835 100.76 2.98435 100.589 2.87635C100.42 2.76572 100.304 2.6169 100.241 2.42988L100.628 2.24417C100.684 2.36534 100.76 2.46017 100.857 2.52865C100.958 2.59714 101.068 2.63138 101.189 2.63138C101.284 2.63138 101.359 2.61031 101.415 2.56817C101.47 2.52602 101.498 2.4707 101.498 2.40222C101.498 2.36007 101.486 2.32583 101.462 2.29949C101.441 2.27051 101.411 2.24681 101.371 2.22837C101.334 2.2073 101.293 2.19018 101.249 2.177L100.897 2.07823C100.715 2.02555 100.577 1.94521 100.482 1.83721C100.39 1.72921 100.344 1.60146 100.344 1.45395C100.344 1.32225 100.377 1.20766 100.443 1.1102C100.511 1.01011 100.605 0.932402 100.723 0.877087C100.844 0.821771 100.983 0.794113 101.138 0.794113C101.341 0.794113 101.52 0.842844 101.675 0.940305C101.831 1.03777 101.941 1.17474 102.007 1.35122L101.612 1.53692C101.575 1.43946 101.513 1.36176 101.426 1.30381C101.34 1.24586 101.242 1.21688 101.134 1.21688C101.047 1.21688 100.979 1.23664 100.929 1.27615C100.879 1.31566 100.854 1.36703 100.854 1.43024C100.854 1.46975 100.864 1.504 100.885 1.53297C100.906 1.56195 100.935 1.58565 100.972 1.60409C101.012 1.62253 101.056 1.63965 101.106 1.65546L101.45 1.75819C101.627 1.81087 101.762 1.88989 101.857 1.99525C101.955 2.10062 102.003 2.22969 102.003 2.38246C102.003 2.51153 101.969 2.62612 101.901 2.72621C101.832 2.82367 101.737 2.90006 101.616 2.95538C101.495 3.01069 101.353 3.03835 101.189 3.03835Z" fill="#130C49"/>
<path d="M98.0291 2.99094V0.841527H98.515V1.2643L98.4755 1.18922C98.5256 1.06016 98.6072 0.962694 98.7205 0.896842C98.8364 0.828356 98.9707 0.794113 99.1235 0.794113C99.2816 0.794113 99.4212 0.828356 99.5423 0.896842C99.6661 0.965328 99.7623 1.06147 99.8308 1.18527C99.8992 1.30644 99.9335 1.44736 99.9335 1.60804V2.99094H99.4159V1.73053C99.4159 1.6357 99.3975 1.55404 99.3606 1.48556C99.3237 1.41707 99.2723 1.36439 99.2065 1.32751C99.1433 1.288 99.0682 1.26825 98.9813 1.26825C98.897 1.26825 98.8219 1.288 98.7561 1.32751C98.6902 1.36439 98.6388 1.41707 98.602 1.48556C98.5651 1.55404 98.5466 1.6357 98.5466 1.73053V2.99094H98.0291Z" fill="#130C49"/>
<path d="M96.3896 3.03835C96.2395 3.03835 96.1091 3.01332 95.9985 2.96328C95.8878 2.91323 95.8022 2.84211 95.7416 2.74992C95.681 2.65509 95.6508 2.54578 95.6508 2.42197C95.6508 2.30344 95.6771 2.19808 95.7298 2.10588C95.7825 2.01106 95.8641 1.93204 95.9747 1.86882C96.0854 1.8056 96.225 1.76082 96.3936 1.73448L97.0969 1.6199V2.01501L96.4923 2.11774C96.3896 2.13618 96.3132 2.1691 96.2632 2.21652C96.2131 2.26393 96.1881 2.32583 96.1881 2.40222C96.1881 2.47597 96.2158 2.53524 96.2711 2.58002C96.329 2.62216 96.4002 2.64324 96.4844 2.64324C96.5924 2.64324 96.6873 2.62085 96.7689 2.57607C96.8532 2.52865 96.9177 2.46412 96.9625 2.38246C97.0099 2.30081 97.0336 2.21125 97.0336 2.11379V1.56063C97.0336 1.46844 96.9968 1.39205 96.923 1.33147C96.8519 1.26825 96.7571 1.23664 96.6385 1.23664C96.5279 1.23664 96.4291 1.26693 96.3422 1.32751C96.2579 1.38546 96.196 1.46317 96.1565 1.56063L95.7337 1.35517C95.7759 1.24191 95.8417 1.14445 95.9313 1.06279C96.0235 0.978499 96.1315 0.912647 96.2553 0.865233C96.3791 0.81782 96.5134 0.794113 96.6583 0.794113C96.8348 0.794113 96.9902 0.827039 97.1245 0.892891C97.2589 0.956109 97.3629 1.04567 97.4367 1.16157C97.5131 1.27483 97.5512 1.40785 97.5512 1.56063V2.99094H97.0613V2.62348L97.1719 2.61558C97.1166 2.70777 97.0508 2.78548 96.9744 2.84869C96.898 2.90928 96.8111 2.95669 96.7136 2.99094C96.6161 3.02254 96.5081 3.03835 96.3896 3.03835Z" fill="#130C49"/>
<path d="M94.2598 2.99103V0.841624H94.7458V1.31971L94.7062 1.24859C94.7563 1.08791 94.834 0.975961 94.9394 0.912744C95.0474 0.849526 95.1764 0.817917 95.3266 0.817917H95.453V1.27625H95.2673C95.1198 1.27625 95.0013 1.32234 94.9117 1.41454C94.8221 1.50409 94.7774 1.63053 94.7774 1.79384V2.99103H94.2598Z" fill="#130C49"/>
<path d="M92.9187 2.99099V0.521544H92.1561V0.0474091H94.2107V0.521544H93.46V2.99099H92.9187Z" fill="#130C49"/>
<path d="M205.205 3.03825C204.976 3.03825 204.776 2.98425 204.604 2.87625C204.436 2.76562 204.32 2.6168 204.257 2.42978L204.644 2.24407C204.699 2.36524 204.776 2.46007 204.873 2.52856C204.973 2.59704 205.084 2.63128 205.205 2.63128C205.3 2.63128 205.375 2.61021 205.43 2.56807C205.486 2.52592 205.513 2.47061 205.513 2.40212C205.513 2.35997 205.501 2.32573 205.478 2.29939C205.457 2.27042 205.426 2.24671 205.387 2.22827C205.35 2.2072 205.309 2.19008 205.264 2.17691L204.913 2.07813C204.731 2.02545 204.593 1.94511 204.498 1.83711C204.406 1.72911 204.359 1.60136 204.359 1.45385C204.359 1.32215 204.392 1.20756 204.458 1.1101C204.527 1.01001 204.62 0.932303 204.739 0.876987C204.86 0.821672 204.998 0.794014 205.154 0.794014C205.356 0.794014 205.536 0.842744 205.691 0.940205C205.846 1.03767 205.957 1.17464 206.023 1.35112L205.628 1.53682C205.591 1.43936 205.529 1.36166 205.442 1.30371C205.355 1.24576 205.258 1.21678 205.15 1.21678C205.063 1.21678 204.994 1.23654 204.944 1.27605C204.894 1.31556 204.869 1.36693 204.869 1.43014C204.869 1.46966 204.88 1.5039 204.901 1.53287C204.922 1.56185 204.951 1.58555 204.988 1.60399C205.027 1.62243 205.072 1.63955 205.122 1.65536L205.466 1.75809C205.642 1.81077 205.778 1.88979 205.873 1.99515C205.97 2.10052 206.019 2.22959 206.019 2.38236C206.019 2.51143 205.985 2.62602 205.916 2.72611C205.848 2.82357 205.753 2.89996 205.632 2.95528C205.511 3.01059 205.368 3.03825 205.205 3.03825Z" fill="#130C49"/>
<path d="M202.107 2.99103V3.8147e-05H202.624V1.95979L202.427 1.90053L203.438 0.841626H204.082L203.288 1.70692L204.098 2.99103H203.506L202.802 1.87682L203.11 1.8136L202.462 2.509L202.624 2.19291V2.99103H202.107Z" fill="#130C49"/>
<path d="M199.763 2.99084V0.841428H200.249V1.2642L200.209 1.18913C200.259 1.06006 200.341 0.962595 200.454 0.896743C200.57 0.828257 200.705 0.794014 200.857 0.794014C201.015 0.794014 201.155 0.828257 201.276 0.896743C201.4 0.965229 201.496 1.06137 201.565 1.18517C201.633 1.30634 201.667 1.44727 201.667 1.60794V2.99084H201.15V1.73043C201.15 1.6356 201.131 1.55395 201.094 1.48546C201.058 1.41697 201.006 1.36429 200.94 1.32741C200.877 1.2879 200.802 1.26815 200.715 1.26815C200.631 1.26815 200.556 1.2879 200.49 1.32741C200.424 1.36429 200.373 1.41697 200.336 1.48546C200.299 1.55395 200.281 1.6356 200.281 1.73043V2.99084H199.763Z" fill="#130C49"/>
<path d="M198.189 3.03864C198.023 3.03864 197.878 3.00176 197.754 2.92801C197.633 2.85426 197.539 2.75153 197.473 2.61982C197.41 2.48812 197.379 2.33403 197.379 2.15754V0.84182H197.896V2.11408C197.896 2.20364 197.913 2.28266 197.948 2.35115C197.984 2.417 198.036 2.46968 198.102 2.50919C198.17 2.54607 198.247 2.56451 198.331 2.56451C198.415 2.56451 198.49 2.54607 198.556 2.50919C198.622 2.46968 198.673 2.41568 198.71 2.3472C198.747 2.27871 198.766 2.19705 198.766 2.10223V0.84182H199.283V2.99123H198.793V2.56846L198.837 2.64353C198.787 2.77523 198.704 2.87401 198.588 2.93986C198.474 3.00572 198.341 3.03864 198.189 3.03864Z" fill="#130C49"/>
<path d="M195.08 2.99103V3.8147e-05H195.597V1.2644L195.526 1.18932C195.576 1.06025 195.658 0.962794 195.771 0.896942C195.887 0.828456 196.021 0.794213 196.174 0.794213C196.332 0.794213 196.472 0.828456 196.593 0.896942C196.717 0.965428 196.813 1.06157 196.881 1.18537C196.95 1.30654 196.984 1.44746 196.984 1.60814V2.99103H196.467V1.73063C196.467 1.6358 196.448 1.55414 196.411 1.48566C196.374 1.41717 196.323 1.36449 196.257 1.32761C196.194 1.2881 196.119 1.26835 196.032 1.26835C195.948 1.26835 195.873 1.2881 195.807 1.32761C195.741 1.36449 195.69 1.41717 195.653 1.48566C195.616 1.55414 195.597 1.6358 195.597 1.73063V2.99103H195.08Z" fill="#130C49"/>
<path d="M193.447 3.03845C193.236 3.03845 193.041 3.00025 192.862 2.92387C192.686 2.84748 192.53 2.7408 192.396 2.60383C192.264 2.46685 192.161 2.30617 192.088 2.12179C192.014 1.9374 191.977 1.7359 191.977 1.51727C191.977 1.29864 192.013 1.09713 192.084 0.912746C192.157 0.725727 192.26 0.565048 192.392 0.43071C192.526 0.293738 192.683 0.188375 192.862 0.11462C193.041 0.0382322 193.236 3.8147e-05 193.447 3.8147e-05C193.658 3.8147e-05 193.846 0.0355982 194.012 0.106718C194.18 0.177839 194.323 0.272665 194.439 0.391199C194.554 0.507098 194.637 0.634851 194.688 0.774457L194.205 0.999671C194.15 0.852163 194.057 0.730995 193.925 0.636168C193.793 0.538707 193.634 0.489977 193.447 0.489977C193.262 0.489977 193.099 0.533439 192.957 0.620364C192.817 0.707288 192.708 0.827139 192.629 0.979916C192.553 1.13269 192.514 1.31181 192.514 1.51727C192.514 1.72273 192.553 1.90316 192.629 2.05857C192.708 2.21135 192.817 2.3312 192.957 2.41812C193.099 2.50505 193.262 2.54851 193.447 2.54851C193.634 2.54851 193.793 2.5011 193.925 2.40627C194.057 2.30881 194.15 2.18632 194.205 2.03882L194.688 2.26403C194.637 2.40364 194.554 2.53271 194.439 2.65124C194.323 2.76714 194.18 2.86065 194.012 2.93177C193.846 3.00289 193.658 3.03845 193.447 3.03845Z" fill="#130C49"/>
<path d="M189.679 3.03825C189.529 3.03825 189.398 3.01323 189.288 2.96318C189.177 2.91313 189.091 2.84201 189.031 2.74982C188.97 2.65499 188.94 2.54568 188.94 2.42188C188.94 2.30334 188.966 2.19798 189.019 2.10579C189.072 2.01096 189.153 1.93194 189.264 1.86872C189.374 1.8055 189.514 1.76072 189.683 1.73438L190.386 1.6198V2.01491L189.781 2.11764C189.679 2.13608 189.602 2.169 189.552 2.21642C189.502 2.26383 189.477 2.32573 189.477 2.40212C189.477 2.47587 189.505 2.53514 189.56 2.57992C189.618 2.62206 189.689 2.64314 189.774 2.64314C189.882 2.64314 189.976 2.62075 190.058 2.57597C190.142 2.52856 190.207 2.46402 190.252 2.38236C190.299 2.30071 190.323 2.21115 190.323 2.11369V1.56053C190.323 1.46834 190.286 1.39195 190.212 1.33137C190.141 1.26815 190.046 1.23654 189.928 1.23654C189.817 1.23654 189.718 1.26683 189.631 1.32741C189.547 1.38536 189.485 1.46307 189.446 1.56053L189.023 1.35507C189.065 1.24181 189.131 1.14435 189.22 1.06269C189.313 0.9784 189.421 0.912547 189.544 0.865134C189.668 0.817721 189.802 0.794014 189.947 0.794014C190.124 0.794014 190.279 0.82694 190.414 0.892792C190.548 0.95601 190.652 1.04557 190.726 1.16147C190.802 1.27473 190.84 1.40775 190.84 1.56053V2.99084H190.35V2.62338L190.461 2.61548C190.406 2.70767 190.34 2.78538 190.263 2.8486C190.187 2.90918 190.1 2.95659 190.003 2.99084C189.905 3.02245 189.797 3.03825 189.679 3.03825Z" fill="#130C49"/>
<path d="M188.382 3.01464C188.14 3.01464 187.951 2.94879 187.817 2.81708C187.685 2.68275 187.619 2.49441 187.619 2.25207V1.3038H187.248V0.841524H187.288C187.393 0.841524 187.475 0.813866 187.533 0.758551C187.59 0.703235 187.619 0.622896 187.619 0.517532V0.351585H188.137V0.841524H188.631V1.3038H188.137V2.22442C188.137 2.29554 188.149 2.35612 188.173 2.40617C188.199 2.45621 188.238 2.49441 188.291 2.52075C188.346 2.54709 188.416 2.56026 188.501 2.56026C188.519 2.56026 188.54 2.55894 188.564 2.55631C188.59 2.55368 188.615 2.55104 188.639 2.54841V2.99093C188.602 2.9962 188.56 3.00147 188.512 3.00674C188.465 3.01201 188.422 3.01464 188.382 3.01464Z" fill="#130C49"/>
<path d="M185.801 3.03825C185.651 3.03825 185.52 3.01323 185.41 2.96318C185.299 2.91313 185.213 2.84201 185.153 2.74982C185.092 2.65499 185.062 2.54568 185.062 2.42188C185.062 2.30334 185.088 2.19798 185.141 2.10579C185.194 2.01096 185.275 1.93194 185.386 1.86872C185.497 1.8055 185.636 1.76072 185.805 1.73438L186.508 1.6198V2.01491L185.903 2.11764C185.801 2.13608 185.724 2.169 185.674 2.21642C185.624 2.26383 185.599 2.32573 185.599 2.40212C185.599 2.47587 185.627 2.53514 185.682 2.57992C185.74 2.62206 185.811 2.64314 185.896 2.64314C186.004 2.64314 186.098 2.62075 186.18 2.57597C186.264 2.52856 186.329 2.46402 186.374 2.38236C186.421 2.30071 186.445 2.21115 186.445 2.11369V1.56053C186.445 1.46834 186.408 1.39195 186.334 1.33137C186.263 1.26815 186.168 1.23654 186.05 1.23654C185.939 1.23654 185.84 1.26683 185.753 1.32741C185.669 1.38536 185.607 1.46307 185.568 1.56053L185.145 1.35507C185.187 1.24181 185.253 1.14435 185.342 1.06269C185.435 0.9784 185.543 0.912547 185.666 0.865134C185.79 0.817721 185.925 0.794014 186.069 0.794014C186.246 0.794014 186.401 0.82694 186.536 0.892792C186.67 0.95601 186.774 1.04557 186.848 1.16147C186.924 1.27473 186.962 1.40775 186.962 1.56053V2.99084H186.472V2.62338L186.583 2.61548C186.528 2.70767 186.462 2.78538 186.386 2.8486C186.309 2.90918 186.222 2.95659 186.125 2.99084C186.027 3.02245 185.919 3.03825 185.801 3.03825Z" fill="#130C49"/>
<path d="M182.274 2.99089V0.0473022H183.235C183.545 0.0473022 183.815 0.11052 184.045 0.236956C184.276 0.360758 184.455 0.53329 184.582 0.754553C184.708 0.973181 184.772 1.22737 184.772 1.51712C184.772 1.80423 184.708 2.05974 184.582 2.28364C184.455 2.5049 184.276 2.67875 184.045 2.80518C183.815 2.92899 183.545 2.99089 183.235 2.99089H182.274ZM182.812 2.51675H183.246C183.447 2.51675 183.619 2.47592 183.764 2.39427C183.911 2.30998 184.026 2.19408 184.108 2.04657C184.189 1.89643 184.23 1.71994 184.23 1.51712C184.23 1.31166 184.189 1.13518 184.108 0.987669C184.026 0.84016 183.911 0.725578 183.764 0.643921C183.619 0.562265 183.447 0.521437 183.246 0.521437H182.812V2.51675Z" fill="#130C49"/>
<path d="M183.327 17.2998H194.059V30.4162H183.327V17.2998Z" fill="#85E3BC"/>
<path fill-rule="evenodd" clip-rule="evenodd" d="M193.612 17.7469H183.775V29.969H193.612V17.7469ZM183.327 17.2998V30.4162H194.059V17.2998H183.327Z" fill="#130C49"/>
<path fill-rule="evenodd" clip-rule="evenodd" d="M185.713 20.6535C185.713 20.53 185.813 20.4299 185.936 20.4299H191.451C191.574 20.4299 191.675 20.53 191.675 20.6535C191.675 20.7769 191.574 20.877 191.451 20.877H185.936C185.813 20.877 185.713 20.7769 185.713 20.6535Z" fill="#130C49"/>
<path fill-rule="evenodd" clip-rule="evenodd" d="M185.713 23.0385C185.713 22.915 185.813 22.8149 185.936 22.8149H191.451C191.574 22.8149 191.675 22.915 191.675 23.0385C191.675 23.162 191.574 23.2621 191.451 23.2621H185.936C185.813 23.2621 185.713 23.162 185.713 23.0385Z" fill="#130C49"/>
<path fill-rule="evenodd" clip-rule="evenodd" d="M185.713 25.4229C185.713 25.2994 185.813 25.1993 185.936 25.1993H191.451C191.574 25.1993 191.675 25.2994 191.675 25.4229C191.675 25.5464 191.574 25.6465 191.451 25.6465H185.936C185.813 25.6465 185.713 25.5464 185.713 25.4229Z" fill="#130C49"/>
<path d="M197.193 17.2998H207.925V30.4162H197.193V17.2998Z" fill="#85E3BC"/>
<path fill-rule="evenodd" clip-rule="evenodd" d="M207.477 17.7469H197.64V29.969H207.477V17.7469ZM197.193 17.2998V30.4162H207.925V17.2998H197.193Z" fill="#130C49"/>
<path fill-rule="evenodd" clip-rule="evenodd" d="M199.578 20.6536C199.578 20.5301 199.678 20.43 199.802 20.43H205.316C205.44 20.43 205.54 20.5301 205.54 20.6536C205.54 20.777 205.44 20.8771 205.316 20.8771H199.802C199.678 20.8771 199.578 20.777 199.578 20.6536Z" fill="#130C49"/>
<path fill-rule="evenodd" clip-rule="evenodd" d="M199.578 23.0386C199.578 22.9151 199.678 22.815 199.802 22.815H205.316C205.44 22.815 205.54 22.9151 205.54 23.0386C205.54 23.1621 205.44 23.2622 205.316 23.2622H199.802C199.678 23.2622 199.578 23.1621 199.578 23.0386Z" fill="#130C49"/>
<path fill-rule="evenodd" clip-rule="evenodd" d="M199.578 25.4229C199.578 25.2994 199.678 25.1993 199.802 25.1993H205.316C205.44 25.1993 205.54 25.2994 205.54 25.4229C205.54 25.5464 205.44 25.6465 205.316 25.6465H199.802C199.678 25.6465 199.578 25.5464 199.578 25.4229Z" fill="#130C49"/>
<path d="M183.327 32.9503H194.059V46.0667H183.327V32.9503Z" fill="#85E3BC"/>
<path fill-rule="evenodd" clip-rule="evenodd" d="M193.612 33.3974H183.775V45.6196H193.612V33.3974ZM183.327 32.9503V46.0667H194.059V32.9503H183.327Z" fill="#130C49"/>
<path fill-rule="evenodd" clip-rule="evenodd" d="M185.713 36.3042C185.713 36.1807 185.813 36.0806 185.936 36.0806H191.451C191.574 36.0806 191.675 36.1807 191.675 36.3042C191.675 36.4277 191.574 36.5278 191.451 36.5278H185.936C185.813 36.5278 185.713 36.4277 185.713 36.3042Z" fill="#130C49"/>
<path fill-rule="evenodd" clip-rule="evenodd" d="M185.713 38.689C185.713 38.5656 185.813 38.4655 185.936 38.4655H191.451C191.574 38.4655 191.675 38.5656 191.675 38.689C191.675 38.8125 191.574 38.9126 191.451 38.9126H185.936C185.813 38.9126 185.713 38.8125 185.713 38.689Z" fill="#130C49"/>
<path fill-rule="evenodd" clip-rule="evenodd" d="M185.713 41.0737C185.713 40.9503 185.813 40.8502 185.936 40.8502H191.451C191.574 40.8502 191.675 40.9503 191.675 41.0737C191.675 41.1972 191.574 41.2973 191.451 41.2973H185.936C185.813 41.2973 185.713 41.1972 185.713 41.0737Z" fill="#130C49"/>
<path d="M197.193 32.9505H207.925V46.0669H197.193V32.9505Z" fill="#85E3BC"/>
<path fill-rule="evenodd" clip-rule="evenodd" d="M207.477 33.3976H197.64V45.6198H207.477V33.3976ZM197.193 32.9505V46.0669H207.925V32.9505H197.193Z" fill="#130C49"/>
<path fill-rule="evenodd" clip-rule="evenodd" d="M199.578 36.3043C199.578 36.1808 199.678 36.0807 199.802 36.0807H205.316C205.44 36.0807 205.54 36.1808 205.54 36.3043C205.54 36.4278 205.44 36.5279 205.316 36.5279H199.802C199.678 36.5279 199.578 36.4278 199.578 36.3043Z" fill="#130C49"/>
<path fill-rule="evenodd" clip-rule="evenodd" d="M199.578 38.6892C199.578 38.5658 199.678 38.4657 199.802 38.4657H205.316C205.44 38.4657 205.54 38.5658 205.54 38.6892C205.54 38.8127 205.44 38.9128 205.316 38.9128H199.802C199.678 38.9128 199.578 38.8127 199.578 38.6892Z" fill="#130C49"/>
<path fill-rule="evenodd" clip-rule="evenodd" d="M199.578 41.0735C199.578 40.9501 199.678 40.85 199.802 40.85H205.316C205.44 40.85 205.54 40.9501 205.54 41.0735C205.54 41.197 205.44 41.2971 205.316 41.2971H199.802C199.678 41.2971 199.578 41.197 199.578 41.0735Z" fill="#130C49"/>
<path d="M15.4325 35.836C16.0512 35.7179 16.6762 35.6262 17.2933 35.4847C17.7364 35.3837 18.1701 35.2531 18.5805 35.051C19.3407 34.6779 19.7651 34.0389 20.0138 33.2585C20.2408 32.5496 20.3574 31.8174 20.4678 31.0821C20.4833 30.9811 20.502 30.88 20.558 30.7759C20.5844 30.9515 20.6093 31.1257 20.6372 31.3013C20.7461 31.9838 20.8673 32.66 21.0772 33.3223C21.4099 34.3716 22.1188 35.0137 23.1603 35.3215C23.8241 35.5173 24.5035 35.637 25.1859 35.7381C25.343 35.7614 25.4984 35.7863 25.6554 35.8283C25.2823 35.8873 24.9077 35.9433 24.5361 36.007C23.9283 36.1096 23.3282 36.2371 22.753 36.4672C21.9571 36.7859 21.4285 37.3564 21.1363 38.1586C20.9186 38.7571 20.7974 39.3758 20.6916 40.0008C20.6435 40.2884 20.6015 40.576 20.5175 40.8651C20.4678 40.5557 20.4211 40.2448 20.3698 39.937C20.2657 39.3307 20.1398 38.7291 19.9299 38.1477C19.6003 37.2336 18.9536 36.6646 18.0457 36.3661C17.3431 36.1361 16.6186 36.0133 15.8895 35.906C15.7372 35.8827 15.5848 35.8594 15.4325 35.836Z" fill="#130C49"/>
<path d="M13.2319 31.4846C13.5207 31.4295 13.8123 31.3867 14.1003 31.3207C14.3071 31.2735 14.5095 31.2126 14.701 31.1183C15.0558 30.9442 15.2538 30.646 15.3699 30.2818C15.4758 29.951 15.5302 29.6093 15.5817 29.2662C15.589 29.219 15.5977 29.1718 15.6238 29.1232C15.6361 29.2052 15.6478 29.2865 15.6608 29.3684C15.7116 29.6869 15.7682 30.0025 15.8661 30.3116C16.0214 30.8013 16.3522 31.1009 16.8383 31.2445C17.148 31.3359 17.4651 31.3918 17.7835 31.4389C17.8568 31.4498 17.9294 31.4614 18.0026 31.481C17.8285 31.5086 17.6537 31.5347 17.4803 31.5644C17.1966 31.6123 16.9166 31.6718 16.6482 31.7792C16.2767 31.9279 16.0301 32.1942 15.8937 32.5685C15.7921 32.8478 15.7355 33.1365 15.6862 33.4282C15.6637 33.5624 15.6441 33.6966 15.605 33.8315C15.5817 33.6872 15.56 33.5421 15.536 33.3984C15.4874 33.1155 15.4287 32.8347 15.3307 32.5634C15.1769 32.1368 14.8751 31.8713 14.4515 31.732C14.1235 31.6247 13.7855 31.5674 13.4452 31.5173C13.3741 31.5064 13.303 31.4955 13.2319 31.4846Z" fill="#130C49"/>
<path d="M15.1925 39.6384C15.3998 39.5989 15.6092 39.5681 15.816 39.5207C15.9645 39.4869 16.1098 39.4431 16.2473 39.3754C16.5021 39.2504 16.6443 39.0363 16.7276 38.7748C16.8037 38.5373 16.8427 38.2919 16.8797 38.0455C16.8849 38.0117 16.8912 37.9778 16.9099 37.9429C16.9188 38.0018 16.9271 38.0601 16.9365 38.119C16.973 38.3476 17.0136 38.5742 17.0839 38.7961C17.1954 39.1478 17.4329 39.3629 17.7819 39.466C18.0043 39.5317 18.232 39.5718 18.4607 39.6056C18.5133 39.6134 18.5654 39.6218 18.618 39.6358C18.493 39.6556 18.3674 39.6744 18.2429 39.6957C18.0392 39.7301 17.8382 39.7728 17.6454 39.8499C17.3787 39.9567 17.2016 40.1479 17.1037 40.4167C17.0308 40.6172 16.9901 40.8245 16.9547 41.0339C16.9386 41.1303 16.9245 41.2267 16.8964 41.3236C16.8797 41.2199 16.8641 41.1157 16.8469 41.0126C16.812 40.8094 16.7698 40.6078 16.6995 40.413C16.5891 40.1067 16.3724 39.9161 16.0681 39.8161C15.8327 39.739 15.59 39.6978 15.3457 39.6619C15.2946 39.6541 15.2436 39.6463 15.1925 39.6384Z" fill="#130C49"/>
<path d="M101.009 29.5138V29.3766C101.098 29.3766 101.16 29.3585 101.195 29.3224C101.231 29.2858 101.248 29.2265 101.248 29.1444V28.9444C101.248 28.856 101.259 28.7836 101.281 28.7271C101.304 28.6706 101.336 28.6267 101.379 28.5953C101.422 28.5639 101.475 28.5422 101.536 28.5302C101.598 28.5177 101.668 28.5114 101.746 28.5114V28.7294C101.685 28.7294 101.637 28.7381 101.604 28.7553C101.572 28.7721 101.549 28.7979 101.536 28.833C101.524 28.868 101.518 28.9127 101.518 28.9671V29.2244C101.518 29.2647 101.511 29.3023 101.498 29.3373C101.484 29.3724 101.459 29.4032 101.423 29.4299C101.387 29.456 101.336 29.4767 101.269 29.4919C101.202 29.5065 101.116 29.5138 101.009 29.5138ZM101.746 30.5045C101.668 30.5045 101.598 30.4982 101.536 30.4857C101.475 30.4737 101.422 30.452 101.379 30.4206C101.336 30.3892 101.304 30.3453 101.281 30.2888C101.259 30.2323 101.248 30.1599 101.248 30.0715V29.8723C101.248 29.7902 101.231 29.7311 101.195 29.695C101.16 29.6584 101.098 29.6401 101.009 29.6401V29.5028C101.116 29.5028 101.202 29.5104 101.269 29.5256C101.336 29.5402 101.387 29.5609 101.423 29.5876C101.459 29.6137 101.484 29.6443 101.498 29.6793C101.511 29.7144 101.518 29.7518 101.518 29.7915V30.0488C101.518 30.1032 101.524 30.1479 101.536 30.1829C101.549 30.2179 101.572 30.2441 101.604 30.2613C101.637 30.2786 101.685 30.2872 101.746 30.2872V30.5045ZM101.009 29.6401V29.3766H101.258V29.6401H101.009ZM102.674 30.1806C102.627 30.1806 102.586 30.1638 102.552 30.1304C102.518 30.0969 102.501 30.0561 102.502 30.008C102.501 29.9609 102.518 29.9207 102.552 29.8872C102.586 29.8537 102.627 29.837 102.674 29.837C102.72 29.837 102.76 29.8537 102.794 29.8872C102.829 29.9207 102.846 29.9609 102.847 30.008C102.846 30.0399 102.838 30.0689 102.822 30.0951C102.806 30.1212 102.785 30.1421 102.759 30.1578C102.733 30.173 102.705 30.1806 102.674 30.1806ZM103.315 30.1806C103.267 30.1806 103.226 30.1638 103.192 30.1304C103.158 30.0969 103.142 30.0561 103.142 30.008C103.142 29.9609 103.158 29.9207 103.192 29.8872C103.226 29.8537 103.267 29.837 103.315 29.837C103.361 29.837 103.401 29.8537 103.435 29.8872C103.469 29.9207 103.487 29.9609 103.487 30.008C103.487 30.0399 103.478 30.0689 103.462 30.0951C103.447 30.1212 103.426 30.1421 103.4 30.1578C103.374 30.173 103.346 30.1806 103.315 30.1806ZM103.955 30.1806C103.908 30.1806 103.867 30.1638 103.833 30.1304C103.799 30.0969 103.782 30.0561 103.783 30.008C103.782 29.9609 103.799 29.9207 103.833 29.8872C103.867 29.8537 103.908 29.837 103.955 29.837C104.001 29.837 104.041 29.8537 104.075 29.8872C104.11 29.9207 104.127 29.9609 104.128 30.008C104.127 30.0399 104.119 30.0689 104.103 30.0951C104.087 30.1212 104.066 30.1421 104.04 30.1578C104.015 30.173 103.986 30.1806 103.955 30.1806ZM105.094 30.1806C105.047 30.1806 105.006 30.1638 104.972 30.1304C104.938 30.0969 104.921 30.0561 104.922 30.008C104.921 29.9609 104.938 29.9207 104.972 29.8872C105.006 29.8537 105.047 29.837 105.094 29.837C105.14 29.837 105.18 29.8537 105.214 29.8872C105.249 29.9207 105.266 29.9609 105.267 30.008C105.266 30.0399 105.258 30.0689 105.242 30.0951C105.226 30.1212 105.205 30.1421 105.179 30.1578C105.153 30.173 105.125 30.1806 105.094 30.1806ZM105.094 29.3209C105.047 29.3209 105.006 29.3041 104.972 29.2707C104.938 29.2367 104.921 29.1959 104.922 29.1483C104.921 29.1012 104.938 29.061 104.972 29.0275C105.006 28.9935 105.047 28.9765 105.094 28.9765C105.14 28.9765 105.18 28.9935 105.214 29.0275C105.249 29.061 105.266 29.1012 105.267 29.1483C105.266 29.1797 105.258 29.2084 105.242 29.2346C105.226 29.2607 105.205 29.2817 105.179 29.2973C105.153 29.313 105.125 29.3209 105.094 29.3209ZM106.283 30.1806C106.235 30.1806 106.195 30.1638 106.161 30.1304C106.127 30.0969 106.11 30.0561 106.11 30.008C106.11 29.9609 106.127 29.9207 106.161 29.8872C106.195 29.8537 106.235 29.837 106.283 29.837C106.329 29.837 106.369 29.8537 106.403 29.8872C106.437 29.9207 106.455 29.9609 106.455 30.008C106.455 30.0399 106.447 30.0689 106.43 30.0951C106.415 30.1212 106.394 30.1421 106.368 30.1578C106.342 30.173 106.314 30.1806 106.283 30.1806ZM106.924 30.1806C106.876 30.1806 106.835 30.1638 106.801 30.1304C106.767 30.0969 106.75 30.0561 106.751 30.008C106.75 29.9609 106.767 29.9207 106.801 29.8872C106.835 29.8537 106.876 29.837 106.924 29.837C106.97 29.837 107.01 29.8537 107.044 29.8872C107.078 29.9207 107.096 29.9609 107.096 30.008C107.096 30.0399 107.087 30.0689 107.071 30.0951C107.055 30.1212 107.034 30.1421 107.008 30.1578C106.983 30.173 106.954 30.1806 106.924 30.1806ZM107.564 30.1806C107.517 30.1806 107.476 30.1638 107.442 30.1304C107.408 30.0969 107.391 30.0561 107.392 30.008C107.391 29.9609 107.408 29.9207 107.442 29.8872C107.476 29.8537 107.517 29.837 107.564 29.837C107.61 29.837 107.65 29.8537 107.684 29.8872C107.719 29.9207 107.736 29.9609 107.737 30.008C107.736 30.0399 107.728 30.0689 107.712 30.0951C107.696 30.1212 107.675 30.1421 107.649 30.1578C107.623 30.173 107.595 30.1806 107.564 30.1806ZM108.363 29.9437L108.353 30.03C108.346 30.0958 108.333 30.1628 108.314 30.2308C108.296 30.2993 108.276 30.3623 108.256 30.4198C108.235 30.4773 108.219 30.5225 108.206 30.5555H108.015C108.022 30.5236 108.032 30.4802 108.045 30.4253C108.058 30.3704 108.07 30.3087 108.082 30.2402C108.095 30.1717 108.103 30.1021 108.107 30.0315L108.112 29.9437H108.363ZM102.353 33.1806C102.305 33.1806 102.264 33.1638 102.23 33.1304C102.196 33.0969 102.18 33.0561 102.18 33.008C102.18 32.9609 102.196 32.9207 102.23 32.8872C102.264 32.8537 102.305 32.837 102.353 32.837C102.399 32.837 102.439 32.8537 102.473 32.8872C102.507 32.9207 102.525 32.9609 102.525 33.008C102.525 33.0399 102.516 33.0689 102.5 33.0951C102.485 33.1212 102.464 33.1421 102.437 33.1578C102.412 33.173 102.384 33.1806 102.353 33.1806ZM102.993 33.1806C102.946 33.1806 102.905 33.1638 102.871 33.1304C102.837 33.0969 102.82 33.0561 102.821 33.008C102.82 32.9609 102.837 32.9207 102.871 32.8872C102.905 32.8537 102.946 32.837 102.993 32.837C103.039 32.837 103.079 32.8537 103.113 32.8872C103.148 32.9207 103.165 32.9609 103.166 33.008C103.165 33.0399 103.157 33.0689 103.141 33.0951C103.125 33.1212 103.104 33.1421 103.078 33.1578C103.052 33.173 103.024 33.1806 102.993 33.1806ZM103.634 33.1806C103.586 33.1806 103.546 33.1638 103.512 33.1304C103.478 33.0969 103.461 33.0561 103.461 33.008C103.461 32.9609 103.478 32.9207 103.512 32.8872C103.546 32.8537 103.586 32.837 103.634 32.837C103.68 32.837 103.72 32.8537 103.754 32.8872C103.789 32.9207 103.806 32.9609 103.807 33.008C103.806 33.0399 103.798 33.0689 103.782 33.0951C103.766 33.1212 103.745 33.1421 103.719 33.1578C103.693 33.173 103.665 33.1806 103.634 33.1806ZM104.773 33.1806C104.725 33.1806 104.685 33.1638 104.651 33.1304C104.617 33.0969 104.6 33.0561 104.6 33.008C104.6 32.9609 104.617 32.9207 104.651 32.8872C104.685 32.8537 104.725 32.837 104.773 32.837C104.819 32.837 104.859 32.8537 104.893 32.8872C104.927 32.9207 104.945 32.9609 104.946 33.008C104.945 33.0399 104.937 33.0689 104.92 33.0951C104.905 33.1212 104.884 33.1421 104.858 33.1578C104.832 33.173 104.804 33.1806 104.773 33.1806ZM104.773 32.3209C104.725 32.3209 104.685 32.3041 104.651 32.2707C104.617 32.2367 104.6 32.1959 104.6 32.1483C104.6 32.1012 104.617 32.061 104.651 32.0275C104.685 31.9935 104.725 31.9765 104.773 31.9765C104.819 31.9765 104.859 31.9935 104.893 32.0275C104.927 32.061 104.945 32.1012 104.946 32.1483C104.945 32.1797 104.937 32.2084 104.92 32.2346C104.905 32.2607 104.884 32.2817 104.858 32.2973C104.832 32.313 104.804 32.3209 104.773 32.3209ZM105.884 33.5045V31.5114H106.451V31.7294H106.157V33.2872H106.451V33.5045H105.884ZM106.488 34.5138V34.3766C106.577 34.3766 106.639 34.3585 106.674 34.3224C106.709 34.2858 106.727 34.2265 106.727 34.1444V33.9444C106.727 33.856 106.738 33.7836 106.76 33.7271C106.783 33.6706 106.815 33.6267 106.858 33.5953C106.901 33.5639 106.953 33.5422 107.015 33.5302C107.077 33.5177 107.147 33.5114 107.225 33.5114V33.7294C107.164 33.7294 107.116 33.7381 107.083 33.7553C107.05 33.7721 107.028 33.7979 107.015 33.833C107.003 33.868 106.997 33.9127 106.997 33.9671V34.2244C106.997 34.2647 106.99 34.3023 106.977 34.3373C106.963 34.3724 106.938 34.4032 106.902 34.4299C106.866 34.456 106.815 34.4767 106.748 34.4919C106.681 34.5065 106.595 34.5138 106.488 34.5138ZM107.225 35.5045C107.147 35.5045 107.077 35.4982 107.015 35.4857C106.953 35.4737 106.901 35.452 106.858 35.4206C106.815 35.3892 106.783 35.3453 106.76 35.2888C106.738 35.2323 106.727 35.1599 106.727 35.0715V34.8723C106.727 34.7902 106.709 34.7311 106.674 34.695C106.639 34.6584 106.577 34.6401 106.488 34.6401V34.5028C106.595 34.5028 106.681 34.5104 106.748 34.5256C106.815 34.5402 106.866 34.5609 106.902 34.5876C106.938 34.6137 106.963 34.6443 106.977 34.6793C106.99 34.7144 106.997 34.7518 106.997 34.7915V35.0488C106.997 35.1032 107.003 35.1479 107.015 35.1829C107.028 35.2179 107.05 35.2441 107.083 35.2613C107.116 35.2786 107.164 35.2872 107.225 35.2872V35.5045ZM106.488 34.6401V34.3766H106.737V34.6401H106.488ZM107.605 35.1806C107.558 35.1806 107.517 35.1638 107.483 35.1304C107.449 35.0969 107.432 35.0561 107.433 35.008C107.432 34.9609 107.449 34.9207 107.483 34.8872C107.517 34.8537 107.558 34.837 107.605 34.837C107.651 34.837 107.691 34.8537 107.725 34.8872C107.76 34.9207 107.777 34.9609 107.778 35.008C107.777 35.0399 107.769 35.0689 107.753 35.0951C107.737 35.1212 107.716 35.1421 107.69 35.1578C107.664 35.173 107.636 35.1806 107.605 35.1806ZM108.246 35.1806C108.198 35.1806 108.157 35.1638 108.123 35.1304C108.089 35.0969 108.073 35.0561 108.073 35.008C108.073 34.9609 108.089 34.9207 108.123 34.8872C108.157 34.8537 108.198 34.837 108.246 34.837C108.292 34.837 108.332 34.8537 108.366 34.8872C108.4 34.9207 108.418 34.9609 108.418 35.008C108.418 35.0399 108.41 35.0689 108.393 35.0951C108.378 35.1212 108.357 35.1421 108.331 35.1578C108.305 35.173 108.277 35.1806 108.246 35.1806ZM108.886 35.1806C108.839 35.1806 108.798 35.1638 108.764 35.1304C108.73 35.0969 108.713 35.0561 108.714 35.008C108.713 34.9609 108.73 34.9207 108.764 34.8872C108.798 34.8537 108.839 34.837 108.886 34.837C108.932 34.837 108.973 34.8537 109.006 34.8872C109.041 34.9207 109.059 34.9609 109.059 35.008C109.059 35.0399 109.05 35.0689 109.034 35.0951C109.018 35.1212 108.997 35.1421 108.971 35.1578C108.946 35.173 108.917 35.1806 108.886 35.1806ZM110.002 34.5028V34.6401C109.914 34.6401 109.851 34.6584 109.816 34.695C109.781 34.7311 109.763 34.7902 109.763 34.8723V35.0715C109.763 35.1599 109.752 35.2323 109.729 35.2888C109.708 35.3453 109.675 35.3892 109.632 35.4206C109.589 35.452 109.537 35.4737 109.475 35.4857C109.414 35.4982 109.344 35.5045 109.265 35.5045V35.2872C109.327 35.2872 109.374 35.2786 109.407 35.2613C109.44 35.2441 109.463 35.2179 109.475 35.1829C109.487 35.1479 109.493 35.1032 109.493 35.0488V34.7915C109.493 34.7518 109.5 34.7144 109.514 34.6793C109.527 34.6443 109.552 34.6137 109.588 34.5876C109.624 34.5609 109.676 34.5402 109.742 34.5256C109.809 34.5104 109.896 34.5028 110.002 34.5028ZM109.265 33.5114C109.344 33.5114 109.414 33.5177 109.475 33.5302C109.537 33.5422 109.589 33.5639 109.632 33.5953C109.675 33.6267 109.708 33.6706 109.729 33.7271C109.752 33.7836 109.763 33.856 109.763 33.9444V34.1444C109.763 34.2265 109.781 34.2858 109.816 34.3224C109.851 34.3585 109.914 34.3766 110.002 34.3766V34.5138C109.896 34.5138 109.809 34.5065 109.742 34.4919C109.676 34.4767 109.624 34.456 109.588 34.4299C109.552 34.4032 109.527 34.3724 109.514 34.3373C109.5 34.3023 109.493 34.2647 109.493 34.2244V33.9671C109.493 33.9127 109.487 33.868 109.475 33.833C109.463 33.7979 109.44 33.7721 109.407 33.7553C109.374 33.7381 109.327 33.7294 109.265 33.7294V33.5114ZM110.002 34.3766V34.6401H109.754V34.3766H110.002ZM110.555 34.9437L110.545 35.03C110.537 35.0958 110.524 35.1628 110.505 35.2308C110.487 35.2993 110.468 35.3623 110.447 35.4198C110.427 35.4773 110.411 35.5225 110.398 35.5555H110.207C110.214 35.5236 110.224 35.4802 110.236 35.4253C110.249 35.3704 110.262 35.3087 110.274 35.2402C110.286 35.1717 110.294 35.1021 110.298 35.0315L110.304 34.9437H110.555ZM106.488 36.5138V36.3766C106.577 36.3766 106.639 36.3585 106.674 36.3224C106.709 36.2858 106.727 36.2265 106.727 36.1444V35.9444C106.727 35.856 106.738 35.7836 106.76 35.7271C106.783 35.6706 106.815 35.6267 106.858 35.5953C106.901 35.5639 106.953 35.5422 107.015 35.5302C107.077 35.5177 107.147 35.5114 107.225 35.5114V35.7294C107.164 35.7294 107.116 35.7381 107.083 35.7553C107.05 35.7721 107.028 35.7979 107.015 35.833C107.003 35.868 106.997 35.9127 106.997 35.9671V36.2244C106.997 36.2647 106.99 36.3023 106.977 36.3373C106.963 36.3724 106.938 36.4032 106.902 36.4299C106.866 36.456 106.815 36.4767 106.748 36.4919C106.681 36.5065 106.595 36.5138 106.488 36.5138ZM107.225 37.5045C107.147 37.5045 107.077 37.4982 107.015 37.4857C106.953 37.4737 106.901 37.452 106.858 37.4206C106.815 37.3892 106.783 37.3453 106.76 37.2888C106.738 37.2323 106.727 37.1599 106.727 37.0715V36.8723C106.727 36.7902 106.709 36.7311 106.674 36.695C106.639 36.6584 106.577 36.6401 106.488 36.6401V36.5028C106.595 36.5028 106.681 36.5104 106.748 36.5256C106.815 36.5402 106.866 36.5609 106.902 36.5876C106.938 36.6137 106.963 36.6443 106.977 36.6793C106.99 36.7144 106.997 36.7518 106.997 36.7915V37.0488C106.997 37.1032 107.003 37.1479 107.015 37.1829C107.028 37.2179 107.05 37.2441 107.083 37.2613C107.116 37.2786 107.164 37.2872 107.225 37.2872V37.5045ZM106.488 36.6401V36.3766H106.737V36.6401H106.488ZM107.605 37.1806C107.558 37.1806 107.517 37.1638 107.483 37.1304C107.449 37.0969 107.432 37.0561 107.433 37.008C107.432 36.9609 107.449 36.9207 107.483 36.8872C107.517 36.8537 107.558 36.837 107.605 36.837C107.651 36.837 107.691 36.8537 107.725 36.8872C107.76 36.9207 107.777 36.9609 107.778 37.008C107.777 37.0399 107.769 37.0689 107.753 37.0951C107.737 37.1212 107.716 37.1421 107.69 37.1578C107.664 37.173 107.636 37.1806 107.605 37.1806ZM108.246 37.1806C108.198 37.1806 108.157 37.1638 108.123 37.1304C108.089 37.0969 108.073 37.0561 108.073 37.008C108.073 36.9609 108.089 36.9207 108.123 36.8872C108.157 36.8537 108.198 36.837 108.246 36.837C108.292 36.837 108.332 36.8537 108.366 36.8872C108.4 36.9207 108.418 36.9609 108.418 37.008C108.418 37.0399 108.41 37.0689 108.393 37.0951C108.378 37.1212 108.357 37.1421 108.331 37.1578C108.305 37.173 108.277 37.1806 108.246 37.1806ZM108.886 37.1806C108.839 37.1806 108.798 37.1638 108.764 37.1304C108.73 37.0969 108.713 37.0561 108.714 37.008C108.713 36.9609 108.73 36.9207 108.764 36.8872C108.798 36.8537 108.839 36.837 108.886 36.837C108.932 36.837 108.973 36.8537 109.006 36.8872C109.041 36.9207 109.059 36.9609 109.059 37.008C109.059 37.0399 109.05 37.0689 109.034 37.0951C109.018 37.1212 108.997 37.1421 108.971 37.1578C108.946 37.173 108.917 37.1806 108.886 37.1806ZM110.002 36.5028V36.6401C109.914 36.6401 109.851 36.6584 109.816 36.695C109.781 36.7311 109.763 36.7902 109.763 36.8723V37.0715C109.763 37.1599 109.752 37.2323 109.729 37.2888C109.708 37.3453 109.675 37.3892 109.632 37.4206C109.589 37.452 109.537 37.4737 109.475 37.4857C109.414 37.4982 109.344 37.5045 109.265 37.5045V37.2872C109.327 37.2872 109.374 37.2786 109.407 37.2613C109.44 37.2441 109.463 37.2179 109.475 37.1829C109.487 37.1479 109.493 37.1032 109.493 37.0488V36.7915C109.493 36.7518 109.5 36.7144 109.514 36.6793C109.527 36.6443 109.552 36.6137 109.588 36.5876C109.624 36.5609 109.676 36.5402 109.742 36.5256C109.809 36.5104 109.896 36.5028 110.002 36.5028ZM109.265 35.5114C109.344 35.5114 109.414 35.5177 109.475 35.5302C109.537 35.5422 109.589 35.5639 109.632 35.5953C109.675 35.6267 109.708 35.6706 109.729 35.7271C109.752 35.7836 109.763 35.856 109.763 35.9444V36.1444C109.763 36.2265 109.781 36.2858 109.816 36.3224C109.851 36.3585 109.914 36.3766 110.002 36.3766V36.5138C109.896 36.5138 109.809 36.5065 109.742 36.4919C109.676 36.4767 109.624 36.456 109.588 36.4299C109.552 36.4032 109.527 36.3724 109.514 36.3373C109.5 36.3023 109.493 36.2647 109.493 36.2244V35.9671C109.493 35.9127 109.487 35.868 109.475 35.833C109.463 35.7979 109.44 35.7721 109.407 35.7553C109.374 35.7381 109.327 35.7294 109.265 35.7294V35.5114ZM110.002 36.3766V36.6401H109.754V36.3766H110.002ZM103.206 37.5114V39.5045H102.639V39.2872H102.933V37.7294H102.639V37.5114H103.206ZM101.732 40.5028V40.6401C101.643 40.6401 101.581 40.6584 101.546 40.695C101.511 40.7311 101.493 40.7902 101.493 40.8723V41.0715C101.493 41.1599 101.482 41.2323 101.459 41.2888C101.437 41.3453 101.405 41.3892 101.362 41.4206C101.319 41.452 101.267 41.4737 101.205 41.4857C101.143 41.4982 101.073 41.5045 100.995 41.5045V41.2872C101.057 41.2872 101.104 41.2786 101.137 41.2613C101.17 41.2441 101.192 41.2179 101.204 41.1829C101.217 41.1479 101.223 41.1032 101.223 41.0488V40.7915C101.223 40.7518 101.23 40.7144 101.244 40.6793C101.257 40.6443 101.282 40.6137 101.318 40.5876C101.354 40.5609 101.405 40.5402 101.472 40.5256C101.539 40.5104 101.626 40.5028 101.732 40.5028ZM100.995 39.5114C101.073 39.5114 101.143 39.5177 101.205 39.5302C101.267 39.5422 101.319 39.5639 101.362 39.5953C101.405 39.6267 101.437 39.6706 101.459 39.7271C101.482 39.7836 101.493 39.856 101.493 39.9444V40.1444C101.493 40.2265 101.511 40.2858 101.546 40.3224C101.581 40.3585 101.643 40.3766 101.732 40.3766V40.5138C101.626 40.5138 101.539 40.5065 101.472 40.4919C101.405 40.4767 101.354 40.456 101.318 40.4299C101.282 40.4032 101.257 40.3724 101.244 40.3373C101.23 40.3023 101.223 40.2647 101.223 40.2244V39.9671C101.223 39.9127 101.217 39.868 101.204 39.833C101.192 39.7979 101.17 39.7721 101.137 39.7553C101.104 39.7381 101.057 39.7294 100.995 39.7294V39.5114ZM101.732 40.3766V40.6401H101.484V40.3766H101.732Z" fill="#130C49"/>
</svg>
