<svg xmlns="http://www.w3.org/2000/svg" viewBox="0 0 186 74"><defs><style>.cls-1{fill:#188bf5;}</style></defs><path class="cls-1" d="M73.22,45.43a5.71,5.71,0,0,1-4.48-2A7.1,7.1,0,0,1,67,38.57a7.07,7.07,0,0,1,1.73-4.88,5.72,5.72,0,0,1,4.48-2,4.74,4.74,0,0,1,4,1.84V26.43a.35.35,0,0,1,.4-.4h2.91a.35.35,0,0,1,.4.4V44.71c0,.27-.14.4-.43.4H77.94a.35.35,0,0,1-.4-.4l-.05-1.44A4.84,4.84,0,0,1,73.22,45.43Zm-1.66-4.32a3.29,3.29,0,0,0,2.43,1,3.13,3.13,0,0,0,2.38-1,3.93,3.93,0,0,0,0-5.08,3.12,3.12,0,0,0-2.38-1,3.24,3.24,0,0,0-2.43,1,3.4,3.4,0,0,0-1,2.51A3.44,3.44,0,0,0,71.56,41.11Z"/><path class="cls-1" d="M90.52,45.43a7.12,7.12,0,0,1-5.18-2,6.7,6.7,0,0,1-2-5,6.67,6.67,0,0,1,1.87-4.86,6.43,6.43,0,0,1,4.86-1.95,5.86,5.86,0,0,1,4.56,1.84A6.19,6.19,0,0,1,96.34,38,2.92,2.92,0,0,1,96,39.47,1.21,1.21,0,0,1,94.9,40H87q.61,2.56,3.87,2.56a6,6,0,0,0,3-.8.3.3,0,0,1,.45.11l1,1.36c.14.2.1.39-.13.59A6.28,6.28,0,0,1,90.52,45.43Zm-3.63-8.06h6.17a2.94,2.94,0,0,0-1-1.95,3,3,0,0,0-2-.67,3.29,3.29,0,0,0-2.11.67A3.11,3.11,0,0,0,86.89,37.37Z"/><path class="cls-1" d="M105.2,45.43a7.12,7.12,0,0,1-5.18-2,6.7,6.7,0,0,1-2-5,6.67,6.67,0,0,1,1.87-4.86,6.43,6.43,0,0,1,4.86-1.95,5.86,5.86,0,0,1,4.56,1.84A6.19,6.19,0,0,1,111,38a2.92,2.92,0,0,1-.32,1.52,1.21,1.21,0,0,1-1.12.48h-8q.62,2.56,3.87,2.56a6,6,0,0,0,3-.8.3.3,0,0,1,.45.11l1,1.36c.14.2.1.39-.13.59A6.28,6.28,0,0,1,105.2,45.43Zm-3.63-8.06h6.17a2.94,2.94,0,0,0-1-1.95,3,3,0,0,0-2-.67,3.29,3.29,0,0,0-2.11.67A3.07,3.07,0,0,0,101.57,37.37Z"/><path class="cls-1" d="M113.76,51a.35.35,0,0,1-.4-.4V32.44a.35.35,0,0,1,.4-.4h2.64a.35.35,0,0,1,.4.4l0,1.44a4.73,4.73,0,0,1,4.27-2.16,5.7,5.7,0,0,1,4.46,2,7.06,7.06,0,0,1,1.73,4.88,7.15,7.15,0,0,1-1.73,4.91,5.7,5.7,0,0,1-4.46,2,4.83,4.83,0,0,1-4.06-1.87v7.06a.35.35,0,0,1-.4.4h-2.9Zm6.59-9a3.19,3.19,0,0,0,2.4-1,3.44,3.44,0,0,0,1-2.54,3.4,3.4,0,0,0-1-2.51,3.14,3.14,0,0,0-2.4-1,3.23,3.23,0,0,0-2.43,1,4,4,0,0,0,0,5.08A3.23,3.23,0,0,0,120.35,42.07Z"/><path class="cls-1" d="M133.9,45.43A6.08,6.08,0,0,1,129,43.27c-.16-.2-.14-.45,0-.77l.93-1.31a.42.42,0,0,1,.67-.11,5.23,5.23,0,0,0,3,1.28c1,0,1.47-.36,1.47-1.09a1,1,0,0,0-.32-.75,3.32,3.32,0,0,0-1-.61l-1.65-.67c-1.9-.75-2.86-1.94-2.86-3.58a3.49,3.49,0,0,1,1.34-2.88,5,5,0,0,1,3.23-1.07,5.46,5.46,0,0,1,4.38,2,.41.41,0,0,1,0,.56L137,35.68c-.16.2-.36.2-.61,0a3.85,3.85,0,0,0-2.38-1.09,1.35,1.35,0,0,0-.93.29,1,1,0,0,0-.32.75c0,.55.42,1,1.25,1.28l1.84.72q3,1.2,2.94,3.79a3.58,3.58,0,0,1-1.44,3A5.65,5.65,0,0,1,133.9,45.43Z"/><path class="cls-1" d="M147.68,45.43a7.12,7.12,0,0,1-5.18-2,6.7,6.7,0,0,1-2-5,6.67,6.67,0,0,1,1.87-4.86,6.44,6.44,0,0,1,4.86-1.95,5.86,5.86,0,0,1,4.56,1.84A6.19,6.19,0,0,1,153.5,38a2.92,2.92,0,0,1-.32,1.52,1.21,1.21,0,0,1-1.12.48h-7.95q.62,2.56,3.87,2.56a6,6,0,0,0,3-.8.3.3,0,0,1,.45.11l1,1.36c.14.2.1.39-.13.59A6.28,6.28,0,0,1,147.68,45.43Zm-3.63-8.06h6.17a2.94,2.94,0,0,0-1-1.95,3,3,0,0,0-2-.67,3.29,3.29,0,0,0-2.11.67A3.07,3.07,0,0,0,144.05,37.37Z"/><path class="cls-1" d="M160.78,45.43a4.38,4.38,0,0,1-2.86-.91,3.56,3.56,0,0,1-1.09-2.91V34.88h-1.65a.35.35,0,0,1-.4-.4V32.42a.35.35,0,0,1,.4-.4h1.65V29a.35.35,0,0,1,.4-.4h2.91a.35.35,0,0,1,.4.4V32h2.06a.35.35,0,0,1,.4.4V34.5a.35.35,0,0,1-.4.4h-2.06v6.33a1,1,0,0,0,1.15,1.15c.34,0,.61,0,.83,0s.48.09.48.37v2C163,45.18,162.26,45.43,160.78,45.43Z"/><path class="cls-1" d="M45.55,46h-2.1a.45.45,0,0,1-.45-.45v-5.3a.25.25,0,0,0-.25-.25H23.45a.45.45,0,0,1-.45-.45V20.48a.45.45,0,0,1,.45-.45h22.1a.45.45,0,0,1,.45.45v16.3a.25.25,0,0,0,.25.25h15.3a.45.45,0,0,1,.45.45v2.1a.45.45,0,0,1-.45.45H46.25a.25.25,0,0,0-.25.25v5.3A.45.45,0,0,1,45.55,46ZM26.2,37H42.8a.2.2,0,0,0,.2-.2V23.23a.2.2,0,0,0-.2-.2H26.2a.2.2,0,0,0-.2.2v13.6A.2.2,0,0,0,26.2,37Z"/><circle class="cls-1" cx="44.5" cy="52.53" r="3.5"/></svg>