<svg width="109" height="110" viewBox="0 0 109 110" fill="none" xmlns="http://www.w3.org/2000/svg">
<g clip-path="url(#clip0_5367_204)">
<path d="M28.3207 2.07812H2.14062V28.2582H28.3207V2.07812Z" fill="#61BB73" fill-opacity="0.5"/>
<path d="M28.7433 28.6828H1.71484V1.6543H28.7433V28.6828ZM2.5633 27.8343H27.8949V2.50275H2.5633V27.8343Z" fill="#1B1464"/>
<path d="M54.5003 2.07812H28.3203V28.2582H54.5003V2.07812Z" fill="#61BB73" fill-opacity="0.5"/>
<path d="M54.923 28.6828H27.8945V1.6543H54.923V28.6828ZM28.743 27.8343H54.0746V2.50275H28.743V27.8343Z" fill="#1B1464"/>
<path d="M80.68 2.07812H54.5V28.2582H80.68V2.07812Z" fill="#61BB73"/>
<path d="M81.1027 28.6828H54.0742V1.6543H81.1027V28.6828ZM54.9227 27.8343H80.2542V2.50275H54.9227V27.8343Z" fill="#1B1464"/>
<path d="M106.86 2.07812H80.6797V28.2582H106.86V2.07812Z" fill="#61BB73" fill-opacity="0.2"/>
<path d="M107.282 28.6828H80.2539V1.6543H107.282V28.6828ZM81.1024 27.8343H106.434V2.50275H81.1024V27.8343Z" fill="#1B1464"/>
<path d="M80.6793 54.7109H106.859V28.5309L80.6793 28.5309V54.7109Z" fill="#61BB73" fill-opacity="0.5"/>
<path d="M107.282 55.1359H80.2539V28.1074H107.282V55.1359ZM81.1024 54.2874H106.434V28.9559H81.1024V54.2874Z" fill="#1B1464"/>
<path d="M54.4997 54.7109H80.6797V28.5309L54.4997 28.5309V54.7109Z" fill="#61BB73" fill-opacity="0.2"/>
<path d="M81.1027 55.1359H54.0742V28.1074H81.1027V55.1359ZM54.9227 54.2874H80.2542V28.9559H54.9227V54.2874Z" fill="#1B1464"/>
<path d="M28.32 54.7109H54.5V28.5309L28.32 28.5309L28.32 54.7109Z" fill="#61BB73"/>
<path d="M54.923 55.1359H27.8945V28.1074H54.923V55.1359ZM28.743 54.2874H54.0746V28.9559H28.743V54.2874Z" fill="#1B1464"/>
<path d="M2.14028 54.7109H28.3203L28.3203 28.5309L2.14028 28.5309L2.14028 54.7109Z" fill="#61BB73" fill-opacity="0.2"/>
<path d="M28.7433 55.1359H1.71484V28.1074H28.7433V55.1359ZM2.5633 54.2874H27.8949V28.9559H2.5633V54.2874Z" fill="#1B1464"/>
<path d="M28.3207 54.6367H2.14062V80.8167H28.3207V54.6367Z" fill="#61BB73" fill-opacity="0.5"/>
<path d="M28.7433 81.2355H1.71484V54.207H28.7433V81.2355ZM2.5633 80.3871H27.8949V55.0555H2.5633V80.3871Z" fill="#1B1464"/>
<path d="M54.5003 54.6367H28.3203V80.8167H54.5003V54.6367Z" fill="#61BB73" fill-opacity="0.2"/>
<path d="M54.923 81.2355H27.8945V54.207H54.923V81.2355ZM28.743 80.3871H54.0746V55.0555H28.743V80.3871Z" fill="#1B1464"/>
<path d="M80.68 54.6367H54.5V80.8167H80.68V54.6367Z" fill="#61BB73" fill-opacity="0.5"/>
<path d="M81.1027 81.2355H54.0742V54.207H81.1027V81.2355ZM54.9227 80.3871H80.2542V55.0555H54.9227V80.3871Z" fill="#1B1464"/>
<path d="M106.86 54.6367H80.6797V80.8167H106.86V54.6367Z" fill="#61BB73"/>
<path d="M107.282 81.2355H80.2539V54.207H107.282V81.2355ZM81.1024 80.3871H106.434V55.0555H81.1024V80.3871Z" fill="#1B1464"/>
<path d="M107.282 107.689H80.2539V80.6602H107.282V107.689ZM81.1024 106.84H106.434V81.5086H81.1024V106.84Z" fill="#1B1464"/>
<path d="M54.4997 107.27H80.6797V81.0895H54.4997V107.27Z" fill="#61BB73" fill-opacity="0.2"/>
<path d="M81.1027 107.689H54.0742V80.6602H81.1027V107.689ZM54.9227 106.84H80.2542V81.5086H54.9227V106.84Z" fill="#1B1464"/>
<path d="M28.32 107.27H54.5V81.0895H28.32L28.32 107.27Z" fill="#61BB73" fill-opacity="0.5"/>
<path d="M54.923 107.689H27.8945V80.6602H54.923V107.689ZM28.743 106.84H54.0746V81.5086H28.743V106.84Z" fill="#1B1464"/>
<path d="M80.6793 106.92H106.859V80.7399H80.6793V106.92Z" fill="#61BB73" fill-opacity="0.5"/>
<path d="M107.282 107.339H80.2539V80.3105H107.282V107.339ZM81.1024 106.491H106.434V81.159H81.1024V106.491Z" fill="#1B1464"/>
<path d="M2.14028 107.27H28.3203L28.3203 81.0895H2.14028L2.14028 107.27Z" fill="#61BB73"/>
<path d="M28.7433 107.689H1.71484V80.6602H28.7433V107.689ZM2.5633 106.84H27.8949V81.5086H2.5633V106.84Z" fill="#1B1464"/>
<path d="M11.0374 20.0182C10.4854 20.0182 9.99721 19.8671 9.57879 19.5591C9.16038 19.2569 8.82913 18.8327 8.59668 18.2864C8.35841 17.7459 8.24219 17.1125 8.24219 16.3861C8.24219 15.6597 8.35841 15.032 8.59668 14.4858C8.83494 13.9395 9.15457 13.5211 9.57298 13.2189C9.98559 12.9167 10.4737 12.7656 11.0316 12.7656C11.5895 12.7656 12.0719 12.9167 12.4845 13.2189C12.9029 13.5211 13.2283 13.9453 13.4608 14.4858C13.6932 15.0262 13.8094 15.6597 13.8094 16.3861C13.8094 17.1125 13.6932 17.7401 13.4666 18.2864C13.2399 18.8327 12.9145 19.2569 12.4961 19.5591C12.0777 19.8613 11.5953 20.0124 11.0432 20.0124L11.0374 20.0182ZM11.0258 19.1639C11.4036 19.1639 11.729 19.0477 12.0079 18.821C12.2869 18.5944 12.5019 18.269 12.653 17.8563C12.8041 17.4437 12.8854 16.9556 12.8854 16.3977C12.8854 15.8398 12.8099 15.3517 12.653 14.9449C12.4961 14.5381 12.2869 14.2126 12.0079 13.986C11.729 13.7594 11.4036 13.6431 11.0258 13.6431C10.6481 13.6431 10.3226 13.7594 10.0437 13.986C9.76476 14.2126 9.54974 14.5381 9.39864 14.9449C9.24755 15.3575 9.16619 15.8398 9.16619 16.3977C9.16619 16.9556 9.24174 17.4321 9.39864 17.8505C9.55555 18.2631 9.77057 18.5886 10.0495 18.821C10.3285 19.0535 10.6539 19.1697 11.0258 19.1697V19.1639Z" fill="#1B1464"/>
<path d="M15.4766 19.9027V18.7695H16.3889V19.9027H15.4766Z" fill="#1B1464"/>
<path d="M17.9312 19.902V19.2627L19.8722 17.1648C20.2499 16.7581 20.5521 16.421 20.7788 16.1595C21.0054 15.898 21.1797 15.6597 21.2902 15.4505C21.4006 15.2413 21.4529 15.0205 21.4529 14.7938C21.4529 14.4103 21.3425 14.1197 21.1158 13.9105C20.8892 13.7071 20.5928 13.6025 20.2209 13.6025C19.8489 13.6025 19.5235 13.7071 19.262 13.9221C19.0005 14.1371 18.8145 14.4393 18.7157 14.8345L17.8789 14.6195C17.9603 14.2418 18.1114 13.9163 18.3322 13.6374C18.553 13.3584 18.8262 13.1492 19.1458 12.9981C19.4654 12.847 19.8257 12.7715 20.2151 12.7715C20.6509 12.7715 21.0286 12.8528 21.3483 13.0214C21.6737 13.1899 21.9236 13.4165 22.1096 13.7129C22.2955 14.0093 22.3885 14.3522 22.3885 14.7415C22.3885 14.9972 22.3362 15.2529 22.2258 15.497C22.1212 15.7411 21.9643 16.0026 21.7551 16.2757C21.5459 16.5488 21.2785 16.8627 20.9473 17.223L19.2155 19.1058H22.5396V19.9078H17.9312V19.902Z" fill="#1B1464"/>
<path d="M37.1468 20.0182C36.5947 20.0182 36.1066 19.8671 35.6882 19.5591C35.2698 19.2569 34.9385 18.8327 34.7061 18.2864C34.4678 17.7459 34.3516 17.1125 34.3516 16.3861C34.3516 15.6597 34.4678 15.032 34.7061 14.4858C34.9443 13.9395 35.2639 13.5211 35.6824 13.2189C36.095 12.9167 36.5831 12.7656 37.141 12.7656C37.6989 12.7656 38.1812 12.9167 38.5938 13.2189C39.0122 13.5211 39.3377 13.9453 39.5701 14.4858C39.8026 15.0262 39.9188 15.6597 39.9188 16.3861C39.9188 17.1125 39.8026 17.7401 39.5759 18.2864C39.3493 18.8327 39.0239 19.2569 38.6055 19.5591C38.187 19.8613 37.7047 20.0124 37.1526 20.0124L37.1468 20.0182ZM37.1352 19.1639C37.5129 19.1639 37.8384 19.0477 38.1173 18.821C38.3962 18.5944 38.6113 18.269 38.7624 17.8563C38.9135 17.4437 38.9948 16.9556 38.9948 16.3977C38.9948 15.8398 38.9193 15.3517 38.7624 14.9449C38.6055 14.5381 38.3962 14.2126 38.1173 13.986C37.8384 13.7594 37.5129 13.6431 37.1352 13.6431C36.7575 13.6431 36.432 13.7594 36.1531 13.986C35.8741 14.2126 35.6591 14.5381 35.508 14.9449C35.3569 15.3575 35.2756 15.8398 35.2756 16.3977C35.2756 16.9556 35.3511 17.4321 35.508 17.8505C35.6649 18.2631 35.8799 18.5886 36.1589 18.821C36.4378 19.0535 36.7633 19.1697 37.1352 19.1697V19.1639Z" fill="#1B1464"/>
<path d="M41.5859 19.9027V18.7695H42.4983V19.9027H41.5859Z" fill="#1B1464"/>
<path d="M44.2587 19.9009L47.3387 13.6828H43.8984V12.8809H48.3092V13.6828L45.2583 19.9009H44.2587Z" fill="#1B1464"/>
<path d="M88.8695 20.1295C88.3174 20.1295 87.8292 19.9784 87.4108 19.6704C86.9924 19.3682 86.6612 18.944 86.4287 18.3977C86.1904 17.8573 86.0742 17.2238 86.0742 16.4974C86.0742 15.771 86.1904 15.1434 86.4287 14.5971C86.667 14.0508 86.9866 13.6324 87.405 13.3302C87.8176 13.028 88.3058 12.877 88.8637 12.877C89.4215 12.877 89.9039 13.028 90.3165 13.3302C90.7349 13.6324 91.0603 14.0567 91.2928 14.5971C91.5252 15.1376 91.6415 15.771 91.6415 16.4974C91.6415 17.2238 91.5252 17.8514 91.2986 18.3977C91.072 18.944 90.7465 19.3682 90.3281 19.6704C89.9097 19.9726 89.4274 20.1237 88.8753 20.1237L88.8695 20.1295ZM88.8578 19.2752C89.2356 19.2752 89.561 19.159 89.84 18.9324C90.1189 18.7057 90.3339 18.3803 90.485 17.9677C90.6361 17.5551 90.7175 17.0669 90.7175 16.509C90.7175 15.9511 90.6419 15.463 90.485 15.0562C90.3281 14.6494 90.1189 14.324 89.84 14.0973C89.561 13.8707 89.2356 13.7545 88.8578 13.7545C88.4801 13.7545 88.1547 13.8707 87.8757 14.0973C87.5968 14.324 87.3818 14.6494 87.2307 15.0562C87.0796 15.4688 86.9982 15.9511 86.9982 16.509C86.9982 17.0669 87.0738 17.5434 87.2307 17.9619C87.3876 18.3745 87.6026 18.6999 87.8815 18.9324C88.1605 19.1648 88.4859 19.281 88.8578 19.281V19.2752Z" fill="#1B1464"/>
<path d="M93.3047 20.0199V18.8867H94.2171V20.0199H93.3047Z" fill="#1B1464"/>
<path d="M98.0156 20.1305C97.6436 20.1305 97.3008 20.0666 96.987 19.933C96.6673 19.7993 96.3942 19.6133 96.1617 19.3751C95.9293 19.131 95.7549 18.8462 95.6445 18.515L96.4233 18.1954C96.5569 18.5499 96.7603 18.823 97.0451 19.0148C97.3298 19.2065 97.6494 19.3053 98.0156 19.3053C98.3119 19.3053 98.5734 19.2472 98.8001 19.1368C99.0267 19.0264 99.2011 18.8579 99.3289 18.6487C99.4568 18.4336 99.5149 18.1779 99.5149 17.8758C99.5149 17.5736 99.451 17.3179 99.3231 17.1028C99.1953 16.8878 99.0209 16.7251 98.7943 16.6205C98.5734 16.5101 98.3119 16.4578 98.0156 16.4578C97.9168 16.4578 97.8122 16.4636 97.7076 16.4752C97.603 16.4868 97.51 16.5043 97.4344 16.5217L97.2368 16.0975L99.1139 13.8078H96.0048V13.0059H100.16V13.7904L98.37 15.9871L98.3119 15.743C98.7304 15.7546 99.1023 15.8534 99.4219 16.0336C99.7415 16.2137 99.9914 16.4636 100.177 16.7716C100.358 17.0854 100.451 17.4457 100.451 17.8583C100.451 18.2709 100.346 18.6719 100.137 19.0148C99.9275 19.3576 99.6427 19.6308 99.2824 19.8342C98.9163 20.0376 98.4979 20.1364 98.0214 20.1364L98.0156 20.1305Z" fill="#1B1464"/>
<path d="M63.389 20.1295C62.8369 20.1295 62.3488 19.9784 61.9304 19.6704C61.5119 19.3682 61.1807 18.944 60.9482 18.3977C60.71 17.8573 60.5938 17.2238 60.5938 16.4974C60.5938 15.771 60.71 15.1434 60.9482 14.5971C61.1865 14.0508 61.5061 13.6324 61.9245 13.3302C62.3371 13.028 62.8253 12.877 63.3832 12.877C63.9411 12.877 64.4234 13.028 64.836 13.3302C65.2544 13.6324 65.5799 14.0567 65.8123 14.5971C66.0448 15.1376 66.161 15.771 66.161 16.4974C66.161 17.2238 66.0448 17.8514 65.8181 18.3977C65.5915 18.944 65.2661 19.3682 64.8476 19.6704C64.4292 19.9726 63.9469 20.1237 63.3948 20.1237L63.389 20.1295ZM63.3774 19.2752C63.7551 19.2752 64.0805 19.159 64.3595 18.9324C64.6384 18.7057 64.8535 18.3803 65.0045 17.9677C65.1556 17.5551 65.237 17.0669 65.237 16.509C65.237 15.9511 65.1615 15.463 65.0045 15.0562C64.8476 14.6494 64.6384 14.324 64.3595 14.0973C64.0805 13.8707 63.7551 13.7545 63.3774 13.7545C62.9996 13.7545 62.6742 13.8707 62.3953 14.0973C62.1163 14.324 61.9013 14.6494 61.7502 15.0562C61.5991 15.4688 61.5178 15.9511 61.5178 16.509C61.5178 17.0669 61.5933 17.5434 61.7502 17.9619C61.9071 18.3745 62.1221 18.6999 62.4011 18.9324C62.68 19.1648 63.0055 19.281 63.3774 19.281V19.2752Z" fill="#1B1464"/>
<path d="M67.8281 20.0199V18.8867H68.7405V20.0199H67.8281Z" fill="#1B1464"/>
<path d="M71.2175 20.0181V13.8H69.8867V12.998H72.1473V20.0181H71.2175Z" fill="#1B1464"/>
<path d="M11.6585 44.3326C11.1065 44.3326 10.6183 44.1815 10.1999 43.8735C9.78147 43.5713 9.45023 43.1471 9.21777 42.6008C8.97951 42.0604 8.86328 41.427 8.86328 40.7005C8.86328 39.9741 8.97951 39.3465 9.21777 38.8002C9.45604 38.254 9.77566 37.8356 10.1941 37.5334C10.6067 37.2312 11.0948 37.0801 11.6527 37.0801C12.2106 37.0801 12.6929 37.2312 13.1056 37.5334C13.524 37.8356 13.8494 38.2598 14.0819 38.8002C14.3143 39.3407 14.4305 39.9741 14.4305 40.7005C14.4305 41.427 14.3143 42.0546 14.0877 42.6008C13.861 43.1471 13.5356 43.5713 13.1172 43.8735C12.6988 44.1757 12.2164 44.3268 11.6643 44.3268L11.6585 44.3326ZM11.6469 43.4783C12.0246 43.4783 12.3501 43.3621 12.629 43.1355C12.908 42.9088 13.123 42.5834 13.2741 42.1708C13.4252 41.7582 13.5065 41.27 13.5065 40.7122C13.5065 40.1543 13.431 39.6661 13.2741 39.2593C13.1172 38.8525 12.908 38.5271 12.629 38.3005C12.3501 38.0738 12.0246 37.9576 11.6469 37.9576C11.2692 37.9576 10.9437 38.0738 10.6648 38.3005C10.3858 38.5271 10.1708 38.8525 10.0197 39.2593C9.86864 39.6719 9.78728 40.1543 9.78728 40.7122C9.78728 41.27 9.86283 41.7466 10.0197 42.165C10.1766 42.5776 10.3917 42.903 10.6706 43.1355C10.9495 43.3679 11.275 43.4842 11.6469 43.4842V43.4783Z" fill="#1B1464"/>
<path d="M16.0938 44.2172V43.084H17.0061V44.2172H16.0938Z" fill="#1B1464"/>
<path d="M19.2499 44.2164L21.6733 41.0725L21.836 41.0899C21.7488 41.212 21.6442 41.305 21.528 41.3747C21.4118 41.4444 21.2897 41.4967 21.1561 41.5316C21.0224 41.5607 20.8771 41.5781 20.7202 41.5781C20.3076 41.5781 19.9357 41.4851 19.6044 41.2933C19.2732 41.1016 19.0117 40.8401 18.8199 40.503C18.6281 40.1659 18.5352 39.7882 18.5352 39.3582C18.5352 38.9281 18.6339 38.5271 18.8373 38.1901C19.0407 37.853 19.3139 37.5799 19.6684 37.3823C20.0229 37.1847 20.418 37.0859 20.8539 37.0859C21.2897 37.0859 21.7081 37.1847 22.0568 37.3881C22.4055 37.5915 22.6786 37.8647 22.882 38.2133C23.0854 38.562 23.1842 38.9572 23.1842 39.4047C23.1842 39.6487 23.1552 39.8928 23.097 40.1311C23.0389 40.3693 22.9518 40.6134 22.8297 40.8575C22.7077 41.1016 22.545 41.3573 22.3474 41.6188L20.3715 44.2164H19.2616H19.2499ZM20.8481 40.7703C21.1154 40.7703 21.3595 40.7064 21.5629 40.5844C21.7663 40.4623 21.9348 40.2938 22.0568 40.0788C22.1789 39.8638 22.2428 39.6197 22.2428 39.3465C22.2428 39.0734 22.1789 38.8235 22.0568 38.6085C21.9348 38.3935 21.7663 38.225 21.557 38.0971C21.3478 37.9751 21.1096 37.9111 20.8481 37.9111C20.5866 37.9111 20.3483 37.9751 20.1449 38.0971C19.9357 38.2191 19.773 38.3877 19.6509 38.6085C19.5289 38.8235 19.465 39.0734 19.465 39.3465C19.465 39.6197 19.5231 39.8696 19.6451 40.0788C19.7672 40.2938 19.9299 40.4623 20.1391 40.5844C20.3483 40.7064 20.5866 40.7703 20.8481 40.7703Z" fill="#1B1464"/>
<path d="M37.7679 44.3326C37.2158 44.3326 36.7277 44.1815 36.3093 43.8735C35.8908 43.5713 35.5596 43.1471 35.3271 42.6008C35.0889 42.0604 34.9727 41.427 34.9727 40.7005C34.9727 39.9741 35.0889 39.3465 35.3271 38.8002C35.5654 38.254 35.885 37.8356 36.3035 37.5334C36.7161 37.2312 37.2042 37.0801 37.7621 37.0801C38.32 37.0801 38.8023 37.2312 39.2149 37.5334C39.6333 37.8356 39.9588 38.2598 40.1912 38.8002C40.4237 39.3407 40.5399 39.9741 40.5399 40.7005C40.5399 41.427 40.4237 42.0546 40.197 42.6008C39.9704 43.1471 39.645 43.5713 39.2265 43.8735C38.8081 44.1757 38.3258 44.3268 37.7737 44.3268L37.7679 44.3326ZM37.7563 43.4783C38.134 43.4783 38.4595 43.3621 38.7384 43.1355C39.0173 42.9088 39.2324 42.5834 39.3835 42.1708C39.5345 41.7582 39.6159 41.27 39.6159 40.7122C39.6159 40.1543 39.5404 39.6661 39.3835 39.2593C39.2265 38.8525 39.0173 38.5271 38.7384 38.3005C38.4595 38.0738 38.134 37.9576 37.7563 37.9576C37.3785 37.9576 37.0531 38.0738 36.7742 38.3005C36.4952 38.5271 36.2802 38.8525 36.1291 39.2593C35.978 39.6719 35.8967 40.1543 35.8967 40.7122C35.8967 41.27 35.9722 41.7466 36.1291 42.165C36.286 42.5776 36.501 42.903 36.78 43.1355C37.0589 43.3679 37.3844 43.4842 37.7563 43.4842V43.4783Z" fill="#1B1464"/>
<path d="M42.207 44.2172V43.084H43.1194V44.2172H42.207Z" fill="#1B1464"/>
<path d="M48.0085 44.2154V42.5941H44.5508V41.8328L47.9911 37.2012H48.8744V41.8328H49.7868V42.5941H48.8744V44.2154H48.0085ZM45.2598 42.164L45.1261 41.8328H48.0085V37.9683L48.2817 38.0438L45.2598 42.1582V42.164Z" fill="#1B1464"/>
<path d="M89.4906 44.4439C88.9385 44.4439 88.4503 44.2928 88.0319 43.9848C87.6135 43.6827 87.2823 43.2584 87.0498 42.7122C86.8115 42.1717 86.6953 41.5383 86.6953 40.8119C86.6953 40.0854 86.8115 39.4578 87.0498 38.9116C87.2881 38.3653 87.6077 37.9469 88.0261 37.6447C88.4387 37.3425 88.9269 37.1914 89.4848 37.1914C90.0426 37.1914 90.525 37.3425 90.9376 37.6447C91.356 37.9469 91.6814 38.3711 91.9139 38.9116C92.1463 39.452 92.2626 40.0854 92.2626 40.8119C92.2626 41.5383 92.1463 42.1659 91.9197 42.7122C91.6931 43.2584 91.3676 43.6827 90.9492 43.9848C90.5308 44.287 90.0485 44.4381 89.4964 44.4381L89.4906 44.4439ZM89.4789 43.5897C89.8567 43.5897 90.1821 43.4734 90.4611 43.2468C90.74 43.0202 90.955 42.6947 91.1061 42.2821C91.2572 41.8695 91.3386 41.3814 91.3386 40.8235C91.3386 40.2656 91.263 39.7774 91.1061 39.3707C90.9492 38.9639 90.74 38.6384 90.4611 38.4118C90.1821 38.1851 89.8567 38.0689 89.4789 38.0689C89.1012 38.0689 88.7758 38.1851 88.4968 38.4118C88.2179 38.6384 88.0029 38.9639 87.8518 39.3707C87.7007 39.7833 87.6193 40.2656 87.6193 40.8235C87.6193 41.3814 87.6949 41.8579 87.8518 42.2763C88.0087 42.6889 88.2237 43.0144 88.5026 43.2468C88.7816 43.4793 89.107 43.5955 89.4789 43.5955V43.5897Z" fill="#1B1464"/>
<path d="M93.9258 44.3344V43.2012H94.8382V44.3344H93.9258Z" fill="#1B1464"/>
<path d="M98.7132 44.443C98.2599 44.443 97.8589 44.3442 97.5102 44.1408C97.1615 43.9374 96.8884 43.6643 96.685 43.3156C96.4816 42.9669 96.3828 42.5718 96.3828 42.1243C96.3828 41.8802 96.4119 41.6361 96.47 41.3979C96.5281 41.1596 96.6153 40.9155 96.7431 40.6715C96.871 40.4274 97.0279 40.1717 97.2255 39.9102L99.1955 37.3125H100.317L97.8938 40.4564L97.7252 40.439C97.8182 40.3111 97.9228 40.2182 98.039 40.1484C98.1553 40.0787 98.2831 40.0264 98.4168 39.9973C98.5504 39.9683 98.6957 39.9508 98.8468 39.9508C99.2594 39.9508 99.6313 40.0438 99.9626 40.2356C100.294 40.4274 100.555 40.6889 100.741 41.0201C100.933 41.3514 101.032 41.7349 101.032 42.1708C101.032 42.6066 100.933 42.9902 100.73 43.333C100.526 43.6759 100.253 43.9432 99.9045 44.1408C99.5558 44.3384 99.1606 44.4372 98.7132 44.4372V44.443ZM98.7132 43.612C98.9747 43.612 99.2129 43.5539 99.4221 43.426C99.6313 43.2982 99.7941 43.1354 99.9161 42.9146C100.038 42.6938 100.102 42.4497 100.102 42.1824C100.102 41.9151 100.044 41.6536 99.9219 41.4444C99.7999 41.2351 99.6372 41.0666 99.428 40.9446C99.2187 40.8225 98.9805 40.7586 98.719 40.7586C98.4575 40.7586 98.2192 40.8225 98.0042 40.9446C97.7892 41.0666 97.6264 41.2351 97.5044 41.4444C97.3824 41.6536 97.3242 41.9035 97.3242 42.1824C97.3242 42.4613 97.3882 42.6996 97.5102 42.9146C97.6322 43.1354 97.8008 43.304 98.01 43.426C98.2192 43.5481 98.4575 43.612 98.719 43.612H98.7132Z" fill="#1B1464"/>
<path d="M64.014 44.4439C63.4619 44.4439 62.9738 44.2928 62.5554 43.9848C62.1369 43.6827 61.8057 43.2584 61.5732 42.7122C61.335 42.1717 61.2188 41.5383 61.2188 40.8119C61.2188 40.0854 61.335 39.4578 61.5732 38.9116C61.8115 38.3653 62.1311 37.9469 62.5495 37.6447C62.9621 37.3425 63.4503 37.1914 64.0082 37.1914C64.5661 37.1914 65.0484 37.3425 65.461 37.6447C65.8794 37.9469 66.2049 38.3711 66.4373 38.9116C66.6698 39.452 66.786 40.0854 66.786 40.8119C66.786 41.5383 66.6698 42.1659 66.4431 42.7122C66.2165 43.2584 65.8911 43.6827 65.4726 43.9848C65.0542 44.287 64.5719 44.4381 64.0198 44.4381L64.014 44.4439ZM64.0024 43.5897C64.3801 43.5897 64.7055 43.4734 64.9845 43.2468C65.2634 43.0202 65.4785 42.6947 65.6295 42.2821C65.7806 41.8695 65.862 41.3814 65.862 40.8235C65.862 40.2656 65.7865 39.7774 65.6295 39.3707C65.4726 38.9639 65.2634 38.6384 64.9845 38.4118C64.7055 38.1851 64.3801 38.0689 64.0024 38.0689C63.6246 38.0689 63.2992 38.1851 63.0203 38.4118C62.7413 38.6384 62.5263 38.9639 62.3752 39.3707C62.2241 39.7833 62.1427 40.2656 62.1427 40.8235C62.1427 41.3814 62.2183 41.8579 62.3752 42.2763C62.5321 42.6889 62.7471 43.0144 63.0261 43.2468C63.305 43.4793 63.6304 43.5955 64.0024 43.5955V43.5897Z" fill="#1B1464"/>
<path d="M68.4531 44.3344V43.2012H69.3655V44.3344H68.4531Z" fill="#1B1464"/>
<path d="M70.9117 44.3336V43.6944L72.8527 41.5965C73.2304 41.1897 73.5326 40.8526 73.7592 40.5911C73.9859 40.3296 74.1602 40.0914 74.2706 39.8821C74.381 39.6729 74.4333 39.4521 74.4333 39.2255C74.4333 38.8419 74.3229 38.5514 74.0963 38.3421C73.8696 38.1388 73.5733 38.0341 73.2013 38.0341C72.8294 38.0341 72.504 38.1387 72.2425 38.3538C71.981 38.5688 71.795 38.871 71.6962 39.2661L70.8594 39.0511C70.9407 38.6734 71.0918 38.348 71.3127 38.069C71.5335 37.7901 71.8066 37.5809 72.1262 37.4298C72.4459 37.2787 72.8062 37.2031 73.1955 37.2031C73.6314 37.2031 74.0091 37.2845 74.3287 37.453C74.6542 37.6215 74.9041 37.8482 75.09 38.1446C75.276 38.4409 75.369 38.7838 75.369 39.1732C75.369 39.4289 75.3167 39.6846 75.2062 39.9286C75.1016 40.1727 74.9447 40.4342 74.7355 40.7074C74.5263 40.9805 74.259 41.2943 73.9278 41.6546L72.196 43.5375H75.5201V44.3394H70.9117V44.3336Z" fill="#1B1464"/>
<path d="M11.6585 71.5299C11.1065 71.5299 10.6183 71.3788 10.1999 71.0708C9.78147 70.7686 9.45023 70.3444 9.21777 69.7981C8.97951 69.2577 8.86328 68.6242 8.86328 67.8978C8.86328 67.1714 8.97951 66.5438 9.21777 65.9975C9.45604 65.4512 9.77566 65.0328 10.1941 64.7306C10.6067 64.4284 11.0948 64.2773 11.6527 64.2773C12.2106 64.2773 12.6929 64.4284 13.1056 64.7306C13.524 65.0328 13.8494 65.457 14.0819 65.9975C14.3143 66.5379 14.4305 67.1714 14.4305 67.8978C14.4305 68.6242 14.3143 69.2518 14.0877 69.7981C13.861 70.3444 13.5356 70.7686 13.1172 71.0708C12.6988 71.373 12.2164 71.5241 11.6643 71.5241L11.6585 71.5299ZM11.6469 70.6756C12.0246 70.6756 12.3501 70.5594 12.629 70.3327C12.908 70.1061 13.123 69.7807 13.2741 69.3681C13.4252 68.9555 13.5065 68.4673 13.5065 67.9094C13.5065 67.3515 13.431 66.8634 13.2741 66.4566C13.1172 66.0498 12.908 65.7244 12.629 65.4977C12.3501 65.2711 12.0246 65.1549 11.6469 65.1549C11.2692 65.1549 10.9437 65.2711 10.6648 65.4977C10.3858 65.7244 10.1708 66.0498 10.0197 66.4566C9.86864 66.8692 9.78728 67.3515 9.78728 67.9094C9.78728 68.4673 9.86283 68.9438 10.0197 69.3623C10.1766 69.7749 10.3917 70.1003 10.6706 70.3327C10.9495 70.5652 11.275 70.6814 11.6469 70.6814V70.6756Z" fill="#1B1464"/>
<path d="M16.0938 71.4184V70.2852H17.0061V71.4184H16.0938Z" fill="#1B1464"/>
<path d="M19.487 71.4185V65.2004H18.1562V64.3984H20.4169V71.4185H19.487Z" fill="#1B1464"/>
<path d="M37.7679 71.5299C37.2158 71.5299 36.7277 71.3788 36.3093 71.0708C35.8908 70.7686 35.5596 70.3444 35.3271 69.7981C35.0889 69.2577 34.9727 68.6242 34.9727 67.8978C34.9727 67.1714 35.0889 66.5438 35.3271 65.9975C35.5654 65.4512 35.885 65.0328 36.3035 64.7306C36.7161 64.4284 37.2042 64.2773 37.7621 64.2773C38.32 64.2773 38.8023 64.4284 39.2149 64.7306C39.6333 65.0328 39.9588 65.457 40.1912 65.9975C40.4237 66.5379 40.5399 67.1714 40.5399 67.8978C40.5399 68.6242 40.4237 69.2518 40.197 69.7981C39.9704 70.3444 39.645 70.7686 39.2265 71.0708C38.8081 71.373 38.3258 71.5241 37.7737 71.5241L37.7679 71.5299ZM37.7563 70.6756C38.134 70.6756 38.4595 70.5594 38.7384 70.3327C39.0173 70.1061 39.2324 69.7807 39.3835 69.3681C39.5345 68.9555 39.6159 68.4673 39.6159 67.9094C39.6159 67.3515 39.5404 66.8634 39.3835 66.4566C39.2265 66.0498 39.0173 65.7244 38.7384 65.4977C38.4595 65.2711 38.134 65.1549 37.7563 65.1549C37.3785 65.1549 37.0531 65.2711 36.7742 65.4977C36.4952 65.7244 36.2802 66.0498 36.1291 66.4566C35.978 66.8692 35.8967 67.3515 35.8967 67.9094C35.8967 68.4673 35.9722 68.9438 36.1291 69.3623C36.286 69.7749 36.501 70.1003 36.78 70.3327C37.0589 70.5652 37.3844 70.6814 37.7563 70.6814V70.6756Z" fill="#1B1464"/>
<path d="M42.207 71.4184V70.2852H43.1194V71.4184H42.207Z" fill="#1B1464"/>
<path d="M46.9843 71.5289C46.6182 71.5289 46.2753 71.465 45.9557 71.3372C45.6361 71.2093 45.3571 71.0234 45.1247 70.7793C44.8922 70.5352 44.7179 70.2504 44.6133 69.925L45.3688 69.6054C45.5024 69.9483 45.7174 70.2214 46.0138 70.4132C46.3102 70.6049 46.6356 70.6979 46.9901 70.6979C47.2807 70.6979 47.5306 70.634 47.7514 70.5061C47.9722 70.3783 48.1466 70.1981 48.2744 69.9715C48.4023 69.7449 48.4662 69.4892 48.4662 69.2044C48.4662 68.9197 48.4023 68.6465 48.2744 68.4257C48.1466 68.199 47.9722 68.0247 47.7514 67.891C47.5306 67.7574 47.2807 67.6993 46.9959 67.6993C46.7112 67.6993 46.4439 67.7632 46.2056 67.8969C45.9673 68.0305 45.793 68.1932 45.6884 68.3966L44.9329 68.2339L45.4675 64.3984H49.1113V65.2004H45.822L46.1823 64.8401L45.7697 67.8155L45.4501 67.6295C45.6593 67.368 45.9034 67.1763 46.1823 67.06C46.4613 66.9438 46.7635 66.8857 47.0889 66.8857C47.548 66.8857 47.949 66.9903 48.2977 67.1995C48.6405 67.4087 48.9137 67.6818 49.1054 68.0305C49.2972 68.3734 49.396 68.7686 49.396 69.2102C49.396 69.6519 49.2914 70.047 49.0822 70.3957C48.873 70.7444 48.5882 71.0234 48.2221 71.2267C47.8618 71.4301 47.4492 71.5347 46.9843 71.5347V71.5289Z" fill="#1B1464"/>
<path d="M89.4906 71.6471C88.9385 71.6471 88.4503 71.496 88.0319 71.188C87.6135 70.8858 87.2823 70.4616 87.0498 69.9153C86.8115 69.3748 86.6953 68.7414 86.6953 68.015C86.6953 67.2886 86.8115 66.6609 87.0498 66.1147C87.2881 65.5684 87.6077 65.15 88.0261 64.8478C88.4387 64.5456 88.9269 64.3945 89.4848 64.3945C90.0426 64.3945 90.525 64.5456 90.9376 64.8478C91.356 65.15 91.6814 65.5742 91.9139 66.1147C92.1463 66.6551 92.2626 67.2886 92.2626 68.015C92.2626 68.7414 92.1463 69.369 91.9197 69.9153C91.6931 70.4616 91.3676 70.8858 90.9492 71.188C90.5308 71.4902 90.0485 71.6413 89.4964 71.6413L89.4906 71.6471ZM89.4789 70.7928C89.8567 70.7928 90.1821 70.6766 90.4611 70.4499C90.74 70.2233 90.955 69.8979 91.1061 69.4853C91.2572 69.0726 91.3386 68.5845 91.3386 68.0266C91.3386 67.4687 91.263 66.9806 91.1061 66.5738C90.9492 66.167 90.74 65.8416 90.4611 65.6149C90.1821 65.3883 89.8567 65.272 89.4789 65.272C89.1012 65.272 88.7758 65.3883 88.4968 65.6149C88.2179 65.8416 88.0029 66.167 87.8518 66.5738C87.7007 66.9864 87.6193 67.4687 87.6193 68.0266C87.6193 68.5845 87.6949 69.061 87.8518 69.4794C88.0087 69.892 88.2237 70.2175 88.5026 70.4499C88.7816 70.6824 89.107 70.7986 89.4789 70.7986V70.7928Z" fill="#1B1464"/>
<path d="M93.9258 71.5316V70.3984H94.8382V71.5316H93.9258Z" fill="#1B1464"/>
<path d="M96.3843 71.5309V70.8916L98.3253 68.7938C98.703 68.387 99.0052 68.0499 99.2319 67.7884C99.4585 67.5269 99.6329 67.2886 99.7433 67.0794C99.8537 66.8702 99.906 66.6494 99.906 66.4227C99.906 66.0392 99.7956 65.7486 99.5689 65.5394C99.3423 65.336 99.0459 65.2314 98.674 65.2314C98.3021 65.2314 97.9766 65.336 97.7151 65.551C97.4536 65.7661 97.2677 66.0682 97.1689 66.4634L96.332 66.2484C96.4134 65.8707 96.5645 65.5452 96.7853 65.2663C97.0061 64.9873 97.2793 64.7781 97.5989 64.627C97.9185 64.4759 98.2788 64.4004 98.6682 64.4004C99.104 64.4004 99.4818 64.4817 99.8014 64.6503C100.127 64.8188 100.377 65.0454 100.563 65.3418C100.749 65.6382 100.842 65.9811 100.842 66.3704C100.842 66.6261 100.789 66.8818 100.679 67.1259C100.574 67.37 100.417 67.6315 100.208 67.9046C99.999 68.1778 99.7317 68.4916 99.4004 68.8519L97.6686 70.7347H100.993V71.5367H96.3843V71.5309Z" fill="#1B1464"/>
<path d="M64.014 71.6471C63.4619 71.6471 62.9738 71.496 62.5554 71.188C62.1369 70.8858 61.8057 70.4616 61.5732 69.9153C61.335 69.3748 61.2188 68.7414 61.2188 68.015C61.2188 67.2886 61.335 66.6609 61.5732 66.1147C61.8115 65.5684 62.1311 65.15 62.5495 64.8478C62.9621 64.5456 63.4503 64.3945 64.0082 64.3945C64.5661 64.3945 65.0484 64.5456 65.461 64.8478C65.8794 65.15 66.2049 65.5742 66.4373 66.1147C66.6698 66.6551 66.786 67.2886 66.786 68.015C66.786 68.7414 66.6698 69.369 66.4431 69.9153C66.2165 70.4616 65.8911 70.8858 65.4726 71.188C65.0542 71.4902 64.5719 71.6413 64.0198 71.6413L64.014 71.6471ZM64.0024 70.7928C64.3801 70.7928 64.7055 70.6766 64.9845 70.4499C65.2634 70.2233 65.4785 69.8979 65.6295 69.4853C65.7806 69.0726 65.862 68.5845 65.862 68.0266C65.862 67.4687 65.7865 66.9806 65.6295 66.5738C65.4726 66.167 65.2634 65.8416 64.9845 65.6149C64.7055 65.3883 64.3801 65.272 64.0024 65.272C63.6246 65.272 63.2992 65.3883 63.0203 65.6149C62.7413 65.8416 62.5263 66.167 62.3752 66.5738C62.2241 66.9864 62.1427 67.4687 62.1427 68.0266C62.1427 68.5845 62.2183 69.061 62.3752 69.4794C62.5321 69.892 62.7471 70.2175 63.0261 70.4499C63.305 70.6824 63.6304 70.7986 64.0024 70.7986V70.7928Z" fill="#1B1464"/>
<path d="M68.4531 71.5316V70.3984H69.3655V71.5316H68.4531Z" fill="#1B1464"/>
<path d="M71.1259 71.5299L74.2059 65.3117H70.7656V64.5098H75.1764V65.3117L72.1255 71.5299H71.1259Z" fill="#1B1464"/>
<path d="M11.6585 97.0006C11.1065 97.0006 10.6183 96.8495 10.1999 96.5415C9.78147 96.2393 9.45023 95.8151 9.21777 95.2688C8.97951 94.7284 8.86328 94.0949 8.86328 93.3685C8.86328 92.6421 8.97951 92.0145 9.21777 91.4682C9.45604 90.9219 9.77566 90.5035 10.1941 90.2013C10.6067 89.8991 11.0948 89.748 11.6527 89.748C12.2106 89.748 12.6929 89.8991 13.1056 90.2013C13.524 90.5035 13.8494 90.9278 14.0819 91.4682C14.3143 92.0087 14.4305 92.6421 14.4305 93.3685C14.4305 94.0949 14.3143 94.7225 14.0877 95.2688C13.861 95.8151 13.5356 96.2393 13.1172 96.5415C12.6988 96.8437 12.2164 96.9948 11.6643 96.9948L11.6585 97.0006ZM11.6469 96.1463C12.0246 96.1463 12.3501 96.0301 12.629 95.8034C12.908 95.5768 13.123 95.2514 13.2741 94.8388C13.4252 94.4262 13.5065 93.938 13.5065 93.3801C13.5065 92.8222 13.431 92.3341 13.2741 91.9273C13.1172 91.5205 12.908 91.1951 12.629 90.9684C12.3501 90.7418 12.0246 90.6256 11.6469 90.6256C11.2692 90.6256 10.9437 90.7418 10.6648 90.9684C10.3858 91.1951 10.1708 91.5205 10.0197 91.9273C9.86864 92.3399 9.78728 92.8222 9.78728 93.3801C9.78728 93.938 9.86283 94.4145 10.0197 94.833C10.1766 95.2456 10.3917 95.571 10.6706 95.8034C10.9495 96.0359 11.275 96.1521 11.6469 96.1521V96.1463Z" fill="#1B1464"/>
<path d="M16.0938 96.8852V95.752H17.0061V96.8852H16.0938Z" fill="#1B1464"/>
<path d="M20.8811 96.9996C20.4278 96.9996 20.0269 96.9008 19.6782 96.6975C19.3295 96.4941 19.0564 96.2209 18.853 95.8722C18.6496 95.5236 18.5508 95.1284 18.5508 94.6809C18.5508 94.4368 18.5798 94.1928 18.638 93.9545C18.6961 93.7162 18.7832 93.4722 18.9111 93.2281C19.0389 92.984 19.1958 92.7283 19.3934 92.4668L21.3635 89.8691H22.485L20.0617 93.0131L19.8932 92.9956C19.9862 92.8678 20.0908 92.7748 20.207 92.7051C20.3232 92.6353 20.4511 92.583 20.5847 92.554C20.7184 92.5249 20.8637 92.5075 21.0148 92.5075C21.4274 92.5075 21.7993 92.6005 22.1306 92.7922C22.4618 92.984 22.7233 93.2455 22.9093 93.5768C23.1011 93.908 23.1998 94.2916 23.1998 94.7274C23.1998 95.1633 23.1011 95.5468 22.8977 95.8897C22.6943 96.2325 22.4211 96.4999 22.0724 96.6975C21.7238 96.895 21.3286 96.9938 20.8811 96.9938V96.9996ZM20.8811 96.1686C21.1426 96.1686 21.3809 96.1105 21.5901 95.9827C21.7993 95.8548 21.962 95.6921 22.0841 95.4713C22.2061 95.2504 22.27 95.0063 22.27 94.739C22.27 94.4717 22.2119 94.2102 22.0899 94.001C21.9678 93.7918 21.8051 93.6233 21.5959 93.5012C21.3867 93.3792 21.1484 93.3153 20.8869 93.3153C20.6254 93.3153 20.3872 93.3792 20.1721 93.5012C19.9571 93.6233 19.7944 93.7918 19.6724 94.001C19.5503 94.2102 19.4922 94.4601 19.4922 94.739C19.4922 95.018 19.5561 95.2562 19.6782 95.4713C19.8002 95.6921 19.9687 95.8606 20.178 95.9827C20.3872 96.1047 20.6254 96.1686 20.8869 96.1686H20.8811Z" fill="#1B1464"/>
<path d="M37.7679 97.0006C37.2158 97.0006 36.7277 96.8495 36.3093 96.5415C35.8908 96.2393 35.5596 95.8151 35.3271 95.2688C35.0889 94.7284 34.9727 94.0949 34.9727 93.3685C34.9727 92.6421 35.0889 92.0145 35.3271 91.4682C35.5654 90.9219 35.885 90.5035 36.3035 90.2013C36.7161 89.8991 37.2042 89.748 37.7621 89.748C38.32 89.748 38.8023 89.8991 39.2149 90.2013C39.6333 90.5035 39.9588 90.9278 40.1912 91.4682C40.4237 92.0087 40.5399 92.6421 40.5399 93.3685C40.5399 94.0949 40.4237 94.7225 40.197 95.2688C39.9704 95.8151 39.645 96.2393 39.2265 96.5415C38.8081 96.8437 38.3258 96.9948 37.7737 96.9948L37.7679 97.0006ZM37.7563 96.1463C38.134 96.1463 38.4595 96.0301 38.7384 95.8034C39.0173 95.5768 39.2324 95.2514 39.3835 94.8388C39.5345 94.4262 39.6159 93.938 39.6159 93.3801C39.6159 92.8222 39.5404 92.3341 39.3835 91.9273C39.2265 91.5205 39.0173 91.1951 38.7384 90.9684C38.4595 90.7418 38.134 90.6256 37.7563 90.6256C37.3785 90.6256 37.0531 90.7418 36.7742 90.9684C36.4952 91.1951 36.2802 91.5205 36.1291 91.9273C35.978 92.3399 35.8967 92.8222 35.8967 93.3801C35.8967 93.938 35.9722 94.4145 36.1291 94.833C36.286 95.2456 36.501 95.571 36.78 95.8034C37.0589 96.0359 37.3844 96.1521 37.7563 96.1521V96.1463Z" fill="#1B1464"/>
<path d="M42.207 96.8852V95.752H43.1194V96.8852H42.207Z" fill="#1B1464"/>
<path d="M45.3632 96.8844L47.7866 93.7405L47.9493 93.7579C47.8621 93.8799 47.7575 93.9729 47.6413 94.0427C47.525 94.1124 47.403 94.1647 47.2693 94.1996C47.1357 94.2286 46.9904 94.2461 46.8335 94.2461C46.4209 94.2461 46.049 94.1531 45.7177 93.9613C45.3865 93.7695 45.125 93.508 44.9332 93.171C44.7414 92.8339 44.6484 92.4562 44.6484 92.0261C44.6484 91.5961 44.7472 91.1951 44.9506 90.8581C45.154 90.521 45.4272 90.2479 45.7816 90.0503C46.1361 89.8527 46.5313 89.7539 46.9672 89.7539C47.403 89.7539 47.8214 89.8527 48.1701 90.0561C48.5188 90.2595 48.7919 90.5326 48.9953 90.8813C49.1987 91.23 49.2975 91.6252 49.2975 92.0726C49.2975 92.3167 49.2684 92.5608 49.2103 92.799C49.1522 93.0373 49.065 93.2814 48.943 93.5255C48.821 93.7695 48.6583 94.0252 48.4607 94.2867L46.4848 96.8844H45.3749H45.3632ZM46.9613 93.4383C47.2287 93.4383 47.4727 93.3744 47.6761 93.2523C47.8795 93.1303 48.0481 92.9618 48.1701 92.7467C48.2921 92.5317 48.3561 92.2876 48.3561 92.0145C48.3561 91.7414 48.2921 91.4915 48.1701 91.2765C48.0481 91.0615 47.8795 90.8929 47.6703 90.7651C47.4611 90.643 47.2229 90.5791 46.9613 90.5791C46.6998 90.5791 46.4616 90.643 46.2582 90.7651C46.049 90.8871 45.8862 91.0556 45.7642 91.2765C45.6422 91.4915 45.5782 91.7414 45.5782 92.0145C45.5782 92.2876 45.6364 92.5375 45.7584 92.7467C45.8804 92.9618 46.0432 93.1303 46.2524 93.2523C46.4616 93.3744 46.6998 93.4383 46.9613 93.4383Z" fill="#1B1464"/>
<path d="M89.4906 97.1119C88.9385 97.1119 88.4503 96.9608 88.0319 96.6528C87.6135 96.3506 87.2823 95.9264 87.0498 95.3801C86.8115 94.8397 86.6953 94.2062 86.6953 93.4798C86.6953 92.7534 86.8115 92.1258 87.0498 91.5795C87.2881 91.0333 87.6077 90.6148 88.0261 90.3127C88.4387 90.0105 88.9269 89.8594 89.4848 89.8594C90.0426 89.8594 90.525 90.0105 90.9376 90.3127C91.356 90.6148 91.6814 91.0391 91.9139 91.5795C92.1463 92.12 92.2626 92.7534 92.2626 93.4798C92.2626 94.2062 92.1463 94.8339 91.9197 95.3801C91.6931 95.9264 91.3676 96.3506 90.9492 96.6528C90.5308 96.955 90.0485 97.1061 89.4964 97.1061L89.4906 97.1119ZM89.4789 96.2576C89.8567 96.2576 90.1821 96.1414 90.4611 95.9148C90.74 95.6881 90.955 95.3627 91.1061 94.9501C91.2572 94.5375 91.3386 94.0493 91.3386 93.4915C91.3386 92.9336 91.263 92.4454 91.1061 92.0386C90.9492 91.6318 90.74 91.3064 90.4611 91.0797C90.1821 90.8531 89.8567 90.7369 89.4789 90.7369C89.1012 90.7369 88.7758 90.8531 88.4968 91.0797C88.2179 91.3064 88.0029 91.6318 87.8518 92.0386C87.7007 92.4512 87.6193 92.9336 87.6193 93.4915C87.6193 94.0493 87.6949 94.5259 87.8518 94.9443C88.0087 95.3569 88.2237 95.6823 88.5026 95.9148C88.7816 96.1472 89.107 96.2635 89.4789 96.2635V96.2576Z" fill="#1B1464"/>
<path d="M93.9258 97.0004V95.8672H94.8382V97.0004H93.9258Z" fill="#1B1464"/>
<path d="M97.3191 97.0006V90.7824H95.9883V89.9805H98.2489V97.0006H97.3191Z" fill="#1B1464"/>
<path d="M64.014 97.1119C63.4619 97.1119 62.9738 96.9608 62.5554 96.6528C62.1369 96.3506 61.8057 95.9264 61.5732 95.3801C61.335 94.8397 61.2188 94.2062 61.2188 93.4798C61.2188 92.7534 61.335 92.1258 61.5732 91.5795C61.8115 91.0333 62.1311 90.6148 62.5495 90.3127C62.9621 90.0105 63.4503 89.8594 64.0082 89.8594C64.5661 89.8594 65.0484 90.0105 65.461 90.3127C65.8794 90.6148 66.2049 91.0391 66.4373 91.5795C66.6698 92.12 66.786 92.7534 66.786 93.4798C66.786 94.2062 66.6698 94.8339 66.4431 95.3801C66.2165 95.9264 65.8911 96.3506 65.4726 96.6528C65.0542 96.955 64.5719 97.1061 64.0198 97.1061L64.014 97.1119ZM64.0024 96.2576C64.3801 96.2576 64.7055 96.1414 64.9845 95.9148C65.2634 95.6881 65.4785 95.3627 65.6295 94.9501C65.7806 94.5375 65.862 94.0493 65.862 93.4915C65.862 92.9336 65.7865 92.4454 65.6295 92.0386C65.4726 91.6318 65.2634 91.3064 64.9845 91.0797C64.7055 90.8531 64.3801 90.7369 64.0024 90.7369C63.6246 90.7369 63.2992 90.8531 63.0203 91.0797C62.7413 91.3064 62.5263 91.6318 62.3752 92.0386C62.2241 92.4512 62.1427 92.9336 62.1427 93.4915C62.1427 94.0493 62.2183 94.5259 62.3752 94.9443C62.5321 95.3569 62.7471 95.6823 63.0261 95.9148C63.305 96.1472 63.6304 96.2635 64.0024 96.2635V96.2576Z" fill="#1B1464"/>
<path d="M68.4531 97.0004V95.8672H69.3655V97.0004H68.4531Z" fill="#1B1464"/>
<path d="M73.1601 97.113C72.7882 97.113 72.4453 97.049 72.1315 96.9154C71.8119 96.7817 71.5387 96.5958 71.3063 96.3575C71.0738 96.1134 70.8995 95.8287 70.7891 95.4974L71.5678 95.1778C71.7014 95.5323 71.9048 95.8054 72.1896 95.9972C72.4743 96.189 72.794 96.2878 73.1601 96.2878C73.4565 96.2878 73.718 96.2296 73.9446 96.1192C74.1713 96.0088 74.3456 95.8403 74.4734 95.6311C74.6013 95.4161 74.6594 95.1604 74.6594 94.8582C74.6594 94.556 74.5955 94.3003 74.4676 94.0853C74.3398 93.8702 74.1654 93.7075 73.9388 93.6029C73.718 93.4925 73.4565 93.4402 73.1601 93.4402C73.0613 93.4402 72.9567 93.446 72.8521 93.4576C72.7475 93.4693 72.6545 93.4867 72.579 93.5041L72.3814 93.0799L74.2584 90.7902H71.1494V89.9883H75.3045V90.7728L73.5146 92.9695L73.4565 92.7254C73.8749 92.737 74.2468 92.8358 74.5664 93.016C74.8861 93.1961 75.1359 93.446 75.3219 93.754C75.502 94.0678 75.595 94.4281 75.595 94.8407C75.595 95.2533 75.4904 95.6543 75.2812 95.9972C75.072 96.3401 74.7873 96.6132 74.427 96.8166C74.0608 97.02 73.6424 97.1188 73.1659 97.1188L73.1601 97.113Z" fill="#1B1464"/>
<path d="M108.894 109.298H0.105469V0.0449219H108.894V109.298ZM4.1734 105.23H104.826V4.11285H4.1734V105.23Z" fill="#1B1464"/>
</g>
<defs>
<clipPath id="clip0_5367_204">
<rect width="108.788" height="109.253" fill="white" transform="translate(0.105469 0.0449219)"/>
</clipPath>
</defs>
</svg>
