<svg width="194" height="27" viewBox="0 0 194 27" fill="none" xmlns="http://www.w3.org/2000/svg">
<rect x="1" y="1" width="24" height="25" fill="#7AD6EB"/>
<rect x="1" y="1" width="24" height="25" stroke="#131144" stroke-width="0.5"/>
<rect x="1" y="1" width="24" height="25" stroke="#131144" stroke-width="0.5"/>
<rect x="1" y="1" width="24" height="25" stroke="#131144" stroke-width="0.5"/>
<rect x="25" y="1" width="24" height="25" fill="#7AC7C0"/>
<rect x="25" y="1" width="24" height="25" stroke="#131144" stroke-width="0.5"/>
<rect x="25" y="1" width="24" height="25" stroke="#131144" stroke-width="0.5"/>
<rect x="25" y="1" width="24" height="25" stroke="#131144" stroke-width="0.5"/>
<rect x="49" y="1" width="24" height="25" fill="#9AE5F7"/>
<rect x="49" y="1" width="24" height="25" stroke="#131144" stroke-width="0.5"/>
<rect x="49" y="1" width="24" height="25" stroke="#131144" stroke-width="0.5"/>
<rect x="49" y="1" width="24" height="25" stroke="#131144" stroke-width="0.5"/>
<rect x="73" y="1" width="24" height="25" fill="#BCF0A7"/>
<rect x="73" y="1" width="24" height="25" stroke="#131144" stroke-width="0.5"/>
<rect x="73" y="1" width="24" height="25" stroke="#131144" stroke-width="0.5"/>
<rect x="73" y="1" width="24" height="25" stroke="#131144" stroke-width="0.5"/>
<rect x="97" y="1" width="24" height="25" fill="#DAF5CF"/>
<rect x="97" y="1" width="24" height="25" stroke="#131144" stroke-width="0.5"/>
<rect x="97" y="1" width="24" height="25" stroke="#131144" stroke-width="0.5"/>
<rect x="97" y="1" width="24" height="25" stroke="#131144" stroke-width="0.5"/>
<rect x="121" y="1" width="24" height="25" fill="#7AC7C0"/>
<rect x="121" y="1" width="24" height="25" stroke="#131144" stroke-width="0.5"/>
<rect x="121" y="1" width="24" height="25" stroke="#131144" stroke-width="0.5"/>
<rect x="121" y="1" width="24" height="25" stroke="#131144" stroke-width="0.5"/>
<rect x="145" y="1" width="24" height="25" fill="#A7E9F8"/>
<rect x="145" y="1" width="24" height="25" stroke="#131144" stroke-width="0.5"/>
<rect x="145" y="1" width="24" height="25" stroke="#131144" stroke-width="0.5"/>
<rect x="145" y="1" width="24" height="25" stroke="#131144" stroke-width="0.5"/>
<rect x="169" y="1" width="24" height="25" fill="#61B973"/>
<rect x="169" y="1" width="24" height="25" stroke="#131144" stroke-width="0.5"/>
<rect x="169" y="1" width="24" height="25" stroke="#131144" stroke-width="0.5"/>
<rect x="169" y="1" width="24" height="25" stroke="#131144" stroke-width="0.5"/>
</svg>
