<svg width="150" height="112" viewBox="0 0 150 112" fill="none" xmlns="http://www.w3.org/2000/svg">
<path d="M66.4647 64.795C70.4397 64.795 73.6621 61.5622 73.6621 57.5743C73.6621 53.5864 70.4397 50.3535 66.4647 50.3535C62.4897 50.3535 59.2673 53.5864 59.2673 57.5743C59.2673 61.5622 62.4897 64.795 66.4647 64.795Z" fill="#BCF0A7" stroke="#130C49" stroke-miterlimit="10"/>
<path d="M67.1492 110.675C96.4884 110.675 120.273 86.891 120.273 57.5518C120.273 28.2125 96.4884 4.42842 67.1492 4.42842C37.81 4.42842 14.0259 28.2125 14.0259 57.5518C14.0259 86.891 37.81 110.675 67.1492 110.675Z" stroke="#130C49" stroke-miterlimit="10" stroke-linecap="round" stroke-dasharray="1.85 1.85"/>
<path d="M8.19735 102.495C12.1723 102.495 15.3947 99.2626 15.3947 95.2747C15.3947 91.2868 12.1723 88.054 8.19735 88.054C4.22236 88.054 1 91.2868 1 95.2747C1 99.2626 4.22236 102.495 8.19735 102.495Z" fill="#F7F9FD" stroke="#130C49" stroke-miterlimit="10"/>
<path d="M141.864 15.4415C145.839 15.4415 149.061 12.2086 149.061 8.22072C149.061 4.23282 145.839 1 141.864 1C137.889 1 134.667 4.23282 134.667 8.22072C134.667 12.2086 137.889 15.4415 141.864 15.4415Z" fill="#F7F9FD" stroke="#130C49" stroke-miterlimit="10"/>
<path d="M89.8402 23.1847C93.8152 23.1847 97.0376 19.9519 97.0376 15.964C97.0376 11.9761 93.8152 8.74324 89.8402 8.74324C85.8652 8.74324 82.6428 11.9761 82.6428 15.964C82.6428 19.9519 85.8652 23.1847 89.8402 23.1847Z" fill="#85E3DA" stroke="#130C49" stroke-miterlimit="10"/>
<path d="M120.614 100.439C124.589 100.439 127.811 97.206 127.811 93.2181C127.811 89.2302 124.589 85.9974 120.614 85.9974C116.639 85.9974 113.416 89.2302 113.416 93.2181C113.416 97.206 116.639 100.439 120.614 100.439Z" fill="#F7F9FD" stroke="#130C49" stroke-miterlimit="10"/>
<path d="M82.2259 75.0767C86.2009 75.0767 89.4233 71.8438 89.4233 67.8559C89.4233 63.868 86.2009 60.6352 82.2259 60.6352C78.2509 60.6352 75.0286 63.868 75.0286 67.8559C75.0286 71.8438 78.2509 75.0767 82.2259 75.0767Z" fill="#85E3DA" stroke="#130C49" stroke-miterlimit="10"/>
<path d="M66.5982 89.8107C70.5732 89.8107 73.7956 86.5779 73.7956 82.59C73.7956 78.6021 70.5732 75.3692 66.5982 75.3692C62.6232 75.3692 59.4009 78.6021 59.4009 82.59C59.4009 86.5779 62.6232 89.8107 66.5982 89.8107Z" fill="#85E3DA" stroke="#130C49" stroke-miterlimit="10"/>
<path d="M38.7059 40.2272C42.6809 40.2272 45.9033 36.9944 45.9033 33.0065C45.9033 29.0186 42.6809 25.7858 38.7059 25.7858C34.7309 25.7858 31.5085 29.0186 31.5085 33.0065C31.5085 36.9944 34.7309 40.2272 38.7059 40.2272Z" fill="#85E3DA" stroke="#130C49" stroke-miterlimit="10"/>
</svg>
