<svg width="123" height="36" viewBox="0 0 123 36" fill="none" xmlns="http://www.w3.org/2000/svg">
<g id="Layer_1" clip-path="url(#clip0_3950_902)">
<path id="Vector" d="M71.6675 0V35.6307H66.6387V20.4725C65.9941 20.3547 58.5134 20.3164 56.2283 20.4151V35.6086H51V0H56.2045V15.2288C58.5149 15.329 65.9941 15.2907 66.6134 15.1773V0H71.669H71.6675Z" fill="#C6D302"/>
<path id="Vector_2" d="M20.6661 0V35.5644C20.0335 35.6881 8.07927 35.7338 5.20312 35.6218V30.5122H15.4364C15.5436 28.0391 15.5004 15.8858 15.3843 15.2568H5.20312V10.1221C8.61967 10.1221 11.9841 10.1221 15.35 10.1221C15.3709 10.1221 15.3947 10.1103 15.4126 10.0971C15.4319 10.0838 15.4453 10.0632 15.4617 10.0441V0H20.6661Z" fill="#5AC1D5"/>
<path id="Vector_3" d="M107.501 0V10.0441C107.518 10.0617 107.531 10.0823 107.55 10.0971C107.568 10.1103 107.592 10.1221 107.613 10.1221C110.979 10.1221 114.343 10.1221 117.76 10.1221V15.2568H107.527C107.419 17.7314 107.463 29.8832 107.579 30.5122H117.76V35.5718C117.136 35.6778 104.399 35.7161 102.297 35.6174V0H107.501Z" fill="#C6D302"/>
<path id="Vector_4" d="M30.7787 0V35.5673C30.7623 35.585 30.7489 35.6056 30.7296 35.6204C30.7117 35.6336 30.6879 35.6454 30.667 35.6454C28.9863 35.6454 27.3041 35.6454 25.5742 35.6454V0H30.7787Z" fill="#5AC1D5"/>
<path id="Vector_5" d="M40.8881 8.10728e-06V10.0426C40.9044 10.0603 40.9178 10.0809 40.9372 10.0956C40.955 10.1089 40.9789 10.1207 40.9997 10.1207C42.6804 10.1207 44.3612 10.1207 46.0672 10.1207V15.2318H40.8881V30.5107H35.764C35.7461 30.4945 35.7253 30.4813 35.7104 30.4621C35.697 30.4444 35.6836 30.4209 35.6836 30.4002C35.6836 20.2663 35.6836 10.1324 35.6836 -0.00146484H40.8881V8.10728e-06Z" fill="#5AC1D5"/>
<path id="Vector_6" d="M0 15.2554H5.20446V30.5107H0V15.2554Z" fill="#5AC1D5"/>
<path id="Vector_7" d="M81.9018 30.4974H92.1693V10.1545H97.2011C97.2606 10.212 97.3127 10.265 97.3782 10.3298V35.6233H81.7961V30.5254H76.7539V10.1368H81.9018V30.4974Z" fill="#C6D302"/>
<path id="Vector_8" d="M117.763 15.2554H122.89C123.005 15.8932 123.047 27.9861 122.941 30.5107H117.762V15.2554H117.763Z" fill="#C6D302"/>
<path id="Vector_9" d="M40.9102 30.5328H46.0774V35.6145H40.9102V30.5328Z" fill="#C6D302"/>
</g>
<defs>
<clipPath id="clip0_3950_902">
<rect width="123" height="35.6852" fill="white"/>
</clipPath>
</defs>
</svg>
