<svg width="56" height="62" viewBox="0 0 56 62" fill="none" xmlns="http://www.w3.org/2000/svg">
<path d="M27.8371 62C26.947 62 26.0674 61.7695 25.2727 61.3189L2.56436 48.3561C0.985475 47.4549 0 45.7678 0 43.9654V18.0294C0 16.227 0.985475 14.5398 2.56436 13.6386L25.2727 0.675906C26.8516 -0.225302 28.8225 -0.225302 30.4014 0.675906L53.1098 13.6386C54.6887 14.5398 55.6741 16.227 55.6741 18.0294V43.9654C55.6741 45.7678 54.6887 47.4549 53.1098 48.3561L30.4014 61.3189C29.6067 61.7695 28.7272 62 27.8371 62ZM27.8371 1.30466C27.1801 1.30466 26.5231 1.47232 25.9403 1.80766L3.23194 14.7704C2.05573 15.4411 1.33516 16.6881 1.33516 18.0294V43.9654C1.33516 45.3067 2.06632 46.5537 3.23194 47.2244L25.9403 60.1871C27.1165 60.8578 28.5682 60.8578 29.7444 60.1871L52.4528 47.2244C53.629 46.5537 54.3496 45.3067 54.3496 43.9654V18.0294C54.3496 16.6881 53.6184 15.4411 52.4528 14.7704L29.7338 1.80766C29.151 1.47232 28.4941 1.30466 27.8371 1.30466Z" fill="#61BD73"/>
<g clip-path="url(#clip0_4239_239)">
<path d="M37.4829 28.5068C37.3467 27.534 36.8018 26.6893 35.8187 25.9262L35.2501 25.5476L34.8711 26.1126C34.3854 26.8408 34.1426 27.8544 34.2196 28.8272C34.2551 29.165 34.3676 29.7825 34.7171 30.3126C34.3676 30.5049 33.6747 30.7612 32.7508 30.7437H15.1016L15.066 30.9476C14.9002 31.9204 14.9002 34.967 16.8843 37.3029C18.3945 39.0796 20.651 39.9825 23.6004 39.9825C29.9968 39.9825 34.723 37.0524 36.9439 31.7165C37.8146 31.734 39.692 31.7223 40.6574 29.8874C40.6811 29.8466 40.7403 29.7359 40.9061 29.3864L41.0009 29.1942L40.4619 28.833C39.8697 28.4544 38.5253 28.3087 37.4829 28.5068ZM29.215 22H26.5321V24.4291H29.215V22ZM29.215 24.9184H26.5321V27.3476H29.215V24.9184ZM26.0405 24.9184H23.3576V27.3476H26.0405V24.9184ZM22.872 24.9184H20.189V27.3476H22.872V24.9184ZM19.6975 27.8369H17.0146V30.266H19.6975V27.8369ZM22.872 27.8369H20.189V30.266H22.872V27.8369ZM26.0405 27.8369H23.3576V30.266H26.0405V27.8369ZM29.215 27.8369H26.5321V30.266H29.215V27.8369ZM32.3895 27.8369H29.7066V30.266H32.3895V27.8369Z" fill="#0C1428"/>
</g>
<defs>
<clipPath id="clip0_4239_239">
<rect width="26" height="18" fill="white" transform="translate(15 22)"/>
</clipPath>
</defs>
</svg>
