<?xml version="1.0" encoding="UTF-8"?>
<!-- Generated by Pixelmator Pro 3.3.2 -->
<svg width="2000" height="500" viewBox="0 0 2000 500" xmlns="http://www.w3.org/2000/svg" xmlns:xlink="http://www.w3.org/1999/xlink">
    <linearGradient id="linearGradient1" x1="55.409561" y1="246.550003" x2="1974.638184" y2="246.550003" gradientUnits="userSpaceOnUse">
        <stop offset="1e-05" stop-color="#14b8a6" stop-opacity="1"/>
        <stop offset="1" stop-color="#0891b2" stop-opacity="1"/>
    </linearGradient>
    <path id="DocsB----t" fill="url(#linearGradient1)" fill-rule="evenodd" stroke="none" d="M 1920.769287 406.5 C 1901.118164 406.5 1884.199829 403.386719 1870.013794 397.160065 C 1855.827637 390.933411 1844.954956 381.174652 1837.395386 367.883484 C 1829.835815 354.592346 1826.05603 337.455017 1826.05603 316.471008 L 1826.05603 228.784119 L 1790.12439 228.784119 C 1786.887329 228.784119 1784.164429 227.679718 1781.955566 225.470886 C 1779.746704 223.262024 1778.642334 220.539093 1778.642334 217.302002 L 1778.642334 180.342133 C 1778.642334 177.105011 1779.746704 174.38208 1781.955566 172.173248 C 1784.164429 169.964417 1786.887329 168.859985 1790.12439 168.859985 L 1826.05603 168.859985 L 1826.05603 93.512115 C 1826.05603 90.275024 1827.160522 87.552094 1829.369263 85.343262 C 1831.578125 83.134399 1834.301147 82.029999 1837.538208 82.029999 L 1890.435913 82.029999 C 1893.673096 82.029999 1896.395996 83.134399 1898.604858 85.343262 C 1900.813599 87.552094 1901.918091 90.275024 1901.918091 93.512115 L 1901.918091 168.859985 L 1959.157349 168.859985 C 1962.394409 168.859985 1965.11731 169.964417 1967.326172 172.173248 C 1969.535034 174.38208 1970.639404 177.105011 1970.639404 180.342133 L 1970.639404 217.302002 C 1970.639404 220.539093 1969.535034 223.262024 1967.326172 225.470886 C 1965.11731 227.679718 1962.394409 228.784119 1959.157349 228.784119 L 1901.918091 228.784119 L 1901.918091 310.072998 C 1901.918091 320.507874 1903.917358 328.724304 1907.916138 334.722443 C 1911.914917 340.720581 1918.579468 343.719604 1927.909912 343.719604 L 1963.156006 343.719604 C 1966.393188 343.719604 1969.116089 344.824036 1971.324951 347.032867 C 1973.533813 349.241699 1974.638184 351.964661 1974.638184 355.201752 L 1974.638184 395.017883 C 1974.638184 398.254974 1973.533813 400.977905 1971.324951 403.186768 C 1969.116089 405.395599 1966.393188 406.5 1963.156006 406.5 Z M 1159.064575 406.5 C 1155.827515 406.5 1153.104492 405.395599 1150.89563 403.186768 C 1148.68689 400.977905 1147.582397 398.254974 1147.582397 395.017883 L 1147.582397 98.25351 C 1147.582397 94.902161 1148.68689 92.122101 1150.89563 89.913239 C 1153.104492 87.704407 1155.827515 86.600006 1159.064575 86.600006 L 1298.620972 86.600006 C 1324.89856 86.600006 1346.386841 90.265472 1363.086548 97.596558 C 1379.786133 104.927643 1392.144043 115.333801 1400.160645 128.815369 C 1408.177246 142.296936 1412.185425 158.444122 1412.185425 177.257385 C 1412.185425 188.263519 1410.128906 197.936584 1406.015991 206.276886 C 1401.902954 214.617157 1396.914063 221.49115 1391.049194 226.898987 C 1385.184326 232.306854 1379.586182 236.343658 1374.254395 239.009491 C 1386.060303 244.341187 1396.44751 253.281174 1405.416138 265.829681 C 1414.384766 278.378204 1418.869019 293.011597 1418.869019 309.730255 C 1418.869019 329.724121 1414.384766 346.937592 1405.416138 361.371246 C 1396.44751 375.804901 1383.356445 386.934631 1366.1427 394.760803 C 1348.928955 402.586975 1327.773804 406.5 1302.676758 406.5 Z M 1229.785278 347.089996 L 1293.536865 347.089996 C 1306.751831 347.089996 1316.672363 343.291229 1323.29895 335.693542 C 1329.925415 328.095886 1333.238647 319.346344 1333.238647 309.444641 C 1333.238647 299.047821 1329.830322 290.1745 1323.013306 282.824371 C 1316.196411 275.474243 1306.370972 271.799255 1293.536865 271.799255 L 1229.785278 271.799255 Z M 1229.785278 213.817383 L 1289.252441 213.817383 C 1301.896118 213.817383 1311.321655 210.551758 1317.529297 204.020447 C 1323.736938 197.489105 1326.840698 189.329834 1326.840698 179.542389 C 1326.840698 169.754913 1323.736938 161.719421 1317.529297 155.435638 C 1311.321655 149.151855 1301.896118 146.01001 1289.252441 146.01001 L 1229.785278 146.01001 Z M 996.772461 411.070007 C 977.121338 411.070007 960.345825 408.88974 946.445313 404.529175 C 932.5448 400.16864 921.22467 394.7323 912.484497 388.220001 C 903.744324 381.707703 897.289246 375.033691 893.119141 368.197693 C 888.948975 361.361694 886.711609 355.468353 886.406921 350.517517 C 886.102295 347.166138 887.120972 344.414673 889.463135 342.262939 C 891.805237 340.111206 894.328247 339.03537 897.032166 339.03537 L 949.301575 339.03537 C 950.17749 339.03537 950.967712 339.149628 951.672241 339.378113 C 952.37677 339.606628 953.224121 340.234985 954.214294 341.263245 C 958.174988 343.395935 962.126099 346.061737 966.067749 349.260742 C 970.009399 352.459778 974.588867 355.239807 979.806335 357.601013 C 985.023743 359.962158 991.34552 361.142761 998.77179 361.142761 C 1007.150208 361.142761 1014.28125 359.448059 1020.1651 356.058624 C 1026.049072 352.669189 1028.990967 347.737427 1028.990967 341.263245 C 1028.990967 336.350464 1027.581909 332.256561 1024.763672 328.981384 C 1021.945496 325.706177 1016.375854 322.611938 1008.054626 319.698547 C 999.733398 316.785156 987.213623 313.671875 970.494934 310.358643 C 954.537964 306.931091 940.647156 302.208801 928.822266 296.19162 C 916.997314 290.174438 907.876465 282.35791 901.459351 272.741821 C 895.042297 263.125732 891.833801 251.538986 891.833801 237.981262 C 891.833801 225.794525 895.737305 214.074493 903.544434 202.820801 C 911.351563 191.567139 922.890686 182.332001 938.16217 175.115173 C 953.433655 167.898346 972.303772 164.290009 994.773071 164.290009 C 1012.177246 164.290009 1027.419922 166.365509 1040.501587 170.516632 C 1053.583374 174.667725 1064.57019 179.894623 1073.462769 186.197449 C 1082.355225 192.500275 1089.11499 199.060059 1093.742065 205.877014 C 1098.369263 212.693939 1100.835205 218.730103 1101.139771 223.985626 C 1101.444458 227.222717 1100.530518 229.945648 1098.397827 232.15451 C 1096.265137 234.363342 1093.827881 235.467743 1091.085815 235.467743 L 1043.386475 235.467743 C 1042.091553 235.467743 1040.872925 235.267822 1039.730469 234.86795 C 1038.587891 234.468048 1037.597778 233.925385 1036.759888 233.239868 C 1032.951538 231.411865 1029.200439 228.98407 1025.506348 225.956451 C 1021.812195 222.928802 1017.5755 220.215393 1012.796021 217.816132 C 1008.016541 215.41687 1001.913696 214.217255 994.487427 214.217255 C 986.2995 214.217255 979.930115 216.045227 975.37915 219.701263 C 970.828125 223.357269 968.552673 228.02243 968.552673 233.696869 C 968.552673 237.733734 969.809448 241.408722 972.322937 244.722 C 974.836426 248.035263 980.168091 251.081909 988.317932 253.862 C 996.467834 256.64209 1009.092285 259.650635 1026.191772 262.887756 C 1047.213867 266.391418 1063.932373 271.884888 1076.347534 279.368317 C 1088.762817 286.851746 1097.617065 295.525116 1102.910645 305.388733 C 1108.204346 315.25238 1110.851074 325.591919 1110.851074 336.407623 C 1110.851074 351.069763 1106.471558 364.056091 1097.71228 375.366882 C 1088.953125 386.677673 1076.081055 395.455811 1059.095825 401.701508 C 1042.110596 407.947205 1021.336304 411.070007 996.772461 411.070007 Z M 747.878784 411.070007 C 725.409546 411.070007 705.473083 406.976074 688.068909 398.788116 C 670.664795 390.600159 656.888245 378.680206 646.739014 363.027893 C 636.589722 347.375549 631.020081 328.448303 630.029907 306.245605 C 629.725281 301.485168 629.572937 295.391907 629.572937 287.965637 C 629.572937 280.539337 629.725281 274.350861 630.029907 269.399994 C 631.020081 247.083054 636.542114 228.079651 646.596191 212.389252 C 656.650208 196.698853 670.426758 184.759827 687.926147 176.571869 C 705.425476 168.383911 725.409546 164.290009 747.878784 164.290009 C 768.977112 164.290009 787.009338 167.260468 801.976196 173.201508 C 816.942993 179.142517 829.139099 186.549652 838.564758 195.423126 C 847.990417 204.2966 855.016724 213.379364 859.64386 222.671753 C 864.270996 231.964142 866.736877 240.056763 867.041565 246.949875 C 867.346252 250.186981 866.289429 252.909912 863.871155 255.118744 C 861.45282 257.327576 858.682312 258.432007 855.559448 258.432007 L 797.463318 258.432007 C 794.226196 258.432007 791.73175 257.651306 789.979919 256.089874 C 788.228088 254.528458 786.590515 252.205383 785.0672 249.120621 C 781.335022 239.942505 776.669861 233.306549 771.071533 229.212555 C 765.473267 225.118591 758.218506 223.071625 749.306946 223.071625 C 737.158264 223.071625 727.780396 227.060822 721.172852 235.039307 C 714.565369 243.017822 710.995117 255.23291 710.461914 271.684998 C 710.04303 283.871735 710.04303 294.630157 710.461914 303.960632 C 711.185547 320.793549 714.803406 333.056274 721.315674 340.749146 C 727.827942 348.442017 737.158264 352.288391 749.306946 352.288391 C 758.789734 352.288391 766.234924 350.241394 771.642822 346.14743 C 777.050659 342.053467 781.525391 335.417511 785.0672 326.23938 C 786.400085 323.154602 787.990051 320.831543 789.837097 319.270142 C 791.684204 317.708679 794.226196 316.927979 797.463318 316.927979 L 855.559448 316.927979 C 858.682312 316.927979 861.45282 318.03241 863.871155 320.241272 C 866.289429 322.450073 867.346252 325.173035 867.041565 328.410126 C 866.736877 333.399048 865.223083 339.387604 862.500122 346.375916 C 859.777161 353.364258 855.521362 360.628601 849.732666 368.169128 C 843.94397 375.709656 836.44165 382.72644 827.225464 389.219696 C 818.009216 395.712921 806.822388 400.977905 793.66449 405.01474 C 780.506653 409.051605 765.244873 411.070007 747.878784 411.070007 Z M 481.333557 411.070007 C 455.589111 411.070007 433.948456 406.976074 416.411011 398.788116 C 398.873535 390.600159 385.458832 378.775421 376.166443 363.313507 C 366.874054 347.851593 361.637665 329.514648 360.457062 308.302124 C 360.152405 302.20874 360.000061 295.28717 360.000061 287.53717 C 360.000061 279.78717 360.152405 272.960815 360.457062 267.057861 C 361.637665 245.54068 367.112091 227.127563 376.880493 211.817993 C 386.648926 196.508423 400.301666 184.759827 417.839111 176.571869 C 435.376587 168.383911 456.541199 164.290009 481.333557 164.290009 C 506.125946 164.290009 527.290527 168.383911 544.828003 176.571869 C 562.365479 184.759827 576.018188 196.508423 585.786621 211.817993 C 595.555054 227.127563 601.02948 245.54068 602.210083 267.057861 C 602.705139 272.960815 602.952698 279.78717 602.952698 287.53717 C 602.952698 295.28717 602.705139 302.20874 602.210083 308.302124 C 601.02948 329.514648 595.793091 347.851593 586.500671 363.313507 C 577.208313 378.775421 563.793579 390.600159 546.256104 398.788116 C 528.718689 406.976074 507.078033 411.070007 481.333557 411.070007 Z M 481.333557 355.430237 C 494.85321 355.430237 504.792877 351.288727 511.152802 343.005554 C 517.512756 334.722412 521.054504 322.393036 521.778076 306.01712 C 522.082703 301.447083 522.235046 295.334778 522.235046 287.679993 C 522.235046 280.025208 522.082703 273.912903 521.778076 269.342896 C 521.054504 253.233551 517.512756 240.970825 511.152802 232.554382 C 504.792877 224.137909 494.85321 219.929749 481.333557 219.929749 C 468.004333 219.929749 458.112274 224.137909 451.657135 232.554382 C 445.201965 240.970825 441.61264 253.233551 440.889069 269.342896 C 440.584381 273.912903 440.432068 280.025208 440.432068 287.679993 C 440.432068 295.334778 440.584381 301.447083 440.889069 306.01712 C 441.61264 322.393036 445.201965 334.722412 451.657135 343.005554 C 458.112274 351.288727 468.004333 355.430237 481.333557 355.430237 Z M 66.891685 406.5 C 63.654587 406.5 60.931656 405.395599 58.722813 403.186768 C 56.513969 400.977905 55.409561 398.254974 55.409561 395.017883 L 55.409561 98.25351 C 55.409561 94.902161 56.513969 92.122101 58.722813 89.913239 C 60.931656 87.704407 63.654587 86.600006 66.891685 86.600006 L 185.654556 86.600006 C 215.664383 86.600006 241.141876 91.369904 262.087799 100.909821 C 283.033752 110.449738 299.199951 124.483307 310.586945 143.010925 C 321.973907 161.538574 328.010071 184.340729 328.695557 211.418121 C 329.190643 224.747345 329.438202 236.476898 329.438202 246.607132 C 329.438202 256.737335 329.190643 268.276489 328.695557 281.224854 C 327.705383 309.635193 321.783478 333.122864 310.929688 351.688568 C 300.075897 370.254272 284.37619 384.030792 263.830139 393.018494 C 243.284058 402.006226 217.987457 406.5 187.93956 406.5 Z M 137.612442 340.52063 L 185.654556 340.52063 C 198.983795 340.52063 209.970734 338.483185 218.615692 334.408264 C 227.260651 330.333313 233.801392 323.868713 238.238129 315.014313 C 242.67485 306.159912 245.045517 294.611237 245.350189 280.367981 C 245.845276 271.418365 246.140411 263.468567 246.235626 256.518311 C 246.330841 249.568069 246.330841 242.598877 246.235626 235.610565 C 246.140411 228.622223 245.845276 220.843781 245.350189 212.274994 C 244.740845 191.7099 239.304504 176.619537 229.041 167.003448 C 218.777496 157.38736 203.553833 152.579376 183.369568 152.579376 L 137.612442 152.579376 Z"/>
    <path id="Path" fill="#14b8a6" stroke="none" d="M 1610 107.799988 C 1619.126587 107.799988 1626.5 116.156555 1626.5 126.5 L 1626.5 163.899994 L 1688.375 163.899994 C 1708.896851 163.899994 1725.5 182.716888 1725.5 205.975006 L 1725.5 364.924988 C 1725.5 388.183105 1708.896851 407 1688.375 407 L 1531.625 407 C 1511.103149 407 1494.5 388.183105 1494.5 364.924988 L 1494.5 205.975006 C 1494.5 182.716888 1511.103149 163.899994 1531.625 163.899994 L 1593.5 163.899994 L 1593.5 126.5 C 1593.5 116.156555 1600.873413 107.799988 1610 107.799988 Z M 1552.25 332.200012 C 1547.712524 332.200012 1544 336.407532 1544 341.549988 C 1544 346.692505 1547.712524 350.899994 1552.25 350.899994 L 1568.75 350.899994 C 1573.287476 350.899994 1577 346.692505 1577 341.549988 C 1577 336.407532 1573.287476 332.200012 1568.75 332.200012 L 1552.25 332.200012 Z M 1601.75 342.100006 C 1597.212524 342.100006 1593.5 346.307495 1593.5 351.450012 C 1593.5 356.592468 1597.212524 360.799988 1601.75 360.799988 L 1618.25 360.799988 C 1622.787476 360.799988 1626.5 356.592468 1626.5 351.450012 C 1626.5 346.307495 1622.787476 342.100006 1618.25 342.100006 L 1601.75 342.100006 Z M 1651.25 332.200012 C 1646.712524 332.200012 1643 336.407532 1643 341.549988 C 1643 346.692505 1646.712524 350.899994 1651.25 350.899994 L 1667.75 350.899994 C 1672.287476 350.899994 1676 346.692505 1676 341.549988 C 1676 336.407532 1672.287476 332.200012 1667.75 332.200012 L 1651.25 332.200012 Z M 1586.900024 257.399994 C 1586.900024 244.490356 1575.190918 234.024994 1563.800049 234.024994 C 1552.40918 234.024994 1539.875 244.490356 1539.875 257.399994 C 1539.875 270.309662 1552.40918 280.774994 1563.800049 280.774994 C 1575.190918 280.774994 1586.900024 270.309662 1586.900024 257.399994 Z M 1657.300049 280.774994 C 1668.690918 280.774994 1680.125 270.309662 1680.125 257.399994 C 1680.125 244.490356 1668.690918 234.024994 1657.300049 234.024994 C 1645.90918 234.024994 1634.199951 244.490356 1634.199951 257.399994 C 1634.199951 270.309662 1645.90918 280.774994 1657.300049 280.774994 Z M 1469.75 238.700012 L 1478 238.700012 L 1478 350.899994 L 1469.75 350.899994 C 1456.085938 350.899994 1445 338.335938 1445 322.850006 L 1445 266.75 C 1445 251.264069 1456.085938 238.700012 1469.75 238.700012 Z M 1750.25 238.700012 C 1763.914063 238.700012 1775 251.264069 1775 266.75 L 1775 322.850006 C 1775 338.335938 1763.914063 350.899994 1750.25 350.899994 L 1742 350.899994 L 1742 238.700012 L 1750.25 238.700012 Z"/>
</svg>
