<svg width="279" height="30" viewBox="0 0 279 30" fill="none" xmlns="http://www.w3.org/2000/svg">
<g clip-path="url(#clip0_7703_261)">
<path d="M57.27 0H0V14.9926H57.27V0Z" fill="#7AD6EB"/>
<path d="M176.783 15.0074H70.728V30H176.783V15.0074Z" fill="#7AD6EB"/>
<path d="M141.84 0H57.2849V14.9926H141.84V0Z" fill="#F9F15D"/>
<path d="M265 15H173V30H265V15Z" fill="#F9F15D"/>
<path d="M159.238 0H141.486V14.9926H159.238V0Z" fill="#A590DD"/>
<path d="M227 0H156V15H227V0Z" fill="#61BD73"/>
<path d="M272 0H227V15H272V0Z" fill="#F4404E" fill-opacity="0.45"/>
<path d="M70.7279 15.0074H7.74707V30H70.7279V15.0074Z" fill="#F4404E" fill-opacity="0.45"/>
<path d="M12.0621 11L13.2553 3.72727H13.9656L12.7724 11H12.0621ZM8.75249 8.98295L8.86612 8.27273H14.2923L14.1786 8.98295H8.75249ZM9.50533 11L10.6985 3.72727H11.4087L10.2156 11H9.50533ZM9.17862 6.45455L9.29226 5.74432H14.7184L14.6048 6.45455H9.17862ZM18.5838 11V3.72727H19.4645V6.96591H23.3423V3.72727H24.223V11H23.3423V7.74716H19.4645V11H18.5838ZM28.1594 11.1136C27.6339 11.1136 27.1805 10.9976 26.7994 10.7656C26.4206 10.5312 26.1282 10.2045 25.9222 9.78551C25.7186 9.36411 25.6168 8.87405 25.6168 8.31534C25.6168 7.75663 25.7186 7.2642 25.9222 6.83807C26.1282 6.40956 26.4147 6.07576 26.7816 5.83665C27.1509 5.59517 27.5818 5.47443 28.0742 5.47443C28.3583 5.47443 28.6388 5.52178 28.9158 5.61648C29.1928 5.71117 29.445 5.86506 29.6722 6.07812C29.8995 6.28883 30.0806 6.56818 30.2156 6.91619C30.3505 7.2642 30.418 7.69271 30.418 8.2017V8.55682H26.2134V7.83239H29.5657C29.5657 7.52462 29.5041 7.25 29.381 7.00852C29.2603 6.76705 29.0875 6.57647 28.8626 6.43679C28.64 6.29711 28.3772 6.22727 28.0742 6.22727C27.7404 6.22727 27.4516 6.31013 27.2077 6.47585C26.9663 6.6392 26.7804 6.85227 26.6502 7.11506C26.52 7.37784 26.4549 7.65956 26.4549 7.96023V8.44318C26.4549 8.85511 26.5259 9.20431 26.668 9.49077C26.8124 9.77486 27.0124 9.99148 27.2681 10.1406C27.5238 10.2874 27.8209 10.3608 28.1594 10.3608C28.3796 10.3608 28.5785 10.33 28.756 10.2685C28.936 10.2045 29.091 10.1098 29.2212 9.98438C29.3514 9.85653 29.4521 9.69792 29.5231 9.50852L30.3327 9.7358C30.2475 10.0104 30.1043 10.2519 29.9031 10.4602C29.7018 10.6662 29.4532 10.8272 29.1573 10.9432C28.8614 11.0568 28.5288 11.1136 28.1594 11.1136ZM33.2979 11.1278C32.9523 11.1278 32.6386 11.0627 32.3569 10.9325C32.0752 10.8 31.8514 10.6094 31.6857 10.3608C31.52 10.1098 31.4371 9.80682 31.4371 9.4517C31.4371 9.1392 31.4987 8.88589 31.6218 8.69176C31.7449 8.49527 31.9094 8.34138 32.1154 8.23011C32.3214 8.11884 32.5487 8.03598 32.7972 7.98153C33.0482 7.92472 33.3003 7.87973 33.5536 7.84659C33.8851 7.80398 34.1538 7.77202 34.3597 7.75071C34.5681 7.72704 34.7196 7.68797 34.8143 7.63352C34.9113 7.57907 34.9599 7.48437 34.9599 7.34943V7.32102C34.9599 6.97064 34.864 6.69839 34.6722 6.50426C34.4828 6.31013 34.1952 6.21307 33.8093 6.21307C33.4092 6.21307 33.0955 6.30066 32.8683 6.47585C32.641 6.65104 32.4812 6.83807 32.3888 7.03693L31.5934 6.75284C31.7354 6.4214 31.9248 6.16335 32.1616 5.97869C32.4007 5.79167 32.6611 5.66146 32.9428 5.58807C33.2269 5.51231 33.5063 5.47443 33.7809 5.47443C33.9561 5.47443 34.1573 5.49574 34.3846 5.53835C34.6142 5.5786 34.8356 5.66264 35.0487 5.79048C35.2641 5.91832 35.4428 6.11127 35.5849 6.36932C35.7269 6.62737 35.7979 6.97301 35.7979 7.40625V11H34.9599V10.2614H34.9173C34.8604 10.3797 34.7657 10.5064 34.6332 10.6413C34.5006 10.7763 34.3242 10.8911 34.104 10.9858C33.8839 11.0805 33.6152 11.1278 33.2979 11.1278ZM33.4258 10.375C33.7572 10.375 34.0366 10.3099 34.2638 10.1797C34.4935 10.0495 34.6663 9.88139 34.7823 9.67543C34.9007 9.46946 34.9599 9.25284 34.9599 9.02557V8.25852C34.9244 8.30114 34.8462 8.3402 34.7255 8.37571C34.6071 8.40885 34.4698 8.43845 34.3136 8.46449C34.1597 8.48816 34.0094 8.50947 33.8626 8.52841C33.7182 8.54498 33.601 8.55919 33.511 8.57102C33.2932 8.59943 33.0896 8.6456 32.9002 8.70952C32.7132 8.77107 32.5617 8.86458 32.4457 8.99006C32.332 9.11316 32.2752 9.28125 32.2752 9.49432C32.2752 9.78551 32.3829 10.0057 32.5984 10.1548C32.8162 10.3016 33.092 10.375 33.4258 10.375ZM39.3873 11.1136C38.9327 11.1136 38.5314 10.9988 38.1834 10.7692C37.8354 10.5372 37.5632 10.2105 37.3667 9.78906C37.1702 9.36529 37.0719 8.86458 37.0719 8.28693C37.0719 7.71402 37.1702 7.21686 37.3667 6.79545C37.5632 6.37405 37.8366 6.04853 38.187 5.81889C38.5373 5.58925 38.9422 5.47443 39.4015 5.47443C39.7566 5.47443 40.0371 5.53362 40.2431 5.65199C40.4514 5.76799 40.61 5.90057 40.7189 6.04972C40.8302 6.1965 40.9166 6.31723 40.9782 6.41193H41.0492V3.72727H41.8873V11H41.0776V10.1619H40.9782C40.9166 10.2614 40.829 10.3868 40.7154 10.5384C40.6017 10.6875 40.4396 10.8213 40.2289 10.9396C40.0182 11.0556 39.7376 11.1136 39.3873 11.1136ZM39.5009 10.3608C39.8371 10.3608 40.1212 10.2732 40.3532 10.098C40.5852 9.92045 40.7615 9.67543 40.8823 9.36293C41.003 9.04806 41.0634 8.68466 41.0634 8.27273C41.0634 7.86553 41.0042 7.50923 40.8858 7.20384C40.7675 6.89607 40.5923 6.65696 40.3603 6.48651C40.1283 6.31368 39.8418 6.22727 39.5009 6.22727C39.1458 6.22727 38.8498 6.31842 38.6131 6.50071C38.3787 6.68063 38.2024 6.92566 38.084 7.2358C37.968 7.54356 37.91 7.8892 37.91 8.27273C37.91 8.66098 37.9692 9.01373 38.0875 9.33097C38.2083 9.64583 38.3858 9.89678 38.6202 10.0838C38.8569 10.2685 39.1505 10.3608 39.5009 10.3608ZM43.5385 11V5.54545H44.3766V11H43.5385ZM43.9647 4.63636C43.8013 4.63636 43.6605 4.58073 43.5421 4.46946C43.4261 4.35819 43.3681 4.22443 43.3681 4.06818C43.3681 3.91193 43.4261 3.77817 43.5421 3.6669C43.6605 3.55563 43.8013 3.5 43.9647 3.5C44.128 3.5 44.2677 3.55563 44.3837 3.6669C44.5021 3.77817 44.5613 3.91193 44.5613 4.06818C44.5613 4.22443 44.5021 4.35819 44.3837 4.46946C44.2677 4.58073 44.128 4.63636 43.9647 4.63636ZM46.7496 7.71875V11H45.9116V5.54545H46.7212V6.39773H46.7923C46.9201 6.12074 47.1142 5.8982 47.3746 5.73011C47.6351 5.55966 47.9712 5.47443 48.3832 5.47443C48.7525 5.47443 49.0756 5.55019 49.3526 5.7017C49.6296 5.85085 49.8451 6.07812 49.9989 6.38352C50.1528 6.68655 50.2298 7.07008 50.2298 7.53409V11H49.3917V7.59091C49.3917 7.16241 49.2804 6.8286 49.0579 6.58949C48.8353 6.34801 48.5299 6.22727 48.1417 6.22727C47.8742 6.22727 47.6351 6.28527 47.4244 6.40128C47.216 6.51728 47.0515 6.68655 46.9308 6.90909C46.81 7.13163 46.7496 7.40152 46.7496 7.71875ZM53.9629 13.1591C53.5581 13.1591 53.21 13.107 52.9189 13.0028C52.6277 12.901 52.385 12.7661 52.1909 12.598C51.9991 12.4323 51.8464 12.2547 51.7328 12.0653L52.4004 11.5966C52.4761 11.696 52.572 11.8097 52.688 11.9375C52.804 12.0677 52.9627 12.1802 53.1639 12.2749C53.3675 12.3719 53.6338 12.4205 53.9629 12.4205C54.4032 12.4205 54.7666 12.3139 55.0531 12.1009C55.3395 11.8878 55.4828 11.554 55.4828 11.0994V9.99148H55.4118C55.3502 10.0909 55.2626 10.214 55.149 10.3608C55.0377 10.5052 54.8767 10.6342 54.666 10.7479C54.4577 10.8591 54.176 10.9148 53.8208 10.9148C53.3805 10.9148 52.9851 10.8106 52.6348 10.6023C52.2868 10.3939 52.0109 10.0909 51.8074 9.69318C51.6061 9.29545 51.5055 8.8125 51.5055 8.24432C51.5055 7.68561 51.6038 7.1991 51.8002 6.7848C51.9967 6.36813 52.2702 6.04616 52.6206 5.81889C52.9709 5.58925 53.3758 5.47443 53.835 5.47443C54.1902 5.47443 54.4719 5.53362 54.6802 5.65199C54.8909 5.76799 55.0519 5.90057 55.1632 6.04972C55.2768 6.1965 55.3644 6.31723 55.426 6.41193H55.5112V5.54545H56.3208V11.1562C56.3208 11.625 56.2143 12.0062 56.0012 12.2997C55.7905 12.5956 55.5065 12.8123 55.149 12.9496C54.7939 13.0893 54.3985 13.1591 53.9629 13.1591ZM53.9345 10.1619C54.2707 10.1619 54.5547 10.085 54.7868 9.93111C55.0188 9.77723 55.1951 9.55587 55.3159 9.26705C55.4366 8.97822 55.497 8.63258 55.497 8.23011C55.497 7.83712 55.4378 7.49029 55.3194 7.18963C55.2011 6.88897 55.0259 6.65341 54.7939 6.48295C54.5618 6.3125 54.2754 6.22727 53.9345 6.22727C53.5794 6.22727 53.2834 6.31723 53.0467 6.49716C52.8123 6.67708 52.6359 6.91856 52.5176 7.22159C52.4016 7.52462 52.3436 7.8608 52.3436 8.23011C52.3436 8.6089 52.4028 8.94389 52.5211 9.23509C52.6419 9.52391 52.8194 9.75118 53.0538 9.9169C53.2905 10.0803 53.5841 10.1619 53.9345 10.1619ZM57.063 4.50852V3.72727H62.5176V4.50852H60.2306V11H59.35V4.50852H57.063ZM64.6012 7.71875V11H63.7631V3.72727H64.6012V6.39773H64.6722C64.8001 6.116 64.9918 5.89228 65.2475 5.72656C65.5056 5.55848 65.8488 5.47443 66.2773 5.47443C66.649 5.47443 66.9746 5.54901 67.2539 5.69815C67.5333 5.84493 67.7499 6.07102 67.9038 6.37642C68.06 6.67945 68.1381 7.06534 68.1381 7.53409V11H67.3001V7.59091C67.3001 7.15767 67.1876 6.82268 66.9627 6.58594C66.7402 6.34683 66.4312 6.22727 66.0359 6.22727C65.7612 6.22727 65.515 6.28527 65.2972 6.40128C65.0818 6.51728 64.9113 6.68655 64.7859 6.90909C64.6628 7.13163 64.6012 7.40152 64.6012 7.71875ZM69.6713 11V5.54545H70.5094V11H69.6713ZM70.0975 4.63636C69.9341 4.63636 69.7933 4.58073 69.6749 4.46946C69.5589 4.35819 69.5009 4.22443 69.5009 4.06818C69.5009 3.91193 69.5589 3.77817 69.6749 3.6669C69.7933 3.55563 69.9341 3.5 70.0975 3.5C70.2608 3.5 70.4005 3.55563 70.5165 3.6669C70.6349 3.77817 70.6941 3.91193 70.6941 4.06818C70.6941 4.22443 70.6349 4.35819 70.5165 4.46946C70.4005 4.58073 70.2608 4.63636 70.0975 4.63636ZM75.908 6.76705L75.1552 6.98011C75.1078 6.85464 75.038 6.73272 74.9457 6.61435C74.8557 6.49361 74.7326 6.39418 74.5763 6.31605C74.4201 6.23793 74.2201 6.19886 73.9762 6.19886C73.6424 6.19886 73.3642 6.2758 73.1417 6.42969C72.9215 6.5812 72.8114 6.77415 72.8114 7.00852C72.8114 7.21686 72.8872 7.38139 73.0387 7.50213C73.1902 7.62287 73.427 7.72348 73.7489 7.80398L74.5586 8.00284C75.0463 8.12121 75.4097 8.30232 75.6488 8.54616C75.8879 8.78764 76.0075 9.09896 76.0075 9.48011C76.0075 9.79261 75.9175 10.072 75.7376 10.3182C75.56 10.5644 75.3114 10.7585 74.9918 10.9006C74.6722 11.0426 74.3005 11.1136 73.8768 11.1136C73.3204 11.1136 72.86 10.9929 72.4954 10.7514C72.1308 10.5099 71.9 10.1572 71.8029 9.69318L72.5984 9.49432C72.6741 9.78788 72.8174 10.008 73.0281 10.1548C73.2411 10.3016 73.5193 10.375 73.8626 10.375C74.2532 10.375 74.5633 10.2921 74.793 10.1264C75.025 9.95833 75.141 9.7571 75.141 9.52273C75.141 9.33333 75.0747 9.17472 74.9421 9.04688C74.8095 8.91667 74.6059 8.8196 74.3313 8.75568L73.4222 8.54261C72.9227 8.42424 72.5558 8.24077 72.3214 7.99219C72.0894 7.74124 71.9734 7.42756 71.9734 7.05114C71.9734 6.74337 72.0598 6.47112 72.2326 6.23438C72.4078 5.99763 72.6457 5.81179 72.9464 5.67685C73.2494 5.5419 73.5927 5.47443 73.9762 5.47443C74.516 5.47443 74.9397 5.5928 75.2475 5.82955C75.5576 6.06629 75.7778 6.37879 75.908 6.76705ZM80.0815 11V5.54545H80.9196V11H80.0815ZM80.5076 4.63636C80.3443 4.63636 80.2034 4.58073 80.085 4.46946C79.969 4.35819 79.911 4.22443 79.911 4.06818C79.911 3.91193 79.969 3.77817 80.085 3.6669C80.2034 3.55563 80.3443 3.5 80.5076 3.5C80.671 3.5 80.8107 3.55563 80.9267 3.6669C81.045 3.77817 81.1042 3.91193 81.1042 4.06818C81.1042 4.22443 81.045 4.35819 80.9267 4.46946C80.8107 4.58073 80.671 4.63636 80.5076 4.63636ZM86.3182 6.76705L85.5653 6.98011C85.518 6.85464 85.4482 6.73272 85.3558 6.61435C85.2659 6.49361 85.1428 6.39418 84.9865 6.31605C84.8303 6.23793 84.6302 6.19886 84.3864 6.19886C84.0526 6.19886 83.7744 6.2758 83.5518 6.42969C83.3317 6.5812 83.2216 6.77415 83.2216 7.00852C83.2216 7.21686 83.2973 7.38139 83.4489 7.50213C83.6004 7.62287 83.8371 7.72348 84.1591 7.80398L84.9688 8.00284C85.4564 8.12121 85.8198 8.30232 86.0589 8.54616C86.2981 8.78764 86.4176 9.09896 86.4176 9.48011C86.4176 9.79261 86.3277 10.072 86.1477 10.3182C85.9702 10.5644 85.7216 10.7585 85.402 10.9006C85.0824 11.0426 84.7107 11.1136 84.2869 11.1136C83.7306 11.1136 83.2701 10.9929 82.9055 10.7514C82.541 10.5099 82.3101 10.1572 82.2131 9.69318L83.0085 9.49432C83.0843 9.78788 83.2275 10.008 83.4382 10.1548C83.6513 10.3016 83.9295 10.375 84.2727 10.375C84.6634 10.375 84.9735 10.2921 85.2031 10.1264C85.4351 9.95833 85.5511 9.7571 85.5511 9.52273C85.5511 9.33333 85.4848 9.17472 85.3523 9.04688C85.2197 8.91667 85.0161 8.8196 84.7415 8.75568L83.8324 8.54261C83.3329 8.42424 82.9659 8.24077 82.7315 7.99219C82.4995 7.74124 82.3835 7.42756 82.3835 7.05114C82.3835 6.74337 82.4699 6.47112 82.6428 6.23438C82.8179 5.99763 83.0559 5.81179 83.3565 5.67685C83.6596 5.5419 84.0028 5.47443 84.3864 5.47443C84.9261 5.47443 85.3499 5.5928 85.6577 5.82955C85.9678 6.06629 86.188 6.37879 86.3182 6.76705ZM92.0968 11.1278C91.7511 11.1278 91.4374 11.0627 91.1557 10.9325C90.874 10.8 90.6503 10.6094 90.4846 10.3608C90.3188 10.1098 90.236 9.80682 90.236 9.4517C90.236 9.1392 90.2975 8.88589 90.4206 8.69176C90.5437 8.49527 90.7083 8.34138 90.9142 8.23011C91.1202 8.11884 91.3475 8.03598 91.5961 7.98153C91.847 7.92472 92.0991 7.87973 92.3525 7.84659C92.6839 7.80398 92.9526 7.77202 93.1586 7.75071C93.3669 7.72704 93.5184 7.68797 93.6131 7.63352C93.7102 7.57907 93.7587 7.48437 93.7587 7.34943V7.32102C93.7587 6.97064 93.6628 6.69839 93.4711 6.50426C93.2817 6.31013 92.994 6.21307 92.6081 6.21307C92.208 6.21307 91.8944 6.30066 91.6671 6.47585C91.4398 6.65104 91.28 6.83807 91.1877 7.03693L90.3922 6.75284C90.5343 6.4214 90.7237 6.16335 90.9604 5.97869C91.1995 5.79167 91.4599 5.66146 91.7417 5.58807C92.0257 5.51231 92.3051 5.47443 92.5797 5.47443C92.7549 5.47443 92.9561 5.49574 93.1834 5.53835C93.4131 5.5786 93.6344 5.66264 93.8475 5.79048C94.0629 5.91832 94.2417 6.11127 94.3837 6.36932C94.5257 6.62737 94.5968 6.97301 94.5968 7.40625V11H93.7587V10.2614H93.7161C93.6593 10.3797 93.5646 10.5064 93.432 10.6413C93.2994 10.7763 93.123 10.8911 92.9029 10.9858C92.6827 11.0805 92.414 11.1278 92.0968 11.1278ZM92.2246 10.375C92.556 10.375 92.8354 10.3099 93.0627 10.1797C93.2923 10.0495 93.4651 9.88139 93.5811 9.67543C93.6995 9.46946 93.7587 9.25284 93.7587 9.02557V8.25852C93.7232 8.30114 93.6451 8.3402 93.5243 8.37571C93.406 8.40885 93.2686 8.43845 93.1124 8.46449C92.9585 8.48816 92.8082 8.50947 92.6614 8.52841C92.517 8.54498 92.3998 8.55919 92.3098 8.57102C92.092 8.59943 91.8884 8.6456 91.699 8.70952C91.512 8.77107 91.3605 8.86458 91.2445 8.99006C91.1309 9.11316 91.074 9.28125 91.074 9.49432C91.074 9.78551 91.1818 10.0057 91.3972 10.1548C91.615 10.3016 91.8908 10.375 92.2246 10.375ZM99.777 7.71875V11H98.9389V3.72727H99.777V6.39773H99.848C99.9759 6.116 100.168 5.89228 100.423 5.72656C100.681 5.55848 101.025 5.47443 101.453 5.47443C101.825 5.47443 102.15 5.54901 102.43 5.69815C102.709 5.84493 102.926 6.07102 103.08 6.37642C103.236 6.67945 103.314 7.06534 103.314 7.53409V11H102.476V7.59091C102.476 7.15767 102.363 6.82268 102.138 6.58594C101.916 6.34683 101.607 6.22727 101.212 6.22727C100.937 6.22727 100.691 6.28527 100.473 6.40128C100.258 6.51728 100.087 6.68655 99.9616 6.90909C99.8385 7.13163 99.777 7.40152 99.777 7.71875ZM107.134 11.1136C106.608 11.1136 106.155 10.9976 105.774 10.7656C105.395 10.5312 105.103 10.2045 104.897 9.78551C104.693 9.36411 104.591 8.87405 104.591 8.31534C104.591 7.75663 104.693 7.2642 104.897 6.83807C105.103 6.40956 105.389 6.07576 105.756 5.83665C106.126 5.59517 106.556 5.47443 107.049 5.47443C107.333 5.47443 107.613 5.52178 107.89 5.61648C108.167 5.71117 108.42 5.86506 108.647 6.07812C108.874 6.28883 109.055 6.56818 109.19 6.91619C109.325 7.2642 109.393 7.69271 109.393 8.2017V8.55682H105.188V7.83239H108.54C108.54 7.52462 108.479 7.25 108.356 7.00852C108.235 6.76705 108.062 6.57647 107.837 6.43679C107.615 6.29711 107.352 6.22727 107.049 6.22727C106.715 6.22727 106.426 6.31013 106.182 6.47585C105.941 6.6392 105.755 6.85227 105.625 7.11506C105.495 7.37784 105.43 7.65956 105.43 7.96023V8.44318C105.43 8.85511 105.501 9.20431 105.643 9.49077C105.787 9.77486 105.987 9.99148 106.243 10.1406C106.498 10.2874 106.796 10.3608 107.134 10.3608C107.354 10.3608 107.553 10.33 107.731 10.2685C107.911 10.2045 108.066 10.1098 108.196 9.98438C108.326 9.85653 108.427 9.69792 108.498 9.50852L109.307 9.7358C109.222 10.0104 109.079 10.2519 108.878 10.4602C108.676 10.6662 108.428 10.8272 108.132 10.9432C107.836 11.0568 107.503 11.1136 107.134 11.1136ZM112.273 11.1278C111.927 11.1278 111.613 11.0627 111.331 10.9325C111.05 10.8 110.826 10.6094 110.66 10.3608C110.495 10.1098 110.412 9.80682 110.412 9.4517C110.412 9.1392 110.473 8.88589 110.596 8.69176C110.72 8.49527 110.884 8.34138 111.09 8.23011C111.296 8.11884 111.523 8.03598 111.772 7.98153C112.023 7.92472 112.275 7.87973 112.528 7.84659C112.86 7.80398 113.128 7.77202 113.334 7.75071C113.543 7.72704 113.694 7.68797 113.789 7.63352C113.886 7.57907 113.934 7.48437 113.934 7.34943V7.32102C113.934 6.97064 113.839 6.69839 113.647 6.50426C113.457 6.31013 113.17 6.21307 112.784 6.21307C112.384 6.21307 112.07 6.30066 111.843 6.47585C111.616 6.65104 111.456 6.83807 111.363 7.03693L110.568 6.75284C110.71 6.4214 110.899 6.16335 111.136 5.97869C111.375 5.79167 111.636 5.66146 111.917 5.58807C112.202 5.51231 112.481 5.47443 112.756 5.47443C112.931 5.47443 113.132 5.49574 113.359 5.53835C113.589 5.5786 113.81 5.66264 114.023 5.79048C114.239 5.91832 114.417 6.11127 114.559 6.36932C114.702 6.62737 114.773 6.97301 114.773 7.40625V11H113.934V10.2614H113.892C113.835 10.3797 113.74 10.5064 113.608 10.6413C113.475 10.7763 113.299 10.8911 113.079 10.9858C112.858 11.0805 112.59 11.1278 112.273 11.1278ZM112.4 10.375C112.732 10.375 113.011 10.3099 113.238 10.1797C113.468 10.0495 113.641 9.88139 113.757 9.67543C113.875 9.46946 113.934 9.25284 113.934 9.02557V8.25852C113.899 8.30114 113.821 8.3402 113.7 8.37571C113.582 8.40885 113.444 8.43845 113.288 8.46449C113.134 8.48816 112.984 8.50947 112.837 8.52841C112.693 8.54498 112.576 8.55919 112.486 8.57102C112.268 8.59943 112.064 8.6456 111.875 8.70952C111.688 8.77107 111.536 8.86458 111.42 8.99006C111.307 9.11316 111.25 9.28125 111.25 9.49432C111.25 9.78551 111.358 10.0057 111.573 10.1548C111.791 10.3016 112.067 10.375 112.4 10.375ZM118.362 11.1136C117.907 11.1136 117.506 10.9988 117.158 10.7692C116.81 10.5372 116.538 10.2105 116.341 9.78906C116.145 9.36529 116.047 8.86458 116.047 8.28693C116.047 7.71402 116.145 7.21686 116.341 6.79545C116.538 6.37405 116.811 6.04853 117.162 5.81889C117.512 5.58925 117.917 5.47443 118.376 5.47443C118.731 5.47443 119.012 5.53362 119.218 5.65199C119.426 5.76799 119.585 5.90057 119.694 6.04972C119.805 6.1965 119.891 6.31723 119.953 6.41193H120.024V3.72727H120.862V11H120.052V10.1619H119.953C119.891 10.2614 119.804 10.3868 119.69 10.5384C119.576 10.6875 119.414 10.8213 119.203 10.9396C118.993 11.0556 118.712 11.1136 118.362 11.1136ZM118.475 10.3608C118.812 10.3608 119.096 10.2732 119.328 10.098C119.56 9.92045 119.736 9.67543 119.857 9.36293C119.978 9.04806 120.038 8.68466 120.038 8.27273C120.038 7.86553 119.979 7.50923 119.86 7.20384C119.742 6.89607 119.567 6.65696 119.335 6.48651C119.103 6.31368 118.816 6.22727 118.475 6.22727C118.12 6.22727 117.824 6.31842 117.588 6.50071C117.353 6.68063 117.177 6.92566 117.059 7.2358C116.943 7.54356 116.885 7.8892 116.885 8.27273C116.885 8.66098 116.944 9.01373 117.062 9.33097C117.183 9.64583 117.36 9.89678 117.595 10.0838C117.832 10.2685 118.125 10.3608 118.475 10.3608ZM122.513 11V5.54545H123.351V11H122.513ZM122.939 4.63636C122.776 4.63636 122.635 4.58073 122.517 4.46946C122.401 4.35819 122.343 4.22443 122.343 4.06818C122.343 3.91193 122.401 3.77817 122.517 3.6669C122.635 3.55563 122.776 3.5 122.939 3.5C123.103 3.5 123.242 3.55563 123.358 3.6669C123.477 3.77817 123.536 3.91193 123.536 4.06818C123.536 4.22443 123.477 4.35819 123.358 4.46946C123.242 4.58073 123.103 4.63636 122.939 4.63636ZM125.724 7.71875V11H124.886V5.54545H125.696V6.39773H125.767C125.895 6.12074 126.089 5.8982 126.349 5.73011C126.61 5.55966 126.946 5.47443 127.358 5.47443C127.727 5.47443 128.05 5.55019 128.327 5.7017C128.604 5.85085 128.82 6.07812 128.974 6.38352C129.127 6.68655 129.204 7.07008 129.204 7.53409V11H128.366V7.59091C128.366 7.16241 128.255 6.8286 128.032 6.58949C127.81 6.34801 127.505 6.22727 127.116 6.22727C126.849 6.22727 126.61 6.28527 126.399 6.40128C126.191 6.51728 126.026 6.68655 125.905 6.90909C125.785 7.13163 125.724 7.40152 125.724 7.71875ZM132.938 13.1591C132.533 13.1591 132.185 13.107 131.893 13.0028C131.602 12.901 131.36 12.7661 131.165 12.598C130.974 12.4323 130.821 12.2547 130.707 12.0653L131.375 11.5966C131.451 11.696 131.547 11.8097 131.663 11.9375C131.779 12.0677 131.937 12.1802 132.138 12.2749C132.342 12.3719 132.608 12.4205 132.938 12.4205C133.378 12.4205 133.741 12.3139 134.028 12.1009C134.314 11.8878 134.457 11.554 134.457 11.0994V9.99148H134.386C134.325 10.0909 134.237 10.214 134.124 10.3608C134.012 10.5052 133.851 10.6342 133.641 10.7479C133.432 10.8591 133.151 10.9148 132.795 10.9148C132.355 10.9148 131.96 10.8106 131.609 10.6023C131.261 10.3939 130.986 10.0909 130.782 9.69318C130.581 9.29545 130.48 8.8125 130.48 8.24432C130.48 7.68561 130.578 7.1991 130.775 6.7848C130.971 6.36813 131.245 6.04616 131.595 5.81889C131.946 5.58925 132.35 5.47443 132.81 5.47443C133.165 5.47443 133.446 5.53362 133.655 5.65199C133.866 5.76799 134.027 5.90057 134.138 6.04972C134.251 6.1965 134.339 6.31723 134.401 6.41193H134.486V5.54545H135.295V11.1562C135.295 11.625 135.189 12.0062 134.976 12.2997C134.765 12.5956 134.481 12.8123 134.124 12.9496C133.768 13.0893 133.373 13.1591 132.938 13.1591ZM132.909 10.1619C133.245 10.1619 133.529 10.085 133.761 9.93111C133.993 9.77723 134.17 9.55587 134.29 9.26705C134.411 8.97822 134.472 8.63258 134.472 8.23011C134.472 7.83712 134.412 7.49029 134.294 7.18963C134.176 6.88897 134 6.65341 133.768 6.48295C133.536 6.3125 133.25 6.22727 132.909 6.22727C132.554 6.22727 132.258 6.31723 132.021 6.49716C131.787 6.67708 131.611 6.91856 131.492 7.22159C131.376 7.52462 131.318 7.8608 131.318 8.23011C131.318 8.6089 131.377 8.94389 131.496 9.23509C131.616 9.52391 131.794 9.75118 132.028 9.9169C132.265 10.0803 132.559 10.1619 132.909 10.1619ZM137.44 11.0568C137.265 11.0568 137.115 10.9941 136.989 10.8686C136.864 10.7431 136.801 10.5928 136.801 10.4176C136.801 10.2424 136.864 10.0921 136.989 9.96662C137.115 9.84115 137.265 9.77841 137.44 9.77841C137.616 9.77841 137.766 9.84115 137.891 9.96662C138.017 10.0921 138.08 10.2424 138.08 10.4176C138.08 10.5336 138.05 10.6402 137.991 10.7372C137.934 10.8343 137.857 10.9124 137.76 10.9716C137.665 11.0284 137.559 11.0568 137.44 11.0568ZM145.521 7.49148V8.27273H142.339V7.49148H145.521ZM150.121 7.49148V8.27273H146.939V7.49148H150.121ZM154.72 7.49148V8.27273H151.538V7.49148H154.72ZM158.908 11L160.101 3.72727H160.811L159.618 11H158.908ZM155.598 8.98295L155.712 8.27273H161.138L161.024 8.98295H155.598ZM156.351 11L157.544 3.72727H158.254L157.061 11H156.351ZM156.024 6.45455L156.138 5.74432H161.564L161.45 6.45455H156.024ZM165.216 11L166.41 3.72727H167.12L165.927 11H165.216ZM161.907 8.98295L162.02 8.27273H167.447L167.333 8.98295H161.907ZM162.66 11L163.853 3.72727H164.563L163.37 11H162.66ZM162.333 6.45455L162.447 5.74432H167.873L167.759 6.45455H162.333ZM175.715 5.54545C175.673 5.18561 175.5 4.90625 175.197 4.70739C174.894 4.50852 174.522 4.40909 174.082 4.40909C173.76 4.40909 173.478 4.46117 173.237 4.56534C172.998 4.66951 172.811 4.81274 172.676 4.99503C172.543 5.17732 172.477 5.38447 172.477 5.61648C172.477 5.81061 172.523 5.97751 172.615 6.11719C172.71 6.2545 172.831 6.36932 172.977 6.46165C173.124 6.55161 173.278 6.62618 173.439 6.68537C173.6 6.74219 173.748 6.78835 173.883 6.82386L174.622 7.02273C174.811 7.07244 175.022 7.1411 175.254 7.22869C175.488 7.31629 175.712 7.43584 175.925 7.58736C176.14 7.73651 176.318 7.92827 176.458 8.16264C176.597 8.39702 176.667 8.68466 176.667 9.02557C176.667 9.41856 176.564 9.77367 176.358 10.0909C176.155 10.4081 175.856 10.6603 175.463 10.8473C175.073 11.0343 174.598 11.1278 174.039 11.1278C173.518 11.1278 173.067 11.0438 172.686 10.8757C172.307 10.7076 172.009 10.4732 171.791 10.1726C171.576 9.87192 171.454 9.52273 171.426 9.125H172.335C172.358 9.39962 172.451 9.62689 172.612 9.80682C172.775 9.98437 172.981 10.117 173.23 10.2045C173.481 10.2898 173.75 10.3324 174.039 10.3324C174.375 10.3324 174.677 10.2779 174.945 10.169C175.212 10.0578 175.424 9.90388 175.58 9.70739C175.737 9.50852 175.815 9.27652 175.815 9.01136C175.815 8.76989 175.747 8.57339 175.612 8.42188C175.477 8.27036 175.3 8.14725 175.08 8.05256C174.86 7.95786 174.622 7.875 174.366 7.80398L173.471 7.5483C172.903 7.38494 172.453 7.15175 172.122 6.84872C171.79 6.54569 171.624 6.14915 171.624 5.65909C171.624 5.25189 171.735 4.89678 171.955 4.59375C172.177 4.28835 172.476 4.05161 172.85 3.88352C173.226 3.71307 173.646 3.62784 174.11 3.62784C174.579 3.62784 174.996 3.71188 175.36 3.87997C175.725 4.04569 176.014 4.27296 176.227 4.56179C176.442 4.85062 176.556 5.1785 176.568 5.54545H175.715ZM181.439 8.76989V5.54545H182.277V11H181.439V10.0767H181.382C181.254 10.3537 181.055 10.5893 180.786 10.7834C180.516 10.9751 180.175 11.071 179.763 11.071C179.422 11.071 179.119 10.9964 178.854 10.8473C178.589 10.6958 178.38 10.4685 178.229 10.1655C178.077 9.86009 178.001 9.47538 178.001 9.01136V5.54545H178.839V8.95455C178.839 9.35227 178.951 9.66951 179.173 9.90625C179.398 10.143 179.685 10.2614 180.033 10.2614C180.241 10.2614 180.453 10.2081 180.668 10.1016C180.886 9.99503 181.068 9.83168 181.215 9.61151C181.364 9.39134 181.439 9.1108 181.439 8.76989ZM183.926 11V3.72727H184.764V6.41193H184.835C184.896 6.31723 184.981 6.1965 185.09 6.04972C185.202 5.90057 185.36 5.76799 185.566 5.65199C185.775 5.53362 186.056 5.47443 186.411 5.47443C186.871 5.47443 187.276 5.58925 187.626 5.81889C187.976 6.04853 188.25 6.37405 188.446 6.79545C188.643 7.21686 188.741 7.71402 188.741 8.28693C188.741 8.86458 188.643 9.36529 188.446 9.78906C188.25 10.2105 187.977 10.5372 187.629 10.7692C187.281 10.9988 186.88 11.1136 186.426 11.1136C186.075 11.1136 185.795 11.0556 185.584 10.9396C185.373 10.8213 185.211 10.6875 185.097 10.5384C184.984 10.3868 184.896 10.2614 184.835 10.1619H184.735V11H183.926ZM184.749 8.27273C184.749 8.68466 184.81 9.04806 184.931 9.36293C185.051 9.67543 185.228 9.92045 185.46 10.098C185.692 10.2732 185.976 10.3608 186.312 10.3608C186.662 10.3608 186.955 10.2685 187.189 10.0838C187.426 9.89678 187.603 9.64583 187.722 9.33097C187.843 9.01373 187.903 8.66098 187.903 8.27273C187.903 7.8892 187.844 7.54356 187.725 7.2358C187.609 6.92566 187.433 6.68063 187.196 6.50071C186.962 6.31842 186.667 6.22727 186.312 6.22727C185.971 6.22727 185.685 6.31368 185.453 6.48651C185.221 6.65696 185.045 6.89607 184.927 7.20384C184.809 7.50923 184.749 7.86553 184.749 8.27273ZM190.861 7.71875V11H190.023V3.72727H190.861V6.39773H190.932C191.06 6.116 191.252 5.89228 191.507 5.72656C191.765 5.55848 192.109 5.47443 192.537 5.47443C192.909 5.47443 193.234 5.54901 193.514 5.69815C193.793 5.84493 194.01 6.07102 194.164 6.37642C194.32 6.67945 194.398 7.06534 194.398 7.53409V11H193.56V7.59091C193.56 7.15767 193.447 6.82268 193.222 6.58594C193 6.34683 192.691 6.22727 192.296 6.22727C192.021 6.22727 191.775 6.28527 191.557 6.40128C191.342 6.51728 191.171 6.68655 191.046 6.90909C190.923 7.13163 190.861 7.40152 190.861 7.71875ZM198.218 11.1136C197.692 11.1136 197.239 10.9976 196.858 10.7656C196.479 10.5312 196.187 10.2045 195.981 9.78551C195.777 9.36411 195.675 8.87405 195.675 8.31534C195.675 7.75663 195.777 7.2642 195.981 6.83807C196.187 6.40956 196.473 6.07576 196.84 5.83665C197.21 5.59517 197.64 5.47443 198.133 5.47443C198.417 5.47443 198.697 5.52178 198.974 5.61648C199.251 5.71117 199.504 5.86506 199.731 6.07812C199.958 6.28883 200.139 6.56818 200.274 6.91619C200.409 7.2642 200.477 7.69271 200.477 8.2017V8.55682H196.272V7.83239H199.624C199.624 7.52462 199.563 7.25 199.44 7.00852C199.319 6.76705 199.146 6.57647 198.921 6.43679C198.699 6.29711 198.436 6.22727 198.133 6.22727C197.799 6.22727 197.51 6.31013 197.266 6.47585C197.025 6.6392 196.839 6.85227 196.709 7.11506C196.579 7.37784 196.513 7.65956 196.513 7.96023V8.44318C196.513 8.85511 196.585 9.20431 196.727 9.49077C196.871 9.77486 197.071 9.99148 197.327 10.1406C197.582 10.2874 197.879 10.3608 198.218 10.3608C198.438 10.3608 198.637 10.33 198.815 10.2685C198.995 10.2045 199.15 10.1098 199.28 9.98438C199.41 9.85653 199.511 9.69792 199.582 9.50852L200.391 9.7358C200.306 10.0104 200.163 10.2519 199.962 10.4602C199.76 10.6662 199.512 10.8272 199.216 10.9432C198.92 11.0568 198.587 11.1136 198.218 11.1136ZM203.357 11.1278C203.011 11.1278 202.697 11.0627 202.415 10.9325C202.134 10.8 201.91 10.6094 201.744 10.3608C201.579 10.1098 201.496 9.80682 201.496 9.4517C201.496 9.1392 201.557 8.88589 201.68 8.69176C201.804 8.49527 201.968 8.34138 202.174 8.23011C202.38 8.11884 202.607 8.03598 202.856 7.98153C203.107 7.92472 203.359 7.87973 203.612 7.84659C203.944 7.80398 204.212 7.77202 204.418 7.75071C204.627 7.72704 204.778 7.68797 204.873 7.63352C204.97 7.57907 205.018 7.48437 205.018 7.34943V7.32102C205.018 6.97064 204.923 6.69839 204.731 6.50426C204.541 6.31013 204.254 6.21307 203.868 6.21307C203.468 6.21307 203.154 6.30066 202.927 6.47585C202.7 6.65104 202.54 6.83807 202.447 7.03693L201.652 6.75284C201.794 6.4214 201.983 6.16335 202.22 5.97869C202.459 5.79167 202.72 5.66146 203.001 5.58807C203.286 5.51231 203.565 5.47443 203.839 5.47443C204.015 5.47443 204.216 5.49574 204.443 5.53835C204.673 5.5786 204.894 5.66264 205.107 5.79048C205.323 5.91832 205.501 6.11127 205.643 6.36932C205.786 6.62737 205.857 6.97301 205.857 7.40625V11H205.018V10.2614H204.976C204.919 10.3797 204.824 10.5064 204.692 10.6413C204.559 10.7763 204.383 10.8911 204.163 10.9858C203.942 11.0805 203.674 11.1278 203.357 11.1278ZM203.484 10.375C203.816 10.375 204.095 10.3099 204.322 10.1797C204.552 10.0495 204.725 9.88139 204.841 9.67543C204.959 9.46946 205.018 9.25284 205.018 9.02557V8.25852C204.983 8.30114 204.905 8.3402 204.784 8.37571C204.666 8.40885 204.528 8.43845 204.372 8.46449C204.218 8.48816 204.068 8.50947 203.921 8.52841C203.777 8.54498 203.66 8.55919 203.57 8.57102C203.352 8.59943 203.148 8.6456 202.959 8.70952C202.772 8.77107 202.62 8.86458 202.504 8.99006C202.391 9.11316 202.334 9.28125 202.334 9.49432C202.334 9.78551 202.442 10.0057 202.657 10.1548C202.875 10.3016 203.151 10.375 203.484 10.375ZM209.446 11.1136C208.991 11.1136 208.59 10.9988 208.242 10.7692C207.894 10.5372 207.622 10.2105 207.425 9.78906C207.229 9.36529 207.131 8.86458 207.131 8.28693C207.131 7.71402 207.229 7.21686 207.425 6.79545C207.622 6.37405 207.895 6.04853 208.246 5.81889C208.596 5.58925 209.001 5.47443 209.46 5.47443C209.815 5.47443 210.096 5.53362 210.302 5.65199C210.51 5.76799 210.669 5.90057 210.778 6.04972C210.889 6.1965 210.975 6.31723 211.037 6.41193H211.108V3.72727H211.946V11H211.136V10.1619H211.037C210.975 10.2614 210.888 10.3868 210.774 10.5384C210.66 10.6875 210.498 10.8213 210.287 10.9396C210.077 11.0556 209.796 11.1136 209.446 11.1136ZM209.559 10.3608C209.896 10.3608 210.18 10.2732 210.412 10.098C210.644 9.92045 210.82 9.67543 210.941 9.36293C211.062 9.04806 211.122 8.68466 211.122 8.27273C211.122 7.86553 211.063 7.50923 210.944 7.20384C210.826 6.89607 210.651 6.65696 210.419 6.48651C210.187 6.31368 209.9 6.22727 209.559 6.22727C209.204 6.22727 208.908 6.31842 208.672 6.50071C208.437 6.68063 208.261 6.92566 208.143 7.2358C208.027 7.54356 207.969 7.8892 207.969 8.27273C207.969 8.66098 208.028 9.01373 208.146 9.33097C208.267 9.64583 208.444 9.89678 208.679 10.0838C208.916 10.2685 209.209 10.3608 209.559 10.3608ZM213.597 11V5.54545H214.435V11H213.597ZM214.023 4.63636C213.86 4.63636 213.719 4.58073 213.601 4.46946C213.485 4.35819 213.427 4.22443 213.427 4.06818C213.427 3.91193 213.485 3.77817 213.601 3.6669C213.719 3.55563 213.86 3.5 214.023 3.5C214.187 3.5 214.326 3.55563 214.442 3.6669C214.561 3.77817 214.62 3.91193 214.62 4.06818C214.62 4.22443 214.561 4.35819 214.442 4.46946C214.326 4.58073 214.187 4.63636 214.023 4.63636ZM216.808 7.71875V11H215.97V5.54545H216.78V6.39773H216.851C216.979 6.12074 217.173 5.8982 217.433 5.73011C217.694 5.55966 218.03 5.47443 218.442 5.47443C218.811 5.47443 219.134 5.55019 219.411 5.7017C219.688 5.85085 219.904 6.07812 220.058 6.38352C220.211 6.68655 220.288 7.07008 220.288 7.53409V11H219.45V7.59091C219.45 7.16241 219.339 6.8286 219.116 6.58949C218.894 6.34801 218.589 6.22727 218.2 6.22727C217.933 6.22727 217.694 6.28527 217.483 6.40128C217.275 6.51728 217.11 6.68655 216.989 6.90909C216.869 7.13163 216.808 7.40152 216.808 7.71875ZM224.021 13.1591C223.617 13.1591 223.269 13.107 222.977 13.0028C222.686 12.901 222.444 12.7661 222.249 12.598C222.058 12.4323 221.905 12.2547 221.791 12.0653L222.459 11.5966C222.535 11.696 222.631 11.8097 222.747 11.9375C222.863 12.0677 223.021 12.1802 223.222 12.2749C223.426 12.3719 223.692 12.4205 224.021 12.4205C224.462 12.4205 224.825 12.3139 225.112 12.1009C225.398 11.8878 225.541 11.554 225.541 11.0994V9.99148H225.47C225.409 10.0909 225.321 10.214 225.208 10.3608C225.096 10.5052 224.935 10.6342 224.725 10.7479C224.516 10.8591 224.235 10.9148 223.879 10.9148C223.439 10.9148 223.044 10.8106 222.693 10.6023C222.345 10.3939 222.07 10.0909 221.866 9.69318C221.665 9.29545 221.564 8.8125 221.564 8.24432C221.564 7.68561 221.662 7.1991 221.859 6.7848C222.055 6.36813 222.329 6.04616 222.679 5.81889C223.03 5.58925 223.434 5.47443 223.894 5.47443C224.249 5.47443 224.53 5.53362 224.739 5.65199C224.95 5.76799 225.11 5.90057 225.222 6.04972C225.335 6.1965 225.423 6.31723 225.485 6.41193H225.57V5.54545H226.379V11.1562C226.379 11.625 226.273 12.0062 226.06 12.2997C225.849 12.5956 225.565 12.8123 225.208 12.9496C224.852 13.0893 224.457 13.1591 224.021 13.1591ZM223.993 10.1619C224.329 10.1619 224.613 10.085 224.845 9.93111C225.077 9.77723 225.254 9.55587 225.374 9.26705C225.495 8.97822 225.556 8.63258 225.556 8.23011C225.556 7.83712 225.496 7.49029 225.378 7.18963C225.26 6.88897 225.084 6.65341 224.852 6.48295C224.62 6.3125 224.334 6.22727 223.993 6.22727C223.638 6.22727 223.342 6.31723 223.105 6.49716C222.871 6.67708 222.695 6.91856 222.576 7.22159C222.46 7.52462 222.402 7.8608 222.402 8.23011C222.402 8.6089 222.461 8.94389 222.58 9.23509C222.7 9.52391 222.878 9.75118 223.112 9.9169C223.349 10.0803 223.643 10.1619 223.993 10.1619ZM227.122 4.50852V3.72727H232.576V4.50852H230.289V11H229.409V4.50852H227.122ZM234.66 7.71875V11H233.822V3.72727H234.66V6.39773H234.731C234.859 6.116 235.05 5.89228 235.306 5.72656C235.564 5.55848 235.907 5.47443 236.336 5.47443C236.708 5.47443 237.033 5.54901 237.312 5.69815C237.592 5.84493 237.808 6.07102 237.962 6.37642C238.119 6.67945 238.197 7.06534 238.197 7.53409V11H237.359V7.59091C237.359 7.15767 237.246 6.82268 237.021 6.58594C236.799 6.34683 236.49 6.22727 236.094 6.22727C235.82 6.22727 235.574 6.28527 235.356 6.40128C235.14 6.51728 234.97 6.68655 234.844 6.90909C234.721 7.13163 234.66 7.40152 234.66 7.71875ZM239.73 11V5.54545H240.568V11H239.73ZM240.156 4.63636C239.993 4.63636 239.852 4.58073 239.733 4.46946C239.617 4.35819 239.559 4.22443 239.559 4.06818C239.559 3.91193 239.617 3.77817 239.733 3.6669C239.852 3.55563 239.993 3.5 240.156 3.5C240.319 3.5 240.459 3.55563 240.575 3.6669C240.693 3.77817 240.753 3.91193 240.753 4.06818C240.753 4.22443 240.693 4.35819 240.575 4.46946C240.459 4.58073 240.319 4.63636 240.156 4.63636ZM245.967 6.76705L245.214 6.98011C245.166 6.85464 245.097 6.73272 245.004 6.61435C244.914 6.49361 244.791 6.39418 244.635 6.31605C244.479 6.23793 244.279 6.19886 244.035 6.19886C243.701 6.19886 243.423 6.2758 243.2 6.42969C242.98 6.5812 242.87 6.77415 242.87 7.00852C242.87 7.21686 242.946 7.38139 243.097 7.50213C243.249 7.62287 243.486 7.72348 243.808 7.80398L244.617 8.00284C245.105 8.12121 245.468 8.30232 245.707 8.54616C245.946 8.78764 246.066 9.09896 246.066 9.48011C246.066 9.79261 245.976 10.072 245.796 10.3182C245.619 10.5644 245.37 10.7585 245.05 10.9006C244.731 11.0426 244.359 11.1136 243.935 11.1136C243.379 11.1136 242.919 10.9929 242.554 10.7514C242.189 10.5099 241.959 10.1572 241.862 9.69318L242.657 9.49432C242.733 9.78788 242.876 10.008 243.087 10.1548C243.3 10.3016 243.578 10.375 243.921 10.375C244.312 10.375 244.622 10.2921 244.852 10.1264C245.084 9.95833 245.2 9.7571 245.2 9.52273C245.2 9.33333 245.133 9.17472 245.001 9.04688C244.868 8.91667 244.665 8.8196 244.39 8.75568L243.481 8.54261C242.981 8.42424 242.614 8.24077 242.38 7.99219C242.148 7.74124 242.032 7.42756 242.032 7.05114C242.032 6.74337 242.118 6.47112 242.291 6.23438C242.466 5.99763 242.704 5.81179 243.005 5.67685C243.308 5.5419 243.651 5.47443 244.035 5.47443C244.575 5.47443 244.998 5.5928 245.306 5.82955C245.616 6.06629 245.836 6.37879 245.967 6.76705ZM250.14 11V5.54545H250.978V11H250.14ZM250.566 4.63636C250.403 4.63636 250.262 4.58073 250.144 4.46946C250.028 4.35819 249.97 4.22443 249.97 4.06818C249.97 3.91193 250.028 3.77817 250.144 3.6669C250.262 3.55563 250.403 3.5 250.566 3.5C250.73 3.5 250.869 3.55563 250.985 3.6669C251.104 3.77817 251.163 3.91193 251.163 4.06818C251.163 4.22443 251.104 4.35819 250.985 4.46946C250.869 4.58073 250.73 4.63636 250.566 4.63636ZM256.377 6.76705L255.624 6.98011C255.577 6.85464 255.507 6.73272 255.414 6.61435C255.324 6.49361 255.201 6.39418 255.045 6.31605C254.889 6.23793 254.689 6.19886 254.445 6.19886C254.111 6.19886 253.833 6.2758 253.61 6.42969C253.39 6.5812 253.28 6.77415 253.28 7.00852C253.28 7.21686 253.356 7.38139 253.507 7.50213C253.659 7.62287 253.896 7.72348 254.218 7.80398L255.027 8.00284C255.515 8.12121 255.878 8.30232 256.118 8.54616C256.357 8.78764 256.476 9.09896 256.476 9.48011C256.476 9.79261 256.386 10.072 256.206 10.3182C256.029 10.5644 255.78 10.7585 255.461 10.9006C255.141 11.0426 254.769 11.1136 254.346 11.1136C253.789 11.1136 253.329 10.9929 252.964 10.7514C252.6 10.5099 252.369 10.1572 252.272 9.69318L253.067 9.49432C253.143 9.78788 253.286 10.008 253.497 10.1548C253.71 10.3016 253.988 10.375 254.331 10.375C254.722 10.375 255.032 10.2921 255.262 10.1264C255.494 9.95833 255.61 9.7571 255.61 9.52273C255.61 9.33333 255.543 9.17472 255.411 9.04688C255.278 8.91667 255.075 8.8196 254.8 8.75568L253.891 8.54261C253.391 8.42424 253.025 8.24077 252.79 7.99219C252.558 7.74124 252.442 7.42756 252.442 7.05114C252.442 6.74337 252.529 6.47112 252.701 6.23438C252.877 5.99763 253.114 5.81179 253.415 5.67685C253.718 5.5419 254.061 5.47443 254.445 5.47443C254.985 5.47443 255.408 5.5928 255.716 5.82955C256.026 6.06629 256.247 6.37879 256.377 6.76705ZM262.155 11.1278C261.81 11.1278 261.496 11.0627 261.214 10.9325C260.933 10.8 260.709 10.6094 260.543 10.3608C260.377 10.1098 260.295 9.80682 260.295 9.4517C260.295 9.1392 260.356 8.88589 260.479 8.69176C260.602 8.49527 260.767 8.34138 260.973 8.23011C261.179 8.11884 261.406 8.03598 261.655 7.98153C261.906 7.92472 262.158 7.87973 262.411 7.84659C262.742 7.80398 263.011 7.77202 263.217 7.75071C263.425 7.72704 263.577 7.68797 263.672 7.63352C263.769 7.57907 263.817 7.48437 263.817 7.34943V7.32102C263.817 6.97064 263.721 6.69839 263.53 6.50426C263.34 6.31013 263.053 6.21307 262.667 6.21307C262.267 6.21307 261.953 6.30066 261.726 6.47585C261.498 6.65104 261.339 6.83807 261.246 7.03693L260.451 6.75284C260.593 6.4214 260.782 6.16335 261.019 5.97869C261.258 5.79167 261.519 5.66146 261.8 5.58807C262.084 5.51231 262.364 5.47443 262.638 5.47443C262.814 5.47443 263.015 5.49574 263.242 5.53835C263.472 5.5786 263.693 5.66264 263.906 5.79048C264.122 5.91832 264.3 6.11127 264.442 6.36932C264.584 6.62737 264.655 6.97301 264.655 7.40625V11H263.817V10.2614H263.775C263.718 10.3797 263.623 10.5064 263.491 10.6413C263.358 10.7763 263.182 10.8911 262.961 10.9858C262.741 11.0805 262.473 11.1278 262.155 11.1278ZM262.283 10.375C262.615 10.375 262.894 10.3099 263.121 10.1797C263.351 10.0495 263.524 9.88139 263.64 9.67543C263.758 9.46946 263.817 9.25284 263.817 9.02557V8.25852C263.782 8.30114 263.704 8.3402 263.583 8.37571C263.465 8.40885 263.327 8.43845 263.171 8.46449C263.017 8.48816 262.867 8.50947 262.72 8.52841C262.576 8.54498 262.458 8.55919 262.368 8.57102C262.151 8.59943 261.947 8.6456 261.758 8.70952C261.571 8.77107 261.419 8.86458 261.303 8.99006C261.189 9.11316 261.133 9.28125 261.133 9.49432C261.133 9.78551 261.24 10.0057 261.456 10.1548C261.674 10.3016 261.949 10.375 262.283 10.375ZM15.7029 21.767L14.9501 21.9801C14.9028 21.8546 14.8329 21.7327 14.7406 21.6143C14.6506 21.4936 14.5275 21.3942 14.3713 21.3161C14.215 21.2379 14.015 21.1989 13.7711 21.1989C13.4373 21.1989 13.1592 21.2758 12.9366 21.4297C12.7164 21.5812 12.6064 21.7741 12.6064 22.0085C12.6064 22.2169 12.6821 22.3814 12.8336 22.5021C12.9851 22.6229 13.2219 22.7235 13.5439 22.804L14.3535 23.0028C14.8412 23.1212 15.2046 23.3023 15.4437 23.5462C15.6828 23.7876 15.8024 24.099 15.8024 24.4801C15.8024 24.7926 15.7124 25.072 15.5325 25.3182C15.3549 25.5644 15.1064 25.7585 14.7868 25.9006C14.4672 26.0426 14.0955 26.1136 13.6717 26.1136C13.1154 26.1136 12.6549 25.9929 12.2903 25.7514C11.9257 25.5099 11.6949 25.1572 11.5978 24.6932L12.3933 24.4943C12.469 24.7879 12.6123 25.008 12.823 25.1548C13.036 25.3016 13.3142 25.375 13.6575 25.375C14.0481 25.375 14.3583 25.2921 14.5879 25.1264C14.8199 24.9583 14.9359 24.7571 14.9359 24.5227C14.9359 24.3333 14.8696 24.1747 14.737 24.0469C14.6045 23.9167 14.4009 23.8196 14.1262 23.7557L13.2172 23.5426C12.7176 23.4242 12.3507 23.2408 12.1163 22.9922C11.8843 22.7412 11.7683 22.4276 11.7683 22.0511C11.7683 21.7434 11.8547 21.4711 12.0275 21.2344C12.2027 20.9976 12.4406 20.8118 12.7413 20.6768C13.0443 20.5419 13.3876 20.4744 13.7711 20.4744C14.3109 20.4744 14.7347 20.5928 15.0424 20.8295C15.3526 21.0663 15.5727 21.3788 15.7029 21.767ZM20.5014 23.7699V20.5455H21.3395V26H20.5014V25.0767H20.4446C20.3168 25.3537 20.1179 25.5893 19.848 25.7834C19.5781 25.9751 19.2372 26.071 18.8253 26.071C18.4844 26.071 18.1813 25.9964 17.9162 25.8473C17.651 25.6958 17.4427 25.4685 17.2912 25.1655C17.1397 24.8601 17.0639 24.4754 17.0639 24.0114V20.5455H17.902V23.9545C17.902 24.3523 18.0133 24.6695 18.2358 24.9062C18.4607 25.143 18.7472 25.2614 19.0952 25.2614C19.3035 25.2614 19.5154 25.2081 19.7308 25.1016C19.9486 24.995 20.1309 24.8317 20.2777 24.6115C20.4268 24.3913 20.5014 24.1108 20.5014 23.7699ZM22.9881 26V18.7273H23.8262V21.4119H23.8972C23.9587 21.3172 24.044 21.1965 24.1529 21.0497C24.2641 20.9006 24.4228 20.768 24.6287 20.652C24.8371 20.5336 25.1188 20.4744 25.4739 20.4744C25.9332 20.4744 26.338 20.5893 26.6884 20.8189C27.0388 21.0485 27.3122 21.3741 27.5087 21.7955C27.7052 22.2169 27.8034 22.714 27.8034 23.2869C27.8034 23.8646 27.7052 24.3653 27.5087 24.7891C27.3122 25.2105 27.04 25.5372 26.6919 25.7692C26.3439 25.9988 25.9426 26.1136 25.4881 26.1136C25.1377 26.1136 24.8572 26.0556 24.6465 25.9396C24.4358 25.8213 24.2736 25.6875 24.16 25.5384C24.0463 25.3868 23.9587 25.2614 23.8972 25.1619H23.7978V26H22.9881ZM23.812 23.2727C23.812 23.6847 23.8723 24.0481 23.9931 24.3629C24.1138 24.6754 24.2902 24.9205 24.5222 25.098C24.7542 25.2732 25.0383 25.3608 25.3745 25.3608C25.7248 25.3608 26.0172 25.2685 26.2516 25.0838C26.4883 24.8968 26.6659 24.6458 26.7843 24.331C26.905 24.0137 26.9654 23.661 26.9654 23.2727C26.9654 22.8892 26.9062 22.5436 26.7878 22.2358C26.6718 21.9257 26.4954 21.6806 26.2587 21.5007C26.0243 21.3184 25.7296 21.2273 25.3745 21.2273C25.0336 21.2273 24.7471 21.3137 24.5151 21.4865C24.2831 21.657 24.1079 21.8961 23.9895 22.2038C23.8712 22.5092 23.812 22.8655 23.812 23.2727ZM29.9235 22.7188V26H29.0854V18.7273H29.9235V21.3977H29.9945C30.1223 21.116 30.3141 20.8923 30.5698 20.7266C30.8278 20.5585 31.1711 20.4744 31.5996 20.4744C31.9713 20.4744 32.2968 20.549 32.5762 20.6982C32.8555 20.8449 33.0721 21.071 33.226 21.3764C33.3823 21.6795 33.4604 22.0653 33.4604 22.5341V26H32.6223V22.5909C32.6223 22.1577 32.5099 21.8227 32.285 21.5859C32.0624 21.3468 31.7535 21.2273 31.3581 21.2273C31.0835 21.2273 30.8373 21.2853 30.6195 21.4013C30.4041 21.5173 30.2336 21.6866 30.1081 21.9091C29.985 22.1316 29.9235 22.4015 29.9235 22.7188ZM37.2805 26.1136C36.755 26.1136 36.3016 25.9976 35.9205 25.7656C35.5417 25.5312 35.2493 25.2045 35.0433 24.7855C34.8397 24.3641 34.7379 23.8741 34.7379 23.3153C34.7379 22.7566 34.8397 22.2642 35.0433 21.8381C35.2493 21.4096 35.5357 21.0758 35.9027 20.8366C36.272 20.5952 36.7029 20.4744 37.1953 20.4744C37.4794 20.4744 37.7599 20.5218 38.0369 20.6165C38.3139 20.7112 38.5661 20.8651 38.7933 21.0781C39.0206 21.2888 39.2017 21.5682 39.3366 21.9162C39.4716 22.2642 39.5391 22.6927 39.5391 23.2017V23.5568H35.3345V22.8324H38.6868C38.6868 22.5246 38.6252 22.25 38.5021 22.0085C38.3814 21.767 38.2086 21.5765 37.9837 21.4368C37.7611 21.2971 37.4983 21.2273 37.1953 21.2273C36.8615 21.2273 36.5727 21.3101 36.3288 21.4759C36.0874 21.6392 35.9015 21.8523 35.7713 22.1151C35.6411 22.3778 35.576 22.6596 35.576 22.9602V23.4432C35.576 23.8551 35.647 24.2043 35.7891 24.4908C35.9335 24.7749 36.1335 24.9915 36.3892 25.1406C36.6449 25.2874 36.942 25.3608 37.2805 25.3608C37.5007 25.3608 37.6996 25.33 37.8771 25.2685C38.0571 25.2045 38.2121 25.1098 38.3423 24.9844C38.4725 24.8565 38.5732 24.6979 38.6442 24.5085L39.4538 24.7358C39.3686 25.0104 39.2254 25.2519 39.0241 25.4602C38.8229 25.6662 38.5743 25.8272 38.2784 25.9432C37.9825 26.0568 37.6499 26.1136 37.2805 26.1136ZM42.419 26.1278C42.0734 26.1278 41.7597 26.0627 41.478 25.9325C41.1963 25.8 40.9725 25.6094 40.8068 25.3608C40.6411 25.1098 40.5582 24.8068 40.5582 24.4517C40.5582 24.1392 40.6198 23.8859 40.7429 23.6918C40.866 23.4953 41.0305 23.3414 41.2365 23.2301C41.4425 23.1188 41.6697 23.036 41.9183 22.9815C42.1693 22.9247 42.4214 22.8797 42.6747 22.8466C43.0062 22.804 43.2749 22.772 43.4808 22.7507C43.6892 22.727 43.8407 22.688 43.9354 22.6335C44.0324 22.5791 44.081 22.4844 44.081 22.3494V22.321C44.081 21.9706 43.9851 21.6984 43.7933 21.5043C43.6039 21.3101 43.3163 21.2131 42.9304 21.2131C42.5303 21.2131 42.2166 21.3007 41.9893 21.4759C41.7621 21.651 41.6023 21.8381 41.5099 22.0369L40.7145 21.7528C40.8565 21.4214 41.0459 21.1634 41.2827 20.9787C41.5218 20.7917 41.7822 20.6615 42.0639 20.5881C42.348 20.5123 42.6274 20.4744 42.902 20.4744C43.0772 20.4744 43.2784 20.4957 43.5057 20.5384C43.7353 20.5786 43.9567 20.6626 44.1697 20.7905C44.3852 20.9183 44.5639 21.1113 44.706 21.3693C44.848 21.6274 44.919 21.973 44.919 22.4062V26H44.081V25.2614H44.0384C43.9815 25.3797 43.8868 25.5064 43.7543 25.6413C43.6217 25.7763 43.4453 25.8911 43.2251 25.9858C43.005 26.0805 42.7363 26.1278 42.419 26.1278ZM42.5469 25.375C42.8783 25.375 43.1577 25.3099 43.3849 25.1797C43.6146 25.0495 43.7874 24.8814 43.9034 24.6754C44.0218 24.4695 44.081 24.2528 44.081 24.0256V23.2585C44.0455 23.3011 43.9673 23.3402 43.8466 23.3757C43.7282 23.4089 43.5909 23.4384 43.4347 23.4645C43.2808 23.4882 43.1304 23.5095 42.9837 23.5284C42.8393 23.545 42.7221 23.5592 42.6321 23.571C42.4143 23.5994 42.2107 23.6456 42.0213 23.7095C41.8343 23.7711 41.6828 23.8646 41.5668 23.9901C41.4531 24.1132 41.3963 24.2812 41.3963 24.4943C41.3963 24.7855 41.504 25.0057 41.7195 25.1548C41.9373 25.3016 42.2131 25.375 42.5469 25.375ZM48.5083 26.1136C48.0538 26.1136 47.6525 25.9988 47.3045 25.7692C46.9565 25.5372 46.6842 25.2105 46.4877 24.7891C46.2913 24.3653 46.193 23.8646 46.193 23.2869C46.193 22.714 46.2913 22.2169 46.4877 21.7955C46.6842 21.3741 46.9577 21.0485 47.3081 20.8189C47.6584 20.5893 48.0633 20.4744 48.5225 20.4744C48.8777 20.4744 49.1582 20.5336 49.3642 20.652C49.5725 20.768 49.7311 20.9006 49.84 21.0497C49.9513 21.1965 50.0377 21.3172 50.0993 21.4119H50.1703V18.7273H51.0083V26H50.1987V25.1619H50.0993C50.0377 25.2614 49.9501 25.3868 49.8365 25.5384C49.7228 25.6875 49.5607 25.8213 49.35 25.9396C49.1393 26.0556 48.8587 26.1136 48.5083 26.1136ZM48.622 25.3608C48.9582 25.3608 49.2422 25.2732 49.4743 25.098C49.7063 24.9205 49.8826 24.6754 50.0034 24.3629C50.1241 24.0481 50.1845 23.6847 50.1845 23.2727C50.1845 22.8655 50.1253 22.5092 50.0069 22.2038C49.8886 21.8961 49.7134 21.657 49.4814 21.4865C49.2493 21.3137 48.9629 21.2273 48.622 21.2273C48.2669 21.2273 47.9709 21.3184 47.7342 21.5007C47.4998 21.6806 47.3234 21.9257 47.2051 22.2358C47.0891 22.5436 47.0311 22.8892 47.0311 23.2727C47.0311 23.661 47.0903 24.0137 47.2086 24.331C47.3294 24.6458 47.5069 24.8968 47.7413 25.0838C47.978 25.2685 48.2716 25.3608 48.622 25.3608ZM52.6596 26V20.5455H53.4977V26H52.6596ZM53.0858 19.6364C52.9224 19.6364 52.7815 19.5807 52.6632 19.4695C52.5472 19.3582 52.4892 19.2244 52.4892 19.0682C52.4892 18.9119 52.5472 18.7782 52.6632 18.6669C52.7815 18.5556 52.9224 18.5 53.0858 18.5C53.2491 18.5 53.3888 18.5556 53.5048 18.6669C53.6232 18.7782 53.6824 18.9119 53.6824 19.0682C53.6824 19.2244 53.6232 19.3582 53.5048 19.4695C53.3888 19.5807 53.2491 19.6364 53.0858 19.6364ZM55.8707 22.7188V26H55.0327V20.5455H55.8423V21.3977H55.9134C56.0412 21.1207 56.2353 20.8982 56.4957 20.7301C56.7562 20.5597 57.0923 20.4744 57.5043 20.4744C57.8736 20.4744 58.1967 20.5502 58.4737 20.7017C58.7507 20.8509 58.9661 21.0781 59.12 21.3835C59.2739 21.6866 59.3509 22.0701 59.3509 22.5341V26H58.5128V22.5909C58.5128 22.1624 58.4015 21.8286 58.179 21.5895C57.9564 21.348 57.651 21.2273 57.2628 21.2273C56.9953 21.2273 56.7562 21.2853 56.5455 21.4013C56.3371 21.5173 56.1726 21.6866 56.0518 21.9091C55.9311 22.1316 55.8707 22.4015 55.8707 22.7188ZM63.084 28.1591C62.6792 28.1591 62.3311 28.107 62.04 28.0028C61.7488 27.901 61.5061 27.7661 61.312 27.598C61.1202 27.4323 60.9675 27.2547 60.8539 27.0653L61.5215 26.5966C61.5972 26.696 61.6931 26.8097 61.8091 26.9375C61.9251 27.0677 62.0837 27.1802 62.285 27.2749C62.4886 27.3719 62.7549 27.4205 63.084 27.4205C63.5243 27.4205 63.8877 27.3139 64.1742 27.1009C64.4606 26.8878 64.6039 26.554 64.6039 26.0994V24.9915H64.5328C64.4713 25.0909 64.3837 25.214 64.2701 25.3608C64.1588 25.5052 63.9978 25.6342 63.7871 25.7479C63.5788 25.8591 63.2971 25.9148 62.9419 25.9148C62.5016 25.9148 62.1062 25.8106 61.7559 25.6023C61.4078 25.3939 61.132 25.0909 60.9284 24.6932C60.7272 24.2955 60.6266 23.8125 60.6266 23.2443C60.6266 22.6856 60.7248 22.1991 60.9213 21.7848C61.1178 21.3681 61.3913 21.0462 61.7417 20.8189C62.092 20.5893 62.4969 20.4744 62.9561 20.4744C63.3113 20.4744 63.593 20.5336 63.8013 20.652C64.012 20.768 64.173 20.9006 64.2843 21.0497C64.3979 21.1965 64.4855 21.3172 64.5471 21.4119H64.6323V20.5455H65.4419V26.1562C65.4419 26.625 65.3354 27.0062 65.1223 27.2997C64.9116 27.5956 64.6275 27.8123 64.2701 27.9496C63.915 28.0893 63.5196 28.1591 63.084 28.1591ZM63.0556 25.1619C63.3917 25.1619 63.6758 25.085 63.9078 24.9311C64.1399 24.7772 64.3162 24.5559 64.437 24.267C64.5577 23.9782 64.6181 23.6326 64.6181 23.2301C64.6181 22.8371 64.5589 22.4903 64.4405 22.1896C64.3221 21.889 64.147 21.6534 63.915 21.483C63.6829 21.3125 63.3965 21.2273 63.0556 21.2273C62.7005 21.2273 62.4045 21.3172 62.1678 21.4972C61.9334 21.6771 61.757 21.9186 61.6387 22.2216C61.5227 22.5246 61.4647 22.8608 61.4647 23.2301C61.4647 23.6089 61.5239 23.9439 61.6422 24.2351C61.763 24.5239 61.9405 24.7512 62.1749 24.9169C62.4116 25.0803 62.7052 25.1619 63.0556 25.1619ZM67.5868 26.0568C67.4116 26.0568 67.2613 25.9941 67.1358 25.8686C67.0104 25.7431 66.9476 25.5928 66.9476 25.4176C66.9476 25.2424 67.0104 25.0921 67.1358 24.9666C67.2613 24.8411 67.4116 24.7784 67.5868 24.7784C67.762 24.7784 67.9123 24.8411 68.0378 24.9666C68.1633 25.0921 68.226 25.2424 68.226 25.4176C68.226 25.5336 68.1964 25.6402 68.1373 25.7372C68.0804 25.8343 68.0035 25.9124 67.9064 25.9716C67.8117 26.0284 67.7052 26.0568 67.5868 26.0568ZM73.9771 26L71.9885 18.7273H72.8833L74.4032 24.6506H74.4743L76.0225 18.7273H77.0169L78.5652 24.6506H78.6362L80.1561 18.7273H81.051L79.0623 26H78.1532L76.5481 20.2045H76.4913L74.8862 26H73.9771ZM83.8137 26.1136C83.2882 26.1136 82.8348 25.9976 82.4537 25.7656C82.0749 25.5312 81.7825 25.2045 81.5765 24.7855C81.3729 24.3641 81.2711 23.8741 81.2711 23.3153C81.2711 22.7566 81.3729 22.2642 81.5765 21.8381C81.7825 21.4096 82.069 21.0758 82.4359 20.8366C82.8052 20.5952 83.2361 20.4744 83.7285 20.4744C84.0126 20.4744 84.2931 20.5218 84.5701 20.6165C84.8471 20.7112 85.0993 20.8651 85.3265 21.0781C85.5538 21.2888 85.7349 21.5682 85.8699 21.9162C86.0048 22.2642 86.0723 22.6927 86.0723 23.2017V23.5568H81.8677V22.8324H85.22C85.22 22.5246 85.1584 22.25 85.0353 22.0085C84.9146 21.767 84.7418 21.5765 84.5169 21.4368C84.2943 21.2971 84.0315 21.2273 83.7285 21.2273C83.3947 21.2273 83.1059 21.3101 82.862 21.4759C82.6206 21.6392 82.4347 21.8523 82.3045 22.1151C82.1743 22.3778 82.1092 22.6596 82.1092 22.9602V23.4432C82.1092 23.8551 82.1802 24.2043 82.3223 24.4908C82.4667 24.7749 82.6667 24.9915 82.9224 25.1406C83.1781 25.2874 83.4752 25.3608 83.8137 25.3608C84.0339 25.3608 84.2328 25.33 84.4103 25.2685C84.5903 25.2045 84.7453 25.1098 84.8755 24.9844C85.0057 24.8565 85.1064 24.6979 85.1774 24.5085L85.987 24.7358C85.9018 25.0104 85.7586 25.2519 85.5574 25.4602C85.3561 25.6662 85.1075 25.8272 84.8116 25.9432C84.5157 26.0568 84.1831 26.1136 83.8137 26.1136ZM92.3755 26.1136C91.8642 26.1136 91.4238 25.9929 91.0545 25.7514C90.6852 25.5099 90.4011 25.1773 90.2022 24.7536C90.0034 24.3298 89.9039 23.8456 89.9039 23.3011C89.9039 22.7472 90.0057 22.2583 90.2093 21.8345C90.4153 21.4084 90.7018 21.0758 91.0687 20.8366C91.438 20.5952 91.8689 20.4744 92.3613 20.4744C92.7449 20.4744 93.0905 20.5455 93.3983 20.6875C93.706 20.8295 93.9582 21.0284 94.1547 21.2841C94.3511 21.5398 94.4731 21.8381 94.5204 22.179H93.6824C93.6184 21.9304 93.4764 21.7102 93.2562 21.5185C93.0384 21.3243 92.7449 21.2273 92.3755 21.2273C92.0488 21.2273 91.7624 21.3125 91.5162 21.483C91.2723 21.651 91.0817 21.889 90.9444 22.1967C90.8095 22.5021 90.742 22.8608 90.742 23.2727C90.742 23.6941 90.8083 24.0611 90.9409 24.3736C91.0758 24.6861 91.2652 24.9287 91.5091 25.1016C91.7553 25.2744 92.0441 25.3608 92.3755 25.3608C92.5933 25.3608 92.791 25.3229 92.9686 25.2472C93.1461 25.1714 93.2965 25.0625 93.4196 24.9205C93.5427 24.7784 93.6303 24.608 93.6824 24.4091H94.5204C94.4731 24.7311 94.3559 25.0211 94.1689 25.2791C93.9842 25.5348 93.7392 25.7384 93.4338 25.8899C93.1307 26.0391 92.778 26.1136 92.3755 26.1136ZM97.3507 26.1278C97.005 26.1278 96.6913 26.0627 96.4096 25.9325C96.1279 25.8 95.9042 25.6094 95.7385 25.3608C95.5727 25.1098 95.4899 24.8068 95.4899 24.4517C95.4899 24.1392 95.5514 23.8859 95.6745 23.6918C95.7976 23.4953 95.9622 23.3414 96.1681 23.2301C96.3741 23.1188 96.6014 23.036 96.85 22.9815C97.1009 22.9247 97.353 22.8797 97.6064 22.8466C97.9378 22.804 98.2065 22.772 98.4125 22.7507C98.6208 22.727 98.7723 22.688 98.867 22.6335C98.9641 22.5791 99.0126 22.4844 99.0126 22.3494V22.321C99.0126 21.9706 98.9167 21.6984 98.725 21.5043C98.5356 21.3101 98.2479 21.2131 97.862 21.2131C97.4619 21.2131 97.1483 21.3007 96.921 21.4759C96.6937 21.651 96.5339 21.8381 96.4416 22.0369L95.6461 21.7528C95.7882 21.4214 95.9776 21.1634 96.2143 20.9787C96.4534 20.7917 96.7138 20.6615 96.9956 20.5881C97.2797 20.5123 97.559 20.4744 97.8336 20.4744C98.0088 20.4744 98.21 20.4957 98.4373 20.5384C98.667 20.5786 98.8883 20.6626 99.1014 20.7905C99.3168 20.9183 99.4956 21.1113 99.6376 21.3693C99.7797 21.6274 99.8507 21.973 99.8507 22.4062V26H99.0126V25.2614H98.97C98.9132 25.3797 98.8185 25.5064 98.6859 25.6413C98.5533 25.7763 98.377 25.8911 98.1568 25.9858C97.9366 26.0805 97.6679 26.1278 97.3507 26.1278ZM97.4785 25.375C97.81 25.375 98.0893 25.3099 98.3166 25.1797C98.5462 25.0495 98.719 24.8814 98.835 24.6754C98.9534 24.4695 99.0126 24.2528 99.0126 24.0256V23.2585C98.9771 23.3011 98.899 23.3402 98.7782 23.3757C98.6599 23.4089 98.5225 23.4384 98.3663 23.4645C98.2124 23.4882 98.0621 23.5095 97.9153 23.5284C97.7709 23.545 97.6537 23.5592 97.5637 23.571C97.3459 23.5994 97.1423 23.6456 96.9529 23.7095C96.7659 23.7711 96.6144 23.8646 96.4984 23.9901C96.3848 24.1132 96.3279 24.2812 96.3279 24.4943C96.3279 24.7855 96.4357 25.0057 96.6511 25.1548C96.8689 25.3016 97.1447 25.375 97.4785 25.375ZM102.218 22.7188V26H101.38V20.5455H102.19V21.3977H102.261C102.389 21.1207 102.583 20.8982 102.843 20.7301C103.104 20.5597 103.44 20.4744 103.852 20.4744C104.221 20.4744 104.544 20.5502 104.821 20.7017C105.098 20.8509 105.314 21.0781 105.468 21.3835C105.622 21.6866 105.699 22.0701 105.699 22.5341V26H104.86V22.5909C104.86 22.1624 104.749 21.8286 104.527 21.5895C104.304 21.348 103.999 21.2273 103.61 21.2273C103.343 21.2273 103.104 21.2853 102.893 21.4013C102.685 21.5173 102.52 21.6866 102.4 21.9091C102.279 22.1316 102.218 22.4015 102.218 22.7188ZM112.258 26.1136C111.747 26.1136 111.307 25.9929 110.937 25.7514C110.568 25.5099 110.284 25.1773 110.085 24.7536C109.886 24.3298 109.787 23.8456 109.787 23.3011C109.787 22.7472 109.889 22.2583 110.092 21.8345C110.298 21.4084 110.585 21.0758 110.952 20.8366C111.321 20.5952 111.752 20.4744 112.244 20.4744C112.628 20.4744 112.973 20.5455 113.281 20.6875C113.589 20.8295 113.841 21.0284 114.037 21.2841C114.234 21.5398 114.356 21.8381 114.403 22.179H113.565C113.501 21.9304 113.359 21.7102 113.139 21.5185C112.921 21.3243 112.628 21.2273 112.258 21.2273C111.932 21.2273 111.645 21.3125 111.399 21.483C111.155 21.651 110.965 21.889 110.827 22.1967C110.692 22.5021 110.625 22.8608 110.625 23.2727C110.625 23.6941 110.691 24.0611 110.824 24.3736C110.959 24.6861 111.148 24.9287 111.392 25.1016C111.638 25.2744 111.927 25.3608 112.258 25.3608C112.476 25.3608 112.674 25.3229 112.851 25.2472C113.029 25.1714 113.179 25.0625 113.302 24.9205C113.425 24.7784 113.513 24.608 113.565 24.4091H114.403C114.356 24.7311 114.239 25.0211 114.052 25.2791C113.867 25.5348 113.622 25.7384 113.317 25.8899C113.014 26.0391 112.661 26.1136 112.258 26.1136ZM117.844 26.1136C117.352 26.1136 116.92 25.9964 116.548 25.7621C116.179 25.5277 115.89 25.1998 115.682 24.7784C115.476 24.357 115.373 23.8646 115.373 23.3011C115.373 22.733 115.476 22.237 115.682 21.8132C115.89 21.3894 116.179 21.0604 116.548 20.826C116.92 20.5916 117.352 20.4744 117.844 20.4744C118.337 20.4744 118.768 20.5916 119.137 20.826C119.509 21.0604 119.797 21.3894 120.003 21.8132C120.212 22.237 120.316 22.733 120.316 23.3011C120.316 23.8646 120.212 24.357 120.003 24.7784C119.797 25.1998 119.509 25.5277 119.137 25.7621C118.768 25.9964 118.337 26.1136 117.844 26.1136ZM117.844 25.3608C118.218 25.3608 118.526 25.2649 118.768 25.0732C119.009 24.8814 119.188 24.6293 119.304 24.3168C119.42 24.0043 119.478 23.6657 119.478 23.3011C119.478 22.9366 119.42 22.5968 119.304 22.282C119.188 21.9671 119.009 21.7126 118.768 21.5185C118.526 21.3243 118.218 21.2273 117.844 21.2273C117.47 21.2273 117.162 21.3243 116.921 21.5185C116.68 21.7126 116.501 21.9671 116.385 22.282C116.269 22.5968 116.211 22.9366 116.211 23.3011C116.211 23.6657 116.269 24.0043 116.385 24.3168C116.501 24.6293 116.68 24.8814 116.921 25.0732C117.162 25.2649 117.47 25.3608 117.844 25.3608ZM122.433 22.7188V26H121.595V20.5455H122.405V21.3977H122.476C122.604 21.1207 122.798 20.8982 123.058 20.7301C123.319 20.5597 123.655 20.4744 124.067 20.4744C124.436 20.4744 124.759 20.5502 125.036 20.7017C125.313 20.8509 125.529 21.0781 125.683 21.3835C125.836 21.6866 125.913 22.0701 125.913 22.5341V26H125.075V22.5909C125.075 22.1624 124.964 21.8286 124.741 21.5895C124.519 21.348 124.214 21.2273 123.825 21.2273C123.558 21.2273 123.319 21.2853 123.108 21.4013C122.9 21.5173 122.735 21.6866 122.614 21.9091C122.494 22.1316 122.433 22.4015 122.433 22.7188ZM129.817 20.5455V21.2557H126.99V20.5455H129.817ZM127.814 19.2386H128.652V24.4375C128.652 24.6742 128.686 24.8518 128.755 24.9702C128.826 25.0862 128.916 25.1643 129.025 25.2045C129.136 25.2424 129.253 25.2614 129.377 25.2614C129.469 25.2614 129.545 25.2566 129.604 25.2472C129.663 25.2353 129.71 25.2259 129.746 25.2188L129.916 25.9716C129.86 25.9929 129.78 26.0142 129.678 26.0355C129.577 26.0592 129.448 26.071 129.291 26.071C129.055 26.071 128.823 26.0201 128.595 25.9183C128.37 25.8165 128.183 25.6615 128.034 25.4531C127.887 25.2448 127.814 24.982 127.814 24.6648V19.2386ZM131.078 26V20.5455H131.916V26H131.078ZM131.504 19.6364C131.34 19.6364 131.2 19.5807 131.081 19.4695C130.965 19.3582 130.907 19.2244 130.907 19.0682C130.907 18.9119 130.965 18.7782 131.081 18.6669C131.2 18.5556 131.34 18.5 131.504 18.5C131.667 18.5 131.807 18.5556 131.923 18.6669C132.041 18.7782 132.1 18.9119 132.1 19.0682C132.1 19.2244 132.041 19.3582 131.923 19.4695C131.807 19.5807 131.667 19.6364 131.504 19.6364ZM134.289 22.7188V26H133.451V20.5455H134.26V21.3977H134.331C134.459 21.1207 134.653 20.8982 134.914 20.7301C135.174 20.5597 135.51 20.4744 135.922 20.4744C136.292 20.4744 136.615 20.5502 136.892 20.7017C137.169 20.8509 137.384 21.0781 137.538 21.3835C137.692 21.6866 137.769 22.0701 137.769 22.5341V26H136.931V22.5909C136.931 22.1624 136.819 21.8286 136.597 21.5895C136.374 21.348 136.069 21.2273 135.681 21.2273C135.413 21.2273 135.174 21.2853 134.963 21.4013C134.755 21.5173 134.591 21.6866 134.47 21.9091C134.349 22.1316 134.289 22.4015 134.289 22.7188ZM142.738 23.7699V20.5455H143.576V26H142.738V25.0767H142.681C142.553 25.3537 142.354 25.5893 142.084 25.7834C141.814 25.9751 141.474 26.071 141.062 26.071C140.721 26.071 140.418 25.9964 140.153 25.8473C139.887 25.6958 139.679 25.4685 139.528 25.1655C139.376 24.8601 139.3 24.4754 139.3 24.0114V20.5455H140.138V23.9545C140.138 24.3523 140.25 24.6695 140.472 24.9062C140.697 25.143 140.983 25.2614 141.331 25.2614C141.54 25.2614 141.752 25.2081 141.967 25.1016C142.185 24.995 142.367 24.8317 142.514 24.6115C142.663 24.3913 142.738 24.1108 142.738 23.7699ZM147.398 26.1136C146.872 26.1136 146.419 25.9976 146.038 25.7656C145.659 25.5312 145.366 25.2045 145.161 24.7855C144.957 24.3641 144.855 23.8741 144.855 23.3153C144.855 22.7566 144.957 22.2642 145.161 21.8381C145.366 21.4096 145.653 21.0758 146.02 20.8366C146.389 20.5952 146.82 20.4744 147.312 20.4744C147.597 20.4744 147.877 20.5218 148.154 20.6165C148.431 20.7112 148.683 20.8651 148.911 21.0781C149.138 21.2888 149.319 21.5682 149.454 21.9162C149.589 22.2642 149.656 22.6927 149.656 23.2017V23.5568H145.452V22.8324H148.804C148.804 22.5246 148.742 22.25 148.619 22.0085C148.499 21.767 148.326 21.5765 148.101 21.4368C147.878 21.2971 147.616 21.2273 147.312 21.2273C146.979 21.2273 146.69 21.3101 146.446 21.4759C146.205 21.6392 146.019 21.8523 145.888 22.1151C145.758 22.3778 145.693 22.6596 145.693 22.9602V23.4432C145.693 23.8551 145.764 24.2043 145.906 24.4908C146.051 24.7749 146.251 24.9915 146.506 25.1406C146.762 25.2874 147.059 25.3608 147.398 25.3608C147.618 25.3608 147.817 25.33 147.994 25.2685C148.174 25.2045 148.329 25.1098 148.46 24.9844C148.59 24.8565 148.69 24.6979 148.761 24.5085L149.571 24.7358C149.486 25.0104 149.343 25.2519 149.141 25.4602C148.94 25.6662 148.692 25.8272 148.396 25.9432C148.1 26.0568 147.767 26.1136 147.398 26.1136ZM154.979 26L153.317 20.5455H154.198L155.377 24.7216H155.434L156.599 20.5455H157.494L158.644 24.7074H158.701L159.88 20.5455H160.761L159.099 26H158.275L157.082 21.8097H156.996L155.803 26H154.979ZM161.869 26V20.5455H162.707V26H161.869ZM162.295 19.6364C162.131 19.6364 161.991 19.5807 161.872 19.4695C161.756 19.3582 161.698 19.2244 161.698 19.0682C161.698 18.9119 161.756 18.7782 161.872 18.6669C161.991 18.5556 162.131 18.5 162.295 18.5C162.458 18.5 162.598 18.5556 162.714 18.6669C162.832 18.7782 162.891 18.9119 162.891 19.0682C162.891 19.2244 162.832 19.3582 162.714 19.4695C162.598 19.5807 162.458 19.6364 162.295 19.6364ZM166.614 20.5455V21.2557H163.787V20.5455H166.614ZM164.611 19.2386H165.449V24.4375C165.449 24.6742 165.483 24.8518 165.552 24.9702C165.623 25.0862 165.713 25.1643 165.822 25.2045C165.933 25.2424 166.05 25.2614 166.173 25.2614C166.266 25.2614 166.342 25.2566 166.401 25.2472C166.46 25.2353 166.507 25.2259 166.543 25.2188L166.713 25.9716C166.656 25.9929 166.577 26.0142 166.475 26.0355C166.374 26.0592 166.244 26.071 166.088 26.071C165.852 26.071 165.619 26.0201 165.392 25.9183C165.167 25.8165 164.98 25.6615 164.831 25.4531C164.684 25.2448 164.611 24.982 164.611 24.6648V19.2386ZM168.83 22.7188V26H167.992V18.7273H168.83V21.3977H168.901C169.029 21.116 169.22 20.8923 169.476 20.7266C169.734 20.5585 170.077 20.4744 170.506 20.4744C170.878 20.4744 171.203 20.549 171.482 20.6982C171.762 20.8449 171.978 21.071 172.132 21.3764C172.289 21.6795 172.367 22.0653 172.367 22.5341V26H171.529V22.5909C171.529 22.1577 171.416 21.8227 171.191 21.5859C170.969 21.3468 170.66 21.2273 170.264 21.2273C169.99 21.2273 169.744 21.2853 169.526 21.4013C169.31 21.5173 169.14 21.6866 169.014 21.9091C168.891 22.1316 168.83 22.4015 168.83 22.7188ZM173.9 26V20.5455H174.71V21.3977H174.781C174.894 21.1065 175.078 20.8804 175.331 20.7195C175.584 20.5561 175.888 20.4744 176.244 20.4744C176.603 20.4744 176.903 20.5561 177.142 20.7195C177.384 20.8804 177.572 21.1065 177.707 21.3977H177.763C177.903 21.116 178.113 20.8923 178.392 20.7266C178.671 20.5585 179.006 20.4744 179.397 20.4744C179.885 20.4744 180.284 20.6271 180.594 20.9325C180.904 21.2356 181.059 21.7079 181.059 22.3494V26H180.221V22.3494C180.221 21.947 180.111 21.6593 179.891 21.4865C179.67 21.3137 179.411 21.2273 179.113 21.2273C178.729 21.2273 178.432 21.3433 178.222 21.5753C178.011 21.8049 177.906 22.0961 177.906 22.4489V26H177.053V22.2642C177.053 21.9541 176.953 21.7043 176.751 21.5149C176.55 21.3232 176.291 21.2273 175.974 21.2273C175.756 21.2273 175.552 21.2853 175.363 21.4013C175.176 21.5173 175.024 21.6783 174.908 21.8842C174.795 22.0878 174.738 22.3234 174.738 22.5909V26H173.9ZM184.807 26.1136C184.315 26.1136 183.883 25.9964 183.511 25.7621C183.142 25.5277 182.853 25.1998 182.645 24.7784C182.439 24.357 182.336 23.8646 182.336 23.3011C182.336 22.733 182.439 22.237 182.645 21.8132C182.853 21.3894 183.142 21.0604 183.511 20.826C183.883 20.5916 184.315 20.4744 184.807 20.4744C185.3 20.4744 185.73 20.5916 186.1 20.826C186.471 21.0604 186.76 21.3894 186.966 21.8132C187.175 22.237 187.279 22.733 187.279 23.3011C187.279 23.8646 187.175 24.357 186.966 24.7784C186.76 25.1998 186.471 25.5277 186.1 25.7621C185.73 25.9964 185.3 26.1136 184.807 26.1136ZM184.807 25.3608C185.181 25.3608 185.489 25.2649 185.73 25.0732C185.972 24.8814 186.151 24.6293 186.267 24.3168C186.383 24.0043 186.441 23.6657 186.441 23.3011C186.441 22.9366 186.383 22.5968 186.267 22.282C186.151 21.9671 185.972 21.7126 185.73 21.5185C185.489 21.3243 185.181 21.2273 184.807 21.2273C184.433 21.2273 184.125 21.3243 183.884 21.5185C183.642 21.7126 183.464 21.9671 183.348 22.282C183.232 22.5968 183.174 22.9366 183.174 23.3011C183.174 23.6657 183.232 24.0043 183.348 24.3168C183.464 24.6293 183.642 24.8814 183.884 25.0732C184.125 25.2649 184.433 25.3608 184.807 25.3608ZM188.558 26V20.5455H189.368V21.3693H189.425C189.524 21.0994 189.704 20.8804 189.964 20.7124C190.225 20.5443 190.518 20.4602 190.845 20.4602C190.907 20.4602 190.983 20.4614 191.076 20.4638C191.168 20.4661 191.238 20.4697 191.285 20.4744V21.3267C191.257 21.3196 191.192 21.3089 191.09 21.2947C190.991 21.2782 190.885 21.2699 190.774 21.2699C190.509 21.2699 190.272 21.3255 190.064 21.4368C189.858 21.5457 189.694 21.6972 189.574 21.8913C189.455 22.0831 189.396 22.3021 189.396 22.5483V26H188.558ZM194.4 26.1136C193.874 26.1136 193.421 25.9976 193.04 25.7656C192.661 25.5312 192.368 25.2045 192.162 24.7855C191.959 24.3641 191.857 23.8741 191.857 23.3153C191.857 22.7566 191.959 22.2642 192.162 21.8381C192.368 21.4096 192.655 21.0758 193.022 20.8366C193.391 20.5952 193.822 20.4744 194.314 20.4744C194.599 20.4744 194.879 20.5218 195.156 20.6165C195.433 20.7112 195.685 20.8651 195.912 21.0781C196.14 21.2888 196.321 21.5682 196.456 21.9162C196.591 22.2642 196.658 22.6927 196.658 23.2017V23.5568H192.454V22.8324H195.806C195.806 22.5246 195.744 22.25 195.621 22.0085C195.501 21.767 195.328 21.5765 195.103 21.4368C194.88 21.2971 194.617 21.2273 194.314 21.2273C193.981 21.2273 193.692 21.3101 193.448 21.4759C193.206 21.6392 193.021 21.8523 192.89 22.1151C192.76 22.3778 192.695 22.6596 192.695 22.9602V23.4432C192.695 23.8551 192.766 24.2043 192.908 24.4908C193.053 24.7749 193.253 24.9915 193.508 25.1406C193.764 25.2874 194.061 25.3608 194.4 25.3608C194.62 25.3608 194.819 25.33 194.996 25.2685C195.176 25.2045 195.331 25.1098 195.461 24.9844C195.592 24.8565 195.692 24.6979 195.763 24.5085L196.573 24.7358C196.488 25.0104 196.345 25.2519 196.143 25.4602C195.942 25.6662 195.693 25.8272 195.398 25.9432C195.102 26.0568 194.769 26.1136 194.4 26.1136ZM202.961 26.1136C202.45 26.1136 202.01 25.9929 201.64 25.7514C201.271 25.5099 200.987 25.1773 200.788 24.7536C200.589 24.3298 200.49 23.8456 200.49 23.3011C200.49 22.7472 200.592 22.2583 200.795 21.8345C201.001 21.4084 201.288 21.0758 201.655 20.8366C202.024 20.5952 202.455 20.4744 202.947 20.4744C203.331 20.4744 203.676 20.5455 203.984 20.6875C204.292 20.8295 204.544 21.0284 204.741 21.2841C204.937 21.5398 205.059 21.8381 205.106 22.179H204.268C204.204 21.9304 204.062 21.7102 203.842 21.5185C203.624 21.3243 203.331 21.2273 202.961 21.2273C202.635 21.2273 202.348 21.3125 202.102 21.483C201.858 21.651 201.668 21.889 201.53 22.1967C201.395 22.5021 201.328 22.8608 201.328 23.2727C201.328 23.6941 201.394 24.0611 201.527 24.3736C201.662 24.6861 201.851 24.9287 202.095 25.1016C202.341 25.2744 202.63 25.3608 202.961 25.3608C203.179 25.3608 203.377 25.3229 203.555 25.2472C203.732 25.1714 203.882 25.0625 204.006 24.9205C204.129 24.7784 204.216 24.608 204.268 24.4091H205.106C205.059 24.7311 204.942 25.0211 204.755 25.2791C204.57 25.5348 204.325 25.7384 204.02 25.8899C203.717 26.0391 203.364 26.1136 202.961 26.1136ZM208.547 26.1136C208.055 26.1136 207.623 25.9964 207.251 25.7621C206.882 25.5277 206.593 25.1998 206.385 24.7784C206.179 24.357 206.076 23.8646 206.076 23.3011C206.076 22.733 206.179 22.237 206.385 21.8132C206.593 21.3894 206.882 21.0604 207.251 20.826C207.623 20.5916 208.055 20.4744 208.547 20.4744C209.04 20.4744 209.471 20.5916 209.84 20.826C210.212 21.0604 210.501 21.3894 210.706 21.8132C210.915 22.237 211.019 22.733 211.019 23.3011C211.019 23.8646 210.915 24.357 210.706 24.7784C210.501 25.1998 210.212 25.5277 209.84 25.7621C209.471 25.9964 209.04 26.1136 208.547 26.1136ZM208.547 25.3608C208.921 25.3608 209.229 25.2649 209.471 25.0732C209.712 24.8814 209.891 24.6293 210.007 24.3168C210.123 24.0043 210.181 23.6657 210.181 23.3011C210.181 22.9366 210.123 22.5968 210.007 22.282C209.891 21.9671 209.712 21.7126 209.471 21.5185C209.229 21.3243 208.921 21.2273 208.547 21.2273C208.173 21.2273 207.866 21.3243 207.624 21.5185C207.383 21.7126 207.204 21.9671 207.088 22.282C206.972 22.5968 206.914 22.9366 206.914 23.3011C206.914 23.6657 206.972 24.0043 207.088 24.3168C207.204 24.6293 207.383 24.8814 207.624 25.0732C207.866 25.2649 208.173 25.3608 208.547 25.3608ZM213.136 22.7188V26H212.298V20.5455H213.108V21.3977H213.179C213.307 21.1207 213.501 20.8982 213.761 20.7301C214.022 20.5597 214.358 20.4744 214.77 20.4744C215.139 20.4744 215.462 20.5502 215.739 20.7017C216.016 20.8509 216.232 21.0781 216.386 21.3835C216.54 21.6866 216.616 22.0701 216.616 22.5341V26H215.778V22.5909C215.778 22.1624 215.667 21.8286 215.445 21.5895C215.222 21.348 214.917 21.2273 214.528 21.2273C214.261 21.2273 214.022 21.2853 213.811 21.4013C213.603 21.5173 213.438 21.6866 213.317 21.9091C213.197 22.1316 213.136 22.4015 213.136 22.7188ZM220.52 20.5455V21.2557H217.693V20.5455H220.52ZM218.517 19.2386H219.355V24.4375C219.355 24.6742 219.39 24.8518 219.458 24.9702C219.529 25.0862 219.619 25.1643 219.728 25.2045C219.839 25.2424 219.957 25.2614 220.08 25.2614C220.172 25.2614 220.248 25.2566 220.307 25.2472C220.366 25.2353 220.414 25.2259 220.449 25.2188L220.619 25.9716C220.563 25.9929 220.483 26.0142 220.382 26.0355C220.28 26.0592 220.151 26.071 219.994 26.071C219.758 26.071 219.526 26.0201 219.298 25.9183C219.074 25.8165 218.887 25.6615 218.737 25.4531C218.591 25.2448 218.517 24.982 218.517 24.6648V19.2386ZM224.009 26.1136C223.483 26.1136 223.03 25.9976 222.649 25.7656C222.27 25.5312 221.978 25.2045 221.772 24.7855C221.568 24.3641 221.466 23.8741 221.466 23.3153C221.466 22.7566 221.568 22.2642 221.772 21.8381C221.978 21.4096 222.264 21.0758 222.631 20.8366C223.001 20.5952 223.431 20.4744 223.924 20.4744C224.208 20.4744 224.488 20.5218 224.765 20.6165C225.042 20.7112 225.295 20.8651 225.522 21.0781C225.749 21.2888 225.93 21.5682 226.065 21.9162C226.2 22.2642 226.268 22.6927 226.268 23.2017V23.5568H222.063V22.8324H225.415C225.415 22.5246 225.354 22.25 225.231 22.0085C225.11 21.767 224.937 21.5765 224.712 21.4368C224.49 21.2971 224.227 21.2273 223.924 21.2273C223.59 21.2273 223.301 21.3101 223.057 21.4759C222.816 21.6392 222.63 21.8523 222.5 22.1151C222.37 22.3778 222.305 22.6596 222.305 22.9602V23.4432C222.305 23.8551 222.376 24.2043 222.518 24.4908C222.662 24.7749 222.862 24.9915 223.118 25.1406C223.373 25.2874 223.671 25.3608 224.009 25.3608C224.229 25.3608 224.428 25.33 224.606 25.2685C224.786 25.2045 224.941 25.1098 225.071 24.9844C225.201 24.8565 225.302 24.6979 225.373 24.5085L226.182 24.7358C226.097 25.0104 225.954 25.2519 225.753 25.4602C225.551 25.6662 225.303 25.8272 225.007 25.9432C224.711 26.0568 224.378 26.1136 224.009 26.1136ZM228.381 22.7188V26H227.542V20.5455H228.352V21.3977H228.423C228.551 21.1207 228.745 20.8982 229.006 20.7301C229.266 20.5597 229.602 20.4744 230.014 20.4744C230.383 20.4744 230.706 20.5502 230.983 20.7017C231.26 20.8509 231.476 21.0781 231.63 21.3835C231.784 21.6866 231.861 22.0701 231.861 22.5341V26H231.023V22.5909C231.023 22.1624 230.911 21.8286 230.689 21.5895C230.466 21.348 230.161 21.2273 229.773 21.2273C229.505 21.2273 229.266 21.2853 229.055 21.4013C228.847 21.5173 228.682 21.6866 228.562 21.9091C228.441 22.1316 228.381 22.4015 228.381 22.7188ZM235.764 20.5455V21.2557H232.938V20.5455H235.764ZM233.761 19.2386H234.599V24.4375C234.599 24.6742 234.634 24.8518 234.702 24.9702C234.773 25.0862 234.863 25.1643 234.972 25.2045C235.084 25.2424 235.201 25.2614 235.324 25.2614C235.416 25.2614 235.492 25.2566 235.551 25.2472C235.61 25.2353 235.658 25.2259 235.693 25.2188L235.864 25.9716C235.807 25.9929 235.728 26.0142 235.626 26.0355C235.524 26.0592 235.395 26.071 235.239 26.071C235.002 26.071 234.77 26.0201 234.543 25.9183C234.318 25.8165 234.131 25.6615 233.982 25.4531C233.835 25.2448 233.761 24.982 233.761 24.6648V19.2386ZM240.675 22.7188V26H239.837V18.7273H240.675V21.3977H240.746C240.874 21.116 241.066 20.8923 241.322 20.7266C241.58 20.5585 241.923 20.4744 242.352 20.4744C242.723 20.4744 243.049 20.549 243.328 20.6982C243.607 20.8449 243.824 21.071 243.978 21.3764C244.134 21.6795 244.212 22.0653 244.212 22.5341V26H243.374V22.5909C243.374 22.1577 243.262 21.8227 243.037 21.5859C242.814 21.3468 242.505 21.2273 242.11 21.2273C241.835 21.2273 241.589 21.2853 241.371 21.4013C241.156 21.5173 240.986 21.6866 240.86 21.9091C240.737 22.1316 240.675 22.4015 240.675 22.7188ZM248.032 26.1136C247.507 26.1136 247.054 25.9976 246.672 25.7656C246.294 25.5312 246.001 25.2045 245.795 24.7855C245.592 24.3641 245.49 23.8741 245.49 23.3153C245.49 22.7566 245.592 22.2642 245.795 21.8381C246.001 21.4096 246.288 21.0758 246.655 20.8366C247.024 20.5952 247.455 20.4744 247.947 20.4744C248.231 20.4744 248.512 20.5218 248.789 20.6165C249.066 20.7112 249.318 20.8651 249.545 21.0781C249.773 21.2888 249.954 21.5682 250.089 21.9162C250.224 22.2642 250.291 22.6927 250.291 23.2017V23.5568H246.086V22.8324H249.439C249.439 22.5246 249.377 22.25 249.254 22.0085C249.133 21.767 248.961 21.5765 248.736 21.4368C248.513 21.2971 248.25 21.2273 247.947 21.2273C247.613 21.2273 247.325 21.3101 247.081 21.4759C246.839 21.6392 246.653 21.8523 246.523 22.1151C246.393 22.3778 246.328 22.6596 246.328 22.9602V23.4432C246.328 23.8551 246.399 24.2043 246.541 24.4908C246.685 24.7749 246.885 24.9915 247.141 25.1406C247.397 25.2874 247.694 25.3608 248.032 25.3608C248.253 25.3608 248.452 25.33 248.629 25.2685C248.809 25.2045 248.964 25.1098 249.094 24.9844C249.224 24.8565 249.325 24.6979 249.396 24.5085L250.206 24.7358C250.121 25.0104 249.977 25.2519 249.776 25.4602C249.575 25.6662 249.326 25.8272 249.03 25.9432C248.734 26.0568 248.402 26.1136 248.032 26.1136ZM251.566 26V20.5455H252.376V21.3693H252.432C252.532 21.0994 252.712 20.8804 252.972 20.7124C253.233 20.5443 253.526 20.4602 253.853 20.4602C253.914 20.4602 253.991 20.4614 254.084 20.4638C254.176 20.4661 254.246 20.4697 254.293 20.4744V21.3267C254.265 21.3196 254.2 21.3089 254.098 21.2947C253.998 21.2782 253.893 21.2699 253.782 21.2699C253.517 21.2699 253.28 21.3255 253.072 21.4368C252.866 21.5457 252.702 21.6972 252.581 21.8913C252.463 22.0831 252.404 22.3021 252.404 22.5483V26H251.566ZM257.407 26.1136C256.882 26.1136 256.429 25.9976 256.047 25.7656C255.669 25.5312 255.376 25.2045 255.17 24.7855C254.967 24.3641 254.865 23.8741 254.865 23.3153C254.865 22.7566 254.967 22.2642 255.17 21.8381C255.376 21.4096 255.663 21.0758 256.03 20.8366C256.399 20.5952 256.83 20.4744 257.322 20.4744C257.606 20.4744 257.887 20.5218 258.164 20.6165C258.441 20.7112 258.693 20.8651 258.92 21.0781C259.148 21.2888 259.329 21.5682 259.464 21.9162C259.599 22.2642 259.666 22.6927 259.666 23.2017V23.5568H255.461V22.8324H258.814C258.814 22.5246 258.752 22.25 258.629 22.0085C258.508 21.767 258.336 21.5765 258.111 21.4368C257.888 21.2971 257.625 21.2273 257.322 21.2273C256.988 21.2273 256.7 21.3101 256.456 21.4759C256.214 21.6392 256.028 21.8523 255.898 22.1151C255.768 22.3778 255.703 22.6596 255.703 22.9602V23.4432C255.703 23.8551 255.774 24.2043 255.916 24.4908C256.06 24.7749 256.26 24.9915 256.516 25.1406C256.772 25.2874 257.069 25.3608 257.407 25.3608C257.628 25.3608 257.827 25.33 258.004 25.2685C258.184 25.2045 258.339 25.1098 258.469 24.9844C258.599 24.8565 258.7 24.6979 258.771 24.5085L259.581 24.7358C259.496 25.0104 259.352 25.2519 259.151 25.4602C258.95 25.6662 258.701 25.8272 258.405 25.9432C258.109 26.0568 257.777 26.1136 257.407 26.1136ZM261.552 26.0568C261.376 26.0568 261.226 25.9941 261.101 25.8686C260.975 25.7431 260.912 25.5928 260.912 25.4176C260.912 25.2424 260.975 25.0921 261.101 24.9666C261.226 24.8411 261.376 24.7784 261.552 24.7784C261.727 24.7784 261.877 24.8411 262.003 24.9666C262.128 25.0921 262.191 25.2424 262.191 25.4176C262.191 25.5336 262.161 25.6402 262.102 25.7372C262.045 25.8343 261.968 25.9124 261.871 25.9716C261.777 26.0284 261.67 26.0568 261.552 26.0568Z" fill="#130C49"/>
</g>
<defs>
<clipPath id="clip0_7703_261">
<rect width="278.928" height="30" fill="white"/>
</clipPath>
</defs>
</svg>
