<svg width="42" height="41" viewBox="0 0 42 41" fill="none" xmlns="http://www.w3.org/2000/svg">
<path d="M32.8242 36.1674C37.6395 32.4835 40.5287 26.7567 40.5287 20.617C40.5287 14.9228 38.0444 9.57641 33.8311 5.89258" stroke="#130C49" stroke-miterlimit="10"/>
<path d="M1.84268 14.9443C1.28454 16.7591 1 18.6716 1 20.6276C1 27.6367 4.76469 34.1133 10.8823 37.6232C16.6606 40.9376 23.7085 41.1223 29.6291 38.1666" stroke="#130C49" stroke-miterlimit="10"/>
<path d="M30.6469 3.63247C24.5293 0.12251 16.9999 0.12251 10.8823 3.63247C7.82899 5.38202 5.35568 7.88137 3.64844 10.8154" stroke="#130C49" stroke-miterlimit="10"/>
<path d="M24.9926 11H18.4961V28.7669H24.9926V11Z" fill="white" stroke="#130C49" stroke-width="0.95" stroke-miterlimit="10"/>
<path d="M31.4887 17.7197H24.9922V28.7667H31.4887V17.7197Z" fill="white" stroke="#130C49" stroke-width="0.95" stroke-miterlimit="10"/>
<path d="M18.4965 21.9766H12V28.7563H18.4965V21.9766Z" fill="white" stroke="#130C49" stroke-width="0.95" stroke-miterlimit="10"/>
<path d="M11 16C12.6569 16 14 14.6569 14 13C14 11.3431 12.6569 10 11 10C9.34315 10 8 11.3431 8 13C8 14.6569 9.34315 16 11 16Z" fill="#61BD73"/>
</svg>
