<svg width="55" height="58" viewBox="0 0 55 58" fill="none" xmlns="http://www.w3.org/2000/svg">
<g id="education-icon-3">
<path id="Vector" d="M36.72 20.4102H0V57.1302H36.72V20.4102Z" fill="#61BD73"/>
<g id="Group 2838">
<path id="Vector_2" d="M54.29 35.5H25V0H54.29V35.5ZM26.5 34H52.79V1.5H26.5V34Z" fill="#130C49"/>
<path id="Vector_3" d="M38.4319 14.6194C38.2019 14.6194 37.9819 14.5094 37.8419 14.3294L34.3619 9.91943C34.1019 9.58943 34.1619 9.11943 34.4819 8.86943C34.8119 8.60943 35.2819 8.66943 35.5319 8.98943L38.4219 12.6494L43.7319 5.91943C43.9919 5.59943 44.4619 5.53943 44.7819 5.79943C45.1119 6.05943 45.1619 6.52943 44.9019 6.84943L39.0019 14.3294C38.8619 14.5094 38.6419 14.6194 38.4119 14.6194H38.4319Z" fill="#130C49"/>
<path id="Vector_4" d="M43.7613 29.8599C43.5713 29.8599 43.3813 29.7899 43.2313 29.6399L35.0613 21.4699C34.7713 21.1799 34.7713 20.6999 35.0613 20.4099C35.3512 20.1199 35.8313 20.1199 36.1213 20.4099L44.2912 28.5799C44.5812 28.8699 44.5812 29.3499 44.2912 29.6399C44.1412 29.7899 43.9513 29.8599 43.7613 29.8599Z" fill="#130C49"/>
<path id="Vector_5" d="M35.5327 29.8599C35.3427 29.8599 35.1527 29.7899 35.0027 29.6399C34.7127 29.3499 34.7127 28.8699 35.0027 28.5799L43.1727 20.4099C43.4627 20.1199 43.9427 20.1199 44.2327 20.4099C44.5227 20.6999 44.5227 21.1799 44.2327 21.4699L36.0627 29.6399C35.9127 29.7899 35.7227 29.8599 35.5327 29.8599Z" fill="#130C49"/>
</g>
</g>
</svg>
