<svg width="58" height="52" viewBox="0 0 58 52" fill="none" xmlns="http://www.w3.org/2000/svg">
<g id="education-icon-2">
<g id="Group 2837">
<path id="Vector" d="M36.72 14.4199H0V51.1399H36.72V14.4199Z" fill="#61BD73"/>
<g id="Group 2836">
<path id="Vector_2" d="M33.27 34.36H18V0H40.47V1.5H19.5V32.86H33.27V34.36Z" fill="#130C49"/>
<path id="Vector_3" d="M57.5789 34.36H41.3789V32.86H56.0789V1.5H49.2589V0H57.5789V34.36Z" fill="#130C49"/>
<path id="Vector_4" d="M36.8495 15.1297H25.0195V13.6297H29.3795V0.679688H30.8795V13.6297H36.8495V15.1297Z" fill="#130C49"/>
<path id="Vector_5" d="M25.21 21.9697H18.75V23.4697H25.21V21.9697Z" fill="#130C49"/>
<path id="Vector_6" d="M56.8886 13.5703H45.0586V15.0703H56.8886V13.5703Z" fill="#130C49"/>
<path id="Vector_7" d="M42.4513 33.4103H40.9513V23.5303H32.7812V22.0303H50.8113V23.5303H42.4513V33.4103Z" fill="#130C49"/>
</g>
</g>
</g>
</svg>
