<svg width="57" height="56" viewBox="0 0 57 56" fill="none" xmlns="http://www.w3.org/2000/svg">
<g id="education-icon-4">
<path id="Vector" d="M36.72 19.0195H0V55.7395H36.72V19.0195Z" fill="#61BD73"/>
<g id="Group 2844">
<path id="Vector_2" d="M24.8398 5.62988H23.3398V30.1699H24.8398V5.62988Z" fill="#130C49"/>
<path id="Vector_3" d="M41.6994 31.79H26.8594V33.29H41.6994V31.79Z" fill="#130C49"/>
<path id="Vector_4" d="M52.9285 5.58553L43.9727 29.3115L45.376 29.8412L54.3318 6.11526L52.9285 5.58553Z" fill="#130C49"/>
<path id="Vector_5" d="M51.0025 1.91016H27.0625V3.41016H51.0025V1.91016Z" fill="#130C49"/>
<path id="Vector_6" d="M24.3 6.6C22.48 6.6 21 5.12 21 3.3C21 1.48 22.48 0 24.3 0C26.12 0 27.6 1.48 27.6 3.3C27.6 5.12 26.12 6.6 24.3 6.6ZM24.3 1.49C23.31 1.49 22.5 2.3 22.5 3.29C22.5 4.28 23.31 5.09 24.3 5.09C25.29 5.09 26.1 4.28 26.1 3.29C26.1 2.3 25.29 1.49 24.3 1.49Z" fill="#130C49"/>
<path id="Vector_7" d="M53.632 6.6C51.812 6.6 50.332 5.12 50.332 3.3C50.332 1.48 51.812 0 53.632 0C55.452 0 56.932 1.48 56.932 3.3C56.932 5.12 55.452 6.6 53.632 6.6ZM53.632 1.49C52.632 1.49 51.832 2.3 51.832 3.29C51.832 4.28 52.642 5.09 53.632 5.09C54.622 5.09 55.432 4.28 55.432 3.29C55.432 2.3 54.622 1.49 53.632 1.49Z" fill="#130C49"/>
<path id="Vector_8" d="M44.5109 35.2904C42.6909 35.2904 41.2109 33.8104 41.2109 31.9904C41.2109 30.1704 42.6909 28.6904 44.5109 28.6904C46.3309 28.6904 47.8109 30.1704 47.8109 31.9904C47.8109 33.8104 46.3309 35.2904 44.5109 35.2904ZM44.5109 30.1804C43.5209 30.1804 42.7109 30.9904 42.7109 31.9804C42.7109 32.9704 43.5209 33.7804 44.5109 33.7804C45.5009 33.7804 46.3109 32.9704 46.3109 31.9804C46.3109 30.9904 45.5009 30.1804 44.5109 30.1804Z" fill="#130C49"/>
<path id="Vector_9" d="M24.3 35.7797C22.48 35.7797 21 34.2997 21 32.4797C21 30.6597 22.48 29.1797 24.3 29.1797C26.12 29.1797 27.6 30.6597 27.6 32.4797C27.6 34.2997 26.12 35.7797 24.3 35.7797ZM24.3 30.6697C23.31 30.6697 22.5 31.4797 22.5 32.4697C22.5 33.4597 23.31 34.2697 24.3 34.2697C25.29 34.2697 26.1 33.4597 26.1 32.4697C26.1 31.4797 25.29 30.6697 24.3 30.6697Z" fill="#130C49"/>
</g>
</g>
</svg>
