<svg width="55" height="55" viewBox="0 0 55 55" fill="none" xmlns="http://www.w3.org/2000/svg">
<g id="education-icon-8">
<path id="Vector" d="M36.72 17.9004H0V54.6204H36.72V17.9004Z" fill="#61BD73"/>
<g id="Group 2840">
<path id="Vector_2" d="M44.78 39.29H22V0H54.12V29.98L49.4 34.57L44.78 39.29ZM23.5 37.79H44.15L48.35 33.5L52.62 29.35V1.5H23.5V37.79Z" fill="#130C49"/>
<path id="Vector_3" d="M45.207 38.5401H43.707L43.717 29.0801H53.357V30.5801H45.217L45.207 38.5401Z" fill="#130C49"/>
<path id="Vector_4" d="M47.6975 16.6504H29.1875V18.1504H47.6975V16.6504Z" fill="#130C49"/>
<path id="Vector_5" d="M44.3475 23.0703H29.1875V24.5703H44.3475V23.0703Z" fill="#130C49"/>
<path id="Vector_6" d="M39.3575 29.4805H29.1875V30.9805H39.3575V29.4805Z" fill="#130C49"/>
<path id="Vector_7" d="M31.9797 12.93C31.5497 12.93 31.1697 12.85 30.8197 12.69C30.4697 12.53 30.1797 12.31 29.9397 12.04C29.6997 11.77 29.5297 11.46 29.4297 11.13L30.0797 10.89C30.2397 11.35 30.4797 11.69 30.8097 11.93C31.1397 12.17 31.5297 12.29 31.9897 12.29C32.2797 12.29 32.5297 12.24 32.7497 12.15C32.9697 12.06 33.1397 11.93 33.2597 11.76C33.3797 11.59 33.4397 11.4 33.4397 11.18C33.4397 10.85 33.3497 10.6 33.1697 10.42C32.9897 10.24 32.7297 10.1 32.3997 10.01L31.1897 9.65004C30.7197 9.51004 30.3497 9.28004 30.0997 8.96004C29.8497 8.64004 29.7197 8.27004 29.7197 7.85004C29.7197 7.50004 29.8097 7.18004 29.9797 6.91004C30.1497 6.64004 30.3897 6.42004 30.6997 6.27004C30.9997 6.11004 31.3497 6.04004 31.7297 6.04004C32.1097 6.04004 32.4897 6.11004 32.8097 6.26004C33.1297 6.41004 33.3997 6.60004 33.6197 6.84004C33.8397 7.08004 33.9997 7.35004 34.0997 7.64004L33.4697 7.89004C33.3297 7.49004 33.0997 7.19004 32.7997 6.99004C32.4997 6.79004 32.1397 6.68004 31.7297 6.68004C31.4697 6.68004 31.2497 6.72004 31.0497 6.81004C30.8497 6.90004 30.6997 7.03004 30.5997 7.20004C30.4897 7.37004 30.4397 7.57004 30.4397 7.79004C30.4397 8.07004 30.5297 8.31004 30.6997 8.53004C30.8697 8.75004 31.1397 8.91004 31.4997 9.02004L32.5597 9.34004C33.0897 9.50004 33.4897 9.72004 33.7597 10.01C34.0297 10.3 34.1597 10.67 34.1597 11.12C34.1597 11.48 34.0697 11.8 33.8897 12.07C33.7097 12.34 33.4497 12.56 33.1297 12.71C32.8097 12.86 32.4297 12.94 31.9997 12.94L31.9797 12.93Z" fill="#130C49" stroke="#130C49" stroke-width="0.25" stroke-miterlimit="10"/>
<path id="Vector_8" d="M35.5391 12.8194V6.10938H36.2591V12.1394H39.2291V12.8094H35.5391V12.8194Z" fill="#130C49" stroke="#130C49" stroke-width="0.25" stroke-miterlimit="10"/>
<path id="Vector_9" d="M39.6194 12.8194L42.0694 6.10938H42.8394L45.2894 12.8194H44.5294L43.9494 11.1794H40.9494L40.3694 12.8194H39.6094H39.6194ZM41.1994 10.5094H43.7094L42.3494 6.65937H42.5694L41.1994 10.5094Z" fill="#130C49" stroke="#130C49" stroke-width="0.25" stroke-miterlimit="10"/>
</g>
</g>
</svg>
