<svg width="56" height="56" viewBox="0 0 56 56" fill="none" xmlns="http://www.w3.org/2000/svg">
<g id="education-icon-5">
<path id="Vector" d="M36.72 18.6504H0V55.3704H36.72V18.6504Z" fill="#61BD73"/>
<g id="Group 2843">
<path id="Vector_2" d="M37.29 36.58C27.21 36.58 19 28.37 19 18.29C19 8.21 27.21 0 37.29 0C47.37 0 55.58 8.2 55.58 18.29C55.58 28.38 47.38 36.58 37.29 36.58ZM37.29 1.5C28.03 1.5 20.5 9.03 20.5 18.29C20.5 27.55 28.03 35.08 37.29 35.08C46.55 35.08 54.08 27.55 54.08 18.29C54.08 9.03 46.55 1.5 37.29 1.5Z" fill="#130C49"/>
<path id="Vector_3" d="M45.7266 19.0397H36.2266V5.21973H37.7266V17.5397H45.7266V19.0397Z" fill="#130C49"/>
</g>
</g>
</svg>
