<svg width="51" height="56" viewBox="0 0 51 56" fill="none" xmlns="http://www.w3.org/2000/svg">
<g id="education-icon-7">
<path id="Vector" d="M36.72 19.2207H0V55.9407H36.72V19.2207Z" fill="#61BD73"/>
<g id="Group 2842">
<g id="Group 2841">
<path id="Vector_2" d="M36.9279 34.9799C36.5879 34.9799 36.2779 34.7399 36.1979 34.3899C36.1079 33.9899 36.3679 33.5899 36.7679 33.4999C40.4179 32.6999 43.6279 30.5699 45.7879 27.5099C50.5779 20.7499 48.9679 11.3599 42.2079 6.56987C40.3779 5.27987 38.3479 4.42987 36.1679 4.03987C35.7579 3.96987 35.4879 3.57987 35.5579 3.16987C35.6279 2.75987 36.0279 2.48987 36.4279 2.55987C38.8279 2.98987 41.0679 3.91987 43.0779 5.33987C50.5179 10.5999 52.2779 20.9299 47.0179 28.3699C44.6379 31.7299 41.1179 34.0699 37.0979 34.9599C37.0479 34.9699 36.9879 34.9799 36.9379 34.9799H36.9279Z" fill="#130C49"/>
<path id="Vector_3" d="M38.698 8.37L39.568 7.78L36.668 3.49L41.158 0.91L40.638 0L35.168 3.14L38.698 8.37Z" fill="#130C49"/>
<path id="Vector_4" d="M28.1077 34.3998C28.0177 34.3998 27.9377 34.3898 27.8477 34.3498C26.4777 33.8498 25.1777 33.1598 23.9677 32.3098C16.5377 27.0498 14.7677 16.7098 20.0277 9.27976C22.2277 6.16976 25.4577 3.89976 29.1277 2.89976C29.5277 2.78976 29.9377 3.02976 30.0477 3.42976C30.1577 3.82976 29.9177 4.23976 29.5177 4.34976C26.1877 5.26976 23.2477 7.32976 21.2477 10.1498C16.4577 16.9098 18.0677 26.2998 24.8277 31.0898C25.9177 31.8598 27.1077 32.4898 28.3477 32.9398C28.7377 33.0798 28.9377 33.5098 28.7977 33.8998C28.6877 34.1998 28.3977 34.3898 28.0977 34.3898L28.1077 34.3998Z" fill="#130C49"/>
<path id="Vector_5" d="M26.6262 28.2402L25.6663 28.6702L27.7763 33.4002L22.9062 35.1602L23.2663 36.1402L29.1962 34.0002L26.6262 28.2402Z" fill="#130C49"/>
<path id="Vector_6" d="M25.0187 18.4496V17.8396L26.8687 15.8296C27.2287 15.4396 27.5187 15.1196 27.7387 14.8696C27.9587 14.6196 28.1188 14.3896 28.2288 14.1996C28.3388 13.9996 28.3888 13.7896 28.3888 13.5696C28.3888 13.1996 28.2788 12.9196 28.0688 12.7296C27.8488 12.5296 27.5687 12.4396 27.2087 12.4396C26.8487 12.4396 26.5387 12.5396 26.2887 12.7496C26.0387 12.9596 25.8587 13.2496 25.7687 13.6196L24.9688 13.4096C25.0487 13.0496 25.1887 12.7396 25.3987 12.4696C25.6087 12.2096 25.8688 11.9996 26.1788 11.8596C26.4888 11.7196 26.8287 11.6396 27.1987 11.6396C27.6087 11.6396 27.9787 11.7196 28.2787 11.8796C28.5887 12.0396 28.8287 12.2596 29.0087 12.5396C29.1887 12.8196 29.2787 13.1496 29.2787 13.5196C29.2787 13.7696 29.2287 14.0096 29.1287 14.2396C29.0287 14.4696 28.8788 14.7196 28.6788 14.9796C28.4788 15.2396 28.2188 15.5396 27.9088 15.8796L26.2488 17.6796H29.4288V18.4396H25.0287L25.0187 18.4496Z" fill="#130C49"/>
<path id="Vector_7" d="M33.507 18.4502V16.9002H30.207V16.1702L33.497 11.7402H34.347V16.1702H35.217V16.9002H34.347V18.4502H33.517H33.507ZM30.877 16.4802L30.747 16.1602H33.497V12.4702L33.757 12.5402L30.867 16.4702L30.877 16.4802Z" fill="#130C49"/>
<path id="Vector_8" d="M37.8656 27.8201L40.8056 21.8801H37.5156V21.1201H41.7256V21.8801L38.8056 27.8201H37.8556H37.8656Z" fill="#130C49"/>
</g>
<path id="Vector_9" d="M31.7461 27.8098L39.3061 11.5898H39.8761L32.3161 27.8098H31.7461Z" fill="#130C49" stroke="#130C49" stroke-width="0.25" stroke-miterlimit="10"/>
</g>
</g>
</svg>
