<svg width="18" height="16" viewBox="0 0 18 16" fill="none" xmlns="http://www.w3.org/2000/svg">
<g id="Group">
<path id="Vector" d="M15.6031 15.9666H2.39688C1.07532 15.9666 0 14.9032 0 13.5963V2.37034C0 1.06342 1.07532 0 2.39688 0H15.6031C16.9247 0 18 1.06342 18 2.37034V13.5932C18 14.9001 16.9247 15.9636 15.6031 15.9636V15.9666ZM2.39688 0.616473C1.41818 0.616473 0.623377 1.40248 0.623377 2.37034V13.5932C0.623377 14.5611 1.41818 15.3471 2.39688 15.3471H15.6031C16.5818 15.3471 17.3766 14.5611 17.3766 13.5932V2.37034C17.3766 1.40248 16.5818 0.616473 15.6031 0.616473H2.39688Z" fill="#61BD73"/>
<path id="Vector_2" d="M9.00192 8.35006L0.140625 2.6292L0.483482 2.11136L9.00192 7.61338L17.5204 2.11136L17.8601 2.6292L9.00192 8.35006Z" fill="#61BD73"/>
</g>
</svg>
