<svg width="60" height="60" viewBox="0 0 60 60" fill="none" xmlns="http://www.w3.org/2000/svg">
<path d="M46.5075 0H13.4925C6.0408 0 0 6.0408 0 13.4925V46.5075C0 53.9592 6.0408 60 13.4925 60H46.5075C53.9592 60 60 53.9592 60 46.5075V13.4925C60 6.0408 53.9592 0 46.5075 0Z" fill="#130C49"/>
<path d="M20.1719 13.5801H13.6094V20.1426H20.1719V13.5801Z" fill="#61BD73"/>
<path d="M33.2812 13.5801H26.7188V20.1426H33.2812V13.5801Z" fill="#61BD73"/>
<path d="M26.7227 20.1348H20.1602V26.6973H26.7227V20.1348Z" fill="#A254EC"/>
<path d="M39.832 20.1348H33.2695V26.6973H39.832V20.1348Z" fill="#A254EC"/>
<path d="M46.3867 13.5801H39.8242V20.1426H46.3867V13.5801Z" fill="#61BD73"/>
<path d="M20.1719 26.6973H13.6094V33.2598H20.1719V26.6973Z" fill="#61BD73"/>
<path d="M33.2812 26.6973H26.7188V33.2598H33.2812V26.6973Z" fill="#61BD73"/>
<path d="M26.7227 33.2598H20.1602V39.8223H26.7227V33.2598Z" fill="#A254EC"/>
<path d="M39.832 33.2598H33.2695V39.8223H39.832V33.2598Z" fill="#A254EC"/>
<path d="M46.3867 26.6973H39.8242V33.2598H46.3867V26.6973Z" fill="#61BD73"/>
<path d="M20.1719 39.8613H13.6094V46.4238H20.1719V39.8613Z" fill="#61BD73"/>
<path d="M33.2812 39.8613H26.7188V46.4238H33.2812V39.8613Z" fill="#61BD73"/>
<path d="M46.3867 39.8613H39.8242V46.4238H46.3867V39.8613Z" fill="#61BD73"/>
</svg>
