<?xml version="1.0" encoding="UTF-8"?>
<svg id="Layer_1" data-name="Layer 1" xmlns="http://www.w3.org/2000/svg" version="1.1" viewBox="0 0 195 126">
  <defs>
    <style>
      .cls-1 {
        fill: #1b1464;
      }

      .cls-1, .cls-2 {
        stroke-width: 0px;
      }

      .cls-2 {
        fill: #61bb73;
      }
    </style>
  </defs>
  <g id="Group_2624" data-name="Group 2624">
    <g id="Group_2305" data-name="Group 2305">
      <path id="Vector" class="cls-2" d="M164.8,47v-16.1c0-1.1-.6-2.2-1.6-2.7l-13.9-8.1c-1-.6-2.2-.6-3.1,0l-13.9,8.1c-1,.6-1.6,1.6-1.6,2.7v16.1c0,1.1.6,2.2,1.6,2.7l13.9,8.1c1,.6,2.2.6,3.1,0l13.9-8.1c1-.6,1.6-1.6,1.6-2.7h0Z"/>
      <path id="Vector_2" data-name="Vector 2" class="cls-1" d="M147.7,59c-.7,0-1.4-.2-2-.5l-13.9-8.1c-1.2-.7-2-2-2-3.4v-16.1c0-1.4.8-2.7,2-3.4l13.9-8.1c1.2-.7,2.7-.7,4,0l13.9,8.1c1.2.7,2,2,2,3.4v16.1c0,1.4-.8,2.7-2,3.4l-13.9,8.1c-.6.4-1.3.5-2,.5h0ZM147.7,20.5c-.4,0-.8.1-1.2.3l-13.9,8.1c-.7.4-1.2,1.2-1.2,2v16.1c0,.8.4,1.6,1.2,2l13.9,8.1c.7.4,1.6.4,2.3,0l13.9-8.1c.7-.4,1.2-1.2,1.2-2v-16.1c0-.8-.4-1.6-1.2-2l-13.9-8.1c-.4-.2-.8-.3-1.2-.3Z"/>
      <path id="Vector_3" data-name="Vector 3" class="cls-1" d="M147.2,41.9c-1.9,0-3.5-1.6-3.5-3.5s1.6-3.5,3.5-3.5,3.5,1.6,3.5,3.5-1.6,3.5-3.5,3.5ZM147.2,36.1c-1.3,0-2.3,1-2.3,2.3s1,2.3,2.3,2.3,2.3-1,2.3-2.3-1-2.3-2.3-2.3Z"/>
      <path id="Vector_4" data-name="Vector 4" class="cls-1" d="M147.2,32.7c-1.9,0-3.5-1.6-3.5-3.5s1.6-3.5,3.5-3.5,3.5,1.6,3.5,3.5-1.6,3.5-3.5,3.5ZM147.2,26.9c-1.3,0-2.3,1-2.3,2.3s1,2.3,2.3,2.3,2.3-1,2.3-2.3-1-2.3-2.3-2.3Z"/>
      <path id="Vector_5" data-name="Vector 5" class="cls-1" d="M156.6,41.9c-1.9,0-3.5-1.6-3.5-3.5s1.6-3.5,3.5-3.5,3.5,1.6,3.5,3.5-1.6,3.5-3.5,3.5ZM156.6,36.1c-1.3,0-2.3,1-2.3,2.3s1,2.3,2.3,2.3,2.3-1,2.3-2.3-1-2.3-2.3-2.3Z"/>
      <path id="Vector_6" data-name="Vector 6" class="cls-1" d="M141.1,49.6c-1.9,0-3.5-1.6-3.5-3.5s1.6-3.5,3.5-3.5,3.5,1.6,3.5,3.5-1.6,3.5-3.5,3.5ZM141.1,43.8c-1.3,0-2.3,1-2.3,2.3s1,2.3,2.3,2.3,2.3-1,2.3-2.3-1-2.3-2.3-2.3Z"/>
      <path id="Vector_7" data-name="Vector 7" class="cls-1" d="M151.2,50.6c-1.9,0-3.5-1.6-3.5-3.5s1.6-3.5,3.5-3.5,3.5,1.6,3.5,3.5-1.6,3.5-3.5,3.5ZM151.2,44.8c-1.3,0-2.3,1-2.3,2.3s1,2.3,2.3,2.3,2.3-1,2.3-2.3-1-2.3-2.3-2.3Z"/>
      <path id="Vector_8" data-name="Vector 8" class="cls-1" d="M153.7,37.9h-3.6v1.1h3.6v-1.1Z"/>
      <path id="Vector_9" data-name="Vector 9" class="cls-1" d="M149,40.9l-1,.5,1.5,3.3,1-.5-1.5-3.3Z"/>
      <path id="Vector_10" data-name="Vector 10" class="cls-1" d="M147.8,31.9h-1.1v3.6h1.1v-3.6Z"/>
      <path id="Vector_11" data-name="Vector 11" class="cls-1" d="M144.6,40.4l-2.2,2.9.9.7,2.2-2.9-.9-.7Z"/>
      <path id="Vector_12" data-name="Vector 12" class="cls-1" d="M113.1,39.9h-33.5c-.6,0-1-.5-1-1s.5-1,1-1h33.5c.6,0,1,.5,1,1s-.5,1-1,1Z"/>
      <path id="Vector_13" data-name="Vector 13" class="cls-1" d="M109,42.4l3.5-3.5-3.5-3.5h3l3.5,3.5-3.5,3.5h-3Z"/>
      <path id="Vector_14" data-name="Vector 14" class="cls-1" d="M58.3,22.1h-23.1c-2.9,0-5.2,2.3-5.2,5.2v23.1c0,2.9,2.3,5.2,5.2,5.2h23.1c2.9,0,5.2-2.3,5.2-5.2v-23.1c0-2.9-2.3-5.2-5.2-5.2Z"/>
      <path id="Vector_15" data-name="Vector 15" class="cls-1" d="M39.3,107.1h-9.3c-.5,0-.9-.4-.9-.9v-22c0-.5.4-.9.9-.9h9.1c.5,0,.9.4.9.9s-.4.9-.9.9h-8.2v20.3h8.5c.5,0,.9.4.9.9s-.4.9-.9.9h0Z"/>
      <path id="Vector_16" data-name="Vector 16" class="cls-1" d="M101.1,107.1h-9.1c-.5,0-.9-.4-.9-.9s.4-.9.9-.9h8.2v-20.3h-8.5c-.5,0-.9-.4-.9-.9s.4-.9.9-.9h9.3c.5,0,.9.4.9.9v22c0,.5-.4.9-.9.9h0Z"/>
      <path id="Vector_17" data-name="Vector 17" class="cls-1" d="M89.5,97.8h-1.5c-.8,0-1.4-.6-1.4-1.4s.6-1.4,1.4-1.4h1.5c.8,0,1.4.6,1.4,1.4s-.6,1.4-1.4,1.4ZM82.3,97.8h-1.9c-.8,0-1.4-.6-1.4-1.4s.6-1.4,1.4-1.4h1.9c.8,0,1.4.6,1.4,1.4s-.6,1.4-1.4,1.4ZM74.8,97.8h-1.9c-.8,0-1.4-.6-1.4-1.4s.6-1.4,1.4-1.4h1.9c.8,0,1.4.6,1.4,1.4s-.6,1.4-1.4,1.4ZM67.2,97.8h-1.9c-.8,0-1.4-.6-1.4-1.4s.6-1.4,1.4-1.4h1.9c.8,0,1.4.6,1.4,1.4s-.6,1.4-1.4,1.4ZM59.7,97.8h-1.9c-.8,0-1.4-.6-1.4-1.4s.6-1.4,1.4-1.4h1.9c.8,0,1.4.6,1.4,1.4s-.6,1.4-1.4,1.4ZM52.1,97.8h-1.9c-.8,0-1.4-.6-1.4-1.4s.6-1.4,1.4-1.4h1.9c.8,0,1.4.6,1.4,1.4s-.6,1.4-1.4,1.4ZM44.6,97.8h-1.9c-.8,0-1.4-.6-1.4-1.4s.6-1.4,1.4-1.4h1.9c.8,0,1.4.6,1.4,1.4s-.6,1.4-1.4,1.4Z"/>
      <path id="Vector_18" data-name="Vector 18" class="cls-1" d="M147.7,97.1h-27.9c-.6,0-1-.5-1-1s.5-1,1-1h26.9v-24.6c0-.6.5-1,1-1s1,.5,1,1v25.7c0,.6-.5,1-1,1Z"/>
      <path id="Vector_19" data-name="Vector 19" class="cls-1" d="M123.9,92.6l-3.5,3.5,3.5,3.5h-3l-3.5-3.5,3.5-3.5h3Z"/>
    </g>
  </g>
</svg>