<svg width="39" height="39" viewBox="0 0 39 39" fill="none" xmlns="http://www.w3.org/2000/svg">
<path d="M8.77013 0.5H30.2299C34.7973 0.5 38.5 4.20266 38.5 8.77013V30.2299C38.5 34.7973 34.7973 38.5 30.2299 38.5H8.77013C4.20266 38.5 0.5 34.7973 0.5 30.2299V8.77013C0.5 4.20266 4.20266 0.5 8.77013 0.5Z" stroke="#130C49"/>
<path d="M13.1055 8.82812H8.83984V13.0938H13.1055V8.82812Z" fill="#00A88B"/>
<path d="M21.625 8.82812H17.3594V13.0938H21.625V8.82812Z" fill="#00A88B"/>
<path d="M17.3633 13.0889H13.0977V17.3545H17.3633V13.0889Z" fill="#130C49"/>
<path d="M25.8828 13.0889H21.6172V17.3545H25.8828V13.0889Z" fill="#130C49"/>
<path d="M30.1445 8.82812H25.8789V13.0938H30.1445V8.82812Z" fill="#00A88B"/>
<path d="M13.1055 17.3545H8.83984V21.6201H13.1055V17.3545Z" fill="#00A88B"/>
<path d="M21.625 17.3545H17.3594V21.6201H21.625V17.3545Z" fill="#00A88B"/>
<path d="M17.3633 21.6201H13.0977V25.8857H17.3633V21.6201Z" fill="#130C49"/>
<path d="M25.8828 21.6201H21.6172V25.8857H25.8828V21.6201Z" fill="#130C49"/>
<path d="M30.1445 17.3545H25.8789V21.6201H30.1445V17.3545Z" fill="#00A88B"/>
<path d="M13.1055 25.9102H8.83984V30.1758H13.1055V25.9102Z" fill="#00A88B"/>
<path d="M21.625 25.9102H17.3594V30.1758H21.625V25.9102Z" fill="#00A88B"/>
<path d="M30.1445 25.9102H25.8789V30.1758H30.1445V25.9102Z" fill="#00A88B"/>
</svg>
