<svg width="185" height="90" viewBox="0 0 185 90" fill="none" xmlns="http://www.w3.org/2000/svg">
<g id="Layer_1" clip-path="url(#clip0_2366_1682)">
<path id="Vector" d="M93.9386 35.6934V53.6555C93.9386 54.6282 93.4141 55.535 92.5714 56.0213L76.9824 64.9983C76.1398 65.4846 75.0906 65.4846 74.248 64.9983L58.659 56.0213C57.8122 55.535 57.2917 54.6282 57.2917 53.6555V35.6934C57.2917 34.7207 57.8122 33.8181 58.659 33.3318L74.248 24.3507C74.6693 24.1075 75.1402 23.9839 75.6152 23.9839C76.0902 23.9839 76.5611 24.1075 76.9824 24.3507L92.5714 33.3318C93.4141 33.8181 93.9386 34.7207 93.9386 35.6934Z" fill="#61B973"/>
<path id="Vector_2" d="M92.9844 32.6146L77.3954 23.6377C76.2967 23.0029 74.9336 23.0029 73.8349 23.6377L58.2459 32.6146C57.1471 33.2493 56.4656 34.4281 56.4656 35.6934V53.6555C56.4656 54.9209 57.1471 56.0997 58.2459 56.7344L73.8349 65.7154C74.3842 66.0287 74.9997 66.1894 75.6152 66.1894C76.2306 66.1894 76.8461 66.0287 77.3954 65.7154L92.9844 56.7344C94.0832 56.0997 94.7647 54.9209 94.7647 53.6555V35.6934C94.7647 34.4281 94.0832 33.2493 92.9844 32.6146ZM93.9386 53.6555C93.9386 54.6282 93.414 55.535 92.5714 56.0213L76.9824 64.9983C76.1397 65.4846 75.0906 65.4846 74.2479 64.9983L58.6589 56.0213C57.8122 55.535 57.2917 54.6282 57.2917 53.6555V35.6934C57.2917 34.7207 57.8122 33.8181 58.6589 33.3318L74.2479 24.3507C74.6692 24.1075 75.1401 23.9839 75.6152 23.9839C76.0902 23.9839 76.5611 24.1075 76.9824 24.3507L92.5714 33.3318C93.414 33.8181 93.9386 34.7207 93.9386 35.6934V53.6555Z" fill="#1B1464"/>
<path id="Vector_3" d="M85.3718 40.5858C83.5296 40.5858 82.0095 41.9748 81.803 43.7594H78.6059C78.4159 42.1108 77.1023 40.8042 75.4501 40.6105V37.5976C77.2387 37.3915 78.6307 35.8748 78.6307 34.0365C78.6307 32.0581 77.0197 30.4507 75.037 30.4507C73.0543 30.4507 71.4434 32.0581 71.4434 34.0365C71.4434 35.8748 72.8354 37.3915 74.624 37.5976V40.6105C72.8354 40.8166 71.4434 42.3334 71.4434 44.1716C71.4434 45.066 71.778 45.8862 72.3232 46.5127L70.0968 49.5132C69.5681 49.2082 68.9609 49.031 68.3082 49.031C66.3255 49.031 64.7146 50.6384 64.7146 52.6168C64.7146 54.5952 66.3255 56.2027 68.3082 56.2027C70.2909 56.2027 71.9019 54.5952 71.9019 52.6168C71.9019 51.5864 71.4599 50.6591 70.7618 50.0037L72.9387 47.0732C73.5294 47.5019 74.2563 47.7574 75.037 47.7574C75.4584 47.7574 75.8632 47.6791 76.239 47.5472L77.5939 50.5972C76.5364 51.2237 75.8218 52.3695 75.8218 53.6802C75.8218 55.6586 77.4328 57.266 79.4155 57.266C81.3982 57.266 83.0091 55.6586 83.0091 53.6802C83.0091 51.7018 81.3982 50.0944 79.4155 50.0944C79.0437 50.0944 78.6844 50.1521 78.3457 50.2551L76.9784 47.1804C77.8582 46.6116 78.4778 45.6719 78.6018 44.5796H81.7989C82.0054 46.3643 83.5255 47.7533 85.3677 47.7533C87.3504 47.7533 88.9614 46.1459 88.9614 44.1675C88.9614 42.1891 87.3504 40.5817 85.3677 40.5817L85.3718 40.5858ZM71.0758 52.6168C71.0758 54.1377 69.8366 55.3783 68.3082 55.3783C66.7799 55.3783 65.5407 54.1418 65.5407 52.6168C65.5407 51.0918 66.7799 49.8553 68.3082 49.8553C69.8366 49.8553 71.0758 51.0918 71.0758 52.6168ZM82.1871 53.6802C82.1871 55.2011 80.948 56.4417 79.4196 56.4417C77.8913 56.4417 76.6521 55.2052 76.6521 53.6802C76.6521 52.1552 77.8913 50.9187 79.4196 50.9187C80.948 50.9187 82.1871 52.1552 82.1871 53.6802ZM72.2736 34.0406C72.2736 32.5197 73.5128 31.2791 75.0412 31.2791C76.5695 31.2791 77.8087 32.5156 77.8087 34.0406C77.8087 35.5656 76.5695 36.8021 75.0412 36.8021C73.5128 36.8021 72.2736 35.5656 72.2736 34.0406ZM75.0412 46.9331C73.517 46.9331 72.2736 45.6966 72.2736 44.1716C72.2736 42.6466 73.5128 41.4101 75.0412 41.4101C76.5695 41.4101 77.8087 42.6466 77.8087 44.1716C77.8087 45.6966 76.5695 46.9331 75.0412 46.9331ZM85.3718 46.9331C83.8476 46.9331 82.6043 45.6966 82.6043 44.1716C82.6043 42.6466 83.8435 41.4101 85.3718 41.4101C86.9002 41.4101 88.1394 42.6466 88.1394 44.1716C88.1394 45.6966 86.9002 46.9331 85.3718 46.9331Z" fill="#1B1464"/>
<path id="Vector_4" d="M20.0831 79.3661L6.03902 70.1295C5.80771 69.9729 5.50617 69.9605 5.25421 70.0924C5.00637 70.2284 4.85767 70.484 4.85767 70.7642V89.2415C4.85767 89.5177 5.00637 89.7732 5.26247 89.9133C5.37399 89.971 5.49791 89.9999 5.6177 89.9999C5.77053 89.9999 5.91511 89.9587 6.03902 89.8762L20.0831 80.6397C20.2979 80.4954 20.4301 80.2605 20.4301 80.0008C20.4301 79.7411 20.2979 79.5062 20.0831 79.3661ZM5.68379 70.8796L19.5503 80.0008L5.68379 89.122V70.8796Z" fill="#1B1464"/>
<path id="Vector_5" d="M19.5503 80.0011L5.68384 89.1222V70.8799L19.5503 80.0011Z" fill="#A590DD"/>
<path id="Vector_6" d="M20.901 0H1.0781C0.846786 0 0.665039 0.185474 0.665039 0.412163V25.7437C0.665039 25.9704 0.846786 26.1559 1.0781 26.1559H20.901C21.1323 26.1559 21.314 25.9704 21.314 25.7437V0.412163C21.314 0.185474 21.1323 0 20.901 0ZM20.4879 25.3316H1.49116V0.824327H20.4879V25.3316Z" fill="#262262"/>
<path id="Vector_7" d="M20.488 0.824219H1.49121V25.3315H20.488V0.824219Z" fill="white"/>
<path id="Vector_8" d="M17.8112 9.03038H4.1677C3.94052 9.03038 3.75464 8.84491 3.75464 8.61822C3.75464 8.39153 3.94052 8.20605 4.1677 8.20605H17.8112C18.0383 8.20605 18.2242 8.39153 18.2242 8.61822C18.2242 8.84491 18.0383 9.03038 17.8112 9.03038Z" fill="#262262"/>
<path id="Vector_9" d="M17.8112 11.2399H4.1677C3.94052 11.2399 3.75464 11.0544 3.75464 10.8277C3.75464 10.601 3.94052 10.4155 4.1677 10.4155H17.8112C18.0383 10.4155 18.2242 10.601 18.2242 10.8277C18.2242 11.0544 18.0383 11.2399 17.8112 11.2399Z" fill="#262262"/>
<path id="Vector_10" d="M17.8112 13.4488H4.1677C3.94052 13.4488 3.75464 13.2634 3.75464 13.0367C3.75464 12.81 3.94052 12.6245 4.1677 12.6245H17.8112C18.0383 12.6245 18.2242 12.81 18.2242 13.0367C18.2242 13.2634 18.0383 13.4488 17.8112 13.4488Z" fill="#262262"/>
<path id="Vector_11" d="M17.8112 15.6539H4.1677C3.94052 15.6539 3.75464 15.4684 3.75464 15.2418C3.75464 15.0151 3.94052 14.8296 4.1677 14.8296H17.8112C18.0383 14.8296 18.2242 15.0151 18.2242 15.2418C18.2242 15.4684 18.0383 15.6539 17.8112 15.6539Z" fill="#262262"/>
<path id="Vector_12" d="M17.8112 19.6188H4.1677C3.94052 19.6188 3.75464 19.4333 3.75464 19.2066C3.75464 18.9799 3.94052 18.7944 4.1677 18.7944H17.8112C18.0383 18.7944 18.2242 18.9799 18.2242 19.2066C18.2242 19.4333 18.0383 19.6188 17.8112 19.6188Z" fill="#262262"/>
<path id="Vector_13" d="M7.79854 21.8238H4.17185C3.94467 21.8238 3.75879 21.6384 3.75879 21.4117C3.75879 21.185 3.94467 20.9995 4.17185 20.9995H7.79854C8.02572 20.9995 8.2116 21.185 8.2116 21.4117C8.2116 21.6384 8.02572 21.8238 7.79854 21.8238Z" fill="#262262"/>
<path id="Vector_14" d="M6.47674 3.80859H4.16772V6.47941H6.47674V3.80859Z" fill="#61BD73"/>
<path id="Vector_15" d="M0.619594 47.9099C0.276752 47.9099 0 47.6338 0 47.2917V42.1231C0 41.781 0.276752 41.5049 0.619594 41.5049C0.962435 41.5049 1.23919 41.781 1.23919 42.1231V47.2917C1.23919 47.6338 0.962435 47.9099 0.619594 47.9099Z" fill="#1B1464"/>
<path id="Vector_16" d="M4.77511 52.1017C4.43227 52.1017 4.15552 51.8256 4.15552 51.4835V37.8697C4.15552 37.5276 4.43227 37.2515 4.77511 37.2515C5.11795 37.2515 5.3947 37.5276 5.3947 37.8697V51.4835C5.3947 51.8256 5.11795 52.1017 4.77511 52.1017Z" fill="#1B1464"/>
<path id="Vector_17" d="M8.93454 50.1355C8.59169 50.1355 8.31494 49.8593 8.31494 49.5172V39.9014C8.31494 39.5594 8.59169 39.2832 8.93454 39.2832C9.27738 39.2832 9.55413 39.5594 9.55413 39.9014V49.5172C9.55413 49.8593 9.27738 50.1355 8.93454 50.1355Z" fill="#1B1464"/>
<path id="Vector_18" d="M17.2949 50.0861C16.952 50.0861 16.6753 49.81 16.6753 49.4679V39.8521C16.6753 39.51 16.952 39.2339 17.2949 39.2339C17.6377 39.2339 17.9145 39.51 17.9145 39.8521V49.4679C17.9145 49.81 17.6377 50.0861 17.2949 50.0861Z" fill="#1B1464"/>
<path id="Vector_19" d="M13.1147 47.9099C12.7719 47.9099 12.4951 47.6338 12.4951 47.2917V42.1231C12.4951 41.781 12.7719 41.5049 13.1147 41.5049C13.4576 41.5049 13.7343 41.781 13.7343 42.1231V47.2917C13.7343 47.6338 13.4576 47.9099 13.1147 47.9099Z" fill="#1B1464"/>
<path id="Vector_20" d="M21.3635 47.9099C21.0206 47.9099 20.7439 47.6338 20.7439 47.2917V42.1231C20.7439 41.781 21.0206 41.5049 21.3635 41.5049C21.7063 41.5049 21.9831 41.781 21.9831 42.1231V47.2917C21.9831 47.6338 21.7063 47.9099 21.3635 47.9099Z" fill="#1B1464"/>
<path id="Vector_21" d="M146.749 4.03076H129.21V17.999H146.749V4.03076Z" fill="white"/>
<path id="Vector_22" d="M128.384 3.20654V18.8234H184.337V3.20654H128.384ZM146.749 17.9991H129.21V4.03087H146.749V17.9991ZM165.126 17.9991H147.591V4.03087H165.126V17.9991ZM183.511 17.9991H165.977V4.03087H183.511V17.9991Z" fill="#1B1464"/>
<path id="Vector_23" d="M165.126 4.03076H147.591V17.999H165.126V4.03076Z" fill="white"/>
<path id="Vector_24" d="M183.511 4.03076H165.977V17.999H183.511V4.03076Z" fill="white"/>
<path id="Vector_25" d="M146.749 37.688H129.21V51.6603H146.749V37.688Z" fill="white"/>
<path id="Vector_26" d="M128.384 36.8638V52.4848H184.337V36.8638H128.384ZM146.749 51.6604H129.21V37.6881H146.749V51.6604ZM165.126 51.6604H147.591V37.6881H165.126V51.6604ZM183.511 51.6604H165.977V37.6881H183.511V51.6604Z" fill="#1B1464"/>
<path id="Vector_27" d="M165.126 37.688H147.591V51.6603H165.126V37.688Z" fill="white"/>
<path id="Vector_28" d="M183.511 37.688H165.977V51.6603H183.511V37.688Z" fill="white"/>
<path id="Vector_29" d="M146.749 70.9541H129.21V84.9223H146.749V70.9541Z" fill="white"/>
<path id="Vector_30" d="M128.384 70.1294V85.7463H184.337V70.1294H128.384ZM146.749 84.9219H129.21V70.9537H146.749V84.9219ZM165.126 84.9219H147.591V70.9537H165.126V84.9219ZM183.511 84.9219H165.977V70.9537H183.511V84.9219Z" fill="#1B1464"/>
<path id="Vector_31" d="M165.126 70.9541H147.591V84.9223H165.126V70.9541Z" fill="white"/>
<path id="Vector_32" d="M183.511 70.9541H165.977V84.9223H183.511V70.9541Z" fill="white"/>
<path id="Vector_33" d="M135.877 12.6411C135.538 12.6411 135.249 12.5546 135.005 12.3856C134.761 12.2166 134.58 11.9652 134.448 11.6437C134.32 11.3181 134.253 10.9265 134.253 10.469C134.253 10.0115 134.32 9.61998 134.448 9.29849C134.576 8.977 134.761 8.7297 135.005 8.56072C135.245 8.39173 135.538 8.30518 135.873 8.30518C136.207 8.30518 136.5 8.39173 136.74 8.56072C136.984 8.7297 137.17 8.977 137.298 9.29849C137.426 9.61998 137.492 10.0115 137.492 10.4649C137.492 10.9183 137.426 11.314 137.298 11.6396C137.17 11.9652 136.984 12.2125 136.74 12.3815C136.496 12.5505 136.207 12.637 135.868 12.637L135.877 12.6411ZM135.877 11.9982C136.141 11.9982 136.348 11.8704 136.5 11.6107C136.653 11.3511 136.728 10.9719 136.728 10.4649C136.728 10.1311 136.695 9.85079 136.624 9.6241C136.554 9.39741 136.455 9.2243 136.327 9.10889C136.199 8.99349 136.05 8.93579 135.877 8.93579C135.617 8.93579 135.41 9.06356 135.257 9.32322C135.104 9.58288 135.03 9.96207 135.026 10.4608C135.026 10.7946 135.059 11.079 135.129 11.3057C135.199 11.5324 135.298 11.7055 135.422 11.8209C135.55 11.9363 135.699 11.994 135.877 11.994V11.9982Z" fill="#1B1464"/>
<path id="Vector_34" d="M138.479 12.6082C138.355 12.6082 138.248 12.5629 138.157 12.4763C138.066 12.3898 138.025 12.2826 138.025 12.1548C138.025 12.0312 138.066 11.9281 138.157 11.8375C138.248 11.7468 138.351 11.7056 138.479 11.7056C138.607 11.7056 138.706 11.7509 138.793 11.8375C138.884 11.924 138.93 12.0312 138.93 12.1548C138.93 12.2373 138.905 12.3156 138.863 12.3815C138.822 12.4516 138.768 12.5052 138.698 12.5464C138.628 12.5876 138.558 12.6082 138.475 12.6082H138.479Z" fill="#1B1464"/>
<path id="Vector_35" d="M140.887 8.36691V12.5627H140.127V9.10469H140.102L139.119 9.73118V9.03462L140.164 8.36279H140.887V8.36691Z" fill="#1B1464"/>
<path id="Vector_36" d="M153.482 12.6411C153.143 12.6411 152.854 12.5546 152.61 12.3856C152.366 12.2166 152.185 11.9652 152.053 11.6437C151.924 11.3181 151.858 10.9265 151.858 10.469C151.858 10.0115 151.924 9.61998 152.053 9.29849C152.181 8.977 152.366 8.7297 152.61 8.56072C152.85 8.39173 153.143 8.30518 153.478 8.30518C153.812 8.30518 154.105 8.39173 154.345 8.56072C154.589 8.7297 154.775 8.977 154.903 9.29849C155.031 9.61998 155.097 10.0115 155.097 10.4649C155.097 10.9183 155.031 11.314 154.903 11.6396C154.775 11.9652 154.589 12.2125 154.345 12.3815C154.101 12.5505 153.812 12.637 153.473 12.637L153.482 12.6411ZM153.482 11.9982C153.746 11.9982 153.953 11.8704 154.105 11.6107C154.258 11.3511 154.333 10.9719 154.333 10.4649C154.333 10.1311 154.3 9.85079 154.229 9.6241C154.159 9.39741 154.06 9.2243 153.932 9.10889C153.804 8.99349 153.655 8.93579 153.482 8.93579C153.222 8.93579 153.015 9.06356 152.862 9.32322C152.709 9.58288 152.635 9.96207 152.631 10.4608C152.631 10.7946 152.664 11.079 152.734 11.3057C152.804 11.5324 152.903 11.7055 153.027 11.8209C153.155 11.9363 153.304 11.994 153.482 11.994V11.9982Z" fill="#1B1464"/>
<path id="Vector_37" d="M156.088 12.6082C155.964 12.6082 155.857 12.5629 155.766 12.4763C155.675 12.3898 155.634 12.2826 155.634 12.1548C155.634 12.0312 155.675 11.9281 155.766 11.8375C155.857 11.7468 155.96 11.7056 156.088 11.7056C156.216 11.7056 156.315 11.7509 156.402 11.8375C156.493 11.924 156.538 12.0312 156.538 12.1548C156.538 12.2373 156.513 12.3156 156.472 12.3815C156.431 12.4516 156.377 12.5052 156.307 12.5464C156.237 12.5876 156.166 12.6082 156.084 12.6082H156.088Z" fill="#1B1464"/>
<path id="Vector_38" d="M157.298 12.5628V12.0146L158.756 10.5844C158.897 10.4443 159.012 10.3207 159.107 10.2094C159.198 10.0981 159.269 9.99505 159.318 9.89201C159.364 9.78896 159.388 9.6818 159.388 9.56227C159.388 9.43038 159.359 9.31498 159.297 9.22018C159.235 9.12538 159.153 9.05119 159.05 9.00173C158.946 8.95227 158.827 8.92342 158.69 8.92342C158.554 8.92342 158.43 8.95227 158.327 9.00998C158.223 9.06768 158.141 9.14599 158.087 9.24903C158.033 9.35207 158 9.47572 158 9.61998H157.273C157.273 9.35207 157.335 9.12126 157.455 8.92342C157.575 8.72558 157.744 8.57308 157.959 8.46592C158.174 8.35876 158.422 8.30518 158.699 8.30518C158.975 8.30518 159.227 8.35876 159.442 8.4618C159.657 8.56896 159.822 8.71322 159.942 8.89457C160.062 9.07592 160.119 9.28613 160.119 9.52106C160.119 9.67768 160.091 9.8343 160.029 9.98268C159.967 10.1352 159.863 10.3042 159.711 10.4855C159.558 10.6669 159.347 10.8936 159.074 11.1573L158.352 11.8951V11.924H160.181V12.5587H157.298V12.5628Z" fill="#1B1464"/>
<path id="Vector_39" d="M171.322 12.6411C170.983 12.6411 170.694 12.5546 170.45 12.3856C170.207 12.2166 170.025 11.9652 169.893 11.6437C169.765 11.3181 169.698 10.9265 169.698 10.469C169.698 10.0115 169.765 9.61998 169.893 9.29849C170.021 8.977 170.207 8.7297 170.45 8.56072C170.69 8.39173 170.983 8.30518 171.318 8.30518C171.652 8.30518 171.946 8.39173 172.185 8.56072C172.429 8.7297 172.615 8.977 172.743 9.29849C172.871 9.61998 172.937 10.0115 172.937 10.4649C172.937 10.9183 172.871 11.314 172.743 11.6396C172.615 11.9652 172.429 12.2125 172.185 12.3815C171.941 12.5505 171.652 12.637 171.314 12.637L171.322 12.6411ZM171.322 11.9982C171.586 11.9982 171.793 11.8704 171.946 11.6107C172.098 11.3511 172.173 10.9719 172.173 10.4649C172.173 10.1311 172.14 9.85079 172.069 9.6241C171.999 9.39741 171.9 9.2243 171.772 9.10889C171.644 8.99349 171.495 8.93579 171.322 8.93579C171.062 8.93579 170.855 9.06356 170.702 9.32322C170.549 9.58288 170.475 9.96207 170.471 10.4608C170.471 10.7946 170.504 11.079 170.574 11.3057C170.644 11.5324 170.744 11.7055 170.867 11.8209C170.996 11.9363 171.144 11.994 171.322 11.994V11.9982Z" fill="#1B1464"/>
<path id="Vector_40" d="M173.928 12.6082C173.804 12.6082 173.697 12.5629 173.606 12.4763C173.515 12.3898 173.474 12.2826 173.474 12.1548C173.474 12.0312 173.515 11.9281 173.606 11.8375C173.697 11.7468 173.8 11.7056 173.928 11.7056C174.056 11.7056 174.155 11.7509 174.242 11.8375C174.333 11.924 174.378 12.0312 174.378 12.1548C174.378 12.2373 174.354 12.3156 174.312 12.3815C174.271 12.4516 174.217 12.5052 174.147 12.5464C174.077 12.5876 174.007 12.6082 173.924 12.6082H173.928Z" fill="#1B1464"/>
<path id="Vector_41" d="M176.51 12.6206C176.213 12.6206 175.952 12.5711 175.721 12.4681C175.49 12.365 175.312 12.2249 175.176 12.0477C175.044 11.8663 174.973 11.6602 174.965 11.4212H175.738C175.746 11.5366 175.783 11.6314 175.849 11.7179C175.919 11.8004 176.01 11.8663 176.122 11.9117C176.237 11.957 176.361 11.9817 176.502 11.9817C176.655 11.9817 176.787 11.957 176.902 11.9034C177.018 11.8498 177.109 11.7756 177.175 11.685C177.241 11.5943 177.274 11.483 177.27 11.3594C177.27 11.2316 177.237 11.1203 177.171 11.0214C177.105 10.9225 177.006 10.8483 176.882 10.7947C176.754 10.7411 176.601 10.7123 176.423 10.7123H176.051V10.127H176.423C176.568 10.127 176.7 10.1023 176.807 10.0528C176.919 10.0033 177.006 9.92916 177.068 9.83848C177.13 9.74781 177.163 9.64064 177.158 9.51699C177.158 9.39747 177.134 9.29443 177.08 9.20787C177.026 9.12132 176.948 9.05125 176.853 9.00179C176.754 8.95233 176.642 8.9276 176.51 8.9276C176.378 8.9276 176.262 8.95233 176.151 8.99767C176.039 9.04301 175.952 9.10895 175.886 9.19551C175.82 9.28206 175.783 9.38098 175.779 9.50051H175.048C175.052 9.26557 175.122 9.05949 175.254 8.88226C175.386 8.70503 175.56 8.5649 175.779 8.46598C175.998 8.36706 176.241 8.31348 176.518 8.31348C176.795 8.31348 177.043 8.36706 177.249 8.4701C177.456 8.57314 177.617 8.71327 177.733 8.89051C177.844 9.06774 177.902 9.26145 177.902 9.47578C177.902 9.71071 177.832 9.90855 177.695 10.0693C177.555 10.23 177.373 10.3331 177.146 10.3825V10.4155C177.443 10.4567 177.667 10.5639 177.828 10.7411C177.985 10.9183 178.063 11.1368 178.063 11.4006C178.063 11.6355 177.997 11.8457 177.865 12.0312C177.733 12.2167 177.547 12.3609 177.315 12.4681C177.084 12.5711 176.816 12.6247 176.514 12.6247L176.51 12.6206Z" fill="#1B1464"/>
<path id="Vector_42" d="M135.08 46.3233C134.741 46.3233 134.452 46.2367 134.208 46.0677C133.964 45.8987 133.783 45.6473 133.65 45.3258C133.522 45.0002 133.456 44.6087 133.456 44.1512C133.456 43.6937 133.522 43.3021 133.65 42.9806C133.778 42.6591 133.964 42.4118 134.208 42.2428C134.448 42.0739 134.741 41.9873 135.076 41.9873C135.41 41.9873 135.703 42.0739 135.943 42.2428C136.187 42.4118 136.373 42.6591 136.501 42.9806C136.629 43.3021 136.695 43.6937 136.695 44.147C136.695 44.6004 136.629 44.9961 136.501 45.3217C136.373 45.6473 136.187 45.8946 135.943 46.0636C135.699 46.2326 135.41 46.3191 135.071 46.3191L135.08 46.3233ZM135.08 45.6844C135.344 45.6844 135.551 45.5566 135.703 45.297C135.856 45.0373 135.931 44.6581 135.931 44.1512C135.931 43.8173 135.897 43.537 135.827 43.3103C135.757 43.0837 135.658 42.9106 135.53 42.7951C135.402 42.6797 135.253 42.622 135.08 42.622C134.819 42.622 134.613 42.7498 134.46 43.0095C134.307 43.2691 134.233 43.6483 134.229 44.147C134.229 44.4809 134.262 44.7653 134.332 44.992C134.402 45.2187 134.501 45.3918 134.625 45.5072C134.753 45.6226 134.902 45.6803 135.08 45.6803V45.6844Z" fill="#1B1464"/>
<path id="Vector_43" d="M137.686 46.2898C137.562 46.2898 137.455 46.2445 137.364 46.158C137.273 46.0714 137.232 45.9642 137.232 45.8365C137.232 45.7128 137.273 45.6098 137.364 45.5191C137.455 45.4284 137.558 45.3872 137.686 45.3872C137.814 45.3872 137.913 45.4325 138 45.5191C138.091 45.6057 138.136 45.7128 138.136 45.8365C138.136 45.9189 138.112 45.9972 138.07 46.0632C138.029 46.1332 137.975 46.1868 137.905 46.228C137.835 46.2692 137.765 46.2898 137.682 46.2898H137.686Z" fill="#1B1464"/>
<path id="Vector_44" d="M138.822 45.4659V44.86L140.606 42.0449H141.11V42.9063H140.801L139.599 44.8064V44.8394H142.089V45.4659H138.818H138.822ZM140.829 46.2449V45.2804L140.838 45.0084V42.0449H141.556V46.2407H140.829V46.2449Z" fill="#1B1464"/>
<path id="Vector_45" d="M153.473 46.3233C153.135 46.3233 152.846 46.2367 152.602 46.0677C152.358 45.8987 152.176 45.6473 152.044 45.3258C151.916 45.0002 151.85 44.6087 151.85 44.1512C151.85 43.6937 151.916 43.3021 152.044 42.9806C152.172 42.6591 152.358 42.4118 152.602 42.2428C152.841 42.0739 153.135 41.9873 153.469 41.9873C153.804 41.9873 154.097 42.0739 154.337 42.2428C154.58 42.4118 154.766 42.6591 154.894 42.9806C155.022 43.3021 155.089 43.6937 155.089 44.147C155.089 44.6004 155.022 44.9961 154.894 45.3217C154.766 45.6473 154.58 45.8946 154.337 46.0636C154.093 46.2326 153.804 46.3191 153.465 46.3191L153.473 46.3233ZM153.473 45.6844C153.738 45.6844 153.944 45.5566 154.097 45.297C154.25 45.0373 154.324 44.6581 154.324 44.1512C154.324 43.8173 154.291 43.537 154.221 43.3103C154.151 43.0837 154.052 42.9106 153.924 42.7951C153.796 42.6797 153.647 42.622 153.473 42.622C153.213 42.622 153.007 42.7498 152.854 43.0095C152.701 43.2691 152.627 43.6483 152.623 44.147C152.623 44.4809 152.656 44.7653 152.726 44.992C152.796 45.2187 152.895 45.3918 153.019 45.5072C153.147 45.6226 153.296 45.6803 153.473 45.6803V45.6844Z" fill="#1B1464"/>
<path id="Vector_46" d="M156.08 46.2898C155.956 46.2898 155.849 46.2445 155.758 46.158C155.667 46.0714 155.625 45.9642 155.625 45.8365C155.625 45.7128 155.667 45.6098 155.758 45.5191C155.849 45.4284 155.952 45.3872 156.08 45.3872C156.208 45.3872 156.307 45.4325 156.394 45.5191C156.485 45.6057 156.53 45.7128 156.53 45.8365C156.53 45.9189 156.505 45.9972 156.464 46.0632C156.423 46.1332 156.369 46.1868 156.299 46.228C156.229 46.2692 156.158 46.2898 156.076 46.2898H156.08Z" fill="#1B1464"/>
<path id="Vector_47" d="M158.703 46.3024C158.43 46.3024 158.182 46.2488 157.968 46.1457C157.753 46.0427 157.579 45.9026 157.451 45.7212C157.323 45.5399 157.257 45.3338 157.249 45.103H157.988C158.001 45.2761 158.075 45.4162 158.211 45.5234C158.348 45.6305 158.509 45.6841 158.699 45.6841C158.847 45.6841 158.98 45.6511 159.095 45.5811C159.211 45.511 159.302 45.4162 159.372 45.2967C159.442 45.1772 159.471 45.037 159.471 44.8804C159.471 44.7238 159.438 44.5795 159.372 44.46C159.302 44.3363 159.211 44.2415 159.091 44.1715C158.971 44.1014 158.835 44.0643 158.678 44.0643C158.554 44.0643 158.43 44.0849 158.306 44.1344C158.186 44.1838 158.087 44.2457 158.017 44.324L157.327 44.2127L157.546 42.0488H159.987V42.6836H158.178L158.058 43.7964H158.083C158.162 43.7057 158.273 43.6274 158.414 43.5697C158.554 43.512 158.711 43.479 158.88 43.479C159.136 43.479 159.364 43.5409 159.562 43.6604C159.76 43.7799 159.917 43.9448 160.033 44.155C160.148 44.3652 160.206 44.6042 160.206 44.8721C160.206 45.1401 160.14 45.3956 160.016 45.614C159.892 45.8325 159.711 46.0015 159.483 46.1251C159.256 46.2488 158.996 46.3106 158.699 46.3106L158.703 46.3024Z" fill="#1B1464"/>
<path id="Vector_48" d="M171.346 46.3233C171.008 46.3233 170.719 46.2367 170.475 46.0677C170.231 45.8987 170.049 45.6473 169.917 45.3258C169.789 45.0002 169.723 44.6087 169.723 44.1512C169.723 43.6937 169.789 43.3021 169.917 42.9806C170.045 42.6591 170.231 42.4118 170.475 42.2428C170.714 42.0739 171.008 41.9873 171.342 41.9873C171.677 41.9873 171.97 42.0739 172.21 42.2428C172.453 42.4118 172.639 42.6591 172.767 42.9806C172.895 43.3021 172.962 43.6937 172.962 44.147C172.962 44.6004 172.895 44.9961 172.767 45.3217C172.639 45.6473 172.453 45.8946 172.21 46.0636C171.966 46.2326 171.677 46.3191 171.338 46.3191L171.346 46.3233ZM171.346 45.6844C171.611 45.6844 171.817 45.5566 171.97 45.297C172.123 45.0373 172.197 44.6581 172.197 44.1512C172.197 43.8173 172.164 43.537 172.094 43.3103C172.024 43.0837 171.925 42.9106 171.797 42.7951C171.669 42.6797 171.52 42.622 171.346 42.622C171.086 42.622 170.88 42.7498 170.727 43.0095C170.574 43.2691 170.5 43.6483 170.496 44.147C170.496 44.4809 170.529 44.7653 170.599 44.992C170.669 45.2187 170.768 45.3918 170.892 45.5072C171.02 45.6226 171.169 45.6803 171.346 45.6803V45.6844Z" fill="#1B1464"/>
<path id="Vector_49" d="M173.949 46.2898C173.825 46.2898 173.717 46.2445 173.627 46.158C173.536 46.0714 173.494 45.9642 173.494 45.8365C173.494 45.7128 173.536 45.6098 173.627 45.5191C173.717 45.4284 173.821 45.3872 173.949 45.3872C174.077 45.3872 174.176 45.4325 174.263 45.5191C174.354 45.6057 174.399 45.7128 174.399 45.8365C174.399 45.9189 174.374 45.9972 174.333 46.0632C174.292 46.1332 174.238 46.1868 174.168 46.228C174.097 46.2692 174.027 46.2898 173.945 46.2898H173.949Z" fill="#1B1464"/>
<path id="Vector_50" d="M176.539 46.3024C176.336 46.3024 176.142 46.2653 175.948 46.1953C175.758 46.1252 175.585 46.0139 175.432 45.8573C175.279 45.7007 175.155 45.4946 175.068 45.2308C174.977 44.9712 174.932 44.6455 174.936 44.2622C174.936 43.9037 174.973 43.5822 175.052 43.3019C175.13 43.0216 175.238 42.7826 175.382 42.5888C175.527 42.3951 175.7 42.2468 175.903 42.1437C176.105 42.0407 176.332 41.9912 176.584 41.9912C176.836 41.9912 177.084 42.0448 177.286 42.1478C177.493 42.2509 177.658 42.3951 177.782 42.5724C177.906 42.7537 177.984 42.9557 178.017 43.1782H177.27C177.233 43.0175 177.154 42.8897 177.034 42.7908C176.915 42.696 176.766 42.6466 176.584 42.6466C176.291 42.6466 176.068 42.7743 175.911 43.0257C175.754 43.2772 175.675 43.6275 175.675 44.0685H175.704C175.77 43.949 175.857 43.8459 175.965 43.7594C176.072 43.6728 176.192 43.6069 176.328 43.5574C176.464 43.5121 176.605 43.4874 176.758 43.4874C177.005 43.4874 177.224 43.5451 177.423 43.6646C177.621 43.78 177.774 43.9449 177.889 44.1509C178.005 44.357 178.063 44.592 178.059 44.8557C178.059 45.1319 177.997 45.3792 177.869 45.5976C177.741 45.8161 177.563 45.9892 177.336 46.1128C177.109 46.2406 176.844 46.3024 176.543 46.2983L176.539 46.3024ZM176.535 45.6883C176.683 45.6883 176.815 45.6512 176.935 45.5812C177.055 45.5111 177.146 45.4122 177.216 45.2885C177.286 45.1649 177.319 45.0289 177.315 44.8764C177.315 44.728 177.282 44.592 177.216 44.4683C177.15 44.3488 177.059 44.2499 176.944 44.1798C176.828 44.1097 176.696 44.0726 176.547 44.0726C176.435 44.0726 176.332 44.0932 176.237 44.1345C176.142 44.1757 176.06 44.2375 175.985 44.3117C175.915 44.3859 175.857 44.4724 175.816 44.5714C175.775 44.6703 175.754 44.7733 175.754 44.8846C175.754 45.033 175.791 45.1649 175.857 45.2885C175.923 45.4122 176.018 45.5111 176.134 45.5853C176.254 45.6595 176.386 45.6966 176.535 45.6966V45.6883Z" fill="#1B1464"/>
<path id="Vector_51" d="M135.373 79.5889C135.034 79.5889 134.745 79.5023 134.501 79.3333C134.258 79.1644 134.076 78.9129 133.944 78.5914C133.816 78.2658 133.75 77.8743 133.75 77.4168C133.75 76.9593 133.816 76.5677 133.944 76.2462C134.072 75.9248 134.258 75.6775 134.501 75.5085C134.741 75.3395 135.034 75.2529 135.369 75.2529C135.703 75.2529 135.997 75.3395 136.236 75.5085C136.48 75.6775 136.666 75.9248 136.794 76.2462C136.922 76.5677 136.988 76.9593 136.988 77.4127C136.988 77.866 136.922 78.2617 136.794 78.5873C136.666 78.9129 136.48 79.1602 136.236 79.3292C135.992 79.4982 135.703 79.5848 135.365 79.5848L135.373 79.5889ZM135.373 78.9459C135.637 78.9459 135.844 78.8181 135.997 78.5585C136.149 78.2988 136.224 77.9196 136.224 77.4127C136.224 77.0788 136.191 76.7985 136.12 76.5719C136.05 76.3452 135.951 76.1721 135.823 76.0566C135.695 75.9412 135.546 75.8835 135.373 75.8835C135.113 75.8835 134.906 76.0113 134.753 76.271C134.6 76.5306 134.526 76.9098 134.522 77.4085C134.522 77.7424 134.555 78.0268 134.625 78.2535C134.695 78.4802 134.795 78.6533 134.918 78.7687C135.047 78.8841 135.195 78.9418 135.373 78.9418V78.9459Z" fill="#1B1464"/>
<path id="Vector_52" d="M137.979 79.556C137.855 79.556 137.748 79.5106 137.657 79.4241C137.566 79.3375 137.525 79.2303 137.525 79.1026C137.525 78.9789 137.566 78.8759 137.657 78.7852C137.748 78.6945 137.851 78.6533 137.979 78.6533C138.107 78.6533 138.206 78.6987 138.293 78.7852C138.384 78.8718 138.43 78.9789 138.43 79.1026C138.43 79.185 138.405 79.2633 138.363 79.3293C138.322 79.3993 138.268 79.4529 138.198 79.4941C138.128 79.5353 138.058 79.556 137.975 79.556H137.979Z" fill="#1B1464"/>
<path id="Vector_53" d="M139.214 79.5103L141.003 75.978V75.9492H138.925V75.3145H141.788V75.9657L139.999 79.5144H139.21L139.214 79.5103Z" fill="#1B1464"/>
<path id="Vector_54" d="M153.49 79.5889C153.151 79.5889 152.862 79.5023 152.618 79.3333C152.375 79.1644 152.193 78.9129 152.061 78.5914C151.933 78.2658 151.866 77.8743 151.866 77.4168C151.866 76.9593 151.933 76.5677 152.061 76.2462C152.189 75.9248 152.375 75.6775 152.618 75.5085C152.858 75.3395 153.151 75.2529 153.486 75.2529C153.82 75.2529 154.114 75.3395 154.353 75.5085C154.597 75.6775 154.783 75.9248 154.911 76.2462C155.039 76.5677 155.105 76.9593 155.105 77.4127C155.105 77.866 155.039 78.2617 154.911 78.5873C154.783 78.9129 154.597 79.1602 154.353 79.3292C154.109 79.4982 153.82 79.5848 153.482 79.5848L153.49 79.5889ZM153.49 78.9459C153.754 78.9459 153.961 78.8181 154.114 78.5585C154.266 78.2988 154.341 77.9196 154.341 77.4127C154.341 77.0788 154.308 76.7985 154.237 76.5719C154.167 76.3452 154.068 76.1721 153.94 76.0566C153.812 75.9412 153.663 75.8835 153.49 75.8835C153.23 75.8835 153.023 76.0113 152.87 76.271C152.717 76.5306 152.643 76.9098 152.639 77.4085C152.639 77.7424 152.672 78.0268 152.742 78.2535C152.812 78.4802 152.911 78.6533 153.035 78.7687C153.163 78.8841 153.312 78.9418 153.49 78.9418V78.9459Z" fill="#1B1464"/>
<path id="Vector_55" d="M156.092 79.556C155.968 79.556 155.861 79.5106 155.77 79.4241C155.679 79.3375 155.638 79.2303 155.638 79.1026C155.638 78.9789 155.679 78.8759 155.77 78.7852C155.861 78.6945 155.964 78.6533 156.092 78.6533C156.22 78.6533 156.319 78.6987 156.406 78.7852C156.497 78.8718 156.542 78.9789 156.542 79.1026C156.542 79.185 156.518 79.2633 156.476 79.3293C156.435 79.3993 156.381 79.4529 156.311 79.4941C156.241 79.5353 156.171 79.556 156.088 79.556H156.092Z" fill="#1B1464"/>
<path id="Vector_56" d="M158.645 79.5683C158.339 79.5683 158.071 79.5189 157.831 79.4158C157.596 79.3128 157.41 79.1727 157.278 78.9954C157.145 78.8182 157.079 78.6162 157.079 78.3895C157.079 78.2123 157.117 78.0516 157.195 77.9032C157.273 77.7548 157.377 77.6312 157.513 77.5322C157.649 77.4333 157.794 77.3715 157.959 77.3427V77.3138C157.744 77.2643 157.567 77.1572 157.435 76.9841C157.302 76.811 157.236 76.6131 157.236 76.3864C157.236 76.1721 157.294 75.9784 157.418 75.8094C157.538 75.6404 157.707 75.5044 157.918 75.4096C158.129 75.3107 158.372 75.2612 158.645 75.2612C158.917 75.2612 159.157 75.3107 159.368 75.4096C159.578 75.5085 159.748 75.6404 159.868 75.8094C159.991 75.9784 160.053 76.1721 160.053 76.3864C160.053 76.6131 159.987 76.8151 159.851 76.9841C159.715 77.1572 159.541 77.2685 159.331 77.3138V77.3427C159.496 77.3715 159.644 77.4333 159.777 77.5322C159.909 77.6312 160.016 77.7548 160.095 77.9032C160.173 78.0516 160.214 78.2123 160.214 78.3895C160.214 78.6162 160.148 78.8182 160.012 78.9954C159.876 79.1727 159.694 79.3128 159.459 79.4158C159.223 79.5189 158.955 79.5683 158.649 79.5683H158.645ZM158.645 78.9789C158.802 78.9789 158.938 78.9501 159.054 78.8965C159.169 78.8429 159.26 78.7646 159.326 78.6698C159.392 78.5709 159.426 78.4596 159.426 78.3277C159.426 78.1917 159.388 78.0763 159.322 77.9733C159.256 77.8702 159.161 77.7878 159.046 77.7301C158.93 77.6724 158.794 77.6435 158.645 77.6435C158.496 77.6435 158.36 77.6724 158.244 77.7301C158.129 77.7878 158.034 77.8702 157.967 77.9733C157.901 78.0763 157.868 78.1958 157.868 78.3277C157.868 78.4555 157.897 78.5709 157.963 78.6657C158.029 78.7646 158.12 78.8388 158.236 78.8924C158.352 78.946 158.492 78.9748 158.649 78.9748L158.645 78.9789ZM158.645 77.0706C158.773 77.0706 158.889 77.0459 158.988 76.9923C159.087 76.9387 159.165 76.8687 159.223 76.7739C159.281 76.6791 159.31 76.5719 159.31 76.4524C159.31 76.3329 159.281 76.2257 159.223 76.135C159.165 76.0443 159.091 75.9743 158.988 75.9248C158.889 75.8754 158.773 75.8506 158.645 75.8506C158.517 75.8506 158.397 75.8754 158.294 75.9248C158.195 75.9743 158.116 76.0443 158.058 76.135C158.005 76.2257 157.976 76.3329 157.976 76.4524C157.976 76.5719 158 76.6791 158.058 76.7739C158.116 76.8645 158.195 76.9387 158.294 76.9923C158.393 77.0459 158.509 77.0706 158.641 77.0706H158.645Z" fill="#1B1464"/>
<path id="Vector_57" d="M171.297 79.5889C170.958 79.5889 170.669 79.5023 170.425 79.3333C170.182 79.1644 170 78.9129 169.868 78.5914C169.74 78.2658 169.674 77.8743 169.674 77.4168C169.674 76.9593 169.74 76.5677 169.868 76.2462C169.996 75.9248 170.182 75.6775 170.425 75.5085C170.665 75.3395 170.958 75.2529 171.293 75.2529C171.627 75.2529 171.921 75.3395 172.16 75.5085C172.404 75.6775 172.59 75.9248 172.718 76.2462C172.846 76.5677 172.912 76.9593 172.912 77.4127C172.912 77.866 172.846 78.2617 172.718 78.5873C172.59 78.9129 172.404 79.1602 172.16 79.3292C171.917 79.4982 171.627 79.5848 171.289 79.5848L171.297 79.5889ZM171.297 78.9459C171.561 78.9459 171.768 78.8181 171.921 78.5585C172.073 78.2988 172.148 77.9196 172.148 77.4127C172.148 77.0788 172.115 76.7985 172.045 76.5719C171.974 76.3452 171.875 76.1721 171.747 76.0566C171.619 75.9412 171.47 75.8835 171.297 75.8835C171.037 75.8835 170.83 76.0113 170.677 76.271C170.525 76.5306 170.45 76.9098 170.446 77.4085C170.446 77.7424 170.479 78.0268 170.549 78.2535C170.62 78.4802 170.719 78.6533 170.843 78.7687C170.971 78.8841 171.119 78.9418 171.297 78.9418V78.9459Z" fill="#1B1464"/>
<path id="Vector_58" d="M173.899 79.556C173.775 79.556 173.668 79.5106 173.577 79.4241C173.486 79.3375 173.445 79.2303 173.445 79.1026C173.445 78.9789 173.486 78.8759 173.577 78.7852C173.668 78.6945 173.771 78.6533 173.899 78.6533C174.027 78.6533 174.126 78.6987 174.213 78.7852C174.304 78.8718 174.349 78.9789 174.349 79.1026C174.349 79.185 174.325 79.2633 174.283 79.3293C174.242 79.3993 174.188 79.4529 174.118 79.4941C174.048 79.5353 173.978 79.556 173.895 79.556H173.899Z" fill="#1B1464"/>
<path id="Vector_59" d="M176.51 75.2568C176.712 75.2568 176.906 75.2939 177.096 75.3639C177.286 75.434 177.46 75.5453 177.613 75.7019C177.765 75.8585 177.889 76.0646 177.976 76.3243C178.067 76.5839 178.112 76.9054 178.112 77.2887C178.112 77.6514 178.075 77.9729 177.997 78.2532C177.918 78.5376 177.807 78.7766 177.666 78.9704C177.522 79.1641 177.348 79.3124 177.146 79.4155C176.943 79.5185 176.716 79.568 176.46 79.568C176.204 79.568 175.96 79.5144 175.754 79.4114C175.547 79.3083 175.382 79.1641 175.258 78.9868C175.134 78.8096 175.056 78.5994 175.027 78.3686H175.775C175.812 78.5335 175.89 78.6695 176.01 78.7643C176.13 78.8632 176.278 78.9126 176.46 78.9126C176.753 78.9126 176.977 78.7849 177.133 78.5335C177.29 78.282 177.369 77.9276 177.369 77.4783H177.34C177.274 77.5978 177.187 77.7009 177.08 77.7874C176.972 77.874 176.853 77.9399 176.716 77.9853C176.58 78.0306 176.44 78.0553 176.287 78.0553C176.039 78.0553 175.82 77.9976 175.622 77.8781C175.423 77.7586 175.271 77.5978 175.155 77.3959C175.039 77.1898 174.981 76.9549 174.981 76.6911C174.981 76.4191 175.043 76.1718 175.171 75.9533C175.299 75.7349 175.473 75.5618 175.704 75.4381C175.931 75.3103 176.196 75.2485 176.502 75.2526L176.51 75.2568ZM176.51 75.8709C176.361 75.8709 176.229 75.908 176.109 75.978C175.989 76.0481 175.898 76.147 175.828 76.2707C175.758 76.3943 175.725 76.5303 175.725 76.6787C175.725 76.8271 175.758 76.9631 175.828 77.0826C175.894 77.2022 175.985 77.3011 176.101 77.3712C176.216 77.4412 176.349 77.4783 176.497 77.4783C176.609 77.4783 176.712 77.4577 176.807 77.4165C176.902 77.3753 176.985 77.3134 177.059 77.2393C177.129 77.1651 177.187 77.0785 177.229 76.9796C177.27 76.8807 177.286 76.7818 177.286 76.6705C177.286 76.5262 177.253 76.3943 177.183 76.2748C177.117 76.1553 177.022 76.0564 176.906 75.9822C176.791 75.908 176.654 75.8709 176.506 75.8709H176.51Z" fill="#1B1464"/>
<path id="Vector_60" d="M52.0955 44.6745L49.5511 47.0362L49.1586 46.6116L50.8068 45.0866H27.2622V44.2623H50.8068L49.1586 42.7373L49.5511 42.3169L52.0955 44.6745Z" fill="#1B1464"/>
<path id="Vector_61" d="M48.7662 63.4443L47.746 66.7581L47.1925 66.5891L47.8534 64.45L27.4687 76.1925L27.0557 75.4753L47.4362 63.7328L45.2511 63.2341L45.3874 62.6694L48.7662 63.4443Z" fill="#1B1464"/>
<path id="Vector_62" d="M48.7662 27.2685L45.3874 28.0434L45.2511 27.4828L47.4444 26.9841L27.0557 15.2375L27.4687 14.5244L47.8534 26.2669L47.1925 24.1278L47.746 23.9588L48.7662 27.2685Z" fill="#1B1464"/>
<path id="Vector_63" d="M98.7261 27.6271L119.115 15.8804L118.454 18.0237L119.007 18.1927L120.028 14.8789L116.641 14.104L116.513 14.6687L118.698 15.1674L98.313 26.914L98.7261 27.6271Z" fill="#1B1464"/>
<path id="Vector_64" d="M118.454 72.6935L119.111 74.8326L98.7261 63.0859L98.313 63.8031L118.702 75.5456L116.513 76.0485L116.641 76.609L120.028 75.8342L119.007 72.5204L118.454 72.6935Z" fill="#1B1464"/>
<path id="Vector_65" d="M120.808 42.3169L120.416 42.7373L122.06 44.2623H98.5195V45.0866H122.06L120.416 46.6116L120.808 47.0362L123.353 44.6745L120.808 42.3169Z" fill="#1B1464"/>
</g>
<defs>
<clipPath id="clip0_2366_1682">
<rect width="184.337" height="90" fill="white"/>
</clipPath>
</defs>
</svg>
