<svg width="54" height="48" viewBox="0 0 54 48" fill="none" xmlns="http://www.w3.org/2000/svg">
<g id="Group 2860">
<path id="Vector" d="M36.72 11.1797H0V47.8997H36.72V11.1797Z" fill="#61BD73"/>
<g id="Group 2829">
<path id="Vector_2" d="M53.1614 37.6901H24.6914V15.5801H53.1614V37.6901ZM26.1914 36.1901H51.6614V17.0801H26.1914V36.1901Z" fill="#130C49"/>
<path id="Vector_3" d="M47.5589 17.05H30.3789V7.7C30.3789 3.45 33.8389 0 38.0789 0H39.8489C44.0989 0 47.5489 3.46 47.5489 7.7V17.05H47.5589ZM31.8789 15.55H46.0589V7.7C46.0589 4.28 43.2789 1.5 39.8589 1.5H38.0889C34.6689 1.5 31.8889 4.28 31.8889 7.7V15.55H31.8789Z" fill="#130C49"/>
<path id="Vector_4" d="M38.9219 29.1504C38.5119 29.1504 38.1719 28.8104 38.1719 28.4004V23.9004C38.1719 23.4904 38.5119 23.1504 38.9219 23.1504C39.3319 23.1504 39.6719 23.4904 39.6719 23.9004V28.4004C39.6719 28.8104 39.3319 29.1504 38.9219 29.1504Z" fill="#130C49"/>
</g>
</g>
</svg>
