<svg width="57" height="50" viewBox="0 0 57 50" fill="none" xmlns="http://www.w3.org/2000/svg">
<g id="Group 2862">
<path id="Vector" d="M36.6827 13.4873H0V49.9997H36.6827V13.4873Z" fill="#61BD73"/>
<g id="Group 2830">
<path id="Vector_2" d="M49.4334 10.4463C50.2626 12.3554 50.7221 14.4634 50.7221 16.6808C50.7221 25.3416 43.6693 32.3617 34.9681 32.3617C30.8923 32.3617 27.1761 30.8204 24.3789 28.2849" stroke="#130C49" stroke-width="1.5" stroke-linecap="round" stroke-linejoin="round"/>
<path id="Vector_3" d="M45.0781 17.1973L46.4467 17.7939L49.4337 11.0721L55.9571 14.5325L56.6564 13.21L48.7144 9.00391L45.0781 17.1973Z" fill="#130C49"/>
<path id="Vector_4" d="M19.6444 20.3301C19.3647 19.1568 19.2148 17.9337 19.2148 16.6808C19.2148 8.02008 26.2677 1 34.9688 1C38.755 1 42.2314 2.33242 44.9487 4.54981" stroke="#130C49" stroke-width="1.5" stroke-linecap="round" stroke-linejoin="round"/>
<path id="Vector_5" d="M25.0977 14.4329L23.849 13.5977L19.7531 19.7228L13.9191 15.2085L13 16.3918L20.1028 21.8806L25.0977 14.4329Z" fill="#130C49"/>
</g>
</g>
</svg>
