<svg width="84" height="79" viewBox="0 0 84 79" fill="none" xmlns="http://www.w3.org/2000/svg">
<g style="mix-blend-mode:plus-lighter" opacity="0.8">
<path d="M31.793 30.7026L42.0223 36.5626L52.1745 30.7283L42.6895 25.2569C42.2449 25.0004 41.6969 25.0004 41.2523 25.2564L31.793 30.7026Z" fill="#DEFBFF"/>
<path fill-rule="evenodd" clip-rule="evenodd" d="M42.0234 36.5628V41.1891L51.4205 35.6417C51.8569 35.3841 52.1258 34.9159 52.1278 34.409L52.1756 30.7285L42.0234 36.5628Z" fill="#74858A"/>
<path d="M42.0223 36.5631L31.793 30.7031V34.543C31.793 35.0611 32.0711 35.5387 32.5214 35.7947L42.0223 41.1894V36.5631Z" fill="#A7BBBF"/>
<path d="M21.1953 36.9096L31.4246 42.7696L41.5768 36.9353L32.0918 31.4639C31.6472 31.2074 31.0992 31.2074 30.6546 31.4634L21.1953 36.9096Z" fill="#DEFBFF"/>
<path fill-rule="evenodd" clip-rule="evenodd" d="M31.4219 42.7699V47.3962L40.819 41.8487C41.2554 41.5912 41.5242 41.1229 41.5263 40.616L41.5741 36.9355L31.4219 42.7699Z" fill="#74858A"/>
<path d="M31.4246 42.7702L21.1953 36.9102V40.75C21.1953 41.2682 21.4734 41.7457 21.9237 42.0017L31.4246 47.3965V42.7702Z" fill="#A7BBBF"/>
<path d="M42.3906 36.9096L52.6199 42.7696L62.7721 36.9353L53.2872 31.4639C52.8425 31.2074 52.2946 31.2074 51.8499 31.4634L42.3906 36.9096Z" fill="#DEFBFF"/>
<path fill-rule="evenodd" clip-rule="evenodd" d="M52.6172 42.7699V47.3962L62.0143 41.8487C62.4507 41.5912 62.7195 41.1229 62.7216 40.616L62.7694 36.9355L52.6172 42.7699Z" fill="#74858A"/>
<path d="M52.6199 42.7702L42.3906 36.9102V40.75C42.3906 41.2682 42.6687 41.7457 43.119 42.0017L52.6199 47.3965V42.7702Z" fill="#A7BBBF"/>
<path d="M31.793 43.1186L42.0223 48.9786L52.1745 43.1443L42.6895 37.6729C42.2449 37.4164 41.6969 37.4164 41.2523 37.6724L31.793 43.1186Z" fill="#DEFBFF"/>
<path fill-rule="evenodd" clip-rule="evenodd" d="M42.0234 48.9788V53.6051L51.4205 48.0577C51.8569 47.8002 52.1258 47.3319 52.1278 46.825L52.1756 43.1445L42.0234 48.9788Z" fill="#74858A"/>
<path d="M42.0223 48.9792L31.793 43.1191V46.959C31.793 47.4771 32.0711 47.9547 32.5214 48.2107L42.0223 53.6055V48.9792Z" fill="#A7BBBF"/>
<path d="M52.9883 43.1186L63.2176 48.9786L73.3698 43.1443L63.8848 37.6729C63.4402 37.4164 62.8922 37.4164 62.4476 37.6724L52.9883 43.1186Z" fill="#DEFBFF"/>
<path fill-rule="evenodd" clip-rule="evenodd" d="M63.2188 48.9788V53.6051L72.6158 48.0577C73.0522 47.8002 73.3211 47.3319 73.3231 46.825L73.3709 43.1445L63.2188 48.9788Z" fill="#74858A"/>
<path d="M63.2176 48.9792L52.9883 43.1191V46.959C52.9883 47.4771 53.2664 47.9547 53.7167 48.2107L63.2176 53.6055V48.9792Z" fill="#A7BBBF"/>
<path d="M42.3906 49.3256L52.6199 55.1856L62.7721 49.3513L53.2872 43.8799C52.8425 43.6234 52.2946 43.6234 51.8499 43.8794L42.3906 49.3256Z" fill="#DEFBFF"/>
<path fill-rule="evenodd" clip-rule="evenodd" d="M52.6172 55.1859V59.8122L62.0143 54.2647C62.4507 54.0072 62.7195 53.5389 62.7216 53.0321L62.7694 49.3516L52.6172 55.1859Z" fill="#74858A"/>
<path d="M52.6199 55.1862L42.3906 49.3262V53.166C42.3906 53.6842 42.6687 54.1617 43.119 54.4177L52.6199 59.8125V55.1862Z" fill="#A7BBBF"/>
<path d="M63.5859 49.3256L73.8153 55.1856L83.9674 49.3513L74.4825 43.8799C74.0378 43.6234 73.4899 43.6234 73.0452 43.8794L63.5859 49.3256Z" fill="#DEFBFF"/>
<path fill-rule="evenodd" clip-rule="evenodd" d="M73.8164 55.1859V59.8122L83.2135 54.2647C83.6499 54.0072 83.9187 53.5389 83.9208 53.0321L83.9686 49.3516L73.8164 55.1859Z" fill="#74858A"/>
<path d="M73.8152 55.1862L63.5859 49.3262V53.166C63.5859 53.6842 63.864 54.1617 64.3143 54.4177L73.8152 59.8125V55.1862Z" fill="#A7BBBF"/>
<path d="M52.9883 55.5327L63.2176 61.3927L73.3698 55.5584L63.8848 50.087C63.4402 49.8305 62.8922 49.8305 62.4476 50.0865L52.9883 55.5327Z" fill="#DEFBFF"/>
<path fill-rule="evenodd" clip-rule="evenodd" d="M63.2188 61.3929V66.0192L72.6158 60.4718C73.0522 60.2142 73.3211 59.7459 73.3231 59.2391L73.3709 55.5586L63.2188 61.3929Z" fill="#74858A"/>
<path d="M63.2176 61.3932L52.9883 55.5332V59.3731C52.9883 59.8912 53.2664 60.3687 53.7167 60.6247L63.2176 66.0195V61.3932Z" fill="#A7BBBF"/>
<path d="M10.5977 43.1186L20.827 48.9786L30.9792 43.1443L21.4942 37.6729C21.0495 37.4164 20.5016 37.4164 20.0569 37.6724L10.5977 43.1186Z" fill="#DEFBFF"/>
<path fill-rule="evenodd" clip-rule="evenodd" d="M20.8281 48.9788V53.6051L30.2252 48.0577C30.6616 47.8002 30.9305 47.3319 30.9325 46.825L30.9803 43.1445L20.8281 48.9788Z" fill="#74858A"/>
<path d="M20.827 48.9792L10.5977 43.1191V46.959C10.5977 47.4771 10.8757 47.9547 11.326 48.2107L20.827 53.6055V48.9792Z" fill="#A7BBBF"/>
<path d="M0 49.3256L10.2293 55.1856L20.3815 49.3513L10.8965 43.8799C10.4519 43.6234 9.90393 43.6234 9.45929 43.8794L0 49.3256Z" fill="#DEFBFF"/>
<path fill-rule="evenodd" clip-rule="evenodd" d="M10.2305 55.1859V59.8122L19.6275 54.2647C20.064 54.0072 20.3328 53.5389 20.3349 53.0321L20.3827 49.3516L10.2305 55.1859Z" fill="#74858A"/>
<path d="M10.2293 55.1862L0 49.3262V53.166C0 53.6842 0.278093 54.1617 0.728388 54.4177L10.2293 59.8125V55.1862Z" fill="#A7BBBF"/>
<path d="M21.1953 49.3256L31.4246 55.1856L41.5768 49.3513L32.0918 43.8799C31.6472 43.6234 31.0992 43.6234 30.6546 43.8794L21.1953 49.3256Z" fill="#DEFBFF"/>
<path fill-rule="evenodd" clip-rule="evenodd" d="M31.4219 55.1859V59.8122L40.819 54.2647C41.2554 54.0072 41.5242 53.5389 41.5263 53.0321L41.5741 49.3516L31.4219 55.1859Z" fill="#74858A"/>
<path d="M31.4246 55.1862L21.1953 49.3262V53.166C21.1953 53.6842 21.4734 54.1617 21.9237 54.4177L31.4246 59.8125V55.1862Z" fill="#A7BBBF"/>
<path d="M10.5977 55.5327L20.827 61.3927L30.9792 55.5584L21.4942 50.087C21.0495 49.8305 20.5016 49.8305 20.0569 50.0865L10.5977 55.5327Z" fill="#DEFBFF"/>
<path fill-rule="evenodd" clip-rule="evenodd" d="M20.8281 61.3929V66.0192L30.2252 60.4718C30.6616 60.2142 30.9305 59.7459 30.9325 59.2391L30.9803 55.5586L20.8281 61.3929Z" fill="#74858A"/>
<path d="M20.827 61.3932L10.5977 55.5332V59.3731C10.5977 59.8912 10.8757 60.3687 11.326 60.6247L20.827 66.0195V61.3932Z" fill="#A7BBBF"/>
<path d="M31.793 55.5327L42.0223 61.3927L52.1745 55.5584L42.6895 50.087C42.2449 49.8305 41.6969 49.8305 41.2523 50.0865L31.793 55.5327Z" fill="#DEFBFF"/>
<path fill-rule="evenodd" clip-rule="evenodd" d="M42.0234 61.3929V66.0192L51.4205 60.4718C51.8569 60.2142 52.1258 59.7459 52.1278 59.2391L52.1756 55.5586L42.0234 61.3929Z" fill="#74858A"/>
<path d="M42.0223 61.3932L31.793 55.5332V59.3731C31.793 59.8912 32.0711 60.3687 32.5214 60.6247L42.0223 66.0195V61.3932Z" fill="#A7BBBF"/>
<path d="M21.1953 61.7397L31.4246 67.5997L41.5768 61.7654L32.0918 56.294C31.6472 56.0375 31.0992 56.0375 30.6546 56.2935L21.1953 61.7397Z" fill="#DEFBFF"/>
<path fill-rule="evenodd" clip-rule="evenodd" d="M31.4219 67.5999V72.2262L40.819 66.6788C41.2554 66.4213 41.5242 65.953 41.5263 65.4461L41.5741 61.7656L31.4219 67.5999Z" fill="#74858A"/>
<path d="M31.4246 67.6002L21.1953 61.7402V65.5801C21.1953 66.0982 21.4734 66.5758 21.9237 66.8318L31.4246 72.2266V67.6002Z" fill="#A7BBBF"/>
<path d="M42.3906 61.7397L52.6199 67.5997L62.7721 61.7654L53.2872 56.294C52.8425 56.0375 52.2946 56.0375 51.8499 56.2935L42.3906 61.7397Z" fill="#DEFBFF"/>
<path fill-rule="evenodd" clip-rule="evenodd" d="M52.6172 67.5999V72.2262L62.0143 66.6788C62.4507 66.4213 62.7195 65.953 62.7216 65.4461L62.7694 61.7656L52.6172 67.5999Z" fill="#74858A"/>
<path d="M52.6199 67.6002L42.3906 61.7402V65.5801C42.3906 66.0982 42.6687 66.5758 43.119 66.8318L52.6199 72.2266V67.6002Z" fill="#A7BBBF"/>
<path d="M31.793 67.9467L42.0223 73.8067L52.1745 67.9724L42.6895 62.501C42.2449 62.2445 41.6969 62.2445 41.2523 62.5005L31.793 67.9467Z" fill="#DEFBFF"/>
<path fill-rule="evenodd" clip-rule="evenodd" d="M42.0234 73.807V78.4333L51.4205 72.8858C51.8569 72.6283 52.1258 72.16 52.1278 71.6532L52.1756 67.9727L42.0234 73.807Z" fill="#74858A"/>
<path d="M42.0223 73.8073L31.793 67.9473V71.7871C31.793 72.3053 32.0711 72.7828 32.5214 73.0388L42.0223 78.4336V73.8073Z" fill="#A7BBBF"/>
<g opacity="0.8">
<path d="M22.8555 39.6169L31.2994 44.4541L39.6796 39.6381L31.85 35.1218C31.4829 34.9101 31.0308 34.9099 30.6636 35.1214L22.8555 39.6169Z" fill="#82FFFE"/>
<path fill-rule="evenodd" clip-rule="evenodd" d="M31.3008 44.4547V53.7472L39.0576 49.1681C39.4179 48.9554 39.6398 48.5689 39.6417 48.1504L39.681 39.6387L31.3008 44.4547Z" fill="#288BB9"/>
<path d="M31.2993 44.4544L22.8555 39.6172V48.2605C22.8555 48.688 23.0851 49.0826 23.4569 49.2937L31.2993 53.7469V44.4544Z" fill="#59BFEA"/>
<mask id="mask0_8470_2547" style="mask-type:luminance" maskUnits="userSpaceOnUse" x="22" y="34" width="19" height="21">
<path d="M22.0078 34.1016H40.5504V54.7657H22.0078V34.1016ZM22.8564 39.6177L31.3003 44.4549L39.6806 39.6389L31.8509 35.1226C31.4838 34.9108 31.0317 34.9106 30.6646 35.1222L22.8564 39.6177ZM31.3003 44.4549V53.7474L39.0571 49.1683C39.4175 48.9556 39.6393 48.5691 39.6412 48.1507L39.6806 39.6389L31.3003 44.4549ZM31.3003 44.4549L22.8564 39.6177V48.261C22.8564 48.6885 23.0861 49.0831 23.4578 49.2941L31.3003 53.7474V44.4549Z" fill="white"/>
</mask>
<g mask="url(#mask0_8470_2547)">
<path d="M31.2579 34.7807L31.4699 34.4132L31.2581 34.291L31.0461 34.413L31.2579 34.7807ZM22.8564 48.9528H22.4321V49.1998L22.6469 49.3218L22.8564 48.9528ZM39.6381 48.8255L39.8538 49.1909L40.0613 49.0685L40.0624 48.8275L39.6381 48.8255ZM22.6455 39.9861L31.0894 44.8233L31.5112 44.0869L23.0673 39.2497L22.6455 39.9861ZM31.5117 44.823L39.892 40.007L39.4691 39.2712L31.0889 44.0872L31.5117 44.823ZM31.7246 53.7476V44.4551H30.876V53.7476H31.7246ZM31.0461 34.413L30.4528 34.7546L30.8762 35.4901L31.4696 35.1484L31.0461 34.413ZM22.4321 48.2612V48.9528H23.2808V48.2612H22.4321ZM22.6469 49.3218L23.2483 49.6633L23.6674 48.9254L23.0659 48.5839L22.6469 49.3218ZM39.4224 48.4602L38.8414 48.8031L39.2728 49.5339L39.8538 49.1909L39.4224 48.4602ZM39.2169 48.1489L39.2138 48.8236L40.0624 48.8275L40.0655 48.1528L39.2169 48.1489ZM32.063 34.7552L31.4699 34.4132L31.0458 35.1482L31.639 35.4904L32.063 34.7552ZM22.8564 39.6179L22.433 38.8825L22.0078 39.1273V39.6179H22.8564ZM39.6806 39.6391L40.5292 39.643L40.5314 39.1503L40.1046 38.904L39.6806 39.6391ZM31.3003 53.7476L30.8813 54.4856L31.3086 54.7282L31.7317 54.4784L31.3003 53.7476ZM31.4269 35.8579L39.2565 40.3742L40.1046 38.904L32.275 34.3877L31.4269 35.8579ZM38.8319 39.6352L38.7926 48.147L40.4899 48.1548L40.5292 39.643L38.8319 39.6352ZM38.7926 48.147C38.7921 48.2665 38.7287 48.377 38.6257 48.4377L39.4886 49.8993C40.1062 49.5347 40.4865 48.8721 40.4899 48.1548L38.7926 48.147ZM38.6257 48.4377L30.8689 53.0168L31.7317 54.4784L39.4886 49.8993L38.6257 48.4377ZM31.7194 53.0096L23.8769 48.5564L23.0388 50.0323L30.8813 54.4856L31.7194 53.0096ZM23.8769 48.5564C23.7707 48.4961 23.7051 48.3834 23.7051 48.2612H22.0078C22.0078 48.9941 22.4015 49.6704 23.0388 50.0323L23.8769 48.5564ZM23.7051 48.2612V39.6179H22.0078V48.2612H23.7051ZM23.2799 40.3533L31.0879 35.8578L30.2411 34.3869L22.433 38.8825L23.2799 40.3533ZM31.0879 35.8578C31.1929 35.7974 31.322 35.7974 31.4269 35.8579L32.275 34.3877C31.6457 34.0247 30.8707 34.0244 30.2411 34.3869L31.0879 35.8578Z" fill="#3CCBF4"/>
</g>
</g>
<g opacity="0.8">
<path d="M44.3438 51.8943L52.7876 56.7315L61.1679 51.9155L53.3383 47.3992C52.9712 47.1874 52.5191 47.1872 52.1518 47.3987L44.3438 51.8943Z" fill="#82FFFE"/>
<path fill-rule="evenodd" clip-rule="evenodd" d="M52.7852 56.73V66.0226L60.542 61.4435C60.9023 61.2308 61.1241 60.8443 61.1261 60.4258L61.1654 51.9141L52.7852 56.73Z" fill="#288BB9"/>
<path d="M52.7876 56.7298L44.3438 51.8926V60.5359C44.3438 60.9634 44.5734 61.358 44.9452 61.5691L52.7876 66.0223V56.7298Z" fill="#59BFEA"/>
<mask id="mask1_8470_2547" style="mask-type:luminance" maskUnits="userSpaceOnUse" x="43" y="46" width="20" height="22">
<path d="M43.4922 46.377H62.0348V67.0411H43.4922V46.377ZM44.3408 51.8931L52.7847 56.7303L61.165 51.9143L53.3353 47.398C52.9682 47.1862 52.5161 47.186 52.1489 47.3975L44.3408 51.8931ZM52.7847 56.7303V66.0228L60.5415 61.4437C60.9018 61.231 61.1236 60.8445 61.1256 60.4261L61.165 51.9143L52.7847 56.7303ZM52.7847 56.7303L44.3408 51.8931V60.5363C44.3408 60.9639 44.5705 61.3585 44.9421 61.5695L52.7847 66.0228V56.7303Z" fill="white"/>
</mask>
<g mask="url(#mask1_8470_2547)">
<path d="M52.7423 47.0561L52.9543 46.6885L52.7425 46.5663L52.5305 46.6884L52.7423 47.0561ZM44.3408 61.2282H43.9165V61.4752L44.1313 61.5972L44.3408 61.2282ZM61.1225 61.1009L61.3382 61.4663L61.5457 61.3439L61.5468 61.1029L61.1225 61.1009ZM44.1299 52.2615L52.5738 57.0987L52.9956 56.3623L44.5517 51.5251L44.1299 52.2615ZM52.9961 57.0984L61.3764 52.2824L60.9535 51.5466L52.5732 56.3626L52.9961 57.0984ZM53.209 66.023V56.7305H52.3604V66.023H53.209ZM52.5305 46.6884L51.9372 47.03L52.3606 47.7655L52.954 47.4238L52.5305 46.6884ZM43.9165 60.5366V61.2282H44.7651V60.5366H43.9165ZM44.1313 61.5972L44.7327 61.9387L45.1518 61.2008L44.5503 60.8592L44.1313 61.5972ZM60.9068 60.7356L60.3258 61.0785L60.7572 61.8093L61.3382 61.4663L60.9068 60.7356ZM60.7013 60.4243L60.6982 61.099L61.5468 61.1029L61.5499 60.4282L60.7013 60.4243ZM53.5473 47.0306L52.9543 46.6885L52.5302 47.4236L53.1233 47.7658L53.5473 47.0306ZM44.3408 51.8933L43.9174 51.1579L43.4922 51.4027V51.8933H44.3408ZM61.1649 51.9145L62.0136 51.9184L62.0158 51.4256L61.5889 51.1794L61.1649 51.9145ZM52.7847 66.023L52.3656 66.761L52.793 67.0036L53.2161 66.7538L52.7847 66.023ZM52.9113 48.1333L60.7409 52.6496L61.5889 51.1794L53.7594 46.6631L52.9113 48.1333ZM60.3163 51.9106L60.277 60.4224L61.9742 60.4302L62.0136 51.9184L60.3163 51.9106ZM60.277 60.4224C60.2765 60.5419 60.2131 60.6523 60.1101 60.7131L60.9729 62.1747C61.5906 61.8101 61.9709 61.1474 61.9742 60.4302L60.277 60.4224ZM60.1101 60.7131L52.3533 65.2922L53.2161 66.7538L60.9729 62.1747L60.1101 60.7131ZM53.2037 65.285L45.3613 60.8318L44.5232 62.3077L52.3656 66.761L53.2037 65.285ZM45.3613 60.8318C45.255 60.7715 45.1894 60.6588 45.1894 60.5366H43.4922C43.4922 61.2695 43.8859 61.9458 44.5232 62.3077L45.3613 60.8318ZM45.1894 60.5366V51.8933H43.4922V60.5366H45.1894ZM44.7642 52.6287L52.5723 48.1332L51.7255 46.6623L43.9174 51.1579L44.7642 52.6287ZM52.5723 48.1332C52.6772 48.0727 52.8064 48.0728 52.9113 48.1333L53.7594 46.6631C53.1301 46.3001 52.3551 46.2998 51.7255 46.6623L52.5723 48.1332Z" fill="#3CCBF4"/>
</g>
</g>
<g opacity="0.8">
<path d="M54.9102 33.4783L63.354 38.3154L71.7343 33.4995L63.9047 28.9832C63.5376 28.7714 63.0855 28.7712 62.7182 28.9827L54.9102 33.4783Z" fill="#82FFFE"/>
<path fill-rule="evenodd" clip-rule="evenodd" d="M63.3555 38.316V47.6085L71.1123 43.0294C71.4726 42.8167 71.6945 42.4302 71.6964 42.0118L71.7357 33.5L63.3555 38.316Z" fill="#288BB9"/>
<path d="M63.354 38.3157L54.9102 33.4785V42.1218C54.9102 42.5493 55.1398 42.9439 55.5116 43.155L63.354 47.6082V38.3157Z" fill="#59BFEA"/>
<mask id="mask2_8470_2547" style="mask-type:luminance" maskUnits="userSpaceOnUse" x="54" y="27" width="19" height="22">
<path d="M54.0625 27.9629H72.6051V48.627H54.0625V27.9629ZM54.9111 33.479L63.355 38.3162L71.7353 33.5002L63.9056 28.9839C63.5385 28.7721 63.0864 28.772 62.7193 28.9835L54.9111 33.479ZM63.355 38.3162V47.6087L71.1118 43.0296C71.4722 42.8169 71.694 42.4304 71.6959 42.0121L71.7353 33.5002L63.355 38.3162ZM63.355 38.3162L54.9111 33.479V42.1223C54.9111 42.5498 55.1408 42.9444 55.5125 43.1554L63.355 47.6087V38.3162Z" fill="white"/>
</mask>
<g mask="url(#mask2_8470_2547)">
<path d="M63.3126 28.642L63.5246 28.2745L63.3128 28.1523L63.1008 28.2743L63.3126 28.642ZM54.9111 42.8142H54.4868V43.0612L54.7016 43.1832L54.9111 42.8142ZM71.6928 42.6869L71.9085 43.0523L72.116 42.9298L72.1171 42.6888L71.6928 42.6869ZM54.7002 33.8474L63.1441 38.6846L63.5659 37.9482L55.122 33.111L54.7002 33.8474ZM63.5664 38.6843L71.9467 33.8683L71.5238 33.1326L63.1436 37.9485L63.5664 38.6843ZM63.7793 47.6089V38.3164H62.9307V47.6089H63.7793ZM63.1008 28.2743L62.5075 28.6159L62.9309 29.3514L63.5243 29.0097L63.1008 28.2743ZM54.4868 42.1225V42.8142H55.3354V42.1225H54.4868ZM54.7016 43.1832L55.303 43.5246L55.7221 42.7867L55.1206 42.4452L54.7016 43.1832ZM71.4771 42.3215L70.8961 42.6644L71.3275 43.3952L71.9085 43.0523L71.4771 42.3215ZM71.2716 42.0103L71.2685 42.6849L72.1171 42.6888L72.1202 42.0142L71.2716 42.0103ZM64.1177 28.6166L63.5246 28.2745L63.1005 29.0096L63.6936 29.3517L64.1177 28.6166ZM54.9111 33.4792L54.4877 32.7438L54.0625 32.9886V33.4792H54.9111ZM71.7352 33.5004L72.5839 33.5043L72.5861 33.0116L72.1593 32.7654L71.7352 33.5004ZM63.355 47.6089L62.9359 48.3469L63.3633 48.5895L63.7864 48.3397L63.355 47.6089ZM63.4816 29.7192L71.3112 34.2355L72.1593 32.7654L64.3297 28.249L63.4816 29.7192ZM70.8866 33.4965L70.8473 42.0083L72.5445 42.0162L72.5839 33.5043L70.8866 33.4965ZM70.8473 42.0083C70.8468 42.1278 70.7834 42.2383 70.6804 42.299L71.5432 43.7606C72.1609 43.396 72.5412 42.7334 72.5445 42.0162L70.8473 42.0083ZM70.6804 42.299L62.9236 46.8781L63.7864 48.3397L71.5432 43.7606L70.6804 42.299ZM63.774 46.871L55.9316 42.4177L55.0935 43.8936L62.9359 48.3469L63.774 46.871ZM55.9316 42.4177C55.8254 42.3574 55.7598 42.2447 55.7598 42.1225H54.0625C54.0625 42.8554 54.4562 43.5318 55.0935 43.8936L55.9316 42.4177ZM55.7598 42.1225V33.4792H54.0625V42.1225H55.7598ZM55.3346 34.2146L63.1426 29.7191L62.2958 28.2482L54.4877 32.7438L55.3346 34.2146ZM63.1426 29.7191C63.2476 29.6587 63.3767 29.6587 63.4816 29.7192L64.3297 28.249C63.7004 27.886 62.9254 27.8857 62.2958 28.2482L63.1426 29.7191Z" fill="#3CCBF4"/>
</g>
</g>
</g>
<g style="mix-blend-mode:plus-lighter">
<g clip-path="url(#clip0_8470_2547)">
<path d="M56.5905 8.84187L56.067 8.53966L56.5207 8.27217C56.6043 8.22283 56.6322 8.11501 56.5828 8.03134C56.5335 7.94768 56.4257 7.91989 56.342 7.96918L55.7171 8.33764L55.3494 8.12533V7.46201L55.7169 7.2498L56.342 7.61823C56.37 7.63477 56.4008 7.6426 56.4312 7.6426C56.4914 7.6426 56.55 7.61164 56.5828 7.556C56.6322 7.47233 56.6043 7.36451 56.5206 7.31517L56.0669 7.04773L56.5905 6.74544C56.6746 6.69688 56.7034 6.58932 56.6548 6.5052C56.6063 6.42109 56.4987 6.39227 56.4146 6.44084L55.8911 6.74308L55.8864 6.21638C55.8855 6.11925 55.8059 6.04062 55.7089 6.0421C55.6118 6.04297 55.5338 6.12242 55.5346 6.21954L55.5412 6.94509L55.1735 7.15738L54.599 6.82571V6.40125L55.2307 6.04426C55.3152 5.99647 55.345 5.88919 55.2973 5.8046C55.2495 5.72005 55.1421 5.69022 55.0576 5.73803L54.599 5.99722V5.39267C54.599 5.29554 54.5203 5.2168 54.4232 5.2168C54.326 5.2168 54.2473 5.29554 54.2473 5.39267V5.99722L53.7887 5.73806C53.7041 5.69022 53.5968 5.72007 53.5491 5.80463C53.5013 5.88919 53.5311 5.99649 53.6156 6.04428L54.2473 6.40128V6.82578L53.6729 7.1574L53.3052 6.94509L53.3117 6.21957C53.3126 6.12244 53.2345 6.04299 53.1374 6.04212C53.1368 6.04212 53.1363 6.04212 53.1358 6.04212C53.0394 6.04212 52.9608 6.11981 52.96 6.21642L52.9552 6.74308L52.4318 6.44086C52.3476 6.39227 52.2401 6.42111 52.1916 6.50523C52.143 6.58934 52.1718 6.6969 52.2559 6.74547L52.7795 7.04775L52.3257 7.3152C52.242 7.36451 52.2141 7.47233 52.2635 7.55602C52.2963 7.61167 52.3549 7.64262 52.4152 7.64262C52.4455 7.64262 52.4763 7.63477 52.5043 7.61826L53.1294 7.24982L53.497 7.46206V8.12535L53.1292 8.33771L52.5043 7.9692C52.4207 7.91986 52.3129 7.9477 52.2635 8.03137C52.2141 8.11503 52.242 8.22285 52.3256 8.27219L52.7793 8.53968L52.2559 8.84187C52.1718 8.89044 52.143 8.998 52.1916 9.08211C52.2242 9.13853 52.2832 9.17007 52.344 9.17007C52.3739 9.17007 52.4041 9.16245 52.4318 9.14648L52.9552 8.84429L52.96 9.37099C52.9608 9.46758 53.0394 9.54529 53.1358 9.54529C53.1363 9.54529 53.1369 9.54529 53.1374 9.54526C53.2345 9.5444 53.3126 9.46495 53.3117 9.36782L53.3052 8.64223L53.6729 8.42991L54.2473 8.76158V9.18614L53.6156 9.54313C53.5311 9.59092 53.5013 9.6982 53.5491 9.78278C53.5814 9.84 53.641 9.87215 53.7023 9.87215C53.7317 9.87215 53.7614 9.86481 53.7887 9.84936L54.2473 9.59019V10.1947C54.2473 10.2918 54.326 10.3706 54.4232 10.3706C54.5203 10.3706 54.599 10.2918 54.599 10.1947V9.59019L55.0576 9.84936C55.085 9.86481 55.1147 9.87215 55.144 9.87215C55.2054 9.87215 55.2649 9.84 55.2973 9.78278C55.3451 9.6982 55.3153 9.59092 55.2307 9.54313L54.5991 9.18614V8.76161L55.1735 8.42991L55.5412 8.64218L55.5345 9.36775C55.5336 9.46488 55.6116 9.54435 55.7087 9.54524C55.7093 9.54526 55.7098 9.54526 55.7104 9.54526C55.8068 9.54526 55.8853 9.46758 55.8862 9.37101L55.8911 8.8442L56.4146 9.14646C56.4423 9.16245 56.4726 9.17005 56.5024 9.17005C56.5632 9.17005 56.6223 9.13849 56.6549 9.08209C56.7034 8.998 56.6746 8.89044 56.5905 8.84187ZM53.8488 7.46204L54.4232 7.13034L54.9976 7.46204V8.1253L54.4232 8.457L53.8488 8.1253V7.46204Z" fill="#288BB9"/>
</g>
<g clip-path="url(#clip1_8470_2547)">
<path d="M73.7819 21.6993L73.2584 21.3971L73.7121 21.1296C73.7957 21.0803 73.8236 20.9724 73.7742 20.8888C73.7249 20.8051 73.6171 20.7773 73.5334 20.8266L72.9085 21.1951L72.5408 20.9828V20.3194L72.9083 20.1072L73.5334 20.4757C73.5615 20.4922 73.5922 20.5 73.6226 20.5C73.6828 20.5 73.7414 20.4691 73.7742 20.4134C73.8236 20.3298 73.7957 20.2219 73.712 20.1726L73.2583 19.9052L73.7819 19.6029C73.866 19.5543 73.8948 19.4467 73.8462 19.3626C73.7977 19.2785 73.6901 19.2497 73.606 19.2983L73.0825 19.6005L73.0778 19.0738C73.0769 18.9767 72.9973 18.898 72.9003 18.8995C72.8032 18.9004 72.7252 18.9798 72.726 19.077L72.7326 19.8025L72.3649 20.0148L71.7905 19.6831V19.2587L72.4221 18.9017C72.5066 18.8539 72.5365 18.7466 72.4887 18.662C72.4409 18.5775 72.3335 18.5476 72.249 18.5955L71.7905 18.8546V18.2501C71.7905 18.153 71.7117 18.0742 71.6146 18.0742C71.5174 18.0742 71.4387 18.153 71.4387 18.2501V18.8546L70.9801 18.5955C70.8956 18.5476 70.7882 18.5775 70.7405 18.6621C70.6927 18.7466 70.7225 18.8539 70.8071 18.9017L71.4387 19.2587V19.6832L70.8643 20.0148L70.4966 19.8025L70.5031 19.077C70.504 18.9799 70.426 18.9004 70.3288 18.8995C70.3282 18.8995 70.3277 18.8995 70.3272 18.8995C70.2308 18.8995 70.1522 18.9772 70.1514 19.0738L70.1466 19.6005L69.6232 19.2983C69.539 19.2497 69.4315 19.2785 69.383 19.3626C69.3344 19.4468 69.3632 19.5543 69.4473 19.6029L69.9709 19.9052L69.5171 20.1726C69.4334 20.2219 69.4055 20.3298 69.4549 20.4134C69.4877 20.4691 69.5463 20.5 69.6066 20.5C69.6369 20.5 69.6677 20.4922 69.6957 20.4757L70.3208 20.1072L70.6884 20.3195V20.9828L70.3206 21.1951L69.6957 20.8266C69.6121 20.7773 69.5043 20.8051 69.4549 20.8888C69.4055 20.9725 69.4334 21.0803 69.5171 21.1296L69.9707 21.3971L69.4473 21.6993C69.3632 21.7479 69.3344 21.8554 69.383 21.9395C69.4156 21.996 69.4747 22.0275 69.5354 22.0275C69.5653 22.0275 69.5955 22.0199 69.6232 22.0039L70.1466 21.7017L70.1514 22.2284C70.1522 22.325 70.2308 22.4027 70.3272 22.4027C70.3277 22.4027 70.3283 22.4027 70.3288 22.4027C70.4259 22.4018 70.504 22.3224 70.5031 22.2252L70.4966 21.4996L70.8643 21.2873L71.4387 21.619V22.0436L70.8071 22.4006C70.7225 22.4483 70.6927 22.5556 70.7405 22.6402C70.7728 22.6974 70.8324 22.7296 70.8937 22.7296C70.9231 22.7296 70.9528 22.7222 70.9801 22.7068L71.4387 22.4476V23.0521C71.4387 23.1492 71.5174 23.228 71.6146 23.228C71.7117 23.228 71.7905 23.1492 71.7905 23.0521V22.4476L72.249 22.7068C72.2764 22.7222 72.3061 22.7296 72.3354 22.7296C72.3968 22.7296 72.4563 22.6974 72.4887 22.6402C72.5365 22.5556 72.5067 22.4483 72.4221 22.4006L71.7905 22.0436V21.619L72.3649 21.2873L72.7326 21.4996L72.7259 22.2252C72.725 22.3223 72.803 22.4018 72.9002 22.4027C72.9007 22.4027 72.9013 22.4027 72.9018 22.4027C72.9982 22.4027 73.0767 22.325 73.0776 22.2284L73.0825 21.7016L73.606 22.0039C73.6337 22.0199 73.664 22.0275 73.6938 22.0275C73.7546 22.0275 73.8137 21.9959 73.8463 21.9395C73.8948 21.8554 73.866 21.7479 73.7819 21.6993ZM71.0402 20.3195L71.6146 19.9878L72.189 20.3195V20.9827L71.6146 21.3144L71.0402 20.9827V20.3195Z" fill="#288BB9"/>
</g>
<g clip-path="url(#clip2_8470_2547)">
<path d="M29.4772 27.4044L28.9537 27.1022L29.4074 26.8347C29.491 26.7853 29.5189 26.6775 29.4695 26.5938C29.4202 26.5102 29.3124 26.4824 29.2287 26.5317L28.6039 26.9001L28.2361 26.6878V26.0245L28.6036 25.8123L29.2287 26.1807C29.2568 26.1973 29.2875 26.2051 29.3179 26.2051C29.3781 26.2051 29.4367 26.1741 29.4695 26.1185C29.5189 26.0348 29.491 25.927 29.4074 25.8777L28.9536 25.6102L29.4772 25.3079C29.5613 25.2594 29.5901 25.1518 29.5416 25.0677C29.493 24.9836 29.3854 24.9548 29.3013 25.0033L28.7778 25.3056L28.7731 24.7789C28.7722 24.6817 28.6926 24.6031 28.5957 24.6046C28.4985 24.6055 28.4205 24.6849 28.4214 24.782L28.4279 25.5076L28.0602 25.7199L27.4858 25.3882V24.9638L28.1174 24.6068C28.2019 24.559 28.2318 24.4517 28.184 24.3671C28.1362 24.2825 28.0289 24.2527 27.9443 24.3005L27.4858 24.5597V23.9552C27.4858 23.858 27.407 23.7793 27.3099 23.7793C27.2127 23.7793 27.134 23.858 27.134 23.9552V24.5597L26.6754 24.3006C26.5909 24.2527 26.4836 24.2826 26.4358 24.3671C26.388 24.4517 26.4178 24.559 26.5024 24.6068L27.134 24.9638V25.3883L26.5596 25.7199L26.1919 25.5076L26.1984 24.7821C26.1993 24.6849 26.1213 24.6055 26.0241 24.6046C26.0236 24.6046 26.023 24.6046 26.0225 24.6046C25.9261 24.6046 25.8475 24.6823 25.8467 24.7789L25.8419 25.3056L25.3185 25.0034C25.2343 24.9548 25.1268 24.9836 25.0783 25.0677C25.0297 25.1518 25.0585 25.2594 25.1426 25.308L25.6662 25.6103L25.2124 25.8777C25.1287 25.927 25.1009 26.0348 25.1502 26.1185C25.183 26.1742 25.2416 26.2051 25.3019 26.2051C25.3322 26.2051 25.363 26.1973 25.391 26.1808L26.0161 25.8123L26.3837 26.0246V26.6879L26.016 26.9002L25.391 26.5317C25.3074 26.4824 25.1996 26.5102 25.1502 26.5939C25.1009 26.6775 25.1287 26.7854 25.2124 26.8347L25.666 27.1022L25.1426 27.4044C25.0585 27.4529 25.0297 27.5605 25.0783 27.6446C25.1109 27.701 25.17 27.7326 25.2307 27.7326C25.2606 27.7326 25.2908 27.725 25.3185 27.709L25.8419 27.4068L25.8467 27.9335C25.8475 28.0301 25.9261 28.1078 26.0225 28.1078C26.023 28.1078 26.0236 28.1078 26.0241 28.1078C26.1212 28.1069 26.1993 28.0274 26.1984 27.9303L26.1919 27.2047L26.5596 26.9924L27.134 27.3241V27.7486L26.5024 28.1056C26.4178 28.1534 26.388 28.2607 26.4358 28.3453C26.4681 28.4025 26.5277 28.4346 26.5891 28.4346C26.6184 28.4346 26.6481 28.4273 26.6754 28.4119L27.134 28.1527V28.7572C27.134 28.8543 27.2127 28.9331 27.3099 28.9331C27.407 28.9331 27.4858 28.8543 27.4858 28.7572V28.1527L27.9443 28.4119C27.9717 28.4273 28.0014 28.4346 28.0307 28.4346C28.0921 28.4346 28.1517 28.4025 28.184 28.3453C28.2318 28.2607 28.202 28.1534 28.1174 28.1056L27.4858 27.7486V27.3241L28.0602 26.9924L28.4279 27.2047L28.4212 27.9303C28.4203 28.0274 28.4983 28.1068 28.5955 28.1077C28.596 28.1078 28.5966 28.1078 28.5971 28.1078C28.6935 28.1078 28.7721 28.0301 28.773 27.9335L28.7778 27.4067L29.3013 27.709C29.3291 27.725 29.3593 27.7325 29.3891 27.7325C29.4499 27.7325 29.509 27.701 29.5416 27.6446C29.5901 27.5605 29.5613 27.4529 29.4772 27.4044ZM26.7355 26.0245L27.3099 25.6928L27.8844 26.0245V26.6878L27.3099 27.0195L26.7355 26.6878V26.0245Z" fill="#288BB9"/>
</g>
<g clip-path="url(#clip3_8470_2547)">
<path d="M43.4538 16.9259L42.9303 16.6236L43.3839 16.3562C43.4676 16.3068 43.4954 16.199 43.4461 16.1153C43.3967 16.0317 43.289 16.0039 43.2053 16.0532L42.5804 16.4216L42.2127 16.2093V15.546L42.5802 15.3338L43.2053 15.7022C43.2333 15.7187 43.2641 15.7266 43.2944 15.7266C43.3547 15.7266 43.4133 15.6956 43.4461 15.64C43.4954 15.5563 43.4676 15.4485 43.3839 15.3992L42.9302 15.1317L43.4538 14.8294C43.5379 14.7809 43.5667 14.6733 43.5181 14.5892C43.4696 14.5051 43.362 14.4763 43.2779 14.5248L42.7544 14.8271L42.7497 14.3004C42.7488 14.2032 42.6692 14.1246 42.5722 14.1261C42.4751 14.127 42.397 14.2064 42.3979 14.3035L42.4044 15.0291L42.0367 15.2414L41.4623 14.9097V14.4852L42.094 14.1282C42.1785 14.0805 42.2083 13.9732 42.1605 13.8886C42.1127 13.804 42.0054 13.7742 41.9209 13.822L41.4623 14.0812V13.4767C41.4623 13.3795 41.3836 13.3008 41.2865 13.3008C41.1893 13.3008 41.1106 13.3795 41.1106 13.4767V14.0812L40.652 13.822C40.5674 13.7742 40.4601 13.8041 40.4124 13.8886C40.3646 13.9732 40.3944 14.0805 40.4789 14.1283L41.1106 14.4853V14.9098L40.5362 15.2414L40.1685 15.0291L40.175 14.3036C40.1758 14.2064 40.0978 14.127 40.0007 14.1261C40.0001 14.1261 39.9996 14.1261 39.9991 14.1261C39.9027 14.1261 39.8241 14.2038 39.8232 14.3004L39.8185 14.8271L39.2951 14.5248C39.2109 14.4763 39.1034 14.5051 39.0548 14.5892C39.0063 14.6733 39.0351 14.7809 39.1192 14.8295L39.6428 15.1317L39.189 15.3992C39.1053 15.4485 39.0774 15.5563 39.1268 15.64C39.1595 15.6957 39.2182 15.7266 39.2784 15.7266C39.3088 15.7266 39.3395 15.7188 39.3676 15.7022L39.9927 15.3338L40.3603 15.546V16.2093L39.9925 16.4217L39.3676 16.0532C39.2839 16.0038 39.1761 16.0317 39.1268 16.1154C39.0774 16.199 39.1053 16.3068 39.1889 16.3562L39.6426 16.6237L39.1192 16.9259C39.0351 16.9744 39.0063 17.082 39.0548 17.1661C39.0874 17.2225 39.1465 17.2541 39.2073 17.2541C39.2371 17.2541 39.2674 17.2464 39.2951 17.2305L39.8185 16.9283L39.8232 17.455C39.8241 17.5516 39.9027 17.6293 39.9991 17.6293C39.9996 17.6293 40.0002 17.6293 40.0007 17.6292C40.0978 17.6284 40.1758 17.5489 40.175 17.4518L40.1684 16.7262L40.5362 16.5139L41.1106 16.8456V17.2701L40.4789 17.6271C40.3944 17.6749 40.3646 17.7822 40.4124 17.8668C40.4447 17.924 40.5043 17.9561 40.5656 17.9561C40.5949 17.9561 40.6247 17.9488 40.652 17.9333L41.1106 17.6742V18.2787C41.1106 18.3758 41.1893 18.4546 41.2865 18.4546C41.3836 18.4546 41.4623 18.3758 41.4623 18.2787V17.6742L41.9209 17.9333C41.9482 17.9488 41.978 17.9561 42.0073 17.9561C42.0686 17.9561 42.1282 17.924 42.1606 17.8668C42.2083 17.7822 42.1785 17.6749 42.094 17.6271L41.4624 17.2701V16.8456L42.0368 16.5139L42.4045 16.7262L42.3978 17.4517C42.3969 17.5489 42.4749 17.6283 42.572 17.6292C42.5726 17.6292 42.5731 17.6292 42.5737 17.6292C42.67 17.6292 42.7486 17.5516 42.7495 17.455L42.7544 16.9282L43.2779 17.2304C43.3056 17.2464 43.3358 17.254 43.3657 17.254C43.4265 17.254 43.4856 17.2225 43.5181 17.1661C43.5667 17.082 43.5378 16.9744 43.4538 16.9259ZM40.712 15.546L41.2865 15.2143L41.8609 15.546V16.2093L41.2865 16.541L40.712 16.2093V15.546Z" fill="#288BB9"/>
</g>
<g clip-path="url(#clip4_8470_2547)">
<path d="M44.1413 31.9298L43.6178 31.6275L44.0714 31.3601C44.1551 31.3107 44.1829 31.2029 44.1336 31.1192C44.0842 31.0356 43.9765 31.0078 43.8928 31.0571L43.2679 31.4255L42.9002 31.2132V30.5499L43.2677 30.3377L43.8928 30.7061C43.9208 30.7227 43.9516 30.7305 43.9819 30.7305C44.0422 30.7305 44.1008 30.6995 44.1336 30.6439C44.1829 30.5602 44.1551 30.4524 44.0714 30.4031L43.6177 30.1356L44.1413 29.8333C44.2254 29.7848 44.2542 29.6772 44.2056 29.5931C44.1571 29.509 44.0495 29.4802 43.9654 29.5287L43.4419 29.831L43.4372 29.3043C43.4363 29.2071 43.3567 29.1285 43.2597 29.13C43.1626 29.1309 43.0845 29.2103 43.0854 29.3074L43.0919 30.033L42.7242 30.2453L42.1498 29.9136V29.4891L42.7815 29.1321C42.866 29.0844 42.8958 28.9771 42.848 28.8925C42.8002 28.8079 42.6929 28.7781 42.6084 28.8259L42.1498 29.0851V28.4806C42.1498 28.3834 42.0711 28.3047 41.974 28.3047C41.8768 28.3047 41.7981 28.3834 41.7981 28.4806V29.0851L41.3395 28.8259C41.2549 28.7781 41.1476 28.808 41.0999 28.8925C41.0521 28.9771 41.0819 29.0844 41.1664 29.1322L41.7981 29.4892V29.9137L41.2237 30.2453L40.856 30.033L40.8625 29.3075C40.8633 29.2103 40.7853 29.1309 40.6882 29.13C40.6876 29.13 40.6871 29.13 40.6866 29.13C40.5902 29.13 40.5116 29.2077 40.5107 29.3043L40.506 29.831L39.9826 29.5287C39.8984 29.4802 39.7909 29.509 39.7423 29.5931C39.6938 29.6772 39.7226 29.7848 39.8067 29.8334L40.3303 30.1356L39.8765 30.4031C39.7928 30.4524 39.7649 30.5602 39.8143 30.6439C39.847 30.6996 39.9057 30.7305 39.9659 30.7305C39.9963 30.7305 40.027 30.7227 40.0551 30.7061L40.6802 30.3377L41.0478 30.55V31.2132L40.68 31.4256L40.0551 31.0571C39.9714 31.0078 39.8636 31.0356 39.8143 31.1193C39.7649 31.2029 39.7928 31.3107 39.8764 31.3601L40.3301 31.6276L39.8067 31.9298C39.7226 31.9783 39.6938 32.0859 39.7423 32.17C39.7749 32.2264 39.834 32.258 39.8948 32.258C39.9246 32.258 39.9549 32.2503 39.9826 32.2344L40.506 31.9322L40.5107 32.4589C40.5116 32.5555 40.5902 32.6332 40.6866 32.6332C40.6871 32.6332 40.6877 32.6332 40.6882 32.6332C40.7853 32.6323 40.8633 32.5528 40.8625 32.4557L40.8559 31.7301L41.2237 31.5178L41.7981 31.8495V32.274L41.1664 32.631C41.0819 32.6788 41.0521 32.7861 41.0999 32.8707C41.1322 32.9279 41.1918 32.96 41.2531 32.96C41.2824 32.96 41.3122 32.9527 41.3395 32.9372L41.7981 32.6781V33.2826C41.7981 33.3797 41.8768 33.4585 41.974 33.4585C42.0711 33.4585 42.1498 33.3797 42.1498 33.2826V32.6781L42.6084 32.9372C42.6357 32.9527 42.6655 32.96 42.6948 32.96C42.7561 32.96 42.8157 32.9279 42.8481 32.8707C42.8958 32.7861 42.866 32.6788 42.7815 32.631L42.1499 32.274V31.8495L42.7243 31.5178L43.092 31.7301L43.0853 32.4556C43.0844 32.5528 43.1624 32.6322 43.2595 32.6331C43.2601 32.6332 43.2606 32.6332 43.2612 32.6332C43.3575 32.6332 43.4361 32.5555 43.437 32.4589L43.4419 31.9321L43.9654 32.2343C43.9931 32.2503 44.0233 32.2579 44.0532 32.2579C44.114 32.2579 44.1731 32.2264 44.2056 32.17C44.2542 32.0859 44.2253 31.9783 44.1413 31.9298ZM41.3995 30.5499L41.974 30.2182L42.5484 30.5499V31.2132L41.974 31.5449L41.3995 31.2132V30.5499Z" fill="#288BB9"/>
</g>
<path d="M59.8078 21.2565L59.4912 21.0765L59.7655 20.9172C59.8161 20.8878 59.833 20.8236 59.8031 20.7738C59.7733 20.7239 59.7081 20.7074 59.6575 20.7367L59.2795 20.9562L59.0571 20.8297V20.4347L59.2794 20.3083L59.6575 20.5278C59.6744 20.5376 59.693 20.5423 59.7114 20.5423C59.7478 20.5423 59.7833 20.5238 59.8031 20.4907C59.833 20.4409 59.8161 20.3767 59.7655 20.3473L59.4911 20.188L59.8078 20.008C59.8586 19.9791 59.8761 19.915 59.8467 19.8649C59.8173 19.8148 59.7522 19.7977 59.7014 19.8266L59.3847 20.0066L59.3819 19.6929C59.3814 19.6351 59.3332 19.5883 59.2746 19.5891C59.2158 19.5897 59.1686 19.637 59.1691 19.6948L59.1731 20.1269L58.9507 20.2533L58.6032 20.0558V19.803L58.9853 19.5904C59.0364 19.562 59.0545 19.4981 59.0256 19.4477C58.9966 19.3973 58.9317 19.3796 58.8806 19.4081L58.6032 19.5624V19.2024C58.6032 19.1445 58.5556 19.0977 58.4969 19.0977C58.4381 19.0977 58.3905 19.1445 58.3905 19.2024V19.5624L58.1131 19.4081C58.062 19.3796 57.9971 19.3974 57.9682 19.4477C57.9393 19.4981 57.9573 19.562 58.0084 19.5904L58.3905 19.803V20.0558L58.0431 20.2533L57.8206 20.1269L57.8246 19.6948C57.8251 19.637 57.7779 19.5897 57.7192 19.5892C57.7188 19.5892 57.7185 19.5892 57.7182 19.5892C57.6599 19.5892 57.6124 19.6354 57.6118 19.693L57.609 20.0066L57.2924 19.8266C57.2415 19.7977 57.1764 19.8148 57.1471 19.8649C57.1177 19.915 57.1351 19.9791 57.186 20.008L57.5027 20.188L57.2282 20.3473C57.1776 20.3767 57.1607 20.4409 57.1906 20.4907C57.2104 20.5238 57.2459 20.5423 57.2823 20.5423C57.3007 20.5423 57.3193 20.5376 57.3362 20.5278L57.7143 20.3084L57.9367 20.4348V20.8298L57.7142 20.9562L57.3362 20.7368C57.2857 20.7074 57.2205 20.724 57.1906 20.7738C57.1607 20.8236 57.1776 20.8878 57.2282 20.9172L57.5026 21.0765L57.186 21.2565C57.1351 21.2854 57.1177 21.3494 57.1471 21.3995C57.1668 21.4331 57.2025 21.4519 57.2393 21.4519C57.2573 21.4519 57.2757 21.4474 57.2924 21.4379L57.609 21.2579L57.6118 21.5716C57.6124 21.6291 57.6599 21.6753 57.7182 21.6753C57.7185 21.6753 57.7189 21.6753 57.7192 21.6753C57.7779 21.6748 57.8251 21.6275 57.8246 21.5697L57.8206 21.1376L58.0431 21.0111L58.3905 21.2086V21.4615L58.0084 21.6741C57.9573 21.7025 57.9393 21.7664 57.9682 21.8168C57.9877 21.8509 58.0238 21.87 58.0609 21.87C58.0786 21.87 58.0966 21.8656 58.1131 21.8564L58.3905 21.7021V22.0621C58.3905 22.1199 58.4381 22.1668 58.4969 22.1668C58.5556 22.1668 58.6032 22.1199 58.6032 22.0621V21.7021L58.8806 21.8564C58.8972 21.8656 58.9151 21.87 58.9329 21.87C58.97 21.87 59.006 21.8509 59.0256 21.8168C59.0545 21.7664 59.0364 21.7025 58.9853 21.6741L58.6033 21.4615V21.2087L58.9507 21.0111L59.1731 21.1375L59.169 21.5696C59.1685 21.6275 59.2157 21.6748 59.2744 21.6753C59.2748 21.6753 59.2751 21.6753 59.2754 21.6753C59.3337 21.6753 59.3813 21.6291 59.3818 21.5716L59.3847 21.2578L59.7014 21.4378C59.7182 21.4474 59.7364 21.4519 59.7545 21.4519C59.7912 21.4519 59.827 21.4331 59.8467 21.3995C59.8761 21.3494 59.8586 21.2854 59.8078 21.2565ZM58.1494 20.4347L58.4969 20.2372L58.8443 20.4347V20.8297L58.4969 21.0273L58.1494 20.8297V20.4347Z" fill="#82FFFE"/>
<path d="M29.1163 14.0943L28.7997 13.9144L29.0741 13.7551C29.1247 13.7257 29.1416 13.6615 29.1117 13.6117C29.0819 13.5618 29.0167 13.5453 28.966 13.5746L28.5881 13.7941L28.3657 13.6676V13.2726L28.588 13.1462L28.9661 13.3656C28.983 13.3755 29.0016 13.3802 29.02 13.3802C29.0564 13.3802 29.0919 13.3617 29.1117 13.3286C29.1416 13.2788 29.1247 13.2145 29.0741 13.1852L28.7997 13.0259L29.1163 12.8459C29.1672 12.817 29.1847 12.7529 29.1553 12.7028C29.1259 12.6527 29.0608 12.6356 29.01 12.6645L28.6933 12.8445L28.6905 12.5308C28.69 12.473 28.6418 12.4262 28.5832 12.427C28.5244 12.4275 28.4772 12.4749 28.4777 12.5327L28.4817 12.9648L28.2593 13.0912L27.9118 12.8937V12.6409L28.2939 12.4283C28.345 12.3999 28.3631 12.336 28.3341 12.2856C28.3052 12.2352 28.2403 12.2175 28.1892 12.246L27.9118 12.4003V12.0403C27.9118 11.9824 27.8642 11.9355 27.8055 11.9355C27.7467 11.9355 27.6991 11.9824 27.6991 12.0403V12.4003L27.4217 12.246C27.3706 12.2175 27.3057 12.2353 27.2768 12.2856C27.2479 12.336 27.2659 12.3999 27.317 12.4283L27.6991 12.6409V12.8937L27.3517 13.0912L27.1292 12.9648L27.1332 12.5327C27.1337 12.4749 27.0865 12.4276 27.0278 12.427C27.0274 12.427 27.0271 12.427 27.0268 12.427C26.9685 12.427 26.921 12.4733 26.9204 12.5308L26.9176 12.8445L26.601 12.6645C26.5501 12.6356 26.485 12.6527 26.4557 12.7028C26.4263 12.7529 26.4437 12.817 26.4946 12.8459L26.8113 13.0259L26.5368 13.1852C26.4862 13.2145 26.4693 13.2788 26.4992 13.3286C26.519 13.3617 26.5545 13.3802 26.5909 13.3802C26.6093 13.3802 26.6279 13.3755 26.6448 13.3657L27.0229 13.1462L27.2453 13.2726V13.6676L27.0228 13.7941L26.6448 13.5747C26.5942 13.5453 26.529 13.5618 26.4992 13.6117C26.4693 13.6615 26.4862 13.7257 26.5368 13.7551L26.8112 13.9144L26.4946 14.0943C26.4437 14.1233 26.4263 14.1873 26.4557 14.2374C26.4754 14.271 26.5111 14.2898 26.5479 14.2898C26.5659 14.2898 26.5842 14.2853 26.601 14.2757L26.9176 14.0958L26.9204 14.4094C26.921 14.467 26.9685 14.5132 27.0268 14.5132C27.0271 14.5132 27.0274 14.5132 27.0278 14.5132C27.0865 14.5127 27.1337 14.4654 27.1332 14.4076L27.1292 13.9754L27.3517 13.849L27.6991 14.0465V14.2994L27.317 14.512C27.2659 14.5404 27.2479 14.6043 27.2768 14.6547C27.2963 14.6887 27.3324 14.7079 27.3695 14.7079C27.3872 14.7079 27.4052 14.7035 27.4217 14.6943L27.6991 14.54V14.9C27.6991 14.9578 27.7467 15.0047 27.8055 15.0047C27.8642 15.0047 27.9118 14.9578 27.9118 14.9V14.54L28.1892 14.6943C28.2057 14.7035 28.2237 14.7079 28.2415 14.7079C28.2786 14.7079 28.3146 14.6887 28.3342 14.6547C28.3631 14.6043 28.345 14.5404 28.2939 14.512L27.9119 14.2994V14.0465L28.2593 13.849L28.4817 13.9754L28.4776 14.4075C28.4771 14.4654 28.5243 14.5127 28.583 14.5132C28.5834 14.5132 28.5837 14.5132 28.584 14.5132C28.6423 14.5132 28.6899 14.467 28.6904 14.4095L28.6933 14.0957L29.01 14.2757C29.0268 14.2853 29.045 14.2898 29.0631 14.2898C29.0998 14.2898 29.1356 14.271 29.1553 14.2374C29.1847 14.1873 29.1672 14.1233 29.1163 14.0943ZM27.458 13.2726L27.8055 13.0751L28.1529 13.2726V13.6676L27.8055 13.8651L27.458 13.6676V13.2726Z" fill="#82FFFE"/>
<path d="M51.2804 37.2838L50.9638 37.1038L51.2382 36.9445C51.2888 36.9151 51.3056 36.8509 51.2758 36.8011C51.2459 36.7513 51.1807 36.7347 51.1301 36.7641L50.7522 36.9835L50.5297 36.8571V36.4621L50.7521 36.3357L51.1301 36.5551C51.1471 36.5649 51.1657 36.5696 51.184 36.5696C51.2205 36.5696 51.2559 36.5512 51.2758 36.518C51.3056 36.4682 51.2888 36.404 51.2382 36.3746L50.9637 36.2154L51.2804 36.0353C51.3313 36.0064 51.3487 35.9424 51.3193 35.8923C51.29 35.8422 51.2249 35.825 51.174 35.8539L50.8574 36.0339L50.8545 35.7203C50.854 35.6624 50.8059 35.6156 50.7472 35.6165C50.6885 35.617 50.6413 35.6643 50.6418 35.7222L50.6457 36.1542L50.4233 36.2807L50.0759 36.0831V35.8304L50.4579 35.6178C50.5091 35.5893 50.5271 35.5254 50.4982 35.475C50.4693 35.4247 50.4044 35.4069 50.3533 35.4354L50.0759 35.5898V35.2297C50.0759 35.1719 50.0283 35.125 49.9695 35.125C49.9108 35.125 49.8632 35.1719 49.8632 35.2297V35.5898L49.5858 35.4354C49.5346 35.4069 49.4697 35.4247 49.4408 35.4751C49.4119 35.5254 49.4299 35.5893 49.4811 35.6178L49.8632 35.8304V36.0832L49.5157 36.2807L49.2933 36.1542L49.2972 35.7222C49.2978 35.6643 49.2506 35.617 49.1918 35.6165C49.1915 35.6165 49.1912 35.6165 49.1909 35.6165C49.1326 35.6165 49.085 35.6628 49.0845 35.7203L49.0816 36.0339L48.765 35.854C48.7141 35.825 48.6491 35.8422 48.6197 35.8923C48.5904 35.9424 48.6078 36.0064 48.6587 36.0354L48.9753 36.2154L48.7009 36.3746C48.6502 36.404 48.6334 36.4682 48.6632 36.518C48.6831 36.5512 48.7185 36.5696 48.755 36.5696C48.7733 36.5696 48.7919 36.5649 48.8089 36.5551L49.187 36.3357L49.4093 36.4621V36.8571L49.1869 36.9836L48.8089 36.7641C48.7583 36.7347 48.6931 36.7513 48.6632 36.8011C48.6334 36.851 48.6502 36.9152 48.7008 36.9445L48.9752 37.1038L48.6587 37.2838C48.6078 37.3127 48.5904 37.3768 48.6197 37.4269C48.6395 37.4605 48.6752 37.4792 48.712 37.4792C48.73 37.4792 48.7483 37.4747 48.765 37.4652L49.0816 37.2852L49.0845 37.5989C49.085 37.6564 49.1326 37.7027 49.1909 37.7027C49.1912 37.7027 49.1915 37.7027 49.1918 37.7027C49.2506 37.7022 49.2978 37.6549 49.2972 37.597L49.2933 37.1649L49.5157 37.0385L49.8632 37.236V37.4888L49.4811 37.7014C49.43 37.7299 49.4119 37.7938 49.4408 37.8441C49.4604 37.8782 49.4964 37.8973 49.5335 37.8973C49.5513 37.8973 49.5692 37.893 49.5858 37.8838L49.8632 37.7294V38.0894C49.8632 38.1473 49.9108 38.1942 49.9695 38.1942C50.0283 38.1942 50.0759 38.1473 50.0759 38.0894V37.7294L50.3533 37.8838C50.3698 37.893 50.3878 37.8973 50.4055 37.8973C50.4426 37.8973 50.4787 37.8782 50.4982 37.8441C50.5271 37.7938 50.5091 37.7299 50.458 37.7014L50.0759 37.4888V37.236L50.4234 37.0385L50.6458 37.1649L50.6417 37.597C50.6412 37.6548 50.6884 37.7021 50.7471 37.7027C50.7474 37.7027 50.7478 37.7027 50.7481 37.7027C50.8064 37.7027 50.8539 37.6564 50.8545 37.5989L50.8574 37.2852L51.174 37.4652C51.1908 37.4747 51.2091 37.4792 51.2271 37.4792C51.2639 37.4792 51.2997 37.4604 51.3194 37.4269C51.3487 37.3768 51.3313 37.3127 51.2804 37.2838ZM49.6221 36.4621L49.9696 36.2646L50.317 36.4621V36.8571L49.9696 37.0546L49.6221 36.8571V36.4621Z" fill="#82FFFE"/>
<path d="M35.5929 62.86L35.2763 62.68L35.5507 62.5207C35.6013 62.4913 35.6181 62.4271 35.5883 62.3773C35.5584 62.3275 35.4932 62.3109 35.4426 62.3403L35.0647 62.5597L34.8422 62.4333V62.0382L35.0646 61.9119L35.4426 62.1313C35.4596 62.1411 35.4782 62.1458 35.4965 62.1458C35.533 62.1458 35.5684 62.1273 35.5883 62.0942C35.6181 62.0444 35.6013 61.9802 35.5507 61.9508L35.2762 61.7915L35.5929 61.6115C35.6438 61.5826 35.6612 61.5185 35.6318 61.4684C35.6025 61.4184 35.5374 61.4012 35.4865 61.4301L35.1699 61.6101L35.167 61.2964C35.1665 61.2386 35.1184 61.1918 35.0597 61.1927C35.001 61.1932 34.9538 61.2405 34.9543 61.2983L34.9582 61.7304L34.7358 61.8568L34.3884 61.6593V61.4065L34.7704 61.1939C34.8216 61.1655 34.8396 61.1016 34.8107 61.0512C34.7818 61.0009 34.7169 60.9831 34.6658 61.0116L34.3884 61.1659V60.8059C34.3884 60.7481 34.3408 60.7012 34.282 60.7012C34.2233 60.7012 34.1757 60.7481 34.1757 60.8059V61.1659L33.8983 61.0116C33.8471 60.9831 33.7822 61.0009 33.7533 61.0512C33.7244 61.1016 33.7424 61.1655 33.7936 61.194L34.1757 61.4066V61.6594L33.8282 61.8568L33.6058 61.7304L33.6097 61.2983C33.6103 61.2405 33.5631 61.1932 33.5043 61.1927C33.504 61.1927 33.5037 61.1927 33.5034 61.1927C33.4451 61.1927 33.3975 61.2389 33.397 61.2965L33.3941 61.6101L33.0775 61.4301C33.0266 61.4012 32.9616 61.4184 32.9322 61.4685C32.9029 61.5185 32.9203 61.5826 32.9712 61.6115L33.2878 61.7915L33.0134 61.9508C32.9627 61.9802 32.9459 62.0444 32.9757 62.0942C32.9956 62.1274 33.031 62.1458 33.0675 62.1458C33.0858 62.1458 33.1044 62.1411 33.1214 62.1313L33.4995 61.9119L33.7218 62.0383V62.4333L33.4994 62.5597L33.1214 62.3403C33.0708 62.3109 33.0056 62.3275 32.9757 62.3773C32.9459 62.4271 32.9627 62.4913 33.0133 62.5207L33.2877 62.68L32.9712 62.86C32.9203 62.8889 32.9029 62.9529 32.9322 63.003C32.952 63.0366 32.9877 63.0554 33.0245 63.0554C33.0425 63.0554 33.0608 63.0509 33.0775 63.0414L33.3941 62.8614L33.397 63.1751C33.3975 63.2326 33.4451 63.2789 33.5034 63.2789C33.5037 63.2789 33.504 63.2789 33.5043 63.2789C33.5631 63.2783 33.6103 63.231 33.6097 63.1732L33.6058 62.7411L33.8282 62.6146L34.1757 62.8122V63.065L33.7936 63.2776C33.7425 63.306 33.7244 63.3699 33.7533 63.4203C33.7729 63.4544 33.8089 63.4735 33.846 63.4735C33.8638 63.4735 33.8817 63.4691 33.8983 63.4599L34.1757 63.3056V63.6656C34.1757 63.7234 34.2233 63.7703 34.282 63.7703C34.3408 63.7703 34.3884 63.7234 34.3884 63.6656V63.3056L34.6658 63.4599C34.6823 63.4691 34.7003 63.4735 34.718 63.4735C34.7551 63.4735 34.7912 63.4544 34.8107 63.4203C34.8396 63.3699 34.8216 63.306 34.7705 63.2776L34.3884 63.065V62.8122L34.7359 62.6146L34.9583 62.741L34.9542 63.1731C34.9537 63.231 35.0009 63.2783 35.0596 63.2788C35.0599 63.2789 35.0603 63.2789 35.0606 63.2789C35.1189 63.2789 35.1664 63.2326 35.167 63.1751L35.1699 62.8614L35.4865 63.0414C35.5033 63.0509 35.5216 63.0554 35.5396 63.0554C35.5764 63.0554 35.6122 63.0366 35.6319 63.003C35.6612 62.9529 35.6438 62.8889 35.5929 62.86ZM33.9346 62.0383L34.2821 61.8407L34.6295 62.0383V62.4332L34.2821 62.6308L33.9346 62.4332V62.0383Z" fill="#82FFFE"/>
<path d="M36.0006 3.62508L35.4772 3.32286L35.9308 3.05537C36.0145 3.00603 36.0423 2.89821 35.993 2.81455C35.9436 2.73088 35.8358 2.70309 35.7521 2.75238L35.1273 3.12084L34.7595 2.90853V2.24522L35.1271 2.033L35.7522 2.40144C35.7802 2.41797 35.8109 2.4258 35.8413 2.4258C35.9015 2.4258 35.9602 2.39485 35.993 2.3392C36.0423 2.25553 36.0145 2.14771 35.9308 2.09838L35.4771 1.83093L36.0006 1.52865C36.0847 1.48008 36.1136 1.37252 36.065 1.28841C36.0165 1.20429 35.9088 1.17548 35.8248 1.22404L35.3013 1.52628L35.2965 0.999581C35.2957 0.902453 35.2161 0.823827 35.1191 0.825304C35.0219 0.826172 34.9439 0.905619 34.9448 1.00275L34.9513 1.7283L34.5836 1.94058L34.0092 1.60891V1.18446L34.6408 0.827461C34.7254 0.779671 34.7552 0.67239 34.7074 0.587808C34.6596 0.503249 34.5523 0.473421 34.4678 0.521235L34.0092 0.780422V0.175871C34.0092 0.0787433 33.9305 0 33.8333 0C33.7362 0 33.6575 0.0787433 33.6575 0.175871V0.780422L33.1989 0.521258C33.1143 0.473421 33.007 0.503273 32.9592 0.587831C32.9114 0.67239 32.9412 0.779695 33.0258 0.827485L33.6575 1.18448V1.60899L33.0831 1.94061L32.7153 1.7283L32.7219 1.00277C32.7227 0.905642 32.6447 0.826195 32.5476 0.825328C32.547 0.825328 32.5465 0.825328 32.546 0.825328C32.4496 0.825328 32.371 0.903016 32.3701 0.999627L32.3654 1.52628L31.842 1.22406C31.7578 1.17548 31.6502 1.20432 31.6017 1.28843C31.5532 1.37254 31.582 1.48011 31.6661 1.52867L32.1896 1.83096L31.7358 2.0984C31.6522 2.14771 31.6243 2.25553 31.6736 2.33923C31.7064 2.39487 31.7651 2.42582 31.8253 2.42582C31.8557 2.42582 31.8864 2.41797 31.9144 2.40146L32.5396 2.03302L32.9072 2.24526V2.90856L32.5394 3.12091L31.9145 2.7524C31.8308 2.70307 31.723 2.7309 31.6736 2.81457C31.6243 2.89824 31.6522 3.00606 31.7358 3.0554L32.1895 3.32288L31.6661 3.62508C31.582 3.67364 31.5532 3.7812 31.6017 3.86532C31.6343 3.92174 31.6934 3.95328 31.7542 3.95328C31.784 3.95328 31.8143 3.94565 31.842 3.92969L32.3654 3.62749L32.3701 4.15419C32.371 4.25078 32.4496 4.32849 32.546 4.32849C32.5465 4.32849 32.547 4.32849 32.5476 4.32847C32.6447 4.3276 32.7227 4.24815 32.7219 4.15103L32.7153 3.42543L33.083 3.21312L33.6575 3.54479V3.96934L33.0258 4.32633C32.9413 4.37412 32.9114 4.4814 32.9592 4.56599C32.9916 4.6232 33.0512 4.65535 33.1125 4.65535C33.1418 4.65535 33.1715 4.64801 33.1989 4.63256L33.6575 4.3734V4.9779C33.6575 5.07503 33.7362 5.15377 33.8333 5.15377C33.9305 5.15377 34.0092 5.07503 34.0092 4.9779V4.3734L34.4678 4.63256C34.4951 4.64801 34.5249 4.65535 34.5542 4.65535C34.6155 4.65535 34.6751 4.6232 34.7074 4.56599C34.7552 4.4814 34.7254 4.37412 34.6409 4.32633L34.0092 3.96934V3.54481L34.5837 3.21312L34.9514 3.42538L34.9446 4.15095C34.9438 4.24808 35.0218 4.32755 35.1189 4.32844C35.1194 4.32847 35.12 4.32847 35.1205 4.32847C35.2169 4.32847 35.2955 4.25078 35.2964 4.15421L35.3013 3.6274L35.8248 3.92966C35.8525 3.94565 35.8827 3.95325 35.9125 3.95325C35.9733 3.95325 36.0324 3.92169 36.065 3.86529C36.1136 3.7812 36.0847 3.67364 36.0006 3.62508ZM33.2589 2.24524L33.8334 1.91355L34.4078 2.24524V2.90851L33.8334 3.2402L33.2589 2.90851V2.24524Z" fill="#82FFFE"/>
</g>
<defs>
<clipPath id="clip0_8470_2547">
<rect width="5.15375" height="5.15375" fill="white" transform="translate(51.8477 5.2168)"/>
</clipPath>
<clipPath id="clip1_8470_2547">
<rect width="5.15375" height="5.15375" fill="white" transform="translate(69.0391 18.0742)"/>
</clipPath>
<clipPath id="clip2_8470_2547">
<rect width="5.15375" height="5.15375" fill="white" transform="translate(24.7344 23.7793)"/>
</clipPath>
<clipPath id="clip3_8470_2547">
<rect width="5.15375" height="5.15375" fill="white" transform="translate(38.7109 13.3008)"/>
</clipPath>
<clipPath id="clip4_8470_2547">
<rect width="5.15375" height="5.15375" fill="white" transform="translate(39.3984 28.3047)"/>
</clipPath>
</defs>
</svg>
