<svg width="51" height="46" viewBox="0 0 51 46" fill="none" xmlns="http://www.w3.org/2000/svg">
<path d="M36.72 8.61035H0V45.3304H36.72V8.61035Z" fill="#61BD73"/>
<path d="M35.9194 20.13C30.3694 20.13 25.8594 15.62 25.8594 10.07C25.8594 4.52 30.3694 0 35.9194 0C41.4694 0 45.9794 4.51 45.9794 10.06C45.9794 15.61 41.4694 20.12 35.9194 20.12V20.13ZM35.9194 1.5C31.1994 1.5 27.3594 5.34 27.3594 10.06C27.3594 14.78 31.1994 18.62 35.9194 18.62C40.6394 18.62 44.4794 14.78 44.4794 10.06C44.4794 5.34 40.6394 1.5 35.9194 1.5Z" fill="#130C49"/>
<path d="M50.58 33.1796H49.08C49.08 26.1296 43.34 20.3896 36.29 20.3896C29.24 20.3896 23.5 26.1296 23.5 33.1796H22C22 25.2996 28.41 18.8896 36.29 18.8896C44.17 18.8896 50.58 25.2996 50.58 33.1796Z" fill="#130C49"/>
<path d="M42.75 34.2404L39.31 32.4304L35.87 34.2404L36.53 30.4104L33.75 27.7004L37.6 27.1404L39.32 23.6504L41.04 27.1404L44.89 27.7004L42.11 30.4104L42.77 34.2404H42.75Z" fill="#130C49"/>
</svg>
