<svg width="57" height="48" viewBox="0 0 57 48" fill="none" xmlns="http://www.w3.org/2000/svg">
<path d="M36.72 0H0V36.72H36.72V0Z" fill="#61BD73"/>
<path d="M56.3758 6.0558C55.4358 3.6058 52.6858 2.3758 50.2458 3.3158C47.7958 4.2558 46.5658 7.0058 47.5058 9.4458C47.9658 10.6458 48.8958 11.6058 50.0758 12.1058L46.9158 23.9258C46.1858 23.8458 45.4358 23.9458 44.7358 24.2158C42.9858 24.8858 41.7858 26.5458 41.6858 28.3858L31.4458 28.8558C31.4058 28.6458 31.3358 28.4258 31.2458 28.2058C30.7958 27.0158 29.9058 26.0858 28.7458 25.5658C27.5858 25.0458 26.2958 25.0158 25.1158 25.4658C23.9358 25.9158 22.9958 26.8058 22.4858 27.9658C21.9658 29.1258 21.9358 30.4158 22.3858 31.5958C22.5758 32.0858 22.8358 32.5258 23.1558 32.9258L18.3758 38.3458C17.0958 37.4958 15.4958 37.3058 14.0558 37.8558C11.6058 38.7958 10.3758 41.5458 11.3158 43.9858C12.0358 45.8758 13.8458 47.0458 15.7558 47.0458C16.3158 47.0458 16.8858 46.9458 17.4458 46.7358C19.8858 45.8058 21.1158 43.0558 20.1758 40.6058C19.9858 40.1058 19.7158 39.6458 19.3658 39.2458L24.1358 33.8258C25.4258 34.7058 27.0358 34.9058 28.4958 34.3458C30.2358 33.6858 31.4358 32.0358 31.5458 30.2058L41.7858 29.7358C41.8358 29.9458 41.8958 30.1558 41.9758 30.3658C42.4258 31.5458 43.3158 32.4858 44.4758 33.0058C45.6358 33.5258 46.9258 33.5658 48.1158 33.1058C50.5558 32.1758 51.7858 29.4158 50.8458 26.9758C50.3758 25.7358 49.4058 24.7558 48.1958 24.2658L51.3458 12.4758C52.1158 12.5758 52.8958 12.4758 53.6258 12.2058C54.8058 11.7558 55.7458 10.8658 56.2658 9.7058C56.7858 8.5458 56.8158 7.2558 56.3658 6.0758L56.3758 6.0558ZM49.6158 27.4358C50.2858 29.1958 49.4058 31.1758 47.6558 31.8458C45.8958 32.5158 43.9158 31.6358 43.2458 29.8758C43.1858 29.7058 43.1358 29.5458 43.1058 29.3658C43.0458 29.1158 43.0158 28.8558 43.0258 28.5958C43.0558 27.1958 43.9158 25.9658 45.2258 25.4658C45.6158 25.3158 46.0258 25.2458 46.4458 25.2458C46.5858 25.2458 46.7258 25.2458 46.8558 25.2658C47.1058 25.2958 47.3558 25.3558 47.6158 25.4558C48.5458 25.8058 49.2758 26.5258 49.6258 27.4458L49.6158 27.4358ZM53.1558 10.9458C52.5958 11.1558 52.0158 11.2258 51.4158 11.1258C51.1658 11.0958 50.9158 11.0258 50.6758 10.9158C49.7858 10.5658 49.0858 9.8558 48.7458 8.9758C48.0758 7.2158 48.9558 5.2358 50.7158 4.5658C51.1158 4.4158 51.5258 4.3358 51.9358 4.3358C52.4058 4.3358 52.8858 4.4358 53.3258 4.6358C54.1558 5.0058 54.7958 5.6858 55.1258 6.5358C55.7958 8.2958 54.9158 10.2758 53.1558 10.9458ZM30.2258 29.9858C30.1958 31.3758 29.3358 32.5858 28.0358 33.0858C26.9558 33.4958 25.7458 33.3358 24.8058 32.6458C24.5958 32.5058 24.4058 32.3358 24.2358 32.1258C23.9758 31.8358 23.7758 31.4958 23.6358 31.1258C23.3058 30.2758 23.3358 29.3458 23.7058 28.5158C24.0758 27.6858 24.7458 27.0458 25.5958 26.7258C25.9958 26.5758 26.4058 26.4958 26.8158 26.4958C27.2858 26.4958 27.7658 26.5958 28.2058 26.7958C29.0358 27.1658 29.6758 27.8458 30.0058 28.6958C30.0758 28.8658 30.1258 29.0358 30.1558 29.2158C30.2158 29.4858 30.2358 29.7458 30.2258 29.9958V29.9858ZM18.8558 43.6858C18.4858 44.5158 17.8158 45.1558 16.9658 45.4858C15.2058 46.1558 13.2258 45.2758 12.5558 43.5158C11.8858 41.7558 12.7658 39.7758 14.5258 39.1058C14.9158 38.9558 15.3258 38.8858 15.7258 38.8858C16.4258 38.8858 17.1158 39.1058 17.7158 39.5258C17.9158 39.6558 18.1058 39.8358 18.2958 40.0458C18.5658 40.3558 18.7858 40.7058 18.9258 41.0858C19.2558 41.9358 19.2258 42.8658 18.8558 43.6958V43.6858Z" fill="#130C49"/>
</svg>
