<svg width="81" height="53" viewBox="0 0 81 53" fill="none" xmlns="http://www.w3.org/2000/svg">
<g id="Group 1261162437">
<g id="Group 1261162436">
<g id="Group 1261162435">
<g id="x8dGhk">
<g id="Group">
<path id="Vector" d="M3.1694 21.6202C3.22799 21.3368 3.50525 21.3068 3.69534 21.1972C15.8619 14.188 28.0328 7.1874 40.198 0.175391C40.5953 -0.0539267 40.8926 -0.0624727 41.2985 0.173967C50.3309 5.38989 59.3718 10.5916 68.4114 15.7947C71.4584 17.548 74.5111 19.2943 77.5553 21.0519C77.8311 21.2114 78.1756 21.2926 78.3356 21.6159C77.0937 22.301 75.8403 22.9676 74.6112 23.6755C70.4408 26.0784 66.2819 28.5026 62.1116 30.9083C57.5925 33.5148 53.0663 36.11 48.5401 38.7037C45.949 40.1893 43.3508 41.6635 40.7554 43.1419C37.5397 41.3174 34.3141 39.5099 31.1098 37.6654C26.5065 35.0147 21.9216 32.3326 17.3226 29.6748C14.4685 28.0254 11.6073 26.3875 8.74177 24.758C6.94958 23.7382 5.14309 22.7426 3.34233 21.7356C3.28373 21.6971 3.22657 21.6601 3.16797 21.6216L3.1694 21.6202ZM66.845 21.5063C66.8364 21.3681 66.7121 21.3296 66.6135 21.2712C65.8246 20.8069 65.0385 20.3369 64.2439 19.8825C61.2998 18.1989 58.3528 16.5239 55.4087 14.8404C52.8133 13.3562 50.2194 11.8706 47.6269 10.3808C45.6603 9.24984 43.7123 8.08473 41.7201 7.00224C41.2656 6.75583 40.8168 6.3271 40.0965 6.75013C35.9505 9.18717 31.7587 11.5487 27.5883 13.9473C23.3923 16.3601 19.2076 18.7915 15.0101 21.1986C14.5428 21.4664 14.5943 21.5874 15.0187 21.8324C18.1829 23.6556 21.3257 25.5172 24.4985 27.3247C29.7521 30.3186 35.0244 33.2798 40.2237 36.3692C40.4953 36.5302 40.7496 36.6469 41.0826 36.4547C43.3179 35.1599 45.566 33.8866 47.8041 32.5961C50.9268 30.7958 54.0439 28.984 57.1681 27.1837C60.2922 25.3833 63.4207 23.5901 66.5478 21.794C66.6692 21.7242 66.8107 21.6772 66.845 21.5063ZM51.69 35.1842C52.0873 35.1842 52.4561 35.1087 52.7962 34.9178C53.4979 34.5261 53.5108 34.0105 52.8205 33.5989C52.3117 33.2955 51.7986 32.9964 51.2756 32.7172C50.5067 32.3098 49.7549 32.4295 49.0503 32.8767C48.6844 33.1089 48.4658 33.5291 48.8645 33.8111C49.722 34.4193 50.591 35.0588 51.6914 35.1827L51.69 35.1842ZM35.426 4.63641C34.8914 4.65208 34.5341 4.74181 34.1926 4.96401C33.6038 5.34573 33.5823 5.79297 34.1669 6.1633C34.7271 6.51796 35.2973 6.86408 35.8919 7.15322C36.6365 7.515 37.3754 7.3982 38.0471 6.93672C38.3715 6.7131 38.6016 6.31001 38.2372 6.05078C37.3796 5.44259 36.5178 4.79167 35.426 4.63641ZM24.2669 11.0502C23.8153 11.0502 23.4037 11.1471 23.0336 11.3835C22.449 11.7552 22.4376 12.2281 23.0207 12.5885C23.5452 12.9118 24.0797 13.2195 24.6242 13.51C25.3831 13.9145 26.1434 13.8462 26.8509 13.3918C27.1867 13.1753 27.4883 12.7679 27.0767 12.4631C26.2306 11.8364 25.3588 11.2055 24.2669 11.053V11.0502ZM14.3056 20.1916C14.8243 20.1503 15.2002 20.0976 15.5404 19.911C16.2678 19.5122 16.2907 19.0236 15.5918 18.6006C15.0645 18.2816 14.5357 17.9625 13.9868 17.6848C13.2723 17.323 12.5505 17.4241 11.8774 17.8058C11.5229 18.0067 11.2057 18.4311 11.5744 18.7259C12.4148 19.3997 13.3237 20.0164 14.3041 20.1916H14.3056ZM62.859 28.7718C63.2535 28.7675 63.6208 28.6863 63.9595 28.494C64.6284 28.1123 64.6541 27.6038 64.0081 27.2136C63.4607 26.8831 62.9033 26.5669 62.3345 26.2764C61.5856 25.8932 60.8539 26.0257 60.1822 26.4729C59.8635 26.6851 59.6077 27.0954 59.9778 27.3546C60.8582 27.967 61.7143 28.6806 62.859 28.7704V28.7718ZM44.7685 35.6898C44.3683 35.6898 44.0053 35.7753 43.6637 35.9661C42.9392 36.3706 42.9163 36.8464 43.6194 37.2722C44.1254 37.5799 44.6384 37.8762 45.1615 38.1553C45.9261 38.5641 46.6779 38.4644 47.3868 38.0157C47.714 37.8092 47.9756 37.4075 47.6283 37.1398C46.7765 36.4832 45.889 35.8379 44.7699 35.6912L44.7685 35.6898ZM31.1884 10.5474C31.4843 10.5303 31.7644 10.4976 32.0345 10.3865C32.4004 10.2369 32.7462 10.0589 32.7834 9.61732C32.8177 9.20853 32.4733 9.07037 32.186 8.90515C31.7115 8.6331 31.247 8.34396 30.7668 8.08331C30.0508 7.69731 29.0432 7.78989 28.4787 8.27417C28.2 8.51488 27.9757 8.88093 28.3044 9.1188C29.179 9.7512 30.0465 10.4434 31.1899 10.546L31.1884 10.5474ZM67.0966 22.8651C66.6735 22.8736 66.2805 22.9363 65.9218 23.1585C65.2586 23.5687 65.2515 24.0515 65.9218 24.4489C66.4734 24.7765 67.0237 25.1098 67.5996 25.3904C68.3271 25.7437 69.0431 25.6026 69.6948 25.1725C70.0149 24.9603 70.2693 24.5615 69.9078 24.2837C69.0688 23.6385 68.1899 23.0203 67.0966 22.8651ZM19.9851 16.964C20.5039 16.947 20.9241 16.8416 21.2199 16.6379C21.7859 16.249 21.7887 15.7904 21.2042 15.4258C20.6811 15.0996 20.1495 14.782 19.6007 14.4999C18.826 14.1011 17.8799 14.1994 17.3211 14.6993C17.0453 14.9458 16.8381 15.2976 17.1739 15.5468C18.0229 16.1764 18.8861 16.8202 19.9865 16.9655L19.9851 16.964ZM55.9032 29.2746C55.5274 29.2746 55.1801 29.3529 54.8585 29.5181C54.5798 29.662 54.3183 29.84 54.2897 30.1947C54.2597 30.5707 54.5326 30.7317 54.807 30.8855C55.3244 31.1761 55.8346 31.4823 56.362 31.7558C57.108 32.1446 57.8398 32.0435 58.5258 31.6034C58.8573 31.3911 59.1132 30.9838 58.7716 30.7217C57.9155 30.0651 57.0294 29.4085 55.9018 29.2732L55.9032 29.2746ZM68.5357 17.5081C67.5896 17.4711 66.8908 18.048 66.1347 18.4724C65.7789 18.6718 65.4073 18.9225 65.5216 19.4011C65.6274 19.8412 66.019 19.9851 66.4363 20.0705C67.541 20.2956 68.4028 19.7429 69.2732 19.2102C69.6405 18.9852 70.0564 18.7502 69.9449 18.2431C69.8391 17.7588 69.3775 17.6548 68.9559 17.5566C68.8187 17.5252 68.6744 17.5238 68.5343 17.5081H68.5357ZM13.0522 25.5029C14.1169 25.4958 14.963 24.8748 15.7776 24.2282C16.1749 23.912 16.082 23.5103 15.6819 23.2169C15.3889 23.0018 15.0416 22.942 14.6786 22.9163C13.6739 22.8451 12.9278 23.4248 12.1404 23.8934C11.8188 24.0857 11.4286 24.3065 11.533 24.7537C11.6416 25.2166 12.0503 25.4004 12.5005 25.4631C12.6649 25.4858 12.8306 25.4873 13.0536 25.5029H13.0522ZM61.3856 16.937C62.2917 16.9655 62.9591 16.4185 63.6751 16.0126C64.0367 15.8075 64.4983 15.591 64.3654 15.0597C64.2296 14.5142 63.7451 14.4116 63.2506 14.3433C62.1302 14.188 61.2998 14.8218 60.4337 15.3531C60.1479 15.5283 59.8663 15.7591 59.9335 16.1465C60.0035 16.5439 60.3265 16.7219 60.6881 16.8131C60.9168 16.87 61.1526 16.8985 61.3841 16.9384L61.3856 16.937ZM55.7846 13.6952C56.7707 13.7564 57.4839 13.1539 58.2571 12.6982C58.5801 12.5073 58.8702 12.2723 58.8145 11.8678C58.7587 11.4618 58.4072 11.3208 58.0541 11.2083C57.4825 11.026 56.9122 11.0602 56.3806 11.2966C55.8618 11.5274 55.3716 11.8265 54.8814 12.117C54.5641 12.305 54.2825 12.57 54.3697 12.9745C54.4526 13.3605 54.7899 13.5357 55.1501 13.624C55.3559 13.6753 55.5745 13.6724 55.7875 13.6938L55.7846 13.6952ZM20.2552 26.1496C19.0204 26.114 18.1958 26.7578 17.3826 27.3589C16.8952 27.7192 17.031 28.2733 17.6155 28.5339C18.2301 28.8074 18.8789 28.8159 19.4906 28.5553C20.0123 28.3331 20.5025 28.0326 20.9941 27.7448C21.33 27.5483 21.653 27.2933 21.5529 26.8475C21.4572 26.4231 21.077 26.2821 20.694 26.198C20.5096 26.1567 20.3167 26.1567 20.2538 26.151L20.2552 26.1496ZM44.6742 7.28141C45.6517 7.31986 46.3678 6.71452 47.1481 6.27867C47.4468 6.11203 47.7097 5.85992 47.6726 5.49244C47.6311 5.08935 47.2981 4.91131 46.9451 4.79451C46.3792 4.6065 45.8061 4.63784 45.2716 4.87143C44.7728 5.08935 44.304 5.37564 43.8324 5.65196C43.4765 5.85992 43.1107 6.10775 43.235 6.59203C43.3508 7.04497 43.7709 7.15749 44.1768 7.23583C44.3397 7.26716 44.5084 7.26716 44.6742 7.28141ZM50.2108 10.509C51.1026 10.5403 51.7858 10.0304 52.5004 9.62159C52.8905 9.39939 53.3421 9.15441 53.1921 8.59749C53.0534 8.08331 52.579 8.00212 52.1188 7.93375C51.0597 7.77565 50.2508 8.34681 49.4205 8.84675C49.0718 9.05613 48.6916 9.29542 48.7959 9.77827C48.8945 10.2341 49.3176 10.3551 49.7163 10.4534C49.8764 10.4933 50.045 10.4919 50.2094 10.509H50.2108ZM31.3042 32.5548C30.1609 32.5477 29.3305 33.1758 28.5187 33.7812C28.05 34.1301 28.1686 34.6415 28.716 34.9135C29.2719 35.1899 29.855 35.2084 30.4496 35.0289C31.0498 34.848 31.56 34.4934 32.0945 34.1885C32.4547 33.9834 32.812 33.7199 32.6962 33.2471C32.5862 32.7998 32.1689 32.6702 31.7587 32.5947C31.5958 32.5648 31.4271 32.5662 31.3042 32.5563V32.5548ZM24.1397 31.9281C24.9872 31.9751 25.6332 31.4951 26.3049 31.1034C26.708 30.8684 27.2496 30.6491 27.1239 30.0765C26.9909 29.4726 26.4021 29.38 25.8733 29.3401C25.5961 29.3187 25.3059 29.3714 25.0301 29.4284C24.3384 29.5708 23.8024 30.0309 23.1979 30.3528C22.8863 30.5195 22.6663 30.7687 22.7077 31.1476C22.7534 31.5706 23.0907 31.7273 23.4366 31.8327C23.6595 31.8996 23.9039 31.8996 24.1383 31.9295L24.1397 31.9281ZM35.3131 38.3262C36.2906 38.3704 36.9981 37.7579 37.7755 37.3221C38.0728 37.1554 38.3358 36.9162 38.2929 36.5387C38.2457 36.1285 37.9056 35.9775 37.5583 35.8579C37.1667 35.724 36.7722 35.7197 36.3664 35.7881C35.6632 35.9049 35.1073 36.3251 34.5141 36.664C34.1397 36.8777 33.7438 37.1355 33.8796 37.6525C34.0082 38.1411 34.4584 38.2294 34.8886 38.3006C35.0286 38.3234 35.1716 38.3191 35.3145 38.3262H35.3131Z" fill="#04A886"/>
<path id="Vector_2" d="M40.76 43.1412C43.3554 41.6613 45.9536 40.1886 48.5447 38.703C53.071 36.1079 57.5957 33.5127 62.1162 30.9076C66.2866 28.5033 70.4455 26.0791 74.6158 23.6748C75.8449 22.9669 77.0983 22.3003 78.3403 21.6152C78.3503 23.2646 78.3588 24.9126 78.3688 26.562C78.6075 27.7912 77.9258 28.4179 76.8939 28.838C76.5881 28.962 76.3137 29.1614 76.0264 29.3266C72.3634 31.4318 68.699 33.5327 65.0375 35.6421C62.0333 37.3727 59.0378 39.1175 56.0336 40.848C52.3721 42.9589 48.7177 45.0826 45.0375 47.1593C43.6141 47.9626 42.2606 48.8913 40.75 49.5379C40.7543 47.4057 40.7586 45.2735 40.7629 43.1398L40.76 43.1412Z" fill="#130C49"/>
<path id="Vector_3" d="M40.7492 49.5385C42.2599 48.8918 43.6133 47.9617 45.0368 47.1598C48.7183 45.0831 52.3713 42.9595 56.0329 40.8486C59.037 39.1166 62.0326 37.3732 65.0367 35.6426C68.6968 33.5332 72.3627 31.4309 76.0257 29.3271C76.3144 29.1619 76.5888 28.9625 76.8932 28.8386C77.9265 28.4198 78.6068 27.7931 78.3681 26.5625C79.1127 26.9941 79.8601 27.42 80.599 27.8601C80.7748 27.9655 81.095 27.9911 80.9549 28.3386C80.6448 28.256 80.4018 28.417 80.156 28.5594C79.3571 29.0209 78.5567 29.4824 77.7578 29.9453C75.3768 31.3226 72.9987 32.7085 70.6134 34.0787C65.717 36.8904 60.8135 39.6878 55.92 42.5023C50.8607 45.4107 45.8085 48.3306 40.7535 51.2448C38.8442 50.1495 36.9319 49.057 35.0254 47.9589C28.9256 44.4479 22.8288 40.9326 16.729 37.4216C11.534 34.4305 6.33891 31.4394 1.14242 28.4483C0.959484 28.3429 0.737961 28.276 0.742249 28.0054C1.49114 27.4684 2.30577 27.0411 3.11611 26.6081L3.1547 26.5767L3.20329 26.5839C3.19329 26.9157 3.189 27.2476 3.17042 27.5781C3.15327 27.8686 3.25903 28.0566 3.52486 28.209C5.62575 29.4112 7.71664 30.6304 9.81468 31.8382C12.8374 33.5788 15.863 35.3136 18.8857 37.0527C21.7212 38.6836 24.5538 40.3202 27.3893 41.9496C30.3934 43.6759 33.3947 45.4065 36.4074 47.1157C37.8494 47.9332 39.2386 48.8448 40.7507 49.5385H40.7492Z" fill="#04A886"/>
<path id="Vector_4" d="M0.741491 28.002C0.737204 28.2726 0.958727 28.3395 1.14166 28.4449C6.33815 31.4346 11.5332 34.4257 16.7283 37.4182C22.8266 40.9307 28.9249 44.4445 35.0246 47.9555C36.9326 49.0536 38.8434 50.1461 40.7528 51.2414C40.8743 51.7684 40.4498 52.4065 41.0801 52.831C40.7428 53.1913 40.4684 52.8837 40.2011 52.7299C36.5796 50.6517 32.9623 48.5665 29.3422 46.4856C19.9454 41.0788 10.5471 35.6734 1.15024 30.2666C0.444222 29.8607 0.241279 28.7326 0.741491 28.0034V28.002Z" fill="#262262"/>
<path id="Vector_5" d="M41.0776 52.8302C40.4488 52.4072 40.8733 51.7677 40.7503 51.2407C45.8053 48.3265 50.8575 45.4066 55.9168 42.4981C60.8117 39.685 65.7152 36.8862 70.6102 34.0746C72.9955 32.7043 75.3736 31.3199 77.7546 29.9411C78.5535 29.4782 79.3525 29.0167 80.1528 28.5553C80.4001 28.4128 80.643 28.2533 80.9517 28.3345C81.1146 29.3429 80.8802 30.0038 79.8512 30.5878C69.251 36.6184 58.6923 42.7231 48.1206 48.805C45.7768 50.1525 43.4243 51.4871 41.0762 52.8274L41.0776 52.8302Z" fill="#130C49"/>
<path id="Vector_6" d="M3.17045 21.6191C3.22904 21.6576 3.28621 21.6946 3.34481 21.7331C3.33766 22.9367 3.34481 24.1416 3.31337 25.3438C3.30336 25.7554 3.45485 26.1898 3.20046 26.5801L3.15187 26.573L3.11328 26.6043C3.13186 24.9421 3.15044 23.2813 3.16902 21.6191H3.17045Z" fill="#130C49"/>
<path id="Vector_7" d="M3.19767 26.5814C3.45206 26.1897 3.30057 25.7567 3.31057 25.3451C3.34059 24.1415 3.33344 22.9379 3.34202 21.7344C5.14278 22.7414 6.94926 23.737 8.74145 24.7568C11.607 26.3863 14.4682 28.0242 17.3222 29.6736C21.9213 32.3314 26.5061 35.0135 31.1095 37.6642C34.3137 39.5087 37.5394 41.3162 40.7551 43.1407C40.7508 45.273 40.7465 47.4052 40.7422 49.5388C39.2301 48.8452 37.841 47.935 36.3989 47.116C33.3862 45.4068 30.3849 43.6763 27.3808 41.95C24.5453 40.3205 21.7127 38.684 18.8772 37.0531C15.8545 35.314 12.8289 33.5792 9.80619 31.8386C7.70816 30.6308 5.61727 29.4115 3.51637 28.2094C3.25055 28.057 3.14479 27.869 3.16194 27.5784C3.18052 27.248 3.18481 26.9161 3.19481 26.5842L3.19767 26.5814Z" fill="#262262"/>
<path id="Vector_8" d="M66.8462 21.5054C66.8119 21.6763 66.6704 21.7233 66.5489 21.7931C63.4218 23.5892 60.2934 25.3825 57.1692 27.1828C54.0464 28.9832 50.9294 30.7949 47.8052 32.5953C45.5671 33.8858 43.319 35.1591 41.0838 36.4538C40.7508 36.6475 40.4964 36.5293 40.2248 36.3684C35.0255 33.2804 29.7533 30.3178 24.4996 27.3238C21.3268 25.5164 18.1841 23.6547 15.0199 21.8316C14.594 21.5866 14.5425 21.4655 15.0113 21.1978C19.2102 18.7906 23.3948 16.3593 27.5895 13.9465C31.7598 11.5479 35.9516 9.18776 40.0977 6.7493C40.818 6.32627 41.2667 6.75357 41.7212 7.0014C43.7149 8.0839 45.6614 9.25043 47.628 10.3799C50.2205 11.8698 52.8145 13.3568 55.4099 14.8395C58.354 16.5217 61.3024 18.1981 64.2451 19.8817C65.0397 20.336 65.8257 20.8061 66.6146 21.2704C66.7132 21.3288 66.8376 21.3673 66.8462 21.5054ZM63.1932 21.551C63.0803 21.4513 63.036 21.3957 62.9774 21.3616C55.7071 17.1769 48.4355 12.9979 41.1724 8.80319C40.8208 8.59951 40.575 8.65506 40.2677 8.84449C38.4913 9.94123 36.639 10.9041 34.8368 11.9595C29.5274 15.0717 24.1766 18.1141 18.8458 21.1878C18.6771 21.2846 18.437 21.3131 18.3727 21.5681C18.4799 21.6336 18.5785 21.6977 18.6814 21.7561C25.8873 25.9066 33.0975 30.0529 40.2934 34.2205C40.7136 34.464 40.9837 34.3387 41.3225 34.1421C45.2727 31.8618 49.2272 29.5857 53.1818 27.3096C56.496 25.4024 59.8103 23.4952 63.1932 21.5482V21.551Z" fill="#262262"/>
<path id="Vector_9" d="M51.6915 35.184C50.5911 35.0601 49.7221 34.4206 48.8646 33.8124C48.4673 33.5304 48.6846 33.1102 49.0504 32.878C49.755 32.4308 50.5068 32.3097 51.2757 32.7185C51.7987 32.9963 52.3118 33.2954 52.8206 33.6002C53.5109 34.0118 53.498 34.5274 52.7963 34.9191C52.4562 35.11 52.0874 35.1855 51.6901 35.1855L51.6915 35.184Z" fill="#130C49"/>
<path id="Vector_10" d="M35.4286 4.63672C36.5219 4.79197 37.3823 5.44289 38.2398 6.05108C38.6043 6.30889 38.3742 6.7134 38.0497 6.93702C37.378 7.39851 36.6391 7.5153 35.8945 7.15352C35.3 6.86438 34.7297 6.51827 34.1695 6.16361C33.585 5.79328 33.6064 5.34604 34.1952 4.96432C34.5368 4.74212 34.8941 4.65239 35.4286 4.63672Z" fill="#130C49"/>
<path id="Vector_11" d="M24.2681 11.0497C25.36 11.2021 26.2318 11.8345 27.0779 12.4598C27.4895 12.7646 27.1879 13.1734 26.8521 13.3885C26.1446 13.8428 25.3843 13.9112 24.6254 13.5067C24.0809 13.2176 23.5464 12.9099 23.0219 12.5852C22.4388 12.2248 22.4488 11.7533 23.0347 11.3802C23.4063 11.1437 23.8179 11.0469 24.2681 11.0469V11.0497Z" fill="#130C49"/>
<path id="Vector_12" d="M14.3044 20.1916C13.3226 20.0164 12.415 19.3997 11.5747 18.726C11.206 18.4297 11.5232 18.0067 11.8777 17.8058C12.5508 17.4241 13.2725 17.3244 13.9871 17.6848C14.5359 17.9625 15.0647 18.2816 15.5921 18.6006C16.2895 19.0222 16.2667 19.5122 15.5406 19.911C15.2005 20.0976 14.8246 20.1503 14.3058 20.1916H14.3044Z" fill="#130C49"/>
<path id="Vector_13" d="M62.8609 28.7723C61.7161 28.6826 60.86 27.969 59.9796 27.3565C59.6095 27.0987 59.8653 26.6885 60.184 26.4749C60.8557 26.0262 61.586 25.8952 62.3364 26.2783C62.9052 26.5689 63.4625 26.8851 64.0099 27.2155C64.6559 27.6058 64.6302 28.1143 63.9613 28.496C63.6226 28.6883 63.2567 28.7695 62.8609 28.7737V28.7723Z" fill="#130C49"/>
<path id="Vector_14" d="M44.7739 35.6889C45.893 35.8356 46.7805 36.4809 47.6323 37.1375C47.981 37.4067 47.718 37.8069 47.3908 38.0134C46.6819 38.4607 45.9301 38.5618 45.1655 38.153C44.6439 37.8739 44.1294 37.5776 43.6234 37.2699C42.9203 36.8426 42.9417 36.3683 43.6678 35.9638C44.0093 35.7744 44.3723 35.6889 44.7725 35.6875L44.7739 35.6889Z" fill="#130C49"/>
<path id="Vector_15" d="M31.1898 10.547C30.0464 10.4444 29.1789 9.75222 28.3043 9.11981C27.9755 8.88195 28.1985 8.51447 28.4786 8.27518C29.0431 7.78948 30.0521 7.6969 30.7667 8.08432C31.2469 8.34355 31.7128 8.63269 32.1859 8.90616C32.4746 9.07138 32.8176 9.20955 32.7833 9.61833C32.7461 10.0599 32.4003 10.2379 32.0344 10.3875C31.7629 10.4986 31.4842 10.5313 31.1883 10.5484L31.1898 10.547Z" fill="#130C49"/>
<path id="Vector_16" d="M67.0962 22.8652C68.1895 23.0219 69.0684 23.6401 69.9074 24.2839C70.2689 24.5616 70.0145 24.9604 69.6944 25.1727C69.0441 25.6042 68.3281 25.7452 67.5992 25.3906C67.0233 25.11 66.473 24.7767 65.9214 24.4491C65.2511 24.0517 65.2597 23.5689 65.9214 23.1586C66.2801 22.9365 66.6731 22.8738 67.0962 22.8652Z" fill="#130C49"/>
<path id="Vector_17" d="M19.986 16.964C18.887 16.8187 18.0238 16.1749 17.1734 15.5454C16.8376 15.2961 17.0462 14.9443 17.3206 14.6979C17.8794 14.1979 18.8256 14.0997 19.6002 14.4985C20.149 14.7805 20.6806 15.0981 21.2037 15.4243C21.7882 15.7889 21.7854 16.249 21.2194 16.6364C20.9222 16.8401 20.502 16.9455 19.9846 16.9626L19.986 16.964Z" fill="#130C49"/>
<path id="Vector_18" d="M55.9075 29.2754C57.0352 29.4107 57.9227 30.0673 58.7773 30.7239C59.1189 30.986 58.8631 31.3948 58.5315 31.6056C57.8441 32.0443 57.1123 32.1454 56.3677 31.758C55.8404 31.4845 55.3302 31.1783 54.8128 30.8877C54.5384 30.7325 54.264 30.573 54.2954 30.1969C54.324 29.8423 54.5856 29.6642 54.8642 29.5204C55.1858 29.3537 55.5331 29.2768 55.909 29.2768L55.9075 29.2754Z" fill="#130C49"/>
<path id="Vector_19" d="M68.5377 17.5095C68.6792 17.5252 68.8221 17.5266 68.9593 17.5579C69.3795 17.6562 69.8425 17.7588 69.9483 18.2445C70.0583 18.7515 69.6439 18.9865 69.2766 19.2116C68.4062 19.7443 67.5444 20.2955 66.4397 20.0719C66.0223 19.9879 65.6307 19.844 65.525 19.4025C65.4107 18.9239 65.7822 18.6732 66.1381 18.4738C66.8941 18.0493 67.593 17.4725 68.5391 17.5095H68.5377Z" fill="#130C49"/>
<path id="Vector_20" d="M13.0536 25.5029C12.832 25.4873 12.6648 25.4859 12.5005 25.4631C12.0503 25.4004 11.6415 25.2167 11.5329 24.7537C11.4286 24.3065 11.8173 24.0843 12.1403 23.8934C12.9278 23.4248 13.6738 22.8437 14.6785 22.9163C15.0415 22.942 15.3888 23.0018 15.6818 23.2169C16.082 23.5103 16.1763 23.912 15.7776 24.2282C14.9644 24.8748 14.1169 25.4972 13.0521 25.5029H13.0536Z" fill="#130C49"/>
<path id="Vector_21" d="M61.3868 16.9354C61.1538 16.8941 60.918 16.867 60.6908 16.81C60.3278 16.7189 60.0062 16.5408 59.9362 16.1435C59.8676 15.7575 60.1505 15.5253 60.4364 15.3501C61.3025 14.8188 62.1328 14.185 63.2533 14.3402C63.7478 14.4086 64.2323 14.5112 64.3681 15.0567C64.4995 15.588 64.0379 15.8059 63.6778 16.0096C62.9617 16.4155 62.2943 16.961 61.3882 16.934L61.3868 16.9354Z" fill="#130C49"/>
<path id="Vector_22" d="M55.785 13.6954C55.572 13.6741 55.3533 13.6755 55.1475 13.6257C54.7888 13.5373 54.4501 13.3622 54.3672 12.9762C54.2815 12.5716 54.5616 12.3067 54.8789 12.1187C55.3691 11.8281 55.8593 11.529 56.3781 11.2983C56.9097 11.0619 57.48 11.0277 58.0516 11.21C58.4046 11.3225 58.7576 11.4635 58.812 11.8695C58.8677 12.274 58.5776 12.509 58.2546 12.6998C57.4814 13.1556 56.7697 13.7581 55.7821 13.6969L55.785 13.6954Z" fill="#130C49"/>
<path id="Vector_23" d="M20.2579 26.1493C20.3208 26.155 20.5137 26.1564 20.6981 26.1963C21.0811 26.2804 21.4613 26.4214 21.557 26.8458C21.6571 27.2902 21.3341 27.5466 20.9982 27.7432C20.5066 28.0309 20.0164 28.3314 19.4947 28.5536C18.883 28.8128 18.2342 28.8057 17.6196 28.5322C17.0365 28.2716 16.8993 27.7175 17.3867 27.3572C18.1999 26.7561 19.0231 26.1123 20.2593 26.1479L20.2579 26.1493Z" fill="#130C49"/>
<path id="Vector_24" d="M44.6787 7.28237C44.513 7.26813 44.3443 7.26813 44.1814 7.23679C43.7755 7.15846 43.3568 7.04593 43.2396 6.59299C43.1152 6.10872 43.4825 5.86088 43.837 5.65293C44.3086 5.37803 44.7774 5.09032 45.2761 4.8724C45.8107 4.6388 46.3823 4.60889 46.9497 4.79548C47.3027 4.91228 47.6357 5.09032 47.6772 5.49341C47.7143 5.86231 47.4514 6.11299 47.1527 6.27964C46.3723 6.71549 45.6563 7.32083 44.6787 7.28237Z" fill="#130C49"/>
<path id="Vector_25" d="M50.2123 10.5083C50.0479 10.4912 49.8778 10.4912 49.7192 10.4527C49.3205 10.3545 48.8988 10.2334 48.7988 9.7776C48.6945 9.29475 49.0746 9.05546 49.4234 8.84608C50.2537 8.34614 51.0626 7.77498 52.1216 7.93308C52.5818 8.00145 53.0563 8.08264 53.195 8.59682C53.345 9.15374 52.892 9.39872 52.5032 9.62092C51.7886 10.0297 51.1069 10.5396 50.2137 10.5083H50.2123Z" fill="#130C49"/>
<path id="Vector_26" d="M31.3071 32.5542C31.4314 32.5642 31.6 32.5628 31.7615 32.5927C32.1717 32.6696 32.5876 32.7978 32.6991 33.245C32.8163 33.7193 32.4576 33.9814 32.0974 34.1865C31.5629 34.4913 31.0527 34.846 30.4524 35.0269C29.8579 35.2063 29.2748 35.1878 28.7188 34.9115C28.1729 34.6394 28.0528 34.1281 28.5216 33.7791C29.3348 33.1738 30.1637 32.5457 31.3071 32.5528V32.5542Z" fill="#130C49"/>
<path id="Vector_27" d="M24.1424 31.9283C23.908 31.8984 23.6636 31.8984 23.4406 31.8314C23.0948 31.726 22.7575 31.5694 22.7118 31.1463C22.6717 30.7675 22.8904 30.5182 23.202 30.3515C23.8051 30.0296 24.3424 29.5696 25.0342 29.4272C25.31 29.3702 25.6001 29.3175 25.8774 29.3388C26.4062 29.3801 26.9936 29.4713 27.1279 30.0752C27.2537 30.6478 26.712 30.8672 26.309 31.1022C25.6359 31.4939 24.9913 31.9724 24.1438 31.9269L24.1424 31.9283Z" fill="#130C49"/>
<path id="Vector_28" d="M35.3176 38.3252C35.1761 38.3167 35.0317 38.3224 34.8917 38.2996C34.4615 38.2298 34.0113 38.1401 33.8827 37.6515C33.7469 37.1331 34.1442 36.8767 34.5172 36.663C35.1104 36.324 35.6663 35.9039 36.3695 35.7871C36.7768 35.7201 37.1698 35.723 37.5614 35.8569C37.9087 35.9765 38.2503 36.1275 38.296 36.5377C38.3389 36.9137 38.0759 37.1544 37.7786 37.3211C37.0012 37.7569 36.2923 38.3694 35.3162 38.3252H35.3176Z" fill="#130C49"/>
<path id="Vector_29" d="M63.1916 21.5517C59.8101 23.4973 56.4944 25.4045 53.1802 27.3131C49.2271 29.5892 45.2725 31.8639 41.3208 34.1457C40.9821 34.3422 40.7106 34.4676 40.2918 34.224C33.0959 30.0564 25.8857 25.9101 18.6798 21.7596C18.5769 21.7012 18.4783 21.6371 18.3711 21.5716C18.4354 21.3167 18.6755 21.2896 18.8442 21.1913C24.175 18.1176 29.5258 15.0738 34.8352 11.963C36.636 10.9076 38.4896 9.94475 40.2661 8.84801C40.5734 8.65858 40.8192 8.60303 41.1708 8.80671C48.4339 13.0014 55.707 17.1818 62.9758 21.3651C63.0344 21.3978 63.0787 21.4548 63.1916 21.5545V21.5517Z" fill="#61D384"/>
</g>
</g>
</g>
</g>
</g>
</svg>
