<svg width="56" height="44" viewBox="0 0 56 44" fill="none" xmlns="http://www.w3.org/2000/svg">
<g id="Group 2863">
<path id="Vector" d="M36.72 6.42969H0V43.1497H36.72V6.42969Z" fill="#61BD73"/>
<g id="Group 2827">
<path id="Vector_2" d="M50.44 29.03L45.94 23.46H18.56C17.15 23.46 16 22.31 16 20.9V2.56C16 1.15 17.15 0 18.56 0H53.33C54.74 0 55.89 1.15 55.89 2.56V20.91C55.89 22.32 54.74 23.47 53.33 23.47H50.63L50.43 29.04L50.44 29.03ZM18.56 1.5C17.98 1.5 17.5 1.97 17.5 2.56V20.91C17.5 21.49 17.97 21.97 18.56 21.97H46.66L49.08 24.97L49.19 21.97H53.33C53.91 21.97 54.39 21.5 54.39 20.91V2.56C54.39 1.98 53.92 1.5 53.33 1.5H18.56Z" fill="#130C49"/>
<path id="Vector_3" d="M50.1378 11.5098H21.5078C21.0978 11.5098 20.7578 11.1698 20.7578 10.7598C20.7578 10.3498 21.0978 10.0098 21.5078 10.0098H50.1378C50.5478 10.0098 50.8878 10.3498 50.8878 10.7598C50.8878 11.1698 50.5478 11.5098 50.1378 11.5098Z" fill="#130C49"/>
<path id="Vector_4" d="M50.1411 16.4199H31.3711C30.9611 16.4199 30.6211 16.0799 30.6211 15.6699C30.6211 15.2599 30.9611 14.9199 31.3711 14.9199H50.1411C50.5511 14.9199 50.8911 15.2599 50.8911 15.6699C50.8911 16.0799 50.5511 16.4199 50.1411 16.4199Z" fill="#130C49"/>
</g>
</g>
</svg>
