<svg width="80" height="75" viewBox="0 0 80 75" fill="none" xmlns="http://www.w3.org/2000/svg">
<g style="mix-blend-mode:plus-lighter" opacity="0.8">
<g clip-path="url(#clip0_8470_2348)">
<path fill-rule="evenodd" clip-rule="evenodd" d="M68.7078 48.4726C68.0558 63.1959 55.2324 74.9441 39.5024 74.9441C23.3553 74.9441 10.2656 62.15 10.2656 47.297C10.2656 45.3117 10.228 41.3441 13.3759 34.65C15.2598 30.6438 16.4414 28.127 17.1083 25.8264C17.4747 24.562 18.1873 22.5532 20.2186 25.8264C21.4164 27.7564 21.4627 30.5323 21.4627 30.5323C21.4627 30.5323 25.9191 27.2985 28.9274 21.1206C33.3375 12.0638 29.8188 6.64998 28.6164 2.88527C28.2002 1.58292 27.939 -0.757672 30.7936 0.23821C33.7023 1.25321 41.3922 6.3435 45.412 11.7088C51.1489 19.3662 53.1877 26.7088 53.1877 26.7088C53.1877 26.7088 55.0246 24.5529 55.6759 22.297C56.4115 19.7497 56.4224 17.2267 58.7859 19.9444C61.0337 22.5288 64.372 27.3856 66.2509 32.0029C69.6626 40.3879 68.7078 48.4726 68.7078 48.4726Z" fill="url(#paint0_linear_8470_2348)"/>
<path fill-rule="evenodd" clip-rule="evenodd" d="M39.5021 74.9439C28.3364 74.9439 19.2852 66.3848 19.2852 55.8262C19.2852 49.4554 22.0001 45.5874 27.6506 40.3421C31.2685 36.9836 34.6547 32.8586 36.0938 30.0498C36.3772 29.4968 37.0219 26.6154 39.508 29.9892C40.8121 31.7586 42.8565 34.9054 44.1675 37.5909C46.4274 42.2212 46.9668 46.7086 46.9668 46.7086C46.9668 46.7086 49.1816 45.4745 50.6991 42.2968C51.1884 41.2727 52.1774 37.3957 54.9425 41.2721C56.9713 44.1168 59.7585 49.2315 59.719 55.8262C59.719 66.3848 50.6674 74.9439 39.5021 74.9439Z" fill="#FC9502"/>
<path fill-rule="evenodd" clip-rule="evenodd" d="M39.8133 54.0625C42.6903 54.0625 42.6903 59.1004 46.3449 65.8272C48.7784 70.3063 45.1385 74.9449 39.8133 74.9449C34.4882 74.9449 31.7266 70.8628 31.7266 65.8272C31.7266 60.7919 36.9363 54.0625 39.8133 54.0625Z" fill="#FCE202"/>
</g>
<g opacity="0.9">
<path d="M31.5977 27.2897L40.7376 32.5256L49.8086 27.3126L41.3338 22.4239C40.9365 22.1947 40.4469 22.1947 40.0496 22.4234L31.5977 27.2897Z" fill="#FFF5F5"/>
<path fill-rule="evenodd" clip-rule="evenodd" d="M40.7383 32.5255V36.6591L49.1346 31.7024C49.5246 31.4723 49.7648 31.0539 49.7666 30.601L49.8093 27.3125L40.7383 32.5255Z" fill="#AD9090"/>
<path d="M40.7376 32.525L31.5977 27.2891V30.72C31.5977 31.183 31.8461 31.6096 32.2485 31.8384L40.7376 36.6586V32.525Z" fill="#CAB6B6"/>
<path d="M22.1289 32.8346L31.2688 38.0705L40.3399 32.8575L31.865 27.9688C31.4677 27.7396 30.9781 27.7396 30.5808 27.9684L22.1289 32.8346Z" fill="#FFF5F5"/>
<path fill-rule="evenodd" clip-rule="evenodd" d="M31.2695 38.0724V42.206L39.6659 37.2493C40.0558 37.0192 40.296 36.6008 40.2979 36.1479L40.3406 32.8594L31.2695 38.0724Z" fill="#AD9090"/>
<path d="M31.2688 38.0699L22.1289 32.834V36.2649C22.1289 36.7279 22.3774 37.1546 22.7797 37.3833L31.2688 42.2036V38.0699Z" fill="#CAB6B6"/>
<path d="M41.0664 32.8346L50.2063 38.0705L59.2774 32.8575L50.8025 27.9688C50.4052 27.7396 49.9156 27.7396 49.5183 27.9684L41.0664 32.8346Z" fill="#FFF5F5"/>
<path fill-rule="evenodd" clip-rule="evenodd" d="M50.207 38.0724V42.206L58.6034 37.2493C58.9933 37.0192 59.2335 36.6008 59.2354 36.1479L59.2781 32.8594L50.207 38.0724Z" fill="#AD9090"/>
<path d="M50.2063 38.0699L41.0664 32.834V36.2649C41.0664 36.7279 41.3149 37.1546 41.7172 37.3833L50.2063 42.2036V38.0699Z" fill="#CAB6B6"/>
<path d="M31.5977 38.3834L40.7376 43.6193L49.8086 38.4064L41.3338 33.5177C40.9365 33.2885 40.4469 33.2885 40.0496 33.5172L31.5977 38.3834Z" fill="#FFF5F5"/>
<path fill-rule="evenodd" clip-rule="evenodd" d="M40.7383 43.6212V47.7548L49.1346 42.7981C49.5246 42.568 49.7648 42.1496 49.7666 41.6968L49.8093 38.4082L40.7383 43.6212Z" fill="#AD9090"/>
<path d="M40.7376 43.6188L31.5977 38.3828V41.8137C31.5977 42.2767 31.8461 42.7034 32.2485 42.9321L40.7376 47.7524V43.6188Z" fill="#CAB6B6"/>
<path d="M50.5352 38.3834L59.6751 43.6193L68.7461 38.4064L60.2713 33.5177C59.874 33.2885 59.3844 33.2885 58.9871 33.5172L50.5352 38.3834Z" fill="#FFF5F5"/>
<path fill-rule="evenodd" clip-rule="evenodd" d="M59.6758 43.6212V47.7548L68.0721 42.7981C68.4621 42.568 68.7023 42.1496 68.7041 41.6968L68.7468 38.4082L59.6758 43.6212Z" fill="#AD9090"/>
<path d="M59.6751 43.6188L50.5352 38.3828V41.8137C50.5352 42.2767 50.7836 42.7034 51.186 42.9321L59.6751 47.7524V43.6188Z" fill="#CAB6B6"/>
<path d="M41.0664 43.9283L50.2063 49.1643L59.2774 43.9513L50.8025 39.0626C50.4052 38.8334 49.9156 38.8334 49.5183 39.0621L41.0664 43.9283Z" fill="#FFF5F5"/>
<path fill-rule="evenodd" clip-rule="evenodd" d="M50.207 49.1661V53.2997L58.6034 48.3431C58.9933 48.113 59.2335 47.6945 59.2354 47.2417L59.2781 43.9531L50.207 49.1661Z" fill="#AD9090"/>
<path d="M50.2063 49.1637L41.0664 43.9277V47.3587C41.0664 47.8216 41.3149 48.2483 41.7172 48.477L50.2063 53.2973V49.1637Z" fill="#CAB6B6"/>
<path d="M60.0039 43.9283L69.1438 49.1643L78.2149 43.9513L69.74 39.0626C69.3427 38.8334 68.8531 38.8334 68.4558 39.0621L60.0039 43.9283Z" fill="#FFF5F5"/>
<path fill-rule="evenodd" clip-rule="evenodd" d="M69.1445 49.1642V53.2978L77.5409 48.3411C77.9308 48.111 78.171 47.6926 78.1729 47.2397L78.2156 43.9512L69.1445 49.1642Z" fill="#AD9090"/>
<path d="M69.1438 49.1637L60.0039 43.9277V47.3587C60.0039 47.8216 60.2524 48.2483 60.6547 48.477L69.1438 53.2973V49.1637Z" fill="#CAB6B6"/>
<path d="M50.5352 49.4752L59.6751 54.7111L68.7461 49.4982L60.2713 44.6094C59.874 44.3803 59.3844 44.3803 58.9871 44.609L50.5352 49.4752Z" fill="#FFF5F5"/>
<path fill-rule="evenodd" clip-rule="evenodd" d="M59.6758 54.711V58.8447L68.0721 53.888C68.4621 53.6579 68.7023 53.2395 68.7041 52.7866L68.7468 49.498L59.6758 54.711Z" fill="#AD9090"/>
<path d="M59.6751 54.7106L50.5352 49.4746V52.9055C50.5352 53.3685 50.7836 53.7952 51.186 54.0239L59.6751 58.8442V54.7106Z" fill="#CAB6B6"/>
<path d="M12.6602 38.3834L21.8001 43.6193L30.8711 38.4064L22.3963 33.5177C21.999 33.2885 21.5094 33.2885 21.1121 33.5172L12.6602 38.3834Z" fill="#FFF5F5"/>
<path fill-rule="evenodd" clip-rule="evenodd" d="M21.8008 43.6212V47.7548L30.1971 42.7981C30.5871 42.568 30.8273 42.1496 30.8291 41.6968L30.8718 38.4082L21.8008 43.6212Z" fill="#AD9090"/>
<path d="M21.8001 43.6188L12.6602 38.3828V41.8137C12.6602 42.2767 12.9086 42.7034 13.311 42.9321L21.8001 47.7524V43.6188Z" fill="#CAB6B6"/>
<path d="M3.19141 43.9283L12.3313 49.1643L21.4024 43.9513L12.9275 39.0626C12.5302 38.8334 12.0406 38.8334 11.6433 39.0621L3.19141 43.9283Z" fill="#FFF5F5"/>
<path fill-rule="evenodd" clip-rule="evenodd" d="M12.332 49.1642V53.2978L20.7284 48.3411C21.1183 48.111 21.3585 47.6926 21.3604 47.2397L21.4031 43.9512L12.332 49.1642Z" fill="#AD9090"/>
<path d="M12.3313 49.1637L3.19141 43.9277V47.3587C3.19141 47.8216 3.43988 48.2483 3.84222 48.477L12.3313 53.2973V49.1637Z" fill="#CAB6B6"/>
<path d="M22.1289 43.9283L31.2688 49.1643L40.3399 43.9513L31.865 39.0626C31.4677 38.8334 30.9781 38.8334 30.5808 39.0621L22.1289 43.9283Z" fill="#FFF5F5"/>
<path fill-rule="evenodd" clip-rule="evenodd" d="M31.2695 49.1661V53.2997L39.6659 48.3431C40.0558 48.113 40.296 47.6945 40.2979 47.2417L40.3406 43.9531L31.2695 49.1661Z" fill="#AD9090"/>
<path d="M31.2688 49.1637L22.1289 43.9277V47.3587C22.1289 47.8216 22.3774 48.2483 22.7797 48.477L31.2688 53.2973V49.1637Z" fill="#CAB6B6"/>
<path d="M12.6602 49.4752L21.8001 54.7111L30.8711 49.4982L22.3963 44.6094C21.999 44.3803 21.5094 44.3803 21.1121 44.609L12.6602 49.4752Z" fill="#FFF5F5"/>
<path fill-rule="evenodd" clip-rule="evenodd" d="M21.8008 54.711V58.8447L30.1971 53.888C30.5871 53.6579 30.8273 53.2395 30.8291 52.7866L30.8718 49.498L21.8008 54.711Z" fill="#AD9090"/>
<path d="M21.8001 54.7106L12.6602 49.4746V52.9055C12.6602 53.3685 12.9086 53.7952 13.311 54.0239L21.8001 58.8442V54.7106Z" fill="#CAB6B6"/>
<path d="M31.5977 49.4752L40.7376 54.7111L49.8086 49.4982L41.3338 44.6094C40.9365 44.3803 40.4469 44.3803 40.0496 44.609L31.5977 49.4752Z" fill="#FFF5F5"/>
<path fill-rule="evenodd" clip-rule="evenodd" d="M40.7383 54.711V58.8447L49.1346 53.888C49.5246 53.6579 49.7648 53.2395 49.7666 52.7866L49.8093 49.498L40.7383 54.711Z" fill="#AD9090"/>
<path d="M40.7376 54.7106L31.5977 49.4746V52.9055C31.5977 53.3685 31.8461 53.7952 32.2485 54.0239L40.7376 58.8442V54.7106Z" fill="#CAB6B6"/>
<path d="M22.1289 55.0221L31.2688 60.258L40.3399 55.045L31.865 50.1563C31.4677 49.9271 30.9781 49.9271 30.5808 50.1559L22.1289 55.0221Z" fill="#FFF5F5"/>
<path fill-rule="evenodd" clip-rule="evenodd" d="M31.2695 60.2599V64.3935L39.6659 59.4368C40.0558 59.2067 40.296 58.7883 40.2979 58.3354L40.3406 55.0469L31.2695 60.2599Z" fill="#AD9090"/>
<path d="M31.2688 60.2574L22.1289 55.0215V58.4524C22.1289 58.9154 22.3774 59.3421 22.7797 59.5708L31.2688 64.3911V60.2574Z" fill="#CAB6B6"/>
<path d="M41.0664 55.0221L50.2063 60.258L59.2774 55.045L50.8025 50.1563C50.4052 49.9271 49.9156 49.9271 49.5183 50.1559L41.0664 55.0221Z" fill="#FFF5F5"/>
<path fill-rule="evenodd" clip-rule="evenodd" d="M50.207 60.2599V64.3935L58.6034 59.4368C58.9933 59.2067 59.2335 58.7883 59.2354 58.3354L59.2781 55.0469L50.207 60.2599Z" fill="#AD9090"/>
<path d="M50.2063 60.2574L41.0664 55.0215V58.4524C41.0664 58.9154 41.3149 59.3421 41.7172 59.5708L50.2063 64.3911V60.2574Z" fill="#CAB6B6"/>
<path d="M31.5977 60.567L40.7376 65.8029L49.8086 60.59L41.3338 55.7012C40.9365 55.4721 40.4469 55.4721 40.0496 55.7008L31.5977 60.567Z" fill="#FFF5F5"/>
<path fill-rule="evenodd" clip-rule="evenodd" d="M40.7383 65.8048V69.9384L49.1346 64.9817C49.5246 64.7516 49.7648 64.3332 49.7666 63.8803L49.8093 60.5918L40.7383 65.8048Z" fill="#AD9090"/>
<path d="M40.7376 65.8024L31.5977 60.5664V63.9973C31.5977 64.4603 31.8461 64.887 32.2485 65.1157L40.7376 69.936V65.8024Z" fill="#CAB6B6"/>
<path d="M23.832 46.1174L31.3767 50.4394L38.8645 46.1363L31.8687 42.101C31.5407 41.9118 31.1367 41.9116 30.8086 42.1006L23.832 46.1174Z" fill="#FF9982"/>
<path fill-rule="evenodd" clip-rule="evenodd" d="M31.375 50.4398V58.7427L38.3058 54.6513C38.6277 54.4612 38.8259 54.1159 38.8276 53.742L38.8628 46.1367L31.375 50.4398Z" fill="#B92828"/>
<path d="M31.3767 50.4412L23.832 46.1191V53.842C23.832 54.224 24.0372 54.5765 24.3694 54.7651L31.3767 58.7441V50.4412Z" fill="#EA7359"/>
<mask id="mask0_8470_2348" style="mask-type:luminance" maskUnits="userSpaceOnUse" x="23" y="41" width="17" height="19">
<path d="M23.0703 41.1895H39.6382V59.653H23.0703V41.1895ZM23.8285 46.1181L31.3732 50.4402L38.861 46.1371L31.8652 42.1018C31.5371 41.9125 31.1332 41.9124 30.8052 42.1014L23.8285 46.1181ZM31.3732 50.4402V58.7431L38.304 54.6517C38.6259 54.4616 38.8241 54.1162 38.8259 53.7425L38.861 46.1371L31.3732 50.4402ZM31.3732 50.4402L23.8285 46.1181V53.8409C23.8285 54.223 24.0338 54.5755 24.3659 54.7641L31.3732 58.7431V50.4402Z" fill="white"/>
</mask>
<g mask="url(#mask0_8470_2348)">
<path d="M31.3353 41.7958L31.5247 41.4674L31.3355 41.3582L31.1461 41.4672L31.3353 41.7958ZM23.8286 54.4586H23.4494V54.6793L23.6414 54.7883L23.8286 54.4586ZM38.8231 54.3449L39.0158 54.6714L39.2012 54.562L39.2022 54.3466L38.8231 54.3449ZM23.6401 46.4468L31.1847 50.7689L31.5617 50.1109L24.017 45.7889L23.6401 46.4468ZM31.5621 50.7686L39.0499 46.4655L38.6721 45.8081L31.1843 50.1112L31.5621 50.7686ZM31.7523 58.7428V50.4399H30.9941V58.7428H31.7523ZM31.1461 41.4672L30.6159 41.7725L30.9943 42.4296L31.5245 42.1243L31.1461 41.4672ZM23.4494 53.8407V54.4586H24.2077V53.8407H23.4494ZM23.6414 54.7883L24.1787 55.0935L24.5532 54.4341L24.0157 54.129L23.6414 54.7883ZM38.6303 54.0184L38.1112 54.3248L38.4967 54.9778L39.0158 54.6714L38.6303 54.0184ZM38.4468 53.7403L38.444 54.3432L39.2022 54.3466L39.205 53.7438L38.4468 53.7403ZM32.0546 41.773L31.5247 41.4674L31.1458 42.1242L31.6758 42.4299L32.0546 41.773ZM23.8286 46.1178L23.4502 45.4607L23.0703 45.6794V46.1178H23.8286ZM38.861 46.1368L39.6193 46.1403L39.6213 45.7L39.2399 45.48L38.861 46.1368ZM31.3732 58.7428L30.9988 59.4022L31.3806 59.6189L31.7587 59.3958L31.3732 58.7428ZM31.4863 42.7583L38.4821 46.7936L39.2399 45.48L32.2441 41.4446L31.4863 42.7583ZM38.1027 46.1333L38.0676 53.7386L39.5841 53.7456L39.6193 46.1403L38.1027 46.1333ZM38.0676 53.7386C38.0671 53.8454 38.0105 53.9441 37.9185 53.9984L38.6894 55.3043C39.2413 54.9785 39.5812 54.3865 39.5841 53.7456L38.0676 53.7386ZM37.9185 53.9984L30.9877 58.0898L31.7587 59.3958L38.6894 55.3043L37.9185 53.9984ZM31.7476 58.0834L24.7403 54.1044L23.9915 55.4231L30.9988 59.4022L31.7476 58.0834ZM24.7403 54.1044C24.6454 54.0505 24.5868 53.9498 24.5868 53.8407H23.0703C23.0703 54.4955 23.4221 55.0998 23.9915 55.4231L24.7403 54.1044ZM24.5868 53.8407V46.1178H23.0703V53.8407H24.5868ZM24.2069 46.7749L31.1834 42.7581L30.4268 41.4439L23.4502 45.4607L24.2069 46.7749ZM31.1834 42.7581C31.2772 42.7042 31.3926 42.7042 31.4863 42.7583L32.2441 41.4446C31.6818 41.1203 30.9893 41.12 30.4268 41.4439L31.1834 42.7581Z" fill="#620D0D"/>
</g>
<path d="M33.3008 18.5217L40.8454 22.8437L48.3332 18.5406L41.3374 14.5053C41.0094 14.3161 40.6055 14.3159 40.2773 14.5049L33.3008 18.5217Z" fill="#FF9982"/>
<path fill-rule="evenodd" clip-rule="evenodd" d="M40.8438 22.8441V31.147L47.7745 27.0556C48.0964 26.8655 48.2947 26.5202 48.2964 26.1463L48.3315 18.541L40.8438 22.8441Z" fill="#B92828"/>
<path d="M40.8454 22.8435L33.3008 18.5215V26.2443C33.3008 26.6263 33.506 26.9788 33.8382 27.1675L40.8454 31.1464V22.8435Z" fill="#EA7359"/>
<mask id="mask1_8470_2348" style="mask-type:luminance" maskUnits="userSpaceOnUse" x="32" y="13" width="18" height="20">
<path d="M32.543 13.5938H49.1109V32.0573H32.543V13.5938ZM33.3012 18.5224L40.8459 22.8445L48.3337 18.5414L41.3378 14.5061C41.0098 14.3168 40.6059 14.3167 40.2778 14.5057L33.3012 18.5224ZM40.8459 22.8445V31.1474L47.7766 27.056C48.0986 26.8659 48.2968 26.5205 48.2985 26.1468L48.3337 18.5414L40.8459 22.8445ZM40.8459 22.8445L33.3012 18.5224V26.2452C33.3012 26.6273 33.5064 26.9798 33.8385 27.1684L40.8459 31.1474V22.8445Z" fill="white"/>
</mask>
<g mask="url(#mask1_8470_2348)">
<path d="M40.8079 14.2001L40.9974 13.8717L40.8081 13.7625L40.6188 13.8715L40.8079 14.2001ZM33.3012 26.8629H32.9221V27.0836L33.114 27.1926L33.3012 26.8629ZM48.2957 26.7492L48.4885 27.0757L48.6739 26.9663L48.6749 26.7509L48.2957 26.7492ZM33.1128 18.8511L40.6574 23.1732L41.0343 22.5152L33.4897 18.1932L33.1128 18.8511ZM41.0348 23.1729L48.5226 18.8698L48.1447 18.2124L40.6569 22.5155L41.0348 23.1729ZM41.225 31.1471V22.8442H40.4667V31.1471H41.225ZM40.6188 13.8715L40.0886 14.1767L40.467 14.8339L40.9971 14.5286L40.6188 13.8715ZM32.9221 26.245V26.8629H33.6804V26.245H32.9221ZM33.114 27.1926L33.6514 27.4977L34.0258 26.8384L33.4884 26.5332L33.114 27.1926ZM48.103 26.4227L47.5839 26.7291L47.9693 27.3821L48.4885 27.0757L48.103 26.4227ZM47.9194 26.1446L47.9166 26.7475L48.6749 26.7509L48.6776 26.1481L47.9194 26.1446ZM41.5273 14.1773L40.9974 13.8717L40.6185 14.5285L41.1484 14.8342L41.5273 14.1773ZM33.3012 18.5221L32.9229 17.865L32.543 18.0837V18.5221H33.3012ZM48.3337 18.5411L49.0919 18.5446L49.0939 18.1043L48.7125 17.8843L48.3337 18.5411ZM40.8459 31.1471L40.4714 31.8065L40.8533 32.0232L41.2313 31.8001L40.8459 31.1471ZM40.959 15.1626L47.9548 19.1979L48.7125 17.8843L41.7168 13.8489L40.959 15.1626ZM47.5754 18.5376L47.5403 26.1429L49.0568 26.1499L49.0919 18.5446L47.5754 18.5376ZM47.5403 26.1429C47.5398 26.2497 47.4832 26.3484 47.3912 26.4027L48.1621 27.7086C48.714 27.3828 49.0538 26.7908 49.0568 26.1499L47.5403 26.1429ZM47.3912 26.4027L40.4604 30.4941L41.2313 31.8001L48.1621 27.7086L47.3912 26.4027ZM41.2203 30.4877L34.213 26.5087L33.4642 27.8274L40.4714 31.8065L41.2203 30.4877ZM34.213 26.5087C34.1181 26.4548 34.0595 26.3541 34.0595 26.245H32.543C32.543 26.8998 32.8948 27.5041 33.4642 27.8274L34.213 26.5087ZM34.0595 26.245V18.5221H32.543V26.245H34.0595ZM33.6796 19.1792L40.6561 15.1624L39.8994 13.8482L32.9229 17.865L33.6796 19.1792ZM40.6561 15.1624C40.7499 15.1085 40.8653 15.1085 40.959 15.1626L41.7168 13.8489C41.1545 13.5246 40.462 13.5243 39.8994 13.8482L40.6561 15.1624Z" fill="#620D0D"/>
</g>
<path d="M42.3633 34.8908L49.9079 39.2129L57.3957 34.9098L50.3999 30.8744C50.0719 30.6852 49.668 30.6851 49.3398 30.874L42.3633 34.8908Z" fill="#FF9982"/>
<path fill-rule="evenodd" clip-rule="evenodd" d="M49.9102 39.2133V47.5162L56.8409 43.4247C57.1628 43.2347 57.3611 42.8893 57.3628 42.5155L57.3979 34.9102L49.9102 39.2133Z" fill="#B92828"/>
<path d="M49.9079 39.2127L42.3633 34.8906V42.6135C42.3633 42.9954 42.5685 43.348 42.9007 43.5366L49.9079 47.5156V39.2127Z" fill="#EA7359"/>
<mask id="mask2_8470_2348" style="mask-type:luminance" maskUnits="userSpaceOnUse" x="41" y="29" width="18" height="20">
<path d="M41.6016 29.9629H58.1694V48.4264H41.6016V29.9629ZM42.3598 34.8916L49.9044 39.2137L57.3923 34.9105L50.3964 30.8752C50.0684 30.6859 49.6645 30.6858 49.3364 30.8748L42.3598 34.8916ZM49.9044 39.2137V47.5165L56.8352 43.4251C57.1572 43.235 57.3553 42.8897 57.3571 42.5159L57.3923 34.9105L49.9044 39.2137ZM49.9044 39.2137L42.3598 34.8916V42.6144C42.3598 42.9964 42.565 43.3489 42.8971 43.5375L49.9044 47.5165V39.2137Z" fill="white"/>
</mask>
<g mask="url(#mask2_8470_2348)">
<path d="M49.8665 30.5692L50.056 30.2408L49.8667 30.1316L49.6774 30.2407L49.8665 30.5692ZM42.3598 43.2321H41.9807V43.4528L42.1726 43.5618L42.3598 43.2321ZM57.3543 43.1183L57.5471 43.4448L57.7325 43.3354L57.7335 43.1201L57.3543 43.1183ZM42.1714 35.2202L49.716 39.5423L50.0929 38.8844L42.5482 34.5623L42.1714 35.2202ZM50.0934 39.542L57.5812 35.2389L57.2033 34.5815L49.7155 38.8846L50.0934 39.542ZM50.2836 47.5162V39.2133H49.5253V47.5162H50.2836ZM49.6774 30.2407L49.1472 30.5459L49.5256 31.203L50.0557 30.8978L49.6774 30.2407ZM41.9807 42.6141V43.2321H42.7389V42.6141H41.9807ZM42.1726 43.5618L42.71 43.8669L43.0844 43.2075L42.547 42.9024L42.1726 43.5618ZM57.1616 42.7919L56.6425 43.0983L57.0279 43.7513L57.5471 43.4448L57.1616 42.7919ZM56.978 42.5138L56.9752 43.1166L57.7335 43.1201L57.7362 42.5173L56.978 42.5138ZM50.5859 30.5465L50.056 30.2408L49.6771 30.8976L50.207 31.2033L50.5859 30.5465ZM42.3598 34.8913L41.9814 34.2342L41.6016 34.4529V34.8913H42.3598ZM57.3922 34.9102L58.1505 34.9137L58.1525 34.4734L57.7711 34.2534L57.3922 34.9102ZM49.9045 47.5162L49.53 48.1756L49.9118 48.3924L50.2899 48.1692L49.9045 47.5162ZM50.0176 31.5317L57.0134 35.567L57.7711 34.2534L50.7753 30.2181L50.0176 31.5317ZM56.634 34.9067L56.5989 42.512L58.1154 42.5191L58.1505 34.9137L56.634 34.9067ZM56.5989 42.512C56.5984 42.6188 56.5417 42.7175 56.4498 42.7718L57.2207 44.0778C57.7726 43.752 58.1124 43.1599 58.1154 42.5191L56.5989 42.512ZM56.4498 42.7718L49.519 46.8633L50.2899 48.1692L57.2207 44.0778L56.4498 42.7718ZM50.2789 46.8568L43.2716 42.8779L42.5228 44.1966L49.53 48.1756L50.2789 46.8568ZM43.2716 42.8779C43.1767 42.824 43.1181 42.7233 43.1181 42.6141H41.6016C41.6016 43.2689 41.9534 43.8733 42.5228 44.1966L43.2716 42.8779ZM43.1181 42.6141V34.8913H41.6016V42.6141H43.1181ZM42.7382 35.5484L49.7147 31.5316L48.958 30.2173L41.9814 34.2342L42.7382 35.5484ZM49.7147 31.5316C49.8085 31.4776 49.9239 31.4776 50.0176 31.5317L50.7753 30.2181C50.2131 29.8937 49.5206 29.8934 48.958 30.2173L49.7147 31.5316Z" fill="#620D0D"/>
</g>
</g>
</g>
<defs>
<linearGradient id="paint0_linear_8470_2348" x1="39.5463" y1="74.9994" x2="39.5463" y2="0.0546802" gradientUnits="userSpaceOnUse">
<stop stop-color="#FF4C0D"/>
<stop offset="1" stop-color="#FC9502"/>
</linearGradient>
<clipPath id="clip0_8470_2348">
<rect width="79.3125" height="75" fill="white"/>
</clipPath>
</defs>
</svg>
