<svg width="82" height="78" viewBox="0 0 82 78" fill="none" xmlns="http://www.w3.org/2000/svg">
<g opacity="0.8">
<path d="M30.6836 31.7675L40.5558 37.4229L50.3536 31.7923L41.1998 26.5119C40.7706 26.2643 40.2418 26.2643 39.8127 26.5114L30.6836 31.7675Z" fill="#FFFDC8"/>
<path fill-rule="evenodd" clip-rule="evenodd" d="M40.5547 37.4236V41.8884L49.6237 36.5346C50.0449 36.2861 50.3044 35.8341 50.3064 35.345L50.3525 31.793L40.5547 37.4236Z" fill="#978262"/>
<path d="M40.5558 37.423L30.6836 31.7676V35.4734C30.6836 35.9735 30.952 36.4343 31.3866 36.6814L40.5558 41.8878V37.423Z" fill="#EBD978"/>
<path d="M20.457 37.7597L30.3293 43.4151L40.1271 37.7845L30.9732 32.5041C30.5441 32.2565 30.0152 32.2565 29.5861 32.5036L20.457 37.7597Z" fill="#FFFDC8"/>
<path fill-rule="evenodd" clip-rule="evenodd" d="M30.3281 43.4158V47.8806L39.3972 42.5268C39.8184 42.2783 40.0778 41.8263 40.0798 41.3372L40.1259 37.7852L30.3281 43.4158Z" fill="#978262"/>
<path d="M30.3293 43.4152L20.457 37.7598V41.4656C20.457 41.9656 20.7254 42.4265 21.16 42.6736L30.3293 47.88V43.4152Z" fill="#EBD978"/>
<path d="M40.9141 37.7597L50.7863 43.4151L60.5841 37.7845L51.4302 32.5041C51.0011 32.2565 50.4723 32.2565 50.0431 32.5036L40.9141 37.7597Z" fill="#FFFDC8"/>
<path fill-rule="evenodd" clip-rule="evenodd" d="M50.7852 43.4158V47.8806L59.8542 42.5268C60.2754 42.2783 60.5348 41.8263 60.5368 41.3372L60.583 37.7852L50.7852 43.4158Z" fill="#978262"/>
<path d="M50.7863 43.4152L40.9141 37.7598V41.4656C40.9141 41.9656 41.1824 42.4265 41.617 42.6736L50.7863 47.88V43.4152Z" fill="#EBD978"/>
<path d="M30.6836 43.7499L40.5558 49.4054L50.3536 43.7747L41.1998 38.4943C40.7706 38.2468 40.2418 38.2468 39.8127 38.4938L30.6836 43.7499Z" fill="#FFFDC8"/>
<path fill-rule="evenodd" clip-rule="evenodd" d="M40.5547 49.406V53.8709L49.6237 48.517C50.0449 48.2685 50.3044 47.8166 50.3064 47.3274L50.3525 43.7754L40.5547 49.406Z" fill="#978262"/>
<path d="M40.5558 49.4055L30.6836 43.75V47.4558C30.6836 47.9559 30.952 48.4167 31.3866 48.6638L40.5558 53.8703V49.4055Z" fill="#EBD978"/>
<path d="M51.1406 43.7499L61.0129 49.4054L70.8107 43.7747L61.6568 38.4943C61.2277 38.2468 60.6988 38.2468 60.2697 38.4938L51.1406 43.7499Z" fill="#FFFDC8"/>
<path fill-rule="evenodd" clip-rule="evenodd" d="M61.0117 49.406V53.8709L70.0808 48.517C70.502 48.2685 70.7614 47.8166 70.7634 47.3274L70.8095 43.7754L61.0117 49.406Z" fill="#978262"/>
<path d="M61.0128 49.4055L51.1406 43.75V47.4558C51.1406 47.9559 51.409 48.4167 51.8436 48.6638L61.0128 53.8703V49.4055Z" fill="#EBD978"/>
<path d="M40.9141 49.7401L50.7863 55.3956L60.5841 49.765L51.4302 44.4846C51.0011 44.237 50.4723 44.237 50.0431 44.4841L40.9141 49.7401Z" fill="#FFFDC8"/>
<path fill-rule="evenodd" clip-rule="evenodd" d="M50.7852 55.3963V59.8611L59.8542 54.5073C60.2754 54.2587 60.5348 53.8068 60.5368 53.3177L60.583 49.7656L50.7852 55.3963Z" fill="#978262"/>
<path d="M50.7863 55.3957L40.9141 49.7402V53.446C40.9141 53.9461 41.1824 54.407 41.617 54.654L50.7863 59.8605V55.3957Z" fill="#EBD978"/>
<path d="M61.3672 49.7401L71.2394 55.3956L81.0372 49.765L71.8833 44.4846C71.4542 44.237 70.9254 44.237 70.4963 44.4841L61.3672 49.7401Z" fill="#FFFDC8"/>
<path fill-rule="evenodd" clip-rule="evenodd" d="M71.2383 55.3963V59.8611L80.3073 54.5073C80.7285 54.2587 80.988 53.8068 80.99 53.3177L81.0361 49.7656L71.2383 55.3963Z" fill="#978262"/>
<path d="M71.2394 55.3957L61.3672 49.7402V53.446C61.3672 53.9461 61.6356 54.407 62.0701 54.654L71.2394 59.8605V55.3957Z" fill="#EBD978"/>
<path d="M51.1406 55.7304L61.0129 61.3858L70.8107 55.7552L61.6568 50.4748C61.2277 50.2272 60.6988 50.2272 60.2697 50.4743L51.1406 55.7304Z" fill="#FFFDC8"/>
<path fill-rule="evenodd" clip-rule="evenodd" d="M61.0117 61.3865V65.8513L70.0808 60.4975C70.502 60.249 70.7614 59.797 70.7634 59.3079L70.8095 55.7559L61.0117 61.3865Z" fill="#978262"/>
<path d="M61.0128 61.3859L51.1406 55.7305V59.4363C51.1406 59.9363 51.409 60.3972 51.8436 60.6443L61.0128 65.8507V61.3859Z" fill="#EBD978"/>
<path d="M10.2266 43.7499L20.0988 49.4054L29.8966 43.7747L20.7427 38.4943C20.3136 38.2468 19.7848 38.2468 19.3556 38.4938L10.2266 43.7499Z" fill="#FFFDC8"/>
<path fill-rule="evenodd" clip-rule="evenodd" d="M20.0977 49.406V53.8709L29.1667 48.517C29.5879 48.2685 29.8473 47.8166 29.8493 47.3274L29.8955 43.7754L20.0977 49.406Z" fill="#978262"/>
<path d="M20.0988 49.4055L10.2266 43.75V47.4558C10.2266 47.9559 10.4949 48.4167 10.9295 48.6638L20.0988 53.8703V49.4055Z" fill="#EBD978"/>
<path d="M0 49.7401L9.87223 55.3956L19.67 49.765L10.5162 44.4846C10.087 44.237 9.55821 44.237 9.12909 44.4841L0 49.7401Z" fill="#FFFDC8"/>
<path fill-rule="evenodd" clip-rule="evenodd" d="M9.87109 55.3963V59.8611L18.9401 54.5073C19.3613 54.2587 19.6208 53.8068 19.6228 53.3177L19.6689 49.7656L9.87109 55.3963Z" fill="#978262"/>
<path d="M9.87222 55.3957L0 49.7402V53.446C0 53.9461 0.268385 54.407 0.702962 54.654L9.87222 59.8605V55.3957Z" fill="#EBD978"/>
<path d="M20.457 49.7401L30.3293 55.3956L40.1271 49.765L30.9732 44.4846C30.5441 44.237 30.0152 44.237 29.5861 44.4841L20.457 49.7401Z" fill="#FFFDC8"/>
<path fill-rule="evenodd" clip-rule="evenodd" d="M30.3281 55.3963V59.8611L39.3972 54.5073C39.8184 54.2587 40.0778 53.8068 40.0798 53.3177L40.1259 49.7656L30.3281 55.3963Z" fill="#978262"/>
<path d="M30.3293 55.3957L20.457 49.7402V53.446C20.457 53.9461 20.7254 54.407 21.16 54.654L30.3293 59.8605V55.3957Z" fill="#EBD978"/>
<path d="M10.2266 55.7304L20.0988 61.3858L29.8966 55.7552L20.7427 50.4748C20.3136 50.2272 19.7848 50.2272 19.3556 50.4743L10.2266 55.7304Z" fill="#FFFDC8"/>
<path fill-rule="evenodd" clip-rule="evenodd" d="M20.0977 61.3865V65.8513L29.1667 60.4975C29.5879 60.249 29.8473 59.797 29.8493 59.3079L29.8955 55.7559L20.0977 61.3865Z" fill="#978262"/>
<path d="M20.0988 61.3859L10.2266 55.7305V59.4363C10.2266 59.9363 10.4949 60.3972 10.9295 60.6443L20.0988 65.8507V61.3859Z" fill="#EBD978"/>
<path d="M30.6836 55.7304L40.5558 61.3858L50.3536 55.7552L41.1998 50.4748C40.7706 50.2272 40.2418 50.2272 39.8127 50.4743L30.6836 55.7304Z" fill="#FFFDC8"/>
<path fill-rule="evenodd" clip-rule="evenodd" d="M40.5547 61.3865V65.8513L49.6237 60.4975C50.0449 60.249 50.3044 59.797 50.3064 59.3079L50.3525 55.7559L40.5547 61.3865Z" fill="#978262"/>
<path d="M40.5558 61.3859L30.6836 55.7305V59.4363C30.6836 59.9363 30.952 60.3972 31.3866 60.6443L40.5558 65.8507V61.3859Z" fill="#EBD978"/>
<path d="M20.457 61.7226L30.3293 67.378L40.1271 61.7474L30.9732 56.467C30.5441 56.2194 30.0152 56.2194 29.5861 56.4665L20.457 61.7226Z" fill="#FFFDC8"/>
<path fill-rule="evenodd" clip-rule="evenodd" d="M30.3281 67.3787V71.8435L39.3972 66.4897C39.8184 66.2412 40.0778 65.7892 40.0798 65.3001L40.1259 61.748L30.3281 67.3787Z" fill="#978262"/>
<path d="M30.3293 67.3781L20.457 61.7227V65.4285C20.457 65.9285 20.7254 66.3894 21.16 66.6365L30.3293 71.8429V67.3781Z" fill="#EBD978"/>
<path d="M40.9141 61.7226L50.7863 67.378L60.5841 61.7474L51.4302 56.467C51.0011 56.2194 50.4723 56.2194 50.0431 56.4665L40.9141 61.7226Z" fill="#FFFDC8"/>
<path fill-rule="evenodd" clip-rule="evenodd" d="M50.7852 67.3787V71.8435L59.8542 66.4897C60.2754 66.2412 60.5348 65.7892 60.5368 65.3001L60.583 61.748L50.7852 67.3787Z" fill="#978262"/>
<path d="M50.7863 67.3781L40.9141 61.7227V65.4285C40.9141 65.9285 41.1824 66.3894 41.617 66.6365L50.7863 71.8429V67.3781Z" fill="#EBD978"/>
<path d="M30.6836 67.7128L40.5558 73.3682L50.3536 67.7376L41.1998 62.4572C40.7706 62.2097 40.2418 62.2097 39.8127 62.4567L30.6836 67.7128Z" fill="#FFFDC8"/>
<path fill-rule="evenodd" clip-rule="evenodd" d="M40.5547 73.3689V77.8337L49.6237 72.4799C50.0449 72.2314 50.3044 71.7795 50.3064 71.2903L50.3525 67.7383L40.5547 73.3689Z" fill="#978262"/>
<path d="M40.5558 73.3683L30.6836 67.7129V71.4187C30.6836 71.9188 30.952 72.3796 31.3866 72.6267L40.5558 77.8332V73.3683Z" fill="#EBD978"/>
<path d="M42.7578 40.4154L50.9069 45.0837L58.9946 40.4359L51.4384 36.0772C51.0841 35.8729 50.6478 35.8727 50.2933 36.0768L42.7578 40.4154Z" fill="#FFD946"/>
<path fill-rule="evenodd" clip-rule="evenodd" d="M50.9023 45.0834V54.0515L58.3884 49.6323C58.7361 49.427 58.9502 49.054 58.9521 48.6502L58.99 40.4355L50.9023 45.0834Z" fill="#EF8727"/>
<path d="M50.9069 45.0844L42.7578 40.416V48.7576C42.7578 49.1702 42.9795 49.551 43.3382 49.7547L50.9069 54.0525V45.0844Z" fill="#F4A631"/>
<mask id="mask0_8470_2448" style="mask-type:luminance" maskUnits="userSpaceOnUse" x="41" y="35" width="19" height="21">
<path d="M41.9375 35.0918H59.8328V55.0346H41.9375V35.0918ZM42.7565 40.4154L50.9056 45.0837L58.9934 40.4358L51.437 36.0772C51.0827 35.8728 50.6464 35.8726 50.2921 36.0768L42.7565 40.4154ZM50.9056 45.0837V54.0518L58.3917 49.6326C58.7394 49.4273 58.9535 49.0543 58.9554 48.6506L58.9934 40.4358L50.9056 45.0837ZM50.9056 45.0837L42.7565 40.4154V48.7569C42.7565 49.1695 42.9781 49.5503 43.3368 49.754L50.9056 54.0518V45.0837Z" fill="white"/>
</mask>
<g mask="url(#mask0_8470_2448)">
<path d="M50.8647 35.7477L51.0693 35.393L50.8649 35.2751L50.6603 35.3928L50.8647 35.7477ZM42.7565 49.4251H42.347V49.6635L42.5543 49.7812L42.7565 49.4251ZM58.9524 49.3023L59.1606 49.6549L59.3608 49.5367L59.3619 49.3042L58.9524 49.3023ZM42.5529 40.7714L50.7021 45.4397L51.1092 44.7291L42.96 40.0607L42.5529 40.7714ZM51.1097 45.4394L59.1974 40.7916L58.7893 40.0815L50.7016 44.7294L51.1097 45.4394ZM51.3151 54.0525V45.0844H50.4961V54.0525H51.3151ZM50.6603 35.3928L50.0877 35.7225L50.4964 36.4323L51.069 36.1026L50.6603 35.3928ZM42.347 48.7576V49.4251H43.166V48.7576H42.347ZM42.5543 49.7812L43.1347 50.1108L43.5392 49.3986L42.9587 49.069L42.5543 49.7812ZM58.7442 48.9497L58.1835 49.2806L58.5998 49.9859L59.1606 49.6549L58.7442 48.9497ZM58.5459 48.6493L58.5429 49.3004L59.3619 49.3042L59.3649 48.6531L58.5459 48.6493ZM51.6417 35.7231L51.0693 35.393L50.66 36.1024L51.2324 36.4326L51.6417 35.7231ZM42.7565 40.416L42.3478 39.7063L41.9375 39.9425V40.416H42.7565ZM58.9933 40.4365L59.8123 40.4403L59.8145 39.9647L59.4025 39.7271L58.9933 40.4365ZM50.9056 54.0525L50.5012 54.7647L50.9136 54.9989L51.322 54.7578L50.9056 54.0525ZM51.0278 36.7873L58.5841 41.146L59.4025 39.7271L51.8463 35.3684L51.0278 36.7873ZM58.1743 40.4328L58.1364 48.6474L59.7744 48.655L59.8123 40.4403L58.1743 40.4328ZM58.1364 48.6474C58.1359 48.7628 58.0747 48.8694 57.9753 48.928L58.808 50.3386C59.4041 49.9867 59.7712 49.3472 59.7744 48.655L58.1364 48.6474ZM57.9753 48.928L50.4893 53.3472L51.322 54.7578L58.808 50.3386L57.9753 48.928ZM51.31 53.3403L43.7413 49.0425L42.9325 50.4669L50.5012 54.7647L51.31 53.3403ZM43.7413 49.0425C43.6388 48.9843 43.5755 48.8755 43.5755 48.7576H41.9375C41.9375 49.4649 42.3175 50.1177 42.9325 50.4669L43.7413 49.0425ZM43.5755 48.7576V40.416H41.9375V48.7576H43.5755ZM43.1652 41.1258L50.7007 36.7872L49.8834 35.3676L42.3478 39.7063L43.1652 41.1258ZM50.7007 36.7872C50.8019 36.7289 50.9266 36.7289 51.0278 36.7873L51.8463 35.3684C51.239 35.0181 50.491 35.0178 49.8834 35.3676L50.7007 36.7872Z" fill="#D09118"/>
</g>
<path d="M22.3008 28.2884L30.4499 32.9568L38.5376 28.3089L30.9813 23.9503C30.6271 23.7459 30.1907 23.7457 29.8363 23.9498L22.3008 28.2884Z" fill="#FFD946"/>
<path fill-rule="evenodd" clip-rule="evenodd" d="M30.4492 32.9565V41.9246L37.9353 37.5054C38.283 37.3001 38.4971 36.927 38.499 36.5232L38.5369 28.3086L30.4492 32.9565Z" fill="#EF8727"/>
<path d="M30.4499 32.9574L22.3008 28.2891V36.6307C22.3008 37.0432 22.5224 37.424 22.8812 37.6278L30.4499 41.9255V32.9574Z" fill="#F4A631"/>
<mask id="mask1_8470_2448" style="mask-type:luminance" maskUnits="userSpaceOnUse" x="21" y="22" width="19" height="21">
<path d="M21.4805 22.9648H39.3758V42.9077H21.4805V22.9648ZM22.2994 28.2884L30.4486 32.9568L38.5363 28.3089L30.98 23.9502C30.6257 23.7458 30.1894 23.7457 29.835 23.9498L22.2994 28.2884ZM30.4486 32.9568V41.9249L37.9346 37.5056C38.2824 37.3003 38.4965 36.9273 38.4984 36.5236L38.5363 28.3089L30.4486 32.9568ZM30.4486 32.9568L22.2994 28.2884V36.63C22.2994 37.0426 22.5211 37.4234 22.8798 37.6271L30.4486 41.9249V32.9568Z" fill="white"/>
</mask>
<g mask="url(#mask1_8470_2448)">
<path d="M30.4076 23.6208L30.6123 23.266L30.4078 23.1481L30.2033 23.2659L30.4076 23.6208ZM22.2995 37.2982H21.89V37.5365L22.0973 37.6543L22.2995 37.2982ZM38.4953 37.1753L38.7035 37.5279L38.9038 37.4098L38.9049 37.1772L38.4953 37.1753ZM22.0959 28.6444L30.245 33.3128L30.6522 32.6021L22.503 27.9338L22.0959 28.6444ZM30.6526 33.3125L38.7404 28.6646L38.3322 27.9545L30.2445 32.6024L30.6526 33.3125ZM30.8581 41.9256V32.9574H30.0391V41.9256H30.8581ZM30.2033 23.2659L29.6306 23.5956L30.0393 24.3054L30.612 23.9756L30.2033 23.2659ZM21.89 36.6307V37.2982H22.709V36.6307H21.89ZM22.0973 37.6543L22.6777 37.9838L23.0821 37.2717L22.5016 36.9421L22.0973 37.6543ZM38.2872 36.8227L37.7265 37.1537L38.1428 37.859L38.7035 37.5279L38.2872 36.8227ZM38.0889 36.5223L38.0858 37.1734L38.9049 37.1772L38.9078 36.5261L38.0889 36.5223ZM31.1846 23.5962L30.6123 23.266L30.203 23.9755L30.7754 24.3056L31.1846 23.5962ZM22.2995 28.2891L21.8908 27.5793L21.4805 27.8156V28.2891H22.2995ZM38.5363 28.3096L39.3553 28.3133L39.3575 27.8378L38.9455 27.6001L38.5363 28.3096ZM30.4486 41.9256L30.0442 42.6378L30.4566 42.8719L30.8649 42.6309L30.4486 41.9256ZM30.5708 24.6604L38.1271 29.019L38.9455 27.6001L31.3893 23.2415L30.5708 24.6604ZM37.7173 28.3058L37.6794 36.5205L39.3173 36.528L39.3553 28.3133L37.7173 28.3058ZM37.6794 36.5205C37.6788 36.6358 37.6177 36.7424 37.5183 36.801L38.351 38.2116C38.9471 37.8597 39.3142 37.2202 39.3173 36.528L37.6794 36.5205ZM37.5183 36.801L30.0322 41.2203L30.8649 42.6309L38.351 38.2116L37.5183 36.801ZM30.853 41.2134L23.2843 36.9156L22.4755 38.34L30.0442 42.6378L30.853 41.2134ZM23.2843 36.9156C23.1818 36.8574 23.1185 36.7486 23.1185 36.6307H21.4805C21.4805 37.338 21.8604 37.9907 22.4755 38.34L23.2843 36.9156ZM23.1185 36.6307V28.2891H21.4805V36.6307H23.1185ZM22.7081 28.9988L30.2436 24.6602L29.4263 23.2407L21.8908 27.5793L22.7081 28.9988ZM30.2436 24.6602C30.3449 24.6019 30.4696 24.602 30.5708 24.6604L31.3893 23.2415C30.7819 22.8911 30.034 22.8909 29.4263 23.2407L30.2436 24.6602Z" fill="#D09118"/>
</g>
<path d="M22.4492 52.2513L30.5983 56.9197L38.686 52.2718L31.1298 47.9132C30.7755 47.7088 30.3392 47.7086 29.9847 47.9127L22.4492 52.2513Z" fill="#FFD946"/>
<path fill-rule="evenodd" clip-rule="evenodd" d="M30.5938 56.9194V65.8875L38.0798 61.4682C38.4275 61.263 38.6416 60.8899 38.6435 60.4861L38.6814 52.2715L30.5938 56.9194Z" fill="#EF8727"/>
<path d="M30.5983 56.9203L22.4492 52.252V60.5935C22.4492 61.0061 22.6709 61.3869 23.0296 61.5906L30.5983 65.8884V56.9203Z" fill="#F4A631"/>
<mask id="mask2_8470_2448" style="mask-type:luminance" maskUnits="userSpaceOnUse" x="21" y="46" width="19" height="21">
<path d="M21.6289 46.9277H39.5242V66.8706H21.6289V46.9277ZM22.4479 52.2513L30.597 56.9197L38.6848 52.2718L31.1284 47.9131C30.7741 47.7087 30.3378 47.7086 29.9835 47.9127L22.4479 52.2513ZM30.597 56.9197V65.8878L38.0831 61.4685C38.4308 61.2632 38.6449 60.8902 38.6468 60.4865L38.6848 52.2718L30.597 56.9197ZM30.597 56.9197L22.4479 52.2513V60.5929C22.4479 61.0055 22.6695 61.3863 23.0283 61.59L30.597 65.8878V56.9197Z" fill="white"/>
</mask>
<g mask="url(#mask2_8470_2448)">
<path d="M30.5561 47.5836L30.7607 47.2289L30.5563 47.111L30.3517 47.2288L30.5561 47.5836ZM22.4479 61.2611H22.0384V61.4994L22.2457 61.6172L22.4479 61.2611ZM38.6438 61.1382L38.852 61.4908L39.0522 61.3727L39.0533 61.1401L38.6438 61.1382ZM22.2443 52.6073L30.3935 57.2757L30.8006 56.565L22.6514 51.8967L22.2443 52.6073ZM30.8011 57.2754L38.8888 52.6275L38.4807 51.9174L30.393 56.5653L30.8011 57.2754ZM31.0065 65.8885V56.9203H30.1875V65.8885H31.0065ZM30.3517 47.2288L29.7791 47.5585L30.1878 48.2682L30.7604 47.9385L30.3517 47.2288ZM22.0384 60.5936V61.2611H22.8574V60.5936H22.0384ZM22.2457 61.6172L22.8261 61.9467L23.2306 61.2346L22.6501 60.905L22.2457 61.6172ZM38.4356 60.7856L37.8749 61.1166L38.2912 61.8218L38.852 61.4908L38.4356 60.7856ZM38.2373 60.4852L38.2343 61.1363L39.0533 61.1401L39.0563 60.489L38.2373 60.4852ZM31.3331 47.5591L30.7607 47.2289L30.3514 47.9384L30.9238 48.2685L31.3331 47.5591ZM22.4479 52.252L22.0392 51.5422L21.6289 51.7785V52.252H22.4479ZM38.6847 52.2725L39.5037 52.2762L39.5059 51.8007L39.094 51.563L38.6847 52.2725ZM30.597 65.8885L30.1926 66.6007L30.605 66.8348L31.0134 66.5937L30.597 65.8885ZM30.7192 48.6232L38.2755 52.9819L39.094 51.563L31.5377 47.2044L30.7192 48.6232ZM37.8657 52.2687L37.8278 60.4833L39.4658 60.4909L39.5037 52.2762L37.8657 52.2687ZM37.8278 60.4833C37.8273 60.5987 37.7661 60.7053 37.6668 60.7639L38.4994 62.1745C39.0956 61.8226 39.4626 61.1831 39.4658 60.4909L37.8278 60.4833ZM37.6668 60.7639L30.1807 65.1832L31.0134 66.5937L38.4994 62.1745L37.6668 60.7639ZM31.0014 65.1763L23.4327 60.8785L22.6239 62.3028L30.1926 66.6007L31.0014 65.1763ZM23.4327 60.8785C23.3302 60.8202 23.2669 60.7115 23.2669 60.5936H21.6289C21.6289 61.3009 22.0089 61.9536 22.6239 62.3028L23.4327 60.8785ZM23.2669 60.5936V52.252H21.6289V60.5936H23.2669ZM22.8566 52.9617L30.3921 48.6231L29.5748 47.2036L22.0392 51.5422L22.8566 52.9617ZM30.3921 48.6231C30.4933 48.5648 30.618 48.5649 30.7192 48.6232L31.5377 47.2044C30.9304 46.854 30.1824 46.8537 29.5748 47.2036L30.3921 48.6231Z" fill="#D09118"/>
</g>
</g>
<g style="mix-blend-mode:hard-light" opacity="0.9">
<path d="M62.6541 20.9683C67.5199 20.9683 71.4644 17.0238 71.4644 12.158C71.4644 7.29217 67.5199 3.34766 62.6541 3.34766C57.7883 3.34766 53.8438 7.29217 53.8438 12.158C53.8438 17.0238 57.7883 20.9683 62.6541 20.9683Z" fill="url(#paint0_radial_8470_2448)"/>
<path d="M55.6995 2.6389C55.8554 2.64489 56.0113 2.65089 56.1673 2.66888C56.2512 2.68088 56.2932 2.65089 56.3232 2.57292C56.4252 2.29704 56.5331 2.02715 56.6471 1.75127C56.803 1.37343 56.9169 1.31345 57.3128 1.39142C57.5767 1.4394 57.8406 1.49338 58.1044 1.55335C58.2304 1.58334 58.3084 1.55335 58.3743 1.4394C58.5183 1.1995 58.6562 0.959599 58.8301 0.737692C58.8841 0.671719 58.9441 0.605747 59.0041 0.545772C59.094 0.455809 59.196 0.431819 59.3219 0.479799C59.6458 0.599749 59.9637 0.737692 60.2695 0.887629C60.3655 0.935609 60.4315 0.923614 60.5034 0.845646C60.7314 0.611744 60.9653 0.377842 61.2052 0.149937C61.3971 -0.0299875 61.493 -0.0479799 61.7149 0.0959599C61.9608 0.245897 62.2007 0.40783 62.4346 0.581757C62.5786 0.683714 62.6925 0.695709 62.8425 0.581757C63.0644 0.413827 63.2983 0.26389 63.5322 0.113952C63.7781 -0.0419824 63.856 -0.035985 64.072 0.155935C64.3238 0.377842 64.5637 0.611744 64.7977 0.845646C64.8696 0.917616 64.9296 0.923614 65.0196 0.881631C65.3134 0.749687 65.6133 0.623739 65.9132 0.497792C66.1231 0.413827 66.1951 0.431819 66.351 0.605747C66.5609 0.833651 66.7049 1.10954 66.8728 1.36743C67.0167 1.58334 66.9448 1.58934 67.2386 1.53536C67.4905 1.48738 67.7424 1.4274 68.0003 1.37942C68.3602 1.31345 68.4741 1.37942 68.6181 1.70929C68.738 1.98517 68.852 2.27305 68.9539 2.55493C68.9899 2.65089 69.0379 2.66888 69.1338 2.66289C69.4337 2.64489 69.7336 2.6269 70.0275 2.6269C70.3813 2.6269 70.4713 2.71087 70.5373 3.05272C70.5912 3.3406 70.6452 3.62848 70.6932 3.92236C70.7052 4.01832 70.7472 4.0663 70.8371 4.0783C71.053 4.11428 71.2629 4.15626 71.4789 4.19825C71.5808 4.21624 71.6888 4.24023 71.7907 4.26422C72.0666 4.34218 72.1686 4.45014 72.1686 4.73802C72.1686 5.04389 72.1506 5.34377 72.1266 5.64964C72.1206 5.7516 72.1446 5.80557 72.2465 5.84156C72.5344 5.94951 72.8223 6.06347 73.1042 6.18342C73.416 6.32136 73.482 6.4473 73.416 6.78316C73.3621 7.05905 73.3021 7.34093 73.2361 7.61682C73.2121 7.71877 73.2361 7.78475 73.3201 7.83872C73.47 7.94068 73.626 8.04264 73.7759 8.1446C73.8899 8.22256 74.0098 8.30053 74.1238 8.39049C74.3756 8.6004 74.3936 8.66038 74.2677 8.96025C74.1597 9.23014 74.0458 9.49403 73.9258 9.75192C73.8659 9.87187 73.8899 9.93785 73.9798 10.0278C74.2197 10.2617 74.4536 10.4956 74.6695 10.7535C74.8315 10.9454 74.8375 11.0114 74.7055 11.2273C74.5796 11.4312 74.4296 11.6291 74.2977 11.8331C74.0578 12.1989 74.0518 12.0969 74.2977 12.4748C74.4116 12.6487 74.5376 12.8106 74.6515 12.9906C74.8494 13.2904 74.8435 13.3504 74.6095 13.6143C74.3936 13.8482 74.1717 14.0821 73.9498 14.304C73.8839 14.37 73.8719 14.424 73.9078 14.5139C74.0458 14.8258 74.1717 15.1377 74.3037 15.4495C74.3696 15.6055 74.3337 15.7194 74.2197 15.8334C74.0338 16.0013 73.8239 16.1273 73.614 16.2652C73.3421 16.4371 73.2381 16.679 73.3021 16.9909C73.3381 17.1768 73.3861 17.3687 73.422 17.5547C73.47 17.8545 73.41 17.9685 73.1402 18.1064C72.8643 18.2444 72.5704 18.3463 72.2765 18.4423C72.1446 18.4843 72.1086 18.5502 72.1206 18.6822C72.1446 18.9761 72.1566 19.2699 72.1566 19.5638C72.1566 19.8517 72.0666 19.9717 71.7847 20.0376C71.4789 20.1096 71.167 20.1636 70.8611 20.2116C70.7532 20.2295 70.7112 20.2775 70.6932 20.3855C70.6452 20.6734 70.5972 20.9672 70.5373 21.2551C70.4653 21.591 70.3393 21.6869 69.9975 21.6869C69.7036 21.6869 69.4097 21.6689 69.1158 21.6509C69.0139 21.645 68.9719 21.6749 68.9419 21.7709C68.84 22.0588 68.738 22.3527 68.6001 22.6345C68.4501 22.9464 68.3362 23.0064 68.0003 22.9464C67.7244 22.8924 67.4425 22.8325 67.1667 22.7665C67.0707 22.7425 66.9987 22.7665 66.9448 22.8504C66.8428 23.0064 66.7348 23.1623 66.6329 23.3183C66.5549 23.4382 66.4769 23.5582 66.387 23.6661C66.1951 23.9 66.1291 23.918 65.8532 23.804C65.5773 23.6901 65.3014 23.5761 65.0316 23.4502C64.9236 23.4022 64.8576 23.4022 64.7677 23.4922C64.5518 23.7141 64.3238 23.924 64.0959 24.1339C63.8321 24.3738 63.7601 24.3738 63.4602 24.1759C63.2383 24.032 63.0224 23.882 62.8125 23.7261C62.6925 23.6361 62.5846 23.6241 62.4586 23.7261C62.2247 23.9 61.9788 24.0619 61.7269 24.2239C61.499 24.3678 61.4211 24.3558 61.2112 24.1819C60.9533 23.966 60.7134 23.7201 60.4735 23.4802C60.4075 23.4142 60.3535 23.4022 60.2635 23.4382C59.9577 23.5761 59.6458 23.6961 59.3399 23.834C59.172 23.912 59.0461 23.864 58.9321 23.7381C58.8122 23.6121 58.7162 23.4682 58.6202 23.3242C58.5243 23.1743 58.4223 23.0304 58.3264 22.8804C58.2604 22.7725 58.1764 22.7425 58.0445 22.7725C57.7566 22.8385 57.4747 22.9044 57.1808 22.9524C56.9049 23.0004 56.785 22.9404 56.671 22.6825C56.5451 22.3946 56.4311 22.1008 56.3172 21.8069C56.2752 21.6929 56.2272 21.639 56.0893 21.6569C55.8254 21.6809 55.5555 21.6929 55.2856 21.6989C54.9138 21.7049 54.7938 21.615 54.7099 21.2551C54.6439 20.9612 54.5899 20.6674 54.5419 20.3735C54.5239 20.2715 54.476 20.2355 54.374 20.2175C54.0501 20.1636 53.7263 20.1036 53.4024 20.0376C53.1985 19.9956 53.1325 19.9177 53.1025 19.7138C53.0546 19.3719 53.1025 19.036 53.1205 18.7002C53.1265 18.5742 53.0965 18.5143 52.9766 18.4663C52.6887 18.3643 52.4068 18.2504 52.1309 18.1304C51.8491 18.0045 51.7891 17.9025 51.8311 17.5966C51.8791 17.2968 51.945 16.9969 52.005 16.703C52.029 16.5831 52.005 16.5111 51.891 16.4451C51.6631 16.3132 51.4472 16.1632 51.2253 16.0193C51.1474 15.9713 51.0814 15.9054 51.0154 15.8454C50.9015 15.7434 50.8715 15.6235 50.9374 15.4735C51.0754 15.1557 51.2073 14.8378 51.3453 14.5259C51.3813 14.442 51.3693 14.394 51.3033 14.328C51.0514 14.0821 50.7995 13.8422 50.5716 13.5783C50.4397 13.4284 50.4337 13.2844 50.5236 13.1225C50.6736 12.8586 50.8475 12.6187 51.0214 12.3788C51.1294 12.2289 51.1294 12.1089 51.0214 11.959C50.8595 11.7431 50.7095 11.5212 50.5656 11.2933C50.4037 11.0354 50.4157 10.9574 50.6076 10.7295C50.7935 10.5076 51.0034 10.3097 51.2133 10.1058C51.4232 9.89586 51.4052 9.97983 51.2853 9.70394C51.1713 9.44005 51.0574 9.17616 50.9494 8.90628C50.8655 8.69636 50.8835 8.62439 51.0574 8.46246C51.2973 8.24655 51.5732 8.08462 51.8491 7.92869C51.999 7.84472 52.035 7.74876 51.993 7.58683C51.927 7.29295 51.8671 6.99308 51.8191 6.6932C51.7831 6.4533 51.8431 6.34535 52.065 6.24339C52.3529 6.11144 52.6527 5.9915 52.9526 5.88354C53.0786 5.83556 53.1325 5.78158 53.1205 5.63165C53.0905 5.35576 53.0845 5.07388 53.0786 4.79799C53.0786 4.47413 53.1625 4.36018 53.4804 4.28221C53.7863 4.21024 54.0981 4.15626 54.404 4.10828C54.494 4.09029 54.5299 4.05431 54.5419 3.96434C54.5959 3.65847 54.6439 3.3526 54.7099 3.05272C54.7818 2.73486 54.9078 2.64489 55.2316 2.6389C55.3756 2.6389 55.5135 2.6389 55.6575 2.6389V2.65089L55.6995 2.6389ZM69.1878 20.8113C69.3378 20.8113 69.4937 20.8113 69.6436 20.8113C69.7516 20.8113 69.7936 20.7813 69.8056 20.6734C69.8535 20.3675 69.9015 20.0616 69.9795 19.7617C70.0155 19.6178 70.0934 19.5338 70.2374 19.4978C70.5193 19.4199 70.8071 19.3419 71.095 19.3119C71.257 19.2939 71.3049 19.234 71.3109 19.078C71.3229 18.7781 71.3109 18.4783 71.3349 18.1844C71.3469 18.0225 71.4189 17.9265 71.5628 17.8545C71.8327 17.7226 72.1086 17.6146 72.3905 17.5067C72.5104 17.4587 72.5524 17.4047 72.5164 17.2728C72.4505 17.0089 72.4025 16.739 72.3425 16.4691C72.2945 16.2652 72.3545 16.1153 72.5164 15.9893C72.7383 15.8214 72.9602 15.6535 73.2061 15.5215C73.3501 15.4435 73.3741 15.3596 73.3141 15.2156C73.2001 14.9577 73.1042 14.6879 72.9902 14.43C72.9063 14.238 72.9602 14.0881 73.0982 13.9502C73.3081 13.7463 73.518 13.5363 73.7339 13.3384C73.8119 13.2665 73.8119 13.2185 73.7519 13.1405C73.608 12.9486 73.476 12.7567 73.3381 12.5588C73.1042 12.2109 73.1102 12.0789 73.3381 11.7311C73.47 11.5392 73.602 11.3473 73.7459 11.1613C73.8179 11.0714 73.7999 11.0234 73.7219 10.9514C73.518 10.7655 73.3201 10.5616 73.1162 10.3757C72.9422 10.2137 72.9003 10.0398 72.9962 9.8179C73.1102 9.56 73.2121 9.29012 73.3201 9.03222C73.3681 8.92427 73.3441 8.8583 73.2361 8.79832C72.9842 8.64838 72.7383 8.49245 72.5044 8.31252C72.3485 8.19257 72.2885 8.04264 72.3305 7.85072C72.3905 7.58683 72.4325 7.31094 72.5044 7.04705C72.5464 6.89712 72.4924 6.84314 72.3605 6.79516C72.1206 6.7052 71.8867 6.59724 71.6408 6.50728C71.4129 6.42332 71.3049 6.27338 71.3109 6.02748C71.3109 5.7516 71.2989 5.48171 71.2929 5.20582C71.2929 5.07988 71.245 5.0199 71.113 5.00791C70.8251 4.97792 70.5492 4.89995 70.2674 4.82798C70.0814 4.786 69.9855 4.67804 69.9555 4.50412C69.9015 4.22823 69.8415 3.95835 69.8056 3.68246C69.7876 3.52653 69.7216 3.49654 69.5836 3.50254C69.2958 3.50853 69.0079 3.50254 68.72 3.49054C68.5341 3.47855 68.4141 3.41257 68.3422 3.23865C68.2222 2.95676 68.1023 2.68088 67.9823 2.399C67.9403 2.29704 67.8804 2.26705 67.7724 2.29704C67.4905 2.36301 67.2086 2.42299 66.9268 2.48296C66.7528 2.51895 66.6149 2.46497 66.5009 2.32103C66.327 2.09912 66.1651 1.86522 66.0271 1.61333C65.9432 1.46339 65.8532 1.4454 65.7093 1.51137C65.4394 1.62532 65.1755 1.75127 64.8936 1.84123C64.7437 1.88921 64.6237 1.87122 64.5038 1.76326C64.2759 1.55935 64.072 1.33744 63.868 1.10954C63.7841 1.01358 63.7241 0.995584 63.6101 1.07955C63.3942 1.24748 63.1603 1.39142 62.9384 1.54735C62.7405 1.6793 62.5366 1.6793 62.3447 1.54735C62.1408 1.40941 61.9249 1.27747 61.7329 1.12753C61.607 1.02557 61.517 1.04356 61.4151 1.15152C61.2291 1.34944 61.0252 1.53536 60.8333 1.73328C60.6954 1.87122 60.5514 1.9132 60.3655 1.83523C60.1136 1.72728 59.8617 1.62532 59.6038 1.52936C59.3819 1.4394 59.3759 1.4454 59.25 1.64331C59.136 1.82924 59.0101 2.00916 58.9021 2.19508C58.7522 2.45297 58.5303 2.53694 58.2424 2.47097C57.9965 2.41099 57.7446 2.36301 57.4987 2.30903C57.3967 2.28504 57.3308 2.30903 57.2888 2.41699C57.1808 2.69887 57.0729 2.97476 56.9469 3.24464C56.869 3.40658 56.755 3.49054 56.5691 3.49654C56.2632 3.49654 55.9633 3.51453 55.6575 3.52653C55.5555 3.52653 55.5015 3.55651 55.4835 3.67646C55.4476 3.96434 55.3696 4.24023 55.3096 4.52211C55.2616 4.73202 55.1477 4.83398 54.9438 4.86996C54.6799 4.91195 54.416 4.97792 54.1521 5.0139C54.0142 5.0319 53.9662 5.07388 53.9722 5.21782C53.9842 5.51769 53.9782 5.81757 53.9602 6.11144C53.9482 6.27937 53.8762 6.39333 53.7263 6.4653C53.4564 6.59724 53.1805 6.7052 52.8986 6.80715C52.7787 6.84914 52.7487 6.91511 52.7727 7.03506C52.8327 7.27496 52.8746 7.52086 52.9346 7.76076C53.0006 8.03664 52.9346 8.25855 52.6767 8.40849C52.4848 8.52244 52.2989 8.64838 52.113 8.76833C51.909 8.90028 51.909 8.90028 51.999 9.13418C52.101 9.38608 52.2029 9.64397 52.3049 9.89586C52.3828 10.0758 52.3349 10.2197 52.2029 10.3517C51.987 10.5556 51.7771 10.7715 51.5552 10.9694C51.4832 11.0354 51.4712 11.0834 51.5312 11.1673C51.6931 11.3832 51.8431 11.6051 51.993 11.8271C52.1489 12.055 52.1549 12.2769 51.993 12.5048C51.8491 12.7087 51.7171 12.9186 51.5672 13.1105C51.4652 13.2365 51.4892 13.3084 51.5972 13.4044C51.7951 13.5843 51.981 13.7762 52.1789 13.9622C52.3409 14.1121 52.3768 14.28 52.2869 14.4839C52.1789 14.7358 52.083 14.9877 51.975 15.2396C51.915 15.3776 51.933 15.4675 52.077 15.5455C52.3349 15.6894 52.5808 15.8514 52.8087 16.0373C52.9406 16.1453 52.9946 16.2712 52.9526 16.4391C52.8866 16.721 52.8327 17.0029 52.7667 17.2848C52.7367 17.3987 52.7667 17.4587 52.8746 17.5067C53.1565 17.6206 53.4324 17.7466 53.7143 17.8665C53.8762 17.9325 53.9482 18.0525 53.9602 18.2324C53.9782 18.5323 53.9842 18.8321 53.9722 19.126C53.9722 19.2639 54.0202 19.3059 54.1461 19.3239C54.428 19.3659 54.7039 19.4259 54.9798 19.4799C55.1537 19.5098 55.2496 19.6058 55.2916 19.7857C55.3576 20.0676 55.4416 20.3435 55.4715 20.6314C55.4895 20.7813 55.5555 20.8173 55.6935 20.8233C55.9753 20.8233 56.2632 20.8473 56.5451 20.8473C56.743 20.8473 56.869 20.9312 56.9469 21.1112C57.0489 21.3631 57.1568 21.615 57.2648 21.8669C57.3488 22.0648 57.3428 22.0648 57.5647 22.0228C57.8166 21.9688 58.0685 21.9148 58.3204 21.8609C58.5183 21.8189 58.6742 21.8729 58.8002 22.0408C58.9621 22.2627 59.124 22.4846 59.256 22.7245C59.3399 22.8744 59.4299 22.8984 59.5738 22.8325C59.8377 22.7185 60.1076 22.6165 60.3775 22.5086C60.5454 22.4366 60.6774 22.4726 60.8093 22.5926C61.0372 22.8025 61.2471 23.0304 61.451 23.2583C61.517 23.3362 61.571 23.3422 61.649 23.2763C61.8649 23.1143 62.0868 22.9644 62.3087 22.8085C62.5306 22.6525 62.7465 22.6465 62.9684 22.8085C63.1843 22.9584 63.4062 23.1023 63.6161 23.2583C63.7121 23.3302 63.7721 23.3302 63.856 23.2343C64.042 23.0244 64.2399 22.8325 64.4318 22.6285C64.5817 22.4726 64.7437 22.4186 64.9476 22.5086C65.2055 22.6225 65.4754 22.7185 65.7333 22.8325C65.8532 22.8804 65.9372 22.8684 66.0031 22.7425C66.1351 22.5026 66.303 22.2867 66.459 22.0648C66.5969 21.8669 66.7768 21.8129 66.9987 21.8669C67.2566 21.9268 67.5145 21.9748 67.7724 22.0348C67.8864 22.0588 67.9463 22.0348 67.9883 21.9208C68.1023 21.633 68.2102 21.3451 68.3482 21.0692C68.4201 20.9253 68.5281 20.8593 68.684 20.8533C68.846 20.8533 69.0079 20.8413 69.1698 20.8293L69.1878 20.8113Z" fill="#FFCB00"/>
</g>
<defs>
<radialGradient id="paint0_radial_8470_2448" cx="0" cy="0" r="1" gradientUnits="userSpaceOnUse" gradientTransform="translate(68.3768 14.939) rotate(177.983) scale(12.8845 12.9908)">
<stop offset="0.325" stop-color="#FFCB00"/>
<stop offset="1" stop-color="#FDF400"/>
</radialGradient>
</defs>
</svg>
