<svg width="86" height="58" viewBox="0 0 86 58" fill="none" xmlns="http://www.w3.org/2000/svg">
<g id="vcpu">
<g id="Group 1261162321" opacity="0.8">
<g id="2">
<g id="2_2">
<g id="Group 2561">
<path id="Vector" d="M32.4219 9.32743L42.8529 15.303L53.2053 9.35364L43.5333 3.77436C43.0799 3.5128 42.5211 3.5128 42.0677 3.77384L32.4219 9.32743Z" fill="#CFFDD8"/>
<path id="Vector_2" fill-rule="evenodd" clip-rule="evenodd" d="M42.8516 15.3048V20.0224L52.4339 14.3655C52.879 14.1029 53.1531 13.6254 53.1552 13.1085L53.2039 9.35547L42.8516 15.3048Z" fill="#1F3724"/>
<path id="Vector_3" d="M42.8529 15.3037L32.4219 9.32812V13.2437C32.4219 13.7721 32.7055 14.259 33.1646 14.5201L42.8529 20.0212V15.3037Z" fill="#61BD73"/>
</g>
<g id="Group 2562">
<path id="Vector_4" d="M21.6133 15.6575L32.0443 21.6331L42.3967 15.6837L32.7247 10.1044C32.2713 9.84288 31.7125 9.84288 31.2591 10.1039L21.6133 15.6575Z" fill="#CFFDD8"/>
<path id="Vector_5" fill-rule="evenodd" clip-rule="evenodd" d="M32.043 21.6349V26.3524L41.6253 20.6956C42.0704 20.433 42.3445 19.9555 42.3466 19.4386L42.3954 15.6855L32.043 21.6349Z" fill="#1F3724"/>
<path id="Vector_6" d="M32.0443 21.6338L21.6133 15.6582V19.5738C21.6133 20.1021 21.8969 20.5891 22.356 20.8501L32.0443 26.3513V21.6338Z" fill="#61BD73"/>
</g>
<g id="Group 2563">
<path id="Vector_7" d="M43.2305 15.6575L53.6615 21.6331L64.0139 15.6837L54.3419 10.1044C53.8885 9.84288 53.3297 9.84288 52.8763 10.1039L43.2305 15.6575Z" fill="#CFFDD8"/>
<path id="Vector_8" fill-rule="evenodd" clip-rule="evenodd" d="M53.6602 21.6349V26.3524L63.2425 20.6956C63.6876 20.433 63.9617 19.9555 63.9638 19.4386L64.0125 15.6855L53.6602 21.6349Z" fill="#1F3724"/>
<path id="Vector_9" d="M53.6615 21.6338L43.2305 15.6582V19.5738C43.2305 20.1021 43.514 20.5891 43.9732 20.8501L53.6615 26.3513V21.6338Z" fill="#61BD73"/>
</g>
<g id="Group 2564">
<path id="Vector_10" d="M32.4219 21.9876L42.8529 27.9631L53.2053 22.0138L43.5333 16.4345C43.0799 16.173 42.5211 16.173 42.0677 16.434L32.4219 21.9876Z" fill="#CFFDD8"/>
<path id="Vector_11" fill-rule="evenodd" clip-rule="evenodd" d="M42.8516 27.965V32.6825L52.4339 27.0257C52.879 26.7631 53.1531 26.2855 53.1552 25.7687L53.2039 22.0156L42.8516 27.965Z" fill="#1F3724"/>
<path id="Vector_12" d="M42.8529 27.9638L32.4219 21.9883V25.9039C32.4219 26.4322 32.7055 26.9192 33.1646 27.1802L42.8529 32.6814V27.9638Z" fill="#61BD73"/>
</g>
<g id="Group 2565">
<path id="Vector_13" d="M54.0352 21.9876L64.4662 27.9631L74.8185 22.0138L65.1465 16.4345C64.6931 16.173 64.1344 16.173 63.681 16.434L54.0352 21.9876Z" fill="#CFFDD8"/>
<path id="Vector_14" fill-rule="evenodd" clip-rule="evenodd" d="M64.4648 27.963V32.6806L74.0472 27.0237C74.4922 26.7611 74.7664 26.2836 74.7685 25.7667L74.8172 22.0137L64.4648 27.963Z" fill="#1F3724"/>
<path id="Vector_15" d="M64.4662 27.9638L54.0352 21.9883V25.9039C54.0352 26.4322 54.3187 26.9192 54.7779 27.1802L64.4662 32.6814V27.9638Z" fill="#61BD73"/>
</g>
<g id="Group 2566">
<path id="Vector_16" d="M43.2305 28.3177L53.6615 34.2932L64.0139 28.3439L54.3419 22.7646C53.8885 22.503 53.3297 22.503 52.8763 22.7641L43.2305 28.3177Z" fill="#CFFDD8"/>
<path id="Vector_17" fill-rule="evenodd" clip-rule="evenodd" d="M53.6602 34.2951V39.0126L63.2425 33.3557C63.6876 33.0931 63.9617 32.6156 63.9638 32.0988L64.0125 28.3457L53.6602 34.2951Z" fill="#1F3724"/>
<path id="Vector_18" d="M53.6615 34.2939L43.2305 28.3184V32.2339C43.2305 32.7623 43.514 33.2493 43.9732 33.5103L53.6615 39.0115V34.2939Z" fill="#61BD73"/>
</g>
<g id="Group 2567">
<path id="Vector_19" d="M64.8438 28.3177L75.2748 34.2932L85.6271 28.3439L75.9551 22.7646C75.5017 22.503 74.943 22.503 74.4896 22.7641L64.8438 28.3177Z" fill="#CFFDD8"/>
<path id="Vector_20" fill-rule="evenodd" clip-rule="evenodd" d="M75.2734 34.2951V39.0126L84.8558 33.3557C85.3008 33.0931 85.575 32.6156 85.5771 32.0988L85.6258 28.3457L75.2734 34.2951Z" fill="#1F3724"/>
<path id="Vector_21" d="M75.2748 34.2939L64.8438 28.3184V32.2339C64.8438 32.7623 65.1273 33.2493 65.5865 33.5103L75.2748 39.0115V34.2939Z" fill="#61BD73"/>
</g>
<g id="Group 2568">
<path id="Vector_22" d="M54.0352 34.6458L64.4662 40.6213L74.8185 34.672L65.1465 29.0927C64.6931 28.8312 64.1344 28.8312 63.681 29.0922L54.0352 34.6458Z" fill="#CFFDD8"/>
<path id="Vector_23" fill-rule="evenodd" clip-rule="evenodd" d="M64.4648 40.6232V45.3407L74.0472 39.6839C74.4922 39.4213 74.7664 38.9437 74.7685 38.4269L74.8172 34.6738L64.4648 40.6232Z" fill="#1F3724"/>
<path id="Vector_24" d="M64.4662 40.622L54.0352 34.6465V38.5621C54.0352 39.0904 54.3187 39.5774 54.7779 39.8384L64.4662 45.3396V40.622Z" fill="#61BD73"/>
</g>
<g id="Group 2569">
<path id="Vector_25" d="M10.8086 21.9876L21.2396 27.9631L31.592 22.0138L21.92 16.4345C21.4666 16.173 20.9078 16.173 20.4544 16.434L10.8086 21.9876Z" fill="#CFFDD8"/>
<path id="Vector_26" fill-rule="evenodd" clip-rule="evenodd" d="M21.2383 27.965V32.6825L30.8207 27.0257C31.2657 26.7631 31.5398 26.2855 31.5419 25.7687L31.5907 22.0156L21.2383 27.965Z" fill="#1F3724"/>
<path id="Vector_27" d="M21.2396 27.9638L10.8086 21.9883V25.9039C10.8086 26.4322 11.0922 26.9192 11.5513 27.1802L21.2396 32.6814V27.9638Z" fill="#61BD73"/>
</g>
<g id="Group 2570">
<path id="Vector_28" d="M0 28.3157L10.431 34.2913L20.7834 28.3419L11.1114 22.7626C10.658 22.5011 10.0992 22.5011 9.64581 22.7621L0 28.3157Z" fill="#CFFDD8"/>
<path id="Vector_29" fill-rule="evenodd" clip-rule="evenodd" d="M10.4297 34.2912V39.0087L20.0121 33.3518C20.4571 33.0892 20.7312 32.6117 20.7333 32.0949L20.7821 28.3418L10.4297 34.2912Z" fill="#1F3724"/>
<path id="Vector_30" d="M10.431 34.292L0 28.3164V32.232C0 32.7603 0.283577 33.2473 0.742751 33.5083L10.431 39.0095V34.292Z" fill="#61BD73"/>
</g>
<g id="Group 2571">
<path id="Vector_31" d="M21.6133 28.3177L32.0443 34.2932L42.3967 28.3439L32.7247 22.7646C32.2713 22.503 31.7125 22.503 31.2591 22.7641L21.6133 28.3177Z" fill="#CFFDD8"/>
<path id="Vector_32" fill-rule="evenodd" clip-rule="evenodd" d="M32.043 34.2951V39.0126L41.6253 33.3557C42.0704 33.0931 42.3445 32.6156 42.3466 32.0988L42.3954 28.3457L32.043 34.2951Z" fill="#1F3724"/>
<path id="Vector_33" d="M32.0443 34.2939L21.6133 28.3184V32.2339C21.6133 32.7623 21.8969 33.2493 22.356 33.5103L32.0443 39.0115V34.2939Z" fill="#61BD73"/>
</g>
<g id="Group 2572">
<path id="Vector_34" d="M10.8086 34.6477L21.2396 40.6233L31.592 34.674L21.92 29.0947C21.4666 28.8331 20.9078 28.8331 20.4544 29.0941L10.8086 34.6477Z" fill="#CFFDD8"/>
<path id="Vector_35" fill-rule="evenodd" clip-rule="evenodd" d="M21.2383 40.6232V45.3407L30.8207 39.6839C31.2657 39.4213 31.5398 38.9437 31.5419 38.4269L31.5907 34.6738L21.2383 40.6232Z" fill="#1F3724"/>
<path id="Vector_36" d="M21.2396 40.622L10.8086 34.6465V38.5621C10.8086 39.0904 11.0922 39.5774 11.5513 39.8384L21.2396 45.3396V40.622Z" fill="#61BD73"/>
</g>
<g id="Group 2573">
<path id="Vector_37" d="M32.4219 34.6458L42.8529 40.6213L53.2053 34.672L43.5333 29.0927C43.0799 28.8312 42.5211 28.8312 42.0677 29.0922L32.4219 34.6458Z" fill="#CFFDD8"/>
<path id="Vector_38" fill-rule="evenodd" clip-rule="evenodd" d="M42.8516 40.6232V45.3407L52.4339 39.6839C52.879 39.4213 53.1531 38.9437 53.1552 38.4269L53.2039 34.6738L42.8516 40.6232Z" fill="#1F3724"/>
<path id="Vector_39" d="M42.8529 40.622L32.4219 34.6465V38.5621C32.4219 39.0904 32.7055 39.5774 33.1646 39.8384L42.8529 45.3396V40.622Z" fill="#61BD73"/>
</g>
<g id="Group 2574">
<path id="Vector_40" d="M21.6133 40.9778L32.0443 46.9534L42.3967 41.004L32.7247 35.4248C32.2713 35.1632 31.7125 35.1632 31.2591 35.4242L21.6133 40.9778Z" fill="#CFFDD8"/>
<path id="Vector_41" fill-rule="evenodd" clip-rule="evenodd" d="M32.043 46.9552V51.6727L41.6253 46.0159C42.0704 45.7533 42.3445 45.2758 42.3466 44.7589L42.3954 41.0059L32.043 46.9552Z" fill="#1F3724"/>
<path id="Vector_42" d="M32.0443 46.9541L21.6133 40.9785V44.8941C21.6133 45.4225 21.8969 45.9094 22.356 46.1704L32.0443 51.6716V46.9541Z" fill="#61BD73"/>
</g>
<g id="Group 2575">
<path id="Vector_43" d="M43.2305 40.9778L53.6615 46.9534L64.0139 41.004L54.3419 35.4248C53.8885 35.1632 53.3297 35.1632 52.8763 35.4242L43.2305 40.9778Z" fill="#CFFDD8"/>
<path id="Vector_44" fill-rule="evenodd" clip-rule="evenodd" d="M53.6602 46.9552V51.6727L63.2425 46.0159C63.6876 45.7533 63.9617 45.2758 63.9638 44.7589L64.0125 41.0059L53.6602 46.9552Z" fill="#1F3724"/>
<path id="Vector_45" d="M53.6615 46.9541L43.2305 40.9785V44.8941C43.2305 45.4225 43.514 45.9094 43.9732 46.1704L53.6615 51.6716V46.9541Z" fill="#61BD73"/>
</g>
<g id="Group 2576">
<path id="Vector_46" d="M32.4219 47.3059L42.8529 53.2815L53.2053 47.3322L43.5333 41.7529C43.0799 41.4913 42.5211 41.4913 42.0677 41.7524L32.4219 47.3059Z" fill="#CFFDD8"/>
<path id="Vector_47" fill-rule="evenodd" clip-rule="evenodd" d="M42.8516 53.2833V58.0009L52.4339 52.344C52.879 52.0814 53.1531 51.6039 53.1552 51.0871L53.2039 47.334L42.8516 53.2833Z" fill="#1F3724"/>
<path id="Vector_48" d="M42.8529 53.2822L32.4219 47.3066V51.2222C32.4219 51.7506 32.7055 52.2375 33.1646 52.4986L42.8529 57.9997V53.2822Z" fill="#61BD73"/>
</g>
</g>
<g id="2-block">
<g id="2_3">
<path id="Vector_49" d="M45.1797 18.4392L53.7901 23.3717L62.3355 18.4608L54.3516 13.8554C53.9773 13.6395 53.5162 13.6393 53.1417 13.855L45.1797 18.4392Z" fill="#85FA9C"/>
<path id="Vector_50" fill-rule="evenodd" clip-rule="evenodd" d="M53.7852 23.3719V32.8476L61.6949 28.1782C62.0623 27.9613 62.2886 27.5672 62.2905 27.1405L62.3306 18.4609L53.7852 23.3719Z" fill="#61BD73"/>
<path id="Vector_51" d="M53.7901 23.372L45.1797 18.4395V27.2532C45.1797 27.6891 45.4139 28.0915 45.793 28.3067L53.7901 32.8478V23.372Z" fill="#B6DCBE"/>
<g id="Clip path group">
<mask id="mask0_8470_2659" style="mask-type:luminance" maskUnits="userSpaceOnUse" x="44" y="12" width="20" height="22">
<g id="cl_f">
<path id="Vector_52" d="M44.3125 12.8145H63.2207V33.8861H44.3125V12.8145ZM45.1778 18.4393L53.7882 23.372L62.3338 18.461L54.3497 13.8556C53.9753 13.6396 53.5143 13.6395 53.14 13.8552L45.1778 18.4393ZM53.7882 23.372V32.8477L61.698 28.1783C62.0654 27.9614 62.2916 27.5672 62.2936 27.1407L62.3338 18.461L53.7882 23.372ZM53.7882 23.372L45.1778 18.4393V27.253C45.1778 27.689 45.412 28.0914 45.791 28.3066L53.7882 32.8477V23.372Z" fill="white"/>
</g>
</mask>
<g mask="url(#mask0_8470_2659)">
<g id="Group">
<path id="Vector_53" d="M53.745 13.5067L53.9612 13.1319L53.7452 13.0073L53.5291 13.1317L53.745 13.5067ZM45.1779 27.9583H44.7452V28.2102L44.9642 28.3346L45.1779 27.9583ZM62.2905 27.8285L62.5104 28.2011L62.722 28.0762L62.7231 27.8305L62.2905 27.8285ZM44.9628 18.8147L53.5731 23.7473L54.0033 22.9964L45.3929 18.0639L44.9628 18.8147ZM54.0038 23.747L62.5493 18.8361L62.1181 18.0858L53.5726 22.9967L54.0038 23.747ZM54.2209 32.8476V23.3719H53.3555V32.8476H54.2209ZM53.5291 13.1317L52.924 13.4801L53.3558 14.2301L53.9609 13.8817L53.5291 13.1317ZM44.7452 27.253V27.9583H45.6105V27.253H44.7452ZM44.9642 28.3346L45.5775 28.6828L46.0048 27.9303L45.3915 27.582L44.9642 28.3346ZM62.0705 27.4559L61.4781 27.8056L61.918 28.5508L62.5104 28.2011L62.0705 27.4559ZM61.861 27.1385L61.8578 27.8265L62.7231 27.8305L62.7263 27.1425L61.861 27.1385ZM54.5659 13.4808L53.9612 13.1319L53.5287 13.8815L54.1336 14.2304L54.5659 13.4808ZM45.1779 18.4393L44.746 17.6894L44.3125 17.939V18.4393H45.1779ZM62.3337 18.4609L63.1991 18.4649L63.2014 17.9624L62.7661 17.7113L62.3337 18.4609ZM53.7882 32.8476L53.3609 33.6001L53.7967 33.8475L54.2281 33.5928L53.7882 32.8476ZM53.9173 14.6052L61.9013 19.2105L62.7661 17.7113L54.7821 13.106L53.9173 14.6052ZM61.4684 18.4569L61.4283 27.1366L63.159 27.1446L63.1991 18.4649L61.4684 18.4569ZM61.4283 27.1366C61.4277 27.2584 61.3631 27.3711 61.2581 27.433L62.1379 28.9234C62.7678 28.5516 63.1556 27.8759 63.159 27.1446L61.4283 27.1366ZM61.2581 27.433L53.3483 32.1024L54.2281 33.5928L62.1379 28.9234L61.2581 27.433ZM54.2155 32.0951L46.2184 27.5541L45.3638 29.059L53.3609 33.6001L54.2155 32.0951ZM46.2184 27.5541C46.1101 27.4925 46.0432 27.3776 46.0432 27.253H44.3125C44.3125 28.0004 44.714 28.6901 45.3638 29.059L46.2184 27.5541ZM46.0432 27.253V18.4393H44.3125V27.253H46.0432ZM45.6096 19.1892L53.5717 14.605L52.7081 13.1051L44.746 17.6894L45.6096 19.1892ZM53.5717 14.605C53.6787 14.5434 53.8104 14.5435 53.9173 14.6052L54.7821 13.106C54.1404 12.7358 53.3501 12.7355 52.7081 13.1051L53.5717 14.605Z" fill="#208533"/>
</g>
</g>
</g>
</g>
<g id="2_4">
<path id="Vector_54" d="M23.5625 5.62471L32.1729 10.5573L40.7184 5.64634L32.7344 1.04099C32.3601 0.825043 31.899 0.82487 31.5246 1.04052L23.5625 5.62471Z" fill="#85FA9C"/>
<path id="Vector_55" fill-rule="evenodd" clip-rule="evenodd" d="M32.1719 10.5574V20.0332L40.0817 15.3638C40.449 15.1469 40.6753 14.7528 40.6772 14.3261L40.7174 5.64648L32.1719 10.5574Z" fill="#61BD73"/>
<path id="Vector_56" d="M32.1729 10.5576L23.5625 5.625V14.4387C23.5625 14.8747 23.7967 15.277 24.1758 15.4923L32.1729 20.0333V10.5576Z" fill="#B6DCBE"/>
<g id="Clip path group_2">
<mask id="mask1_8470_2659" style="mask-type:luminance" maskUnits="userSpaceOnUse" x="22" y="0" width="20" height="22">
<g id="cl_f_2">
<path id="Vector_57" d="M22.6992 0H41.6074V21.0716H22.6992V0ZM23.5646 5.62488L32.1749 10.5575L40.7205 5.6465L32.7364 1.04118C32.3621 0.825194 31.9011 0.825036 31.5267 1.04071L23.5646 5.62488ZM32.1749 10.5575V20.0332L40.0847 15.3638C40.4522 15.1469 40.6783 14.7528 40.6803 14.3262L40.7205 5.6465L32.1749 10.5575ZM32.1749 10.5575L23.5646 5.62488V14.4386C23.5646 14.8746 23.7988 15.2769 24.1778 15.4921L32.1749 20.0332V10.5575Z" fill="white"/>
</g>
</mask>
<g mask="url(#mask1_8470_2659)">
<g id="Group_2">
<path id="Vector_58" d="M32.1317 0.692258L32.3479 0.317469L32.1319 0.192857L31.9158 0.317296L32.1317 0.692258ZM23.5646 15.1439H23.1319V15.3957L23.3509 15.5201L23.5646 15.1439ZM40.6772 15.014L40.8972 15.3866L41.1087 15.2618L41.1099 15.016L40.6772 15.014ZM23.3495 6.00028L31.9599 10.9329L32.39 10.182L23.7796 5.2494L23.3495 6.00028ZM32.3906 10.9326L40.936 6.02161L40.5048 5.27134L31.9593 10.1823L32.3906 10.9326ZM32.6076 20.0332V10.5574H31.7423V20.0332H32.6076ZM31.9158 0.317296L31.3107 0.665649L31.7425 1.41562L32.3476 1.06722L31.9158 0.317296ZM23.1319 14.4386V15.1439H23.9973V14.4386H23.1319ZM23.3509 15.5201L23.9642 15.8683L24.3915 15.1159L23.7782 14.7676L23.3509 15.5201ZM40.4572 14.6415L39.8648 14.9912L40.3047 15.7364L40.8972 15.3866L40.4572 14.6415ZM40.2477 14.3241L40.2445 15.0121L41.1099 15.016L41.113 14.3281L40.2477 14.3241ZM32.9527 0.666298L32.3479 0.317469L31.9155 1.06705L32.5203 1.41592L32.9527 0.666298ZM23.5646 5.62484L23.1328 4.87491L22.6992 5.12453V5.62484H23.5646ZM40.7204 5.64647L41.5858 5.65045L41.5881 5.14798L41.1528 4.89689L40.7204 5.64647ZM32.1749 20.0332L31.7476 20.7857L32.1834 21.0331L32.6149 20.7784L32.1749 20.0332ZM32.3041 1.79071L40.2881 6.39606L41.1528 4.89689L33.1689 0.291508L32.3041 1.79071ZM39.8551 5.64249L39.815 14.3221L41.5457 14.3301L41.5858 5.65045L39.8551 5.64249ZM39.815 14.3221C39.8144 14.444 39.7498 14.5566 39.6448 14.6186L40.5247 16.109C41.1545 15.7372 41.5423 15.0615 41.5457 14.3301L39.815 14.3221ZM39.6448 14.6186L31.735 19.288L32.6149 20.7784L40.5247 16.109L39.6448 14.6186ZM32.6023 19.2806L24.6051 14.7396L23.7506 16.2446L31.7476 20.7857L32.6023 19.2806ZM24.6051 14.7396C24.4968 14.6781 24.4299 14.5632 24.4299 14.4386H22.6992C22.6992 15.1859 23.1007 15.8756 23.7506 16.2446L24.6051 14.7396ZM24.4299 14.4386V5.62484H22.6992V14.4386H24.4299ZM23.9964 6.37476L31.9584 1.79058L31.0948 0.290686L23.1328 4.87491L23.9964 6.37476ZM31.9584 1.79058C32.0654 1.72897 32.1971 1.72901 32.3041 1.79071L33.1689 0.291508C32.5272 -0.0786516 31.7369 -0.0789544 31.0948 0.290686L31.9584 1.79058Z" fill="#208533"/>
</g>
</g>
</g>
</g>
<g id="2_5">
<path id="Vector_59" d="M23.7148 30.9431L32.3252 35.8756L40.8707 30.9647L32.8867 26.3594C32.5124 26.1434 32.0514 26.1432 31.6769 26.3589L23.7148 30.9431Z" fill="#85FA9C"/>
<path id="Vector_60" fill-rule="evenodd" clip-rule="evenodd" d="M32.3242 35.8758V45.3515L40.234 40.6822C40.6014 40.4653 40.8276 40.0711 40.8296 39.6445L40.8697 30.9648L32.3242 35.8758Z" fill="#61BD73"/>
<path id="Vector_61" d="M32.3252 35.8759L23.7148 30.9434V39.7571C23.7148 40.193 23.9491 40.5954 24.3281 40.8106L32.3252 45.3517V35.8759Z" fill="#B6DCBE"/>
<g id="Clip path group_3">
<mask id="mask2_8470_2659" style="mask-type:luminance" maskUnits="userSpaceOnUse" x="22" y="25" width="20" height="22">
<g id="cl_f_3">
<path id="Vector_62" d="M22.8516 25.3184H41.7598V46.39H22.8516V25.3184ZM23.7169 30.9432L32.3273 35.8759L40.8728 30.9649L32.8888 26.3595C32.5144 26.1436 32.0534 26.1434 31.679 26.3591L23.7169 30.9432ZM32.3273 35.8759V45.3516L40.2371 40.6822C40.6045 40.4653 40.8307 40.0711 40.8327 39.6446L40.8728 30.9649L32.3273 35.8759ZM32.3273 35.8759L23.7169 30.9432V39.757C23.7169 40.1929 23.9511 40.5953 24.3301 40.8105L32.3273 45.3516V35.8759Z" fill="white"/>
</g>
</mask>
<g mask="url(#mask2_8470_2659)">
<g id="Group_3">
<path id="Vector_63" d="M32.284 26.0106L32.5002 25.6358L32.2842 25.5112L32.0681 25.6357L32.284 26.0106ZM23.7169 40.4622H23.2842V40.7141L23.5033 40.8385L23.7169 40.4622ZM40.8295 40.3324L41.0495 40.705L41.2611 40.5801L41.2622 40.3344L40.8295 40.3324ZM23.5018 31.3186L32.1122 36.2512L32.5424 35.5003L23.932 30.5678L23.5018 31.3186ZM32.5429 36.2509L41.0884 31.34L40.6572 30.5897L32.1117 35.5006L32.5429 36.2509ZM32.76 45.3515V35.8758H31.8946V45.3515H32.76ZM32.0681 25.6357L31.4631 25.984L31.8949 26.734L32.4999 26.3856L32.0681 25.6357ZM23.2842 39.7569V40.4622H24.1496V39.7569H23.2842ZM23.5033 40.8385L24.1166 41.1867L24.5439 40.4342L23.9305 40.0859L23.5033 40.8385ZM40.6095 39.9598L40.0171 40.3095L40.457 41.0547L41.0495 40.705L40.6095 39.9598ZM40.4 39.6425L40.3968 40.3304L41.2622 40.3344L41.2654 39.6464L40.4 39.6425ZM33.105 25.9847L32.5002 25.6358L32.0678 26.3854L32.6726 26.7343L33.105 25.9847ZM23.7169 30.9432L23.2851 30.1933L22.8516 30.4429V30.9432H23.7169ZM40.8728 30.9648L41.7382 30.9688L41.7404 30.4663L41.3052 30.2153L40.8728 30.9648ZM32.3273 45.3515L31.9 46.104L32.3357 46.3514L32.7672 46.0967L32.3273 45.3515ZM32.4564 27.1091L40.4404 31.7144L41.3052 30.2153L33.3212 25.6099L32.4564 27.1091ZM40.0074 30.9609L39.9674 39.6405L41.698 39.6485L41.7382 30.9688L40.0074 30.9609ZM39.9674 39.6405C39.9668 39.7624 39.9021 39.875 39.7972 39.9369L40.677 41.4274C41.3069 41.0555 41.6947 40.3798 41.698 39.6485L39.9674 39.6405ZM39.7972 39.9369L31.8874 44.6063L32.7672 46.0967L40.677 41.4274L39.7972 39.9369ZM32.7546 44.599L24.7575 40.058L23.9029 41.563L31.9 46.104L32.7546 44.599ZM24.7575 40.058C24.6492 39.9964 24.5823 39.8815 24.5823 39.7569H22.8516C22.8516 40.5043 23.253 41.194 23.9029 41.563L24.7575 40.058ZM24.5823 39.7569V30.9432H22.8516V39.7569H24.5823ZM24.1487 31.6931L32.1107 27.1089L31.2472 25.609L23.2851 30.1933L24.1487 31.6931ZM32.1107 27.1089C32.2177 27.0473 32.3494 27.0474 32.4564 27.1091L33.3212 25.6099C32.6795 25.2397 31.8892 25.2394 31.2472 25.609L32.1107 27.1089Z" fill="#208533"/>
</g>
</g>
</g>
</g>
</g>
</g>
</g>
</g>
</svg>
