<svg width="128" height="26" viewBox="0 0 128 26" fill="none" xmlns="http://www.w3.org/2000/svg">
<g clip-path="url(#clip0_1238_95)">
<path d="M0.255859 8.09937H10.5812V10.9132H3.90813V13.3592H10.3081V16.2842H3.90813V18.8073H10.6921V21.6467H0.255859V8.09937Z" fill="#FAFAFA"/>
<path d="M26.6494 8.09937H30.3273V21.6553H26.6494V8.09937Z" fill="#FAFAFA"/>
<path d="M43.7496 8.5354L43.5022 11.4347C40.5326 9.70711 35.9758 10.263 35.899 14.7788C35.8136 19.2946 40.5923 19.9532 43.6131 18.4222L43.8008 21.3815C38.459 23.0492 32.076 21.3558 32.1016 14.7788C32.1272 8.33869 38.5614 6.55974 43.7496 8.5354Z" fill="#FAFAFA"/>
<path d="M54.5788 8.32161L54.3314 11.144C52.4796 10.1177 48.9554 10.092 48.9554 11.6999C48.9554 14.0775 55.2274 12.3585 55.2274 17.4558C55.2274 22.4677 49.254 22.519 45.3799 21.3644L45.653 18.3795C48.0764 19.517 51.5154 19.765 51.5154 17.7979C51.5154 15.6427 45.2178 16.8571 45.2178 12.0078C45.2178 8.03082 50.133 6.9703 54.5788 8.32161Z" fill="#FAFAFA"/>
<path d="M65.6726 8.32161L65.4251 11.144C63.5734 10.1177 60.0491 10.092 60.0491 11.6999C60.0491 14.0775 66.3211 12.3585 66.3211 17.4558C66.3211 22.4677 60.3478 22.519 56.4737 21.3644L56.7467 18.3795C59.1702 19.517 62.6091 19.765 62.6091 17.7979C62.6091 15.6427 56.3115 16.8571 56.3115 12.0078C56.3201 8.03082 61.2267 6.9703 65.6726 8.32161Z" fill="#FAFAFA"/>
<path d="M82.6113 8.09937H87.2705L91.7079 16.8402V8.09937H95.0956V21.6553H90.7009L86.0247 12.7434V21.6553H82.6113V8.09937Z" fill="#FAFAFA"/>
<path d="M74.1288 7.77417C77.9518 7.77417 80.8616 10.015 80.8616 14.9071C80.8616 19.5854 77.9347 21.9886 74.1288 21.9886C70.3315 21.9886 67.4131 19.6367 67.4131 14.9071C67.4216 10.015 70.3144 7.77417 74.1288 7.77417ZM71.1848 14.9071C71.1848 16.9768 72.0723 19.3117 74.1288 19.3117C76.1939 19.3117 77.0558 16.9768 77.0728 14.9071C77.0899 13.0426 76.1939 10.511 74.1288 10.5025C72.0723 10.5025 71.1848 12.8373 71.1848 14.9071Z" fill="#FAFAFA"/>
<path d="M16.7762 13.8125H18.7901C19.6946 13.8296 20.5138 13.2823 20.5053 12.2816C20.4968 11.3921 19.7714 10.7678 18.8413 10.7763H16.7677L16.7762 13.8125ZM13.252 8.09937H19.8824C21.6829 8.09937 24.1917 8.89476 24.1917 11.7086C24.1917 13.5132 23.3725 14.5224 21.828 14.9842C21.8962 14.9757 22.7154 15.3349 23.0482 16.3527C23.0653 16.3869 24.9426 21.6467 24.9682 21.6553H21.06L19.669 17.5842C19.4557 16.9599 18.9949 16.5408 18.3293 16.5408C17.7576 16.5408 16.853 16.5066 16.853 16.5408V21.6553H13.252V8.09937Z" fill="#FAFAFA"/>
<path d="M127.658 1.87297C127.445 1.21442 126.976 0.701263 126.396 0.410473C125.815 0.119684 125.133 0.0512628 123.989 0.436131L111.053 4.75521C109.918 5.13153 109.406 5.60192 109.116 6.1835C108.825 6.76508 108.757 7.44929 108.979 8.11639C109.192 8.77495 109.662 9.2881 110.242 9.57889C110.822 9.86968 111.505 9.9381 112.648 9.55324L125.585 5.23416C126.72 4.85784 127.232 4.38745 127.522 3.80587C127.812 3.22429 127.88 2.54008 127.658 1.87297Z" fill="#FAFAFA"/>
<path d="M127.658 9.87834C127.445 9.21979 126.976 8.70663 126.396 8.41584C125.815 8.12506 125.133 8.05663 123.989 8.4415L111.053 12.7606C109.918 13.1369 109.406 13.6073 109.116 14.1889C108.825 14.7704 108.757 15.4547 108.979 16.1218C109.192 16.7803 109.662 17.2935 110.242 17.5843C110.822 17.8751 111.505 17.9435 112.648 17.5586L125.585 13.2395C126.72 12.8632 127.232 12.3928 127.522 11.8112C127.812 11.2297 127.88 10.5454 127.658 9.87834Z" fill="#FAFAFA"/>
<path d="M127.658 17.8835C127.445 17.2249 126.976 16.7118 126.396 16.421C125.815 16.1302 125.133 16.0618 123.989 16.4466L111.053 20.7657C109.918 21.142 109.406 21.6124 109.116 22.194C108.825 22.7756 108.757 23.4598 108.979 24.1269C109.192 24.7854 109.662 25.2986 110.242 25.5894C110.822 25.8802 111.505 25.9486 112.648 25.5637L125.585 21.2447C126.72 20.8598 127.232 20.3979 127.522 19.8164C127.812 19.2348 127.88 18.5506 127.658 17.8835Z" fill="#FAFAFA"/>
</g>
<defs>
<clipPath id="clip0_1238_95">
<rect width="128" height="26" fill="white"/>
</clipPath>
</defs>
</svg>
