<svg width="71" height="71" viewBox="0 0 71 71" fill="none" xmlns="http://www.w3.org/2000/svg">
<g id="excellence">
<g id="Group" opacity="0.8">
<path id="Vector" d="M9.3541 48.8234C10.39 48.8234 11.2297 47.9837 11.2297 46.9478C11.2297 45.912 10.39 45.0723 9.3541 45.0723C8.31824 45.0723 7.47852 45.912 7.47852 46.9478C7.47852 47.9837 8.31824 48.8234 9.3541 48.8234Z" fill="#2A97E1"/>
</g>
<g id="Group_2" opacity="0.8">
<path id="Vector_2" d="M9.35482 16.4538C10.9887 16.4538 12.3132 15.1293 12.3132 13.4954C12.3132 11.8616 10.9887 10.5371 9.35482 10.5371C7.72098 10.5371 6.39648 11.8616 6.39648 13.4954C6.39648 15.1293 7.72098 16.4538 9.35482 16.4538Z" fill="#61BD73"/>
</g>
<path id="Vector_3" d="M20.1764 17.8215C21.2122 17.8215 22.0519 16.9818 22.0519 15.9459C22.0519 14.91 21.2122 14.0703 20.1764 14.0703C19.1405 14.0703 18.3008 14.91 18.3008 15.9459C18.3008 16.9818 19.1405 17.8215 20.1764 17.8215Z" fill="#2A97E1"/>
<g id="Group_3" opacity="0.8">
<path id="Vector_4" d="M62.7291 48.8234C63.765 48.8234 64.6047 47.9837 64.6047 46.9478C64.6047 45.912 63.765 45.0723 62.7291 45.0723C61.6932 45.0723 60.8535 45.912 60.8535 46.9478C60.8535 47.9837 61.6932 48.8234 62.7291 48.8234Z" fill="#61BD73"/>
</g>
<g id="Group_4" opacity="0.8">
<path id="Vector_5" d="M18.2584 65.1078C17.4064 65.1078 16.584 64.6463 16.1639 63.8416C15.5545 62.6819 15.9982 61.256 17.1579 60.6466L34.8606 51.3397C36.0143 50.7303 37.4461 51.174 38.0556 52.3337C38.665 53.4933 38.2212 54.9193 37.0616 55.5287L19.3589 64.8356C19.0098 65.019 18.6312 65.1078 18.2584 65.1078Z" fill="#2A97E1"/>
</g>
<g id="Group_5" opacity="0.8">
<path id="Vector_6" d="M53.6642 65.1078C53.2914 65.1078 52.9187 65.019 52.5637 64.8356L34.861 55.5287C33.7014 54.9193 33.2576 53.4874 33.867 52.3337C34.4764 51.174 35.9083 50.7303 37.062 51.3397L54.7647 60.6466C55.9244 61.256 56.3681 62.6878 55.7587 63.8416C55.3327 64.6463 54.5103 65.1078 53.6642 65.1078Z" fill="#61BD73"/>
</g>
<g id="Group_6" opacity="0.8">
<path id="Vector_7" d="M53.6576 65.1063C52.5275 65.1063 51.5276 64.2898 51.3264 63.136L47.948 43.4217C47.7291 42.1319 48.5929 40.9071 49.8827 40.6882C51.1726 40.4693 52.3973 41.3331 52.6162 42.623L55.9946 62.3373C56.2136 63.6271 55.3497 64.8519 54.0599 65.0708C53.9238 65.0945 53.7877 65.1063 53.6576 65.1063Z" fill="#2A97E1"/>
</g>
<g id="Group_7" opacity="0.8">
<path id="Vector_8" d="M50.2799 45.399C49.6646 45.399 49.0492 45.1623 48.5877 44.683C47.6766 43.7482 47.6943 42.2513 48.6292 41.3342L62.9534 27.3768C63.8882 26.4656 65.3851 26.4834 66.3022 27.4182C67.2193 28.353 67.1957 29.85 66.2608 30.767L51.9366 44.7245C51.4751 45.1741 50.8775 45.399 50.2858 45.399H50.2799Z" fill="#61BD73"/>
</g>
<g id="Group_8" opacity="0.8">
<path id="Vector_9" d="M64.6049 31.4345C64.4925 31.4345 64.3741 31.4286 64.2617 31.4108L44.4705 28.5353C43.1747 28.346 42.2813 27.1449 42.4706 25.8551C42.66 24.5653 43.861 23.6659 45.1509 23.8553L64.9421 26.7308C66.2379 26.9201 67.1313 28.1212 66.942 29.411C66.7704 30.5884 65.7586 31.4404 64.6049 31.4404V31.4345Z" fill="#2A97E1"/>
</g>
<g id="Group_9" opacity="0.8">
<path id="Vector_10" d="M44.8122 28.5589C43.9425 28.5589 43.1023 28.0737 42.6882 27.2395L33.8368 9.30607C33.257 8.13457 33.7421 6.71457 34.9136 6.13474C36.0851 5.5549 37.5052 6.03415 38.085 7.21157L46.9363 25.145C47.5162 26.3165 47.031 27.7365 45.8595 28.3163C45.5222 28.482 45.1672 28.5589 44.8122 28.5589Z" fill="#61BD73"/>
</g>
<g id="Group_10" opacity="0.8">
<path id="Vector_11" d="M27.1107 28.5598C26.7616 28.5598 26.4007 28.4829 26.0634 28.3172C24.8919 27.7374 24.4127 26.3174 24.9866 25.1459L33.8379 7.21248C34.4177 6.04098 35.8377 5.55581 37.0092 6.13564C38.1807 6.71548 38.66 8.13548 38.0861 9.30698L29.2347 27.2404C28.8206 28.0746 27.9804 28.5598 27.1107 28.5598Z" fill="#2A97E1"/>
</g>
<g id="Group_11" opacity="0.8">
<path id="Vector_12" d="M7.31343 31.4346C6.15968 31.4346 5.14793 30.5885 4.97635 29.4051C4.78701 28.1094 5.68635 26.9083 6.97618 26.7249L26.7674 23.8494C28.0632 23.6601 29.2643 24.5594 29.4477 25.8492C29.637 27.145 28.7377 28.3461 27.4478 28.5295L7.6566 31.405C7.53826 31.4227 7.42585 31.4286 7.31343 31.4286V31.4346Z" fill="#61BD73"/>
</g>
<g id="Group_12" opacity="0.8">
<path id="Vector_13" d="M21.6373 45.399C21.0397 45.399 20.448 45.1741 19.9865 44.7245L5.66821 30.767C4.73338 29.8559 4.71563 28.359 5.6268 27.4182C6.53796 26.4834 8.03488 26.4656 8.97563 27.3768L23.2999 41.3342C24.2347 42.2454 24.2525 43.7423 23.3413 44.683C22.8798 45.1564 22.2645 45.399 21.6491 45.399H21.6373Z" fill="#2A97E1"/>
</g>
<g id="Group_13" opacity="0.8">
<path id="Vector_14" d="M18.2597 65.1063C18.1295 65.1063 17.9934 65.0945 17.8573 65.0708C16.5675 64.8519 15.7037 63.6271 15.9226 62.3373L19.301 42.623C19.5199 41.3331 20.7447 40.4693 22.0345 40.6882C23.3243 40.9071 24.1882 42.1319 23.9692 43.4217L20.5908 63.136C20.3956 64.2898 19.3897 65.1063 18.2597 65.1063Z" fill="#61BD73"/>
</g>
</g>
</svg>
