<svg width="71" height="71" viewBox="0 0 71 71" fill="none" xmlns="http://www.w3.org/2000/svg">
<g opacity="0.8">
<path d="M9.3541 48.8243C10.39 48.8243 11.2297 47.9846 11.2297 46.9487C11.2297 45.9128 10.39 45.0731 9.3541 45.0731C8.31824 45.0731 7.47852 45.9128 7.47852 46.9487C7.47852 47.9846 8.31824 48.8243 9.3541 48.8243Z" fill="#00B7E2"/>
</g>
<g opacity="0.8">
<path d="M9.35482 16.4543C10.9887 16.4543 12.3132 15.1298 12.3132 13.4959C12.3132 11.8621 10.9887 10.5376 9.35482 10.5376C7.72098 10.5376 6.39648 11.8621 6.39648 13.4959C6.39648 15.1298 7.72098 16.4543 9.35482 16.4543Z" fill="#20E220"/>
</g>
<path d="M20.1764 17.821C21.2122 17.821 22.0519 16.9813 22.0519 15.9454C22.0519 14.9096 21.2122 14.0698 20.1764 14.0698C19.1405 14.0698 18.3008 14.9096 18.3008 15.9454C18.3008 16.9813 19.1405 17.821 20.1764 17.821Z" fill="#00B7E2"/>
<g opacity="0.8">
<path d="M62.7291 48.8243C63.765 48.8243 64.6047 47.9846 64.6047 46.9487C64.6047 45.9128 63.765 45.0731 62.7291 45.0731C61.6932 45.0731 60.8535 45.9128 60.8535 46.9487C60.8535 47.9846 61.6932 48.8243 62.7291 48.8243Z" fill="#20E220"/>
</g>
<g opacity="0.8">
<path d="M18.2584 65.107C17.4064 65.107 16.584 64.6455 16.1639 63.8409C15.5545 62.6812 15.9982 61.2553 17.1579 60.6459L34.8606 51.3389C36.0143 50.7295 37.4461 51.1733 38.0556 52.3329C38.665 53.4926 38.2212 54.9185 37.0616 55.5279L19.3589 64.8349C19.0098 65.0183 18.6312 65.107 18.2584 65.107Z" fill="#00B7E2"/>
</g>
<g opacity="0.8">
<path d="M53.6642 65.107C53.2914 65.107 52.9187 65.0183 52.5637 64.8349L34.861 55.5279C33.7014 54.9185 33.2576 53.4867 33.867 52.3329C34.4764 51.1733 35.9083 50.7295 37.062 51.3389L54.7647 60.6459C55.9244 61.2553 56.3681 62.6871 55.7587 63.8409C55.3327 64.6455 54.5103 65.107 53.6642 65.107Z" fill="#20E220"/>
</g>
<g opacity="0.8">
<path d="M53.6576 65.107C52.5275 65.107 51.5276 64.2905 51.3264 63.1368L47.948 43.4224C47.7291 42.1326 48.5929 40.9079 49.8827 40.6889C51.1726 40.47 52.3973 41.3339 52.6162 42.6237L55.9946 62.338C56.2136 63.6279 55.3497 64.8526 54.0599 65.0715C53.9238 65.0952 53.7877 65.107 53.6576 65.107Z" fill="#00B7E2"/>
</g>
<g opacity="0.8">
<path d="M50.2799 45.3986C49.6646 45.3986 49.0492 45.1619 48.5877 44.6827C47.6766 43.7478 47.6943 42.2509 48.6292 41.3338L62.9534 27.3764C63.8882 26.4653 65.3851 26.483 66.3022 27.4178C67.2193 28.3527 67.1957 29.8496 66.2608 30.7667L51.9366 44.7241C51.4751 45.1738 50.8775 45.3986 50.2858 45.3986H50.2799Z" fill="#20E220"/>
</g>
<g opacity="0.8">
<path d="M64.6049 31.4352C64.4925 31.4352 64.3741 31.4293 64.2617 31.4116L44.4705 28.5361C43.1747 28.3467 42.2813 27.1457 42.4706 25.8558C42.66 24.566 43.861 23.6667 45.1509 23.856L64.9421 26.7315C66.2379 26.9208 67.1313 28.1219 66.942 29.4117C66.7704 30.5892 65.7586 31.4412 64.6049 31.4412V31.4352Z" fill="#00B7E2"/>
</g>
<g opacity="0.8">
<path d="M44.8122 28.5598C43.9425 28.5598 43.1023 28.0746 42.6882 27.2403L33.8368 9.30692C33.257 8.13542 33.7421 6.71542 34.9136 6.13559C36.0851 5.55576 37.5052 6.03501 38.085 7.21242L46.9363 25.1458C47.5162 26.3173 47.031 27.7373 45.8595 28.3172C45.5222 28.4828 45.1672 28.5598 44.8122 28.5598Z" fill="#20E220"/>
</g>
<g opacity="0.8">
<path d="M27.1107 28.5598C26.7616 28.5598 26.4007 28.4829 26.0634 28.3172C24.8919 27.7374 24.4127 26.3174 24.9866 25.1459L33.8379 7.21248C34.4177 6.04098 35.8377 5.55581 37.0092 6.13564C38.1807 6.71548 38.66 8.13548 38.0861 9.30698L29.2347 27.2404C28.8206 28.0746 27.9804 28.5598 27.1107 28.5598Z" fill="#00B7E2"/>
</g>
<g opacity="0.8">
<path d="M7.31343 31.4353C6.15968 31.4353 5.14793 30.5892 4.97635 29.4059C4.78701 28.1101 5.68635 26.909 6.97618 26.7256L26.7674 23.8501C28.0632 23.6608 29.2643 24.5601 29.4477 25.85C29.637 27.1457 28.7377 28.3468 27.4478 28.5302L7.6566 31.4057C7.53826 31.4235 7.42585 31.4294 7.31343 31.4294V31.4353Z" fill="#20E220"/>
</g>
<g opacity="0.8">
<path d="M21.6373 45.3986C21.0397 45.3986 20.448 45.1738 19.9865 44.7241L5.66821 30.7667C4.73338 29.8555 4.71563 28.3586 5.6268 27.4178C6.53796 26.483 8.03488 26.4653 8.97563 27.3764L23.2999 41.3338C24.2347 42.245 24.2525 43.7419 23.3413 44.6827C22.8798 45.156 22.2645 45.3986 21.6491 45.3986H21.6373Z" fill="#00B7E2"/>
</g>
<g opacity="0.8">
<path d="M18.2597 65.107C18.1295 65.107 17.9934 65.0952 17.8573 65.0715C16.5675 64.8526 15.7037 63.6279 15.9226 62.338L19.301 42.6237C19.5199 41.3339 20.7447 40.47 22.0345 40.6889C23.3243 40.9079 24.1882 42.1326 23.9692 43.4224L20.5908 63.1368C20.3956 64.2905 19.3897 65.107 18.2597 65.107Z" fill="#20E220"/>
</g>
</svg>
