<svg width="115" height="22" viewBox="0 0 115 22" fill="none" xmlns="http://www.w3.org/2000/svg">
<path d="M114.287 1.82613V2.89201C114.09 3.4941 113.829 3.95101 113.266 4.27727C113.177 4.32923 112.685 4.56762 112.639 4.56762H107.695V20.1386C107.695 20.2142 107.486 20.7567 107.43 20.866C106.684 22.3208 104.481 22.3789 103.648 20.9607C103.565 20.8209 103.326 20.3396 103.326 20.2142V4.56685H86.6925V17.3589H94.8557C95.3248 17.3589 96.0645 17.8701 96.3527 18.2322C97.3407 19.4762 96.6838 21.2228 95.2052 21.6652L84.1247 21.6988C83.1604 21.5315 82.4085 20.7269 82.3203 19.7604V2.31819C82.4253 1.11555 83.2202 0.327791 84.429 0.223877H112.182C113.237 0.306397 113.906 0.87028 114.287 1.82537V1.82613Z" fill="#262262"/>
<path d="M23.2264 0C23.7775 0.185669 24.2183 0.443161 24.5448 0.93675L33.3259 18.8634C34.3499 21.1556 31.5207 23.0742 29.7394 21.2839L22.765 7.15781C22.5657 7.1219 22.6469 7.18608 22.6063 7.26554C20.2562 11.8431 18.1997 16.5857 15.7898 21.1281C14.3503 22.8969 11.5556 21.6774 11.9166 19.4127C12.0186 18.774 12.8004 17.3933 13.1193 16.724C15.6572 11.4099 18.3514 6.16452 20.9116 0.860343C21.2442 0.358349 21.6183 0.216996 22.1533 0L23.2264 0Z" fill="#262262"/>
<path d="M0 1.90177C0.317333 0.942102 1.01332 0.342306 2.04043 0.236101C5.33946 0.391971 8.88148 -0.00305331 12.1529 0.223111C13.738 0.333138 14.9713 1.61525 14.3152 3.21597C14.1106 3.71568 13.249 4.56685 12.6856 4.56685H4.36907V19.9101C4.36907 20.5688 3.79496 21.4192 3.21012 21.7286C1.86184 22.4415 0.466801 21.6721 0 20.3289V1.90177Z" fill="#262262"/>
<path d="M58.2528 4.56852V20.2923C58.2528 20.3343 58.0289 20.8493 57.9799 20.9349C57.2187 22.2629 55.2596 22.3431 54.3574 21.1168C53.5671 20.0432 53.9542 18.1988 53.9649 16.9457C53.9994 12.8205 53.9312 8.69298 53.9611 4.56852H42.8085C40.9305 4.56852 38.7567 6.15244 37.8515 7.71573C35.3006 12.1198 38.4885 17.1207 43.4224 17.4362C44.8136 17.5249 46.7774 17.2299 48.0629 17.4714C50.1638 17.8664 50.1976 21.2665 47.9862 21.6661C46.9192 21.8587 44.0579 21.7723 42.8813 21.7043C38.4317 21.4476 34.4467 18.1277 33.2448 13.9162C31.3086 7.13122 36.1989 0.629743 43.1917 0.22937H62.8119C64.9888 0.307305 65.7407 3.22376 63.8429 4.29728C63.757 4.34618 63.2389 4.56852 63.1959 4.56852H58.252H58.2528Z" fill="#262262"/>
<path d="M70.1205 0.327185C72.4683 0.0635811 75.2147 0.474651 77.6046 0.312668C80.0682 0.790976 79.9409 4.35384 77.3839 4.57312C75.2315 4.75803 72.8209 4.42566 70.6409 4.57542C69.5801 4.82679 69.1547 6.10356 70.1013 6.77747C72.7711 8.92985 76.3445 10.6765 78.9123 12.8732C82.1967 15.6827 79.7332 21.3804 75.545 21.7066C72.7894 21.9213 69.7495 21.5462 66.964 21.6975C64.2943 20.8272 64.7481 17.5768 67.6439 17.3606C69.9342 17.1902 72.4974 17.5501 74.7563 17.421C75.7911 17.3621 76.1291 16.1152 75.4201 15.429L66.4213 9.29202C63.6152 6.13259 66.0304 0.787156 70.1212 0.328713L70.1205 0.327185Z" fill="#262262"/>
<path d="M89.5088 8.54948C90.7014 8.4066 93.1734 8.43029 94.396 8.5258C97.0535 8.73286 96.8404 12.0718 94.6911 12.327C93.5076 12.4676 90.693 12.4485 89.4842 12.3385C87.2537 12.136 87.0498 8.84365 89.5088 8.54948Z" fill="#262262"/>
<path d="M7.26222 8.55067C8.46717 8.42078 10.6939 8.43453 11.918 8.52545C14.7119 8.73175 14.4206 12.0623 12.3687 12.329C11.2273 12.4772 8.26481 12.4451 7.08286 12.3389C4.89449 12.141 4.58253 8.83872 7.26222 8.55067Z" fill="#262262"/>
<path d="M20.9805 14.4856C21.6335 14.3832 23.5789 14.3939 24.258 14.4665C26.034 14.6568 26.6365 17.1247 24.9609 17.9835C24.1308 18.4091 21.2288 18.4236 20.4087 17.985C18.8688 17.1621 19.3003 14.7484 20.9797 14.4856H20.9805Z" fill="#262262"/>
</svg>
