<?xml version="1.0" encoding="utf-8"?>
<!-- Generator: Adobe Illustrator 27.8.1, SVG Export Plug-In . SVG Version: 6.00 Build 0)  -->
<svg version="1.1" id="Layer_1" xmlns="http://www.w3.org/2000/svg" xmlns:xlink="http://www.w3.org/1999/xlink" x="0px" y="0px"
	 viewBox="0 0 231 38" style="enable-background:new 0 0 231 38;" xml:space="preserve">
<style type="text/css">
	.st0{fill:#FFFFFF;}
	.st1{fill-rule:evenodd;clip-rule:evenodd;fill:#5046E5;}
</style>
<rect x="4.7" y="4.9" class="st0" width="18.9" height="18"/>
<path class="st1" d="M2.1,2.2C1.2,2.4,0.4,3,0.1,3.9L0,4.2l0,14.3c0,7.9,0,14.3,0,14.3c0,0,0.3-0.2,0.5-0.6c0.3-0.3,0.5-0.6,0.6-0.7
	c0,0,0.2-0.2,0.3-0.3c0.1-0.2,0.2-0.3,0.3-0.3c0,0,0.1-0.2,0.3-0.3c0.1-0.2,0.4-0.5,0.7-0.8c1-1.2,2.8-3.3,3.1-3.7L6,25.7l10,0
	c11,0,10.2,0,10.8-0.3c0.5-0.2,0.9-0.7,1.1-1.1c0-0.1,0.1-0.2,0.1-0.3c0.1-0.1,0.1-1.7,0.1-9.9c0-10.7,0-10-0.3-10.6
	c-0.3-0.5-0.8-0.9-1.5-1.2L26,2.1l-11.8,0C4.5,2.1,2.3,2.1,2.1,2.2z M16.1,5.7c3.3,0.7,5.7,3.2,6.4,6.5c0.1,0.7,0.2,2.1,0,2.7
	c-0.4,1.9-1.1,3.3-2.4,4.6c-0.5,0.5-0.7,0.7-1.3,1c-1.5,0.9-3.3,1.4-5,1.3c-0.8-0.1-1.8-0.3-2.3-0.5c-1.2-0.5-1.9-1-2.8-1.8
	c-1.4-1.3-2.2-3-2.4-4.9c-0.1-1.2,0-2.5,0.5-3.8C7,10.5,7.5,9.5,7.6,9.3C8.4,8,9.6,7,11,6.3c0.2-0.1,0.5-0.2,0.5-0.2s0.1,0,0.1,0
	c0.2-0.1,1.3-0.4,2-0.5c0.1,0,0.6,0,1.1,0C15.4,5.6,15.7,5.6,16.1,5.7z M11.4,10.6c-0.5,0.1-0.9,0.5-0.9,1.1c0,1.1,1.4,1.5,2,0.6
	c0.2-0.3,0.2-0.8,0.1-1.1C12.3,10.8,11.8,10.5,11.4,10.6z M17.1,10.6c-0.3,0.1-0.5,0.3-0.6,0.5c-0.1,0.2-0.1,0.3-0.1,0.6
	c0,0.3,0,0.4,0.1,0.6c0.4,0.6,1.3,0.7,1.8,0c0.1-0.2,0.2-0.2,0.2-0.5c0-0.4-0.1-0.6-0.3-0.9C17.9,10.6,17.4,10.5,17.1,10.6z
	 M29.3,14.9c0,0,0,2,0,4.4c0,4.7,0,4.6-0.3,5.2c-0.5,1-1.3,1.8-2.4,2.1c-0.3,0.1-0.8,0.1-6,0.1l-5.7,0l0,1.2c0,1.2,0,1.5,0.2,1.8
	c0.1,0.3,0.5,0.7,0.8,0.8l0.3,0.2l6.9,0l6.9,0l0.5,0.6c0.3,0.3,0.8,0.9,1.1,1.4s0.8,1,1,1.2c0.2,0.2,0.6,0.7,0.8,1
	c0.3,0.3,0.5,0.6,0.5,0.6c0,0,0-4.4,0-9.7l0-9.7l-0.1-0.3c-0.2-0.4-0.5-0.7-0.9-0.9l-0.3-0.1l-1.6,0C29.6,14.9,29.3,14.9,29.3,14.9z
	 M9.7,15.7c0,0.1,0.2,0.5,0.5,0.9c0.5,0.7,1.2,1.3,2,1.7c0.5,0.3,0.9,0.4,1.5,0.5c0.4,0.1,1.3,0.1,1.7,0c1.4-0.3,2.5-0.9,3.3-2
	c0.3-0.4,0.7-1.1,0.7-1.2c0,0-2.2,0-4.8,0C10.1,15.6,9.7,15.6,9.7,15.7z"/>
<path class="st0" d="M45.7,29.5v-8.6h9.5v-2.3h-9.5V12h10.5V9.7h-13v19.8H45.7z M70.4,21.9c0-4.5-2.6-7.1-6.4-7.1
	c-4.3,0-6.9,3.3-6.9,7.5c0,4.2,2.6,7.5,6.9,7.5c2.8,0,4.9-1.2,6-3.7l-2.3-0.8c-0.8,1.7-2.1,2.4-3.7,2.4c-2.4,0-4.1-1.8-4.3-4.5h10.6
	C70.4,22.8,70.4,22.3,70.4,21.9z M64,16.9c2.2,0,3.7,1.5,4,4.2h-8.2C60.1,18.5,61.7,16.9,64,16.9z M85.1,21.9c0-4.5-2.6-7.1-6.4-7.1
	c-4.3,0-6.9,3.3-6.9,7.5c0,4.2,2.6,7.5,6.9,7.5c2.8,0,4.9-1.2,6-3.7l-2.3-0.8c-0.8,1.7-2.1,2.4-3.7,2.4c-2.4,0-4.1-1.8-4.3-4.5H85
	C85.1,22.8,85.1,22.3,85.1,21.9z M78.7,16.9c2.2,0,3.7,1.5,4,4.2h-8.2C74.8,18.5,76.4,16.9,78.7,16.9z M92.6,29.8
	c2.1,0,3.7-1,4.7-2.7h0.2l0.3,2.4h2.4c-0.1-2.6-0.1-5.1-0.1-7.7V9.7h-2.5v7.8h-0.2c-1-1.7-2.6-2.7-4.7-2.7c-3.7,0-6.1,3-6.1,7.5
	C86.5,26.8,88.9,29.8,92.6,29.8z M93.3,27.5c-2.6,0-4.2-2-4.2-5.2s1.7-5.3,4.2-5.3c2.6,0,4.2,2.1,4.2,5.3S95.9,27.5,93.3,27.5z
	 M110.4,29.8c3.7,0,6.1-3,6.1-7.5c0-4.5-2.4-7.5-6.1-7.5c-2.1,0-3.7,1-4.7,2.7h-0.2V9.7h-2.5v12.1c0,2.6,0,5.1-0.1,7.7h2.4l0.3-2.4
	h0.2C106.6,28.8,108.2,29.8,110.4,29.8z M109.7,27.5c-2.6,0-4.2-2-4.2-5.2s1.7-5.3,4.2-5.3c2.6,0,4.2,2.1,4.2,5.3
	S112.3,27.5,109.7,27.5z M130,19.9c0-3.2-2.2-5.1-5.9-5.1c-3,0-5.4,1.4-6.1,4.1l2.2,0.8c0.6-1.8,1.9-2.8,3.9-2.8
	c1.9,0,3.4,0.9,3.4,3v0.7l-3.6,0.2c-4.1,0.2-6.1,1.9-6.1,4.7c0,2.5,1.9,4.2,4.7,4.2c2.3,0,4-1.1,4.9-2.9h0.2l0.3,2.6h2.1
	c-0.1-2.6-0.1-5.1-0.1-7.7V19.9z M123,27.6c-1.6,0-2.7-0.8-2.7-2.1c0-1.7,1.5-2.4,4-2.5l3.2-0.2C127.5,25.5,125.5,27.6,123,27.6z
	 M139,29.8c2.8,0,5.3-1.4,6.2-4.4l-2.4-0.9c-0.8,2.1-2.2,3-3.8,3c-2.6,0-4.4-2.1-4.4-5.2s1.8-5.2,4.4-5.2c1.7,0,2.9,0.9,3.7,3
	l2.4-0.9c-0.9-3-3.3-4.4-6.1-4.4c-4.3,0-6.9,3.3-6.9,7.5C132,26.5,134.7,29.8,139,29.8z M149.7,29.5v-7.2l6.5,7.2h3.4l-6.9-7.6
	l6.8-6.8h-3.3l-6.4,6.9V9.7h-2.5v19.8H149.7z"/>
<path class="st0" d="M172.5,29.8c5.5,0,8.3-2.5,8.3-5.7c0-8.3-11-5.6-11-8.9c0-0.9,0.9-1.6,2.2-1.6c1.4,0,2.5,0.6,2.9,2l5.5-1.1
	c-1-3.5-4-5.1-8.4-5.1c-5.1,0-7.9,2.5-7.9,5.7c0,8.1,11,5.5,11,8.8c0,1-0.9,1.7-2.5,1.7c-1.6,0-2.9-0.6-3.6-2.3l-5.4,1.1
	C164.5,28.1,168.3,29.8,172.5,29.8z M190.2,35.2l7-20.1h-5.5l-2.5,9.5h-0.3l-2.5-9.5h-5.6l5.3,15.3l-1.8,4.8H190.2z M203.5,29.5
	v-6.9c0-1.9,0.9-3.1,2.5-3.1c1.3,0,2.1,0.9,2.1,2.5v7.5h5.5v-9c0-3.7-1.8-5.7-4.9-5.7c-2,0-3.6,0.8-4.9,2.5h-0.3l-0.3-2.3h-5.3
	c0.1,2.6,0.1,5.1,0.1,7.7v6.7H203.5z M222.4,29.8c3.8,0,6.4-1.8,7.3-5.1l-5.3-1.1c-0.3,1.2-1,1.9-2.1,1.9c-1.3,0-2.1-1.2-2.1-3.2
	c0-2,0.8-3.2,2.1-3.2c1,0,1.7,0.7,1.9,1.9l5.3-1.1c-0.8-3.3-3.3-5.1-7.1-5.1c-5.2,0-7.7,3.3-7.7,7.5
	C214.6,26.5,217.2,29.8,222.4,29.8z"/>
</svg>
