<svg width="186" height="45" viewBox="0 0 186 45" fill="none" xmlns="http://www.w3.org/2000/svg">
<g id="Layer_1" clip-path="url(#clip0_2366_1599)">
<path id="Vector" d="M38.6634 12.8995V31.3858C38.6634 32.3869 38.1222 33.3159 37.2486 33.8164L21.1705 43.0596C20.2969 43.5601 19.2188 43.5601 18.3452 43.0596L2.26281 33.8164C1.39349 33.3159 0.852295 32.3869 0.852295 31.3858V12.8995C0.852295 11.8984 1.39349 10.9651 2.26281 10.4646L18.3452 1.22568C18.7799 0.975402 19.2699 0.848145 19.7557 0.848145C20.2415 0.848145 20.7358 0.975402 21.1705 1.22568L37.2486 10.4646C38.1222 10.9651 38.6634 11.8984 38.6634 12.8995Z" fill="#61B973"/>
<path id="Vector_2" d="M37.6747 9.73138L21.5966 0.488226C20.4631 -0.160789 19.0526 -0.160789 17.919 0.488226L1.83665 9.73138C0.707386 10.3846 0 11.5978 0 12.9001V31.3864C0 32.6887 0.707386 33.9019 1.83665 34.5551L17.919 43.7941C18.4858 44.1207 19.1207 44.2861 19.7557 44.2861C20.3906 44.2861 21.0298 44.1207 21.5966 43.7941L37.6747 34.5551C38.8082 33.9019 39.5156 32.6887 39.5156 31.3864V12.9001C39.5156 11.5978 38.8082 10.3846 37.6747 9.73138ZM38.6634 31.3864C38.6634 32.3875 38.1222 33.3165 37.2486 33.817L21.1705 43.0602C20.2969 43.5607 19.2187 43.5607 18.3452 43.0602L2.26278 33.817C1.39347 33.3165 0.852273 32.3875 0.852273 31.3864V12.9001C0.852273 11.899 1.39347 10.9658 2.26278 10.4652L18.3452 1.22632C18.7798 0.976048 19.2699 0.84879 19.7557 0.84879C20.2415 0.84879 20.7358 0.976048 21.1705 1.22632L37.2486 10.4652C38.1222 10.9658 38.6634 11.899 38.6634 12.9001V31.3864Z" fill="#262262"/>
<path id="Vector_3" d="M29.821 17.9348C27.9204 17.9348 26.3522 19.3643 26.1392 21.2011H22.8409C22.6448 19.5043 21.2897 18.1596 19.5852 17.9603V14.8594C21.4303 14.6473 22.8664 13.0863 22.8664 11.1944C22.8664 9.15826 21.2045 7.50391 19.159 7.50391C17.1136 7.50391 15.4516 9.15826 15.4516 11.1944C15.4516 13.0863 16.8877 14.6473 18.7329 14.8594V17.9603C16.8877 18.1724 15.4516 19.7334 15.4516 21.6253C15.4516 22.5458 15.7968 23.3899 16.3593 24.0347L14.0624 27.1228C13.517 26.8089 12.8863 26.6265 12.2173 26.6265C10.1718 26.6265 8.50989 28.2809 8.50989 30.317C8.50989 32.3531 10.1718 34.0075 12.2173 34.0075C14.2627 34.0075 15.9247 32.3531 15.9247 30.317C15.9247 29.2565 15.4687 28.3021 14.7485 27.6276L16.9943 24.6116C17.6036 25.0528 18.3536 25.3158 19.159 25.3158C19.5937 25.3158 20.0113 25.2352 20.3991 25.0994L21.7968 28.2384C20.7059 28.8832 19.9687 30.0625 19.9687 31.4114C19.9687 33.4475 21.6306 35.1019 23.6761 35.1019C25.7215 35.1019 27.3835 33.4475 27.3835 31.4114C27.3835 29.3753 25.7215 27.7209 23.6761 27.7209C23.2926 27.7209 22.9218 27.7803 22.5724 27.8864L21.1619 24.7219C22.0695 24.1365 22.7088 23.1693 22.8366 22.0452H26.1349C26.348 23.882 27.9161 25.3115 29.8167 25.3115C31.8622 25.3115 33.5241 23.6572 33.5241 21.621C33.5241 19.5849 31.8622 17.9306 29.8167 17.9306L29.821 17.9348ZM15.0767 30.3127C15.0767 31.878 13.7982 33.1548 12.2215 33.1548C10.6448 33.1548 9.36642 31.8823 9.36642 30.3127C9.36642 28.7432 10.6448 27.4707 12.2215 27.4707C13.7982 27.4707 15.0767 28.7432 15.0767 30.3127ZM26.5355 31.4072C26.5355 32.9724 25.257 34.2493 23.6803 34.2493C22.1036 34.2493 20.8252 32.9767 20.8252 31.4072C20.8252 29.8377 22.1036 28.5651 23.6803 28.5651C25.257 28.5651 26.5355 29.8377 26.5355 31.4072ZM16.3082 11.1944C16.3082 9.62911 17.5866 8.35229 19.1633 8.35229C20.74 8.35229 22.0184 9.62487 22.0184 11.1944C22.0184 12.7639 20.74 14.0365 19.1633 14.0365C17.5866 14.0365 16.3082 12.7639 16.3082 11.1944ZM19.1633 24.4631C17.5909 24.4631 16.3082 23.1906 16.3082 21.621C16.3082 20.0515 17.5866 18.7789 19.1633 18.7789C20.74 18.7789 22.0184 20.0515 22.0184 21.621C22.0184 23.1906 20.74 24.4631 19.1633 24.4631ZM29.821 24.4631C28.2485 24.4631 26.9659 23.1906 26.9659 21.621C26.9659 20.0515 28.2443 18.7789 29.821 18.7789C31.3977 18.7789 32.6761 20.0515 32.6761 21.621C32.6761 23.1906 31.3977 24.4631 29.821 24.4631Z" fill="#1B1464"/>
<path id="Vector_4" d="M111.017 1.32764H83.8082C83.5738 1.32764 83.3821 1.51852 83.3821 1.75183V36.4253C83.3821 36.6629 83.5738 36.8495 83.8082 36.8495H111.017C111.251 36.8495 111.443 36.6629 111.443 36.4253V1.75183C111.443 1.51852 111.251 1.32764 111.017 1.32764ZM110.591 36.0012H84.2344V2.17602H110.591V36.0012Z" fill="#262262"/>
<path id="Vector_5" d="M110.591 2.17627H84.2344V36.0014H110.591V2.17627Z" fill="white"/>
<path id="Vector_6" d="M107.557 5.20068H81.2002V39.0258H107.557V5.20068Z" fill="white"/>
<path id="Vector_7" d="M107.983 4.35205H80.774C80.5397 4.35205 80.3479 4.54294 80.3479 4.77624V39.4498C80.3479 39.6831 80.5397 39.8739 80.774 39.8739H107.983C108.217 39.8739 108.409 39.6831 108.409 39.4498V4.77624C108.409 4.54294 108.217 4.35205 107.983 4.35205ZM107.557 39.0256H81.2002V5.20044H107.557V39.0256Z" fill="#1B1464"/>
<path id="Vector_8" d="M104.842 7.43604H77.6378C77.4034 7.43604 77.2117 7.62268 77.2117 7.86023V42.5337C77.2117 42.767 77.4034 42.9579 77.6378 42.9579H104.842C105.081 42.9579 105.268 42.767 105.268 42.5337V7.86023C105.268 7.62268 105.081 7.43604 104.842 7.43604ZM104.416 42.1095H78.0639V8.28442H104.416V42.1095Z" fill="#1B1464"/>
<path id="Vector_9" d="M104.416 8.28467H78.064V42.1098H104.416V8.28467Z" fill="white"/>
<path id="Vector_10" d="M100.602 19.5129H81.8822C81.6478 19.5129 81.4561 19.322 81.4561 19.0887C81.4561 18.8554 81.6478 18.6646 81.8822 18.6646H100.602C100.837 18.6646 101.029 18.8554 101.029 19.0887C101.029 19.322 100.837 19.5129 100.602 19.5129Z" fill="#262262"/>
<path id="Vector_11" d="M100.602 22.5374H81.8822C81.6478 22.5374 81.4561 22.3465 81.4561 22.1132C81.4561 21.8799 81.6478 21.689 81.8822 21.689H100.602C100.837 21.689 101.029 21.8799 101.029 22.1132C101.029 22.3465 100.837 22.5374 100.602 22.5374Z" fill="#262262"/>
<path id="Vector_12" d="M100.602 25.5618H81.8822C81.6478 25.5618 81.4561 25.3709 81.4561 25.1376C81.4561 24.9043 81.6478 24.7134 81.8822 24.7134H100.602C100.837 24.7134 101.029 24.9043 101.029 25.1376C101.029 25.3709 100.837 25.5618 100.602 25.5618Z" fill="#262262"/>
<path id="Vector_13" d="M100.602 28.5823H81.8822C81.6478 28.5823 81.4561 28.3914 81.4561 28.1581C81.4561 27.9248 81.6478 27.7339 81.8822 27.7339H100.602C100.837 27.7339 101.029 27.9248 101.029 28.1581C101.029 28.3914 100.837 28.5823 100.602 28.5823Z" fill="#262262"/>
<path id="Vector_14" d="M100.602 34.012H81.8822C81.6478 34.012 81.4561 33.8211 81.4561 33.5878C81.4561 33.3545 81.6478 33.1636 81.8822 33.1636H100.602C100.837 33.1636 101.029 33.3545 101.029 33.5878C101.029 33.8211 100.837 34.012 100.602 34.012Z" fill="#262262"/>
<path id="Vector_15" d="M86.8595 37.0276H81.8822C81.6478 37.0276 81.4561 36.8367 81.4561 36.6034C81.4561 36.3701 81.6478 36.1792 81.8822 36.1792H86.8595C87.0938 36.1792 87.2856 36.3701 87.2856 36.6034C87.2856 36.8367 87.0938 37.0276 86.8595 37.0276Z" fill="#262262"/>
<path id="Vector_16" d="M85.0441 12.501H81.8779V16.1575H85.0441V12.501Z" fill="#61BD73"/>
<path id="Vector_17" d="M149.335 21.7188H111.013V22.5671H149.335V21.7188Z" fill="#1B1464"/>
<path id="Vector_18" d="M77.5909 21.7188H39.2684V22.5671H77.5909V21.7188Z" fill="#1B1464"/>
<path id="Vector_19" d="M149.109 12.5093V18.0111C149.25 18.028 149.391 18.0365 149.536 18.0365C149.68 18.0365 149.821 18.028 149.962 18.0111V12.5093H149.109Z" fill="#1B1464"/>
<path id="Vector_20" d="M168.839 20.4079L168.661 20.497L169.04 21.2563L169.159 21.1969C169.082 20.9212 168.976 20.654 168.839 20.4079ZM165.614 18.4863C165.469 18.4863 165.328 18.4948 165.188 18.5118V25.774C165.328 25.7909 165.469 25.7994 165.614 25.7994C165.759 25.7994 165.899 25.7909 166.04 25.774V18.5118C165.899 18.4948 165.759 18.4863 165.614 18.4863Z" fill="#1B1464"/>
<path id="Vector_21" d="M169.125 38.1262L169.04 38.1686L168.66 37.4093L168.788 37.3457C168.929 37.5875 169.044 37.8505 169.125 38.1262Z" fill="#1B1464"/>
<path id="Vector_22" d="M178.334 33.3076C178.236 33.1421 178.146 32.9724 178.078 32.79L178.334 33.3076Z" fill="#1B1464"/>
<path id="Vector_23" d="M166.04 35.5474V40.2432H165.188V35.5474C165.328 35.5305 165.469 35.522 165.614 35.522C165.759 35.522 165.899 35.5305 166.04 35.5474Z" fill="#1B1464"/>
<path id="Vector_24" d="M181.901 26.9322V18.8683C184.198 18.6519 186 16.7219 186 14.3803C186 11.8988 183.972 9.87963 181.474 9.87963C180.388 9.87963 179.395 10.2614 178.615 10.8977L169.896 6.55396C170.05 6.10008 170.135 5.61225 170.135 5.10747C170.135 2.62594 168.107 0.602539 165.614 0.602539C163.121 0.602539 161.088 2.62594 161.088 5.10747C161.088 5.70982 161.207 6.28672 161.425 6.81272L152.689 11.1607C151.875 10.3675 150.759 9.87963 149.536 9.87963C147.038 9.87963 145.01 11.8988 145.01 14.3803C145.01 16.7219 146.813 18.6519 149.109 18.8683V26.9322C146.813 27.1485 145.01 29.0786 145.01 31.4159C145.01 33.8974 147.038 35.9208 149.536 35.9208C150.972 35.9208 152.254 35.2506 153.081 34.2071L161.186 38.2454C161.122 38.5466 161.088 38.8605 161.088 39.1786C161.088 41.6602 163.117 43.6793 165.614 43.6793C168.111 43.6793 170.135 41.6602 170.135 39.1786C170.135 38.6781 170.054 38.1903 169.901 37.7406L177.682 33.8635C178.487 35.1021 179.889 35.9208 181.474 35.9208C183.972 35.9208 186 33.8974 186 31.4159C186 29.0786 184.198 27.1485 181.901 26.9322ZM181.474 10.728C183.499 10.728 185.148 12.3654 185.148 14.3803C185.148 16.251 183.724 17.7993 181.901 18.0114C181.76 18.0284 181.619 18.0369 181.474 18.0369C181.33 18.0369 181.189 18.0284 181.048 18.0114C179.365 17.8163 178.027 16.4801 177.831 14.8045C177.814 14.6645 177.805 14.5245 177.805 14.3803C177.805 14.2361 177.814 14.0961 177.831 13.9561C178.04 12.1406 179.595 10.728 181.474 10.728ZM152.604 28.1157C151.896 27.4624 150.976 27.0297 149.962 26.9322V18.8683C151.185 18.7537 152.267 18.1514 153.013 17.2606L161.165 21.3201C161.114 21.5874 161.088 21.8631 161.088 22.143C161.088 22.7072 161.195 23.2502 161.382 23.7465L152.604 28.1157ZM152.808 28.9598L152.787 28.9725L152.732 28.8665C152.757 28.8962 152.783 28.9259 152.808 28.9598ZM153.499 16.5522C153.788 16.0262 153.98 15.4323 154.04 14.8045H165.188V17.6551C163.466 17.8163 162.017 18.9489 161.403 20.4887L153.499 16.5522ZM161.761 24.5016C162.486 25.6766 163.739 26.4953 165.188 26.631V30.9917H154.04C153.959 30.1645 153.656 29.4052 153.192 28.7689L161.761 24.5016ZM161.94 22.143C161.94 21.7061 162.017 21.2904 162.162 20.9002C162.162 20.8959 162.162 20.8917 162.166 20.8874C162.166 20.8832 162.166 20.879 162.171 20.8747C162.639 19.6106 163.798 18.6731 165.188 18.512C165.328 18.495 165.469 18.4865 165.614 18.4865C165.759 18.4865 165.899 18.495 166.04 18.512C167.25 18.6519 168.286 19.3815 168.84 20.4081C168.976 20.6541 169.082 20.9214 169.159 21.1971C169.24 21.4983 169.283 21.8164 169.283 22.143C169.283 24.0137 167.864 25.562 166.04 25.7741C165.899 25.7911 165.759 25.7996 165.614 25.7996C165.469 25.7996 165.328 25.7911 165.188 25.7741C163.364 25.562 161.94 24.0137 161.94 22.143ZM166.04 17.6551V14.8045H176.97C177.017 15.2881 177.141 15.7505 177.332 16.1789L169.607 20.0263C168.908 18.7283 167.587 17.8036 166.04 17.6551ZM169.93 20.8111L177.742 16.9255C178.483 17.9987 179.676 18.7368 181.048 18.8683V26.9322C180.175 27.017 179.374 27.3479 178.713 27.8569L169.93 23.4835C170.063 23.0635 170.135 22.6097 170.135 22.143C170.135 21.6764 170.063 21.231 169.93 20.8111ZM177.98 11.5255C177.422 12.2 177.06 13.0356 176.97 13.9561H166.04V9.59542C167.544 9.4512 168.835 8.57312 169.547 7.32599L177.98 11.5255ZM165.614 1.45092C167.638 1.45092 169.283 3.09255 169.283 5.10747C169.283 7.12238 167.638 8.76401 165.614 8.76401C163.59 8.76401 161.94 7.12238 161.94 5.10747C161.94 3.09255 163.59 1.45092 165.614 1.45092ZM161.821 7.56354C162.558 8.68341 163.781 9.45968 165.188 9.59542V13.9561H154.04C153.963 13.1671 153.686 12.4418 153.256 11.8267L161.821 7.56354ZM145.862 14.3803C145.862 12.3654 147.511 10.728 149.536 10.728C151.56 10.728 153.205 12.3654 153.205 14.3803C153.205 16.251 151.786 17.7993 149.962 18.0114C149.821 18.0284 149.68 18.0369 149.536 18.0369C149.391 18.0369 149.25 18.0284 149.109 18.0114C147.286 17.7993 145.862 16.251 145.862 14.3803ZM149.536 35.0724C147.511 35.0724 145.862 33.4308 145.862 31.4159C145.862 29.5452 147.286 27.9969 149.109 27.7891C149.25 27.7721 149.391 27.7636 149.536 27.7636C149.68 27.7636 149.821 27.7721 149.962 27.7891C151.786 27.9969 153.205 29.5452 153.205 31.4159C153.205 33.4308 151.56 35.0724 149.536 35.0724ZM153.546 33.4902C153.81 32.9897 153.98 32.4297 154.04 31.8401H165.188V34.6907C163.5 34.8519 162.081 35.9293 161.442 37.4225L153.546 33.4902ZM165.614 42.8309C163.59 42.8309 161.94 41.1935 161.94 39.1786C161.94 37.3079 163.364 35.7596 165.188 35.5475C165.328 35.5306 165.469 35.5221 165.614 35.5221C165.759 35.5221 165.899 35.5306 166.04 35.5475C167.212 35.6833 168.217 36.3705 168.788 37.3461C168.929 37.5879 169.044 37.8509 169.125 38.1266C169.227 38.4617 169.283 38.8138 169.283 39.1786C169.283 41.1935 167.638 42.8309 165.614 42.8309ZM169.551 36.9643C168.84 35.713 167.548 34.8349 166.04 34.6907V31.8401H176.97C177.017 32.2855 177.124 32.7139 177.29 33.1127L169.551 36.9643ZM176.97 30.9917H166.04V26.631C167.582 26.4825 168.899 25.562 169.602 24.2682L178.053 28.4762C177.456 29.1634 177.064 30.033 176.97 30.9917ZM181.474 35.0724C180.153 35.0724 178.99 34.3725 178.342 33.3205C178.342 33.3163 178.338 33.312 178.334 33.3078C178.236 33.1424 178.146 32.9727 178.078 32.7903C178.074 32.7818 178.07 32.7776 178.065 32.7691C177.946 32.4764 177.869 32.1625 177.831 31.8401C177.814 31.7001 177.805 31.5601 177.805 31.4159C177.805 31.2717 177.814 31.1317 177.831 30.9917C178.027 29.3161 179.365 27.9842 181.048 27.7891C181.189 27.7721 181.33 27.7636 181.474 27.7636C181.619 27.7636 181.76 27.7721 181.901 27.7891C183.724 27.9969 185.148 29.5452 185.148 31.4159C185.148 33.4308 183.499 35.0724 181.474 35.0724Z" fill="#1B1464"/>
<path id="Vector_25" d="M162.176 20.8745L162.166 20.8883C162.166 20.8883 162.166 20.8791 162.171 20.8745H162.176Z" fill="#1B1464"/>
<path id="Vector_26" d="M149.962 27.7886V30.6604H149.109V27.7886C149.25 27.7717 149.391 27.7632 149.536 27.7632C149.68 27.7632 149.821 27.7717 149.962 27.7886Z" fill="#1B1464"/>
<path id="Vector_27" d="M181.901 12.5093V18.0111C181.76 18.028 181.619 18.0365 181.474 18.0365C181.33 18.0365 181.189 18.028 181.048 18.0111V12.5093H181.901Z" fill="#1B1464"/>
<path id="Vector_28" d="M181.901 27.7886V31.3222H181.048V27.7886C181.189 27.7717 181.33 27.7632 181.474 27.7632C181.619 27.7632 181.76 27.7717 181.901 27.7886Z" fill="#1B1464"/>
<path id="Vector_29" d="M153.205 14.3803C153.205 16.251 151.786 17.7993 149.962 18.0114C149.821 18.0284 149.68 18.0369 149.536 18.0369C149.391 18.0369 149.25 18.0284 149.109 18.0114C147.286 17.7993 145.862 16.251 145.862 14.3803C145.862 12.3654 147.511 10.728 149.536 10.728C151.56 10.728 153.205 12.3654 153.205 14.3803Z" fill="#61BD73"/>
<path id="Vector_30" d="M153.205 31.4155C153.205 33.4304 151.56 35.072 149.536 35.072C147.511 35.072 145.862 33.4304 145.862 31.4155C145.862 29.5448 147.286 27.9965 149.109 27.7886C149.25 27.7717 149.391 27.7632 149.536 27.7632C149.68 27.7632 149.821 27.7717 149.962 27.7886C151.786 27.9965 153.205 29.5448 153.205 31.4155Z" fill="#61BD73"/>
<path id="Vector_31" d="M152.809 28.9605L152.787 28.9734L152.731 28.8662C152.757 28.8962 152.783 28.9262 152.809 28.9605Z" fill="#61BD73"/>
<path id="Vector_32" d="M152.731 28.8662L152.787 28.9734L152.809 28.9605C152.783 28.9262 152.757 28.8962 152.731 28.8662Z" fill="#1B1464"/>
<path id="Vector_33" d="M177.831 13.9561V14.8044C177.814 14.6645 177.805 14.5245 177.805 14.3802C177.805 14.236 177.814 14.096 177.831 13.9561Z" fill="#1B1464"/>
<path id="Vector_34" d="M178.138 30.9917V31.8401H177.831C177.814 31.7001 177.805 31.5601 177.805 31.4159C177.805 31.2717 177.814 31.1317 177.831 30.9917H178.138Z" fill="#1B1464"/>
<path id="Vector_35" d="M152.809 28.9605L152.787 28.9734L152.731 28.8662C152.757 28.8962 152.783 28.9262 152.809 28.9605Z" fill="#1B1464"/>
<path id="Vector_36" d="M185.148 14.3803C185.148 16.251 183.724 17.7993 181.901 18.0114C181.76 18.0284 181.619 18.0369 181.474 18.0369C181.33 18.0369 181.189 18.0284 181.048 18.0114C179.365 17.8163 178.027 16.4801 177.831 14.8045C177.814 14.6645 177.805 14.5246 177.805 14.3803C177.805 14.2361 177.814 14.0961 177.831 13.9561C178.04 12.1406 179.595 10.728 181.474 10.728C183.499 10.728 185.148 12.3654 185.148 14.3803Z" fill="#61BD73"/>
<path id="Vector_37" d="M185.148 31.4155C185.148 33.4304 183.499 35.072 181.474 35.072C180.153 35.072 178.99 34.3721 178.342 33.3201C178.342 33.3159 178.338 33.3116 178.334 33.3074C178.236 33.1419 178.146 32.9723 178.078 32.7899C178.074 32.7814 178.07 32.7771 178.065 32.7687C177.946 32.476 177.869 32.1621 177.831 31.8397C177.814 31.6997 177.805 31.5597 177.805 31.4155C177.805 31.2713 177.814 31.1313 177.831 30.9913C178.027 29.3157 179.365 27.9838 181.048 27.7886C181.189 27.7717 181.33 27.7632 181.474 27.7632C181.619 27.7632 181.76 27.7717 181.901 27.7886C183.724 27.9965 185.148 29.5448 185.148 31.4155Z" fill="#61BD73"/>
<path id="Vector_38" d="M169.283 5.10722C169.283 7.12214 167.638 8.76377 165.614 8.76377C163.59 8.76377 161.94 7.12214 161.94 5.10722C161.94 3.09231 163.59 1.45068 165.614 1.45068C167.638 1.45068 169.283 3.09231 169.283 5.10722Z" fill="#61BD73"/>
<path id="Vector_39" d="M169.283 39.1785C169.283 41.1934 167.638 42.8308 165.614 42.8308C163.59 42.8308 161.94 41.1934 161.94 39.1785C161.94 37.3078 163.364 35.7595 165.188 35.5474C165.328 35.5305 165.469 35.522 165.614 35.522C165.759 35.522 165.899 35.5305 166.04 35.5474C167.212 35.6832 168.217 36.3704 168.788 37.346C168.929 37.5878 169.044 37.8508 169.125 38.1265C169.227 38.4616 169.283 38.8137 169.283 39.1785Z" fill="#61BD73"/>
<path id="Vector_40" d="M169.283 22.1429C169.283 24.0136 167.864 25.5619 166.04 25.774C165.899 25.7909 165.759 25.7994 165.614 25.7994C165.469 25.7994 165.328 25.7909 165.188 25.774C163.364 25.5619 161.94 24.0136 161.94 22.1429C161.94 21.706 162.017 21.2902 162.162 20.9C162.162 20.8957 162.162 20.8915 162.166 20.8873C162.166 20.883 162.166 20.8788 162.171 20.8745C162.639 19.6104 163.798 18.673 165.188 18.5118C165.328 18.4948 165.469 18.4863 165.614 18.4863C165.759 18.4863 165.899 18.4948 166.04 18.5118C167.25 18.6518 168.286 19.3814 168.84 20.4079C168.976 20.654 169.082 20.9212 169.159 21.1969C169.24 21.4981 169.283 21.8162 169.283 22.1429Z" fill="#61BD73"/>
</g>
<defs>
<clipPath id="clip0_2366_1599">
<rect width="186" height="44.2857" fill="white"/>
</clipPath>
</defs>
</svg>
