<svg width="232" height="24" viewBox="0 0 232 24" fill="none" xmlns="http://www.w3.org/2000/svg">
<path d="M222.287 0.469727L226.683 12.032H224.076L223.32 10.0634L218.264 10.0198L217.328 12.032H214.72L219.117 0.469727H222.287ZM222.593 7.87364L220.652 2.80247L218.81 7.87364H222.593Z" fill="#F7F9FD"/>
<path d="M232 0.469727V11.9306C231.256 12.1639 230.342 11.9691 229.545 12.033V0.469727H232Z" fill="#F7F9FD"/>
<path d="M115.336 0.469764C115.476 0.647255 115.826 0.568145 116.051 0.571188C118.84 0.6148 121.587 1.69395 123.672 3.51145L123.667 3.91411L121.097 7.15256C119.063 5.48516 115.123 3.93743 112.575 5.08453C111.271 5.67177 110.608 7.35439 111.866 8.32197C113.179 9.33215 116.665 9.76016 118.378 10.2805C121.299 11.1659 124.069 12.669 124.336 16.0342C124.728 20.9421 121.042 23.644 116.459 23.8986C116.2 23.9128 115.815 23.8104 115.641 24H114.721C114.635 23.8377 114.373 23.9016 114.21 23.8986C111.063 23.8469 107.604 22.7008 105.515 20.2981L108.129 16.6975C109.112 17.5485 109.997 18.2818 111.208 18.8132C113.126 19.655 118.562 20.5942 119.274 17.8162C119.809 15.7279 117.778 15.1366 116.206 14.667C112.873 13.6741 107.675 13.2978 106.469 9.31491C104.977 4.39181 109.156 0.812576 113.802 0.570173C113.952 0.56206 114.092 0.597558 114.211 0.46875H115.336V0.469764Z" fill="#F7F9FD"/>
<path d="M116.46 23.8989V24.0003H115.642C115.816 23.8106 116.2 23.9131 116.46 23.8989Z" fill="#ED8985"/>
<path d="M116.051 0.469727V0.57115C115.826 0.568107 115.475 0.647218 115.335 0.469727H116.051Z" fill="#ED8985"/>
<path d="M114.722 24H114.211V23.8986C114.375 23.9016 114.636 23.8377 114.722 24Z" fill="#ED8985"/>
<path d="M114.211 0.469727C114.093 0.598534 113.953 0.563036 113.802 0.57115V0.469727H114.211Z" fill="#ED8985"/>
<path d="M152.043 0.875V5.13479H145.396V23.5939H140.54L140.386 23.4417V5.13479H133.74V0.875H152.043Z" fill="#F7F9FD"/>
<path d="M80.1622 0.875L90.4596 15.2498L90.6937 15.3786V0.875H95.6016V23.5939H90.8471L80.2481 8.75155L79.9577 8.58319V23.5939H75.0498V0.875H80.1622Z" fill="#F7F9FD"/>
<path d="M49.4879 0.875V5.03336H38.2917L38.1384 5.1855V9.90169H49.13L49.2834 10.0538V14.0093L49.13 14.1615H38.2917L38.1384 14.3136V23.5939H33.3838L33.2305 23.4417V0.875H49.4879Z" fill="#F7F9FD"/>
<path d="M64.6203 0.875H59.7124V23.5939H64.6203V0.875Z" fill="#F7F9FD"/>
<path d="M22.5967 0.875H0V7.26468H22.5967V0.875Z" fill="#F7F9FD"/>
<path d="M14.5192 8.88867H0V15.2784H14.5192V8.88867Z" fill="#F7F9FD"/>
<path d="M6.4416 16.9004H0V23.2901H6.4416V16.9004Z" fill="#F7F9FD"/>
<path d="M11.2769 23.2406C13.0433 23.2406 14.4752 21.8202 14.4752 20.068C14.4752 18.3159 13.0433 16.8955 11.2769 16.8955C9.51054 16.8955 8.07861 18.3159 8.07861 20.068C8.07861 21.8202 9.51054 23.2406 11.2769 23.2406Z" fill="#ED8985"/>
<path d="M19.3482 23.2424C21.114 23.2424 22.5454 21.8225 22.5454 20.0709C22.5454 18.3193 21.114 16.8994 19.3482 16.8994C17.5824 16.8994 16.1509 18.3193 16.1509 20.0709C16.1509 21.8225 17.5824 23.2424 19.3482 23.2424Z" fill="#ED8985"/>
<path d="M19.3472 15.2337C21.113 15.2337 22.5445 13.8137 22.5445 12.0621C22.5445 10.3106 21.113 8.89062 19.3472 8.89062C17.5814 8.89062 16.1499 10.3106 16.1499 12.0621C16.1499 13.8137 17.5814 15.2337 19.3472 15.2337Z" fill="#ED8985"/>
<path d="M167.38 5.03336V9.90169H178.422V14.1615H167.38V19.3341H178.576L178.729 19.4862V23.4417L178.576 23.5939H162.472V0.875H178.576L178.729 1.02714V4.88123L178.576 5.03336H167.38Z" fill="#F7F9FD"/>
<path d="M200.763 0.875C201.42 0.937883 202.545 1.27359 203.162 1.53831C208.951 4.01913 208.701 13.4089 202.346 14.9242L207.357 23.5949H201.887L197.286 15.481H193.758V23.5949H188.851V0.875H200.762H200.763ZM193.759 11.2202H199.741C199.979 11.2202 201.039 10.6745 201.259 10.495C202.866 9.18868 202.529 6.3681 200.649 5.45123C200.488 5.37313 199.54 5.03336 199.434 5.03336H193.759V11.2202Z" fill="#F7F9FD"/>
</svg>
