<svg width="184" height="20" viewBox="0 0 184 20" fill="none" xmlns="http://www.w3.org/2000/svg">
<path d="M176.296 0.717773L179.783 9.98919H177.715L177.116 8.41061L173.106 8.37564L172.363 9.98919H170.295L173.782 0.717773H176.296ZM176.54 6.65473L175 2.58832L173.539 6.65473H176.54Z" fill="#103736"/>
<path d="M184 0.717773V9.90786C183.41 10.0949 182.686 9.93876 182.053 9.99V0.717773H184Z" fill="#103736"/>
<path d="M91.4728 0.718098C91.5839 0.860423 91.8621 0.796987 92.0405 0.799427C94.2519 0.834398 96.4308 1.69973 98.0843 3.15713L98.0803 3.48L96.0424 6.07681C94.4295 4.73978 91.3041 3.49871 89.2833 4.41853C88.2494 4.88942 87.7231 6.23866 88.7213 7.01453C89.7626 7.82456 92.527 8.16776 93.8861 8.58497C96.2022 9.29497 98.399 10.5003 98.6114 13.1987C98.922 17.1342 95.9986 19.3008 92.364 19.5049C92.1581 19.5163 91.8531 19.4342 91.7153 19.5862H90.9855C90.9173 19.4561 90.7097 19.5073 90.58 19.5049C88.0839 19.4634 85.3406 18.5444 83.6838 16.6178L85.7574 13.7306C86.5367 14.413 87.239 15.001 88.1991 15.4271C89.7204 16.1021 94.0321 16.8552 94.5965 14.6277C95.0206 12.9531 93.4101 12.479 92.1629 12.1024C89.5201 11.3062 85.3973 11.0045 84.4404 7.81073C83.2573 3.86306 86.5716 0.992988 90.2564 0.798613C90.3756 0.792107 90.4867 0.820572 90.5808 0.717285H91.4728V0.718098Z" fill="#103736"/>
<path d="M92.3648 19.5048V19.5861H91.7161C91.8539 19.434 92.1588 19.5162 92.3648 19.5048Z" fill="#ED8985"/>
<path d="M92.0406 0.717773V0.799102C91.8621 0.796662 91.584 0.860098 91.4729 0.717773H92.0406Z" fill="#ED8985"/>
<path d="M90.9863 19.5863H90.5808V19.505C90.7106 19.5075 90.9182 19.4562 90.9863 19.5863Z" fill="#ED8985"/>
<path d="M90.5807 0.717773C90.4867 0.82106 90.3756 0.792595 90.2563 0.799102V0.717773H90.5807Z" fill="#ED8985"/>
<path d="M120.585 1.04321V4.459H115.314V19.2607H111.462L111.341 19.1387V4.459H106.07V1.04321H120.585Z" fill="#103736"/>
<path d="M63.5769 1.04321L71.7437 12.5699L71.9294 12.6731V1.04321H75.8219V19.2607H72.0511L63.645 7.35916L63.4147 7.22416V19.2607H59.5222V1.04321H63.5769Z" fill="#103736"/>
<path d="M39.2488 1.04321V4.37767H30.3691L30.2474 4.49966V8.28142H38.9649L39.0866 8.40341V11.5752L38.9649 11.6972H30.3691L30.2474 11.8192V19.2607H26.4766L26.355 19.1387V1.04321H39.2488Z" fill="#103736"/>
<path d="M51.2506 1.04321H47.3582V19.2607H51.2506V1.04321Z" fill="#103736"/>
<path d="M17.9215 1.04297H0V6.16664H17.9215V1.04297Z" fill="#103736"/>
<path d="M11.5152 7.46777H0V12.5914H11.5152V7.46777Z" fill="#103736"/>
<path d="M5.10886 13.8928H0V19.0165H5.10886V13.8928Z" fill="#103736"/>
<path d="M8.94357 18.9768C10.3445 18.9768 11.4802 17.8378 11.4802 16.4329C11.4802 15.0279 10.3445 13.8889 8.94357 13.8889C7.54265 13.8889 6.40698 15.0279 6.40698 16.4329C6.40698 17.8378 7.54265 18.9768 8.94357 18.9768Z" fill="#ED8985"/>
<path d="M15.3451 18.9786C16.7456 18.9786 17.8809 17.84 17.8809 16.4355C17.8809 15.0309 16.7456 13.8923 15.3451 13.8923C13.9446 13.8923 12.8093 15.0309 12.8093 16.4355C12.8093 17.84 13.9446 18.9786 15.3451 18.9786Z" fill="#ED8985"/>
<path d="M15.3444 12.5565C16.7448 12.5565 17.8801 11.4179 17.8801 10.0133C17.8801 8.60881 16.7448 7.47021 15.3444 7.47021C13.9439 7.47021 12.8086 8.60881 12.8086 10.0133C12.8086 11.4179 13.9439 12.5565 15.3444 12.5565Z" fill="#ED8985"/>
<path d="M132.749 4.37742V8.28118H141.507V11.697H132.749V15.8447H141.629L141.751 15.9667V19.1385L141.629 19.2605H128.857V1.04297H141.629L141.751 1.16496V4.25543L141.629 4.37742H132.749Z" fill="#103736"/>
<path d="M159.226 1.04297C159.747 1.09339 160.639 1.36259 161.128 1.57486C165.72 3.56414 165.521 11.0935 160.481 12.3086L164.456 19.2613H160.117L156.468 12.755H153.67V19.2613H149.778V1.04297H159.225H159.226ZM153.671 9.33844H158.415C158.604 9.33844 159.444 8.9009 159.619 8.75695C160.893 7.70944 160.626 5.4477 159.135 4.7125C159.008 4.64987 158.255 4.37742 158.172 4.37742H153.671V9.33844Z" fill="#103736"/>
</svg>
