<svg width="492" height="111" viewBox="0 0 492 111" fill="none" xmlns="http://www.w3.org/2000/svg">
    <text x="0" y="90" font-family="Verdana" font-size="85" fill="black">🔥</text>

    <g clip-path="url(#clip0_126_2)">
        <path
            d="M125.995 85V23.1818H163.062V29.8224H133.481V50.7102H160.285V57.3509H133.481V85H125.995ZM174.917 85V38.6364H182.04V85H174.917ZM178.539 30.9091C177.151 30.9091 175.953 30.4362 174.947 29.4904C173.961 28.5446 173.468 27.4077 173.468 26.0795C173.468 24.7514 173.961 23.6145 174.947 22.6687C175.953 21.7229 177.151 21.25 178.539 21.25C179.928 21.25 181.115 21.7229 182.101 22.6687C183.107 23.6145 183.61 24.7514 183.61 26.0795C183.61 27.4077 183.107 28.5446 182.101 29.4904C181.115 30.4362 179.928 30.9091 178.539 30.9091ZM195.088 85V38.6364H201.97V45.6392H202.453C203.298 43.3452 204.827 41.4838 207.041 40.055C209.254 38.6263 211.75 37.9119 214.527 37.9119C215.05 37.9119 215.704 37.922 216.489 37.9421C217.273 37.9622 217.867 37.9924 218.27 38.0327V45.277C218.028 45.2166 217.475 45.1261 216.609 45.0053C215.764 44.8645 214.869 44.794 213.923 44.794C211.669 44.794 209.657 45.2669 207.886 46.2127C206.135 47.1384 204.747 48.4263 203.721 50.0763C202.714 51.7063 202.211 53.5677 202.211 55.6605V85H195.088ZM244.742 85.9659C240.274 85.9659 236.421 84.9799 233.181 83.0078C229.961 81.0156 227.476 78.2386 225.725 74.6768C223.995 71.0949 223.129 66.9295 223.129 62.1804C223.129 57.4313 223.995 53.2457 225.725 49.6236C227.476 45.9813 229.911 43.1439 233.03 41.1115C236.169 39.0589 239.831 38.0327 244.017 38.0327C246.432 38.0327 248.816 38.4351 251.171 39.2401C253.525 40.045 255.668 41.353 257.6 43.1641C259.532 44.955 261.071 47.3295 262.218 50.2876C263.365 53.2457 263.939 56.888 263.939 61.2145V64.233H228.2V58.0753H256.695C256.695 55.4593 256.171 53.125 255.125 51.0724C254.099 49.0199 252.63 47.4 250.718 46.2127C248.827 45.0254 246.593 44.4318 244.017 44.4318C241.18 44.4318 238.725 45.1361 236.652 46.5447C234.599 47.9332 233.02 49.7443 231.913 51.978C230.806 54.2116 230.253 56.6063 230.253 59.1619V63.267C230.253 66.7685 230.857 69.7366 232.064 72.1715C233.291 74.5863 234.992 76.4276 237.165 77.6953C239.338 78.9429 241.864 79.5668 244.742 79.5668C246.613 79.5668 248.303 79.3052 249.813 78.782C251.342 78.2386 252.66 77.4337 253.767 76.3672C254.874 75.2805 255.729 73.9323 256.332 72.3224L263.215 74.2543C262.49 76.5885 261.273 78.6411 259.562 80.4119C257.852 82.1626 255.739 83.531 253.223 84.517C250.708 85.483 247.881 85.9659 244.742 85.9659ZM293.61 85.9659C289.264 85.9659 285.521 84.9396 282.382 82.8871C279.243 80.8345 276.828 78.0072 275.137 74.4052C273.447 70.8031 272.602 66.688 272.602 62.0597C272.602 57.3509 273.467 53.1954 275.198 49.5934C276.949 45.9712 279.383 43.1439 282.503 41.1115C285.642 39.0589 289.304 38.0327 293.49 38.0327C296.75 38.0327 299.688 38.6364 302.304 39.8438C304.92 41.0511 307.063 42.7415 308.733 44.9148C310.403 47.0881 311.44 49.6236 311.842 52.5213H304.718C304.175 50.4084 302.968 48.5369 301.096 46.907C299.245 45.2569 296.75 44.4318 293.61 44.4318C290.833 44.4318 288.399 45.1562 286.306 46.6051C284.233 48.0339 282.613 50.0562 281.446 52.6722C280.299 55.2681 279.726 58.3168 279.726 61.8182C279.726 65.4001 280.289 68.5192 281.416 71.1754C282.563 73.8317 284.173 75.8943 286.245 77.3633C288.338 78.8323 290.793 79.5668 293.61 79.5668C295.462 79.5668 297.142 79.2448 298.651 78.6009C300.161 77.9569 301.438 77.0312 302.485 75.8239C303.531 74.6165 304.276 73.1676 304.718 71.4773H311.842C311.44 74.214 310.443 76.6791 308.854 78.8725C307.284 81.0458 305.201 82.7764 302.606 84.0643C300.03 85.332 297.031 85.9659 293.61 85.9659ZM322.256 85V38.6364H329.138V45.6392H329.621C330.466 43.3452 331.995 41.4838 334.209 40.055C336.422 38.6263 338.918 37.9119 341.695 37.9119C342.218 37.9119 342.872 37.922 343.657 37.9421C344.441 37.9622 345.035 37.9924 345.438 38.0327V45.277C345.196 45.2166 344.643 45.1261 343.777 45.0053C342.932 44.8645 342.037 44.794 341.091 44.794C338.837 44.794 336.825 45.2669 335.054 46.2127C333.303 47.1384 331.915 48.4263 330.889 50.0763C329.882 51.7063 329.379 53.5677 329.379 55.6605V85H322.256ZM367.525 86.0866C364.587 86.0866 361.921 85.5333 359.526 84.4265C357.132 83.2996 355.23 81.6797 353.821 79.5668C352.413 77.4337 351.708 74.858 351.708 71.8395C351.708 69.1832 352.232 67.0301 353.278 65.38C354.324 63.7098 355.723 62.4018 357.474 61.456C359.224 60.5102 361.156 59.8059 363.269 59.343C365.402 58.8601 367.545 58.4777 369.698 58.196C372.516 57.8338 374.8 57.5621 376.55 57.381C378.321 57.1798 379.609 56.8478 380.414 56.3849C381.239 55.9221 381.652 55.1172 381.652 53.9702V53.7287C381.652 50.7505 380.837 48.4363 379.207 46.7862C377.597 45.1361 375.152 44.3111 371.872 44.3111C368.471 44.3111 365.805 45.0556 363.873 46.5447C361.941 48.0339 360.583 49.6236 359.798 51.3139L353.037 48.8991C354.244 46.0819 355.854 43.8885 357.866 42.3189C359.899 40.7292 362.112 39.6224 364.507 38.9986C366.921 38.3546 369.296 38.0327 371.63 38.0327C373.119 38.0327 374.83 38.2138 376.762 38.576C378.714 38.9181 380.595 39.6325 382.406 40.7191C384.237 41.8058 385.757 43.4458 386.964 45.6392C388.171 47.8326 388.775 50.7706 388.775 54.4531V85H381.652V78.7216H381.289C380.806 79.7277 380.001 80.8043 378.875 81.9513C377.748 83.0984 376.249 84.0743 374.377 84.8793C372.506 85.6842 370.222 86.0866 367.525 86.0866ZM368.612 79.6875C371.429 79.6875 373.804 79.1341 375.735 78.0273C377.687 76.9206 379.156 75.4918 380.142 73.7411C381.149 71.9904 381.652 70.1491 381.652 68.2173V61.6974C381.35 62.0597 380.686 62.3917 379.659 62.6935C378.653 62.9753 377.486 63.2268 376.158 63.4482C374.85 63.6494 373.572 63.8305 372.325 63.9915C371.097 64.1323 370.101 64.2531 369.336 64.3537C367.485 64.5952 365.754 64.9876 364.144 65.5309C362.555 66.0541 361.267 66.849 360.281 67.9155C359.315 68.9619 358.832 70.3906 358.832 72.2017C358.832 74.6768 359.748 76.5483 361.579 77.8161C363.43 79.0637 365.774 79.6875 368.612 79.6875ZM412.281 85L398.155 38.6364H405.641L415.662 74.1335H416.145L426.046 38.6364H433.652L443.432 74.0128H443.915L453.936 38.6364H461.422L447.296 85H440.293L430.151 49.3821H429.426L419.284 85H412.281ZM477.963 23.1818V85H470.84V23.1818H477.963Z"
            fill="#141414" />
    </g>

</svg>
    