<svg width="285" height="60" viewBox="0 0 285 60" fill="none" xmlns="http://www.w3.org/2000/svg">
<g clip-path="url(#clip0_7703_161)">
<path d="M170.972 28.9848C165.977 28.9848 160.966 28.8024 155.896 28.6353C140.968 28.1185 124.952 25.8693 109.577 22.1763C101.628 20.2614 93.6949 17.9058 86 15.1854L86.3728 14.1064C94.023 16.8115 101.927 19.152 109.845 21.0517C125.146 24.7447 141.087 26.9635 155.94 27.4954C174.775 28.1641 192.566 28.772 212.534 20.4894C216.963 18.6505 221.303 16.4772 225.433 14L226 14.9878C221.824 17.4802 217.44 19.6991 212.966 21.5532C198.188 27.693 184.632 29 170.987 29L170.972 28.9848Z" fill="#130C49"/>
<path d="M62.4076 28.6343C41.7109 28.6343 20.742 24.0687 0 15.0431L0.453543 14C22.012 23.3883 43.8425 27.9238 65.3102 27.4551C84.737 27.0469 102.289 22.5417 108.049 21.0602C115.502 19.1402 122.94 16.7817 130.137 14.0454L130.545 15.1036C123.303 17.8551 115.835 20.2135 108.336 22.1487C102.546 23.6454 84.9033 28.1808 65.3405 28.589C64.3729 28.6041 63.3902 28.6192 62.4227 28.6192L62.4076 28.6343Z" fill="#130C49"/>
<path d="M242.933 28.7244C228.661 28.7244 217.474 24.3251 212.077 21.7096C208.388 19.9106 204.82 17.7789 201.479 15.3298L202.144 14.4076C205.425 16.8114 208.932 18.9128 212.576 20.6816C217.897 23.2668 228.903 27.5906 242.933 27.5906H242.978C262.148 27.5906 276.797 19.2907 283.812 14.3471L284.462 15.2693C277.327 20.2885 262.465 28.7093 242.978 28.7244H242.918H242.933Z" fill="#130C49"/>
<path d="M86 0H0V15H86V0Z" fill="#7AD6EB"/>
<path d="M131 0H86V15H131V0Z" fill="#61BD73"/>
<path d="M225.97 0H201.449V15.36H225.97V0Z" fill="#61BD73"/>
<path d="M284.523 0H225.97V15.36H284.523V0Z" fill="#A590DD"/>
<path d="M201 0H131V15H201V0Z" fill="#F9F15D"/>
<path d="M108.185 47.7127C107.868 47.7127 107.611 47.4557 107.611 47.1383V21.7398C107.611 21.4224 107.868 21.1653 108.185 21.1653C108.503 21.1653 108.76 21.4224 108.76 21.7398V47.1383C108.76 47.4557 108.503 47.7127 108.185 47.7127Z" fill="#130C49"/>
<path d="M104.95 44.5077L105.524 43.9786L108.185 46.8359L110.846 43.9786L111.436 44.5077L108.185 48L104.95 44.5077Z" fill="#130C49"/>
<path d="M212.303 47.7127C211.986 47.7127 211.729 47.4557 211.729 47.1383V21.7398C211.729 21.4224 211.986 21.1653 212.303 21.1653C212.621 21.1653 212.878 21.4224 212.878 21.7398V47.1383C212.878 47.4557 212.621 47.7127 212.303 47.7127Z" fill="#130C49"/>
<path d="M209.053 44.5077L209.643 43.9786L212.304 46.8359L214.964 43.9786L215.539 44.5077L212.304 48L209.053 44.5077Z" fill="#130C49"/>
<path d="M153.386 41.0909C152.977 41.0909 152.625 40.9943 152.33 40.8011C152.034 40.608 151.807 40.3419 151.648 40.0028C151.489 39.6638 151.409 39.2765 151.409 38.8409C151.409 38.3977 151.491 38.0066 151.653 37.6676C151.818 37.3267 152.047 37.0606 152.341 36.8693C152.636 36.6761 152.981 36.5795 153.375 36.5795C153.682 36.5795 153.958 36.6364 154.205 36.75C154.451 36.8636 154.652 37.0227 154.81 37.2273C154.967 37.4318 155.064 37.6705 155.102 37.9432H154.432C154.381 37.7443 154.267 37.5682 154.091 37.4148C153.917 37.2595 153.682 37.1818 153.386 37.1818C153.125 37.1818 152.896 37.25 152.699 37.3864C152.504 37.5208 152.351 37.7112 152.241 37.9574C152.134 38.2017 152.08 38.4886 152.08 38.8182C152.08 39.1553 152.133 39.4489 152.239 39.6989C152.347 39.9489 152.498 40.143 152.693 40.2812C152.89 40.4195 153.121 40.4886 153.386 40.4886C153.561 40.4886 153.719 40.4583 153.861 40.3977C154.003 40.3371 154.123 40.25 154.222 40.1364C154.32 40.0227 154.39 39.8864 154.432 39.7273H155.102C155.064 39.9848 154.971 40.2169 154.821 40.4233C154.673 40.6278 154.477 40.7907 154.233 40.9119C153.991 41.0312 153.708 41.0909 153.386 41.0909ZM156.753 38.375V41H156.082V35.1818H156.753V37.3182H156.81C156.912 37.0928 157.065 36.9138 157.27 36.7812C157.476 36.6468 157.751 36.5795 158.094 36.5795C158.391 36.5795 158.652 36.6392 158.875 36.7585C159.098 36.8759 159.272 37.0568 159.395 37.3011C159.52 37.5436 159.582 37.8523 159.582 38.2273V41H158.912V38.2727C158.912 37.9261 158.822 37.6581 158.642 37.4688C158.464 37.2775 158.217 37.1818 157.901 37.1818C157.681 37.1818 157.484 37.2282 157.31 37.321C157.137 37.4138 157.001 37.5492 156.901 37.7273C156.802 37.9053 156.753 38.1212 156.753 38.375ZM163.559 39.2159V36.6364H164.229V41H163.559V40.2614H163.513C163.411 40.483 163.252 40.6714 163.036 40.8267C162.82 40.9801 162.548 41.0568 162.218 41.0568C161.945 41.0568 161.703 40.9972 161.491 40.8778C161.279 40.7566 161.112 40.5748 160.991 40.3324C160.87 40.0881 160.809 39.7803 160.809 39.4091V36.6364H161.479V39.3636C161.479 39.6818 161.568 39.9356 161.746 40.125C161.926 40.3144 162.156 40.4091 162.434 40.4091C162.601 40.4091 162.77 40.3665 162.942 40.2812C163.117 40.196 163.263 40.0653 163.38 39.8892C163.499 39.7131 163.559 39.4886 163.559 39.2159ZM166.128 38.375V41H165.457V36.6364H166.105V37.3182H166.162C166.264 37.0966 166.42 36.9186 166.628 36.7841C166.836 36.6477 167.105 36.5795 167.435 36.5795C167.73 36.5795 167.989 36.6402 168.21 36.7614C168.432 36.8807 168.604 37.0625 168.727 37.3068C168.85 37.5492 168.912 37.8561 168.912 38.2273V41H168.241V38.2727C168.241 37.9299 168.152 37.6629 167.974 37.4716C167.796 37.2784 167.552 37.1818 167.241 37.1818C167.027 37.1818 166.836 37.2282 166.668 37.321C166.501 37.4138 166.369 37.5492 166.273 37.7273C166.176 37.9053 166.128 38.1212 166.128 38.375ZM170.762 39.4091L170.751 38.5795H170.887L172.796 36.6364H173.626L171.592 38.6932H171.535L170.762 39.4091ZM170.137 41V35.1818H170.808V41H170.137ZM172.91 41L171.205 38.8409L171.683 38.375L173.762 41H172.91ZM176.727 41V40.4886L178.648 38.3864C178.873 38.1402 179.059 37.9261 179.205 37.7443C179.35 37.5606 179.458 37.3883 179.528 37.2273C179.6 37.0644 179.636 36.8939 179.636 36.7159C179.636 36.5114 179.587 36.3343 179.489 36.1847C179.392 36.035 179.259 35.9195 179.091 35.8381C178.922 35.7566 178.733 35.7159 178.523 35.7159C178.299 35.7159 178.104 35.7623 177.938 35.8551C177.773 35.946 177.645 36.0739 177.554 36.2386C177.465 36.4034 177.42 36.5966 177.42 36.8182H176.75C176.75 36.4773 176.829 36.178 176.986 35.9205C177.143 35.6629 177.357 35.4621 177.628 35.3182C177.901 35.1742 178.206 35.1023 178.545 35.1023C178.886 35.1023 179.188 35.1742 179.452 35.3182C179.715 35.4621 179.921 35.6562 180.071 35.9006C180.221 36.1449 180.295 36.4167 180.295 36.7159C180.295 36.9299 180.257 37.1392 180.179 37.3438C180.103 37.5464 179.971 37.7727 179.781 38.0227C179.594 38.2708 179.333 38.5739 179 38.9318L177.693 40.3295V40.375H180.398V41H176.727Z" fill="#130C49"/>
<path d="M239.386 41.0909C238.977 41.0909 238.625 40.9943 238.33 40.8011C238.034 40.608 237.807 40.3419 237.648 40.0028C237.489 39.6638 237.409 39.2765 237.409 38.8409C237.409 38.3977 237.491 38.0066 237.653 37.6676C237.818 37.3267 238.047 37.0606 238.341 36.8693C238.636 36.6761 238.981 36.5795 239.375 36.5795C239.682 36.5795 239.958 36.6364 240.205 36.75C240.451 36.8636 240.652 37.0227 240.81 37.2273C240.967 37.4318 241.064 37.6705 241.102 37.9432H240.432C240.381 37.7443 240.267 37.5682 240.091 37.4148C239.917 37.2595 239.682 37.1818 239.386 37.1818C239.125 37.1818 238.896 37.25 238.699 37.3864C238.504 37.5208 238.351 37.7112 238.241 37.9574C238.134 38.2017 238.08 38.4886 238.08 38.8182C238.08 39.1553 238.133 39.4489 238.239 39.6989C238.347 39.9489 238.498 40.143 238.693 40.2812C238.89 40.4195 239.121 40.4886 239.386 40.4886C239.561 40.4886 239.719 40.4583 239.861 40.3977C240.003 40.3371 240.123 40.25 240.222 40.1364C240.32 40.0227 240.39 39.8864 240.432 39.7273H241.102C241.064 39.9848 240.971 40.2169 240.821 40.4233C240.673 40.6278 240.477 40.7907 240.233 40.9119C239.991 41.0312 239.708 41.0909 239.386 41.0909ZM242.753 38.375V41H242.082V35.1818H242.753V37.3182H242.81C242.912 37.0928 243.065 36.9138 243.27 36.7812C243.476 36.6468 243.751 36.5795 244.094 36.5795C244.391 36.5795 244.652 36.6392 244.875 36.7585C245.098 36.8759 245.272 37.0568 245.395 37.3011C245.52 37.5436 245.582 37.8523 245.582 38.2273V41H244.912V38.2727C244.912 37.9261 244.822 37.6581 244.642 37.4688C244.464 37.2775 244.217 37.1818 243.901 37.1818C243.681 37.1818 243.484 37.2282 243.31 37.321C243.137 37.4138 243.001 37.5492 242.901 37.7273C242.802 37.9053 242.753 38.1212 242.753 38.375ZM249.559 39.2159V36.6364H250.229V41H249.559V40.2614H249.513C249.411 40.483 249.252 40.6714 249.036 40.8267C248.82 40.9801 248.548 41.0568 248.218 41.0568C247.945 41.0568 247.703 40.9972 247.491 40.8778C247.279 40.7566 247.112 40.5748 246.991 40.3324C246.87 40.0881 246.809 39.7803 246.809 39.4091V36.6364H247.479V39.3636C247.479 39.6818 247.568 39.9356 247.746 40.125C247.926 40.3144 248.156 40.4091 248.434 40.4091C248.601 40.4091 248.77 40.3665 248.942 40.2812C249.117 40.196 249.263 40.0653 249.38 39.8892C249.499 39.7131 249.559 39.4886 249.559 39.2159ZM252.128 38.375V41H251.457V36.6364H252.105V37.3182H252.162C252.264 37.0966 252.42 36.9186 252.628 36.7841C252.836 36.6477 253.105 36.5795 253.435 36.5795C253.73 36.5795 253.989 36.6402 254.21 36.7614C254.432 36.8807 254.604 37.0625 254.727 37.3068C254.85 37.5492 254.912 37.8561 254.912 38.2273V41H254.241V38.2727C254.241 37.9299 254.152 37.6629 253.974 37.4716C253.796 37.2784 253.552 37.1818 253.241 37.1818C253.027 37.1818 252.836 37.2282 252.668 37.321C252.501 37.4138 252.369 37.5492 252.273 37.7273C252.176 37.9053 252.128 38.1212 252.128 38.375ZM256.762 39.4091L256.751 38.5795H256.887L258.796 36.6364H259.626L257.592 38.6932H257.535L256.762 39.4091ZM256.137 41V35.1818H256.808V41H256.137ZM258.91 41L257.205 38.8409L257.683 38.375L259.762 41H258.91ZM264.693 41.0795C264.318 41.0795 263.984 41.0152 263.69 40.8864C263.399 40.7576 263.167 40.5786 262.994 40.3494C262.824 40.1184 262.731 39.8504 262.716 39.5455H263.432C263.447 39.733 263.511 39.8949 263.625 40.0312C263.739 40.1657 263.887 40.2699 264.071 40.3438C264.255 40.4176 264.458 40.4545 264.682 40.4545C264.932 40.4545 265.153 40.411 265.347 40.3239C265.54 40.2367 265.691 40.1155 265.801 39.9602C265.911 39.8049 265.966 39.625 265.966 39.4205C265.966 39.2064 265.913 39.018 265.807 38.8551C265.701 38.6903 265.545 38.5616 265.341 38.4688C265.136 38.3759 264.886 38.3295 264.591 38.3295H264.125V37.7045H264.591C264.822 37.7045 265.025 37.6629 265.199 37.5795C265.375 37.4962 265.512 37.3788 265.611 37.2273C265.711 37.0758 265.761 36.8977 265.761 36.6932C265.761 36.4962 265.718 36.3248 265.631 36.179C265.544 36.0331 265.42 35.9195 265.261 35.8381C265.104 35.7566 264.919 35.7159 264.705 35.7159C264.504 35.7159 264.314 35.7528 264.136 35.8267C263.96 35.8987 263.816 36.0038 263.705 36.142C263.593 36.2784 263.532 36.4432 263.523 36.6364H262.841C262.852 36.3314 262.944 36.0644 263.116 35.8352C263.289 35.6042 263.514 35.4242 263.793 35.2955C264.073 35.1667 264.381 35.1023 264.716 35.1023C265.076 35.1023 265.384 35.1752 265.642 35.321C265.9 35.465 266.098 35.6553 266.236 35.892C266.374 36.1288 266.443 36.3845 266.443 36.6591C266.443 36.9867 266.357 37.2661 266.185 37.4972C266.014 37.7282 265.782 37.8883 265.489 37.9773V38.0227C265.856 38.0833 266.143 38.2396 266.349 38.4915C266.556 38.7415 266.659 39.0511 266.659 39.4205C266.659 39.7367 266.573 40.0208 266.401 40.2727C266.23 40.5227 265.997 40.7197 265.702 40.8636C265.406 41.0076 265.07 41.0795 264.693 41.0795Z" fill="#130C49"/>
<path d="M37.3864 41.0909C36.9773 41.0909 36.625 40.9943 36.3295 40.8011C36.0341 40.608 35.8068 40.3419 35.6477 40.0028C35.4886 39.6638 35.4091 39.2765 35.4091 38.8409C35.4091 38.3977 35.4905 38.0066 35.6534 37.6676C35.8182 37.3267 36.0473 37.0606 36.3409 36.8693C36.6364 36.6761 36.9811 36.5795 37.375 36.5795C37.6818 36.5795 37.9583 36.6364 38.2045 36.75C38.4508 36.8636 38.6525 37.0227 38.8097 37.2273C38.9669 37.4318 39.0644 37.6705 39.1023 37.9432H38.4318C38.3807 37.7443 38.267 37.5682 38.0909 37.4148C37.9167 37.2595 37.6818 37.1818 37.3864 37.1818C37.125 37.1818 36.8958 37.25 36.6989 37.3864C36.5038 37.5208 36.3513 37.7112 36.2415 37.9574C36.1335 38.2017 36.0795 38.4886 36.0795 38.8182C36.0795 39.1553 36.1326 39.4489 36.2386 39.6989C36.3466 39.9489 36.4981 40.143 36.6932 40.2812C36.8902 40.4195 37.1212 40.4886 37.3864 40.4886C37.5606 40.4886 37.7188 40.4583 37.8608 40.3977C38.0028 40.3371 38.1231 40.25 38.2216 40.1364C38.3201 40.0227 38.3902 39.8864 38.4318 39.7273H39.1023C39.0644 39.9848 38.9706 40.2169 38.821 40.4233C38.6733 40.6278 38.4773 40.7907 38.233 40.9119C37.9905 41.0312 37.7083 41.0909 37.3864 41.0909ZM40.7528 38.375V41H40.0824V35.1818H40.7528V37.3182H40.8097C40.9119 37.0928 41.0653 36.9138 41.2699 36.7812C41.4763 36.6468 41.7509 36.5795 42.0938 36.5795C42.3911 36.5795 42.6515 36.6392 42.875 36.7585C43.0985 36.8759 43.2718 37.0568 43.3949 37.3011C43.5199 37.5436 43.5824 37.8523 43.5824 38.2273V41H42.9119V38.2727C42.9119 37.9261 42.822 37.6581 42.642 37.4688C42.464 37.2775 42.2169 37.1818 41.9006 37.1818C41.6809 37.1818 41.4839 37.2282 41.3097 37.321C41.1373 37.4138 41.0009 37.5492 40.9006 37.7273C40.8021 37.9053 40.7528 38.1212 40.7528 38.375ZM47.5589 39.2159V36.6364H48.2294V41H47.5589V40.2614H47.5135C47.4112 40.483 47.2521 40.6714 47.0362 40.8267C46.8203 40.9801 46.5476 41.0568 46.218 41.0568C45.9453 41.0568 45.7029 40.9972 45.4908 40.8778C45.2786 40.7566 45.112 40.5748 44.9908 40.3324C44.8696 40.0881 44.8089 39.7803 44.8089 39.4091V36.6364H45.4794V39.3636C45.4794 39.6818 45.5684 39.9356 45.7464 40.125C45.9264 40.3144 46.1555 40.4091 46.4339 40.4091C46.6006 40.4091 46.7701 40.3665 46.9425 40.2812C47.1167 40.196 47.2625 40.0653 47.38 39.8892C47.4993 39.7131 47.5589 39.4886 47.5589 39.2159ZM50.1278 38.375V41H49.4574V36.6364H50.1051V37.3182H50.1619C50.2642 37.0966 50.4195 36.9186 50.6278 36.7841C50.8362 36.6477 51.1051 36.5795 51.4347 36.5795C51.7301 36.5795 51.9886 36.6402 52.2102 36.7614C52.4318 36.8807 52.6042 37.0625 52.7273 37.3068C52.8504 37.5492 52.9119 37.8561 52.9119 38.2273V41H52.2415V38.2727C52.2415 37.9299 52.1525 37.6629 51.9744 37.4716C51.7964 37.2784 51.5521 37.1818 51.2415 37.1818C51.0275 37.1818 50.8362 37.2282 50.6676 37.321C50.5009 37.4138 50.3693 37.5492 50.2727 37.7273C50.1761 37.9053 50.1278 38.1212 50.1278 38.375ZM54.7621 39.4091L54.7507 38.5795H54.8871L56.7962 36.6364H57.6257L55.5916 38.6932H55.5348L54.7621 39.4091ZM54.1371 41V35.1818H54.8075V41H54.1371ZM56.9098 41L55.2053 38.8409L55.6825 38.375L57.7621 41H56.9098ZM62.7727 35.1818V41H62.0682V35.9205H62.0341L60.6136 36.8636V36.1477L62.0682 35.1818H62.7727Z" fill="#130C49"/>
</g>
<path d="M8.92472 11V3.36364H11.505C12.104 3.36364 12.5938 3.47177 12.9741 3.68803C13.3569 3.90181 13.6403 4.19141 13.8242 4.55682C14.0082 4.92223 14.1001 5.3299 14.1001 5.77983C14.1001 6.22976 14.0082 6.63867 13.8242 7.00657C13.6428 7.37447 13.3619 7.66779 12.9815 7.88654C12.6012 8.10281 12.114 8.21094 11.5199 8.21094H9.67045V7.39062H11.4901C11.9002 7.39062 12.2296 7.31978 12.4782 7.17809C12.7267 7.0364 12.907 6.84499 13.0188 6.60387C13.1332 6.36026 13.1903 6.08558 13.1903 5.77983C13.1903 5.47408 13.1332 5.20064 13.0188 4.95952C12.907 4.71839 12.7255 4.52947 12.4744 4.39276C12.2234 4.25355 11.8903 4.18395 11.4751 4.18395H9.84943V11H8.92472ZM16.3504 7.55469V11H15.4704V3.36364H16.3504V6.16761H16.425C16.5592 5.8718 16.7606 5.6369 17.029 5.46289C17.3 5.2864 17.6604 5.19815 18.1104 5.19815C18.5006 5.19815 18.8424 5.27646 19.1357 5.43306C19.4291 5.58718 19.6565 5.82457 19.8181 6.14524C19.9822 6.46342 20.0642 6.86861 20.0642 7.3608V11H19.1842V7.42045C19.1842 6.96555 19.0661 6.61381 18.83 6.36523C18.5963 6.11417 18.2719 5.98864 17.8568 5.98864C17.5684 5.98864 17.3099 6.04954 17.0812 6.17134C16.855 6.29315 16.676 6.47088 16.5443 6.70455C16.415 6.93821 16.3504 7.22159 16.3504 7.55469ZM24.0008 11.1193C23.4837 11.1193 23.0301 10.9963 22.6398 10.7502C22.252 10.5041 21.9487 10.1598 21.73 9.71733C21.5137 9.27486 21.4056 8.75781 21.4056 8.16619C21.4056 7.5696 21.5137 7.04883 21.73 6.60387C21.9487 6.15891 22.252 5.81339 22.6398 5.56729C23.0301 5.3212 23.4837 5.19815 24.0008 5.19815C24.5178 5.19815 24.9702 5.3212 25.358 5.56729C25.7483 5.81339 26.0515 6.15891 26.2678 6.60387C26.4866 7.04883 26.5959 7.5696 26.5959 8.16619C26.5959 8.75781 26.4866 9.27486 26.2678 9.71733C26.0515 10.1598 25.7483 10.5041 25.358 10.7502C24.9702 10.9963 24.5178 11.1193 24.0008 11.1193ZM24.0008 10.3288C24.3935 10.3288 24.7167 10.2282 24.9702 10.0268C25.2238 9.82546 25.4114 9.56072 25.5332 9.2326C25.6551 8.90447 25.716 8.54901 25.716 8.16619C25.716 7.78338 25.6551 7.42667 25.5332 7.09606C25.4114 6.76545 25.2238 6.49822 24.9702 6.29439C24.7167 6.09055 24.3935 5.98864 24.0008 5.98864C23.608 5.98864 23.2848 6.09055 23.0313 6.29439C22.7777 6.49822 22.5901 6.76545 22.4683 7.09606C22.3465 7.42667 22.2856 7.78338 22.2856 8.16619C22.2856 8.54901 22.3465 8.90447 22.4683 9.2326C22.5901 9.56072 22.7777 9.82546 23.0313 10.0268C23.2848 10.2282 23.608 10.3288 24.0008 10.3288ZM30.43 5.27273V6.01847H27.4619V5.27273H30.43ZM28.327 3.90057H29.2069V9.35938C29.2069 9.60795 29.243 9.79439 29.3151 9.91868C29.3896 10.0405 29.4841 10.1225 29.5985 10.1648C29.7153 10.2045 29.8383 10.2244 29.9676 10.2244C30.0645 10.2244 30.1441 10.2195 30.2062 10.2095C30.2684 10.1971 30.3181 10.1871 30.3554 10.1797L30.5344 10.9702C30.4747 10.9925 30.3914 11.0149 30.2845 11.0373C30.1776 11.0621 30.0422 11.0746 29.8781 11.0746C29.6295 11.0746 29.3859 11.0211 29.1473 10.9142C28.9111 10.8074 28.7148 10.6445 28.5581 10.4258C28.404 10.207 28.327 9.93111 28.327 9.59801V3.90057ZM34.0188 11.1193C33.5018 11.1193 33.0481 10.9963 32.6578 10.7502C32.2701 10.5041 31.9668 10.1598 31.748 9.71733C31.5318 9.27486 31.4237 8.75781 31.4237 8.16619C31.4237 7.5696 31.5318 7.04883 31.748 6.60387C31.9668 6.15891 32.2701 5.81339 32.6578 5.56729C33.0481 5.3212 33.5018 5.19815 34.0188 5.19815C34.5359 5.19815 34.9883 5.3212 35.3761 5.56729C35.7663 5.81339 36.0696 6.15891 36.2859 6.60387C36.5046 7.04883 36.614 7.5696 36.614 8.16619C36.614 8.75781 36.5046 9.27486 36.2859 9.71733C36.0696 10.1598 35.7663 10.5041 35.3761 10.7502C34.9883 10.9963 34.5359 11.1193 34.0188 11.1193ZM34.0188 10.3288C34.4116 10.3288 34.7347 10.2282 34.9883 10.0268C35.2418 9.82546 35.4295 9.56072 35.5513 9.2326C35.6731 8.90447 35.734 8.54901 35.734 8.16619C35.734 7.78338 35.6731 7.42667 35.5513 7.09606C35.4295 6.76545 35.2418 6.49822 34.9883 6.29439C34.7347 6.09055 34.4116 5.98864 34.0188 5.98864C33.6261 5.98864 33.3029 6.09055 33.0494 6.29439C32.7958 6.49822 32.6081 6.76545 32.4863 7.09606C32.3645 7.42667 32.3036 7.78338 32.3036 8.16619C32.3036 8.54901 32.3645 8.90447 32.4863 9.2326C32.6081 9.56072 32.7958 9.82546 33.0494 10.0268C33.3029 10.2282 33.6261 10.3288 34.0188 10.3288ZM42.0141 6.5554L41.2236 6.77912C41.1739 6.64737 41.1005 6.51935 41.0036 6.39506C40.9091 6.26829 40.7799 6.16388 40.6158 6.08185C40.4517 5.99982 40.2417 5.95881 39.9857 5.95881C39.6352 5.95881 39.3431 6.0396 39.1094 6.20117C38.8782 6.36026 38.7627 6.56285 38.7627 6.80895C38.7627 7.0277 38.8422 7.20046 39.0013 7.32724C39.1604 7.45401 39.409 7.55966 39.747 7.64418L40.5972 7.85298C41.1092 7.97727 41.4908 8.16744 41.7419 8.42347C41.9929 8.67702 42.1185 9.00391 42.1185 9.40412C42.1185 9.73224 42.024 10.0256 41.8351 10.2841C41.6487 10.5426 41.3877 10.7464 41.0521 10.8956C40.7165 11.0447 40.3262 11.1193 39.8813 11.1193C39.2971 11.1193 38.8136 10.9925 38.4308 10.739C38.048 10.4854 37.8056 10.1151 37.7037 9.62784L38.5389 9.41903C38.6185 9.72727 38.7689 9.95845 38.9901 10.1126C39.2138 10.2667 39.5059 10.3438 39.8663 10.3438C40.2765 10.3438 40.6021 10.2567 40.8433 10.0827C41.0869 9.90625 41.2087 9.69496 41.2087 9.44886C41.2087 9.25 41.1391 9.08345 40.9999 8.94922C40.8607 8.8125 40.6469 8.71058 40.3585 8.64347L39.404 8.41974C38.8795 8.29545 38.4942 8.10281 38.2481 7.8418C38.0045 7.5783 37.8827 7.24893 37.8827 6.85369C37.8827 6.53054 37.9734 6.24467 38.1549 5.99609C38.3388 5.74751 38.5886 5.55238 38.9043 5.41069C39.2225 5.269 39.583 5.19815 39.9857 5.19815C40.5524 5.19815 40.9974 5.32244 41.3205 5.57102C41.6462 5.8196 41.8774 6.14773 42.0141 6.5554ZM44.0099 13.1477C43.8607 13.1477 43.7277 13.1353 43.6109 13.1104C43.4941 13.0881 43.4133 13.0657 43.3685 13.0433L43.5922 12.2678C43.806 12.3224 43.9949 12.3423 44.159 12.3274C44.3231 12.3125 44.4685 12.2392 44.5953 12.1074C44.7245 11.9782 44.8426 11.7681 44.9495 11.4773L45.1135 11.0298L42.9956 5.27273H43.9502L45.5312 9.83665H45.5908L47.1718 5.27273H48.1263L45.6952 11.8352C45.5858 12.131 45.4504 12.3759 45.2888 12.5698C45.1272 12.7662 44.9395 12.9116 44.7258 13.006C44.5145 13.1005 44.2758 13.1477 44.0099 13.1477ZM50.1678 7.55469V11H49.2878V5.27273H50.138V6.16761H50.2125C50.3468 5.87678 50.5506 5.64311 50.824 5.46662C51.0975 5.28764 51.4505 5.19815 51.883 5.19815C52.2708 5.19815 52.6101 5.2777 52.9009 5.43679C53.1918 5.59339 53.418 5.83203 53.5795 6.1527C53.7411 6.47088 53.8219 6.87358 53.8219 7.3608V11H52.9419V7.42045C52.9419 6.97053 52.8251 6.62003 52.5914 6.36896C52.3578 6.11541 52.0371 5.98864 51.6294 5.98864C51.3485 5.98864 51.0975 6.04954 50.8762 6.17134C50.6575 6.29315 50.4847 6.47088 50.358 6.70455C50.2312 6.93821 50.1678 7.22159 50.1678 7.55469ZM57.9207 5.27273V6.01847H54.9526V5.27273H57.9207ZM55.8177 3.90057H56.6977V9.35938C56.6977 9.60795 56.7337 9.79439 56.8058 9.91868C56.8804 10.0405 56.9748 10.1225 57.0892 10.1648C57.206 10.2045 57.3291 10.2244 57.4583 10.2244C57.5553 10.2244 57.6348 10.2195 57.697 10.2095C57.7591 10.1971 57.8088 10.1871 57.8461 10.1797L58.0251 10.9702C57.9654 10.9925 57.8821 11.0149 57.7753 11.0373C57.6684 11.0621 57.5329 11.0746 57.3688 11.0746C57.1203 11.0746 56.8766 11.0211 56.638 10.9142C56.4019 10.8074 56.2055 10.6445 56.0489 10.4258C55.8948 10.207 55.8177 9.93111 55.8177 9.59801V3.90057ZM60.2474 7.55469V11H59.3674V3.36364H60.2474V6.16761H60.322C60.4562 5.8718 60.6575 5.6369 60.926 5.46289C61.197 5.2864 61.5574 5.19815 62.0073 5.19815C62.3976 5.19815 62.7394 5.27646 63.0327 5.43306C63.326 5.58718 63.5535 5.82457 63.7151 6.14524C63.8791 6.46342 63.9612 6.86861 63.9612 7.3608V11H63.0812V7.42045C63.0812 6.96555 62.9631 6.61381 62.727 6.36523C62.4933 6.11417 62.1689 5.98864 61.7538 5.98864C61.4654 5.98864 61.2069 6.04954 60.9782 6.17134C60.752 6.29315 60.573 6.47088 60.4413 6.70455C60.312 6.93821 60.2474 7.22159 60.2474 7.55469ZM67.9723 11.1193C67.4205 11.1193 66.9444 10.9975 66.5442 10.7539C66.1465 10.5078 65.8395 10.1648 65.6232 9.72479C65.4094 9.28232 65.3026 8.76776 65.3026 8.18111C65.3026 7.59446 65.4094 7.07741 65.6232 6.62997C65.8395 6.18004 66.1403 5.82955 66.5256 5.57848C66.9134 5.32493 67.3658 5.19815 67.8828 5.19815C68.1811 5.19815 68.4757 5.24787 68.7665 5.3473C69.0574 5.44673 69.3221 5.60831 69.5607 5.83203C69.7994 6.05327 69.9895 6.34659 70.1312 6.712C70.2729 7.07741 70.3438 7.52734 70.3438 8.06179V8.43466H65.929V7.67401H69.4489C69.4489 7.35085 69.3842 7.0625 69.255 6.80895C69.1282 6.5554 68.9467 6.35529 68.7106 6.20863C68.4769 6.06197 68.201 5.98864 67.8828 5.98864C67.5323 5.98864 67.229 6.07564 66.973 6.24964C66.7195 6.42116 66.5243 6.64489 66.3876 6.92081C66.2509 7.19673 66.1825 7.49254 66.1825 7.80824V8.31534C66.1825 8.74787 66.2571 9.11452 66.4062 9.41531C66.5579 9.7136 66.7679 9.94105 67.0364 10.0977C67.3049 10.2518 67.6168 10.3288 67.9723 10.3288C68.2035 10.3288 68.4123 10.2965 68.5987 10.2319C68.7876 10.1648 68.9505 10.0653 69.0872 9.93359C69.2239 9.79936 69.3295 9.63281 69.4041 9.43395L70.2543 9.67259C70.1648 9.96094 70.0144 10.2145 69.8031 10.4332C69.5918 10.6495 69.3308 10.8185 69.0201 10.9403C68.7093 11.0597 68.3601 11.1193 67.9723 11.1193ZM75.7392 6.5554L74.9487 6.77912C74.899 6.64737 74.8256 6.51935 74.7287 6.39506C74.6342 6.26829 74.505 6.16388 74.3409 6.08185C74.1768 5.99982 73.9668 5.95881 73.7108 5.95881C73.3603 5.95881 73.0682 6.0396 72.8345 6.20117C72.6033 6.36026 72.4877 6.56285 72.4877 6.80895C72.4877 7.0277 72.5673 7.20046 72.7264 7.32724C72.8855 7.45401 73.1341 7.55966 73.4721 7.64418L74.3223 7.85298C74.8343 7.97727 75.2159 8.16744 75.467 8.42347C75.718 8.67702 75.8436 9.00391 75.8436 9.40412C75.8436 9.73224 75.7491 10.0256 75.5602 10.2841C75.3738 10.5426 75.1127 10.7464 74.7772 10.8956C74.4416 11.0447 74.0513 11.1193 73.6064 11.1193C73.0222 11.1193 72.5387 10.9925 72.1559 10.739C71.7731 10.4854 71.5307 10.1151 71.4288 9.62784L72.264 9.41903C72.3436 9.72727 72.494 9.95845 72.7152 10.1126C72.9389 10.2667 73.231 10.3438 73.5914 10.3438C74.0016 10.3438 74.3272 10.2567 74.5684 10.0827C74.812 9.90625 74.9338 9.69496 74.9338 9.44886C74.9338 9.25 74.8642 9.08345 74.725 8.94922C74.5858 8.8125 74.372 8.71058 74.0836 8.64347L73.1291 8.41974C72.6046 8.29545 72.2193 8.10281 71.9732 7.8418C71.7296 7.5783 71.6078 7.24893 71.6078 6.85369C71.6078 6.53054 71.6985 6.24467 71.88 5.99609C72.0639 5.74751 72.3137 5.55238 72.6294 5.41069C72.9476 5.269 73.3081 5.19815 73.7108 5.19815C74.2775 5.19815 74.7225 5.32244 75.0456 5.57102C75.3713 5.8196 75.6025 6.14773 75.7392 6.5554ZM77.1682 11V5.27273H78.0482V11H77.1682ZM77.6156 4.31818C77.4441 4.31818 77.2962 4.25977 77.1719 4.14293C77.0501 4.0261 76.9892 3.88565 76.9892 3.72159C76.9892 3.55753 77.0501 3.41708 77.1719 3.30025C77.2962 3.18342 77.4441 3.125 77.6156 3.125C77.7872 3.125 77.9338 3.18342 78.0556 3.30025C78.1799 3.41708 78.2421 3.55753 78.2421 3.72159C78.2421 3.88565 78.1799 4.0261 78.0556 4.14293C77.9338 4.25977 77.7872 4.31818 77.6156 4.31818ZM83.7167 6.5554L82.9262 6.77912C82.8765 6.64737 82.8032 6.51935 82.7062 6.39506C82.6118 6.26829 82.4825 6.16388 82.3184 6.08185C82.1544 5.99982 81.9443 5.95881 81.6883 5.95881C81.3378 5.95881 81.0457 6.0396 80.8121 6.20117C80.5809 6.36026 80.4653 6.56285 80.4653 6.80895C80.4653 7.0277 80.5448 7.20046 80.7039 7.32724C80.863 7.45401 81.1116 7.55966 81.4497 7.64418L82.2998 7.85298C82.8119 7.97727 83.1934 8.16744 83.4445 8.42347C83.6956 8.67702 83.8211 9.00391 83.8211 9.40412C83.8211 9.73224 83.7267 10.0256 83.5377 10.2841C83.3513 10.5426 83.0903 10.7464 82.7547 10.8956C82.4191 11.0447 82.0289 11.1193 81.5839 11.1193C80.9997 11.1193 80.5162 10.9925 80.1334 10.739C79.7506 10.4854 79.5083 10.1151 79.4063 9.62784L80.2416 9.41903C80.3211 9.72727 80.4715 9.95845 80.6927 10.1126C80.9165 10.2667 81.2085 10.3438 81.569 10.3438C81.9791 10.3438 82.3048 10.2567 82.5459 10.0827C82.7895 9.90625 82.9113 9.69496 82.9113 9.44886C82.9113 9.25 82.8417 9.08345 82.7025 8.94922C82.5633 8.8125 82.3495 8.71058 82.0612 8.64347L81.1066 8.41974C80.5821 8.29545 80.1968 8.10281 79.9507 7.8418C79.7071 7.5783 79.5853 7.24893 79.5853 6.85369C79.5853 6.53054 79.676 6.24467 79.8575 5.99609C80.0415 5.74751 80.2913 5.55238 80.607 5.41069C80.9252 5.269 81.2856 5.19815 81.6883 5.19815C82.2551 5.19815 82.7 5.32244 83.0232 5.57102C83.3488 5.8196 83.58 6.14773 83.7167 6.5554ZM88.0989 11V5.27273H88.9788V11H88.0989ZM88.5463 4.31818C88.3748 4.31818 88.2269 4.25977 88.1026 4.14293C87.9808 4.0261 87.9199 3.88565 87.9199 3.72159C87.9199 3.55753 87.9808 3.41708 88.1026 3.30025C88.2269 3.18342 88.3748 3.125 88.5463 3.125C88.7178 3.125 88.8645 3.18342 88.9863 3.30025C89.1106 3.41708 89.1727 3.55753 89.1727 3.72159C89.1727 3.88565 89.1106 4.0261 88.9863 4.14293C88.8645 4.25977 88.7178 4.31818 88.5463 4.31818ZM94.6474 6.5554L93.8569 6.77912C93.8072 6.64737 93.7338 6.51935 93.6369 6.39506C93.5424 6.26829 93.4132 6.16388 93.2491 6.08185C93.085 5.99982 92.875 5.95881 92.619 5.95881C92.2685 5.95881 91.9764 6.0396 91.7427 6.20117C91.5115 6.36026 91.396 6.56285 91.396 6.80895C91.396 7.0277 91.4755 7.20046 91.6346 7.32724C91.7937 7.45401 92.0423 7.55966 92.3803 7.64418L93.2305 7.85298C93.7425 7.97727 94.1241 8.16744 94.3752 8.42347C94.6262 8.67702 94.7518 9.00391 94.7518 9.40412C94.7518 9.73224 94.6573 10.0256 94.4684 10.2841C94.282 10.5426 94.021 10.7464 93.6854 10.8956C93.3498 11.0447 92.9595 11.1193 92.5146 11.1193C91.9304 11.1193 91.4469 10.9925 91.0641 10.739C90.6813 10.4854 90.4389 10.1151 90.337 9.62784L91.1722 9.41903C91.2518 9.72727 91.4022 9.95845 91.6234 10.1126C91.8471 10.2667 92.1392 10.3438 92.4996 10.3438C92.9098 10.3438 93.2354 10.2567 93.4766 10.0827C93.7202 9.90625 93.842 9.69496 93.842 9.44886C93.842 9.25 93.7724 9.08345 93.6332 8.94922C93.494 8.8125 93.2802 8.71058 92.9918 8.64347L92.0373 8.41974C91.5128 8.29545 91.1275 8.10281 90.8814 7.8418C90.6378 7.5783 90.516 7.24893 90.516 6.85369C90.516 6.53054 90.6067 6.24467 90.7882 5.99609C90.9721 5.74751 91.2219 5.55238 91.5376 5.41069C91.8558 5.269 92.2163 5.19815 92.619 5.19815C93.1857 5.19815 93.6307 5.32244 93.9538 5.57102C94.2795 5.8196 94.5107 6.14773 94.6474 6.5554ZM101.356 11.1193C100.839 11.1193 100.386 10.9963 99.9953 10.7502C99.6075 10.5041 99.3042 10.1598 99.0854 9.71733C98.8692 9.27486 98.7611 8.75781 98.7611 8.16619C98.7611 7.5696 98.8692 7.04883 99.0854 6.60387C99.3042 6.15891 99.6075 5.81339 99.9953 5.56729C100.386 5.3212 100.839 5.19815 101.356 5.19815C101.873 5.19815 102.326 5.3212 102.713 5.56729C103.104 5.81339 103.407 6.15891 103.623 6.60387C103.842 7.04883 103.951 7.5696 103.951 8.16619C103.951 8.75781 103.842 9.27486 103.623 9.71733C103.407 10.1598 103.104 10.5041 102.713 10.7502C102.326 10.9963 101.873 11.1193 101.356 11.1193ZM101.356 10.3288C101.749 10.3288 102.072 10.2282 102.326 10.0268C102.579 9.82546 102.767 9.56072 102.889 9.2326C103.011 8.90447 103.071 8.54901 103.071 8.16619C103.071 7.78338 103.011 7.42667 102.889 7.09606C102.767 6.76545 102.579 6.49822 102.326 6.29439C102.072 6.09055 101.749 5.98864 101.356 5.98864C100.963 5.98864 100.64 6.09055 100.387 6.29439C100.133 6.49822 99.9455 6.76545 99.8237 7.09606C99.7019 7.42667 99.641 7.78338 99.641 8.16619C99.641 8.54901 99.7019 8.90447 99.8237 9.2326C99.9455 9.56072 100.133 9.82546 100.387 10.0268C100.64 10.2282 100.963 10.3288 101.356 10.3288ZM106.175 7.55469V11H105.295V5.27273H106.145V6.16761H106.219C106.354 5.87678 106.557 5.64311 106.831 5.46662C107.104 5.28764 107.457 5.19815 107.89 5.19815C108.278 5.19815 108.617 5.2777 108.908 5.43679C109.199 5.59339 109.425 5.83203 109.586 6.1527C109.748 6.47088 109.829 6.87358 109.829 7.3608V11H108.949V7.42045C108.949 6.97053 108.832 6.62003 108.598 6.36896C108.365 6.11541 108.044 5.98864 107.636 5.98864C107.355 5.98864 107.104 6.04954 106.883 6.17134C106.664 6.29315 106.492 6.47088 106.365 6.70455C106.238 6.93821 106.175 7.22159 106.175 7.55469ZM113.838 11.1193C113.286 11.1193 112.81 10.9975 112.41 10.7539C112.012 10.5078 111.705 10.1648 111.489 9.72479C111.275 9.28232 111.168 8.76776 111.168 8.18111C111.168 7.59446 111.275 7.07741 111.489 6.62997C111.705 6.18004 112.006 5.82955 112.391 5.57848C112.779 5.32493 113.231 5.19815 113.749 5.19815C114.047 5.19815 114.341 5.24787 114.632 5.3473C114.923 5.44673 115.188 5.60831 115.426 5.83203C115.665 6.05327 115.855 6.34659 115.997 6.712C116.139 7.07741 116.209 7.52734 116.209 8.06179V8.43466H111.795V7.67401H115.315C115.315 7.35085 115.25 7.0625 115.121 6.80895C114.994 6.5554 114.812 6.35529 114.576 6.20863C114.343 6.06197 114.067 5.98864 113.749 5.98864C113.398 5.98864 113.095 6.07564 112.839 6.24964C112.585 6.42116 112.39 6.64489 112.253 6.92081C112.117 7.19673 112.048 7.49254 112.048 7.80824V8.31534C112.048 8.74787 112.123 9.11452 112.272 9.41531C112.424 9.7136 112.634 9.94105 112.902 10.0977C113.171 10.2518 113.483 10.3288 113.838 10.3288C114.069 10.3288 114.278 10.2965 114.464 10.2319C114.653 10.1648 114.816 10.0653 114.953 9.93359C115.09 9.79936 115.195 9.63281 115.27 9.43395L116.12 9.67259C116.03 9.96094 115.88 10.2145 115.669 10.4332C115.458 10.6495 115.197 10.8185 114.886 10.9403C114.575 11.0597 114.226 11.1193 113.838 11.1193ZM122.828 11.1193C122.311 11.1193 121.857 10.9963 121.467 10.7502C121.079 10.5041 120.776 10.1598 120.557 9.71733C120.341 9.27486 120.233 8.75781 120.233 8.16619C120.233 7.5696 120.341 7.04883 120.557 6.60387C120.776 6.15891 121.079 5.81339 121.467 5.56729C121.857 5.3212 122.311 5.19815 122.828 5.19815C123.345 5.19815 123.797 5.3212 124.185 5.56729C124.575 5.81339 124.879 6.15891 125.095 6.60387C125.314 7.04883 125.423 7.5696 125.423 8.16619C125.423 8.75781 125.314 9.27486 125.095 9.71733C124.879 10.1598 124.575 10.5041 124.185 10.7502C123.797 10.9963 123.345 11.1193 122.828 11.1193ZM122.828 10.3288C123.221 10.3288 123.544 10.2282 123.797 10.0268C124.051 9.82546 124.239 9.56072 124.36 9.2326C124.482 8.90447 124.543 8.54901 124.543 8.16619C124.543 7.78338 124.482 7.42667 124.36 7.09606C124.239 6.76545 124.051 6.49822 123.797 6.29439C123.544 6.09055 123.221 5.98864 122.828 5.98864C122.435 5.98864 122.112 6.09055 121.858 6.29439C121.605 6.49822 121.417 6.76545 121.295 7.09606C121.174 7.42667 121.113 7.78338 121.113 8.16619C121.113 8.54901 121.174 8.90447 121.295 9.2326C121.417 9.56072 121.605 9.82546 121.858 10.0268C122.112 10.2282 122.435 10.3288 122.828 10.3288ZM129.317 5.27273V6.01847H126.229V5.27273H129.317ZM127.154 11V4.48224C127.154 4.15412 127.231 3.88068 127.385 3.66193C127.539 3.44318 127.74 3.27912 127.986 3.16974C128.232 3.06037 128.491 3.00568 128.765 3.00568C128.981 3.00568 129.158 3.02308 129.294 3.05788C129.431 3.09268 129.533 3.125 129.6 3.15483L129.347 3.91548C129.302 3.90057 129.24 3.88192 129.16 3.85955C129.083 3.83718 128.981 3.82599 128.854 3.82599C128.564 3.82599 128.354 3.89932 128.224 4.04599C128.097 4.19265 128.034 4.40767 128.034 4.69105V11H127.154ZM134.383 7.55469V11H133.503V5.27273H134.353V6.16761H134.428C134.562 5.87678 134.766 5.64311 135.039 5.46662C135.313 5.28764 135.666 5.19815 136.098 5.19815C136.486 5.19815 136.825 5.2777 137.116 5.43679C137.407 5.59339 137.633 5.83203 137.795 6.1527C137.956 6.47088 138.037 6.87358 138.037 7.3608V11H137.157V7.42045C137.157 6.97053 137.04 6.62003 136.807 6.36896C136.573 6.11541 136.252 5.98864 135.845 5.98864C135.564 5.98864 135.313 6.04954 135.092 6.17134C134.873 6.29315 134.7 6.47088 134.573 6.70455C134.447 6.93821 134.383 7.22159 134.383 7.55469ZM141.331 11.1342C140.968 11.1342 140.638 11.0659 140.343 10.9292C140.047 10.79 139.812 10.5898 139.638 10.3288C139.464 10.0653 139.377 9.74716 139.377 9.37429C139.377 9.04616 139.441 8.78018 139.571 8.57635C139.7 8.37003 139.873 8.20845 140.089 8.09162C140.305 7.97479 140.544 7.88778 140.805 7.83061C141.068 7.77095 141.333 7.72372 141.599 7.68892C141.947 7.64418 142.229 7.61062 142.445 7.58825C142.664 7.56339 142.823 7.52237 142.923 7.4652C143.025 7.40803 143.076 7.30859 143.076 7.1669V7.13707C143.076 6.76918 142.975 6.48331 142.774 6.27947C142.575 6.07564 142.273 5.97372 141.868 5.97372C141.447 5.97372 141.118 6.0657 140.879 6.24964C140.641 6.43359 140.473 6.62997 140.376 6.83878L139.541 6.54048C139.69 6.19247 139.889 5.92152 140.137 5.72763C140.388 5.53125 140.662 5.39453 140.958 5.31747C141.256 5.23793 141.549 5.19815 141.838 5.19815C142.022 5.19815 142.233 5.22053 142.472 5.26527C142.713 5.30753 142.945 5.39577 143.169 5.53001C143.395 5.66424 143.583 5.86683 143.732 6.13778C143.881 6.40874 143.956 6.77166 143.956 7.22656V11H143.076V10.2244H143.031C142.971 10.3487 142.872 10.4817 142.733 10.6234C142.593 10.7651 142.408 10.8857 142.177 10.9851C141.946 11.0845 141.664 11.1342 141.331 11.1342ZM141.465 10.3438C141.813 10.3438 142.106 10.2754 142.345 10.1387C142.586 10.002 142.767 9.82546 142.889 9.6092C143.013 9.39293 143.076 9.16548 143.076 8.92685V8.12145C143.038 8.16619 142.956 8.20721 142.83 8.2445C142.705 8.2793 142.561 8.31037 142.397 8.33771C142.235 8.36257 142.078 8.38494 141.923 8.40483C141.772 8.42223 141.649 8.43714 141.554 8.44957C141.326 8.4794 141.112 8.52788 140.913 8.59499C140.717 8.65962 140.558 8.75781 140.436 8.88956C140.316 9.01882 140.257 9.19531 140.257 9.41903C140.257 9.72479 140.37 9.95597 140.596 10.1126C140.825 10.2667 141.114 10.3438 141.465 10.3438ZM148.053 5.27273V6.01847H145.084V5.27273H148.053ZM145.95 3.90057H146.83V9.35938C146.83 9.60795 146.866 9.79439 146.938 9.91868C147.012 10.0405 147.107 10.1225 147.221 10.1648C147.338 10.2045 147.461 10.2244 147.59 10.2244C147.687 10.2244 147.767 10.2195 147.829 10.2095C147.891 10.1971 147.941 10.1871 147.978 10.1797L148.157 10.9702C148.097 10.9925 148.014 11.0149 147.907 11.0373C147.8 11.0621 147.665 11.0746 147.501 11.0746C147.252 11.0746 147.008 11.0211 146.77 10.9142C146.534 10.8074 146.337 10.6445 146.181 10.4258C146.027 10.207 145.95 9.93111 145.95 9.59801V3.90057ZM152.986 8.65838V5.27273H153.866V11H152.986V10.0305H152.926C152.792 10.3214 152.583 10.5687 152.299 10.7725C152.016 10.9739 151.658 11.0746 151.226 11.0746C150.868 11.0746 150.549 10.9963 150.271 10.8397C149.993 10.6806 149.774 10.4419 149.615 10.1238C149.456 9.80309 149.376 9.39915 149.376 8.91193V5.27273H150.256V8.85227C150.256 9.26989 150.373 9.60298 150.607 9.85156C150.843 10.1001 151.144 10.2244 151.509 10.2244C151.728 10.2244 151.95 10.1685 152.176 10.0566C152.405 9.94478 152.597 9.77326 152.751 9.54208C152.907 9.3109 152.986 9.01634 152.986 8.65838ZM155.477 11V5.27273H156.327V6.13778H156.387C156.491 5.8544 156.68 5.62447 156.954 5.44798C157.227 5.27148 157.536 5.18324 157.879 5.18324C157.943 5.18324 158.024 5.18448 158.121 5.18697C158.218 5.18945 158.291 5.19318 158.341 5.19815V6.09304C158.311 6.08558 158.243 6.0744 158.136 6.05948C158.031 6.04208 157.921 6.03338 157.804 6.03338C157.526 6.03338 157.277 6.0918 157.058 6.20863C156.842 6.32298 156.67 6.48207 156.544 6.6859C156.419 6.88725 156.357 7.11719 156.357 7.37571V11H155.477ZM161.611 11.1193C161.059 11.1193 160.583 10.9975 160.183 10.7539C159.785 10.5078 159.478 10.1648 159.262 9.72479C159.048 9.28232 158.941 8.76776 158.941 8.18111C158.941 7.59446 159.048 7.07741 159.262 6.62997C159.478 6.18004 159.779 5.82955 160.164 5.57848C160.552 5.32493 161.004 5.19815 161.521 5.19815C161.82 5.19815 162.114 5.24787 162.405 5.3473C162.696 5.44673 162.961 5.60831 163.199 5.83203C163.438 6.05327 163.628 6.34659 163.77 6.712C163.912 7.07741 163.982 7.52734 163.982 8.06179V8.43466H159.568V7.67401H163.088C163.088 7.35085 163.023 7.0625 162.894 6.80895C162.767 6.5554 162.585 6.35529 162.349 6.20863C162.116 6.06197 161.84 5.98864 161.521 5.98864C161.171 5.98864 160.868 6.07564 160.612 6.24964C160.358 6.42116 160.163 6.64489 160.026 6.92081C159.89 7.19673 159.821 7.49254 159.821 7.80824V8.31534C159.821 8.74787 159.896 9.11452 160.045 9.41531C160.197 9.7136 160.407 9.94105 160.675 10.0977C160.944 10.2518 161.256 10.3288 161.611 10.3288C161.842 10.3288 162.051 10.2965 162.237 10.2319C162.426 10.1648 162.589 10.0653 162.726 9.93359C162.863 9.79936 162.968 9.63281 163.043 9.43395L163.893 9.67259C163.803 9.96094 163.653 10.2145 163.442 10.4332C163.23 10.6495 162.969 10.8185 162.659 10.9403C162.348 11.0597 161.999 11.1193 161.611 11.1193ZM166.082 3.36364V5.98864H165.261V3.36364H166.082ZM171.705 6.5554L170.915 6.77912C170.865 6.64737 170.792 6.51935 170.695 6.39506C170.601 6.26829 170.471 6.16388 170.307 6.08185C170.143 5.99982 169.933 5.95881 169.677 5.95881C169.327 5.95881 169.034 6.0396 168.801 6.20117C168.57 6.36026 168.454 6.56285 168.454 6.80895C168.454 7.0277 168.534 7.20046 168.693 7.32724C168.852 7.45401 169.1 7.55966 169.438 7.64418L170.289 7.85298C170.801 7.97727 171.182 8.16744 171.433 8.42347C171.684 8.67702 171.81 9.00391 171.81 9.40412C171.81 9.73224 171.715 10.0256 171.527 10.2841C171.34 10.5426 171.079 10.7464 170.743 10.8956C170.408 11.0447 170.018 11.1193 169.573 11.1193C168.989 11.1193 168.505 10.9925 168.122 10.739C167.739 10.4854 167.497 10.1151 167.395 9.62784L168.23 9.41903C168.31 9.72727 168.46 9.95845 168.682 10.1126C168.905 10.2667 169.197 10.3438 169.558 10.3438C169.968 10.3438 170.294 10.2567 170.535 10.0827C170.778 9.90625 170.9 9.69496 170.9 9.44886C170.9 9.25 170.83 9.08345 170.691 8.94922C170.552 8.8125 170.338 8.71058 170.05 8.64347L169.095 8.41974C168.571 8.29545 168.186 8.10281 167.939 7.8418C167.696 7.5783 167.574 7.24893 167.574 6.85369C167.574 6.53054 167.665 6.24467 167.846 5.99609C168.03 5.74751 168.28 5.55238 168.596 5.41069C168.914 5.269 169.274 5.19815 169.677 5.19815C170.244 5.19815 170.689 5.32244 171.012 5.57102C171.338 5.8196 171.569 6.14773 171.705 6.5554ZM176.088 11V5.27273H176.938V6.16761H177.012C177.132 5.86186 177.324 5.62447 177.59 5.45543C177.856 5.28391 178.176 5.19815 178.549 5.19815C178.926 5.19815 179.241 5.28391 179.492 5.45543C179.745 5.62447 179.943 5.86186 180.085 6.16761H180.144C180.291 5.8718 180.511 5.6369 180.804 5.46289C181.098 5.2864 181.449 5.19815 181.86 5.19815C182.372 5.19815 182.791 5.35849 183.116 5.67915C183.442 5.99734 183.605 6.49325 183.605 7.1669V11H182.725V7.1669C182.725 6.74432 182.609 6.44229 182.378 6.26083C182.147 6.07937 181.875 5.98864 181.561 5.98864C181.159 5.98864 180.847 6.11044 180.625 6.35405C180.404 6.59517 180.294 6.90092 180.294 7.27131V11H179.399V7.07741C179.399 6.75178 179.293 6.48952 179.082 6.29066C178.87 6.08931 178.598 5.98864 178.265 5.98864C178.036 5.98864 177.823 6.04954 177.624 6.17134C177.427 6.29315 177.268 6.46218 177.147 6.67844C177.027 6.89222 176.968 7.13956 176.968 7.42045V11H176.088ZM187.54 11.1193C187.023 11.1193 186.57 10.9963 186.179 10.7502C185.792 10.5041 185.488 10.1598 185.27 9.71733C185.053 9.27486 184.945 8.75781 184.945 8.16619C184.945 7.5696 185.053 7.04883 185.27 6.60387C185.488 6.15891 185.792 5.81339 186.179 5.56729C186.57 5.3212 187.023 5.19815 187.54 5.19815C188.057 5.19815 188.51 5.3212 188.898 5.56729C189.288 5.81339 189.591 6.15891 189.807 6.60387C190.026 7.04883 190.135 7.5696 190.135 8.16619C190.135 8.75781 190.026 9.27486 189.807 9.71733C189.591 10.1598 189.288 10.5041 188.898 10.7502C188.51 10.9963 188.057 11.1193 187.54 11.1193ZM187.54 10.3288C187.933 10.3288 188.256 10.2282 188.51 10.0268C188.763 9.82546 188.951 9.56072 189.073 9.2326C189.195 8.90447 189.256 8.54901 189.256 8.16619C189.256 7.78338 189.195 7.42667 189.073 7.09606C188.951 6.76545 188.763 6.49822 188.51 6.29439C188.256 6.09055 187.933 5.98864 187.54 5.98864C187.148 5.98864 186.824 6.09055 186.571 6.29439C186.317 6.49822 186.13 6.76545 186.008 7.09606C185.886 7.42667 185.825 7.78338 185.825 8.16619C185.825 8.54901 185.886 8.90447 186.008 9.2326C186.13 9.56072 186.317 9.82546 186.571 10.0268C186.824 10.2282 187.148 10.3288 187.54 10.3288ZM195.536 6.5554L194.745 6.77912C194.695 6.64737 194.622 6.51935 194.525 6.39506C194.431 6.26829 194.301 6.16388 194.137 6.08185C193.973 5.99982 193.763 5.95881 193.507 5.95881C193.157 5.95881 192.865 6.0396 192.631 6.20117C192.4 6.36026 192.284 6.56285 192.284 6.80895C192.284 7.0277 192.364 7.20046 192.523 7.32724C192.682 7.45401 192.93 7.55966 193.269 7.64418L194.119 7.85298C194.631 7.97727 195.012 8.16744 195.263 8.42347C195.514 8.67702 195.64 9.00391 195.64 9.40412C195.64 9.73224 195.545 10.0256 195.357 10.2841C195.17 10.5426 194.909 10.7464 194.574 10.8956C194.238 11.0447 193.848 11.1193 193.403 11.1193C192.819 11.1193 192.335 10.9925 191.952 10.739C191.569 10.4854 191.327 10.1151 191.225 9.62784L192.06 9.41903C192.14 9.72727 192.29 9.95845 192.512 10.1126C192.735 10.2667 193.027 10.3438 193.388 10.3438C193.798 10.3438 194.124 10.2567 194.365 10.0827C194.608 9.90625 194.73 9.69496 194.73 9.44886C194.73 9.25 194.661 9.08345 194.521 8.94922C194.382 8.8125 194.168 8.71058 193.88 8.64347L192.925 8.41974C192.401 8.29545 192.016 8.10281 191.77 7.8418C191.526 7.5783 191.404 7.24893 191.404 6.85369C191.404 6.53054 191.495 6.24467 191.676 5.99609C191.86 5.74751 192.11 5.55238 192.426 5.41069C192.744 5.269 193.104 5.19815 193.507 5.19815C194.074 5.19815 194.519 5.32244 194.842 5.57102C195.168 5.8196 195.399 6.14773 195.536 6.5554ZM199.455 5.27273V6.01847H196.487V5.27273H199.455ZM197.352 3.90057H198.232V9.35938C198.232 9.60795 198.268 9.79439 198.34 9.91868C198.415 10.0405 198.509 10.1225 198.624 10.1648C198.741 10.2045 198.864 10.2244 198.993 10.2244C199.09 10.2244 199.169 10.2195 199.232 10.2095C199.294 10.1971 199.343 10.1871 199.381 10.1797L199.56 10.9702C199.5 10.9925 199.417 11.0149 199.31 11.0373C199.203 11.0621 199.068 11.0746 198.903 11.0746C198.655 11.0746 198.411 11.0211 198.173 10.9142C197.937 10.8074 197.74 10.6445 197.584 10.4258C197.429 10.207 197.352 9.93111 197.352 9.59801V3.90057ZM208.415 5.27273L206.297 11H205.403L203.285 5.27273H204.239L205.82 9.83665H205.88L207.461 5.27273H208.415ZM209.577 11V5.27273H210.457V11H209.577ZM210.024 4.31818C209.853 4.31818 209.705 4.25977 209.581 4.14293C209.459 4.0261 209.398 3.88565 209.398 3.72159C209.398 3.55753 209.459 3.41708 209.581 3.30025C209.705 3.18342 209.853 3.125 210.024 3.125C210.196 3.125 210.343 3.18342 210.464 3.30025C210.589 3.41708 210.651 3.55753 210.651 3.72159C210.651 3.88565 210.589 4.0261 210.464 4.14293C210.343 4.25977 210.196 4.31818 210.024 4.31818ZM214.559 5.27273V6.01847H211.591V5.27273H214.559ZM212.456 3.90057H213.336V9.35938C213.336 9.60795 213.372 9.79439 213.444 9.91868C213.519 10.0405 213.614 10.1225 213.728 10.1648C213.845 10.2045 213.968 10.2244 214.097 10.2244C214.194 10.2244 214.273 10.2195 214.336 10.2095C214.398 10.1971 214.447 10.1871 214.485 10.1797L214.664 10.9702C214.604 10.9925 214.521 11.0149 214.414 11.0373C214.307 11.0621 214.172 11.0746 214.008 11.0746C213.759 11.0746 213.515 11.0211 213.277 10.9142C213.041 10.8074 212.844 10.6445 212.688 10.4258C212.533 10.207 212.456 9.93111 212.456 9.59801V3.90057ZM217.568 11.1342C217.205 11.1342 216.876 11.0659 216.58 10.9292C216.284 10.79 216.05 10.5898 215.876 10.3288C215.702 10.0653 215.615 9.74716 215.615 9.37429C215.615 9.04616 215.679 8.78018 215.808 8.57635C215.938 8.37003 216.11 8.20845 216.327 8.09162C216.543 7.97479 216.782 7.88778 217.043 7.83061C217.306 7.77095 217.571 7.72372 217.837 7.68892C218.185 7.64418 218.467 7.61062 218.683 7.58825C218.902 7.56339 219.061 7.52237 219.161 7.4652C219.262 7.40803 219.313 7.30859 219.313 7.1669V7.13707C219.313 6.76918 219.213 6.48331 219.011 6.27947C218.813 6.07564 218.511 5.97372 218.105 5.97372C217.685 5.97372 217.356 6.0657 217.117 6.24964C216.879 6.43359 216.711 6.62997 216.614 6.83878L215.779 6.54048C215.928 6.19247 216.127 5.92152 216.375 5.72763C216.626 5.53125 216.9 5.39453 217.196 5.31747C217.494 5.23793 217.787 5.19815 218.076 5.19815C218.259 5.19815 218.471 5.22053 218.709 5.26527C218.951 5.30753 219.183 5.39577 219.407 5.53001C219.633 5.66424 219.821 5.86683 219.97 6.13778C220.119 6.40874 220.193 6.77166 220.193 7.22656V11H219.313V10.2244H219.269C219.209 10.3487 219.11 10.4817 218.97 10.6234C218.831 10.7651 218.646 10.8857 218.415 10.9851C218.184 11.0845 217.902 11.1342 217.568 11.1342ZM217.703 10.3438C218.051 10.3438 218.344 10.2754 218.583 10.1387C218.824 10.002 219.005 9.82546 219.127 9.6092C219.251 9.39293 219.313 9.16548 219.313 8.92685V8.12145C219.276 8.16619 219.194 8.20721 219.067 8.2445C218.943 8.2793 218.799 8.31037 218.635 8.33771C218.473 8.36257 218.315 8.38494 218.161 8.40483C218.01 8.42223 217.887 8.43714 217.792 8.44957C217.563 8.4794 217.35 8.52788 217.151 8.59499C216.954 8.65962 216.795 8.75781 216.674 8.88956C216.554 9.01882 216.495 9.19531 216.495 9.41903C216.495 9.72479 216.608 9.95597 216.834 10.1126C217.063 10.2667 217.352 10.3438 217.703 10.3438ZM222.68 3.36364V11H221.8V3.36364H222.68ZM227.244 13.1477V5.27273H228.095V6.18253H228.199C228.264 6.0831 228.353 5.95632 228.467 5.8022C228.584 5.6456 228.751 5.50639 228.967 5.38459C229.186 5.2603 229.482 5.19815 229.854 5.19815C230.337 5.19815 230.762 5.31871 231.13 5.55984C231.498 5.80096 231.785 6.14276 231.991 6.58523C232.197 7.0277 232.3 7.54972 232.3 8.15128C232.3 8.75781 232.197 9.28356 231.991 9.72852C231.785 10.171 231.499 10.514 231.133 10.7576C230.768 10.9988 230.347 11.1193 229.869 11.1193C229.501 11.1193 229.207 11.0584 228.986 10.9366C228.764 10.8123 228.594 10.6719 228.475 10.5153C228.356 10.3562 228.264 10.2244 228.199 10.12H228.124V13.1477H227.244ZM228.109 8.13636C228.109 8.56889 228.173 8.95046 228.3 9.28107C228.426 9.6092 228.612 9.86648 228.855 10.0529C229.099 10.2369 229.397 10.3288 229.75 10.3288C230.118 10.3288 230.425 10.2319 230.671 10.038C230.92 9.84162 231.106 9.57812 231.23 9.24751C231.357 8.91442 231.42 8.54403 231.42 8.13636C231.42 7.73366 231.358 7.37074 231.234 7.04759C231.112 6.72195 230.927 6.46467 230.678 6.27575C230.432 6.08434 230.123 5.98864 229.75 5.98864C229.392 5.98864 229.091 6.07937 228.848 6.26083C228.604 6.43981 228.42 6.69087 228.296 7.01403C228.172 7.33469 228.109 7.70881 228.109 8.13636ZM233.643 11V5.27273H234.493V6.13778H234.553C234.657 5.8544 234.846 5.62447 235.119 5.44798C235.393 5.27148 235.701 5.18324 236.044 5.18324C236.109 5.18324 236.189 5.18448 236.286 5.18697C236.383 5.18945 236.457 5.19318 236.506 5.19815V6.09304C236.477 6.08558 236.408 6.0744 236.301 6.05948C236.197 6.04208 236.086 6.03338 235.97 6.03338C235.691 6.03338 235.443 6.0918 235.224 6.20863C235.008 6.32298 234.836 6.48207 234.709 6.6859C234.585 6.88725 234.523 7.11719 234.523 7.37571V11H233.643ZM239.702 11.1193C239.185 11.1193 238.731 10.9963 238.341 10.7502C237.953 10.5041 237.65 10.1598 237.431 9.71733C237.215 9.27486 237.107 8.75781 237.107 8.16619C237.107 7.5696 237.215 7.04883 237.431 6.60387C237.65 6.15891 237.953 5.81339 238.341 5.56729C238.731 5.3212 239.185 5.19815 239.702 5.19815C240.219 5.19815 240.671 5.3212 241.059 5.56729C241.449 5.81339 241.753 6.15891 241.969 6.60387C242.188 7.04883 242.297 7.5696 242.297 8.16619C242.297 8.75781 242.188 9.27486 241.969 9.71733C241.753 10.1598 241.449 10.5041 241.059 10.7502C240.671 10.9963 240.219 11.1193 239.702 11.1193ZM239.702 10.3288C240.095 10.3288 240.418 10.2282 240.671 10.0268C240.925 9.82546 241.113 9.56072 241.234 9.2326C241.356 8.90447 241.417 8.54901 241.417 8.16619C241.417 7.78338 241.356 7.42667 241.234 7.09606C241.113 6.76545 240.925 6.49822 240.671 6.29439C240.418 6.09055 240.095 5.98864 239.702 5.98864C239.309 5.98864 238.986 6.09055 238.732 6.29439C238.479 6.49822 238.291 6.76545 238.169 7.09606C238.048 7.42667 237.987 7.78338 237.987 8.16619C237.987 8.54901 238.048 8.90447 238.169 9.2326C238.291 9.56072 238.479 9.82546 238.732 10.0268C238.986 10.2282 239.309 10.3288 239.702 10.3288ZM245.967 11.1193C245.43 11.1193 244.968 10.9925 244.58 10.739C244.192 10.4854 243.894 10.1362 243.685 9.69123C243.476 9.24627 243.372 8.73793 243.372 8.16619C243.372 7.58452 243.479 7.0712 243.693 6.62624C243.909 6.1788 244.21 5.82955 244.595 5.57848C244.983 5.32493 245.435 5.19815 245.952 5.19815C246.355 5.19815 246.718 5.27273 247.041 5.42188C247.364 5.57102 247.629 5.77983 247.835 6.0483C248.041 6.31676 248.169 6.62997 248.219 6.98793H247.339C247.272 6.72692 247.123 6.49574 246.892 6.29439C246.663 6.09055 246.355 5.98864 245.967 5.98864C245.624 5.98864 245.323 6.07812 245.065 6.2571C244.809 6.43359 244.609 6.68342 244.464 7.00657C244.323 7.32724 244.252 7.70384 244.252 8.13636C244.252 8.57884 244.321 8.96413 244.461 9.29226C244.602 9.62038 244.801 9.87518 245.057 10.0566C245.316 10.2381 245.619 10.3288 245.967 10.3288C246.196 10.3288 246.403 10.2891 246.59 10.2095C246.776 10.13 246.934 10.0156 247.063 9.86648C247.193 9.71733 247.285 9.53835 247.339 9.32955H248.219C248.169 9.66761 248.046 9.97212 247.85 10.2431C247.656 10.5115 247.399 10.7253 247.078 10.8844C246.76 11.041 246.39 11.1193 245.967 11.1193ZM251.907 11.1193C251.355 11.1193 250.879 10.9975 250.479 10.7539C250.081 10.5078 249.774 10.1648 249.558 9.72479C249.344 9.28232 249.237 8.76776 249.237 8.18111C249.237 7.59446 249.344 7.07741 249.558 6.62997C249.774 6.18004 250.075 5.82955 250.46 5.57848C250.848 5.32493 251.3 5.19815 251.817 5.19815C252.116 5.19815 252.41 5.24787 252.701 5.3473C252.992 5.44673 253.257 5.60831 253.495 5.83203C253.734 6.05327 253.924 6.34659 254.066 6.712C254.207 7.07741 254.278 7.52734 254.278 8.06179V8.43466H249.864V7.67401H253.383C253.383 7.35085 253.319 7.0625 253.19 6.80895C253.063 6.5554 252.881 6.35529 252.645 6.20863C252.411 6.06197 252.136 5.98864 251.817 5.98864C251.467 5.98864 251.164 6.07564 250.908 6.24964C250.654 6.42116 250.459 6.64489 250.322 6.92081C250.185 7.19673 250.117 7.49254 250.117 7.80824V8.31534C250.117 8.74787 250.192 9.11452 250.341 9.41531C250.492 9.7136 250.703 9.94105 250.971 10.0977C251.239 10.2518 251.551 10.3288 251.907 10.3288C252.138 10.3288 252.347 10.2965 252.533 10.2319C252.722 10.1648 252.885 10.0653 253.022 9.93359C253.158 9.79936 253.264 9.63281 253.339 9.43395L254.189 9.67259C254.099 9.96094 253.949 10.2145 253.738 10.4332C253.526 10.6495 253.265 10.8185 252.955 10.9403C252.644 11.0597 252.295 11.1193 251.907 11.1193ZM259.674 6.5554L258.883 6.77912C258.834 6.64737 258.76 6.51935 258.663 6.39506C258.569 6.26829 258.44 6.16388 258.275 6.08185C258.111 5.99982 257.901 5.95881 257.645 5.95881C257.295 5.95881 257.003 6.0396 256.769 6.20117C256.538 6.36026 256.422 6.56285 256.422 6.80895C256.422 7.0277 256.502 7.20046 256.661 7.32724C256.82 7.45401 257.069 7.55966 257.407 7.64418L258.257 7.85298C258.769 7.97727 259.15 8.16744 259.402 8.42347C259.653 8.67702 259.778 9.00391 259.778 9.40412C259.778 9.73224 259.684 10.0256 259.495 10.2841C259.308 10.5426 259.047 10.7464 258.712 10.8956C258.376 11.0447 257.986 11.1193 257.541 11.1193C256.957 11.1193 256.473 10.9925 256.09 10.739C255.708 10.4854 255.465 10.1151 255.363 9.62784L256.199 9.41903C256.278 9.72727 256.429 9.95845 256.65 10.1126C256.873 10.2667 257.166 10.3438 257.526 10.3438C257.936 10.3438 258.262 10.2567 258.503 10.0827C258.747 9.90625 258.868 9.69496 258.868 9.44886C258.868 9.25 258.799 9.08345 258.66 8.94922C258.52 8.8125 258.307 8.71058 258.018 8.64347L257.064 8.41974C256.539 8.29545 256.154 8.10281 255.908 7.8418C255.664 7.5783 255.542 7.24893 255.542 6.85369C255.542 6.53054 255.633 6.24467 255.815 5.99609C255.998 5.74751 256.248 5.55238 256.564 5.41069C256.882 5.269 257.243 5.19815 257.645 5.19815C258.212 5.19815 258.657 5.32244 258.98 5.57102C259.306 5.8196 259.537 6.14773 259.674 6.5554ZM265.16 6.5554L264.369 6.77912C264.319 6.64737 264.246 6.51935 264.149 6.39506C264.055 6.26829 263.925 6.16388 263.761 6.08185C263.597 5.99982 263.387 5.95881 263.131 5.95881C262.781 5.95881 262.489 6.0396 262.255 6.20117C262.024 6.36026 261.908 6.56285 261.908 6.80895C261.908 7.0277 261.988 7.20046 262.147 7.32724C262.306 7.45401 262.554 7.55966 262.893 7.64418L263.743 7.85298C264.255 7.97727 264.636 8.16744 264.887 8.42347C265.138 8.67702 265.264 9.00391 265.264 9.40412C265.264 9.73224 265.17 10.0256 264.981 10.2841C264.794 10.5426 264.533 10.7464 264.198 10.8956C263.862 11.0447 263.472 11.1193 263.027 11.1193C262.443 11.1193 261.959 10.9925 261.576 10.739C261.193 10.4854 260.951 10.1151 260.849 9.62784L261.684 9.41903C261.764 9.72727 261.914 9.95845 262.136 10.1126C262.359 10.2667 262.651 10.3438 263.012 10.3438C263.422 10.3438 263.748 10.2567 263.989 10.0827C264.232 9.90625 264.354 9.69496 264.354 9.44886C264.354 9.25 264.285 9.08345 264.145 8.94922C264.006 8.8125 263.792 8.71058 263.504 8.64347L262.549 8.41974C262.025 8.29545 261.64 8.10281 261.394 7.8418C261.15 7.5783 261.028 7.24893 261.028 6.85369C261.028 6.53054 261.119 6.24467 261.3 5.99609C261.484 5.74751 261.734 5.55238 262.05 5.41069C262.368 5.269 262.728 5.19815 263.131 5.19815C263.698 5.19815 264.143 5.32244 264.466 5.57102C264.792 5.8196 265.023 6.14773 265.16 6.5554ZM268.99 11.1193C268.438 11.1193 267.962 10.9975 267.562 10.7539C267.164 10.5078 266.857 10.1648 266.641 9.72479C266.427 9.28232 266.32 8.76776 266.32 8.18111C266.32 7.59446 266.427 7.07741 266.641 6.62997C266.857 6.18004 267.158 5.82955 267.543 5.57848C267.931 5.32493 268.383 5.19815 268.9 5.19815C269.199 5.19815 269.493 5.24787 269.784 5.3473C270.075 5.44673 270.34 5.60831 270.578 5.83203C270.817 6.05327 271.007 6.34659 271.149 6.712C271.29 7.07741 271.361 7.52734 271.361 8.06179V8.43466H266.947V7.67401H270.466C270.466 7.35085 270.402 7.0625 270.273 6.80895C270.146 6.5554 269.964 6.35529 269.728 6.20863C269.494 6.06197 269.219 5.98864 268.9 5.98864C268.55 5.98864 268.247 6.07564 267.991 6.24964C267.737 6.42116 267.542 6.64489 267.405 6.92081C267.268 7.19673 267.2 7.49254 267.2 7.80824V8.31534C267.2 8.74787 267.275 9.11452 267.424 9.41531C267.575 9.7136 267.786 9.94105 268.054 10.0977C268.322 10.2518 268.634 10.3288 268.99 10.3288C269.221 10.3288 269.43 10.2965 269.616 10.2319C269.805 10.1648 269.968 10.0653 270.105 9.93359C270.241 9.79936 270.347 9.63281 270.422 9.43395L271.272 9.67259C271.182 9.96094 271.032 10.2145 270.821 10.4332C270.609 10.6495 270.348 10.8185 270.038 10.9403C269.727 11.0597 269.378 11.1193 268.99 11.1193ZM276.757 6.5554L275.966 6.77912C275.917 6.64737 275.843 6.51935 275.746 6.39506C275.652 6.26829 275.523 6.16388 275.358 6.08185C275.194 5.99982 274.984 5.95881 274.728 5.95881C274.378 5.95881 274.086 6.0396 273.852 6.20117C273.621 6.36026 273.505 6.56285 273.505 6.80895C273.505 7.0277 273.585 7.20046 273.744 7.32724C273.903 7.45401 274.152 7.55966 274.49 7.64418L275.34 7.85298C275.852 7.97727 276.233 8.16744 276.485 8.42347C276.736 8.67702 276.861 9.00391 276.861 9.40412C276.861 9.73224 276.767 10.0256 276.578 10.2841C276.391 10.5426 276.13 10.7464 275.795 10.8956C275.459 11.0447 275.069 11.1193 274.624 11.1193C274.04 11.1193 273.556 10.9925 273.173 10.739C272.791 10.4854 272.548 10.1151 272.446 9.62784L273.282 9.41903C273.361 9.72727 273.512 9.95845 273.733 10.1126C273.956 10.2667 274.249 10.3438 274.609 10.3438C275.019 10.3438 275.345 10.2567 275.586 10.0827C275.83 9.90625 275.951 9.69496 275.951 9.44886C275.951 9.25 275.882 9.08345 275.743 8.94922C275.603 8.8125 275.39 8.71058 275.101 8.64347L274.147 8.41974C273.622 8.29545 273.237 8.10281 272.991 7.8418C272.747 7.5783 272.625 7.24893 272.625 6.85369C272.625 6.53054 272.716 6.24467 272.898 5.99609C273.081 5.74751 273.331 5.55238 273.647 5.41069C273.965 5.269 274.326 5.19815 274.728 5.19815C275.295 5.19815 275.74 5.32244 276.063 5.57102C276.389 5.8196 276.62 6.14773 276.757 6.5554ZM278.827 11.0597C278.643 11.0597 278.485 10.9938 278.354 10.862C278.222 10.7303 278.156 10.5724 278.156 10.3885C278.156 10.2045 278.222 10.0467 278.354 9.91495C278.485 9.7832 278.643 9.71733 278.827 9.71733C279.011 9.71733 279.169 9.7832 279.301 9.91495C279.432 10.0467 279.498 10.2045 279.498 10.3885C279.498 10.5103 279.467 10.6222 279.405 10.7241C279.345 10.826 279.265 10.908 279.163 10.9702C279.063 11.0298 278.951 11.0597 278.827 11.0597Z" fill="#131144"/>
<path d="M94.3864 58.0909C93.9924 58.0909 93.6468 57.9972 93.3494 57.8097C93.054 57.6222 92.8229 57.3598 92.6562 57.0227C92.4915 56.6856 92.4091 56.2917 92.4091 55.8409C92.4091 55.3864 92.4915 54.9896 92.6562 54.6506C92.8229 54.3116 93.054 54.0483 93.3494 53.8608C93.6468 53.6733 93.9924 53.5795 94.3864 53.5795C94.7803 53.5795 95.125 53.6733 95.4205 53.8608C95.7178 54.0483 95.9489 54.3116 96.1136 54.6506C96.2803 54.9896 96.3636 55.3864 96.3636 55.8409C96.3636 56.2917 96.2803 56.6856 96.1136 57.0227C95.9489 57.3598 95.7178 57.6222 95.4205 57.8097C95.125 57.9972 94.7803 58.0909 94.3864 58.0909ZM94.3864 57.4886C94.6856 57.4886 94.9318 57.4119 95.125 57.2585C95.3182 57.1051 95.4612 56.9034 95.554 56.6534C95.6468 56.4034 95.6932 56.1326 95.6932 55.8409C95.6932 55.5492 95.6468 55.2775 95.554 55.0256C95.4612 54.7737 95.3182 54.5701 95.125 54.4148C94.9318 54.2595 94.6856 54.1818 94.3864 54.1818C94.0871 54.1818 93.8409 54.2595 93.6477 54.4148C93.4545 54.5701 93.3116 54.7737 93.2188 55.0256C93.1259 55.2775 93.0795 55.5492 93.0795 55.8409C93.0795 56.1326 93.1259 56.4034 93.2188 56.6534C93.3116 56.9034 93.4545 57.1051 93.6477 57.2585C93.8409 57.4119 94.0871 57.4886 94.3864 57.4886ZM100.799 53.6364L99.1854 58H98.5036L96.8899 53.6364H97.6172L98.8217 57.1136H98.8672L100.072 53.6364H100.799ZM103.357 58.0909C102.937 58.0909 102.574 57.9981 102.269 57.8125C101.966 57.625 101.732 57.3636 101.567 57.0284C101.405 56.6913 101.323 56.2992 101.323 55.8523C101.323 55.4053 101.405 55.0114 101.567 54.6705C101.732 54.3277 101.961 54.0606 102.255 53.8693C102.55 53.6761 102.895 53.5795 103.289 53.5795C103.516 53.5795 103.741 53.6174 103.962 53.6932C104.184 53.7689 104.386 53.892 104.567 54.0625C104.749 54.2311 104.894 54.4545 105.002 54.733C105.11 55.0114 105.164 55.3542 105.164 55.7614V56.0455H101.8V55.4659H104.482C104.482 55.2197 104.433 55 104.335 54.8068C104.238 54.6136 104.1 54.4612 103.92 54.3494C103.742 54.2377 103.531 54.1818 103.289 54.1818C103.022 54.1818 102.791 54.2481 102.596 54.3807C102.403 54.5114 102.254 54.6818 102.15 54.892C102.046 55.1023 101.994 55.3277 101.994 55.5682V55.9545C101.994 56.2841 102.05 56.5634 102.164 56.7926C102.28 57.0199 102.44 57.1932 102.644 57.3125C102.849 57.4299 103.086 57.4886 103.357 57.4886C103.533 57.4886 103.692 57.464 103.835 57.4148C103.978 57.3636 104.103 57.2879 104.207 57.1875C104.311 57.0852 104.391 56.9583 104.448 56.8068L105.096 56.9886C105.028 57.2083 104.913 57.4015 104.752 57.5682C104.591 57.733 104.392 57.8617 104.156 57.9545C103.919 58.0455 103.653 58.0909 103.357 58.0909ZM106.184 58V53.6364H106.832V54.2955H106.877C106.957 54.0795 107.101 53.9044 107.309 53.7699C107.517 53.6354 107.752 53.5682 108.013 53.5682C108.063 53.5682 108.124 53.5691 108.198 53.571C108.272 53.5729 108.328 53.5758 108.366 53.5795V54.2614C108.343 54.2557 108.291 54.2472 108.21 54.2358C108.13 54.2225 108.046 54.2159 107.957 54.2159C107.745 54.2159 107.555 54.2604 107.388 54.3494C107.224 54.4366 107.093 54.5578 106.996 54.7131C106.902 54.8665 106.854 55.0417 106.854 55.2386V58H106.184ZM109.831 52.1818V58H109.161V52.1818H109.831ZM112.343 58.1023C112.067 58.1023 111.816 58.0502 111.59 57.946C111.365 57.84 111.186 57.6875 111.053 57.4886C110.921 57.2879 110.854 57.0455 110.854 56.7614C110.854 56.5114 110.904 56.3087 111.002 56.1534C111.101 55.9962 111.232 55.8731 111.397 55.7841C111.562 55.6951 111.744 55.6288 111.942 55.5852C112.143 55.5398 112.345 55.5038 112.548 55.4773C112.813 55.4432 113.028 55.4176 113.192 55.4006C113.359 55.3816 113.48 55.3504 113.556 55.3068C113.634 55.2633 113.673 55.1875 113.673 55.0795V55.0568C113.673 54.7765 113.596 54.5587 113.442 54.4034C113.291 54.2481 113.061 54.1705 112.752 54.1705C112.432 54.1705 112.181 54.2405 111.999 54.3807C111.817 54.5208 111.69 54.6705 111.616 54.8295L110.979 54.6023C111.093 54.3371 111.245 54.1307 111.434 53.983C111.625 53.8333 111.834 53.7292 112.059 53.6705C112.286 53.6098 112.51 53.5795 112.729 53.5795C112.87 53.5795 113.031 53.5966 113.212 53.6307C113.396 53.6629 113.573 53.7301 113.744 53.8324C113.916 53.9347 114.059 54.089 114.173 54.2955C114.286 54.5019 114.343 54.7784 114.343 55.125V58H113.673V57.4091H113.638C113.593 57.5038 113.517 57.6051 113.411 57.7131C113.305 57.821 113.164 57.9129 112.988 57.9886C112.812 58.0644 112.597 58.1023 112.343 58.1023ZM112.445 57.5C112.71 57.5 112.934 57.4479 113.116 57.3438C113.299 57.2396 113.438 57.1051 113.531 56.9403C113.625 56.7756 113.673 56.6023 113.673 56.4205V55.8068C113.644 55.8409 113.582 55.8722 113.485 55.9006C113.39 55.9271 113.281 55.9508 113.156 55.9716C113.032 55.9905 112.912 56.0076 112.795 56.0227C112.679 56.036 112.585 56.0473 112.513 56.0568C112.339 56.0795 112.176 56.1165 112.025 56.1676C111.875 56.2169 111.754 56.2917 111.661 56.392C111.57 56.4905 111.525 56.625 111.525 56.7955C111.525 57.0284 111.611 57.2045 111.783 57.3239C111.958 57.4413 112.178 57.5 112.445 57.5ZM115.567 59.6364V53.6364H116.214V54.3295H116.294C116.343 54.2538 116.411 54.1572 116.499 54.0398C116.588 53.9205 116.714 53.8144 116.879 53.7216C117.046 53.6269 117.271 53.5795 117.555 53.5795C117.923 53.5795 118.247 53.6714 118.527 53.8551C118.807 54.0388 119.026 54.2992 119.183 54.6364C119.34 54.9735 119.419 55.3712 119.419 55.8295C119.419 56.2917 119.34 56.6922 119.183 57.0312C119.026 57.3684 118.808 57.6297 118.53 57.8153C118.251 57.9991 117.93 58.0909 117.567 58.0909C117.286 58.0909 117.062 58.0445 116.893 57.9517C116.725 57.857 116.595 57.75 116.504 57.6307C116.413 57.5095 116.343 57.4091 116.294 57.3295H116.237V59.6364H115.567ZM116.226 55.8182C116.226 56.1477 116.274 56.4384 116.371 56.6903C116.467 56.9403 116.608 57.1364 116.794 57.2784C116.98 57.4186 117.207 57.4886 117.476 57.4886C117.756 57.4886 117.99 57.4148 118.178 57.267C118.367 57.1174 118.509 56.9167 118.604 56.6648C118.7 56.411 118.749 56.1288 118.749 55.8182C118.749 55.5114 118.701 55.2348 118.607 54.9886C118.514 54.7405 118.373 54.5445 118.183 54.4006C117.996 54.2547 117.76 54.1818 117.476 54.1818C117.203 54.1818 116.974 54.2509 116.788 54.3892C116.603 54.5256 116.463 54.7169 116.368 54.9631C116.273 55.2074 116.226 55.4924 116.226 55.8182Z" fill="#130C49"/>
<path d="M198.386 58.0909C197.992 58.0909 197.647 57.9972 197.349 57.8097C197.054 57.6222 196.823 57.3598 196.656 57.0227C196.491 56.6856 196.409 56.2917 196.409 55.8409C196.409 55.3864 196.491 54.9896 196.656 54.6506C196.823 54.3116 197.054 54.0483 197.349 53.8608C197.647 53.6733 197.992 53.5795 198.386 53.5795C198.78 53.5795 199.125 53.6733 199.42 53.8608C199.718 54.0483 199.949 54.3116 200.114 54.6506C200.28 54.9896 200.364 55.3864 200.364 55.8409C200.364 56.2917 200.28 56.6856 200.114 57.0227C199.949 57.3598 199.718 57.6222 199.42 57.8097C199.125 57.9972 198.78 58.0909 198.386 58.0909ZM198.386 57.4886C198.686 57.4886 198.932 57.4119 199.125 57.2585C199.318 57.1051 199.461 56.9034 199.554 56.6534C199.647 56.4034 199.693 56.1326 199.693 55.8409C199.693 55.5492 199.647 55.2775 199.554 55.0256C199.461 54.7737 199.318 54.5701 199.125 54.4148C198.932 54.2595 198.686 54.1818 198.386 54.1818C198.087 54.1818 197.841 54.2595 197.648 54.4148C197.455 54.5701 197.312 54.7737 197.219 55.0256C197.126 55.2775 197.08 55.5492 197.08 55.8409C197.08 56.1326 197.126 56.4034 197.219 56.6534C197.312 56.9034 197.455 57.1051 197.648 57.2585C197.841 57.4119 198.087 57.4886 198.386 57.4886ZM204.799 53.6364L203.185 58H202.504L200.89 53.6364H201.617L202.822 57.1136H202.867L204.072 53.6364H204.799ZM207.357 58.0909C206.937 58.0909 206.574 57.9981 206.269 57.8125C205.966 57.625 205.732 57.3636 205.567 57.0284C205.405 56.6913 205.323 56.2992 205.323 55.8523C205.323 55.4053 205.405 55.0114 205.567 54.6705C205.732 54.3277 205.961 54.0606 206.255 53.8693C206.55 53.6761 206.895 53.5795 207.289 53.5795C207.516 53.5795 207.741 53.6174 207.962 53.6932C208.184 53.7689 208.386 53.892 208.567 54.0625C208.749 54.2311 208.894 54.4545 209.002 54.733C209.11 55.0114 209.164 55.3542 209.164 55.7614V56.0455H205.8V55.4659H208.482C208.482 55.2197 208.433 55 208.335 54.8068C208.238 54.6136 208.1 54.4612 207.92 54.3494C207.742 54.2377 207.531 54.1818 207.289 54.1818C207.022 54.1818 206.791 54.2481 206.596 54.3807C206.403 54.5114 206.254 54.6818 206.15 54.892C206.046 55.1023 205.994 55.3277 205.994 55.5682V55.9545C205.994 56.2841 206.05 56.5634 206.164 56.7926C206.28 57.0199 206.44 57.1932 206.644 57.3125C206.849 57.4299 207.086 57.4886 207.357 57.4886C207.533 57.4886 207.692 57.464 207.835 57.4148C207.978 57.3636 208.103 57.2879 208.207 57.1875C208.311 57.0852 208.391 56.9583 208.448 56.8068L209.096 56.9886C209.028 57.2083 208.913 57.4015 208.752 57.5682C208.591 57.733 208.392 57.8617 208.156 57.9545C207.919 58.0455 207.653 58.0909 207.357 58.0909ZM210.184 58V53.6364H210.832V54.2955H210.877C210.957 54.0795 211.101 53.9044 211.309 53.7699C211.517 53.6354 211.752 53.5682 212.013 53.5682C212.063 53.5682 212.124 53.5691 212.198 53.571C212.272 53.5729 212.328 53.5758 212.366 53.5795V54.2614C212.343 54.2557 212.291 54.2472 212.21 54.2358C212.13 54.2225 212.046 54.2159 211.957 54.2159C211.745 54.2159 211.555 54.2604 211.388 54.3494C211.224 54.4366 211.093 54.5578 210.996 54.7131C210.902 54.8665 210.854 55.0417 210.854 55.2386V58H210.184ZM213.831 52.1818V58H213.161V52.1818H213.831ZM216.343 58.1023C216.067 58.1023 215.816 58.0502 215.59 57.946C215.365 57.84 215.186 57.6875 215.053 57.4886C214.921 57.2879 214.854 57.0455 214.854 56.7614C214.854 56.5114 214.904 56.3087 215.002 56.1534C215.101 55.9962 215.232 55.8731 215.397 55.7841C215.562 55.6951 215.744 55.6288 215.942 55.5852C216.143 55.5398 216.345 55.5038 216.548 55.4773C216.813 55.4432 217.028 55.4176 217.192 55.4006C217.359 55.3816 217.48 55.3504 217.556 55.3068C217.634 55.2633 217.673 55.1875 217.673 55.0795V55.0568C217.673 54.7765 217.596 54.5587 217.442 54.4034C217.291 54.2481 217.061 54.1705 216.752 54.1705C216.432 54.1705 216.181 54.2405 215.999 54.3807C215.817 54.5208 215.69 54.6705 215.616 54.8295L214.979 54.6023C215.093 54.3371 215.245 54.1307 215.434 53.983C215.625 53.8333 215.834 53.7292 216.059 53.6705C216.286 53.6098 216.51 53.5795 216.729 53.5795C216.87 53.5795 217.031 53.5966 217.212 53.6307C217.396 53.6629 217.573 53.7301 217.744 53.8324C217.916 53.9347 218.059 54.089 218.173 54.2955C218.286 54.5019 218.343 54.7784 218.343 55.125V58H217.673V57.4091H217.638C217.593 57.5038 217.517 57.6051 217.411 57.7131C217.305 57.821 217.164 57.9129 216.988 57.9886C216.812 58.0644 216.597 58.1023 216.343 58.1023ZM216.445 57.5C216.71 57.5 216.934 57.4479 217.116 57.3438C217.299 57.2396 217.438 57.1051 217.531 56.9403C217.625 56.7756 217.673 56.6023 217.673 56.4205V55.8068C217.644 55.8409 217.582 55.8722 217.485 55.9006C217.39 55.9271 217.281 55.9508 217.156 55.9716C217.032 55.9905 216.912 56.0076 216.795 56.0227C216.679 56.036 216.585 56.0473 216.513 56.0568C216.339 56.0795 216.176 56.1165 216.025 56.1676C215.875 56.2169 215.754 56.2917 215.661 56.392C215.57 56.4905 215.525 56.625 215.525 56.7955C215.525 57.0284 215.611 57.2045 215.783 57.3239C215.958 57.4413 216.178 57.5 216.445 57.5ZM219.567 59.6364V53.6364H220.214V54.3295H220.294C220.343 54.2538 220.411 54.1572 220.499 54.0398C220.588 53.9205 220.714 53.8144 220.879 53.7216C221.046 53.6269 221.271 53.5795 221.555 53.5795C221.923 53.5795 222.247 53.6714 222.527 53.8551C222.807 54.0388 223.026 54.2992 223.183 54.6364C223.34 54.9735 223.419 55.3712 223.419 55.8295C223.419 56.2917 223.34 56.6922 223.183 57.0312C223.026 57.3684 222.808 57.6297 222.53 57.8153C222.251 57.9991 221.93 58.0909 221.567 58.0909C221.286 58.0909 221.062 58.0445 220.893 57.9517C220.725 57.857 220.595 57.75 220.504 57.6307C220.413 57.5095 220.343 57.4091 220.294 57.3295H220.237V59.6364H219.567ZM220.226 55.8182C220.226 56.1477 220.274 56.4384 220.371 56.6903C220.467 56.9403 220.608 57.1364 220.794 57.2784C220.98 57.4186 221.207 57.4886 221.476 57.4886C221.756 57.4886 221.99 57.4148 222.178 57.267C222.367 57.1174 222.509 56.9167 222.604 56.6648C222.7 56.411 222.749 56.1288 222.749 55.8182C222.749 55.5114 222.701 55.2348 222.607 54.9886C222.514 54.7405 222.373 54.5445 222.183 54.4006C221.996 54.2547 221.76 54.1818 221.476 54.1818C221.203 54.1818 220.974 54.2509 220.788 54.3892C220.603 54.5256 220.463 54.7169 220.368 54.9631C220.273 55.2074 220.226 55.4924 220.226 55.8182Z" fill="#130C49"/>
<defs>
<clipPath id="clip0_7703_161">
<rect width="284.523" height="48" fill="white"/>
</clipPath>
</defs>
</svg>
