<svg width="21" height="23" viewBox="0 0 21 23" fill="none" xmlns="http://www.w3.org/2000/svg">
<g id="Group">
<path id="Vector" d="M10.3258 22.9981C9.99561 22.9981 9.66936 22.9125 9.37457 22.7454L0.951213 17.937C0.365548 17.6028 0 16.9769 0 16.3083V6.68776C0 6.01918 0.365548 5.39336 0.951213 5.05907L9.37457 0.250718C9.96023 -0.0835728 10.6913 -0.0835728 11.277 0.250718L19.7003 5.05907C20.286 5.39336 20.6516 6.01918 20.6516 6.68776V16.3083C20.6516 16.9769 20.286 17.6028 19.7003 17.937L11.277 22.7454C10.9822 22.9125 10.656 22.9981 10.3258 22.9981ZM10.3258 0.483945C10.0821 0.483945 9.83838 0.546138 9.6222 0.670526L1.19885 5.47887C0.762545 5.72765 0.495261 6.19021 0.495261 6.68776V16.3083C0.495261 16.8059 0.766475 17.2685 1.19885 17.5172L9.6222 22.3256C10.0585 22.5744 10.597 22.5744 11.0333 22.3256L19.4566 17.5172C19.8929 17.2685 20.1602 16.8059 20.1602 16.3083V6.68776C20.1602 6.19021 19.889 5.72765 19.4566 5.47887L11.0294 0.670526C10.8132 0.546138 10.5695 0.483945 10.3258 0.483945Z" fill="#61BD73"/>
<path id="Vector_2" d="M12.3128 8.89954V11.3212L10.3239 10.1862L8.33497 11.3212V8.89954L5.97266 10.2522V12.8139L8.20919 14.0966L10.3239 12.8877L12.4386 14.0966L14.6751 12.8139V10.2561L12.3128 8.89954Z" fill="#61BD73"/>
</g>
</svg>
