<svg width="69" height="50" viewBox="0 0 69 50" fill="none" xmlns="http://www.w3.org/2000/svg">
<g id="Layer_1" clip-path="url(#clip0_4576_7493)">
<g id="Group" opacity="0.8">
<path id="Vector" d="M55.3526 49.5236C54.4492 49.5236 53.6271 48.9146 53.3885 48.0011C53.1094 46.915 53.759 45.8086 54.8451 45.5295C60.6206 44.0374 64.6502 38.8253 64.6502 32.8519C64.6502 26.8785 60.4785 21.4633 54.5051 20.088C53.4139 19.8342 52.7288 18.7481 52.9825 17.6519C53.2363 16.5608 54.3224 15.8807 55.4135 16.1294C63.2393 17.931 68.7103 24.8078 68.7103 32.8468C68.7103 40.8858 63.4271 47.4986 55.8601 49.4576C55.6876 49.5033 55.5201 49.5236 55.3526 49.5236Z" fill="#2A97E1"/>
</g>
<g id="Group_2" opacity="0.8">
<path id="Vector_2" d="M51.5562 49.9992C42.0962 49.9992 34.4023 42.3053 34.4023 32.8453C34.4023 23.3853 42.0962 15.6914 51.5562 15.6914C52.8605 15.6914 54.1597 15.8386 55.4184 16.1279C56.5095 16.3816 57.1947 17.4677 56.9409 18.5588C56.6872 19.65 55.6011 20.3351 54.5099 20.0814C53.5507 19.8581 52.556 19.7464 51.5613 19.7464C44.3394 19.7464 38.4675 25.6183 38.4675 32.8402C38.4675 40.0621 44.3394 45.934 51.5613 45.934C52.5408 45.934 53.5203 45.8274 54.4643 45.6092C55.5605 45.3605 56.6466 46.0507 56.8902 47.1419C57.1388 48.2381 56.4537 49.3242 55.3575 49.5678C54.1192 49.8469 52.8402 49.989 51.5562 49.989V49.9992Z" fill="#2A97E1"/>
</g>
<g id="Group_3" opacity="0.8">
<path id="Vector_3" d="M20.9501 34.394C20.0467 34.394 19.2245 33.785 18.986 32.8714C18.7069 31.7854 19.3565 30.679 20.4426 30.3999C26.218 28.9078 30.2477 23.6956 30.2477 17.7222C30.2477 10.5004 24.3758 4.62845 17.1539 4.62845C9.93199 4.62845 4.06009 10.5004 4.06009 17.7222C4.06009 20.8536 5.18169 23.8885 7.22696 26.2586C7.95778 27.1061 7.86135 28.3901 7.0138 29.1209C6.16119 29.8518 4.88226 29.7553 4.15144 28.9078C1.47178 25.8018 0 21.828 0 17.7222C0 8.26223 7.69387 0.568359 17.1539 0.568359C26.6139 0.568359 34.3078 8.26223 34.3078 17.7222C34.3078 25.5481 29.0246 32.3741 21.4576 34.3331C21.285 34.3788 21.1175 34.3991 20.9501 34.3991V34.394Z" fill="#61BD73"/>
</g>
<g id="Group_4" opacity="0.8">
<path id="Vector_4" d="M17.1548 34.8764C12.1558 34.8764 7.41054 32.6991 4.14724 28.908C3.41643 28.0605 3.51285 26.7765 4.3604 26.0457C5.21301 25.3149 6.49194 25.4113 7.22276 26.2588C9.71464 29.1567 13.3332 30.8163 17.1548 30.8163C18.1342 30.8163 19.1137 30.7097 20.0577 30.4966C21.1489 30.2479 22.24 30.933 22.4836 32.0292C22.7323 33.1255 22.0472 34.2115 20.9509 34.4551C19.7126 34.7343 18.4337 34.8764 17.1497 34.8764H17.1548Z" fill="#61BD73"/>
</g>
<g id="Group_5" opacity="0.8">
<path id="Vector_5" d="M27.0402 49.5949C26.5936 49.5949 26.1419 49.4325 25.7917 49.0975C25.0609 48.4073 25.0305 47.2553 25.7207 46.5244L25.8526 46.3874C26.553 45.6668 27.7051 45.6464 28.4257 46.3468C29.1464 47.0472 29.1667 48.1992 28.4663 48.9199L28.3648 49.0265C28.0045 49.4071 27.5274 49.5949 27.0402 49.5949Z" fill="#61BD73"/>
</g>
<g id="Group_6" opacity="0.8">
<path id="Vector_6" d="M38.9711 8.60812C40.1006 8.60812 41.0163 7.69242 41.0163 6.56285C41.0163 5.43328 40.1006 4.51758 38.9711 4.51758C37.8415 4.51758 36.9258 5.43328 36.9258 6.56285C36.9258 7.69242 37.8415 8.60812 38.9711 8.60812Z" fill="#61BD73"/>
</g>
<g id="Group_7" opacity="0.8">
<path id="Vector_7" d="M20.4633 45.4481C21.1808 45.4481 21.7625 44.8664 21.7625 44.1488C21.7625 43.4313 21.1808 42.8496 20.4633 42.8496C19.7457 42.8496 19.1641 43.4313 19.1641 44.1488C19.1641 44.8664 19.7457 45.4481 20.4633 45.4481Z" fill="#2A97E1"/>
</g>
<g id="Group_8" opacity="0.8">
<path id="Vector_8" d="M46.9945 2.59846C47.7121 2.59846 48.2938 2.01677 48.2938 1.29923C48.2938 0.581684 47.7121 0 46.9945 0C46.277 0 45.6953 0.581684 45.6953 1.29923C45.6953 2.01677 46.277 2.59846 46.9945 2.59846Z" fill="#2A97E1"/>
</g>
<g id="Group_9" opacity="0.8">
<path id="Vector_9" d="M18.4516 19.6414C19.1691 19.6414 19.7508 19.0597 19.7508 18.3422C19.7508 17.6247 19.1691 17.043 18.4516 17.043C17.734 17.043 17.1523 17.6247 17.1523 18.3422C17.1523 19.0597 17.734 19.6414 18.4516 19.6414Z" fill="#2A97E1"/>
</g>
<g id="Group_10" opacity="0.8">
<path id="Vector_10" d="M27.0414 17.7215C27.759 17.7215 28.3406 17.1398 28.3406 16.4223C28.3406 15.7047 27.759 15.123 27.0414 15.123C26.3239 15.123 25.7422 15.7047 25.7422 16.4223C25.7422 17.1398 26.3239 17.7215 27.0414 17.7215Z" fill="#2A97E1"/>
</g>
<g id="Group_11" opacity="0.8">
<path id="Vector_11" d="M30.725 36.6375C31.4426 36.6375 32.0242 36.0558 32.0242 35.3383C32.0242 34.6207 31.4426 34.0391 30.725 34.0391C30.0075 34.0391 29.4258 34.6207 29.4258 35.3383C29.4258 36.0558 30.0075 36.6375 30.725 36.6375Z" fill="#61BD73"/>
</g>
<g id="Group_12" opacity="0.8">
<path id="Vector_12" d="M45.6977 13.1453C46.4152 13.1453 46.9969 12.5636 46.9969 11.8461C46.9969 11.1286 46.4152 10.5469 45.6977 10.5469C44.9801 10.5469 44.3984 11.1286 44.3984 11.8461C44.3984 12.5636 44.9801 13.1453 45.6977 13.1453Z" fill="#61BD73"/>
</g>
<g id="Group_13" opacity="0.8">
<path id="Vector_13" d="M53.6625 31.1668C54.3801 31.1668 54.9617 30.5851 54.9617 29.8676C54.9617 29.15 54.3801 28.5684 53.6625 28.5684C52.945 28.5684 52.3633 29.15 52.3633 29.8676C52.3633 30.5851 52.945 31.1668 53.6625 31.1668Z" fill="#61BD73"/>
</g>
<g id="Group_14" opacity="0.8">
<path id="Vector_14" d="M44.5258 31.1668C45.2433 31.1668 45.825 30.5851 45.825 29.8676C45.825 29.15 45.2433 28.5684 44.5258 28.5684C43.8082 28.5684 43.2266 29.15 43.2266 29.8676C43.2266 30.5851 43.8082 31.1668 44.5258 31.1668Z" fill="#61BD73"/>
</g>
<g id="Group_15" opacity="0.8">
<path id="Vector_15" d="M49.1995 36.7496C47.5755 36.7496 46.2001 35.5874 45.926 33.9888C45.8499 33.5472 46.1443 33.1311 46.5858 33.055C47.0273 32.9788 47.4435 33.2732 47.5196 33.7147C47.6567 34.5217 48.3773 35.1307 49.1995 35.1307C50.0217 35.1307 50.7068 34.5572 50.8692 33.7705C50.9606 33.3341 51.3869 33.0499 51.8233 33.1412C52.2598 33.2326 52.544 33.6589 52.4526 34.0954C52.138 35.6331 50.7677 36.7446 49.1995 36.7446V36.7496Z" fill="#61BD73"/>
</g>
<g id="Group_16" opacity="0.8">
<path id="Vector_16" d="M26.1992 20.2656C26.3667 21.4177 25.7069 22.5799 24.5751 22.991C23.4129 23.4122 22.1289 22.9148 21.5352 21.8744L26.1992 20.2656Z" fill="#61BD73"/>
</g>
</g>
<defs>
<clipPath id="clip0_4576_7493">
<rect width="68.7119" height="50" fill="white"/>
</clipPath>
</defs>
</svg>
