<?xml version="1.0" encoding="UTF-8"?><svg id="Layer_1" xmlns="http://www.w3.org/2000/svg" viewBox="0 0 100 100"><defs><style>.cls-1{fill:#1d4cb3;}</style></defs><ellipse class="cls-1" cx="15.34" cy="15.39" rx="15.34" ry="15.39"/><ellipse class="cls-1" cx="15.34" cy="84.61" rx="15.34" ry="15.39"/><path class="cls-1" d="M43.14,30c1.2-.22,2.82-.43,4.78-.47h8.51c4.93,0,8.92-3.99,8.92-8.92V10.17c0-4.93-3.99-8.92-8.92-8.92h-10.36c-4.93,0-8.92,3.99-8.92,8.92l-.4,6.45c-.04,.89-.15,2.1-.43,3.5-.59,2.86-1.6,4.92-2.03,5.74,0,0-1.37,2.61-3.13,4.43-.64,.66-1.36,1.27-1.36,1.27-.28,.23-.58,.48-.93,.74-3.12,2.34-6.4,3.08-7.42,3.28-1.19,.24-2.91,.45-5,.3h-.07s-6.22-.02-6.22-.02c-4.92,0-8.91,4-8.91,8.93v10.42c0,4.93,3.99,8.93,8.91,8.93h10.62c4.9,0,8.91-4.02,8.91-8.93v-7.47c-.07-2.58,.07-7.39,2.37-10.62,1.41-1.99,3.67-3.77,4.06-4.08,.6-.47,1.72-1.33,3.34-2.02,.36-.15,1.49-.62,3.7-1.02Z"/><path class="cls-1" d="M91.36,1.24h-10.92c-4.77,0-8.64,3.87-8.64,8.64l-.03,7.36s.03,5.1-1.24,8.93c-1.33,3.76-4.77,7.07-8.11,8.44-3.82,1.57-10.03,1.24-10.03,1.24h-7.56c-4.76,0-8.62,3.87-8.62,8.65v10.98c0,4.78,3.86,8.65,8.62,8.65h10.95c4.76,0,8.62-3.87,8.62-8.65l.09-4.58c-.05-1.69,.11-5.2,.96-7.74,.31-.94,.92-2.69,2.31-4.61,.99-1.37,1.96-2.23,2.98-3.14,1.8-1.6,3.35-2.55,3.74-2.79,.9-.55,2.5-1.5,4.74-2.19,1.99-.61,3.49-.71,6.05-.88,1.51-.1,3.58-.17,6.07-.03,4.77,0,8.64-3.87,8.64-8.64V9.88c0-4.77-3.87-8.64-8.64-8.64Z"/></svg>