<svg width="226" height="128" viewBox="0 0 226 128" fill="none" xmlns="http://www.w3.org/2000/svg">
<g clip-path="url(#clip0_5367_426)">
<path d="M147.081 44.541H109.363V58.6976H147.081V44.541Z" fill="#61BB73"/>
<path d="M225.572 3.06924V16.2214H187.688V1.06641H223.565C224.672 1.06641 225.572 1.96976 225.572 3.06924Z" fill="#55CBDE"/>
<path d="M187.688 1.06641H147.082V16.2214H187.688V1.06641Z" fill="#55CBDE"/>
<path d="M147.081 1.06641V16.2214H109.363V3.06924C109.363 1.96382 110.269 1.06641 111.37 1.06641H147.081Z" fill="#55CBDE"/>
<path d="M223.557 101.577H111.369C110.172 101.577 109.195 100.602 109.195 99.4078V3.06963C109.195 1.87506 110.172 0.900391 111.369 0.900391H223.557C224.754 0.900391 225.73 1.87506 225.73 3.06963V99.4019C225.73 100.596 224.754 101.571 223.557 101.571V101.577ZM111.375 1.23321C110.357 1.23321 109.535 2.0593 109.535 3.06963V99.4019C109.535 100.418 110.363 101.238 111.375 101.238H223.563C224.581 101.238 225.403 100.412 225.403 99.4019V3.06963C225.403 2.05336 224.575 1.23321 223.563 1.23321H111.375Z" fill="#1B1464"/>
<path d="M225.565 16.0547H109.363V16.3875H225.565V16.0547Z" fill="#1B1464"/>
<path d="M147.248 1.06641H146.914V101.41H147.248V1.06641Z" fill="#1B1464"/>
<path d="M187.853 1.06641H187.52V101.41H187.853V1.06641Z" fill="#1B1464"/>
<path d="M31.8155 98.7715H9.95209C9.32055 98.7715 8.80859 99.2824 8.80859 99.9126V115.888C8.80859 116.518 9.32055 117.029 9.95209 117.029H31.8155C32.447 117.029 32.959 116.518 32.959 115.888V99.9126C32.959 99.2824 32.447 98.7715 31.8155 98.7715Z" fill="white"/>
<path d="M31.8198 117.171H9.95049C9.24177 117.171 8.66406 116.595 8.66406 115.888V99.9126C8.66406 99.2054 9.24177 98.6289 9.95049 98.6289H31.8139C32.5226 98.6289 33.1003 99.2054 33.1003 99.9126V115.888C33.1003 116.595 32.5226 117.171 31.8139 117.171H31.8198ZM9.95645 98.9142C9.40257 98.9142 8.95589 99.3599 8.95589 99.9126V115.888C8.95589 116.44 9.40257 116.886 9.95645 116.886H31.8198C32.3737 116.886 32.8204 116.44 32.8204 115.888V99.9126C32.8204 99.3599 32.3737 98.9142 31.8198 98.9142H9.95049H9.95645Z" fill="#1B1464"/>
<path d="M16.9242 110.979C16.412 110.979 15.9654 110.836 15.5842 110.557C15.1971 110.277 14.8993 109.885 14.6849 109.386C14.4705 108.887 14.3633 108.304 14.3633 107.639C14.3633 106.973 14.4705 106.391 14.6849 105.891C14.8993 105.392 15.1971 105 15.5782 104.727C15.9594 104.453 16.4061 104.311 16.9183 104.311C17.4305 104.311 17.8712 104.447 18.2583 104.727C18.6395 105.006 18.9373 105.392 19.1517 105.891C19.3661 106.391 19.4733 106.973 19.4733 107.639C19.4733 108.304 19.3661 108.887 19.1576 109.392C18.9432 109.897 18.6514 110.283 18.2643 110.563C17.8831 110.842 17.4364 110.979 16.9242 110.979ZM16.9242 110.331C17.2935 110.331 17.621 110.218 17.895 109.992C18.1749 109.766 18.3893 109.451 18.5442 109.053C18.699 108.649 18.7765 108.18 18.7765 107.645C18.7765 107.11 18.699 106.634 18.5442 106.236C18.3893 105.838 18.169 105.523 17.895 105.297C17.6151 105.071 17.2875 104.964 16.9123 104.964C16.5371 104.964 16.2155 105.077 15.9415 105.297C15.6616 105.517 15.4472 105.832 15.2924 106.236C15.1375 106.64 15.0601 107.11 15.0601 107.645C15.0601 108.18 15.1375 108.643 15.2924 109.047C15.4472 109.451 15.6676 109.766 15.9475 109.992C16.2274 110.218 16.555 110.331 16.9242 110.331Z" fill="#1B1464"/>
<path d="M20.9844 110.879V109.928H21.6812V110.879H20.9844Z" fill="#1B1464"/>
<path d="M25.3105 110.979C24.8936 110.979 24.5184 110.895 24.1909 110.723C23.8633 110.551 23.6072 110.319 23.4166 110.022C23.2261 109.725 23.1367 109.386 23.1367 109.011C23.1367 108.601 23.2558 108.233 23.4881 107.912C23.7204 107.591 24.042 107.365 24.441 107.234V107.419C24.1313 107.288 23.899 107.086 23.7263 106.824C23.5536 106.563 23.4762 106.278 23.4762 105.98C23.4762 105.665 23.5596 105.38 23.7204 105.131C23.8812 104.881 24.1015 104.685 24.3755 104.536C24.6495 104.388 24.9592 104.316 25.3105 104.316C25.6619 104.316 25.9776 104.388 26.2515 104.53C26.5255 104.673 26.7399 104.869 26.9007 105.119C27.0615 105.368 27.1389 105.66 27.1389 105.98C27.1389 106.301 27.0496 106.593 26.8769 106.842C26.7042 107.092 26.4719 107.288 26.192 107.419V107.234C26.5851 107.359 26.9007 107.585 27.133 107.912C27.3653 108.233 27.4844 108.601 27.4844 109.011C27.4844 109.386 27.3891 109.725 27.2045 110.022C27.0139 110.319 26.7578 110.557 26.4302 110.723C26.1027 110.895 25.7334 110.979 25.3105 110.979ZM25.3105 110.372C25.6083 110.372 25.8644 110.313 26.0848 110.2C26.3051 110.087 26.4779 109.927 26.6029 109.725C26.728 109.517 26.7876 109.279 26.7876 109.011C26.7876 108.744 26.722 108.5 26.6029 108.298C26.4779 108.09 26.3051 107.936 26.0848 107.823C25.8644 107.71 25.6083 107.656 25.3105 107.656C25.0128 107.656 24.7567 107.71 24.5304 107.823C24.304 107.936 24.1373 108.096 24.0122 108.298C23.8931 108.5 23.8276 108.744 23.8276 109.011C23.8276 109.279 23.8871 109.523 24.0122 109.725C24.1313 109.927 24.304 110.087 24.5304 110.2C24.7507 110.313 25.0128 110.372 25.3105 110.372ZM25.3105 107.044C25.525 107.044 25.7155 106.997 25.8823 106.908C26.0491 106.818 26.186 106.694 26.2873 106.533C26.3885 106.373 26.4362 106.188 26.4362 105.975C26.4362 105.761 26.3885 105.576 26.2873 105.422C26.186 105.267 26.0491 105.143 25.8823 105.053C25.7155 104.964 25.525 104.917 25.3105 104.917C25.0961 104.917 24.9056 104.964 24.7328 105.053C24.5601 105.143 24.4231 105.267 24.3219 105.422C24.2207 105.576 24.173 105.761 24.173 105.975C24.173 106.188 24.2207 106.373 24.3219 106.533C24.4231 106.694 24.5601 106.818 24.7328 106.908C24.9056 106.997 25.0961 107.044 25.3105 107.044Z" fill="#1B1464"/>
<path d="M83.2647 98.7715H61.4013C60.7698 98.7715 60.2578 99.2824 60.2578 99.9126V115.888C60.2578 116.518 60.7698 117.029 61.4013 117.029H83.2647C83.8962 117.029 84.4082 116.518 84.4082 115.888V99.9126C84.4082 99.2824 83.8962 98.7715 83.2647 98.7715Z" fill="white"/>
<path d="M83.2651 117.171H61.3958C60.6871 117.171 60.1094 116.595 60.1094 115.888V99.9126C60.1094 99.2054 60.6871 98.6289 61.3958 98.6289H83.2651C83.9739 98.6289 84.5516 99.2054 84.5516 99.9126V115.888C84.5516 116.595 83.9739 117.171 83.2651 117.171ZM61.3958 98.9142C60.8419 98.9142 60.3953 99.3599 60.3953 99.9126V115.888C60.3953 116.44 60.8419 116.886 61.3958 116.886H83.2651C83.819 116.886 84.2657 116.44 84.2657 115.888V99.9126C84.2657 99.3599 83.819 98.9142 83.2651 98.9142H61.3958Z" fill="#1B1464"/>
<path d="M68.3695 110.979C67.8574 110.979 67.4107 110.836 67.0295 110.557C66.6424 110.277 66.3446 109.885 66.1302 109.386C65.9158 108.887 65.8086 108.304 65.8086 107.639C65.8086 106.973 65.9158 106.391 66.1302 105.891C66.3446 105.392 66.6424 105 67.0236 104.727C67.4047 104.453 67.8514 104.311 68.3636 104.311C68.8758 104.311 69.3165 104.447 69.7036 104.727C70.0848 105.006 70.3826 105.392 70.597 105.891C70.8114 106.391 70.9186 106.973 70.9186 107.639C70.9186 108.304 70.8114 108.887 70.6029 109.392C70.3885 109.897 70.0967 110.283 69.7096 110.563C69.3284 110.842 68.8817 110.979 68.3695 110.979ZM68.3695 110.331C68.7388 110.331 69.0664 110.218 69.3403 109.992C69.6202 109.766 69.8346 109.451 69.9895 109.053C70.1443 108.649 70.2218 108.18 70.2218 107.645C70.2218 107.11 70.1443 106.634 69.9895 106.236C69.8346 105.838 69.6143 105.523 69.3403 105.297C69.0604 105.071 68.7328 104.964 68.3576 104.964C67.9824 104.964 67.6608 105.077 67.3869 105.297C67.1069 105.517 66.8925 105.832 66.7377 106.236C66.5828 106.64 66.5054 107.11 66.5054 107.645C66.5054 108.18 66.5828 108.643 66.7377 109.047C66.8925 109.451 67.1129 109.766 67.3928 109.992C67.6727 110.218 68.0003 110.331 68.3695 110.331Z" fill="#1B1464"/>
<path d="M72.4375 110.879V109.928H73.1343V110.879H72.4375Z" fill="#1B1464"/>
<path d="M74.7141 110.878L77.6324 105.024H74.3984V104.418H78.353V105.024L75.4407 110.878H74.7081H74.7141Z" fill="#1B1464"/>
<path d="M118.911 11.4441C118.625 11.4441 118.369 11.3906 118.13 11.2836C117.898 11.1766 117.702 11.028 117.541 10.8498C117.38 10.6655 117.267 10.4635 117.195 10.2436L117.63 10.0831C117.731 10.3862 117.898 10.618 118.118 10.7784C118.339 10.9389 118.601 11.0162 118.911 11.0162C119.101 11.0162 119.274 10.9864 119.417 10.9211C119.56 10.8557 119.679 10.7725 119.756 10.6596C119.834 10.5467 119.875 10.4159 119.875 10.2673C119.875 10.0474 119.816 9.87508 119.697 9.75622C119.578 9.63736 119.405 9.54227 119.179 9.47689L118.369 9.23917C118.053 9.14408 117.809 8.98956 117.636 8.7756C117.463 8.56165 117.38 8.31204 117.38 8.03271C117.38 7.79499 117.439 7.58698 117.553 7.40274C117.672 7.2185 117.827 7.07587 118.029 6.97483C118.232 6.86786 118.464 6.82031 118.72 6.82031C118.976 6.82031 119.232 6.86786 119.447 6.96889C119.661 7.06992 119.846 7.19473 119.994 7.35519C120.143 7.51566 120.251 7.69395 120.316 7.89008L119.893 8.05648C119.798 7.78904 119.649 7.59292 119.447 7.45623C119.244 7.31954 119.006 7.25416 118.732 7.25416C118.559 7.25416 118.41 7.28388 118.279 7.34331C118.148 7.40274 118.047 7.49189 117.976 7.59886C117.904 7.71178 117.868 7.84253 117.868 7.99705C117.868 8.18129 117.928 8.3477 118.041 8.49033C118.16 8.63891 118.339 8.74589 118.577 8.8172L119.286 9.02521C119.637 9.13219 119.905 9.28077 120.09 9.47689C120.268 9.67302 120.364 9.92263 120.364 10.2198C120.364 10.4575 120.304 10.6715 120.179 10.8557C120.054 11.0399 119.887 11.1826 119.667 11.2836C119.447 11.3846 119.196 11.4381 118.911 11.4381V11.4441Z" fill="#1B1464"/>
<path d="M123.34 11.4442C123.024 11.4442 122.732 11.3847 122.464 11.2718C122.196 11.1589 121.97 10.9984 121.774 10.7904C121.577 10.5824 121.428 10.3387 121.321 10.0594C121.214 9.78008 121.16 9.47103 121.16 9.13227C121.16 8.79352 121.214 8.48447 121.321 8.20515C121.428 7.92582 121.583 7.68215 121.774 7.47414C121.97 7.26613 122.196 7.10567 122.464 6.9868C122.732 6.87388 123.018 6.81445 123.34 6.81445C123.662 6.81445 123.918 6.86794 124.162 6.97492C124.406 7.08189 124.609 7.22453 124.775 7.39094C124.942 7.56329 125.061 7.74158 125.133 7.93176L124.68 8.12789C124.567 7.86639 124.394 7.65838 124.168 7.49791C123.936 7.33745 123.662 7.26019 123.34 7.26019C123.018 7.26019 122.715 7.33745 122.459 7.49197C122.202 7.64649 122 7.86639 121.857 8.14571C121.714 8.42504 121.643 8.75191 121.643 9.12039C121.643 9.48886 121.714 9.81573 121.857 10.0951C122 10.3744 122.202 10.5943 122.459 10.7488C122.715 10.9033 123.006 10.9806 123.34 10.9806C123.673 10.9806 123.936 10.9033 124.168 10.7488C124.4 10.5943 124.573 10.3863 124.68 10.1248L125.133 10.3209C125.061 10.5051 124.942 10.6834 124.775 10.8558C124.609 11.0281 124.406 11.1648 124.162 11.2718C123.918 11.3788 123.644 11.4323 123.34 11.4323V11.4442Z" fill="#1B1464"/>
<path d="M128.116 11.4439C127.801 11.4439 127.509 11.3845 127.241 11.2716C126.973 11.1586 126.735 10.9982 126.526 10.7902C126.324 10.5821 126.163 10.3385 126.044 10.0592C125.925 9.77388 125.871 9.46484 125.871 9.13202C125.871 8.79921 125.931 8.48422 126.044 8.20489C126.163 7.91962 126.324 7.67596 126.526 7.47389C126.729 7.26588 126.967 7.10542 127.241 6.99844C127.515 6.88552 127.807 6.83203 128.116 6.83203C128.426 6.83203 128.724 6.89146 128.992 7.00438C129.266 7.1173 129.504 7.27777 129.707 7.48578C129.909 7.69379 130.07 7.93745 130.189 8.21678C130.308 8.49611 130.362 8.80515 130.362 9.14391C130.362 9.48267 130.302 9.79171 130.189 10.071C130.07 10.3563 129.915 10.6 129.707 10.802C129.504 11.0101 129.266 11.1705 128.992 11.2834C128.718 11.3964 128.426 11.4558 128.116 11.4558V11.4439ZM128.116 10.9922C128.378 10.9922 128.617 10.9447 128.831 10.8496C129.045 10.7545 129.23 10.6178 129.391 10.4455C129.546 10.2731 129.671 10.077 129.754 9.85114C129.838 9.6253 129.885 9.38758 129.885 9.13202C129.885 8.87647 129.844 8.63874 129.754 8.41885C129.665 8.19301 129.546 7.99689 129.391 7.82453C129.236 7.65218 129.045 7.51549 128.831 7.4204C128.617 7.32531 128.378 7.27777 128.116 7.27777C127.854 7.27777 127.616 7.32531 127.402 7.4204C127.187 7.51549 127.003 7.65218 126.842 7.82453C126.687 7.99689 126.562 8.19301 126.479 8.41885C126.389 8.64469 126.348 8.88241 126.348 9.13202C126.348 9.38164 126.389 9.63125 126.479 9.85114C126.562 10.077 126.687 10.2731 126.842 10.4455C126.997 10.6178 127.187 10.7545 127.402 10.8496C127.616 10.9447 127.854 10.9922 128.11 10.9922H128.116Z" fill="#1B1464"/>
<path d="M131.293 11.3717V6.89062H132.835C133.127 6.89062 133.383 6.95006 133.61 7.06298C133.836 7.1759 134.003 7.33636 134.128 7.54437C134.253 7.75238 134.313 7.9901 134.313 8.26349C134.313 8.57847 134.229 8.85186 134.062 9.0777C133.896 9.30354 133.669 9.45806 133.383 9.55315L134.432 11.3777H133.866L132.77 9.44617L133.098 9.63041H131.781V11.3717H131.299H131.293ZM131.775 9.17873H132.859C133.05 9.17873 133.223 9.14307 133.366 9.06581C133.508 8.99449 133.622 8.88752 133.705 8.74488C133.782 8.60819 133.824 8.44178 133.824 8.25755C133.824 8.07331 133.782 7.9069 133.705 7.77021C133.622 7.63352 133.514 7.52654 133.366 7.45522C133.223 7.3839 133.05 7.3423 132.859 7.3423H131.775V9.17873Z" fill="#1B1464"/>
<path d="M135.152 11.3717V6.89062H138.047V7.3423H135.635V8.8994H137.922V9.35108H135.635V10.9201H138.047V11.3717H135.152Z" fill="#1B1464"/>
<path d="M2.4094 127.372L0.765625 122.891H1.2659L2.71314 126.944H2.61785L4.05913 122.891H4.56536L2.92159 127.372H2.41535H2.4094Z" fill="#1B1464"/>
<path d="M6.26224 127.442C5.9585 127.442 5.69049 127.371 5.44631 127.222C5.20212 127.074 5.01154 126.877 4.86861 126.616C4.72567 126.36 4.66016 126.069 4.66016 125.742C4.66016 125.415 4.72567 125.13 4.86265 124.881C4.99963 124.631 5.18426 124.435 5.42249 124.286C5.65476 124.144 5.92276 124.072 6.21459 124.072C6.44687 124.072 6.65532 124.114 6.83994 124.203C7.02457 124.286 7.17942 124.405 7.30449 124.554C7.43551 124.702 7.5308 124.863 7.60227 125.047C7.67374 125.231 7.70352 125.415 7.70352 125.612C7.70352 125.653 7.70352 125.695 7.69756 125.748C7.69756 125.796 7.68565 125.849 7.6797 125.903H4.95199V125.481H7.4236L7.2092 125.659C7.24493 125.439 7.22111 125.243 7.13177 125.065C7.04244 124.892 6.92332 124.75 6.76252 124.649C6.60171 124.548 6.42304 124.494 6.22055 124.494C6.01806 124.494 5.83343 124.548 5.66071 124.649C5.488 124.756 5.35697 124.898 5.26168 125.083C5.16639 125.267 5.1247 125.493 5.14852 125.748C5.13066 126.004 5.17235 126.23 5.27359 126.42C5.37484 126.61 5.51778 126.759 5.69645 126.86C5.87512 126.961 6.0657 127.014 6.27415 127.014C6.51238 127.014 6.70892 126.961 6.86972 126.848C7.03052 126.735 7.16155 126.598 7.2628 126.426L7.64992 126.628C7.5844 126.77 7.48911 126.907 7.35213 127.026C7.21515 127.145 7.0603 127.246 6.88163 127.323C6.69701 127.394 6.49451 127.436 6.27415 127.436L6.26224 127.442Z" fill="#1B1464"/>
<path d="M9.97132 127.442C9.65567 127.442 9.37575 127.371 9.13157 127.222C8.89334 127.074 8.70276 126.871 8.56578 126.616C8.42879 126.36 8.36328 126.075 8.36328 125.754C8.36328 125.433 8.42879 125.148 8.56578 124.892C8.70276 124.637 8.89334 124.441 9.13157 124.292C9.37575 124.144 9.64971 124.072 9.97132 124.072C10.1738 124.072 10.3584 124.108 10.5371 124.179C10.7158 124.251 10.8706 124.352 11.0076 124.47C11.1446 124.595 11.2458 124.732 11.3173 124.892L10.9064 125.1C10.823 124.928 10.7039 124.785 10.5371 124.678C10.3704 124.571 10.1857 124.518 9.97132 124.518C9.75691 124.518 9.56633 124.571 9.39362 124.678C9.2209 124.785 9.08988 124.934 8.98863 125.118C8.88738 125.302 8.83974 125.516 8.83974 125.754C8.83974 125.992 8.88738 126.194 8.98863 126.384C9.08988 126.568 9.2209 126.717 9.39362 126.824C9.56633 126.931 9.75691 126.984 9.97132 126.984C10.1857 126.984 10.3704 126.931 10.5371 126.824C10.6979 126.717 10.823 126.574 10.9064 126.39L11.3173 126.616C11.2518 126.77 11.1446 126.913 11.0076 127.038C10.8706 127.163 10.7158 127.258 10.5371 127.335C10.3584 127.406 10.1738 127.442 9.97132 127.442Z" fill="#1B1464"/>
<path d="M13.3503 127.406C13.0585 127.406 12.8382 127.323 12.6833 127.156C12.5285 126.99 12.451 126.746 12.451 126.437V124.601H11.8555V124.149H12.0044C12.1413 124.149 12.2485 124.102 12.3319 124.013C12.4093 123.923 12.451 123.81 12.451 123.674V123.4H12.9037V124.143H13.6124V124.595H12.9037V126.431C12.9037 126.538 12.9215 126.633 12.9513 126.717C12.9811 126.8 13.0407 126.865 13.1181 126.913C13.1955 126.96 13.3027 126.984 13.4337 126.984C13.4635 126.984 13.5052 126.984 13.5469 126.978C13.5886 126.978 13.6303 126.972 13.66 126.966V127.37C13.6124 127.382 13.5588 127.394 13.4992 127.4C13.4397 127.4 13.392 127.406 13.3563 127.406H13.3503Z" fill="#1B1464"/>
<path d="M15.845 127.442C15.5413 127.442 15.2614 127.371 15.0112 127.222C14.7611 127.074 14.5646 126.877 14.4157 126.622C14.2668 126.366 14.1953 126.075 14.1953 125.754C14.1953 125.433 14.2668 125.148 14.4097 124.892C14.5527 124.637 14.7492 124.441 14.9993 124.292C15.2495 124.144 15.5294 124.072 15.8391 124.072C16.1488 124.072 16.4347 124.144 16.6788 124.286C16.929 124.429 17.1196 124.631 17.2625 124.881C17.4054 125.13 17.4769 125.421 17.4769 125.748C17.4769 126.075 17.4054 126.366 17.2565 126.622C17.1077 126.877 16.9111 127.074 16.661 127.222C16.4108 127.365 16.1369 127.436 15.8391 127.436L15.845 127.442ZM15.845 126.99C16.0594 126.99 16.256 126.937 16.4347 126.83C16.6074 126.723 16.7503 126.574 16.8516 126.384C16.9528 126.194 17.0064 125.986 17.0064 125.754C17.0064 125.522 16.9528 125.314 16.8516 125.13C16.7503 124.946 16.6074 124.797 16.4347 124.69C16.2619 124.583 16.0654 124.53 15.845 124.53C15.6247 124.53 15.4341 124.583 15.2554 124.69C15.0827 124.797 14.9398 124.946 14.8385 125.13C14.7373 125.314 14.6837 125.522 14.6837 125.754C14.6837 125.986 14.7373 126.2 14.8385 126.384C14.9457 126.574 15.0827 126.723 15.2554 126.83C15.4281 126.937 15.6247 126.99 15.845 126.99Z" fill="#1B1464"/>
<path d="M18.2812 127.37V124.149H18.7339V124.678L18.6743 124.601C18.7518 124.446 18.8649 124.327 19.0198 124.238C19.1746 124.149 19.3652 124.107 19.5855 124.107H19.788V124.559H19.5022C19.2699 124.559 19.0793 124.63 18.9423 124.773C18.7994 124.916 18.7339 125.124 18.7339 125.385V127.37H18.2812Z" fill="#1B1464"/>
<path d="M22.4628 127.442C22.1531 127.442 21.8851 127.365 21.6469 127.21C21.4146 127.056 21.2478 126.842 21.1406 126.574L21.5218 126.396C21.6171 126.592 21.7422 126.747 21.9089 126.865C22.0757 126.984 22.2603 127.038 22.4628 127.038C22.6653 127.038 22.8201 126.99 22.9512 126.895C23.0822 126.8 23.1477 126.675 23.1477 126.527C23.1477 126.414 23.1179 126.325 23.0524 126.259C22.9869 126.194 22.9154 126.14 22.8261 126.105C22.7368 126.069 22.6653 126.045 22.6057 126.027L22.1412 125.897C21.8434 125.814 21.629 125.695 21.498 125.54C21.3669 125.386 21.3014 125.213 21.3014 125.011C21.3014 124.821 21.3491 124.661 21.4444 124.518C21.5397 124.375 21.6707 124.268 21.8374 124.191C22.0042 124.114 22.1829 124.078 22.3854 124.078C22.6593 124.078 22.9095 124.149 23.1298 124.292C23.3502 124.435 23.511 124.631 23.6003 124.886L23.2132 125.065C23.1358 124.886 23.0167 124.744 22.8678 124.643C22.7189 124.542 22.5462 124.488 22.3615 124.488C22.1769 124.488 22.034 124.536 21.9268 124.625C21.8196 124.72 21.766 124.833 21.766 124.976C21.766 125.083 21.7958 125.172 21.8494 125.231C21.903 125.296 21.9685 125.344 22.0459 125.374C22.1233 125.403 22.1829 125.427 22.2424 125.445L22.7784 125.6C23.0405 125.677 23.243 125.796 23.3919 125.956C23.5408 126.117 23.6122 126.307 23.6122 126.521C23.6122 126.699 23.5646 126.854 23.4633 126.996C23.3621 127.139 23.2311 127.246 23.0584 127.323C22.8856 127.4 22.6891 127.442 22.4628 127.442Z" fill="#1B1464"/>
<path d="M25.8794 127.442C25.5757 127.442 25.3077 127.371 25.0635 127.222C24.8193 127.074 24.6287 126.877 24.4858 126.616C24.3429 126.36 24.2773 126.069 24.2773 125.742C24.2773 125.415 24.3429 125.13 24.4798 124.881C24.6168 124.631 24.8014 124.435 25.0397 124.286C25.2719 124.144 25.54 124.072 25.8318 124.072C26.0641 124.072 26.2725 124.114 26.4571 124.203C26.6418 124.286 26.7966 124.405 26.9217 124.554C27.0527 124.702 27.148 124.863 27.2195 125.047C27.2909 125.231 27.3207 125.415 27.3207 125.612C27.3207 125.653 27.3207 125.695 27.3148 125.748C27.3148 125.796 27.3028 125.849 27.2969 125.903H24.5692V125.481H27.0408L26.8264 125.659C26.8621 125.439 26.8383 125.243 26.749 125.065C26.6596 124.892 26.5405 124.75 26.3797 124.649C26.2189 124.548 26.0402 124.494 25.8377 124.494C25.6352 124.494 25.4506 124.548 25.2779 124.649C25.1052 124.756 24.9742 124.898 24.8789 125.083C24.7836 125.267 24.7419 125.493 24.7657 125.748C24.7478 126.004 24.7895 126.23 24.8908 126.42C24.992 126.61 25.135 126.759 25.3136 126.86C25.4923 126.961 25.6829 127.014 25.8913 127.014C26.1296 127.014 26.3261 126.961 26.4869 126.848C26.6477 126.735 26.7787 126.598 26.88 126.426L27.2671 126.628C27.2016 126.77 27.1063 126.907 26.9693 127.026C26.8323 127.145 26.6775 127.246 26.4988 127.323C26.3142 127.394 26.1117 127.436 25.8913 127.436L25.8794 127.442Z" fill="#1B1464"/>
<path d="M28.9879 127.442C28.7855 127.442 28.6008 127.4 28.44 127.323C28.2792 127.246 28.1541 127.139 28.0589 127.002C27.9636 126.866 27.9219 126.711 27.9219 126.533C27.9219 126.354 27.9576 126.212 28.0291 126.075C28.1005 125.938 28.2137 125.82 28.3686 125.724C28.5234 125.629 28.714 125.558 28.9522 125.522L30.2148 125.314V125.724L29.0594 125.915C28.8271 125.956 28.6604 126.028 28.5591 126.135C28.4579 126.242 28.4043 126.372 28.4043 126.521C28.4043 126.669 28.4638 126.788 28.577 126.889C28.6902 126.99 28.8391 127.038 29.0177 127.038C29.2381 127.038 29.4287 126.99 29.5954 126.895C29.7622 126.8 29.8873 126.675 29.9825 126.515C30.0719 126.354 30.1195 126.176 30.1195 125.98V125.16C30.1195 124.97 30.0481 124.809 29.9111 124.69C29.7681 124.571 29.5895 124.512 29.3632 124.512C29.1666 124.512 28.9939 124.56 28.845 124.661C28.6961 124.762 28.5889 124.886 28.5115 125.041L28.1005 124.815C28.1601 124.678 28.2554 124.554 28.3864 124.441C28.5174 124.328 28.6663 124.239 28.8331 124.173C28.9999 124.108 29.1785 124.072 29.3572 124.072C29.5954 124.072 29.8039 124.12 29.9885 124.209C30.1731 124.298 30.3161 124.429 30.4173 124.589C30.5186 124.75 30.5722 124.94 30.5722 125.154V127.365H30.1195V126.723L30.185 126.788C30.1314 126.907 30.0421 127.02 29.923 127.115C29.8039 127.21 29.6669 127.293 29.5061 127.347C29.3453 127.4 29.1726 127.436 28.982 127.436L28.9879 127.442Z" fill="#1B1464"/>
<path d="M31.5039 127.37V124.149H31.9565V124.678L31.897 124.601C31.9744 124.446 32.0876 124.327 32.2424 124.238C32.3973 124.149 32.5878 124.107 32.8082 124.107H33.0107V124.559H32.7248C32.4926 124.559 32.302 124.63 32.165 124.773C32.0221 124.916 31.9565 125.124 31.9565 125.385V127.37H31.5039Z" fill="#1B1464"/>
<path d="M35.0104 127.442C34.6947 127.442 34.4148 127.371 34.1706 127.222C33.9324 127.074 33.7418 126.871 33.6048 126.616C33.4679 126.36 33.4023 126.075 33.4023 125.754C33.4023 125.433 33.4679 125.148 33.6048 124.892C33.7418 124.637 33.9324 124.441 34.1706 124.292C34.4148 124.144 34.6888 124.072 35.0104 124.072C35.2129 124.072 35.3975 124.108 35.5762 124.179C35.7548 124.251 35.9097 124.352 36.0467 124.47C36.1837 124.595 36.2849 124.732 36.3564 124.892L35.9454 125.1C35.862 124.928 35.7429 124.785 35.5762 124.678C35.4094 124.571 35.2248 124.518 35.0104 124.518C34.796 124.518 34.6054 124.571 34.4327 124.678C34.26 124.785 34.1289 124.934 34.0277 125.118C33.9264 125.302 33.8788 125.516 33.8788 125.754C33.8788 125.992 33.9264 126.194 34.0277 126.384C34.1289 126.568 34.26 126.717 34.4327 126.824C34.6054 126.931 34.796 126.984 35.0104 126.984C35.2248 126.984 35.4094 126.931 35.5762 126.824C35.737 126.717 35.862 126.574 35.9454 126.39L36.3564 126.616C36.2909 126.77 36.1837 126.913 36.0467 127.038C35.9097 127.163 35.7548 127.258 35.5762 127.335C35.3975 127.406 35.2129 127.442 35.0104 127.442Z" fill="#1B1464"/>
<path d="M37.1562 127.371V122.818H37.6089V124.774L37.5076 124.75C37.5851 124.542 37.722 124.375 37.9007 124.257C38.0853 124.138 38.2938 124.078 38.538 124.078C38.7643 124.078 38.9727 124.132 39.1574 124.233C39.342 124.34 39.4849 124.482 39.5921 124.661C39.6993 124.839 39.7529 125.047 39.7529 125.279V127.371H39.3003V125.451C39.3003 125.255 39.2646 125.089 39.1931 124.952C39.1216 124.815 39.0204 124.708 38.8953 124.637C38.7702 124.566 38.6273 124.524 38.4665 124.524C38.3057 124.524 38.1628 124.56 38.0317 124.637C37.9007 124.708 37.7995 124.815 37.728 124.958C37.6565 125.095 37.6148 125.261 37.6148 125.451V127.371H37.1622H37.1562Z" fill="#1B1464"/>
<path d="M53.9669 127.536V123.055H55.8548C56.105 123.055 56.3254 123.102 56.5159 123.197C56.7006 123.292 56.8494 123.423 56.9507 123.59C57.0519 123.756 57.1055 123.952 57.1055 124.178C57.1055 124.404 57.046 124.618 56.9328 124.796C56.8197 124.974 56.6529 125.111 56.4385 125.2V125.058C56.6112 125.123 56.7601 125.212 56.8852 125.331C57.0103 125.45 57.1115 125.581 57.177 125.735C57.2425 125.89 57.2783 126.056 57.2783 126.228C57.2783 126.627 57.1532 126.947 56.8971 127.179C56.641 127.411 56.2956 127.53 55.8548 127.53H53.9609L53.9669 127.536ZM54.4493 124.951H55.8191C56.0573 124.951 56.2539 124.879 56.4028 124.743C56.5517 124.606 56.6231 124.422 56.6231 124.202C56.6231 123.982 56.5517 123.804 56.4028 123.685C56.2539 123.566 56.0633 123.506 55.8191 123.506H54.4493V124.951ZM54.4493 127.084H55.8608C56.1467 127.084 56.373 127.007 56.5457 126.858C56.7184 126.71 56.8018 126.502 56.8018 126.234C56.8018 125.967 56.7184 125.765 56.5457 125.61C56.373 125.456 56.1467 125.378 55.8608 125.378H54.4493V127.078V127.084Z" fill="#1B1464"/>
<path d="M58.1484 127.536V123.055H58.5713L60.2568 125.497H60.0245L61.704 123.055H62.1268V127.536H61.6444V123.702L61.7993 123.762L60.1496 126.151H60.1257L58.482 123.762L58.6309 123.702V127.536H58.1484Z" fill="#1B1464"/>
<path d="M63.0006 127.537V127.234L64.2513 125.855C64.4955 125.588 64.698 125.362 64.8528 125.189C65.0076 125.017 65.1208 124.851 65.1982 124.708C65.2757 124.565 65.3114 124.405 65.3114 124.238C65.3114 123.971 65.234 123.763 65.0791 123.62C64.9243 123.478 64.7158 123.4 64.4538 123.4C64.1917 123.4 63.9594 123.478 63.7748 123.626C63.5902 123.781 63.4711 123.989 63.4056 124.262L62.9648 124.167C63.0184 123.923 63.1137 123.71 63.2507 123.537C63.3877 123.365 63.5604 123.222 63.7629 123.127C63.9654 123.026 64.1977 122.979 64.4478 122.979C64.7158 122.979 64.954 123.032 65.1506 123.139C65.3531 123.246 65.5079 123.395 65.6211 123.585C65.7342 123.775 65.7938 123.989 65.7938 124.233C65.7938 124.399 65.7581 124.565 65.6866 124.72C65.6151 124.874 65.5139 125.047 65.3709 125.225C65.228 125.403 65.0493 125.617 64.829 125.855L63.6914 127.109H65.9129V127.531H62.9946L63.0006 127.537Z" fill="#1B1464"/>
<path d="M68.087 127.609C67.8547 127.609 67.6403 127.567 67.4378 127.49C67.2353 127.413 67.0685 127.294 66.9137 127.145C66.7648 126.997 66.6516 126.819 66.5742 126.616L66.9435 126.438C67.0388 126.67 67.1877 126.854 67.3961 126.991C67.6046 127.128 67.8368 127.193 68.081 127.193C68.2775 127.193 68.4562 127.145 68.6111 127.056C68.7659 126.967 68.885 126.836 68.9744 126.682C69.0637 126.527 69.1054 126.349 69.1054 126.147C69.1054 125.945 69.0577 125.761 68.9684 125.606C68.8791 125.452 68.754 125.327 68.6051 125.238C68.4503 125.149 68.2775 125.101 68.087 125.101C67.8964 125.101 67.7058 125.149 67.539 125.238C67.3723 125.327 67.2532 125.44 67.1757 125.565L66.7946 125.493L67.1341 123.062H69.4091V123.484H67.3127L67.4974 123.324L67.2234 125.238L67.0388 125.154C67.1817 124.982 67.3425 124.857 67.5331 124.786C67.7237 124.715 67.9143 124.673 68.1108 124.673C68.4026 124.673 68.6528 124.738 68.8791 124.875C69.0994 125.012 69.2722 125.19 69.4032 125.41C69.5282 125.636 69.5938 125.88 69.5938 126.153C69.5938 126.426 69.5282 126.682 69.3972 126.902C69.2662 127.122 69.0875 127.3 68.8612 127.431C68.6349 127.561 68.3788 127.621 68.087 127.621V127.609Z" fill="#1B1464"/>
<path d="M72.5917 127.608C72.282 127.608 72.014 127.531 71.7758 127.376C71.5435 127.222 71.3767 127.008 71.2695 126.74L71.6507 126.562C71.746 126.758 71.8711 126.913 72.0378 127.031C72.2046 127.15 72.3892 127.204 72.5917 127.204C72.7942 127.204 72.949 127.156 73.0801 127.061C73.2111 126.966 73.2766 126.841 73.2766 126.693C73.2766 126.58 73.2468 126.491 73.1813 126.425C73.1158 126.36 73.0443 126.306 72.955 126.271C72.8657 126.235 72.7942 126.211 72.7346 126.193L72.2701 126.063C71.9723 125.98 71.7579 125.861 71.6269 125.706C71.4959 125.552 71.4303 125.379 71.4303 125.177C71.4303 124.987 71.478 124.827 71.5733 124.684C71.6686 124.541 71.7996 124.434 71.9664 124.357C72.1331 124.28 72.3118 124.244 72.5143 124.244C72.7882 124.244 73.0384 124.315 73.2587 124.458C73.4791 124.601 73.6399 124.797 73.7292 125.052L73.3421 125.231C73.2647 125.052 73.1456 124.91 72.9967 124.809C72.8478 124.708 72.6751 124.654 72.4905 124.654C72.3058 124.654 72.1629 124.702 72.0557 124.791C71.9485 124.886 71.8949 124.999 71.8949 125.142C71.8949 125.249 71.9247 125.338 71.9783 125.397C72.0319 125.462 72.0974 125.51 72.1748 125.54C72.2522 125.569 72.3118 125.593 72.3713 125.611L72.9073 125.766C73.1694 125.843 73.3719 125.962 73.5208 126.122C73.6697 126.283 73.7411 126.473 73.7411 126.687C73.7411 126.865 73.6935 127.02 73.5923 127.162C73.491 127.305 73.36 127.412 73.1873 127.489C73.0146 127.566 72.818 127.608 72.5917 127.608Z" fill="#1B1464"/>
<path d="M76.0083 127.608C75.7046 127.608 75.4366 127.537 75.1924 127.388C74.9482 127.24 74.7576 127.043 74.6147 126.782C74.4718 126.526 74.4062 126.235 74.4062 125.908C74.4062 125.581 74.4718 125.296 74.6087 125.047C74.7457 124.797 74.9304 124.601 75.1686 124.452C75.4009 124.31 75.6689 124.238 75.9607 124.238C76.193 124.238 76.4014 124.28 76.586 124.369C76.7707 124.452 76.9255 124.571 77.0506 124.72C77.1816 124.868 77.2769 125.029 77.3484 125.213C77.4198 125.397 77.4496 125.581 77.4496 125.778C77.4496 125.819 77.4496 125.861 77.4437 125.914C77.4437 125.962 77.4317 126.015 77.4258 126.069H74.6981V125.647H77.1697L76.9553 125.825C76.991 125.605 76.9672 125.409 76.8779 125.231C76.7885 125.058 76.6694 124.916 76.5086 124.815C76.3478 124.714 76.1691 124.66 75.9666 124.66C75.7641 124.66 75.5795 124.714 75.4068 124.815C75.2341 124.922 75.1031 125.064 75.0078 125.249C74.9125 125.433 74.8708 125.659 74.8946 125.914C74.8768 126.17 74.9184 126.396 75.0197 126.586C75.1209 126.776 75.2639 126.925 75.4425 127.026C75.6212 127.127 75.8118 127.18 76.0202 127.18C76.2585 127.18 76.455 127.127 76.6158 127.014C76.7766 126.901 76.9076 126.764 77.0089 126.592L77.396 126.794C77.3305 126.936 77.2352 127.073 77.0982 127.192C76.9612 127.311 76.8064 127.412 76.6277 127.489C76.4431 127.56 76.2406 127.602 76.0202 127.602L76.0083 127.608Z" fill="#1B1464"/>
<path d="M79.1168 127.608C78.9144 127.608 78.7297 127.566 78.5689 127.489C78.4081 127.412 78.2831 127.305 78.1878 127.168C78.0925 127.032 78.0508 126.877 78.0508 126.699C78.0508 126.52 78.0865 126.378 78.158 126.241C78.2294 126.104 78.3426 125.986 78.4975 125.89C78.6523 125.795 78.8429 125.724 79.0811 125.688L80.3437 125.48V125.89L79.1883 126.081C78.956 126.122 78.7893 126.194 78.688 126.301C78.5868 126.408 78.5332 126.538 78.5332 126.687C78.5332 126.835 78.5927 126.954 78.7059 127.055C78.8191 127.156 78.968 127.204 79.1466 127.204C79.367 127.204 79.5576 127.156 79.7243 127.061C79.8911 126.966 80.0162 126.841 80.1114 126.681C80.2008 126.52 80.2484 126.342 80.2484 126.146V125.326C80.2484 125.136 80.177 124.975 80.04 124.856C79.897 124.738 79.7184 124.678 79.4921 124.678C79.2955 124.678 79.1228 124.726 78.9739 124.827C78.825 124.928 78.7178 125.052 78.6404 125.207L78.2295 124.981C78.289 124.844 78.3843 124.72 78.5153 124.607C78.6464 124.494 78.7952 124.405 78.962 124.339C79.1288 124.274 79.3074 124.238 79.4861 124.238C79.7243 124.238 79.9328 124.286 80.1174 124.375C80.302 124.464 80.445 124.595 80.5462 124.755C80.6475 124.916 80.7011 125.106 80.7011 125.32V127.531H80.2484V126.889L80.3139 126.954C80.2603 127.073 80.171 127.186 80.0519 127.281C79.9328 127.376 79.7958 127.459 79.635 127.513C79.4742 127.566 79.3015 127.602 79.1109 127.602L79.1168 127.608Z" fill="#1B1464"/>
<path d="M81.6328 127.536V124.315H82.0854V124.844L82.0259 124.767C82.1033 124.612 82.2165 124.493 82.3713 124.404C82.5262 124.315 82.7168 124.273 82.9371 124.273H83.1396V124.725H82.8537C82.6215 124.725 82.4309 124.796 82.2939 124.939C82.151 125.082 82.0854 125.29 82.0854 125.551V127.536H81.6328Z" fill="#1B1464"/>
<path d="M85.1432 127.608C84.8275 127.608 84.5476 127.537 84.3034 127.388C84.0652 127.24 83.8746 127.037 83.7377 126.782C83.6007 126.526 83.5352 126.241 83.5352 125.92C83.5352 125.599 83.6007 125.314 83.7377 125.058C83.8746 124.803 84.0652 124.607 84.3034 124.458C84.5476 124.31 84.8216 124.238 85.1432 124.238C85.3457 124.238 85.5303 124.274 85.709 124.345C85.8877 124.417 86.0425 124.518 86.1795 124.636C86.3165 124.761 86.4177 124.898 86.4892 125.058L86.0782 125.266C85.9949 125.094 85.8758 124.951 85.709 124.844C85.5422 124.738 85.3576 124.684 85.1432 124.684C84.9288 124.684 84.7382 124.738 84.5655 124.844C84.3928 124.951 84.2618 125.1 84.1605 125.284C84.0593 125.469 84.0116 125.682 84.0116 125.92C84.0116 126.158 84.0593 126.36 84.1605 126.55C84.2618 126.734 84.3928 126.883 84.5655 126.99C84.7382 127.097 84.9288 127.15 85.1432 127.15C85.3576 127.15 85.5422 127.097 85.709 126.99C85.8698 126.883 85.9949 126.74 86.0782 126.556L86.4892 126.782C86.4237 126.936 86.3165 127.079 86.1795 127.204C86.0425 127.329 85.8877 127.424 85.709 127.501C85.5303 127.572 85.3457 127.608 85.1432 127.608Z" fill="#1B1464"/>
<path d="M87.2812 127.537V122.984H87.7339V124.94L87.6326 124.916C87.7101 124.708 87.847 124.541 88.0257 124.423C88.2103 124.304 88.4188 124.244 88.663 124.244C88.8893 124.244 89.0977 124.298 89.2824 124.399C89.467 124.506 89.6099 124.648 89.7171 124.827C89.8243 125.005 89.8779 125.213 89.8779 125.445V127.537H89.4253V125.617C89.4253 125.421 89.3896 125.255 89.3181 125.118C89.2466 124.981 89.1454 124.874 89.0203 124.803C88.8952 124.732 88.7523 124.69 88.5915 124.69C88.4307 124.69 88.2878 124.726 88.1567 124.803C88.0257 124.874 87.9245 124.981 87.853 125.124C87.7815 125.261 87.7398 125.427 87.7398 125.617V127.537H87.2872H87.2812Z" fill="#1B1464"/>
<path d="M124.9 26.1901V22.1309H124.055V21.709H125.383V26.1901H124.9Z" fill="#1B1464"/>
<path d="M126.664 26.189V25.5293H127.146V26.189H126.664Z" fill="#1B1464"/>
<path d="M128.639 26.1892L130.2 24.1507L130.289 24.0972C130.23 24.1923 130.158 24.2695 130.081 24.323C130.003 24.3765 129.914 24.4181 129.813 24.4419C129.717 24.4657 129.61 24.4775 129.491 24.4775C129.229 24.4775 128.997 24.4181 128.788 24.2933C128.58 24.1685 128.413 24.0021 128.294 23.7881C128.169 23.5742 128.109 23.3305 128.109 23.0512C128.109 22.7719 128.175 22.5341 128.3 22.3261C128.425 22.1181 128.598 21.9458 128.818 21.821C129.038 21.6962 129.283 21.6367 129.557 21.6367C129.831 21.6367 130.087 21.7021 130.301 21.8269C130.515 21.9517 130.688 22.13 130.813 22.3499C130.938 22.5698 130.998 22.8253 130.998 23.1166C130.998 23.277 130.98 23.4375 130.938 23.592C130.903 23.7465 130.843 23.9011 130.766 24.0556C130.688 24.2101 130.593 24.3587 130.474 24.5132L129.211 26.1892H128.633H128.639ZM129.557 24.0496C129.747 24.0496 129.914 24.008 130.057 23.9189C130.2 23.8357 130.313 23.7168 130.396 23.5623C130.48 23.4137 130.521 23.2414 130.521 23.0571C130.521 22.8729 130.48 22.6946 130.396 22.5401C130.313 22.3856 130.2 22.2726 130.051 22.1835C129.908 22.1003 129.741 22.0527 129.557 22.0527C129.372 22.0527 129.205 22.0943 129.062 22.1835C128.919 22.2726 128.8 22.3856 128.717 22.5401C128.633 22.6946 128.592 22.861 128.592 23.0571C128.592 23.2533 128.633 23.4137 128.717 23.5623C128.8 23.7109 128.913 23.8297 129.062 23.9189C129.211 24.008 129.372 24.0496 129.557 24.0496Z" fill="#1B1464"/>
<path d="M124.9 39.3581V35.2989H124.055V34.877H125.383V39.3581H124.9Z" fill="#1B1464"/>
<path d="M126.664 39.3589V38.6992H127.146V39.3589H126.664Z" fill="#1B1464"/>
<path d="M129.574 39.4294C129.294 39.4294 129.044 39.364 128.83 39.2392C128.615 39.1144 128.443 38.9361 128.317 38.7162C128.192 38.4963 128.133 38.2408 128.133 37.9496C128.133 37.7891 128.151 37.6286 128.192 37.4741C128.228 37.3196 128.288 37.1651 128.365 37.0105C128.443 36.856 128.538 36.7074 128.651 36.5529L129.914 34.877H130.491L128.931 36.9154L128.842 36.9689C128.901 36.8679 128.973 36.7906 129.05 36.7372C129.127 36.6837 129.223 36.6421 129.318 36.6183C129.419 36.5945 129.52 36.5826 129.634 36.5826C129.896 36.5826 130.128 36.6421 130.336 36.7669C130.545 36.8917 130.712 37.0581 130.831 37.2661C130.956 37.48 131.015 37.7237 131.015 38.009C131.015 38.2943 130.95 38.5201 130.825 38.734C130.7 38.948 130.527 39.1204 130.307 39.2392C130.086 39.3581 129.842 39.4234 129.568 39.4234L129.574 39.4294ZM129.574 39.0074C129.759 39.0074 129.925 38.9658 130.068 38.8767C130.211 38.7935 130.33 38.6687 130.414 38.5201C130.497 38.3656 130.539 38.1992 130.539 38.009C130.539 37.8188 130.497 37.6465 130.414 37.4979C130.33 37.3493 130.217 37.2304 130.074 37.1472C129.931 37.064 129.765 37.0165 129.574 37.0165C129.384 37.0165 129.223 37.0581 129.08 37.1472C128.931 37.2364 128.818 37.3493 128.734 37.4979C128.651 37.6465 128.609 37.8188 128.609 38.009C128.609 38.1992 128.651 38.3656 128.734 38.5201C128.818 38.6746 128.931 38.7935 129.08 38.8767C129.223 38.9658 129.389 39.0074 129.574 39.0074Z" fill="#1B1464"/>
<path d="M124.791 54.1745V50.3887H123.922V49.6934H125.607V54.1745H124.785H124.791Z" fill="#1B1464"/>
<path d="M126.922 54.174V53.3301H127.72V54.174H126.922Z" fill="#1B1464"/>
<path d="M130.248 54.2517C130.009 54.2517 129.783 54.2101 129.569 54.1209C129.354 54.0318 129.17 53.907 129.015 53.7465C128.86 53.586 128.753 53.3899 128.699 53.1641L129.408 52.9145C129.479 53.1165 129.587 53.271 129.741 53.3661C129.896 53.4672 130.063 53.5147 130.248 53.5147C130.403 53.5147 130.534 53.4791 130.653 53.4137C130.772 53.3483 130.861 53.2532 130.927 53.1343C130.992 53.0155 131.028 52.8788 131.028 52.7243C131.028 52.5697 130.992 52.4331 130.927 52.3142C130.861 52.1953 130.772 52.1062 130.653 52.0408C130.534 51.9754 130.403 51.9398 130.248 51.9398C130.093 51.9398 129.95 51.9754 129.825 52.0408C129.7 52.1062 129.604 52.2072 129.551 52.338L128.878 52.1894L129.235 49.6992H131.689V50.3886H129.569L129.878 50.032L129.622 51.9101L129.39 51.7199C129.503 51.5535 129.64 51.4346 129.801 51.3574C129.962 51.2801 130.164 51.2444 130.397 51.2444C130.694 51.2444 130.95 51.3098 131.171 51.4346C131.391 51.5654 131.558 51.7377 131.683 51.9576C131.808 52.1775 131.862 52.4331 131.862 52.7183C131.862 53.0036 131.79 53.2651 131.653 53.5028C131.51 53.7346 131.32 53.9188 131.081 54.0496C130.837 54.1803 130.569 54.2457 130.26 54.2457L130.248 54.2517Z" fill="#1B1464"/>
<path d="M41.0268 56.9146V48.3446H39.2461V47.4531H42.0453V56.9086H41.0268V56.9146Z" fill="#1B1464"/>
<path d="M44.75 56.9142V55.5176H45.7684V56.9142H44.75Z" fill="#1B1464"/>
<path d="M50.9207 57.0631C50.4264 57.0631 49.9737 56.9799 49.5509 56.8075C49.134 56.6352 48.7647 56.3975 48.4491 56.0825C48.1334 55.7675 47.8952 55.399 47.7344 54.9652L48.5086 54.5848C48.7052 55.0781 49.0268 55.4644 49.4675 55.7497C49.9142 56.0349 50.3966 56.1716 50.9088 56.1716C51.3257 56.1716 51.6949 56.0765 52.0225 55.8804C52.35 55.6843 52.6061 55.4228 52.7908 55.09C52.9754 54.7572 53.0707 54.3827 53.0707 53.9667C53.0707 53.5507 52.9754 53.1525 52.7848 52.8256C52.5942 52.4928 52.3381 52.2373 52.0165 52.0471C51.6949 51.8569 51.3316 51.7618 50.9207 51.7618C50.5097 51.7618 50.1226 51.8569 49.7712 52.0471C49.4198 52.2373 49.1637 52.469 49.0029 52.7424L48.1989 52.5879L48.9136 47.459H53.7079V48.3505H49.2829L49.6759 48.0058L49.1042 52.0411L48.7111 51.8628C49.0089 51.5003 49.3543 51.2388 49.7534 51.0843C50.1524 50.9298 50.5574 50.8466 50.9743 50.8466C51.5877 50.8466 52.1237 50.9892 52.5883 51.2745C53.0528 51.5597 53.4221 51.9342 53.6901 52.4037C53.9581 52.8732 54.0891 53.3962 54.0891 53.9727C54.0891 54.5491 53.9521 55.084 53.6782 55.5535C53.4042 56.023 53.023 56.3915 52.5466 56.6649C52.0701 56.9383 51.5222 57.069 50.9088 57.069L50.9207 57.0631Z" fill="#1B1464"/>
<path d="M124.865 68.3366V64.2774H124.02V63.8555H125.348V68.3366H124.865Z" fill="#1B1464"/>
<path d="M126.629 68.3355V67.6758H127.111V68.3355H126.629Z" fill="#1B1464"/>
<path d="M129.503 68.4078C129.27 68.4078 129.056 68.3662 128.859 68.289C128.663 68.2117 128.49 68.0928 128.341 67.9443C128.192 67.7957 128.085 67.6174 128.008 67.4153L128.395 67.237C128.49 67.4688 128.633 67.653 128.83 67.7897C129.026 67.9264 129.253 67.9918 129.503 67.9918C129.705 67.9918 129.884 67.9502 130.039 67.8729C130.194 67.7957 130.319 67.6828 130.408 67.5342C130.497 67.3856 130.539 67.2073 130.539 66.9934C130.539 66.7794 130.491 66.6011 130.402 66.4525C130.313 66.304 130.188 66.191 130.033 66.1138C129.878 66.0365 129.699 66.0009 129.497 66.0009C129.443 66.0009 129.39 66.0009 129.324 66.0068C129.259 66.0068 129.211 66.0187 129.169 66.0246L129.074 65.8166L130.283 64.2833H128.216V63.8613H130.825V64.2833L129.693 65.7096L129.634 65.6324C129.902 65.6383 130.14 65.7037 130.348 65.8226C130.557 65.9414 130.724 66.1019 130.843 66.298C130.962 66.5001 131.021 66.7319 131.021 66.9934C131.021 67.2549 130.956 67.4985 130.831 67.7125C130.7 67.9264 130.521 68.0988 130.295 68.2236C130.068 68.3484 129.8 68.4138 129.503 68.4138V68.4078Z" fill="#1B1464"/>
<path d="M124.893 83.153V79.0938H124.047V78.6719H125.375V83.153H124.893Z" fill="#1B1464"/>
<path d="M126.656 83.1538V82.4941H127.139V83.1538H126.656Z" fill="#1B1464"/>
<path d="M128.11 83.1541V82.851L129.361 81.4722C129.605 81.2047 129.807 80.9789 129.962 80.8065C130.117 80.6342 130.23 80.4678 130.308 80.3252C130.385 80.1825 130.421 80.0221 130.421 79.8557C130.421 79.5882 130.343 79.3802 130.188 79.2376C130.034 79.0949 129.825 79.0177 129.563 79.0177C129.301 79.0177 129.069 79.0949 128.884 79.2435C128.7 79.398 128.58 79.606 128.515 79.8794L128.074 79.7843C128.128 79.5407 128.223 79.3267 128.36 79.1544C128.497 78.982 128.67 78.8394 128.872 78.7443C129.075 78.6432 129.307 78.5957 129.557 78.5957C129.825 78.5957 130.063 78.6492 130.26 78.7562C130.462 78.8631 130.617 79.0117 130.73 79.2019C130.844 79.3921 130.903 79.606 130.903 79.8497C130.903 80.0161 130.867 80.1825 130.796 80.337C130.725 80.4916 130.623 80.6639 130.48 80.8422C130.337 81.0205 130.159 81.2345 129.938 81.4722L128.801 82.7262H131.022V83.1481H128.104L128.11 83.1541Z" fill="#1B1464"/>
<path d="M125.646 96.6549V92.5958H124.801V92.1738H126.129V96.6549H125.646Z" fill="#1B1464"/>
<path d="M127.41 96.6538V95.9941H127.893V96.6538H127.41Z" fill="#1B1464"/>
<path d="M129.482 96.6549V92.5958H128.637V92.1738H129.965V96.6549H129.482Z" fill="#1B1464"/>
<path d="M167.459 26.1882V22.129H166.613V21.707H167.941V26.1882H167.459Z" fill="#1B1464"/>
<path d="M166.032 39.3592V39.0561L167.283 37.6773C167.527 37.4098 167.729 37.184 167.884 37.0116C168.039 36.8393 168.152 36.6729 168.229 36.5302C168.307 36.3876 168.343 36.2271 168.343 36.0607C168.343 35.7933 168.265 35.5853 168.11 35.4426C167.956 35.3 167.747 35.2227 167.485 35.2227C167.223 35.2227 166.991 35.3 166.806 35.4486C166.621 35.6031 166.502 35.8111 166.437 36.0845L165.996 35.9894C166.05 35.7457 166.145 35.5318 166.282 35.3594C166.419 35.1871 166.592 35.0444 166.794 34.9494C166.997 34.8483 167.229 34.8008 167.479 34.8008C167.747 34.8008 167.985 34.8543 168.182 34.9612C168.384 35.0682 168.539 35.2168 168.652 35.407C168.766 35.5972 168.825 35.8111 168.825 36.0548C168.825 36.2212 168.789 36.3876 168.718 36.5421C168.646 36.6966 168.545 36.869 168.402 37.0473C168.259 37.2256 168.081 37.4395 167.86 37.6773L166.723 38.9313H168.944V39.3532H166.026L166.032 39.3592Z" fill="#1B1464"/>
<path d="M167.425 54.2516C167.192 54.2516 166.978 54.21 166.781 54.1327C166.585 54.0554 166.412 53.9366 166.263 53.788C166.114 53.6394 166.007 53.4611 165.93 53.2591L166.317 53.0808C166.412 53.3126 166.555 53.4968 166.752 53.6335C166.948 53.7702 167.174 53.8356 167.425 53.8356C167.627 53.8356 167.806 53.794 167.961 53.7167C168.115 53.6394 168.24 53.5265 168.33 53.3779C168.419 53.2294 168.461 53.0511 168.461 52.8371C168.461 52.6232 168.413 52.4449 168.324 52.2963C168.235 52.1477 168.109 52.0348 167.955 51.9575C167.8 51.8803 167.621 51.8446 167.419 51.8446C167.365 51.8446 167.311 51.8446 167.246 51.8505C167.18 51.8505 167.133 51.8624 167.091 51.8684L166.996 51.6604L168.205 50.127H166.138V49.7051H168.747V50.127L167.615 51.5534L167.556 51.4761C167.824 51.4821 168.062 51.5474 168.27 51.6663C168.479 51.7852 168.645 51.9456 168.765 52.1418C168.884 52.3438 168.943 52.5756 168.943 52.8371C168.943 53.0986 168.878 53.3423 168.753 53.5562C168.622 53.7702 168.443 53.9425 168.217 54.0673C167.99 54.1921 167.722 54.2575 167.425 54.2575V54.2516Z" fill="#1B1464"/>
<path d="M168.152 68.3366V67.2787H165.871V66.8865L168.152 63.8555H168.575V66.8865H169.123V67.2787H168.575V68.3366H168.152ZM166.234 67.0588L166.181 66.8865H168.152V64.2715L168.301 64.3131L166.234 67.0588Z" fill="#1B1464"/>
<path d="M167.454 83.2242C167.222 83.2242 167.007 83.1826 166.805 83.1054C166.602 83.0281 166.436 82.9093 166.281 82.7607C166.132 82.6121 166.019 82.4338 165.941 82.2317L166.311 82.0534C166.406 82.2852 166.555 82.4695 166.763 82.6061C166.972 82.7428 167.204 82.8082 167.448 82.8082C167.645 82.8082 167.823 82.7607 167.978 82.6715C168.133 82.5824 168.252 82.4516 168.342 82.2971C168.431 82.1426 168.473 81.9643 168.473 81.7622C168.473 81.5602 168.425 81.3759 168.336 81.2214C168.246 81.0669 168.121 80.9421 167.972 80.8529C167.817 80.7638 167.645 80.7162 167.454 80.7162C167.264 80.7162 167.073 80.7638 166.906 80.8529C166.739 80.9421 166.62 81.055 166.543 81.1798L166.162 81.1085L166.501 78.6777H168.776V79.0997H166.68L166.865 78.9392L166.591 80.8529L166.406 80.7697C166.549 80.5974 166.71 80.4726 166.9 80.4012C167.091 80.3299 167.281 80.2883 167.478 80.2883C167.77 80.2883 168.02 80.3537 168.246 80.4904C168.467 80.6271 168.639 80.8054 168.77 81.0253C168.895 81.2511 168.961 81.4948 168.961 81.7682C168.961 82.0416 168.895 82.2971 168.764 82.517C168.633 82.7369 168.455 82.9152 168.228 83.0459C168.002 83.1767 167.746 83.2361 167.454 83.2361V83.2242Z" fill="#1B1464"/>
<path d="M167.496 96.7263C167.216 96.7263 166.966 96.6609 166.752 96.5361C166.537 96.4113 166.364 96.233 166.239 96.0131C166.114 95.7932 166.055 95.5376 166.055 95.2464C166.055 95.086 166.073 94.9255 166.114 94.771C166.15 94.6165 166.21 94.4619 166.287 94.3074C166.364 94.1529 166.46 94.0043 166.573 93.8498L167.835 92.1738H168.413L166.853 94.2123L166.763 94.2658C166.823 94.1648 166.894 94.0875 166.972 94.034C167.049 93.9805 167.145 93.9389 167.24 93.9152C167.341 93.8914 167.442 93.8795 167.556 93.8795C167.818 93.8795 168.05 93.9389 168.258 94.0637C168.467 94.1885 168.634 94.355 168.753 94.563C168.878 94.7769 168.937 95.0206 168.937 95.3059C168.937 95.5911 168.872 95.817 168.747 96.0309C168.622 96.2449 168.449 96.4172 168.229 96.5361C168.008 96.6549 167.764 96.7203 167.49 96.7203L167.496 96.7263ZM167.496 96.3043C167.681 96.3043 167.847 96.2627 167.99 96.1736C168.133 96.0903 168.252 95.9655 168.336 95.817C168.419 95.6624 168.461 95.496 168.461 95.3059C168.461 95.1157 168.419 94.9433 168.336 94.7948C168.252 94.6462 168.139 94.5273 167.996 94.4441C167.853 94.3609 167.687 94.3134 167.496 94.3134C167.305 94.3134 167.145 94.355 167.002 94.4441C166.853 94.5332 166.74 94.6462 166.656 94.7948C166.573 94.9433 166.531 95.1157 166.531 95.3059C166.531 95.496 166.573 95.6624 166.656 95.817C166.74 95.9715 166.853 96.0903 167.002 96.1736C167.145 96.2627 167.311 96.3043 167.496 96.3043Z" fill="#1B1464"/>
<path d="M202.89 26.2606C202.598 26.2606 202.342 26.2011 202.115 26.0823C201.889 25.9634 201.71 25.8029 201.579 25.5949C201.448 25.3869 201.383 25.1551 201.383 24.8936C201.383 24.6084 201.466 24.3528 201.627 24.127C201.788 23.9011 202.008 23.7466 202.288 23.6575V23.7823C202.074 23.6872 201.913 23.5505 201.794 23.3722C201.675 23.188 201.621 22.9918 201.621 22.7838C201.621 22.5639 201.675 22.3678 201.788 22.1955C201.901 22.0231 202.05 21.8864 202.24 21.7854C202.431 21.6843 202.645 21.6309 202.89 21.6309C203.134 21.6309 203.354 21.6784 203.539 21.7794C203.729 21.8805 203.878 22.0112 203.985 22.1895C204.099 22.3619 204.152 22.5639 204.152 22.7898C204.152 23.0156 204.093 23.2117 203.974 23.39C203.854 23.5624 203.694 23.6991 203.497 23.7882V23.6634C203.771 23.7526 203.991 23.9071 204.152 24.1329C204.313 24.3588 204.396 24.6143 204.396 24.8996C204.396 25.1611 204.331 25.3929 204.2 25.6009C204.069 25.8089 203.89 25.9693 203.664 26.0882C203.438 26.2071 203.181 26.2665 202.89 26.2665V26.2606ZM202.89 25.8386C203.092 25.8386 203.271 25.797 203.426 25.7197C203.58 25.6425 203.7 25.5296 203.783 25.3869C203.872 25.2443 203.914 25.0779 203.914 24.8936C203.914 24.7094 203.872 24.543 203.783 24.4004C203.7 24.2577 203.575 24.1507 203.426 24.0675C203.271 23.9903 203.092 23.9487 202.89 23.9487C202.687 23.9487 202.502 23.9903 202.348 24.0675C202.193 24.1448 202.074 24.2577 201.99 24.4004C201.907 24.543 201.865 24.7094 201.865 24.8936C201.865 25.0779 201.907 25.2502 201.99 25.3869C202.074 25.5236 202.193 25.6365 202.348 25.7197C202.502 25.8029 202.681 25.8386 202.89 25.8386ZM202.89 23.5267C203.038 23.5267 203.17 23.497 203.289 23.4316C203.408 23.3663 203.497 23.2831 203.569 23.1701C203.64 23.0572 203.676 22.9324 203.676 22.7838C203.676 22.6352 203.64 22.5045 203.569 22.3975C203.497 22.2905 203.408 22.2014 203.289 22.142C203.17 22.0825 203.038 22.0469 202.89 22.0469C202.741 22.0469 202.61 22.0766 202.491 22.142C202.371 22.2014 202.276 22.2905 202.205 22.3975C202.133 22.5045 202.097 22.6352 202.097 22.7838C202.097 22.9324 202.133 23.0632 202.205 23.1701C202.276 23.2831 202.371 23.3663 202.491 23.4316C202.61 23.4911 202.741 23.5267 202.89 23.5267Z" fill="#1B1464"/>
<path d="M205.261 26.1882L207.286 22.129H205.047V21.707H207.786V22.129L205.768 26.1882H205.261Z" fill="#1B1464"/>
<path d="M210.07 26.1882V25.1303H207.789V24.738L210.07 21.707H210.493V24.738H211.041V25.1303H210.493V26.1882H210.07ZM208.152 24.9104L208.099 24.738H210.07V22.1231L210.219 22.1647L208.152 24.9104Z" fill="#1B1464"/>
<path d="M213.081 26.2613C212.849 26.2613 212.634 26.2197 212.438 26.1425C212.241 26.0652 212.068 25.9464 211.919 25.7978C211.771 25.6492 211.663 25.4709 211.586 25.2688L211.973 25.0905C212.068 25.3223 212.211 25.5066 212.408 25.6433C212.604 25.7799 212.831 25.8453 213.081 25.8453C213.283 25.8453 213.462 25.8037 213.617 25.7265C213.772 25.6492 213.897 25.5363 213.986 25.3877C214.075 25.2391 214.117 25.0608 214.117 24.8469C214.117 24.6329 214.069 24.4546 213.98 24.306C213.891 24.1575 213.766 24.0446 213.611 23.9673C213.456 23.89 213.277 23.8544 213.075 23.8544C213.021 23.8544 212.968 23.8544 212.902 23.8603C212.837 23.8603 212.789 23.8722 212.747 23.8781L212.652 23.6701L213.861 22.1368H211.794V21.7148H214.403V22.1368L213.271 23.5632L213.212 23.4859C213.48 23.4918 213.718 23.5572 213.927 23.6761C214.135 23.7949 214.302 23.9554 214.421 24.1515C214.54 24.3536 214.6 24.5854 214.6 24.8469C214.6 25.1084 214.534 25.352 214.409 25.566C214.278 25.7799 214.099 25.9523 213.873 26.0771C213.647 26.2019 213.379 26.2673 213.081 26.2673V26.2613Z" fill="#1B1464"/>
<path d="M202.509 39.4313C202.277 39.4313 202.062 39.3897 201.86 39.3124C201.657 39.2351 201.49 39.1163 201.336 38.9677C201.187 38.8191 201.074 38.6408 200.996 38.4388L201.365 38.2605C201.461 38.4922 201.61 38.6765 201.818 38.8132C202.026 38.9499 202.259 39.0152 202.503 39.0152C202.699 39.0152 202.878 38.9677 203.033 38.8786C203.188 38.7894 203.307 38.6587 203.396 38.5041C203.486 38.3496 203.527 38.1713 203.527 37.9692C203.527 37.7672 203.48 37.5829 203.39 37.4284C203.301 37.2739 203.176 37.1491 203.027 37.06C202.872 36.9708 202.699 36.9233 202.509 36.9233C202.318 36.9233 202.128 36.9708 201.961 37.06C201.794 37.1491 201.675 37.262 201.598 37.3868L201.216 37.3155L201.556 34.8848H203.831V35.3067H201.735L201.919 35.1463L201.645 37.06L201.461 36.9767C201.604 36.8044 201.764 36.6796 201.955 36.6083C202.146 36.537 202.336 36.4954 202.533 36.4954C202.824 36.4954 203.075 36.5607 203.301 36.6974C203.521 36.8341 203.694 37.0124 203.825 37.2323C203.95 37.4581 204.016 37.7018 204.016 37.9752C204.016 38.2486 203.95 38.5041 203.819 38.724C203.688 38.9439 203.509 39.1222 203.283 39.253C203.057 39.3837 202.801 39.4431 202.509 39.4431V39.4313Z" fill="#1B1464"/>
<path d="M206.215 39.4294C205.935 39.4294 205.685 39.364 205.47 39.2392C205.256 39.1144 205.083 38.9361 204.958 38.7162C204.833 38.4963 204.773 38.2408 204.773 37.9496C204.773 37.7891 204.791 37.6286 204.833 37.4741C204.869 37.3196 204.928 37.1651 205.006 37.0105C205.083 36.856 205.178 36.7074 205.292 36.5529L206.554 34.877H207.132L205.571 36.9154L205.482 36.9689C205.542 36.8679 205.613 36.7906 205.691 36.7372C205.768 36.6837 205.863 36.6421 205.959 36.6183C206.06 36.5945 206.161 36.5826 206.274 36.5826C206.536 36.5826 206.769 36.6421 206.977 36.7669C207.185 36.8917 207.352 37.0581 207.471 37.2661C207.596 37.48 207.656 37.7237 207.656 38.009C207.656 38.2943 207.59 38.5201 207.465 38.734C207.34 38.948 207.168 39.1204 206.947 39.2392C206.727 39.3581 206.483 39.4234 206.209 39.4234L206.215 39.4294ZM206.215 39.0074C206.399 39.0074 206.566 38.9658 206.709 38.8767C206.852 38.7935 206.971 38.6687 207.054 38.5201C207.138 38.3656 207.18 38.1992 207.18 38.009C207.18 37.8188 207.138 37.6465 207.054 37.4979C206.971 37.3493 206.858 37.2304 206.715 37.1472C206.572 37.064 206.405 37.0165 206.215 37.0165C206.024 37.0165 205.863 37.0581 205.72 37.1472C205.571 37.2364 205.458 37.3493 205.375 37.4979C205.292 37.6465 205.25 37.8188 205.25 38.009C205.25 38.1992 205.292 38.3656 205.375 38.5201C205.458 38.6746 205.571 38.7935 205.72 38.8767C205.863 38.9658 206.03 39.0074 206.215 39.0074Z" fill="#1B1464"/>
<path d="M208.352 39.3592V39.0561L209.603 37.6773C209.847 37.4098 210.05 37.184 210.204 37.0116C210.359 36.8393 210.472 36.6729 210.55 36.5302C210.627 36.3876 210.663 36.2271 210.663 36.0607C210.663 35.7933 210.586 35.5853 210.431 35.4426C210.276 35.3 210.067 35.2227 209.805 35.2227C209.543 35.2227 209.311 35.3 209.126 35.4486C208.942 35.6031 208.823 35.8111 208.757 36.0845L208.316 35.9894C208.37 35.7457 208.465 35.5318 208.602 35.3594C208.739 35.1871 208.912 35.0444 209.114 34.9494C209.317 34.8483 209.549 34.8008 209.799 34.8008C210.067 34.8008 210.306 34.8543 210.502 34.9612C210.705 35.0682 210.86 35.2168 210.973 35.407C211.086 35.5972 211.145 35.8111 211.145 36.0548C211.145 36.2212 211.11 36.3876 211.038 36.5421C210.967 36.6966 210.865 36.869 210.723 37.0473C210.58 37.2256 210.401 37.4395 210.181 37.6773L209.043 38.9313H211.264V39.3532H208.346L208.352 39.3592Z" fill="#1B1464"/>
<path d="M213.389 39.4313C213.157 39.4313 212.943 39.3897 212.746 39.3124C212.55 39.2351 212.377 39.1163 212.228 38.9677C212.079 38.8191 211.972 38.6408 211.895 38.4388L212.282 38.2605C212.377 38.4922 212.52 38.6765 212.716 38.8132C212.913 38.9499 213.139 39.0152 213.389 39.0152C213.592 39.0152 213.771 38.9736 213.925 38.8964C214.08 38.8191 214.205 38.7062 214.295 38.5576C214.384 38.409 214.426 38.2307 214.426 38.0168C214.426 37.8028 214.378 37.6245 214.289 37.476C214.199 37.3274 214.074 37.2145 213.919 37.1372C213.765 37.06 213.586 37.0243 213.383 37.0243C213.33 37.0243 213.276 37.0243 213.211 37.0302C213.145 37.0302 213.098 37.0421 213.056 37.0481L212.961 36.8401L214.17 35.3067H212.103V34.8848H214.712V35.3067L213.58 36.7331L213.52 36.6558C213.788 36.6618 214.027 36.7271 214.235 36.846C214.444 36.9649 214.61 37.1253 214.729 37.3214C214.849 37.5235 214.908 37.7553 214.908 38.0168C214.908 38.2783 214.843 38.522 214.718 38.7359C214.587 38.9499 214.408 39.1222 214.182 39.247C213.955 39.3718 213.687 39.4372 213.389 39.4372V39.4313Z" fill="#1B1464"/>
<path d="M202.568 54.1764V50.1173H201.723V49.6953H203.051V54.1764H202.568Z" fill="#1B1464"/>
<path d="M204.589 54.1755L206.149 52.137L206.238 52.0835C206.179 52.1786 206.107 52.2559 206.03 52.3093C205.953 52.3628 205.863 52.4044 205.762 52.4282C205.667 52.452 205.559 52.4639 205.44 52.4639C205.178 52.4639 204.946 52.4044 204.738 52.2796C204.529 52.1548 204.362 51.9884 204.243 51.7745C204.118 51.5605 204.059 51.3168 204.059 51.0375C204.059 50.7582 204.124 50.5205 204.249 50.3124C204.374 50.1044 204.547 49.9321 204.767 49.8073C204.988 49.6825 205.232 49.623 205.506 49.623C205.78 49.623 206.036 49.6884 206.25 49.8132C206.465 49.938 206.637 50.1163 206.762 50.3362C206.888 50.5561 206.947 50.8117 206.947 51.1029C206.947 51.2633 206.929 51.4238 206.888 51.5783C206.852 51.7329 206.792 51.8874 206.715 52.0419C206.637 52.1964 206.542 52.345 206.423 52.4995L205.16 54.1755H204.583H204.589ZM205.506 52.036C205.696 52.036 205.863 51.9944 206.006 51.9052C206.149 51.822 206.262 51.7031 206.346 51.5486C206.429 51.4 206.471 51.2277 206.471 51.0435C206.471 50.8592 206.429 50.6809 206.346 50.5264C206.262 50.3719 206.149 50.259 206 50.1698C205.857 50.0866 205.69 50.0391 205.506 50.0391C205.321 50.0391 205.154 50.0807 205.012 50.1698C204.869 50.259 204.749 50.3719 204.666 50.5264C204.583 50.6809 204.541 50.8473 204.541 51.0435C204.541 51.2396 204.583 51.4 204.666 51.5486C204.749 51.6972 204.863 51.8161 205.012 51.9052C205.16 51.9944 205.321 52.036 205.506 52.036Z" fill="#1B1464"/>
<path d="M209 54.2517C208.72 54.2517 208.47 54.1863 208.255 54.0615C208.041 53.9367 207.868 53.7584 207.743 53.5385C207.618 53.3186 207.559 53.063 207.559 52.7718C207.559 52.6114 207.576 52.4509 207.618 52.2964C207.654 52.1418 207.713 51.9873 207.791 51.8328C207.868 51.6783 207.964 51.5297 208.077 51.3752L209.339 49.6992H209.917L208.357 51.7377L208.267 51.7912C208.327 51.6902 208.398 51.6129 208.476 51.5594C208.553 51.5059 208.648 51.4643 208.744 51.4406C208.845 51.4168 208.946 51.4049 209.059 51.4049C209.321 51.4049 209.554 51.4643 209.762 51.5891C209.971 51.7139 210.137 51.8803 210.257 52.0884C210.382 52.3023 210.441 52.546 210.441 52.8312C210.441 53.1165 210.376 53.3424 210.251 53.5563C210.125 53.7703 209.953 53.9426 209.732 54.0615C209.512 54.1803 209.268 54.2457 208.994 54.2457L209 54.2517ZM209 53.8297C209.185 53.8297 209.351 53.7881 209.494 53.6989C209.637 53.6157 209.756 53.4909 209.84 53.3424C209.923 53.1878 209.965 53.0214 209.965 52.8312C209.965 52.6411 209.923 52.4687 209.84 52.3201C209.756 52.1716 209.643 52.0527 209.5 51.9695C209.357 51.8863 209.19 51.8387 209 51.8387C208.809 51.8387 208.648 51.8803 208.506 51.9695C208.357 52.0586 208.244 52.1716 208.16 52.3201C208.077 52.4687 208.035 52.6411 208.035 52.8312C208.035 53.0214 208.077 53.1878 208.16 53.3424C208.244 53.4969 208.357 53.6157 208.506 53.6989C208.648 53.7881 208.815 53.8297 209 53.8297Z" fill="#1B1464"/>
<path d="M212.61 54.2535C212.378 54.2535 212.164 54.2119 211.961 54.1347C211.759 54.0574 211.592 53.9385 211.437 53.79C211.288 53.6414 211.175 53.4631 211.098 53.261L211.467 53.0827C211.562 53.3145 211.711 53.4987 211.92 53.6354C212.128 53.7721 212.36 53.8375 212.604 53.8375C212.801 53.8375 212.98 53.79 213.134 53.7008C213.289 53.6117 213.408 53.4809 213.498 53.3264C213.587 53.1719 213.629 52.9936 213.629 52.7915C213.629 52.5894 213.581 52.4052 213.492 52.2507C213.403 52.0962 213.277 51.9714 213.129 51.8822C212.974 51.7931 212.801 51.7455 212.61 51.7455C212.42 51.7455 212.229 51.7931 212.062 51.8822C211.896 51.9714 211.777 52.0843 211.699 52.2091L211.318 52.1378L211.657 49.707H213.933V50.129H211.836L212.021 49.9685L211.747 51.8822L211.562 51.799C211.705 51.6267 211.866 51.5019 212.057 51.4305C212.247 51.3592 212.438 51.3176 212.634 51.3176C212.926 51.3176 213.176 51.383 213.403 51.5197C213.623 51.6564 213.796 51.8347 213.927 52.0546C214.052 52.2804 214.117 52.5241 214.117 52.7975C214.117 53.0708 214.052 53.3264 213.921 53.5463C213.79 53.7662 213.611 53.9445 213.385 54.0752C213.158 54.206 212.902 54.2654 212.61 54.2654V54.2535Z" fill="#1B1464"/>
<path d="M202.501 68.409C202.15 68.409 201.834 68.3139 201.572 68.1178C201.304 67.9217 201.096 67.6542 200.947 67.3036C200.798 66.9589 200.727 66.5547 200.727 66.0912C200.727 65.6276 200.798 65.2235 200.947 64.8788C201.096 64.5341 201.304 64.2607 201.566 64.0705C201.834 63.8803 202.138 63.7793 202.495 63.7793C202.853 63.7793 203.156 63.8744 203.424 64.0705C203.692 64.2607 203.895 64.5341 204.044 64.8788C204.193 65.2235 204.27 65.6276 204.27 66.0912C204.27 66.5547 204.199 66.9589 204.05 67.3036C203.901 67.6542 203.698 67.9217 203.43 68.1178C203.168 68.308 202.859 68.409 202.501 68.409ZM202.501 67.9573C202.757 67.9573 202.984 67.8801 203.174 67.7255C203.365 67.571 203.52 67.3511 203.627 67.0718C203.734 66.7925 203.788 66.4656 203.788 66.0971C203.788 65.7286 203.734 65.3958 203.627 65.1224C203.52 64.8431 203.371 64.6292 203.174 64.4746C202.984 64.3201 202.752 64.2429 202.495 64.2429C202.239 64.2429 202.013 64.3201 201.822 64.4746C201.632 64.6292 201.477 64.8431 201.37 65.1224C201.263 65.4018 201.209 65.7286 201.209 66.0971C201.209 66.4656 201.263 66.7925 201.37 67.0718C201.477 67.3511 201.632 67.571 201.822 67.7255C202.019 67.8801 202.245 67.9573 202.501 67.9573Z" fill="#1B1464"/>
<path d="M205.573 68.3376L207.133 66.2991L207.223 66.2456C207.163 66.3407 207.092 66.418 207.014 66.4715C206.937 66.5249 206.848 66.5665 206.746 66.5903C206.651 66.6141 206.544 66.626 206.425 66.626C206.163 66.626 205.93 66.5665 205.722 66.4417C205.513 66.3169 205.347 66.1505 205.228 65.9366C205.103 65.7226 205.043 65.479 205.043 65.1996C205.043 64.9203 205.108 64.6826 205.234 64.4746C205.359 64.2666 205.531 64.0942 205.752 63.9694C205.972 63.8446 206.216 63.7852 206.49 63.7852C206.764 63.7852 207.02 63.8505 207.235 63.9753C207.449 64.1001 207.622 64.2784 207.747 64.4983C207.872 64.7182 207.931 64.9738 207.931 65.265C207.931 65.4255 207.914 65.5859 207.872 65.7404C207.836 65.895 207.777 66.0495 207.699 66.204C207.622 66.3585 207.526 66.5071 207.407 66.6616L206.145 68.3376H205.567H205.573ZM206.49 66.1981C206.681 66.1981 206.848 66.1565 206.99 66.0673C207.133 65.9841 207.247 65.8653 207.33 65.7107C207.413 65.5622 207.455 65.3898 207.455 65.2056C207.455 65.0213 207.413 64.843 207.33 64.6885C207.247 64.534 207.133 64.4211 206.985 64.3319C206.842 64.2487 206.675 64.2012 206.49 64.2012C206.306 64.2012 206.139 64.2428 205.996 64.3319C205.853 64.4211 205.734 64.534 205.65 64.6885C205.567 64.843 205.525 65.0094 205.525 65.2056C205.525 65.4017 205.567 65.5622 205.65 65.7107C205.734 65.8593 205.847 65.9782 205.996 66.0673C206.145 66.1565 206.306 66.1981 206.49 66.1981Z" fill="#1B1464"/>
<path d="M209.171 68.3376L210.731 66.2991L210.82 66.2456C210.761 66.3407 210.689 66.418 210.612 66.4715C210.535 66.5249 210.445 66.5665 210.344 66.5903C210.249 66.6141 210.141 66.626 210.022 66.626C209.76 66.626 209.528 66.5665 209.32 66.4417C209.111 66.3169 208.944 66.1505 208.825 65.9366C208.7 65.7226 208.641 65.479 208.641 65.1996C208.641 64.9203 208.706 64.6826 208.831 64.4746C208.956 64.2666 209.129 64.0942 209.349 63.9694C209.57 63.8446 209.814 63.7852 210.088 63.7852C210.362 63.7852 210.618 63.8505 210.832 63.9753C211.047 64.1001 211.219 64.2784 211.344 64.4983C211.47 64.7182 211.529 64.9738 211.529 65.265C211.529 65.4255 211.511 65.5859 211.47 65.7404C211.434 65.895 211.374 66.0495 211.297 66.204C211.219 66.3585 211.124 66.5071 211.005 66.6616L209.742 68.3376H209.165H209.171ZM210.088 66.1981C210.278 66.1981 210.445 66.1565 210.588 66.0673C210.731 65.9841 210.844 65.8653 210.928 65.7107C211.011 65.5622 211.053 65.3898 211.053 65.2056C211.053 65.0213 211.011 64.843 210.928 64.6885C210.844 64.534 210.731 64.4211 210.582 64.3319C210.439 64.2487 210.272 64.2012 210.088 64.2012C209.903 64.2012 209.736 64.2428 209.594 64.3319C209.451 64.4211 209.331 64.534 209.248 64.6885C209.165 64.843 209.123 65.0094 209.123 65.2056C209.123 65.4017 209.165 65.5622 209.248 65.7107C209.331 65.8593 209.445 65.9782 209.594 66.0673C209.742 66.1565 209.903 66.1981 210.088 66.1981Z" fill="#1B1464"/>
<path d="M213.788 68.409C213.496 68.409 213.24 68.3496 213.014 68.2307C212.787 68.1118 212.609 67.9514 212.478 67.7434C212.347 67.5354 212.281 67.3036 212.281 67.0421C212.281 66.7568 212.365 66.5012 212.525 66.2754C212.686 66.0496 212.907 65.895 213.187 65.8059V65.9307C212.972 65.8356 212.811 65.6989 212.692 65.5206C212.573 65.3364 212.519 65.1403 212.519 64.9323C212.519 64.7124 212.573 64.5162 212.686 64.3439C212.799 64.1715 212.948 64.0348 213.139 63.9338C213.329 63.8328 213.544 63.7793 213.788 63.7793C214.032 63.7793 214.253 63.8268 214.437 63.9279C214.628 64.0289 214.777 64.1597 214.884 64.3379C214.997 64.5103 215.051 64.7124 215.051 64.9382C215.051 65.164 214.991 65.3602 214.872 65.5385C214.753 65.7108 214.592 65.8475 214.396 65.9367V65.8118C214.669 65.901 214.89 66.0555 215.051 66.2814C215.211 66.5072 215.295 66.7627 215.295 67.048C215.295 67.3095 215.229 67.5413 215.098 67.7493C214.967 67.9573 214.789 68.1178 214.562 68.2366C214.336 68.3555 214.08 68.4149 213.788 68.4149V68.409ZM213.788 67.987C213.991 67.987 214.169 67.9454 214.324 67.8682C214.479 67.7909 214.598 67.678 214.681 67.5354C214.771 67.3927 214.812 67.2263 214.812 67.0421C214.812 66.8578 214.771 66.6914 214.681 66.5488C214.598 66.4062 214.473 66.2992 214.324 66.216C214.169 66.1387 213.991 66.0971 213.788 66.0971C213.586 66.0971 213.401 66.1387 213.246 66.216C213.091 66.2932 212.972 66.4062 212.889 66.5488C212.805 66.6914 212.764 66.8578 212.764 67.0421C212.764 67.2263 212.805 67.3987 212.889 67.5354C212.972 67.672 213.091 67.785 213.246 67.8682C213.401 67.9514 213.58 67.987 213.788 67.987ZM213.788 65.6752C213.937 65.6752 214.068 65.6454 214.187 65.5801C214.306 65.5147 214.396 65.4315 214.467 65.3186C214.538 65.2056 214.574 65.0808 214.574 64.9323C214.574 64.7837 214.538 64.6529 214.467 64.546C214.396 64.439 214.306 64.3498 214.187 64.2904C214.068 64.231 213.937 64.1953 213.788 64.1953C213.639 64.1953 213.508 64.225 213.389 64.2904C213.27 64.3498 213.175 64.439 213.103 64.546C213.032 64.6529 212.996 64.7837 212.996 64.9323C212.996 65.0808 213.032 65.2116 213.103 65.3186C213.175 65.4315 213.27 65.5147 213.389 65.5801C213.508 65.6395 213.639 65.6752 213.788 65.6752Z" fill="#1B1464"/>
<path d="M201.304 83.153L203.329 79.0938H201.09V78.6719H203.829V79.0938L201.81 83.153H201.304Z" fill="#1B1464"/>
<path d="M205.991 83.2254C205.699 83.2254 205.443 83.166 205.217 83.0471C204.991 82.9282 204.812 82.7678 204.681 82.5598C204.55 82.3518 204.484 82.12 204.484 81.8585C204.484 81.5732 204.568 81.3177 204.729 81.0918C204.889 80.866 205.11 80.7115 205.39 80.6223V80.7471C205.175 80.652 205.014 80.5153 204.895 80.337C204.776 80.1528 204.723 79.9567 204.723 79.7487C204.723 79.5288 204.776 79.3326 204.889 79.1603C205.003 78.9879 205.151 78.8513 205.342 78.7502C205.533 78.6492 205.747 78.5957 205.991 78.5957C206.235 78.5957 206.456 78.6432 206.64 78.7443C206.831 78.8453 206.98 78.9761 207.087 79.1544C207.2 79.3267 207.254 79.5288 207.254 79.7546C207.254 79.9805 207.194 80.1766 207.075 80.3549C206.956 80.5272 206.795 80.6639 206.599 80.7531V80.6283C206.873 80.7174 207.093 80.8719 207.254 81.0978C207.415 81.3236 207.498 81.5792 207.498 81.8644C207.498 82.1259 207.432 82.3577 207.301 82.5657C207.17 82.7737 206.992 82.9342 206.765 83.0531C206.539 83.1719 206.283 83.2313 205.991 83.2313V83.2254ZM205.991 82.8034C206.194 82.8034 206.372 82.7618 206.527 82.6846C206.682 82.6073 206.801 82.4944 206.885 82.3518C206.974 82.2091 207.016 82.0427 207.016 81.8585C207.016 81.6742 206.974 81.5078 206.885 81.3652C206.801 81.2226 206.676 81.1156 206.527 81.0324C206.372 80.9551 206.194 80.9135 205.991 80.9135C205.789 80.9135 205.604 80.9551 205.449 81.0324C205.294 81.1097 205.175 81.2226 205.092 81.3652C205.008 81.5078 204.967 81.6742 204.967 81.8585C204.967 82.0427 205.008 82.2151 205.092 82.3518C205.175 82.4885 205.294 82.6014 205.449 82.6846C205.604 82.7678 205.783 82.8034 205.991 82.8034ZM205.991 80.4916C206.14 80.4916 206.271 80.4618 206.39 80.3965C206.509 80.3311 206.599 80.2479 206.67 80.135C206.742 80.0221 206.777 79.8973 206.777 79.7487C206.777 79.6001 206.742 79.4693 206.67 79.3624C206.599 79.2554 206.509 79.1662 206.39 79.1068C206.271 79.0474 206.14 79.0117 205.991 79.0117C205.842 79.0117 205.711 79.0414 205.592 79.1068C205.473 79.1662 205.378 79.2554 205.306 79.3624C205.235 79.4693 205.199 79.6001 205.199 79.7487C205.199 79.8973 205.235 80.028 205.306 80.135C205.378 80.2479 205.473 80.3311 205.592 80.3965C205.711 80.4559 205.842 80.4916 205.991 80.4916Z" fill="#1B1464"/>
<path d="M209.691 83.2243C209.411 83.2243 209.161 83.1589 208.947 83.0341C208.732 82.9093 208.56 82.731 208.435 82.5111C208.31 82.2912 208.25 82.0357 208.25 81.7445C208.25 81.584 208.268 81.4235 208.31 81.269C208.345 81.1145 208.405 80.96 208.482 80.8055C208.56 80.6509 208.655 80.5024 208.768 80.3478L210.031 78.6719H210.608L209.048 80.7104L208.959 80.7639C209.018 80.6628 209.09 80.5856 209.167 80.5321C209.245 80.4786 209.34 80.437 209.435 80.4132C209.536 80.3894 209.638 80.3776 209.751 80.3776C210.013 80.3776 210.245 80.437 210.454 80.5618C210.662 80.6866 210.829 80.853 210.948 81.061C211.073 81.275 211.133 81.5186 211.133 81.8039C211.133 82.0892 211.067 82.315 210.942 82.529C210.817 82.7429 210.644 82.9153 210.424 83.0341C210.203 83.153 209.959 83.2184 209.685 83.2184L209.691 83.2243ZM209.691 82.8024C209.876 82.8024 210.043 82.7607 210.186 82.6716C210.329 82.5884 210.448 82.4636 210.531 82.315C210.614 82.1605 210.656 81.9941 210.656 81.8039C210.656 81.6137 210.614 81.4414 210.531 81.2928C210.448 81.1442 210.335 81.0254 210.192 80.9421C210.049 80.8589 209.882 80.8114 209.691 80.8114C209.501 80.8114 209.34 80.853 209.197 80.9421C209.048 81.0313 208.935 81.1442 208.852 81.2928C208.768 81.4414 208.726 81.6137 208.726 81.8039C208.726 81.9941 208.768 82.1605 208.852 82.315C208.935 82.4695 209.048 82.5884 209.197 82.6716C209.34 82.7607 209.507 82.8024 209.691 82.8024Z" fill="#1B1464"/>
<path d="M213.253 83.2262C213.02 83.2262 212.806 83.1846 212.609 83.1073C212.413 83.0301 212.24 82.9112 212.091 82.7626C211.942 82.614 211.835 82.4358 211.758 82.2337L212.145 82.0554C212.24 82.2872 212.383 82.4714 212.58 82.6081C212.776 82.7448 213.003 82.8102 213.253 82.8102C213.455 82.8102 213.634 82.7686 213.789 82.6913C213.944 82.614 214.069 82.5011 214.158 82.3525C214.247 82.204 214.289 82.0257 214.289 81.8117C214.289 81.5978 214.241 81.4195 214.152 81.2709C214.063 81.1223 213.938 81.0094 213.783 80.9321C213.628 80.8549 213.449 80.8192 213.247 80.8192C213.193 80.8192 213.14 80.8192 213.074 80.8252C213.009 80.8252 212.961 80.837 212.919 80.843L212.824 80.635L214.033 79.1017H211.966V78.6797H214.575V79.1017L213.443 80.528L213.384 80.4507C213.652 80.4567 213.89 80.5221 214.098 80.6409C214.307 80.7598 214.474 80.9203 214.593 81.1164C214.712 81.3184 214.771 81.5502 214.771 81.8117C214.771 82.0732 214.706 82.3169 214.581 82.5308C214.45 82.7448 214.271 82.9171 214.045 83.042C213.818 83.1668 213.55 83.2321 213.253 83.2321V83.2262Z" fill="#1B1464"/>
<path d="M203.058 96.6549V95.5971H200.777V95.2048L203.058 92.1738H203.481V95.2048H204.029V95.5971H203.481V96.6549H203.058ZM201.141 95.3772L201.087 95.2048H203.058V92.5898L203.207 92.6315L201.141 95.3772Z" fill="#1B1464"/>
<path d="M206.851 96.6549V95.5971H204.57V95.2048L206.851 92.1738H207.274V95.2048H207.822V95.5971H207.274V96.6549H206.851ZM204.934 95.3772L204.88 95.2048H206.851V92.5898L207 92.6315L204.934 95.3772Z" fill="#1B1464"/>
<path d="M210.652 96.6549V95.5971H208.371V95.2048L210.652 92.1738H211.075V95.2048H211.623V95.5971H211.075V96.6549H210.652ZM208.734 95.3772L208.681 95.2048H210.652V92.5898L210.801 92.6315L208.734 95.3772Z" fill="#1B1464"/>
<path d="M213.695 96.7263C213.415 96.7263 213.165 96.6609 212.951 96.5361C212.736 96.4113 212.564 96.233 212.439 96.0131C212.313 95.7932 212.254 95.5376 212.254 95.2464C212.254 95.086 212.272 94.9255 212.313 94.771C212.349 94.6165 212.409 94.4619 212.486 94.3074C212.564 94.1529 212.659 94.0043 212.772 93.8498L214.035 92.1738H214.612L213.052 94.2123L212.963 94.2658C213.022 94.1648 213.094 94.0875 213.171 94.034C213.249 93.9805 213.344 93.9389 213.439 93.9152C213.54 93.8914 213.642 93.8795 213.755 93.8795C214.017 93.8795 214.249 93.9389 214.458 94.0637C214.666 94.1885 214.833 94.355 214.952 94.563C215.077 94.7769 215.136 95.0206 215.136 95.3059C215.136 95.5911 215.071 95.817 214.946 96.0309C214.821 96.2449 214.648 96.4172 214.428 96.5361C214.207 96.6549 213.963 96.7203 213.689 96.7203L213.695 96.7263ZM213.695 96.3043C213.88 96.3043 214.047 96.2627 214.19 96.1736C214.332 96.0903 214.452 95.9655 214.535 95.817C214.618 95.6624 214.66 95.496 214.66 95.3059C214.66 95.1157 214.618 94.9433 214.535 94.7948C214.452 94.6462 214.338 94.5273 214.195 94.4441C214.053 94.3609 213.886 94.3134 213.695 94.3134C213.505 94.3134 213.344 94.355 213.201 94.4441C213.052 94.5332 212.939 94.6462 212.855 94.7948C212.772 94.9433 212.73 95.1157 212.73 95.3059C212.73 95.496 212.772 95.6624 212.855 95.817C212.939 95.9715 213.052 96.0903 213.201 96.1736C213.344 96.2627 213.511 96.3043 213.695 96.3043Z" fill="#1B1464"/>
<path d="M159.934 11.3717V6.89062H161.476C161.768 6.89062 162.024 6.95006 162.25 7.06298C162.477 7.1759 162.643 7.33636 162.769 7.54437C162.894 7.75238 162.953 7.9901 162.953 8.26349C162.953 8.57847 162.87 8.85186 162.703 9.0777C162.536 9.30354 162.31 9.45806 162.024 9.55315L163.072 11.3777H162.506L161.411 9.44617L161.738 9.63041H160.422V11.3717H159.94H159.934ZM160.416 9.17873H161.5C161.691 9.17873 161.863 9.14307 162.006 9.06581C162.149 8.99449 162.262 8.88752 162.346 8.74488C162.423 8.60819 162.465 8.44178 162.465 8.25755C162.465 8.07331 162.423 7.9069 162.346 7.77021C162.262 7.63352 162.155 7.52654 162.006 7.45522C161.863 7.3839 161.691 7.3423 161.5 7.3423H160.416V9.17873Z" fill="#1B1464"/>
<path d="M163.334 11.3717L164.972 6.89062H165.49L167.128 11.3717H166.622L166.234 10.2782H164.227L163.834 11.3717H163.328H163.334ZM164.388 9.82653H166.068L165.157 7.25316H165.299L164.382 9.82653H164.388Z" fill="#1B1464"/>
<path d="M167.73 11.3717V6.89062H168.153L170.786 10.6586H170.625V6.89062H171.107V11.3717H170.684L168.052 7.58003H168.213V11.3717H167.73Z" fill="#1B1464"/>
<path d="M172.168 11.3717V6.89062H172.65V9.5056L172.543 9.45211L174.8 6.89062H175.402L173.585 8.94695L173.609 8.60225L175.509 11.3658H174.931L173.401 9.1609L172.65 10.0167V11.3717H172.168Z" fill="#1B1464"/>
<path d="M205.512 11.3717V6.89062H205.994V11.3717H205.512Z" fill="#1B1464"/>
<path d="M207.055 11.3717V6.89062H208.532C208.978 6.89062 209.365 6.97977 209.693 7.16401C210.021 7.34825 210.277 7.6038 210.461 7.94256C210.64 8.27537 210.735 8.67356 210.735 9.13119C210.735 9.58881 210.646 9.98105 210.461 10.3139C210.283 10.6526 210.027 10.9141 209.693 11.0984C209.365 11.2826 208.978 11.3777 208.532 11.3777H207.055V11.3717ZM207.537 10.9201H208.532C208.877 10.9201 209.175 10.8488 209.431 10.7002C209.687 10.5516 209.878 10.3436 210.021 10.0761C210.158 9.8087 210.229 9.49372 210.229 9.12524C210.229 8.75677 210.158 8.44773 210.021 8.18028C209.878 7.91284 209.681 7.70483 209.431 7.5622C209.181 7.41956 208.883 7.3423 208.538 7.3423H207.543V10.9201H207.537Z" fill="#1B1464"/>
<path d="M225.571 30.2109H109.363V30.5438H225.571V30.2109Z" fill="#1B1464"/>
<path d="M225.571 44.375H109.363V44.7078H225.571V44.375Z" fill="#1B1464"/>
<path d="M225.571 58.5312H109.363V58.8641H225.571V58.5312Z" fill="#1B1464"/>
<path d="M225.571 72.6875H109.363V73.0203H225.571V72.6875Z" fill="#1B1464"/>
<path d="M225.571 86.8438H109.363V87.1766H225.571V86.8438Z" fill="#1B1464"/>
<path d="M20.7582 94.6466C20.6152 94.5753 20.5616 94.4029 20.6331 94.2662C20.7045 94.1236 20.8773 94.0701 21.0142 94.1414C21.1512 94.2127 21.2108 94.3851 21.1393 94.5218C21.0857 94.6228 20.9904 94.6763 20.8832 94.6763C20.8415 94.6763 20.7998 94.6644 20.7582 94.6466ZM21.5324 93.143C21.3954 93.0717 21.3359 92.8993 21.4133 92.7626C21.4847 92.6259 21.6515 92.5665 21.7885 92.6378C21.9314 92.7091 21.985 92.8815 21.9136 93.0182C21.86 93.1192 21.7647 93.1727 21.6634 93.1727C21.6158 93.1727 21.5741 93.1608 21.5324 93.143ZM22.3066 91.6394C22.1696 91.568 22.1161 91.3957 22.1875 91.259C22.259 91.1164 22.4257 91.0629 22.5687 91.1342C22.7057 91.2055 22.7593 91.3779 22.6878 91.5146C22.6402 91.6097 22.5389 91.6691 22.4377 91.6691C22.396 91.6691 22.3483 91.6572 22.3066 91.6394ZM23.0868 90.1358C22.9439 90.0644 22.8903 89.8921 22.9618 89.7554C23.0332 89.6128 23.2059 89.5593 23.3429 89.6306C23.4799 89.7019 23.5395 89.8743 23.462 90.011C23.4144 90.106 23.3131 90.1655 23.2119 90.1655C23.1702 90.1655 23.1226 90.1536 23.0868 90.1358ZM23.8611 88.6321C23.7241 88.5608 23.6705 88.3885 23.736 88.2518C23.8075 88.1091 23.9802 88.0557 24.1172 88.127C24.2601 88.1983 24.3137 88.3706 24.2422 88.5073C24.1886 88.6024 24.0933 88.6619 23.9921 88.6619C23.9444 88.6619 23.9028 88.65 23.8611 88.6321ZM24.6353 87.1226C24.4983 87.0513 24.4447 86.8849 24.5162 86.7422C24.5877 86.6055 24.7604 86.5521 24.8974 86.6234C25.0343 86.6947 25.0879 86.867 25.0165 87.0037C24.9688 87.0988 24.8676 87.1582 24.7663 87.1582C24.7246 87.1582 24.677 87.1464 24.6353 87.1226ZM25.4155 85.619C25.2726 85.5477 25.219 85.3813 25.2904 85.2386C25.3619 85.1019 25.5346 85.0484 25.6716 85.1198C25.8086 85.1911 25.8681 85.3575 25.7967 85.5001C25.7431 85.5952 25.6418 85.6546 25.5406 85.6546C25.4989 85.6546 25.4572 85.6428 25.4155 85.619ZM26.1897 84.1154C26.0528 84.044 25.9992 83.8776 26.0706 83.735C26.1421 83.5983 26.3089 83.5448 26.4458 83.6161C26.5888 83.6875 26.6424 83.8539 26.5709 83.9965C26.5233 84.0916 26.422 84.151 26.3208 84.151C26.2731 84.151 26.2314 84.1391 26.1897 84.1154ZM26.964 82.6118C26.827 82.5404 26.7734 82.374 26.8449 82.2314C26.9163 82.0947 27.0831 82.0412 27.226 82.1125C27.363 82.1838 27.4166 82.3503 27.3452 82.4929C27.2975 82.588 27.1963 82.6415 27.095 82.6415C27.0533 82.6415 27.0057 82.6415 26.964 82.6118ZM27.7442 81.1081C27.6012 81.0368 27.5476 80.8645 27.6191 80.7278C27.6906 80.5911 27.8633 80.5376 28.0003 80.6089C28.1373 80.6802 28.1968 80.8466 28.1194 80.9893C28.0717 81.0844 27.9705 81.1379 27.8693 81.1379C27.8276 81.1379 27.7859 81.1379 27.7442 81.1081ZM28.5184 79.6045C28.3814 79.5332 28.3278 79.3609 28.3934 79.2242C28.4648 79.0875 28.6375 79.034 28.7745 79.1053C28.9175 79.1707 28.9711 79.343 28.8996 79.4797C28.8519 79.5808 28.7507 79.6342 28.6495 79.6342C28.6018 79.6342 28.5601 79.6283 28.5184 79.6045ZM29.2927 78.1009C29.1557 78.0296 29.1021 77.8572 29.1736 77.7206C29.245 77.5839 29.4177 77.5244 29.5547 77.5957C29.6917 77.6671 29.7453 77.8394 29.6738 77.9761C29.6262 78.0771 29.5249 78.1306 29.4237 78.1306C29.376 78.1306 29.3344 78.1187 29.2927 78.1009ZM30.0729 76.5973C29.9299 76.526 29.8763 76.3536 29.9478 76.2169C30.0193 76.0803 30.192 76.0208 30.329 76.0921C30.4659 76.1635 30.5255 76.3358 30.454 76.4725C30.4004 76.5735 30.2992 76.627 30.1979 76.627C30.1562 76.627 30.1146 76.6151 30.0729 76.5973ZM30.8471 75.0937C30.7101 75.0224 30.6565 74.85 30.728 74.7133C30.7995 74.5707 30.9662 74.5172 31.1092 74.5885C31.2461 74.6598 31.2997 74.8322 31.2283 74.9689C31.1806 75.0699 31.0794 75.1234 30.9781 75.1234C30.9364 75.1234 30.8888 75.1115 30.8471 75.0937ZM31.6213 73.5841C31.4844 73.5188 31.4308 73.3464 31.5022 73.2097C31.5737 73.0671 31.7405 73.0136 31.8834 73.0849C32.0204 73.1562 32.074 73.3286 32.0025 73.4653C31.9549 73.5604 31.8536 73.6198 31.7524 73.6198C31.7107 73.6198 31.663 73.6079 31.6213 73.5841ZM32.4015 72.0805C32.2586 72.0092 32.205 71.8428 32.2765 71.7061C32.3479 71.5635 32.5207 71.51 32.6576 71.5813C32.7946 71.6526 32.8542 71.825 32.7768 71.9617C32.7291 72.0567 32.6279 72.1162 32.5266 72.1162C32.4849 72.1162 32.4432 72.1043 32.4015 72.0805ZM33.1758 70.5769C33.0388 70.5056 32.9852 70.3392 33.0507 70.2025C33.1281 70.0599 33.2949 70.0064 33.4319 70.0777C33.5748 70.149 33.6284 70.3214 33.5569 70.458C33.5033 70.5531 33.4081 70.6126 33.3068 70.6126C33.2592 70.6126 33.2175 70.6007 33.1758 70.5769ZM33.95 69.0733C33.813 69.002 33.7594 68.8356 33.8309 68.6989C33.9024 68.5562 34.0751 68.5028 34.2121 68.5741C34.3491 68.6454 34.4027 68.8177 34.3312 68.9544C34.2835 69.0495 34.1823 69.109 34.081 69.109C34.0394 69.109 33.9917 69.0971 33.95 69.0733ZM34.7302 67.5697C34.5873 67.4984 34.5337 67.326 34.6052 67.1893C34.6766 67.0526 34.8493 66.9991 34.9863 67.0705C35.1233 67.1418 35.1829 67.3141 35.1114 67.4508C35.0578 67.5459 34.9625 67.5994 34.8612 67.5994C34.8136 67.5994 34.7719 67.5935 34.7302 67.5697ZM35.5045 66.0661C35.3675 65.9948 35.3139 65.8224 35.3853 65.6857C35.4568 65.549 35.6236 65.4955 35.7665 65.5668C35.9035 65.6382 35.9571 65.8105 35.8856 65.9472C35.838 66.0423 35.7367 66.0958 35.6355 66.0958C35.5878 66.0958 35.5462 66.0958 35.5045 66.0661ZM36.2787 64.5625C36.1417 64.4911 36.0881 64.3188 36.1596 64.1821C36.2311 64.0454 36.3978 63.9919 36.5408 64.0632C36.6777 64.1346 36.7313 64.301 36.6599 64.4377C36.6122 64.5387 36.511 64.5922 36.4097 64.5922C36.368 64.5922 36.3204 64.5922 36.2787 64.5625ZM37.0589 63.0588C36.916 62.9875 36.8624 62.8152 36.9338 62.6785C37.0053 62.5418 37.178 62.4824 37.315 62.5596C37.4579 62.6309 37.5115 62.7973 37.4401 62.934C37.3865 63.0351 37.2852 63.0886 37.184 63.0886C37.1423 63.0886 37.0946 63.0886 37.0589 63.0588Z" fill="#1B1464"/>
<path d="M72.4963 94.5231C72.4249 94.3864 72.4844 94.214 72.6214 94.1427C72.7584 94.0714 72.9311 94.1249 73.0026 94.2675C73.074 94.4042 73.0204 94.5766 72.8775 94.6479C72.8358 94.6657 72.7941 94.6776 72.7465 94.6776C72.6452 94.6776 72.5499 94.6241 72.4963 94.5231ZM71.7221 93.0195C71.6506 92.8828 71.7042 92.7104 71.8412 92.6391C71.9841 92.5678 72.1509 92.6213 72.2224 92.7639C72.2938 92.9006 72.2402 93.073 72.1033 93.1443C72.0616 93.1621 72.0139 93.174 71.9722 93.174C71.871 93.174 71.7697 93.1205 71.7221 93.0195ZM70.9478 91.5158C70.8764 91.3792 70.93 91.2068 71.067 91.1355C71.2039 91.0642 71.3767 91.1177 71.4481 91.2603C71.5196 91.397 71.466 91.5693 71.3231 91.6347C71.2814 91.6585 71.2397 91.6704 71.198 91.6704C71.0967 91.6704 70.9955 91.6109 70.9478 91.5158ZM70.1677 90.0122C70.0962 89.8755 70.1498 89.7032 70.2927 89.6319C70.4297 89.5606 70.6024 89.614 70.6679 89.7567C70.7454 89.8934 70.6858 90.0657 70.5488 90.1311C70.5071 90.1549 70.4654 90.1668 70.4178 90.1668C70.3165 90.1668 70.2213 90.1073 70.1677 90.0122ZM69.3934 88.5086C69.3219 88.3719 69.3755 88.1996 69.5125 88.1283C69.6555 88.0569 69.8222 88.1104 69.8937 88.2531C69.9652 88.3898 69.9116 88.5562 69.7746 88.6334C69.7329 88.6513 69.6912 88.6631 69.6436 88.6631C69.5423 88.6631 69.4411 88.6037 69.3934 88.5086ZM68.6192 87.005C68.5417 86.8683 68.6013 86.696 68.7383 86.6247C68.8753 86.5533 69.048 86.6068 69.1194 86.7435C69.1909 86.8861 69.1373 87.0526 69.0003 87.1239C68.9586 87.1476 68.911 87.1595 68.8693 87.1595C68.7681 87.1595 68.6668 87.1001 68.6192 87.005ZM67.839 85.5014C67.7675 85.3588 67.8211 85.1924 67.964 85.121C68.101 85.0497 68.2737 85.1032 68.3452 85.2399C68.4167 85.3766 68.3571 85.5489 68.2201 85.6203C68.1784 85.644 68.1368 85.65 68.0951 85.65C67.9879 85.65 67.8926 85.5965 67.839 85.5014ZM67.0647 83.9978C66.9933 83.8552 67.0469 83.6887 67.1838 83.6174C67.3268 83.5461 67.4935 83.5996 67.565 83.7363C67.6365 83.8789 67.5829 84.0453 67.4459 84.1166C67.4042 84.1404 67.3566 84.1523 67.3149 84.1523C67.2136 84.1523 67.1124 84.0929 67.0647 83.9978ZM66.2905 82.4942C66.219 82.3515 66.2726 82.1851 66.4096 82.1138C66.5466 82.0425 66.7193 82.096 66.7908 82.2327C66.8622 82.3753 66.8086 82.5417 66.6657 82.613C66.624 82.6368 66.5823 82.6427 66.5406 82.6427C66.4334 82.6427 66.3381 82.5893 66.2905 82.4942ZM65.5103 80.9906C65.4388 80.8479 65.4924 80.6815 65.6354 80.6102C65.7723 80.5389 65.9391 80.5924 66.0165 80.7291C66.082 80.8658 66.0284 81.0381 65.8915 81.1094C65.8498 81.1332 65.8081 81.1391 65.7604 81.1391C65.6592 81.1391 65.5639 81.0856 65.5103 80.9906ZM64.7361 79.481C64.6646 79.3443 64.7182 79.1779 64.8552 79.1006C64.9921 79.0353 65.1649 79.0888 65.2363 79.2254C65.3078 79.3621 65.2542 79.5345 65.1172 79.6058C65.0755 79.6236 65.0279 79.6355 64.9862 79.6355C64.8849 79.6355 64.7837 79.582 64.7361 79.481ZM63.9559 77.9774C63.8903 77.8407 63.9439 77.6684 64.0809 77.597C64.2179 77.5257 64.3906 77.5851 64.4621 77.7218C64.5336 77.8585 64.48 78.0309 64.337 78.1022C64.2953 78.12 64.2536 78.1319 64.212 78.1319C64.1107 78.1319 64.0095 78.0784 63.9559 77.9774ZM63.1816 76.4738C63.1101 76.3371 63.1638 76.1647 63.3067 76.0934C63.4437 76.0221 63.6104 76.0815 63.6879 76.2182C63.7593 76.3549 63.6998 76.5273 63.5628 76.5986C63.5211 76.6164 63.4794 76.6283 63.4377 76.6283C63.3305 76.6283 63.2352 76.5748 63.1816 76.4738ZM62.4074 74.9702C62.3359 74.8335 62.3895 74.6611 62.5265 74.5898C62.6635 74.5185 62.8362 74.572 62.9077 74.7146C62.9791 74.8513 62.9255 75.0237 62.7885 75.095C62.7468 75.1128 62.6992 75.1247 62.6575 75.1247C62.5563 75.1247 62.455 75.0653 62.4074 74.9702ZM61.6331 73.4666C61.5617 73.3299 61.6153 73.1575 61.7522 73.0862C61.8892 73.0149 62.0619 73.0684 62.1334 73.211C62.2049 73.3477 62.1513 73.5141 62.0083 73.5914C61.9667 73.6092 61.925 73.6211 61.8833 73.6211C61.782 73.6211 61.6808 73.5676 61.6331 73.4666ZM60.8529 71.9629C60.7815 71.8263 60.8351 71.6539 60.978 71.5826C61.115 71.5113 61.2877 71.5648 61.3532 71.7014C61.4306 71.8441 61.3711 72.0105 61.2341 72.0818C61.1924 72.1056 61.1507 72.1175 61.1031 72.1175C61.0018 72.1175 60.9065 72.058 60.8529 71.9629ZM60.0787 70.4593C60.0072 70.3167 60.0608 70.1503 60.1978 70.079C60.3407 70.0077 60.5075 70.0611 60.579 70.1978C60.6504 70.3405 60.5968 70.5069 60.4599 70.5782C60.4182 70.602 60.3705 70.6139 60.3288 70.6139C60.2276 70.6139 60.1263 70.5544 60.0787 70.4593ZM59.3045 68.9557C59.227 68.819 59.2866 68.6467 59.4236 68.5754C59.5605 68.504 59.7333 68.5575 59.8047 68.7002C59.8762 68.8369 59.8226 69.0033 59.6797 69.0746C59.638 69.0984 59.5963 69.1102 59.5546 69.1102C59.4474 69.1102 59.3521 69.0508 59.3045 68.9557ZM58.5243 67.4521C58.4528 67.3154 58.5064 67.1431 58.6493 67.0717C58.7863 67.0004 58.959 67.0539 59.0245 67.1906C59.102 67.3332 59.0424 67.4997 58.9054 67.571C58.8637 67.5947 58.822 67.6007 58.7744 67.6007C58.6732 67.6007 58.5779 67.5472 58.5243 67.4521ZM57.75 65.9485C57.6786 65.8059 57.7321 65.6394 57.8691 65.5681C58.0121 65.4968 58.1788 65.5503 58.2503 65.687C58.3218 65.8237 58.2682 65.996 58.1312 66.0674C58.0895 66.0911 58.0418 66.0971 58.0002 66.0971C57.8989 66.0971 57.7977 66.0436 57.75 65.9485ZM56.9698 64.4389C56.9043 64.3022 56.9579 64.1358 57.0949 64.0645C57.2319 63.9932 57.4046 64.0467 57.4761 64.1834C57.5475 64.3201 57.4939 64.4924 57.351 64.5637C57.3153 64.5875 57.2676 64.5935 57.2259 64.5935C57.1247 64.5935 57.0234 64.54 56.9698 64.4389ZM56.1956 62.9353C56.1241 62.7986 56.1777 62.6263 56.3207 62.5609C56.4576 62.4896 56.6244 62.5431 56.7018 62.6798C56.7673 62.8165 56.7137 62.9888 56.5767 63.0601C56.5351 63.0839 56.4934 63.0898 56.4517 63.0898C56.3445 63.0898 56.2492 63.0364 56.1956 62.9353Z" fill="#1B1464"/>
<path d="M109.364 51.6191H59.8242V51.9044H109.364V51.6191Z" fill="#1B1464"/>
</g>
<defs>
<clipPath id="clip0_5367_426">
<rect width="224.971" height="126.708" fill="white" transform="translate(0.765625 0.900391)"/>
</clipPath>
</defs>
</svg>
