<svg width="176" height="88" viewBox="0 0 176 88" fill="none" xmlns="http://www.w3.org/2000/svg">
<g id="google_cloud-ar21 1">
<path id="Vector" d="M95.1443 16.9722L96.8222 17.0016L101.381 12.4432L101.601 10.5116C97.9779 7.2893 93.2112 5.32837 87.9943 5.32837C78.549 5.32837 70.5762 11.7553 68.2148 20.4614C68.7135 20.1138 69.7768 20.3734 69.7768 20.3734L78.8878 18.8745C78.8878 18.8745 79.3571 18.0972 79.5918 18.1456C81.5475 16.0061 84.2458 14.6935 87.1362 14.4754C90.0266 14.2574 92.8898 15.1504 95.1443 16.9722Z" fill="#EA4335"/>
<path id="Vector_2" d="M107.8 20.4777C106.753 16.6243 104.604 13.1603 101.617 10.5103L95.1607 16.9665C96.4857 18.0314 97.555 19.3799 98.2898 20.9128C99.0246 22.4457 99.4063 24.1238 99.4067 25.8237V26.9633C102.548 26.9633 105.097 29.5197 105.097 32.654C105.097 35.7883 102.541 38.3447 99.4067 38.3447H88.0224L86.8828 39.4887V46.3204L88.0224 47.4541H99.4067C103.327 47.4437 107.084 45.8808 109.856 43.1075C112.627 40.3342 114.187 36.5761 114.195 32.6555C114.189 27.616 111.649 23.1515 107.786 20.4777H107.8Z" fill="#4285F4"/>
<path id="Vector_3" d="M76.6102 47.4643H87.9916V38.3534H76.6102C75.802 38.3538 75.0032 38.1802 74.268 37.8445L72.6253 38.3475L68.0669 42.9059L67.668 44.446C70.2327 46.4152 73.3782 47.4778 76.6117 47.4673L76.6102 47.4643Z" fill="#34A853"/>
<path id="Vector_4" d="M76.6092 17.8567C72.6847 17.8629 68.9227 19.4246 66.1477 22.1997C63.3726 24.9747 61.8109 28.7367 61.8047 32.6612C61.8047 34.9465 62.3344 37.2006 63.3523 39.2466C64.3703 41.2926 65.8486 43.0748 67.6714 44.4532L74.2714 37.8532C73.2716 37.4034 72.4231 36.6744 71.8278 35.7539C71.2325 34.8333 70.9157 33.7604 70.9156 32.6642C70.9156 29.5226 73.472 26.9735 76.6063 26.9735C77.7021 26.9754 78.7743 27.2929 79.6945 27.888C80.6147 28.4831 81.3441 29.3306 81.7954 30.3292L88.3954 23.7292C85.6879 20.1652 81.414 17.8626 76.6034 17.8626L76.6092 17.8567Z" fill="#FBBC05"/>
<path id="Vector_5" d="M17.6011 76.1743C14.4918 76.1743 11.8224 75.0743 9.57255 72.8743C7.32269 70.6743 6.19922 68.0285 6.19922 64.9426C6.19922 61.8567 7.32122 59.2109 9.57255 57.0109C11.8239 54.8109 14.4962 53.7094 17.6011 53.7094C19.0254 53.6887 20.4397 53.9516 21.7614 54.4829C23.0831 55.0143 24.2859 55.8033 25.2996 56.8041L23.1334 58.9703C21.651 57.5369 19.6615 56.7486 17.5996 56.7777C15.3556 56.7777 13.449 57.5697 11.8855 59.1639C11.1249 59.9192 10.5252 60.8208 10.1226 61.8142C9.72008 62.8076 9.52297 63.8723 9.54322 64.9441C9.54322 67.2115 10.3206 69.1343 11.8855 70.7227C12.6209 71.4943 13.5085 72.1048 14.4921 72.5156C15.4757 72.9263 16.5339 73.1284 17.5996 73.109C19.8847 73.109 21.7723 72.3757 23.2756 70.8591C24.1556 69.9791 24.7423 68.6591 24.9476 66.9945H17.6055V63.9262H27.9367C28.0467 64.4718 28.0834 65.0995 28.0834 65.8329C28.0834 68.8483 27.199 71.239 25.4243 73.0122C23.412 75.1169 20.8043 76.1655 17.585 76.1655L17.6011 76.1743ZM41.6104 74.121C40.2024 75.4997 38.4864 76.1743 36.4595 76.1743C34.4326 76.1743 32.7136 75.485 31.3086 74.121C29.9035 72.757 29.1995 71.0219 29.1995 68.9583C29.1995 66.8947 29.9035 65.1743 31.3086 63.7957C32.7136 62.417 34.4326 61.7423 36.4595 61.7423C38.4864 61.7423 40.2054 62.4317 41.6104 63.7957C43.0155 65.1597 43.7195 66.8991 43.7195 68.9583C43.7195 71.0175 43.0155 72.7423 41.6104 74.121ZM33.5819 72.097C33.9478 72.4946 34.3932 72.811 34.8891 73.0255C35.3851 73.24 35.9206 73.3479 36.461 73.3422C37.5756 73.3422 38.5348 72.9286 39.34 72.0955C40.1452 71.2625 40.5456 70.2182 40.5456 68.9569C40.5456 67.6809 40.1496 66.6278 39.3532 65.8035C38.5568 64.9793 37.5962 64.5715 36.461 64.5715C35.9195 64.5632 35.3823 64.6686 34.8842 64.8808C34.386 65.093 33.9378 65.4073 33.5687 65.8035C32.7723 66.6249 32.3763 67.675 32.3763 68.9569C32.3763 70.2153 32.7767 71.2639 33.5819 72.0955V72.097ZM57.449 74.121C56.041 75.4997 54.325 76.1743 52.298 76.1743C50.2711 76.1743 48.5522 75.485 47.1471 74.121C45.742 72.757 45.038 71.0219 45.038 68.9583C45.038 66.8947 45.742 65.1743 47.1471 63.7957C48.5522 62.417 50.2711 61.7423 52.298 61.7423C54.325 61.7423 56.0439 62.4317 57.449 63.7957C58.854 65.1597 59.558 66.8991 59.558 68.9583C59.558 71.0175 58.854 72.7423 57.449 74.121ZM49.4204 72.097C49.7863 72.4946 50.2317 72.811 50.7277 73.0255C51.2236 73.24 51.7591 73.3479 52.2995 73.3422C53.4142 73.3422 54.3733 72.9286 55.1785 72.0955C55.9837 71.2625 56.3842 70.2182 56.3842 68.9569C56.3842 67.6809 55.9882 66.6278 55.1918 65.8035C54.3954 64.9793 53.4347 64.5715 52.2995 64.5715C51.758 64.5632 51.2209 64.6686 50.7227 64.8808C50.2245 65.093 49.7764 65.4073 49.4072 65.8035C48.6108 66.6249 48.2148 67.675 48.2148 68.9569C48.2148 70.2153 48.6152 71.2639 49.4204 72.0955V72.097ZM67.8608 82.6863C66.2548 82.6863 64.9026 82.2551 63.807 81.3957C62.7114 80.5362 61.9267 79.5418 61.4515 78.4066L64.2206 77.2582C64.5109 77.9534 64.9539 78.5562 65.589 79.0681C66.224 79.5799 66.9676 79.8337 67.8652 79.8337C69.0708 79.8337 70.0183 79.467 70.7003 78.7381C71.3823 78.0091 71.727 76.9546 71.727 75.5847V74.5581H71.617C70.7369 75.6537 69.4507 76.2037 67.8095 76.2037C65.9644 76.2037 64.3481 75.4997 62.9592 74.0946C62.2845 73.4304 61.752 72.636 61.394 71.7596C61.0359 70.8831 60.8599 69.943 60.8766 68.9965C60.8596 68.0439 61.0354 67.0978 61.3932 66.2149C61.7511 65.332 62.2838 64.5306 62.9592 63.8587C64.3452 62.4463 65.9659 61.7365 67.8095 61.7365C68.6308 61.7365 69.3759 61.8905 70.0418 62.2029C70.7076 62.5153 71.2341 62.8981 71.617 63.3513H71.727V62.1867H74.7424V75.177C74.7424 77.6997 74.1 79.5829 72.8094 80.8383C71.5187 82.085 69.8731 82.7157 67.8623 82.7157L67.8608 82.6863ZM68.0808 73.3407C68.6037 73.35 69.1221 73.2431 69.5986 73.0277C70.0752 72.8124 70.498 72.494 70.8367 72.0955C71.5759 71.2639 71.9455 70.2285 71.9455 68.9833C71.9455 67.7249 71.5759 66.6718 70.8367 65.8299C70.5 65.4282 70.0779 65.1068 69.6011 64.8891C69.1243 64.6714 68.6049 64.5629 68.0808 64.5715C66.9662 64.5715 66.0158 64.9939 65.2326 65.8299C64.4494 66.6659 64.0534 67.719 64.0534 68.9833C64.0534 70.2241 64.445 71.2639 65.2326 72.0955C66.0202 72.9271 66.9676 73.3407 68.0808 73.3407ZM80.1104 54.4721V75.7387H76.9322V54.4721H80.1104ZM88.8224 76.1729C86.775 76.1729 85.0678 75.4777 83.6979 74.0902C82.328 72.7027 81.6416 70.9867 81.6416 68.9393C81.6416 66.8214 82.3016 65.0819 83.6275 63.7326C84.2495 63.0781 85.0005 62.5597 85.8331 62.2103C86.6657 61.8609 87.5617 61.6881 88.4646 61.7027C89.3402 61.7027 90.1556 61.8611 90.9036 62.1823C91.5991 62.4673 92.2319 62.8859 92.7663 63.4143C93.212 63.858 93.6074 64.3493 93.9455 64.8795C94.2249 65.3326 94.4634 65.8097 94.6583 66.3051L94.9883 67.1265L85.3171 71.1334C86.0504 72.5942 87.2238 73.3261 88.8254 73.3261C90.2861 73.3261 91.4756 72.6617 92.3864 71.327L94.8504 72.9726C94.3004 73.7939 93.526 74.5346 92.5214 75.1917C91.5167 75.8487 90.2803 76.1743 88.8195 76.1743L88.8224 76.1729ZM84.795 68.7222L91.2483 66.0382C91.0635 65.5806 90.7291 65.211 90.2216 64.9294C89.7113 64.6435 89.1345 64.4978 88.5496 64.507C87.6168 64.507 86.7456 64.8883 85.9345 65.6554C85.1235 66.4225 84.7319 67.4477 84.7686 68.7237L84.795 68.7222ZM111.679 76.1729C108.79 76.1729 106.37 75.1961 104.416 73.2395C102.462 71.283 101.483 68.8469 101.483 65.9238C101.483 63.0007 102.459 60.5617 104.416 58.6081C106.373 56.6545 108.791 55.6747 111.679 55.6747C114.637 55.6747 117.041 56.7454 118.885 58.8794L117.132 60.5807C115.812 58.9175 113.979 58.0874 111.676 58.0874C109.535 58.0874 107.737 58.809 106.249 60.2537C104.762 61.6983 104.043 63.5859 104.043 65.9238C104.043 68.2617 104.777 70.1537 106.249 71.5998C107.722 73.0459 109.524 73.7661 111.676 73.7661C114.031 73.7661 116.042 72.8157 117.689 70.9178L119.442 72.6705C118.524 73.7664 117.371 74.642 116.069 75.2327C114.688 75.868 113.183 76.1896 111.663 76.1743L111.679 76.1729ZM124.228 75.7387H121.705V56.1191H124.228V75.7387ZM128.339 63.9174C129.637 62.5578 131.272 61.8743 133.299 61.8743C135.326 61.8743 136.961 62.5563 138.259 63.9174C139.557 65.2785 140.206 66.9974 140.206 69.0287C140.206 71.0601 139.56 72.779 138.259 74.1401C136.958 75.5011 135.326 76.1831 133.299 76.1831C131.272 76.1831 129.637 75.5011 128.339 74.1401C127.041 72.779 126.393 71.0601 126.393 69.0287C126.393 66.9974 127.038 65.2785 128.339 63.9174ZM130.216 72.5458C131.096 73.4302 132.114 73.8746 133.296 73.8746C134.478 73.8746 135.496 73.4302 136.376 72.5458C137.256 71.6614 137.679 70.4851 137.679 69.0258C137.679 67.5665 137.243 66.3887 136.376 65.5058C135.509 64.6229 134.478 64.177 133.296 64.177C132.114 64.177 131.096 64.6214 130.216 65.5058C129.336 66.3902 128.914 67.5665 128.914 69.0258C128.914 70.4851 129.349 71.6629 130.216 72.5458ZM154.152 75.7387H151.739V73.8761H151.63C151.248 74.5141 150.661 75.0597 149.877 75.4894C149.092 75.9191 148.263 76.1641 147.383 76.1641C145.701 76.1641 144.43 75.6537 143.563 74.6285C142.696 73.6033 142.26 72.2334 142.26 70.5174V62.2953H144.783V70.1038C144.783 72.6089 145.887 73.8585 148.098 73.8585C148.592 73.8689 149.082 73.76 149.526 73.5409C149.97 73.3219 150.354 72.9992 150.647 72.6001C151.299 71.7733 151.647 70.7475 151.632 69.6946V62.2953H154.155V75.7255L154.152 75.7387ZM162.7 76.1743C160.965 76.1743 159.464 75.4879 158.206 74.1181C156.948 72.7482 156.317 71.0498 156.317 69.0199C156.317 66.9901 156.948 65.2917 158.206 63.9218C159.464 62.5519 160.966 61.8655 162.7 61.8655C163.721 61.8655 164.642 62.0855 165.457 62.5211C166.273 62.9567 166.88 63.5067 167.28 64.1667H167.39L167.28 62.3041V56.1147H169.803V75.7387H167.39V73.8761H167.28C166.88 74.5317 166.273 75.0817 165.457 75.5217C164.643 75.9529 163.722 76.1743 162.7 76.1743ZM163.111 73.8717C163.68 73.8794 164.244 73.7661 164.766 73.5393C165.288 73.3125 165.756 72.9773 166.139 72.5561C166.971 71.6805 167.386 70.4998 167.386 69.0361C167.386 67.5723 166.972 66.377 166.139 65.5161C165.756 65.0948 165.288 64.7596 164.766 64.5328C164.244 64.306 163.68 64.1927 163.111 64.2005C161.94 64.2005 160.935 64.6449 160.095 65.5293C159.255 66.4137 158.837 67.5899 158.837 69.0493C158.837 70.5086 159.255 71.6863 160.095 72.5693C160.475 72.992 160.94 73.3291 161.46 73.5582C161.98 73.7874 162.542 73.9032 163.111 73.8981V73.8717Z" fill="#5F6368"/>
</g>
</svg>
