<svg width="55" height="44" viewBox="0 0 55 44" fill="none" xmlns="http://www.w3.org/2000/svg">
<g id="google_cloud-ar21 1" clip-path="url(#clip0_4343_639)">
<path id="Vector" d="M34.9944 12.2077L36.726 12.2376L41.4303 7.58284L41.6573 5.6104C37.9187 2.32002 32.9995 0.317627 27.6156 0.317627C17.868 0.317627 9.64003 6.88043 7.20312 15.7706C7.71775 15.4157 8.81512 15.6808 8.81512 15.6808L18.2176 14.1501C18.2176 14.1501 18.702 13.3564 18.9442 13.4058C20.9624 11.2211 23.7471 9.88069 26.73 9.65804C29.7129 9.43539 32.6678 10.3473 34.9944 12.2077Z" fill="#EA4335"/>
<path id="Vector_2" d="M48.0597 15.7871C46.9788 11.8522 44.7611 8.31493 41.6783 5.60889L35.0155 12.2016C36.3829 13.2891 37.4864 14.6661 38.2447 16.2314C39.003 17.7966 39.3969 19.5103 39.3973 21.2461V22.4098C42.6395 22.4098 45.2701 25.0202 45.2701 28.2208C45.2701 31.4213 42.6319 34.0317 39.3973 34.0317H27.6487L26.4727 35.1999V42.1761L27.6487 43.3338H39.3973C43.4435 43.3231 47.3207 41.7272 50.1808 38.8953C53.0409 36.0633 54.651 32.2258 54.659 28.2223C54.653 23.0762 52.0314 18.5173 48.0446 15.7871H48.0597Z" fill="#4285F4"/>
<path id="Vector_3" d="M15.8691 43.3442H27.6147V34.0407H15.8691C15.035 34.0411 14.2106 33.8638 13.4519 33.521L11.7566 34.0347L7.05232 38.6895L6.64062 40.262C9.2874 42.2729 12.5336 43.3579 15.8706 43.3472L15.8691 43.3442Z" fill="#34A853"/>
<path id="Vector_4" d="M15.8721 13.1106C11.822 13.1169 7.93961 14.7117 5.07575 17.5454C2.21189 20.3791 0.600155 24.2206 0.59375 28.2281C0.593727 30.5617 1.14043 32.8635 2.19093 34.9527C3.24142 37.042 4.76711 38.8619 6.64817 40.2694L13.4594 33.5299C12.4277 33.0706 11.552 32.3261 10.9376 31.3861C10.3233 30.4461 9.99638 29.3505 9.99627 28.2311C9.99627 25.0231 12.6345 22.4201 15.8691 22.4201C17 22.4221 18.1064 22.7463 19.0561 23.354C20.0058 23.9616 20.7585 24.8271 21.2242 25.8468L28.0354 19.1073C25.2413 15.4679 20.8307 13.1166 15.866 13.1166L15.8721 13.1106Z" fill="#FBBC05"/>
</g>
<defs>
<clipPath id="clip0_4343_639">
<rect width="55" height="44" fill="white"/>
</clipPath>
</defs>
</svg>
