<svg width="64" height="64" viewBox="0 0 64 64" fill="none" xmlns="http://www.w3.org/2000/svg">
<g id="gen feedback loops-3">
<path id="Vector" d="M31.8861 63.1877C48.944 63.1877 62.7722 49.2665 62.7722 32.0939C62.7722 14.9212 48.944 1 31.8861 1C14.8282 1 1 14.9212 1 32.0939C1 49.2665 14.8282 63.1877 31.8861 63.1877Z" stroke="#130C49" stroke-miterlimit="10"/>
<g id="Group">
<g id="Group_2">
<g id="Group_3">
<path id="Vector_2" d="M35.6206 35.6117C44.2518 25.2563 48.725 14.7297 45.6118 12.0999C42.4987 9.47005 32.978 15.7329 24.3468 26.0883C15.7157 36.4437 11.2425 46.9703 14.3556 49.6001C17.4688 52.2299 26.9895 45.9671 35.6206 35.6117Z" stroke="#130C49" stroke-miterlimit="10"/>
<path id="Vector_3" d="M39.4019 38.06C48.033 27.7046 52.5062 17.178 49.3931 14.5481C46.2799 11.9183 36.7592 18.1811 28.1281 28.5365C19.4969 38.8919 15.0237 49.4185 18.1369 52.0484C21.2501 54.6782 30.7707 48.4154 39.4019 38.06Z" stroke="#130C49" stroke-miterlimit="10"/>
</g>
<g id="Group_4">
<path id="Vector_4" d="M49.4165 49.6301C52.5297 47.0003 48.0565 36.4736 39.4253 26.1182C30.7942 15.7628 21.2735 9.50004 18.1603 12.1299C15.0472 14.7597 19.5204 25.2863 28.1515 35.6417C36.7827 45.9971 46.3033 52.2599 49.4165 49.6301Z" stroke="#130C49" stroke-miterlimit="10"/>
<path id="Vector_5" d="M45.6509 52.0832C48.7641 49.4534 44.2908 38.9268 35.6597 28.5714C27.0285 18.216 17.5079 11.9532 14.3947 14.583C11.2815 17.2128 15.7547 27.7394 24.3859 38.0948C33.0171 48.4502 42.5377 54.7131 45.6509 52.0832Z" stroke="#130C49" stroke-miterlimit="10"/>
</g>
</g>
<path id="Vector_6" d="M31.8862 36.4582C34.2806 36.4582 36.2217 34.5041 36.2217 32.0936C36.2217 29.6831 34.2806 27.729 31.8862 27.729C29.4918 27.729 27.5508 29.6831 27.5508 32.0936C27.5508 34.5041 29.4918 36.4582 31.8862 36.4582Z" fill="#61BB73"/>
</g>
</g>
</svg>
