<svg width="64" height="64" viewBox="0 0 64 64" fill="none" xmlns="http://www.w3.org/2000/svg">
<g id="gen feedback loops-2">
<path id="Vector" d="M31.8861 63.1877C48.944 63.1877 62.7722 49.2665 62.7722 32.0939C62.7722 14.9212 48.944 1 31.8861 1C14.8282 1 1 14.9212 1 32.0939C1 49.2665 14.8282 63.1877 31.8861 63.1877Z" stroke="#130C49" stroke-miterlimit="10"/>
<path id="Vector_2" d="M48.5819 31.9409L31.5117 14.7559L14.4416 31.9409L31.5117 49.1258L48.5819 31.9409Z" stroke="#130C49" stroke-miterlimit="10"/>
<path id="Vector_3" d="M15.2105 35.5271C17.6049 35.5271 19.5459 33.573 19.5459 31.1625C19.5459 28.752 17.6049 26.7979 15.2105 26.7979C12.8161 26.7979 10.875 28.752 10.875 31.1625C10.875 33.573 12.8161 35.5271 15.2105 35.5271Z" fill="#61BB73"/>
<path id="Vector_4" d="M48.5698 36.3069C50.9642 36.3069 52.9053 34.3528 52.9053 31.9423C52.9053 29.5317 50.9642 27.5776 48.5698 27.5776C46.1754 27.5776 44.2344 29.5317 44.2344 31.9423C44.2344 34.3528 46.1754 36.3069 48.5698 36.3069Z" fill="#61BB73"/>
<path id="Vector_5" d="M31.5191 19.9641C33.9135 19.9641 35.8545 18.01 35.8545 15.5995C35.8545 13.189 33.9135 11.2349 31.5191 11.2349C29.1246 11.2349 27.1836 13.189 27.1836 15.5995C27.1836 18.01 29.1246 19.9641 31.5191 19.9641Z" fill="#61BB73"/>
<path id="Vector_6" d="M31.5191 53.2454C33.9135 53.2454 35.8545 51.2913 35.8545 48.8807C35.8545 46.4702 33.9135 44.5161 31.5191 44.5161C29.1246 44.5161 27.1836 46.4702 27.1836 48.8807C27.1836 51.2913 29.1246 53.2454 31.5191 53.2454Z" fill="#61BB73"/>
</g>
</svg>
