<svg width="184" height="109" viewBox="0 0 184 109" fill="none" xmlns="http://www.w3.org/2000/svg">
<g id="Layer_1" clip-path="url(#clip0_44_7598)">
<path id="Vector" d="M182.284 86.8914L164.876 75.4175C164.737 75.3248 164.563 75.3248 164.436 75.3943C164.297 75.4754 164.204 75.6145 164.204 75.7768V98.7246C164.204 98.8868 164.297 99.0259 164.436 99.107C164.494 99.1418 164.575 99.1534 164.645 99.1534C164.726 99.1534 164.807 99.1302 164.888 99.0839L182.296 87.6099C182.412 87.5288 182.493 87.3897 182.493 87.2507C182.493 87.1116 182.423 86.9725 182.296 86.8914H182.284Z" fill="#A590DD"/>
<path id="Vector_2" d="M164.645 99.7331C164.483 99.7331 164.32 99.6983 164.17 99.6172C163.834 99.4317 163.625 99.084 163.625 98.7248V75.7769C163.625 75.4061 163.822 75.07 164.147 74.8845C164.483 74.6991 164.877 74.7223 165.19 74.9309L182.598 86.4048C182.876 86.5902 183.05 86.9147 183.05 87.2509C183.05 87.587 182.876 87.9115 182.586 88.0969L165.178 99.5708C165.016 99.6751 164.83 99.7331 164.622 99.7331H164.645ZM164.784 76.0551V98.4582L181.775 87.2624L164.784 76.0667V76.0551Z" fill="#131144"/>
<path id="Vector_3" d="M31.5242 77.0634V97.4267C31.5242 98.6205 30.5507 99.594 29.3685 99.594H2.28315C1.10099 99.594 0.127441 98.6205 0.127441 97.4267V77.0634C0.127441 75.8813 1.10099 74.9077 2.28315 74.9077H29.3685C30.5507 74.9077 31.5242 75.8813 31.5242 77.0634ZM30.8057 97.0674V77.2373C30.8057 76.3564 30.0871 75.6379 29.2063 75.6379H2.45699C1.57617 75.6379 0.857599 76.3564 0.857599 77.2373V91.1914L8.76185 83.2871L19.042 93.4862L23.1912 89.3023L30.7941 97.0674H30.8057Z" fill="#131144"/>
<path id="Vector_4" d="M30.8056 77.2371V97.0672L23.2027 89.3021L19.0535 93.486L8.77339 83.287L0.869141 91.1912V77.2371C0.869141 76.3563 1.58771 75.6377 2.46853 75.6377H29.2062C30.087 75.6377 30.8056 76.3563 30.8056 77.2371Z" fill="#55CBDE"/>
<path id="Vector_5" d="M29.3686 99.721H2.28319C1.0199 99.721 0 98.6896 0 97.4263V77.063C0 75.7997 1.0199 74.7798 2.28319 74.7798H29.3686C30.6319 74.7798 31.6518 75.7997 31.6518 77.063V97.4263C31.6518 98.6896 30.6319 99.721 29.3686 99.721ZM2.28319 75.0348C1.15898 75.0348 0.254976 75.9504 0.254976 77.063V97.4263C0.254976 98.5505 1.17057 99.4661 2.28319 99.4661H29.3686C30.4928 99.4661 31.3968 98.5505 31.3968 97.4263V77.063C31.3968 75.9504 30.4812 75.0348 29.3686 75.0348H2.28319Z" fill="#131144"/>
<path id="Vector_6" d="M18.8564 79.8101C17.6047 79.8101 16.5732 80.83 16.5732 82.0932C16.5732 83.3565 17.5931 84.3764 18.8564 84.3764C20.1197 84.3764 21.1396 83.3449 21.1396 82.0932C21.1396 80.8415 20.1197 79.8101 18.8564 79.8101Z" fill="#131144"/>
<path id="Vector_7" d="M41.2017 15.1621H16.6313V46.6168H41.2017V15.1621Z" fill="white"/>
<path id="Vector_8" d="M41.19 47.1962H16.6312C16.3067 47.1962 16.0518 46.9412 16.0518 46.6167V15.162C16.0518 14.8375 16.3067 14.5825 16.6312 14.5825H41.2016C41.5261 14.5825 41.7811 14.8375 41.7811 15.162V46.6167C41.7811 46.9412 41.5261 47.1962 41.2016 47.1962H41.19ZM17.2107 46.0372H40.6221V15.7415H17.2107V46.0372Z" fill="#131144"/>
<path id="Vector_9" d="M37.3658 25.8593H20.4562C20.1781 25.8593 19.9463 25.6275 19.9463 25.3493C19.9463 25.0712 20.1781 24.8394 20.4562 24.8394H37.3658C37.6439 24.8394 37.8757 25.0712 37.8757 25.3493C37.8757 25.6275 37.6439 25.8593 37.3658 25.8593Z" fill="#131144"/>
<path id="Vector_10" d="M37.3658 28.6063H20.4562C20.1781 28.6063 19.9463 28.3745 19.9463 28.0964C19.9463 27.8182 20.1781 27.5864 20.4562 27.5864H37.3658C37.6439 27.5864 37.8757 27.8182 37.8757 28.0964C37.8757 28.3745 37.6439 28.6063 37.3658 28.6063Z" fill="#131144"/>
<path id="Vector_11" d="M37.3658 31.3529H20.4562C20.1781 31.3529 19.9463 31.1211 19.9463 30.843C19.9463 30.5648 20.1781 30.333 20.4562 30.333H37.3658C37.6439 30.333 37.8757 30.5648 37.8757 30.843C37.8757 31.1211 37.6439 31.3529 37.3658 31.3529Z" fill="#131144"/>
<path id="Vector_12" d="M37.3658 34.0883H20.4562C20.1781 34.0883 19.9463 33.8565 19.9463 33.5783C19.9463 33.3002 20.1781 33.0684 20.4562 33.0684H37.3658C37.6439 33.0684 37.8757 33.3002 37.8757 33.5783C37.8757 33.8565 37.6439 34.0883 37.3658 34.0883Z" fill="#131144"/>
<path id="Vector_13" d="M37.3658 39.014H20.4562C20.1781 39.014 19.9463 38.7822 19.9463 38.5041C19.9463 38.2259 20.1781 37.9941 20.4562 37.9941H37.3658C37.6439 37.9941 37.8757 38.2259 37.8757 38.5041C37.8757 38.7822 37.6439 39.014 37.3658 39.014Z" fill="#131144"/>
<path id="Vector_14" d="M24.9531 41.7489H20.4562C20.1781 41.7489 19.9463 41.5171 19.9463 41.239C19.9463 40.9608 20.1781 40.729 20.4562 40.729H24.9531C25.2312 40.729 25.463 40.9608 25.463 41.239C25.463 41.5171 25.2312 41.7489 24.9531 41.7489Z" fill="#131144"/>
<path id="Vector_15" d="M23.3187 19.3809H20.4561V22.6955H23.3187V19.3809Z" fill="#61BD73"/>
<path id="Vector_16" d="M169.211 35.0963C169.211 37.2172 167.484 38.9557 165.386 38.9441C163.312 38.9441 161.597 37.2288 161.585 35.1427C161.573 32.9986 163.242 31.2949 165.375 31.2833C167.507 31.2717 169.211 32.9638 169.223 35.0963H169.211Z" fill="#61BD73"/>
<path id="Vector_17" d="M165.166 44.3802C162.385 44.357 159.557 43.3487 156.52 41.3205C154.399 39.9065 152.429 38.1333 150.482 35.9196C150.297 35.711 149.752 35.0735 150.413 34.3318C153.426 30.9476 156.312 28.676 159.487 27.1925C164.123 25.0136 168.69 25.3961 173.488 28.3515C175.829 29.8002 178.054 31.7241 180.291 34.2275C180.511 34.4709 181.044 35.0735 180.407 35.8037C176.826 39.837 173.546 42.236 169.768 43.6036C168.354 44.1252 166.893 44.3686 165.166 44.3686V44.3802ZM151.293 35.0967C151.293 35.0967 151.328 35.1431 151.351 35.1663C153.229 37.2988 155.13 39.0025 157.158 40.3585C160.009 42.2592 162.628 43.198 165.166 43.2212C166.743 43.2212 168.075 42.9894 169.362 42.5258C172.932 41.2393 176.061 38.9445 179.491 35.0967C179.468 35.0735 179.445 35.0504 179.433 35.0272C177.255 32.5817 175.11 30.7274 172.862 29.3482C168.435 26.613 164.216 26.2537 159.974 28.2472C156.949 29.6727 154.191 31.84 151.293 35.0967Z" fill="#131144"/>
<path id="Vector_18" d="M165.398 39.5238H165.386C162.987 39.5238 161.029 37.5535 161.005 35.1429C160.994 32.6626 162.906 30.7156 165.363 30.6924H165.398C166.569 30.6924 167.67 31.1444 168.492 31.9557C169.327 32.7785 169.79 33.8912 169.79 35.0849C169.79 36.2671 169.339 37.3797 168.492 38.2258C167.658 39.0602 166.557 39.5122 165.398 39.5122V39.5238ZM165.386 38.3648C166.244 38.3648 167.044 38.0287 167.658 37.4145C168.272 36.8002 168.62 35.9657 168.62 35.0965C168.62 34.2157 168.272 33.4044 167.658 32.7901C167.055 32.1875 166.244 31.863 165.375 31.863H165.352C163.544 31.8745 162.13 33.3117 162.141 35.1429C162.141 36.9161 163.602 38.3648 165.363 38.3648H165.386Z" fill="#131144"/>
<path id="Vector_19" d="M157.019 24.9436C156.868 24.9436 156.717 24.8857 156.613 24.7698L153.426 21.571C153.206 21.3392 153.206 20.9799 153.426 20.7481C153.658 20.5279 154.017 20.5163 154.249 20.7481L157.436 23.9469C157.656 24.1787 157.656 24.538 157.436 24.7698C157.32 24.8857 157.181 24.9436 157.03 24.9436H157.019Z" fill="#131144"/>
<path id="Vector_20" d="M173.847 24.967C173.696 24.967 173.557 24.9091 173.441 24.7932C173.21 24.5614 173.21 24.2021 173.441 23.9703L176.629 20.7715C176.86 20.5397 177.22 20.5397 177.452 20.7715C177.683 21.0033 177.683 21.3626 177.452 21.5944L174.264 24.7932C174.148 24.9091 173.998 24.967 173.859 24.967H173.847Z" fill="#131144"/>
<path id="Vector_21" d="M165.433 23.0779C165.108 23.0779 164.854 22.823 164.854 22.4984V17.9784C164.854 17.6539 165.12 17.3989 165.445 17.3989C165.769 17.3989 166.024 17.6539 166.024 17.9784V22.4984C166.024 22.823 165.758 23.0779 165.433 23.0779Z" fill="#131144"/>
<path id="Vector_22" d="M82.8904 15.2086C82.4616 15.2086 82.1255 14.8609 82.1255 14.4437V7.07254C82.1255 6.64372 82.4732 6.30762 82.8904 6.30762C83.3076 6.30762 83.6553 6.65531 83.6553 7.07254V14.4437C83.6553 14.8725 83.3076 15.2086 82.8904 15.2086Z" fill="#131144"/>
<path id="Vector_23" d="M88.8011 21.1887C88.3722 21.1887 88.0361 20.841 88.0361 20.4238V0.999302C88.0361 0.570479 88.3838 0.234375 88.8011 0.234375C89.2183 0.234375 89.566 0.582069 89.566 0.999302V20.4238C89.566 20.8526 89.2183 21.1887 88.8011 21.1887Z" fill="#131144"/>
<path id="Vector_24" d="M94.7234 18.384C94.2946 18.384 93.9585 18.0363 93.9585 17.6191V3.89676C93.9585 3.46794 94.3062 3.13184 94.7234 3.13184C95.1407 3.13184 95.4884 3.47953 95.4884 3.89676V17.6191C95.4884 18.0479 95.1407 18.384 94.7234 18.384Z" fill="#131144"/>
<path id="Vector_25" d="M106.626 18.3147C106.197 18.3147 105.861 17.967 105.861 17.5498V3.82743C105.861 3.3986 106.209 3.0625 106.626 3.0625C107.043 3.0625 107.391 3.41019 107.391 3.82743V17.5498C107.391 17.9786 107.043 18.3147 106.626 18.3147Z" fill="#131144"/>
<path id="Vector_26" d="M100.669 15.2086C100.24 15.2086 99.9043 14.8609 99.9043 14.4437V7.07254C99.9043 6.64372 100.252 6.30762 100.669 6.30762C101.086 6.30762 101.434 6.65531 101.434 7.07254V14.4437C101.434 14.8725 101.086 15.2086 100.669 15.2086Z" fill="#131144"/>
<path id="Vector_27" d="M112.409 15.2086C111.981 15.2086 111.645 14.8609 111.645 14.4437V7.07254C111.645 6.64372 111.992 6.30762 112.409 6.30762C112.827 6.30762 113.174 6.65531 113.174 7.07254V14.4437C113.174 14.8725 112.827 15.2086 112.409 15.2086Z" fill="#131144"/>
<path id="Vector_28" d="M67.1629 86.6709H38.397V87.8299H67.1629V86.6709Z" fill="#131144"/>
<path id="Vector_29" d="M156.88 86.7173H128.114V87.8763H156.88V86.7173Z" fill="#131144"/>
<path id="Vector_30" d="M98.2234 28.0498H97.0645V56.8157H98.2234V28.0498Z" fill="#131144"/>
<path id="Vector_31" d="M143.309 40.5442L122.968 60.8848L123.788 61.7043L144.128 41.3637L143.309 40.5442Z" fill="#131144"/>
<path id="Vector_32" d="M53.7497 40.5447L52.9302 41.3643L73.2707 61.7048L74.0903 60.8853L53.7497 40.5447Z" fill="#131144"/>
<path id="Vector_33" d="M116.744 66.1802H79.8999C78.4469 66.1802 77.269 67.3581 77.269 68.8111V105.655C77.269 107.108 78.4469 108.286 79.8999 108.286H116.744C118.197 108.286 119.375 107.108 119.375 105.655V68.8111C119.375 67.3581 118.197 66.1802 116.744 66.1802Z" fill="#61BD73"/>
<path id="Vector_34" d="M116.744 108.866H79.9003C78.1271 108.866 76.6899 107.429 76.6899 105.655V68.8114C76.6899 67.0382 78.1271 65.6011 79.9003 65.6011H116.744C118.518 65.6011 119.955 67.0382 119.955 68.8114V105.655C119.955 107.429 118.518 108.866 116.744 108.866ZM79.9003 66.7601C78.7645 66.7601 77.8489 67.6756 77.8489 68.8114V105.655C77.8489 106.791 78.7645 107.707 79.9003 107.707H116.744C117.88 107.707 118.796 106.791 118.796 105.655V68.8114C118.796 67.6756 117.88 66.7601 116.744 66.7601H79.9003Z" fill="#131144"/>
<path id="Vector_35" d="M85.2663 96.731L91.8146 77.7354H96.2998L102.848 96.731H99.0698L97.7138 92.6746H90.3659L88.9867 96.731H85.2432H85.2663ZM91.3858 89.5917H96.7171L93.5762 80.1576H94.5498L91.3858 89.5917Z" fill="#131144"/>
<path id="Vector_36" d="M104.946 96.731V77.7354H108.434V96.731H104.946Z" fill="#131144"/>
</g>
<defs>
<clipPath id="clip0_44_7598">
<rect width="183.061" height="108.631" fill="white" transform="translate(0 0.234375)"/>
</clipPath>
</defs>
</svg>
