<svg width="20" height="19" viewBox="0 0 20 19" fill="none" xmlns="http://www.w3.org/2000/svg">
<g id="Github-Logo-2--Streamline-Logos 2">
<path id="Vector" d="M10.0875 1.7688C8.19089 1.76692 6.3556 2.44054 4.91054 3.66892C3.46548 4.8973 2.50511 6.60016 2.20154 8.47231C1.89798 10.3445 2.27105 12.2635 3.25391 13.8856C4.23678 15.5077 5.76517 16.7267 7.5652 17.3242C7.96325 17.3943 8.09036 17.1598 8.09036 16.949C8.09036 16.7587 8.09416 16.2298 8.09036 15.5608C5.8687 16.0425 5.40975 14.5097 5.40975 14.5097C5.26346 14.0273 4.9495 13.6132 4.52459 13.3421C3.80002 12.8474 4.57863 12.8566 4.57863 12.8566C4.83167 12.8913 5.07343 12.9834 5.28541 13.1258C5.4974 13.2683 5.674 13.4574 5.80172 13.6785C5.9098 13.8753 6.05581 14.0487 6.23131 14.1887C6.4068 14.3286 6.6083 14.4325 6.82416 14.4941C7.04001 14.5557 7.26595 14.574 7.4889 14.5478C7.71185 14.5216 7.9274 14.4515 8.12308 14.3415C8.16114 13.9381 8.34 13.5613 8.62998 13.2782C6.85813 13.0758 4.99495 12.3915 4.99495 9.33265C4.98339 8.53937 5.27775 7.77211 5.81694 7.19014C5.57298 6.50211 5.60102 5.74688 5.89534 5.07884C5.89534 5.07884 6.56663 4.86421 8.0896 5.89779C9.39786 5.53881 10.7786 5.53881 12.0869 5.89779C13.6144 4.86497 14.2796 5.07884 14.2796 5.07884C14.5742 5.74709 14.6024 6.5021 14.3588 7.19014C14.8982 7.77221 15.1924 8.53991 15.18 9.33341C15.18 12.4007 13.3138 13.075 11.5351 13.2714C11.7261 13.4632 11.8737 13.6939 11.968 13.9477C12.0623 14.2015 12.101 14.4725 12.0816 14.7426V16.9528C12.0816 17.1659 12.211 17.4019 12.6159 17.3242C14.4154 16.7257 15.9431 15.5059 16.9251 13.8835C17.9071 12.261 18.2794 10.3419 17.9751 8.46995C17.6708 6.59801 16.71 4.89558 15.2646 3.66766C13.8193 2.43975 11.984 1.76659 10.0875 1.7688Z" stroke="black" stroke-width="0.730659" stroke-linecap="round" stroke-linejoin="round"/>
</g>
</svg>
