<?xml version="1.0" encoding="UTF-8"?><svg id="Layer_2" xmlns="http://www.w3.org/2000/svg" xmlns:xlink="http://www.w3.org/1999/xlink" viewBox="0 0 98.33 98.33"><defs><style>.cls-1{fill:url(#linear-gradient);opacity:.5;}.cls-2{fill:#fff;}.cls-3{fill:url(#linear-gradient-3);}.cls-4{opacity:.7;}.cls-5{fill:none;opacity:.8;stroke:url(#linear-gradient-2);stroke-miterlimit:10;stroke-width:2px;}</style><linearGradient id="linear-gradient" x1="6.58" y1="73.75" x2="91.75" y2="24.58" gradientUnits="userSpaceOnUse"><stop offset="0" stop-color="#00da00"/><stop offset="1" stop-color="#ffd400"/></linearGradient><linearGradient id="linear-gradient-2" x1="17.1" y1="67.68" x2="81.23" y2="30.65" xlink:href="#linear-gradient"/><linearGradient id="linear-gradient-3" x1="20.93" y1="65.47" x2="77.41" y2="32.86" gradientUnits="userSpaceOnUse"><stop offset="0" stop-color="#000"/><stop offset=".22" stop-color="#000003"/><stop offset=".4" stop-color="#03020d"/><stop offset=".57" stop-color="#08051e"/><stop offset=".73" stop-color="#0e0936"/><stop offset=".88" stop-color="#160e55"/><stop offset="1" stop-color="#1f1474"/></linearGradient></defs><g id="visuals"><g><g><circle class="cls-1" cx="49.17" cy="49.17" r="49.17"/><circle class="cls-5" cx="49.17" cy="49.17" r="36.02"/><circle class="cls-3" cx="49.17" cy="49.17" r="32.6"/></g><g id="BFVql2" class="cls-4"><g><path class="cls-2" d="M30.95,51.73c0-.72,0-1.44,0-2.15,.02-.13,.05-.27,.07-.4,.06-.6,.17-1.19,.32-1.77,.35-1.37,1-2.58,1.85-3.7,.39-.51,.57-1.08,.54-1.72-.02-.34-.04-.67-.03-1.01,.08-2.04,.49-4.01,1.13-5.95,.16-.49,.31-.59,.82-.55,.51,.05,.99,.23,1.47,.39,2.09,.69,4.03,1.69,5.86,2.9,.62,.41,1.22,.49,1.94,.38,2.39-.36,4.8-.45,7.19-.05,.98,.16,1.86,.09,2.7-.52,.77-.56,1.63-.98,2.48-1.39,1.33-.65,2.67-1.28,4.12-1.64,.7-.18,1.1,.01,1.32,.69,.64,1.92,.93,3.91,1.04,5.93,.02,.46,.03,.92,.12,1.38,.16,.82,.68,1.46,1.11,2.14,.57,.9,.97,1.86,1.22,2.9,.34,1.39,.38,2.79,.28,4.21-.15,2.06-.52,4.06-1.44,5.93-1.07,2.17-2.64,3.86-4.8,5-2.32,1.23-4.84,1.71-7.43,1.78-2.71,.08-5.42,.08-8.13,.01-2.51-.06-4.95-.51-7.21-1.66-2.21-1.13-3.91-2.78-4.99-5.04-.79-1.64-1.21-3.39-1.41-5.2-.03-.29,0-.6-.13-.88Zm17.8,11.05c.53,0,1.07,0,1.6,0,2.45-.03,4.88-.26,7.2-1.12,1.76-.65,2.97-1.89,3.69-3.61,.69-1.64,.67-3.35,.26-5.05-.37-1.53-1.24-2.71-2.71-3.36-1.38-.61-2.85-.85-4.34-.72-1.8,.16-3.6,.16-5.41,.13-2.78-.05-5.55-.23-8.33,0-1.71,.15-3,.9-3.92,2.28-1.32,1.98-1.36,4.13-.65,6.32,.6,1.85,1.81,3.15,3.6,3.9,1.17,.49,2.41,.74,3.66,.92,1.78,.26,3.57,.32,5.37,.28Z"/><path class="cls-2" d="M45.15,55.21c.04,.97-.16,1.89-.75,2.68-.99,1.33-2.55,1.35-3.62,.05-1.1-1.35-1.04-3.84,.12-5.13,1.08-1.2,2.66-1.07,3.56,.28,.33,.49,.64,1.18,.68,2.12Z"/><path class="cls-2" d="M57.52,55.22c.04,.96-.17,1.86-.74,2.65-.97,1.34-2.54,1.36-3.61,.07-1.11-1.34-1.06-3.84,.1-5.13,1.09-1.21,2.69-1.09,3.58,.28,.42,.65,.64,1.35,.67,2.12Z"/></g></g></g></g></svg>