<svg width="22" height="22" viewBox="0 0 22 22" fill="none" xmlns="http://www.w3.org/2000/svg">
<g id="Group 2604">
<g id="xZNQuQ">
<path id="Vector" d="M22 11.5902C21.9604 11.9305 21.9254 12.2709 21.8811 12.6089C21.6806 14.1054 21.1678 15.4924 20.3682 16.7675C19.4731 18.1942 18.3332 19.3853 16.9066 20.2921C16.1606 20.7653 15.3657 21.1383 14.5289 21.418C14.065 21.5742 13.7456 21.3341 13.7433 20.8446C13.7387 19.8842 13.7433 18.9261 13.741 17.9657C13.7387 17.3806 13.6757 16.8072 13.3633 16.292C13.2701 16.1405 13.1536 16.0076 13.009 15.8538C13.4706 15.7838 13.8995 15.7349 14.3191 15.6253C15.438 15.3293 16.4427 14.8397 17.128 13.8607C17.6292 13.1404 17.86 12.3152 17.9602 11.4527C18.0395 10.7837 18.0605 10.11 17.9206 9.44329C17.7784 8.77194 17.4894 8.17285 17.0395 7.65302C16.9299 7.52481 16.9066 7.42224 16.9625 7.25674C17.2586 6.36393 17.1304 5.49211 16.8087 4.63427C16.7761 4.54569 16.7131 4.5387 16.6432 4.52937C16.2516 4.47809 15.8949 4.6063 15.5406 4.7415C14.9648 4.96295 14.4193 5.24501 13.9065 5.59001C13.8016 5.65994 13.7037 5.67393 13.5848 5.64363C11.8668 5.19839 10.1465 5.19839 8.42845 5.64363C8.29791 5.67626 8.19768 5.64829 8.08811 5.57603C7.39812 5.11913 6.65683 4.7718 5.85261 4.55968C5.83862 4.55501 5.82464 4.55035 5.81065 4.54802C5.30714 4.44545 5.21389 4.5014 5.06937 4.99092C4.83626 5.77883 4.79197 6.56674 5.07869 7.34998C5.11366 7.44555 5.09035 7.50616 5.02741 7.57842C4.11362 8.60177 3.9015 9.82559 4.01572 11.1426C4.08332 11.9422 4.26981 12.7068 4.62646 13.4294C5.12065 14.4248 5.96683 15.0052 6.96454 15.4015C7.60092 15.6556 8.2746 15.7512 8.95295 15.8444C8.94829 15.8677 8.95295 15.8934 8.94129 15.905C8.59862 16.264 8.40514 16.6929 8.32589 17.1778C8.31423 17.2431 8.31423 17.32 8.22565 17.3526C7.45873 17.63 6.6918 17.7862 5.93653 17.3247C5.59386 17.1149 5.3421 16.8118 5.1393 16.4692C4.82227 15.9284 4.37004 15.5507 3.77562 15.3526C3.5495 15.2757 3.3164 15.25 3.07863 15.3176C2.92477 15.3619 2.88281 15.4435 2.9714 15.5857C3.05765 15.7232 3.16488 15.8421 3.30008 15.919C3.88052 16.2454 4.20454 16.7815 4.46795 17.3596C4.62646 17.7046 4.76166 18.0566 5.05305 18.3224C5.50528 18.735 6.05542 18.8795 6.64518 18.9331C7.12538 18.9774 7.60325 18.9844 8.07646 18.8865C8.23964 18.8515 8.26528 18.9098 8.26528 19.0567C8.26528 19.6371 8.27693 20.2175 8.2816 20.7956C8.28393 21.3341 7.93893 21.5766 7.42609 21.3971C4.31876 20.3061 2.14153 18.2058 0.836128 15.2127C0.0808578 13.4807 -0.131272 11.6462 0.0738635 9.76731C0.381566 6.96069 1.61704 4.62028 3.71035 2.75309C5.45167 1.20059 7.49602 0.291468 9.83177 0.0606914C12.1722 -0.170085 14.3774 0.25184 16.4264 1.41971C18.4171 2.55495 19.9114 4.16106 20.9184 6.2194C21.5198 7.44788 21.8625 8.74629 21.9627 10.11C21.9674 10.1729 21.9883 10.2335 22 10.2941V11.5832V11.5902Z" fill="#61BD73"/>
</g>
</g>
</svg>
