<svg width="98" height="98" viewBox="0 0 98 98" fill="none" xmlns="http://www.w3.org/2000/svg">
<circle cx="48.5774" cy="48.5774" r="48.5774" fill="#262262"/>
<path d="M52.6933 59.2395C53.4096 59.1136 54.0861 59.0137 54.7553 58.8731C55.9346 58.6269 57.0723 58.2494 58.1395 57.6684C60.0242 56.6413 61.3284 55.0924 62.0826 53.055C62.7356 51.2895 62.9418 49.4427 62.8966 47.5755C62.8441 45.3493 62.1025 43.3692 60.6012 41.6852C61.2904 39.6256 61.1457 37.5919 60.3661 35.5729C59.5576 35.4378 58.8015 35.6099 58.0581 35.8635C56.8101 36.2872 55.6742 36.9423 54.5744 37.6677C54.4478 37.751 54.323 37.8343 54.1928 37.9231C50.454 36.9035 46.7189 36.8998 42.9531 37.9175C41.0611 36.7536 39.1872 35.4693 36.7761 35.5267C35.9784 37.5548 35.8193 39.5812 36.5102 41.6445C36.2389 42.0146 35.9622 42.3588 35.7198 42.7271C34.7702 44.1631 34.2818 45.7546 34.2384 47.4867C34.195 49.2169 34.3524 50.9213 34.8769 52.5794C35.7216 55.2497 37.4291 57.0873 39.9596 58.1402C41.289 58.6936 42.6781 58.9896 44.0944 59.1728C44.1812 59.1839 44.2662 59.1987 44.4363 59.2247C43.5879 60.1055 43.19 61.1437 43.0272 62.2873C42.5027 62.6037 41.9347 62.7536 41.3632 62.848C40.589 62.9739 39.813 62.9609 39.0497 62.7018C37.9193 62.3169 37.1306 61.5249 36.5157 60.5256C36.0942 59.8409 35.595 59.2339 34.9565 58.7546C34.2909 58.255 33.5511 57.9996 32.719 58.081C32.4658 58.1051 32.2054 58.1236 32.0299 58.3438C31.9377 58.577 32.0426 58.7528 32.1836 58.8934C32.3754 59.0859 32.5725 59.2894 32.8041 59.4208C33.3449 59.728 33.7844 60.1462 34.11 60.6681C34.5459 61.3657 35.0162 62.0578 35.3182 62.8184C35.9531 64.408 37.0981 65.2778 38.6862 65.622C39.9704 65.9014 41.2546 65.7959 42.5371 65.5942C42.6402 65.5776 42.7432 65.5646 42.8753 65.5461C42.8898 65.659 42.9151 65.7608 42.9151 65.8607C42.9223 67.1542 42.9296 68.4477 42.9296 69.7394C42.9296 70.6462 42.2892 71.1699 41.4319 70.9312C40.2562 70.6018 39.1456 70.091 38.0766 69.5007C32.3736 66.3474 28.5914 61.5896 26.7899 55.209C26.1622 52.9754 25.9434 50.6881 26.0121 48.3675C26.1731 42.9418 27.9891 38.1618 31.4258 34.0499C34.4139 30.4728 38.1526 28.0634 42.6004 26.8236C44.0365 26.4238 45.498 26.2018 46.9812 26.0704C48.8551 25.9038 50.7091 26.0426 52.5432 26.3831C56.2729 27.0734 59.6336 28.6371 62.5873 31.078C65.9932 33.8889 68.4133 37.4161 69.8314 41.6575C70.3813 43.3045 70.7864 44.9903 70.8877 46.728C70.9709 48.1233 71.0577 49.5334 70.9492 50.9213C70.6146 55.1923 69.2218 59.0933 66.7547 62.5686C64.0198 66.4214 60.4565 69.1602 56.0847 70.7942C55.8876 70.8683 55.6868 70.9367 55.4806 70.9774C54.8548 71.0977 54.3031 70.7276 54.1674 70.0929C54.1222 69.8856 54.1078 69.6673 54.1096 69.4544C54.1258 67.5447 54.1729 65.6368 54.1566 63.7289C54.1512 62.9961 54.0426 62.2577 53.9088 61.5378C53.7659 60.7754 53.4132 60.0926 52.8995 59.5078C52.8326 59.4319 52.7747 59.3486 52.6915 59.2432L52.6933 59.2395Z" fill="white"/>
</svg>
