<svg width="48" height="48" viewBox="0 0 48 48" fill="none" xmlns="http://www.w3.org/2000/svg">
<path d="M23.8841 47.4793C36.9197 47.4793 47.487 36.9132 47.487 23.8793C47.487 10.8454 36.9197 0.279297 23.8841 0.279297C10.8486 0.279297 0.28125 10.8454 0.28125 23.8793C0.28125 36.9132 10.8486 47.4793 23.8841 47.4793Z" fill="white"/>
<path d="M23.8822 47.7585C10.7107 47.7585 0 37.0491 0 23.8793C0 10.7094 10.7107 0 23.8822 0C37.0536 0 47.7643 10.7094 47.7643 23.8793C47.7643 37.0491 37.0536 47.7585 23.8822 47.7585ZM23.8822 0.558483C11.0278 0.558483 0.566107 11.0189 0.566107 23.8717C0.566107 36.7245 11.0278 47.1849 23.8822 47.1849C36.7366 47.1849 47.1982 36.7245 47.1982 23.8717C47.1982 11.0189 36.7366 0.558483 23.8822 0.558483Z" fill="#130C49"/>
<path d="M29.2299 16.7077C29.6375 16.987 29.9546 17.3644 30.264 17.7417C31.0415 18.6851 31.5925 19.7492 31.9322 20.919C31.9623 21.0322 32.0303 21.1002 32.1133 21.1606C33.5626 22.2398 34.4532 23.6738 34.7099 25.4625C34.9892 27.4172 34.4759 29.1606 33.1776 30.6549C32.1435 31.8474 30.8301 32.5643 29.2677 32.8134C29.079 32.8436 28.8827 32.8813 28.694 32.8813C26.8976 32.8813 25.1011 32.8813 23.3047 32.8813C23.3047 31.553 23.3047 30.2247 23.3047 28.8964C23.3877 28.8964 23.4632 28.8889 23.5462 28.8889C25.1691 28.8889 26.7995 28.904 28.4223 28.8813C29.8715 28.8587 31.0113 27.4322 30.7547 26.0134C30.5433 24.8436 29.6526 24.021 28.46 23.9153C28.3242 23.9002 28.2864 23.8625 28.2864 23.7266C28.2864 23.47 28.2864 23.2134 28.2562 22.9568C28.1204 21.5681 27.5165 20.4285 26.4371 19.5455C26.4673 19.4474 26.5504 19.3945 26.6183 19.3266C27.4863 18.4511 28.3544 17.5757 29.2299 16.7002V16.7077Z" fill="#4285F3"/>
<path d="M14.4144 31.5766C13.5766 30.9879 12.9576 30.2181 12.5047 29.3124C11.0857 26.4747 11.9311 23.0709 14.505 21.1992C14.5654 21.1539 14.6182 21.1086 14.671 21.0633C14.973 20.8973 15.2673 20.7162 15.5768 20.5728C16.86 19.969 18.2036 19.8482 19.5849 20.0822C19.6452 20.0973 19.7056 20.1124 19.7736 20.1275C21.2152 20.4671 22.4078 21.2143 23.3589 22.3539C23.4797 22.4973 23.457 22.5652 23.3363 22.6784C22.4682 23.5313 21.6078 24.3917 20.7473 25.2445C20.702 25.2898 20.6642 25.3577 20.5812 25.3728C20.4303 25.086 20.2491 24.8294 20.0075 24.603C19.2527 23.886 18.0526 23.735 17.1166 24.2483C16.1731 24.7615 15.6599 25.8482 15.8637 26.8747C16.0297 27.7124 16.5279 28.3011 17.2751 28.686C17.2148 28.7539 17.1619 28.8219 17.1015 28.8822C16.2033 29.7803 15.3126 30.6709 14.4144 31.569V31.5766Z" fill="#FABB06"/>
<path d="M19.5918 20.0892C18.2029 19.8477 16.8669 19.9685 15.5837 20.5798C15.2742 20.7232 14.9799 20.9043 14.6779 21.0703C14.5647 21.0099 14.6402 20.927 14.6629 20.859C15.1535 19.2213 16.0442 17.8402 17.3273 16.7081C19.1238 15.1232 21.2297 14.3685 23.6224 14.4515C25.7585 14.527 27.638 15.2892 29.2382 16.7081C28.3702 17.5836 27.4946 18.459 26.6266 19.3345C26.5586 19.4024 26.4756 19.4552 26.4454 19.5533C26.4001 19.5231 26.3473 19.5005 26.302 19.4703C25.5774 18.9269 24.7697 18.5873 23.8715 18.4968C22.1807 18.3156 20.7541 18.859 19.5993 20.0968L19.5918 20.0892Z" fill="#E94336"/>
<path d="M14.4141 31.5764C15.3123 30.6783 16.203 29.7877 17.1012 28.8896C17.1616 28.8292 17.222 28.7613 17.2748 28.6934C17.8334 28.9198 18.4221 28.8971 19.0108 28.8971C20.445 28.8971 21.8716 28.8971 23.3057 28.8971C23.3057 30.2254 23.3057 31.5537 23.3057 32.882C21.4942 32.882 19.6826 32.9198 17.8786 32.8669C16.5955 32.8292 15.4331 32.3537 14.4141 31.5764Z" fill="#35A854"/>
</svg>
