<svg width="181" height="96" viewBox="0 0 181 96" fill="none" xmlns="http://www.w3.org/2000/svg">
<g clip-path="url(#clip0_5367_938)">
<path d="M24.2179 4.90607L5.71875 37.6634L18.3809 72.347L65.4148 90.8189L127.64 87.3002L175.79 87.6033L176.937 84.5675L173.87 30.9239L174.203 29.1055L97.4414 4.61328L24.2179 4.90607Z" stroke="#130C49" stroke-width="1.29293" stroke-miterlimit="10"/>
<path d="M5.58203 36.9649L110.73 19.7207L175.792 87.6034" stroke="#130C49" stroke-width="1.29293" stroke-miterlimit="10"/>
<path d="M24.5507 48.4L5.71875 37.6641" stroke="#130C49" stroke-width="1.9394" stroke-miterlimit="10"/>
<path d="M24.7812 8.27148L127.64 87.3011L129.35 56.1464L111.532 23.6819" stroke="#130C49" stroke-width="1.29293" stroke-miterlimit="10"/>
<path d="M97.2823 5.52344L64.8767 91.611L53.6328 19.0692" stroke="#130C49" stroke-width="1.29293" stroke-miterlimit="10"/>
<path d="M129.35 56.1463L101.824 50.1055" stroke="#130C49" stroke-width="1.29293" stroke-miterlimit="10"/>
<path d="M18.6562 71.7513L24.5496 48.3995L24.4625 5.73842L53.6321 19.0684L96.8463 5.28125L109.391 18.5496L110.722 19.1454L174.463 30.02L101.823 50.1049L68.414 32.6655L55.1118 20.5632L53.3863 18.4931L25.8808 47.0382L24.5496 48.3995L66.2994 33.1894L68.414 32.6655L65.4136 90.8191L100.538 51.2247L110.727 19.7208L110.855 21.7652L68.414 32.6655L96.2677 5.5535" stroke="#130C49" stroke-width="0.646467" stroke-miterlimit="10"/>
<path d="M18.6562 71.7523L67.4924 35.2656" stroke="#130C49" stroke-width="1.29293" stroke-miterlimit="10"/>
<path d="M129.349 56.1455L173.869 30.9238L128.617 87.5467" stroke="#130C49" stroke-width="1.29293" stroke-miterlimit="10"/>
<path d="M65.4128 94.7651C67.5845 94.7651 69.3451 92.9989 69.3451 90.8201C69.3451 88.6413 67.5845 86.875 65.4128 86.875C63.241 86.875 61.4805 88.6413 61.4805 90.8201C61.4805 92.9989 63.241 94.7651 65.4128 94.7651Z" fill="#7AD6EB" stroke="#130C49" stroke-width="1.9394" stroke-miterlimit="10"/>
<path d="M35.5221 54.9897C37.6939 54.9897 39.4544 53.2235 39.4544 51.0447C39.4544 48.8659 37.6939 47.0996 35.5221 47.0996C33.3504 47.0996 31.5898 48.8659 31.5898 51.0447C31.5898 53.2235 33.3504 54.9897 35.5221 54.9897Z" fill="#61BD73" stroke="#130C49" stroke-width="1.29293" stroke-miterlimit="10"/>
<path d="M24.5495 52.3452C26.7212 52.3452 28.4818 50.5789 28.4818 48.4001C28.4818 46.2213 26.7212 44.4551 24.5495 44.4551C22.3777 44.4551 20.6172 46.2213 20.6172 48.4001C20.6172 50.5789 22.3777 52.3452 24.5495 52.3452Z" fill="#7AD6EB" stroke="#130C49" stroke-width="1.29293" stroke-miterlimit="10"/>
<path d="M5.71744 41.6089C7.88918 41.6089 9.64973 39.8426 9.64973 37.6638C9.64973 35.485 7.88918 33.7188 5.71744 33.7188C3.5457 33.7188 1.78516 35.485 1.78516 37.6638C1.78516 39.8426 3.5457 41.6089 5.71744 41.6089Z" fill="#7AD6EB" stroke="#130C49" stroke-width="1.29293" stroke-miterlimit="10"/>
<path d="M24.1471 10.3198C26.3189 10.3198 28.0794 8.55354 28.0794 6.37474C28.0794 4.19595 26.3189 2.42969 24.1471 2.42969C21.9754 2.42969 20.2148 4.19595 20.2148 6.37474C20.2148 8.55354 21.9754 10.3198 24.1471 10.3198Z" fill="#7AD6EB" stroke="#130C49" stroke-width="1.29293" stroke-miterlimit="10"/>
<path d="M53.6315 23.0132C55.8032 23.0132 57.5638 21.2469 57.5638 19.0681C57.5638 16.8893 55.8032 15.123 53.6315 15.123C51.4598 15.123 49.6992 16.8893 49.6992 19.0681C49.6992 21.2469 51.4598 23.0132 53.6315 23.0132Z" fill="#7AD6EB" stroke="#130C49" stroke-width="1.29293" stroke-miterlimit="10"/>
<path d="M68.4167 36.6108C70.5884 36.6108 72.3489 34.8446 72.3489 32.6658C72.3489 30.487 70.5884 28.7207 68.4167 28.7207C66.2449 28.7207 64.4844 30.487 64.4844 32.6658C64.4844 34.8446 66.2449 36.6108 68.4167 36.6108Z" fill="#7AD6EB" stroke="#130C49" stroke-width="1.29293" stroke-miterlimit="10"/>
<path d="M18.6588 75.6968C20.8306 75.6968 22.5911 73.9305 22.5911 71.7517C22.5911 69.5729 20.8306 67.8066 18.6588 67.8066C16.4871 67.8066 14.7266 69.5729 14.7266 71.7517C14.7266 73.9305 16.4871 75.6968 18.6588 75.6968Z" fill="#7AD6EB" stroke="#130C49" stroke-width="1.29293" stroke-miterlimit="10"/>
<path d="M101.823 54.0503C103.995 54.0503 105.755 52.284 105.755 50.1052C105.755 47.9264 103.995 46.1602 101.823 46.1602C99.6512 46.1602 97.8906 47.9264 97.8906 50.1052C97.8906 52.284 99.6512 54.0503 101.823 54.0503Z" fill="#7AD6EB" stroke="#130C49" stroke-width="1.29293" stroke-miterlimit="10"/>
<path d="M127.639 91.2456C129.811 91.2456 131.572 89.4793 131.572 87.3005C131.572 85.1217 129.811 83.3555 127.639 83.3555C125.468 83.3555 123.707 85.1217 123.707 87.3005C123.707 89.4793 125.468 91.2456 127.639 91.2456Z" fill="#7AD6EB" stroke="#130C49" stroke-width="1.29293" stroke-miterlimit="10"/>
<path d="M129.35 60.0913C131.522 60.0913 133.283 58.325 133.283 56.1462C133.283 53.9674 131.522 52.2012 129.35 52.2012C127.179 52.2012 125.418 53.9674 125.418 56.1462C125.418 58.325 127.179 60.0913 129.35 60.0913Z" fill="#7AD6EB" stroke="#130C49" stroke-width="1.29293" stroke-miterlimit="10"/>
<path d="M110.842 24.7866C113.014 24.7866 114.775 23.0203 114.775 20.8415C114.775 18.6627 113.014 16.8965 110.842 16.8965C108.671 16.8965 106.91 18.6627 106.91 20.8415C106.91 23.0203 108.671 24.7866 110.842 24.7866Z" fill="#7AD6EB" stroke="#130C49" stroke-width="1.29293" stroke-miterlimit="10"/>
<path d="M97.2839 9.46824C99.4556 9.46824 101.216 7.70197 101.216 5.52318C101.216 3.34438 99.4556 1.57812 97.2839 1.57812C95.1121 1.57812 93.3516 3.34438 93.3516 5.52318C93.3516 7.70197 95.1121 9.46824 97.2839 9.46824Z" fill="#7AD6EB" stroke="#130C49" stroke-width="1.29293" stroke-miterlimit="10"/>
<path d="M173.87 34.8686C176.042 34.8686 177.802 33.1024 177.802 30.9236C177.802 28.7448 176.042 26.9785 173.87 26.9785C171.698 26.9785 169.938 28.7448 169.938 30.9236C169.938 33.1024 171.698 34.8686 173.87 34.8686Z" fill="#7AD6EB" stroke="#130C49" stroke-width="1.29293" stroke-miterlimit="10"/>
<path d="M175.792 91.5483C177.963 91.5483 179.724 89.7821 179.724 87.6033C179.724 85.4245 177.963 83.6582 175.792 83.6582C173.62 83.6582 171.859 85.4245 171.859 87.6033C171.859 89.7821 173.62 91.5483 175.792 91.5483Z" fill="#7AD6EB" stroke="#130C49" stroke-width="1.29293" stroke-miterlimit="10"/>
</g>
<defs>
<clipPath id="clip0_5367_938">
<rect width="179.718" height="95.0307" fill="white" transform="translate(0.792969 0.935547)"/>
</clipPath>
</defs>
</svg>
