<svg width="238" height="114" viewBox="0 0 238 114" fill="none" xmlns="http://www.w3.org/2000/svg">
<g id="Layer_1" clip-path="url(#clip0_2862_3739)">
<path id="Vector" d="M9.32819 67.4873C14.0873 67.4873 17.9454 63.6293 17.9454 58.8701C17.9454 54.111 14.0873 50.2529 9.32819 50.2529C4.56905 50.2529 0.710999 54.111 0.710999 58.8701C0.710999 63.6293 4.56905 67.4873 9.32819 67.4873Z" fill="#D9D9D9"/>
<path id="Vector_2" d="M9.32818 68.212C4.18062 68.212 0 64.0314 0 58.8838C0 53.7363 4.18062 49.5557 9.32818 49.5557C14.4757 49.5557 18.6564 53.7363 18.6564 58.8838C18.6564 64.0314 14.4757 68.212 9.32818 68.212ZM9.32818 50.9634C4.9627 50.9634 1.42198 54.5184 1.42198 58.8696C1.42198 63.2209 4.97692 66.7758 9.32818 66.7758C13.6794 66.7758 17.2344 63.2209 17.2344 58.8696C17.2344 54.5184 13.6794 50.9634 9.32818 50.9634Z" fill="#131144"/>
<path id="Vector_3" d="M45.2189 67.2734C49.978 67.2734 53.8361 63.4154 53.8361 58.6563C53.8361 53.8971 49.978 50.0391 45.2189 50.0391C40.4598 50.0391 36.6017 53.8971 36.6017 58.6563C36.6017 63.4154 40.4598 67.2734 45.2189 67.2734Z" fill="#D9D9D9"/>
<path id="Vector_4" d="M45.2189 67.9845C40.0714 67.9845 35.8907 63.8039 35.8907 58.6563C35.8907 53.5087 40.0714 49.3281 45.2189 49.3281C50.3665 49.3281 54.5471 53.5087 54.5471 58.6563C54.5471 63.8039 50.3665 67.9845 45.2189 67.9845ZM45.2189 50.7501C40.8535 50.7501 37.3127 54.3051 37.3127 58.6563C37.3127 63.0076 40.8677 66.5625 45.2189 66.5625C49.5702 66.5625 53.1251 63.0076 53.1251 58.6563C53.1251 54.3051 49.5702 50.7501 45.2189 50.7501Z" fill="#131144"/>
<path id="Vector_5" d="M77.3698 100.079C82.129 100.079 85.987 96.2211 85.987 91.4619C85.987 86.7028 82.129 82.8447 77.3698 82.8447C72.6107 82.8447 68.7527 86.7028 68.7527 91.4619C68.7527 96.2211 72.6107 100.079 77.3698 100.079Z" fill="#D9D9D9"/>
<path id="Vector_6" d="M77.3698 100.79C72.2223 100.79 68.0417 96.6095 68.0417 91.462C68.0417 86.3144 72.2223 82.1338 77.3698 82.1338C82.5174 82.1338 86.698 86.3144 86.698 91.462C86.698 96.6095 82.5174 100.79 77.3698 100.79ZM77.3698 83.5558C73.0044 83.5558 69.4636 87.1107 69.4636 91.462C69.4636 95.8132 73.0186 99.3682 77.3698 99.3682C81.7211 99.3682 85.276 95.8132 85.276 91.462C85.276 87.1107 81.7211 83.5558 77.3698 83.5558Z" fill="#131144"/>
<path id="Vector_7" d="M109.293 113.289C114.052 113.289 117.91 109.431 117.91 104.672C117.91 99.9127 114.052 96.0547 109.293 96.0547C104.534 96.0547 100.676 99.9127 100.676 104.672C100.676 109.431 104.534 113.289 109.293 113.289Z" fill="#D9D9D9"/>
<path id="Vector_8" d="M109.293 114C104.146 114 99.9651 109.819 99.9651 104.672C99.9651 99.5244 104.146 95.3438 109.293 95.3438C114.441 95.3438 118.621 99.5244 118.621 104.672C118.621 109.819 114.441 114 109.293 114ZM109.293 96.7657C104.928 96.7657 101.387 100.321 101.387 104.672C101.387 109.023 104.942 112.578 109.293 112.578C113.645 112.578 117.199 109.023 117.199 104.672C117.199 100.321 113.645 96.7657 109.293 96.7657Z" fill="#131144"/>
<path id="Vector_9" d="M134.619 89.2861C139.378 89.2861 143.236 85.4281 143.236 80.6689C143.236 75.9098 139.378 72.0518 134.619 72.0518C129.86 72.0518 126.001 75.9098 126.001 80.6689C126.001 85.4281 129.86 89.2861 134.619 89.2861Z" fill="#D9D9D9"/>
<path id="Vector_10" d="M134.619 90.0108C129.471 90.0108 125.291 85.8302 125.291 80.6827C125.291 75.5351 129.471 71.3545 134.619 71.3545C139.766 71.3545 143.947 75.5351 143.947 80.6827C143.947 85.8302 139.766 90.0108 134.619 90.0108ZM134.619 72.7622C130.253 72.7622 126.713 76.3172 126.713 80.6684C126.713 85.0197 130.267 88.5746 134.619 88.5746C138.97 88.5746 142.525 85.0197 142.525 80.6684C142.525 76.3172 138.97 72.7622 134.619 72.7622Z" fill="#131144"/>
<path id="Vector_11" d="M178.003 104.487C182.762 104.487 186.62 100.629 186.62 95.8701C186.62 91.111 182.762 87.2529 178.003 87.2529C173.244 87.2529 169.386 91.111 169.386 95.8701C169.386 100.629 173.244 104.487 178.003 104.487Z" fill="#D9D9D9"/>
<path id="Vector_12" d="M178.003 105.198C172.856 105.198 168.675 101.018 168.675 95.8702C168.675 90.7226 172.856 86.542 178.003 86.542C183.151 86.542 187.331 90.7226 187.331 95.8702C187.331 101.018 183.151 105.198 178.003 105.198ZM178.003 87.964C173.638 87.964 170.097 91.5189 170.097 95.8702C170.097 100.221 173.652 103.776 178.003 103.776C182.355 103.776 185.909 100.221 185.909 95.8702C185.909 91.5189 182.355 87.964 178.003 87.964Z" fill="#131144"/>
<path id="Vector_13" d="M219.61 93.2529C224.369 93.2529 228.228 89.3949 228.228 84.6357C228.228 79.8766 224.369 76.0186 219.61 76.0186C214.851 76.0186 210.993 79.8766 210.993 84.6357C210.993 89.3949 214.851 93.2529 219.61 93.2529Z" fill="#D9D9D9"/>
<path id="Vector_14" d="M219.625 93.964C214.477 93.964 210.296 89.7834 210.296 84.6358C210.296 79.4882 214.477 75.3076 219.625 75.3076C224.772 75.3076 228.953 79.4882 228.953 84.6358C228.953 89.7834 224.772 93.964 219.625 93.964ZM219.625 76.7296C215.259 76.7296 211.718 80.2845 211.718 84.6358C211.718 88.9871 215.273 92.542 219.625 92.542C223.976 92.542 227.531 88.9871 227.531 84.6358C227.531 80.2845 223.976 76.7296 219.625 76.7296Z" fill="#131144"/>
<path id="Vector_15" d="M228.427 49.8828C233.186 49.8828 237.044 46.0248 237.044 41.2656C237.044 36.5065 233.186 32.6484 228.427 32.6484C223.667 32.6484 219.809 36.5065 219.809 41.2656C219.809 46.0248 223.667 49.8828 228.427 49.8828Z" fill="#D9D9D9"/>
<path id="Vector_16" d="M228.427 50.5939C223.279 50.5939 219.098 46.4132 219.098 41.2657C219.098 36.1181 223.279 31.9375 228.427 31.9375C233.574 31.9375 237.755 36.1181 237.755 41.2657C237.755 46.4132 233.574 50.5939 228.427 50.5939ZM228.427 33.3453C224.061 33.3453 220.52 36.9002 220.52 41.2515C220.52 45.6027 224.075 49.1577 228.427 49.1577C232.778 49.1577 236.333 45.6027 236.333 41.2515C236.333 36.9002 232.778 33.3453 228.427 33.3453Z" fill="#131144"/>
<path id="Vector_17" d="M201.338 17.9453C206.097 17.9453 209.955 14.0873 209.955 9.32813C209.955 4.56898 206.097 0.710938 201.338 0.710938C196.579 0.710938 192.721 4.56898 192.721 9.32813C192.721 14.0873 196.579 17.9453 201.338 17.9453Z" fill="#D9D9D9"/>
<path id="Vector_18" d="M201.338 18.6564C196.19 18.6564 192.01 14.4757 192.01 9.32818C192.01 4.18062 196.19 0 201.338 0C206.485 0 210.666 4.18062 210.666 9.32818C210.666 14.4757 206.485 18.6564 201.338 18.6564ZM201.338 1.42198C196.972 1.42198 193.432 4.97692 193.432 9.32818C193.432 13.6794 196.987 17.2344 201.338 17.2344C205.689 17.2344 209.244 13.6794 209.244 9.32818C209.244 4.97692 205.689 1.42198 201.338 1.42198Z" fill="#131144"/>
<path id="Vector_19" d="M146.506 28.7383C151.266 28.7383 155.124 24.8802 155.124 20.1211C155.124 15.362 151.266 11.5039 146.506 11.5039C141.747 11.5039 137.889 15.362 137.889 20.1211C137.889 24.8802 141.747 28.7383 146.506 28.7383Z" fill="#D9D9D9"/>
<path id="Vector_20" d="M146.506 29.4493C141.359 29.4493 137.178 25.2687 137.178 20.1211C137.178 14.9736 141.359 10.793 146.506 10.793C151.654 10.793 155.835 14.9736 155.835 20.1211C155.835 25.2687 151.654 29.4493 146.506 29.4493ZM146.506 12.2149C142.141 12.2149 138.6 15.7699 138.6 20.1211C138.6 24.4724 142.155 28.0273 146.506 28.0273C150.858 28.0273 154.413 24.4724 154.413 20.1211C154.413 15.7699 150.858 12.2149 146.506 12.2149Z" fill="#131144"/>
<path id="Vector_21" d="M109.293 28.9512C114.052 28.9512 117.91 25.0931 117.91 20.334C117.91 15.5748 114.052 11.7168 109.293 11.7168C104.534 11.7168 100.676 15.5748 100.676 20.334C100.676 25.0931 104.534 28.9512 109.293 28.9512Z" fill="#D9D9D9"/>
<path id="Vector_22" d="M109.293 29.6769C104.146 29.6769 99.9651 25.4962 99.9651 20.3487C99.9651 15.2011 104.146 11.0205 109.293 11.0205C114.441 11.0205 118.621 15.2011 118.621 20.3487C118.621 25.4962 114.441 29.6769 109.293 29.6769ZM109.293 12.4283C104.928 12.4283 101.387 15.9832 101.387 20.3345C101.387 24.6857 104.942 28.2407 109.293 28.2407C113.645 28.2407 117.199 24.6857 117.199 20.3345C117.199 15.9832 113.645 12.4283 109.293 12.4283Z" fill="#131144"/>
<path id="Vector_23" d="M79.7872 50.0967C84.5463 50.0967 88.4044 46.2386 88.4044 41.4795C88.4044 36.7204 84.5463 32.8623 79.7872 32.8623C75.0281 32.8623 71.17 36.7204 71.17 41.4795C71.17 46.2386 75.0281 50.0967 79.7872 50.0967Z" fill="#D9D9D9"/>
<path id="Vector_24" d="M79.7872 50.8077C74.6397 50.8077 70.459 46.6271 70.459 41.4795C70.459 36.332 74.6397 32.1514 79.7872 32.1514C84.9348 32.1514 89.1154 36.332 89.1154 41.4795C89.1154 46.6271 84.9348 50.8077 79.7872 50.8077ZM79.7872 33.5733C75.4218 33.5733 71.881 37.1283 71.881 41.4795C71.881 45.8308 75.436 49.3857 79.7872 49.3857C84.1385 49.3857 87.6934 45.8308 87.6934 41.4795C87.6934 37.1283 84.1385 33.5733 79.7872 33.5733Z" fill="#131144"/>
<path id="Vector_25" d="M45.0056 35.1231C49.7648 35.1231 53.6228 31.265 53.6228 26.5059C53.6228 21.7467 49.7648 17.8887 45.0056 17.8887C40.2465 17.8887 36.3884 21.7467 36.3884 26.5059C36.3884 31.265 40.2465 35.1231 45.0056 35.1231Z" fill="#131144"/>
<path id="Vector_26" d="M45.0056 35.8341C39.858 35.8341 35.6774 31.6535 35.6774 26.5059C35.6774 21.3584 39.858 17.1777 45.0056 17.1777C50.1532 17.1777 54.3338 21.3584 54.3338 26.5059C54.3338 31.6535 50.1532 35.8341 45.0056 35.8341ZM45.0056 18.5997C40.6401 18.5997 37.0994 22.1547 37.0994 26.5059C37.0994 30.8572 40.6544 34.4121 45.0056 34.4121C49.3569 34.4121 52.9118 30.8572 52.9118 26.5059C52.9118 22.1547 49.3569 18.5997 45.0056 18.5997Z" fill="#131144"/>
<path id="Vector_27" d="M106.435 80.2568C111.194 80.2568 115.052 76.3988 115.052 71.6397C115.052 66.8805 111.194 63.0225 106.435 63.0225C101.676 63.0225 97.8179 66.8805 97.8179 71.6397C97.8179 76.3988 101.676 80.2568 106.435 80.2568Z" fill="#61BD73"/>
<path id="Vector_28" d="M106.435 80.9815C101.288 80.9815 97.1069 76.8009 97.1069 71.6534C97.1069 66.5058 101.288 62.3252 106.435 62.3252C111.583 62.3252 115.763 66.5058 115.763 71.6534C115.763 76.8009 111.583 80.9815 106.435 80.9815ZM106.435 63.733C102.07 63.733 98.5289 67.2879 98.5289 71.6392C98.5289 75.9904 102.084 79.5453 106.435 79.5453C110.786 79.5453 114.341 75.9904 114.341 71.6392C114.341 67.2879 110.786 63.733 106.435 63.733Z" fill="#131144"/>
<path id="Vector_29" d="M197.598 60.4482C202.357 60.4482 206.215 56.5902 206.215 51.8311C206.215 47.0719 202.357 43.2139 197.598 43.2139C192.839 43.2139 188.981 47.0719 188.981 51.8311C188.981 56.5902 192.839 60.4482 197.598 60.4482Z" fill="#A590DD"/>
<path id="Vector_30" d="M197.598 61.1593C192.451 61.1593 188.27 56.9787 188.27 51.8311C188.27 46.6835 192.451 42.5029 197.598 42.5029C202.746 42.5029 206.926 46.6835 206.926 51.8311C206.926 56.9787 202.746 61.1593 197.598 61.1593ZM197.598 43.9249C193.233 43.9249 189.692 47.4799 189.692 51.8311C189.692 56.1824 193.247 59.7373 197.598 59.7373C201.949 59.7373 205.504 56.1824 205.504 51.8311C205.504 47.4799 201.949 43.9249 197.598 43.9249Z" fill="#131144"/>
<path id="Vector_31" d="M152.465 60.4482C157.224 60.4482 161.082 56.5902 161.082 51.8311C161.082 47.0719 157.224 43.2139 152.465 43.2139C147.705 43.2139 143.847 47.0719 143.847 51.8311C143.847 56.5902 147.705 60.4482 152.465 60.4482Z" fill="#F4404E"/>
<path id="Vector_32" d="M152.45 61.1593C147.303 61.1593 143.122 56.9787 143.122 51.8311C143.122 46.6835 147.303 42.5029 152.45 42.5029C157.598 42.5029 161.778 46.6835 161.778 51.8311C161.778 56.9787 157.598 61.1593 152.45 61.1593ZM152.45 43.9249C148.085 43.9249 144.544 47.4799 144.544 51.8311C144.544 56.1824 148.099 59.7373 152.45 59.7373C156.802 59.7373 160.357 56.1824 160.357 51.8311C160.357 47.4799 156.802 43.9249 152.45 43.9249Z" fill="#131144"/>
<path id="Vector_33" d="M108.552 84.1507L107.141 84.3213L108.197 93.0598L109.608 92.8892L108.552 84.1507Z" fill="#131144"/>
<path id="Vector_34" d="M104.729 87.4514L105.411 87.9491L107.885 84.5506L111.099 87.2666L111.654 86.6125L107.743 83.3135L104.729 87.4514Z" fill="#131144"/>
<path id="Vector_35" d="M36.9624 35.1384L18.6646 50.1631L19.567 51.2621L37.8648 36.2374L36.9624 35.1384Z" fill="#131144"/>
<path id="Vector_36" d="M23.5195 51.6178L23.5764 50.7646L19.3673 50.5087L19.9361 46.3423L19.0972 46.2285L18.4004 51.305L23.5195 51.6178Z" fill="#131144"/>
<path id="Vector_37" d="M97.6453 22.1869L57.6427 23.9824L57.7065 25.403L97.7091 23.6074L97.6453 22.1869Z" fill="#131144"/>
<path id="Vector_38" d="M60.6616 28.0702L61.2162 27.4161L58.0025 24.7001L60.9602 21.6998L60.3488 21.1025L56.7512 24.757L60.6616 28.0702Z" fill="#131144"/>
<path id="Vector_39" d="M57.6598 61.459L57.4019 62.8574L94.7949 69.7541L95.0528 68.3557L57.6598 61.459Z" fill="#131144"/>
<path id="Vector_40" d="M59.6804 66.0932L60.363 65.5955L57.8461 62.2112L61.401 59.9502L60.946 59.2393L56.6232 61.9837L59.6804 66.0932Z" fill="#131144"/>
<path id="Vector_41" d="M56.3511 31.9021L55.8411 33.2295L68.5306 38.1056L69.0406 36.7783L56.3511 31.9021Z" fill="#131144"/>
<path id="Vector_42" d="M57.4764 36.8437L58.2442 36.474L56.3957 32.6915L60.3061 31.1274L59.9791 30.3311L55.2296 32.2507L57.4764 36.8437Z" fill="#131144"/>
<path id="Vector_43" d="M88.9028 50.2463L87.8812 51.2354L98.9881 62.7088L100.01 61.7198L88.9028 50.2463Z" fill="#131144"/>
<path id="Vector_44" d="M87.8498 55.1865L88.703 55.1723L88.6177 50.9632L92.8125 51.1907L92.8552 50.3376L87.7503 50.0674L87.8498 55.1865Z" fill="#131144"/>
<path id="Vector_45" d="M95.9095 76.8668L85.8967 82.5596L86.5995 83.7957L96.6124 78.103L95.9095 76.8668Z" fill="#131144"/>
<path id="Vector_46" d="M90.4236 84.8072L90.6085 83.9825L86.5274 83.0155L87.7787 78.9913L86.9682 78.7354L85.4325 83.627L90.4236 84.8072Z" fill="#131144"/>
<path id="Vector_47" d="M149.871 32.3914L148.459 32.5596L149.391 40.3821L150.803 40.214L149.871 32.3914Z" fill="#131144"/>
<path id="Vector_48" d="M146.037 35.7063L146.72 36.204L149.194 32.8055L152.408 35.5357L152.962 34.8816L149.052 31.5684L146.037 35.7063Z" fill="#131144"/>
<path id="Vector_49" d="M217.179 44.853L209.462 48.1094L210.015 49.4195L217.732 46.1631L217.179 44.853Z" fill="#131144"/>
<path id="Vector_50" d="M213.709 50.8639L213.994 50.0676L210.04 48.6314L211.761 44.792L210.993 44.4365L208.889 49.1148L213.709 50.8639Z" fill="#131144"/>
<path id="Vector_51" d="M146.404 61.8874L140.993 69.833L142.169 70.6333L147.579 62.6876L146.404 61.8874Z" fill="#131144"/>
<path id="Vector_52" d="M146.066 69.8476L145.867 69.0228L141.771 69.9613L141.131 65.7949L140.292 65.9229L141.075 70.9994L146.066 69.8476Z" fill="#131144"/>
<path id="Vector_53" d="M200.403 21.046L198.771 39.3311L200.188 39.4575L201.82 21.1724L200.403 21.046Z" fill="#131144"/>
<path id="Vector_54" d="M203.201 36.8999L202.632 36.26L199.504 39.0755L196.916 35.748L196.247 36.2742L199.39 40.3268L203.201 36.8999Z" fill="#131144"/>
<path id="Vector_55" d="M203.874 62.3906L202.736 63.2441L212.023 75.6178L213.161 74.7642L203.874 62.3906Z" fill="#131144"/>
<path id="Vector_56" d="M202.22 67.1883L203.059 67.2737L203.499 63.093L207.637 63.8467L207.794 62.9935L202.746 62.0977L202.22 67.1883Z" fill="#131144"/>
<path id="Vector_57" d="M47.2166 38.8931L45.7946 38.9033L45.8542 47.2217L47.2761 47.2115L47.2166 38.8931Z" fill="#131144"/>
<path id="Vector_58" d="M43.0433 41.7493L43.6689 42.318L46.5129 39.2181L49.3995 42.2754L50.0252 41.6924L46.5129 37.9668L43.0433 41.7493Z" fill="#131144"/>
<path id="Vector_59" d="M108.468 32.7845L107.713 60.3037L109.135 60.3427L109.889 32.8235L108.468 32.7845Z" fill="#131144"/>
<path id="Vector_60" d="M105.61 35.5353L106.222 36.1326L109.165 33.1322L111.938 36.289L112.578 35.7202L109.194 31.8809L105.61 35.5353Z" fill="#131144"/>
<path id="Vector_61" d="M120.371 27.1604L119.532 28.3086L141.762 44.5483L142.6 43.4001L120.371 27.1604Z" fill="#131144"/>
<path id="Vector_62" d="M120.171 32.2082L121.01 32.0518L120.2 27.9138L124.38 27.4161L124.281 26.5771L119.19 27.1744L120.171 32.2082Z" fill="#131144"/>
<path id="Vector_63" d="M159.896 62.1316L158.649 62.8145L171.501 86.2883L172.748 85.6054L159.896 62.1316Z" fill="#131144"/>
<path id="Vector_64" d="M157.569 66.6199L158.394 66.8332L159.432 62.7522L163.428 64.0888L163.698 63.2783L158.835 61.6572L157.569 66.6199Z" fill="#131144"/>
<path id="Vector_65" d="M191.226 61.785L181.083 83.7275L182.374 84.3242L192.517 62.3817L191.226 61.785Z" fill="#131144"/>
<path id="Vector_66" d="M186.094 82.9436L185.781 82.1473L181.885 83.7399L180.577 79.7441L179.766 80.0143L181.359 84.8775L186.094 82.9436Z" fill="#131144"/>
<path id="Vector_67" d="M193.324 17.8184L162.641 44.2285L163.569 45.3062L194.252 18.8962L193.324 17.8184Z" fill="#131144"/>
<path id="Vector_68" d="M167.509 45.5456L167.538 44.6924L163.328 44.536L163.798 40.3554L162.959 40.2559L162.376 45.3465L167.509 45.5456Z" fill="#131144"/>
</g>
<defs>
<clipPath id="clip0_2862_3739">
<rect width="237.755" height="114" fill="white"/>
</clipPath>
</defs>
</svg>
