<svg width="145" height="39" viewBox="0 0 145 39" fill="none" xmlns="http://www.w3.org/2000/svg">
<g id="Layer_1" clip-path="url(#clip0_3950_1050)">
<g id="BtEZMQ">
<g id="Group">
<path id="Vector" d="M0.00257302 19.0418C0.00257302 13.7937 0.00514604 8.54688 0 3.29875C0 2.55692 0.0810502 1.84979 0.536475 1.22753C1.07424 0.492122 1.78954 0.0819918 2.6991 0.0189937C2.93453 0.00227993 3.16996 -0.00029142 3.40539 -0.00029142C11.1849 -0.00029142 18.9657 -0.00029142 26.7453 -0.00029142C27.2148 -0.00029142 27.6844 -0.0118625 28.1437 0.142419C29.3389 0.54612 30.1249 1.59652 30.1249 2.85262C30.1275 13.6909 30.1275 24.5278 30.1249 35.3661C30.1249 36.9847 28.9015 38.2177 27.2869 38.219C19.142 38.2241 10.9984 38.2241 2.85348 38.219C1.29037 38.219 0.0939153 37.0567 0.0205842 35.4895C-0.00771906 34.8904 0.00385953 34.2899 0.00385953 33.6908C0.00385953 28.8078 0.00385953 23.9235 0.00385953 19.0406L0.00257302 19.0418ZM12.8715 23.6818C13.0684 24.0174 13.0105 24.2591 13.0118 24.4892C13.0169 25.9459 13.0143 27.4039 13.0143 28.8605C13.0143 29.7014 13.2485 30.4741 13.776 31.1285C14.5916 32.1403 15.6311 32.661 16.8957 32.517C17.2161 32.2367 17.1273 31.9397 17.1286 31.6723C17.1325 26.509 17.1325 21.3445 17.1312 16.1812C17.1312 16.0102 17.135 15.8379 17.117 15.6682C17.0154 14.6847 16.2473 13.9223 15.2709 13.8284C14.2893 13.7346 13.4157 14.3324 13.1095 15.2812C13.0143 15.5769 13.0169 15.8714 13.0156 16.1696C13.0131 17.2162 13.0156 18.2627 13.0156 19.2694C12.3801 19.668 10.3345 19.6448 9.81221 19.2488C9.81221 17.7305 9.72602 16.1838 9.83151 14.65C10.0168 11.9513 12.281 9.85184 14.9261 9.7927C17.8799 9.72584 20.3282 12.0876 20.3436 15.0601C20.3629 18.5957 20.3436 22.1313 20.35 25.6656C20.3526 27.2676 21.3831 28.6741 22.9089 29.1408C23.3489 29.2758 23.8107 29.434 24.252 29.2385C24.5299 28.9904 24.4437 28.6947 24.4437 28.426C24.4476 23.948 24.4437 19.47 24.4514 14.992C24.4514 14.4301 24.3922 13.8773 24.2906 13.3334C23.3103 8.10717 18.1848 4.75285 12.9925 5.92667C8.74184 6.88707 5.70053 10.6785 5.70053 15.0177C5.70053 19.4738 5.70053 23.9313 5.7031 28.3874C5.7031 28.6394 5.64006 28.903 5.78158 29.1241C5.98999 29.3761 6.25759 29.3272 6.50974 29.3002C8.05227 29.1357 9.30533 28.0274 9.69128 26.5258C9.86496 25.8469 9.76461 25.1617 9.80064 24.4802C9.8135 24.2308 9.72859 23.9608 9.98589 23.678C10.9173 23.5957 11.9054 23.5931 12.8715 23.6831V23.6818Z" fill="#03AE9D"/>
<path id="Vector_2" d="M54.7571 21.4373C54.2759 21.679 51.9486 21.6958 51.4211 21.4695C51.2989 21.2522 51.3568 21.0105 51.3555 20.7804C51.3504 18.8943 51.3517 17.0095 51.3542 15.1234C51.3542 14.7364 51.3272 14.3558 51.241 13.9766C51.0146 12.975 50.3688 12.3875 49.3897 12.3103C48.1779 12.2152 47.3326 12.6819 46.9479 13.6577C46.7807 14.082 46.7189 14.5217 46.7202 14.9768C46.7254 16.9053 46.7241 18.8338 46.7202 20.7624C46.7202 20.9938 46.7768 21.2342 46.6533 21.4515C46.1825 21.6816 43.8513 21.6919 43.293 21.4515V4.00102C43.401 3.82617 43.5799 3.76445 43.7818 3.7696C44.7339 3.79659 45.6936 3.70145 46.6881 3.83259V11.0054C46.9492 10.9231 47.011 10.7251 47.1203 10.5837C48.6834 8.55231 52.0412 8.66287 53.6005 10.4422C54.3673 11.3165 54.7609 12.372 54.7867 13.4983C54.8471 16.0889 54.8111 18.6821 54.8111 21.2741C54.8111 21.3139 54.7854 21.3538 54.7571 21.4386V21.4373Z" fill="#2C3056"/>
<path id="Vector_3" d="M133.23 3.87504C133.913 3.68219 136.068 3.72848 136.571 3.97532V14.0074C136.62 14.0319 136.668 14.0576 136.717 14.082C137.418 13.3338 138.053 12.5251 138.723 11.7485C139.394 10.9733 140.052 10.189 140.691 9.43816H144.324C144.484 9.81615 144.196 9.98328 144.026 10.1787C142.861 11.5184 141.684 12.8491 140.512 14.1836C140.414 14.2942 140.323 14.4099 140.191 14.5654C140.845 15.4705 141.491 16.3692 142.14 17.2653C143.006 18.461 143.877 19.6528 144.739 20.8498C144.87 21.0324 145.069 21.1969 144.977 21.5646C143.858 21.6804 142.718 21.5942 141.523 21.6109C140.393 20.0874 139.263 18.5613 138.107 17.0018C137.545 17.4993 137.108 18.0728 136.628 18.6114C136.512 19.5847 136.706 20.5721 136.509 21.5724H133.288C132.982 21.3949 133.071 21.0684 133.071 20.7804C133.067 16.134 133.068 11.4888 133.068 6.84238C133.068 6.07226 133.067 5.30086 133.068 4.53074C133.068 4.31989 133.027 4.09875 133.228 3.87504H133.23Z" fill="#2D3156"/>
<path id="Vector_4" d="M113.93 10.9244C114.106 10.4153 113.872 9.89971 114.154 9.43687H117.082C117.276 9.90228 117.352 20.3252 117.167 21.5312C116.215 21.7189 115.224 21.5724 114.261 21.6148C113.795 21.1712 114.151 20.5991 113.939 20.1478C113.832 20.1183 113.786 20.2031 113.736 20.2661C112.201 22.1972 109.355 22.228 107.627 21.4155C105.559 20.4435 104.546 18.7079 104.258 16.5248C104.079 15.1748 104.213 13.8352 104.765 12.5636C106.256 9.13216 109.984 8.41218 112.414 9.63743C113.015 9.93956 113.457 10.423 113.93 10.9244ZM113.772 15.5387C113.855 14.0717 113.029 12.9133 111.962 12.4916C110.55 11.9349 108.937 12.3888 108.13 13.5832C107.279 14.8444 107.422 16.7485 108.448 17.8092C109.324 18.7156 110.728 18.9984 111.951 18.515C113.1 18.0612 113.768 16.9696 113.77 15.5374L113.772 15.5387Z" fill="#2C3056"/>
<path id="Vector_5" d="M66.357 10.9809C66.4844 10.4165 66.285 9.90481 66.5796 9.44068H69.4935C69.6711 9.90224 69.7393 20.4075 69.5849 21.4347C69.1938 21.652 67.8069 21.715 66.6388 21.5685C66.3596 21.4039 66.4342 21.1198 66.4149 20.8742C66.3956 20.6261 66.4111 20.3766 66.4111 20.1182C66.3261 20.1349 66.2708 20.1285 66.2541 20.1504C64.3655 22.6767 60.0042 22.4106 57.9986 19.8354C56.0932 17.3874 56.1421 13.3838 58.1465 11.0131C59.6504 9.23369 62.136 8.69242 64.215 9.36868C65.0821 9.65024 65.7395 10.2082 66.3583 10.9809H66.357ZM63.1703 12.2537C61.3409 12.2409 60.0017 13.605 59.9965 15.4846C59.9914 17.3746 61.3113 18.7554 63.1305 18.767C64.9033 18.7773 66.2142 17.4016 66.2219 15.5219C66.2297 13.623 64.9637 12.2666 63.1703 12.2537Z" fill="#2C3056"/>
<path id="Vector_6" d="M80.507 9.42651H83.8365C84.0565 9.72993 83.8712 9.97935 83.7721 10.2275C81.9196 14.8893 80.0644 19.5499 78.2093 24.2092C77.9417 24.8816 77.6676 25.5502 77.4116 26.1827C76.7993 26.4347 74.4977 26.418 73.9599 26.1364C74.5672 24.654 75.177 23.1614 75.8099 21.6186C75.1937 20.0706 74.562 18.4867 73.9316 16.9027C73.0401 14.6618 72.1472 12.4221 71.257 10.1812C71.1656 9.95236 70.9829 9.72993 71.1991 9.4368H74.3935C74.6366 9.55637 74.6842 9.82122 74.7717 10.0591C75.5899 12.282 76.4069 14.5062 77.2251 16.7291C77.3139 16.9683 77.4129 17.2036 77.539 17.5186C78.545 14.7775 79.5241 12.1071 80.5083 9.4278L80.507 9.42651Z" fill="#2D3156"/>
<path id="Vector_7" d="M130.697 11.7806C130.082 12.3077 129.599 13.0354 128.896 13.4443C128.485 13.4276 128.314 13.146 128.084 12.9673C127.079 12.1869 125.584 12.066 124.456 12.6896C123.374 13.2874 122.744 14.5654 122.906 15.8369C123.081 17.2152 123.948 18.2617 125.245 18.5908C126.319 18.8634 127.322 18.7143 128.193 17.9647C128.368 17.8143 128.516 17.615 128.903 17.5443C129.62 18.0226 130.225 18.7387 130.874 19.4368C130.382 20.2738 129.724 20.8266 128.951 21.1969C126.598 22.3244 124.277 22.1959 122.149 20.6865C120.078 19.217 119.304 17.0827 119.612 14.6155C119.976 11.7035 121.824 9.7364 124.661 9.21313C126.871 8.80557 128.869 9.2967 130.458 11.0041C130.636 11.1956 130.816 11.3808 130.696 11.7793L130.697 11.7806Z" fill="#2D3156"/>
<path id="Vector_8" d="M85.8198 17.7346C86.2264 17.6794 86.4168 17.9198 86.6381 18.0715C87.28 18.5125 87.9477 18.8802 88.7312 18.9985C89.0567 19.0473 89.3693 19.0229 89.6845 18.9367C90.0949 18.8249 90.3689 18.5806 90.4346 18.1538C90.4989 17.7282 90.3059 17.4017 89.9624 17.1702C89.606 16.9298 89.2034 16.7768 88.8097 16.6122C88.1407 16.3307 87.4473 16.1083 86.8105 15.7496C85.632 15.0887 84.9412 14.118 84.963 12.7449C84.9849 11.3127 85.6822 10.261 86.9507 9.60661C88.9885 8.55364 91.8137 9.13219 93.2803 10.8859C93.3498 10.9681 93.4141 11.0543 93.4334 11.2716C93.0912 11.8887 92.556 12.4492 92.0324 12.9905C91.6323 12.9339 91.4277 12.6601 91.1692 12.4827C90.5941 12.0867 89.9933 11.7833 89.2651 11.8321C88.8187 11.8617 88.4803 12.0545 88.317 12.4788C88.1639 12.8748 88.3324 13.2836 88.7467 13.5922C89.0426 13.8133 89.3938 13.9188 89.7283 14.0589C90.5954 14.4202 91.5075 14.6786 92.2974 15.2083C93.8104 16.224 94.3185 18.0123 93.5672 19.6734C93.2456 20.3831 92.713 20.8871 92.0427 21.2677C90.1927 22.3155 86.8246 22.2075 84.9321 20.1311C84.5565 19.7184 84.5166 19.523 84.8369 19.064C85.1637 18.5973 85.4661 18.1049 85.8211 17.7385L85.8198 17.7346Z" fill="#2D3156"/>
<path id="Vector_9" d="M95.1211 11.9992V9.50247C95.7399 9.2929 96.3471 9.48704 96.9955 9.35719V6.24328C98.1547 6.10057 99.2508 6.179 100.434 6.19314C100.536 7.27053 100.436 8.31322 100.499 9.38933H102.665C102.88 10.2854 102.831 11.143 102.708 12.0172C101.941 12.1535 101.255 12.0327 100.577 12.1034C100.418 12.2384 100.483 12.4222 100.483 12.5842C100.478 14.2762 100.477 15.9694 100.481 17.6614C100.483 18.7542 100.814 19.0589 101.92 19.028C102.151 19.0216 102.387 18.9136 102.695 19.109C102.876 19.8547 102.829 20.6608 102.722 21.4207C101.362 22.2499 99.0141 22.0198 97.9476 20.9925C97.258 20.3291 97.0045 19.4857 97.0045 18.551C97.0045 16.6225 97.0071 14.6953 97.002 12.7668C97.002 12.5585 97.0586 12.3412 96.9364 12.1227C96.3626 12.0057 95.7541 12.1792 95.1237 11.9992H95.1211Z" fill="#2D3156"/>
<path id="Vector_10" d="M45.2296 35.2841C45.137 35.4744 45.2219 35.6775 45.083 35.7727C44.8952 35.9411 44.1503 35.9347 43.6279 35.7868C43.4851 35.3497 43.4453 28.0278 43.5945 27.2229C44.1078 27.0584 44.6456 27.1419 45.2541 27.1663V30.3625C45.8935 30.0025 46.43 29.7094 47.1092 29.7017C48.5476 29.685 49.6321 30.7045 49.9087 32.1265C50.0142 32.6652 50.009 33.2386 49.8752 33.785C49.3503 35.9359 46.9729 36.7768 45.2296 35.2841ZM45.2914 32.8709C45.2811 33.8891 45.9038 34.415 46.7683 34.4548C47.593 34.4934 48.2684 33.7503 48.2684 32.8683C48.2684 31.9619 47.5647 31.2175 46.7014 31.2857C45.8961 31.3486 45.2824 31.8398 45.2927 32.8709H45.2914Z" fill="#A1A1C1"/>
<path id="Vector_11" d="M64.4095 30.3766V27.1946C65.0051 27.1149 65.5236 27.0917 66.0948 27.2139V35.7726C65.6497 35.9899 65.1814 35.86 64.7646 35.8755C64.5111 35.7328 64.5304 35.4885 64.4378 35.3034C63.1037 36.2496 61.9574 36.2856 60.8021 35.4011C60.2347 34.9665 59.9311 34.3494 59.7883 33.6718C59.4423 32.0274 60.1537 30.2442 61.8622 29.7968C62.6958 29.5795 63.4536 29.712 64.4082 30.3766H64.4095ZM64.4558 32.876C64.4635 32.0352 63.7444 31.2792 62.9364 31.2753C62.1233 31.2715 61.4068 32.0133 61.4016 32.8619C61.3965 33.7065 62.1028 34.4497 62.9223 34.4612C63.7315 34.4715 64.4494 33.7297 64.4558 32.876Z" fill="#A1A1C1"/>
<path id="Vector_12" d="M81.1328 29.9421C81.6526 29.802 82.1131 29.8482 82.5184 29.883C82.7847 30.0244 82.7036 30.2545 82.777 30.4242C82.8194 30.4152 82.8722 30.4217 82.8966 30.3972C83.7599 29.5564 84.7826 29.5294 85.8106 29.9382C86.8578 30.3535 87.3505 31.2561 87.4882 32.3335C87.5602 32.9017 87.5396 33.4841 87.3595 34.046C86.7484 35.9436 84.717 36.5029 83.3392 35.6698C83.2131 35.5939 83.0883 35.5155 82.8709 35.3818V38.1036C82.2559 38.2656 81.722 38.2167 81.1328 38.1576V29.9434V29.9421ZM82.858 32.8066C82.8452 33.803 83.4344 34.505 84.3053 34.4535C85.3101 34.3931 85.7887 33.7824 85.8299 32.9056C85.8672 32.0956 85.3011 31.3011 84.3041 31.2933C83.6068 31.2882 82.7937 31.7536 82.858 32.8066Z" fill="#A1A1C1"/>
<path id="Vector_13" d="M79.4641 33.5806H75.8477C75.984 34.2182 76.3456 34.5384 77.0609 34.6001C77.5472 34.6425 78.0476 34.6849 78.5043 34.4278C78.66 34.3391 78.826 34.3147 79.0254 34.3571C79.284 34.5011 79.428 34.7531 79.5258 35.0398C79.4615 35.3535 79.2248 35.5026 78.9816 35.6402C77.6694 36.3782 75.3524 36.2008 74.3939 34.4085C73.6851 33.0843 73.9012 31.5029 75.005 30.4692C76.0317 29.5088 77.8675 29.4741 78.8736 30.2301C79.7381 30.8806 80.0507 31.769 80.0263 32.8053C80.0185 33.1203 79.8667 33.3787 79.4641 33.5806ZM78.3396 32.2537C78.3152 31.6006 77.8829 31.1892 77.1972 31.1365C76.4987 31.0838 75.9236 31.5376 75.8219 32.2537H78.3396Z" fill="#A1A1C1"/>
<path id="Vector_14" d="M69.0166 33.5793C69.5093 34.6657 70.0458 34.7852 72.166 34.343C72.714 34.7364 72.7179 34.7415 72.6639 35.3085C71.3516 36.5878 68.035 36.2998 67.384 33.8133C66.908 31.9979 67.6786 30.2777 69.4707 29.8187C71.7131 29.244 73.3804 30.7881 73.2299 32.75C73.1836 33.3543 73.0164 33.551 72.4066 33.5561C71.3992 33.5651 70.3919 33.5587 69.3845 33.56C69.279 33.56 69.1736 33.5703 69.0179 33.5793H69.0166ZM68.9819 32.2628H71.6321C71.4597 31.5106 71.0995 31.1738 70.4523 31.1365C69.7422 31.0966 69.2302 31.4669 68.9832 32.2628H68.9819Z" fill="#A1A1C1"/>
<path id="Vector_15" d="M95.3565 33.5586C95.6614 34.2876 96.1361 34.5615 96.7897 34.6168C97.402 34.6695 97.9694 34.5023 98.5059 34.3159C99.0899 34.7389 99.0925 34.7427 99.0372 35.3084C97.7237 36.5838 94.3787 36.3048 93.7689 33.8132C93.3084 31.9335 93.9735 30.2789 95.92 29.8006C97.6298 29.3802 99.0694 30.1593 99.5364 31.8037C99.5544 31.8654 99.5814 31.9258 99.584 31.9888C99.6547 33.3799 99.629 33.6178 98.2589 33.5664C97.3197 33.5304 96.378 33.5599 95.3578 33.5599L95.3565 33.5586ZM95.3835 32.246H98.0208C97.7854 31.4707 97.366 31.1197 96.7279 31.1339C95.9972 31.1493 95.543 31.5157 95.3835 32.246Z" fill="#A1A1C1"/>
<path id="Vector_16" d="M50.3527 29.8803H51.7923C52.0805 30.005 52.1512 30.2814 52.2464 30.5412C52.5912 31.481 52.936 32.4208 53.2769 33.3619C53.3129 33.4622 53.3297 33.5689 53.4738 33.6473C54.0334 32.4234 54.3319 31.0953 54.9378 29.8919C55.5103 29.8353 56.0365 29.825 56.6579 29.9035C55.5888 32.7191 54.485 35.4666 53.3734 38.1652C52.7559 38.2141 52.2696 38.2346 51.7949 38.1626C51.6559 37.8554 51.8309 37.6355 51.9467 37.4195C52.4703 36.4514 52.6092 35.5386 52.0457 34.4727C51.4321 33.3105 51.0397 32.0325 50.556 30.8021C50.4492 30.5309 50.2755 30.2712 50.3501 29.8803H50.3527Z" fill="#A1A1C1"/>
<path id="Vector_17" d="M88.2695 34.9472C88.3287 34.5268 88.5834 34.2131 88.9269 33.9366C89.6165 34.2066 90.2032 34.942 91.0201 34.3738C91.1809 34.0305 91.0947 33.8042 90.7859 33.6641C90.3588 33.4699 89.9368 33.2604 89.5007 33.092C88.7134 32.7872 88.3158 31.9966 88.4201 31.3139C88.541 30.5167 89.1546 29.8675 89.9896 29.7466C90.9416 29.6078 91.8203 29.7839 92.506 30.5579C92.5935 31.0953 92.2384 31.3627 91.8525 31.661C91.3752 31.4 90.9648 30.9256 90.2585 31.1943C90.2032 31.2277 90.1272 31.3499 90.0925 31.5029C90.1324 31.8654 90.4219 31.9747 90.6959 32.0943C91.0085 32.2318 91.3314 32.345 91.6389 32.4928C92.497 32.9017 92.9601 33.5638 92.8624 34.2619C92.7234 35.2506 92.1252 35.7829 91.2748 35.9654C90.2855 36.1776 88.9025 35.932 88.2695 34.9472Z" fill="#A1A1C1"/>
<path id="Vector_18" d="M101.081 31.3075C100.85 31.1661 100.555 31.3383 100.298 31.1018C100.155 30.7585 100.249 30.3664 100.251 30.0385C100.523 29.7595 100.811 29.9112 101.079 29.8058C101.275 29.37 101.023 28.8531 101.242 28.3671C101.764 28.2399 102.283 28.2784 102.796 28.335C103.055 28.8133 102.836 29.3018 102.969 29.7621C103.231 29.9794 103.603 29.7287 103.914 29.9832C104.057 30.3355 103.967 30.7264 103.962 31.0581C103.643 31.3769 103.271 31.1365 102.961 31.3358V34.253C103.136 34.7132 103.577 34.532 103.928 34.6438C104.035 35.0128 103.977 35.3921 103.962 35.8189C103.286 36.1378 102.592 36.1339 101.947 35.8009C101.377 35.5065 101.129 34.9639 101.143 34.3031C101.161 33.5111 101.152 32.7192 101.143 31.9272C101.142 31.7189 101.198 31.5003 101.079 31.3075H101.081Z" fill="#A1A1C1"/>
<path id="Vector_19" d="M12.8738 23.6821C11.909 23.5921 10.9196 23.5947 9.98819 23.677C9.7296 23.9598 9.8158 24.2298 9.80294 24.4792C9.76691 25.1606 9.86726 25.8459 9.69358 26.5247C9.30891 28.0264 8.05585 29.1346 6.51204 29.2992C6.25989 29.3262 5.99229 29.3751 5.78388 29.1231C5.64236 28.9019 5.7054 28.6384 5.7054 28.3864C5.70154 23.9302 5.70283 19.4728 5.70283 15.0166C5.70283 10.6775 8.74414 6.88604 12.9948 5.92564C18.1884 4.75182 23.3126 8.10615 24.2929 13.3324C24.3945 13.8763 24.455 14.4304 24.4537 14.9909C24.4447 19.4689 24.4499 23.9469 24.446 28.425C24.446 28.6937 24.5322 28.9894 24.2543 29.2375C23.8143 29.4316 23.3512 29.2735 22.9112 29.1398C21.3854 28.6731 20.3549 27.2666 20.3523 25.6646C20.3459 22.129 20.3652 18.5934 20.3459 15.0591C20.3292 12.0866 17.8822 9.72481 14.9284 9.79167C12.2833 9.85081 10.0204 11.9516 9.83381 14.6489C9.72832 16.1828 9.81451 17.7294 9.81451 19.2478C10.3368 19.6425 12.3824 19.6669 13.0179 19.2684C13.0179 18.2617 13.0166 17.2152 13.0179 16.1686C13.0179 15.8703 13.0166 15.5759 13.1118 15.2802C13.4193 14.3301 14.2916 13.7323 15.2732 13.8274C16.2496 13.9213 17.019 14.6837 17.1193 15.6672C17.1373 15.8369 17.1335 16.0092 17.1335 16.1802C17.1335 21.3435 17.1348 26.508 17.1309 31.6713C17.1309 31.9387 17.2184 32.2357 16.898 32.516C15.6334 32.6587 14.5939 32.138 13.7783 31.1274C13.2508 30.473 13.0166 29.7003 13.0166 28.8595C13.0166 27.4028 13.0192 25.9449 13.0141 24.4882C13.0141 24.2568 13.0707 24.0164 12.8738 23.6808V23.6821Z" fill="#FCFDFD"/>
</g>
</g>
</g>
<defs>
<clipPath id="clip0_3950_1050">
<rect width="145" height="38.2244" fill="white"/>
</clipPath>
</defs>
</svg>
