<svg width="1485" height="442" viewBox="0 0 1485 442" fill="none" xmlns="http://www.w3.org/2000/svg">
<mask id="mask0_5085_701" style="mask-type:alpha" maskUnits="userSpaceOnUse" x="0" y="0" width="1485" height="442">
<path d="M0 0.0078125H1485V441.188H0V0.0078125Z" fill="#D9D9D9"/>
</mask>
<g mask="url(#mask0_5085_701)">
<g opacity="0.5">
<path d="M1363.91 95.2589C1380.2 109.302 1377.43 113.711 1386.84 119.558C1411.98 135.189 1435.96 106.27 1473.31 116.748C1474.67 117.126 1505.27 126.166 1516.73 151.825C1525.93 172.41 1513.14 182.038 1521.73 203.189C1532.45 229.564 1556.89 225.777 1564.36 248.96C1570.13 266.863 1557.88 276.358 1550.4 312.251C1545.93 333.679 1546.34 349.2 1547.02 374.826C1547.46 391.256 1550.03 446.546 1576.12 512.752C1594.31 558.912 1613.33 560.017 1626.47 605.145C1633.55 629.477 1640.64 655.264 1626.85 678.108C1615.07 697.61 1590.81 710.442 1568.15 709.454C1537.56 708.116 1534.07 682.651 1502.23 678.941C1480.18 676.37 1462.23 686.304 1427.99 705.256C1401.16 720.11 1388.26 731.571 1377.07 739.117C1317.86 779.014 1233.8 758.047 1199.89 749.59C1127.33 731.493 1082.92 692.052 1051.18 663.86C1013.66 630.543 981.532 602.013 975.591 557.974C971.466 527.367 984.213 520.642 976.829 486.42C967.313 442.314 942.018 434.407 943.645 400.469C945.022 371.755 964.493 349 970.122 342.414C993.019 315.65 1014.62 316.205 1018.71 296.548C1021.79 281.761 1012.36 268.04 1000.4 250.648C982.204 224.173 968.002 218.936 957.88 206.387C928.161 169.561 941.174 79.2613 999.382 33.2675C1033.82 6.05322 1086.26 -7.3679 1125.49 9.52371C1143.05 17.0866 1157.7 30.6132 1184.87 55.6841C1219.58 87.7182 1218.87 96.2307 1233.45 99.5346C1268.4 107.453 1288.7 62.1865 1325.85 71.9927C1341.8 76.2017 1357.4 89.6561 1363.91 95.2645L1363.91 95.2589Z" fill="#2B9BE2" fill-opacity="0.2"/>
</g>
<path opacity="0.8" d="M1847.03 414.148C1842.78 440.746 1836.27 440.702 1836.23 454.572C1836.12 491.654 1882.7 498.19 1896.11 544.883C1896.59 546.577 1907.1 585.141 1887.31 614.238C1871.43 637.582 1852.75 630.285 1835.87 653.352C1814.81 682.121 1834.93 705.681 1815.14 728.897C1799.86 746.822 1781.69 740.025 1738.52 755.651C1712.75 764.98 1696.48 775.635 1669.63 793.227C1652.42 804.504 1595.2 843.613 1541.82 914.972C1504.6 964.725 1515.94 985.725 1476.49 1029.4C1455.22 1052.96 1432.41 1077.47 1399 1077.8C1370.47 1078.09 1340.84 1060.67 1326.99 1035.87C1308.29 1002.39 1333.12 981.911 1316.13 945.54C1304.36 920.347 1281.98 907.753 1239.26 883.726C1205.78 864.897 1185.08 858.694 1169.68 851.725C1088.22 814.871 1055.27 711.484 1041.97 669.782C1013.52 580.543 1026.32 507.269 1035.48 454.883C1046.3 392.975 1055.56 339.974 1098.58 304.669C1128.48 280.137 1144.03 289.305 1175.63 258.92C1216.36 219.761 1208.15 187.605 1245.38 167.01C1276.88 149.591 1313.93 155.365 1324.66 157.037C1368.23 163.833 1381.85 187.216 1405.49 178.648C1423.27 172.202 1431.68 153.122 1442.35 128.94C1458.58 92.1247 1454.82 73.5449 1461.53 54.4988C1481.22 -1.40118 1585.99 -46.9397 1673.28 -15.1554C1724.93 3.64635 1773.73 50.7174 1781.54 103.63C1785.03 127.313 1780.26 151.834 1771.41 197.284C1760.12 255.349 1750.58 260.197 1756.65 277.905C1771.2 320.361 1832.8 312.221 1846.78 358.265C1852.79 378.033 1848.72 403.515 1847.03 414.143L1847.03 414.148Z" fill="url(#paint0_linear_5085_701)"/>
<path d="M1599.59 262.376L1599.58 261.732C1600.75 261.705 1601.94 261.649 1603.11 261.566L1603.15 262.21C1601.97 262.299 1600.77 262.354 1599.59 262.382L1599.59 262.376ZM1593.89 262.265C1592.7 262.193 1591.5 262.088 1590.33 261.949L1590.4 261.31C1591.56 261.444 1592.75 261.549 1593.92 261.621L1593.88 262.265H1593.89ZM1608.83 261.555L1608.73 260.916C1609.9 260.733 1611.06 260.516 1612.21 260.277L1612.34 260.91C1611.19 261.155 1610 261.371 1608.83 261.56V261.555ZM1584.69 261.038C1583.51 260.794 1582.34 260.511 1581.21 260.2L1581.38 259.578C1582.5 259.883 1583.66 260.161 1584.82 260.405L1584.69 261.038ZM1617.87 259.478L1617.68 258.862C1618.23 258.695 1618.78 258.517 1619.32 258.334C1619.89 258.14 1620.46 257.934 1621.03 257.723L1621.26 258.328C1620.69 258.539 1620.11 258.745 1619.53 258.945C1618.99 259.128 1618.43 259.306 1617.88 259.478H1617.87ZM1575.78 258.412C1574.66 257.973 1573.55 257.496 1572.49 256.996L1572.77 256.413C1573.82 256.907 1574.91 257.379 1576.01 257.812L1575.78 258.412ZM1626.5 256.085L1626.23 255.502C1627.28 254.997 1628.33 254.447 1629.36 253.881L1629.67 254.447C1628.63 255.025 1627.57 255.574 1626.51 256.085H1626.5ZM1567.49 254.225C1566.48 253.575 1565.49 252.881 1564.55 252.165L1564.95 251.654C1565.87 252.359 1566.84 253.042 1567.83 253.681L1567.48 254.225H1567.49ZM1634.54 251.465L1634.18 250.932C1635.15 250.282 1636.11 249.594 1637.06 248.889L1637.45 249.405C1636.5 250.116 1635.52 250.815 1634.54 251.471V251.465ZM1560.29 248.344C1559.48 247.5 1558.7 246.623 1557.93 245.657L1558.43 245.252C1559.19 246.201 1559.95 247.062 1560.75 247.895L1560.29 248.339L1560.29 248.344ZM1641.87 245.796L1641.44 245.313C1642.32 244.535 1643.19 243.73 1644.03 242.908L1644.48 243.369C1643.63 244.197 1642.75 245.013 1641.87 245.796H1641.87ZM1554.58 241.031C1553.97 240.093 1553.35 239.105 1552.69 238.011L1553.25 237.678C1553.89 238.76 1554.51 239.743 1555.13 240.676L1554.59 241.031H1554.58ZM1648.42 239.238L1647.93 238.81C1648.71 237.933 1649.48 237.017 1650.21 236.101L1650.72 236.506C1649.98 237.433 1649.2 238.349 1648.42 239.238H1648.42ZM1549.85 233.074C1549.3 232.08 1548.74 231.036 1548.15 229.954L1548.71 229.648C1549.3 230.731 1549.86 231.769 1550.41 232.763L1549.85 233.074H1549.85ZM1654.11 231.914L1653.58 231.547C1654.25 230.576 1654.9 229.576 1655.51 228.577L1656.06 228.915C1655.44 229.92 1654.79 230.925 1654.11 231.908V231.914ZM1545.48 224.934C1544.95 223.923 1544.4 222.874 1543.83 221.791L1544.4 221.491C1544.97 222.574 1545.52 223.623 1546.06 224.634L1545.48 224.934ZM1658.86 223.94L1658.28 223.646C1658.82 222.591 1659.33 221.519 1659.8 220.453L1660.39 220.714C1659.92 221.791 1659.4 222.874 1658.86 223.934V223.94ZM1541.24 216.727C1540.68 215.594 1540.16 214.528 1539.69 213.523L1540.27 213.245C1540.74 214.245 1541.25 215.311 1541.81 216.438L1541.24 216.727ZM1662.48 215.4L1661.87 215.194C1662.25 214.067 1662.6 212.929 1662.9 211.813L1663.52 211.979C1663.22 213.106 1662.87 214.256 1662.48 215.4ZM1537.36 208.337C1536.83 207.126 1536.38 206.043 1535.98 205.06L1536.58 204.816C1536.98 205.793 1537.43 206.876 1537.95 208.087L1537.36 208.342V208.337ZM1664.71 206.388L1664.07 206.293C1664.25 205.105 1664.38 203.928 1664.45 202.789L1665.1 202.828C1665.02 203.983 1664.89 205.183 1664.71 206.388ZM1533.75 199.874C1533.14 198.658 1532.54 197.775 1531.84 197.014L1532.31 196.576C1533.06 197.381 1533.68 198.308 1534.32 199.585L1533.75 199.874ZM1664.36 197.164C1664.24 195.971 1664.05 194.804 1663.79 193.699L1664.42 193.555C1664.68 194.682 1664.88 195.876 1665.01 197.098L1664.36 197.164ZM1497.03 196.193C1496.9 196.193 1496.78 196.193 1496.65 196.193L1496.66 195.549C1497.78 195.565 1498.92 195.504 1500.17 195.365L1500.24 196.004C1499.1 196.132 1498.05 196.193 1497.03 196.193ZM1490.97 195.315C1489.83 194.96 1488.71 194.482 1487.65 193.905L1487.96 193.338C1488.99 193.899 1490.06 194.355 1491.16 194.699L1490.97 195.315ZM1505.88 195.01L1505.74 194.382C1506.71 194.166 1507.67 193.938 1508.65 193.71L1509.2 193.583L1509.35 194.21L1508.8 194.338C1507.82 194.566 1506.85 194.799 1505.88 195.015L1505.88 195.01ZM1527.26 193.938C1526.21 193.477 1525.09 193.127 1523.94 192.894L1524.07 192.261C1525.26 192.5 1526.42 192.867 1527.52 193.344L1527.26 193.933V193.938ZM1514.88 193.028L1514.77 192.394C1516.06 192.172 1517.22 192.028 1518.32 191.956L1518.37 192.6C1517.29 192.678 1516.15 192.817 1514.88 193.033L1514.88 193.028ZM1483.01 190.49C1482.19 189.718 1481.35 188.846 1480.53 187.902L1481.01 187.48C1481.82 188.408 1482.64 189.263 1483.46 190.018L1483.02 190.49H1483.01ZM1661.89 188.43C1661.34 187.308 1660.73 186.231 1660.21 185.326L1660.77 185.004C1661.3 185.92 1661.91 187.003 1662.47 188.147L1661.89 188.43H1661.89ZM1477.03 183.371C1476.39 182.433 1475.73 181.428 1475.09 180.373L1475.64 180.034C1476.28 181.078 1476.93 182.072 1477.57 183.005L1477.03 183.371ZM1657.37 180.395C1656.78 179.301 1656.25 178.263 1655.75 177.219L1656.33 176.941C1656.82 177.974 1657.35 179.001 1657.94 180.09L1657.37 180.4V180.395ZM1473.13 177.052C1472.5 175.947 1471.94 174.881 1471.47 173.887L1472.05 173.609C1472.52 174.587 1473.07 175.636 1473.69 176.73L1473.13 177.047V177.052ZM1653.54 171.949C1653.15 170.861 1652.76 169.722 1652.41 168.567L1653.03 168.379C1653.38 169.528 1653.75 170.655 1654.15 171.727L1653.54 171.949ZM1469.47 168.523L1469.35 168.079C1469.07 167.046 1468.82 166.152 1468.36 165.23L1468.94 164.941C1469.43 165.919 1469.68 166.841 1469.97 167.907L1470.09 168.351L1469.47 168.523ZM1650.9 163.07C1650.55 161.71 1650.28 160.61 1650.05 159.611L1650.68 159.466C1650.9 160.455 1651.18 161.549 1651.53 162.909L1650.91 163.07H1650.9ZM1464.85 161.01C1463.95 160.294 1462.98 159.711 1461.89 159.228L1462.15 158.639C1463.3 159.144 1464.31 159.755 1465.25 160.51L1464.85 161.016L1464.85 161.01ZM1456.51 157.784C1455.51 157.64 1454.39 157.523 1453 157.423L1453.05 156.779C1454.46 156.884 1455.59 157.001 1456.6 157.145L1456.51 157.784ZM1447.32 157.04C1446 156.934 1444.84 156.807 1443.77 156.662L1443.85 156.024C1444.91 156.174 1446.06 156.296 1447.37 156.401L1447.32 157.045V157.04ZM1438.17 155.457C1437.01 155.107 1435.88 154.685 1434.8 154.213L1435.07 153.625C1436.11 154.091 1437.23 154.502 1438.35 154.841L1438.16 155.457H1438.17ZM1649.02 153.986C1648.91 152.936 1648.85 151.981 1648.85 151.059C1648.85 150.837 1648.85 150.61 1648.86 150.393L1649.5 150.415C1649.49 150.632 1649.49 150.843 1649.49 151.065C1649.49 151.959 1649.54 152.892 1649.66 153.919L1649.02 153.991V153.986ZM1429.82 151.376C1429.7 151.287 1428.59 150.482 1427.06 149.072L1427.5 148.6C1429 149.982 1430.09 150.771 1430.2 150.854L1429.82 151.376ZM1650.67 145.012L1650.08 144.752C1650.3 144.257 1650.56 143.763 1650.84 143.297C1651.2 142.708 1651.6 142.164 1652.02 141.681L1652.51 142.103C1652.11 142.558 1651.74 143.075 1651.4 143.63C1651.13 144.074 1650.88 144.54 1650.67 145.012H1650.67ZM1423.13 144.89C1422.36 143.946 1421.65 142.975 1421.01 141.997L1421.55 141.642C1422.17 142.597 1422.88 143.552 1423.63 144.485L1423.13 144.89ZM1657.04 139.071L1656.81 138.471C1657.75 138.11 1658.81 137.788 1660.24 137.427L1660.39 138.055C1658.99 138.41 1657.95 138.721 1657.03 139.076L1657.04 139.071ZM1418.31 136.933C1417.84 135.806 1417.46 134.656 1417.17 133.524L1417.79 133.363C1418.08 134.468 1418.45 135.589 1418.9 136.689L1418.31 136.933ZM1665.93 136.733L1665.77 136.106C1667 135.795 1668.12 135.478 1669.17 135.145L1669.36 135.761C1668.29 136.095 1667.17 136.417 1665.92 136.733H1665.93ZM1674.71 133.735L1674.44 133.146C1675.5 132.669 1676.56 132.141 1677.6 131.58L1677.9 132.147C1676.85 132.719 1675.78 133.252 1674.7 133.735H1674.71ZM1682.81 129.209L1682.46 128.671C1683.45 128.015 1684.42 127.332 1685.35 126.633L1685.74 127.149C1684.81 127.854 1683.82 128.548 1682.82 129.209H1682.81ZM1417.1 127.821H1416.46C1416.47 126.566 1416.59 125.394 1416.85 124.228L1417.48 124.367C1417.23 125.483 1417.11 126.616 1417.1 127.821ZM1690.11 123.462L1689.67 122.996C1690.54 122.174 1691.37 121.324 1692.13 120.475L1692.61 120.908C1691.83 121.774 1690.99 122.635 1690.11 123.468L1690.11 123.462ZM1419.48 119.148L1418.9 118.859L1419.31 118.048C1419.7 117.282 1420.1 116.493 1420.46 115.683L1421.05 115.949C1420.68 116.771 1420.27 117.571 1419.89 118.342L1419.48 119.148ZM1696.14 116.388L1695.6 116.032C1696.25 115.044 1696.86 114.022 1697.39 113.006L1697.96 113.306C1697.42 114.344 1696.81 115.383 1696.14 116.393V116.388ZM1422.68 110.435L1422.05 110.352C1422.15 109.558 1422.2 108.73 1422.2 107.886C1422.2 107.581 1422.2 107.265 1422.18 106.942V106.87L1422.82 106.843V106.915C1422.83 107.248 1422.84 107.57 1422.84 107.886C1422.84 108.758 1422.78 109.619 1422.68 110.441L1422.68 110.435ZM1700.14 107.992L1699.52 107.809C1699.86 106.67 1700.11 105.521 1700.27 104.388L1700.91 104.477C1700.75 105.638 1700.49 106.82 1700.14 107.992ZM1421.15 101.401C1420.77 100.324 1420.29 99.2907 1419.69 98.2357L1420.25 97.9136C1420.87 99.0019 1421.37 100.074 1421.76 101.19L1421.15 101.401ZM1700.38 98.791C1700.28 97.7248 1700.12 96.5865 1699.89 95.3038L1700.52 95.1872C1700.76 96.4866 1700.92 97.6471 1701.02 98.7299L1700.38 98.7854V98.791ZM1416.45 93.6324L1416.17 93.277C1415.53 92.4719 1414.88 91.639 1414.27 90.8061L1414.8 90.4284C1415.39 91.2558 1416.01 92.0443 1416.68 92.8772L1416.95 93.2326L1416.45 93.6324ZM1698.72 89.7566C1698.5 88.7515 1698.24 87.5576 1698 86.2694L1698.64 86.1528C1698.87 87.4355 1699.13 88.6238 1699.35 89.6233L1698.72 89.7621V89.7566ZM1411.58 85.7197C1411.22 84.5702 1411.01 83.4041 1410.95 82.1547L1411.6 82.127C1411.65 83.3153 1411.85 84.4314 1412.19 85.5253L1411.58 85.7197H1411.58ZM1697.2 80.6111C1697.09 79.4228 1697.02 78.2178 1697 77.0406L1697.64 77.024C1697.66 78.1845 1697.74 79.3729 1697.84 80.55L1697.2 80.6111ZM1412.41 76.6797L1411.81 76.4521C1412.2 75.4137 1412.76 74.3698 1413.5 73.2648L1414.03 73.6257C1413.32 74.6918 1412.79 75.6913 1412.41 76.6853V76.6797ZM1697.82 71.3824L1697.18 71.3268C1697.25 70.505 1697.34 69.6609 1697.45 68.828C1697.5 68.4671 1697.55 68.1173 1697.6 67.7786L1698.24 67.873C1698.19 68.2117 1698.14 68.5615 1698.09 68.9113C1697.99 69.7331 1697.89 70.5661 1697.82 71.3824ZM1417.53 69.189L1417.03 68.7725L1417.27 68.4949C1417.91 67.7341 1418.59 66.929 1419.31 66.0516L1419.81 66.4626C1419.09 67.3399 1418.4 68.1506 1417.76 68.9113L1417.53 69.189ZM1699.4 62.3591L1698.77 62.1869C1699.11 61.0097 1699.47 59.8992 1699.91 58.7941L1700.51 59.0274C1700.08 60.1102 1699.72 61.2041 1699.39 62.3591H1699.4ZM1423.3 61.9537L1422.78 61.5761C1423.47 60.6266 1424.14 59.6493 1424.79 58.6664L1425.33 59.0218C1424.68 60.0102 1423.99 60.9931 1423.3 61.9537ZM1428.33 54.1687L1427.76 53.8466C1428.36 52.8138 1428.92 51.7643 1429.45 50.737L1430.02 51.0313C1429.49 52.0697 1428.92 53.1248 1428.33 54.1631V54.1687ZM1702.95 53.9577L1702.39 53.6411C1702.74 53.0192 1703.09 52.414 1703.44 51.8088C1703.68 51.3923 1703.92 50.9814 1704.15 50.5594L1704.71 50.8759C1704.48 51.2979 1704.24 51.7143 1704 52.1252C1703.65 52.7305 1703.3 53.3358 1702.95 53.9521V53.9577ZM1432.43 45.8672L1431.84 45.6174C1432.28 44.5679 1432.72 43.4962 1433.16 42.3301L1433.76 42.5578C1433.31 43.7239 1432.88 44.8066 1432.43 45.8617L1432.43 45.8672ZM1707.28 45.7729L1706.69 45.5229C1707.14 44.4402 1707.53 43.3629 1707.89 42.2191L1708.5 42.4078C1708.14 43.5684 1707.74 44.6679 1707.28 45.7729ZM1435.68 37.1993L1435.07 36.9939C1435.44 35.9166 1435.81 34.795 1436.2 33.6289L1436.81 33.8288C1436.43 35.0004 1436.05 36.1165 1435.68 37.1993ZM1709.81 36.8495L1709.18 36.7384C1709.38 35.5835 1709.53 34.4062 1709.64 33.2402L1710.28 33.3012C1710.17 34.484 1710.02 35.6778 1709.81 36.8495ZM1438.56 28.4204L1437.95 28.226C1438.3 27.1099 1438.64 25.966 1438.97 24.8277L1439.59 25.0054C1439.26 26.1493 1438.91 27.2987 1438.56 28.4204ZM1709.82 27.6041C1709.78 26.4435 1709.71 25.2608 1709.58 24.0836L1710.23 24.017C1710.35 25.2053 1710.43 26.4047 1710.47 27.5819L1709.82 27.5985L1709.82 27.6041ZM1441.07 19.5025L1440.44 19.347C1440.71 18.2587 1440.99 17.1093 1441.27 15.8988L1441.89 16.0432C1441.62 17.2592 1441.34 18.4142 1441.06 19.5081L1441.07 19.5025ZM1708.7 18.5086C1708.46 17.3869 1708.18 16.2264 1707.87 15.0714L1708.49 14.8992C1708.81 16.0653 1709.09 17.237 1709.33 18.3697L1708.7 18.5031V18.5086ZM1443.08 10.4681L1442.45 10.346C1442.67 9.21876 1442.89 8.05824 1443.1 6.85884L1443.73 6.96987C1443.52 8.17482 1443.3 9.3409 1443.08 10.4681H1443.08ZM1706.16 9.67967C1705.78 8.60798 1705.36 7.49185 1704.9 6.37019L1705.5 6.13142C1705.96 7.25864 1706.39 8.38031 1706.77 9.4631L1706.16 9.67967ZM1444.65 1.34488L1444.01 1.25049C1444.18 0.106614 1444.34 -1.06504 1444.49 -2.26444L1445.13 -2.18114C1444.98 -0.976178 1444.81 0.195449 1444.65 1.34488ZM1702.66 1.16722C1702.18 0.134398 1701.67 -0.942856 1701.13 -2.03676L1701.71 -2.31996C1702.24 -1.22605 1702.76 -0.143271 1703.24 0.895103L1702.66 1.16722H1702.66ZM1698.56 -7.09535C1698.02 -8.13372 1697.46 -9.17766 1696.9 -10.2327L1697.47 -10.5381C1698.04 -9.48306 1698.59 -8.43915 1699.14 -7.39522L1698.56 -7.09535ZM1445.77 -7.83944L1445.13 -7.90051C1445.24 -9.06105 1445.34 -10.2382 1445.44 -11.4376L1446.09 -11.3877C1445.99 -10.1883 1445.89 -9.00553 1445.77 -7.83944ZM1694.19 -15.2247L1692.48 -18.3398L1693.04 -18.6507L1694.75 -15.5356L1694.19 -15.2247ZM1446.45 -17.0682L1445.81 -17.1015C1445.87 -18.2676 1445.91 -19.4503 1445.95 -20.6442L1446.6 -20.622C1446.56 -19.4226 1446.51 -18.2343 1446.45 -17.0626V-17.0682ZM1689.72 -23.3095C1689.16 -24.3201 1688.58 -25.353 1687.98 -26.3969L1688.54 -26.719C1689.14 -25.6695 1689.72 -24.6367 1690.29 -23.626L1689.73 -23.3095H1689.72ZM1446.7 -26.3191H1446.06V-26.8467C1446.06 -27.8462 1446.05 -28.8512 1446.04 -29.8674L1446.68 -29.8785C1446.7 -28.8568 1446.7 -27.8462 1446.7 -26.8467V-26.3191ZM1685.09 -31.2945C1684.49 -32.294 1683.87 -33.299 1683.23 -34.3152L1683.78 -34.6595C1684.42 -33.6377 1685.04 -32.6327 1685.65 -31.6276L1685.1 -31.2945H1685.09ZM1445.85 -35.5368C1445.78 -36.7362 1445.69 -37.9189 1445.57 -39.0628L1446.21 -39.1294C1446.33 -37.98 1446.42 -36.7862 1446.5 -35.5757L1445.85 -35.5368H1445.85ZM1680.14 -39.0684C1679.47 -40.0568 1678.79 -41.0396 1678.12 -41.9892L1678.65 -42.3612C1679.32 -41.4061 1680 -40.4233 1680.67 -39.4293L1680.14 -39.0684ZM1444.78 -44.6545C1444.57 -45.815 1444.34 -46.9478 1444.06 -48.1139L1444.69 -48.2583C1444.96 -47.0811 1445.2 -45.9372 1445.41 -44.7656L1444.78 -44.6489V-44.6545ZM1674.76 -46.5591C1674.05 -47.4975 1673.31 -48.436 1672.57 -49.3466L1673.08 -49.752C1673.82 -48.8302 1674.56 -47.8918 1675.28 -46.9478L1674.77 -46.5535L1674.76 -46.5591ZM1442.59 -53.5778C1442.33 -54.4274 1442.08 -55.2659 1441.82 -56.0877L1441.55 -56.9706L1442.17 -57.1594L1442.44 -56.2765C1442.69 -55.4491 1442.95 -54.6107 1443.2 -53.7611L1442.59 -53.5778ZM1668.93 -53.6945C1668.16 -54.5829 1667.36 -55.4714 1666.57 -56.332L1667.04 -56.7707C1667.84 -55.9045 1668.64 -55.0105 1669.42 -54.122L1668.93 -53.7L1668.93 -53.6945ZM1662.64 -60.4189C1661.8 -61.2518 1660.95 -62.0792 1660.09 -62.8843L1660.54 -63.3508C1661.4 -62.54 1662.25 -61.7071 1663.09 -60.8687L1662.64 -60.4133V-60.4189ZM1440 -62.4456C1439.7 -63.6506 1439.45 -64.7889 1439.24 -65.9328L1439.87 -66.0494C1440.08 -64.9222 1440.32 -63.795 1440.62 -62.6011L1440 -62.4456ZM1655.89 -66.688C1655 -67.4543 1654.09 -68.2206 1653.18 -68.9702L1653.59 -69.47C1654.5 -68.7203 1655.42 -67.9485 1656.31 -67.1766L1655.89 -66.688H1655.89ZM1438.52 -71.5967C1438.44 -72.7517 1438.39 -73.9511 1438.37 -75.1616H1439.02C1439.04 -73.9677 1439.09 -72.785 1439.16 -71.6411L1438.52 -71.5967H1438.52ZM1648.71 -72.4629C1647.77 -73.1681 1646.81 -73.8678 1645.85 -74.5508L1646.22 -75.0783C1647.19 -74.3953 1648.15 -73.6901 1649.1 -72.9793L1648.71 -72.4629H1648.71ZM1641.16 -77.7436C1640.24 -78.3489 1639.25 -79.0041 1638.19 -79.6927L1638.54 -80.2313C1639.6 -79.5427 1640.59 -78.8875 1641.51 -78.2767L1641.16 -77.7381V-77.7436ZM1439.17 -80.8254L1438.53 -80.8643C1438.6 -82.0415 1438.67 -83.2298 1438.76 -84.4181L1439.4 -84.3737C1439.31 -83.1909 1439.24 -82.0082 1439.17 -80.831V-80.8254ZM1633.38 -82.73C1632.41 -83.3297 1631.4 -83.9405 1630.34 -84.5625L1630.67 -85.1177C1631.72 -84.4958 1632.74 -83.8795 1633.72 -83.2798L1633.38 -82.73H1633.38ZM1625.41 -87.3722C1624.37 -87.9441 1623.31 -88.5049 1622.28 -89.038L1622.57 -89.61C1623.61 -89.0713 1624.67 -88.5105 1625.72 -87.933L1625.4 -87.3666L1625.41 -87.3722ZM1516.04 -89.8154C1515.62 -89.8154 1515.22 -89.821 1514.81 -89.8321L1514.83 -90.4762C1515.95 -90.4429 1517.11 -90.4595 1518.36 -90.5151L1518.38 -89.8709C1517.57 -89.8321 1516.78 -89.8154 1516.04 -89.8154H1516.04ZM1439.96 -90.0153L1439.32 -90.0986C1439.48 -91.3591 1439.66 -92.5141 1439.86 -93.6302L1440.5 -93.5136C1440.29 -92.4086 1440.11 -91.2647 1439.96 -90.0153ZM1524.08 -90.3596L1524 -90.9982C1525.1 -91.1259 1526.25 -91.2758 1527.52 -91.459L1527.61 -90.8205C1526.33 -90.6372 1525.17 -90.4873 1524.08 -90.3596H1524.08ZM1509.12 -90.4762C1507.93 -90.7261 1506.8 -91.0481 1505.66 -91.4535L1505.88 -92.0587C1506.99 -91.6645 1508.09 -91.3535 1509.26 -91.1037L1509.12 -90.4706V-90.4762ZM1617.2 -91.559C1616.12 -92.0643 1615.03 -92.5585 1613.97 -93.0194L1614.22 -93.608C1615.29 -93.1416 1616.38 -92.6473 1617.47 -92.1365L1617.2 -91.5534V-91.559ZM1533.24 -91.6811L1533.14 -92.3197C1534.26 -92.503 1535.43 -92.6918 1536.64 -92.8917L1536.74 -92.2531C1535.53 -92.0532 1534.37 -91.8644 1533.24 -91.6811ZM1542.35 -93.2193L1542.23 -93.8523C1543.41 -94.0744 1544.57 -94.3076 1545.71 -94.5519L1545.84 -93.9189C1544.71 -93.6746 1543.53 -93.4414 1542.35 -93.2193H1542.35ZM1500.5 -93.9578C1499.47 -94.6019 1498.5 -95.3182 1497.61 -96.0956L1498.04 -96.5843C1498.9 -95.8347 1499.85 -95.135 1500.85 -94.5075L1500.5 -93.9633V-93.9578ZM1608.72 -95.1628C1607.6 -95.5848 1606.48 -95.9901 1605.38 -96.3677L1605.6 -96.9785C1606.7 -96.6009 1607.83 -96.19 1608.95 -95.768L1608.72 -95.1628H1608.72ZM1551.39 -95.2183L1551.22 -95.8402C1552.36 -96.1289 1553.47 -96.4288 1554.64 -96.762L1554.82 -96.1401C1553.64 -95.8069 1552.51 -95.507 1551.38 -95.2183H1551.39ZM1560.28 -97.7559L1560.09 -98.3723C1561.3 -98.7387 1562.43 -99.083 1563.5 -99.3884L1563.68 -98.7665C1562.61 -98.4611 1561.48 -98.1168 1560.28 -97.7504V-97.7559ZM1599.97 -98.0558C1598.82 -98.3778 1597.67 -98.6777 1596.54 -98.9442L1596.69 -99.5717C1597.83 -99.2996 1598.99 -98.9997 1600.15 -98.6777L1599.98 -98.0558H1599.97ZM1441.86 -98.9831L1441.25 -99.183C1441.63 -100.355 1442.07 -101.476 1442.54 -102.531L1443.13 -102.265C1442.67 -101.238 1442.24 -100.133 1441.87 -98.9831H1441.86ZM1590.99 -100.066C1589.82 -100.26 1588.64 -100.427 1587.48 -100.56L1587.56 -101.199C1588.72 -101.06 1589.91 -100.893 1591.09 -100.699L1590.99 -100.06V-100.066ZM1569.17 -100.077L1569.06 -100.71C1570.22 -100.927 1571.41 -101.104 1572.59 -101.249L1572.67 -100.61C1571.49 -100.471 1570.32 -100.294 1569.17 -100.083V-100.077ZM1493.76 -100.344C1492.98 -101.41 1492.3 -102.492 1491.78 -103.32L1492.33 -103.659C1492.85 -102.842 1493.52 -101.771 1494.29 -100.721L1493.77 -100.344H1493.76ZM1581.84 -100.982C1580.67 -101.021 1579.49 -101.027 1578.31 -100.999L1578.29 -101.643C1579.48 -101.671 1580.68 -101.665 1581.87 -101.626L1581.84 -100.982ZM1445.96 -107.09L1445.45 -107.479C1446.16 -108.44 1446.96 -109.35 1447.81 -110.189L1448.26 -109.728C1447.44 -108.911 1446.66 -108.023 1445.96 -107.09ZM1488.74 -108.101C1488.01 -109.145 1487.29 -110.033 1486.54 -110.827L1487.02 -111.266C1487.78 -110.45 1488.52 -109.533 1489.27 -108.467L1488.74 -108.095V-108.101ZM1452.67 -113.187L1452.33 -113.737C1453.33 -114.359 1454.39 -114.931 1455.49 -115.43L1455.76 -114.842C1454.68 -114.348 1453.64 -113.792 1452.67 -113.187ZM1482.19 -114.287C1481.33 -114.786 1480.39 -115.247 1479.4 -115.647C1479.28 -115.697 1479.16 -115.741 1479.04 -115.791L1479.28 -116.391C1479.4 -116.341 1479.52 -116.297 1479.64 -116.247C1480.66 -115.83 1481.63 -115.364 1482.52 -114.847L1482.2 -114.292L1482.19 -114.287ZM1461.06 -116.691L1460.9 -117.318C1462.06 -117.607 1463.24 -117.835 1464.43 -117.996L1464.52 -117.357C1463.36 -117.202 1462.2 -116.98 1461.07 -116.697L1461.06 -116.691ZM1473.62 -117.252C1472.49 -117.441 1471.31 -117.557 1470.13 -117.613L1470.16 -118.257C1471.36 -118.201 1472.56 -118.079 1473.73 -117.89L1473.62 -117.252Z" fill="#262262"/>
<path d="M1102.87 752.931L1102.85 752.286C1104.02 752.259 1105.21 752.203 1106.38 752.12L1106.43 752.764C1105.24 752.853 1104.04 752.908 1102.86 752.936L1102.87 752.931ZM1097.16 752.82C1095.97 752.747 1094.77 752.642 1093.6 752.503L1093.67 751.864C1094.83 751.998 1096.02 752.103 1097.19 752.175L1097.15 752.82H1097.16ZM1112.11 752.109L1112.01 751.47C1113.17 751.287 1114.34 751.07 1115.48 750.832L1115.61 751.465C1114.46 751.709 1113.28 751.926 1112.11 752.114V752.109ZM1087.96 751.592C1086.79 751.348 1085.62 751.065 1084.48 750.754L1084.66 750.132C1085.78 750.437 1086.93 750.715 1088.09 750.959L1087.96 751.592ZM1121.14 750.032L1120.96 749.416C1121.51 749.249 1122.05 749.071 1122.59 748.888C1123.16 748.694 1123.73 748.488 1124.3 748.277L1124.53 748.883C1123.95 749.094 1123.38 749.299 1122.8 749.499C1122.25 749.682 1121.7 749.86 1121.14 750.032ZM1079.05 748.966C1077.93 748.527 1076.83 748.05 1075.77 747.55L1076.05 746.967C1077.09 747.461 1078.18 747.933 1079.29 748.366L1079.05 748.966ZM1129.78 746.639L1129.5 746.056C1130.55 745.551 1131.6 745.001 1132.64 744.435L1132.95 745.001C1131.9 745.579 1130.84 746.128 1129.78 746.639H1129.78ZM1070.76 744.779C1069.75 744.129 1068.76 743.435 1067.83 742.719L1068.23 742.208C1069.14 742.913 1070.12 743.596 1071.11 744.235L1070.76 744.779ZM1137.81 742.019L1137.45 741.486C1138.42 740.837 1139.39 740.148 1140.33 739.443L1140.72 739.959C1139.77 740.67 1138.79 741.364 1137.81 742.025V742.019ZM1063.56 738.899C1062.75 738.055 1061.98 737.177 1061.2 736.211L1061.7 735.806C1062.47 736.755 1063.23 737.616 1064.03 738.449L1063.56 738.893L1063.56 738.899ZM1145.15 736.35L1144.72 735.867C1145.6 735.089 1146.47 734.284 1147.31 733.462L1147.76 733.923C1146.91 734.751 1146.03 735.567 1145.14 736.35H1145.15ZM1057.86 731.586C1057.24 730.647 1056.62 729.659 1055.96 728.565L1056.52 728.232C1057.17 729.315 1057.79 730.297 1058.4 731.23L1057.86 731.586H1057.86ZM1151.69 729.792L1151.21 729.365C1151.99 728.487 1152.75 727.571 1153.48 726.655L1153.99 727.06C1153.25 727.987 1152.47 728.904 1151.7 729.792H1151.69ZM1053.13 723.628C1052.58 722.634 1052.01 721.591 1051.42 720.508L1051.99 720.202C1052.57 721.285 1053.14 722.324 1053.69 723.317L1053.12 723.628H1053.13ZM1157.39 722.468L1156.86 722.101C1157.52 721.13 1158.17 720.13 1158.78 719.131L1159.33 719.469C1158.71 720.474 1158.06 721.479 1157.39 722.462V722.468ZM1048.76 715.488C1048.22 714.477 1047.68 713.428 1047.1 712.345L1047.68 712.045C1048.25 713.128 1048.8 714.178 1049.33 715.188L1048.76 715.488ZM1162.13 714.494L1161.56 714.2C1162.1 713.145 1162.61 712.073 1163.08 711.007L1163.67 711.268C1163.19 712.345 1162.67 713.428 1162.13 714.489V714.494ZM1044.51 707.281C1043.95 706.148 1043.43 705.082 1042.96 704.077L1043.54 703.799C1044.02 704.799 1044.53 705.865 1045.09 706.992L1044.51 707.281ZM1165.75 705.954L1165.14 705.748C1165.53 704.621 1165.88 703.483 1166.18 702.367L1166.8 702.533C1166.49 703.661 1166.14 704.81 1165.75 705.954ZM1040.63 698.891C1040.11 697.68 1039.66 696.597 1039.26 695.615L1039.85 695.37C1040.26 696.348 1040.7 697.43 1041.22 698.641L1040.63 698.896V698.891ZM1167.99 696.942L1167.35 696.847C1167.53 695.665 1167.65 694.487 1167.73 693.343L1168.37 693.382C1168.3 694.543 1168.16 695.742 1167.99 696.942ZM1037.02 690.428C1036.41 689.212 1035.82 688.329 1035.11 687.569L1035.58 687.13C1036.33 687.935 1036.95 688.862 1037.6 690.14L1037.02 690.428ZM1167.64 687.719C1167.51 686.525 1167.32 685.359 1167.07 684.254L1167.69 684.109C1167.96 685.242 1168.15 686.436 1168.28 687.652L1167.64 687.719ZM1000.3 686.752C1000.18 686.752 1000.06 686.752 999.928 686.752L999.939 686.108C1001.05 686.125 1002.19 686.064 1003.44 685.925L1003.51 686.563C1002.38 686.691 1001.32 686.752 1000.3 686.752ZM994.243 685.875C993.104 685.52 991.983 685.042 990.922 684.465L991.233 683.898C992.26 684.459 993.338 684.914 994.437 685.259L994.243 685.875ZM1009.15 685.57L1009.01 684.942C1009.98 684.726 1010.95 684.498 1011.92 684.27L1012.47 684.142L1012.62 684.77L1012.07 684.898C1011.1 685.125 1010.13 685.359 1009.16 685.575L1009.15 685.57ZM1030.54 684.498C1029.48 684.037 1028.37 683.687 1027.22 683.454L1027.34 682.821C1028.54 683.06 1029.7 683.426 1030.79 683.904L1030.54 684.492V684.498ZM1018.15 683.587L1018.04 682.954C1019.34 682.732 1020.5 682.588 1021.6 682.516L1021.64 683.16C1020.56 683.232 1019.42 683.376 1018.15 683.593L1018.15 683.587ZM986.287 681.05C985.459 680.278 984.621 679.406 983.799 678.462L984.288 678.04C985.098 678.967 985.92 679.822 986.731 680.578L986.292 681.05H986.287ZM1165.16 678.989C1164.61 677.868 1164.01 676.791 1163.48 675.885L1164.04 675.563C1164.57 676.48 1165.19 677.562 1165.74 678.706L1165.17 678.989H1165.16ZM980.307 673.931C979.663 672.992 979.008 671.987 978.364 670.932L978.914 670.594C979.552 671.638 980.202 672.632 980.84 673.564L980.307 673.931ZM1160.65 670.955C1160.05 669.861 1159.52 668.822 1159.02 667.778L1159.6 667.501C1160.09 668.534 1160.62 669.561 1161.21 670.649L1160.65 670.96V670.955ZM976.41 667.612C975.777 666.507 975.221 665.441 974.75 664.447L975.332 664.169C975.799 665.146 976.348 666.196 976.97 667.29L976.41 667.606V667.612ZM1156.82 662.509C1156.43 661.42 1156.04 660.282 1155.69 659.127L1156.31 658.938C1156.66 660.088 1157.03 661.215 1157.43 662.287L1156.82 662.509ZM972.751 659.083L972.629 658.638C972.345 657.606 972.096 656.712 971.64 655.79L972.218 655.501C972.706 656.478 972.956 657.4 973.25 658.466L973.373 658.911L972.751 659.083ZM1154.18 653.63C1153.83 652.269 1153.56 651.17 1153.33 650.17L1153.96 650.026C1154.18 651.014 1154.46 652.108 1154.81 653.469L1154.19 653.63H1154.18ZM968.132 651.57C967.232 650.853 966.266 650.27 965.178 649.787L965.439 649.199C966.583 649.704 967.593 650.315 968.537 651.07L968.137 651.575L968.132 651.57ZM959.792 648.344C958.793 648.199 957.677 648.083 956.284 647.983L956.334 647.338C957.744 647.444 958.876 647.561 959.887 647.705L959.792 648.344ZM950.604 647.6C949.282 647.494 948.122 647.366 947.051 647.222L947.139 646.583C948.194 646.733 949.344 646.855 950.654 646.961L950.604 647.605V647.6ZM941.454 646.017C940.299 645.667 939.167 645.245 938.09 644.773L938.351 644.185C939.4 644.651 940.51 645.062 941.637 645.401L941.449 646.017H941.454ZM1152.31 644.545C1152.19 643.496 1152.13 642.541 1152.13 641.619C1152.13 641.397 1152.13 641.169 1152.14 640.953L1152.79 640.975C1152.78 641.192 1152.77 641.408 1152.77 641.625C1152.77 642.519 1152.83 643.452 1152.95 644.473L1152.31 644.545ZM933.11 641.936C932.987 641.847 931.871 641.042 930.345 639.631L930.783 639.159C932.288 640.547 933.37 641.33 933.487 641.414L933.115 641.941L933.11 641.936ZM1153.95 635.572L1153.36 635.311C1153.58 634.811 1153.84 634.323 1154.13 633.856C1154.49 633.268 1154.88 632.724 1155.31 632.24L1155.79 632.662C1155.39 633.118 1155.02 633.634 1154.68 634.19C1154.41 634.634 1154.17 635.1 1153.96 635.572H1153.95ZM926.414 635.45C925.648 634.506 924.931 633.534 924.293 632.557L924.831 632.202C925.459 633.157 926.164 634.112 926.913 635.039L926.414 635.444V635.45ZM1160.33 629.631L1160.09 629.031C1161.04 628.67 1162.09 628.348 1163.52 627.987L1163.68 628.614C1162.27 628.97 1161.24 629.281 1160.32 629.636L1160.33 629.631ZM921.595 627.493C921.128 626.366 920.745 625.216 920.456 624.083L921.078 623.922C921.361 625.027 921.733 626.149 922.189 627.249L921.595 627.493ZM1169.21 627.293L1169.05 626.665C1170.29 626.354 1171.4 626.038 1172.45 625.705L1172.64 626.321C1171.58 626.654 1170.46 626.976 1169.21 627.293H1169.21ZM1177.99 624.294L1177.73 623.706C1178.79 623.228 1179.85 622.701 1180.88 622.14L1181.19 622.706C1180.14 623.278 1179.06 623.811 1177.99 624.294H1177.99ZM1186.1 619.769L1185.74 619.23C1186.74 618.575 1187.71 617.892 1188.63 617.192L1189.02 617.709C1188.09 618.414 1187.1 619.108 1186.1 619.769H1186.1ZM920.384 618.381H919.74C919.751 617.126 919.879 615.954 920.14 614.788L920.767 614.927C920.518 616.048 920.395 617.176 920.384 618.381ZM1193.4 614.022L1192.95 613.555C1193.82 612.733 1194.65 611.884 1195.42 611.034L1195.9 611.467C1195.11 612.334 1194.28 613.194 1193.39 614.027L1193.4 614.022ZM922.766 609.707L922.189 609.418L922.594 608.613C922.983 607.847 923.382 607.058 923.749 606.248L924.337 606.514C923.965 607.336 923.56 608.136 923.171 608.908L922.766 609.713V609.707ZM1199.42 606.942L1198.88 606.586C1199.54 605.598 1200.14 604.576 1200.68 603.56L1201.25 603.86C1200.7 604.898 1200.09 605.937 1199.42 606.947V606.942ZM925.97 600.989L925.331 600.906C925.437 600.112 925.487 599.285 925.487 598.441C925.487 598.135 925.481 597.819 925.464 597.497V597.424L926.103 597.397V597.469C926.12 597.802 926.125 598.124 926.125 598.441C926.125 599.312 926.07 600.173 925.964 600.995L925.97 600.989ZM1203.43 598.546L1202.81 598.363C1203.15 597.225 1203.4 596.075 1203.56 594.942L1204.2 595.031C1204.04 596.197 1203.77 597.38 1203.43 598.546ZM924.432 591.955C924.054 590.878 923.577 589.845 922.977 588.79L923.538 588.468C924.16 589.556 924.654 590.628 925.042 591.744L924.432 591.955ZM1203.66 589.345C1203.57 588.279 1203.41 587.141 1203.18 585.858L1203.81 585.741C1204.05 587.041 1204.21 588.201 1204.31 589.284L1203.66 589.34V589.345ZM919.735 584.187L919.457 583.831C918.819 583.026 918.164 582.193 917.558 581.36L918.08 580.983C918.674 581.81 919.296 582.598 919.962 583.431L920.24 583.787L919.735 584.187ZM1202 580.311C1201.79 579.306 1201.53 578.106 1201.29 576.823L1201.92 576.707C1202.16 577.984 1202.41 579.178 1202.63 580.177L1202 580.316V580.311ZM914.866 576.274C914.505 575.124 914.299 573.958 914.238 572.709L914.882 572.681C914.938 573.869 915.132 574.986 915.476 576.079L914.86 576.274H914.866ZM1200.48 571.165C1200.38 569.977 1200.3 568.772 1200.28 567.595L1200.93 567.578C1200.95 568.739 1201.02 569.927 1201.13 571.104L1200.48 571.165ZM915.693 567.234L915.093 567.006C915.493 565.968 916.043 564.924 916.787 563.819L917.32 564.18C916.603 565.246 916.07 566.245 915.693 567.239V567.234ZM1201.11 561.936L1200.47 561.881C1200.54 561.059 1200.63 560.215 1200.74 559.382C1200.78 559.021 1200.83 558.671 1200.88 558.327L1201.52 558.422C1201.47 558.76 1201.42 559.11 1201.38 559.46C1201.27 560.282 1201.18 561.115 1201.11 561.931V561.936ZM920.812 559.743L920.318 559.327L920.551 559.049C921.195 558.288 921.878 557.483 922.594 556.606L923.094 557.017C922.372 557.894 921.689 558.705 921.045 559.465L920.812 559.743ZM1202.68 552.913L1202.06 552.741C1202.39 551.558 1202.76 550.453 1203.19 549.348L1203.79 549.581C1203.36 550.664 1203 551.753 1202.68 552.913H1202.68ZM926.586 552.508L926.064 552.13C926.752 551.181 927.43 550.203 928.079 549.221L928.618 549.576C927.963 550.564 927.28 551.547 926.586 552.508ZM931.611 544.723L931.05 544.401C931.638 543.368 932.21 542.324 932.738 541.291L933.309 541.585C932.776 542.624 932.205 543.679 931.611 544.717V544.723ZM1206.24 544.506L1205.68 544.19C1206.02 543.568 1206.37 542.963 1206.72 542.357C1206.96 541.941 1207.2 541.53 1207.44 541.108L1208 541.424C1207.76 541.846 1207.52 542.263 1207.28 542.674C1206.93 543.279 1206.58 543.884 1206.24 544.501V544.506ZM935.719 536.416L935.125 536.166C935.569 535.122 935.997 534.05 936.441 532.879L937.04 533.106C936.591 534.284 936.158 535.361 935.713 536.41L935.719 536.416ZM1210.57 536.321L1209.97 536.071C1210.43 534.989 1210.81 533.911 1211.17 532.768L1211.79 532.956C1211.43 534.117 1211.03 535.216 1210.57 536.321ZM938.967 527.748L938.356 527.542C938.723 526.465 939.095 525.344 939.483 524.177L940.094 524.377C939.711 525.549 939.333 526.665 938.967 527.748ZM1213.1 527.398L1212.47 527.287C1212.67 526.126 1212.82 524.949 1212.93 523.789L1213.57 523.85C1213.46 525.027 1213.31 526.221 1213.1 527.398ZM941.854 518.969L941.238 518.775C941.587 517.658 941.932 516.515 942.259 515.376L942.881 515.554C942.554 516.698 942.204 517.847 941.854 518.969ZM1213.11 518.153C1213.07 516.992 1213 515.809 1212.87 514.632L1213.52 514.566C1213.64 515.754 1213.72 516.953 1213.76 518.13L1213.11 518.147L1213.11 518.153ZM944.358 510.051L943.73 509.896C944.002 508.807 944.28 507.658 944.558 506.447L945.185 506.592C944.908 507.808 944.63 508.963 944.352 510.057L944.358 510.051ZM1211.99 509.057C1211.75 507.936 1211.48 506.775 1211.16 505.62L1211.78 505.448C1212.1 506.614 1212.38 507.786 1212.62 508.918L1211.99 509.052V509.057ZM946.373 501.017L945.74 500.895C945.962 499.767 946.179 498.607 946.39 497.407L947.023 497.518C946.812 498.723 946.59 499.889 946.368 501.017H946.373ZM1209.45 500.228C1209.07 499.157 1208.65 498.04 1208.19 496.919L1208.79 496.68C1209.25 497.807 1209.68 498.929 1210.06 500.012L1209.45 500.228ZM947.939 491.893L947.3 491.799C947.467 490.655 947.628 489.484 947.783 488.284L948.422 488.367C948.267 489.572 948.105 490.744 947.939 491.893ZM1205.95 491.716C1205.47 490.688 1204.96 489.611 1204.42 488.512L1205 488.229C1205.54 489.334 1206.06 490.416 1206.53 491.444L1205.95 491.716H1205.95ZM1201.85 483.453C1201.31 482.415 1200.75 481.371 1200.19 480.316L1200.76 480.01C1201.33 481.065 1201.88 482.109 1202.43 483.153L1201.85 483.453ZM949.06 482.709L948.416 482.648C948.527 481.487 948.633 480.31 948.733 479.111L949.377 479.161C949.283 480.36 949.177 481.543 949.06 482.709ZM1197.48 475.324L1195.78 472.225L1196.34 471.898L1196.05 472.053L1196.35 471.914L1198.05 475.013L1197.48 475.324ZM949.743 473.48L949.099 473.447C949.16 472.281 949.205 471.098 949.244 469.904L949.888 469.927C949.849 471.126 949.799 472.314 949.743 473.486V473.48ZM1193.02 467.239C1192.45 466.228 1191.87 465.196 1191.27 464.152L1191.83 463.83C1192.43 464.879 1193.01 465.912 1193.58 466.923L1193.02 467.239H1193.02ZM949.993 464.229H949.349V463.702C949.349 462.702 949.344 461.697 949.327 460.681L949.971 460.67C949.988 461.692 949.993 462.702 949.993 463.702V464.229ZM1188.38 459.254C1187.78 458.255 1187.16 457.25 1186.52 456.233L1187.07 455.889C1187.71 456.911 1188.33 457.916 1188.94 458.921L1188.39 459.254H1188.38ZM949.138 455.012C949.066 453.812 948.977 452.63 948.86 451.486L949.505 451.419C949.621 452.569 949.716 453.762 949.788 454.973L949.144 455.012H949.138ZM1183.43 451.48C1182.76 450.492 1182.08 449.509 1181.41 448.559L1181.94 448.187C1182.61 449.142 1183.29 450.125 1183.96 451.119L1183.43 451.48ZM948.072 445.894C947.861 444.734 947.628 443.601 947.35 442.435L947.978 442.285C948.255 443.462 948.494 444.606 948.705 445.777L948.072 445.894ZM1178.05 443.989C1177.34 443.051 1176.6 442.113 1175.87 441.202L1176.37 440.797C1177.11 441.718 1177.85 442.657 1178.57 443.601L1178.06 443.995L1178.05 443.989ZM945.879 436.971C945.624 436.121 945.368 435.283 945.113 434.461L944.841 433.578L945.457 433.389L945.729 434.272C945.985 435.099 946.24 435.938 946.495 436.787L945.879 436.971ZM1172.22 436.854C1171.45 435.971 1170.66 435.083 1169.86 434.217L1170.33 433.778C1171.13 434.65 1171.93 435.544 1172.71 436.427L1172.22 436.849L1172.22 436.854ZM1165.93 430.13C1165.09 429.297 1164.24 428.469 1163.38 427.664L1163.83 427.198C1164.69 428.008 1165.54 428.841 1166.38 429.68L1165.93 430.135V430.13ZM943.292 428.103C942.992 426.898 942.748 425.76 942.537 424.616L943.17 424.499C943.375 425.626 943.619 426.754 943.919 427.947L943.292 428.103ZM1159.18 423.861C1158.29 423.094 1157.38 422.328 1156.47 421.578L1156.88 421.079C1157.8 421.828 1158.71 422.6 1159.61 423.372L1159.19 423.861H1159.18ZM941.821 418.952C941.737 417.802 941.687 416.603 941.671 415.387H942.315C942.331 416.581 942.381 417.769 942.465 418.907L941.821 418.952ZM1152.01 418.086C1151.07 417.38 1150.1 416.681 1149.14 415.998L1149.52 415.47C1150.48 416.153 1151.45 416.858 1152.39 417.569L1152 418.086H1152.01ZM1144.45 412.805C1143.54 412.2 1142.54 411.544 1141.48 410.856L1141.83 410.317C1142.9 411.011 1143.89 411.661 1144.81 412.272L1144.45 412.81V412.805ZM942.47 409.723L941.826 409.684C941.898 408.507 941.971 407.319 942.054 406.13L942.698 406.175C942.609 407.358 942.537 408.54 942.47 409.718V409.723ZM1136.68 407.818C1135.7 407.219 1134.69 406.608 1133.64 405.986L1133.96 405.431C1135.02 406.053 1136.04 406.669 1137.01 407.269L1136.67 407.818H1136.68ZM1128.71 403.176C1127.66 402.604 1126.61 402.044 1125.58 401.511L1125.87 400.939C1126.91 401.477 1127.96 402.038 1129.01 402.616L1128.7 403.182L1128.71 403.176ZM1019.34 400.733C1018.92 400.733 1018.52 400.728 1018.11 400.716L1018.13 400.072C1019.24 400.106 1020.4 400.089 1021.65 400.033L1021.68 400.678C1020.86 400.716 1020.08 400.733 1019.33 400.733H1019.34ZM943.253 400.533L942.614 400.45C942.775 399.189 942.953 398.034 943.159 396.918L943.792 397.035C943.586 398.14 943.408 399.284 943.253 400.533ZM1027.38 400.189L1027.3 399.55C1028.39 399.423 1029.54 399.273 1030.81 399.09L1030.9 399.728C1029.63 399.911 1028.47 400.061 1027.37 400.189H1027.38ZM1012.42 400.072C1011.23 399.822 1010.09 399.5 1008.96 399.095L1009.18 398.49C1010.28 398.884 1011.39 399.195 1012.55 399.445L1012.42 400.078V400.072ZM1120.5 398.99C1119.42 398.484 1118.33 397.99 1117.26 397.529L1117.52 396.941C1118.59 397.407 1119.68 397.901 1120.77 398.412L1120.5 398.995V398.99ZM1036.53 398.867L1036.43 398.229C1037.56 398.046 1038.73 397.857 1039.94 397.657L1040.04 398.295C1038.83 398.495 1037.66 398.684 1036.53 398.867ZM1045.65 397.329L1045.53 396.696C1046.7 396.474 1047.87 396.241 1049 395.997L1049.14 396.63C1048 396.874 1046.83 397.107 1045.64 397.329H1045.65ZM1003.8 396.591C1002.77 395.947 1001.8 395.23 1000.91 394.453L1001.33 393.964C1002.2 394.714 1003.14 395.414 1004.14 396.041L1003.8 396.585V396.591ZM1112.01 395.386C1110.9 394.964 1109.77 394.558 1108.68 394.181L1108.89 393.57C1110 393.948 1111.12 394.359 1112.24 394.781L1112.02 395.386H1112.01ZM1054.68 395.33L1054.52 394.708C1055.65 394.42 1056.77 394.12 1057.94 393.787L1058.11 394.408C1056.94 394.742 1055.81 395.042 1054.68 395.33H1054.68ZM1063.58 392.793L1063.39 392.176C1064.6 391.81 1065.72 391.465 1066.8 391.16L1066.97 391.782C1065.9 392.087 1064.78 392.432 1063.58 392.798V392.793ZM1103.27 392.493C1102.12 392.171 1100.96 391.871 1099.84 391.604L1099.99 390.977C1101.12 391.249 1102.28 391.549 1103.44 391.871L1103.27 392.493H1103.27ZM945.157 391.565L944.547 391.366C944.93 390.194 945.363 389.072 945.84 388.017L946.429 388.284C945.962 389.311 945.535 390.416 945.163 391.565H945.157ZM1094.28 390.483C1093.11 390.288 1091.94 390.122 1090.78 389.988L1090.85 389.35C1092.02 389.489 1093.21 389.655 1094.39 389.85L1094.28 390.488V390.483ZM1072.47 390.472L1072.35 389.839C1073.51 389.622 1074.7 389.444 1075.88 389.3L1075.96 389.939C1074.79 390.077 1073.62 390.255 1072.47 390.466V390.472ZM997.057 390.199C996.28 389.133 995.592 388.051 995.075 387.223L995.625 386.884C996.136 387.701 996.813 388.772 997.579 389.822L997.057 390.199ZM1085.14 389.561C1083.96 389.522 1082.79 389.516 1081.6 389.544L1081.59 388.9C1082.78 388.872 1083.97 388.878 1085.16 388.917L1085.14 389.561ZM949.26 383.453L948.744 383.064C949.46 382.104 950.26 381.193 951.103 380.354L951.559 380.815C950.732 381.631 949.96 382.52 949.26 383.453ZM992.038 382.442C991.306 381.398 990.589 380.51 989.84 379.716L990.312 379.277C991.078 380.093 991.816 381.01 992.566 382.076L992.038 382.448V382.442ZM955.961 377.356L955.623 376.806C956.622 376.184 957.688 375.612 958.788 375.112L959.054 375.701C957.977 376.195 956.939 376.751 955.961 377.356ZM985.487 376.256C984.627 375.757 983.683 375.296 982.694 374.896L982.333 374.752L982.567 374.152L982.933 374.296C983.955 374.713 984.921 375.185 985.809 375.696L985.487 376.251V376.256ZM964.356 373.852L964.201 373.225C965.356 372.936 966.544 372.708 967.726 372.547L967.815 373.186C966.655 373.341 965.494 373.563 964.362 373.847L964.356 373.852ZM976.92 373.291C975.782 373.102 974.605 372.986 973.428 372.93L973.456 372.286C974.661 372.342 975.86 372.464 977.026 372.653L976.92 373.291Z" fill="#262262"/>
<path d="M1286.34 654.039C1285.38 654.039 1284.4 654.022 1283.42 653.989C1260.36 653.178 1237.86 643.222 1223.23 627.352C1214.89 618.307 1208.37 606.668 1204.87 594.574C1201.11 581.558 1201.05 569.037 1204.71 558.359C1208.16 548.286 1215.12 539.479 1227.76 523.493C1234.55 514.897 1239.26 509.983 1242.69 506.39C1247.29 501.581 1249.19 499.593 1249.88 494.907C1251.28 485.445 1246.02 478.532 1240.45 471.213C1234.7 463.656 1228.76 455.843 1230.75 444.976C1232.42 435.919 1239.17 426.746 1242.05 422.832C1245.79 417.767 1248.23 415.763 1250.19 414.147C1251.92 412.725 1253.17 411.704 1254.49 409.161C1258.29 401.853 1255.83 395.234 1252.97 387.566C1250.25 380.253 1247.17 371.968 1249.25 361.54C1249.4 360.801 1253.01 343.404 1266.94 335.858C1272.56 332.81 1276.95 333.032 1281.2 333.248C1285.33 333.459 1289.6 333.676 1295.13 330.916C1302.22 327.384 1304.89 322.276 1307.48 317.339C1310.01 312.514 1312.39 307.961 1318.64 305.401C1324.43 303.035 1328.88 304.329 1335.62 306.295C1340.3 307.655 1346.13 309.355 1354.35 310.426C1366.35 311.987 1374.89 311.104 1389.02 309.638C1403.17 308.172 1431.71 303.38 1463.93 287.737C1475.55 282.101 1481.57 276.854 1487.4 271.773C1493.85 266.159 1499.94 260.851 1512.9 255.981C1525.53 251.233 1539.85 245.847 1553.43 252.699C1564.77 258.413 1572.98 271.312 1573.39 284.062C1573.68 292.763 1570.25 297.749 1566.62 303.03C1563.2 308.005 1559.66 313.153 1559.32 321.821C1558.83 334.031 1564.89 343.243 1576.96 361.59C1583.7 371.84 1589.09 378.07 1593.42 383.074C1595.08 385 1596.52 386.661 1597.82 388.293C1608.38 401.648 1614.14 419.611 1614.94 441.689C1615.6 459.83 1612.82 476.227 1611.16 486.028C1604.21 526.98 1584.45 553 1570.01 572.002C1553.22 594.113 1538.71 613.209 1514.52 618.379C1506.81 620.028 1501.68 619.49 1496.71 618.968C1490.67 618.335 1484.97 617.735 1474.94 620.717C1463.7 624.059 1457.02 628.985 1451.13 633.333C1444.52 638.214 1438.81 642.423 1428.76 642.711C1418.13 643.011 1406.9 638.897 1395.38 630.473C1388.14 625.176 1384.05 619.739 1380.76 615.369C1376.82 610.139 1373.98 606.363 1368.11 605.602C1359.92 604.541 1352.77 610.305 1343.72 617.607C1335.09 624.57 1330.88 630.44 1327.49 635.154C1325.37 638.108 1323.54 640.657 1321.08 642.978C1313.55 650.069 1301.01 654.033 1286.34 654.033L1286.34 654.039ZM1277.78 333.687C1274.57 333.687 1271.26 334.148 1267.2 336.347C1253.51 343.771 1249.83 361.473 1249.79 361.651C1247.75 371.924 1250.8 380.131 1253.5 387.371C1256.39 395.156 1258.9 401.886 1254.98 409.41C1253.61 412.054 1252.33 413.109 1250.54 414.569C1248.61 416.163 1246.19 418.145 1242.5 423.154C1239.64 427.041 1232.94 436.136 1231.29 445.071C1229.35 455.699 1235.21 463.411 1240.89 470.869C1246.28 477.96 1251.86 485.289 1250.43 494.979C1249.72 499.838 1247.78 501.865 1243.09 506.762C1239.66 510.344 1234.97 515.247 1228.19 523.826C1215.59 539.768 1208.65 548.547 1205.23 558.525C1201.61 569.098 1201.67 581.503 1205.4 594.408C1208.88 606.418 1215.35 617.985 1223.63 626.964C1238.17 642.728 1260.53 652.617 1283.43 653.423C1299.2 653.972 1312.77 650.019 1320.68 642.567C1323.1 640.285 1324.92 637.753 1327.03 634.821C1330.44 630.079 1334.67 624.176 1343.36 617.163C1352.52 609.778 1359.75 603.947 1368.17 605.036C1374.27 605.83 1377.17 609.683 1381.19 615.019C1384.46 619.356 1388.53 624.759 1395.71 630.006C1407.12 638.352 1418.24 642.439 1428.75 642.134C1438.62 641.851 1444.26 637.686 1450.8 632.866C1456.72 628.491 1463.44 623.532 1474.78 620.161C1484.92 617.146 1490.94 617.779 1496.77 618.39C1501.69 618.906 1506.78 619.44 1514.4 617.813C1538.39 612.687 1552.84 593.669 1569.57 571.647C1583.96 552.689 1603.68 526.73 1610.61 485.917C1612.27 476.138 1615.04 459.774 1614.38 441.694C1613.59 419.739 1607.86 401.881 1597.38 388.621C1596.09 386.999 1594.66 385.339 1593 383.418C1588.65 378.404 1583.25 372.157 1576.49 361.878C1564.74 344.015 1558.27 334.176 1558.76 321.782C1559.11 312.958 1562.69 307.744 1566.16 302.702C1569.73 297.499 1573.11 292.585 1572.83 284.067C1572.42 271.507 1564.34 258.807 1553.18 253.182C1539.81 246.441 1525.61 251.783 1513.09 256.492C1500.22 261.328 1494.17 266.604 1487.76 272.184C1481.91 277.287 1475.85 282.557 1464.17 288.226C1431.88 303.902 1403.26 308.71 1389.08 310.176C1374.9 311.648 1366.35 312.531 1354.28 310.959C1346.01 309.882 1340.16 308.183 1335.47 306.811C1328.84 304.879 1324.46 303.607 1318.85 305.901C1312.79 308.377 1310.45 312.847 1307.97 317.578C1305.34 322.592 1302.62 327.784 1295.37 331.394C1289.71 334.214 1285.37 333.992 1281.16 333.781C1280.03 333.726 1278.91 333.665 1277.78 333.665L1277.78 333.687Z" fill="white"/>
<path d="M1423.97 582.342L1423.96 581.542C1425.44 581.525 1426.93 581.481 1428.39 581.409L1428.42 582.208C1426.95 582.281 1425.45 582.325 1423.97 582.342ZM1416.84 582.208C1415.37 582.136 1413.87 582.042 1412.4 581.914L1412.46 581.114C1413.93 581.237 1415.42 581.337 1416.88 581.403L1416.84 582.203V582.208ZM1435.53 581.648L1435.44 580.848C1436.9 580.687 1438.37 580.498 1439.82 580.282L1439.94 581.076C1438.48 581.292 1436.99 581.487 1435.52 581.648H1435.53ZM1405.31 581.126C1403.85 580.92 1402.37 580.687 1400.91 580.431L1401.05 579.643C1402.5 579.898 1403.97 580.132 1405.42 580.332L1405.31 581.126ZM1446.95 579.804L1446.79 579.021C1448.22 578.716 1449.67 578.371 1451.09 578.01L1451.29 578.788C1449.86 579.154 1448.4 579.499 1446.96 579.804H1446.95ZM1393.92 579.021C1392.49 578.688 1391.03 578.327 1389.6 577.949L1389.81 577.172C1391.23 577.55 1392.68 577.905 1394.11 578.238L1393.93 579.021H1393.92ZM1458.14 576.806L1457.89 576.045C1459.29 575.589 1460.69 575.106 1462.07 574.601L1462.35 575.356C1460.96 575.867 1459.54 576.356 1458.13 576.811L1458.14 576.806ZM1382.77 575.95C1381.35 575.501 1379.93 575.018 1378.54 574.523L1378.81 573.768C1380.19 574.257 1381.6 574.734 1383 575.184L1382.76 575.95H1382.77ZM1468.96 572.68L1468.64 571.947C1469.99 571.353 1471.34 570.725 1472.65 570.081L1473 570.803C1471.68 571.453 1470.33 572.08 1468.97 572.685L1468.96 572.68ZM1371.89 571.98C1370.53 571.419 1369.15 570.831 1367.79 570.225L1368.12 569.492C1369.47 570.098 1370.84 570.681 1372.19 571.242L1371.89 571.986V571.98ZM1479.29 567.455L1478.89 566.761C1480.16 566.028 1481.44 565.261 1482.67 564.478L1483.1 565.156C1481.85 565.944 1480.56 566.716 1479.28 567.455H1479.29ZM1361.36 567.16C1360.05 566.494 1358.72 565.8 1357.42 565.095L1357.8 564.389C1359.1 565.089 1360.41 565.783 1361.72 566.444L1361.36 567.16ZM1351.25 561.546C1349.99 560.78 1348.71 559.986 1347.48 559.181L1347.92 558.509C1349.15 559.309 1350.41 560.103 1351.66 560.863L1351.25 561.546ZM1488.99 561.152L1488.52 560.503C1489.7 559.642 1490.88 558.737 1492.03 557.82L1492.53 558.448C1491.37 559.37 1490.19 560.28 1488.99 561.147V561.152ZM1341.6 555.155C1340.4 554.289 1339.2 553.389 1338.03 552.495L1338.52 551.862C1339.68 552.756 1340.88 553.645 1342.07 554.511L1341.6 555.161V555.155ZM1497.95 553.828L1497.41 553.234C1498.49 552.251 1499.57 551.229 1500.62 550.191L1501.18 550.763C1500.13 551.807 1499.04 552.84 1497.95 553.828ZM1332.5 547.998C1331.38 547.031 1330.25 546.037 1329.17 545.043L1329.72 544.455C1330.79 545.443 1331.9 546.432 1333.02 547.392L1332.5 548.003V547.998ZM1506.09 545.593L1505.49 545.06C1506.46 543.972 1507.42 542.839 1508.36 541.701L1508.98 542.212C1508.03 543.355 1507.06 544.494 1506.08 545.593H1506.09ZM1324.06 540.074C1323.04 539.019 1322.02 537.93 1321.02 536.825L1321.61 536.287C1322.6 537.381 1323.62 538.469 1324.64 539.513L1324.06 540.074ZM1513.35 536.575L1512.7 536.104C1513.55 534.926 1514.41 533.71 1515.23 532.489L1515.9 532.938C1515.07 534.166 1514.21 535.387 1513.35 536.575ZM1316.37 531.423C1315.44 530.284 1314.51 529.107 1313.6 527.93L1314.24 527.441C1315.14 528.613 1316.06 529.784 1316.99 530.917L1316.37 531.423ZM1519.71 526.93L1519.02 526.519C1519.77 525.264 1520.52 523.976 1521.23 522.688L1521.93 523.077C1521.21 524.37 1520.47 525.664 1519.71 526.93ZM1309.41 522.172C1308.57 520.961 1307.73 519.712 1306.92 518.468L1307.59 518.029C1308.4 519.267 1309.23 520.506 1310.06 521.711L1309.4 522.166L1309.41 522.172ZM1525.21 516.774L1524.49 516.424C1525.14 515.114 1525.77 513.77 1526.37 512.426L1527.11 512.76C1526.5 514.109 1525.86 515.458 1525.21 516.78V516.774ZM1303.18 512.415C1302.43 511.138 1301.69 509.839 1300.98 508.545L1301.68 508.156C1302.39 509.439 1303.13 510.738 1303.87 512.01L1303.18 512.415ZM1529.89 506.213L1529.15 505.913C1529.69 504.558 1530.22 503.17 1530.73 501.787L1531.49 502.065C1530.98 503.453 1530.44 504.847 1529.9 506.213H1529.89ZM1297.69 502.226C1297.04 500.893 1296.4 499.544 1295.79 498.2L1296.51 497.867C1297.13 499.2 1297.76 500.549 1298.41 501.87L1297.69 502.226ZM1533.8 495.329L1533.03 495.085C1533.47 493.691 1533.91 492.27 1534.33 490.848L1535.1 491.076C1534.68 492.503 1534.25 493.936 1533.8 495.329ZM1292.98 491.653C1292.43 490.271 1291.9 488.871 1291.4 487.494L1292.15 487.222C1292.65 488.594 1293.18 489.988 1293.73 491.359L1292.99 491.659L1292.98 491.653ZM1536.97 484.202L1536.19 484.007C1536.55 482.586 1536.9 481.136 1537.22 479.698L1538 479.876C1537.68 481.32 1537.33 482.78 1536.97 484.207V484.202ZM1289.14 480.731C1288.7 479.293 1288.3 477.855 1287.93 476.444L1288.7 476.239C1289.07 477.638 1289.48 479.071 1289.91 480.498L1289.15 480.731H1289.14ZM1539.45 472.902L1538.67 472.752C1538.94 471.308 1539.2 469.836 1539.44 468.387L1540.23 468.52C1539.98 469.975 1539.72 471.452 1539.45 472.902H1539.45ZM1286.33 469.492C1286.04 468.004 1285.8 466.521 1285.6 465.094L1286.39 464.983C1286.59 466.399 1286.84 467.865 1287.12 469.342L1286.33 469.492ZM1541.27 461.474L1540.48 461.368C1540.67 459.914 1540.85 458.436 1541.01 456.965L1541.81 457.054C1541.65 458.531 1541.47 460.013 1541.28 461.474H1541.27ZM1284.94 457.981C1284.91 457.198 1284.89 456.421 1284.89 455.671C1284.89 454.922 1284.91 454.211 1284.94 453.506L1285.74 453.539C1285.71 454.233 1285.69 454.949 1285.69 455.666C1285.69 456.382 1285.71 457.17 1285.74 457.942L1284.94 457.976V457.981ZM1542.46 449.963L1541.66 449.902C1541.77 448.425 1541.86 446.937 1541.94 445.476L1542.74 445.521C1542.66 446.987 1542.57 448.48 1542.46 449.963ZM1286.65 446.587L1285.87 446.398C1286.24 444.843 1286.72 443.405 1287.3 442.122L1288.03 442.45C1287.48 443.688 1287.01 445.076 1286.65 446.581V446.587ZM1542.99 438.402L1542.19 438.385C1542.21 437.253 1542.22 436.136 1542.22 435.037C1542.22 434.676 1542.22 434.31 1542.22 433.954H1543.02C1543.02 434.31 1543.02 434.676 1543.02 435.037C1543.02 436.142 1543.01 437.264 1542.99 438.396V438.402ZM1292.15 436.997L1291.65 436.364C1292.78 435.487 1294.04 434.798 1295.64 434.193L1295.92 434.943C1294.41 435.515 1293.21 436.164 1292.15 436.992V436.997ZM1302.7 432.905L1302.46 432.144C1304.02 431.639 1305.3 431.106 1306.48 430.467L1306.86 431.172C1305.64 431.839 1304.32 432.388 1302.71 432.91L1302.7 432.905ZM1542.04 426.874C1541.97 425.381 1541.89 423.893 1541.78 422.454L1542.58 422.393C1542.68 423.837 1542.77 425.331 1542.84 426.836L1542.04 426.874ZM1312.41 426.591L1311.8 426.075L1311.86 425.997C1312.85 424.803 1313.66 423.587 1314.3 422.343L1315.02 422.71C1314.36 424.004 1313.52 425.27 1312.52 426.469L1312.42 426.591H1312.41ZM1317.03 415.791L1316.23 415.702C1316.35 414.658 1316.4 413.531 1316.4 412.259C1316.4 411.948 1316.4 411.632 1316.39 411.321L1317.19 411.304C1317.2 411.621 1317.2 411.943 1317.2 412.259C1317.2 413.559 1317.15 414.714 1317.02 415.791H1317.03ZM1541.12 415.386C1540.96 413.903 1540.77 412.42 1540.58 410.988L1541.37 410.877C1541.57 412.32 1541.75 413.809 1541.92 415.297L1541.12 415.386H1541.12ZM1316.14 404.219V403.797C1316.14 402.287 1316.21 400.96 1316.37 399.738L1317.17 399.843C1317.01 401.032 1316.94 402.325 1316.94 403.797V404.213L1316.14 404.219ZM1539.44 403.991C1539.17 402.537 1538.88 401.076 1538.56 399.649L1539.34 399.477C1539.66 400.91 1539.95 402.381 1540.23 403.841L1539.44 403.991H1539.44ZM1319.29 393.263L1318.59 392.875C1318.83 392.425 1319.11 391.981 1319.39 391.548C1319.94 390.726 1320.57 389.948 1321.28 389.226L1321.85 389.787C1321.18 390.47 1320.58 391.209 1320.07 391.986C1319.79 392.403 1319.53 392.83 1319.29 393.258L1319.29 393.263ZM1536.87 392.769C1536.48 391.342 1536.06 389.909 1535.63 388.516L1536.4 388.277C1536.83 389.676 1537.25 391.12 1537.65 392.553L1536.88 392.764L1536.87 392.769ZM1327.53 385.834L1327.17 385.117C1328.41 384.512 1329.79 383.929 1331.31 383.39L1331.58 384.146C1330.09 384.673 1328.73 385.24 1327.53 385.834ZM1338.35 382.174L1338.16 381.397C1339.5 381.075 1340.96 380.753 1342.51 380.436L1342.67 381.225C1341.13 381.536 1339.68 381.858 1338.35 382.174ZM1533.35 381.813C1532.83 380.431 1532.28 379.048 1531.72 377.699L1532.46 377.388C1533.02 378.748 1533.57 380.142 1534.1 381.53L1533.35 381.813ZM1349.64 379.953L1349.51 379.165C1350.92 378.932 1352.38 378.704 1353.91 378.476L1354.02 379.27C1352.51 379.498 1351.05 379.726 1349.64 379.959V379.953ZM1361.05 378.26L1360.93 377.466C1362.36 377.271 1363.83 377.071 1365.34 376.871L1365.44 377.666C1363.94 377.865 1362.47 378.06 1361.05 378.254V378.26ZM1372.48 376.755L1372.38 375.961L1376.79 375.394L1376.89 376.188L1372.48 376.755ZM1383.93 375.339L1383.84 374.545C1385.41 374.367 1386.87 374.206 1388.24 374.056L1388.33 374.856C1386.96 375.006 1385.5 375.167 1383.93 375.344V375.339ZM1395.39 374.062L1395.29 373.268C1397.06 373.051 1398.44 372.851 1399.66 372.64L1399.8 373.429C1398.57 373.64 1397.17 373.845 1395.39 374.062ZM1406.7 371.474L1406.37 370.741C1407.65 370.164 1408.88 369.447 1410.11 368.542L1410.58 369.186C1409.3 370.125 1408.03 370.869 1406.69 371.469L1406.7 371.474ZM1528.79 371.252C1528.14 369.925 1527.46 368.603 1526.76 367.326L1527.46 366.943C1528.17 368.231 1528.85 369.564 1529.52 370.897L1528.8 371.252H1528.79ZM1415.77 364.233L1415.14 363.734C1416.01 362.64 1416.79 361.446 1417.54 360.085L1418.24 360.469C1417.48 361.868 1416.67 363.095 1415.78 364.228L1415.77 364.233ZM1523.16 361.235C1522.36 359.991 1521.54 358.758 1520.7 357.564L1521.35 357.103C1522.2 358.308 1523.04 359.552 1523.84 360.807L1523.16 361.24V361.235ZM1421.27 354.027L1420.54 353.7C1421.06 352.545 1421.7 351.168 1422.47 349.679L1423.18 350.051C1422.42 351.517 1421.78 352.883 1421.27 354.027ZM1516.42 351.928C1515.49 350.796 1514.52 349.668 1513.54 348.58L1514.13 348.041C1515.12 349.141 1516.1 350.274 1517.04 351.417L1516.42 351.928ZM1426.88 344.066L1426.23 343.594C1427.08 342.422 1428 341.245 1429 340.09L1429.61 340.612C1428.63 341.75 1427.71 342.911 1426.88 344.066H1426.88ZM1508.6 343.516C1508.16 343.099 1507.72 342.688 1507.27 342.278C1506.71 341.767 1506.06 341.178 1505.34 340.528L1505.87 339.929C1506.6 340.584 1507.25 341.172 1507.81 341.683C1508.26 342.1 1508.71 342.516 1509.15 342.933L1508.6 343.516ZM1499.93 335.942C1498.76 335.009 1497.57 334.109 1496.41 333.265L1496.88 332.616C1498.06 333.471 1499.25 334.376 1500.43 335.314L1499.93 335.942ZM1434.45 335.459L1433.9 334.881C1434.98 333.837 1436.09 332.832 1437.21 331.883L1437.73 332.494C1436.63 333.426 1435.52 334.426 1434.45 335.453V335.459ZM1490.52 329.345C1489.24 328.568 1487.94 327.84 1486.67 327.179L1487.04 326.469C1488.33 327.141 1489.64 327.879 1490.93 328.662L1490.52 329.351V329.345ZM1443.37 328.262L1442.93 327.59C1444.2 326.757 1445.49 325.98 1446.77 325.291L1447.16 325.997C1445.9 326.674 1444.63 327.435 1443.38 328.257L1443.37 328.262ZM1480.24 324.27C1478.84 323.737 1477.44 323.27 1476.06 322.882L1476.28 322.11C1477.68 322.504 1479.1 322.982 1480.52 323.52L1480.24 324.27ZM1453.59 323.17L1453.33 322.41C1454.7 321.943 1456.1 321.554 1457.47 321.26L1457.65 321.221L1457.82 322.004L1457.63 322.043C1456.29 322.332 1454.93 322.709 1453.59 323.17ZM1469.17 321.51C1467.77 321.355 1466.36 321.271 1464.98 321.271H1464.78V320.472H1464.98C1466.38 320.472 1467.82 320.555 1469.26 320.716L1469.17 321.51Z" fill="#262262"/>
<path d="M1341.55 136.319C1340.33 136.319 1339.19 136.163 1338.14 135.852L1338.31 135.269C1339.48 135.614 1340.8 135.758 1342.18 135.697L1342.21 136.308C1341.99 136.319 1341.77 136.324 1341.55 136.324V136.319ZM1346.22 135.619L1346.05 135.036C1347.29 134.675 1348.52 134.181 1349.71 133.565L1349.99 134.103C1348.76 134.736 1347.49 135.247 1346.22 135.619H1346.22ZM1334.55 133.848C1333.61 132.982 1332.85 131.877 1332.2 130.483L1332.76 130.227C1333.37 131.549 1334.09 132.587 1334.96 133.404L1334.55 133.848ZM1353.42 131.915L1353.05 131.432C1354.1 130.616 1355.07 129.705 1355.92 128.728L1356.38 129.128C1355.5 130.133 1354.51 131.071 1353.42 131.915H1353.42ZM1330.89 126.64C1330.61 125.552 1330.35 124.336 1330.04 122.698L1330.64 122.587C1330.94 124.186 1331.21 125.43 1331.49 126.49L1330.9 126.64H1330.89ZM1358.72 125.807L1358.19 125.513L1358.25 125.407C1358.85 124.308 1359.35 123.12 1359.72 121.881L1360.3 122.059C1359.91 123.336 1359.4 124.563 1358.78 125.702L1358.72 125.807H1358.72ZM1329.33 118.744C1329.06 117.228 1328.84 115.973 1328.67 114.774L1329.27 114.685C1329.44 115.879 1329.66 117.128 1329.93 118.633L1329.33 118.738V118.744ZM1361.08 118.061L1360.48 118.005C1360.54 117.378 1360.57 116.745 1360.57 116.112C1360.57 115.429 1360.53 114.735 1360.46 114.057L1361.07 113.996C1361.14 114.696 1361.18 115.407 1361.18 116.112C1361.18 116.762 1361.15 117.417 1361.08 118.061ZM1328.26 110.753C1328.24 110.403 1328.24 110.059 1328.24 109.726C1328.24 108.604 1328.33 107.61 1328.51 106.689L1329.11 106.805C1328.94 107.688 1328.85 108.643 1328.85 109.726C1328.85 110.054 1328.85 110.387 1328.87 110.731L1328.26 110.759V110.753ZM1359.66 110.192C1359.26 108.921 1358.72 107.71 1358.07 106.594L1358.6 106.289C1359.27 107.449 1359.82 108.699 1360.25 110.015L1359.67 110.198L1359.66 110.192ZM1355.71 103.451C1355.19 102.907 1354.62 102.391 1354.03 101.919C1353.6 101.58 1353.14 101.252 1352.67 100.952L1353 100.442C1353.48 100.753 1353.96 101.091 1354.41 101.441C1355.02 101.93 1355.61 102.463 1356.15 103.029L1355.72 103.451H1355.71ZM1330.58 103.235L1330.08 102.89C1330.2 102.713 1330.33 102.541 1330.46 102.368C1331.28 101.336 1332.32 100.436 1333.56 99.6919L1333.87 100.214C1332.69 100.919 1331.7 101.774 1330.93 102.746C1330.8 102.907 1330.69 103.068 1330.57 103.235H1330.58ZM1349.14 99.2144C1347.92 98.7702 1346.63 98.4425 1345.32 98.2481L1345.41 97.6484C1346.76 97.8483 1348.09 98.1815 1349.35 98.6424L1349.14 99.2144H1349.14ZM1337.49 98.6924L1337.33 98.1038C1338.6 97.7484 1339.96 97.5318 1341.35 97.4541L1341.38 98.0593C1340.04 98.1315 1338.73 98.3425 1337.49 98.6868L1337.49 98.6924Z" fill="#262262"/>
<path d="M1156.06 373.957C1154.84 373.957 1153.7 373.801 1152.65 373.49L1152.82 372.907C1153.99 373.251 1155.31 373.396 1156.69 373.335L1156.72 373.945C1156.5 373.957 1156.28 373.962 1156.06 373.962V373.957ZM1160.73 373.257L1160.56 372.674C1161.8 372.313 1163.03 371.819 1164.23 371.202L1164.5 371.741C1163.28 372.374 1162 372.885 1160.73 373.257ZM1149.06 371.486C1148.12 370.619 1147.36 369.514 1146.71 368.12L1147.27 367.865C1147.88 369.187 1148.6 370.225 1149.47 371.041L1149.06 371.486ZM1167.93 369.553L1167.56 369.07C1168.61 368.254 1169.58 367.343 1170.43 366.366L1170.89 366.766C1170.01 367.771 1169.02 368.709 1167.93 369.553H1167.93ZM1145.4 364.278C1145.13 363.201 1144.85 361.951 1144.55 360.335L1145.15 360.224C1145.45 361.823 1145.73 363.062 1146 364.128L1145.41 364.278H1145.4ZM1173.24 363.445L1172.7 363.151L1172.76 363.045C1173.36 361.946 1173.86 360.757 1174.23 359.519L1174.81 359.697C1174.42 360.974 1173.91 362.201 1173.29 363.339L1173.23 363.445H1173.24ZM1143.84 356.382C1143.57 354.866 1143.36 353.611 1143.18 352.411L1143.78 352.322C1143.95 353.516 1144.17 354.766 1144.44 356.271L1143.84 356.376V356.382ZM1175.6 355.699L1174.99 355.643C1175.05 355.016 1175.08 354.383 1175.08 353.75C1175.08 353.067 1175.05 352.372 1174.97 351.695L1175.58 351.634C1175.65 352.334 1175.69 353.044 1175.69 353.75C1175.69 354.399 1175.66 355.054 1175.6 355.699ZM1142.77 348.391C1142.76 348.041 1142.75 347.697 1142.75 347.364C1142.75 346.242 1142.84 345.248 1143.02 344.326L1143.62 344.443C1143.45 345.326 1143.36 346.281 1143.36 347.364C1143.36 347.691 1143.37 348.025 1143.38 348.369L1142.77 348.397V348.391ZM1174.17 347.83C1173.77 346.559 1173.24 345.348 1172.58 344.232L1173.11 343.926C1173.79 345.087 1174.34 346.336 1174.76 347.652L1174.18 347.836L1174.17 347.83ZM1170.22 341.089C1169.7 340.545 1169.13 340.028 1168.54 339.556C1168.11 339.218 1167.65 338.89 1167.18 338.59L1167.51 338.079C1168 338.39 1168.47 338.729 1168.92 339.079C1169.53 339.567 1170.12 340.101 1170.67 340.667L1170.23 341.089H1170.22ZM1145.09 340.872L1144.59 340.528C1144.71 340.35 1144.84 340.178 1144.97 340.006C1145.79 338.973 1146.83 338.074 1148.07 337.33L1148.39 337.852C1147.2 338.557 1146.21 339.412 1145.44 340.384C1145.32 340.545 1145.2 340.706 1145.08 340.872H1145.09ZM1163.65 336.852C1162.43 336.408 1161.14 336.08 1159.83 335.886L1159.92 335.286C1161.27 335.486 1162.6 335.819 1163.86 336.28L1163.65 336.852H1163.65ZM1152 336.33L1151.84 335.742C1153.12 335.386 1154.47 335.17 1155.86 335.092L1155.89 335.697C1154.55 335.769 1153.24 335.98 1152.01 336.325L1152 336.33Z" fill="#262262"/>
<path d="M1150.96 176.471C1150.96 177.943 1149.77 179.136 1148.29 179.136C1146.82 179.136 1145.63 177.943 1145.63 176.471C1145.63 174.999 1146.82 173.806 1148.29 173.806C1149.77 173.806 1150.96 174.999 1150.96 176.471Z" fill="#262262"/>
<path d="M1427.99 227.823C1427.99 229.294 1426.8 230.488 1425.33 230.488C1423.86 230.488 1422.66 229.294 1422.66 227.823C1422.66 226.351 1423.86 225.157 1425.33 225.157C1426.8 225.157 1427.99 226.351 1427.99 227.823Z" fill="#262262"/>
<path d="M1255.85 53.0639C1255.85 54.5354 1254.66 55.7292 1253.19 55.7292C1251.72 55.7292 1250.52 54.5354 1250.52 53.0639C1250.52 51.5923 1251.72 50.3984 1253.19 50.3984C1254.66 50.3984 1255.85 51.5923 1255.85 53.0639Z" fill="#36BBEE"/>
<path d="M1097.95 71.3098C1096.62 71.171 1095.28 70.8822 1093.97 70.4436L1094.17 69.866C1095.43 70.2881 1096.72 70.5713 1098.02 70.7045L1097.96 71.3098H1097.95ZM1102.03 71.2543L1101.95 70.649C1102.7 70.5491 1103.45 70.3936 1104.17 70.1937C1104.7 70.0438 1105.23 69.8716 1105.75 69.6717L1105.97 70.2381C1105.44 70.4436 1104.88 70.6268 1104.34 70.7823C1103.59 70.9933 1102.81 71.1543 1102.03 71.2543H1102.03ZM1090.27 68.761C1089.11 68.078 1087.99 67.2784 1086.98 66.3789L1087.38 65.9235C1088.37 66.7953 1089.45 67.5783 1090.58 68.2391L1090.28 68.7666L1090.27 68.761ZM1109.58 68.3501L1109.24 67.8448C1110.32 67.1229 1111.34 66.2733 1112.27 65.3238L1112.7 65.7514C1111.74 66.7287 1110.69 67.6005 1109.58 68.3501ZM1084.21 63.397C1083.41 62.3308 1082.72 61.1924 1082.17 60.0208L1082.12 59.9097L1082.67 59.6542L1082.72 59.7598C1083.25 60.8981 1083.92 61.9976 1084.7 63.0304L1084.21 63.397ZM1115.26 62.5862L1114.74 62.253C1115.48 61.1258 1116.08 59.9431 1116.53 58.7436L1117.1 58.9601C1116.64 60.204 1116.02 61.4201 1115.26 62.5862ZM1080.82 56.0504C1080.53 54.7455 1080.36 53.3906 1080.32 52.019L1080.93 52.0024C1080.97 53.3351 1081.13 54.6566 1081.42 55.9227L1080.82 56.056V56.0504ZM1118.04 54.9843L1117.44 54.9288C1117.47 54.5567 1117.49 54.1847 1117.49 53.8182C1117.49 52.852 1117.37 51.9246 1117.13 51.0584C1117.07 50.8585 1117.01 50.6697 1116.94 50.4809L1117.52 50.281C1117.59 50.4809 1117.65 50.6919 1117.72 50.8974C1117.97 51.8136 1118.1 52.7965 1118.1 53.8182C1118.1 54.2014 1118.08 54.5956 1118.04 54.9843ZM1081.17 48.0543L1080.57 47.9599C1080.78 46.5939 1081.12 45.2667 1081.57 44.0173L1082.14 44.2228C1081.7 45.4333 1081.38 46.7216 1081.17 48.0487V48.0543ZM1114.93 47.188C1114.15 46.3329 1113.16 45.5166 1111.91 44.6836L1112.25 44.1783C1113.54 45.039 1114.56 45.8886 1115.38 46.7771L1114.93 47.188ZM1108.47 42.6791C1107.41 42.1182 1106.27 41.5518 1104.9 40.8744L1105.16 40.3302C1106.54 41.0076 1107.68 41.574 1108.75 42.1404L1108.47 42.6791ZM1083.9 40.7077L1083.39 40.369C1084.2 39.1474 1085.13 38.1312 1086.16 37.3483L1086.53 37.8314C1085.56 38.5755 1084.67 39.5416 1083.9 40.7077H1083.9ZM1101.29 39.1252C1099.82 38.4255 1098.67 37.9091 1097.64 37.5038L1097.87 36.9374C1098.9 37.3483 1100.08 37.8702 1101.56 38.5755L1101.3 39.1252H1101.29ZM1093.87 36.3266C1092.44 36.0378 1091.18 36.01 1090.01 36.2321L1089.89 35.6325C1091.15 35.3881 1092.48 35.4214 1094 35.7268L1093.87 36.3266Z" fill="#2B9BE2"/>
</g>
<defs>
<linearGradient id="paint0_linear_5085_701" x1="1762.74" y1="37.3308" x2="1174.79" y2="948.421" gradientUnits="userSpaceOnUse">
<stop stop-color="#0069B4"/>
<stop offset="0.44" stop-color="#00A88B"/>
<stop offset="0.46" stop-color="#04A886"/>
<stop offset="0.59" stop-color="#1BAE6B"/>
<stop offset="0.72" stop-color="#2CB258"/>
<stop offset="0.85" stop-color="#36B44D"/>
<stop offset="1" stop-color="#3AB54A"/>
</linearGradient>
</defs>
</svg>
