<svg width="168" height="122" viewBox="0 0 168 122" fill="none" xmlns="http://www.w3.org/2000/svg">
<g id="Layer_1" clip-path="url(#clip0_4574_7202)">
<path id="Vector" opacity="0.6" d="M32.359 42.1136C41.5595 45.3555 50.8211 48.6767 59.2523 53.6646C67.8912 58.7686 74.9976 65.8201 82.2872 72.6212C89.3326 79.1965 96.8542 85.6192 105.933 89.1846C110.286 90.9002 114.926 91.8892 119.614 91.7549C124.975 91.6084 130.17 90.1065 135.488 89.5509C140.146 89.0625 145.207 89.2823 149.359 91.6816C151.88 93.1408 153.999 95.4669 155.086 98.1837C155.525 96.0285 156.252 93.965 157.583 92.2006C159.072 90.2225 161.307 88.684 163.73 88.336C163.706 88.2933 163.688 88.2383 163.676 88.1773C163.328 86.5716 162.589 85.0392 161.887 83.5617C161.661 83.0794 161.429 82.6032 161.185 82.1331C160.458 81.2479 159.622 80.4481 158.663 79.7643C155.568 77.542 151.752 76.7606 147.997 76.846C143.064 76.962 138.534 78.7631 133.986 80.4969C129.572 82.1759 124.901 83.8182 120.109 83.1527C114.865 82.4201 110.524 78.9157 106.513 75.7105C102.123 72.1939 97.9776 68.3904 93.8138 64.6173C85.8588 57.401 77.6656 50.1908 67.8668 45.5753C62.9216 43.2492 57.6467 41.7229 52.2008 41.2345C46.3032 40.7033 40.3751 41.1856 34.5202 41.8572L32.359 42.1136Z" fill="#61BD73"/>
<path id="Vector_2" opacity="0.3" d="M48.262 38.2253C46.8944 38.7992 45.5147 39.3426 44.1166 39.8127C45.4414 39.7639 46.7662 39.7455 48.091 39.77C53.72 39.8676 59.2574 40.814 64.5323 42.8103C74.612 46.6322 83.1654 53.4395 91.1387 60.5337C95.4124 64.3372 99.5822 68.2507 103.935 71.9626C106.127 73.8308 108.361 75.6502 110.688 77.3535C112.861 78.947 115.163 80.4672 117.739 81.3219C122.623 82.9398 127.611 81.5356 132.257 79.82C136.915 78.0983 141.5 76.0653 146.513 75.6746C150.365 75.3754 154.376 75.8761 157.807 77.7503C158.381 78.0617 158.925 78.4097 159.438 78.7943C158.485 76.8529 158.332 74.6978 157.881 72.6037C157.404 70.4058 156.708 68.2629 155.848 66.1871C154.071 61.883 151.592 57.8963 148.869 54.1355C147.52 52.2612 146.031 50.4968 144.681 48.6286C143.326 46.7604 142.373 44.6968 142.538 42.3402C142.844 37.8712 145.377 33.5182 148.644 30.4779C145.518 29.5499 142.184 30.9174 139.541 32.6086C136.702 34.4279 134.107 36.5708 131.207 38.3047C125.578 41.6687 119.094 44.0924 112.44 43.5308C106.219 42.9996 100.577 40.1241 95.1804 37.1936C89.4171 34.0738 83.7087 30.9113 77.1884 29.7147C69.4775 28.2983 61.3515 29.3118 54.1474 32.3827C54.0558 32.4193 53.9703 32.4376 53.8849 32.4376C53.4026 33.2008 52.9019 33.9639 52.3952 34.7149C51.3268 36.2839 49.9714 37.5049 48.262 38.2253Z" fill="#61BD73"/>
<path id="Vector_3" d="M24.7618 66.9137C24.9328 66.9931 25.0976 66.9992 25.2441 66.9565C25.2197 66.5169 25.2014 66.0834 25.1831 65.65C21.3795 63.8428 17.6065 61.9746 13.8518 60.0637C10.4512 58.3237 7.07509 56.541 3.72334 54.7156C3.28377 54.4836 2.85029 54.2455 2.41682 54.0074C2.11156 53.8364 1.29347 53.5983 1.50104 53.1465C1.61704 52.8901 2.06272 52.6642 2.28251 52.4811C2.6244 52.2002 2.9724 51.9255 3.3204 51.6508C4.65743 50.6068 6.05551 49.6238 7.48412 48.702C12.9177 45.2098 18.9253 42.7006 25.2441 41.3513C25.2441 41.3025 25.2502 41.2536 25.2502 41.2048C25.2563 41.1376 25.2685 41.0705 25.293 41.0155C24.5726 40.8446 23.846 40.6614 23.1256 40.4844C20.0486 41.2475 17.0449 42.2976 14.1449 43.5919C10.8054 45.0877 7.61845 46.9192 4.63301 49.0316C3.86986 49.575 3.11892 50.1367 2.38019 50.7167C1.72083 51.2295 0.945465 51.7362 0.408209 52.3834C-0.947144 54.0135 1.39726 54.9598 2.53282 55.5764C9.83463 59.5631 17.2463 63.3422 24.7618 66.9137Z" fill="black"/>
<path id="Vector_4" d="M17.8446 10.8615C17.0571 11.5575 17.0021 12.7663 17.7164 13.6577C18.62 14.7872 19.1939 15.0741 20.708 15.1657C22.277 15.2573 22.8875 14.3659 22.2221 12.9861C21.9229 12.3573 20.9155 11.9544 21.5871 10.9958C21.6299 10.9287 21.4406 10.6601 21.3124 10.5319C20.6958 9.92744 18.6749 10.1289 17.8446 10.8615Z" fill="black"/>
<path id="Vector_5" d="M18.9647 111.566C21.5411 101.7 24.1053 91.8337 26.6328 81.9555C26.5657 81.5526 26.5046 81.1435 26.4436 80.7406C26.3459 80.6429 26.2787 80.5086 26.2604 80.3438C26.2299 80.0507 26.1993 79.7638 26.1749 79.4707C25.4911 82.157 24.8013 84.8372 24.1114 87.5173C21.2602 98.5738 18.3786 109.624 15.4725 120.669C15.2955 121.328 16.3211 121.609 16.4982 120.949C17.3224 117.824 18.1405 114.692 18.9647 111.566Z" fill="black"/>
<path id="Vector_6" d="M25.4339 65.7705C25.3484 65.7278 25.269 65.6912 25.1836 65.6484C25.2019 66.0819 25.2202 66.5154 25.2446 66.9549C25.7575 66.8145 26.0322 66.0514 25.4339 65.7705Z" fill="black"/>
<path id="Vector_7" d="M25.9431 40.6062C25.6745 40.594 25.3875 40.7283 25.296 41.0153C25.5158 41.0702 25.7294 41.1191 25.9492 41.1679C25.8271 41.0031 25.8393 40.7894 25.9492 40.6062H25.9431Z" fill="black"/>
<path id="Vector_8" d="M25.5308 39.9347C24.7249 40.0995 23.919 40.2766 23.1254 40.4841C23.8458 40.6612 24.5723 40.8443 25.2927 41.0153C25.3843 40.7283 25.6712 40.594 25.9398 40.6062C26.007 40.4658 26.123 40.3437 26.2695 40.2827C26.1352 40.0385 25.8727 39.8614 25.5308 39.9347Z" fill="black"/>
<path id="Vector_9" d="M25.2505 41.2049C25.2505 41.2537 25.2444 41.3026 25.2444 41.3514C25.4581 41.2965 25.6718 41.2537 25.8855 41.211C25.916 41.2049 25.9404 41.1988 25.9648 41.1927C25.9587 41.1927 25.9526 41.1744 25.9465 41.1683C25.7267 41.1194 25.5131 41.0706 25.2933 41.0156C25.2688 41.0706 25.2566 41.1377 25.2505 41.2049Z" fill="black"/>
<path id="Vector_10" d="M25.943 40.6055C25.8392 40.7886 25.827 41.0023 25.943 41.1671C25.9613 41.1733 25.9796 41.1794 25.998 41.1794C26.1933 41.1 26.3093 40.9474 26.3398 40.7764C26.2422 40.6726 26.0895 40.6116 25.9369 40.6055H25.943Z" fill="black"/>
<path id="Vector_11" d="M25.9482 41.168C25.9482 41.168 25.9606 41.1865 25.9668 41.1927C25.9792 41.1927 25.9915 41.1803 26.0039 41.1803C25.9853 41.1803 25.9668 41.1742 25.9482 41.168Z" fill="black"/>
<path id="Vector_12" d="M26.4619 66.4119C26.0712 58.1089 26.0834 49.7936 26.4925 41.4967C26.3887 41.4478 26.291 41.4051 26.1872 41.3562C26.0895 41.3135 26.0163 41.2586 25.9674 41.1914C25.943 41.1975 25.9186 41.2036 25.8881 41.2097C25.6744 41.2525 25.4607 41.2952 25.247 41.3501C25.1005 44.2135 25.0089 47.0768 24.9601 49.9401C24.8746 55.1784 24.9478 60.4166 25.1859 65.6488C25.2714 65.6915 25.3508 65.7282 25.4363 65.7709C26.0346 66.0517 25.7598 66.8149 25.247 66.9553C25.4546 71.1313 25.7659 75.3072 26.175 79.4709C26.2055 79.3672 26.2299 79.2695 26.2544 79.1657C26.2299 78.9642 26.2116 78.7566 26.1933 78.5491C26.1689 78.2621 26.3398 78.0973 26.5474 78.0545C26.6695 77.7432 27.0114 77.6943 27.2617 77.8103C27.0725 75.7529 26.9076 73.6954 26.7672 71.638C26.6756 70.3071 26.5962 68.97 26.523 67.6391C26.1323 67.4804 25.9247 66.8149 26.3887 66.4669L26.4619 66.4119Z" fill="black"/>
<path id="Vector_13" d="M26.3852 66.4671C25.9212 66.8151 26.1288 67.4805 26.5195 67.6393C26.5012 67.2302 26.4829 66.8212 26.4585 66.4121L26.3852 66.4671Z" fill="black"/>
<path id="Vector_14" d="M26.2707 40.2812C26.1242 40.3423 26.0082 40.4644 25.9411 40.6048C26.0937 40.6109 26.2463 40.672 26.344 40.7758C26.3806 40.617 26.3501 40.4339 26.2707 40.2812Z" fill="black"/>
<path id="Vector_15" d="M26.1847 41.3567C26.2885 41.4056 26.3862 41.4483 26.49 41.4972C26.49 41.43 26.4961 41.3628 26.4961 41.2957C26.3313 41.2591 26.1664 41.2224 26.0016 41.1797C25.9894 41.1797 25.9772 41.1858 25.9649 41.1919C26.0138 41.2591 26.087 41.314 26.1847 41.3567Z" fill="black"/>
<path id="Vector_16" d="M26.2582 80.3443C26.2766 80.5092 26.3437 80.6435 26.4414 80.7412C26.3681 80.2161 26.3071 79.6911 26.2521 79.166C26.2277 79.2698 26.2033 79.3675 26.1728 79.4713C26.1972 79.7643 26.2277 80.0513 26.2582 80.3443Z" fill="black"/>
<path id="Vector_17" d="M26.2538 79.1658C26.3454 78.8178 26.437 78.4759 26.5224 78.128C26.5286 78.1035 26.5347 78.0791 26.5469 78.0547C26.3393 78.0974 26.1684 78.2623 26.1928 78.5492C26.2111 78.7568 26.2294 78.9644 26.2538 79.1658Z" fill="black"/>
<path id="Vector_18" d="M26.4406 80.7402C26.5016 81.1432 26.5627 81.5522 26.6298 81.9552C26.6909 81.7415 26.7458 81.5278 26.8008 81.3141C26.6298 81.2103 26.5383 81.015 26.526 80.8135C26.4955 80.7891 26.465 80.7647 26.4406 80.7402Z" fill="black"/>
<path id="Vector_19" d="M26.5039 41.2047C26.5039 41.0154 26.449 40.875 26.3452 40.7773C26.3146 40.9483 26.1987 41.1009 26.0033 41.1803C26.1681 41.223 26.333 41.2597 26.4978 41.2963C26.4978 41.2658 26.5039 41.2352 26.5039 41.2047Z" fill="black"/>
<path id="Vector_20" d="M27.2549 78.5501C27.2182 78.1533 26.8397 77.9884 26.5467 78.0556C26.5345 78.08 26.5283 78.1044 26.5222 78.1289C26.4368 78.4769 26.3452 78.8187 26.2536 79.1667C26.3086 79.6918 26.3696 80.2168 26.4429 80.7419C26.4673 80.7663 26.4978 80.7907 26.5283 80.8151C26.5161 80.5038 26.7054 80.1802 27.0961 80.168C27.1755 79.8688 27.2549 79.5636 27.3281 79.2644C27.2976 79.0263 27.2793 78.7882 27.2549 78.5501Z" fill="black"/>
<path id="Vector_21" d="M26.526 80.8145C26.5382 81.0159 26.6298 81.2113 26.8008 81.3151C26.8313 81.1869 26.8679 81.0648 26.8984 80.9366C26.7702 80.9305 26.6359 80.8877 26.526 80.8145Z" fill="black"/>
<path id="Vector_22" d="M26.526 80.8151C26.6359 80.8884 26.7702 80.9311 26.8984 80.9372C26.9655 80.6808 27.0327 80.4244 27.0938 80.168C26.703 80.1802 26.5138 80.5038 26.526 80.8151Z" fill="black"/>
<path id="Vector_23" d="M26.3429 40.7764C26.4467 40.8741 26.5077 41.0145 26.5016 41.2037C26.5016 41.2343 26.4955 41.2648 26.4955 41.2953C26.5993 41.3197 26.7092 41.3442 26.813 41.3686C27.0877 41.4296 27.2953 41.5273 27.4479 41.6555H29.542C29.542 41.625 29.5542 41.5945 29.5664 41.57C28.6567 41.1244 27.7349 40.6909 26.813 40.2757C26.6176 40.1903 26.4283 40.2025 26.2696 40.2819C26.349 40.4345 26.3795 40.6176 26.3429 40.7764Z" fill="black"/>
<path id="Vector_24" d="M26.9 80.9375C27.1625 80.9558 27.4189 80.8337 27.4922 80.5712C27.4739 80.4674 27.4556 80.3575 27.4494 80.2476C27.364 80.1926 27.2602 80.1621 27.132 80.1621C27.1198 80.1621 27.1076 80.1621 27.0953 80.1682C27.0343 80.4246 26.9671 80.6811 26.9 80.9375Z" fill="black"/>
<path id="Vector_25" d="M27.3271 79.2637C27.2539 79.5628 27.1745 79.8681 27.0951 80.1672C27.1073 80.1611 27.1195 80.1611 27.1317 80.1611C27.26 80.1611 27.3637 80.1917 27.4492 80.2466C27.4004 79.923 27.3576 79.5934 27.3271 79.2637Z" fill="black"/>
<path id="Vector_26" d="M26.5447 78.0556C26.8377 77.9885 27.2163 78.1533 27.2529 78.5502C27.2773 78.7883 27.2956 79.0264 27.3262 79.2645C27.3445 79.1973 27.3628 79.1363 27.375 79.0691C27.3384 78.6478 27.2956 78.2327 27.259 77.8114C27.0087 77.6954 26.6668 77.7443 26.5447 78.0556Z" fill="black"/>
<path id="Vector_27" d="M27.2608 77.8105C27.2975 78.2318 27.3402 78.647 27.3768 79.0682C27.4379 78.8484 27.4928 78.6348 27.5478 78.415C27.621 78.128 27.4684 77.9082 27.2608 77.8105Z" fill="black"/>
<path id="Vector_28" d="M27.4905 80.5703C27.4172 80.8328 27.1608 80.9549 26.8983 80.9366C26.8677 81.0648 26.8311 81.1869 26.8006 81.3151C26.8921 81.3823 27.002 81.4128 27.1302 81.4128C27.3317 81.4128 27.4843 81.3335 27.582 81.2175C27.5454 81.0038 27.5149 80.7901 27.4905 80.5703Z" fill="black"/>
<path id="Vector_29" d="M27.5 80.2772C27.4573 79.8743 27.4206 79.4713 27.3779 79.0684C27.3657 79.1355 27.3474 79.1966 27.3291 79.2637C27.3596 79.5934 27.4023 79.9231 27.4512 80.2467C27.4695 80.2528 27.4878 80.265 27.5 80.2772Z" fill="black"/>
<path id="Vector_30" d="M27.4492 80.2461C27.4553 80.356 27.4736 80.4659 27.492 80.5697C27.5103 80.5025 27.5103 80.4293 27.5042 80.3438C27.5042 80.3194 27.5042 80.301 27.5042 80.2766C27.4919 80.2644 27.4736 80.2522 27.4553 80.2461H27.4492Z" fill="black"/>
<path id="Vector_31" d="M27.5052 80.3445C27.5113 80.43 27.5113 80.5032 27.493 80.5704C27.5174 80.7902 27.548 81.0039 27.5846 81.2114C27.8105 80.9489 27.78 80.491 27.4991 80.2773C27.4991 80.3018 27.4991 80.3201 27.4991 80.3445H27.5052Z" fill="black"/>
<path id="Vector_32" d="M29.5429 41.6558H29.7383C29.6833 41.6192 29.6223 41.5947 29.5673 41.5703C29.5551 41.5947 29.5429 41.6253 29.5429 41.6558Z" fill="black"/>
<path id="Vector_33" d="M29.5424 41.6562C29.4386 42.0287 29.6279 42.456 30.1041 42.395C30.3177 42.3706 30.5314 42.34 30.7451 42.3156C30.7451 42.2668 30.7573 42.2118 30.7695 42.163C30.4276 41.992 30.0796 41.8211 29.7378 41.6562H29.5424Z" fill="black"/>
<path id="Vector_34" d="M30.7714 42.1621C30.7592 42.211 30.747 42.2659 30.747 42.3147C30.8386 42.3025 30.9302 42.2903 31.0156 42.2781C30.9302 42.2415 30.8508 42.2048 30.7714 42.1621Z" fill="black"/>
<path id="Vector_35" d="M31.4986 41.8084C31.1383 41.6802 30.8758 41.8877 30.772 42.1625C30.8514 42.2052 30.9308 42.2418 31.0162 42.2785C31.468 42.2235 31.9137 42.1686 32.3594 42.1136C32.0724 42.0098 31.7855 41.9122 31.4986 41.8084Z" fill="black"/>
<path id="Vector_36" d="M35.3318 40.5146C33.5857 40.71 31.8458 40.9297 30.1058 41.1434C29.8249 41.1801 29.6479 41.3571 29.5685 41.5708C29.6235 41.5952 29.6845 41.6196 29.7395 41.6563H29.831C30.118 41.638 30.4721 41.638 30.9239 41.638H33.0912C36.9314 41.7723 40.5762 41.0091 44.1172 39.8125C41.1867 39.9224 38.2562 40.191 35.3318 40.5146Z" fill="black"/>
<path id="Vector_37" d="M31.1601 43.0119C32.3262 43.421 33.4923 43.8361 34.6584 44.2513C34.6889 44.2635 34.7195 44.2757 34.75 44.2818C33.5168 43.5858 32.2713 42.9264 31.0136 42.2793C30.9281 42.2915 30.8366 42.3037 30.745 42.3159C30.7084 42.5907 30.8305 42.8959 31.1601 43.0119Z" fill="black"/>
<path id="Vector_38" d="M37.0418 28.6452C36.5717 31.362 34.093 32.2289 31.8463 32.0274C26.7851 31.5757 21.8338 30.611 17.1633 28.4559C14.8372 27.3814 13.201 24.3654 13.7017 21.8257C13.8055 21.3189 14.0069 20.9526 14.532 20.8855C15.3745 20.7756 16.1804 20.3848 17.0595 20.5436C17.3831 20.5741 17.7128 20.568 18.0302 20.6474C18.3416 20.7206 18.6774 20.9282 18.8544 20.5008C19.062 20.0002 18.8361 19.6278 18.3843 19.3592C17.4869 18.828 16.4612 19.1211 15.5821 19.1455C12.8714 19.2371 11.9556 20.8 12.3768 23.529C12.9019 26.9174 14.709 28.8772 17.9265 30.1592C22.2917 31.8931 26.7485 32.87 31.3762 33.2668C35.5399 33.627 38.7146 30.8491 38.6353 26.9113C38.6353 26.7464 38.5009 26.4839 38.3849 26.4595C38.2445 26.4229 37.9698 26.545 37.9026 26.6793C37.5791 27.3142 37.1578 27.9553 37.0418 28.6452Z" fill="black"/>
<path id="Vector_39" d="M36.3075 16.5567C38.2184 16.7826 40.0377 16.0744 41.3565 14.5115C41.8632 13.9193 41.7716 13.1622 41.7411 12.4418C41.7167 11.8191 41.0024 11.1658 42.0158 10.5981C42.431 10.3661 41.8937 9.91427 41.6251 9.69449C40.4773 8.74208 39.1037 8.36966 37.6445 8.25977C34.2439 8.58334 33.2366 8.94965 32.1498 11.697C31.9423 12.2159 31.8263 12.6921 32.0461 13.205C32.8458 15.1037 34.3599 16.3308 36.3075 16.5567ZM40.5201 12.3197C40.6116 13.1867 40.2087 12.5517 39.9217 12.5151C38.7373 12.3502 37.4675 13.2843 37.4797 14.2734C37.5896 14.6519 37.9498 15.0915 37.2782 15.3662C36.1426 15.8302 33.2305 13.9132 33.2182 12.686C33.206 11.1903 34.83 9.77996 36.6982 9.65785C38.4077 9.54796 40.3552 10.8728 40.5201 12.3197Z" fill="black"/>
<path id="Vector_40" d="M34.1645 104.551C36.4417 110.247 38.719 115.943 40.9962 121.645C41.2465 122.274 42.2783 121.993 42.0219 121.358C40.7459 118.159 39.4638 114.954 38.1878 111.755C35.9777 106.224 33.7005 100.717 31.5881 95.1488C29.8726 90.6371 28.3341 86.0033 27.5831 81.2168C27.4854 81.3328 27.3328 81.4122 27.1313 81.4122C27.0031 81.4122 26.8932 81.3816 26.8017 81.3145C26.7467 81.5282 26.6918 81.7418 26.6307 81.9555C26.9665 83.958 27.4366 85.9361 27.9983 87.8898C29.6345 93.5859 31.9727 99.0562 34.1645 104.551Z" fill="black"/>
<path id="Vector_41" d="M42.9204 49.3843C40.2829 47.5527 37.5539 45.8494 34.7516 44.2804C34.7211 44.2743 34.6906 44.262 34.66 44.2498C33.4939 43.8347 32.3279 43.4195 31.1618 43.0105C30.8321 42.8945 30.71 42.5892 30.7466 42.3145C30.5329 42.3389 30.3193 42.3694 30.1056 42.3939C29.6294 42.4549 29.4401 42.0275 29.5439 41.6551H27.4498C27.2972 41.5269 27.0896 41.4292 26.8149 41.3682C26.7111 41.3438 26.6012 41.3193 26.4974 41.2949C26.4974 41.3621 26.4913 41.4292 26.4913 41.4964C29.2875 42.7663 32.0226 44.1583 34.6906 45.6784C37.0899 47.0399 39.4343 48.5052 41.7115 50.0681C42.3282 50.4893 42.9448 50.9167 43.5492 51.3563C43.9949 51.6799 44.9656 52.2598 44.5443 52.8948C44.1902 53.4381 43.2928 53.8777 42.7738 54.2623C42.1633 54.7202 41.5528 55.172 40.9423 55.6299C36.1131 59.2259 31.29 62.8218 26.4608 66.4117C26.4852 66.8207 26.5035 67.2298 26.5218 67.6388C26.6683 67.6938 26.8393 67.6816 27.0163 67.5472C30.0323 65.3005 33.0544 63.0538 36.0703 60.8071C38.7566 58.8046 41.449 56.796 44.1414 54.7935C45.0572 54.1097 46.321 53.3588 45.8264 52.0217C45.3869 50.819 43.9094 50.0742 42.9204 49.3843Z" fill="black"/>
<path id="Vector_42" d="M48.034 36.8453C43.9252 38.7257 39.6333 39.8551 35.3108 40.3436L35.3291 40.5145C38.2535 40.1909 41.184 39.9223 44.1145 39.8124C45.5126 39.3423 46.8924 38.7989 48.2599 38.225C49.9694 37.5046 51.3247 36.2836 52.3931 34.7146C52.8999 33.9636 53.4005 33.2005 53.8828 32.4373C53.3639 32.4373 52.9853 31.7902 53.3089 31.4422L53.0403 31.2773C51.7155 33.4203 50.4883 35.7219 48.034 36.8453Z" fill="black"/>
<path id="Vector_43" d="M54.9531 30.7207C54.4708 30.9039 53.9946 31.0992 53.5184 31.3007C53.4329 31.3373 53.3658 31.3862 53.3108 31.4411C52.9873 31.7891 53.3658 32.4363 53.8847 32.4363C54.251 31.8685 54.6051 31.2946 54.9531 30.7207Z" fill="black"/>
<path id="Vector_44" d="M30.1058 41.1424C31.8458 40.9288 33.5857 40.709 35.3318 40.5136L35.3135 40.3427C34.587 40.422 33.8605 40.4892 33.1339 40.5319C30.6369 40.3427 28.3719 40.19 26.1069 39.7932C23.7869 39.3903 21.5646 38.621 19.2446 38.1997C14.1895 37.2779 9.38476 35.6234 5.28208 32.3693C3.28568 30.7758 1.84486 28.8954 1.60065 26.1725C1.46633 24.7134 1.69222 23.3031 1.64948 21.8806C1.57011 19.1455 2.30884 16.795 4.1465 14.7009C5.77048 12.8388 6.97321 10.6348 8.98182 9.07189C12.2603 6.51381 16.0089 5.14625 20.0444 4.43805C22.0225 4.09616 23.9884 3.64438 26.0397 4.07784C27.0104 4.28542 27.9018 4.70057 28.8664 4.87762C29.4403 4.98752 30.0142 4.84099 30.1607 4.27321C30.3256 3.62606 29.6723 3.64438 29.2572 3.53448C27.6881 3.11933 26.1435 2.56986 24.4768 2.66755C24.2448 2.67976 23.909 2.69807 23.9151 2.32566C23.9151 2.25239 24.2143 2.17913 24.3791 2.12418C25.9359 1.62356 27.505 1.33661 29.1717 1.29388C33.0546 1.20841 36.8581 1.73345 40.6861 2.20966C46.022 2.88123 49.85 5.81172 53.0857 9.83504C55.1737 12.442 56.0956 15.6167 57.5181 18.541C58.4278 20.4214 58.3056 22.1797 57.2861 23.9502C55.9063 26.319 54.6181 28.7428 53.1712 31.0689C53.1285 31.136 53.0857 31.2093 53.043 31.2765L53.3116 31.4413C53.3665 31.3864 53.4337 31.3375 53.5192 31.3009C53.9954 31.0994 54.4716 30.904 54.9539 30.7209C56.1749 28.7245 57.3288 26.6854 58.4461 24.6279C59.661 22.4056 59.777 20.2016 58.7208 17.8756C57.1762 14.4872 55.9307 10.9523 53.4703 8.05232C50.9184 5.04857 47.7681 2.77133 44.105 1.46482C42.0048 0.713886 39.6116 0.793253 37.3587 0.439152C34.1169 -0.0736837 30.8567 -0.0919993 27.6088 0.152208C25.6795 0.292628 23.8724 0.8482 22.3705 2.27681C21.6501 2.9667 20.4718 2.9667 19.4827 3.22312C16.6499 3.95574 13.8049 4.46247 11.1797 6.00708C7.97447 7.89359 5.48965 10.3723 3.48715 13.4066C2.55916 14.8169 1.1916 15.9524 0.782555 17.6863C0.0377197 20.8549 0.080452 24.0601 0.416241 27.2531C0.672657 29.7257 2.16843 31.6122 4.02441 33.1141C8.34688 36.6185 13.4081 38.444 18.8173 39.4879C20.2642 39.7688 21.6928 40.1229 23.1275 40.4831C23.9212 40.2755 24.7271 40.0985 25.533 39.9336C25.8749 39.8604 26.1374 40.0374 26.2717 40.2816C26.4305 40.2023 26.6197 40.19 26.8151 40.2755C27.737 40.6907 28.6588 41.1241 29.5685 41.5698C29.6479 41.3561 29.8249 41.1791 30.1058 41.1424Z" fill="black"/>
<path id="Vector_45" d="M149.516 29.4697C146.115 28.2547 142.489 29.3598 139.479 31.1791C137.794 32.1926 136.243 33.4136 134.649 34.5492C133.074 35.6725 131.456 36.7287 129.778 37.6934C123.849 41.094 117.085 43.2369 110.217 41.9792C103.873 40.8192 98.2503 37.4125 92.6458 34.4027C89.813 32.8764 86.9313 31.4111 83.9154 30.2756C80.704 29.0728 77.334 28.3341 73.9212 28.0166C67.4863 27.4183 60.9721 28.4074 54.9523 30.7212C54.6043 31.2951 54.2502 31.869 53.8839 32.4368C53.9694 32.4368 54.0549 32.4185 54.1464 32.3819C61.3506 29.3109 69.4766 28.2975 77.1874 29.7139C83.7078 30.9105 89.4161 34.073 95.1794 37.1927C100.576 40.1232 106.218 42.9988 112.439 43.5299C119.093 44.0916 125.577 41.6678 131.206 38.3039C134.106 36.57 136.701 34.4271 139.54 32.6077C142.183 30.9166 145.517 29.549 148.643 30.477C148.887 30.2511 149.137 30.0314 149.394 29.8177L149.516 29.4697Z" fill="black"/>
<path id="Vector_46" d="M149.395 29.8184C149.139 30.032 148.888 30.2518 148.644 30.4777C148.937 30.5632 149.23 30.6731 149.523 30.8013C149.481 30.4716 149.438 30.1419 149.395 29.8184Z" fill="black"/>
<path id="Vector_47" d="M59.2528 53.6643C50.8215 48.6764 41.5599 45.3551 32.3594 42.1133C31.9137 42.1682 31.4681 42.2232 31.0163 42.2781C32.2739 42.9253 33.5194 43.5846 34.7527 44.2806C44.0509 47.5896 53.3613 51.1673 61.646 56.6253C69.8575 62.0406 76.6587 69.2203 83.8994 75.8017C90.7617 82.0473 98.2894 87.8717 107.142 90.9609C111.464 92.4689 116.055 93.232 120.634 92.9634C125.824 92.6581 130.854 91.2173 136.019 90.7472C140.647 90.3199 145.745 90.6068 149.671 93.3602C152.351 95.2406 154.42 98.3238 154.591 101.608C154.707 100.467 154.854 99.3128 155.086 98.1833C153.999 95.4665 151.881 93.1404 149.359 91.6813C145.208 89.282 140.147 89.0622 135.488 89.5506C130.171 90.1062 124.975 91.608 119.615 91.7546C114.926 91.8889 110.286 90.8998 105.933 89.1843C96.8546 85.6189 89.3331 79.1962 82.2877 72.6209C74.9981 65.8197 67.8916 58.7682 59.2528 53.6643Z" fill="black"/>
<path id="Vector_48" d="M155.628 104.032C155.695 103.214 155.762 102.384 155.848 101.548C155.848 101.438 155.842 101.334 155.829 101.224C155.732 100.174 155.475 99.1543 155.085 98.1836C154.853 99.3131 154.706 100.467 154.59 101.609C154.633 102.353 154.572 103.11 154.401 103.868L155.628 104.032Z" fill="black"/>
<path id="Vector_49" d="M154.383 104.032C154.322 104.746 155.451 104.874 155.61 104.203C155.805 103.33 155.903 102.438 155.848 101.547C155.763 102.383 155.695 103.214 155.628 104.032L154.401 103.867C154.572 103.11 154.633 102.353 154.59 101.608C154.511 102.426 154.444 103.238 154.383 104.032Z" fill="black"/>
<path id="Vector_50" d="M44.1166 39.8122C40.5756 41.0088 36.9308 41.772 33.0906 41.6377H30.9232C30.4715 41.6377 30.1174 41.6377 29.8304 41.656H29.7388C30.0807 41.8208 30.4287 41.9918 30.7706 42.1627C30.8744 41.888 31.1369 41.6804 31.4971 41.8086C31.7841 41.9124 32.071 42.0101 32.358 42.1139L34.5192 41.8574C40.3741 41.1859 46.3022 40.7036 52.1998 41.2347C57.6457 41.7231 62.9205 43.2494 67.8658 45.5755C77.6646 50.191 85.8577 57.4013 93.8128 64.6176C97.9766 68.3906 102.122 72.1941 106.512 75.7107C110.523 78.9159 114.864 82.4203 120.108 83.1529C124.9 83.8184 129.571 82.1761 133.985 80.4972C138.533 78.7633 143.063 76.9623 147.996 76.8463C151.751 76.7608 155.567 77.5423 158.662 79.7646C159.621 80.4483 160.457 81.2481 161.184 82.1334C160.677 81.1138 160.14 80.1065 159.596 79.0991C159.541 78.9953 159.486 78.8976 159.438 78.7938C158.925 78.4092 158.381 78.0612 157.807 77.7499C154.376 75.8756 150.365 75.3749 146.513 75.6741C141.5 76.0648 136.915 78.0979 132.257 79.8195C127.611 81.5351 122.623 82.9393 117.739 81.3214C115.163 80.4667 112.861 78.9465 110.688 77.353C108.361 75.6497 106.127 73.8303 103.935 71.9621C99.5822 68.2502 95.4124 64.3368 91.1387 60.5332C83.1654 53.439 74.612 46.6317 64.5323 42.8099C59.2574 40.8135 53.72 39.8672 48.091 39.7695C46.7662 39.745 45.4414 39.7695 44.1166 39.8122Z" fill="black"/>
<path id="Vector_51" d="M148.869 54.1357C151.592 57.8965 154.07 61.8832 155.847 66.1873C156.708 68.2631 157.404 70.406 157.88 72.6039C158.332 74.6979 158.484 76.8531 159.437 78.7945C160.456 79.5394 161.366 80.4124 162.172 81.3831C161.543 80.2231 160.908 79.0693 160.371 77.8849C159.443 75.8335 159.388 73.4281 158.845 71.2607C158.319 69.1544 157.599 67.1031 156.738 65.1067C154.962 60.9796 152.575 57.1394 149.949 53.5007C148.649 51.7058 147.232 49.9902 145.908 48.2075C144.455 46.2478 143.496 44.2025 143.856 41.7116C144.461 37.4319 147.013 33.4513 150.279 30.704C150.566 30.4597 150.499 29.8798 150.151 29.721C149.937 29.6294 149.729 29.544 149.516 29.4707L149.394 29.8187C149.436 30.1423 149.479 30.472 149.522 30.8016C149.229 30.6734 148.936 30.5635 148.643 30.4781C145.376 33.5184 142.843 37.8714 142.538 42.3404C142.373 44.697 143.325 46.7606 144.681 48.6288C146.03 50.497 147.519 52.2614 148.869 54.1357Z" fill="black"/>
<path id="Vector_52" d="M161.884 83.5614C162.586 85.0389 163.324 86.5713 163.672 88.1769C163.685 88.238 163.703 88.293 163.727 88.3357C163.947 88.2991 164.167 88.2807 164.387 88.2685C163.697 86.0401 162.659 83.9155 161.181 82.1328C161.426 82.6029 161.658 83.0791 161.884 83.5614Z" fill="black"/>
<path id="Vector_53" d="M163.73 88.3367C163.876 88.6297 164.206 88.6847 164.48 88.5748C164.45 88.471 164.419 88.3733 164.389 88.2695C164.169 88.2817 163.949 88.3001 163.73 88.3367Z" fill="black"/>
<path id="Vector_54" d="M158.273 93.3788C159.696 91.2176 162.168 89.502 164.781 89.5081C164.739 89.4532 164.702 89.3738 164.677 89.2883C164.616 89.0502 164.549 88.8121 164.482 88.574C164.207 88.6839 163.878 88.629 163.731 88.3359C161.307 88.6839 159.073 90.2224 157.583 92.2005C156.252 93.9649 155.526 96.0285 155.086 98.1836C155.477 99.1543 155.733 100.174 155.831 101.224C155.843 101.334 155.849 101.438 155.849 101.548C156.142 98.6842 156.68 95.7904 158.273 93.3788Z" fill="black"/>
<path id="Vector_55" d="M164.39 88.2681C164.421 88.3719 164.451 88.4695 164.482 88.5733C164.634 88.5123 164.763 88.4024 164.836 88.2559C164.689 88.2559 164.537 88.262 164.39 88.2681Z" fill="black"/>
<path id="Vector_56" d="M164.481 88.5733C164.548 88.8114 164.616 89.0495 164.677 89.2876C164.701 89.3731 164.738 89.4525 164.78 89.5074C165.073 89.5074 165.373 89.5318 165.672 89.5807C165.843 89.4525 165.953 89.2266 165.879 88.9519C165.824 88.7443 165.769 88.5306 165.708 88.323C165.415 88.2803 165.128 88.262 164.835 88.2559C164.762 88.4024 164.634 88.5123 164.481 88.5733Z" fill="black"/>
<path id="Vector_57" d="M161.183 82.1325C162.661 83.9152 163.699 86.0398 164.389 88.2682C164.535 88.2621 164.688 88.256 164.834 88.256C164.889 88.14 164.914 88.0057 164.877 87.847C164.383 85.5453 163.29 83.4573 162.173 81.3816C161.367 80.4108 160.457 79.5378 159.437 78.793C159.486 78.8968 159.541 78.9944 159.596 79.0982C160.139 80.1056 160.677 81.1129 161.183 82.1325Z" fill="black"/>
<path id="Vector_58" d="M164.895 85.9678C164.211 84.3072 163.302 82.7504 162.172 81.3828C163.289 83.4586 164.382 85.5465 164.877 87.8482C164.913 88.0069 164.889 88.1413 164.834 88.2573C165.127 88.2634 165.414 88.2817 165.707 88.3244C165.475 87.5246 165.213 86.7371 164.895 85.9678Z" fill="black"/>
<path id="Vector_59" d="M164.781 89.5078C164.994 89.7948 165.409 89.7825 165.672 89.5811C165.373 89.5322 165.074 89.5078 164.781 89.5078Z" fill="black"/>
<path id="Vector_60" d="M165.877 88.9531C165.95 89.2278 165.84 89.4537 165.669 89.5819C165.889 89.6124 166.109 89.6613 166.328 89.7223C167.104 89.9421 167.433 88.7394 166.664 88.5196C166.347 88.428 166.023 88.367 165.706 88.3242C165.767 88.5318 165.822 88.7455 165.877 88.9531Z" fill="black"/>
</g>
<defs>
<clipPath id="clip0_4574_7202">
<rect width="167.105" height="122" fill="white" transform="matrix(-1 0 0 1 167.105 0)"/>
</clipPath>
</defs>
</svg>
