<svg width="56" height="62" viewBox="0 0 56 62" fill="none" xmlns="http://www.w3.org/2000/svg">
<g id="Group">
<path id="Vector" d="M27.8371 62C26.947 62 26.0674 61.7695 25.2727 61.3189L2.56436 48.3561C0.985475 47.4549 0 45.7678 0 43.9654V18.0294C0 16.227 0.985475 14.5398 2.56436 13.6386L25.2727 0.675906C26.8516 -0.225302 28.8225 -0.225302 30.4014 0.675906L53.1098 13.6386C54.6887 14.5398 55.6741 16.227 55.6741 18.0294V43.9654C55.6741 45.7678 54.6887 47.4549 53.1098 48.3561L30.4014 61.3189C29.6067 61.7695 28.7272 62 27.8371 62ZM27.8371 1.30466C27.1801 1.30466 26.5231 1.47232 25.9403 1.80766L3.23194 14.7704C2.05573 15.4411 1.33516 16.6881 1.33516 18.0294V43.9654C1.33516 45.3067 2.06632 46.5537 3.23194 47.2244L25.9403 60.1871C27.1165 60.8578 28.5682 60.8578 29.7444 60.1871L52.4528 47.2244C53.629 46.5537 54.3496 45.3067 54.3496 43.9654V18.0294C54.3496 16.6881 53.6184 15.4411 52.4528 14.7704L29.7338 1.80766C29.151 1.47232 28.4941 1.30466 27.8371 1.30466Z" fill="#61BD73"/>
<path id="Vector_2" d="M33.1938 23.9919V30.5205L27.8319 27.4605L22.4701 30.5205V23.9919L16.1016 27.6387V34.5445L22.131 38.0026L27.8319 34.7436L33.5328 38.0026L39.5623 34.5445V27.6492L33.1938 23.9919Z" fill="white"/>
</g>
</svg>
