<svg width="220" height="78" viewBox="0 0 220 78" fill="none" xmlns="http://www.w3.org/2000/svg">
<g clip-path="url(#clip0_5367_795)">
<path d="M111.363 4.89062V36.8541" stroke="#130C49" stroke-width="1.29293" stroke-miterlimit="10"/>
<path d="M33.625 36.7033L111.363 4.89062L188.302 36.6983" stroke="#130C49" stroke-width="1.29293" stroke-miterlimit="10"/>
<path d="M14.0469 56.0758L33.833 36.6875L52.3683 55.9702" stroke="#130C49" stroke-width="1.29293" stroke-miterlimit="10"/>
<path d="M5.86719 69.6218L14.7832 56.0762L22.6042 69.6218" stroke="#130C49" stroke-width="1.29293" stroke-miterlimit="10"/>
<path d="M5.28459 76.7421C7.20434 76.7421 8.7606 75.1843 8.7606 73.2626C8.7606 71.341 7.20434 69.7832 5.28459 69.7832C3.36485 69.7832 1.80859 71.341 1.80859 73.2626C1.80859 75.1843 3.36485 76.7421 5.28459 76.7421Z" fill="#61BD73" stroke="#130C49" stroke-width="1.29293" stroke-miterlimit="10"/>
<path d="M23.4448 76.7421C25.3645 76.7421 26.9208 75.1843 26.9208 73.2626C26.9208 71.341 25.3645 69.7832 23.4448 69.7832C21.525 69.7832 19.9688 71.341 19.9688 73.2626C19.9688 75.1843 21.525 76.7421 23.4448 76.7421Z" fill="#61BD73" stroke="#130C49" stroke-width="1.29293" stroke-miterlimit="10"/>
<path d="M43.4727 69.6218L52.3887 56.0762L60.2097 69.6218" stroke="#130C49" stroke-width="1.29293" stroke-miterlimit="10"/>
<path d="M42.8901 76.7421C44.8098 76.7421 46.3661 75.1843 46.3661 73.2626C46.3661 71.341 44.8098 69.7832 42.8901 69.7832C40.9703 69.7832 39.4141 71.341 39.4141 73.2626C39.4141 75.1843 40.9703 76.7421 42.8901 76.7421Z" fill="#61BD73" stroke="#130C49" stroke-width="1.29293" stroke-miterlimit="10"/>
<path d="M61.0541 76.7421C62.9739 76.7421 64.5301 75.1843 64.5301 73.2626C64.5301 71.341 62.9739 69.7832 61.0541 69.7832C59.1344 69.7832 57.5781 71.341 57.5781 73.2626C57.5781 75.1843 59.1344 76.7421 61.0541 76.7421Z" fill="#61BD73" stroke="#130C49" stroke-width="1.29293" stroke-miterlimit="10"/>
<path d="M14.7924 60.1698C16.7122 60.1698 18.2684 58.612 18.2684 56.6904C18.2684 54.7687 16.7122 53.2109 14.7924 53.2109C12.8727 53.2109 11.3164 54.7687 11.3164 56.6904C11.3164 58.612 12.8727 60.1698 14.7924 60.1698Z" fill="#BCF0A7" stroke="#130C49" stroke-width="1.29293" stroke-miterlimit="10"/>
<path d="M52.4916 60.1698C54.4114 60.1698 55.9676 58.612 55.9676 56.6904C55.9676 54.7687 54.4114 53.2109 52.4916 53.2109C50.5719 53.2109 49.0156 54.7687 49.0156 56.6904C49.0156 58.612 50.5719 60.1698 52.4916 60.1698Z" fill="#BCF0A7" stroke="#130C49" stroke-width="1.29293" stroke-miterlimit="10"/>
<path d="M91.5312 56.0758L111.317 36.6875L129.853 55.9702" stroke="#130C49" stroke-width="1.29293" stroke-miterlimit="10"/>
<path d="M83.3477 69.6218L92.2637 56.0762L100.085 69.6218" stroke="#130C49" stroke-width="1.29293" stroke-miterlimit="10"/>
<path d="M82.7651 76.7421C84.6848 76.7421 86.2411 75.1843 86.2411 73.2626C86.2411 71.341 84.6848 69.7832 82.7651 69.7832C80.8453 69.7832 79.2891 71.341 79.2891 73.2626C79.2891 75.1843 80.8453 76.7421 82.7651 76.7421Z" fill="#61BD73" stroke="#130C49" stroke-width="1.29293" stroke-miterlimit="10"/>
<path d="M100.929 76.7421C102.849 76.7421 104.405 75.1843 104.405 73.2626C104.405 71.341 102.849 69.7832 100.929 69.7832C99.0094 69.7832 97.4531 71.341 97.4531 73.2626C97.4531 75.1843 99.0094 76.7421 100.929 76.7421Z" fill="#61BD73" stroke="#130C49" stroke-width="1.29293" stroke-miterlimit="10"/>
<path d="M120.957 69.6218L129.873 56.0762L137.694 69.6218" stroke="#130C49" stroke-width="1.29293" stroke-miterlimit="10"/>
<path d="M120.374 76.7421C122.294 76.7421 123.85 75.1843 123.85 73.2626C123.85 71.341 122.294 69.7832 120.374 69.7832C118.455 69.7832 116.898 71.341 116.898 73.2626C116.898 75.1843 118.455 76.7421 120.374 76.7421Z" fill="#61BD73" stroke="#130C49" stroke-width="1.29293" stroke-miterlimit="10"/>
<path d="M138.535 76.7421C140.454 76.7421 142.011 75.1843 142.011 73.2626C142.011 71.341 140.454 69.7832 138.535 69.7832C136.615 69.7832 135.059 71.341 135.059 73.2626C135.059 75.1843 136.615 76.7421 138.535 76.7421Z" fill="#61BD73" stroke="#130C49" stroke-width="1.29293" stroke-miterlimit="10"/>
<path d="M92.2729 60.1698C94.1926 60.1698 95.7489 58.612 95.7489 56.6904C95.7489 54.7687 94.1926 53.2109 92.2729 53.2109C90.3531 53.2109 88.7969 54.7687 88.7969 56.6904C88.7969 58.612 90.3531 60.1698 92.2729 60.1698Z" fill="#BCF0A7" stroke="#130C49" stroke-width="1.29293" stroke-miterlimit="10"/>
<path d="M129.972 60.1698C131.892 60.1698 133.448 58.612 133.448 56.6904C133.448 54.7687 131.892 53.2109 129.972 53.2109C128.052 53.2109 126.496 54.7687 126.496 56.6904C126.496 58.612 128.052 60.1698 129.972 60.1698Z" fill="#BCF0A7" stroke="#130C49" stroke-width="1.29293" stroke-miterlimit="10"/>
<path d="M168.293 56.0758L188.074 36.6875L206.609 55.9702" stroke="#130C49" stroke-width="1.29293" stroke-miterlimit="10"/>
<path d="M160.105 69.6218L169.022 56.0762L176.843 69.6218" stroke="#130C49" stroke-width="1.29293" stroke-miterlimit="10"/>
<path d="M159.523 76.7421C161.443 76.7421 162.999 75.1843 162.999 73.2626C162.999 71.341 161.443 69.7832 159.523 69.7832C157.603 69.7832 156.047 71.341 156.047 73.2626C156.047 75.1843 157.603 76.7421 159.523 76.7421Z" fill="#61BD73" stroke="#130C49" stroke-width="1.29293" stroke-miterlimit="10"/>
<path d="M177.687 76.7421C179.607 76.7421 181.163 75.1843 181.163 73.2626C181.163 71.341 179.607 69.7832 177.687 69.7832C175.767 69.7832 174.211 71.341 174.211 73.2626C174.211 75.1843 175.767 76.7421 177.687 76.7421Z" fill="#61BD73" stroke="#130C49" stroke-width="1.29293" stroke-miterlimit="10"/>
<path d="M197.715 69.6218L206.631 56.0762L214.452 69.6218" stroke="#130C49" stroke-width="1.29293" stroke-miterlimit="10"/>
<path d="M197.132 76.7421C199.052 76.7421 200.608 75.1843 200.608 73.2626C200.608 71.341 199.052 69.7832 197.132 69.7832C195.213 69.7832 193.656 71.341 193.656 73.2626C193.656 75.1843 195.213 76.7421 197.132 76.7421Z" fill="#61BD73" stroke="#130C49" stroke-width="1.29293" stroke-miterlimit="10"/>
<path d="M215.296 76.7421C217.216 76.7421 218.772 75.1843 218.772 73.2626C218.772 71.341 217.216 69.7832 215.296 69.7832C213.377 69.7832 211.82 71.341 211.82 73.2626C211.82 75.1843 213.377 76.7421 215.296 76.7421Z" fill="#61BD73" stroke="#130C49" stroke-width="1.29293" stroke-miterlimit="10"/>
<path d="M169.031 60.1698C170.95 60.1698 172.507 58.612 172.507 56.6904C172.507 54.7687 170.95 53.2109 169.031 53.2109C167.111 53.2109 165.555 54.7687 165.555 56.6904C165.555 58.612 167.111 60.1698 169.031 60.1698Z" fill="#BCF0A7" stroke="#130C49" stroke-width="1.29293" stroke-miterlimit="10"/>
<path d="M206.73 60.1698C208.65 60.1698 210.206 58.612 210.206 56.6904C210.206 54.7687 208.65 53.2109 206.73 53.2109C204.81 53.2109 203.254 54.7687 203.254 56.6904C203.254 58.612 204.81 60.1698 206.73 60.1698Z" fill="#BCF0A7" stroke="#130C49" stroke-width="1.29293" stroke-miterlimit="10"/>
<path d="M33.6244 40.1835C35.5442 40.1835 37.1004 38.6257 37.1004 36.704C37.1004 34.7824 35.5442 33.2246 33.6244 33.2246C31.7047 33.2246 30.1484 34.7824 30.1484 36.704C30.1484 38.6257 31.7047 40.1835 33.6244 40.1835Z" fill="#7AD6EB" stroke="#130C49" stroke-width="1.29293" stroke-miterlimit="10"/>
<path d="M111.367 40.3339C113.286 40.3339 114.843 38.7761 114.843 36.8544C114.843 34.9328 113.286 33.375 111.367 33.375C109.447 33.375 107.891 34.9328 107.891 36.8544C107.891 38.7761 109.447 40.3339 111.367 40.3339Z" fill="#7AD6EB" stroke="#130C49" stroke-width="1.29293" stroke-miterlimit="10"/>
<path d="M188.3 40.1776C190.22 40.1776 191.776 38.6198 191.776 36.6982C191.776 34.7766 190.22 33.2188 188.3 33.2188C186.38 33.2188 184.824 34.7766 184.824 36.6982C184.824 38.6198 186.38 40.1776 188.3 40.1776Z" fill="#7AD6EB" stroke="#130C49" stroke-width="1.29293" stroke-miterlimit="10"/>
<path d="M111.363 8.36901C113.282 8.36901 114.839 6.81122 114.839 4.88959C114.839 2.96795 113.282 1.41016 111.363 1.41016C109.443 1.41016 107.887 2.96795 107.887 4.88959C107.887 6.81122 109.443 8.36901 111.363 8.36901Z" fill="#F4404E" stroke="#130C49" stroke-width="1.29293" stroke-miterlimit="10"/>
</g>
<defs>
<clipPath id="clip0_5367_795">
<rect width="218.506" height="76.9296" fill="white" transform="translate(0.847656 0.460938)"/>
</clipPath>
</defs>
</svg>
