<svg width="213" height="107" viewBox="0 0 213 107" fill="none" xmlns="http://www.w3.org/2000/svg">
<g clip-path="url(#clip0_44_7523)">
<path d="M139.263 28.4154C139.263 28.4154 139.24 28.4154 139.229 28.4154L1.3477 21.0756C1.07586 21.0643 0.849324 20.8491 0.815344 20.5773C0.781363 20.3054 0.951265 20.0449 1.22311 19.9656L68.5608 0.257029C68.6174 0.245702 68.674 0.234375 68.7307 0.234375L212.445 4.14211C212.717 4.14211 212.954 4.35732 212.988 4.62916C213.022 4.90101 212.864 5.16152 212.603 5.25214L139.421 28.4041C139.421 28.4041 139.308 28.4267 139.251 28.4267L139.263 28.4154ZM4.72308 20.1242L139.195 27.2827L209.069 5.18418L68.7986 1.36705L4.72308 20.1242Z" fill="#131144"/>
<path d="M147.124 62.7016C147.124 62.7016 147.09 62.7016 147.078 62.7016L0.521199 51.2276C0.249356 51.2049 0.0341475 51.001 0.000167136 50.7292C-0.0338132 50.4574 0.124762 50.2082 0.385278 50.1289L67.8022 28.1663C67.8702 28.1436 67.9382 28.1323 68.0061 28.1436L212.457 35.2228C212.717 35.2342 212.944 35.4267 212.989 35.6986C213.034 35.9704 212.887 36.2196 212.638 36.3215L147.328 62.6676C147.26 62.6903 147.192 62.7129 147.112 62.7129L147.124 62.7016ZM3.44351 50.3214L147.033 61.5576L209.829 36.2196L68.0628 29.2763L3.44351 50.3214Z" fill="#131144"/>
<path d="M134.12 106.378C134.12 106.378 134.064 106.378 134.03 106.378L3.39793 86.0801C3.13742 86.0348 2.94486 85.8309 2.92221 85.5817C2.89955 85.3212 3.0468 85.0833 3.29599 84.9927L69.2631 60.7874C69.3424 60.7647 69.4217 60.7534 69.501 60.7534L212.49 72.2161C212.751 72.2388 212.966 72.4313 213 72.6918C213.034 72.9524 212.898 73.2015 212.66 73.3035L134.335 106.332C134.267 106.366 134.188 106.378 134.12 106.378ZM5.74257 85.2985L134.052 105.222L210.089 73.1562L69.535 61.8861L5.74257 85.2985Z" fill="#131144"/>
<path d="M75.9463 14.0191C79.7184 14.0191 82.7763 12.873 82.7763 11.4593C82.7763 10.0455 79.7184 8.89941 75.9463 8.89941C72.1741 8.89941 69.1162 10.0455 69.1162 11.4593C69.1162 12.873 72.1741 14.0191 75.9463 14.0191Z" fill="#55CBDE"/>
<path d="M75.9462 14.5966C72.3556 14.5966 68.5498 13.4979 68.5498 11.4704C68.5498 9.44294 72.3669 8.34424 75.9462 8.34424C79.5255 8.34424 83.3426 9.44294 83.3426 11.4704C83.3426 13.4979 79.5255 14.5966 75.9462 14.5966ZM75.9462 9.46559C72.1177 9.46559 69.6825 10.6436 69.6825 11.4591C69.6825 12.2746 72.1177 13.4526 75.9462 13.4526C79.7746 13.4526 82.2099 12.2746 82.2099 11.4591C82.2099 10.6436 79.7746 9.46559 75.9462 9.46559Z" fill="#131144"/>
<path d="M48.3882 46.5269C52.1603 46.5269 55.2182 45.3808 55.2182 43.9671C55.2182 42.5533 52.1603 41.4072 48.3882 41.4072C44.616 41.4072 41.5581 42.5533 41.5581 43.9671C41.5581 45.3808 44.616 46.5269 48.3882 46.5269Z" fill="#55CBDE"/>
<path d="M48.3881 47.0932C44.7975 47.0932 40.9917 45.9945 40.9917 43.967C40.9917 41.9395 44.8088 40.8408 48.3881 40.8408C51.9673 40.8408 55.7845 41.9395 55.7845 43.967C55.7845 45.9945 51.9673 47.0932 48.3881 47.0932ZM48.3881 41.9735C44.5596 41.9735 42.1244 43.1515 42.1244 43.967C42.1244 44.7825 44.5596 45.9605 48.3881 45.9605C52.2165 45.9605 54.6518 44.7825 54.6518 43.967C54.6518 43.1515 52.2165 41.9735 48.3881 41.9735Z" fill="#131144"/>
<path d="M77.4072 39.3116C81.1793 39.3116 84.2372 38.1655 84.2372 36.7517C84.2372 35.338 81.1793 34.1919 77.4072 34.1919C73.6351 34.1919 70.5771 35.338 70.5771 36.7517C70.5771 38.1655 73.6351 39.3116 77.4072 39.3116Z" fill="#55CBDE"/>
<path d="M77.4071 39.8779C73.8165 39.8779 70.0107 38.7792 70.0107 36.7517C70.0107 34.7242 73.8279 33.6255 77.4071 33.6255C80.9864 33.6255 84.8035 34.7242 84.8035 36.7517C84.8035 38.7792 80.9864 39.8779 77.4071 39.8779ZM77.4071 34.7582C73.5787 34.7582 71.1434 35.9362 71.1434 36.7517C71.1434 37.5672 73.5787 38.7452 77.4071 38.7452C81.2356 38.7452 83.6708 37.5672 83.6708 36.7517C83.6708 35.9362 81.2356 34.7582 77.4071 34.7582Z" fill="#131144"/>
<path d="M103.923 38.6436C107.695 38.6436 110.753 37.4975 110.753 36.0838C110.753 34.67 107.695 33.5239 103.923 33.5239C100.151 33.5239 97.0933 34.67 97.0933 36.0838C97.0933 37.4975 100.151 38.6436 103.923 38.6436Z" fill="#55CBDE"/>
<path d="M103.923 39.2099C100.333 39.2099 96.5269 38.1112 96.5269 36.0837C96.5269 34.0562 100.344 32.9575 103.923 32.9575C107.502 32.9575 111.32 34.0562 111.32 36.0837C111.32 38.1112 107.502 39.2099 103.923 39.2099ZM103.923 34.0902C100.095 34.0902 97.6595 35.2682 97.6595 36.0837C97.6595 36.8992 100.095 38.0772 103.923 38.0772C107.752 38.0772 110.187 36.8992 110.187 36.0837C110.187 35.2682 107.74 34.0902 103.923 34.0902Z" fill="#131144"/>
<path d="M108.284 51.0577C112.056 51.0577 115.114 49.9116 115.114 48.4978C115.114 47.0841 112.056 45.938 108.284 45.938C104.512 45.938 101.454 47.0841 101.454 48.4978C101.454 49.9116 104.512 51.0577 108.284 51.0577Z" fill="#55CBDE"/>
<path d="M108.284 51.624C104.693 51.624 100.888 50.5253 100.888 48.4978C100.888 46.4703 104.705 45.3716 108.284 45.3716C111.863 45.3716 115.68 46.4703 115.68 48.4978C115.68 50.5253 111.863 51.624 108.284 51.624ZM108.284 46.5043C104.456 46.5043 102.02 47.6822 102.02 48.4978C102.02 49.3133 104.456 50.4913 108.284 50.4913C112.113 50.4913 114.548 49.3133 114.548 48.4978C114.548 47.6822 112.113 46.5043 108.284 46.5043Z" fill="#131144"/>
<path d="M148.494 43.3443C152.266 43.3443 155.324 42.1982 155.324 40.7845C155.324 39.3707 152.266 38.2246 148.494 38.2246C144.722 38.2246 141.664 39.3707 141.664 40.7845C141.664 42.1982 144.722 43.3443 148.494 43.3443Z" fill="#55CBDE"/>
<path d="M148.494 43.9106C144.903 43.9106 141.098 42.8119 141.098 40.7844C141.098 38.7569 144.915 37.6582 148.494 37.6582C152.073 37.6582 155.89 38.7569 155.89 40.7844C155.89 42.8119 152.073 43.9106 148.494 43.9106ZM148.494 38.7796C144.666 38.7796 142.23 39.9575 142.23 40.7731C142.23 41.5886 144.666 42.7666 148.494 42.7666C152.322 42.7666 154.758 41.5886 154.758 40.7731C154.758 39.9575 152.322 38.7796 148.494 38.7796Z" fill="#131144"/>
<path d="M131.447 56.336C135.219 56.336 138.277 55.1899 138.277 53.7762C138.277 52.3624 135.219 51.2163 131.447 51.2163C127.675 51.2163 124.617 52.3624 124.617 53.7762C124.617 55.1899 127.675 56.336 131.447 56.336Z" fill="#55CBDE"/>
<path d="M131.447 56.9135C127.857 56.9135 124.051 55.8148 124.051 53.7873C124.051 51.7598 127.868 50.6611 131.447 50.6611C135.026 50.6611 138.844 51.7598 138.844 53.7873C138.844 55.8148 135.026 56.9135 131.447 56.9135ZM131.447 51.7825C127.619 51.7825 125.183 52.9605 125.183 53.776C125.183 54.5915 127.619 55.7695 131.447 55.7695C135.276 55.7695 137.711 54.5915 137.711 53.776C137.711 52.9605 135.276 51.7825 131.447 51.7825Z" fill="#131144"/>
<path d="M46.4736 82.0362C50.2457 82.0362 53.3036 80.8901 53.3036 79.4764C53.3036 78.0626 50.2457 76.9165 46.4736 76.9165C42.7015 76.9165 39.6436 78.0626 39.6436 79.4764C39.6436 80.8901 42.7015 82.0362 46.4736 82.0362Z" fill="#55CBDE"/>
<path d="M46.4735 82.6142C42.8829 82.6142 39.0771 81.5155 39.0771 79.488C39.0771 77.4605 42.8943 76.3618 46.4735 76.3618C50.0528 76.3618 53.8699 77.4605 53.8699 79.488C53.8699 81.5155 50.0528 82.6142 46.4735 82.6142ZM46.4735 77.4832C42.6451 77.4832 40.2098 78.6612 40.2098 79.4767C40.2098 80.2922 42.6451 81.4702 46.4735 81.4702C50.302 81.4702 52.7372 80.2922 52.7372 79.4767C52.7372 78.6612 50.302 77.4832 46.4735 77.4832Z" fill="#131144"/>
<path d="M76.9541 70.4263C80.7262 70.4263 83.7841 69.2803 83.7841 67.8665C83.7841 66.4527 80.7262 65.3066 76.9541 65.3066C73.1819 65.3066 70.124 66.4527 70.124 67.8665C70.124 69.2803 73.1819 70.4263 76.9541 70.4263Z" fill="#55CBDE"/>
<path d="M76.954 70.9926C73.3634 70.9926 69.5576 69.8939 69.5576 67.8664C69.5576 65.8389 73.3747 64.7402 76.954 64.7402C80.5333 64.7402 84.3504 65.8389 84.3504 67.8664C84.3504 69.8939 80.5333 70.9926 76.954 70.9926ZM76.954 65.8729C73.1256 65.8729 70.6903 67.0509 70.6903 67.8664C70.6903 68.682 73.1256 69.8599 76.954 69.8599C80.7825 69.8599 83.2177 68.682 83.2177 67.8664C83.2177 67.0509 80.7711 65.8729 76.954 65.8729Z" fill="#131144"/>
<path d="M104.818 73.5074C108.59 73.5074 111.648 72.3613 111.648 70.9475C111.648 69.5338 108.59 68.3877 104.818 68.3877C101.046 68.3877 97.9878 69.5338 97.9878 70.9475C97.9878 72.3613 101.046 73.5074 104.818 73.5074Z" fill="#55CBDE"/>
<path d="M104.818 74.0849C101.227 74.0849 97.4214 72.9862 97.4214 70.9587C97.4214 68.9312 101.239 67.8325 104.818 67.8325C108.397 67.8325 112.214 68.9312 112.214 70.9587C112.214 72.9862 108.397 74.0849 104.818 74.0849ZM104.818 68.9539C100.989 68.9539 98.5541 70.1319 98.5541 70.9474C98.5541 71.7629 100.989 72.9409 104.818 72.9409C108.646 72.9409 111.081 71.7629 111.081 70.9474C111.081 70.1319 108.646 68.9539 104.818 68.9539Z" fill="#131144"/>
<path d="M123.824 84.2564C127.596 84.2564 130.654 83.1103 130.654 81.6966C130.654 80.2828 127.596 79.1367 123.824 79.1367C120.052 79.1367 116.994 80.2828 116.994 81.6966C116.994 83.1103 120.052 84.2564 123.824 84.2564Z" fill="#55CBDE"/>
<path d="M123.824 84.8227C120.234 84.8227 116.428 83.724 116.428 81.6965C116.428 79.669 120.245 78.5703 123.824 78.5703C127.403 78.5703 131.22 79.669 131.22 81.6965C131.22 83.724 127.403 84.8227 123.824 84.8227ZM123.824 79.703C119.996 79.703 117.56 80.881 117.56 81.6965C117.56 82.512 120.007 83.69 123.824 83.69C127.641 83.69 130.088 82.512 130.088 81.6965C130.088 80.881 127.653 79.703 123.824 79.703Z" fill="#131144"/>
<path d="M151.473 86.8614C155.245 86.8614 158.303 85.7153 158.303 84.3016C158.303 82.8878 155.245 81.7417 151.473 81.7417C147.701 81.7417 144.643 82.8878 144.643 84.3016C144.643 85.7153 147.701 86.8614 151.473 86.8614Z" fill="#55CBDE"/>
<path d="M151.473 87.4277C147.882 87.4277 144.077 86.329 144.077 84.3015C144.077 82.274 147.894 81.1753 151.473 81.1753C155.052 81.1753 158.869 82.274 158.869 84.3015C158.869 86.329 155.052 87.4277 151.473 87.4277ZM151.473 82.308C147.645 82.308 145.209 83.486 145.209 84.3015C145.209 85.117 147.656 86.295 151.473 86.295C155.29 86.295 157.737 85.117 157.737 84.3015C157.737 83.486 155.301 82.308 151.473 82.308Z" fill="#131144"/>
<path d="M129.261 98.9586C133.033 98.9586 136.091 97.8125 136.091 96.3987C136.091 94.985 133.033 93.8389 129.261 93.8389C125.489 93.8389 122.431 94.985 122.431 96.3987C122.431 97.8125 125.489 98.9586 129.261 98.9586Z" fill="#55CBDE"/>
<path d="M129.261 99.5248C125.671 99.5248 121.865 98.4261 121.865 96.3987C121.865 94.3712 125.682 93.2725 129.261 93.2725C132.84 93.2725 136.658 94.3712 136.658 96.3987C136.658 98.4261 132.84 99.5248 129.261 99.5248ZM129.261 94.4051C125.433 94.4051 122.997 95.5831 122.997 96.3987C122.997 97.2142 125.433 98.3922 129.261 98.3922C133.09 98.3922 135.525 97.2142 135.525 96.3987C135.525 95.5831 133.09 94.4051 129.261 94.4051Z" fill="#131144"/>
<path d="M107.537 92.3209C111.309 92.3209 114.367 91.1748 114.367 89.761C114.367 88.3473 111.309 87.2012 107.537 87.2012C103.764 87.2012 100.707 88.3473 100.707 89.761C100.707 91.1748 103.764 92.3209 107.537 92.3209Z" fill="#55CBDE"/>
<path d="M107.537 92.8872C103.946 92.8872 100.14 91.7885 100.14 89.761C100.14 87.7335 103.957 86.6348 107.537 86.6348C111.116 86.6348 114.933 87.7335 114.933 89.761C114.933 91.7885 111.116 92.8872 107.537 92.8872ZM107.537 87.7674C103.708 87.7674 101.273 88.9454 101.273 89.761C101.273 90.5765 103.719 91.7545 107.537 91.7545C111.354 91.7545 113.8 90.5765 113.8 89.761C113.8 88.9454 111.365 87.7674 107.537 87.7674Z" fill="#131144"/>
<path d="M87.2617 84.2564C91.0338 84.2564 94.0917 83.1103 94.0917 81.6966C94.0917 80.2828 91.0338 79.1367 87.2617 79.1367C83.4896 79.1367 80.4316 80.2828 80.4316 81.6966C80.4316 83.1103 83.4896 84.2564 87.2617 84.2564Z" fill="#55CBDE"/>
<path d="M87.2616 84.8227C83.671 84.8227 79.8652 83.724 79.8652 81.6965C79.8652 79.669 83.6824 78.5703 87.2616 78.5703C90.8409 78.5703 94.658 79.669 94.658 81.6965C94.658 83.724 90.8409 84.8227 87.2616 84.8227ZM87.2616 79.703C83.4332 79.703 80.9979 80.881 80.9979 81.6965C80.9979 82.512 83.4332 83.69 87.2616 83.69C91.0901 83.69 93.5253 82.512 93.5253 81.6965C93.5253 80.881 91.0787 79.703 87.2616 79.703Z" fill="#131144"/>
<path d="M149.072 16.2052C152.844 16.2052 155.902 15.0591 155.902 13.6453C155.902 12.2315 152.844 11.0854 149.072 11.0854C145.3 11.0854 142.242 12.2315 142.242 13.6453C142.242 15.0591 145.3 16.2052 149.072 16.2052Z" fill="#61BD73"/>
<path d="M149.072 16.7714C145.481 16.7714 141.675 15.6727 141.675 13.6452C141.675 11.6177 145.492 10.519 149.072 10.519C152.651 10.519 156.468 11.6177 156.468 13.6452C156.468 15.6727 152.651 16.7714 149.072 16.7714ZM149.072 11.6517C145.243 11.6517 142.808 12.8297 142.808 13.6452C142.808 14.4608 145.243 15.6387 149.072 15.6387C152.9 15.6387 155.335 14.4608 155.335 13.6452C155.335 12.8297 152.889 11.6517 149.072 11.6517Z" fill="#131144"/>
<path d="M139.365 13.8267H139.353L85.3248 12.1503C85.0869 12.1503 84.9057 11.9464 84.917 11.7085C84.917 11.4707 85.1435 11.3234 85.3588 11.3008L139.387 12.9771C139.625 12.9771 139.807 13.181 139.795 13.4189C139.795 13.6454 139.603 13.8267 139.365 13.8267Z" fill="#131144"/>
<path d="M56.5435 42.8683C56.3736 42.8683 56.215 42.7663 56.147 42.6078C56.0564 42.3926 56.147 42.1434 56.3736 42.0528L68.6405 36.8878C68.8557 36.7971 69.1049 36.8878 69.1955 37.1143C69.2861 37.3295 69.1955 37.5787 68.9689 37.6693L56.702 42.8343C56.702 42.8343 56.5888 42.8683 56.5321 42.8683H56.5435Z" fill="#131144"/>
<path d="M86.2989 37.4656C86.0837 37.4656 85.8912 37.2957 85.8798 37.0692C85.8572 36.8313 86.0384 36.6274 86.2763 36.6161L95.2811 35.9365C95.5189 35.9138 95.7228 36.0951 95.7341 36.3329C95.7455 36.5708 95.5756 36.7747 95.3377 36.786L86.3329 37.4656C86.3329 37.4656 86.3103 37.4656 86.2989 37.4656Z" fill="#131144"/>
<path d="M99.7436 49.0527C99.7436 49.0527 99.721 49.0527 99.6983 49.0527L56.8378 44.9184C56.6 44.8958 56.4301 44.6919 56.4527 44.454C56.4754 44.2162 56.6906 44.0463 56.9171 44.0689L99.7776 48.2032C100.015 48.2258 100.185 48.4297 100.163 48.6676C100.14 48.8828 99.9588 49.0527 99.7436 49.0527Z" fill="#131144"/>
<path d="M107.197 44.3749C107.015 44.3749 106.846 44.2503 106.789 44.0691L105.77 40.4218C105.702 40.1953 105.837 39.9574 106.064 39.9008C106.291 39.8442 106.528 39.9688 106.585 40.1953L107.604 43.8425C107.672 44.0691 107.536 44.3069 107.31 44.3635C107.276 44.3635 107.231 44.3749 107.197 44.3749Z" fill="#131144"/>
<path d="M116.598 47.7843C116.405 47.7843 116.235 47.6597 116.19 47.4671C116.133 47.2406 116.269 47.0141 116.496 46.9461L139.92 40.9542C140.146 40.8976 140.373 41.0335 140.441 41.2601C140.497 41.4866 140.361 41.7131 140.135 41.7811L116.711 47.773C116.711 47.773 116.643 47.7843 116.609 47.7843H116.598Z" fill="#131144"/>
<path d="M122.782 53.2775C122.782 53.2775 122.68 53.2775 122.624 53.2435L116.134 50.6837C115.918 50.5931 115.805 50.3552 115.896 50.1287C115.986 49.9135 116.224 49.8002 116.451 49.8908L122.941 52.4507C123.156 52.5413 123.269 52.7791 123.179 53.0057C123.111 53.1756 122.952 53.2775 122.782 53.2775Z" fill="#131144"/>
<path d="M139.546 52.7226C139.432 52.7226 139.308 52.6773 139.229 52.5754C139.07 52.3942 139.093 52.1337 139.274 51.9751L147.848 44.5221C148.03 44.3635 148.29 44.3861 148.449 44.5674C148.607 44.7486 148.585 45.0091 148.403 45.1677L139.829 52.6207C139.75 52.6887 139.648 52.7226 139.546 52.7226Z" fill="#131144"/>
<path d="M55.0026 79.2046C54.8327 79.2046 54.6741 79.1026 54.6061 78.9441C54.5155 78.7289 54.6288 78.4797 54.844 78.3891L72.8309 71.1286C73.0461 71.038 73.2953 71.1512 73.3859 71.3665C73.4765 71.5817 73.3633 71.8309 73.1481 71.9215L55.1611 79.1819C55.1611 79.1819 55.0592 79.2159 55.0026 79.2159V79.2046Z" fill="#131144"/>
<path d="M95.8586 71.7518C95.8586 71.7518 95.8019 71.7518 95.7793 71.7518L85.5286 69.713C85.302 69.6677 85.1548 69.4411 85.2001 69.2146C85.2454 68.9881 85.4719 68.8408 85.6985 68.8861L95.9492 70.9249C96.1757 70.9702 96.323 71.1968 96.2777 71.4233C96.2324 71.6272 96.0625 71.7631 95.8586 71.7631V71.7518Z" fill="#131144"/>
<path d="M82.7083 78.4457C82.5724 78.4457 82.4365 78.3778 82.3572 78.2532L78.4495 72.3519C78.3249 72.1594 78.3702 71.8875 78.5741 71.7629C78.7666 71.6384 79.0385 71.6837 79.1631 71.8875L83.0708 77.7888C83.1954 77.9813 83.1501 78.2532 82.9462 78.3778C82.8782 78.4231 82.7876 78.4457 82.7083 78.4457Z" fill="#131144"/>
<path d="M120.018 77.7207C119.951 77.7207 119.883 77.7093 119.826 77.6754L112.169 73.7676C111.965 73.6657 111.875 73.4052 111.988 73.2013C112.09 72.9974 112.35 72.9068 112.554 73.02L120.211 76.9278C120.415 77.0297 120.506 77.2902 120.392 77.4941C120.313 77.6414 120.166 77.7207 120.018 77.7207Z" fill="#131144"/>
<path d="M142.717 84.0525C142.717 84.0525 142.672 84.0525 142.649 84.0525L132.648 82.3082C132.421 82.2629 132.263 82.0476 132.297 81.8211C132.342 81.5833 132.557 81.436 132.784 81.4813L142.785 83.2256C143.012 83.2709 143.17 83.4861 143.136 83.7127C143.102 83.9166 142.921 84.0638 142.717 84.0638V84.0525Z" fill="#131144"/>
<path d="M99.0185 89.2064C99.0185 89.2064 98.9165 89.2064 98.8712 89.1838L90.3875 86.1029C90.1723 86.0236 90.0477 85.7744 90.1383 85.5592C90.2176 85.344 90.4554 85.2307 90.682 85.31L99.1657 88.3909C99.3809 88.4702 99.5055 88.7194 99.4149 88.9346C99.347 89.1045 99.1884 89.2177 99.0185 89.2177V89.2064Z" fill="#131144"/>
<path d="M90.5351 77.7207C90.3652 77.7207 90.1953 77.6187 90.1386 77.4375C90.0593 77.2223 90.1726 76.9731 90.3878 76.8938L98.8716 73.8129C99.0981 73.7337 99.336 73.8469 99.4152 74.0621C99.4945 74.2773 99.3813 74.5265 99.1661 74.6058L90.6823 77.6867C90.6823 77.6867 90.5804 77.7094 90.5351 77.7094V77.7207Z" fill="#131144"/>
<path d="M114.967 82.2629L95.9152 81.9345C95.6773 81.9345 95.4961 81.7419 95.4961 81.5041C95.4961 81.2662 95.6887 81.1303 95.9265 81.085L114.978 81.4134C115.216 81.4134 115.397 81.606 115.397 81.8439C115.397 82.0704 115.205 82.2629 114.967 82.2629Z" fill="#131144"/>
<path d="M136.726 94.4393C136.567 94.4393 136.42 94.3486 136.34 94.2014C136.238 93.9862 136.329 93.737 136.533 93.6351L148.052 87.983C148.268 87.8811 148.517 87.9717 148.619 88.1756C148.721 88.3908 148.63 88.64 148.426 88.7419L136.907 94.394C136.85 94.4279 136.782 94.4393 136.726 94.4393Z" fill="#131144"/>
<path d="M127.573 92.8761C127.415 92.8761 127.256 92.7855 127.188 92.6269L124.209 85.9328C124.119 85.7176 124.209 85.4684 124.424 85.3665C124.64 85.2759 124.889 85.3665 124.991 85.5817L127.97 92.2758C128.06 92.491 127.97 92.7402 127.755 92.8421C127.698 92.8648 127.641 92.8761 127.585 92.8761H127.573Z" fill="#131144"/>
<path d="M121.536 95.1752C121.468 95.1752 121.412 95.1639 121.344 95.1299L115.193 92.049C114.978 91.9471 114.899 91.6866 115.001 91.4827C115.103 91.2788 115.363 91.1882 115.567 91.2901L121.717 94.371C121.933 94.473 122.012 94.7335 121.91 94.9374C121.831 95.0846 121.683 95.1752 121.525 95.1752H121.536Z" fill="#131144"/>
<path d="M115.59 88.8549C115.431 88.8549 115.284 88.7643 115.205 88.6171C115.103 88.4019 115.182 88.1527 115.397 88.0507L121.559 84.9699C121.774 84.8679 122.023 84.9472 122.125 85.1624C122.227 85.3776 122.148 85.6268 121.933 85.7288L115.771 88.8096C115.714 88.8436 115.646 88.8549 115.579 88.8549H115.59Z" fill="#131144"/>
<path d="M77.9623 37.3747H77.396V36.9443H77.9623V37.3747ZM77.9623 36.378H77.396V35.8116H77.9623V36.378ZM77.9623 35.2453H77.396V34.679H77.9623V35.2453ZM77.9623 34.1126H77.396V33.5463H77.9623V34.1126ZM77.9623 32.9799H77.396V32.4136H77.9623V32.9799ZM77.9623 31.8473H77.396V31.2809H77.9623V31.8473ZM77.9623 30.7146H77.396V30.1483H77.9623V30.7146ZM77.9623 29.5819H77.396V29.0156H77.9623V29.5819ZM77.9623 28.4492H77.396V27.8829H77.9623V28.4492ZM77.9623 27.3166H77.396V26.7502H77.9623V27.3166ZM77.9623 26.1839H77.396V25.6175H77.9623V26.1839ZM77.9623 25.0512H77.396V24.4849H77.9623V25.0512Z" fill="#131144"/>
<path d="M149.026 40.5914H148.471V40.0251H149.026V40.5914ZM149.026 39.4588H148.471V38.8924H149.026V39.4588ZM149.026 38.3261H148.471V37.7597H149.026V38.3261ZM149.026 37.1934H148.471V36.6271H149.026V37.1934ZM149.026 36.0607H148.471V35.4944H149.026V36.0607ZM149.026 34.9281H148.471V34.3617H149.026V34.9281ZM149.026 33.7954H148.471V33.229H149.026V33.7954ZM149.026 32.6627H148.471V32.0964H149.026V32.6627ZM149.026 31.53H148.471V30.9637H149.026V31.53ZM149.026 30.3973H148.471V29.831H149.026V30.3973ZM149.026 29.2647H148.471V28.6983H149.026V29.2647ZM149.026 28.132H148.471V27.5656H149.026V28.132ZM149.026 26.9993H148.471V26.433H149.026V26.9993ZM149.026 25.8666H148.471V25.3003H149.026V25.8666Z" fill="#131144"/>
<path d="M46.5636 53.9233H45.998V54.2061H46.5636V53.9233Z" fill="#131144"/>
<path d="M46.5636 54.7954H45.998V55.3723H46.5636V54.7954Z" fill="#131144"/>
<path d="M46.5644 78.6042H45.998V78.0266H46.5644V78.6042ZM46.5644 77.4376H45.998V76.8599H46.5644V77.4376ZM46.5644 76.2822H45.998V75.7046H46.5644V76.2822ZM46.5644 75.1156H45.998V74.5379H46.5644V75.1156ZM46.5644 73.9489H45.998V73.3713H46.5644V73.9489ZM46.5644 72.7936H45.998V72.2159H46.5644V72.7936ZM46.5644 71.6269H45.998V71.0493H46.5644V71.6269ZM46.5644 70.4716H45.998V69.8939H46.5644V70.4716ZM46.5644 69.305H45.998V68.7273H46.5644V69.305ZM46.5644 68.1496H45.998V67.572H46.5644V68.1496ZM46.5644 66.983H45.998V66.4053H46.5644V66.983ZM46.5644 65.8276H45.998V65.25H46.5644V65.8276ZM46.5644 64.661H45.998V64.0833H46.5644V64.661ZM46.5644 63.5056H45.998V62.928H46.5644V63.5056ZM46.5644 62.339H45.998V61.7613H46.5644V62.339ZM46.5644 61.1723H45.998V60.5947H46.5644V61.1723ZM46.5644 60.017H45.998V59.4393H46.5644V60.017ZM46.5644 58.8503H45.998V58.2727H46.5644V58.8503ZM46.5644 57.695H45.998V57.1173H46.5644V57.695ZM46.5644 56.5284H45.998V55.9507H46.5644V56.5284Z" fill="#131144"/>
<path d="M46.5636 79.1821H45.998V79.4649H46.5636V79.1821Z" fill="#131144"/>
<path d="M77.3617 67.3455H76.7954V66.7792H77.3617V67.3455ZM77.3617 66.2129H76.7954V65.6465H77.3617V66.2129ZM77.3617 65.0802H76.7954V64.5138H77.3617V65.0802ZM77.3617 63.9475H76.7954V63.3812H77.3617V63.9475ZM77.3617 62.8148H76.7954V62.2485H77.3617V62.8148ZM77.3617 61.6821H76.7954V61.1158H77.3617V61.6821ZM77.3617 60.5495H76.7954V59.9831H77.3617V60.5495ZM77.3617 59.4168H76.7954V58.8505H77.3617V59.4168ZM77.3617 58.2841H76.7954V57.7178H77.3617V58.2841Z" fill="#131144"/>
<path d="M105.316 70.9473H104.75V70.381H105.316V70.9473ZM105.316 69.8146H104.75V69.2483H105.316V69.8146ZM105.316 68.682H104.75V68.1156H105.316V68.682ZM105.316 67.5493H104.75V66.9829H105.316V67.5493ZM105.316 66.4166H104.75V65.8503H105.316V66.4166ZM105.316 65.2839H104.75V64.7176H105.316V65.2839ZM105.316 64.1512H104.75V63.5849H105.316V64.1512ZM105.316 63.0186H104.75V62.4522H105.316V63.0186ZM105.316 61.8859H104.75V61.3196H105.316V61.8859ZM105.316 60.7532H104.75V60.1869H105.316V60.7532ZM105.316 59.6205H104.75V59.0542H105.316V59.6205Z" fill="#131144"/>
<path d="M107.253 89.5235V88.9571H107.819V89.5235H107.253ZM107.253 88.3908V87.8244H107.819V88.3908H107.253ZM107.253 87.2581V86.6918H107.819V87.2581H107.253ZM107.819 86.1254H107.253V85.5591H107.819V86.1254ZM107.253 84.9928V84.4264H107.819V84.9928H107.253ZM107.253 83.8601V83.2937H107.819V83.8601H107.253ZM107.819 82.7274H107.253V82.1611H107.819V82.7274ZM107.253 81.5947V81.0284H107.819V81.5947H107.253ZM107.253 80.462V79.8957H107.819V80.462H107.253ZM107.253 79.3294V78.763H107.819V79.3294H107.253ZM107.242 78.1967V77.6304H107.808V78.1967H107.242ZM107.242 77.064V76.4977H107.808V77.064H107.242ZM107.242 75.9313V75.365H107.808V75.9313H107.242ZM107.808 74.7987H107.242V74.2323H107.808V74.7987ZM107.242 73.666V73.0996H107.808V73.666H107.242ZM107.242 72.5333V71.967H107.808V72.5333H107.242ZM107.808 71.4006H107.242V70.8343H107.808V71.4006ZM107.242 70.2679V69.7016H107.808V70.2679H107.242ZM107.242 69.1353V68.5689H107.808V69.1353H107.242ZM107.242 68.0026V67.4363H107.808V68.0026H107.242ZM107.242 66.8699V66.3036H107.808V66.8699H107.242ZM107.242 65.7372V65.1709H107.808V65.7372H107.242Z" fill="#131144"/>
<path d="M129.42 96.229H128.854V95.6626H129.42V96.229ZM129.42 95.0963H128.854V94.53H129.42V95.0963ZM129.42 93.9636H128.854V93.3973H129.42V93.9636ZM129.42 92.8309H128.854V92.2646H129.42V92.8309ZM129.42 91.6983H128.854V91.1319H129.42V91.6983ZM129.42 90.5656H128.854V89.9993H129.42V90.5656ZM129.42 89.4329H128.854V88.8666H129.42V89.4329ZM129.42 88.3002H128.854V87.7339H129.42V88.3002ZM129.42 87.1676H128.854V86.6012H129.42V87.1676ZM129.42 86.0349H128.854V85.4685H129.42V86.0349ZM129.42 84.9022H128.854V84.3359H129.42V84.9022ZM129.42 83.7695H128.854V83.2032H129.42V83.7695ZM129.42 82.6368H128.854V82.0705H129.42V82.6368ZM129.42 81.5042H128.854V80.9378H129.42V81.5042ZM129.42 80.3715H128.854V79.8052H129.42V80.3715ZM129.42 79.2388H128.854V78.6725H129.42V79.2388ZM129.42 78.1061H128.854V77.5398H129.42V78.1061ZM129.42 76.9735H128.854V76.4071H129.42V76.9735ZM129.42 75.8408H128.854V75.2744H129.42V75.8408ZM129.42 74.7081H128.854V74.1418H129.42V74.7081ZM129.42 73.5754H128.854V73.0091H129.42V73.5754ZM129.42 72.4428H128.854V71.8764H129.42V72.4428ZM129.42 71.3101H128.854V70.7437H129.42V71.3101ZM129.42 70.1774H128.854V69.6111H129.42V70.1774ZM129.42 69.0447H128.854V68.4784H129.42V69.0447ZM129.42 67.912H128.854V67.3457H129.42V67.912Z" fill="#131144"/>
<path d="M151.813 84.0524H151.247V83.4861H151.813V84.0524ZM151.813 82.9197H151.247V82.3534H151.813V82.9197ZM151.813 81.7871H151.247V81.2207H151.813V81.7871ZM151.813 80.6544H151.247V80.088H151.813V80.6544ZM151.813 79.5217H151.247V78.9554H151.813V79.5217ZM151.813 78.389H151.247V77.8227H151.813V78.389ZM151.813 77.2563H151.247V76.69H151.813V77.2563ZM151.813 76.1237H151.247V75.5573H151.813V76.1237ZM151.813 74.991H151.247V74.4246H151.813V74.991ZM151.813 73.8583H151.247V73.292H151.813V73.8583ZM151.813 72.7256H151.247V72.1593H151.813V72.7256ZM151.813 71.593H151.247V71.0266H151.813V71.593ZM151.813 70.4603H151.247V69.8939H151.813V70.4603ZM151.813 69.3276H151.247V68.7613H151.813V69.3276ZM151.813 68.1949H151.247V67.6286H151.813V68.1949ZM151.813 67.0622H151.247V66.4959H151.813V67.0622ZM151.813 65.9296H151.247V65.3632H151.813V65.9296ZM151.813 64.7969H151.247V64.2306H151.813V64.7969ZM151.813 63.6642H151.247V63.0979H151.813V63.6642ZM151.813 62.5315H151.247V61.9652H151.813V62.5315ZM151.813 61.3989H151.247V60.8325H151.813V61.3989Z" fill="#131144"/>
</g>
<defs>
<clipPath id="clip0_44_7523">
<rect width="213" height="106.143" fill="white" transform="translate(0 0.234375)"/>
</clipPath>
</defs>
</svg>
