<svg width="42" height="42" viewBox="0 0 42 42" fill="none" xmlns="http://www.w3.org/2000/svg">
<g id="Group">
<path id="Vector" d="M21 41C32.0457 41 41 32.0457 41 21C41 9.9543 32.0457 1 21 1C9.9543 1 1 9.9543 1 21C1 32.0457 9.9543 41 21 41Z" stroke="#130C49" stroke-width="0.74" stroke-miterlimit="10"/>
<path id="Vector_2" d="M21.0006 25.2077C23.3244 25.2077 25.2082 23.3239 25.2082 21.0001C25.2082 18.6763 23.3244 16.7925 21.0006 16.7925C18.6768 16.7925 16.793 18.6763 16.793 21.0001C16.793 23.3239 18.6768 25.2077 21.0006 25.2077Z" fill="#61BB73"/>
<path id="Vector_3" d="M15.5039 11.9436L21.0002 6.44727L26.5036 11.9436" stroke="#130C49" stroke-width="0.74" stroke-miterlimit="10"/>
<path id="Vector_4" d="M26.5036 30.0493L21.0002 35.5457L15.5039 30.0493" stroke="#130C49" stroke-width="0.74" stroke-miterlimit="10"/>
<path id="Vector_5" d="M11.5862 26.4961L6.08984 20.9998L11.5862 15.5034" stroke="#130C49" stroke-width="0.74" stroke-miterlimit="10"/>
<path id="Vector_6" d="M29.6953 15.5034L35.1917 20.9998L29.6953 26.4961" stroke="#130C49" stroke-width="0.74" stroke-miterlimit="10"/>
</g>
</svg>
