<svg width="42" height="42" viewBox="0 0 42 42" fill="none" xmlns="http://www.w3.org/2000/svg">
<g id="Group">
<path id="Vector" d="M21 41C32.0457 41 41 32.0457 41 21C41 9.9543 32.0457 1 21 1C9.9543 1 1 9.9543 1 21C1 32.0457 9.9543 41 21 41Z" stroke="#130C49" stroke-width="0.74" stroke-miterlimit="10"/>
<path id="Vector_2" d="M20.9978 33.7828C28.0577 33.7828 33.7808 28.0597 33.7808 20.9998C33.7808 13.9399 28.0577 8.2168 20.9978 8.2168C13.938 8.2168 8.21484 13.9399 8.21484 20.9998C8.21484 28.0597 13.938 33.7828 20.9978 33.7828Z" stroke="#130C49" stroke-width="0.74" stroke-miterlimit="10"/>
<path id="Vector_3" d="M12.4224 16.277C14.7462 16.277 16.63 14.3932 16.63 12.0694C16.63 9.74562 14.7462 7.86182 12.4224 7.86182C10.0986 7.86182 8.21484 9.74562 8.21484 12.0694C8.21484 14.3932 10.0986 16.277 12.4224 16.277Z" fill="#61BB73"/>
<path id="Vector_4" d="M30.9754 31.5611C32.5258 31.5611 33.7827 30.3041 33.7827 28.7537C33.7827 27.2032 32.5258 25.9463 30.9754 25.9463C29.4249 25.9463 28.168 27.2032 28.168 28.7537C28.168 30.3041 29.4249 31.5611 30.9754 31.5611Z" fill="#61BB73"/>
</g>
</svg>
