<svg width="42" height="42" viewBox="0 0 42 42" fill="none" xmlns="http://www.w3.org/2000/svg">
<g id="Group">
<path id="Vector" d="M21 41C32.0457 41 41 32.0457 41 21C41 9.9543 32.0457 1 21 1C9.9543 1 1 9.9543 1 21C1 32.0457 9.9543 41 21 41Z" stroke="#130C49" stroke-width="0.74" stroke-miterlimit="10"/>
<g id="Group_2">
<path id="Vector_2" d="M21.0711 25.2359C26.3419 25.2359 30.6148 20.963 30.6148 15.6921C30.6148 10.4213 26.3419 6.14844 21.0711 6.14844C15.8002 6.14844 11.5273 10.4213 11.5273 15.6921C11.5273 20.963 15.8002 25.2359 21.0711 25.2359Z" stroke="#130C49" stroke-width="0.74" stroke-miterlimit="10"/>
<path id="Vector_3" d="M21.0711 35.9077C26.3419 35.9077 30.6148 31.6349 30.6148 26.364C30.6148 21.0932 26.3419 16.8203 21.0711 16.8203C15.8002 16.8203 11.5273 21.0932 11.5273 26.364C11.5273 31.6349 15.8002 35.9077 21.0711 35.9077Z" stroke="#130C49" stroke-width="0.74" stroke-miterlimit="10"/>
<path id="Vector_4" d="M15.5593 29.959C20.8302 29.959 25.1031 25.6861 25.1031 20.4153C25.1031 15.1444 20.8302 10.8716 15.5593 10.8716C10.2885 10.8716 6.01562 15.1444 6.01562 20.4153C6.01562 25.6861 10.2885 29.959 15.5593 29.959Z" stroke="#130C49" stroke-width="0.74" stroke-miterlimit="10"/>
<path id="Vector_5" d="M26.8015 30.5723C32.0724 30.5723 36.3452 26.2994 36.3452 21.0286C36.3452 15.7577 32.0724 11.4849 26.8015 11.4849C21.5307 11.4849 17.2578 15.7577 17.2578 21.0286C17.2578 26.2994 21.5307 30.5723 26.8015 30.5723Z" stroke="#130C49" stroke-width="0.74" stroke-miterlimit="10"/>
</g>
<path id="Vector_6" d="M21.1824 23.8355C22.7329 23.8355 23.9898 22.5786 23.9898 21.0281C23.9898 19.4776 22.7329 18.2207 21.1824 18.2207C19.6319 18.2207 18.375 19.4776 18.375 21.0281C18.375 22.5786 19.6319 23.8355 21.1824 23.8355Z" fill="#61BB73"/>
</g>
</svg>
