<svg width="42" height="42" viewBox="0 0 42 42" fill="none" xmlns="http://www.w3.org/2000/svg">
<g id="Group 3.3">
<g id="rag-2">
<path id="Vector" d="M21.0067 41.2825C32.0561 41.2825 41.0134 32.2649 41.0134 21.1412C41.0134 10.0175 32.0561 1 21.0067 1C9.9573 1 1 10.0175 1 21.1412C1 32.2649 9.9573 41.2825 21.0067 41.2825Z" stroke="#130C49" stroke-width="0.75" stroke-miterlimit="10"/>
<g id="Group">
<path id="Vector_2" d="M22.2356 41.2479C30.4062 41.2479 37.0298 34.5797 37.0298 26.3542C37.0298 18.1286 30.4062 11.4604 22.2356 11.4604C14.065 11.4604 7.44141 18.1286 7.44141 26.3542C7.44141 34.5797 14.065 41.2479 22.2356 41.2479Z" stroke="#130C49" stroke-width="0.75" stroke-miterlimit="10"/>
<path id="Vector_3" d="M23.983 40.8483C28.8169 40.8483 32.7355 36.9033 32.7355 32.0369C32.7355 27.1706 28.8169 23.2256 23.983 23.2256C19.1491 23.2256 15.2305 27.1706 15.2305 32.0369C15.2305 36.9033 19.1491 40.8483 23.983 40.8483Z" stroke="#130C49" stroke-width="0.75" stroke-miterlimit="10"/>
<path id="Vector_4" d="M15.5036 15.817C17.0546 15.817 18.312 14.5512 18.312 12.9898C18.312 11.4284 17.0546 10.1626 15.5036 10.1626C13.9526 10.1626 12.6953 11.4284 12.6953 12.9898C12.6953 14.5512 13.9526 15.817 15.5036 15.817Z" fill="#61BB73"/>
<path id="Vector_5" d="M28.6833 27.5958C30.2343 27.5958 31.4916 26.33 31.4916 24.7686C31.4916 23.2072 30.2343 21.9414 28.6833 21.9414C27.1323 21.9414 25.875 23.2072 25.875 24.7686C25.875 26.33 27.1323 27.5958 28.6833 27.5958Z" fill="#61BB73"/>
</g>
</g>
</g>
</svg>
