<svg width="231" height="37" viewBox="0 0 231 37" fill="none" xmlns="http://www.w3.org/2000/svg">
<g id="humach 1">
<g id="Layer 1">
<g id="SFrzxO.tif">
<g id="Group">
<path id="Vector" d="M68.5662 3.61914V6.99474L64.7892 7.38443V17.2558H80.2895V7.38443L76.3822 6.99474V3.81334L76.5777 3.61914H88.6269V6.99474L84.7182 7.38443V30.6331L88.6269 31.0227V34.2706H76.3822V31.0227L80.2895 30.6331V21.2817H64.7892V30.6331L68.5662 31.0879V34.2706H56.4531V31.0879L60.3031 30.5118L60.3422 7.59818L60.1454 7.40398L56.4531 6.99474V3.61914H68.5662Z" fill="#030303"/>
<path id="Vector_2" d="M122.235 15.3071L124.069 13.9543C126.457 12.5389 130.2 12.3695 132.744 13.4656C133.929 13.9765 134.715 14.7871 135.587 15.6942C136.197 15.1025 136.706 14.4887 137.436 14.0338C139.865 12.5167 143.775 12.3616 146.379 13.5073C152.703 16.2899 150.262 25.1824 150.769 30.6264L153.629 31.0226V34.2692H146.464V21.0861C146.464 20.7185 146.211 19.6589 146.078 19.2627C144.849 15.6095 139.064 16.0057 137.238 18.8991C136.851 19.513 137.1 19.569 137.092 20.1698C137.046 23.6562 137.11 27.1452 137.087 30.6303L140.082 31.0213V34.2678H132.787V20.3054C132.787 19.1115 131.597 17.4694 130.48 17.021C127.526 15.8337 123.618 17.3077 122.885 20.5621L122.881 30.556L125.754 31.0213V34.2678H115.594V31.0213L118.589 30.6303L118.598 16.8099L115.594 16.3446V13.098H122.106C122.063 13.2257 122.237 13.3795 122.237 13.4225V15.3058L122.235 15.3071Z" fill="#0386D2"/>
<path id="Vector_3" d="M206.383 1.28125V14.7889C206.867 14.6103 207.182 14.1893 207.646 13.9052C212.49 10.9402 220.458 13.4881 220.695 19.8053L220.713 30.632L223.708 31.023V34.2696H216.544V21.3472C216.544 20.9992 216.339 20.0895 216.245 19.6972C215.065 14.7667 207.074 16.1795 206.383 20.8271L206.375 30.559L209.379 31.0243V34.2709H199.219V31.0243L202.214 30.6333L202.201 4.93185L199.219 4.52912V1.28125H206.383Z" fill="#0386D2"/>
<path id="Vector_4" d="M176.944 33.5543C174.941 34.8472 171.745 34.3871 170.826 31.9903L170.628 31.9303C166.678 35.4975 160.056 34.8185 156.687 30.7626C153.483 26.906 153.505 19.8851 156.568 15.9647C159.478 12.2398 165.22 11.2297 169.298 13.6421C169.492 13.7568 170.738 14.7539 170.821 14.6548L171.082 12.7077H174.598V29.9167C174.598 29.948 174.855 30.3377 174.914 30.3807C175.511 30.8147 176.349 30.107 176.943 29.9819V33.553L176.944 33.5543ZM164.022 16.254C159.072 16.7779 157.526 22.4239 159.116 26.5242C160.877 31.0701 167.393 31.6944 170.244 27.9122L170.295 19.2751C169.294 17.019 166.364 16.0064 164.022 16.254Z" fill="#0386D2"/>
<path id="Vector_5" d="M95.9236 26.6725C96.1217 28.6275 97.2139 30.3218 99.2783 30.6007C102.468 31.0308 105.15 29.7666 105.954 26.5435V16.7386L102.958 16.3476V13.1662L103.153 12.972H110.057L110.252 13.1662V30.6346L113.249 31.0243V34.2709H106.606L106.474 31.9327C104.356 34.2266 101.269 34.9668 98.2187 34.5146C94.3544 33.9424 92.1101 31.2211 91.6422 27.435L91.6239 16.7373L88.6289 16.3463V13.1649L88.8244 12.9707H95.7281L95.9236 13.1649V26.6725Z" fill="#030303"/>
<path id="Vector_6" d="M193.485 22.97C195.316 17.7775 190.712 15.5319 186.219 16.9604C181.515 18.4553 181.472 26.5059 184.825 29.3328C187.561 31.6396 193.589 31.147 195.688 28.1194L195.958 28.0373C196.125 28.9066 197.709 30.7651 197.47 31.5484C197.232 32.3317 194.644 33.6011 193.813 33.884C186.676 36.3134 178.839 33.0629 178.246 24.9836C177.647 16.8105 182.389 11.8787 190.668 12.8575C195.224 13.3958 198.335 16.456 197.912 21.2157C197.878 21.6028 197.749 22.6389 197.329 22.7132L193.485 22.97Z" fill="#0386D2"/>
<path id="Vector_7" d="M33.3249 23.3419C36.0069 23.3419 38.1811 21.1741 38.1811 18.5C38.1811 15.826 36.0069 13.6582 33.3249 13.6582C30.6429 13.6582 28.4688 15.826 28.4688 18.5C28.4688 21.1741 30.6429 23.3419 33.3249 23.3419Z" fill="#030303"/>
<path id="Vector_8" d="M33.3249 37.0046C36.0047 37.0046 38.1772 34.838 38.1772 32.1654C38.1772 29.4928 36.0047 27.3262 33.3249 27.3262C30.6451 27.3262 28.4727 29.4928 28.4727 32.1654C28.4727 34.838 30.6451 37.0046 33.3249 37.0046Z" fill="#030303"/>
<path id="Vector_9" d="M4.85226 37.0085C7.53209 37.0085 9.70452 34.8419 9.70452 32.1693C9.70452 29.4967 7.53209 27.3301 4.85226 27.3301C2.17243 27.3301 0 29.4967 0 32.1693C0 34.8419 2.17243 37.0085 4.85226 37.0085Z" fill="#030303"/>
<path id="Vector_10" d="M4.85486 23.3393C7.53397 23.3393 9.70582 21.1738 9.70582 18.5026C9.70582 15.8314 7.53397 13.666 4.85486 13.666C2.17575 13.666 0.00390625 15.8314 0.00390625 18.5026C0.00390625 21.1738 2.17575 23.3393 4.85486 23.3393Z" fill="#030303"/>
<path id="Vector_11" d="M4.84835 9.66021C7.52386 9.66021 9.69279 7.4977 9.69279 4.8301C9.69279 2.16251 7.52386 0 4.84835 0C2.17284 0 0.00390625 2.16251 0.00390625 4.8301C0.00390625 7.4977 2.17284 9.66021 4.84835 9.66021Z" fill="#0386D2"/>
<path id="Vector_12" d="M33.3249 9.66216C36.0004 9.66216 38.1693 7.49965 38.1693 4.83206C38.1693 2.16446 36.0004 0.00195312 33.3249 0.00195312C30.6494 0.00195312 28.4805 2.16446 28.4805 4.83206C28.4805 7.49965 30.6494 9.66216 33.3249 9.66216Z" fill="#0386D2"/>
<path id="Vector_13" d="M19.097 23.3275C21.7718 23.3275 23.9402 21.1656 23.9402 18.4987C23.9402 15.8318 21.7718 13.6699 19.097 13.6699C16.4223 13.6699 14.2539 15.8318 14.2539 18.4987C14.2539 21.1656 16.4223 23.3275 19.097 23.3275Z" fill="#0386D2"/>
<path id="Vector_14" d="M228.133 30.7637L228.758 30.791L229.503 31.9328C230.163 31.706 230.097 30.6333 230.999 30.894V33.6219H230.479L230.477 31.9341L229.505 32.9728L228.655 31.9341V33.7522H228.134V30.765L228.133 30.7637Z" fill="#0386D2"/>
<path id="Vector_15" d="M226.705 31.4127V33.7509H226.053V31.4127L225.141 31.414L225.142 30.7637H227.421L227.616 30.9592L227.489 31.3515L226.705 31.4127Z" fill="#0386D2"/>
</g>
</g>
</g>
</g>
</svg>
