<svg width="64" height="64" viewBox="0 0 64 64" fill="none" xmlns="http://www.w3.org/2000/svg">
<g id="hybrid search-1">
<path id="Vector" d="M31.8881 62.6093C48.9471 62.6093 62.7762 48.8176 62.7762 31.8047C62.7762 14.7917 48.9471 1 31.8881 1C14.8291 1 1 14.7917 1 31.8047C1 48.8176 14.8291 62.6093 31.8881 62.6093Z" stroke="#130C49" stroke-miterlimit="10"/>
<g id="Group">
<path id="Vector_2" d="M48.9619 31.8196L31.8906 14.7944L14.8194 31.8196L31.8906 48.8448L48.9619 31.8196Z" stroke="#130C49" stroke-miterlimit="10"/>
<g id="Group_2">
<path id="Vector_3" d="M31.8865 36.128C34.2811 36.128 36.2223 34.1921 36.2223 31.804C36.2223 29.4159 34.2811 27.48 31.8865 27.48C29.492 27.48 27.5508 29.4159 27.5508 31.804C27.5508 34.1921 29.492 36.128 31.8865 36.128Z" fill="#61BB73"/>
<path id="Vector_4" d="M31.8865 53.1134C34.2811 53.1134 36.2223 51.1774 36.2223 48.7894C36.2223 46.4013 34.2811 44.4653 31.8865 44.4653C29.492 44.4653 27.5508 46.4013 27.5508 48.7894C27.5508 51.1774 29.492 53.1134 31.8865 53.1134Z" fill="#61BB73"/>
<path id="Vector_5" d="M31.8865 19.1969C34.2811 19.1969 36.2223 17.2609 36.2223 14.8729C36.2223 12.4848 34.2811 10.5488 31.8865 10.5488C29.492 10.5488 27.5508 12.4848 27.5508 14.8729C27.5508 17.2609 29.492 19.1969 31.8865 19.1969Z" fill="#61BB73"/>
<path id="Vector_6" d="M48.7342 36.128C51.1287 36.128 53.0699 34.1921 53.0699 31.804C53.0699 29.4159 51.1287 27.48 48.7342 27.48C46.3396 27.48 44.3984 29.4159 44.3984 31.804C44.3984 34.1921 46.3396 36.128 48.7342 36.128Z" fill="#61BB73"/>
<path id="Vector_7" d="M15.0506 36.128C17.4452 36.128 19.3863 34.1921 19.3863 31.804C19.3863 29.4159 17.4452 27.48 15.0506 27.48C12.656 27.48 10.7148 29.4159 10.7148 31.804C10.7148 34.1921 12.656 36.128 15.0506 36.128Z" fill="#61BB73"/>
</g>
</g>
</g>
</svg>
