<svg width="64" height="64" viewBox="0 0 64 64" fill="none" xmlns="http://www.w3.org/2000/svg">
<g id="hybrid search-2">
<path id="Vector" d="M31.8881 62.6093C48.9471 62.6093 62.7762 48.8176 62.7762 31.8047C62.7762 14.7917 48.9471 1 31.8881 1C14.8291 1 1 14.7917 1 31.8047C1 48.8176 14.8291 62.6093 31.8881 62.6093Z" stroke="#130C49" stroke-miterlimit="10"/>
<g id="Group">
<path id="Vector_2" d="M17.9492 17.8989L45.8464 45.7208" stroke="#130C49" stroke-miterlimit="10"/>
<path id="Vector_3" d="M17.9492 45.7208L45.8464 17.8989" stroke="#130C49" stroke-miterlimit="10"/>
<path id="Vector_4" d="M31.8945 51.4826V12.1372" stroke="#130C49" stroke-miterlimit="10"/>
<path id="Vector_5" d="M51.6229 31.8047H12.1602" stroke="#130C49" stroke-miterlimit="10"/>
<path id="Vector_6" d="M31.8553 36.0968C34.2498 36.0968 36.191 34.1608 36.191 31.7728C36.191 29.3847 34.2498 27.4487 31.8553 27.4487C29.4607 27.4487 27.5195 29.3847 27.5195 31.7728C27.5195 34.1608 29.4607 36.0968 31.8553 36.0968Z" fill="#61BB73"/>
</g>
</g>
</svg>
