<svg width="218" height="219" viewBox="0 0 218 219" fill="none" xmlns="http://www.w3.org/2000/svg">
<g id="Layer_1" clip-path="url(#clip0_5292_4686)">
<path id="Vector" d="M57.5721 57.2696H3.69531V3.30469H57.5721V57.2696ZM5.38656 55.5756H55.8808V4.99871H5.38656V55.5756Z" fill="#1B1464"/>
<path id="Vector_2" d="M109.756 57.2696H55.8789V3.30469H109.756V57.2696ZM57.5702 55.5756H108.064V4.99871H57.5702V55.5756Z" fill="#1B1464"/>
<g id="Group">
<path id="Vector_3" d="M161.1 4.14844H108.914V56.4194H161.1V4.14844Z" fill="#1B1464"/>
<path id="Vector_4" d="M161.943 57.2677H108.066V3.30273H161.943V57.2677ZM109.758 55.5737H160.252V4.99675H109.758V55.5737Z" fill="#1B1464"/>
</g>
<path id="Vector_5" d="M214.131 57.2696H160.254V3.30469H214.131V57.2696ZM161.945 55.5756H212.439V4.99871H161.945V55.5756Z" fill="#1B1464"/>
<path id="Vector_6" d="M214.131 110.086H160.254V56.1211H214.131V110.086ZM161.945 108.392H212.439V57.8151H161.945V108.392Z" fill="#1B1464"/>
<path id="Vector_7" d="M161.947 110.086H108.07V56.1211H161.947V110.086ZM109.762 108.392H160.256V57.8151H109.762V108.392Z" fill="#1B1464"/>
<g id="Group_2">
<path id="Vector_8" d="M56.7246 109.238H108.91V56.9673L56.7246 56.9673L56.7246 109.238Z" fill="#1B1464"/>
<path id="Vector_9" d="M109.756 110.086H55.8789V56.1211H109.756V110.086ZM57.5702 108.392H108.064V57.8151H57.5702V108.392Z" fill="#1B1464"/>
</g>
<path id="Vector_10" d="M57.5721 110.086H3.69531V56.1211H57.5721V110.086ZM5.38656 108.392H55.8808V57.8151H5.38656V108.392Z" fill="#1B1464"/>
<path id="Vector_11" d="M57.5721 162.195H3.69531V108.23H57.5721V162.195ZM5.38656 160.501H55.8808V109.924H5.38656V160.501Z" fill="#1B1464"/>
<path id="Vector_12" d="M109.756 162.195H55.8789V108.23H109.756V162.195ZM57.5702 160.501H108.064V109.924H57.5702V160.501Z" fill="#1B1464"/>
<path id="Vector_13" d="M161.947 162.195H108.07V108.23H161.947V162.195ZM109.762 160.501H160.256V109.924H109.762V160.501Z" fill="#1B1464"/>
<g id="Group_3">
<path id="Vector_14" d="M213.283 109.09H161.098V161.361H213.283V109.09Z" fill="#1B1464"/>
<path id="Vector_15" d="M214.127 162.195H160.25V108.23H214.127V162.195ZM161.941 160.501H212.436V109.924H161.941V160.501Z" fill="#1B1464"/>
</g>
<path id="Vector_16" d="M214.131 215.012H160.254V161.047H214.131V215.012ZM161.945 213.318H212.439V162.741H161.945V213.318Z" fill="#1B1464"/>
<path id="Vector_17" d="M161.947 215.012H108.07V161.047H161.947V215.012ZM109.762 213.318H160.256V162.741H109.762V213.318Z" fill="#1B1464"/>
<path id="Vector_18" d="M109.756 215.012H55.8789V161.047H109.756V215.012ZM57.5702 213.318H108.064V162.741H57.5702V213.318Z" fill="#1B1464"/>
<g id="Group_4">
<path id="Vector_19" d="M4.54102 214.18H56.7266L56.7266 161.909H4.54102L4.54102 214.18Z" fill="#1B1464"/>
<path id="Vector_20" d="M57.5721 215.014H3.69531V161.049H57.5721V215.014ZM5.38656 213.32H55.8808V162.743H5.38656V213.32Z" fill="#1B1464"/>
</g>
<path id="Vector_21" d="M135.797 39.7517V24.1342H132.461V22.127H138.125V39.7517H135.786H135.797Z" fill="white"/>
<path id="Vector_22" d="M82.3911 40.0273C81.001 40.0273 79.7847 39.6444 78.7306 38.8786C77.6764 38.1128 76.854 37.0454 76.2632 35.6878C75.6724 34.3303 75.3828 32.7407 75.3828 30.919C75.3828 29.0974 75.6724 27.5194 76.2632 26.1503C76.854 24.7811 77.6648 23.7253 78.7074 22.9711C79.7499 22.2169 80.9663 21.834 82.3679 21.834C83.7696 21.834 84.9743 22.2169 86.0168 22.9711C87.0594 23.7253 87.8819 24.7927 88.4611 26.1503C89.0403 27.5078 89.3299 29.0974 89.3299 30.919C89.3299 32.7407 89.0402 34.3303 88.4726 35.6994C87.905 37.0686 87.0826 38.136 86.04 38.8902C84.9975 39.6444 83.7811 40.0273 82.3911 40.0273ZM82.3679 37.8692C83.3178 37.8692 84.1287 37.5791 84.8237 37.0105C85.5187 36.4304 86.0516 35.6298 86.4454 34.5855C86.8277 33.5413 87.0246 32.323 87.0246 30.919C87.0246 29.5151 86.8277 28.2968 86.4454 27.2641C86.0632 26.2315 85.5187 25.4309 84.8237 24.8507C84.1287 24.2706 83.3178 23.9921 82.3679 23.9921C81.418 23.9921 80.6072 24.2822 79.9121 24.8507C79.2171 25.4309 78.6842 26.2315 78.2904 27.2641C77.8965 28.2968 77.7112 29.5151 77.7112 30.919C77.7112 32.323 77.9081 33.5181 78.2904 34.5623C78.6726 35.6066 79.2171 36.4188 79.9237 36.9989C80.6303 37.5791 81.4412 37.8692 82.3679 37.8692Z" fill="#1B1464"/>
<path id="Vector_23" d="M31.7192 40.0273C30.3291 40.0273 29.1128 39.6444 28.0587 38.8786C27.0046 38.1128 26.1821 37.0454 25.5913 35.6878C25.0005 34.3303 24.7109 32.7407 24.7109 30.919C24.7109 29.0974 25.0005 27.5194 25.5913 26.1503C26.1821 24.7811 26.993 23.7253 28.0355 22.9711C29.0781 22.2169 30.2944 21.834 31.696 21.834C33.0977 21.834 34.3024 22.2169 35.345 22.9711C36.3875 23.7253 37.21 24.7927 37.7892 26.1503C38.3684 27.5078 38.658 29.0974 38.658 30.919C38.658 32.7407 38.3684 34.3303 37.8008 35.6994C37.2332 37.0686 36.4107 38.136 35.3681 38.8902C34.3256 39.6444 33.1093 40.0273 31.7192 40.0273ZM31.696 37.8692C32.6459 37.8692 33.4568 37.5791 34.1518 37.0105C34.8469 36.4304 35.3797 35.6298 35.7736 34.5855C36.1558 33.5413 36.3528 32.323 36.3528 30.919C36.3528 29.5151 36.1558 28.2968 35.7736 27.2641C35.3913 26.2315 34.8469 25.4309 34.1518 24.8507C33.4568 24.2706 32.6459 23.9921 31.696 23.9921C30.7462 23.9921 29.9353 24.2822 29.2402 24.8507C28.5452 25.4309 28.0124 26.2315 27.6185 27.2641C27.2246 28.2968 27.0393 29.5151 27.0393 30.919C27.0393 32.323 27.2362 33.5181 27.6185 34.5623C28.0008 35.6066 28.5452 36.4188 29.2518 36.9989C29.9585 37.5791 30.7693 37.8692 31.696 37.8692Z" fill="#1B1464"/>
<path id="Vector_24" d="M186.84 90.7792C185.45 90.7792 184.234 90.3963 183.18 89.6306C182.126 88.8648 181.303 87.7973 180.712 86.4398C180.122 85.0822 179.832 83.4926 179.832 81.671C179.832 79.8493 180.122 78.2713 180.712 76.9022C181.303 75.5331 182.114 74.4772 183.157 73.723C184.199 72.9688 185.415 72.5859 186.817 72.5859C188.219 72.5859 189.424 72.9688 190.466 73.723C191.509 74.4772 192.331 75.5447 192.91 76.9022C193.489 78.2597 193.779 79.8493 193.779 81.671C193.779 83.4926 193.489 85.0822 192.922 86.4514C192.354 87.8205 191.532 88.888 190.489 89.6422C189.447 90.3963 188.23 90.7792 186.84 90.7792ZM186.817 88.6211C187.767 88.6211 188.578 88.331 189.273 87.7625C189.968 87.1823 190.501 86.3818 190.895 85.3375C191.277 84.2932 191.474 83.0749 191.474 81.671C191.474 80.267 191.277 79.0487 190.895 78.0161C190.512 76.9834 189.968 76.1828 189.273 75.6027C188.578 75.0225 187.767 74.7441 186.817 74.7441C185.867 74.7441 185.056 75.0341 184.361 75.6027C183.666 76.1828 183.133 76.9834 182.74 78.0161C182.346 79.0487 182.16 80.267 182.16 81.671C182.16 83.0749 182.357 84.27 182.74 85.3143C183.122 86.3585 183.666 87.1708 184.373 87.7509C185.08 88.331 185.89 88.6211 186.817 88.6211Z" fill="#1B1464"/>
<path id="Vector_25" d="M136.172 90.7792C134.782 90.7792 133.566 90.3963 132.512 89.6306C131.458 88.8648 130.635 87.7973 130.044 86.4398C129.454 85.0822 129.164 83.4926 129.164 81.671C129.164 79.8493 129.454 78.2713 130.044 76.9022C130.635 75.5331 131.446 74.4772 132.489 73.723C133.531 72.9688 134.748 72.5859 136.149 72.5859C137.551 72.5859 138.756 72.9688 139.798 73.723C140.841 74.4772 141.663 75.5447 142.242 76.9022C142.822 78.2597 143.111 79.8493 143.111 81.671C143.111 83.4926 142.821 85.0822 142.254 86.4514C141.686 87.8205 140.864 88.888 139.821 89.6422C138.779 90.3963 137.562 90.7792 136.172 90.7792ZM136.149 88.6211C137.099 88.6211 137.91 88.331 138.605 87.7625C139.3 87.1823 139.833 86.3818 140.227 85.3375C140.609 84.2932 140.806 83.0749 140.806 81.671C140.806 80.267 140.609 79.0487 140.227 78.0161C139.844 76.9834 139.3 76.1828 138.605 75.6027C137.91 75.0225 137.099 74.7441 136.149 74.7441C135.199 74.7441 134.388 75.0341 133.693 75.6027C132.998 76.1828 132.465 76.9834 132.072 78.0161C131.678 79.0487 131.492 80.267 131.492 81.671C131.492 83.0749 131.689 84.27 132.072 85.3143C132.454 86.3585 132.998 87.1708 133.705 87.7509C134.412 88.331 135.222 88.6211 136.149 88.6211Z" fill="#1B1464"/>
<path id="Vector_26" d="M136.172 145.002C134.782 145.002 133.566 144.619 132.512 143.853C131.458 143.087 130.635 142.02 130.044 140.662C129.454 139.305 129.164 137.715 129.164 135.894C129.164 134.072 129.454 132.494 130.044 131.125C130.635 129.756 131.446 128.7 132.489 127.946C133.531 127.191 134.748 126.809 136.149 126.809C137.551 126.809 138.756 127.191 139.798 127.946C140.841 128.7 141.663 129.767 142.242 131.125C142.822 132.482 143.111 134.072 143.111 135.894C143.111 137.715 142.821 139.305 142.254 140.674C141.686 142.043 140.864 143.111 139.821 143.865C138.779 144.619 137.562 145.002 136.172 145.002ZM136.149 142.844C137.099 142.844 137.91 142.554 138.605 141.985C139.3 141.405 139.833 140.604 140.227 139.56C140.609 138.516 140.806 137.298 140.806 135.894C140.806 134.49 140.609 133.271 140.227 132.239C139.844 131.206 139.3 130.405 138.605 129.825C137.91 129.245 137.099 128.967 136.149 128.967C135.199 128.967 134.388 129.257 133.693 129.825C132.998 130.405 132.465 131.206 132.072 132.239C131.678 133.271 131.492 134.49 131.492 135.894C131.492 137.298 131.689 138.493 132.072 139.537C132.454 140.581 132.998 141.393 133.705 141.974C134.412 142.554 135.222 142.844 136.149 142.844Z" fill="#1B1464"/>
<path id="Vector_27" d="M85.5005 145.002C84.1104 145.002 82.8941 144.619 81.8399 143.853C80.7858 143.087 79.9633 142.02 79.3726 140.662C78.7818 139.305 78.4922 137.715 78.4922 135.894C78.4922 134.072 78.7818 132.494 79.3726 131.125C79.9633 129.756 80.7742 128.7 81.8168 127.946C82.8593 127.191 84.0756 126.809 85.4773 126.809C86.879 126.809 88.0837 127.191 89.1262 127.946C90.1688 128.7 90.9912 129.767 91.5704 131.125C92.1496 132.482 92.4392 134.072 92.4392 135.894C92.4392 137.715 92.1496 139.305 91.582 140.674C91.0144 142.043 90.1919 143.111 89.1494 143.865C88.1068 144.619 86.8905 145.002 85.5005 145.002ZM85.4773 142.844C86.4272 142.844 87.238 142.554 87.9331 141.985C88.6281 141.405 89.161 140.604 89.5548 139.56C89.9371 138.516 90.134 137.298 90.134 135.894C90.134 134.49 89.9371 133.271 89.5548 132.239C89.1726 131.206 88.6281 130.405 87.9331 129.825C87.238 129.245 86.4272 128.967 85.4773 128.967C84.5274 128.967 83.7165 129.257 83.0215 129.825C82.3265 130.405 81.7936 131.206 81.3998 132.239C81.0059 133.271 80.8206 134.49 80.8206 135.894C80.8206 137.298 81.0175 138.493 81.3998 139.537C81.782 140.581 82.3265 141.393 83.0331 141.974C83.7397 142.554 84.5506 142.844 85.4773 142.844Z" fill="#1B1464"/>
<path id="Vector_28" d="M29.938 145.002C28.5479 145.002 27.3316 144.619 26.2774 143.853C25.2233 143.087 24.4008 142.02 23.8101 140.662C23.2193 139.305 22.9297 137.715 22.9297 135.894C22.9297 134.072 23.2193 132.494 23.8101 131.125C24.4008 129.756 25.2117 128.7 26.2543 127.946C27.2968 127.191 28.5131 126.809 29.9148 126.809C31.3164 126.809 32.5212 127.191 33.5637 127.946C34.6063 128.7 35.4287 129.767 36.0079 131.125C36.5871 132.482 36.8767 134.072 36.8767 135.894C36.8767 137.715 36.5871 139.305 36.0195 140.674C35.4519 142.043 34.6294 143.111 33.5869 143.865C32.5443 144.619 31.328 145.002 29.938 145.002ZM29.9148 142.844C30.8647 142.844 31.6755 142.554 32.3706 141.985C33.0656 141.405 33.5985 140.604 33.9923 139.56C34.3746 138.516 34.5715 137.298 34.5715 135.894C34.5715 134.49 34.3746 133.271 33.9923 132.239C33.6101 131.206 33.0656 130.405 32.3706 129.825C31.6755 129.245 30.8647 128.967 29.9148 128.967C28.9649 128.967 28.154 129.257 27.459 129.825C26.764 130.405 26.2311 131.206 25.8372 132.239C25.4434 133.271 25.2581 134.49 25.2581 135.894C25.2581 137.298 25.455 138.493 25.8372 139.537C26.2195 140.581 26.764 141.393 27.4706 141.974C28.1772 142.554 28.9881 142.844 29.9148 142.844Z" fill="#1B1464"/>
<path id="Vector_29" d="M29.938 90.7792C28.5479 90.7792 27.3316 90.3963 26.2774 89.6306C25.2233 88.8648 24.4008 87.7973 23.8101 86.4398C23.2193 85.0822 22.9297 83.4926 22.9297 81.671C22.9297 79.8493 23.2193 78.2713 23.8101 76.9022C24.4008 75.5331 25.2117 74.4772 26.2543 73.723C27.2968 72.9688 28.5131 72.5859 29.9148 72.5859C31.3164 72.5859 32.5212 72.9688 33.5637 73.723C34.6063 74.4772 35.4287 75.5447 36.0079 76.9022C36.5871 78.2597 36.8767 79.8493 36.8767 81.671C36.8767 83.4926 36.5871 85.0822 36.0195 86.4514C35.4519 87.8205 34.6294 88.888 33.5869 89.6422C32.5443 90.3963 31.328 90.7792 29.938 90.7792ZM29.9148 88.6211C30.8647 88.6211 31.6755 88.331 32.3706 87.7625C33.0656 87.1823 33.5985 86.3818 33.9923 85.3375C34.3746 84.2932 34.5715 83.0749 34.5715 81.671C34.5715 80.267 34.3746 79.0487 33.9923 78.0161C33.6101 76.9834 33.0656 76.1828 32.3706 75.6027C31.6755 75.0225 30.8647 74.7441 29.9148 74.7441C28.9649 74.7441 28.154 75.0341 27.459 75.6027C26.764 76.1828 26.2311 76.9834 25.8372 78.0161C25.4434 79.0487 25.2581 80.267 25.2581 81.671C25.2581 83.0749 25.455 84.27 25.8372 85.3143C26.2195 86.3585 26.764 87.1708 27.4706 87.7509C28.1772 88.331 28.9881 88.6211 29.9148 88.6211Z" fill="#1B1464"/>
<path id="Vector_30" d="M186.84 196.889C185.45 196.889 184.234 196.506 183.18 195.74C182.126 194.974 181.303 193.907 180.712 192.549C180.122 191.192 179.832 189.602 179.832 187.78C179.832 185.959 180.122 184.381 180.712 183.012C181.303 181.642 182.114 180.587 183.157 179.832C184.199 179.078 185.415 178.695 186.817 178.695C188.219 178.695 189.424 179.078 190.466 179.832C191.509 180.587 192.331 181.654 192.91 183.012C193.489 184.369 193.779 185.959 193.779 187.78C193.779 189.602 193.489 191.192 192.922 192.561C192.354 193.93 191.532 194.997 190.489 195.752C189.447 196.506 188.23 196.889 186.84 196.889ZM186.817 194.73C187.767 194.73 188.578 194.44 189.273 193.872C189.968 193.292 190.501 192.491 190.895 191.447C191.277 190.403 191.474 189.184 191.474 187.78C191.474 186.376 191.277 185.158 190.895 184.125C190.512 183.093 189.968 182.292 189.273 181.712C188.578 181.132 187.767 180.853 186.817 180.853C185.867 180.853 185.056 181.144 184.361 181.712C183.666 182.292 183.133 183.093 182.74 184.125C182.346 185.158 182.16 186.376 182.16 187.78C182.16 189.184 182.357 190.379 182.74 191.424C183.122 192.468 183.666 193.28 184.373 193.86C185.08 194.44 185.89 194.73 186.817 194.73Z" fill="#1B1464"/>
<path id="Vector_31" d="M135.379 196.889C133.989 196.889 132.773 196.506 131.719 195.74C130.665 194.974 129.842 193.907 129.251 192.549C128.661 191.192 128.371 189.602 128.371 187.78C128.371 185.959 128.661 184.381 129.251 183.012C129.842 181.642 130.653 180.587 131.696 179.832C132.738 179.078 133.955 178.695 135.356 178.695C136.758 178.695 137.963 179.078 139.005 179.832C140.048 180.587 140.87 181.654 141.449 183.012C142.029 184.369 142.318 185.959 142.318 187.78C142.318 189.602 142.029 191.192 141.461 192.561C140.893 193.93 140.071 194.997 139.028 195.752C137.986 196.506 136.769 196.889 135.379 196.889ZM135.356 194.73C136.306 194.73 137.117 194.44 137.812 193.872C138.507 193.292 139.04 192.491 139.434 191.447C139.816 190.403 140.013 189.184 140.013 187.78C140.013 186.376 139.816 185.158 139.434 184.125C139.051 183.093 138.507 182.292 137.812 181.712C137.117 181.132 136.306 180.853 135.356 180.853C134.406 180.853 133.595 181.144 132.9 181.712C132.205 182.292 131.673 183.093 131.279 184.125C130.885 185.158 130.699 186.376 130.699 187.78C130.699 189.184 130.896 190.379 131.279 191.424C131.661 192.468 132.205 193.28 132.912 193.86C133.619 194.44 134.429 194.73 135.356 194.73Z" fill="#1B1464"/>
<path id="Vector_32" d="M83.9301 196.889C82.5401 196.889 81.3238 196.506 80.2696 195.74C79.2155 194.974 78.393 193.907 77.8022 192.549C77.2115 191.192 76.9219 189.602 76.9219 187.78C76.9219 185.959 77.2115 184.381 77.8022 183.012C78.393 181.642 79.2039 180.587 80.2465 179.832C81.289 179.078 82.5053 178.695 83.907 178.695C85.3086 178.695 86.5134 179.078 87.5559 179.832C88.5985 180.587 89.4209 181.654 90.0001 183.012C90.5793 184.369 90.8689 185.959 90.8689 187.78C90.8689 189.602 90.5793 191.192 90.0117 192.561C89.4441 193.93 88.6216 194.997 87.5791 195.752C86.5365 196.506 85.3202 196.889 83.9301 196.889ZM83.907 194.73C84.8569 194.73 85.6677 194.44 86.3628 193.872C87.0578 193.292 87.5907 192.491 87.9845 191.447C88.3668 190.403 88.5637 189.184 88.5637 187.78C88.5637 186.376 88.3668 185.158 87.9845 184.125C87.6022 183.093 87.0578 182.292 86.3628 181.712C85.6677 181.132 84.8569 180.853 83.907 180.853C82.9571 180.853 82.1462 181.144 81.4512 181.712C80.7561 182.292 80.2233 183.093 79.8294 184.125C79.4356 185.158 79.2502 186.376 79.2502 187.78C79.2502 189.184 79.4472 190.379 79.8294 191.424C80.2117 192.468 80.7561 193.28 81.4628 193.86C82.1694 194.44 82.9803 194.73 83.907 194.73Z" fill="#1B1464"/>
<path id="Vector_33" d="M186.84 40.0273C185.45 40.0273 184.234 39.6444 183.18 38.8786C182.126 38.1128 181.303 37.0454 180.712 35.6878C180.122 34.3303 179.832 32.7407 179.832 30.919C179.832 29.0974 180.122 27.5194 180.712 26.1503C181.303 24.7811 182.114 23.7253 183.157 22.9711C184.199 22.2169 185.415 21.834 186.817 21.834C188.219 21.834 189.424 22.2169 190.466 22.9711C191.509 23.7253 192.331 24.7927 192.91 26.1503C193.489 27.5078 193.779 29.0974 193.779 30.919C193.779 32.7407 193.489 34.3303 192.922 35.6994C192.354 37.0686 191.532 38.136 190.489 38.8902C189.447 39.6444 188.23 40.0273 186.84 40.0273ZM186.817 37.8692C187.767 37.8692 188.578 37.5791 189.273 37.0105C189.968 36.4304 190.501 35.6298 190.895 34.5855C191.277 33.5413 191.474 32.323 191.474 30.919C191.474 29.5151 191.277 28.2968 190.895 27.2641C190.512 26.2315 189.968 25.4309 189.273 24.8507C188.578 24.2706 187.767 23.9921 186.817 23.9921C185.867 23.9921 185.056 24.2822 184.361 24.8507C183.666 25.4309 183.133 26.2315 182.74 27.2641C182.346 28.2968 182.16 29.5151 182.16 30.919C182.16 32.323 182.357 33.5181 182.74 34.5623C183.122 35.6066 183.666 36.4188 184.373 36.9989C185.08 37.5791 185.89 37.8692 186.817 37.8692Z" fill="#1B1464"/>
<path id="Vector_34" d="M83.0823 92.4041V76.7866H79.7461V74.7793H85.4106V92.4041H83.0707H83.0823Z" fill="white"/>
<path id="Vector_35" d="M186.188 144.709V129.091H182.852V127.084H188.516V144.709H186.176H186.188Z" fill="white"/>
<path id="Vector_36" d="M32.1409 196.605V180.988H28.8047V178.98H34.4692V196.605H32.1293H32.1409Z" fill="white"/>
<path id="Vector_37" d="M217.339 218.226H0.488281V0.0917969H217.339V218.226ZM8.59702 210.104H209.23V8.21381H8.59702V210.104Z" fill="#1B1464"/>
</g>
<defs>
<clipPath id="clip0_5292_4686">
<rect width="216.851" height="218.134" fill="white" transform="translate(0.488281 0.0917969)"/>
</clipPath>
</defs>
</svg>
