<svg width="64" height="64" viewBox="0 0 64 64" fill="none" xmlns="http://www.w3.org/2000/svg">
<g id="hybrid search-3">
<path id="Vector" d="M31.8881 62.6093C48.9471 62.6093 62.7762 48.8176 62.7762 31.8047C62.7762 14.7917 48.9471 1 31.8881 1C14.8291 1 1 14.7917 1 31.8047C1 48.8176 14.8291 62.6093 31.8881 62.6093Z" stroke="#130C49" stroke-miterlimit="10"/>
<g id="Group">
<g id="Group_2">
<path id="Vector_2" d="M16.1445 31.848L41.5242 23.3716" stroke="#130C49" stroke-miterlimit="10"/>
<path id="Vector_3" d="M16.6172 31.8374L49.4311 31.9447" stroke="#130C49" stroke-miterlimit="10"/>
<path id="Vector_4" d="M15.9609 31.8052L41.6741 40.303" stroke="#130C49" stroke-miterlimit="10"/>
</g>
<g id="Group_3">
<path id="Vector_5" d="M50.0986 31.8162L33.0273 14.791L15.9561 31.8162L33.0273 48.8413L50.0986 31.8162Z" stroke="#130C49" stroke-miterlimit="10"/>
<path id="Vector_6" d="M41.4451 44.3165C43.8397 44.3165 45.7809 42.3806 45.7809 39.9925C45.7809 37.6044 43.8397 35.6685 41.4451 35.6685C39.0505 35.6685 37.1094 37.6044 37.1094 39.9925C37.1094 42.3806 39.0505 44.3165 41.4451 44.3165Z" fill="#61BB73"/>
<path id="Vector_7" d="M41.4451 27.4171C43.8397 27.4171 45.7809 25.4812 45.7809 23.0931C45.7809 20.705 43.8397 18.769 41.4451 18.769C39.0505 18.769 37.1094 20.705 37.1094 23.0931C37.1094 25.4812 39.0505 27.4171 41.4451 27.4171Z" fill="#61BB73"/>
<path id="Vector_8" d="M18.0467 35.6793C20.4412 35.6793 22.3824 33.7434 22.3824 31.3553C22.3824 28.9672 20.4412 27.0312 18.0467 27.0312C15.6521 27.0312 13.7109 28.9672 13.7109 31.3553C13.7109 33.7434 15.6521 35.6793 18.0467 35.6793Z" fill="#61BB73"/>
</g>
</g>
</g>
</svg>
