<svg width="29" height="22" viewBox="0 0 29 22" fill="none" xmlns="http://www.w3.org/2000/svg">
<g id="Group">
<g id="Group_2">
<path id="Vector" d="M23.1591 18.2107H21.6211V17.3748H22.3232V16.6838H23.1591V18.2107Z" fill="#272361"/>
<path id="Vector_2" d="M19.4337 18.2107H17.2493V17.3749H19.4337V18.2107ZM15.0649 18.2107H12.8805V17.3749H15.0649V18.2107ZM10.6961 18.2107H8.51172V17.3749H10.6961V18.2107Z" fill="#272361"/>
<path id="Vector_3" d="M6.34073 18.2107H4.80273V16.6838H5.6386V17.3748H6.34073V18.2107Z" fill="#272361"/>
<path id="Vector_4" d="M5.6386 14.5218H4.80273V12.3597H5.6386V14.5218ZM5.6386 10.1976H4.80273V8.03552H5.6386V10.1976ZM5.6386 5.87341H4.80273V3.7113H5.6386V5.87341Z" fill="#272361"/>
<path id="Vector_5" d="M5.6386 1.53799H4.80273V0H6.34073V0.835866H5.6386V1.53799Z" fill="#272361"/>
<path id="Vector_6" d="M19.4337 0.835866H17.2493V0H19.4337V0.835866ZM15.0649 0.835866H12.8805V0H15.0649V0.835866ZM10.6961 0.835866H8.51172V0H10.6961V0.835866Z" fill="#272361"/>
<path id="Vector_7" d="M23.1591 1.53799H22.3232V0.835866H21.6211V0H23.1591V1.53799Z" fill="#272361"/>
<path id="Vector_8" d="M23.1562 14.5218H22.3203V12.3597H23.1562V14.5218ZM23.1562 10.1976H22.3203V8.03552H23.1562V10.1976ZM23.1562 5.87341H22.3203V3.7113H23.1562V5.87341Z" fill="#272361"/>
</g>
<g id="Group_3">
<g id="Group_4">
<g id="Group_5">
<path id="Vector_9" d="M22.3888 14.3547C24.1677 14.3547 25.6097 12.9127 25.6097 11.1338C25.6097 9.355 24.1677 7.91296 22.3888 7.91296C20.61 7.91296 19.168 9.355 19.168 11.1338C19.168 12.9127 20.61 14.3547 22.3888 14.3547Z" fill="white"/>
<path id="Vector_10" d="M22.3905 14.767C20.3844 14.767 18.7461 13.1399 18.7461 11.1226C18.7461 9.10542 20.3732 7.47827 22.3905 7.47827C24.4077 7.47827 26.0348 9.10542 26.0348 11.1226C26.0348 13.1399 24.4077 14.767 22.3905 14.767ZM22.3905 8.32528C20.8413 8.32528 19.582 9.58465 19.582 11.1338C19.582 12.6829 20.8413 13.9423 22.3905 13.9423C23.9396 13.9423 25.199 12.6829 25.199 11.1338C25.199 9.58465 23.9396 8.32528 22.3905 8.32528Z" fill="#272361"/>
</g>
<g id="Group_6">
<path id="Vector_11" d="M17.2754 19.9382C17.2754 17.0628 19.6047 14.7335 22.4801 14.7335C25.3554 14.7335 27.6847 17.0628 27.6847 19.9382" fill="white"/>
<path id="Vector_12" d="M28.1098 19.9382H27.274C27.274 17.2969 25.123 15.1459 22.4817 15.1459C19.8403 15.1459 17.6894 17.2969 17.6894 19.9382H16.8535C16.8535 16.8399 19.3723 14.3101 22.4817 14.3101C25.5911 14.3101 28.1098 16.8288 28.1098 19.9382Z" fill="#272361"/>
</g>
</g>
<g id="Group_7">
<g id="Group_8">
<path id="Vector_13" d="M5.52751 14.3547C7.30635 14.3547 8.74838 12.9127 8.74838 11.1338C8.74838 9.355 7.30635 7.91296 5.52751 7.91296C3.74867 7.91296 2.30664 9.355 2.30664 11.1338C2.30664 12.9127 3.74867 14.3547 5.52751 14.3547Z" fill="white"/>
<path id="Vector_14" d="M5.52581 14.767C3.51973 14.767 1.89258 13.1399 1.89258 11.1226C1.89258 9.10542 3.51973 7.47827 5.52581 7.47827C7.53189 7.47827 9.17019 9.10542 9.17019 11.1226C9.17019 13.1399 7.54303 14.767 5.52581 14.767ZM5.52581 8.32528C3.97667 8.32528 2.72844 9.58465 2.72844 11.1338C2.72844 12.6829 3.98782 13.9423 5.52581 13.9423C7.0638 13.9423 8.33432 12.6829 8.33432 11.1338C8.33432 9.58465 7.07495 8.32528 5.52581 8.32528Z" fill="#272361"/>
</g>
<g id="Group_9">
<path id="Vector_15" d="M0.421875 19.9382C0.421875 17.0628 2.75116 14.7335 5.62654 14.7335C8.50192 14.7335 10.8312 17.0628 10.8312 19.9382" fill="white"/>
<path id="Vector_16" d="M11.2452 19.9382H10.4093C10.4093 17.2969 8.25836 15.1459 5.61702 15.1459C2.97568 15.1459 0.835866 17.2969 0.835866 19.9382H0C0 16.8399 2.51874 14.3101 5.62817 14.3101C8.73759 14.3101 11.2563 16.8288 11.2563 19.9382H11.2452Z" fill="#272361"/>
</g>
</g>
<g id="Group_10">
<g id="Group_11">
<path id="Vector_17" d="M14.0509 16.4051C15.8298 16.4051 17.2718 14.9631 17.2718 13.1843C17.2718 11.4054 15.8298 9.96338 14.0509 9.96338C12.2721 9.96338 10.8301 11.4054 10.8301 13.1843C10.8301 14.9631 12.2721 16.4051 14.0509 16.4051Z" fill="#272361"/>
<path id="Vector_18" d="M14.0526 16.8287C12.0465 16.8287 10.4082 15.2015 10.4082 13.1843C10.4082 11.1671 12.0354 9.53992 14.0526 9.53992C16.0698 9.53992 17.697 11.1671 17.697 13.1843C17.697 15.2015 16.0698 16.8287 14.0526 16.8287ZM14.0526 10.3869C12.5034 10.3869 11.2441 11.6463 11.2441 13.1954C11.2441 14.7446 12.5034 16.0039 14.0526 16.0039C15.6017 16.0039 16.8611 14.7446 16.8611 13.1954C16.8611 11.6463 15.6017 10.3869 14.0526 10.3869Z" fill="white"/>
</g>
<g id="Group_12">
<path id="Vector_19" d="M8.93945 21.9999C8.93945 19.1246 11.2687 16.7953 14.1441 16.7953C17.0195 16.7953 19.3488 19.1246 19.3488 21.9999" fill="#272361"/>
<path id="Vector_20" d="M19.7817 22H18.9459C18.9459 19.3587 16.7949 17.2077 14.1536 17.2077C11.5122 17.2077 9.36126 19.3587 9.36126 22H8.52539C8.52539 18.9017 11.0441 16.3718 14.1536 16.3718C17.263 16.3718 19.7817 18.8906 19.7817 22Z" fill="white"/>
</g>
</g>
</g>
</g>
</svg>
