<svg width="37" height="37" viewBox="0 0 37 37" fill="none" xmlns="http://www.w3.org/2000/svg">
<rect width="37" height="37" fill="#464646"/>
<g id="Weaviate contact" clip-path="url(#clip0_12460_548)">
<rect width="1440" height="8188" transform="translate(-431 -1922)" fill="#ECF4F8"/>
<rect id="Rectangle 4.1" x="-431" y="-275" width="1440" height="627" fill="#DDEBF2"/>
<g id="Driving Innovation-icon">
<path id="Vector" d="M28.6687 0H8.32125C3.72503 0 0 3.73 0 8.32V28.68C0 33.28 3.72503 37 8.32125 37H28.6788C33.275 37 37 33.27 37 28.68V8.32C37 3.72 33.275 0 28.6788 0H28.6687Z" fill="#ECF4F8"/>
<path id="Vector_2" d="M27.5458 27.5372C29.5167 25.5689 27.063 19.9274 22.0654 14.9365C17.0677 9.94563 11.4186 7.49528 9.44767 9.46353C7.47676 11.4318 9.93043 17.0733 14.9281 22.0642C19.9257 27.0551 25.5749 29.5054 27.5458 27.5372Z" fill="#61D384"/>
<path id="Vector_3" d="M22.0654 22.0654C27.063 17.0745 29.5167 11.433 27.5458 9.46478C25.5749 7.49654 19.9257 9.94689 14.9281 14.9378C9.93043 19.9287 7.47676 25.5702 9.44767 27.5384C11.4186 29.5067 17.0677 27.0563 22.0654 22.0654Z" fill="#130C49"/>
<path id="Vector_4" d="M18.4645 20.6701C19.5259 20.6701 20.3871 19.8101 20.3871 18.7501C20.3871 17.6901 19.5259 16.8301 18.4645 16.8301C17.403 16.8301 16.5419 17.6901 16.5419 18.7501C16.5419 19.8101 17.403 20.6701 18.4645 20.6701Z" fill="#61D384"/>
<path id="Vector_5" d="M30.1326 20.4201C31.194 20.4201 32.0552 19.5601 32.0552 18.5001C32.0552 17.4401 31.194 16.5801 30.1326 16.5801C29.0712 16.5801 28.21 17.4401 28.21 18.5001C28.21 19.5601 29.0712 20.4201 30.1326 20.4201Z" fill="#61D384"/>
<path id="Vector_6" d="M18.4958 9.07047C19.5572 9.07047 20.4184 8.21047 20.4184 7.15047C20.4184 6.09047 19.5572 5.23047 18.4958 5.23047C17.4343 5.23047 16.5732 6.09047 16.5732 7.15047C16.5732 8.21047 17.4343 9.07047 18.4958 9.07047Z" fill="#61D384"/>
<path id="Vector_7" d="M6.28005 20.4201C7.34148 20.4201 8.20265 19.5601 8.20265 18.5001C8.20265 17.4401 7.34148 16.5801 6.28005 16.5801C5.21862 16.5801 4.35745 17.4401 4.35745 18.5001C4.35745 19.5601 5.21862 20.4201 6.28005 20.4201Z" fill="#130C49"/>
<path id="Vector_8" d="M18.4958 32.2209C19.5572 32.2209 20.4184 31.3609 20.4184 30.3009C20.4184 29.2409 19.5572 28.3809 18.4958 28.3809C17.4343 28.3809 16.5732 29.2409 16.5732 30.3009C16.5732 31.3609 17.4343 32.2209 18.4958 32.2209Z" fill="#130C49"/>
</g>
</g>
<defs>
<clipPath id="clip0_12460_548">
<rect width="1440" height="8188" fill="white" transform="translate(-431 -1922)"/>
</clipPath>
</defs>
</svg>
