<svg width="157" height="41" viewBox="0 0 157 41" fill="none" xmlns="http://www.w3.org/2000/svg">
<g id="Layer_1" clip-path="url(#clip0_3950_988)">
<g id="4xjyZZ.tif">
<g id="Group">
<path id="Vector" d="M21.4917 34.2486C15.6624 36.2203 9.8633 38.1819 3.90132 40.1972C4.51599 37.621 5.09876 35.1791 5.71511 32.5927C3.76025 33.2477 1.95654 33.8523 0 34.5073C2.32097 24.9144 4.60668 15.4608 6.9075 5.94687C12.7083 3.98697 18.5141 2.02204 24.4928 0C23.8815 2.56785 23.3004 5.00471 22.6824 7.60111C24.6188 6.95453 26.4023 6.35833 28.3807 5.69831C26.1034 15.2728 23.7824 24.7028 21.4917 34.2503V34.2486ZM22.1819 10.1438C21.9703 10.3856 21.9519 10.5519 21.9132 10.7148C20.694 15.7413 19.4781 20.7695 18.2521 25.7944C17.8003 27.6485 16.6314 28.8644 14.8395 29.4908C13.7075 29.8872 12.5689 30.2583 11.4336 30.6446C10.3587 31.0124 9.2839 31.3852 8.22754 31.7497C7.86982 33.4341 7.36263 35.0061 7.09728 36.7594C11.353 35.3185 15.4642 33.9279 19.604 32.5256C21.4833 24.7515 23.3542 17.0177 25.2671 9.10588C24.078 9.50558 23.1073 9.83307 22.1853 10.1438H22.1819ZM6.22062 30.0551C6.44734 29.7579 6.47589 29.4774 6.53971 29.207C7.70859 24.3686 8.89259 19.5335 10.048 14.6917C10.5351 12.6478 11.7443 11.2925 13.7394 10.6291C14.2685 10.4528 14.7992 10.2815 15.3282 10.1018C16.9337 9.55765 18.5392 9.01015 20.1549 8.46098C20.5394 6.8017 20.9996 5.21296 21.3187 3.43444C17.0597 4.87371 12.9518 6.2626 8.79519 7.66661C6.91926 15.4239 5.04669 23.1661 3.12878 31.0913C4.30102 30.6983 5.29357 30.3658 6.22062 30.0534V30.0551ZM19.3454 11.1044C17.7432 11.6469 16.1712 12.2111 14.5758 12.7066C13.2725 13.1113 12.5218 13.951 12.2095 15.256C11.1598 19.6342 10.0951 24.0092 9.04038 28.3874C8.99168 28.5906 8.88084 28.814 9.11596 29.0693C10.6459 28.552 12.1893 27.9911 13.7579 27.5141C15.0931 27.106 15.869 26.263 16.1897 24.9211C17.2343 20.5411 18.3024 16.1662 19.3605 11.7896C19.4058 11.6032 19.473 11.4151 19.3454 11.1044Z" fill="black"/>
<path id="Vector_2" d="M40.8862 11.9458C41.872 11.9458 42.7991 11.8769 43.711 11.9626C44.942 12.0785 45.7347 12.7973 46.0975 13.9897C46.8583 16.4903 47.6325 18.9876 48.405 21.485C48.484 21.7386 48.5041 22.0207 48.8282 22.3348C49.5773 18.8365 50.3061 15.4306 51.0434 11.9878H54.7902C53.5794 17.3586 52.3769 22.6975 51.1643 28.0734H46.7407C45.6608 24.4995 44.5793 20.919 43.4977 17.3368C43.4255 17.3351 43.3516 17.3317 43.2794 17.33C42.4363 20.8988 41.5932 24.4676 40.7418 28.0734H37C38.2965 22.6858 39.5863 17.33 40.8845 11.9458H40.8862Z" fill="black"/>
<path id="Vector_3" d="M56.5052 28.0768H52.7617C54.065 22.669 55.3548 17.3217 56.6496 11.9441C57.6321 11.9441 58.5591 11.877 59.4711 11.9609C60.7038 12.0751 61.4981 12.7923 61.8609 13.9847C62.6301 16.5122 63.411 19.0381 64.1886 21.5622C64.2608 21.799 64.3397 22.0342 64.4136 22.271C64.4741 22.2794 64.5362 22.2861 64.5967 22.2945C65.3306 18.8718 66.0662 15.4491 66.8085 11.9878H70.5519C69.3444 17.3486 68.142 22.6875 66.9294 28.07H62.5024C61.4209 24.4828 60.3326 20.877 59.246 17.273C59.1822 17.2763 59.1184 17.2814 59.0529 17.2847C58.2014 20.8871 57.3516 24.4912 56.5035 28.0784L56.5052 28.0768Z" fill="black"/>
<path id="Vector_4" d="M70.0039 22.155C70.1886 18.8734 71.3391 15.8874 74.0144 13.6151C75.808 12.0919 77.9006 11.4839 80.2468 11.7661C82.6114 12.0516 84.4101 13.8805 84.625 16.4433C84.9374 20.1599 83.8559 23.4482 81.157 26.0933C79.2643 27.9474 76.9265 28.6309 74.3066 28.2782C72.0511 27.976 70.3717 26.1353 70.0929 23.7203C70.0392 23.2517 70.0392 22.7764 70.0056 22.1534L70.0039 22.155ZM80.8749 18.1042C80.8362 17.55 80.8413 17.0798 80.7019 16.618C80.3156 15.3399 79.4625 14.7555 78.1307 14.8965C77.2187 14.9923 76.5167 15.481 75.9273 16.1376C74.713 17.4913 74.1521 19.1237 73.9035 20.8921C73.7742 21.8158 73.7927 22.7227 74.1538 23.5943C74.6005 24.6759 75.63 25.2183 76.7888 25.0336C77.6991 24.8875 78.3843 24.387 78.9217 23.6833C80.1997 22.014 80.7204 20.0793 80.8749 18.1026V18.1042Z" fill="black"/>
<path id="Vector_5" d="M109.5 28.0918H105.201C105.098 26.7768 104.996 25.4854 104.89 24.1368H100.431C99.7493 25.4148 99.0439 26.7365 98.3235 28.0868H94.2324C94.1769 27.7996 94.3718 27.6082 94.4893 27.3965C97.0337 22.8201 99.5948 18.252 102.122 13.6655C102.787 12.4597 103.745 11.8937 105.113 11.934C106.116 11.9642 107.12 11.9391 108.21 11.9391C108.64 17.3351 109.067 22.6773 109.498 28.0918H109.5ZM104.981 21.0416C104.877 19.2463 104.781 17.5668 104.683 15.8891C104.62 15.8756 104.556 15.8605 104.492 15.8471C103.728 17.5819 102.739 19.2026 101.877 21.0063C102.955 21.1239 103.913 21.0768 104.981 21.0433V21.0416Z" fill="black"/>
<path id="Vector_6" d="M146.547 11.976H156.999C156.742 13.0508 156.498 14.0736 156.231 15.1921H149.878C149.584 16.183 149.362 17.0932 149.167 18.1295H155.15C154.879 19.2731 154.639 20.2926 154.375 21.4111H148.346C148.066 22.5715 147.807 23.643 147.52 24.8354H154.197C154.007 26.0161 153.727 27.0489 153.436 28.0801H142.668C143.971 22.6706 145.261 17.3233 146.549 11.976H146.547Z" fill="black"/>
<path id="Vector_7" d="M92.0818 28.0918H87.0872C86.6035 22.7328 86.1198 17.3955 85.6328 11.9945H89.7239C89.959 15.6842 90.1958 19.3655 90.436 23.1375C90.8038 22.9393 90.8911 22.6387 91.0288 22.3935C92.6763 19.4528 94.3356 16.5189 95.9479 13.558C96.5592 12.4345 97.4023 11.8517 98.7072 11.9307C99.4797 11.9777 100.259 11.9391 101.201 11.9391C98.1143 17.4056 95.0964 22.7529 92.0818 28.0918Z" fill="black"/>
<path id="Vector_8" d="M131.45 28.0952C130.961 22.7042 130.479 17.3838 129.992 11.9995H134.085C134.323 15.6976 134.56 19.3957 134.799 23.0939C134.854 23.1022 134.91 23.1123 134.965 23.1207C135.197 22.7193 135.435 22.3196 135.662 21.9132C137.237 19.0934 138.829 16.2804 140.378 13.4438C140.947 12.4009 141.753 11.887 142.946 11.9307C143.753 11.9609 144.565 11.9357 145.567 11.9357C142.353 17.3922 139.201 22.7428 136.052 28.0902H131.452L131.45 28.0952Z" fill="black"/>
<path id="Vector_9" d="M115.272 28.0801H111.221C112.239 23.8395 113.251 19.6208 114.289 15.2929H109.906C109.592 14.1727 109.719 13.0878 109.496 11.9844H123.696C123.437 13.0777 123.187 14.1274 122.923 15.2409H118.382C117.341 19.5436 116.31 23.7976 115.273 28.0801H115.272Z" fill="black"/>
<path id="Vector_10" d="M125.113 28.0902H121.062C121.324 26.9683 121.568 25.8935 121.827 24.822C122.693 21.2263 123.568 17.6324 124.435 14.0367C124.821 12.4295 125.421 11.9408 127.055 11.9391C127.666 11.9391 128.277 11.9391 129.006 11.9391C127.698 17.3737 126.41 22.7143 125.115 28.0902H125.113Z" fill="black"/>
<path id="Vector_11" d="M35.3715 28.0969H31.3594C31.4971 26.9952 31.8195 25.969 32.0647 24.9312C32.9313 21.2498 33.8298 17.5736 34.7166 13.8973C35.0592 12.4782 35.7343 11.9458 37.2021 11.9407C37.842 11.9391 38.4818 11.9407 39.2611 11.9407C37.9545 17.367 36.6697 22.7042 35.3715 28.0986V28.0969Z" fill="black"/>
</g>
</g>
</g>
<defs>
<clipPath id="clip0_3950_988">
<rect width="157" height="40.1972" fill="white"/>
</clipPath>
</defs>
</svg>
