<svg width="114" height="13" viewBox="0 0 114 13" fill="none" xmlns="http://www.w3.org/2000/svg">
<g id="instabase">
<path id="Vector" d="M71.5195 1.70956C71.5989 1.66052 71.6782 1.68014 71.7575 1.68014C73.939 1.68014 76.1204 1.67033 78.3019 1.68014C80.4041 1.69976 81.5741 3.83795 80.6817 5.54458C80.5131 5.86825 80.2751 6.15269 79.9876 6.4077C80.414 6.73137 80.7809 7.07466 80.999 7.54545C81.6237 8.9186 80.9792 10.5173 79.6306 11.0666C79.2836 11.2137 78.9167 11.2824 78.5498 11.2922C76.2692 11.2922 73.9786 11.2922 71.698 11.2922H71.5294V1.69976L71.5195 1.70956ZM72.4814 10.3506H73.582C75.2082 10.3506 76.8344 10.3506 78.4705 10.3506C79.2637 10.3506 79.9083 9.91904 80.1462 9.28151C80.6024 8.03587 79.6009 6.95696 78.4804 6.97658C76.5567 7.006 74.643 6.97658 72.7193 6.97658C72.64 6.97658 72.5607 6.94715 72.4814 7.006V10.3408V10.3506ZM72.4814 5.98595C72.4814 5.98595 72.5508 6.00556 72.5706 6.00556C74.4943 6.00556 76.4179 6.01537 78.3317 6.00556C79.0357 6.00556 79.581 5.66228 79.8686 5.00513C80.1462 4.36759 80.0471 3.75948 79.6009 3.22984C79.2241 2.77866 78.6986 2.63154 78.1234 2.63154C76.3089 2.63154 74.5042 2.63154 72.6896 2.63154C72.6202 2.63154 72.5508 2.60211 72.4814 2.68058V5.98595Z" fill="#B9C8DE"/>
<path id="Vector_2" d="M112.618 1.69922V2.631H104.368V6.00503H112.132V6.96623H104.368V10.3403H113.104V11.2818H103.406V1.69922H112.628H112.618Z" fill="#B9C8DE"/>
<path id="Vector_3" d="M40.6216 11.2819H39.6598C37.0717 8.56505 34.4936 5.85799 31.9255 3.15092L31.866 3.17054V11.2917H30.9141V1.70911C31.2314 1.66007 31.5487 1.70911 31.8561 1.67969C34.454 4.40637 37.0321 7.12325 39.6598 9.88916V1.6993H40.6216V11.2917V11.2819Z" fill="#B9C8DE"/>
<path id="Vector_4" d="M41.9297 8.17323H42.8717C42.8717 8.17323 42.9312 8.24189 42.9312 8.28113C43.0402 9.39926 43.6848 10.0662 44.7259 10.4095C45.3705 10.6253 46.0447 10.6743 46.719 10.6743C47.4528 10.6743 48.1865 10.6155 48.8806 10.3703C49.4161 10.1741 49.8524 9.87006 50.0904 9.34041C50.3977 8.68326 50.1499 7.92803 49.5053 7.57493C48.9897 7.3003 48.4245 7.15318 47.8593 7.03548C46.9768 6.84912 46.0844 6.68239 45.2019 6.50584C44.6069 6.38814 44.0318 6.21159 43.4865 5.96639C42.5246 5.53482 42.1677 4.68151 42.3759 3.68107C42.5345 2.90622 43.0204 2.36677 43.7343 2.01368C44.8152 1.47422 45.9753 1.39576 47.1553 1.46442C47.8296 1.50365 48.484 1.65077 49.0988 1.93521C50.1003 2.3962 50.7051 3.18085 50.953 4.23033C51.0125 4.49515 51.0621 4.76978 51.0324 5.06403H50.0904C50.0309 4.79921 49.9912 4.51477 49.9119 4.24014C49.6441 3.28874 48.9699 2.73948 48.0279 2.51389C46.8281 2.21965 45.6283 2.2785 44.4483 2.67083C43.9029 2.84737 43.536 3.21028 43.3575 3.75954C43.189 4.27937 43.4765 4.94633 43.9922 5.18173C44.3987 5.37789 44.835 5.5054 45.2713 5.59367C46.4215 5.82907 47.5718 6.06447 48.722 6.29987C49.2673 6.40776 49.7731 6.61373 50.249 6.90798C51.0224 7.38858 51.2902 8.09477 51.2009 8.9677C51.072 10.2232 50.2292 10.949 49.0492 11.253C47.5519 11.6453 46.0546 11.6257 44.5574 11.2236C43.5261 10.949 42.6734 10.4193 42.1974 9.41888C42.0487 9.10501 41.9297 8.56556 41.9297 8.16343V8.17323Z" fill="#B9C8DE"/>
<path id="Vector_5" d="M101.462 5.06425H100.52C100.431 4.89751 100.441 4.71115 100.411 4.52479C100.183 3.39685 99.4693 2.74951 98.3686 2.49449C97.2184 2.22967 96.0781 2.29833 94.9576 2.63181C94.3726 2.80836 93.9363 3.17126 93.7776 3.78918C93.6388 4.32863 93.8768 4.87789 94.3627 5.15252C94.8584 5.43696 95.4137 5.53504 95.9591 5.65274C97.0399 5.87833 98.1207 6.0843 99.2016 6.3197C99.8461 6.46682 100.461 6.70222 100.976 7.14359C101.413 7.5163 101.611 7.9969 101.631 8.55597C101.671 9.73296 101.105 10.6353 99.9452 11.0963C98.9933 11.469 98.0017 11.5377 97.0003 11.5181C96.2367 11.5082 95.493 11.42 94.7791 11.1748C94.1941 10.9786 93.6586 10.7138 93.2124 10.2724C92.6274 9.69372 92.3894 8.98753 92.3398 8.17345H93.3413C93.3909 8.36961 93.3909 8.55597 93.4405 8.73252C93.6586 9.53679 94.204 10.037 94.9576 10.3313C95.7013 10.6255 96.4846 10.6745 97.268 10.6647C98.0017 10.6647 98.7355 10.5961 99.4197 10.3116C99.9353 10.0959 100.352 9.79181 100.55 9.23274C100.788 8.55597 100.57 7.86939 99.8857 7.52611C99.3404 7.25148 98.7653 7.10435 98.1703 6.98666C97.3175 6.81011 96.4549 6.64337 95.6021 6.47663C95.0468 6.36874 94.5114 6.202 93.9958 5.98622C92.4985 5.3683 92.4985 3.73033 93.2025 2.77893C93.7082 2.09236 94.4519 1.77849 95.265 1.60195C96.3756 1.36655 97.496 1.34693 98.6066 1.60195C99.5387 1.81773 100.352 2.23948 100.897 3.05356C101.284 3.64205 101.482 4.29921 101.482 5.04463L101.462 5.06425Z" fill="#B9C8DE"/>
<path id="Vector_6" d="M6.15049 12.2253H0.984375V7.11523H6.15049V12.2253Z" fill="#B9C8DE"/>
<path id="Vector_7" d="M24.0809 2.64081H19.718C19.6882 2.31714 19.6982 2.01308 19.718 1.69922H29.4454V2.62119H25.0923V10.3403H29.4454V11.272H19.7279V10.3403H24.0909V2.64081H24.0809Z" fill="#B9C8DE"/>
<path id="Vector_8" d="M91.6177 11.2917H90.5666C90.1799 10.3305 89.7833 9.35948 89.3867 8.37866H84.1412C83.7545 9.33005 83.3579 10.3011 82.9612 11.2819H81.9102C83.1992 8.0746 84.4882 4.88693 85.7773 1.68945H87.7406C89.0198 4.86732 90.3088 8.05498 91.6078 11.2819L91.6177 11.2917ZM86.4516 2.65066C85.817 4.22978 85.1824 5.8089 84.5378 7.38803H88.9999C88.3554 5.78929 87.7109 4.21016 87.0763 2.65066H86.4417H86.4516Z" fill="#B9C8DE"/>
<path id="Vector_9" d="M70.2081 11.2819H69.167C68.7803 10.3109 68.3836 9.3301 67.9969 8.35908H62.8011C62.4143 9.3301 62.0177 10.3011 61.631 11.2819H60.5898C61.869 8.07464 63.1481 4.87717 64.4272 1.67969H66.3608C67.63 4.85755 68.9092 8.04522 70.2081 11.2819ZM67.6102 7.38807C66.9657 5.76971 66.3311 4.19059 65.6965 2.61147C65.4585 2.6507 65.2602 2.58204 65.0718 2.6507C64.4372 4.22982 63.8125 5.79914 63.1779 7.38807H67.6003H67.6102Z" fill="#B9C8DE"/>
<path id="Vector_10" d="M7.93961 5.61339V0.503309C8.03876 0.44446 8.128 0.464076 8.21725 0.464076C8.97084 0.464076 9.72444 0.464076 10.478 0.464076C11.3705 0.464076 12.0943 0.807364 12.6397 1.51356C13.3536 2.43553 13.304 3.76945 12.5603 4.65218C11.9952 5.31914 11.2614 5.60358 10.4185 5.6232C9.62529 5.64281 8.83202 5.6232 8.02884 5.6232C7.9991 5.6232 7.96935 5.61339 7.92969 5.60358L7.93961 5.61339Z" fill="#B9C8DE"/>
<path id="Vector_11" d="M7.94742 7.1051C8.92908 7.1051 9.88099 7.05605 10.8329 7.1149C12.0724 7.19337 13.0838 8.28208 13.1532 9.50811C13.2325 10.7341 12.3798 11.8719 11.18 12.1661C11.0015 12.2054 10.823 12.2348 10.6445 12.2348C9.80167 12.2348 8.95882 12.2348 8.10607 12.2348C8.05649 12.2348 8.00691 12.2348 7.9375 12.2152V7.09529L7.94742 7.1051Z" fill="#B9C8DE"/>
<path id="Vector_12" d="M6.18234 3.0346C6.18234 4.4764 5.05194 5.61416 3.59433 5.61416C2.13671 5.61416 0.976562 4.48621 0.976562 3.05421C0.976562 1.62221 2.12679 0.474652 3.57449 0.464844C5.02219 0.464844 6.18234 1.59279 6.19225 3.02479L6.18234 3.0346Z" fill="#B9C8DE"/>
<path id="Vector_13" d="M56.2382 2.631H51.8555V1.69922H61.5828V2.62119H57.21V11.2818H56.2382V2.631Z" fill="#B9C8DE"/>
</g>
</svg>
