<svg width="197" height="21" viewBox="0 0 197 21" fill="none" xmlns="http://www.w3.org/2000/svg">
<g id="instabase 1" clip-path="url(#clip0_10228_3940)">
<path id="Vector" d="M123.961 2.2802C124.092 2.18687 124.239 2.23142 124.374 2.23142C128.206 2.22929 132.038 2.20596 135.868 2.23566C139.558 2.26536 141.604 6.07081 140.041 9.0999C139.742 9.68111 139.329 10.1838 138.822 10.6272C139.566 11.1957 140.209 11.8066 140.588 12.6529C141.682 15.0944 140.546 17.9241 138.179 18.9105C137.562 19.1672 136.935 19.3008 136.279 19.3029C132.271 19.3093 128.264 19.3072 124.256 19.3072H123.961V2.28233V2.2802ZM125.651 17.6123H127.585C130.441 17.6123 133.3 17.6166 136.156 17.6123C137.549 17.6102 138.678 16.8529 139.095 15.7096C139.901 13.5014 138.143 11.586 136.173 11.6178C132.806 11.6729 129.436 11.6326 126.067 11.6348C125.933 11.6348 125.787 11.586 125.647 11.692V17.6123H125.651ZM125.647 9.87202C125.732 9.89748 125.763 9.91445 125.795 9.91445C129.167 9.91445 132.541 9.9399 135.912 9.90596C137.149 9.89323 138.107 9.30354 138.608 8.13687C139.095 7.00202 138.917 5.93081 138.133 4.98051C137.465 4.17233 136.542 3.92414 135.539 3.92202C132.36 3.91566 129.182 3.9199 126.005 3.92202C125.889 3.92202 125.757 3.87536 125.647 4.00051V9.8699V9.87202Z" fill="#F7F9FD"/>
<path id="Vector_2" d="M196.088 2.26758V3.92424H181.602V9.91243H195.221V11.6221H181.6V17.6061H196.934V19.2818H179.91V2.26758H196.088Z" fill="#F7F9FD"/>
<path id="Vector_3" d="M69.7457 19.2814H68.0578C63.5176 14.4557 58.9966 9.64902 54.4777 4.84235L54.378 4.86993V19.2772H52.707V2.27144C53.2626 2.17811 53.8224 2.26084 54.3632 2.22266C58.9182 7.06538 63.454 11.8911 68.0663 16.7975V2.25447H69.7457V19.2814Z" fill="#F7F9FD"/>
<path id="Vector_4" d="M72.03 13.7612H73.6883C73.7625 13.8163 73.788 13.88 73.7943 13.9521C73.9788 15.9333 75.1091 17.1233 76.9476 17.7363C78.0842 18.116 79.2569 18.203 80.4402 18.2073C81.7295 18.2136 83.0082 18.1076 84.2296 17.6621C85.1669 17.3206 85.9282 16.7733 86.3608 15.8273C86.8973 14.6563 86.4732 13.3136 85.3387 12.7006C84.4311 12.2106 83.445 11.9454 82.4441 11.7376C80.8919 11.4151 79.3354 11.1076 77.7789 10.8021C76.7377 10.5985 75.7304 10.2845 74.7698 9.84543C73.084 9.07543 72.4563 7.56513 72.8168 5.79604C73.0967 4.41725 73.9513 3.46271 75.2003 2.82846C77.1024 1.86331 79.1382 1.7318 81.2099 1.85907C82.3932 1.93119 83.5404 2.1815 84.624 2.68634C86.3884 3.50725 87.4444 4.8924 87.8812 6.76331C87.9915 7.23634 88.07 7.71998 88.0148 8.23756H86.3587C86.2611 7.76028 86.1869 7.2618 86.0512 6.78028C85.5762 5.0918 84.3908 4.12452 82.741 3.71937C80.6268 3.19968 78.5211 3.30998 76.4556 3.99725C75.4993 4.31543 74.8631 4.95816 74.545 5.93604C74.2439 6.85665 74.7613 8.03604 75.6583 8.46665C76.3793 8.81453 77.1321 9.03937 77.9104 9.20059C79.9249 9.62271 81.9437 10.0342 83.9582 10.4563C84.9103 10.6557 85.8052 11.0079 86.6301 11.5276C87.9851 12.3824 88.4559 13.6424 88.3053 15.1888C88.0869 17.4203 86.6068 18.7015 84.5223 19.2509C81.9012 19.9424 79.259 19.9191 76.6423 19.2063C74.8271 18.7121 73.3278 17.7745 72.4923 15.9948C72.2315 15.4391 72.0152 14.4739 72.0237 13.7633L72.03 13.7612Z" fill="#F7F9FD"/>
<path id="Vector_5" d="M176.518 8.2454H174.864C174.709 7.95267 174.732 7.61328 174.669 7.29298C174.274 5.29692 173.023 4.14086 171.083 3.68267C169.064 3.2054 167.058 3.33692 165.09 3.93086C164.068 4.23843 163.303 4.88752 163.021 5.98419C162.775 6.9451 163.194 7.91661 164.055 8.40873C164.927 8.90722 165.898 9.09601 166.861 9.29752C168.755 9.69631 170.659 10.0548 172.548 10.4769C173.685 10.7315 174.758 11.1557 175.659 11.9427C176.425 12.6109 176.772 13.4593 176.804 14.4478C176.876 16.533 175.882 18.143 173.844 18.9533C172.171 19.6172 170.44 19.7296 168.672 19.6999C167.338 19.6787 166.034 19.5175 164.77 19.0975C163.744 18.756 162.8 18.2745 162.024 17.4939C161 16.4672 160.578 15.2093 160.484 13.7733H162.24C162.331 14.1169 162.321 14.4499 162.408 14.7724C162.794 16.1957 163.746 17.0824 165.073 17.6106C166.375 18.1281 167.747 18.2172 169.128 18.2066C170.419 18.196 171.7 18.0878 172.904 17.5809C173.801 17.2054 174.548 16.6518 174.896 15.6718C175.32 14.4669 174.928 13.2578 173.727 12.6512C172.773 12.1696 171.753 11.9045 170.718 11.6903C169.217 11.3806 167.713 11.0836 166.21 10.7887C165.237 10.5978 164.297 10.2966 163.387 9.91479C160.762 8.81601 160.752 5.91843 161.998 4.21722C162.889 3.00176 164.2 2.43752 165.614 2.12782C167.565 1.70146 169.531 1.66752 171.486 2.1257C173.127 2.51176 174.554 3.25843 175.5 4.70722C176.185 5.7551 176.535 6.92389 176.52 8.24116L176.518 8.2454Z" fill="#F7F9FD"/>
<path id="Vector_6" d="M9.25825 20.9468H0.199219V11.8828H9.25825V20.9468Z" fill="#8362AC"/>
<path id="Vector_7" d="M40.7041 3.93764H33.0447C32.9917 3.36279 33.015 2.82401 33.0298 2.25977H50.1003V3.90371H42.4684V17.6067H50.1003V19.2634H33.0468V17.6067H40.7063V3.93764H40.7041Z" fill="#F7F9FD"/>
<path id="Vector_8" d="M159.238 19.2851H157.4C156.715 17.5754 156.028 15.8615 155.328 14.1157H146.125C145.448 15.8042 144.757 17.5266 144.057 19.2703H142.219C144.488 13.5791 146.742 7.92815 149.005 2.25391H152.448C154.694 7.88572 156.955 13.5515 159.238 19.283V19.2851ZM150.169 3.94663C149.049 6.75724 147.936 9.54876 146.816 12.3594H154.647C153.511 9.5233 152.389 6.7233 151.276 3.94663H150.171H150.169Z" fill="#F7F9FD"/>
<path id="Vector_9" d="M121.662 19.2817H119.842C119.157 17.5529 118.468 15.8178 117.785 14.0975H108.66C107.975 15.8263 107.291 17.5487 106.601 19.2838H104.773C107.025 13.5905 109.269 7.91838 111.515 2.24414H114.916C117.151 7.88869 119.39 13.546 121.659 19.2817H121.662ZM117.094 12.3708C115.959 9.50293 114.852 6.70293 113.743 3.89869C113.326 3.96656 112.974 3.85414 112.651 3.96869C111.544 6.77293 110.448 9.5496 109.335 12.3708H117.094Z" fill="#F7F9FD"/>
<path id="Vector_10" d="M12.3888 9.22316V0.159216C12.5585 0.0552769 12.7218 0.0955793 12.8766 0.0955793C14.2019 0.0913369 15.5251 0.0892157 16.8505 0.0955793C18.4134 0.101943 19.6836 0.712852 20.6357 1.96012C21.8805 3.59134 21.7999 5.96073 20.5 7.53679C19.516 8.72891 18.2289 9.21891 16.7466 9.26134C15.3534 9.30164 13.9559 9.26982 12.5606 9.2677C12.5118 9.2677 12.4631 9.24437 12.3867 9.22528L12.3888 9.22316Z" fill="#EDA91F"/>
<path id="Vector_11" d="M12.4006 11.8592C14.1182 11.8592 15.7977 11.7723 17.4666 11.8804C19.6401 12.0204 21.4087 13.9444 21.5444 16.1292C21.6801 18.3077 20.1936 20.3292 18.0794 20.8489C17.7677 20.9253 17.456 20.9677 17.1379 20.9698C15.6556 20.9698 14.1712 20.972 12.689 20.9698C12.602 20.9698 12.5172 20.955 12.3984 20.9423V11.8592H12.4006Z" fill="#32A980"/>
<path id="Vector_12" d="M9.30189 4.64167C9.31249 7.19773 7.31281 9.21712 4.76177 9.22561C2.21074 9.23409 0.164399 7.21682 0.160158 4.69046C0.158037 2.15349 2.18529 0.106519 4.713 0.0937916C7.25343 0.0831855 9.29129 2.10258 9.30189 4.63955V4.64167Z" fill="#EA4723"/>
<path id="Vector_13" d="M97.139 3.91838H89.4414V2.26172H106.512V3.90354H98.8418V19.2696H97.1412V3.91838H97.139Z" fill="#F7F9FD"/>
</g>
<defs>
<clipPath id="clip0_10228_3940">
<rect width="197" height="21" fill="white"/>
</clipPath>
</defs>
</svg>
