<svg width="205" height="23" viewBox="0 0 205 23" fill="none" xmlns="http://www.w3.org/2000/svg">
<g id="Group">
<path id="Vector" d="M128.711 3.01994C128.856 2.93039 129 2.96621 129.145 2.96621C133.122 2.96621 137.098 2.9483 141.075 2.96621C144.907 3.00203 147.04 6.9063 145.413 10.0225C145.106 10.6136 144.672 11.1329 144.148 11.5986C144.925 12.1896 145.594 12.8164 145.992 13.6761C147.131 16.1834 145.956 19.1026 143.497 20.1056C142.865 20.3742 142.196 20.4996 141.527 20.5175C137.369 20.5175 133.194 20.5175 129.036 20.5175H128.729V3.00203L128.711 3.01994ZM130.464 18.7982H132.471C135.435 18.7982 138.4 18.7982 141.382 18.7982C142.828 18.7982 144.003 18.0102 144.437 16.8461C145.269 14.5716 143.443 12.6015 141.4 12.6373C137.894 12.6911 134.405 12.6373 130.898 12.6373C130.754 12.6373 130.609 12.5836 130.464 12.6911V18.7803V18.7982ZM130.464 10.8285C130.464 10.8285 130.591 10.8643 130.627 10.8643C134.134 10.8643 137.641 10.8822 141.129 10.8643C142.413 10.8643 143.407 10.2375 143.931 9.03752C144.437 7.87341 144.256 6.76302 143.443 5.79591C142.756 4.97207 141.798 4.70343 140.75 4.70343C137.442 4.70343 134.152 4.70343 130.844 4.70343C130.717 4.70343 130.591 4.6497 130.464 4.79298V10.8285Z" fill="#130C49"/>
<path id="Vector_2" d="M203.636 3.00195V4.70335H188.597V10.8642H202.751V12.6193H188.597V18.7802H204.522V20.4995H186.844V3.00195H203.655H203.636Z" fill="#130C49"/>
<path id="Vector_3" d="M72.384 20.4997H70.6307C65.9128 15.5388 61.213 10.5957 56.5312 5.65273L56.4228 5.68855V20.5176H54.6875V3.02004C55.2659 2.93049 55.8444 3.02004 56.4047 2.96631C61.1407 7.94514 65.8405 12.9061 70.6307 17.9565V3.00213H72.384V20.5176V20.4997Z" fill="#130C49"/>
<path id="Vector_4" d="M74.7734 14.8222H76.4907C76.4907 14.8222 76.5991 14.9476 76.5991 15.0192C76.798 17.0609 77.9729 18.2787 79.8709 18.9056C81.0458 19.2996 82.275 19.3891 83.5042 19.3891C84.8418 19.3891 86.1795 19.2817 87.4448 18.8339C88.4209 18.4758 89.2163 17.9206 89.6501 16.9534C90.2105 15.7535 89.7586 14.3745 88.5836 13.7297C87.6437 13.2283 86.6133 12.9596 85.583 12.7447C83.9742 12.4044 82.3473 12.1 80.7385 11.7776C79.654 11.5627 78.6056 11.2403 77.6114 10.7926C75.858 10.0046 75.2073 8.44645 75.5869 6.61968C75.8761 5.20483 76.7618 4.21981 78.0633 3.57507C80.0336 2.59005 82.1485 2.44677 84.2996 2.57214C85.5287 2.64378 86.7218 2.91242 87.8425 3.43179C89.6682 4.27354 90.7708 5.7063 91.2227 7.62261C91.3312 8.10617 91.4216 8.60763 91.3673 9.14492H89.6501C89.5416 8.66136 89.4693 8.14199 89.3247 7.64052C88.8367 5.9033 87.6075 4.90037 85.8903 4.48845C83.703 3.95117 81.5158 4.05863 79.3648 4.77501C78.3706 5.09738 77.7018 5.76003 77.3764 6.76296C77.0691 7.71216 77.5933 8.93 78.5333 9.35983C79.2744 9.71802 80.0697 9.95084 80.8651 10.112C82.9619 10.5419 85.0588 10.9717 87.1556 11.4015C88.1498 11.5985 89.0717 11.9746 89.9393 12.5119C91.3493 13.3895 91.8373 14.6789 91.6746 16.2729C91.4396 18.5653 89.9032 19.8906 87.7521 20.4458C85.0226 21.1622 82.2931 21.1264 79.5636 20.3921C77.6837 19.8906 76.1291 18.9235 75.2615 17.0967C74.9903 16.5236 74.7734 15.5386 74.7734 14.8043V14.8222Z" fill="#130C49"/>
<path id="Vector_5" d="M183.302 9.14504H181.585C181.422 8.84058 181.44 8.5003 181.386 8.16002C180.97 6.10043 179.669 4.91841 177.662 4.45276C175.565 3.9692 173.487 4.09457 171.444 4.70349C170.377 5.02586 169.582 5.68851 169.293 6.81681C169.04 7.80183 169.474 8.80476 170.359 9.30623C171.263 9.8256 172.275 10.0047 173.27 10.2196C175.24 10.6315 177.21 11.0076 179.181 11.4375C180.356 11.7061 181.476 12.1359 182.416 12.9419C183.212 13.6224 183.573 14.5 183.609 15.5208C183.682 17.67 182.651 19.3176 180.536 20.1594C178.801 20.8399 176.993 20.9653 175.168 20.9295C173.776 20.9116 172.42 20.7504 171.119 20.3026C170.052 19.9445 169.076 19.4609 168.263 18.655C167.196 17.5983 166.762 16.3088 166.672 14.8223H168.498C168.588 15.1805 168.588 15.5208 168.678 15.8432C169.076 17.3118 170.07 18.2251 171.444 18.7624C172.8 19.2997 174.228 19.3893 175.656 19.3714C176.993 19.3714 178.331 19.246 179.578 18.7266C180.518 18.3326 181.277 17.7774 181.639 16.7566C182.073 15.5208 181.675 14.2671 180.428 13.6403C179.434 13.1389 178.385 12.8702 177.301 12.6553C175.746 12.3329 174.173 12.0285 172.619 11.724C171.607 11.527 170.631 11.2225 169.691 10.8285C166.961 9.70023 166.961 6.70935 168.244 4.97213C169.166 3.71847 170.522 3.14537 172.004 2.823C174.029 2.39317 176.071 2.35735 178.096 2.823C179.795 3.21701 181.277 3.98711 182.272 5.4736C182.977 6.54817 183.338 7.7481 183.338 9.10922L183.302 9.14504Z" fill="#130C49"/>
<path id="Vector_6" d="M9.55439 22.219H0.136719V12.8882H9.55439V22.219Z" fill="#8463AA"/>
<path id="Vector_7" d="M42.2338 4.72126H34.2803C34.2261 4.13025 34.2442 3.57506 34.2803 3.00195H52.013V4.68544H44.0776V18.7802H52.013V20.4816H34.2984V18.7802H42.2519V4.72126H42.2338Z" fill="#130C49"/>
<path id="Vector_8" d="M165.353 20.5175H163.437C162.732 18.7624 162.009 16.9893 161.286 15.1984H151.723C151.018 16.9356 150.295 18.7087 149.572 20.4996H147.656C150.006 14.6432 152.356 8.82262 154.706 2.98413H158.285C160.617 8.7868 162.967 14.6074 165.335 20.4996L165.353 20.5175ZM155.935 4.73926C154.778 7.62268 153.621 10.5061 152.446 13.3895H160.581C159.406 10.4703 158.231 7.58687 157.074 4.73926H155.917H155.935Z" fill="#130C49"/>
<path id="Vector_9" d="M126.327 20.4997H124.429C123.724 18.7266 123.001 16.9357 122.296 15.1627H112.824C112.119 16.9357 111.396 18.7087 110.691 20.4997H108.793C111.125 14.6433 113.457 8.8048 115.788 2.96631H119.313C121.627 8.76898 123.959 14.5896 126.327 20.4997ZM121.591 13.3896C120.416 10.4346 119.259 7.55113 118.102 4.66771C117.668 4.73935 117.307 4.61398 116.963 4.73935C115.807 7.62277 114.668 10.4883 113.511 13.3896H121.573H121.591Z" fill="#130C49"/>
<path id="Vector_10" d="M12.8071 10.148V0.817115C12.9879 0.709658 13.1506 0.745477 13.3133 0.745477C14.6871 0.745477 16.0608 0.745477 17.4346 0.745477C19.0615 0.745477 20.381 1.37231 21.3752 2.66179C22.6767 4.34528 22.5863 6.78097 21.2306 8.39282C20.2003 9.61067 18.8627 10.13 17.3262 10.1659C15.8801 10.2017 14.434 10.1659 12.9698 10.1659C12.9156 10.1659 12.8614 10.148 12.7891 10.13L12.8071 10.148Z" fill="#ECA920"/>
<path id="Vector_11" d="M12.8267 12.8702C14.6162 12.8702 16.3515 12.7806 18.0868 12.8881C20.3463 13.0314 22.1901 15.0193 22.3167 17.258C22.4613 19.4967 20.9067 21.5742 18.7195 22.1115C18.3941 22.1831 18.0688 22.2368 17.7434 22.2368C16.2069 22.2368 14.6704 22.2368 13.1159 22.2368C13.0255 22.2368 12.9351 22.2368 12.8086 22.201V12.8523L12.8267 12.8702Z" fill="#31A880"/>
<path id="Vector_12" d="M9.60717 5.43764C9.60717 8.07034 7.54649 10.1478 4.88929 10.1478C2.2321 10.1478 0.117188 8.08825 0.117188 5.47346C0.117188 2.85868 2.21401 0.763271 4.85313 0.745361C7.49225 0.745361 9.60716 2.80495 9.62524 5.41973L9.60717 5.43764Z" fill="#E94824"/>
<path id="Vector_13" d="M100.857 4.70335H92.8672V3.00195H110.6V4.68544H102.628V20.4995H100.857V4.70335Z" fill="#130C49"/>
</g>
</svg>
