<svg width="113" height="12" viewBox="0 0 113 12" fill="none" xmlns="http://www.w3.org/2000/svg">
<g id="instabase">
<path id="Vector" d="M70.8008 1.25461C70.8804 1.20539 70.96 1.22508 71.0396 1.22508C73.2291 1.22508 75.4186 1.21523 77.6081 1.22508C79.718 1.24477 80.8924 3.39083 79.9967 5.10375C79.8275 5.42861 79.5887 5.7141 79.3 5.97005C79.728 6.29492 80.0962 6.63947 80.3152 7.112C80.9422 8.49021 80.2953 10.0948 78.9418 10.6461C78.5934 10.7938 78.2252 10.8627 77.857 10.8725C75.5679 10.8725 73.2689 10.8725 70.9799 10.8725H70.8107V1.24477L70.8008 1.25461ZM71.7662 9.92748H72.8709C74.503 9.92748 76.1352 9.92748 77.7773 9.92748C78.5735 9.92748 79.2204 9.49433 79.4593 8.85445C79.9171 7.60422 78.9119 6.52134 77.7873 6.54103C75.8566 6.57056 73.9357 6.54103 72.005 6.54103C71.9254 6.54103 71.8458 6.51149 71.7662 6.57056V9.91764V9.92748ZM71.7662 5.54675C71.7662 5.54675 71.8358 5.56644 71.8557 5.56644C73.7865 5.56644 75.7172 5.57628 77.638 5.56644C78.3446 5.56644 78.892 5.22188 79.1806 4.56231C79.4593 3.92243 79.3597 3.31208 78.9119 2.78049C78.5337 2.32765 78.0062 2.17998 77.429 2.17998C75.6077 2.17998 73.7964 2.17998 71.9751 2.17998C71.9055 2.17998 71.8358 2.15045 71.7662 2.2292V5.54675Z" fill="#181818"/>
<path id="Vector_2" d="M112.054 1.24414V2.17935H103.774V5.56581H111.567V6.53056H103.774V9.91701H112.542V10.8621H102.809V1.24414H112.064H112.054Z" fill="#181818"/>
<path id="Vector_3" d="M39.7863 10.8603H38.8209C36.2233 8.13339 33.6357 5.41635 31.0581 2.69931L30.9984 2.719V10.8701H30.043V1.25219C30.3614 1.20297 30.6799 1.25219 30.9884 1.22266C33.5959 3.95938 36.1835 6.68627 38.8209 9.46237V1.24234H39.7863V10.8701V10.8603Z" fill="#181818"/>
<path id="Vector_4" d="M41.1055 7.74099H42.0509C42.0509 7.74099 42.1106 7.80991 42.1106 7.84928C42.2201 8.97154 42.867 9.64095 43.912 9.98551C44.5589 10.2021 45.2357 10.2513 45.9124 10.2513C46.6489 10.2513 47.3854 10.1922 48.082 9.94613C48.6194 9.74924 49.0573 9.44407 49.2962 8.91247C49.6047 8.2529 49.3559 7.49489 48.709 7.14049C48.1915 6.86485 47.6242 6.71718 47.0569 6.59905C46.1712 6.41201 45.2755 6.24465 44.3897 6.06746C43.7926 5.94932 43.2153 5.77213 42.668 5.52602C41.7026 5.09287 41.3443 4.23641 41.5533 3.23228C41.7126 2.45458 42.2002 1.91314 42.9168 1.55875C44.0016 1.01731 45.166 0.938551 46.3503 1.00746C47.0271 1.04684 47.6839 1.1945 48.301 1.47999C49.3062 1.94267 49.9132 2.73022 50.162 3.78357C50.2218 4.04936 50.2715 4.32501 50.2417 4.62034H49.2962C49.2365 4.35454 49.1967 4.06905 49.1171 3.79341C48.8483 2.83851 48.1716 2.28723 47.2261 2.06081C46.0219 1.76548 44.8177 1.82454 43.6333 2.21832C43.086 2.39551 42.7177 2.75976 42.5386 3.31104C42.3694 3.83279 42.658 4.5022 43.1755 4.73847C43.5836 4.93536 44.0215 5.06333 44.4594 5.15193C45.6139 5.3882 46.7683 5.62446 47.9228 5.86072C48.4702 5.96901 48.9777 6.17574 49.4554 6.47107C50.2317 6.95345 50.5004 7.66224 50.4109 8.53839C50.2815 9.79846 49.4355 10.5269 48.2512 10.8321C46.7484 11.2259 45.2456 11.2062 43.7428 10.8026C42.7078 10.5269 41.8519 9.99535 41.3742 8.99123C41.2249 8.67621 41.1055 8.13477 41.1055 7.73115V7.74099Z" fill="#181818"/>
<path id="Vector_5" d="M100.855 4.62065H99.9099C99.8203 4.45329 99.8302 4.26625 99.8004 4.07921C99.5715 2.94711 98.8549 2.29738 97.7502 2.04143C96.5958 1.77563 95.4512 1.84454 94.3266 2.17925C93.7394 2.35645 93.3015 2.72069 93.1423 3.34088C93.003 3.88232 93.2418 4.4336 93.7295 4.70925C94.2271 4.99473 94.7844 5.09318 95.3318 5.21131C96.4166 5.43773 97.5014 5.64446 98.5862 5.88072C99.2331 6.02839 99.8501 6.26465 100.368 6.70765C100.806 7.08173 101.005 7.56411 101.025 8.12524C101.064 9.30656 100.497 10.2122 99.3326 10.6749C98.3772 11.049 97.382 11.1179 96.3768 11.0982C95.6105 11.0884 94.864 10.9998 94.1475 10.7537C93.5603 10.5568 93.0229 10.291 92.575 9.848C91.9878 9.26718 91.749 8.55838 91.6992 7.7413H92.7044C92.7542 7.93819 92.7542 8.12524 92.8039 8.30243C93.0229 9.10967 93.5703 9.61173 94.3266 9.90706C95.073 10.2024 95.8593 10.2516 96.6455 10.2418C97.382 10.2418 98.1185 10.1729 98.8052 9.88737C99.3227 9.6708 99.7407 9.36562 99.9397 8.8045C100.179 8.12524 99.9596 7.43613 99.2729 7.09158C98.7255 6.81594 98.1483 6.66827 97.5512 6.55014C96.6953 6.37294 95.8294 6.20559 94.9735 6.03823C94.4162 5.92994 93.8788 5.76259 93.3613 5.54602C91.8585 4.92582 91.8585 3.28182 92.5651 2.32691C93.0726 1.63781 93.8191 1.32279 94.6351 1.14559C95.7498 0.909328 96.8744 0.88964 97.9891 1.14559C98.9246 1.36217 99.7407 1.78547 100.288 2.60256C100.676 3.19322 100.875 3.85279 100.875 4.60096L100.855 4.62065Z" fill="#181818"/>
<path id="Vector_6" d="M5.19687 11.8066H0.0117188V6.67773H5.19687V11.8066Z" fill="#181818"/>
<path id="Vector_7" d="M23.1869 2.1892H18.8079C18.778 1.86433 18.788 1.55916 18.8079 1.24414H28.5711V2.16951H24.2021V9.91701H28.5711V10.8522H18.8179V9.91701H23.1969V2.1892H23.1869Z" fill="#181818"/>
<path id="Vector_8" d="M90.9738 10.87H89.9188C89.5307 9.90529 89.1326 8.9307 88.7345 7.94627H83.4697C83.0816 8.90117 82.6835 9.87576 82.2854 10.8602H81.2305C82.5243 7.64109 83.8181 4.44168 85.1119 1.23242H87.0824C88.3663 4.42199 89.6601 7.6214 90.9638 10.8602L90.9738 10.87ZM85.7886 2.19717C85.1517 3.78211 84.5147 5.36705 83.8678 6.95199H88.3464C87.6995 5.34736 87.0526 3.76242 86.4156 2.19717H85.7787H85.7886Z" fill="#181818"/>
<path id="Vector_9" d="M69.4897 10.8603H68.4447C68.0565 9.88568 67.6584 8.90125 67.2703 7.92666H62.0553C61.6672 8.90125 61.2691 9.87584 60.8809 10.8603H59.8359C61.1198 7.64117 62.4036 4.43191 63.6875 1.22266H65.6282C66.9021 4.41223 68.1859 7.61164 69.4897 10.8603ZM66.8822 6.95207C66.2353 5.32775 65.5983 3.74281 64.9614 2.15787C64.7225 2.19725 64.5235 2.12834 64.3344 2.19725C63.6974 3.78219 63.0704 5.35728 62.4335 6.95207H66.8722H66.8822Z" fill="#181818"/>
<path id="Vector_10" d="M6.98652 5.17143V0.0425276C7.08604 -0.0165385 7.17561 0.0031502 7.26518 0.0031502C8.02155 0.0031502 8.77793 0.0031502 9.5343 0.0031502C10.43 0.0031502 11.1565 0.347702 11.7039 1.0565C12.4205 1.98186 12.3707 3.3207 11.6243 4.20669C11.057 4.8761 10.3205 5.16159 9.47459 5.18128C8.67841 5.20097 7.88222 5.18128 7.07608 5.18128C7.04623 5.18128 7.01637 5.17143 6.97656 5.16159L6.98652 5.17143Z" fill="#181818"/>
<path id="Vector_11" d="M6.99824 6.66767C7.98351 6.66767 8.93893 6.61844 9.89435 6.67751C11.1384 6.75626 12.1535 7.84899 12.2232 9.07953C12.3028 10.3101 11.4469 11.452 10.2427 11.7473C10.0635 11.7867 9.8844 11.8163 9.70526 11.8163C8.85932 11.8163 8.01337 11.8163 7.15747 11.8163C7.10771 11.8163 7.05795 11.8163 6.98828 11.7966V6.65782L6.99824 6.66767Z" fill="#181818"/>
<path id="Vector_12" d="M5.22496 2.58313C5.22496 4.03025 4.09039 5.17219 2.62741 5.17219C1.16442 5.17219 0 4.04009 0 2.60281C0 1.16554 1.15446 0.0137506 2.6075 0.00390625C4.06053 0.00390625 5.22495 1.13601 5.2349 2.57328L5.22496 2.58313Z" fill="#181818"/>
<path id="Vector_13" d="M55.4614 2.17935H51.0625V1.24414H60.8257V2.16951H56.4367V10.8621H55.4614V2.17935Z" fill="#181818"/>
</g>
</svg>
