<svg width="172" height="18" viewBox="0 0 172 18" fill="none" xmlns="http://www.w3.org/2000/svg">
<g clip-path="url(#clip0_627_54)">
<path d="M108.215 1.89065C108.33 1.81019 108.458 1.84859 108.576 1.84859C111.926 1.84676 115.275 1.82665 118.623 1.85225C121.848 1.87785 123.637 5.15822 122.271 7.76936C122.01 8.27037 121.648 8.70373 121.205 9.08589C121.856 9.57594 122.417 10.1026 122.749 10.8321C123.706 12.9368 122.712 15.376 120.643 16.2263C120.104 16.4475 119.555 16.5627 118.983 16.5646C115.479 16.57 111.976 16.5682 108.473 16.5682H108.215V1.89065ZM109.692 15.1072H111.383C113.88 15.1072 116.378 15.1109 118.875 15.1072C120.093 15.1054 121.079 14.4526 121.444 13.467C122.149 11.5635 120.612 9.91239 118.89 9.93981C115.946 9.98736 113.001 9.95261 110.055 9.95444C109.939 9.95444 109.811 9.91239 109.688 10.0038V15.1072H109.692ZM109.688 8.43494C109.763 8.45688 109.79 8.47151 109.818 8.47151C112.766 8.47151 115.715 8.49345 118.662 8.46419C119.743 8.45322 120.58 7.94489 121.018 6.9392C121.444 5.96094 121.288 5.03754 120.603 4.21836C120.019 3.52169 119.212 3.30775 118.336 3.30593C115.557 3.30044 112.778 3.3041 110.002 3.30593C109.9 3.30593 109.785 3.2657 109.688 3.37358V8.43311V8.43494Z" fill="white"/>
<path d="M171.26 1.87964V3.30772H158.598V8.46964H170.502V9.94343H158.596V15.1017H172V16.5462H157.119V1.87964H171.26Z" fill="white"/>
<path d="M60.8246 16.5446H59.3491C55.3805 12.3847 51.4285 8.24127 47.4784 4.09783L47.3913 4.1216V16.5409H45.9307V1.88166C46.4163 1.8012 46.9057 1.87251 47.3784 1.8396C51.3599 6.01412 55.3249 10.174 59.3565 14.4034V1.86703H60.8246V16.5446Z" fill="white"/>
<path d="M62.8232 11.7866H64.2727C64.3376 11.8342 64.3598 11.889 64.3654 11.9512C64.5266 13.6591 65.5146 14.6849 67.1217 15.2133C68.1153 15.5406 69.1403 15.6156 70.1746 15.6192C71.3016 15.6247 72.4194 15.5333 73.4871 15.1493C74.3064 14.8549 74.9718 14.3832 75.35 13.5676C75.8189 12.5583 75.4482 11.4008 74.4565 10.8724C73.6632 10.45 72.8012 10.2214 71.9263 10.0422C70.5695 9.7643 69.2089 9.49916 67.8483 9.23585C66.9382 9.06032 66.0577 8.78969 65.218 8.41119C63.7444 7.74744 63.1957 6.44553 63.5108 4.92054C63.7555 3.73199 64.5025 2.90916 65.5943 2.36243C67.257 1.53045 69.0365 1.41708 70.8475 1.52679C71.8818 1.58896 72.8846 1.80473 73.8318 2.23992C75.3741 2.94756 76.2972 4.14158 76.679 5.75434C76.7754 6.1621 76.844 6.57901 76.7958 7.02517H75.3481C75.2628 6.61375 75.198 6.18405 75.0793 5.76897C74.6641 4.31346 73.6279 3.47966 72.1858 3.13041C70.3378 2.68242 68.4971 2.7775 66.6917 3.36995C65.8557 3.64423 65.2996 4.19827 65.0216 5.04122C64.7583 5.8348 65.2106 6.85146 65.9947 7.22265C66.6249 7.52253 67.283 7.71635 67.9633 7.85532C69.7242 8.21919 71.4889 8.57393 73.2498 8.93781C74.0821 9.10969 74.8643 9.41322 75.5854 9.86121C76.7698 10.5981 77.1814 11.6842 77.0498 13.0172C76.8588 14.9409 75.565 16.0453 73.7429 16.5189C71.4518 17.115 69.1422 17.0949 66.8548 16.4805C65.2681 16.0544 63.9576 15.2462 63.2272 13.7121C62.9992 13.233 62.8102 12.401 62.8176 11.7885L62.8232 11.7866Z" fill="white"/>
<path d="M154.157 7.03065H152.711C152.576 6.77831 152.596 6.48575 152.541 6.20964C152.196 4.489 151.102 3.49245 149.406 3.09749C147.641 2.68607 145.888 2.79944 144.168 3.31143C143.274 3.57657 142.605 4.13609 142.359 5.08144C142.144 5.90976 142.511 6.74723 143.263 7.17145C144.025 7.60115 144.874 7.76389 145.715 7.9376C147.371 8.28136 149.035 8.59038 150.687 8.95426C151.68 9.17368 152.618 9.53939 153.406 10.2178C154.075 10.7938 154.379 11.5252 154.407 12.3773C154.47 14.1747 153.601 15.5625 151.819 16.261C150.357 16.8334 148.844 16.9303 147.298 16.9047C146.133 16.8864 144.993 16.7474 143.888 16.3854C142.991 16.091 142.166 15.6759 141.487 15.003C140.592 14.118 140.223 13.0337 140.142 11.7958H141.676C141.756 12.092 141.747 12.3791 141.823 12.657C142.16 13.884 142.992 14.6483 144.153 15.1036C145.291 15.5497 146.49 15.6265 147.697 15.6174C148.826 15.6083 149.945 15.515 150.998 15.078C151.782 14.7543 152.435 14.2771 152.739 13.4323C153.11 12.3937 152.767 11.3515 151.718 10.8285C150.883 10.4134 149.992 10.1849 149.087 10.0002C147.775 9.73321 146.461 9.47722 145.146 9.22305C144.296 9.05848 143.474 8.79883 142.679 8.4697C140.384 7.52252 140.375 5.02476 141.465 3.55828C142.244 2.51054 143.389 2.02415 144.626 1.75718C146.331 1.38965 148.049 1.36039 149.758 1.75535C151.193 2.08815 152.44 2.73179 153.267 3.98067C153.866 4.88396 154.172 5.89148 154.159 7.02699L154.157 7.03065Z" fill="white"/>
<path d="M7.9519 17.9798H0.0332031V10.1665H7.9519V17.9798Z" fill="#8362AC"/>
<path d="M35.4399 3.31697H28.7446C28.6983 2.82144 28.7187 2.35699 28.7317 1.87061H43.6534V3.28771H36.9822V15.1H43.6534V16.5281H28.7465V15.1H35.4418V3.31697H35.4399Z" fill="white"/>
<path d="M139.054 16.5482H137.447C136.848 15.0744 136.248 13.5969 135.636 12.0921H127.591C127 13.5476 126.396 15.0323 125.784 16.5354H124.177C126.16 11.6294 128.131 6.75825 130.108 1.86694H133.119C135.082 6.72168 137.058 11.6057 139.054 16.5463V16.5482ZM131.126 3.32611C130.147 5.7489 129.174 8.15524 128.195 10.578H135.041C134.047 8.1333 133.067 5.71965 132.094 3.32611H131.128H131.126Z" fill="white"/>
<path d="M106.208 16.5444H104.617C104.018 15.0541 103.416 13.5584 102.819 12.0755H94.843C94.2443 13.5657 93.6456 15.0505 93.0431 16.5462H91.4453C93.4139 11.6384 95.375 6.74897 97.338 1.85767H100.311C102.265 6.72337 104.222 11.6 106.206 16.5444H106.208ZM102.215 10.587C101.223 8.11488 100.256 5.70123 99.2862 3.28392C98.921 3.34243 98.6133 3.24552 98.3315 3.34426C97.3639 5.76157 96.4056 8.15511 95.4325 10.587H102.215Z" fill="white"/>
<path d="M10.6903 7.87367V0.0622162C10.8386 -0.0273815 10.9814 0.00736043 11.1167 0.00736043C12.2752 0.00370338 13.4318 0.00187486 14.5904 0.00736043C15.9565 0.012846 17.0668 0.539461 17.8991 1.61463C18.9872 3.02077 18.9167 5.06323 17.7805 6.42183C16.9204 7.44946 15.7952 7.87185 14.4995 7.90842C13.2817 7.94316 12.0602 7.91573 10.8405 7.9139C10.7978 7.9139 10.7552 7.89379 10.6885 7.87733L10.6903 7.87367Z" fill="#EDA91F"/>
<path d="M10.6972 10.1464C12.1986 10.1464 13.6667 10.0714 15.1255 10.1647C17.0255 10.2854 18.5714 11.9439 18.69 13.8272C18.8086 15.7051 17.5092 17.4477 15.6612 17.8957C15.3887 17.9615 15.1162 17.9981 14.8382 17.9999C13.5425 17.9999 12.2449 18.0018 10.9493 17.9999C10.8733 17.9999 10.7991 17.9871 10.6953 17.9762V10.1464H10.6972Z" fill="#32A980"/>
<path d="M7.99099 3.92394C8.00026 6.12731 6.25229 7.86806 4.02237 7.87538C1.79246 7.88269 0.00185508 6.14376 1.45288e-06 3.96599C-0.00185218 1.77908 1.77022 0.0145496 3.97974 0.00540694C6.20039 -0.00373568 7.98172 1.73702 7.99099 3.92394Z" fill="#EA4723"/>
<path d="M84.7716 3.30039H78.043V1.87231H92.9647V3.28759H86.2601V16.5334H84.7735V3.30039H84.7716Z" fill="white"/>
</g>
<defs>
<clipPath id="clip0_627_54">
<rect width="172" height="18" fill="white"/>
</clipPath>
</defs>
</svg>
