<svg width="99" height="39" viewBox="0 0 99 39" fill="none" xmlns="http://www.w3.org/2000/svg">
<g id="intel-footer-logo 1" clip-path="url(#clip0_3950_972)">
<path id="Vector" d="M8.20529 1.30078H1.17578V8.33029H8.20529V1.30078Z" fill="#0068B5"/>
<g id="Group">
<path id="Vector_2" d="M8.02927 37.9243V12.6081H1.375V37.9243H8.02927ZM52.2576 38.1745V31.9705C51.282 31.9705 50.4565 31.9205 49.8561 31.8204C49.1556 31.7204 48.6303 31.4702 48.2801 31.12C47.9299 30.7697 47.7047 30.2694 47.5796 29.619C47.4796 28.9936 47.4295 28.1681 47.4295 27.1674V18.3118H52.2576V12.6081H47.4295V2.72676H40.7502V27.2175C40.7502 29.2938 40.9254 31.0449 41.2756 32.4458C41.6258 33.8217 42.2262 34.9474 43.0517 35.798C43.8773 36.6485 44.978 37.2489 46.3038 37.6241C47.6547 37.9994 49.3558 38.1745 51.3821 38.1745H52.2576ZM90.4821 37.9243V0.775513H83.8028V37.9243H90.4821ZM34.3211 15.0847C32.4699 13.0834 29.8683 12.0828 26.5662 12.0828C24.9651 12.0828 23.5142 12.408 22.1883 13.0584C20.8875 13.7088 19.7618 14.6094 18.8862 15.7601L18.511 16.2354V15.8102V12.6081H11.9318V37.9243H18.561V24.4407V25.3663C18.561 25.2162 18.561 25.0661 18.561 24.916C18.6361 22.5395 19.2114 20.7883 20.3121 19.6626C21.4879 18.4619 22.9138 17.8615 24.5399 17.8615C26.4661 17.8615 27.942 18.4619 28.9177 19.6126C29.8683 20.7633 30.3686 22.3894 30.3686 24.4657V24.5157V37.8993H37.0979V23.5401C37.1229 19.9378 36.1723 17.086 34.3211 15.0847ZM80.3506 25.2162C80.3506 23.39 80.0254 21.6889 79.4 20.0879C78.7496 18.5119 77.849 17.111 76.7233 15.9102C75.5726 14.7094 74.1967 13.7839 72.5957 13.1084C70.9946 12.433 69.2185 12.1078 67.2923 12.1078C65.4661 12.1078 63.74 12.458 62.139 13.1334C60.5379 13.8339 59.137 14.7595 57.9613 15.9352C56.7855 17.111 55.8349 18.5119 55.1595 20.1129C54.459 21.7139 54.1338 23.44 54.1338 25.2662C54.1338 27.0924 54.459 28.8185 55.1095 30.4195C55.7599 32.0205 56.6855 33.4214 57.8362 34.5972C58.9869 35.7729 60.4129 36.7236 62.0639 37.399C63.715 38.0994 65.5411 38.4497 67.4924 38.4497C73.146 38.4497 76.6483 35.873 78.7496 33.4715L73.9465 29.8191C72.9459 31.0199 70.5443 32.6459 67.5424 32.6459C65.6662 32.6459 64.1152 32.2207 62.9395 31.3451C61.7637 30.4946 60.9632 29.2938 60.5379 27.8178L60.4629 27.5927H80.3506V25.2162ZM60.5129 22.8897C60.5129 21.0385 62.6393 17.8114 67.2172 17.7864C71.7952 17.7864 73.9465 21.0135 73.9465 22.8647L60.5129 22.8897Z" fill="black"/>
<path id="Vector_3" d="M98.0858 34.6222C97.9608 34.322 97.7856 34.0718 97.5605 33.8467C97.3353 33.6215 97.0852 33.4464 96.785 33.3213C96.4848 33.1963 96.1596 33.1212 95.8344 33.1212C95.4842 33.1212 95.184 33.1963 94.8838 33.3213C94.5836 33.4464 94.3334 33.6215 94.1083 33.8467C93.8831 34.0718 93.708 34.322 93.5829 34.6222C93.4579 34.9224 93.3828 35.2476 93.3828 35.5728C93.3828 35.923 93.4579 36.2232 93.5829 36.5234C93.708 36.8236 93.8831 37.0738 94.1083 37.2989C94.3334 37.524 94.5836 37.6992 94.8838 37.8242C95.184 37.9493 95.5092 38.0244 95.8344 38.0244C96.1846 38.0244 96.4848 37.9493 96.785 37.8242C97.0852 37.6992 97.3353 37.524 97.5605 37.2989C97.7856 37.0738 97.9608 36.8236 98.0858 36.5234C98.2109 36.2232 98.286 35.898 98.286 35.5728C98.286 35.2476 98.2109 34.9224 98.0858 34.6222ZM97.6856 36.3733C97.5855 36.6235 97.4354 36.8486 97.2603 37.0237C97.0852 37.1988 96.86 37.3489 96.6099 37.449C96.3597 37.5491 96.1096 37.5991 95.8094 37.5991C95.5342 37.5991 95.259 37.5491 95.0089 37.449C94.7587 37.3489 94.5336 37.1988 94.3584 37.0237C94.1833 36.8486 94.0332 36.6235 93.9332 36.3733C93.8331 36.1231 93.7831 35.873 93.7831 35.5728C93.7831 35.2976 93.8331 35.0224 93.9332 34.7723C94.0332 34.5221 94.1833 34.297 94.3584 34.1219C94.5336 33.9467 94.7587 33.7966 95.0089 33.6966C95.259 33.5965 95.5092 33.5465 95.8094 33.5465C96.0845 33.5465 96.3597 33.5965 96.6099 33.6966C96.86 33.7966 97.0852 33.9467 97.2603 34.1219C97.4354 34.297 97.5855 34.5221 97.6856 34.7723C97.7856 35.0224 97.8357 35.2726 97.8357 35.5728C97.8607 35.873 97.7856 36.1231 97.6856 36.3733ZM96.2847 35.7729C96.4848 35.7479 96.6349 35.6729 96.76 35.5478C96.8851 35.4227 96.9601 35.2476 96.9601 34.9974C96.9601 34.7222 96.8851 34.5221 96.7099 34.372C96.5599 34.2219 96.2847 34.1469 95.9595 34.1469H94.8588V36.9737H95.3841V35.8229H95.7593L96.4598 36.9737H97.0101L96.2847 35.7729ZM96.0095 35.3727C95.9344 35.3727 95.8594 35.3727 95.7593 35.3727H95.3841V34.5721H95.7593C95.8344 34.5721 95.9094 34.5721 96.0095 34.5721C96.0845 34.5721 96.1596 34.5972 96.2346 34.6222C96.3097 34.6472 96.3597 34.6972 96.3847 34.7473C96.4098 34.7973 96.4348 34.8723 96.4348 34.9724C96.4348 35.0725 96.4098 35.1475 96.3847 35.1975C96.3347 35.2476 96.2847 35.2976 96.2346 35.3226C96.1596 35.3476 96.0845 35.3727 96.0095 35.3727Z" fill="black"/>
</g>
</g>
<defs>
<clipPath id="clip0_3950_972">
<rect width="98.9134" height="39" fill="white"/>
</clipPath>
</defs>
</svg>
