<svg width="141" height="123" viewBox="0 0 141 123" fill="none" xmlns="http://www.w3.org/2000/svg">
<g clip-path="url(#clip0_4231_8940)">
<path d="M1.84967 123C1.2994 123 0.749123 122.756 0.388438 122.285C-0.235824 121.477 -0.0878508 120.319 0.716754 119.695L32.8269 94.8628C33.6362 94.2397 34.7968 94.3827 35.4211 95.1905C36.0454 95.9982 35.8974 97.1568 35.0928 97.7799L2.98259 122.617C2.64503 122.876 2.24735 123.005 1.84967 123.005V123Z" fill="white"/>
<path d="M80.807 119.94C47.7396 119.94 20.8408 93.0902 20.8408 60.0831C20.8408 44.0942 27.0788 29.0654 38.4034 17.7568L41.0207 20.3693C30.3943 30.9763 24.5402 45.082 24.5402 60.0831C24.5402 91.05 49.7835 116.247 80.807 116.247C90.6888 116.247 100.409 113.653 108.917 108.747L110.767 111.945C101.699 117.175 91.3408 119.94 80.807 119.94Z" fill="white"/>
<path d="M118.605 106.854L115.988 103.623C116.219 103.434 116.45 103.245 116.677 103.055L119.34 106.245C119.095 106.448 118.85 106.651 118.6 106.85L118.605 106.854ZM120.792 105.003L118.027 101.897C118.249 101.698 118.471 101.5 118.688 101.301L121.5 104.362C121.264 104.579 121.028 104.791 120.787 105.003H120.792ZM122.896 103.046L119.983 100.078C120.196 99.8706 120.408 99.6582 120.616 99.4505L123.571 102.372C123.349 102.598 123.123 102.825 122.891 103.046H122.896ZM124.898 100.992L121.851 98.1628C122.054 97.9458 122.253 97.7243 122.452 97.5073L125.546 100.291C125.333 100.526 125.116 100.761 124.898 100.997V100.992ZM126.803 98.8505L123.627 96.1688C123.816 95.9426 124.006 95.7164 124.195 95.4856L127.418 98.1166C127.215 98.3658 127.012 98.6105 126.803 98.8551V98.8505ZM128.607 96.6119L125.305 94.0824C125.486 93.847 125.666 93.6116 125.842 93.3716L129.185 95.8456C128.995 96.1041 128.801 96.358 128.607 96.6119ZM130.304 94.2948L126.882 91.9269C127.053 91.6823 127.22 91.4376 127.386 91.193L130.845 93.5055C130.665 93.7686 130.489 94.0317 130.304 94.2948ZM131.885 91.8992L128.357 89.6975C128.514 89.4436 128.672 89.1944 128.824 88.9359L132.389 91.0822C132.223 91.3545 132.057 91.6269 131.89 91.8992H131.885ZM133.351 89.4298L129.721 87.3942C129.865 87.1358 130.008 86.8773 130.151 86.6142L133.814 88.5897C133.661 88.8713 133.508 89.1528 133.351 89.4298ZM134.697 86.8958L130.974 85.0356C131.109 84.7725 131.238 84.5048 131.368 84.2371L135.122 86.0326C134.984 86.3234 134.845 86.6096 134.702 86.8958H134.697ZM135.918 84.2925L132.107 82.617C132.228 82.3446 132.343 82.0723 132.463 81.8L136.297 83.4155C136.172 83.7109 136.047 84.0017 135.918 84.2925ZM137.014 81.6384L133.129 80.1476C133.236 79.8706 133.342 79.5937 133.444 79.3121L137.351 80.743C137.24 81.043 137.129 81.343 137.014 81.6384ZM137.985 78.9336L134.036 77.632C134.128 77.3504 134.221 77.0689 134.308 76.7827L138.281 78.0197C138.184 78.3243 138.086 78.629 137.985 78.9336ZM138.817 76.1826L134.808 75.0703C134.886 74.7841 134.965 74.4979 135.039 74.2071L139.067 75.2549C138.988 75.5641 138.905 75.8734 138.817 76.1826ZM139.52 73.3947L135.46 72.4762C135.525 72.1854 135.589 71.8992 135.649 71.6038L139.723 72.4531C139.659 72.767 139.589 73.0809 139.52 73.3901V73.3947ZM140.089 70.5791L135.992 69.8591C136.043 69.5683 136.093 69.2729 136.14 68.9775L140.251 69.6329C140.2 69.9514 140.149 70.2653 140.093 70.5791H140.089ZM140.523 67.7359L136.394 67.2097C136.431 66.9143 136.468 66.6188 136.5 66.3234L140.639 66.7804C140.602 67.0989 140.565 67.4174 140.523 67.7359ZM140.815 64.8787L136.667 64.551C136.69 64.2556 136.713 63.9602 136.732 63.6602L140.884 63.9233C140.866 64.2417 140.842 64.5602 140.815 64.8741V64.8787ZM140.977 62.017L136.815 61.8877C136.824 61.5923 136.833 61.2923 136.838 60.9969L141 61.0615C140.995 61.38 140.986 61.6985 140.977 62.017ZM136.838 59.2152C136.838 58.9198 136.829 58.6198 136.819 58.3244L140.981 58.1951C140.99 58.5136 141 58.8321 141.004 59.1506L136.843 59.2152H136.838ZM136.732 56.5473C136.713 56.2519 136.69 55.9565 136.667 55.6611L140.815 55.338C140.838 55.6565 140.861 55.975 140.884 56.2888L136.732 56.5473ZM136.505 53.8887C136.473 53.5933 136.436 53.2978 136.399 53.0024L140.528 52.4809C140.57 52.7947 140.607 53.1132 140.639 53.4317L136.5 53.8887H136.505ZM136.149 51.2392C136.103 50.9438 136.052 50.653 136.001 50.3622L140.103 49.6468C140.158 49.9607 140.209 50.2745 140.26 50.5884L136.149 51.2438V51.2392ZM135.663 48.6175C135.603 48.3267 135.538 48.0359 135.474 47.7451L139.534 46.8358C139.603 47.1451 139.673 47.4589 139.737 47.7682L135.663 48.6175ZM135.058 46.0142C134.984 45.728 134.905 45.4419 134.826 45.1557L138.836 44.0479C138.919 44.3572 139.002 44.6618 139.085 44.9711L135.058 46.0142ZM134.322 43.4479C134.234 43.1663 134.142 42.8801 134.05 42.5986L138.003 41.3016C138.105 41.6062 138.202 41.9062 138.295 42.2109L134.322 43.4433V43.4479ZM133.467 40.9231C133.365 40.6461 133.263 40.3646 133.157 40.0922L137.041 38.606C137.157 38.9014 137.268 39.2014 137.379 39.5014L133.467 40.9231ZM132.496 38.4398C132.38 38.1675 132.265 37.8951 132.144 37.6274L135.955 35.9565C136.084 36.2473 136.209 36.5381 136.334 36.8335L132.496 38.4398ZM131.405 36.0165C131.275 35.7488 131.146 35.4811 131.016 35.218L134.743 33.3717C134.886 33.6579 135.025 33.9395 135.159 34.2256L131.405 36.0165ZM130.198 33.6394C130.059 33.3764 129.916 33.1179 129.768 32.8594L133.402 30.8331C133.555 31.11 133.712 31.387 133.86 31.6685L130.198 33.6394ZM128.88 31.3223C128.727 31.0685 128.575 30.8192 128.417 30.5654L131.95 28.3683C132.117 28.636 132.283 28.9083 132.45 29.1853L128.88 31.3223ZM127.451 29.0745C127.284 28.8299 127.118 28.5852 126.951 28.3406L130.373 25.9773C130.554 26.2404 130.734 26.5035 130.91 26.7666L127.446 29.0745H127.451ZM125.916 26.8912C125.74 26.6512 125.56 26.4158 125.379 26.1804L128.69 23.6602C128.884 23.9141 129.074 24.168 129.264 24.4218L125.916 26.8912ZM124.279 24.7865C124.089 24.5557 123.899 24.3295 123.71 24.0987L126.896 21.4262C127.099 21.6709 127.303 21.9155 127.506 22.1601L124.279 24.7865ZM122.54 22.7556C122.341 22.534 122.142 22.3171 121.939 22.1001L124.995 19.2799C125.213 19.5153 125.425 19.7507 125.638 19.9861L122.54 22.7556ZM120.704 20.8077C120.496 20.5954 120.288 20.3877 120.075 20.18L122.989 17.2167C123.215 17.4428 123.442 17.6644 123.668 17.8952L120.7 20.8077H120.704ZM118.785 18.9568C118.568 18.7537 118.346 18.5552 118.124 18.3568L120.898 15.2596C121.134 15.4719 121.375 15.6843 121.606 15.9012L118.785 18.9568ZM116.774 17.189C116.547 16.9997 116.316 16.8105 116.089 16.6259L118.711 13.3995C118.961 13.6026 119.206 13.8057 119.451 14.0087L116.774 17.189ZM114.684 15.5273C114.448 15.3473 114.207 15.1673 113.967 14.9919L116.431 11.6455C116.69 11.8347 116.945 12.024 117.199 12.2178L114.684 15.5273ZM48.7984 14.1657L46.417 10.7593C46.6806 10.5746 46.9441 10.3946 47.2077 10.2192L49.5337 13.6672C49.2886 13.8333 49.0435 13.9995 48.7984 14.1703V14.1657ZM112.515 13.958C112.27 13.7918 112.025 13.6256 111.775 13.4595L114.078 9.99767C114.346 10.1731 114.61 10.3531 114.873 10.5331L112.515 13.958ZM51.0319 12.6933L48.8169 9.17607C49.0851 9.00529 49.358 8.83913 49.6308 8.67296L51.7903 12.2225C51.5359 12.3748 51.2816 12.5317 51.0319 12.6886V12.6933ZM110.272 12.4994C110.018 12.3425 109.763 12.1901 109.509 12.0378L111.645 8.47448C111.918 8.64065 112.196 8.80682 112.469 8.97298L110.272 12.504V12.4994ZM53.3301 11.327L51.2862 7.70827C51.5637 7.55134 51.8411 7.39902 52.1232 7.2467L54.1116 10.8977C53.8526 11.0408 53.5891 11.1839 53.3301 11.327ZM107.965 11.147C107.706 11.0039 107.442 10.8608 107.179 10.7177L109.144 7.05284C109.426 7.20516 109.708 7.35748 109.985 7.50979L107.965 11.1424V11.147ZM55.6884 10.0715L53.8203 6.36048C54.107 6.21739 54.3891 6.07892 54.6804 5.94045L56.4884 9.67919C56.2202 9.80843 55.952 9.93767 55.6884 10.0715ZM105.588 9.90536C105.32 9.7715 105.051 9.64226 104.783 9.51764L106.563 5.76505C106.855 5.90352 107.142 6.04199 107.428 6.18046L105.583 9.90536H105.588ZM58.1023 8.93144L56.4144 5.13269C56.7058 5.00345 56.9971 4.87883 57.293 4.7542L58.9207 8.57603C58.6479 8.69142 58.3751 8.81143 58.1023 8.93144ZM103.155 8.7745C102.883 8.6545 102.61 8.5391 102.337 8.42832L103.937 4.59265C104.233 4.71728 104.529 4.8419 104.825 4.97114L103.16 8.77912L103.155 8.7745ZM60.5716 7.90675L59.0687 4.03415C59.3647 3.91876 59.6652 3.80798 59.9658 3.6972L61.4039 7.59288C61.1265 7.69442 60.849 7.80058 60.5716 7.90675ZM100.677 7.76828C100.399 7.66211 100.117 7.56057 99.8353 7.45902L101.25 3.55411C101.551 3.66489 101.851 3.77567 102.152 3.88645L100.682 7.77289L100.677 7.76828ZM63.0871 7.00206L61.7738 3.06023C62.0744 2.95868 62.3796 2.86175 62.6802 2.76482L63.9333 6.72512C63.6512 6.81743 63.3646 6.90513 63.0825 7.00206H63.0871ZM98.1475 6.87744C97.8608 6.78512 97.5787 6.69281 97.292 6.60511L98.5174 2.63558C98.8226 2.7279 99.1278 2.82483 99.433 2.92176L98.1521 6.87282L98.1475 6.87744ZM65.6443 6.222L64.5206 2.22017C64.8258 2.13247 65.1356 2.04938 65.4454 1.97092L66.5044 5.9866C66.2177 6.06045 65.931 6.13892 65.6443 6.222ZM95.5811 6.11584C95.2944 6.03738 95.0077 5.96352 94.7164 5.88967L95.7476 1.86476C96.0574 1.94322 96.3672 2.02631 96.6724 2.10939L95.5811 6.11584ZM68.2292 5.56196L67.2997 1.51396C67.6095 1.44472 67.9194 1.37549 68.2338 1.30625L69.0985 5.36809C68.8072 5.4281 68.5159 5.49272 68.2292 5.56196ZM92.9823 5.47426C92.691 5.40964 92.4043 5.34963 92.113 5.28963L92.9453 1.21855C93.2598 1.28317 93.5696 1.34779 93.884 1.41703L92.9823 5.47426ZM70.8511 5.03115L70.1158 0.941609C70.4303 0.88622 70.7447 0.830832 71.0592 0.780059L71.725 4.87883C71.4337 4.92498 71.1424 4.97576 70.8511 5.02653V5.03115ZM90.3604 4.96191C90.0691 4.91114 89.7778 4.86498 89.4818 4.81882L90.12 0.715438C90.4344 0.766211 90.7535 0.816984 91.0679 0.867757L90.3604 4.96191ZM73.4915 4.62035L72.9551 0.503115C73.2695 0.461573 73.5886 0.424647 73.9076 0.387721L74.3793 4.51418C74.0834 4.54649 73.792 4.58342 73.4961 4.62035H73.4915ZM87.7154 4.56957C87.4195 4.53265 87.1235 4.50034 86.8276 4.46803L87.2715 0.336948C87.5905 0.369258 87.905 0.406184 88.2194 0.447726L87.7108 4.56957H87.7154ZM76.1457 4.33879L75.8036 0.198476C76.1226 0.170782 76.4417 0.147703 76.7608 0.12924L77.029 4.27417C76.733 4.29263 76.4417 4.31571 76.1457 4.33879ZM85.0519 4.30648C84.7559 4.2834 84.46 4.26494 84.164 4.24647L84.4091 0.101546C84.7282 0.120009 85.0473 0.143088 85.3663 0.166166L85.0565 4.30648H85.0519ZM78.8139 4.18647L78.6659 0.0369258C78.985 0.0276944 79.304 0.0184629 79.6231 0.00923146L79.7017 4.16339C79.4058 4.16801 79.1098 4.17724 78.8139 4.18647ZM82.3791 4.17262C82.0832 4.16339 81.7872 4.15877 81.4867 4.15416L81.5375 0C81.8566 0 82.1756 0.00923146 82.4947 0.0184629L82.3791 4.17262Z" fill="white"/>
<path d="M80.6037 105.441C80.1413 105.441 79.6835 105.432 79.2257 105.414C79.1286 105.414 79.0546 105.331 79.0592 105.234C79.0592 105.137 79.1286 105.058 79.2396 105.068C79.6927 105.081 80.1505 105.091 80.6037 105.095C80.7008 105.095 80.7748 105.174 80.7748 105.271C80.7748 105.368 80.6962 105.441 80.5991 105.441H80.6037ZM82.8002 105.4C82.7077 105.4 82.6291 105.326 82.6291 105.234C82.6291 105.137 82.6984 105.058 82.7955 105.054C83.2533 105.035 83.7065 105.008 84.1597 104.975C84.2568 104.966 84.34 105.04 84.3446 105.137C84.3493 105.234 84.2799 105.317 84.1828 105.321C83.725 105.354 83.2672 105.381 82.8094 105.4H82.8002ZM77.0431 105.289C77.0431 105.289 77.0338 105.289 77.0292 105.289C76.5714 105.252 76.1136 105.206 75.6605 105.155C75.5633 105.146 75.4986 105.058 75.5079 104.961C75.5171 104.865 75.6003 104.805 75.7021 104.809C76.1552 104.86 76.6084 104.906 77.0616 104.943C77.1587 104.952 77.2281 105.035 77.2188 105.128C77.2096 105.22 77.1356 105.285 77.0477 105.285L77.0431 105.289ZM86.3515 105.109C86.2637 105.109 86.1897 105.045 86.1804 104.957C86.1666 104.86 86.2359 104.777 86.333 104.763C86.7862 104.708 87.2394 104.648 87.6879 104.578C87.7804 104.564 87.8729 104.629 87.8867 104.721C87.9006 104.814 87.8359 104.906 87.7434 104.92C87.2902 104.989 86.8371 105.054 86.3793 105.109C86.37 105.109 86.3654 105.109 86.3561 105.109H86.3515ZM73.5056 104.86C73.5056 104.86 73.4871 104.86 73.4778 104.86C73.0247 104.786 72.5715 104.708 72.123 104.62C72.0305 104.601 71.9657 104.509 71.9842 104.417C72.0027 104.324 72.0952 104.264 72.1877 104.278C72.6316 104.366 73.0802 104.444 73.5333 104.518C73.6258 104.532 73.6906 104.624 73.6767 104.717C73.6628 104.8 73.5888 104.865 73.5056 104.865V104.86ZM89.8705 104.537C89.7919 104.537 89.7179 104.481 89.6994 104.398C89.6809 104.306 89.741 104.214 89.8335 104.195C90.2821 104.103 90.726 104.006 91.1699 103.904C91.2624 103.881 91.3549 103.941 91.378 104.034C91.4011 104.126 91.341 104.218 91.2485 104.241C90.8046 104.348 90.356 104.444 89.9029 104.537C89.889 104.537 89.8798 104.537 89.8659 104.537H89.8705ZM70.0097 104.149C70.0097 104.149 69.982 104.149 69.9681 104.144C69.5196 104.034 69.0756 103.918 68.6363 103.798C68.5439 103.771 68.4884 103.678 68.5161 103.586C68.5439 103.494 68.6364 103.438 68.7288 103.466C69.1681 103.586 69.6074 103.701 70.0513 103.812C70.1438 103.835 70.1993 103.928 70.1808 104.02C70.1623 104.098 70.0883 104.154 70.0144 104.154L70.0097 104.149ZM93.334 103.692C93.26 103.692 93.1907 103.641 93.1675 103.567C93.1398 103.475 93.1953 103.378 93.2878 103.355C93.7271 103.231 94.1617 103.097 94.5964 102.958C94.6889 102.931 94.786 102.981 94.8137 103.069C94.8415 103.157 94.7952 103.258 94.7028 103.286C94.2681 103.424 93.8288 103.558 93.3849 103.687C93.371 103.687 93.3525 103.692 93.3386 103.692H93.334ZM66.5832 103.171C66.5832 103.171 66.5462 103.171 66.5277 103.161C66.0884 103.018 65.6538 102.866 65.2237 102.709C65.1359 102.677 65.0896 102.575 65.122 102.487C65.1544 102.395 65.2561 102.349 65.3439 102.386C65.774 102.543 66.204 102.69 66.6387 102.834C66.7312 102.866 66.7774 102.963 66.7497 103.051C66.7266 103.124 66.6572 103.171 66.5832 103.171ZM96.7189 102.575C96.6495 102.575 96.5848 102.534 96.5571 102.464C96.5247 102.377 96.5709 102.275 96.6588 102.243C97.0842 102.081 97.5096 101.915 97.9304 101.744C98.0183 101.707 98.12 101.749 98.157 101.837C98.194 101.924 98.1524 102.026 98.0645 102.063C97.6391 102.238 97.2137 102.404 96.7836 102.566C96.7651 102.575 96.742 102.575 96.7235 102.575H96.7189ZM63.2399 101.915C63.2399 101.915 63.1937 101.915 63.1706 101.901C62.7452 101.721 62.3244 101.537 61.9082 101.347C61.8203 101.306 61.7833 101.204 61.825 101.117C61.8666 101.029 61.9683 100.992 62.0562 101.033C62.4723 101.223 62.8885 101.407 63.3093 101.583C63.3972 101.62 63.4388 101.721 63.4018 101.809C63.3741 101.874 63.3093 101.915 63.2399 101.915ZM99.9974 101.195C99.9327 101.195 99.868 101.158 99.8402 101.093C99.7986 101.006 99.8402 100.904 99.9234 100.863C100.335 100.669 100.742 100.47 101.149 100.267C101.237 100.226 101.338 100.258 101.38 100.346C101.422 100.433 101.389 100.535 101.301 100.576C100.895 100.784 100.483 100.983 100.067 101.177C100.044 101.186 100.016 101.195 99.9928 101.195H99.9974ZM60.003 100.401C59.9753 100.401 59.9475 100.396 59.9244 100.383C59.5175 100.17 59.1106 99.9534 58.7083 99.7318C58.625 99.6857 58.5927 99.5795 58.6389 99.4964C58.6852 99.4133 58.7915 99.381 58.8747 99.4318C59.2724 99.6533 59.6747 99.8703 60.0816 100.078C60.1649 100.124 60.2019 100.226 60.1556 100.313C60.1233 100.373 60.0631 100.406 60.003 100.406V100.401ZM103.156 99.561C103.096 99.561 103.036 99.5287 103.003 99.4733C102.957 99.3903 102.985 99.2841 103.068 99.2379C103.461 99.0118 103.854 98.781 104.242 98.5456C104.326 98.4948 104.432 98.5225 104.483 98.601C104.534 98.684 104.506 98.7902 104.427 98.841C104.034 99.081 103.641 99.3118 103.244 99.5379C103.216 99.5518 103.188 99.561 103.156 99.561ZM56.9048 98.6379C56.8725 98.6379 56.8401 98.6287 56.8124 98.6102C56.4239 98.3656 56.0355 98.1209 55.6517 97.8671C55.5731 97.8117 55.55 97.7055 55.6055 97.627C55.6609 97.5486 55.7673 97.5255 55.8459 97.5809C56.2251 97.8348 56.6089 98.0794 56.9973 98.3194C57.0806 98.3702 57.1037 98.4763 57.0528 98.5594C57.0205 98.6102 56.965 98.6425 56.9048 98.6425V98.6379ZM106.18 97.6824C106.124 97.6824 106.069 97.6547 106.037 97.6086C105.981 97.5301 106.004 97.4193 106.083 97.3686C106.457 97.1147 106.832 96.8516 107.202 96.5885C107.28 96.5331 107.387 96.5516 107.442 96.6254C107.498 96.7039 107.479 96.8101 107.405 96.8654C107.035 97.1332 106.661 97.3963 106.277 97.6547C106.249 97.6732 106.212 97.6824 106.18 97.6824ZM53.95 96.6347C53.913 96.6347 53.876 96.6254 53.8483 96.6023C53.4783 96.33 53.113 96.0531 52.7523 95.7669C52.6784 95.7069 52.6645 95.6007 52.7246 95.5223C52.7847 95.4484 52.8911 95.4346 52.9697 95.4946C53.3257 95.7761 53.6911 96.0531 54.0564 96.3208C54.135 96.3762 54.1488 96.487 54.0934 96.5608C54.061 96.607 54.0055 96.63 53.9546 96.63L53.95 96.6347ZM109.047 95.5777C108.996 95.5777 108.945 95.5546 108.913 95.513C108.853 95.4392 108.867 95.3284 108.941 95.2684C109.297 94.9822 109.648 94.6961 109.995 94.4007C110.069 94.3406 110.175 94.3499 110.24 94.4191C110.3 94.493 110.295 94.5991 110.221 94.6637C109.875 94.9591 109.519 95.2499 109.163 95.5361C109.13 95.5592 109.093 95.573 109.056 95.573L109.047 95.5777ZM51.1663 94.4099C51.1246 94.4099 51.0877 94.396 51.0507 94.3683C50.7038 94.0683 50.3617 93.7637 50.0241 93.4544C49.9547 93.3898 49.9501 93.279 50.0148 93.2098C50.0796 93.1405 50.1906 93.1359 50.2599 93.2006C50.5929 93.5098 50.9351 93.8098 51.2772 94.1099C51.3512 94.1745 51.3559 94.2806 51.2957 94.3545C51.2634 94.3914 51.2125 94.4145 51.1663 94.4145V94.4099ZM111.743 93.2467C111.697 93.2467 111.65 93.2282 111.618 93.1913C111.553 93.1221 111.558 93.0113 111.627 92.9467C111.96 92.6374 112.288 92.319 112.608 92.0005C112.677 91.9312 112.783 91.9359 112.853 92.0005C112.922 92.0697 112.922 92.1759 112.853 92.2451C112.529 92.5682 112.196 92.8867 111.863 93.2006C111.831 93.2329 111.789 93.2467 111.743 93.2467ZM48.5675 91.9774C48.5212 91.9774 48.4796 91.9589 48.4426 91.9266C48.1189 91.5989 47.8045 91.2712 47.49 90.9342C47.4253 90.865 47.4299 90.7542 47.4993 90.6896C47.5687 90.625 47.6796 90.6296 47.7444 90.6988C48.0542 91.0312 48.3686 91.3589 48.6877 91.682C48.7571 91.7512 48.7524 91.862 48.6877 91.9266C48.6553 91.9589 48.6091 91.9774 48.5675 91.9774ZM114.249 90.7173C114.207 90.7173 114.166 90.7034 114.133 90.6711C114.064 90.6065 114.06 90.4957 114.124 90.4265C114.429 90.0896 114.735 89.748 115.031 89.4064C115.091 89.3326 115.202 89.3233 115.276 89.388C115.35 89.448 115.354 89.5587 115.294 89.6326C114.994 89.9788 114.693 90.325 114.383 90.6619C114.351 90.6988 114.3 90.7173 114.254 90.7173H114.249ZM46.1675 89.3464C46.1167 89.3464 46.0704 89.328 46.0334 89.2864C45.7375 88.9356 45.4462 88.5802 45.1641 88.2248C45.104 88.1509 45.1179 88.0402 45.1918 87.9802C45.2658 87.9202 45.3768 87.934 45.4369 88.0079C45.719 88.3633 46.0057 88.7141 46.3016 89.0649C46.3618 89.1387 46.3525 89.2449 46.2785 89.3095C46.2462 89.3372 46.2045 89.351 46.1675 89.351V89.3464ZM116.547 87.994C116.51 87.994 116.473 87.9802 116.441 87.9571C116.367 87.8971 116.353 87.7909 116.409 87.7124C116.686 87.3524 116.963 86.9924 117.232 86.6231C117.287 86.5447 117.398 86.5308 117.472 86.5862C117.551 86.6416 117.565 86.7524 117.509 86.8262C117.236 87.1955 116.959 87.5601 116.681 87.9248C116.649 87.9663 116.598 87.9894 116.543 87.9894L116.547 87.994ZM43.9803 86.5401C43.9248 86.5401 43.874 86.517 43.837 86.4662C43.5688 86.0923 43.3098 85.7185 43.0555 85.34C43 85.2615 43.0231 85.1507 43.1017 85.0999C43.1803 85.0446 43.2867 85.0676 43.3422 85.1461C43.5965 85.5246 43.8555 85.8985 44.119 86.2631C44.1745 86.3416 44.156 86.4477 44.0774 86.5031C44.045 86.5262 44.0127 86.5354 43.9757 86.5354L43.9803 86.5401ZM118.628 85.0999C118.596 85.0999 118.563 85.0907 118.531 85.0723C118.452 85.0215 118.429 84.9107 118.48 84.8322C118.73 84.4537 118.975 84.066 119.215 83.6783C119.266 83.5998 119.373 83.5721 119.456 83.6229C119.539 83.6737 119.562 83.7798 119.511 83.8629C119.271 84.2553 119.021 84.6384 118.772 85.0215C118.739 85.0723 118.684 85.0999 118.628 85.0999ZM42.0197 83.5721C41.9596 83.5721 41.9041 83.5444 41.8717 83.4891C41.6359 83.0967 41.4047 82.7044 41.1781 82.3028C41.1318 82.2197 41.1596 82.1136 41.2428 82.0674C41.326 82.0213 41.4324 82.049 41.4786 82.132C41.7006 82.529 41.9318 82.9213 42.1676 83.309C42.2185 83.3921 42.1908 83.4983 42.1075 83.5444C42.0798 83.5629 42.0474 83.5675 42.0197 83.5675V83.5721ZM120.473 82.0536C120.445 82.0536 120.418 82.049 120.39 82.0305C120.307 81.9843 120.274 81.8782 120.321 81.7951C120.543 81.3981 120.755 80.992 120.963 80.5904C121.005 80.5073 121.111 80.4704 121.195 80.5165C121.278 80.5581 121.315 80.6642 121.269 80.7473C121.06 81.1581 120.843 81.5597 120.621 81.9613C120.589 82.0166 120.529 82.049 120.469 82.049L120.473 82.0536ZM40.3041 80.4611C40.2394 80.4611 40.1792 80.4242 40.1469 80.3642C39.9434 79.958 39.7446 79.5426 39.5504 79.1272C39.5087 79.0395 39.5504 78.9379 39.6336 78.8964C39.7215 78.8549 39.8232 78.8964 39.8648 78.9795C40.0544 79.3903 40.2532 79.8011 40.4567 80.2027C40.4983 80.2904 40.4659 80.3919 40.3781 80.4334C40.355 80.4473 40.3272 80.4519 40.2995 80.4519L40.3041 80.4611ZM122.073 78.8641C122.05 78.8641 122.027 78.8595 122.004 78.8503C121.916 78.8133 121.879 78.7072 121.916 78.6195C122.106 78.204 122.286 77.7886 122.462 77.364C122.499 77.2763 122.6 77.2347 122.688 77.2717C122.776 77.3086 122.818 77.4101 122.781 77.4978C122.605 77.9225 122.42 78.3425 122.23 78.7626C122.203 78.8272 122.138 78.8641 122.073 78.8641ZM38.8382 77.2255C38.7689 77.2255 38.7041 77.184 38.6764 77.1194C38.5053 76.6947 38.3388 76.2701 38.177 75.8362C38.1446 75.7485 38.1909 75.6469 38.2787 75.6146C38.3712 75.5823 38.4683 75.6285 38.5007 75.7162C38.6579 76.1408 38.8244 76.5655 38.9955 76.9855C39.0325 77.0732 38.9908 77.1747 38.8984 77.2117C38.8752 77.2209 38.8567 77.2255 38.8336 77.2255H38.8382ZM123.414 75.5592C123.414 75.5592 123.377 75.5592 123.354 75.55C123.266 75.5177 123.215 75.4208 123.248 75.3284C123.4 74.8992 123.548 74.4699 123.692 74.036C123.719 73.9437 123.821 73.893 123.909 73.9253C124.001 73.953 124.048 74.0545 124.02 74.1422C123.877 74.5807 123.729 75.0146 123.571 75.4485C123.544 75.5177 123.479 75.5639 123.41 75.5639L123.414 75.5592ZM37.6313 73.8791C37.5573 73.8791 37.488 73.833 37.4649 73.7591C37.3261 73.3206 37.1967 72.8821 37.0718 72.4436C37.0441 72.3513 37.0996 72.2544 37.192 72.2313C37.2845 72.2082 37.3816 72.259 37.4047 72.3513C37.5296 72.7898 37.6591 73.2237 37.7978 73.6576C37.8255 73.7499 37.7747 73.8468 37.6868 73.8745C37.6683 73.8791 37.6498 73.8837 37.636 73.8837L37.6313 73.8791ZM124.487 72.1621C124.487 72.1621 124.455 72.1621 124.441 72.1574C124.348 72.1344 124.293 72.0374 124.321 71.9451C124.441 71.5066 124.552 71.0681 124.658 70.625C124.681 70.5327 124.774 70.4727 124.866 70.4958C124.959 70.5189 125.019 70.6112 124.996 70.7035C124.889 71.1512 124.774 71.5943 124.653 72.0328C124.63 72.1113 124.561 72.1621 124.487 72.1621ZM36.6926 70.445C36.614 70.445 36.5447 70.3896 36.5262 70.3111C36.4244 69.868 36.3273 69.4203 36.2395 68.968C36.221 68.8757 36.2811 68.7833 36.3736 68.7649C36.466 68.7464 36.5585 68.8064 36.577 68.8987C36.6649 69.3465 36.762 69.7896 36.8637 70.2327C36.8868 70.325 36.8267 70.4173 36.7342 70.4404C36.7204 70.4404 36.7065 70.4404 36.6973 70.4404L36.6926 70.445ZM125.287 68.6956C125.287 68.6956 125.264 68.6956 125.255 68.6956C125.162 68.6772 125.097 68.5895 125.116 68.4925C125.199 68.0494 125.278 67.5971 125.347 67.1494C125.361 67.0571 125.449 66.9878 125.546 67.0063C125.638 67.0201 125.703 67.1078 125.689 67.2048C125.615 67.6571 125.541 68.1094 125.453 68.5572C125.44 68.6403 125.366 68.7003 125.282 68.7003L125.287 68.6956ZM36.0314 66.9463C35.9481 66.9463 35.8742 66.8863 35.8603 66.7986C35.7909 66.3462 35.7308 65.8939 35.6799 65.4369C35.6707 65.34 35.7354 65.2569 35.8325 65.2431C35.925 65.2292 36.0129 65.2985 36.0268 65.3954C36.0822 65.8477 36.1424 66.3001 36.2071 66.7478C36.221 66.8447 36.1562 66.9324 36.0591 66.9463C36.0499 66.9463 36.0406 66.9463 36.0314 66.9463ZM125.814 65.1738C125.814 65.1738 125.8 65.1738 125.796 65.1738C125.699 65.1646 125.634 65.0769 125.643 64.9846C125.694 64.5322 125.736 64.0799 125.768 63.6276C125.777 63.5306 125.851 63.4522 125.953 63.4706C126.05 63.4799 126.119 63.563 126.11 63.6553C126.073 64.1122 126.031 64.5692 125.981 65.0215C125.971 65.1092 125.897 65.1738 125.81 65.1738H125.814ZM35.6476 63.4106C35.5551 63.4106 35.4811 63.3414 35.4765 63.2491C35.4441 62.7921 35.421 62.3352 35.4025 61.8782C35.4025 61.7813 35.4718 61.7028 35.569 61.6982C35.6661 61.712 35.7447 61.7674 35.7493 61.8644C35.7678 62.3213 35.7909 62.7737 35.8233 63.226C35.8279 63.3229 35.7585 63.4014 35.6614 63.4106C35.6614 63.4106 35.6522 63.4106 35.6476 63.4106ZM126.055 61.6243H126.05C125.953 61.6243 125.879 61.5413 125.884 61.4443C125.897 60.992 125.902 60.5396 125.902 60.0827C125.902 59.9858 125.981 59.9073 126.078 59.9073C126.175 59.9073 126.253 59.9858 126.253 60.0827C126.253 60.5443 126.249 61.0012 126.235 61.4582C126.235 61.5505 126.156 61.6243 126.059 61.6243H126.055ZM35.5412 59.8519C35.4441 59.8519 35.3701 59.7734 35.3701 59.6765C35.3701 59.2149 35.384 58.758 35.4025 58.301C35.4025 58.2041 35.4996 58.1441 35.5828 58.1348C35.6799 58.1348 35.7539 58.2179 35.7493 58.3149C35.7308 58.7672 35.7216 59.2195 35.7169 59.6765C35.7169 59.7734 35.6383 59.8473 35.5412 59.8473V59.8519ZM126.055 58.8688C125.962 58.8688 125.883 58.7949 125.879 58.7026C125.865 58.2456 125.847 57.7933 125.819 57.3409C125.814 57.244 125.888 57.1655 125.981 57.1563C126.078 57.1379 126.156 57.2209 126.166 57.3179C126.193 57.7748 126.212 58.2318 126.226 58.6887C126.226 58.7857 126.152 58.8641 126.059 58.8688H126.055ZM35.7077 56.2978C35.7077 56.2978 35.6984 56.2978 35.6938 56.2978C35.5967 56.2886 35.5273 56.2055 35.5366 56.1085C35.5782 55.6516 35.6244 55.1946 35.6753 54.7423C35.6846 54.6454 35.777 54.5807 35.8695 54.59C35.9666 54.5992 36.0314 54.6869 36.0221 54.7838C35.9713 55.2362 35.925 55.6885 35.8834 56.1409C35.8742 56.2332 35.8002 56.2978 35.7123 56.2978H35.7077ZM125.81 55.3193C125.722 55.3193 125.648 55.2546 125.638 55.1669C125.588 54.7146 125.532 54.2622 125.472 53.8145C125.458 53.7176 125.523 53.6345 125.62 53.6207C125.717 53.6068 125.8 53.6761 125.814 53.7684C125.879 54.2207 125.934 54.6777 125.985 55.13C125.994 55.2269 125.925 55.31 125.833 55.3193C125.828 55.3193 125.819 55.3193 125.814 55.3193H125.81ZM36.1562 52.7714C36.1562 52.7714 36.1377 52.7714 36.1285 52.7714C36.036 52.7575 35.9713 52.6652 35.9851 52.5729C36.0591 52.1206 36.1424 51.6682 36.2348 51.2205C36.2533 51.1282 36.3458 51.0682 36.4383 51.0866C36.5308 51.1051 36.5955 51.1974 36.5724 51.2897C36.4845 51.7328 36.4013 52.1806 36.3273 52.6329C36.3134 52.716 36.2395 52.776 36.1562 52.776V52.7714ZM125.287 51.8021C125.204 51.8021 125.134 51.7467 125.116 51.6636C125.033 51.2159 124.94 50.7681 124.843 50.3297C124.825 50.2373 124.88 50.145 124.977 50.1219C125.07 50.0989 125.162 50.1589 125.185 50.2558C125.282 50.7035 125.375 51.1512 125.463 51.6036C125.481 51.6959 125.416 51.7882 125.324 51.8067C125.315 51.8067 125.301 51.8067 125.292 51.8067L125.287 51.8021ZM36.8822 49.2865C36.8822 49.2865 36.8545 49.2865 36.8406 49.2819C36.7481 49.2588 36.6926 49.1665 36.7158 49.0695C36.8267 48.6264 36.947 48.1833 37.0672 47.7402C37.0949 47.6479 37.1874 47.5971 37.2799 47.6202C37.3724 47.6479 37.4279 47.7402 37.4001 47.8325C37.2753 48.271 37.1597 48.7095 37.0487 49.1526C37.0302 49.2311 36.9562 49.2819 36.8822 49.2819V49.2865ZM124.482 48.3357C124.404 48.3357 124.334 48.2849 124.316 48.2064C124.196 47.7679 124.071 47.3294 123.937 46.8955C123.909 46.8032 123.96 46.7063 124.052 46.6786C124.145 46.6509 124.242 46.7017 124.27 46.794C124.404 47.2325 124.533 47.671 124.653 48.1141C124.677 48.2064 124.626 48.3033 124.533 48.3264C124.519 48.3264 124.501 48.331 124.487 48.331L124.482 48.3357ZM37.881 45.8709C37.881 45.8709 37.844 45.8709 37.8256 45.8616C37.7331 45.8293 37.6868 45.7324 37.7146 45.6447C37.8625 45.2062 38.0151 44.7769 38.1724 44.343C38.2047 44.2553 38.3065 44.2092 38.3943 44.2415C38.4822 44.2738 38.5284 44.3754 38.4961 44.4631C38.3388 44.8923 38.1862 45.3216 38.0383 45.7508C38.0151 45.8247 37.9458 45.8709 37.8718 45.8709H37.881ZM123.41 44.9385C123.34 44.9385 123.271 44.8969 123.248 44.8231C123.095 44.3938 122.933 43.9692 122.767 43.5491C122.73 43.4614 122.776 43.3599 122.864 43.323C122.952 43.2907 123.054 43.3322 123.091 43.4199C123.257 43.8445 123.419 44.2738 123.576 44.7077C123.608 44.7954 123.562 44.8969 123.47 44.9292C123.451 44.9385 123.433 44.9385 123.41 44.9385ZM39.1527 42.5337C39.1527 42.5337 39.1064 42.5337 39.0833 42.5198C38.9955 42.4829 38.9538 42.3814 38.9908 42.2937C39.1712 41.869 39.3608 41.449 39.5504 41.0336C39.592 40.9459 39.6937 40.9089 39.7816 40.9505C39.8694 40.992 39.9064 41.0936 39.8648 41.1813C39.6752 41.5967 39.4856 42.0121 39.3099 42.4321C39.2822 42.4968 39.2174 42.5383 39.1527 42.5383V42.5337ZM122.073 41.6475C122.008 41.6475 121.944 41.6105 121.916 41.5459C121.726 41.1305 121.537 40.7243 121.338 40.3135C121.296 40.2258 121.333 40.1243 121.417 40.0827C121.504 40.0412 121.606 40.0781 121.648 40.1612C121.847 40.572 122.045 40.9828 122.23 41.4028C122.272 41.4905 122.23 41.5921 122.143 41.6336C122.119 41.6428 122.096 41.6475 122.073 41.6475ZM40.6833 39.3165C40.6555 39.3165 40.6278 39.3119 40.6047 39.2981C40.5214 39.2519 40.4891 39.1503 40.5307 39.0626C40.7434 38.6565 40.9654 38.2549 41.1873 37.8533C41.2336 37.7702 41.3399 37.7426 41.4231 37.7887C41.5064 37.8349 41.5341 37.941 41.4879 38.0241C41.2659 38.4211 41.0486 38.8226 40.8359 39.2242C40.8035 39.2842 40.7434 39.3165 40.6833 39.3165ZM120.478 38.4718C120.418 38.4718 120.358 38.4395 120.325 38.3841C120.103 37.9872 119.881 37.5948 119.65 37.2025C119.599 37.1194 119.627 37.0133 119.71 36.9671C119.793 36.9209 119.9 36.944 119.946 37.0271C120.177 37.4194 120.408 37.8164 120.626 38.218C120.672 38.3011 120.64 38.4072 120.556 38.4534C120.529 38.4672 120.501 38.4765 120.473 38.4765L120.478 38.4718ZM42.4636 36.224C42.4312 36.224 42.3988 36.2147 42.3711 36.1963C42.2879 36.1455 42.2647 36.0393 42.3156 35.9563C42.5607 35.5685 42.8104 35.1854 43.0647 34.8023C43.1202 34.7239 43.2266 34.7008 43.3052 34.7562C43.3838 34.8116 43.4069 34.9177 43.3514 34.9962C43.0971 35.3747 42.8474 35.7578 42.6069 36.1409C42.5746 36.1917 42.5191 36.2194 42.459 36.2194L42.4636 36.224ZM118.637 35.4301C118.582 35.4301 118.526 35.4024 118.494 35.3516C118.244 34.9731 117.985 34.5992 117.726 34.2254C117.671 34.1469 117.689 34.0407 117.768 33.9853C117.847 33.93 117.953 33.9484 118.009 34.0269C118.272 34.4008 118.531 34.7793 118.781 35.1624C118.832 35.2408 118.813 35.3516 118.73 35.4024C118.702 35.4208 118.67 35.4301 118.633 35.4301H118.637ZM44.4797 33.2884C44.4427 33.2884 44.4057 33.2791 44.378 33.2561C44.2994 33.2007 44.2855 33.0899 44.341 33.016C44.6138 32.6468 44.8959 32.2868 45.1826 31.9267C45.2427 31.8529 45.3491 31.839 45.4277 31.899C45.5017 31.959 45.5155 32.0652 45.4554 32.1437C45.1733 32.4991 44.8959 32.8591 44.6231 33.2238C44.5907 33.2699 44.5352 33.293 44.4843 33.293L44.4797 33.2884ZM116.566 32.5406C116.515 32.5406 116.464 32.5175 116.427 32.476C116.15 32.116 115.863 31.7606 115.572 31.4144C115.511 31.3405 115.521 31.2298 115.595 31.1697C115.669 31.1097 115.78 31.119 115.84 31.1928C116.131 31.5436 116.418 31.9037 116.7 32.2637C116.76 32.3375 116.746 32.4483 116.668 32.5083C116.635 32.5314 116.598 32.5452 116.561 32.5452L116.566 32.5406ZM46.7224 30.5189C46.6808 30.5189 46.6392 30.5051 46.6068 30.4774C46.5328 30.4128 46.5282 30.3066 46.5883 30.2328C46.8889 29.8866 47.1987 29.5496 47.5085 29.2127C47.5733 29.1434 47.6843 29.1388 47.7536 29.2034C47.823 29.2681 47.8276 29.3788 47.7629 29.4481C47.4531 29.7804 47.1479 30.1174 46.8473 30.4635C46.8149 30.5005 46.7641 30.5235 46.7178 30.5235L46.7224 30.5189ZM114.268 29.822C114.221 29.822 114.175 29.8035 114.138 29.7666C113.833 29.4296 113.518 29.0973 113.204 28.7742C113.139 28.7049 113.139 28.5942 113.204 28.5296C113.273 28.4649 113.384 28.4649 113.449 28.5296C113.768 28.8573 114.083 29.1942 114.392 29.5312C114.457 29.6004 114.453 29.7112 114.383 29.7758C114.351 29.8081 114.309 29.822 114.268 29.822ZM49.1732 27.9341C49.127 27.9341 49.0854 27.9157 49.0484 27.8833C48.979 27.8141 48.9837 27.7033 49.0484 27.6387C49.3767 27.3202 49.7097 27.0017 50.0472 26.6925C50.1166 26.6279 50.2276 26.6325 50.2923 26.7017C50.357 26.771 50.3524 26.8817 50.283 26.9464C49.9501 27.2556 49.6172 27.5649 49.2935 27.8833C49.2611 27.9157 49.2149 27.9341 49.1732 27.9341ZM111.766 27.2879C111.724 27.2879 111.683 27.2741 111.646 27.2418C111.313 26.9325 110.975 26.6233 110.633 26.3232C110.559 26.2586 110.554 26.1524 110.619 26.0786C110.684 26.0047 110.79 26.0001 110.864 26.0648C111.206 26.3694 111.549 26.674 111.882 26.9879C111.951 27.0525 111.956 27.1633 111.891 27.2325C111.858 27.2695 111.812 27.2879 111.766 27.2879ZM51.8183 25.5478C51.7674 25.5478 51.7212 25.5247 51.6842 25.4878C51.6241 25.4139 51.6333 25.3032 51.7073 25.2431C52.0587 24.9524 52.4148 24.6616 52.7755 24.38C52.8495 24.32 52.9604 24.3339 53.0206 24.4077C53.0807 24.4816 53.0668 24.5923 52.9928 24.6523C52.6367 24.9339 52.2807 25.2201 51.9339 25.5109C51.9015 25.5386 51.8599 25.5524 51.8229 25.5524L51.8183 25.5478ZM109.07 24.957C109.033 24.957 108.991 24.9431 108.964 24.9201C108.608 24.6339 108.247 24.3569 107.882 24.0846C107.803 24.0292 107.789 23.9184 107.849 23.84C107.905 23.7615 108.016 23.7477 108.094 23.8077C108.46 24.0846 108.825 24.3662 109.181 24.6523C109.255 24.7123 109.269 24.8231 109.209 24.897C109.176 24.9385 109.126 24.9616 109.075 24.9616L109.07 24.957ZM54.639 23.3784C54.5835 23.3784 54.5327 23.3553 54.4957 23.3045C54.4402 23.2261 54.4587 23.1199 54.5373 23.0645C54.9118 22.8014 55.2864 22.5383 55.6702 22.2891C55.7488 22.2383 55.8598 22.2568 55.9107 22.3352C55.9615 22.4137 55.943 22.5245 55.8644 22.5753C55.4852 22.8245 55.1107 23.083 54.7407 23.3461C54.7084 23.3692 54.676 23.3784 54.639 23.3784ZM106.198 22.843C106.166 22.843 106.129 22.8337 106.101 22.8153C105.722 22.5614 105.343 22.3075 104.959 22.0675C104.881 22.0168 104.853 21.9106 104.904 21.8275C104.955 21.749 105.061 21.7213 105.144 21.7721C105.533 22.0168 105.916 22.2706 106.296 22.5291C106.374 22.5845 106.397 22.6907 106.342 22.7691C106.309 22.8199 106.254 22.843 106.198 22.843ZM57.6216 21.4398C57.5615 21.4398 57.506 21.4075 57.4736 21.3567C57.4228 21.2736 57.4505 21.1675 57.5337 21.1213C57.9268 20.8859 58.3245 20.6597 58.7221 20.4382C58.8054 20.392 58.9117 20.4197 58.958 20.5028C59.0042 20.5859 58.9765 20.692 58.8886 20.7382C58.4909 20.9598 58.0979 21.1859 57.7095 21.4167C57.6817 21.4352 57.6493 21.4398 57.6216 21.4398ZM103.17 20.9598C103.142 20.9598 103.109 20.9505 103.082 20.9367C102.684 20.7105 102.286 20.4936 101.884 20.2766C101.801 20.2305 101.768 20.1289 101.81 20.0412C101.856 19.9581 101.958 19.9258 102.046 19.9674C102.453 20.1843 102.855 20.4012 103.253 20.632C103.336 20.6782 103.364 20.7844 103.318 20.8674C103.285 20.9228 103.225 20.9551 103.165 20.9551L103.17 20.9598ZM60.7475 19.7366C60.6828 19.7366 60.6227 19.6997 60.5903 19.6397C60.5487 19.552 60.5811 19.4504 60.6689 19.4089C61.0805 19.2058 61.492 19.0119 61.9082 18.8181C61.9961 18.7765 62.0978 18.8181 62.1394 18.9011C62.181 18.9888 62.1394 19.0904 62.0562 19.1319C61.6446 19.3212 61.2331 19.515 60.8261 19.7181C60.803 19.732 60.7753 19.7366 60.7475 19.7366ZM99.9974 19.3212C99.9743 19.3212 99.9466 19.3166 99.9234 19.3027C99.5119 19.1088 99.0957 18.9242 98.6749 18.7396C98.5871 18.7027 98.5454 18.6011 98.5824 18.5134C98.6194 18.4257 98.7212 18.3842 98.809 18.4211C99.2298 18.6011 99.6506 18.7904 100.067 18.9842C100.155 19.0258 100.192 19.1273 100.15 19.215C100.122 19.2796 100.058 19.3166 99.9928 19.3166L99.9974 19.3212ZM63.9937 18.2872C63.9243 18.2872 63.8596 18.2457 63.8318 18.1765C63.7948 18.0888 63.8411 17.9872 63.929 17.9503C64.3544 17.7795 64.7844 17.618 65.2145 17.4564C65.3023 17.4241 65.4041 17.4703 65.4364 17.558C65.4688 17.6457 65.4226 17.7472 65.3347 17.7795C64.9046 17.9364 64.4792 18.098 64.0584 18.2688C64.0353 18.278 64.0168 18.2826 63.9937 18.2826V18.2872ZM96.705 17.9364C96.705 17.9364 96.6634 17.9364 96.6449 17.9272C96.2195 17.7657 95.7894 17.6133 95.3548 17.4656C95.2623 17.4333 95.216 17.3364 95.2484 17.2441C95.2808 17.1518 95.3779 17.1056 95.4704 17.1379C95.905 17.2856 96.3397 17.4426 96.7698 17.6041C96.8576 17.6364 96.9039 17.738 96.8715 17.8257C96.8437 17.8949 96.779 17.9364 96.7096 17.9364H96.705ZM67.3555 17.101C67.2815 17.101 67.2121 17.0548 67.189 16.981C67.1612 16.8887 67.2121 16.7917 67.3046 16.7641C67.7439 16.6302 68.1832 16.501 68.6271 16.3763C68.7196 16.3486 68.8167 16.404 68.8398 16.4963C68.8676 16.5887 68.8121 16.6856 68.7196 16.7087C68.2803 16.8287 67.841 16.9579 67.4109 17.0918C67.3924 17.0964 67.3786 17.101 67.3601 17.101H67.3555ZM93.3155 16.8194C93.3155 16.8194 93.2831 16.8194 93.2693 16.8148C92.8346 16.6902 92.3907 16.5702 91.9514 16.4594C91.8589 16.4363 91.8034 16.344 91.8265 16.2471C91.8497 16.1548 91.9468 16.0994 92.0392 16.1225C92.4832 16.2379 92.9271 16.3533 93.371 16.4825C93.4635 16.5102 93.5143 16.6071 93.4912 16.6948C93.4681 16.7733 93.3988 16.8194 93.3248 16.8194H93.3155ZM70.7958 16.1779C70.7172 16.1779 70.6432 16.1225 70.6247 16.044C70.6016 15.9517 70.6617 15.8594 70.7542 15.8363C71.2028 15.7347 71.6513 15.6424 72.0998 15.5547C72.1923 15.5363 72.2848 15.5963 72.3033 15.6932C72.3218 15.7855 72.2617 15.8778 72.1646 15.8963C71.716 15.984 71.2721 16.0763 70.8282 16.1779C70.8143 16.1779 70.8005 16.1779 70.7912 16.1779H70.7958ZM89.8566 15.9748C89.8566 15.9748 89.8335 15.9748 89.8196 15.9748C89.3757 15.8824 88.9272 15.7994 88.4786 15.7255C88.3862 15.7071 88.3214 15.6194 88.3353 15.527C88.3538 15.4347 88.4416 15.3747 88.5341 15.384C88.9873 15.4624 89.4405 15.5455 89.889 15.6378C89.9815 15.6563 90.0416 15.7486 90.0231 15.8409C90.0046 15.924 89.9352 15.9794 89.852 15.9794L89.8566 15.9748ZM74.3009 15.5317C74.2177 15.5317 74.1437 15.4716 74.1299 15.384C74.116 15.287 74.1807 15.1993 74.2778 15.1901C74.731 15.1255 75.1842 15.0655 75.642 15.0147C75.7344 15.0101 75.8223 15.0701 75.8316 15.167C75.8408 15.2639 75.7761 15.347 75.679 15.3609C75.2258 15.4116 74.7726 15.4716 74.3241 15.5363C74.3148 15.5363 74.3056 15.5363 74.3009 15.5363V15.5317ZM86.3377 15.4024C86.3377 15.4024 86.3238 15.4024 86.3145 15.4024C85.8614 15.347 85.4128 15.3009 84.955 15.2593C84.8579 15.2501 84.7886 15.167 84.7978 15.0701C84.8071 14.9732 84.8903 14.8947 84.9874 14.9131C85.4452 14.9547 85.903 15.0008 86.3561 15.0608C86.4533 15.0747 86.518 15.1578 86.5087 15.2547C86.4995 15.3424 86.4209 15.407 86.3377 15.407V15.4024ZM77.8477 15.167C77.7552 15.167 77.6812 15.0978 77.6766 15.0055C77.672 14.9085 77.7413 14.8254 77.8384 14.8208C78.2962 14.7931 78.754 14.7701 79.2118 14.7516C79.3182 14.7516 79.3875 14.8254 79.3922 14.9178C79.3922 15.0147 79.3182 15.0932 79.2257 15.0978C78.7679 15.1116 78.3147 15.1347 77.8616 15.167H77.8523H77.8477ZM82.7817 15.1116H82.7724C82.3193 15.0932 81.8661 15.0793 81.4083 15.0747C81.3112 15.0747 81.2372 14.9962 81.2372 14.8993C81.2372 14.8024 81.3158 14.7285 81.4129 14.7285C81.8753 14.7331 82.3331 14.747 82.7909 14.7654C82.888 14.7654 82.962 14.8485 82.9574 14.9455C82.9574 15.0378 82.8788 15.1116 82.7863 15.1116H82.7817Z" fill="white"/>
<path d="M80.8064 85.0772C94.6356 85.0772 105.846 73.887 105.846 60.083C105.846 46.2791 94.6356 35.0889 80.8064 35.0889C66.9773 35.0889 55.7666 46.2791 55.7666 60.083C55.7666 73.887 66.9773 85.0772 80.8064 85.0772Z" fill="#130C49"/>
<path d="M80.8069 85.4693C66.7865 85.4693 55.374 74.0823 55.374 60.0828C55.374 46.0833 66.7818 34.6963 80.8069 34.6963C94.832 34.6963 106.24 46.0833 106.24 60.0828C106.24 74.0823 94.832 85.4693 80.8069 85.4693ZM80.8069 35.4763C67.2119 35.4763 56.1555 46.5172 56.1555 60.0828C56.1555 73.6484 67.2165 84.6893 80.8069 84.6893C94.3973 84.6893 105.458 73.6484 105.458 60.0828C105.458 46.5172 94.3973 35.4763 80.8069 35.4763Z" fill="white"/>
<path d="M75.3182 51.6264C75.2258 51.631 75.1379 51.6356 75.05 51.6403C73.1726 51.6495 71.2952 51.6541 69.4178 51.6587C69.2097 51.6587 68.9878 51.6679 68.7797 51.7095C66.9439 52.088 65.6537 53.6389 65.6445 55.4852C65.6306 58.9239 65.6352 62.4226 65.6445 65.8105C65.6445 66.7568 65.6445 67.703 65.6445 68.6492C65.6445 68.9769 65.6861 69.2862 65.7647 69.5631C66.2688 71.3402 67.7947 72.4895 69.6583 72.4987C70.7403 72.4987 71.9195 72.5034 73.3622 72.5034C74.1946 72.5034 75.0269 72.5034 75.8593 72.5034C76.5344 72.5034 77.2095 72.5034 77.8893 72.5034C82.5551 72.5034 87.2208 72.5034 91.8866 72.5034C92.1826 72.5034 92.4924 72.4987 92.7883 72.4341C94.8877 71.9956 95.9975 70.0847 95.979 68.5061C95.9466 65.9536 95.9559 63.3642 95.9651 60.8579C95.9651 59.8793 95.9698 58.9054 95.9744 57.9269C95.9744 57.7469 95.9744 57.5715 95.9744 57.3915C95.9744 56.6483 95.9744 55.8775 95.9605 55.1251C95.9235 53.7312 94.5825 51.7003 92.2473 51.6726C91.3179 51.6633 90.393 51.6587 89.2971 51.6587H88.7191H88.141C87.6786 51.6587 87.2116 51.6587 86.7492 51.6587C86.7168 51.6587 86.6844 51.6587 86.6521 51.6587C86.6104 51.6587 86.5642 51.6587 86.5226 51.6587C86.4024 51.6587 86.2174 51.6449 86.0324 51.5433L85.8983 51.4695L85.8567 51.3218C85.7966 51.1048 85.8012 50.8925 85.8058 50.7033C85.8058 50.6294 85.8058 50.5602 85.8058 50.4956C85.792 50.0571 85.7272 49.7109 85.6024 49.4016C85.1677 48.3169 84.2013 47.6938 82.9527 47.6846C82.3886 47.6846 81.8337 47.6846 81.3574 47.6846H80.8117H80.2661C79.8037 47.6846 79.3413 47.6846 78.8789 47.6846H78.8603C78.5968 47.6846 78.3193 47.7123 78.0188 47.7723C76.8997 47.9892 76.0766 48.8247 75.8778 49.9601C75.8408 50.154 75.8408 50.3617 75.8408 50.5832C75.8408 50.8187 75.8408 51.0587 75.7992 51.3218L75.7529 51.6172L75.457 51.631C75.4061 51.631 75.3599 51.6356 75.3136 51.6403L75.3182 51.6264ZM71.2259 61.1902V71.0771L70.8744 71.0909L70.6756 71.1002C70.4028 71.114 70.1438 71.1232 69.8849 71.1232C69.6259 71.1232 69.3808 71.1094 69.1635 71.0863C67.9473 70.9432 67.0549 69.9232 67.041 68.6677C67.0317 67.6014 67.0317 66.5168 67.0317 65.469C67.0317 65.1228 67.0317 64.772 67.0317 64.4258C67.0317 63.4704 67.0317 62.5103 67.0317 61.5548C67.0317 59.5562 67.0317 57.4884 67.0317 55.4575C67.0317 54.6774 67.2768 54.0774 67.7809 53.625C68.1878 53.2604 68.6733 53.0804 69.2282 53.0804C69.2976 53.0804 69.3669 53.0804 69.4409 53.0896L69.6213 53.1034L69.7184 53.2558C69.8571 53.4727 69.8432 53.685 69.834 53.8235C69.834 53.8512 69.834 53.8743 69.834 53.902C69.834 54.2574 69.834 54.6082 69.834 54.9636C69.834 55.9606 69.8432 56.9945 69.8294 58.0146C69.8155 59.0254 70.1484 59.8839 70.8513 60.6363C70.916 60.7055 70.9762 60.7748 71.0409 60.8486C71.0686 60.8809 71.101 60.9179 71.1334 60.9548L71.2259 61.0563V61.1948V61.1902ZM88.8485 61.9656V70.9386L88.5896 71.0171C88.5249 71.0356 88.3538 71.0863 80.8441 71.0863C77.3298 71.0863 73.0986 71.0725 72.8674 71.0125L72.5946 70.9432V61.7579L72.8489 61.6795C73.1865 61.5733 75.5078 61.5733 75.7714 61.5733C76.2153 61.5733 77.2928 61.5779 77.6766 61.6241L77.7968 61.6379L77.8847 61.721C78.0927 61.9195 78.0742 62.1734 78.0696 62.2934C78.0696 62.3118 78.0696 62.3349 78.0696 62.3534C78.0696 62.5749 78.0696 62.7965 78.0696 63.0088C78.0696 63.318 78.0696 63.6412 78.0789 63.9504C78.0974 64.5458 78.3378 64.9936 78.8141 65.3213C79.0684 65.4967 79.3228 65.5798 79.5956 65.5798H79.6048C79.7621 65.5798 79.9193 65.5798 80.0765 65.5798C80.2106 65.5798 80.3493 65.5798 80.4834 65.5798C80.6175 65.5798 80.7563 65.5798 80.8904 65.5798C81.1493 65.5798 81.4915 65.5798 81.8337 65.5705C82.7816 65.5474 83.5354 64.7859 83.5446 63.835C83.5446 63.5488 83.5446 63.2534 83.54 62.9673C83.54 62.7826 83.5354 62.598 83.5354 62.4134C83.5354 62.3903 83.5354 62.3626 83.5354 62.3395C83.5261 62.201 83.5123 61.9887 83.651 61.7672L83.7573 61.5964H88.8439V61.961L88.8485 61.9656ZM79.3968 60.0316L79.4291 59.7039H82.2221V64.2366H79.5216L79.4476 63.9689C79.3366 63.5673 79.3181 60.8348 79.3968 60.0316ZM90.7953 60.4471C91.3918 59.8147 91.6785 59.0762 91.6785 58.19C91.6785 57.1976 91.6785 56.1867 91.6785 55.2128C91.6785 54.7928 91.6785 54.3728 91.6785 53.9527V53.0619L92.0346 53.0527C92.0716 53.0527 92.1086 53.0527 92.1456 53.0527C92.608 53.0527 93.0103 53.145 93.3802 53.3296C94.1016 53.6943 94.4993 54.2897 94.5316 55.042C94.5548 55.5636 94.5548 56.0944 94.5548 56.6068C94.5548 56.7314 94.5548 56.8514 94.5548 56.976C94.5548 58.2592 94.5594 59.5424 94.564 60.8256C94.5686 63.3227 94.5779 65.9029 94.5871 68.4461C94.5871 69.48 94.1895 70.2555 93.3895 70.754C93.0242 70.9802 92.7051 71.0956 92.3768 71.1094C92.1687 71.1186 91.9375 71.1232 91.66 71.1232C91.4936 71.1232 91.3271 71.1232 91.156 71.1232C90.9757 71.1232 90.7953 71.1232 90.6057 71.1232H90.2404V70.7586C90.2312 68.5384 90.2312 66.2952 90.2312 64.1258C90.2312 63.1519 90.2312 62.1826 90.2312 61.2087V61.0656L90.3283 60.9594L90.4716 60.8071L90.7999 60.4609L90.7953 60.4471ZM77.2095 50.0755C77.3205 49.4847 77.8477 49.0554 78.4673 49.0554C79.0453 49.0554 79.6187 49.0554 80.1967 49.0554C81.2233 49.0554 82.162 49.0554 83.0683 49.0647C83.8267 49.0693 84.34 49.5355 84.4371 50.3063C84.4787 50.6248 84.4787 50.9479 84.4371 51.3033L84.4001 51.6264H77.2835L77.2234 51.3356C77.1355 50.9202 77.1309 50.4956 77.2095 50.0801V50.0755ZM89.8844 53.0757H90.037L90.1433 53.1819C90.3329 53.3712 90.3237 53.5927 90.3237 53.7035C90.3237 53.7173 90.3237 53.7266 90.3237 53.7404C90.3329 55.4067 90.3375 56.7683 90.3421 58.0238C90.3421 58.2915 90.3421 58.6285 90.1988 58.9608C89.8474 59.7732 89.2231 60.2071 88.3861 60.2163C87.9191 60.2209 87.4104 60.2255 86.8278 60.2255C86.2868 60.2255 85.7457 60.2255 85.2047 60.2209C84.8163 60.2209 84.4325 60.2209 84.044 60.2209C83.9377 60.2209 83.8591 60.1794 83.8221 60.1609L83.7712 60.1424L83.725 60.1009C83.5724 59.967 83.5446 59.8055 83.5308 59.7178V59.6947C83.4198 59.127 83.0822 58.4438 82.1019 58.3977C81.658 58.3792 81.1956 58.3654 80.7285 58.3654C80.2892 58.3654 79.8268 58.3746 79.3598 58.3931C78.6754 58.4208 78.1899 58.887 78.065 59.6393C78.0604 59.6762 78.0557 59.7178 78.0511 59.7547C78.0511 59.7778 78.0511 59.7962 78.0465 59.8147L78.0372 59.9116L77.9771 59.9901C77.8615 60.1517 77.6951 60.2301 77.4824 60.2301C77.4685 60.2301 77.4546 60.2301 77.4454 60.2301H77.4222C76.9367 60.2301 76.4512 60.2301 75.9656 60.2255C75.3182 60.2255 74.6662 60.2209 74.0189 60.2209C73.7229 60.2209 73.427 60.2209 73.1356 60.2209H73.1264C71.9287 60.2209 71.1981 59.2839 71.1842 58.3746C71.1657 57.2207 71.1704 56.0944 71.175 54.899C71.175 54.4189 71.175 53.9389 71.175 53.4496V53.085H89.8797L89.8844 53.0757Z" fill="#61BB73"/>
</g>
<defs>
<clipPath id="clip0_4231_8940">
<rect width="141" height="123" fill="white"/>
</clipPath>
</defs>
</svg>
