<svg width="239" height="84" viewBox="0 0 239 84" fill="none" xmlns="http://www.w3.org/2000/svg">
<g id="Layer_1" clip-path="url(#clip0_2862_3628)">
<path id="Vector" d="M37.6377 0.657227H0.658524V64.7556H37.6377V0.657227Z" fill="#61BD73"/>
<path id="Vector_2" d="M115.982 65.7294H0.658523C0.289784 65.7294 6.10352e-05 65.44 6.10352e-05 65.0717V0.657689C6.10352e-05 0.289383 0.289784 0 0.658523 0H115.982C116.35 0 116.64 0.289383 116.64 0.657689V65.0717C116.64 65.44 116.35 65.7294 115.982 65.7294ZM1.31698 64.414H115.323V1.31538H1.31698V64.414Z" fill="#131144"/>
<path id="Vector_3" d="M37.6377 65.4137C37.269 65.4137 36.9793 65.1243 36.9793 64.756V0.657689C36.9793 0.289383 37.269 0 37.6377 0C38.0065 0 38.2962 0.289383 38.2962 0.657689V64.756C38.2962 65.1243 38.0065 65.4137 37.6377 65.4137Z" fill="#131144"/>
<path id="Vector_4" d="M115.507 33.5292H1.00092C0.632184 33.5292 0.342461 33.2399 0.342461 32.8716C0.342461 32.5033 0.632184 32.2139 1.00092 32.2139H115.507C115.876 32.2139 116.166 32.5033 116.166 32.8716C116.166 33.2399 115.876 33.5292 115.507 33.5292Z" fill="#131144"/>
<path id="Vector_5" d="M183.105 45.1436L217.727 45.1436V0.867954L183.105 0.867954V45.1436Z" fill="white"/>
<path id="Vector_6" d="M217.727 45.7484H183.105C182.763 45.7484 182.499 45.4722 182.499 45.1434V0.867769C182.499 0.525771 182.776 0.262695 183.105 0.262695H217.727C218.069 0.262695 218.333 0.538925 218.333 0.867769V45.1434C218.333 45.4854 218.056 45.7484 217.727 45.7484ZM183.711 44.5383H217.121V1.47284H183.711V44.5383Z" fill="#131144"/>
<path id="Vector_7" d="M192.837 55.1934L227.459 55.1934V10.9178L192.837 10.9178V55.1934Z" fill="#61BD73"/>
<path id="Vector_8" d="M227.459 55.7982H192.837C192.495 55.7982 192.231 55.522 192.231 55.1932V10.9176C192.231 10.5756 192.508 10.3125 192.837 10.3125H227.459C227.802 10.3125 228.065 10.5887 228.065 10.9176V55.1932C228.065 55.5352 227.788 55.7982 227.459 55.7982ZM193.443 54.5881H226.853V11.5226H193.443V54.5881Z" fill="#131144"/>
<path id="Vector_9" d="M237.731 20.9668H203.109V65.2424H237.731V20.9668Z" fill="white"/>
<path id="Vector_10" d="M237.744 65.8481H203.122C202.78 65.8481 202.517 65.5718 202.517 65.243V20.9674C202.517 20.6254 202.793 20.3623 203.122 20.3623H237.744C238.087 20.3623 238.35 20.6385 238.35 20.9674V65.243C238.35 65.585 238.074 65.8481 237.744 65.8481ZM203.728 64.6379H237.139V21.5725H203.728V64.6379Z" fill="#131144"/>
<path id="Vector_11" d="M232.345 39.7766H208.522C208.179 39.7766 207.916 39.5003 207.916 39.1715C207.916 38.8426 208.192 38.5664 208.522 38.5664H232.345C232.687 38.5664 232.951 38.8426 232.951 39.1715C232.951 39.5003 232.674 39.7766 232.345 39.7766Z" fill="#131144"/>
<path id="Vector_12" d="M232.345 45.9465H208.522C208.179 45.9465 207.916 45.6702 207.916 45.3414C207.916 45.0126 208.192 44.7363 208.522 44.7363H232.345C232.687 44.7363 232.951 45.0126 232.951 45.3414C232.951 45.6702 232.674 45.9465 232.345 45.9465Z" fill="#131144"/>
<path id="Vector_13" d="M232.345 52.1154H208.522C208.179 52.1154 207.916 51.8392 207.916 51.5103C207.916 51.1815 208.192 50.9053 208.522 50.9053H232.345C232.687 50.9053 232.951 51.1815 232.951 51.5103C232.951 51.8392 232.674 52.1154 232.345 52.1154Z" fill="#131144"/>
<path id="Vector_14" d="M214.843 58.2717H208.509C208.166 58.2717 207.903 57.9954 207.903 57.6666C207.903 57.3378 208.179 57.0615 208.509 57.0615H214.843C215.185 57.0615 215.449 57.3378 215.449 57.6666C215.449 57.9954 215.172 58.2717 214.843 58.2717Z" fill="#131144"/>
<path id="Vector_15" d="M212.538 26.8867H208.509V31.5563H212.538V26.8867Z" fill="#61BD73"/>
<path id="Vector_16" d="M158.966 15.6924H115.428V17.0078H158.966V15.6924Z" fill="#131144"/>
<path id="Vector_17" d="M156.78 19.0469L156.332 18.5602L158.716 16.3504L156.332 14.1405L156.78 13.667L159.677 16.3504L156.78 19.0469Z" fill="#131144"/>
<path id="Vector_18" d="M178.351 48.1035H116.219V49.4189H178.351V48.1035Z" fill="#131144"/>
<path id="Vector_19" d="M176.165 51.4443L175.717 50.9708L178.101 48.761L175.717 46.5511L176.165 46.0645L179.062 48.761L176.165 51.4443Z" fill="#131144"/>
<path id="Vector_20" d="M13.143 21.5984L10.9437 13.7588H12.0236L13.8673 20.6645H13.617L15.5266 13.7588H16.6196L18.5292 20.6645H18.2658L20.1227 13.7588H21.2025L19.0033 21.5984H17.8575L15.9348 14.7322H16.2114L14.2887 21.5984H13.143Z" fill="#131144"/>
<path id="Vector_21" d="M23.1911 21.5984V14.6532H21.703V13.7588H24.2315V21.5984H23.1911Z" fill="#131144"/>
<path id="Vector_22" d="M11.9972 53.2596L9.79797 45.4199H10.8779L12.7215 52.3257H12.4713L14.3809 45.4199H15.4739L17.3835 52.3257H17.1201L18.9769 45.4199H20.0568L17.8575 53.2596H16.7118L14.7891 46.3933H15.0657L13.143 53.2596H11.9972Z" fill="#131144"/>
<path id="Vector_23" d="M20.7416 53.2593V52.549L22.9145 50.2077C23.3359 49.7473 23.6783 49.379 23.9286 49.0764C24.1919 48.7871 24.3763 48.524 24.4948 48.2872C24.6134 48.0504 24.6792 47.8137 24.6792 47.5506C24.6792 47.1165 24.5475 46.8008 24.2973 46.5641C24.0471 46.3404 23.7047 46.2221 23.2964 46.2221C22.8882 46.2221 22.5195 46.3404 22.2166 46.5772C21.9268 46.814 21.7161 47.156 21.6108 47.6032L20.6758 47.3664C20.7679 46.9455 20.9391 46.5772 21.1762 46.2747C21.4264 45.9721 21.7293 45.7222 22.0849 45.5644C22.4404 45.3934 22.8487 45.3145 23.2833 45.3145C23.7705 45.3145 24.1919 45.4065 24.5475 45.5907C24.9031 45.7748 25.1928 46.0379 25.4035 46.3668C25.6142 46.6956 25.7196 47.0771 25.7196 47.5111C25.7196 47.8005 25.6669 48.0767 25.5352 48.353C25.4035 48.6292 25.2455 48.9186 25.0084 49.2211C24.7714 49.5237 24.4685 49.8788 24.0998 50.2734L22.1639 52.378H25.8776V53.2725H20.7284L20.7416 53.2593Z" fill="#131144"/>
<path id="Vector_24" d="M46.8957 21.5984V13.7588H49.4769C50.267 13.7588 50.965 13.9166 51.5576 14.2455C52.1502 14.5743 52.598 15.0216 52.9272 15.6135C53.2564 16.2054 53.4145 16.8894 53.4145 17.6786C53.4145 18.4678 53.2564 19.1518 52.9272 19.7438C52.598 20.3357 52.1502 20.7961 51.5576 21.1117C50.965 21.4406 50.2802 21.5984 49.4769 21.5984H46.8957ZM47.9361 20.6514H49.4901C50.0695 20.6514 50.5831 20.533 51.0045 20.2831C51.4259 20.0331 51.7552 19.6911 51.9922 19.2439C52.2292 18.7967 52.3346 18.2705 52.3346 17.6655C52.3346 17.0604 52.2161 16.5342 51.979 16.087C51.742 15.6398 51.4128 15.2978 50.9913 15.061C50.5699 14.8242 50.0695 14.6927 49.4901 14.6927H47.9361V20.6382V20.6514Z" fill="#131144"/>
<path id="Vector_25" d="M57.2731 21.7297C56.7331 21.7297 56.2459 21.5982 55.7981 21.3483C55.3504 21.0984 55.008 20.7432 54.7446 20.296C54.4812 19.8488 54.3495 19.3358 54.3495 18.7701C54.3495 18.2045 54.4812 17.6915 54.7446 17.2575C55.008 16.8102 55.3504 16.4682 55.7981 16.2052C56.2459 15.9421 56.7331 15.8105 57.2862 15.8105C57.8393 15.8105 58.3398 15.9421 58.7875 16.192C59.2353 16.4419 59.5777 16.7971 59.8411 17.2443C60.1045 17.6915 60.223 18.1914 60.223 18.7701C60.223 19.3489 60.0913 19.8619 59.8279 20.296C59.5645 20.7432 59.2089 21.0984 58.7744 21.3483C58.3398 21.5982 57.8393 21.7297 57.2994 21.7297H57.2731ZM57.2731 20.7827C57.6286 20.7827 57.9579 20.6906 58.2344 20.5196C58.5241 20.3486 58.748 20.0987 58.9061 19.7961C59.0641 19.4936 59.1563 19.1385 59.1563 18.7701C59.1563 18.4018 59.0773 18.0467 58.9061 17.7442C58.7349 17.4416 58.511 17.2048 58.2344 17.0338C57.9447 16.8628 57.6286 16.7708 57.2731 16.7708C56.9175 16.7708 56.6014 16.8628 56.3249 17.0338C56.0352 17.2048 55.8113 17.4416 55.6401 17.7442C55.4689 18.0467 55.3899 18.3887 55.3899 18.7701C55.3899 19.1516 55.4689 19.4936 55.6401 19.7961C55.8113 20.0987 56.0352 20.3486 56.3249 20.5196C56.6146 20.6906 56.9307 20.7827 57.2731 20.7827Z" fill="#131144"/>
<path id="Vector_26" d="M64.1211 21.7302C63.5548 21.7302 63.0675 21.5987 62.6329 21.3356C62.1984 21.0725 61.8691 20.7174 61.6189 20.2701C61.3687 19.8229 61.2502 19.3099 61.2502 18.7575C61.2502 18.205 61.3687 17.6788 61.6189 17.2448C61.8691 16.8107 62.1984 16.4555 62.6329 16.1925C63.0675 15.9294 63.568 15.7979 64.1211 15.7979C64.4898 15.7979 64.8454 15.8636 65.1614 15.9952C65.4907 16.1267 65.7672 16.3108 66.0174 16.5345C66.2677 16.7581 66.4389 17.0212 66.5574 17.3237L65.6882 17.7578C65.5565 17.4552 65.3458 17.2185 65.0824 17.0343C64.8059 16.8502 64.4898 16.7581 64.1342 16.7581C63.7787 16.7581 63.4758 16.8502 63.1992 17.0212C62.9227 17.1922 62.6988 17.4289 62.5408 17.7315C62.3827 18.034 62.3037 18.376 62.3037 18.7706C62.3037 19.1652 62.3827 19.4941 62.5408 19.7966C62.6988 20.0991 62.9227 20.3491 63.1992 20.5201C63.4758 20.6911 63.7918 20.7831 64.1342 20.7831C64.4766 20.7831 64.8059 20.6911 65.0824 20.5069C65.359 20.3227 65.5565 20.0728 65.7014 19.7703L66.5705 20.2175C66.4652 20.5069 66.2808 20.77 66.0306 21.0067C65.7804 21.2435 65.5038 21.4145 65.1746 21.546C64.8454 21.6776 64.503 21.7434 64.1342 21.7434L64.1211 21.7302Z" fill="#131144"/>
<path id="Vector_27" d="M70.1657 21.7305C69.7575 21.7305 69.3624 21.6516 69.0069 21.5069C68.6513 21.3622 68.3484 21.1517 68.085 20.8755C67.8216 20.5993 67.6373 20.2836 67.5056 19.9153L68.3747 19.5601C68.5196 19.9547 68.7566 20.2573 69.0727 20.4809C69.3888 20.7045 69.7443 20.8097 70.1526 20.8097C70.4818 20.8097 70.7715 20.744 71.0218 20.6256C71.272 20.494 71.4695 20.323 71.6144 20.0731C71.7592 19.8232 71.8251 19.547 71.8251 19.205C71.8251 18.863 71.7592 18.5867 71.6144 18.3368C71.4695 18.0869 71.272 17.9159 71.0218 17.7975C70.7715 17.6791 70.4818 17.6134 70.1526 17.6134C70.0472 17.6134 69.9287 17.6134 69.8102 17.6397C69.6917 17.666 69.5863 17.666 69.5073 17.6923L69.2834 17.2187L71.3773 14.6669H67.9006V13.7725H72.5494V14.6406L70.5477 17.0872L70.4818 16.811C70.9559 16.8241 71.3641 16.9294 71.7197 17.1398C72.0753 17.3371 72.365 17.6134 72.5625 17.9685C72.7733 18.3105 72.8654 18.7183 72.8654 19.1787C72.8654 19.639 72.7469 20.0863 72.523 20.4677C72.286 20.8492 71.9699 21.1649 71.5617 21.3885C71.1534 21.6121 70.6794 21.7305 70.1526 21.7305H70.1657Z" fill="#131144"/>
<path id="Vector_28" d="M74.4326 23.0588V22.5852C74.6565 22.5326 74.8145 22.4142 74.933 22.2564C75.0384 22.0985 75.1042 21.8749 75.1174 21.5987H74.6433V20.3359H75.6705V21.2304C75.6705 21.7302 75.5651 22.138 75.3544 22.4537C75.1437 22.7694 74.8408 22.9667 74.4326 23.0588Z" fill="#131144"/>
<path id="Vector_29" d="M79.3447 21.5984V13.7588H81.9259C82.716 13.7588 83.414 13.9166 84.0066 14.2455C84.5992 14.5743 85.047 15.0216 85.3762 15.6135C85.7055 16.2054 85.8635 16.8894 85.8635 17.6786C85.8635 18.4678 85.7055 19.1518 85.3762 19.7438C85.047 20.3357 84.5992 20.7961 84.0066 21.1117C83.414 21.4406 82.7292 21.5984 81.9259 21.5984H79.3447ZM80.3851 20.6514H81.9391C82.5185 20.6514 83.0321 20.533 83.4535 20.2831C83.8749 20.0331 84.2042 19.6911 84.4412 19.2439C84.6783 18.7967 84.7836 18.2705 84.7836 17.6655C84.7836 17.0604 84.6651 16.5342 84.428 16.087C84.191 15.6398 83.8618 15.2978 83.4403 15.061C83.0189 14.8242 82.5185 14.6927 81.9391 14.6927H80.3851V20.6382V20.6514Z" fill="#131144"/>
<path id="Vector_30" d="M89.7221 21.7297C89.1821 21.7297 88.6949 21.5982 88.2471 21.3483C87.7994 21.0984 87.457 20.7432 87.1936 20.296C86.9302 19.8488 86.7985 19.3358 86.7985 18.7701C86.7985 18.2045 86.9302 17.6915 87.1936 17.2575C87.457 16.8102 87.7994 16.4682 88.2471 16.2052C88.6949 15.9421 89.1821 15.8105 89.7352 15.8105C90.2883 15.8105 90.7888 15.9421 91.2365 16.192C91.6843 16.4419 92.0267 16.7971 92.2901 17.2443C92.5535 17.6915 92.672 18.1914 92.672 18.7701C92.672 19.3489 92.5403 19.8619 92.2769 20.296C92.0135 20.7432 91.6579 21.0984 91.2234 21.3483C90.7888 21.5982 90.2883 21.7297 89.7484 21.7297H89.7221ZM89.7221 20.7827C90.0776 20.7827 90.4069 20.6906 90.6834 20.5196C90.9731 20.3486 91.197 20.0987 91.3551 19.7961C91.5131 19.4936 91.6053 19.1385 91.6053 18.7701C91.6053 18.4018 91.5263 18.0467 91.3551 17.7442C91.1839 17.4416 90.96 17.2048 90.6834 17.0338C90.3937 16.8628 90.0776 16.7708 89.7221 16.7708C89.3665 16.7708 89.0504 16.8628 88.7739 17.0338C88.4842 17.2048 88.2603 17.4416 88.0891 17.7442C87.9179 18.0467 87.8389 18.3887 87.8389 18.7701C87.8389 19.1516 87.9179 19.4936 88.0891 19.7961C88.2603 20.0987 88.4842 20.3486 88.7739 20.5196C89.0636 20.6906 89.3797 20.7827 89.7221 20.7827Z" fill="#131144"/>
<path id="Vector_31" d="M96.5701 21.7302C96.0038 21.7302 95.5165 21.5987 95.0819 21.3356C94.6474 21.0725 94.3181 20.7174 94.0679 20.2701C93.8177 19.8229 93.6992 19.3099 93.6992 18.7575C93.6992 18.205 93.8177 17.6788 94.0679 17.2448C94.3181 16.8107 94.6474 16.4555 95.0819 16.1925C95.5165 15.9294 96.017 15.7979 96.5701 15.7979C96.9388 15.7979 97.2944 15.8636 97.6104 15.9952C97.9397 16.1267 98.2162 16.3108 98.4664 16.5345C98.7167 16.7581 98.8879 17.0212 99.0064 17.3237L98.1372 17.7578C98.0055 17.4552 97.7948 17.2185 97.5314 17.0343C97.2549 16.8502 96.9388 16.7581 96.5832 16.7581C96.2277 16.7581 95.9248 16.8502 95.6482 17.0212C95.3717 17.1922 95.1478 17.4289 94.9898 17.7315C94.8317 18.034 94.7527 18.376 94.7527 18.7706C94.7527 19.1652 94.8317 19.4941 94.9898 19.7966C95.1478 20.0991 95.3717 20.3491 95.6482 20.5201C95.9248 20.6911 96.2408 20.7831 96.5832 20.7831C96.9256 20.7831 97.2549 20.6911 97.5314 20.5069C97.808 20.3227 98.0055 20.0728 98.1504 19.7703L99.0196 20.2175C98.9142 20.5069 98.7298 20.77 98.4796 21.0067C98.2294 21.2435 97.9528 21.4145 97.6236 21.546C97.2944 21.6776 96.952 21.7434 96.5832 21.7434L96.5701 21.7302Z" fill="#131144"/>
<path id="Vector_32" d="M103.839 21.5989V19.7837H99.9677V18.9287L103.813 13.7461H104.801V18.9287H105.828V19.7837H104.801V21.5989H103.826H103.839ZM100.758 19.3101L100.613 18.9418H103.839V14.6274L104.142 14.7063L100.758 19.3101Z" fill="#131144"/>
<path id="Vector_33" d="M46.8957 52.8777V45.0381H49.4769C50.267 45.0381 50.965 45.1959 51.5576 45.5248C52.1502 45.8536 52.598 46.3008 52.9272 46.8928C53.2564 47.4847 53.4145 48.1687 53.4145 48.9579C53.4145 49.7471 53.2564 50.4311 52.9272 51.0231C52.598 51.615 52.1502 52.0754 51.5576 52.391C50.965 52.7199 50.2802 52.8777 49.4769 52.8777H46.8957ZM47.9361 51.9307H49.4901C50.0695 51.9307 50.5831 51.8123 51.0045 51.5624C51.4259 51.3124 51.7552 50.9704 51.9922 50.5232C52.2292 50.076 52.3346 49.5498 52.3346 48.9448C52.3346 48.3397 52.2161 47.8135 51.979 47.3663C51.742 46.9191 51.4128 46.5771 50.9913 46.3403C50.5699 46.1035 50.0695 45.972 49.4901 45.972H47.9361V51.9175V51.9307Z" fill="#131144"/>
<path id="Vector_34" d="M57.2731 53.01C56.7331 53.01 56.2459 52.8785 55.7981 52.6286C55.3504 52.3786 55.008 52.0235 54.7446 51.5763C54.4812 51.129 54.3495 50.616 54.3495 50.0504C54.3495 49.4848 54.4812 48.9718 54.7446 48.5377C55.008 48.0905 55.3504 47.7485 55.7981 47.4854C56.2459 47.2224 56.7331 47.0908 57.2862 47.0908C57.8393 47.0908 58.3398 47.2224 58.7875 47.4723C59.2353 47.7222 59.5777 48.0774 59.8411 48.5246C60.1045 48.9718 60.223 49.4717 60.223 50.0504C60.223 50.6292 60.0913 51.1422 59.8279 51.5763C59.5645 52.0235 59.2089 52.3786 58.7744 52.6286C58.3398 52.8785 57.8393 53.01 57.2994 53.01H57.2731ZM57.2731 52.063C57.6286 52.063 57.9579 51.9709 58.2344 51.7999C58.5241 51.6289 58.748 51.379 58.9061 51.0764C59.0641 50.7739 59.1563 50.4187 59.1563 50.0504C59.1563 49.6821 59.0773 49.327 58.9061 49.0244C58.7349 48.7219 58.511 48.4851 58.2344 48.3141C57.9447 48.1431 57.6286 48.051 57.2731 48.051C56.9175 48.051 56.6014 48.1431 56.3249 48.3141C56.0352 48.4851 55.8113 48.7219 55.6401 49.0244C55.4689 49.327 55.3899 49.669 55.3899 50.0504C55.3899 50.4319 55.4689 50.7739 55.6401 51.0764C55.8113 51.379 56.0352 51.6289 56.3249 51.7999C56.6146 51.9709 56.9307 52.063 57.2731 52.063Z" fill="#131144"/>
<path id="Vector_35" d="M64.1211 53.0095C63.5548 53.0095 63.0675 52.878 62.6329 52.6149C62.1984 52.3518 61.8691 51.9967 61.6189 51.5494C61.3687 51.1022 61.2502 50.5892 61.2502 50.0367C61.2502 49.4843 61.3687 48.9581 61.6189 48.5241C61.8691 48.09 62.1984 47.7348 62.6329 47.4718C63.0675 47.2087 63.568 47.0771 64.1211 47.0771C64.4898 47.0771 64.8454 47.1429 65.1614 47.2745C65.4907 47.406 65.7672 47.5901 66.0174 47.8138C66.2677 48.0374 66.4389 48.3004 66.5574 48.603L65.6882 49.0371C65.5565 48.7345 65.3458 48.4978 65.0824 48.3136C64.8059 48.1294 64.4898 48.0374 64.1342 48.0374C63.7787 48.0374 63.4758 48.1295 63.1992 48.3004C62.9227 48.4714 62.6988 48.7082 62.5408 49.0107C62.3827 49.3133 62.3037 49.6553 62.3037 50.0499C62.3037 50.4445 62.3827 50.7734 62.5408 51.0759C62.6988 51.3784 62.9227 51.6284 63.1992 51.7994C63.4758 51.9704 63.7918 52.0624 64.1342 52.0624C64.4766 52.0624 64.8059 51.9703 65.0824 51.7862C65.359 51.602 65.5565 51.3521 65.7014 51.0496L66.5705 51.4968C66.4652 51.7862 66.2808 52.0493 66.0306 52.286C65.7804 52.5228 65.5038 52.6938 65.1746 52.8253C64.8454 52.9569 64.503 53.0227 64.1342 53.0227L64.1211 53.0095Z" fill="#131144"/>
<path id="Vector_36" d="M68.9542 52.8777V45.9325H67.4661V45.0381H69.9946V52.8777H68.9542Z" fill="#131144"/>
<path id="Vector_37" d="M72.0226 54.3517V53.8782C72.2465 53.8256 72.4045 53.7072 72.523 53.5494C72.6284 53.3915 72.6942 53.1679 72.7074 52.8917H72.2333V51.6289H73.2605V52.5234C73.2605 53.0232 73.1552 53.431 72.9445 53.7467C72.7338 54.0624 72.4309 54.2597 72.0226 54.3517Z" fill="#131144"/>
<path id="Vector_38" d="M76.9347 52.8777V45.0381H79.5159C80.3061 45.0381 81.004 45.1959 81.5966 45.5248C82.1893 45.8536 82.637 46.3008 82.9663 46.8928C83.2955 47.4847 83.4535 48.1687 83.4535 48.9579C83.4535 49.7471 83.2955 50.4311 82.9663 51.0231C82.637 51.615 82.1893 52.0754 81.5966 52.391C81.004 52.7199 80.3192 52.8777 79.5159 52.8777H76.9347ZM77.9751 51.9307H79.5291C80.1085 51.9307 80.6221 51.8123 81.0435 51.5624C81.465 51.3124 81.7942 50.9704 82.0312 50.5232C82.2683 50.076 82.3736 49.5498 82.3736 48.9448C82.3736 48.3397 82.2551 47.8135 82.0181 47.3663C81.781 46.9191 81.4518 46.5771 81.0304 46.3403C80.609 46.1035 80.1085 45.972 79.5291 45.972H77.9751V51.9175V51.9307Z" fill="#131144"/>
<path id="Vector_39" d="M87.3253 53.01C86.7853 53.01 86.2981 52.8785 85.8503 52.6286C85.4026 52.3786 85.0602 52.0235 84.7968 51.5763C84.5334 51.129 84.4017 50.616 84.4017 50.0504C84.4017 49.4848 84.5334 48.9718 84.7968 48.5377C85.0602 48.0905 85.4026 47.7485 85.8503 47.4854C86.2981 47.2224 86.7853 47.0908 87.3384 47.0908C87.8915 47.0908 88.392 47.2224 88.8397 47.4723C89.2875 47.7222 89.6299 48.0774 89.8933 48.5246C90.1567 48.9718 90.2752 49.4717 90.2752 50.0504C90.2752 50.6292 90.1435 51.1422 89.8801 51.5763C89.6167 52.0235 89.2611 52.3786 88.8266 52.6286C88.392 52.8785 87.8915 53.01 87.3516 53.01H87.3253ZM87.3253 52.063C87.6808 52.063 88.0101 51.9709 88.2866 51.7999C88.5763 51.6289 88.8002 51.379 88.9583 51.0764C89.1163 50.7739 89.2085 50.4187 89.2085 50.0504C89.2085 49.6821 89.1295 49.327 88.9583 49.0244C88.7871 48.7219 88.5632 48.4851 88.2866 48.3141C87.9969 48.1431 87.6808 48.051 87.3253 48.051C86.9697 48.051 86.6536 48.1431 86.3771 48.3141C86.0873 48.4851 85.8635 48.7219 85.6923 49.0244C85.5211 49.327 85.4421 49.669 85.4421 50.0504C85.4421 50.4319 85.5211 50.7739 85.6923 51.0764C85.8635 51.379 86.0873 51.6289 86.3771 51.7999C86.6668 51.9709 86.9829 52.063 87.3253 52.063Z" fill="#131144"/>
<path id="Vector_40" d="M94.1601 53.0095C93.5938 53.0095 93.1066 52.878 92.672 52.6149C92.2374 52.3518 91.9082 51.9967 91.6579 51.5494C91.4077 51.1022 91.2892 50.5892 91.2892 50.0367C91.2892 49.4843 91.4077 48.9581 91.6579 48.5241C91.9082 48.09 92.2374 47.7348 92.672 47.4718C93.1066 47.2087 93.607 47.0771 94.1601 47.0771C94.5288 47.0771 94.8844 47.1429 95.2005 47.2745C95.5297 47.406 95.8063 47.5901 96.0565 47.8138C96.3067 48.0374 96.4779 48.3004 96.5964 48.603L95.7272 49.0371C95.5956 48.7345 95.3848 48.4978 95.1215 48.3136C94.8449 48.1294 94.5288 48.0374 94.1733 48.0374C93.8177 48.0374 93.5148 48.1295 93.2383 48.3004C92.9617 48.4714 92.7378 48.7082 92.5798 49.0107C92.4218 49.3133 92.3428 49.6553 92.3428 50.0499C92.3428 50.4445 92.4218 50.7734 92.5798 51.0759C92.7378 51.3784 92.9617 51.6284 93.2383 51.7994C93.5148 51.9704 93.8309 52.0624 94.1733 52.0624C94.5157 52.0624 94.8449 51.9703 95.1215 51.7862C95.398 51.602 95.5955 51.3521 95.7404 51.0496L96.6096 51.4968C96.5042 51.7862 96.3199 52.0493 96.0696 52.286C95.8194 52.5228 95.5429 52.6938 95.2136 52.8253C94.8844 52.9569 94.542 53.0227 94.1733 53.0227L94.1601 53.0095Z" fill="#131144"/>
<path id="Vector_41" d="M97.9397 52.8777L101.39 45.9325H97.5446V45.0381H102.47V45.9325L99.0591 52.8777H97.9397Z" fill="#131144"/>
<path id="Vector_42" d="M31.2243 83.9081V78.0283H32.3042V83.9081H31.2243Z" fill="#131144"/>
<path id="Vector_43" d="M33.3446 83.9076V79.6194H34.3191V80.4613L34.2401 80.3166C34.3454 80.0535 34.5035 79.8562 34.7405 79.7247C34.9776 79.5931 35.2409 79.5273 35.5438 79.5273C35.8467 79.5273 36.1364 79.5931 36.3867 79.7378C36.6369 79.8825 36.8212 80.0667 36.9529 80.3166C37.0846 80.5665 37.1636 80.8427 37.1636 81.1716V83.9339H36.1233V81.4215C36.1233 81.2373 36.0838 81.0663 36.0179 80.9348C35.9389 80.8033 35.8467 80.698 35.715 80.6191C35.5833 80.5402 35.4385 80.5139 35.2673 80.5139C35.0961 80.5139 34.9512 80.5533 34.8195 80.6191C34.6878 80.698 34.5825 80.8033 34.5166 80.9348C34.4376 81.0663 34.4113 81.2373 34.4113 81.4215V83.9339H33.3709L33.3446 83.9076Z" fill="#131144"/>
<path id="Vector_44" d="M39.2576 83.9083L37.5719 79.6201H38.7044L39.9292 83.0006H39.5078L40.7457 79.6201H41.8782L40.1926 83.9083H39.2707H39.2576Z" fill="#131144"/>
<path id="Vector_45" d="M44.3936 83.9996C43.9458 83.9996 43.5639 83.8944 43.2347 83.6971C42.9054 83.4998 42.642 83.2236 42.4577 82.8816C42.2733 82.5396 42.1811 82.1581 42.1811 81.7503C42.1811 81.3426 42.2733 80.9348 42.4708 80.606C42.6552 80.2771 42.9186 80.014 43.2347 79.8167C43.5507 79.6194 43.9195 79.5273 44.3277 79.5273C44.6701 79.5273 44.9598 79.58 45.2232 79.6983C45.4734 79.8036 45.6973 79.9614 45.8817 80.1587C46.066 80.356 46.1977 80.5796 46.2899 80.8296C46.3821 81.0795 46.4348 81.3557 46.4348 81.632C46.4348 81.7109 46.4348 81.7898 46.4348 81.8687C46.4348 81.9476 46.4084 82.0134 46.3953 82.0792H43.0766V81.2768H45.8158L45.3154 81.6451C45.3681 81.4083 45.3549 81.1847 45.2891 81.0006C45.2232 80.8164 45.1047 80.6586 44.9467 80.5533C44.7886 80.4481 44.5911 80.3823 44.3672 80.3823C44.1433 80.3823 43.959 80.435 43.7878 80.5533C43.6166 80.6717 43.498 80.8164 43.4059 81.0269C43.3137 81.2373 43.2873 81.4873 43.3005 81.7766C43.2742 82.0397 43.3137 82.2765 43.4059 82.4738C43.498 82.6711 43.6297 82.8289 43.8141 82.9473C43.9985 83.0526 44.2092 83.1183 44.4462 83.1183C44.6833 83.1183 44.8808 83.0657 45.052 82.9736C45.2232 82.8816 45.3417 82.7369 45.4471 82.5659L46.2899 82.9736C46.2109 83.1841 46.0792 83.3551 45.8948 83.5129C45.7105 83.6708 45.4998 83.7892 45.2496 83.8812C44.9993 83.9733 44.736 84.0128 44.4462 84.0128L44.3936 83.9996Z" fill="#131144"/>
<path id="Vector_46" d="M47.1854 83.9077V79.6195H48.16V80.5798L48.0809 80.4351C48.1863 80.1194 48.3443 79.8958 48.555 79.7642C48.7657 79.6327 49.0291 79.5801 49.3189 79.5801H49.5691V80.5008H49.2003C48.9106 80.5008 48.6736 80.5929 48.4892 80.7639C48.3048 80.9481 48.2258 81.198 48.2258 81.5268V83.9208H47.1854V83.9077Z" fill="#131144"/>
<path id="Vector_47" d="M52.2161 83.9606C51.7288 83.9606 51.3601 83.8291 51.0835 83.566C50.8201 83.3029 50.6753 82.9215 50.6753 82.4479V80.5538H49.9378V79.633H50.0168C50.2275 79.633 50.3856 79.5804 50.5041 79.462C50.6226 79.3436 50.6753 79.1858 50.6753 78.9753V78.6465H51.7156V79.6199H52.7033V80.5406H51.7156V82.3822C51.7156 82.5268 51.742 82.6452 51.7947 82.7505C51.8473 82.8557 51.9264 82.9215 52.0317 82.9741C52.1371 83.0267 52.2819 83.053 52.4531 83.053C52.4926 83.053 52.5321 83.053 52.5848 83.053C52.6375 83.053 52.6902 83.053 52.7297 83.0398V83.9211C52.6507 83.9211 52.5716 83.9475 52.4795 83.9475C52.3873 83.9475 52.2951 83.9606 52.2161 83.9606Z" fill="#131144"/>
<path id="Vector_48" d="M55.5216 83.9996C55.0738 83.9996 54.6919 83.8944 54.3627 83.6971C54.0334 83.4998 53.77 83.2236 53.5857 82.8816C53.4013 82.5396 53.3091 82.1581 53.3091 81.7503C53.3091 81.3426 53.4013 80.9348 53.5989 80.606C53.7832 80.2771 54.0466 80.014 54.3627 79.8167C54.6787 79.6194 55.0475 79.5273 55.4557 79.5273C55.7981 79.5273 56.0878 79.58 56.3512 79.6983C56.6014 79.8036 56.8253 79.9614 57.0097 80.1587C57.1941 80.356 57.3257 80.5796 57.4179 80.8296C57.5101 81.0795 57.5628 81.3557 57.5628 81.632C57.5628 81.7109 57.5628 81.7898 57.5628 81.8687C57.5628 81.9476 57.5365 82.0134 57.5233 82.0792H54.2046V81.2768H56.9438L56.4434 81.6451C56.4961 81.4083 56.4829 81.1847 56.4171 81.0006C56.3512 80.8164 56.2327 80.6586 56.0747 80.5533C55.9166 80.4481 55.7191 80.3823 55.4952 80.3823C55.2713 80.3823 55.087 80.435 54.9158 80.5533C54.7446 80.6717 54.6261 80.8164 54.5339 81.0269C54.4417 81.2373 54.4153 81.4873 54.4285 81.7766C54.4022 82.0397 54.4417 82.2765 54.5339 82.4738C54.6261 82.6711 54.7577 82.8289 54.9421 82.9473C55.1265 83.0526 55.3372 83.1183 55.5742 83.1183C55.8113 83.1183 56.0088 83.0657 56.18 82.9736C56.3512 82.8816 56.4697 82.7369 56.5751 82.5659L57.4179 82.9736C57.3389 83.1841 57.2072 83.3551 57.0229 83.5129C56.8385 83.6708 56.6278 83.7892 56.3776 83.8812C56.1273 83.9733 55.864 84.0128 55.5742 84.0128L55.5216 83.9996Z" fill="#131144"/>
<path id="Vector_49" d="M60.3152 84.0004C59.8937 84.0004 59.525 83.9083 59.1958 83.711C58.8665 83.5137 58.6032 83.2506 58.4188 82.8955C58.2344 82.5535 58.1291 82.172 58.1291 81.7643C58.1291 81.3565 58.2213 80.9619 58.4188 80.633C58.6163 80.291 58.8665 80.028 59.1958 79.8307C59.525 79.6334 59.8937 79.5281 60.302 79.5281C60.6312 79.5281 60.921 79.5939 61.1712 79.7254C61.4214 79.857 61.6321 80.028 61.7769 80.2647L61.6189 80.4752V77.9365H62.6593V83.9083H61.6848V83.0796L61.7901 83.2901C61.6453 83.5269 61.4346 83.711 61.1712 83.8294C60.9078 83.9478 60.6181 84.0136 60.3152 84.0136V84.0004ZM60.4337 83.0533C60.6707 83.0533 60.8683 83.0007 61.0526 82.8823C61.237 82.7771 61.3819 82.6193 61.4741 82.422C61.5662 82.2247 61.6321 82.001 61.6321 81.7511C61.6321 81.5012 61.5794 81.2776 61.4741 81.0934C61.3687 80.8961 61.2238 80.7514 61.0526 80.633C60.8683 80.5278 60.6576 80.462 60.4337 80.462C60.2098 80.462 59.9991 80.5147 59.8147 80.633C59.6304 80.7383 59.4855 80.8961 59.3801 81.0934C59.2748 81.2907 59.2221 81.5144 59.2221 81.7511C59.2221 81.9879 59.2748 82.2247 59.3801 82.422C59.4855 82.6193 59.6304 82.764 59.8147 82.8823C59.9991 82.9876 60.2098 83.0533 60.4337 83.0533Z" fill="#131144"/>
<path id="Vector_50" d="M65.1219 83.9081V78.0283H66.2018V83.9081H65.1219Z" fill="#131144"/>
<path id="Vector_51" d="M67.229 83.9076V79.6194H68.2035V80.4613L68.1245 80.3166C68.2299 80.0535 68.3879 79.8562 68.6249 79.7247C68.862 79.5931 69.1254 79.5273 69.4283 79.5273C69.7312 79.5273 70.0209 79.5931 70.2711 79.7378C70.5213 79.8825 70.7057 80.0667 70.8374 80.3166C70.9691 80.5665 71.0481 80.8427 71.0481 81.1716V83.9339H70.0077V81.4215C70.0077 81.2373 69.9682 81.0663 69.9024 80.9348C69.8233 80.8033 69.7312 80.698 69.5995 80.6191C69.4678 80.5402 69.3229 80.5139 69.1517 80.5139C68.9805 80.5139 68.8356 80.5533 68.704 80.6191C68.5723 80.698 68.4669 80.8033 68.4011 80.9348C68.322 81.0663 68.2957 81.2373 68.2957 81.4215V83.9339H67.2553L67.229 83.9076Z" fill="#131144"/>
<path id="Vector_52" d="M73.9322 84.0004C73.5107 84.0004 73.142 83.9083 72.8128 83.711C72.4835 83.5137 72.2202 83.2506 72.0358 82.8955C71.8514 82.5535 71.7461 82.172 71.7461 81.7643C71.7461 81.3565 71.8382 80.9619 72.0358 80.633C72.2333 80.291 72.4835 80.028 72.8128 79.8307C73.142 79.6334 73.5107 79.5281 73.919 79.5281C74.2482 79.5281 74.5379 79.5939 74.7882 79.7254C75.0384 79.857 75.2491 80.028 75.3939 80.2647L75.2359 80.4752V77.9365H76.2763V83.9083H75.3018V83.0796L75.4071 83.2901C75.2622 83.5269 75.0515 83.711 74.7882 83.8294C74.5248 83.9478 74.235 84.0136 73.9322 84.0136V84.0004ZM74.0375 83.0533C74.2746 83.0533 74.4721 83.0007 74.6565 82.8823C74.8408 82.7771 74.9857 82.6193 75.0779 82.422C75.1701 82.2247 75.2359 82.001 75.2359 81.7511C75.2359 81.5012 75.1832 81.2776 75.0779 81.0934C74.9725 80.8961 74.8277 80.7514 74.6565 80.633C74.4721 80.5278 74.2614 80.462 74.0375 80.462C73.8136 80.462 73.6029 80.5147 73.4186 80.633C73.2342 80.7383 73.0893 80.8961 72.984 81.0934C72.8786 81.2907 72.8259 81.5144 72.8259 81.7511C72.8259 81.9879 72.8786 82.2247 72.984 82.422C73.0893 82.6193 73.2342 82.764 73.4186 82.8823C73.6029 82.9876 73.8136 83.0533 74.0375 83.0533Z" fill="#131144"/>
<path id="Vector_53" d="M79.2789 83.9996C78.8311 83.9996 78.4492 83.8944 78.12 83.6971C77.7907 83.4998 77.5274 83.2236 77.343 82.8816C77.1586 82.5396 77.0664 82.1581 77.0664 81.7503C77.0664 81.3426 77.1586 80.9348 77.3562 80.606C77.5405 80.2771 77.8039 80.014 78.12 79.8167C78.436 79.6194 78.8048 79.5273 79.213 79.5273C79.5554 79.5273 79.8451 79.58 80.1085 79.6983C80.3587 79.8036 80.5826 79.9614 80.767 80.1587C80.9514 80.356 81.083 80.5796 81.1752 80.8296C81.2674 81.0795 81.3201 81.3557 81.3201 81.632C81.3201 81.7109 81.3201 81.7898 81.3201 81.8687C81.3201 81.9476 81.2938 82.0134 81.2806 82.0792H77.9619V81.2768H80.7011L80.2007 81.6451C80.2534 81.4083 80.2402 81.1847 80.1744 81.0006C80.1085 80.8164 79.99 80.6586 79.832 80.5533C79.6739 80.4481 79.4764 80.3823 79.2525 80.3823C79.0286 80.3823 78.8443 80.435 78.6731 80.5533C78.5019 80.6717 78.3834 80.8164 78.2912 81.0269C78.199 81.2373 78.1726 81.4873 78.1858 81.7766C78.1595 82.0397 78.199 82.2765 78.2912 82.4738C78.3834 82.6711 78.515 82.8289 78.6994 82.9473C78.8838 83.0526 79.0945 83.1183 79.3315 83.1183C79.5686 83.1183 79.7661 83.0657 79.9373 82.9736C80.1085 82.8816 80.227 82.7369 80.3324 82.5659L81.1752 82.9736C81.0962 83.1841 80.9645 83.3551 80.7802 83.5129C80.5958 83.6708 80.3851 83.7892 80.1349 83.8812C79.8846 83.9733 79.6213 84.0128 79.3315 84.0128L79.2789 83.9996Z" fill="#131144"/>
<path id="Vector_54" d="M81.6098 83.9077L83.1111 81.7505L81.5966 79.6064H82.8082L83.9803 81.3427H83.4403L84.6124 79.6064H85.824L84.3227 81.7505L85.8108 83.9077H84.5992L83.4403 82.1846H83.9671L82.8082 83.9077H81.5966H81.6098Z" fill="#131144"/>
<path id="Vector_55" d="M213.961 83.9081V78.0283H215.883C216.502 78.0283 217.042 78.1599 217.503 78.4098C217.964 78.6597 218.32 79.0017 218.57 79.4489C218.82 79.8962 218.952 80.396 218.952 80.9748C218.952 81.5535 218.82 82.0534 218.57 82.5006C218.32 82.9478 217.964 83.2898 217.503 83.5397C217.042 83.7897 216.502 83.9212 215.883 83.9212H213.961V83.9081ZM215.04 82.961H215.91C216.305 82.961 216.66 82.8821 216.95 82.7111C217.24 82.5401 217.464 82.3164 217.635 82.0139C217.806 81.7114 217.885 81.3694 217.885 80.9616C217.885 80.5538 217.806 80.1987 217.635 79.9093C217.464 79.6199 217.24 79.3832 216.95 79.2253C216.66 79.0675 216.305 78.9754 215.91 78.9754H215.04V82.961Z" fill="#131144"/>
<path id="Vector_56" d="M221.019 84.0001C220.716 84.0001 220.453 83.9475 220.229 83.8555C220.005 83.7634 219.834 83.6055 219.716 83.4214C219.597 83.2372 219.531 83.0136 219.531 82.7768C219.531 82.5401 219.584 82.3296 219.689 82.1455C219.795 81.9613 219.966 81.8035 220.19 81.6719C220.414 81.5404 220.69 81.4615 221.033 81.4088L222.428 81.1852V81.9745L221.23 82.1849C221.019 82.2244 220.874 82.2902 220.769 82.3822C220.664 82.4743 220.624 82.5927 220.624 82.7505C220.624 82.9084 220.677 83.0136 220.795 83.1057C220.914 83.1978 221.046 83.2372 221.217 83.2372C221.428 83.2372 221.625 83.1846 221.783 83.1057C221.954 83.0136 222.073 82.8821 222.165 82.7242C222.257 82.5664 222.297 82.3822 222.297 82.1981V81.08C222.297 80.8959 222.231 80.738 222.086 80.6196C221.941 80.5012 221.757 80.4355 221.52 80.4355C221.296 80.4355 221.098 80.5012 220.927 80.6196C220.756 80.738 220.624 80.8959 220.545 81.08L219.702 80.6722C219.781 80.4486 219.926 80.2513 220.098 80.0803C220.269 79.9093 220.493 79.7909 220.743 79.6857C220.993 79.5936 221.256 79.541 221.546 79.541C221.902 79.541 222.205 79.6068 222.481 79.7383C222.758 79.8699 222.955 80.0409 223.113 80.2776C223.258 80.5144 223.337 80.7775 223.337 81.08V83.9344H222.363V83.1978H222.586C222.481 83.3688 222.349 83.5266 222.191 83.645C222.033 83.7765 221.862 83.8686 221.665 83.9344C221.467 84.0001 221.256 84.0265 221.019 84.0265V84.0001Z" fill="#131144"/>
<path id="Vector_57" d="M226.182 83.9606C225.694 83.9606 225.326 83.8291 225.049 83.566C224.786 83.3029 224.641 82.9215 224.641 82.4479V80.5538H223.903V79.633H223.982C224.193 79.633 224.351 79.5804 224.47 79.462C224.588 79.3436 224.641 79.1858 224.641 78.9753V78.6465H225.681V79.6199H226.669V80.5406H225.681V82.3822C225.681 82.5268 225.708 82.6452 225.76 82.7505C225.813 82.8557 225.892 82.9215 225.997 82.9741C226.103 83.0267 226.248 83.053 226.419 83.053C226.458 83.053 226.498 83.053 226.55 83.053C226.603 83.053 226.656 83.053 226.695 83.0398V83.9211C226.616 83.9211 226.537 83.9475 226.445 83.9475C226.353 83.9475 226.261 83.9606 226.182 83.9606Z" fill="#131144"/>
<path id="Vector_58" d="M228.763 84.0001C228.46 84.0001 228.197 83.9475 227.973 83.8555C227.749 83.7634 227.578 83.6055 227.459 83.4214C227.341 83.2372 227.275 83.0136 227.275 82.7768C227.275 82.5401 227.327 82.3296 227.433 82.1455C227.538 81.9613 227.709 81.8035 227.933 81.6719C228.157 81.5404 228.434 81.4615 228.776 81.4088L230.172 81.1852V81.9745L228.974 82.1849C228.763 82.2244 228.618 82.2902 228.513 82.3822C228.407 82.4743 228.368 82.5927 228.368 82.7505C228.368 82.9084 228.42 83.0136 228.539 83.1057C228.658 83.1978 228.789 83.2372 228.96 83.2372C229.171 83.2372 229.369 83.1846 229.527 83.1057C229.698 83.0136 229.816 82.8821 229.909 82.7242C230.001 82.5664 230.04 82.3822 230.04 82.1981V81.08C230.04 80.8959 229.974 80.738 229.83 80.6196C229.685 80.5012 229.5 80.4355 229.263 80.4355C229.039 80.4355 228.842 80.5012 228.671 80.6196C228.499 80.738 228.368 80.8959 228.289 81.08L227.446 80.6722C227.525 80.4486 227.67 80.2513 227.841 80.0803C228.012 79.9093 228.236 79.7909 228.486 79.6857C228.737 79.5936 229 79.541 229.29 79.541C229.645 79.541 229.948 79.6068 230.225 79.7383C230.501 79.8699 230.699 80.0409 230.857 80.2776C231.002 80.5144 231.081 80.7775 231.081 81.08V83.9344H230.106V83.1978H230.33C230.225 83.3688 230.093 83.5266 229.935 83.645C229.777 83.7765 229.606 83.8686 229.408 83.9344C229.211 84.0001 229 84.0265 228.763 84.0265V84.0001Z" fill="#131144"/>
</g>
<defs>
<clipPath id="clip0_2862_3628">
<rect width="238.35" height="84" fill="white"/>
</clipPath>
</defs>
</svg>
