<svg width="118" height="51" viewBox="0 0 118 51" fill="none" xmlns="http://www.w3.org/2000/svg">
<path d="M7.68968 50.1698C11.9377 50.1698 15.3794 46.7281 15.3794 42.4801C15.3794 38.2321 11.9377 34.7904 7.68968 34.7904C3.44167 34.7904 0 38.2321 0 42.4801C0 46.7281 3.44167 50.1698 7.68968 50.1698Z" fill="#EB6161"/>
<path d="M31.9184 18.2507C32.9214 18.2507 33.7277 19.057 33.7277 20.06L33.6294 34.7904C33.6294 43.188 26.8837 50.0321 18.5057 50.1697H18.25V34.8297H18.309L18.368 20.0993C18.368 19.0963 19.1743 18.29 20.1773 18.29H31.938C31.9184 18.29 31.9184 18.2507 31.9184 18.2507ZM55.5381 18.2507C56.5411 18.2507 57.3474 19.057 57.3474 20.06V40.6707C57.3474 41.6737 56.5411 42.48 55.5381 42.48H43.7774C42.7744 42.48 41.968 41.6737 41.968 40.6707V20.06C41.968 19.057 42.7744 18.2507 43.7774 18.2507H55.5381ZM74.0444 18.1917H74.3001C81.8325 18.29 87.9685 24.367 88.1848 31.919V40.6314C88.1848 41.6344 87.3785 42.4407 86.3755 42.4407H67.3774C66.3744 42.4407 65.5681 41.6344 65.5681 40.6314V20.001C65.5681 18.998 66.3744 18.1917 67.3774 18.1917C67.3578 18.1917 74.0444 18.1917 74.0444 18.1917ZM105.177 42.2244C98.8441 41.831 93.7701 36.5407 93.7701 30.1097C93.7701 23.423 99.1982 17.995 105.885 17.995C112.316 17.995 117.606 23.0297 118 29.4017V40.415C118 41.418 117.193 42.2244 116.19 42.2244C116.171 42.2244 105.177 42.2244 105.177 42.2244Z" fill="#009191"/>
<path d="M49.6389 15.3794C53.8869 15.3794 57.3286 11.9377 57.3286 7.68968C57.3286 3.44167 53.8869 0 49.6389 0C45.3909 0 41.9492 3.44167 41.9492 7.68968C41.9492 11.9377 45.3909 15.3794 49.6389 15.3794Z" fill="#FBCB67"/>
</svg>
