<svg width="231" height="95" viewBox="0 0 231 95" fill="none" xmlns="http://www.w3.org/2000/svg">
<g id="Layer_1" clip-path="url(#clip0_44_8052)">
<path id="Vector" d="M84.8462 84.8526C90.2712 84.8526 94.6691 80.4548 94.6691 75.0298C94.6691 69.6049 90.2712 65.207 84.8462 65.207C79.4213 65.207 75.0234 69.6049 75.0234 75.0298C75.0234 80.4548 79.4213 84.8526 84.8462 84.8526Z" fill="#131144"/>
<path id="Vector_2" d="M129.547 94.2486C134.972 94.2486 139.37 89.8508 139.37 84.4258C139.37 79.0008 134.972 74.603 129.547 74.603C124.122 74.603 119.725 79.0008 119.725 84.4258C119.725 89.8508 124.122 94.2486 129.547 94.2486Z" fill="#131144"/>
<path id="Vector_3" d="M185.196 82.5895C190.621 82.5895 195.019 78.1916 195.019 72.7667C195.019 67.3417 190.621 62.9438 185.196 62.9438C179.771 62.9438 175.373 67.3417 175.373 72.7667C175.373 78.1916 179.771 82.5895 185.196 82.5895Z" fill="#131144"/>
<path id="Vector_4" d="M220.743 39.6251C226.168 39.6251 230.566 35.2273 230.566 29.8023C230.566 24.3773 226.168 19.9795 220.743 19.9795C215.318 19.9795 210.92 24.3773 210.92 29.8023C210.92 35.2273 215.318 39.6251 220.743 39.6251Z" fill="#131144"/>
<path id="Vector_5" d="M140.765 35.8243C146.19 35.8243 150.588 31.4265 150.588 26.0015C150.588 20.5765 146.19 16.1787 140.765 16.1787C135.34 16.1787 130.942 20.5765 130.942 26.0015C130.942 31.4265 135.34 35.8243 140.765 35.8243Z" fill="#131144"/>
<path id="Vector_6" d="M77.6998 19.88C83.1247 19.88 87.5226 15.4822 87.5226 10.0572C87.5226 4.6322 83.1247 0.234375 77.6998 0.234375C72.2748 0.234375 67.877 4.6322 67.877 10.0572C67.877 15.4822 72.2748 19.88 77.6998 19.88Z" fill="#131144"/>
<path id="Vector_7" d="M79.9634 51.6261C85.3884 51.6261 89.7862 47.2283 89.7862 41.8033C89.7862 36.3783 85.3884 31.9805 79.9634 31.9805C74.5384 31.9805 70.1406 36.3783 70.1406 41.8033C70.1406 47.2283 74.5384 51.6261 79.9634 51.6261Z" fill="#131144"/>
<path id="Vector_8" d="M55.8052 74.7882C61.2302 74.7882 65.628 70.3904 65.628 64.9654C65.628 59.5404 61.2302 55.1426 55.8052 55.1426C50.3802 55.1426 45.9824 59.5404 45.9824 64.9654C45.9824 70.3904 50.3802 74.7882 55.8052 74.7882Z" fill="#131144"/>
<path id="Vector_9" d="M9.82281 39.7106C15.2478 39.7106 19.6456 35.3127 19.6456 29.8877C19.6456 24.4628 15.2478 20.0649 9.82281 20.0649C4.39782 20.0649 0 24.4628 0 29.8877C0 35.3127 4.39782 39.7106 9.82281 39.7106Z" fill="#131144"/>
<path id="Vector_10" d="M107.567 67.0011C112.992 67.0011 117.39 62.6033 117.39 57.1783C117.39 51.7533 112.992 47.3555 107.567 47.3555C102.142 47.3555 97.7441 51.7533 97.7441 57.1783C97.7441 62.6033 102.142 67.0011 107.567 67.0011Z" fill="#61BD73"/>
<path id="Vector_11" d="M107.567 67.7128C101.759 67.7128 97.0322 62.9864 97.0322 57.1782C97.0322 51.3699 101.759 46.6436 107.567 46.6436C113.375 46.6436 118.101 51.3699 118.101 57.1782C118.101 62.9864 113.375 67.7128 107.567 67.7128ZM107.567 48.0671C102.542 48.0671 98.4558 52.1529 98.4558 57.1782C98.4558 62.2035 102.542 66.2892 107.567 66.2892C112.592 66.2892 116.678 62.2035 116.678 57.1782C116.678 52.1529 112.592 48.0671 107.567 48.0671Z" fill="#131144"/>
<path id="Vector_12" d="M107.567 27.9093C112.992 27.9093 117.39 23.5115 117.39 18.0865C117.39 12.6615 112.992 8.26367 107.567 8.26367C102.142 8.26367 97.7441 12.6615 97.7441 18.0865C97.7441 23.5115 102.142 27.9093 107.567 27.9093Z" fill="#A590DD"/>
<path id="Vector_13" d="M107.567 28.6068C101.759 28.6068 97.0322 23.8805 97.0322 18.0722C97.0322 12.2639 101.759 7.5376 107.567 7.5376C113.375 7.5376 118.101 12.2639 118.101 18.0722C118.101 23.8805 113.375 28.6068 107.567 28.6068ZM107.567 8.97543C102.542 8.97543 98.4558 13.0611 98.4558 18.0864C98.4558 23.1117 102.542 27.1975 107.567 27.1975C112.592 27.1975 116.678 23.1117 116.678 18.0864C116.678 13.0611 112.592 8.97543 107.567 8.97543Z" fill="#131144"/>
<path id="Vector_14" d="M147.784 67.0011C153.209 67.0011 157.607 62.6033 157.607 57.1783C157.607 51.7533 153.209 47.3555 147.784 47.3555C142.359 47.3555 137.961 51.7533 137.961 57.1783C137.961 62.6033 142.359 67.0011 147.784 67.0011Z" fill="#A590DD"/>
<path id="Vector_15" d="M147.784 67.7128C141.975 67.7128 137.249 62.9864 137.249 57.1782C137.249 51.3699 141.975 46.6436 147.784 46.6436C153.592 46.6436 158.318 51.3699 158.318 57.1782C158.318 62.9864 153.592 67.7128 147.784 67.7128ZM147.784 48.0671C142.758 48.0671 138.673 52.1529 138.673 57.1782C138.673 62.2035 142.758 66.2892 147.784 66.2892C152.809 66.2892 156.895 62.2035 156.895 57.1782C156.895 52.1529 152.809 48.0671 147.784 48.0671Z" fill="#131144"/>
<path id="Vector_16" d="M108.279 29.062H106.855V47.583H108.279V29.062Z" fill="#131144"/>
<path id="Vector_17" d="M103.196 32.5929L103.979 33.3189L107.567 29.461L111.154 33.3189L111.937 32.5929L107.567 27.895L103.196 32.5929Z" fill="#131144"/>
<path id="Vector_18" d="M136.181 56.4663H117.66V57.8899H136.181V56.4663Z" fill="#131144"/>
<path id="Vector_19" d="M132.636 52.8076L131.91 53.5906L135.768 57.1781L131.91 60.7513L132.636 61.5343L137.334 57.1781L132.636 52.8076Z" fill="#131144"/>
</g>
<defs>
<clipPath id="clip0_44_8052">
<rect width="230.566" height="94" fill="white" transform="translate(0 0.234375)"/>
</clipPath>
</defs>
</svg>
