<svg width="204" height="192" viewBox="0 0 204 192" fill="none" xmlns="http://www.w3.org/2000/svg">
<g id="Vector Index" clip-path="url(#clip0_429_2025)">
<path id="Vector" d="M47.2666 61.6075L99.9966 10.04L149.403 61.3288" stroke="#130C49" stroke-width="2" stroke-miterlimit="10"/>
<path id="Vector_2" d="M25.4531 97.6353L49.2138 61.6074L70.0603 97.6353" stroke="#130C49" stroke-width="2" stroke-miterlimit="10"/>
<path id="Vector_3" d="M23.8967 116.562C29.0094 116.562 33.1542 112.422 33.1542 107.315C33.1542 102.208 29.0094 98.0684 23.8967 98.0684C18.7839 98.0684 14.6392 102.208 14.6392 107.315C14.6392 112.422 18.7839 116.562 23.8967 116.562Z" fill="#61BD73" stroke="#130C49" stroke-width="2" stroke-miterlimit="10"/>
<path id="Vector_4" d="M72.3112 116.562C77.424 116.562 81.5687 112.422 81.5687 107.315C81.5687 102.208 77.424 98.0684 72.3112 98.0684C67.1984 98.0684 63.0537 102.208 63.0537 107.315C63.0537 112.422 67.1984 116.562 72.3112 116.562Z" fill="#61BD73" stroke="#130C49" stroke-width="2" stroke-miterlimit="10"/>
<path id="Vector_5" d="M125.698 97.6353L149.459 61.6074L170.299 97.6353" stroke="#130C49" stroke-width="2" stroke-miterlimit="10"/>
<path id="Vector_6" d="M124.142 116.562C129.255 116.562 133.399 112.422 133.399 107.315C133.399 102.208 129.255 98.0684 124.142 98.0684C119.029 98.0684 114.884 102.208 114.884 107.315C114.884 112.422 119.029 116.562 124.142 116.562Z" fill="#61BD73" stroke="#130C49" stroke-width="2" stroke-miterlimit="10"/>
<path id="Vector_7" d="M172.556 116.562C177.669 116.562 181.814 112.422 181.814 107.315C181.814 102.208 177.669 98.0684 172.556 98.0684C167.444 98.0684 163.299 102.208 163.299 107.315C163.299 112.422 167.444 116.562 172.556 116.562Z" fill="#61BD73" stroke="#130C49" stroke-width="2" stroke-miterlimit="10"/>
<path id="Vector_8" d="M49.2448 72.4832C54.3576 72.4832 58.5023 68.3432 58.5023 63.2362C58.5023 58.1293 54.3576 53.9893 49.2448 53.9893C44.132 53.9893 39.9873 58.1293 39.9873 63.2362C39.9873 68.3432 44.132 72.4832 49.2448 72.4832Z" fill="#BCF0A7" stroke="#130C49" stroke-width="2" stroke-miterlimit="10"/>
<path id="Vector_9" d="M149.719 72.4832C154.832 72.4832 158.977 68.3432 158.977 63.2362C158.977 58.1293 154.832 53.9893 149.719 53.9893C144.607 53.9893 140.462 58.1293 140.462 63.2362C140.462 68.3432 144.607 72.4832 149.719 72.4832Z" fill="#BCF0A7" stroke="#130C49" stroke-width="2" stroke-miterlimit="10"/>
<path id="Vector_10" d="M100.604 19.3182C105.717 19.3182 109.862 15.1781 109.862 10.0712C109.862 4.96423 105.717 0.824219 100.604 0.824219C95.4914 0.824219 91.3467 4.96423 91.3467 10.0712C91.3467 15.1781 95.4914 19.3182 100.604 19.3182Z" fill="#7AD6EB" stroke="#130C49" stroke-width="2" stroke-miterlimit="10"/>
<path id="Vector_11" d="M23.8965 116.562V137.732" stroke="#130C49" stroke-width="2" stroke-miterlimit="10"/>
<path id="Vector_12" d="M21.3608 135.683L21.8135 135.262L23.8969 137.498L25.9803 135.262L26.4329 135.683L23.8969 138.408L21.3608 135.683Z" fill="#130C49"/>
<path id="Vector_13" d="M72.6768 116.562V137.732" stroke="#130C49" stroke-width="2" stroke-miterlimit="10"/>
<path id="Vector_14" d="M70.1406 135.683L70.5933 135.262L72.6767 137.498L74.7601 135.262L75.2127 135.683L72.6767 138.408L70.1406 135.683Z" fill="#130C49"/>
<path id="Vector_15" d="M123.863 116.562V137.732" stroke="#130C49" stroke-width="2" stroke-miterlimit="10"/>
<path id="Vector_16" d="M121.327 135.683L121.785 135.262L123.863 137.498L125.946 135.262L126.399 135.683L123.863 138.408L121.327 135.683Z" fill="#130C49"/>
<path id="Vector_17" d="M172.643 116.842V138.018" stroke="#130C49" stroke-width="2" stroke-miterlimit="10"/>
<path id="Vector_18" d="M170.107 135.96L170.56 135.539L172.643 137.775L174.726 135.539L175.179 135.96L172.643 138.685L170.107 135.96Z" fill="#130C49"/>
<path id="Vector_19" d="M203.237 138.891H1.16504V191.195H203.237V138.891Z" stroke="#130C49" stroke-width="2" stroke-miterlimit="10"/>
<path id="Vector_20" d="M51.5698 138.939V190.519" stroke="#130C49" stroke-width="2" stroke-miterlimit="10"/>
<path id="Vector_21" d="M101.919 138.939V190.519" stroke="#130C49" stroke-width="2" stroke-miterlimit="10"/>
<path id="Vector_22" d="M152.274 138.939V190.519" stroke="#130C49" stroke-width="2" stroke-miterlimit="10"/>
<path id="Vector_23" d="M131.924 175.023C133.595 175.023 134.95 173.67 134.95 172.001C134.95 170.332 133.595 168.979 131.924 168.979C130.253 168.979 128.898 170.332 128.898 172.001C128.898 173.67 130.253 175.023 131.924 175.023Z" fill="#130C49"/>
<path id="Vector_24" d="M140.053 184.605C141.724 184.605 143.079 183.252 143.079 181.583C143.079 179.914 141.724 178.561 140.053 178.561C138.382 178.561 137.027 179.914 137.027 181.583C137.027 183.252 138.382 184.605 140.053 184.605Z" stroke="#130C49" stroke-miterlimit="10"/>
<path id="Vector_25" d="M144.529 168.334C146.2 168.334 147.555 166.981 147.555 165.312C147.555 163.642 146.2 162.289 144.529 162.289C142.858 162.289 141.503 163.642 141.503 165.312C141.503 166.981 142.858 168.334 144.529 168.334Z" stroke="#130C49" stroke-miterlimit="10"/>
<path id="Vector_26" d="M139.24 156.709C140.911 156.709 142.266 155.356 142.266 153.687C142.266 152.017 140.911 150.664 139.24 150.664C137.569 150.664 136.214 152.017 136.214 153.687C136.214 155.356 137.569 156.709 139.24 156.709Z" stroke="#130C49" stroke-miterlimit="10"/>
<path id="Vector_27" d="M127.596 150.652C129.267 150.652 130.622 149.299 130.622 147.63C130.622 145.961 129.267 144.607 127.596 144.607C125.925 144.607 124.57 145.961 124.57 147.63C124.57 149.299 125.925 150.652 127.596 150.652Z" stroke="#130C49" stroke-miterlimit="10"/>
<path id="Vector_28" d="M113.402 152.615C115.074 152.615 116.428 151.262 116.428 149.593C116.428 147.924 115.074 146.57 113.402 146.57C111.731 146.57 110.376 147.924 110.376 149.593C110.376 151.262 111.731 152.615 113.402 152.615Z" stroke="#130C49" stroke-miterlimit="10"/>
<path id="Vector_29" d="M111.04 182.214C112.608 182.214 113.88 180.944 113.88 179.378C113.88 177.811 112.608 176.541 111.04 176.541C109.472 176.541 108.2 177.811 108.2 179.378C108.2 180.944 109.472 182.214 111.04 182.214Z" stroke="#130C49" stroke-miterlimit="10"/>
<path id="Vector_30" d="M119.163 173.197C120.731 173.197 122.003 171.927 122.003 170.36C122.003 168.793 120.731 167.523 119.163 167.523C117.594 167.523 116.323 168.793 116.323 170.36C116.323 171.927 117.594 173.197 119.163 173.197Z" stroke="#130C49" stroke-miterlimit="10"/>
<path id="Vector_31" d="M112.559 156.957L114.103 159.633L115.653 162.308H112.559H109.465L111.015 159.633L112.559 156.957Z" stroke="#130C49" stroke-miterlimit="10"/>
<path id="Vector_32" d="M123.708 179.979L125.252 182.654L126.802 185.33H123.708H120.614L122.158 182.654L123.708 179.979Z" stroke="#130C49" stroke-miterlimit="10"/>
<path id="Vector_33" d="M127.434 156.443L128.408 158.413L130.578 158.729L129.003 160.259L129.375 162.42L127.434 161.398L125.487 162.42L125.859 160.259L124.291 158.729L126.461 158.413L127.434 156.443Z" stroke="#130C49" stroke-miterlimit="10"/>
<path id="Vector_34" d="M68.3799 160.035C70.0511 160.035 71.4058 158.682 71.4058 157.013C71.4058 155.343 70.0511 153.99 68.3799 153.99C66.7087 153.99 65.354 155.343 65.354 157.013C65.354 158.682 66.7087 160.035 68.3799 160.035Z" fill="#130C49"/>
<path id="Vector_35" d="M60.7779 167.877C62.449 167.877 63.8037 166.524 63.8037 164.854C63.8037 163.185 62.449 161.832 60.7779 161.832C59.1067 161.832 57.752 163.185 57.752 164.854C57.752 166.524 59.1067 167.877 60.7779 167.877Z" fill="#130C49"/>
<path id="Vector_36" d="M77.4639 183.508C79.135 183.508 80.4898 182.155 80.4898 180.485C80.4898 178.816 79.135 177.463 77.4639 177.463C75.7927 177.463 74.438 178.816 74.438 180.485C74.438 182.155 75.7927 183.508 77.4639 183.508Z" fill="#130C49"/>
<path id="Vector_37" d="M84.6997 175.811C86.3709 175.811 87.7256 174.457 87.7256 172.788C87.7256 171.119 86.3709 169.766 84.6997 169.766C83.0286 169.766 81.6738 171.119 81.6738 172.788C81.6738 174.457 83.0286 175.811 84.6997 175.811Z" fill="#130C49"/>
<path id="Vector_38" d="M88.8296 185.242C90.5008 185.242 91.8555 183.889 91.8555 182.22C91.8555 180.55 90.5008 179.197 88.8296 179.197C87.1585 179.197 85.8037 180.55 85.8037 182.22C85.8037 183.889 87.1585 185.242 88.8296 185.242Z" stroke="#130C49" stroke-miterlimit="10"/>
<path id="Vector_39" d="M61.7573 184.363C63.4285 184.363 64.7832 183.01 64.7832 181.341C64.7832 179.672 63.4285 178.318 61.7573 178.318C60.0862 178.318 58.7314 179.672 58.7314 181.341C58.7314 183.01 60.0862 184.363 61.7573 184.363Z" stroke="#130C49" stroke-miterlimit="10"/>
<path id="Vector_40" d="M61.3916 145.543L62.9418 148.219L64.4857 150.894H61.3916H58.3037L59.8477 148.219L61.3916 145.543Z" stroke="#130C49" stroke-miterlimit="10"/>
<path id="Vector_41" d="M69.3348 168.131L70.885 170.806L72.4289 173.482H69.3348H66.2407L67.7909 170.806L69.3348 168.131Z" stroke="#130C49" stroke-miterlimit="10"/>
<path id="Vector_42" d="M79.2186 159.787L80.7626 162.463L82.3127 165.138H79.2186H76.1245L77.6747 162.463L79.2186 159.787Z" stroke="#130C49" stroke-miterlimit="10"/>
<path id="Vector_43" d="M90.4352 150.893L91.4087 152.856L93.5789 153.172L92.0102 154.708L92.3822 156.869L90.4352 155.847L88.4944 156.869L88.8665 154.708L87.2915 153.172L89.4617 152.856L90.4352 150.893Z" stroke="#130C49" stroke-miterlimit="10"/>
<path id="Vector_44" d="M93.3556 162.066L94.3229 164.03L96.4993 164.346L94.9244 165.875L95.2964 168.037L93.3556 167.021L91.4086 168.037L91.7807 165.875L90.2119 164.346L92.3821 164.03L93.3556 162.066Z" stroke="#130C49" stroke-miterlimit="10"/>
<path id="Vector_45" d="M79.5968 145.902L80.5703 147.872L82.7406 148.188L81.1656 149.718L81.5376 151.879L79.5968 150.857L77.6499 151.879L78.0219 149.718L76.4531 148.188L78.6233 147.872L79.5968 145.902Z" stroke="#130C49" stroke-miterlimit="10"/>
<path id="Vector_46" d="M16.0713 154.906C17.7425 154.906 19.0972 153.553 19.0972 151.884C19.0972 150.215 17.7425 148.861 16.0713 148.861C14.4002 148.861 13.0454 150.215 13.0454 151.884C13.0454 153.553 14.4002 154.906 16.0713 154.906Z" fill="#130C49"/>
<path id="Vector_47" d="M29.0186 151.996C30.6897 151.996 32.0445 150.643 32.0445 148.974C32.0445 147.304 30.6897 145.951 29.0186 145.951C27.3474 145.951 25.9927 147.304 25.9927 148.974C25.9927 150.643 27.3474 151.996 29.0186 151.996Z" fill="#130C49"/>
<path id="Vector_48" d="M41.9653 152.045C43.6365 152.045 44.9912 150.692 44.9912 149.022C44.9912 147.353 43.6365 146 41.9653 146C40.2942 146 38.9395 147.353 38.9395 149.022C38.9395 150.692 40.2942 152.045 41.9653 152.045Z" fill="#130C49"/>
<path id="Vector_49" d="M38.3257 162.475C39.9969 162.475 41.3516 161.121 41.3516 159.452C41.3516 157.783 39.9969 156.43 38.3257 156.43C36.6545 156.43 35.2998 157.783 35.2998 159.452C35.2998 161.121 36.6545 162.475 38.3257 162.475Z" fill="#130C49"/>
<path id="Vector_50" d="M24.6655 163.281C26.3367 163.281 27.6914 161.928 27.6914 160.259C27.6914 158.59 26.3367 157.236 24.6655 157.236C22.9944 157.236 21.6396 158.59 21.6396 160.259C21.6396 161.928 22.9944 163.281 24.6655 163.281Z" fill="#130C49"/>
<path id="Vector_51" d="M29.8677 173.141C31.5389 173.141 32.8936 171.787 32.8936 170.118C32.8936 168.449 31.5389 167.096 29.8677 167.096C28.1965 167.096 26.8418 168.449 26.8418 170.118C26.8418 171.787 28.1965 173.141 29.8677 173.141Z" fill="#130C49"/>
<path id="Vector_52" d="M35.2251 183.422C36.8963 183.422 38.251 182.069 38.251 180.399C38.251 178.73 36.8963 177.377 35.2251 177.377C33.554 177.377 32.1992 178.73 32.1992 180.399C32.1992 182.069 33.554 183.422 35.2251 183.422Z" fill="#130C49"/>
<path id="Vector_53" d="M24.0825 185.441C25.7537 185.441 27.1084 184.088 27.1084 182.419C27.1084 180.75 25.7537 179.396 24.0825 179.396C22.4114 179.396 21.0566 180.75 21.0566 182.419C21.0566 184.088 22.4114 185.441 24.0825 185.441Z" stroke="#130C49" stroke-miterlimit="10"/>
<path id="Vector_54" d="M9.7715 181.984C11.4427 181.984 12.7974 180.631 12.7974 178.962C12.7974 177.293 11.4427 175.939 9.7715 175.939C8.10034 175.939 6.74561 177.293 6.74561 178.962C6.74561 180.631 8.10034 181.984 9.7715 181.984Z" fill="#130C49"/>
<path id="Vector_55" d="M19.3021 168.93L20.8461 171.605L22.39 174.281H19.3021H16.208L17.752 171.605L19.3021 168.93Z" stroke="#130C49" stroke-miterlimit="10"/>
<path id="Vector_56" d="M41.5868 167.758L43.1307 170.433L44.6809 173.109H41.5868H38.4927L40.0428 170.433L41.5868 167.758Z" stroke="#130C49" stroke-miterlimit="10"/>
<path id="Vector_57" d="M11.7497 160.195L12.7232 162.165L14.8996 162.481L13.3246 164.011L13.6967 166.172L11.7497 165.15L9.80888 166.172L10.1809 164.011L8.60596 162.481L10.7824 162.165L11.7497 160.195Z" stroke="#130C49" stroke-miterlimit="10"/>
<path id="Vector_58" d="M186.111 166.576C187.782 166.576 189.137 165.223 189.137 163.554C189.137 161.884 187.782 160.531 186.111 160.531C184.44 160.531 183.085 161.884 183.085 163.554C183.085 165.223 184.44 166.576 186.111 166.576Z" fill="#130C49"/>
<path id="Vector_59" d="M182.329 154.486C184 154.486 185.355 153.133 185.355 151.464C185.355 149.795 184 148.441 182.329 148.441C180.657 148.441 179.303 149.795 179.303 151.464C179.303 153.133 180.657 154.486 182.329 154.486Z" stroke="#130C49" stroke-miterlimit="10"/>
<path id="Vector_60" d="M194.587 173.928C196.258 173.928 197.613 172.575 197.613 170.905C197.613 169.236 196.258 167.883 194.587 167.883C192.916 167.883 191.561 169.236 191.561 170.905C191.561 172.575 192.916 173.928 194.587 173.928Z" stroke="#130C49" stroke-miterlimit="10"/>
<path id="Vector_61" d="M161.141 179.719L162.685 182.394L164.235 185.07H161.141H158.047L159.591 182.394L161.141 179.719Z" stroke="#130C49" stroke-miterlimit="10"/>
<path id="Vector_62" d="M176.568 179.824L178.112 182.5L179.656 185.175H176.568H173.474L175.018 182.5L176.568 179.824Z" stroke="#130C49" stroke-miterlimit="10"/>
<path id="Vector_63" d="M191.431 179.166L192.981 181.842L194.525 184.517H191.431H188.337L189.887 181.842L191.431 179.166Z" stroke="#130C49" stroke-miterlimit="10"/>
<path id="Vector_64" d="M178.807 167.318L180.357 169.994L181.901 172.67H178.807H175.719L177.263 169.994L178.807 167.318Z" stroke="#130C49" stroke-miterlimit="10"/>
<path id="Vector_65" d="M194.86 150.906L196.404 153.582L197.954 156.257H194.86H191.766L193.31 153.582L194.86 150.906Z" stroke="#130C49" stroke-miterlimit="10"/>
<path id="Vector_66" d="M172.457 153.186L174.001 155.861L175.545 158.537H172.457H169.363L170.907 155.861L172.457 153.186Z" stroke="#130C49" stroke-miterlimit="10"/>
<path id="Vector_67" d="M161.562 160.42L163.113 163.096L164.656 165.771H161.562H158.468L160.018 163.096L161.562 160.42Z" stroke="#130C49" stroke-miterlimit="10"/>
<path id="Vector_68" d="M161.172 146.162L162.146 148.132L164.316 148.448L162.747 149.977L163.119 152.139L161.172 151.117L159.231 152.139L159.603 149.977L158.028 148.448L160.205 148.132L161.172 146.162Z" stroke="#130C49" stroke-miterlimit="10"/>
<path id="Vector_69" d="M166.926 170.416L167.899 172.379L170.07 172.695L168.501 174.225L168.873 176.387L166.926 175.371L164.985 176.387L165.357 174.225L163.782 172.695L165.952 172.379L166.926 170.416Z" stroke="#130C49" stroke-miterlimit="10"/>
</g>
<defs>
<clipPath id="clip0_429_2025">
<rect width="204" height="192" fill="white" transform="translate(-0.000488281)"/>
</clipPath>
</defs>
</svg>
