<?xml version="1.0" encoding="UTF-8"?><svg id="Layer_2" xmlns="http://www.w3.org/2000/svg" viewBox="0 0 258 70.12"><defs><style>.cls-1{fill:#fff;stroke-width:0px;}</style></defs><g id="Layer_1-2"><path class="cls-1" d="m12.13,28.55C20.31,19.65,28.49,10.75,36.66,1.86h14.01c.05.15.09.22.1.3,0,.08.02.18-.03.23-7.99,8.67-15.99,17.34-24.17,26.2,8.36,13.32,16.72,26.64,25.26,40.25h-14.41c-6.33-10.18-12.72-20.45-19.29-31.03-2.36,2.19-4.39,4.34-6.22,6.65-.44.55-.36,1.58-.36,2.4-.03,6.48-.01,12.96-.01,19.43,0,.81,0,1.62,0,2.57H0V1.93h11.57v26.36c.19.08.37.17.56.25Z"/><path class="cls-1" d="m212.11,0h11.61c.21,4.51.07,8.96.1,13.4.03,4.39,0,8.78,0,13.56.7-.68,1.17-1.09,1.58-1.55,6.45-7.12,17.07-7.48,24.05-3.57,3.83,2.14,6.17,5.57,7.23,9.74.69,2.71,1.17,5.54,1.22,8.33.16,9.04.08,18.09.08,27.14,0,.56-.12,1.12-.2,1.82h-11.56c0-.94,0-1.82,0-2.7,0-7.8.02-15.6-.02-23.4,0-1.65-.11-3.32-.41-4.94-1.29-6.78-7.07-10.04-13.67-7.8-4.82,1.64-8.18,6.25-8.24,11.63-.09,8.05-.04,16.1-.05,24.15,0,.97,0,1.94,0,3.05h-11.46c-.52-1.82-.77-62.3-.25-68.86Z"/><path class="cls-1" d="m143.31,47.65h-35.61c-.77,4.61,2.51,10.01,7.1,11.83,4.99,1.99,11.6,1.56,15.65-5.34h11.53c-.21.91-.27,1.54-.49,2.12-3.09,8.09-11.17,13.68-19.88,13.82-3.5.06-6.97-.02-10.34-1.2-6.68-2.34-11.41-6.78-13.87-13.37-2.84-7.63-2.64-15.35.71-22.77,3.06-6.77,8.38-11,15.71-12.6,7.32-1.59,14.25-.79,20.43,3.68,5.5,3.98,8.34,9.58,9,16.25.24,2.37.04,4.77.04,7.58Zm-12.05-7.79c.51-5.7-4.38-10.42-10.92-10.78-5.67-.31-12.33,3.78-12.58,10.78h23.5Z"/><path class="cls-1" d="m152.32,45.11c.05-8.02,2.41-14.89,8.51-20.12,11.93-10.23,35.07-6.91,39.51,13.29,1.67,7.58.85,14.9-3.57,21.46-4.47,6.64-10.83,10.02-18.88,10.35-5.67.23-10.91-.93-15.54-4.28-6.03-4.35-9.09-10.39-9.85-17.68-.11-1.07-.12-2.15-.17-3.02Zm36.92-.41c-.43-2.26-.65-4.59-1.34-6.78-1.46-4.67-5.6-7.95-9.96-8.22-5.46-.34-9.82,1.94-11.92,6.8-2.44,5.66-2.44,11.48.29,17.09,2.03,4.18,5.62,6.37,10.21,6.41,4.57.04,8.1-2.11,10.4-6.15,1.61-2.84,2.13-5.89,2.32-9.16Z"/><path class="cls-1" d="m60.39,20.7h10.21c.35,2.6.69,5.09,1.11,8.16,3.03-4.33,6.58-7.21,11.21-8.52,2.14-.61,4.32-1.02,6.73-.92v12.17c-2.16.15-4.22.28-6.27.44-6.98.55-11.24,5.04-11.31,12.09-.08,7.31-.03,14.62-.06,21.92,0,.89-.07,1.78-.12,2.82h-11.34c-.5-1.68-.69-43.89-.16-48.15Z"/></g></svg>