<svg width="56" height="62" viewBox="0 0 56 62" fill="none" xmlns="http://www.w3.org/2000/svg">
<path d="M27.8371 62C26.947 62 26.0674 61.7695 25.2727 61.3189L2.56436 48.3561C0.985475 47.4549 0 45.7678 0 43.9654V18.0294C0 16.227 0.985475 14.5398 2.56436 13.6386L25.2727 0.675906C26.8516 -0.225302 28.8225 -0.225302 30.4014 0.675906L53.1098 13.6386C54.6887 14.5398 55.6741 16.227 55.6741 18.0294V43.9654C55.6741 45.7678 54.6887 47.4549 53.1098 48.3561L30.4014 61.3189C29.6067 61.7695 28.7272 62 27.8371 62ZM27.8371 1.30466C27.1801 1.30466 26.5231 1.47232 25.9403 1.80766L3.23194 14.7704C2.05573 15.4411 1.33516 16.6881 1.33516 18.0294V43.9654C1.33516 45.3067 2.06632 46.5537 3.23194 47.2244L25.9403 60.1871C27.1165 60.8578 28.5682 60.8578 29.7444 60.1871L52.4528 47.2244C53.629 46.5537 54.3496 45.3067 54.3496 43.9654V18.0294C54.3496 16.6881 53.6184 15.4411 52.4528 14.7704L29.7338 1.80766C29.151 1.47232 28.4941 1.30466 27.8371 1.30466Z" fill="#61BD73"/>
<path d="M27.9573 18.0022C27.7266 18.0139 27.5005 18.0711 27.2924 18.1706L18.2204 22.5096C17.9856 22.6219 17.7793 22.7852 17.6168 22.9875C17.4543 23.1897 17.3397 23.4257 17.2817 23.678L15.0436 33.4244C14.9919 33.649 14.9861 33.8815 15.0266 34.1084C15.067 34.3352 15.1529 34.5516 15.2791 34.7449C15.3097 34.7922 15.3426 34.8379 15.3777 34.882L21.6571 42.697C21.8196 42.8992 22.0259 43.0625 22.2607 43.1747C22.4956 43.2869 22.7528 43.3451 23.0134 43.3451L33.0833 43.3427C33.3438 43.3429 33.601 43.2849 33.8358 43.1729C34.0706 43.0609 34.277 42.8979 34.4396 42.6958L40.7166 34.8796C40.8793 34.6773 40.9939 34.4412 41.0519 34.1889C41.11 33.9365 41.11 33.6744 41.052 33.4221L38.8103 23.6757C38.7523 23.4234 38.6378 23.1874 38.4753 22.9851C38.3128 22.7829 38.1065 22.6195 37.8717 22.5073L28.7985 18.1706C28.5367 18.0455 28.2474 17.9875 27.9573 18.0022Z" fill="#0C1428"/>
<path d="M28.0453 21.3191C27.7454 21.3191 27.5022 21.5895 27.5023 21.923C27.5023 21.9281 27.5033 21.933 27.5034 21.9381C27.503 21.9834 27.5008 22.038 27.5023 22.0775C27.5094 22.2698 27.5513 22.4171 27.5765 22.5943C27.6222 22.9736 27.6605 23.2881 27.6369 23.5803C27.6139 23.6905 27.5328 23.7913 27.4605 23.8614L27.4477 24.0913C27.1219 24.1184 26.7938 24.1679 26.4662 24.2423C25.0562 24.5628 23.8423 25.2897 22.9181 26.2713C22.8581 26.2303 22.7532 26.155 22.722 26.1319C22.6251 26.145 22.5271 26.175 22.3995 26.1006C22.1564 25.9368 21.9351 25.7108 21.6673 25.4386C21.5446 25.3083 21.4558 25.1843 21.31 25.0588C21.2769 25.0303 21.2263 24.9917 21.1893 24.9624C21.0753 24.8714 20.9409 24.824 20.8111 24.8195C20.6441 24.8138 20.4834 24.8791 20.3783 25.0112C20.1913 25.2459 20.2512 25.6046 20.5117 25.8125C20.5144 25.8146 20.5172 25.8163 20.5198 25.8183C20.5556 25.8474 20.5995 25.8846 20.6324 25.9089C20.7871 26.0233 20.9284 26.0818 21.0826 26.1726C21.4073 26.3733 21.6765 26.5398 21.8901 26.7405C21.9735 26.8295 21.9881 26.9863 21.9992 27.0541L22.1732 27.2097C21.2415 28.6132 20.8103 30.3467 21.0652 32.1131L20.8377 32.1793C20.7778 32.2568 20.6931 32.3787 20.6045 32.4151C20.3251 32.5032 20.0107 32.5355 19.6311 32.5753C19.4528 32.5902 19.2991 32.5813 19.1101 32.6172C19.0685 32.625 19.0106 32.6402 18.9651 32.6508C18.9635 32.6512 18.962 32.6516 18.9604 32.652C18.958 32.6526 18.9547 32.6538 18.9523 32.6543C18.6323 32.7317 18.4267 33.0262 18.4929 33.3163C18.5591 33.6065 18.8717 33.783 19.1937 33.7135C19.196 33.713 19.1994 33.7129 19.2018 33.7124C19.2054 33.7115 19.2086 33.7098 19.2122 33.7089C19.2571 33.699 19.3133 33.688 19.3526 33.6775C19.5384 33.6277 19.6729 33.5546 19.8399 33.4905C20.1992 33.3615 20.4968 33.2538 20.7867 33.2118C20.9078 33.2023 21.0353 33.2866 21.0988 33.3221L21.3355 33.2815C21.8802 34.9718 23.0216 36.3381 24.467 37.1954L24.3684 37.4323C24.404 37.5243 24.4432 37.6488 24.4167 37.7396C24.3113 38.0132 24.1308 38.302 23.9252 38.6239C23.8257 38.7726 23.7238 38.8881 23.634 39.0583C23.6125 39.099 23.5851 39.1616 23.5644 39.2046C23.4248 39.5035 23.5272 39.8477 23.7952 39.9769C24.065 40.1069 24.3999 39.9698 24.5448 39.6703C24.545 39.6699 24.5457 39.6696 24.5459 39.6692C24.5461 39.6688 24.5458 39.6683 24.5459 39.668C24.5666 39.6255 24.5958 39.5697 24.6132 39.5298C24.6902 39.3534 24.7158 39.2022 24.7699 39.0316C24.9135 38.6703 24.9925 38.2913 25.1902 38.0551C25.2444 37.9904 25.3327 37.9655 25.4242 37.941L25.5472 37.718C26.8073 38.2022 28.2177 38.3321 29.6267 38.0118C29.9481 37.9388 30.2584 37.8443 30.5584 37.7308C30.593 37.7922 30.6572 37.9101 30.6744 37.9398C30.7674 37.9701 30.869 37.9858 30.9517 38.1082C31.0997 38.3613 31.2009 38.6607 31.3242 39.0223C31.3783 39.1929 31.405 39.3441 31.482 39.5205C31.4995 39.5607 31.5286 39.6173 31.5493 39.6599C31.6939 39.9603 32.0298 40.0979 32.2999 39.9676C32.568 39.8384 32.6705 39.4942 32.5308 39.1953C32.5101 39.1523 32.4816 39.0897 32.4601 39.049C32.3702 38.8788 32.2684 38.7645 32.1688 38.6158C31.9632 38.2939 31.7927 38.0264 31.6873 37.7529C31.6432 37.6118 31.6948 37.524 31.7291 37.4323C31.7085 37.4087 31.6645 37.2755 31.6386 37.2128C33.1407 36.325 34.2487 34.9078 34.769 33.271C34.8392 33.2821 34.9614 33.3037 35.001 33.3117C35.0827 33.2578 35.1578 33.1874 35.305 33.199C35.5949 33.241 35.8925 33.3488 36.2518 33.4778C36.4188 33.5418 36.5533 33.6161 36.7391 33.6659C36.7784 33.6764 36.8346 33.6862 36.8795 33.6961C36.8831 33.697 36.8863 33.6988 36.8899 33.6996C36.8924 33.7001 36.8957 33.7002 36.898 33.7007C37.22 33.7701 37.5327 33.5938 37.5988 33.3035C37.665 33.0134 37.4595 32.7189 37.1394 32.6415C37.0928 32.631 37.0268 32.613 36.9816 32.6044C36.7926 32.5686 36.6389 32.5774 36.4606 32.5626C36.081 32.5228 35.7666 32.4904 35.4872 32.4023C35.3733 32.3581 35.2922 32.2224 35.2528 32.1665L35.0335 32.1027C35.1472 31.2793 35.1165 30.4224 34.9198 29.565C34.7212 28.6996 34.3703 27.9082 33.9023 27.2109C33.9585 27.1597 34.0647 27.0655 34.0949 27.0378C34.1037 26.9403 34.0961 26.838 34.197 26.73C34.4105 26.5293 34.6798 26.3629 35.0045 26.1621C35.1586 26.0713 35.3011 26.0128 35.4558 25.8985C35.4908 25.8726 35.5386 25.8317 35.5753 25.8021C35.8358 25.5941 35.8958 25.2354 35.7088 25.0007C35.5218 24.7661 35.1594 24.744 34.8989 24.9519C34.8618 24.9813 34.8115 25.0197 34.7783 25.0483C34.6325 25.1739 34.5424 25.2979 34.4197 25.4281C34.1519 25.7004 33.9306 25.9275 33.6876 26.0913C33.5823 26.1526 33.4281 26.1314 33.3581 26.1273L33.1516 26.2748C31.9739 25.0387 30.3705 24.2484 28.644 24.0948C28.6391 24.0224 28.6328 23.8915 28.6312 23.8521C28.5605 23.7844 28.4751 23.7266 28.4537 23.5803C28.4301 23.2881 28.4695 22.9736 28.5152 22.5943C28.5404 22.4171 28.5823 22.2698 28.5894 22.0775C28.5911 22.0338 28.5885 21.9703 28.5883 21.923C28.5882 21.5895 28.3452 21.3191 28.0453 21.3191ZM27.3654 25.535L27.2041 28.3862L27.1925 28.392C27.1817 28.6471 26.9719 28.8507 26.7145 28.8507C26.609 28.8507 26.5116 28.8168 26.4325 28.759L26.4279 28.7613L24.0923 27.104C24.8101 26.3975 25.7283 25.8753 26.7864 25.6348C26.9797 25.5909 27.1729 25.5583 27.3654 25.535ZM28.7263 25.535C29.9617 25.6871 31.1042 26.247 31.9797 27.1052L29.6592 28.752L29.6511 28.7485C29.4451 28.8991 29.1549 28.8618 28.9944 28.6603C28.9286 28.5777 28.8941 28.4807 28.8899 28.3827L28.8876 28.3815L28.7263 25.535ZM23.2453 28.169L25.3778 30.0783L25.3755 30.09C25.568 30.2575 25.5964 30.5481 25.4359 30.7496C25.3701 30.8322 25.2821 30.8875 25.1876 30.9134L25.1852 30.9227L22.4517 31.7124C22.3125 30.439 22.6124 29.2011 23.2453 28.169ZM32.8302 28.1702C33.147 28.6843 33.387 29.2584 33.5298 29.8809C33.6709 30.4959 33.7064 31.1098 33.6482 31.7031L30.9007 30.9111L30.8984 30.8994C30.6523 30.8321 30.5011 30.5816 30.5584 30.3304C30.5819 30.2274 30.6364 30.1404 30.7104 30.076L30.7092 30.0702L32.8302 28.1702ZM27.6079 30.2258H28.4815L29.0245 30.9053L28.8296 31.7531L28.0453 32.1305L27.2586 31.7519L27.0637 30.9041L27.6079 30.2258ZM30.4087 32.551C30.4458 32.5491 30.4828 32.5524 30.5189 32.5591L30.5236 32.5533L33.3511 33.0318C32.9373 34.1955 32.1455 35.2037 31.0875 35.8784L29.9899 33.2246L29.9933 33.2199C29.8925 32.9854 29.9934 32.7104 30.2254 32.5986C30.2848 32.5699 30.3468 32.5541 30.4087 32.551ZM25.6598 32.5626C25.8756 32.5656 26.0691 32.7155 26.1192 32.9354C26.1427 33.0383 26.1313 33.1403 26.0926 33.2304L26.1007 33.2408L25.0147 35.8679C23.9993 35.2157 23.1906 34.2392 22.758 33.0411L25.5612 32.5649L25.5658 32.5707C25.5972 32.5649 25.629 32.5621 25.6598 32.5626ZM28.0279 33.7135C28.103 33.7108 28.1793 33.7262 28.2518 33.7611C28.3468 33.8069 28.4202 33.8791 28.4664 33.9655H28.4769L29.8588 36.4649C29.6794 36.525 29.495 36.5765 29.3065 36.6193C28.2496 36.8595 27.1962 36.7867 26.2422 36.4614L27.6206 33.9667H27.6229C27.7056 33.8119 27.8625 33.7196 28.0279 33.7135Z" fill="#F5F5F5" stroke="#F5F5F5" stroke-width="0.25"/>
</svg>
