<svg width="119" height="81" viewBox="0 0 119 81" fill="none" xmlns="http://www.w3.org/2000/svg">
<g id="Layer_1" clip-path="url(#clip0_2366_1560)">
<path id="Vector" d="M40.7689 33.5391L39.4342 34.2088L39.2092 33.7649C39.6441 33.5316 40.1165 33.3435 40.6039 33.208L40.7689 33.5391Z" fill="#1B1464"/>
<path id="Vector_2" d="M65.0638 14.9977C64.6514 15.2761 64.209 15.5094 63.7366 15.6975L63.6991 15.6148L65.0338 14.9375L65.0638 14.9977Z" fill="#1B1464"/>
<path id="Vector_3" d="M74.3019 33.5395L72.9596 34.2092L72.7947 33.8706C73.2296 33.6222 73.687 33.4191 74.1669 33.2686L74.3019 33.5395Z" fill="#1B1464"/>
<path id="Vector_4" d="M98.7918 15.0278C98.3793 15.2987 97.9294 15.5395 97.457 15.7201L97.4045 15.6148L98.7468 14.9375L98.7918 15.0278Z" fill="#1B1464"/>
<path id="Vector_5" d="M108.015 33.5393L106.673 34.2091L106.515 33.9005C106.95 33.6522 107.407 33.4415 107.887 33.291L108.015 33.5393Z" fill="#1B1464"/>
<path id="Vector_6" d="M40.7014 47.3928C40.5065 47.3476 40.3265 47.2874 40.139 47.2122L40.184 47.1294L40.7014 47.3928Z" fill="#1B1464"/>
<path id="Vector_7" d="M65.2438 66.123L64.449 65.7242L64.4865 65.6489C64.7489 65.7994 65.0039 65.9575 65.2438 66.123Z" fill="#1B1464"/>
<path id="Vector_8" d="M73.7695 47.1598C73.7695 47.1598 73.732 47.1447 73.7095 47.1372L73.7695 47.1598Z" fill="#1B1464"/>
<path id="Vector_9" d="M99.0392 66.168L98.1544 65.724L98.2069 65.6187C98.5069 65.7692 98.7693 65.9723 99.0392 66.168Z" fill="#1B1464"/>
<path id="Vector_10" d="M49.9545 40.2818C49.9545 40.5377 49.9395 40.786 49.917 41.0343H35.3175C35.295 40.786 35.28 40.5377 35.28 40.2818C35.28 40.026 35.295 39.7776 35.3175 39.5293H49.917C49.9395 39.7776 49.9545 40.026 49.9545 40.2818Z" fill="#1B1464"/>
<path id="Vector_11" d="M83.7274 40.2818C83.7274 40.5377 83.7124 40.786 83.6899 41.0343H69.0905C69.068 40.786 69.053 40.5377 69.053 40.2818C69.053 40.026 69.068 39.7776 69.0905 39.5293H83.6899C83.7124 39.7776 83.7274 40.026 83.7274 40.2818Z" fill="#1B1464"/>
<path id="Vector_12" d="M108.082 39.5293V41.0343H102.863C102.841 40.786 102.826 40.5377 102.826 40.2818C102.826 40.026 102.841 39.7776 102.863 39.5293H108.082Z" fill="#1B1464"/>
<path id="Vector_13" d="M34.5677 72.128C34.5677 72.3838 34.5527 72.6322 34.5303 72.8805H23.5076V71.3755H34.5303C34.5527 71.6238 34.5677 71.8721 34.5677 72.128Z" fill="#1B1464"/>
<path id="Vector_14" d="M68.3407 72.128C68.3407 72.3838 68.3257 72.6322 68.3032 72.8805H53.7038C53.6813 72.6322 53.6663 72.3838 53.6663 72.128C53.6663 71.8721 53.6813 71.6238 53.7038 71.3755H68.3032C68.3257 71.6238 68.3407 71.8721 68.3407 72.128Z" fill="#1B1464"/>
<path id="Vector_15" d="M98.1768 71.3755V72.8805H87.4766C87.4541 72.6322 87.4391 72.3838 87.4391 72.128C87.4391 71.8721 87.4541 71.6238 87.4766 71.3755H98.1768Z" fill="#1B1464"/>
<path id="Vector_16" d="M34.5677 8.86432C34.5677 9.12018 34.5527 9.36851 34.5303 9.61683H23.5076V8.11182H34.5303C34.5527 8.36014 34.5677 8.60847 34.5677 8.86432Z" fill="#1B1464"/>
<path id="Vector_17" d="M68.3407 8.86432C68.3407 9.12018 68.3257 9.36851 68.3032 9.61683H53.7038C53.6813 9.36851 53.6663 9.12018 53.6663 8.86432C53.6663 8.60847 53.6813 8.36014 53.7038 8.11182H68.3032C68.3257 8.36014 68.3407 8.60847 68.3407 8.86432Z" fill="#1B1464"/>
<path id="Vector_18" d="M98.1768 8.11182V9.61683H87.4766C87.4541 9.36851 87.4391 9.12018 87.4391 8.86432C87.4391 8.60847 87.4541 8.36014 87.4766 8.11182H98.1768Z" fill="#1B1464"/>
<path id="Vector_19" d="M34.5678 72.1281C34.5678 72.3839 34.5528 72.6323 34.5303 72.8806C34.1554 76.5905 31.021 79.4951 27.2268 79.4951C23.1777 79.4951 19.8859 76.1916 19.8859 72.1281C19.8859 68.0645 23.1777 64.7686 27.2268 64.7686C31.021 64.7686 34.1554 67.6732 34.5303 71.3756C34.5528 71.6239 34.5678 71.8722 34.5678 72.1281Z" fill="#7AD6EB"/>
<path id="Vector_20" d="M102.113 72.1281C102.113 76.1916 98.8217 79.4951 94.78 79.4951C90.9858 79.4951 87.8515 76.5905 87.4766 72.8806C87.4541 72.6323 87.4391 72.3839 87.4391 72.1281C87.4391 71.8722 87.4541 71.6239 87.4766 71.3756C87.8515 67.6732 90.9858 64.7686 94.78 64.7686C96.0173 64.7686 97.187 65.0771 98.2068 65.6189C98.5068 65.7694 98.7692 65.9726 99.0392 66.1682H99.0466C99.0466 66.1682 99.0616 66.1833 99.0691 66.1908H99.0766C99.0766 66.1908 99.0916 66.1983 99.0991 66.2058H99.1066C99.1066 66.2058 99.1216 66.2134 99.1291 66.2209H99.1366C99.1366 66.2209 99.1516 66.2284 99.1591 66.2359H99.1666C100.951 67.5754 102.113 69.7201 102.113 72.1281Z" fill="#7AD6EB"/>
<path id="Vector_21" d="M56.0732 65.724L55.9907 65.7692C55.9907 65.7692 56.0357 65.724 56.0657 65.709V65.724H56.0732Z" fill="#7AD6EB"/>
<path id="Vector_22" d="M68.3407 72.1281C68.3407 72.3839 68.3257 72.6323 68.3032 72.8806C67.9283 76.5905 64.7939 79.4951 60.9997 79.4951C57.2055 79.4951 54.0787 76.5905 53.7038 72.8806C53.6813 72.6323 53.6663 72.3839 53.6663 72.1281C53.6663 71.8722 53.6813 71.6239 53.7038 71.3756C54.0787 67.6732 57.213 64.7686 60.9997 64.7686C62.2595 64.7686 63.4517 65.0921 64.4865 65.649C64.7489 65.7995 65.0039 65.9575 65.2438 66.1231C65.2513 66.1231 65.2513 66.1306 65.2588 66.1381C66.931 67.3421 68.0857 69.2234 68.3032 71.3756C68.3257 71.6239 68.3407 71.8722 68.3407 72.1281Z" fill="#7AD6EB"/>
<path id="Vector_23" d="M56.0657 65.709C56.0657 65.709 56.0132 65.7466 55.9907 65.7692L56.0732 65.724V65.709H56.0657Z" fill="#1B1464"/>
<path id="Vector_24" d="M27.9766 15.479V16.1939C27.7292 16.2165 27.4817 16.2315 27.2268 16.2315C26.9718 16.2315 26.7244 16.2165 26.4769 16.1939V15.479H27.9766Z" fill="#1B1464"/>
<path id="Vector_25" d="M61.7496 15.479V16.1939C61.5021 16.2165 61.2547 16.2315 60.9997 16.2315C60.7448 16.2315 60.4973 16.2165 60.2499 16.1939V15.479H61.7496Z" fill="#1B1464"/>
<path id="Vector_26" d="M95.53 15.479V16.1939C95.2825 16.2165 95.0351 16.2315 94.7801 16.2315C94.5252 16.2315 94.2777 16.2165 94.0303 16.1939V15.479H95.53Z" fill="#1B1464"/>
<path id="Vector_27" d="M56.0732 65.724L55.9907 65.7692C55.9907 65.7692 56.0357 65.724 56.0657 65.709V65.724H56.0732Z" fill="#1B1464"/>
<path id="Vector_28" d="M34.5678 8.86441C34.5678 9.12027 34.5528 9.36859 34.5303 9.61692C34.2828 12.04 32.8656 14.1169 30.8561 15.2683C30.6386 15.3887 30.4211 15.5015 30.1887 15.6069C30.1812 15.6069 30.1737 15.6144 30.1662 15.6144C29.4838 15.9154 28.749 16.1111 27.9767 16.1938C27.7292 16.2164 27.4818 16.2315 27.2268 16.2315C26.9719 16.2315 26.7244 16.2164 26.477 16.1938C22.7803 15.8176 19.8859 12.6721 19.8859 8.86441C19.8859 4.80087 23.1777 1.50488 27.2268 1.50488C31.021 1.50488 34.1554 4.40204 34.5303 8.11191C34.5528 8.36023 34.5678 8.60856 34.5678 8.86441Z" fill="#A590DD"/>
<path id="Vector_29" d="M110.167 31.4172C109.132 31.4172 108.135 31.5978 107.212 31.9289L99.4666 16.3746C101.956 14.8094 103.613 12.0251 103.613 8.86455C103.613 3.97324 99.6466 0 94.7801 0C89.9136 0 86.3519 3.57441 85.9769 8.11204H69.8028C69.4279 3.57441 65.6187 0 60.9997 0C56.3807 0 52.579 3.57441 52.204 8.11204H36.0299C35.655 3.57441 31.8458 0 27.2268 0C22.3528 0 18.3861 3.97324 18.3861 8.86455C18.3861 11.0092 19.151 12.9883 20.4257 14.5159L11.75 31.9139C10.8352 31.5903 9.86043 31.4172 8.84064 31.4172C3.96667 31.4172 0 35.398 0 40.2818C0 45.1656 3.96667 49.1538 8.84064 49.1538C10.0554 49.1538 11.2101 48.9055 12.2599 48.4615L20.9506 65.8972C19.3609 67.5 18.3861 69.7048 18.3861 72.1279C18.3861 77.0192 22.3528 81 27.2268 81C31.8458 81 35.655 77.4181 36.0299 72.8804H52.204C52.579 77.4181 56.3807 81 60.9997 81C65.6187 81 69.4279 77.4181 69.8028 72.8804H85.9769C86.3519 77.4181 90.1611 81 94.7801 81C99.6466 81 103.613 77.0192 103.613 72.1279C103.613 69.2684 102.249 66.7174 100.141 65.0995L108.202 48.9281C108.832 49.0786 109.492 49.1538 110.167 49.1538C115.041 49.1538 119 45.1731 119 40.2818C119 35.3905 115.041 31.4172 110.167 31.4172ZM105.848 32.546C103.358 33.9532 101.611 36.5343 101.364 39.5293H95.5299V17.699C96.4447 17.6237 97.3146 17.4055 98.1319 17.0669L105.848 32.546ZM87.4766 8.11204C87.8515 4.40217 90.9859 1.50502 94.7801 1.50502C98.8217 1.50502 102.114 4.801 102.114 8.86455C102.114 11.4381 100.794 13.7107 98.7917 15.0276C98.3793 15.2985 97.9294 15.5393 97.457 15.7199C96.8497 15.9607 96.2048 16.1263 95.5299 16.194C95.2825 16.2166 95.035 16.2316 94.7801 16.2316C94.5251 16.2316 94.2777 16.2166 94.0302 16.194C90.581 15.8403 87.829 13.0786 87.4766 9.61706C87.4541 9.36873 87.4391 9.1204 87.4391 8.86455C87.4391 8.6087 87.4541 8.36037 87.4766 8.11204ZM55.7208 65.0242L47.1801 47.8746C49.5346 46.4448 51.1767 43.939 51.4167 41.0343H60.2498V63.301C58.5627 63.4365 57.0105 64.061 55.7208 65.0242ZM56.0732 65.7241L55.9907 65.7692C55.9907 65.7692 56.0357 65.7241 56.0657 65.709V65.7241H56.0732ZM33.8179 41.0343C34.1028 44.4883 36.3674 47.3779 39.4642 48.5669L31.5684 64.4072C30.4886 63.7977 29.2739 63.4064 27.9766 63.301V41.0343H33.8179ZM27.9766 39.5293V17.699C28.9889 17.6162 29.9562 17.3604 30.841 16.9615L38.5419 32.4181C35.925 33.7876 34.0728 36.4365 33.8179 39.5293H27.9766ZM35.3176 41.0343C35.2951 40.7859 35.2801 40.5376 35.2801 40.2818C35.2801 40.0259 35.2951 39.7776 35.3176 39.5293C35.5725 37.0234 37.0797 34.8863 39.2093 33.765C39.6442 33.5318 40.1166 33.3436 40.604 33.2082C41.2413 33.0201 41.9162 32.9222 42.6135 32.9222C46.4078 32.9222 49.5421 35.8269 49.917 39.5293C49.9395 39.7776 49.9545 40.0259 49.9545 40.2818C49.9545 40.5376 49.9395 40.7859 49.917 41.0343C49.5421 44.7441 46.4078 47.6488 42.6135 47.6488C41.9537 47.6488 41.3163 47.5585 40.7089 47.393H40.7014C40.5065 47.3478 40.3265 47.2876 40.1391 47.2124C37.5296 46.2793 35.61 43.8938 35.3176 41.0343ZM51.4167 39.5293C51.1618 36.444 49.3171 33.8027 46.7077 32.4256L55.1434 15.5017C56.5306 16.7358 58.3003 17.541 60.2498 17.699V39.5293H51.4167ZM53.7037 9.61706C53.6812 9.36873 53.6662 9.1204 53.6662 8.86455C53.6662 8.6087 53.6812 8.36037 53.7037 8.11204C54.0786 4.40217 57.213 1.50502 60.9997 1.50502C64.7864 1.50502 67.9282 4.40217 68.3031 8.11204C68.3256 8.36037 68.3406 8.6087 68.3406 8.86455C68.3406 9.1204 68.3256 9.36873 68.3031 9.61706C68.0782 11.8595 66.841 13.8085 65.0638 14.9975C64.6514 15.2759 64.209 15.5092 63.7366 15.6973C63.1142 15.9532 62.4469 16.1187 61.7495 16.194C61.5021 16.2166 61.2546 16.2316 60.9997 16.2316C60.7447 16.2316 60.4973 16.2166 60.2498 16.194C56.8081 15.8403 54.0561 13.0786 53.7037 9.61706ZM72.1199 32.5234C69.6079 33.9231 67.8382 36.5117 67.5908 39.5293H61.7495V17.699C62.6868 17.6237 63.5791 17.398 64.4115 17.0443L72.1199 32.5234ZM61.7495 41.0343H67.5908C67.8682 44.413 70.0428 47.25 73.0347 48.4841L65.1538 64.3018C64.119 63.7525 62.9718 63.3988 61.7495 63.301V41.0343ZM69.0905 41.0343C69.068 40.7859 69.053 40.5376 69.053 40.2818C69.053 40.0259 69.068 39.7776 69.0905 39.5293C69.3379 37.0987 70.7701 35.0142 72.7947 33.8704C73.2296 33.6221 73.687 33.4189 74.1669 33.2684C74.8643 33.0426 75.6141 32.9222 76.3865 32.9222C80.1807 32.9222 83.315 35.8269 83.6899 39.5293C83.7124 39.7776 83.7274 40.0259 83.7274 40.2818C83.7274 40.5376 83.7124 40.7859 83.6899 41.0343C83.315 44.7441 80.1807 47.6488 76.3865 47.6488C75.4641 47.6488 74.5868 47.4757 73.7695 47.1597C73.747 47.1522 73.732 47.1446 73.7095 47.1371C71.205 46.1513 69.3754 43.8186 69.0905 41.0343ZM85.1896 41.0343H94.0302V63.301C92.3206 63.4365 90.7459 64.0761 89.4487 65.0694L80.9005 47.9047C83.285 46.4824 84.9497 43.954 85.1896 41.0343ZM85.1896 39.5293C84.9347 36.4214 83.0675 33.7726 80.4356 32.403L88.8788 15.4565C90.266 16.7207 92.0582 17.541 94.0302 17.699V39.5293H85.1896ZM85.9769 9.61706C86.1194 11.3629 86.7718 12.9657 87.7841 14.2751L79.0409 31.8236C78.2011 31.5602 77.3088 31.4172 76.3865 31.4172C75.3742 31.4172 74.3994 31.5903 73.4921 31.9139L65.7387 16.352C68.0032 14.8997 69.5704 12.4465 69.8028 9.61706H85.9769ZM52.204 9.61706C52.3465 11.3855 53.0139 13.0109 54.0486 14.3278L45.3205 31.8462C44.4657 31.5677 43.5583 31.4172 42.6135 31.4172C41.6687 31.4172 40.7689 31.5677 39.9216 31.8386L32.1457 16.2316C34.3128 14.7717 35.805 12.3712 36.0299 9.61706H52.204ZM19.8858 8.86455C19.8858 4.801 23.1776 1.50502 27.2268 1.50502C31.021 1.50502 34.1553 4.40217 34.5302 8.11204C34.5527 8.36037 34.5677 8.6087 34.5677 8.86455C34.5677 9.1204 34.5527 9.36873 34.5302 9.61706C34.2828 12.0401 32.8656 14.1171 30.856 15.2684C30.6386 15.3888 30.4211 15.5017 30.1887 15.607C30.1812 15.607 30.1737 15.6145 30.1662 15.6145C29.4838 15.9156 28.749 16.1112 27.9766 16.194C27.7292 16.2166 27.4817 16.2316 27.2268 16.2316C26.9718 16.2316 26.7244 16.2166 26.4769 16.194C22.7802 15.8177 19.8858 12.6722 19.8858 8.86455ZM21.543 15.6446C22.8927 16.8035 24.6023 17.5485 26.4769 17.699V39.5293H17.6363C17.3888 36.5192 15.6267 33.9306 13.1222 32.5309L21.543 15.6446ZM8.84064 47.6488C4.79149 47.6488 1.49968 44.3453 1.49968 40.2818C1.49968 36.2182 4.79149 32.9222 8.84064 32.9222C12.8898 32.9222 16.1741 36.2257 16.1741 40.2818C16.1741 44.3378 12.8823 47.6488 8.84064 47.6488ZM13.5871 47.7542C15.8442 46.3094 17.4038 43.8562 17.6363 41.0343H26.4769V63.301C24.8648 63.4289 23.3801 64.0008 22.1279 64.8963L13.5871 47.7542ZM34.5302 72.8804C34.1553 76.5903 31.021 79.495 27.2268 79.495C23.1776 79.495 19.8858 76.1915 19.8858 72.1279C19.8858 68.0644 23.1776 64.7684 27.2268 64.7684C31.021 64.7684 34.1553 67.6731 34.5302 71.3754C34.5527 71.6237 34.5677 71.8721 34.5677 72.1279C34.5677 72.3838 34.5527 72.6321 34.5302 72.8804ZM36.0299 71.3754C35.8275 68.9222 34.6202 66.7475 32.8131 65.2726L40.9339 48.9883C41.4738 49.1012 42.0362 49.1538 42.6135 49.1538C43.7458 49.1538 44.8331 48.9356 45.8304 48.5443L54.566 66.0702C53.2388 67.4774 52.369 69.3286 52.204 71.3754H36.0299ZM68.3031 72.8804C67.9282 76.5903 64.7939 79.495 60.9997 79.495C57.2055 79.495 54.0786 76.5903 53.7037 72.8804C53.6812 72.6321 53.6662 72.3838 53.6662 72.1279C53.6662 71.8721 53.6812 71.6237 53.7037 71.3754C54.0786 67.6731 57.213 64.7684 60.9997 64.7684C62.2594 64.7684 63.4517 65.092 64.4865 65.6488C64.7489 65.7993 65.0038 65.9574 65.2438 66.1229C65.2513 66.1229 65.2513 66.1304 65.2588 66.138C66.9309 67.342 68.0857 69.2232 68.3031 71.3754C68.3256 71.6237 68.3406 71.8721 68.3406 72.1279C68.3406 72.3838 68.3256 72.6321 68.3031 72.8804ZM69.8028 71.3754C69.5929 68.8395 68.3106 66.6045 66.4135 65.1371L74.4818 48.9431C75.0967 49.0786 75.7341 49.1538 76.3865 49.1538C77.5037 49.1538 78.5685 48.9431 79.5508 48.5594L88.3015 66.1154C86.9892 67.5226 86.1419 69.3512 85.9769 71.3754H69.8028ZM102.114 72.1279C102.114 76.1915 98.8217 79.495 94.7801 79.495C90.9859 79.495 87.8515 76.5903 87.4766 72.8804C87.4541 72.6321 87.4391 72.3838 87.4391 72.1279C87.4391 71.8721 87.4541 71.6237 87.4766 71.3754C87.8515 67.6731 90.9859 64.7684 94.7801 64.7684C96.0173 64.7684 97.1871 65.0769 98.2069 65.6187C98.5068 65.7692 98.7692 65.9724 99.0392 66.1681H99.0467C99.0467 66.1681 99.0617 66.1831 99.0692 66.1906H99.0767C99.0767 66.1906 99.0917 66.1982 99.0992 66.2057H99.1067C99.1067 66.2057 99.1217 66.2132 99.1292 66.2207H99.1367C99.1367 66.2207 99.1517 66.2283 99.1592 66.2358H99.1667C100.951 67.5752 102.114 69.7199 102.114 72.1279ZM98.8742 64.2793C97.8544 63.7375 96.7297 63.3988 95.5299 63.301V41.0343H101.364C101.641 44.3905 103.793 47.2199 106.755 48.4615L98.8742 64.2793ZM110.167 47.6488C106.373 47.6488 103.238 44.7441 102.863 41.0343C102.841 40.7859 102.826 40.5376 102.826 40.2818C102.826 40.0259 102.841 39.7776 102.863 39.5293C103.111 37.1212 104.521 35.0518 106.515 33.9005C106.95 33.6522 107.407 33.4415 107.887 33.291C108.607 33.0502 109.372 32.9222 110.167 32.9222C114.209 32.9222 117.5 36.2257 117.5 40.2818C117.5 44.3378 114.209 47.6488 110.167 47.6488Z" fill="#1B1464"/>
<path id="Vector_30" d="M102.113 8.86441C102.113 11.438 100.794 13.7106 98.7917 15.0275C98.3793 15.2984 97.9294 15.5392 97.457 15.7198C96.8496 15.9606 96.2047 16.1261 95.5299 16.1938C95.2824 16.2164 95.035 16.2315 94.78 16.2315C94.5251 16.2315 94.2777 16.2164 94.0302 16.1938C90.5809 15.8402 87.829 13.0785 87.4766 9.61692C87.4541 9.36859 87.4391 9.12027 87.4391 8.86441C87.4391 8.60856 87.4541 8.36023 87.4766 8.11191C87.8515 4.40204 90.9858 1.50488 94.78 1.50488C98.8217 1.50488 102.113 4.80087 102.113 8.86441Z" fill="#A590DD"/>
<path id="Vector_31" d="M68.3407 8.86441C68.3407 9.12027 68.3257 9.36859 68.3032 9.61692C68.0782 11.8594 66.841 13.8084 65.0639 14.9974C64.6515 15.2758 64.209 15.5091 63.7366 15.6972C63.1143 15.953 62.4469 16.1186 61.7496 16.1938C61.5021 16.2164 61.2547 16.2315 60.9997 16.2315C60.7448 16.2315 60.4973 16.2164 60.2499 16.1938C56.8081 15.8402 54.0562 13.0785 53.7038 9.61692C53.6813 9.36859 53.6663 9.12027 53.6663 8.86441C53.6663 8.60856 53.6813 8.36023 53.7038 8.11191C54.0787 4.40204 57.213 1.50488 60.9997 1.50488C64.7864 1.50488 67.9283 4.40204 68.3032 8.11191C68.3257 8.36023 68.3407 8.60856 68.3407 8.86441Z" fill="#A590DD"/>
<path id="Vector_32" d="M16.1741 40.2819C16.1741 44.3454 12.8822 47.649 8.84059 47.649C4.79894 47.649 1.49963 44.3454 1.49963 40.2819C1.49963 36.2183 4.79144 32.9224 8.84059 32.9224C12.8897 32.9224 16.1741 36.2259 16.1741 40.2819Z" fill="#61BD73"/>
<path id="Vector_33" d="M117.5 40.2819C117.5 44.3454 114.209 47.649 110.167 47.649C106.373 47.649 103.238 44.7443 102.863 41.0344C102.841 40.7861 102.826 40.5377 102.826 40.2819C102.826 40.026 102.841 39.7777 102.863 39.5294C103.111 37.1214 104.521 35.052 106.515 33.9006C106.95 33.6523 107.407 33.4416 107.887 33.2911C108.607 33.0503 109.372 32.9224 110.167 32.9224C114.209 32.9224 117.5 36.2259 117.5 40.2819Z" fill="#61BD73"/>
<path id="Vector_34" d="M83.7274 40.2819C83.7274 40.5377 83.7124 40.7861 83.6899 41.0344C83.315 44.7443 80.1806 47.649 76.3864 47.649C75.4641 47.649 74.5868 47.4759 73.7695 47.1598C73.747 47.1523 73.732 47.1448 73.7095 47.1372C71.205 46.1515 69.3754 43.8187 69.0905 41.0344C69.068 40.7861 69.053 40.5377 69.053 40.2819C69.053 40.026 69.068 39.7777 69.0905 39.5294C69.3379 37.0988 70.7701 35.0143 72.7947 33.8705C73.2296 33.6222 73.687 33.419 74.1669 33.2685C74.8643 33.0428 75.6141 32.9224 76.3864 32.9224C80.1806 32.9224 83.315 35.827 83.6899 39.5294C83.7124 39.7777 83.7274 40.026 83.7274 40.2819Z" fill="#61BD73"/>
<path id="Vector_35" d="M49.9545 40.2819C49.9545 40.5377 49.9395 40.7861 49.917 41.0344C49.542 44.7443 46.4077 47.649 42.6135 47.649C41.9536 47.649 41.3163 47.5587 40.7089 47.3931H40.7014C40.5064 47.3479 40.3265 47.2877 40.139 47.2125C37.5296 46.2794 35.61 43.8939 35.3175 41.0344C35.295 40.7861 35.28 40.5377 35.28 40.2819C35.28 40.026 35.295 39.7777 35.3175 39.5294C35.5725 37.0235 37.0797 34.8864 39.2092 33.7652C39.6441 33.5319 40.1165 33.3438 40.6039 33.2083C41.2413 33.0202 41.9161 32.9224 42.6135 32.9224C46.4077 32.9224 49.542 35.827 49.917 39.5294C49.9395 39.7777 49.9545 40.026 49.9545 40.2819Z" fill="#61BD73"/>
</g>
<defs>
<clipPath id="clip0_2366_1560">
<rect width="119" height="81" fill="white"/>
</clipPath>
</defs>
</svg>
