<svg width="91" height="113" viewBox="0 0 91 113" fill="none" xmlns="http://www.w3.org/2000/svg">
<g clip-path="url(#clip0_5367_872)">
<path d="M29.6783 1.32422H89.4318C89.7547 1.32422 89.9332 1.69969 89.7319 1.95001L62.0581 36.4293C61.9859 36.5204 61.8758 36.5735 61.758 36.5735H1.75006C1.42721 36.5735 1.2449 36.198 1.45 35.9477L29.3783 1.46834C29.4504 1.37732 29.5606 1.32422 29.6783 1.32422Z" fill="#EDEDED"/>
<path d="M61.7594 36.9531H1.75139C1.45133 36.9531 1.18546 36.7862 1.06012 36.5132C0.930978 36.2439 0.96896 35.9367 1.15887 35.7053L29.0833 1.22976C29.2277 1.05151 29.4442 0.945312 29.6797 0.945312H89.4332C89.7294 0.945312 89.9953 1.11219 90.1207 1.37768C90.2498 1.64696 90.2156 1.95417 90.0295 2.18552L62.3557 36.6649C62.2114 36.8469 61.9949 36.9493 61.7594 36.9493V36.9531ZM29.6797 1.70385L1.74759 36.187L61.7594 36.1946L89.437 1.71144L29.6797 1.70385Z" fill="#112C4B"/>
<path d="M29.6783 39.2402H89.4318C89.7547 39.2402 89.9332 39.6157 89.7319 39.866L62.0581 74.3454C61.9859 74.4364 61.8758 74.4895 61.758 74.4895H1.75006C1.42721 74.4895 1.2449 74.114 1.45 73.8637L29.3783 39.3844C29.4504 39.2933 29.5606 39.2402 29.6783 39.2402Z" fill="#EDEDED"/>
<path d="M61.7594 74.8691H1.75139C1.45133 74.8691 1.18926 74.7022 1.06012 74.433C0.930978 74.1637 0.96896 73.8565 1.15887 73.6251L29.0871 39.1458C29.2315 38.9675 29.448 38.8613 29.6835 38.8613H89.437C89.7332 38.8613 89.9991 39.0282 90.1245 39.2937C90.2536 39.563 90.2194 39.8702 90.0333 40.1015L62.3595 74.5809C62.2152 74.7629 61.9987 74.8653 61.7632 74.8653L61.7594 74.8691ZM29.6797 39.6199L1.74759 74.103L61.7594 74.1106L89.437 39.6275L29.6797 39.6199Z" fill="#112C4B"/>
<path d="M29.6783 77.1543H89.4318C89.7547 77.1543 89.9332 77.5298 89.7319 77.7801L62.0581 112.259C61.9859 112.35 61.8758 112.404 61.758 112.404H1.75006C1.42721 112.404 1.2449 112.028 1.45 111.778L29.3783 77.2984C29.4504 77.2074 29.5606 77.1543 29.6783 77.1543Z" fill="#EDEDED"/>
<path d="M61.7594 112.783H1.75139C1.45133 112.783 1.18926 112.616 1.06012 112.347C0.930978 112.078 0.96896 111.771 1.15887 111.539L29.0871 77.0598C29.2315 76.8816 29.448 76.7754 29.6835 76.7754H89.437C89.7332 76.7754 89.9991 76.9423 90.1245 77.2078C90.2536 77.477 90.2194 77.7842 90.0333 78.0156L62.3595 112.495C62.2152 112.677 61.9987 112.779 61.7632 112.779L61.7594 112.783ZM29.6797 77.5339L1.74759 112.017L61.7594 112.025L89.437 77.5415L29.6797 77.5301V77.5339Z" fill="#112C4B"/>
<path d="M53.3947 85.4593L45.832 90.418L46.0405 90.735L53.6032 85.7763L53.3947 85.4593Z" fill="#130C49"/>
<path d="M47.8345 91.184L47.899 90.8086L46.0531 90.4976L46.5013 88.6809L46.1329 88.5898L45.5859 90.801L47.8345 91.184Z" fill="#130C49"/>
<path d="M62.0785 103.072L47.5731 100.846L25.8359 103.042L31.0433 85.3525L43.076 91.7622L39.0461 82.6445L53.6313 85.4625L53.6693 85.5611L57.3307 95.1263L62.0747 103.072H62.0785ZM31.2788 85.9024L26.3601 102.605L47.5807 100.463L61.3341 102.575L56.9889 95.2894L53.3502 85.7925L39.6842 83.1528L43.8661 92.6117L31.2712 85.9062L31.2788 85.9024Z" fill="#130C49"/>
<path d="M39.3101 82.7198L31.1016 85.4512L31.2216 85.811L39.4302 83.0796L39.3101 82.7198Z" fill="#130C49"/>
<path d="M43.5192 92.0027L43.4375 92.373L57.1175 95.3814L57.1992 95.011L43.5192 92.0027Z" fill="#130C49"/>
<path d="M43.3723 92.0213L26 102.664L26.1986 102.987L43.5709 92.3446L43.3723 92.0213Z" fill="#130C49"/>
<path d="M57.0674 95.0202L47.4883 100.48L47.6766 100.81L57.2557 95.3495L57.0674 95.0202Z" fill="#130C49"/>
<path d="M43.4805 94.0999C42.4208 94.0999 41.5586 93.239 41.5586 92.1808C41.5586 91.1227 42.4208 90.2617 43.4805 90.2617C44.5402 90.2617 45.4024 91.1227 45.4024 92.1808C45.4024 93.239 44.5402 94.0999 43.4805 94.0999Z" fill="#F4404E"/>
<path d="M43.479 90.4515C44.4323 90.4515 45.211 91.2252 45.211 92.181C45.211 93.1368 44.4361 93.9105 43.479 93.9105C42.5218 93.9105 41.747 93.1368 41.747 92.181C41.747 91.2252 42.5218 90.4515 43.479 90.4515ZM43.479 90.0723C42.3129 90.0723 41.3672 91.0166 41.3672 92.181C41.3672 93.3454 42.3129 94.2897 43.479 94.2897C44.645 94.2897 45.5908 93.3454 45.5908 92.181C45.5908 91.0166 44.645 90.0723 43.479 90.0723Z" fill="#130C49"/>
<path d="M31.1641 87.5433C30.1044 87.5433 29.2422 86.6823 29.2422 85.6242C29.2422 84.566 30.1044 83.7051 31.1641 83.7051C32.2238 83.7051 33.086 84.566 33.086 85.6242C33.086 86.6823 32.2238 87.5433 31.1641 87.5433Z" fill="#61BD73"/>
<path d="M31.1665 83.8949C32.1198 83.8949 32.8985 84.6686 32.8985 85.6244C32.8985 86.5801 32.1236 87.3538 31.1665 87.3538C30.2093 87.3538 29.4345 86.5801 29.4345 85.6244C29.4345 84.6686 30.2093 83.8949 31.1665 83.8949ZM31.1665 83.5156C30.0004 83.5156 29.0547 84.46 29.0547 85.6244C29.0547 86.7887 30.0004 87.7331 31.1665 87.7331C32.3325 87.7331 33.2783 86.7887 33.2783 85.6244C33.2783 84.46 32.3325 83.5156 31.1665 83.5156Z" fill="#130C49"/>
<path d="M61.711 104.737C60.6513 104.737 59.7891 103.876 59.7891 102.818C59.7891 101.759 60.6513 100.898 61.711 100.898C62.7707 100.898 63.6329 101.759 63.6329 102.818C63.6329 103.876 62.7707 104.737 61.711 104.737Z" fill="#61BD73"/>
<path d="M61.7095 101.092C62.6628 101.092 63.4414 101.866 63.4414 102.822C63.4414 103.777 62.6666 104.551 61.7095 104.551C60.7523 104.551 59.9775 103.777 59.9775 102.822C59.9775 101.866 60.7523 101.092 61.7095 101.092ZM61.7095 100.713C60.5434 100.713 59.5977 101.657 59.5977 102.822C59.5977 103.986 60.5434 104.93 61.7095 104.93C62.8755 104.93 63.8213 103.986 63.8213 102.822C63.8213 101.657 62.8755 100.713 61.7095 100.713Z" fill="#130C49"/>
<path d="M26.1016 104.737C25.0419 104.737 24.1797 103.876 24.1797 102.818C24.1797 101.759 25.0419 100.898 26.1016 100.898C27.1613 100.898 28.0235 101.759 28.0235 102.818C28.0235 103.876 27.1613 104.737 26.1016 104.737Z" fill="#61BD73"/>
<path d="M26.1001 101.092C27.0534 101.092 27.8321 101.866 27.8321 102.822C27.8321 103.777 27.0572 104.551 26.1001 104.551C25.1429 104.551 24.3681 103.777 24.3681 102.822C24.3681 101.866 25.1429 101.092 26.1001 101.092ZM26.1001 100.713C24.934 100.713 23.9883 101.657 23.9883 102.822C23.9883 103.986 24.934 104.93 26.1001 104.93C27.2661 104.93 28.2119 103.986 28.2119 102.822C28.2119 101.657 27.2661 100.713 26.1001 100.713Z" fill="#130C49"/>
<path d="M53.5 87.5433C52.4403 87.5433 51.5781 86.6823 51.5781 85.6242C51.5781 84.566 52.4403 83.7051 53.5 83.7051C54.5597 83.7051 55.4219 84.566 55.4219 85.6242C55.4219 86.6823 54.5597 87.5433 53.5 87.5433Z" fill="#61BD73"/>
<path d="M53.4985 83.8949C54.4519 83.8949 55.2305 84.6686 55.2305 85.6244C55.2305 86.5801 54.4557 87.3538 53.4985 87.3538C52.5414 87.3538 51.7665 86.5801 51.7665 85.6244C51.7665 84.6686 52.5414 83.8949 53.4985 83.8949ZM53.4985 83.5156C52.3325 83.5156 51.3867 84.46 51.3867 85.6244C51.3867 86.7887 52.3325 87.7331 53.4985 87.7331C54.6646 87.7331 55.6103 86.7887 55.6103 85.6244C55.6103 84.46 54.6646 83.5156 53.4985 83.5156Z" fill="#130C49"/>
<path d="M39.3711 84.8128C38.3114 84.8128 37.4492 83.9519 37.4492 82.8937C37.4492 81.8356 38.3114 80.9746 39.3711 80.9746C40.4308 80.9746 41.293 81.8356 41.293 82.8937C41.293 83.9519 40.4308 84.8128 39.3711 84.8128Z" fill="#61BD73"/>
<path d="M39.3735 81.1644C40.3269 81.1644 41.1055 81.9381 41.1055 82.8939C41.1055 83.8497 40.3307 84.6234 39.3735 84.6234C38.4164 84.6234 37.6415 83.8497 37.6415 82.8939C37.6415 81.9381 38.4164 81.1644 39.3735 81.1644ZM39.3735 80.7852C38.2075 80.7852 37.2617 81.7295 37.2617 82.8939C37.2617 84.0583 38.2075 85.0026 39.3735 85.0026C40.5396 85.0026 41.4853 84.0583 41.4853 82.8939C41.4853 81.7295 40.5396 80.7852 39.3735 80.7852Z" fill="#130C49"/>
<path d="M57.1602 97.1038C56.1005 97.1038 55.2383 96.2429 55.2383 95.1847C55.2383 94.1266 56.1005 93.2656 57.1602 93.2656C58.2199 93.2656 59.0821 94.1266 59.0821 95.1847C59.0821 96.2429 58.2199 97.1038 57.1602 97.1038Z" fill="#61BD73"/>
<path d="M57.1587 93.4593C58.112 93.4593 58.8907 94.2331 58.8907 95.1888C58.8907 96.1446 58.1158 96.9183 57.1587 96.9183C56.2015 96.9183 55.4267 96.1446 55.4267 95.1888C55.4267 94.2331 56.2015 93.4593 57.1587 93.4593ZM57.1587 93.0801C55.9926 93.0801 55.0469 94.0245 55.0469 95.1888C55.0469 96.3532 55.9926 97.2976 57.1587 97.2976C58.3247 97.2976 59.2705 96.3532 59.2705 95.1888C59.2705 94.0245 58.3247 93.0801 57.1587 93.0801Z" fill="#130C49"/>
<path d="M47.5821 102.571C46.5224 102.571 45.6602 101.71 45.6602 100.652C45.6602 99.5934 46.5224 98.7324 47.5821 98.7324C48.6418 98.7324 49.5039 99.5934 49.5039 100.652C49.5039 101.71 48.6418 102.571 47.5821 102.571Z" fill="#61BD73"/>
<path d="M47.5806 98.9261C48.5339 98.9261 49.3125 99.6999 49.3125 100.656C49.3125 101.611 48.5377 102.385 47.5806 102.385C46.6234 102.385 45.8486 101.611 45.8486 100.656C45.8486 99.6999 46.6234 98.9261 47.5806 98.9261ZM47.5806 98.5469C46.4145 98.5469 45.4688 99.4913 45.4688 100.656C45.4688 101.82 46.4145 102.764 47.5806 102.764C48.7466 102.764 49.6924 101.82 49.6924 100.656C49.6924 99.4913 48.7466 98.5469 47.5806 98.5469Z" fill="#130C49"/>
<path d="M31.3564 83.1017L30.9766 83.0828L30.9956 82.3508L31.3564 82.3697V83.1017ZM31.3564 80.8072L30.9766 80.7882L30.9956 79.1877L31.3564 79.2066V80.8072ZM31.3564 77.644L30.9766 77.6251L30.9956 76.0246L31.3564 76.0435V77.644ZM31.3564 74.4809L30.9766 74.462L30.9956 72.8615L31.3564 72.8804V74.4809ZM31.3564 71.3178L30.9766 71.2989L30.9956 69.6984L31.3564 69.7173V71.3178ZM31.3564 68.1547L30.9766 68.1358L30.9956 66.5353L31.3564 66.5542V68.1547ZM31.3564 64.9916L30.9766 64.9727L30.9956 63.3722L31.3564 63.3911V64.9916ZM31.3564 61.8285L30.9766 61.8096L30.9956 60.2091L31.3564 60.228V61.8285ZM31.3564 58.6654L30.9766 58.6465L30.9956 57.0459L31.3564 57.0649V58.6654ZM31.3564 55.5023L30.9766 55.4834L30.9956 53.8828L31.3564 53.9018V55.5023ZM31.3564 52.3392L30.9766 52.3203L30.9956 50.7197L31.3564 50.7387V52.3392ZM31.3564 49.1761L30.9766 49.1572L30.9956 47.5566L31.3564 47.5756V49.1761Z" fill="#130C49"/>
<path d="M30.5195 82.3301L31.1652 82.9748L31.8071 82.3301V82.8762L31.1652 83.5172L30.5195 82.8762V82.3301Z" fill="#130C49"/>
<path d="M26.2939 100.295L25.9141 100.276L25.9331 99.381L26.2939 99.4V100.295ZM26.2939 97.8374L25.9141 97.8184L25.9331 96.2179L26.2939 96.2369V97.8374ZM26.2939 94.6743L25.9141 94.6553L25.9331 93.0548L26.2939 93.0738V94.6743ZM26.2939 91.5112L25.9141 91.4922L25.9331 89.8917L26.2939 89.9107V91.5112ZM26.2939 88.3481L25.9141 88.3291L25.9331 86.7286L26.2939 86.7476V88.3481ZM26.2939 85.185L25.9141 85.166L25.9331 83.5655L26.2939 83.5845V85.185ZM26.2939 82.0219L25.9141 82.0029L25.9331 80.4024L26.2939 80.4214V82.0219ZM26.2939 78.8588L25.9141 78.8398L25.9331 77.2393L26.2939 77.2583V78.8588ZM26.2939 75.6957L25.9141 75.6767L25.9331 74.0762L26.2939 74.0952V75.6957ZM26.2939 72.5326L25.9141 72.5136L25.9331 70.9131L26.2939 70.9321V72.5326ZM26.2939 69.3695L25.9141 69.3505L25.9331 67.75L26.2939 67.769V69.3695Z" fill="#130C49"/>
<path d="M25.4609 99.5215L26.1028 100.166L26.7485 99.5215V100.068L26.1028 100.712L25.4609 100.068V99.5215Z" fill="#130C49"/>
<path d="M61.8994 100.239L61.5195 100.22L61.5385 98.9115L61.8994 98.9305V100.239ZM61.8994 97.3679L61.5195 97.3489L61.5385 95.7484L61.8994 95.7674V97.3679ZM61.8994 94.2048L61.5195 94.1858L61.5385 92.5853L61.8994 92.6043V94.2048ZM61.8994 91.0417L61.5195 91.0227L61.5385 89.4222L61.8994 89.4412V91.0417ZM61.8994 87.8786L61.5195 87.8596L61.5385 86.2591L61.8994 86.2781V87.8786ZM61.8994 84.7155L61.5195 84.6965L61.5385 83.096L61.8994 83.115V84.7155ZM61.8994 81.5524L61.5195 81.5334L61.5385 79.9329L61.8994 79.9519V81.5524ZM61.8994 78.3893L61.5195 78.3703L61.5385 76.7698L61.8994 76.7888V78.3893ZM61.8994 75.2262L61.5195 75.2072L61.5385 73.6067L61.8994 73.6257V75.2262ZM61.8994 72.0631L61.5195 72.0441L61.5385 70.4436L61.8994 70.4626V72.0631ZM61.8994 68.9L61.5195 68.881L61.5385 67.2805L61.8994 67.2994V68.9ZM61.8994 65.7369L61.5195 65.7179L61.5385 64.1174L61.8994 64.1363V65.7369ZM61.8994 62.5738L61.5195 62.5548L61.5385 60.9543L61.8994 60.9732V62.5738ZM61.8994 59.4107L61.5195 59.3917L61.5385 57.7912L61.8994 57.8101V59.4107ZM61.8994 56.2476L61.5195 56.2286L61.5385 54.6281L61.8994 54.647V56.2476ZM61.8994 53.0845L61.5195 53.0655L61.5385 51.465L61.8994 51.4839V53.0845ZM61.8994 49.9214L61.5195 49.9024L61.5385 48.3019L61.8994 48.3208V49.9214ZM61.8994 46.7582L61.5195 46.7393L61.5385 45.1388L61.8994 45.1577V46.7582ZM61.8994 43.5951L61.5195 43.5762L61.5385 41.9757L61.8994 41.9946V43.5951ZM61.8994 40.432L61.5195 40.4131L61.5385 38.8126L61.8994 38.8315V40.432ZM61.8994 37.2689L61.5195 37.25L61.5385 35.6495L61.8994 35.6684V37.2689ZM61.8994 34.1058L61.5195 34.0869L61.5385 32.4864L61.8994 32.5053V34.1058ZM61.8994 30.9427L61.5195 30.9238L61.5385 29.3233L61.8994 29.3422V30.9427ZM61.8994 27.7796L61.5195 27.7607L61.5385 26.1602L61.8994 26.1791V27.7796Z" fill="#130C49"/>
<path d="M61.0664 99.4648L61.7121 100.106L62.354 99.4648V100.011L61.7121 100.652L61.0664 100.011V99.4648Z" fill="#130C49"/>
<path d="M53.6884 82.9165L53.3086 82.8976L53.3276 81.297L53.6884 81.316V82.9165ZM53.6884 79.7534L53.3086 79.7345L53.3276 78.1339L53.6884 78.1529V79.7534ZM53.6884 76.5903L53.3086 76.5714L53.3276 74.9708L53.6884 74.9898V76.5903ZM53.6884 73.4272L53.3086 73.4082L53.3276 71.8077L53.6884 71.8267V73.4272ZM53.6884 70.2641L53.3086 70.2451L53.3276 68.6446L53.6884 68.6636V70.2641ZM53.6884 67.101L53.3086 67.082L53.3276 65.4815L53.6884 65.5005V67.101ZM53.6884 63.9379L53.3086 63.9189L53.3276 62.3184L53.6884 62.3374V63.9379ZM53.6884 60.7748L53.3086 60.7558L53.3276 59.1553L53.6884 59.1743V60.7748ZM53.6884 57.6117L53.3086 57.5927L53.3276 55.9922L53.6884 56.0112V57.6117ZM53.6884 54.4486L53.3086 54.4296L53.3276 52.8291L53.6884 52.8481V54.4486ZM53.6884 51.2855L53.3086 51.2665L53.3276 49.666L53.6884 49.685V51.2855Z" fill="#130C49"/>
<path d="M52.8555 82.3301L53.4974 82.9748L54.1431 82.3301V82.8762L53.4974 83.5172L52.8555 82.8762V82.3301Z" fill="#130C49"/>
<path d="M50.4666 48.0879H31.4375V48.8464H50.4666V48.0879Z" fill="#130C49"/>
<path d="M47.9502 51.5701L47.4336 51.0125L50.1759 48.4677L47.4336 45.9228L47.9502 45.3652L51.2926 48.4677L47.9502 51.5701Z" fill="#130C49"/>
<path d="M62.0105 65.8501H25.8477L30.9828 48.4151L31.3475 48.5213L26.3566 65.4708H61.4103L53.3277 48.5516L53.6696 48.3848L62.0105 65.8501Z" fill="#130C49"/>
<path d="M53.3953 48.3106L26 65.5039L26.2021 65.825L53.5974 48.6317L53.3953 48.3106Z" fill="#130C49"/>
<path d="M31.1641 50.387C30.1044 50.387 29.2422 49.5261 29.2422 48.4679C29.2422 47.4098 30.1044 46.5488 31.1641 46.5488C32.2238 46.5488 33.086 47.4098 33.086 48.4679C33.086 49.5261 32.2238 50.387 31.1641 50.387Z" fill="#61BD73"/>
<path d="M31.1665 46.7386C32.1198 46.7386 32.8985 47.5124 32.8985 48.4681C32.8985 49.4239 32.1236 50.1976 31.1665 50.1976C30.2093 50.1976 29.4345 49.4239 29.4345 48.4681C29.4345 47.5124 30.2093 46.7386 31.1665 46.7386ZM31.1665 46.3594C30.0004 46.3594 29.0547 47.3038 29.0547 48.4681C29.0547 49.6325 30.0004 50.5768 31.1665 50.5768C32.3325 50.5768 33.2783 49.6325 33.2783 48.4681C33.2783 47.3038 32.3325 46.3594 31.1665 46.3594Z" fill="#130C49"/>
<path d="M61.711 67.5784C60.6513 67.5784 59.7891 66.7175 59.7891 65.6593C59.7891 64.6012 60.6513 63.7402 61.711 63.7402C62.7707 63.7402 63.6329 64.6012 63.6329 65.6593C63.6329 66.7175 62.7707 67.5784 61.711 67.5784Z" fill="#61BD73"/>
<path d="M61.7095 63.9301C62.6628 63.9301 63.4414 64.7038 63.4414 65.6595C63.4414 66.6153 62.6666 67.389 61.7095 67.389C60.7523 67.389 59.9775 66.6153 59.9775 65.6595C59.9775 64.7038 60.7523 63.9301 61.7095 63.9301ZM61.7095 63.5508C60.5434 63.5508 59.5977 64.4952 59.5977 65.6595C59.5977 66.8239 60.5434 67.7682 61.7095 67.7682C62.8755 67.7682 63.8213 66.8239 63.8213 65.6595C63.8213 64.4952 62.8755 63.5508 61.7095 63.5508Z" fill="#130C49"/>
<path d="M26.1016 67.5784C25.0419 67.5784 24.1797 66.7175 24.1797 65.6593C24.1797 64.6012 25.0419 63.7402 26.1016 63.7402C27.1613 63.7402 28.0235 64.6012 28.0235 65.6593C28.0235 66.7175 27.1613 67.5784 26.1016 67.5784Z" fill="#61BD73"/>
<path d="M26.1001 63.9301C27.0534 63.9301 27.8321 64.7038 27.8321 65.6595C27.8321 66.6153 27.0572 67.389 26.1001 67.389C25.1429 67.389 24.3681 66.6153 24.3681 65.6595C24.3681 64.7038 25.1429 63.9301 26.1001 63.9301ZM26.1001 63.5508C24.934 63.5508 23.9883 64.4952 23.9883 65.6595C23.9883 66.8239 24.934 67.7682 26.1001 67.7682C27.2661 67.7682 28.2119 66.8239 28.2119 65.6595C28.2119 64.4952 27.2661 63.5508 26.1001 63.5508Z" fill="#130C49"/>
<path d="M53.5 50.387C52.4403 50.387 51.5781 49.5261 51.5781 48.4679C51.5781 47.4098 52.4403 46.5488 53.5 46.5488C54.5597 46.5488 55.4219 47.4098 55.4219 48.4679C55.4219 49.5261 54.5597 50.387 53.5 50.387Z" fill="#61BD73"/>
<path d="M53.4985 46.7386C54.4519 46.7386 55.2305 47.5124 55.2305 48.4681C55.2305 49.4239 54.4557 50.1976 53.4985 50.1976C52.5414 50.1976 51.7665 49.4239 51.7665 48.4681C51.7665 47.5124 52.5414 46.7386 53.4985 46.7386ZM53.4985 46.3594C52.3325 46.3594 51.3867 47.3038 51.3867 48.4681C51.3867 49.6325 52.3325 50.5768 53.4985 50.5768C54.6646 50.5768 55.6103 49.6325 55.6103 48.4681C55.6103 47.3038 54.6646 46.3594 53.4985 46.3594Z" fill="#130C49"/>
<path d="M33.9043 8.72594L33.5312 9.38672L61.5198 25.1409L61.8928 24.4802L33.9043 8.72594Z" fill="#130C49"/>
<path d="M34.3903 12.9944L35.1119 12.7669L33.9762 9.20174L37.6187 8.32942L37.4402 7.58984L33.0039 8.65559L34.3903 12.9944Z" fill="#130C49"/>
<path d="M31.1641 9.53937C30.1044 9.53937 29.2422 8.67843 29.2422 7.62027C29.2422 6.56211 30.1044 5.70117 31.1641 5.70117C32.2238 5.70117 33.086 6.56211 33.086 7.62027C33.086 8.67843 32.2238 9.53937 31.1641 9.53937Z" fill="#61BD73"/>
<path d="M31.1665 5.89099C32.1198 5.89099 32.8985 6.6647 32.8985 7.62045C32.8985 8.57621 32.1236 9.34992 31.1665 9.34992C30.2093 9.34992 29.4345 8.57621 29.4345 7.62045C29.4345 6.6647 30.2093 5.89099 31.1665 5.89099ZM31.1665 5.51172C30.0004 5.51172 29.0547 6.4561 29.0547 7.62045C29.0547 8.78481 30.0004 9.72919 31.1665 9.72919C32.3325 9.72919 33.2783 8.78481 33.2783 7.62045C33.2783 6.4561 32.3325 5.51172 31.1665 5.51172Z" fill="#130C49"/>
<path d="M61.7095 26.9225C62.8758 26.9225 63.8213 25.9784 63.8213 24.8138C63.8213 23.6492 62.8758 22.7051 61.7095 22.7051C60.5431 22.7051 59.5977 23.6492 59.5977 24.8138C59.5977 25.9784 60.5431 26.9225 61.7095 26.9225Z" fill="#130C49"/>
<path d="M31.3564 45.9463L30.9766 45.9273L30.9956 44.5051L31.3564 44.524V45.9463ZM31.3564 42.9614L30.9766 42.9425L30.9956 41.342L31.3564 41.3609V42.9614ZM31.3564 39.7983L30.9766 39.7794L30.9956 38.1789L31.3564 38.1978V39.7983ZM31.3564 36.6352L30.9766 36.6163L30.9956 35.0158L31.3564 35.0347V36.6352ZM31.3564 33.4721L30.9766 33.4532L30.9956 31.8527L31.3564 31.8716V33.4721ZM31.3564 30.309L30.9766 30.2901L30.9956 28.6896L31.3564 28.7085V30.309ZM31.3564 27.1459L30.9766 27.127L30.9956 25.5265L31.3564 25.5454V27.1459ZM31.3564 23.9828L30.9766 23.9639L30.9956 22.3633L31.3564 22.3823V23.9828ZM31.3564 20.8197L30.9766 20.8008L30.9956 19.2002L31.3564 19.2192V20.8197ZM31.3564 17.6566L30.9766 17.6377L30.9956 16.0371L31.3564 16.0561V17.6566ZM31.3564 14.4935L30.9766 14.4746L30.9956 12.874L31.3564 12.893V14.4935ZM31.3564 11.3304L30.9766 11.3115L30.9956 9.71094L31.3564 9.7299V11.3304Z" fill="#130C49"/>
<path d="M30.5195 45.1719L31.1652 45.8128L31.8071 45.1719V45.718L31.1652 46.359L30.5195 45.718V45.1719Z" fill="#130C49"/>
</g>
<defs>
<clipPath id="clip0_5367_872">
<rect width="89.2125" height="111.839" fill="white" transform="translate(0.984375 0.945312)"/>
</clipPath>
</defs>
</svg>
