<svg width="39" height="39" viewBox="0 0 39 39" fill="none" xmlns="http://www.w3.org/2000/svg">
<g id="icons new website-34 1">
<path id="Vector" d="M27.7288 33.3607L24.2989 29.1148H8.35518C7.32981 29.1148 6.49219 28.2772 6.49219 27.2518V11.0554C6.49219 10.03 7.32981 9.19238 8.35518 9.19238H30.6388C31.6642 9.19238 32.5018 10.03 32.5018 11.0554V27.2518C32.5018 28.2772 31.6642 29.1148 30.6388 29.1148H27.8805L27.7288 33.3607ZM8.35518 9.73395C7.62587 9.73395 7.03375 10.3261 7.03375 11.0554V27.2518C7.03375 27.9811 7.62587 28.5732 8.35518 28.5732H24.5588L27.2378 31.8948L27.3533 28.5732H30.6316C31.3609 28.5732 31.953 27.9811 31.953 27.2518V11.0554C31.953 10.3261 31.3609 9.73395 30.6316 9.73395H8.35518Z" fill="#130C49" stroke="#130C49" stroke-width="0.5"/>
<path id="Vector_2" d="M18.0363 22.1751V21.944C18.0363 21.4025 18.1302 20.9331 18.3107 20.5143C18.4912 20.0955 18.7295 19.7345 19.0111 19.4023C19.2927 19.0701 19.5888 18.7669 19.8993 18.478C20.3181 18.0592 20.7008 17.6548 21.0402 17.2577C21.3796 16.8605 21.5529 16.4056 21.5529 15.8785C21.5529 15.5536 21.4734 15.2575 21.3218 14.9903C21.1629 14.7232 20.9391 14.5065 20.6286 14.3332C20.3253 14.1672 19.9498 14.0805 19.5094 14.0805C18.9028 14.0805 18.3757 14.2682 17.928 14.6437C17.4803 15.0192 17.2131 15.5247 17.1048 16.1601L15.5234 15.7991C15.6318 15.142 15.87 14.5643 16.2311 14.0805C16.5921 13.5895 17.0615 13.2068 17.6319 12.9252C18.2024 12.6435 18.8306 12.5063 19.5238 12.5063C20.3037 12.5063 20.9752 12.6652 21.5384 12.9829C22.1089 13.3006 22.5494 13.7122 22.8599 14.2105C23.1704 14.7159 23.3292 15.2647 23.3292 15.8641C23.3292 16.3767 23.2209 16.8389 23.0043 17.236C22.7876 17.6404 22.5205 18.0087 22.1883 18.348C21.8562 18.6874 21.5312 19.0196 21.2135 19.3445C20.8163 19.7272 20.477 20.1244 20.1809 20.536C19.8849 20.9476 19.7404 21.4314 19.7404 21.9801V22.1751H18.0363ZM18.0507 26.0888V23.937H19.791V26.0888H18.0507Z" fill="#130C49"/>
</g>
</svg>
