<svg width="34" height="34" viewBox="0 0 34 34" fill="none" xmlns="http://www.w3.org/2000/svg">
<g id="icons new website-35 1">
<path id="Vector" d="M16.1672 24.2552C14.0394 24.2552 12.7426 24.1733 11.3388 23.3801C10.8226 23.0906 10.3442 22.7317 9.9098 22.3163C9.73353 22.1463 9.63281 21.9134 9.63281 21.6679V16.7451C9.63281 16.6129 9.73983 16.5059 9.87203 16.5059C10.0042 16.5059 10.1112 16.6129 10.1112 16.7451V21.6679C10.1112 21.7875 10.1553 21.8945 10.2434 21.9763C10.6463 22.3603 11.0933 22.694 11.578 22.971C12.9755 23.7641 14.2408 23.7956 16.954 23.783C19.6295 23.7704 20.8696 23.7327 22.2734 22.9458C22.7519 22.6814 23.1988 22.354 23.608 21.9763C23.6961 21.8945 23.7465 21.7812 23.7465 21.6679V16.7954C23.7465 16.6632 23.8535 16.5562 23.9857 16.5562C24.1179 16.5562 24.2249 16.6632 24.2249 16.7954V21.6679C24.2249 21.9134 24.1179 22.1526 23.9353 22.3226C23.501 22.7254 23.0226 23.0717 22.5126 23.3613C20.9452 24.2363 19.5351 24.2426 16.9666 24.2552C16.6897 24.2552 16.4316 24.2552 16.1797 24.2552H16.1672Z" fill="#130C49" stroke="#130C49" stroke-width="0.5"/>
<path id="Vector_2" d="M16.9514 19.641C16.9073 19.641 16.857 19.6347 16.8129 19.6158L3.97083 14.7812C3.81346 14.7245 3.71273 14.5734 3.71903 14.4098C3.71903 14.2398 3.82605 14.1013 3.98342 14.0446L16.7751 9.75765C16.857 9.73247 16.9451 9.73247 17.0206 9.75765L30.0075 14.0446C30.1649 14.095 30.2719 14.2398 30.2782 14.4098C30.2782 14.5797 30.1838 14.7245 30.0264 14.7812L17.0899 19.6158C17.0458 19.6347 17.0018 19.641 16.9514 19.641ZM4.35484 14.4223L16.9514 19.1626L29.6424 14.4223L16.8759 10.2046L4.35484 14.4161V14.4223Z" fill="#130C49" stroke="#130C49" stroke-width="0.5"/>
<path id="Vector_3" d="M28.2517 23.5188H26.1806C26.0484 23.5188 25.9414 23.4118 25.9414 23.2796V20.9001C25.9414 20.8623 25.954 20.8182 25.9729 20.7868L26.9801 19.0052V15.5996C26.9801 15.4674 27.0871 15.3604 27.2193 15.3604C27.3515 15.3604 27.4585 15.4674 27.4585 15.5996V18.9989L28.4595 20.7364C28.4783 20.7742 28.4909 20.8119 28.4909 20.856V23.2796C28.4909 23.4118 28.3839 23.5188 28.2517 23.5188ZM26.4135 23.0467H28.0125V20.919L27.213 19.5403L26.4072 20.963V23.0404L26.4135 23.0467Z" fill="#130C49" stroke="#130C49" stroke-width="0.5"/>
</g>
</svg>
