<svg width="38" height="38" viewBox="0 0 38 38" fill="none" xmlns="http://www.w3.org/2000/svg">
<g id="icons new website-25 1">
<path id="Vector" d="M18.9174 22.3035C17.848 22.3035 16.7715 21.9165 15.878 21.1918C14.8297 20.3405 14.2035 19.1514 14.1472 17.9132C14.0628 15.8517 14.0557 13.6003 14.1261 10.8211C14.1894 8.44306 16.0469 6.50823 18.5375 6.23384C20.81 5.98759 23.0193 7.49324 23.6736 9.74467C23.8213 10.2724 23.8495 10.8071 23.8565 11.2996C23.8565 11.968 23.8565 12.6293 23.8565 13.2977V14.2898V15.1622C23.8565 15.8869 23.8565 16.6115 23.8495 17.3433C23.8073 19.9395 22.189 21.818 19.628 22.2542C19.3888 22.2964 19.1496 22.3105 18.9104 22.3105L18.9174 22.3035ZM19.037 6.72634C18.8893 6.72634 18.7415 6.73338 18.6008 6.75448C16.3353 7.00777 14.7171 8.68228 14.6608 10.8282C14.5905 13.6003 14.5975 15.8376 14.6819 17.885C14.7241 18.9685 15.287 20.0168 16.2157 20.7697C17.1937 21.5647 18.4038 21.9095 19.5506 21.7125C21.8443 21.3185 23.2937 19.6369 23.3288 17.3151C23.3429 16.5904 23.3359 15.8728 23.3359 15.1481V14.2757V13.2766C23.3359 12.6153 23.3359 11.9469 23.3359 11.2855C23.3359 10.8282 23.3077 10.3427 23.174 9.87835C22.6323 8.01388 20.9015 6.72634 19.037 6.72634Z" fill="#130C49" stroke="#130C49" stroke-width="0.5"/>
<path id="Vector_2" d="M18.975 27.2003C13.5434 27.2003 9.125 23.0844 9.125 18.0257C9.125 17.7443 9.13907 17.4699 9.16721 17.1885C9.18129 17.0407 9.30793 16.9352 9.45568 16.9492C9.60343 16.9633 9.70897 17.09 9.69489 17.2377C9.66675 17.498 9.65972 17.7584 9.65972 18.0257C9.65972 22.7959 13.8389 26.6726 18.9821 26.6726C24.1252 26.6726 28.3044 22.7959 28.3044 18.0257C28.3044 17.7372 28.2903 17.4417 28.2552 17.1462C28.2411 16.9985 28.3466 16.8718 28.4873 16.8578C28.6421 16.8507 28.7617 16.9492 28.7758 17.09C28.811 17.4066 28.8251 17.7232 28.8251 18.0257C28.8251 23.0844 24.4066 27.2003 18.975 27.2003Z" fill="#130C49" stroke="#130C49" stroke-width="0.5"/>
<path id="Vector_3" d="M18.9744 31.8507C18.8266 31.8507 18.707 31.7311 18.707 31.5833V26.9397C18.707 26.792 18.8266 26.6724 18.9744 26.6724C19.1221 26.6724 19.2417 26.792 19.2417 26.9397V31.5833C19.2417 31.7311 19.1221 31.8507 18.9744 31.8507Z" fill="#130C49" stroke="#130C49" stroke-width="0.5"/>
</g>
</svg>
