<svg width="38" height="38" viewBox="0 0 38 38" fill="none" xmlns="http://www.w3.org/2000/svg">
<g id="icons new website-32 1">
<path id="Vector" d="M18.9973 32.1462C18.6877 32.1462 18.3711 32.0688 18.0967 31.9069L8.26776 26.2291C7.71194 25.9055 7.36719 25.3074 7.36719 24.6672V13.3185C7.36719 12.6783 7.71194 12.0802 8.26776 11.7566L18.0967 6.0858C18.6525 5.7692 19.342 5.76216 19.8978 6.0858L29.7267 11.7566C30.2826 12.0802 30.6273 12.6783 30.6273 13.3185V24.6672C30.6273 25.3074 30.2826 25.9055 29.7267 26.2291L19.8978 31.9069C19.6234 32.0688 19.3068 32.1462 18.9973 32.1462ZM18.9973 6.37427C18.7791 6.37427 18.554 6.43056 18.357 6.54313L8.52808 12.2139C8.13408 12.4391 7.88783 12.8612 7.88783 13.3185V24.6672C7.88783 25.1175 8.13408 25.5466 8.52808 25.7718L18.357 31.4496C18.751 31.6748 19.2365 31.6748 19.6305 31.4496L29.4594 25.7718C29.8534 25.5466 30.0996 25.1245 30.0996 24.6672V13.3185C30.0996 12.8683 29.8534 12.4391 29.4594 12.2139L19.6305 6.54313C19.4335 6.43056 19.2154 6.37427 18.9902 6.37427H18.9973Z" fill="#130C49" stroke="#130C49" stroke-width="0.5"/>
<path id="Vector_2" d="M21.2421 16.0347V18.7997L18.9977 17.5051L16.7533 18.7997V16.0347L14.0938 17.5755V20.5024L16.6196 21.9588L18.9977 20.5868L21.3828 21.9588L23.9086 20.5024V17.5825L21.2421 16.0347Z" fill="#130C49"/>
</g>
</svg>
