<svg width="38" height="38" viewBox="0 0 38 38" fill="none" xmlns="http://www.w3.org/2000/svg">
<g id="icons new website-24 1">
<path id="Vector" d="M29.5281 31.7874H9.89844V7.73926H29.5352V31.7874H29.5281ZM10.602 31.0838H28.8316V8.44283H10.602V31.0838Z" fill="#130C49" stroke="#130C49" stroke-width="0.5"/>
<path id="Vector_2" d="M22.1274 14.6484H16.2385C16.0415 14.6484 15.8867 14.4936 15.8867 14.2966C15.8867 14.0996 16.0415 13.9448 16.2385 13.9448H22.1274C22.3244 13.9448 22.4792 14.0996 22.4792 14.2966C22.4792 14.4936 22.3244 14.6484 22.1274 14.6484Z" fill="#130C49" stroke="#130C49" stroke-width="0.5"/>
<path id="Vector_3" d="M22.1274 18.2719H16.2385C16.0415 18.2719 15.8867 18.1171 15.8867 17.9201C15.8867 17.7231 16.0415 17.5684 16.2385 17.5684H22.1274C22.3244 17.5684 22.4792 17.7231 22.4792 17.9201C22.4792 18.1171 22.3244 18.2719 22.1274 18.2719Z" fill="#130C49" stroke="#130C49" stroke-width="0.5"/>
<path id="Vector_4" d="M22.1274 21.895H16.2385C16.0415 21.895 15.8867 21.7402 15.8867 21.5432C15.8867 21.3462 16.0415 21.1914 16.2385 21.1914H22.1274C22.3244 21.1914 22.4792 21.3462 22.4792 21.5432C22.4792 21.7402 22.3244 21.895 22.1274 21.895Z" fill="#130C49" stroke="#130C49" stroke-width="0.5"/>
<path id="Vector_5" d="M22.1274 25.5185H16.2385C16.0415 25.5185 15.8867 25.3637 15.8867 25.1667C15.8867 24.9697 16.0415 24.8149 16.2385 24.8149H22.1274C22.3244 24.8149 22.4792 24.9697 22.4792 25.1667C22.4792 25.3637 22.3244 25.5185 22.1274 25.5185Z" fill="#130C49" stroke="#130C49" stroke-width="0.5"/>
<path id="Vector_6" d="M13.7261 14.7607C13.9825 14.7607 14.1904 14.5528 14.1904 14.2964C14.1904 14.0399 13.9825 13.832 13.7261 13.832C13.4696 13.832 13.2617 14.0399 13.2617 14.2964C13.2617 14.5528 13.4696 14.7607 13.7261 14.7607Z" fill="#130C49" stroke="#130C49" stroke-width="0.5"/>
<path id="Vector_7" d="M13.7261 18.3843C13.9825 18.3843 14.1904 18.1764 14.1904 17.9199C14.1904 17.6635 13.9825 17.4556 13.7261 17.4556C13.4696 17.4556 13.2617 17.6635 13.2617 17.9199C13.2617 18.1764 13.4696 18.3843 13.7261 18.3843Z" fill="#130C49" stroke="#130C49" stroke-width="0.5"/>
<path id="Vector_8" d="M13.7261 22.0078C13.9825 22.0078 14.1904 21.7999 14.1904 21.5435C14.1904 21.287 13.9825 21.0791 13.7261 21.0791C13.4696 21.0791 13.2617 21.287 13.2617 21.5435C13.2617 21.7999 13.4696 22.0078 13.7261 22.0078Z" fill="#130C49" stroke="#130C49" stroke-width="0.5"/>
<path id="Vector_9" d="M13.7261 25.6314C13.9825 25.6314 14.1904 25.4235 14.1904 25.167C14.1904 24.9105 13.9825 24.7026 13.7261 24.7026C13.4696 24.7026 13.2617 24.9105 13.2617 25.167C13.2617 25.4235 13.4696 25.6314 13.7261 25.6314Z" fill="#130C49" stroke="#130C49" stroke-width="0.5"/>
<path id="Vector_10" d="M13.9018 10.7859C13.7048 10.7859 13.55 10.6311 13.55 10.4341C13.55 10.2371 13.7048 10.0823 13.9018 10.0823C14.4154 10.0823 14.8305 9.66724 14.8305 9.15363V7.38766C14.8305 6.87405 14.4154 6.45894 13.9018 6.45894C13.3882 6.45894 12.9731 6.87405 12.9731 7.38766V7.90127C12.9731 8.09827 12.8113 8.25306 12.6213 8.25306C12.4243 8.25306 12.2695 8.09123 12.2695 7.90127V7.38766C12.2695 6.48709 13.0012 5.75537 13.9089 5.75537C14.8165 5.75537 15.5411 6.48709 15.5411 7.38766V9.15363C15.5411 10.0542 14.8094 10.7859 13.9089 10.7859H13.9018Z" fill="#130C49" stroke="#130C49" stroke-width="0.5"/>
<path id="Vector_11" d="M19.6596 10.7859C19.4626 10.7859 19.3078 10.6311 19.3078 10.4341C19.3078 10.2371 19.4626 10.0823 19.6596 10.0823C20.1732 10.0823 20.5884 9.66724 20.5884 9.15363V7.38766C20.5884 6.87405 20.1732 6.45894 19.6596 6.45894C19.146 6.45894 18.7309 6.87405 18.7309 7.38766V7.90127C18.7309 8.09827 18.5691 8.25306 18.3791 8.25306C18.1821 8.25306 18.0273 8.09123 18.0273 7.90127V7.38766C18.0273 6.48709 18.7591 5.75537 19.6667 5.75537C20.5743 5.75537 21.299 6.48709 21.299 7.38766V9.15363C21.299 10.0542 20.5672 10.7859 19.6667 10.7859H19.6596Z" fill="#130C49" stroke="#130C49" stroke-width="0.5"/>
<path id="Vector_12" d="M25.4214 10.7859C25.2244 10.7859 25.0696 10.6311 25.0696 10.4341C25.0696 10.2371 25.2244 10.0823 25.4214 10.0823C25.935 10.0823 26.3501 9.66724 26.3501 9.15363V7.38766C26.3501 6.87405 25.935 6.45894 25.4214 6.45894C24.9077 6.45894 24.4926 6.87405 24.4926 7.38766V7.90127C24.4926 8.09827 24.3308 8.25306 24.1408 8.25306C23.9438 8.25306 23.7891 8.09123 23.7891 7.90127V7.38766C23.7891 6.48709 24.5208 5.75537 25.4284 5.75537C26.336 5.75537 27.0607 6.48709 27.0607 7.38766V9.15363C27.0607 10.0542 26.329 10.7859 25.4284 10.7859H25.4214Z" fill="#130C49" stroke="#130C49" stroke-width="0.5"/>
</g>
</svg>
