<svg width="37" height="37" viewBox="0 0 37 37" fill="none" xmlns="http://www.w3.org/2000/svg">
<g id="icons new website-23 1">
<path id="Vector" d="M30.4236 25.2443H6.57676C6.16573 25.2443 5.84375 25.0046 5.84375 24.6894V9.72775C5.84375 9.41947 6.16573 9.17285 6.57676 9.17285H30.4168C30.8278 9.17285 31.1498 9.41262 31.1498 9.72775V24.6894C31.1498 24.9977 30.8278 25.2443 30.4168 25.2443H30.4236ZM6.36439 24.6894C6.36439 24.6894 6.45345 24.7305 6.57676 24.7305H30.4168C30.5538 24.7305 30.6292 24.6826 30.6429 24.662V9.72775C30.6429 9.72775 30.5538 9.68665 30.4168 9.68665H6.57676C6.43975 9.68665 6.36439 9.7346 6.35069 9.75515V24.6894H6.35754H6.36439Z" fill="#130C49" stroke="#130C49" stroke-width="0.5"/>
<path id="Vector_2" d="M16.0871 22.2164C15.9981 22.2164 15.9021 22.1959 15.8268 22.1479C15.6487 22.052 15.5391 21.8671 15.5391 21.6615V12.4749C15.5391 12.2694 15.6487 12.0844 15.8336 11.9885C16.0118 11.8926 16.2241 11.8995 16.3954 12.0091L23.3624 16.599C23.52 16.7017 23.609 16.8798 23.609 17.058C23.609 17.2361 23.5131 17.4142 23.3624 17.5169L16.3954 22.1137C16.3063 22.1753 16.1967 22.2027 16.0871 22.2027V22.2164ZM16.1145 12.4475L16.0529 12.4818V21.6684L16.094 21.7095C16.094 21.7095 16.1077 21.7095 16.1145 21.7095L23.0816 17.1128L23.2254 16.8319L23.0816 17.0443L16.1145 12.4544V12.4475Z" fill="#130C49" stroke="#130C49" stroke-width="0.5"/>
<path id="Vector_3" d="M30.8463 28.9025H6.14313C5.99927 28.9025 5.88281 28.786 5.88281 28.6422C5.88281 28.4983 5.99927 28.3818 6.14313 28.3818H30.8463C30.9902 28.3818 31.1067 28.4983 31.1067 28.6422C31.1067 28.786 30.9902 28.9025 30.8463 28.9025Z" fill="#130C49" stroke="#130C49" stroke-width="0.5"/>
<path id="Vector_4" d="M18.4947 29.9715C18.3508 29.9715 18.2344 29.855 18.2344 29.7112V27.5738C18.2344 27.4299 18.3508 27.3135 18.4947 27.3135C18.6386 27.3135 18.755 27.4299 18.755 27.5738V29.7112C18.755 29.855 18.6386 29.9715 18.4947 29.9715Z" fill="#130C49" stroke="#130C49" stroke-width="0.5"/>
</g>
</svg>
