<svg width="38" height="38" viewBox="0 0 38 38" fill="none" xmlns="http://www.w3.org/2000/svg">
<g id="icons new website-27 1">
<path id="Vector" d="M13.1209 31.4147C12.9521 31.4147 12.7903 31.3725 12.6496 31.2951C12.3329 31.1262 12.1289 30.7885 12.1289 30.4227V7.85203C12.1289 7.48617 12.3329 7.14846 12.6496 6.9796C12.9662 6.8037 13.3531 6.82481 13.6627 7.02181L30.7806 18.2931C31.0621 18.483 31.2239 18.7926 31.2239 19.1233C31.2239 19.454 31.055 19.7635 30.7806 19.9535L13.6627 31.2529C13.5009 31.3584 13.3109 31.4147 13.1139 31.4147H13.1209ZM13.1209 7.38767C13.0436 7.38767 12.9732 7.40878 12.9028 7.44396C12.7481 7.52839 12.6566 7.68317 12.6566 7.85203V30.4227C12.6566 30.5915 12.7481 30.7533 12.9028 30.8307C13.0506 30.9152 13.2406 30.9011 13.3813 30.8096L30.4992 19.5173C30.6329 19.4328 30.7103 19.2851 30.7103 19.1303C30.7103 18.9755 30.6329 18.8278 30.4992 18.7433L13.3813 7.46506C13.3039 7.41581 13.2124 7.38767 13.1209 7.38767Z" fill="#130C49" stroke="#130C49"/>
</g>
</svg>
