<svg width="37" height="37" viewBox="0 0 37 37" fill="none" xmlns="http://www.w3.org/2000/svg">
<g id="icons new website-28 1">
<path id="Vector" d="M16.8453 30.8205C16.4754 30.8205 16.1671 30.5191 16.1603 30.1492L16.1397 28.7654C15.0368 28.5187 13.9955 28.1009 13.0227 27.5254L12.0842 28.5119C11.8238 28.7859 11.3923 28.7928 11.1114 28.5324L8.48076 26.0183C8.20673 25.758 8.19988 25.3195 8.4602 25.0455L9.42614 24.0316C8.83014 23.0931 8.38485 22.0723 8.10397 20.9968H6.74756C6.37078 20.9968 6.0625 20.6817 6.0625 20.3049V16.6672C6.06935 16.4823 6.14471 16.311 6.27487 16.1808C6.40503 16.0507 6.57629 15.9822 6.76126 15.9822H8.00806C8.24784 14.8655 8.66572 13.8037 9.25487 12.8104L8.35745 11.8787C8.09712 11.6047 8.10397 11.1731 8.37115 10.9059L10.9881 8.37803C11.2621 8.11771 11.6937 8.12456 11.9609 8.39173L12.7487 9.20695L12.7761 9.19325C13.7968 8.5493 14.9135 8.08346 16.0849 7.81628L16.0644 6.58318C16.0644 6.39821 16.126 6.22695 16.2562 6.09679C16.3863 5.96662 16.5576 5.89127 16.7357 5.89127L20.3734 5.82961C20.5378 5.81591 20.7296 5.89812 20.8598 6.02143C20.9899 6.15159 21.0653 6.32286 21.0653 6.50097L21.0858 7.86424C22.2093 8.14511 23.2712 8.6041 24.2439 9.2275L25.1277 8.31638C25.388 8.0492 25.8264 8.0355 26.0936 8.29582L28.7105 10.8237C28.8407 10.9539 28.916 11.1251 28.9229 11.3032C28.9229 11.4882 28.8544 11.6595 28.7311 11.7896L27.7309 12.8309C28.3406 13.8585 28.7653 14.9683 28.9983 16.1397H30.2382C30.4232 16.1397 30.5944 16.2082 30.7246 16.3384C30.8548 16.4686 30.9233 16.6398 30.9233 16.8248V20.4625C30.9301 20.8392 30.6218 21.1475 30.2451 21.1475H28.8201C28.5393 22.1614 28.1145 23.1273 27.5528 24.0179L28.4776 24.9838C28.7379 25.2579 28.7311 25.6895 28.4571 25.9498L25.8264 28.4639C25.5524 28.7243 25.1208 28.7174 24.8605 28.4434L23.9631 27.5049C23.0793 28.0255 22.134 28.4228 21.1475 28.6763L21.168 30.0464C21.168 30.2314 21.0995 30.4027 20.9762 30.5328C20.8529 30.663 20.6748 30.7383 20.4967 30.7452L16.859 30.8068H16.8453V30.8205ZM12.9131 26.8883L13.1117 26.9774C14.1393 27.6145 15.256 28.0598 16.4411 28.2995L16.6398 28.3406V28.5393L16.6741 30.1355C16.6741 30.2314 16.7837 30.3067 16.8453 30.3067L20.483 30.2451C20.5309 30.2451 20.572 30.2245 20.6063 30.1903C20.6405 30.156 20.6542 30.1149 20.6542 30.067L20.6268 28.3201L20.8255 28.231C21.901 27.9775 22.9286 27.5528 23.8672 26.9705L24.0453 26.8609L25.2304 28.1009C25.2989 28.1694 25.4017 28.1694 25.4702 28.1009L28.1008 25.5867C28.1693 25.525 28.1693 25.4154 28.1008 25.3469L26.8951 24.0864L27.0047 23.9152C27.6281 22.9629 28.0871 21.9285 28.368 20.8392L28.416 20.6474H30.2382C30.3341 20.6474 30.4095 20.5652 30.4095 20.4693V16.8316C30.4026 16.7837 30.3821 16.7426 30.3478 16.7083C30.3136 16.6741 30.2725 16.6604 30.2245 16.6604H28.5598L28.5187 16.4549C28.2926 15.2081 27.8474 14.0229 27.176 12.9405L27.0732 12.7693L28.3543 11.4471C28.3543 11.4471 28.4023 11.3717 28.4023 11.3238C28.4023 11.2758 28.3817 11.2347 28.3474 11.2005L25.7374 8.67261C25.6689 8.6041 25.5593 8.61095 25.4976 8.67261L24.3193 9.89201L24.1412 9.77555C23.1136 9.09049 21.9833 8.59725 20.7776 8.32323L20.5789 8.27527L20.5515 6.50782C20.5515 6.45987 20.5309 6.41876 20.4967 6.38451C20.4624 6.35026 20.4213 6.33656 20.3802 6.33656L16.7426 6.39821C16.6946 6.39821 16.6535 6.41876 16.6192 6.45302C16.585 6.48727 16.5713 6.52837 16.5713 6.57633L16.5987 8.23417L16.3932 8.27527C15.2012 8.52189 14.0777 8.97403 13.0432 9.62484L12.6665 9.87146L11.5841 8.74796C11.5156 8.67946 11.406 8.67946 11.3443 8.74796L8.72738 11.2758C8.65887 11.3443 8.65887 11.4471 8.72738 11.5156L9.89883 12.7282L9.79607 12.8994C9.15211 13.9476 8.69997 15.0779 8.46705 16.2768L8.42595 16.4823H6.76126C6.71331 16.4823 6.6722 16.496 6.63795 16.5302C6.6037 16.5645 6.58999 16.6056 6.58999 16.6467V20.2843C6.58314 20.3803 6.6585 20.4556 6.75441 20.4556H8.49446L8.55611 20.6543C8.83014 21.812 9.30968 22.9013 9.96733 23.8946L10.0838 24.0659L8.83699 25.3675C8.76848 25.436 8.77533 25.5456 8.83699 25.6141L11.4608 28.1283C11.5293 28.1968 11.6389 28.1899 11.7074 28.1283L12.9131 26.8678V26.8883Z" fill="#130C49" stroke="#130C49" stroke-width="0.5"/>
<path id="Vector_2" d="M13.5282 13.7012L13.1445 13.3586C14.5009 11.8378 16.4465 10.9678 18.488 10.9678C19.8718 10.9678 21.2077 11.3583 22.3654 12.105L22.0845 12.5366C21.0159 11.8446 19.769 11.4816 18.488 11.4816C16.5972 11.4816 14.7887 12.2899 13.5282 13.7012Z" fill="#130C49" stroke="#130C49" stroke-width="0.5"/>
<path id="Vector_3" d="M16.8458 25.1005C13.5986 24.34 11.3242 21.4696 11.3242 18.1266C11.3242 17.9553 11.3242 17.7909 11.3448 17.6265L11.8586 17.6607C11.8449 17.8114 11.8449 17.969 11.8449 18.1266C11.8449 21.2299 13.9548 23.8947 16.9691 24.6004L16.8526 25.1005H16.8458Z" fill="#130C49" stroke="#130C49" stroke-width="0.5"/>
<path id="Vector_4" d="M21.5434 24.6072L21.3242 24.1414C23.6397 23.0453 25.1331 20.6887 25.1331 18.1266C25.1331 17.4552 25.0304 16.7907 24.8386 16.1605L25.3318 16.0098C25.5442 16.6948 25.6469 17.4073 25.6469 18.1266C25.6469 20.8874 24.0371 23.4289 21.5434 24.6072Z" fill="#130C49" stroke="#130C49" stroke-width="0.5"/>
<path id="Vector_5" d="M11.6674 17.8524C10.8042 17.8524 10.1055 17.1536 10.1055 16.2904C10.1055 15.4273 10.8042 14.7285 11.6674 14.7285C12.5306 14.7285 13.2293 15.4273 13.2293 16.2904C13.2293 17.1536 12.5306 17.8524 11.6674 17.8524ZM11.6674 15.2423C11.092 15.2423 10.6193 15.715 10.6193 16.2904C10.6193 16.8659 11.092 17.3386 11.6674 17.3386C12.2429 17.3386 12.7155 16.8659 12.7155 16.2904C12.7155 15.715 12.2429 15.2423 11.6674 15.2423Z" fill="#130C49" stroke="#130C49" stroke-width="0.5"/>
<path id="Vector_6" d="M23.2494 14.6605C22.3863 14.6605 21.6875 13.9617 21.6875 13.0986C21.6875 12.2354 22.3863 11.5366 23.2494 11.5366C24.1126 11.5366 24.8114 12.2354 24.8114 13.0986C24.8114 13.9617 24.1126 14.6605 23.2494 14.6605ZM23.2494 12.0573C22.674 12.0573 22.2013 12.53 22.2013 13.1054C22.2013 13.6809 22.674 14.1535 23.2494 14.1535C23.8249 14.1535 24.2976 13.6809 24.2976 13.1054C24.2976 12.53 23.8249 12.0573 23.2494 12.0573Z" fill="#130C49" stroke="#130C49" stroke-width="0.5"/>
<path id="Vector_7" d="M20.2846 26.327C19.4214 26.327 18.7227 25.6282 18.7227 24.7651C18.7227 23.9019 19.4214 23.2031 20.2846 23.2031C21.1478 23.2031 21.8465 23.9019 21.8465 24.7651C21.8465 25.6282 21.1478 26.327 20.2846 26.327ZM20.2846 23.7169C19.7091 23.7169 19.2365 24.1896 19.2365 24.7651C19.2365 25.3405 19.7091 25.8132 20.2846 25.8132C20.86 25.8132 21.3327 25.3405 21.3327 24.7651C21.3327 24.1896 20.86 23.7169 20.2846 23.7169Z" fill="#130C49" stroke="#130C49" stroke-width="0.5"/>
</g>
</svg>
