<svg width="38" height="38" viewBox="0 0 38 38" fill="none" xmlns="http://www.w3.org/2000/svg">
<g id="icons new website-37 1">
<path id="Vector" d="M26.0103 9.8291H19.6992V10.3005H26.0103V9.8291Z" fill="#130C49" stroke="#130C49" stroke-width="0.5"/>
<path id="Vector_2" d="M26.0103 12.8403H19.6992V13.3117H26.0103V12.8403Z" fill="#130C49" stroke="#130C49" stroke-width="0.5"/>
<path id="Vector_3" d="M18.2368 24.6743H11.9258V25.1457H18.2368V24.6743Z" fill="#130C49" stroke="#130C49" stroke-width="0.5"/>
<path id="Vector_4" d="M18.2368 27.6855H11.9258V28.1569H18.2368V27.6855Z" fill="#130C49" stroke="#130C49" stroke-width="0.5"/>
<path id="Vector_5" d="M26.1732 15.7739H11.8203V16.2453H26.1732V15.7739Z" fill="#130C49" stroke="#130C49" stroke-width="0.5"/>
<path id="Vector_6" d="M26.1732 18.7573H11.8203V19.2287H26.1732V18.7573Z" fill="#130C49" stroke="#130C49" stroke-width="0.5"/>
<path id="Vector_7" d="M26.1732 21.7402H11.8203V22.2116H26.1732V21.7402Z" fill="#130C49" stroke="#130C49" stroke-width="0.5"/>
<path id="Vector_8" d="M12.082 13.4876V12.2352C12.082 11.595 12.2298 11.0673 12.5182 10.6452C12.8067 10.223 13.2359 9.94862 13.8058 9.81494V10.4763C13.5033 10.5537 13.2711 10.7014 13.1233 10.9125C12.9685 11.1236 12.8771 11.3909 12.8489 11.7146H13.5103V13.4876H12.082ZM14.5445 13.4876V12.2352C14.5445 11.595 14.6923 11.0673 14.9878 10.6452C15.2833 10.223 15.7125 9.94862 16.2824 9.81494V10.4763C15.9658 10.5537 15.7336 10.7014 15.5858 10.9125C15.4381 11.1236 15.3466 11.3909 15.3044 11.7146H15.9798V13.4876H14.5375H14.5445Z" fill="#130C49"/>
<path id="Vector_9" d="M21.6133 28.368V27.7066C21.9158 27.6292 22.148 27.4815 22.2957 27.2704C22.4435 27.0593 22.542 26.792 22.5701 26.4683H21.9088V24.6953H23.337V25.9477C23.337 26.5879 23.1893 27.1156 22.9008 27.5377C22.6124 27.9599 22.1832 28.2343 21.6133 28.3609V28.368ZM24.0758 28.368V27.7066C24.3783 27.6292 24.6105 27.4815 24.7723 27.2704C24.9271 27.0593 25.0186 26.792 25.0397 26.4683H24.3783V24.6953H25.8207V25.9477C25.8207 26.5879 25.6729 27.1156 25.3844 27.5377C25.096 27.9599 24.6598 28.2343 24.0828 28.3609L24.0758 28.368Z" fill="#130C49"/>
<path id="Vector_10" d="M29.6289 31.7521L8.61328 31.7451V6.24756H29.3828V31.7521H29.6289ZM9.09171 31.2737H28.9184V6.71895H9.09171V31.2737Z" fill="#130C49" stroke="#130C49" stroke-width="0.5"/>
</g>
</svg>
