<svg width="38" height="38" viewBox="0 0 38 38" fill="none" xmlns="http://www.w3.org/2000/svg">
<g id="icons new website-38 1">
<path id="Vector" d="M29.4313 31.8013H8.57031V6.19824H29.4313V31.7942V31.8013ZM9.09799 31.2736H28.9036V6.72592H9.09799V31.2666V31.2736Z" fill="#130C49" stroke="#130C49" stroke-width="0.5"/>
<path id="Vector_2" d="M26.1865 21.1704H11.8125V21.6981H26.1865V21.1704Z" fill="#130C49" stroke="#130C49" stroke-width="0.5"/>
<path id="Vector_3" d="M26.1865 24.1606H11.8125V24.6883H26.1865V24.1606Z" fill="#130C49" stroke="#130C49" stroke-width="0.5"/>
<path id="Vector_4" d="M26.1865 27.1509H11.8125V27.6786H26.1865V27.1509Z" fill="#130C49" stroke="#130C49" stroke-width="0.5"/>
<path id="Vector_5" d="M15.8231 19.2144L16.4352 15.6825L13.8672 13.1848L17.4132 12.6712L18.9962 9.46289L20.5793 12.6712L24.1253 13.1848L21.5643 15.6825L22.1694 19.2144L18.9962 17.547L15.8231 19.2144ZM19 17L21.4658 18.2505L20.9944 15.4996L22.9925 13.5507L20.2345 13.1496L18.9962 10.6449L17.765 13.1496L15.007 13.5507L17.0051 15.4996L16.5337 18.2505L19 17Z" fill="#130C49" stroke="#130C49" stroke-width="0.5"/>
</g>
</svg>
