<svg width="39" height="39" viewBox="0 0 39 39" fill="none" xmlns="http://www.w3.org/2000/svg">
<g id="icons new website-29 1">
<path id="Vector" d="M24.7549 32.7393H9.60547V6.53467H30.9648V26.551L27.8238 29.6054L24.7477 32.7465L24.7549 32.7393ZM10.2842 32.0677H24.4733L27.3616 29.1216L30.3005 26.2694V7.21343H10.2842V32.0677Z" fill="#130C49" stroke="#130C49" stroke-width="0.5"/>
<path id="Vector_2" d="M24.9489 32.4003H24.2773V26.1831H30.6245V26.8546H24.9561L24.9489 32.4003Z" fill="#130C49" stroke="#130C49" stroke-width="0.5"/>
<path id="Vector_3" d="M26.7956 17.7852H14.2891V18.4639H26.7956V17.7852Z" fill="#130C49" stroke="#130C49" stroke-width="0.5"/>
<path id="Vector_4" d="M24.5355 22.1177H14.2891V22.7964H24.5355V22.1177Z" fill="#130C49" stroke="#130C49" stroke-width="0.5"/>
<path id="Vector_5" d="M21.1561 26.4502H14.2891V27.129H21.1561V26.4502Z" fill="#130C49" stroke="#130C49" stroke-width="0.5"/>
<path id="Vector_6" d="M14.5664 15.0268V10.9976H15.8878C16.2922 10.9976 16.6532 11.077 16.9493 11.2431C17.2454 11.4091 17.4836 11.6402 17.6497 11.9435C17.8158 12.2468 17.8952 12.6006 17.8952 13.005C17.8952 13.4093 17.8158 13.7632 17.6497 14.0664C17.4836 14.3697 17.2526 14.608 16.9493 14.7741C16.646 14.9402 16.2922 15.0268 15.8878 15.0268H14.5664ZM15.1008 14.543H15.895C16.1911 14.543 16.4511 14.478 16.6677 14.3553C16.8843 14.2325 17.0576 14.052 17.1731 13.8209C17.2959 13.5899 17.3537 13.3227 17.3537 13.0122C17.3537 12.7017 17.2959 12.4345 17.1731 12.2034C17.0504 11.9724 16.8843 11.7991 16.6677 11.6763C16.4511 11.5536 16.1911 11.4886 15.895 11.4886H15.1008V14.543Z" fill="#130C49"/>
<path id="Vector_7" d="M20.4921 15.0915C20.2033 15.0915 19.9361 15.0409 19.6906 14.9398C19.4451 14.8387 19.2285 14.6943 19.0407 14.5066C18.853 14.3188 18.7086 14.1022 18.6003 13.8422C18.492 13.5895 18.4414 13.3151 18.4414 13.0118C18.4414 12.7086 18.492 12.4342 18.6003 12.1814C18.7086 11.9287 18.853 11.7049 19.0407 11.5243C19.2285 11.3366 19.4451 11.1922 19.6906 11.0911C19.9361 10.99 20.2033 10.9395 20.4921 10.9395C20.781 10.9395 21.0481 10.99 21.2937 11.0911C21.5392 11.1922 21.7558 11.3366 21.9435 11.5243C22.1313 11.7121 22.2757 11.9287 22.384 12.1814C22.4923 12.4342 22.5429 12.7086 22.5429 13.0118C22.5429 13.3151 22.4923 13.5895 22.384 13.8422C22.2757 14.095 22.1313 14.3188 21.9435 14.5066C21.7558 14.6943 21.5392 14.8387 21.2937 14.9398C21.0481 15.0409 20.781 15.0915 20.4921 15.0915ZM20.4921 14.6004C20.7088 14.6004 20.9109 14.5571 21.0987 14.4777C21.2792 14.3983 21.4453 14.2827 21.5753 14.1383C21.7125 13.9939 21.8136 13.8206 21.893 13.6328C21.9652 13.4379 22.0085 13.2357 22.0085 13.0118C22.0085 12.788 21.9724 12.5858 21.893 12.3981C21.8136 12.2103 21.7125 12.037 21.5753 11.8926C21.4381 11.7482 21.2792 11.6327 21.0987 11.5532C20.9182 11.4738 20.716 11.4305 20.4921 11.4305C20.2683 11.4305 20.0733 11.4738 19.8856 11.5532C19.7051 11.6327 19.5462 11.7482 19.409 11.8926C19.2718 12.037 19.1707 12.2103 19.0913 12.3981C19.0119 12.5858 18.9758 12.7952 18.9758 13.0118C18.9758 13.2285 19.0119 13.4379 19.0913 13.6328C19.1635 13.8278 19.2718 13.9939 19.409 14.1383C19.5462 14.2827 19.7051 14.3983 19.8856 14.4777C20.0661 14.5571 20.2683 14.6004 20.4921 14.6004Z" fill="#130C49"/>
<path id="Vector_8" d="M25.1738 15.0917C24.8922 15.0917 24.625 15.0411 24.3868 14.94C24.1485 14.8389 23.9391 14.6945 23.7585 14.5068C23.5852 14.319 23.4408 14.1024 23.347 13.8497C23.2459 13.5969 23.1953 13.3226 23.1953 13.0265C23.1953 12.7304 23.2459 12.4488 23.347 12.1961C23.448 11.9434 23.5852 11.7267 23.7585 11.539C23.9318 11.3512 24.1412 11.2068 24.3795 11.1057C24.6178 11.0046 24.885 10.9541 25.1738 10.9541C25.4627 10.9541 25.701 11.0046 25.9248 11.0985C26.1487 11.1924 26.3364 11.3224 26.488 11.474C26.6397 11.6256 26.748 11.7917 26.813 11.9722L26.3292 12.1961C26.2353 11.9722 26.0909 11.7845 25.8887 11.6473C25.6937 11.5101 25.4555 11.4379 25.1738 11.4379C24.8922 11.4379 24.6467 11.5029 24.4229 11.6401C24.2062 11.7701 24.0329 11.9578 23.9102 12.1961C23.7874 12.4344 23.7297 12.7088 23.7297 13.0265C23.7297 13.3442 23.7874 13.6186 23.9102 13.8497C24.0329 14.0807 24.2062 14.2757 24.4229 14.4057C24.6395 14.5357 24.8922 14.6079 25.1738 14.6079C25.4555 14.6079 25.6865 14.5357 25.8887 14.3985C26.0837 14.2613 26.2353 14.0807 26.3292 13.8569L26.813 14.0807C26.748 14.2613 26.6397 14.4201 26.488 14.579C26.3364 14.7306 26.1487 14.8606 25.9248 14.9545C25.701 15.0483 25.4555 15.0989 25.1738 15.0989V15.0917Z" fill="#130C49"/>
</g>
</svg>
