<svg width="37" height="37" viewBox="0 0 37 37" fill="none" xmlns="http://www.w3.org/2000/svg">
<g id="icons new website-30 1">
<path id="Vector" d="M21.9757 25.6967H15.1114V23.4702C13.111 22.2714 11.8711 20.1066 11.8711 17.7705C11.8711 14.1055 14.8511 11.1323 18.5093 11.1323C22.1675 11.1323 25.1475 14.1123 25.1475 17.7705C25.1475 20.0792 23.935 22.2371 21.9689 23.436V25.4995L21.9757 25.6967ZM15.6252 25.1829H21.4619V23.1414L21.5921 23.066C23.476 21.9768 24.6406 19.9422 24.6406 17.7705C24.6406 14.3932 21.8935 11.6461 18.5162 11.6461C15.1388 11.6461 12.3917 14.3932 12.3917 17.7705C12.3917 19.9696 13.5837 22.0179 15.5019 23.1003L15.6321 23.1757V25.1829H15.6252Z" fill="#130C49" stroke="#130C49" stroke-width="0.5"/>
<path id="Vector_2" d="M18.5162 31.1154C16.6185 31.1154 15.0772 29.6631 15.0703 27.8819V27.6216H21.9551V27.8819C21.9551 29.6631 20.4069 31.1154 18.5093 31.1154H18.5162ZM15.5978 28.1422C15.7417 29.526 16.9953 30.6084 18.5162 30.6084C20.037 30.6084 21.2906 29.526 21.4345 28.1422H15.6047H15.5978Z" fill="#130C49" stroke="#130C49" stroke-width="0.5"/>
<path id="Vector_3" d="M9.8913 18.1061H6.83594V15.0508H9.8913V18.1061ZM7.34973 17.5923H9.3775V15.5646H7.34973V17.5923Z" fill="#130C49" stroke="#130C49" stroke-width="0.5"/>
<path id="Vector_4" d="M20.0397 9.22089H16.9844V6.16553H20.0397V9.22089ZM17.505 8.70709H19.5328V6.67932H17.505V8.70709Z" fill="#130C49" stroke="#130C49" stroke-width="0.5"/>
<path id="Vector_5" d="M30.2116 18.1061H27.1562V15.0508H30.2116V18.1061ZM27.67 17.5923H29.6978V15.5646H27.67V17.5923Z" fill="#130C49" stroke="#130C49" stroke-width="0.5"/>
<path id="Vector_6" d="M25.7165 12.0229L23.5586 9.86496L25.7165 7.70703L27.8745 9.86496L25.7165 12.0229ZM24.2848 9.86496L25.7165 11.2967L27.1483 9.86496L25.7165 8.43319L24.2848 9.86496Z" fill="#130C49" stroke="#130C49" stroke-width="0.5"/>
<path id="Vector_7" d="M11.365 12.0229L9.20703 9.86496L11.365 7.70703L13.5229 9.86496L11.365 12.0229ZM9.93319 9.86496L11.365 11.2967L12.7967 9.86496L11.365 8.43319L9.93319 9.86496Z" fill="#130C49" stroke="#130C49" stroke-width="0.5"/>
</g>
</svg>
