<svg width="37" height="37" viewBox="0 0 37 37" fill="none" xmlns="http://www.w3.org/2000/svg">
<g id="icons new website-22 1">
<path id="Vector" d="M18.4954 30.9644C11.6243 30.9644 6.02734 25.3744 6.02734 18.4964C6.02734 14.1531 8.23323 10.1935 11.9188 7.89851C12.0764 7.80261 12.2888 7.85056 12.3915 8.00812C12.4943 8.16569 12.4395 8.37806 12.2819 8.48081C8.79498 10.6524 6.7124 14.3929 6.7124 18.4964C6.7124 24.9907 11.9942 30.2794 18.4954 30.2794C24.9966 30.2794 30.2784 24.9976 30.2784 18.4964C30.2784 11.9952 25.1816 6.90518 18.8379 6.72021V11.7211C18.8379 11.913 18.6872 12.0637 18.4954 12.0637C18.3036 12.0637 18.1529 11.913 18.1529 11.7211V6.37769C18.1529 6.18587 18.3036 6.03516 18.4954 6.03516C25.3665 6.03516 30.9635 11.6252 30.9635 18.5032C30.9635 25.3812 25.3734 30.9713 18.4954 30.9713V30.9644Z" fill="#130C49" stroke="#130C49" stroke-miterlimit="10"/>
<path id="Vector_2" d="M18.4971 18.8391C18.4423 18.8391 18.3806 18.8254 18.3258 18.7911L12.3658 15.3795C12.2014 15.2836 12.1466 15.0781 12.2425 14.9137C12.3384 14.7493 12.5439 14.6944 12.7083 14.7904L18.6684 18.2019C18.8328 18.2979 18.8876 18.5034 18.7917 18.6678C18.73 18.7774 18.6135 18.8391 18.4971 18.8391Z" fill="#130C49" stroke="#130C49" stroke-miterlimit="10"/>
</g>
</svg>
