<svg width="45" height="45" viewBox="0 0 45 45" fill="none" xmlns="http://www.w3.org/2000/svg">
<g id="icons new website-31 1">
<path id="Vector" d="M22.4948 37.4512C15.5211 37.4512 9.85547 31.7772 9.85547 24.8119C9.85547 19.4212 13.2798 14.6138 18.3789 12.8558C18.5955 12.7808 18.8371 12.8974 18.9121 13.114C18.9871 13.3307 18.8705 13.5723 18.6538 13.6473C13.8964 15.2886 10.697 19.7711 10.697 24.8119C10.697 31.319 15.996 36.618 22.5031 36.618C29.0103 36.618 34.3093 31.319 34.3093 24.8119C34.3093 19.8628 31.1849 15.4053 26.544 13.7139C26.3274 13.6389 26.2191 13.3973 26.2941 13.1807C26.3691 12.9641 26.6107 12.8558 26.8273 12.9307C31.8014 14.7387 35.1425 19.5129 35.1425 24.8119C35.1425 31.7856 29.4685 37.4512 22.5031 37.4512H22.4948Z" fill="#130C49" stroke="#130C49"/>
<path id="Vector_2" d="M22.4947 22.5208C22.2614 22.5208 22.0781 22.3375 22.0781 22.1042V7.64022C22.0781 7.40693 22.2614 7.22363 22.4947 7.22363C22.728 7.22363 22.9113 7.40693 22.9113 7.64022V22.1042C22.9113 22.3375 22.728 22.5208 22.4947 22.5208Z" fill="#130C49" stroke="#130C49"/>
</g>
</svg>
