<svg width="38" height="38" viewBox="0 0 38 38" fill="none" xmlns="http://www.w3.org/2000/svg">
<g id="icons new website-33 1">
<path id="Vector" d="M27.368 32.118L24.0119 27.8192H8.36445C7.35834 27.8192 6.53516 26.996 6.53516 25.9899V10.1032C6.53516 9.09711 7.35834 8.27393 8.36445 8.27393H30.2245C31.2306 8.27393 32.0538 9.09711 32.0538 10.1032V25.9899C32.0538 26.996 31.2306 27.8192 30.2245 27.8192H27.5157L27.368 31.9843V32.118ZM8.36445 8.80864C7.6468 8.80864 7.06284 9.39261 7.06284 10.1103V25.9969C7.06284 26.7146 7.6468 27.2985 8.36445 27.2985H24.2582L26.8895 30.5561L27.0021 27.2985H30.2174C30.9351 27.2985 31.519 26.7146 31.519 25.9969V10.1032C31.519 9.38557 30.9351 8.80161 30.2174 8.80161H8.36445V8.80864Z" fill="#130C49" stroke="#130C49" stroke-width="0.5"/>
<path id="Vector_2" d="M15.0338 23.3093C13.507 23.3093 12.2617 22.064 12.2617 20.5372C12.2617 19.0105 13.507 17.7651 15.0338 17.7651C16.5606 17.7651 17.8059 19.0105 17.8059 20.5372C17.8059 22.064 16.5606 23.3093 15.0338 23.3093ZM15.0338 18.2858C13.7955 18.2858 12.7894 19.2919 12.7894 20.5302C12.7894 21.7685 13.7955 22.7746 15.0338 22.7746C16.2721 22.7746 17.2782 21.7685 17.2782 20.5302C17.2782 19.2919 16.2721 18.2858 15.0338 18.2858Z" fill="#130C49" stroke="#130C49" stroke-width="0.5"/>
<path id="Vector_3" d="M22.6393 23.3093C21.1125 23.3093 19.8672 22.064 19.8672 20.5372C19.8672 19.0105 21.1125 17.7651 22.6393 17.7651C24.166 17.7651 25.4113 19.0105 25.4113 20.5372C25.4113 22.064 24.166 23.3093 22.6393 23.3093ZM22.6393 18.2858C21.401 18.2858 20.3949 19.2919 20.3949 20.5302C20.3949 21.7685 21.401 22.7746 22.6393 22.7746C23.8776 22.7746 24.8837 21.7685 24.8837 20.5302C24.8837 19.2919 23.8776 18.2858 22.6393 18.2858Z" fill="#130C49" stroke="#130C49" stroke-width="0.5"/>
</g>
</svg>
