<svg width="37" height="37" viewBox="0 0 37 37" fill="none" xmlns="http://www.w3.org/2000/svg">
<g id="icons new website-36 1">
<path id="Vector" d="M26.8218 30.9644H10.1201C8.87326 30.9644 7.85938 29.9505 7.85938 28.7037V7.33677C7.85938 6.61746 8.44167 6.03516 9.16099 6.03516H27.8357C28.555 6.03516 29.1373 6.61746 29.1373 7.33677V28.6489C29.1373 29.9231 28.096 30.9644 26.8218 30.9644ZM9.16099 6.54895C8.7294 6.54895 8.37317 6.90518 8.37317 7.33677V28.7037C8.37317 29.6697 9.15414 30.4506 10.1201 30.4506H26.8218C27.8151 30.4506 28.6235 29.6423 28.6235 28.6489V7.33677C28.6235 6.90518 28.2673 6.54895 27.8357 6.54895H9.16099Z" fill="#130C49" stroke="#130C49" stroke-width="0.5"/>
<path id="Vector_2" d="M27.593 30.9099H9.39096C8.54834 30.9099 7.86328 30.2248 7.86328 29.3822V28.6903C7.86328 27.8477 8.54834 27.1626 9.39096 27.1626H27.5998C28.4424 27.1626 29.1275 27.8477 29.1275 28.6903V29.3822C29.1275 30.2248 28.4424 30.9099 27.5998 30.9099H27.593ZM9.39096 27.6695C8.82921 27.6695 8.37708 28.1285 8.37708 28.6834V29.3753C8.37708 29.9371 8.83606 30.3892 9.39096 30.3892H27.5998C28.1616 30.3892 28.6137 29.9302 28.6137 29.3753V28.6834C28.6137 28.1217 28.1547 27.6695 27.5998 27.6695H9.39096Z" fill="#130C49" stroke="#130C49" stroke-width="0.5"/>
<path id="Vector_3" d="M10.5416 13.7699C10.5005 13.7699 10.4662 13.7631 10.4251 13.7425C10.3361 13.7014 10.2812 13.6123 10.2812 13.5096V6.31647C10.2812 6.17261 10.3977 6.05615 10.5416 6.05615H15.5082C15.6521 6.05615 15.7686 6.17261 15.7686 6.31647V13.5096C15.7686 13.6055 15.7138 13.6946 15.6247 13.7425C15.5356 13.7836 15.4329 13.7768 15.3507 13.7151L13.0626 11.9066L10.6991 13.7151C10.6512 13.7494 10.5964 13.7699 10.5416 13.7699ZM10.795 6.5768V12.9958L12.905 11.3791C12.9941 11.3037 13.1242 11.3106 13.2201 11.3791L15.2479 12.9821V6.56995H10.795V6.5768Z" fill="#130C49" stroke="#130C49" stroke-width="0.5"/>
</g>
</svg>
