<svg width="38" height="38" viewBox="0 0 38 38" fill="none" xmlns="http://www.w3.org/2000/svg">
<g id="icons new website-26 1">
<path id="Vector" d="M29.9164 31.8158H6.88845C6.7407 31.8158 6.62109 31.6962 6.62109 31.5484V8.11941C6.62109 7.97166 6.7407 7.85205 6.88845 7.85205H16.3656C16.5133 7.85205 16.6329 7.97166 16.6329 8.11941C16.6329 8.26716 16.5133 8.38677 16.3656 8.38677H7.15581V31.2881H29.6561V21.9517C29.6561 21.8039 29.7757 21.6843 29.9234 21.6843C30.0712 21.6843 30.1908 21.8039 30.1908 21.9517V31.5484C30.1908 31.6962 30.0712 31.8158 29.9234 31.8158H29.9164Z" fill="#130C49" stroke="#130C49" stroke-width="0.5"/>
<path id="Vector_2" d="M14.2897 24.3154C14.1138 24.3154 13.9449 24.245 13.8253 24.1184C13.6987 23.9847 13.6283 23.8018 13.6424 23.6188L14.0364 18.5039C14.0505 18.3491 14.1138 18.2084 14.2264 18.0958L25.9549 6.36721C26.2082 6.11392 26.6163 6.11392 26.8696 6.36721L31.7383 11.2359C31.8579 11.3555 31.9283 11.5244 31.9283 11.6933C31.9283 11.8621 31.8579 12.031 31.7383 12.1506L20.0168 23.8721C19.9042 23.9847 19.7494 24.055 19.5876 24.0621L14.3178 24.3083C14.3178 24.3083 14.2967 24.3083 14.2897 24.3083V24.3154ZM26.4123 6.70493C26.4123 6.70493 26.3489 6.719 26.3278 6.7401L14.5993 18.4687C14.5993 18.4687 14.5641 18.5179 14.5641 18.5461L14.1701 23.654C14.1701 23.7033 14.1912 23.7314 14.2053 23.7455C14.2193 23.7595 14.2615 23.8018 14.2967 23.7807L19.5665 23.5344C19.5665 23.5344 19.6228 23.5203 19.6439 23.4992L31.3654 11.7777C31.4147 11.7284 31.4147 11.6581 31.3654 11.6088L26.4967 6.7401C26.4967 6.7401 26.4404 6.70493 26.4123 6.70493Z" fill="#130C49" stroke="#130C49" stroke-width="0.5"/>
<path id="Vector_3" d="M22.2107 10.5248L21.8477 10.9077L27.5716 16.3338L27.9346 15.9509L22.2107 10.5248Z" fill="#130C49" stroke="#130C49" stroke-width="0.5"/>
</g>
</svg>
