<svg width="142" height="41" viewBox="0 0 142 41" fill="none" xmlns="http://www.w3.org/2000/svg">
<path d="M61.8001 0.0302734V31.8151H78.4064V39.5846H52.7075V0.0302734H61.8001Z" fill="#ECF4F8"/>
<path d="M19.9296 0.0302734V14.0483C20.0167 14.0331 20.1833 14.0788 20.2476 14.0396C20.2835 14.0168 20.5971 13.4206 20.6788 13.3032C22.7195 10.3855 26.2454 9.30313 29.6865 10.1527C31.9939 10.7228 34.1456 12.1011 36.5892 12.2023C36.6055 12.2773 36.5326 12.261 36.4803 12.2828C35.1431 12.8441 33.8179 13.1422 32.5046 13.858C29.6135 15.4353 28.0193 18.0679 27.2788 21.2195C28.1881 21.561 29.069 21.9951 29.9086 22.4814C35.0941 25.4827 38.7203 30.7936 39.5751 36.742C39.7112 37.6874 39.7504 38.6327 39.8016 39.5857H19.9285V23.2853H19.6018C18.7721 28.3775 15.7307 33.0107 11.5285 35.9566C8.19089 38.2976 4.10957 39.627 0.00210516 39.5846V19.8074H15.6283L15.5967 19.3668C6.66094 17.474 -0.137278 9.20739 0.00210516 0.0302734H19.9296ZM28.0171 13.5545C28.0171 12.7658 27.3768 12.1272 26.5863 12.1272C25.7957 12.1272 25.1554 12.7658 25.1554 13.5545C25.1554 14.3431 25.7957 14.9817 26.5863 14.9817C27.3768 14.9817 28.0171 14.3431 28.0171 13.5545Z" fill="#ECF4F8"/>
<path d="M124.685 2.80176V10.5168H129.912V16.8198H124.685L124.683 29.5629C124.829 31.05 124.832 32.9712 126.538 33.5249C127.471 33.8273 128.634 33.7588 129.585 33.5542V39.966C128.297 40.1488 126.998 40.3076 125.69 40.2946C123.74 40.2739 121.278 39.9922 119.566 39.0164C116.493 37.2649 116.092 33.526 115.971 30.3244L115.973 16.8198H111.618V10.5168H115.973V2.80176H124.685Z" fill="#ECF4F8"/>
<path d="M142 10.5156H133.343V39.5841H142V10.5156Z" fill="#ECF4F8"/>
<path d="M142 0.0302734H133.343V7.14809H142V0.0302734Z" fill="#ECF4F8"/>
<path d="M94.4023 9.55568C104.707 9.0618 111.807 16.4189 110.965 26.6817C110.143 36.7052 101.499 41.8323 91.9522 40.2222C84.8011 39.0169 80.2352 33.7386 79.6592 26.573C78.898 17.1141 84.861 10.0137 94.4023 9.55568ZM94.4023 16.4015C90.8142 16.7268 88.9848 20.0556 88.6429 23.3137C88.179 27.7272 89.2897 33.2937 94.6593 33.6625C100.557 34.0683 102.238 28.7595 101.872 23.8566C101.546 19.4834 99.2371 15.9631 94.4023 16.4015Z" fill="#ECF4F8"/>
</svg>
