<svg width="142" height="41" viewBox="0 0 142 41" fill="none" xmlns="http://www.w3.org/2000/svg">
<path d="M61.8001 0V31.7849H78.4064V39.5543H52.7075V0H61.8001Z" fill="#1C1D1D"/>
<path d="M19.9296 0V14.0181C20.0167 14.0028 20.1833 14.0485 20.2476 14.0094C20.2835 13.9865 20.5971 13.3904 20.6788 13.2729C22.7195 10.3553 26.2454 9.27285 29.6865 10.1225C31.9939 10.6925 34.1456 12.0708 36.5892 12.172C36.6055 12.247 36.5326 12.2307 36.4803 12.2525C35.1431 12.8138 33.8179 13.1119 32.5046 13.8277C29.6135 15.4051 28.0193 18.0377 27.2788 21.1892C28.1881 21.5308 29.069 21.9648 29.9086 22.4511C35.0941 25.4525 38.7203 30.7634 39.5751 36.7117C39.7112 37.6571 39.7504 38.6024 39.8016 39.5554H19.9285V23.255H19.6018C18.7721 28.3473 15.7307 32.9804 11.5285 35.9263C8.19089 38.2674 4.10957 39.5967 0.00210516 39.5543V19.7772H15.6283L15.5967 19.3366C6.66094 17.4437 -0.137278 9.17712 0.00210516 0H19.9296ZM28.0171 13.5242C28.0171 12.7355 27.3768 12.0969 26.5863 12.0969C25.7957 12.0969 25.1554 12.7355 25.1554 13.5242C25.1554 14.3129 25.7957 14.9514 26.5863 14.9514C27.3768 14.9514 28.0171 14.3129 28.0171 13.5242Z" fill="#1C1D1D"/>
<path d="M124.685 2.77148V10.4865H129.912V16.7895H124.685L124.683 29.5326C124.829 31.0197 124.832 32.9409 126.538 33.4946C127.471 33.797 128.634 33.7285 129.585 33.524V39.9358C128.297 40.1185 126.998 40.2774 125.69 40.2643C123.74 40.2436 121.278 39.9619 119.566 38.9861C116.493 37.2346 116.092 33.4957 115.971 30.2941L115.973 16.7895H111.618V10.4865H115.973V2.77148H124.685Z" fill="#1C1D1D"/>
<path d="M142 10.4854H133.343V39.5538H142V10.4854Z" fill="#1C1D1D"/>
<path d="M142 0H133.343V7.11782H142V0Z" fill="#1C1D1D"/>
<path d="M94.4023 9.52541C104.707 9.03153 111.807 16.3887 110.965 26.6515C110.143 36.6749 101.499 41.802 91.9522 40.192C84.8011 38.9866 80.2352 33.7084 79.6592 26.5427C78.898 17.0838 84.861 9.9834 94.4023 9.52541ZM94.4023 16.3713C90.8142 16.6965 88.9848 20.0254 88.6429 23.2835C88.179 27.6969 89.2897 33.2634 94.6593 33.6322C100.557 34.038 102.238 28.7293 101.872 23.8263C101.546 19.4531 99.2371 15.9329 94.4023 16.3713Z" fill="#1C1D1D"/>
</svg>
