<svg version="1.1" id="Layer_1" xmlns:x="ns_extend;" xmlns:i="ns_ai;" xmlns:graph="ns_graphs;" xmlns="http://www.w3.org/2000/svg" xmlns:xlink="http://www.w3.org/1999/xlink" x="0px" y="0px" viewBox="0 0 140 50" style="enable-background:new 0 0 140 50;" xml:space="preserve">
 <style type="text/css">
  .st0{fill-rule:evenodd;clip-rule:evenodd;fill:#222222;}
 </style>
 <metadata>
  <sfw xmlns="ns_sfw;">
   <slices>
   </slices>
   <sliceSourceBounds bottomLeftOrigin="true" height="50" width="140" x="94.8" y="-213">
   </sliceSourceBounds>
  </sfw>
 </metadata>
 <g>
  <path class="st0" d="M36.1,37.9c0-0.1-0.1-0.2-0.2-0.2c-0.1,0-0.2,0-0.3,0.1c-3.4,2.8-7.7,4.1-12.1,3.8c-0.1,0-0.2,0-0.2,0.1
		l-6.6,6.6c-0.1,0.1-0.1,0.2-0.1,0.3c0,0.1,0.1,0.2,0.2,0.2c2.6,0.9,5.4,1.4,8.2,1.4c4.6,0,9.1-1.3,13.1-3.7
		c0.1-0.1,0.2-0.2,0.1-0.3L36.1,37.9z M9.8,31.8l-9-2.4c-0.1,0-0.2,0-0.3,0.1c-0.1,0.1-0.1,0.2-0.1,0.3c1.2,7.1,6.4,14.1,12.9,17.4
		c0,0,0.1,0,0.1,0c0.1,0,0.2,0,0.2-0.1l6-6c0.1-0.1,0.1-0.2,0.1-0.3s-0.1-0.2-0.2-0.2c-4.1-1.4-7.8-4.7-9.5-8.7
		C10,31.9,9.9,31.8,9.8,31.8z M49.9,23.5l-8.2-2c-0.1,0-0.2,0-0.3,0.1s-0.1,0.2-0.1,0.3c0.9,4.4-0.2,9.3-2.8,12.9
		c-0.1,0.1-0.1,0.2,0,0.2l2.4,9c0,0.1,0.1,0.2,0.2,0.2c0,0,0.1,0,0.1,0c0.1,0,0.1,0,0.2-0.1c5.9-4.9,9.2-12.7,8.8-20.3
		C50.1,23.6,50,23.5,49.9,23.5z M25.1,21.1L20,16.5c-0.1-0.1-0.3-0.1-0.4,0l-4.3,3.9c-0.1,0.1-0.1,0.1-0.1,0.2v5.7
		c0,0.1,0,0.2,0.1,0.2l9.7,8.7c0.1,0,0.1,0.1,0.2,0.1c0.1,0,0.1,0,0.2-0.1l9.7-8.7c0.1-0.1,0.1-0.1,0.1-0.2v-5.7
		c0-0.1,0-0.2-0.1-0.2l-4.3-3.9c-0.1-0.1-0.3-0.1-0.4,0L25.1,21.1z M9.1,6.2C9.1,6.1,9,6,8.9,6C8.8,6,8.7,6,8.7,6.1
		C3,10.9-0.3,18.3,0,25.8c0,0.1,0.1,0.2,0.2,0.3l8.1,2.2c0,0,0,0,0.1,0v0c0.1,0,0.2,0,0.2-0.1c0.1-0.1,0.1-0.1,0.1-0.2
		c-0.8-4.3,0.3-9,2.9-12.6c0.1-0.1,0.1-0.2,0-0.2L9.1,6.2z M49.6,19.9C48.3,12.9,43.3,6.3,37,3c-0.1-0.1-0.2,0-0.3,0.1L30.8,9
		c-0.1,0.1-0.1,0.2-0.1,0.3c0,0.1,0.1,0.2,0.2,0.2c3.9,1.4,7.4,4.6,9.2,8.3c0,0.1,0.1,0.1,0.2,0.2l9,2.2c0,0,0,0,0.1,0v0
		c0.1,0,0.2,0,0.2-0.1C49.6,20,49.6,19.9,49.6,19.9z M33.6,1.6c0-0.1-0.1-0.2-0.2-0.2c-7.2-2.5-15.3-1.6-21.7,2.3
		c-0.1,0.1-0.2,0.2-0.1,0.3l2.3,8.1c0,0.1,0.1,0.2,0.2,0.2c0,0,0.1,0,0.1,0c0.1,0,0.1,0,0.2-0.1c3.5-2.9,8-4.2,12.4-3.8
		c0.1,0,0.2,0,0.2-0.1l6.5-6.5C33.6,1.8,33.7,1.7,33.6,1.6z M84.5,15.9c0,0.3,0.3,0.8,0.6,0.8h9.6v25.5c0,0.3,0.3,0.7,0.5,0.7h5.3
		c0.3,0,0.5-0.3,0.5-0.7V16.6h9.5c0.3,0,0.6-0.4,0.6-0.8v-4.6c0-0.3-0.3-0.8-0.6-0.8H85.1c-0.3,0-0.6,0.4-0.6,0.8V15.9z M123,23.2
		h0.4l9-12.3c0.2-0.3,0.6-0.5,0.9-0.5h6.2c0.1,0,0.2,0,0.3,0.1c0.1,0.1,0.1,0.2,0.1,0.3c0,0.2,0,0.3-0.2,0.5l-11.2,15.3l11.2,15.1
		c0.2,0.2,0.2,0.3,0.2,0.5c0,0.1,0,0.2-0.1,0.3c-0.1,0.1-0.2,0.1-0.3,0.1h-6.2c-0.4,0-0.7-0.2-0.9-0.5l-9-12.2H123v12
		c0,0.3-0.3,0.8-0.5,0.8h-5.3c-0.3,0-0.5-0.3-0.5-0.7V11.1c0-0.3,0.3-0.6,0.5-0.6h5.3c0.3,0,0.5,0.3,0.5,0.6L123,23.2z M83.9,36.6
		H71.2l0-25.5c0-0.3-0.3-0.6-0.5-0.6h-5.3c-0.3,0-0.5,0.3-0.5,0.6v30.9c0,0.3,0.3,0.7,0.5,0.7h18.6c0.3,0,0.6-0.4,0.6-0.8v-4.6
		C84.5,37,84.2,36.6,83.9,36.6z">
  </path>
 </g>
</svg>