<svg id="Laag_1" data-name="Laag 1" xmlns="http://www.w3.org/2000/svg" xmlns:xlink="http://www.w3.org/1999/xlink" viewBox="0 0 251.21 49.29">
  <defs>
    <style>
      .cls-1 {
        fill: #44113c;
      }

      .cls-2 {
        fill: url(#Nieuwe_verloopstaal_3);
      }
    </style>
    <linearGradient id="Nieuwe_verloopstaal_3" data-name="Nieuwe verloopstaal 3" x1="44.83" y1="-42.65" x2="183.19" y2="95.7" gradientUnits="userSpaceOnUse">
      <stop offset="0" stop-color="#ef7d00"/>
      <stop offset="0.03" stop-color="#e3800d"/>
      <stop offset="0.36" stop-color="#73978c"/>
      <stop offset="0.5" stop-color="#46a1bf"/>
      <stop offset="0.58" stop-color="#469dbb"/>
      <stop offset="0.66" stop-color="#4690af"/>
      <stop offset="0.75" stop-color="#457a9c"/>
      <stop offset="0.84" stop-color="#455c80"/>
      <stop offset="0.93" stop-color="#45355d"/>
      <stop offset="1" stop-color="#44113c"/>
    </linearGradient>
  </defs>
  <g>
    <circle class="cls-1" cx="246.42" cy="42.98" r="4.79"/>
    <path class="cls-2" d="M28.31,46C26.08,43.73,25,40.17,25,35.43V17.5H23.61V12.15h6l4.54,2.69V33.61a12,12,0,0,0,.58,4.16,4.12,4.12,0,0,0,2.12,2.43,6.22,6.22,0,0,0,2.64.5,8.85,8.85,0,0,0,6.87-3.07,12.83,12.83,0,0,0,2.88-7.28V17.5H47.73V12.14h6.18l4.54,2.68,0,33.58H49.26V43.07l-.72.91C39.24,53.29,30.18,47.92,28.31,46Zm195.41,2.66h0a20.71,20.71,0,0,1-11.19-3.21,32,32,0,0,1-3.91-3.31l4.42-6.1s2.15,2,3.19,2.72a13.57,13.57,0,0,0,7.5,2.59,6.1,6.1,0,0,0,3.35-.83A2.87,2.87,0,0,0,228.36,38a1.92,1.92,0,0,0-.44-1.18,4.92,4.92,0,0,0-1.2-1,26.76,26.76,0,0,0-4.19-2s-7-2.42-10-5.43a9.44,9.44,0,0,1-3-6.89,9.25,9.25,0,0,1,4.24-8,17.55,17.55,0,0,1,9.82-2.57,23.05,23.05,0,0,1,6.14.82c4.19,1.2,6.23,4.51,6.23,6.84L236,23h-8V20.08a1.74,1.74,0,0,0-.5-.77,4.33,4.33,0,0,0-1-.63,7.2,7.2,0,0,0-2.82-.53,8.29,8.29,0,0,0-2.89.47,3.45,3.45,0,0,0-1.78,1.3,2.37,2.37,0,0,0-.35,1.26,2.15,2.15,0,0,0,.44,1.31,4.16,4.16,0,0,0,1.22,1.1,41.34,41.34,0,0,0,5.2,2.28c3.1,1.15,6.61,2.46,9.09,4.76a9.13,9.13,0,0,1,3,6.94,9.91,9.91,0,0,1-4,8.13,16.26,16.26,0,0,1-9.88,3ZM99.86,48.43H90.59V27A14.83,14.83,0,0,0,90.2,23a3.91,3.91,0,0,0-1.79-2.49A5,5,0,0,0,86,20a7.38,7.38,0,0,0-5.42,2.37,12.3,12.3,0,0,0-3,5.75A17.83,17.83,0,0,0,77,32.56V48.41h-9.2V17.5H66.43V12.15h6L77,14.82v3.07l.72-1A14.6,14.6,0,0,1,81,13.77a12.5,12.5,0,0,1,7.11-2.27,12,12,0,0,1,6.78,1.9,10.09,10.09,0,0,1,3.46,4.52l.3.73.41-.66a14.24,14.24,0,0,1,11.85-6.49c3.82,0,6.76,1.13,8.74,3.34s3.1,5.8,3.1,10.43l.06,23.11-9.33,0V26.85A13.22,13.22,0,0,0,113,23a3.9,3.9,0,0,0-1.84-2.44,5,5,0,0,0-2.42-.52,7.57,7.57,0,0,0-5.42,2.36A11.65,11.65,0,0,0,100.43,28v0a20.83,20.83,0,0,0-.56,4.52V48.43Zm-93.61,0a6,6,0,0,1-3.09-.65A3.43,3.43,0,0,1,1.57,45.7a7.51,7.51,0,0,1-.27-2.23l0-38.11H0V0H5.93l5,2.68,0,36.29a1.3,1.3,0,0,0,.35,1,1.38,1.38,0,0,0,1,.35h5.81v8.14Zm196.28,0h-9.21l0-30.9H192V12.15h6l4.53,2.67,0,33.59Zm-61.21,0h-9.21V17.5h-1.33V12.15h6l4.55,2.7Zm9.28,0V17.5h-1.34V12.15h6l4.55,2.67v3l.73-.94a14.06,14.06,0,0,1,3.22-3A14.39,14.39,0,0,1,172,11.46c4.08,0,7.22,1.11,9.32,3.3s3.32,5.82,3.32,10.47l0,23.15-9.26,0V27.05a11.62,11.62,0,0,0-.58-4.15,4.12,4.12,0,0,0-2.15-2.44,6.44,6.44,0,0,0-2.68-.5,9.67,9.67,0,0,0-6,2,10.11,10.11,0,0,0-3.41,5.13v0a14.84,14.84,0,0,0-.68,4.68V48.38Z"/>
  </g>
</svg>
