<svg width="144" height="46" viewBox="0 0 144 46" fill="none" xmlns="http://www.w3.org/2000/svg">
<path d="M61.448 18.7535L66.6543 27.3935L66.8176 27.276L71.9247 18.8189L72.1372 18.75L75.9043 18.7535V34.6976H72.4573V23.9514C70.6852 26.5022 69.0975 29.1853 67.3951 31.786C67.2403 31.9471 66.1387 31.9246 66.0494 31.8437L61.0822 24.0408L60.9211 23.9521V34.6983H57.5444V18.7542H61.4487L61.448 18.7535Z" fill="#F7F9FD"/>
<path d="M132.78 18.7539L135.921 23.5537L136.085 23.6712L139.116 18.9692L139.322 18.7539H143.437L137.973 26.3746L144 34.698H139.814L136.18 29.2665L135.982 29.0787L132.322 34.698H128.102L134.14 26.3619L128.664 18.7539H132.78Z" fill="#F7F9FD"/>
<path d="M121.63 30.3431H114.032C114.65 32.642 117.839 32.6871 119.272 31.1324L121.488 32.4852C120.999 33.3265 120.216 33.9449 119.334 34.3374C116.175 35.7401 111.891 34.4288 111.028 30.8496C110.158 27.2366 112.833 24.0379 116.533 24.1596C119.917 24.2708 122.19 26.9932 121.63 30.3438V30.3431ZM118.745 28.4466C118.181 26.0801 114.688 26.0913 114.103 28.4466H118.745Z" fill="#F7F9FD"/>
<path d="M87.7928 34.6976H84.7679V33.7852C84.7011 33.7099 84.2213 34.2185 84.1158 34.2924C81.9688 35.8034 78.0174 34.5534 78.2348 31.5109C78.4627 28.3199 82.2727 28.2067 84.6983 28.2003C84.0806 25.995 81.1887 26.9214 79.8443 27.8852L78.8532 25.753C81.3336 23.4969 86.5983 23.3978 87.6163 27.1838C87.6641 27.3618 87.7928 27.8444 87.7928 27.9907V34.6983V34.6976ZM83.2555 30.3431C82.8066 30.4592 82.3578 30.4331 81.9175 30.6224C81.1204 30.965 80.8426 31.8295 81.4694 32.4774C82.0961 33.1253 83.3884 33.0606 84.0666 32.5569C84.272 32.4043 84.7679 31.8148 84.7679 31.5714V30.4472C84.7679 30.4395 84.6701 30.3417 84.6624 30.3417H83.2555V30.3431Z" fill="#F7F9FD"/>
<path d="M101.44 24.373L104.22 31.0461L107.068 24.373H110.585L105.838 34.6282L102.809 34.7028L97.9932 24.373H101.44Z" fill="#F7F9FD"/>
<path d="M126.624 16.0146H123.599V34.6981H126.624V16.0146Z" fill="#F7F9FD"/>
<path d="M97.0084 24.1621V27.4635C95.5641 26.8803 94.1396 27.391 93.6289 28.9007C93.5754 29.0582 93.4207 29.6203 93.4207 29.7462V34.698H90.3958V24.3731H93.4207V26.2697C93.5909 26.3077 93.5346 26.2395 93.5775 26.1775C94.4308 24.9458 95.4248 24.1698 97.0084 24.1621Z" fill="#F7F9FD"/>
<path d="M43.6404 0.431226C43.1951 0.204006 42.7512 0.128735 42.2785 0H3.447C1.61516 0.177978 0.191343 1.71084 0 3.51171V42.073C0.104817 42.4958 0.168832 42.9074 0.339072 43.3147C0.882853 44.6175 2.21944 45.4926 3.62357 45.5841L42.035 45.5876C43.9921 45.4434 45.4525 44.0625 45.6579 42.1103V3.47443C45.525 2.20748 44.7849 1.01581 43.6404 0.43193V0.431226Z" fill="#0346EB"/>
<path d="M34.5052 28.513L29.7941 14.2544L25.6676 18.3908L25.4678 18.3324L23.472 16.3873C25.3876 14.2833 27.4276 12.2946 29.4065 10.2496C30.0959 9.64318 31.0927 9.75574 31.6541 10.4669C34.3849 18.1172 36.8253 25.8912 39.4464 33.5878C40.0697 35.1418 38.1879 36.413 36.966 35.2931L15.9083 14.2558L11.0938 28.4786L20.0222 19.764L20.1995 19.7992L22.1959 21.8659L8.52333 35.3951C7.81213 35.9965 6.6106 35.7285 6.22791 34.8822C5.91487 34.19 6.19978 33.5921 6.40097 32.9238C8.63378 25.512 11.5138 18.2698 13.7789 10.8644C14.206 9.84719 15.4476 9.57917 16.2608 10.3206L34.5045 28.5137L34.5052 28.513Z" fill="#F7F9FD"/>
</svg>
