<svg width="182" height="58" viewBox="0 0 182 58" fill="none" xmlns="http://www.w3.org/2000/svg">
<path d="M77.6634 23.7027L84.2437 34.6227L84.4499 34.4742L90.9048 23.7854L91.1733 23.6982L95.9345 23.7027V43.8543H91.5779V30.2723C89.3382 33.4962 87.3315 36.8872 85.1799 40.1743C84.9843 40.3779 83.5919 40.3494 83.479 40.2472L77.201 30.3852L76.9974 30.2732V43.8552H72.7297V23.7036H77.6643L77.6634 23.7027Z" fill="#0346EB"/>
<path d="M167.819 23.7031L171.79 29.7695L171.997 29.918L175.827 23.9752L176.087 23.7031H181.289L174.383 33.3348L182 43.8547H176.71L172.116 36.9899L171.866 36.7525L167.241 43.8547H161.906L169.538 33.3188L162.618 23.7031H167.819Z" fill="#0346EB"/>
<path d="M153.726 38.3507H144.124C144.905 41.2563 148.935 41.3132 150.747 39.3483L153.548 41.0581C152.929 42.1214 151.94 42.903 150.824 43.3991C146.832 45.172 141.418 43.5147 140.328 38.9909C139.228 34.4245 142.608 30.3817 147.285 30.5355C151.562 30.676 154.434 34.1168 153.726 38.3516V38.3507ZM150.081 35.9537C149.367 32.9628 144.953 32.977 144.213 35.9537H150.081Z" fill="#0346EB"/>
<path d="M110.96 43.8543H107.137V42.7011C107.053 42.606 106.446 43.2488 106.313 43.3422C103.6 45.252 98.6055 43.672 98.8802 39.8266C99.1683 35.7937 103.984 35.6505 107.049 35.6425C106.269 32.8552 102.614 34.0261 100.914 35.2442L99.6617 32.5493C102.797 29.698 109.451 29.5726 110.737 34.3578C110.798 34.5827 110.96 35.1926 110.96 35.3776V43.8552V43.8543ZM105.226 38.3507C104.659 38.4974 104.091 38.4645 103.535 38.7037C102.527 39.1367 102.176 40.2294 102.968 41.0483C103.761 41.8671 105.394 41.7853 106.251 41.1487C106.511 40.9558 107.137 40.2107 107.137 39.9031V38.4823C107.137 38.4725 107.014 38.349 107.004 38.349H105.226V38.3507Z" fill="#0346EB"/>
<path d="M128.209 30.8047L131.722 39.2387L135.322 30.8047H139.767L133.767 43.7661L129.939 43.8603L123.852 30.8047H128.209Z" fill="#0346EB"/>
<path d="M160.039 20.2402H156.216V43.854H160.039V20.2402Z" fill="#0346EB"/>
<path d="M122.608 30.5381V34.7107C120.782 33.9736 118.982 34.6191 118.336 36.5271C118.269 36.7263 118.073 37.4367 118.073 37.5958V43.8542H114.25V30.8048H118.073V33.2018C118.288 33.2499 118.217 33.1636 118.272 33.0854C119.35 31.5285 120.606 30.5479 122.608 30.5381Z" fill="#0346EB"/>
<path d="M55.1566 0.545022C54.5938 0.257841 54.0327 0.162706 53.4353 0H4.35662C2.04139 0.224944 0.241837 2.16231 0 4.43842V53.1757C0.132477 53.71 0.213385 54.2301 0.428549 54.7449C1.11583 56.3915 2.80513 57.4976 4.57978 57.6132L53.1276 57.6176C55.6011 57.4354 57.4469 55.69 57.7065 53.2228V4.39129C57.5385 2.79001 56.6031 1.28387 55.1566 0.545911V0.545022Z" fill="#0346EB"/>
<path d="M43.6107 36.0378L37.6564 18.0166L32.4409 23.2445L32.1884 23.1707L29.666 20.7123C32.087 18.053 34.6654 15.5395 37.1665 12.9549C38.0378 12.1885 39.2977 12.3307 40.0072 13.2296C43.4587 22.8986 46.543 32.7241 49.8558 42.4519C50.6436 44.4159 48.2652 46.0225 46.7208 44.607L20.1063 18.0183L14.0213 35.9943L25.3058 24.98L25.5299 25.0245L28.0531 27.6367L10.7725 44.736C9.8736 45.4962 8.355 45.1574 7.87133 44.0878C7.47568 43.2129 7.83576 42.4572 8.09005 41.6125C10.9121 32.2449 14.5521 23.0916 17.415 13.732C17.9547 12.4463 19.524 12.1076 20.5518 13.0447L43.6098 36.0387L43.6107 36.0378Z" fill="#F7F9FD"/>
</svg>
