<svg width="106" height="27" viewBox="0 0 106 27" fill="none" xmlns="http://www.w3.org/2000/svg">
<g id="ML6-logo 1" clip-path="url(#clip0_3950_1039)">
<path id="Vector" fill-rule="evenodd" clip-rule="evenodd" d="M37.48 -0.15048V0.601045V25.4938V26.2454H28.8379V9.80674C28.7839 9.86075 28.761 9.8837 28.7513 9.91129C28.744 9.93162 28.744 9.95457 28.744 9.99448C27.1315 12.768 25.2533 15.4087 23.383 18.0381C22.5296 19.238 21.6776 20.4356 20.8535 21.6424C20.4779 22.2058 20.102 22.7697 19.7264 23.2392C19.5385 23.4271 19.3506 23.5211 19.1627 23.5211C18.4112 23.709 17.5659 23.3332 17.284 22.5817C15.8043 20.3918 14.2872 18.239 12.7799 16.1001C11.895 14.8445 11.0135 13.5937 10.1449 12.3429C9.58129 11.4975 9.11166 10.6521 8.64194 9.80674C8.68911 12.5426 8.71265 15.2785 8.73627 18.0263C8.75964 20.7504 8.78319 23.4862 8.82993 26.2454H0V-0.244507H10.051C10.1449 -0.0566367 10.2389 0.131234 10.3329 0.225168C12.4934 3.41896 14.6538 6.70673 16.7203 9.90057C17.0961 10.4641 17.4483 11.0042 17.8006 11.5443C18.1529 12.0844 18.5051 12.6246 18.8809 13.1882L27.8986 -0.244507L37.48 -0.15048ZM82.0042 26.5269C81.6753 26.4799 81.3702 26.433 81.0651 26.3861C80.7595 26.3392 80.4543 26.2923 80.1254 26.2454C77.3075 25.6816 76.1804 24.3666 75.8986 21.5485C75.8049 20.7973 75.8049 20.0458 75.8049 19.2945V6.89461C75.8049 5.86131 75.8986 4.82809 76.0867 3.88874C76.5559 1.54037 77.8711 0.507076 80.4072 0.131339C80.9713 0.0374043 81.5349 -0.0564851 82.0042 -0.0564851H103.985V6.23713H103.234H85.9494C85.6676 6.23713 85.3858 6.23713 85.1985 6.33092C85.0103 6.42483 84.823 6.61282 84.823 6.7068V9.90049H85.574H97.1283C98.7255 9.90049 100.322 10.0884 101.918 10.3701C103.704 10.558 105.019 11.9672 105.113 13.7519C105.488 16.7578 105.488 19.7636 105.113 22.7695C104.925 24.6482 103.515 26.1512 101.636 26.3391C101.204 26.4626 100.732 26.505 100.272 26.5462H100.271C100.032 26.5677 99.7954 26.5888 99.5701 26.6209L82.0042 26.5269ZM84.6349 15.8185V19.6699C84.6349 20.1396 85.0103 20.2333 85.3858 20.2333H95.7192C96.3765 20.2333 96.4702 20.1395 96.4702 19.3879V16.8518C96.4702 15.9125 96.3765 15.8185 95.4366 15.8185H86.0431H84.6349ZM52.3223 19.4823V-0.150058H43.2106V0.601469V25.588V26.3396H70.4515V19.4823H52.3223Z" fill="#141414"/>
</g>
<defs>
<clipPath id="clip0_3950_1039">
<rect width="105.469" height="27" fill="white"/>
</clipPath>
</defs>
</svg>
