<svg width="145" height="24" viewBox="0 0 145 24" fill="none" xmlns="http://www.w3.org/2000/svg">
<g clip-path="url(#clip0_13755_1230)">
<path d="M32.2376 13.4617C32.1726 13.5446 32.1912 13.6276 32.1912 13.7014C32.1912 15.7759 32.1912 17.8504 32.1912 19.925C32.1912 20.1463 32.0767 20.2569 31.8477 20.2569C31.0587 20.2569 30.2697 20.2569 29.4807 20.2569C29.2951 20.2569 29.2208 20.22 29.2208 20.0172C29.2208 14.8355 29.2208 9.64452 29.2208 4.46281C29.2208 4.38905 29.2022 4.31529 29.2765 4.21387C29.5735 4.62877 29.852 5.02524 30.1305 5.4217C32.4047 8.62109 34.6696 11.8113 36.9345 15.0106C36.953 15.0383 36.9809 15.066 36.9902 15.0936C37.083 15.2504 37.1572 15.278 37.2779 15.1028C39.1994 12.4474 41.1301 9.79205 43.0516 7.14587C43.7292 6.21464 44.4068 5.2834 45.0844 4.35217C45.1122 4.31529 45.1308 4.25997 45.1958 4.25075C45.2886 4.31529 45.2515 4.41671 45.2515 4.49969C45.2515 9.66296 45.2515 14.817 45.2515 19.9803C45.2515 20.2108 45.1958 20.2753 44.9637 20.2753C44.119 20.2569 43.265 20.2661 42.4204 20.2753C42.2254 20.2753 42.1883 20.22 42.1883 20.0356C42.1883 17.7951 42.1883 15.5546 42.1883 13.3141C42.1883 13.2865 42.1883 13.268 42.1883 13.2404C42.179 13.1758 42.2161 13.0836 42.1419 13.0652C42.0491 13.0375 42.0212 13.1297 41.9841 13.1851C41.0187 14.5496 40.0533 15.905 39.0973 17.2696C38.4846 18.1455 37.8534 19.0122 37.2501 19.8881C37.1108 20.0817 37.0459 20.0633 36.9252 19.8881C35.4307 17.8228 33.927 15.7575 32.4232 13.6922C32.3675 13.6184 32.3397 13.5354 32.2376 13.4893V13.4617Z" fill="black"/>
<path d="M96.3601 14.1165C96.3601 13.969 96.3601 13.8768 96.3601 13.7938C96.3416 10.8895 96.323 7.97591 96.2951 5.07157C96.2951 4.85028 96.3416 4.79496 96.5643 4.80418C97.4276 4.82262 98.2909 4.8134 99.1634 4.80418C99.3212 4.80418 99.3955 4.82262 99.3955 5.01625C99.3955 10.2441 99.3955 15.4627 99.3955 20.6905C99.3955 20.755 99.4326 20.838 99.3676 20.8749C99.2841 20.921 99.2377 20.8195 99.1912 20.7734C96.4808 18.3486 93.7703 15.9237 91.0506 13.4895C90.2245 12.7427 89.3891 12.0051 88.5629 11.2675C88.5258 11.2398 88.4887 11.2122 88.4515 11.1753C88.3866 11.2398 88.4237 11.3136 88.4237 11.3689C88.4423 14.2548 88.4608 17.1315 88.4887 20.0174C88.4887 20.2018 88.4608 20.2756 88.2566 20.2663C87.3655 20.2479 86.4744 20.2571 85.5833 20.2663C85.4162 20.2663 85.3791 20.2202 85.3791 20.0635C85.3791 14.8449 85.3791 9.62631 85.3791 4.41694C85.3791 4.3524 85.3327 4.25098 85.4162 4.2141C85.5276 4.168 85.5833 4.27864 85.639 4.33396C88.6465 7.08156 91.6632 9.82915 94.6707 12.5768C95.2184 13.0746 95.766 13.5817 96.3694 14.1257L96.3601 14.1165Z" fill="black"/>
<path d="M66.3781 12.549C66.3502 8.29852 69.9611 4.63813 74.296 4.62891C78.4823 4.62891 82.2974 8.14178 82.2881 12.5582C82.2881 16.9654 78.6865 20.423 74.296 20.423C69.7476 20.423 66.3595 16.7903 66.3781 12.549ZM79.1135 12.5951C79.0949 12.3001 79.0857 12.0511 79.0578 11.8022C79.0392 11.6546 79.0114 11.5071 78.965 11.3596C78.5194 9.67232 77.5633 8.40916 75.8461 7.82829C74.4909 7.3765 73.1542 7.48715 71.9197 8.21554C69.8126 9.46025 68.9493 12.1894 69.9147 14.4668C70.5644 16.0158 71.7433 17.0115 73.377 17.3803C74.3981 17.6108 75.4377 17.5371 76.3938 17.03C78.1946 16.0711 79.0392 14.5405 79.1042 12.5859L79.1135 12.5951Z" fill="black"/>
<path d="M56.2697 4.63798C60.4839 4.6011 64.2618 8.18773 64.2525 12.5673C64.2433 16.9008 60.7067 20.4136 56.279 20.4228C51.7863 20.4321 48.3333 16.8639 48.3425 12.5396C48.3425 8.25227 51.972 4.6011 56.2697 4.63798ZM56.1862 17.4816C57.9962 17.4816 59.2401 16.7717 60.159 15.4901C61.0501 14.2361 61.2822 12.8255 60.9294 11.3502C60.5117 9.64451 59.5092 8.38135 57.7827 7.81892C56.4368 7.37636 55.1001 7.49622 53.8841 8.22461C51.9905 9.34946 51.1365 11.6545 51.6749 13.8212C52.204 15.9326 54.3111 17.583 56.1862 17.4724V17.4816Z" fill="black"/>
<path d="M23.4472 16.1355C23.0387 15.6007 22.5746 15.1858 21.9991 14.9092C21.8599 14.8447 21.9434 14.7525 21.9713 14.6787C22.2219 13.729 22.3425 12.7701 22.324 11.7836C22.2683 7.19196 18.8895 3.07978 14.369 2.10245C8.75315 0.885389 3.36937 4.26918 2.08841 9.83814C0.85385 15.2043 4.39044 20.7271 9.81134 21.8981C12.2433 22.4236 14.5639 22.1378 16.7824 21.0129C16.9309 20.9392 17.0052 20.9484 17.1166 21.0775C17.3022 21.308 17.525 21.5016 17.7571 21.6768C17.9984 21.852 18.249 21.9903 18.5182 22.1193C15.4457 24.2676 9.69067 25.1251 4.92881 21.6676C-0.0836697 18.0441 -1.48531 11.1566 1.70783 5.85504C4.90097 0.535024 11.64 -1.4934 17.2929 1.16199C22.9088 3.79895 25.5914 10.2899 23.4472 16.1355Z" fill="black"/>
<path d="M108.353 4.73971C109.885 4.72127 111.342 5.26526 112.725 6.09507C112.855 6.17805 112.864 6.25181 112.809 6.3809C112.484 7.03553 112.159 7.69015 111.834 8.354C111.76 8.51075 111.685 8.53841 111.528 8.45543C110.878 8.09584 110.2 7.81002 109.486 7.62561C108.65 7.40433 107.805 7.35823 106.961 7.65327C105.921 8.0313 105.838 9.42354 106.469 9.98597C107.007 10.4654 107.629 10.7697 108.27 11.0647C109.086 11.4427 109.959 11.7101 110.729 12.1896C111.843 12.8811 112.502 13.8676 112.688 15.1492C112.901 16.6429 112.539 17.9614 111.435 19.0309C110.869 19.5841 110.182 19.9529 109.421 20.165C108.14 20.5061 106.849 20.543 105.559 20.2664C104.362 20.0082 103.248 19.538 102.227 18.865C102.087 18.7728 102.125 18.7082 102.18 18.6068C102.57 17.9337 102.96 17.2699 103.341 16.5968C103.433 16.4216 103.526 16.4769 103.638 16.5507C104.38 17.0486 105.188 17.4082 106.06 17.611C106.701 17.7585 107.351 17.8323 108 17.6663C108.576 17.528 109.114 17.2883 109.393 16.7351C109.755 16.0252 109.486 15.2507 108.799 14.7436C108.093 14.218 107.286 13.9322 106.497 13.6003C105.791 13.3052 105.123 12.9548 104.501 12.5123C103.35 11.7009 102.876 10.5668 102.895 9.19304C102.904 8.38166 103.09 7.60717 103.526 6.91566C104.092 6.00287 104.919 5.422 105.93 5.09008C106.682 4.83191 107.462 4.73049 108.372 4.77659L108.353 4.73971Z" fill="black"/>
<path d="M122.843 12.5214C122.843 10.032 122.843 7.5333 122.843 5.04387C122.843 4.85024 122.88 4.79492 123.084 4.79492C126.175 4.79492 129.266 4.79492 132.357 4.79492C132.543 4.79492 132.599 4.8318 132.599 5.02543C132.589 5.84602 132.589 6.67583 132.599 7.49642C132.599 7.69926 132.543 7.74536 132.348 7.74536C130.297 7.74536 128.245 7.74536 126.203 7.73614C125.962 7.73614 125.925 7.8099 125.925 8.02197C125.934 9.01774 125.934 10.0043 125.925 11.0001C125.925 11.1937 125.971 11.249 126.166 11.249C127.93 11.249 129.693 11.249 131.457 11.2398C131.661 11.2398 131.698 11.2951 131.698 11.4887C131.689 12.3093 131.68 13.1207 131.698 13.9413C131.698 14.1626 131.624 14.1902 131.429 14.1902C129.693 14.1902 127.948 14.1902 126.212 14.181C125.962 14.181 125.915 14.2548 125.915 14.4853C125.925 16.3293 125.915 18.1733 125.925 20.0081C125.925 20.2202 125.869 20.2663 125.665 20.2663C124.811 20.2571 123.947 20.2479 123.093 20.2663C122.871 20.2663 122.843 20.2018 122.843 19.9989C122.843 17.5095 122.843 15.0108 122.843 12.5214Z" fill="black"/>
<path d="M141.203 14.0151C141.203 16.0066 141.203 17.9981 141.203 19.9897C141.203 20.2202 141.138 20.2571 140.925 20.2571C140.089 20.2479 139.245 20.2479 138.409 20.2571C138.196 20.2571 138.122 20.2202 138.122 19.9805C138.122 15.9974 138.122 12.0143 138.131 8.03119C138.131 7.79146 138.075 7.73614 137.834 7.73614C136.794 7.75458 135.755 7.73614 134.706 7.74536C134.511 7.74536 134.474 7.69004 134.474 7.50564C134.483 6.67583 134.483 5.8368 134.474 5.00698C134.474 4.8318 134.529 4.79492 134.696 4.79492C138.057 4.79492 141.417 4.79492 144.777 4.79492C144.926 4.79492 144.991 4.81336 144.991 4.98854C144.981 5.8368 144.981 6.68505 144.991 7.54252C144.991 7.70848 144.944 7.74536 144.777 7.74536C143.663 7.74536 142.54 7.74536 141.426 7.74536C141.24 7.74536 141.194 7.78224 141.194 7.97587C141.194 9.99508 141.194 12.0051 141.194 14.0243L141.203 14.0151Z" fill="black"/>
<path d="M14.1833 19.8419C10.6746 20.3582 7.74137 19.344 5.72709 16.4028C3.89846 13.7381 3.84277 10.8707 5.43006 8.05854C7.13801 5.04355 10.7117 3.46691 14.2576 4.18608C13.7378 4.3336 13.2644 4.48113 12.8188 4.71163C11.6214 5.32016 10.721 6.23295 10.0805 7.39469C9.36578 8.71317 9.05018 10.1331 9.00377 11.6175C8.96664 12.853 9.09659 14.0608 9.48645 15.2318C10.1177 17.1404 11.2687 18.6248 13.1623 19.4638C13.4964 19.6114 13.8492 19.6943 14.1833 19.8419Z" fill="black"/>
<path d="M115.76 12.5301C115.76 10.0406 115.76 7.5512 115.76 5.05254C115.76 4.82204 115.825 4.78516 116.039 4.78516C116.902 4.79438 117.765 4.79438 118.638 4.78516C118.805 4.78516 118.852 4.82204 118.852 4.988C118.852 10.0037 118.852 15.0195 118.852 20.0353C118.852 20.2197 118.787 20.2473 118.619 20.2473C117.747 20.2473 116.874 20.2381 116.002 20.2473C115.816 20.2473 115.77 20.2012 115.77 20.0168C115.77 17.5182 115.77 15.0195 115.77 12.5208L115.76 12.5301Z" fill="black"/>
<path d="M20.1705 20.9114C18.7782 20.9114 17.6921 19.8419 17.6829 18.4681C17.6829 17.0943 18.7782 15.9971 20.1427 15.9971C21.5165 15.9971 22.6304 17.085 22.6304 18.4496C22.6304 19.8234 21.5536 20.9114 20.1705 20.9114Z" fill="#F4CB60"/>
</g>
<defs>
<clipPath id="clip0_13755_1230">
<rect width="145" height="24" fill="white"/>
</clipPath>
</defs>
</svg>
