<?xml version="1.0" encoding="UTF-8"?><svg id="Layer_2" xmlns="http://www.w3.org/2000/svg" viewBox="0 0 315.25 48.11"><defs><style>.cls-1{fill:#fff;}.cls-1,.cls-2{stroke-width:0px;}.cls-2{fill:#fcca4b;}</style></defs><g id="Layer_1-2"><path class="cls-1" d="m102.77,39.98h-6.5v-14.67c-.16-.06-.32-.12-.48-.17-3.37,4.75-6.74,9.5-10.32,14.55-3.35-4.58-6.62-9.04-10.3-14.05v14.34h-6.3V5.92c5.64,7.95,11.07,15.61,16.68,23.52,5.69-7.85,11.28-15.55,17.21-23.73v34.27Z"/><path class="cls-1" d="m37.06,44.49c-12.3,7.1-24.97,2.86-31.49-5.06C-1.65,30.66-1.89,18.16,5.07,9.33,12.2.28,24.39-2.52,34.72,2.4c8.72,4.16,16.84,15.31,12.25,29.93,1.82,3.33,2.07,6.73-.59,9.85-2.49,2.93-5.72,3.35-9.32,2.3Zm6.63-14.87c2.69-9.68-1.66-19.42-10.43-23.76C24.41,1.48,13.74,3.99,7.85,11.84c-5.92,7.89-5.38,18.76,1.26,25.99,6.75,7.36,17.94,8.33,24.59,3.99-1.99-3.26-2.21-6.59.21-9.69,2.49-3.19,5.86-3.78,9.79-2.5Zm-8.31,7.07c-.13,2.9,1.89,5.27,4.66,5.45,2.63.17,5.28-2.2,5.41-4.85.14-2.75-2.13-5.16-4.92-5.23-2.77-.07-5.04,1.97-5.16,4.63Z"/><path class="cls-1" d="m188.41,5.7c7.75,7.08,15.21,13.9,23.01,21.03V7.31c2.2-.54,4.3-.24,6.53-.22v34.37c-7.79-7-15.3-13.73-23.13-20.76v19.3h-6.41V5.7Z"/><path class="cls-1" d="m125.69,6.79c8.88-.51,17.09,6.88,17.58,15.81.52,9.48-6.48,17.33-16.35,17.78-9.65.44-16.92-7.01-17.42-15.87-.52-9.06,6.86-17.49,16.18-17.72Zm-9.4,16.75c-.03,5.86,4.43,10.54,10.11,10.63,5.62.09,10.14-4.61,10.14-10.55,0-5.91-4.48-10.64-10.1-10.66-5.64-.03-10.12,4.64-10.15,10.58Z"/><path class="cls-1" d="m147.89,24.23c-.37-9.33,7.25-17.12,16.16-17.47,9.11-.36,17.17,6.85,17.58,16.38.38,8.9-6.49,16.86-16.35,17.26-9.33.38-17.07-6.78-17.4-16.17Zm27.05-.64c-.02-5.86-4.49-10.57-10.1-10.62-5.7-.06-10.32,4.78-10.26,10.74.06,5.77,4.64,10.44,10.28,10.47,5.58.03,10.09-4.71,10.07-10.58Z"/><path class="cls-1" d="m246.92,10.09c-.93,1.83-1.69,3.33-2.49,4.92-1.33-.56-2.53-1.11-3.77-1.59-1.61-.63-3.29-.78-5-.58-1.53.18-2.73.86-3.16,2.44-.41,1.5.34,2.57,1.47,3.45.92.72,1.98,1.18,3.04,1.65,1.71.76,3.47,1.43,5.05,2.4,3.8,2.35,5.2,5.9,4.25,10.31-.73,3.39-4.1,6.39-7.92,7.04-5.03.86-9.81-.23-14.32-3.33.66-1.68,1.69-3.19,2.68-4.84,2.12,1.08,4.14,2.18,6.46,2.59,1.57.28,3.06.09,4.47-.46,2.26-.89,2.74-3.47,1.07-5.25-1.07-1.14-2.5-1.67-3.88-2.3-1.7-.77-3.4-1.53-5.01-2.49-2.98-1.78-4.35-4.42-4.23-7.78.14-3.76,1.85-6.71,5.41-8.19,5.57-2.32,10.76-1.1,15.88,2.02Z"/><path class="cls-1" d="m286.8,20.78v6.33h-12.04v12.73c-2.29.57-4.39.12-6.61.32V7.12h20.5v6.17h-13.88v7.48h12.04Z"/><path class="cls-1" d="m307.14,13.42v26.5h-6.54V13.41h-7.51v-6.27h21.98c.25,2.07.26,4.08-.03,6.28h-7.9Z"/><path class="cls-1" d="m259.41,40.02h-6.29V7.16h6.29v32.86Z"/><path class="cls-2" d="m35.38,36.69c.12-2.66,2.38-4.69,5.16-4.63,2.79.07,5.06,2.48,4.92,5.23-.14,2.65-2.79,5.02-5.41,4.85-2.77-.18-4.79-2.55-4.66-5.45Z"/><path class="cls-1" d="m27.69,8.56c-5.9,2.27-8.73,6.56-9.4,12.18-.96,8.13.83,15.16,9.19,19.04-6.84.75-12.37-1.39-16.13-7.07-3.79-5.7-3.39-12.35.39-17.96,3.03-4.5,11.08-7.88,15.95-6.2Z"/></g></svg>