<svg width="211" height="35" viewBox="0 0 211 35" fill="none" xmlns="http://www.w3.org/2000/svg">
<g id="moonsift 1" clip-path="url(#clip0_10228_4000)">
<g id="Layer 9">
<g id="Group">
<path id="Vector" d="M46.9125 19.6309C46.8179 19.7519 46.8449 19.8729 46.8449 19.9805C46.8449 23.0058 46.8449 26.0312 46.8449 29.0566C46.8449 29.3793 46.6783 29.5406 46.3451 29.5406C45.197 29.5406 44.0489 29.5406 42.9007 29.5406C42.6306 29.5406 42.5225 29.4868 42.5225 29.191C42.5225 21.6343 42.5225 14.0642 42.5225 6.50757C42.5225 6.40001 42.4955 6.29244 42.6036 6.14453C43.0358 6.7496 43.441 7.32778 43.8463 7.90596C47.1556 12.5717 50.4514 17.2241 53.7472 21.8898C53.7742 21.9302 53.8148 21.9705 53.8283 22.0108C53.9633 22.2394 54.0714 22.2798 54.247 22.0243C57.0431 18.1518 59.8526 14.2794 62.6486 10.4204C63.6347 9.06232 64.6207 7.70427 65.6068 6.34622C65.6473 6.29244 65.6743 6.21176 65.7689 6.19832C65.9039 6.29244 65.8499 6.44034 65.8499 6.56136C65.8499 14.0911 65.8499 21.6075 65.8499 29.1372C65.8499 29.4734 65.7689 29.5675 65.4312 29.5675C64.202 29.5406 62.9593 29.5541 61.7301 29.5675C61.4465 29.5675 61.3925 29.4868 61.3925 29.2179C61.3925 25.9505 61.3925 22.6831 61.3925 19.4158C61.3925 19.3754 61.3925 19.3485 61.3925 19.3082C61.3789 19.2141 61.433 19.0796 61.3249 19.0527C61.1898 19.0124 61.1493 19.1468 61.0953 19.2275C59.6905 21.2175 58.2857 23.1941 56.8945 25.1841C56.003 26.4615 55.0845 27.7254 54.2065 29.0028C54.0039 29.2851 53.9093 29.2582 53.7337 29.0028C51.559 25.9909 49.3708 22.979 47.1826 19.967C47.1016 19.8595 47.061 19.7385 46.9125 19.6712V19.6309Z" fill="#2E2D2E"/>
<path id="Vector_2" d="M140.221 20.5859C140.221 20.3708 140.221 20.2363 140.221 20.1153C140.194 15.8798 140.167 11.6309 140.126 7.39539C140.126 7.07268 140.194 6.992 140.518 7.00545C141.774 7.03234 143.03 7.0189 144.3 7.00545C144.53 7.00545 144.638 7.03234 144.638 7.31471C144.638 14.9386 144.638 22.5491 144.638 30.1729C144.638 30.2671 144.692 30.3881 144.597 30.4419C144.476 30.5091 144.408 30.3612 144.34 30.294C140.396 26.7577 136.452 23.2214 132.494 19.6716C131.292 18.5825 130.077 17.5068 128.874 16.4311C128.82 16.3908 128.766 16.3504 128.712 16.2967C128.618 16.3908 128.672 16.4983 128.672 16.579C128.699 20.7876 128.726 24.9828 128.766 29.1914C128.766 29.4603 128.726 29.5679 128.429 29.5544C127.132 29.5275 125.835 29.541 124.539 29.5544C124.295 29.5544 124.241 29.4872 124.241 29.2586C124.241 21.6482 124.241 14.0377 124.241 6.44072C124.241 6.3466 124.174 6.19869 124.295 6.14491C124.457 6.07768 124.539 6.23903 124.62 6.3197C128.996 10.3266 133.386 14.3335 137.762 18.3404C138.559 19.0665 139.356 19.8061 140.234 20.5994L140.221 20.5859Z" fill="#2E2D2E"/>
<path id="Vector_3" d="M96.5901 18.3001C96.5496 12.1015 101.804 6.76345 108.112 6.75C114.204 6.75 119.755 11.8729 119.742 18.3136C119.742 24.7408 114.501 29.783 108.112 29.783C101.493 29.783 96.5631 24.4853 96.5901 18.3001ZM115.122 18.3674C115.095 17.9371 115.082 17.574 115.041 17.211C115.014 16.9959 114.974 16.7807 114.906 16.5656C114.258 14.105 112.867 12.2629 110.368 11.4158C108.396 10.7569 106.451 10.9183 104.654 11.9805C101.588 13.7957 100.332 17.7757 101.736 21.0969C102.682 23.3558 104.397 24.808 106.775 25.3458C108.261 25.682 109.773 25.5744 111.165 24.8349C113.785 23.4365 115.014 21.2045 115.109 18.3539L115.122 18.3674Z" fill="#2E2D2E"/>
<path id="Vector_4" d="M81.883 6.76408C88.0154 6.7103 93.513 11.9408 93.4995 18.3277C93.486 24.6473 88.3396 29.7702 81.8966 29.7837C75.3589 29.7971 70.3342 24.5935 70.3477 18.2873C70.3477 12.0349 75.6291 6.7103 81.883 6.76408ZM81.7615 25.4944C84.3954 25.4944 86.2054 24.459 87.5427 22.5901C88.8394 20.7614 89.1771 18.7042 88.6638 16.5528C88.056 14.0653 86.5972 12.2232 84.0848 11.403C82.1262 10.7576 80.1811 10.9324 78.4116 11.9946C75.6561 13.635 74.4134 16.9965 75.1969 20.1563C75.9668 23.2355 79.033 25.6423 81.7615 25.4809V25.4944Z" fill="#2E2D2E"/>
<path id="Vector_5" d="M34.12 23.5304C33.5257 22.7505 32.8503 22.1454 32.0128 21.7421C31.8102 21.6479 31.9318 21.5135 31.9723 21.4059C32.337 20.021 32.5126 18.6226 32.4856 17.1839C32.4046 10.4877 27.4878 4.49082 20.9097 3.06554C12.7377 1.29066 4.90338 6.22535 3.03935 14.3468C1.24285 22.1723 6.38919 30.2265 14.2775 31.9342C17.8165 32.7006 21.1934 32.2837 24.4216 30.6433C24.6378 30.5358 24.7458 30.5492 24.9079 30.7375C25.1781 31.0736 25.5022 31.356 25.8399 31.6114C26.1911 31.8669 26.5558 32.0686 26.9475 32.2569C22.4766 35.3898 14.102 36.6403 7.17263 31.598C-0.121399 26.3137 -2.16102 16.2695 2.48554 8.53807C7.13211 0.779714 16.9385 -2.17841 25.1646 1.69404C33.3366 5.53961 37.2402 15.0056 34.12 23.5304Z" fill="#2E2D2E"/>
<path id="Vector_6" d="M157.672 6.91082C159.901 6.88393 162.022 7.67724 164.034 8.88739C164.223 9.0084 164.237 9.11597 164.156 9.30421C163.683 10.2589 163.21 11.2135 162.738 12.1817C162.63 12.4102 162.521 12.4506 162.292 12.3296C161.346 11.8052 160.36 11.3883 159.32 11.1194C158.105 10.7967 156.875 10.7295 155.646 11.1598C154.133 11.7111 154.012 13.7414 154.93 14.5616C155.714 15.2608 156.619 15.7045 157.551 16.1348C158.739 16.6861 160.009 17.076 161.13 17.7752C162.751 18.7837 163.71 20.2224 163.98 22.0914C164.291 24.2696 163.764 26.1924 162.157 27.7522C161.333 28.5589 160.333 29.0968 159.226 29.406C157.362 29.9035 155.484 29.9573 153.607 29.5539C151.864 29.1774 150.243 28.4917 148.757 27.5101C148.555 27.3757 148.609 27.2815 148.69 27.1336C149.257 26.1521 149.824 25.184 150.378 24.2024C150.513 23.9469 150.648 24.0276 150.811 24.1352C151.891 24.8613 153.066 25.3857 154.336 25.6815C155.268 25.8966 156.214 26.0042 157.159 25.7621C157.996 25.5605 158.78 25.2109 159.185 24.4041C159.712 23.3688 159.32 22.2393 158.321 21.4998C157.294 20.7333 156.119 20.3165 154.971 19.8324C153.944 19.4022 152.972 18.8912 152.067 18.2458C150.392 17.0626 149.703 15.4087 149.73 13.4052C149.743 12.222 150.014 11.0925 150.648 10.0841C151.472 8.75292 152.675 7.90583 154.147 7.42177C155.241 7.04528 156.376 6.89737 157.699 6.9646L157.672 6.91082Z" fill="#2E2D2E"/>
<path id="Vector_7" d="M178.758 18.26C178.758 14.6295 178.758 10.9857 178.758 7.35523C178.758 7.07286 178.812 6.99219 179.109 6.99219C183.607 6.99219 188.105 6.99219 192.603 6.99219C192.873 6.99219 192.954 7.04597 192.954 7.32834C192.941 8.52503 192.941 9.73518 192.954 10.9319C192.954 11.2277 192.873 11.2949 192.589 11.2949C189.604 11.2949 186.619 11.2949 183.648 11.2815C183.296 11.2815 183.242 11.389 183.242 11.6983C183.256 13.1505 183.256 14.5892 183.242 16.0414C183.242 16.3237 183.31 16.4044 183.593 16.4044C186.16 16.4044 188.726 16.4044 191.293 16.391C191.59 16.391 191.644 16.4716 191.644 16.754C191.63 17.9507 191.617 19.1339 191.644 20.3306C191.644 20.6533 191.536 20.6937 191.252 20.6937C188.726 20.6937 186.187 20.6937 183.661 20.6802C183.296 20.6802 183.229 20.7878 183.229 21.124C183.242 23.8132 183.229 26.5024 183.242 29.1781C183.242 29.4874 183.161 29.5546 182.864 29.5546C181.621 29.5412 180.365 29.5277 179.123 29.5546C178.798 29.5546 178.758 29.4605 178.758 29.1647C178.758 25.5343 178.758 21.8904 178.758 18.26Z" fill="#2E2D2E"/>
<path id="Vector_8" d="M205.477 20.4382C205.477 23.3426 205.477 26.2469 205.477 29.1512C205.477 29.4874 205.382 29.5412 205.071 29.5412C203.856 29.5277 202.626 29.5277 201.411 29.5412C201.1 29.5412 200.992 29.4874 200.992 29.1378C200.992 23.3291 200.992 17.5204 201.006 11.7117C201.006 11.3621 200.925 11.2815 200.573 11.2815C199.06 11.3084 197.548 11.2815 196.021 11.2949C195.738 11.2949 195.684 11.2142 195.684 10.9453C195.697 9.73518 195.697 8.51159 195.684 7.30145C195.684 7.04597 195.765 6.99219 196.008 6.99219C200.897 6.99219 205.787 6.99219 210.677 6.99219C210.893 6.99219 210.988 7.01908 210.988 7.27455C210.974 8.51159 210.974 9.74862 210.988 10.9991C210.988 11.2411 210.92 11.2949 210.677 11.2949C209.056 11.2949 207.422 11.2949 205.801 11.2949C205.531 11.2949 205.463 11.3487 205.463 11.6311C205.463 14.5757 205.463 17.507 205.463 20.4517L205.477 20.4382Z" fill="#2E2D2E"/>
<path id="Vector_9" d="M20.6404 28.9363C15.5346 29.6893 11.2662 28.2102 8.33512 23.9209C5.67415 20.035 5.59311 15.8533 7.90288 11.7523C10.3883 7.35543 15.5886 5.05616 20.7485 6.10495C19.9921 6.32008 19.3032 6.53522 18.6548 6.87137C16.9124 7.75881 15.6021 9.08996 14.6701 10.7842C13.63 12.7069 13.1708 14.7776 13.1033 16.9424C13.0492 18.7442 13.2383 20.5056 13.8056 22.2133C14.7241 24.9966 16.3991 27.1614 19.1546 28.385C19.6409 28.6001 20.1541 28.7212 20.6404 28.9363Z" fill="#2E2D2E"/>
<path id="Vector_10" d="M168.453 18.2732C168.453 14.6427 168.453 11.0123 168.453 7.36845C168.453 7.0323 168.548 6.97852 168.858 6.97852C170.115 6.99196 171.371 6.99196 172.64 6.97852C172.884 6.97852 172.951 7.0323 172.951 7.27433C172.951 14.589 172.951 21.9036 172.951 29.2182C172.951 29.4872 172.857 29.5275 172.613 29.5275C171.344 29.5275 170.074 29.514 168.804 29.5275C168.534 29.5275 168.467 29.4603 168.467 29.1913C168.467 25.5475 168.467 21.9036 168.467 18.2597L168.453 18.2732Z" fill="#2E2D2E"/>
<path id="Vector_11" d="M29.3505 30.4949C27.3243 30.4949 25.744 28.9351 25.7305 26.9317C25.7305 24.9282 27.3244 23.3281 29.3099 23.3281C31.3091 23.3281 32.9299 24.9148 32.9299 26.9048C32.9299 28.9082 31.3631 30.4949 29.3505 30.4949Z" fill="#F4CB60"/>
</g>
</g>
</g>
<defs>
<clipPath id="clip0_10228_4000">
<rect width="211" height="35" fill="white"/>
</clipPath>
</defs>
</svg>
