<svg width="126" height="21" viewBox="0 0 126 21" fill="none" xmlns="http://www.w3.org/2000/svg">
<g id="moonsift 2">
<g id="Layer 9">
<g id="Group">
<path id="Vector" d="M28.0155 11.7247C27.959 11.797 27.9752 11.8693 27.9752 11.9335C27.9752 13.7402 27.9752 15.547 27.9752 17.3537C27.9752 17.5464 27.8757 17.6427 27.6767 17.6427C26.9911 17.6427 26.3054 17.6427 25.6197 17.6427C25.4584 17.6427 25.3939 17.6106 25.3939 17.434C25.3939 12.9212 25.3939 8.40037 25.3939 3.88758C25.3939 3.82334 25.3778 3.7591 25.4423 3.67078C25.7004 4.03212 25.9424 4.3774 26.1844 4.72269C28.1607 7.50905 30.129 10.2874 32.0972 13.0738C32.1133 13.0978 32.1375 13.1219 32.1456 13.146C32.2263 13.2825 32.2908 13.3066 32.3957 13.154C34.0654 10.8414 35.7433 8.52885 37.4131 6.22427C38.0019 5.41326 38.5908 4.60224 39.1796 3.79122C39.2038 3.7591 39.22 3.71093 39.2764 3.7029C39.3571 3.7591 39.3248 3.84743 39.3248 3.9197C39.3248 8.41643 39.3248 12.9051 39.3248 17.4018C39.3248 17.6026 39.2764 17.6588 39.0748 17.6588C38.3407 17.6427 37.5986 17.6508 36.8645 17.6588C36.6951 17.6588 36.6629 17.6106 36.6629 17.45C36.6629 15.4988 36.6629 13.5475 36.6629 11.5963C36.6629 11.5722 36.6629 11.5561 36.6629 11.532C36.6548 11.4758 36.6871 11.3955 36.6225 11.3794C36.5419 11.3554 36.5177 11.4357 36.4854 11.4838C35.6465 12.6723 34.8076 13.8526 33.9767 15.0411C33.4443 15.8039 32.8958 16.5587 32.3715 17.3216C32.2505 17.4902 32.194 17.4741 32.0891 17.3216C30.7904 15.5229 29.4836 13.7242 28.1768 11.9255C28.1284 11.8612 28.1042 11.789 28.0155 11.7488V11.7247Z" fill="#F7F9FD"/>
<path id="Vector_2" d="M83.7384 12.2948C83.7384 12.1663 83.7384 12.086 83.7384 12.0137C83.7222 9.48431 83.7061 6.94687 83.6819 4.41746C83.6819 4.22475 83.7222 4.17657 83.9158 4.1846C84.666 4.20066 85.4162 4.19263 86.1745 4.1846C86.3116 4.1846 86.3761 4.20066 86.3761 4.36929C86.3761 8.92222 86.3761 13.4671 86.3761 18.0201C86.3761 18.0763 86.4084 18.1485 86.3519 18.1807C86.2793 18.2208 86.239 18.1325 86.1987 18.0923C83.8432 15.9805 81.4878 13.8686 79.1243 11.7487C78.4064 11.0983 77.6804 10.4559 76.9625 9.81353C76.9302 9.78945 76.8979 9.76536 76.8657 9.73324C76.8092 9.78944 76.8415 9.85368 76.8415 9.90186C76.8576 12.4152 76.8737 14.9205 76.8979 17.4339C76.8979 17.5945 76.8737 17.6587 76.6963 17.6507C75.9219 17.6346 75.1475 17.6427 74.3731 17.6507C74.2279 17.6507 74.1956 17.6105 74.1956 17.474C74.1956 12.9291 74.1956 8.38422 74.1956 3.84734C74.1956 3.79114 74.1553 3.70281 74.2279 3.67069C74.3247 3.63054 74.3731 3.7269 74.4215 3.77508C77.035 6.16798 79.6567 8.56088 82.2702 10.9538C82.7462 11.3874 83.2221 11.829 83.7464 12.3028L83.7384 12.2948Z" fill="#F7F9FD"/>
<path id="Vector_3" d="M57.6843 10.9297C57.6601 7.22793 60.798 4.04007 64.5651 4.03204C68.2031 4.03204 71.5185 7.09142 71.5104 10.9377C71.5104 14.776 68.3806 17.7872 64.5651 17.7872C60.6125 17.7872 57.6682 14.6234 57.6843 10.9297ZM68.7517 10.9698C68.7355 10.7129 68.7275 10.4961 68.7033 10.2793C68.6871 10.1508 68.6629 10.0223 68.6226 9.89385C68.2354 8.42438 67.4045 7.32429 65.9122 6.81841C64.7345 6.42494 63.5729 6.5213 62.5001 7.15566C60.669 8.23969 59.9188 10.6165 60.7577 12.5999C61.3224 13.9489 62.3468 14.8162 63.7665 15.1373C64.6538 15.3381 65.5573 15.2739 66.3882 14.8322C67.9531 13.9971 68.6871 12.6641 68.7436 10.9618L68.7517 10.9698Z" fill="#F7F9FD"/>
<path id="Vector_4" d="M48.8991 4.04004C52.5613 4.00792 55.8444 7.13154 55.8363 10.9457C55.8283 14.7198 52.7549 17.7791 48.9072 17.7872C45.003 17.7952 42.0022 14.6876 42.0103 10.9216C42.0103 7.18775 45.1643 4.00792 48.8991 4.04004ZM48.8265 15.2256C50.3995 15.2256 51.4804 14.6073 52.279 13.4912C53.0534 12.3991 53.255 11.1706 52.9485 9.88578C52.5855 8.40026 51.7143 7.30017 50.214 6.81034C49.0443 6.42491 47.8827 6.5293 46.826 7.16366C45.1804 8.1433 44.4383 10.1508 44.9062 12.0378C45.366 13.8766 47.1971 15.314 48.8265 15.2176V15.2256Z" fill="#F7F9FD"/>
<path id="Vector_5" d="M20.3762 14.0533C20.0213 13.5876 19.618 13.2263 19.1178 12.9854C18.9968 12.9292 19.0694 12.8489 19.0936 12.7846C19.3114 11.9575 19.4163 11.1224 19.4002 10.2632C19.3518 6.26437 16.4155 2.68305 12.4871 1.83188C7.60686 0.771941 2.92826 3.7189 1.81508 8.56894C0.742224 13.2423 3.81558 18.0522 8.52645 19.072C10.6399 19.5297 12.6565 19.2808 14.5844 18.3011C14.7135 18.2369 14.778 18.2449 14.8748 18.3573C15.0362 18.5581 15.2298 18.7267 15.4314 18.8793C15.6411 19.0319 15.8589 19.1523 16.0929 19.2647C13.4228 21.1357 8.42158 21.8825 4.28344 18.8713C-0.0724983 15.7155 -1.29055 9.71721 1.48435 5.10004C4.25924 0.466806 10.1156 -1.29976 15.0281 1.01284C19.9084 3.30938 22.2396 8.96241 20.3762 14.0533Z" fill="#F7F9FD"/>
<path id="Vector_6" d="M94.1608 4.12839C95.4918 4.11233 96.7583 4.58609 97.9602 5.30878C98.0731 5.38105 98.0812 5.44529 98.0328 5.5577C97.7504 6.12782 97.4681 6.69794 97.1858 7.2761C97.1213 7.4126 97.0567 7.43669 96.9196 7.36442C96.3549 7.05126 95.7661 6.80233 95.1449 6.64174C94.419 6.44902 93.6849 6.40887 92.9508 6.66582C92.0474 6.99505 91.9748 8.20756 92.5233 8.69738C92.9912 9.11493 93.5316 9.37992 94.0882 9.63688C94.7981 9.9661 95.5563 10.199 96.2259 10.6165C97.1939 11.2188 97.7666 12.078 97.9279 13.1941C98.1134 14.4949 97.7988 15.6432 96.8389 16.5747C96.3469 17.0565 95.7499 17.3777 95.0885 17.5624C93.9753 17.8595 92.854 17.8916 91.7328 17.6507C90.6922 17.4258 89.7242 17.0163 88.8369 16.4301C88.7159 16.3498 88.7482 16.2936 88.7966 16.2053C89.1354 15.6191 89.4742 15.041 89.8049 14.4548C89.8856 14.3022 89.9662 14.3504 90.063 14.4146C90.7083 14.8483 91.4101 15.1614 92.1684 15.3381C92.725 15.4666 93.2896 15.5308 93.8543 15.3863C94.3544 15.2658 94.8223 15.057 95.0643 14.5752C95.3789 13.9569 95.1449 13.2824 94.548 12.8408C93.935 12.3831 93.2332 12.1342 92.5475 11.8451C91.9345 11.5881 91.3537 11.283 90.8132 10.8976C89.813 10.1909 89.4016 9.20326 89.4177 8.00681C89.4258 7.30018 89.5871 6.62568 89.9662 6.02344C90.4583 5.22848 91.1762 4.7226 92.0555 4.43352C92.7088 4.20869 93.3864 4.12036 94.177 4.16051L94.1608 4.12839Z" fill="#F7F9FD"/>
<path id="Vector_7" d="M106.753 10.9055C106.753 8.73748 106.753 6.56138 106.753 4.39332C106.753 4.22469 106.785 4.17651 106.963 4.17651C109.649 4.17651 112.335 4.17651 115.021 4.17651C115.182 4.17651 115.231 4.20863 115.231 4.37726C115.223 5.09192 115.223 5.81461 115.231 6.52927C115.231 6.70592 115.182 6.74607 115.013 6.74607C113.23 6.74607 111.448 6.74607 109.673 6.73804C109.463 6.73804 109.431 6.80228 109.431 6.98697C109.439 7.85419 109.439 8.71339 109.431 9.58062C109.431 9.74924 109.471 9.79742 109.641 9.79742C111.173 9.79742 112.706 9.79742 114.239 9.78939C114.416 9.78939 114.448 9.83757 114.448 10.0062C114.44 10.7209 114.432 11.4275 114.448 12.1421C114.448 12.3349 114.384 12.3589 114.214 12.3589C112.706 12.3589 111.19 12.3589 109.681 12.3509C109.463 12.3509 109.423 12.4152 109.423 12.6159C109.431 14.2219 109.423 15.8279 109.431 17.4258C109.431 17.6105 109.383 17.6506 109.205 17.6506C108.463 17.6426 107.713 17.6346 106.971 17.6506C106.777 17.6506 106.753 17.5944 106.753 17.4178C106.753 15.2497 106.753 13.0736 106.753 10.9055Z" fill="#F7F9FD"/>
<path id="Vector_8" d="M122.709 12.2064C122.709 13.9408 122.709 15.6753 122.709 17.4097C122.709 17.6105 122.653 17.6426 122.467 17.6426C121.741 17.6346 121.007 17.6346 120.281 17.6426C120.096 17.6426 120.031 17.6105 120.031 17.4017C120.031 13.9328 120.031 10.4639 120.039 6.995C120.039 6.78622 119.991 6.73804 119.781 6.73804C118.877 6.7541 117.974 6.73804 117.063 6.74607C116.893 6.74607 116.861 6.69789 116.861 6.53729C116.869 5.81461 116.869 5.08389 116.861 4.3612C116.861 4.20863 116.909 4.17651 117.054 4.17651C119.975 4.17651 122.895 4.17651 125.815 4.17651C125.944 4.17651 126 4.19257 126 4.34514C125.992 5.08389 125.992 5.82264 126 6.56941C126 6.71395 125.96 6.74607 125.815 6.74607C124.847 6.74607 123.871 6.74607 122.903 6.74607C122.741 6.74607 122.701 6.77819 122.701 6.94682C122.701 8.70536 122.701 10.4559 122.701 12.2144L122.709 12.2064Z" fill="#F7F9FD"/>
<path id="Vector_9" d="M12.3258 17.2816C9.27663 17.7312 6.72759 16.848 4.97715 14.2864C3.38804 11.9658 3.33964 9.46851 4.71902 7.0194C6.20327 4.39363 9.30889 3.02053 12.3903 3.64686C11.9386 3.77533 11.5272 3.90381 11.14 4.10456C10.0994 4.63453 9.31696 5.42949 8.76037 6.44125C8.13924 7.58952 7.86498 8.82612 7.82465 10.1189C7.79238 11.1949 7.90531 12.2468 8.24411 13.2666C8.79263 14.9288 9.79289 16.2216 11.4385 16.9523C11.7289 17.0808 12.0354 17.1531 12.3258 17.2816Z" fill="#F7F9FD"/>
<path id="Vector_10" d="M100.598 10.9137C100.598 8.7456 100.598 6.57754 100.598 4.40145C100.598 4.2007 100.655 4.16858 100.84 4.16858C101.59 4.17661 102.341 4.17661 103.099 4.16858C103.244 4.16858 103.284 4.2007 103.284 4.34524C103.284 8.71348 103.284 13.0817 103.284 17.45C103.284 17.6106 103.228 17.6347 103.083 17.6347C102.324 17.6347 101.566 17.6266 100.808 17.6347C100.647 17.6347 100.606 17.5945 100.606 17.4339C100.606 15.2578 100.606 13.0817 100.606 10.9056L100.598 10.9137Z" fill="#F7F9FD"/>
<path id="Vector_11" d="M17.5285 18.2128C16.3186 18.2128 15.3748 17.2813 15.3667 16.0849C15.3667 14.8884 16.3186 13.9329 17.5043 13.9329C18.6982 13.9329 19.6662 14.8804 19.6662 16.0688C19.6662 17.2653 18.7305 18.2128 17.5285 18.2128Z" fill="#F4CB60"/>
</g>
</g>
</g>
</svg>
