<svg width="77" height="18" viewBox="0 0 77 18" fill="none" xmlns="http://www.w3.org/2000/svg">
<g id="Group">
<path id="Vector" d="M42.3222 0.480469H40.8555V16.6015H42.3222V0.480469Z" fill="#181818"/>
<path id="Vector_2" d="M61.0508 0.480469H65.7298V1.82419H64.1382V16.6015H62.6654V1.82419H61.0508V0.480469Z" fill="#181818"/>
<path id="Vector_3" d="M39.5132 0.480469V16.6015H37.9771L35.781 6.81126V16.6015H34.3398V0.480469H35.6653L38.0721 11.1603V0.480469H39.5132Z" fill="#181818"/>
<path id="Vector_4" d="M7.61972 0.480469V16.6015H6.17858V2.78313L4.40014 16.6015H3.2001L1.45027 2.78313V16.6015H0V0.480469H2.45365L3.85887 10.1995L5.18372 0.480469H7.61972Z" fill="#181818"/>
<path id="Vector_5" d="M25.4802 16.606C26.502 15.216 27.1183 13.57 27.2609 11.8509C27.4034 10.1317 27.0665 8.40665 26.2876 6.86743C25.5087 5.3282 24.3184 4.03506 22.8488 3.13166C21.3792 2.22827 19.6879 1.75 17.9628 1.75C16.2377 1.75 14.5464 2.22827 13.0768 3.13166C11.6072 4.03506 10.4168 5.3282 9.63795 6.86743C8.85907 8.40665 8.52219 10.1317 8.66472 11.8509C8.80725 13.57 9.42362 15.216 10.4454 16.606H12.3857C11.295 15.5045 10.5545 14.1049 10.2577 12.5835C9.96082 11.062 10.1208 9.48676 10.7175 8.05607C11.3142 6.62537 12.3209 5.40324 13.6109 4.5436C14.9008 3.68395 16.4163 3.22525 17.9664 3.22525C19.5166 3.22525 21.0321 3.68395 22.322 4.5436C23.6119 5.40324 24.6187 6.62537 25.2154 8.05607C25.8121 9.48676 25.9721 11.062 25.6752 12.5835C25.3783 14.1049 24.6379 15.5045 23.5471 16.606H25.4802Z" fill="#181818"/>
<path id="Vector_6" d="M71.0365 16.6023H69.6027L69.2234 12.9711H67.0778L66.7308 16.6023H65.2695L66.9189 0.482422H69.1558L71.0365 16.6023ZM69.0882 11.5153L68.1141 2.62617L67.2142 11.5153H69.0894H69.0882Z" fill="#181818"/>
<path id="Vector_7" d="M53.5161 14.5546C53.5407 14.6889 53.5354 14.827 53.5007 14.9591C53.466 15.0911 53.4027 15.2139 53.3153 15.3188C53.2279 15.4237 53.1185 15.5081 52.9948 15.566C52.8712 15.6239 52.7363 15.6539 52.5998 15.6539C52.4632 15.6539 52.3284 15.6239 52.2047 15.566C52.0811 15.5081 51.9716 15.4237 51.8842 15.3188C51.7968 15.2139 51.7335 15.0911 51.6988 14.9591C51.6641 14.827 51.6589 14.6889 51.6834 14.5546V2.3777C51.6589 2.24339 51.6641 2.10533 51.6988 1.97327C51.7335 1.84122 51.7968 1.7184 51.8842 1.61353C51.9716 1.50865 52.0811 1.42427 52.2047 1.36637C52.3284 1.30847 52.4632 1.27845 52.5998 1.27845C52.7363 1.27845 52.8712 1.30847 52.9948 1.36637C53.1185 1.42427 53.2279 1.50865 53.3153 1.61353C53.4027 1.7184 53.466 1.84122 53.5007 1.97327C53.5354 2.10533 53.5407 2.24339 53.5161 2.3777L53.5124 2.95976V5.99912H54.987V3.65689V2.97924C54.9767 0.970044 54.1907 0.0117188 52.5517 0.0117188C51.0904 0.0117188 50.1406 1.04676 50.1406 2.63828V3.23008V13.3211V13.9744C50.1406 16.0402 50.9419 17.0473 52.5864 17.0473C54.2309 17.0473 54.9895 16.0585 54.9895 13.9318V8.06676H52.2771V9.47868H53.51V14.0201L53.5161 14.5546Z" fill="#181818"/>
<path id="Vector_8" d="M59.5582 14.1691V9.97779L56.1992 7.4669V2.78243C56.1992 0.941277 57.0279 0 58.6498 0C60.298 0 61.0475 0.933971 61.0566 3.00405L61.0609 3.64639V6.02332H59.5582V2.8354L59.5552 2.37877C59.5807 2.24519 59.5765 2.10763 59.5427 1.97589C59.5089 1.84416 59.4465 1.72151 59.3598 1.61671C59.2731 1.5119 59.1644 1.42753 59.0414 1.36961C58.9183 1.31169 58.784 1.28166 58.648 1.28166C58.512 1.28166 58.3777 1.31169 58.2546 1.36961C58.1316 1.42753 58.0229 1.5119 57.9362 1.61671C57.8495 1.72151 57.7871 1.84416 57.7533 1.97589C57.7195 2.10763 57.7153 2.24519 57.7408 2.37877V6.76612L61.0603 9.27396V14.121C61.0603 16.0157 60.2164 17.0307 58.6401 17.0307C57.0431 17.0307 56.2126 16.0742 56.2047 14.2257V13.5882V10.4332H57.7414V14.5557C57.7159 14.6893 57.7202 14.8268 57.7539 14.9586C57.7877 15.0903 57.8502 15.213 57.9368 15.3178C58.0235 15.4226 58.1322 15.5069 58.2553 15.5649C58.3783 15.6228 58.5126 15.6528 58.6486 15.6528C58.7846 15.6528 58.9189 15.6228 59.042 15.5649C59.165 15.5069 59.2737 15.4226 59.3604 15.3178C59.4471 15.213 59.5095 15.0903 59.5433 14.9586C59.5771 14.8268 59.5813 14.6893 59.5558 14.5557L59.5582 14.1691Z" fill="#181818"/>
<path id="Vector_9" d="M33.4434 16.6023H31.9736C31.7701 16.0475 31.6691 15.4604 31.6753 14.8695L31.6631 14.0451L31.6588 13.6262V10.4791C31.6746 10.3572 31.6638 10.2333 31.6272 10.1159C31.5905 9.99857 31.529 9.89052 31.4467 9.7992C31.3644 9.70788 31.2633 9.63544 31.1504 9.58685C31.0374 9.53826 30.9153 9.51468 30.7924 9.51771H29.7434V16.6023H28.3047V0.482422H30.1824C32.2914 0.482422 33.1048 1.25383 33.1048 3.316V6.34379C33.1048 7.7003 32.8783 8.26897 31.8165 8.66046C31.8317 8.66472 31.8464 8.67141 31.861 8.67568C32.8637 8.96792 33.0884 9.34541 33.1 10.6203L33.1048 11.206V14.148C33.0703 14.9797 33.1849 15.8109 33.4434 16.6023ZM29.7434 1.75065V8.13502H30.2585C30.4463 8.16796 30.6392 8.15586 30.8214 8.09974C31.0036 8.04361 31.1698 7.94505 31.3065 7.81216C31.4432 7.67927 31.5464 7.51584 31.6077 7.3353C31.6689 7.15476 31.6864 6.96227 31.6588 6.77364V3.48586C31.6588 2.16223 31.3544 1.74822 30.3729 1.74822H29.7434V1.75065Z" fill="#181818"/>
<path id="Vector_10" d="M76.5572 16.6023H75.0863C74.8827 16.0475 74.7819 15.4603 74.7885 14.8695L74.7764 14.0451L74.7709 13.6268V10.4791C74.7866 10.3572 74.7758 10.2334 74.7393 10.1161C74.7027 9.99876 74.6412 9.89075 74.5589 9.79944C74.4767 9.70813 74.3757 9.63567 74.2628 9.58705C74.15 9.53842 74.028 9.51477 73.9051 9.51771H72.8573V16.6023H71.418V0.482422H73.2963C75.4053 0.482422 76.2187 1.25383 76.2187 3.316V6.34379C76.2187 7.7003 75.9916 8.26897 74.9322 8.66046C74.9462 8.66472 74.9609 8.67141 74.9767 8.67568C75.9788 8.96792 76.2041 9.34541 76.2157 10.6203L76.2193 11.206V14.148C76.1843 14.9797 76.2987 15.811 76.5572 16.6023ZM72.8573 1.75065V8.13502H73.3742C73.5617 8.1673 73.7542 8.15471 73.9359 8.09829C74.1176 8.04187 74.2834 7.94322 74.4196 7.81041C74.5559 7.67761 74.6587 7.51442 74.7198 7.33422C74.7808 7.15401 74.7984 6.96191 74.7709 6.77364V3.48586C74.7709 2.16223 74.4665 1.74822 73.485 1.74822H72.8573V1.75065Z" fill="#181818"/>
<path id="Vector_11" d="M48.8095 0.480469V16.6015H47.274L45.0779 6.81126V16.6015H43.6367V0.480469H44.9622L47.3683 11.1603V0.480469H48.8095Z" fill="#181818"/>
</g>
</svg>
