<svg width="116" height="55" viewBox="0 0 116 55" fill="none" xmlns="http://www.w3.org/2000/svg">
<g id="Layer 1-2">
<g id="Group">
<path id="Vector" d="M64.759 12.447H64.7409C63.7105 13.4857 62.6441 14.5245 61.6499 15.599C61.3245 15.9572 60.9991 16.4408 60.8906 16.9064C59.1553 24.5 57.4562 32.0937 55.757 39.6873C55.7209 39.8843 55.7209 40.0813 55.6848 40.332H60.8364C63.0056 30.7325 65.1747 21.151 67.3619 11.444C68.6996 11.1575 70.0191 10.8351 71.3568 10.6202C72.2063 10.4769 72.4956 10.7277 72.8932 11.5515C72.8029 11.8201 72.6944 12.1425 72.604 12.4649C72.2425 13.6827 72.9836 14.5603 74.267 14.3454C75.1166 14.2021 75.9481 13.9514 76.7435 13.629C79.6176 12.5007 82.4555 11.2828 85.3296 10.1725C87.9145 9.18744 90.5717 8.52479 93.3735 8.52479H96.3018C95.5426 7.62931 94.7473 7.12785 93.8616 6.75175C91.2405 5.62345 88.4929 5.62345 85.7454 5.92791C83.8835 6.14283 82.0217 6.55475 80.1598 6.82339C79.6537 6.89503 79.0934 6.91294 78.6053 6.78757C77.8823 6.60847 77.7015 6.10701 78.0088 5.42645C78.1534 5.12199 78.3522 4.83544 78.4969 4.53098C78.8584 3.76087 78.6415 3.18776 77.828 2.93703C77.3761 2.79376 76.8519 2.72212 76.3638 2.79376C74.8454 3.00867 73.309 3.27731 71.8087 3.56386C70.9229 3.72505 70.0372 3.97578 69.0249 4.2086C69.278 3.00867 69.4769 1.96992 69.6938 0.877443H64.5059C64.1263 2.50721 63.7648 4.08324 63.3852 5.69509C62.7525 5.85628 62.156 6.05328 61.5595 6.16074C61.0715 6.25029 60.4568 6.35774 60.2218 5.83837C60.0592 5.44436 60.1315 4.90707 60.258 4.45934C60.4026 3.95787 60.7461 3.52804 60.9268 3.0624C61.4149 1.82664 60.8364 0.555072 59.553 0.214792C58.7396 -0.000121737 57.8358 -0.0359407 56.9862 0.0177877C54.2567 0.214792 51.6718 1.09236 49.0689 1.89828C47.3697 2.43557 45.6886 3.02658 44.0075 3.59968C43.1579 7.36067 42.3445 11.0142 41.4769 14.8289C42.0192 14.5782 42.3807 14.417 42.7422 14.2558C45.1825 13.235 47.6227 12.1783 50.0992 11.2112C50.768 10.9426 51.5453 10.8351 52.2683 10.7814C52.6841 10.7456 53.1179 10.9784 53.6602 11.1396C53.5336 11.641 53.4614 11.9813 53.3348 12.3037C53.2444 12.5365 53.0637 12.7156 52.9371 12.9305C52.4129 13.8797 52.7745 14.7215 53.8591 14.9185C54.311 15.008 54.799 14.9901 55.2329 14.8827C58.0527 14.1663 60.8365 13.3962 63.6383 12.644C63.9817 12.5544 64.3613 12.5186 64.7047 12.4649L64.759 12.447ZM9.97015 40.3141C12.1393 34.601 13.4407 28.6909 14.9591 22.8345C15.0314 22.8345 15.0857 22.8345 15.158 22.8345C15.4111 28.655 15.6461 34.4756 15.8991 40.2962H20.3458C23.1657 34.9234 25.9856 29.5684 28.8236 24.2135C28.8778 24.2314 28.9501 24.2672 29.0043 24.2851C28.5524 26.1835 28.1367 28.0819 27.6667 29.9803C26.9618 32.8459 26.3652 35.7114 26.6364 38.7023C26.9979 42.5886 29.3839 45.3467 33.0715 45.9735C35.0056 46.2959 36.8494 46.081 38.3497 44.6482C38.6389 44.3796 38.8377 44.0214 39.145 43.6095C38.7474 43.5557 38.5305 43.5199 38.3135 43.4841C35.2406 42.9468 33.3065 41.12 32.8003 38.1829C32.6196 37.1083 32.5472 35.98 32.6557 34.8875C32.8726 32.9712 33.1619 31.0549 33.5957 29.1744C35.4575 21.0793 37.3736 13.0022 39.2716 4.92498C39.3439 4.60261 39.3801 4.28024 39.4524 3.88623H33.2161C29.0043 11.838 24.7926 19.7898 20.5808 27.7417C20.4905 27.7237 20.4181 27.6879 20.3278 27.67C20.1108 19.7719 19.8939 11.8739 19.6589 3.93996C16.5137 4.72798 15.2665 4.72798 12.1754 3.97578C10.6751 3.61759 9.1748 3.22358 7.65641 2.95494C5.88494 2.65048 4.14962 2.79376 2.50469 3.59968C1.99856 3.85042 1.70936 4.20861 1.56475 4.7638C1.13092 6.4652 0.660943 8.13078 0.209039 9.83218C0.15481 10.0113 0.154795 10.2083 0.136719 10.4232C0.769384 10.1904 1.31164 9.95755 1.85392 9.79636C5.36069 8.77552 8.50596 10.3874 11.8681 11.0321C11.7958 11.4261 11.7597 11.7306 11.6874 12.0171C10.7293 16.1005 9.77129 20.1839 8.81325 24.2672C7.566 29.6222 6.17413 34.9054 3.78808 39.9022C3.73385 40.0096 3.73386 40.1171 3.67963 40.2962H9.97015V40.3141ZM105.575 38.2008C104.78 43.1617 103.098 47.46 98.1275 49.1793C92.307 51.1852 87.3722 49.6091 83.6124 44.3079C83.5582 44.8452 83.5039 45.1676 83.5039 45.4899C83.5762 48.9107 85.2573 51.4001 88.1133 53.191C89.9932 54.373 92.0901 54.8029 94.2773 54.9462C97.5491 55.179 100.532 54.4089 103.207 52.5463C106.678 50.1285 108.847 46.8153 109.787 42.7498C111.504 35.389 113.149 27.9924 114.812 20.6137C115.065 19.4854 115.318 18.3571 115.571 17.1392H110.401C110.329 17.39 110.239 17.587 110.202 17.8019C109.588 20.542 109.027 23.318 108.341 26.0403C107.816 28.0819 107.184 30.0878 106.515 32.0937C106.171 33.0966 105.466 33.9025 104.563 34.4935C103.514 35.1741 102.375 34.6905 102.213 33.4548C102.14 32.8638 102.177 32.219 102.303 31.628C102.574 30.2848 102.954 28.9416 103.225 27.5984C103.731 25.109 104.219 22.6195 104.653 20.1122C104.906 18.6974 104.31 17.587 103.062 16.8527C101.761 16.0826 100.441 16.1363 99.0313 16.799C99.664 18.8406 99.4652 20.8465 99.0313 22.8345C98.471 25.4134 97.8745 27.9745 97.278 30.5355C96.8622 32.3623 96.4645 34.1891 96.6453 36.0696C96.8803 38.4873 98.2903 40.0634 100.532 40.2783C102.05 40.4216 103.406 39.9559 104.563 38.9888C104.834 38.756 105.105 38.5232 105.539 38.165L105.575 38.2008ZM97.8745 43.4841C97.4768 43.3587 97.2418 43.2692 97.0068 43.2154C94.2954 42.5707 92.7951 40.8156 92.2528 38.165C91.837 36.0875 92.054 34.01 92.4517 31.9504C92.9759 29.2819 93.6085 26.6134 94.1146 23.9448C94.3858 22.5479 94.3316 21.1331 93.8074 19.7719C93.3012 18.4645 92.4155 17.5153 90.9875 17.2288C89.0714 16.8348 87.3722 17.3363 85.9442 18.6795C85.6369 18.966 85.3477 19.2526 84.95 19.6645C84.7331 18.1959 84.1185 17.193 82.8532 16.6736C81.624 16.1721 80.431 16.1721 79.2018 16.799C79.7802 18.8944 79.6356 20.9002 79.2018 22.8882C78.063 27.9387 76.9242 32.9891 75.7854 38.0396C75.6227 38.7739 75.4781 39.5082 75.2973 40.3141H80.4671C80.5395 40.0455 80.6298 39.7768 80.6841 39.5261C81.3709 36.5352 81.9855 33.5443 82.7267 30.5714C83.1966 28.7088 83.8112 26.882 84.4801 25.0731C84.8416 24.106 85.5465 23.3538 86.5046 22.8882C87.5349 22.3867 88.493 22.8166 88.6556 23.9448C88.728 24.4821 88.6918 25.0552 88.5833 25.5746C88.1857 27.5626 87.7337 29.5326 87.2818 31.5026C86.7215 33.9204 86.2696 36.3561 86.4684 38.8634C86.8119 43.2334 89.7945 45.9377 94.1508 45.7049C95.7054 45.6153 96.9887 45.0064 97.8925 43.502L97.8745 43.4841ZM41.025 17.1392C40.9346 17.4437 40.8442 17.7661 40.7719 18.0884C39.8681 22.0823 38.9462 26.094 38.0605 30.0878C37.6628 31.9146 37.1567 33.7234 37.2652 35.6218C37.4278 38.7023 39.3078 40.6007 42.1276 40.2783C43.0495 40.1708 43.9171 39.6873 44.8029 39.347C45.0379 39.2574 45.2367 39.0604 45.5621 38.8455C45.5079 39.4007 45.4537 39.8126 45.3994 40.2783H51.0572C52.7925 32.5593 54.564 24.894 56.2451 17.1392H51.0753C50.9849 17.4258 50.8945 17.6586 50.8403 17.8914C50.2076 20.7032 49.6292 23.515 48.9423 26.3089C48.4543 28.261 47.8216 30.1953 47.1709 32.0937C46.8455 33.025 46.1947 33.7951 45.3632 34.3682C44.2064 35.1741 43.0314 34.7263 42.8326 33.3652C42.7784 32.9175 42.8326 32.4519 42.9229 32.0041C43.9352 27.3656 44.9656 22.7449 45.9959 18.1064C46.0501 17.8198 46.0863 17.5153 46.1586 17.1392H41.025ZM70.6518 17.1392C68.9165 24.8403 67.1812 32.5414 65.4278 40.2962H70.6699C72.4052 32.5951 74.1405 24.912 75.8939 17.1392H70.6518Z" fill="#8352A1"/>
<path id="Vector_2" d="M64.7572 12.4469L64.7031 12.429L64.7212 12.4469H64.7572Z" fill="#8352A1"/>
</g>
</g>
</svg>
