<svg width="192" height="28" viewBox="0 0 192 28" fill="none" xmlns="http://www.w3.org/2000/svg">
<rect x="2.23889" y="1.23389" width="11.4665" height="25" fill="#7AD6EB"/>
<rect x="2.23889" y="1.23389" width="11.4665" height="25" stroke="#131144" stroke-width="0.5"/>
<rect x="2.23889" y="1.23389" width="11.4665" height="25" stroke="#131144" stroke-width="0.5"/>
<rect x="2.23889" y="1.23389" width="11.4665" height="25" stroke="#131144" stroke-width="0.5"/>
<rect x="13.7054" y="1.23389" width="11.4665" height="25" fill="#7AC7C0"/>
<rect x="13.7054" y="1.23389" width="11.4665" height="25" stroke="#131144" stroke-width="0.5"/>
<rect x="13.7054" y="1.23389" width="11.4665" height="25" stroke="#131144" stroke-width="0.5"/>
<rect x="13.7054" y="1.23389" width="11.4665" height="25" stroke="#131144" stroke-width="0.5"/>
<rect x="25.1719" y="1.23389" width="11.4665" height="25" fill="#61BB73" fill-opacity="0.35"/>
<rect x="25.1719" y="1.23389" width="11.4665" height="25" stroke="#131144" stroke-width="0.5"/>
<rect x="25.1719" y="1.23389" width="11.4665" height="25" stroke="#131144" stroke-width="0.5"/>
<rect x="25.1719" y="1.23389" width="11.4665" height="25" stroke="#131144" stroke-width="0.5"/>
<rect x="36.6384" y="1.23389" width="11.4665" height="25" fill="#BCF0A7"/>
<rect x="36.6384" y="1.23389" width="11.4665" height="25" stroke="#131144" stroke-width="0.5"/>
<rect x="36.6384" y="1.23389" width="11.4665" height="25" stroke="#131144" stroke-width="0.5"/>
<rect x="36.6384" y="1.23389" width="11.4665" height="25" stroke="#131144" stroke-width="0.5"/>
<rect x="96.2389" y="1.23389" width="11.4665" height="25" fill="#7AD6EB"/>
<rect x="96.2389" y="1.23389" width="11.4665" height="25" stroke="#131144" stroke-width="0.5"/>
<rect x="96.2389" y="1.23389" width="11.4665" height="25" stroke="#131144" stroke-width="0.5"/>
<rect x="96.2389" y="1.23389" width="11.4665" height="25" stroke="#131144" stroke-width="0.5"/>
<rect x="107.705" y="1.23389" width="11.4665" height="25" fill="#7AC7C0"/>
<rect x="107.705" y="1.23389" width="11.4665" height="25" stroke="#131144" stroke-width="0.5"/>
<rect x="107.705" y="1.23389" width="11.4665" height="25" stroke="#131144" stroke-width="0.5"/>
<rect x="107.705" y="1.23389" width="11.4665" height="25" stroke="#131144" stroke-width="0.5"/>
<rect x="119.172" y="1.23389" width="11.4665" height="25" fill="#BCF0A7"/>
<rect x="119.172" y="1.23389" width="11.4665" height="25" stroke="#131144" stroke-width="0.5"/>
<rect x="119.172" y="1.23389" width="11.4665" height="25" stroke="#131144" stroke-width="0.5"/>
<rect x="119.172" y="1.23389" width="11.4665" height="25" stroke="#131144" stroke-width="0.5"/>
<rect x="130.638" y="1.23389" width="11.4665" height="25" fill="#BCF0A7"/>
<rect x="130.638" y="1.23389" width="11.4665" height="25" stroke="#131144" stroke-width="0.5"/>
<rect x="130.638" y="1.23389" width="11.4665" height="25" stroke="#131144" stroke-width="0.5"/>
<rect x="130.638" y="1.23389" width="11.4665" height="25" stroke="#131144" stroke-width="0.5"/>
<rect x="143.373" y="1.23389" width="11.4665" height="25" fill="#DAF5CF"/>
<rect x="143.373" y="1.23389" width="11.4665" height="25" stroke="#131144" stroke-width="0.5"/>
<rect x="143.373" y="1.23389" width="11.4665" height="25" stroke="#131144" stroke-width="0.5"/>
<rect x="143.373" y="1.23389" width="11.4665" height="25" stroke="#131144" stroke-width="0.5"/>
<rect x="154.839" y="1.23389" width="11.4665" height="25" fill="#55CBDE"/>
<rect x="154.839" y="1.23389" width="11.4665" height="25" stroke="#131144" stroke-width="0.5"/>
<rect x="154.839" y="1.23389" width="11.4665" height="25" stroke="#131144" stroke-width="0.5"/>
<rect x="154.839" y="1.23389" width="11.4665" height="25" stroke="#131144" stroke-width="0.5"/>
<rect x="166.306" y="1.23389" width="11.4665" height="25" fill="#A7E9F8"/>
<rect x="166.306" y="1.23389" width="11.4665" height="25" stroke="#131144" stroke-width="0.5"/>
<rect x="166.306" y="1.23389" width="11.4665" height="25" stroke="#131144" stroke-width="0.5"/>
<rect x="166.306" y="1.23389" width="11.4665" height="25" stroke="#131144" stroke-width="0.5"/>
<rect x="177.772" y="1.23389" width="11.4665" height="25" fill="#61B973"/>
<rect x="177.772" y="1.23389" width="11.4665" height="25" stroke="#131144" stroke-width="0.5"/>
<rect x="177.772" y="1.23389" width="11.4665" height="25" stroke="#131144" stroke-width="0.5"/>
<rect x="177.772" y="1.23389" width="11.4665" height="25" stroke="#131144" stroke-width="0.5"/>
<rect x="49.9502" y="1.23389" width="11.4665" height="25" fill="#DAF5CF"/>
<rect x="49.9502" y="1.23389" width="11.4665" height="25" stroke="#131144" stroke-width="0.5"/>
<rect x="49.9502" y="1.23389" width="11.4665" height="25" stroke="#131144" stroke-width="0.5"/>
<rect x="49.9502" y="1.23389" width="11.4665" height="25" stroke="#131144" stroke-width="0.5"/>
<rect x="61.4167" y="1.23389" width="11.4665" height="25" fill="#7AC7C0"/>
<rect x="61.4167" y="1.23389" width="11.4665" height="25" stroke="#131144" stroke-width="0.5"/>
<rect x="61.4167" y="1.23389" width="11.4665" height="25" stroke="#131144" stroke-width="0.5"/>
<rect x="61.4167" y="1.23389" width="11.4665" height="25" stroke="#131144" stroke-width="0.5"/>
<rect x="72.8832" y="1.23389" width="11.4665" height="25" fill="#A7E9F8"/>
<rect x="72.8832" y="1.23389" width="11.4665" height="25" stroke="#131144" stroke-width="0.5"/>
<rect x="72.8832" y="1.23389" width="11.4665" height="25" stroke="#131144" stroke-width="0.5"/>
<rect x="72.8832" y="1.23389" width="11.4665" height="25" stroke="#131144" stroke-width="0.5"/>
<rect x="84.3498" y="1.23389" width="11.4665" height="25" fill="#61B973"/>
<rect x="84.3498" y="1.23389" width="11.4665" height="25" stroke="#131144" stroke-width="0.5"/>
<rect x="84.3498" y="1.23389" width="11.4665" height="25" stroke="#131144" stroke-width="0.5"/>
<rect x="84.3498" y="1.23389" width="11.4665" height="25" stroke="#131144" stroke-width="0.5"/>
<rect x="1.23889" y="1.23389" width="48" height="25" stroke="#131144" stroke-width="2"/>
<rect x="49.2389" y="1.23389" width="47" height="25" stroke="#131144" stroke-width="2"/>
<rect x="96.2389" y="1.23389" width="46" height="25" stroke="#131144" stroke-width="2"/>
<rect x="142.239" y="1.23389" width="48" height="25" stroke="#131144" stroke-width="2"/>
</svg>
