<svg width="213" height="62" viewBox="0 0 213 62" fill="none" xmlns="http://www.w3.org/2000/svg">
<path d="M121.132 39.1537V22.9282C121.132 21.9156 120.596 20.9773 119.723 20.471L105.761 12.3583C104.888 11.8519 103.811 11.8519 102.942 12.3583L88.9798 20.471C88.1068 20.9773 87.5703 21.9156 87.5703 22.9282V39.1537C87.5703 40.1663 88.1068 41.1046 88.9798 41.6109L102.942 49.7236C103.815 50.23 104.891 50.23 105.761 49.7236L119.723 41.6109C120.596 41.1046 121.132 40.1663 121.132 39.1537Z" fill="#61B973"/>
<path d="M104.35 50.4749C103.799 50.4749 103.248 50.3334 102.756 50.0467L88.7937 41.934C87.8097 41.3607 87.1992 40.2958 87.1992 39.1528V22.9274C87.1992 21.7844 87.8097 20.7196 88.7937 20.1462L102.756 12.0335C103.74 11.4602 104.96 11.4602 105.945 12.0335L119.906 20.1462C120.891 20.7196 121.501 21.7844 121.501 22.9274V39.1528C121.501 40.2958 120.891 41.3607 119.906 41.934L105.945 50.0467C105.453 50.3334 104.901 50.4749 104.35 50.4749ZM104.35 12.35C103.925 12.35 103.503 12.458 103.126 12.6776L89.1637 20.7903C88.409 21.2297 87.9391 22.0488 87.9391 22.9274V39.1528C87.9391 40.0315 88.409 40.8506 89.1637 41.2899L103.126 49.4026C103.88 49.8419 104.82 49.8419 105.575 49.4026L119.537 41.2899C120.291 40.8506 120.761 40.0315 120.761 39.1528V22.9274C120.761 22.0488 120.291 21.2297 119.537 20.7903L105.575 12.6776C105.197 12.458 104.772 12.35 104.35 12.35Z" fill="#130C49"/>
<path d="M103.836 33.8259C102.06 33.8259 100.617 32.3739 100.617 30.5868C100.617 28.7997 102.06 27.3477 103.836 27.3477C105.611 27.3477 107.054 28.7997 107.054 30.5868C107.054 32.3739 105.611 33.8259 103.836 33.8259ZM103.836 28.0923C102.471 28.0923 101.357 29.2092 101.357 30.5868C101.357 31.9643 102.467 33.0813 103.836 33.0813C105.205 33.0813 106.314 31.9643 106.314 30.5868C106.314 29.2092 105.205 28.0923 103.836 28.0923Z" fill="#130C49"/>
<path d="M103.836 24.6736C102.06 24.6736 100.617 23.2215 100.617 21.4344C100.617 19.6473 102.06 18.1953 103.836 18.1953C105.611 18.1953 107.054 19.6473 107.054 21.4344C107.054 23.2215 105.611 24.6736 103.836 24.6736ZM103.836 18.9399C102.471 18.9399 101.357 20.0569 101.357 21.4344C101.357 22.812 102.467 23.9289 103.836 23.9289C105.205 23.9289 106.314 22.812 106.314 21.4344C106.314 20.0569 105.205 18.9399 103.836 18.9399Z" fill="#130C49"/>
<path d="M113.086 33.8259C111.31 33.8259 109.867 32.3739 109.867 30.5868C109.867 28.7997 111.31 27.3477 113.086 27.3477C114.861 27.3477 116.304 28.7997 116.304 30.5868C116.304 32.3739 114.861 33.8259 113.086 33.8259ZM113.086 28.0923C111.721 28.0923 110.607 29.2092 110.607 30.5868C110.607 31.9643 111.717 33.0813 113.086 33.0813C114.455 33.0813 115.564 31.9643 115.564 30.5868C115.564 29.2092 114.455 28.0923 113.086 28.0923Z" fill="#130C49"/>
<path d="M97.8084 41.4509C96.0326 41.4509 94.5898 39.9989 94.5898 38.2118C94.5898 36.4247 96.0326 34.9727 97.8084 34.9727C99.5842 34.9727 101.027 36.4247 101.027 38.2118C101.027 39.9989 99.5842 41.4509 97.8084 41.4509ZM97.8084 35.721C96.4433 35.721 95.3297 36.8379 95.3297 38.2155C95.3297 39.5931 96.4396 40.71 97.8084 40.71C99.1772 40.71 100.287 39.5931 100.287 38.2155C100.287 36.8379 99.1772 35.721 97.8084 35.721Z" fill="#130C49"/>
<path d="M107.758 42.4138C105.982 42.4138 104.539 40.9618 104.539 39.1747C104.539 37.3876 105.982 35.9355 107.758 35.9355C109.533 35.9355 110.976 37.3876 110.976 39.1747C110.976 40.9618 109.533 42.4138 107.758 42.4138ZM107.758 36.6802C106.392 36.6802 105.279 37.7971 105.279 39.1747C105.279 40.5522 106.389 41.6692 107.758 41.6692C109.126 41.6692 110.236 40.5522 110.236 39.1747C110.236 37.7971 109.126 36.6802 107.758 36.6802Z" fill="#130C49"/>
<path d="M110.243 30.2129H106.684V30.9575H110.243V30.2129Z" fill="#130C49"/>
<path d="M105.465 33.0653L104.789 33.3672L106.232 36.6412L106.908 36.3393L105.465 33.0653Z" fill="#130C49"/>
<path d="M104.205 24.1367H103.465V27.7184H104.205V24.1367Z" fill="#130C49"/>
<path d="M101.43 32.5981L99.3125 35.4766L99.9071 35.9197L102.025 33.0413L101.43 32.5981Z" fill="#130C49"/>
<path d="M81.5847 30.2773H54.4414V31.022H81.5847V30.2773Z" fill="#130C49"/>
<path d="M79.622 33.0845L79.2188 32.6489L81.3571 30.6496L79.2188 28.6503L79.622 28.2109L82.2265 30.6496L79.622 33.0845Z" fill="#130C49"/>
<path d="M154.725 30.9629H127.582V31.7075H154.725V30.9629Z" fill="#130C49"/>
<path d="M152.767 33.7702L152.363 33.3346L154.502 31.3353L152.363 29.336L152.767 28.9004L155.367 31.3353L152.767 33.7702Z" fill="#130C49"/>
<path d="M17.0626 43.5011L4.48055 35.1539C4.38436 35.0868 4.25858 35.0868 4.15869 35.139C4.05881 35.1948 3.99219 35.3028 3.99219 35.4182V52.109C3.99219 52.2244 4.05511 52.3324 4.15869 52.3882C4.20309 52.4106 4.25489 52.4255 4.30668 52.4255C4.36587 52.4255 4.42505 52.4069 4.47684 52.3733L17.0589 44.0261C17.1476 43.9702 17.1994 43.8697 17.1994 43.7617C17.1994 43.6538 17.1439 43.557 17.0589 43.4974L17.0626 43.5011Z" fill="#A590DD"/>
<path d="M4.3094 52.7984C4.20211 52.7984 4.09113 52.7723 3.99125 52.7202C3.76188 52.5936 3.625 52.3628 3.625 52.1096V35.4188C3.625 35.1693 3.76191 34.9348 3.98018 34.8156C4.20585 34.6928 4.47588 34.7077 4.68305 34.8491L17.2614 43.1927C17.4537 43.3193 17.5684 43.5352 17.5684 43.766C17.5684 43.9969 17.4537 44.2128 17.2577 44.3394L4.67935 52.6829C4.57206 52.7574 4.43892 52.7984 4.30204 52.7984H4.3094ZM4.3649 35.5267V52.0053L16.7842 43.766L4.3649 35.5267Z" fill="#130C49"/>
<path d="M23.6927 10.5967V25.4148C23.6927 26.2786 22.9972 26.9822 22.1353 26.9822H2.56488C1.7029 26.9822 1 26.2786 1 25.4148V10.5967C1 9.73297 1.6992 9.0293 2.56488 9.0293H22.1353C22.9972 9.0293 23.6927 9.73297 23.6927 10.5967ZM23.1674 25.1467V10.727C23.1674 10.0829 22.6495 9.55798 22.0095 9.55798H2.67959C2.03957 9.55798 1.52164 10.0867 1.52164 10.727V20.8763L7.23735 15.1241L14.6696 22.548L17.67 19.5025L23.1674 25.1505V25.1467Z" fill="#130C49"/>
<path d="M23.1692 10.7275V25.1472L17.6718 19.4992L14.6714 22.5447L7.23915 15.1208L1.52344 20.873V10.7238C1.52344 10.0797 2.04137 9.55469 2.68138 9.55469H22.0113C22.6513 9.55469 23.1692 10.0834 23.1692 10.7238V10.7275Z" fill="#7AD6EB"/>
<path d="M22.1353 9.0293H2.56488C1.7029 9.0293 1 9.73297 1 10.5967V25.4148C1 26.2786 1.6992 26.9822 2.56488 26.9822H22.1353C22.9972 26.9822 23.6927 26.2786 23.6927 25.4148V10.5967C23.6927 9.73297 22.9972 9.0293 22.1353 9.0293Z" stroke="#130C49" stroke-miterlimit="10"/>
<path d="M23.1692 25.1472L17.6718 19.4992L14.6714 22.5447L7.23915 15.1208L1.52344 20.873V10.7238C1.52344 10.0797 2.04137 9.55469 2.68138 9.55469H22.0113C22.6513 9.55469 23.1692 10.0834 23.1692 10.7238V25.1434V25.1472Z" stroke="#130C49" stroke-miterlimit="10"/>
<path d="M14.5369 12.5918C13.6305 12.5918 12.8906 13.3327 12.8906 14.2486C12.8906 15.1645 13.6305 15.9091 14.5369 15.9091C15.4433 15.9091 16.1869 15.1645 16.1869 14.2486C16.1869 13.3327 15.447 12.5918 14.5369 12.5918Z" fill="#130C49"/>
<path d="M33.541 36.8906C33.0194 36.8906 32.5977 37.3151 32.5977 37.84V50.0668C32.5977 50.5918 33.0194 51.0162 33.541 51.0162C34.0626 51.0162 34.4844 50.5918 34.4844 50.0668V37.84C34.4844 37.3151 34.0626 36.8906 33.541 36.8906Z" fill="#130C49"/>
<path d="M37.8184 38.9316C37.2968 38.9316 36.875 39.3561 36.875 39.881V48.0273C36.875 48.5522 37.2968 48.9767 37.8184 48.9767C38.34 48.9767 38.7618 48.5522 38.7618 48.0273V39.881C38.7618 39.3561 38.34 38.9316 37.8184 38.9316Z" fill="#130C49"/>
<path d="M46.3731 38.9316C45.8514 38.9316 45.4297 39.3561 45.4297 39.881V48.0273C45.4297 48.5522 45.8514 48.9767 46.3731 48.9767C46.8947 48.9767 47.3164 48.5522 47.3164 48.0273V39.881C47.3164 39.3561 46.8947 38.9316 46.3731 38.9316Z" fill="#130C49"/>
<path d="M42.0957 41.2734C41.5741 41.2734 41.1523 41.6979 41.1523 42.2228V45.6853C41.1523 46.2103 41.5741 46.6347 42.0957 46.6347C42.6173 46.6347 43.0391 46.2103 43.0391 45.6853V42.2228C43.0391 41.6979 42.6173 41.2734 42.0957 41.2734Z" fill="#130C49"/>
<path d="M50.6543 41.2734C50.1327 41.2734 49.7109 41.6979 49.7109 42.2228V45.6853C49.7109 46.2103 50.1327 46.6347 50.6543 46.6347C51.1759 46.6347 51.5977 46.2103 51.5977 45.6853V42.2228C51.5977 41.6979 51.1759 41.2734 50.6543 41.2734Z" fill="#130C49"/>
<path d="M29.2598 41.2734C28.7382 41.2734 28.3164 41.6979 28.3164 42.2228V45.6853C28.3164 46.2103 28.7382 46.6347 29.2598 46.6347C29.7814 46.6347 30.2032 46.2103 30.2032 45.6853V42.2228C30.2032 41.6979 29.7814 41.2734 29.2598 41.2734Z" fill="#130C49"/>
<path d="M49.4621 18.8249C49.118 18.8175 48.933 19.0334 48.9145 19.4765C48.9108 19.5435 48.9108 19.6105 48.9071 19.6775C48.7665 23.207 45.9697 26.2414 42.4996 26.6286C38.1823 27.1126 34.4532 23.8772 34.3089 19.51C34.2941 19.0371 34.1165 18.81 33.7577 18.8249C33.4136 18.8398 33.2656 19.052 33.2656 19.5211C33.2693 20.895 33.606 22.1832 34.2867 23.3709C35.7073 25.8616 37.8382 27.3248 40.6868 27.6822C41.005 27.7232 41.0938 27.8461 41.0753 28.1439C41.0568 28.5348 41.0716 28.9332 41.0716 29.3279H41.0753C41.0753 29.7895 41.0605 30.2549 41.079 30.7129C41.0864 31.0331 41.2491 31.2602 41.5895 31.2825C41.8929 31.3048 42.1148 31.074 42.1444 30.7129C42.1518 30.6198 42.1481 30.5193 42.1481 30.4225C42.1481 29.6629 42.1629 28.8997 42.1444 28.1439C42.137 27.8386 42.2258 27.7232 42.5403 27.6822C45.6294 27.2764 47.8454 25.6271 49.2142 22.8273C49.7247 21.7774 49.9689 20.653 49.9578 19.4802C49.9578 19.052 49.795 18.8398 49.4583 18.8286L49.4621 18.8249Z" fill="#130C49"/>
<path d="M36.8062 19.573C36.9541 22.0973 38.9408 24.078 41.3676 24.1673C43.9314 24.2604 46.0993 22.5105 46.3582 19.9379C46.5728 17.8492 46.5617 15.727 46.3657 13.6309C46.1326 11.0954 44.0387 9.31576 41.5489 9.3381C39.1109 9.35671 37.0762 11.1922 36.832 13.7053C36.7321 14.718 36.8136 15.7419 36.8136 16.762H36.795C36.795 17.6965 36.7507 18.6348 36.8025 19.5693L36.8062 19.573Z" fill="#61BD73"/>
<path d="M41.5652 24.5444C41.4949 24.5444 41.4246 24.5444 41.3543 24.5407C38.7129 24.4439 36.5968 22.318 36.4377 19.5963C36.4007 18.9411 36.4081 18.2783 36.4192 17.638C36.4229 17.3476 36.4266 17.0572 36.4266 16.7668L36.4414 16.3944C36.4414 16.2046 36.434 16.0147 36.4303 15.8248C36.4118 15.1211 36.397 14.3951 36.4673 13.6728C36.7299 11.0108 38.9126 8.98914 41.5504 8.9668C41.5652 8.9668 41.5837 8.9668 41.5985 8.9668C44.288 8.9668 46.4929 10.9475 46.7371 13.5984C46.9406 15.8025 46.9369 17.947 46.726 19.9761C46.4596 22.6121 44.2584 24.5444 41.5615 24.5444H41.5652ZM37.1776 19.5517C37.3145 21.8861 39.1235 23.7104 41.3839 23.796C43.8145 23.8854 45.7567 22.2472 45.9935 19.9016C46.197 17.9209 46.2007 15.8211 46.0009 13.6691C45.79 11.3719 43.944 9.71514 41.6022 9.71514C41.5874 9.71514 41.5726 9.71514 41.5578 9.71514C39.3011 9.73004 37.4291 11.465 37.2035 13.7473C37.1369 14.4212 37.1554 15.1249 37.1702 15.8062C37.1776 16.1264 37.185 16.4466 37.185 16.7668V17.1391H37.1665C37.1665 17.3103 37.1628 17.4779 37.1591 17.6491C37.148 18.2746 37.1406 18.9225 37.1776 19.5517Z" fill="#130C49"/>
<path d="M186.128 61.5076C185.67 61.5076 185.215 61.3884 184.808 61.1539L160.668 47.1288C159.855 46.656 159.348 45.7699 159.348 44.8242V16.7741C159.348 15.8285 159.855 14.9461 160.668 14.4695L184.808 0.444472C185.625 -0.0283657 186.635 -0.0283657 187.449 0.444472L211.588 14.4695C212.402 14.9423 212.909 15.8247 212.909 16.7741V44.8242C212.909 45.7699 212.402 46.6523 211.588 47.1288L187.449 61.1539C187.042 61.3884 186.583 61.5076 186.128 61.5076ZM186.128 0.582226C185.755 0.582226 185.381 0.679027 185.052 0.87263L160.913 14.8977C160.247 15.2849 159.832 16.0034 159.832 16.7779V44.8279C159.832 45.5986 160.247 46.3209 160.913 46.7081L185.052 60.7332C185.714 61.1204 186.543 61.1204 187.209 60.7332L211.348 46.7081C212.014 46.3209 212.428 45.6023 212.428 44.8279V16.7779C212.428 16.0034 212.014 15.2849 211.348 14.8977L187.209 0.87263C186.876 0.679027 186.506 0.582226 186.132 0.582226H186.128Z" fill="#130C49"/>
<path d="M186.127 61.6002C185.646 61.6002 185.172 61.4736 184.758 61.2316L160.619 47.2065C159.775 46.7151 159.25 45.8029 159.25 44.8237V16.7736C159.25 15.7945 159.775 14.8786 160.619 14.3908L184.758 0.365798C185.602 -0.121933 186.649 -0.121933 187.492 0.365798L211.631 14.3908C212.475 14.8823 213 15.7945 213 16.7736V44.8237C213 45.8029 212.475 46.7151 211.631 47.2065L187.492 61.2316C187.078 61.4736 186.604 61.6002 186.123 61.6002H186.127ZM186.127 0.183365C185.687 0.183365 185.246 0.298781 184.851 0.525893L160.711 14.5509C159.923 15.0089 159.435 15.8615 159.435 16.7736V44.8237C159.435 45.7359 159.923 46.5885 160.711 47.0464L184.851 61.0715C185.624 61.5183 186.626 61.5183 187.4 61.0715L211.539 47.0464C212.323 46.5885 212.815 45.7359 212.815 44.8237V16.7736C212.815 15.8615 212.327 15.0089 211.539 14.5509L187.4 0.525893C187.007 0.298781 186.563 0.183365 186.123 0.183365H186.127ZM186.127 61.1124C185.738 61.1124 185.35 61.0119 185.002 60.8109L160.863 46.7858C160.168 46.3837 159.738 45.6316 159.738 44.8274V16.7774C159.738 15.9694 160.171 15.2211 160.863 14.819L185.002 0.793959C185.679 0.399307 186.571 0.399307 187.252 0.793959L211.391 14.819C212.086 15.2211 212.515 15.9732 212.515 16.7774V44.8274C212.515 45.6316 212.083 46.3837 211.391 46.7858L187.252 60.8109C186.904 61.0119 186.515 61.1124 186.127 61.1124ZM186.127 0.674818C185.764 0.674818 185.406 0.771622 185.095 0.950332L160.956 14.9754C160.319 15.344 159.923 16.0327 159.923 16.7736V44.8237C159.923 45.5646 160.319 46.2534 160.956 46.622L185.095 60.647C185.731 61.0156 186.523 61.0194 187.159 60.647L211.298 46.622C211.935 46.2497 212.33 45.5609 212.33 44.8237V16.7736C212.33 16.0327 211.935 15.344 211.298 14.9754L187.159 0.950332C186.848 0.767899 186.489 0.674818 186.127 0.674818Z" fill="#130C49"/>
<path d="M186.498 0.392578H185.758V21.9086H186.498V0.392578Z" fill="#130C49"/>
<path d="M160.073 46.4698L159.695 45.8294L186.502 29.8125L212.776 45.8331L212.391 46.4698L186.498 30.68L160.073 46.4698Z" fill="#130C49"/>
<path d="M199.698 38.4609V23.1402C199.698 23.0024 199.624 22.8721 199.506 22.8051L186.321 15.1429C186.202 15.0722 186.054 15.0722 185.936 15.1429L172.751 22.8051C172.633 22.8758 172.559 23.0024 172.559 23.1402V38.4609C172.559 38.5986 172.633 38.7289 172.751 38.796L185.936 46.4582C186.054 46.5289 186.202 46.5289 186.321 46.4582L199.506 38.796C199.624 38.7252 199.698 38.5986 199.698 38.4609Z" fill="#130C49"/>
<path d="M186.128 46.5148C185.884 46.5148 185.644 46.4516 185.425 46.325L173.121 39.1766C172.688 38.9234 172.418 38.4543 172.418 37.9516V23.6511C172.418 23.1485 172.688 22.6794 173.121 22.4262L185.425 15.2778C185.858 15.0246 186.398 15.0246 186.831 15.2778L199.136 22.4262C199.569 22.6794 199.839 23.1485 199.839 23.6511V37.9516C199.839 38.4543 199.569 38.9234 199.136 39.1766L186.831 46.325C186.613 46.4516 186.372 46.5148 186.128 46.5148ZM186.128 15.3671C185.932 15.3671 185.74 15.4192 185.566 15.5198L173.261 22.6682C172.914 22.8692 172.699 23.2453 172.699 23.6511V37.9516C172.699 38.3537 172.914 38.7298 173.261 38.9346L185.566 46.083C185.914 46.284 186.343 46.2877 186.691 46.083L198.995 38.9346C199.343 38.7335 199.557 38.3575 199.557 37.9516V23.6511C199.557 23.249 199.343 22.873 198.995 22.6682L186.691 15.5198C186.517 15.4192 186.324 15.3671 186.128 15.3671Z" fill="#130C49"/>
<path d="M189.998 25.6582V30.4536L186.128 28.2011L182.259 30.4536V25.6582L177.664 28.3351V33.4098L182.018 35.9415L186.128 33.5512L190.239 35.9415L194.589 33.4098V28.3426L189.998 25.6582Z" fill="#61BD73"/>
</svg>
