<svg width="163" height="146" viewBox="0 0 163 146" fill="none" xmlns="http://www.w3.org/2000/svg">
<g id="Layer_1" clip-path="url(#clip0_2862_3809)">
<path id="Vector" d="M103.2 37.6298V13.7347C103.2 13.0997 102.855 12.5062 102.303 12.1887L81.6104 0.234216C81.0583 -0.0832804 80.3819 -0.0832804 79.8297 0.234216L59.1372 12.1887C58.585 12.5062 58.2399 13.0997 58.2399 13.7347V37.6298C58.2399 38.2648 58.585 38.8584 59.1372 39.1759L79.8297 51.1303C80.3819 51.4478 81.0583 51.4478 81.6104 51.1303L102.303 39.1759C102.855 38.8584 103.2 38.2648 103.2 37.6298Z" fill="#131144"/>
<path id="Vector_2" d="M87.1183 17.2139V25.1099L80.7132 21.4103L74.308 25.1099V17.2139L66.7019 21.6174V29.9689L73.9077 34.1516L80.7132 30.2036L87.5186 34.1516L94.7244 29.9689V21.6312L87.1183 17.2139Z" fill="#61BB73"/>
<path id="Vector_3" d="M145.206 101.779H143.826V61.4703H19.1879V101.779H17.8074V60.0898H145.206V101.779Z" fill="#131144"/>
<path id="Vector_4" d="M21.3137 99.5007L20.8168 99.0176L18.4976 101.516L16.1785 99.0176L15.6678 99.5007L18.4976 102.524L21.3137 99.5007Z" fill="#131144"/>
<path id="Vector_5" d="M141.7 99.5007L142.197 99.0176L144.516 101.516L146.835 99.0176L147.346 99.5007L144.516 102.524L141.7 99.5007Z" fill="#131144"/>
<path id="Vector_6" d="M18.2767 132.548C22.325 132.548 25.6068 129.266 25.6068 125.218C25.6068 121.169 22.325 117.888 18.2767 117.888C14.2285 117.888 10.9467 121.169 10.9467 125.218C10.9467 129.266 14.2285 132.548 18.2767 132.548Z" fill="#61BD73"/>
<path id="Vector_7" d="M18.2906 133.252C13.8594 133.252 10.2703 129.649 10.2703 125.232C10.2703 120.815 13.8732 117.212 18.2906 117.212C22.7079 117.212 26.3108 120.815 26.3108 125.232C26.3108 129.649 22.7079 133.252 18.2906 133.252ZM18.2906 118.579C14.6325 118.579 11.6507 121.56 11.6507 125.218C11.6507 128.876 14.6325 131.858 18.2906 131.858C21.9487 131.858 24.9304 128.876 24.9304 125.218C24.9304 121.56 21.9487 118.579 18.2906 118.579Z" fill="#131144"/>
<path id="Vector_8" d="M6.63983 145.289C6.63983 138.746 11.9544 133.432 18.4976 133.432C25.0408 133.432 30.3554 138.746 30.3554 145.289" fill="#61BD73"/>
<path id="Vector_9" d="M31.0595 145.289H29.6791C29.6791 139.133 24.6681 134.122 18.5115 134.122C12.3548 134.122 7.34386 139.133 7.34386 145.289H5.96344C5.96344 138.373 11.5956 132.741 18.5115 132.741C25.4274 132.741 31.0595 138.373 31.0595 145.289Z" fill="#131144"/>
<path id="Vector_10" d="M34.9246 145.814H2.08443C0.938686 145.814 0 144.875 0 143.729V110.903C0 109.757 0.938686 108.818 2.08443 108.818H34.9108C36.0566 108.818 36.9953 109.757 36.9953 110.903V143.729C36.9953 144.875 36.0566 145.814 34.9108 145.814H34.9246ZM2.08443 110.185C1.69792 110.185 1.38042 110.502 1.38042 110.889V143.715C1.38042 144.102 1.69792 144.419 2.08443 144.419H34.9108C35.2973 144.419 35.6148 144.102 35.6148 143.715V110.889C35.6148 110.502 35.2973 110.185 34.9108 110.185H2.08443Z" fill="#131144"/>
<path id="Vector_11" d="M80.4923 132.548C84.5405 132.548 87.8223 129.266 87.8223 125.218C87.8223 121.169 84.5405 117.888 80.4923 117.888C76.444 117.888 73.1622 121.169 73.1622 125.218C73.1622 129.266 76.444 132.548 80.4923 132.548Z" fill="#61BD73"/>
<path id="Vector_12" d="M80.4923 133.252C76.0611 133.252 72.472 129.649 72.472 125.232C72.472 120.815 76.0749 117.212 80.4923 117.212C84.9096 117.212 88.5125 120.815 88.5125 125.232C88.5125 129.649 84.9096 133.252 80.4923 133.252ZM80.4923 118.579C76.8342 118.579 73.8525 121.56 73.8525 125.218C73.8525 128.876 76.8342 131.858 80.4923 131.858C84.1504 131.858 87.1321 128.876 87.1321 125.218C87.1321 121.56 84.1504 118.579 80.4923 118.579Z" fill="#131144"/>
<path id="Vector_13" d="M68.8553 145.289C68.8553 138.746 74.17 133.432 80.7132 133.432C87.2563 133.432 92.571 138.746 92.571 145.289" fill="#61BD73"/>
<path id="Vector_14" d="M93.2612 145.289H91.8808C91.8808 139.133 86.8699 134.122 80.7132 134.122C74.5565 134.122 69.5456 139.133 69.5456 145.289H68.1652C68.1652 138.373 73.7973 132.741 80.7132 132.741C87.6291 132.741 93.2612 138.373 93.2612 145.289Z" fill="#131144"/>
<path id="Vector_15" d="M97.1263 145.814H64.3C63.1542 145.814 62.2155 144.875 62.2155 143.729V110.903C62.2155 109.757 63.1542 108.818 64.3 108.818H97.1263C98.2721 108.818 99.2108 109.757 99.2108 110.903V143.729C99.2108 144.875 98.2721 145.814 97.1263 145.814ZM64.3 110.185C63.9134 110.185 63.5959 110.502 63.5959 110.889V143.715C63.5959 144.102 63.9134 144.419 64.3 144.419H97.1263C97.5129 144.419 97.8304 144.102 97.8304 143.715V110.889C97.8304 110.502 97.5129 110.185 97.1263 110.185H64.3Z" fill="#131144"/>
<path id="Vector_16" d="M144.268 132.548C148.316 132.548 151.598 129.266 151.598 125.218C151.598 121.169 148.316 117.888 144.268 117.888C140.219 117.888 136.938 121.169 136.938 125.218C136.938 129.266 140.219 132.548 144.268 132.548Z" fill="#61BD73"/>
<path id="Vector_17" d="M144.268 133.252C139.837 133.252 136.247 129.649 136.247 125.232C136.247 120.815 139.85 117.212 144.268 117.212C148.685 117.212 152.288 120.815 152.288 125.232C152.288 129.649 148.685 133.252 144.268 133.252ZM144.268 118.579C140.61 118.579 137.628 121.56 137.628 125.218C137.628 128.876 140.61 131.858 144.268 131.858C147.926 131.858 150.908 128.876 150.908 125.218C150.908 121.56 147.926 118.579 144.268 118.579Z" fill="#131144"/>
<path id="Vector_18" d="M132.631 145.289C132.631 138.746 137.945 133.432 144.489 133.432C151.032 133.432 156.346 138.746 156.346 145.289" fill="#61BD73"/>
<path id="Vector_19" d="M157.037 145.289H155.656C155.656 139.133 150.645 134.122 144.489 134.122C138.332 134.122 133.321 139.133 133.321 145.289H131.941C131.941 138.373 137.573 132.741 144.489 132.741C151.404 132.741 157.037 138.373 157.037 145.289Z" fill="#131144"/>
<path id="Vector_20" d="M160.902 145.814H128.075C126.93 145.814 125.991 144.875 125.991 143.729V110.903C125.991 109.757 126.93 108.818 128.075 108.818H160.902C162.047 108.818 162.986 109.757 162.986 110.903V143.729C162.986 144.875 162.047 145.814 160.902 145.814ZM128.075 110.185C127.689 110.185 127.371 110.502 127.371 110.889V143.715C127.371 144.102 127.689 144.419 128.075 144.419H160.902C161.288 144.419 161.606 144.102 161.606 143.715V110.889C161.606 110.502 161.288 110.185 160.902 110.185H128.075Z" fill="#131144"/>
<path id="Vector_21" d="M81.4034 47.624H80.0229V100.149H81.4034V47.624Z" fill="#131144"/>
<path id="Vector_22" d="M77.8971 97.8718L78.394 97.3887L80.7132 99.8872L83.0323 97.3887L83.5292 97.8718L80.7132 100.895L77.8971 97.8718Z" fill="#131144"/>
</g>
<defs>
<clipPath id="clip0_2862_3809">
<rect width="163" height="145.814" fill="white"/>
</clipPath>
</defs>
</svg>
