<svg width="147" height="95" viewBox="0 0 147 95" fill="none" xmlns="http://www.w3.org/2000/svg">
<g id="Layer_1" clip-path="url(#clip0_2366_1643)">
<path id="Vector" d="M96.6829 64.3125V82.1274C96.6829 83.0923 96.1608 83.9919 95.322 84.4744L79.8051 93.3838C78.9663 93.8663 77.922 93.8663 77.0832 93.3838L61.5662 84.4744C60.7275 83.9919 60.2053 83.0923 60.2053 82.1274V64.3125C60.2053 63.3476 60.7275 62.448 61.5662 61.9656L77.0832 53.0561C77.5026 52.8149 77.9713 52.6963 78.4441 52.6963C78.917 52.6963 79.3857 52.8149 79.8051 53.0561L95.322 61.9656C96.1608 62.448 96.6829 63.3476 96.6829 64.3125Z" fill="#61B973"/>
<path id="Vector_2" d="M95.7332 61.2581L80.2163 52.3486C79.1226 51.723 77.7658 51.723 76.6721 52.3486L61.1551 61.2581C60.0615 61.8877 59.3831 63.0571 59.3831 64.3124V82.1272C59.3831 83.3866 60.0615 84.556 61.1551 85.1816L76.6721 94.091C77.2189 94.4059 77.8316 94.5612 78.4442 94.5612C79.0568 94.5612 79.6694 94.4059 80.2163 94.091L95.7332 85.1816C96.8269 84.556 97.5053 83.3866 97.5053 82.1272V64.3124C97.5053 63.0571 96.8269 61.8877 95.7332 61.2581ZM96.683 82.1272C96.683 83.0922 96.1608 83.9917 95.3221 84.4742L79.8051 93.3837C78.9663 93.8661 77.922 93.8661 77.0833 93.3837L61.5663 84.4742C60.7275 83.9917 60.2054 83.0922 60.2054 82.1272V64.3124C60.2054 63.3474 60.7275 62.4479 61.5663 61.9654L77.0833 53.0559C77.5026 52.8147 77.9713 52.6961 78.4442 52.6961C78.917 52.6961 79.3857 52.8147 79.8051 53.0559L95.3221 61.9654C96.1608 62.4479 96.683 63.3474 96.683 64.3124V82.1272Z" fill="#1B1464"/>
<path id="Vector_3" d="M88.1514 69.1661C86.3177 69.1661 84.8046 70.5441 84.5991 72.3145H81.4167C81.2276 70.679 79.9201 69.3829 78.2755 69.1907V66.2018C80.0558 65.9973 81.4414 64.4927 81.4414 62.6691C81.4414 60.7064 79.8379 59.1118 77.8643 59.1118C75.8908 59.1118 74.2873 60.7064 74.2873 62.6691C74.2873 64.4927 75.6729 65.9973 77.4532 66.2018V69.1907C75.6729 69.3951 74.2873 70.8998 74.2873 72.7234C74.2873 73.6107 74.6203 74.4243 75.1631 75.0458L72.9469 78.0225C72.4207 77.7199 71.8163 77.5441 71.1666 77.5441C69.1931 77.5441 67.5896 79.1387 67.5896 81.1013C67.5896 83.0639 69.1931 84.6586 71.1666 84.6586C73.1402 84.6586 74.7437 83.0639 74.7437 81.1013C74.7437 80.0791 74.3037 79.1591 73.6089 78.509L75.7757 75.6019C76.3636 76.0271 77.0873 76.2806 77.8643 76.2806C78.2837 76.2806 78.6867 76.2029 79.0608 76.0721L80.4094 79.0978C79.3568 79.7193 78.6455 80.856 78.6455 82.1562C78.6455 84.1188 80.249 85.7135 82.2226 85.7135C84.1961 85.7135 85.7996 84.1188 85.7996 82.1562C85.7996 80.1936 84.1961 78.599 82.2226 78.599C81.8525 78.599 81.4948 78.6562 81.1577 78.7584L79.7968 75.7082C80.6725 75.144 81.2893 74.2117 81.4126 73.1282H84.5949C84.8005 74.8986 86.3136 76.2765 88.1473 76.2765C90.1209 76.2765 91.7244 74.6819 91.7244 72.7193C91.7244 70.7567 90.1209 69.1621 88.1473 69.1621L88.1514 69.1661ZM73.9255 81.0972C73.9255 82.606 72.692 83.8367 71.1708 83.8367C69.6495 83.8367 68.416 82.6101 68.416 81.0972C68.416 79.5844 69.6495 78.3577 71.1708 78.3577C72.692 78.3577 73.9255 79.5844 73.9255 81.0972ZM84.9814 82.1521C84.9814 83.6609 83.748 84.8916 82.2267 84.8916C80.7054 84.8916 79.472 83.665 79.472 82.1521C79.472 80.6393 80.7054 79.4126 82.2267 79.4126C83.748 79.4126 84.9814 80.6393 84.9814 82.1521ZM75.1137 62.6691C75.1137 61.1603 76.3472 59.9296 77.8685 59.9296C79.3897 59.9296 80.6232 61.1562 80.6232 62.6691C80.6232 64.1819 79.3897 65.4085 77.8685 65.4085C76.3472 65.4085 75.1137 64.1819 75.1137 62.6691ZM77.8685 75.4588C76.3513 75.4588 75.1137 74.2322 75.1137 72.7193C75.1137 71.2065 76.3472 69.9798 77.8685 69.9798C79.3897 69.9798 80.6232 71.2065 80.6232 72.7193C80.6232 74.2322 79.3897 75.4588 77.8685 75.4588ZM88.1514 75.4588C86.6343 75.4588 85.3967 74.2322 85.3967 72.7193C85.3967 71.2065 86.6302 69.9798 88.1514 69.9798C89.6727 69.9798 90.9062 71.2065 90.9062 72.7193C90.9062 74.2322 89.6727 75.4588 88.1514 75.4588Z" fill="#1B1464"/>
<path id="Vector_4" d="M146.124 73.2218L132.322 82.2703V64.1733L146.124 73.2218Z" fill="#A590DD"/>
<path id="Vector_5" d="M146.659 72.5924L132.68 63.4294C132.445 63.2741 132.149 63.2577 131.894 63.3926C131.652 63.5276 131.5 63.7811 131.5 64.055V82.3851C131.5 82.6631 131.652 82.9166 131.902 83.0556C132.013 83.1129 132.137 83.1415 132.256 83.1415C132.408 83.1415 132.556 83.0965 132.675 83.0147L146.655 73.8518C146.873 73.7127 147 73.4756 147 73.2221C147 72.9686 146.873 72.7314 146.659 72.5924ZM132.322 64.1736L146.124 73.2221L132.322 82.2706V64.1736Z" fill="#1B1464"/>
<path id="Vector_6" d="M25.3271 65.0851V81.3503C25.3271 82.303 24.5541 83.0799 23.5961 83.0799H1.84197C0.883976 83.0799 0.102783 82.3071 0.102783 81.3503V65.0851C0.102783 64.1325 0.879865 63.3638 1.84197 63.3638H23.592C24.55 63.3638 25.323 64.1325 25.323 65.0851H25.3271ZM24.7433 81.0641V65.2242C24.7433 64.5168 24.1676 63.9444 23.4563 63.9444H1.97354C1.26224 63.9444 0.686622 64.5168 0.686622 65.2242V76.3743L7.03896 70.0571L15.299 78.2102L18.6335 74.8655L24.7433 81.0682V81.0641Z" fill="#1B1464"/>
<path id="Vector_7" d="M24.7432 65.2204V81.0604L18.6334 74.8577L15.2989 78.2023L7.03886 70.0493L0.686523 76.3664V65.2163C0.686523 64.509 1.26214 63.9365 1.97344 63.9365H23.4563C24.1675 63.9365 24.7432 64.509 24.7432 65.2163V65.2204Z" fill="#7AD6EB"/>
<path id="Vector_8" d="M23.592 63.3638H1.84197C0.883976 63.3638 0.102783 64.1325 0.102783 65.0851V81.3504C0.102783 82.303 0.879865 83.0799 1.84197 83.0799H23.592C24.55 83.0799 25.323 82.3071 25.323 81.3504V65.0851C25.323 64.1325 24.55 63.3638 23.592 63.3638Z" stroke="#1B1464" stroke-width="0.5" stroke-miterlimit="10"/>
<path id="Vector_9" d="M15.1509 67.2729C14.1436 67.2729 13.3213 68.0866 13.3213 69.0925C13.3213 70.0983 14.1436 70.9161 15.1509 70.9161C16.1583 70.9161 16.9847 70.0983 16.9847 69.0925C16.9847 68.0866 16.1624 67.2729 15.1509 67.2729Z" fill="#1B1464"/>
<path id="Vector_10" d="M32.6826 16.0444H13.7695V40.3523H32.6826V16.0444Z" fill="white"/>
<path id="Vector_11" d="M33.0938 15.2266H13.3584C13.1323 15.2266 12.9473 15.4065 12.9473 15.6354V40.761C12.9473 40.9859 13.1323 41.1699 13.3584 41.1699H33.0938C33.32 41.1699 33.505 40.9859 33.505 40.761V15.6354C33.505 15.4065 33.32 15.2266 33.0938 15.2266ZM32.6827 40.3522H13.7696V16.0443H32.6827V40.3522Z" fill="#262262"/>
<path id="Vector_12" d="M30.0143 24.181H16.4339C16.2077 24.181 16.0227 23.997 16.0227 23.7722C16.0227 23.5473 16.2077 23.3633 16.4339 23.3633H30.0143C30.2404 23.3633 30.4254 23.5473 30.4254 23.7722C30.4254 23.997 30.2404 24.181 30.0143 24.181Z" fill="#262262"/>
<path id="Vector_13" d="M30.0143 26.3724H16.4339C16.2077 26.3724 16.0227 26.1884 16.0227 25.9636C16.0227 25.7387 16.2077 25.5547 16.4339 25.5547H30.0143C30.2404 25.5547 30.4254 25.7387 30.4254 25.9636C30.4254 26.1884 30.2404 26.3724 30.0143 26.3724Z" fill="#262262"/>
<path id="Vector_14" d="M30.0143 28.5643H16.4339C16.2077 28.5643 16.0227 28.3803 16.0227 28.1555C16.0227 27.9306 16.2077 27.7466 16.4339 27.7466H30.0143C30.2404 27.7466 30.4254 27.9306 30.4254 28.1555C30.4254 28.3803 30.2404 28.5643 30.0143 28.5643Z" fill="#262262"/>
<path id="Vector_15" d="M30.0143 30.7557H16.4339C16.2077 30.7557 16.0227 30.5718 16.0227 30.3469C16.0227 30.122 16.2077 29.938 16.4339 29.938H30.0143C30.2404 29.938 30.4254 30.122 30.4254 30.3469C30.4254 30.5718 30.2404 30.7557 30.0143 30.7557Z" fill="#262262"/>
<path id="Vector_16" d="M30.0143 34.6849H16.4339C16.2077 34.6849 16.0227 34.5009 16.0227 34.2761C16.0227 34.0512 16.2077 33.8672 16.4339 33.8672H30.0143C30.2404 33.8672 30.4254 34.0512 30.4254 34.2761C30.4254 34.5009 30.2404 34.6849 30.0143 34.6849Z" fill="#262262"/>
<path id="Vector_17" d="M20.0438 36.8729H16.4339C16.2077 36.8729 16.0227 36.6889 16.0227 36.4641C16.0227 36.2392 16.2077 36.0552 16.4339 36.0552H20.0438C20.2699 36.0552 20.4549 36.2392 20.4549 36.4641C20.4549 36.6889 20.2699 36.8729 20.0438 36.8729Z" fill="#262262"/>
<path id="Vector_18" d="M18.7322 19.0005H16.4338V21.65H18.7322V19.0005Z" fill="#61BD73"/>
<path id="Vector_19" d="M132.844 28.5069C131.138 28.5192 129.793 29.8848 129.801 31.594C129.814 33.2581 131.187 34.6237 132.852 34.6278C134.542 34.6319 135.932 33.2458 135.928 31.5531C135.923 29.8521 134.546 28.4947 132.84 28.5069H132.844Z" fill="#61BD73"/>
<path id="Vector_20" d="M132.679 38.9211C130.455 38.9007 128.194 38.1034 125.76 36.4842C124.062 35.3516 122.479 33.9451 120.92 32.1828C120.768 32.007 120.365 31.545 120.867 30.993C123.28 28.2985 125.591 26.4871 128.14 25.2973C131.837 23.5677 135.5 23.8703 139.332 26.2254C141.215 27.3826 142.999 28.9159 144.788 30.9153C144.969 31.1156 145.359 31.5531 144.883 32.1051H144.878C142.009 35.3189 139.381 37.2325 136.355 38.316C135.225 38.7249 134.057 38.9211 132.679 38.9252V38.9211ZM121.467 31.5531C121.467 31.5531 121.504 31.6022 121.541 31.6472C123.05 33.3522 124.58 34.7138 126.216 35.8055C128.51 37.3347 130.624 38.087 132.679 38.1034C133.954 38.0993 135.031 37.9194 136.071 37.5432C138.962 36.5087 141.486 34.6647 144.258 31.5654C144.233 31.5368 144.204 31.5 144.179 31.4754C142.432 29.521 140.705 28.0409 138.892 26.9246C135.315 24.7289 131.911 24.4386 128.486 26.0414C126.043 27.1822 123.815 28.9281 121.476 31.5409C121.471 31.549 121.463 31.5531 121.459 31.5572L121.467 31.5531Z" fill="#1B1464"/>
<path id="Vector_21" d="M132.865 35.037H132.852C130.957 35.0288 129.403 33.4873 129.39 31.5942C129.382 30.6579 129.736 29.7829 130.385 29.1246C131.035 28.4663 131.907 28.1024 132.84 28.0942H132.865C133.79 28.0942 134.657 28.4459 135.311 29.0919C135.973 29.742 136.339 30.617 136.339 31.5493C136.339 32.4815 135.977 33.3565 135.311 34.0189C134.653 34.6731 133.786 35.0329 132.865 35.0329V35.037ZM132.856 34.2192H132.865C133.563 34.2192 134.23 33.9453 134.731 33.4424C135.233 32.9395 135.521 32.2648 135.516 31.5534C135.516 30.8378 135.237 30.1713 134.731 29.6725C134.23 29.1778 133.568 28.9161 132.844 28.912C132.129 28.9161 131.462 29.1941 130.969 29.697C130.476 30.2 130.204 30.8705 130.213 31.5861C130.221 33.0294 131.409 34.2111 132.856 34.2152V34.2192Z" fill="#1B1464"/>
<path id="Vector_22" d="M126.13 23.3922C126.023 23.3922 125.92 23.3513 125.838 23.2736L123.277 20.7181C123.116 20.5586 123.116 20.301 123.277 20.1416C123.437 19.9821 123.696 19.9821 123.856 20.1416L126.418 22.6971C126.578 22.8565 126.578 23.1141 126.418 23.2736C126.336 23.3554 126.233 23.3922 126.126 23.3922H126.13Z" fill="#1B1464"/>
<path id="Vector_23" d="M139.657 23.4083C139.554 23.4083 139.447 23.3674 139.365 23.2897C139.205 23.1302 139.205 22.8726 139.365 22.7132L141.926 20.1577C142.087 19.9982 142.346 19.9982 142.506 20.1577C142.666 20.3171 142.666 20.5747 142.506 20.7342L139.945 23.2897C139.862 23.3715 139.76 23.4083 139.653 23.4083H139.657Z" fill="#1B1464"/>
<path id="Vector_24" d="M132.889 21.8994C132.663 21.8994 132.478 21.7154 132.478 21.4905L132.486 17.8801C132.486 17.6552 132.671 17.4712 132.897 17.4712C133.124 17.4712 133.309 17.6552 133.309 17.8801L133.3 21.4905C133.3 21.7154 133.115 21.8994 132.889 21.8994Z" fill="#1B1464"/>
<path id="Vector_25" d="M66.5823 11.9677C66.241 11.9677 65.9656 11.6938 65.9656 11.3544V5.46244C65.9656 5.12307 66.241 4.84912 66.5823 4.84912C66.9236 4.84912 67.199 5.12307 67.199 5.46244V11.3544C67.199 11.6938 66.9236 11.9677 66.5823 11.9677Z" fill="#1B1464"/>
<path id="Vector_26" d="M71.3352 16.7436C70.994 16.7436 70.7185 16.4696 70.7185 16.1303V0.613318C70.7185 0.273949 70.994 0 71.3352 0C71.6765 0 71.952 0.273949 71.952 0.613318V16.1303C71.952 16.4696 71.6765 16.7436 71.3352 16.7436Z" fill="#1B1464"/>
<path id="Vector_27" d="M76.0882 14.499C75.7469 14.499 75.4714 14.2251 75.4714 13.8857V2.92777C75.4714 2.5884 75.7469 2.31445 76.0882 2.31445C76.4294 2.31445 76.7049 2.5884 76.7049 2.92777V13.8857C76.7049 14.2251 76.4294 14.499 76.0882 14.499Z" fill="#1B1464"/>
<path id="Vector_28" d="M85.6516 14.4458C85.3104 14.4458 85.0349 14.1719 85.0349 13.8325V2.87455C85.0349 2.53518 85.3104 2.26123 85.6516 2.26123C85.9929 2.26123 86.2684 2.53518 86.2684 2.87455V13.8325C86.2684 14.1719 85.9929 14.4458 85.6516 14.4458Z" fill="#1B1464"/>
<path id="Vector_29" d="M80.8699 11.9677C80.5286 11.9677 80.2532 11.6938 80.2532 11.3544V5.46244C80.2532 5.12307 80.5286 4.84912 80.8699 4.84912C81.2112 4.84912 81.4866 5.12307 81.4866 5.46244V11.3544C81.4866 11.6938 81.2112 11.9677 80.8699 11.9677Z" fill="#1B1464"/>
<path id="Vector_30" d="M90.3018 11.9677C89.9605 11.9677 89.6851 11.6938 89.6851 11.3544V5.46244C89.6851 5.12307 89.9605 4.84912 90.3018 4.84912C90.643 4.84912 90.9185 5.12307 90.9185 5.46244V11.3544C90.9185 11.6938 90.643 11.9677 90.3018 11.9677Z" fill="#1B1464"/>
<path id="Vector_31" d="M53.9433 72.8091H30.8406V73.6268H53.9433V72.8091Z" fill="#262262"/>
<path id="Vector_32" d="M126.015 72.8501H102.912V73.6679H126.015V72.8501Z" fill="#262262"/>
<path id="Vector_33" d="M78.8553 22.2144H78.033V45.1893H78.8553V22.2144Z" fill="#262262"/>
<path id="Vector_34" d="M115.158 35.9481L98.822 52.1938L99.4035 52.7721L115.74 36.5264L115.158 35.9481Z" fill="#262262"/>
<path id="Vector_35" d="M43.1408 35.9457L42.5593 36.5239L58.8954 52.7696L59.4769 52.1914L43.1408 35.9457Z" fill="#262262"/>
</g>
<defs>
<clipPath id="clip0_2366_1643">
<rect width="147" height="94.5614" fill="white"/>
</clipPath>
</defs>
</svg>
