<svg width="73" height="35" viewBox="0 0 73 35" fill="none" xmlns="http://www.w3.org/2000/svg">
<path d="M41.0598 7.7967H41.0486C40.4094 8.44713 39.7477 9.09757 39.1309 9.77044C38.9291 9.99472 38.7272 10.2975 38.6599 10.5891C37.5833 15.344 36.5292 20.0989 35.475 24.8538C35.4526 24.9772 35.4526 25.1005 35.4302 25.2575H38.6263C39.972 19.2466 41.3177 13.2469 42.6747 7.16869C43.5046 6.98926 44.3232 6.7874 45.1531 6.65283C45.6801 6.56311 45.8596 6.72011 46.1063 7.23598C46.0502 7.40419 45.9829 7.60605 45.9269 7.80791C45.7026 8.57049 46.1624 9.12 46.9586 8.98543C47.4857 8.89571 48.0015 8.73871 48.495 8.53685C50.2781 7.83034 52.0387 7.06776 53.8218 6.37247C55.4255 5.75567 57.074 5.34074 58.8122 5.34074H60.6289C60.1579 4.78002 59.6645 4.46601 59.115 4.23051C57.4889 3.524 55.7843 3.524 54.0797 3.71465C52.9246 3.84922 51.7696 4.10715 50.6145 4.27537C50.3005 4.32023 49.9528 4.33144 49.6501 4.25294C49.2015 4.1408 49.0893 3.82679 49.28 3.40064C49.3697 3.21 49.4931 3.03057 49.5828 2.83992C49.8071 2.3577 49.6725 1.99884 49.1678 1.84184C48.8875 1.75212 48.5622 1.70727 48.2594 1.75212C47.3174 1.8867 46.3642 2.05491 45.4334 2.23434C44.8839 2.33527 44.3344 2.49228 43.7064 2.63806C43.8634 1.8867 43.9868 1.23626 44.1214 0.552182H40.9028C40.6673 1.57269 40.443 2.55956 40.2075 3.56886C39.815 3.66979 39.4449 3.79315 39.0749 3.86044C38.7721 3.91651 38.3908 3.98379 38.245 3.65858C38.144 3.41186 38.1889 3.07543 38.2674 2.79507C38.3571 2.48106 38.5702 2.21192 38.6824 1.92034C38.9851 1.14655 38.6263 0.350323 37.83 0.137249C37.3254 0.00267551 36.7647 -0.0197533 36.2376 0.0138899C34.5442 0.137249 32.9406 0.686755 31.3257 1.1914C30.2715 1.52784 29.2286 1.89791 28.1856 2.25677C27.6586 4.6118 27.1539 6.89954 26.6156 9.28821C26.9521 9.13121 27.1764 9.03028 27.4007 8.92935C28.9146 8.29013 30.4285 7.62848 31.9649 7.0229C32.3798 6.85469 32.8621 6.7874 33.3106 6.75376C33.5686 6.73133 33.8377 6.87711 34.1741 6.97804C34.0956 7.29205 34.0508 7.50512 33.9723 7.70698C33.9162 7.85277 33.8041 7.96491 33.7256 8.09949C33.4003 8.69385 33.6246 9.22093 34.2975 9.34429C34.5779 9.40036 34.8807 9.38915 35.1498 9.32186C36.8993 8.87328 38.6263 8.39106 40.3645 7.92006C40.5776 7.86398 40.8131 7.84155 41.0262 7.80791L41.0598 7.7967ZM7.05768 25.2463C8.40341 21.6689 9.21086 17.9682 10.1529 14.3011C10.1977 14.3011 10.2314 14.3011 10.2762 14.3011C10.4332 17.9457 10.579 21.5904 10.736 25.2351H13.4947C15.2442 21.8708 16.9936 18.5177 18.7543 15.1646C18.788 15.1758 18.8328 15.1982 18.8665 15.2094C18.5861 16.3982 18.3282 17.5869 18.0366 18.7756C17.5992 20.5699 17.2292 22.3642 17.3974 24.237C17.6217 26.6706 19.102 28.3976 21.3897 28.7901C22.5896 28.992 23.7335 28.8574 24.6643 27.9602C24.8438 27.792 24.9671 27.5677 25.1578 27.3098C24.9111 27.2761 24.7765 27.2537 24.6419 27.2313C22.7354 26.8949 21.5355 25.751 21.2215 23.9118C21.1094 23.239 21.0645 22.5324 21.1318 21.8484C21.2664 20.6484 21.4458 19.4485 21.7149 18.271C22.87 13.202 24.0587 8.14434 25.2362 3.08664C25.2811 2.88478 25.3035 2.68292 25.3484 2.4362H21.4794C18.8665 7.41541 16.2535 12.3946 13.6405 17.3738C13.5845 17.3626 13.5396 17.3402 13.4836 17.329C13.349 12.3834 13.2144 7.43784 13.0686 2.46985C11.1173 2.96328 10.3435 2.96328 8.42584 2.49228C7.49504 2.26799 6.56425 2.02127 5.62223 1.85305C4.52322 1.66241 3.44663 1.75213 2.42612 2.25677C2.11211 2.41378 1.9327 2.63806 1.84298 2.98571C1.57383 4.05108 1.28226 5.09402 1.0019 6.15939C0.968255 6.27154 0.968246 6.39489 0.957031 6.52947C1.34954 6.38368 1.68598 6.23789 2.02241 6.13696C4.19801 5.49774 6.14933 6.50704 8.23521 6.91076C8.19036 7.15747 8.16792 7.34812 8.12306 7.52755C7.5287 10.0844 6.93434 12.6413 6.33997 15.1982C5.56618 18.5513 4.70267 21.8596 3.22237 24.9884C3.18872 25.0557 3.18869 25.123 3.15505 25.2351H7.05768V25.2463ZM66.3708 23.9342C65.8773 27.0406 64.8344 29.7321 61.7504 30.8087C58.1393 32.0647 55.0778 31.0778 52.7452 27.7584C52.7116 28.0948 52.6779 28.2967 52.6779 28.4985C52.7228 30.6405 53.7657 32.1993 55.5376 33.3207C56.7039 34.0609 58.0048 34.33 59.3617 34.4197C61.3916 34.5655 63.2419 34.0833 64.9017 32.917C67.0548 31.4031 68.4006 29.3284 68.9837 26.7827C70.0491 22.1736 71.0696 17.542 72.1013 12.9217C72.2583 12.2152 72.4153 11.5087 72.5723 10.7461H69.365C69.3201 10.9031 69.2641 11.0265 69.2416 11.161C68.8604 12.8768 68.5127 14.6151 68.0866 16.3197C67.7613 17.5981 67.3688 18.8541 66.9539 20.1101C66.7408 20.7381 66.3035 21.2428 65.7428 21.6129C65.0923 22.039 64.3858 21.7362 64.2849 20.9624C64.24 20.5924 64.2625 20.1886 64.341 19.8186C64.5092 18.9775 64.7446 18.1364 64.9129 17.2953C65.2269 15.7365 65.5297 14.1777 65.7988 12.6077C65.9558 11.7217 65.5857 11.0265 64.8119 10.5667C64.0045 10.0844 63.1858 10.1181 62.3111 10.533C62.7036 11.8115 62.5803 13.0675 62.3111 14.3123C61.9635 15.9272 61.5934 17.5308 61.2233 19.1345C60.9654 20.2783 60.7187 21.4222 60.8308 22.5997C60.9766 24.1137 61.8513 25.1005 63.2419 25.2351C64.1839 25.3248 65.025 25.0333 65.7428 24.4277C65.911 24.2819 66.0792 24.1361 66.3483 23.9118L66.3708 23.9342ZM61.5934 27.2425C61.3467 27.164 61.2009 27.1079 61.0551 27.0743C59.3729 26.6706 58.4421 25.5716 58.1057 23.9118C57.8478 22.6109 57.9824 21.3101 58.2291 20.0204C58.5543 18.3495 58.9468 16.6785 59.2608 15.0076C59.429 14.1328 59.3954 13.2469 59.0702 12.3946C58.7562 11.576 58.2067 10.9816 57.3207 10.8022C56.132 10.5554 55.0778 10.8694 54.1919 11.7105C54.0012 11.89 53.8218 12.0694 53.5751 12.3273C53.4405 11.4077 53.0592 10.7797 52.2742 10.4545C51.5116 10.1405 50.7715 10.1405 50.0089 10.533C50.3678 11.8451 50.2781 13.1011 50.0089 14.3459C49.3024 17.5084 48.5959 20.6709 47.8894 23.8333C47.7885 24.2931 47.6988 24.7529 47.5866 25.2575H50.7939C50.8388 25.0893 50.8948 24.9211 50.9285 24.7641C51.3546 22.8913 51.7359 21.0185 52.1957 19.1569C52.4873 17.9906 52.8686 16.8467 53.2835 15.7141C53.5078 15.1085 53.9452 14.6375 54.5395 14.3459C55.1787 14.0319 55.7731 14.3011 55.874 15.0076C55.9189 15.344 55.8965 15.7029 55.8292 16.0281C55.5825 17.2729 55.3021 18.5065 55.0217 19.7401C54.6741 21.254 54.3938 22.7792 54.5171 24.3492C54.7302 27.0855 56.5806 28.7789 59.2832 28.6331C60.2477 28.577 61.0439 28.1957 61.6046 27.2537L61.5934 27.2425ZM26.324 10.7573C26.268 10.9479 26.2119 11.1498 26.1671 11.3517C25.6063 13.8525 25.0344 16.3645 24.4849 18.8653C24.2382 20.0092 23.9242 21.1419 23.9915 22.3306C24.0924 24.2595 25.2587 25.4482 27.0081 25.2463C27.5801 25.179 28.1183 24.8763 28.6679 24.6632C28.8136 24.6071 28.937 24.4838 29.1389 24.3492C29.1052 24.6968 29.0716 24.9548 29.0379 25.2463H32.5481C33.6247 20.4129 34.7237 15.6131 35.7666 10.7573H32.5593C32.5032 10.9367 32.4471 11.0825 32.4135 11.2283C32.021 12.989 31.6621 14.7496 31.236 16.4991C30.9332 17.7215 30.5407 18.9326 30.137 20.1213C29.9351 20.7045 29.5314 21.1867 29.0155 21.5456C28.2978 22.0502 27.5688 21.7699 27.4455 20.9176C27.4118 20.6372 27.4455 20.3456 27.5016 20.0653C28.1296 17.1607 28.7688 14.2674 29.408 11.3629C29.4417 11.1835 29.4641 10.9928 29.5089 10.7573H26.324ZM44.7045 10.7461C43.6279 15.5683 42.5513 20.3905 41.4635 25.2463H44.7157C45.7923 20.4241 46.8689 15.6131 47.9567 10.7461H44.7045Z" fill="#350563"/>
<path d="M41.0592 7.79806L41.0234 7.78613L41.0354 7.79806H41.0592Z" fill="#350563"/>
</svg>
