<svg width="45" height="22" viewBox="0 0 45 22" fill="none" xmlns="http://www.w3.org/2000/svg">
<g id="mutiny">
<g id="Layer 1-2">
<g id="Group">
<path id="Vector" d="M25.0649 5.3159H25.0581C24.6716 5.70919 24.2715 6.10249 23.8986 6.50934C23.7765 6.64496 23.6545 6.82804 23.6138 7.00434C22.9628 9.87944 22.3254 12.7545 21.688 15.6296C21.6744 15.7042 21.6744 15.7788 21.6609 15.8738H23.5934C24.4071 12.2392 25.2209 8.61142 26.0413 4.93617C26.5431 4.82768 27.0381 4.70562 27.5399 4.62425C27.8586 4.57 27.9671 4.66494 28.1163 4.97686C28.0824 5.07857 28.0417 5.20063 28.0078 5.32268C27.8722 5.78378 28.1502 6.11605 28.6316 6.03468C28.9503 5.98043 29.2623 5.8855 29.5606 5.76344C30.6388 5.33624 31.7034 4.87514 32.7815 4.45473C33.7512 4.08178 34.748 3.83089 35.799 3.83089H36.8975C36.6127 3.49184 36.3144 3.30198 35.9821 3.15958C34.9989 2.73238 33.9682 2.73238 32.9375 2.84766C32.2391 2.92903 31.5406 3.08499 30.8422 3.1867C30.6523 3.21382 30.4421 3.22061 30.2591 3.17314C29.9878 3.10533 29.92 2.91547 30.0353 2.65779C30.0895 2.54252 30.1641 2.43402 30.2184 2.31875C30.354 2.02717 30.2726 1.81018 29.9675 1.71525C29.798 1.661 29.6013 1.63388 29.4182 1.661C28.8486 1.74237 28.2722 1.84408 27.7094 1.95258C27.3772 2.01361 27.0449 2.10854 26.6652 2.19669C26.7601 1.74237 26.8347 1.34908 26.9161 0.935444H24.9699C24.8275 1.55251 24.6919 2.14922 24.5495 2.7595C24.3122 2.82053 24.0884 2.89512 23.8647 2.93581C23.6816 2.96971 23.451 3.0104 23.3629 2.81375C23.3018 2.66457 23.329 2.46115 23.3765 2.29162C23.4307 2.10176 23.5595 1.93902 23.6273 1.76271C23.8104 1.29483 23.5934 0.813388 23.112 0.684551C22.8068 0.60318 22.4678 0.589618 22.1491 0.609961C21.1252 0.684551 20.1555 1.01681 19.1791 1.32196C18.5417 1.52538 17.911 1.74915 17.2804 1.96614C16.9617 3.39013 16.6566 4.77343 16.3311 6.21776C16.5345 6.12283 16.6701 6.0618 16.8058 6.00077C17.7212 5.61426 18.6366 5.21419 19.5656 4.84802C19.8165 4.74631 20.1081 4.70562 20.3793 4.68528C20.5352 4.67172 20.698 4.75987 20.9014 4.8209C20.8539 5.01076 20.8268 5.1396 20.7794 5.26165C20.7455 5.34981 20.6776 5.41761 20.6302 5.49899C20.4335 5.85837 20.5692 6.17708 20.976 6.25167C21.1455 6.28557 21.3286 6.27879 21.4914 6.2381C22.5492 5.96687 23.5934 5.67529 24.6445 5.39049C24.7733 5.35659 24.9157 5.34303 25.0445 5.32268L25.0649 5.3159ZM4.50521 15.867C5.31892 13.7039 5.80715 11.4662 6.37675 9.24882C6.40387 9.24882 6.4242 9.24882 6.45133 9.24882C6.54626 11.4526 6.63441 13.6564 6.72935 15.8602H8.39744C9.45526 13.8259 10.5131 11.7984 11.5777 9.77095C11.598 9.77773 11.6252 9.79129 11.6455 9.79807C11.476 10.5168 11.32 11.2356 11.1437 11.9544C10.8793 13.0393 10.6555 14.1243 10.7572 15.2567C10.8928 16.7281 11.7879 17.7724 13.1712 18.0097C13.8968 18.1318 14.5884 18.0504 15.1512 17.5079C15.2597 17.4062 15.3343 17.2706 15.4496 17.1147C15.3004 17.0943 15.219 17.0808 15.1377 17.0672C13.9849 16.8638 13.2594 16.1721 13.0695 15.06C13.0017 14.6532 12.9746 14.226 13.0152 13.8124C13.0966 13.0868 13.2051 12.3613 13.3678 11.6493C14.0663 8.58429 14.785 5.52611 15.497 2.46793C15.5242 2.34587 15.5377 2.22381 15.5648 2.07463H13.2255C11.6455 5.08535 10.0655 8.09607 8.4856 11.1068C8.45169 11.1 8.42458 11.0864 8.39067 11.0797C8.3093 8.08929 8.22794 5.09891 8.13978 2.09498C6.95991 2.39334 6.49202 2.39334 5.33248 2.10854C4.76967 1.97292 4.20686 1.82374 3.63726 1.72203C2.97273 1.60675 2.32176 1.661 1.7047 1.96614C1.51484 2.06107 1.40635 2.19669 1.3521 2.4069C1.18936 3.05108 1.01306 3.68171 0.843536 4.32589C0.823193 4.3937 0.823187 4.46829 0.816406 4.54966C1.05374 4.46151 1.25717 4.37336 1.4606 4.31233C2.77609 3.92582 3.95597 4.5361 5.21722 4.78021C5.1901 4.92939 5.17653 5.04467 5.14941 5.15316C4.79002 6.6992 4.43063 8.24525 4.07125 9.79129C3.60337 11.8188 3.08124 13.8191 2.18616 15.711C2.16582 15.7517 2.1658 15.7924 2.14546 15.8602H4.50521V15.867ZM40.3694 15.0736C40.071 16.9519 39.4404 18.5793 37.5756 19.2303C35.3922 19.9898 33.541 19.393 32.1306 17.3859C32.1102 17.5893 32.0899 17.7114 32.0899 17.8334C32.117 19.1286 32.7476 20.0711 33.819 20.7492C34.5242 21.1968 35.3108 21.3595 36.1313 21.4137C37.3587 21.5019 38.4775 21.2103 39.4811 20.5051C40.783 19.5897 41.5967 18.3352 41.9493 16.796C42.5935 14.009 43.2106 11.2085 43.8344 8.41477C43.9293 7.98757 44.0243 7.56038 44.1192 7.09928H42.1799C42.1527 7.19421 42.1188 7.2688 42.1053 7.35017C41.8747 8.38765 41.6645 9.43869 41.4068 10.4694C41.2102 11.2424 40.9729 12.0019 40.722 12.7613C40.5931 13.1411 40.3287 13.4462 39.9896 13.67C39.5964 13.9276 39.1691 13.7446 39.1081 13.2767C39.081 13.0529 39.0946 12.8088 39.142 12.585C39.2437 12.0765 39.3861 11.5679 39.4878 11.0593C39.6777 10.1168 39.8608 9.17423 40.0235 8.22491C40.1185 7.68922 39.8947 7.2688 39.4268 6.99078C38.9386 6.6992 38.4436 6.71955 37.9147 6.97044C38.152 7.74346 38.0774 8.50292 37.9147 9.2556C37.7045 10.2321 37.4807 11.2017 37.2569 12.1714C37.101 12.863 36.9518 13.5547 37.0196 14.2667C37.1078 15.1821 37.6367 15.7788 38.4775 15.8602C39.0471 15.9144 39.5557 15.7381 39.9896 15.372C40.0914 15.2838 40.1931 15.1957 40.3558 15.06L40.3694 15.0736ZM37.4807 17.074C37.3315 17.0265 37.2434 16.9926 37.1552 16.9723C36.1381 16.7281 35.5753 16.0636 35.3718 15.06C35.2159 14.2735 35.2973 13.4869 35.4464 12.7071C35.6431 11.6967 35.8804 10.6864 36.0703 9.67602C36.172 9.14711 36.1516 8.61142 35.955 8.09607C35.7651 7.60106 35.4329 7.24168 34.8972 7.13318C34.1784 6.984 33.541 7.17387 33.0053 7.68243C32.89 7.79093 32.7815 7.89942 32.6324 8.05538C32.551 7.49935 32.3204 7.11962 31.8458 6.92297C31.3847 6.73311 30.9372 6.73311 30.476 6.97044C30.693 7.76381 30.6388 8.52326 30.476 9.27594C30.0489 11.1882 29.6216 13.1004 29.1945 15.0126C29.1334 15.2906 29.0792 15.5686 29.0114 15.8738H30.9507C30.9778 15.772 31.0117 15.6703 31.0321 15.5754C31.2897 14.443 31.5203 13.3106 31.7983 12.1849C31.9746 11.4797 32.2052 10.7881 32.4561 10.1032C32.5917 9.73705 32.8561 9.45225 33.2155 9.27594C33.602 9.08608 33.9614 9.24882 34.0224 9.67602C34.0496 9.87944 34.036 10.0964 33.9953 10.2931C33.8461 11.0458 33.6766 11.7917 33.5071 12.5376C33.2969 13.453 33.1274 14.3752 33.202 15.3245C33.3308 16.979 34.4496 18.003 36.0838 17.9148C36.667 17.8809 37.1484 17.6503 37.4875 17.0808L37.4807 17.074ZM16.1548 7.10606C16.1209 7.22133 16.087 7.34339 16.0599 7.46545C15.7208 8.97758 15.375 10.4965 15.0427 12.0086C14.8935 12.7003 14.7037 13.3852 14.7444 14.1039C14.8054 15.2703 15.5106 15.989 16.5684 15.867C16.9143 15.8263 17.2397 15.6432 17.572 15.5144C17.6601 15.4805 17.7347 15.4059 17.8568 15.3245C17.8365 15.5347 17.8161 15.6907 17.7958 15.867H19.9182C20.5692 12.9444 21.2337 10.0422 21.8643 7.10606H19.925C19.8911 7.21455 19.8572 7.3027 19.8368 7.39086C19.5995 8.45546 19.3825 9.52006 19.1248 10.5779C18.9417 11.317 18.7044 12.0493 18.4603 12.7681C18.3382 13.1207 18.0941 13.4123 17.7822 13.6293C17.3482 13.9344 16.9075 13.7649 16.8329 13.2495C16.8125 13.08 16.8329 12.9037 16.8668 12.7342C17.2465 10.9779 17.633 9.22848 18.0195 7.47223C18.0399 7.36373 18.0534 7.24846 18.0806 7.10606H16.1548ZM27.2687 7.09928C26.6177 10.0151 25.9667 12.9308 25.309 15.867H27.2755C27.9264 12.9512 28.5774 10.0422 29.2351 7.09928H27.2687Z" fill="#B9C8DE"/>
<path id="Vector_2" d="M25.0673 5.3167L25.043 5.30859L25.0511 5.3167H25.0673Z" fill="#B9C8DE"/>
</g>
</g>
</g>
</svg>
