<svg width="56" height="27" viewBox="0 0 56 27" fill="none" xmlns="http://www.w3.org/2000/svg">
<path d="M31.6328 5.99506H31.6242C31.1327 6.49519 30.6239 6.99533 30.1496 7.51271C29.9944 7.68517 29.8392 7.91799 29.7875 8.14219C28.9597 11.7983 28.1491 15.4545 27.3385 19.1107C27.3213 19.2055 27.3213 19.3004 27.3041 19.4211H29.7616C30.7964 14.7992 31.8311 10.1858 32.8745 5.51217C33.5126 5.3742 34.1421 5.21898 34.7802 5.11551C35.1855 5.04652 35.3235 5.16725 35.5132 5.5639C35.47 5.69325 35.4183 5.84846 35.3752 6.00368C35.2027 6.59004 35.5563 7.01257 36.1685 6.9091C36.5738 6.84011 36.9705 6.71939 37.3499 6.56418C38.7209 6.02093 40.0747 5.43456 41.4458 4.89993C42.6789 4.42567 43.9465 4.10661 45.283 4.10661H46.68C46.3178 3.67546 45.9384 3.43402 45.5159 3.25294C44.2655 2.70969 42.9548 2.70969 41.6441 2.85628C40.7559 2.95975 39.8678 3.15808 38.9796 3.28743C38.7382 3.32192 38.4709 3.33054 38.238 3.27018C37.8931 3.18395 37.8069 2.94251 37.9535 2.61483C38.0224 2.46824 38.1173 2.33027 38.1863 2.18368C38.3588 1.81289 38.2553 1.53695 37.8673 1.41623C37.6517 1.34725 37.4016 1.31276 37.1688 1.34725C36.4444 1.45072 35.7115 1.58007 34.9958 1.71804C34.5732 1.79565 34.1507 1.91637 33.6678 2.02847C33.7885 1.45072 33.8834 0.950589 33.9869 0.424585H31.5121C31.331 1.20928 31.1585 1.96811 30.9774 2.74418C30.6756 2.82178 30.3911 2.91664 30.1065 2.96838C29.8737 3.01149 29.5805 3.06323 29.4684 2.81316C29.3908 2.62346 29.4253 2.36476 29.4857 2.14919C29.5547 1.90774 29.7185 1.70079 29.8047 1.47659C30.0375 0.881605 29.7616 0.269371 29.1494 0.105533C28.7613 0.00205726 28.3302 -0.0151888 27.9249 0.0106803C26.6228 0.105533 25.3897 0.528061 24.148 0.916097C23.3375 1.17479 22.5355 1.45935 21.7336 1.73528C21.3283 3.54612 20.9403 5.30521 20.5264 7.14192C20.785 7.02119 20.9575 6.94359 21.13 6.86598C22.2941 6.37447 23.4582 5.86571 24.6395 5.40007C24.9586 5.27072 25.3294 5.21898 25.6743 5.19311C25.8726 5.17587 26.0796 5.28797 26.3383 5.36557C26.2779 5.60702 26.2434 5.77086 26.183 5.92607C26.1399 6.03817 26.0537 6.1244 25.9933 6.22788C25.7433 6.6849 25.9157 7.09018 26.4331 7.18503C26.6487 7.22815 26.8815 7.21953 27.0885 7.16779C28.4337 6.82287 29.7616 6.45208 31.0982 6.08991C31.262 6.04679 31.4431 6.02955 31.6069 6.00368L31.6328 5.99506ZM5.4878 19.4125C6.52256 16.6617 7.14343 13.8161 7.86776 10.9964C7.90225 10.9964 7.92811 10.9964 7.9626 10.9964C8.08332 13.7989 8.19543 16.6014 8.31615 19.4039H10.4374C11.7826 16.8169 13.1278 14.2387 14.4816 11.6604C14.5075 11.669 14.542 11.6862 14.5678 11.6949C14.3523 12.6089 14.1539 13.523 13.9297 14.437C13.5934 15.8167 13.3089 17.1964 13.4382 18.6364C13.6107 20.5076 14.7489 21.8355 16.508 22.1373C17.4307 22.2926 18.3102 22.1891 19.026 21.4992C19.1639 21.3699 19.2588 21.1974 19.4054 20.9991C19.2157 20.9732 19.1122 20.956 19.0087 20.9387C17.5428 20.6801 16.6201 19.8005 16.3787 18.3863C16.2924 17.869 16.258 17.3257 16.3097 16.7997C16.4132 15.877 16.5511 14.9544 16.7581 14.049C17.6463 10.1514 18.5603 6.26237 19.4657 2.37339C19.5002 2.21817 19.5175 2.06296 19.5519 1.87325H16.577C14.5679 5.70187 12.5587 9.53049 10.5495 13.3591C10.5064 13.3505 10.4719 13.3332 10.4288 13.3246C10.3253 9.52187 10.2219 5.71912 10.1098 1.89912C8.60935 2.27853 8.01435 2.27853 6.53981 1.91637C5.8241 1.74391 5.10839 1.5542 4.38405 1.42486C3.539 1.27826 2.71118 1.34725 1.92649 1.73528C1.68504 1.85601 1.54709 2.02847 1.4781 2.29578C1.27115 3.11497 1.04695 3.91691 0.831374 4.73609C0.805505 4.82232 0.805498 4.91718 0.796875 5.02065C1.09868 4.90856 1.35738 4.79646 1.61607 4.71885C3.28894 4.22734 4.78935 5.00341 6.39323 5.31384C6.35874 5.50354 6.34149 5.65014 6.307 5.7881C5.84998 7.75415 5.39296 9.7202 4.93594 11.6862C4.34095 14.2645 3.67698 16.8083 2.53874 19.2141C2.51287 19.2659 2.51285 19.3176 2.48698 19.4039H5.4878V19.4125ZM51.095 18.4036C50.7156 20.7922 49.9136 22.8617 47.5423 23.6895C44.7656 24.6553 42.4116 23.8964 40.618 21.344C40.5921 21.6027 40.5662 21.7579 40.5662 21.9132C40.6007 23.5601 41.4027 24.7587 42.7651 25.621C43.6619 26.1902 44.6622 26.3971 45.7056 26.4661C47.2663 26.5782 48.6891 26.2074 49.9654 25.3106C51.621 24.1465 52.6557 22.5513 53.1041 20.5938C53.9233 17.0498 54.708 13.4885 55.5013 9.93578C55.622 9.39253 55.7428 8.84928 55.8635 8.26291H53.3973C53.3628 8.38363 53.3197 8.47849 53.3025 8.58196C53.0093 9.90128 52.742 11.2379 52.4143 12.5486C52.1642 13.5316 51.8624 14.4974 51.5434 15.4631C51.3795 15.946 51.0432 16.3341 50.6121 16.6186C50.1119 16.9463 49.5687 16.7135 49.4911 16.1185C49.4566 15.8339 49.4738 15.5235 49.5342 15.2389C49.6635 14.5922 49.8446 13.9455 49.974 13.2988C50.2154 12.1002 50.4482 10.9016 50.6552 9.69433C50.7759 9.01311 50.4913 8.47849 49.8964 8.12494C49.2755 7.75415 48.646 7.78002 47.9734 8.09907C48.2752 9.0821 48.1804 10.0479 47.9734 11.005C47.7061 12.2467 47.4216 13.4798 47.137 14.7129C46.9387 15.5925 46.749 16.472 46.8352 17.3774C46.9473 18.5415 47.6199 19.3004 48.6891 19.4039C49.4135 19.4728 50.0602 19.2486 50.6121 18.783C50.7414 18.6709 50.8708 18.5588 51.0777 18.3863L51.095 18.4036ZM47.4216 20.9474C47.2318 20.887 47.1197 20.8439 47.0076 20.818C45.7142 20.5076 44.9985 19.6625 44.7398 18.3863C44.5414 17.3861 44.6449 16.3858 44.8346 15.3941C45.0847 14.1093 45.3865 12.8245 45.628 11.5397C45.7573 10.8671 45.7314 10.1858 45.4814 9.53049C45.2399 8.90101 44.8174 8.44399 44.1362 8.30603C43.2221 8.11632 42.4116 8.35776 41.7304 9.00449C41.5838 9.14246 41.4458 9.28043 41.2561 9.47876C41.1526 8.77167 40.8594 8.28878 40.2558 8.03871C39.6695 7.79727 39.1003 7.79727 38.514 8.09907C38.7899 9.10797 38.7209 10.0737 38.514 11.0309C37.9707 13.4626 37.4275 15.8943 36.8842 18.326C36.8066 18.6795 36.7376 19.0331 36.6514 19.4211H39.1176C39.1521 19.2918 39.1952 19.1624 39.2211 19.0417C39.5487 17.6016 39.8419 16.1616 40.1955 14.7302C40.4197 13.8334 40.7128 12.9538 41.0319 12.0829C41.2043 11.6173 41.5406 11.2551 41.9977 11.0309C42.4892 10.7895 42.9462 10.9964 43.0238 11.5397C43.0583 11.7983 43.041 12.0743 42.9893 12.3244C42.7996 13.2815 42.584 14.23 42.3684 15.1786C42.1011 16.3427 41.8856 17.5154 41.9804 18.7226C42.1443 20.8266 43.5671 22.1287 45.6452 22.0166C46.3868 21.9735 46.999 21.6803 47.4302 20.956L47.4216 20.9474ZM20.3021 8.27153C20.259 8.41812 20.2159 8.57334 20.1814 8.72855C19.7503 10.6515 19.3105 12.583 18.888 14.506C18.6983 15.3855 18.4568 16.2564 18.5086 17.1705C18.5862 18.6536 19.483 19.5677 20.8282 19.4125C21.2679 19.3607 21.6818 19.1279 22.1044 18.9641C22.2164 18.921 22.3113 18.8261 22.4665 18.7226C22.4407 18.9899 22.4148 19.1883 22.3889 19.4125H25.0879C25.9157 15.696 26.7608 12.0053 27.5627 8.27153H25.0965C25.0534 8.4095 25.0103 8.5216 24.9845 8.6337C24.6827 9.98751 24.4067 11.3413 24.079 12.6865C23.8462 13.6264 23.5444 14.5577 23.234 15.4718C23.0788 15.9202 22.7683 16.2909 22.3717 16.5669C21.8198 16.9549 21.2593 16.7393 21.1644 16.084C21.1386 15.8684 21.1645 15.6442 21.2076 15.4286C21.6905 13.1953 22.182 10.9705 22.6735 8.73718C22.6993 8.59921 22.7166 8.45262 22.7511 8.27153H20.3021ZM34.4353 8.26291C33.6075 11.9708 32.7797 15.6787 31.9432 19.4125H34.4439C35.2717 15.7046 36.0995 12.0053 36.936 8.26291H34.4353Z" fill="#181818"/>
<path d="M31.6332 5.99557L31.6055 5.98633L31.6147 5.99557H31.6332Z" fill="#181818"/>
</svg>
