<svg width="88" height="29" viewBox="0 0 88 29" fill="none" xmlns="http://www.w3.org/2000/svg">
<g id="Clip path group">
<mask id="mask0_12460_690" style="mask-type:luminance" maskUnits="userSpaceOnUse" x="0" y="0" width="88" height="29">
<g id="clip0_514_107">
<path id="Vector" d="M88 0H0V28.042H88V0Z" fill="white"/>
</g>
</mask>
<g mask="url(#mask0_12460_690)">
<g id="Group">
<path id="Vector_2" d="M87.9361 16.573H76.8317C77.5184 18.714 80.5513 19.0994 82.9903 17.3988L85.7991 20.0139C83.6246 22.6075 79.0578 23.1458 75.9139 21.2097C72.4962 19.1055 71.2517 14.9367 72.9361 11.2328C74.5038 7.78584 78.6208 5.96294 82.3899 7.04875C86.2976 8.19259 88.6107 12.0647 87.9361 16.573ZM83.4124 12.5969C82.8828 11.3735 81.3801 10.5599 79.9694 10.6272C78.5593 10.6945 77.1981 11.5448 76.8381 12.5969H83.4124Z" fill="white"/>
<path id="Vector_3" d="M70.7795 -0.169067V0.831073C70.7795 7.67612 70.7795 14.5242 70.7979 21.3722C70.7979 22.094 70.6223 22.3602 69.874 22.3142C68.8332 22.25 67.7862 22.2959 66.6992 22.2959C66.6807 21.9901 66.6591 21.7545 66.6591 21.5343C66.6591 14.9921 66.6591 8.44685 66.6407 1.90462C66.6407 1.34491 66.8162 1.10634 67.3459 0.953413C68.4576 0.626152 69.5599 0.240776 70.7795 -0.169067Z" fill="white"/>
<path id="Vector_4" d="M53.0021 21.6022V27.8385C51.6379 27.3859 50.3662 26.9791 49.1129 26.5326C48.9989 26.4928 48.9219 26.1991 48.9219 26.0249C48.9219 22.0487 48.7957 18.0726 48.9497 14.0965C49.119 9.72279 52.9744 6.81109 56.6666 6.66428C57.9855 6.6185 59.2954 6.89726 60.4797 7.47579C61.6639 8.05429 62.6859 8.91455 63.4545 9.98015C64.2232 11.0457 64.7147 12.2834 64.8853 13.5833C65.056 14.8831 64.9005 16.2046 64.4327 17.4303C62.9608 21.437 58.2524 23.5107 54.0552 21.9723L53.0021 21.6022ZM56.9806 10.7505C56.4615 10.737 55.9448 10.8271 55.4613 11.0154C54.9778 11.2038 54.5372 11.4866 54.1657 11.847C53.7942 12.2075 53.4992 12.6383 53.2983 13.114C53.0974 13.5897 52.9945 14.1006 52.9959 14.6165C53.0524 15.6193 53.4932 16.5626 54.2279 17.2528C54.9627 17.9429 55.9356 18.3275 56.9468 18.3275C57.9581 18.3275 58.9309 17.9429 59.6657 17.2528C60.4004 16.5626 60.8412 15.6193 60.8977 14.6165C60.8903 13.5891 60.4745 12.6063 59.7408 11.8822C59.0071 11.1581 58.015 10.7513 56.9806 10.7505Z" fill="white"/>
<path id="Vector_5" d="M39.2514 6.68235C43.5933 6.54166 47.2947 10.1263 47.2978 14.5183C47.3055 16.6306 46.4682 18.6594 44.9699 20.1586C43.4716 21.6576 41.4351 22.5041 39.3084 22.5118C37.1817 22.5195 35.139 21.6878 33.6297 20.1997C32.1205 18.7115 31.2682 16.6887 31.2604 14.5765C31.2481 10.1355 34.9341 6.56918 39.2514 6.68235ZM43.2176 14.5826C43.2172 14.0679 43.1141 13.5584 42.9143 13.0836C42.7144 12.6087 42.4217 12.178 42.0532 11.8162C41.6846 11.4543 41.2475 11.1687 40.7672 10.9758C40.2867 10.7829 39.7726 10.6864 39.2544 10.6921C38.7413 10.6959 38.2339 10.8001 37.7613 10.9987C37.2886 11.1973 36.86 11.4863 36.4999 11.8495C35.7725 12.5828 35.3682 13.5731 35.376 14.6024C35.3837 15.6318 35.8029 16.616 36.5413 17.3384C37.2796 18.0608 38.2766 18.4624 39.313 18.4547C40.3465 18.4514 41.3368 18.0427 42.0682 17.3174C42.7996 16.5921 43.2128 15.609 43.2176 14.5826Z" fill="white"/>
<path id="Vector_6" d="M28.6989 20.0214C26.2539 22.7741 21.7518 23.1595 18.4569 20.9818C15.3067 18.8989 14.1766 14.5772 15.8856 11.1364C17.647 7.59151 21.8257 5.81756 25.5394 7.16023C29.6257 8.62226 31.418 12.0967 30.7744 16.5775H19.741C20.4215 18.7185 23.4763 19.113 25.8997 17.4155L28.6989 20.0214ZM26.2693 12.5861C25.909 11.4453 24.2677 10.5369 22.8327 10.6256C21.3977 10.7143 19.9689 11.6227 19.7872 12.5861H26.2693Z" fill="white"/>
<path id="Vector_7" d="M-0.00894165 22.2385V6.72864H3.95421L4.14821 7.58504C4.83183 7.44742 5.47234 7.27917 6.12208 7.19049C7.11616 7.05182 8.12872 7.12718 9.09086 7.4116C10.0531 7.69602 10.9423 8.18275 11.6983 8.8388C12.4543 9.49477 13.0593 10.3047 13.4723 11.2135C13.8852 12.1223 14.0964 13.1087 14.0915 14.1058C14.0114 16.7882 14.0915 19.4736 14.0915 22.2813C12.7981 22.2813 11.5541 22.2996 10.3131 22.2538C10.2022 22.2538 10.0051 21.8409 10.0051 21.6176C9.98052 19.1708 10.0051 16.6995 9.98979 14.2404C9.98979 12.4512 8.75801 11.136 7.04281 11.1084C5.3276 11.081 4.04659 12.4512 4.04351 14.2802C4.04351 16.6352 4.04351 18.9924 4.04351 21.3515V22.2385H-0.00894165Z" fill="white"/>
</g>
</g>
</g>
</svg>
