<svg width="145" height="46" viewBox="0 0 145 46" fill="none" xmlns="http://www.w3.org/2000/svg">
<g id="Clip path group">
<mask id="mask0_10228_3954" style="mask-type:luminance" maskUnits="userSpaceOnUse" x="0" y="0" width="145" height="46">
<g id="clip0_514_107">
<path id="Vector" d="M144.355 0H0V46H144.355V0Z" fill="white"/>
</g>
</mask>
<g mask="url(#mask0_10228_3954)">
<g id="Group">
<path id="Vector_2" d="M144.255 27.1876H126.039C127.166 30.6997 132.141 31.3319 136.142 28.5423L140.749 32.8321C137.182 37.0866 129.691 37.9697 124.534 34.7937C118.927 31.3419 116.886 24.5034 119.649 18.4276C122.221 12.7732 128.974 9.78292 135.157 11.5641C141.567 13.4404 145.361 19.7922 144.255 27.1876ZM136.834 20.6653C135.965 18.6584 133.5 17.3237 131.186 17.4341C128.873 17.5445 126.64 18.9394 126.05 20.6653H136.834Z" fill="#EB325E"/>
<path id="Vector_3" d="M116.11 -0.277344V1.36329C116.11 12.5919 116.11 23.8254 116.14 35.059C116.14 36.243 115.852 36.6796 114.624 36.6042C112.917 36.4989 111.199 36.5741 109.416 36.5741C109.386 36.0725 109.351 35.6861 109.351 35.3249C109.351 24.5931 109.351 13.8562 109.32 3.12433C109.32 2.20618 109.608 1.81483 110.477 1.56397C112.301 1.02713 114.109 0.394963 116.11 -0.277344Z" fill="#EB325E"/>
<path id="Vector_4" d="M86.9488 35.4359V45.666C84.711 44.9234 82.6249 44.2562 80.5689 43.5237C80.382 43.4585 80.2557 42.9767 80.2557 42.6908C80.2557 36.1684 80.0486 29.646 80.3012 23.1236C80.579 15.949 86.9033 11.1726 92.96 10.9318C95.1235 10.8567 97.2723 11.314 99.215 12.263C101.158 13.212 102.834 14.6231 104.095 16.3711C105.356 18.119 106.162 20.1495 106.442 22.2817C106.722 24.4139 106.467 26.5818 105.7 28.5924C103.285 35.165 95.5614 38.5666 88.6764 36.043L86.9488 35.4359ZM93.4752 17.6348C92.6235 17.6127 91.776 17.7605 90.9828 18.0693C90.1897 18.3783 89.467 18.8423 88.8576 19.4335C88.2481 20.0248 87.7641 20.7316 87.4346 21.5119C87.105 22.2923 86.9364 23.1304 86.9387 23.9765C87.0312 25.6216 87.7544 27.1691 88.9596 28.3012C90.1649 29.4333 91.7608 30.0641 93.4196 30.0641C95.0785 30.0641 96.6744 29.4333 97.8797 28.3012C99.0849 27.1691 99.8081 25.6216 99.9006 23.9765C99.8886 22.2913 99.2065 20.6792 98.003 19.4912C96.7994 18.3034 95.1719 17.6361 93.4752 17.6348Z" fill="#EB325E"/>
<path id="Vector_5" d="M64.3936 10.9616C71.516 10.7309 77.5877 16.6111 77.5928 23.8158C77.6055 27.2808 76.2319 30.6089 73.7741 33.068C71.3163 35.5271 67.9756 36.9157 64.4871 36.9282C60.9984 36.9409 57.6476 35.5765 55.1718 33.1354C52.696 30.6942 51.298 27.3761 51.2852 23.9111C51.265 16.6261 57.3115 10.776 64.3936 10.9616ZM70.8998 23.9211C70.8991 23.0768 70.7299 22.2411 70.4021 21.4622C70.0742 20.6832 69.5942 19.9766 68.9896 19.3831C68.385 18.7896 67.668 18.3211 66.88 18.0046C66.0919 17.6881 65.2486 17.5299 64.3985 17.5392C63.5568 17.5454 62.7244 17.7163 61.9492 18.0421C61.1739 18.3679 60.4708 18.8421 59.88 19.4378C58.6868 20.6407 58.0236 22.2651 58.0364 23.9537C58.049 25.6424 58.7367 27.2567 59.9479 28.4418C61.159 29.6269 62.7945 30.2856 64.4946 30.2729C66.1899 30.2677 67.8145 29.5971 69.0143 28.4073C70.2141 27.2175 70.8918 25.605 70.8998 23.9211Z" fill="#EB325E"/>
<path id="Vector_6" d="M47.0777 32.8426C43.0669 37.3581 35.6817 37.9904 30.2767 34.418C25.1091 31.0013 23.2554 23.9119 26.0588 18.2676C28.9483 12.4527 35.803 9.54266 41.8949 11.7452C48.5981 14.1435 51.5381 19.843 50.4823 27.1932H32.3832C33.4995 30.7053 38.5105 31.3526 42.4859 28.5679L47.0777 32.8426ZM43.0922 20.6457C42.5011 18.7743 39.8088 17.2843 37.4548 17.4297C35.1008 17.5752 32.757 19.0654 32.459 20.6457H43.0922Z" fill="#EB325E"/>
<path id="Vector_7" d="M-0.0117188 36.4795V11.0371H6.48943L6.80766 12.4419C7.92907 12.2162 8.97976 11.9402 10.0456 11.7947C11.6763 11.5673 13.3373 11.6909 14.9156 12.1574C16.494 12.624 17.9527 13.4224 19.1929 14.4986C20.433 15.5747 21.4254 16.9033 22.1028 18.3941C22.7802 19.8849 23.1266 21.503 23.1186 23.1387C22.9872 27.5388 23.1186 31.9439 23.1186 36.5496C20.997 36.5496 18.9562 36.5798 16.9205 36.5045C16.7386 36.5045 16.4153 35.8272 16.4153 35.4609C16.375 31.4472 16.4153 27.3932 16.3902 23.3594C16.3902 20.4243 14.3696 18.2669 11.556 18.2217C8.74234 18.1767 6.64097 20.4243 6.63591 23.4247C6.63591 27.2879 6.63591 31.1545 6.63591 35.0245V36.4795H-0.0117188Z" fill="#EB325E"/>
</g>
</g>
</g>
</svg>
