<svg width="114" height="36" viewBox="0 0 114 36" fill="none" xmlns="http://www.w3.org/2000/svg">
<mask id="mask0_5581_5554" style="mask-type:luminance" maskUnits="userSpaceOnUse" x="0" y="0" width="114" height="36">
<path d="M113.493 0H0V36H113.493V0Z" fill="white"/>
</mask>
<g mask="url(#mask0_5581_5554)">
<path d="M113.412 21.2783H99.0912C99.9768 24.0269 103.888 24.5216 107.034 22.3385L110.656 25.6956C107.852 29.0253 101.962 29.7164 97.9075 27.2309C93.4998 24.5294 91.8946 19.1776 94.067 14.4226C96.0889 9.99739 101.399 7.65718 106.26 9.05113C111.299 10.5196 114.282 15.4905 113.412 21.2783ZM107.578 16.1738C106.895 14.6032 104.957 13.5587 103.138 13.6451C101.319 13.7315 99.5636 14.8231 99.0994 16.1738H107.578Z" fill="white"/>
<path d="M91.2831 -0.21582V1.06815C91.2831 9.85575 91.2831 18.6472 91.3068 27.4387C91.3068 28.3653 91.0804 28.707 90.1153 28.648C88.773 28.5656 87.4227 28.6244 86.0208 28.6244C85.9969 28.2319 85.9691 27.9295 85.9691 27.6468C85.9691 19.248 85.9691 10.8452 85.9453 2.44636C85.9453 1.72781 86.1717 1.42154 86.8548 1.22521C88.2885 0.805075 89.7102 0.310333 91.2831 -0.21582Z" fill="white"/>
<path d="M68.3562 27.7332V35.7393C66.5969 35.1582 64.9567 34.636 63.3403 34.0627C63.1934 34.0117 63.0941 33.6347 63.0941 33.4109C63.0941 28.3064 62.9313 23.202 63.1298 18.0974C63.3482 12.4825 68.3205 8.74451 73.0823 8.55603C74.7833 8.49726 76.4727 8.85514 78 9.59785C79.5273 10.3405 80.8453 11.4449 81.8366 12.8129C82.8279 14.1808 83.4619 15.7699 83.6819 17.4386C83.9021 19.1072 83.7015 20.8038 83.0982 22.3774C81.1999 27.5212 75.1275 30.1833 69.7145 28.2083L68.3562 27.7332ZM73.4873 13.8018C72.8177 13.7846 72.1514 13.9002 71.5278 14.1419C70.9043 14.3838 70.3361 14.7468 69.8569 15.2095C69.3778 15.6723 68.9973 16.2254 68.7382 16.8361C68.4791 17.4468 68.3465 18.1028 68.3483 18.765C68.4211 20.0524 68.9896 21.2635 69.9372 22.1495C70.8847 23.0355 72.1395 23.5291 73.4436 23.5291C74.7479 23.5291 76.0026 23.0355 76.9502 22.1495C77.8977 21.2635 78.4663 20.0524 78.5391 18.765C78.5296 17.4461 77.9933 16.1844 77.0471 15.2547C76.1008 14.3251 74.8213 13.8029 73.4873 13.8018Z" fill="white"/>
<path d="M50.6262 8.57936C56.2259 8.39874 60.9996 13.0006 61.0036 18.6391C61.0135 21.3508 59.9336 23.9554 58.0013 25.88C56.069 27.8045 53.4425 28.8912 50.6997 28.901C47.9569 28.9109 45.3225 27.8432 43.376 25.9327C41.4295 24.0222 40.3304 21.4254 40.3204 18.7137C40.3045 13.0124 45.0583 8.43407 50.6262 8.57936ZM55.7415 18.7216C55.7409 18.0608 55.6079 17.4068 55.3502 16.7972C55.0924 16.1875 54.715 15.6346 54.2397 15.1701C53.7643 14.7056 53.2006 14.3389 52.5811 14.0913C51.9615 13.8436 51.2985 13.7197 50.6301 13.727C49.9684 13.7319 49.3139 13.8656 48.7045 14.1206C48.0949 14.3756 47.5421 14.7466 47.0776 15.2128C46.1396 16.1542 45.6182 17.4256 45.6282 18.747C45.6381 20.0686 46.1788 21.332 47.131 22.2595C48.0832 23.1869 49.369 23.7024 50.7057 23.6925C52.0386 23.6884 53.3158 23.1636 54.2591 22.2325C55.2024 21.3013 55.7352 20.0394 55.7415 18.7216Z" fill="white"/>
<path d="M37.0121 25.7038C33.8587 29.2376 28.0525 29.7324 23.803 26.9367C19.7402 24.2628 18.2828 18.7145 20.4869 14.2973C22.7586 9.74641 28.1478 7.46902 32.9373 9.19273C38.2074 11.0697 40.5189 15.5302 39.6888 21.2825H25.4591C26.3368 24.0311 30.2765 24.5376 33.402 22.3584L37.0121 25.7038ZM33.8786 16.1584C33.4139 14.6938 31.2972 13.5277 29.4465 13.6415C27.5957 13.7554 25.753 14.9216 25.5188 16.1584H33.8786Z" fill="white"/>
<path d="M-0.0117188 28.5501V8.63867H5.09953L5.34972 9.73811C6.23138 9.56144 7.05744 9.34544 7.89542 9.23159C9.17747 9.05357 10.4834 9.15032 11.7242 9.51545C12.9652 9.88058 14.112 10.5055 15.087 11.3477C16.0621 12.1898 16.8423 13.2296 17.3749 14.3963C17.9074 15.563 18.1798 16.8294 18.1735 18.1095C18.0702 21.553 18.1735 25.0005 18.1735 28.605C16.5055 28.605 14.901 28.6286 13.3005 28.5697C13.1575 28.5697 12.9034 28.0396 12.9034 27.753C12.8716 24.6118 12.9034 21.4391 12.8836 18.2822C12.8836 15.9852 11.295 14.2968 9.08288 14.2614C6.87078 14.2261 5.21867 15.9852 5.21469 18.3333C5.21469 21.3567 5.21469 24.3827 5.21469 27.4114V28.5501H-0.0117188Z" fill="white"/>
</g>
</svg>
