<svg width="95" height="30" viewBox="0 0 95 30" fill="none" xmlns="http://www.w3.org/2000/svg">
<mask id="mask0_12695_1616" style="mask-type:luminance" maskUnits="userSpaceOnUse" x="0" y="0" width="95" height="30">
<path d="M94.1446 0H0V30H94.1446V0Z" fill="white"/>
</mask>
<g mask="url(#mask0_12695_1616)">
<path d="M94.0762 17.7306H82.1965C82.9311 20.0211 86.1758 20.4334 88.7851 18.6141L91.79 21.4117C89.4637 24.1864 84.578 24.7624 81.2145 22.6911C77.5583 20.4399 76.2268 15.98 78.0288 12.0175C79.706 8.32986 84.1105 6.37968 88.1428 7.54131C92.3233 8.76501 94.7979 12.9075 94.0762 17.7306ZM89.2367 13.4769C88.6701 12.1681 87.0625 11.2976 85.5532 11.3696C84.0447 11.4416 82.5884 12.3513 82.2033 13.4769H89.2367Z" fill="#F4404E"/>
<path d="M75.7217 -0.180664V0.889311C75.7217 8.21231 75.7217 15.5385 75.7414 22.8648C75.7414 23.637 75.5536 23.9217 74.7531 23.8725C73.6395 23.8038 72.5194 23.8529 71.3566 23.8529C71.3368 23.5257 71.3137 23.2737 71.3137 23.0382C71.3137 16.0392 71.3137 9.03686 71.2939 2.03782C71.2939 1.43902 71.4817 1.1838 72.0483 1.02019C73.2377 0.670082 74.417 0.257797 75.7217 -0.180664Z" fill="#F4404E"/>
<path d="M56.7031 23.1107V29.7825C55.2437 29.2982 53.8831 28.863 52.5423 28.3853C52.4204 28.3428 52.338 28.0286 52.338 27.8421C52.338 23.5884 52.203 19.3347 52.3677 15.0809C52.5488 10.4018 56.6734 7.28677 60.6234 7.1297C62.0344 7.08073 63.4358 7.37896 64.7027 7.99788C65.9697 8.61678 67.063 9.53711 67.8853 10.6771C68.7076 11.817 69.2335 13.1412 69.416 14.5318C69.5986 15.9224 69.4323 17.3362 68.9319 18.6475C67.3572 22.934 62.32 25.1524 57.8297 23.5066L56.7031 23.1107ZM60.9594 11.5012C60.404 11.4868 59.8512 11.5832 59.3339 11.7846C58.8167 11.9862 58.3454 12.2887 57.9479 12.6743C57.5504 13.0599 57.2348 13.5209 57.0199 14.0298C56.805 14.5387 56.695 15.0853 56.6965 15.6372C56.7568 16.71 57.2285 17.7192 58.0145 18.4576C58.8005 19.1959 59.8413 19.6073 60.9232 19.6073C62.0051 19.6073 63.0459 19.1959 63.8319 18.4576C64.6179 17.7192 65.0896 16.71 65.1499 15.6372C65.1421 14.5381 64.6972 13.4867 63.9123 12.7119C63.1274 11.9373 62.066 11.5021 60.9594 11.5012Z" fill="#F4404E"/>
<path d="M41.9921 7.14906C46.6371 6.99854 50.597 10.8335 50.6003 15.5322C50.6086 17.792 49.7128 19.9625 48.1098 21.5663C46.5069 23.17 44.3282 24.0756 42.053 24.0838C39.7778 24.092 37.5925 23.2022 35.9779 21.6102C34.3632 20.0181 33.4515 17.8541 33.4431 15.5944C33.43 10.8433 37.3734 7.02799 41.9921 7.14906ZM46.2353 15.6009C46.2348 15.0503 46.1245 14.5052 45.9107 13.9973C45.6968 13.4892 45.3838 13.0284 44.9895 12.6413C44.5952 12.2543 44.1276 11.9487 43.6137 11.7423C43.0997 11.5359 42.5497 11.4327 41.9953 11.4388C41.4464 11.4428 40.9035 11.5543 40.3979 11.7668C39.8923 11.9792 39.4337 12.2885 39.0484 12.677C38.2703 13.4615 37.8378 14.5209 37.8461 15.6221C37.8544 16.7234 38.3028 17.7763 39.0927 18.5492C39.8826 19.322 40.9492 19.7516 42.058 19.7434C43.1636 19.7399 44.2231 19.3026 45.0056 18.5267C45.7881 17.7507 46.23 16.6991 46.2353 15.6009Z" fill="#F4404E"/>
<path d="M30.7025 21.4195C28.0868 24.3644 23.2704 24.7767 19.7454 22.4469C16.3752 20.2187 15.1662 15.5951 16.9946 11.9141C18.879 8.12168 23.3495 6.22386 27.3225 7.66028C31.6941 9.2244 33.6115 12.9415 32.9229 17.7351H21.1192C21.8472 20.0256 25.1153 20.4477 27.7079 18.6317L30.7025 21.4195ZM28.1033 13.465C27.7178 12.2445 25.962 11.2727 24.4267 11.3676C22.8915 11.4625 21.363 12.4343 21.1686 13.465H28.1033Z" fill="#F4404E"/>
<path d="M-0.00952148 23.7916V7.19873H4.23036L4.4379 8.11493C5.16925 7.96771 5.85449 7.7877 6.5496 7.69283C7.61309 7.54448 8.69635 7.6251 9.72568 7.92938C10.7551 8.23365 11.7064 8.75438 12.5152 9.45623C13.324 10.158 13.9712 11.0245 14.413 11.9968C14.8547 12.969 15.0807 14.0243 15.0755 15.0911C14.9898 17.9607 15.0755 20.8336 15.0755 23.8373C13.6918 23.8373 12.3609 23.857 11.0332 23.8079C10.9146 23.8079 10.7038 23.3662 10.7038 23.1273C10.6775 20.5097 10.7038 17.8658 10.6874 15.235C10.6874 13.3208 9.36958 11.9138 7.53462 11.8844C5.69965 11.855 4.32919 13.3208 4.32589 15.2776C4.32589 17.7971 4.32589 20.3188 4.32589 22.8427V23.7916H-0.00952148Z" fill="#F4404E"/>
</g>
</svg>
