<svg width="145" height="46" viewBox="0 0 145 46" fill="none" xmlns="http://www.w3.org/2000/svg">
<g clip-path="url(#clip0_5574_5496)">
<mask id="mask0_5574_5496" style="mask-type:luminance" maskUnits="userSpaceOnUse" x="0" y="6" width="145" height="47">
<path d="M144.355 6.44043H0V52.4404H144.355V6.44043Z" fill="white"/>
</mask>
<g mask="url(#mask0_5574_5496)">
<path d="M144.255 33.6281H126.039C127.166 37.1402 132.141 37.7723 136.142 34.9828L140.749 39.2725C137.182 43.527 129.691 44.4101 124.534 41.2342C118.927 37.7823 116.886 30.9439 119.649 24.8681C122.221 19.2136 128.974 16.2234 135.157 18.0045C141.567 19.8809 145.361 26.2327 144.255 33.6281ZM136.834 27.1057C135.965 25.0989 133.5 23.7642 131.186 23.8746C128.873 23.985 126.64 25.3798 126.05 27.1057H136.834Z" fill="#EB325E"/>
<path d="M116.11 6.16406V7.80469C116.11 19.0333 116.11 30.2668 116.14 41.5004C116.14 42.6844 115.852 43.121 114.624 43.0456C112.917 42.9403 111.199 43.0155 109.416 43.0155C109.386 42.5139 109.351 42.1275 109.351 41.7663C109.351 31.0345 109.351 20.2976 109.32 9.56573C109.32 8.64758 109.608 8.25624 110.477 8.00538C112.301 7.46854 114.109 6.83637 116.11 6.16406Z" fill="#EB325E"/>
<path d="M86.9488 41.8774V52.1074C84.711 51.3649 82.6249 50.6976 80.5689 49.9651C80.382 49.8999 80.2557 49.4181 80.2557 49.1322C80.2557 42.6098 80.0486 36.0875 80.3012 29.565C80.579 22.3904 86.9033 17.614 92.96 17.3732C95.1235 17.2981 97.2723 17.7554 99.215 18.7044C101.158 19.6534 102.834 21.0645 104.095 22.8125C105.356 24.5604 106.162 26.5909 106.442 28.7231C106.722 30.8553 106.467 33.0232 105.7 35.0338C103.285 41.6064 95.5614 45.008 88.6764 42.4844L86.9488 41.8774ZM93.4752 24.0762C92.6235 24.0541 91.776 24.2019 90.9828 24.5107C90.1897 24.8198 89.467 25.2837 88.8576 25.8749C88.2481 26.4662 87.7641 27.173 87.4346 27.9533C87.105 28.7337 86.9364 29.5718 86.9387 30.418C87.0312 32.063 87.7544 33.6105 88.9596 34.7426C90.1649 35.8747 91.7608 36.5055 93.4196 36.5055C95.0785 36.5055 96.6744 35.8747 97.8797 34.7426C99.0849 33.6105 99.8081 32.063 99.9006 30.418C99.8886 28.7327 99.2065 27.1206 98.003 25.9326C96.7994 24.7448 95.1719 24.0775 93.4752 24.0762Z" fill="#EB325E"/>
<path d="M64.3936 17.4031C71.516 17.1723 77.5877 23.0525 77.5928 30.2572C77.6055 33.7222 76.2319 37.0503 73.7741 39.5094C71.3163 41.9685 67.9756 43.3571 64.4871 43.3696C60.9984 43.3823 57.6476 42.0179 55.1718 39.5768C52.696 37.1356 51.298 33.8175 51.2852 30.3525C51.265 23.0675 57.3115 17.2174 64.3936 17.4031ZM70.8998 30.3626C70.8991 29.5182 70.7299 28.6825 70.4021 27.9036C70.0742 27.1246 69.5942 26.4181 68.9896 25.8245C68.385 25.231 67.668 24.7625 66.88 24.446C66.0919 24.1296 65.2486 23.9713 64.3985 23.9806C63.5568 23.9868 62.7244 24.1577 61.9492 24.4835C61.1739 24.8093 60.4708 25.2835 59.88 25.8792C58.6868 27.0821 58.0236 28.7066 58.0364 30.3951C58.0491 32.0838 58.7367 33.6981 59.9479 34.8832C61.159 36.0683 62.7945 36.727 64.4946 36.7143C66.1899 36.7091 67.8145 36.0385 69.0143 34.8487C70.2141 33.6589 70.8918 32.0464 70.8998 30.3626Z" fill="#EB325E"/>
<path d="M47.0777 39.283C43.0669 43.7985 35.6817 44.4308 30.2767 40.8584C25.1091 37.4418 23.2554 30.3524 26.0588 24.7081C28.9483 18.8931 35.803 15.9831 41.8949 18.1856C48.5981 20.5839 51.5381 26.2834 50.4823 33.6337H32.3832C33.4995 37.1458 38.5105 37.793 42.4859 35.0084L47.0777 39.283ZM43.0922 27.0861C42.5011 25.2148 39.8088 23.7247 37.4548 23.8702C35.1008 24.0156 32.757 25.5058 32.459 27.0861H43.0922Z" fill="#EB325E"/>
<path d="M-0.0117188 42.9199V17.4775H6.48943L6.80766 18.8824C7.92907 18.6566 8.97976 18.3806 10.0456 18.2352C11.6763 18.0077 13.3373 18.1313 14.9156 18.5979C16.494 19.0644 17.9527 19.8629 19.1929 20.939C20.433 22.0151 21.4254 23.3437 22.1028 24.8345C22.7802 26.3253 23.1266 27.9435 23.1186 29.5791C22.9872 33.9792 23.1186 38.3843 23.1186 42.9901C20.997 42.9901 18.9562 43.0202 16.9205 42.945C16.7386 42.945 16.4153 42.2676 16.4153 41.9014C16.375 37.8876 16.4153 33.8336 16.3902 29.7998C16.3902 26.8648 14.3696 24.7074 11.556 24.6622C8.74234 24.6171 6.64097 26.8648 6.63591 29.8651C6.63591 33.7283 6.63591 37.5949 6.63591 41.4649V42.9199H-0.0117188Z" fill="#EB325E"/>
</g>
</g>
<defs>
<clipPath id="clip0_5574_5496">
<rect width="145" height="46" fill="white"/>
</clipPath>
</defs>
</svg>
