<svg width="109" height="20" viewBox="0 0 109 20" fill="none" xmlns="http://www.w3.org/2000/svg">
<path d="M19.6226 0.183594V15.5565H12.2701V6.33417H8.06351V15.5565H0.710938V0.183594H19.6226Z" fill="#181818"/>
<path fill-rule="evenodd" clip-rule="evenodd" d="M28.0234 0.183594H31.205L38.5291 9.69092V0.183594H41.9243V15.5496H38.9989L31.4257 5.84768V15.5496H28.0234V0.183594ZM43.5827 9.77431V9.73261C43.5827 6.39671 46.017 3.65154 49.5046 3.65154C53.5048 3.65154 55.334 6.68165 55.334 9.99671C55.334 10.2538 55.3127 10.5596 55.2913 10.8654H46.9565C47.291 12.3666 48.3587 13.1519 49.8819 13.1519C51.0207 13.1519 51.8463 12.8044 52.7859 11.9565L54.729 13.6315C53.6115 14.9867 52.0029 15.8137 49.8392 15.8137C46.2376 15.8137 43.5756 13.3535 43.5756 9.77431H43.5827ZM52.0314 8.79439C51.8321 7.30714 50.9353 6.30637 49.5117 6.30637C48.0953 6.30637 47.1771 7.29324 46.9138 8.79439H52.0314ZM57.4551 6.7025H56.0316V3.86699H57.4551V0.885523H60.8573V3.86699H63.6688V6.7025H60.8573V11.6925C60.8573 12.4569 61.1919 12.8322 61.9464 12.8322C62.5727 12.8322 63.135 12.6724 63.6261 12.4083V15.0701C62.9144 15.487 62.0816 15.7442 60.9428 15.7442C58.8644 15.7442 57.4622 14.938 57.4622 12.2345L57.4551 6.7025ZM81.5058 3.87394H84.9009V5.54884C85.7266 4.45772 86.8654 3.65849 88.6306 3.65849C91.4278 3.65849 94.0827 5.79208 94.0827 9.69092V9.73261C94.0827 13.6384 91.4705 15.772 88.6306 15.772C86.8227 15.772 85.7052 14.9658 84.9009 14.0276V19.0453H81.5058V3.87394ZM90.6805 9.69092C90.6805 7.75192 89.3424 6.46621 87.7551 6.46621C86.175 6.46621 84.8511 7.75192 84.8511 9.69092V9.73261C84.8511 11.6716 86.1679 12.9643 87.7551 12.9643C89.3424 12.9643 90.6805 11.6925 90.6805 9.73261V9.69092ZM95.4636 3.87394H98.8587V5.54884C99.6915 4.45772 100.83 3.65154 102.595 3.65154C105.386 3.65154 108.048 5.79208 108.048 9.69092V9.73261C108.048 13.6384 105.428 15.772 102.595 15.772C100.78 15.772 99.663 14.9658 98.8587 14.0276V19.0453H95.4636V3.87394ZM104.653 9.69092C104.653 7.75192 103.307 6.46621 101.72 6.46621C100.14 6.46621 98.816 7.75192 98.816 9.69092V9.73261C98.816 11.6716 100.14 12.9573 101.72 12.9573C103.307 12.9573 104.653 11.6925 104.653 9.73261V9.69092ZM71.0214 0.183594H74.1176L80.6516 15.5565H77.0715L75.6266 12.1303H69.4271L67.9964 15.5565H64.4874L71.0214 0.183594ZM74.6087 9.16273L72.5304 4.20753L70.4449 9.16273H74.6087Z" fill="#181818"/>
</svg>
