<svg width="69" height="12" viewBox="0 0 69 12" fill="none" xmlns="http://www.w3.org/2000/svg">
<path d="M12.0318 0V9.7804H7.35401V3.91304H4.67777V9.7804H0V0H12.0318Z" fill="black"/>
<path fill-rule="evenodd" clip-rule="evenodd" d="M17.375 0H19.3992L24.0588 6.04864V0H26.2188V9.77598H24.3577L19.5395 3.60354V9.77598H17.375V0ZM27.2739 6.1017V6.07517C27.2739 3.95284 28.8226 2.20634 31.0415 2.20634C33.5864 2.20634 34.7502 4.13412 34.7502 6.24318C34.7502 6.40678 34.7366 6.60133 34.723 6.79587H29.4204C29.6332 7.75092 30.3124 8.25055 31.2815 8.25055C32.006 8.25055 32.5313 8.02948 33.1291 7.49005L34.3653 8.55564C33.6544 9.41783 32.631 9.94399 31.2543 9.94399C28.963 9.94399 27.2694 8.37878 27.2694 6.1017H27.2739ZM32.6491 5.47826C32.5223 4.53206 31.9517 3.89536 31.046 3.89536C30.1449 3.89536 29.5607 4.52321 29.3932 5.47826H32.6491ZM36.0997 4.14738H35.194V2.3434H36.0997V0.446573H38.2642V2.3434H40.0529V4.14738H38.2642V7.32203C38.2642 7.8084 38.477 8.04716 38.957 8.04716C39.3555 8.04716 39.7133 7.94547 40.0257 7.77745V9.47089C39.5729 9.73618 39.0431 9.89978 38.3185 9.89978C36.9963 9.89978 36.1042 9.38688 36.1042 7.66691L36.0997 4.14738ZM51.4009 2.34783H53.5609V3.41341C54.0862 2.71923 54.8107 2.21076 55.9338 2.21076C57.7134 2.21076 59.4025 3.56817 59.4025 6.04864V6.07517C59.4025 8.56006 57.7406 9.91747 55.9338 9.91747C54.7836 9.91747 54.0726 9.40457 53.5609 8.80766V12H51.4009V2.34783ZM57.2379 6.04864C57.2379 4.81503 56.3866 3.99705 55.3768 3.99705C54.3715 3.99705 53.5292 4.81503 53.5292 6.04864V6.07517C53.5292 7.30877 54.367 8.13117 55.3768 8.13117C56.3866 8.13117 57.2379 7.32203 57.2379 6.07517V6.04864ZM60.281 2.34783H62.441V3.41341C62.9708 2.71923 63.6953 2.20634 64.8183 2.20634C66.5935 2.20634 68.2871 3.56817 68.2871 6.04864V6.07517C68.2871 8.56006 66.6206 9.91747 64.8183 9.91747C63.6636 9.91747 62.9527 9.40457 62.441 8.80766V12H60.281V2.34783ZM66.127 6.04864C66.127 4.81503 65.2712 3.99705 64.2614 3.99705C63.2561 3.99705 62.4138 4.81503 62.4138 6.04864V6.07517C62.4138 7.30877 63.2561 8.12675 64.2614 8.12675C65.2712 8.12675 66.127 7.32203 66.127 6.07517V6.04864ZM44.7307 0H46.7005L50.8575 9.7804H48.5797L47.6605 7.60059H43.7163L42.8061 9.7804H40.5737L44.7307 0ZM47.0129 5.7126L45.6907 2.56006L44.3639 5.7126H47.0129Z" fill="#010101"/>
</svg>
