<svg width="85" height="16" viewBox="0 0 85 16" fill="none" xmlns="http://www.w3.org/2000/svg">
<g id="netapp">
<path id="Layer" d="M15.2427 0.917969V13.0068H9.46086V5.7546H6.15295V13.0068H0.371094V0.917969H15.2427Z" fill="#B9C8DE"/>
<path id="Layer_2" fill-rule="evenodd" clip-rule="evenodd" d="M21.8477 0.917969H24.3496L30.109 8.39425V0.917969H32.7789V13.0014H30.4785L24.5231 5.37204V13.0014H21.8477V0.917969ZM34.083 8.45984V8.42704C34.083 5.80379 35.9972 3.64506 38.7398 3.64506C41.8854 3.64506 43.3239 6.02786 43.3239 8.63472C43.3239 8.83693 43.3071 9.07739 43.2903 9.31786H36.7361C36.9991 10.4983 37.8387 11.1159 39.0365 11.1159C39.932 11.1159 40.5813 10.8426 41.3201 10.1759L42.8482 11.493C41.9694 12.5587 40.7044 13.209 39.0029 13.209C36.1708 13.209 34.0774 11.2744 34.0774 8.45984H34.083ZM40.7268 7.68925C40.5701 6.51972 39.8649 5.73274 38.7454 5.73274C37.6316 5.73274 36.9096 6.50879 36.7025 7.68925H40.7268ZM44.9919 6.04425H43.8724V3.81448H44.9919V1.46995H47.6673V3.81448H49.8782V6.04425H47.6673V9.96821C47.6673 10.5694 47.9304 10.8645 48.5237 10.8645C49.0162 10.8645 49.4584 10.7388 49.8446 10.5311V12.6243C49.2849 12.9522 48.63 13.1544 47.7345 13.1544C46.1001 13.1544 44.9975 12.5204 44.9975 10.3945L44.9919 6.04425ZM63.9046 3.81995H66.5745V5.13704C67.2237 4.27902 68.1193 3.65053 69.5074 3.65053C71.707 3.65053 73.7948 5.32832 73.7948 8.39425V8.42704C73.7948 11.4984 71.7406 13.1762 69.5074 13.1762C68.0857 13.1762 67.2069 12.5423 66.5745 11.8045V15.7503H63.9046V3.81995ZM71.1194 8.39425C71.1194 6.86949 70.0671 5.85844 68.8189 5.85844C67.5764 5.85844 66.5353 6.86949 66.5353 8.39425V8.42704C66.5353 9.95181 67.5708 10.9683 68.8189 10.9683C70.0671 10.9683 71.1194 9.96821 71.1194 8.42704V8.39425ZM74.8806 3.81995H77.5505V5.13704C78.2053 4.27902 79.1009 3.64506 80.489 3.64506C82.6831 3.64506 84.7764 5.32832 84.7764 8.39425V8.42704C84.7764 11.4984 82.7166 13.1762 80.489 13.1762C79.0617 13.1762 78.183 12.5423 77.5505 11.8045V15.7503H74.8806V3.81995ZM82.1066 8.39425C82.1066 6.86949 81.0487 5.85844 79.8005 5.85844C78.558 5.85844 77.5169 6.86949 77.5169 8.39425V8.42704C77.5169 9.95181 78.558 10.9629 79.8005 10.9629C81.0487 10.9629 82.1066 9.96821 82.1066 8.42704V8.39425ZM55.66 0.917969H58.0948L63.233 13.0068H60.4176L59.2814 10.3125H54.4063L53.2812 13.0068H50.5218L55.66 0.917969ZM58.481 7.97891L56.8466 4.08227L55.2067 7.97891H58.481Z" fill="#B9C8DE"/>
</g>
</svg>
