<svg width="11" height="16" viewBox="0 0 11 16" fill="none" xmlns="http://www.w3.org/2000/svg">
<path d="M8.7875 7.77812C9.2375 7.13437 9.5 6.35 9.5 5.5C9.5 3.29063 7.70937 1.5 5.5 1.5C3.29063 1.5 1.5 3.29063 1.5 5.5C1.5 6.35 1.7625 7.13437 2.2125 7.77812C2.32813 7.94375 2.46562 8.13125 2.6125 8.33125C3.01562 8.88438 3.49687 9.54687 3.85625 10.2C4.18125 10.7937 4.34687 11.4125 4.42812 11.9969H2.90625C2.8375 11.6219 2.72187 11.2562 2.5375 10.9187C2.22812 10.3562 1.84375 9.82813 1.45938 9.3C1.29688 9.07813 1.13437 8.85625 0.978125 8.63125C0.3625 7.74688 0 6.66562 0 5.5C0 2.4625 2.4625 0 5.5 0C8.5375 0 11 2.4625 11 5.5C11 6.66562 10.6375 7.74687 10.0188 8.63437C9.8625 8.85937 9.7 9.08125 9.5375 9.30313C9.15313 9.82813 8.76875 10.3562 8.45938 10.9219C8.275 11.2594 8.15937 11.625 8.09062 12H6.575C6.65625 11.4156 6.82187 10.7937 7.14687 10.2031C7.50625 9.55 7.9875 8.8875 8.39062 8.33438C8.5375 8.13438 8.67188 7.94688 8.7875 7.78125V7.77812ZM5.5 4C4.67188 4 4 4.67188 4 5.5C4 5.775 3.775 6 3.5 6C3.225 6 3 5.775 3 5.5C3 4.11875 4.11875 3 5.5 3C5.775 3 6 3.225 6 3.5C6 3.775 5.775 4 5.5 4ZM5.5 16C4.11875 16 3 14.8813 3 13.5V13H8V13.5C8 14.8813 6.88125 16 5.5 16Z" fill="#61BD73"/>
</svg>
