<svg width="137" height="23" viewBox="0 0 137 23" fill="none" xmlns="http://www.w3.org/2000/svg">
<g id="NTT-Data-Logo 1">
<g id="g10">
<g id="g12">
<path id="path14" d="M21.7109 1.54736V5.58722H27.8556V20.7066H32.2065V5.58722H38.3512V1.54736H21.7109Z" fill="#6485C1"/>
<path id="path16" d="M93.335 1.54738H82.3763V5.6201H93.0381C94.6092 5.6201 95.2178 6.33659 95.2178 8.16186V8.84462H86.3749C83.0098 8.84462 81.3398 10.5227 81.3398 14.324V15.2297C81.3398 19.1363 83.0755 20.7066 86.5649 20.7066H99.5283V8.11424C99.5283 3.29374 97.9325 1.54738 93.335 1.54738ZM87.0174 16.6109C86.3585 16.6109 85.6189 16.2827 85.6189 14.6359C85.6189 12.9907 86.3412 12.7028 87.0174 12.7028H95.2178V16.611L87.0174 16.6109Z" fill="#6485C1"/>
<path id="path18" d="M129.465 1.54738H118.509V5.6201H129.177C130.74 5.6201 131.348 6.33659 131.348 8.16186V8.84462H122.514C119.149 8.84462 117.473 10.5227 117.473 14.324V15.2297C117.473 19.1363 119.208 20.7066 122.695 20.7066H135.659V8.11424C135.659 3.29374 134.063 1.54738 129.465 1.54738ZM123.148 16.6109C122.489 16.6109 121.75 16.2827 121.75 14.6359C121.75 12.9907 122.474 12.7028 123.148 12.7028H131.348V16.611L123.148 16.6109Z" fill="#6485C1"/>
<path id="path20" d="M39.7344 1.54736V5.58722H45.879V20.7066H50.2405V5.58722H56.3853V1.54736H39.7344Z" fill="#6485C1"/>
<path id="path22" d="M100.402 1.54736V5.58722H106.547V20.7066H110.898V5.58722H117.043V1.54736H100.402Z" fill="#6485C1"/>
<path id="path24" d="M79.6543 13.9955V8.26126C79.6543 3.25081 77.713 1.55623 73.3204 1.55623H61.6641V20.7064H73.5244C78.1802 20.7064 79.6543 18.3881 79.6543 13.9955ZM75.2114 14.0862C75.2114 15.9115 74.5946 16.6279 73.0317 16.6279H66.023V5.62907H73.0317C74.5946 5.62907 75.2114 6.34473 75.2114 8.18726V14.0862Z" fill="#6485C1"/>
<path id="path26" d="M15.5665 16.1407C15.4759 15.968 9.66839 4.64086 8.95198 3.52287C8.13091 2.2404 7.13484 1.3431 5.22715 1.3431C3.4496 1.3431 1.34375 2.12437 1.34375 6.39293V20.7152H5.62958V8.77023C5.62958 7.91554 5.58104 6.63974 5.57198 6.38472C5.56377 6.17167 5.57198 5.97425 5.67974 5.91667C5.79327 5.84099 5.91749 5.95698 6.00796 6.11327C6.09023 6.27942 11.4775 16.9386 12.629 18.7393C13.4442 20.0324 14.4486 20.9208 16.3561 20.9208C18.1337 20.9208 20.2313 20.1311 20.2313 15.8693V1.54694H15.9455V13.492C15.9455 14.3549 15.994 15.6225 16.0105 15.8775C16.0105 16.0839 16.0105 16.2879 15.9035 16.3472C15.7793 16.4212 15.6569 16.3052 15.5665 16.1407Z" fill="#6485C1"/>
</g>
</g>
</g>
</svg>
