<svg width="82" height="61" viewBox="0 0 82 61" fill="none" xmlns="http://www.w3.org/2000/svg">
<g id="Nvidia_logo 1" clip-path="url(#clip0_3950_978)">
<path id="path17" d="M81.4286 58.4673C81.4286 59.3472 80.7825 59.9377 80.0177 59.9377V59.9323C79.2312 59.9377 78.5971 59.3472 78.5971 58.4676C78.5971 57.5882 79.2312 56.9993 80.0177 56.9993C80.7828 56.9991 81.4286 57.588 81.4286 58.4673ZM82.0009 58.4673C82.0009 57.26 81.063 56.5591 80.0177 56.5591C78.9653 56.5591 78.0273 57.26 78.0273 58.4673C78.0273 59.674 78.9655 60.3777 80.0177 60.3777C81.0632 60.3777 82.0009 59.674 82.0009 58.4673ZM79.6888 58.6288H79.9011L80.3931 59.4928H80.9335L80.3885 58.5924C80.6701 58.5723 80.9018 58.4382 80.9018 58.0591C80.9018 57.588 80.577 57.4366 80.0268 57.4366H79.231V59.4928H79.6885V58.6288M79.6888 58.2807V57.7856H80.007C80.1801 57.7856 80.416 57.7996 80.416 58.0108C80.416 58.2406 80.294 58.2807 80.0898 58.2807H79.6888Z" fill="black"/>
<path id="path19" d="M68.6447 47.9492L71.1174 54.7136H66.0956L68.6447 47.9492ZM65.9966 45.3154L60.2984 59.7527H64.3222L65.2234 57.2017H71.9669L72.8199 59.7527H77.1879L71.4473 45.3135L65.9966 45.3154ZM54.5566 59.7581H58.6389V45.3109L54.5559 45.31L54.5566 59.7581ZM26.2169 45.31L22.811 56.7605L19.5483 45.3109L15.1436 45.31L19.8033 59.7581H25.6844L30.3817 45.31H26.2169ZM42.7179 48.456H44.4724C47.0178 48.456 48.6641 49.5987 48.6641 52.5644C48.6641 55.5307 47.0178 56.6737 44.4724 56.6737H42.7179V48.456ZM38.6699 45.31V59.7581H45.288C48.8141 59.7581 49.9655 59.172 51.2105 57.8571C52.0898 56.9338 52.6586 54.9078 52.6586 52.6929C52.6586 50.6615 52.1773 48.8507 51.3381 47.7224C49.826 45.7045 47.6478 45.31 44.397 45.31H38.6699ZM0 45.2899V59.7581H4.1168V48.7723L7.30665 48.7733C8.36285 48.7733 9.11575 49.0365 9.62437 49.5798C10.2695 50.2669 10.5329 51.3761 10.5329 53.405V59.7581H14.5221V51.7643C14.5221 46.0591 10.8857 45.2899 7.32765 45.2899H0ZM32.0998 45.31L32.1015 59.7581H36.1819V45.31H32.0998Z" fill="black"/>
<path id="path21" d="M10.9722 16.5423C10.9722 16.5423 16.2227 8.79565 26.7061 7.99422V5.18374C15.0944 6.11629 5.03906 15.9509 5.03906 15.9509C5.03906 15.9509 10.7342 32.4146 26.7061 33.922V30.9347C14.9852 29.4601 10.9722 16.5423 10.9722 16.5423ZM26.7061 24.9936V27.7294C17.8477 26.1501 15.3888 16.9417 15.3888 16.9417C15.3888 16.9417 19.6421 12.23 26.7061 11.4659V14.4679C26.7007 14.4679 26.697 14.4663 26.6926 14.4663C22.985 14.0214 20.0887 17.4849 20.0887 17.4849C20.0887 17.4849 21.712 23.3156 26.7061 24.9936ZM26.7061 0V5.18374C27.047 5.15761 27.3878 5.13544 27.7306 5.12378C40.9319 4.67885 49.5334 15.9509 49.5334 15.9509C49.5334 15.9509 39.6542 27.9637 29.3619 27.9637C28.4186 27.9637 27.5355 27.8762 26.7061 27.7292V30.9347C27.4154 31.0247 28.1508 31.0777 28.9181 31.0777C38.4958 31.0777 45.4222 26.1863 52.129 20.3971C53.241 21.2877 57.7933 23.4542 58.7292 24.4026C52.3523 29.7415 37.4905 34.0452 29.0649 34.0452C28.2527 34.0452 27.4728 33.996 26.7061 33.922V38.4263H63.1103V0H26.7061ZM26.7061 11.4659V7.99422C27.0435 7.97065 27.3834 7.95269 27.7306 7.94172C37.2236 7.64355 43.4516 16.0995 43.4516 16.0995C43.4516 16.0995 36.7248 25.442 29.5121 25.442C28.4741 25.442 27.5437 25.2752 26.7061 24.9936V14.4679C30.4018 14.9145 31.1453 16.547 33.3672 20.2508L38.3087 16.0841C38.3087 16.0841 34.7015 11.3532 28.6207 11.3532C27.9597 11.353 27.3272 11.3994 26.7061 11.4659Z" fill="#77B900"/>
</g>
<defs>
<clipPath id="clip0_3950_978">
<rect width="82" height="60.3778" fill="white"/>
</clipPath>
</defs>
</svg>
