<svg width="150" height="40" viewBox="0 0 150 40" fill="none" xmlns="http://www.w3.org/2000/svg">
<g id="OpenAI_Logo-main 1" clip-path="url(#clip0_3953_1365)">
<path id="Vector" d="M46.707 19.23C46.707 25.77 50.9782 30.33 56.8969 30.33C62.8155 30.33 67.0867 25.77 67.0867 19.23C67.0867 12.69 62.8155 8.13 56.8969 8.13C50.9782 8.13 46.707 12.69 46.707 19.23ZM63.1816 19.23C63.1816 23.91 60.5884 26.94 56.8969 26.94C53.2053 26.94 50.6121 23.91 50.6121 19.23C50.6121 14.55 53.2053 11.52 56.8969 11.52C60.5884 11.52 63.1816 14.55 63.1816 19.23Z" fill="black"/>
<path id="Vector_2" d="M78.0842 30.33C82.569 30.33 85.1317 26.61 85.1317 22.1399C85.1317 17.67 82.569 13.95 78.0842 13.95C76.0096 13.95 74.4842 14.76 73.4774 15.93V14.25H69.8164V35.4H73.4774V28.35C74.4842 29.52 76.0096 30.33 78.0842 30.33ZM73.3859 21.69C73.3859 18.72 75.0944 17.1 77.352 17.1C80.0062 17.1 81.4401 19.14 81.4401 22.1399C81.4401 25.1399 80.0062 27.18 77.352 27.18C75.0944 27.18 73.3859 25.53 73.3859 22.62V21.69Z" fill="black"/>
<path id="Vector_3" d="M95.0414 30.33C98.2448 30.33 100.777 28.68 101.906 25.92L98.7634 24.75C98.2753 26.37 96.8414 27.27 95.0414 27.27C92.6922 27.27 91.0448 25.62 90.7702 22.92H101.997V21.72C101.997 17.4 99.5261 13.95 94.8888 13.95C90.2515 13.95 87.2617 17.52 87.2617 22.14C87.2617 27 90.4651 30.33 95.0414 30.33ZM94.8583 16.98C97.177 16.98 98.2753 18.48 98.3058 20.22H90.9532C91.5024 18.09 92.9668 16.98 94.8583 16.98Z" fill="black"/>
<path id="Vector_4" d="M104.742 30H108.403V20.76C108.403 18.51 110.081 17.31 111.729 17.31C113.742 17.31 114.535 18.72 114.535 20.67V30H118.196V19.62C118.196 16.23 116.183 13.95 112.827 13.95C110.752 13.95 109.318 14.88 108.403 15.93V14.25H104.742V30Z" fill="black"/>
<path id="Vector_5" d="M128.919 8.45996L120.621 30H124.496L126.357 25.08H135.814L137.706 30H141.641L133.343 8.45996H128.919ZM131.055 12.72L134.533 21.72H127.638L131.055 12.72Z" fill="black"/>
<path id="Vector_6" d="M147.929 8.52246H144.023V30.0625H147.929V8.52246Z" fill="black"/>
<path id="Vector_7" d="M37.7607 16.3712C38.6835 13.6474 38.3657 10.6637 36.8899 8.18619C34.6704 4.38619 30.2085 2.43119 25.8509 3.35119C23.9124 1.20369 21.1272 -0.0175586 18.2073 -5.86116e-05C13.753 -0.0100586 9.80091 2.80994 8.43058 6.97744C5.56913 7.55369 3.09922 9.31494 1.65388 11.8112C-0.582138 15.6012 -0.0723923 20.3787 2.9149 23.6287C1.99201 26.3524 2.30981 29.3362 3.78566 31.8137C6.00515 35.6137 10.467 37.5687 14.8246 36.6487C16.7619 38.7962 19.5484 40.0174 22.4683 39.9987C26.9251 40.0099 30.8785 37.1874 32.2488 33.0162C35.1102 32.4399 37.5802 30.6787 39.0255 28.1824C41.259 24.3924 40.748 19.6187 37.7619 16.3687L37.7607 16.3712ZM22.4708 37.3849C20.6874 37.3874 18.9598 36.7737 17.5907 35.6499C17.653 35.6174 17.7611 35.5587 17.831 35.5162L25.931 30.9162C26.3454 30.6849 26.5996 30.2512 26.5971 29.7824V18.5537L30.0204 20.4974C30.0573 20.5149 30.0814 20.5499 30.0865 20.5899V29.8887C30.0814 34.0237 26.6759 37.3762 22.4708 37.3849ZM6.09286 30.5062C5.19922 28.9887 4.87761 27.2099 5.18396 25.4837C5.24371 25.5187 5.34922 25.5824 5.42422 25.6249L13.5242 30.2249C13.9348 30.4612 14.4433 30.4612 14.8552 30.2249L24.7437 24.6099V28.4974C24.7463 28.5374 24.7272 28.5762 24.6954 28.6012L16.5077 33.2499C12.8607 35.3149 8.20303 34.0874 6.09413 30.5062H6.09286ZM3.96108 13.1199C4.85091 11.5999 6.25557 10.4374 7.92846 9.83369C7.92846 9.90244 7.92464 10.0237 7.92464 10.1087V19.3099C7.9221 19.7774 8.17634 20.2112 8.58947 20.4424L18.478 26.0562L15.0547 27.9999C15.0204 28.0224 14.9772 28.0262 14.9391 28.0099L6.75007 23.3574C3.11066 21.2849 1.86235 16.7062 3.95981 13.1212L3.96108 13.1199ZM32.0874 19.5562L22.1988 13.9412L25.6221 11.9987C25.6564 11.9762 25.6996 11.9724 25.7378 11.9887L33.9268 16.6374C37.5725 18.7087 38.8221 23.2949 36.7157 26.8799C35.8246 28.3974 34.4213 29.5599 32.7496 30.1649V20.6887C32.7535 20.2212 32.5005 19.7887 32.0886 19.5562H32.0874ZM35.4941 14.5137C35.4344 14.4774 35.3289 14.4149 35.2539 14.3724L27.1539 9.77244C26.7433 9.53619 26.2348 9.53619 25.823 9.77244L15.9344 15.3874V11.4999C15.9318 11.4599 15.9509 11.4212 15.9827 11.3962L24.1704 6.75119C27.8174 4.68244 32.4802 5.91369 34.5827 9.50119C35.4713 11.0162 35.7929 12.7899 35.4916 14.5137H35.4941ZM14.0734 21.4424L10.6488 19.4987C10.6119 19.4812 10.5878 19.4462 10.5827 19.4062V10.1074C10.5852 5.96744 14.0009 2.61244 18.2111 2.61494C19.992 2.61494 21.7157 3.22994 23.0848 4.34994C23.0225 4.38244 22.9157 4.44119 22.8446 4.48369L14.7446 9.08369C14.3302 9.31494 14.0759 9.74744 14.0785 10.2162L14.0734 21.4399V21.4424ZM15.9331 17.4999L20.3378 14.9987L24.7424 17.4987V22.4999L20.3378 24.9999L15.9331 22.4999V17.4999Z" fill="black"/>
</g>
<defs>
<clipPath id="clip0_3953_1365">
<rect width="150" height="40" fill="white"/>
</clipPath>
</defs>
</svg>
