<svg width="155" height="142" viewBox="0 0 155 142" fill="none" xmlns="http://www.w3.org/2000/svg">
<path d="M37.0234 79.5807V61.9073C37.0234 60.8635 36.4722 59.9136 35.5692 59.3858L20.2648 50.5433C19.3618 50.0272 18.2594 50.0272 17.3563 50.5433L2.05188 59.3858C1.14886 59.9019 0.597656 60.8635 0.597656 61.9073V79.5807C0.597656 80.6244 1.14886 81.5744 2.05188 82.1021L17.3563 90.9447C18.2594 91.4607 19.3618 91.4607 20.2648 90.9447L35.5692 82.1021C36.4722 81.5861 37.0234 80.6244 37.0234 79.5807Z" fill="#F3F3F3"/>
<path d="M18.7993 91.9175C18.1894 91.9175 17.5913 91.7651 17.0519 91.4484L1.74739 82.6059C0.668459 81.9843 0 80.8233 0 79.5802V61.9067C0 60.6636 0.668459 59.5026 1.74739 58.881L17.0519 50.0384C18.1308 49.4169 19.4677 49.4169 20.5467 50.0384L35.8511 58.881C36.9301 59.5026 37.5985 60.6636 37.5985 61.9067V79.5802C37.5985 80.8233 36.9301 81.9843 35.8511 82.6059L20.5467 91.4484C20.0072 91.7651 19.4091 91.9175 18.7993 91.9175ZM18.7993 50.7538C18.4005 50.7538 18.0018 50.8594 17.6382 51.0587L2.33377 59.9013C1.61839 60.3118 1.17276 61.0858 1.17276 61.9067V79.5802C1.17276 80.4011 1.61839 81.1751 2.33377 81.5856L17.6382 90.4281C18.3536 90.8386 19.2449 90.8386 19.9603 90.4281L35.2648 81.5856C35.9801 81.1751 36.4258 80.4011 36.4258 79.5802V61.9067C36.4258 61.0858 35.9801 60.3118 35.2648 59.9013L19.9603 51.0587C19.5967 50.8476 19.198 50.7538 18.7993 50.7538Z" fill="#1B1464"/>
<path d="M63.2471 30.0084V12.335C63.2471 11.2912 62.6959 10.3413 61.7929 9.81357L46.4884 0.970994C45.5854 0.454981 44.483 0.454981 43.58 0.970994L28.2755 9.81357C27.3725 10.3296 26.8213 11.2912 26.8213 12.335V30.0084C26.8213 31.0522 27.3725 32.0021 28.2755 32.5299L43.58 41.3724C44.483 41.8884 45.5854 41.8884 46.4884 41.3724L61.7929 32.5299C62.6959 32.0138 63.2471 31.0522 63.2471 30.0084Z" fill="#F3F3F3"/>
<path d="M45.0336 42.3453C44.4238 42.3453 43.8257 42.1928 43.2862 41.8762L27.9818 33.0336C26.9029 32.412 26.2344 31.251 26.2344 30.0079V12.3345C26.2344 11.0913 26.9029 9.93031 27.9818 9.30875L43.2862 0.46617C44.3652 -0.15539 45.7021 -0.15539 46.7811 0.46617L62.0855 9.30875C63.1644 9.93031 63.8329 11.0913 63.8329 12.3345V30.0079C63.8329 31.251 63.1644 32.412 62.0855 33.0336L46.7811 41.8762C46.2416 42.1928 45.6435 42.3453 45.0336 42.3453ZM45.0336 1.18155C44.6349 1.18155 44.2362 1.2871 43.8726 1.48647L28.5682 10.329C27.8528 10.7395 27.4071 11.5135 27.4071 12.3345V30.0079C27.4071 30.8288 27.8528 31.6028 28.5682 32.0133L43.8726 40.8559C44.588 41.2663 45.4793 41.2663 46.1947 40.8559L61.4991 32.0133C62.2145 31.6028 62.6602 30.8288 62.6602 30.0079V12.3345C62.6602 11.5135 62.2145 10.7395 61.4991 10.329L46.1947 1.48647C45.8311 1.27537 45.4324 1.18155 45.0336 1.18155Z" fill="#1B1464"/>
<path d="M63.2471 129.13V111.456C63.2471 110.412 62.6959 109.462 61.7929 108.935L46.4884 100.092C45.5854 99.5761 44.483 99.5761 43.58 100.092L28.2755 108.935C27.3725 109.451 26.8213 110.412 26.8213 111.456V129.13C26.8213 130.173 27.3725 131.123 28.2755 131.651L43.58 140.494C44.483 141.01 45.5854 141.01 46.4884 140.494L61.7929 131.651C62.6959 131.135 63.2471 130.173 63.2471 129.13Z" fill="#F3F3F3"/>
<path d="M45.0336 141.466C44.4238 141.466 43.8257 141.314 43.2862 140.997L27.9818 132.155C26.9029 131.533 26.2344 130.372 26.2344 129.129V111.456C26.2344 110.212 26.9029 109.051 27.9818 108.43L43.2862 99.5873C44.3652 98.9657 45.7021 98.9657 46.7811 99.5873L62.0855 108.43C63.1644 109.051 63.8329 110.212 63.8329 111.456V129.129C63.8329 130.372 63.1644 131.533 62.0855 132.155L46.7811 140.997C46.2416 141.314 45.6435 141.466 45.0336 141.466ZM45.0336 100.303C44.6349 100.303 44.2362 100.408 43.8726 100.608L28.5682 109.45C27.8528 109.861 27.4071 110.635 27.4071 111.456V129.129C27.4071 129.95 27.8528 130.724 28.5682 131.134L43.8726 139.977C44.588 140.387 45.4793 140.387 46.1947 139.977L61.4991 131.134C62.2145 130.724 62.6602 129.95 62.6602 129.129V111.456C62.6602 110.635 62.2145 109.861 61.4991 109.45L46.1947 100.608C45.8311 100.396 45.4324 100.303 45.0336 100.303Z" fill="#1B1464"/>
<path d="M117.58 61.4034V79.0768C117.58 80.1205 118.131 81.0705 119.034 81.5982L134.339 90.4408C135.242 90.9568 136.344 90.9568 137.247 90.4408L152.552 81.5982C153.455 81.0822 154.006 80.1205 154.006 79.0768V61.4034C154.006 60.3596 153.455 59.4097 152.552 58.8819L137.247 50.0394C136.344 49.5233 135.242 49.5233 134.339 50.0394L119.034 58.8819C118.131 59.3979 117.58 60.3596 117.58 61.4034Z" fill="#F3F3F3"/>
<path d="M135.793 91.4136C135.184 91.4136 134.585 91.2612 134.046 90.9445L118.742 82.102C117.663 81.4804 116.994 80.3194 116.994 79.0762V61.4028C116.994 60.1597 117.663 58.9987 118.742 58.3771L134.046 49.5345C135.125 48.913 136.462 48.913 137.541 49.5345L152.845 58.3771C153.924 58.9987 154.593 60.1597 154.593 61.4028V79.0762C154.593 80.3194 153.924 81.4804 152.845 82.102L137.541 90.9445C137.001 91.2612 136.403 91.4136 135.793 91.4136ZM135.793 50.2499C135.395 50.2499 134.996 50.3555 134.632 50.5548L119.328 59.3974C118.613 59.8079 118.167 60.5819 118.167 61.4028V79.0762C118.167 79.8972 118.613 80.6712 119.328 81.0817L134.632 89.9242C135.348 90.3347 136.239 90.3347 136.954 89.9242L152.259 81.0817C152.974 80.6712 153.42 79.8972 153.42 79.0762V61.4028C153.42 60.5819 152.974 59.8079 152.259 59.3974L136.954 50.5548C136.591 50.3437 136.192 50.2499 135.793 50.2499Z" fill="#1B1464"/>
<path d="M90.0449 111.948V129.622C90.0449 130.665 90.5961 131.615 91.4991 132.143L106.804 140.986C107.707 141.502 108.809 141.502 109.712 140.986L125.016 132.143C125.92 131.627 126.471 130.665 126.471 129.622V111.948C126.471 110.905 125.92 109.955 125.016 109.427L109.712 100.584C108.809 100.068 107.707 100.068 106.804 100.584L91.4991 109.427C90.5961 109.943 90.0449 110.905 90.0449 111.948Z" fill="#F3F3F3"/>
<path d="M108.257 141.947C107.647 141.947 107.049 141.794 106.51 141.478L91.2054 132.635C90.1265 132.014 89.458 130.853 89.458 129.609V111.936C89.458 110.693 90.1265 109.532 91.2054 108.91L106.51 100.068C107.589 99.4462 108.926 99.4462 110.005 100.068L125.309 108.91C126.388 109.532 127.057 110.693 127.057 111.936V129.609C127.057 130.853 126.388 132.014 125.309 132.635L110.005 141.478C109.465 141.794 108.867 141.947 108.257 141.947ZM108.257 100.783C107.859 100.783 107.46 100.889 107.096 101.088L91.7918 109.931C91.0764 110.341 90.6308 111.115 90.6308 111.936V129.609C90.6308 130.43 91.0764 131.204 91.7918 131.615L107.096 140.457C107.812 140.868 108.703 140.868 109.418 140.457L124.723 131.615C125.438 131.204 125.884 130.43 125.884 129.609V111.936C125.884 111.115 125.438 110.341 124.723 109.931L109.418 101.088C109.055 100.877 108.656 100.783 108.257 100.783Z" fill="#1B1464"/>
<path d="M91.3457 12.335V30.0084C91.3457 31.0522 91.8969 32.0021 92.7999 32.5299L108.104 41.3724C109.007 41.8884 110.11 41.8884 111.013 41.3724L126.317 32.5299C127.22 32.0138 127.771 31.0522 127.771 30.0084V12.335C127.771 11.2912 127.22 10.3413 126.317 9.81357L111.013 0.970994C110.11 0.454981 109.007 0.454981 108.104 0.970994L92.7999 9.81357C91.8969 10.3296 91.3457 11.2912 91.3457 12.335Z" fill="#F3F3F3"/>
<path d="M109.558 42.3453C108.948 42.3453 108.35 42.1928 107.811 41.8762L92.5062 33.0336C91.4272 32.412 90.7588 31.251 90.7588 30.0079V12.3345C90.7588 11.0913 91.4272 9.93031 92.5062 9.30875L107.811 0.46617C108.89 -0.15539 110.227 -0.15539 111.305 0.46617L126.61 9.30875C127.689 9.93031 128.357 11.0913 128.357 12.3345V30.0079C128.357 31.251 127.689 32.412 126.61 33.0336L111.305 41.8762C110.766 42.1928 110.168 42.3453 109.558 42.3453ZM109.558 1.18155C109.159 1.18155 108.761 1.2871 108.397 1.48647L93.0926 10.329C92.3772 10.7395 91.9315 11.5135 91.9315 12.3345V30.0079C91.9315 30.8288 92.3772 31.6028 93.0926 32.0133L108.397 40.8559C109.112 41.2663 110.004 41.2663 110.719 40.8559L126.024 32.0133C126.739 31.6028 127.185 30.8288 127.185 30.0079V12.3345C127.185 11.5135 126.739 10.7395 126.024 10.329L110.719 1.48647C110.356 1.27537 109.957 1.18155 109.558 1.18155Z" fill="#1B1464"/>
<path d="M52.1288 14.082H37.9385V28.2724H52.1288V14.082Z" fill="#1B1464"/>
<path d="M52.7147 28.8592H37.3516V13.4961H52.7147V28.8592ZM38.5243 27.6864H51.5419V14.6688H38.5243V27.6864Z" fill="#1B1464"/>
<path d="M24.0176 73.7509V67.7347L18.7988 64.7207L13.5918 67.7347V73.7509L18.7988 76.7532L24.0176 73.7509Z" fill="#61BD73"/>
<path d="M18.7993 77.4339L13.0059 74.0915V67.3951L18.7993 64.0527L24.5927 67.3951V74.0915L18.7993 77.4339ZM14.1786 73.4113L18.7993 76.0852L23.4199 73.4113V68.0753L18.7993 65.4014L14.1786 68.0753V73.4113Z" fill="#1B1464"/>
<path d="M141.47 64.5684H130.106V75.9324H141.47V64.5684Z" fill="#1B1464"/>
<path d="M142.056 76.5192H129.52V63.9824H142.056V76.5192ZM130.692 75.3464H140.884V65.1552H130.692V75.3464Z" fill="#1B1464"/>
<path d="M109.558 30.0191C114.442 30.0191 118.401 26.0602 118.401 21.1766C118.401 16.2929 114.442 12.334 109.558 12.334C104.675 12.334 100.716 16.2929 100.716 21.1766C100.716 26.0602 104.675 30.0191 109.558 30.0191Z" fill="#61BD73"/>
<path d="M109.559 30.5942C104.364 30.5942 100.13 26.3606 100.13 21.1653C100.13 15.97 104.364 11.7363 109.559 11.7363C114.754 11.7363 118.988 15.97 118.988 21.1653C118.988 26.3606 114.754 30.5942 109.559 30.5942ZM109.559 12.9208C105.009 12.9208 101.303 16.6267 101.303 21.177C101.303 25.7273 105.009 29.4332 109.559 29.4332C114.109 29.4332 117.815 25.7273 117.815 21.177C117.815 16.6267 114.109 12.9208 109.559 12.9208Z" fill="#1B1464"/>
<path d="M49.7607 108.078H43.3223V114.517H49.7607V108.078Z" fill="#61BD73"/>
<path d="M50.3465 115.103H42.7354V107.492H50.3465V115.103ZM43.9081 113.931H49.1738V108.665H43.9081V113.931Z" fill="#1B1464"/>
<path d="M56.0703 114.246H49.6318V120.685H56.0703V114.246Z" fill="#F3F3F3"/>
<path d="M56.6561 121.271H49.0449V113.66H56.6561V121.271ZM50.2177 120.099H55.4834V114.833H50.2177V120.099Z" fill="#1B1464"/>
<path d="M43.873 125.635H37.4346V132.073H43.873V125.635Z" fill="#1B1464"/>
<path d="M44.4588 132.66H36.8477V125.049H44.4588V132.66ZM38.0204 131.487H43.2861V126.222H38.0204V131.487Z" fill="#1B1464"/>
<path d="M115.517 124.59V116.005L108.082 111.713L100.658 116.005V124.59L108.082 128.87L115.517 124.59Z" fill="#1B1464"/>
<path d="M108.081 129.551L100.06 124.919V115.666L108.081 111.033L116.103 115.666V124.919L108.081 129.551ZM101.232 124.25L108.081 128.202L114.93 124.25V116.346L108.081 112.394L101.232 116.346V124.25Z" fill="#1B1464"/>
<path d="M118.741 121.4H112.303V127.839H118.741V121.4Z" fill="#61BD73"/>
<path d="M119.328 128.426H111.717V120.814H119.328V128.426ZM112.89 127.253H118.155V121.987H112.89V127.253Z" fill="#1B1464"/>
<path d="M55.3093 36.2502L54.3281 36.8926L62.6077 49.5404L63.589 48.898L55.3093 36.2502Z" fill="#1B1464"/>
<path d="M90.616 91.4456L89.6348 92.0879L98.409 105.491L99.3902 104.849L90.616 91.4456Z" fill="#1B1464"/>
<path d="M60.7167 92.2036L53.1328 103.793L54.1141 104.435L61.698 92.8457L60.7167 92.2036Z" fill="#1B1464"/>
<path d="M99.2994 36.23L92.377 46.8086L93.3583 47.4508L100.281 36.8721L99.2994 36.23Z" fill="#1B1464"/>
<path d="M117.581 69.459H37.0244V70.6317H117.581V69.459Z" fill="#1B1464"/>
<path d="M105.326 83.6262V56.8639C105.326 55.2924 104.493 53.8499 103.133 53.0642L79.9472 39.6831C78.5868 38.8973 76.9097 38.8973 75.5493 39.6831L52.3639 53.0642C51.0035 53.8499 50.1709 55.3042 50.1709 56.8639V83.6262C50.1709 85.1977 51.0035 86.6402 52.3639 87.4259L75.5493 100.807C76.9097 101.593 78.5868 101.593 79.9472 100.807L103.133 87.4259C104.493 86.6402 105.326 85.186 105.326 83.6262Z" fill="#61BD73"/>
<path d="M77.7536 101.991C76.8974 101.991 76.0296 101.768 75.2673 101.323L52.0819 87.9414C50.5456 87.0501 49.5957 85.4083 49.5957 83.6257V56.8634C49.5957 55.0925 50.5456 53.439 52.0819 52.5477L75.2673 39.1665C76.8036 38.2752 78.7152 38.2752 80.2515 39.1665L103.437 52.5477C104.973 53.439 105.923 55.0808 105.923 56.8634V83.6257C105.923 85.3965 104.973 87.0501 103.437 87.9414L80.2515 101.323C79.4892 101.768 78.6214 101.991 77.7653 101.991H77.7536ZM77.7536 39.6708C77.0968 39.6708 76.4401 39.835 75.8537 40.1751L52.6683 53.5562C51.4956 54.2364 50.7685 55.4913 50.7685 56.8517V83.614C50.7685 84.9744 51.4956 86.2292 52.6683 86.9094L75.8537 100.291C77.0265 100.971 78.4807 100.971 79.6652 100.291L102.851 86.9094C104.023 86.2292 104.75 84.9626 104.75 83.614V56.8517C104.75 55.4913 104.023 54.2364 102.851 53.5562L79.6652 40.1751C79.0788 39.835 78.422 39.6708 77.7653 39.6708H77.7536Z" fill="#1B1464"/>
<path d="M60.1378 76V62.9091H65.3026C66.2912 62.9091 67.1349 63.0859 67.8338 63.4396C68.5369 63.7891 69.0717 64.2855 69.4382 64.929C69.8089 65.5682 69.9943 66.3203 69.9943 67.1854C69.9943 68.0547 69.8068 68.8026 69.4318 69.429C69.0568 70.0511 68.5135 70.5284 67.8018 70.8608C67.0945 71.1932 66.2379 71.3594 65.2322 71.3594H61.7741V69.1349H64.7848C65.3132 69.1349 65.7521 69.0625 66.1016 68.9176C66.451 68.7727 66.7109 68.5554 66.8814 68.2656C67.0561 67.9759 67.1435 67.6158 67.1435 67.1854C67.1435 66.7507 67.0561 66.3842 66.8814 66.0859C66.7109 65.7876 66.4489 65.5618 66.0952 65.4084C65.7457 65.2507 65.3047 65.1719 64.772 65.1719H62.9055V76H60.1378ZM67.2074 70.0426L70.4609 76H67.4055L64.2223 70.0426H67.2074ZM74.2067 76H71.2408L75.7599 62.9091H79.3267L83.8395 76H80.8736L77.5945 65.9006H77.4922L74.2067 76ZM74.0213 70.8544H81.027V73.0149H74.0213V70.8544ZM93.4803 67.1406C93.3908 66.8295 93.2651 66.5547 93.1032 66.3161C92.9412 66.0732 92.7431 65.8686 92.5087 65.7024C92.2786 65.532 92.0144 65.402 91.7161 65.3125C91.4221 65.223 91.0961 65.1783 90.7381 65.1783C90.0691 65.1783 89.481 65.3445 88.9739 65.6768C88.4711 66.0092 88.079 66.4929 87.7978 67.1278C87.5165 67.7585 87.3759 68.5298 87.3759 69.4418C87.3759 70.3537 87.5144 71.1293 87.7914 71.7685C88.0684 72.4077 88.4604 72.8956 88.9675 73.2322C89.4746 73.5646 90.0733 73.7308 90.7637 73.7308C91.3901 73.7308 91.9249 73.62 92.3681 73.3984C92.8155 73.1726 93.1564 72.8551 93.3908 72.446C93.6294 72.0369 93.7488 71.5533 93.7488 70.995L94.3113 71.0781H90.9363V68.9943H96.4142V70.6435C96.4142 71.794 96.1713 72.7827 95.6855 73.6094C95.1998 74.4318 94.5307 75.0668 93.6784 75.5142C92.8262 75.9574 91.8503 76.179 90.7509 76.179C89.5236 76.179 88.4455 75.9084 87.5165 75.3672C86.5875 74.8217 85.8631 74.0483 85.3432 73.0469C84.8276 72.0412 84.5698 70.848 84.5698 69.4673C84.5698 68.4062 84.7232 67.4602 85.03 66.6293C85.3411 65.794 85.7757 65.0866 86.334 64.5071C86.8922 63.9276 87.5421 63.4865 88.2836 63.1839C89.025 62.8814 89.8283 62.7301 90.6934 62.7301C91.4348 62.7301 92.1252 62.8388 92.7644 63.0561C93.4036 63.2692 93.9703 63.5717 94.4647 63.9638C94.9632 64.3558 95.3702 64.8224 95.6855 65.3636C96.0009 65.9006 96.2033 66.4929 96.2928 67.1406H93.4803Z" fill="#130C49"/>
</svg>
