<svg width="276" height="283" viewBox="0 0 276 283" fill="none" xmlns="http://www.w3.org/2000/svg">
<g clip-path="url(#clip0_3956_5593)">
<path d="M135.224 282.046C135.224 281.516 135.674 281.118 136.176 281.118H136.202C136.705 281.118 137.128 281.542 137.128 282.072C137.128 282.576 136.678 283 136.176 283C135.647 283 135.224 282.576 135.224 282.046ZM140.247 282.046C140.247 281.516 140.644 281.092 141.172 281.065C141.675 281.065 142.124 281.463 142.124 281.993C142.151 282.496 141.728 282.947 141.225 282.947C140.697 282.947 140.3 282.549 140.274 282.046H140.247ZM131.126 282.867C130.598 282.867 130.201 282.39 130.228 281.887C130.228 281.357 130.677 280.959 131.206 280.959C131.708 281.012 132.131 281.436 132.105 281.966C132.105 282.47 131.655 282.867 131.153 282.867H131.126ZM145.27 281.86C145.27 281.33 145.64 280.88 146.143 280.853C146.671 280.8 147.094 281.198 147.147 281.728C147.147 282.231 146.777 282.682 146.275 282.735H146.195C145.693 282.735 145.297 282.337 145.27 281.86ZM126.077 282.549C125.548 282.496 125.178 282.046 125.205 281.516C125.257 281.012 125.707 280.615 126.236 280.668C126.738 280.694 127.134 281.145 127.082 281.675C127.082 282.152 126.632 282.549 126.156 282.549H126.077ZM150.267 281.463C150.214 280.959 150.584 280.482 151.113 280.429C151.615 280.376 152.091 280.774 152.144 281.277C152.197 281.807 151.826 282.258 151.298 282.311H151.192C150.716 282.311 150.32 281.966 150.267 281.463ZM121.054 282.046C120.525 281.966 120.182 281.516 120.234 280.986C120.287 280.456 120.763 280.085 121.266 280.164C121.794 280.217 122.164 280.694 122.111 281.198C122.032 281.701 121.636 282.046 121.16 282.046H121.054ZM155.263 280.906C155.184 280.403 155.528 279.926 156.056 279.846C156.585 279.793 157.034 280.138 157.114 280.668C157.193 281.171 156.823 281.648 156.321 281.728H156.188C155.713 281.728 155.316 281.383 155.263 280.906ZM116.057 281.33C115.529 281.251 115.185 280.774 115.264 280.27C115.344 279.74 115.82 279.396 116.348 279.475C116.851 279.555 117.194 280.032 117.115 280.562C117.036 281.012 116.639 281.357 116.19 281.357C116.19 281.357 116.11 281.357 116.057 281.33ZM160.207 280.164C160.128 279.661 160.471 279.184 160.974 279.078C161.476 278.998 161.978 279.343 162.084 279.846C162.163 280.35 161.82 280.853 161.291 280.933C161.291 280.933 161.211 280.933 161.132 280.933C160.683 280.933 160.286 280.615 160.207 280.138V280.164ZM111.087 280.456C110.559 280.376 110.241 279.873 110.321 279.369C110.426 278.839 110.929 278.521 111.431 278.6C111.933 278.707 112.277 279.21 112.171 279.714C112.092 280.164 111.695 280.482 111.272 280.482C111.272 280.482 111.14 280.482 111.087 280.456ZM165.151 279.237C165.045 278.733 165.362 278.256 165.864 278.123C166.367 278.017 166.869 278.335 166.975 278.866C167.107 279.369 166.763 279.873 166.261 279.979C166.261 279.979 166.129 279.979 166.076 279.979C165.626 279.979 165.256 279.661 165.151 279.21V279.237ZM106.144 279.422C105.641 279.29 105.324 278.786 105.43 278.282C105.562 277.779 106.064 277.461 106.567 277.567C107.069 277.699 107.386 278.203 107.254 278.707C107.175 279.131 106.778 279.422 106.355 279.422H106.144ZM170.041 278.15C169.909 277.646 170.226 277.116 170.729 277.01C171.231 276.878 171.733 277.169 171.866 277.673C171.998 278.176 171.68 278.706 171.178 278.812C171.178 278.812 171.02 278.866 170.94 278.866C170.517 278.866 170.147 278.574 170.041 278.15ZM101.226 278.176C100.724 278.017 100.433 277.514 100.566 277.01C100.724 276.507 101.226 276.215 101.729 276.348C102.231 276.48 102.522 277.01 102.39 277.514C102.284 277.911 101.914 278.203 101.491 278.203C101.491 278.203 101.332 278.203 101.226 278.203V278.176ZM174.879 276.851C174.747 276.348 175.038 275.844 175.514 275.685C176.043 275.553 176.545 275.844 176.703 276.321C176.836 276.825 176.545 277.355 176.069 277.514C176.069 277.514 175.884 277.514 175.805 277.514C175.382 277.514 175.011 277.249 174.879 276.825V276.851ZM96.3885 276.745C95.8862 276.586 95.6218 276.056 95.7804 275.579C95.9126 275.076 96.4678 274.784 96.9437 274.943C97.446 275.102 97.7103 275.632 97.5782 276.136C97.446 276.533 97.0759 276.798 96.6793 276.798C96.6793 276.798 96.4942 276.798 96.3885 276.745ZM179.691 275.394C179.532 274.89 179.797 274.36 180.272 274.201C180.775 274.042 181.303 274.307 181.488 274.811C181.647 275.288 181.356 275.818 180.88 276.003C180.88 276.003 180.669 276.003 180.59 276.003C180.193 276.003 179.823 275.765 179.691 275.367V275.394ZM91.577 275.155C91.1011 274.97 90.8368 274.44 91.0218 273.936C91.1805 273.432 91.7092 273.194 92.2115 273.353C92.7138 273.538 92.9517 274.068 92.7931 274.572C92.6345 274.943 92.2908 275.208 91.8942 275.208C91.8942 275.208 91.6827 275.208 91.577 275.155ZM184.423 273.75C184.238 273.273 184.502 272.717 184.978 272.531C185.48 272.346 186.009 272.611 186.194 273.088C186.379 273.591 186.115 274.121 185.639 274.307C185.639 274.307 185.428 274.36 185.322 274.36C184.925 274.36 184.582 274.121 184.423 273.75ZM86.8448 273.353C86.3425 273.167 86.131 272.611 86.3161 272.134C86.5011 271.657 87.0563 271.418 87.5322 271.604C88.008 271.789 88.246 272.346 88.0609 272.823C87.9287 273.194 87.5586 273.432 87.1885 273.432C87.1885 273.432 86.9506 273.432 86.8448 273.353ZM189.102 271.922C188.917 271.445 189.102 270.888 189.605 270.703C190.107 270.491 190.662 270.703 190.847 271.206C191.059 271.683 190.847 272.24 190.345 272.452C190.345 272.452 190.107 272.505 189.975 272.505C189.605 272.505 189.261 272.293 189.102 271.922ZM82.1655 271.392C81.6897 271.18 81.4782 270.623 81.6896 270.146C81.9011 269.669 82.4563 269.457 82.9322 269.669C83.408 269.881 83.6195 270.438 83.408 270.915C83.2494 271.259 82.9057 271.471 82.5356 271.471C82.5356 271.471 82.2977 271.471 82.1655 271.392ZM193.702 269.934C193.491 269.483 193.702 268.9 194.178 268.688C194.654 268.476 195.209 268.688 195.421 269.165C195.632 269.616 195.447 270.199 194.971 270.411C194.971 270.411 194.707 270.491 194.575 270.491C194.231 270.491 193.887 270.279 193.702 269.934ZM77.5655 269.271C77.1161 269.059 76.9046 268.476 77.1425 267.999C77.354 267.549 77.9356 267.337 78.385 267.575C78.8609 267.814 79.046 268.37 78.8345 268.821C78.6759 269.165 78.3322 269.377 77.9885 269.377C77.9885 269.377 77.6977 269.324 77.5655 269.271ZM198.249 267.787C198.011 267.31 198.197 266.754 198.672 266.515C199.122 266.277 199.703 266.462 199.941 266.939C200.179 267.39 199.968 267.973 199.518 268.185C199.518 268.185 199.228 268.291 199.095 268.291C198.752 268.291 198.408 268.105 198.249 267.787ZM73.0713 266.966C72.5954 266.727 72.4368 266.144 72.6747 265.693C72.9126 265.243 73.4942 265.057 73.9437 265.296C74.3931 265.561 74.5782 266.118 74.3402 266.568C74.1552 266.913 73.8379 267.098 73.4942 267.098C73.3356 267.098 73.2034 267.045 73.0713 266.966ZM202.691 265.455C202.453 265.004 202.611 264.421 203.061 264.183C203.51 263.918 204.092 264.103 204.356 264.554C204.594 265.004 204.436 265.561 203.986 265.826C203.828 265.906 203.669 265.959 203.537 265.959C203.193 265.959 202.876 265.773 202.691 265.455ZM68.6299 264.527C68.1805 264.262 68.0218 263.679 68.2862 263.229C68.5506 262.778 69.1322 262.619 69.5816 262.884C70.031 263.149 70.1897 263.706 69.9253 264.183C69.7402 264.474 69.423 264.633 69.1057 264.633C68.9471 264.633 68.7885 264.633 68.6299 264.527ZM207.053 262.964C206.788 262.54 206.947 261.957 207.37 261.692C207.82 261.4 208.401 261.559 208.692 262.01C208.956 262.46 208.798 263.017 208.348 263.308C208.216 263.388 208.031 263.441 207.872 263.441C207.555 263.441 207.238 263.255 207.053 262.964ZM64.3207 261.877C63.8713 261.612 63.7391 261.029 64.0034 260.578C64.2942 260.154 64.8759 260.022 65.2989 260.287C65.7483 260.578 65.8805 261.135 65.6161 261.585C65.431 261.877 65.1138 262.036 64.7965 262.036C64.6379 262.036 64.4529 261.983 64.3207 261.877ZM211.336 260.34C211.045 259.889 211.177 259.306 211.6 259.015C212.023 258.75 212.631 258.856 212.895 259.28C213.186 259.73 213.054 260.313 212.631 260.605C212.472 260.711 212.287 260.764 212.129 260.764C211.811 260.764 211.521 260.605 211.336 260.34ZM60.0908 259.121H60.0644C59.6414 258.803 59.5356 258.22 59.8264 257.796C60.1172 257.372 60.7253 257.266 61.1483 257.557C61.5713 257.849 61.677 258.432 61.3862 258.856C61.2011 259.121 60.9103 259.28 60.5931 259.28C60.4345 259.28 60.2494 259.227 60.0908 259.121ZM215.486 257.531C215.195 257.106 215.301 256.523 215.724 256.205C216.147 255.914 216.729 256.02 217.046 256.444C217.337 256.868 217.231 257.451 216.808 257.743C216.649 257.875 216.464 257.928 216.279 257.928C215.962 257.928 215.671 257.796 215.486 257.531ZM55.9667 256.179C55.5437 255.861 55.4644 255.278 55.7552 254.854C56.0724 254.43 56.654 254.35 57.077 254.668C57.5 254.96 57.5793 255.569 57.2885 255.967C57.1034 256.232 56.8126 256.364 56.5218 256.364C56.3103 256.364 56.1253 256.311 55.9667 256.179ZM51.9483 253.105C51.5517 252.76 51.4724 252.177 51.7896 251.779C52.1069 251.355 52.7149 251.302 53.1115 251.62C53.5345 251.938 53.5874 252.548 53.2701 252.946C53.0851 253.184 52.8207 253.29 52.5299 253.29C52.3184 253.29 52.1069 253.237 51.9483 253.105ZM48.0356 249.871C47.6391 249.527 47.6126 248.944 47.9563 248.546C48.2736 248.148 48.8816 248.095 49.2782 248.44C49.6747 248.785 49.7011 249.368 49.3839 249.765C49.1988 249.977 48.9345 250.083 48.6437 250.083C48.4322 250.083 48.2207 250.03 48.0356 249.871ZM44.2816 246.505C43.8851 246.161 43.8586 245.551 44.2287 245.18C44.5724 244.783 45.1805 244.756 45.5506 245.127C45.9207 245.472 45.9471 246.081 45.6034 246.452C45.4184 246.664 45.154 246.744 44.9161 246.744C44.6782 246.744 44.4402 246.664 44.2816 246.505ZM40.6333 243.007C40.2632 242.636 40.2632 242.026 40.6333 241.682C41.0034 241.284 41.6115 241.284 41.9816 241.682C42.3517 242.053 42.3517 242.662 41.9816 243.033C41.7965 243.219 41.5586 243.298 41.3207 243.298C41.0828 243.298 40.8448 243.219 40.6598 243.033L40.6333 243.007ZM37.0908 239.376C36.7471 239.005 36.7736 238.395 37.1437 238.051C37.5138 237.68 38.1218 237.706 38.492 238.077C38.8356 238.475 38.8092 239.058 38.4391 239.429C38.254 239.588 38.0161 239.667 37.8046 239.667C37.5402 239.667 37.2759 239.588 37.0908 239.376ZM33.7333 235.612C33.3897 235.215 33.4161 234.632 33.8126 234.287C34.2092 233.943 34.7908 233.996 35.1345 234.393C35.4782 234.764 35.4517 235.374 35.0552 235.719C34.8701 235.851 34.6586 235.931 34.4207 235.931C34.1563 235.931 33.892 235.825 33.7333 235.612ZM30.4816 231.743C30.1644 231.319 30.2172 230.736 30.6138 230.418C31.0103 230.1 31.6184 230.153 31.9356 230.55C32.2529 230.948 32.2 231.558 31.8034 231.876C31.6184 232.008 31.4069 232.088 31.1954 232.088C30.931 232.088 30.6667 231.982 30.4816 231.743ZM27.3621 227.741C27.0713 227.344 27.1506 226.734 27.5736 226.416C27.9701 226.124 28.5782 226.204 28.8954 226.601C29.1862 227.025 29.1069 227.635 28.6839 227.927C28.5253 228.059 28.3138 228.112 28.1287 228.112C27.8379 228.112 27.5736 227.98 27.3621 227.741ZM24.4276 223.633C24.1368 223.209 24.2425 222.626 24.6655 222.334C25.0885 222.043 25.6701 222.149 25.9609 222.573C26.2517 222.997 26.146 223.58 25.6966 223.872C25.5379 224.004 25.3529 224.057 25.1678 224.057C24.877 224.057 24.5862 223.898 24.4011 223.633H24.4276ZM21.6253 219.446C21.3345 218.995 21.4667 218.412 21.9161 218.147C22.3391 217.855 22.9207 217.988 23.2115 218.412C23.4759 218.863 23.3701 219.446 22.9207 219.711C22.7621 219.817 22.6034 219.87 22.4184 219.87C22.1011 219.87 21.8103 219.711 21.6253 219.446ZM18.9816 215.126C18.7172 214.675 18.8759 214.092 19.3253 213.827C19.7747 213.562 20.3299 213.721 20.5943 214.171C20.8586 214.622 20.7264 215.179 20.277 215.47C20.1184 215.55 19.9598 215.603 19.8011 215.603C19.4839 215.603 19.1667 215.417 18.9816 215.126ZM16.4965 210.726C16.2586 210.276 16.4172 209.692 16.8667 209.454C17.3425 209.189 17.8977 209.374 18.1621 209.825C18.4 210.276 18.2414 210.859 17.7655 211.097C17.7655 211.097 17.4747 211.23 17.3161 211.23C16.9988 211.23 16.6816 211.044 16.4965 210.726ZM14.1966 206.247C13.9851 205.77 14.1966 205.213 14.646 204.975C15.0954 204.736 15.677 204.975 15.8885 205.399C16.1264 205.876 15.9414 206.433 15.4655 206.671C15.4655 206.671 15.2011 206.777 15.0425 206.777C14.6988 206.777 14.3816 206.565 14.223 206.247H14.1966ZM12.0287 201.662C11.8172 201.211 12.0287 200.655 12.5046 200.416C12.9805 200.204 13.5356 200.416 13.7471 200.893C13.9586 201.37 13.7471 201.927 13.2713 202.139C13.1391 202.192 13.0069 202.219 12.9011 202.219C12.531 202.219 12.1874 202.033 12.0287 201.662ZM10.046 197.024C9.86092 196.547 10.0724 195.99 10.5747 195.805C11.0506 195.619 11.6057 195.805 11.7908 196.308C11.9759 196.812 11.7379 197.342 11.2621 197.554C11.2621 197.554 11.0241 197.607 10.9184 197.607C10.5483 197.607 10.2046 197.395 10.046 197.024ZM8.22184 192.306C8.06322 191.803 8.30115 191.273 8.80345 191.087C9.27931 190.902 9.83448 191.167 9.9931 191.67C10.1782 192.147 9.94023 192.704 9.43793 192.863C9.43793 192.863 9.22644 192.916 9.12069 192.916C8.72414 192.916 8.38046 192.677 8.22184 192.306ZM6.58276 187.509C6.42414 187.032 6.68851 186.502 7.16437 186.343C7.66667 186.184 8.1954 186.449 8.35402 186.926C8.51264 187.43 8.24828 187.96 7.74598 188.119C7.74598 188.119 7.56092 188.172 7.45517 188.172C7.05862 188.172 6.68851 187.907 6.55632 187.509H6.58276ZM5.12874 182.659C4.99655 182.156 5.28736 181.652 5.78965 181.493C6.29195 181.361 6.79425 181.652 6.95287 182.156C7.08506 182.659 6.79425 183.189 6.29195 183.322C6.29195 183.322 6.13333 183.322 6.02759 183.322C5.63103 183.322 5.26092 183.057 5.12874 182.633V182.659ZM3.85977 177.756C3.72759 177.253 4.04483 176.749 4.54713 176.643C5.04943 176.511 5.55172 176.829 5.68391 177.332C5.78965 177.836 5.49885 178.339 4.99655 178.472C4.99655 178.472 4.83793 178.472 4.75862 178.472C4.33563 178.472 3.96552 178.18 3.85977 177.73V177.756ZM2.74942 172.827C2.64368 172.323 2.98736 171.82 3.48966 171.714C3.99195 171.608 4.49425 171.952 4.6 172.456C4.70575 172.959 4.36207 173.463 3.85977 173.569H3.67471C3.22529 173.569 2.85517 173.277 2.74942 172.827ZM1.85057 167.844C1.77126 167.341 2.11494 166.837 2.64368 166.757C3.14598 166.678 3.62184 167.022 3.72759 167.526C3.8069 168.056 3.46322 168.533 2.93448 168.613C2.93448 168.613 2.82874 168.613 2.77586 168.613C2.32644 168.613 1.92988 168.268 1.87701 167.818L1.85057 167.844ZM1.11034 162.835C1.03103 162.331 1.40115 161.854 1.92988 161.775C2.43218 161.722 2.90805 162.093 2.96092 162.596C3.04023 163.1 2.67011 163.577 2.16782 163.657H2.03563C1.55977 163.657 1.16322 163.312 1.11034 162.835ZM0.555172 157.799C0.502299 157.296 0.89885 156.819 1.40115 156.792C1.92988 156.739 2.37931 157.11 2.43218 157.64C2.48506 158.144 2.08851 158.621 1.58621 158.648C1.58621 158.648 1.5069 158.674 1.48046 158.674C1.0046 158.674 0.608046 158.303 0.555172 157.799ZM0.185057 152.764C0.185057 152.234 0.555172 151.783 1.08391 151.757C1.58621 151.757 2.03563 152.128 2.06207 152.658C2.06207 153.188 1.69195 153.612 1.18966 153.638H1.13678C0.634483 153.638 0.211494 153.267 0.185057 152.764ZM0 147.702C0 147.172 0.422988 146.748 0.925287 146.748C1.45402 146.721 1.87701 147.145 1.90345 147.649C1.90345 148.179 1.48046 148.603 0.951724 148.629C0.422989 148.629 0.0264368 148.205 0 147.702ZM0.925287 143.594C0.422988 143.594 0 143.143 0 142.613C0 142.11 0.449425 141.686 0.951724 141.712C1.48046 141.712 1.90345 142.136 1.90345 142.666C1.90345 143.17 1.48046 143.594 0.951724 143.594H0.925287ZM1.08391 138.558C0.555172 138.558 0.158621 138.081 0.185057 137.551C0.185057 137.047 0.660919 136.65 1.18966 136.676C1.69195 136.703 2.08851 137.127 2.06207 137.657C2.06207 138.161 1.61264 138.558 1.13678 138.558H1.08391ZM1.40115 133.523C0.89885 133.523 0.502299 133.019 0.555172 132.515C0.608046 131.985 1.05747 131.614 1.58621 131.667C2.08851 131.667 2.48506 132.171 2.43218 132.674C2.37931 133.178 1.98276 133.549 1.5069 133.549C1.5069 133.549 1.42759 133.549 1.40115 133.549V133.523ZM1.92988 128.513C1.40115 128.46 1.03103 127.983 1.11034 127.48C1.16322 126.95 1.63908 126.579 2.16782 126.658C2.67011 126.711 3.04023 127.188 2.98736 127.718C2.90805 128.195 2.51149 128.54 2.03563 128.54C2.03563 128.54 1.95632 128.54 1.92988 128.513ZM2.61724 123.557C2.11494 123.451 1.74483 122.974 1.85057 122.471C1.92988 121.941 2.40575 121.596 2.93448 121.676C3.43678 121.782 3.78046 122.259 3.70115 122.762C3.62184 123.239 3.22529 123.557 2.77586 123.557H2.61724ZM3.48966 118.601C2.98736 118.495 2.67011 117.992 2.74942 117.462C2.85517 116.958 3.35747 116.64 3.85977 116.746C4.38851 116.852 4.70575 117.356 4.6 117.859C4.52069 118.31 4.12414 118.601 3.67471 118.601H3.48966ZM4.54713 113.672C4.04483 113.566 3.75402 113.036 3.85977 112.532C3.99195 112.029 4.49425 111.711 4.99655 111.843C5.49885 111.949 5.81609 112.479 5.68391 112.983C5.57816 113.407 5.20805 113.698 4.78506 113.698C4.78506 113.698 4.62644 113.698 4.54713 113.698V113.672ZM5.78965 108.795C5.28736 108.663 4.99655 108.133 5.15517 107.629C5.31379 107.125 5.81609 106.834 6.31839 106.993C6.82069 107.125 7.13793 107.656 6.97931 108.159C6.87356 108.557 6.47701 108.822 6.08046 108.822C6.08046 108.822 5.8954 108.822 5.81609 108.822L5.78965 108.795ZM7.21724 103.972C6.71494 103.813 6.45057 103.283 6.60919 102.779C6.76782 102.302 7.29655 102.01 7.79885 102.169C8.27471 102.328 8.56552 102.859 8.4069 103.362C8.27471 103.76 7.9046 104.025 7.50805 104.025C7.50805 104.025 7.32299 103.998 7.21724 103.972ZM8.80345 99.2011C8.32759 99.0156 8.06322 98.4855 8.24827 97.9819C8.43333 97.5049 8.96207 97.2398 9.46437 97.4254C9.94023 97.6109 10.2046 98.141 10.0195 98.6445C9.86092 99.0156 9.51724 99.2541 9.12069 99.2541C9.12069 99.2541 8.90919 99.2541 8.80345 99.2011ZM10.5747 94.4835C10.0988 94.298 9.86092 93.7414 10.0724 93.2644C10.2575 92.7873 10.8126 92.5488 11.2885 92.7608C11.7644 92.9463 12.0023 93.5029 11.8172 93.98C11.6586 94.351 11.3149 94.563 10.9448 94.563C10.8126 94.563 10.7069 94.563 10.5747 94.4835ZM12.531 89.8455C12.0552 89.6335 11.8437 89.0769 12.0552 88.5998C12.2667 88.1493 12.8218 87.9373 13.2977 88.1493C13.7736 88.3613 13.9851 88.9179 13.7736 89.3949C13.6149 89.7395 13.2713 89.9515 12.9011 89.9515C12.9011 89.9515 12.6632 89.9515 12.531 89.8455ZM14.646 85.287C14.1701 85.0749 13.9851 84.4919 14.223 84.0413C14.4345 83.5642 15.0161 83.3787 15.4655 83.6173C15.9414 83.8293 16.1264 84.4124 15.9149 84.8629H15.8885C15.7299 85.2074 15.4126 85.393 15.0425 85.393C15.0425 85.393 14.7782 85.393 14.646 85.287ZM16.9195 80.8079C16.4701 80.5694 16.2851 79.9863 16.5494 79.5358C16.7874 79.0852 17.369 78.8997 17.8184 79.1647C18.2678 79.4033 18.4529 79.9863 18.1885 80.4369C18.0299 80.7549 17.7126 80.9404 17.369 80.9404C17.2103 80.9404 17.0517 80.8874 16.9195 80.8079ZM19.3782 76.4349C18.9287 76.1699 18.7701 75.5868 19.0345 75.1363C19.2988 74.6857 19.8805 74.5267 20.3299 74.7917C20.7793 75.0568 20.9115 75.6398 20.6471 76.0904C20.4885 76.3819 20.1713 76.5674 19.854 76.5674C19.669 76.5674 19.5103 76.5144 19.3782 76.4349ZM21.969 72.1149C21.546 71.8499 21.4138 71.2668 21.6782 70.8163C21.969 70.3657 22.5506 70.2597 22.9736 70.5247C23.423 70.8163 23.5552 71.3993 23.2644 71.8234C23.0793 72.1149 22.7885 72.2739 22.4713 72.2739C22.3126 72.2739 22.1276 72.2209 21.969 72.1149ZM24.7184 67.9274C24.2954 67.6094 24.1897 67.0263 24.4805 66.6023C24.7977 66.1782 25.3793 66.0722 25.8023 66.3637C26.2253 66.6553 26.331 67.2649 26.0402 67.6889C25.8552 67.9539 25.5644 68.0864 25.2736 68.0864C25.0621 68.0864 24.877 68.0334 24.7184 67.9274Z" fill="white"/>
<path d="M216.518 257.345L216.016 256.629C252.049 231.054 273.569 189.391 273.569 145.184C273.569 128.275 270.528 111.79 264.527 96.1797L265.347 95.8617C271.374 111.578 274.441 128.195 274.441 145.184C274.441 189.683 252.789 231.611 216.491 257.345H216.518Z" fill="white"/>
<path d="M264.526 96.1532C246.655 49.6403 205.044 16.6174 155.871 9.96515L155.977 9.09055C205.44 15.7958 247.342 49.0307 265.319 95.8352L264.5 96.1532H264.526Z" fill="white"/>
<path d="M27.3343 64.7735L26.832 64.4025C27.4401 63.5544 28.0746 62.7063 28.709 61.8847L29.2113 62.2557C28.5769 63.0773 27.9688 63.9254 27.3343 64.7735ZM32.3309 58.3333L31.855 57.9357C32.5159 57.1142 33.2033 56.3191 33.8907 55.524L34.3665 55.9215C33.6792 56.7166 33.0182 57.5117 32.3573 58.3068L32.3309 58.3333ZM37.6975 52.2111L37.2481 51.787C37.9619 51.0184 38.6757 50.2499 39.4159 49.5078L39.8654 49.9583C39.1516 50.7004 38.4113 51.469 37.6975 52.2376V52.2111ZM43.4079 46.4069L42.9849 45.9563C43.7516 45.2408 44.5182 44.5252 45.2849 43.8096L45.7079 44.2867C44.9412 45.0022 44.1746 45.6913 43.4079 46.4334V46.4069ZM49.4619 40.9473L49.0654 40.4702C49.8585 39.7811 50.678 39.1186 51.4975 38.456L51.8941 38.933C51.0746 39.5956 50.2815 40.2582 49.4884 40.9473H49.4619ZM55.8067 35.8587L55.4366 35.3551C56.2826 34.719 57.1286 34.1095 57.9746 33.4999L58.3447 34.0035C57.4987 34.613 56.6527 35.2226 55.8067 35.8587ZM62.4424 31.1676L62.0987 30.6376C62.9711 30.0545 63.8435 29.4979 64.7424 28.9414L65.0861 29.4714C64.2136 30.028 63.3148 30.5846 62.4688 31.1676H62.4424ZM69.3688 26.8741L69.0516 26.3176C69.9504 25.7875 70.8757 25.2839 71.801 24.7804L72.0918 25.3369C71.1665 25.8405 70.2677 26.3441 69.3688 26.8741ZM76.5332 23.0047L76.2424 22.4481C77.1677 21.9711 78.1194 21.5205 79.0711 21.0699L79.3355 21.6265C78.3838 22.0771 77.4585 22.5276 76.5332 23.0047ZM83.909 19.5858L83.6711 19.0027C84.6228 18.5787 85.601 18.1811 86.5792 17.7836L86.8171 18.3666C85.8389 18.7642 84.8872 19.1617 83.9355 19.5593L83.909 19.5858ZM91.47 16.6174L91.2585 16.0344C92.2366 15.6898 93.2412 15.3453 94.2194 15.0007L94.4044 15.5838C93.4263 15.9018 92.4217 16.2464 91.4435 16.6174H91.47ZM99.1895 14.0996L99.0044 13.4901C100.009 13.1985 101.014 12.907 102.018 12.642L102.177 13.2515C101.172 13.5166 100.168 13.8081 99.1631 14.0996H99.1895ZM107.041 12.0589L106.909 11.4493C107.914 11.2108 108.945 10.9988 109.976 10.7867L110.108 11.3963C109.077 11.6083 108.072 11.8204 107.068 12.0589H107.041ZM114.999 10.4952L114.893 9.88564C115.924 9.72662 116.955 9.56761 118.012 9.40859L118.092 10.0182C117.061 10.1772 116.03 10.3362 114.999 10.4952ZM155.923 9.88564L155.526 9.83264L155.606 9.22307L155.976 9.27607L155.896 9.91215L155.923 9.88564ZM123.062 9.40859L122.983 8.77251C124.014 8.6665 125.071 8.56049 126.102 8.48098L126.155 9.11705C125.124 9.19656 124.067 9.30257 123.035 9.40859H123.062ZM150.556 9.27607C149.525 9.17006 148.494 9.09055 147.437 9.01104L147.49 8.37497C148.547 8.45448 149.578 8.53398 150.609 8.64L150.556 9.27607ZM131.178 8.79902V8.16294C132.183 8.10994 133.24 8.08343 134.298 8.05693V8.693C133.267 8.693 132.235 8.74601 131.178 8.79902ZM142.44 8.74601C141.409 8.71951 140.352 8.693 139.321 8.6665V8.03043C140.378 8.03043 141.435 8.05693 142.467 8.10994V8.74601H142.44Z" fill="white"/>
<path d="M136.597 245.339C136.597 244.836 137.02 244.412 137.523 244.412C138.051 244.412 138.474 244.836 138.474 245.339C138.474 245.869 138.051 246.293 137.523 246.293C137.02 246.293 136.597 245.869 136.597 245.339ZM132.473 246.161C131.971 246.161 131.548 245.71 131.574 245.18C131.574 244.65 132.05 244.252 132.579 244.279C133.081 244.279 133.478 244.756 133.451 245.26C133.451 245.79 133.028 246.161 132.526 246.161H132.473ZM141.62 245.26C141.62 244.756 141.99 244.305 142.493 244.279C143.021 244.279 143.471 244.65 143.497 245.18C143.497 245.684 143.127 246.134 142.598 246.161H142.546C142.043 246.161 141.647 245.763 141.62 245.26ZM126.578 244.756C126.631 244.252 127.08 243.881 127.609 243.908C128.138 243.961 128.508 244.438 128.455 244.942C128.402 245.472 127.952 245.843 127.424 245.79C126.895 245.737 126.525 245.286 126.578 244.756ZM146.617 244.942C146.564 244.411 146.934 243.961 147.463 243.908C147.965 243.855 148.441 244.226 148.494 244.756C148.547 245.26 148.177 245.737 147.648 245.79H147.542C147.066 245.79 146.67 245.419 146.617 244.942ZM122.401 245.18C121.898 245.101 121.528 244.624 121.608 244.093C121.687 243.59 122.163 243.219 122.692 243.298C123.194 243.378 123.538 243.855 123.485 244.385C123.405 244.836 123.009 245.18 122.533 245.18H122.401ZM151.613 244.358C151.534 243.828 151.878 243.378 152.38 243.298C152.909 243.219 153.385 243.563 153.464 244.067C153.543 244.597 153.173 245.074 152.671 245.154H152.512C152.063 245.154 151.666 244.836 151.613 244.358ZM117.404 244.305C116.902 244.199 116.585 243.696 116.69 243.192C116.796 242.689 117.272 242.344 117.801 242.45C118.303 242.556 118.62 243.033 118.515 243.563C118.435 244.014 118.039 244.305 117.589 244.305H117.404ZM156.557 243.537C156.451 243.007 156.769 242.53 157.297 242.424C157.826 242.318 158.328 242.636 158.434 243.139C158.513 243.669 158.196 244.173 157.694 244.252C157.694 244.252 157.562 244.252 157.509 244.252C157.059 244.252 156.663 243.934 156.584 243.51L156.557 243.537ZM112.487 243.166C111.985 243.033 111.667 242.53 111.8 242.026C111.932 241.523 112.434 241.205 112.936 241.337C113.439 241.47 113.756 241.973 113.624 242.477C113.518 242.901 113.121 243.192 112.698 243.192C112.698 243.192 112.54 243.192 112.487 243.192V243.166ZM161.448 242.45C161.316 241.947 161.633 241.443 162.135 241.311C162.638 241.178 163.14 241.47 163.272 242C163.404 242.477 163.087 243.007 162.585 243.139C162.585 243.139 162.426 243.166 162.347 243.166C161.95 243.166 161.554 242.874 161.448 242.45ZM107.596 241.788C107.094 241.629 106.829 241.099 106.988 240.595C107.12 240.118 107.649 239.826 108.151 239.985C108.654 240.145 108.918 240.675 108.786 241.152C108.654 241.576 108.284 241.841 107.887 241.841C107.887 241.841 107.675 241.814 107.596 241.788ZM166.286 241.125C166.127 240.622 166.418 240.091 166.894 239.932C167.396 239.8 167.925 240.065 168.084 240.569C168.242 241.072 167.951 241.602 167.475 241.761C167.475 241.761 167.29 241.761 167.185 241.761C166.788 241.761 166.418 241.496 166.286 241.099V241.125ZM102.785 240.145C102.309 239.985 102.044 239.429 102.229 238.952C102.415 238.448 102.943 238.21 103.446 238.395C103.921 238.554 104.186 239.111 104.001 239.588C103.869 239.985 103.498 240.224 103.128 240.224C103.128 240.224 102.89 240.224 102.785 240.145ZM171.044 239.561C170.886 239.058 171.124 238.528 171.626 238.342C172.102 238.157 172.631 238.422 172.816 238.899C173.001 239.402 172.736 239.932 172.261 240.118C172.261 240.118 172.049 240.171 171.943 240.171C171.547 240.171 171.203 239.932 171.044 239.561ZM98.0789 238.289C97.6031 238.104 97.3651 237.547 97.5766 237.044C97.7617 236.567 98.3169 236.355 98.8192 236.567C99.295 236.752 99.5065 237.309 99.295 237.786C99.1628 238.157 98.8192 238.369 98.449 238.369C98.449 238.369 98.1847 238.369 98.0789 238.289ZM175.724 237.759C175.539 237.256 175.75 236.726 176.226 236.514C176.702 236.302 177.257 236.514 177.469 237.017C177.654 237.494 177.469 238.051 176.966 238.236C176.966 238.236 176.728 238.316 176.596 238.316C176.226 238.316 175.882 238.104 175.724 237.759ZM93.4525 236.196C93.0031 235.957 92.7916 235.4 93.0295 234.923C93.241 234.446 93.7962 234.261 94.272 234.473C94.7479 234.711 94.9329 235.294 94.7215 235.745C94.5628 236.09 94.2191 236.275 93.8755 236.275C93.7168 236.275 93.5847 236.275 93.4525 236.196ZM180.324 235.718C180.086 235.241 180.271 234.658 180.747 234.446C181.223 234.208 181.778 234.393 182.016 234.87C182.227 235.347 182.016 235.904 181.593 236.143C181.434 236.196 181.302 236.222 181.17 236.222C180.826 236.222 180.482 236.037 180.324 235.718ZM88.9582 233.863C88.5088 233.598 88.3237 233.015 88.5881 232.565C88.826 232.114 89.4077 231.955 89.8571 232.194C90.3065 232.459 90.4916 233.015 90.2272 233.466C90.0686 233.784 89.7249 233.969 89.4077 233.969C89.249 233.969 89.0904 233.969 88.9582 233.863ZM84.5697 231.292C84.1203 231.027 83.9881 230.444 84.2789 229.994C84.5433 229.543 85.1249 229.411 85.5743 229.676C85.9973 229.967 86.1295 230.55 85.8651 230.974C85.7065 231.266 85.3893 231.425 85.072 231.425C84.9134 231.425 84.7283 231.425 84.5697 231.292ZM80.3398 228.51C79.9168 228.218 79.7847 227.635 80.1019 227.211C80.3927 226.787 80.9743 226.654 81.3973 226.972C81.8203 227.264 81.926 227.847 81.6352 228.271C81.4502 228.536 81.1594 228.669 80.8686 228.669C80.6835 228.669 80.4985 228.616 80.3398 228.51ZM76.2421 225.541C75.8191 225.223 75.7398 224.614 76.0571 224.216C76.3743 223.792 76.9559 223.713 77.3789 224.031C77.8019 224.349 77.8548 224.932 77.564 225.356C77.3789 225.594 77.0881 225.727 76.7973 225.727C76.6123 225.727 76.4008 225.674 76.2421 225.541ZM72.3031 222.334C71.9065 222.016 71.8536 221.407 72.1709 221.009C72.5145 220.612 73.0962 220.585 73.4927 220.903H73.5191C73.9157 221.248 73.9421 221.831 73.6249 222.228C73.4398 222.467 73.1755 222.573 72.9111 222.573C72.6732 222.573 72.4617 222.493 72.3031 222.334ZM68.4962 218.969C68.126 218.624 68.0996 218.014 68.4962 217.643C68.8398 217.272 69.4479 217.246 69.818 217.59C70.1881 217.961 70.2146 218.544 69.8709 218.916C69.6858 219.128 69.4214 219.234 69.1835 219.234C68.9456 219.234 68.7077 219.154 68.5226 218.969H68.4962ZM64.9008 215.417C64.5306 215.02 64.5571 214.436 64.9272 214.065C65.2973 213.721 65.9054 213.721 66.249 214.065C66.6191 214.436 66.5927 215.046 66.2226 215.417C66.064 215.576 65.826 215.656 65.5881 215.656C65.3237 215.656 65.0858 215.576 64.9008 215.391V215.417ZM61.464 211.654C61.1203 211.283 61.1732 210.673 61.5697 210.329C61.9663 209.984 62.5479 210.037 62.8916 210.435C63.2352 210.832 63.1824 211.415 62.8123 211.76C62.6272 211.919 62.3893 211.998 62.1778 211.998C61.9134 211.998 61.649 211.892 61.464 211.654ZM58.2387 207.758C57.9214 207.36 58.0008 206.751 58.3973 206.433C58.7939 206.115 59.4019 206.194 59.7192 206.592C60.0364 207.016 59.9571 207.599 59.5605 207.917C59.3755 208.049 59.1904 208.129 58.9789 208.129C58.6881 208.129 58.4237 207.996 58.2387 207.758ZM55.1985 203.703C54.9077 203.279 55.0134 202.696 55.4364 202.378C55.8594 202.086 56.441 202.192 56.7318 202.616C57.049 203.04 56.9433 203.623 56.5203 203.915C56.3352 204.047 56.1502 204.1 55.9651 204.1C55.6743 204.1 55.3835 203.968 55.1985 203.703ZM52.3697 199.489C52.1054 199.065 52.2375 198.482 52.6605 198.19C53.11 197.925 53.6916 198.031 53.9559 198.482C54.2467 198.932 54.1146 199.515 53.6651 199.78C53.5065 199.886 53.3479 199.939 53.1628 199.939C52.8456 199.939 52.5548 199.78 52.3697 199.489ZM49.7525 195.142C49.5146 194.692 49.6732 194.109 50.1226 193.87C50.572 193.605 51.1536 193.764 51.3916 194.215C51.6559 194.665 51.4973 195.248 51.0479 195.513C50.9157 195.593 50.7306 195.619 50.572 195.619C50.2548 195.619 49.9375 195.46 49.7525 195.142ZM47.3732 190.69C47.1352 190.213 47.3203 189.656 47.7962 189.418C48.2456 189.179 48.8272 189.365 49.0387 189.842C49.2766 190.292 49.0916 190.875 48.6421 191.114C48.6421 191.114 48.3513 191.193 48.2191 191.193C47.8755 191.193 47.5318 191.008 47.3732 190.69ZM45.2054 186.105C44.9939 185.628 45.2054 185.071 45.6812 184.859C46.1571 184.647 46.7123 184.859 46.9237 185.336C47.1352 185.813 46.9237 186.37 46.4479 186.582C46.4479 186.582 46.1835 186.661 46.0513 186.661C45.7077 186.661 45.364 186.449 45.2054 186.105ZM43.2755 181.414C43.0904 180.937 43.3283 180.38 43.8042 180.195C44.3065 180.009 44.8352 180.248 45.0203 180.751C45.2054 181.228 44.9674 181.785 44.4916 181.97C44.4916 181.97 44.2536 182.023 44.1479 182.023C43.7778 182.023 43.4077 181.785 43.2755 181.414ZM41.5835 176.643C41.4249 176.166 41.6893 175.609 42.1916 175.45C42.6674 175.291 43.1962 175.556 43.3812 176.06C43.5398 176.564 43.2755 177.094 42.7732 177.253C42.7732 177.253 42.5881 177.306 42.4824 177.306C42.0858 177.306 41.7157 177.041 41.5835 176.643ZM40.1295 171.793C39.9973 171.289 40.2881 170.759 40.7904 170.627C41.2927 170.494 41.8214 170.786 41.9536 171.289C42.0858 171.793 41.795 172.323 41.2927 172.456C41.2927 172.456 41.1341 172.482 41.0283 172.482C40.6318 172.482 40.2352 172.217 40.1295 171.793Z" fill="white"/>
<path d="M181.354 235.692L180.984 234.897C204.434 223.448 222.807 202.775 231.399 178.154L232.219 178.445C223.548 203.279 205.015 224.137 181.354 235.665V235.692Z" fill="white"/>
<path d="M232.54 177.094L231.958 176.882C232.275 175.901 232.593 174.894 232.91 173.887L233.518 174.072C233.227 175.079 232.91 176.087 232.566 177.067L232.54 177.094ZM234.813 169.222L234.205 169.063C234.443 168.083 234.681 167.049 234.893 166.015L235.501 166.148C235.289 167.208 235.051 168.242 234.787 169.222H234.813ZM40.0006 168.825C39.7627 167.791 39.5247 166.757 39.3133 165.75L39.9213 165.618C40.1328 166.625 40.3707 167.632 40.6087 168.666L40.0006 168.825ZM236.426 161.165L235.818 161.059C235.976 160.026 236.135 158.992 236.267 157.958L236.875 158.038C236.743 159.072 236.585 160.132 236.426 161.165ZM38.4144 160.768C38.2558 159.734 38.0972 158.701 37.965 157.64L38.5995 157.561C38.7316 158.594 38.8638 159.628 39.0224 160.662L38.4144 160.768ZM237.378 153.029L236.743 152.976C236.822 151.942 236.875 150.882 236.928 149.848H237.563C237.51 150.935 237.457 151.969 237.378 153.029ZM37.4627 152.631C37.3834 151.598 37.3305 150.538 37.2776 149.477H37.9121C37.965 150.485 38.0179 151.545 38.0972 152.578L37.4627 152.631ZM237.034 144.839C237.034 143.806 237.034 142.746 236.981 141.712H237.616C237.642 142.746 237.668 143.779 237.668 144.839H237.034ZM37.8064 144.442H37.1719C37.1719 143.382 37.1983 142.322 37.2512 141.288H37.8857C37.8328 142.348 37.8328 143.408 37.8064 144.442ZM236.664 136.703C236.585 135.669 236.479 134.609 236.347 133.576L236.981 133.496C237.087 134.53 237.193 135.59 237.298 136.623L236.664 136.676V136.703ZM38.1765 136.305L37.542 136.252C37.6477 135.192 37.7535 134.159 37.8592 133.125L38.4937 133.205C38.3615 134.238 38.2558 135.272 38.1765 136.332V136.305ZM235.659 128.619C235.474 127.586 235.289 126.552 235.104 125.545L235.712 125.413C235.924 126.446 236.109 127.48 236.267 128.513L235.659 128.619ZM39.2339 128.222L38.6259 128.116C38.811 127.056 38.996 126.022 39.2075 125.015L39.8156 125.148C39.6041 126.155 39.419 127.188 39.2339 128.222ZM233.994 120.642C233.729 119.635 233.465 118.628 233.174 117.621L233.782 117.462C234.073 118.469 234.337 119.476 234.602 120.51L233.994 120.669V120.642ZM40.9259 120.271L40.3179 120.112C40.5822 119.105 40.8466 118.071 41.1374 117.064L41.7454 117.25C41.4546 118.257 41.1903 119.264 40.9259 120.271ZM231.694 112.85C231.35 111.87 231.006 110.889 230.636 109.908L231.218 109.696C231.588 110.677 231.932 111.658 232.275 112.665L231.694 112.877V112.85ZM43.2523 112.479L42.6707 112.267C43.0144 111.26 43.3845 110.279 43.7546 109.299L44.3362 109.511C43.9661 110.491 43.596 111.472 43.2523 112.479ZM228.733 105.27C228.336 104.316 227.887 103.362 227.437 102.434L227.993 102.169C228.442 103.124 228.865 104.078 229.288 105.032L228.706 105.27H228.733ZM46.2133 104.873L45.6316 104.608C46.0546 103.654 46.5041 102.673 46.9535 101.745L47.5087 102.01C47.0592 102.938 46.6098 103.892 46.1868 104.873H46.2133ZM225.19 97.9554C224.688 97.0278 224.186 96.1267 223.657 95.2256L224.212 94.9076C224.741 95.8087 225.243 96.7363 225.745 97.6639L225.19 97.9554ZM49.8087 97.5579L49.2535 97.2663C49.7558 96.3387 50.2581 95.4111 50.7868 94.51L51.342 94.8281C50.8133 95.7292 50.311 96.6303 49.8087 97.5579ZM221.066 90.9586C220.511 90.084 219.929 89.2094 219.321 88.3613L219.85 88.0168C220.458 88.8914 221.04 89.7395 221.595 90.6406L221.066 90.9851V90.9586ZM53.9857 90.5611L53.4569 90.2165C54.0385 89.3419 54.6201 88.4673 55.2282 87.5927L55.7305 87.9638C55.1224 88.8119 54.5408 89.6865 53.9857 90.5611ZM216.387 84.3063C215.752 83.4847 215.091 82.6631 214.43 81.8681L214.906 81.4705C215.567 82.2921 216.228 83.1137 216.863 83.9353L216.36 84.3063H216.387ZM58.7178 83.9088L58.2156 83.5112C58.85 82.6897 59.511 81.8681 60.1983 81.0465L60.6742 81.444C60.0133 82.2391 59.3523 83.0607 58.7178 83.8823V83.9088ZM211.179 78.0516C210.491 77.283 209.778 76.5144 209.037 75.7723L209.487 75.3483C210.227 76.1169 210.941 76.859 211.628 77.6541L211.152 78.0781L211.179 78.0516ZM63.9788 77.6806L63.5293 77.2565C64.2431 76.4879 64.9569 75.7193 65.6972 74.9773L66.1466 75.4278C65.4064 76.1699 64.6926 76.9385 64.0052 77.7071L63.9788 77.6806ZM205.495 72.2474C204.728 71.5318 203.962 70.8163 203.168 70.1537L203.591 69.6766C204.385 70.3657 205.178 71.0813 205.918 71.7969L205.495 72.2474ZM69.7156 71.9029L69.2926 71.4523C70.0592 70.7368 70.8523 70.0212 71.619 69.3586L72.042 69.8357C71.2489 70.5247 70.4822 71.2138 69.7156 71.9294V71.9029ZM199.335 66.9203C198.516 66.2577 197.696 65.6217 196.85 65.0121L197.22 64.5085C198.066 65.1446 198.886 65.7807 199.705 66.4433L199.309 66.9468L199.335 66.9203ZM75.8753 66.6023L75.4788 66.0987C76.2983 65.4361 77.1443 64.8001 77.9903 64.1905L78.3604 64.694C77.5144 65.3036 76.6949 65.9397 75.8753 66.5758V66.6023ZM192.752 62.0967C191.88 61.5137 191.007 60.9571 190.135 60.4006L190.452 59.8705C191.351 60.4271 192.224 61.0101 193.096 61.5932L192.752 62.1233V62.0967ZM82.4316 61.8317L82.088 61.3017C82.9604 60.7186 83.8328 60.162 84.7316 59.6055L85.0489 60.1355C84.1765 60.6921 83.2776 61.2486 82.4316 61.8317ZM185.799 57.8563C184.874 57.3527 183.949 56.8491 183.05 56.3721L183.341 55.8155C184.266 56.2926 185.191 56.7961 186.117 57.2997L185.799 57.8563ZM89.3581 57.6177L89.0408 57.0612C89.9661 56.5576 90.8914 56.054 91.8167 55.577L92.1075 56.1336C91.1822 56.6106 90.2569 57.0877 89.3581 57.5912V57.6177ZM178.529 54.1723C177.578 53.7483 176.626 53.3242 175.648 52.9267L175.886 52.3436C176.864 52.7412 177.816 53.1652 178.767 53.6158L178.503 54.1988L178.529 54.1723ZM96.6282 53.9868L96.3638 53.4037C97.3155 52.9797 98.2673 52.5556 99.2454 52.1581L99.4834 52.7412C98.5316 53.1387 97.5799 53.5363 96.6282 53.9868ZM170.995 51.098C170.017 50.7534 169.012 50.4089 168.034 50.0908L168.219 49.4813C169.224 49.7993 170.228 50.1439 171.206 50.5149L170.995 51.098ZM104.163 50.9654L103.951 50.3824C104.929 50.0378 105.934 49.6933 106.939 49.3753L107.124 49.9848C106.119 50.3029 105.141 50.6474 104.163 50.992V50.9654ZM163.222 48.6597C162.218 48.3947 161.213 48.1296 160.182 47.8911L160.314 47.2815C161.345 47.52 162.35 47.7851 163.355 48.0501L163.196 48.6597H163.222ZM111.909 48.5537L111.75 47.9441C112.755 47.6791 113.786 47.414 114.817 47.1755L114.949 47.7851C113.944 48.0236 112.913 48.2621 111.909 48.5272V48.5537ZM155.291 46.884C154.26 46.6985 153.229 46.5394 152.198 46.3804L152.304 45.7708C153.335 45.9299 154.366 46.0889 155.397 46.2744L155.291 46.884ZM119.84 46.8045L119.734 46.1949C120.765 46.0094 121.796 45.8504 122.827 45.6913L122.906 46.3009C121.875 46.4599 120.844 46.6189 119.813 46.8045H119.84ZM147.228 45.7443C146.197 45.6383 145.166 45.5588 144.109 45.4793L144.162 44.8432C145.219 44.9227 146.25 45.0023 147.307 45.1083L147.255 45.7443H147.228ZM127.876 45.7178L127.824 45.0818C128.855 44.9758 129.912 44.8962 130.943 44.8432L130.996 45.4793C129.965 45.5588 128.907 45.6383 127.876 45.7178ZM139.112 45.2938C138.081 45.2938 137.024 45.2938 135.993 45.2938V44.6577C137.024 44.6577 138.081 44.6577 139.139 44.6577V45.2938H139.112Z" fill="white"/>
<path d="M137.47 211.124C101.199 211.124 71.6953 181.546 71.6953 145.184C71.6953 136.279 73.4401 127.639 76.8505 119.529L77.6436 119.873C74.2597 127.904 72.5413 136.411 72.5413 145.184C72.5413 181.069 101.648 210.249 137.444 210.249C173.239 210.249 202.346 181.069 202.346 145.184C202.346 128.752 196.213 113.062 185.109 101.003C174.059 89.0239 159.042 81.6825 142.89 80.3309L142.969 79.4563C159.36 80.8079 174.561 88.2553 185.77 100.42C197.032 112.638 203.245 128.54 203.245 145.184C203.245 181.546 173.741 211.124 137.47 211.124Z" fill="white"/>
<path d="M76.8774 120.563C76.4016 120.351 76.1901 119.794 76.3751 119.317C76.5866 118.84 77.1418 118.601 77.6177 118.813C78.0935 119.025 78.3315 119.555 78.12 120.059C77.9614 120.404 77.6177 120.616 77.2476 120.616C77.2476 120.616 77.0096 120.616 76.8774 120.563ZM78.9395 115.951C78.4901 115.739 78.305 115.156 78.543 114.705C78.7809 114.228 79.3625 114.043 79.8119 114.281C80.2878 114.52 80.4464 115.103 80.2085 115.553C80.0499 115.898 79.7326 116.084 79.3889 116.084C79.2303 116.084 79.0981 116.031 78.9395 115.951ZM81.3717 111.552C80.9223 111.286 80.7901 110.703 81.0545 110.253C81.3188 109.802 81.9004 109.67 82.3499 109.961C82.7993 110.226 82.9315 110.809 82.6671 111.26C82.482 111.525 82.1648 111.684 81.8476 111.684C81.6889 111.684 81.5303 111.684 81.3717 111.552ZM84.0947 107.338C83.6717 107.046 83.5924 106.436 83.9096 106.012C84.2004 105.615 84.782 105.509 85.205 105.827C85.628 106.118 85.7338 106.701 85.4165 107.125C85.2315 107.391 84.9407 107.523 84.6499 107.523C84.4648 107.523 84.2797 107.47 84.0947 107.338ZM87.1614 103.362C86.7648 103.018 86.7119 102.434 87.0556 102.01C87.3993 101.639 87.9809 101.586 88.3774 101.931C88.774 102.249 88.8269 102.858 88.4832 103.256C88.2981 103.468 88.0338 103.574 87.7694 103.574C87.5579 103.574 87.32 103.495 87.1614 103.362ZM90.4924 99.5986C90.1487 99.2541 90.1487 98.6445 90.4924 98.2735C90.8625 97.9024 91.4706 97.9024 91.8407 98.2735C92.2108 98.6445 92.2108 99.2276 91.8407 99.5986C91.6556 99.7841 91.4177 99.8901 91.1798 99.8901C90.9154 99.8901 90.6774 99.7841 90.4924 99.5986ZM94.1407 96.1267C93.797 95.7292 93.8499 95.1461 94.22 94.8016C94.6165 94.457 95.2246 94.51 95.5683 94.9076C95.8855 95.3051 95.8591 95.8882 95.4625 96.2327C95.2775 96.3917 95.066 96.4447 94.8545 96.4447C94.5901 96.4447 94.3257 96.3387 94.1407 96.1267ZM98.0269 92.9463C97.7096 92.5223 97.7889 91.9392 98.2119 91.6212C98.6349 91.3031 99.2165 91.4092 99.5338 91.8332C99.8246 92.2308 99.7453 92.8403 99.3223 93.1319C99.1637 93.2644 98.9786 93.3174 98.7671 93.3174C98.4763 93.3174 98.1855 93.1849 98.0269 92.9463ZM102.125 90.0575C101.834 89.6069 101.992 89.0504 102.415 88.7589C102.865 88.4673 103.446 88.6263 103.711 89.0504C104.002 89.5009 103.843 90.084 103.42 90.349C103.261 90.455 103.076 90.5081 102.918 90.5081C102.6 90.5081 102.31 90.349 102.125 90.0575ZM106.434 87.4867C106.196 87.0361 106.381 86.4796 106.83 86.2146C107.28 85.976 107.861 86.1615 108.099 86.6386C108.337 87.0892 108.152 87.6722 107.703 87.8842C107.703 87.8842 107.412 88.0168 107.28 88.0168C106.936 88.0168 106.592 87.8312 106.434 87.4867ZM110.954 85.2869C110.743 84.8099 110.954 84.2533 111.43 84.0413C111.906 83.8293 112.461 84.0413 112.673 84.5449C112.884 85.0219 112.673 85.5785 112.171 85.764C112.171 85.764 111.933 85.8435 111.8 85.8435C111.43 85.8435 111.087 85.6315 110.954 85.2869ZM115.607 83.4317C115.422 82.9282 115.687 82.3981 116.189 82.2126C116.665 82.0536 117.22 82.3186 117.379 82.8222C117.537 83.2992 117.273 83.8293 116.797 84.0148C116.797 84.0148 116.585 84.0678 116.48 84.0678C116.11 84.0678 115.74 83.8028 115.607 83.4317ZM120.392 81.9211C120.26 81.4175 120.551 80.9139 121.053 80.7814C121.556 80.6489 122.084 80.9404 122.217 81.444C122.349 81.9476 122.031 82.4776 121.529 82.6101C121.529 82.6101 121.371 82.6101 121.291 82.6101C120.868 82.6101 120.498 82.3186 120.392 81.8945V81.9211ZM125.283 80.7814C125.177 80.2779 125.521 79.8008 126.05 79.6948C126.552 79.6153 127.054 79.9598 127.134 80.4634C127.213 80.9934 126.869 81.4705 126.367 81.55C126.367 81.55 126.261 81.55 126.182 81.55C125.759 81.55 125.363 81.232 125.283 80.7549V80.7814ZM130.227 80.0658C130.227 79.5358 130.571 79.0587 131.099 79.0322C131.602 78.9792 132.051 79.3503 132.104 79.8803C132.157 80.3839 131.787 80.8609 131.258 80.9139H131.179C130.703 80.9139 130.28 80.5429 130.227 80.0658ZM141.145 80.7019C140.617 80.7019 140.22 80.2249 140.246 79.7213C140.273 79.1912 140.722 78.7937 141.251 78.8202C141.753 78.8467 142.176 79.2972 142.15 79.8273C142.123 80.3309 141.7 80.7019 141.198 80.7019H141.145ZM135.25 79.6948C135.25 79.1647 135.646 78.7407 136.149 78.7407C136.677 78.7142 137.1 79.1382 137.127 79.6683C137.127 80.1718 136.73 80.5959 136.202 80.6224H136.175C135.673 80.6224 135.25 80.2249 135.25 79.6948Z" fill="white"/>
<path d="M80.528 235.692C85.171 235.692 88.9349 231.919 88.9349 227.264C88.9349 222.609 85.171 218.836 80.528 218.836C75.885 218.836 72.1211 222.609 72.1211 227.264C72.1211 231.919 75.885 235.692 80.528 235.692Z" fill="#2E649E"/>
<path d="M80.5249 236.01C75.7134 236.01 71.8008 232.088 71.8008 227.264C71.8008 222.44 75.7134 218.518 80.5249 218.518C85.3364 218.518 89.2491 222.44 89.2491 227.264C89.2491 232.088 85.3364 236.01 80.5249 236.01ZM80.5249 219.154C76.0571 219.154 72.4353 222.785 72.4353 227.264C72.4353 231.743 76.0571 235.374 80.5249 235.374C84.9927 235.374 88.6146 231.743 88.6146 227.264C88.6146 222.785 84.9927 219.154 80.5249 219.154Z" fill="white"/>
<path d="M140.696 88.0963C145.339 88.0963 149.103 84.3229 149.103 79.6683C149.103 75.0136 145.339 71.2403 140.696 71.2403C136.053 71.2403 132.289 75.0136 132.289 79.6683C132.289 84.3229 136.053 88.0963 140.696 88.0963Z" fill="#61BB73"/>
<path d="M140.697 88.3878C135.885 88.3878 131.973 84.4653 131.973 79.6418C131.973 74.8182 135.885 70.8958 140.697 70.8958C145.508 70.8958 149.421 74.8182 149.421 79.6418C149.421 84.4653 145.508 88.3878 140.697 88.3878ZM140.697 71.5318C136.229 71.5318 132.607 75.1627 132.607 79.6418C132.607 84.1208 136.229 87.7517 140.697 87.7517C145.165 87.7517 148.786 84.1208 148.786 79.6418C148.786 75.1627 145.165 71.5318 140.697 71.5318Z" fill="white"/>
<path d="M137.469 153.612C142.112 153.612 145.876 149.839 145.876 145.184C145.876 140.529 142.112 136.756 137.469 136.756C132.826 136.756 129.062 140.529 129.062 145.184C129.062 149.839 132.826 153.612 137.469 153.612Z" fill="#54449D"/>
<path d="M137.47 153.903C132.659 153.903 128.746 149.981 128.746 145.157C128.746 140.334 132.659 136.411 137.47 136.411C142.282 136.411 146.194 140.334 146.194 145.157C146.194 149.981 142.282 153.903 137.47 153.903ZM137.47 137.048C133.002 137.048 129.381 140.678 129.381 145.157C129.381 149.636 133.002 153.267 137.47 153.267C141.938 153.267 145.56 149.636 145.56 145.157C145.56 140.678 141.938 137.048 137.47 137.048Z" fill="white"/>
<path d="M217.864 265.402C222.507 265.402 226.271 261.629 226.271 256.974C226.271 252.319 222.507 248.546 217.864 248.546C213.221 248.546 209.457 252.319 209.457 256.974C209.457 261.629 213.221 265.402 217.864 265.402Z" fill="#2E649E"/>
<path d="M217.865 265.72C213.053 265.72 209.141 261.798 209.141 256.974C209.141 252.15 213.053 248.228 217.865 248.228C222.676 248.228 226.589 252.15 226.589 256.974C226.589 261.798 222.676 265.72 217.865 265.72ZM217.865 248.864C213.397 248.864 209.775 252.495 209.775 256.974C209.775 261.453 213.397 265.084 217.865 265.084C222.333 265.084 225.954 261.453 225.954 256.974C225.954 252.495 222.333 248.864 217.865 248.864Z" fill="white"/>
<path d="M231.798 185.601C236.441 185.601 240.204 181.828 240.204 177.173C240.204 172.519 236.441 168.745 231.798 168.745C227.155 168.745 223.391 172.519 223.391 177.173C223.391 181.828 227.155 185.601 231.798 185.601Z" fill="#61BB73"/>
<path d="M231.798 185.919C226.987 185.919 223.074 181.997 223.074 177.173C223.074 172.35 226.987 168.427 231.798 168.427C236.61 168.427 240.523 172.35 240.523 177.173C240.523 181.997 236.61 185.919 231.798 185.919ZM231.798 169.063C227.331 169.063 223.709 172.694 223.709 177.173C223.709 181.652 227.331 185.283 231.798 185.283C236.266 185.283 239.888 181.652 239.888 177.173C239.888 172.694 236.266 169.063 231.798 169.063Z" fill="white"/>
<path d="M109.344 248.228C113.987 248.228 117.751 244.455 117.751 239.8C117.751 235.145 113.987 231.372 109.344 231.372C104.701 231.372 100.938 235.145 100.938 239.8C100.938 244.455 104.701 248.228 109.344 248.228Z" fill="#61BB73"/>
<path d="M109.341 248.519C104.53 248.519 100.617 244.597 100.617 239.773C100.617 234.95 104.53 231.027 109.341 231.027C114.153 231.027 118.065 234.95 118.065 239.773C118.065 244.597 114.153 248.519 109.341 248.519ZM109.341 231.664C104.874 231.664 101.252 235.294 101.252 239.773C101.252 244.252 104.874 247.883 109.341 247.883C113.809 247.883 117.431 244.252 117.431 239.773C117.431 235.294 113.809 231.664 109.341 231.664Z" fill="white"/>
<path d="M40.0241 177.173C44.6671 177.173 48.431 173.4 48.431 168.745C48.431 164.091 44.6671 160.317 40.0241 160.317C35.3811 160.317 31.6172 164.091 31.6172 168.745C31.6172 173.4 35.3811 177.173 40.0241 177.173Z" fill="#61BB73"/>
<path d="M40.0249 177.491C35.2134 177.491 31.3008 173.569 31.3008 168.745C31.3008 163.922 35.2134 159.999 40.0249 159.999C44.8364 159.999 48.7491 163.922 48.7491 168.745C48.7491 173.569 44.8364 177.491 40.0249 177.491ZM40.0249 160.635C35.5571 160.635 31.9353 164.266 31.9353 168.745C31.9353 173.224 35.5571 176.855 40.0249 176.855C44.4927 176.855 48.1146 173.224 48.1146 168.745C48.1146 164.266 44.4927 160.635 40.0249 160.635Z" fill="white"/>
<path d="M27.2819 73.1485C31.9249 73.1485 35.6888 69.3752 35.6888 64.7206C35.6888 60.0659 31.9249 56.2926 27.2819 56.2926C22.6389 56.2926 18.875 60.0659 18.875 64.7206C18.875 69.3752 22.6389 73.1485 27.2819 73.1485Z" fill="#61BB73"/>
<path d="M27.2827 73.4666C22.4712 73.4666 18.5586 69.5441 18.5586 64.7206C18.5586 59.897 22.4712 55.9745 27.2827 55.9745C32.0942 55.9745 36.0069 59.897 36.0069 64.7206C36.0069 69.5441 32.0942 73.4666 27.2827 73.4666ZM27.2827 56.6106C22.8149 56.6106 19.1931 60.2415 19.1931 64.7206C19.1931 69.1996 22.8149 72.8305 27.2827 72.8305C31.7505 72.8305 35.3724 69.1996 35.3724 64.7206C35.3724 60.2415 31.7505 56.6106 27.2827 56.6106Z" fill="white"/>
<path d="M253.688 79.6683C258.331 79.6683 262.095 75.8949 262.095 71.2403C262.095 66.5856 258.331 62.8123 253.688 62.8123C249.045 62.8123 245.281 66.5856 245.281 71.2403C245.281 75.8949 249.045 79.6683 253.688 79.6683Z" fill="#2E649E"/>
<path d="M253.689 79.9863C248.877 79.9863 244.965 76.0639 244.965 71.2403C244.965 66.4167 248.877 62.4943 253.689 62.4943C258.5 62.4943 262.413 66.4167 262.413 71.2403C262.413 76.0639 258.5 79.9863 253.689 79.9863ZM253.689 63.1304C249.221 63.1304 245.599 66.7613 245.599 71.2403C245.599 75.7193 249.221 79.3503 253.689 79.3503C258.157 79.3503 261.779 75.7193 261.779 71.2403C261.779 66.7613 258.157 63.1304 253.689 63.1304Z" fill="white"/>
<path d="M267.301 106.542C271.944 106.542 275.708 102.769 275.708 98.1144C275.708 93.4598 271.944 89.6865 267.301 89.6865C262.658 89.6865 258.895 93.4598 258.895 98.1144C258.895 102.769 262.658 106.542 267.301 106.542Z" fill="#61BB73"/>
<path d="M267.302 106.834C262.491 106.834 258.578 102.911 258.578 98.0879C258.578 93.2644 262.491 89.3419 267.302 89.3419C272.114 89.3419 276.026 93.2644 276.026 98.0879C276.026 102.911 272.114 106.834 267.302 106.834ZM267.302 89.978C262.834 89.978 259.213 93.6089 259.213 98.0879C259.213 102.567 262.834 106.198 267.302 106.198C271.77 106.198 275.392 102.567 275.392 98.0879C275.392 93.6089 271.77 89.978 267.302 89.978Z" fill="white"/>
<path d="M234.68 56.3191C239.323 56.3191 243.087 52.5457 243.087 47.8911C243.087 43.2364 239.323 39.4631 234.68 39.4631C230.037 39.4631 226.273 43.2364 226.273 47.8911C226.273 52.5457 230.037 56.3191 234.68 56.3191Z" fill="#61BB73"/>
<path d="M234.681 56.6106C229.87 56.6106 225.957 52.6881 225.957 47.8646C225.957 43.041 229.87 39.1186 234.681 39.1186C239.493 39.1186 243.405 43.041 243.405 47.8646C243.405 52.6881 239.493 56.6106 234.681 56.6106ZM234.681 39.7546C230.213 39.7546 226.592 43.3856 226.592 47.8646C226.592 52.3436 230.213 55.9745 234.681 55.9745C239.149 55.9745 242.771 52.3436 242.771 47.8646C242.771 43.3856 239.149 39.7546 234.681 39.7546Z" fill="white"/>
<path d="M69.0668 116.438L74.3711 128.721L86.6227 123.403L81.3184 111.121L69.0668 116.438Z" fill="#2E649E"/>
<path d="M74.1806 129.123L74.0484 128.832L68.6289 116.269L68.9197 116.137L81.4507 110.703L81.5829 110.995L87.0025 123.557L86.7117 123.69L74.1806 129.123ZM69.4485 116.614L74.4979 128.301L86.1565 123.239L81.1071 111.552L69.4485 116.614Z" fill="white"/>
<path d="M146.76 8.50996L154.824 19.1764L165.464 11.0919L157.4 0.425417L146.76 8.50996Z" fill="#2E649E"/>
<path d="M154.761 19.6123L154.576 19.3737L146.328 8.48098L146.566 8.29545L157.432 0.0264893L157.617 0.265017L165.865 11.1578L165.627 11.3433L154.735 19.6123H154.761ZM147.201 8.58699L154.867 18.7377L164.992 11.0518L157.326 0.901091L147.201 8.58699Z" fill="white"/>
<path d="M21.9995 217.734L20.0469 230.974L33.2539 232.932L35.2065 219.692L21.9995 217.734Z" fill="#2E649E"/>
<path d="M33.5217 233.28L19.6953 231.239L21.7309 217.405L35.5574 219.446L33.5217 233.307V233.28ZM20.4091 230.709L32.993 232.565L34.8436 219.949L22.2597 218.094L20.4091 230.709Z" fill="white"/>
<path d="M172.34 238.751L184.812 243.526L189.575 231.023L177.103 226.248L172.34 238.751Z" fill="#2E649E"/>
<path d="M185.005 243.934L184.714 243.828L171.945 238.952L172.051 238.66L176.915 225.886L177.206 225.992L189.949 230.868L189.843 231.16L184.979 243.934H185.005ZM172.765 238.581L184.635 243.113L189.156 231.213L177.286 226.681L172.738 238.581H172.765Z" fill="white"/>
<path d="M147.148 172.032C145.588 172.032 143.976 171.873 142.31 171.555C135.331 170.229 128.272 166.28 122.403 160.397C110.269 148.258 107.176 131.588 115.477 123.239C123.778 114.891 140.407 118.018 152.541 130.183C164.676 142.348 167.769 158.992 159.468 167.341C156.374 170.441 152.118 172.032 147.148 172.032ZM127.849 119.237C123.17 119.237 119.019 120.695 115.979 123.716C107.942 131.773 111.035 148.02 122.906 159.893C134.776 171.767 150.955 174.894 159.018 166.837C162.904 162.941 164.332 157.057 163.037 150.246C161.741 143.382 157.855 136.438 152.092 130.66C144.689 123.239 135.595 119.237 127.849 119.237Z" fill="#61BB73"/>
<path d="M127.717 171.899C122.879 171.899 118.517 170.388 115.371 167.235C107.07 158.913 110.163 142.242 122.298 130.077C134.406 117.939 151.035 114.811 159.362 123.133C167.663 131.455 164.57 148.126 152.436 160.291C144.901 167.844 135.648 171.899 127.717 171.899ZM147.016 119.131C139.27 119.131 130.176 123.133 122.774 130.554C110.903 142.454 107.81 158.674 115.847 166.757C123.884 174.814 140.09 171.714 151.933 159.814C163.777 147.914 166.897 131.694 158.86 123.61C155.846 120.589 151.669 119.131 146.99 119.131H147.016Z" fill="#61BB73"/>
</g>
<defs>
<clipPath id="clip0_3956_5593">
<rect width="276" height="283" fill="white"/>
</clipPath>
</defs>
</svg>
