<svg width="378" height="387" viewBox="0 0 378 387" fill="none" xmlns="http://www.w3.org/2000/svg">
<g clip-path="url(#clip0_763_76)">
<path d="M185.198 385.695C185.198 384.97 185.814 384.427 186.502 384.427H186.538C187.226 384.427 187.805 385.007 187.805 385.731C187.805 386.42 187.19 387 186.502 387C185.778 387 185.198 386.42 185.198 385.695ZM192.078 385.695C192.078 384.97 192.621 384.391 193.345 384.354C194.033 384.354 194.648 384.898 194.648 385.623C194.684 386.311 194.105 386.927 193.417 386.927C192.693 386.927 192.15 386.384 192.114 385.695H192.078ZM179.586 386.819C178.862 386.819 178.319 386.166 178.355 385.478C178.355 384.753 178.971 384.209 179.695 384.209C180.383 384.282 180.962 384.862 180.926 385.586C180.926 386.275 180.31 386.819 179.622 386.819H179.586ZM198.957 385.442C198.957 384.717 199.464 384.101 200.152 384.064C200.876 383.992 201.455 384.535 201.528 385.26C201.528 385.949 201.021 386.565 200.333 386.638H200.224C199.536 386.638 198.993 386.094 198.957 385.442ZM172.671 386.384C171.947 386.311 171.44 385.695 171.476 384.97C171.548 384.282 172.164 383.738 172.888 383.811C173.576 383.847 174.119 384.463 174.047 385.188C174.047 385.84 173.431 386.384 172.779 386.384H172.671ZM205.8 384.898C205.728 384.209 206.234 383.557 206.959 383.484C207.647 383.412 208.298 383.956 208.371 384.644C208.443 385.369 207.936 385.985 207.212 386.058H207.067C206.415 386.058 205.872 385.586 205.8 384.898ZM165.791 385.695C165.067 385.586 164.597 384.97 164.669 384.246C164.741 383.521 165.393 383.013 166.081 383.122C166.805 383.194 167.312 383.847 167.24 384.535C167.131 385.224 166.588 385.695 165.936 385.695H165.791ZM212.643 384.137C212.534 383.448 213.005 382.796 213.729 382.687C214.453 382.615 215.069 383.086 215.178 383.811C215.286 384.499 214.779 385.152 214.091 385.26H213.91C213.259 385.26 212.715 384.789 212.643 384.137ZM158.948 384.717C158.224 384.608 157.753 383.956 157.862 383.267C157.971 382.542 158.622 382.071 159.347 382.18C160.034 382.288 160.505 382.941 160.397 383.666C160.288 384.282 159.745 384.753 159.129 384.753C159.129 384.753 159.021 384.753 158.948 384.717ZM219.414 383.122C219.305 382.433 219.776 381.781 220.464 381.636C221.152 381.527 221.84 381.998 221.984 382.687C222.093 383.376 221.622 384.064 220.898 384.173C220.898 384.173 220.79 384.173 220.681 384.173C220.066 384.173 219.522 383.738 219.414 383.086V383.122ZM152.141 383.521C151.417 383.412 150.983 382.723 151.091 382.035C151.236 381.31 151.924 380.875 152.612 380.984C153.3 381.129 153.771 381.817 153.626 382.506C153.517 383.122 152.974 383.557 152.395 383.557C152.395 383.557 152.214 383.557 152.141 383.521ZM226.184 381.854C226.04 381.165 226.474 380.513 227.162 380.331C227.85 380.186 228.538 380.621 228.683 381.346C228.864 382.035 228.393 382.723 227.705 382.868C227.705 382.868 227.524 382.868 227.452 382.868C226.836 382.868 226.329 382.433 226.184 381.817V381.854ZM145.371 382.107C144.683 381.926 144.248 381.237 144.393 380.549C144.574 379.86 145.262 379.425 145.95 379.57C146.638 379.751 147.072 380.44 146.891 381.129C146.783 381.709 146.24 382.107 145.66 382.107H145.371ZM232.883 380.368C232.702 379.679 233.136 378.954 233.824 378.809C234.512 378.628 235.2 379.027 235.381 379.715C235.562 380.404 235.128 381.129 234.44 381.274C234.44 381.274 234.222 381.346 234.114 381.346C233.534 381.346 233.028 380.947 232.883 380.368ZM138.636 380.404C137.948 380.186 137.55 379.498 137.731 378.809C137.948 378.12 138.636 377.722 139.324 377.903C140.012 378.084 140.41 378.809 140.229 379.498C140.084 380.041 139.578 380.44 138.998 380.44C138.998 380.44 138.781 380.44 138.636 380.44V380.404ZM239.509 378.592C239.328 377.903 239.726 377.214 240.378 376.997C241.102 376.816 241.79 377.214 242.007 377.867C242.188 378.555 241.79 379.28 241.138 379.498C241.138 379.498 240.884 379.498 240.776 379.498C240.197 379.498 239.69 379.135 239.509 378.555V378.592ZM132.01 378.447C131.322 378.229 130.96 377.504 131.178 376.852C131.359 376.163 132.119 375.765 132.771 375.982C133.459 376.2 133.821 376.924 133.64 377.613C133.459 378.157 132.952 378.519 132.409 378.519C132.409 378.519 132.155 378.519 132.01 378.447ZM246.098 376.598C245.881 375.91 246.243 375.185 246.895 374.967C247.583 374.75 248.307 375.112 248.56 375.801C248.778 376.453 248.379 377.178 247.728 377.432C247.728 377.432 247.438 377.432 247.329 377.432C246.786 377.432 246.279 377.106 246.098 376.562V376.598ZM125.421 376.272C124.769 376.018 124.407 375.294 124.66 374.605C124.878 373.916 125.602 373.59 126.29 373.808C126.978 374.061 127.303 374.786 127.086 375.475C126.869 375.982 126.398 376.345 125.855 376.345C125.855 376.345 125.566 376.345 125.421 376.272ZM252.579 374.351C252.326 373.699 252.688 372.938 253.34 372.684C254.028 372.43 254.752 372.793 255.005 373.445C255.259 374.134 254.897 374.859 254.245 375.112C254.245 375.112 253.955 375.185 253.81 375.185C253.267 375.185 252.797 374.859 252.579 374.351ZM118.94 373.808C118.252 373.554 117.962 372.793 118.216 372.14C118.469 371.488 119.229 371.162 119.881 371.416C120.533 371.669 120.859 372.43 120.605 373.083C120.424 373.59 119.917 373.916 119.41 373.916C119.41 373.916 119.084 373.916 118.94 373.808ZM258.988 371.85C258.734 371.198 258.988 370.437 259.676 370.183C260.364 369.893 261.124 370.183 261.378 370.872C261.667 371.524 261.378 372.285 260.69 372.575C260.69 372.575 260.364 372.648 260.183 372.648C259.676 372.648 259.205 372.358 258.988 371.85ZM112.531 371.126C111.879 370.836 111.59 370.075 111.879 369.422C112.169 368.77 112.929 368.48 113.581 368.77C114.233 369.06 114.522 369.821 114.233 370.473C114.016 370.944 113.545 371.234 113.038 371.234C113.038 371.234 112.712 371.234 112.531 371.126ZM265.288 369.132C264.998 368.516 265.288 367.719 265.94 367.429C266.591 367.139 267.352 367.429 267.641 368.081C267.931 368.697 267.678 369.495 267.026 369.785C267.026 369.785 266.664 369.893 266.483 369.893C266.012 369.893 265.541 369.603 265.288 369.132ZM106.231 368.226C105.616 367.936 105.326 367.139 105.652 366.487C105.941 365.87 106.738 365.581 107.353 365.907C108.005 366.233 108.259 366.994 107.969 367.61C107.752 368.081 107.281 368.371 106.81 368.371C106.81 368.371 106.412 368.299 106.231 368.226ZM271.516 366.197C271.19 365.544 271.443 364.783 272.095 364.457C272.71 364.131 273.507 364.384 273.833 365.037C274.159 365.653 273.869 366.45 273.253 366.74C273.253 366.74 272.855 366.885 272.674 366.885C272.203 366.885 271.733 366.632 271.516 366.197ZM100.076 365.073C99.4241 364.747 99.2069 363.95 99.5328 363.333C99.8586 362.717 100.655 362.464 101.271 362.79C101.886 363.152 102.14 363.913 101.814 364.529C101.56 365.001 101.126 365.254 100.655 365.254C100.438 365.254 100.257 365.182 100.076 365.073ZM277.598 363.007C277.272 362.391 277.49 361.594 278.105 361.268C278.721 360.905 279.517 361.159 279.879 361.775C280.205 362.391 279.988 363.152 279.372 363.515C279.155 363.623 278.938 363.696 278.757 363.696C278.286 363.696 277.852 363.442 277.598 363.007ZM93.9931 361.739C93.3776 361.376 93.1603 360.579 93.5224 359.963C93.8845 359.347 94.681 359.129 95.2965 359.492C95.9121 359.854 96.1293 360.615 95.7672 361.268C95.5138 361.666 95.0793 361.884 94.6448 361.884C94.4276 361.884 94.2103 361.884 93.9931 361.739ZM283.572 359.6C283.21 359.021 283.428 358.223 284.007 357.861C284.622 357.462 285.419 357.68 285.817 358.296C286.179 358.912 285.962 359.673 285.347 360.072C285.165 360.18 284.912 360.253 284.695 360.253C284.26 360.253 283.826 359.999 283.572 359.6ZM88.0914 358.115C87.4759 357.752 87.2948 356.955 87.6569 356.339C88.0552 355.759 88.8517 355.578 89.431 355.94C90.0465 356.339 90.2276 357.1 89.8655 357.716C89.6121 358.115 89.1776 358.332 88.7431 358.332C88.5259 358.332 88.2724 358.259 88.0914 358.115ZM289.438 356.012C289.04 355.396 289.221 354.599 289.8 354.2C290.379 353.838 291.212 353.983 291.574 354.563C291.972 355.179 291.791 355.976 291.212 356.375C290.995 356.52 290.741 356.592 290.524 356.592C290.09 356.592 289.691 356.375 289.438 356.012ZM82.2983 354.345H82.2621C81.6827 353.91 81.5379 353.113 81.9362 352.533C82.3345 351.953 83.1672 351.808 83.7465 352.207C84.3259 352.606 84.4707 353.403 84.0724 353.983C83.819 354.345 83.4207 354.563 82.9862 354.563C82.769 354.563 82.5155 354.49 82.2983 354.345ZM295.122 352.171C294.724 351.591 294.869 350.793 295.448 350.359C296.028 349.96 296.824 350.105 297.259 350.685C297.657 351.265 297.512 352.062 296.933 352.461C296.716 352.642 296.462 352.714 296.209 352.714C295.774 352.714 295.376 352.533 295.122 352.171ZM76.65 350.322C76.0707 349.887 75.9621 349.09 76.3603 348.51C76.7948 347.93 77.5914 347.822 78.1707 348.256C78.75 348.655 78.8586 349.489 78.4603 350.032C78.2069 350.395 77.8086 350.576 77.4103 350.576C77.1207 350.576 76.8672 350.504 76.65 350.322ZM71.1465 346.118C70.6034 345.647 70.4948 344.85 70.9293 344.306C71.3638 343.726 72.1965 343.654 72.7396 344.089C73.319 344.523 73.3914 345.357 72.9569 345.901C72.7034 346.227 72.3414 346.372 71.9431 346.372C71.6534 346.372 71.3638 346.299 71.1465 346.118ZM65.7879 341.697C65.2448 341.225 65.2086 340.428 65.6793 339.884C66.1138 339.341 66.9465 339.268 67.4896 339.739C68.0328 340.211 68.069 341.008 67.6345 341.552C67.381 341.842 67.019 341.986 66.6207 341.986C66.331 341.986 66.0414 341.914 65.7879 341.697ZM60.6465 337.094C60.1034 336.623 60.0672 335.789 60.5741 335.282C61.0448 334.738 61.8776 334.702 62.3845 335.209C62.8914 335.68 62.9276 336.514 62.4569 337.021C62.2034 337.311 61.8414 337.42 61.5155 337.42C61.1897 337.42 60.8638 337.311 60.6465 337.094ZM55.65 332.31C55.1431 331.802 55.1431 330.969 55.65 330.498C56.1569 329.954 56.9897 329.954 57.4965 330.498C58.0034 331.005 58.0034 331.839 57.4965 332.346C57.2431 332.6 56.9172 332.708 56.5914 332.708C56.2655 332.708 55.9397 332.6 55.6862 332.346L55.65 332.31ZM50.7983 327.344C50.3276 326.837 50.3638 326.003 50.8707 325.532C51.3776 325.025 52.2103 325.061 52.7172 325.569C53.1879 326.112 53.1517 326.909 52.6448 327.417C52.3914 327.634 52.0655 327.743 51.7759 327.743C51.4138 327.743 51.0517 327.634 50.7983 327.344ZM46.2 322.198C45.7293 321.654 45.7655 320.857 46.3086 320.386C46.8517 319.915 47.6483 319.987 48.119 320.531C48.5897 321.038 48.5534 321.872 48.0103 322.343C47.7569 322.524 47.4672 322.633 47.1414 322.633C46.7793 322.633 46.4172 322.488 46.2 322.198ZM41.7465 316.907C41.3121 316.327 41.3845 315.529 41.9276 315.094C42.4707 314.659 43.3034 314.732 43.7379 315.276C44.1724 315.819 44.1 316.653 43.5569 317.088C43.3034 317.269 43.0138 317.378 42.7241 317.378C42.3621 317.378 42 317.233 41.7465 316.907ZM37.4741 311.434C37.0759 310.89 37.1845 310.057 37.7638 309.622C38.3069 309.223 39.1397 309.332 39.5741 309.875C39.9724 310.455 39.8638 311.289 39.2845 311.688C39.0672 311.869 38.7776 311.941 38.5241 311.941C38.1259 311.941 37.7638 311.76 37.4741 311.434ZM33.4552 305.816C33.0569 305.236 33.2017 304.439 33.781 304.04C34.3603 303.642 35.1569 303.787 35.5552 304.367C35.9534 304.946 35.8086 305.744 35.1931 306.142C34.9759 306.324 34.7224 306.396 34.469 306.396C34.0707 306.396 33.6724 306.179 33.419 305.816H33.4552ZM29.6172 300.09C29.219 299.474 29.4 298.676 30.0155 298.314C30.5948 297.915 31.3914 298.097 31.7897 298.676C32.1517 299.293 32.0069 300.09 31.3914 300.452C31.1741 300.597 30.9569 300.67 30.7034 300.67C30.269 300.67 29.8707 300.452 29.6172 300.09ZM25.9965 294.182C25.6345 293.566 25.8517 292.769 26.4672 292.406C27.0828 292.044 27.8431 292.261 28.2052 292.878C28.5672 293.494 28.3862 294.255 27.7707 294.653C27.5534 294.762 27.3362 294.835 27.119 294.835C26.6845 294.835 26.25 294.581 25.9965 294.182ZM22.5931 288.166C22.2672 287.55 22.4845 286.753 23.1 286.426C23.7517 286.064 24.5121 286.318 24.8741 286.934C25.2 287.55 24.9828 288.347 24.331 288.673C24.331 288.673 23.9328 288.855 23.7155 288.855C23.281 288.855 22.8465 288.601 22.5931 288.166ZM19.4431 282.041C19.1534 281.389 19.4431 280.628 20.0586 280.301C20.6741 279.975 21.4707 280.301 21.7603 280.881C22.0862 281.534 21.8328 282.295 21.181 282.621C21.181 282.621 20.819 282.766 20.6017 282.766C20.131 282.766 19.6966 282.476 19.4793 282.041H19.4431ZM16.4741 275.771C16.1845 275.155 16.4741 274.394 17.1259 274.068C17.7776 273.778 18.5379 274.068 18.8276 274.72C19.1172 275.372 18.8276 276.133 18.1759 276.423C17.9948 276.496 17.8138 276.532 17.669 276.532C17.1621 276.532 16.6914 276.278 16.4741 275.771ZM13.7586 269.429C13.5052 268.776 13.7948 268.015 14.4828 267.761C15.1345 267.508 15.8948 267.761 16.1483 268.45C16.4017 269.139 16.0759 269.863 15.4241 270.153C15.4241 270.153 15.0983 270.226 14.9534 270.226C14.4466 270.226 13.9759 269.936 13.7586 269.429ZM11.2603 262.977C11.0431 262.289 11.369 261.564 12.0569 261.31C12.7086 261.056 13.469 261.419 13.6862 262.107C13.9397 262.76 13.6138 263.521 12.9259 263.738C12.9259 263.738 12.6362 263.811 12.4914 263.811C11.9483 263.811 11.4776 263.485 11.2603 262.977ZM9.01552 256.417C8.79827 255.765 9.16034 255.04 9.81207 254.823C10.5 254.605 11.2241 254.968 11.4414 255.62C11.6586 256.309 11.2966 257.034 10.6086 257.251C10.6086 257.251 10.3552 257.323 10.2103 257.323C9.66724 257.323 9.16034 256.961 8.97931 256.417H9.01552ZM7.02414 249.785C6.8431 249.096 7.24138 248.408 7.92931 248.19C8.61724 248.009 9.30517 248.408 9.52241 249.096C9.70345 249.785 9.30517 250.51 8.61724 250.691C8.61724 250.691 8.4 250.691 8.25517 250.691C7.71207 250.691 7.20517 250.329 7.02414 249.749V249.785ZM5.28621 243.08C5.10517 242.391 5.53965 241.703 6.22759 241.558C6.91552 241.377 7.60345 241.812 7.78448 242.5C7.92931 243.189 7.53103 243.877 6.8431 244.059C6.8431 244.059 6.62586 244.059 6.51724 244.059C5.93793 244.059 5.43103 243.66 5.28621 243.044V243.08ZM3.76552 236.339C3.62069 235.65 4.09138 234.962 4.77931 234.817C5.46724 234.672 6.15517 235.143 6.3 235.831C6.44483 236.52 5.97414 237.209 5.28621 237.354H5.03276C4.41724 237.354 3.91034 236.955 3.76552 236.339ZM2.53448 229.525C2.42586 228.837 2.89655 228.148 3.62069 228.039C4.30862 227.931 4.96034 228.402 5.10517 229.09C5.21379 229.815 4.7431 230.468 4.01897 230.576C4.01897 230.576 3.87414 230.576 3.80172 230.576C3.18621 230.576 2.6431 230.105 2.57069 229.489L2.53448 229.525ZM1.52069 222.675C1.41207 221.987 1.91897 221.334 2.6431 221.226C3.33103 221.153 3.98276 221.661 4.05517 222.349C4.16379 223.038 3.6569 223.69 2.96897 223.799H2.78793C2.13621 223.799 1.5931 223.328 1.52069 222.675ZM0.760345 215.789C0.687931 215.101 1.23103 214.448 1.91897 214.412C2.6431 214.34 3.25862 214.847 3.33103 215.572C3.40345 216.26 2.86034 216.913 2.17241 216.949C2.17241 216.949 2.06379 216.985 2.02759 216.985C1.37586 216.985 0.832759 216.478 0.760345 215.789ZM0.253448 208.903C0.253448 208.178 0.760345 207.562 1.48448 207.526C2.17241 207.526 2.78793 208.033 2.82414 208.758C2.82414 209.483 2.31724 210.063 1.62931 210.099H1.5569C0.868966 210.099 0.289655 209.592 0.253448 208.903ZM0 201.981C0 201.256 0.57931 200.676 1.26724 200.676C1.99138 200.64 2.57069 201.22 2.6069 201.908C2.6069 202.633 2.02759 203.213 1.30345 203.249C0.57931 203.249 0.0362069 202.669 0 201.981ZM1.26724 196.363C0.57931 196.363 0 195.747 0 195.022C0 194.334 0.615517 193.754 1.30345 193.79C2.02759 193.79 2.6069 194.37 2.6069 195.095C2.6069 195.783 2.02759 196.363 1.30345 196.363H1.26724ZM1.48448 189.477C0.760345 189.477 0.217241 188.825 0.253448 188.1C0.253448 187.411 0.905172 186.868 1.62931 186.904C2.31724 186.94 2.86034 187.52 2.82414 188.245C2.82414 188.933 2.20862 189.477 1.5569 189.477H1.48448ZM1.91897 182.591C1.23103 182.591 0.687931 181.902 0.760345 181.214C0.832759 180.489 1.44828 179.981 2.17241 180.054C2.86034 180.054 3.40345 180.743 3.33103 181.431C3.25862 182.12 2.71552 182.627 2.06379 182.627C2.06379 182.627 1.95517 182.627 1.91897 182.627V182.591ZM2.6431 175.741C1.91897 175.669 1.41207 175.016 1.52069 174.328C1.5931 173.603 2.24483 173.095 2.96897 173.204C3.6569 173.277 4.16379 173.929 4.09138 174.654C3.98276 175.306 3.43965 175.777 2.78793 175.777C2.78793 175.777 2.67931 175.777 2.6431 175.741ZM3.58448 168.964C2.89655 168.819 2.38965 168.166 2.53448 167.478C2.6431 166.753 3.29483 166.282 4.01897 166.39C4.7069 166.535 5.17759 167.188 5.06896 167.876C4.96034 168.529 4.41724 168.964 3.80172 168.964H3.58448ZM4.77931 162.186C4.09138 162.041 3.6569 161.353 3.76552 160.628C3.91034 159.939 4.59828 159.504 5.28621 159.649C6.01034 159.794 6.44483 160.483 6.3 161.171C6.19138 161.788 5.64828 162.186 5.03276 162.186H4.77931ZM6.22759 155.445C5.53965 155.3 5.14138 154.575 5.28621 153.887C5.46724 153.198 6.15517 152.763 6.8431 152.944C7.53103 153.089 7.96552 153.814 7.78448 154.503C7.63966 155.083 7.13276 155.481 6.55345 155.481C6.55345 155.481 6.33621 155.481 6.22759 155.481V155.445ZM7.92931 148.776C7.24138 148.595 6.8431 147.87 7.06034 147.182C7.27759 146.493 7.96552 146.094 8.65345 146.312C9.34138 146.493 9.77586 147.218 9.55862 147.907C9.41379 148.45 8.87069 148.813 8.32759 148.813C8.32759 148.813 8.07414 148.813 7.96552 148.813L7.92931 148.776ZM9.88448 142.18C9.19655 141.963 8.83448 141.238 9.05172 140.549C9.26896 139.897 9.9931 139.498 10.681 139.716C11.3328 139.933 11.731 140.658 11.5138 141.347C11.3328 141.89 10.8259 142.253 10.2828 142.253C10.2828 142.253 10.0293 142.216 9.88448 142.18ZM12.0569 135.657C11.4052 135.403 11.0431 134.678 11.2966 133.989C11.55 133.337 12.2741 132.975 12.9621 133.228C13.6138 133.482 13.9759 134.207 13.7224 134.895C13.5052 135.403 13.0345 135.729 12.4914 135.729C12.4914 135.729 12.2017 135.729 12.0569 135.657ZM14.4828 129.205C13.831 128.952 13.5052 128.191 13.7948 127.538C14.0483 126.886 14.8086 126.56 15.4603 126.85C16.1121 127.103 16.4379 127.864 16.1845 128.517C15.9672 129.024 15.4966 129.314 14.9897 129.314C14.8086 129.314 14.6638 129.314 14.4828 129.205ZM17.1621 122.863C16.5103 122.573 16.2207 121.812 16.5103 121.159C16.8 120.543 17.5603 120.253 18.2121 120.543C18.8638 120.833 19.1534 121.594 18.8638 122.247C18.6466 122.718 18.1759 123.008 17.669 123.008C17.669 123.008 17.3431 123.008 17.1621 122.863ZM20.0586 116.629C19.4069 116.339 19.1534 115.542 19.4793 114.926C19.769 114.273 20.5655 114.02 21.181 114.346C21.8328 114.636 22.0862 115.433 21.7966 116.049H21.7603C21.5431 116.52 21.1086 116.774 20.6017 116.774C20.6017 116.774 20.2397 116.774 20.0586 116.629ZM23.1724 110.504C22.5569 110.178 22.3034 109.381 22.6655 108.764C22.9914 108.148 23.7879 107.895 24.4034 108.257C25.019 108.583 25.2724 109.381 24.9103 109.997C24.6931 110.432 24.2586 110.685 23.7879 110.685C23.5707 110.685 23.3534 110.613 23.1724 110.504ZM26.5397 104.524C25.9241 104.162 25.7069 103.364 26.069 102.748C26.431 102.132 27.2276 101.915 27.8431 102.277C28.4586 102.639 28.6397 103.437 28.2776 104.053C28.0603 104.452 27.6259 104.705 27.1914 104.705C26.9379 104.705 26.7207 104.633 26.5397 104.524ZM30.0879 98.6165C29.5086 98.254 29.3276 97.4567 29.6897 96.8406C30.0879 96.2245 30.8845 96.0795 31.4638 96.4419C32.0793 96.8406 32.2603 97.6379 31.8621 98.2178C31.6086 98.6165 31.2103 98.8339 30.7759 98.8339C30.5586 98.8339 30.3052 98.7614 30.0879 98.6165ZM33.8534 92.8901C33.2741 92.4552 33.1293 91.6579 33.5276 91.078C33.9621 90.4981 34.7586 90.3531 35.3379 90.7518C35.9172 91.1505 36.0621 91.9841 35.6638 92.5639C35.4103 92.9264 35.0121 93.1076 34.6138 93.1076C34.3241 93.1076 34.0707 93.0351 33.8534 92.8901Z" fill="white"/>
<path d="M296.535 351.917L295.847 350.939C345.197 315.964 374.669 258.991 374.669 198.538C374.669 175.415 370.505 152.872 362.286 131.525L363.409 131.09C371.664 152.582 375.864 175.306 375.864 198.538C375.864 259.389 346.21 316.725 296.498 351.917H296.535Z" fill="white"/>
<path d="M362.286 131.489C337.81 67.8825 280.82 22.7241 213.476 13.6272L213.62 12.4312C281.364 21.6006 338.751 67.049 363.372 131.054L362.25 131.489H362.286Z" fill="white"/>
<path d="M37.4379 88.5772L36.75 88.0698C37.5828 86.91 38.4517 85.7502 39.3207 84.6267L40.0086 85.1341C39.1397 86.2576 38.3069 87.4174 37.4379 88.5772ZM44.281 79.7702L43.6293 79.2265C44.5345 78.103 45.4759 77.0157 46.4172 75.9284L47.069 76.4721C46.1276 77.5594 45.2224 78.6466 44.3172 79.7339L44.281 79.7702ZM51.631 71.3981L51.0155 70.8182C51.9931 69.7672 52.9707 68.7161 53.9845 67.7013L54.6 68.3175C53.6224 69.3323 52.6086 70.3833 51.631 71.4343V71.3981ZM59.4517 63.4609L58.8724 62.8448C59.9224 61.8663 60.9724 60.8877 62.0224 59.9092L62.6017 60.5615C61.5517 61.5401 60.5017 62.4824 59.4517 63.4972V63.4609ZM67.7431 55.9949L67.2 55.3426C68.2862 54.4003 69.4086 53.4942 70.531 52.5881L71.0741 53.2405C69.9517 54.1465 68.8655 55.0526 67.7793 55.9949H67.7431ZM76.4328 49.0363L75.9259 48.3477C77.0845 47.4779 78.2431 46.6443 79.4017 45.8107L79.9086 46.4993C78.75 47.3329 77.5914 48.1665 76.4328 49.0363ZM85.5207 42.6214L85.05 41.8965C86.2448 41.0992 87.4397 40.3381 88.6707 39.577L89.1414 40.3018C87.9466 41.0629 86.7155 41.824 85.5569 42.6214H85.5207ZM95.0069 36.75L94.5724 35.9889C95.8035 35.2641 97.0707 34.5755 98.3379 33.8869L98.7362 34.648C97.469 35.3366 96.2379 36.0252 95.0069 36.75ZM104.819 31.4586L104.421 30.6975C105.688 30.0451 106.991 29.429 108.295 28.8129L108.657 29.574C107.353 30.1901 106.086 30.8062 104.819 31.4586ZM114.921 26.7833L114.595 25.9859C115.898 25.4061 117.238 24.8624 118.578 24.3188L118.903 25.1161C117.564 25.6598 116.26 26.2034 114.957 26.747L114.921 26.7833ZM125.276 22.7241L124.986 21.9268C126.326 21.4556 127.702 20.9844 129.041 20.5133L129.295 21.3106C127.955 21.7455 126.579 22.2167 125.24 22.7241H125.276ZM135.848 19.281L135.595 18.4475C136.971 18.0488 138.347 17.6501 139.722 17.2877L139.94 18.1213C138.564 18.4837 137.188 18.8824 135.812 19.281H135.848ZM146.602 16.4903L146.421 15.6568C147.797 15.3306 149.209 15.0406 150.621 14.7507L150.802 15.5843C149.39 15.8742 148.014 16.1642 146.638 16.4903H146.602ZM157.5 14.352L157.355 13.5184C158.767 13.301 160.179 13.0835 161.628 12.8661L161.736 13.6997C160.324 13.9171 158.912 14.1346 157.5 14.352ZM213.548 13.5184L213.005 13.446L213.114 12.6124L213.621 12.6849L213.512 13.5547L213.548 13.5184ZM168.543 12.8661L168.434 11.9962C169.847 11.8513 171.295 11.7063 172.707 11.5976L172.779 12.4674C171.367 12.5761 169.919 12.7211 168.507 12.8661H168.543ZM206.198 12.6849C204.786 12.5399 203.374 12.4312 201.926 12.3224L201.998 11.4526C203.447 11.5613 204.859 11.6701 206.271 11.815L206.198 12.6849ZM179.659 12.0325V11.1627C181.034 11.0902 182.483 11.0539 183.931 11.0177V11.8875C182.519 11.8875 181.107 11.96 179.659 12.0325ZM195.083 11.96C193.671 11.9238 192.222 11.8875 190.81 11.8513V10.9814C192.259 10.9814 193.707 11.0177 195.119 11.0902V11.96H195.083Z" fill="white"/>
<path d="M187.082 335.499C187.082 334.81 187.661 334.231 188.349 334.231C189.073 334.231 189.652 334.81 189.652 335.499C189.652 336.224 189.073 336.804 188.349 336.804C187.661 336.804 187.082 336.224 187.082 335.499ZM181.433 336.623C180.745 336.623 180.166 336.006 180.202 335.282C180.202 334.557 180.854 334.013 181.578 334.049C182.266 334.049 182.809 334.702 182.773 335.39C182.773 336.115 182.194 336.623 181.506 336.623H181.433ZM193.961 335.39C193.961 334.702 194.468 334.086 195.156 334.049C195.88 334.049 196.495 334.557 196.532 335.282C196.532 335.97 196.025 336.586 195.3 336.623H195.228C194.54 336.623 193.997 336.079 193.961 335.39ZM173.359 334.702C173.432 334.013 174.047 333.506 174.771 333.542C175.495 333.614 176.002 334.267 175.93 334.955C175.857 335.68 175.242 336.188 174.518 336.115C173.794 336.043 173.287 335.427 173.359 334.702ZM200.804 334.955C200.732 334.231 201.238 333.614 201.963 333.542C202.65 333.469 203.302 333.977 203.375 334.702C203.447 335.39 202.94 336.043 202.216 336.115H202.071C201.419 336.115 200.876 335.608 200.804 334.955ZM167.638 335.282C166.95 335.173 166.444 334.521 166.552 333.796C166.661 333.107 167.313 332.6 168.037 332.708C168.725 332.817 169.195 333.469 169.123 334.194C169.014 334.81 168.471 335.282 167.819 335.282H167.638ZM207.647 334.158C207.538 333.433 208.009 332.817 208.697 332.708C209.421 332.6 210.073 333.071 210.182 333.759C210.29 334.484 209.783 335.137 209.095 335.245H208.878C208.263 335.245 207.719 334.81 207.647 334.158ZM160.795 334.086C160.107 333.941 159.673 333.252 159.818 332.563C159.963 331.875 160.614 331.404 161.338 331.549C162.026 331.694 162.461 332.346 162.316 333.071C162.207 333.687 161.664 334.086 161.049 334.086H160.795ZM214.418 333.035C214.273 332.31 214.707 331.657 215.432 331.512C216.156 331.367 216.844 331.802 216.988 332.491C217.097 333.216 216.663 333.904 215.975 334.013C215.975 334.013 215.794 334.013 215.721 334.013C215.106 334.013 214.563 333.578 214.454 332.998L214.418 333.035ZM154.061 332.527C153.373 332.346 152.938 331.657 153.119 330.969C153.3 330.28 153.988 329.845 154.676 330.026C155.364 330.208 155.799 330.896 155.618 331.585C155.473 332.165 154.93 332.563 154.35 332.563C154.35 332.563 154.133 332.563 154.061 332.563V332.527ZM221.116 331.549C220.935 330.86 221.369 330.171 222.057 329.99C222.745 329.809 223.433 330.208 223.614 330.932C223.795 331.585 223.361 332.31 222.673 332.491C222.673 332.491 222.456 332.527 222.347 332.527C221.804 332.527 221.261 332.128 221.116 331.549ZM147.363 330.643C146.675 330.425 146.313 329.7 146.53 329.012C146.711 328.359 147.435 327.961 148.123 328.178C148.811 328.395 149.173 329.12 148.992 329.773C148.811 330.353 148.304 330.715 147.761 330.715C147.761 330.715 147.471 330.679 147.363 330.643ZM227.742 329.736C227.525 329.048 227.923 328.323 228.575 328.106C229.263 327.924 229.987 328.287 230.204 328.975C230.421 329.664 230.023 330.389 229.371 330.606C229.371 330.606 229.118 330.606 228.973 330.606C228.43 330.606 227.923 330.244 227.742 329.7V329.736ZM140.773 328.395C140.121 328.178 139.759 327.417 140.013 326.765C140.266 326.076 140.99 325.75 141.678 326.003C142.33 326.221 142.692 326.982 142.438 327.634C142.257 328.178 141.75 328.504 141.244 328.504C141.244 328.504 140.918 328.504 140.773 328.395ZM234.259 327.598C234.042 326.91 234.368 326.185 235.056 325.931C235.707 325.677 236.432 326.04 236.685 326.692C236.938 327.381 236.576 328.106 235.925 328.359C235.925 328.359 235.635 328.432 235.49 328.432C234.947 328.432 234.476 328.106 234.259 327.598ZM134.328 325.859C133.676 325.605 133.35 324.844 133.64 324.155C133.894 323.503 134.654 323.213 135.342 323.503C135.994 323.756 136.283 324.518 135.994 325.17C135.813 325.677 135.342 325.967 134.835 325.967C134.835 325.967 134.473 325.967 134.328 325.859ZM240.668 325.134C240.414 324.445 240.704 323.72 241.356 323.43C242.007 323.14 242.768 323.43 243.057 324.119C243.311 324.771 243.057 325.532 242.369 325.786C242.369 325.786 242.044 325.895 241.863 325.895C241.356 325.895 240.885 325.605 240.668 325.134ZM127.992 322.995C127.376 322.669 127.087 321.908 127.413 321.256C127.702 320.603 128.463 320.35 129.114 320.64C129.766 320.966 130.019 321.763 129.73 322.379C129.513 322.85 129.042 323.104 128.571 323.104C128.354 323.104 128.173 323.104 127.992 322.995ZM246.968 322.343C246.642 321.691 246.895 320.893 247.547 320.603C248.199 320.277 248.959 320.531 249.285 321.183C249.575 321.836 249.285 322.597 248.706 322.923C248.488 322.995 248.307 323.032 248.126 323.032C247.656 323.032 247.185 322.778 246.968 322.343ZM121.837 319.806C121.221 319.444 120.968 318.646 121.33 318.03C121.656 317.414 122.452 317.196 123.068 317.523C123.683 317.885 123.937 318.646 123.575 319.262C123.357 319.697 122.887 319.951 122.452 319.951C122.235 319.951 122.018 319.951 121.837 319.806ZM115.826 316.29C115.211 315.928 115.03 315.131 115.428 314.515C115.79 313.898 116.587 313.717 117.202 314.08C117.782 314.478 117.963 315.276 117.6 315.855C117.383 316.254 116.949 316.472 116.514 316.472C116.297 316.472 116.044 316.472 115.826 316.29ZM110.033 312.485C109.454 312.086 109.273 311.289 109.707 310.709C110.106 310.129 110.902 309.948 111.482 310.383C112.061 310.782 112.206 311.579 111.807 312.159C111.554 312.521 111.156 312.702 110.757 312.702C110.504 312.702 110.25 312.63 110.033 312.485ZM104.421 308.426C103.842 307.991 103.733 307.157 104.168 306.614C104.602 306.034 105.399 305.925 105.978 306.36C106.557 306.795 106.63 307.592 106.232 308.172C105.978 308.498 105.58 308.679 105.182 308.679C104.928 308.679 104.638 308.607 104.421 308.426ZM99.0263 304.04C98.4832 303.605 98.4108 302.772 98.8453 302.228C99.316 301.685 100.113 301.648 100.656 302.083H100.692C101.235 302.554 101.271 303.352 100.837 303.895C100.583 304.222 100.221 304.367 99.8591 304.367C99.5332 304.367 99.2436 304.258 99.0263 304.04ZM93.8125 299.438C93.3057 298.966 93.2694 298.133 93.8125 297.625C94.2832 297.118 95.116 297.082 95.6229 297.553C96.1298 298.06 96.166 298.858 95.6953 299.365C95.4419 299.655 95.0798 299.8 94.7539 299.8C94.4281 299.8 94.1022 299.691 93.8488 299.438H93.8125ZM88.8884 294.581C88.3815 294.037 88.4177 293.24 88.9246 292.733C89.4315 292.261 90.2643 292.261 90.735 292.733C91.2419 293.24 91.2057 294.074 90.6988 294.581C90.4815 294.798 90.1557 294.907 89.8298 294.907C89.4677 294.907 89.1419 294.798 88.8884 294.545V294.581ZM84.1815 289.435C83.7108 288.927 83.7832 288.094 84.3263 287.622C84.8694 287.151 85.666 287.224 86.1367 287.767C86.6074 288.311 86.535 289.108 86.0281 289.58C85.7746 289.797 85.4488 289.906 85.1591 289.906C84.797 289.906 84.435 289.761 84.1815 289.435ZM79.7643 284.107C79.3298 283.563 79.4384 282.73 79.9815 282.295C80.5246 281.86 81.3574 281.969 81.7919 282.512C82.2263 283.092 82.1177 283.889 81.5746 284.324C81.3212 284.506 81.0677 284.614 80.7781 284.614C80.3798 284.614 80.0177 284.433 79.7643 284.107ZM75.6005 278.562C75.2022 277.982 75.347 277.184 75.9263 276.75C76.5057 276.351 77.3022 276.496 77.7005 277.076C78.135 277.656 77.9901 278.453 77.4108 278.852C77.1574 279.033 76.9039 279.105 76.6505 279.105C76.2522 279.105 75.8539 278.924 75.6005 278.562ZM71.7263 272.799C71.3643 272.219 71.5453 271.422 72.1246 271.023C72.7401 270.661 73.5367 270.806 73.8988 271.422C74.297 272.038 74.116 272.835 73.5005 273.198C73.2832 273.343 73.066 273.415 72.8126 273.415C72.3781 273.415 71.9798 273.198 71.7263 272.799ZM68.1419 266.855C67.816 266.239 68.0332 265.442 68.6488 265.116C69.2643 264.753 70.0608 264.971 70.3867 265.587C70.7488 266.203 70.5315 267 69.916 267.363C69.735 267.471 69.4815 267.508 69.2643 267.508C68.8298 267.508 68.3953 267.29 68.1419 266.855ZM64.8832 260.767C64.5574 260.114 64.8108 259.353 65.4625 259.027C66.0781 258.701 66.8746 258.954 67.1643 259.607C67.4901 260.223 67.2367 261.02 66.6212 261.346C66.6212 261.346 66.2229 261.455 66.0419 261.455C65.5712 261.455 65.1005 261.201 64.8832 260.767ZM61.9143 254.497C61.6246 253.844 61.9143 253.083 62.566 252.793C63.2177 252.503 63.9781 252.793 64.2677 253.445C64.5574 254.098 64.2677 254.859 63.616 255.149C63.616 255.149 63.2539 255.258 63.0729 255.258C62.6022 255.258 62.1315 254.968 61.9143 254.497ZM59.2712 248.082C59.0177 247.429 59.3436 246.668 59.9953 246.414C60.6832 246.161 61.4074 246.487 61.6608 247.175C61.9143 247.828 61.5884 248.589 60.9367 248.843C60.9367 248.843 60.6108 248.915 60.466 248.915C59.9591 248.915 59.4522 248.589 59.2712 248.082ZM56.9539 241.558C56.7367 240.906 57.0988 240.144 57.7867 239.927C58.4384 239.709 59.1625 240.072 59.416 240.761C59.6332 241.449 59.2712 242.174 58.5832 242.391C58.5832 242.391 58.3298 242.464 58.185 242.464C57.6419 242.464 57.135 242.102 56.9539 241.558ZM54.9626 234.925C54.7815 234.237 55.1798 233.512 55.8677 233.331C56.5557 233.15 57.2798 233.548 57.4608 234.237C57.6419 234.925 57.2436 235.65 56.5557 235.832C56.5557 235.832 56.3384 235.868 56.1936 235.868C55.6505 235.868 55.1074 235.505 54.9626 234.925Z" fill="white"/>
<path d="M248.379 322.307L247.872 321.219C279.988 305.563 305.151 277.293 316.919 243.624L318.041 244.022C306.165 277.982 280.784 306.505 248.379 322.271V322.307Z" fill="white"/>
<path d="M318.476 242.174L317.68 241.884C318.114 240.543 318.549 239.166 318.983 237.789L319.816 238.042C319.418 239.42 318.983 240.797 318.512 242.138L318.476 242.174ZM321.59 231.41L320.757 231.193C321.083 229.852 321.409 228.438 321.699 227.025L322.531 227.206C322.242 228.656 321.916 230.069 321.554 231.41H321.59ZM54.7814 230.866C54.4555 229.453 54.1296 228.039 53.84 226.662L54.6727 226.481C54.9624 227.858 55.2883 229.235 55.6141 230.649L54.7814 230.866ZM323.799 220.392L322.966 220.247C323.183 218.834 323.4 217.42 323.581 216.007L324.414 216.116C324.233 217.529 324.016 218.979 323.799 220.392ZM52.6089 219.849C52.3917 218.435 52.1745 217.022 51.9934 215.572L52.8624 215.463C53.0434 216.877 53.2245 218.29 53.4417 219.704L52.6089 219.849ZM325.102 209.266L324.233 209.193C324.342 207.78 324.414 206.33 324.487 204.917H325.355C325.283 206.403 325.211 207.816 325.102 209.266ZM51.3055 208.722C51.1969 207.309 51.1245 205.859 51.0521 204.409H51.921C51.9934 205.786 52.0658 207.236 52.1745 208.65L51.3055 208.722ZM324.631 198.067C324.631 196.653 324.631 195.204 324.559 193.79H325.428C325.464 195.204 325.5 196.617 325.5 198.067H324.631ZM51.7762 197.523H50.9072C50.9072 196.073 50.9434 194.624 51.0158 193.21H51.8848C51.8124 194.66 51.8124 196.11 51.7762 197.523ZM324.124 186.94C324.016 185.527 323.871 184.077 323.69 182.664L324.559 182.555C324.704 183.968 324.849 185.418 324.993 186.831L324.124 186.904V186.94ZM52.2831 186.397L51.4141 186.324C51.5589 184.874 51.7038 183.461 51.8486 182.047L52.7176 182.156C52.5365 183.57 52.3917 184.983 52.2831 186.433V186.397ZM322.749 175.886C322.495 174.473 322.242 173.059 321.988 171.682L322.821 171.501C323.111 172.914 323.364 174.328 323.581 175.741L322.749 175.886ZM53.7314 175.342L52.8986 175.197C53.1521 173.748 53.4055 172.334 53.6952 170.957L54.5279 171.138C54.2383 172.516 53.9848 173.929 53.7314 175.342ZM320.468 164.977C320.106 163.6 319.743 162.223 319.345 160.845L320.178 160.628C320.576 162.005 320.938 163.382 321.3 164.796L320.468 165.013V164.977ZM56.0486 164.47L55.2158 164.252C55.5779 162.875 55.94 161.461 56.3383 160.084L57.171 160.338C56.7727 161.715 56.4107 163.092 56.0486 164.47ZM317.318 154.322C316.847 152.981 316.376 151.64 315.869 150.299L316.666 150.009C317.173 151.35 317.643 152.691 318.114 154.068L317.318 154.358V154.322ZM59.2348 153.814L58.4383 153.524C58.9089 152.147 59.4158 150.806 59.9227 149.465L60.7193 149.755C60.2124 151.096 59.7055 152.437 59.2348 153.814ZM313.262 143.956C312.719 142.652 312.104 141.347 311.488 140.078L312.249 139.716C312.864 141.021 313.443 142.325 314.023 143.63L313.226 143.956H313.262ZM63.29 143.413L62.4934 143.05C63.0727 141.745 63.6883 140.404 64.3038 139.136L65.0641 139.498C64.4486 140.767 63.8331 142.072 63.2538 143.413H63.29ZM308.411 133.953C307.723 132.685 307.035 131.452 306.311 130.22L307.071 129.785C307.795 131.018 308.483 132.286 309.171 133.555L308.411 133.953ZM68.2141 133.41L67.4538 133.011C68.1417 131.742 68.8296 130.474 69.5538 129.242L70.3141 129.677C69.59 130.909 68.9021 132.141 68.2141 133.41ZM302.762 124.385C302.002 123.189 301.206 121.993 300.373 120.833L301.097 120.362C301.93 121.558 302.726 122.718 303.487 123.95L302.762 124.421V124.385ZM73.9348 123.842L73.2107 123.37C74.0072 122.174 74.8038 120.978 75.6365 119.782L76.3245 120.29C75.4917 121.449 74.6952 122.646 73.9348 123.842ZM296.354 115.288C295.485 114.165 294.58 113.041 293.674 111.954L294.326 111.41C295.231 112.534 296.137 113.657 297.006 114.781L296.318 115.288H296.354ZM80.4158 114.745L79.7279 114.201C80.5969 113.077 81.5021 111.954 82.4434 110.83L83.0952 111.374C82.19 112.461 81.2848 113.585 80.4158 114.708V114.745ZM289.221 106.735C288.28 105.684 287.302 104.633 286.288 103.618L286.904 103.038C287.918 104.089 288.895 105.104 289.837 106.191L289.185 106.771L289.221 106.735ZM87.621 106.228L87.0055 105.648C87.9831 104.597 88.9607 103.546 89.9745 102.531L90.59 103.147C89.5762 104.162 88.5986 105.213 87.6572 106.264L87.621 106.228ZM281.437 98.7978C280.387 97.8192 279.337 96.8407 278.25 95.9346L278.83 95.2822C279.916 96.2246 281.002 97.2031 282.016 98.1817L281.437 98.7978ZM95.4779 98.3266L94.8986 97.7105C95.9486 96.7319 97.0348 95.7534 98.0848 94.8473L98.6641 95.4997C97.5779 96.442 96.5279 97.3843 95.4779 98.3629V98.3266ZM273 91.513C271.878 90.6069 270.755 89.7371 269.597 88.9035L270.104 88.2149C271.262 89.0847 272.385 89.9546 273.507 90.8606L272.964 91.5492L273 91.513ZM103.914 91.0781L103.371 90.3895C104.493 89.4834 105.652 88.6136 106.811 87.78L107.318 88.4686C106.159 89.3022 105.037 90.172 103.914 91.0418V91.0781ZM263.985 84.9168C262.79 84.1195 261.595 83.3584 260.4 82.5973L260.835 81.8724C262.066 82.6335 263.261 83.4309 264.456 84.2282L263.985 84.9531V84.9168ZM112.893 84.5544L112.423 83.8295C113.618 83.0322 114.812 82.2711 116.043 81.51L116.478 82.2349C115.283 82.996 114.052 83.757 112.893 84.5544ZM254.462 79.118C253.195 78.4294 251.928 77.7408 250.697 77.0884L251.095 76.3273C252.362 76.9797 253.63 77.6683 254.897 78.3569L254.462 79.118ZM122.38 78.7918L121.945 78.0307C123.212 77.3421 124.48 76.6535 125.747 76.0011L126.145 76.7622C124.878 77.4146 123.611 78.0669 122.38 78.7555V78.7918ZM244.505 74.0802C243.202 73.5004 241.899 72.9205 240.559 72.3768L240.885 71.5795C242.224 72.1231 243.528 72.703 244.831 73.3191L244.469 74.1165L244.505 74.0802ZM132.337 73.8265L131.974 73.0292C133.278 72.4493 134.581 71.8694 135.921 71.3258L136.247 72.1231C134.943 72.6668 133.64 73.2104 132.337 73.8265ZM234.187 69.8761C232.847 69.4049 231.471 68.9338 230.131 68.4989L230.385 67.6653C231.761 68.1002 233.137 68.5713 234.476 69.0787L234.187 69.8761ZM142.656 69.6949L142.366 68.8975C143.705 68.4264 145.081 67.9552 146.457 67.5203L146.711 68.3539C145.335 68.7888 143.995 69.2599 142.656 69.7311V69.6949ZM223.542 66.5417C222.166 66.1793 220.79 65.8169 219.378 65.4907L219.559 64.6571C220.971 64.9833 222.347 65.3457 223.723 65.7082L223.505 66.5417H223.542ZM153.264 66.3968L153.047 65.5632C154.423 65.2008 155.835 64.8383 157.247 64.5121L157.428 65.3457C156.052 65.6719 154.64 65.9981 153.264 66.3605V66.3968ZM212.68 64.1135C211.268 63.8598 209.855 63.6423 208.443 63.4249L208.588 62.5913C210 62.8087 211.412 63.0262 212.824 63.2799L212.68 64.1135ZM164.126 64.0048L163.981 63.1712C165.393 62.9175 166.805 62.7 168.218 62.4826L168.326 63.3161C166.914 63.5336 165.502 63.7511 164.09 64.0048H164.126ZM201.637 62.555C200.224 62.4101 198.812 62.3013 197.364 62.1926L197.437 61.3228C198.885 61.4315 200.297 61.5402 201.745 61.6852L201.673 62.555H201.637ZM175.133 62.5188L175.061 61.649C176.473 61.504 177.921 61.3953 179.333 61.3228L179.405 62.1926C177.993 62.3013 176.545 62.4101 175.133 62.5188ZM190.521 61.9389C189.109 61.9389 187.661 61.9389 186.249 61.9389V61.0691C187.661 61.0691 189.109 61.0691 190.557 61.0691V61.9389H190.521Z" fill="white"/>
<path d="M188.276 288.71C138.6 288.71 98.1934 248.263 98.1934 198.538C98.1934 186.36 100.583 174.545 105.254 163.455L106.34 163.926C101.705 174.907 99.352 186.541 99.352 198.538C99.352 247.61 139.216 287.514 188.24 287.514C237.264 287.514 277.128 247.61 277.128 198.538C277.128 176.067 268.728 154.612 253.521 138.121C238.386 121.739 217.821 111.7 195.699 109.852L195.807 108.656C218.255 110.504 239.074 120.688 254.426 137.324C269.85 154.032 278.359 175.777 278.359 198.538C278.359 248.263 237.952 288.71 188.276 288.71Z" fill="white"/>
<path d="M105.29 164.868C104.638 164.578 104.348 163.817 104.602 163.165C104.892 162.512 105.652 162.186 106.304 162.476C106.955 162.766 107.281 163.491 106.992 164.18C106.774 164.651 106.304 164.941 105.797 164.941C105.797 164.941 105.471 164.941 105.29 164.868ZM108.114 158.562C107.498 158.272 107.245 157.475 107.571 156.859C107.897 156.206 108.693 155.952 109.309 156.279C109.961 156.605 110.178 157.402 109.852 158.018C109.635 158.489 109.2 158.743 108.729 158.743C108.512 158.743 108.331 158.671 108.114 158.562ZM111.445 152.546C110.829 152.183 110.648 151.386 111.011 150.77C111.373 150.154 112.169 149.972 112.785 150.371C113.4 150.734 113.581 151.531 113.219 152.147C112.966 152.509 112.531 152.727 112.097 152.727C111.879 152.727 111.662 152.727 111.445 152.546ZM115.174 146.783C114.595 146.384 114.486 145.551 114.921 144.971C115.319 144.427 116.116 144.282 116.695 144.717C117.274 145.116 117.419 145.913 116.985 146.493C116.731 146.856 116.333 147.037 115.935 147.037C115.681 147.037 115.428 146.964 115.174 146.783ZM119.374 141.347C118.831 140.876 118.759 140.078 119.229 139.498C119.7 138.991 120.497 138.918 121.04 139.39C121.583 139.824 121.655 140.658 121.185 141.202C120.931 141.492 120.569 141.637 120.207 141.637C119.917 141.637 119.592 141.528 119.374 141.347ZM123.936 136.2C123.466 135.729 123.466 134.895 123.936 134.388C124.443 133.881 125.276 133.881 125.783 134.388C126.29 134.895 126.29 135.693 125.783 136.2C125.529 136.454 125.204 136.599 124.878 136.599C124.516 136.599 124.19 136.454 123.936 136.2ZM128.933 131.452C128.462 130.909 128.535 130.111 129.042 129.64C129.585 129.169 130.417 129.242 130.888 129.785C131.323 130.329 131.286 131.126 130.743 131.597C130.49 131.815 130.2 131.887 129.911 131.887C129.548 131.887 129.186 131.742 128.933 131.452ZM134.255 127.103C133.821 126.523 133.929 125.726 134.509 125.291C135.088 124.856 135.885 125.001 136.319 125.581C136.717 126.125 136.609 126.958 136.029 127.357C135.812 127.538 135.559 127.611 135.269 127.611C134.871 127.611 134.473 127.429 134.255 127.103ZM139.867 123.153C139.469 122.537 139.686 121.776 140.266 121.377C140.881 120.978 141.678 121.196 142.04 121.776C142.438 122.392 142.221 123.189 141.642 123.551C141.424 123.696 141.171 123.769 140.954 123.769C140.519 123.769 140.121 123.551 139.867 123.153ZM145.769 119.637C145.443 119.021 145.697 118.26 146.312 117.898C146.928 117.571 147.724 117.825 148.05 118.477C148.376 119.094 148.123 119.891 147.507 120.181C147.507 120.181 147.109 120.362 146.928 120.362C146.457 120.362 145.986 120.108 145.769 119.637ZM151.961 116.629C151.671 115.977 151.961 115.216 152.612 114.926C153.264 114.636 154.024 114.926 154.314 115.614C154.604 116.267 154.314 117.028 153.626 117.281C153.626 117.281 153.3 117.39 153.119 117.39C152.612 117.39 152.142 117.1 151.961 116.629ZM158.333 114.092C158.079 113.404 158.442 112.679 159.129 112.425C159.781 112.207 160.542 112.57 160.759 113.259C160.976 113.911 160.614 114.636 159.962 114.889C159.962 114.889 159.673 114.962 159.528 114.962C159.021 114.962 158.514 114.6 158.333 114.092ZM164.886 112.026C164.705 111.338 165.104 110.649 165.792 110.468C166.479 110.287 167.204 110.685 167.385 111.374C167.566 112.063 167.131 112.787 166.443 112.969C166.443 112.969 166.226 112.969 166.117 112.969C165.538 112.969 165.031 112.57 164.886 111.99V112.026ZM171.585 110.468C171.44 109.779 171.911 109.127 172.635 108.982C173.323 108.873 174.011 109.344 174.119 110.033C174.228 110.758 173.757 111.41 173.069 111.519C173.069 111.519 172.924 111.519 172.816 111.519C172.236 111.519 171.693 111.084 171.585 110.432V110.468ZM178.355 109.489C178.355 108.764 178.826 108.112 179.55 108.076C180.238 108.003 180.854 108.511 180.926 109.236C180.998 109.924 180.492 110.577 179.767 110.649H179.659C179.007 110.649 178.428 110.142 178.355 109.489ZM193.309 110.359C192.585 110.359 192.042 109.707 192.078 109.018C192.114 108.293 192.729 107.75 193.454 107.786C194.142 107.822 194.721 108.438 194.685 109.163C194.648 109.852 194.069 110.359 193.381 110.359H193.309ZM185.235 108.982C185.235 108.257 185.778 107.677 186.466 107.677C187.19 107.641 187.769 108.221 187.805 108.946C187.805 109.634 187.262 110.214 186.538 110.25H186.502C185.814 110.25 185.235 109.707 185.235 108.982Z" fill="white"/>
<path d="M110.286 322.307C116.645 322.307 121.8 317.147 121.8 310.782C121.8 304.416 116.645 299.256 110.286 299.256C103.927 299.256 98.7725 304.416 98.7725 310.782C98.7725 317.147 103.927 322.307 110.286 322.307Z" fill="#2E649E"/>
<path d="M110.286 322.742C103.697 322.742 98.3379 317.378 98.3379 310.781C98.3379 304.185 103.697 298.821 110.286 298.821C116.876 298.821 122.234 304.185 122.234 310.781C122.234 317.378 116.876 322.742 110.286 322.742ZM110.286 299.691C104.167 299.691 99.2069 304.656 99.2069 310.781C99.2069 316.906 104.167 321.872 110.286 321.872C116.405 321.872 121.365 316.906 121.365 310.781C121.365 304.656 116.405 299.691 110.286 299.691Z" fill="white"/>
<path d="M192.693 120.471C199.052 120.471 204.207 115.311 204.207 108.946C204.207 102.58 199.052 97.4204 192.693 97.4204C186.335 97.4204 181.18 102.58 181.18 108.946C181.18 115.311 186.335 120.471 192.693 120.471Z" fill="#61BB73"/>
<path d="M192.693 120.869C186.104 120.869 180.745 115.506 180.745 108.909C180.745 102.313 186.104 96.9492 192.693 96.9492C199.283 96.9492 204.642 102.313 204.642 108.909C204.642 115.506 199.283 120.869 192.693 120.869ZM192.693 97.819C186.574 97.819 181.614 102.784 181.614 108.909C181.614 115.034 186.574 120 192.693 120C198.812 120 203.773 115.034 203.773 108.909C203.773 102.784 198.812 97.819 192.693 97.819Z" fill="white"/>
<path d="M188.276 210.063C194.634 210.063 199.789 204.903 199.789 198.538C199.789 192.172 194.634 187.012 188.276 187.012C181.917 187.012 176.762 192.172 176.762 198.538C176.762 204.903 181.917 210.063 188.276 210.063Z" fill="#54449D"/>
<path d="M188.275 210.462C181.686 210.462 176.327 205.098 176.327 198.502C176.327 191.905 181.686 186.542 188.275 186.542C194.865 186.542 200.224 191.905 200.224 198.502C200.224 205.098 194.865 210.462 188.275 210.462ZM188.275 187.411C182.156 187.411 177.196 192.377 177.196 198.502C177.196 204.627 182.156 209.592 188.275 209.592C194.394 209.592 199.355 204.627 199.355 198.502C199.355 192.377 194.394 187.411 188.275 187.411Z" fill="white"/>
<path d="M298.381 362.935C304.74 362.935 309.895 357.775 309.895 351.41C309.895 345.045 304.74 339.885 298.381 339.885C292.022 339.885 286.867 345.045 286.867 351.41C286.867 357.775 292.022 362.935 298.381 362.935Z" fill="#2E649E"/>
<path d="M298.381 363.37C291.791 363.37 286.433 358.006 286.433 351.41C286.433 344.813 291.791 339.449 298.381 339.449C304.971 339.449 310.329 344.813 310.329 351.41C310.329 358.006 304.971 363.37 298.381 363.37ZM298.381 340.319C292.262 340.319 287.302 345.285 287.302 351.41C287.302 357.535 292.262 362.5 298.381 362.5C304.5 362.5 309.46 357.535 309.46 351.41C309.46 345.285 304.5 340.319 298.381 340.319Z" fill="white"/>
<path d="M317.462 253.808C323.821 253.808 328.976 248.648 328.976 242.283C328.976 235.918 323.821 230.758 317.462 230.758C311.103 230.758 305.948 235.918 305.948 242.283C305.948 248.648 311.103 253.808 317.462 253.808Z" fill="#61BB73"/>
<path d="M317.462 254.243C310.872 254.243 305.514 248.879 305.514 242.283C305.514 235.686 310.872 230.323 317.462 230.323C324.052 230.323 329.41 235.686 329.41 242.283C329.41 248.879 324.052 254.243 317.462 254.243ZM317.462 231.192C311.343 231.192 306.383 236.158 306.383 242.283C306.383 248.408 311.343 253.373 317.462 253.373C323.581 253.373 328.541 248.408 328.541 242.283C328.541 236.158 323.581 231.192 317.462 231.192Z" fill="white"/>
<path d="M149.752 339.45C156.111 339.45 161.266 334.29 161.266 327.924C161.266 321.559 156.111 316.399 149.752 316.399C143.393 316.399 138.238 321.559 138.238 327.924C138.238 334.29 143.393 339.45 149.752 339.45Z" fill="#61BB73"/>
<path d="M149.752 339.848C143.162 339.848 137.804 334.484 137.804 327.888C137.804 321.292 143.162 315.928 149.752 315.928C156.342 315.928 161.7 321.292 161.7 327.888C161.7 334.484 156.342 339.848 149.752 339.848ZM149.752 316.798C143.633 316.798 138.673 321.763 138.673 327.888C138.673 334.013 143.633 338.978 149.752 338.978C155.871 338.978 160.831 334.013 160.831 327.888C160.831 321.763 155.871 316.798 149.752 316.798Z" fill="white"/>
<path d="M54.8175 242.283C61.1764 242.283 66.3313 237.123 66.3313 230.758C66.3313 224.392 61.1764 219.232 54.8175 219.232C48.4586 219.232 43.3037 224.392 43.3037 230.758C43.3037 237.123 48.4586 242.283 54.8175 242.283Z" fill="#61BB73"/>
<path d="M54.8174 242.718C48.2278 242.718 42.8691 237.354 42.8691 230.757C42.8691 224.161 48.2278 218.797 54.8174 218.797C61.4071 218.797 66.7657 224.161 66.7657 230.757C66.7657 237.354 61.4071 242.718 54.8174 242.718ZM54.8174 219.667C48.6985 219.667 43.7381 224.632 43.7381 230.757C43.7381 236.882 48.6985 241.848 54.8174 241.848C60.9364 241.848 65.8967 236.882 65.8967 230.757C65.8967 224.632 60.9364 219.667 54.8174 219.667Z" fill="white"/>
<path d="M37.3654 100.03C43.7242 100.03 48.8791 94.8699 48.8791 88.5047C48.8791 82.1395 43.7242 76.9795 37.3654 76.9795C31.0065 76.9795 25.8516 82.1395 25.8516 88.5047C25.8516 94.8699 31.0065 100.03 37.3654 100.03Z" fill="#61BB73"/>
<path d="M37.3653 100.465C30.7756 100.465 25.417 95.101 25.417 88.5048C25.417 81.9086 30.7756 76.5447 37.3653 76.5447C43.9549 76.5447 49.3135 81.9086 49.3135 88.5048C49.3135 95.101 43.9549 100.465 37.3653 100.465ZM37.3653 77.4145C31.2463 77.4145 26.286 82.3798 26.286 88.5048C26.286 94.6298 31.2463 99.5951 37.3653 99.5951C43.4842 99.5951 48.4446 94.6298 48.4446 88.5048C48.4446 82.3798 43.4842 77.4145 37.3653 77.4145Z" fill="white"/>
<path d="M347.442 108.946C353.8 108.946 358.955 103.786 358.955 97.4205C358.955 91.0553 353.8 85.8953 347.442 85.8953C341.083 85.8953 335.928 91.0553 335.928 97.4205C335.928 103.786 341.083 108.946 347.442 108.946Z" fill="#2E649E"/>
<path d="M347.441 109.381C340.852 109.381 335.493 104.017 335.493 97.4206C335.493 90.8244 340.852 85.4604 347.441 85.4604C354.031 85.4604 359.39 90.8244 359.39 97.4206C359.39 104.017 354.031 109.381 347.441 109.381ZM347.441 86.3303C341.322 86.3303 336.362 91.2955 336.362 97.4206C336.362 103.546 341.322 108.511 347.441 108.511C353.56 108.511 358.521 103.546 358.521 97.4206C358.521 91.2955 353.56 86.3303 347.441 86.3303Z" fill="white"/>
<path d="M366.088 145.696C372.447 145.696 377.602 140.536 377.602 134.171C377.602 127.806 372.447 122.646 366.088 122.646C359.729 122.646 354.574 127.806 354.574 134.171C354.574 140.536 359.729 145.696 366.088 145.696Z" fill="#61BB73"/>
<path d="M366.088 146.095C359.498 146.095 354.14 140.731 354.14 134.134C354.14 127.538 359.498 122.174 366.088 122.174C372.678 122.174 378.036 127.538 378.036 134.134C378.036 140.731 372.678 146.095 366.088 146.095ZM366.088 123.044C359.969 123.044 355.009 128.009 355.009 134.134C355.009 140.259 359.969 145.225 366.088 145.225C372.207 145.225 377.167 140.259 377.167 134.134C377.167 128.009 372.207 123.044 366.088 123.044Z" fill="white"/>
<path d="M321.408 77.0157C327.767 77.0157 332.922 71.8557 332.922 65.4905C332.922 59.1253 327.767 53.9653 321.408 53.9653C315.049 53.9653 309.895 59.1253 309.895 65.4905C309.895 71.8557 315.049 77.0157 321.408 77.0157Z" fill="#61BB73"/>
<path d="M321.408 77.4146C314.819 77.4146 309.46 72.0507 309.46 65.4545C309.46 58.8583 314.819 53.4944 321.408 53.4944C327.998 53.4944 333.357 58.8583 333.357 65.4545C333.357 72.0507 327.998 77.4146 321.408 77.4146ZM321.408 54.3642C315.289 54.3642 310.329 59.3295 310.329 65.4545C310.329 71.5795 315.289 76.5448 321.408 76.5448C327.527 76.5448 332.488 71.5795 332.488 65.4545C332.488 59.3295 327.527 54.3642 321.408 54.3642Z" fill="white"/>
<path d="M94.5899 159.228L101.854 176.024L118.634 168.752L111.369 151.956L94.5899 159.228Z" fill="#2E649E"/>
<path d="M101.597 176.575L101.416 176.176L93.9932 158.997L94.3914 158.816L111.554 151.386L111.735 151.785L119.157 168.964L118.759 169.145L101.597 176.575ZM95.1156 159.468L102.031 175.451L117.998 168.529L111.083 152.546L95.1156 159.468Z" fill="white"/>
<path d="M200.997 11.6373L212.042 26.2236L226.614 15.1681L215.569 0.581799L200.997 11.6373Z" fill="#2E649E"/>
<path d="M211.955 26.8195L211.702 26.4933L200.405 11.5976L200.731 11.3439L215.612 0.0361328L215.866 0.362318L227.162 15.2581L226.836 15.5118L211.919 26.8195H211.955ZM201.6 11.7425L212.1 25.6235L225.967 15.1131L215.467 1.23214L201.6 11.7425Z" fill="white"/>
<path d="M30.1293 297.749L27.4551 315.855L45.543 318.532L48.2172 300.426L30.1293 297.749Z" fill="#2E649E"/>
<path d="M45.9108 319.009L26.9746 316.218L29.7625 297.299L48.6987 300.09L45.9108 319.045V319.009ZM27.9522 315.493L45.1867 318.03L47.7212 300.779L30.4867 298.242L27.9522 315.493Z" fill="white"/>
<path d="M236.029 326.491L253.11 333.02L259.633 315.921L242.552 309.392L236.029 326.491Z" fill="#2E649E"/>
<path d="M253.375 333.578L252.977 333.433L235.489 326.765L235.634 326.366L242.296 308.897L242.694 309.042L260.146 315.711L260.001 316.109L253.339 333.578H253.375ZM236.612 326.257L252.869 332.455L259.06 316.182L242.803 309.984L236.575 326.257H236.612Z" fill="white"/>
<path d="M201.528 235.252C199.391 235.252 197.183 235.034 194.902 234.599C185.343 232.787 175.676 227.387 167.638 219.341C151.019 202.742 146.783 179.945 158.152 168.529C169.521 157.112 192.295 161.389 208.914 178.024C225.533 194.66 229.769 217.42 218.4 228.837C214.164 233.077 208.334 235.252 201.528 235.252ZM175.097 163.056C168.688 163.056 163.003 165.049 158.84 169.181C147.833 180.199 152.069 202.416 168.326 218.652C184.583 234.889 206.741 239.166 217.785 228.148C223.107 222.82 225.062 214.774 223.288 205.46C221.514 196.073 216.191 186.578 208.298 178.677C198.16 168.529 185.705 163.056 175.097 163.056Z" fill="#61BB73"/>
<path d="M174.916 235.07C168.29 235.07 162.316 233.005 158.007 228.692C146.638 217.311 150.874 194.515 167.493 177.879C184.076 161.28 206.85 157.003 218.255 168.384C229.624 179.764 225.388 202.561 208.769 219.196C198.45 229.525 185.778 235.07 174.916 235.07ZM201.347 162.911C190.738 162.911 178.283 168.384 168.145 178.532C151.888 194.805 147.652 216.985 158.659 228.039C169.666 239.057 191.861 234.817 208.081 218.544C224.302 202.271 228.574 180.09 217.568 169.036C213.44 164.904 207.719 162.911 201.311 162.911H201.347Z" fill="#61BB73"/>
</g>
<defs>
<clipPath id="clip0_763_76">
<rect width="378" height="387" fill="white"/>
</clipPath>
</defs>
</svg>
