<svg width="154" height="127" viewBox="0 0 154 127" fill="none" xmlns="http://www.w3.org/2000/svg">
<path d="M25.2971 49.0464V34.8464L12.9986 27.75L0.707031 34.8464V49.0464L12.9986 56.1428L25.2971 49.0464Z" fill="#61BD73"/>
<path d="M13.0054 56.963L0 49.4566V34.4439L13.0054 26.9375L26.0108 34.4439V49.4566L13.0054 56.963ZM1.41363 48.6367L13.0054 55.3303L24.5972 48.6367V35.2567L13.0054 28.5632L1.41363 35.2567V48.6367Z" fill="#130C49"/>
<path d="M152.856 43.7873V29.5945L140.557 22.498L128.266 29.5945V43.7873L140.557 50.8908L152.856 43.7873Z" fill="#61BD73"/>
<path d="M140.557 51.7033L127.552 44.1969V29.1841L140.557 21.6777L153.563 29.1841V44.1969L140.557 51.7033ZM128.972 43.384L140.564 50.0776L152.156 43.384V30.004L140.564 23.3105L128.972 30.004V43.384Z" fill="#130C49"/>
<path d="M103.833 87.1661L95.6064 78.9395L87.3798 87.1661L95.6064 95.3927L103.833 87.1661Z" fill="#61BD73"/>
<path d="M95.6043 95.9567L86.8115 87.1639L95.6043 78.3711L104.397 87.1639L95.6043 95.9567ZM87.9424 87.1639L95.6043 94.8258L103.266 87.1639L95.6043 79.502L87.9424 87.1639Z" fill="#130C49"/>
<path d="M77.3249 97.3574H71.5078V103.175H77.3249V97.3574Z" fill="#130C49"/>
<path d="M50.5726 88.6335C52.7782 88.6335 54.5661 86.8455 54.5661 84.64C54.5661 82.4344 52.7782 80.6465 50.5726 80.6465C48.3671 80.6465 46.5791 82.4344 46.5791 84.64C46.5791 86.8455 48.3671 88.6335 50.5726 88.6335Z" fill="#61BD73"/>
<path d="M50.5729 89.0306C48.1485 89.0306 46.1836 87.0586 46.1836 84.6413C46.1836 82.224 48.1556 80.252 50.5729 80.252C52.9902 80.252 54.9622 82.224 54.9622 84.6413C54.9622 87.0586 52.9902 89.0306 50.5729 89.0306ZM50.5729 81.0507C48.5938 81.0507 46.9823 82.6622 46.9823 84.6413C46.9823 86.6204 48.5938 88.2319 50.5729 88.2319C52.552 88.2319 54.1635 86.6204 54.1635 84.6413C54.1635 82.6622 52.552 81.0507 50.5729 81.0507Z" fill="#130C49"/>
<path d="M50.5726 76.9733C52.7782 76.9733 54.5661 75.1854 54.5661 72.9798C54.5661 70.7743 52.7782 68.9863 50.5726 68.9863C48.3671 68.9863 46.5791 70.7743 46.5791 72.9798C46.5791 75.1854 48.3671 76.9733 50.5726 76.9733Z" fill="#130C49"/>
<path d="M50.5726 65.3093C52.7782 65.3093 54.5661 63.5213 54.5661 61.3158C54.5661 59.1102 52.7782 57.3223 50.5726 57.3223C48.3671 57.3223 46.5791 59.1102 46.5791 61.3158C46.5791 63.5213 48.3671 65.3093 50.5726 65.3093Z" fill="#61BD73"/>
<path d="M50.5729 65.7122C48.1485 65.7122 46.1836 63.7402 46.1836 61.3229C46.1836 58.9056 48.1556 56.9336 50.5729 56.9336C52.9902 56.9336 54.9622 58.9056 54.9622 61.3229C54.9622 63.7402 52.9902 65.7122 50.5729 65.7122ZM50.5729 57.7252C48.5938 57.7252 46.9823 59.3368 46.9823 61.3158C46.9823 63.2949 48.5938 64.9065 50.5729 64.9065C52.552 64.9065 54.1635 63.2949 54.1635 61.3158C54.1635 59.3368 52.552 57.7252 50.5729 57.7252Z" fill="#130C49"/>
<path d="M95.6029 63.4714C97.8084 63.4714 99.5964 61.6834 99.5964 59.4779C99.5964 57.2723 97.8084 55.4844 95.6029 55.4844C93.3973 55.4844 91.6094 57.2723 91.6094 59.4779C91.6094 61.6834 93.3973 63.4714 95.6029 63.4714Z" fill="#61BD73"/>
<path d="M95.6032 63.8744C93.1788 63.8744 91.2139 61.9023 91.2139 59.485C91.2139 57.0677 93.1859 55.0957 95.6032 55.0957C98.0205 55.0957 99.9925 57.0677 99.9925 59.485C99.9925 61.9023 98.0205 63.8744 95.6032 63.8744ZM95.6032 55.8873C93.6241 55.8873 92.0126 57.4989 92.0126 59.478C92.0126 61.457 93.6241 63.0686 95.6032 63.0686C97.5823 63.0686 99.1938 61.457 99.1938 59.478C99.1938 57.4989 97.5823 55.8873 95.6032 55.8873Z" fill="#130C49"/>
<path d="M76.414 48.7557L78.2376 50.5934C78.6334 50.9892 78.8313 51.3214 78.8313 51.6041C78.8313 51.8869 78.6334 52.2191 78.2376 52.6078C77.8417 52.9966 77.5095 53.1945 77.2339 53.1945C76.9582 53.1945 76.626 52.9966 76.2302 52.6007L74.4208 50.7772L72.5972 52.6007C72.2014 52.9966 71.8692 53.1945 71.6006 53.1945C71.332 53.1945 70.9998 53.0036 70.5969 52.6078C70.194 52.2191 69.9961 51.8869 69.9961 51.6041C69.9961 51.3214 70.194 50.9892 70.5898 50.5934L72.4134 48.7557L70.5898 46.9179C70.194 46.5221 69.9961 46.1899 69.9961 45.9072C69.9961 45.6245 70.194 45.2923 70.5969 44.8965C70.9998 44.5006 71.332 44.3027 71.6006 44.3027C71.8692 44.3027 72.2014 44.5006 72.5972 44.8965L74.4208 46.7342L76.2302 44.8965C76.626 44.5006 76.9582 44.3027 77.2339 44.3027C77.5095 44.3027 77.8417 44.5006 78.2376 44.8965C78.6334 45.2923 78.8313 45.6245 78.8313 45.9072C78.8313 46.1899 78.6334 46.5221 78.2376 46.9179L76.414 48.7557Z" fill="#130C49"/>
<path d="M142.558 36.7615L144.381 38.5993C144.777 38.9951 144.975 39.3273 144.975 39.61C144.975 39.8927 144.777 40.2249 144.381 40.6137C143.985 41.0024 143.653 41.2003 143.377 41.2003C143.102 41.2003 142.77 41.0024 142.374 40.6066L140.564 38.783L138.741 40.6066C138.345 41.0024 138.013 41.2003 137.744 41.2003C137.476 41.2003 137.143 41.0095 136.74 40.6137C136.338 40.2249 136.14 39.8927 136.14 39.61C136.14 39.3273 136.338 38.9951 136.733 38.5993L138.557 36.7615L136.733 34.9238C136.338 34.528 136.14 34.1958 136.14 33.9131C136.14 33.6303 136.338 33.2981 136.74 32.9023C137.143 32.5065 137.476 32.3086 137.744 32.3086C138.013 32.3086 138.345 32.5065 138.741 32.9023L140.564 34.74L142.374 32.9023C142.77 32.5065 143.102 32.3086 143.377 32.3086C143.653 32.3086 143.985 32.5065 144.381 32.9023C144.777 33.2981 144.975 33.6303 144.975 33.9131C144.975 34.1958 144.777 34.528 144.381 34.9238L142.558 36.7615Z" fill="#130C49"/>
<path d="M81.0363 12.27V4.63637L74.4205 0.8125L67.8047 4.63637V12.27L74.4205 16.0868L81.0363 12.27Z" fill="#61BD73"/>
<path d="M74.4203 16.907L67.0977 12.6803V4.22676L74.4203 0L81.7429 4.22676V12.6803L74.4203 16.907ZM68.5113 11.8674L74.4203 15.2743L80.3292 11.8674V5.03959L74.4203 1.63274L68.5113 5.03959V11.8604V11.8674Z" fill="#130C49"/>
<path d="M22.9222 110.073L15.5996 105.846V97.3928L22.9222 93.166L30.2448 97.3928V105.846L22.9222 110.073ZM17.0132 105.026L22.9222 108.433L28.8312 105.026V98.2056L22.9222 94.7988L17.0132 98.2056V105.026Z" fill="#130C49"/>
<path d="M86.7112 80.7749V66.5749L74.4197 59.4785L62.1211 66.5749V80.7749L74.4197 87.8713L86.7112 80.7749Z" fill="#130C49"/>
<path d="M16.306 43.8592V40.0354L12.9981 38.127L9.69727 40.0354V43.8592L12.9981 45.7676L16.306 43.8592Z" fill="#130C49"/>
<path d="M137.688 112.547V108.73L134.38 106.814L131.079 108.73V112.547L134.38 114.455L137.688 112.547Z" fill="#130C49"/>
<path d="M113.607 125.092V121.275L110.299 119.359L106.991 121.275V125.092L110.299 127L113.607 125.092Z" fill="#130C49"/>
<path d="M134.379 125.651L121.374 118.144V103.131L134.379 95.625L147.385 103.131V118.144L134.379 125.651ZM122.795 117.324L134.386 124.018L145.978 117.324V103.944L134.386 97.2507L122.795 103.944V117.324Z" fill="#130C49"/>
<path d="M74.4212 114.427L39.1299 94.0492V53.3013L74.4212 32.9238L109.712 53.3013V94.0492L74.4212 114.427ZM40.5435 93.2364L74.4212 112.794L108.299 93.2364V54.1212L74.4212 34.5636L40.5435 54.1212V93.2364Z" fill="#130C49"/>
<path d="M75.1275 16.0859H73.7139V33.7422H75.1275V16.0859Z" fill="#130C49"/>
<path d="M127.938 43.1667L108.671 53.0859L109.318 54.3428L128.586 44.4236L127.938 43.1667Z" fill="#130C49"/>
<path d="M109.426 93.0833L108.573 94.2109L121.659 104.104L122.512 102.977L109.426 93.0833Z" fill="#130C49"/>
<path d="M121.79 117.094L112.602 121.34L113.195 122.623L122.383 118.378L121.79 117.094Z" fill="#130C49"/>
<path d="M39.5741 92.9883L29.2764 97.1426L29.8052 98.4536L40.1029 94.2993L39.5741 92.9883Z" fill="#130C49"/>
<path d="M25.513 48.3669L25.0811 49.7129L39.6182 54.3775L40.0501 53.0314L25.513 48.3669Z" fill="#130C49"/>
</svg>
