<svg width="28" height="24" viewBox="0 0 28 24" fill="none" xmlns="http://www.w3.org/2000/svg">
<path d="M18.7718 5.18036H0.492188V23.3231H18.7718V5.18036Z" fill="#61BD73"/>
<path d="M19.2495 23.8137H0V4.70111H19.2609V23.8137H19.2495ZM0.969893 22.8324H18.2682V5.671H0.981304V22.8324H0.969893Z" fill="#130C49"/>
<path d="M8.13421 17.15L9.43501 18.4508C9.72027 18.7246 9.85719 18.9642 9.85719 19.1696C9.85719 19.375 9.72027 19.6032 9.43501 19.8771C9.14974 20.1509 8.91012 20.2879 8.71614 20.2879C8.52217 20.2879 8.28255 20.1509 7.99728 19.8657L6.70789 18.5763L5.4071 19.8657C5.12183 20.1395 4.89362 20.2879 4.69964 20.2879C4.50567 20.2879 4.26605 20.1509 3.98078 19.8771C3.69552 19.6032 3.55859 19.3636 3.55859 19.1696C3.55859 18.9756 3.69552 18.736 3.98078 18.4508L5.28158 17.15L3.98078 15.8492C3.69552 15.5753 3.55859 15.3357 3.55859 15.1303C3.55859 14.9249 3.69552 14.6967 3.98078 14.4114C4.26605 14.1376 4.50567 13.9893 4.69964 13.9893C4.89362 13.9893 5.13324 14.1262 5.4071 14.4114L6.70789 15.7122L7.99728 14.4114C8.28255 14.1376 8.51076 13.9893 8.71614 13.9893C8.92153 13.9893 9.14974 14.1262 9.43501 14.4114C9.72027 14.6967 9.85719 14.9249 9.85719 15.1303C9.85719 15.3357 9.72027 15.5639 9.43501 15.8492L8.13421 17.15Z" fill="#130C49"/>
<path d="M17.4802 14.092C13.5663 14.092 10.3828 10.9313 10.3828 7.05169C10.3828 3.17212 13.5663 0 17.4802 0C21.394 0 24.5775 3.16071 24.5775 7.04028C24.5775 10.9199 21.394 14.0806 17.4802 14.0806V14.092ZM17.4802 1.14105C14.1939 1.14105 11.5239 3.78829 11.5239 7.04028C11.5239 10.2923 14.1939 12.9395 17.4802 12.9395C20.7664 12.9395 23.4364 10.2923 23.4364 7.04028C23.4364 3.78829 20.7664 1.14105 17.4802 1.14105Z" fill="#130C49"/>
<path d="M22.9825 10.5641L22.2734 11.4581L27.2887 15.436L27.9978 14.542L22.9825 10.5641Z" fill="#130C49"/>
</svg>
