<svg width="33" height="32" viewBox="0 0 33 32" fill="none" xmlns="http://www.w3.org/2000/svg">
<g id="Group">
<path id="Vector" d="M18.1443 31.2366H0V13.2321H18.1443V31.2366ZM0.924413 30.3122H17.2199V14.1457H0.924413V30.3122Z" fill="#130C49"/>
<g id="Group_2">
<g id="Group_3">
<path id="Vector_2" d="M18.217 17.94C20.0691 17.94 21.5707 16.4385 21.5707 14.5863C21.5707 12.7342 20.0691 11.2327 18.217 11.2327C16.3648 11.2327 14.8633 12.7342 14.8633 14.5863C14.8633 16.4385 16.3648 17.94 18.217 17.94Z" fill="#61BD73"/>
<path id="Vector_3" d="M18.2193 18.4775C16.0802 18.4775 14.3281 16.7362 14.3281 14.5864C14.3281 12.4366 16.0695 10.6953 18.2193 10.6953C20.369 10.6953 22.1104 12.4366 22.1104 14.5864C22.1104 16.7362 20.369 18.4775 18.2193 18.4775ZM18.2193 11.7809C16.6714 11.7809 15.403 13.0385 15.403 14.5971C15.403 16.1557 16.6606 17.4134 18.2193 17.4134C19.7779 17.4134 21.0355 16.1557 21.0355 14.5971C21.0355 13.0385 19.7779 11.7809 18.2193 11.7809Z" fill="#130C49"/>
</g>
<g id="Group_4">
<path id="Vector_4" d="M18.217 7.24478C20.0691 7.24478 21.5707 5.74329 21.5707 3.8911C21.5707 2.03891 20.0691 0.537415 18.217 0.537415C16.3648 0.537415 14.8633 2.03891 14.8633 3.8911C14.8633 5.74329 16.3648 7.24478 18.217 7.24478Z" fill="#61BD73"/>
<path id="Vector_5" d="M18.2193 7.78226C16.0802 7.78226 14.3281 6.04093 14.3281 3.89113C14.3281 1.74134 16.0695 0 18.2193 0C20.369 0 22.1104 1.74134 22.1104 3.89113C22.1104 6.04093 20.369 7.78226 18.2193 7.78226ZM18.2193 1.08565C16.6714 1.08565 15.403 2.34328 15.403 3.90189C15.403 5.46049 16.6606 6.71811 18.2193 6.71811C19.7779 6.71811 21.0355 5.46049 21.0355 3.90189C21.0355 2.34328 19.7779 1.08565 18.2193 1.08565Z" fill="#130C49"/>
</g>
<g id="Group_5">
<path id="Vector_6" d="M29.1076 17.94C30.9598 17.94 32.4613 16.4385 32.4613 14.5863C32.4613 12.7342 30.9598 11.2327 29.1076 11.2327C27.2554 11.2327 25.7539 12.7342 25.7539 14.5863C25.7539 16.4385 27.2554 17.94 29.1076 17.94Z" fill="#61BD73"/>
<path id="Vector_7" d="M29.1099 18.4775C26.9708 18.4775 25.2188 16.7362 25.2188 14.5864C25.2188 12.4366 26.9601 10.6953 29.1099 10.6953C31.2597 10.6953 33.001 12.4366 33.001 14.5864C33.001 16.7362 31.2597 18.4775 29.1099 18.4775ZM29.1099 11.7809C27.562 11.7809 26.2936 13.0385 26.2936 14.5971C26.2936 16.1557 27.5513 17.4134 29.1099 17.4134C30.6685 17.4134 31.9261 16.1557 31.9261 14.5971C31.9261 13.0385 30.6685 11.7809 29.1099 11.7809Z" fill="#130C49"/>
</g>
<g id="Group_6">
<path id="Vector_8" d="M11.1388 26.8617C12.991 26.8617 14.4925 25.3602 14.4925 23.508C14.4925 21.6559 12.991 20.1544 11.1388 20.1544C9.28665 20.1544 7.78516 21.6559 7.78516 23.508C7.78516 25.3602 9.28665 26.8617 11.1388 26.8617Z" fill="#61BD73"/>
<path id="Vector_9" d="M11.1372 27.3884C8.99817 27.3884 7.24609 25.6471 7.24609 23.4973C7.24609 21.3475 8.98742 19.6061 11.1372 19.6061C13.287 19.6061 15.0283 21.3475 15.0283 23.4973C15.0283 25.6471 13.287 27.3884 11.1372 27.3884ZM11.1372 20.6918C9.58937 20.6918 8.32099 21.9494 8.32099 23.508C8.32099 25.0666 9.57862 26.3243 11.1372 26.3243C12.6958 26.3243 13.9534 25.0666 13.9534 23.508C13.9534 21.9494 12.6958 20.6918 11.1372 20.6918Z" fill="#130C49"/>
</g>
<g id="Group_7">
<path id="Vector_10" d="M22.8303 27.9796C24.6824 27.9796 26.1839 26.4781 26.1839 24.6259C26.1839 22.7737 24.6824 21.2722 22.8303 21.2722C20.9781 21.2722 19.4766 22.7737 19.4766 24.6259C19.4766 26.4781 20.9781 27.9796 22.8303 27.9796Z" fill="#61BD73"/>
<path id="Vector_11" d="M22.8325 28.5171C20.6935 28.5171 18.9414 26.7757 18.9414 24.6259C18.9414 22.4761 20.6828 20.7348 22.8325 20.7348C24.9823 20.7348 26.7237 22.4761 26.7237 24.6259C26.7237 26.7757 24.9823 28.5171 22.8325 28.5171ZM22.8325 21.8205C21.2847 21.8205 20.0163 23.0781 20.0163 24.6367C20.0163 26.1953 21.2739 27.4529 22.8325 27.4529C24.3912 27.4529 25.6488 26.1953 25.6488 24.6367C25.6488 23.0781 24.3912 21.8205 22.8325 21.8205Z" fill="#130C49"/>
</g>
<path id="Vector_12" d="M25.7556 14.049H21.5742V15.1239H25.7556V14.049Z" fill="#130C49"/>
<g id="Group_8">
<path id="Vector_13" d="M20.2365 17.4714L19.2539 17.9072L20.9493 21.7295L21.9319 21.2936L20.2365 17.4714Z" fill="#130C49"/>
</g>
<path id="Vector_14" d="M18.7585 7.05133H17.6836V11.2327H18.7585V7.05133Z" fill="#130C49"/>
<g id="Group_9">
<path id="Vector_15" d="M15.3456 16.9438L12.8555 20.3029L13.719 20.943L16.2091 17.5839L15.3456 16.9438Z" fill="#130C49"/>
</g>
</g>
</g>
</svg>
