<svg width="29" height="23" viewBox="0 0 29 23" fill="none" xmlns="http://www.w3.org/2000/svg">
<g id="Group">
<g id="Group_2">
<path id="Vector" d="M23.2719 18.2948H21.7656V17.4702H22.4473V16.7886H23.2719V18.2948Z" fill="#130C49"/>
<path id="Vector_2" d="M19.557 18.2948H17.3581V17.4702H19.557V18.2948ZM15.1592 18.2948H12.9603V17.4702H15.1592V18.2948ZM10.7614 18.2948H8.5625V17.4702H10.7614V18.2948Z" fill="#130C49"/>
<path id="Vector_3" d="M6.35318 18.2948H4.83594V16.7886H5.66052V17.4702H6.35318V18.2948Z" fill="#130C49"/>
<path id="Vector_4" d="M5.66052 14.6117H4.83594V12.4238H5.66052V14.6117ZM5.66052 10.2469H4.83594V8.06996H5.66052V10.2469ZM5.66052 5.88205H4.83594V3.69415H5.66052V5.88205Z" fill="#130C49"/>
<path id="Vector_5" d="M5.66052 1.50625H4.83594V0H6.35318V0.824586H5.66052V1.50625Z" fill="#130C49"/>
<path id="Vector_6" d="M19.557 0.824586H17.3581V0H19.557V0.824586ZM15.1592 0.824586H12.9603V0H15.1592V0.824586ZM10.7614 0.824586H8.5625V0H10.7614V0.824586Z" fill="#130C49"/>
<path id="Vector_7" d="M23.2719 1.50625H22.4473V0.824586H21.7656V0H23.2719V1.50625Z" fill="#130C49"/>
<path id="Vector_8" d="M23.2738 14.6117H22.4492V12.4238H23.2738V14.6117ZM23.2738 10.2469H22.4492V8.06996H23.2738V10.2469ZM23.2738 5.88205H22.4492V3.69415H23.2738V5.88205Z" fill="#130C49"/>
</g>
<g id="Group_3">
<g id="Group_4">
<g id="Group_5">
<path id="Vector_9" d="M22.5168 14.4248C24.3081 14.4248 25.7602 12.9727 25.7602 11.1814C25.7602 9.39014 24.3081 7.93803 22.5168 7.93803C20.7256 7.93803 19.2734 9.39014 19.2734 11.1814C19.2734 12.9727 20.7256 14.4248 22.5168 14.4248Z" fill="#61BD73"/>
<path id="Vector_10" d="M22.5056 14.8316C20.4937 14.8316 18.8555 13.1934 18.8555 11.1814C18.8555 9.16941 20.4937 7.53123 22.5056 7.53123C24.5176 7.53123 26.1558 9.16941 26.1558 11.1814C26.1558 13.1934 24.5176 14.8316 22.5056 14.8316ZM22.5056 8.35582C20.9444 8.35582 19.6801 9.62018 19.6801 11.1814C19.6801 12.7426 20.9444 14.007 22.5056 14.007C24.0669 14.007 25.3312 12.7426 25.3312 11.1814C25.3312 9.62018 24.0669 8.35582 22.5056 8.35582Z" fill="#130C49"/>
</g>
<g id="Group_6">
<path id="Vector_11" d="M17.3711 20.0429C17.3711 17.1514 19.7129 14.8096 22.6044 14.8096C25.496 14.8096 27.8378 17.1514 27.8378 20.0429" fill="#61BD73"/>
<path id="Vector_12" d="M28.2554 20.0429H27.4309C27.4309 17.3823 25.2649 15.2164 22.6043 15.2164C19.9436 15.2164 17.7777 17.3823 17.7777 20.0429H16.9531C16.9531 16.9315 19.4818 14.3918 22.6043 14.3918C25.7267 14.3918 28.2554 16.9205 28.2554 20.0429Z" fill="#130C49"/>
</g>
</g>
<g id="Group_7">
<g id="Group_8">
<path id="Vector_13" d="M5.55585 14.4248C7.34711 14.4248 8.79923 12.9727 8.79923 11.1814C8.79923 9.39014 7.34711 7.93803 5.55585 7.93803C3.76459 7.93803 2.3125 9.39014 2.3125 11.1814C2.3125 12.9727 3.76459 14.4248 5.55585 14.4248Z" fill="#61BD73"/>
<path id="Vector_14" d="M5.55639 14.8316C3.5444 14.8316 1.90625 13.1934 1.90625 11.1814C1.90625 9.16941 3.5444 7.53123 5.55639 7.53123C7.56838 7.53123 9.20656 9.16941 9.20656 11.1814C9.20656 13.1934 7.56838 14.8316 5.55639 14.8316ZM5.55639 8.35582C3.99517 8.35582 2.73084 9.62018 2.73084 11.1814C2.73084 12.7426 3.99517 14.007 5.55639 14.007C7.11761 14.007 8.38198 12.7426 8.38198 11.1814C8.38198 9.62018 7.11761 8.35582 5.55639 8.35582Z" fill="#130C49"/>
</g>
<g id="Group_9">
<path id="Vector_15" d="M0.417969 20.0429C0.417969 17.1514 2.7598 14.8096 5.65135 14.8096C8.5429 14.8096 10.8847 17.1514 10.8847 20.0429" fill="#61BD73"/>
<path id="Vector_16" d="M11.3023 20.043H10.4777C10.4777 17.3823 8.31184 15.2164 5.65118 15.2164C2.99051 15.2164 0.824586 17.3823 0.824586 20.043H0C0 16.9315 2.52875 14.3918 5.65118 14.3918C8.77361 14.3918 11.3023 16.9205 11.3023 20.043Z" fill="#130C49"/>
</g>
</g>
<g id="Group_10">
<g id="Group_11">
<path id="Vector_17" d="M14.1418 16.4917C15.9331 16.4917 17.3852 15.0396 17.3852 13.2484C17.3852 11.4571 15.9331 10.005 14.1418 10.005C12.3506 10.005 10.8984 11.4571 10.8984 13.2484C10.8984 15.0396 12.3506 16.4917 14.1418 16.4917Z" fill="#130C49"/>
<path id="Vector_18" d="M14.1424 16.8985C12.1304 16.8985 10.4922 15.2604 10.4922 13.2484C10.4922 11.2364 12.1304 9.59821 14.1424 9.59821C16.1543 9.59821 17.7925 11.2364 17.7925 13.2484C17.7925 15.2604 16.1543 16.8985 14.1424 16.8985ZM14.1424 10.4228C12.5811 10.4228 11.3168 11.6872 11.3168 13.2484C11.3168 14.8096 12.5811 16.074 14.1424 16.074C15.7036 16.074 16.9679 14.8096 16.9679 13.2484C16.9679 11.6872 15.7036 10.4228 14.1424 10.4228Z" fill="#61BD73"/>
</g>
<g id="Group_12">
<path id="Vector_19" d="M8.99609 22.1099C8.99609 19.2184 11.3379 16.8765 14.2295 16.8765C17.121 16.8765 19.4629 19.2184 19.4629 22.1099" fill="#130C49"/>
<path id="Vector_20" d="M19.8804 22.1099H19.0559C19.0559 19.4492 16.8899 17.2833 14.2293 17.2833C11.5686 17.2833 9.40271 19.4492 9.40271 22.1099H8.57812C8.57812 18.9985 11.1068 16.4587 14.2293 16.4587C17.3517 16.4587 19.8804 18.9985 19.8804 22.1099Z" fill="#61BD73"/>
</g>
</g>
</g>
</g>
</svg>
