<svg width="26" height="26" viewBox="0 0 26 26" fill="none" xmlns="http://www.w3.org/2000/svg">
<g id="Group">
<g id="Group_2">
<path id="Vector" d="M16.4497 9.16H0.429688V25.06H16.4497V9.16Z" fill="#61BD73"/>
<path id="Vector_2" d="M16.88 25.49H0V8.74001H16.88V25.49ZM0.86 24.63H16.02V9.59H0.86V24.63Z" fill="#130C49"/>
</g>
<path id="Vector_3" d="M10.6581 17.8L11.7581 11.36L7.07812 6.8L13.5481 5.86L16.4381 0L19.3281 5.86L25.7981 6.8L21.1181 11.36L22.2181 17.8L16.4281 14.76L10.6381 17.8H10.6581ZM16.4481 13.63L20.9081 15.97L20.0581 11.01L23.6681 7.49001L18.6881 6.77L16.4581 2.25L14.2281 6.77L9.24813 7.49001L12.8581 11.01L12.0081 15.97L16.4681 13.63H16.4481Z" fill="#130C49"/>
</g>
</svg>
