<svg width="320" height="241" viewBox="0 0 320 241" fill="none" xmlns="http://www.w3.org/2000/svg">
<path opacity="0.5" d="M233.781 81.3457V124.536L222.136 107.151L220.031 104.011L216.596 98.8857L219.516 84.3407L233.781 81.3457Z" fill="#FFFF00"/>
<path opacity="0.5" d="M233.78 124.535V175.955L211.535 167.76L222.66 138.455L233.78 124.535Z" fill="#FFFF00"/>
<path opacity="0.5" d="M131.11 165.619L135.925 186.289H92.1797L113.785 161.984L131.11 165.619Z" fill="#FFFF00"/>
<path opacity="0.5" d="M135.816 56.8105L119.991 69.7955L85.8359 61.4555V56.8105H122.161H135.816Z" fill="#FFFF00"/>
<path opacity="0.5" d="M164.264 56.8105L183.444 91.6155L164.264 117.776L154.424 118.781L151.859 83.4855L164.264 56.8105Z" fill="#FFFF00"/>
<path opacity="0.5" d="M102.911 125.835L113.786 161.985L92.1809 186.29H85.8359V123.6L102.911 125.835Z" fill="#00998B"/>
<path opacity="0.5" d="M119.991 69.7951L123.856 91.6151L119.991 98.8851L85.8359 72.2151V61.4551L119.991 69.7951Z" fill="#00998B"/>
<path opacity="0.5" d="M222.134 107.15L233.779 124.535L222.659 138.455L180.829 141.695L180.734 139.31L178.539 127.975L222.134 107.15Z" fill="#00998B"/>
<path opacity="0.5" d="M187.614 183.38L189.024 186.29H135.924L131.109 165.62L146.299 152.785L182.019 171.825L187.614 183.38Z" fill="#00998B"/>
<path opacity="0.5" d="M151.86 83.4844L154.425 118.779L143.515 124.534L117.42 117.774L119.99 98.8844L123.855 91.6144L151.86 83.4844Z" fill="#00998B"/>
<path opacity="0.5" d="M233.781 56.8105V81.3455L219.516 84.3405L213.676 56.8105H233.781Z" fill="#00B7E2"/>
<path opacity="0.5" d="M222.136 107.15L178.541 127.975L164.266 117.775L183.446 91.6152L216.596 98.8852L220.031 104.01L222.136 107.15Z" fill="#00B7E2"/>
<path opacity="0.5" d="M222.66 138.455L211.535 167.76L187.615 183.38L182.02 171.825L180.83 141.695L222.66 138.455Z" fill="#00B7E2"/>
<path opacity="0.5" d="M143.515 124.535L146.3 152.785L131.11 165.62L113.785 161.985L102.91 125.835L117.42 117.775L143.515 124.535Z" fill="#00B7E2"/>
<path opacity="0.5" d="M164.265 56.8105L151.86 83.4855L123.855 91.6155L119.99 69.7955L135.815 56.8105H164.265Z" fill="#00B7E2"/>
<path opacity="0.7" d="M233.78 175.955V186.29H189.025L187.615 183.38L211.535 167.76L233.78 175.955Z" fill="#22A53C"/>
<path opacity="0.7" d="M213.676 56.8105L219.516 84.3405L216.596 98.8855L183.446 91.6155L164.266 56.8105H213.676Z" fill="#22A53C"/>
<path opacity="0.7" d="M180.831 141.695L182.021 171.825L146.301 152.785L143.516 124.535L154.426 118.78L164.266 117.775L178.541 127.975L180.736 139.31L180.831 141.695Z" fill="#22A53C"/>
<path opacity="0.7" d="M119.991 98.8848L117.421 117.775L102.911 125.835L85.8359 123.6V72.2148L119.991 98.8848Z" fill="#22A53C"/>
<path d="M233.781 186.29H85.8359V56.8096H122.161H233.781V81.3446V186.29Z" stroke="#1B1464" stroke-width="0.375" stroke-miterlimit="10"/>
<path d="M135.82 56.8096L119.99 69.7946L123.855 91.6146L151.86 83.4846L164.265 56.8096L183.445 91.6146L164.265 117.77" stroke="#1B1464" stroke-width="0.375" stroke-miterlimit="10"/>
<path d="M85.8359 61.4551L119.991 69.7951" stroke="#1B1464" stroke-width="0.375" stroke-miterlimit="10"/>
<path d="M123.856 91.6144L119.991 98.8844L117.426 117.769L143.521 124.534L154.426 118.779L151.861 83.4844" stroke="#1B1464" stroke-width="0.375" stroke-miterlimit="10"/>
<path d="M143.521 124.535L146.301 152.785L182.021 171.825L180.736 139.31L178.541 127.975L164.266 117.77L154.426 118.78" stroke="#1B1464" stroke-width="0.375" stroke-miterlimit="10"/>
<path d="M117.426 117.77L102.916 125.835L113.786 161.985L131.111 165.62L146.301 152.785" stroke="#1B1464" stroke-width="0.375" stroke-miterlimit="10"/>
<path d="M85.8359 123.6L102.916 125.835" stroke="#1B1464" stroke-width="0.375" stroke-miterlimit="10"/>
<path d="M85.8359 72.2148L119.991 98.8848" stroke="#1B1464" stroke-width="0.375" stroke-miterlimit="10"/>
<path d="M113.786 161.984L92.1855 186.289" stroke="#1B1464" stroke-width="0.375" stroke-miterlimit="10"/>
<path d="M131.111 165.619L135.926 186.289" stroke="#1B1464" stroke-width="0.375" stroke-miterlimit="10"/>
<path d="M182.021 171.824L189.031 186.289" stroke="#1B1464" stroke-width="0.375" stroke-miterlimit="10"/>
<path d="M213.675 56.8096L219.52 84.3396L216.595 98.8846L183.445 91.6146" stroke="#1B1464" stroke-width="0.375" stroke-miterlimit="10"/>
<path d="M216.595 98.8848L220.03 104.01L233.78 124.535L222.66 138.455L180.83 141.695" stroke="#1B1464" stroke-width="0.375" stroke-miterlimit="10"/>
<path d="M178.541 127.974L222.136 107.149" stroke="#1B1464" stroke-width="0.375" stroke-miterlimit="10"/>
<path d="M187.621 183.38L211.536 167.76L222.661 138.455" stroke="#1B1464" stroke-width="0.375" stroke-miterlimit="10"/>
<path d="M219.521 84.3397L233.781 81.3447" stroke="#1B1464" stroke-width="0.375" stroke-miterlimit="10"/>
<path d="M233.78 175.955L211.535 167.76" stroke="#1B1464" stroke-width="0.375" stroke-miterlimit="10"/>
<path d="M106.7 81.0849C107.205 81.0849 107.615 80.6752 107.615 80.1699C107.615 79.6645 107.205 79.2549 106.7 79.2549C106.195 79.2549 105.785 79.6645 105.785 80.1699C105.785 80.6752 106.195 81.0849 106.7 81.0849Z" fill="#1B1464"/>
<path d="M133.52 77.5546C134.026 77.5546 134.435 77.145 134.435 76.6396C134.435 76.1343 134.026 75.7246 133.52 75.7246C133.015 75.7246 132.605 76.1343 132.605 76.6396C132.605 77.145 133.015 77.5546 133.52 77.5546Z" fill="#1B1464"/>
<path d="M164.575 92.5302C165.08 92.5302 165.49 92.1205 165.49 91.6152C165.49 91.1099 165.08 90.7002 164.575 90.7002C164.07 90.7002 163.66 91.1099 163.66 91.6152C163.66 92.1205 164.07 92.5302 164.575 92.5302Z" fill="#1B1464"/>
<path d="M198.29 75.7753C198.795 75.7753 199.205 75.3657 199.205 74.8603C199.205 74.355 198.795 73.9453 198.29 73.9453C197.785 73.9453 197.375 74.355 197.375 74.8603C197.375 75.3657 197.785 75.7753 198.29 75.7753Z" fill="#1B1464"/>
<path d="M186.19 110.71C186.696 110.71 187.105 110.3 187.105 109.795C187.105 109.29 186.696 108.88 186.19 108.88C185.685 108.88 185.275 109.29 185.275 109.795C185.275 110.3 185.685 110.71 186.19 110.71Z" fill="#1B1464"/>
<path d="M205.14 129.305C205.645 129.305 206.055 128.895 206.055 128.39C206.055 127.884 205.645 127.475 205.14 127.475C204.634 127.475 204.225 127.884 204.225 128.39C204.225 128.895 204.634 129.305 205.14 129.305Z" fill="#1B1464"/>
<path d="M98.8994 91.6152C99.4047 91.6152 99.8144 91.2055 99.8144 90.7001C99.8144 90.1948 99.4047 89.7852 98.8994 89.7852C98.394 89.7852 97.9844 90.1948 97.9844 90.7001C97.9844 91.2055 98.394 91.6152 98.8994 91.6152Z" fill="#1B1464"/>
<path d="M142.046 96.8144C142.551 96.8144 142.961 96.4047 142.961 95.8994C142.961 95.394 142.551 94.9844 142.046 94.9844C141.541 94.9844 141.131 95.394 141.131 95.8994C141.131 96.4047 141.541 96.8144 142.046 96.8144Z" fill="#1B1464"/>
<path d="M162.77 141.275C163.276 141.275 163.685 140.866 163.685 140.36C163.685 139.855 163.276 139.445 162.77 139.445C162.265 139.445 161.855 139.855 161.855 140.36C161.855 140.866 162.265 141.275 162.77 141.275Z" fill="#1B1464"/>
<path d="M125.52 145.715C126.026 145.715 126.435 145.305 126.435 144.8C126.435 144.294 126.026 143.885 125.52 143.885C125.015 143.885 124.605 144.294 124.605 144.8C124.605 145.305 125.015 145.715 125.52 145.715Z" fill="#1B1464"/>
<path d="M119.989 176.87C120.495 176.87 120.904 176.46 120.904 175.955C120.904 175.45 120.495 175.04 119.989 175.04C119.484 175.04 119.074 175.45 119.074 175.955C119.074 176.46 119.484 176.87 119.989 176.87Z" fill="#1B1464"/>
<path d="M154.261 175.955C154.766 175.955 155.176 175.545 155.176 175.04C155.176 174.535 154.766 174.125 154.261 174.125C153.755 174.125 153.346 174.535 153.346 175.04C153.346 175.545 153.755 175.955 154.261 175.955Z" fill="#1B1464"/>
<path d="M97.9853 159.915C98.4907 159.915 98.9003 159.505 98.9003 159C98.9003 158.495 98.4907 158.085 97.9853 158.085C97.48 158.085 97.0703 158.495 97.0703 159C97.0703 159.505 97.48 159.915 97.9853 159.915Z" fill="#1B1464"/>
<path d="M196.78 159C197.286 159 197.695 158.59 197.695 158.085C197.695 157.58 197.286 157.17 196.78 157.17C196.275 157.17 195.865 157.58 195.865 158.085C195.865 158.59 196.275 159 196.78 159Z" fill="#1B1464"/>
<path d="M223.729 160.825C224.235 160.825 224.644 160.415 224.644 159.91C224.644 159.405 224.235 158.995 223.729 158.995C223.224 158.995 222.814 159.405 222.814 159.91C222.814 160.415 223.224 160.825 223.729 160.825Z" fill="#1B1464"/>
<path d="M213.06 179.971C213.565 179.971 213.975 179.561 213.975 179.056C213.975 178.55 213.565 178.141 213.06 178.141C212.554 178.141 212.145 178.55 212.145 179.056C212.145 179.561 212.554 179.971 213.06 179.971Z" fill="#1B1464"/>
<path d="M224.645 70.1444C225.151 70.1444 225.56 69.7348 225.56 69.2295C225.56 68.7241 225.151 68.3145 224.645 68.3145C224.14 68.3145 223.73 68.7241 223.73 69.2295C223.73 69.7348 224.14 70.1444 224.645 70.1444Z" fill="#1B1464"/>
<path d="M226.556 97.7245C227.061 97.7245 227.471 97.3149 227.471 96.8095C227.471 96.3042 227.061 95.8945 226.556 95.8945C226.05 95.8945 225.641 96.3042 225.641 96.8095C225.641 97.3149 226.05 97.7245 226.556 97.7245Z" fill="#1B1464"/>
<path d="M115.056 63.37C115.561 63.37 115.971 62.9604 115.971 62.455C115.971 61.9497 115.561 61.54 115.056 61.54C114.55 61.54 114.141 61.9497 114.141 62.455C114.141 62.9604 114.55 63.37 115.056 63.37Z" fill="#1B1464"/>
</svg>
