<?xml version="1.0" encoding="UTF-8"?>
<svg id="svg728" xmlns="http://www.w3.org/2000/svg" xmlns:svg="http://www.w3.org/2000/svg" xmlns:sodipodi="http://sodipodi.sourceforge.net/DTD/sodipodi-0.dtd" xmlns:rdf="http://www.w3.org/1999/02/22-rdf-syntax-ns#" xmlns:inkscape="http://www.inkscape.org/namespaces/inkscape" xmlns:dc="http://purl.org/dc/elements/1.1/" xmlns:cc="http://creativecommons.org/ns#" version="1.1" viewBox="0 0 287.7 140.2">
  <!-- Generator: Adobe Illustrator 30.1.0, SVG Export Plug-In . SVG Version: 2.1.1 Build 136)  -->
  <defs>
    <style>
      .st0 {
        fill: #b0b0b0;
      }

      .st1 {
        fill: #fff;
      }

      .st2 {
        fill: #00ff69;
      }

      .st3 {
        fill: #373c64;
        isolation: isolate;
        opacity: .5;
      }

      .st4 {
        display: none;
      }

      .st5 {
        fill: #00274d;
      }
    </style>
  </defs>
  <g id="logo_x5F_rgb_x5F_weiss" class="st4">
    <path id="path2" class="st1" d="M54.7.2C24.7.2.4,24.5.4,54.5s24.3,54.3,54.3,54.3,54.3-24.3,54.3-54.3C109.1,24.5,84.7.2,54.7.2ZM65.9,79.9c-2,3.1-5,5.2-8.5,5.9-1,.2-2,.3-2.9.3-2.6,0-5.1-.7-7.3-2.2-6.3-4-8.2-12.5-4.1-18.8.8-1.3,1.8-2.4,3-3.3,1-.8,2.4-.6,3.2.4s.6,2.4-.4,3.2c-.8.6-1.4,1.3-2,2.2-2.7,4.2-1.5,9.9,2.7,12.6,2,1.3,4.5,1.7,6.8,1.2,2.4-.5,4.4-1.9,5.7-4,1.3-2,1.7-4.5,1.2-6.9s-1.9-4.4-4-5.7l-17.4-11.1c-1-.7-1.4-2.1-.7-3.1s2.1-1.3,3.1-.7l18.1,11.6c2.7,2,4.5,4.8,5.3,8.1.8,3.6,0,7.2-1.8,10.3ZM63.4,34.5c-.5-2.4-1.9-4.4-4-5.7-2-1.3-4.5-1.8-6.8-1.2-2.4.5-4.4,1.9-5.7,4-1.3,2-1.8,4.5-1.2,6.9.5,2.4,1.9,4.4,4,5.7l17.3,11.1c1,.7,1.4,2.1.7,3.1-.4.7-1.2,1-1.9,1s-.8,0-1.2-.4l-18.2-11.6c-2.6-2-4.5-4.8-5.2-8-.8-3.5,0-7.2,1.8-10.2,2-3.1,5-5.2,8.5-5.9,3.5-.8,7.2-.1,10.2,1.8,3.1,2,5.2,5,5.9,8.5.8,3.5,0,7.2-1.8,10.2-.8,1.3-1.8,2.4-3,3.3-1,.8-2.4.6-3.2-.4s-.6-2.4.4-3.2c.8-.6,1.4-1.4,2-2.2,1.5-2,1.9-4.4,1.4-6.8Z"/>
    <g id="g20">
      <path id="path4" class="st1" d="M197,49.1c-1.9-5.4-7.1-9.1-12.8-9.1s-13.6,6.1-13.6,13.6,6.1,13.6,13.5,13.6h.3c1.1,0,4.8-.2,8.3-2.2,1.1-.6,1.4-2,.8-3.1-.6-1.1-2-1.4-3.1-.8-3,1.7-6.2,1.6-6.2,1.6h-.1c-4.2,0-7.8-2.9-8.8-6.8h20.1c1.2,0,2.2-1,2.2-2.2s0-1-.1-1.6c0-1.1-.2-2.1-.5-3ZM175.4,51.3c1-3.9,4.6-6.8,8.8-6.8s7.3,2.4,8.6,6.1c.1.2.2.5.2.7h-17.6Z"/>
      <path id="path6" class="st1" d="M284.2,40c-1.2,0-2.2,1-2.2,2.2v22.7c0,1.2,1,2.2,2.2,2.2s2.2-1,2.2-2.2v-22.7c0-1.2-1-2.2-2.2-2.2Z"/>
      <circle id="circle8" class="st1" cx="284.2" cy="29.2" r="2.7"/>
      <path id="path10" class="st1" d="M244.5,40c-7.5,0-13.6,6.1-13.6,13.6s6.1,13.6,13.6,13.6,13.6-6.1,13.6-13.6-6.1-13.6-13.6-13.6ZM244.5,62.7c-5,0-9.1-4.1-9.1-9.1s4.1-9.1,9.1-9.1,9.1,4.1,9.1,9.1-4.1,9.1-9.1,9.1Z"/>
      <path id="path12" class="st1" d="M136.4,39.9c-7.5,0-13.6,6.1-13.6,13.6v25c0,1.2,1,2.2,2.2,2.2s2.2-1,2.2-2.2v-25c0-5,4.1-9.1,9.1-9.1s9.1,4.1,9.1,9.1-4.1,9.1-9.1,9.1-2-.2-2.9-.5c-1.2-.4-2.5.2-2.9,1.4-.4,1.2.2,2.5,1.4,2.9,1.4.5,2.9.7,4.4.7,7.5,0,13.6-6.1,13.6-13.6.1-7.5-6-13.6-13.5-13.6Z"/>
      <path id="path14" class="st1" d="M225.4,26.4c-1.2,0-2.2,1-2.2,2.2v24.9c0,5-4.1,9-9,9s-9-4.1-9-9,4.1-9,9-9,2,.2,2.9.5c1.2.4,2.5-.2,2.9-1.4s-.2-2.5-1.4-2.9c-1.4-.5-2.9-.7-4.3-.7-7.5,0-13.5,6.1-13.5,13.5s6.1,13.5,13.5,13.5,13.1-5.6,13.5-12.7h0v-25.6c0-1.2-1.1-2.3-2.4-2.3Z"/>
      <path id="path16" class="st1" d="M169.2,40.7c-1.4-.5-2.9-.7-4.4-.7-8.1,0-11.7,5.6-11.7,11.1v13.8c0,1.2,1,2.2,2.2,2.2s2.2-1,2.2-2.2v-13.8c0-6.3,6-6.6,7.2-6.6s2,.2,2.9.5c1.2.4,2.5-.2,2.9-1.4.5-1.3,0-2.5-1.3-2.9Z"/>
      <path id="path18" class="st1" d="M277.4,40.7c-1.4-.5-2.9-.7-4.4-.7-8.1,0-11.7,5.6-11.7,11.1v13.8c0,1.2,1,2.2,2.2,2.2s2.2-1,2.2-2.2v-13.8c0-6.3,6-6.6,7.2-6.6s2,.2,2.9.5c1.2.4,2.5-.2,2.9-1.4.5-1.2-.1-2.5-1.3-2.9Z"/>
    </g>
  </g>
  <g id="logo_x5F_rgb_x5F_schwarz" class="st4">
    <path id="path23" d="M54.7.2C24.7.2.4,24.5.4,54.5s24.3,54.3,54.3,54.3,54.3-24.3,54.3-54.3C109.1,24.5,84.7.2,54.7.2ZM65.9,79.9c-2,3.1-5,5.2-8.5,5.9-1,.2-2,.3-2.9.3-2.6,0-5.1-.7-7.3-2.2-6.3-4-8.2-12.5-4.1-18.8.8-1.3,1.8-2.4,3-3.3,1-.8,2.4-.6,3.2.4s.6,2.4-.4,3.2c-.8.6-1.4,1.3-2,2.2-2.7,4.2-1.5,9.9,2.7,12.6,2,1.3,4.5,1.7,6.8,1.2,2.4-.5,4.4-1.9,5.7-4,1.3-2,1.7-4.5,1.2-6.9s-1.9-4.4-4-5.7l-17.4-11.1c-1-.7-1.4-2.1-.7-3.1s2.1-1.3,3.1-.7l18.1,11.6c2.7,2,4.5,4.8,5.3,8.1.8,3.6,0,7.2-1.8,10.3ZM63.4,34.5c-.5-2.4-1.9-4.4-4-5.7-2-1.3-4.5-1.8-6.8-1.2-2.4.5-4.4,1.9-5.7,4-1.3,2-1.8,4.5-1.2,6.9.5,2.4,1.9,4.4,4,5.7l17.3,11.1c1,.7,1.4,2.1.7,3.1-.4.7-1.2,1-1.9,1s-.8,0-1.2-.4l-18.2-11.6c-2.6-2-4.5-4.8-5.2-8-.8-3.5,0-7.2,1.8-10.2,2-3.1,5-5.2,8.5-5.9,3.5-.8,7.2-.1,10.2,1.8,3.1,2,5.2,5,5.9,8.5.8,3.5,0,7.2-1.8,10.2-.8,1.3-1.8,2.4-3,3.3-1,.8-2.4.6-3.2-.4s-.6-2.4.4-3.2c.8-.6,1.4-1.4,2-2.2,1.5-2,1.9-4.4,1.4-6.8Z"/>
    <g id="g41">
      <path id="path25" d="M197,49.1c-1.9-5.4-7.1-9.1-12.8-9.1s-13.6,6.1-13.6,13.6,6.1,13.6,13.5,13.6h.3c1.1,0,4.8-.2,8.3-2.2,1.1-.6,1.4-2,.8-3.1-.6-1.1-2-1.4-3.1-.8-3,1.7-6.2,1.6-6.2,1.6h-.1c-4.2,0-7.8-2.9-8.8-6.8h20.1c1.2,0,2.2-1,2.2-2.2s0-1-.1-1.6c0-1.1-.2-2.1-.5-3ZM175.4,51.3c1-3.9,4.6-6.8,8.8-6.8s7.3,2.4,8.6,6.1c.1.2.2.5.2.7h-17.6Z"/>
      <path id="path27" d="M284.2,40c-1.2,0-2.2,1-2.2,2.2v22.7c0,1.2,1,2.2,2.2,2.2s2.2-1,2.2-2.2v-22.7c0-1.2-1-2.2-2.2-2.2Z"/>
      <circle id="circle29" cx="284.2" cy="29.2" r="2.7"/>
      <path id="path31" d="M244.5,40c-7.5,0-13.6,6.1-13.6,13.6s6.1,13.6,13.6,13.6,13.6-6.1,13.6-13.6-6.1-13.6-13.6-13.6ZM244.5,62.7c-5,0-9.1-4.1-9.1-9.1s4.1-9.1,9.1-9.1,9.1,4.1,9.1,9.1-4.1,9.1-9.1,9.1Z"/>
      <path id="path33" d="M136.4,39.9c-7.5,0-13.6,6.1-13.6,13.6v25c0,1.2,1,2.2,2.2,2.2s2.2-1,2.2-2.2v-25c0-5,4.1-9.1,9.1-9.1s9.1,4.1,9.1,9.1-4.1,9.1-9.1,9.1-2-.2-2.9-.5c-1.2-.4-2.5.2-2.9,1.4-.4,1.2.2,2.5,1.4,2.9,1.4.5,2.9.7,4.4.7,7.5,0,13.6-6.1,13.6-13.6.1-7.5-6-13.6-13.5-13.6Z"/>
      <path id="path35" d="M225.4,26.4c-1.2,0-2.2,1-2.2,2.2v24.9c0,5-4.1,9-9,9s-9-4.1-9-9,4.1-9,9-9,2,.2,2.9.5c1.2.4,2.5-.2,2.9-1.4s-.2-2.5-1.4-2.9c-1.4-.5-2.9-.7-4.3-.7-7.5,0-13.5,6.1-13.5,13.5s6.1,13.5,13.5,13.5,13.1-5.6,13.5-12.7h0v-25.6c0-1.2-1.1-2.3-2.4-2.3Z"/>
      <path id="path37" d="M169.2,40.7c-1.4-.5-2.9-.7-4.4-.7-8.1,0-11.7,5.6-11.7,11.1v13.8c0,1.2,1,2.2,2.2,2.2s2.2-1,2.2-2.2v-13.8c0-6.3,6-6.6,7.2-6.6s2,.2,2.9.5c1.2.4,2.5-.2,2.9-1.4.5-1.3,0-2.5-1.3-2.9Z"/>
      <path id="path39" d="M277.4,40.7c-1.4-.5-2.9-.7-4.4-.7-8.1,0-11.7,5.6-11.7,11.1v13.8c0,1.2,1,2.2,2.2,2.2s2.2-1,2.2-2.2v-13.8c0-6.3,6-6.6,7.2-6.6s2,.2,2.9.5c1.2.4,2.5-.2,2.9-1.4.5-1.2-.1-2.5-1.3-2.9Z"/>
    </g>
  </g>
  <g id="logo_x5F_rgb_x5F_grau" class="st4">
    <path id="path44" class="st0" d="M54.7.2C24.7.2.4,24.5.4,54.5s24.3,54.3,54.3,54.3,54.3-24.3,54.3-54.3C109.1,24.5,84.7.2,54.7.2ZM65.9,79.9c-2,3.1-5,5.2-8.5,5.9-1,.2-2,.3-2.9.3-2.6,0-5.1-.7-7.3-2.2-6.3-4-8.2-12.5-4.1-18.8.8-1.3,1.8-2.4,3-3.3,1-.8,2.4-.6,3.2.4s.6,2.4-.4,3.2c-.8.6-1.4,1.3-2,2.2-2.7,4.2-1.5,9.9,2.7,12.6,2,1.3,4.5,1.7,6.8,1.2,2.4-.5,4.4-1.9,5.7-4,1.3-2,1.7-4.5,1.2-6.9s-1.9-4.4-4-5.7l-17.4-11.1c-1-.7-1.4-2.1-.7-3.1s2.1-1.3,3.1-.7l18.1,11.6c2.7,2,4.5,4.8,5.3,8.1.8,3.6,0,7.2-1.8,10.3ZM63.4,34.5c-.5-2.4-1.9-4.4-4-5.7-2-1.3-4.5-1.8-6.8-1.2-2.4.5-4.4,1.9-5.7,4-1.3,2-1.8,4.5-1.2,6.9.5,2.4,1.9,4.4,4,5.7l17.3,11.1c1,.7,1.4,2.1.7,3.1-.4.7-1.2,1-1.9,1s-.8,0-1.2-.4l-18.2-11.6c-2.6-2-4.5-4.8-5.2-8-.8-3.5,0-7.2,1.8-10.2,2-3.1,5-5.2,8.5-5.9,3.5-.8,7.2-.1,10.2,1.8,3.1,2,5.2,5,5.9,8.5.8,3.5,0,7.2-1.8,10.2-.8,1.3-1.8,2.4-3,3.3-1,.8-2.4.6-3.2-.4s-.6-2.4.4-3.2c.8-.6,1.4-1.4,2-2.2,1.5-2,1.9-4.4,1.4-6.8Z"/>
    <g id="g62">
      <path id="path46" class="st0" d="M197,49.1c-1.9-5.4-7.1-9.1-12.8-9.1s-13.6,6.1-13.6,13.6,6.1,13.6,13.5,13.6h.3c1.1,0,4.8-.2,8.3-2.2,1.1-.6,1.4-2,.8-3.1-.6-1.1-2-1.4-3.1-.8-3,1.7-6.2,1.6-6.2,1.6h-.1c-4.2,0-7.8-2.9-8.8-6.8h20.1c1.2,0,2.2-1,2.2-2.2s0-1-.1-1.6c0-1.1-.2-2.1-.5-3ZM175.4,51.3c1-3.9,4.6-6.8,8.8-6.8s7.3,2.4,8.6,6.1c.1.2.2.5.2.7h-17.6Z"/>
      <path id="path48" class="st0" d="M284.2,40c-1.2,0-2.2,1-2.2,2.2v22.7c0,1.2,1,2.2,2.2,2.2s2.2-1,2.2-2.2v-22.7c0-1.2-1-2.2-2.2-2.2Z"/>
      <circle id="circle50" class="st0" cx="284.2" cy="29.2" r="2.7"/>
      <path id="path52" class="st0" d="M244.5,40c-7.5,0-13.6,6.1-13.6,13.6s6.1,13.6,13.6,13.6,13.6-6.1,13.6-13.6-6.1-13.6-13.6-13.6ZM244.5,62.7c-5,0-9.1-4.1-9.1-9.1s4.1-9.1,9.1-9.1,9.1,4.1,9.1,9.1-4.1,9.1-9.1,9.1Z"/>
      <path id="path54" class="st0" d="M136.4,39.9c-7.5,0-13.6,6.1-13.6,13.6v25c0,1.2,1,2.2,2.2,2.2s2.2-1,2.2-2.2v-25c0-5,4.1-9.1,9.1-9.1s9.1,4.1,9.1,9.1-4.1,9.1-9.1,9.1-2-.2-2.9-.5c-1.2-.4-2.5.2-2.9,1.4-.4,1.2.2,2.5,1.4,2.9,1.4.5,2.9.7,4.4.7,7.5,0,13.6-6.1,13.6-13.6.1-7.5-6-13.6-13.5-13.6Z"/>
      <path id="path56" class="st0" d="M225.4,26.4c-1.2,0-2.2,1-2.2,2.2v24.9c0,5-4.1,9-9,9s-9-4.1-9-9,4.1-9,9-9,2,.2,2.9.5c1.2.4,2.5-.2,2.9-1.4s-.2-2.5-1.4-2.9c-1.4-.5-2.9-.7-4.3-.7-7.5,0-13.5,6.1-13.5,13.5s6.1,13.5,13.5,13.5,13.1-5.6,13.5-12.7h0v-25.6c0-1.2-1.1-2.3-2.4-2.3Z"/>
      <path id="path58" class="st0" d="M169.2,40.7c-1.4-.5-2.9-.7-4.4-.7-8.1,0-11.7,5.6-11.7,11.1v13.8c0,1.2,1,2.2,2.2,2.2s2.2-1,2.2-2.2v-13.8c0-6.3,6-6.6,7.2-6.6s2,.2,2.9.5c1.2.4,2.5-.2,2.9-1.4.5-1.3,0-2.5-1.3-2.9Z"/>
      <path id="path60" class="st0" d="M277.4,40.7c-1.4-.5-2.9-.7-4.4-.7-8.1,0-11.7,5.6-11.7,11.1v13.8c0,1.2,1,2.2,2.2,2.2s2.2-1,2.2-2.2v-13.8c0-6.3,6-6.6,7.2-6.6s2,.2,2.9.5c1.2.4,2.5-.2,2.9-1.4.5-1.2-.1-2.5-1.3-2.9Z"/>
    </g>
  </g>
  <g id="logo_x5F_rgb_x5F_farbig_x5F_negativ" class="st4">
    <g id="g81">
      <path id="path65" class="st2" d="M197,49.1c-1.9-5.4-7.1-9.1-12.8-9.1s-13.6,6.1-13.6,13.6,6.1,13.6,13.5,13.6h.3c1.1,0,4.8-.2,8.3-2.2,1.1-.6,1.4-2,.8-3.1-.6-1.1-2-1.4-3.1-.8-3,1.7-6.2,1.6-6.2,1.6h-.1c-4.2,0-7.8-2.9-8.8-6.8h20.1c1.2,0,2.2-1,2.2-2.2s0-1-.1-1.6c0-1.1-.2-2.1-.5-3ZM175.4,51.3c1-3.9,4.6-6.8,8.8-6.8s7.3,2.4,8.6,6.1c.1.2.2.5.2.7h-17.6Z"/>
      <path id="path67" class="st2" d="M284.2,40c-1.2,0-2.2,1-2.2,2.2v22.7c0,1.2,1,2.2,2.2,2.2s2.2-1,2.2-2.2v-22.7c0-1.2-1-2.2-2.2-2.2Z"/>
      <circle id="circle69" class="st2" cx="284.2" cy="29.2" r="2.7"/>
      <path id="path71" class="st2" d="M244.5,40c-7.5,0-13.6,6.1-13.6,13.6s6.1,13.6,13.6,13.6,13.6-6.1,13.6-13.6-6.1-13.6-13.6-13.6ZM244.5,62.7c-5,0-9.1-4.1-9.1-9.1s4.1-9.1,9.1-9.1,9.1,4.1,9.1,9.1-4.1,9.1-9.1,9.1Z"/>
      <path id="path73" class="st2" d="M136.4,39.9c-7.5,0-13.6,6.1-13.6,13.6v25c0,1.2,1,2.2,2.2,2.2s2.2-1,2.2-2.2v-25c0-5,4.1-9.1,9.1-9.1s9.1,4.1,9.1,9.1-4.1,9.1-9.1,9.1-2-.2-2.9-.5c-1.2-.4-2.5.2-2.9,1.4-.4,1.2.2,2.5,1.4,2.9,1.4.5,2.9.7,4.4.7,7.5,0,13.6-6.1,13.6-13.6.1-7.5-6-13.6-13.5-13.6Z"/>
      <path id="path75" class="st2" d="M225.4,26.4c-1.2,0-2.2,1-2.2,2.2v24.9c0,5-4.1,9-9,9s-9-4.1-9-9,4.1-9,9-9,2,.2,2.9.5c1.2.4,2.5-.2,2.9-1.4s-.2-2.5-1.4-2.9c-1.4-.5-2.9-.7-4.3-.7-7.5,0-13.5,6.1-13.5,13.5s6.1,13.5,13.5,13.5,13.1-5.6,13.5-12.7h0v-25.6c0-1.2-1.1-2.3-2.4-2.3Z"/>
      <path id="path77" class="st2" d="M169.2,40.7c-1.4-.5-2.9-.7-4.4-.7-8.1,0-11.7,5.6-11.7,11.1v13.8c0,1.2,1,2.2,2.2,2.2s2.2-1,2.2-2.2v-13.8c0-6.3,6-6.6,7.2-6.6s2,.2,2.9.5c1.2.4,2.5-.2,2.9-1.4.5-1.3,0-2.5-1.3-2.9Z"/>
      <path id="path79" class="st2" d="M277.4,40.7c-1.4-.5-2.9-.7-4.4-.7-8.1,0-11.7,5.6-11.7,11.1v13.8c0,1.2,1,2.2,2.2,2.2s2.2-1,2.2-2.2v-13.8c0-6.3,6-6.6,7.2-6.6s2,.2,2.9.5c1.2.4,2.5-.2,2.9-1.4.5-1.2-.1-2.5-1.3-2.9Z"/>
    </g>
    <path id="path83" class="st2" d="M54.7.2C24.7.2.4,24.5.4,54.5s24.3,54.3,54.3,54.3,54.3-24.3,54.3-54.3C109.1,24.5,84.7.2,54.7.2ZM65.9,79.9c-2,3.1-5,5.2-8.5,5.9-1,.2-2,.3-2.9.3-2.6,0-5.1-.7-7.3-2.2-6.3-4-8.2-12.5-4.1-18.8.8-1.3,1.8-2.4,3-3.3,1-.8,2.4-.6,3.2.4s.6,2.4-.4,3.2c-.8.6-1.4,1.3-2,2.2-2.7,4.2-1.5,9.9,2.7,12.6,2,1.3,4.5,1.7,6.8,1.2,2.4-.5,4.4-1.9,5.7-4,1.3-2,1.7-4.5,1.2-6.9s-1.9-4.4-4-5.7l-17.4-11.1c-1-.7-1.4-2.1-.7-3.1s2.1-1.3,3.1-.7l18.1,11.6c2.7,2,4.5,4.8,5.3,8.1.8,3.6,0,7.2-1.8,10.3ZM63.4,34.5c-.5-2.4-1.9-4.4-4-5.7-2-1.3-4.5-1.8-6.8-1.2-2.4.5-4.4,1.9-5.7,4-1.3,2-1.8,4.5-1.2,6.9.5,2.4,1.9,4.4,4,5.7l17.3,11.1c1,.7,1.4,2.1.7,3.1-.4.7-1.2,1-1.9,1s-.8,0-1.2-.4l-18.2-11.6c-2.6-2-4.5-4.8-5.2-8-.8-3.5,0-7.2,1.8-10.2,2-3.1,5-5.2,8.5-5.9,3.5-.8,7.2-.1,10.2,1.8,3.1,2,5.2,5,5.9,8.5.8,3.5,0,7.2-1.8,10.2-.8,1.3-1.8,2.4-3,3.3-1,.8-2.4.6-3.2-.4s-.6-2.4.4-3.2c.8-.6,1.4-1.4,2-2.2,1.5-2,1.9-4.4,1.4-6.8Z"/>
  </g>
  <g id="logo_x5F_rgb_x5F_farbig">
    <path id="path86" class="st2" d="M54.7.2C24.7.2.4,24.5.4,54.5s24.3,54.3,54.3,54.3,54.3-24.3,54.3-54.3C109.1,24.5,84.7.2,54.7.2Z"/>
    <g id="g104">
      <path id="path88" class="st1" d="M197,49.1c-1.9-5.4-7.1-9.1-12.8-9.1s-13.6,6.1-13.6,13.6,6.1,13.6,13.5,13.6h.3c1.1,0,4.8-.2,8.3-2.2,1.1-.6,1.4-2,.8-3.1-.6-1.1-2-1.4-3.1-.8-3,1.7-6.2,1.6-6.2,1.6h-.1c-4.2,0-7.8-2.9-8.8-6.8h20.1c1.2,0,2.2-1,2.2-2.2s0-1-.1-1.6c0-1.1-.2-2.1-.5-3ZM175.4,51.3c1-3.9,4.6-6.8,8.8-6.8s7.3,2.4,8.6,6.1c.1.2.2.5.2.7h-17.6Z"/>
      <path id="path90" class="st1" d="M284.2,40c-1.2,0-2.2,1-2.2,2.2v22.7c0,1.2,1,2.2,2.2,2.2s2.2-1,2.2-2.2v-22.7c0-1.2-1-2.2-2.2-2.2Z"/>
      <circle id="circle92" class="st1" cx="284.2" cy="29.2" r="2.7"/>
      <path id="path94" class="st1" d="M244.5,40c-7.5,0-13.6,6.1-13.6,13.6s6.1,13.6,13.6,13.6,13.6-6.1,13.6-13.6-6.1-13.6-13.6-13.6ZM244.5,62.7c-5,0-9.1-4.1-9.1-9.1s4.1-9.1,9.1-9.1,9.1,4.1,9.1,9.1-4.1,9.1-9.1,9.1Z"/>
      <path id="path96" class="st1" d="M136.4,39.9c-7.5,0-13.6,6.1-13.6,13.6v25c0,1.2,1,2.2,2.2,2.2s2.2-1,2.2-2.2v-25c0-5,4.1-9.1,9.1-9.1s9.1,4.1,9.1,9.1-4.1,9.1-9.1,9.1-2-.2-2.9-.5c-1.2-.4-2.5.2-2.9,1.4-.4,1.2.2,2.5,1.4,2.9,1.4.5,2.9.7,4.4.7,7.5,0,13.6-6.1,13.6-13.6.1-7.5-6-13.6-13.5-13.6Z"/>
      <path id="path98" class="st1" d="M225.4,26.4c-1.2,0-2.2,1-2.2,2.2v24.9c0,5-4.1,9-9,9s-9-4.1-9-9,4.1-9,9-9,2,.2,2.9.5c1.2.4,2.5-.2,2.9-1.4s-.2-2.5-1.4-2.9c-1.4-.5-2.9-.7-4.3-.7-7.5,0-13.5,6.1-13.5,13.5s6.1,13.5,13.5,13.5,13.1-5.6,13.5-12.7h0v-25.6c0-1.2-1.1-2.3-2.4-2.3Z"/>
      <path id="path100" class="st1" d="M169.2,40.7c-1.4-.5-2.9-.7-4.4-.7-8.1,0-11.7,5.6-11.7,11.1v13.8c0,1.2,1,2.2,2.2,2.2s2.2-1,2.2-2.2v-13.8c0-6.3,6-6.6,7.2-6.6s2,.2,2.9.5c1.2.4,2.5-.2,2.9-1.4.5-1.3,0-2.5-1.3-2.9Z"/>
      <path id="path102" class="st1" d="M277.4,40.7c-1.4-.5-2.9-.7-4.4-.7-8.1,0-11.7,5.6-11.7,11.1v13.8c0,1.2,1,2.2,2.2,2.2s2.2-1,2.2-2.2v-13.8c0-6.3,6-6.6,7.2-6.6s2,.2,2.9.5c1.2.4,2.5-.2,2.9-1.4.5-1.2-.1-2.5-1.3-2.9Z"/>
    </g>
    <path id="path1559" class="st5" d="M65.9,79.9c-2,3.1-5,5.2-8.5,5.9-1,.2-2,.3-2.9.3-2.6,0-5.1-.7-7.3-2.2-6.3-4-8.2-12.5-4.1-18.8.8-1.3,1.8-2.4,3-3.3,1-.8,2.4-.6,3.2.4s.6,2.4-.4,3.2c-.8.6-1.4,1.3-2,2.2-2.7,4.2-1.5,9.9,2.7,12.6,2,1.3,4.5,1.7,6.8,1.2,2.4-.5,4.4-1.9,5.7-4,1.3-2,1.7-4.5,1.2-6.9s-1.9-4.4-4-5.7l-17.4-11.1c-1-.7-1.4-2.1-.7-3.1s2.1-1.3,3.1-.7l18.1,11.6c2.7,2,4.5,4.8,5.3,8.1.8,3.6,0,7.2-1.8,10.3ZM63.4,34.5c-.5-2.4-1.9-4.4-4-5.7-2-1.3-4.5-1.8-6.8-1.2-2.4.5-4.4,1.9-5.7,4-1.3,2-1.8,4.5-1.2,6.9.5,2.4,1.9,4.4,4,5.7l17.3,11.1c1,.7,1.4,2.1.7,3.1-.4.7-1.2,1-1.9,1s-.8,0-1.2-.4l-18.2-11.6c-2.6-2-4.5-4.8-5.2-8-.8-3.5,0-7.2,1.8-10.2,2-3.1,5-5.2,8.5-5.9,3.5-.8,7.2-.1,10.2,1.8,3.1,2,5.2,5,5.9,8.5.8,3.5,0,7.2-1.8,10.2-.8,1.3-1.8,2.4-3,3.3-1,.8-2.4.6-3.2-.4s-.6-2.4.4-3.2c.8-.6,1.4-1.4,2-2.2,1.5-2,1.9-4.4,1.4-6.8Z" inkscape:connector-curvature="0"/>
  </g>
  <g id="bemassung" class="st4">
    <g id="g111">
      <path id="path109" class="st2" d="M286.6,41.2v26.7H122.9v-26.7h163.7M286.9,40.9H122.7v27.2h164.2v-27.2h0Z"/>
    </g>
    <g id="g153">
      <g id="g151">
        <g id="g149">
          <g id="g129">
            <g id="g127">
              <rect id="rect113" class="st2" x="122.7" y="65.1" width=".4" height="1.3"/>
              <rect id="rect115" class="st2" x="122.7" y="63.2" width=".4" height="1.3"/>
              <rect id="rect117" class="st2" x="122.7" y="61.3" width=".4" height="1.3"/>
              <rect id="rect119" class="st2" x="122.7" y="59.4" width=".4" height="1.3"/>
              <rect id="rect121" class="st2" x="122.7" y="57.5" width=".4" height="1.3"/>
              <rect id="rect123" class="st2" x="122.7" y="55.6" width=".4" height="1.3"/>
              <rect id="rect125" class="st2" x="122.7" y="53.7" width=".4" height="1.3"/>
            </g>
          </g>
          <g id="g147">
            <g id="g145">
              <rect id="rect131" class="st2" x="122.7" y="51.8" width=".4" height="1.3"/>
              <rect id="rect133" class="st2" x="122.7" y="49.9" width=".4" height="1.3"/>
              <rect id="rect135" class="st2" x="122.7" y="48" width=".4" height="1.3"/>
              <rect id="rect137" class="st2" x="122.7" y="46.1" width=".4" height="1.3"/>
              <rect id="rect139" class="st2" x="122.7" y="44.2" width=".4" height="1.3"/>
              <rect id="rect141" class="st2" x="122.7" y="42.3" width=".4" height="1.3"/>
              <rect id="rect143" class="st2" x="122.7" y="40.4" width=".4" height="1.3"/>
            </g>
          </g>
        </g>
      </g>
    </g>
    <g id="g411">
      <g id="g409">
        <g id="g407">
          <g id="g171">
            <g id="g169">
              <rect id="rect155" class="st2" x="285.1" y="66.8" width="1.1" height=".4"/>
              <rect id="rect157" class="st2" x="283.4" y="66.8" width="1.1" height=".4"/>
              <rect id="rect159" class="st2" x="281.8" y="66.8" width="1.1" height=".4"/>
              <rect id="rect161" class="st2" x="280.1" y="66.8" width="1.1" height=".4"/>
              <rect id="rect163" class="st2" x="278.4" y="66.8" width="1.1" height=".4"/>
              <rect id="rect165" class="st2" x="276.8" y="66.8" width="1.1" height=".4"/>
              <rect id="rect167" class="st2" x="275.1" y="66.8" width="1.1" height=".4"/>
            </g>
          </g>
          <g id="g189">
            <g id="g187">
              <rect id="rect173" class="st2" x="273.4" y="66.8" width="1.1" height=".4"/>
              <rect id="rect175" class="st2" x="271.8" y="66.8" width="1.1" height=".4"/>
              <rect id="rect177" class="st2" x="270.1" y="66.8" width="1.1" height=".4"/>
              <rect id="rect179" class="st2" x="268.4" y="66.8" width="1.1" height=".4"/>
              <rect id="rect181" class="st2" x="266.8" y="66.8" width="1.1" height=".4"/>
              <rect id="rect183" class="st2" x="265.1" y="66.8" width="1.1" height=".4"/>
              <rect id="rect185" class="st2" x="263.4" y="66.8" width="1.1" height=".4"/>
            </g>
          </g>
          <g id="g207">
            <g id="g205">
              <rect id="rect191" class="st2" x="261.8" y="66.8" width="1.1" height=".4"/>
              <rect id="rect193" class="st2" x="260.1" y="66.8" width="1.1" height=".4"/>
              <rect id="rect195" class="st2" x="258.4" y="66.8" width="1.1" height=".4"/>
              <rect id="rect197" class="st2" x="256.8" y="66.8" width="1.1" height=".4"/>
              <rect id="rect199" class="st2" x="255.1" y="66.8" width="1.1" height=".4"/>
              <rect id="rect201" class="st2" x="253.4" y="66.8" width="1.1" height=".4"/>
              <rect id="rect203" class="st2" x="251.8" y="66.8" width="1.1" height=".4"/>
            </g>
          </g>
          <g id="g225">
            <g id="g223">
              <rect id="rect209" class="st2" x="250.1" y="66.8" width="1.1" height=".4"/>
              <rect id="rect211" class="st2" x="248.4" y="66.8" width="1.1" height=".4"/>
              <rect id="rect213" class="st2" x="246.8" y="66.8" width="1.1" height=".4"/>
              <rect id="rect215" class="st2" x="245.1" y="66.8" width="1.1" height=".4"/>
              <rect id="rect217" class="st2" x="243.4" y="66.8" width="1.1" height=".4"/>
              <rect id="rect219" class="st2" x="241.8" y="66.8" width="1.1" height=".4"/>
              <rect id="rect221" class="st2" x="240.1" y="66.8" width="1.1" height=".4"/>
            </g>
          </g>
          <g id="g243">
            <g id="g241">
              <rect id="rect227" class="st2" x="238.4" y="66.8" width="1.1" height=".4"/>
              <rect id="rect229" class="st2" x="236.8" y="66.8" width="1.1" height=".4"/>
              <rect id="rect231" class="st2" x="235.1" y="66.8" width="1.1" height=".4"/>
              <rect id="rect233" class="st2" x="233.4" y="66.8" width="1.1" height=".4"/>
              <rect id="rect235" class="st2" x="231.8" y="66.8" width="1.1" height=".4"/>
              <rect id="rect237" class="st2" x="230.1" y="66.8" width="1.1" height=".4"/>
              <rect id="rect239" class="st2" x="228.4" y="66.8" width="1.1" height=".4"/>
            </g>
          </g>
          <g id="g261">
            <g id="g259">
              <rect id="rect245" class="st2" x="226.8" y="66.8" width="1.1" height=".4"/>
              <rect id="rect247" class="st2" x="225.1" y="66.8" width="1.1" height=".4"/>
              <rect id="rect249" class="st2" x="223.4" y="66.8" width="1.1" height=".4"/>
              <rect id="rect251" class="st2" x="221.8" y="66.8" width="1.1" height=".4"/>
              <rect id="rect253" class="st2" x="220.1" y="66.8" width="1.1" height=".4"/>
              <rect id="rect255" class="st2" x="218.4" y="66.8" width="1.1" height=".4"/>
              <rect id="rect257" class="st2" x="216.8" y="66.8" width="1.1" height=".4"/>
            </g>
          </g>
          <g id="g279">
            <g id="g277">
              <rect id="rect263" class="st2" x="215.1" y="66.8" width="1.1" height=".4"/>
              <rect id="rect265" class="st2" x="213.5" y="66.8" width="1.1" height=".4"/>
              <rect id="rect267" class="st2" x="211.8" y="66.8" width="1.1" height=".4"/>
              <rect id="rect269" class="st2" x="210.1" y="66.8" width="1.1" height=".4"/>
              <rect id="rect271" class="st2" x="208.5" y="66.8" width="1.1" height=".4"/>
              <rect id="rect273" class="st2" x="206.8" y="66.8" width="1.1" height=".4"/>
              <rect id="rect275" class="st2" x="205.1" y="66.8" width="1.1" height=".4"/>
            </g>
          </g>
          <g id="g297">
            <g id="g295">
              <rect id="rect281" class="st2" x="203.5" y="66.8" width="1.1" height=".4"/>
              <rect id="rect283" class="st2" x="201.8" y="66.8" width="1.1" height=".4"/>
              <rect id="rect285" class="st2" x="200.1" y="66.8" width="1.1" height=".4"/>
              <rect id="rect287" class="st2" x="198.5" y="66.8" width="1.1" height=".4"/>
              <rect id="rect289" class="st2" x="196.8" y="66.8" width="1.1" height=".4"/>
              <rect id="rect291" class="st2" x="195.1" y="66.8" width="1.1" height=".4"/>
              <rect id="rect293" class="st2" x="193.5" y="66.8" width="1.1" height=".4"/>
            </g>
          </g>
          <g id="g315">
            <g id="g313">
              <rect id="rect299" class="st2" x="191.8" y="66.8" width="1.1" height=".4"/>
              <rect id="rect301" class="st2" x="190.1" y="66.8" width="1.1" height=".4"/>
              <rect id="rect303" class="st2" x="188.5" y="66.8" width="1.1" height=".4"/>
              <rect id="rect305" class="st2" x="186.8" y="66.8" width="1.1" height=".4"/>
              <rect id="rect307" class="st2" x="185.1" y="66.8" width="1.1" height=".4"/>
              <rect id="rect309" class="st2" x="183.5" y="66.8" width="1.1" height=".4"/>
              <rect id="rect311" class="st2" x="181.8" y="66.8" width="1.1" height=".4"/>
            </g>
          </g>
          <g id="g333">
            <g id="g331">
              <rect id="rect317" class="st2" x="180.1" y="66.8" width="1.1" height=".4"/>
              <rect id="rect319" class="st2" x="178.5" y="66.8" width="1.1" height=".4"/>
              <rect id="rect321" class="st2" x="176.8" y="66.8" width="1.1" height=".4"/>
              <rect id="rect323" class="st2" x="175.1" y="66.8" width="1.1" height=".4"/>
              <rect id="rect325" class="st2" x="173.5" y="66.8" width="1.1" height=".4"/>
              <rect id="rect327" class="st2" x="171.8" y="66.8" width="1.1" height=".4"/>
              <rect id="rect329" class="st2" x="170.1" y="66.8" width="1.1" height=".4"/>
            </g>
          </g>
          <g id="g351">
            <g id="g349">
              <rect id="rect335" class="st2" x="168.5" y="66.8" width="1.1" height=".4"/>
              <rect id="rect337" class="st2" x="166.8" y="66.8" width="1.1" height=".4"/>
              <rect id="rect339" class="st2" x="165.1" y="66.8" width="1.1" height=".4"/>
              <rect id="rect341" class="st2" x="163.5" y="66.8" width="1.1" height=".4"/>
              <rect id="rect343" class="st2" x="161.8" y="66.8" width="1.1" height=".4"/>
              <rect id="rect345" class="st2" x="160.1" y="66.8" width="1.1" height=".4"/>
              <rect id="rect347" class="st2" x="158.5" y="66.8" width="1.1" height=".4"/>
            </g>
          </g>
          <g id="g369">
            <g id="g367">
              <rect id="rect353" class="st2" x="156.8" y="66.8" width="1.1" height=".4"/>
              <rect id="rect355" class="st2" x="155.1" y="66.8" width="1.1" height=".4"/>
              <rect id="rect357" class="st2" x="153.5" y="66.8" width="1.1" height=".4"/>
              <rect id="rect359" class="st2" x="151.8" y="66.8" width="1.1" height=".4"/>
              <rect id="rect361" class="st2" x="150.1" y="66.8" width="1.1" height=".4"/>
              <rect id="rect363" class="st2" x="148.5" y="66.8" width="1.1" height=".4"/>
              <rect id="rect365" class="st2" x="146.8" y="66.8" width="1.1" height=".4"/>
            </g>
          </g>
          <g id="g387">
            <g id="g385">
              <rect id="rect371" class="st2" x="145.1" y="66.8" width="1.1" height=".4"/>
              <rect id="rect373" class="st2" x="143.5" y="66.8" width="1.1" height=".4"/>
              <rect id="rect375" class="st2" x="141.8" y="66.8" width="1.1" height=".4"/>
              <rect id="rect377" class="st2" x="140.1" y="66.8" width="1.1" height=".4"/>
              <rect id="rect379" class="st2" x="138.5" y="66.8" width="1.1" height=".4"/>
              <rect id="rect381" class="st2" x="136.8" y="66.8" width="1.1" height=".4"/>
              <rect id="rect383" class="st2" x="135.1" y="66.8" width="1.1" height=".4"/>
            </g>
          </g>
          <g id="g405">
            <g id="g403">
              <rect id="rect389" class="st2" x="133.5" y="66.8" width="1.1" height=".4"/>
              <rect id="rect391" class="st2" x="131.8" y="66.8" width="1.1" height=".4"/>
              <rect id="rect393" class="st2" x="130.1" y="66.8" width="1.1" height=".4"/>
              <rect id="rect395" class="st2" x="128.5" y="66.8" width="1.1" height=".4"/>
              <rect id="rect397" class="st2" x="126.8" y="66.8" width="1.1" height=".4"/>
              <rect id="rect399" class="st2" x="125.1" y="66.8" width="1.1" height=".4"/>
              <rect id="rect401" class="st2" x="123.5" y="66.8" width="1.1" height=".4"/>
            </g>
          </g>
        </g>
      </g>
    </g>
    <g id="g453">
      <g id="g451">
        <g id="g449">
          <g id="g429">
            <g id="g427">
              <rect id="rect413" class="st2" x="286.5" y="39.7" width=".4" height="1.3"/>
              <rect id="rect415" class="st2" x="286.5" y="41.7" width=".4" height="1.3"/>
              <rect id="rect417" class="st2" x="286.5" y="43.6" width=".4" height="1.3"/>
              <rect id="rect419" class="st2" x="286.5" y="45.6" width=".4" height="1.3"/>
              <rect id="rect421" class="st2" x="286.5" y="47.5" width=".4" height="1.3"/>
              <rect id="rect423" class="st2" x="286.5" y="49.4" width=".4" height="1.3"/>
              <rect id="rect425" class="st2" x="286.5" y="51.4" width=".4" height="1.3"/>
            </g>
          </g>
          <g id="g447">
            <g id="g445">
              <rect id="rect431" class="st2" x="286.5" y="53.3" width=".4" height="1.3"/>
              <rect id="rect433" class="st2" x="286.5" y="55.3" width=".4" height="1.3"/>
              <rect id="rect435" class="st2" x="286.5" y="57.2" width=".4" height="1.3"/>
              <rect id="rect437" class="st2" x="286.5" y="59.2" width=".4" height="1.3"/>
              <rect id="rect439" class="st2" x="286.5" y="61.1" width=".4" height="1.3"/>
              <rect id="rect441" class="st2" x="286.5" y="63.1" width=".4" height="1.3"/>
              <rect id="rect443" class="st2" x="286.5" y="65" width=".4" height="1.3"/>
            </g>
          </g>
        </g>
      </g>
    </g>
    <g id="g711">
      <g id="g709">
        <g id="g707">
          <g id="g471">
            <g id="g469">
              <rect id="rect455" class="st2" x="122.7" y="39.7" width="1.1" height=".4"/>
              <rect id="rect457" class="st2" x="124.3" y="39.7" width="1.1" height=".4"/>
              <rect id="rect459" class="st2" x="126" y="39.7" width="1.1" height=".4"/>
              <rect id="rect461" class="st2" x="127.7" y="39.7" width="1.1" height=".4"/>
              <rect id="rect463" class="st2" x="129.4" y="39.7" width="1.1" height=".4"/>
              <rect id="rect465" class="st2" x="131" y="39.7" width="1.1" height=".4"/>
              <rect id="rect467" class="st2" x="132.7" y="39.7" width="1.1" height=".4"/>
            </g>
          </g>
          <g id="g489">
            <g id="g487">
              <rect id="rect473" class="st2" x="134.4" y="39.7" width="1.1" height=".4"/>
              <rect id="rect475" class="st2" x="136.1" y="39.7" width="1.1" height=".4"/>
              <rect id="rect477" class="st2" x="137.8" y="39.7" width="1.1" height=".4"/>
              <rect id="rect479" class="st2" x="139.4" y="39.7" width="1.1" height=".4"/>
              <rect id="rect481" class="st2" x="141.1" y="39.7" width="1.1" height=".4"/>
              <rect id="rect483" class="st2" x="142.8" y="39.7" width="1.1" height=".4"/>
              <rect id="rect485" class="st2" x="144.5" y="39.7" width="1.1" height=".4"/>
            </g>
          </g>
          <g id="g507">
            <g id="g505">
              <rect id="rect491" class="st2" x="146.1" y="39.7" width="1.1" height=".4"/>
              <rect id="rect493" class="st2" x="147.8" y="39.7" width="1.1" height=".4"/>
              <rect id="rect495" class="st2" x="149.5" y="39.7" width="1.1" height=".4"/>
              <rect id="rect497" class="st2" x="151.2" y="39.7" width="1.1" height=".4"/>
              <rect id="rect499" class="st2" x="152.8" y="39.7" width="1.1" height=".4"/>
              <rect id="rect501" class="st2" x="154.5" y="39.7" width="1.1" height=".4"/>
              <rect id="rect503" class="st2" x="156.2" y="39.7" width="1.1" height=".4"/>
            </g>
          </g>
          <g id="g525">
            <g id="g523">
              <rect id="rect509" class="st2" x="157.9" y="39.7" width="1.1" height=".4"/>
              <rect id="rect511" class="st2" x="159.5" y="39.7" width="1.1" height=".4"/>
              <rect id="rect513" class="st2" x="161.2" y="39.7" width="1.1" height=".4"/>
              <rect id="rect515" class="st2" x="162.9" y="39.7" width="1.1" height=".4"/>
              <rect id="rect517" class="st2" x="164.6" y="39.7" width="1.1" height=".4"/>
              <rect id="rect519" class="st2" x="166.2" y="39.7" width="1.1" height=".4"/>
              <rect id="rect521" class="st2" x="167.9" y="39.7" width="1.1" height=".4"/>
            </g>
          </g>
          <g id="g543">
            <g id="g541">
              <rect id="rect527" class="st2" x="169.6" y="39.7" width="1.1" height=".4"/>
              <rect id="rect529" class="st2" x="171.3" y="39.7" width="1.1" height=".4"/>
              <rect id="rect531" class="st2" x="172.9" y="39.7" width="1.1" height=".4"/>
              <rect id="rect533" class="st2" x="174.6" y="39.7" width="1.1" height=".4"/>
              <rect id="rect535" class="st2" x="176.3" y="39.7" width="1.1" height=".4"/>
              <rect id="rect537" class="st2" x="178" y="39.7" width="1.1" height=".4"/>
              <rect id="rect539" class="st2" x="179.6" y="39.7" width="1.1" height=".4"/>
            </g>
          </g>
          <g id="g561">
            <g id="g559">
              <rect id="rect545" class="st2" x="181.3" y="39.7" width="1.1" height=".4"/>
              <rect id="rect547" class="st2" x="183" y="39.7" width="1.1" height=".4"/>
              <rect id="rect549" class="st2" x="184.7" y="39.7" width="1.1" height=".4"/>
              <rect id="rect551" class="st2" x="186.3" y="39.7" width="1.1" height=".4"/>
              <rect id="rect553" class="st2" x="188" y="39.7" width="1.1" height=".4"/>
              <rect id="rect555" class="st2" x="189.7" y="39.7" width="1.1" height=".4"/>
              <rect id="rect557" class="st2" x="191.4" y="39.7" width="1.1" height=".4"/>
            </g>
          </g>
          <g id="g579">
            <g id="g577">
              <rect id="rect563" class="st2" x="193.1" y="39.7" width="1.1" height=".4"/>
              <rect id="rect565" class="st2" x="194.7" y="39.7" width="1.1" height=".4"/>
              <rect id="rect567" class="st2" x="196.4" y="39.7" width="1.1" height=".4"/>
              <rect id="rect569" class="st2" x="198.1" y="39.7" width="1.1" height=".4"/>
              <rect id="rect571" class="st2" x="199.8" y="39.7" width="1.1" height=".4"/>
              <rect id="rect573" class="st2" x="201.4" y="39.7" width="1.1" height=".4"/>
              <rect id="rect575" class="st2" x="203.1" y="39.7" width="1.1" height=".4"/>
            </g>
          </g>
          <g id="g597">
            <g id="g595">
              <rect id="rect581" class="st2" x="204.8" y="39.7" width="1.1" height=".4"/>
              <rect id="rect583" class="st2" x="206.5" y="39.7" width="1.1" height=".4"/>
              <rect id="rect585" class="st2" x="208.1" y="39.7" width="1.1" height=".4"/>
              <rect id="rect587" class="st2" x="209.8" y="39.7" width="1.1" height=".4"/>
              <rect id="rect589" class="st2" x="211.5" y="39.7" width="1.1" height=".4"/>
              <rect id="rect591" class="st2" x="213.2" y="39.7" width="1.1" height=".4"/>
              <rect id="rect593" class="st2" x="214.8" y="39.7" width="1.1" height=".4"/>
            </g>
          </g>
          <g id="g615">
            <g id="g613">
              <rect id="rect599" class="st2" x="216.5" y="39.7" width="1.1" height=".4"/>
              <rect id="rect601" class="st2" x="218.2" y="39.7" width="1.1" height=".4"/>
              <rect id="rect603" class="st2" x="219.9" y="39.7" width="1.1" height=".4"/>
              <rect id="rect605" class="st2" x="221.5" y="39.7" width="1.1" height=".4"/>
              <rect id="rect607" class="st2" x="223.2" y="39.7" width="1.1" height=".4"/>
              <rect id="rect609" class="st2" x="224.9" y="39.7" width="1.1" height=".4"/>
              <rect id="rect611" class="st2" x="226.6" y="39.7" width="1.1" height=".4"/>
            </g>
          </g>
          <g id="g633">
            <g id="g631">
              <rect id="rect617" class="st2" x="228.2" y="39.7" width="1.1" height=".4"/>
              <rect id="rect619" class="st2" x="229.9" y="39.7" width="1.1" height=".4"/>
              <rect id="rect621" class="st2" x="231.6" y="39.7" width="1.1" height=".4"/>
              <rect id="rect623" class="st2" x="233.3" y="39.7" width="1.1" height=".4"/>
              <rect id="rect625" class="st2" x="234.9" y="39.7" width="1.1" height=".4"/>
              <rect id="rect627" class="st2" x="236.6" y="39.7" width="1.1" height=".4"/>
              <rect id="rect629" class="st2" x="238.3" y="39.7" width="1.1" height=".4"/>
            </g>
          </g>
          <g id="g651">
            <g id="g649">
              <rect id="rect635" class="st2" x="240" y="39.7" width="1.1" height=".4"/>
              <rect id="rect637" class="st2" x="241.6" y="39.7" width="1.1" height=".4"/>
              <rect id="rect639" class="st2" x="243.3" y="39.7" width="1.1" height=".4"/>
              <rect id="rect641" class="st2" x="245" y="39.7" width="1.1" height=".4"/>
              <rect id="rect643" class="st2" x="246.7" y="39.7" width="1.1" height=".4"/>
              <rect id="rect645" class="st2" x="248.4" y="39.7" width="1.1" height=".4"/>
              <rect id="rect647" class="st2" x="250" y="39.7" width="1.1" height=".4"/>
            </g>
          </g>
          <g id="g669">
            <g id="g667">
              <rect id="rect653" class="st2" x="251.7" y="39.7" width="1.1" height=".4"/>
              <rect id="rect655" class="st2" x="253.4" y="39.7" width="1.1" height=".4"/>
              <rect id="rect657" class="st2" x="255.1" y="39.7" width="1.1" height=".4"/>
              <rect id="rect659" class="st2" x="256.7" y="39.7" width="1.1" height=".4"/>
              <rect id="rect661" class="st2" x="258.4" y="39.7" width="1.1" height=".4"/>
              <rect id="rect663" class="st2" x="260.1" y="39.7" width="1.1" height=".4"/>
              <rect id="rect665" class="st2" x="261.8" y="39.7" width="1.1" height=".4"/>
            </g>
          </g>
          <g id="g687">
            <g id="g685">
              <rect id="rect671" class="st2" x="263.4" y="39.7" width="1.1" height=".4"/>
              <rect id="rect673" class="st2" x="265.1" y="39.7" width="1.1" height=".4"/>
              <rect id="rect675" class="st2" x="266.8" y="39.7" width="1.1" height=".4"/>
              <rect id="rect677" class="st2" x="268.5" y="39.7" width="1.1" height=".4"/>
              <rect id="rect679" class="st2" x="270.1" y="39.7" width="1.1" height=".4"/>
              <rect id="rect681" class="st2" x="271.8" y="39.7" width="1.1" height=".4"/>
              <rect id="rect683" class="st2" x="273.5" y="39.7" width="1.1" height=".4"/>
            </g>
          </g>
          <g id="g705">
            <g id="g703">
              <rect id="rect689" class="st2" x="275.2" y="39.7" width="1.1" height=".4"/>
              <rect id="rect691" class="st2" x="276.8" y="39.7" width="1.1" height=".4"/>
              <rect id="rect693" class="st2" x="278.5" y="39.7" width="1.1" height=".4"/>
              <rect id="rect695" class="st2" x="280.2" y="39.7" width="1.1" height=".4"/>
              <rect id="rect697" class="st2" x="281.9" y="39.7" width="1.1" height=".4"/>
              <rect id="rect699" class="st2" x="283.5" y="39.7" width="1.1" height=".4"/>
              <rect id="rect701" class="st2" x="285.2" y="39.7" width="1.1" height=".4"/>
            </g>
          </g>
        </g>
      </g>
    </g>
    <rect id="rect715" class="st3" x="286.9" y="-27" width="27.2" height="27.2"/>
    <rect id="rect717" class="st3" x="-27" y="108.8" width="27.2" height="27.2"/>
    <rect id="rect719" class="st3" x="-27" y="40.9" width="27.2" height="27.2"/>
    <rect id="rect721" class="st3" x="40.8" y="108.8" width="27.2" height="27.2"/>
  </g>
</svg>