<?xml version="1.0" encoding="UTF-8"?> <!-- Generator: Adobe Illustrator 26.0.0, SVG Export Plug-In . SVG Version: 6.00 Build 0) --> <svg xmlns:cc="http://creativecommons.org/ns#" xmlns:dc="http://purl.org/dc/elements/1.1/" xmlns:inkscape="http://www.inkscape.org/namespaces/inkscape" xmlns:rdf="http://www.w3.org/1999/02/22-rdf-syntax-ns#" xmlns:sodipodi="http://sodipodi.sourceforge.net/DTD/sodipodi-0.dtd" xmlns:svg="http://www.w3.org/2000/svg" xmlns="http://www.w3.org/2000/svg" xmlns:xlink="http://www.w3.org/1999/xlink" version="1.1" id="svg728" x="0px" y="0px" viewBox="0 0 287.7 109.1" style="enable-background:new 0 0 287.7 109.1;" xml:space="preserve"> <style type="text/css"> .st0{display:none;} .st1{display:inline;fill:#FFFFFF;} .st2{display:inline;} .st3{fill:#FFFFFF;} .st4{display:inline;fill:#B0B0B0;} .st5{fill:#B0B0B0;} .st6{fill:#00FF69;} .st7{display:inline;fill:#00FF69;} .st8{fill:#00274D;} .st9{display:inline;opacity:0.5;fill:#373C64;enable-background:new ;} .st10{display:inline;opacity:0.5;fill:#69FF64;enable-background:new ;} </style> <g id="logo_x5F_rgb_x5F_weiss" class="st0"> <path id="path2" class="st1" d="M54.7,0.2c-30,0-54.3,24.3-54.3,54.3s24.3,54.3,54.3,54.3S109,84.5,109,54.5 C109.1,24.5,84.7,0.2,54.7,0.2z M65.9,79.9c-2,3.1-5,5.2-8.5,5.9c-1,0.2-2,0.3-2.9,0.3c-2.6,0-5.1-0.7-7.3-2.2 c-6.3-4-8.2-12.5-4.1-18.8c0.8-1.3,1.8-2.4,3-3.3c1-0.8,2.4-0.6,3.2,0.4s0.6,2.4-0.4,3.2c-0.8,0.6-1.4,1.3-2,2.2 c-2.7,4.2-1.5,9.9,2.7,12.6c2,1.3,4.5,1.7,6.8,1.2c2.4-0.5,4.4-1.9,5.7-4c1.3-2,1.7-4.5,1.2-6.9s-1.9-4.4-4-5.7L41.9,53.7 c-1-0.7-1.4-2.1-0.7-3.1s2.1-1.3,3.1-0.7l18.1,11.6c2.7,2,4.5,4.8,5.3,8.1C68.5,73.2,67.8,76.8,65.9,79.9z M63.4,34.5 c-0.5-2.4-1.9-4.4-4-5.7c-2-1.3-4.5-1.8-6.8-1.2c-2.4,0.5-4.4,1.9-5.7,4c-1.3,2-1.8,4.5-1.2,6.9c0.5,2.4,1.9,4.4,4,5.7L67,55.3 c1,0.7,1.4,2.1,0.7,3.1c-0.4,0.7-1.2,1-1.9,1c-0.4,0-0.8-0.1-1.2-0.4L46.4,47.4c-2.6-2-4.5-4.8-5.2-8c-0.8-3.5-0.1-7.2,1.8-10.2 c2-3.1,5-5.2,8.5-5.9c3.5-0.8,7.2-0.1,10.2,1.8c3.1,2,5.2,5,5.9,8.5c0.8,3.5,0.1,7.2-1.8,10.2c-0.8,1.3-1.8,2.4-3,3.3 c-1,0.8-2.4,0.6-3.2-0.4S59,44.3,60,43.5c0.8-0.6,1.4-1.4,2-2.2C63.5,39.3,63.9,36.9,63.4,34.5z"></path> <g id="g20" class="st2"> <path id="path4" class="st3" d="M197,49.1c-1.9-5.4-7.1-9.1-12.8-9.1c-7.5,0-13.6,6.1-13.6,13.6s6.1,13.6,13.5,13.6 c0.1,0,0.1,0,0.3,0c1.1,0,4.8-0.2,8.3-2.2c1.1-0.6,1.4-2,0.8-3.1c-0.6-1.1-2-1.4-3.1-0.8c-3,1.7-6.2,1.6-6.2,1.6h-0.1 c-4.2,0-7.8-2.9-8.8-6.8h20.1c1.2,0,2.2-1,2.2-2.2c0-0.5,0-1-0.1-1.6C197.5,51,197.3,50,197,49.1z M175.4,51.3 c1-3.9,4.6-6.8,8.8-6.8c3.9,0,7.3,2.4,8.6,6.1c0.1,0.2,0.2,0.5,0.2,0.7H175.4z"></path> <path id="path6" class="st3" d="M284.2,40c-1.2,0-2.2,1-2.2,2.2v22.7c0,1.2,1,2.2,2.2,2.2s2.2-1,2.2-2.2V42.2 C286.4,41,285.4,40,284.2,40z"></path> <circle id="circle8" class="st3" cx="284.2" cy="29.2" r="2.7"></circle> <path id="path10" class="st3" d="M244.5,40c-7.5,0-13.6,6.1-13.6,13.6s6.1,13.6,13.6,13.6s13.6-6.1,13.6-13.6S252,40,244.5,40z M244.5,62.7c-5,0-9.1-4.1-9.1-9.1s4.1-9.1,9.1-9.1s9.1,4.1,9.1,9.1S249.5,62.7,244.5,62.7z"></path> <path id="path12" class="st3" d="M136.4,39.9c-7.5,0-13.6,6.1-13.6,13.6v25c0,1.2,1,2.2,2.2,2.2s2.2-1,2.2-2.2v-25 c0-5,4.1-9.1,9.1-9.1s9.1,4.1,9.1,9.1s-4.1,9.1-9.1,9.1c-1,0-2-0.2-2.9-0.5c-1.2-0.4-2.5,0.2-2.9,1.4c-0.4,1.2,0.2,2.5,1.4,2.9 c1.4,0.5,2.9,0.7,4.4,0.7c7.5,0,13.6-6.1,13.6-13.6C150,46,143.9,39.9,136.4,39.9z"></path> <path id="path14" class="st3" d="M225.4,26.4c-1.2,0-2.2,1-2.2,2.2v24.9c0,5-4.1,9-9,9s-9-4.1-9-9c0-5,4.1-9,9-9 c1,0,2,0.2,2.9,0.5c1.2,0.4,2.5-0.2,2.9-1.4s-0.2-2.5-1.4-2.9c-1.4-0.5-2.9-0.7-4.3-0.7c-7.5,0-13.5,6.1-13.5,13.5 c0,7.5,6.1,13.5,13.5,13.5c7.2,0,13.1-5.6,13.5-12.7l0,0V28.7C227.7,27.5,226.7,26.4,225.4,26.4z"></path> <path id="path16" class="st3" d="M169.2,40.7c-1.4-0.5-2.9-0.7-4.4-0.7c-8.1,0-11.7,5.6-11.7,11.1v13.8c0,1.2,1,2.2,2.2,2.2 s2.2-1,2.2-2.2V51.1c0-6.3,6-6.6,7.2-6.6c1,0,2,0.2,2.9,0.5c1.2,0.4,2.5-0.2,2.9-1.4C171,42.3,170.4,41.1,169.2,40.7z"></path> <path id="path18" class="st3" d="M277.4,40.7c-1.4-0.5-2.9-0.7-4.4-0.7c-8.1,0-11.7,5.6-11.7,11.1v13.8c0,1.2,1,2.2,2.2,2.2 s2.2-1,2.2-2.2V51.1c0-6.3,6-6.6,7.2-6.6c1,0,2,0.2,2.9,0.5c1.2,0.4,2.5-0.2,2.9-1.4C279.2,42.4,278.6,41.1,277.4,40.7z"></path> </g> </g> <g id="logo_x5F_rgb_x5F_schwarz" class="st0"> <path id="path23" class="st2" d="M54.7,0.2c-30,0-54.3,24.3-54.3,54.3s24.3,54.3,54.3,54.3S109,84.5,109,54.5 C109.1,24.5,84.7,0.2,54.7,0.2z M65.9,79.9c-2,3.1-5,5.2-8.5,5.9c-1,0.2-2,0.3-2.9,0.3c-2.6,0-5.1-0.7-7.3-2.2 c-6.3-4-8.2-12.5-4.1-18.8c0.8-1.3,1.8-2.4,3-3.3c1-0.8,2.4-0.6,3.2,0.4s0.6,2.4-0.4,3.2c-0.8,0.6-1.4,1.3-2,2.2 c-2.7,4.2-1.5,9.9,2.7,12.6c2,1.3,4.5,1.7,6.8,1.2c2.4-0.5,4.4-1.9,5.7-4c1.3-2,1.7-4.5,1.2-6.9s-1.9-4.4-4-5.7L41.9,53.7 c-1-0.7-1.4-2.1-0.7-3.1s2.1-1.3,3.1-0.7l18.1,11.6c2.7,2,4.5,4.8,5.3,8.1C68.5,73.2,67.8,76.8,65.9,79.9z M63.4,34.5 c-0.5-2.4-1.9-4.4-4-5.7c-2-1.3-4.5-1.8-6.8-1.2c-2.4,0.5-4.4,1.9-5.7,4c-1.3,2-1.8,4.5-1.2,6.9c0.5,2.4,1.9,4.4,4,5.7L67,55.3 c1,0.7,1.4,2.1,0.7,3.1c-0.4,0.7-1.2,1-1.9,1c-0.4,0-0.8-0.1-1.2-0.4L46.4,47.4c-2.6-2-4.5-4.8-5.2-8c-0.8-3.5-0.1-7.2,1.8-10.2 c2-3.1,5-5.2,8.5-5.9c3.5-0.8,7.2-0.1,10.2,1.8c3.1,2,5.2,5,5.9,8.5c0.8,3.5,0.1,7.2-1.8,10.2c-0.8,1.3-1.8,2.4-3,3.3 c-1,0.8-2.4,0.6-3.2-0.4S59,44.3,60,43.5c0.8-0.6,1.4-1.4,2-2.2C63.5,39.3,63.9,36.9,63.4,34.5z"></path> <g id="g41" class="st2"> <path id="path25" d="M197,49.1c-1.9-5.4-7.1-9.1-12.8-9.1c-7.5,0-13.6,6.1-13.6,13.6s6.1,13.6,13.5,13.6c0.1,0,0.1,0,0.3,0 c1.1,0,4.8-0.2,8.3-2.2c1.1-0.6,1.4-2,0.8-3.1c-0.6-1.1-2-1.4-3.1-0.8c-3,1.7-6.2,1.6-6.2,1.6h-0.1c-4.2,0-7.8-2.9-8.8-6.8h20.1 c1.2,0,2.2-1,2.2-2.2c0-0.5,0-1-0.1-1.6C197.5,51,197.3,50,197,49.1z M175.4,51.3c1-3.9,4.6-6.8,8.8-6.8c3.9,0,7.3,2.4,8.6,6.1 c0.1,0.2,0.2,0.5,0.2,0.7H175.4z"></path> <path id="path27" d="M284.2,40c-1.2,0-2.2,1-2.2,2.2v22.7c0,1.2,1,2.2,2.2,2.2s2.2-1,2.2-2.2V42.2C286.4,41,285.4,40,284.2,40z"></path> <circle id="circle29" cx="284.2" cy="29.2" r="2.7"></circle> <path id="path31" d="M244.5,40c-7.5,0-13.6,6.1-13.6,13.6s6.1,13.6,13.6,13.6s13.6-6.1,13.6-13.6S252,40,244.5,40z M244.5,62.7 c-5,0-9.1-4.1-9.1-9.1s4.1-9.1,9.1-9.1s9.1,4.1,9.1,9.1S249.5,62.7,244.5,62.7z"></path> <path id="path33" d="M136.4,39.9c-7.5,0-13.6,6.1-13.6,13.6v25c0,1.2,1,2.2,2.2,2.2s2.2-1,2.2-2.2v-25c0-5,4.1-9.1,9.1-9.1 s9.1,4.1,9.1,9.1s-4.1,9.1-9.1,9.1c-1,0-2-0.2-2.9-0.5c-1.2-0.4-2.5,0.2-2.9,1.4c-0.4,1.2,0.2,2.5,1.4,2.9 c1.4,0.5,2.9,0.7,4.4,0.7c7.5,0,13.6-6.1,13.6-13.6C150,46,143.9,39.9,136.4,39.9z"></path> <path id="path35" d="M225.4,26.4c-1.2,0-2.2,1-2.2,2.2v24.9c0,5-4.1,9-9,9s-9-4.1-9-9c0-5,4.1-9,9-9c1,0,2,0.2,2.9,0.5 c1.2,0.4,2.5-0.2,2.9-1.4s-0.2-2.5-1.4-2.9c-1.4-0.5-2.9-0.7-4.3-0.7c-7.5,0-13.5,6.1-13.5,13.5c0,7.5,6.1,13.5,13.5,13.5 c7.2,0,13.1-5.6,13.5-12.7l0,0V28.7C227.7,27.5,226.7,26.4,225.4,26.4z"></path> <path id="path37" d="M169.2,40.7c-1.4-0.5-2.9-0.7-4.4-0.7c-8.1,0-11.7,5.6-11.7,11.1v13.8c0,1.2,1,2.2,2.2,2.2s2.2-1,2.2-2.2 V51.1c0-6.3,6-6.6,7.2-6.6c1,0,2,0.2,2.9,0.5c1.2,0.4,2.5-0.2,2.9-1.4C171,42.3,170.4,41.1,169.2,40.7z"></path> <path id="path39" d="M277.4,40.7c-1.4-0.5-2.9-0.7-4.4-0.7c-8.1,0-11.7,5.6-11.7,11.1v13.8c0,1.2,1,2.2,2.2,2.2s2.2-1,2.2-2.2 V51.1c0-6.3,6-6.6,7.2-6.6c1,0,2,0.2,2.9,0.5c1.2,0.4,2.5-0.2,2.9-1.4C279.2,42.4,278.6,41.1,277.4,40.7z"></path> </g> </g> <g id="logo_x5F_rgb_x5F_grau" class="st0"> <path id="path44" class="st4" d="M54.7,0.2c-30,0-54.3,24.3-54.3,54.3s24.3,54.3,54.3,54.3S109,84.5,109,54.5 C109.1,24.5,84.7,0.2,54.7,0.2z M65.9,79.9c-2,3.1-5,5.2-8.5,5.9c-1,0.2-2,0.3-2.9,0.3c-2.6,0-5.1-0.7-7.3-2.2 c-6.3-4-8.2-12.5-4.1-18.8c0.8-1.3,1.8-2.4,3-3.3c1-0.8,2.4-0.6,3.2,0.4s0.6,2.4-0.4,3.2c-0.8,0.6-1.4,1.3-2,2.2 c-2.7,4.2-1.5,9.9,2.7,12.6c2,1.3,4.5,1.7,6.8,1.2c2.4-0.5,4.4-1.9,5.7-4c1.3-2,1.7-4.5,1.2-6.9s-1.9-4.4-4-5.7L41.9,53.7 c-1-0.7-1.4-2.1-0.7-3.1s2.1-1.3,3.1-0.7l18.1,11.6c2.7,2,4.5,4.8,5.3,8.1C68.5,73.2,67.8,76.8,65.9,79.9z M63.4,34.5 c-0.5-2.4-1.9-4.4-4-5.7c-2-1.3-4.5-1.8-6.8-1.2c-2.4,0.5-4.4,1.9-5.7,4c-1.3,2-1.8,4.5-1.2,6.9c0.5,2.4,1.9,4.4,4,5.7L67,55.3 c1,0.7,1.4,2.1,0.7,3.1c-0.4,0.7-1.2,1-1.9,1c-0.4,0-0.8-0.1-1.2-0.4L46.4,47.4c-2.6-2-4.5-4.8-5.2-8c-0.8-3.5-0.1-7.2,1.8-10.2 c2-3.1,5-5.2,8.5-5.9c3.5-0.8,7.2-0.1,10.2,1.8c3.1,2,5.2,5,5.9,8.5c0.8,3.5,0.1,7.2-1.8,10.2c-0.8,1.3-1.8,2.4-3,3.3 c-1,0.8-2.4,0.6-3.2-0.4S59,44.3,60,43.5c0.8-0.6,1.4-1.4,2-2.2C63.5,39.3,63.9,36.9,63.4,34.5z"></path> <g id="g62" class="st2"> <path id="path46" class="st5" d="M197,49.1c-1.9-5.4-7.1-9.1-12.8-9.1c-7.5,0-13.6,6.1-13.6,13.6s6.1,13.6,13.5,13.6 c0.1,0,0.1,0,0.3,0c1.1,0,4.8-0.2,8.3-2.2c1.1-0.6,1.4-2,0.8-3.1c-0.6-1.1-2-1.4-3.1-0.8c-3,1.7-6.2,1.6-6.2,1.6h-0.1 c-4.2,0-7.8-2.9-8.8-6.8h20.1c1.2,0,2.2-1,2.2-2.2c0-0.5,0-1-0.1-1.6C197.5,51,197.3,50,197,49.1z M175.4,51.3 c1-3.9,4.6-6.8,8.8-6.8c3.9,0,7.3,2.4,8.6,6.1c0.1,0.2,0.2,0.5,0.2,0.7H175.4z"></path> <path id="path48" class="st5" d="M284.2,40c-1.2,0-2.2,1-2.2,2.2v22.7c0,1.2,1,2.2,2.2,2.2s2.2-1,2.2-2.2V42.2 C286.4,41,285.4,40,284.2,40z"></path> <circle id="circle50" class="st5" cx="284.2" cy="29.2" r="2.7"></circle> <path id="path52" class="st5" d="M244.5,40c-7.5,0-13.6,6.1-13.6,13.6s6.1,13.6,13.6,13.6s13.6-6.1,13.6-13.6S252,40,244.5,40z M244.5,62.7c-5,0-9.1-4.1-9.1-9.1s4.1-9.1,9.1-9.1s9.1,4.1,9.1,9.1S249.5,62.7,244.5,62.7z"></path> <path id="path54" class="st5" d="M136.4,39.9c-7.5,0-13.6,6.1-13.6,13.6v25c0,1.2,1,2.2,2.2,2.2s2.2-1,2.2-2.2v-25 c0-5,4.1-9.1,9.1-9.1s9.1,4.1,9.1,9.1s-4.1,9.1-9.1,9.1c-1,0-2-0.2-2.9-0.5c-1.2-0.4-2.5,0.2-2.9,1.4c-0.4,1.2,0.2,2.5,1.4,2.9 c1.4,0.5,2.9,0.7,4.4,0.7c7.5,0,13.6-6.1,13.6-13.6C150,46,143.9,39.9,136.4,39.9z"></path> <path id="path56" class="st5" d="M225.4,26.4c-1.2,0-2.2,1-2.2,2.2v24.9c0,5-4.1,9-9,9s-9-4.1-9-9c0-5,4.1-9,9-9 c1,0,2,0.2,2.9,0.5c1.2,0.4,2.5-0.2,2.9-1.4s-0.2-2.5-1.4-2.9c-1.4-0.5-2.9-0.7-4.3-0.7c-7.5,0-13.5,6.1-13.5,13.5 c0,7.5,6.1,13.5,13.5,13.5c7.2,0,13.1-5.6,13.5-12.7l0,0V28.7C227.7,27.5,226.7,26.4,225.4,26.4z"></path> <path id="path58" class="st5" d="M169.2,40.7c-1.4-0.5-2.9-0.7-4.4-0.7c-8.1,0-11.7,5.6-11.7,11.1v13.8c0,1.2,1,2.2,2.2,2.2 s2.2-1,2.2-2.2V51.1c0-6.3,6-6.6,7.2-6.6c1,0,2,0.2,2.9,0.5c1.2,0.4,2.5-0.2,2.9-1.4C171,42.3,170.4,41.1,169.2,40.7z"></path> <path id="path60" class="st5" d="M277.4,40.7c-1.4-0.5-2.9-0.7-4.4-0.7c-8.1,0-11.7,5.6-11.7,11.1v13.8c0,1.2,1,2.2,2.2,2.2 s2.2-1,2.2-2.2V51.1c0-6.3,6-6.6,7.2-6.6c1,0,2,0.2,2.9,0.5c1.2,0.4,2.5-0.2,2.9-1.4C279.2,42.4,278.6,41.1,277.4,40.7z"></path> </g> </g> <g id="logo_x5F_rgb_x5F_farbig_x5F_negativ" class="st0"> <g id="g81" class="st2"> <path id="path65" class="st6" d="M197,49.1c-1.9-5.4-7.1-9.1-12.8-9.1c-7.5,0-13.6,6.1-13.6,13.6s6.1,13.6,13.5,13.6 c0.1,0,0.1,0,0.3,0c1.1,0,4.8-0.2,8.3-2.2c1.1-0.6,1.4-2,0.8-3.1c-0.6-1.1-2-1.4-3.1-0.8c-3,1.7-6.2,1.6-6.2,1.6h-0.1 c-4.2,0-7.8-2.9-8.8-6.8h20.1c1.2,0,2.2-1,2.2-2.2c0-0.5,0-1-0.1-1.6C197.5,51,197.3,50,197,49.1z M175.4,51.3 c1-3.9,4.6-6.8,8.8-6.8c3.9,0,7.3,2.4,8.6,6.1c0.1,0.2,0.2,0.5,0.2,0.7H175.4z"></path> <path id="path67" class="st6" d="M284.2,40c-1.2,0-2.2,1-2.2,2.2v22.7c0,1.2,1,2.2,2.2,2.2s2.2-1,2.2-2.2V42.2 C286.4,41,285.4,40,284.2,40z"></path> <circle id="circle69" class="st6" cx="284.2" cy="29.2" r="2.7"></circle> <path id="path71" class="st6" d="M244.5,40c-7.5,0-13.6,6.1-13.6,13.6s6.1,13.6,13.6,13.6s13.6-6.1,13.6-13.6S252,40,244.5,40z M244.5,62.7c-5,0-9.1-4.1-9.1-9.1s4.1-9.1,9.1-9.1s9.1,4.1,9.1,9.1S249.5,62.7,244.5,62.7z"></path> <path id="path73" class="st6" d="M136.4,39.9c-7.5,0-13.6,6.1-13.6,13.6v25c0,1.2,1,2.2,2.2,2.2s2.2-1,2.2-2.2v-25 c0-5,4.1-9.1,9.1-9.1s9.1,4.1,9.1,9.1s-4.1,9.1-9.1,9.1c-1,0-2-0.2-2.9-0.5c-1.2-0.4-2.5,0.2-2.9,1.4c-0.4,1.2,0.2,2.5,1.4,2.9 c1.4,0.5,2.9,0.7,4.4,0.7c7.5,0,13.6-6.1,13.6-13.6C150,46,143.9,39.9,136.4,39.9z"></path> <path id="path75" class="st6" d="M225.4,26.4c-1.2,0-2.2,1-2.2,2.2v24.9c0,5-4.1,9-9,9s-9-4.1-9-9c0-5,4.1-9,9-9 c1,0,2,0.2,2.9,0.5c1.2,0.4,2.5-0.2,2.9-1.4s-0.2-2.5-1.4-2.9c-1.4-0.5-2.9-0.7-4.3-0.7c-7.5,0-13.5,6.1-13.5,13.5 c0,7.5,6.1,13.5,13.5,13.5c7.2,0,13.1-5.6,13.5-12.7l0,0V28.7C227.7,27.5,226.7,26.4,225.4,26.4z"></path> <path id="path77" class="st6" d="M169.2,40.7c-1.4-0.5-2.9-0.7-4.4-0.7c-8.1,0-11.7,5.6-11.7,11.1v13.8c0,1.2,1,2.2,2.2,2.2 s2.2-1,2.2-2.2V51.1c0-6.3,6-6.6,7.2-6.6c1,0,2,0.2,2.9,0.5c1.2,0.4,2.5-0.2,2.9-1.4C171,42.3,170.4,41.1,169.2,40.7z"></path> <path id="path79" class="st6" d="M277.4,40.7c-1.4-0.5-2.9-0.7-4.4-0.7c-8.1,0-11.7,5.6-11.7,11.1v13.8c0,1.2,1,2.2,2.2,2.2 s2.2-1,2.2-2.2V51.1c0-6.3,6-6.6,7.2-6.6c1,0,2,0.2,2.9,0.5c1.2,0.4,2.5-0.2,2.9-1.4C279.2,42.4,278.6,41.1,277.4,40.7z"></path> </g> <path id="path83" class="st7" d="M54.7,0.2c-30,0-54.3,24.3-54.3,54.3s24.3,54.3,54.3,54.3S109,84.5,109,54.5 C109.1,24.5,84.7,0.2,54.7,0.2z M65.9,79.9c-2,3.1-5,5.2-8.5,5.9c-1,0.2-2,0.3-2.9,0.3c-2.6,0-5.1-0.7-7.3-2.2 c-6.3-4-8.2-12.5-4.1-18.8c0.8-1.3,1.8-2.4,3-3.3c1-0.8,2.4-0.6,3.2,0.4s0.6,2.4-0.4,3.2c-0.8,0.6-1.4,1.3-2,2.2 c-2.7,4.2-1.5,9.9,2.7,12.6c2,1.3,4.5,1.7,6.8,1.2c2.4-0.5,4.4-1.9,5.7-4c1.3-2,1.7-4.5,1.2-6.9s-1.9-4.4-4-5.7L41.9,53.7 c-1-0.7-1.4-2.1-0.7-3.1s2.1-1.3,3.1-0.7l18.1,11.6c2.7,2,4.5,4.8,5.3,8.1C68.5,73.2,67.8,76.8,65.9,79.9z M63.4,34.5 c-0.5-2.4-1.9-4.4-4-5.7c-2-1.3-4.5-1.8-6.8-1.2c-2.4,0.5-4.4,1.9-5.7,4c-1.3,2-1.8,4.5-1.2,6.9c0.5,2.4,1.9,4.4,4,5.7L67,55.3 c1,0.7,1.4,2.1,0.7,3.1c-0.4,0.7-1.2,1-1.9,1c-0.4,0-0.8-0.1-1.2-0.4L46.4,47.4c-2.6-2-4.5-4.8-5.2-8c-0.8-3.5-0.1-7.2,1.8-10.2 c2-3.1,5-5.2,8.5-5.9c3.5-0.8,7.2-0.1,10.2,1.8c3.1,2,5.2,5,5.9,8.5c0.8,3.5,0.1,7.2-1.8,10.2c-0.8,1.3-1.8,2.4-3,3.3 c-1,0.8-2.4,0.6-3.2-0.4S59,44.3,60,43.5c0.8-0.6,1.4-1.4,2-2.2C63.5,39.3,63.9,36.9,63.4,34.5z"></path> </g> <g id="logo_x5F_rgb_x5F_farbig_1_"> <path id="path86" class="st6" d="M54.7,0.2c-30,0-54.3,24.3-54.3,54.3s24.3,54.3,54.3,54.3S109,84.5,109,54.5 C109.1,24.5,84.7,0.2,54.7,0.2z"></path> <g id="g104"> <path id="path88" class="st8" d="M197,49.1c-1.9-5.4-7.1-9.1-12.8-9.1c-7.5,0-13.6,6.1-13.6,13.6s6.1,13.6,13.5,13.6 c0.1,0,0.1,0,0.3,0c1.1,0,4.8-0.2,8.3-2.2c1.1-0.6,1.4-2,0.8-3.1c-0.6-1.1-2-1.4-3.1-0.8c-3,1.7-6.2,1.6-6.2,1.6h-0.1 c-4.2,0-7.8-2.9-8.8-6.8h20.1c1.2,0,2.2-1,2.2-2.2c0-0.5,0-1-0.1-1.6C197.5,51,197.3,50,197,49.1z M175.4,51.3 c1-3.9,4.6-6.8,8.8-6.8c3.9,0,7.3,2.4,8.6,6.1c0.1,0.2,0.2,0.5,0.2,0.7H175.4z"></path> <path id="path90" class="st8" d="M284.2,40c-1.2,0-2.2,1-2.2,2.2v22.7c0,1.2,1,2.2,2.2,2.2s2.2-1,2.2-2.2V42.2 C286.4,41,285.4,40,284.2,40z"></path> <circle id="circle92" class="st8" cx="284.2" cy="29.2" r="2.7"></circle> <path id="path94" class="st8" d="M244.5,40c-7.5,0-13.6,6.1-13.6,13.6s6.1,13.6,13.6,13.6s13.6-6.1,13.6-13.6S252,40,244.5,40z M244.5,62.7c-5,0-9.1-4.1-9.1-9.1s4.1-9.1,9.1-9.1s9.1,4.1,9.1,9.1S249.5,62.7,244.5,62.7z"></path> <path id="path96" class="st8" d="M136.4,39.9c-7.5,0-13.6,6.1-13.6,13.6v25c0,1.2,1,2.2,2.2,2.2s2.2-1,2.2-2.2v-25 c0-5,4.1-9.1,9.1-9.1s9.1,4.1,9.1,9.1s-4.1,9.1-9.1,9.1c-1,0-2-0.2-2.9-0.5c-1.2-0.4-2.5,0.2-2.9,1.4c-0.4,1.2,0.2,2.5,1.4,2.9 c1.4,0.5,2.9,0.7,4.4,0.7c7.5,0,13.6-6.1,13.6-13.6C150,46,143.9,39.9,136.4,39.9z"></path> <path id="path98" class="st8" d="M225.4,26.4c-1.2,0-2.2,1-2.2,2.2v24.9c0,5-4.1,9-9,9s-9-4.1-9-9c0-5,4.1-9,9-9 c1,0,2,0.2,2.9,0.5c1.2,0.4,2.5-0.2,2.9-1.4s-0.2-2.5-1.4-2.9c-1.4-0.5-2.9-0.7-4.3-0.7c-7.5,0-13.5,6.1-13.5,13.5 c0,7.5,6.1,13.5,13.5,13.5c7.2,0,13.1-5.6,13.5-12.7l0,0V28.7C227.7,27.5,226.7,26.4,225.4,26.4z"></path> <path id="path100" class="st8" d="M169.2,40.7c-1.4-0.5-2.9-0.7-4.4-0.7c-8.1,0-11.7,5.6-11.7,11.1v13.8c0,1.2,1,2.2,2.2,2.2 s2.2-1,2.2-2.2V51.1c0-6.3,6-6.6,7.2-6.6c1,0,2,0.2,2.9,0.5c1.2,0.4,2.5-0.2,2.9-1.4C171,42.3,170.4,41.1,169.2,40.7z"></path> <path id="path102" class="st8" d="M277.4,40.7c-1.4-0.5-2.9-0.7-4.4-0.7c-8.1,0-11.7,5.6-11.7,11.1v13.8c0,1.2,1,2.2,2.2,2.2 s2.2-1,2.2-2.2V51.1c0-6.3,6-6.6,7.2-6.6c1,0,2,0.2,2.9,0.5c1.2,0.4,2.5-0.2,2.9-1.4C279.2,42.4,278.6,41.1,277.4,40.7z"></path> </g> <path id="path1559" inkscape:connector-curvature="0" class="st8" d="M65.9,79.9c-2,3.1-5,5.2-8.5,5.9c-1,0.2-2,0.3-2.9,0.3 c-2.6,0-5.1-0.7-7.3-2.2c-6.3-4-8.2-12.5-4.1-18.8c0.8-1.3,1.8-2.4,3-3.3c1-0.8,2.4-0.6,3.2,0.4s0.6,2.4-0.4,3.2 c-0.8,0.6-1.4,1.3-2,2.2c-2.7,4.2-1.5,9.9,2.7,12.6c2,1.3,4.5,1.7,6.8,1.2c2.4-0.5,4.4-1.9,5.7-4c1.3-2,1.7-4.5,1.2-6.9 s-1.9-4.4-4-5.7L41.9,53.7c-1-0.7-1.4-2.1-0.7-3.1s2.1-1.3,3.1-0.7l18.1,11.6c2.7,2,4.5,4.8,5.3,8.1C68.5,73.2,67.8,76.8,65.9,79.9 z M63.4,34.5c-0.5-2.4-1.9-4.4-4-5.7c-2-1.3-4.5-1.8-6.8-1.2c-2.4,0.5-4.4,1.9-5.7,4c-1.3,2-1.8,4.5-1.2,6.9c0.5,2.4,1.9,4.4,4,5.7 L67,55.3c1,0.7,1.4,2.1,0.7,3.1c-0.4,0.7-1.2,1-1.9,1c-0.4,0-0.8-0.1-1.2-0.4L46.4,47.4c-2.6-2-4.5-4.8-5.2-8 c-0.8-3.5-0.1-7.2,1.8-10.2c2-3.1,5-5.2,8.5-5.9c3.5-0.8,7.2-0.1,10.2,1.8c3.1,2,5.2,5,5.9,8.5c0.8,3.5,0.1,7.2-1.8,10.2 c-0.8,1.3-1.8,2.4-3,3.3c-1,0.8-2.4,0.6-3.2-0.4S59,44.3,60,43.5c0.8-0.6,1.4-1.4,2-2.2C63.5,39.3,63.9,36.9,63.4,34.5z"></path> </g> <g id="bemassung" class="st0"> <g id="g111" class="st2"> <path id="path109" class="st6" d="M286.6,41.2v26.7H122.9V41.2H286.6 M286.9,40.9H122.7v27.2h164.2V40.9L286.9,40.9z"></path> </g> <g id="g153" class="st2"> <g id="g151"> <g id="g149"> <g id="g129"> <g id="g127"> <rect id="rect113" x="122.7" y="65.1" class="st6" width="0.4" height="1.3"></rect> <rect id="rect115" x="122.7" y="63.2" class="st6" width="0.4" height="1.3"></rect> <rect id="rect117" x="122.7" y="61.3" class="st6" width="0.4" height="1.3"></rect> <rect id="rect119" x="122.7" y="59.4" class="st6" width="0.4" height="1.3"></rect> <rect id="rect121" x="122.7" y="57.5" class="st6" width="0.4" height="1.3"></rect> <rect id="rect123" x="122.7" y="55.6" class="st6" width="0.4" height="1.3"></rect> <rect id="rect125" x="122.7" y="53.7" class="st6" width="0.4" height="1.3"></rect> </g> </g> <g id="g147"> <g id="g145"> <rect id="rect131" x="122.7" y="51.8" class="st6" width="0.4" height="1.3"></rect> <rect id="rect133" x="122.7" y="49.9" class="st6" width="0.4" height="1.3"></rect> <rect id="rect135" x="122.7" y="48" class="st6" width="0.4" height="1.3"></rect> <rect id="rect137" x="122.7" y="46.1" class="st6" width="0.4" height="1.3"></rect> <rect id="rect139" x="122.7" y="44.2" class="st6" width="0.4" height="1.3"></rect> <rect id="rect141" x="122.7" y="42.3" class="st6" width="0.4" height="1.3"></rect> <rect id="rect143" x="122.7" y="40.4" class="st6" width="0.4" height="1.3"></rect> </g> </g> </g> </g> </g> <g id="g411" class="st2"> <g id="g409"> <g id="g407"> <g id="g171"> <g id="g169"> <rect id="rect155" x="285.1" y="66.8" class="st6" width="1.1" height="0.4"></rect> <rect id="rect157" x="283.4" y="66.8" class="st6" width="1.1" height="0.4"></rect> <rect id="rect159" x="281.8" y="66.8" class="st6" width="1.1" height="0.4"></rect> <rect id="rect161" x="280.1" y="66.8" class="st6" width="1.1" height="0.4"></rect> <rect id="rect163" x="278.4" y="66.8" class="st6" width="1.1" height="0.4"></rect> <rect id="rect165" x="276.8" y="66.8" class="st6" width="1.1" height="0.4"></rect> <rect id="rect167" x="275.1" y="66.8" class="st6" width="1.1" height="0.4"></rect> </g> </g> <g id="g189"> <g id="g187"> <rect id="rect173" x="273.4" y="66.8" class="st6" width="1.1" height="0.4"></rect> <rect id="rect175" x="271.8" y="66.8" class="st6" width="1.1" height="0.4"></rect> <rect id="rect177" x="270.1" y="66.8" class="st6" width="1.1" height="0.4"></rect> <rect id="rect179" x="268.4" y="66.8" class="st6" width="1.1" height="0.4"></rect> <rect id="rect181" x="266.8" y="66.8" class="st6" width="1.1" height="0.4"></rect> <rect id="rect183" x="265.1" y="66.8" class="st6" width="1.1" height="0.4"></rect> <rect id="rect185" x="263.4" y="66.8" class="st6" width="1.1" height="0.4"></rect> </g> </g> <g id="g207"> <g id="g205"> <rect id="rect191" x="261.8" y="66.8" class="st6" width="1.1" height="0.4"></rect> <rect id="rect193" x="260.1" y="66.8" class="st6" width="1.1" height="0.4"></rect> <rect id="rect195" x="258.4" y="66.8" class="st6" width="1.1" height="0.4"></rect> <rect id="rect197" x="256.8" y="66.8" class="st6" width="1.1" height="0.4"></rect> <rect id="rect199" x="255.1" y="66.8" class="st6" width="1.1" height="0.4"></rect> <rect id="rect201" x="253.4" y="66.8" class="st6" width="1.1" height="0.4"></rect> <rect id="rect203" x="251.8" y="66.8" class="st6" width="1.1" height="0.4"></rect> </g> </g> <g id="g225"> <g id="g223"> <rect id="rect209" x="250.1" y="66.8" class="st6" width="1.1" height="0.4"></rect> <rect id="rect211" x="248.4" y="66.8" class="st6" width="1.1" height="0.4"></rect> <rect id="rect213" x="246.8" y="66.8" class="st6" width="1.1" height="0.4"></rect> <rect id="rect215" x="245.1" y="66.8" class="st6" width="1.1" height="0.4"></rect> <rect id="rect217" x="243.4" y="66.8" class="st6" width="1.1" height="0.4"></rect> <rect id="rect219" x="241.8" y="66.8" class="st6" width="1.1" height="0.4"></rect> <rect id="rect221" x="240.1" y="66.8" class="st6" width="1.1" height="0.4"></rect> </g> </g> <g id="g243"> <g id="g241"> <rect id="rect227" x="238.4" y="66.8" class="st6" width="1.1" height="0.4"></rect> <rect id="rect229" x="236.8" y="66.8" class="st6" width="1.1" height="0.4"></rect> <rect id="rect231" x="235.1" y="66.8" class="st6" width="1.1" height="0.4"></rect> <rect id="rect233" x="233.4" y="66.8" class="st6" width="1.1" height="0.4"></rect> <rect id="rect235" x="231.8" y="66.8" class="st6" width="1.1" height="0.4"></rect> <rect id="rect237" x="230.1" y="66.8" class="st6" width="1.1" height="0.4"></rect> <rect id="rect239" x="228.4" y="66.8" class="st6" width="1.1" height="0.4"></rect> </g> </g> <g id="g261"> <g id="g259"> <rect id="rect245" x="226.8" y="66.8" class="st6" width="1.1" height="0.4"></rect> <rect id="rect247" x="225.1" y="66.8" class="st6" width="1.1" height="0.4"></rect> <rect id="rect249" x="223.4" y="66.8" class="st6" width="1.1" height="0.4"></rect> <rect id="rect251" x="221.8" y="66.8" class="st6" width="1.1" height="0.4"></rect> <rect id="rect253" x="220.1" y="66.8" class="st6" width="1.1" height="0.4"></rect> <rect id="rect255" x="218.4" y="66.8" class="st6" width="1.1" height="0.4"></rect> <rect id="rect257" x="216.8" y="66.8" class="st6" width="1.1" height="0.4"></rect> </g> </g> <g id="g279"> <g id="g277"> <rect id="rect263" x="215.1" y="66.8" class="st6" width="1.1" height="0.4"></rect> <rect id="rect265" x="213.5" y="66.8" class="st6" width="1.1" height="0.4"></rect> <rect id="rect267" x="211.8" y="66.8" class="st6" width="1.1" height="0.4"></rect> <rect id="rect269" x="210.1" y="66.8" class="st6" width="1.1" height="0.4"></rect> <rect id="rect271" x="208.5" y="66.8" class="st6" width="1.1" height="0.4"></rect> <rect id="rect273" x="206.8" y="66.8" class="st6" width="1.1" height="0.4"></rect> <rect id="rect275" x="205.1" y="66.8" class="st6" width="1.1" height="0.4"></rect> </g> </g> <g id="g297"> <g id="g295"> <rect id="rect281" x="203.5" y="66.8" class="st6" width="1.1" height="0.4"></rect> <rect id="rect283" x="201.8" y="66.8" class="st6" width="1.1" height="0.4"></rect> <rect id="rect285" x="200.1" y="66.8" class="st6" width="1.1" height="0.4"></rect> <rect id="rect287" x="198.5" y="66.8" class="st6" width="1.1" height="0.4"></rect> <rect id="rect289" x="196.8" y="66.8" class="st6" width="1.1" height="0.4"></rect> <rect id="rect291" x="195.1" y="66.8" class="st6" width="1.1" height="0.4"></rect> <rect id="rect293" x="193.5" y="66.8" class="st6" width="1.1" height="0.4"></rect> </g> </g> <g id="g315"> <g id="g313"> <rect id="rect299" x="191.8" y="66.8" class="st6" width="1.1" height="0.4"></rect> <rect id="rect301" x="190.1" y="66.8" class="st6" width="1.1" height="0.4"></rect> <rect id="rect303" x="188.5" y="66.8" class="st6" width="1.1" height="0.4"></rect> <rect id="rect305" x="186.8" y="66.8" class="st6" width="1.1" height="0.4"></rect> <rect id="rect307" x="185.1" y="66.8" class="st6" width="1.1" height="0.4"></rect> <rect id="rect309" x="183.5" y="66.8" class="st6" width="1.1" height="0.4"></rect> <rect id="rect311" x="181.8" y="66.8" class="st6" width="1.1" height="0.4"></rect> </g> </g> <g id="g333"> <g id="g331"> <rect id="rect317" x="180.1" y="66.8" class="st6" width="1.1" height="0.4"></rect> <rect id="rect319" x="178.5" y="66.8" class="st6" width="1.1" height="0.4"></rect> <rect id="rect321" x="176.8" y="66.8" class="st6" width="1.1" height="0.4"></rect> <rect id="rect323" x="175.1" y="66.8" class="st6" width="1.1" height="0.4"></rect> <rect id="rect325" x="173.5" y="66.8" class="st6" width="1.1" height="0.4"></rect> <rect id="rect327" x="171.8" y="66.8" class="st6" width="1.1" height="0.4"></rect> <rect id="rect329" x="170.1" y="66.8" class="st6" width="1.1" height="0.4"></rect> </g> </g> <g id="g351"> <g id="g349"> <rect id="rect335" x="168.5" y="66.8" class="st6" width="1.1" height="0.4"></rect> <rect id="rect337" x="166.8" y="66.8" class="st6" width="1.1" height="0.4"></rect> <rect id="rect339" x="165.1" y="66.8" class="st6" width="1.1" height="0.4"></rect> <rect id="rect341" x="163.5" y="66.8" class="st6" width="1.1" height="0.4"></rect> <rect id="rect343" x="161.8" y="66.8" class="st6" width="1.1" height="0.4"></rect> <rect id="rect345" x="160.1" y="66.8" class="st6" width="1.1" height="0.4"></rect> <rect id="rect347" x="158.5" y="66.8" class="st6" width="1.1" height="0.4"></rect> </g> </g> <g id="g369"> <g id="g367"> <rect id="rect353" x="156.8" y="66.8" class="st6" width="1.1" height="0.4"></rect> <rect id="rect355" x="155.1" y="66.8" class="st6" width="1.1" height="0.4"></rect> <rect id="rect357" x="153.5" y="66.8" class="st6" width="1.1" height="0.4"></rect> <rect id="rect359" x="151.8" y="66.8" class="st6" width="1.1" height="0.4"></rect> <rect id="rect361" x="150.1" y="66.8" class="st6" width="1.1" height="0.4"></rect> <rect id="rect363" x="148.5" y="66.8" class="st6" width="1.1" height="0.4"></rect> <rect id="rect365" x="146.8" y="66.8" class="st6" width="1.1" height="0.4"></rect> </g> </g> <g id="g387"> <g id="g385"> <rect id="rect371" x="145.1" y="66.8" class="st6" width="1.1" height="0.4"></rect> <rect id="rect373" x="143.5" y="66.8" class="st6" width="1.1" height="0.4"></rect> <rect id="rect375" x="141.8" y="66.8" class="st6" width="1.1" height="0.4"></rect> <rect id="rect377" x="140.1" y="66.8" class="st6" width="1.1" height="0.4"></rect> <rect id="rect379" x="138.5" y="66.8" class="st6" width="1.1" height="0.4"></rect> <rect id="rect381" x="136.8" y="66.8" class="st6" width="1.1" height="0.4"></rect> <rect id="rect383" x="135.1" y="66.8" class="st6" width="1.1" height="0.4"></rect> </g> </g> <g id="g405"> <g id="g403"> <rect id="rect389" x="133.5" y="66.8" class="st6" width="1.1" height="0.4"></rect> <rect id="rect391" x="131.8" y="66.8" class="st6" width="1.1" height="0.4"></rect> <rect id="rect393" x="130.1" y="66.8" class="st6" width="1.1" height="0.4"></rect> <rect id="rect395" x="128.5" y="66.8" class="st6" width="1.1" height="0.4"></rect> <rect id="rect397" x="126.8" y="66.8" class="st6" width="1.1" height="0.4"></rect> <rect id="rect399" x="125.1" y="66.8" class="st6" width="1.1" height="0.4"></rect> <rect id="rect401" x="123.5" y="66.8" class="st6" width="1.1" height="0.4"></rect> </g> </g> </g> </g> </g> <g id="g453" class="st2"> <g id="g451"> <g id="g449"> <g id="g429"> <g id="g427"> <rect id="rect413" x="286.5" y="39.7" class="st6" width="0.4" height="1.3"></rect> <rect id="rect415" x="286.5" y="41.7" class="st6" width="0.4" height="1.3"></rect> <rect id="rect417" x="286.5" y="43.6" class="st6" width="0.4" height="1.3"></rect> <rect id="rect419" x="286.5" y="45.6" class="st6" width="0.4" height="1.3"></rect> <rect id="rect421" x="286.5" y="47.5" class="st6" width="0.4" height="1.3"></rect> <rect id="rect423" x="286.5" y="49.4" class="st6" width="0.4" height="1.3"></rect> <rect id="rect425" x="286.5" y="51.4" class="st6" width="0.4" height="1.3"></rect> </g> </g> <g id="g447"> <g id="g445"> <rect id="rect431" x="286.5" y="53.3" class="st6" width="0.4" height="1.3"></rect> <rect id="rect433" x="286.5" y="55.3" class="st6" width="0.4" height="1.3"></rect> <rect id="rect435" x="286.5" y="57.2" class="st6" width="0.4" height="1.3"></rect> <rect id="rect437" x="286.5" y="59.2" class="st6" width="0.4" height="1.3"></rect> <rect id="rect439" x="286.5" y="61.1" class="st6" width="0.4" height="1.3"></rect> <rect id="rect441" x="286.5" y="63.1" class="st6" width="0.4" height="1.3"></rect> <rect id="rect443" x="286.5" y="65" class="st6" width="0.4" height="1.3"></rect> </g> </g> </g> </g> </g> <g id="g711" class="st2"> <g id="g709"> <g id="g707"> <g id="g471"> <g id="g469"> <rect id="rect455" x="122.7" y="39.7" class="st6" width="1.1" height="0.4"></rect> <rect id="rect457" x="124.3" y="39.7" class="st6" width="1.1" height="0.4"></rect> <rect id="rect459" x="126" y="39.7" class="st6" width="1.1" height="0.4"></rect> <rect id="rect461" x="127.7" y="39.7" class="st6" width="1.1" height="0.4"></rect> <rect id="rect463" x="129.4" y="39.7" class="st6" width="1.1" height="0.4"></rect> <rect id="rect465" x="131" y="39.7" class="st6" width="1.1" height="0.4"></rect> <rect id="rect467" x="132.7" y="39.7" class="st6" width="1.1" height="0.4"></rect> </g> </g> <g id="g489"> <g id="g487"> <rect id="rect473" x="134.4" y="39.7" class="st6" width="1.1" height="0.4"></rect> <rect id="rect475" x="136.1" y="39.7" class="st6" width="1.1" height="0.4"></rect> <rect id="rect477" x="137.8" y="39.7" class="st6" width="1.1" height="0.4"></rect> <rect id="rect479" x="139.4" y="39.7" class="st6" width="1.1" height="0.4"></rect> <rect id="rect481" x="141.1" y="39.7" class="st6" width="1.1" height="0.4"></rect> <rect id="rect483" x="142.8" y="39.7" class="st6" width="1.1" height="0.4"></rect> <rect id="rect485" x="144.5" y="39.7" class="st6" width="1.1" height="0.4"></rect> </g> </g> <g id="g507"> <g id="g505"> <rect id="rect491" x="146.1" y="39.7" class="st6" width="1.1" height="0.4"></rect> <rect id="rect493" x="147.8" y="39.7" class="st6" width="1.1" height="0.4"></rect> <rect id="rect495" x="149.5" y="39.7" class="st6" width="1.1" height="0.4"></rect> <rect id="rect497" x="151.2" y="39.7" class="st6" width="1.1" height="0.4"></rect> <rect id="rect499" x="152.8" y="39.7" class="st6" width="1.1" height="0.4"></rect> <rect id="rect501" x="154.5" y="39.7" class="st6" width="1.1" height="0.4"></rect> <rect id="rect503" x="156.2" y="39.7" class="st6" width="1.1" height="0.4"></rect> </g> </g> <g id="g525"> <g id="g523"> <rect id="rect509" x="157.9" y="39.7" class="st6" width="1.1" height="0.4"></rect> <rect id="rect511" x="159.5" y="39.7" class="st6" width="1.1" height="0.4"></rect> <rect id="rect513" x="161.2" y="39.7" class="st6" width="1.1" height="0.4"></rect> <rect id="rect515" x="162.9" y="39.7" class="st6" width="1.1" height="0.4"></rect> <rect id="rect517" x="164.6" y="39.7" class="st6" width="1.1" height="0.4"></rect> <rect id="rect519" x="166.2" y="39.7" class="st6" width="1.1" height="0.4"></rect> <rect id="rect521" x="167.9" y="39.7" class="st6" width="1.1" height="0.4"></rect> </g> </g> <g id="g543"> <g id="g541"> <rect id="rect527" x="169.6" y="39.7" class="st6" width="1.1" height="0.4"></rect> <rect id="rect529" x="171.3" y="39.7" class="st6" width="1.1" height="0.4"></rect> <rect id="rect531" x="172.9" y="39.7" class="st6" width="1.1" height="0.4"></rect> <rect id="rect533" x="174.6" y="39.7" class="st6" width="1.1" height="0.4"></rect> <rect id="rect535" x="176.3" y="39.7" class="st6" width="1.1" height="0.4"></rect> <rect id="rect537" x="178" y="39.7" class="st6" width="1.1" height="0.4"></rect> <rect id="rect539" x="179.6" y="39.7" class="st6" width="1.1" height="0.4"></rect> </g> </g> <g id="g561"> <g id="g559"> <rect id="rect545" x="181.3" y="39.7" class="st6" width="1.1" height="0.4"></rect> <rect id="rect547" x="183" y="39.7" class="st6" width="1.1" height="0.4"></rect> <rect id="rect549" x="184.7" y="39.7" class="st6" width="1.1" height="0.4"></rect> <rect id="rect551" x="186.3" y="39.7" class="st6" width="1.1" height="0.4"></rect> <rect id="rect553" x="188" y="39.7" class="st6" width="1.1" height="0.4"></rect> <rect id="rect555" x="189.7" y="39.7" class="st6" width="1.1" height="0.4"></rect> <rect id="rect557" x="191.4" y="39.7" class="st6" width="1.1" height="0.4"></rect> </g> </g> <g id="g579"> <g id="g577"> <rect id="rect563" x="193.1" y="39.7" class="st6" width="1.1" height="0.4"></rect> <rect id="rect565" x="194.7" y="39.7" class="st6" width="1.1" height="0.4"></rect> <rect id="rect567" x="196.4" y="39.7" class="st6" width="1.1" height="0.4"></rect> <rect id="rect569" x="198.1" y="39.7" class="st6" width="1.1" height="0.4"></rect> <rect id="rect571" x="199.8" y="39.7" class="st6" width="1.1" height="0.4"></rect> <rect id="rect573" x="201.4" y="39.7" class="st6" width="1.1" height="0.4"></rect> <rect id="rect575" x="203.1" y="39.7" class="st6" width="1.1" height="0.4"></rect> </g> </g> <g id="g597"> <g id="g595"> <rect id="rect581" x="204.8" y="39.7" class="st6" width="1.1" height="0.4"></rect> <rect id="rect583" x="206.5" y="39.7" class="st6" width="1.1" height="0.4"></rect> <rect id="rect585" x="208.1" y="39.7" class="st6" width="1.1" height="0.4"></rect> <rect id="rect587" x="209.8" y="39.7" class="st6" width="1.1" height="0.4"></rect> <rect id="rect589" x="211.5" y="39.7" class="st6" width="1.1" height="0.4"></rect> <rect id="rect591" x="213.2" y="39.7" class="st6" width="1.1" height="0.4"></rect> <rect id="rect593" x="214.8" y="39.7" class="st6" width="1.1" height="0.4"></rect> </g> </g> <g id="g615"> <g id="g613"> <rect id="rect599" x="216.5" y="39.7" class="st6" width="1.1" height="0.4"></rect> <rect id="rect601" x="218.2" y="39.7" class="st6" width="1.1" height="0.4"></rect> <rect id="rect603" x="219.9" y="39.7" class="st6" width="1.1" height="0.4"></rect> <rect id="rect605" x="221.5" y="39.7" class="st6" width="1.1" height="0.4"></rect> <rect id="rect607" x="223.2" y="39.7" class="st6" width="1.1" height="0.4"></rect> <rect id="rect609" x="224.9" y="39.7" class="st6" width="1.1" height="0.4"></rect> <rect id="rect611" x="226.6" y="39.7" class="st6" width="1.1" height="0.4"></rect> </g> </g> <g id="g633"> <g id="g631"> <rect id="rect617" x="228.2" y="39.7" class="st6" width="1.1" height="0.4"></rect> <rect id="rect619" x="229.9" y="39.7" class="st6" width="1.1" height="0.4"></rect> <rect id="rect621" x="231.6" y="39.7" class="st6" width="1.1" height="0.4"></rect> <rect id="rect623" x="233.3" y="39.7" class="st6" width="1.1" height="0.4"></rect> <rect id="rect625" x="234.9" y="39.7" class="st6" width="1.1" height="0.4"></rect> <rect id="rect627" x="236.6" y="39.7" class="st6" width="1.1" height="0.4"></rect> <rect id="rect629" x="238.3" y="39.7" class="st6" width="1.1" height="0.4"></rect> </g> </g> <g id="g651"> <g id="g649"> <rect id="rect635" x="240" y="39.7" class="st6" width="1.1" height="0.4"></rect> <rect id="rect637" x="241.6" y="39.7" class="st6" width="1.1" height="0.4"></rect> <rect id="rect639" x="243.3" y="39.7" class="st6" width="1.1" height="0.4"></rect> <rect id="rect641" x="245" y="39.7" class="st6" width="1.1" height="0.4"></rect> <rect id="rect643" x="246.7" y="39.7" class="st6" width="1.1" height="0.4"></rect> <rect id="rect645" x="248.4" y="39.7" class="st6" width="1.1" height="0.4"></rect> <rect id="rect647" x="250" y="39.7" class="st6" width="1.1" height="0.4"></rect> </g> </g> <g id="g669"> <g id="g667"> <rect id="rect653" x="251.7" y="39.7" class="st6" width="1.1" height="0.4"></rect> <rect id="rect655" x="253.4" y="39.7" class="st6" width="1.1" height="0.4"></rect> <rect id="rect657" x="255.1" y="39.7" class="st6" width="1.1" height="0.4"></rect> <rect id="rect659" x="256.7" y="39.7" class="st6" width="1.1" height="0.4"></rect> <rect id="rect661" x="258.4" y="39.7" class="st6" width="1.1" height="0.4"></rect> <rect id="rect663" x="260.1" y="39.7" class="st6" width="1.1" height="0.4"></rect> <rect id="rect665" x="261.8" y="39.7" class="st6" width="1.1" height="0.4"></rect> </g> </g> <g id="g687"> <g id="g685"> <rect id="rect671" x="263.4" y="39.7" class="st6" width="1.1" height="0.4"></rect> <rect id="rect673" x="265.1" y="39.7" class="st6" width="1.1" height="0.4"></rect> <rect id="rect675" x="266.8" y="39.7" class="st6" width="1.1" height="0.4"></rect> <rect id="rect677" x="268.5" y="39.7" class="st6" width="1.1" height="0.4"></rect> <rect id="rect679" x="270.1" y="39.7" class="st6" width="1.1" height="0.4"></rect> <rect id="rect681" x="271.8" y="39.7" class="st6" width="1.1" height="0.4"></rect> <rect id="rect683" x="273.5" y="39.7" class="st6" width="1.1" height="0.4"></rect> </g> </g> <g id="g705"> <g id="g703"> <rect id="rect689" x="275.2" y="39.7" class="st6" width="1.1" height="0.4"></rect> <rect id="rect691" x="276.8" y="39.7" class="st6" width="1.1" height="0.4"></rect> <rect id="rect693" x="278.5" y="39.7" class="st6" width="1.1" height="0.4"></rect> <rect id="rect695" x="280.2" y="39.7" class="st6" width="1.1" height="0.4"></rect> <rect id="rect697" x="281.9" y="39.7" class="st6" width="1.1" height="0.4"></rect> <rect id="rect699" x="283.5" y="39.7" class="st6" width="1.1" height="0.4"></rect> <rect id="rect701" x="285.2" y="39.7" class="st6" width="1.1" height="0.4"></rect> </g> </g> </g> </g> </g> <rect id="rect715" x="286.9" y="-27" class="st9" width="27.2" height="27.2"></rect> <rect id="rect717" x="-27" y="108.8" class="st9" width="27.2" height="27.2"></rect> <rect id="rect719" x="-27" y="40.9" class="st9" width="27.2" height="27.2"></rect> <rect id="rect721" x="40.8" y="108.8" class="st9" width="27.2" height="27.2"></rect> <rect id="rect723" x="109.1" y="-27" class="st10" width="13.6" height="13.6"></rect> <rect id="rect725" x="314.1" y="-27" class="st10" width="13.6" height="13.6"></rect> </g> </svg> 