<svg width="244" height="44" viewBox="0 0 244 44" fill="none" xmlns="http://www.w3.org/2000/svg">
<g id="preverity 1">
<g id="Group 11">
<path id="Path 21" d="M78.4648 15.6657C86.6329 23.4363 93.1702 33.3595 95.8576 43.9991H109.211C113.019 30.0502 124.828 12.0356 139.305 0C122.669 7.65189 109.427 25.1849 102.532 35.8282C98.3908 27.9182 90.5631 18.6299 78.4648 15.6657Z" fill="#1CBF66"/>
<path id="Path 23" d="M99.9563 12.5742H105.108V16.7522H109.286V21.9037H105.108V26.0817H99.9563V21.9037H95.7773V16.7522H99.9563V12.5742Z" fill="#1D1D1D"/>
<path id="Path 24" d="M19.0077 28.727C19.0445 29.0658 19.0096 29.4085 18.9054 29.7329C18.8012 30.0574 18.6299 30.3563 18.4027 30.6103C17.7785 31.0308 17.0271 31.2203 16.2781 31.1461H5.74149V25.7552H16.1398C16.9268 25.6765 17.7174 25.8652 18.384 26.2911C18.6205 26.5538 18.7984 26.8639 18.906 27.2007C19.0135 27.5375 19.0482 27.8933 19.0077 28.2445V28.727ZM47.8292 28.727C47.8661 29.0657 47.8314 29.4084 47.7273 29.7328C47.6233 30.0573 47.4522 30.3562 47.2251 30.6103C46.6004 31.0303 45.8486 31.2188 45.0997 31.1433H32.6938V25.7552H44.9613C45.7483 25.6768 46.5388 25.8655 47.2055 26.2911C47.4419 26.5539 47.6196 26.864 47.727 27.2008C47.8344 27.5376 47.8689 27.8933 47.8283 28.2445L47.8292 28.727ZM53.8054 39.0243C53.8737 37.9398 53.678 36.8549 53.235 35.8627C52.8982 35.2199 52.3392 34.7214 51.6622 34.4601C52.3803 34.0306 52.9205 33.3577 53.1845 32.5637C53.4717 31.5175 53.5999 30.4341 53.5651 29.3498V27.69C53.5913 26.4912 53.4281 25.2957 53.0816 24.1478C52.7948 23.2242 52.2564 22.3988 51.5266 21.7643C50.7326 21.1139 49.7976 20.6582 48.7961 20.4336C47.493 20.1356 46.1586 19.9962 44.8219 20.0184H27.0271V44.0008H32.7976V36.8474H44.1318C45.1843 36.7618 46.2326 37.056 47.0868 37.6768C47.4246 38.0131 47.6847 38.4194 47.8487 38.8671C48.0126 39.3148 48.0765 39.7929 48.0359 40.2679V44.0008H53.8054V39.0243ZM56.2208 20.0156V44.0008H80.7549V39.1963H61.9595V34.014H80.1686V29.2104H61.9566V24.7846H80.7521V20.0156H56.2208ZM171.073 28.727C171.11 29.0658 171.075 29.4086 170.971 29.7331C170.867 30.0576 170.695 30.3565 170.468 30.6103C169.844 31.031 169.092 31.2205 168.343 31.1461H155.938V25.7552H168.205C168.992 25.6768 169.783 25.8655 170.449 26.2911C170.685 26.554 170.863 26.864 170.97 27.2005C171.077 27.5371 171.112 27.8926 171.071 28.2435L171.073 28.727ZM177.051 39.0243C177.119 37.9398 176.924 36.8549 176.481 35.8627C176.144 35.2195 175.585 34.7208 174.908 34.4601C175.625 34.0298 176.165 33.3571 176.429 32.5637C176.716 31.5174 176.844 30.434 176.809 29.3498V27.69C176.835 26.4912 176.672 25.2957 176.325 24.1478C176.039 23.224 175.5 22.3985 174.77 21.7643C173.977 21.1138 173.042 20.6581 172.041 20.4336C170.738 20.1356 169.404 19.9962 168.068 20.0184H150.271V44.0008H156.041V36.8474H167.376C168.428 36.7621 169.476 37.0563 170.33 37.6768C170.668 38.0131 170.928 38.4194 171.092 38.867C171.256 39.3147 171.32 39.7929 171.28 40.2679V44.0008H177.051V39.0243ZM179.926 43.9999H185.663V20.0156H179.926V43.9999ZM213.922 20.0156H188.006V24.8875H198.095V44.0008H203.832V24.8912H213.922V20.0156ZM220.942 20.0156H214.065L225.847 35.9123V44.0008H231.619V35.9123L243.126 20.0156H236.561L228.751 30.8347L220.942 20.0156ZM122.909 20.0156V44.0008H147.443V39.1963H128.648V34.014H146.857V29.2104H128.647V24.7846H147.442V20.0156H122.909ZM15.9995 20.0156H0V44.0008H5.74149V36.8819H16.3847C17.7032 36.906 19.0197 36.7725 20.3065 36.4845C21.2645 36.2769 22.1547 35.8312 22.8949 35.1885C23.5727 34.5563 24.0629 33.7493 24.3116 32.8564C24.6236 31.7141 24.7691 30.5327 24.7436 29.3488V27.69C24.7682 26.491 24.6038 25.2956 24.2564 24.1478C23.9708 23.2246 23.4336 22.3992 22.7051 21.7643C21.9113 21.1136 20.9761 20.6579 19.9746 20.4336C18.6718 20.1355 17.3377 19.9961 16.0014 20.0184" fill="#1D1D1D"/>
</g>
</g>
</svg>
