<svg width="52" height="31" viewBox="0 0 52 31" fill="none" xmlns="http://www.w3.org/2000/svg">
<g id="ynd8qe">
<g id="Group">
<path id="Vector" d="M22.6377 12.4909C23.5013 8.80878 24.3649 5.15928 25.2285 1.50976C25.2611 1.34684 25.3099 1.20026 25.3588 1.05362C25.4566 0.727773 25.701 0.548544 26.0269 0.532251C26.6624 0.499666 27.2816 0.499666 27.9171 0.532251C28.2429 0.548544 28.4385 0.744066 28.5363 1.05362C28.6666 1.46094 28.7481 1.88446 28.8459 2.29177C29.6606 5.71319 30.459 9.1347 31.2737 12.5561C31.3715 12.5235 31.3552 12.4257 31.3715 12.3768C32.2514 8.98799 33.115 5.61547 33.9949 2.22663C34.109 1.81932 34.1904 1.39572 34.3533 1.0047C34.4837 0.711433 34.6956 0.548544 35.0052 0.532251C35.6244 0.532251 36.2273 0.532251 36.8465 0.532251C37.0746 0.532251 37.1886 0.662559 37.2049 0.906947C37.2049 1.10246 37.1723 1.29793 37.1071 1.47714C35.7384 5.84353 34.386 10.21 33.0172 14.5927C32.9684 14.7393 32.9195 14.8697 32.8706 15C32.7402 15.3258 32.4958 15.4888 32.1536 15.4888C31.5344 15.4888 30.9152 15.4888 30.296 15.4888C29.9376 15.4888 29.7257 15.2769 29.628 14.9511C29.4976 14.5275 29.3999 14.0876 29.3021 13.6477C28.52 10.4218 27.7541 7.17953 26.9719 3.93733C26.9719 3.90474 26.9557 3.87223 26.9231 3.80706C26.7601 4.49134 26.6135 5.12667 26.4506 5.76208C25.7499 8.71102 25.0329 11.66 24.3322 14.6089C24.153 15.3583 23.9738 15.4888 23.2079 15.4888C22.7843 15.4888 22.3606 15.4888 21.937 15.4888C21.3015 15.4888 21.1059 15.3584 20.9104 14.7556C20.6008 13.778 20.3075 12.8005 19.9979 11.8066C18.9551 8.38521 17.9122 4.9638 16.8694 1.54238C16.8205 1.36316 16.7716 1.20022 16.7553 1.02101C16.7064 0.711449 16.8531 0.532251 17.1627 0.532251C17.7656 0.532251 18.3685 0.532251 18.9714 0.532251C19.3299 0.532251 19.5743 0.695172 19.7046 1.03731C19.9165 1.60755 20.0305 2.21032 20.1935 2.81314C21.0082 5.97389 21.8066 9.13464 22.605 12.2954C22.605 12.3443 22.6376 12.4094 22.6702 12.4909H22.6377Z" fill="white"/>
<path id="Vector_2" d="M26.4847 30.4111C21.7104 30.4111 17.4249 29.6779 13.2861 28.179C9.39176 26.7616 5.82327 24.7576 2.59696 22.1508C2.09183 21.7435 1.60299 21.3199 1.11416 20.8963C1.11416 20.8963 1.08157 20.8637 1.06527 20.8637C0.837152 20.6356 0.78829 20.375 0.934941 20.1795C1.08159 20.0002 1.34231 19.9514 1.60302 20.098C2.20592 20.4239 2.8088 20.766 3.42799 21.0918C6.57283 22.7374 9.8643 24.0082 13.2861 24.9531C15.2741 25.5071 17.2946 25.9306 19.3314 26.2239C20.8142 26.452 22.3133 26.5987 23.8124 26.6801C25.2137 26.7616 26.5987 26.7779 28.0001 26.7453C29.7436 26.6964 31.4871 26.5498 33.2306 26.3217C37.2228 25.784 41.1008 24.7739 44.8485 23.3076C45.2233 23.161 45.5981 22.9981 45.9729 22.8514C46.2336 22.7374 46.5106 22.7211 46.7713 22.8514C47.195 23.0795 47.2927 23.5846 46.9506 23.943C46.7387 24.1874 46.4454 24.3503 46.1847 24.5295C43.6428 26.2891 40.8727 27.5436 37.956 28.5049C35.6259 29.2706 33.2469 29.792 30.819 30.1015C29.2548 30.297 27.6742 30.4111 26.4684 30.4111H26.4847Z" fill="#FE9901"/>
<path id="Vector_3" d="M12.5325 13.5486C12.2392 13.8744 11.9459 14.184 11.6037 14.461C10.3328 15.5037 8.86628 15.9273 7.25312 15.8621C6.40581 15.8295 5.59105 15.6503 4.87409 15.1942C3.70089 14.461 3.09802 13.3531 2.96767 12.0008C2.8699 11.0232 2.96765 10.0783 3.45648 9.19853C4.10826 8.00918 5.13482 7.29227 6.42209 6.91754C7.53011 6.59169 8.65443 6.57538 9.77875 6.68942C10.5935 6.77089 11.3919 6.91752 12.1903 7.09674C12.2555 7.09674 12.3533 7.17822 12.3533 7.01529C12.3533 6.23325 12.4022 5.45123 12.2392 4.68548C11.9622 3.31691 11.2778 2.68146 9.87651 2.50224C8.32853 2.29044 6.86201 2.6 5.4281 3.12136C5.1348 3.23541 4.82522 3.34948 4.53192 3.44723C4.14085 3.56128 3.96164 3.44722 3.94534 3.02361C3.94534 2.69776 3.94534 2.35565 3.94534 2.0298C3.94534 1.67136 4.10827 1.42702 4.43416 1.2641C4.95558 0.987123 5.50959 0.775281 6.06361 0.612356C7.70935 0.107289 9.38766 -0.00679423 11.0823 0.270178C11.9296 0.400518 12.7281 0.677518 13.4124 1.21517C14.3738 1.96463 14.8137 2.99103 15.0256 4.1478C15.1233 4.68545 15.1559 5.2394 15.1559 5.77705C15.1559 7.48776 15.1559 9.1822 15.1559 10.8929C15.1559 11.2839 15.2048 11.6912 15.2537 12.0822C15.3352 12.7014 15.6122 13.2553 15.8892 13.7929C16.101 14.2165 16.0521 14.4773 15.6448 14.7542C15.3189 14.9823 14.993 15.1942 14.6671 15.406C14.2597 15.6666 13.9502 15.634 13.6243 15.2593C13.2821 14.8846 13.0051 14.4447 12.7932 13.9885C12.7281 13.8419 12.6466 13.7115 12.5651 13.5486H12.5325ZM9.82763 8.64454C9.0292 8.62825 8.49149 8.64456 7.95377 8.7586C7.05758 8.95411 6.34063 9.41034 6.03104 10.3227C5.86809 10.8115 5.8681 11.3002 5.93327 11.8053C6.04733 12.734 6.6828 13.4345 7.59529 13.5974C8.7685 13.7929 9.87654 13.5812 10.8705 12.9458C11.5875 12.4896 12.0925 11.8542 12.2555 10.9907C12.3696 10.3716 12.3859 9.75241 12.3859 9.1333C12.3859 9.03554 12.337 9.01931 12.2555 8.98672C11.3756 8.77492 10.4794 8.66084 9.82763 8.64454Z" fill="white"/>
<path id="Vector_4" d="M44.1615 0.0898438C45.2858 0.0898438 46.3938 0.285397 47.4529 0.643832C47.6485 0.709002 47.8277 0.790405 48.0233 0.88816C48.4958 1.13255 48.7239 1.49102 48.6913 2.04496C48.675 2.28935 48.6913 2.53376 48.675 2.77815C48.6424 3.13658 48.4632 3.25061 48.121 3.16915C47.7788 3.07139 47.453 2.89219 47.1108 2.77815C45.7257 2.32196 44.3244 2.19156 42.8905 2.51741C42.7113 2.54999 42.5483 2.63143 42.3854 2.6966C41.1144 3.23426 41.0655 5.01018 42.1084 5.69447C42.7112 6.08549 43.3793 6.31361 44.0474 6.54171C45.0088 6.86756 46.0027 7.11189 46.9478 7.50291C47.8114 7.86134 48.561 8.3827 49.0335 9.22991C50.0112 10.9406 49.555 13.2216 47.9907 14.5413C47.1434 15.2419 46.1657 15.6166 45.1065 15.7958C43.1838 16.1217 41.3099 15.861 39.485 15.1604C39.2731 15.0789 39.0776 14.9649 38.8821 14.8508C38.5725 14.6553 38.4258 14.3946 38.4258 14.0362C38.4258 13.7267 38.4258 13.4171 38.4258 13.1075C38.4258 12.6839 38.6539 12.5211 39.0613 12.6514C39.5664 12.8143 40.039 13.0586 40.5441 13.2053C41.8314 13.58 43.1512 13.7267 44.4873 13.5475C45.0251 13.466 45.5302 13.3193 45.9701 13.0098C46.9804 12.3255 47.0945 10.6311 45.8398 9.94678C45.3347 9.66981 44.7807 9.47428 44.2267 9.31135C43.249 9.00179 42.255 8.75746 41.3099 8.35015C40.039 7.8125 39.1428 6.91639 38.7517 5.58041C38.2954 4.01633 38.8495 2.37082 40.1204 1.3444C41.147 0.529773 42.3202 0.171306 43.6075 0.0898438C43.803 0.0898438 43.9985 0.0898438 44.194 0.0898438H44.1615Z" fill="white"/>
<path id="Vector_5" d="M48.0765 18.9883C48.9564 19.0046 49.82 19.0697 50.651 19.2978C51.4494 19.5259 51.6287 19.7378 51.6287 20.5687C51.6287 22.035 51.2376 23.4199 50.6836 24.7559C50.1622 26.0104 49.4452 27.1508 48.4187 28.0632C48.2883 28.1773 48.1742 28.2914 48.0113 28.3403C47.8809 28.3728 47.7506 28.3891 47.6528 28.2913C47.5551 28.1936 47.5388 28.0795 47.5877 27.9492C47.7343 27.5418 47.8972 27.1345 48.0602 26.7435C48.4838 25.6356 48.8912 24.5278 49.1356 23.3548C49.2334 22.8823 49.3149 22.4098 49.2497 21.921C49.2008 21.5952 49.0379 21.3833 48.7446 21.253C48.2883 21.0575 47.7832 21.0086 47.2943 20.9923C46.0886 20.9434 44.8991 21.0412 43.7096 21.1715C43.3348 21.2204 42.96 21.2693 42.569 21.3019C42.406 21.3182 42.2431 21.3018 42.1616 21.1552C42.0638 20.9923 42.1616 20.8456 42.2594 20.7153C42.4875 20.4546 42.7971 20.308 43.0904 20.1451C44.1332 19.5748 45.2575 19.2653 46.4307 19.1186C46.9848 19.0372 47.5388 19.0209 48.0765 19.0046V18.9883Z" fill="#FE9901"/>
</g>
</g>
</svg>
