<svg width="41" height="32" viewBox="0 0 41 32" fill="none" xmlns="http://www.w3.org/2000/svg">
<g id="lEL1iN" opacity="0.7">
<g id="Group">
<path id="Vector" d="M30.6707 4.3176C31.3674 4.7949 31.9092 5.43989 32.4382 6.08489C33.767 7.69738 34.7088 9.51622 35.2894 11.5157C35.341 11.7092 35.4572 11.8253 35.5991 11.9285C38.0762 13.7732 39.5985 16.2242 40.0372 19.2815C40.5146 22.6226 39.6373 25.6025 37.4182 28.1567C35.6507 30.1949 33.4058 31.4204 30.7352 31.8461C30.4126 31.8976 30.0772 31.9622 29.7547 31.9622C26.6841 31.9622 23.6135 31.9622 20.543 31.9622C20.543 29.6918 20.543 27.4214 20.543 25.151C20.6849 25.151 20.8139 25.1381 20.9558 25.1381C23.7297 25.1381 26.5164 25.1639 29.2902 25.1252C31.7673 25.0865 33.7154 22.6484 33.2768 20.2232C32.9155 18.2237 31.3932 16.8176 29.3547 16.637C29.1225 16.6112 29.058 16.5467 29.058 16.3145C29.058 15.8759 29.058 15.4373 29.0064 14.9987C28.7741 12.6251 27.742 10.6773 25.8971 9.16799C25.9487 9.00029 26.0906 8.90994 26.2068 8.79385C27.6904 7.29745 29.1741 5.80108 30.6707 4.30469V4.3176Z" fill="#4285F3"/>
<path id="Vector_2" d="M5.348 29.7318C3.91593 28.7256 2.85801 27.4098 2.08392 25.8618C-0.341571 21.0114 1.10339 15.1935 5.50281 11.9944C5.60603 11.917 5.69634 11.8395 5.78665 11.7621C6.30271 11.4783 6.80589 11.1687 7.33485 10.9236C9.52811 9.89164 11.8246 9.68521 14.1856 10.0851C14.2888 10.1109 14.392 10.1367 14.5081 10.1625C16.9723 10.743 19.0107 12.0201 20.6363 13.968C20.8427 14.2131 20.804 14.3292 20.5976 14.5227C19.1139 15.9804 17.6432 17.451 16.1724 18.9087C16.095 18.9861 16.0305 19.1022 15.8886 19.128C15.6305 18.6378 15.3209 18.1992 14.908 17.8122C13.6179 16.5867 11.5666 16.3287 9.96677 17.2059C8.35408 18.0831 7.47677 19.9407 7.82511 21.6951C8.10895 23.127 8.96044 24.1332 10.2377 24.7911C10.1345 24.9072 10.0442 25.0233 9.94094 25.1265C8.40566 26.6616 6.88328 28.1838 5.348 29.7189V29.7318Z" fill="#FABB06"/>
<path id="Vector_3" d="M14.1981 10.096C11.8242 9.6832 9.54061 9.88963 7.34735 10.9345C6.81839 11.1796 6.31521 11.4892 5.79915 11.773C5.60563 11.6698 5.73466 11.5279 5.77336 11.4118C6.61196 8.61252 8.13434 6.25183 10.3276 4.31684C13.3982 1.60785 16.9977 0.317868 21.0875 0.459767C24.7386 0.588767 27.9511 1.89165 30.6862 4.31684C29.2025 5.81323 27.7059 7.3096 26.2222 8.806C26.1061 8.9221 25.9642 9.01237 25.9126 9.18007C25.8352 9.12847 25.7449 9.08979 25.6675 9.03819C24.4289 8.10939 23.0485 7.52892 21.5132 7.37412C18.6233 7.06452 16.1849 7.99331 14.2109 10.1089L14.1981 10.096Z" fill="#E94336"/>
<path id="Vector_4" d="M5.34766 29.7305C6.88294 28.1954 8.40531 26.6732 9.9406 25.1381C10.0438 25.0349 10.147 24.9188 10.2373 24.8027C11.1921 25.1897 12.1984 25.151 13.2047 25.151C15.656 25.151 18.0944 25.151 20.5457 25.151C20.5457 27.4214 20.5457 29.6918 20.5457 31.9622C17.4493 31.9622 14.3529 32.0267 11.2695 31.9364C9.07619 31.8719 7.08936 31.0592 5.34766 29.7305Z" fill="#35A854"/>
</g>
</g>
</svg>
