<svg width="51" height="41" viewBox="0 0 51 41" fill="none" xmlns="http://www.w3.org/2000/svg">
<g id="Group">
<path id="Vector" d="M34.5853 6.70652C33.2124 6.70652 31.8799 6.90217 30.608 7.27174C28.9019 3.55435 25.3486 1 21.24 1C15.4658 1 10.7717 6.04348 10.7717 12.2717C10.7717 12.6304 10.7919 12.9783 10.8222 13.337C5.20951 14.6739 1 20.0652 1 26.5109C1 33.9674 6.61269 40 13.5276 40C17.5453 40 30.184 39.9457 34.5752 39.9457C43.0952 39.9457 50 32.5109 50 23.337C50 14.163 43.0952 6.72826 34.5752 6.72826L34.5853 6.70652Z" fill="white" stroke="#130C49" stroke-miterlimit="10"/>
<g id="Group_2">
<path id="Vector_2" d="M18.9648 16.6698C20.7925 14.6377 23.4518 13.3555 26.4176 13.3555C28.4094 13.3555 30.2589 13.9314 31.8239 14.9311" stroke="#00A88B" stroke-miterlimit="10"/>
<path id="Vector_3" d="M24.1193 32.938C19.7089 31.9057 16.4258 27.9719 16.4258 23.2775C16.4258 23.0384 16.4258 22.8102 16.4477 22.582" stroke="#00A88B" stroke-miterlimit="10"/>
<path id="Vector_4" d="M35.9507 20.3535C36.2353 21.2772 36.3994 22.2661 36.3994 23.2875C36.3994 27.2539 34.0574 30.6769 30.6758 32.2635" stroke="#00A88B" stroke-miterlimit="10"/>
<path id="Vector_5" d="M16.5464 22.5057C17.586 22.5057 18.4287 21.6689 18.4287 20.6367C18.4287 19.6044 17.586 18.7676 16.5464 18.7676C15.5068 18.7676 14.6641 19.6044 14.6641 20.6367C14.6641 21.6689 15.5068 22.5057 16.5464 22.5057Z" fill="#00A88B" stroke="#00A88B" stroke-width="0.72" stroke-miterlimit="10"/>
<path id="Vector_6" d="M33.3003 17.9296C34.3399 17.9296 35.1827 17.0928 35.1827 16.0605C35.1827 15.0282 34.3399 14.1914 33.3003 14.1914C32.2607 14.1914 31.418 15.0282 31.418 16.0605C31.418 17.0928 32.2607 17.9296 33.3003 17.9296Z" fill="#00A88B" stroke="#00A88B" stroke-width="0.72" stroke-miterlimit="10"/>
<path id="Vector_7" d="M29.0112 34.6874C30.0508 34.6874 30.8936 33.8506 30.8936 32.8183C30.8936 31.786 30.0508 30.9492 29.0112 30.9492C27.9717 30.9492 27.1289 31.786 27.1289 32.8183C27.1289 33.8506 27.9717 34.6874 29.0112 34.6874Z" fill="#00A88B" stroke="#00A88B" stroke-width="0.72" stroke-miterlimit="10"/>
</g>
</g>
</svg>
