<svg width="60" height="60" viewBox="0 0 60 60" fill="none" xmlns="http://www.w3.org/2000/svg">
<g id="Group 1261164212">
<path id="Vector" d="M46.5075 0H13.4925C6.0408 0 0 6.0408 0 13.4925V46.5075C0 53.9592 6.0408 60 13.4925 60H46.5075C53.9592 60 60 53.9592 60 46.5075V13.4925C60 6.0408 53.9592 0 46.5075 0Z" fill="#130C49"/>
<path id="Vector_2" d="M39.6704 18.6462C39.7517 18.3979 39.7968 18.1408 39.7968 17.8748C39.7968 16.5181 38.6953 15.4187 37.3318 15.4187C36.5282 15.4187 35.7607 15.8265 35.3093 16.4915C35.0293 16.4029 34.7494 16.3231 34.4605 16.261C34.3612 15.0019 33.2957 14 32.0045 14C30.8578 14 29.8736 14.7803 29.6117 15.8797C22.3792 16.4827 16.474 22.2904 15.8059 29.5079C14.7494 29.8005 14 30.767 14 31.8753C14 33.0989 14.921 34.1275 16.1219 34.2959C16.1941 34.6063 16.2754 34.9255 16.3747 35.2358C15.7788 35.6969 15.4266 36.4151 15.4266 37.1776C15.4266 38.5342 16.5282 39.6337 17.8916 39.6337C18.0813 39.6337 18.2709 39.6071 18.4695 39.5539C21.3228 43.5971 25.9458 46 30.8668 46C33.1151 46 35.2822 45.5123 37.3228 44.5459C37.7923 45.0335 38.4244 45.3173 39.1016 45.3173C40.456 45.3173 41.5666 44.2178 41.5666 42.8612C41.5666 42.4976 41.4853 42.143 41.3138 41.806C41.5214 41.6021 41.7291 41.3982 41.9187 41.1942C42.2619 41.3627 42.623 41.4514 43.0023 41.4514C44.3567 41.4514 45.4673 40.3519 45.4673 38.9953C45.4673 38.2948 45.1693 37.6387 44.6366 37.1687C45.5395 35.2003 46 33.0989 46 30.9177C46 26.0499 43.6433 21.4746 39.6795 18.655L39.6704 18.6462ZM40.5372 38.9864C40.5372 39.4475 40.6727 39.8997 40.9255 40.2898C40.754 40.476 40.5914 40.6445 40.4289 40.7952C40.0226 40.5381 39.5711 40.3962 39.1016 40.3962C38.0361 40.3962 37.1061 41.0701 36.772 42.0632C34.6953 41.5666 32.7359 40.5824 31.0926 39.1904C31.3815 38.7825 31.526 38.3037 31.526 37.816C31.526 37.7096 31.526 37.6032 31.5079 37.4879C34.0813 36.087 36.1761 34.0033 37.5666 31.4408C38.1535 31.5472 38.6411 31.4408 39.1196 31.2014C40.456 32.8241 41.4131 34.7481 41.8916 36.7875C41.07 37.2042 40.5463 38.0466 40.5463 38.9687L40.5372 38.9864ZM37.3318 20.3397C37.3318 20.3397 37.4221 20.3397 37.4673 20.3397C37.8555 21.6431 38.0632 22.9643 38.0632 24.2854C38.0632 25.0302 37.991 25.8105 37.8555 26.5996C37.3318 26.6262 36.8442 26.8213 36.4289 27.1493C34.0181 25.6509 31.2641 24.8617 28.456 24.8617C28.3386 24.8617 28.2302 24.8617 28.1129 24.8706H28.0858C27.8962 24.3918 27.5621 23.9839 27.1287 23.7091C27.8962 21.7406 29.1242 19.9584 30.6953 18.5398C31.0926 18.7969 31.544 18.9299 32.0045 18.9299C32.9436 18.9299 33.7833 18.4068 34.1986 17.5822C34.4244 17.6354 34.6501 17.6974 34.8668 17.7684C34.8668 17.8127 34.8668 17.857 34.8668 17.9014C34.8668 19.258 35.9684 20.3574 37.3318 20.3574V20.3397ZM28.2212 26.1829C28.3025 26.1829 28.3837 26.174 28.465 26.174C30.9932 26.174 33.4763 26.8833 35.6614 28.2222C35.5621 28.4882 35.5169 28.7631 35.5169 29.0468C35.5169 29.7562 35.8149 30.4123 36.3476 30.8734C35.0926 33.1433 33.2415 35.0053 30.9661 36.2821C30.4966 35.7146 29.8014 35.3777 29.0609 35.3777C28.7178 35.3777 28.3747 35.4486 28.0587 35.5993C26.8307 33.4891 26.1806 31.1128 26.1806 28.701C26.1806 28.5414 26.1896 28.3818 26.1986 28.2222V28.1779C27.228 28.0094 28.0406 27.2114 28.2212 26.1917V26.1829ZM25.8555 23.3012C25.8555 23.3012 25.8194 23.3012 25.8014 23.3012C24.447 23.3012 23.3363 24.4007 23.3363 25.7573C21.0971 26.5641 19.0564 27.8942 17.4312 29.632C17.3318 29.5877 17.2325 29.5522 17.1422 29.5256C17.8014 23.0263 23.1377 17.7772 29.6749 17.2186C29.7111 17.3339 29.7562 17.4403 29.8104 17.5556C28.0677 19.1338 26.7043 21.12 25.8555 23.3189V23.3012ZM18.93 31.8753C18.93 31.3699 18.7765 30.8911 18.4786 30.4744C19.9323 28.9404 21.7381 27.7523 23.7156 27.0341C23.9865 27.4774 24.3928 27.8232 24.8804 28.0272V28.0804C24.8623 28.2843 24.8533 28.4971 24.8533 28.7099C24.8533 31.432 25.6027 34.1097 27.0293 36.4683C26.7494 36.8761 26.605 37.3461 26.605 37.8337C24.4289 38.215 22.3883 38.0732 20.3386 37.4613C20.3476 37.3638 20.3567 37.2751 20.3567 37.1776C20.3567 35.821 19.2551 34.7215 17.8916 34.7215C17.8014 34.7215 17.7201 34.7215 17.6298 34.7393C17.5666 34.5353 17.5124 34.3225 17.4673 34.1186C18.3521 33.7285 18.9391 32.8507 18.9391 31.8842L18.93 31.8753ZM19.8149 38.685C22.0722 39.3854 24.4379 39.5628 26.9752 39.1017C27.5982 40.1214 28.9255 40.5647 30.0632 40.0593C31.9503 41.6996 34.2257 42.8523 36.6456 43.4021C34.8397 44.2355 32.8442 44.6789 30.8668 44.6789C26.4154 44.6789 22.2348 42.5154 19.6433 38.8889C19.7065 38.8268 19.7698 38.7559 19.8239 38.6938L19.8149 38.685ZM40.4379 29.038C40.4379 28.1424 39.9413 27.3178 39.1558 26.8922C39.3093 26.0055 39.3905 25.1189 39.3905 24.2765C39.3905 22.7781 39.1738 21.3062 38.7404 19.8964C38.8036 19.852 38.8668 19.8077 38.921 19.7634C42.5147 22.3525 44.6546 26.5109 44.6546 30.9177C44.6546 32.8773 44.2393 34.7836 43.4266 36.5835C43.3544 36.5658 43.2731 36.5569 43.2009 36.5481C42.6772 34.2782 41.6027 32.1324 40.0858 30.3148C40.3205 29.9335 40.447 29.4902 40.447 29.0468L40.4379 29.038Z" fill="#61BB73"/>
</g>
</svg>
