<svg width="60" height="60" viewBox="0 0 60 60" fill="none" xmlns="http://www.w3.org/2000/svg">
<g id="Group 1261164215">
<path id="Vector" d="M46.5075 0H13.4925C6.0408 0 0 6.0408 0 13.4925V46.5075C0 53.9592 6.0408 60 13.4925 60H46.5075C53.9592 60 60 53.9592 60 46.5075V13.4925C60 6.0408 53.9592 0 46.5075 0Z" fill="#130C49"/>
<g id="Group 1261164214">
<path id="Vector_2" d="M37.2516 20.0394C36.3625 20.0394 35.4733 20.1325 34.6095 20.3188C33.0598 17.6513 30.206 16 27.1151 16C22.3221 16 18.4267 19.8954 18.4267 24.6884C18.4267 24.7477 18.4267 24.807 18.4267 24.8663C14.0401 26.1365 11 30.159 11 34.7403C11 40.3971 15.5983 44.9954 21.2551 44.9954C22.7455 44.9954 25.811 44.9869 28.9358 44.9784H29.2661C32.4247 44.97 35.6003 44.9615 37.2432 44.9615C44.1109 44.9615 49.7 39.3724 49.7 32.5047C49.7 25.6369 44.1109 20.0478 37.2432 20.0478L37.2516 20.0394ZM19.934 25.3744C19.9086 25.1542 19.9002 24.9256 19.9002 24.6969C19.9002 20.7253 23.135 17.4904 27.1067 17.4904C29.8588 17.4904 32.3316 19.0316 33.5595 21.5044L33.7119 21.8177C33.7796 21.9532 33.9321 22.0209 34.076 21.9871L34.4148 21.8939C35.3378 21.6483 36.2863 21.5213 37.2432 21.5213C43.298 21.5213 48.2181 26.4414 48.2181 32.4962C48.2181 38.551 43.298 43.4711 37.2432 43.4711C35.5919 43.4711 32.4163 43.4795 29.2576 43.488H28.9273C25.8025 43.4965 22.7455 43.5049 21.2551 43.5049C16.4197 43.5049 12.4819 39.5672 12.4819 34.7318C12.4819 30.6501 15.3696 27.0426 19.3582 26.1619L19.7223 26.0772C19.8747 26.0434 19.9848 25.8994 19.9679 25.7385L19.934 25.3659V25.3744Z" fill="#61BB73"/>
<path id="Vector_3" d="M38.5678 40.3371V30.9797C38.5678 30.8272 38.4407 30.7087 38.2968 30.7087H33.5122V25.7124C33.5122 25.56 33.3852 25.4414 33.2412 25.4414H27.4828C27.3304 25.4414 27.2118 25.5684 27.2118 25.7124V34.0452H22.4272C22.2748 34.0452 22.1562 34.1722 22.1562 34.3162V40.3371C22.1562 40.4895 22.2833 40.6081 22.4272 40.6081H38.3052C38.4577 40.6081 38.5762 40.4811 38.5762 40.3371H38.5678ZM32.2589 26.6778V39.3632H28.4482V26.6778H32.2589ZM27.2033 35.29V39.3632H23.3926V35.29H27.2033ZM37.3229 31.945V39.3632H33.5122V31.945H37.3229Z" fill="#61BB73"/>
</g>
</g>
</svg>
