<svg width="60" height="60" viewBox="0 0 60 60" fill="none" xmlns="http://www.w3.org/2000/svg">
<g id="Group 1261164213">
<path id="Vector" d="M46.5075 0H13.4925C6.0408 0 0 6.0408 0 13.4925V46.5075C0 53.9592 6.0408 60 13.4925 60H46.5075C53.9592 60 60 53.9592 60 46.5075V13.4925C60 6.0408 53.9592 0 46.5075 0Z" fill="#130C49"/>
<g id="Group">
<path id="Vector_2" d="M37.2432 20.0394C36.354 20.0394 35.4648 20.1325 34.6011 20.3188C33.0514 17.6513 30.1976 16 27.1067 16C22.3136 16 18.4182 19.8954 18.4182 24.6884C18.4182 24.7477 18.4182 24.807 18.4182 24.8663C14.0316 26.1281 11 30.142 11 34.7233C11 40.3802 15.5983 44.9784 21.2551 44.9784C22.7455 44.9784 25.811 44.97 28.9358 44.9615H29.2661C32.4247 44.953 35.6003 44.9446 37.2432 44.9446C44.1109 44.9446 49.7 39.3555 49.7 32.4877C49.7 25.62 44.1109 20.0309 37.2432 20.0309V20.0394ZM19.934 25.3744C19.9086 25.1542 19.9001 24.9256 19.9001 24.6969C19.9001 20.7253 23.135 17.4904 27.1067 17.4904C29.8588 17.4904 32.3316 19.0316 33.5595 21.5044L33.7119 21.8177C33.7796 21.9532 33.9321 22.0209 34.076 21.9871L34.4148 21.8939C35.3378 21.6483 36.2863 21.5213 37.2432 21.5213C43.298 21.5213 48.2181 26.4414 48.2181 32.4962C48.2181 38.551 43.298 43.4711 37.2432 43.4711C35.5919 43.4711 32.4163 43.4795 29.2576 43.488H28.9273C25.8025 43.4965 22.7455 43.5049 21.2551 43.5049C16.4197 43.5049 12.4819 39.5672 12.4819 34.7318C12.4819 30.6501 15.3696 27.0426 19.3582 26.1619L19.7223 26.0772C19.8748 26.0434 19.9848 25.8994 19.9679 25.7385L19.934 25.3659V25.3744Z" fill="#61BB73"/>
<path id="Vector_3" d="M22.4974 32.4957C22.4974 36.1032 24.9532 39.1941 28.4591 40.0155C28.4845 40.0155 28.5099 40.0155 28.5353 40.0155C28.5946 40.0155 28.6539 39.9986 28.7047 39.9647C28.7724 39.9224 28.8317 39.8462 28.8486 39.7699L29.0434 38.9485C29.0603 38.8638 29.0434 38.7792 29.0011 38.7114C28.9587 38.6437 28.8825 38.5929 28.8063 38.5675C25.9948 37.9069 24.0302 35.4511 23.9879 32.5634C24.8177 32.284 25.3936 31.5049 25.3936 30.6073C25.3936 29.4725 24.4705 28.541 23.3273 28.541C22.1841 28.541 21.2695 29.4641 21.2695 30.6073C21.2695 31.4372 21.7522 32.157 22.5059 32.4872L22.4974 32.4957ZM23.6661 32.4788L23.6999 32.4618V32.4788H23.6661Z" fill="#61BB73"/>
<path id="Vector_4" d="M36.2203 30.633C36.4066 31.2258 36.4997 31.8525 36.4997 32.4876C36.4997 34.63 35.3734 36.637 33.5443 37.7802C33.1548 37.3822 32.6213 37.1451 32.0624 37.1451C30.9276 37.1451 29.9961 38.0682 29.9961 39.2114C29.9961 40.3546 30.9191 41.2776 32.0624 41.2776C33.2056 41.2776 34.1202 40.3546 34.1202 39.2114C34.1202 39.1944 34.1202 39.1775 34.1202 39.1606C36.4997 37.7718 37.9732 35.2313 37.9732 32.4876C37.9732 31.7085 37.8547 30.9379 37.626 30.2011C37.5752 30.0318 37.3974 29.9386 37.228 29.9894L36.415 30.2435C36.2457 30.2943 36.1525 30.4721 36.2033 30.6415L36.2203 30.633Z" fill="#61BB73"/>
<path id="Vector_5" d="M25.125 28.338C25.2521 28.4565 25.4553 28.448 25.5739 28.3125C26.7594 26.983 28.4615 26.2209 30.2399 26.2209C31.2053 26.2209 32.1791 26.458 33.0598 26.9068C33.0259 27.0677 33.0005 27.2201 33.0005 27.381C33.0005 28.5158 33.9236 29.4473 35.0668 29.4473C36.21 29.4473 37.1246 28.5243 37.1246 27.381C37.1246 26.2378 36.2015 25.3148 35.0668 25.3148C34.6603 25.3148 34.2538 25.4418 33.9151 25.6789C32.7719 25.0607 31.5101 24.7305 30.2399 24.7305C28.0381 24.7305 25.938 25.6704 24.4645 27.3133C24.4052 27.3726 24.3798 27.4573 24.3883 27.5419C24.3883 27.6266 24.4306 27.7028 24.4899 27.7621L25.125 28.3295V28.338Z" fill="#61BB73"/>
</g>
</g>
</svg>
