<svg width="183" height="132" viewBox="0 0 183 132" fill="none" xmlns="http://www.w3.org/2000/svg">
<rect x="0.690825" y="0.690825" width="70.6183" height="23.6184" rx="1.38165" fill="#BCF0A7" stroke="#130C49" stroke-width="1.38165"/>
<rect x="0.345412" y="37.3454" width="70.3092" height="23.3092" rx="1.72706" fill="#85E3DA" stroke="#130C49" stroke-width="0.690825"/>
<rect x="134.691" y="53.6908" width="47.008" height="22.8132" rx="1.38165" fill="#85E3BC" stroke="#130C49" stroke-width="1.38165"/>
<path d="M152.292 67.0649V62.0408H152.901V66.5252H155.236V67.0649H152.292ZM156.178 67.0649V62.0408H156.786V66.5252H159.122V67.0649H156.178ZM160.064 62.0408H160.79L162.498 66.2112H162.556L164.264 62.0408H164.99V67.0649H164.421V63.2477H164.372L162.802 67.0649H162.252L160.682 63.2477H160.633V67.0649H160.064V62.0408Z" fill="#130C49"/>
<path d="M27.3254 8.54588H26.717C26.6811 8.37088 26.6181 8.21714 26.5282 8.08467C26.4398 7.9522 26.3319 7.84099 26.2043 7.75103C26.0784 7.65945 25.9386 7.59076 25.7848 7.54496C25.6311 7.49917 25.4708 7.47627 25.304 7.47627C24.9998 7.47627 24.7242 7.55314 24.4773 7.70688C24.2319 7.86061 24.0365 8.08712 23.8909 8.38642C23.747 8.68571 23.6751 9.05287 23.6751 9.48791C23.6751 9.92295 23.747 10.2901 23.8909 10.5894C24.0365 10.8887 24.2319 11.1152 24.4773 11.2689C24.7242 11.4227 24.9998 11.4995 25.304 11.4995C25.4708 11.4995 25.6311 11.4766 25.7848 11.4309C25.9386 11.3851 26.0784 11.3172 26.2043 11.2272C26.3319 11.1357 26.4398 11.0236 26.5282 10.8911C26.6181 10.757 26.6811 10.6033 26.717 10.4299H27.3254C27.2797 10.6867 27.1962 10.9165 27.0752 11.1193C26.9542 11.3221 26.8037 11.4946 26.6238 11.6369C26.4439 11.7776 26.2419 11.8847 26.0179 11.9583C25.7955 12.0319 25.5575 12.0687 25.304 12.0687C24.8755 12.0687 24.4944 11.964 24.1608 11.7547C23.8272 11.5453 23.5647 11.2477 23.3733 10.8617C23.182 10.4757 23.0863 10.0178 23.0863 9.48791C23.0863 8.95802 23.182 8.50008 23.3733 8.11411C23.5647 7.72814 23.8272 7.43048 24.1608 7.22114C24.4944 7.0118 24.8755 6.90713 25.304 6.90713C25.5575 6.90713 25.7955 6.94393 26.0179 7.01752C26.2419 7.09112 26.4439 7.19906 26.6238 7.34135C26.8037 7.482 26.9542 7.65372 27.0752 7.85652C27.1962 8.05769 27.2797 8.28747 27.3254 8.54588ZM29.7609 12.0785C29.4207 12.0785 29.1222 11.9975 28.8655 11.8356C28.6103 11.6737 28.4108 11.4472 28.2669 11.1561C28.1246 10.865 28.0534 10.5248 28.0534 10.1356C28.0534 9.74304 28.1246 9.40041 28.2669 9.10766C28.4108 8.81491 28.6103 8.58758 28.8655 8.42567C29.1222 8.26376 29.4207 8.1828 29.7609 8.1828C30.1011 8.1828 30.3987 8.26376 30.6538 8.42567C30.9106 8.58758 31.1101 8.81491 31.2524 9.10766C31.3963 9.40041 31.4683 9.74304 31.4683 10.1356C31.4683 10.5248 31.3963 10.865 31.2524 11.1561C31.1101 11.4472 30.9106 11.6737 30.6538 11.8356C30.3987 11.9975 30.1011 12.0785 29.7609 12.0785ZM29.7609 11.5584C30.0193 11.5584 30.2319 11.4922 30.3987 11.3597C30.5655 11.2272 30.689 11.0531 30.7691 10.8372C30.8493 10.6213 30.8894 10.3874 30.8894 10.1356C30.8894 9.88369 30.8493 9.649 30.7691 9.43149C30.689 9.21397 30.5655 9.03815 30.3987 8.90404C30.2319 8.76994 30.0193 8.70288 29.7609 8.70288C29.5025 8.70288 29.2899 8.76994 29.123 8.90404C28.9562 9.03815 28.8327 9.21397 28.7526 9.43149C28.6725 9.649 28.6324 9.88369 28.6324 10.1356C28.6324 10.3874 28.6725 10.6213 28.7526 10.8372C28.8327 11.0531 28.9562 11.2272 29.123 11.3597C29.2899 11.4922 29.5025 11.5584 29.7609 11.5584ZM32.3521 12V8.23186H32.9114V8.82064H32.9605C33.039 8.61947 33.1657 8.46328 33.3407 8.35207C33.5157 8.23922 33.7259 8.1828 33.9712 8.1828C34.2198 8.1828 34.4267 8.23922 34.5919 8.35207C34.7587 8.46328 34.8887 8.61947 34.9819 8.82064H35.0212C35.1177 8.62601 35.2624 8.47146 35.4554 8.35698C35.6484 8.24086 35.8798 8.1828 36.1497 8.1828C36.4866 8.1828 36.7621 8.28829 36.9764 8.49926C37.1906 8.70861 37.2978 9.03488 37.2978 9.4781V12H36.7188V9.4781C36.7188 9.20007 36.6428 9.00136 36.4907 8.88197C36.3386 8.76258 36.1595 8.70288 35.9534 8.70288C35.6885 8.70288 35.4832 8.78302 35.3376 8.9433C35.1921 9.10194 35.1193 9.3031 35.1193 9.54679V12H34.5305V9.41922C34.5305 9.20497 34.461 9.03243 34.322 8.90159C34.183 8.76912 34.0039 8.70288 33.7848 8.70288C33.6343 8.70288 33.4936 8.74295 33.3628 8.82309C33.2336 8.90323 33.1289 9.01444 33.0488 9.15673C32.9703 9.29738 32.931 9.46011 32.931 9.64491V12H32.3521ZM38.3563 13.4131V8.23186H38.9157V8.83045H38.9843C39.0269 8.76503 39.0857 8.68162 39.161 8.58022C39.2378 8.47719 39.3474 8.3856 39.4897 8.30546C39.6336 8.22369 39.8282 8.1828 40.0736 8.1828C40.3909 8.1828 40.6705 8.26212 40.9126 8.42076C41.1546 8.5794 41.3435 8.80428 41.4793 9.0954C41.615 9.38651 41.6829 9.72996 41.6829 10.1257C41.6829 10.5248 41.615 10.8707 41.4793 11.1635C41.3435 11.4546 41.1554 11.6803 40.915 11.8405C40.6746 11.9992 40.3974 12.0785 40.0834 12.0785C39.8413 12.0785 39.6475 12.0384 39.502 11.9583C39.3564 11.8765 39.2444 11.7841 39.1659 11.6811C39.0874 11.5764 39.0269 11.4897 38.9843 11.421H38.9353V13.4131H38.3563ZM38.9255 10.1159C38.9255 10.4005 38.9672 10.6516 39.0506 10.8691C39.134 11.085 39.2558 11.2542 39.4161 11.3769C39.5764 11.4979 39.7726 11.5584 40.0049 11.5584C40.2469 11.5584 40.4489 11.4946 40.6108 11.3671C40.7744 11.2379 40.897 11.0645 40.9788 10.847C41.0622 10.6278 41.1039 10.3841 41.1039 10.1159C41.1039 9.85098 41.063 9.61221 40.9813 9.39959C40.9011 9.18535 40.7793 9.01607 40.6157 8.89178C40.4538 8.76585 40.2502 8.70288 40.0049 8.70288C39.7694 8.70288 39.5715 8.76258 39.4112 8.88197C39.2509 8.99972 39.1299 9.1649 39.0481 9.37751C38.9664 9.58849 38.9255 9.83463 38.9255 10.1159ZM43.145 6.97582V12H42.566V6.97582H43.145ZM45.7853 12.0785C45.4222 12.0785 45.109 11.9984 44.8457 11.8381C44.584 11.6762 44.382 11.4505 44.2397 11.161C44.0991 10.8699 44.0288 10.5313 44.0288 10.1454C44.0288 9.7594 44.0991 9.41922 44.2397 9.12483C44.382 8.82881 44.5799 8.59821 44.8334 8.43303C45.0886 8.26621 45.3862 8.1828 45.7264 8.1828C45.9226 8.1828 46.1164 8.21551 46.3078 8.28093C46.4991 8.34635 46.6733 8.45265 46.8303 8.59985C46.9873 8.7454 47.1125 8.93839 47.2057 9.1788C47.2989 9.41922 47.3455 9.71524 47.3455 10.0669V10.3122H44.4409V9.81173H46.7567C46.7567 9.59912 46.7142 9.40941 46.6292 9.24259C46.5458 9.07577 46.4264 8.94411 46.271 8.84762C46.1173 8.75113 45.9357 8.70288 45.7264 8.70288C45.4958 8.70288 45.2963 8.76012 45.1278 8.87461C44.961 8.98745 44.8326 9.13465 44.7426 9.31618C44.6527 9.49772 44.6077 9.69234 44.6077 9.90005V10.2337C44.6077 10.5183 44.6568 10.7595 44.7549 10.9574C44.8547 11.1536 44.9929 11.3033 45.1695 11.4063C45.3461 11.5077 45.5514 11.5584 45.7853 11.5584C45.9374 11.5584 46.0747 11.5372 46.1974 11.4946C46.3217 11.4505 46.4288 11.3851 46.5188 11.2984C46.6087 11.2101 46.6782 11.1005 46.7273 10.9697L47.2866 11.1267C47.2278 11.3164 47.1288 11.4832 46.9898 11.6271C46.8508 11.7694 46.6791 11.8806 46.4746 11.9607C46.2702 12.0393 46.0404 12.0785 45.7853 12.0785ZM48.5568 8.23186L49.4596 9.77248L50.3623 8.23186H51.0296L49.8128 10.1159L51.0296 12H50.3623L49.4596 10.5379L48.5568 12H47.8895L49.0867 10.1159L47.8895 8.23186H48.5568ZM23.0198 16.4299H23.687L24.2464 17.1659L24.3936 17.3622L25.2276 18.471H24.5604L24.0108 17.7351L23.8735 17.5486L23.0198 16.4299ZM25.4337 15.4879C25.4337 16.0178 25.338 16.4757 25.1467 16.8617C24.9553 17.2477 24.6928 17.5453 24.3592 17.7547C24.0256 17.964 23.6445 18.0687 23.216 18.0687C22.7875 18.0687 22.4064 17.964 22.0728 17.7547C21.7392 17.5453 21.4767 17.2477 21.2853 16.8617C21.094 16.4757 20.9983 16.0178 20.9983 15.4879C20.9983 14.958 21.094 14.5001 21.2853 14.1141C21.4767 13.7281 21.7392 13.4305 22.0728 13.2211C22.4064 13.0118 22.7875 12.9071 23.216 12.9071C23.6445 12.9071 24.0256 13.0118 24.3592 13.2211C24.6928 13.4305 24.9553 13.7281 25.1467 14.1141C25.338 14.5001 25.4337 14.958 25.4337 15.4879ZM24.8449 15.4879C24.8449 15.0529 24.7722 14.6857 24.6266 14.3864C24.4827 14.0871 24.2872 13.8606 24.0403 13.7069C23.795 13.5531 23.5202 13.4763 23.216 13.4763C22.9118 13.4763 22.6362 13.5531 22.3893 13.7069C22.144 13.8606 21.9485 14.0871 21.803 14.3864C21.659 14.6857 21.5871 15.0529 21.5871 15.4879C21.5871 15.9229 21.659 16.2901 21.803 16.5894C21.9485 16.8887 22.144 17.1152 22.3893 17.2689C22.6362 17.4227 22.9118 17.4995 23.216 17.4995C23.5202 17.4995 23.795 17.4227 24.0403 17.2689C24.2872 17.1152 24.4827 16.8887 24.6266 16.5894C24.7722 16.2901 24.8449 15.9229 24.8449 15.4879ZM28.7529 16.4594V14.2319H29.3319V18H28.7529V17.3622H28.7137C28.6253 17.5535 28.488 17.7162 28.3015 17.8504C28.1151 17.9828 27.8796 18.0491 27.595 18.0491C27.3595 18.0491 27.1501 17.9975 26.967 17.8945C26.7838 17.7898 26.6399 17.6328 26.5352 17.4235C26.4305 17.2125 26.3782 16.9468 26.3782 16.6262V14.2319H26.9572V16.5869C26.9572 16.8617 27.034 17.0809 27.1878 17.2444C27.3431 17.408 27.541 17.4897 27.7814 17.4897C27.9254 17.4897 28.0717 17.4529 28.2206 17.3793C28.371 17.3057 28.497 17.1929 28.5984 17.0408C28.7014 16.8887 28.7529 16.6949 28.7529 16.4594ZM31.9721 18.0785C31.6091 18.0785 31.2959 17.9984 31.0326 17.8381C30.7709 17.6762 30.5689 17.4505 30.4266 17.161C30.286 16.8699 30.2156 16.5313 30.2156 16.1454C30.2156 15.7594 30.286 15.4192 30.4266 15.1248C30.5689 14.8288 30.7668 14.5982 31.0203 14.433C31.2754 14.2662 31.5731 14.1828 31.9133 14.1828C32.1095 14.1828 32.3033 14.2155 32.4947 14.2809C32.686 14.3463 32.8602 14.4527 33.0172 14.5998C33.1742 14.7454 33.2993 14.9384 33.3926 15.1788C33.4858 15.4192 33.5324 15.7152 33.5324 16.0669V16.3122H30.6278V15.8117H32.9436C32.9436 15.5991 32.9011 15.4094 32.816 15.2426C32.7326 15.0758 32.6132 14.9441 32.4579 14.8476C32.3041 14.7511 32.1226 14.7029 31.9133 14.7029C31.6827 14.7029 31.4831 14.7601 31.3147 14.8746C31.1479 14.9875 31.0195 15.1346 30.9295 15.3162C30.8396 15.4977 30.7946 15.6923 30.7946 15.9V16.2337C30.7946 16.5183 30.8437 16.7595 30.9418 16.9574C31.0416 17.1536 31.1798 17.3033 31.3564 17.4063C31.533 17.5077 31.7383 17.5584 31.9721 17.5584C32.1242 17.5584 32.2616 17.5372 32.3843 17.4946C32.5086 17.4505 32.6157 17.3851 32.7057 17.2984C32.7956 17.2101 32.8651 17.1005 32.9142 16.9697L33.4735 17.1267C33.4146 17.3164 33.3157 17.4832 33.1767 17.6271C33.0377 17.7694 32.8659 17.8806 32.6615 17.9607C32.4571 18.0393 32.2273 18.0785 31.9721 18.0785ZM37.0822 15.0758L36.5621 15.223C36.5294 15.1363 36.4811 15.0521 36.4174 14.9703C36.3552 14.8869 36.2702 14.8182 36.1622 14.7642C36.0543 14.7102 35.9161 14.6833 35.7476 14.6833C35.517 14.6833 35.3249 14.7364 35.1711 14.8427C35.019 14.9474 34.943 15.0807 34.943 15.2426C34.943 15.3865 34.9953 15.5002 35.1 15.5836C35.2047 15.667 35.3682 15.7365 35.5906 15.7921L36.15 15.9295C36.4869 16.0113 36.7379 16.1364 36.9031 16.3048C37.0683 16.4716 37.1509 16.6867 37.1509 16.95C37.1509 17.1659 37.0887 17.3589 36.9644 17.529C36.8418 17.6991 36.67 17.8332 36.4493 17.9313C36.2285 18.0294 35.9717 18.0785 35.6789 18.0785C35.2946 18.0785 34.9765 17.9951 34.7246 17.8283C34.4728 17.6615 34.3133 17.4178 34.2463 17.0972L34.7958 16.9598C34.8481 17.1626 34.9471 17.3147 35.0926 17.4161C35.2398 17.5175 35.432 17.5682 35.6691 17.5682C35.939 17.5682 36.1532 17.511 36.3119 17.3965C36.4722 17.2804 36.5523 17.1414 36.5523 16.9795C36.5523 16.8486 36.5065 16.739 36.4149 16.6507C36.3233 16.5608 36.1827 16.4937 35.993 16.4496L35.3649 16.3024C35.0198 16.2206 34.7664 16.0939 34.6044 15.9221C34.4442 15.7488 34.364 15.5321 34.364 15.272C34.364 15.0594 34.4237 14.8713 34.5431 14.7078C34.6641 14.5442 34.8285 14.4159 35.0362 14.3226C35.2455 14.2294 35.4827 14.1828 35.7476 14.1828C36.1205 14.1828 36.4133 14.2646 36.6259 14.4281C36.8401 14.5917 36.9922 14.8076 37.0822 15.0758ZM39.6611 14.2319V14.7225H37.7084V14.2319H39.6611ZM38.2775 13.3291H38.8565V16.9206C38.8565 17.0841 38.8802 17.2068 38.9276 17.2886C38.9767 17.3687 39.0388 17.4227 39.1141 17.4505C39.1909 17.4766 39.2719 17.4897 39.3569 17.4897C39.4207 17.4897 39.473 17.4865 39.5139 17.4799C39.5548 17.4717 39.5875 17.4652 39.6121 17.4603L39.7298 17.9804C39.6906 17.9951 39.6358 18.0098 39.5654 18.0245C39.4951 18.0409 39.406 18.0491 39.298 18.0491C39.1345 18.0491 38.9742 18.0139 38.8172 17.9436C38.6618 17.8733 38.5326 17.7661 38.4296 17.6222C38.3282 17.4783 38.2775 17.2967 38.2775 17.0776V13.3291ZM40.532 18V14.2319H41.111V18H40.532ZM40.8264 13.6038C40.7136 13.6038 40.6162 13.5654 40.5345 13.4885C40.4543 13.4117 40.4143 13.3193 40.4143 13.2113C40.4143 13.1034 40.4543 13.011 40.5345 12.9341C40.6162 12.8572 40.7136 12.8188 40.8264 12.8188C40.9392 12.8188 41.0357 12.8572 41.1159 12.9341C41.1977 13.011 41.2385 13.1034 41.2385 13.2113C41.2385 13.3193 41.1977 13.4117 41.1159 13.4885C41.0357 13.5654 40.9392 13.6038 40.8264 13.6038ZM43.7022 18.0785C43.362 18.0785 43.0635 17.9975 42.8068 17.8356C42.5516 17.6737 42.3521 17.4472 42.2082 17.1561C42.0659 16.865 41.9947 16.5248 41.9947 16.1356C41.9947 15.743 42.0659 15.4004 42.2082 15.1077C42.3521 14.8149 42.5516 14.5876 42.8068 14.4257C43.0635 14.2638 43.362 14.1828 43.7022 14.1828C44.0424 14.1828 44.34 14.2638 44.5952 14.4257C44.8519 14.5876 45.0514 14.8149 45.1937 15.1077C45.3377 15.4004 45.4096 15.743 45.4096 16.1356C45.4096 16.5248 45.3377 16.865 45.1937 17.1561C45.0514 17.4472 44.8519 17.6737 44.5952 17.8356C44.34 17.9975 44.0424 18.0785 43.7022 18.0785ZM43.7022 17.5584C43.9606 17.5584 44.1732 17.4922 44.34 17.3597C44.5068 17.2272 44.6303 17.0531 44.7105 16.8372C44.7906 16.6213 44.8307 16.3874 44.8307 16.1356C44.8307 15.8837 44.7906 15.649 44.7105 15.4315C44.6303 15.214 44.5068 15.0382 44.34 14.904C44.1732 14.7699 43.9606 14.7029 43.7022 14.7029C43.4438 14.7029 43.2312 14.7699 43.0643 14.904C42.8975 15.0382 42.774 15.214 42.6939 15.4315C42.6138 15.649 42.5737 15.8837 42.5737 16.1356C42.5737 16.3874 42.6138 16.6213 42.6939 16.8372C42.774 17.0531 42.8975 17.2272 43.0643 17.3597C43.2312 17.4922 43.4438 17.5584 43.7022 17.5584ZM46.8723 15.7332V18H46.2934V14.2319H46.8527V14.8206H46.9018C46.9901 14.6293 47.1242 14.4755 47.3041 14.3594C47.484 14.2417 47.7163 14.1828 48.0008 14.1828C48.256 14.1828 48.4792 14.2351 48.6706 14.3398C48.8619 14.4428 49.0107 14.5998 49.117 14.8108C49.2233 15.0202 49.2765 15.2851 49.2765 15.6057V18H48.6975V15.6449C48.6975 15.3489 48.6207 15.1183 48.4669 14.9531C48.3132 14.7863 48.1022 14.7029 47.834 14.7029C47.6492 14.7029 47.484 14.7429 47.3385 14.8231C47.1945 14.9032 47.0809 15.0202 46.9975 15.1739C46.914 15.3276 46.8723 15.5141 46.8723 15.7332ZM53.0035 15.0758L52.4835 15.223C52.4507 15.1363 52.4025 15.0521 52.3387 14.9703C52.2766 14.8869 52.1915 14.8182 52.0836 14.7642C51.9756 14.7102 51.8374 14.6833 51.669 14.6833C51.4384 14.6833 51.2462 14.7364 51.0925 14.8427C50.9404 14.9474 50.8643 15.0807 50.8643 15.2426C50.8643 15.3865 50.9167 15.5002 51.0213 15.5836C51.126 15.667 51.2896 15.7365 51.512 15.7921L52.0713 15.9295C52.4082 16.0113 52.6593 16.1364 52.8245 16.3048C52.9896 16.4716 53.0722 16.6867 53.0722 16.95C53.0722 17.1659 53.0101 17.3589 52.8858 17.529C52.7631 17.6991 52.5914 17.8332 52.3706 17.9313C52.1498 18.0294 51.8931 18.0785 51.6003 18.0785C51.216 18.0785 50.8979 17.9951 50.646 17.8283C50.3941 17.6615 50.2347 17.4178 50.1676 17.0972L50.7171 16.9598C50.7695 17.1626 50.8684 17.3147 51.014 17.4161C51.1612 17.5175 51.3533 17.5682 51.5905 17.5682C51.8603 17.5682 52.0746 17.511 52.2332 17.3965C52.3935 17.2804 52.4736 17.1414 52.4736 16.9795C52.4736 16.8486 52.4279 16.739 52.3363 16.6507C52.2447 16.5608 52.104 16.4937 51.9143 16.4496L51.2863 16.3024C50.9412 16.2206 50.6877 16.0939 50.5258 15.9221C50.3655 15.7488 50.2854 15.5321 50.2854 15.272C50.2854 15.0594 50.3451 14.8713 50.4645 14.7078C50.5855 14.5442 50.7499 14.4159 50.9576 14.3226C51.1669 14.2294 51.404 14.1828 51.669 14.1828C52.0419 14.1828 52.3346 14.2646 52.5472 14.4281C52.7615 14.5917 52.9136 14.8076 53.0035 15.0758Z" fill="#130C49"/>
<path d="M19.0334 49V43.9758H19.6418V46.2131H22.3207V43.9758H22.9291V49H22.3207V46.7529H19.6418V49H19.0334ZM24.0686 49V45.2319H24.6476V49H24.0686ZM24.363 44.6038C24.2502 44.6038 24.1529 44.5654 24.0711 44.4885C23.991 44.4117 23.9509 44.3193 23.9509 44.2113C23.9509 44.1034 23.991 44.011 24.0711 43.9341C24.1529 43.8572 24.2502 43.8188 24.363 43.8188C24.4759 43.8188 24.5724 43.8572 24.6525 43.9341C24.7343 44.011 24.7752 44.1034 24.7752 44.2113C24.7752 44.3193 24.7343 44.4117 24.6525 44.4885C24.5724 44.5654 24.4759 44.6038 24.363 44.6038ZM27.229 50.4916C26.9493 50.4916 26.7089 50.4556 26.5077 50.3836C26.3066 50.3133 26.1389 50.2201 26.0048 50.1039C25.8724 49.9895 25.7669 49.8668 25.6884 49.736L26.1496 49.4121C26.2019 49.4808 26.2681 49.5593 26.3483 49.6476C26.4284 49.7376 26.538 49.8153 26.677 49.8807C26.8177 49.9478 27.0017 49.9813 27.229 49.9813C27.5332 49.9813 27.7842 49.9077 27.9821 49.7605C28.18 49.6133 28.279 49.3827 28.279 49.0687V48.3033H28.2299C28.1874 48.372 28.1269 48.457 28.0484 48.5584C27.9715 48.6582 27.8603 48.7473 27.7147 48.8258C27.5708 48.9027 27.3762 48.9411 27.1309 48.9411C26.8267 48.9411 26.5535 48.8692 26.3115 48.7252C26.0711 48.5813 25.8805 48.372 25.7399 48.0972C25.6009 47.8225 25.5314 47.4888 25.5314 47.0963C25.5314 46.7103 25.5992 46.3742 25.735 46.088C25.8707 45.8002 26.0596 45.5778 26.3017 45.4208C26.5437 45.2621 26.8234 45.1828 27.1407 45.1828C27.386 45.1828 27.5806 45.2237 27.7245 45.3055C27.8701 45.3856 27.9813 45.4772 28.0582 45.5802C28.1367 45.6816 28.1972 45.765 28.2397 45.8304H28.2986V45.2319H28.8579V49.1079C28.8579 49.4318 28.7843 49.6951 28.6371 49.8979C28.4916 50.1023 28.2953 50.252 28.0484 50.3468C27.803 50.4433 27.5299 50.4916 27.229 50.4916ZM27.2094 48.421C27.4416 48.421 27.6379 48.3679 27.7981 48.2616C27.9584 48.1553 28.0803 48.0024 28.1637 47.8028C28.2471 47.6033 28.2888 47.3645 28.2888 47.0865C28.2888 46.815 28.2479 46.5754 28.1661 46.3677C28.0843 46.16 27.9633 45.9973 27.803 45.8795C27.6428 45.7618 27.4449 45.7029 27.2094 45.7029C26.964 45.7029 26.7596 45.765 26.5961 45.8893C26.4341 46.0136 26.3123 46.1804 26.2305 46.3898C26.1504 46.5991 26.1103 46.8314 26.1103 47.0865C26.1103 47.3482 26.1512 47.5796 26.233 47.7808C26.3164 47.9803 26.4391 48.1373 26.601 48.2518C26.7645 48.3646 26.9673 48.421 27.2094 48.421ZM30.4967 46.7332V49H29.9177V43.9758H30.4967V45.8206H30.5457C30.634 45.626 30.7665 45.4715 30.9432 45.357C31.1214 45.2409 31.3586 45.1828 31.6546 45.1828C31.9114 45.1828 32.1362 45.2343 32.3292 45.3374C32.5222 45.4388 32.6719 45.5949 32.7782 45.8059C32.8861 46.0153 32.9401 46.2818 32.9401 46.6057V49H32.3611V46.6449C32.3611 46.3456 32.2834 46.1142 32.1281 45.9507C31.9743 45.7855 31.7609 45.7029 31.4878 45.7029C31.2981 45.7029 31.128 45.7429 30.9775 45.8231C30.8287 45.9032 30.7109 46.0202 30.6242 46.1739C30.5392 46.3276 30.4967 46.5141 30.4967 46.7332ZM36.0207 49V43.9758H36.6291V48.4603H38.9646V49H36.0207ZM41.408 49.0785C41.0449 49.0785 40.7317 48.9984 40.4684 48.8381C40.2067 48.6762 40.0047 48.4505 39.8624 48.161C39.7218 47.8699 39.6515 47.5313 39.6515 47.1454C39.6515 46.7594 39.7218 46.4192 39.8624 46.1248C40.0047 45.8288 40.2026 45.5982 40.4561 45.433C40.7112 45.2662 41.0089 45.1828 41.3491 45.1828C41.5453 45.1828 41.7391 45.2155 41.9305 45.2809C42.1218 45.3463 42.296 45.4527 42.453 45.5998C42.61 45.7454 42.7351 45.9384 42.8284 46.1788C42.9216 46.4192 42.9682 46.7152 42.9682 47.0669V47.3122H40.0636V46.8117H42.3794C42.3794 46.5991 42.3369 46.4094 42.2519 46.2426C42.1684 46.0758 42.0491 45.9441 41.8937 45.8476C41.74 45.7511 41.5584 45.7029 41.3491 45.7029C41.1185 45.7029 40.9189 45.7601 40.7505 45.8746C40.5837 45.9875 40.4553 46.1346 40.3653 46.3162C40.2754 46.4977 40.2304 46.6923 40.2304 46.9V47.2337C40.2304 47.5183 40.2795 47.7595 40.3776 47.9574C40.4774 48.1536 40.6156 48.3033 40.7922 48.4063C40.9688 48.5077 41.1741 48.5584 41.408 48.5584C41.5601 48.5584 41.6974 48.5372 41.8201 48.4946C41.9444 48.4505 42.0515 48.3851 42.1415 48.2984C42.2314 48.2101 42.3009 48.1005 42.35 47.9697L42.9093 48.1267C42.8504 48.3164 42.7515 48.4832 42.6125 48.6271C42.4735 48.7694 42.3017 48.8806 42.0973 48.9607C41.8929 49.0393 41.6631 49.0785 41.408 49.0785ZM46.8154 45.2319L45.422 49H44.8333L43.4398 45.2319H44.0678L45.108 48.2346H45.1473L46.1874 45.2319H46.8154ZM49.0246 49.0785C48.6615 49.0785 48.3483 48.9984 48.085 48.8381C47.8233 48.6762 47.6213 48.4505 47.479 48.161C47.3384 47.8699 47.2681 47.5313 47.2681 47.1454C47.2681 46.7594 47.3384 46.4192 47.479 46.1248C47.6213 45.8288 47.8192 45.5982 48.0727 45.433C48.3279 45.2662 48.6255 45.1828 48.9657 45.1828C49.1619 45.1828 49.3558 45.2155 49.5471 45.2809C49.7385 45.3463 49.9126 45.4527 50.0696 45.5998C50.2266 45.7454 50.3518 45.9384 50.445 46.1788C50.5382 46.4192 50.5848 46.7152 50.5848 47.0669V47.3122H47.6802V46.8117H49.996C49.996 46.5991 49.9535 46.4094 49.8685 46.2426C49.7851 46.0758 49.6657 45.9441 49.5103 45.8476C49.3566 45.7511 49.175 45.7029 48.9657 45.7029C48.7351 45.7029 48.5356 45.7601 48.3671 45.8746C48.2003 45.9875 48.0719 46.1346 47.982 46.3162C47.892 46.4977 47.847 46.6923 47.847 46.9V47.2337C47.847 47.5183 47.8961 47.7595 47.9942 47.9574C48.094 48.1536 48.2322 48.3033 48.4088 48.4063C48.5854 48.5077 48.7907 48.5584 49.0246 48.5584C49.1767 48.5584 49.314 48.5372 49.4367 48.4946C49.561 48.4505 49.6681 48.3851 49.7581 48.2984C49.848 48.2101 49.9175 48.1005 49.9666 47.9697L50.5259 48.1267C50.4671 48.3164 50.3681 48.4832 50.2291 48.6271C50.0901 48.7694 49.9184 48.8806 49.7139 48.9607C49.5095 49.0393 49.2797 49.0785 49.0246 49.0785ZM52.0445 43.9758V49H51.4655V43.9758H52.0445ZM24.4863 52.5459H23.8779C23.8419 52.3709 23.779 52.2171 23.689 52.0847C23.6007 51.9522 23.4927 51.841 23.3652 51.751C23.2392 51.6594 23.0994 51.5908 22.9457 51.545C22.7919 51.4992 22.6317 51.4763 22.4648 51.4763C22.1607 51.4763 21.8851 51.5531 21.6381 51.7069C21.3928 51.8606 21.1974 52.0871 21.0518 52.3864C20.9079 52.6857 20.8359 53.0529 20.8359 53.4879C20.8359 53.9229 20.9079 54.2901 21.0518 54.5894C21.1974 54.8887 21.3928 55.1152 21.6381 55.2689C21.8851 55.4227 22.1607 55.4995 22.4648 55.4995C22.6317 55.4995 22.7919 55.4766 22.9457 55.4309C23.0994 55.3851 23.2392 55.3172 23.3652 55.2272C23.4927 55.1357 23.6007 55.0236 23.689 54.8911C23.779 54.757 23.8419 54.6033 23.8779 54.4299H24.4863C24.4405 54.6867 24.3571 54.9165 24.2361 55.1193C24.115 55.3221 23.9646 55.4946 23.7847 55.6369C23.6048 55.7776 23.4028 55.8847 23.1787 55.9583C22.9563 56.0319 22.7183 56.0687 22.4648 56.0687C22.0364 56.0687 21.6553 55.964 21.3217 55.7547C20.988 55.5453 20.7255 55.2477 20.5342 54.8617C20.3428 54.4757 20.2471 54.0178 20.2471 53.4879C20.2471 52.958 20.3428 52.5001 20.5342 52.1141C20.7255 51.7281 20.988 51.4305 21.3217 51.2211C21.6553 51.0118 22.0364 50.9071 22.4648 50.9071C22.7183 50.9071 22.9563 50.9439 23.1787 51.0175C23.4028 51.0911 23.6048 51.1991 23.7847 51.3413C23.9646 51.482 24.115 51.6537 24.2361 51.8565C24.3571 52.0577 24.4405 52.2875 24.4863 52.5459ZM26.9217 56.0785C26.5815 56.0785 26.2831 55.9975 26.0263 55.8356C25.7712 55.6737 25.5716 55.4472 25.4277 55.1561C25.2854 54.865 25.2143 54.5248 25.2143 54.1356C25.2143 53.743 25.2854 53.4004 25.4277 53.1077C25.5716 52.8149 25.7712 52.5876 26.0263 52.4257C26.2831 52.2638 26.5815 52.1828 26.9217 52.1828C27.2619 52.1828 27.5596 52.2638 27.8147 52.4257C28.0715 52.5876 28.271 52.8149 28.4133 53.1077C28.5572 53.4004 28.6292 53.743 28.6292 54.1356C28.6292 54.5248 28.5572 54.865 28.4133 55.1561C28.271 55.4472 28.0715 55.6737 27.8147 55.8356C27.5596 55.9975 27.2619 56.0785 26.9217 56.0785ZM26.9217 55.5584C27.1801 55.5584 27.3927 55.4922 27.5596 55.3597C27.7264 55.2272 27.8499 55.0531 27.93 54.8372C28.0101 54.6213 28.0502 54.3874 28.0502 54.1356C28.0502 53.8837 28.0101 53.649 27.93 53.4315C27.8499 53.214 27.7264 53.0382 27.5596 52.904C27.3927 52.7699 27.1801 52.7029 26.9217 52.7029C26.6633 52.7029 26.4507 52.7699 26.2839 52.904C26.1171 53.0382 25.9936 53.214 25.9135 53.4315C25.8333 53.649 25.7932 53.8837 25.7932 54.1356C25.7932 54.3874 25.8333 54.6213 25.9135 54.8372C25.9936 55.0531 26.1171 55.2272 26.2839 55.3597C26.4507 55.4922 26.6633 55.5584 26.9217 55.5584ZM30.0919 53.7332V56H29.5129V52.2319H30.0723V52.8206H30.1213C30.2096 52.6293 30.3438 52.4755 30.5237 52.3594C30.7036 52.2417 30.9358 52.1828 31.2204 52.1828C31.4755 52.1828 31.6987 52.2351 31.8901 52.3398C32.0814 52.4428 32.2303 52.5998 32.3366 52.8108C32.4429 53.0202 32.496 53.2851 32.496 53.6057V56H31.9171V53.6449C31.9171 53.3489 31.8402 53.1183 31.6865 52.9531C31.5327 52.7863 31.3218 52.7029 31.0536 52.7029C30.8687 52.7029 30.7036 52.7429 30.558 52.8231C30.4141 52.9032 30.3004 53.0202 30.217 53.1739C30.1336 53.3276 30.0919 53.5141 30.0919 53.7332ZM35.0848 56.0785C34.7315 56.0785 34.4273 55.9951 34.1722 55.8283C33.9171 55.6615 33.7208 55.4317 33.5834 55.1389C33.446 54.8462 33.3774 54.5117 33.3774 54.1356C33.3774 53.7529 33.4477 53.4151 33.5883 53.1224C33.7306 52.828 33.9285 52.5982 34.182 52.433C34.4371 52.2662 34.7348 52.1828 35.075 52.1828C35.3399 52.1828 35.5787 52.2319 35.7913 52.33C36.0039 52.4281 36.1781 52.5655 36.3139 52.7421C36.4496 52.9188 36.5338 53.1248 36.5665 53.3603H35.9876C35.9434 53.1886 35.8453 53.0365 35.6932 52.904C35.5427 52.7699 35.3399 52.7029 35.0848 52.7029C34.8591 52.7029 34.6612 52.7618 34.4911 52.8795C34.3227 52.9956 34.191 53.16 34.0961 53.3726C34.0029 53.5836 33.9563 53.8314 33.9563 54.1159C33.9563 54.407 34.0021 54.6605 34.0937 54.8764C34.1869 55.0923 34.3178 55.2599 34.4862 55.3793C34.6563 55.4987 34.8558 55.5584 35.0848 55.5584C35.2353 55.5584 35.3718 55.5323 35.4945 55.4799C35.6171 55.4276 35.721 55.3524 35.806 55.2542C35.8911 55.1561 35.9516 55.0383 35.9876 54.901H36.5665C36.5338 55.1234 36.4529 55.3237 36.3237 55.502C36.1961 55.6786 36.0268 55.8193 35.8159 55.924C35.6065 56.027 35.3628 56.0785 35.0848 56.0785ZM38.9928 56.0785C38.6297 56.0785 38.3165 55.9984 38.0532 55.8381C37.7915 55.6762 37.5895 55.4505 37.4472 55.161C37.3066 54.8699 37.2363 54.5313 37.2363 54.1454C37.2363 53.7594 37.3066 53.4192 37.4472 53.1248C37.5895 52.8288 37.7874 52.5982 38.0409 52.433C38.2961 52.2662 38.5937 52.1828 38.9339 52.1828C39.1301 52.1828 39.3239 52.2155 39.5153 52.2809C39.7066 52.3463 39.8808 52.4527 40.0378 52.5998C40.1948 52.7454 40.32 52.9384 40.4132 53.1788C40.5064 53.4192 40.553 53.7152 40.553 54.0669V54.3122H37.6484V53.8117H39.9642C39.9642 53.5991 39.9217 53.4094 39.8367 53.2426C39.7533 53.0758 39.6339 52.9441 39.4785 52.8476C39.3248 52.7511 39.1432 52.7029 38.9339 52.7029C38.7033 52.7029 38.5038 52.7601 38.3353 52.8746C38.1685 52.9875 38.0401 53.1346 37.9501 53.3162C37.8602 53.4977 37.8152 53.6923 37.8152 53.9V54.2337C37.8152 54.5183 37.8643 54.7595 37.9624 54.9574C38.0622 55.1536 38.2004 55.3033 38.377 55.4063C38.5536 55.5077 38.7589 55.5584 38.9928 55.5584C39.1449 55.5584 39.2822 55.5372 39.4049 55.4946C39.5292 55.4505 39.6363 55.3851 39.7263 55.2984C39.8162 55.2101 39.8857 55.1005 39.9348 54.9697L40.4941 55.1267C40.4353 55.3164 40.3363 55.4832 40.1973 55.6271C40.0583 55.7694 39.8866 55.8806 39.6821 55.9607C39.4777 56.0393 39.2479 56.0785 38.9928 56.0785ZM41.4337 57.4131V52.2319H41.993V52.8304H42.0617C42.1043 52.765 42.1631 52.6816 42.2384 52.5802C42.3152 52.4772 42.4248 52.3856 42.5671 52.3055C42.711 52.2237 42.9056 52.1828 43.151 52.1828C43.4682 52.1828 43.7479 52.2621 43.99 52.4208C44.232 52.5794 44.4209 52.8043 44.5567 53.0954C44.6924 53.3865 44.7603 53.73 44.7603 54.1257C44.7603 54.5248 44.6924 54.8707 44.5567 55.1635C44.4209 55.4546 44.2328 55.6803 43.9924 55.8405C43.752 55.9992 43.4748 56.0785 43.1608 56.0785C42.9187 56.0785 42.7249 56.0384 42.5794 55.9583C42.4338 55.8765 42.3218 55.7841 42.2433 55.6811C42.1648 55.5764 42.1043 55.4897 42.0617 55.421H42.0127V57.4131H41.4337ZM42.0029 54.1159C42.0029 54.4005 42.0446 54.6516 42.128 54.8691C42.2114 55.085 42.3332 55.2542 42.4935 55.3769C42.6538 55.4979 42.85 55.5584 43.0823 55.5584C43.3243 55.5584 43.5263 55.4946 43.6882 55.3671C43.8518 55.2379 43.9744 55.0645 44.0562 54.847C44.1396 54.6278 44.1813 54.3841 44.1813 54.1159C44.1813 53.851 44.1404 53.6122 44.0586 53.3996C43.9785 53.1853 43.8567 53.0161 43.6931 52.8918C43.5312 52.7658 43.3276 52.7029 43.0823 52.7029C42.8468 52.7029 42.6489 52.7626 42.4886 52.882C42.3283 52.9997 42.2073 53.1649 42.1255 53.3775C42.0437 53.5885 42.0029 53.8346 42.0029 54.1159ZM47.2822 52.2319V52.7225H45.3294V52.2319H47.2822ZM45.8986 51.3291H46.4775V54.9206C46.4775 55.0841 46.5012 55.2068 46.5487 55.2886C46.5977 55.3687 46.6599 55.4227 46.7351 55.4505C46.812 55.4766 46.8929 55.4897 46.978 55.4897C47.0418 55.4897 47.0941 55.4865 47.135 55.4799C47.1759 55.4717 47.2086 55.4652 47.2331 55.4603L47.3509 55.9804C47.3116 55.9951 47.2568 56.0098 47.1865 56.0245C47.1162 56.0409 47.027 56.0491 46.9191 56.0491C46.7556 56.0491 46.5953 56.0139 46.4383 55.9436C46.2829 55.8733 46.1537 55.7661 46.0507 55.6222C45.9493 55.4783 45.8986 55.2967 45.8986 55.0776V51.3291ZM50.7547 53.0758L50.2346 53.223C50.2019 53.1363 50.1537 53.0521 50.0899 52.9703C50.0277 52.8869 49.9427 52.8182 49.8347 52.7642C49.7268 52.7102 49.5886 52.6833 49.4201 52.6833C49.1895 52.6833 48.9974 52.7364 48.8436 52.8427C48.6915 52.9474 48.6155 53.0807 48.6155 53.2426C48.6155 53.3865 48.6678 53.5002 48.7725 53.5836C48.8772 53.667 49.0407 53.7365 49.2631 53.7921L49.8225 53.9295C50.1594 54.0113 50.4104 54.1364 50.5756 54.3048C50.7408 54.4716 50.8234 54.6867 50.8234 54.95C50.8234 55.1659 50.7612 55.3589 50.6369 55.529C50.5143 55.6991 50.3426 55.8332 50.1218 55.9313C49.901 56.0294 49.6442 56.0785 49.3515 56.0785C48.9671 56.0785 48.649 55.9951 48.3972 55.8283C48.1453 55.6615 47.9858 55.4178 47.9188 55.0972L48.4683 54.9598C48.5206 55.1626 48.6196 55.3147 48.7651 55.4161C48.9123 55.5175 49.1045 55.5682 49.3416 55.5682C49.6115 55.5682 49.8257 55.511 49.9844 55.3965C50.1447 55.2804 50.2248 55.1414 50.2248 54.9795C50.2248 54.8486 50.179 54.739 50.0874 54.6507C49.9958 54.5608 49.8552 54.4937 49.6655 54.4496L49.0374 54.3024C48.6924 54.2206 48.4389 54.0939 48.2769 53.9221C48.1167 53.7488 48.0365 53.5321 48.0365 53.272C48.0365 53.0594 48.0962 52.8713 48.2156 52.7078C48.3366 52.5442 48.501 52.4159 48.7087 52.3226C48.9181 52.2294 49.1552 52.1828 49.4201 52.1828C49.793 52.1828 50.0858 52.2646 50.2984 52.4281C50.5126 52.5917 50.6647 52.8076 50.7547 53.0758Z" fill="#130C49"/>
<rect x="0.690825" y="72.6908" width="70.6183" height="23.6184" rx="1.38165" fill="#BCF0A7" stroke="#130C49" stroke-width="1.38165"/>
<rect x="1.34541" y="108.345" width="70.3092" height="23.3092" rx="1.72706" fill="#85E3DA" stroke="#130C49" stroke-width="0.690825"/>
<path d="M17.4585 87H16.8206L18.6654 81.9758H19.2935L21.1383 87H20.5004L18.9991 82.7707H18.9598L17.4585 87ZM17.694 85.0374H20.2649V85.5771H17.694V85.0374ZM21.9209 87V81.9758H22.4998V83.8304H22.5489C22.5914 83.765 22.6503 83.6816 22.7255 83.5802C22.8024 83.4772 22.9119 83.3856 23.0542 83.3055C23.1982 83.2237 23.3928 83.1828 23.6381 83.1828C23.9554 83.1828 24.235 83.2621 24.4771 83.4208C24.7191 83.5794 24.908 83.8043 25.0438 84.0954C25.1795 84.3865 25.2474 84.73 25.2474 85.1257C25.2474 85.5248 25.1795 85.8707 25.0438 86.1635C24.908 86.4546 24.72 86.6803 24.4796 86.8405C24.2391 86.9992 23.9619 87.0785 23.6479 87.0785C23.4059 87.0785 23.2121 87.0384 23.0665 86.9583C22.9209 86.8765 22.8089 86.7841 22.7304 86.6811C22.6519 86.5764 22.5914 86.4897 22.5489 86.421H22.4802V87H21.9209ZM22.49 85.1159C22.49 85.4005 22.5317 85.6516 22.6151 85.8691C22.6985 86.085 22.8204 86.2542 22.9806 86.3769C23.1409 86.4979 23.3372 86.5584 23.5694 86.5584C23.8115 86.5584 24.0134 86.4946 24.1754 86.3671C24.3389 86.2379 24.4616 86.0645 24.5433 85.847C24.6267 85.6278 24.6684 85.3841 24.6684 85.1159C24.6684 84.851 24.6276 84.6122 24.5458 84.3996C24.4657 84.1853 24.3438 84.0161 24.1803 83.8918C24.0183 83.7658 23.8147 83.7029 23.5694 83.7029C23.3339 83.7029 23.136 83.7626 22.9757 83.882C22.8155 83.9997 22.6944 84.1649 22.6127 84.3775C22.5309 84.5885 22.49 84.8346 22.49 85.1159ZM28.8021 84.0758L28.282 84.223C28.2493 84.1363 28.2011 84.0521 28.1373 83.9703C28.0751 83.8869 27.9901 83.8182 27.8822 83.7642C27.7742 83.7102 27.636 83.6833 27.4676 83.6833C27.237 83.6833 27.0448 83.7364 26.8911 83.8427C26.739 83.9474 26.6629 84.0807 26.6629 84.2426C26.6629 84.3865 26.7152 84.5002 26.8199 84.5836C26.9246 84.667 27.0881 84.7365 27.3106 84.7921L27.8699 84.9295C28.2068 85.0113 28.4578 85.1364 28.623 85.3048C28.7882 85.4716 28.8708 85.6867 28.8708 85.95C28.8708 86.1659 28.8087 86.3589 28.6844 86.529C28.5617 86.6991 28.39 86.8332 28.1692 86.9313C27.9484 87.0294 27.6916 87.0785 27.3989 87.0785C27.0145 87.0785 26.6964 86.9951 26.4446 86.8283C26.1927 86.6615 26.0333 86.4178 25.9662 86.0972L26.5157 85.9598C26.5681 86.1626 26.667 86.3147 26.8126 86.4161C26.9597 86.5175 27.1519 86.5682 27.3891 86.5682C27.6589 86.5682 27.8732 86.511 28.0318 86.3965C28.1921 86.2804 28.2722 86.1414 28.2722 85.9795C28.2722 85.8486 28.2264 85.739 28.1348 85.6507C28.0433 85.5608 27.9026 85.4937 27.7129 85.4496L27.0849 85.3024C26.7398 85.2206 26.4863 85.0939 26.3244 84.9221C26.1641 84.7488 26.084 84.5321 26.084 84.272C26.084 84.0594 26.1436 83.8713 26.263 83.7078C26.3841 83.5442 26.5484 83.4159 26.7561 83.3226C26.9655 83.2294 27.2026 83.1828 27.4676 83.1828C27.8405 83.1828 28.1332 83.2646 28.3458 83.4281C28.5601 83.5917 28.7122 83.8076 28.8021 84.0758ZM31.3811 83.2319V83.7225H29.4283V83.2319H31.3811ZM29.9974 82.3291H30.5764V85.9206C30.5764 86.0841 30.6001 86.2068 30.6475 86.2886C30.6966 86.3687 30.7588 86.4227 30.834 86.4505C30.9109 86.4766 30.9918 86.4897 31.0769 86.4897C31.1406 86.4897 31.193 86.4865 31.2339 86.4799C31.2747 86.4717 31.3075 86.4652 31.332 86.4603L31.4497 86.9804C31.4105 86.9951 31.3557 87.0098 31.2854 87.0245C31.2151 87.0409 31.1259 87.0491 31.018 87.0491C30.8544 87.0491 30.6942 87.0139 30.5371 86.9436C30.3818 86.8733 30.2526 86.7661 30.1495 86.6222C30.0481 86.4783 29.9974 86.2967 29.9974 86.0776V82.3291ZM32.2519 87V83.2319H32.8113V83.801H32.8505C32.9192 83.6146 33.0435 83.4633 33.2234 83.3472C33.4033 83.231 33.6061 83.173 33.8318 83.173C33.8743 83.173 33.9275 83.1738 33.9913 83.1754C34.0551 83.1771 34.1033 83.1795 34.136 83.1828V83.7716C34.1164 83.7667 34.0714 83.7593 34.0011 83.7495C33.9324 83.738 33.8596 83.7323 33.7828 83.7323C33.5996 83.7323 33.436 83.7708 33.2921 83.8476C33.1498 83.9229 33.037 84.0275 32.9536 84.1616C32.8718 84.2941 32.8309 84.4454 32.8309 84.6155V87H32.2519ZM35.9312 87.0883C35.6924 87.0883 35.4757 87.0433 35.2811 86.9534C35.0864 86.8618 34.9319 86.7301 34.8174 86.5584C34.7029 86.3851 34.6457 86.1757 34.6457 85.9304C34.6457 85.7145 34.6882 85.5395 34.7732 85.4054C34.8583 85.2697 34.9719 85.1634 35.1142 85.0865C35.2565 85.0096 35.4135 84.9524 35.5852 84.9148C35.7586 84.8755 35.9328 84.8444 36.1078 84.8215C36.3368 84.7921 36.5224 84.77 36.6647 84.7553C36.8086 84.739 36.9133 84.712 36.9787 84.6744C37.0457 84.6367 37.0793 84.5713 37.0793 84.4781V84.4585C37.0793 84.2164 37.013 84.0283 36.8805 83.8942C36.7497 83.7601 36.551 83.6931 36.2844 83.6931C36.008 83.6931 35.7913 83.7536 35.6343 83.8746C35.4773 83.9956 35.3669 84.1248 35.3031 84.2622L34.7536 84.066C34.8517 83.837 34.9826 83.6587 35.1461 83.5312C35.3113 83.402 35.4912 83.312 35.6858 83.2613C35.8821 83.209 36.0751 83.1828 36.2648 83.1828C36.3858 83.1828 36.5248 83.1975 36.6818 83.227C36.8405 83.2548 36.9934 83.3128 37.1406 83.4011C37.2894 83.4895 37.4129 83.6227 37.511 83.801C37.6092 83.9793 37.6582 84.2181 37.6582 84.5173V87H37.0793V86.4897H37.0498C37.0106 86.5715 36.9451 86.659 36.8536 86.7522C36.762 86.8454 36.6401 86.9248 36.488 86.9902C36.3359 87.0556 36.1503 87.0883 35.9312 87.0883ZM36.0195 86.5682C36.2484 86.5682 36.4414 86.5233 36.5984 86.4333C36.7571 86.3434 36.8765 86.2272 36.9566 86.085C37.0384 85.9427 37.0793 85.793 37.0793 85.636V85.1061C37.0547 85.1356 37.0008 85.1625 36.9173 85.1871C36.8356 85.21 36.7407 85.2304 36.6328 85.2484C36.5265 85.2648 36.4226 85.2795 36.3212 85.2926C36.2214 85.304 36.1405 85.3138 36.0783 85.322C35.9279 85.3416 35.7872 85.3735 35.6564 85.4177C35.5272 85.4602 35.4225 85.5248 35.3424 85.6115C35.2639 85.6965 35.2246 85.8126 35.2246 85.9598C35.2246 86.161 35.299 86.3131 35.4479 86.4161C35.5983 86.5175 35.7889 86.5682 36.0195 86.5682ZM40.2457 87.0785C39.8925 87.0785 39.5883 86.9951 39.3331 86.8283C39.078 86.6615 38.8818 86.4317 38.7444 86.1389C38.607 85.8462 38.5383 85.5117 38.5383 85.1356C38.5383 84.7529 38.6086 84.4151 38.7493 84.1224C38.8916 83.828 39.0895 83.5982 39.343 83.433C39.5981 83.2662 39.8957 83.1828 40.2359 83.1828C40.5009 83.1828 40.7397 83.2319 40.9523 83.33C41.1649 83.4281 41.3391 83.5655 41.4748 83.7421C41.6105 83.9188 41.6948 84.1248 41.7275 84.3603H41.1485C41.1044 84.1886 41.0062 84.0365 40.8541 83.904C40.7037 83.7699 40.5009 83.7029 40.2457 83.7029C40.02 83.7029 39.8222 83.7618 39.6521 83.8795C39.4836 83.9956 39.352 84.16 39.2571 84.3726C39.1639 84.5836 39.1173 84.8314 39.1173 85.1159C39.1173 85.407 39.1631 85.6605 39.2546 85.8764C39.3479 86.0923 39.4787 86.2599 39.6472 86.3793C39.8172 86.4987 40.0168 86.5584 40.2457 86.5584C40.3962 86.5584 40.5328 86.5323 40.6554 86.4799C40.7781 86.4276 40.8819 86.3524 40.967 86.2542C41.052 86.1561 41.1125 86.0383 41.1485 85.901H41.7275C41.6948 86.1234 41.6138 86.3237 41.4846 86.502C41.357 86.6786 41.1878 86.8193 40.9768 86.924C40.7675 87.027 40.5238 87.0785 40.2457 87.0785ZM44.2126 83.2319V83.7225H42.2598V83.2319H44.2126ZM42.829 82.3291H43.4079V85.9206C43.4079 86.0841 43.4316 86.2068 43.4791 86.2886C43.5281 86.3687 43.5903 86.4227 43.6655 86.4505C43.7424 86.4766 43.8233 86.4897 43.9084 86.4897C43.9722 86.4897 44.0245 86.4865 44.0654 86.4799C44.1063 86.4717 44.139 86.4652 44.1635 86.4603L44.2813 86.9804C44.242 86.9951 44.1872 87.0098 44.1169 87.0245C44.0466 87.0409 43.9575 87.0491 43.8495 87.0491C43.686 87.0491 43.5257 87.0139 43.3687 86.9436C43.2133 86.8733 43.0841 86.7661 42.9811 86.6222C42.8797 86.4783 42.829 86.2967 42.829 86.0776V82.3291ZM45.0835 87V83.2319H45.6624V87H45.0835ZM45.3779 82.6038C45.265 82.6038 45.1677 82.5654 45.0859 82.4885C45.0058 82.4117 44.9657 82.3193 44.9657 82.2113C44.9657 82.1034 45.0058 82.011 45.0859 81.9341C45.1677 81.8572 45.265 81.8188 45.3779 81.8188C45.4907 81.8188 45.5872 81.8572 45.6673 81.9341C45.7491 82.011 45.79 82.1034 45.79 82.2113C45.79 82.3193 45.7491 82.4117 45.6673 82.4885C45.5872 82.5654 45.4907 82.6038 45.3779 82.6038ZM48.2536 87.0785C47.9135 87.0785 47.615 86.9975 47.3582 86.8356C47.1031 86.6737 46.9036 86.4472 46.7596 86.1561C46.6174 85.865 46.5462 85.5248 46.5462 85.1356C46.5462 84.743 46.6174 84.4004 46.7596 84.1077C46.9036 83.8149 47.1031 83.5876 47.3582 83.4257C47.615 83.2638 47.9135 83.1828 48.2536 83.1828C48.5938 83.1828 48.8915 83.2638 49.1466 83.4257C49.4034 83.5876 49.6029 83.8149 49.7452 84.1077C49.8891 84.4004 49.9611 84.743 49.9611 85.1356C49.9611 85.5248 49.8891 85.865 49.7452 86.1561C49.6029 86.4472 49.4034 86.6737 49.1466 86.8356C48.8915 86.9975 48.5938 87.0785 48.2536 87.0785ZM48.2536 86.5584C48.5121 86.5584 48.7247 86.4922 48.8915 86.3597C49.0583 86.2272 49.1818 86.0531 49.2619 85.8372C49.3421 85.6213 49.3821 85.3874 49.3821 85.1356C49.3821 84.8837 49.3421 84.649 49.2619 84.4315C49.1818 84.214 49.0583 84.0382 48.8915 83.904C48.7247 83.7699 48.5121 83.7029 48.2536 83.7029C47.9952 83.7029 47.7826 83.7699 47.6158 83.904C47.449 84.0382 47.3255 84.214 47.2454 84.4315C47.1652 84.649 47.1252 84.8837 47.1252 85.1356C47.1252 85.3874 47.1652 85.6213 47.2454 85.8372C47.3255 86.0531 47.449 86.2272 47.6158 86.3597C47.7826 86.4922 47.9952 86.5584 48.2536 86.5584ZM51.4238 84.7332V87H50.8449V83.2319H51.4042V83.8206H51.4532C51.5416 83.6293 51.6757 83.4755 51.8556 83.3594C52.0355 83.2417 52.2677 83.1828 52.5523 83.1828C52.8074 83.1828 53.0307 83.2351 53.222 83.3398C53.4134 83.4428 53.5622 83.5998 53.6685 83.8108C53.7748 84.0202 53.828 84.2851 53.828 84.6057V87H53.249V84.6449C53.249 84.3489 53.1721 84.1183 53.0184 83.9531C52.8647 83.7863 52.6537 83.7029 52.3855 83.7029C52.2007 83.7029 52.0355 83.7429 51.8899 83.8231C51.746 83.9032 51.6323 84.0202 51.5489 84.1739C51.4655 84.3276 51.4238 84.5141 51.4238 84.7332Z" fill="#130C49"/>
<path d="M14.8461 119.546C14.7921 119.381 14.721 119.233 14.6327 119.102C14.546 118.969 14.4421 118.857 14.3211 118.763C14.2017 118.67 14.066 118.599 13.9139 118.55C13.7618 118.501 13.595 118.476 13.4134 118.476C13.1158 118.476 12.8451 118.553 12.6014 118.707C12.3577 118.861 12.1639 119.087 12.02 119.386C11.8761 119.686 11.8041 120.053 11.8041 120.488C11.8041 120.923 11.8769 121.29 12.0224 121.589C12.168 121.889 12.3651 122.115 12.6137 122.269C12.8623 122.423 13.1419 122.5 13.4527 122.5C13.7405 122.5 13.994 122.438 14.2132 122.316C14.434 122.191 14.6057 122.016 14.7283 121.791C14.8526 121.563 14.9148 121.296 14.9148 120.988L15.1012 121.028H13.5901V120.488H15.5036V121.028C15.5036 121.441 15.4152 121.801 15.2386 122.107C15.0636 122.413 14.8216 122.65 14.5125 122.818C14.205 122.985 13.8517 123.069 13.4527 123.069C13.0078 123.069 12.6169 122.964 12.28 122.755C11.9448 122.545 11.6831 122.248 11.495 121.862C11.3086 121.476 11.2153 121.018 11.2153 120.488C11.2153 120.09 11.2685 119.733 11.3748 119.416C11.4827 119.097 11.6348 118.825 11.8311 118.601C12.0274 118.377 12.2596 118.206 12.5278 118.086C12.796 117.967 13.0912 117.907 13.4134 117.907C13.6784 117.907 13.9253 117.947 14.1543 118.027C14.3849 118.106 14.5901 118.218 14.77 118.363C14.9516 118.507 15.1029 118.68 15.2239 118.881C15.3449 119.081 15.4283 119.302 15.4741 119.546H14.8461ZM18.8418 121.459V119.232H19.4207V123H18.8418V122.362H18.8025C18.7142 122.554 18.5768 122.716 18.3904 122.85C18.2039 122.983 17.9684 123.049 17.6839 123.049C17.4483 123.049 17.239 122.998 17.0558 122.895C16.8727 122.79 16.7287 122.633 16.6241 122.423C16.5194 122.213 16.4671 121.947 16.4671 121.626V119.232H17.046V121.587C17.046 121.862 17.1229 122.081 17.2766 122.244C17.432 122.408 17.6299 122.49 17.8703 122.49C18.0142 122.49 18.1606 122.453 18.3094 122.379C18.4599 122.306 18.5858 122.193 18.6872 122.041C18.7903 121.889 18.8418 121.695 18.8418 121.459ZM20.4811 123V119.232H21.0601V123H20.4811ZM20.7755 118.604C20.6627 118.604 20.5654 118.565 20.4836 118.489C20.4034 118.412 20.3634 118.319 20.3634 118.211C20.3634 118.103 20.4034 118.011 20.4836 117.934C20.5654 117.857 20.6627 117.819 20.7755 117.819C20.8884 117.819 20.9849 117.857 21.065 117.934C21.1468 118.011 21.1877 118.103 21.1877 118.211C21.1877 118.319 21.1468 118.412 21.065 118.489C20.9849 118.565 20.8884 118.604 20.7755 118.604ZM23.5434 123.079C23.2293 123.079 22.9521 122.999 22.7117 122.841C22.4713 122.68 22.2832 122.455 22.1475 122.163C22.0117 121.871 21.9439 121.525 21.9439 121.126C21.9439 120.73 22.0117 120.387 22.1475 120.095C22.2832 119.804 22.4721 119.579 22.7142 119.421C22.9562 119.262 23.2359 119.183 23.5532 119.183C23.7985 119.183 23.9923 119.224 24.1346 119.305C24.2785 119.386 24.3881 119.477 24.4633 119.58C24.5402 119.682 24.5999 119.765 24.6424 119.83H24.6915V117.976H25.2704V123H24.7111V122.421H24.6424C24.5999 122.49 24.5394 122.576 24.4609 122.681C24.3824 122.784 24.2703 122.877 24.1248 122.958C23.9792 123.038 23.7854 123.079 23.5434 123.079ZM23.6219 122.558C23.8541 122.558 24.0504 122.498 24.2106 122.377C24.3709 122.254 24.4927 122.085 24.5762 121.869C24.6596 121.652 24.7013 121.401 24.7013 121.116C24.7013 120.835 24.6604 120.588 24.5786 120.378C24.4968 120.165 24.3758 120 24.2155 119.882C24.0553 119.763 23.8574 119.703 23.6219 119.703C23.3765 119.703 23.1721 119.766 23.0086 119.892C22.8466 120.016 22.7248 120.185 22.643 120.4C22.5629 120.612 22.5228 120.851 22.5228 121.116C22.5228 121.384 22.5637 121.628 22.6455 121.847C22.7289 122.065 22.8515 122.238 23.0135 122.367C23.177 122.495 23.3798 122.558 23.6219 122.558ZM27.991 123.079C27.628 123.079 27.3148 122.998 27.0514 122.838C26.7898 122.676 26.5878 122.45 26.4455 122.161C26.3049 121.87 26.2345 121.531 26.2345 121.145C26.2345 120.759 26.3049 120.419 26.4455 120.125C26.5878 119.829 26.7857 119.598 27.0392 119.433C27.2943 119.266 27.592 119.183 27.9322 119.183C28.1284 119.183 28.3222 119.216 28.5136 119.281C28.7049 119.346 28.8791 119.453 29.0361 119.6C29.1931 119.745 29.3182 119.938 29.4114 120.179C29.5047 120.419 29.5513 120.715 29.5513 121.067V121.312H26.6467V120.812H28.9625C28.9625 120.599 28.92 120.409 28.8349 120.243C28.7515 120.076 28.6321 119.944 28.4768 119.848C28.323 119.751 28.1415 119.703 27.9322 119.703C27.7016 119.703 27.502 119.76 27.3336 119.875C27.1667 119.987 27.0384 120.135 26.9484 120.316C26.8585 120.498 26.8135 120.692 26.8135 120.9V121.234C26.8135 121.518 26.8626 121.759 26.9607 121.957C27.0604 122.154 27.1986 122.303 27.3753 122.406C27.5519 122.508 27.7572 122.558 27.991 122.558C28.1431 122.558 28.2805 122.537 28.4032 122.495C28.5275 122.45 28.6346 122.385 28.7245 122.298C28.8145 122.21 28.884 122.1 28.9331 121.97L29.4924 122.127C29.4335 122.316 29.3346 122.483 29.1956 122.627C29.0565 122.769 28.8848 122.881 28.6804 122.961C28.4759 123.039 28.2462 123.079 27.991 123.079ZM31.8548 123.079C31.5408 123.079 31.2636 122.999 31.0232 122.841C30.7828 122.68 30.5947 122.455 30.459 122.163C30.3232 121.871 30.2553 121.525 30.2553 121.126C30.2553 120.73 30.3232 120.387 30.459 120.095C30.5947 119.804 30.7836 119.579 31.0257 119.421C31.2677 119.262 31.5474 119.183 31.8647 119.183C32.11 119.183 32.3038 119.224 32.4461 119.305C32.59 119.386 32.6996 119.477 32.7748 119.58C32.8517 119.682 32.9114 119.765 32.9539 119.83H33.0029V117.976H33.5819V123H33.0226V122.421H32.9539C32.9114 122.49 32.8508 122.576 32.7723 122.681C32.6938 122.784 32.5818 122.877 32.4363 122.958C32.2907 123.038 32.0969 123.079 31.8548 123.079ZM31.9333 122.558C32.1656 122.558 32.3618 122.498 32.5221 122.377C32.6824 122.254 32.8042 122.085 32.8876 121.869C32.9711 121.652 33.0128 121.401 33.0128 121.116C33.0128 120.835 32.9719 120.588 32.8901 120.378C32.8083 120.165 32.6873 120 32.527 119.882C32.3667 119.763 32.1689 119.703 31.9333 119.703C31.688 119.703 31.4836 119.766 31.32 119.892C31.1581 120.016 31.0363 120.185 30.9545 120.4C30.8744 120.612 30.8343 120.851 30.8343 121.116C30.8343 121.384 30.8752 121.628 30.957 121.847C31.0404 122.065 31.163 122.238 31.3249 122.367C31.4885 122.495 31.6913 122.558 31.9333 122.558ZM36.7441 123V117.976H38.4417C38.8359 117.976 39.1581 118.047 39.4083 118.189C39.6601 118.33 39.8466 118.52 39.9676 118.761C40.0886 119.001 40.1492 119.269 40.1492 119.566C40.1492 119.862 40.0886 120.131 39.9676 120.373C39.8482 120.615 39.6634 120.808 39.4132 120.952C39.163 121.094 38.8424 121.165 38.4515 121.165H37.2347V120.625H38.4319C38.7018 120.625 38.9185 120.579 39.082 120.485C39.2456 120.392 39.3641 120.266 39.4377 120.108C39.513 119.947 39.5506 119.767 39.5506 119.566C39.5506 119.364 39.513 119.184 39.4377 119.026C39.3641 118.867 39.2447 118.743 39.0796 118.653C38.9144 118.561 38.6952 118.516 38.4221 118.516H37.3525V123H36.7441ZM41.0507 123V119.232H41.61V119.801H41.6493C41.718 119.615 41.8423 119.463 42.0222 119.347C42.2021 119.231 42.4049 119.173 42.6306 119.173C42.6731 119.173 42.7263 119.174 42.79 119.175C42.8538 119.177 42.9021 119.18 42.9348 119.183V119.772C42.9152 119.767 42.8702 119.759 42.7999 119.749C42.7312 119.738 42.6584 119.732 42.5815 119.732C42.3983 119.732 42.2348 119.771 42.0909 119.848C41.9486 119.923 41.8357 120.028 41.7523 120.162C41.6706 120.294 41.6297 120.445 41.6297 120.615V123H41.0507ZM45.0372 123.079C44.697 123.079 44.3985 122.998 44.1418 122.836C43.8866 122.674 43.6871 122.447 43.5432 122.156C43.4009 121.865 43.3297 121.525 43.3297 121.136C43.3297 120.743 43.4009 120.4 43.5432 120.108C43.6871 119.815 43.8866 119.588 44.1418 119.426C44.3985 119.264 44.697 119.183 45.0372 119.183C45.3774 119.183 45.675 119.264 45.9302 119.426C46.1869 119.588 46.3865 119.815 46.5287 120.108C46.6727 120.4 46.7446 120.743 46.7446 121.136C46.7446 121.525 46.6727 121.865 46.5287 122.156C46.3865 122.447 46.1869 122.674 45.9302 122.836C45.675 122.998 45.3774 123.079 45.0372 123.079ZM45.0372 122.558C45.2956 122.558 45.5082 122.492 45.675 122.36C45.8418 122.227 45.9653 122.053 46.0455 121.837C46.1256 121.621 46.1657 121.387 46.1657 121.136C46.1657 120.884 46.1256 120.649 46.0455 120.431C45.9653 120.214 45.8418 120.038 45.675 119.904C45.5082 119.77 45.2956 119.703 45.0372 119.703C44.7788 119.703 44.5662 119.77 44.3994 119.904C44.2325 120.038 44.1091 120.214 44.0289 120.431C43.9488 120.649 43.9087 120.884 43.9087 121.136C43.9087 121.387 43.9488 121.621 44.0289 121.837C44.1091 122.053 44.2325 122.227 44.3994 122.36C44.5662 122.492 44.7788 122.558 45.0372 122.558ZM49.1592 123.079C48.8059 123.079 48.5017 122.995 48.2466 122.828C47.9915 122.661 47.7952 122.432 47.6578 122.139C47.5204 121.846 47.4518 121.512 47.4518 121.136C47.4518 120.753 47.5221 120.415 47.6627 120.122C47.805 119.828 48.0029 119.598 48.2564 119.433C48.5115 119.266 48.8092 119.183 49.1494 119.183C49.4143 119.183 49.6531 119.232 49.8657 119.33C50.0783 119.428 50.2525 119.566 50.3883 119.742C50.524 119.919 50.6082 120.125 50.6409 120.36H50.062C50.0178 120.189 49.9197 120.037 49.7676 119.904C49.6171 119.77 49.4143 119.703 49.1592 119.703C48.9335 119.703 48.7356 119.762 48.5655 119.88C48.3971 119.996 48.2654 120.16 48.1705 120.373C48.0773 120.584 48.0307 120.831 48.0307 121.116C48.0307 121.407 48.0765 121.661 48.1681 121.876C48.2613 122.092 48.3922 122.26 48.5606 122.379C48.7307 122.499 48.9302 122.558 49.1592 122.558C49.3097 122.558 49.4462 122.532 49.5689 122.48C49.6915 122.428 49.7954 122.352 49.8804 122.254C49.9655 122.156 50.026 122.038 50.062 121.901H50.6409C50.6082 122.123 50.5273 122.324 50.3981 122.502C50.2705 122.679 50.1012 122.819 49.8903 122.924C49.6809 123.027 49.4372 123.079 49.1592 123.079ZM53.0672 123.079C52.7041 123.079 52.3909 122.998 52.1276 122.838C51.8659 122.676 51.6639 122.45 51.5216 122.161C51.381 121.87 51.3107 121.531 51.3107 121.145C51.3107 120.759 51.381 120.419 51.5216 120.125C51.6639 119.829 51.8618 119.598 52.1153 119.433C52.3704 119.266 52.6681 119.183 53.0083 119.183C53.2045 119.183 53.3983 119.216 53.5897 119.281C53.781 119.346 53.9552 119.453 54.1122 119.6C54.2692 119.745 54.3943 119.938 54.4876 120.179C54.5808 120.419 54.6274 120.715 54.6274 121.067V121.312H51.7228V120.812H54.0386C54.0386 120.599 53.9961 120.409 53.9111 120.243C53.8277 120.076 53.7083 119.944 53.5529 119.848C53.3992 119.751 53.2176 119.703 53.0083 119.703C52.7777 119.703 52.5782 119.76 52.4097 119.875C52.2429 119.987 52.1145 120.135 52.0245 120.316C51.9346 120.498 51.8896 120.692 51.8896 120.9V121.234C51.8896 121.518 51.9387 121.759 52.0368 121.957C52.1366 122.154 52.2748 122.303 52.4514 122.406C52.628 122.508 52.8333 122.558 53.0672 122.558C53.2193 122.558 53.3566 122.537 53.4793 122.495C53.6036 122.45 53.7107 122.385 53.8007 122.298C53.8906 122.21 53.9601 122.1 54.0092 121.97L54.5685 122.127C54.5097 122.316 54.4107 122.483 54.2717 122.627C54.1327 122.769 53.9609 122.881 53.7565 122.961C53.5521 123.039 53.3223 123.079 53.0672 123.079ZM58.1772 120.076L57.6571 120.223C57.6244 120.136 57.5762 120.052 57.5124 119.97C57.4502 119.887 57.3652 119.818 57.2573 119.764C57.1493 119.71 57.0111 119.683 56.8427 119.683C56.6121 119.683 56.4199 119.736 56.2662 119.843C56.1141 119.947 56.038 120.081 56.038 120.243C56.038 120.387 56.0903 120.5 56.195 120.584C56.2997 120.667 56.4632 120.737 56.6857 120.792L57.245 120.929C57.5819 121.011 57.8329 121.136 57.9981 121.305C58.1633 121.472 58.2459 121.687 58.2459 121.95C58.2459 122.166 58.1838 122.359 58.0595 122.529C57.9368 122.699 57.7651 122.833 57.5443 122.931C57.3235 123.029 57.0667 123.079 56.774 123.079C56.3896 123.079 56.0715 122.995 55.8197 122.828C55.5678 122.661 55.4083 122.418 55.3413 122.097L55.8908 121.96C55.9431 122.163 56.0421 122.315 56.1877 122.416C56.3348 122.518 56.527 122.568 56.7642 122.568C57.034 122.568 57.2483 122.511 57.4069 122.397C57.5672 122.28 57.6473 122.141 57.6473 121.979C57.6473 121.849 57.6015 121.739 57.5099 121.651C57.4183 121.561 57.2777 121.494 57.088 121.45L56.46 121.302C56.1149 121.221 55.8614 121.094 55.6995 120.922C55.5392 120.749 55.459 120.532 55.459 120.272C55.459 120.059 55.5187 119.871 55.6381 119.708C55.7592 119.544 55.9235 119.416 56.1312 119.323C56.3406 119.229 56.5777 119.183 56.8427 119.183C57.2155 119.183 57.5083 119.265 57.7209 119.428C57.9352 119.592 58.0873 119.808 58.1772 120.076ZM61.7865 120.076L61.2664 120.223C61.2337 120.136 61.1855 120.052 61.1217 119.97C61.0595 119.887 60.9745 119.818 60.8665 119.764C60.7586 119.71 60.6204 119.683 60.452 119.683C60.2213 119.683 60.0292 119.736 59.8754 119.843C59.7233 119.947 59.6473 120.081 59.6473 120.243C59.6473 120.387 59.6996 120.5 59.8043 120.584C59.909 120.667 60.0725 120.737 60.2949 120.792L60.8543 120.929C61.1912 121.011 61.4422 121.136 61.6074 121.305C61.7726 121.472 61.8552 121.687 61.8552 121.95C61.8552 122.166 61.793 122.359 61.6687 122.529C61.5461 122.699 61.3744 122.833 61.1536 122.931C60.9328 123.029 60.676 123.079 60.3833 123.079C59.9989 123.079 59.6808 122.995 59.429 122.828C59.1771 122.661 59.0176 122.418 58.9506 122.097L59.5001 121.96C59.5524 122.163 59.6514 122.315 59.7969 122.416C59.9441 122.518 60.1363 122.568 60.3734 122.568C60.6433 122.568 60.8575 122.511 61.0162 122.397C61.1765 122.28 61.2566 122.141 61.2566 121.979C61.2566 121.849 61.2108 121.739 61.1192 121.651C61.0276 121.561 60.887 121.494 60.6973 121.45L60.0693 121.302C59.7242 121.221 59.4707 121.094 59.3088 120.922C59.1485 120.749 59.0683 120.532 59.0683 120.272C59.0683 120.059 59.128 119.871 59.2474 119.708C59.3684 119.544 59.5328 119.416 59.7405 119.323C59.9499 119.229 60.187 119.183 60.452 119.183C60.8248 119.183 61.1176 119.265 61.3302 119.428C61.5444 119.592 61.6965 119.808 61.7865 120.076Z" fill="#130C49"/>
<path d="M123 65L118.519 62.4132V67.5868L123 65ZM82 65.4481H118.968V64.5519H82V65.4481Z" fill="#130C49"/>
<path d="M36 36.5109L38.5868 32.0303L33.4132 32.0303L36 36.5109ZM35.5519 25L35.5519 32.4784L36.4481 32.4784L36.4481 25L35.5519 25Z" fill="#130C49"/>
<path d="M36 72.5109L38.5868 68.0303L33.4132 68.0303L36 72.5109ZM35.5519 61L35.5519 68.4784L36.4481 68.4784L36.4481 61L35.5519 61Z" fill="#130C49"/>
<path d="M36 108.511L38.5868 104.03L33.4132 104.03L36 108.511ZM35.5519 97L35.5519 104.478L36.4481 104.478L36.4481 97L35.5519 97Z" fill="#130C49"/>
</svg>
