<?xml version="1.0" encoding="UTF-8"?>
<svg id="Layer_1" xmlns="http://www.w3.org/2000/svg" viewBox="0 0 192.5 102.5">
  <defs>
    <style>
      .cls-1 {
        fill: #bcf0a7;
      }

      .cls-2 {
        fill: #61b973;
      }

      .cls-3 {
        fill: #7ac7c0;
      }

      .cls-4 {
        fill: #9ae5f7;
      }

      .cls-5 {
        fill: none;
        stroke: #131144;
        stroke-width: .5px;
      }

      .cls-6 {
        fill: #7ad6eb;
      }

      .cls-7 {
        fill: #130c49;
      }

      .cls-8 {
        fill: #a7e9f8;
      }

      .cls-9 {
        fill: #daf5cf;
      }
    </style>
  </defs>
  <rect class="cls-6" x="72.25" y="77.25" width="5.33" height="25"/>
  <rect class="cls-5" x="72.25" y="77.25" width="5.33" height="25"/>
  <rect class="cls-5" x="72.25" y="77.25" width="5.33" height="25"/>
  <rect class="cls-5" x="72.25" y="77.25" width="5.33" height="25"/>
  <rect class="cls-3" x="77.58" y="77.25" width="5.33" height="25"/>
  <rect class="cls-5" x="77.58" y="77.25" width="5.33" height="25"/>
  <rect class="cls-5" x="77.58" y="77.25" width="5.33" height="25"/>
  <rect class="cls-5" x="77.58" y="77.25" width="5.33" height="25"/>
  <rect class="cls-6" x="82.92" y="77.25" width="5.33" height="25"/>
  <rect class="cls-5" x="82.92" y="77.25" width="5.33" height="25"/>
  <rect class="cls-5" x="82.92" y="77.25" width="5.33" height="25"/>
  <rect class="cls-5" x="82.92" y="77.25" width="5.33" height="25"/>
  <rect class="cls-1" x="88.25" y="77.25" width="5.33" height="25"/>
  <rect class="cls-5" x="88.25" y="77.25" width="5.33" height="25"/>
  <rect class="cls-5" x="88.25" y="77.25" width="5.33" height="25"/>
  <rect class="cls-5" x="88.25" y="77.25" width="5.33" height="25"/>
  <rect class="cls-1" x="93.58" y="77.25" width="5.33" height="25"/>
  <rect class="cls-5" x="93.58" y="77.25" width="5.33" height="25"/>
  <rect class="cls-5" x="93.58" y="77.25" width="5.33" height="25"/>
  <rect class="cls-5" x="93.58" y="77.25" width="5.33" height="25"/>
  <rect class="cls-3" x="98.92" y="77.25" width="5.33" height="25"/>
  <rect class="cls-5" x="98.92" y="77.25" width="5.33" height="25"/>
  <rect class="cls-5" x="98.92" y="77.25" width="5.33" height="25"/>
  <rect class="cls-5" x="98.92" y="77.25" width="5.33" height="25"/>
  <rect class="cls-6" x="104.25" y="77.25" width="5.33" height="25"/>
  <rect class="cls-5" x="104.25" y="77.25" width="5.33" height="25"/>
  <rect class="cls-5" x="104.25" y="77.25" width="5.33" height="25"/>
  <rect class="cls-5" x="104.25" y="77.25" width="5.33" height="25"/>
  <rect class="cls-1" x="109.58" y="77.25" width="5.33" height="25"/>
  <rect class="cls-5" x="109.58" y="77.25" width="5.33" height="25"/>
  <rect class="cls-5" x="109.58" y="77.25" width="5.33" height="25"/>
  <rect class="cls-5" x="109.58" y="77.25" width="5.33" height="25"/>
  <rect class="cls-6" x="114.92" y="77.25" width="5.33" height="25"/>
  <rect class="cls-5" x="114.92" y="77.25" width="5.33" height="25"/>
  <rect class="cls-5" x="114.92" y="77.25" width="5.33" height="25"/>
  <rect class="cls-5" x="114.92" y="77.25" width="5.33" height="25"/>
  <rect class="cls-6" x=".25" y=".25" width="24" height="25"/>
  <rect class="cls-5" x=".25" y=".25" width="24" height="25"/>
  <rect class="cls-5" x=".25" y=".25" width="24" height="25"/>
  <rect class="cls-5" x=".25" y=".25" width="24" height="25"/>
  <rect class="cls-3" x="24.25" y=".25" width="24" height="25"/>
  <rect class="cls-5" x="24.25" y=".25" width="24" height="25"/>
  <rect class="cls-5" x="24.25" y=".25" width="24" height="25"/>
  <rect class="cls-5" x="24.25" y=".25" width="24" height="25"/>
  <rect class="cls-4" x="48.25" y=".25" width="24" height="25"/>
  <rect class="cls-5" x="48.25" y=".25" width="24" height="25"/>
  <rect class="cls-5" x="48.25" y=".25" width="24" height="25"/>
  <rect class="cls-5" x="48.25" y=".25" width="24" height="25"/>
  <rect class="cls-1" x="72.25" y=".25" width="24" height="25"/>
  <rect class="cls-5" x="72.25" y=".25" width="24" height="25"/>
  <rect class="cls-5" x="72.25" y=".25" width="24" height="25"/>
  <rect class="cls-5" x="72.25" y=".25" width="24" height="25"/>
  <rect class="cls-9" x="96.25" y=".25" width="24" height="25"/>
  <rect class="cls-5" x="96.25" y=".25" width="24" height="25"/>
  <rect class="cls-5" x="96.25" y=".25" width="24" height="25"/>
  <rect class="cls-5" x="96.25" y=".25" width="24" height="25"/>
  <rect class="cls-3" x="120.25" y=".25" width="24" height="25"/>
  <rect class="cls-5" x="120.25" y=".25" width="24" height="25"/>
  <rect class="cls-5" x="120.25" y=".25" width="24" height="25"/>
  <rect class="cls-5" x="120.25" y=".25" width="24" height="25"/>
  <rect class="cls-8" x="144.25" y=".25" width="24" height="25"/>
  <rect class="cls-5" x="144.25" y=".25" width="24" height="25"/>
  <rect class="cls-5" x="144.25" y=".25" width="24" height="25"/>
  <rect class="cls-5" x="144.25" y=".25" width="24" height="25"/>
  <rect class="cls-2" x="168.25" y=".25" width="24" height="25"/>
  <rect class="cls-5" x="168.25" y=".25" width="24" height="25"/>
  <rect class="cls-5" x="168.25" y=".25" width="24" height="25"/>
  <rect class="cls-5" x="168.25" y=".25" width="24" height="25"/>
  <path class="cls-7" d="M96.92,69.33V30.73h-1.33v38.61h1.33Z"/>
  <path class="cls-7" d="M90.8,65.92l.97-.91,4.47,4.81,4.47-4.81.98.91-5.45,5.85-5.45-5.85Z"/>
</svg>