<svg width="227" height="95" viewBox="0 0 227 95" fill="none" xmlns="http://www.w3.org/2000/svg">
<path d="M41.8481 55.1604L38.9314 53.4765V56.8444L41.8481 55.1604ZM26.5303 55.4521H39.2231V54.8687H26.5303V55.4521Z" fill="#130C49"/>
<path d="M68.6543 55.1604L81.4192 55.1604" stroke="#130C49" stroke-width="0.58334"/>
<path d="M91.6313 44.9485L88.7146 43.2646V46.6325L91.6313 44.9485ZM81.4194 45.2402H89.0063V44.6568H81.4194V45.2402Z" fill="#130C49"/>
<path d="M160.739 44.9171L157.822 43.2332V46.6011L160.739 44.9171ZM149.072 45.2088H158.114V44.6255H149.072V45.2088Z" fill="#130C49"/>
<path d="M200.132 55.1604L197.216 53.4765V56.8444L200.132 55.1604ZM183.538 55.4521H197.507V54.8687H183.538V55.4521Z" fill="#130C49"/>
<path d="M160.739 23.3336L157.822 21.6496V25.0175L160.739 23.3336ZM149.072 23.6252H158.114V23.0419H149.072V23.6252Z" fill="#130C49"/>
<path d="M91.6313 65.3723L88.7146 63.6884V67.0563L91.6313 65.3723ZM81.4194 65.664H89.0063V65.0806H81.4194V65.664Z" fill="#130C49"/>
<path d="M160.739 65.9174L157.822 64.2334V67.6013L160.739 65.9174ZM149.072 66.209H158.114V65.6257H149.072V66.209Z" fill="#130C49"/>
<path d="M160.739 87.5009L157.822 85.817V89.1849L160.739 87.5009ZM149.072 87.7926H158.114V87.2093H149.072V87.7926Z" fill="#130C49"/>
<rect x="204.542" y="20.7085" width="11.923" height="14.7022" fill="#85E3BC" stroke="#130C49" stroke-width="0.58334" stroke-linejoin="round"/>
<line x1="207.321" y1="24.294" x2="213.686" y2="24.294" stroke="#130C49" stroke-width="0.58334" stroke-linecap="round"/>
<line x1="207.321" y1="27.0733" x2="213.686" y2="27.0733" stroke="#130C49" stroke-width="0.58334" stroke-linecap="round"/>
<line x1="207.321" y1="29.8523" x2="213.686" y2="29.8523" stroke="#130C49" stroke-width="0.58334" stroke-linecap="round"/>
<rect x="204.542" y="38.947" width="11.923" height="14.7022" fill="#85E3BC" stroke="#130C49" stroke-width="0.58334" stroke-linejoin="round"/>
<line x1="207.321" y1="42.5325" x2="213.686" y2="42.5325" stroke="#130C49" stroke-width="0.58334" stroke-linecap="round"/>
<line x1="207.321" y1="45.3117" x2="213.686" y2="45.3117" stroke="#130C49" stroke-width="0.58334" stroke-linecap="round"/>
<line x1="207.321" y1="48.0908" x2="213.686" y2="48.0908" stroke="#130C49" stroke-width="0.58334" stroke-linecap="round"/>
<rect x="204.542" y="57.1852" width="11.923" height="14.7022" fill="#85E3BC" stroke="#130C49" stroke-width="0.58334" stroke-linejoin="round"/>
<line x1="207.321" y1="60.7706" x2="213.686" y2="60.7706" stroke="#130C49" stroke-width="0.58334" stroke-linecap="round"/>
<line x1="207.321" y1="63.5499" x2="213.686" y2="63.5499" stroke="#130C49" stroke-width="0.58334" stroke-linecap="round"/>
<line x1="207.321" y1="66.3289" x2="213.686" y2="66.3289" stroke="#130C49" stroke-width="0.58334" stroke-linecap="round"/>
<rect x="204.542" y="75.4239" width="11.923" height="14.7022" fill="#85E3BC" stroke="#130C49" stroke-width="0.58334" stroke-linejoin="round"/>
<line x1="207.321" y1="79.0094" x2="213.686" y2="79.0094" stroke="#130C49" stroke-width="0.58334" stroke-linecap="round"/>
<line x1="207.321" y1="81.7887" x2="213.686" y2="81.7887" stroke="#130C49" stroke-width="0.58334" stroke-linecap="round"/>
<line x1="207.321" y1="84.5677" x2="213.686" y2="84.5677" stroke="#130C49" stroke-width="0.58334" stroke-linecap="round"/>
<path d="M25.2963 44.9485H2.05683C1.47343 44.9485 1.00049 45.4215 1.00049 46.0049V59.1034C1.00049 59.6868 1.47343 60.1598 2.05682 60.1598H19.7798L23.5357 63.9626V60.1598H25.2963C25.8797 60.1598 26.3526 59.6868 26.3526 59.1034V46.0049C26.3526 45.4215 25.8797 44.9485 25.2963 44.9485Z" fill="#85E3BC" stroke="#130C49" stroke-width="0.638243"/>
<path d="M50.5355 48.9611V55.478M50.5355 55.478H59.9488M50.5355 55.478L54.156 64.1672M50.5355 55.478L44.7427 63.4431" stroke="#130C49" stroke-width="0.58334"/>
<circle cx="50.5357" cy="46.0637" r="2.60489" fill="#85E3BC" stroke="#130C49" stroke-width="0.58334"/>
<circle cx="50.5357" cy="55.4764" r="2.60489" fill="#85E3BC" stroke="#130C49" stroke-width="0.58334"/>
<circle cx="59.9522" cy="55.4764" r="2.60489" fill="#85E3BC" stroke="#130C49" stroke-width="0.58334"/>
<circle cx="54.1558" cy="64.1671" r="2.60489" fill="#85E3BC" stroke="#130C49" stroke-width="0.58334"/>
<circle cx="44.7442" cy="63.4407" r="2.60489" fill="#85E3BC" stroke="#130C49" stroke-width="0.58334"/>
<path d="M170.177 49.5391L170.178 49.5386L178.45 44.76C178.45 44.76 178.45 44.7599 178.45 44.7598C178.763 44.5807 179.144 44.5807 179.456 44.7598C179.456 44.7599 179.456 44.76 179.457 44.76L187.728 49.5381C187.728 49.5382 187.728 49.5383 187.728 49.5384C188.036 49.7178 188.228 50.0486 188.228 50.4053V59.9575C188.228 60.3164 188.04 60.6455 187.73 60.8237L187.729 60.8241L179.457 65.5968C179.456 65.5969 179.456 65.597 179.456 65.597C179.144 65.7762 178.763 65.7762 178.45 65.597C178.45 65.597 178.45 65.5969 178.45 65.5968L170.178 60.8246C170.178 60.8246 170.178 60.8245 170.178 60.8244C169.87 60.645 169.678 60.3142 169.678 59.9575V50.4053C169.678 50.0464 169.866 49.7173 170.177 49.5391Z" fill="#85E3BC" stroke="#130C49" stroke-width="0.58334"/>
<path d="M180.84 52.6914V55.0129L178.957 53.9232L177.068 55.0129V52.6914L174.824 53.9884V56.446L176.95 57.6778L178.957 56.517L180.959 57.6778L183.085 56.446V53.9884L180.84 52.6914Z" fill="#130C49"/>
<rect x="91.9225" y="17.2085" width="57.1673" height="12.8335" rx="1.45835" fill="#85E3BC" stroke="#130C49" stroke-width="0.58334"/>
<path d="M91.6313 23.2482L88.7146 21.5643V24.9322L91.6313 23.2482ZM91.6313 87.0726L88.7146 85.3886V88.7565L91.6313 87.0726ZM89.0063 22.9566H84.9195V23.5399H89.0063V22.9566ZM81.1278 26.7483V83.5725H81.7111V26.7483H81.1278ZM84.9195 87.3643H89.0063V86.7809H84.9195V87.3643ZM81.1278 83.5725C81.1278 85.6666 82.8254 87.3643 84.9195 87.3643V86.7809C83.1475 86.7809 81.7111 85.3445 81.7111 83.5725H81.1278ZM84.9195 22.9566C82.8254 22.9566 81.1278 24.6542 81.1278 26.7483H81.7111C81.7111 24.9763 83.1475 23.5399 84.9195 23.5399V22.9566Z" fill="#130C49"/>
<path d="M36.7883 32.1337C36.5332 32.1337 36.2952 32.0886 36.0743 31.9984C35.8534 31.9081 35.6605 31.7821 35.4956 31.6204C35.3307 31.4586 35.2016 31.2688 35.1083 31.051C35.018 30.8301 34.9729 30.5921 34.9729 30.337C34.9729 30.0788 35.018 29.8408 35.1083 29.623C35.1985 29.4052 35.3261 29.2154 35.4909 29.0537C35.6558 28.8919 35.8487 28.7674 36.0696 28.6803C36.2905 28.5901 36.5301 28.545 36.7883 28.545C37.0465 28.545 37.2861 28.5901 37.507 28.6803C37.7279 28.7706 37.9207 28.8966 38.0856 29.0583C38.2505 29.217 38.3781 29.4052 38.4683 29.623C38.5616 29.8408 38.6083 30.0788 38.6083 30.337C38.6083 30.5921 38.5616 30.8301 38.4683 31.051C38.375 31.2688 38.2459 31.4586 38.081 31.6204C37.9161 31.7821 37.7232 31.9081 37.5023 31.9984C37.2845 32.0886 37.0465 32.1337 36.7883 32.1337ZM36.7883 31.555C36.9594 31.555 37.1165 31.5255 37.2596 31.4664C37.4027 31.4041 37.5272 31.3186 37.633 31.2097C37.7419 31.1008 37.8243 30.9717 37.8803 30.8224C37.9394 30.673 37.969 30.5112 37.969 30.337C37.969 30.1628 37.9394 30.0026 37.8803 29.8563C37.8243 29.707 37.7419 29.5779 37.633 29.469C37.5272 29.357 37.4027 29.2714 37.2596 29.2123C37.1165 29.1532 36.9594 29.1237 36.7883 29.1237C36.6203 29.1237 36.4647 29.1532 36.3216 29.2123C36.1785 29.2714 36.0525 29.357 35.9436 29.469C35.8378 29.5779 35.7554 29.707 35.6963 29.8563C35.6372 30.0026 35.6076 30.1628 35.6076 30.337C35.6076 30.5112 35.6372 30.673 35.6963 30.8224C35.7554 30.9717 35.8378 31.1008 35.9436 31.2097C36.0525 31.3186 36.1785 31.4041 36.3216 31.4664C36.4647 31.5255 36.6203 31.555 36.7883 31.555ZM37.591 32.4977L36.5083 30.687H37.171L38.2676 32.4977H37.591ZM40.0267 32.1337C39.8307 32.1337 39.6595 32.0901 39.5133 32.003C39.3702 31.9159 39.2598 31.7946 39.182 31.639C39.1073 31.4835 39.07 31.3015 39.07 31.093V29.539H39.6813V31.0417C39.6813 31.1475 39.7015 31.2408 39.742 31.3217C39.7855 31.3995 39.8462 31.4617 39.924 31.5084C40.0049 31.5519 40.0951 31.5737 40.1947 31.5737C40.2942 31.5737 40.3829 31.5519 40.4607 31.5084C40.5384 31.4617 40.5991 31.3979 40.6427 31.317C40.6862 31.2361 40.708 31.1397 40.708 31.0277V29.539H41.3193V32.0777H40.7407V31.5784L40.792 31.667C40.7329 31.8226 40.6349 31.9393 40.498 32.017C40.3642 32.0948 40.2071 32.1337 40.0267 32.1337ZM43.0916 32.1337C42.8303 32.1337 42.6016 32.0746 42.4056 31.9564C42.2096 31.8381 42.0572 31.6779 41.9483 31.4757C41.8394 31.2735 41.785 31.0495 41.785 30.8037C41.785 30.5486 41.8394 30.323 41.9483 30.127C42.0603 29.9279 42.2112 29.7708 42.401 29.6557C42.5939 29.5406 42.8085 29.483 43.045 29.483C43.2441 29.483 43.4183 29.5157 43.5676 29.581C43.7201 29.6463 43.8492 29.7366 43.955 29.8517C44.0608 29.9668 44.1417 30.099 44.1977 30.2483C44.2537 30.3946 44.2817 30.5532 44.2817 30.7243C44.2817 30.7679 44.2785 30.813 44.2723 30.8597C44.2692 30.9064 44.2614 30.9468 44.249 30.981H42.289V30.5143H43.9036L43.6143 30.7337C43.6423 30.5906 43.6345 30.463 43.591 30.351C43.5505 30.239 43.4821 30.1503 43.3856 30.085C43.2923 30.0197 43.1788 29.987 43.045 29.987C42.9174 29.987 42.8039 30.0197 42.7043 30.085C42.6047 30.1472 42.5285 30.2406 42.4756 30.365C42.4259 30.4863 42.4072 30.6341 42.4196 30.8084C42.4072 30.9639 42.4274 31.1024 42.4803 31.2237C42.5363 31.3419 42.6172 31.4337 42.723 31.499C42.8319 31.5644 42.9563 31.597 43.0963 31.597C43.2363 31.597 43.3545 31.5675 43.451 31.5084C43.5505 31.4492 43.6283 31.3699 43.6843 31.2704L44.179 31.513C44.1292 31.6344 44.0514 31.7417 43.9456 31.835C43.8399 31.9284 43.7139 32.0015 43.5676 32.0544C43.4245 32.1073 43.2659 32.1337 43.0916 32.1337ZM44.7451 32.0777V29.539H45.3191V30.1037L45.2724 30.0197C45.3315 29.8299 45.4233 29.6977 45.5478 29.623C45.6753 29.5483 45.8278 29.511 46.0051 29.511H46.1544V30.0523H45.9351C45.7609 30.0523 45.6209 30.1068 45.5151 30.2157C45.4093 30.3215 45.3564 30.4708 45.3564 30.6637V32.0777H44.7451ZM46.7985 33.1044C46.7301 33.1044 46.6632 33.0982 46.5979 33.0857C46.5325 33.0764 46.4734 33.0577 46.4205 33.0297V32.521C46.461 32.5304 46.5092 32.5397 46.5652 32.549C46.6243 32.5584 46.6788 32.563 46.7285 32.563C46.8685 32.563 46.9697 32.5304 47.0319 32.465C47.0972 32.4028 47.1548 32.3188 47.2045 32.213L47.3725 31.821L47.3632 32.3344L46.2572 29.539H46.9152L47.6899 31.6017H47.4566L48.2266 29.539H48.8892L47.7832 32.3344C47.7179 32.4961 47.6386 32.6346 47.5452 32.7497C47.4519 32.8648 47.343 32.9519 47.2185 33.011C47.0972 33.0733 46.9572 33.1044 46.7985 33.1044ZM50.1057 32.0777V28.601H51.3984C51.6348 28.601 51.8433 28.6445 52.0237 28.7317C52.2073 28.8157 52.3504 28.9401 52.4531 29.105C52.5557 29.2668 52.6071 29.4643 52.6071 29.6977C52.6071 29.9372 52.5495 30.141 52.4344 30.309C52.3224 30.477 52.17 30.6015 51.9771 30.6823L52.7751 32.0777H52.0564L51.2024 30.5517L51.6131 30.7944H50.7404V32.0777H50.1057ZM50.7404 30.2343H51.4077C51.5228 30.2343 51.6224 30.2126 51.7064 30.169C51.7904 30.1223 51.8557 30.0586 51.9024 29.9777C51.9491 29.8968 51.9724 29.8035 51.9724 29.6977C51.9724 29.5888 51.9491 29.4954 51.9024 29.4177C51.8557 29.3368 51.7904 29.2746 51.7064 29.231C51.6224 29.1843 51.5228 29.161 51.4077 29.161H50.7404V30.2343ZM54.2024 32.1337C53.9411 32.1337 53.7124 32.0746 53.5164 31.9564C53.3204 31.8381 53.168 31.6779 53.0591 31.4757C52.9502 31.2735 52.8958 31.0495 52.8958 30.8037C52.8958 30.5486 52.9502 30.323 53.0591 30.127C53.1711 29.9279 53.322 29.7708 53.5118 29.6557C53.7047 29.5406 53.9193 29.483 54.1558 29.483C54.3549 29.483 54.5291 29.5157 54.6784 29.581C54.8309 29.6463 54.96 29.7366 55.0658 29.8517C55.1716 29.9668 55.2524 30.099 55.3084 30.2483C55.3644 30.3946 55.3924 30.5532 55.3924 30.7243C55.3924 30.7679 55.3893 30.813 55.3831 30.8597C55.38 30.9064 55.3722 30.9468 55.3598 30.981H53.3998V30.5143H55.0144L54.7251 30.7337C54.7531 30.5906 54.7453 30.463 54.7018 30.351C54.6613 30.239 54.5929 30.1503 54.4964 30.085C54.4031 30.0197 54.2895 29.987 54.1558 29.987C54.0282 29.987 53.9147 30.0197 53.8151 30.085C53.7155 30.1472 53.6393 30.2406 53.5864 30.365C53.5367 30.4863 53.518 30.6341 53.5304 30.8084C53.518 30.9639 53.5382 31.1024 53.5911 31.2237C53.6471 31.3419 53.728 31.4337 53.8338 31.499C53.9427 31.5644 54.0671 31.597 54.2071 31.597C54.3471 31.597 54.4653 31.5675 54.5618 31.5084C54.6613 31.4492 54.7391 31.3699 54.7951 31.2704L55.2898 31.513C55.24 31.6344 55.1622 31.7417 55.0564 31.835C54.9507 31.9284 54.8247 32.0015 54.6784 32.0544C54.5353 32.1073 54.3767 32.1337 54.2024 32.1337ZM55.9819 31.079V30.5423H57.9652V31.079H55.9819ZM59.2934 32.0777L58.4207 29.539H59.0648L59.7041 31.4664L59.4801 31.4617L60.1614 29.539H60.7028L61.3794 31.4617L61.1554 31.4664L61.7948 29.539H62.4388L61.5661 32.0777H61.0201L60.3294 30.0663H60.5348L59.8348 32.0777H59.2934ZM62.7739 32.0777V29.539H63.3479V30.1037L63.3013 30.0197C63.3604 29.8299 63.4521 29.6977 63.5766 29.623C63.7042 29.5483 63.8566 29.511 64.0339 29.511H64.1833V30.0523H63.9639C63.7897 30.0523 63.6497 30.1068 63.5439 30.2157C63.4381 30.3215 63.3853 30.4708 63.3853 30.6637V32.0777H62.7739ZM64.5194 32.0777V29.539H65.1307V32.0777H64.5194ZM64.5194 29.2543V28.601H65.1307V29.2543H64.5194ZM66.8525 32.1057C66.5663 32.1057 66.3439 32.0279 66.1852 31.8724C66.0296 31.7137 65.9518 31.4912 65.9518 31.205V30.085H65.5132V29.539H65.5598C65.6843 29.539 65.7807 29.5063 65.8492 29.441C65.9176 29.3757 65.9518 29.2808 65.9518 29.1563V28.9603H66.5632V29.539H67.1465V30.085H66.5632V31.1724C66.5632 31.2564 66.5772 31.3279 66.6052 31.387C66.6363 31.4461 66.683 31.4912 66.7452 31.5224C66.8105 31.5535 66.893 31.569 66.9925 31.569C67.0143 31.569 67.0392 31.5675 67.0672 31.5644C67.0983 31.5612 67.1279 31.5581 67.1559 31.555V32.0777C67.1123 32.0839 67.0625 32.0901 67.0065 32.0964C66.9505 32.1026 66.8992 32.1057 66.8525 32.1057ZM68.8042 32.1337C68.5428 32.1337 68.3142 32.0746 68.1182 31.9564C67.9221 31.8381 67.7697 31.6779 67.6608 31.4757C67.5519 31.2735 67.4975 31.0495 67.4975 30.8037C67.4975 30.5486 67.5519 30.323 67.6608 30.127C67.7728 29.9279 67.9237 29.7708 68.1135 29.6557C68.3064 29.5406 68.521 29.483 68.7575 29.483C68.9566 29.483 69.1308 29.5157 69.2802 29.581C69.4326 29.6463 69.5617 29.7366 69.6675 29.8517C69.7733 29.9668 69.8542 30.099 69.9102 30.2483C69.9662 30.3946 69.9942 30.5532 69.9942 30.7243C69.9942 30.7679 69.9911 30.813 69.9848 30.8597C69.9817 30.9064 69.9739 30.9468 69.9615 30.981H68.0015V30.5143H69.6162L69.3268 30.7337C69.3548 30.5906 69.3471 30.463 69.3035 30.351C69.2631 30.239 69.1946 30.1503 69.0982 30.085C69.0048 30.0197 68.8913 29.987 68.7575 29.987C68.6299 29.987 68.5164 30.0197 68.4168 30.085C68.3173 30.1472 68.241 30.2406 68.1882 30.365C68.1384 30.4863 68.1197 30.6341 68.1322 30.8084C68.1197 30.9639 68.1399 31.1024 68.1928 31.2237C68.2488 31.3419 68.3297 31.4337 68.4355 31.499C68.5444 31.5644 68.6688 31.597 68.8088 31.597C68.9488 31.597 69.0671 31.5675 69.1635 31.5084C69.2631 31.4492 69.3408 31.3699 69.3968 31.2704L69.8915 31.513C69.8417 31.6344 69.7639 31.7417 69.6582 31.835C69.5524 31.9284 69.4264 32.0015 69.2802 32.0544C69.1371 32.1073 68.9784 32.1337 68.8042 32.1337ZM70.4576 32.0777V29.539H71.0316V30.1037L70.9849 30.0197C71.044 29.8299 71.1358 29.6977 71.2603 29.623C71.3878 29.5483 71.5403 29.511 71.7176 29.511H71.8669V30.0523H71.6476C71.4734 30.0523 71.3334 30.1068 71.2276 30.2157C71.1218 30.3215 71.0689 30.4708 71.0689 30.6637V32.0777H70.4576ZM48.0315 38.871C47.7702 38.5661 47.5726 38.2348 47.4388 37.877C47.3082 37.5192 47.2428 37.1381 47.2428 36.7337C47.2428 36.3292 47.3082 35.9481 47.4388 35.5903C47.5695 35.2326 47.7671 34.9028 48.0315 34.601H48.5448C48.3208 34.9339 48.1528 35.2792 48.0408 35.637C47.9319 35.9917 47.8775 36.3572 47.8775 36.7337C47.8775 37.1101 47.9335 37.4772 48.0455 37.835C48.1575 38.1928 48.324 38.5381 48.5448 38.871H48.0315ZM49.0484 38.0777V34.601H49.6831V37.5177H51.1718V38.0777H49.0484ZM51.5823 38.0777V34.601H52.217V37.5177H53.7057V38.0777H51.5823ZM54.1162 38.0777V34.601H54.7228L56.0249 36.3697H55.7355L57.0095 34.601H57.6162V38.0777H56.9769V35.3243L57.2242 35.385L55.9035 37.1444H55.8289L54.5408 35.385L54.7508 35.3243V38.0777H54.1162ZM58.1182 38.871C58.3391 38.5381 58.504 38.1928 58.6129 37.835C58.7249 37.4772 58.7809 37.1101 58.7809 36.7337C58.7809 36.3572 58.7249 35.9917 58.6129 35.637C58.504 35.2792 58.3391 34.9339 58.1182 34.601H58.6316C58.8929 34.9028 59.0889 35.2326 59.2196 35.5903C59.3503 35.9481 59.4156 36.3292 59.4156 36.7337C59.4156 37.1381 59.3503 37.5192 59.2196 37.877C59.0889 38.2348 58.8929 38.5661 58.6316 38.871H58.1182Z" fill="#130C49"/>
<path d="M168.556 41.0131V37.5364H169.849C170.085 37.5364 170.294 37.58 170.474 37.6671C170.658 37.7511 170.801 37.8755 170.904 38.0404C171.006 38.2022 171.058 38.3997 171.058 38.6331C171.058 38.8726 171 39.0764 170.885 39.2444C170.773 39.4124 170.62 39.5369 170.428 39.6178L171.226 41.0131H170.507L169.653 39.4871L170.064 39.7298H169.191V41.0131H168.556ZM169.191 39.1697H169.858C169.973 39.1697 170.073 39.148 170.157 39.1044C170.241 39.0577 170.306 38.994 170.353 38.9131C170.4 38.8322 170.423 38.7389 170.423 38.6331C170.423 38.5242 170.4 38.4308 170.353 38.3531C170.306 38.2722 170.241 38.21 170.157 38.1664C170.073 38.1197 169.973 38.0964 169.858 38.0964H169.191V39.1697ZM172.653 41.0691C172.392 41.0691 172.163 41.01 171.967 40.8918C171.771 40.7735 171.618 40.6133 171.51 40.4111C171.401 40.2089 171.346 39.9849 171.346 39.7391C171.346 39.484 171.401 39.2584 171.51 39.0624C171.622 38.8633 171.772 38.7062 171.962 38.5911C172.155 38.476 172.37 38.4184 172.606 38.4184C172.805 38.4184 172.98 38.4511 173.129 38.5164C173.281 38.5817 173.411 38.672 173.516 38.7871C173.622 38.9022 173.703 39.0344 173.759 39.1837C173.815 39.33 173.843 39.4886 173.843 39.6598C173.843 39.7033 173.84 39.7484 173.834 39.7951C173.831 39.8418 173.823 39.8822 173.81 39.9164H171.85V39.4497H173.465L173.176 39.6691C173.204 39.526 173.196 39.3984 173.152 39.2864C173.112 39.1744 173.043 39.0857 172.947 39.0204C172.854 38.9551 172.74 38.9224 172.606 38.9224C172.479 38.9224 172.365 38.9551 172.266 39.0204C172.166 39.0826 172.09 39.176 172.037 39.3004C171.987 39.4217 171.968 39.5695 171.981 39.7438C171.968 39.8993 171.989 40.0378 172.042 40.1591C172.098 40.2773 172.178 40.3691 172.284 40.4344C172.393 40.4998 172.518 40.5324 172.658 40.5324C172.798 40.5324 172.916 40.5029 173.012 40.4438C173.112 40.3846 173.19 40.3053 173.246 40.2058L173.74 40.4484C173.691 40.5698 173.613 40.6771 173.507 40.7704C173.401 40.8638 173.275 40.9369 173.129 40.9898C172.986 41.0427 172.827 41.0691 172.653 41.0691ZM175.464 41.0411C175.177 41.0411 174.955 40.9633 174.796 40.8078C174.641 40.6491 174.563 40.4266 174.563 40.1404V39.0204H174.124V38.4744H174.171C174.295 38.4744 174.392 38.4417 174.46 38.3764C174.529 38.3111 174.563 38.2162 174.563 38.0917V37.8957H175.174V38.4744H175.758V39.0204H175.174V40.1078C175.174 40.1918 175.188 40.2633 175.216 40.3224C175.248 40.3815 175.294 40.4266 175.356 40.4578C175.422 40.4889 175.504 40.5044 175.604 40.5044C175.626 40.5044 175.65 40.5029 175.678 40.4998C175.71 40.4966 175.739 40.4935 175.767 40.4904V41.0131C175.724 41.0193 175.674 41.0255 175.618 41.0318C175.562 41.038 175.51 41.0411 175.464 41.0411ZM176.234 41.0131V38.4744H176.808V39.0391L176.761 38.9551C176.821 38.7653 176.912 38.6331 177.037 38.5584C177.164 38.4837 177.317 38.4464 177.494 38.4464H177.643V38.9877H177.424C177.25 38.9877 177.11 39.0422 177.004 39.1511C176.898 39.2569 176.845 39.4062 176.845 39.5991V41.0131H176.234ZM177.98 41.0131V38.4744H178.591V41.0131H177.98ZM177.98 38.1897V37.5364H178.591V38.1897H177.98ZM180.359 41.0691C180.098 41.0691 179.869 41.01 179.673 40.8918C179.477 40.7735 179.325 40.6133 179.216 40.4111C179.107 40.2089 179.053 39.9849 179.053 39.7391C179.053 39.484 179.107 39.2584 179.216 39.0624C179.328 38.8633 179.479 38.7062 179.669 38.5911C179.862 38.476 180.076 38.4184 180.313 38.4184C180.512 38.4184 180.686 38.4511 180.835 38.5164C180.988 38.5817 181.117 38.672 181.223 38.7871C181.329 38.9022 181.409 39.0344 181.465 39.1837C181.521 39.33 181.549 39.4886 181.549 39.6598C181.549 39.7033 181.546 39.7484 181.54 39.7951C181.537 39.8418 181.529 39.8822 181.517 39.9164H179.557V39.4497H181.171L180.882 39.6691C180.91 39.526 180.902 39.3984 180.859 39.2864C180.818 39.1744 180.75 39.0857 180.653 39.0204C180.56 38.9551 180.447 38.9224 180.313 38.9224C180.185 38.9224 180.072 38.9551 179.972 39.0204C179.873 39.0826 179.796 39.176 179.743 39.3004C179.694 39.4217 179.675 39.5695 179.687 39.7438C179.675 39.8993 179.695 40.0378 179.748 40.1591C179.804 40.2773 179.885 40.3691 179.991 40.4344C180.1 40.4998 180.224 40.5324 180.364 40.5324C180.504 40.5324 180.622 40.5029 180.719 40.4438C180.818 40.3846 180.896 40.3053 180.952 40.2058L181.447 40.4484C181.397 40.5698 181.319 40.6771 181.213 40.7704C181.108 40.8638 180.982 40.9369 180.835 40.9898C180.692 41.0427 180.534 41.0691 180.359 41.0691ZM182.733 41.0131L181.734 38.4744H182.401L183.125 40.4718H182.877L183.605 38.4744H184.273L183.274 41.0131H182.733ZM185.769 41.0691C185.508 41.0691 185.279 41.01 185.083 40.8918C184.887 40.7735 184.735 40.6133 184.626 40.4111C184.517 40.2089 184.462 39.9849 184.462 39.7391C184.462 39.484 184.517 39.2584 184.626 39.0624C184.738 38.8633 184.889 38.7062 185.078 38.5911C185.271 38.476 185.486 38.4184 185.722 38.4184C185.921 38.4184 186.096 38.4511 186.245 38.5164C186.397 38.5817 186.527 38.672 186.632 38.7871C186.738 38.9022 186.819 39.0344 186.875 39.1837C186.931 39.33 186.959 39.4886 186.959 39.6598C186.959 39.7033 186.956 39.7484 186.95 39.7951C186.947 39.8418 186.939 39.8822 186.926 39.9164H184.966V39.4497H186.581L186.292 39.6691C186.32 39.526 186.312 39.3984 186.268 39.2864C186.228 39.1744 186.159 39.0857 186.063 39.0204C185.97 38.9551 185.856 38.9224 185.722 38.9224C185.595 38.9224 185.481 38.9551 185.382 39.0204C185.282 39.0826 185.206 39.176 185.153 39.3004C185.103 39.4217 185.085 39.5695 185.097 39.7438C185.085 39.8993 185.105 40.0378 185.158 40.1591C185.214 40.2773 185.295 40.3691 185.4 40.4344C185.509 40.4998 185.634 40.5324 185.774 40.5324C185.914 40.5324 186.032 40.5029 186.128 40.4438C186.228 40.3846 186.306 40.3053 186.362 40.2058L186.856 40.4484C186.807 40.5698 186.729 40.6771 186.623 40.7704C186.517 40.8638 186.391 40.9369 186.245 40.9898C186.102 41.0427 185.943 41.0691 185.769 41.0691ZM187.422 41.0131V38.4744H187.996V39.0391L187.95 38.9551C188.009 38.7653 188.101 38.6331 188.225 38.5584C188.353 38.4837 188.505 38.4464 188.682 38.4464H188.832V38.9877H188.612C188.438 38.9877 188.298 39.0422 188.192 39.1511C188.087 39.2569 188.034 39.4062 188.034 39.5991V41.0131H187.422Z" fill="#130C49"/>
<path d="M1.336 32.0777V28.601H2.62868C2.86513 28.601 3.07358 28.6445 3.25402 28.7317C3.43758 28.8157 3.58069 28.9401 3.68336 29.105C3.78603 29.2668 3.83736 29.4643 3.83736 29.6977C3.83736 29.9372 3.77981 30.141 3.6647 30.309C3.55269 30.477 3.40025 30.6015 3.20736 30.6823L4.00537 32.0777H3.28669L2.43268 30.5517L2.84335 30.7944H1.97068V32.0777H1.336ZM1.97068 30.2343H2.63802C2.75313 30.2343 2.85269 30.2126 2.93669 30.169C3.02069 30.1223 3.08602 30.0586 3.13269 29.9777C3.17936 29.8968 3.20269 29.8035 3.20269 29.6977C3.20269 29.5888 3.17936 29.4954 3.13269 29.4177C3.08602 29.3368 3.02069 29.2746 2.93669 29.231C2.85269 29.1843 2.75313 29.161 2.63802 29.161H1.97068V30.2343ZM5.14 32.1337C4.96266 32.1337 4.80866 32.1041 4.67799 32.045C4.54732 31.9859 4.44621 31.9019 4.37466 31.793C4.3031 31.681 4.26732 31.5519 4.26732 31.4057C4.26732 31.2657 4.29843 31.1412 4.36066 31.0324C4.42288 30.9204 4.51932 30.827 4.64999 30.7524C4.78066 30.6777 4.94555 30.6248 5.14466 30.5937L5.97534 30.4583V30.925L5.26133 31.0464C5.14 31.0681 5.04977 31.107 4.99066 31.163C4.93155 31.219 4.902 31.2921 4.902 31.3824C4.902 31.4695 4.93466 31.5395 5 31.5924C5.06844 31.6421 5.15244 31.667 5.252 31.667C5.37956 31.667 5.49156 31.6406 5.588 31.5877C5.68756 31.5317 5.76378 31.4555 5.81667 31.359C5.87267 31.2626 5.90067 31.1568 5.90067 31.0417V30.3883C5.90067 30.2795 5.85712 30.1892 5.77 30.1177C5.686 30.043 5.574 30.0057 5.434 30.0057C5.30333 30.0057 5.18667 30.0415 5.084 30.113C4.98444 30.1815 4.91133 30.2732 4.86466 30.3883L4.36532 30.1457C4.4151 30.0119 4.49288 29.8968 4.59866 29.8003C4.70755 29.7008 4.83511 29.623 4.98133 29.567C5.12755 29.511 5.28622 29.483 5.45733 29.483C5.66578 29.483 5.84934 29.5219 6.00801 29.5997C6.16668 29.6743 6.28957 29.7801 6.37668 29.917C6.4669 30.0508 6.51201 30.2079 6.51201 30.3883V32.0777H5.93334V31.6437L6.06401 31.6344C5.99867 31.7432 5.9209 31.835 5.83067 31.9097C5.74045 31.9813 5.63778 32.0373 5.52267 32.0777C5.40756 32.115 5.28 32.1337 5.14 32.1337ZM7.71639 32.0777L6.84371 29.539H7.48772L8.12706 31.4664L7.90306 31.4617L8.5844 29.539H9.12574L9.80241 31.4617L9.57841 31.4664L10.2178 29.539H10.8618L9.98908 32.0777H9.44308L8.7524 30.0663H8.95774L8.25773 32.0777H7.71639ZM13.7903 32.1337C13.5352 32.1337 13.2972 32.0886 13.0763 31.9984C12.8554 31.9081 12.6626 31.7821 12.4977 31.6204C12.3328 31.4586 12.2037 31.2688 12.1103 31.051C12.0201 30.8301 11.975 30.5921 11.975 30.337C11.975 30.0788 12.0201 29.8408 12.1103 29.623C12.2005 29.4052 12.3281 29.2154 12.493 29.0537C12.6579 28.8919 12.8508 28.7674 13.0717 28.6803C13.2926 28.5901 13.5321 28.545 13.7903 28.545C14.0486 28.545 14.2881 28.5901 14.509 28.6803C14.7299 28.7706 14.9228 28.8966 15.0877 29.0583C15.2526 29.217 15.3801 29.4052 15.4704 29.623C15.5637 29.8408 15.6104 30.0788 15.6104 30.337C15.6104 30.5921 15.5637 30.8301 15.4704 31.051C15.377 31.2688 15.2479 31.4586 15.083 31.6204C14.9181 31.7821 14.7252 31.9081 14.5043 31.9984C14.2866 32.0886 14.0486 32.1337 13.7903 32.1337ZM13.7903 31.555C13.9615 31.555 14.1186 31.5255 14.2617 31.4664C14.4048 31.4041 14.5292 31.3186 14.635 31.2097C14.7439 31.1008 14.8264 30.9717 14.8824 30.8224C14.9415 30.673 14.971 30.5112 14.971 30.337C14.971 30.1628 14.9415 30.0026 14.8824 29.8563C14.8264 29.707 14.7439 29.5779 14.635 29.469C14.5292 29.357 14.4048 29.2714 14.2617 29.2123C14.1186 29.1532 13.9615 29.1237 13.7903 29.1237C13.6223 29.1237 13.4668 29.1532 13.3237 29.2123C13.1806 29.2714 13.0546 29.357 12.9457 29.469C12.8399 29.5779 12.7574 29.707 12.6983 29.8563C12.6392 30.0026 12.6097 30.1628 12.6097 30.337C12.6097 30.5112 12.6392 30.673 12.6983 30.8224C12.7574 30.9717 12.8399 31.1008 12.9457 31.2097C13.0546 31.3186 13.1806 31.4041 13.3237 31.4664C13.4668 31.5255 13.6223 31.555 13.7903 31.555ZM14.593 32.4977L13.5103 30.687H14.173L15.2697 32.4977H14.593ZM17.0287 32.1337C16.8327 32.1337 16.6616 32.0901 16.5154 32.003C16.3723 31.9159 16.2618 31.7946 16.184 31.639C16.1094 31.4835 16.072 31.3015 16.072 31.093V29.539H16.6834V31.0417C16.6834 31.1475 16.7036 31.2408 16.744 31.3217C16.7876 31.3995 16.8483 31.4617 16.926 31.5084C17.0069 31.5519 17.0972 31.5737 17.1967 31.5737C17.2963 31.5737 17.3849 31.5519 17.4627 31.5084C17.5405 31.4617 17.6012 31.3979 17.6447 31.317C17.6883 31.2361 17.7101 31.1397 17.7101 31.0277V29.539H18.3214V32.0777H17.7427V31.5784L17.7941 31.667C17.7349 31.8226 17.6369 31.9393 17.5001 32.017C17.3663 32.0948 17.2092 32.1337 17.0287 32.1337ZM20.0937 32.1337C19.8324 32.1337 19.6037 32.0746 19.4077 31.9564C19.2117 31.8381 19.0592 31.6779 18.9503 31.4757C18.8415 31.2735 18.787 31.0495 18.787 30.8037C18.787 30.5486 18.8415 30.323 18.9503 30.127C19.0623 29.9279 19.2132 29.7708 19.403 29.6557C19.5959 29.5406 19.8106 29.483 20.047 29.483C20.2461 29.483 20.4204 29.5157 20.5697 29.581C20.7221 29.6463 20.8513 29.7366 20.957 29.8517C21.0628 29.9668 21.1437 30.099 21.1997 30.2483C21.2557 30.3946 21.2837 30.5532 21.2837 30.7243C21.2837 30.7679 21.2806 30.813 21.2744 30.8597C21.2713 30.9064 21.2635 30.9468 21.251 30.981H19.291V30.5143H20.9057L20.6164 30.7337C20.6444 30.5906 20.6366 30.463 20.593 30.351C20.5526 30.239 20.4841 30.1503 20.3877 30.085C20.2944 30.0197 20.1808 29.987 20.047 29.987C19.9195 29.987 19.8059 30.0197 19.7064 30.085C19.6068 30.1472 19.5306 30.2406 19.4777 30.365C19.4279 30.4863 19.4092 30.6341 19.4217 30.8084C19.4092 30.9639 19.4295 31.1024 19.4824 31.2237C19.5384 31.3419 19.6192 31.4337 19.725 31.499C19.8339 31.5644 19.9584 31.597 20.0984 31.597C20.2384 31.597 20.3566 31.5675 20.453 31.5084C20.5526 31.4492 20.6304 31.3699 20.6864 31.2704L21.181 31.513C21.1313 31.6344 21.0535 31.7417 20.9477 31.835C20.8419 31.9284 20.7159 32.0015 20.5697 32.0544C20.4266 32.1073 20.2679 32.1337 20.0937 32.1337ZM21.7471 32.0777V29.539H22.3211V30.1037L22.2745 30.0197C22.3336 29.8299 22.4254 29.6977 22.5498 29.623C22.6774 29.5483 22.8298 29.511 23.0071 29.511H23.1565V30.0523H22.9371C22.7629 30.0523 22.6229 30.1068 22.5171 30.2157C22.4114 30.3215 22.3585 30.4708 22.3585 30.6637V32.0777H21.7471ZM23.8006 33.1044C23.7321 33.1044 23.6653 33.0982 23.5999 33.0857C23.5346 33.0764 23.4755 33.0577 23.4226 33.0297V32.521C23.463 32.5304 23.5113 32.5397 23.5673 32.549C23.6264 32.5584 23.6808 32.563 23.7306 32.563C23.8706 32.563 23.9717 32.5304 24.0339 32.465C24.0993 32.4028 24.1568 32.3188 24.2066 32.213L24.3746 31.821L24.3653 32.3344L23.2593 29.539H23.9173L24.6919 31.6017H24.4586L25.2286 29.539H25.8913L24.7853 32.3344C24.7199 32.4961 24.6406 32.6346 24.5473 32.7497C24.4539 32.8648 24.345 32.9519 24.2206 33.011C24.0993 33.0733 23.9593 33.1044 23.8006 33.1044Z" fill="#130C49"/>
<path d="M100.902 10.8334V7.35668H103.212V7.91669H101.537V8.80803H103.119V9.36804H101.537V10.2734H103.212V10.8334H100.902ZM103.397 10.8334L104.284 9.55938L103.393 8.2947H104.111L104.807 9.32137H104.485L105.18 8.2947H105.894L105.007 9.55938L105.889 10.8334H105.175L104.489 9.81138H104.802L104.116 10.8334H103.397ZM106.228 11.7667V8.2947H106.802V8.7987L106.746 8.6727C106.833 8.53581 106.952 8.43003 107.101 8.35536C107.25 8.27758 107.423 8.23869 107.619 8.23869C107.858 8.23869 108.075 8.29781 108.268 8.41603C108.46 8.53425 108.613 8.69292 108.725 8.89203C108.84 9.09115 108.898 9.31515 108.898 9.56404C108.898 9.80982 108.842 10.0338 108.73 10.236C108.618 10.4383 108.465 10.5985 108.272 10.7167C108.079 10.8318 107.86 10.8894 107.614 10.8894C107.431 10.8894 107.261 10.8536 107.106 10.7821C106.953 10.7074 106.832 10.6016 106.742 10.4647L106.84 10.3434V11.7667H106.228ZM107.544 10.3294C107.684 10.3294 107.809 10.2967 107.918 10.2314C108.026 10.166 108.11 10.0758 108.17 9.96071C108.232 9.8456 108.263 9.71338 108.263 9.56404C108.263 9.41471 108.232 9.28404 108.17 9.17204C108.11 9.05693 108.026 8.9667 107.918 8.90137C107.809 8.83292 107.684 8.7987 107.544 8.7987C107.41 8.7987 107.289 8.83137 107.18 8.8967C107.074 8.96204 106.99 9.05381 106.928 9.17204C106.869 9.28715 106.84 9.41782 106.84 9.56404C106.84 9.71338 106.869 9.8456 106.928 9.96071C106.99 10.0758 107.074 10.166 107.18 10.2314C107.289 10.2967 107.41 10.3294 107.544 10.3294ZM110.134 10.8894C109.956 10.8894 109.802 10.8598 109.672 10.8007C109.541 10.7416 109.44 10.6576 109.368 10.5487C109.297 10.4367 109.261 10.3076 109.261 10.1614C109.261 10.0214 109.292 9.89693 109.354 9.78804C109.417 9.67604 109.513 9.58271 109.644 9.50804C109.774 9.43337 109.939 9.38048 110.138 9.34937L110.969 9.21404V9.68071L110.255 9.80204C110.134 9.82382 110.043 9.86271 109.984 9.91871C109.925 9.97471 109.896 10.0478 109.896 10.138C109.896 10.2252 109.928 10.2952 109.994 10.3481C110.062 10.3978 110.146 10.4227 110.246 10.4227C110.373 10.4227 110.485 10.3963 110.582 10.3434C110.681 10.2874 110.757 10.2112 110.81 10.1147C110.866 10.0183 110.894 9.91249 110.894 9.79738V9.14404C110.894 9.03515 110.851 8.94492 110.764 8.87337C110.68 8.7987 110.568 8.76137 110.428 8.76137C110.297 8.76137 110.18 8.79714 110.078 8.8687C109.978 8.93715 109.905 9.02893 109.858 9.14404L109.359 8.90137C109.409 8.76759 109.487 8.65248 109.592 8.55603C109.701 8.45647 109.829 8.3787 109.975 8.3227C110.121 8.26669 110.28 8.23869 110.451 8.23869C110.659 8.23869 110.843 8.27758 111.002 8.35536C111.16 8.43003 111.283 8.53581 111.37 8.6727C111.461 8.80648 111.506 8.96359 111.506 9.14404V10.8334H110.927V10.3994L111.058 10.3901C110.992 10.4989 110.915 10.5907 110.824 10.6654C110.734 10.7369 110.631 10.7929 110.516 10.8334C110.401 10.8707 110.274 10.8894 110.134 10.8894ZM112.071 10.8334V8.2947H112.645V8.79403L112.598 8.70537C112.657 8.55292 112.754 8.43781 112.887 8.36003C113.024 8.27914 113.183 8.23869 113.363 8.23869C113.55 8.23869 113.715 8.27914 113.858 8.36003C114.004 8.44092 114.118 8.55448 114.199 8.7007C114.28 8.84381 114.32 9.01026 114.32 9.20004V10.8334H113.709V9.34471C113.709 9.23271 113.687 9.13626 113.643 9.05537C113.6 8.97448 113.539 8.91226 113.461 8.8687C113.387 8.82203 113.298 8.7987 113.195 8.7987C113.096 8.7987 113.007 8.82203 112.929 8.8687C112.852 8.91226 112.791 8.97448 112.747 9.05537C112.704 9.13626 112.682 9.23271 112.682 9.34471V10.8334H112.071ZM116.018 10.8894C115.772 10.8894 115.553 10.8318 115.36 10.7167C115.167 10.5985 115.014 10.4383 114.902 10.236C114.79 10.0338 114.734 9.80982 114.734 9.56404C114.734 9.31515 114.79 9.09115 114.902 8.89203C115.014 8.69292 115.167 8.53425 115.36 8.41603C115.556 8.29781 115.774 8.23869 116.013 8.23869C116.206 8.23869 116.377 8.27758 116.526 8.35536C116.679 8.43003 116.799 8.53581 116.886 8.6727L116.792 8.7987V7.30068H117.404V10.8334H116.825V10.3434L116.89 10.4647C116.803 10.6016 116.682 10.7074 116.526 10.7821C116.371 10.8536 116.201 10.8894 116.018 10.8894ZM116.083 10.3294C116.223 10.3294 116.346 10.2967 116.452 10.2314C116.558 10.166 116.64 10.0758 116.699 9.96071C116.761 9.8456 116.792 9.71338 116.792 9.56404C116.792 9.41782 116.761 9.28715 116.699 9.17204C116.64 9.05381 116.558 8.96204 116.452 8.8967C116.346 8.83137 116.223 8.7987 116.083 8.7987C115.946 8.7987 115.823 8.83292 115.714 8.90137C115.606 8.9667 115.52 9.05693 115.458 9.17204C115.399 9.28404 115.369 9.41471 115.369 9.56404C115.369 9.71338 115.399 9.8456 115.458 9.96071C115.52 10.0758 115.606 10.166 115.714 10.2314C115.823 10.2967 115.946 10.3294 116.083 10.3294ZM119.177 10.8894C118.915 10.8894 118.687 10.8303 118.491 10.7121C118.295 10.5938 118.142 10.4336 118.033 10.2314C117.924 10.0292 117.87 9.80516 117.87 9.55938C117.87 9.30426 117.924 9.0787 118.033 8.8827C118.145 8.68359 118.296 8.52648 118.486 8.41136C118.679 8.29625 118.893 8.23869 119.13 8.23869C119.329 8.23869 119.503 8.27136 119.653 8.3367C119.805 8.40203 119.934 8.49225 120.04 8.60737C120.146 8.72248 120.227 8.8547 120.283 9.00404C120.339 9.15026 120.367 9.30893 120.367 9.48004C120.367 9.5236 120.363 9.56871 120.357 9.61538C120.354 9.66204 120.346 9.70249 120.334 9.73671H118.374V9.27004H119.989L119.699 9.48937C119.727 9.34626 119.719 9.21871 119.676 9.1067C119.635 8.9947 119.567 8.90604 119.471 8.8407C119.377 8.77537 119.264 8.7427 119.13 8.7427C119.002 8.7427 118.889 8.77537 118.789 8.8407C118.69 8.90292 118.613 8.99626 118.561 9.1207C118.511 9.24204 118.492 9.38982 118.505 9.56404C118.492 9.7196 118.512 9.85805 118.565 9.97938C118.621 10.0976 118.702 10.1894 118.808 10.2547C118.917 10.3201 119.041 10.3527 119.181 10.3527C119.321 10.3527 119.439 10.3232 119.536 10.264C119.635 10.2049 119.713 10.1256 119.769 10.026L120.264 10.2687C120.214 10.3901 120.136 10.4974 120.031 10.5907C119.925 10.6841 119.799 10.7572 119.653 10.8101C119.509 10.8629 119.351 10.8894 119.177 10.8894ZM122.011 10.8894C121.765 10.8894 121.546 10.8318 121.353 10.7167C121.16 10.5985 121.007 10.4383 120.895 10.236C120.783 10.0338 120.727 9.80982 120.727 9.56404C120.727 9.31515 120.783 9.09115 120.895 8.89203C121.007 8.69292 121.16 8.53425 121.353 8.41603C121.549 8.29781 121.766 8.23869 122.006 8.23869C122.199 8.23869 122.37 8.27758 122.519 8.35536C122.672 8.43003 122.792 8.53581 122.879 8.6727L122.785 8.7987V7.30068H123.397V10.8334H122.818V10.3434L122.883 10.4647C122.796 10.6016 122.675 10.7074 122.519 10.7821C122.364 10.8536 122.194 10.8894 122.011 10.8894ZM122.076 10.3294C122.216 10.3294 122.339 10.2967 122.445 10.2314C122.55 10.166 122.633 10.0758 122.692 9.96071C122.754 9.8456 122.785 9.71338 122.785 9.56404C122.785 9.41782 122.754 9.28715 122.692 9.17204C122.633 9.05381 122.55 8.96204 122.445 8.8967C122.339 8.83137 122.216 8.7987 122.076 8.7987C121.939 8.7987 121.816 8.83292 121.707 8.90137C121.598 8.9667 121.513 9.05693 121.451 9.17204C121.392 9.28404 121.362 9.41471 121.362 9.56404C121.362 9.71338 121.392 9.8456 121.451 9.96071C121.513 10.0758 121.598 10.166 121.707 10.2314C121.816 10.2967 121.939 10.3294 122.076 10.3294ZM126.559 10.8894C126.304 10.8894 126.066 10.8443 125.845 10.7541C125.624 10.6638 125.431 10.5378 125.266 10.3761C125.101 10.2143 124.972 10.0245 124.879 9.80671C124.789 9.58582 124.744 9.34782 124.744 9.0927C124.744 8.83448 124.789 8.59648 124.879 8.3787C124.969 8.16092 125.097 7.97114 125.262 7.80936C125.426 7.64758 125.619 7.52313 125.84 7.43602C126.061 7.3458 126.301 7.30068 126.559 7.30068C126.817 7.30068 127.057 7.3458 127.278 7.43602C127.498 7.52624 127.691 7.65224 127.856 7.81402C128.021 7.97269 128.149 8.16092 128.239 8.3787C128.332 8.59648 128.379 8.83448 128.379 9.0927C128.379 9.34782 128.332 9.58582 128.239 9.80671C128.146 10.0245 128.016 10.2143 127.852 10.3761C127.687 10.5378 127.494 10.6638 127.273 10.7541C127.055 10.8443 126.817 10.8894 126.559 10.8894ZM126.559 10.3107C126.73 10.3107 126.887 10.2812 127.03 10.222C127.173 10.1598 127.298 10.0743 127.404 9.96538C127.512 9.85649 127.595 9.72738 127.651 9.57804C127.71 9.42871 127.74 9.26693 127.74 9.0927C127.74 8.91848 127.71 8.75826 127.651 8.61203C127.595 8.4627 127.512 8.33358 127.404 8.22469C127.298 8.11269 127.173 8.02714 127.03 7.96802C126.887 7.90891 126.73 7.87936 126.559 7.87936C126.391 7.87936 126.235 7.90891 126.092 7.96802C125.949 8.02714 125.823 8.11269 125.714 8.22469C125.608 8.33358 125.526 8.4627 125.467 8.61203C125.408 8.75826 125.378 8.91848 125.378 9.0927C125.378 9.26693 125.408 9.42871 125.467 9.57804C125.526 9.72738 125.608 9.85649 125.714 9.96538C125.823 10.0743 125.949 10.1598 126.092 10.222C126.235 10.2812 126.391 10.3107 126.559 10.3107ZM127.362 11.2534L126.279 9.44271H126.942L128.038 11.2534H127.362ZM129.797 10.8894C129.601 10.8894 129.43 10.8458 129.284 10.7587C129.141 10.6716 129.03 10.5503 128.953 10.3947C128.878 10.2392 128.841 10.0572 128.841 9.84871V8.2947H129.452V9.79738C129.452 9.90316 129.472 9.99649 129.513 10.0774C129.556 10.1552 129.617 10.2174 129.695 10.264C129.775 10.3076 129.866 10.3294 129.965 10.3294C130.065 10.3294 130.153 10.3076 130.231 10.264C130.309 10.2174 130.37 10.1536 130.413 10.0727C130.457 9.99182 130.479 9.89538 130.479 9.78338V8.2947H131.09V10.8334H130.511V10.3341L130.563 10.4227C130.503 10.5783 130.405 10.6949 130.269 10.7727C130.135 10.8505 129.978 10.8894 129.797 10.8894ZM132.862 10.8894C132.601 10.8894 132.372 10.8303 132.176 10.7121C131.98 10.5938 131.828 10.4336 131.719 10.2314C131.61 10.0292 131.556 9.80516 131.556 9.55938C131.556 9.30426 131.61 9.0787 131.719 8.8827C131.831 8.68359 131.982 8.52648 132.172 8.41136C132.364 8.29625 132.579 8.23869 132.816 8.23869C133.015 8.23869 133.189 8.27136 133.338 8.3367C133.491 8.40203 133.62 8.49225 133.726 8.60737C133.831 8.72248 133.912 8.8547 133.968 9.00404C134.024 9.15026 134.052 9.30893 134.052 9.48004C134.052 9.5236 134.049 9.56871 134.043 9.61538C134.04 9.66204 134.032 9.70249 134.02 9.73671H132.06V9.27004H133.674L133.385 9.48937C133.413 9.34626 133.405 9.21871 133.362 9.1067C133.321 8.9947 133.253 8.90604 133.156 8.8407C133.063 8.77537 132.949 8.7427 132.816 8.7427C132.688 8.7427 132.574 8.77537 132.475 8.8407C132.375 8.90292 132.299 8.99626 132.246 9.1207C132.196 9.24204 132.178 9.38982 132.19 9.56404C132.178 9.7196 132.198 9.85805 132.251 9.97938C132.307 10.0976 132.388 10.1894 132.494 10.2547C132.602 10.3201 132.727 10.3527 132.867 10.3527C133.007 10.3527 133.125 10.3232 133.222 10.264C133.321 10.2049 133.399 10.1256 133.455 10.026L133.95 10.2687C133.9 10.3901 133.822 10.4974 133.716 10.5907C133.61 10.6841 133.484 10.7572 133.338 10.8101C133.195 10.8629 133.036 10.8894 132.862 10.8894ZM134.516 10.8334V8.2947H135.09V8.85937L135.043 8.77537C135.102 8.58559 135.194 8.45336 135.318 8.3787C135.446 8.30403 135.598 8.26669 135.776 8.26669H135.925V8.80803H135.706C135.531 8.80803 135.391 8.86248 135.286 8.97137C135.18 9.07715 135.127 9.22648 135.127 9.41937V10.8334H134.516ZM136.261 10.8334V8.2947H136.872V10.8334H136.261ZM136.261 8.01003V7.35668H136.872V8.01003H136.261ZM138.641 10.8894C138.38 10.8894 138.151 10.8303 137.955 10.7121C137.759 10.5938 137.606 10.4336 137.498 10.2314C137.389 10.0292 137.334 9.80516 137.334 9.55938C137.334 9.30426 137.389 9.0787 137.498 8.8827C137.61 8.68359 137.76 8.52648 137.95 8.41136C138.143 8.29625 138.358 8.23869 138.594 8.23869C138.793 8.23869 138.968 8.27136 139.117 8.3367C139.269 8.40203 139.398 8.49225 139.504 8.60737C139.61 8.72248 139.691 8.8547 139.747 9.00404C139.803 9.15026 139.831 9.30893 139.831 9.48004C139.831 9.5236 139.828 9.56871 139.822 9.61538C139.819 9.66204 139.811 9.70249 139.798 9.73671H137.838V9.27004H139.453L139.164 9.48937C139.192 9.34626 139.184 9.21871 139.14 9.1067C139.1 8.9947 139.031 8.90604 138.935 8.8407C138.842 8.77537 138.728 8.7427 138.594 8.7427C138.467 8.7427 138.353 8.77537 138.254 8.8407C138.154 8.90292 138.078 8.99626 138.025 9.1207C137.975 9.24204 137.956 9.38982 137.969 9.56404C137.956 9.7196 137.977 9.85805 138.03 9.97938C138.086 10.0976 138.166 10.1894 138.272 10.2547C138.381 10.3201 138.506 10.3527 138.646 10.3527C138.786 10.3527 138.904 10.3232 139 10.264C139.1 10.2049 139.178 10.1256 139.234 10.026L139.728 10.2687C139.679 10.3901 139.601 10.4974 139.495 10.5907C139.389 10.6841 139.263 10.7572 139.117 10.8101C138.974 10.8629 138.815 10.8894 138.641 10.8894ZM141.26 10.8894C140.99 10.8894 140.753 10.8256 140.551 10.6981C140.352 10.5674 140.215 10.3916 140.14 10.1707L140.598 9.95138C140.663 10.0945 140.753 10.2065 140.868 10.2874C140.987 10.3683 141.117 10.4087 141.26 10.4087C141.372 10.4087 141.461 10.3838 141.526 10.3341C141.592 10.2843 141.624 10.2189 141.624 10.138C141.624 10.0883 141.61 10.0478 141.582 10.0167C141.557 9.98249 141.522 9.95449 141.475 9.93271C141.431 9.90782 141.383 9.8876 141.33 9.87205L140.915 9.75538C140.7 9.69315 140.537 9.59826 140.425 9.47071C140.316 9.34315 140.262 9.19226 140.262 9.01804C140.262 8.86248 140.301 8.72714 140.378 8.61203C140.459 8.49381 140.57 8.40203 140.71 8.3367C140.853 8.27136 141.016 8.23869 141.2 8.23869C141.439 8.23869 141.651 8.29625 141.834 8.41136C142.018 8.52648 142.149 8.68825 142.226 8.8967L141.76 9.11604C141.716 9.00092 141.643 8.90915 141.54 8.8407C141.438 8.77226 141.323 8.73803 141.195 8.73803C141.092 8.73803 141.011 8.76137 140.952 8.80803C140.893 8.8547 140.864 8.91537 140.864 8.99004C140.864 9.0367 140.876 9.07715 140.901 9.11137C140.926 9.14559 140.96 9.17359 141.004 9.19537C141.05 9.21715 141.103 9.23737 141.162 9.25604L141.568 9.37737C141.777 9.4396 141.937 9.53293 142.049 9.65738C142.164 9.78182 142.222 9.93427 142.222 10.1147C142.222 10.2672 142.181 10.4025 142.1 10.5207C142.02 10.6358 141.908 10.7261 141.764 10.7914C141.621 10.8567 141.453 10.8894 141.26 10.8894Z" fill="#130C49"/>
<path d="M199.684 5V1.5233H200.977C201.213 1.5233 201.422 1.56685 201.602 1.65396C201.786 1.73796 201.929 1.86241 202.032 2.0273C202.134 2.18908 202.186 2.38664 202.186 2.61997C202.186 2.85953 202.128 3.06331 202.013 3.23131C201.901 3.39932 201.748 3.52376 201.556 3.60465L202.354 5H201.635L200.781 3.47398L201.192 3.71665H200.319V5H199.684ZM200.319 3.15665H200.986C201.101 3.15665 201.201 3.13487 201.285 3.09131C201.369 3.04465 201.434 2.98087 201.481 2.89998C201.528 2.81909 201.551 2.72575 201.551 2.61997C201.551 2.51108 201.528 2.41775 201.481 2.33997C201.434 2.25908 201.369 2.19686 201.285 2.1533C201.201 2.10664 201.101 2.0833 200.986 2.0833H200.319V3.15665ZM203.781 5.056C203.52 5.056 203.291 4.99689 203.095 4.87867C202.899 4.76044 202.746 4.60022 202.638 4.39799C202.529 4.19577 202.474 3.97177 202.474 3.72599C202.474 3.47087 202.529 3.24531 202.638 3.04931C202.75 2.8502 202.9 2.69309 203.09 2.57797C203.283 2.46286 203.498 2.40531 203.734 2.40531C203.933 2.40531 204.108 2.43797 204.257 2.50331C204.409 2.56864 204.538 2.65886 204.644 2.77398C204.75 2.88909 204.831 3.02131 204.887 3.17065C204.943 3.31687 204.971 3.47554 204.971 3.64665C204.971 3.69021 204.968 3.73532 204.962 3.78199C204.958 3.82865 204.951 3.8691 204.938 3.90332H202.978V3.43665H204.593L204.304 3.65599C204.332 3.51287 204.324 3.38532 204.28 3.27331C204.24 3.16131 204.171 3.07265 204.075 3.00731C203.982 2.94198 203.868 2.90931 203.734 2.90931C203.607 2.90931 203.493 2.94198 203.394 3.00731C203.294 3.06953 203.218 3.16287 203.165 3.28731C203.115 3.40865 203.096 3.55643 203.109 3.73065C203.096 3.88621 203.117 4.02466 203.17 4.14599C203.226 4.26421 203.306 4.35599 203.412 4.42133C203.521 4.48666 203.646 4.51933 203.786 4.51933C203.926 4.51933 204.044 4.48977 204.14 4.43066C204.24 4.37155 204.318 4.29221 204.374 4.19266L204.868 4.43533C204.818 4.55666 204.741 4.664 204.635 4.75733C204.529 4.85067 204.403 4.92378 204.257 4.97667C204.114 5.02956 203.955 5.056 203.781 5.056ZM206.592 5.028C206.305 5.028 206.083 4.95022 205.924 4.79466C205.769 4.636 205.691 4.41355 205.691 4.12732V3.00731H205.252V2.46131H205.299C205.423 2.46131 205.52 2.42864 205.588 2.3633C205.657 2.29797 205.691 2.20308 205.691 2.07863V1.88263H206.302V2.46131H206.886V3.00731H206.302V4.09466C206.302 4.17866 206.316 4.25021 206.344 4.30933C206.375 4.36844 206.422 4.41355 206.484 4.44466C206.55 4.47577 206.632 4.49133 206.732 4.49133C206.753 4.49133 206.778 4.48977 206.806 4.48666C206.837 4.48355 206.867 4.48044 206.895 4.47733V5C206.851 5.00622 206.802 5.01244 206.746 5.01867C206.69 5.02489 206.638 5.028 206.592 5.028ZM207.362 5V2.46131H207.936V3.02598L207.889 2.94198C207.949 2.7522 208.04 2.61997 208.165 2.54531C208.292 2.47064 208.445 2.43331 208.622 2.43331H208.771V2.97464H208.552C208.378 2.97464 208.238 3.02909 208.132 3.13798C208.026 3.24376 207.973 3.39309 207.973 3.58598V5H207.362ZM209.108 5V2.46131H209.719V5H209.108ZM209.108 2.17664V1.5233H209.719V2.17664H209.108ZM211.487 5.056C211.226 5.056 210.997 4.99689 210.801 4.87867C210.605 4.76044 210.453 4.60022 210.344 4.39799C210.235 4.19577 210.181 3.97177 210.181 3.72599C210.181 3.47087 210.235 3.24531 210.344 3.04931C210.456 2.8502 210.607 2.69309 210.797 2.57797C210.99 2.46286 211.204 2.40531 211.441 2.40531C211.64 2.40531 211.814 2.43797 211.963 2.50331C212.116 2.56864 212.245 2.65886 212.351 2.77398C212.457 2.88909 212.537 3.02131 212.593 3.17065C212.649 3.31687 212.677 3.47554 212.677 3.64665C212.677 3.69021 212.674 3.73532 212.668 3.78199C212.665 3.82865 212.657 3.8691 212.645 3.90332H210.685V3.43665H212.299L212.01 3.65599C212.038 3.51287 212.03 3.38532 211.987 3.27331C211.946 3.16131 211.878 3.07265 211.781 3.00731C211.688 2.94198 211.575 2.90931 211.441 2.90931C211.313 2.90931 211.2 2.94198 211.1 3.00731C211 3.06953 210.924 3.16287 210.871 3.28731C210.822 3.40865 210.803 3.55643 210.815 3.73065C210.803 3.88621 210.823 4.02466 210.876 4.14599C210.932 4.26421 211.013 4.35599 211.119 4.42133C211.228 4.48666 211.352 4.51933 211.492 4.51933C211.632 4.51933 211.75 4.48977 211.847 4.43066C211.946 4.37155 212.024 4.29221 212.08 4.19266L212.575 4.43533C212.525 4.55666 212.447 4.664 212.341 4.75733C212.236 4.85067 212.11 4.92378 211.963 4.97667C211.82 5.02956 211.662 5.056 211.487 5.056ZM213.861 5L212.862 2.46131H213.529L214.253 4.45866H214.005L214.733 2.46131H215.401L214.402 5H213.861ZM216.897 5.056C216.636 5.056 216.407 4.99689 216.211 4.87867C216.015 4.76044 215.863 4.60022 215.754 4.39799C215.645 4.19577 215.59 3.97177 215.59 3.72599C215.59 3.47087 215.645 3.24531 215.754 3.04931C215.866 2.8502 216.017 2.69309 216.206 2.57797C216.399 2.46286 216.614 2.40531 216.85 2.40531C217.049 2.40531 217.224 2.43797 217.373 2.50331C217.525 2.56864 217.655 2.65886 217.76 2.77398C217.866 2.88909 217.947 3.02131 218.003 3.17065C218.059 3.31687 218.087 3.47554 218.087 3.64665C218.087 3.69021 218.084 3.73532 218.078 3.78199C218.075 3.82865 218.067 3.8691 218.054 3.90332H216.094V3.43665H217.709L217.42 3.65599C217.448 3.51287 217.44 3.38532 217.396 3.27331C217.356 3.16131 217.287 3.07265 217.191 3.00731C217.098 2.94198 216.984 2.90931 216.85 2.90931C216.723 2.90931 216.609 2.94198 216.51 3.00731C216.41 3.06953 216.334 3.16287 216.281 3.28731C216.231 3.40865 216.213 3.55643 216.225 3.73065C216.213 3.88621 216.233 4.02466 216.286 4.14599C216.342 4.26421 216.423 4.35599 216.528 4.42133C216.637 4.48666 216.762 4.51933 216.902 4.51933C217.042 4.51933 217.16 4.48977 217.256 4.43066C217.356 4.37155 217.434 4.29221 217.49 4.19266L217.984 4.43533C217.935 4.55666 217.857 4.664 217.751 4.75733C217.645 4.85067 217.519 4.92378 217.373 4.97667C217.23 5.02956 217.071 5.056 216.897 5.056ZM219.731 5.056C219.485 5.056 219.266 4.99844 219.073 4.88333C218.88 4.76511 218.728 4.60488 218.616 4.40266C218.504 4.20044 218.448 3.97643 218.448 3.73065C218.448 3.48176 218.504 3.25776 218.616 3.05865C218.728 2.85953 218.88 2.70086 219.073 2.58264C219.269 2.46442 219.487 2.40531 219.726 2.40531C219.919 2.40531 220.09 2.44419 220.24 2.52197C220.392 2.59664 220.512 2.70242 220.599 2.83931L220.506 2.96531V1.4673H221.117V5H220.538V4.50999L220.604 4.63133C220.517 4.76822 220.395 4.874 220.24 4.94867C220.084 5.02022 219.915 5.056 219.731 5.056ZM219.796 4.49599C219.936 4.49599 220.059 4.46333 220.165 4.39799C220.271 4.33266 220.353 4.24244 220.412 4.12732C220.475 4.01221 220.506 3.87999 220.506 3.73065C220.506 3.58443 220.475 3.45376 220.412 3.33865C220.353 3.22043 220.271 3.12865 220.165 3.06331C220.059 2.99798 219.936 2.96531 219.796 2.96531C219.66 2.96531 219.537 2.99953 219.428 3.06798C219.319 3.13331 219.233 3.22354 219.171 3.33865C219.112 3.45065 219.082 3.58132 219.082 3.73065C219.082 3.87999 219.112 4.01221 219.171 4.12732C219.233 4.24244 219.319 4.33266 219.428 4.39799C219.537 4.46333 219.66 4.49599 219.796 4.49599ZM197.529 11V7.5233H198.663C199.03 7.5233 199.349 7.59796 199.619 7.7473C199.893 7.89352 200.105 8.0973 200.254 8.35864C200.403 8.61686 200.478 8.91709 200.478 9.25931C200.478 9.59843 200.403 9.90021 200.254 10.1647C200.105 10.426 199.893 10.6313 199.619 10.7807C199.349 10.9269 199.03 11 198.663 11H197.529ZM198.163 10.44H198.677C198.913 10.44 199.117 10.3918 199.288 10.2953C199.462 10.1958 199.597 10.0589 199.694 9.88465C199.79 9.70732 199.839 9.49887 199.839 9.25931C199.839 9.01665 199.79 8.8082 199.694 8.63397C199.597 8.45975 199.462 8.32442 199.288 8.22797C199.117 8.13152 198.913 8.0833 198.677 8.0833H198.163V10.44ZM202.173 11.056C201.924 11.056 201.697 10.9984 201.492 10.8833C201.289 10.7682 201.128 10.6111 201.006 10.412C200.888 10.2129 200.829 9.98577 200.829 9.73065C200.829 9.47554 200.888 9.24843 201.006 9.04931C201.128 8.8502 201.289 8.69309 201.492 8.57797C201.694 8.46286 201.921 8.40531 202.173 8.40531C202.422 8.40531 202.648 8.46286 202.85 8.57797C203.052 8.69309 203.212 8.8502 203.33 9.04931C203.452 9.24531 203.512 9.47243 203.512 9.73065C203.512 9.98577 203.452 10.2129 203.33 10.412C203.209 10.6111 203.047 10.7682 202.845 10.8833C202.643 10.9984 202.419 11.056 202.173 11.056ZM202.173 10.496C202.31 10.496 202.43 10.4633 202.532 10.398C202.638 10.3327 202.721 10.2424 202.78 10.1273C202.842 10.0091 202.873 9.87688 202.873 9.73065C202.873 9.58132 202.842 9.45065 202.78 9.33865C202.721 9.22354 202.638 9.13331 202.532 9.06798C202.43 8.99953 202.31 8.96531 202.173 8.96531C202.033 8.96531 201.91 8.99953 201.804 9.06798C201.699 9.13331 201.615 9.22354 201.552 9.33865C201.493 9.45065 201.464 9.58132 201.464 9.73065C201.464 9.87688 201.493 10.0091 201.552 10.1273C201.615 10.2424 201.699 10.3327 201.804 10.398C201.91 10.4633 202.033 10.496 202.173 10.496ZM205.199 11.056C204.947 11.056 204.72 10.9984 204.517 10.8833C204.318 10.7651 204.161 10.6064 204.046 10.4073C203.931 10.2051 203.873 9.97799 203.873 9.72599C203.873 9.47398 203.931 9.24843 204.046 9.04931C204.161 8.8502 204.318 8.69309 204.517 8.57797C204.72 8.46286 204.947 8.40531 205.199 8.40531C205.379 8.40531 205.547 8.43797 205.703 8.50331C205.858 8.56553 205.992 8.65264 206.104 8.76464C206.219 8.87353 206.302 9.0042 206.351 9.15665L205.815 9.38998C205.768 9.26243 205.689 9.15976 205.577 9.08198C205.468 9.0042 205.342 8.96531 205.199 8.96531C205.065 8.96531 204.945 8.99798 204.839 9.06331C204.737 9.12865 204.656 9.21887 204.597 9.33398C204.538 9.44909 204.508 9.58132 204.508 9.73065C204.508 9.87999 204.538 10.0122 204.597 10.1273C204.656 10.2424 204.737 10.3327 204.839 10.398C204.945 10.4633 205.065 10.496 205.199 10.496C205.345 10.496 205.472 10.4571 205.581 10.3793C205.69 10.3015 205.768 10.1973 205.815 10.0667L206.351 10.3093C206.302 10.4524 206.221 10.5816 206.109 10.6967C205.997 10.8087 205.863 10.8973 205.707 10.9627C205.552 11.0249 205.382 11.056 205.199 11.056ZM207.721 11.056C207.525 11.056 207.353 11.0124 207.207 10.9253C207.064 10.8382 206.954 10.7169 206.876 10.5613C206.801 10.4058 206.764 10.2238 206.764 10.0153V8.46131H207.375V9.96399C207.375 10.0698 207.395 10.1631 207.436 10.244C207.479 10.3218 207.54 10.384 207.618 10.4307C207.699 10.4742 207.789 10.496 207.889 10.496C207.988 10.496 208.077 10.4742 208.155 10.4307C208.232 10.384 208.293 10.3202 208.337 10.2393C208.38 10.1584 208.402 10.062 208.402 9.94999V8.46131H209.013V11H208.435V10.5007L208.486 10.5893C208.427 10.7449 208.329 10.8616 208.192 10.9393C208.058 11.0171 207.901 11.056 207.721 11.056ZM209.582 11V8.46131H210.156V9.04931L210.09 8.95131C210.137 8.76775 210.23 8.63086 210.37 8.54064C210.51 8.45042 210.675 8.40531 210.865 8.40531C211.073 8.40531 211.257 8.45975 211.416 8.56864C211.574 8.67753 211.677 8.82064 211.724 8.99798L211.551 9.01198C211.629 8.80975 211.745 8.65886 211.901 8.55931C212.056 8.45664 212.235 8.40531 212.438 8.40531C212.618 8.40531 212.778 8.44575 212.918 8.52664C213.061 8.60753 213.173 8.72109 213.254 8.86731C213.335 9.01042 213.376 9.17687 213.376 9.36665V11H212.764V9.51132C212.764 9.39932 212.744 9.30287 212.704 9.22198C212.663 9.14109 212.607 9.07887 212.536 9.03531C212.464 8.98864 212.377 8.96531 212.274 8.96531C212.178 8.96531 212.092 8.98864 212.018 9.03531C211.943 9.07887 211.885 9.14109 211.845 9.22198C211.804 9.30287 211.784 9.39932 211.784 9.51132V11H211.173V9.51132C211.173 9.39932 211.153 9.30287 211.112 9.22198C211.072 9.14109 211.014 9.07887 210.94 9.03531C210.868 8.98864 210.782 8.96531 210.683 8.96531C210.586 8.96531 210.501 8.98864 210.426 9.03531C210.352 9.07887 210.294 9.14109 210.254 9.22198C210.213 9.30287 210.193 9.39932 210.193 9.51132V11H209.582ZM215.097 11.056C214.835 11.056 214.607 10.9969 214.411 10.8787C214.215 10.7604 214.062 10.6002 213.953 10.398C213.845 10.1958 213.79 9.97177 213.79 9.72599C213.79 9.47087 213.845 9.24531 213.953 9.04931C214.065 8.8502 214.216 8.69309 214.406 8.57797C214.599 8.46286 214.814 8.40531 215.05 8.40531C215.249 8.40531 215.423 8.43797 215.573 8.50331C215.725 8.56864 215.854 8.65886 215.96 8.77398C216.066 8.88909 216.147 9.02131 216.203 9.17065C216.259 9.31687 216.287 9.47554 216.287 9.64665C216.287 9.69021 216.284 9.73532 216.277 9.78199C216.274 9.82865 216.267 9.8691 216.254 9.90332H214.294V9.43665H215.909L215.619 9.65599C215.647 9.51287 215.64 9.38532 215.596 9.27331C215.556 9.16131 215.487 9.07265 215.391 9.00731C215.297 8.94198 215.184 8.90931 215.05 8.90931C214.923 8.90931 214.809 8.94198 214.709 9.00731C214.61 9.06953 214.534 9.16287 214.481 9.28731C214.431 9.40865 214.412 9.55643 214.425 9.73065C214.412 9.88621 214.433 10.0247 214.485 10.146C214.541 10.2642 214.622 10.356 214.728 10.4213C214.837 10.4867 214.961 10.5193 215.101 10.5193C215.241 10.5193 215.36 10.4898 215.456 10.4307C215.556 10.3715 215.633 10.2922 215.689 10.1927L216.184 10.4353C216.134 10.5567 216.057 10.664 215.951 10.7573C215.845 10.8507 215.719 10.9238 215.573 10.9767C215.43 11.0296 215.271 11.056 215.097 11.056ZM216.75 11V8.46131H217.324V8.96064L217.278 8.87198C217.337 8.71953 217.433 8.60442 217.567 8.52664C217.704 8.44575 217.862 8.40531 218.043 8.40531C218.23 8.40531 218.394 8.44575 218.538 8.52664C218.684 8.60753 218.797 8.72109 218.878 8.86731C218.959 9.01042 219 9.17687 219 9.36665V11H218.388V9.51132C218.388 9.39932 218.366 9.30287 218.323 9.22198C218.279 9.14109 218.219 9.07887 218.141 9.03531C218.066 8.98864 217.978 8.96531 217.875 8.96531C217.775 8.96531 217.687 8.98864 217.609 9.03531C217.531 9.07887 217.47 9.14109 217.427 9.22198C217.383 9.30287 217.362 9.39932 217.362 9.51132V11H216.75ZM220.674 11.028C220.388 11.028 220.165 10.9502 220.007 10.7947C219.851 10.636 219.773 10.4135 219.773 10.1273V9.00731H219.335V8.46131H219.381C219.506 8.46131 219.602 8.42864 219.671 8.3633C219.739 8.29797 219.773 8.20308 219.773 8.07863V7.88263H220.385V8.46131H220.968V9.00731H220.385V10.0947C220.385 10.1787 220.399 10.2502 220.427 10.3093C220.458 10.3684 220.504 10.4135 220.567 10.4447C220.632 10.4758 220.714 10.4913 220.814 10.4913C220.836 10.4913 220.861 10.4898 220.889 10.4867C220.92 10.4835 220.949 10.4804 220.977 10.4773V11C220.934 11.0062 220.884 11.0124 220.828 11.0187C220.772 11.0249 220.721 11.028 220.674 11.028ZM222.41 11.056C222.14 11.056 221.903 10.9922 221.701 10.8647C221.502 10.734 221.365 10.5582 221.29 10.3373L221.748 10.118C221.813 10.2611 221.903 10.3731 222.018 10.454C222.137 10.5349 222.267 10.5753 222.41 10.5753C222.522 10.5753 222.611 10.5504 222.676 10.5007C222.742 10.4509 222.774 10.3855 222.774 10.3047C222.774 10.2549 222.76 10.2144 222.732 10.1833C222.707 10.1491 222.672 10.1211 222.625 10.0993C222.581 10.0744 222.533 10.0542 222.48 10.0387L222.065 9.92199C221.85 9.85977 221.687 9.76488 221.575 9.63732C221.466 9.50976 221.412 9.35887 221.412 9.18465C221.412 9.02909 221.451 8.89375 221.528 8.77864C221.609 8.66042 221.72 8.56864 221.86 8.50331C222.003 8.43797 222.166 8.40531 222.35 8.40531C222.589 8.40531 222.801 8.46286 222.984 8.57797C223.168 8.69309 223.299 8.85487 223.376 9.06331L222.91 9.28265C222.866 9.16754 222.793 9.07576 222.69 9.00731C222.588 8.93887 222.473 8.90464 222.345 8.90464C222.242 8.90464 222.161 8.92798 222.102 8.97464C222.043 9.02131 222.014 9.08198 222.014 9.15665C222.014 9.20331 222.026 9.24376 222.051 9.27798C222.076 9.3122 222.11 9.3402 222.154 9.36198C222.2 9.38376 222.253 9.40398 222.312 9.42265L222.718 9.54398C222.927 9.60621 223.087 9.69954 223.199 9.82399C223.314 9.94843 223.372 10.1009 223.372 10.2813C223.372 10.4338 223.331 10.5691 223.25 10.6873C223.169 10.8024 223.057 10.8927 222.914 10.958C222.771 11.0233 222.603 11.056 222.41 11.056Z" fill="#130C49"/>
<line x1="97.252" y1="21.6526" x2="143.205" y2="21.6526" stroke="#130C49" stroke-width="0.638243"/>
<line x1="97.252" y1="25.4821" x2="130.441" y2="25.4821" stroke="#130C49" stroke-width="0.638243"/>
<rect x="91.922" y="37.5813" width="57.1673" height="12.8335" rx="1.45835" fill="#85E3BC" stroke="#130C49" stroke-width="0.58334"/>
<line x1="97.252" y1="42.0254" x2="143.205" y2="42.0254" stroke="#130C49" stroke-width="0.638243"/>
<line x1="97.252" y1="45.8548" x2="130.441" y2="45.8548" stroke="#130C49" stroke-width="0.638243"/>
<rect x="91.922" y="59.2815" width="57.1673" height="12.8335" rx="1.45835" fill="#85E3BC" stroke="#130C49" stroke-width="0.58334"/>
<line x1="97.252" y1="63.7257" x2="143.205" y2="63.7257" stroke="#130C49" stroke-width="0.638243"/>
<line x1="97.252" y1="67.5551" x2="130.441" y2="67.5551" stroke="#130C49" stroke-width="0.638243"/>
<rect x="91.922" y="80.9818" width="57.1673" height="12.8335" rx="1.45835" fill="#85E3BC" stroke="#130C49" stroke-width="0.58334"/>
<line x1="97.252" y1="85.4259" x2="143.205" y2="85.4259" stroke="#130C49" stroke-width="0.638243"/>
<line x1="97.252" y1="89.2554" x2="130.441" y2="89.2554" stroke="#130C49" stroke-width="0.638243"/>
</svg>
