<svg width="240" height="50" viewBox="0 0 240 50" fill="none" xmlns="http://www.w3.org/2000/svg">
<rect x="0.308292" y="10.9286" width="38.4465" height="38.4465" rx="1.54146" fill="#ECF4F8" stroke="#130C49" stroke-width="0.616584"/>
<path d="M65.2407 21.8292V29.5108M65.2407 29.5108H76.3364M65.2407 29.5108L69.5083 39.753M65.2407 29.5108L58.4126 38.8995" stroke="#130C49" stroke-width="0.773126"/>
<circle cx="65.2409" cy="18.4142" r="3.02769" fill="#85E3BC" stroke="#130C49" stroke-width="0.773126"/>
<circle cx="65.2409" cy="29.5096" r="3.02769" fill="#85E3BC" stroke="#130C49" stroke-width="0.773126"/>
<circle cx="76.34" cy="29.5096" r="3.02769" fill="#85E3BC" stroke="#130C49" stroke-width="0.773126"/>
<circle cx="69.509" cy="39.7532" r="3.02769" fill="#85E3BC" stroke="#130C49" stroke-width="0.773126"/>
<circle cx="58.4142" cy="38.8974" r="3.02769" fill="#85E3BC" stroke="#130C49" stroke-width="0.773126"/>
<rect x="100.371" y="10.9283" width="38.4465" height="38.4465" rx="1.54146" fill="#85E3BC" stroke="#130C49" stroke-width="0.616584"/>
<path d="M170.088 43.6723L181.497 37.0898C182.052 36.7713 182.387 36.1833 182.387 35.5463V22.3731C182.387 21.7361 182.044 21.1481 181.497 20.8296M170.088 43.6723L169.888 43.3234L181.296 36.7414L181.297 36.7409C181.725 36.4951 181.985 36.0413 181.985 35.5463V22.3731C181.985 21.8811 181.72 21.4249 181.295 21.1775L181.296 21.1779L181.497 20.8296M170.088 43.6723C169.533 43.9908 168.855 43.9908 168.299 43.6723M170.088 43.6723L169.887 43.3239L169.887 43.3238C169.456 43.5707 168.931 43.5707 168.5 43.3238L168.5 43.3239L168.299 43.6723M181.497 20.8296L181.295 21.1772L169.888 14.5878L170.088 14.2389M181.497 20.8296L170.088 14.2389M170.088 14.2389C169.533 13.9204 168.855 13.9204 168.299 14.2389M170.088 14.2389L169.887 14.5872L169.887 14.5875C169.456 14.3405 168.931 14.3405 168.5 14.5875L168.501 14.5872L168.299 14.2389M168.299 14.2389L156.89 20.8296C156.335 21.1481 156 21.7361 156 22.3731V35.5463C156 36.1833 156.343 36.7713 156.89 37.0898M168.299 14.2389L168.499 14.5878L157.091 21.1779L157.09 21.1785C156.662 21.4242 156.402 21.8781 156.402 22.3731V35.5463C156.402 36.0382 156.667 36.4944 157.092 36.7418L157.091 36.7414L156.89 37.0898M156.89 37.0898L168.299 43.6723M156.89 37.0898L157.093 36.7422L168.499 43.3234L168.299 43.6723" fill="#85E3BC" stroke="#130C49" stroke-width="0.804472"/>
<path d="M171.795 25.5258V28.7272L169.198 27.2245L166.593 28.7272V25.5258L163.498 27.3143V30.7036L166.429 32.4023L169.198 30.8016L171.958 32.4023L174.89 30.7036V27.3143L171.795 25.5258Z" fill="#130C49"/>
<rect x="213.116" y="14.4657" width="17.419" height="21.4968" fill="#85E3BC" stroke="#130C49" stroke-width="0.931328" stroke-linejoin="round"/>
<line x1="217.193" y1="19.6512" x2="226.456" y2="19.6512" stroke="#130C49" stroke-width="0.931328" stroke-linecap="round"/>
<line x1="217.193" y1="23.7289" x2="226.456" y2="23.7289" stroke="#130C49" stroke-width="0.931328" stroke-linecap="round"/>
<line x1="217.193" y1="27.8071" x2="226.456" y2="27.8071" stroke="#130C49" stroke-width="0.931328" stroke-linecap="round"/>
<rect x="209.291" y="18.2905" width="17.419" height="21.4968" fill="#85E3BC" stroke="#130C49" stroke-width="0.931328" stroke-linejoin="round"/>
<line x1="213.368" y1="23.4756" x2="222.631" y2="23.4756" stroke="#130C49" stroke-width="0.931328" stroke-linecap="round"/>
<line x1="213.368" y1="27.5538" x2="222.631" y2="27.5538" stroke="#130C49" stroke-width="0.931328" stroke-linecap="round"/>
<line x1="213.368" y1="31.6315" x2="222.631" y2="31.6315" stroke="#130C49" stroke-width="0.931328" stroke-linecap="round"/>
<rect x="205.466" y="22.661" width="17.419" height="21.4968" fill="#85E3BC" stroke="#130C49" stroke-width="0.931328" stroke-linejoin="round"/>
<line x1="209.544" y1="27.846" x2="218.807" y2="27.846" stroke="#130C49" stroke-width="0.931328" stroke-linecap="round"/>
<line x1="209.544" y1="31.9238" x2="218.807" y2="31.9238" stroke="#130C49" stroke-width="0.931328" stroke-linecap="round"/>
<line x1="209.544" y1="36.002" x2="218.807" y2="36.002" stroke="#130C49" stroke-width="0.931328" stroke-linecap="round"/>
<path d="M50.6488 29.4129L47.5659 27.6329V31.1928L50.6488 29.4129ZM39.5308 29.7211H47.8742V29.1046H39.5308V29.7211Z" fill="#130C49"/>
<path d="M100.063 29.4129L96.98 27.6329V31.1928L100.063 29.4129ZM88.9448 29.7211H97.2883V29.1046H88.9448V29.7211Z" fill="#130C49"/>
<path d="M149.476 29.4129L146.394 27.6329V31.1928L149.476 29.4129ZM138.358 29.7211H146.702V29.1046H138.358V29.7211Z" fill="#130C49"/>
<path d="M198.89 29.4129L195.807 27.6329V31.1928L198.89 29.4129ZM187.772 29.7211H196.115V29.1046H187.772V29.7211Z" fill="#130C49"/>
<path d="M8.82176 5V1.6475H10.0683C10.2963 1.6475 10.4973 1.6895 10.6713 1.7735C10.8483 1.8545 10.9863 1.9745 11.0853 2.1335C11.1843 2.2895 11.2338 2.48 11.2338 2.705C11.2338 2.936 11.1783 3.1325 11.0673 3.2945C10.9593 3.4565 10.8123 3.5765 10.6263 3.6545L11.3958 5H10.7028L9.87926 3.5285L10.2753 3.7625H9.43376V5H8.82176ZM9.43376 3.2225H10.0773C10.1883 3.2225 10.2843 3.2015 10.3653 3.1595C10.4463 3.1145 10.5093 3.053 10.5543 2.975C10.5993 2.897 10.6218 2.807 10.6218 2.705C10.6218 2.6 10.5993 2.51 10.5543 2.435C10.5093 2.357 10.4463 2.297 10.3653 2.255C10.2843 2.21 10.1883 2.1875 10.0773 2.1875H9.43376V3.2225ZM12.4899 5.054C12.3189 5.054 12.1704 5.0255 12.0444 4.9685C11.9184 4.9115 11.8209 4.8305 11.7519 4.7255C11.6829 4.6175 11.6484 4.493 11.6484 4.352C11.6484 4.217 11.6784 4.097 11.7384 3.992C11.7984 3.884 11.8914 3.794 12.0174 3.722C12.1434 3.65 12.3024 3.599 12.4944 3.569L13.2954 3.4385V3.8885L12.6069 4.0055C12.4899 4.0265 12.4029 4.064 12.3459 4.118C12.2889 4.172 12.2604 4.2425 12.2604 4.3295C12.2604 4.4135 12.2919 4.481 12.3549 4.532C12.4209 4.58 12.5019 4.604 12.5979 4.604C12.7209 4.604 12.8289 4.5785 12.9219 4.5275C13.0179 4.4735 13.0914 4.4 13.1424 4.307C13.1964 4.214 13.2234 4.112 13.2234 4.001V3.371C13.2234 3.266 13.1814 3.179 13.0974 3.11C13.0164 3.038 12.9084 3.002 12.7734 3.002C12.6474 3.002 12.5349 3.0365 12.4359 3.1055C12.3399 3.1715 12.2694 3.26 12.2244 3.371L11.7429 3.137C11.7909 3.008 11.8659 2.897 11.9679 2.804C12.0729 2.708 12.1959 2.633 12.3369 2.579C12.4779 2.525 12.6309 2.498 12.7959 2.498C12.9969 2.498 13.1739 2.5355 13.3269 2.6105C13.4799 2.6825 13.5984 2.7845 13.6824 2.9165C13.7694 3.0455 13.8129 3.197 13.8129 3.371V5H13.2549V4.5815L13.3809 4.5725C13.3179 4.6775 13.2429 4.766 13.1559 4.838C13.0689 4.907 12.9699 4.961 12.8589 5C12.7479 5.036 12.6249 5.054 12.4899 5.054ZM14.9742 5L14.1327 2.552H14.7537L15.3702 4.4105L15.1542 4.406L15.8112 2.552H16.3332L16.9857 4.406L16.7697 4.4105L17.3862 2.552H18.0072L17.1657 5H16.6392L15.9732 3.0605H16.1712L15.4962 5H14.9742ZM20.8312 5.054C20.5852 5.054 20.3557 5.0105 20.1427 4.9235C19.9297 4.8365 19.7437 4.715 19.5847 4.559C19.4257 4.403 19.3012 4.22 19.2112 4.01C19.1242 3.797 19.0807 3.5675 19.0807 3.3215C19.0807 3.0725 19.1242 2.843 19.2112 2.633C19.2982 2.423 19.4212 2.24 19.5802 2.084C19.7392 1.928 19.9252 1.808 20.1382 1.724C20.3512 1.637 20.5822 1.5935 20.8312 1.5935C21.0802 1.5935 21.3112 1.637 21.5242 1.724C21.7372 1.811 21.9232 1.9325 22.0822 2.0885C22.2412 2.2415 22.3642 2.423 22.4512 2.633C22.5412 2.843 22.5862 3.0725 22.5862 3.3215C22.5862 3.5675 22.5412 3.797 22.4512 4.01C22.3612 4.22 22.2367 4.403 22.0777 4.559C21.9187 4.715 21.7327 4.8365 21.5197 4.9235C21.3097 5.0105 21.0802 5.054 20.8312 5.054ZM20.8312 4.496C20.9962 4.496 21.1477 4.4675 21.2857 4.4105C21.4237 4.3505 21.5437 4.268 21.6457 4.163C21.7507 4.058 21.8302 3.9335 21.8842 3.7895C21.9412 3.6455 21.9697 3.4895 21.9697 3.3215C21.9697 3.1535 21.9412 2.999 21.8842 2.858C21.8302 2.714 21.7507 2.5895 21.6457 2.4845C21.5437 2.3765 21.4237 2.294 21.2857 2.237C21.1477 2.18 20.9962 2.1515 20.8312 2.1515C20.6692 2.1515 20.5192 2.18 20.3812 2.237C20.2432 2.294 20.1217 2.3765 20.0167 2.4845C19.9147 2.5895 19.8352 2.714 19.7782 2.858C19.7212 2.999 19.6927 3.1535 19.6927 3.3215C19.6927 3.4895 19.7212 3.6455 19.7782 3.7895C19.8352 3.9335 19.9147 4.058 20.0167 4.163C20.1217 4.268 20.2432 4.3505 20.3812 4.4105C20.5192 4.4675 20.6692 4.496 20.8312 4.496ZM21.6052 5.405L20.5612 3.659H21.2002L22.2577 5.405H21.6052ZM23.9539 5.054C23.7649 5.054 23.5999 5.012 23.4589 4.928C23.3209 4.844 23.2144 4.727 23.1394 4.577C23.0674 4.427 23.0314 4.2515 23.0314 4.0505V2.552H23.6209V4.001C23.6209 4.103 23.6404 4.193 23.6794 4.271C23.7214 4.346 23.7799 4.406 23.8549 4.451C23.9329 4.493 24.0199 4.514 24.1159 4.514C24.2119 4.514 24.2974 4.493 24.3724 4.451C24.4474 4.406 24.5059 4.3445 24.5479 4.2665C24.5899 4.1885 24.6109 4.0955 24.6109 3.9875V2.552H25.2004V5H24.6424V4.5185L24.6919 4.604C24.6349 4.754 24.5404 4.8665 24.4084 4.9415C24.2794 5.0165 24.1279 5.054 23.9539 5.054ZM26.9093 5.054C26.6573 5.054 26.4368 4.997 26.2478 4.883C26.0588 4.769 25.9118 4.6145 25.8068 4.4195C25.7018 4.2245 25.6493 4.0085 25.6493 3.7715C25.6493 3.5255 25.7018 3.308 25.8068 3.119C25.9148 2.927 26.0603 2.7755 26.2433 2.6645C26.4293 2.5535 26.6363 2.498 26.8643 2.498C27.0563 2.498 27.2243 2.5295 27.3683 2.5925C27.5153 2.6555 27.6398 2.7425 27.7418 2.8535C27.8438 2.9645 27.9218 3.092 27.9758 3.236C28.0298 3.377 28.0568 3.53 28.0568 3.695C28.0568 3.737 28.0538 3.7805 28.0478 3.8255C28.0448 3.8705 28.0373 3.9095 28.0253 3.9425H26.1353V3.4925H27.6923L27.4133 3.704C27.4403 3.566 27.4328 3.443 27.3908 3.335C27.3518 3.227 27.2858 3.1415 27.1928 3.0785C27.1028 3.0155 26.9933 2.984 26.8643 2.984C26.7413 2.984 26.6318 3.0155 26.5358 3.0785C26.4398 3.1385 26.3663 3.2285 26.3153 3.3485C26.2673 3.4655 26.2493 3.608 26.2613 3.776C26.2493 3.926 26.2688 4.0595 26.3198 4.1765C26.3738 4.2905 26.4518 4.379 26.5538 4.442C26.6588 4.505 26.7788 4.5365 26.9138 4.5365C27.0488 4.5365 27.1628 4.508 27.2558 4.451C27.3518 4.394 27.4268 4.3175 27.4808 4.2215L27.9578 4.4555C27.9098 4.5725 27.8348 4.676 27.7328 4.766C27.6308 4.856 27.5093 4.9265 27.3683 4.9775C27.2303 5.0285 27.0773 5.054 26.9093 5.054ZM28.5037 5V2.552H29.0572V3.0965L29.0122 3.0155C29.0692 2.8325 29.1577 2.705 29.2777 2.633C29.4007 2.561 29.5477 2.525 29.7187 2.525H29.8627V3.047H29.6512C29.4832 3.047 29.3482 3.0995 29.2462 3.2045C29.1442 3.3065 29.0932 3.4505 29.0932 3.6365V5H28.5037ZM30.4838 5.99C30.4178 5.99 30.3533 5.984 30.2903 5.972C30.2273 5.963 30.1703 5.945 30.1193 5.918V5.4275C30.1583 5.4365 30.2048 5.4455 30.2588 5.4545C30.3158 5.4635 30.3683 5.468 30.4163 5.468C30.5513 5.468 30.6488 5.4365 30.7088 5.3735C30.7718 5.3135 30.8273 5.2325 30.8753 5.1305L31.0373 4.7525L31.0283 5.2475L29.9618 2.552H30.5963L31.3433 4.541H31.1183L31.8608 2.552H32.4998L31.4333 5.2475C31.3703 5.4035 31.2938 5.537 31.2038 5.648C31.1138 5.759 31.0088 5.843 30.8888 5.9C30.7718 5.96 30.6368 5.99 30.4838 5.99Z" fill="#130C49"/>
<path d="M47.6023 5.05179C47.3663 5.05179 47.1462 5.01007 46.9419 4.92663C46.7376 4.84318 46.5592 4.72665 46.4067 4.57702C46.2542 4.4274 46.1348 4.25188 46.0485 4.05046C45.965 3.84616 45.9233 3.62604 45.9233 3.3901C45.9233 3.15127 45.965 2.93115 46.0485 2.72974C46.1319 2.52832 46.2499 2.3528 46.4024 2.20317C46.5549 2.05355 46.7333 1.93845 46.9376 1.85789C47.1419 1.77444 47.3635 1.73272 47.6023 1.73272C47.8411 1.73272 48.0627 1.77444 48.267 1.85789C48.4713 1.94133 48.6497 2.05786 48.8022 2.20749C48.9547 2.35424 49.0726 2.52832 49.1561 2.72974C49.2424 2.93115 49.2856 3.15127 49.2856 3.3901C49.2856 3.62604 49.2424 3.84616 49.1561 4.05046C49.0698 4.25188 48.9503 4.4274 48.7978 4.57702C48.6453 4.72665 48.4669 4.84318 48.2626 4.92663C48.0612 5.01007 47.8411 5.05179 47.6023 5.05179ZM47.6023 4.5166C47.7605 4.5166 47.9058 4.48926 48.0382 4.43459C48.1706 4.37704 48.2857 4.29792 48.3835 4.19721C48.4842 4.0965 48.5605 3.97709 48.6122 3.83897C48.6669 3.70086 48.6943 3.55123 48.6943 3.3901C48.6943 3.22896 48.6669 3.08078 48.6122 2.94554C48.5605 2.80743 48.4842 2.68801 48.3835 2.58731C48.2857 2.48372 48.1706 2.40459 48.0382 2.34992C47.9058 2.29525 47.7605 2.26791 47.6023 2.26791C47.4469 2.26791 47.303 2.29525 47.1707 2.34992C47.0383 2.40459 46.9218 2.48372 46.8211 2.58731C46.7232 2.68801 46.647 2.80743 46.5923 2.94554C46.5376 3.08078 46.5103 3.22896 46.5103 3.3901C46.5103 3.55123 46.5376 3.70086 46.5923 3.83897C46.647 3.97709 46.7232 4.0965 46.8211 4.19721C46.9218 4.29792 47.0383 4.37704 47.1707 4.43459C47.303 4.48926 47.4469 4.5166 47.6023 4.5166ZM48.3447 5.38845L47.3433 3.7138H47.9562L48.9705 5.38845H48.3447ZM50.5973 5.05179C50.4161 5.05179 50.2578 5.01151 50.1226 4.93094C49.9902 4.85038 49.8881 4.73816 49.8161 4.59429C49.7471 4.45042 49.7125 4.28209 49.7125 4.0893V2.65205H50.278V4.04183C50.278 4.13966 50.2967 4.22598 50.3341 4.30079C50.3743 4.37273 50.4305 4.43028 50.5024 4.47344C50.5772 4.51372 50.6606 4.53386 50.7527 4.53386C50.8448 4.53386 50.9268 4.51372 50.9987 4.47344C51.0707 4.43028 51.1268 4.37129 51.1671 4.29648C51.2074 4.22166 51.2275 4.13247 51.2275 4.02888V2.65205H51.7929V5H51.2577V4.53818L51.3052 4.62018C51.2505 4.76405 51.1599 4.87196 51.0333 4.94389C50.9095 5.01583 50.7642 5.05179 50.5973 5.05179ZM53.432 5.05179C53.1903 5.05179 52.9789 4.99712 52.7976 4.88778C52.6163 4.77844 52.4753 4.63025 52.3746 4.44322C52.2739 4.25619 52.2235 4.04902 52.2235 3.82171C52.2235 3.58576 52.2739 3.37715 52.3746 3.19587C52.4782 3.01172 52.6177 2.86641 52.7933 2.75995C52.9717 2.65348 53.1702 2.60025 53.3889 2.60025C53.573 2.60025 53.7342 2.63047 53.8723 2.69089C54.0133 2.75132 54.1327 2.83476 54.2305 2.94122C54.3283 3.04769 54.4032 3.16998 54.455 3.30809C54.5067 3.44333 54.5326 3.59008 54.5326 3.74833C54.5326 3.78862 54.5298 3.83034 54.524 3.8735C54.5211 3.91666 54.5139 3.95407 54.5024 3.98572H52.6897V3.55411H54.183L53.9154 3.75697C53.9413 3.62461 53.9341 3.50663 53.8939 3.40305C53.8565 3.29946 53.7932 3.21745 53.704 3.15703C53.6176 3.0966 53.5126 3.06639 53.3889 3.06639C53.2709 3.06639 53.1659 3.0966 53.0738 3.15703C52.9817 3.21458 52.9112 3.3009 52.8623 3.41599C52.8163 3.52821 52.799 3.66489 52.8105 3.82602C52.799 3.96989 52.8177 4.09794 52.8666 4.21016C52.9184 4.3195 52.9932 4.40438 53.0911 4.4648C53.1918 4.52523 53.3069 4.55544 53.4364 4.55544C53.5658 4.55544 53.6752 4.52811 53.7644 4.47344C53.8565 4.41877 53.9284 4.34539 53.9802 4.25332L54.4377 4.47775C54.3917 4.58997 54.3197 4.68924 54.2219 4.77556C54.1241 4.86189 54.0075 4.9295 53.8723 4.97842C53.7399 5.02734 53.5932 5.05179 53.432 5.05179ZM54.9613 5V2.65205H55.4921V3.17429L55.449 3.0966C55.5036 2.92108 55.5885 2.79879 55.7036 2.72974C55.8216 2.66068 55.9626 2.62615 56.1266 2.62615H56.2647V3.12682H56.0619C55.9007 3.12682 55.7712 3.17717 55.6734 3.27788C55.5756 3.37571 55.5267 3.51383 55.5267 3.69222V5H54.9613ZM56.8604 5.94954C56.7971 5.94954 56.7353 5.94379 56.6748 5.93228C56.6144 5.92364 56.5597 5.90638 56.5108 5.88048V5.41003C56.5482 5.41866 56.5928 5.42729 56.6446 5.43593C56.6993 5.44456 56.7497 5.44887 56.7957 5.44887C56.9252 5.44887 57.0187 5.41866 57.0762 5.35824C57.1367 5.30069 57.1899 5.223 57.2359 5.12517L57.3913 4.76261L57.3827 5.23739L56.3598 2.65205H56.9683L57.6848 4.55976H57.469L58.1812 2.65205H58.794L57.7711 5.23739C57.7107 5.38701 57.6373 5.51505 57.551 5.62152C57.4647 5.72798 57.364 5.80855 57.2489 5.86322C57.1367 5.92077 57.0072 5.94954 56.8604 5.94954ZM59.9191 5V1.78451H61.1147C61.3334 1.78451 61.5262 1.8248 61.693 1.90536C61.8628 1.98305 61.9952 2.09815 62.0901 2.25065C62.1851 2.40027 62.2326 2.58299 62.2326 2.79879C62.2326 3.02035 62.1793 3.20882 62.0729 3.3642C61.9693 3.51958 61.8283 3.63468 61.6499 3.70949L62.3879 5H61.7233L60.9334 3.58864L61.3132 3.81307H60.5061V5H59.9191ZM60.5061 3.29514H61.1233C61.2298 3.29514 61.3219 3.275 61.3995 3.23472C61.4772 3.19156 61.5377 3.13257 61.5808 3.05776C61.624 2.98295 61.6456 2.89662 61.6456 2.79879C61.6456 2.69808 61.624 2.61176 61.5808 2.53983C61.5377 2.46502 61.4772 2.40747 61.3995 2.36718C61.3219 2.32402 61.2298 2.30244 61.1233 2.30244H60.5061V3.29514ZM63.708 5.05179C63.4663 5.05179 63.2549 4.99712 63.0736 4.88778C62.8923 4.77844 62.7513 4.63025 62.6506 4.44322C62.5499 4.25619 62.4995 4.04902 62.4995 3.82171C62.4995 3.58576 62.5499 3.37715 62.6506 3.19587C62.7542 3.01172 62.8937 2.86641 63.0693 2.75995C63.2477 2.65348 63.4462 2.60025 63.6649 2.60025C63.849 2.60025 64.0102 2.63047 64.1483 2.69089C64.2893 2.75132 64.4087 2.83476 64.5065 2.94122C64.6044 3.04769 64.6792 3.16998 64.731 3.30809C64.7828 3.44333 64.8086 3.59008 64.8086 3.74833C64.8086 3.78862 64.8058 3.83034 64.8 3.8735C64.7971 3.91666 64.7899 3.95407 64.7784 3.98572H62.9657V3.55411H64.459L64.1914 3.75697C64.2173 3.62461 64.2102 3.50663 64.1699 3.40305C64.1325 3.29946 64.0692 3.21745 63.98 3.15703C63.8936 3.0966 63.7886 3.06639 63.6649 3.06639C63.5469 3.06639 63.4419 3.0966 63.3498 3.15703C63.2577 3.21458 63.1872 3.3009 63.1383 3.41599C63.0923 3.52821 63.075 3.66489 63.0865 3.82602C63.075 3.96989 63.0937 4.09794 63.1426 4.21016C63.1944 4.3195 63.2692 4.40438 63.3671 4.4648C63.4678 4.52523 63.5829 4.55544 63.7124 4.55544C63.8418 4.55544 63.9512 4.52811 64.0404 4.47344C64.1325 4.41877 64.2044 4.34539 64.2562 4.25332L64.7137 4.47775C64.6677 4.58997 64.5957 4.68924 64.4979 4.77556C64.4001 4.86189 64.2835 4.9295 64.1483 4.97842C64.0159 5.02734 63.8692 5.05179 63.708 5.05179ZM65.3538 4.07636V3.58001H67.1881V4.07636H65.3538ZM68.4165 5L67.6094 2.65205H68.205L68.7963 4.43459L68.5892 4.43028L69.2193 2.65205H69.72L70.3458 4.43028L70.1387 4.43459L70.73 2.65205H71.3256L70.5185 5H70.0135L69.3747 3.13976H69.5646L68.9172 5H68.4165ZM71.6355 5V2.65205H72.1664V3.17429L72.1232 3.0966C72.1779 2.92108 72.2628 2.79879 72.3779 2.72974C72.4959 2.66068 72.6369 2.62615 72.8009 2.62615H72.939V3.12682H72.7361C72.575 3.12682 72.4455 3.17717 72.3477 3.27788C72.2498 3.37571 72.2009 3.51383 72.2009 3.69222V5H71.6355ZM73.2498 5V2.65205H73.8153V5H73.2498ZM73.2498 2.38876V1.78451H73.8153V2.38876H73.2498ZM75.4077 5.0259C75.143 5.0259 74.9372 4.95396 74.7905 4.81009C74.6466 4.66334 74.5747 4.45761 74.5747 4.19289V3.15703H74.169V2.65205H74.2121C74.3272 2.65205 74.4164 2.62183 74.4797 2.56141C74.543 2.50098 74.5747 2.41322 74.5747 2.29813V2.11685H75.1401V2.65205H75.6796V3.15703H75.1401V4.16268C75.1401 4.24037 75.153 4.30655 75.1789 4.36122C75.2077 4.41589 75.2509 4.45761 75.3084 4.48639C75.3688 4.51516 75.4451 4.52955 75.5372 4.52955C75.5573 4.52955 75.5803 4.52811 75.6062 4.52523C75.635 4.52235 75.6623 4.51948 75.6882 4.5166V5C75.648 5.00575 75.6019 5.01151 75.5501 5.01726C75.4983 5.02302 75.4508 5.0259 75.4077 5.0259ZM77.2127 5.05179C76.971 5.05179 76.7595 4.99712 76.5782 4.88778C76.3969 4.77844 76.256 4.63025 76.1552 4.44322C76.0545 4.25619 76.0042 4.04902 76.0042 3.82171C76.0042 3.58576 76.0545 3.37715 76.1552 3.19587C76.2588 3.01172 76.3984 2.86641 76.5739 2.75995C76.7523 2.65348 76.9508 2.60025 77.1695 2.60025C77.3537 2.60025 77.5148 2.63047 77.6529 2.69089C77.7939 2.75132 77.9133 2.83476 78.0112 2.94122C78.109 3.04769 78.1838 3.16998 78.2356 3.30809C78.2874 3.44333 78.3133 3.59008 78.3133 3.74833C78.3133 3.78862 78.3104 3.83034 78.3047 3.8735C78.3018 3.91666 78.2946 3.95407 78.2831 3.98572H76.4703V3.55411H77.9637L77.6961 3.75697C77.722 3.62461 77.7148 3.50663 77.6745 3.40305C77.6371 3.29946 77.5738 3.21745 77.4846 3.15703C77.3983 3.0966 77.2933 3.06639 77.1695 3.06639C77.0516 3.06639 76.9465 3.0966 76.8545 3.15703C76.7624 3.21458 76.6919 3.3009 76.643 3.41599C76.5969 3.52821 76.5797 3.66489 76.5912 3.82602C76.5797 3.96989 76.5984 4.09794 76.6473 4.21016C76.6991 4.3195 76.7739 4.40438 76.8717 4.4648C76.9724 4.52523 77.0875 4.55544 77.217 4.55544C77.3465 4.55544 77.4558 4.52811 77.545 4.47344C77.6371 4.41877 77.709 4.34539 77.7608 4.25332L78.2183 4.47775C78.1723 4.58997 78.1004 4.68924 78.0025 4.77556C77.9047 4.86189 77.7882 4.9295 77.6529 4.97842C77.5206 5.02734 77.3738 5.05179 77.2127 5.05179ZM78.7419 5V2.65205H79.2728V3.17429L79.2296 3.0966C79.2843 2.92108 79.3692 2.79879 79.4843 2.72974C79.6022 2.66068 79.7432 2.62615 79.9072 2.62615H80.0454V3.12682H79.8425C79.6814 3.12682 79.5519 3.17717 79.4541 3.27788C79.3562 3.37571 79.3073 3.51383 79.3073 3.69222V5H78.7419ZM81.8657 5.73374C81.624 5.45175 81.4413 5.14531 81.3176 4.81441C81.1967 4.48351 81.1363 4.13103 81.1363 3.75697C81.1363 3.3829 81.1967 3.03042 81.3176 2.69952C81.4384 2.36862 81.6211 2.06362 81.8657 1.78451H82.3405C82.1333 2.09239 81.9779 2.41178 81.8743 2.74268C81.7736 3.07071 81.7233 3.4088 81.7233 3.75697C81.7233 4.10513 81.7751 4.44466 81.8787 4.77556C81.9822 5.10646 82.1362 5.42585 82.3405 5.73374H81.8657ZM82.8062 5V1.78451H83.3932V4.48207H84.77V5H82.8062ZM85.1497 5V1.78451H85.7367V4.48207H87.1135V5H85.1497ZM87.4932 5V1.78451H88.0543L89.2585 3.42031H88.9909L90.1692 1.78451H90.7303V5H90.139V2.45351L90.3677 2.50962L89.1463 4.13678H89.0772L87.886 2.50962L88.0802 2.45351V5H87.4932ZM91.1946 5.73374C91.3989 5.42585 91.5514 5.10646 91.6521 4.77556C91.7557 4.44466 91.8075 4.10513 91.8075 3.75697C91.8075 3.4088 91.7557 3.07071 91.6521 2.74268C91.5514 2.41178 91.3989 2.09239 91.1946 1.78451H91.6694C91.9111 2.06362 92.0923 2.36862 92.2132 2.69952C92.334 3.03042 92.3945 3.3829 92.3945 3.75697C92.3945 4.13103 92.334 4.48351 92.2132 4.81441C92.0923 5.14531 91.9111 5.45175 91.6694 5.73374H91.1946Z" fill="#130C49"/>
<path d="M102.22 5V1.78451H103.416C103.635 1.78451 103.827 1.8248 103.994 1.90536C104.164 1.98305 104.296 2.09815 104.391 2.25065C104.486 2.40027 104.534 2.58299 104.534 2.79879C104.534 3.02035 104.481 3.20882 104.374 3.3642C104.271 3.51958 104.13 3.63468 103.951 3.70949L104.689 5H104.025L103.235 3.58864L103.615 3.81307H102.807V5H102.22ZM102.807 3.29514H103.425C103.531 3.29514 103.623 3.275 103.701 3.23472C103.779 3.19156 103.839 3.13257 103.882 3.05776C103.925 2.98295 103.947 2.89662 103.947 2.79879C103.947 2.69808 103.925 2.61176 103.882 2.53983C103.839 2.46502 103.779 2.40747 103.701 2.36718C103.623 2.32402 103.531 2.30244 103.425 2.30244H102.807V3.29514ZM106.009 5.05179C105.768 5.05179 105.556 4.99712 105.375 4.88778C105.194 4.77844 105.053 4.63025 104.952 4.44322C104.851 4.25619 104.801 4.04902 104.801 3.82171C104.801 3.58576 104.851 3.37715 104.952 3.19587C105.055 3.01172 105.195 2.86641 105.371 2.75995C105.549 2.65348 105.748 2.60025 105.966 2.60025C106.15 2.60025 106.311 2.63047 106.45 2.69089C106.591 2.75132 106.71 2.83476 106.808 2.94122C106.906 3.04769 106.98 3.16998 107.032 3.30809C107.084 3.44333 107.11 3.59008 107.11 3.74833C107.11 3.78862 107.107 3.83034 107.101 3.8735C107.098 3.91666 107.091 3.95407 107.08 3.98572H105.267V3.55411H106.76L106.493 3.75697C106.519 3.62461 106.511 3.50663 106.471 3.40305C106.434 3.29946 106.37 3.21745 106.281 3.15703C106.195 3.0966 106.09 3.06639 105.966 3.06639C105.848 3.06639 105.743 3.0966 105.651 3.15703C105.559 3.21458 105.489 3.3009 105.44 3.41599C105.394 3.52821 105.376 3.66489 105.388 3.82602C105.376 3.96989 105.395 4.09794 105.444 4.21016C105.496 4.3195 105.571 4.40438 105.668 4.4648C105.769 4.52523 105.884 4.55544 106.014 4.55544C106.143 4.55544 106.252 4.52811 106.342 4.47344C106.434 4.41877 106.506 4.34539 106.557 4.25332L107.015 4.47775C106.969 4.58997 106.897 4.68924 106.799 4.77556C106.701 4.86189 106.585 4.9295 106.45 4.97842C106.317 5.02734 106.17 5.05179 106.009 5.05179ZM108.13 5L107.323 2.65205H107.918L108.51 4.43459L108.303 4.43028L108.933 2.65205H109.433L110.059 4.43028L109.852 4.43459L110.443 2.65205H111.039L110.232 5H109.727L109.088 3.13976H109.278L108.631 5H108.13ZM111.349 5V2.65205H111.88V3.17429L111.837 3.0966C111.891 2.92108 111.976 2.79879 112.091 2.72974C112.209 2.66068 112.35 2.62615 112.514 2.62615H112.652V3.12682H112.449C112.288 3.12682 112.159 3.17717 112.061 3.27788C111.963 3.37571 111.914 3.51383 111.914 3.69222V5H111.349ZM112.963 5V2.65205H113.529V5H112.963ZM112.963 2.38876V1.78451H113.529V2.38876H112.963ZM115.121 5.0259C114.856 5.0259 114.651 4.95396 114.504 4.81009C114.36 4.66334 114.288 4.45761 114.288 4.19289V3.15703H113.882V2.65205H113.925C114.041 2.65205 114.13 2.62183 114.193 2.56141C114.256 2.50098 114.288 2.41322 114.288 2.29813V2.11685H114.853V2.65205H115.393V3.15703H114.853V4.16268C114.853 4.24037 114.866 4.30655 114.892 4.36122C114.921 4.41589 114.964 4.45761 115.022 4.48639C115.082 4.51516 115.158 4.52955 115.251 4.52955C115.271 4.52955 115.294 4.52811 115.32 4.52523C115.348 4.52235 115.376 4.51948 115.402 4.5166V5C115.361 5.00575 115.315 5.01151 115.263 5.01726C115.212 5.02302 115.164 5.0259 115.121 5.0259ZM116.904 5.0259C116.639 5.0259 116.433 4.95396 116.287 4.81009C116.143 4.66334 116.071 4.45761 116.071 4.19289V3.15703H115.665V2.65205H115.708C115.823 2.65205 115.913 2.62183 115.976 2.56141C116.039 2.50098 116.071 2.41322 116.071 2.29813V2.11685H116.636V2.65205H117.176V3.15703H116.636V4.16268C116.636 4.24037 116.649 4.30655 116.675 4.36122C116.704 4.41589 116.747 4.45761 116.805 4.48639C116.865 4.51516 116.941 4.52955 117.033 4.52955C117.054 4.52955 117.077 4.52811 117.102 4.52523C117.131 4.52235 117.159 4.51948 117.184 4.5166V5C117.144 5.00575 117.098 5.01151 117.046 5.01726C116.995 5.02302 116.947 5.0259 116.904 5.0259ZM118.709 5.05179C118.467 5.05179 118.256 4.99712 118.074 4.88778C117.893 4.77844 117.752 4.63025 117.651 4.44322C117.551 4.25619 117.5 4.04902 117.5 3.82171C117.5 3.58576 117.551 3.37715 117.651 3.19587C117.755 3.01172 117.895 2.86641 118.07 2.75995C118.249 2.65348 118.447 2.60025 118.666 2.60025C118.85 2.60025 119.011 2.63047 119.149 2.69089C119.29 2.75132 119.41 2.83476 119.507 2.94122C119.605 3.04769 119.68 3.16998 119.732 3.30809C119.784 3.44333 119.81 3.59008 119.81 3.74833C119.81 3.78862 119.807 3.83034 119.801 3.8735C119.798 3.91666 119.791 3.95407 119.779 3.98572H117.967V3.55411H119.46L119.192 3.75697C119.218 3.62461 119.211 3.50663 119.171 3.40305C119.133 3.29946 119.07 3.21745 118.981 3.15703C118.895 3.0966 118.79 3.06639 118.666 3.06639C118.548 3.06639 118.443 3.0966 118.351 3.15703C118.259 3.21458 118.188 3.3009 118.139 3.41599C118.093 3.52821 118.076 3.66489 118.087 3.82602C118.076 3.96989 118.095 4.09794 118.144 4.21016C118.195 4.3195 118.27 4.40438 118.368 4.4648C118.469 4.52523 118.584 4.55544 118.713 4.55544C118.843 4.55544 118.952 4.52811 119.041 4.47344C119.133 4.41877 119.205 4.34539 119.257 4.25332L119.715 4.47775C119.669 4.58997 119.597 4.68924 119.499 4.77556C119.401 4.86189 119.284 4.9295 119.149 4.97842C119.017 5.02734 118.87 5.05179 118.709 5.05179ZM120.238 5V2.65205H120.769V3.11387L120.726 3.03186C120.781 2.89087 120.87 2.78441 120.993 2.71247C121.12 2.63766 121.267 2.60025 121.434 2.60025C121.606 2.60025 121.759 2.63766 121.891 2.71247C122.026 2.78728 122.131 2.89231 122.206 3.02755C122.281 3.15991 122.319 3.31385 122.319 3.48937V5H121.753V3.62317C121.753 3.51958 121.733 3.43038 121.693 3.35557C121.652 3.28076 121.596 3.22321 121.524 3.18293C121.455 3.13976 121.373 3.11818 121.278 3.11818C121.186 3.11818 121.104 3.13976 121.032 3.18293C120.96 3.22321 120.904 3.28076 120.864 3.35557C120.824 3.43038 120.804 3.51958 120.804 3.62317V5H120.238ZM125.195 5.05179C124.959 5.05179 124.739 5.01007 124.535 4.92663C124.331 4.84318 124.152 4.72665 124 4.57702C123.847 4.4274 123.728 4.25188 123.641 4.05046C123.558 3.84616 123.516 3.62604 123.516 3.3901C123.516 3.15127 123.558 2.93115 123.641 2.72974C123.725 2.52832 123.843 2.3528 123.995 2.20317C124.148 2.05355 124.326 1.93845 124.531 1.85789C124.735 1.77444 124.956 1.73272 125.195 1.73272C125.434 1.73272 125.656 1.77444 125.86 1.85789C126.064 1.94133 126.243 2.05786 126.395 2.20749C126.548 2.35424 126.666 2.52832 126.749 2.72974C126.835 2.93115 126.878 3.15127 126.878 3.3901C126.878 3.62604 126.835 3.84616 126.749 4.05046C126.663 4.25188 126.543 4.4274 126.391 4.57702C126.238 4.72665 126.06 4.84318 125.856 4.92663C125.654 5.01007 125.434 5.05179 125.195 5.05179ZM125.195 4.5166C125.353 4.5166 125.499 4.48926 125.631 4.43459C125.764 4.37704 125.879 4.29792 125.976 4.19721C126.077 4.0965 126.153 3.97709 126.205 3.83897C126.26 3.70086 126.287 3.55123 126.287 3.3901C126.287 3.22896 126.26 3.08078 126.205 2.94554C126.153 2.80743 126.077 2.68801 125.976 2.58731C125.879 2.48372 125.764 2.40459 125.631 2.34992C125.499 2.29525 125.353 2.26791 125.195 2.26791C125.04 2.26791 124.896 2.29525 124.764 2.34992C124.631 2.40459 124.515 2.48372 124.414 2.58731C124.316 2.68801 124.24 2.80743 124.185 2.94554C124.131 3.08078 124.103 3.22896 124.103 3.3901C124.103 3.55123 124.131 3.70086 124.185 3.83897C124.24 3.97709 124.316 4.0965 124.414 4.19721C124.515 4.29792 124.631 4.37704 124.764 4.43459C124.896 4.48926 125.04 4.5166 125.195 4.5166ZM125.938 5.38845L124.936 3.7138H125.549L126.563 5.38845H125.938ZM128.19 5.05179C128.009 5.05179 127.851 5.01151 127.716 4.93094C127.583 4.85038 127.481 4.73816 127.409 4.59429C127.34 4.45042 127.305 4.28209 127.305 4.0893V2.65205H127.871V4.04183C127.871 4.13966 127.89 4.22598 127.927 4.30079C127.967 4.37273 128.023 4.43028 128.095 4.47344C128.17 4.51372 128.254 4.53386 128.346 4.53386C128.438 4.53386 128.52 4.51372 128.592 4.47344C128.664 4.43028 128.72 4.37129 128.76 4.29648C128.8 4.22166 128.82 4.13247 128.82 4.02888V2.65205H129.386V5H128.851V4.53818L128.898 4.62018C128.843 4.76405 128.753 4.87196 128.626 4.94389C128.502 5.01583 128.357 5.05179 128.19 5.05179ZM131.025 5.05179C130.783 5.05179 130.572 4.99712 130.391 4.88778C130.209 4.77844 130.068 4.63025 129.968 4.44322C129.867 4.25619 129.816 4.04902 129.816 3.82171C129.816 3.58576 129.867 3.37715 129.968 3.19587C130.071 3.01172 130.211 2.86641 130.386 2.75995C130.565 2.65348 130.763 2.60025 130.982 2.60025C131.166 2.60025 131.327 2.63047 131.465 2.69089C131.606 2.75132 131.726 2.83476 131.823 2.94122C131.921 3.04769 131.996 3.16998 132.048 3.30809C132.1 3.44333 132.126 3.59008 132.126 3.74833C132.126 3.78862 132.123 3.83034 132.117 3.8735C132.114 3.91666 132.107 3.95407 132.095 3.98572H130.283V3.55411H131.776L131.508 3.75697C131.534 3.62461 131.527 3.50663 131.487 3.40305C131.449 3.29946 131.386 3.21745 131.297 3.15703C131.211 3.0966 131.106 3.06639 130.982 3.06639C130.864 3.06639 130.759 3.0966 130.667 3.15703C130.575 3.21458 130.504 3.3009 130.455 3.41599C130.409 3.52821 130.392 3.66489 130.403 3.82602C130.392 3.96989 130.411 4.09794 130.46 4.21016C130.511 4.3195 130.586 4.40438 130.684 4.4648C130.785 4.52523 130.9 4.55544 131.029 4.55544C131.159 4.55544 131.268 4.52811 131.357 4.47344C131.449 4.41877 131.521 4.34539 131.573 4.25332L132.031 4.47775C131.985 4.58997 131.913 4.68924 131.815 4.77556C131.717 4.86189 131.6 4.9295 131.465 4.97842C131.333 5.02734 131.186 5.05179 131.025 5.05179ZM132.554 5V2.65205H133.085V3.17429L133.042 3.0966C133.097 2.92108 133.181 2.79879 133.297 2.72974C133.415 2.66068 133.556 2.62615 133.72 2.62615H133.858V3.12682H133.655C133.494 3.12682 133.364 3.17717 133.266 3.27788C133.169 3.37571 133.12 3.51383 133.12 3.69222V5H132.554ZM134.453 5.94954C134.39 5.94954 134.328 5.94379 134.268 5.93228C134.207 5.92364 134.153 5.90638 134.104 5.88048V5.41003C134.141 5.41866 134.186 5.42729 134.238 5.43593C134.292 5.44456 134.343 5.44887 134.389 5.44887C134.518 5.44887 134.612 5.41866 134.669 5.35824C134.73 5.30069 134.783 5.223 134.829 5.12517L134.984 4.76261L134.976 5.23739L133.953 2.65205H134.561L135.278 4.55976H135.062L135.774 2.65205H136.387L135.364 5.23739C135.304 5.38701 135.23 5.51505 135.144 5.62152C135.058 5.72798 134.957 5.80855 134.842 5.86322C134.73 5.92077 134.6 5.94954 134.453 5.94954Z" fill="#130C49"/>
<path d="M159.21 5.17252V1.95703H160.406C160.624 1.95703 160.817 1.99731 160.984 2.07788C161.154 2.15557 161.286 2.27066 161.381 2.42317C161.476 2.57279 161.524 2.7555 161.524 2.97131C161.524 3.19287 161.47 3.38134 161.364 3.53672C161.26 3.6921 161.119 3.80719 160.941 3.882L161.679 5.17252H161.014L160.224 3.76115L160.604 3.98559H159.797V5.17252H159.21ZM159.797 3.46766H160.414C160.521 3.46766 160.613 3.44752 160.691 3.40723C160.768 3.36407 160.829 3.30509 160.872 3.23027C160.915 3.15546 160.937 3.06914 160.937 2.97131C160.937 2.8706 160.915 2.78428 160.872 2.71234C160.829 2.63753 160.768 2.57998 160.691 2.5397C160.613 2.49654 160.521 2.47496 160.414 2.47496H159.797V3.46766ZM162.999 5.22431C162.757 5.22431 162.546 5.16964 162.365 5.0603C162.183 4.95096 162.042 4.80277 161.942 4.61574C161.841 4.42871 161.791 4.22154 161.791 3.99422C161.791 3.75828 161.841 3.54967 161.942 3.36839C162.045 3.18424 162.185 3.03893 162.36 2.93246C162.539 2.826 162.737 2.77277 162.956 2.77277C163.14 2.77277 163.301 2.80298 163.439 2.86341C163.58 2.92383 163.7 3.00728 163.798 3.11374C163.895 3.2202 163.97 3.34249 164.022 3.48061C164.074 3.61585 164.1 3.76259 164.1 3.92085C164.1 3.96113 164.097 4.00286 164.091 4.04602C164.088 4.08918 164.081 4.12658 164.069 4.15823H162.257V3.72663H163.75L163.482 3.92948C163.508 3.79712 163.501 3.67915 163.461 3.57556C163.424 3.47198 163.36 3.38997 163.271 3.32954C163.185 3.26912 163.08 3.23891 162.956 3.23891C162.838 3.23891 162.733 3.26912 162.641 3.32954C162.549 3.38709 162.478 3.47341 162.429 3.58851C162.383 3.70073 162.366 3.8374 162.378 3.99854C162.366 4.14241 162.385 4.27045 162.434 4.38267C162.485 4.49201 162.56 4.5769 162.658 4.63732C162.759 4.69775 162.874 4.72796 163.003 4.72796C163.133 4.72796 163.242 4.70062 163.331 4.64595C163.424 4.59128 163.495 4.51791 163.547 4.42583L164.005 4.65027C163.959 4.76249 163.887 4.86176 163.789 4.94808C163.691 5.0344 163.575 5.10202 163.439 5.15094C163.307 5.19985 163.16 5.22431 162.999 5.22431ZM165.599 5.19841C165.334 5.19841 165.128 5.12648 164.981 4.98261C164.838 4.83586 164.766 4.63013 164.766 4.36541V3.32954H164.36V2.82456H164.403C164.518 2.82456 164.607 2.79435 164.671 2.73392C164.734 2.6735 164.766 2.58574 164.766 2.47064V2.28937H165.331V2.82456H165.871V3.32954H165.331V4.33519C165.331 4.41288 165.344 4.47906 165.37 4.53373C165.399 4.5884 165.442 4.63013 165.499 4.6589C165.56 4.68767 165.636 4.70206 165.728 4.70206C165.748 4.70206 165.771 4.70062 165.797 4.69775C165.826 4.69487 165.853 4.69199 165.879 4.68911V5.17252C165.839 5.17827 165.793 5.18403 165.741 5.18978C165.689 5.19554 165.642 5.19841 165.599 5.19841ZM166.311 5.17252V2.82456H166.842V3.34681L166.799 3.26912C166.854 3.0936 166.938 2.97131 167.054 2.90225C167.172 2.83319 167.313 2.79867 167.477 2.79867H167.615V3.29933H167.412C167.251 3.29933 167.121 3.34969 167.023 3.4504C166.926 3.54823 166.877 3.68634 166.877 3.86474V5.17252H166.311ZM167.926 5.17252V2.82456H168.491V5.17252H167.926ZM167.926 2.56128V1.95703H168.491V2.56128H167.926ZM170.127 5.22431C169.885 5.22431 169.673 5.16964 169.492 5.0603C169.311 4.95096 169.17 4.80277 169.069 4.61574C168.968 4.42871 168.918 4.22154 168.918 3.99422C168.918 3.75828 168.968 3.54967 169.069 3.36839C169.173 3.18424 169.312 3.03893 169.488 2.93246C169.666 2.826 169.865 2.77277 170.083 2.77277C170.268 2.77277 170.429 2.80298 170.567 2.86341C170.708 2.92383 170.827 3.00728 170.925 3.11374C171.023 3.2202 171.098 3.34249 171.149 3.48061C171.201 3.61585 171.227 3.76259 171.227 3.92085C171.227 3.96113 171.224 4.00286 171.219 4.04602C171.216 4.08918 171.208 4.12658 171.197 4.15823H169.384V3.72663H170.878L170.61 3.92948C170.636 3.79712 170.629 3.67915 170.588 3.57556C170.551 3.47198 170.488 3.38997 170.398 3.32954C170.312 3.26912 170.207 3.23891 170.083 3.23891C169.965 3.23891 169.86 3.26912 169.768 3.32954C169.676 3.38709 169.606 3.47341 169.557 3.58851C169.511 3.70073 169.494 3.8374 169.505 3.99854C169.494 4.14241 169.512 4.27045 169.561 4.38267C169.613 4.49201 169.688 4.5769 169.786 4.63732C169.886 4.69775 170.001 4.72796 170.131 4.72796C170.26 4.72796 170.37 4.70062 170.459 4.64595C170.551 4.59128 170.623 4.51791 170.675 4.42583L171.132 4.65027C171.086 4.76249 171.014 4.86176 170.916 4.94808C170.819 5.0344 170.702 5.10202 170.567 5.15094C170.434 5.19985 170.288 5.22431 170.127 5.22431ZM172.321 5.17252L171.398 2.82456H172.015L172.684 4.67185H172.455L173.129 2.82456H173.746L172.822 5.17252H172.321ZM175.13 5.22431C174.888 5.22431 174.676 5.16964 174.495 5.0603C174.314 4.95096 174.173 4.80277 174.072 4.61574C173.972 4.42871 173.921 4.22154 173.921 3.99422C173.921 3.75828 173.972 3.54967 174.072 3.36839C174.176 3.18424 174.315 3.03893 174.491 2.93246C174.669 2.826 174.868 2.77277 175.087 2.77277C175.271 2.77277 175.432 2.80298 175.57 2.86341C175.711 2.92383 175.83 3.00728 175.928 3.11374C176.026 3.2202 176.101 3.34249 176.153 3.48061C176.204 3.61585 176.23 3.76259 176.23 3.92085C176.23 3.96113 176.227 4.00286 176.222 4.04602C176.219 4.08918 176.212 4.12658 176.2 4.15823H174.387V3.72663H175.881L175.613 3.92948C175.639 3.79712 175.632 3.67915 175.591 3.57556C175.554 3.47198 175.491 3.38997 175.402 3.32954C175.315 3.26912 175.21 3.23891 175.087 3.23891C174.969 3.23891 174.864 3.26912 174.771 3.32954C174.679 3.38709 174.609 3.47341 174.56 3.58851C174.514 3.70073 174.497 3.8374 174.508 3.99854C174.497 4.14241 174.515 4.27045 174.564 4.38267C174.616 4.49201 174.691 4.5769 174.789 4.63732C174.889 4.69775 175.005 4.72796 175.134 4.72796C175.263 4.72796 175.373 4.70062 175.462 4.64595C175.554 4.59128 175.626 4.51791 175.678 4.42583L176.135 4.65027C176.089 4.76249 176.017 4.86176 175.92 4.94808C175.822 5.0344 175.705 5.10202 175.57 5.15094C175.438 5.19985 175.291 5.22431 175.13 5.22431ZM176.659 5.17252V2.82456H177.19V3.34681L177.147 3.26912C177.201 3.0936 177.286 2.97131 177.401 2.90225C177.519 2.83319 177.66 2.79867 177.824 2.79867H177.962V3.29933H177.759C177.598 3.29933 177.469 3.34969 177.371 3.4504C177.273 3.54823 177.224 3.68634 177.224 3.86474V5.17252H176.659Z" fill="#130C49"/>
<path d="M194.259 5V1.78451H195.455C195.674 1.78451 195.867 1.8248 196.033 1.90536C196.203 1.98305 196.336 2.09815 196.43 2.25065C196.525 2.40027 196.573 2.58299 196.573 2.79879C196.573 3.02035 196.52 3.20882 196.413 3.3642C196.31 3.51958 196.169 3.63468 195.99 3.70949L196.728 5H196.064L195.274 3.58864L195.654 3.81307H194.846V5H194.259ZM194.846 3.29514H195.464C195.57 3.29514 195.662 3.275 195.74 3.23472C195.818 3.19156 195.878 3.13257 195.921 3.05776C195.964 2.98295 195.986 2.89662 195.986 2.79879C195.986 2.69808 195.964 2.61176 195.921 2.53983C195.878 2.46502 195.818 2.40747 195.74 2.36718C195.662 2.32402 195.57 2.30244 195.464 2.30244H194.846V3.29514ZM198.048 5.05179C197.807 5.05179 197.595 4.99712 197.414 4.88778C197.233 4.77844 197.092 4.63025 196.991 4.44322C196.89 4.25619 196.84 4.04902 196.84 3.82171C196.84 3.58576 196.89 3.37715 196.991 3.19587C197.095 3.01172 197.234 2.86641 197.41 2.75995C197.588 2.65348 197.787 2.60025 198.005 2.60025C198.189 2.60025 198.351 2.63047 198.489 2.69089C198.63 2.75132 198.749 2.83476 198.847 2.94122C198.945 3.04769 199.02 3.16998 199.071 3.30809C199.123 3.44333 199.149 3.59008 199.149 3.74833C199.149 3.78862 199.146 3.83034 199.14 3.8735C199.138 3.91666 199.13 3.95407 199.119 3.98572H197.306V3.55411H198.799L198.532 3.75697C198.558 3.62461 198.551 3.50663 198.51 3.40305C198.473 3.29946 198.41 3.21745 198.32 3.15703C198.234 3.0966 198.129 3.06639 198.005 3.06639C197.887 3.06639 197.782 3.0966 197.69 3.15703C197.598 3.21458 197.528 3.3009 197.479 3.41599C197.433 3.52821 197.415 3.66489 197.427 3.82602C197.415 3.96989 197.434 4.09794 197.483 4.21016C197.535 4.3195 197.61 4.40438 197.707 4.4648C197.808 4.52523 197.923 4.55544 198.053 4.55544C198.182 4.55544 198.292 4.52811 198.381 4.47344C198.473 4.41877 198.545 4.34539 198.597 4.25332L199.054 4.47775C199.008 4.58997 198.936 4.68924 198.838 4.77556C198.74 4.86189 198.624 4.9295 198.489 4.97842C198.356 5.02734 198.21 5.05179 198.048 5.05179ZM200.648 5.0259C200.383 5.0259 200.178 4.95396 200.031 4.81009C199.887 4.66334 199.815 4.45761 199.815 4.19289V3.15703H199.409V2.65205H199.452C199.568 2.65205 199.657 2.62183 199.72 2.56141C199.783 2.50098 199.815 2.41322 199.815 2.29813V2.11685H200.38V2.65205H200.92V3.15703H200.38V4.16268C200.38 4.24037 200.393 4.30655 200.419 4.36122C200.448 4.41589 200.491 4.45761 200.549 4.48639C200.609 4.51516 200.685 4.52955 200.777 4.52955C200.798 4.52955 200.821 4.52811 200.847 4.52523C200.875 4.52235 200.903 4.51948 200.929 4.5166V5C200.888 5.00575 200.842 5.01151 200.79 5.01726C200.739 5.02302 200.691 5.0259 200.648 5.0259ZM201.361 5V2.65205H201.891V3.17429L201.848 3.0966C201.903 2.92108 201.988 2.79879 202.103 2.72974C202.221 2.66068 202.362 2.62615 202.526 2.62615H202.664V3.12682H202.461C202.3 3.12682 202.171 3.17717 202.073 3.27788C201.975 3.37571 201.926 3.51383 201.926 3.69222V5H201.361ZM202.975 5V2.65205H203.54V5H202.975ZM202.975 2.38876V1.78451H203.54V2.38876H202.975ZM205.176 5.05179C204.934 5.05179 204.723 4.99712 204.541 4.88778C204.36 4.77844 204.219 4.63025 204.118 4.44322C204.018 4.25619 203.967 4.04902 203.967 3.82171C203.967 3.58576 204.018 3.37715 204.118 3.19587C204.222 3.01172 204.362 2.86641 204.537 2.75995C204.715 2.65348 204.914 2.60025 205.133 2.60025C205.317 2.60025 205.478 2.63047 205.616 2.69089C205.757 2.75132 205.877 2.83476 205.974 2.94122C206.072 3.04769 206.147 3.16998 206.199 3.30809C206.251 3.44333 206.276 3.59008 206.276 3.74833C206.276 3.78862 206.274 3.83034 206.268 3.8735C206.265 3.91666 206.258 3.95407 206.246 3.98572H204.433V3.55411H205.927L205.659 3.75697C205.685 3.62461 205.678 3.50663 205.638 3.40305C205.6 3.29946 205.537 3.21745 205.448 3.15703C205.361 3.0966 205.256 3.06639 205.133 3.06639C205.015 3.06639 204.91 3.0966 204.818 3.15703C204.726 3.21458 204.655 3.3009 204.606 3.41599C204.56 3.52821 204.543 3.66489 204.554 3.82602C204.543 3.96989 204.562 4.09794 204.61 4.21016C204.662 4.3195 204.737 4.40438 204.835 4.4648C204.936 4.52523 205.051 4.55544 205.18 4.55544C205.31 4.55544 205.419 4.52811 205.508 4.47344C205.6 4.41877 205.672 4.34539 205.724 4.25332L206.182 4.47775C206.135 4.58997 206.064 4.68924 205.966 4.77556C205.868 4.86189 205.751 4.9295 205.616 4.97842C205.484 5.02734 205.337 5.05179 205.176 5.05179ZM207.371 5L206.447 2.65205H207.064L207.733 4.49933H207.505L208.178 2.65205H208.795L207.871 5H207.371ZM210.179 5.05179C209.937 5.05179 209.726 4.99712 209.545 4.88778C209.363 4.77844 209.222 4.63025 209.122 4.44322C209.021 4.25619 208.97 4.04902 208.97 3.82171C208.97 3.58576 209.021 3.37715 209.122 3.19587C209.225 3.01172 209.365 2.86641 209.54 2.75995C209.719 2.65348 209.917 2.60025 210.136 2.60025C210.32 2.60025 210.481 2.63047 210.619 2.69089C210.76 2.75132 210.88 2.83476 210.977 2.94122C211.075 3.04769 211.15 3.16998 211.202 3.30809C211.254 3.44333 211.28 3.59008 211.28 3.74833C211.28 3.78862 211.277 3.83034 211.271 3.8735C211.268 3.91666 211.261 3.95407 211.249 3.98572H209.437V3.55411H210.93L210.662 3.75697C210.688 3.62461 210.681 3.50663 210.641 3.40305C210.603 3.29946 210.54 3.21745 210.451 3.15703C210.365 3.0966 210.26 3.06639 210.136 3.06639C210.018 3.06639 209.913 3.0966 209.821 3.15703C209.729 3.21458 209.658 3.3009 209.609 3.41599C209.563 3.52821 209.546 3.66489 209.557 3.82602C209.546 3.96989 209.565 4.09794 209.614 4.21016C209.665 4.3195 209.74 4.40438 209.838 4.4648C209.939 4.52523 210.054 4.55544 210.183 4.55544C210.313 4.55544 210.422 4.52811 210.511 4.47344C210.603 4.41877 210.675 4.34539 210.727 4.25332L211.185 4.47775C211.139 4.58997 211.067 4.68924 210.969 4.77556C210.871 4.86189 210.754 4.9295 210.619 4.97842C210.487 5.02734 210.34 5.05179 210.179 5.05179ZM212.8 5.05179C212.573 5.05179 212.37 4.99856 212.192 4.8921C212.013 4.78276 211.872 4.63457 211.769 4.44754C211.665 4.26051 211.613 4.05334 211.613 3.82602C211.613 3.59583 211.665 3.38866 211.769 3.20451C211.872 3.02035 212.013 2.87361 212.192 2.76426C212.373 2.65492 212.574 2.60025 212.796 2.60025C212.974 2.60025 213.133 2.63622 213.271 2.70816C213.412 2.77721 213.522 2.87504 213.603 3.00165L213.517 3.11818V1.73272H214.082V5H213.547V4.54681L213.607 4.65903C213.527 4.78563 213.414 4.88347 213.271 4.95252C213.127 5.0187 212.97 5.05179 212.8 5.05179ZM212.861 4.53386C212.99 4.53386 213.104 4.50365 213.202 4.44322C213.299 4.3828 213.376 4.29935 213.43 4.19289C213.488 4.08643 213.517 3.96414 213.517 3.82602C213.517 3.69079 213.488 3.56994 213.43 3.46347C213.376 3.35413 213.299 3.26925 213.202 3.20882C213.104 3.1484 212.99 3.11818 212.861 3.11818C212.734 3.11818 212.62 3.14984 212.52 3.21314C212.419 3.27356 212.34 3.35701 212.282 3.46347C212.228 3.56706 212.2 3.68791 212.2 3.82602C212.2 3.96414 212.228 4.08643 212.282 4.19289C212.34 4.29935 212.419 4.3828 212.52 4.44322C212.62 4.50365 212.734 4.53386 212.861 4.53386ZM215.423 5V1.78451H216.471C216.811 1.78451 217.106 1.85357 217.356 1.99168C217.609 2.12692 217.805 2.31539 217.943 2.55709C218.081 2.79592 218.15 3.07358 218.15 3.3901C218.15 3.70373 218.081 3.98284 217.943 4.22742C217.805 4.46912 217.609 4.65903 217.356 4.79714C217.106 4.93238 216.811 5 216.471 5H215.423ZM216.01 4.48207H216.484C216.703 4.48207 216.892 4.43747 217.05 4.34827C217.211 4.25619 217.336 4.12959 217.425 3.96845C217.515 3.80444 217.559 3.61166 217.559 3.3901C217.559 3.16566 217.515 2.97288 217.425 2.81174C217.336 2.65061 217.211 2.52544 217.05 2.43624C216.892 2.34704 216.703 2.30244 216.484 2.30244H216.01V4.48207ZM219.718 5.05179C219.488 5.05179 219.278 4.99856 219.088 4.8921C218.901 4.78563 218.751 4.64033 218.639 4.45617C218.53 4.27202 218.475 4.06197 218.475 3.82602C218.475 3.59008 218.53 3.38003 218.639 3.19587C218.751 3.01172 218.901 2.86641 219.088 2.75995C219.275 2.65348 219.485 2.60025 219.718 2.60025C219.948 2.60025 220.157 2.65348 220.344 2.75995C220.531 2.86641 220.679 3.01172 220.789 3.19587C220.901 3.37715 220.957 3.5872 220.957 3.82602C220.957 4.06197 220.901 4.27202 220.789 4.45617C220.676 4.64033 220.527 4.78563 220.34 4.8921C220.153 4.99856 219.946 5.05179 219.718 5.05179ZM219.718 4.53386C219.845 4.53386 219.956 4.50365 220.051 4.44322C220.148 4.3828 220.225 4.29935 220.279 4.19289C220.337 4.08355 220.366 3.96126 220.366 3.82602C220.366 3.68791 220.337 3.56706 220.279 3.46347C220.225 3.35701 220.148 3.27356 220.051 3.21314C219.956 3.14984 219.845 3.11818 219.718 3.11818C219.589 3.11818 219.475 3.14984 219.377 3.21314C219.279 3.27356 219.202 3.35701 219.144 3.46347C219.089 3.56706 219.062 3.68791 219.062 3.82602C219.062 3.96126 219.089 4.08355 219.144 4.19289C219.202 4.29935 219.279 4.3828 219.377 4.44322C219.475 4.50365 219.589 4.53386 219.718 4.53386ZM222.516 5.05179C222.283 5.05179 222.073 4.99856 221.886 4.8921C221.702 4.78276 221.557 4.63601 221.45 4.45186C221.344 4.26483 221.291 4.05478 221.291 3.82171C221.291 3.58864 221.344 3.38003 221.45 3.19587C221.557 3.01172 221.702 2.86641 221.886 2.75995C222.073 2.65348 222.283 2.60025 222.516 2.60025C222.683 2.60025 222.839 2.63047 222.983 2.69089C223.127 2.74844 223.25 2.82901 223.354 2.93259C223.46 3.0333 223.537 3.15415 223.583 3.29514L223.086 3.51095C223.043 3.39298 222.97 3.29802 222.866 3.22609C222.765 3.15415 222.649 3.11818 222.516 3.11818C222.393 3.11818 222.282 3.1484 222.184 3.20882C222.089 3.26925 222.014 3.35269 221.96 3.45916C221.905 3.56562 221.878 3.68791 221.878 3.82602C221.878 3.96414 221.905 4.08643 221.96 4.19289C222.014 4.29935 222.089 4.3828 222.184 4.44322C222.282 4.50365 222.393 4.53386 222.516 4.53386C222.652 4.53386 222.77 4.49789 222.87 4.42596C222.971 4.35403 223.043 4.25763 223.086 4.13678L223.583 4.36122C223.537 4.49358 223.462 4.61299 223.358 4.71945C223.255 4.82304 223.131 4.90505 222.987 4.96547C222.843 5.02302 222.686 5.05179 222.516 5.05179ZM224.849 5.05179C224.668 5.05179 224.509 5.01151 224.374 4.93094C224.242 4.85038 224.14 4.73816 224.068 4.59429C223.999 4.45042 223.964 4.28209 223.964 4.0893V2.65205H224.53V4.04183C224.53 4.13966 224.548 4.22598 224.586 4.30079C224.626 4.37273 224.682 4.43028 224.754 4.47344C224.829 4.51372 224.912 4.53386 225.004 4.53386C225.096 4.53386 225.178 4.51372 225.25 4.47344C225.322 4.43028 225.378 4.37129 225.419 4.29648C225.459 4.22166 225.479 4.13247 225.479 4.02888V2.65205H226.044V5H225.509V4.53818L225.557 4.62018C225.502 4.76405 225.411 4.87196 225.285 4.94389C225.161 5.01583 225.016 5.05179 224.849 5.05179ZM226.57 5V2.65205H227.101V3.19587L227.041 3.10524C227.084 2.93547 227.17 2.80886 227.299 2.72542C227.429 2.64198 227.581 2.60025 227.757 2.60025C227.95 2.60025 228.12 2.65061 228.266 2.75132C228.413 2.85203 228.508 2.98439 228.551 3.1484L228.391 3.16135C228.463 2.97431 228.571 2.83476 228.715 2.74268C228.859 2.64773 229.024 2.60025 229.211 2.60025C229.378 2.60025 229.527 2.63766 229.656 2.71247C229.788 2.78728 229.892 2.89231 229.967 3.02755C230.042 3.15991 230.079 3.31385 230.079 3.48937V5H229.514V3.62317C229.514 3.51958 229.495 3.43038 229.458 3.35557C229.42 3.28076 229.368 3.22321 229.302 3.18293C229.236 3.13976 229.155 3.11818 229.06 3.11818C228.971 3.11818 228.892 3.13976 228.823 3.18293C228.754 3.22321 228.701 3.28076 228.663 3.35557C228.626 3.43038 228.607 3.51958 228.607 3.62317V5H228.042V3.62317C228.042 3.51958 228.023 3.43038 227.986 3.35557C227.948 3.28076 227.895 3.22321 227.826 3.18293C227.76 3.13976 227.681 3.11818 227.589 3.11818C227.499 3.11818 227.42 3.13976 227.351 3.18293C227.282 3.22321 227.229 3.28076 227.192 3.35557C227.154 3.43038 227.135 3.51958 227.135 3.62317V5H226.57ZM231.671 5.05179C231.429 5.05179 231.218 4.99712 231.036 4.88778C230.855 4.77844 230.714 4.63025 230.613 4.44322C230.513 4.25619 230.462 4.04902 230.462 3.82171C230.462 3.58576 230.513 3.37715 230.613 3.19587C230.717 3.01172 230.857 2.86641 231.032 2.75995C231.211 2.65348 231.409 2.60025 231.628 2.60025C231.812 2.60025 231.973 2.63047 232.111 2.69089C232.252 2.75132 232.372 2.83476 232.469 2.94122C232.567 3.04769 232.642 3.16998 232.694 3.30809C232.746 3.44333 232.772 3.59008 232.772 3.74833C232.772 3.78862 232.769 3.83034 232.763 3.8735C232.76 3.91666 232.753 3.95407 232.741 3.98572H230.929V3.55411H232.422L232.154 3.75697C232.18 3.62461 232.173 3.50663 232.133 3.40305C232.095 3.29946 232.032 3.21745 231.943 3.15703C231.857 3.0966 231.751 3.06639 231.628 3.06639C231.51 3.06639 231.405 3.0966 231.313 3.15703C231.221 3.21458 231.15 3.3009 231.101 3.41599C231.055 3.52821 231.038 3.66489 231.049 3.82602C231.038 3.96989 231.057 4.09794 231.106 4.21016C231.157 4.3195 231.232 4.40438 231.33 4.4648C231.431 4.52523 231.546 4.55544 231.675 4.55544C231.805 4.55544 231.914 4.52811 232.003 4.47344C232.095 4.41877 232.167 4.34539 232.219 4.25332L232.677 4.47775C232.631 4.58997 232.559 4.68924 232.461 4.77556C232.363 4.86189 232.246 4.9295 232.111 4.97842C231.979 5.02734 231.832 5.05179 231.671 5.05179ZM233.2 5V2.65205H233.731V3.11387L233.688 3.03186C233.743 2.89087 233.832 2.78441 233.955 2.71247C234.082 2.63766 234.229 2.60025 234.396 2.60025C234.568 2.60025 234.721 2.63766 234.853 2.71247C234.988 2.78728 235.093 2.89231 235.168 3.02755C235.243 3.15991 235.28 3.31385 235.28 3.48937V5H234.715V3.62317C234.715 3.51958 234.695 3.43038 234.655 3.35557C234.614 3.28076 234.558 3.22321 234.486 3.18293C234.417 3.13976 234.335 3.11818 234.24 3.11818C234.148 3.11818 234.066 3.13976 233.994 3.18293C233.922 3.22321 233.866 3.28076 233.826 3.35557C233.786 3.43038 233.766 3.51958 233.766 3.62317V5H233.2ZM236.829 5.0259C236.564 5.0259 236.359 4.95396 236.212 4.81009C236.068 4.66334 235.996 4.45761 235.996 4.19289V3.15703H235.59V2.65205H235.633C235.749 2.65205 235.838 2.62183 235.901 2.56141C235.964 2.50098 235.996 2.41322 235.996 2.29813V2.11685H236.561V2.65205H237.101V3.15703H236.561V4.16268C236.561 4.24037 236.574 4.30655 236.6 4.36122C236.629 4.41589 236.672 4.45761 236.73 4.48639C236.79 4.51516 236.866 4.52955 236.958 4.52955C236.979 4.52955 237.002 4.52811 237.028 4.52523C237.056 4.52235 237.084 4.51948 237.11 4.5166V5C237.069 5.00575 237.023 5.01151 236.971 5.01726C236.92 5.02302 236.872 5.0259 236.829 5.0259ZM238.435 5.05179C238.185 5.05179 237.966 4.99281 237.779 4.87483C237.595 4.75398 237.468 4.59141 237.399 4.38712L237.822 4.18426C237.882 4.31662 237.966 4.42021 238.072 4.49502C238.182 4.56983 238.303 4.60724 238.435 4.60724C238.539 4.60724 238.621 4.58422 238.681 4.53818C238.741 4.49214 238.772 4.43171 238.772 4.3569C238.772 4.31086 238.759 4.27346 238.733 4.24468C238.71 4.21303 238.677 4.18714 238.633 4.16699C238.593 4.14398 238.549 4.12527 238.5 4.11089L238.116 4.00298C237.917 3.94544 237.766 3.85767 237.662 3.7397C237.562 3.62173 237.511 3.48217 237.511 3.32104C237.511 3.17717 237.547 3.052 237.619 2.94554C237.694 2.8362 237.796 2.75132 237.926 2.69089C238.058 2.63047 238.209 2.60025 238.379 2.60025C238.6 2.60025 238.796 2.65348 238.966 2.75995C239.136 2.86641 239.256 3.01604 239.328 3.20882L238.897 3.41168C238.856 3.30521 238.789 3.22033 238.694 3.15703C238.599 3.09373 238.493 3.06207 238.375 3.06207C238.28 3.06207 238.205 3.08366 238.15 3.12682C238.095 3.16998 238.068 3.22609 238.068 3.29514C238.068 3.3383 238.08 3.37571 238.103 3.40736C238.126 3.43901 238.157 3.46491 238.198 3.48505C238.241 3.50519 238.29 3.5239 238.344 3.54116L238.72 3.65338C238.913 3.71093 239.061 3.79725 239.164 3.91235C239.271 4.02744 239.324 4.16843 239.324 4.33532C239.324 4.47631 239.287 4.60148 239.212 4.71082C239.137 4.81729 239.033 4.90073 238.901 4.96116C238.769 5.02158 238.613 5.05179 238.435 5.05179Z" fill="#130C49"/>
</svg>
