<svg width="17" height="17" viewBox="0 0 17 17" fill="none" xmlns="http://www.w3.org/2000/svg">
<g clip-path="url(#clip0_4239_232)">
<path d="M15.4062 8.5C15.4062 6.66835 14.6786 4.91172 13.3835 3.61654C12.0883 2.32137 10.3317 1.59375 8.5 1.59375C6.66835 1.59375 4.91172 2.32137 3.61654 3.61654C2.32137 4.91172 1.59375 6.66835 1.59375 8.5C1.59375 10.3317 2.32137 12.0883 3.61654 13.3835C4.91172 14.6786 6.66835 15.4062 8.5 15.4062C10.3317 15.4062 12.0883 14.6786 13.3835 13.3835C14.6786 12.0883 15.4062 10.3317 15.4062 8.5ZM0 8.5C0 6.24566 0.895533 4.08365 2.48959 2.48959C4.08365 0.895533 6.24566 0 8.5 0C10.7543 0 12.9163 0.895533 14.5104 2.48959C16.1045 4.08365 17 6.24566 17 8.5C17 10.7543 16.1045 12.9163 14.5104 14.5104C12.9163 16.1045 10.7543 17 8.5 17C6.24566 17 4.08365 16.1045 2.48959 14.5104C0.895533 12.9163 0 10.7543 0 8.5ZM5.63789 5.48848C5.9002 4.74805 6.6041 4.25 7.39102 4.25H9.32676C10.4855 4.25 11.4219 5.18965 11.4219 6.34512C11.4219 7.09551 11.0201 7.78945 10.3693 8.16465L9.29688 8.77891C9.29023 9.21055 8.93496 9.5625 8.5 9.5625C8.0584 9.5625 7.70312 9.20723 7.70312 8.76562V8.31738C7.70312 8.03184 7.85586 7.76953 8.10488 7.62676L9.57578 6.7834C9.73184 6.69375 9.82812 6.52773 9.82812 6.34844C9.82812 6.06953 9.60234 5.84707 9.32676 5.84707H7.39102C7.27813 5.84707 7.17852 5.9168 7.14199 6.02305L7.12871 6.06289C6.98262 6.47793 6.52441 6.69375 6.1127 6.54766C5.70098 6.40156 5.48184 5.94336 5.62793 5.53164L5.64121 5.4918L5.63789 5.48848ZM7.4375 11.6875C7.4375 11.4057 7.54944 11.1355 7.7487 10.9362C7.94796 10.7369 8.21821 10.625 8.5 10.625C8.78179 10.625 9.05204 10.7369 9.2513 10.9362C9.45056 11.1355 9.5625 11.4057 9.5625 11.6875C9.5625 11.9693 9.45056 12.2395 9.2513 12.4388C9.05204 12.6381 8.78179 12.75 8.5 12.75C8.21821 12.75 7.94796 12.6381 7.7487 12.4388C7.54944 12.2395 7.4375 11.9693 7.4375 11.6875Z" fill="#61BD73"/>
</g>
<defs>
<clipPath id="clip0_4239_232">
<rect width="17" height="17" fill="white"/>
</clipPath>
</defs>
</svg>
