<svg width="1450" height="329" viewBox="0 0 1450 329" fill="none" xmlns="http://www.w3.org/2000/svg">
<g clip-path="url(#clip0_5111_936)">
<rect width="1450" height="329" fill="#EDEDED"/>
<path d="M-86.2373 96.9679C-85.7696 86.6306 -83.2968 86.3654 -83.8756 81.0671C-85.4247 66.905 -103.348 66.4217 -110.427 49.1713C-110.685 48.5466 -116.314 34.2784 -110.065 22.3086C-105.049 12.7081 -97.6659 14.6883 -92.2585 5.15254C-85.5182 -6.74061 -94.1467 -14.8678 -87.6461 -24.5862C-82.6245 -32.0887 -75.4517 -30.2794 -59.7732 -38.1119C-50.4082 -42.7913 -44.7085 -47.5592 -35.2908 -55.4389C-29.2521 -60.4896 -9.25932 -77.8932 7.90406 -107.449C19.8705 -128.053 14.6736 -135.585 27.739 -153.967C34.7833 -163.88 42.3769 -174.229 55.0156 -175.797C65.8071 -177.134 77.7794 -171.765 84.0871 -162.896C92.6044 -150.92 84.0753 -142.027 92.0724 -128.878C97.6084 -119.767 106.629 -115.93 123.839 -108.599C137.325 -102.858 145.433 -101.385 151.566 -99.3869C183.998 -88.8375 200.916 -50.7888 207.744 -35.4421C222.347 -2.59743 220.64 25.9331 219.418 46.3307C217.974 70.4352 216.741 91.0744 201.957 106.409C191.686 117.071 185.401 114.242 174.733 127.208C160.983 143.922 165.473 155.844 152.255 165.315C141.072 173.33 126.791 172.723 122.658 172.547C105.863 171.833 99.6954 163.494 91.1137 167.79C84.654 171.02 82.2865 178.67 79.2817 188.365C74.7103 203.122 76.9317 210.053 75.2072 217.614C70.1447 239.809 32.4157 261.727 -2.01632 253.365C-22.3891 248.42 -42.8904 232.554 -48.1166 212.693C-50.4549 203.8 -49.7008 194.235 -48.2978 176.501C-46.509 153.84 -43.1067 151.577 -46.1641 145.083C-53.4948 129.5 -76.4748 135.27 -83.747 118.297C-86.8687 111.006 -86.4244 101.105 -86.2373 96.9738L-86.2373 96.9679Z" fill="white" fill-opacity="0.5"/>
<path d="M-54.9984 281.582L-54.4431 281.529C-54.3437 282.56 -54.1215 283.515 -53.7766 284.452L-54.2969 284.647C-54.6594 283.662 -54.8873 282.66 -54.9926 281.582L-54.9984 281.582ZM-54.519 276.596C-54.2209 275.677 -53.7942 274.745 -53.2037 273.749L-52.7244 274.038C-53.2914 274.993 -53.7065 275.889 -53.9871 276.767L-54.5132 276.596L-54.519 276.596ZM-51.7598 288.937L-51.3272 288.589C-50.7777 289.279 -50.2048 289.939 -49.5969 290.634L-49.3455 290.923L-49.7605 291.295L-50.0119 291.006C-50.5965 290.334 -51.2045 289.644 -51.7598 288.943L-51.7598 288.937ZM-50.3685 269.695L-50.1873 269.459C-49.667 268.764 -49.1116 268.033 -48.5271 267.231L-48.0769 267.561C-48.6615 268.363 -49.2169 269.099 -49.7372 269.795L-49.9184 270.031L-50.3627 269.695L-50.3685 269.695ZM-48.2231 320.244C-48.2231 319.413 -48.1588 318.617 -48.0243 317.815L-47.4748 317.91C-47.6385 318.894 -47.697 319.86 -47.6502 320.927L-48.2055 320.951C-48.2172 320.709 -48.2231 320.479 -48.2231 320.249L-48.2231 320.244ZM-47.3345 325.866L-46.8026 325.701C-46.5103 326.65 -46.1361 327.605 -45.6977 328.536L-46.2004 328.777C-46.6506 327.823 -47.0305 326.844 -47.3345 325.872L-47.3345 325.866ZM-46.7616 295.137L-46.294 294.837C-45.7094 295.756 -45.2359 296.658 -44.85 297.606L-45.3645 297.819C-45.7386 296.905 -46.1946 296.027 -46.7616 295.137ZM-46.5044 313.071C-46.3992 312.829 -46.294 312.594 -46.1887 312.352C-45.8906 311.668 -45.5808 310.967 -45.3002 310.242L-44.7799 310.443C-45.0605 311.173 -45.3762 311.887 -45.6743 312.576C-45.7795 312.812 -45.8848 313.053 -45.9841 313.289L-46.4927 313.065L-46.5044 313.071ZM-45.7503 263.194C-45.2008 262.34 -44.663 261.461 -44.1485 260.577L-43.6692 260.86C-44.1894 261.744 -44.7331 262.634 -45.2826 263.495L-45.7503 263.188L-45.7503 263.194ZM-44.2304 302.51L-43.675 302.451L-43.675 302.522C-43.564 303.583 -43.5523 304.608 -43.6283 305.586L-44.1836 305.539C-44.1076 304.596 -44.1193 303.606 -44.2187 302.575L-44.2187 302.51L-44.2304 302.51ZM-43.6458 333.044L-43.1957 332.714C-42.6111 333.516 -41.9622 334.311 -41.2724 335.083L-41.6874 335.461C-42.3889 334.677 -43.0495 333.863 -43.6458 333.05L-43.6458 333.044ZM-41.8102 256.263C-41.3484 255.344 -40.9099 254.407 -40.5007 253.488L-39.9922 253.717C-40.4072 254.643 -40.8515 255.586 -41.3133 256.511L-41.8102 256.257L-41.8102 256.263ZM-38.671 248.932C-38.3378 248.007 -38.0163 247.052 -37.683 246.02L-37.1569 246.191C-37.4901 247.229 -37.8116 248.189 -38.1507 249.12L-38.671 248.932ZM-38.6242 138.911C-38.6184 137.886 -38.6067 136.855 -38.5891 135.823L-38.0338 135.835C-38.0572 136.866 -38.063 137.892 -38.0689 138.917L-38.6242 138.917L-38.6242 138.911ZM-38.5014 143.862L-37.9461 143.827C-37.876 144.87 -37.7824 145.895 -37.6596 146.879L-38.2092 146.95C-38.3319 145.954 -38.4313 144.917 -38.5014 143.868L-38.5014 143.862ZM-38.3728 130.867C-38.291 129.771 -38.1916 128.757 -38.063 127.778L-37.5135 127.849C-37.6421 128.816 -37.7415 129.818 -37.8175 130.908L-38.3728 130.867ZM-38.1215 338.902L-37.7649 338.472C-36.4087 339.61 -35.4382 340.234 -35.333 340.305L-35.6311 340.777C-35.7422 340.706 -36.736 340.058 -38.1156 338.902L-38.1215 338.902ZM-37.3381 151.824L-36.8003 151.694C-36.5723 152.661 -36.3093 153.628 -35.9994 154.653L-36.5314 154.818C-36.8471 153.787 -37.1101 152.808 -37.3381 151.83L-37.3381 151.824ZM-37.1218 122.893C-36.8471 121.861 -36.5256 120.865 -36.1631 119.928L-35.6428 120.135C-35.9994 121.048 -36.3151 122.026 -36.584 123.04L-37.1218 122.893ZM-36.2742 241.3C-36.0053 240.345 -35.7364 239.361 -35.4558 238.329L-34.918 238.477C-35.1986 239.508 -35.4675 240.498 -35.7364 241.453L-36.2683 241.3L-36.2742 241.3ZM-34.9413 159.492L-34.4211 159.297L-34.1346 160.081C-33.8832 160.776 -33.626 161.478 -33.3747 162.197L-33.9008 162.385C-34.1521 161.666 -34.4094 160.965 -34.6607 160.27L-34.9472 159.486L-34.9413 159.492ZM-34.1931 233.561C-33.9417 232.583 -33.6962 231.575 -33.4682 230.568L-32.9245 230.691C-33.1584 231.699 -33.4039 232.713 -33.6553 233.697L-34.1931 233.556L-34.1931 233.561ZM-33.8832 115.502C-33.3103 114.636 -32.6673 113.811 -31.9717 113.045L-31.5624 113.422C-32.2347 114.17 -32.8602 114.972 -33.4214 115.815L-33.8832 115.502ZM-32.4452 225.747C-32.2523 224.757 -32.0652 223.737 -31.8898 222.717L-31.3403 222.812C-31.5157 223.831 -31.7027 224.857 -31.8957 225.853L-32.4393 225.747L-32.4452 225.747ZM-32.3809 167.059L-31.8489 166.9C-31.5566 167.908 -31.2994 168.886 -31.0655 169.894L-31.6034 170.023C-31.8372 169.027 -32.0886 168.055 -32.3809 167.059ZM-31.2117 343.004L-31.0129 342.48C-30.0893 342.833 -29.1189 343.14 -28.1251 343.387L-28.2596 343.93C-29.2709 343.676 -30.2647 343.364 -31.2117 343.004ZM-31.124 217.843C-30.9837 216.83 -30.8434 215.804 -30.7206 214.791L-30.1711 214.861C-30.2939 215.881 -30.4342 216.912 -30.5745 217.926L-31.124 217.849L-31.124 217.843ZM-30.6739 174.844L-30.1244 174.756C-29.9724 175.752 -29.8379 176.783 -29.721 177.826L-30.2705 177.885C-30.3816 176.854 -30.516 175.828 -30.668 174.838L-30.6739 174.844ZM-30.1945 209.881C-30.101 208.873 -30.0133 207.836 -29.9373 206.811L-29.3819 206.852C-29.4579 207.883 -29.5456 208.921 -29.6392 209.934L-30.1945 209.881ZM-29.8613 182.795L-29.306 182.759C-29.2358 183.785 -29.1774 184.822 -29.1247 185.847L-29.6801 185.877C-29.7327 184.857 -29.7912 183.826 -29.8613 182.8L-29.8613 182.795ZM-29.645 201.89C-29.5982 200.864 -29.5632 199.827 -29.5339 198.807L-28.9786 198.825C-29.0078 199.845 -29.0429 200.888 -29.0896 201.913L-29.645 201.89ZM-29.5105 190.798L-28.9552 190.786C-28.9318 191.818 -28.9201 192.855 -28.9201 193.874L-29.4755 193.874C-29.4755 192.861 -29.4872 191.823 -29.5105 190.792L-29.5105 190.798ZM-28.2479 109.756C-27.4178 109.173 -26.5233 108.63 -25.5997 108.141L-25.3425 108.636C-26.2427 109.114 -27.1138 109.644 -27.9322 110.216L-28.2479 109.756ZM-23.39 344.719L-23.3432 344.16C-22.4254 344.242 -21.4316 344.295 -20.3034 344.325L-20.3209 344.884C-21.4608 344.855 -22.4663 344.796 -23.3958 344.719L-23.39 344.719ZM-21.0282 106.249C-20.0461 105.949 -19.0407 105.695 -18.0293 105.501L-17.9241 106.049C-18.9179 106.238 -19.9058 106.485 -20.8646 106.78L-21.0282 106.244L-21.0282 106.249ZM-15.4163 344.955L-15.4046 344.395C-14.1828 344.425 -13.2065 344.472 -12.3297 344.554L-12.3823 345.114C-13.2474 345.038 -14.212 344.985 -15.4221 344.961L-15.4163 344.955ZM-13.113 105.006L-12.8733 105.006C-11.9146 105.006 -10.9559 105.059 -10.0205 105.159L-10.079 105.713C-10.9909 105.613 -11.9321 105.56 -12.8733 105.56L-13.1071 105.56L-13.1071 105L-13.113 105.006ZM-7.6822 346.116L-7.48345 345.592C-6.47796 345.981 -5.57771 346.464 -4.73591 347.071L-5.05743 347.525C-5.86415 346.941 -6.72349 346.482 -7.6822 346.11L-7.6822 346.116ZM-5.35556 106.739L-5.18017 106.208C-5.0691 106.244 -4.95804 106.285 -4.84112 106.32C-3.95256 106.632 -3.09906 106.992 -2.31572 107.399L-2.56709 107.9C-3.32704 107.505 -4.15716 107.157 -5.02234 106.851C-5.13341 106.815 -5.23864 106.774 -5.34971 106.739L-5.35556 106.739ZM-1.84222 351.031L-1.35702 350.754C-0.8952 351.579 -0.632137 352.369 -0.334 353.277L-0.20539 353.654L-0.731512 353.831L-0.860121 353.448C-1.15241 352.564 -1.40378 351.797 -1.84222 351.02L-1.84222 351.031ZM1.22685 358.398L1.71789 358.133C2.16218 358.958 2.68245 359.848 3.26704 360.767L2.79938 361.068C2.20895 360.137 1.67698 359.241 1.22685 358.398ZM1.33208 110.699L1.71791 110.292C2.41356 110.964 3.09168 111.725 3.78734 112.614L3.3489 112.962C2.67078 112.09 2.0102 111.353 1.33208 110.699ZM4.64666 363.885L5.10264 363.567C5.70476 364.445 6.30689 365.282 6.89732 366.054L6.45888 366.396C5.8626 365.612 5.25463 364.769 4.64666 363.885ZM6.17828 116.97L6.63426 116.651C7.10777 117.335 7.74497 118.237 8.44647 119.109L8.01388 119.463C7.30069 118.573 6.65764 117.665 6.17828 116.97ZM9.66824 370.174L10.0657 369.785C10.8082 370.551 11.5506 371.258 12.2813 371.871L11.9247 372.301C11.1765 371.671 10.4165 370.957 9.66824 370.174ZM11.5155 122.981L11.8604 122.539C12.6379 123.152 13.4856 123.718 14.3683 124.213L14.0994 124.702C13.1874 124.189 12.3164 123.612 11.5155 122.981ZM16.0636 375.042L16.3033 374.535C17.2152 374.971 18.1622 375.319 19.1268 375.566L18.9924 376.108C17.9927 375.855 17.0106 375.495 16.0694 375.042L16.0636 375.042ZM18.6474 126.641L18.8053 126.105C19.7757 126.399 20.7344 126.617 21.7516 126.777L21.6639 127.331C20.6233 127.166 19.6354 126.942 18.6416 126.641L18.6474 126.641ZM23.9029 376.038C24.8557 376.002 25.8378 375.896 26.9135 375.713L27.007 376.267C25.9138 376.45 24.9083 376.556 23.9321 376.597L23.9087 376.038L23.9029 376.038ZM26.5861 127.071C27.5448 127.048 28.5386 126.983 29.6201 126.877L29.6727 127.437C28.5737 127.543 27.5682 127.608 26.5978 127.631L26.5861 127.071ZM31.6544 374.611C32.467 374.382 33.2854 374.146 34.098 373.904L34.5949 373.757L34.7527 374.293L34.2558 374.44C33.4433 374.682 32.6248 374.924 31.8064 375.148L31.6603 374.605L31.6544 374.611ZM34.4546 126.205C35.3841 126.046 36.3662 125.863 37.4594 125.645L37.5646 126.193C36.4656 126.411 35.4776 126.594 34.5481 126.753L34.4546 126.199L34.4546 126.205ZM39.3475 372.472C40.4466 372.224 41.4404 372.048 42.3874 371.93L42.4517 372.484C41.528 372.596 40.5518 372.773 39.4645 373.014L39.3417 372.466L39.3475 372.472ZM42.2529 124.649C43.2175 124.443 44.2113 124.225 45.246 123.995L45.3629 124.543C44.3282 124.773 43.3344 124.991 42.3699 125.197L42.2529 124.649ZM47.2628 372.507L47.3447 371.953C48.3794 372.107 49.3965 372.378 50.3611 372.743L50.1623 373.268C49.2329 372.914 48.2566 372.661 47.2628 372.507ZM50.0162 122.905C51.01 122.663 52.0038 122.404 52.9742 122.138L53.1204 122.681C52.1441 122.946 51.1445 123.205 50.1507 123.447L50.0162 122.905ZM54.2311 375.731L54.6169 375.33C55.295 375.996 55.8679 376.774 56.4817 377.853L55.9965 378.13C55.4119 377.098 54.8683 376.356 54.2311 375.731ZM57.6684 120.765C58.6271 120.465 59.5742 120.152 60.5738 119.81L60.7492 120.341C59.7495 120.683 58.7908 120.995 57.8321 121.296L57.6684 120.759L57.6684 120.765ZM58.1595 382.526L58.6622 382.285C59.0539 383.116 59.4865 384.035 59.9892 385.055L59.4923 385.302C58.9896 384.277 58.5511 383.357 58.1595 382.52L58.1595 382.526ZM61.7371 389.699L62.2282 389.434C62.7017 390.318 63.1927 391.225 63.7013 392.133L63.2161 392.41C62.7075 391.502 62.2106 390.589 61.7371 389.705L61.7371 389.699ZM65.1862 118.166C66.2092 117.795 67.1621 117.447 68.074 117.129L68.2552 117.659C67.3491 117.972 66.3963 118.319 65.3791 118.697L65.192 118.172L65.1862 118.166ZM65.6772 396.683L66.1566 396.394C66.6944 397.307 67.2147 398.191 67.7232 399.046L67.2439 399.335C66.7411 398.48 66.215 397.596 65.6772 396.683ZM69.7693 403.572L70.2428 403.283C70.7923 404.197 71.3243 405.069 71.8446 405.906L71.371 406.201C70.8508 405.364 70.3188 404.486 69.7634 403.572L69.7693 403.572ZM72.8033 115.726C73.7912 115.49 74.8026 115.278 75.8197 115.102L75.9133 115.655C74.9078 115.832 73.9082 116.039 72.9319 116.274L72.8033 115.732L72.8033 115.726ZM74.0426 410.356L74.5044 410.043C75.1182 410.957 75.6911 411.782 76.2582 412.56L75.808 412.89C75.2351 412.106 74.6564 411.275 74.0426 410.356ZM78.9005 416.75L79.3155 416.373C80.017 417.157 80.7127 417.876 81.4376 418.559L81.0576 418.966C80.321 418.271 79.6137 417.546 78.9005 416.744L78.9005 416.75ZM80.7069 114.489C81.7182 114.412 82.7529 114.365 83.7818 114.341L83.7935 114.901C82.7704 114.919 81.7474 114.972 80.7478 115.048L80.7069 114.489ZM84.9042 422.084L85.2198 421.624C86.0383 422.196 86.9093 422.744 87.792 423.251L87.5173 423.74C86.617 423.221 85.7343 422.667 84.9042 422.09L84.9042 422.084ZM88.6631 115.013L88.6981 114.453C89.7036 114.518 90.7383 114.606 91.7613 114.724L91.697 115.278C90.6799 115.166 89.6568 115.072 88.6572 115.007L88.6631 115.013ZM91.9542 425.909L92.1647 425.39C93.0883 425.773 94.0471 426.133 95.0175 426.451L94.8421 426.981C93.86 426.657 92.8837 426.292 91.9484 425.903L91.9542 425.909ZM96.5315 116.003L96.6309 115.449C97.6189 115.632 98.636 115.838 99.6474 116.068L99.5246 116.616C98.5191 116.392 97.5136 116.186 96.5315 116.003ZM99.6006 428.29L99.7175 427.742C100.694 427.954 101.705 428.142 102.711 428.301L102.629 428.855C101.606 428.696 100.589 428.508 99.6006 428.29ZM104.254 117.83L104.406 117.294C105.37 117.571 106.358 117.871 107.346 118.19L107.177 118.726C106.195 118.408 105.213 118.107 104.254 117.83ZM107.522 429.386L107.557 428.826C108.562 428.891 109.585 428.926 110.602 428.932L110.602 429.492C109.574 429.486 108.539 429.445 107.522 429.38L107.522 429.386ZM111.789 120.347L111.982 119.822C112.923 120.176 113.888 120.559 114.841 120.948L114.63 121.467C113.677 121.078 112.725 120.7 111.783 120.347L111.789 120.347ZM115.472 428.773C116.478 428.696 117.501 428.596 118.506 428.466L118.576 429.02C117.565 429.15 116.53 429.256 115.513 429.333L115.472 428.773ZM119.126 123.417L119.354 122.905C120.277 123.323 121.213 123.765 122.136 124.213L121.897 124.72C120.979 124.272 120.044 123.836 119.126 123.417ZM123.311 427.647C124.305 427.435 125.305 427.193 126.275 426.934L126.421 427.476C125.445 427.742 124.434 427.983 123.428 428.201L123.311 427.653L123.311 427.647ZM126.269 126.93L126.527 126.435C127.415 126.9 128.327 127.39 129.233 127.89L128.97 128.38C128.064 127.885 127.158 127.395 126.269 126.93ZM130.917 425.455C131.373 425.284 131.829 425.113 132.273 424.93C132.764 424.73 133.255 424.53 133.74 424.312L133.962 424.824C133.471 425.042 132.974 425.249 132.478 425.449C132.022 425.632 131.566 425.808 131.104 425.979L130.911 425.455L130.917 425.455ZM133.238 130.802L133.512 130.319C134.459 130.867 135.342 131.391 136.16 131.874L135.88 132.358C135.067 131.874 134.179 131.35 133.238 130.802ZM138.113 422.149C138.996 421.659 139.878 421.141 140.738 420.599L141.03 421.076C140.159 421.624 139.27 422.149 138.382 422.644L138.113 422.155L138.113 422.149ZM140.06 134.91L140.358 134.438C141.223 134.992 142.088 135.558 142.93 136.124L142.62 136.589C141.784 136.024 140.919 135.458 140.06 134.91ZM144.748 417.817C145.555 417.21 146.356 416.567 147.133 415.907L147.49 416.338C146.701 416.998 145.894 417.646 145.081 418.265L144.748 417.817ZM146.613 139.424L146.94 138.97C147.764 139.577 148.589 140.208 149.39 140.833L149.051 141.275C148.25 140.65 147.431 140.025 146.613 139.418L146.613 139.424ZM150.74 412.613C151.459 411.9 152.172 411.157 152.862 410.409L153.271 410.786C152.581 411.54 151.862 412.289 151.132 413.008L150.74 412.607L150.74 412.613ZM152.815 329.921L153.371 329.909C153.388 330.852 153.482 331.842 153.663 332.938L153.113 333.033C152.926 331.907 152.827 330.893 152.815 329.921ZM152.839 144.392L153.201 143.968C153.973 144.628 154.756 145.318 155.516 146.001L155.148 146.42C154.394 145.736 153.616 145.052 152.844 144.398L152.839 144.392ZM153.616 324.976C153.78 324.546 153.979 324.116 154.201 323.703C154.487 323.167 154.809 322.672 155.154 322.224L155.592 322.572C155.265 322.99 154.961 323.461 154.686 323.968C154.475 324.357 154.288 324.764 154.131 325.176L153.61 324.976L153.616 324.976ZM154.242 337.871L154.774 337.718C155.019 338.572 155.3 339.504 155.662 340.665L155.13 340.836C154.762 339.675 154.481 338.732 154.236 337.877L154.242 337.871ZM156.025 406.678C156.65 405.877 157.27 405.051 157.86 404.22L158.31 404.545C157.714 405.381 157.094 406.212 156.457 407.02L156.019 406.672L156.025 406.678ZM156.679 345.527L157.2 345.332C157.55 346.311 157.925 347.271 158.316 348.191L157.808 348.409C157.416 347.483 157.036 346.511 156.679 345.527ZM158.702 149.785L159.088 149.384C159.819 150.103 160.543 150.84 161.257 151.577L160.859 151.966C160.152 151.235 159.427 150.498 158.702 149.785ZM159.135 319.236C159.93 318.882 160.824 318.552 162.04 318.175L162.204 318.711C161.011 319.083 160.128 319.401 159.357 319.748L159.129 319.236L159.135 319.236ZM159.935 352.882L160.427 352.617C160.894 353.489 161.397 354.361 161.952 355.275L161.479 355.569C160.918 354.644 160.415 353.766 159.941 352.888L159.935 352.882ZM160.549 400.119C161.075 399.246 161.59 398.351 162.069 397.455L162.554 397.72C162.069 398.622 161.549 399.529 161.017 400.407L160.543 400.119L160.549 400.119ZM164.139 359.713L164.606 359.406C165.103 360.172 165.682 361.092 166.214 362.052L165.729 362.323C165.203 361.374 164.63 360.467 164.144 359.707L164.139 359.713ZM164.191 155.566L164.606 155.195C165.279 155.955 165.957 156.739 166.623 157.529L166.202 157.894C165.542 157.111 164.864 156.333 164.191 155.572L164.191 155.566ZM164.232 393.046C164.647 392.109 165.039 391.149 165.395 390.206L165.916 390.406C165.553 391.361 165.156 392.321 164.741 393.27L164.232 393.04L164.232 393.046ZM166.74 316.778C167.786 316.448 168.728 316.13 169.622 315.788L169.815 316.313C168.909 316.654 167.956 316.979 166.904 317.309L166.74 316.772L166.74 316.778ZM166.933 385.544C167.214 384.548 167.459 383.546 167.67 382.568L168.213 382.686C168.003 383.676 167.751 384.689 167.471 385.697L166.933 385.544ZM167.599 366.808L168.131 366.649C168.412 367.616 168.634 368.641 168.798 369.696L168.248 369.785C168.09 368.753 167.868 367.751 167.594 366.808L167.599 366.808ZM168.418 377.717C168.517 376.68 168.57 375.649 168.581 374.659L169.137 374.659C169.125 375.672 169.073 376.715 168.967 377.77L168.412 377.717L168.418 377.717ZM169.295 161.696L169.733 161.348C170.359 162.15 170.99 162.969 171.604 163.8L171.159 164.136C170.546 163.311 169.914 162.491 169.295 161.696ZM174.041 168.12L174.497 167.796C175.076 168.621 175.661 169.475 176.245 170.342L175.784 170.654C175.205 169.793 174.62 168.945 174.041 168.12ZM174.071 313.802C174.959 313.342 175.854 312.835 176.719 312.299L177.011 312.776C176.134 313.319 175.228 313.831 174.328 314.303L174.071 313.802ZM178.484 174.768L178.952 174.461C179.519 175.345 180.069 176.212 180.601 177.066L180.133 177.367C179.601 176.512 179.051 175.646 178.484 174.768ZM180.764 309.553C181.588 308.934 182.395 308.297 183.161 307.655L183.518 308.085C182.746 308.739 181.933 309.382 181.097 310.006L180.77 309.559L180.764 309.553ZM182.723 181.557L183.196 181.262L184.81 183.885L184.336 184.18L182.723 181.557ZM186.709 304.296C187.417 303.547 188.095 302.775 188.715 301.997L189.147 302.351C188.516 303.141 187.826 303.924 187.107 304.685L186.704 304.296L186.709 304.296ZM186.896 188.388L187.37 188.099C187.902 188.989 188.428 189.873 188.948 190.751L188.469 191.034C187.955 190.156 187.428 189.277 186.896 188.388ZM190.837 259.128C190.86 258.42 190.901 257.695 190.953 256.971C190.977 256.652 191.006 256.334 191.035 256.028L191.591 256.081C191.561 256.387 191.532 256.694 191.509 257.012C191.456 257.731 191.415 258.444 191.392 259.145L190.837 259.128ZM190.913 195.307L191.398 195.035C191.912 195.967 192.403 196.886 192.859 197.752L192.368 198.012C191.912 197.145 191.427 196.232 190.913 195.301L190.913 195.307ZM190.93 264.09L191.485 264.049C191.561 265.062 191.673 266.082 191.813 267.096L191.263 267.178C191.117 266.153 191.006 265.115 190.93 264.09ZM191.497 297.978C192.017 297.088 192.491 296.18 192.9 295.267L193.403 295.497C192.982 296.422 192.503 297.353 191.971 298.255L191.491 297.972L191.497 297.978ZM191.795 251.124C192.029 250.087 192.298 249.109 192.62 248.13L193.146 248.307C192.83 249.268 192.561 250.228 192.333 251.248L191.789 251.124L191.795 251.124ZM192.205 272.046L192.742 271.917C193.005 273.013 193.28 274.038 193.508 274.893L192.97 275.04C192.736 274.18 192.462 273.148 192.199 272.046L192.205 272.046ZM194.233 279.802L194.771 279.672C195.034 280.792 195.227 281.788 195.361 282.725L194.812 282.808C194.683 281.888 194.49 280.91 194.233 279.808L194.233 279.802ZM194.49 290.664C194.73 289.662 194.894 288.648 194.975 287.664L195.531 287.711C195.443 288.725 195.274 289.768 195.034 290.794L194.496 290.664L194.49 290.664ZM194.525 243.551C194.788 243.009 195.063 242.473 195.332 241.936C195.525 241.559 195.712 241.182 195.905 240.799L196.402 241.052C196.209 241.435 196.022 241.812 195.829 242.196C195.56 242.732 195.291 243.262 195.028 243.804L194.531 243.557L194.525 243.551ZM194.537 202.426L195.04 202.19C195.484 203.151 195.899 204.106 196.285 205.025L195.77 205.243C195.39 204.33 194.975 203.387 194.537 202.432L194.537 202.426ZM197.483 209.84L198.009 209.663C198.337 210.659 198.635 211.661 198.892 212.634L198.354 212.781C198.097 211.814 197.805 210.83 197.483 209.84ZM197.852 236.314C198.191 235.353 198.483 234.398 198.734 233.391L199.272 233.526C199.015 234.552 198.723 235.524 198.378 236.502L197.852 236.314ZM199.372 217.578L199.921 217.49C200.079 218.515 200.202 219.553 200.289 220.572L199.734 220.619C199.652 219.617 199.529 218.592 199.372 217.578ZM199.599 228.576C199.716 227.562 199.798 226.536 199.839 225.523L200.395 225.546C200.354 226.572 200.272 227.615 200.149 228.646L199.599 228.581L199.599 228.576Z" fill="#00B5EB"/>
<path d="M1348.38 209L1348.3 208.411C1349.37 208.262 1350.36 207.998 1351.33 207.591L1351.56 208.14C1350.55 208.567 1349.51 208.844 1348.38 209ZM1343.14 208.682C1342.17 208.404 1341.17 207.977 1340.11 207.388L1340.4 206.867C1341.42 207.436 1342.37 207.842 1343.3 208.106L1343.14 208.675L1343.14 208.682ZM1355.95 205.262L1355.57 204.815C1356.27 204.206 1356.94 203.562 1357.64 202.892L1357.94 202.614L1358.34 203.048L1358.05 203.325C1357.37 203.975 1356.66 204.646 1355.95 205.269L1355.95 205.262ZM1335.75 204.524L1335.5 204.341C1334.75 203.813 1333.96 203.251 1333.1 202.662L1333.43 202.174C1334.29 202.763 1335.08 203.325 1335.83 203.86L1336.09 204.043L1335.75 204.531L1335.75 204.524ZM1388.59 200.285C1387.72 200.319 1386.89 200.285 1386.04 200.17L1386.12 199.581C1387.15 199.716 1388.16 199.743 1389.28 199.648L1389.33 200.237C1389.08 200.258 1388.84 200.271 1388.59 200.278L1388.59 200.285ZM1394.44 199.12L1394.25 198.558C1395.23 198.206 1396.21 197.773 1397.17 197.271L1397.44 197.8C1396.46 198.314 1395.45 198.761 1394.44 199.12ZM1362.24 199.696L1361.91 199.208C1362.85 198.551 1363.78 198.01 1364.75 197.563L1364.99 198.104C1364.05 198.538 1363.15 199.059 1362.24 199.696ZM1381.01 198.727C1380.75 198.626 1380.5 198.524 1380.24 198.423C1379.52 198.131 1378.77 197.827 1378 197.556L1378.2 196.994C1378.97 197.265 1379.73 197.569 1380.46 197.867C1380.72 197.969 1380.97 198.071 1381.22 198.172L1381.01 198.721L1381.01 198.727ZM1328.76 199.851C1327.85 199.296 1326.91 198.761 1325.97 198.247L1326.25 197.725C1327.19 198.24 1328.15 198.788 1329.07 199.344L1328.76 199.851ZM1369.87 196.709L1369.79 196.12L1369.86 196.12C1370.97 195.958 1372.04 195.91 1373.07 195.951L1373.04 196.54C1372.05 196.499 1371.02 196.547 1369.95 196.696L1369.88 196.696L1369.87 196.709ZM1401.82 194.908L1401.45 194.441C1402.27 193.784 1403.08 193.066 1403.86 192.301L1404.27 192.728C1403.48 193.506 1402.65 194.238 1401.82 194.908L1401.82 194.908ZM1321.36 195.924C1320.38 195.47 1319.38 195.037 1318.41 194.637L1318.63 194.089C1319.61 194.495 1320.61 194.928 1321.61 195.389L1321.36 195.924ZM1313.56 192.863C1312.58 192.545 1311.57 192.233 1310.48 191.922L1310.64 191.353C1311.74 191.664 1312.75 191.976 1313.75 192.294L1313.56 192.856L1313.56 192.863ZM1198.37 197.075C1197.3 197.109 1196.22 197.136 1195.13 197.156L1195.13 196.56C1196.2 196.54 1197.28 196.513 1198.35 196.479L1198.37 197.068L1198.37 197.075ZM1203.55 196.757L1203.49 196.168C1204.58 196.053 1205.65 195.91 1206.68 195.741L1206.77 196.323C1205.74 196.493 1204.65 196.635 1203.55 196.75L1203.55 196.757ZM1189.94 197.122C1188.79 197.082 1187.73 197.007 1186.69 196.912L1186.75 196.323C1187.77 196.418 1188.82 196.486 1189.96 196.533L1189.94 197.122ZM1407.73 188.8L1407.27 188.441C1408.4 186.951 1409.03 185.895 1409.09 185.78L1409.6 186.078C1409.53 186.2 1408.89 187.283 1407.73 188.8ZM1211.84 195.206L1211.69 194.637C1212.69 194.36 1213.69 194.041 1214.75 193.669L1214.95 194.231C1213.88 194.603 1212.86 194.922 1211.85 195.206L1211.84 195.206ZM1181.55 196.1C1180.46 195.849 1179.4 195.545 1178.41 195.193L1178.6 194.63C1179.57 194.969 1180.61 195.274 1181.68 195.518L1181.55 196.093L1181.55 196.1ZM1305.48 190.615C1304.47 190.364 1303.43 190.121 1302.34 189.863L1302.48 189.288C1303.57 189.545 1304.62 189.796 1305.62 190.046L1305.48 190.622L1305.48 190.615ZM1219.78 192.362L1219.56 191.813L1220.37 191.482C1221.09 191.184 1221.81 190.886 1222.56 190.588L1222.77 191.136C1222.03 191.434 1221.31 191.732 1220.59 192.03L1219.78 192.362ZM1297.3 188.698C1296.26 188.468 1295.2 188.252 1294.14 188.042L1294.25 187.459C1295.32 187.669 1296.38 187.893 1297.42 188.123L1297.3 188.698ZM1173.68 192.938C1172.75 192.362 1171.86 191.705 1171.03 191.001L1171.41 190.547C1172.21 191.238 1173.08 191.868 1173.98 192.436L1173.67 192.938L1173.68 192.938ZM1289.05 187.134C1288 186.965 1286.93 186.809 1285.85 186.66L1285.93 186.071C1287.01 186.22 1288.09 186.383 1289.14 186.545L1289.05 187.127L1289.05 187.134ZM1227.61 189.335L1227.43 188.773C1228.47 188.421 1229.48 188.116 1230.53 187.825L1230.69 188.394C1229.65 188.678 1228.65 188.99 1227.61 189.335ZM1411.76 181.284L1411.21 181.094C1411.54 180.092 1411.82 179.049 1412.05 177.986L1412.62 178.108C1412.39 179.198 1412.11 180.268 1411.76 181.29L1411.76 181.284ZM1280.72 186.03C1279.65 185.915 1278.57 185.814 1277.51 185.719L1277.56 185.13C1278.63 185.225 1279.72 185.326 1280.79 185.441L1280.73 186.03L1280.72 186.03ZM1235.69 187.215L1235.58 186.633C1236.61 186.43 1237.69 186.247 1238.78 186.085L1238.86 186.674C1237.78 186.836 1236.72 187.019 1235.69 187.215ZM1272.36 185.347C1271.3 185.286 1270.21 185.231 1269.13 185.191L1269.15 184.602C1270.24 184.642 1271.32 184.696 1272.38 184.757L1272.35 185.347L1272.36 185.347ZM1243.98 186.037L1243.92 185.448C1244.99 185.333 1246.08 185.231 1247.15 185.137L1247.2 185.726C1246.13 185.821 1245.05 185.922 1243.99 186.037L1243.98 186.037ZM1263.96 185.069C1262.89 185.062 1261.8 185.062 1260.74 185.069L1260.74 184.48C1261.8 184.466 1262.89 184.466 1263.97 184.48L1263.97 185.069L1263.96 185.069ZM1252.35 185.353L1252.31 184.764C1253.39 184.703 1254.48 184.649 1255.55 184.608L1255.57 185.198C1254.5 185.238 1253.42 185.292 1252.34 185.353L1252.35 185.353ZM1167.45 187.148C1166.8 186.281 1166.2 185.353 1165.65 184.392L1166.16 184.101C1166.7 185.042 1167.29 185.949 1167.91 186.796L1167.44 187.155L1167.45 187.148ZM1413.25 172.873L1412.67 172.846C1412.72 171.864 1412.74 170.801 1412.72 169.602L1413.31 169.602C1413.32 170.815 1413.3 171.884 1413.25 172.88L1413.25 172.873ZM1163.5 179.584C1163.14 178.548 1162.84 177.485 1162.6 176.415L1163.17 176.286C1163.4 177.336 1163.7 178.378 1164.05 179.394L1163.49 179.591L1163.5 179.584ZM1413.2 164.361L1412.62 164.361C1412.6 163.068 1412.62 162.025 1412.66 161.084L1413.25 161.117C1413.2 162.038 1413.18 163.075 1413.2 164.361ZM1161.9 171.194L1161.89 170.943C1161.85 169.921 1161.87 168.898 1161.94 167.896L1162.52 167.937C1162.46 168.918 1162.44 169.921 1162.47 170.916L1162.47 171.16L1161.89 171.187L1161.9 171.194ZM1414.12 156.079L1413.56 155.89C1413.93 154.806 1414.4 153.824 1415 152.903L1415.49 153.228C1414.92 154.109 1414.47 155.043 1414.12 156.079ZM1163.41 162.865L1162.85 162.702C1162.88 162.58 1162.91 162.458 1162.95 162.336C1163.24 161.375 1163.59 160.454 1163.99 159.601L1164.52 159.851C1164.13 160.677 1163.8 161.571 1163.52 162.506C1163.48 162.621 1163.45 162.743 1163.42 162.858L1163.41 162.865ZM1419.04 149.667L1418.73 149.159C1419.57 148.637 1420.39 148.326 1421.33 147.967L1421.72 147.818L1421.93 148.373L1421.53 148.522C1420.62 148.868 1419.83 149.166 1419.03 149.66L1419.04 149.667ZM1426.63 146.112L1426.33 145.604C1427.17 145.096 1428.08 144.507 1429.02 143.85L1429.36 144.337C1428.41 145.008 1427.49 145.604 1426.63 146.118L1426.63 146.112ZM1167.29 155.585L1166.86 155.192C1167.54 154.427 1168.31 153.675 1169.21 152.903L1169.6 153.357C1168.71 154.116 1167.96 154.847 1167.3 155.592L1167.29 155.585ZM1432.24 142.252L1431.89 141.778C1432.79 141.107 1433.64 140.43 1434.43 139.766L1434.81 140.22C1434.01 140.884 1433.15 141.568 1432.25 142.245L1432.24 142.252ZM1173.67 150.175L1173.32 149.7C1174.02 149.165 1174.93 148.454 1175.82 147.676L1176.21 148.123C1175.31 148.915 1174.38 149.64 1173.67 150.175ZM1438.63 136.658L1438.21 136.245C1438.98 135.426 1439.69 134.606 1440.31 133.801L1440.77 134.166C1440.14 134.986 1439.42 135.825 1438.63 136.658ZM1179.76 144.256L1179.28 143.911C1179.89 143.057 1180.45 142.136 1180.94 141.168L1181.46 141.439C1180.96 142.428 1180.39 143.376 1179.76 144.256ZM1443.48 129.65L1442.94 129.413C1443.37 128.424 1443.69 127.401 1443.91 126.365L1444.49 126.487C1444.26 127.557 1443.92 128.62 1443.48 129.643L1443.48 129.65ZM1183.32 136.509L1182.75 136.36C1183.02 135.317 1183.21 134.281 1183.34 133.198L1183.92 133.266C1183.79 134.383 1183.59 135.439 1183.31 136.509L1183.32 136.509ZM1444.22 121.259C1444.15 120.244 1444 119.201 1443.77 118.07L1444.35 117.955C1444.59 119.113 1444.73 120.183 1444.81 121.219L1444.23 121.266L1444.22 121.259ZM1183.47 128.031C1183.41 127.009 1183.3 125.959 1183.15 124.808L1183.73 124.727C1183.88 125.891 1183.99 126.961 1184.05 127.997L1183.47 128.031ZM1442.43 113.052C1442.16 112.192 1441.88 111.332 1441.59 110.479L1441.42 109.958L1441.98 109.768L1442.15 110.289C1442.43 111.149 1442.71 112.009 1442.99 112.869L1442.43 113.045L1442.43 113.052ZM1182.26 119.682C1182.06 118.7 1181.83 117.657 1181.56 116.499L1182.13 116.364C1182.4 117.521 1182.63 118.571 1182.84 119.56L1182.26 119.682ZM1439.9 104.94C1439.6 103.775 1439.37 102.725 1439.22 101.723L1439.8 101.628C1439.95 102.61 1440.17 103.646 1440.47 104.791L1439.9 104.94L1439.9 104.94ZM1180.33 111.434C1180.07 110.418 1179.8 109.362 1179.53 108.271L1180.1 108.122C1180.38 109.213 1180.64 110.269 1180.9 111.285L1180.33 111.427L1180.33 111.434ZM1439.63 96.5022L1439.05 96.4345C1439.17 95.324 1439.41 94.2337 1439.76 93.1909L1440.31 93.3805C1439.98 94.3827 1439.75 95.4323 1439.63 96.5022ZM1178.2 103.233C1177.91 102.184 1177.6 101.134 1177.29 100.112L1177.85 99.9354C1178.17 100.965 1178.48 102.021 1178.77 103.071L1178.21 103.233L1178.2 103.233ZM1442.73 88.9586L1442.3 88.5591C1442.97 87.8074 1443.76 87.1709 1444.87 86.4734L1445.18 86.9745C1444.12 87.6381 1443.37 88.2476 1442.73 88.9518L1442.73 88.9586ZM1175.67 95.1682C1175.31 94.1592 1174.95 93.157 1174.55 92.1074L1175.1 91.8975C1175.5 92.9539 1175.86 93.9561 1176.22 94.9651L1175.66 95.1614L1175.67 95.1682ZM1449.7 84.5164L1449.43 83.9882C1450.28 83.5413 1451.23 83.0402 1452.28 82.4646L1452.56 82.986C1451.51 83.5616 1450.56 84.0627 1449.7 84.5096L1449.7 84.5164ZM1457.07 80.4263L1456.77 79.9116C1457.68 79.3767 1458.61 78.8146 1459.55 78.239L1459.85 78.7469C1458.92 79.3225 1457.99 79.8846 1457.08 80.4263L1457.07 80.4263ZM1172.65 87.2589C1172.22 86.1822 1171.82 85.18 1171.45 84.2252L1172 84.0152C1172.37 84.9701 1172.77 85.9723 1173.2 87.0422L1172.65 87.2657L1172.65 87.2589ZM1464.23 75.957L1463.91 75.4559C1464.85 74.8465 1465.76 74.2573 1466.63 73.6885L1466.95 74.1828C1466.08 74.7516 1465.17 75.3408 1464.23 75.9502L1464.23 75.957ZM1471.28 71.3319L1470.96 70.8376C1471.89 70.2146 1472.79 69.6119 1473.64 69.0296L1473.97 69.5171C1473.11 70.1063 1472.21 70.7089 1471.28 71.3319ZM1169.8 79.2412C1169.51 78.1984 1169.25 77.1285 1169.03 76.0518L1169.61 75.9299C1169.83 76.993 1170.09 78.0494 1170.37 79.0855L1169.81 79.248L1169.8 79.2412ZM1478.21 66.5173L1477.86 66.0365C1478.8 65.3458 1479.64 64.7025 1480.43 64.0727L1480.79 64.5399C1479.99 65.1765 1479.15 65.8266 1478.21 66.5173L1478.21 66.5173ZM1484.72 61.0932L1484.31 60.6666C1485.11 59.8878 1485.83 59.1226 1486.52 58.3168L1486.96 58.7028C1486.26 59.5154 1485.53 60.2941 1484.72 61.0864L1484.72 61.0932ZM1168.2 70.8715C1168.08 69.8015 1167.99 68.6977 1167.92 67.6007L1168.51 67.5669C1168.57 68.6503 1168.66 69.7406 1168.78 70.8037L1168.19 70.8715L1168.2 70.8715ZM1490.07 54.4908L1489.58 54.1725C1490.14 53.2787 1490.68 52.3307 1491.18 51.3691L1491.7 51.6399C1491.2 52.6218 1490.65 53.5766 1490.07 54.4908ZM1168.44 62.373L1167.86 62.3595C1167.88 61.2828 1167.94 60.179 1168.03 59.082L1168.61 59.1294C1168.53 60.2196 1168.47 61.3099 1168.45 62.3798L1168.44 62.373ZM1493.8 46.832L1493.25 46.6289C1493.62 45.6335 1493.96 44.5906 1494.26 43.5478L1494.82 43.7103C1494.52 44.7735 1494.18 45.8231 1493.8 46.832ZM1169.17 53.9491L1168.59 53.861C1168.74 52.7979 1168.92 51.7076 1169.12 50.6242L1169.7 50.7325C1169.49 51.8092 1169.32 52.8927 1169.17 53.9423L1169.17 53.9491ZM1496 38.5909L1495.43 38.4893C1495.61 37.4397 1495.77 36.3563 1495.9 35.2796L1496.48 35.3473C1496.35 36.4375 1496.19 37.5345 1496 38.5977L1496 38.5909ZM1170.79 45.647L1170.22 45.5048C1170.47 44.4687 1170.75 43.3988 1171.04 42.3356L1171.61 42.4981C1171.31 43.5545 1171.04 44.6109 1170.78 45.647L1170.79 45.647ZM1496.84 30.106L1496.26 30.0925C1496.29 29.0225 1496.29 27.9255 1496.26 26.8421L1496.84 26.8286C1496.88 27.9188 1496.88 29.0293 1496.84 30.1128L1496.84 30.106ZM1173.13 37.521L1172.57 37.3314C1172.91 36.3156 1173.27 35.2728 1173.64 34.2367L1174.19 34.4399C1173.82 35.4692 1173.46 36.5052 1173.13 37.5142L1173.13 37.521ZM1495.89 21.6618C1495.77 20.5918 1495.62 19.5084 1495.45 18.4452L1496.02 18.3504C1496.2 19.4271 1496.35 20.5173 1496.47 21.6008L1495.88 21.6685L1495.89 21.6618ZM1176.06 29.5846L1175.51 29.3611C1175.91 28.3657 1176.34 27.3499 1176.77 26.3477L1177.31 26.5847C1176.88 27.5802 1176.46 28.5959 1176.05 29.5846L1176.06 29.5846ZM1494.41 13.3529C1494.15 12.2965 1493.86 11.2469 1493.54 10.2244L1494.11 10.0483C1494.42 11.0844 1494.72 12.1475 1494.98 13.2107L1494.41 13.3529ZM1179.46 21.8378L1178.93 21.5805C1179.38 20.6189 1179.86 19.6235 1180.35 18.6416L1180.87 18.9057C1180.39 19.8876 1179.91 20.8762 1179.46 21.8378ZM1491.81 5.3285C1491.62 4.84772 1491.42 4.37367 1491.21 3.89965C1490.98 3.37823 1490.74 2.87038 1490.5 2.35573L1491.03 2.0984C1491.27 2.61305 1491.52 3.13446 1491.74 3.65588C1491.95 4.1299 1492.15 4.61069 1492.35 5.09825L1491.8 5.32173L1491.81 5.3285ZM1183.23 14.2603L1182.72 13.9827C1183.25 12.9534 1183.77 11.9918 1184.25 11.0979L1184.76 11.3823C1184.29 12.2694 1183.78 13.231 1183.23 14.2603ZM1488.07 -2.21515C1487.52 -3.13609 1486.94 -4.05707 1486.34 -4.95093L1486.83 -5.28273C1487.43 -4.37533 1488.02 -3.4476 1488.57 -2.51988L1488.07 -2.21515ZM1187.27 6.825L1186.76 6.52705C1187.3 5.58579 1187.87 4.63774 1188.43 3.72357L1188.93 4.03508C1188.36 4.94925 1187.81 5.89051 1187.26 6.825L1187.27 6.825ZM1483.28 -9.12226C1482.61 -9.95517 1481.91 -10.7881 1481.19 -11.5872L1481.63 -11.9867C1482.35 -11.1741 1483.06 -10.3344 1483.73 -9.49469L1483.28 -9.12226ZM1191.74 -0.339434L1191.26 -0.671239C1191.86 -1.57187 1192.48 -2.47248 1193.11 -3.35279L1193.59 -3.00747C1192.97 -2.13393 1192.34 -1.23329 1191.74 -0.339434ZM1477.59 -15.3116C1476.81 -16.0497 1476.01 -16.781 1475.2 -17.4853L1475.58 -17.9322C1476.4 -17.2212 1477.21 -16.4831 1477.99 -15.7382L1477.59 -15.3048L1477.59 -15.3116ZM1390.93 -14.3229L1390.9 -14.912C1391.89 -14.9662 1392.92 -15.1084 1394.06 -15.3386L1394.17 -14.7563C1393.01 -14.5125 1391.94 -14.3703 1390.93 -14.3161L1390.93 -14.3229ZM1196.7 -7.17202L1196.23 -7.53768C1196.9 -8.39091 1197.58 -9.24414 1198.27 -10.0771L1198.72 -9.69784C1198.04 -8.86493 1197.35 -8.0117 1196.69 -7.16525L1196.7 -7.17202ZM1385.72 -14.9933C1385.27 -15.1558 1384.81 -15.3454 1384.37 -15.5621C1383.8 -15.8465 1383.27 -16.1716 1382.78 -16.5237L1383.13 -17.0045C1383.59 -16.6727 1384.09 -16.3679 1384.63 -16.0971C1385.05 -15.8871 1385.48 -15.7043 1385.92 -15.5553L1385.72 -14.9933ZM1399.2 -16.158L1399.02 -16.7201C1399.9 -17.0113 1400.87 -17.3498 1402.07 -17.7832L1402.26 -17.228C1401.06 -16.7946 1400.08 -16.456 1399.2 -16.158ZM1471.17 -20.7221C1470.3 -21.3587 1469.42 -21.9884 1468.53 -22.5843L1468.85 -23.0787C1469.75 -22.476 1470.64 -21.8462 1471.51 -21.2029L1471.16 -20.7221L1471.17 -20.7221ZM1407.12 -19.0563L1406.9 -19.6048C1407.91 -20.0179 1408.9 -20.458 1409.84 -20.905L1410.09 -20.37C1409.13 -19.9163 1408.13 -19.4761 1407.11 -19.0563L1407.12 -19.0563ZM1202.11 -13.639L1201.67 -14.0385C1202.4 -14.8443 1203.14 -15.6501 1203.89 -16.4289L1204.31 -16.0158C1203.57 -15.2371 1202.83 -14.4312 1202.11 -13.6322L1202.11 -13.639ZM1379.5 -20.6612C1379.1 -21.4941 1378.72 -22.4354 1378.28 -23.7152L1378.83 -23.9116C1379.27 -22.6521 1379.64 -21.7311 1380.03 -20.9185L1379.5 -20.6612ZM1414.69 -22.8146L1414.4 -23.3225C1415.3 -23.8574 1416.18 -24.4195 1417.12 -25.0492L1417.45 -24.5549C1416.5 -23.9183 1415.6 -23.3495 1414.69 -22.8078L1414.69 -22.8146ZM1464.13 -25.293C1463.19 -25.8212 1462.24 -26.3291 1461.28 -26.8099L1461.54 -27.3381C1462.5 -26.8505 1463.47 -26.3358 1464.41 -25.8077L1464.12 -25.293L1464.13 -25.293ZM1421.68 -27.5548L1421.35 -28.0423C1422.13 -28.5976 1423.07 -29.2544 1424.06 -29.8571L1424.36 -29.3492C1423.39 -28.7533 1422.46 -28.11 1421.68 -27.5548ZM1207.95 -19.7132L1207.54 -20.1398C1208.31 -20.8847 1209.11 -21.6431 1209.9 -22.3812L1210.3 -21.9478C1209.51 -21.2097 1208.72 -20.4648 1207.95 -19.7199L1207.95 -19.7132ZM1456.58 -28.9497C1455.58 -29.356 1454.57 -29.7352 1453.56 -30.0806L1453.75 -30.6426C1454.76 -30.2905 1455.79 -29.9113 1456.79 -29.4982L1456.57 -28.9497L1456.58 -28.9497ZM1376.63 -28.6721C1376.25 -29.7758 1375.88 -30.7645 1375.49 -31.7058L1376.03 -31.936C1376.42 -30.988 1376.8 -29.9858 1377.19 -28.8752L1376.63 -28.6788L1376.63 -28.6721ZM1448.62 -31.5365C1447.57 -31.7938 1446.51 -32.0173 1445.48 -32.2069L1445.58 -32.7892C1446.63 -32.5996 1447.7 -32.3762 1448.77 -32.1121L1448.62 -31.5365ZM1428.98 -31.523L1428.8 -32.085C1429.8 -32.4236 1430.86 -32.7012 1431.96 -32.9111L1432.08 -32.3288C1431 -32.1189 1429.96 -31.848 1428.98 -31.5162L1428.98 -31.523ZM1440.37 -32.8231C1439.29 -32.8908 1438.21 -32.9044 1437.17 -32.8773L1437.15 -33.4664C1438.21 -33.4935 1439.31 -33.4732 1440.41 -33.4122L1440.38 -32.8231L1440.37 -32.8231ZM1214.18 -25.3946L1213.79 -25.8483C1214.61 -26.5458 1215.44 -27.25 1216.29 -27.9407L1216.66 -27.4803C1215.82 -26.7895 1214.99 -26.0921 1214.18 -25.4013L1214.18 -25.3946ZM1220.72 -30.6968L1220.36 -31.1708C1221.21 -31.8209 1222.08 -32.4778 1222.96 -33.1278L1223.31 -32.647C1222.43 -31.997 1221.56 -31.3401 1220.72 -30.6968ZM1373.24 -36.3647C1372.72 -37.2924 1372.16 -38.2269 1371.56 -39.1275L1372.05 -39.4526C1372.66 -38.5384 1373.23 -37.5971 1373.75 -36.6558L1373.24 -36.3647ZM1227.51 -35.6875L1227.17 -36.1751C1228.07 -36.8116 1228.96 -37.4278 1229.83 -38.0305L1230.16 -37.543C1229.29 -36.9403 1228.4 -36.324 1227.51 -35.6875ZM1368.53 -43.3327C1367.85 -44.1927 1367.15 -45.0256 1366.45 -45.8112L1366.89 -46.2107C1367.6 -45.4116 1368.31 -44.572 1368.99 -43.7052L1368.54 -43.3327L1368.53 -43.3327ZM1234.45 -40.4683L1234.12 -40.9627L1236.8 -42.7842L1237.13 -42.2899L1234.45 -40.4683ZM1362.79 -49.4679C1361.98 -50.1924 1361.14 -50.8831 1360.31 -51.5197L1360.66 -51.9937C1361.51 -51.3504 1362.36 -50.6461 1363.18 -49.9148L1362.79 -49.4747L1362.79 -49.4679ZM1241.44 -45.1814L1241.12 -45.6757C1242.03 -46.2784 1242.93 -46.8743 1243.83 -47.4567L1244.15 -46.9556C1243.25 -46.3732 1242.35 -45.7773 1241.44 -45.1746L1241.44 -45.1814ZM1315.35 -52.1156C1314.61 -52.1156 1313.85 -52.1291 1313.09 -52.1562C1312.75 -52.1698 1312.42 -52.1833 1312.1 -52.2036L1312.14 -52.7927C1312.46 -52.7724 1312.78 -52.7589 1313.11 -52.7453C1313.87 -52.7115 1314.62 -52.6979 1315.35 -52.7047L1315.35 -52.1156ZM1248.53 -49.7252L1248.23 -50.2331C1249.19 -50.8154 1250.13 -51.3775 1251.02 -51.8989L1251.31 -51.3842C1250.42 -50.8696 1249.49 -50.3076 1248.54 -49.7252L1248.53 -49.7252ZM1320.54 -52.4068L1320.47 -52.9959C1321.53 -53.111 1322.6 -53.2735 1323.65 -53.4631L1323.76 -52.8808C1322.69 -52.6844 1321.61 -52.5286 1320.54 -52.4068ZM1356 -54.3232C1355.05 -54.8446 1354.07 -55.3118 1353.11 -55.7113L1353.33 -56.2598C1354.32 -55.8468 1355.31 -55.3728 1356.27 -54.8446L1355.99 -54.3232L1356 -54.3232ZM1306.93 -52.8266C1305.84 -53.0365 1304.8 -53.2803 1303.76 -53.5918L1303.93 -54.1606C1304.95 -53.8627 1305.96 -53.6121 1307.04 -53.409L1306.94 -52.8266L1306.93 -52.8266ZM1328.82 -54.0726L1328.66 -54.6414C1329.79 -54.9597 1330.86 -55.2915 1331.74 -55.5759L1331.92 -55.0071C1331.03 -54.7227 1329.96 -54.3909 1328.81 -54.0658L1328.82 -54.0726ZM1336.86 -56.5375L1336.71 -57.1063C1337.87 -57.4313 1338.91 -57.6751 1339.88 -57.8512L1339.99 -57.2688C1339.03 -57.0927 1338.01 -56.8558 1336.87 -56.5375L1336.86 -56.5375ZM1348.22 -57.235C1347.16 -57.4517 1346.1 -57.5871 1345.07 -57.6345L1345.09 -58.2236C1346.16 -58.1695 1347.25 -58.034 1348.34 -57.8106L1348.22 -57.2282L1348.22 -57.235ZM1298.89 -55.4472C1298.31 -55.7113 1297.74 -55.9755 1297.17 -56.2463C1296.77 -56.4359 1296.36 -56.6255 1295.96 -56.8083L1296.2 -57.3501C1296.61 -57.1605 1297.01 -56.9709 1297.41 -56.7813C1297.98 -56.5172 1298.55 -56.2463 1299.13 -55.989L1298.89 -55.4472L1298.89 -55.4472ZM1255.83 -53.8695L1255.57 -54.3976C1256.55 -54.9055 1257.54 -55.3863 1258.48 -55.8332L1258.73 -55.2983C1257.79 -54.8581 1256.82 -54.3773 1255.83 -53.8762L1255.83 -53.8695ZM1263.48 -57.2959L1263.28 -57.8512C1264.31 -58.2372 1265.35 -58.5961 1266.36 -58.9076L1266.53 -58.3387C1265.53 -58.0273 1264.51 -57.6751 1263.49 -57.2959L1263.48 -57.2959ZM1291.19 -58.7112C1290.17 -59.0362 1289.16 -59.3071 1288.09 -59.5373L1288.21 -60.1197C1289.29 -59.8895 1290.33 -59.6118 1291.36 -59.28L1291.19 -58.718L1291.19 -58.7112ZM1271.51 -59.605L1271.4 -60.1874C1272.46 -60.3973 1273.54 -60.5666 1274.61 -60.6953L1274.68 -60.1061C1273.63 -59.9775 1272.56 -59.8082 1271.5 -59.605L1271.51 -59.605ZM1283.02 -60.2687C1281.95 -60.3567 1280.87 -60.4041 1279.81 -60.4041L1279.81 -61C1280.89 -61 1281.98 -60.9526 1283.06 -60.8646L1283.02 -60.2754L1283.02 -60.2687Z" fill="#00B5EB"/>
<path opacity="0.4" d="M1196.31 193.024C1205.78 187.042 1207.58 189.11 1211.92 185.304C1223.52 175.132 1212.66 158.667 1223.51 141.597C1223.91 140.981 1233.03 127.06 1247.6 125.286C1259.29 123.865 1262.19 131.755 1274.07 130.73C1288.88 129.448 1290.66 116.628 1303.39 116.475C1313.22 116.354 1316.13 123.952 1332.97 133.248C1343.03 138.797 1350.86 140.992 1363.8 144.608C1372.09 146.931 1400.15 154.192 1437.22 151.368C1463.06 149.399 1466.47 140.05 1491.04 140.456C1504.29 140.673 1518.27 141.114 1527.63 151.546C1535.62 160.452 1538.39 174.578 1534.49 185.766C1529.23 200.866 1515.95 198.68 1509.3 214.04C1504.7 224.676 1506.97 235.197 1511.31 255.26C1514.71 270.986 1518.51 279.212 1520.6 285.98C1531.67 321.777 1508.54 360.602 1499.2 376.267C1479.23 409.782 1452.81 425.908 1433.92 437.44C1411.6 451.068 1392.48 462.728 1369.54 458.894C1353.6 456.226 1352.15 448.806 1333.91 447.207C1310.4 445.15 1302.64 456.586 1285.89 450.523C1271.73 445.395 1263.26 432.134 1260.81 428.295C1250.86 412.7 1254.38 401.975 1245.16 396.884C1238.22 393.057 1229.93 395.656 1219.42 398.951C1203.43 403.964 1198.68 410.262 1190.87 413.39C1167.96 422.566 1124.72 402.096 1110.44 365.855C1102 344.412 1103.17 316.092 1117.52 299.077C1123.95 291.461 1132.93 286.216 1149.56 276.498C1170.82 264.08 1174.97 265.751 1178.82 258.968C1188.04 242.704 1168.43 225.544 1178.92 208.467C1183.43 201.135 1192.51 195.405 1196.3 193.015L1196.31 193.024Z" fill="white"/>
</g>
<defs>
<clipPath id="clip0_5111_936">
<rect width="1450" height="329" fill="white"/>
</clipPath>
</defs>
</svg>
