<svg width="64" height="64" viewBox="0 0 64 64" fill="none" xmlns="http://www.w3.org/2000/svg">
<g id="rag-3">
<path id="Vector" d="M31.8861 63.1877C48.944 63.1877 62.7722 49.2665 62.7722 32.0939C62.7722 14.9212 48.944 1 31.8861 1C14.8282 1 1 14.9212 1 32.0939C1 49.2665 14.8282 63.1877 31.8861 63.1877Z" stroke="#130C49" stroke-miterlimit="10"/>
<g id="Group">
<g id="Group_2">
<path id="Vector_2" d="M20 20.2236L44.1409 44.5269" stroke="#130C49" stroke-miterlimit="10"/>
<path id="Vector_3" d="M20 44.5269L44.1409 20.2236" stroke="#130C49" stroke-miterlimit="10"/>
<path id="Vector_4" d="M32.2305 49.5521V15.1875" stroke="#130C49" stroke-miterlimit="10"/>
<path id="Vector_5" d="M50.0999 32.375H15.9648" stroke="#130C49" stroke-miterlimit="10"/>
</g>
<g id="Group_3">
<path id="Vector_6" d="M17.5151 22.0974C19.9096 22.0974 21.8506 20.1433 21.8506 17.7328C21.8506 15.3223 19.9096 13.3682 17.5151 13.3682C15.1207 13.3682 13.1797 15.3223 13.1797 17.7328C13.1797 20.1433 15.1207 22.0974 17.5151 22.0974Z" fill="#61BB73"/>
<path id="Vector_7" d="M17.5151 51.8264C19.9096 51.8264 21.8506 49.8723 21.8506 47.4618C21.8506 45.0513 19.9096 43.0972 17.5151 43.0972C15.1207 43.0972 13.1797 45.0513 13.1797 47.4618C13.1797 49.8723 15.1207 51.8264 17.5151 51.8264Z" fill="#61BB73"/>
<path id="Vector_8" d="M47.0034 22.0974C49.3978 22.0974 51.3389 20.1433 51.3389 17.7328C51.3389 15.3223 49.3978 13.3682 47.0034 13.3682C44.609 13.3682 42.668 15.3223 42.668 17.7328C42.668 20.1433 44.609 22.0974 47.0034 22.0974Z" fill="#61BB73"/>
<path id="Vector_9" d="M47.0034 51.8264C49.3978 51.8264 51.3389 49.8723 51.3389 47.4618C51.3389 45.0513 49.3978 43.0972 47.0034 43.0972C44.609 43.0972 42.668 45.0513 42.668 47.4618C42.668 49.8723 44.609 51.8264 47.0034 51.8264Z" fill="#61BB73"/>
</g>
</g>
</g>
</svg>
