<svg width="286" height="190" viewBox="0 0 286 190" fill="none" xmlns="http://www.w3.org/2000/svg">
<path d="M125.629 146.25H46.7805V29.6779H125.629V146.25ZM47.7009 145.329H124.708V30.5991H47.7009V145.329Z" fill="#130C49"/>
<path d="M47.2362 85.212H46.6226C46.3649 85.212 46.1562 85.0032 46.1562 84.7452C46.1562 84.4873 46.3649 84.2784 46.6226 84.2784H47.2362C47.4939 84.2784 47.7025 84.4873 47.7025 84.7452C47.7025 85.0032 47.4939 85.212 47.2362 85.212Z" fill="#130C49"/>
<path d="M41.9594 85.212H40.7936C40.5359 85.212 40.3272 85.0032 40.3272 84.7452C40.3272 84.4873 40.5359 84.2784 40.7936 84.2784H41.9594C42.2171 84.2784 42.4258 84.4873 42.4258 84.7452C42.4258 85.0032 42.2171 85.212 41.9594 85.212ZM36.1179 85.212H34.9521C34.6943 85.212 34.4857 85.0032 34.4857 84.7452C34.4857 84.4873 34.6943 84.2784 34.9521 84.2784H36.1179C36.3756 84.2784 36.5842 84.4873 36.5842 84.7452C36.5842 85.0032 36.3756 85.212 36.1179 85.212ZM30.2764 85.212H29.1105C28.8528 85.212 28.6442 85.0032 28.6442 84.7452C28.6442 84.4873 28.8528 84.2784 29.1105 84.2784H30.2764C30.5341 84.2784 30.7427 84.4873 30.7427 84.7452C30.7427 85.0032 30.5341 85.212 30.2764 85.212ZM24.4349 85.212H23.269C23.0113 85.212 22.8027 85.0032 22.8027 84.7452C22.8027 84.4873 23.0113 84.2784 23.269 84.2784H24.4349C24.6926 84.2784 24.9012 84.4873 24.9012 84.7452C24.9012 85.0032 24.6926 85.212 24.4349 85.212ZM18.5933 85.212H17.4275C17.1698 85.212 16.9611 85.0032 16.9611 84.7452C16.9611 84.4873 17.1698 84.2784 17.4275 84.2784H18.5933C18.851 84.2784 19.0597 84.4873 19.0597 84.7452C19.0597 85.0032 18.851 85.212 18.5933 85.212ZM12.7518 85.212H11.5859C11.3282 85.212 11.1196 85.0032 11.1196 84.7452C11.1196 84.4873 11.3282 84.2784 11.5859 84.2784H12.7518C13.0095 84.2784 13.2181 84.4873 13.2181 84.7452C13.2181 85.0032 13.0095 85.212 12.7518 85.212ZM6.91027 85.212H5.74442C5.4867 85.212 5.27808 85.0032 5.27808 84.7452C5.27808 84.4873 5.4867 84.2784 5.74442 84.2784H6.91027C7.16798 84.2784 7.37661 84.4873 7.37661 84.7452C7.37661 85.0032 7.16798 85.212 6.91027 85.212Z" fill="#130C49"/>
<path d="M0.46634 85.826C0.208626 85.826 0 85.6171 0 85.3592V84.745C0 84.487 0.208626 84.2782 0.46634 84.2782H1.07995C1.33766 84.2782 1.54629 84.487 1.54629 84.745C1.54629 85.0029 1.33766 85.2118 1.07995 85.2118H0.932681V85.3592C0.932681 85.6171 0.724055 85.826 0.46634 85.826Z" fill="#130C49"/>
<path d="M0.46634 171.603C0.208626 171.603 0 171.395 0 171.137V169.908C0 169.65 0.208626 169.441 0.46634 169.441C0.724055 169.441 0.932681 169.65 0.932681 169.908V171.137C0.932681 171.395 0.724055 171.603 0.46634 171.603ZM0.46634 165.474C0.208626 165.474 0 165.265 0 165.007V163.779C0 163.521 0.208626 163.312 0.46634 163.312C0.724055 163.312 0.932681 163.521 0.932681 163.779V165.007C0.932681 165.265 0.724055 165.474 0.46634 165.474ZM0.46634 159.344C0.208626 159.344 0 159.135 0 158.877V157.649C0 157.391 0.208626 157.182 0.46634 157.182C0.724055 157.182 0.932681 157.391 0.932681 157.649V158.877C0.932681 159.135 0.724055 159.344 0.46634 159.344ZM0.46634 153.215C0.208626 153.215 0 153.006 0 152.748V151.519C0 151.261 0.208626 151.053 0.46634 151.053C0.724055 151.053 0.932681 151.261 0.932681 151.519V152.748C0.932681 153.006 0.724055 153.215 0.46634 153.215ZM0.46634 147.097C0.208626 147.097 0 146.888 0 146.631V145.402C0 145.144 0.208626 144.935 0.46634 144.935C0.724055 144.935 0.932681 145.144 0.932681 145.402V146.631C0.932681 146.888 0.724055 147.097 0.46634 147.097ZM0.46634 140.968C0.208626 140.968 0 140.759 0 140.501V139.273C0 139.015 0.208626 138.806 0.46634 138.806C0.724055 138.806 0.932681 139.015 0.932681 139.273V140.501C0.932681 140.759 0.724055 140.968 0.46634 140.968ZM0.46634 134.838C0.208626 134.838 0 134.629 0 134.371V133.143C0 132.885 0.208626 132.676 0.46634 132.676C0.724055 132.676 0.932681 132.885 0.932681 133.143V134.371C0.932681 134.629 0.724055 134.838 0.46634 134.838ZM0.46634 128.721C0.208626 128.721 0 128.512 0 128.254V127.026C0 126.768 0.208626 126.559 0.46634 126.559C0.724055 126.559 0.932681 126.768 0.932681 127.026V128.254C0.932681 128.512 0.724055 128.721 0.46634 128.721ZM0.46634 122.591C0.208626 122.591 0 122.382 0 122.124V120.896C0 120.638 0.208626 120.429 0.46634 120.429C0.724055 120.429 0.932681 120.638 0.932681 120.896V122.124C0.932681 122.382 0.724055 122.591 0.46634 122.591ZM0.46634 116.462C0.208626 116.462 0 116.253 0 115.995V114.767C0 114.509 0.208626 114.3 0.46634 114.3C0.724055 114.3 0.932681 114.509 0.932681 114.767V115.995C0.932681 116.253 0.724055 116.462 0.46634 116.462ZM0.46634 110.332C0.208626 110.332 0 110.123 0 109.865V108.637C0 108.379 0.208626 108.17 0.46634 108.17C0.724055 108.17 0.932681 108.379 0.932681 108.637V109.865C0.932681 110.123 0.724055 110.332 0.46634 110.332ZM0.46634 104.215C0.208626 104.215 0 104.006 0 103.748V102.52C0 102.262 0.208626 102.053 0.46634 102.053C0.724055 102.053 0.932681 102.262 0.932681 102.52V103.748C0.932681 104.006 0.724055 104.215 0.46634 104.215ZM0.46634 98.0852C0.208626 98.0852 0 97.8764 0 97.6184V96.3901C0 96.1321 0.208626 95.9233 0.46634 95.9233C0.724055 95.9233 0.932681 96.1321 0.932681 96.3901V97.6184C0.932681 97.8764 0.724055 98.0852 0.46634 98.0852ZM0.46634 91.9556C0.208626 91.9556 0 91.7468 0 91.4889V90.2605C0 90.0025 0.208626 89.7937 0.46634 89.7937C0.724055 89.7937 0.932681 90.0025 0.932681 90.2605V91.4889C0.932681 91.7468 0.724055 91.9556 0.46634 91.9556Z" fill="#130C49"/>
<path d="M1.07995 177.118H0.46634C0.208626 177.118 0 176.909 0 176.652V176.037C0 175.779 0.208626 175.571 0.46634 175.571C0.724055 175.571 0.932681 175.779 0.932681 176.037V176.185H1.07995C1.33766 176.185 1.54629 176.394 1.54629 176.652C1.54629 176.909 1.33766 177.118 1.07995 177.118Z" fill="#130C49"/>
<path d="M249.946 177.119H248.731C248.473 177.119 248.265 176.91 248.265 176.652C248.265 176.394 248.473 176.185 248.731 176.185H249.946C250.204 176.185 250.412 176.394 250.412 176.652C250.412 176.91 250.204 177.119 249.946 177.119ZM243.871 177.119H242.656C242.399 177.119 242.19 176.91 242.19 176.652C242.19 176.394 242.399 176.185 242.656 176.185H243.871C244.129 176.185 244.338 176.394 244.338 176.652C244.338 176.91 244.129 177.119 243.871 177.119ZM237.809 177.119H236.594C236.336 177.119 236.128 176.91 236.128 176.652C236.128 176.394 236.336 176.185 236.594 176.185H237.809C238.067 176.185 238.275 176.394 238.275 176.652C238.275 176.91 238.067 177.119 237.809 177.119ZM231.734 177.119H230.519C230.262 177.119 230.053 176.91 230.053 176.652C230.053 176.394 230.262 176.185 230.519 176.185H231.734C231.992 176.185 232.201 176.394 232.201 176.652C232.201 176.91 231.992 177.119 231.734 177.119ZM225.672 177.119H224.457C224.199 177.119 223.991 176.91 223.991 176.652C223.991 176.394 224.199 176.185 224.457 176.185H225.672C225.93 176.185 226.138 176.394 226.138 176.652C226.138 176.91 225.93 177.119 225.672 177.119ZM219.597 177.119H218.382C218.124 177.119 217.916 176.91 217.916 176.652C217.916 176.394 218.124 176.185 218.382 176.185H219.597C219.855 176.185 220.063 176.394 220.063 176.652C220.063 176.91 219.855 177.119 219.597 177.119ZM213.522 177.119H212.307C212.05 177.119 211.841 176.91 211.841 176.652C211.841 176.394 212.05 176.185 212.307 176.185H213.522C213.78 176.185 213.989 176.394 213.989 176.652C213.989 176.91 213.78 177.119 213.522 177.119ZM207.46 177.119H206.245C205.987 177.119 205.779 176.91 205.779 176.652C205.779 176.394 205.987 176.185 206.245 176.185H207.46C207.718 176.185 207.926 176.394 207.926 176.652C207.926 176.91 207.718 177.119 207.46 177.119ZM201.385 177.119H200.17C199.913 177.119 199.704 176.91 199.704 176.652C199.704 176.394 199.913 176.185 200.17 176.185H201.385C201.643 176.185 201.852 176.394 201.852 176.652C201.852 176.91 201.643 177.119 201.385 177.119ZM195.311 177.119H194.096C193.838 177.119 193.629 176.91 193.629 176.652C193.629 176.394 193.838 176.185 194.096 176.185H195.311C195.568 176.185 195.777 176.394 195.777 176.652C195.777 176.91 195.568 177.119 195.311 177.119ZM189.248 177.119H188.033C187.776 177.119 187.567 176.91 187.567 176.652C187.567 176.394 187.776 176.185 188.033 176.185H189.248C189.506 176.185 189.715 176.394 189.715 176.652C189.715 176.91 189.506 177.119 189.248 177.119ZM183.173 177.119H181.959C181.701 177.119 181.492 176.91 181.492 176.652C181.492 176.394 181.701 176.185 181.959 176.185H183.173C183.431 176.185 183.64 176.394 183.64 176.652C183.64 176.91 183.431 177.119 183.173 177.119ZM177.111 177.119H175.896C175.638 177.119 175.43 176.91 175.43 176.652C175.43 176.394 175.638 176.185 175.896 176.185H177.111C177.369 176.185 177.577 176.394 177.577 176.652C177.577 176.91 177.369 177.119 177.111 177.119ZM171.036 177.119H169.821C169.564 177.119 169.355 176.91 169.355 176.652C169.355 176.394 169.564 176.185 169.821 176.185H171.036C171.294 176.185 171.503 176.394 171.503 176.652C171.503 176.91 171.294 177.119 171.036 177.119ZM164.962 177.119H163.747C163.489 177.119 163.28 176.91 163.28 176.652C163.28 176.394 163.489 176.185 163.747 176.185H164.962C165.219 176.185 165.428 176.394 165.428 176.652C165.428 176.91 165.219 177.119 164.962 177.119ZM158.899 177.119H157.684C157.427 177.119 157.218 176.91 157.218 176.652C157.218 176.394 157.427 176.185 157.684 176.185H158.899C159.157 176.185 159.366 176.394 159.366 176.652C159.366 176.91 159.157 177.119 158.899 177.119ZM152.825 177.119H151.61C151.352 177.119 151.143 176.91 151.143 176.652C151.143 176.394 151.352 176.185 151.61 176.185H152.825C153.082 176.185 153.291 176.394 153.291 176.652C153.291 176.91 153.082 177.119 152.825 177.119ZM146.75 177.119H145.535C145.277 177.119 145.069 176.91 145.069 176.652C145.069 176.394 145.277 176.185 145.535 176.185H146.75C147.008 176.185 147.216 176.394 147.216 176.652C147.216 176.91 147.008 177.119 146.75 177.119ZM140.687 177.119H139.472C139.215 177.119 139.006 176.91 139.006 176.652C139.006 176.394 139.215 176.185 139.472 176.185H140.687C140.945 176.185 141.154 176.394 141.154 176.652C141.154 176.91 140.945 177.119 140.687 177.119ZM134.613 177.119H133.398C133.14 177.119 132.931 176.91 132.931 176.652C132.931 176.394 133.14 176.185 133.398 176.185H134.613C134.87 176.185 135.079 176.394 135.079 176.652C135.079 176.91 134.87 177.119 134.613 177.119ZM128.55 177.119H127.335C127.078 177.119 126.869 176.91 126.869 176.652C126.869 176.394 127.078 176.185 127.335 176.185H128.55C128.808 176.185 129.017 176.394 129.017 176.652C129.017 176.91 128.808 177.119 128.55 177.119ZM122.476 177.119H121.261C121.003 177.119 120.794 176.91 120.794 176.652C120.794 176.394 121.003 176.185 121.261 176.185H122.476C122.733 176.185 122.942 176.394 122.942 176.652C122.942 176.91 122.733 177.119 122.476 177.119ZM116.401 177.119H115.186C114.928 177.119 114.72 176.91 114.72 176.652C114.72 176.394 114.928 176.185 115.186 176.185H116.401C116.659 176.185 116.867 176.394 116.867 176.652C116.867 176.91 116.659 177.119 116.401 177.119ZM110.338 177.119H109.124C108.866 177.119 108.657 176.91 108.657 176.652C108.657 176.394 108.866 176.185 109.124 176.185H110.338C110.596 176.185 110.805 176.394 110.805 176.652C110.805 176.91 110.596 177.119 110.338 177.119ZM104.264 177.119H103.049C102.791 177.119 102.582 176.91 102.582 176.652C102.582 176.394 102.791 176.185 103.049 176.185H104.264C104.521 176.185 104.73 176.394 104.73 176.652C104.73 176.91 104.521 177.119 104.264 177.119ZM98.1891 177.119H96.9741C96.7164 177.119 96.5078 176.91 96.5078 176.652C96.5078 176.394 96.7164 176.185 96.9741 176.185H98.1891C98.4468 176.185 98.6554 176.394 98.6554 176.652C98.6554 176.91 98.4468 177.119 98.1891 177.119ZM92.1266 177.119H90.9117C90.654 177.119 90.4454 176.91 90.4454 176.652C90.4454 176.394 90.654 176.185 90.9117 176.185H92.1266C92.3843 176.185 92.593 176.394 92.593 176.652C92.593 176.91 92.3843 177.119 92.1266 177.119ZM86.0519 177.119H84.837C84.5793 177.119 84.3707 176.91 84.3707 176.652C84.3707 176.394 84.5793 176.185 84.837 176.185H86.0519C86.3097 176.185 86.5183 176.394 86.5183 176.652C86.5183 176.91 86.3097 177.119 86.0519 177.119ZM79.9895 177.119H78.7746C78.5169 177.119 78.3082 176.91 78.3082 176.652C78.3082 176.394 78.5169 176.185 78.7746 176.185H79.9895C80.2472 176.185 80.4558 176.394 80.4558 176.652C80.4558 176.91 80.2472 177.119 79.9895 177.119ZM73.9148 177.119H72.6999C72.4422 177.119 72.2335 176.91 72.2335 176.652C72.2335 176.394 72.4422 176.185 72.6999 176.185H73.9148C74.1725 176.185 74.3811 176.394 74.3811 176.652C74.3811 176.91 74.1725 177.119 73.9148 177.119ZM67.8401 177.119H66.6252C66.3675 177.119 66.1588 176.91 66.1588 176.652C66.1588 176.394 66.3675 176.185 66.6252 176.185H67.8401C68.0978 176.185 68.3064 176.394 68.3064 176.652C68.3064 176.91 68.0978 177.119 67.8401 177.119ZM61.7777 177.119H60.5627C60.305 177.119 60.0964 176.91 60.0964 176.652C60.0964 176.394 60.305 176.185 60.5627 176.185H61.7777C62.0354 176.185 62.244 176.394 62.244 176.652C62.244 176.91 62.0354 177.119 61.7777 177.119ZM55.703 177.119H54.488C54.2303 177.119 54.0217 176.91 54.0217 176.652C54.0217 176.394 54.2303 176.185 54.488 176.185H55.703C55.9607 176.185 56.1693 176.394 56.1693 176.652C56.1693 176.91 55.9607 177.119 55.703 177.119ZM49.6283 177.119H48.4133C48.1556 177.119 47.947 176.91 47.947 176.652C47.947 176.394 48.1556 176.185 48.4133 176.185H49.6283C49.886 176.185 50.0946 176.394 50.0946 176.652C50.0946 176.91 49.886 177.119 49.6283 177.119ZM43.5659 177.119H42.3509C42.0932 177.119 41.8846 176.91 41.8846 176.652C41.8846 176.394 42.0932 176.185 42.3509 176.185H43.5659C43.8236 176.185 44.0322 176.394 44.0322 176.652C44.0322 176.91 43.8236 177.119 43.5659 177.119ZM37.4912 177.119H36.2762C36.0185 177.119 35.8099 176.91 35.8099 176.652C35.8099 176.394 36.0185 176.185 36.2762 176.185H37.4912C37.7489 176.185 37.9575 176.394 37.9575 176.652C37.9575 176.91 37.7489 177.119 37.4912 177.119ZM31.4287 177.119H30.2138C29.9561 177.119 29.7475 176.91 29.7475 176.652C29.7475 176.394 29.9561 176.185 30.2138 176.185H31.4287C31.6865 176.185 31.8951 176.394 31.8951 176.652C31.8951 176.91 31.6865 177.119 31.4287 177.119ZM25.354 177.119H24.1391C23.8814 177.119 23.6728 176.91 23.6728 176.652C23.6728 176.394 23.8814 176.185 24.1391 176.185H25.354C25.6118 176.185 25.8204 176.394 25.8204 176.652C25.8204 176.91 25.6118 177.119 25.354 177.119ZM19.2793 177.119H18.0644C17.8067 177.119 17.5981 176.91 17.5981 176.652C17.5981 176.394 17.8067 176.185 18.0644 176.185H19.2793C19.5371 176.185 19.7457 176.394 19.7457 176.652C19.7457 176.91 19.5371 177.119 19.2793 177.119ZM13.2169 177.119H12.002C11.7443 177.119 11.5356 176.91 11.5356 176.652C11.5356 176.394 11.7443 176.185 12.002 176.185H13.2169C13.4746 176.185 13.6833 176.394 13.6833 176.652C13.6833 176.91 13.4746 177.119 13.2169 177.119ZM7.14222 177.119H5.92728C5.66956 177.119 5.46094 176.91 5.46094 176.652C5.46094 176.394 5.66956 176.185 5.92728 176.185H7.14222C7.39993 176.185 7.60856 176.394 7.60856 176.652C7.60856 176.91 7.39993 177.119 7.14222 177.119Z" fill="#130C49"/>
<path d="M255.417 177.118H254.803C254.546 177.118 254.337 176.909 254.337 176.652C254.337 176.394 254.546 176.185 254.803 176.185H254.951V176.037C254.951 175.779 255.159 175.571 255.417 175.571C255.675 175.571 255.883 175.779 255.883 176.037V176.652C255.883 176.909 255.675 177.118 255.417 177.118Z" fill="#130C49"/>
<path d="M255.418 171.603C255.161 171.603 254.952 171.395 254.952 171.137V169.908C254.952 169.65 255.161 169.441 255.418 169.441C255.676 169.441 255.885 169.65 255.885 169.908V171.137C255.885 171.395 255.676 171.603 255.418 171.603ZM255.418 165.474C255.161 165.474 254.952 165.265 254.952 165.007V163.779C254.952 163.521 255.161 163.312 255.418 163.312C255.676 163.312 255.885 163.521 255.885 163.779V165.007C255.885 165.265 255.676 165.474 255.418 165.474ZM255.418 159.344C255.161 159.344 254.952 159.135 254.952 158.877V157.649C254.952 157.391 255.161 157.182 255.418 157.182C255.676 157.182 255.885 157.391 255.885 157.649V158.877C255.885 159.135 255.676 159.344 255.418 159.344ZM255.418 153.215C255.161 153.215 254.952 153.006 254.952 152.748V151.519C254.952 151.261 255.161 151.053 255.418 151.053C255.676 151.053 255.885 151.261 255.885 151.519V152.748C255.885 153.006 255.676 153.215 255.418 153.215ZM255.418 147.097C255.161 147.097 254.952 146.888 254.952 146.631V145.402C254.952 145.144 255.161 144.935 255.418 144.935C255.676 144.935 255.885 145.144 255.885 145.402V146.631C255.885 146.888 255.676 147.097 255.418 147.097ZM255.418 140.968C255.161 140.968 254.952 140.759 254.952 140.501V139.273C254.952 139.015 255.161 138.806 255.418 138.806C255.676 138.806 255.885 139.015 255.885 139.273V140.501C255.885 140.759 255.676 140.968 255.418 140.968ZM255.418 134.838C255.161 134.838 254.952 134.629 254.952 134.371V133.143C254.952 132.885 255.161 132.676 255.418 132.676C255.676 132.676 255.885 132.885 255.885 133.143V134.371C255.885 134.629 255.676 134.838 255.418 134.838ZM255.418 128.721C255.161 128.721 254.952 128.512 254.952 128.254V127.026C254.952 126.768 255.161 126.559 255.418 126.559C255.676 126.559 255.885 126.768 255.885 127.026V128.254C255.885 128.512 255.676 128.721 255.418 128.721ZM255.418 122.591C255.161 122.591 254.952 122.382 254.952 122.124V120.896C254.952 120.638 255.161 120.429 255.418 120.429C255.676 120.429 255.885 120.638 255.885 120.896V122.124C255.885 122.382 255.676 122.591 255.418 122.591ZM255.418 116.462C255.161 116.462 254.952 116.253 254.952 115.995V114.767C254.952 114.509 255.161 114.3 255.418 114.3C255.676 114.3 255.885 114.509 255.885 114.767V115.995C255.885 116.253 255.676 116.462 255.418 116.462ZM255.418 110.332C255.161 110.332 254.952 110.123 254.952 109.865V108.637C254.952 108.379 255.161 108.17 255.418 108.17C255.676 108.17 255.885 108.379 255.885 108.637V109.865C255.885 110.123 255.676 110.332 255.418 110.332ZM255.418 104.203C255.161 104.203 254.952 103.994 254.952 103.736V102.507C254.952 102.249 255.161 102.041 255.418 102.041C255.676 102.041 255.885 102.249 255.885 102.507V103.736C255.885 103.994 255.676 104.203 255.418 104.203ZM255.418 98.0852C255.161 98.0852 254.952 97.8764 254.952 97.6184V96.3901C254.952 96.1321 255.161 95.9233 255.418 95.9233C255.676 95.9233 255.885 96.1321 255.885 96.3901V97.6184C255.885 97.8764 255.676 98.0852 255.418 98.0852ZM255.418 91.9556C255.161 91.9556 254.952 91.7468 254.952 91.4889V90.2605C254.952 90.0025 255.161 89.7937 255.418 89.7937C255.676 89.7937 255.885 90.0025 255.885 90.2605V91.4889C255.885 91.7468 255.676 91.9556 255.418 91.9556Z" fill="#130C49"/>
<path d="M255.417 85.8262C255.159 85.8262 254.951 85.6174 254.951 85.3594V85.212H254.803C254.546 85.212 254.337 85.0032 254.337 84.7452C254.337 84.4873 254.546 84.2784 254.803 84.2784H255.417C255.675 84.2784 255.883 84.4873 255.883 84.7452V85.3594C255.883 85.6174 255.675 85.8262 255.417 85.8262Z" fill="#130C49"/>
<path d="M249.799 85.212H248.547C248.29 85.212 248.081 85.0032 248.081 84.7452C248.081 84.4873 248.29 84.2784 248.547 84.2784H249.799C250.057 84.2784 250.265 84.4873 250.265 84.7452C250.265 85.0032 250.057 85.212 249.799 85.212ZM243.553 85.212H242.301C242.043 85.212 241.834 85.0032 241.834 84.7452C241.834 84.4873 242.043 84.2784 242.301 84.2784H243.553C243.81 84.2784 244.019 84.4873 244.019 84.7452C244.019 85.0032 243.81 85.212 243.553 85.212ZM237.294 85.212H236.042C235.784 85.212 235.576 85.0032 235.576 84.7452C235.576 84.4873 235.784 84.2784 236.042 84.2784H237.294C237.552 84.2784 237.76 84.4873 237.76 84.7452C237.76 85.0032 237.552 85.212 237.294 85.212ZM231.047 85.212H229.796C229.538 85.212 229.329 85.0032 229.329 84.7452C229.329 84.4873 229.538 84.2784 229.796 84.2784H231.047C231.305 84.2784 231.514 84.4873 231.514 84.7452C231.514 85.0032 231.305 85.212 231.047 85.212ZM224.801 85.212H223.549C223.291 85.212 223.083 85.0032 223.083 84.7452C223.083 84.4873 223.291 84.2784 223.549 84.2784H224.801C225.059 84.2784 225.267 84.4873 225.267 84.7452C225.267 85.0032 225.059 85.212 224.801 85.212ZM218.542 85.212H217.29C217.033 85.212 216.824 85.0032 216.824 84.7452C216.824 84.4873 217.033 84.2784 217.29 84.2784H218.542C218.8 84.2784 219.008 84.4873 219.008 84.7452C219.008 85.0032 218.8 85.212 218.542 85.212ZM212.296 85.212H211.044C210.786 85.212 210.577 85.0032 210.577 84.7452C210.577 84.4873 210.786 84.2784 211.044 84.2784H212.296C212.553 84.2784 212.762 84.4873 212.762 84.7452C212.762 85.0032 212.553 85.212 212.296 85.212ZM206.049 85.212H204.797C204.54 85.212 204.331 85.0032 204.331 84.7452C204.331 84.4873 204.54 84.2784 204.797 84.2784H206.049C206.307 84.2784 206.515 84.4873 206.515 84.7452C206.515 85.0032 206.307 85.212 206.049 85.212ZM199.79 85.212H198.538C198.281 85.212 198.072 85.0032 198.072 84.7452C198.072 84.4873 198.281 84.2784 198.538 84.2784H199.79C200.048 84.2784 200.257 84.4873 200.257 84.7452C200.257 85.0032 200.048 85.212 199.79 85.212ZM193.544 85.212H192.292C192.034 85.212 191.826 85.0032 191.826 84.7452C191.826 84.4873 192.034 84.2784 192.292 84.2784H193.544C193.801 84.2784 194.01 84.4873 194.01 84.7452C194.01 85.0032 193.801 85.212 193.544 85.212ZM187.297 85.212H186.045C185.788 85.212 185.579 85.0032 185.579 84.7452C185.579 84.4873 185.788 84.2784 186.045 84.2784H187.297C187.555 84.2784 187.764 84.4873 187.764 84.7452C187.764 85.0032 187.555 85.212 187.297 85.212ZM181.038 85.212H179.787C179.529 85.212 179.32 85.0032 179.32 84.7452C179.32 84.4873 179.529 84.2784 179.787 84.2784H181.038C181.296 84.2784 181.505 84.4873 181.505 84.7452C181.505 85.0032 181.296 85.212 181.038 85.212ZM174.792 85.212H173.54C173.282 85.212 173.074 85.0032 173.074 84.7452C173.074 84.4873 173.282 84.2784 173.54 84.2784H174.792C175.05 84.2784 175.258 84.4873 175.258 84.7452C175.258 85.0032 175.05 85.212 174.792 85.212ZM168.533 85.212H167.281C167.024 85.212 166.815 85.0032 166.815 84.7452C166.815 84.4873 167.024 84.2784 167.281 84.2784H168.533C168.791 84.2784 168.999 84.4873 168.999 84.7452C168.999 85.0032 168.791 85.212 168.533 85.212ZM162.287 85.212H161.035C160.777 85.212 160.569 85.0032 160.569 84.7452C160.569 84.4873 160.777 84.2784 161.035 84.2784H162.287C162.544 84.2784 162.753 84.4873 162.753 84.7452C162.753 85.0032 162.544 85.212 162.287 85.212ZM156.04 85.212H154.788C154.531 85.212 154.322 85.0032 154.322 84.7452C154.322 84.4873 154.531 84.2784 154.788 84.2784H156.04C156.298 84.2784 156.506 84.4873 156.506 84.7452C156.506 85.0032 156.298 85.212 156.04 85.212ZM149.781 85.212H148.53C148.272 85.212 148.063 85.0032 148.063 84.7452C148.063 84.4873 148.272 84.2784 148.53 84.2784H149.781C150.039 84.2784 150.248 84.4873 150.248 84.7452C150.248 85.0032 150.039 85.212 149.781 85.212ZM143.535 85.212H142.283C142.025 85.212 141.817 85.0032 141.817 84.7452C141.817 84.4873 142.025 84.2784 142.283 84.2784H143.535C143.793 84.2784 144.001 84.4873 144.001 84.7452C144.001 85.0032 143.793 85.212 143.535 85.212ZM137.288 85.212H136.037C135.779 85.212 135.57 85.0032 135.57 84.7452C135.57 84.4873 135.779 84.2784 136.037 84.2784H137.288C137.546 84.2784 137.755 84.4873 137.755 84.7452C137.755 85.0032 137.546 85.212 137.288 85.212ZM131.03 85.212H129.778C129.52 85.212 129.311 85.0032 129.311 84.7452C129.311 84.4873 129.52 84.2784 129.778 84.2784H131.03C131.287 84.2784 131.496 84.4873 131.496 84.7452C131.496 85.0032 131.287 85.212 131.03 85.212ZM124.783 85.212H123.531C123.274 85.212 123.065 85.0032 123.065 84.7452C123.065 84.4873 123.274 84.2784 123.531 84.2784H124.783C125.041 84.2784 125.249 84.4873 125.249 84.7452C125.249 85.0032 125.041 85.212 124.783 85.212ZM118.524 85.212H117.272C117.015 85.212 116.806 85.0032 116.806 84.7452C116.806 84.4873 117.015 84.2784 117.272 84.2784H118.524C118.782 84.2784 118.991 84.4873 118.991 84.7452C118.991 85.0032 118.782 85.212 118.524 85.212Z" fill="#130C49"/>
<path d="M112.279 85.212H111.666C111.408 85.212 111.199 85.0032 111.199 84.7452C111.199 84.4873 111.408 84.2784 111.666 84.2784H112.279C112.537 84.2784 112.746 84.4873 112.746 84.7452C112.746 85.0032 112.537 85.212 112.279 85.212Z" fill="#130C49"/>
<path d="M88.4468 107.311H79.3286V98.1838H88.4468V107.311ZM80.249 106.389H87.5264V99.1051H80.249V106.389Z" fill="#130C49"/>
<path d="M88.4468 94.4984H79.3286V85.3716H88.4468V94.4984ZM80.249 93.5771H87.5264V86.2929H80.249V93.5771Z" fill="#130C49"/>
<path d="M88.4468 81.6867H79.3286V72.5599H88.4468V81.6867ZM80.249 80.7655H87.5264V73.4812H80.249V80.7655Z" fill="#130C49"/>
<path d="M87.9837 60.2019H79.7859V68.4074H87.9837V60.2019Z" fill="#130C49"/>
<path d="M88.448 68.8619H79.3298V59.7351H88.448V68.8619ZM80.2502 67.9406H87.5276V60.6564H80.2502V67.9406Z" fill="#130C49"/>
<path d="M31.0727 97.7405H18.9846V109.84H31.0727V97.7405Z" fill="#7487EC"/>
<path d="M31.3941 110.16H18.6802V97.4337H31.3941V110.16ZM19.2938 109.533H30.7682V98.0479H19.2938V109.533Z" fill="#130C49"/>
<path d="M23.6249 106.401H11.5369V118.501H23.6249V106.401Z" fill="#130C49"/>
<path d="M251.593 38.9265C253.708 38.9265 255.422 37.2106 255.422 35.094C255.422 32.9774 253.708 31.2615 251.593 31.2615C249.479 31.2615 247.764 32.9774 247.764 35.094C247.764 37.2106 249.479 38.9265 251.593 38.9265Z" fill="#130C49"/>
<path d="M262.774 39.2338C260.491 39.2338 258.638 37.379 258.638 35.0942C258.638 32.8094 260.491 30.9546 262.774 30.9546C265.056 30.9546 266.91 32.8094 266.91 35.0942C266.91 37.379 265.056 39.2338 262.774 39.2338ZM262.774 31.5688C260.835 31.5688 259.252 33.1534 259.252 35.0942C259.252 37.035 260.835 38.6196 262.774 38.6196C264.713 38.6196 266.296 37.035 266.296 35.0942C266.296 33.1534 264.713 31.5688 262.774 31.5688Z" fill="#130C49"/>
<path d="M273.953 38.9265C276.068 38.9265 277.782 37.2106 277.782 35.094C277.782 32.9774 276.068 31.2615 273.953 31.2615C271.839 31.2615 270.124 32.9774 270.124 35.094C270.124 37.2106 271.839 38.9265 273.953 38.9265Z" fill="#130C49"/>
<path d="M47.9204 42.4778C53.2613 42.4778 57.5909 38.1441 57.5909 32.7982C57.5909 27.4523 53.2613 23.1187 47.9204 23.1187C42.5796 23.1187 38.25 27.4523 38.25 32.7982C38.25 38.1441 42.5796 42.4778 47.9204 42.4778Z" fill="#7487EC"/>
<path d="M47.93 43.0917C44.8865 43.0917 41.8798 41.7528 39.8549 39.1855C36.3328 34.7388 37.0937 28.2407 41.5362 24.7275C45.9787 21.2021 52.4707 21.9637 55.9805 26.4104C59.5026 30.8571 58.7417 37.3552 54.2992 40.8683C52.4093 42.3547 50.1635 43.0794 47.93 43.0794V43.0917ZM47.9054 23.7448C45.9419 23.7448 43.9538 24.3836 42.2971 25.6979C38.3823 28.8057 37.7196 34.5177 40.8122 38.4362C43.9047 42.3547 49.6235 43.018 53.5383 39.9225C57.4532 36.8147 58.1158 31.1028 55.0233 27.1843C53.2438 24.9241 50.5808 23.7448 47.9054 23.7448Z" fill="#130C49"/>
<path d="M52.7792 17.8928L50.8032 23.3298L51.9565 23.7498L53.9325 18.3127L52.7792 17.8928Z" fill="#130C49"/>
<path d="M38.5045 33.7077L32.769 34.4258L32.9214 35.6447L38.6568 34.9265L38.5045 33.7077Z" fill="#130C49"/>
<path d="M54.2957 40.1407L53.3391 40.9103L56.9602 45.4199L57.9167 44.6503L54.2957 40.1407Z" fill="#130C49"/>
<path d="M60.2782 53.2751C62.7589 53.2751 64.7698 51.2623 64.7698 48.7793C64.7698 46.2963 62.7589 44.2834 60.2782 44.2834C57.7976 44.2834 55.7866 46.2963 55.7866 48.7793C55.7866 51.2623 57.7976 53.2751 60.2782 53.2751Z" fill="#ECF4F8"/>
<path d="M60.291 53.877C60.0946 53.877 59.886 53.877 59.6896 53.8402C58.3397 53.6805 57.1248 53.0049 56.278 51.9362C54.5354 49.7251 54.9035 46.5068 57.1125 44.7625C58.1802 43.9149 59.5178 43.5464 60.8678 43.6938C62.2177 43.8535 63.4326 44.5291 64.2794 45.5978C65.1262 46.6665 65.5066 48.0054 65.3471 49.3566C65.1876 50.7078 64.5126 51.9239 63.4449 52.7715C62.5368 53.4962 61.4323 53.877 60.291 53.877ZM60.2664 44.8976C59.3951 44.8976 58.5606 45.1924 57.8734 45.7329C56.2044 47.0595 55.9098 49.504 57.2352 51.1746C57.8734 51.9853 58.7938 52.5012 59.8246 52.6241C60.8555 52.7469 61.8618 52.4521 62.6718 51.8134C63.4817 51.1746 63.9972 50.2533 64.1199 49.2215C64.2426 48.1897 63.9481 47.1824 63.3099 46.3717C62.6718 45.5609 61.7514 45.045 60.7205 44.9222C60.5732 44.9099 60.4137 44.8976 60.2664 44.8976Z" fill="#130C49"/>
<path d="M55.0392 18.5493C57.5198 18.5493 59.5308 16.5364 59.5308 14.0535C59.5308 11.5705 57.5198 9.55762 55.0392 9.55762C52.5586 9.55762 50.5476 11.5705 50.5476 14.0535C50.5476 16.5364 52.5586 18.5493 55.0392 18.5493Z" fill="#7487EC"/>
<path d="M55.0514 19.1507C53.5419 19.1507 52.057 18.4873 51.0507 17.2098C49.3081 14.9988 49.6762 11.7804 51.8852 10.0361C54.0942 8.29183 57.3095 8.66034 59.0521 10.8714C60.7948 13.0825 60.4266 16.3008 58.2176 18.0451C57.2849 18.7821 56.1682 19.1384 55.0637 19.1384L55.0514 19.1507ZM55.0391 10.1712C54.1924 10.1712 53.3456 10.4415 52.6338 11.0065C50.9648 12.3332 50.6703 14.7776 51.9957 16.4482C53.321 18.1311 55.7632 18.4136 57.4322 17.087C59.1012 15.7603 59.3957 13.3159 58.0704 11.6453C57.3095 10.6749 56.1682 10.1712 55.0269 10.1712H55.0391Z" fill="#130C49"/>
<path d="M28.1957 40.2052C30.6763 40.2052 32.6873 38.1923 32.6873 35.7093C32.6873 33.2264 30.6763 31.2135 28.1957 31.2135C25.7151 31.2135 23.7041 33.2264 23.7041 35.7093C23.7041 38.1923 25.7151 40.2052 28.1957 40.2052Z" fill="#130C49"/>
<path d="M28.2087 40.8068C28.0124 40.8068 27.8037 40.8068 27.6074 40.7699C26.2574 40.6102 25.0425 39.9346 24.1957 38.866C22.4531 36.6549 22.8213 33.4365 25.0302 31.6923C27.2392 29.948 30.4545 30.3165 32.1971 32.5275C33.0439 33.5962 33.4244 34.9352 33.2648 36.2864C33.1053 37.6376 32.4303 38.8537 31.3626 39.7012C30.4545 40.426 29.35 40.8068 28.2087 40.8068ZM28.1964 31.8274C27.3497 31.8274 26.5029 32.0976 25.7911 32.6627C24.1221 33.9893 23.8276 36.4338 25.153 38.1044C25.7911 38.9151 26.7115 39.431 27.7424 39.5538C28.7732 39.6767 29.7795 39.3819 30.5895 38.7431C31.3995 38.1044 31.9149 37.1831 32.0376 36.1512C32.1603 35.1194 31.8658 34.1121 31.2277 33.3014C30.4668 32.331 29.3255 31.8274 28.1842 31.8274H28.1964Z" fill="#130C49"/>
<path d="M286 133.475H247.527V135.932H286V133.475Z" fill="#130C49"/>
<path d="M270.944 125.478H247.185V127.935H270.944V125.478Z" fill="#130C49"/>
<rect x="111.96" y="163.706" width="118.545" height="24.4617" fill="#130C49"/>
<path d="M230.504 0H111.958V163.705H230.504V0Z" fill="#ECF4F8"/>
<path d="M230.826 189.108H111.21V0H230.826V189.108ZM112.13 188.187H229.906V0.92128H112.13V188.187Z" fill="#130C49"/>
<path d="M161.041 99.0184H130.606C128.105 99.0184 126.078 101.048 126.078 103.551V134.015C126.078 136.518 128.105 138.547 130.606 138.547H161.041C163.542 138.547 165.569 136.518 165.569 134.015V103.551C165.569 101.048 163.542 99.0184 161.041 99.0184Z" fill="#130C49"/>
<path d="M161.043 138.855H130.608C127.945 138.855 125.773 136.681 125.773 134.015V103.552C125.773 100.886 127.945 98.7118 130.608 98.7118H161.043C163.706 98.7118 165.878 100.886 165.878 103.552V134.015C165.878 136.681 163.706 138.855 161.043 138.855ZM130.608 99.326C128.276 99.326 126.387 101.218 126.387 103.552V134.015C126.387 136.349 128.276 138.241 130.608 138.241H161.043C163.375 138.241 165.265 136.349 165.265 134.015V103.552C165.265 101.218 163.375 99.326 161.043 99.326H130.608Z" fill="#130C49"/>
<path d="M155.852 120.687H143.138V107.961H155.852V120.687ZM143.752 120.073H155.226V108.588H143.752V120.073Z" fill="#ECF4F8"/>
<path d="M148.086 116.942H135.998V129.041H148.086V116.942Z" fill="#7487EC"/>
<path d="M152.676 69.1209V59.0113L143.938 53.9504L135.188 59.0113V69.1209L143.938 74.1695L152.676 69.1209Z" fill="#130C49"/>
<path d="M156.463 65.3621H148.892V72.9411H156.463V65.3621Z" fill="#7487EC"/>
<path d="M156.773 73.2484H148.587V65.0552H156.773V73.2484ZM149.201 72.6342H156.159V65.6694H149.201V72.6342Z" fill="#130C49"/>
<path d="M211.407 45.5356H180.972C178.471 45.5356 176.444 47.565 176.444 50.0683V80.532C176.444 83.0353 178.471 85.0647 180.972 85.0647H211.407C213.908 85.0647 215.936 83.0353 215.936 80.532V50.0683C215.936 47.565 213.908 45.5356 211.407 45.5356Z" fill="#130C49"/>
<path d="M211.409 85.372H180.975C178.312 85.372 176.139 83.1978 176.139 80.5322V50.0685C176.139 47.403 178.312 45.2288 180.975 45.2288H211.409C214.073 45.2288 216.245 47.403 216.245 50.0685V80.5322C216.245 83.1978 214.073 85.372 211.409 85.372ZM180.975 45.8429C178.643 45.8429 176.753 47.7346 176.753 50.0685V80.5322C176.753 82.8661 178.643 84.7578 180.975 84.7578H211.409C213.741 84.7578 215.631 82.8661 215.631 80.5322V50.0685C215.631 47.7346 213.741 45.8429 211.409 45.8429H180.975Z" fill="#130C49"/>
<path d="M185.012 67.8922C187.127 67.8922 188.841 66.1763 188.841 64.0597C188.841 61.9431 187.127 60.2272 185.012 60.2272C182.898 60.2272 181.183 61.9431 181.183 64.0597C181.183 66.1763 182.898 67.8922 185.012 67.8922Z" fill="#7487EC"/>
<path d="M196.194 68.1995C193.912 68.1995 192.059 66.3447 192.059 64.0599C192.059 61.7751 193.912 59.9203 196.194 59.9203C198.477 59.9203 200.33 61.7751 200.33 64.0599C200.33 66.3447 198.477 68.1995 196.194 68.1995ZM196.194 60.5345C194.255 60.5345 192.672 62.1191 192.672 64.0599C192.672 66.0007 194.255 67.5853 196.194 67.5853C198.133 67.5853 199.716 66.0007 199.716 64.0599C199.716 62.1191 198.133 60.5345 196.194 60.5345Z" fill="#ECF4F8"/>
<path d="M207.383 67.8922C209.498 67.8922 211.212 66.1763 211.212 64.0597C211.212 61.9431 209.498 60.2272 207.383 60.2272C205.268 60.2272 203.554 61.9431 203.554 64.0597C203.554 66.1763 205.268 67.8922 207.383 67.8922Z" fill="#ECF4F8"/>
<path d="M211.407 99.0184H180.972C178.471 99.0184 176.444 101.048 176.444 103.551V134.015C176.444 136.518 178.471 138.547 180.972 138.547H211.407C213.908 138.547 215.936 136.518 215.936 134.015V103.551C215.936 101.048 213.908 99.0184 211.407 99.0184Z" fill="#7487EC"/>
<path d="M211.409 138.855H180.975C178.312 138.855 176.139 136.681 176.139 134.015V103.552C176.139 100.886 178.312 98.7118 180.975 98.7118H211.409C214.073 98.7118 216.245 100.886 216.245 103.552V134.015C216.245 136.681 214.073 138.855 211.409 138.855ZM180.975 99.326C178.643 99.326 176.753 101.218 176.753 103.552V134.015C176.753 136.349 178.643 138.241 180.975 138.241H211.409C213.741 138.241 215.631 136.349 215.631 134.015V103.552C215.631 101.218 213.741 99.326 211.409 99.326H180.975Z" fill="#130C49"/>
<path d="M202.268 117.396C204.546 117.396 206.392 115.548 206.392 113.268C206.392 110.989 204.546 109.141 202.268 109.141C199.991 109.141 198.145 110.989 198.145 113.268C198.145 115.548 199.991 117.396 202.268 117.396Z" fill="#130C49"/>
<path d="M193.454 123.329L195.344 125.233C195.749 125.638 195.958 125.994 195.958 126.277C195.958 126.559 195.749 126.915 195.344 127.308C194.939 127.702 194.596 127.91 194.313 127.91C194.031 127.91 193.687 127.702 193.282 127.296L191.417 125.405L189.527 127.296C189.122 127.702 188.779 127.91 188.496 127.91C188.214 127.91 187.87 127.714 187.465 127.308C187.048 126.903 186.84 126.559 186.84 126.277C186.84 125.994 187.048 125.638 187.453 125.233L189.343 123.329L187.453 121.425C187.048 121.019 186.84 120.663 186.84 120.38C186.84 120.098 187.048 119.742 187.465 119.336C187.883 118.931 188.226 118.722 188.496 118.722C188.766 118.722 189.122 118.931 189.527 119.336L191.417 121.24L193.282 119.336C193.687 118.931 194.031 118.722 194.313 118.722C194.596 118.722 194.939 118.931 195.344 119.336C195.749 119.742 195.958 120.098 195.958 120.38C195.958 120.663 195.749 121.019 195.344 121.425L193.454 123.329Z" fill="#130C49"/>
<path d="M160.456 85.5193H159.155C158.897 85.5193 158.688 85.3104 158.688 85.0525C158.688 84.7945 158.897 84.5857 159.155 84.5857H160.394C160.652 84.5857 160.885 84.7945 160.885 85.0525C160.885 85.3104 160.713 85.5193 160.456 85.5193ZM156.676 85.5193H155.436C155.179 85.5193 154.97 85.3104 154.97 85.0525C154.97 84.7945 155.179 84.5857 155.436 84.5857H156.676C156.933 84.5857 157.142 84.7945 157.142 85.0525C157.142 85.3104 156.933 85.5193 156.676 85.5193ZM152.945 85.5193H151.706C151.448 85.5193 151.239 85.3104 151.239 85.0525C151.239 84.7945 151.448 84.5857 151.706 84.5857H152.945C153.203 84.5857 153.411 84.7945 153.411 85.0525C153.411 85.3104 153.203 85.5193 152.945 85.5193ZM149.214 85.5193H147.975C147.717 85.5193 147.508 85.3104 147.508 85.0525C147.508 84.7945 147.717 84.5857 147.975 84.5857H149.214C149.472 84.5857 149.681 84.7945 149.681 85.0525C149.681 85.3104 149.472 85.5193 149.214 85.5193ZM145.496 85.5193H144.256C143.999 85.5193 143.79 85.3104 143.79 85.0525C143.79 84.7945 143.999 84.5857 144.256 84.5857H145.496C145.754 84.5857 145.962 84.7945 145.962 85.0525C145.962 85.3104 145.754 85.5193 145.496 85.5193ZM141.765 85.5193H140.526C140.268 85.5193 140.059 85.3104 140.059 85.0525C140.059 84.7945 140.268 84.5857 140.526 84.5857H141.765C142.023 84.5857 142.231 84.7945 142.231 85.0525C142.231 85.3104 142.023 85.5193 141.765 85.5193ZM138.047 85.5193H136.807C136.549 85.5193 136.341 85.3104 136.341 85.0525C136.341 84.7945 136.549 84.5857 136.807 84.5857H138.047C138.304 84.5857 138.513 84.7945 138.513 85.0525C138.513 85.3104 138.304 85.5193 138.047 85.5193ZM134.316 85.5193H133.076C132.819 85.5193 132.61 85.3104 132.61 85.0525C132.61 84.7945 132.819 84.5857 133.076 84.5857H134.316C134.574 84.5857 134.782 84.7945 134.782 85.0525C134.782 85.3104 134.574 85.5193 134.316 85.5193ZM130.597 85.4824C130.597 85.4824 130.561 85.4824 130.536 85.4824C130.082 85.421 129.64 85.3104 129.223 85.1507C128.99 85.0525 128.867 84.7945 128.965 84.5488C129.063 84.3154 129.321 84.1926 129.567 84.2909C129.91 84.426 130.278 84.5243 130.659 84.5734C130.917 84.6103 131.088 84.8314 131.052 85.0893C131.027 85.3227 130.818 85.4947 130.597 85.4947V85.4824ZM162.836 84.9051C162.677 84.9051 162.517 84.8191 162.431 84.6594C162.309 84.4383 162.395 84.1558 162.628 84.0329C162.959 83.861 163.266 83.6398 163.548 83.3819C163.732 83.2099 164.027 83.2222 164.199 83.4187C164.37 83.603 164.358 83.8978 164.162 84.0698C163.818 84.3769 163.45 84.6348 163.057 84.8436C162.984 84.8805 162.91 84.8928 162.849 84.8928L162.836 84.9051ZM127.37 83.7627C127.247 83.7627 127.112 83.7135 127.026 83.603C126.732 83.2713 126.474 82.8905 126.265 82.4975C126.143 82.2764 126.229 81.9938 126.462 81.871C126.695 81.7481 126.965 81.8341 127.088 82.0675C127.259 82.3992 127.48 82.7186 127.726 83.0011C127.898 83.1976 127.873 83.4802 127.689 83.6521C127.603 83.7258 127.493 83.7627 127.382 83.7627H127.37ZM165.242 82.1658C165.242 82.1658 165.131 82.1658 165.082 82.1412C164.849 82.0552 164.726 81.785 164.812 81.5516C164.947 81.1954 165.033 80.8269 165.082 80.4584C165.107 80.2004 165.352 80.0284 165.598 80.053C165.855 80.0776 166.027 80.3109 166.003 80.5689C165.953 81.0111 165.843 81.4533 165.683 81.8833C165.61 82.0675 165.438 82.1781 165.254 82.1781L165.242 82.1658ZM126.081 80.3478C125.824 80.3478 125.615 80.1513 125.615 79.8933V78.6526C125.615 78.3947 125.824 78.1859 126.081 78.1859C126.339 78.1859 126.548 78.3947 126.548 78.6526V79.881C126.548 80.139 126.339 80.3478 126.081 80.3478ZM165.573 78.4807C165.315 78.4807 165.107 78.2719 165.107 78.0139V76.7732C165.107 76.5153 165.315 76.3065 165.573 76.3065C165.831 76.3065 166.039 76.5153 166.039 76.7732V78.0139C166.039 78.2719 165.831 78.4807 165.573 78.4807ZM126.081 76.6258C125.824 76.6258 125.615 76.417 125.615 76.159V74.9184C125.615 74.6604 125.824 74.4516 126.081 74.4516C126.339 74.4516 126.548 74.6604 126.548 74.9184V76.159C126.548 76.417 126.339 76.6258 126.081 76.6258ZM165.573 74.7464C165.315 74.7464 165.107 74.5376 165.107 74.2796V73.039C165.107 72.781 165.315 72.5722 165.573 72.5722C165.831 72.5722 166.039 72.781 166.039 73.039V74.2796C166.039 74.5376 165.831 74.7464 165.573 74.7464ZM126.081 72.8916C125.824 72.8916 125.615 72.6828 125.615 72.4248V71.1841C125.615 70.9262 125.824 70.7174 126.081 70.7174C126.339 70.7174 126.548 70.9262 126.548 71.1841V72.4248C126.548 72.6828 126.339 72.8916 126.081 72.8916ZM165.573 71.0244C165.315 71.0244 165.107 70.8156 165.107 70.5577V69.317C165.107 69.0591 165.315 68.8502 165.573 68.8502C165.831 68.8502 166.039 69.0591 166.039 69.317V70.5577C166.039 70.8156 165.831 71.0244 165.573 71.0244ZM126.081 69.1696C125.824 69.1696 125.615 68.9608 125.615 68.7028V67.4622C125.615 67.2042 125.824 66.9954 126.081 66.9954C126.339 66.9954 126.548 67.2042 126.548 67.4622V68.7028C126.548 68.9608 126.339 69.1696 126.081 69.1696ZM165.573 67.2902C165.315 67.2902 165.107 67.0814 165.107 66.8234V65.5828C165.107 65.3248 165.315 65.116 165.573 65.116C165.831 65.116 166.039 65.3248 166.039 65.5828V66.8234C166.039 67.0814 165.831 67.2902 165.573 67.2902ZM126.081 65.4354C125.824 65.4354 125.615 65.2265 125.615 64.9686V63.7279C125.615 63.47 125.824 63.2611 126.081 63.2611C126.339 63.2611 126.548 63.47 126.548 63.7279V64.9686C126.548 65.2265 126.339 65.4354 126.081 65.4354ZM165.573 63.5682C165.315 63.5682 165.107 63.3594 165.107 63.1014V61.8608C165.107 61.6028 165.315 61.394 165.573 61.394C165.831 61.394 166.039 61.6028 166.039 61.8608V63.1014C166.039 63.3594 165.831 63.5682 165.573 63.5682ZM126.081 61.7134C125.824 61.7134 125.615 61.5046 125.615 61.2466V60.0059C125.615 59.748 125.824 59.5392 126.081 59.5392C126.339 59.5392 126.548 59.748 126.548 60.0059V61.2466C126.548 61.5046 126.339 61.7134 126.081 61.7134ZM165.573 59.834C165.315 59.834 165.107 59.6251 165.107 59.3672V58.1265C165.107 57.8686 165.315 57.6597 165.573 57.6597C165.831 57.6597 166.039 57.8686 166.039 58.1265V59.3672C166.039 59.6251 165.831 59.834 165.573 59.834ZM126.081 57.9791C125.824 57.9791 125.615 57.7703 125.615 57.5123V56.2717C125.615 56.0137 125.824 55.8049 126.081 55.8049C126.339 55.8049 126.548 56.0137 126.548 56.2717V57.5123C126.548 57.7703 126.339 57.9791 126.081 57.9791ZM165.573 56.0997C165.315 56.0997 165.107 55.8909 165.107 55.6329V54.3923C165.107 54.1343 165.315 53.9255 165.573 53.9255C165.831 53.9255 166.039 54.1343 166.039 54.3923V55.6329C166.039 55.8909 165.831 56.0997 165.573 56.0997ZM126.081 54.2449C125.824 54.2449 125.615 54.036 125.615 53.7781V52.5374C125.615 52.2795 125.824 52.0707 126.081 52.0707C126.339 52.0707 126.548 52.2795 126.548 52.5374V53.7781C126.548 54.036 126.339 54.2449 126.081 54.2449ZM165.573 52.3777C165.315 52.3777 165.107 52.1689 165.107 51.911V50.7072C165.107 50.4492 165.315 50.2281 165.573 50.2281C165.831 50.2281 166.027 50.4123 166.027 50.6703H165.561L166.027 50.6949V51.911C166.027 52.1689 165.818 52.3777 165.573 52.3777ZM126.118 50.5229C126.118 50.5229 126.081 50.5229 126.057 50.5229C125.799 50.4861 125.627 50.2649 125.652 50.007C125.713 49.5525 125.824 49.1103 125.983 48.6926C126.069 48.4592 126.339 48.3364 126.572 48.4347C126.805 48.5207 126.928 48.7909 126.842 49.0243C126.707 49.3805 126.609 49.749 126.572 50.1175C126.548 50.3509 126.339 50.5229 126.118 50.5229ZM164.972 48.7418C164.812 48.7418 164.653 48.6558 164.567 48.4961C164.395 48.1644 164.174 47.8573 163.916 47.5748C163.744 47.3905 163.769 47.0957 163.953 46.9238C164.137 46.7518 164.432 46.7764 164.604 46.9606C164.91 47.3046 165.168 47.6731 165.377 48.0662C165.499 48.2873 165.413 48.5698 165.18 48.6926C165.107 48.7295 165.033 48.7418 164.959 48.7418H164.972ZM127.824 47.2923C127.701 47.2923 127.566 47.2431 127.48 47.1326C127.309 46.936 127.333 46.6535 127.517 46.4816C127.861 46.1867 128.229 45.9288 128.622 45.72C128.843 45.5971 129.125 45.6831 129.248 45.9165C129.37 46.1376 129.284 46.4201 129.051 46.543C128.72 46.7149 128.413 46.9361 128.119 47.1817C128.033 47.2554 127.922 47.2923 127.812 47.2923H127.824ZM162.235 46.3341C162.235 46.3341 162.125 46.3341 162.075 46.3096C161.72 46.1745 161.351 46.0885 160.983 46.0393C160.726 46.0025 160.554 45.7814 160.578 45.5234C160.603 45.2655 160.836 45.1058 161.094 45.1181C161.535 45.1672 161.977 45.2777 162.407 45.4374C162.64 45.5234 162.763 45.7937 162.677 46.0271C162.603 46.2113 162.431 46.3219 162.247 46.3219L162.235 46.3341ZM158.553 45.9902H157.314C157.056 45.9902 156.848 45.7814 156.848 45.5234C156.848 45.2655 157.056 45.0566 157.314 45.0566H158.553C158.811 45.0566 159.02 45.2655 159.02 45.5234C159.02 45.7814 158.811 45.9902 158.553 45.9902ZM154.823 45.9902H153.583C153.325 45.9902 153.117 45.7814 153.117 45.5234C153.117 45.2655 153.325 45.0566 153.583 45.0566H154.823C155.08 45.0566 155.289 45.2655 155.289 45.5234C155.289 45.7814 155.08 45.9902 154.823 45.9902ZM151.104 45.9902H149.865C149.607 45.9902 149.398 45.7814 149.398 45.5234C149.398 45.2655 149.607 45.0566 149.865 45.0566H151.104C151.362 45.0566 151.571 45.2655 151.571 45.5234C151.571 45.7814 151.362 45.9902 151.104 45.9902ZM147.373 45.9902H146.134C145.876 45.9902 145.668 45.7814 145.668 45.5234C145.668 45.2655 145.876 45.0566 146.134 45.0566H147.373C147.631 45.0566 147.84 45.2655 147.84 45.5234C147.84 45.7814 147.631 45.9902 147.373 45.9902ZM143.655 45.9902H142.416C142.158 45.9902 141.949 45.7814 141.949 45.5234C141.949 45.2655 142.158 45.0566 142.416 45.0566H143.655C143.913 45.0566 144.121 45.2655 144.121 45.5234C144.121 45.7814 143.913 45.9902 143.655 45.9902ZM139.924 45.9902H138.685C138.427 45.9902 138.218 45.7814 138.218 45.5234C138.218 45.2655 138.427 45.0566 138.685 45.0566H139.924C140.182 45.0566 140.391 45.2655 140.391 45.5234C140.391 45.7814 140.182 45.9902 139.924 45.9902ZM136.194 45.9902H134.954C134.696 45.9902 134.488 45.7814 134.488 45.5234C134.488 45.2655 134.696 45.0566 134.954 45.0566H136.194C136.451 45.0566 136.66 45.2655 136.66 45.5234C136.66 45.7814 136.451 45.9902 136.194 45.9902ZM132.475 45.9902H131.26C131.002 45.9902 130.782 45.7814 130.782 45.5234C130.782 45.2655 130.978 45.0566 131.223 45.0566H132.463C132.721 45.0566 132.929 45.2655 132.929 45.5234C132.929 45.7814 132.721 45.9902 132.463 45.9902H132.475Z" fill="#130C49"/>
<path d="M229.833 0.466797H111.665V15.76H229.833V0.466797Z" fill="#130C49"/>
<path d="M230.505 163.706H111.96V164.646H230.505V163.706Z" fill="#130C49"/>
<path d="M136 63.6047H86.1997V64.526H136V63.6047Z" fill="#130C49"/>
<path d="M63.1401 151.017V137.124C63.1401 135.834 62.4529 134.643 61.3361 134.004L49.3095 127.051C48.1927 126.412 46.8182 126.412 45.7137 127.051L33.6871 134.004C32.5703 134.643 31.8831 135.834 31.8831 137.124V151.017C31.8831 152.307 32.5703 153.498 33.6871 154.137L45.7137 161.089C46.8305 161.728 48.205 161.728 49.3095 161.089L61.3361 154.137C62.4529 153.498 63.1401 152.307 63.1401 151.017Z" fill="#130C49"/>
<path d="M51.1524 139.261V143.745L47.5076 141.632L43.875 143.745V139.261L39.543 141.767V146.509L43.6419 148.88L47.5076 146.644L51.3856 148.88L55.4722 146.509V141.767L51.1524 139.261Z" fill="#61D384"/>
<path d="M171.012 182.782C174.394 182.782 177.136 180.038 177.136 176.652C177.136 173.267 174.394 170.523 171.012 170.523C167.63 170.523 164.888 173.267 164.888 176.652C164.888 180.038 167.63 182.782 171.012 182.782Z" fill="#7487EC"/>
</svg>
