<svg width="64" height="64" viewBox="0 0 64 64" fill="none" xmlns="http://www.w3.org/2000/svg">
<g id="rag-2">
<path id="Vector" d="M31.8861 63.1877C48.944 63.1877 62.7722 49.2665 62.7722 32.0939C62.7722 14.9212 48.944 1 31.8861 1C14.8282 1 1 14.9212 1 32.0939C1 49.2665 14.8282 63.1877 31.8861 63.1877Z" stroke="#130C49" stroke-miterlimit="10"/>
<g id="Group">
<path id="Vector_2" d="M33.7884 63.1335C46.4021 63.1335 56.6275 52.8393 56.6275 40.1407C56.6275 27.4422 46.4021 17.1479 33.7884 17.1479C21.1747 17.1479 10.9492 27.4422 10.9492 40.1407C10.9492 52.8393 21.1747 63.1335 33.7884 63.1335Z" stroke="#130C49" stroke-miterlimit="10"/>
<path id="Vector_3" d="M36.4886 62.5163C43.9511 62.5163 50.0006 56.4261 50.0006 48.9134C50.0006 41.4008 43.9511 35.3105 36.4886 35.3105C29.0262 35.3105 22.9766 41.4008 22.9766 48.9134C22.9766 56.4261 29.0262 62.5163 36.4886 62.5163Z" stroke="#130C49" stroke-miterlimit="10"/>
<path id="Vector_4" d="M23.3979 23.8738C25.7923 23.8738 27.7334 21.9197 27.7334 19.5092C27.7334 17.0986 25.7923 15.1445 23.3979 15.1445C21.0035 15.1445 19.0625 17.0986 19.0625 19.5092C19.0625 21.9197 21.0035 23.8738 23.3979 23.8738Z" fill="#61BB73"/>
<path id="Vector_5" d="M43.7378 42.0579C46.1322 42.0579 48.0733 40.1037 48.0733 37.6932C48.0733 35.2827 46.1322 33.3286 43.7378 33.3286C41.3434 33.3286 39.4023 35.2827 39.4023 37.6932C39.4023 40.1037 41.3434 42.0579 43.7378 42.0579Z" fill="#61BB73"/>
</g>
</g>
</svg>
