<svg width="193" height="134" viewBox="0 0 193 134" fill="none" xmlns="http://www.w3.org/2000/svg">
<path d="M13.7981 4.44509C13.7981 2.41298 15.4454 0.765625 17.4775 0.765625H83.7078C85.7399 0.765625 87.3873 2.41298 87.3873 4.44509V15.4835C87.3873 17.5156 85.7399 19.1629 83.7078 19.1629H17.4775C15.4454 19.1629 13.7981 17.5156 13.7981 15.4835V4.44509Z" fill="#BCF0A7"/>
<path fill-rule="evenodd" clip-rule="evenodd" d="M83.7078 1.99211H17.4775C16.1228 1.99211 15.0246 3.09035 15.0246 4.44509V15.4835C15.0246 16.8382 16.1228 17.9364 17.4775 17.9364H83.7078C85.0626 17.9364 86.1608 16.8382 86.1608 15.4835V4.44509C86.1608 3.09035 85.0626 1.99211 83.7078 1.99211ZM17.4775 0.765625C15.4454 0.765625 13.7981 2.41298 13.7981 4.44509V15.4835C13.7981 17.5156 15.4454 19.1629 17.4775 19.1629H83.7078C85.7399 19.1629 87.3873 17.5156 87.3873 15.4835V4.44509C87.3873 2.41298 85.7399 0.765625 83.7078 0.765625H17.4775Z" fill="#130C49"/>
<path d="M13.7981 40.0132C13.7981 37.9811 15.4454 36.3338 17.4775 36.3338H83.7078C85.7399 36.3338 87.3873 37.9811 87.3873 40.0132V51.0516C87.3873 53.0837 85.7399 54.7311 83.7078 54.7311H17.4775C15.4454 54.7311 13.7981 53.0837 13.7981 51.0516V40.0132Z" fill="#85E3DA"/>
<path fill-rule="evenodd" clip-rule="evenodd" d="M83.7078 37.1923H17.4775C15.9196 37.1923 14.6566 38.4553 14.6566 40.0132V51.0516C14.6566 52.6096 15.9196 53.8725 17.4775 53.8725H83.7078C85.2658 53.8725 86.5287 52.6096 86.5287 51.0516V40.0132C86.5287 38.4553 85.2658 37.1923 83.7078 37.1923ZM17.4775 36.3338C15.4454 36.3338 13.7981 37.9811 13.7981 40.0132V51.0516C13.7981 53.0837 15.4454 54.7311 17.4775 54.7311H83.7078C85.7399 54.7311 87.3873 53.0837 87.3873 51.0516V40.0132C87.3873 37.9811 85.7399 36.3338 83.7078 36.3338H17.4775Z" fill="#130C49"/>
<path d="M13.7981 119.048C13.7981 117.016 15.4454 115.368 17.4775 115.368H83.7078C85.7399 115.368 87.3873 117.016 87.3873 119.048V130.086C87.3873 132.118 85.7399 133.766 83.7078 133.766H17.4775C15.4454 133.766 13.7981 132.118 13.7981 130.086V119.048Z" fill="#85E3BC"/>
<path fill-rule="evenodd" clip-rule="evenodd" d="M83.7078 116.595H17.4775C16.1228 116.595 15.0246 117.693 15.0246 119.048V130.086C15.0246 131.441 16.1228 132.539 17.4775 132.539H83.7078C85.0626 132.539 86.1608 131.441 86.1608 130.086V119.048C86.1608 117.693 85.0626 116.595 83.7078 116.595ZM17.4775 115.368C15.4454 115.368 13.7981 117.016 13.7981 119.048V130.086C13.7981 132.118 15.4454 133.766 17.4775 133.766H83.7078C85.7399 133.766 87.3873 132.118 87.3873 130.086V119.048C87.3873 117.016 85.7399 115.368 83.7078 115.368H17.4775Z" fill="#130C49"/>
<path d="M67.4956 127.73C67.0444 127.73 66.6551 127.631 66.3279 127.431C66.0027 127.23 65.7517 126.95 65.5749 126.59C65.4001 126.228 65.3127 125.807 65.3127 125.328C65.3127 124.848 65.4001 124.425 65.5749 124.059C65.7517 123.692 65.9976 123.405 66.3127 123.2C66.6297 122.992 66.9997 122.889 67.4224 122.889C67.6663 122.889 67.9072 122.929 68.145 123.011C68.3828 123.092 68.5993 123.224 68.7944 123.407C68.9895 123.588 69.145 123.828 69.2608 124.126C69.3767 124.425 69.4346 124.793 69.4346 125.23V125.535H65.8249V124.913H68.7029C68.7029 124.649 68.6501 124.413 68.5444 124.206C68.4407 123.998 68.2923 123.835 68.0993 123.715C67.9082 123.595 67.6826 123.535 67.4224 123.535C67.1358 123.535 66.8879 123.606 66.6785 123.748C66.4712 123.889 66.3116 124.072 66.1999 124.297C66.0881 124.523 66.0322 124.765 66.0322 125.023V125.437C66.0322 125.791 66.0931 126.091 66.2151 126.337C66.3391 126.581 66.5108 126.767 66.7303 126.895C66.9499 127.021 67.2049 127.084 67.4956 127.084C67.6846 127.084 67.8553 127.057 68.0078 127.005C68.1623 126.95 68.2954 126.868 68.4072 126.761C68.519 126.651 68.6054 126.515 68.6663 126.352L69.3615 126.547C69.2883 126.783 69.1653 126.99 68.9926 127.169C68.8198 127.346 68.6064 127.484 68.3523 127.584C68.0982 127.681 67.8127 127.73 67.4956 127.73Z" fill="#130C49"/>
<path d="M64.3649 123.998L63.7185 124.181C63.6779 124.074 63.6179 123.969 63.5387 123.867C63.4614 123.764 63.3557 123.678 63.2216 123.611C63.0874 123.544 62.9157 123.511 62.7063 123.511C62.4198 123.511 62.1809 123.577 61.9899 123.709C61.8009 123.839 61.7063 124.005 61.7063 124.206C61.7063 124.385 61.7714 124.526 61.9015 124.63C62.0315 124.733 62.2348 124.82 62.5112 124.889L63.2064 125.059C63.6251 125.161 63.937 125.317 64.1423 125.526C64.3476 125.733 64.4503 126 64.4503 126.328C64.4503 126.596 64.373 126.836 64.2186 127.047C64.0661 127.259 63.8527 127.425 63.5783 127.547C63.3039 127.669 62.9848 127.73 62.621 127.73C62.1433 127.73 61.748 127.627 61.435 127.419C61.122 127.212 60.9238 126.909 60.8405 126.511L61.5234 126.34C61.5885 126.592 61.7114 126.781 61.8923 126.907C62.0752 127.033 62.3141 127.096 62.6088 127.096C62.9442 127.096 63.2104 127.025 63.4076 126.883C63.6068 126.738 63.7064 126.566 63.7064 126.364C63.7064 126.202 63.6494 126.066 63.5356 125.956C63.4218 125.844 63.247 125.761 63.0112 125.706L62.2307 125.523C61.8019 125.421 61.4868 125.264 61.2856 125.05C61.0864 124.835 60.9868 124.566 60.9868 124.242C60.9868 123.978 61.061 123.744 61.2094 123.541C61.3598 123.338 61.5641 123.178 61.8222 123.062C62.0824 122.947 62.3771 122.889 62.7063 122.889C63.1698 122.889 63.5336 122.99 63.7978 123.194C64.0641 123.397 64.2531 123.665 64.3649 123.998Z" fill="#130C49"/>
<path d="M56.7457 124.816V127.633H56.0262V122.95H56.7213V123.681H56.7823C56.8921 123.444 57.0587 123.253 57.2823 123.108C57.5059 122.962 57.7945 122.889 58.1482 122.889C58.4652 122.889 58.7427 122.954 58.9805 123.084C59.2183 123.212 59.4032 123.407 59.5354 123.669C59.6675 123.929 59.7335 124.259 59.7335 124.657V127.633H59.014V124.706C59.014 124.338 58.9185 124.051 58.7274 123.846C58.5364 123.639 58.2742 123.535 57.9408 123.535C57.7112 123.535 57.5059 123.585 57.325 123.684C57.1461 123.784 57.0049 123.929 56.9012 124.12C56.7975 124.311 56.7457 124.543 56.7457 124.816Z" fill="#130C49"/>
<path d="M52.8054 127.73C52.3827 127.73 52.0117 127.63 51.6926 127.428C51.3755 127.227 51.1276 126.946 50.9487 126.584C50.7719 126.222 50.6835 125.799 50.6835 125.316C50.6835 124.828 50.7719 124.402 50.9487 124.038C51.1276 123.674 51.3755 123.392 51.6926 123.191C52.0117 122.989 52.3827 122.889 52.8054 122.889C53.2282 122.889 53.5981 122.989 53.9152 123.191C54.2343 123.392 54.4823 123.674 54.6591 124.038C54.838 124.402 54.9274 124.828 54.9274 125.316C54.9274 125.799 54.838 126.222 54.6591 126.584C54.4823 126.946 54.2343 127.227 53.9152 127.428C53.5981 127.63 53.2282 127.73 52.8054 127.73ZM52.8054 127.084C53.1266 127.084 53.3908 127.002 53.5981 126.837C53.8054 126.672 53.9589 126.456 54.0585 126.187C54.1581 125.919 54.2079 125.629 54.2079 125.316C54.2079 125.003 54.1581 124.711 54.0585 124.441C53.9589 124.17 53.8054 123.952 53.5981 123.785C53.3908 123.618 53.1266 123.535 52.8054 123.535C52.4843 123.535 52.2201 123.618 52.0127 123.785C51.8054 123.952 51.652 124.17 51.5524 124.441C51.4528 124.711 51.403 125.003 51.403 125.316C51.403 125.629 51.4528 125.919 51.5524 126.187C51.652 126.456 51.8054 126.672 52.0127 126.837C52.2201 127.002 52.4843 127.084 52.8054 127.084Z" fill="#130C49"/>
<path d="M45.6698 129.389V122.95H46.3649V123.694H46.4503C46.5031 123.612 46.5763 123.509 46.6698 123.383C46.7653 123.255 46.9015 123.141 47.0783 123.041C47.2572 122.94 47.499 122.889 47.8039 122.889C48.1982 122.889 48.5458 122.987 48.8466 123.184C49.1474 123.382 49.3822 123.661 49.5509 124.023C49.7196 124.385 49.8039 124.811 49.8039 125.303C49.8039 125.799 49.7196 126.229 49.5509 126.593C49.3822 126.955 49.1484 127.235 48.8497 127.434C48.5509 127.632 48.2064 127.73 47.8161 127.73C47.5153 127.73 47.2745 127.68 47.0936 127.581C46.9127 127.479 46.7734 127.364 46.6759 127.236C46.5783 127.106 46.5031 126.998 46.4503 126.913H46.3893V129.389H45.6698ZM46.3771 125.291C46.3771 125.645 46.4289 125.957 46.5326 126.227C46.6362 126.495 46.7877 126.706 46.9868 126.858C47.186 127.009 47.4299 127.084 47.7186 127.084C48.0194 127.084 48.2704 127.005 48.4716 126.846C48.6749 126.685 48.8273 126.47 48.9289 126.2C49.0326 125.927 49.0844 125.624 49.0844 125.291C49.0844 124.962 49.0336 124.665 48.932 124.401C48.8324 124.135 48.681 123.924 48.4777 123.77C48.2765 123.613 48.0234 123.535 47.7186 123.535C47.4259 123.535 47.1799 123.609 46.9808 123.758C46.7816 123.904 46.6312 124.109 46.5295 124.373C46.4279 124.636 46.3771 124.942 46.3771 125.291Z" fill="#130C49"/>
<path d="M44.5009 123.998L43.8546 124.181C43.8139 124.074 43.754 123.969 43.6747 123.867C43.5975 123.764 43.4918 123.678 43.3576 123.611C43.2235 123.544 43.0517 123.511 42.8424 123.511C42.5558 123.511 42.317 123.577 42.1259 123.709C41.9369 123.839 41.8424 124.005 41.8424 124.206C41.8424 124.385 41.9074 124.526 42.0375 124.63C42.1676 124.733 42.3708 124.82 42.6473 124.889L43.3424 125.059C43.7611 125.161 44.0731 125.317 44.2784 125.526C44.4837 125.733 44.5863 126 44.5863 126.328C44.5863 126.596 44.5091 126.836 44.3546 127.047C44.2022 127.259 43.9887 127.425 43.7144 127.547C43.44 127.669 43.1209 127.73 42.757 127.73C42.2794 127.73 41.8841 127.627 41.571 127.419C41.258 127.212 41.0599 126.909 40.9765 126.511L41.6595 126.34C41.7245 126.592 41.8475 126.781 42.0284 126.907C42.2113 127.033 42.4501 127.096 42.7448 127.096C43.0802 127.096 43.3465 127.025 43.5436 126.883C43.7428 126.738 43.8424 126.566 43.8424 126.364C43.8424 126.202 43.7855 126.066 43.6717 125.956C43.5578 125.844 43.383 125.761 43.1473 125.706L42.3668 125.523C41.9379 125.421 41.6229 125.264 41.4217 125.05C41.2225 124.835 41.1229 124.566 41.1229 124.242C41.1229 123.978 41.1971 123.744 41.3454 123.541C41.4958 123.338 41.7001 123.178 41.9582 123.062C42.2184 122.947 42.5131 122.889 42.8424 122.889C43.3058 122.889 43.6696 122.99 43.9339 123.194C44.2001 123.397 44.3891 123.665 44.5009 123.998Z" fill="#130C49"/>
<path d="M38.1504 127.73C37.6992 127.73 37.3099 127.631 36.9827 127.431C36.6575 127.23 36.4065 126.95 36.2296 126.59C36.0548 126.228 35.9674 125.807 35.9674 125.328C35.9674 124.848 36.0548 124.425 36.2296 124.059C36.4065 123.692 36.6524 123.405 36.9674 123.2C37.2845 122.992 37.6544 122.889 38.0772 122.889C38.3211 122.889 38.562 122.929 38.7998 123.011C39.0376 123.092 39.254 123.224 39.4492 123.407C39.6443 123.588 39.7998 123.828 39.9156 124.126C40.0315 124.425 40.0894 124.793 40.0894 125.23V125.535H36.4796V124.913H39.3577C39.3577 124.649 39.3049 124.413 39.1992 124.206C39.0955 123.998 38.9471 123.835 38.754 123.715C38.563 123.595 38.3374 123.535 38.0772 123.535C37.7906 123.535 37.5426 123.606 37.3333 123.748C37.126 123.889 36.9664 124.072 36.8546 124.297C36.7428 124.523 36.687 124.765 36.687 125.023V125.437C36.687 125.791 36.7479 126.091 36.8699 126.337C36.9939 126.581 37.1656 126.767 37.3851 126.895C37.6046 127.021 37.8597 127.084 38.1504 127.084C38.3394 127.084 38.5101 127.057 38.6626 127.005C38.817 126.95 38.9502 126.868 39.062 126.761C39.1738 126.651 39.2601 126.515 39.3211 126.352L40.0162 126.547C39.9431 126.783 39.8201 126.99 39.6473 127.169C39.4746 127.346 39.2612 127.484 39.0071 127.584C38.753 127.681 38.4675 127.73 38.1504 127.73Z" fill="#130C49"/>
<path d="M30.8447 127.633V121.389H32.9545C33.4423 121.389 33.8427 121.473 34.1557 121.639C34.4687 121.804 34.7004 122.03 34.8508 122.319C35.0012 122.608 35.0764 122.936 35.0764 123.304C35.0764 123.672 35.0012 123.998 34.8508 124.283C34.7004 124.567 34.4697 124.791 34.1587 124.953C33.8478 125.114 33.4504 125.194 32.9667 125.194H31.2593V124.511H32.9423C33.2756 124.511 33.5439 124.462 33.7471 124.365C33.9524 124.267 34.1008 124.129 34.1923 123.95C34.2858 123.769 34.3325 123.554 34.3325 123.304C34.3325 123.054 34.2858 122.835 34.1923 122.648C34.0988 122.461 33.9494 122.317 33.7441 122.215C33.5388 122.112 33.2675 122.06 32.9301 122.06H31.6008V127.633H30.8447ZM33.7837 124.828L35.3203 127.633H34.4423L32.9301 124.828H33.7837Z" fill="#130C49"/>
<path d="M64.2739 8.34675V8.95651H61.8471V8.34675H64.2739ZM62.5544 7.2248H63.2739V11.6882C63.2739 11.8915 63.3034 12.0439 63.3623 12.1456C63.4233 12.2451 63.5005 12.3122 63.594 12.3468C63.6896 12.3793 63.7902 12.3956 63.8959 12.3956C63.9751 12.3956 64.0402 12.3915 64.091 12.3834C64.1418 12.3732 64.1825 12.3651 64.2129 12.359L64.3593 13.0053C64.3105 13.0236 64.2424 13.0419 64.155 13.0602C64.0676 13.0805 63.9568 13.0907 63.8227 13.0907C63.6194 13.0907 63.4203 13.047 63.2251 12.9596C63.032 12.8722 62.8715 12.7391 62.7434 12.5602C62.6174 12.3813 62.5544 12.1557 62.5544 11.8834V7.2248Z" fill="#130C49"/>
<path d="M57.0047 14.786V8.34698H57.6999V9.09089H57.7852C57.8381 9.00959 57.9112 8.90593 58.0047 8.77991C58.1003 8.65186 58.2364 8.53804 58.4133 8.43845C58.5921 8.33682 58.834 8.28601 59.1389 8.28601C59.5332 8.28601 59.8808 8.38458 60.1816 8.58174C60.4824 8.7789 60.7171 9.05837 60.8858 9.42016C61.0545 9.78195 61.1389 10.2088 61.1389 10.7007C61.1389 11.1966 61.0545 11.6265 60.8858 11.9903C60.7171 12.3521 60.4834 12.6326 60.1846 12.8318C59.8858 13.0289 59.5413 13.1275 59.1511 13.1275C58.8503 13.1275 58.6094 13.0777 58.4285 12.9781C58.2476 12.8765 58.1084 12.7616 58.0108 12.6336C57.9133 12.5035 57.8381 12.3958 57.7852 12.3104H57.7242V14.786H57.0047ZM57.7121 10.6885C57.7121 11.0421 57.7639 11.3541 57.8675 11.6244C57.9712 11.8927 58.1226 12.1031 58.3218 12.2555C58.521 12.4059 58.7649 12.4811 59.0535 12.4811C59.3543 12.4811 59.6054 12.4019 59.8066 12.2433C60.0098 12.0828 60.1623 11.8673 60.2639 11.597C60.3676 11.3246 60.4194 11.0218 60.4194 10.6885C60.4194 10.3592 60.3686 10.0624 60.2669 9.79821C60.1673 9.53195 60.0159 9.32158 59.8127 9.16711C59.6114 9.0106 59.3584 8.93235 59.0535 8.93235C58.7608 8.93235 58.5149 9.00654 58.3157 9.15491C58.1165 9.30126 57.9661 9.50654 57.8645 9.77077C57.7629 10.033 57.7121 10.3389 57.7121 10.6885Z" fill="#130C49"/>
<path d="M49.5426 13.0299V8.34698H50.2378V9.07869H50.2987C50.3963 8.82869 50.5538 8.63459 50.7713 8.49637C50.9888 8.35613 51.25 8.28601 51.5548 8.28601C51.8638 8.28601 52.1209 8.35613 52.3262 8.49637C52.5335 8.63459 52.6951 8.82869 52.8109 9.07869H52.8597C52.9796 8.83682 53.1595 8.64475 53.3994 8.50247C53.6392 8.35816 53.9268 8.28601 54.2622 8.28601C54.6809 8.28601 55.0234 8.4171 55.2896 8.6793C55.5559 8.93946 55.689 9.34495 55.689 9.89577V13.0299H54.9695V9.89577C54.9695 9.55024 54.875 9.30329 54.686 9.15491C54.4969 9.00654 54.2744 8.93235 54.0183 8.93235C53.689 8.93235 53.4339 9.03195 53.253 9.23113C53.0721 9.42829 52.9817 9.67829 52.9817 9.98114V13.0299H52.25V9.8226C52.25 9.55634 52.1636 9.34191 51.9908 9.1793C51.8181 9.01467 51.5955 8.93235 51.3231 8.93235C51.1361 8.93235 50.9613 8.98215 50.7987 9.08174C50.6382 9.18134 50.5081 9.31955 50.4085 9.49638C50.3109 9.67118 50.2621 9.87341 50.2621 10.1031V13.0299H49.5426Z" fill="#130C49"/>
<path d="M46.3234 13.1275C45.9006 13.1275 45.5297 13.0269 45.2106 12.8257C44.8935 12.6244 44.6455 12.3429 44.4667 11.9811C44.2898 11.6194 44.2014 11.1966 44.2014 10.7128C44.2014 10.225 44.2898 9.79923 44.4667 9.4354C44.6455 9.07158 44.8935 8.78906 45.2106 8.58784C45.5297 8.38662 45.9006 8.28601 46.3234 8.28601C46.7462 8.28601 47.1161 8.38662 47.4332 8.58784C47.7523 8.78906 48.0002 9.07158 48.1771 9.4354C48.3559 9.79923 48.4454 10.225 48.4454 10.7128C48.4454 11.1966 48.3559 11.6194 48.1771 11.9811C48.0002 12.3429 47.7523 12.6244 47.4332 12.8257C47.1161 13.0269 46.7462 13.1275 46.3234 13.1275ZM46.3234 12.4811C46.6445 12.4811 46.9088 12.3988 47.1161 12.2342C47.3234 12.0696 47.4769 11.8531 47.5764 11.5848C47.676 11.3165 47.7258 11.0259 47.7258 10.7128C47.7258 10.3998 47.676 10.1082 47.5764 9.83784C47.4769 9.56752 47.3234 9.34902 47.1161 9.18235C46.9088 9.01568 46.6445 8.93235 46.3234 8.93235C46.0023 8.93235 45.738 9.01568 45.5307 9.18235C45.3234 9.34902 45.1699 9.56752 45.0703 9.83784C44.9707 10.1082 44.9209 10.3998 44.9209 10.7128C44.9209 11.0259 44.9707 11.3165 45.0703 11.5848C45.1699 11.8531 45.3234 12.0696 45.5307 12.2342C45.738 12.3988 46.0023 12.4811 46.3234 12.4811Z" fill="#130C49"/>
<path d="M41.3706 13.0303V8.34737H42.0657V9.05469H42.1145C42.1999 8.82298 42.3544 8.63497 42.5779 8.49066C42.8015 8.34635 43.0536 8.2742 43.334 8.2742C43.3869 8.2742 43.4529 8.27521 43.5322 8.27725C43.6115 8.27928 43.6714 8.28233 43.7121 8.28639V9.0181C43.6877 9.012 43.6318 9.00286 43.5444 8.99066C43.459 8.97644 43.3686 8.96932 43.2731 8.96932C43.0454 8.96932 42.8422 9.01709 42.6633 9.11262C42.4865 9.20611 42.3462 9.33619 42.2426 9.50286C42.1409 9.6675 42.0901 9.8555 42.0901 10.0669V13.0303H41.3706Z" fill="#130C49"/>
<path d="M36.0161 13.0305V6.78653H38.1258C38.6157 6.78653 39.0161 6.87495 39.3271 7.05178C39.6401 7.22658 39.8718 7.46337 40.0222 7.76215C40.1726 8.06093 40.2478 8.39426 40.2478 8.76215C40.2478 9.13004 40.1726 9.46439 40.0222 9.76521C39.8738 10.066 39.6441 10.3059 39.3332 10.4847C39.0222 10.6616 38.6238 10.75 38.138 10.75H36.6258V10.0792H38.1137C38.449 10.0792 38.7183 10.0213 38.9216 9.90545C39.1248 9.7896 39.2722 9.63309 39.3637 9.43594C39.4572 9.23675 39.5039 9.01215 39.5039 8.76215C39.5039 8.51215 39.4572 8.28857 39.3637 8.09142C39.2722 7.89426 39.1238 7.73979 38.9185 7.628C38.7133 7.51418 38.4409 7.45727 38.1015 7.45727H36.7722V13.0305H36.0161Z" fill="#130C49"/>
<path d="M118.702 69.2914C118.702 67.2593 120.349 65.612 122.381 65.612H188.612C190.644 65.612 192.291 67.2593 192.291 69.2914V80.3298C192.291 82.3619 190.644 84.0093 188.612 84.0093H122.381C120.349 84.0093 118.702 82.3619 118.702 80.3298V69.2914Z" fill="#BCF0A7"/>
<path fill-rule="evenodd" clip-rule="evenodd" d="M188.612 66.4705H122.381C120.823 66.4705 119.56 67.7335 119.56 69.2914V80.3298C119.56 81.8878 120.823 83.1507 122.381 83.1507H188.612C190.169 83.1507 191.432 81.8878 191.432 80.3298V69.2914C191.432 67.7335 190.169 66.4705 188.612 66.4705ZM122.381 65.612C120.349 65.612 118.702 67.2593 118.702 69.2914V80.3298C118.702 82.3619 120.349 84.0093 122.381 84.0093H188.612C190.644 84.0093 192.291 82.3619 192.291 80.3298V69.2914C192.291 67.2593 190.644 65.612 188.612 65.612H122.381Z" fill="#130C49"/>
<path d="M179.915 73.1932V73.803H177.488V73.1932H179.915ZM178.195 72.0713H178.915V76.5347C178.915 76.738 178.944 76.8904 179.003 76.992C179.064 77.0916 179.141 77.1587 179.235 77.1933C179.33 77.2258 179.431 77.242 179.537 77.242C179.616 77.242 179.681 77.238 179.732 77.2299C179.783 77.2197 179.823 77.2116 179.854 77.2055L180 77.8518C179.951 77.8701 179.883 77.8884 179.796 77.9067C179.708 77.927 179.598 77.9372 179.464 77.9372C179.26 77.9372 179.061 77.8935 178.866 77.8061C178.673 77.7187 178.512 77.5855 178.384 77.4067C178.258 77.2278 178.195 77.0022 178.195 76.7298V72.0713Z" fill="#130C49"/>
<path d="M173.576 75.0593V77.8764H172.857V73.1935H173.552V73.9252H173.613C173.722 73.6874 173.889 73.4963 174.113 73.352C174.336 73.2057 174.625 73.1325 174.978 73.1325C175.296 73.1325 175.573 73.1975 175.811 73.3276C176.049 73.4557 176.234 73.6508 176.366 73.913C176.498 74.1732 176.564 74.5024 176.564 74.9008V77.8764H175.844V74.9496C175.844 74.5817 175.749 74.2951 175.558 74.0898C175.367 73.8825 175.104 73.7789 174.771 73.7789C174.541 73.7789 174.336 73.8286 174.155 73.9282C173.976 74.0278 173.835 74.1732 173.732 74.3642C173.628 74.5553 173.576 74.787 173.576 75.0593Z" fill="#130C49"/>
<path d="M169.822 77.974C169.371 77.974 168.982 77.8744 168.655 77.6752C168.329 77.474 168.078 77.1935 167.901 76.8337C167.727 76.472 167.639 76.0512 167.639 75.5715C167.639 75.0919 167.727 74.6691 167.901 74.3032C168.078 73.9354 168.324 73.6488 168.639 73.4435C168.956 73.2362 169.326 73.1325 169.749 73.1325C169.993 73.1325 170.234 73.1732 170.472 73.2545C170.709 73.3358 170.926 73.4679 171.121 73.6508C171.316 73.8317 171.472 74.0715 171.587 74.3703C171.703 74.6691 171.761 75.037 171.761 75.474V75.7789H168.151V75.1569H171.03C171.03 74.8927 170.977 74.6569 170.871 74.4496C170.767 74.2423 170.619 74.0786 170.426 73.9587C170.235 73.8388 170.009 73.7789 169.749 73.7789C169.462 73.7789 169.214 73.85 169.005 73.9923C168.798 74.1325 168.638 74.3154 168.526 74.5411C168.415 74.7667 168.359 75.0085 168.359 75.2667V75.6813C168.359 76.035 168.42 76.3348 168.542 76.5807C168.666 76.8246 168.837 77.0106 169.057 77.1386C169.276 77.2646 169.532 77.3277 169.822 77.3277C170.011 77.3277 170.182 77.3012 170.334 77.2484C170.489 77.1935 170.622 77.1122 170.734 77.0045C170.846 76.8947 170.932 76.7585 170.993 76.5959L171.688 76.7911C171.615 77.0268 171.492 77.2342 171.319 77.413C171.146 77.5898 170.933 77.7281 170.679 77.8277C170.425 77.9252 170.139 77.974 169.822 77.974Z" fill="#130C49"/>
<path d="M160.399 77.8764V73.1935H161.094V73.9252H161.155C161.252 73.6752 161.41 73.4811 161.627 73.3429C161.845 73.2026 162.106 73.1325 162.411 73.1325C162.72 73.1325 162.977 73.2026 163.182 73.3429C163.39 73.4811 163.551 73.6752 163.667 73.9252H163.716C163.836 73.6833 164.016 73.4912 164.255 73.349C164.495 73.2047 164.783 73.1325 165.118 73.1325C165.537 73.1325 165.879 73.2636 166.146 73.5258C166.412 73.786 166.545 74.1915 166.545 74.7423V77.8764H165.826V74.7423C165.826 74.3967 165.731 74.1498 165.542 74.0014C165.353 73.853 165.13 73.7789 164.874 73.7789C164.545 73.7789 164.29 73.8784 164.109 74.0776C163.928 74.2748 163.838 74.5248 163.838 74.8276V77.8764H163.106V74.6691C163.106 74.4028 163.02 74.1884 162.847 74.0258C162.674 73.8612 162.452 73.7789 162.179 73.7789C161.992 73.7789 161.817 73.8286 161.655 73.9282C161.494 74.0278 161.364 74.166 161.265 74.3429C161.167 74.5177 161.118 74.7199 161.118 74.9496V77.8764H160.399Z" fill="#130C49"/>
<path d="M156.094 75.0593V77.8764H155.375V73.1935H156.07V73.9252H156.131C156.241 73.6874 156.407 73.4963 156.631 73.352C156.854 73.2057 157.143 73.1325 157.497 73.1325C157.814 73.1325 158.091 73.1975 158.329 73.3276C158.567 73.4557 158.752 73.6508 158.884 73.913C159.016 74.1732 159.082 74.5024 159.082 74.9008V77.8764H158.363V74.9496C158.363 74.5817 158.267 74.2951 158.076 74.0898C157.885 73.8825 157.623 73.7789 157.289 73.7789C157.06 73.7789 156.854 73.8286 156.674 73.9282C156.495 74.0278 156.353 74.1732 156.25 74.3642C156.146 74.5553 156.094 74.787 156.094 75.0593Z" fill="#130C49"/>
<path d="M152.154 77.974C151.731 77.974 151.36 77.8734 151.041 77.6722C150.724 77.4709 150.476 77.1894 150.297 76.8276C150.12 76.4659 150.032 76.0431 150.032 75.5593C150.032 75.0715 150.12 74.6457 150.297 74.2819C150.476 73.9181 150.724 73.6356 151.041 73.4343C151.36 73.2331 151.731 73.1325 152.154 73.1325C152.577 73.1325 152.947 73.2331 153.264 73.4343C153.583 73.6356 153.831 73.9181 154.008 74.2819C154.187 74.6457 154.276 75.0715 154.276 75.5593C154.276 76.0431 154.187 76.4659 154.008 76.8276C153.831 77.1894 153.583 77.4709 153.264 77.6722C152.947 77.8734 152.577 77.974 152.154 77.974ZM152.154 77.3277C152.475 77.3277 152.739 77.2453 152.947 77.0807C153.154 76.9161 153.307 76.6996 153.407 76.4313C153.507 76.163 153.556 75.8724 153.556 75.5593C153.556 75.2463 153.507 74.9547 153.407 74.6843C153.307 74.414 153.154 74.1955 152.947 74.0289C152.739 73.8622 152.475 73.7789 152.154 73.7789C151.833 73.7789 151.569 73.8622 151.361 74.0289C151.154 74.1955 151.001 74.414 150.901 74.6843C150.801 74.9547 150.752 75.2463 150.752 75.5593C150.752 75.8724 150.801 76.163 150.901 76.4313C151.001 76.6996 151.154 76.9161 151.361 77.0807C151.569 77.2453 151.833 77.3277 152.154 77.3277Z" fill="#130C49"/>
<path d="M147.201 77.8768V73.1939H147.896V73.9012H147.945C148.03 73.6695 148.185 73.4815 148.408 73.3372C148.632 73.1928 148.884 73.1207 149.165 73.1207C149.217 73.1207 149.283 73.1217 149.363 73.1237C149.442 73.1258 149.502 73.1288 149.543 73.1329V73.8646C149.518 73.8585 149.462 73.8494 149.375 73.8372C149.29 73.8229 149.199 73.8158 149.104 73.8158C148.876 73.8158 148.673 73.8636 148.494 73.9591C148.317 74.0526 148.177 74.1827 148.073 74.3494C147.972 74.514 147.921 74.702 147.921 74.9134V77.8768H147.201Z" fill="#130C49"/>
<path d="M145.163 77.8765V73.1936H145.883V77.8765H145.163ZM145.529 72.4131C145.389 72.4131 145.268 72.3653 145.166 72.2698C145.067 72.1742 145.017 72.0594 145.017 71.9253C145.017 71.7911 145.067 71.6763 145.166 71.5807C145.268 71.4852 145.389 71.4374 145.529 71.4374C145.669 71.4374 145.789 71.4852 145.889 71.5807C145.99 71.6763 146.041 71.7911 146.041 71.9253C146.041 72.0594 145.99 72.1742 145.889 72.2698C145.789 72.3653 145.669 72.4131 145.529 72.4131Z" fill="#130C49"/>
<path d="M144.215 73.1937L142.483 77.8767H141.751L140.02 73.1937H140.8L142.093 76.9254H142.141L143.434 73.1937H144.215Z" fill="#130C49"/>
<path d="M136.249 75.0593V77.8764H135.53V73.1935H136.225V73.9252H136.286C136.396 73.6874 136.562 73.4963 136.786 73.352C137.01 73.2057 137.298 73.1325 137.652 73.1325C137.969 73.1325 138.246 73.1975 138.484 73.3276C138.722 73.4557 138.907 73.6508 139.039 73.913C139.171 74.1732 139.237 74.5024 139.237 74.9008V77.8764H138.518V74.9496C138.518 74.5817 138.422 74.2951 138.231 74.0898C138.04 73.8825 137.778 73.7789 137.445 73.7789C137.215 73.7789 137.01 73.8286 136.829 73.9282C136.65 74.0278 136.509 74.1732 136.405 74.3642C136.301 74.5553 136.249 74.787 136.249 75.0593Z" fill="#130C49"/>
<path d="M130.497 77.8768V71.6329H134.265V72.3036H131.253V74.4134H134.07V75.0841H131.253V77.2061H134.314V77.8768H130.497Z" fill="#130C49"/>
<path d="M67.115 43.9151V44.5248H64.6882V43.9151H67.115ZM65.3955 42.7931H66.115V47.2565C66.115 47.4598 66.1445 47.6122 66.2034 47.7139C66.2644 47.8135 66.3416 47.8805 66.4351 47.9151C66.5307 47.9476 66.6313 47.9639 66.737 47.9639C66.8162 47.9639 66.8813 47.9598 66.9321 47.9517C66.9829 47.9415 67.0236 47.9334 67.0541 47.9273L67.2004 48.5736C67.1516 48.5919 67.0835 48.6102 66.9961 48.6285C66.9087 48.6488 66.798 48.659 66.6638 48.659C66.4606 48.659 66.2614 48.6153 66.0662 48.5279C65.8732 48.4405 65.7126 48.3074 65.5845 48.1285C65.4585 47.9496 65.3955 47.724 65.3955 47.4517V42.7931Z" fill="#130C49"/>
<path d="M60.7233 45.7815V48.5986H60.0038V42.3547H60.7233V44.6474H60.7843C60.8941 44.4055 61.0587 44.2134 61.2782 44.0712C61.4998 43.9268 61.7945 43.8547 62.1624 43.8547C62.4815 43.8547 62.761 43.9187 63.0008 44.0468C63.2406 44.1728 63.4266 44.3669 63.5587 44.6291C63.6929 44.8892 63.7599 45.2206 63.7599 45.623V48.5986H63.0404V45.6718C63.0404 45.2998 62.9439 45.0122 62.7508 44.809C62.5597 44.6037 62.2945 44.501 61.9551 44.501C61.7193 44.501 61.5079 44.5508 61.3209 44.6504C61.1359 44.75 60.9896 44.8953 60.8819 45.0864C60.7762 45.2775 60.7233 45.5092 60.7233 45.7815Z" fill="#130C49"/>
<path d="M56.6616 50.4519C56.3141 50.4519 56.0153 50.4072 55.7653 50.3178C55.5153 50.2304 55.307 50.1145 55.1403 49.9702C54.9757 49.8279 54.8446 49.6755 54.747 49.5129L55.3202 49.1104C55.3852 49.1958 55.4675 49.2934 55.5671 49.4031C55.6667 49.5149 55.8029 49.6115 55.9757 49.6928C56.1505 49.7761 56.3791 49.8178 56.6616 49.8178C57.0397 49.8178 57.3517 49.7263 57.5976 49.5434C57.8436 49.3604 57.9665 49.0739 57.9665 48.6836V47.7324H57.9056C57.8527 47.8177 57.7775 47.9234 57.6799 48.0495C57.5844 48.1734 57.4462 48.2842 57.2653 48.3818C57.0864 48.4773 56.8446 48.5251 56.5397 48.5251C56.1616 48.5251 55.8222 48.4356 55.5214 48.2568C55.2226 48.0779 54.9858 47.8177 54.811 47.4763C54.6383 47.1348 54.5519 46.7202 54.5519 46.2324C54.5519 45.7527 54.6362 45.335 54.8049 44.9793C54.9736 44.6216 55.2084 44.3452 55.5092 44.15C55.81 43.9529 56.1576 43.8543 56.5519 43.8543C56.8568 43.8543 57.0986 43.9051 57.2775 44.0068C57.4584 44.1064 57.5966 44.2202 57.6921 44.3482C57.7897 44.4742 57.8649 44.5779 57.9177 44.6592H57.9909V43.9153H58.686V48.7324C58.686 49.1348 58.5946 49.4621 58.4117 49.7141C58.2308 49.9682 57.9869 50.1541 57.6799 50.272C57.3751 50.3919 57.0356 50.4519 56.6616 50.4519ZM56.6373 47.8787C56.9259 47.8787 57.1698 47.8127 57.369 47.6806C57.5682 47.5484 57.7196 47.3584 57.8232 47.1104C57.9269 46.8625 57.9787 46.5657 57.9787 46.2202C57.9787 45.8828 57.9279 45.585 57.8263 45.3269C57.7247 45.0688 57.5743 44.8665 57.3751 44.7202C57.1759 44.5738 56.9299 44.5007 56.6373 44.5007C56.3324 44.5007 56.0783 44.5779 55.8751 44.7324C55.6738 44.8868 55.5224 45.0942 55.4208 45.3543C55.3212 45.6145 55.2714 45.9031 55.2714 46.2202C55.2714 46.5454 55.3222 46.833 55.4238 47.083C55.5275 47.331 55.6799 47.5261 55.8812 47.6684C56.0844 47.8086 56.3364 47.8787 56.6373 47.8787Z" fill="#130C49"/>
<path d="M52.7346 46.6837V43.9154H53.4541V48.5983H52.7346V47.8056H52.6858C52.576 48.0434 52.4053 48.2457 52.1736 48.4123C51.9419 48.577 51.6492 48.6593 51.2955 48.6593C51.0028 48.6593 50.7427 48.5953 50.515 48.4672C50.2874 48.3371 50.1085 48.142 49.9784 47.8818C49.8484 47.6197 49.7833 47.2894 49.7833 46.891V43.9154H50.5028V46.8422C50.5028 47.1837 50.5984 47.456 50.7894 47.6593C50.9825 47.8625 51.2285 47.9642 51.5272 47.9642C51.7061 47.9642 51.888 47.9184 52.073 47.827C52.26 47.7355 52.4165 47.5953 52.5425 47.4062C52.6705 47.2172 52.7346 46.9764 52.7346 46.6837Z" fill="#130C49"/>
<path d="M46.5625 48.6958C46.1398 48.6958 45.7688 48.5952 45.4497 48.394C45.1327 48.1928 44.8847 47.9112 44.7058 47.5495C44.529 47.1877 44.4406 46.7649 44.4406 46.2812C44.4406 45.7934 44.529 45.3675 44.7058 45.0037C44.8847 44.6399 45.1327 44.3574 45.4497 44.1561C45.7688 43.9549 46.1398 43.8543 46.5625 43.8543C46.9853 43.8543 47.3552 43.9549 47.6723 44.1561C47.9914 44.3574 48.2394 44.6399 48.4162 45.0037C48.5951 45.3675 48.6845 45.7934 48.6845 46.2812C48.6845 46.7649 48.5951 47.1877 48.4162 47.5495C48.2394 47.9112 47.9914 48.1928 47.6723 48.394C47.3552 48.5952 46.9853 48.6958 46.5625 48.6958ZM46.5625 48.0495C46.8837 48.0495 47.1479 47.9671 47.3552 47.8025C47.5625 47.6379 47.716 47.4214 47.8156 47.1531C47.9152 46.8848 47.965 46.5942 47.965 46.2812C47.965 45.9681 47.9152 45.6765 47.8156 45.4062C47.716 45.1358 47.5625 44.9173 47.3552 44.7507C47.1479 44.584 46.8837 44.5007 46.5625 44.5007C46.2414 44.5007 45.9772 44.584 45.7699 44.7507C45.5625 44.9173 45.4091 45.1358 45.3095 45.4062C45.2099 45.6765 45.1601 45.9681 45.1601 46.2812C45.1601 46.5942 45.2099 46.8848 45.3095 47.1531C45.4091 47.4214 45.5625 47.6379 45.7699 47.8025C45.9772 47.9671 46.2414 48.0495 46.5625 48.0495Z" fill="#130C49"/>
<path d="M40.3073 45.7815V48.5986H39.5878V42.3547H40.3073V44.6474H40.3683C40.4781 44.4055 40.6427 44.2134 40.8622 44.0712C41.0838 43.9268 41.3785 43.8547 41.7464 43.8547C42.0655 43.8547 42.3449 43.9187 42.5848 44.0468C42.8246 44.1728 43.0106 44.3669 43.1427 44.6291C43.2769 44.8892 43.3439 45.2206 43.3439 45.623V48.5986H42.6244V45.6718C42.6244 45.2998 42.5279 45.0122 42.3348 44.809C42.1437 44.6037 41.8785 44.501 41.539 44.501C41.3033 44.501 41.0919 44.5508 40.9049 44.6504C40.7199 44.75 40.5736 44.8953 40.4659 45.0864C40.3602 45.2775 40.3073 45.5092 40.3073 45.7815Z" fill="#130C49"/>
<path d="M33.8361 43.0254V42.3547H38.5191V43.0254H36.5556V48.5986H35.7995V43.0254H33.8361Z" fill="#130C49"/>
<path fill-rule="evenodd" clip-rule="evenodd" d="M53.0716 32.0407L50.5932 36.3334L48.1148 32.0407H50.1639V19.1626H51.0225V32.0407H53.0716Z" fill="#130C49"/>
<path fill-rule="evenodd" clip-rule="evenodd" d="M52.7564 108.956L50.5582 111.774L48.36 108.956L50.1774 108.956L50.1774 54.6211L50.9389 54.6211L50.9389 108.956L52.7564 108.956Z" fill="#130C49"/>
<path d="M103.244 88.0979V90.8418H102.14V86.1589H103.195V86.9546H103.25C103.358 86.6924 103.53 86.4841 103.765 86.3296C104.003 86.1751 104.297 86.0979 104.646 86.0979C104.97 86.0979 105.251 86.167 105.491 86.3052C105.733 86.4434 105.92 86.6436 106.052 86.9058C106.186 87.168 106.252 87.4861 106.25 87.8601V90.8418H105.146V88.0308C105.146 87.7178 105.065 87.4729 104.903 87.2961C104.742 87.1192 104.519 87.0308 104.235 87.0308C104.042 87.0308 103.87 87.0735 103.72 87.1589C103.571 87.2422 103.454 87.3631 103.369 87.5217C103.286 87.6802 103.244 87.8723 103.244 88.0979Z" fill="#130C49"/>
<path d="M98.9589 90.9333C98.5015 90.9333 98.1052 90.8327 97.7698 90.6314C97.4345 90.4302 97.1743 90.1487 96.9893 89.7869C96.8064 89.4251 96.715 89.0024 96.715 88.5186C96.715 88.0349 96.8064 87.6111 96.9893 87.2473C97.1743 86.8835 97.4345 86.6009 97.7698 86.3997C98.1052 86.1985 98.5015 86.0979 98.9589 86.0979C99.4162 86.0979 99.8125 86.1985 100.148 86.3997C100.483 86.6009 100.742 86.8835 100.925 87.2473C101.11 87.6111 101.203 88.0349 101.203 88.5186C101.203 89.0024 101.11 89.4251 100.925 89.7869C100.742 90.1487 100.483 90.4302 100.148 90.6314C99.8125 90.8327 99.4162 90.9333 98.9589 90.9333ZM98.965 90.0491C99.2129 90.0491 99.4203 89.981 99.5869 89.8449C99.7536 89.7066 99.8776 89.5217 99.9589 89.29C100.042 89.0583 100.084 88.8001 100.084 88.5156C100.084 88.229 100.042 87.9698 99.9589 87.7381C99.8776 87.5044 99.7536 87.3184 99.5869 87.1802C99.4203 87.042 99.2129 86.9729 98.965 86.9729C98.7109 86.9729 98.4995 87.042 98.3308 87.1802C98.1641 87.3184 98.0391 87.5044 97.9558 87.7381C97.8745 87.9698 97.8339 88.229 97.8339 88.5156C97.8339 88.8001 97.8745 89.0583 97.9558 89.29C98.0391 89.5217 98.1641 89.7066 98.3308 89.8449C98.4995 89.981 98.7109 90.0491 98.965 90.0491Z" fill="#130C49"/>
<path d="M94.678 90.8423V86.1593H95.7817V90.8423H94.678ZM95.2329 85.4947C95.0581 85.4947 94.9077 85.4368 94.7817 85.3209C94.6557 85.203 94.5927 85.0618 94.5927 84.8971C94.5927 84.7305 94.6557 84.5892 94.7817 84.4733C94.9077 84.3555 95.0581 84.2965 95.2329 84.2965C95.4098 84.2965 95.5602 84.3555 95.6841 84.4733C95.8102 84.5892 95.8732 84.7305 95.8732 84.8971C95.8732 85.0618 95.8102 85.203 95.6841 85.3209C95.5602 85.4368 95.4098 85.4947 95.2329 85.4947Z" fill="#130C49"/>
<path d="M93.756 86.1586V87.0123H91.0639V86.1586H93.756ZM91.7285 85.0367H92.8322V89.433C92.8322 89.5814 92.8545 89.6952 92.8993 89.7745C92.946 89.8517 93.007 89.9046 93.0822 89.933C93.1574 89.9615 93.2407 89.9757 93.3322 89.9757C93.4013 89.9757 93.4643 89.9706 93.5212 89.9605C93.5802 89.9503 93.6249 89.9412 93.6554 89.933L93.8413 90.7958C93.7824 90.8162 93.698 90.8385 93.5883 90.8629C93.4806 90.8873 93.3485 90.9015 93.1919 90.9056C92.9155 90.9137 92.6665 90.8721 92.445 90.7806C92.2234 90.6871 92.0476 90.5428 91.9176 90.3477C91.7895 90.1525 91.7265 89.9086 91.7285 89.6159V85.0367Z" fill="#130C49"/>
<path d="M87.8357 90.9363C87.539 90.9363 87.2717 90.8835 87.0339 90.7778C86.7981 90.6701 86.6111 90.5115 86.4729 90.3022C86.3367 90.0928 86.2686 89.8347 86.2686 89.5278C86.2686 89.2636 86.3174 89.0451 86.415 88.8723C86.5125 88.6995 86.6457 88.5613 86.8144 88.4577C86.9831 88.354 87.1731 88.2757 87.3845 88.2229C87.5979 88.168 87.8185 88.1284 88.0461 88.104C88.3205 88.0755 88.543 88.0501 88.7138 88.0278C88.8845 88.0034 89.0085 87.9668 89.0857 87.918C89.165 87.8672 89.2046 87.7889 89.2046 87.6833V87.665C89.2046 87.4353 89.1365 87.2574 89.0004 87.1314C88.8642 87.0054 88.668 86.9424 88.4119 86.9424C88.1416 86.9424 87.9272 87.0013 87.7687 87.1192C87.6121 87.2371 87.5065 87.3763 87.4516 87.5369L86.4211 87.3906C86.5024 87.106 86.6365 86.8682 86.8235 86.6772C87.0105 86.4841 87.2392 86.3398 87.5095 86.2442C87.7798 86.1467 88.0786 86.0979 88.4059 86.0979C88.6315 86.0979 88.8561 86.1243 89.0796 86.1772C89.3032 86.23 89.5075 86.3174 89.6924 86.4393C89.8774 86.5593 90.0258 86.7229 90.1376 86.9302C90.2514 87.1375 90.3083 87.3967 90.3083 87.7076V90.8418H89.2473V90.1985H89.2107C89.1437 90.3286 89.0491 90.4505 88.9272 90.5644C88.8073 90.6762 88.6559 90.7666 88.4729 90.8357C88.292 90.9028 88.0796 90.9363 87.8357 90.9363ZM88.1223 90.1253C88.3439 90.1253 88.5359 90.0816 88.6985 89.9942C88.8611 89.9048 88.9861 89.7869 89.0735 89.6406C89.163 89.4942 89.2077 89.3347 89.2077 89.1619V88.6101C89.1731 88.6385 89.1142 88.665 89.0309 88.6894C88.9496 88.7138 88.8581 88.7351 88.7565 88.7534C88.6548 88.7717 88.5542 88.7879 88.4546 88.8022C88.355 88.8164 88.2687 88.8286 88.1955 88.8388C88.0308 88.8611 87.8835 88.8977 87.7534 88.9485C87.6233 88.9993 87.5207 89.0705 87.4455 89.1619C87.3703 89.2514 87.3327 89.3672 87.3327 89.5095C87.3327 89.7127 87.4069 89.8662 87.5552 89.9699C87.7036 90.0735 87.8926 90.1253 88.1223 90.1253Z" fill="#130C49"/>
<path d="M85.8573 86.1589L84.1896 90.8419H82.97L81.3024 86.1589H82.4792L83.5554 89.6376H83.6042L84.6835 86.1589H85.8573Z" fill="#130C49"/>
<path d="M78.1291 90.8418V86.1588H79.1993V86.9393H79.248C79.3334 86.669 79.4798 86.4606 79.6871 86.3143C79.8964 86.1659 80.1352 86.0917 80.4035 86.0917C80.4645 86.0917 80.5326 86.0948 80.6078 86.1009C80.685 86.1049 80.7491 86.1121 80.7999 86.1222V87.1375C80.7531 87.1212 80.6789 87.107 80.5773 87.0948C80.4777 87.0806 80.3812 87.0734 80.2877 87.0734C80.0865 87.0734 79.9056 87.1171 79.745 87.2045C79.5865 87.2899 79.4615 87.4088 79.37 87.5613C79.2785 87.7137 79.2328 87.8895 79.2328 88.0887V90.8418H78.1291Z" fill="#130C49"/>
<path d="M75.111 90.9333C74.6415 90.9333 74.236 90.8357 73.8945 90.6406C73.5551 90.4434 73.2939 90.165 73.111 89.8052C72.928 89.4434 72.8366 89.0176 72.8366 88.5278C72.8366 88.0461 72.928 87.6233 73.111 87.2595C73.2959 86.8936 73.5541 86.6091 73.8854 86.4058C74.2167 86.2005 74.6059 86.0979 75.0531 86.0979C75.3417 86.0979 75.614 86.1446 75.8701 86.2381C76.1283 86.3296 76.3559 86.4719 76.5531 86.665C76.7522 86.8581 76.9088 87.104 77.0226 87.4028C77.1364 87.6995 77.1933 88.0532 77.1933 88.4638V88.8022H73.3549V88.0583H76.1354C76.1333 87.8469 76.0876 87.6589 75.9982 87.4942C75.9087 87.3276 75.7837 87.1965 75.6232 87.1009C75.4646 87.0054 75.2797 86.9576 75.0683 86.9576C74.8427 86.9576 74.6445 87.0125 74.4738 87.1223C74.303 87.23 74.1699 87.3723 74.0744 87.5491C73.9809 87.7239 73.9331 87.916 73.9311 88.1253V88.7747C73.9311 89.0471 73.9809 89.2808 74.0805 89.476C74.1801 89.669 74.3193 89.8174 74.4982 89.9211C74.677 90.0227 74.8864 90.0735 75.1262 90.0735C75.2868 90.0735 75.4321 90.0512 75.5622 90.0064C75.6923 89.9597 75.8051 89.8916 75.9006 89.8022C75.9961 89.7127 76.0683 89.602 76.1171 89.4699L77.1476 89.5857C77.0825 89.8581 76.9585 90.0959 76.7756 90.2991C76.5947 90.5003 76.363 90.6568 76.0805 90.7686C75.798 90.8784 75.4748 90.9333 75.111 90.9333Z" fill="#130C49"/>
<path d="M72.0281 87.3967L71.022 87.5064C70.9936 87.4048 70.9438 87.3093 70.8726 87.2198C70.8035 87.1304 70.71 87.0583 70.5921 87.0034C70.4742 86.9485 70.3299 86.9211 70.1592 86.9211C69.9295 86.9211 69.7364 86.9709 69.5799 87.0705C69.4255 87.17 69.3492 87.2991 69.3513 87.4576C69.3492 87.5938 69.399 87.7046 69.5007 87.79C69.6043 87.8753 69.775 87.9455 70.0129 88.0003L70.8116 88.1711C71.2547 88.2666 71.584 88.418 71.7994 88.6253C72.0169 88.8327 72.1267 89.104 72.1287 89.4394C72.1267 89.7341 72.0403 89.9942 71.8696 90.2199C71.7009 90.4434 71.4661 90.6182 71.1653 90.7442C70.8645 90.8703 70.519 90.9333 70.1287 90.9333C69.5555 90.9333 69.0942 90.8134 68.7446 90.5735C68.395 90.3316 68.1866 89.9953 68.1196 89.5644L69.1958 89.4607C69.2446 89.6721 69.3482 89.8316 69.5068 89.9394C69.6653 90.0471 69.8716 90.101 70.1257 90.101C70.3879 90.101 70.5982 90.0471 70.7568 89.9394C70.9173 89.8316 70.9976 89.6985 70.9976 89.54C70.9976 89.4058 70.9458 89.2951 70.8421 89.2077C70.7405 89.1203 70.582 89.0532 70.3665 89.0064L69.5677 88.8388C69.1185 88.7453 68.7862 88.5877 68.5708 88.3662C68.3553 88.1426 68.2486 87.8601 68.2507 87.5186C68.2486 87.23 68.3269 86.98 68.4854 86.7686C68.646 86.5552 68.8685 86.3906 69.1531 86.2747C69.4397 86.1568 69.77 86.0979 70.144 86.0979C70.6927 86.0979 71.1246 86.2148 71.4397 86.4485C71.7568 86.6822 71.9529 86.9983 72.0281 87.3967Z" fill="#130C49"/>
<path d="M62.9673 90.8422V84.5983H64.071V86.9336H64.1167C64.1737 86.8198 64.2539 86.6989 64.3576 86.5708C64.4613 86.4407 64.6015 86.33 64.7783 86.2385C64.9552 86.145 65.1808 86.0983 65.4552 86.0983C65.817 86.0983 66.1432 86.1907 66.4338 86.3757C66.7265 86.5586 66.9582 86.83 67.129 87.1897C67.3017 87.5475 67.3881 87.9865 67.3881 88.5068C67.3881 89.021 67.3037 89.458 67.135 89.8178C66.9663 90.1775 66.7367 90.4519 66.446 90.641C66.1554 90.83 65.8261 90.9245 65.4582 90.9245C65.1899 90.9245 64.9674 90.8798 64.7905 90.7904C64.6137 90.7009 64.4714 90.5932 64.3637 90.4672C64.258 90.3391 64.1757 90.2182 64.1167 90.1044H64.0527V90.8422H62.9673ZM64.0497 88.5007C64.0497 88.8036 64.0924 89.0688 64.1777 89.2964C64.2651 89.5241 64.3901 89.7019 64.5527 89.83C64.7174 89.956 64.9165 90.019 65.1503 90.019C65.3942 90.019 65.5985 89.954 65.7631 89.8239C65.9277 89.6918 66.0517 89.5119 66.135 89.2842C66.2204 89.0546 66.2631 88.7934 66.2631 88.5007C66.2631 88.2101 66.2214 87.9519 66.1381 87.7263C66.0548 87.5007 65.9308 87.3239 65.7661 87.1958C65.6015 87.0678 65.3962 87.0038 65.1503 87.0038C64.9145 87.0038 64.7143 87.0657 64.5497 87.1897C64.385 87.3137 64.26 87.4875 64.1747 87.7111C64.0913 87.9346 64.0497 88.1979 64.0497 88.5007Z" fill="#130C49"/>
<path d="M61.8999 87.7208C61.8999 88.3935 61.7739 88.9698 61.5219 89.4494C61.2719 89.9271 60.9304 90.2929 60.4975 90.547C60.0666 90.8011 59.5778 90.9281 59.031 90.9281C58.4843 90.9281 57.9944 90.8011 57.5615 90.547C57.1306 90.2909 56.7891 89.924 56.5371 89.4464C56.2871 88.9667 56.1621 88.3915 56.1621 87.7208C56.1621 87.048 56.2871 86.4728 56.5371 85.9951C56.7891 85.5155 57.1306 85.1486 57.5615 84.8945C57.9944 84.6405 58.4843 84.5134 59.031 84.5134C59.5778 84.5134 60.0666 84.6405 60.4975 84.8945C60.9304 85.1486 61.2719 85.5155 61.5219 85.9951C61.7739 86.4728 61.8999 87.048 61.8999 87.7208ZM60.7627 87.7208C60.7627 87.2472 60.6886 86.8478 60.5402 86.5226C60.3938 86.1953 60.1906 85.9484 59.9304 85.7817C59.6703 85.613 59.3705 85.5287 59.031 85.5287C58.6916 85.5287 58.3918 85.613 58.1316 85.7817C57.8715 85.9484 57.6672 86.1953 57.5188 86.5226C57.3725 86.8478 57.2993 87.2472 57.2993 87.7208C57.2993 88.1943 57.3725 88.5947 57.5188 88.922C57.6672 89.2472 57.8715 89.4941 58.1316 89.6628C58.3918 89.8295 58.6916 89.9128 59.031 89.9128C59.3705 89.9128 59.6703 89.8295 59.9304 89.6628C60.1906 89.4941 60.3938 89.2472 60.5402 88.922C60.6886 88.5947 60.7627 88.1943 60.7627 87.7208Z" fill="#130C49"/>
<path d="M144.535 39.7219V42.4658H143.431V37.7829H144.486V38.5786H144.541C144.649 38.3164 144.821 38.1081 145.056 37.9536C145.294 37.7991 145.588 37.7219 145.938 37.7219C146.261 37.7219 146.542 37.791 146.782 37.9292C147.024 38.0674 147.211 38.2676 147.343 38.5298C147.477 38.792 147.543 39.1101 147.541 39.4841V42.4658H146.438V39.6548C146.438 39.3418 146.356 39.0969 146.194 38.9201C146.033 38.7432 145.81 38.6548 145.526 38.6548C145.333 38.6548 145.161 38.6975 145.011 38.7829C144.862 38.8662 144.745 38.9871 144.66 39.1457C144.577 39.3042 144.535 39.4963 144.535 39.7219Z" fill="#130C49"/>
<path d="M140.253 42.5573C139.795 42.5573 139.399 42.4567 139.064 42.2554C138.728 42.0542 138.468 41.7727 138.283 41.4109C138.1 41.0491 138.009 40.6264 138.009 40.1426C138.009 39.6589 138.1 39.2351 138.283 38.8713C138.468 38.5075 138.728 38.2249 139.064 38.0237C139.399 37.8225 139.795 37.7219 140.253 37.7219C140.71 37.7219 141.106 37.8225 141.442 38.0237C141.777 38.2249 142.036 38.5075 142.219 38.8713C142.404 39.2351 142.497 39.6589 142.497 40.1426C142.497 40.6264 142.404 41.0491 142.219 41.4109C142.036 41.7727 141.777 42.0542 141.442 42.2554C141.106 42.4567 140.71 42.5573 140.253 42.5573ZM140.259 41.6731C140.507 41.6731 140.714 41.605 140.881 41.4689C141.048 41.3306 141.171 41.1457 141.253 40.914C141.336 40.6823 141.378 40.4241 141.378 40.1396C141.378 39.853 141.336 39.5938 141.253 39.3621C141.171 39.1284 141.048 38.9424 140.881 38.8042C140.714 38.666 140.507 38.5969 140.259 38.5969C140.005 38.5969 139.793 38.666 139.625 38.8042C139.458 38.9424 139.333 39.1284 139.25 39.3621C139.168 39.5938 139.128 39.853 139.128 40.1396C139.128 40.4241 139.168 40.6823 139.25 40.914C139.333 41.1457 139.458 41.3306 139.625 41.4689C139.793 41.605 140.005 41.6731 140.259 41.6731Z" fill="#130C49"/>
<path d="M135.972 42.4664V37.7835H137.076V42.4664H135.972ZM136.527 37.1189C136.352 37.1189 136.202 37.0609 136.076 36.9451C135.95 36.8272 135.887 36.6859 135.887 36.5213C135.887 36.3546 135.95 36.2134 136.076 36.0975C136.202 35.9796 136.352 35.9207 136.527 35.9207C136.704 35.9207 136.854 35.9796 136.978 36.0975C137.104 36.2134 137.167 36.3546 137.167 36.5213C137.167 36.6859 137.104 36.8272 136.978 36.9451C136.854 37.0609 136.704 37.1189 136.527 37.1189Z" fill="#130C49"/>
<path d="M135.047 37.7828V38.6364H132.355V37.7828H135.047ZM133.02 36.6608H134.123V41.0572C134.123 41.2056 134.146 41.3194 134.19 41.3986C134.237 41.4759 134.298 41.5287 134.373 41.5572C134.448 41.5856 134.532 41.5999 134.623 41.5999C134.692 41.5999 134.755 41.5948 134.812 41.5846C134.871 41.5745 134.916 41.5653 134.946 41.5572L135.132 42.42C135.073 42.4403 134.989 42.4627 134.879 42.4871C134.772 42.5115 134.639 42.5257 134.483 42.5298C134.207 42.5379 133.958 42.4962 133.736 42.4047C133.514 42.3113 133.339 42.1669 133.209 41.9718C133.081 41.7767 133.017 41.5328 133.02 41.2401V36.6608Z" fill="#130C49"/>
<path d="M129.796 42.5573C129.329 42.5573 128.927 42.4546 128.592 42.2493C128.259 42.0441 128.001 41.7605 127.821 41.3987C127.642 41.0349 127.552 40.6162 127.552 40.1426C127.552 39.667 127.644 39.2473 127.827 38.8835C128.01 38.5176 128.268 38.2331 128.601 38.0298C128.936 37.8245 129.333 37.7219 129.79 37.7219C130.17 37.7219 130.507 37.792 130.799 37.9323C131.094 38.0705 131.329 38.2666 131.504 38.5207C131.678 38.7727 131.778 39.0674 131.802 39.4048H130.747C130.705 39.1792 130.603 38.9912 130.443 38.8408C130.284 38.6884 130.072 38.6121 129.805 38.6121C129.58 38.6121 129.382 38.6731 129.211 38.7951C129.04 38.915 128.907 39.0877 128.811 39.3134C128.718 39.539 128.671 39.8093 128.671 40.1243C128.671 40.4434 128.718 40.7178 128.811 40.9475C128.905 41.1752 129.036 41.351 129.205 41.475C129.375 41.5969 129.576 41.6579 129.805 41.6579C129.968 41.6579 130.113 41.6274 130.241 41.5664C130.371 41.5034 130.48 41.413 130.568 41.2951C130.655 41.1772 130.715 41.0339 130.747 40.8652H131.802C131.776 41.1965 131.678 41.4902 131.51 41.7463C131.341 42.0004 131.111 42.1995 130.821 42.3439C130.53 42.4861 130.188 42.5573 129.796 42.5573Z" fill="#130C49"/>
<path d="M122.534 42.4663H121.327L123.525 36.2224H124.921L127.123 42.4663H125.915L124.248 37.5029H124.199L122.534 42.4663ZM122.574 40.0181H125.867V40.9267H122.574V40.0181Z" fill="#130C49"/>
<path fill-rule="evenodd" clip-rule="evenodd" d="M150.706 46.2729H87.9272V45.8283H150.706C152.873 45.8283 154.63 47.1221 154.63 48.7181V63.3891H156.071L154.328 65.612L152.586 63.3891H154.026V48.7181C154.026 47.3677 152.54 46.2729 150.706 46.2729Z" fill="#130C49"/>
<path fill-rule="evenodd" clip-rule="evenodd" d="M11.5121 44.7292L14.5748 46.3261L11.5121 47.9229V46.6026H3.98149C2.12087 46.6026 0.612537 47.9647 0.612537 49.645V92.791C0.612537 94.4712 2.12087 95.8334 3.98149 95.8334H150.99C152.851 95.8334 154.359 94.4712 154.359 92.791V86.7244H154.972V92.791C154.972 94.7768 153.189 96.3865 150.99 96.3865H3.98149C1.78258 96.3865 0 94.7767 0 92.791V49.645C0 47.6593 1.78257 46.0495 3.98149 46.0495H11.5121V44.7292Z" fill="#130C49"/>
</svg>
