<svg width="167" height="39" viewBox="0 0 167 39" fill="none" xmlns="http://www.w3.org/2000/svg">
<g id="Group">
<path id="Vector" fill-rule="evenodd" clip-rule="evenodd" d="M34.6549 22.482C38.0713 22.482 42.988 21.7835 42.988 17.7539C42.988 17.4315 42.988 17.1271 42.9157 16.8405L40.8912 8.10068C40.4212 6.16646 40.0054 5.28889 36.589 3.62331C33.9499 2.2801 28.1655 0.0593262 26.4845 0.0593262C24.9118 0.0593262 24.4238 2.10101 22.5439 2.10101C20.6639 2.10101 19.3805 0.578701 17.6633 0.578701C15.9461 0.578701 14.9519 1.67118 14.1384 3.96359C14.1384 3.96359 11.8608 10.3752 11.5716 11.3244C11.5355 11.5035 11.4993 11.6826 11.4993 11.8259C11.4993 14.2974 21.387 22.4641 34.6549 22.4999M43.5484 19.4016C44.0183 21.6223 44.0184 21.8372 44.0184 22.1238C44.0184 25.9027 39.7162 28.016 34.0945 28.016C21.3508 28.016 10.1798 20.6194 10.1798 15.748C10.1798 15.0496 10.3244 14.4048 10.5775 13.778C5.98612 13.9571 0.0390625 14.763 0.0390625 19.9747C0.0390625 28.4996 20.3567 38.9408 36.4987 38.9408C48.8447 38.9408 51.9718 33.4068 51.9718 29.0369C51.9357 25.6161 48.9531 21.7119 43.5484 19.3836" fill="#ED1C24"/>
<path id="Vector_2" fill-rule="evenodd" clip-rule="evenodd" d="M43.5483 19.3837C44.0182 21.6045 44.0182 21.8194 44.0182 22.1059C44.0182 25.8848 39.7161 27.9982 34.0944 27.9982C21.3507 27.9982 10.1797 20.6015 10.1797 15.7302C10.1797 15.0317 10.3243 14.3869 10.5774 13.7601L11.5715 11.3244C11.5354 11.5035 11.4992 11.6468 11.4992 11.8259C11.4992 14.2974 21.3869 22.4999 34.6548 22.4999C38.0712 22.4999 42.9879 21.8015 42.9879 17.7718C42.9879 17.4495 42.9879 17.145 42.9156 16.8585L43.5483 19.3658V19.3837ZM157.988 24.9894C157.988 28.1952 159.941 29.7533 163.502 29.7533C164.604 29.7175 165.671 29.5742 166.737 29.3235V25.6162C166.068 25.8311 165.345 25.9386 164.64 25.9386C163.176 25.9386 162.616 25.5087 162.616 24.1118V18.3987H166.882V14.584H162.652V9.67676L158.025 10.6618V14.5123H154.934V18.327H157.988V24.9894ZM143.546 25.061C143.546 24.076 144.54 23.5745 146.076 23.5745C146.998 23.5745 147.92 23.682 148.824 23.8969V25.8311C147.938 26.2968 146.944 26.5654 145.914 26.5654C144.413 26.5654 143.527 26.0281 143.527 25.0789L143.546 25.061ZM144.937 29.7891C146.582 29.7891 147.884 29.4667 149.131 28.625V29.5384H153.722V19.8852C153.722 16.2137 151.228 14.2079 147.07 14.2079C144.757 14.2079 142.443 14.7451 139.985 15.8376L141.629 19.2225C143.401 18.4882 144.901 18.0226 146.221 18.0226C148.137 18.0226 149.131 18.7569 149.131 20.2792V21.0135C147.992 20.7269 146.853 20.5836 145.679 20.5836C141.792 20.5836 139.424 22.2134 139.424 25.0968C139.424 27.7832 141.557 29.8249 144.937 29.7891ZM119.721 29.5742H124.638V21.7836H132.899V29.5742H137.852V9.65885H132.935V17.3062H124.674V9.65885H119.757L119.721 29.5742ZM100.94 22.0343C100.94 19.8852 102.675 18.2196 104.917 18.2196C106.092 18.1838 107.231 18.6136 108.116 19.3837V24.6312C107.231 25.4371 106.092 25.8669 104.917 25.8311C102.712 25.8311 100.94 24.2013 100.94 22.0522V22.0343ZM108.225 29.5742H112.816V8.67383L108.189 9.65885V15.3003C107.014 14.6377 105.694 14.2795 104.338 14.3153C99.9278 14.3153 96.4391 17.7002 96.4391 21.9985V22.1059C96.4391 26.2968 99.9278 29.7533 104.158 29.7533H104.194C105.658 29.7533 107.104 29.3235 108.279 28.4459L108.243 29.5742H108.225ZM87.166 18.0047C88.6302 18.0047 89.8413 18.9539 90.3655 20.4045H84.0388C84.4727 18.918 85.6115 18.0047 87.166 18.0047ZM79.339 22.0522C79.339 26.4221 82.9362 29.8428 87.5998 29.8428C90.1305 29.8428 92.0104 29.1444 93.9627 27.5862L90.8716 24.8998C90.1305 25.6341 89.1001 26.0281 87.8167 26.0281C86.208 26.0639 84.6896 25.1147 84.075 23.6282H94.8845V22.4999C94.8845 17.736 91.6489 14.2795 87.2383 14.2795H87.1299C82.8639 14.2795 79.339 17.7718 79.339 21.9985V22.0701V22.0522ZM71.3313 13.8676C72.9762 13.8676 73.8619 14.8884 73.8619 16.1242C73.8619 17.3599 72.9401 18.3808 71.3313 18.3808H66.4508V13.9034L71.3313 13.8676ZM61.516 29.5563H66.4327V22.3029H70.2106L73.9885 29.5563H79.5017L75.0912 21.5866C77.3688 20.6732 78.8691 18.4524 78.8691 15.9809C78.8691 12.4169 76.0311 9.64094 71.7832 9.64094H61.4979V29.5563H61.516Z" fill="#130C49"/>
<path id="Vector_3" fill-rule="evenodd" clip-rule="evenodd" d="M43.5483 19.3837C44.0182 21.6045 44.0182 21.8194 44.0182 22.106C44.0182 25.8849 39.7161 27.9982 34.0944 27.9982C21.3507 27.9982 10.1797 20.6016 10.1797 15.7302C10.1797 15.0317 10.3243 14.387 10.5774 13.7602L11.5715 11.3245C11.5354 11.5036 11.4992 11.6468 11.4992 11.8259C11.4992 14.2974 21.3869 22.5 34.6548 22.5C38.0712 22.5 42.9879 21.8015 42.9879 17.7719C42.9879 17.4495 42.9879 17.145 42.9156 16.8585L43.5483 19.3658V19.3837Z" fill="#010101"/>
</g>
</svg>
