<svg width="105" height="17" viewBox="0 0 105 17" fill="none" xmlns="http://www.w3.org/2000/svg">
<g id="Group 1261162502">
<g id="Group">
<path id="Vector" fill-rule="evenodd" clip-rule="evenodd" d="M91.6547 11.7289V7.37109H89.2148V12.1922C89.2148 13.8252 90.9316 15.1463 93.0496 15.1463C95.1675 15.1463 96.8843 13.8206 96.8843 12.1922V7.37109H94.4631V11.7289C94.4631 12.4537 93.8333 13.0408 93.0589 13.0408C92.2845 13.0408 91.6547 12.4537 91.6547 11.7289Z" fill="#B9C8DE"/>
<path id="Vector_2" d="M104.846 2.19141H102.387V14.8749H104.846V2.19141ZM100.689 2.19141H98.2305V14.8749H100.689V2.19141Z" fill="#B9C8DE"/>
<path id="Vector_3" fill-rule="evenodd" clip-rule="evenodd" d="M53.2678 4.85338H51.9335V14.8763H49.3164V2.77539H53.8136C55.8616 2.77539 57.5177 4.37631 57.5177 6.34879C57.5177 8.0277 56.3141 9.44054 54.6953 9.82128L58.3061 14.8763H55.2224L52.61 10.913V8.01852H53.2164C54.1821 8.01852 54.9659 7.30751 54.9659 6.43595C54.9659 5.56439 54.2334 4.85338 53.2678 4.85338Z" fill="#B9C8DE"/>
<path id="Vector_4" d="M66.0327 11.6134C66.0514 11.4483 66.056 11.2786 66.056 11.1043C66.0933 8.48958 64.3346 7.0538 62.0907 7.0538C59.8467 7.0538 58.0273 8.86573 58.0273 11.0951C58.0273 13.3245 59.8467 15.141 62.0907 15.141C63.8028 15.141 65.1417 14.3795 65.8274 13.1868L63.8308 12.2832C63.5742 12.8245 62.9817 13.2052 62.2913 13.2006C61.3349 13.2006 60.6258 12.5079 60.6212 11.696V11.6134H66.0374H66.0327ZM60.6072 10.2235C60.6212 9.40702 61.3069 8.76023 62.1327 8.77399C62.9397 8.78775 63.5928 9.42995 63.6068 10.2235H60.6025H60.6072ZM75.8155 14.8749V2.19141H73.3616V8.19142C72.7085 7.55839 71.8408 7.17307 70.8938 7.17307C68.8644 7.17307 67.2176 8.94371 67.2176 11.1272C67.2176 13.3107 68.8644 15.0813 70.8938 15.0813C71.8501 15.0813 72.7225 14.6777 73.3756 14.0309V14.8749H75.8155ZM71.5889 13.0217C70.5952 13.0217 69.7835 12.1501 69.7835 11.0813C69.7835 10.0125 70.5905 9.14096 71.5889 9.14096C72.5872 9.14096 73.3943 10.0125 73.3943 11.0813C73.3943 12.1501 72.5872 13.0217 71.5889 13.0217ZM86.2047 8.28775C86.8765 7.66848 87.287 6.84279 87.287 5.93453C87.287 5.11343 86.9651 4.35655 86.4006 3.76022C85.8128 3.12719 84.7772 2.76939 83.373 2.76939H79.1697V14.8703H84.5952C86.6759 14.8382 88.3506 13.2923 88.3506 11.3978C88.3506 10.0217 87.8561 9.03546 86.2 8.27857L86.2047 8.28775ZM84.1474 12.774H81.7961V4.85196H83.4336C84.152 4.85196 84.7352 5.49875 84.7352 6.20976C84.7352 6.91619 84.152 7.48958 83.4336 7.49417H82.5799V9.66849H84.1474C85.0197 9.66849 85.6822 10.3611 85.6822 11.2189C85.6495 12.1043 85.099 12.719 84.1474 12.774Z" fill="#B9C8DE"/>
<path id="Vector_5" d="M22.3113 0.605201C26.6825 0.605201 30.242 4.10521 30.242 8.40338C30.242 12.7016 26.6825 16.2016 22.3113 16.2016C17.9401 16.2016 14.3806 12.7016 14.3806 8.40338C14.3806 4.10521 17.9354 0.605201 22.3113 0.605201ZM22.3113 0.146484C17.6742 0.146484 13.9141 3.84374 13.9141 8.40338C13.9141 12.963 17.6742 16.6603 22.3113 16.6603C26.9484 16.6603 30.7085 12.963 30.7085 8.40338C30.7085 3.84374 26.9484 0.146484 22.3113 0.146484Z" fill="#B9C8DE"/>
<path id="Vector_6" d="M32.1305 12.2379C32.1025 12.2058 32.0511 12.2012 32.0232 12.2012C32.0092 12.2012 31.9998 12.2012 31.9858 12.2012C31.8972 12.2103 31.8132 12.2149 31.7293 12.2149C31.6873 12.2149 31.6406 12.2149 31.5986 12.2149C31.5613 12.2149 31.5287 12.2149 31.5007 12.2149C31.4493 12.2149 31.4027 12.2149 31.3607 12.2241H31.3514V12.2333C31.3514 12.2333 31.1741 12.5314 31.1974 12.7149C31.2208 12.9122 31.4214 12.9489 31.5753 12.981C31.6313 12.9902 31.6919 13.0039 31.7572 13.0039C31.8692 13.0039 31.9392 12.9672 31.9765 12.8938C32.0558 12.7012 32.1165 12.4993 32.1491 12.2929C32.1538 12.2746 32.1491 12.2516 32.1351 12.2379H32.1305ZM43.0982 12.8847C43.0049 12.7516 42.8369 12.6415 42.7063 12.5544C42.655 12.5223 42.6037 12.4856 42.5523 12.4489L42.5243 12.4305C42.4964 12.403 42.4544 12.3892 42.417 12.3892C42.2678 12.3892 42.1045 12.5681 42.0998 12.6278C42.0952 12.7149 42.2258 12.8755 42.3937 13.0727L42.431 13.114C42.515 13.2149 42.6083 13.2654 42.7063 13.2746C42.8043 13.2746 42.8836 13.2425 42.9629 13.1645C43.0235 13.1094 43.1588 12.9672 43.0982 12.8847ZM43.7979 14.0315C43.7746 13.9856 43.7559 13.9397 43.7419 13.8938C43.7279 13.825 43.7186 13.7608 43.7093 13.692C43.6953 13.5819 43.6813 13.481 43.6486 13.403C43.5973 13.3021 43.4994 13.2379 43.3827 13.2379C43.3454 13.2379 43.3081 13.247 43.2708 13.2654C43.1075 13.348 43.0095 13.4351 43.0375 13.614C43.1261 13.8801 43.1728 14.0727 43.2334 14.3342C43.2381 14.3755 43.2661 14.5039 43.3314 14.5039C43.3361 14.5039 43.3407 14.5039 43.3454 14.5039L43.8166 14.3526C43.8166 14.3526 43.8586 14.3296 43.8679 14.3113C43.8959 14.247 43.8446 14.1461 43.7979 14.0452V14.0315Z" fill="#B9C8DE"/>
<path id="Vector_7" d="M42.9635 14.4035C42.9262 14.1191 42.8469 13.8393 42.7256 13.5778V13.5641H42.7069C42.4317 13.5824 42.2637 13.3622 42.0958 13.1512C42.0398 13.0824 41.9931 13.0182 41.9372 12.9586C41.8579 12.8668 41.7692 12.7842 41.6759 12.7063C41.578 12.6237 41.4986 12.5503 41.466 12.4861C41.4287 12.4081 41.3867 12.2521 41.3447 12.1053C41.3167 11.9998 41.2887 11.8989 41.2607 11.8347C41.2561 11.8209 41.2514 11.8072 41.2421 11.7934C41.1907 11.665 41.1301 11.4998 40.9622 11.4769C40.8782 11.4631 40.7849 11.4586 40.6962 11.454C40.449 11.4448 40.2017 11.4035 40.0758 11.2246C39.9592 11.0641 40.0058 10.9173 40.0758 10.7567C40.1038 10.6879 40.1271 10.6283 40.1411 10.5595C40.2297 10.2659 40.2624 9.89892 40.1924 9.64662C40.1831 9.60534 40.1691 9.56405 40.1551 9.52277C40.1178 9.41726 40.0758 9.25671 40.1038 9.20625C40.1318 9.1558 40.1598 9.15121 40.2064 9.15121C40.2484 9.15121 40.2997 9.16497 40.3464 9.17873C40.379 9.18791 40.407 9.19249 40.4397 9.20167C40.561 9.22919 40.7476 9.2613 40.9155 9.2613C41.1954 9.2613 41.4847 9.20167 41.7366 9.09616C42.2124 8.87139 42.6836 8.35763 42.6603 7.72001C42.5949 7.07781 42.1937 6.45854 41.424 5.82093C41.4053 5.80716 41.3867 5.78882 41.368 5.77505C41.2701 5.69249 41.1488 5.59157 41.1441 5.49982C41.1441 5.40808 41.382 5.35304 41.5313 5.32093C41.5686 5.31175 41.5966 5.30716 41.6246 5.29799L41.6619 5.28882C41.8532 5.23836 42.0491 5.1879 42.2124 5.07781C42.7629 4.71542 42.7396 4.07322 42.6789 3.72459C42.6789 3.71542 42.6743 3.70166 42.6696 3.69248C42.6603 3.64661 42.6463 3.59156 42.6043 3.59156C42.5903 3.59156 42.5716 3.60074 42.5623 3.60991C42.5483 3.62367 42.5296 3.64202 42.511 3.65578C42.4457 3.71542 42.3804 3.77964 42.2964 3.82551C42.1238 3.92643 41.9138 3.9723 41.7132 4.01358C41.5826 4.04111 41.452 4.06863 41.326 4.10991C40.7802 4.2934 40.4397 4.56863 40.3184 4.91725C40.2531 5.10074 40.2904 5.3301 40.4117 5.55028C40.5889 5.8301 40.8455 6.07322 41.0974 6.30717C41.494 6.67873 41.8998 7.05946 41.9931 7.5824C42.0445 7.88515 41.9185 8.14203 41.6106 8.36222C41.4473 8.45855 41.2421 8.509 41.0135 8.509C40.7242 8.509 40.4397 8.43561 40.1784 8.30258C39.8612 8.14662 39.5486 7.94478 39.2501 7.74754C38.8022 7.45396 38.3357 7.14662 37.8225 6.98607C37.5986 6.88515 37.3514 6.83469 37.1134 6.78882C36.7729 6.72001 36.423 6.6512 36.1384 6.43561C36.0405 6.37139 35.9472 6.30717 35.8539 6.23836C35.5973 6.05487 35.3314 5.8668 35.0328 5.7934C34.9208 5.75671 34.8135 5.74294 34.7062 5.7246C34.5429 5.70166 34.389 5.67872 34.2444 5.58239L34.0484 5.44478C33.8105 5.27505 33.5633 5.09615 33.316 4.9723C32.8915 4.76588 32.439 4.65579 31.9351 4.55028C31.7719 4.51358 31.6739 4.39432 31.5666 4.26588C31.4966 4.17872 31.422 4.09157 31.3287 4.03193C30.9415 3.72918 30.5869 3.52734 30.1297 3.52734C30.0878 3.52734 30.0458 3.52734 30.0038 3.53193C29.7659 3.54569 29.5326 3.72459 29.3787 3.85762C28.9261 4.24753 28.4363 4.59615 27.9651 4.93102C27.2607 5.43102 26.5329 5.94937 25.9125 6.61451C25.3013 7.23377 25.0821 8.009 24.8628 8.7613C24.8302 8.87139 24.8022 8.98148 24.7649 9.09157C24.7089 9.298 24.6529 9.50901 24.6016 9.71084C24.3217 10.8163 24.0324 11.9219 22.9081 12.6375C22.8335 12.6833 22.8615 12.7797 22.9268 12.8026C22.9548 12.8118 23.426 12.9677 23.8971 12.5044C24.1817 12.1604 24.3403 11.8393 24.6762 11.4815C24.6855 11.4723 24.7275 11.4402 24.7602 11.4448C24.7835 11.454 24.7882 11.4677 24.7835 11.509C24.7415 11.6512 24.6529 11.7751 24.5643 11.8989C24.4756 12.0228 24.387 12.1512 24.3403 12.3026C24.233 12.6191 23.9298 12.876 23.6639 13.1008C23.6639 13.1008 23.6219 13.1283 23.5986 13.1558C23.5752 13.1879 23.5752 13.1971 23.5752 13.1971C23.5659 13.2659 23.6219 13.3118 23.7385 13.3164C24.3683 13.3164 24.8162 12.876 25.25 12.4494C25.2687 12.431 25.2967 12.4219 25.3247 12.4219C25.348 12.4219 25.3713 12.4219 25.3946 12.431C25.4226 12.4448 25.4879 12.509 25.5393 12.5549C25.6839 12.6787 25.8285 12.8072 26.0151 12.8439H26.0198C26.2484 12.8118 26.4536 12.7888 26.6682 12.7888C26.7289 12.7888 26.7895 12.7888 26.8408 12.7934C27.0694 12.8622 27.3027 12.9448 27.5219 13.0274C27.6759 13.087 27.8392 13.1466 28.0025 13.1971H28.0071C28.217 13.1879 28.3663 12.9998 28.4783 12.8255C28.5296 12.7063 28.5063 12.587 28.4783 12.4723C28.4643 12.3989 28.4503 12.3347 28.455 12.2705C28.4923 12.2521 28.5483 12.2567 28.6042 12.2613C28.6556 12.2705 28.7255 12.2613 28.7489 12.2613C28.8049 12.2521 28.8608 12.1925 28.8468 12.1099C28.8048 11.9035 28.7022 11.7751 28.5949 11.6191C28.5016 11.4861 28.4176 11.3576 28.371 11.2154C28.301 11.0274 28.1564 10.8714 28.0118 10.7154C27.8485 10.5411 27.6899 10.3714 27.6432 10.1604C27.6432 10.1604 27.6292 10.1145 27.6432 10.0962C27.6572 10.0778 27.7039 10.0962 27.7039 10.0962C27.7785 10.1512 27.8578 10.2108 27.9278 10.2705C28.1657 10.4631 28.413 10.6604 28.7162 10.7017C28.9961 10.7292 29.304 10.7659 29.6026 10.7384C29.6819 10.7246 29.7239 10.6558 29.7052 10.5916C29.5839 10.3439 29.4626 10.0778 29.388 9.78882C29.3273 9.56864 29.1827 8.99524 29.3273 8.55946C29.3413 8.51818 29.3693 8.50442 29.3973 8.50442C29.3973 8.50442 29.402 8.50442 29.4067 8.50442C29.4533 8.51359 29.486 8.57323 29.4953 8.6191V8.67414C29.5419 9.26589 29.5839 9.82552 29.9478 10.3026C30.0458 10.4585 30.1857 10.5365 30.321 10.6145C30.4143 10.6696 30.5216 10.72 30.5916 10.8026C30.6709 10.8989 30.6802 11.0641 30.6289 11.165L30.1764 11.8209C30.0691 11.9723 29.9665 12.1283 29.9291 12.2934C29.8965 12.4586 29.9105 12.6191 29.9291 12.7751V12.8118C29.9291 12.8118 29.9058 12.7888 29.8965 12.7751C29.7145 12.4494 29.6772 12.1787 29.7705 11.9677C29.8312 11.8301 30.1997 11.3163 30.3024 11.1512C30.335 11.0962 30.363 11.0411 30.335 11.0044C30.2977 10.9586 30.0224 10.8439 29.9525 10.8439C29.9525 10.8439 29.9431 10.8439 29.9385 10.8439C29.8732 10.8622 29.8312 10.9219 29.7939 10.9723C29.7845 10.9861 29.7752 10.9952 29.7659 11.009L29.2107 12.0044L29.1967 12.0411C29.1641 12.142 29.1361 12.2246 29.1641 12.3393C29.1967 12.4907 29.2434 12.6466 29.276 12.7659L29.304 12.8622C29.3553 13.0365 29.402 13.1971 29.4766 13.2888C29.5233 13.3439 29.5933 13.376 29.6679 13.3714C29.7099 13.3714 29.7519 13.3668 29.7939 13.3576C29.8638 13.3485 29.9385 13.3393 29.9945 13.3531C30.0784 13.376 30.1344 13.4356 30.1997 13.4998C30.2604 13.5641 30.3257 13.6329 30.419 13.6604C30.5916 13.7154 30.7735 13.7659 30.9461 13.8072C31.1794 13.8668 31.4173 13.931 31.6459 14.0182C31.7765 14.0595 31.9118 14.0962 32.0471 14.0962C32.1964 14.0962 32.2897 14.0549 32.4157 13.954C32.5976 13.8072 32.6536 13.665 32.7002 13.4586C32.7375 13.2705 32.7982 13.2567 32.9381 13.2475C33.0035 13.2475 33.0175 13.2475 33.0828 13.2246C33.1527 13.2017 33.3533 12.9586 33.4606 12.7613C33.4886 12.7063 33.5213 12.6558 33.5493 12.6145C33.5773 12.5778 33.5913 12.5365 33.5913 12.4907C33.5913 12.3897 33.5073 12.3622 33.456 12.3622H33.4187C33.4187 12.3622 32.8262 12.3576 32.6629 12.3622C32.4203 12.376 32.313 12.6053 32.229 12.8118C32.1964 12.8897 32.1637 12.9631 32.1264 13.0274C32.0611 13.142 31.9351 13.2108 31.7812 13.2063C31.7345 13.2063 31.6366 13.1787 31.5853 13.165C31.2634 13.087 30.9321 13.009 30.7969 12.6925C30.7829 12.6375 30.7642 12.5274 30.8435 12.4356C31.0161 12.243 31.24 11.9907 31.4733 11.8163C31.7952 11.7475 32.1171 11.5136 32.2944 11.22C32.3317 11.1696 32.3503 11.1099 32.369 11.0503C32.397 10.9631 32.425 10.876 32.509 10.8255C32.5603 10.798 32.6023 10.8072 32.6116 10.853C32.6442 11.0182 32.5789 11.1741 32.5183 11.3301C32.5043 11.3622 32.4903 11.3989 32.4763 11.4356L32.467 11.4631H32.495C32.5836 11.4723 32.6769 11.4769 32.7655 11.4769C33.0968 11.4769 33.4093 11.4219 33.7172 11.3668C34.0205 11.3118 34.333 11.2567 34.6549 11.2567C34.6876 11.2567 34.7249 11.2567 34.7575 11.2567C34.9022 11.2567 35.0421 11.2705 35.1774 11.2797C35.308 11.2888 35.448 11.3026 35.5833 11.3026C35.6299 11.3026 35.6766 11.3026 35.7232 11.298C36.1384 11.2797 36.437 11.0962 36.5256 10.8026C36.6096 10.5549 36.6003 10.1237 36.4976 9.52277C36.493 9.49525 36.4883 9.4769 36.4883 9.47231V9.46313C36.4883 9.46313 36.4883 9.41726 36.521 9.4035C36.5583 9.38057 36.6003 9.4035 36.6189 9.45396C36.7775 9.88515 36.8662 10.3806 36.9128 10.7246C36.9641 11.0549 37.1088 11.3943 37.3467 11.7521C37.6406 12.1833 38.1304 12.4356 38.6809 12.4356C38.8115 12.4356 38.9375 12.4127 39.0681 12.3943C39.1568 12.3852 39.1894 12.3897 39.2501 12.3897C39.9545 12.3897 40.5656 12.6879 41.0228 13.2567C41.0228 13.2567 41.0321 13.2659 41.0321 13.2842C41.0321 13.3072 40.9948 13.3301 40.9668 13.3209L40.9062 13.2751C40.5096 12.9723 40.0991 12.6604 39.5859 12.5962C39.488 12.5778 39.3947 12.5732 39.2967 12.5732C39.1521 12.5732 39.0075 12.587 38.8629 12.6053C38.7229 12.6191 38.5876 12.6375 38.4523 12.6375C38.2937 12.6375 38.1351 12.6145 37.9858 12.5549C37.3933 12.3622 36.9082 11.6925 36.7542 11.2751C36.7449 11.2521 36.7169 11.2338 36.6936 11.2338C36.6749 11.2338 36.6609 11.2384 36.6423 11.2475C36.5723 11.2888 36.5629 11.3118 36.5536 11.353C36.5443 11.3897 36.6003 11.6879 36.6283 11.8163C36.7076 12.1329 36.8242 12.6145 37.2441 12.7888C37.2954 12.8209 37.3467 12.8531 37.4027 12.8852C37.6126 13.0182 37.8319 13.1558 38.0838 13.1558C38.1444 13.1558 38.2051 13.1466 38.2611 13.1329C38.4103 13.1008 38.5643 13.0824 38.7182 13.0824C39.2034 13.0824 39.7026 13.2475 40.1178 13.5457C40.1877 13.587 40.2531 13.6375 40.3184 13.6925C40.407 13.7659 40.5003 13.8439 40.6123 13.8852C40.6822 13.9127 40.7569 13.9264 40.8362 13.9264C41.0228 13.9264 41.0741 13.8714 41.2094 13.8072C41.2607 13.7842 41.312 13.7705 41.368 13.7705C41.5173 13.7705 41.6013 13.8852 41.7086 14.032C41.7739 14.1191 41.8439 14.22 41.9418 14.3072C42.0771 14.4402 42.2684 14.454 42.4177 14.454C42.5016 14.454 42.581 14.4494 42.6649 14.4448C42.7442 14.4402 42.8375 14.4356 42.8842 14.431C42.9308 14.4264 42.9588 14.4173 42.9588 14.4173V14.3989V14.4035H42.9635ZM26.9295 12.1925C26.9015 12.243 26.8362 12.2705 26.7475 12.2705C26.6729 12.2705 26.6029 12.2521 26.5423 12.2154C26.4303 12.1375 26.365 12.0044 26.3557 11.8301C26.3557 11.7888 26.3557 11.7475 26.407 11.7108C26.435 11.6971 26.449 11.6971 26.4816 11.6971C26.5889 11.6971 26.7615 11.7659 26.8548 11.876C26.8595 11.8852 27.0041 12.0686 26.9295 12.1971V12.1925ZM27.0834 9.74754C27.0414 9.798 26.9808 9.8347 26.9201 9.80717C26.8642 9.78882 26.8128 9.71543 26.7849 9.66038C26.7475 9.59158 26.7149 9.53194 26.6216 9.54112H26.6076C26.5283 9.5457 26.4676 9.58699 26.4023 9.63745C26.3697 9.66497 26.239 9.75671 26.2064 9.78424C26.0291 9.93103 25.8518 10.0824 25.8098 10.2842C25.8005 10.3209 25.7912 10.3576 25.7865 10.3943C25.7725 10.4677 25.7585 10.5411 25.6979 10.5778C25.6979 10.5778 25.6792 10.5824 25.6699 10.5824C25.6419 10.5824 25.6139 10.5732 25.5952 10.5549C25.5719 10.5365 25.5579 10.5136 25.5579 10.4861C25.5253 10.1329 25.6466 9.81635 25.8985 9.59158C26.0618 9.45855 26.1924 9.29341 26.3183 9.13286C26.379 9.05488 26.4443 8.97231 26.5096 8.89891C26.5609 8.84845 26.6402 8.88974 26.7755 9.03653C26.8315 9.09616 27.0088 9.39433 27.0881 9.58699C27.1067 9.63745 27.1021 9.69249 27.0788 9.73836L27.0834 9.74754ZM30.0458 5.6512C29.9758 5.71542 29.9058 5.77964 29.8358 5.84386C29.5839 6.06863 29.3227 6.30258 29.1547 6.56405C29.0754 6.66955 29.0148 6.79799 28.9541 6.91726C28.9495 6.93102 28.9355 6.95854 28.9075 6.95854C28.8935 6.95854 28.8795 6.94937 28.8702 6.94019C28.8235 6.89432 28.8608 6.55946 28.9261 6.39432C29.0661 6.02735 29.3787 5.64203 29.7892 5.33927C29.8358 5.31175 29.8872 5.29799 29.9431 5.29799C30.0224 5.29799 30.0784 5.33469 30.1064 5.39432C30.1577 5.47689 30.1391 5.56863 30.0504 5.65579L30.0458 5.6512ZM13.228 12.6283C13.214 12.6053 13.2 12.5778 13.186 12.5549C13.144 12.4769 13.1207 12.3943 13.1021 12.3255C13.0601 12.1833 13.0227 12.0549 12.8641 12.0778C12.6402 12.1099 12.4209 12.1237 12.1737 12.1237C12.1737 12.1237 12.0944 12.1237 12.0711 12.1741C12.0431 12.2338 12.1037 12.2934 12.1737 12.3485C12.211 12.3806 12.2483 12.4173 12.2763 12.454C12.323 12.5182 12.365 12.6145 12.4069 12.7017C12.4723 12.8485 12.5329 12.9677 12.5982 12.9907C12.6309 12.9998 12.6589 13.0044 12.6915 13.0044C12.8455 13.0044 13.0554 12.9219 13.2093 12.8072C13.2933 12.7338 13.2653 12.6879 13.228 12.6237V12.6283ZM2.19033 12.4035L2.17634 12.3943C2.12968 12.3576 2.04571 12.3622 1.98973 12.3989C1.95241 12.4264 1.91042 12.4494 1.8731 12.4769C1.74714 12.5595 1.61652 12.642 1.48123 12.7567C1.42992 12.798 1.40193 12.876 1.39726 12.9356C1.39726 12.9815 1.39726 13.0228 1.42059 13.0457C1.42992 13.0595 1.53255 13.165 1.55121 13.1833C1.5932 13.22 1.65384 13.243 1.70982 13.243C1.75647 13.243 1.80313 13.2292 1.84511 13.2063C2.0877 13.087 2.33962 12.642 2.34895 12.6145C2.37227 12.5411 2.29296 12.4769 2.18567 12.3943L2.19033 12.4035ZM1.38793 13.454C1.33661 13.3852 1.17333 13.1925 1.08003 13.1925C1.0707 13.1925 1.06604 13.1925 1.05671 13.1971C0.926083 13.2475 0.776799 13.4127 0.767469 13.5136C0.734813 13.9448 0.720818 13.9907 0.60419 14.1237C0.571534 14.1604 0.548208 14.2475 0.585529 14.2842C0.618185 14.3164 1.04738 14.4494 1.09869 14.4494H1.10802C1.14534 14.4356 1.178 14.3393 1.26664 14.0411C1.31329 13.8806 1.3646 13.7017 1.42525 13.5365C1.42525 13.5274 1.42525 13.509 1.3926 13.454H1.38793Z" fill="#B9C8DE"/>
<path id="Vector_8" d="M14.552 13.4265C14.7293 13.4128 14.9112 13.399 15.0419 13.266C15.2051 13.032 15.3451 12.7981 15.4664 12.5504C15.5784 12.3256 15.5784 12.11 15.4664 11.9403C15.1398 11.4311 15.0839 11.2935 14.9532 10.9495V10.9403H14.9392C14.9019 10.9265 14.8646 10.9174 14.8273 10.899C14.748 10.8669 14.664 10.8348 14.5707 10.8348H14.5567C14.4447 10.8348 14.3701 10.8715 14.3374 10.9357V10.9449L14.9206 12.0871C14.9579 12.1742 14.9999 12.266 14.9766 12.399C14.9532 12.532 14.664 12.9816 14.58 13.0366C14.566 13.0504 14.5474 13.055 14.5287 13.0596C14.524 13.0596 14.4914 13.055 14.51 12.9862C14.566 12.8027 14.636 12.3623 14.6173 12.2247C14.594 12.0641 14.1042 11.2614 14.0809 11.2247L14.0715 11.2109C13.9969 11.0871 13.9176 10.9632 13.9222 10.8119C13.9222 10.743 13.9875 10.6972 14.0342 10.6788C14.1182 10.6467 14.2021 10.633 14.2908 10.6146C14.5007 10.5687 14.7153 10.5229 14.7946 10.4082C15.0279 10.055 15.1725 9.688 15.2658 9.17882C15.2658 9.15588 15.2845 9.1146 15.3171 9.1146C15.3358 9.1146 15.3544 9.11919 15.3638 9.16506C15.4524 9.6513 15.3358 10.1513 15.0419 10.555C15.0232 10.5871 15.0139 10.6284 15.0185 10.6651C15.0232 10.7063 15.0699 10.7385 15.0699 10.7385C15.1818 10.8164 15.597 10.7706 15.8956 10.6146C16.1242 10.6192 16.3388 10.5779 16.5487 10.5412C16.614 10.5274 16.6793 10.5183 16.7446 10.5045C16.7633 10.5137 16.782 10.5366 16.7866 10.5504C16.6093 10.743 16.502 10.9632 16.4507 11.2385C16.3994 11.2889 16.3481 11.3348 16.2968 11.3852C16.1055 11.5596 15.9002 11.7522 15.8863 11.9999C15.8863 11.9999 15.8816 12.0871 15.9796 12.0963C16.0075 12.0963 16.0449 12.0825 16.0775 12.0687C16.1102 12.055 16.1428 12.0458 16.1802 12.0412C16.2128 12.0412 16.2361 12.0687 16.2361 12.1008L16.0169 12.4174C15.9329 12.5504 15.9702 12.688 16.0029 12.8256C16.0262 12.899 16.0169 12.9586 16.0355 13.0229C16.0915 13.1788 16.2875 13.2522 16.4414 13.2522C16.726 13.2385 16.9872 13.1467 17.2391 13.0596C17.2858 13.0458 17.3278 13.0275 17.3744 13.0137C17.6497 12.8944 18.0182 12.8715 18.4567 12.9403C18.8066 12.9174 19.0725 12.688 19.3291 12.4678C19.4411 12.4678 19.553 12.5366 19.6697 12.6605C20.0522 13.0641 20.5187 13.2568 21.0972 13.2568H21.2232C21.2838 13.2385 21.2978 13.2109 21.3025 13.1742C21.3025 13.1284 21.2698 13.0871 21.2092 13.055L20.8826 12.8853C20.6214 12.7247 20.3414 12.5275 20.2621 12.2706C20.1782 11.9953 20.0196 11.7155 19.9029 11.532C19.8796 11.4953 19.8516 11.4586 19.8283 11.4219C19.7816 11.3577 19.735 11.2889 19.7023 11.2201C20.0569 11.344 20.2528 11.6008 20.4954 12.0274C20.6727 12.344 21.1345 12.688 21.573 12.688C21.629 12.688 21.685 12.6834 21.741 12.6697C21.7876 12.6605 21.8203 12.6284 21.825 12.5917C21.825 12.555 21.825 12.5229 21.7876 12.5045L21.5217 12.3761C21.2092 12.1926 21.0272 11.8944 20.8499 11.6054C20.78 11.4908 20.71 11.3761 20.6307 11.266C20.5794 11.1926 20.4954 11.1146 20.4161 11.0504C20.3508 10.9908 20.2855 10.9357 20.2761 10.9036C19.9869 10.133 19.6743 9.22469 19.5997 8.2201C19.5904 8.06873 19.4784 7.72928 19.3478 7.50909C18.9372 6.85313 17.9622 5.73845 17.9109 5.6834C17.8783 5.6467 17.8409 5.61459 17.8083 5.58248L17.7803 5.55496L16.0262 4.11918C15.6763 3.87606 15.5737 3.83477 15.3171 3.74762C15.1398 3.68798 14.9532 3.66046 14.7666 3.66046C14.5194 3.66046 14.2675 3.70633 14.0669 3.79349C13.9269 3.86688 13.7916 3.95404 13.6563 4.03661C13.4324 4.17881 13.1991 4.3256 12.9472 4.40817C12.7513 4.49533 12.5367 4.55955 12.3361 4.61918C11.9396 4.73844 11.5244 4.86689 11.1978 5.16046C11.1045 5.24762 11.0252 5.31643 10.9599 5.38065C10.6567 5.66046 10.6287 5.68799 10.3814 5.68799C9.8076 5.68799 9.4064 5.8256 8.98187 6.16505C8.64598 6.46322 8.31943 6.74304 7.93222 6.87606C7.75961 6.9357 7.56834 6.95863 7.36308 6.97698C7.06917 7.0045 7.02719 7.0045 6.75194 7.06872C6.33675 7.16047 5.89356 7.49992 5.52035 7.78432C5.39906 7.87607 5.23578 7.99992 5.15647 8.05038C5.11449 8.0779 5.06784 8.10542 5.03051 8.12836C4.564 8.39441 4.13015 8.64671 3.56567 8.64671H3.52368C3.10382 8.6146 2.72128 8.33478 2.59532 7.95863C2.47869 7.53662 2.60465 7.10083 2.94521 6.76597C3.10848 6.60542 3.29042 6.45404 3.4677 6.30267C3.75694 6.06414 4.02751 5.83478 4.21412 5.58707C4.43338 5.29808 4.41005 4.81184 4.1628 4.54578C3.91555 4.27973 3.36973 4.15129 3.16447 4.10083L3.12714 4.09165C3.12714 4.09165 3.07116 4.08248 3.0525 4.07789C2.92188 4.05037 2.79592 4.03661 2.66996 4.0045C2.3434 3.91734 2.09149 3.66964 1.80225 3.51367C1.69029 3.6834 1.65297 3.8623 1.66696 4.06872C1.72294 4.49533 2.08682 4.94028 2.48802 5.12377C2.50668 5.12835 2.52068 5.13753 2.53934 5.14212C2.6653 5.19716 2.80059 5.20634 2.92654 5.20634H3.08982C3.16913 5.20634 3.26243 5.20634 3.34641 5.22927C3.43504 5.25679 3.50502 5.33019 3.51435 5.42193C3.51902 5.47698 3.49569 5.52285 3.42105 5.5779L3.21578 5.74303C2.87056 6.02285 2.51135 6.31643 2.21745 6.66964C1.82558 7.08249 1.80692 7.80267 1.99352 8.27056C2.22678 8.88524 2.8659 9.22928 3.40239 9.29809C3.49569 9.31185 3.59366 9.32102 3.69162 9.32102C4.00419 9.32102 4.30276 9.24763 4.59666 9.17423C4.60599 9.17423 4.61532 9.17423 4.62465 9.17423C4.63864 9.17423 4.66197 9.17423 4.66664 9.23845C4.67597 9.36689 4.68063 9.5091 4.68996 9.6513C4.69929 9.88066 4.71329 10.0917 4.72728 10.1834C4.7646 10.3852 4.86724 10.633 4.93721 10.7935C4.9652 10.8623 4.98853 10.9174 4.99319 10.9449C5.02118 11.0366 4.99319 11.1375 4.93255 11.1926C4.71329 11.3898 4.26543 11.5458 4.18146 11.5596C4.05084 11.5733 3.91089 11.5825 3.80359 11.5871C3.75227 11.5871 3.71028 11.5917 3.69162 11.5963C3.64497 11.6008 3.60299 11.6192 3.57033 11.6513C3.50502 11.7109 3.43971 11.8852 3.3604 12.0825C3.31375 12.2018 3.26243 12.3302 3.21112 12.4311C3.07116 12.6605 2.83791 12.7935 2.60932 12.9219C2.55333 12.9541 2.49735 12.9862 2.44137 13.0229H2.43671C2.3434 13.1742 2.2501 13.3119 2.12881 13.4174C2.03551 13.5045 1.91421 13.5229 1.79759 13.5366H1.78359C1.60632 13.743 1.55033 14.0091 1.49435 14.266C1.48502 14.3073 1.47569 14.344 1.46636 14.3853L1.45703 14.422H1.48036C1.57366 14.4311 1.66696 14.4541 1.76493 14.4724C1.89555 14.4999 2.03084 14.5275 2.16146 14.5275C2.29209 14.5275 2.39472 14.4999 2.49269 14.4495C2.66063 14.3715 2.75394 14.2201 2.84257 14.0733C2.89855 13.977 2.9592 13.8761 3.04317 13.7981C3.08982 13.7476 3.15514 13.7201 3.22511 13.7201C3.29042 13.7201 3.36507 13.7385 3.43504 13.7568C3.50035 13.7752 3.56567 13.7935 3.62631 13.7935C3.93888 13.8119 4.23744 13.6192 4.38206 13.5045C4.44737 13.4541 4.50802 13.3944 4.56867 13.3394C4.66197 13.2522 4.75994 13.1605 4.86724 13.0963C4.99319 13.0366 5.14714 13.0091 5.33841 13.0091C5.57633 13.0091 5.82359 13.055 6.02419 13.0917C6.13148 13.1192 6.23878 13.133 6.34608 13.133C6.52335 13.133 6.70063 13.0917 6.85924 13.0091C7.03185 12.9128 7.20913 12.821 7.34908 12.7476C7.43305 12.7063 7.50303 12.6697 7.55901 12.6375C7.81093 12.5045 8.02086 12.1284 8.10016 11.9724C8.17481 11.8256 8.30077 11.5137 8.30077 11.5137V11.4999L8.01619 11.2797L8.00686 11.2981C8.00686 11.2981 7.81093 11.61 7.68963 11.7568C7.17647 12.4449 6.33675 12.532 5.66497 12.532C5.61832 12.532 5.57167 12.532 5.52502 12.532C4.69463 12.532 4.02285 12.8073 3.52835 13.3486C3.50502 13.3761 3.46303 13.3807 3.44904 13.3577C3.43971 13.344 3.43504 13.3256 3.44437 13.2981C3.4537 13.2476 3.47236 13.2018 3.50035 13.1605C4.02285 12.4311 4.91389 12.3256 5.63232 12.3119C6.16414 12.2752 6.55134 12.188 6.88257 12.0183C7.31176 11.8027 7.62899 11.3256 7.75961 10.9495C7.84358 10.7018 7.8809 10.4357 7.92289 10.1834C7.95555 9.98157 7.9882 9.77056 8.03952 9.5779C8.04885 9.55497 8.07217 9.53662 8.10016 9.53662C8.10483 9.53662 8.1095 9.53662 8.11883 9.54121C8.14682 9.54579 8.19813 9.56414 8.19813 9.60543C8.12349 10.0045 8.02552 10.555 8.21213 11.0137C8.30076 11.1926 8.4827 11.2843 8.77661 11.2843C8.95388 11.2843 9.14982 11.2522 9.33642 11.2247C9.48104 11.2018 9.62099 11.1788 9.73762 11.1742C9.78894 11.1697 9.84025 11.1697 9.89157 11.1697C10.1248 11.1697 10.3534 11.2155 10.568 11.2568C10.7593 11.2935 10.9552 11.3348 11.1558 11.344C11.1931 11.344 11.2305 11.3485 11.2724 11.3531C11.3424 11.3577 11.4124 11.3623 11.487 11.3623C11.6597 11.3623 11.7809 11.3302 11.8649 11.2568C11.9256 11.2063 11.9069 11.133 11.8789 11.0412V11.0229C11.8789 11.0229 11.8649 10.9908 11.8556 10.9724C11.8183 10.8485 11.7576 10.6605 11.8556 10.5733C11.8696 10.5641 11.8929 10.555 11.9116 10.555C11.9256 10.555 11.9489 10.5596 11.9582 10.5871L11.9909 10.6972C12.0329 10.8485 12.0795 11.0045 12.1775 11.133C12.3827 11.3898 12.7 11.633 13.0918 11.8348C13.3438 12.0045 13.6517 12.2935 13.675 12.6972C13.675 12.8807 13.493 13.0045 13.3624 13.0871C13.1525 13.1926 12.7886 13.3073 12.6207 13.3073C12.5973 13.3073 12.574 13.3073 12.5554 13.2981C12.3081 13.1697 12.1821 12.9632 12.0515 12.7385C11.9815 12.6192 11.9022 12.4999 11.8136 12.3944C11.6876 12.2568 11.5244 12.2018 11.3051 12.2201C11.0952 12.2339 10.9039 12.2752 10.6706 12.3256C10.624 12.3348 10.5867 12.3623 10.568 12.4036C10.5494 12.4541 10.554 12.5091 10.582 12.555C10.7033 12.766 10.8153 12.9541 10.9366 13.1559L10.9925 13.2476C11.0205 13.2981 11.0858 13.3027 11.1372 13.3027C11.1651 13.3027 11.1931 13.3027 11.2258 13.2981C11.2585 13.2981 11.2958 13.2935 11.3331 13.2935C11.4404 13.2935 11.5057 13.321 11.5524 13.3715C11.5897 13.4265 11.6223 13.4862 11.655 13.5412C11.7343 13.6834 11.8183 13.8302 11.9582 13.9357C12.0842 14.0458 12.2661 14.1054 12.4574 14.1054C12.5414 14.1054 12.6207 14.0917 12.7 14.0687C13.2505 13.899 13.7869 13.7247 14.2954 13.4541C14.2954 13.4541 14.496 13.4541 14.5754 13.4449L14.552 13.4265ZM15.4664 7.35772C15.4571 7.38983 15.4337 7.41276 15.4104 7.41276C15.4011 7.41276 15.3731 7.40817 15.3684 7.36689C15.2751 6.90359 15.2238 6.67882 15.1118 6.46322C15.0792 6.39441 15.0325 6.33937 14.9952 6.28891C14.9159 6.1834 14.8459 6.09166 14.9252 5.9678C14.9486 5.93111 15.0045 5.90817 15.0652 5.90817C15.0978 5.90817 15.1212 5.91276 15.1492 5.92652C15.2378 5.96781 15.3264 6.0779 15.4197 6.2568C15.6437 6.71093 15.4664 7.35313 15.4664 7.3623V7.35772ZM18.4194 11.9586C18.4194 11.9586 18.4054 12.0871 18.3448 12.1467C18.2841 12.2018 18.0602 12.2339 17.9389 12.2293C17.8223 12.2247 17.7803 12.2063 17.757 12.1742C17.729 12.133 17.7756 12.055 17.7756 12.055C17.7896 12.0274 17.9296 11.7476 18.2048 11.6697C18.2048 11.6697 18.2935 11.6375 18.3774 11.6788C18.4614 11.7201 18.4241 11.9311 18.4194 11.9586ZM19.2218 10.1421C19.2125 10.2063 19.1938 10.2706 19.1658 10.3256C19.1518 10.3531 19.1285 10.4082 19.0445 10.4082C18.9559 10.4082 18.9606 10.3073 18.9606 10.2935C18.9606 10.2935 18.9512 10.0091 18.8953 9.88983C18.8346 9.76139 18.5454 9.39442 18.3774 9.40818C18.3354 9.40818 18.2235 9.47699 18.1442 9.5779C18.0462 9.70176 18.0462 9.72011 18.0135 9.73845C17.9809 9.7568 17.9436 9.74763 17.9296 9.67423C17.9156 9.60084 17.9016 9.54121 17.9389 9.399C17.9762 9.2568 18.0089 9.22469 18.0509 9.12377C18.0509 9.12377 18.1395 8.92653 18.1722 8.87607C18.2608 8.74304 18.3821 8.75221 18.3821 8.75221C18.4147 8.75221 18.5174 8.74304 18.6293 8.87607C18.76 9.03662 18.732 9.02286 18.7646 9.0779C18.802 9.13295 18.8393 9.19258 18.9466 9.30726C19.0539 9.42194 19.1705 9.64212 19.2032 9.77974C19.2358 9.91735 19.2358 10.0366 19.2171 10.1421H19.2218Z" fill="#B9C8DE"/>
</g>
</g>
</svg>
