<svg width="177" height="29" viewBox="0 0 177 29" fill="none" xmlns="http://www.w3.org/2000/svg">
<mask id="mask0_9204_488" style="mask-type:luminance" maskUnits="userSpaceOnUse" x="0" y="0" width="177" height="29">
<path d="M0.839844 0.452148H176.691V28.6901H0.839844V0.452148Z" fill="white"/>
</mask>
<g mask="url(#mask0_9204_488)">
<path fill-rule="evenodd" clip-rule="evenodd" d="M154.509 20.2564V12.8047H150.406V21.0486C150.406 23.8379 153.294 26.1016 156.856 26.1016C160.42 26.1016 163.306 23.8379 163.306 21.0486V12.8047H159.234V20.2564C159.234 21.4957 158.175 22.5028 156.873 22.5028C155.57 22.5028 154.512 21.4965 154.512 20.2564H154.509Z" fill="#D2003C"/>
<path d="M176.691 3.94727H172.558V25.6371H176.691V3.94727ZM169.707 3.94727H165.574V25.6371H169.707V3.94727Z" fill="#D2003C"/>
<path fill-rule="evenodd" clip-rule="evenodd" d="M89.9691 8.49801H87.7227V25.6369H83.3262V4.94238H90.8837C94.3248 4.94238 97.1118 7.67832 97.1118 11.0535C97.1118 13.9275 95.0896 16.3372 92.3678 16.9914L98.4413 25.6369H93.2581L88.8647 18.8613V13.9118H89.8852C91.5081 13.9118 92.8243 12.6984 92.8243 11.2034C92.8243 9.70753 91.592 8.49487 89.9668 8.49487L89.9691 8.49801Z" fill="#D2003C"/>
<path d="M111.429 20.0633C111.457 19.7809 111.47 19.4907 111.467 19.195C111.53 14.7232 108.569 12.2673 104.797 12.2673C101.025 12.2673 97.9668 15.3632 97.9668 19.1816C97.9668 22.9992 101.025 26.1015 104.797 26.1015C107.676 26.1015 109.923 24.7986 111.079 22.7576L107.725 21.2108C107.296 22.1341 106.298 22.7851 105.136 22.782C103.527 22.7796 102.339 21.5991 102.325 20.2068V20.0656H111.427L111.429 20.0633ZM102.312 17.6866C102.323 17.0249 102.594 16.3944 103.066 15.9306C103.538 15.4668 104.174 15.2069 104.835 15.2069C105.497 15.2069 106.132 15.4668 106.604 15.9306C107.076 16.3944 107.347 17.0249 107.359 17.6866H102.308H102.312ZM127.879 25.6371L127.873 3.94727H123.754V14.2102C122.658 13.1246 121.198 12.4681 119.603 12.4681C116.189 12.4681 113.423 15.4934 113.423 19.2271C113.423 22.9608 116.189 25.987 119.603 25.987C121.214 25.987 122.674 25.3006 123.773 24.1931V25.6363H127.879V25.6371ZM120.774 22.4682C119.101 22.4682 117.74 20.9802 117.74 19.1487C117.74 17.3171 119.097 15.8307 120.774 15.8307C122.451 15.8307 123.808 17.3171 123.808 19.1487C123.808 20.9802 122.451 22.4674 120.774 22.4674V22.4682ZM145.347 14.3726C146.479 13.3168 147.171 11.9033 147.171 10.351C147.171 8.94538 146.628 7.65114 145.681 6.63614C144.696 5.55055 142.951 4.94265 140.593 4.94265H133.529V25.6371H142.653C146.148 25.5799 148.964 22.9396 148.964 19.7025C148.964 17.3469 148.134 15.6668 145.35 14.3726H145.347ZM141.888 22.0439H137.934V8.49749H140.691C141.901 8.49749 142.883 9.60505 142.883 10.8177C142.883 11.1057 142.827 11.3909 142.717 11.6571C142.607 11.9232 142.445 12.165 142.242 12.3687C142.038 12.5724 141.796 12.7339 141.53 12.8441C141.264 12.9543 140.979 13.011 140.691 13.0109H139.255V16.7312H141.888C143.355 16.7312 144.465 17.9141 144.465 19.3824C144.413 20.8987 143.483 21.9466 141.888 22.0439Z" fill="#D2003C"/>
<path d="M37.9178 28.6901C45.7146 28.6901 52.0368 22.3687 52.0368 14.5711C52.0368 6.77352 45.7146 0.452148 37.9178 0.452148C30.1202 0.452148 23.7988 6.77352 23.7988 14.5711C23.7988 22.3687 30.1202 28.6901 37.9178 28.6901Z" fill="#FFCC00"/>
<path d="M36.9103 21.1213C36.1125 20.671 35.9549 19.7839 35.5376 19.2411C35.3666 19.0262 35.0842 18.7877 35.0081 18.5924C34.2888 16.7522 34.0449 15.7184 33.7923 13.9222C33.6621 13.0021 33.0519 12.2263 32.1616 11.1376C31.7733 10.663 31.2203 9.87864 30.7418 9.41507C29.1362 8.06122 28.2679 7.30899 27.1964 6.58736C26.9871 6.44536 26.7652 6.32275 26.5336 6.22105H26.5281C26.524 6.22039 26.5201 6.21847 26.5171 6.21556C26.1595 6.05868 25.8363 6.01475 25.3962 5.99044C25.3377 5.98704 25.2792 5.98521 25.2205 5.98495C24.422 5.98495 23.6628 6.27517 22.8972 6.8666C22.3411 7.23055 21.7034 7.43371 21.0853 7.62902C20.3056 7.8761 19.4969 8.13417 18.838 8.70912C18.7203 8.79384 18.6129 8.91306 18.507 9.02445C18.3626 9.17897 18.2599 9.35546 18.0403 9.42605C17.8497 9.46919 17.714 9.46919 17.5594 9.48253C17.3159 9.50179 17.0738 9.53637 16.8347 9.58607C16.0236 9.77824 15.4024 10.2779 14.7482 10.8074C14.6752 10.867 14.5992 10.9266 14.5254 10.9862C14.1019 11.3227 13.3724 11.6294 12.9598 11.6427C11.8067 11.678 10.9902 11.9494 10.1407 12.5816C9.26376 13.2523 8.32485 13.9441 7.28554 14.37C7.04682 14.4627 6.79329 14.5113 6.53723 14.5136C6.26583 14.5136 5.87756 14.454 5.56851 14.1669C5.17475 13.8029 5.04454 13.1025 5.28064 12.6334C5.63362 11.9384 6.35212 11.3713 6.93884 10.9533C7.69577 10.3807 8.42839 9.62921 8.10287 8.3836C7.75225 7.24389 6.36074 6.87758 5.44066 6.63363C5.18024 6.56539 4.95434 6.50578 4.82178 6.44381C4.53155 6.30811 4.32761 6.16928 4.12995 6.03593C3.9379 5.89683 3.73147 5.77876 3.5142 5.68374C3.47752 5.67011 3.43881 5.66269 3.39968 5.66178C3.26947 5.66178 3.16672 5.72453 3.08828 5.84925C2.75649 6.42734 2.65922 7.01642 2.79806 7.59137C3.0122 8.53577 3.94326 9.39546 4.91433 9.54763C5.0116 9.57195 5.12298 9.58058 5.23201 9.59156C5.33241 9.5994 5.43517 9.61038 5.53008 9.62921C4.88583 10.1271 4.29797 10.6939 3.77697 11.3196C3.06632 12.1557 2.87101 13.537 3.3236 14.5301C3.71501 15.5231 4.70804 16.3318 5.73951 16.4949C5.94267 16.5326 6.16308 16.5514 6.41173 16.5514C6.77019 16.5514 7.13101 16.5138 7.47614 16.4761C7.56007 16.4683 7.64714 16.4565 7.72793 16.4487C7.76323 17.2354 7.79068 17.7241 8.22758 18.8395C8.25425 18.9101 8.23543 19.0293 8.14366 19.1109C8.06757 19.1783 7.43222 19.4419 7.25024 19.4795C7.17328 19.4924 7.09528 19.4979 7.01728 19.496H6.75686C6.67058 19.496 6.55841 19.496 6.45016 19.5117C6.05091 19.569 5.85325 19.9055 5.71206 20.2318C5.62577 20.4294 5.56302 20.6036 5.50812 20.7526C5.37242 21.1244 5.28849 21.355 5.02807 21.4962C5.02807 21.4962 4.48527 21.013 4.39272 20.9471C4.26722 20.8729 4.12435 20.8331 3.97856 20.8318C3.63657 20.8318 3.33301 21.0491 3.03965 21.2577C2.95084 21.3241 2.85925 21.3867 2.76511 21.4452C2.51882 21.5997 2.3337 21.8633 2.28036 22.137C1.88111 22.3378 1.49048 22.5794 1.30851 22.9787C1.22222 23.1497 1.20575 23.3583 1.18928 23.5591C1.18293 23.6545 1.17194 23.7496 1.15634 23.8439C1.12538 23.9077 1.09 23.9693 1.05044 24.0282C0.939845 24.1804 0.841797 24.4055 0.841797 24.5443C0.841797 24.8369 0.950042 24.9483 1.11319 25.0871C1.31164 25.2283 1.8513 25.393 2.23644 25.4887C2.26459 25.4962 2.2936 25.4999 2.32272 25.4997C2.44038 25.4997 2.5345 25.4393 2.62471 25.3821C2.66785 25.3554 2.71099 25.3256 2.76041 25.3036C3.07808 25.3797 3.54715 25.4777 4.00288 25.4777C4.23898 25.4777 4.4539 25.4503 4.64607 25.3993C5.11043 25.2738 5.50655 24.6447 5.72068 24.3051C5.77245 24.2235 5.82422 24.1427 5.83756 24.1317C5.85115 24.1259 5.86591 24.1232 5.8807 24.1239C5.95129 24.1239 6.06581 24.1561 6.18739 24.1914C6.32858 24.2321 6.49174 24.2776 6.63842 24.2918C7.1616 24.338 7.66126 24.0125 7.98442 23.7709C8.11699 23.6729 8.26053 23.5348 8.40172 23.4023C8.5586 23.2524 8.71939 23.0979 8.85823 23.0054C9.04152 22.9311 9.23781 22.8943 9.43554 22.8971C9.50614 22.8971 9.58457 22.8995 9.66929 22.9081C10.0458 22.9865 10.54 23.0791 11.0208 23.0791C11.5008 23.0791 11.8648 22.9975 12.1817 22.832L12.475 22.6798C12.7927 22.5175 13.1182 22.352 13.4273 22.1833C14.0242 21.8602 14.2634 21.3283 14.4588 20.9024L14.5074 20.7942C14.6219 20.5471 14.7953 20.0992 14.8415 19.9878C14.9333 20.0012 15.029 20.0066 15.1294 20.0066C15.4518 20.0066 15.7695 19.9392 16.0762 19.8733C16.3774 19.809 16.6919 19.7439 17.0064 19.7439C17.1727 19.7439 17.3241 19.7596 17.4763 19.798C18.0411 19.9094 18.7846 20.0372 19.5416 20.0372C19.9338 20.0408 20.3251 19.9998 20.708 19.9149C20.795 19.9988 20.8931 20.0718 20.988 20.1423C21.0821 20.2129 21.1692 20.278 21.2508 20.3573C21.1638 20.373 21.0761 20.3848 20.988 20.3926C20.7244 20.4224 20.4507 20.4522 20.2499 20.6671C20.0331 20.5783 19.8001 20.5356 19.5659 20.5416C19.3003 20.5477 19.0356 20.5732 18.7737 20.6177C18.6678 20.6334 18.5642 20.6475 18.4638 20.6608C18.0599 20.7095 17.783 20.8648 17.6394 21.1275C17.5524 21.2985 17.4873 21.4782 17.6285 21.7707L18.423 23.0893C18.5211 23.2603 18.6835 23.3991 18.7948 23.407C18.8545 23.4125 18.9337 23.407 19.02 23.3991C19.0882 23.3936 19.1588 23.3881 19.2263 23.3881C19.3541 23.3881 19.4302 23.4101 19.4577 23.4532C19.4977 23.516 19.5361 23.5756 19.5737 23.6376C19.7369 23.8933 19.9048 24.1592 20.1597 24.3843C20.5456 24.7208 21.1668 24.8612 21.7504 24.7263C21.97 24.6447 22.1897 24.5655 22.4093 24.4871C23.0964 24.24 23.8071 23.9851 24.4958 23.6925L25.6386 23.5293C26.0159 23.4556 26.3038 22.9457 26.3987 22.734L26.423 22.6853C26.423 22.6853 26.7681 22.0013 26.8732 21.5864C26.8787 21.657 26.8787 21.7511 26.8787 21.8821C26.8787 22.5277 26.9933 23.345 28.0945 23.3019C28.7079 23.2768 29.5221 22.9136 30.1026 22.8077C30.7105 22.7042 31.5027 22.9622 32.0918 22.6743C32.6644 22.4414 32.993 21.9959 33.0848 22.0884C33.4646 22.4593 33.9158 22.749 34.4111 22.94C34.9064 23.1309 35.4354 23.2191 35.9659 23.1991C36.7887 23.1724 36.8781 22.5128 36.3031 22.2139C37.4256 22.3441 37.7574 21.737 37.548 21.5409C37.4146 21.4162 37.3362 21.3542 36.9103 21.115V21.1213ZM26.8238 20.5079C26.4003 19.9353 26.1242 19.529 26.0834 19.005C26.623 18.9422 27.1172 18.7634 27.9204 18.7203C27.711 19.3415 26.9925 19.6372 26.8215 20.5055L26.8238 20.5079ZM74.5546 24.1529C74.5161 24.0768 74.4785 24.0039 74.4565 23.949C74.4212 23.8274 74.4157 23.6995 74.4079 23.5638C74.4 23.4148 74.3922 23.2595 74.3451 23.1136C74.2181 22.69 73.7647 22.4265 73.3984 22.2774C73.385 22.1174 73.3552 21.9441 73.2062 21.8382C72.5732 21.3872 72.2422 21.1322 72.0634 20.9965C71.9575 20.915 71.9198 20.8852 71.8978 20.8773C71.8229 20.8424 71.7413 20.8237 71.6586 20.8224C71.3794 20.8224 71.1566 21.0452 70.9401 21.257L70.7911 21.4036C70.7856 21.4091 70.7832 21.4091 70.7746 21.4091C70.7064 21.4091 70.5652 21.2005 70.5299 21.1056C70.4671 20.9369 70.4193 20.7769 70.3699 20.6224C70.2888 20.3346 70.1844 20.0539 70.0577 19.7831C69.8192 19.3085 69.3094 19.3007 68.8583 19.2929H68.7313C68.525 19.2929 68.2528 19.2631 68.2042 19.1266C68.1555 18.9917 68.2559 18.7359 68.3187 18.5493C68.3618 18.4191 68.4026 18.2967 68.416 18.1775C68.5305 17.6676 68.5383 16.9883 68.4379 16.4377C68.5517 16.4408 68.6654 16.4534 68.7854 16.4675C68.8882 16.4816 68.994 16.4918 69.1054 16.4973H69.2035C69.882 16.4973 70.4546 16.364 70.9534 16.0933C71.9598 15.4878 72.5763 14.5112 72.6007 13.4719C72.5654 12.9291 72.4375 12.4812 72.1614 11.9275C71.7896 11.1948 71.1707 10.4732 70.2671 9.72412C70.7903 9.61587 71.2248 9.4888 71.6264 9.23545C72.4461 8.71461 72.8093 7.77021 72.6493 6.57402C72.6061 6.29164 72.4971 5.80297 72.2587 5.6759C72.2244 5.65757 72.1861 5.64814 72.1473 5.64844C71.9739 5.64844 71.8053 5.83591 71.6563 6.00142C71.6013 6.06417 71.548 6.12065 71.5017 6.16143C71.2225 6.41087 70.8938 6.47597 70.5495 6.54421C70.3675 6.57951 70.1808 6.61716 70.0036 6.68227C69.1784 6.95131 67.7759 7.56392 67.6504 8.67932C67.5288 9.78138 68.3132 10.5226 69.0733 11.2388C69.3251 11.4772 69.5674 11.7023 69.7729 11.9416C70.2122 12.4491 70.5871 12.9534 70.4891 13.5237C70.4546 13.719 70.1777 14.0179 69.9141 14.1371C69.7133 14.2077 69.5047 14.2422 69.2929 14.2422C68.5901 14.2422 67.9139 13.8578 67.3202 13.5151L67.2354 13.4664C65.8573 12.511 64.4328 11.5212 62.6664 11.3329C61.9934 11.2035 61.4098 10.7964 60.8427 10.3995C60.7125 10.3077 60.5812 10.2175 60.4489 10.1289C59.8547 9.78001 59.2001 9.54611 58.5193 9.43939C58.1664 9.39311 57.8871 9.1625 57.5914 8.92169C57.4384 8.78895 57.2753 8.66831 57.1035 8.56087C56.4109 8.11357 55.6386 7.80384 54.8288 7.64863C54.7488 7.62465 54.6677 7.60476 54.5856 7.58902C54.3739 7.54509 54.1534 7.49646 54.0013 7.33645C53.7683 7.06191 53.4475 6.70894 53.06 6.43283C52.5415 6.08535 51.736 5.7159 51.0332 5.7159C50.8911 5.71419 50.7494 5.7316 50.6119 5.76767C50.2213 5.86572 49.9178 6.09319 49.5969 6.33478L49.4754 6.4242C48.8322 6.92621 47.9772 7.61647 47.3042 8.09652C45.2961 9.52645 44.5416 10.1532 43.5462 11.2419C40.9844 14.039 41.7633 18.2261 39.5489 20.6522C38.9763 21.2813 38.8163 21.3629 38.6077 21.537C38.3488 21.7535 38.2892 22.9073 39.9662 22.3426C39.2015 22.9967 39.6839 23.3003 40.1859 23.3113C41.0714 23.3301 42.048 23.0234 43.0057 22.0037C43.6709 22.9607 44.8294 22.519 45.4318 22.5685C45.9966 22.614 47.0359 23.2273 47.6407 23.192C48.5631 23.1348 48.9028 22.2123 48.8102 21.6994C48.9592 21.6994 49 21.6641 49.0408 21.5911C49.1498 22.1253 49.2228 22.4916 49.3263 22.7598C49.3342 22.7795 49.3475 22.8038 49.3608 22.8304V22.8367C49.4267 22.9528 49.5624 23.2109 49.6981 23.3356C49.855 23.5254 50.0911 23.5505 50.2786 23.5505C50.3547 23.5505 50.4307 23.545 50.5037 23.5427C50.5876 23.5364 50.6692 23.534 50.7476 23.534C50.8177 23.5861 50.8848 23.6421 50.9484 23.7019C51.0975 23.8321 51.2496 23.9686 51.4371 24.0196C52.3109 24.2447 53.0357 24.4455 53.7385 24.6926C53.882 24.7389 54.1017 24.7985 54.3213 24.7985C54.3919 24.7985 54.4625 24.793 54.5276 24.7796C55.1959 24.6353 55.7905 24.0635 55.9364 23.4148C55.9473 23.3144 56.0203 23.3058 56.145 23.3003C56.2352 23.2979 56.338 23.2924 56.3952 23.2273C56.7584 22.9371 56.9812 22.5379 57.1984 22.1551C57.2439 22.0743 57.2902 21.9904 57.3396 21.9088C57.3959 21.8122 57.4277 21.7033 57.4323 21.5917C57.437 21.48 57.4143 21.3689 57.3663 21.2679C57.2957 21.1268 57.1686 21.024 56.9835 20.962C56.636 20.864 56.2485 20.8554 55.9144 20.8554H55.5457C55.3716 20.8554 55.1708 20.8554 54.9755 20.8365L54.8343 20.682C54.7315 20.5894 54.6013 20.5683 54.4735 20.5463L54.3817 20.5306L54.6986 20.2828C54.8264 20.2859 54.9512 20.2882 55.0759 20.2882C55.814 20.2882 56.4925 20.2231 57.098 20.0961C57.6367 19.9665 58.1882 19.8981 58.7421 19.8921C58.8158 19.8921 58.8911 19.8921 58.9672 19.8976C59.0566 19.9031 59.1492 19.9086 59.2386 19.9164C59.5696 19.9384 59.9093 19.9635 60.2481 19.9635C60.696 19.9635 61.06 19.9219 61.3855 19.8357C61.4263 19.998 61.4584 20.158 61.4882 20.3157C61.6075 20.9071 61.7189 21.4664 62.1746 21.9519C62.4491 22.3018 62.8068 22.5026 63.1551 22.701C63.3339 22.8014 63.5159 22.9152 63.6916 23.032C63.9253 23.1513 64.1128 23.1701 64.3811 23.1701C64.7552 23.1701 65.2329 23.0101 65.5043 23.0101C66.6362 23.0101 67.51 23.6235 68.4567 24.3639C68.6254 24.4753 68.8317 24.5326 69.0678 24.5326C69.3549 24.5326 69.678 24.4463 69.9604 24.2933L69.9824 24.3263C70.1549 24.5702 70.3377 24.8259 70.5816 25.0244C70.9315 25.3413 71.3849 25.3852 71.7818 25.3852C71.9143 25.3852 72.0524 25.3789 72.1857 25.3734C72.3755 25.3656 72.5677 25.3577 72.7528 25.3656C72.8258 25.4683 72.967 25.5476 73.0783 25.5421C73.1897 25.5366 74.4134 25.1373 74.4785 25.1161C74.5436 25.0942 74.6354 25.0401 74.6354 25.0401C74.9319 24.8879 74.7169 24.4596 74.5601 24.1443L74.5546 24.1529ZM49.2142 20.5479C48.9184 19.9596 48.687 19.4301 48.3207 18.8771C49.16 19.0748 50.117 18.9791 50.117 18.9791C49.8464 19.365 49.5365 19.9157 49.2142 20.5479Z" fill="#FFCC00"/>
<path d="M54.4329 21.1306C54.3889 21.0757 54.3026 21.0679 54.2532 21.0679C54.2321 21.0679 54.2124 21.0679 54.1905 21.071C54.0391 21.0898 53.9003 21.0977 53.7567 21.0977C53.6827 21.0974 53.6087 21.0956 53.5347 21.0922C53.4743 21.0922 53.4202 21.0867 53.3661 21.0867C53.2767 21.0867 53.2037 21.0922 53.1308 21.1063H53.1135L53.1057 21.122C53.0947 21.144 52.8154 21.6318 52.8531 21.9417C52.8939 22.2758 53.2327 22.3433 53.4908 22.3951C53.5834 22.4139 53.6893 22.4327 53.7975 22.4327C53.9818 22.4327 54.1042 22.37 54.1662 22.2484C54.3014 21.9187 54.398 21.5744 54.454 21.2224C54.4587 21.2057 54.4592 21.1881 54.4555 21.1711C54.4518 21.1542 54.444 21.1384 54.4329 21.1251V21.1306ZM72.8683 22.2319C72.7083 22.0013 72.429 21.8162 72.2063 21.6671C72.1174 21.612 72.032 21.5515 71.9506 21.486L71.9051 21.453C71.8544 21.4095 71.7899 21.3856 71.7231 21.3855C71.4705 21.3855 71.1968 21.6891 71.1913 21.7919C71.1834 21.944 71.3999 22.2154 71.6823 22.5527L71.7419 22.6257C71.8855 22.7959 72.04 22.8884 72.2031 22.8994C72.3686 22.8994 72.4989 22.8445 72.6377 22.7151C72.7404 22.6202 72.9687 22.3809 72.8652 22.2343L72.8683 22.2319ZM74.0496 24.1968C74.0101 24.1204 73.9775 24.0406 73.9523 23.9583C73.9283 23.8435 73.91 23.7275 73.8974 23.6109C73.8739 23.4257 73.8519 23.25 73.7947 23.1143C73.7541 23.0304 73.691 22.9593 73.6125 22.9089C73.5341 22.8585 73.4432 22.8308 73.3499 22.8288C73.2855 22.8281 73.222 22.8432 73.1648 22.8727C72.8887 23.0108 72.7224 23.1606 72.7687 23.472C72.9209 23.9254 72.9962 24.2541 73.0973 24.7012C73.1083 24.7694 73.1546 24.9945 73.2621 24.9945C73.2707 24.9945 73.2793 24.9945 73.2872 24.9922L74.0825 24.7317C74.101 24.7262 74.1181 24.7168 74.1325 24.704C74.147 24.6913 74.1586 24.6756 74.1665 24.658C74.2127 24.5521 74.1288 24.3733 74.0472 24.1991L74.0496 24.1968Z" fill="#D2003C"/>
<path d="M72.6458 24.8304C72.5829 24.3418 72.4473 23.8654 72.2434 23.417L72.2332 23.3958H72.2089C71.7469 23.4248 71.4622 23.0507 71.1853 22.6922C71.0935 22.573 71.0088 22.4616 70.917 22.3643C70.7799 22.211 70.6321 22.0676 70.4746 21.9353C70.3115 21.7941 70.1734 21.6694 70.1193 21.5588C70.0542 21.4223 69.9836 21.1619 69.9153 20.9093C69.8667 20.7304 69.8212 20.5594 69.7773 20.4426C69.7695 20.419 69.7585 20.3939 69.7498 20.3696C69.6659 20.1469 69.5655 19.87 69.2776 19.8245C69.1341 19.8002 68.9764 19.7947 68.8274 19.7892C68.4117 19.7727 67.9944 19.6998 67.7802 19.4009C67.5818 19.1264 67.6626 18.8714 67.7748 18.6008C67.8234 18.4808 67.8587 18.3812 67.8861 18.2667C68.0352 17.7647 68.0869 17.1403 67.9724 16.7034C67.9536 16.633 67.9319 16.5634 67.9073 16.4948C67.8477 16.3128 67.7771 16.0359 67.821 15.952C67.8665 15.868 67.9128 15.8539 67.9967 15.8539C68.0705 15.8539 68.1544 15.879 68.2328 15.901C68.2901 15.9167 68.3332 15.9245 68.3881 15.9386C68.5937 15.9873 68.9035 16.0437 69.1859 16.0437C69.6526 16.0437 70.1428 15.9433 70.5664 15.7614C71.3672 15.3739 72.1571 14.4977 72.1163 13.4121C72.0104 12.3132 71.3319 11.2519 70.0377 10.164C70.0079 10.1365 69.9726 10.1091 69.9397 10.0824C69.7718 9.94355 69.5679 9.76785 69.5632 9.61254C69.5577 9.45802 69.9616 9.36311 70.2142 9.3035C70.2738 9.29016 70.3256 9.27918 70.3711 9.26584L70.4362 9.24937C70.7593 9.16544 71.0904 9.07838 71.3649 8.88855C72.2873 8.26654 72.2544 7.1731 72.1493 6.57069C72.1438 6.555 72.1407 6.53539 72.1352 6.51422C72.1195 6.43578 72.0975 6.33773 72.0238 6.33773C71.9972 6.33984 71.9722 6.35123 71.9532 6.36989C71.9265 6.3942 71.8991 6.42166 71.8693 6.44833C71.7634 6.54951 71.6465 6.66325 71.5108 6.73855C71.2182 6.91268 70.8652 6.98642 70.5264 7.05701C70.3091 7.1025 70.084 7.14878 69.8753 7.22173C68.9576 7.53941 68.3881 8.00377 68.1842 8.60304C68.0783 8.91522 68.1356 9.30899 68.3387 9.68863C68.6399 10.164 69.0713 10.5789 69.4918 10.9805C70.1546 11.6159 70.8378 12.2693 70.9954 13.1595C71.0817 13.6772 70.8707 14.1149 70.3522 14.4922C70.0808 14.6546 69.7334 14.7417 69.3482 14.7417C68.86 14.738 68.3797 14.6169 67.9481 14.3887C67.4108 14.1204 66.8923 13.7729 66.3903 13.4364C65.6357 12.9321 64.8545 12.4105 63.9893 12.1343C63.6144 11.9626 63.1971 11.8786 62.7947 11.7971C62.2221 11.681 61.6306 11.5617 61.1553 11.1892C60.9921 11.0817 60.832 10.9695 60.6753 10.8527C60.2439 10.5413 59.7991 10.2173 59.2947 10.0902C59.1065 10.0251 58.9229 10.0008 58.7433 9.97415C58.4664 9.93336 58.2092 9.89806 57.9699 9.72706L57.6444 9.49096C57.2428 9.1976 56.8278 8.89405 56.4129 8.68461C55.6991 8.32929 54.939 8.14496 54.0896 7.96062C53.8182 7.89552 53.6503 7.69158 53.4707 7.4743C53.3514 7.32841 53.2267 7.17859 53.0691 7.0727C52.4157 6.555 51.8211 6.20752 51.0555 6.20752C50.985 6.20752 50.912 6.20987 50.8414 6.21536C50.4398 6.24282 50.0492 6.54637 49.7888 6.77463C49.0263 7.44136 48.2043 8.03593 47.4121 8.61167C46.2276 9.46665 45.0071 10.3507 43.9623 11.4935C42.934 12.5548 42.5622 13.878 42.1982 15.1621C42.1441 15.3519 42.0931 15.5394 42.0359 15.7292C41.9378 16.0798 41.8484 16.4406 41.7613 16.7881C41.2899 18.6785 40.8044 20.5681 38.9148 21.7941C38.7901 21.8756 38.834 22.0333 38.9501 22.0765C38.9995 22.0953 39.7917 22.3612 40.5816 21.569C41.0585 20.9775 41.3244 20.4316 41.8947 19.8213C41.9135 19.8025 41.9786 19.7507 42.0327 19.7562C42.0712 19.7751 42.0822 19.7947 42.0712 19.8621C41.9974 20.1069 41.8484 20.321 41.7025 20.5296C41.5535 20.7438 41.4005 20.9642 41.3244 21.216C41.1433 21.7588 40.6381 22.1988 40.1902 22.584C40.1902 22.584 40.1196 22.6302 40.0796 22.682C40.0388 22.733 40.0388 22.7549 40.0388 22.7549C40.0247 22.8742 40.1196 22.9479 40.3126 22.9558C41.3715 22.9558 42.1253 22.2043 42.8524 21.474C42.8684 21.4581 42.8875 21.4457 42.9086 21.4378C42.9297 21.4298 42.9523 21.4264 42.9748 21.4278C43.0146 21.4266 43.0543 21.433 43.0917 21.4466C43.1403 21.474 43.2517 21.5831 43.338 21.6584C43.5772 21.8702 43.8211 22.0898 44.1412 22.1549H44.1522C44.5381 22.1008 44.8848 22.0576 45.2432 22.0576C45.3468 22.0576 45.444 22.06 45.5311 22.0686C45.9162 22.1847 46.3045 22.3314 46.6763 22.4702C46.9391 22.5706 47.2105 22.671 47.4842 22.7628H47.496C47.849 22.7495 48.1 22.4216 48.2851 22.1306C48.3714 21.9243 48.3314 21.7235 48.2906 21.5282C48.2663 21.4066 48.242 21.2929 48.2498 21.1807C48.3149 21.1485 48.4043 21.154 48.5 21.1673C48.5839 21.1807 48.7055 21.1673 48.7463 21.1619C48.8389 21.1485 48.9361 21.0426 48.9095 20.9046C48.8389 20.5516 48.6624 20.3343 48.4859 20.0629C48.3314 19.8323 48.1847 19.6158 48.1117 19.3711C47.9949 19.0479 47.7478 18.7797 47.5093 18.5193C47.2324 18.2181 46.972 17.9325 46.8928 17.5717C46.8928 17.5717 46.8693 17.4956 46.8959 17.4658C46.9226 17.436 46.9963 17.4713 46.9963 17.4713C47.1234 17.5639 47.2513 17.6674 47.3729 17.767C47.7752 18.0933 48.1902 18.4322 48.6953 18.5083C49.1644 18.5546 49.6797 18.6142 50.1817 18.571C50.3151 18.5491 50.3825 18.4322 50.3504 18.3208C50.1496 17.8972 49.9433 17.4423 49.8186 16.945C49.7127 16.5708 49.4766 15.5857 49.7182 14.8421C49.7425 14.7691 49.7911 14.744 49.835 14.744C49.8397 14.744 49.8452 14.744 49.8539 14.7471C49.9354 14.766 49.9896 14.864 50.0005 14.9393L50.0084 15.0374C50.079 16.0492 50.1464 17.0046 50.7653 17.8188C50.9308 18.0824 51.1669 18.2204 51.3952 18.3561C51.5521 18.4487 51.734 18.5326 51.8486 18.6793C51.9788 18.844 51.9999 19.1264 51.9113 19.2974L51.1505 20.419C50.9716 20.674 50.7975 20.9477 50.7355 21.227C50.679 21.5093 50.7034 21.7839 50.7277 22.0498L50.7332 22.1141C50.709 22.0989 50.6892 22.0775 50.6759 22.0521C50.37 21.4984 50.3072 21.0293 50.4641 20.6685C50.5645 20.4347 51.1834 19.5586 51.3622 19.2707C51.4195 19.1781 51.4658 19.0864 51.4171 19.0236C51.3568 18.9452 50.8932 18.7467 50.7708 18.7467C50.763 18.7467 50.7551 18.7467 50.7465 18.7499C50.6383 18.7797 50.5677 18.8801 50.5049 18.9695C50.4908 18.9896 50.4764 19.0094 50.4618 19.0291L49.5252 20.7281L49.5032 20.7908C49.4491 20.9611 49.4013 21.1077 49.4491 21.303C49.5009 21.558 49.5793 21.8325 49.6389 22.0325L49.6884 22.1988C49.7723 22.4945 49.8507 22.7714 49.9809 22.9259C50.02 22.9731 50.0696 23.0104 50.1258 23.0349C50.1819 23.0594 50.243 23.0705 50.3041 23.0671C50.3747 23.0671 50.4476 23.0562 50.5182 23.0452C50.6359 23.0263 50.763 23.013 50.8579 23.0373C50.9991 23.0726 51.0963 23.1785 51.1999 23.2868C51.3026 23.3981 51.4085 23.5119 51.5662 23.5582C51.8564 23.6562 52.16 23.7346 52.4533 23.8107C52.8439 23.9135 53.2487 24.0194 53.6338 24.1684C53.8511 24.239 54.0841 24.3041 54.3092 24.3041C54.5594 24.3041 54.7139 24.2335 54.9312 24.0578C55.2348 23.8107 55.3352 23.566 55.4112 23.2138C55.4709 22.8906 55.5791 22.8687 55.8129 22.8553C55.9266 22.8499 55.9431 22.8553 56.0544 22.8177C56.1713 22.7793 56.5102 22.3643 56.6867 22.0255C56.7353 21.9329 56.7871 21.8482 56.8357 21.7752C56.8825 21.7136 56.9083 21.6385 56.9094 21.5611C56.9094 21.3925 56.7682 21.3415 56.6788 21.3383H56.6184C56.6184 21.3383 55.6199 21.3305 55.3461 21.3383C54.9367 21.3603 54.7579 21.7541 54.6135 22.1039C54.5563 22.2396 54.5045 22.3643 54.437 22.4757C54.3288 22.671 54.117 22.7902 53.8566 22.7848C53.7805 22.7848 53.6119 22.7385 53.5256 22.7173C52.9851 22.584 52.429 22.4483 52.2007 21.9109C52.1796 21.8192 52.1443 21.6286 52.2792 21.4686C52.5671 21.1352 52.9475 20.7116 53.3381 20.4081C53.8809 20.2935 54.4237 19.8919 54.7218 19.3876C54.7845 19.3005 54.8167 19.1978 54.8496 19.0997C54.8983 18.9475 54.9438 18.804 55.0826 18.7146C55.1697 18.6706 55.2402 18.6848 55.2591 18.7608C55.3108 19.0432 55.205 19.3138 55.0991 19.5766C55.0754 19.6353 55.0529 19.6944 55.0316 19.7539L55.0151 19.797L55.0614 19.8025C55.2104 19.8159 55.365 19.8245 55.5195 19.8245C56.0764 19.8245 56.6051 19.7296 57.1181 19.637C57.6256 19.5445 58.1519 19.4495 58.6947 19.4495C58.7519 19.4495 58.8116 19.4495 58.8712 19.4527C59.1128 19.4527 59.3457 19.4739 59.574 19.4935C59.7968 19.5123 60.0274 19.5343 60.258 19.5343C60.3388 19.5343 60.4148 19.5343 60.4909 19.5264C61.1859 19.4935 61.691 19.1781 61.8424 18.6793C61.986 18.2534 61.9703 17.5184 61.7962 16.4916C61.7883 16.443 61.7828 16.4108 61.7828 16.4053V16.3865C61.7828 16.3481 61.7828 16.3081 61.8346 16.283C61.8997 16.2477 61.9679 16.283 61.9993 16.3669C62.2629 17.105 62.415 17.9545 62.4966 18.5381C62.586 19.1052 62.8221 19.6802 63.2237 20.2935C63.7203 21.0348 64.5399 21.4607 65.4702 21.4607C65.6875 21.4607 65.9048 21.4199 66.1189 21.3925C66.2679 21.3736 66.3252 21.3815 66.4256 21.3815C67.6092 21.3815 68.6376 21.8945 69.4055 22.864C69.4055 22.864 69.4188 22.8828 69.4188 22.9095C69.4188 22.9503 69.3592 22.991 69.3074 22.9691L69.207 22.8906C68.5403 22.373 67.8501 21.838 66.9849 21.7321C66.8235 21.7043 66.66 21.6906 66.4962 21.6913C66.2512 21.6956 66.0066 21.7137 65.7636 21.7454C65.5251 21.7729 65.3024 21.8003 65.0718 21.8003C64.8035 21.8062 64.5368 21.7582 64.2874 21.6592C63.2912 21.3297 62.4778 20.1845 62.2166 19.4739C62.2071 19.4539 62.1922 19.4371 62.1736 19.4251C62.1551 19.4132 62.1335 19.4067 62.1115 19.4064C62.084 19.4064 62.0566 19.4142 62.0268 19.4339C61.9107 19.5068 61.8911 19.5445 61.8754 19.615C61.8589 19.6747 61.9562 20.1853 62.0001 20.4049C62.1303 20.9477 62.3256 21.7674 63.0363 22.071C63.1233 22.1227 63.2128 22.18 63.2998 22.2365C63.6552 22.4639 64.0215 22.7008 64.4419 22.7008C64.5423 22.7008 64.6427 22.6875 64.74 22.66C64.9933 22.6051 65.2506 22.5761 65.511 22.5761C66.3307 22.5761 67.1637 22.8553 67.8642 23.3652C67.9803 23.4334 68.0916 23.5252 68.1975 23.6154C68.3497 23.7425 68.5042 23.8727 68.6894 23.9409C68.8054 23.9872 68.9302 24.0115 69.0635 24.0115C69.3812 24.0115 69.462 23.9166 69.6879 23.8052C69.7707 23.7645 69.8615 23.7423 69.9538 23.7401C70.2087 23.7401 70.3499 23.9378 70.5287 24.1904C70.637 24.3425 70.7593 24.5135 70.9249 24.6626C71.1555 24.8877 71.4755 24.9151 71.7281 24.9151C71.8669 24.9151 72.005 24.9042 72.1407 24.8963C72.2709 24.8885 72.4285 24.8822 72.5125 24.8744C72.594 24.8634 72.6403 24.8524 72.6403 24.8524V24.8202L72.6458 24.8304ZM45.6825 21.0458C45.637 21.1297 45.5256 21.1783 45.3789 21.1783C45.2572 21.18 45.1376 21.1471 45.0338 21.0834C44.844 20.9477 44.7334 20.7226 44.7169 20.4269C44.7138 20.3586 44.7091 20.2881 44.8008 20.2206C44.8471 20.1931 44.8746 20.1931 44.9287 20.1931C45.1099 20.1931 45.4009 20.31 45.5554 20.4975C45.5664 20.5108 45.808 20.8308 45.6833 21.0481L45.6825 21.0458ZM45.9437 16.8689C45.8755 16.956 45.7727 17.0211 45.6723 16.9724C45.5774 16.9395 45.4927 16.8171 45.4417 16.7254C45.3766 16.6085 45.3217 16.5081 45.1672 16.5191H45.1428C45.0071 16.5301 44.9044 16.5975 44.7954 16.6814C44.7412 16.7254 44.5208 16.8885 44.4675 16.934C44.1718 17.1842 43.8729 17.4415 43.8023 17.7913C43.7873 17.8538 43.7737 17.9166 43.7615 17.9796C43.7396 18.1012 43.7184 18.2283 43.6149 18.2934H43.607C43.5929 18.3012 43.5769 18.305 43.5607 18.3043C43.5139 18.3025 43.469 18.2855 43.4329 18.2557C43.4142 18.2418 43.3989 18.2239 43.3882 18.2032C43.3774 18.1826 43.3715 18.1597 43.3709 18.1365C43.3191 17.5341 43.5231 16.9913 43.9459 16.6061C44.2204 16.381 44.44 16.0986 44.6542 15.8241C44.7577 15.6908 44.8659 15.5527 44.9773 15.4256C45.0613 15.3417 45.2001 15.4123 45.4276 15.661C45.5225 15.7645 45.8213 16.2728 45.957 16.6061C45.9725 16.6477 45.9792 16.6921 45.9765 16.7364C45.9738 16.7808 45.9618 16.824 45.9413 16.8634L45.9437 16.8689ZM50.9285 9.86512C50.8147 9.97415 50.6947 10.0824 50.5755 10.1938C50.1519 10.5789 49.715 10.9782 49.4279 11.4284C49.2922 11.6127 49.1918 11.8245 49.0938 12.0308C49.0828 12.0528 49.0585 12.0983 49.0122 12.0983C49.0003 12.0977 48.9886 12.0948 48.9779 12.0896C48.9671 12.0845 48.9574 12.0773 48.9495 12.0685C48.8687 11.9869 48.9361 11.4198 49.042 11.135C49.2758 10.506 49.8045 9.84629 50.4971 9.32781C50.5739 9.28087 50.662 9.25566 50.752 9.25486C50.8822 9.25486 50.9826 9.31448 51.0234 9.41723C51.1097 9.55607 51.0783 9.71844 50.9285 9.86512ZM22.6513 21.7917C22.627 21.7509 22.6045 21.709 22.5839 21.6662C22.5133 21.5337 22.4756 21.3925 22.4403 21.2701C22.3697 21.0238 22.3101 20.8089 22.0411 20.8465C21.6614 20.9014 21.292 20.9258 20.8802 20.9258C20.8739 20.9258 20.7468 20.9258 20.706 21.0152C20.6598 21.1187 20.7633 21.216 20.8747 21.3164C20.9367 21.3736 21.0018 21.4333 21.0449 21.4984C21.121 21.6097 21.1939 21.7698 21.2645 21.9243C21.3759 22.1714 21.474 22.3831 21.5853 22.4184C21.6364 22.4328 21.6892 22.44 21.7422 22.4396C22.0011 22.4396 22.3556 22.3016 22.6137 22.1008C22.7572 21.9784 22.7117 21.8968 22.6466 21.7886L22.6513 21.7917ZM4.09351 21.4066L4.07233 21.3901C3.9939 21.3274 3.85271 21.3352 3.75701 21.4011C3.69191 21.4466 3.62367 21.4905 3.55935 21.5344C3.34756 21.6748 3.12793 21.8184 2.89732 22.0137C2.81261 22.0843 2.76633 22.2176 2.75849 22.3204C2.75064 22.402 2.76633 22.4671 2.79927 22.5087C2.8181 22.5298 2.98674 22.7165 3.02204 22.7471C3.09592 22.8132 3.19116 22.8506 3.2903 22.8522C3.36973 22.8503 3.44763 22.8299 3.51777 22.7926C3.92801 22.5871 4.35158 21.827 4.36805 21.7831C4.41119 21.6615 4.27314 21.5501 4.09351 21.4066ZM2.74201 23.2083C2.65808 23.0891 2.37884 22.7604 2.22118 22.7604C2.20785 22.7604 2.19373 22.7604 2.18353 22.7683C1.96626 22.8577 1.71368 23.1401 1.70035 23.3087C1.64544 24.0437 1.62426 24.1221 1.42346 24.348C1.3662 24.4108 1.32855 24.5567 1.39365 24.6194C1.45013 24.6759 2.17255 24.9042 2.25334 24.9042H2.26981C2.33492 24.8822 2.38904 24.7167 2.5365 24.2092C2.61494 23.9347 2.70436 23.6256 2.80477 23.3464C2.81026 23.3276 2.81261 23.3001 2.7475 23.2083H2.74201Z" fill="#D2003C"/>
<path d="M24.8787 23.1597C25.1744 23.1377 25.4811 23.1158 25.6984 22.8852C25.9729 22.4859 26.2082 22.0851 26.4153 21.6615C26.5996 21.2811 26.602 20.9093 26.4208 20.6191C25.8748 19.7453 25.7776 19.5146 25.5548 18.9209L25.5493 18.9044L25.5336 18.8989C25.4691 18.879 25.4055 18.8563 25.343 18.8307C25.2097 18.7797 25.0685 18.7224 24.9093 18.7224H24.8873C24.6998 18.7279 24.5728 18.7875 24.521 18.8911L24.5131 18.9067L25.503 20.8607C25.5658 21.0128 25.6387 21.1673 25.6011 21.3956C25.5627 21.6231 25.0771 22.3886 24.9304 22.4859C24.9057 22.5057 24.8757 22.518 24.8442 22.5212C24.8332 22.5212 24.7814 22.511 24.8136 22.3965C24.9061 22.0796 25.023 21.3329 24.9901 21.0944C24.9548 20.8175 24.1249 19.444 24.0896 19.3844L24.0731 19.3609C23.9452 19.1515 23.8127 18.9342 23.8237 18.6816C23.8237 18.5648 23.9319 18.484 24.0104 18.4542C24.1547 18.3992 24.2927 18.3781 24.4394 18.3451C24.7924 18.2667 25.1556 18.1882 25.2866 17.9898C25.6827 17.3874 25.918 16.7583 26.0756 15.8869C26.0835 15.8484 26.1109 15.7755 26.1651 15.7755C26.198 15.7755 26.2302 15.7865 26.2435 15.8618C26.3154 16.2738 26.3045 16.696 26.2114 17.1038C26.1183 17.5116 25.945 17.8968 25.7015 18.2369C25.6673 18.2939 25.6548 18.3612 25.6662 18.4267C25.6772 18.4973 25.7556 18.5546 25.7556 18.5546C25.9454 18.6848 26.6404 18.6087 27.1448 18.3451C27.5299 18.353 27.8915 18.2855 28.2437 18.2204C28.3551 18.1984 28.4665 18.1796 28.5747 18.1608C28.61 18.1796 28.6375 18.2126 28.6429 18.2369C28.3472 18.5702 28.1676 18.9452 28.0758 19.4142C27.9917 19.4994 27.9048 19.5818 27.8154 19.6613C27.4922 19.957 27.1448 20.2888 27.1283 20.7116C27.1283 20.7116 27.1181 20.8638 27.2836 20.874C27.3346 20.8771 27.3942 20.8505 27.4483 20.8285C27.5017 20.8014 27.5603 20.7864 27.6201 20.7846C27.6454 20.7882 27.6686 20.8005 27.6858 20.8194C27.703 20.8383 27.713 20.8626 27.7142 20.8881L27.3456 21.4278C27.2075 21.6529 27.2671 21.8921 27.3213 22.1259C27.362 22.2529 27.3432 22.3533 27.3785 22.4671C27.4703 22.7361 27.7989 22.8632 28.0594 22.8632C28.5394 22.842 28.9771 22.6844 29.3999 22.5322C29.476 22.5055 29.5489 22.4781 29.6273 22.4514C30.0917 22.2506 30.7106 22.2098 31.4463 22.329C32.0378 22.2906 32.4825 21.9 32.9139 21.5203C33.0983 21.5258 33.2889 21.6341 33.4842 21.8458C34.1242 22.5322 34.9086 22.8655 35.8828 22.8655H35.9942L36.0915 22.8577C36.1919 22.8342 36.2193 22.7848 36.2248 22.722C36.2327 22.6467 36.1731 22.5706 36.0648 22.5188L35.5189 22.2286C35.082 21.9517 34.6074 21.6176 34.4772 21.1775C34.336 20.7085 34.0725 20.2316 33.8748 19.9139C33.8344 19.8492 33.7917 19.7859 33.747 19.7241C33.6709 19.6127 33.5901 19.4982 33.5352 19.3789C34.1297 19.5907 34.4631 20.03 34.8655 20.7634C35.1636 21.3085 35.9401 21.8945 36.6751 21.8945C36.7731 21.8945 36.8649 21.8835 36.9574 21.8647C37.0359 21.849 37.0877 21.7972 37.0986 21.729C37.1065 21.6694 37.0986 21.6121 37.0335 21.5768L36.588 21.3548C36.0593 21.045 35.755 20.5351 35.4593 20.0386C35.3424 19.8425 35.224 19.6425 35.093 19.4605C35.009 19.335 34.8623 19.2056 34.7353 19.0919C34.6239 18.9915 34.518 18.8958 34.4984 18.8448C34.016 17.5254 33.4897 15.9763 33.3618 14.253C33.343 13.9902 33.1579 13.4121 32.9382 13.0372C32.2519 11.9194 30.6125 10.0063 30.5231 9.9114C30.4667 9.85201 30.4089 9.79395 30.3498 9.73726L30.3058 9.69412L27.3534 7.24134C26.7675 6.82875 26.5886 6.75502 26.1627 6.60364C25.8641 6.50153 25.5503 6.45113 25.2348 6.4546C24.8167 6.4546 24.3986 6.53539 24.0566 6.68207C23.8213 6.80758 23.5931 6.95347 23.3703 7.09466C22.9938 7.33625 22.6016 7.58569 22.1788 7.72688C21.8478 7.87591 21.4925 7.98494 21.1481 8.09083C20.4775 8.29634 19.7856 8.51126 19.2374 9.01641C19.0773 9.1623 18.9471 9.28467 18.8381 9.39056C18.3314 9.86825 18.2796 9.91924 17.8647 9.91924C16.9038 9.91924 16.223 10.1553 15.5115 10.7334C14.9499 11.2433 14.3938 11.7218 13.7451 11.9469C13.4549 12.0473 13.1317 12.0849 12.7897 12.1179C12.2987 12.161 12.2226 12.1665 11.759 12.2779C11.0586 12.4379 10.3157 13.0152 9.68823 13.5039C9.48194 13.6639 9.20819 13.8757 9.07798 13.9604C9.00974 14.0035 8.92895 14.0545 8.86306 14.0937C8.08181 14.5487 7.34605 14.9801 6.40165 14.9801H6.33106C5.62589 14.9291 4.98583 14.4428 4.77091 13.7996C4.57324 13.0756 4.78503 12.332 5.35685 11.7618C5.62825 11.4904 5.93729 11.2276 6.23928 10.9727C6.72247 10.5624 7.17819 10.1742 7.49587 9.74903C7.86453 9.25486 7.82374 8.42184 7.4088 7.96847C6.99622 7.51509 6.07378 7.28997 5.72629 7.20604L5.66668 7.19193C5.63138 7.18408 5.57177 7.17624 5.53883 7.16839C5.3192 7.12447 5.10741 7.09466 4.89327 7.04289C4.34499 6.89386 3.91907 6.46794 3.43353 6.20752C3.24606 6.49461 3.18331 6.80679 3.20841 7.15427C3.30018 7.88689 3.91122 8.64696 4.58893 8.95601C4.61874 8.96699 4.64619 8.98033 4.676 8.98896C4.89014 9.08073 5.11526 9.09485 5.32704 9.09485H5.60158C5.73178 9.09485 5.88945 9.09485 6.02985 9.13015C6.10447 9.15158 6.17123 9.19431 6.22194 9.2531C6.27265 9.3119 6.30512 9.3842 6.31537 9.46116C6.32635 9.55842 6.28242 9.63451 6.15849 9.72942L5.81336 10.0141C5.22978 10.495 4.62737 10.9946 4.13869 11.5986C3.48216 12.3077 3.45236 13.5392 3.75905 14.3369C4.14968 15.388 5.22978 15.9763 6.1279 16.09C6.28791 16.1143 6.44793 16.1284 6.61657 16.1284C7.14525 16.1284 7.64726 16.0006 8.13593 15.8782C8.15476 15.8727 8.16887 15.8727 8.18221 15.8727C8.20417 15.8727 8.24731 15.8727 8.25516 15.9841C8.26928 16.2014 8.28261 16.4485 8.29359 16.6869C8.30928 17.0752 8.32889 17.4415 8.35634 17.5968C8.42066 17.9412 8.59166 18.3616 8.70618 18.6385C8.75481 18.7554 8.79246 18.8471 8.80344 18.8934C8.84737 19.0503 8.80658 19.2221 8.70069 19.3193C8.33203 19.659 7.57902 19.9272 7.44096 19.9468C7.21898 19.9735 6.98288 19.9868 6.80875 19.9955C6.72247 20.0002 6.65187 20.0033 6.61657 20.0088C6.53872 20.0167 6.46593 20.0511 6.41028 20.1061C6.30439 20.2096 6.19065 20.5053 6.05495 20.8473C5.97338 21.0536 5.8918 21.2677 5.80787 21.4442C5.57177 21.8349 5.17801 22.0655 4.79601 22.2851C4.70032 22.34 4.6054 22.3965 4.51363 22.4537L4.50265 22.4647C4.34577 22.7142 4.18733 22.9503 3.98417 23.1291C3.82729 23.2758 3.62571 23.3087 3.43039 23.333H3.41706L3.40921 23.344C3.11036 23.686 3.01545 24.1386 2.92054 24.581C2.90721 24.6492 2.89073 24.7167 2.87662 24.7818L2.86328 24.8446H2.90172C3.05859 24.8634 3.21547 24.8963 3.38176 24.934C3.60139 24.9826 3.82651 25.032 4.04927 25.032C4.26106 25.032 4.4399 24.9881 4.60305 24.8987C4.88778 24.7685 5.03996 24.5049 5.18899 24.2531C5.28704 24.0876 5.38744 23.9135 5.52314 23.7809C5.56073 23.7378 5.60754 23.7038 5.66008 23.6812C5.71263 23.6587 5.76957 23.6483 5.8267 23.6507C5.93808 23.6507 6.06044 23.6829 6.17653 23.7158C6.28556 23.7456 6.39616 23.7754 6.50205 23.7809C7.02916 23.8107 7.52803 23.4797 7.76962 23.2868C7.87551 23.2028 7.98141 23.1024 8.08416 23.0075C8.24418 22.8585 8.40733 22.7032 8.58382 22.5949C8.79795 22.4914 9.05602 22.4428 9.37605 22.4428C9.77216 22.4428 10.1926 22.5212 10.5267 22.584C10.7048 22.6302 10.8879 22.6539 11.0719 22.6545C11.3722 22.6593 11.6686 22.5864 11.9324 22.4428C12.2257 22.278 12.5207 22.1227 12.7575 21.998C12.8956 21.9243 13.018 21.8623 13.1129 21.8082C13.5333 21.5776 13.8918 20.9367 14.0243 20.6708C14.1498 20.4237 14.3616 19.8896 14.364 19.8841L14.3749 19.8598L13.8831 19.4848L13.8643 19.5178C13.8643 19.5178 13.5388 20.0519 13.3301 20.299C12.4642 21.4772 11.0554 21.6286 9.92433 21.6286C9.84589 21.6262 9.76746 21.6231 9.69059 21.6231C8.29045 21.6231 7.16172 22.0929 6.33655 23.0209C6.2989 23.064 6.23065 23.0726 6.2032 23.0342C6.18751 23.013 6.18202 22.9777 6.193 22.9338C6.20898 22.851 6.24037 22.772 6.28556 22.7008C7.16172 21.4552 8.6599 21.2709 9.86707 21.2489C10.7597 21.1893 11.4084 21.0348 11.9732 20.7469C12.6979 20.3783 13.2321 19.5641 13.4439 18.9177C13.5819 18.4942 13.6502 18.0416 13.7153 17.6047C13.767 17.2572 13.8212 16.8987 13.9075 16.5677C13.9153 16.5472 13.9291 16.5294 13.9472 16.5169C13.9652 16.5043 13.9866 16.4974 14.0086 16.4971C14.0188 16.4971 14.0275 16.4971 14.0431 16.505C14.0902 16.5136 14.1765 16.5457 14.1765 16.614C14.0541 17.298 13.8886 18.2369 14.2008 19.0181C14.3475 19.3272 14.6565 19.4793 15.1507 19.4793C15.4488 19.4793 15.7751 19.4276 16.092 19.3789C16.3367 19.3413 16.5673 19.3029 16.765 19.295C16.8497 19.2872 16.9336 19.284 17.0207 19.284C17.4137 19.284 17.7941 19.3601 18.1604 19.4331C18.4804 19.4982 18.8114 19.5633 19.1503 19.5797C19.2099 19.5829 19.2758 19.5876 19.3433 19.5939C19.4601 19.6041 19.5817 19.6127 19.7072 19.6127C19.9943 19.6127 20.1982 19.5554 20.3449 19.4362C20.4477 19.3523 20.4124 19.2244 20.3661 19.0644L20.3582 19.0346C20.3504 19.0071 20.3426 18.9773 20.3308 18.9452C20.2657 18.7334 20.1661 18.4134 20.3308 18.2635C20.3577 18.2441 20.3901 18.2336 20.4234 18.2337C20.45 18.2337 20.4885 18.2416 20.4994 18.2855L20.5536 18.4698C20.6265 18.7256 20.7026 18.9915 20.8657 19.2189C21.2109 19.6582 21.7419 20.0763 22.4039 20.4214C22.8306 20.714 23.3428 21.2081 23.3844 21.8976C23.3844 22.2098 23.0801 22.4263 22.855 22.562C22.4988 22.7385 21.8909 22.9369 21.6039 22.9369C21.5658 22.9392 21.5277 22.9328 21.4925 22.9181C21.0799 22.6985 20.8681 22.3424 20.643 21.9651C20.5263 21.7575 20.393 21.5598 20.2445 21.3736C20.0296 21.1352 19.7582 21.0426 19.3919 21.0724C19.0389 21.0999 18.7134 21.1673 18.3283 21.2489C18.2908 21.2557 18.2555 21.2714 18.2254 21.2946C18.1952 21.3177 18.1711 21.3478 18.1549 21.3823C18.1378 21.4234 18.1308 21.468 18.1345 21.5123C18.1382 21.5567 18.1524 21.5995 18.1761 21.6372C18.3769 21.9949 18.5698 22.3204 18.7761 22.6647L18.8687 22.8201C18.9173 22.904 19.0232 22.915 19.1095 22.915C19.1566 22.915 19.2076 22.9126 19.2617 22.9071C19.3189 22.904 19.3785 22.8993 19.4382 22.8993C19.617 22.8993 19.7315 22.9424 19.8045 23.0318C19.8672 23.126 19.9213 23.2271 19.9755 23.3244C20.1112 23.566 20.25 23.8186 20.483 23.9974C20.6948 24.1857 21.0007 24.2908 21.3215 24.2908C21.4627 24.2908 21.5984 24.2688 21.7286 24.2312C22.6541 23.9409 23.5546 23.6429 24.412 23.184C24.412 23.184 24.7516 23.1785 24.8818 23.1675L24.8787 23.1597ZM26.4176 12.7823C26.4019 12.8395 26.3659 12.8772 26.3251 12.8772C26.3094 12.8772 26.2655 12.8693 26.2521 12.7956C26.0976 12.0065 26.0051 11.6182 25.8231 11.2543C25.7666 11.1382 25.6929 11.0401 25.6309 10.9531C25.4976 10.7719 25.3838 10.6166 25.5117 10.4056C25.5493 10.3428 25.6442 10.302 25.747 10.302C25.7988 10.302 25.845 10.313 25.8858 10.3318C26.038 10.4056 26.187 10.5899 26.3392 10.8966C26.7188 11.6755 26.4176 12.7744 26.4145 12.7854L26.4176 12.7823ZM31.3812 20.6465C31.3812 20.6465 31.3561 20.8693 31.2534 20.9665C31.1475 21.0615 30.7733 21.1132 30.5749 21.1077C30.3772 21.0999 30.309 21.0724 30.269 21.0128C30.2219 20.9446 30.298 20.812 30.298 20.812C30.3223 20.7634 30.5529 20.2826 31.0196 20.1555C31.0196 20.1555 31.1687 20.1006 31.313 20.1712C31.4565 20.2418 31.3891 20.6002 31.3836 20.6497L31.3812 20.6465ZM32.732 17.5419C32.7186 17.6517 32.6856 17.7583 32.6347 17.8564C32.6104 17.9004 32.5696 17.9953 32.4339 17.9976C32.2849 17.9976 32.295 17.8243 32.295 17.8C32.295 17.8 32.2762 17.3137 32.1837 17.1105C32.0833 16.8877 31.5954 16.261 31.313 16.2885C31.2424 16.294 31.0581 16.4053 30.9224 16.581C30.7569 16.796 30.7569 16.8226 30.7051 16.8556C30.6533 16.8877 30.5882 16.8713 30.567 16.7442C30.5451 16.6163 30.52 16.5136 30.5804 16.272C30.64 16.0304 30.6996 15.9763 30.7702 15.8029C30.7702 15.8029 30.9169 15.4633 30.971 15.3794C31.1232 15.1487 31.324 15.1652 31.324 15.1652C31.3781 15.1676 31.5515 15.1456 31.7397 15.3794C31.9562 15.6508 31.9099 15.6264 31.9695 15.7213C32.0291 15.8155 32.095 15.9167 32.2739 16.112C32.4527 16.3081 32.6504 16.6869 32.7053 16.923C32.7594 17.1591 32.7571 17.3599 32.7265 17.5427L32.732 17.5419Z" fill="#D2003C"/>
</g>
</svg>
