<svg width="133" height="21" viewBox="0 0 133 21" fill="none" xmlns="http://www.w3.org/2000/svg">
<path fill-rule="evenodd" clip-rule="evenodd" d="M115.833 14.7292V9.1875H112.73V15.3183C112.73 17.395 114.914 19.075 117.607 19.075C120.3 19.075 122.483 17.3892 122.483 15.3183V9.1875H119.404V14.7292C119.404 15.6508 118.604 16.3975 117.619 16.3975C116.634 16.3975 115.833 15.6508 115.833 14.7292Z" fill="#181818"/>
<path d="M132.608 2.60156H129.481V18.7307H132.608V2.60156ZM127.322 2.60156H124.195V18.7307H127.322V2.60156Z" fill="#181818"/>
<path fill-rule="evenodd" clip-rule="evenodd" d="M67.0209 5.9843H65.3242V18.7301H61.9961V3.3418H67.715C70.3193 3.3418 72.4254 5.37763 72.4254 7.88596C72.4254 10.021 70.8948 11.8176 68.8362 12.3018L73.428 18.7301H69.5066L66.1844 13.6901V10.0093H66.9556C68.1837 10.0093 69.1803 9.10513 69.1803 7.9968C69.1803 6.88846 68.2489 5.9843 67.0209 5.9843Z" fill="#181818"/>
<path d="M83.2504 14.5832C83.2742 14.3732 83.2801 14.1574 83.2801 13.9357C83.3275 10.6107 81.091 8.7849 78.2375 8.7849C75.384 8.7849 73.0703 11.0891 73.0703 13.9241C73.0703 16.7591 75.384 19.0691 78.2375 19.0691C80.4147 19.0691 82.1173 18.1007 82.9894 16.5841L80.4503 15.4349C80.124 16.1232 79.3706 16.6074 78.4926 16.6016C77.2764 16.6016 76.3747 15.7207 76.3688 14.6882V14.5832H83.2564H83.2504ZM76.351 12.8157C76.3688 11.7774 77.2408 10.9549 78.2909 10.9724C79.3172 10.9899 80.1477 11.8066 80.1655 12.8157H76.345H76.351ZM95.6908 18.7307V2.60156H92.5703V10.2316C91.7398 9.42656 90.6364 8.93656 89.4321 8.93656C86.8514 8.93656 84.7573 11.1882 84.7573 13.9649C84.7573 16.7416 86.8514 18.9932 89.4321 18.9932C90.6482 18.9932 91.7576 18.4799 92.5881 17.6574V18.7307H95.6908ZM90.316 16.3741C89.0524 16.3741 88.0201 15.2657 88.0201 13.9066C88.0201 12.5474 89.0464 11.4391 90.316 11.4391C91.5855 11.4391 92.6119 12.5474 92.6119 13.9066C92.6119 15.2657 91.5855 16.3741 90.316 16.3741ZM108.902 10.3541C109.757 9.56656 110.279 8.51656 110.279 7.36156C110.279 6.3174 109.869 5.3549 109.152 4.59656C108.404 3.79156 107.087 3.33656 105.301 3.33656H99.9563V18.7249H106.856C109.502 18.6841 111.631 16.7182 111.631 14.3091C111.631 12.5591 111.003 11.3049 108.896 10.3424L108.902 10.3541ZM106.286 16.0591H103.296V5.9849H105.379C106.292 5.9849 107.034 6.8074 107.034 7.71156C107.034 8.6099 106.292 9.33906 105.379 9.3449H104.293V12.1099H106.286C107.396 12.1099 108.238 12.9907 108.238 14.0816C108.196 15.2074 107.496 15.9891 106.286 16.0591Z" fill="#181818"/>
<path d="M27.6511 0.583333C33.2098 0.583333 37.7363 5.03417 37.7363 10.5C37.7363 15.9658 33.2098 20.4167 27.6511 20.4167C22.0924 20.4167 17.5659 15.9658 17.5659 10.5C17.5659 5.03417 22.0864 0.583333 27.6511 0.583333ZM27.6511 0C21.7542 0 16.9727 4.70167 16.9727 10.5C16.9727 16.2983 21.7542 21 27.6511 21C33.548 21 38.3295 16.2983 38.3295 10.5C38.3295 4.70167 33.548 0 27.6511 0Z" fill="#181818"/>
<path d="M40.1384 15.3767C40.1028 15.3359 40.0375 15.3301 40.002 15.3301C39.9842 15.3301 39.9723 15.3301 39.9545 15.3301C39.8418 15.3417 39.735 15.3476 39.6282 15.3476C39.5748 15.3476 39.5155 15.3476 39.4621 15.3476C39.4146 15.3476 39.3731 15.3476 39.3375 15.3476C39.2723 15.3476 39.2129 15.3476 39.1595 15.3592H39.1477V15.3709C39.1477 15.3709 38.9222 15.7501 38.9519 15.9834C38.9816 16.2342 39.2367 16.2809 39.4324 16.3217C39.5036 16.3334 39.5807 16.3509 39.6638 16.3509C39.8062 16.3509 39.8952 16.3042 39.9426 16.2109C40.0435 15.9659 40.1206 15.7092 40.1621 15.4467C40.1681 15.4234 40.1621 15.3942 40.1443 15.3767H40.1384ZM54.0856 16.1992C53.967 16.0301 53.7534 15.8901 53.5873 15.7792C53.522 15.7384 53.4568 15.6917 53.3915 15.6451L53.3559 15.6217C53.3203 15.5867 53.267 15.5692 53.2195 15.5692C53.0297 15.5692 52.822 15.7967 52.8161 15.8726C52.8102 15.9834 52.9763 16.1876 53.1898 16.4384L53.2373 16.4909C53.3441 16.6192 53.4627 16.6834 53.5873 16.6951C53.7119 16.6951 53.8127 16.6542 53.9136 16.5551C53.9907 16.4851 54.1628 16.3042 54.0856 16.1992ZM54.9755 17.6576C54.9458 17.5992 54.9221 17.5409 54.9043 17.4826C54.8865 17.3951 54.8747 17.3134 54.8628 17.2259C54.845 17.0859 54.8272 16.9576 54.7857 16.8584C54.7204 16.7301 54.5958 16.6484 54.4475 16.6484C54.4001 16.6484 54.3526 16.6601 54.3051 16.6834C54.0975 16.7884 53.9729 16.8992 54.0085 17.1267C54.1212 17.4651 54.1806 17.7101 54.2577 18.0426C54.2636 18.0951 54.2992 18.2584 54.3823 18.2584C54.3882 18.2584 54.3941 18.2584 54.4001 18.2584L54.9992 18.0659C54.9992 18.0659 55.0526 18.0367 55.0645 18.0134C55.1001 17.9317 55.0348 17.8034 54.9755 17.6751V17.6576Z" fill="#181818"/>
<path d="M53.9149 18.1297C53.8674 17.768 53.7665 17.4122 53.6123 17.0797V17.0622H53.5886C53.2386 17.0855 53.025 16.8055 52.8114 16.5372C52.7402 16.4497 52.6809 16.368 52.6097 16.2922C52.5089 16.1755 52.3961 16.0705 52.2775 15.9713C52.1529 15.8663 52.0521 15.773 52.0105 15.6913C51.9631 15.5922 51.9097 15.3938 51.8563 15.2072C51.8207 15.073 51.7851 14.9447 51.7495 14.863C51.7436 14.8455 51.7376 14.828 51.7258 14.8105C51.6605 14.6472 51.5834 14.4372 51.3698 14.408C51.263 14.3905 51.1444 14.3847 51.0317 14.3788C50.7173 14.3672 50.4028 14.3147 50.2427 14.0872C50.0943 13.883 50.1537 13.6963 50.2427 13.4922C50.2783 13.4047 50.3079 13.3288 50.3257 13.2413C50.4384 12.868 50.48 12.4013 50.391 12.0805C50.3791 12.028 50.3613 11.9755 50.3435 11.923C50.2961 11.7888 50.2427 11.5847 50.2783 11.5205C50.3139 11.4563 50.3494 11.4505 50.4088 11.4505C50.4622 11.4505 50.5274 11.468 50.5867 11.4855C50.6283 11.4972 50.6639 11.503 50.7054 11.5147C50.8596 11.5497 51.0969 11.5905 51.3105 11.5905C51.6665 11.5905 52.0343 11.5147 52.3546 11.3805C52.9597 11.0947 53.5589 10.4413 53.5292 9.63049C53.4462 8.81383 52.936 8.02633 51.9571 7.21549C51.9334 7.19799 51.9097 7.17466 51.886 7.15716C51.7614 7.05216 51.6071 6.92383 51.6012 6.80716C51.6012 6.69049 51.9038 6.62049 52.0936 6.57966C52.141 6.56799 52.1766 6.56216 52.2122 6.55049L52.2597 6.53883C52.5029 6.47466 52.7521 6.41049 52.9597 6.27049C53.6598 5.80966 53.6301 4.99299 53.553 4.54966C53.553 4.53799 53.547 4.52049 53.5411 4.50883C53.5292 4.45049 53.5114 4.38049 53.4581 4.38049C53.4403 4.38049 53.4165 4.39216 53.4047 4.40383C53.3869 4.42133 53.3631 4.44466 53.3394 4.46216C53.2564 4.53799 53.1733 4.61966 53.0665 4.678C52.847 4.80633 52.5801 4.86466 52.325 4.91716C52.1588 4.95216 51.9927 4.98716 51.8326 5.03966C51.1385 5.273 50.7054 5.62299 50.5511 6.06633C50.4681 6.29966 50.5156 6.59133 50.6698 6.87133C50.8952 7.22716 51.2215 7.53633 51.5419 7.83383C52.0461 8.30633 52.5623 8.79049 52.6809 9.45549C52.7462 9.84049 52.586 10.1672 52.1944 10.4472C51.9868 10.5697 51.7258 10.6338 51.4351 10.6338C51.0673 10.6338 50.7054 10.5405 50.3732 10.3713C49.9698 10.173 49.5723 9.91633 49.1926 9.66549C48.6231 9.29216 48.0298 8.90133 47.3773 8.69716C47.0925 8.56883 46.7781 8.50466 46.4755 8.44633C46.0425 8.35883 45.5975 8.27133 45.2357 7.99716C45.1111 7.91549 44.9924 7.83383 44.8738 7.74633C44.5475 7.51299 44.2093 7.27383 43.8297 7.1805C43.6873 7.13383 43.5508 7.11633 43.4144 7.09299C43.2067 7.06383 43.011 7.03466 42.8271 6.91216L42.5779 6.73716C42.2754 6.52133 41.9609 6.29383 41.6465 6.13633C41.1067 5.87383 40.5312 5.73383 39.8905 5.59966C39.6829 5.553 39.5583 5.40133 39.4218 5.23799C39.3329 5.12716 39.2379 5.01633 39.1193 4.9405C38.6269 4.55549 38.176 4.29883 37.5946 4.29883C37.5412 4.29883 37.4879 4.29883 37.4345 4.30466C37.1319 4.32216 36.8353 4.54966 36.6395 4.71883C36.0641 5.21466 35.4412 5.65799 34.842 6.08383C33.9462 6.71966 33.0207 7.37883 32.2317 8.22466C31.4545 9.01216 31.1757 9.99799 30.8969 10.9547C30.8554 11.0947 30.8198 11.2347 30.7723 11.3747C30.7011 11.6372 30.6299 11.9055 30.5647 12.1622C30.2087 13.568 29.8409 14.9738 28.4112 15.8838C28.3163 15.9422 28.3519 16.0647 28.4349 16.0938C28.4705 16.1055 29.0697 16.3038 29.6689 15.7147C30.0307 15.2772 30.2324 14.8688 30.6596 14.4138C30.6714 14.4022 30.7248 14.3613 30.7664 14.3672C30.796 14.3788 30.802 14.3963 30.796 14.4488C30.7426 14.6297 30.6299 14.7872 30.5172 14.9447C30.4045 15.1022 30.2918 15.2655 30.2324 15.458C30.096 15.8605 29.7104 16.1872 29.3722 16.473C29.3722 16.473 29.3188 16.508 29.2892 16.543C29.2595 16.5838 29.2595 16.5955 29.2595 16.5955C29.2477 16.683 29.3188 16.7413 29.4672 16.7472C30.268 16.7472 30.8376 16.1872 31.3893 15.6447C31.413 15.6213 31.4486 15.6097 31.4842 15.6097C31.5139 15.6097 31.5435 15.6097 31.5732 15.6213C31.6088 15.6388 31.6918 15.7205 31.7571 15.7788C31.941 15.9363 32.1249 16.0997 32.3622 16.1463H32.3681C32.6588 16.1055 32.9199 16.0763 33.1927 16.0763C33.2699 16.0763 33.347 16.0763 33.4123 16.0822C33.7029 16.1697 33.9996 16.2747 34.2784 16.3797C34.4742 16.4555 34.6818 16.5313 34.8894 16.5955H34.8954C35.1623 16.5838 35.3522 16.3447 35.4945 16.123C35.5598 15.9713 35.5301 15.8197 35.4945 15.6738C35.4767 15.5805 35.459 15.4988 35.4649 15.4172C35.5123 15.3938 35.5835 15.3997 35.6547 15.4055C35.72 15.4172 35.809 15.4055 35.8386 15.4055C35.9098 15.3938 35.981 15.318 35.9632 15.213C35.9098 14.9505 35.7793 14.7872 35.6429 14.5888C35.5242 14.4197 35.4174 14.2563 35.3581 14.0755C35.2691 13.8363 35.0852 13.638 34.9013 13.4397C34.6937 13.218 34.492 13.0022 34.4326 12.7338C34.4326 12.7338 34.4148 12.6755 34.4326 12.6522C34.4504 12.6288 34.5098 12.6522 34.5098 12.6522C34.6047 12.7222 34.7055 12.798 34.7945 12.8738C35.0971 13.1188 35.4115 13.3697 35.7971 13.4222C36.153 13.4572 36.5446 13.5038 36.9243 13.4688C37.0251 13.4513 37.0785 13.3638 37.0548 13.2822C36.9005 12.9672 36.7463 12.6288 36.6514 12.2613C36.5743 11.9813 36.3904 11.2522 36.5743 10.698C36.5921 10.6455 36.6276 10.628 36.6632 10.628C36.6632 10.628 36.6692 10.628 36.6751 10.628C36.7344 10.6397 36.776 10.7155 36.7878 10.7738V10.8438C36.8471 11.5963 36.9005 12.308 37.3633 12.9147C37.4879 13.113 37.6658 13.2122 37.8379 13.3113C37.9565 13.3813 38.093 13.4455 38.1819 13.5505C38.2828 13.673 38.2947 13.883 38.2294 14.0113L37.654 14.8455C37.5175 15.038 37.387 15.2363 37.3395 15.4463C37.298 15.6563 37.3158 15.8605 37.3395 16.0588V16.1055C37.3395 16.1055 37.3099 16.0763 37.298 16.0588C37.0667 15.6447 37.0192 15.3005 37.1378 15.0322C37.215 14.8572 37.6836 14.2038 37.8141 13.9938C37.8557 13.9238 37.8913 13.8538 37.8557 13.8072C37.8082 13.7488 37.4582 13.603 37.3692 13.603C37.3692 13.603 37.3573 13.603 37.3514 13.603C37.2684 13.6263 37.215 13.7022 37.1675 13.7663C37.1556 13.7838 37.1438 13.7955 37.1319 13.813L36.4259 15.0788L36.4081 15.1255C36.3666 15.2538 36.331 15.3588 36.3666 15.5047C36.4081 15.6972 36.4675 15.8955 36.509 16.0472L36.5446 16.1697C36.6098 16.3913 36.6692 16.5955 36.7641 16.7122C36.8234 16.7822 36.9124 16.823 37.0073 16.8172C37.0607 16.8172 37.1141 16.8113 37.1675 16.7997C37.2565 16.788 37.3514 16.7763 37.4226 16.7938C37.5294 16.823 37.6006 16.8988 37.6836 16.9805C37.7607 17.0622 37.8438 17.1497 37.9625 17.1847C38.182 17.2547 38.4133 17.3188 38.6328 17.3713C38.9294 17.4472 39.232 17.5288 39.5227 17.6397C39.6888 17.6922 39.8608 17.7388 40.0329 17.7388C40.2227 17.7388 40.3414 17.6863 40.5015 17.558C40.7329 17.3713 40.8041 17.1905 40.8634 16.928C40.9109 16.6888 40.988 16.6713 41.166 16.6597C41.249 16.6597 41.2668 16.6597 41.3499 16.6305C41.4389 16.6013 41.694 16.2922 41.8304 16.0413C41.866 15.9713 41.9075 15.9072 41.9431 15.8547C41.9787 15.808 41.9965 15.7555 41.9965 15.6972C41.9965 15.5688 41.8897 15.5338 41.8245 15.5338H41.777C41.777 15.5338 41.0236 15.528 40.816 15.5338C40.5075 15.5513 40.371 15.843 40.2642 16.1055C40.2227 16.2047 40.1812 16.298 40.1337 16.3797C40.0507 16.5255 39.8905 16.613 39.6947 16.6072C39.6354 16.6072 39.5108 16.5722 39.4456 16.5547C39.0362 16.4555 38.615 16.3563 38.443 15.9538C38.4252 15.8838 38.4015 15.7438 38.5023 15.6272C38.7218 15.3822 39.0066 15.0613 39.3032 14.8397C39.7125 14.7522 40.1219 14.4547 40.3473 14.0813C40.3948 14.0172 40.4185 13.9413 40.4422 13.8655C40.4778 13.7547 40.5134 13.6438 40.6202 13.5797C40.6855 13.5447 40.7388 13.5563 40.7507 13.6147C40.7922 13.8247 40.7092 14.023 40.6321 14.2213C40.6143 14.2622 40.5965 14.3088 40.5787 14.3555L40.5668 14.3905H40.6024C40.7151 14.4022 40.8338 14.408 40.9465 14.408C41.3677 14.408 41.7652 14.338 42.1567 14.268C42.5423 14.198 42.9398 14.128 43.3491 14.128C43.3907 14.128 43.4381 14.128 43.4796 14.128C43.6636 14.128 43.8415 14.1455 44.0136 14.1572C44.1797 14.1688 44.3577 14.1863 44.5297 14.1863C44.589 14.1863 44.6483 14.1863 44.7077 14.1805C45.2357 14.1572 45.6153 13.9238 45.7281 13.5505C45.8348 13.2355 45.823 12.6872 45.6925 11.923C45.6865 11.888 45.6806 11.8647 45.6806 11.8588V11.8472C45.6806 11.8472 45.6806 11.7888 45.7221 11.7713C45.7696 11.7422 45.823 11.7713 45.8467 11.8355C46.0484 12.3838 46.1611 13.0138 46.2204 13.4513C46.2857 13.8713 46.4696 14.303 46.7722 14.758C47.1459 15.3063 47.7688 15.6272 48.4689 15.6272C48.635 15.6272 48.7951 15.598 48.9612 15.5747C49.074 15.563 49.1155 15.5688 49.1926 15.5688C50.0884 15.5688 50.8656 15.948 51.4469 16.6713C51.4469 16.6713 51.4588 16.683 51.4588 16.7063C51.4588 16.7355 51.4114 16.7647 51.3758 16.753L51.2986 16.6947C50.7944 16.3097 50.2723 15.913 49.6198 15.8313C49.4952 15.808 49.3765 15.8022 49.2519 15.8022C49.068 15.8022 48.8841 15.8197 48.7002 15.843C48.5222 15.8605 48.3502 15.8838 48.1782 15.8838C47.9765 15.8838 47.7748 15.8547 47.5849 15.7788C46.8315 15.5338 46.2145 14.6822 46.0187 14.1513C46.0069 14.1222 45.9713 14.0988 45.9416 14.0988C45.9179 14.0988 45.9001 14.1047 45.8764 14.1163C45.7874 14.1688 45.7755 14.198 45.7636 14.2505C45.7518 14.2972 45.823 14.6763 45.8586 14.8397C45.9594 15.2422 46.1077 15.8547 46.6417 16.0763C46.7069 16.1172 46.7722 16.158 46.8434 16.1988C47.1103 16.368 47.3891 16.543 47.7095 16.543C47.7866 16.543 47.8637 16.5313 47.9349 16.5138C48.1248 16.473 48.3205 16.4497 48.5163 16.4497C49.1333 16.4497 49.7681 16.6597 50.2961 17.0388C50.385 17.0913 50.4681 17.1555 50.5511 17.2255C50.6639 17.3188 50.7825 17.418 50.9249 17.4705C51.0139 17.5055 51.1088 17.523 51.2097 17.523C51.447 17.523 51.5122 17.453 51.6842 17.3713C51.7495 17.3422 51.8148 17.3247 51.886 17.3247C52.0758 17.3247 52.1826 17.4705 52.319 17.6572C52.4021 17.768 52.4911 17.8963 52.6156 18.0072C52.7877 18.1763 53.0309 18.1938 53.2208 18.1938C53.3275 18.1938 53.4284 18.188 53.5352 18.1822C53.636 18.1763 53.7547 18.1705 53.814 18.1647C53.8733 18.1588 53.9089 18.1472 53.9089 18.1472V18.1238V18.1297H53.9149ZM33.525 15.318C33.4894 15.3822 33.4063 15.4172 33.2936 15.4172C33.1987 15.4172 33.1097 15.3938 33.0326 15.3472C32.8902 15.248 32.8071 15.0788 32.7953 14.8572C32.7953 14.8047 32.7953 14.7522 32.8605 14.7055C32.8961 14.688 32.9139 14.688 32.9554 14.688C33.0919 14.688 33.3114 14.7755 33.43 14.9155C33.436 14.9272 33.6199 15.1605 33.525 15.3238V15.318ZM33.7207 12.2088C33.6673 12.273 33.5902 12.3197 33.5131 12.2847C33.4419 12.2613 33.3767 12.168 33.3411 12.098C33.2936 12.0105 33.2521 11.9347 33.1334 11.9463H33.1156C33.0148 11.9522 32.9377 12.0047 32.8546 12.0688C32.8131 12.1038 32.647 12.2205 32.6054 12.2555C32.38 12.4422 32.1546 12.6347 32.1012 12.8913C32.0893 12.938 32.0774 12.9847 32.0715 13.0313C32.0537 13.1247 32.0359 13.218 31.9588 13.2647C31.9588 13.2647 31.9351 13.2705 31.9232 13.2705C31.8876 13.2705 31.852 13.2588 31.8283 13.2355C31.7986 13.2122 31.7808 13.183 31.7808 13.148C31.7393 12.6988 31.8935 12.2963 32.2139 12.0105C32.4215 11.8413 32.5876 11.6313 32.7478 11.4272C32.8249 11.328 32.908 11.223 32.991 11.1297C33.0563 11.0655 33.1572 11.118 33.3292 11.3047C33.4004 11.3805 33.6258 11.7597 33.7267 12.0047C33.7504 12.0688 33.7445 12.1388 33.7148 12.1972L33.7207 12.2088ZM37.4879 6.99966C37.3989 7.08133 37.3099 7.16299 37.2209 7.24466C36.9005 7.53049 36.5683 7.82799 36.3548 8.16049C36.2539 8.29466 36.1768 8.45799 36.0997 8.60966C36.0937 8.62716 36.0759 8.66216 36.0403 8.66216C36.0225 8.66216 36.0047 8.6505 35.9929 8.63883C35.9335 8.58049 35.981 8.15466 36.0641 7.94466C36.242 7.47799 36.6395 6.98799 37.1616 6.60299C37.2209 6.56799 37.2862 6.55049 37.3573 6.55049C37.4582 6.55049 37.5294 6.59716 37.565 6.67299C37.6302 6.77799 37.6065 6.89466 37.4938 7.00549L37.4879 6.99966ZM16.1013 15.8722C16.0835 15.843 16.0657 15.808 16.0479 15.7788C15.9945 15.6797 15.9649 15.5747 15.9411 15.4872C15.8877 15.3063 15.8403 15.143 15.6386 15.1722C15.3538 15.213 15.075 15.2305 14.7606 15.2305C14.7606 15.2305 14.6597 15.2305 14.6301 15.2947C14.5945 15.3705 14.6716 15.4463 14.7606 15.5163C14.808 15.5572 14.8555 15.6038 14.8911 15.6505C14.9504 15.7322 15.0038 15.8547 15.0572 15.9655C15.1402 16.1522 15.2174 16.3038 15.3004 16.333C15.342 16.3447 15.3775 16.3505 15.4191 16.3505C15.6148 16.3505 15.8818 16.2455 16.0776 16.0997C16.1844 16.0063 16.1488 15.948 16.1013 15.8663V15.8722ZM2.06509 15.5863L2.04729 15.5747C1.98797 15.528 1.88118 15.5338 1.80999 15.5805C1.76253 15.6155 1.70914 15.6447 1.66168 15.6797C1.5015 15.7847 1.33539 15.8897 1.16335 16.0355C1.09809 16.088 1.0625 16.1872 1.05657 16.263C1.05657 16.3213 1.05657 16.3738 1.08623 16.403C1.09809 16.4205 1.22861 16.5547 1.25234 16.578C1.30573 16.6247 1.38285 16.6538 1.45404 16.6538C1.51337 16.6538 1.57269 16.6363 1.62608 16.6072C1.93457 16.4555 2.25493 15.8897 2.26679 15.8547C2.29645 15.7613 2.1956 15.6797 2.05915 15.5747L2.06509 15.5863ZM1.0447 16.9222C0.979446 16.8347 0.771809 16.5897 0.65316 16.5897C0.641295 16.5897 0.635362 16.5897 0.623498 16.5955C0.457388 16.6597 0.267549 16.8697 0.255684 16.998C0.214157 17.5463 0.19636 17.6047 0.0480481 17.7738C0.00652082 17.8205 -0.0231415 17.9313 0.0243182 17.978C0.0658455 18.0188 0.611633 18.188 0.67689 18.188H0.688755C0.736214 18.1705 0.777742 18.048 0.890459 17.6688C0.949783 17.4647 1.01504 17.2372 1.09216 17.0272C1.09216 17.0155 1.09216 16.9922 1.05064 16.9222H1.0447Z" fill="#181818"/>
<path d="M17.7852 16.8871C18.0107 16.8696 18.2421 16.8521 18.4082 16.6829C18.6158 16.3854 18.7938 16.0879 18.948 15.7729C19.0904 15.4871 19.0904 15.2129 18.948 14.9971C18.5327 14.3496 18.4616 14.1746 18.2954 13.7371V13.7254H18.2776C18.2302 13.7079 18.1827 13.6962 18.1353 13.6729C18.0344 13.6321 17.9276 13.5912 17.809 13.5912H17.7912C17.6488 13.5912 17.5539 13.6379 17.5124 13.7196V13.7312L18.2539 15.1838C18.3014 15.2946 18.3548 15.4112 18.3251 15.5804C18.2954 15.7496 17.9276 16.3212 17.8208 16.3912C17.803 16.4087 17.7793 16.4146 17.7556 16.4204C17.7497 16.4204 17.7081 16.4146 17.7319 16.3271C17.803 16.0937 17.892 15.5337 17.8683 15.3587C17.8386 15.1546 17.2157 14.1337 17.1861 14.0871L17.1742 14.0696C17.0793 13.9121 16.9784 13.7546 16.9844 13.5621C16.9844 13.4746 17.0674 13.4162 17.1267 13.3929C17.2335 13.3521 17.3403 13.3346 17.453 13.3112C17.72 13.2529 17.9929 13.1946 18.0937 13.0487C18.3904 12.5996 18.5743 12.1329 18.6929 11.4854C18.6929 11.4563 18.7166 11.4037 18.7582 11.4037C18.7819 11.4037 18.8056 11.4096 18.8175 11.4679C18.9302 12.0862 18.7819 12.7221 18.4082 13.2354C18.3844 13.2762 18.3726 13.3287 18.3785 13.3754C18.3844 13.4279 18.4438 13.4688 18.4438 13.4688C18.5861 13.5679 19.1141 13.5096 19.4938 13.3112C19.7845 13.3171 20.0574 13.2646 20.3243 13.2179C20.4074 13.2004 20.4905 13.1887 20.5735 13.1712C20.5972 13.1829 20.621 13.2121 20.6269 13.2296C20.4015 13.4746 20.265 13.7546 20.1998 14.1046C20.1345 14.1687 20.0693 14.2271 20.004 14.2912C19.7608 14.5129 19.4997 14.7579 19.4819 15.0729C19.4819 15.0729 19.476 15.1837 19.6006 15.1954C19.6362 15.1954 19.6836 15.1779 19.7252 15.1604C19.7667 15.1429 19.8082 15.1312 19.8557 15.1254C19.8972 15.1254 19.9269 15.1604 19.9269 15.2012L19.648 15.6037C19.5413 15.7729 19.5887 15.9479 19.6302 16.1229C19.6599 16.2162 19.648 16.2921 19.6718 16.3737C19.743 16.5721 19.9921 16.6654 20.1879 16.6654C20.5498 16.6479 20.882 16.5312 21.2024 16.4204C21.2617 16.4029 21.3151 16.3796 21.3744 16.3621C21.7244 16.2104 22.1931 16.1812 22.7507 16.2687C23.1957 16.2396 23.5338 15.9479 23.8601 15.6679C24.0025 15.6679 24.1449 15.7554 24.2932 15.9129C24.7796 16.4262 25.3729 16.6712 26.1085 16.6712H26.2687C26.3458 16.6479 26.3636 16.6129 26.3695 16.5662C26.3695 16.5079 26.328 16.4554 26.2509 16.4146L25.8356 16.1987C25.5034 15.9946 25.1474 15.7437 25.0466 15.4171C24.9398 15.0671 24.7381 14.7112 24.5898 14.4779C24.5601 14.4312 24.5245 14.3846 24.4949 14.3379C24.4355 14.2562 24.3762 14.1687 24.3347 14.0812C24.7856 14.2387 25.0347 14.5654 25.3432 15.1079C25.5686 15.5104 26.156 15.9479 26.7136 15.9479C26.7848 15.9479 26.856 15.9421 26.9272 15.9246C26.9865 15.9129 27.028 15.8721 27.034 15.8254C27.034 15.7787 27.034 15.7379 26.9865 15.7146L26.6484 15.5512C26.2509 15.3179 26.0195 14.9387 25.7941 14.5712C25.7051 14.4254 25.6161 14.2796 25.5153 14.1396C25.45 14.0462 25.3432 13.9471 25.2424 13.8654C25.1593 13.7896 25.0763 13.7196 25.0644 13.6788C24.6966 12.6988 24.2991 11.5437 24.2042 10.2663C24.1923 10.0738 24.0499 9.64208 23.8838 9.36208C23.3618 8.52792 22.1219 7.11042 22.0566 7.04042C22.0151 6.99375 21.9676 6.95292 21.9261 6.91208L21.8905 6.87708L19.6599 5.05125C19.215 4.74208 19.0845 4.68958 18.7582 4.57875C18.5327 4.50292 18.2954 4.46792 18.0581 4.46792C17.7437 4.46792 17.4234 4.52625 17.1683 4.63708C16.9903 4.73042 16.8183 4.84125 16.6462 4.94625C16.3615 5.12708 16.0648 5.31375 15.7445 5.41875C15.4953 5.52958 15.2224 5.61125 14.9673 5.68708C14.4631 5.83875 13.9351 6.00208 13.5198 6.37542C13.4012 6.48625 13.3003 6.57375 13.2173 6.65542C12.8316 7.01125 12.796 7.04625 12.4816 7.04625C11.7519 7.04625 11.2417 7.22125 10.7019 7.65292C10.2747 8.03208 9.85947 8.38792 9.36708 8.55708C9.14758 8.63292 8.90435 8.66208 8.64332 8.68542C8.26957 8.72042 8.21618 8.72042 7.86616 8.80208C7.33817 8.91875 6.77459 9.35042 6.29999 9.71208C6.14575 9.82875 5.93811 9.98625 5.83726 10.0504C5.78387 10.0854 5.72454 10.1204 5.67708 10.1496C5.08384 10.4879 4.53212 10.8088 3.81429 10.8088H3.7609C3.22697 10.7679 2.74051 10.4121 2.58033 9.93375C2.43202 9.39708 2.5922 8.84292 3.02527 8.41708C3.23291 8.21292 3.46427 8.02042 3.68971 7.82792C4.05752 7.52458 4.4016 7.23292 4.6389 6.91792C4.91773 6.55042 4.88806 5.93208 4.57364 5.59375C4.25922 5.25542 3.56512 5.09208 3.3041 5.02792L3.25664 5.01625C3.25664 5.01625 3.18545 5.00458 3.16172 4.99875C2.99561 4.96375 2.83543 4.94625 2.67525 4.90542C2.25998 4.79458 1.93963 4.47958 1.57182 4.28125C1.42944 4.49708 1.38198 4.72458 1.39977 4.98708C1.47096 5.52958 1.9337 6.09542 2.44389 6.32875C2.46762 6.33458 2.48542 6.34625 2.50915 6.35208C2.66932 6.42208 2.84136 6.43375 3.00154 6.43375H3.20918C3.31003 6.43375 3.42868 6.43375 3.53546 6.46292C3.64818 6.49792 3.73717 6.59125 3.74903 6.70792C3.75496 6.77792 3.7253 6.83625 3.63038 6.90625L3.36935 7.11625C2.93035 7.47208 2.47355 7.84542 2.0998 8.29458C1.60148 8.81958 1.57775 9.73542 1.81505 10.3304C2.11167 11.1121 2.92442 11.5496 3.60665 11.6371C3.7253 11.6546 3.84988 11.6662 3.97446 11.6662C4.37194 11.6662 4.75162 11.5729 5.12536 11.4796C5.13723 11.4796 5.14909 11.4796 5.16096 11.4796C5.17876 11.4796 5.20842 11.4796 5.21435 11.5612C5.22622 11.7246 5.23215 11.9054 5.24401 12.0862C5.25588 12.3779 5.27368 12.6462 5.29147 12.7629C5.33893 13.0196 5.46945 13.3346 5.55843 13.5387C5.59403 13.6262 5.62369 13.6962 5.62962 13.7312C5.66522 13.8479 5.62962 13.9762 5.5525 14.0462C5.27368 14.2971 4.70416 14.4954 4.59737 14.5129C4.43126 14.5304 4.25329 14.5421 4.11684 14.5479C4.05159 14.5479 3.99819 14.5537 3.97446 14.5596C3.91514 14.5654 3.86175 14.5887 3.82022 14.6296C3.73717 14.7054 3.65411 14.9271 3.55326 15.1779C3.49393 15.3296 3.42868 15.4929 3.36342 15.6213C3.18545 15.9129 2.88882 16.0821 2.59813 16.2454C2.52694 16.2863 2.45575 16.3271 2.38456 16.3737H2.37863C2.25998 16.5662 2.14133 16.7413 1.98709 16.8754C1.86844 16.9862 1.71419 17.0096 1.56588 17.0271H1.54809C1.32265 17.2896 1.25146 17.6279 1.18027 17.9546C1.16841 18.0071 1.15654 18.0538 1.14468 18.1062L1.13281 18.1529H1.16247C1.28112 18.1646 1.39977 18.1937 1.52436 18.2171C1.69046 18.2521 1.86251 18.2871 2.02862 18.2871C2.19472 18.2871 2.32524 18.2521 2.44982 18.1879C2.66339 18.0887 2.78204 17.8962 2.89476 17.7096C2.96595 17.5871 3.04307 17.4587 3.14985 17.3596C3.20918 17.2954 3.29223 17.2604 3.38122 17.2604C3.46427 17.2604 3.55919 17.2837 3.64818 17.3071C3.73123 17.3304 3.81429 17.3537 3.89141 17.3537C4.28889 17.3771 4.66856 17.1321 4.85247 16.9862C4.93552 16.9221 5.01265 16.8462 5.08977 16.7762C5.20842 16.6654 5.333 16.5487 5.46945 16.4671C5.62962 16.3912 5.8254 16.3562 6.06863 16.3562C6.37118 16.3562 6.6856 16.4146 6.9407 16.4612C7.07715 16.4962 7.21359 16.5137 7.35004 16.5137C7.57547 16.5137 7.80091 16.4613 8.00261 16.3562C8.22211 16.2338 8.44755 16.1171 8.62552 16.0237C8.7323 15.9712 8.82129 15.9246 8.89248 15.8837C9.21283 15.7146 9.4798 15.2362 9.58065 15.0379C9.67557 14.8512 9.83574 14.4546 9.83574 14.4546V14.4371L9.47386 14.1571L9.462 14.1804C9.462 14.1804 9.21283 14.5771 9.05859 14.7637C8.40602 15.6387 7.33817 15.7496 6.4839 15.7496C6.42457 15.7496 6.36525 15.7496 6.30592 15.7496C5.24995 15.7496 4.39567 16.0996 3.76683 16.7879C3.73717 16.8229 3.68377 16.8287 3.66598 16.7996C3.65411 16.7821 3.64818 16.7587 3.66004 16.7237C3.67191 16.6596 3.69564 16.6012 3.73123 16.5487C4.39567 15.6213 5.52877 15.4871 6.44237 15.4696C7.11867 15.4229 7.61107 15.3121 8.03227 15.0962C8.57806 14.8221 8.98147 14.2154 9.14758 13.7371C9.25436 13.4221 9.30182 13.0837 9.35521 12.7629C9.39674 12.5062 9.43827 12.2379 9.50353 11.9929C9.51539 11.9637 9.54505 11.9404 9.58065 11.9404C9.58658 11.9404 9.59251 11.9404 9.60438 11.9462C9.63997 11.9521 9.70523 11.9754 9.70523 12.0279C9.61031 12.5354 9.48573 13.2354 9.72303 13.8187C9.83574 14.0463 10.0671 14.1629 10.4409 14.1629C10.6663 14.1629 10.9155 14.1221 11.1528 14.0871C11.3367 14.0579 11.5146 14.0288 11.6629 14.0229C11.7282 14.0171 11.7935 14.0171 11.8587 14.0171C12.1553 14.0171 12.446 14.0754 12.7189 14.1279C12.9622 14.1746 13.2113 14.2271 13.4664 14.2387C13.5139 14.2387 13.5613 14.2446 13.6147 14.2504C13.7037 14.2562 13.7927 14.2621 13.8876 14.2621C14.1071 14.2621 14.2614 14.2212 14.3681 14.1279C14.4453 14.0637 14.4215 13.9704 14.3859 13.8537V13.8304C14.3859 13.8304 14.3681 13.7896 14.3563 13.7662C14.3088 13.6087 14.2317 13.3696 14.3563 13.2587C14.3741 13.2471 14.4037 13.2354 14.4275 13.2354C14.4453 13.2354 14.4749 13.2413 14.4868 13.2762L14.5283 13.4162C14.5817 13.6087 14.641 13.8071 14.7656 13.9704C15.0267 14.2971 15.4301 14.6062 15.9284 14.8629C16.2487 15.0787 16.6403 15.4462 16.6699 15.9596C16.6699 16.1929 16.4386 16.3504 16.2725 16.4554C16.0055 16.5896 15.5428 16.7354 15.3292 16.7354C15.2995 16.7354 15.2699 16.7354 15.2462 16.7237C14.9317 16.5604 14.7716 16.2979 14.6054 16.0121C14.5165 15.8604 14.4156 15.7087 14.3029 15.5746C14.1427 15.3996 13.9351 15.3296 13.6563 15.3529C13.3893 15.3704 13.1461 15.4229 12.8494 15.4871C12.7901 15.4987 12.7427 15.5337 12.7189 15.5862C12.6952 15.6504 12.7011 15.7204 12.7367 15.7787C12.891 16.0471 13.0333 16.2863 13.1876 16.5429L13.2588 16.6596C13.2944 16.7237 13.3774 16.7296 13.4427 16.7296C13.4783 16.7296 13.5139 16.7296 13.5554 16.7237C13.5969 16.7237 13.6444 16.7179 13.6918 16.7179C13.8283 16.7179 13.9113 16.7529 13.9707 16.8171C14.0181 16.8871 14.0597 16.9629 14.1012 17.0329C14.202 17.2137 14.3088 17.4004 14.4868 17.5346C14.647 17.6746 14.8783 17.7504 15.1216 17.7504C15.2284 17.7504 15.3292 17.7329 15.4301 17.7037C16.1301 17.4879 16.8123 17.2662 17.459 16.9221C17.459 16.9221 17.7141 16.9221 17.8149 16.9104L17.7852 16.8871ZM18.948 9.16958C18.9361 9.21042 18.9065 9.23958 18.8768 9.23958C18.865 9.23958 18.8294 9.23375 18.8234 9.18125C18.7048 8.59208 18.6395 8.30625 18.4971 8.03208C18.4556 7.94458 18.3963 7.87458 18.3488 7.81042C18.248 7.67625 18.159 7.55958 18.2598 7.40208C18.2895 7.35542 18.3607 7.32625 18.4378 7.32625C18.4793 7.32625 18.509 7.33208 18.5446 7.34958C18.6573 7.40208 18.77 7.54208 18.8887 7.76958C19.1734 8.34708 18.948 9.16375 18.948 9.17542V9.16958ZM22.7033 15.0204C22.7033 15.0204 22.6855 15.1837 22.6083 15.2596C22.5312 15.3296 22.2465 15.3704 22.0922 15.3646C21.9439 15.3587 21.8905 15.3354 21.8609 15.2946C21.8253 15.2421 21.8846 15.1429 21.8846 15.1429C21.9024 15.1079 22.0804 14.7521 22.4304 14.6529C22.4304 14.6529 22.5431 14.6121 22.6499 14.6646C22.7567 14.7171 22.7092 14.9854 22.7033 15.0204ZM23.7237 12.7104C23.7118 12.7921 23.6881 12.8737 23.6525 12.9438C23.6347 12.9788 23.605 13.0487 23.4982 13.0487C23.3855 13.0487 23.3914 12.9204 23.3914 12.9029C23.3914 12.9029 23.3796 12.5412 23.3084 12.3896C23.2313 12.2262 22.8634 11.7596 22.6499 11.7771C22.5965 11.7771 22.4541 11.8646 22.3533 11.9929C22.2287 12.1504 22.2287 12.1737 22.1871 12.1971C22.1456 12.2204 22.0982 12.2087 22.0804 12.1154C22.0626 12.0221 22.0448 11.9462 22.0922 11.7654C22.1397 11.5846 22.1812 11.5437 22.2346 11.4154C22.2346 11.4154 22.3473 11.1646 22.3888 11.1004C22.5016 10.9313 22.6558 10.9429 22.6558 10.9429C22.6973 10.9429 22.8279 10.9313 22.9702 11.1004C23.1363 11.3046 23.1007 11.2871 23.1423 11.3571C23.1897 11.4271 23.2372 11.5029 23.3736 11.6487C23.5101 11.7946 23.6584 12.0746 23.6999 12.2496C23.7414 12.4246 23.7414 12.5763 23.7177 12.7104H23.7237Z" fill="#181818"/>
</svg>
