<svg width="88" height="21" viewBox="0 0 88 21" fill="none" xmlns="http://www.w3.org/2000/svg">
<g id="redhat">
<path id="Vector" fill-rule="evenodd" clip-rule="evenodd" d="M18.4802 12.2166C20.2528 12.2166 22.8038 11.8548 22.8038 9.76743C22.8038 9.60044 22.8038 9.44272 22.7663 9.29429L21.7159 4.76702C21.472 3.76508 21.2563 3.3105 19.4837 2.44772C18.1144 1.75193 15.1131 0.601562 14.2409 0.601562C13.4249 0.601562 13.1717 1.65916 12.1963 1.65916C11.2209 1.65916 10.555 0.870601 9.66398 0.870601C8.77298 0.870601 8.25713 1.43651 7.83508 2.62399C7.83508 2.62399 6.65333 5.94522 6.50327 6.43691C6.48451 6.52969 6.46576 6.62246 6.46576 6.69668C6.46576 7.97693 11.596 12.2073 18.4802 12.2259M23.0946 10.6209C23.3384 11.7713 23.3384 11.8826 23.3384 12.0311C23.3384 13.9885 21.1062 15.0833 18.1894 15.0833C11.5773 15.0833 5.78111 11.2518 5.78111 8.72838C5.78111 8.36657 5.85614 8.03259 5.98744 7.70789C3.6052 7.80066 0.519531 8.21813 0.519531 10.9178C0.519531 15.3337 11.0614 20.7423 19.4368 20.7423C25.8426 20.7423 27.4652 17.8757 27.4652 15.6121C27.4464 13.8401 25.8989 11.8177 23.0946 10.6116" fill="#B9C8DE"/>
<path id="Vector_2" fill-rule="evenodd" clip-rule="evenodd" d="M23.0947 10.6122C23.3386 11.7626 23.3386 11.8739 23.3386 12.0223C23.3386 13.9798 21.1064 15.0745 18.1895 15.0745C11.5774 15.0745 5.78125 11.2431 5.78125 8.71967C5.78125 8.35786 5.85628 8.02388 5.98759 7.69917L6.50342 6.43748C6.48466 6.53025 6.46591 6.60447 6.46591 6.69724C6.46591 7.97749 11.5962 12.2264 18.4803 12.2264C20.2529 12.2264 22.804 11.8646 22.804 9.77727C22.804 9.61028 22.804 9.45256 22.7665 9.30413L23.0947 10.6029V10.6122ZM82.4727 13.516C82.4727 15.1766 83.4856 15.9837 85.3332 15.9837C85.9054 15.9652 86.4587 15.8909 87.012 15.7611V13.8407C86.665 13.952 86.2899 14.0077 85.9241 14.0077C85.1644 14.0077 84.8737 13.785 84.8737 13.0614V10.102H87.0871V8.12593H84.8924V5.58398L82.4914 6.09422V8.08882H80.8876V10.0649H82.4727V13.516ZM74.9789 13.5531C74.9789 13.0428 75.4947 12.7831 76.292 12.7831C76.7703 12.7831 77.2486 12.8387 77.7175 12.9501V13.952C77.258 14.1932 76.7421 14.3324 76.2075 14.3324C75.4291 14.3324 74.9695 14.0541 74.9695 13.5624L74.9789 13.5531ZM75.7011 16.0023C76.5546 16.0023 77.2298 15.8353 77.877 15.3992V15.8724H80.2592V10.872C80.2592 8.97015 78.9649 7.9311 76.8078 7.9311C75.6073 7.9311 74.4068 8.20942 73.1313 8.77533L73.9847 10.5287C74.9039 10.1484 75.6823 9.90715 76.367 9.90715C77.3611 9.90715 77.877 10.2875 77.877 11.0761V11.4564C77.2861 11.308 76.6952 11.2338 76.0856 11.2338C74.0691 11.2338 72.8405 12.078 72.8405 13.5716C72.8405 14.9632 73.9472 16.0208 75.7011 16.0023ZM62.6175 15.8909H65.1686V11.8554H69.4547V15.8909H72.0246V5.5747H69.4735V9.53606H65.1873V5.5747H62.6362L62.6175 15.8909ZM52.8728 11.9852C52.8728 10.872 53.7732 10.0092 54.9362 10.0092C55.5458 9.99064 56.1367 10.2133 56.5962 10.6122V13.3304C56.1367 13.7479 55.5458 13.9706 54.9362 13.952C53.7919 13.952 52.8728 13.1078 52.8728 11.9945V11.9852ZM56.6525 15.8909H59.0347V5.06445L56.6337 5.5747V8.49701C56.0241 8.15376 55.3395 7.96821 54.636 7.98677C52.3476 7.98677 50.5374 9.74016 50.5374 11.9667V12.0223C50.5374 14.1932 52.3476 15.9837 54.5422 15.9837H54.561C55.3207 15.9837 56.071 15.7611 56.6806 15.3065L56.6619 15.8909H56.6525ZM45.7261 9.89787C46.4858 9.89787 47.1141 10.3896 47.3861 11.141H44.1035C44.3286 10.371 44.9195 9.89787 45.7261 9.89787ZM41.665 11.9945C41.665 14.2582 43.5314 16.0301 45.9511 16.0301C47.2642 16.0301 48.2396 15.6683 49.2525 14.8612L47.6487 13.4696C47.2642 13.85 46.7296 14.0541 46.0637 14.0541C45.229 14.0726 44.4412 13.5809 44.1223 12.8109H49.7308V12.2264C49.7308 9.75871 48.052 7.96821 45.7636 7.96821H45.7073C43.4939 7.96821 41.665 9.77727 41.665 11.9667V12.0038V11.9945ZM37.5101 7.75484C38.3636 7.75484 38.8232 8.28364 38.8232 8.92376C38.8232 9.56389 38.3448 10.0927 37.5101 10.0927H34.9778V7.77339L37.5101 7.75484ZM32.4174 15.8817H34.9684V12.1244H36.9286L38.8888 15.8817H41.7494L39.4609 11.7533C40.6427 11.2802 41.4211 10.1298 41.4211 8.84955C41.4211 7.00339 39.9486 5.56542 37.7446 5.56542H32.408V15.8817H32.4174Z" fill="#B9C8DE"/>
<path id="Vector_3" fill-rule="evenodd" clip-rule="evenodd" d="M23.0947 10.6103C23.3386 11.7607 23.3386 11.872 23.3386 12.0204C23.3386 13.9779 21.1064 15.0726 18.1895 15.0726C11.5774 15.0726 5.78125 11.2411 5.78125 8.71774C5.78125 8.35593 5.85628 8.02195 5.98759 7.69724L6.50342 6.43555C6.48466 6.52832 6.46591 6.60254 6.46591 6.69531C6.46591 7.97556 11.5962 12.2245 18.4803 12.2245C20.2529 12.2245 22.804 11.8627 22.804 9.77534C22.804 9.60835 22.804 9.45063 22.7665 9.3022L23.0947 10.601V10.6103Z" fill="#130C49"/>
</g>
</svg>
