<svg width="111" height="27" viewBox="0 0 111 27" fill="none" xmlns="http://www.w3.org/2000/svg">
<path fill-rule="evenodd" clip-rule="evenodd" d="M23.668 15.4677C25.9222 15.4677 29.1663 15.0076 29.1663 12.3532C29.1663 12.1408 29.1663 11.9403 29.1186 11.7515L27.7828 5.99433C27.4727 4.7202 27.1983 4.14213 24.9442 3.04496C23.2029 2.16015 19.3863 0.697266 18.2771 0.697266C17.2394 0.697266 16.9174 2.04218 15.677 2.04218C14.4366 2.04218 13.5898 1.03939 12.4568 1.03939C11.3237 1.03939 10.6677 1.75904 10.131 3.26911C10.131 3.26911 8.62826 7.49261 8.43743 8.11787C8.41358 8.23585 8.38973 8.35382 8.38973 8.4482C8.38973 10.0763 14.9137 15.4559 23.668 15.4795M29.536 13.4385C29.8461 14.9014 29.8461 15.043 29.8461 15.2317C29.8461 17.721 27.0075 19.1131 23.2983 19.1131C14.8898 19.1131 7.51908 14.2408 7.51908 11.0318C7.51908 10.5717 7.6145 10.147 7.78147 9.73412C4.75206 9.8521 0.828125 10.383 0.828125 13.816C0.828125 19.4316 14.2339 26.3096 24.8845 26.3096C33.0306 26.3096 35.0939 22.6641 35.0939 19.7856C35.0701 17.5322 33.1021 14.9604 29.536 13.4267" fill="#181818"/>
<path fill-rule="evenodd" clip-rule="evenodd" d="M29.5325 13.4279C29.8426 14.8908 29.8427 15.0324 29.8427 15.2211C29.8427 17.7104 27.004 19.1025 23.2948 19.1025C14.8864 19.1025 7.51562 14.2302 7.51562 11.0212C7.51562 10.5611 7.61104 10.1364 7.77802 9.72353L8.43398 8.11907C8.41012 8.23705 8.38628 8.33143 8.38628 8.4494C8.38628 10.0775 14.9103 15.4807 23.6646 15.4807C25.9187 15.4807 29.1628 15.0206 29.1628 12.3662C29.1628 12.1538 29.1628 11.9532 29.1151 11.7645L29.5325 13.4161V13.4279ZM105.041 17.1205C105.041 19.2323 106.329 20.2587 108.679 20.2587C109.407 20.2351 110.11 20.1407 110.814 19.9755V17.5335C110.373 17.675 109.896 17.7458 109.43 17.7458C108.464 17.7458 108.095 17.4627 108.095 16.5425V12.7791H110.909V10.2662H108.118V7.0337L105.065 7.68257V10.219H103.026V12.7319H105.041V17.1205ZM95.5118 17.1677C95.5118 16.5189 96.1678 16.1885 97.1815 16.1885C97.7898 16.1885 98.3981 16.2593 98.9944 16.4009V17.675C98.41 17.9818 97.754 18.1587 97.0742 18.1587C96.0843 18.1587 95.4999 17.8048 95.4999 17.1795L95.5118 17.1677ZM96.4301 20.2823C97.5155 20.2823 98.3742 20.0699 99.1972 19.5154V20.1171H102.227V13.7583C102.227 11.3398 100.581 10.0185 97.8375 10.0185C96.3109 10.0185 94.7843 10.3724 93.1622 11.092L94.2476 13.3218C95.4164 12.8381 96.4063 12.5313 97.2769 12.5313C98.5412 12.5313 99.1972 13.015 99.1972 14.0178V14.5015C98.4458 14.3127 97.6944 14.2184 96.9192 14.2184C94.3549 14.2184 92.7925 15.2919 92.7925 17.1913C92.7925 18.9609 94.1998 20.3059 96.4301 20.2823ZM79.7922 20.1407H83.0363V15.0088H88.4869V20.1407H91.7548V7.02191H88.5107V12.0594H83.0602V7.02191H79.8161L79.7922 20.1407ZM67.4002 15.174C67.4002 13.7583 68.5452 12.6611 70.0242 12.6611C70.7994 12.6375 71.5508 12.9206 72.1352 13.4279V16.8846C71.5508 17.4155 70.7994 17.6986 70.0242 17.675C68.5691 17.675 67.4002 16.6015 67.4002 15.1858V15.174ZM72.2067 20.1407H75.2362V6.37305L72.1829 7.02191V10.7381C71.4077 10.3016 70.537 10.0657 69.6425 10.0892C66.7323 10.0892 64.4305 12.319 64.4305 15.1504V15.2211C64.4305 17.9818 66.7323 20.2587 69.5232 20.2587H69.5471C70.5131 20.2587 71.4673 19.9755 72.2425 19.3975L72.2187 20.1407H72.2067ZM58.312 12.5195C59.2781 12.5195 60.0772 13.1448 60.423 14.1004H56.2486C56.5349 13.1212 57.2863 12.5195 58.312 12.5195ZM53.1477 15.1858C53.1477 18.0643 55.5211 20.3177 58.5982 20.3177C60.268 20.3177 61.5084 19.8576 62.7965 18.8312L60.757 17.0616C60.268 17.5453 59.5882 17.8048 58.7413 17.8048C57.6799 17.8284 56.678 17.2031 56.2725 16.2239H63.4047V15.4807C63.4047 12.3426 61.2699 10.0657 58.3597 10.0657H58.2882C55.4734 10.0657 53.1477 12.3662 53.1477 15.1504V15.1976V15.1858ZM47.8641 9.79431C48.9494 9.79431 49.5338 10.4668 49.5338 11.2808C49.5338 12.0948 48.9256 12.7673 47.8641 12.7673H44.6439V9.81791L47.8641 9.79431ZM41.3878 20.1289H44.6319V15.3509H47.1246L49.6173 20.1289H53.255L50.3449 14.879C51.8477 14.2774 52.8376 12.8145 52.8376 11.1864C52.8376 8.83872 50.9651 7.01011 48.1623 7.01011H41.3759V20.1289H41.3878Z" fill="#181818"/>
<path fill-rule="evenodd" clip-rule="evenodd" d="M29.5325 13.426C29.8426 14.8889 29.8427 15.0305 29.8427 15.2193C29.8427 17.7085 27.004 19.1006 23.2948 19.1006C14.8864 19.1006 7.51562 14.2283 7.51562 11.0194C7.51562 10.5593 7.61104 10.1346 7.77802 9.72164L8.43398 8.11719C8.41012 8.23516 8.38628 8.32954 8.38628 8.44752C8.38628 10.0756 14.9103 15.4788 23.6646 15.4788C25.9187 15.4788 29.1628 15.0187 29.1628 12.3643C29.1628 12.1519 29.1628 11.9514 29.1151 11.7626L29.5325 13.4142V13.426Z" fill="white"/>
</svg>
