<svg width="147" height="35" viewBox="0 0 147 35" fill="none" xmlns="http://www.w3.org/2000/svg">
<path fill-rule="evenodd" clip-rule="evenodd" d="M30.5009 19.9454C33.5121 19.9454 37.8509 19.3302 37.8509 15.7361C37.8509 15.4447 37.8509 15.1857 37.7862 14.9267L36.0053 7.15573C35.5844 5.43965 35.2282 4.66256 32.217 3.17313C29.8857 1.97511 24.8022 0 23.3128 0C21.9205 0 21.4996 1.81321 19.8483 1.81321C18.2293 1.81321 17.0637 0.453302 15.5419 0.453302C14.0848 0.453302 13.1458 1.42467 12.4335 3.46454C12.4335 3.46454 10.426 9.16322 10.167 10.0051C10.1346 10.167 10.1022 10.3289 10.1022 10.4584C10.1022 12.6601 18.8121 19.913 30.5009 19.9454ZM38.3366 17.1932C38.7575 19.1683 38.7575 19.3626 38.7575 19.6216C38.7575 22.989 34.9692 24.867 30.0152 24.867C18.7798 24.867 8.93657 18.2941 8.93657 13.9553C8.93657 13.3401 9.06609 12.7573 9.29274 12.2068C5.24538 12.3687 0 13.0811 0 17.7112C0 25.2879 17.9055 34.5806 32.1199 34.5806C42.9992 34.5806 45.7514 29.6591 45.7514 25.7736C45.719 22.73 43.0963 19.2654 38.3366 17.1932Z" fill="#EE0000"/>
<path fill-rule="evenodd" clip-rule="evenodd" d="M38.3375 17.1932C38.7584 19.1683 38.7584 19.3626 38.7584 19.6216C38.7584 22.989 34.9701 24.867 30.0162 24.867C18.7807 24.867 8.9375 18.2941 8.9375 13.9553C8.9375 13.3401 9.06702 12.7573 9.29367 12.2069L10.1679 10.0375C10.1355 10.1994 10.1031 10.3289 10.1031 10.4908C10.1031 12.6926 18.8131 19.9778 30.5018 19.9778C33.5131 19.9778 37.8518 19.3626 37.8518 15.7685C37.8518 15.4771 37.8518 15.2181 37.7871 14.9591L38.3375 17.1932ZM139.165 22.1796C139.165 25.0289 140.881 26.4212 144.022 26.4212C144.994 26.3888 145.933 26.2593 146.872 26.0327V22.73C146.289 22.9243 145.641 23.0214 145.026 23.0214C143.731 23.0214 143.245 22.6329 143.245 21.4025V16.319H147.001V12.9192H143.277V8.54806L139.198 9.42229V12.8544H136.478V16.2542H139.165V22.1796ZM126.44 22.2443C126.44 21.3701 127.315 20.9168 128.675 20.9168C129.484 20.9168 130.294 21.0139 131.103 21.2082V22.9243C130.326 23.3452 129.452 23.5719 128.545 23.5719C127.218 23.5719 126.44 23.0862 126.44 22.2443ZM127.671 26.4536C129.128 26.4536 130.261 26.1622 131.362 25.4175V26.2269H135.409V17.6465C135.409 14.3763 133.208 12.5954 129.549 12.5954C127.509 12.5954 125.469 13.0811 123.3 14.0525L124.757 17.0637C126.311 16.4161 127.638 15.9952 128.804 15.9952C130.488 15.9952 131.362 16.6428 131.362 18.0027V18.6503C130.358 18.3912 129.355 18.2617 128.318 18.2617C124.886 18.2617 122.814 19.7188 122.814 22.2767C122.814 24.6727 124.692 26.486 127.671 26.4536ZM105.459 26.2593H109.798V19.3302H117.083V26.2593H121.454V8.54806H117.115V15.3476H109.83V8.54806H105.491L105.459 26.2593ZM88.9133 19.5569C88.9133 17.6465 90.4351 16.1571 92.4103 16.1571C93.4464 16.1247 94.4501 16.5133 95.2272 17.1932V21.8558C94.4501 22.5681 93.4464 22.9567 92.4103 22.9243C90.4675 22.9243 88.9133 21.4672 88.9133 19.5569ZM95.3244 26.2593H99.3717V7.67383L95.292 8.54806V13.5668C94.2558 12.984 93.0902 12.6602 91.8922 12.6926C88.0067 12.6926 84.9307 15.7038 84.9307 19.5245V19.6216C84.9307 23.3452 88.0067 26.4212 91.7303 26.4212H91.7627C93.0578 26.4212 94.3206 26.0327 95.3567 25.2556L95.3244 26.2593ZM76.7713 15.9628C78.0664 15.9628 79.1349 16.8047 79.5882 18.0998H74.0191C74.4076 16.7723 75.4113 15.9628 76.7713 15.9628ZM69.8746 19.5569C69.8746 23.4423 73.0477 26.486 77.1598 26.486C79.3939 26.486 81.0453 25.8708 82.7614 24.4785L80.0415 22.0824C79.3939 22.73 78.4873 23.0862 77.3541 23.0862C75.9294 23.1186 74.6019 22.2767 74.0514 20.9492H83.5708V19.9454C83.5708 15.7038 80.7215 12.6278 76.836 12.6278H76.7389C72.9829 12.6278 69.8746 15.7362 69.8746 19.4921V19.5569ZM62.816 12.2716C64.273 12.2716 65.0501 13.1782 65.0501 14.2791C65.0501 15.38 64.2406 16.2866 62.816 16.2866H58.5096V12.304L62.816 12.2716ZM54.1708 26.2269H58.5096V19.7835H61.8446L65.1796 26.2269H70.0364L66.151 19.136C68.1585 18.3265 69.486 16.3514 69.486 14.1496C69.486 10.9765 66.9928 8.51568 63.2369 8.51568H54.1708V26.2269Z" fill="black"/>
<path fill-rule="evenodd" clip-rule="evenodd" d="M38.3375 17.1932C38.7585 19.1683 38.7585 19.3626 38.7585 19.6216C38.7585 22.989 34.9701 24.867 30.0162 24.867C18.7807 24.867 8.9375 18.2941 8.9375 13.9553C8.9375 13.3401 9.06702 12.7573 9.29367 12.2069L10.1679 10.0375C10.1355 10.1994 10.1031 10.3289 10.1031 10.4908C10.1031 12.6925 18.8131 19.9778 30.5018 19.9778C33.5131 19.9778 37.8518 19.3626 37.8518 15.7685C37.8518 15.4771 37.8518 15.2181 37.7871 14.9591L38.3375 17.1932Z" fill="black"/>
</svg>
