<svg width="216" height="141" viewBox="0 0 216 141" fill="none" xmlns="http://www.w3.org/2000/svg">
<g id="Layer_1" clip-path="url(#clip0_2862_3833)">
<path id="Vector" d="M67.4949 59.8069H54.6777V58.4626H66.1528V21.8174H79.7619V23.1617H67.4949V59.8069Z" fill="#131144"/>
<path id="Vector_2" d="M161.067 59.7532H147.176V23.108H134.641V21.7637H148.518V58.4089H161.067V59.7532Z" fill="#131144"/>
<path id="Vector_3" d="M80.4061 117.329H66.3273V80.6705H53.9933V79.3262H67.6694V115.985H80.4061V117.329Z" fill="#131144"/>
<path id="Vector_4" d="M148.693 117.437H134.963V116.093H147.351V79.4473H161.067V80.7916H148.693V117.437Z" fill="#131144"/>
<path id="Vector_5" d="M134.923 46.1897H79.668V0H134.923V46.1897ZM81.0235 44.8454H133.594V1.34429H81.0235V44.8454Z" fill="#131144"/>
<path id="Vector_6" d="M102.712 29.6016H87.3583V30.9458H102.712V29.6016Z" fill="#131144"/>
<path id="Vector_7" d="M95.8807 33.2715H87.3583V34.6158H95.8807V33.2715Z" fill="#131144"/>
<path id="Vector_8" d="M122.159 11.2109H106.806V12.5552H122.159V11.2109Z" fill="#131144"/>
<path id="Vector_9" d="M115.328 14.8809H106.806V16.2251H115.328V14.8809Z" fill="#131144"/>
<path id="Vector_10" d="M90.7404 11.3457H87.3851V24.7079H90.7404V11.3457Z" fill="#61BD73"/>
<path id="Vector_11" d="M96.7263 11.3457H93.371V24.7079H96.7263V11.3457Z" fill="#61BD73"/>
<path id="Vector_12" d="M102.712 11.3457H99.3568V24.7079H102.712V11.3457Z" fill="#61BD73"/>
<path id="Vector_13" d="M134.238 0.564453H80.1377V6.2239H134.238V0.564453Z" fill="#131144"/>
<path id="Vector_14" d="M122.656 28.27C124.561 28.27 126.105 26.7232 126.105 24.8152C126.105 22.9071 124.561 21.3604 122.656 21.3604C120.751 21.3604 119.207 22.9071 119.207 24.8152C119.207 26.7232 120.751 28.27 122.656 28.27Z" fill="#131144"/>
<path id="Vector_15" d="M111.342 28.27C113.247 28.27 114.791 26.7232 114.791 24.8152C114.791 22.9071 113.247 21.3604 111.342 21.3604C109.437 21.3604 107.893 22.9071 107.893 24.8152C107.893 26.7232 109.437 28.27 111.342 28.27Z" fill="#131144"/>
<path id="Vector_16" d="M122.656 39.4145C124.561 39.4145 126.105 37.8677 126.105 35.9597C126.105 34.0517 124.561 32.5049 122.656 32.5049C120.751 32.5049 119.207 34.0517 119.207 35.9597C119.207 37.8677 120.751 39.4145 122.656 39.4145Z" fill="#131144"/>
<path id="Vector_17" d="M111.342 39.4145C113.247 39.4145 114.791 37.8677 114.791 35.9597C114.791 34.0517 113.247 32.5049 111.342 32.5049C109.437 32.5049 107.893 34.0517 107.893 35.9597C107.893 37.8677 109.437 39.4145 111.342 39.4145Z" fill="#131144"/>
<path id="Vector_18" d="M135.178 140.505H79.923V94.3154H135.178V140.505ZM81.2651 139.161H133.836V95.6597H81.2651V139.161Z" fill="#131144"/>
<path id="Vector_19" d="M102.967 123.916H87.6133V125.26H102.967V123.916Z" fill="#131144"/>
<path id="Vector_20" d="M96.1357 127.586H87.6133V128.93H96.1357V127.586Z" fill="#131144"/>
<path id="Vector_21" d="M122.414 105.526H107.061V106.871H122.414V105.526Z" fill="#131144"/>
<path id="Vector_22" d="M115.583 109.183H107.061V110.527H115.583V109.183Z" fill="#131144"/>
<path id="Vector_23" d="M90.9954 105.661H87.6401V119.023H90.9954V105.661Z" fill="#61BD73"/>
<path id="Vector_24" d="M96.9813 105.661H93.626V119.023H96.9813V105.661Z" fill="#61BD73"/>
<path id="Vector_25" d="M102.967 105.661H99.6118V119.023H102.967V105.661Z" fill="#61BD73"/>
<path id="Vector_26" d="M134.695 94.8398H80.3121V100.54H134.695V94.8398Z" fill="#131144"/>
<path id="Vector_27" d="M122.911 122.585C124.816 122.585 126.36 121.039 126.36 119.131C126.36 117.223 124.816 115.676 122.911 115.676C121.006 115.676 119.462 117.223 119.462 119.131C119.462 121.039 121.006 122.585 122.911 122.585Z" fill="#131144"/>
<path id="Vector_28" d="M111.597 122.585C113.502 122.585 115.046 121.039 115.046 119.131C115.046 117.223 113.502 115.676 111.597 115.676C109.692 115.676 108.148 117.223 108.148 119.131C108.148 121.039 109.692 122.585 111.597 122.585Z" fill="#131144"/>
<path id="Vector_29" d="M122.911 133.73C124.816 133.73 126.36 132.183 126.36 130.275C126.36 128.367 124.816 126.82 122.911 126.82C121.006 126.82 119.462 128.367 119.462 130.275C119.462 132.183 121.006 133.73 122.911 133.73Z" fill="#131144"/>
<path id="Vector_30" d="M111.597 133.73C113.502 133.73 115.046 132.183 115.046 130.275C115.046 128.367 113.502 126.82 111.597 126.82C109.692 126.82 108.148 128.367 108.148 130.275C108.148 132.183 109.692 133.73 111.597 133.73Z" fill="#131144"/>
<path id="Vector_31" d="M55.2549 91.7346H0V45.5449H55.2549V91.7346ZM1.34212 90.3903H53.9128V46.8892H1.34212V90.3903Z" fill="#131144"/>
<path id="Vector_32" d="M23.0441 75.1592H7.69031V76.5035H23.0441V75.1592Z" fill="#131144"/>
<path id="Vector_33" d="M16.2127 78.8154H7.69031V80.1597H16.2127V78.8154Z" fill="#131144"/>
<path id="Vector_34" d="M42.4914 56.7559H27.1376V58.1001H42.4914V56.7559Z" fill="#131144"/>
<path id="Vector_35" d="M35.66 60.4258H27.1376V61.7701H35.66V60.4258Z" fill="#131144"/>
<path id="Vector_36" d="M11.059 56.9033H7.70374V70.2655H11.059V56.9033Z" fill="#61BD73"/>
<path id="Vector_37" d="M17.0583 56.9033H13.703V70.2655H17.0583V56.9033Z" fill="#61BD73"/>
<path id="Vector_38" d="M23.0441 56.9033H19.6888V70.2655H23.0441V56.9033Z" fill="#61BD73"/>
<path id="Vector_39" d="M54.7986 46.1221H0.28186V51.7815H54.7986V46.1221Z" fill="#131144"/>
<path id="Vector_40" d="M42.9879 73.8149C44.8929 73.8149 46.4372 72.2681 46.4372 70.3601C46.4372 68.452 44.8929 66.9053 42.9879 66.9053C41.083 66.9053 39.5387 68.452 39.5387 70.3601C39.5387 72.2681 41.083 73.8149 42.9879 73.8149Z" fill="#131144"/>
<path id="Vector_41" d="M31.674 73.8149C33.5789 73.8149 35.1232 72.2681 35.1232 70.3601C35.1232 68.452 33.5789 66.9053 31.674 66.9053C29.769 66.9053 28.2247 68.452 28.2247 70.3601C28.2247 72.2681 29.769 73.8149 31.674 73.8149Z" fill="#131144"/>
<path id="Vector_42" d="M42.9879 84.9585C44.8929 84.9585 46.4372 83.4117 46.4372 81.5036C46.4372 79.5956 44.8929 78.0488 42.9879 78.0488C41.083 78.0488 39.5387 79.5956 39.5387 81.5036C39.5387 83.4117 41.083 84.9585 42.9879 84.9585Z" fill="#131144"/>
<path id="Vector_43" d="M31.674 84.9585C33.5789 84.9585 35.1232 83.4117 35.1232 81.5036C35.1232 79.5956 33.5789 78.0488 31.674 78.0488C29.769 78.0488 28.2247 79.5956 28.2247 81.5036C28.2247 83.4117 29.769 84.9585 31.674 84.9585Z" fill="#131144"/>
<path id="Vector_44" d="M216 91.7346H160.745V45.5449H216V91.7346ZM162.101 90.3903H214.671V46.8892H162.101V90.3903Z" fill="#131144"/>
<path id="Vector_45" d="M183.789 75.1592H168.435V76.5035H183.789V75.1592Z" fill="#131144"/>
<path id="Vector_46" d="M176.958 78.8154H168.435V80.1597H176.958V78.8154Z" fill="#131144"/>
<path id="Vector_47" d="M203.236 56.7559H187.883V58.1001H203.236V56.7559Z" fill="#131144"/>
<path id="Vector_48" d="M196.405 60.4258H187.883V61.7701H196.405V60.4258Z" fill="#131144"/>
<path id="Vector_49" d="M171.818 56.9033H168.462V70.2655H171.818V56.9033Z" fill="#61BD73"/>
<path id="Vector_50" d="M177.803 56.9033H174.448V70.2655H177.803V56.9033Z" fill="#61BD73"/>
<path id="Vector_51" d="M183.789 56.9033H180.434V70.2655H183.789V56.9033Z" fill="#61BD73"/>
<path id="Vector_52" d="M215.383 46.4043H161.336V51.7814H215.383V46.4043Z" fill="#131144"/>
<path id="Vector_53" d="M203.733 73.8149C205.638 73.8149 207.182 72.2681 207.182 70.3601C207.182 68.452 205.638 66.9053 203.733 66.9053C201.828 66.9053 200.284 68.452 200.284 70.3601C200.284 72.2681 201.828 73.8149 203.733 73.8149Z" fill="#131144"/>
<path id="Vector_54" d="M192.419 73.8149C194.324 73.8149 195.868 72.2681 195.868 70.3601C195.868 68.452 194.324 66.9053 192.419 66.9053C190.514 66.9053 188.97 68.452 188.97 70.3601C188.97 72.2681 190.514 73.8149 192.419 73.8149Z" fill="#131144"/>
<path id="Vector_55" d="M203.733 84.9585C205.638 84.9585 207.182 83.4117 207.182 81.5036C207.182 79.5956 205.638 78.0488 203.733 78.0488C201.828 78.0488 200.284 79.5956 200.284 81.5036C200.284 83.4117 201.828 84.9585 203.733 84.9585Z" fill="#131144"/>
<path id="Vector_56" d="M192.419 84.9585C194.324 84.9585 195.868 83.4117 195.868 81.5036C195.868 79.5956 194.324 78.0488 192.419 78.0488C190.514 78.0488 188.97 79.5956 188.97 81.5036C188.97 83.4117 190.514 84.9585 192.419 84.9585Z" fill="#131144"/>
</g>
<defs>
<clipPath id="clip0_2862_3833">
<rect width="216" height="140.505" fill="white"/>
</clipPath>
</defs>
</svg>
