<svg width="63" height="63" viewBox="0 0 63 63" fill="none" xmlns="http://www.w3.org/2000/svg">
<g clip-path="url(#clip0_6998_347)">
<path d="M21.8103 49.0505L21.1172 48.6498L40.8825 14.1552L41.5757 14.5559L21.8103 49.0505Z" fill="#130C49"/>
<path d="M51.4676 31.2021H11.4062V32.0036H51.4676V31.2021Z" fill="#130C49"/>
<path d="M21.4479 13.6084L20.7539 14.0093L40.8881 48.8688L41.5822 48.4679L21.4479 13.6084Z" fill="#130C49"/>
<path d="M31.4946 63C14.1336 63 0 48.8664 0 31.4946C0 14.1227 14.1336 0 31.4946 0C48.8556 0 62.9892 14.1336 62.9892 31.4946C62.9892 48.8556 48.8556 62.9892 31.4946 62.9892V63ZM31.4946 0.801444C14.5776 0.801444 0.801444 14.5776 0.801444 31.4946C0.801444 48.4116 14.5668 62.1877 31.4946 62.1877C48.4224 62.1877 62.1877 48.4224 62.1877 31.4946C62.1877 14.5668 48.4224 0.801444 31.4946 0.801444Z" fill="#130C49"/>
<path d="M31.4935 35.8592C33.904 35.8592 35.8581 33.9051 35.8581 31.4946C35.8581 29.0841 33.904 27.1299 31.4935 27.1299C29.083 27.1299 27.1289 29.0841 27.1289 31.4946C27.1289 33.9051 29.083 35.8592 31.4935 35.8592Z" fill="#61BD73"/>
<path d="M41.8069 50.1444C40.7022 48.2275 36.565 46.9495 31.5073 46.9495C26.4495 46.9495 22.3123 48.2383 21.2076 50.1444L20.5145 49.7437C21.6192 47.8267 20.6661 43.6029 18.1318 39.2275C15.5975 34.852 12.4242 31.9062 10.2148 31.9062V31.1047C12.4242 31.1047 15.6083 28.1589 18.1318 23.7834C20.6553 19.408 21.6192 15.1733 20.5145 13.2672L21.2076 12.8665C22.3123 14.7834 26.4495 16.0614 31.5073 16.0614C36.565 16.0614 40.7022 14.7726 41.8069 12.8665L42.5 13.2672C41.3954 15.1841 42.3484 19.408 44.8827 23.7834C47.417 28.1589 50.5903 31.1047 52.7997 31.1047V31.9062C50.5903 31.9062 47.4062 34.852 44.8827 39.2275C42.3592 43.6029 41.3954 47.8376 42.5 49.7437L41.8069 50.1444ZM11.9477 31.4946C14.5145 32.621 17.1463 35.9134 18.8141 38.8159C20.4928 41.7184 22.0307 45.639 21.7166 48.4224C23.9802 46.7545 28.1499 46.1372 31.4964 46.1372C34.843 46.1372 39.0127 46.7654 41.2762 48.4224C40.9621 45.6282 42.5109 41.7076 44.1787 38.8159C45.8574 35.9134 48.4784 32.621 51.0452 31.4946C48.4784 30.3683 45.8466 27.0758 44.1787 24.1733C42.5 21.2708 40.9621 17.3502 41.2762 14.5668C39.0127 16.2347 34.843 16.852 31.4964 16.852C28.1499 16.852 23.9802 16.2239 21.7166 14.5668C22.0307 17.361 20.482 21.2816 18.8141 24.1733C17.1354 27.0758 14.5145 30.3683 11.9477 31.4946Z" fill="#130C49"/>
</g>
<defs>
<clipPath id="clip0_6998_347">
<rect width="63" height="63" fill="white"/>
</clipPath>
</defs>
</svg>
