<svg width="63" height="63" viewBox="0 0 63 63" fill="none" xmlns="http://www.w3.org/2000/svg">
<g clip-path="url(#clip0_6998_357)">
<path d="M31.4946 63C14.1336 63 0 48.8664 0 31.4946C0 14.1227 14.1336 0 31.4946 0C48.8556 0 62.9892 14.1336 62.9892 31.4946C62.9892 48.8556 48.8556 62.9892 31.4946 62.9892V63ZM31.4946 0.801444C14.5776 0.801444 0.801444 14.5776 0.801444 31.4946C0.801444 48.4116 14.5668 62.1877 31.4946 62.1877C48.4224 62.1877 62.1877 48.4224 62.1877 31.4946C62.1877 14.5668 48.4224 0.801444 31.4946 0.801444Z" fill="#130C49"/>
<path d="M29.222 54.3466C17.4386 53.1877 8.54688 43.3646 8.54688 31.5054C8.54688 19.6462 17.4061 9.85558 29.157 8.66425L29.2436 9.55233C17.9476 10.7003 9.43496 20.1336 9.43496 31.5054C9.43496 42.8772 17.9801 52.3429 29.3086 53.4585L29.222 54.3466Z" fill="#130C49"/>
<path d="M32.6847 54.4224L32.6413 53.5343C44.3814 52.9386 53.5655 43.2563 53.5655 31.4946C53.5655 19.7328 44.3381 10.0072 32.5547 9.45486L32.598 8.56677C44.8579 9.14078 54.4536 19.213 54.4536 31.4946C54.4536 43.7762 44.8904 53.805 32.6847 54.4224Z" fill="#130C49"/>
<path d="M31.494 46.0397C23.9453 46.0397 17.577 40.1589 16.9922 32.6426L17.8803 32.5776C18.4326 39.6282 24.411 45.1516 31.494 45.1516C38.577 45.1516 44.5554 39.6282 45.1077 32.5776L45.9958 32.6426C45.411 40.148 39.0427 46.0397 31.494 46.0397Z" fill="#130C49"/>
<path d="M45.0113 29.5343C44.0582 22.8737 38.2424 17.8484 31.4951 17.8484C24.7478 17.8484 18.9427 22.8737 17.9788 29.5343L17.1016 29.4043C18.1196 22.3105 24.3146 16.9495 31.4951 16.9495C38.6756 16.9495 44.8705 22.2996 45.8886 29.4043L45.0113 29.5343Z" fill="#130C49"/>
<path d="M31.4935 35.8592C33.904 35.8592 35.8581 33.9051 35.8581 31.4946C35.8581 29.0841 33.904 27.1299 31.4935 27.1299C29.083 27.1299 27.1289 29.0841 27.1289 31.4946C27.1289 33.9051 29.083 35.8592 31.4935 35.8592Z" fill="#61BD73"/>
</g>
<defs>
<clipPath id="clip0_6998_357">
<rect width="63" height="63" fill="white"/>
</clipPath>
</defs>
</svg>
