<svg width="63" height="63" viewBox="0 0 63 63" fill="none" xmlns="http://www.w3.org/2000/svg">
<g clip-path="url(#clip0_6998_367)">
<path d="M31.4946 63C14.1336 63 0 48.8664 0 31.4946C0 14.1227 14.1336 0 31.4946 0C48.8556 0 62.9892 14.1336 62.9892 31.4946C62.9892 48.8556 48.8556 62.9892 31.4946 62.9892V63ZM31.4946 0.801444C14.5776 0.801444 0.801444 14.5776 0.801444 31.4946C0.801444 48.4116 14.5668 62.1877 31.4946 62.1877C48.4224 62.1877 62.1877 48.4224 62.1877 31.4946C62.1877 14.5668 48.4224 0.801444 31.4946 0.801444Z" fill="#130C49"/>
<path d="M31.5049 47.2311C23.0031 47.2311 15.8334 40.6029 15.1836 32.1444L15.985 32.0794C16.6132 40.1264 23.4363 46.4296 31.5157 46.4296C39.5951 46.4296 46.4074 40.1264 47.0356 32.0903L47.837 32.1552C47.1764 40.6137 40.0067 47.2311 31.5157 47.2311H31.5049Z" fill="#130C49"/>
<path d="M46.9184 28.6245C45.8245 21.0217 39.1964 15.2924 31.5069 15.2924C23.8173 15.2924 17.1892 21.0217 16.0953 28.6245L15.3047 28.5054C16.4527 20.5126 23.4274 14.491 31.5177 14.491C39.6079 14.491 46.5718 20.5235 47.7307 28.5162L46.9401 28.6354L46.9184 28.6245Z" fill="#130C49"/>
<path d="M31.7204 35.8159C34.1549 35.8159 36.1284 33.8424 36.1284 31.4079C36.1284 28.9735 34.1549 27 31.7204 27C29.286 27 27.3125 28.9735 27.3125 31.4079C27.3125 33.8424 29.286 35.8159 31.7204 35.8159Z" fill="#61BD73"/>
<path d="M43.1579 24.1949C45.5924 24.1949 47.5659 22.2214 47.5659 19.787C47.5659 17.3526 45.5924 15.3791 43.1579 15.3791C40.7235 15.3791 38.75 17.3526 38.75 19.787C38.75 22.2214 40.7235 24.1949 43.1579 24.1949Z" fill="#61BD73"/>
<path d="M43.1579 47.0902C45.5924 47.0902 47.5659 45.1167 47.5659 42.6823C47.5659 40.2479 45.5924 38.2744 43.1579 38.2744C40.7235 38.2744 38.75 40.2479 38.75 42.6823C38.75 45.1167 40.7235 47.0902 43.1579 47.0902Z" fill="#61BD73"/>
<path d="M20.4353 47.0902C22.8697 47.0902 24.8432 45.1167 24.8432 42.6823C24.8432 40.2479 22.8697 38.2744 20.4353 38.2744C18.0008 38.2744 16.0273 40.2479 16.0273 42.6823C16.0273 45.1167 18.0008 47.0902 20.4353 47.0902Z" fill="#61BD73"/>
<path d="M20.4353 24.1949C22.8697 24.1949 24.8432 22.2214 24.8432 19.787C24.8432 17.3526 22.8697 15.3791 20.4353 15.3791C18.0008 15.3791 16.0273 17.3526 16.0273 19.787C16.0273 22.2214 18.0008 24.1949 20.4353 24.1949Z" fill="#61BD73"/>
</g>
<defs>
<clipPath id="clip0_6998_367">
<rect width="63" height="63" fill="white"/>
</clipPath>
</defs>
</svg>
