<svg width="63" height="63" viewBox="0 0 63 63" fill="none" xmlns="http://www.w3.org/2000/svg">
<g clip-path="url(#clip0_6998_378)">
<path d="M31.4946 63C14.1336 63 0 48.8664 0 31.4946C0 14.1227 14.1336 0 31.4946 0C48.8556 0 62.9892 14.1336 62.9892 31.4946C62.9892 48.8556 48.8556 62.9892 31.4946 62.9892V63ZM31.4946 0.801444C14.5776 0.801444 0.801444 14.5776 0.801444 31.4946C0.801444 48.4116 14.5668 62.1877 31.4946 62.1877C48.4224 62.1877 62.1877 48.4224 62.1877 31.4946C62.1877 14.5668 48.4224 0.801444 31.4946 0.801444Z" fill="#130C49"/>
<path d="M18.4236 25.4404C20.858 25.4404 22.8315 23.4669 22.8315 21.0325C22.8315 18.598 20.858 16.6245 18.4236 16.6245C15.9891 16.6245 14.0156 18.598 14.0156 21.0325C14.0156 23.4669 15.9891 25.4404 18.4236 25.4404Z" fill="#61BD73"/>
<path d="M44.8142 25.4404C47.2486 25.4404 49.2221 23.4669 49.2221 21.0325C49.2221 18.598 47.2486 16.6245 44.8142 16.6245C42.3798 16.6245 40.4062 18.598 40.4062 21.0325C40.4062 23.4669 42.3798 25.4404 44.8142 25.4404Z" fill="#61BD73"/>
<path d="M44.8142 45.2274C47.2486 45.2274 49.2221 43.2539 49.2221 40.8195C49.2221 38.3851 47.2486 36.4116 44.8142 36.4116C42.3798 36.4116 40.4062 38.3851 40.4062 40.8195C40.4062 43.2539 42.3798 45.2274 44.8142 45.2274Z" fill="#61BD73"/>
<path d="M18.4236 45.2274C20.858 45.2274 22.8315 43.2539 22.8315 40.8195C22.8315 38.3851 20.858 36.4116 18.4236 36.4116C15.9891 36.4116 14.0156 38.3851 14.0156 40.8195C14.0156 43.2539 15.9891 45.2274 18.4236 45.2274Z" fill="#61BD73"/>
<path d="M38.4466 20.6318H24.6055V21.4332H38.4466V20.6318Z" fill="#130C49"/>
<path d="M18.8249 26.9892H18.0234V34.7112H18.8249V26.9892Z" fill="#130C49"/>
<path d="M45.2155 26.9892H44.4141V34.7112H45.2155V26.9892Z" fill="#130C49"/>
<path d="M38.4466 40.4188H24.6055V41.2202H38.4466V40.4188Z" fill="#130C49"/>
</g>
<defs>
<clipPath id="clip0_6998_378">
<rect width="63" height="63" fill="white"/>
</clipPath>
</defs>
</svg>
