<svg width="232" height="63" viewBox="0 0 232 63" fill="none" xmlns="http://www.w3.org/2000/svg">
<g id="Layer_1" clip-path="url(#clip0_44_7993)">
<path id="Vector" d="M28.2304 9.51346C30.7927 9.51346 32.8699 7.43626 32.8699 4.87392C32.8699 2.31157 30.7927 0.234375 28.2304 0.234375C25.668 0.234375 23.5908 2.31157 23.5908 4.87392C23.5908 7.43626 25.668 9.51346 28.2304 9.51346Z" fill="#131144"/>
<path id="Vector_2" d="M97.1137 29.4661C99.676 29.4661 101.753 27.3889 101.753 24.8266C101.753 22.2642 99.676 20.187 97.1137 20.187C94.5513 20.187 92.4741 22.2642 92.4741 24.8266C92.4741 27.3889 94.5513 29.4661 97.1137 29.4661Z" fill="#131144"/>
<path id="Vector_3" d="M159.215 15.6741C161.777 15.6741 163.854 13.5969 163.854 11.0346C163.854 8.47221 161.777 6.39502 159.215 6.39502C156.652 6.39502 154.575 8.47221 154.575 11.0346C154.575 13.5969 156.652 15.6741 159.215 15.6741Z" fill="#131144"/>
<path id="Vector_4" d="M24.7567 22.4431C27.3191 22.4431 29.3963 20.366 29.3963 17.8036C29.3963 15.2413 27.3191 13.1641 24.7567 13.1641C22.1944 13.1641 20.1172 15.2413 20.1172 17.8036C20.1172 20.366 22.1944 22.4431 24.7567 22.4431Z" fill="#61BD73"/>
<path id="Vector_5" d="M24.757 22.9124C21.9429 22.9124 19.6484 20.618 19.6484 17.8039C19.6484 14.9897 21.9429 12.6953 24.757 12.6953C27.5712 12.6953 29.8656 14.9897 29.8656 17.8039C29.8656 20.618 27.5712 22.9124 24.757 22.9124ZM24.757 13.646C22.4626 13.646 20.5992 15.5095 20.5992 17.8039C20.5992 20.0983 22.4626 21.9617 24.757 21.9617C27.0514 21.9617 28.9148 20.0983 28.9148 17.8039C28.9148 15.5095 27.0514 13.646 24.757 13.646Z" fill="#131144"/>
<path id="Vector_6" d="M15.2621 15.6487C17.8244 15.6487 19.9016 13.5715 19.9016 11.0092C19.9016 8.44682 17.8244 6.36963 15.2621 6.36963C12.6998 6.36963 10.6226 8.44682 10.6226 11.0092C10.6226 13.5715 12.6998 15.6487 15.2621 15.6487Z" fill="#61BD73"/>
<path id="Vector_7" d="M15.2624 16.1307C12.4482 16.1307 10.1538 13.8363 10.1538 11.0221C10.1538 8.20799 12.4482 5.91357 15.2624 5.91357C18.0765 5.91357 20.3709 8.20799 20.3709 11.0221C20.3709 13.8363 18.0765 16.1307 15.2624 16.1307ZM15.2624 6.85162C12.968 6.85162 11.1045 8.71505 11.1045 11.0095C11.1045 13.3039 12.968 15.1673 15.2624 15.1673C17.5568 15.1673 19.4202 13.3039 19.4202 11.0095C19.4202 8.71505 17.5568 6.85162 15.2624 6.85162Z" fill="#131144"/>
<path id="Vector_8" d="M5.10878 23.7742C7.67113 23.7742 9.74832 21.697 9.74832 19.1347C9.74832 16.5723 7.67113 14.4951 5.10878 14.4951C2.54643 14.4951 0.469238 16.5723 0.469238 19.1347C0.469238 21.697 2.54643 23.7742 5.10878 23.7742Z" fill="#61BD73"/>
<path id="Vector_9" d="M5.10857 24.2435C2.29442 24.2435 0 21.9491 0 19.1349C0 16.3208 2.29442 14.0264 5.10857 14.0264C7.92272 14.0264 10.2171 16.3208 10.2171 19.1349C10.2171 21.9491 7.92272 24.2435 5.10857 24.2435ZM5.10857 14.9644C2.81415 14.9644 0.950726 16.8278 0.950726 19.1223C0.950726 21.4167 2.81415 23.2801 5.10857 23.2801C7.40299 23.2801 9.26641 21.4167 9.26641 19.1223C9.26641 16.8278 7.40299 14.9644 5.10857 14.9644Z" fill="#131144"/>
<path id="Vector_10" d="M36.9008 32.4197C39.4631 32.4197 41.5403 30.3425 41.5403 27.7802C41.5403 25.2178 39.4631 23.1406 36.9008 23.1406C34.3384 23.1406 32.2612 25.2178 32.2612 27.7802C32.2612 30.3425 34.3384 32.4197 36.9008 32.4197Z" fill="#61BD73"/>
<path id="Vector_11" d="M36.901 32.9012C34.0869 32.9012 31.7925 30.6068 31.7925 27.7926C31.7925 24.9785 34.0869 22.6841 36.901 22.6841C39.7152 22.6841 42.0096 24.9785 42.0096 27.7926C42.0096 30.6068 39.7152 32.9012 36.901 32.9012ZM36.901 23.6221C34.6066 23.6221 32.7432 25.4856 32.7432 27.78C32.7432 30.0744 34.6066 31.9378 36.901 31.9378C39.1955 31.9378 41.0589 30.0744 41.0589 27.78C41.0589 25.4856 39.1955 23.6221 36.901 23.6221Z" fill="#131144"/>
<path id="Vector_12" d="M97.1137 15.6614C99.676 15.6614 101.753 13.5842 101.753 11.0219C101.753 8.45952 99.676 6.38232 97.1137 6.38232C94.5513 6.38232 92.4741 8.45952 92.4741 11.0219C92.4741 13.5842 94.5513 15.6614 97.1137 15.6614Z" fill="#61BD73"/>
<path id="Vector_13" d="M97.1134 16.1307C94.2993 16.1307 92.0049 13.8363 92.0049 11.0221C92.0049 8.20799 94.2993 5.91357 97.1134 5.91357C99.9276 5.91357 102.222 8.20799 102.222 11.0221C102.222 13.8363 99.9276 16.1307 97.1134 16.1307ZM97.1134 6.8643C94.819 6.8643 92.9556 8.72772 92.9556 11.0221C92.9556 13.3166 94.819 15.18 97.1134 15.18C99.4079 15.18 101.271 13.3166 101.271 11.0221C101.271 8.72772 99.4079 6.8643 97.1134 6.8643Z" fill="#131144"/>
<path id="Vector_14" d="M159.215 29.4407C161.777 29.4407 163.854 27.3635 163.854 24.8012C163.854 22.2388 161.777 20.1616 159.215 20.1616C156.652 20.1616 154.575 22.2388 154.575 24.8012C154.575 27.3635 156.652 29.4407 159.215 29.4407Z" fill="#61BD73"/>
<path id="Vector_15" d="M159.215 29.9095C156.401 29.9095 154.106 27.6151 154.106 24.8009C154.106 21.9868 156.401 19.6924 159.215 19.6924C162.029 19.6924 164.324 21.9868 164.324 24.8009C164.324 27.6151 162.029 29.9095 159.215 29.9095ZM159.215 20.6431C156.921 20.6431 155.057 22.5065 155.057 24.8009C155.057 27.0954 156.921 28.9588 159.215 28.9588C161.509 28.9588 163.373 27.0954 163.373 24.8009C163.373 22.5065 161.509 20.6431 159.215 20.6431Z" fill="#131144"/>
<path id="Vector_16" d="M8.13808 51.7259C10.7004 51.7259 12.7776 49.6487 12.7776 47.0863C12.7776 44.524 10.7004 42.4468 8.13808 42.4468C5.57573 42.4468 3.49854 44.524 3.49854 47.0863C3.49854 49.6487 5.57573 51.7259 8.13808 51.7259Z" fill="#61BD73"/>
<path id="Vector_17" d="M8.13835 52.2074C5.3242 52.2074 3.02979 49.913 3.02979 47.0988C3.02979 44.2847 5.3242 41.9902 8.13835 41.9902C10.9525 41.9902 13.2469 44.2847 13.2469 47.0988C13.2469 49.913 10.9525 52.2074 8.13835 52.2074ZM8.13835 42.9283C5.84393 42.9283 3.98051 44.7917 3.98051 47.0861C3.98051 49.3805 5.84393 51.244 8.13835 51.244C10.4328 51.244 12.2962 49.3805 12.2962 47.0861C12.2962 44.7917 10.4328 42.9283 8.13835 42.9283Z" fill="#131144"/>
<path id="Vector_18" d="M18.9892 60.574C21.5515 60.574 23.6287 58.4968 23.6287 55.9345C23.6287 53.3721 21.5515 51.2949 18.9892 51.2949C16.4268 51.2949 14.3496 53.3721 14.3496 55.9345C14.3496 58.4968 16.4268 60.574 18.9892 60.574Z" fill="#A590DD"/>
<path id="Vector_19" d="M18.9889 61.0428C16.1748 61.0428 13.8804 58.7484 13.8804 55.9342C13.8804 53.1201 16.1748 50.8257 18.9889 50.8257C21.8031 50.8257 24.0975 53.1201 24.0975 55.9342C24.0975 58.7484 21.8031 61.0428 18.9889 61.0428ZM18.9889 51.7764C16.6945 51.7764 14.8311 53.6398 14.8311 55.9342C14.8311 58.2287 16.6945 60.0921 18.9889 60.0921C21.2834 60.0921 23.1468 58.2287 23.1468 55.9342C23.1468 53.6398 21.2834 51.7764 18.9889 51.7764Z" fill="#131144"/>
<path id="Vector_20" d="M28.4076 50.2044C30.97 50.2044 33.0471 48.1272 33.0471 45.5648C33.0471 43.0025 30.97 40.9253 28.4076 40.9253C25.8453 40.9253 23.7681 43.0025 23.7681 45.5648C23.7681 48.1272 25.8453 50.2044 28.4076 50.2044Z" fill="#A590DD"/>
<path id="Vector_21" d="M28.4079 50.6737C25.5937 50.6737 23.2993 48.3793 23.2993 45.5651C23.2993 42.751 25.5937 40.4565 28.4079 40.4565C31.222 40.4565 33.5165 42.751 33.5165 45.5651C33.5165 48.3793 31.222 50.6737 28.4079 50.6737ZM28.4079 41.3946C26.1135 41.3946 24.25 43.258 24.25 45.5524C24.25 47.8469 26.1135 49.7103 28.4079 49.7103C30.7023 49.7103 32.5657 47.8469 32.5657 45.5524C32.5657 43.258 30.7023 41.3946 28.4079 41.3946Z" fill="#131144"/>
<path id="Vector_22" d="M97.1137 43.2581C99.676 43.2581 101.753 41.1809 101.753 38.6185C101.753 36.0562 99.676 33.979 97.1137 33.979C94.5513 33.979 92.4741 36.0562 92.4741 38.6185C92.4741 41.1809 94.5513 43.2581 97.1137 43.2581Z" fill="#A590DD"/>
<path id="Vector_23" d="M97.1134 43.7396C94.2993 43.7396 92.0049 41.4452 92.0049 38.631C92.0049 35.8169 94.2993 33.5225 97.1134 33.5225C99.9276 33.5225 102.222 35.8169 102.222 38.631C102.222 41.4452 99.9276 43.7396 97.1134 43.7396ZM97.1134 34.4605C94.819 34.4605 92.9556 36.3239 92.9556 38.6184C92.9556 40.9128 94.819 42.7762 97.1134 42.7762C99.4079 42.7762 101.271 40.9128 101.271 38.6184C101.271 36.3239 99.4079 34.4605 97.1134 34.4605Z" fill="#131144"/>
<path id="Vector_24" d="M159.215 56.9866C161.777 56.9866 163.854 54.9094 163.854 52.3471C163.854 49.7847 161.777 47.7075 159.215 47.7075C156.652 47.7075 154.575 49.7847 154.575 52.3471C154.575 54.9094 156.652 56.9866 159.215 56.9866Z" fill="#A590DD"/>
<path id="Vector_25" d="M159.215 57.4554C156.401 57.4554 154.106 55.161 154.106 52.3468C154.106 49.5327 156.401 47.2383 159.215 47.2383C162.029 47.2383 164.324 49.5327 164.324 52.3468C164.324 55.161 162.029 57.4554 159.215 57.4554ZM159.215 48.189C156.921 48.189 155.057 50.0524 155.057 52.3468C155.057 54.6413 156.921 56.5047 159.215 56.5047C161.509 56.5047 163.373 54.6413 163.373 52.3468C163.373 50.0524 161.509 48.189 159.215 48.189Z" fill="#131144"/>
<path id="Vector_26" d="M35.0248 20.9602C37.5871 20.9602 39.6643 18.883 39.6643 16.3207C39.6643 13.7583 37.5871 11.6812 35.0248 11.6812C32.4624 11.6812 30.3853 13.7583 30.3853 16.3207C30.3853 18.883 32.4624 20.9602 35.0248 20.9602Z" fill="#131144"/>
<path id="Vector_27" d="M37.2938 45.6028C39.8562 45.6028 41.9334 43.5256 41.9334 40.9633C41.9334 38.4009 39.8562 36.3237 37.2938 36.3237C34.7315 36.3237 32.6543 38.4009 32.6543 40.9633C32.6543 43.5256 34.7315 45.6028 37.2938 45.6028Z" fill="#131144"/>
<path id="Vector_28" d="M25.974 36.2859C28.5364 36.2859 30.6136 34.2087 30.6136 31.6464C30.6136 29.084 28.5364 27.0068 25.974 27.0068C23.4117 27.0068 21.3345 29.084 21.3345 31.6464C21.3345 34.2087 23.4117 36.2859 25.974 36.2859Z" fill="#131144"/>
<path id="Vector_29" d="M18.8622 45.4256C21.4245 45.4256 23.5017 43.3484 23.5017 40.786C23.5017 38.2237 21.4245 36.1465 18.8622 36.1465C16.2998 36.1465 14.2227 38.2237 14.2227 40.786C14.2227 43.3484 16.2998 45.4256 18.8622 45.4256Z" fill="#131144"/>
<path id="Vector_30" d="M16.4794 30.2771C19.0417 30.2771 21.1189 28.1999 21.1189 25.6376C21.1189 23.0752 19.0417 20.998 16.4794 20.998C13.917 20.998 11.8398 23.0752 11.8398 25.6376C11.8398 28.1999 13.917 30.2771 16.4794 30.2771Z" fill="#131144"/>
<path id="Vector_31" d="M7.60585 38.0608C10.1682 38.0608 12.2454 35.9836 12.2454 33.4213C12.2454 30.8589 10.1682 28.7817 7.60585 28.7817C5.0435 28.7817 2.96631 30.8589 2.96631 33.4213C2.96631 35.9836 5.0435 38.0608 7.60585 38.0608Z" fill="#55CBDE"/>
<path id="Vector_32" d="M7.60564 38.5296C4.79149 38.5296 2.49707 36.2352 2.49707 33.4211C2.49707 30.6069 4.79149 28.3125 7.60564 28.3125C10.4198 28.3125 12.7142 30.6069 12.7142 33.4211C12.7142 36.2352 10.4198 38.5296 7.60564 38.5296ZM7.60564 29.2505C5.31122 29.2505 3.4478 31.114 3.4478 33.4084C3.4478 35.7028 5.31122 37.5662 7.60564 37.5662C9.90005 37.5662 11.7635 35.7028 11.7635 33.4084C11.7635 31.114 9.90005 29.2505 7.60564 29.2505Z" fill="#131144"/>
<path id="Vector_33" d="M35.2401 61.7654C37.8025 61.7654 39.8797 59.6882 39.8797 57.1259C39.8797 54.5635 37.8025 52.4863 35.2401 52.4863C32.6778 52.4863 30.6006 54.5635 30.6006 57.1259C30.6006 59.6882 32.6778 61.7654 35.2401 61.7654Z" fill="#55CBDE"/>
<path id="Vector_34" d="M35.2404 62.2342C32.4263 62.2342 30.1318 59.9398 30.1318 57.1257C30.1318 54.3115 32.4263 52.0171 35.2404 52.0171C38.0545 52.0171 40.349 54.3115 40.349 57.1257C40.349 59.9398 38.0545 62.2342 35.2404 62.2342ZM35.2404 52.9551C32.946 52.9551 31.0826 54.8186 31.0826 57.113C31.0826 59.4074 32.946 61.2708 35.2404 61.2708C37.5348 61.2708 39.3982 59.4074 39.3982 57.113C39.3982 54.8186 37.5348 52.9551 35.2404 52.9551Z" fill="#131144"/>
<path id="Vector_35" d="M97.1137 57.0623C99.676 57.0623 101.753 54.9851 101.753 52.4227C101.753 49.8604 99.676 47.7832 97.1137 47.7832C94.5513 47.7832 92.4741 49.8604 92.4741 52.4227C92.4741 54.9851 94.5513 57.0623 97.1137 57.0623Z" fill="#55CBDE"/>
<path id="Vector_36" d="M97.1134 57.5316C94.2993 57.5316 92.0049 55.2372 92.0049 52.423C92.0049 49.6089 94.2993 47.3145 97.1134 47.3145C99.9276 47.3145 102.222 49.6089 102.222 52.423C102.222 55.2372 99.9276 57.5316 97.1134 57.5316ZM97.1134 48.2652C94.819 48.2652 92.9556 50.1286 92.9556 52.423C92.9556 54.7174 94.819 56.5809 97.1134 56.5809C99.4079 56.5809 101.271 54.7174 101.271 52.423C101.271 50.1286 99.4079 48.2652 97.1134 48.2652Z" fill="#131144"/>
<path id="Vector_37" d="M159.215 43.22C161.777 43.22 163.854 41.1428 163.854 38.5805C163.854 36.0181 161.777 33.9409 159.215 33.9409C156.652 33.9409 154.575 36.0181 154.575 38.5805C154.575 41.1428 156.652 43.22 159.215 43.22Z" fill="#55CBDE"/>
<path id="Vector_38" d="M159.215 43.6888C156.401 43.6888 154.106 41.3944 154.106 38.5802C154.106 35.7661 156.401 33.4717 159.215 33.4717C162.029 33.4717 164.324 35.7661 164.324 38.5802C164.324 41.3944 162.029 43.6888 159.215 43.6888ZM159.215 34.4224C156.921 34.4224 155.057 36.2858 155.057 38.5802C155.057 40.8747 156.921 42.7381 159.215 42.7381C161.509 42.7381 163.373 40.8747 163.373 38.5802C163.373 36.2858 161.509 34.4224 159.215 34.4224Z" fill="#131144"/>
<path id="Vector_39" d="M221.722 40.7101C226.923 40.7101 231.14 36.4933 231.14 31.2916C231.14 26.0899 226.923 21.873 221.722 21.873C216.52 21.873 212.303 26.0899 212.303 31.2916C212.303 36.4933 216.52 40.7101 221.722 40.7101Z" fill="#61BD73"/>
<path id="Vector_40" d="M221.722 41.1916C216.271 41.1916 211.822 36.7548 211.822 31.2913C211.822 25.8278 216.258 21.3911 221.722 21.3911C227.186 21.3911 231.622 25.8278 231.622 31.2913C231.622 36.7548 227.186 41.1916 221.722 41.1916ZM221.722 22.3545C216.791 22.3545 212.773 26.3729 212.773 31.304C212.773 36.2351 216.791 40.2535 221.722 40.2535C226.653 40.2535 230.671 36.2351 230.671 31.304C230.671 26.3729 226.653 22.3545 221.722 22.3545Z" fill="#131144"/>
<path id="Vector_41" d="M222.723 27.3238L225.728 33.5226C225.855 33.7761 225.918 33.9662 225.918 34.093C225.918 34.3592 225.702 34.6001 225.271 34.8156C225.018 34.9423 224.815 35.0057 224.676 35.0057C224.536 35.0057 224.409 34.9677 224.321 34.9043C224.232 34.8409 224.156 34.7648 224.118 34.6888C224.08 34.6127 224.016 34.4986 223.94 34.3592L223.357 33.155H220.277L219.694 34.3592C219.618 34.5113 219.567 34.6127 219.516 34.6761C219.466 34.7395 219.415 34.8156 219.314 34.8789C219.225 34.955 219.098 34.9803 218.959 34.9803C218.819 34.9803 218.616 34.917 218.363 34.7902C217.932 34.5874 217.716 34.3465 217.716 34.0803C217.716 33.9536 217.78 33.7634 217.906 33.5099L220.911 27.2985C220.987 27.1337 221.114 26.9943 221.278 26.8928C221.443 26.7914 221.621 26.7407 221.811 26.7407C222.216 26.7407 222.508 26.9309 222.698 27.3238H222.723ZM221.823 29.9985L221.088 31.5197H222.571L221.823 29.9985Z" fill="#131144"/>
<path id="Vector_42" d="M82.9415 18.9698L50.7183 10.1344L50.9718 9.22168L83.1951 18.0571L82.9415 18.9698Z" fill="#131144"/>
<path id="Vector_43" d="M80.2285 20.5546L79.9116 19.9715L82.8272 18.4504L81.1032 15.6616L81.661 15.3066L83.7652 18.7039L80.2285 20.5546Z" fill="#131144"/>
<path id="Vector_44" d="M50.9718 53.8301L50.7183 52.9174L82.9415 44.082L83.1951 44.9947L50.9718 53.8301Z" fill="#131144"/>
<path id="Vector_45" d="M81.661 47.7451L81.1032 47.3901L82.8272 44.6013L79.9116 43.0802L80.2285 42.4971L83.7652 44.3478L81.661 47.7451Z" fill="#131144"/>
<path id="Vector_46" d="M84.2596 31.0508H50.8447V32.0015H84.2596V31.0508Z" fill="#131144"/>
<path id="Vector_47" d="M82.054 34.2448L81.5977 33.7631L84.0062 31.5194L81.5977 29.2883L82.054 28.8066L84.9822 31.5194L82.054 34.2448Z" fill="#131144"/>
<path id="Vector_48" d="M146.906 31.0508H113.491V32.0015H146.906V31.0508Z" fill="#131144"/>
<path id="Vector_49" d="M144.7 34.2448L144.244 33.7631L146.653 31.5194L144.244 29.2883L144.7 28.8066L147.629 31.5194L144.7 34.2448Z" fill="#131144"/>
<path id="Vector_50" d="M204.482 31.0508H171.067V32.0015H204.482V31.0508Z" fill="#131144"/>
<path id="Vector_51" d="M202.277 34.2448L201.82 33.7631L204.229 31.5194L201.82 29.2883L202.277 28.8066L205.205 31.5194L202.277 34.2448Z" fill="#131144"/>
</g>
<defs>
<clipPath id="clip0_44_7993">
<rect width="231.622" height="62" fill="white" transform="translate(0 0.234375)"/>
</clipPath>
</defs>
</svg>
