<svg width="37" height="37" viewBox="0 0 37 37" fill="none" xmlns="http://www.w3.org/2000/svg">
<path d="M28.6687 0H8.32125C3.72503 0 0 3.73 0 8.32V28.68C0 33.28 3.72503 37 8.32125 37H28.6788C33.275 37 37 33.27 37 28.68V8.32C37 3.72 33.275 0 28.6788 0H28.6687Z" fill="#ECF4F8"/>
<path d="M16.484 24.2L14.1008 30.16C9.39441 28.39 6.03988 23.85 6.01985 18.54L12.4485 18.5C12.4485 21.13 14.1308 23.36 16.484 24.2Z" fill="#61D384"/>
<path d="M14.6598 31.45L13.7386 31.1C8.53152 29.14 5.02679 24.1 5.00676 18.55V17.55L13.4382 17.5V18.51C13.4382 20.64 14.79 22.55 16.8027 23.27L17.784 23.62L14.6498 31.45H14.6598ZM7.06955 19.54C7.44005 23.54 9.9234 27.11 13.5483 28.84L15.1905 24.72C13.2078 23.67 11.836 21.72 11.5156 19.5L7.05953 19.53L7.06955 19.54Z" fill="#ECF4F8"/>
<path d="M30.9722 18.5109C30.9722 25.3909 25.3846 30.9709 18.4853 30.9709C16.9332 30.9709 15.4512 30.6909 14.0894 30.1709L16.4726 24.2109C17.1034 24.4309 17.7843 24.5509 18.4853 24.5509C21.8398 24.5509 24.5435 21.8509 24.5435 18.5109C24.5435 16.4609 23.5321 14.6509 21.98 13.5609L25.4247 8.13086C28.7792 10.3709 30.9822 14.1809 30.9822 18.5109H30.9722Z" fill="#61D384"/>
<path d="M18.4945 31.9707C16.8623 31.9707 15.2601 31.6807 13.7381 31.1007L12.7868 30.7407L15.901 22.9407L16.8022 23.2607C17.343 23.4507 17.9037 23.5407 18.4845 23.5407C21.2683 23.5407 23.5413 21.2807 23.5413 18.5007C23.5413 16.8507 22.7403 15.3107 21.3984 14.3707L20.6174 13.8207L25.1235 6.7207L25.9746 7.2907C29.7297 9.8007 31.9727 13.9907 31.9727 18.5007C31.9727 25.9207 25.9246 31.9607 18.4845 31.9607L18.4945 31.9707ZM15.4204 29.5507C16.4117 29.8307 17.4431 29.9707 18.4945 29.9707C24.8231 29.9707 29.98 24.8307 29.98 18.5107C29.98 15.0107 28.3979 11.7407 25.7043 9.5707L23.311 13.3407C24.7329 14.6607 25.5541 16.5307 25.5541 18.5007C25.5541 22.3807 22.3898 25.5407 18.4945 25.5407C18.0139 25.5407 17.5432 25.4907 17.0826 25.4007L15.4204 29.5407V29.5507Z" fill="#ECF4F8"/>
<path d="M25.4258 8.12906L21.9811 13.5591C21.0098 12.8691 19.8182 12.4591 18.5364 12.4591L18.4664 6.03906H18.4964C21.0599 6.03906 23.4431 6.80906 25.4258 8.13906V8.12906Z" fill="#130C49"/>
<path d="M22.2598 14.9793L21.3986 14.3693C20.5575 13.7693 19.5561 13.4593 18.5247 13.4493H17.5434L17.4533 5.0293H18.4646C21.1783 5.0293 23.7618 5.8093 25.9748 7.2993L26.7859 7.8393L22.2598 14.9793ZM19.5261 11.5293C20.2671 11.6393 20.9881 11.8593 21.659 12.1993L24.0322 8.4593C22.6303 7.6793 21.0782 7.2193 19.476 7.0793L19.5261 11.5293Z" fill="#ECF4F8"/>
<path d="M18.5368 12.4493H18.4967C15.1522 12.4493 12.4485 15.1493 12.4485 18.4993L6.01985 18.5393V18.4993C6.01985 11.6193 11.5874 6.0493 18.4667 6.0293L18.5368 12.4493Z" fill="#130C49"/>
<path d="M5.01849 19.5493V18.5393C5.01849 11.0893 11.0466 5.0493 18.4667 5.0293H19.458L19.5481 13.4493H18.4967C15.7129 13.4493 13.4499 15.7193 13.4499 18.4993V19.4893L5.01849 19.5393V19.5493ZM17.4753 7.0793C11.9479 7.5693 7.52188 12.0093 7.06125 17.5393L11.5173 17.5093C11.9579 14.4093 14.4212 11.9493 17.5254 11.5193L17.4753 7.0793Z" fill="#ECF4F8"/>
<path d="M18.4958 20.4201C19.5572 20.4201 20.4184 19.5601 20.4184 18.5001C20.4184 17.4401 19.5572 16.5801 18.4958 16.5801C17.4343 16.5801 16.5732 17.4401 16.5732 18.5001C16.5732 19.5601 17.4343 20.4201 18.4958 20.4201Z" fill="#130C49"/>
</svg>
