<svg width="83" height="99" viewBox="0 0 83 99" fill="none" xmlns="http://www.w3.org/2000/svg">
<g id="Group">
<g id="Group_2">
<path id="Vector" d="M40.0363 57.4661C24.2061 57.4661 11.3398 44.5834 11.3398 28.733C11.3398 12.8826 24.2061 0 40.0363 0C55.8664 0 68.7327 12.8826 68.7327 28.733C68.7327 44.5834 55.8664 57.4661 40.0363 57.4661ZM40.0363 2.24828C25.4411 2.24828 13.5853 14.1417 13.5853 28.733C13.5853 43.3244 25.4635 55.2178 40.0363 55.2178C54.609 55.2178 66.4873 43.3244 66.4873 28.733C66.4873 14.1417 54.609 2.24828 40.0363 2.24828Z" fill="white"/>
<path id="Vector_2" d="M82.3618 97.2831H80.1389C80.1389 75.767 62.6471 58.2754 41.1809 58.2754C19.7148 58.2754 2.22297 75.7895 2.22297 97.2831H0C0 74.5305 18.4798 56.0271 41.2034 56.0271C63.927 56.0271 82.4068 74.5305 82.4068 97.2831H82.3618Z" fill="white"/>
</g>
<g id="Group_3">
<path id="Vector_3" d="M50.0697 92.5391L57.3224 96.3612L55.9302 88.2898L61.7908 82.5792L53.7073 81.3876L50.0697 74.0582L46.4546 81.3876L38.3711 82.5792L44.2092 88.2898L42.8395 96.3612L50.0697 92.5391Z" fill="#61BB73"/>
<path id="Vector_4" d="M58.8056 98.4071L50.0934 93.8206L41.3812 98.4071L43.0428 88.6721L35.9922 81.7923L45.7373 80.3759L50.0934 71.5177L54.4495 80.3759L64.1946 81.7923L57.144 88.6721L58.8056 98.4071ZM40.7525 83.3437L45.4005 87.8852L44.3002 94.3153L50.0485 91.2801L55.7967 94.3153L54.6965 87.9077L59.367 83.3662L52.9226 82.4219L50.0485 76.5763L47.1743 82.4219L40.73 83.3662L40.7525 83.3437Z" fill="#61BB73"/>
</g>
</g>
</svg>
