<svg width="107" height="93" viewBox="0 0 107 93" fill="none" xmlns="http://www.w3.org/2000/svg">
<g id="Group">
<path id="Vector" d="M106.635 92.9439H0V8.61084H106.635V92.9439ZM2.26787 90.6956H104.412V10.8591H2.26787V90.6956Z" fill="white"/>
<g id="Group_2">
<path id="Vector_2" d="M32.269 36.8718H14.3281V54.8356H32.269V36.8718Z" fill="#61BB73"/>
<path id="Vector_3" d="M62.312 36.8718H44.3711V54.8356H62.312V36.8718Z" fill="#61BB73"/>
<path id="Vector_4" d="M92.3588 36.8718H74.418V54.8356H92.3588V36.8718Z" fill="#61BB73"/>
<path id="Vector_5" d="M32.269 62.6146H14.3281V80.5784H32.269V62.6146Z" fill="#61BB73"/>
<path id="Vector_6" d="M62.312 62.6146H44.3711V80.5784H62.312V62.6146Z" fill="#61BB73"/>
<path id="Vector_7" d="M92.3588 62.6146H74.418V80.5784H92.3588V62.6146Z" fill="#61BB73"/>
</g>
<path id="Vector_8" d="M105.534 25.9451H1.14453V28.1933H105.534V25.9451Z" fill="white"/>
<g id="Group_3">
<path id="Vector_9" d="M26.4947 0H22.0039V19.9872H26.4947V0Z" fill="white"/>
<path id="Vector_10" d="M84.651 0H80.1602V19.9872H84.651V0Z" fill="white"/>
</g>
</g>
</svg>
