<svg width="179" height="182" viewBox="0 0 179 182" fill="none" xmlns="http://www.w3.org/2000/svg">
<g id="Group 2689">
<path id="Vector" d="M89.3782 157.065C89.3782 156.728 89.6461 156.45 89.9835 156.45C90.3209 156.45 90.5988 156.718 90.5988 157.065C90.5988 157.402 90.3308 157.67 89.9935 157.68C89.666 157.68 89.388 157.402 89.388 157.065H89.3782ZM86.6889 157.611C86.3515 157.601 86.0936 157.313 86.1035 156.976C86.1233 156.638 86.4012 156.37 86.7485 156.39C87.0859 156.39 87.3439 156.688 87.334 157.025C87.3141 157.353 87.0462 157.611 86.7187 157.611H86.6889ZM92.6429 156.996C92.623 156.658 92.8909 156.37 93.2283 156.351C93.5657 156.331 93.8535 156.589 93.8734 156.926C93.8932 157.263 93.6352 157.551 93.2978 157.571H93.2581C92.9406 157.571 92.6627 157.323 92.6429 156.996ZM83.3945 157.383C83.0571 157.353 82.8089 157.055 82.8387 156.718C82.8784 156.38 83.1762 156.132 83.5135 156.162C83.8509 156.192 84.0989 156.489 84.0692 156.827C84.0394 157.154 83.7715 157.393 83.4539 157.393C83.4539 157.393 83.4143 157.393 83.3945 157.393V157.383ZM95.9077 156.757C95.8779 156.42 96.116 156.122 96.4534 156.083C96.7908 156.053 97.0984 156.291 97.1282 156.628C97.1679 156.966 96.9198 157.273 96.5824 157.303C96.5824 157.303 96.5427 157.303 96.5229 157.303C96.2153 157.303 95.9474 157.065 95.9077 156.747V156.757ZM80.1098 156.986C79.7823 156.936 79.5442 156.628 79.5938 156.291C79.6434 155.954 79.961 155.725 80.2885 155.775C80.6259 155.825 80.8541 156.132 80.8045 156.47C80.7648 156.777 80.5068 156.996 80.1992 156.996C80.1992 156.996 80.1396 156.996 80.1098 156.986ZM99.1625 156.361C99.103 156.033 99.3312 155.715 99.6686 155.666C100.006 155.616 100.314 155.835 100.373 156.172C100.423 156.509 100.194 156.827 99.8571 156.876C99.8571 156.876 99.7877 156.876 99.7579 156.876C99.4602 156.876 99.2022 156.658 99.1625 156.351V156.361ZM76.855 156.43C76.5176 156.36 76.3092 156.033 76.3687 155.706C76.4382 155.368 76.7658 155.16 77.0932 155.219C77.4306 155.289 77.639 155.616 77.5795 155.944C77.5199 156.231 77.2619 156.44 76.9742 156.44C76.9742 156.44 76.8947 156.44 76.855 156.44V156.43ZM102.388 155.805C102.318 155.477 102.526 155.15 102.854 155.08H102.864C103.191 155.011 103.519 155.229 103.588 155.557C103.648 155.894 103.439 156.212 103.102 156.281H103.112C103.062 156.291 103.023 156.301 102.983 156.301C102.695 156.301 102.437 156.093 102.388 155.805ZM73.6299 155.706C73.3024 155.616 73.104 155.279 73.1834 154.951C73.2628 154.624 73.6002 154.425 73.9277 154.515C74.2551 154.594 74.4535 154.932 74.3741 155.259C74.3047 155.537 74.0566 155.715 73.7788 155.715C73.7788 155.715 73.6795 155.715 73.6299 155.706ZM105.573 155.09C105.484 154.763 105.682 154.425 106.009 154.346C106.337 154.257 106.674 154.455 106.764 154.783C106.843 155.11 106.655 155.448 106.327 155.537C106.327 155.537 106.228 155.547 106.178 155.547C105.9 155.547 105.652 155.368 105.583 155.09H105.573ZM70.4446 154.812C70.127 154.713 69.9385 154.376 70.0377 154.048C70.1369 153.721 70.4843 153.542 70.8018 153.641C71.1293 153.741 71.3079 154.078 71.2087 154.406C71.1293 154.674 70.8912 154.842 70.6233 154.842C70.5637 154.842 70.5041 154.832 70.4446 154.812ZM108.729 154.217C108.629 153.89 108.808 153.552 109.125 153.453C109.453 153.344 109.79 153.522 109.899 153.85C109.999 154.177 109.82 154.515 109.493 154.624C109.433 154.634 109.374 154.644 109.314 154.644C109.046 154.644 108.808 154.485 108.729 154.217ZM67.3088 153.761C66.9913 153.651 66.8226 153.304 66.9416 152.977C67.0607 152.659 67.4081 152.5 67.7256 152.609C68.0432 152.729 68.2119 153.076 68.0928 153.393C68.0035 153.651 67.7753 153.8 67.5173 153.8C67.4478 153.8 67.3783 153.8 67.3088 153.761ZM111.834 153.185C111.715 152.868 111.874 152.52 112.192 152.401C112.509 152.282 112.866 152.441 112.986 152.758C113.105 153.076 112.936 153.433 112.618 153.552C112.549 153.572 112.479 153.592 112.41 153.592C112.162 153.592 111.924 153.433 111.834 153.185ZM64.2326 152.56C63.925 152.431 63.7762 152.064 63.9052 151.756C64.0342 151.448 64.4013 151.3 64.7089 151.429C65.0265 151.558 65.1655 151.925 65.0365 152.232C64.9372 152.471 64.7089 152.609 64.4708 152.609C64.3914 152.609 64.312 152.59 64.2326 152.56ZM114.881 152.004C114.752 151.687 114.891 151.329 115.198 151.19C115.516 151.061 115.873 151.2 116.012 151.518C116.141 151.826 116.002 152.193 115.685 152.322C115.605 152.352 115.526 152.371 115.446 152.371C115.208 152.371 114.98 152.232 114.881 152.004ZM61.216 151.2C60.9183 151.061 60.7893 150.694 60.9382 150.387C61.0771 150.079 61.4442 149.95 61.7518 150.099C62.0594 150.248 62.1885 150.615 62.0396 150.923C61.9305 151.141 61.7121 151.27 61.4839 151.27C61.3946 151.27 61.3053 151.25 61.216 151.2ZM117.868 150.665C117.719 150.357 117.838 149.99 118.146 149.841C118.453 149.692 118.82 149.821 118.969 150.119C119.118 150.426 118.989 150.794 118.691 150.942C118.602 150.982 118.503 151.012 118.414 151.012C118.185 151.012 117.967 150.883 117.868 150.665ZM58.2787 149.702C57.981 149.543 57.8718 149.166 58.0306 148.868C58.1993 148.571 58.5665 148.462 58.8642 148.62C59.1619 148.789 59.2711 149.156 59.1123 149.454C59.0032 149.662 58.7848 149.771 58.5764 149.771C58.4772 149.771 58.3779 149.752 58.2787 149.702ZM120.775 149.176C120.616 148.878 120.726 148.501 121.013 148.343C121.311 148.174 121.688 148.283 121.857 148.581C122.016 148.878 121.907 149.246 121.619 149.414C121.53 149.464 121.43 149.494 121.331 149.494C121.113 149.494 120.904 149.374 120.785 149.176H120.775ZM55.4208 148.045C55.133 147.876 55.0338 147.499 55.2124 147.201C55.391 146.914 55.7681 146.824 56.0559 147.003C56.3437 147.181 56.4329 147.559 56.2642 147.846C56.1451 148.035 55.9468 148.144 55.7384 148.144C55.6292 148.144 55.52 148.114 55.4208 148.045ZM123.613 147.539C123.435 147.251 123.524 146.874 123.812 146.695C124.1 146.517 124.477 146.606 124.655 146.894C124.834 147.181 124.745 147.559 124.457 147.737C124.358 147.797 124.248 147.826 124.129 147.826C123.931 147.826 123.732 147.727 123.613 147.539ZM52.6423 146.259C52.3645 146.07 52.2851 145.683 52.4835 145.405C52.6721 145.127 53.0591 145.048 53.3369 145.246C53.6148 145.435 53.6843 145.812 53.4957 146.1C53.3766 146.269 53.1881 146.368 52.9896 146.368C52.8706 146.368 52.7515 146.328 52.6423 146.259ZM126.362 145.762C126.164 145.485 126.233 145.108 126.511 144.909C126.789 144.72 127.176 144.79 127.374 145.068C127.563 145.346 127.493 145.723 127.215 145.921C127.106 145.991 126.987 146.03 126.868 146.03C126.67 146.03 126.481 145.941 126.362 145.762ZM49.963 144.333C49.6951 144.125 49.6355 143.748 49.8439 143.47C50.0523 143.202 50.4294 143.153 50.7072 143.351C50.9752 143.559 51.0248 143.946 50.8263 144.214C50.6973 144.373 50.5187 144.453 50.3301 144.453C50.2011 144.453 50.0721 144.413 49.963 144.333ZM47.383 142.269C47.115 142.051 47.0853 141.674 47.3036 141.406C47.5219 141.148 47.9089 141.118 48.1669 141.337C48.4349 141.555 48.4646 141.942 48.2463 142.2C48.1272 142.339 47.9486 142.418 47.7799 142.418C47.641 142.418 47.4921 142.369 47.383 142.269ZM44.9022 140.086C44.6541 139.858 44.6441 139.471 44.8724 139.223C45.1006 138.975 45.4876 138.955 45.7357 139.193C45.9738 139.421 45.9937 139.808 45.7655 140.057C45.6365 140.186 45.4777 140.255 45.309 140.255C45.1602 140.255 45.0113 140.196 44.8922 140.086H44.9022ZM42.5404 137.784C42.3023 137.546 42.3122 137.159 42.5404 136.921C42.7786 136.683 43.1755 136.683 43.4037 136.921C43.6419 137.159 43.6419 137.546 43.4037 137.784C43.2847 137.903 43.1359 137.963 42.9771 137.963C42.8183 137.963 42.6595 137.903 42.5404 137.774V137.784ZM40.2978 135.363C40.0695 135.115 40.0993 134.718 40.3474 134.5C40.6054 134.281 40.9924 134.301 41.2207 134.549C41.439 134.807 41.4092 135.194 41.1611 135.422C41.042 135.522 40.9032 135.571 40.7543 135.571C40.5856 135.571 40.4168 135.502 40.2978 135.363ZM38.1742 132.832C37.9658 132.565 38.0056 132.187 38.2735 131.969C38.5414 131.761 38.9284 131.8 39.1368 132.068C39.3452 132.336 39.3054 132.723 39.0375 132.932C38.9283 133.021 38.7894 133.071 38.6604 133.071C38.4719 133.071 38.2932 132.991 38.1742 132.832ZM36.1895 130.203C35.9911 129.925 36.0506 129.548 36.3285 129.349C36.5964 129.151 36.9834 129.21 37.1818 129.488C37.3803 129.766 37.3208 130.143 37.0429 130.342C36.9338 130.421 36.8048 130.461 36.6857 130.461C36.4872 130.461 36.3086 130.371 36.1895 130.203ZM34.3239 127.474C34.1354 127.186 34.2148 126.809 34.5026 126.63C34.7904 126.442 35.1675 126.531 35.356 126.809C35.5346 127.097 35.4553 127.474 35.1675 127.662C35.0683 127.722 34.9491 127.762 34.84 127.762C34.6316 127.762 34.4331 127.662 34.314 127.474H34.3239ZM32.6172 124.656C32.4485 124.368 32.5477 123.991 32.8355 123.822C33.1332 123.653 33.5103 123.753 33.679 124.05C33.8477 124.338 33.7484 124.715 33.4507 124.884C33.3515 124.943 33.2523 124.963 33.1431 124.963C32.9348 124.963 32.7263 124.854 32.6172 124.656ZM31.0493 121.758C30.9005 121.46 31.0196 121.083 31.3173 120.935C31.6249 120.776 31.992 120.895 32.1508 121.202C32.2997 121.5 32.1806 121.877 31.8729 122.026C31.7935 122.076 31.6943 122.096 31.605 122.096C31.3768 122.096 31.1684 121.966 31.0593 121.758H31.0493ZM29.6203 118.781C29.4814 118.473 29.6204 118.106 29.928 117.967C30.2456 117.829 30.6027 117.967 30.7417 118.285C30.8806 118.593 30.7417 118.95 30.4341 119.089C30.3547 119.128 30.2654 119.148 30.186 119.148C29.9479 119.148 29.7196 119.009 29.6203 118.781Z" fill="white"/>
<path id="Vector_2" d="M127.027 145.653L126.699 145.187C140.651 135.472 150.416 120.339 153.492 103.658L154.058 103.757C150.962 120.587 141.108 135.859 127.027 145.653Z" fill="white"/>
<path id="Vector_3" d="M29.2567 116.894C28.9987 116.259 28.7407 115.624 28.5025 114.989L28.8796 114.84C29.1178 115.475 29.3659 116.111 29.6239 116.736L29.2468 116.894H29.2567ZM27.4209 111.883C27.2125 111.238 27.0141 110.583 26.8256 109.918L27.2225 109.809C27.4111 110.464 27.6095 111.119 27.808 111.764L27.4209 111.883ZM26.0019 106.743C25.8431 106.078 25.7042 105.413 25.5653 104.739L25.9622 104.659C26.0912 105.324 26.24 105.989 26.3889 106.654L25.992 106.743H26.0019ZM154.121 102.843L153.714 102.774C153.833 102.099 153.932 101.434 154.022 100.759L154.429 100.819C154.339 101.494 154.23 102.168 154.121 102.843ZM24.9997 101.504C24.9005 100.829 24.8112 100.144 24.7318 99.4693L25.1385 99.4197C25.2179 100.094 25.3073 100.769 25.4065 101.444L24.9997 101.504ZM154.796 97.5541L154.389 97.5144C154.448 96.8396 154.498 96.1648 154.528 95.4801L154.935 95.5C154.895 96.1847 154.845 96.8694 154.786 97.5442L154.796 97.5541ZM24.4241 96.2045C24.3745 95.5198 24.3447 94.8351 24.315 94.1603L24.7218 94.1405C24.7516 94.8153 24.7814 95.5 24.831 96.1747L24.4241 96.2045ZM155.034 92.2253H154.627V91.9673C154.627 91.3719 154.627 90.7864 154.607 90.191H155.014C155.034 90.7765 155.034 91.3719 155.034 91.9673V92.2253ZM24.692 90.8757H24.2852C24.2852 90.1811 24.315 89.5064 24.3448 88.8216L24.7516 88.8415C24.7219 89.5162 24.702 90.2009 24.692 90.8757ZM154.429 86.9263C154.379 86.2515 154.31 85.5767 154.24 84.892L154.647 84.8523C154.716 85.5371 154.786 86.2118 154.835 86.8965L154.429 86.9263ZM24.9898 85.5867L24.5829 85.5469C24.6524 84.8622 24.7218 84.1875 24.8111 83.5127L25.218 83.5623C25.1287 84.2371 25.0593 84.9119 24.9898 85.5867ZM153.813 81.667C153.704 80.9922 153.585 80.3273 153.456 79.6625L153.853 79.583C153.982 80.2479 154.101 80.9227 154.21 81.6074L153.803 81.667H153.813ZM25.7241 80.3372L25.3172 80.2678C25.4363 79.593 25.5752 78.9182 25.7142 78.2534L26.1111 78.3426C25.9722 79.0075 25.8332 79.6724 25.7142 80.3472L25.7241 80.3372ZM152.771 76.4771C152.613 75.8123 152.444 75.1573 152.255 74.5023L152.652 74.3932C152.831 75.0481 153.01 75.713 153.168 76.3779L152.771 76.4771ZM26.885 75.1573L26.4882 75.0482C26.6668 74.3833 26.8553 73.7283 27.0538 73.0734L27.4408 73.1925C27.2423 73.8475 27.0537 74.5024 26.885 75.1573ZM151.323 71.3865C151.104 70.7415 150.886 70.0965 150.648 69.4614L151.035 69.3224C151.273 69.9675 151.491 70.6125 151.71 71.2575L151.323 71.3865ZM28.4729 70.0964L28.0858 69.9576C28.3141 69.3125 28.5522 68.6675 28.8102 68.0324L29.1873 68.1812C28.9392 68.8163 28.7011 69.4514 28.4729 70.0964ZM149.457 66.4347C149.189 65.8096 148.911 65.1845 148.633 64.5692L149.01 64.4005C149.298 65.0157 149.576 65.6409 149.844 66.276L149.467 66.4347H149.457ZM30.4575 65.1845L30.0804 65.0157C30.3583 64.3906 30.656 63.7753 30.9537 63.1601L31.3208 63.3387C31.0231 63.9539 30.7353 64.5692 30.4476 65.1845H30.4575ZM147.185 61.6518C146.867 61.0465 146.54 60.461 146.212 59.8656L146.569 59.6671C146.907 60.2625 147.234 60.8579 147.552 61.4633L147.185 61.6518ZM32.839 60.4511L32.4818 60.2526C32.8092 59.6572 33.1566 59.0618 33.5039 58.4763L33.8512 58.6847C33.5039 59.2702 33.1665 59.8557 32.839 60.4511ZM144.535 57.0871C144.168 56.5115 143.801 55.9459 143.414 55.3902L143.751 55.162C144.138 55.7276 144.505 56.2932 144.872 56.8688L144.525 57.0871H144.535ZM35.5977 55.9261L35.2603 55.6979C35.6374 55.1322 36.0243 54.5666 36.4213 54.0109L36.7587 54.249C36.3618 54.8047 35.9748 55.3604 35.5977 55.9261ZM141.518 52.7407C141.112 52.2048 140.695 51.669 140.268 51.1431L140.586 50.885C141.012 51.4209 141.439 51.9568 141.846 52.5025L141.518 52.7506V52.7407ZM38.7136 51.6392L38.3961 51.3812C38.8228 50.8453 39.2494 50.3194 39.696 49.7935L40.0037 50.0614C39.567 50.5774 39.1403 51.1034 38.7136 51.6392ZM138.154 48.6622C137.698 48.1562 137.241 47.66 136.775 47.1638L137.073 46.886C137.539 47.3822 138.006 47.8783 138.462 48.3943L138.154 48.6722V48.6622ZM42.1569 47.6203L41.8593 47.3424C42.3257 46.8463 42.8019 46.3501 43.2783 45.8639L43.5661 46.1517C43.0898 46.6379 42.6134 47.1242 42.1569 47.6203ZM134.473 44.8616C133.977 44.3952 133.481 43.9289 132.974 43.4823L133.252 43.1747C133.758 43.6312 134.265 44.0876 134.761 44.5639L134.483 44.8616H134.473ZM45.9179 43.8991L45.64 43.6014C46.1461 43.1449 46.6522 42.6885 47.1782 42.2419L47.4461 42.5496C46.9301 42.9961 46.424 43.4426 45.9179 43.8991ZM130.484 41.3687C129.958 40.942 129.422 40.5252 128.876 40.1183L129.124 39.7909C129.67 40.2076 130.206 40.6244 130.742 41.0511L130.484 41.3687ZM49.9665 40.4855L49.7184 40.158C50.2543 39.7412 50.8001 39.3344 51.3558 38.9275L51.5939 39.255C51.0482 39.652 50.5024 40.0588 49.9665 40.4756V40.4855ZM126.227 38.2131C125.661 37.836 125.095 37.4589 124.52 37.0918L124.738 36.7444C125.314 37.1116 125.889 37.4887 126.455 37.8757L126.227 38.2131ZM54.2733 37.4291L54.0549 37.0818C54.6304 36.7147 55.206 36.3475 55.7915 35.9902L55.9999 36.3376C55.4145 36.6948 54.8488 37.052 54.2733 37.4192V37.4291ZM121.722 35.4147C121.126 35.0773 120.531 34.7498 119.935 34.4323L120.124 34.0651C120.729 34.3827 121.325 34.7102 121.92 35.0476L121.722 35.4048V35.4147ZM58.8181 34.73L58.6197 34.3727C59.225 34.0453 59.8303 33.7377 60.4356 33.4301L60.6141 33.7972C60.0088 34.1049 59.4036 34.4125 58.8082 34.74L58.8181 34.73ZM117.008 32.9835C116.393 32.6958 115.768 32.4179 115.142 32.1499L115.301 31.7729C115.926 32.0408 116.551 32.3187 117.177 32.6064L117.008 32.9736V32.9835ZM63.5813 32.408L63.4126 32.0309C64.0377 31.753 64.6729 31.495 65.3079 31.237L65.4567 31.6141C64.8216 31.8622 64.1965 32.1301 63.5813 32.398V32.408ZM112.116 30.9493C111.481 30.7111 110.836 30.4829 110.191 30.2745L110.32 29.8875C110.975 30.1058 111.62 30.334 112.255 30.5722L112.116 30.9591V30.9493ZM68.5231 30.4928L68.3941 30.1058C69.0391 29.8875 69.694 29.6691 70.3489 29.4707L70.468 29.8577C69.813 30.0561 69.1681 30.2645 68.533 30.4928H68.5231ZM107.075 29.3218C106.42 29.1432 105.765 28.9646 105.1 28.8058L105.199 28.4089C105.864 28.5776 106.529 28.7463 107.184 28.9249L107.075 29.3218ZM73.6038 28.9844L73.5046 28.5875C74.1694 28.4188 74.8342 28.26 75.499 28.1112L75.5884 28.5081C74.9235 28.657 74.2587 28.8157 73.6038 28.9844ZM101.905 28.1112C101.24 27.9822 100.565 27.8631 99.8904 27.754L99.9499 27.3471C100.625 27.4563 101.309 27.5754 101.974 27.7044L101.895 28.1013L101.905 28.1112ZM78.7837 27.883L78.7143 27.4761C79.002 27.4265 79.2996 27.3769 79.5973 27.3372C79.9843 27.2777 80.3614 27.2181 80.7484 27.1685L80.808 27.5753C80.431 27.625 80.0439 27.6845 79.6668 27.744C79.3791 27.7936 79.0814 27.8333 78.7936 27.883H78.7837ZM96.6554 27.3273C95.9807 27.2578 95.3058 27.1883 94.6211 27.1387L94.6509 26.7319C95.3356 26.7815 96.0105 26.8411 96.6952 26.9204L96.6554 27.3273ZM84.0331 27.2082L83.9934 26.8014C84.6781 26.7418 85.3627 26.6922 86.0375 26.6525L86.0574 27.0593C85.3826 27.099 84.6979 27.1487 84.0232 27.2082H84.0331ZM91.3664 26.98C90.8305 26.9701 90.2947 26.9601 89.7489 26.9601H89.3221V26.5533H89.7489C90.2947 26.5533 90.8304 26.5532 91.3762 26.5731V26.98H91.3664Z" fill="white"/>
<path id="Vector_4" d="M89.5275 181.555C89.1901 181.555 88.9122 181.288 88.9122 180.95C88.9122 180.613 89.1901 180.335 89.5275 180.335C89.8649 180.335 90.1427 180.613 90.1427 180.95C90.1427 181.288 89.8649 181.555 89.5275 181.555ZM92.187 180.911C92.187 180.573 92.435 180.285 92.7724 180.275C93.1098 180.265 93.3976 180.523 93.4075 180.871C93.4274 181.208 93.1595 181.486 92.8221 181.496H92.8022C92.4648 181.496 92.1969 181.238 92.187 180.911ZM86.233 181.496C85.8956 181.496 85.6277 181.198 85.6376 180.861C85.6575 180.524 85.9453 180.256 86.2728 180.275C86.6201 180.275 86.878 180.563 86.8681 180.911C86.8681 181.238 86.5804 181.496 86.2529 181.496H86.233ZM95.4518 180.752C95.4319 180.414 95.6799 180.117 96.0173 180.097C96.3547 180.077 96.6525 180.325 96.6723 180.662C96.7021 181 96.444 181.298 96.1066 181.317C96.1066 181.317 96.0769 181.317 96.067 181.317C95.7494 181.317 95.4716 181.069 95.4518 180.742V180.752ZM82.9484 181.317C82.6011 181.288 82.353 181 82.3729 180.662C82.4026 180.325 82.7004 180.067 83.0378 180.097C83.3752 180.117 83.6232 180.414 83.6033 180.752C83.5736 181.069 83.3056 181.317 82.9881 181.317H82.9484ZM98.7164 180.474C98.6767 180.137 98.9248 179.839 99.2523 179.799C99.5897 179.759 99.8973 180.007 99.937 180.345C99.9667 180.682 99.7286 180.98 99.3913 181.02H99.3217C99.0141 181.02 98.7462 180.791 98.7164 180.474ZM79.6638 181.01C79.3264 180.97 79.0783 180.672 79.118 180.335C79.1577 179.998 79.4654 179.749 79.8028 179.789C80.1402 179.829 80.3782 180.137 80.3385 180.474C80.3088 180.782 80.0409 181.01 79.7332 181.01H79.6638ZM101.961 180.087C101.912 179.749 102.15 179.442 102.477 179.392C102.815 179.343 103.122 179.571 103.172 179.908C103.222 180.246 102.993 180.553 102.656 180.603C102.656 180.603 102.596 180.603 102.567 180.603C102.269 180.603 102.011 180.375 101.961 180.077V180.087ZM76.3891 180.583C76.0517 180.533 75.8235 180.216 75.8731 179.888C75.9227 179.551 76.2304 179.323 76.5678 179.372C76.9052 179.422 77.1334 179.73 77.0838 180.067C77.0441 180.375 76.7762 180.593 76.4785 180.593C76.4785 180.593 76.4189 180.593 76.3891 180.593V180.583ZM105.196 179.571C105.137 179.243 105.355 178.926 105.692 178.856C106.02 178.797 106.337 179.015 106.397 179.353C106.457 179.69 106.238 180.007 105.911 180.067C105.911 180.067 105.831 180.067 105.792 180.067C105.504 180.067 105.246 179.859 105.196 179.561V179.571ZM73.1245 180.037H73.1343C72.7969 179.968 72.5786 179.65 72.6381 179.323C72.7076 178.985 73.0252 178.767 73.3527 178.827C73.6801 178.886 73.8984 179.214 73.8389 179.541C73.7794 179.839 73.5214 180.047 73.2336 180.047C73.2336 180.047 73.1542 180.047 73.1145 180.047L73.1245 180.037ZM108.402 178.946C108.332 178.618 108.54 178.291 108.868 178.211C109.205 178.142 109.533 178.35 109.602 178.678C109.672 179.015 109.463 179.343 109.136 179.412C109.136 179.412 109.047 179.432 109.007 179.432C108.719 179.432 108.471 179.233 108.402 178.946ZM69.8994 179.363C69.562 179.293 69.3634 178.966 69.4329 178.628C69.5123 178.301 69.8398 178.092 70.1672 178.172C70.4947 178.241 70.7032 178.569 70.6337 178.896C70.5642 179.184 70.3162 179.382 70.0284 179.382C70.0284 179.382 69.9391 179.382 69.8994 179.363ZM111.587 178.201C111.507 177.874 111.696 177.537 112.033 177.457C112.361 177.368 112.688 177.566 112.778 177.894C112.857 178.221 112.668 178.559 112.341 178.648C112.281 178.658 112.232 178.668 112.182 178.668C111.904 178.668 111.656 178.479 111.587 178.201ZM66.6941 178.579C66.3666 178.489 66.1682 178.152 66.2575 177.824C66.3468 177.497 66.6842 177.298 67.0018 177.388C67.3292 177.477 67.5276 177.814 67.4383 178.142C67.3689 178.42 67.1208 178.598 66.8529 178.598C66.7934 178.598 66.7437 178.598 66.6941 178.579ZM114.742 177.348C114.643 177.021 114.832 176.673 115.159 176.584C115.487 176.485 115.824 176.663 115.923 176.991C116.013 177.318 115.834 177.656 115.507 177.755C115.507 177.755 115.387 177.785 115.338 177.785C115.07 177.785 114.822 177.616 114.742 177.348ZM63.5187 177.666C63.1912 177.566 63.0126 177.229 63.1118 176.901C63.211 176.584 63.5485 176.395 63.8759 176.495C64.2034 176.594 64.382 176.941 64.2828 177.259C64.2034 177.527 63.9653 177.695 63.6974 177.695C63.6378 177.695 63.5782 177.695 63.5187 177.666ZM117.868 176.366C117.759 176.048 117.928 175.701 118.255 175.592C118.573 175.482 118.92 175.651 119.029 175.979C119.138 176.296 118.97 176.644 118.652 176.753C118.583 176.773 118.513 176.782 118.444 176.782C118.196 176.782 117.958 176.624 117.868 176.366ZM60.3829 176.644C60.0654 176.534 59.8967 176.187 60.0058 175.87C60.115 175.552 60.4623 175.383 60.7799 175.492C61.1073 175.602 61.276 175.949 61.157 176.266C61.0776 176.524 60.8395 176.683 60.5815 176.683C60.512 176.683 60.4524 176.683 60.3829 176.644ZM120.954 175.284C120.835 174.966 120.994 174.609 121.312 174.49C121.619 174.371 121.977 174.53 122.096 174.847C122.215 175.155 122.056 175.512 121.748 175.631C121.669 175.661 121.599 175.671 121.53 175.671C121.282 175.671 121.044 175.522 120.954 175.284ZM57.2869 175.512C56.9693 175.383 56.8106 175.036 56.9296 174.718C57.0587 174.401 57.4159 174.242 57.7335 174.361C58.051 174.49 58.2098 174.847 58.0907 175.155C57.9915 175.403 57.7632 175.552 57.5151 175.552C57.4456 175.552 57.3663 175.552 57.2968 175.512H57.2869ZM123.991 174.073C123.862 173.766 124.011 173.409 124.318 173.27C124.636 173.141 124.993 173.28 125.122 173.597C125.261 173.905 125.122 174.272 124.805 174.401C124.735 174.431 124.646 174.45 124.567 174.45C124.328 174.45 124.11 174.312 124.001 174.073H123.991ZM54.2306 174.262C53.9229 174.123 53.774 173.766 53.9129 173.458C54.0519 173.141 54.4092 173.002 54.7168 173.131C55.0343 173.27 55.1732 173.627 55.0442 173.934C54.9351 174.173 54.7168 174.312 54.4786 174.312C54.3893 174.312 54.3099 174.292 54.2306 174.262ZM126.988 172.764C126.849 172.456 126.988 172.089 127.285 171.95C127.593 171.801 127.96 171.95 128.099 172.247C128.248 172.545 128.119 172.912 127.811 173.061C127.722 173.101 127.633 173.121 127.553 173.121C127.315 173.121 127.097 172.982 126.988 172.764ZM51.2337 172.902C50.9261 172.754 50.797 172.386 50.936 172.079C51.0848 171.771 51.4521 171.642 51.7597 171.791C52.0673 171.94 52.1962 172.307 52.0474 172.605C51.9481 172.833 51.72 172.962 51.4917 172.962C51.4024 172.962 51.3131 172.942 51.2337 172.902ZM129.935 171.335C129.786 171.037 129.905 170.67 130.203 170.511C130.501 170.362 130.878 170.471 131.027 170.779C131.185 171.077 131.066 171.454 130.769 171.603C130.679 171.652 130.58 171.672 130.481 171.672C130.262 171.672 130.044 171.553 129.935 171.335ZM48.2766 171.424C47.9789 171.265 47.8598 170.898 48.0186 170.6C48.1774 170.303 48.5445 170.183 48.8521 170.342C49.1597 170.501 49.2689 170.868 49.1201 171.166C49.0109 171.374 48.7925 171.493 48.5742 171.493C48.475 171.493 48.3858 171.474 48.2865 171.424H48.2766ZM132.833 169.806C132.664 169.509 132.763 169.132 133.061 168.973C133.358 168.804 133.736 168.903 133.894 169.201C134.063 169.499 133.964 169.876 133.666 170.045C133.567 170.094 133.468 170.124 133.368 170.124C133.15 170.124 132.942 170.005 132.833 169.806ZM45.3889 169.846C45.0912 169.687 44.9821 169.31 45.1607 169.013C45.3195 168.725 45.6965 168.616 45.9942 168.784C46.2919 168.953 46.3911 169.33 46.2224 169.618C46.1133 169.816 45.905 169.935 45.6867 169.935C45.5874 169.935 45.4782 169.906 45.3889 169.846ZM135.661 168.169C135.482 167.881 135.571 167.504 135.859 167.326C136.157 167.147 136.534 167.236 136.713 167.524C136.881 167.812 136.792 168.189 136.504 168.368C136.405 168.437 136.296 168.457 136.187 168.457C135.978 168.457 135.78 168.358 135.661 168.169ZM42.5509 168.169C42.2631 167.99 42.1738 167.613 42.3525 167.326C42.5311 167.038 42.9081 166.949 43.1959 167.127C43.4837 167.306 43.5729 167.683 43.3943 167.971C43.2852 168.159 43.0768 168.258 42.8783 168.258C42.7691 168.258 42.6501 168.229 42.5509 168.169ZM138.429 166.423C138.241 166.145 138.32 165.768 138.598 165.579C138.886 165.391 139.263 165.47 139.451 165.748C139.64 166.026 139.561 166.413 139.283 166.601C139.173 166.671 139.054 166.7 138.945 166.7C138.747 166.7 138.548 166.601 138.429 166.423ZM39.7823 166.383C39.5044 166.194 39.4251 165.817 39.6136 165.539C39.8022 165.252 40.1792 165.182 40.467 165.361C40.7449 165.559 40.8242 165.936 40.6356 166.214C40.5166 166.393 40.3182 166.492 40.1297 166.492C40.0106 166.492 39.8914 166.452 39.7823 166.383ZM141.138 164.587C140.94 164.309 140.999 163.922 141.277 163.723C141.545 163.535 141.932 163.594 142.131 163.862C142.329 164.14 142.27 164.527 141.992 164.726C141.883 164.805 141.754 164.835 141.634 164.835C141.446 164.835 141.257 164.755 141.138 164.587ZM37.0732 164.497H37.0832C36.8053 164.299 36.7458 163.922 36.9442 163.644C37.1427 163.376 37.5297 163.307 37.7976 163.505C38.0755 163.704 38.135 164.091 37.9365 164.368C37.8175 164.527 37.6289 164.617 37.4404 164.617C37.3114 164.617 37.1923 164.577 37.0732 164.497ZM143.768 162.642C143.56 162.374 143.609 161.987 143.877 161.778C144.145 161.57 144.532 161.62 144.74 161.888C144.949 162.156 144.899 162.543 144.631 162.751C144.522 162.84 144.383 162.88 144.254 162.88C144.076 162.88 143.887 162.801 143.768 162.642ZM34.4435 162.523C34.1756 162.314 34.1359 161.927 34.3443 161.659C34.5527 161.391 34.9397 161.342 35.2077 161.55C35.4756 161.759 35.5152 162.146 35.3069 162.414C35.1878 162.572 35.0092 162.652 34.8306 162.652C34.6916 162.652 34.5626 162.612 34.4435 162.523ZM146.328 160.608C146.11 160.34 146.15 159.953 146.408 159.744C146.666 159.526 147.053 159.556 147.271 159.814C147.489 160.072 147.449 160.459 147.191 160.677C147.072 160.776 146.934 160.826 146.795 160.826C146.626 160.826 146.447 160.746 146.328 160.608ZM31.8933 160.449C31.6353 160.23 31.5957 159.843 31.814 159.585C32.0323 159.318 32.4193 159.288 32.6872 159.506C32.9452 159.724 32.975 160.111 32.7566 160.369C32.6376 160.518 32.459 160.588 32.2903 160.588C32.1514 160.588 32.0025 160.548 31.8933 160.449ZM148.809 158.474C148.581 158.226 148.601 157.839 148.859 157.611C149.107 157.382 149.494 157.402 149.722 157.65C149.95 157.908 149.93 158.295 149.682 158.524C149.563 158.623 149.414 158.673 149.265 158.673C149.097 158.673 148.938 158.613 148.809 158.474ZM29.4125 158.286C29.1644 158.057 29.1445 157.66 29.3728 157.412C29.5911 157.164 29.988 157.144 30.2361 157.373C30.4842 157.601 30.5041 157.988 30.2758 158.236C30.1567 158.375 29.9881 158.434 29.8194 158.434C29.6805 158.434 29.5316 158.385 29.4125 158.286ZM151.22 156.251C150.982 156.013 150.982 155.626 151.22 155.388C151.458 155.15 151.846 155.16 152.084 155.388C152.322 155.636 152.322 156.023 152.084 156.261C151.965 156.37 151.806 156.43 151.657 156.43C151.498 156.43 151.339 156.37 151.22 156.241V156.251ZM27.011 156.023C26.7729 155.785 26.763 155.398 27.011 155.16C27.2492 154.912 27.6362 154.912 27.8843 155.16C28.1225 155.388 28.1324 155.785 27.8843 156.023C27.7652 156.142 27.5966 156.212 27.4378 156.212C27.2889 156.212 27.1301 156.152 27.011 156.033V156.023ZM24.699 153.681C24.4707 153.433 24.4708 153.046 24.7188 152.818C24.9669 152.58 25.3539 152.59 25.5921 152.838C25.8203 153.086 25.8104 153.473 25.5722 153.701C25.4531 153.82 25.2943 153.87 25.1455 153.87C24.9768 153.87 24.8181 153.81 24.699 153.681ZM22.4762 151.26C22.2479 151.002 22.2776 150.615 22.5257 150.397C22.7837 150.168 23.1708 150.198 23.3892 150.446C23.6174 150.694 23.5975 151.091 23.3395 151.309C23.2204 151.419 23.0815 151.468 22.9326 151.468C22.7639 151.468 22.5953 151.399 22.4762 151.26ZM20.3427 148.759C20.1243 148.491 20.164 148.104 20.422 147.896C20.6899 147.678 21.067 147.717 21.2853 147.975C21.5036 148.243 21.464 148.63 21.206 148.839C21.0869 148.938 20.9479 148.978 20.809 148.978C20.6403 148.978 20.4617 148.908 20.3427 148.759ZM18.2985 146.179C18.0901 145.911 18.1397 145.524 18.4176 145.316C18.6855 145.117 19.0626 145.167 19.271 145.435C19.4794 145.703 19.4298 146.09 19.1618 146.298C19.0428 146.378 18.9138 146.417 18.7848 146.417C18.6061 146.417 18.4176 146.338 18.2985 146.179ZM16.3535 143.53C16.155 143.252 16.2245 142.865 16.5024 142.676C16.7802 142.478 17.1573 142.537 17.3557 142.815C17.5542 143.093 17.4847 143.48 17.2069 143.678C17.0977 143.748 16.9787 143.788 16.8596 143.788C16.6611 143.788 16.4726 143.698 16.3535 143.53ZM14.5078 140.811C14.3292 140.523 14.4086 140.146 14.6865 139.957C14.9742 139.769 15.3513 139.848 15.5398 140.136C15.7185 140.424 15.639 140.801 15.3612 140.979C15.252 141.049 15.133 141.089 15.0238 141.089C14.8253 141.089 14.6269 140.989 14.5078 140.811ZM12.7613 138.022H12.7712C12.5926 137.725 12.6819 137.357 12.9796 137.179C13.2673 137 13.6445 137.099 13.8132 137.387C13.9918 137.675 13.8925 138.052 13.6047 138.231C13.5055 138.29 13.3964 138.32 13.2972 138.32C13.0888 138.32 12.8804 138.211 12.7613 138.022ZM11.1239 135.174C10.9651 134.877 11.0644 134.5 11.3621 134.341C11.6598 134.172 12.0369 134.281 12.2056 134.579C12.3743 134.877 12.2652 135.254 11.9675 135.412C11.8782 135.462 11.7789 135.492 11.6797 135.492C11.4614 135.492 11.2529 135.373 11.1339 135.174H11.1239ZM9.58589 132.257C9.42712 131.959 9.54622 131.582 9.85384 131.433C10.1515 131.284 10.5286 131.403 10.6774 131.711C10.8263 132.009 10.7072 132.376 10.3995 132.535C10.3102 132.574 10.2209 132.594 10.1316 132.594C9.90336 132.594 9.68511 132.475 9.57596 132.257H9.58589ZM8.16681 129.29C8.01796 128.982 8.16686 128.615 8.46456 128.476C8.77218 128.337 9.13928 128.476 9.27821 128.774C9.41714 129.081 9.27828 129.449 8.98059 129.587C8.89128 129.627 8.81188 129.647 8.72257 129.647C8.48441 129.647 8.26604 129.518 8.16681 129.29ZM6.84706 126.273C6.71806 125.956 6.86687 125.598 7.17449 125.469C7.49203 125.34 7.84933 125.489 7.97833 125.797C8.10733 126.114 7.9584 126.472 7.65078 126.601C7.5714 126.63 7.49202 126.65 7.41263 126.65C7.17448 126.65 6.9463 126.501 6.84706 126.273ZM5.64639 123.197C5.52731 122.889 5.68607 122.532 6.00361 122.413C6.32116 122.294 6.67832 122.463 6.7974 122.78C6.90655 123.098 6.74779 123.445 6.43024 123.564C6.36078 123.594 6.29135 123.604 6.21196 123.604C5.96388 123.604 5.7357 123.445 5.64639 123.197ZM4.55474 120.091C4.44558 119.773 4.62421 119.426 4.94176 119.317C5.26922 119.218 5.60664 119.386 5.7158 119.714C5.82495 120.031 5.64632 120.379 5.32878 120.488C5.25932 120.508 5.19982 120.518 5.13036 120.518C4.87236 120.518 4.63412 120.349 4.55474 120.091ZM3.57234 116.945C3.48303 116.628 3.67163 116.28 3.9991 116.191C4.32656 116.092 4.66396 116.28 4.75327 116.608C4.85251 116.935 4.66392 117.273 4.33645 117.372C4.27691 117.382 4.21733 117.392 4.16771 117.392C3.89979 117.392 3.65173 117.213 3.57234 116.945ZM2.71896 113.77C2.63957 113.442 2.83811 113.105 3.16558 113.026C3.49305 112.946 3.83044 113.145 3.90982 113.472C3.98921 113.8 3.79067 114.127 3.4632 114.216C3.41359 114.216 3.36395 114.236 3.31433 114.236C3.03648 114.236 2.78842 114.048 2.71896 113.77ZM1.97472 110.565C1.90525 110.227 2.12355 109.9 2.45101 109.83C2.77848 109.761 3.10593 109.969 3.17539 110.307C3.24485 110.634 3.03649 110.962 2.70903 111.031C2.70903 111.031 2.61971 111.031 2.58002 111.031C2.29225 111.031 2.03426 110.842 1.97472 110.555V110.565ZM1.34955 107.33C1.29001 106.992 1.51825 106.675 1.85564 106.615C2.18311 106.556 2.50061 106.784 2.56015 107.111C2.61969 107.449 2.40138 107.766 2.06399 107.826C2.06399 107.826 1.99454 107.836 1.95485 107.836C1.66708 107.836 1.39916 107.627 1.34955 107.33ZM0.843452 104.075C0.803759 103.737 1.03202 103.43 1.36941 103.38C1.7068 103.331 2.01437 103.569 2.06399 103.906C2.10368 104.243 1.87554 104.551 1.53815 104.591C1.53815 104.591 1.47852 104.591 1.44875 104.591C1.15106 104.591 0.883145 104.373 0.843452 104.065V104.075ZM0.45643 100.8C0.416738 100.463 0.664867 100.165 1.00226 100.125C1.33965 100.096 1.64732 100.344 1.67709 100.671C1.70686 101.018 1.46865 101.316 1.13126 101.346C1.13126 101.346 1.09162 101.346 1.06186 101.346C0.754234 101.346 0.4862 101.108 0.45643 100.79V100.8ZM0.188605 97.5155C0.168758 97.1781 0.416786 96.8904 0.754176 96.8606C1.10149 96.8408 1.3893 97.0988 1.40914 97.4362C1.42899 97.7736 1.17091 98.0613 0.833519 98.0911H0.793908C0.476364 98.0911 0.208451 97.843 0.188605 97.5155ZM0.0397317 94.221C0.0397317 93.8836 0.287789 93.6058 0.635102 93.5959C0.972493 93.5959 1.25035 93.8539 1.26027 94.1913C1.27019 94.5287 1.00229 94.8164 0.664901 94.8164H0.645035C0.317568 94.8164 0.0397317 94.5584 0.0397317 94.221ZM0.615236 91.5517C0.277846 91.5517 0 91.2639 0 90.9265C0 90.5892 0.287779 90.3212 0.625169 90.3212C0.96256 90.3212 1.23047 90.599 1.23047 90.9364C1.23047 91.2738 0.952627 91.5517 0.615236 91.5517ZM0.684767 88.277C0.347377 88.2571 0.0793617 87.9694 0.0992082 87.632C0.119055 87.2946 0.39693 87.0366 0.744243 87.0465C1.07171 87.0664 1.33959 87.3542 1.31975 87.6916C1.2999 88.019 1.03198 88.277 0.704512 88.277H0.674834H0.684767ZM0.87325 85.0123C0.53586 84.9825 0.287832 84.6848 0.307679 84.3474C0.337448 84.01 0.635068 83.752 0.972459 83.7818C1.30985 83.8116 1.558 84.1092 1.53815 84.4466C1.50838 84.7642 1.24046 85.0123 0.922915 85.0123H0.87325ZM1.18093 81.7475C0.843539 81.7079 0.605342 81.4002 0.645035 81.0628C0.684728 80.7254 0.992291 80.4873 1.32968 80.5269C1.66707 80.5666 1.90527 80.8743 1.86557 81.2117C1.82588 81.5193 1.55797 81.7574 1.26027 81.7574C1.26027 81.7574 1.2107 81.7574 1.18093 81.7574V81.7475ZM1.61749 78.5026C1.2801 78.453 1.05185 78.1354 1.10147 77.7981C1.16101 77.4706 1.46871 77.2423 1.8061 77.292C2.14349 77.3416 2.37161 77.6591 2.31207 77.9965C2.27238 78.2942 2.00447 78.5126 1.70677 78.5126C1.70677 78.5126 1.64726 78.5125 1.61749 78.5026ZM2.16332 75.2776C1.83585 75.218 1.61755 74.8905 1.67709 74.5631H1.6869C1.74644 74.2257 2.074 74.0074 2.40147 74.0768C2.73886 74.1463 2.94724 74.4639 2.8877 74.8013C2.82816 75.089 2.57017 75.2875 2.28239 75.2875C2.28239 75.2875 2.20301 75.2875 2.16332 75.2776ZM2.83803 72.0724C2.50064 71.993 2.30222 71.6655 2.3816 71.338C2.46099 71.0105 2.78845 70.8022 3.11591 70.8816C3.44338 70.961 3.65173 71.2884 3.57234 71.6159C3.50288 71.9037 3.25482 72.0922 2.97697 72.0922C2.97697 72.0922 2.88765 72.0922 2.83803 72.0724ZM3.62201 68.8969C3.29454 68.8076 3.10595 68.4702 3.19526 68.1428C3.28456 67.8153 3.62196 67.6268 3.94943 67.7161C4.2769 67.8054 4.46549 68.1428 4.37618 68.4702C4.30672 68.7382 4.05867 68.9167 3.79075 68.9167C3.73121 68.9167 3.68155 68.9168 3.62201 68.8969ZM4.52506 65.7513C4.20751 65.652 4.02887 65.3047 4.1281 64.9872C4.22734 64.6597 4.57468 64.481 4.90215 64.5803C5.21969 64.6894 5.39821 65.0269 5.29898 65.3543C5.20967 65.6123 4.97155 65.781 4.71354 65.781C4.654 65.781 4.5846 65.7711 4.52506 65.7513ZM5.54706 62.6453C5.22952 62.5361 5.06083 62.1789 5.1799 61.8613C5.29898 61.5438 5.64635 61.3751 5.97381 61.4842C6.29136 61.6033 6.46005 61.9507 6.34097 62.2682C6.25166 62.5262 6.01354 62.675 5.76546 62.675C5.696 62.675 5.62646 62.6751 5.55699 62.6453H5.54706ZM6.67832 59.5691C6.3707 59.45 6.21197 59.0928 6.34097 58.7752C6.46005 58.4676 6.81733 58.3088 7.13488 58.4378C7.45242 58.5569 7.60124 58.9142 7.48217 59.2317C7.38293 59.4699 7.15462 59.6187 6.90654 59.6187C6.83708 59.6187 6.75771 59.6087 6.67832 59.5691ZM7.92866 56.5524C7.62104 56.4135 7.48217 56.0463 7.61117 55.7387C7.7501 55.4311 8.1172 55.2922 8.42482 55.4311C8.73245 55.5601 8.87144 55.9272 8.74244 56.2349C8.63328 56.4631 8.4149 56.602 8.17674 56.602C8.09736 56.602 8.00805 56.5822 7.92866 56.5524ZM9.28814 53.5754C8.98052 53.4266 8.8516 53.0594 9.00045 52.7518C9.1493 52.4442 9.51642 52.3251 9.82404 52.464C10.1217 52.6129 10.2508 52.98 10.1019 53.2876C10.0027 53.5059 9.78432 53.635 9.55609 53.635C9.46678 53.635 9.36753 53.6151 9.28814 53.5754Z" fill="white"/>
<path id="Vector_5" d="M151.858 156.033L151.461 155.626C172.121 135.561 181.806 106.625 177.371 78.2048C175.674 67.3488 172.062 57.0584 166.624 47.6214L167.12 47.3336C172.588 56.8301 176.229 67.19 177.936 78.1155C182.402 106.714 172.647 135.839 151.858 156.033Z" fill="white"/>
<path id="Vector_6" d="M166.622 47.621C150.755 20.0543 121.432 3.12519 89.7864 3.12519C89.1811 3.12519 88.5858 3.12521 87.9805 3.14506V2.57943C120.539 1.89472 150.844 19.0718 167.128 47.3432L166.632 47.631L166.622 47.621Z" fill="white"/>
<path id="Vector_7" d="M10.6484 51.2828L10.2812 51.0942C10.5988 50.4889 10.9163 49.8836 11.2438 49.2782L11.6011 49.4767C11.2737 50.0721 10.956 50.6774 10.6484 51.2828ZM13.2186 46.6387L12.8613 46.4303C13.2086 45.8448 13.5659 45.2593 13.9231 44.6838L14.2704 44.9021C13.9132 45.4777 13.556 46.0631 13.2087 46.6486L13.2186 46.6387ZM16.0566 42.1534L15.7192 41.9251C16.1062 41.3595 16.4932 40.7939 16.8902 40.2382L17.2275 40.4763C16.8306 41.032 16.4437 41.5877 16.0666 42.1534H16.0566ZM19.1527 37.8466L18.8251 37.5986C19.2419 37.0528 19.6587 36.5169 20.0854 35.991L20.403 36.249C19.9763 36.7849 19.5595 37.3108 19.1428 37.8566L19.1527 37.8466ZM22.5068 33.7385L22.1991 33.4705C22.6456 32.9545 23.1021 32.4385 23.5586 31.9324L23.8563 32.2103C23.3998 32.7163 22.9533 33.2225 22.5068 33.7385ZM26.089 29.8287L25.8012 29.5409C26.2775 29.0547 26.7637 28.5685 27.25 28.0921L27.5378 28.3799C27.0515 28.8562 26.5753 29.3425 26.099 29.8287H26.089ZM29.8995 26.1472L29.6216 25.8495C30.1277 25.393 30.6339 24.9365 31.1499 24.49L31.4178 24.7976C30.9018 25.2442 30.3957 25.7006 29.8896 26.1571L29.8995 26.1472ZM33.9185 22.6939L33.6605 22.3763C34.1963 21.9496 34.7322 21.5229 35.268 21.1061L35.5161 21.4336C34.9803 21.8504 34.4444 22.2672 33.9185 22.6939ZM38.1359 19.4886L37.8977 19.1513C38.4534 18.7544 39.0091 18.3674 39.5747 17.9804L39.8029 18.3177C39.2373 18.6948 38.6816 19.0918 38.1259 19.4788L38.1359 19.4886ZM42.5417 16.5415L42.3234 16.1942C42.899 15.8369 43.4845 15.4797 44.07 15.1324L44.2783 15.4797C43.6928 15.827 43.1173 16.1842 42.5417 16.5415ZM47.1163 13.8622L46.9179 13.505C47.5133 13.1775 48.1186 12.8599 48.7239 12.5424L48.9125 12.9096C48.3072 13.2172 47.7117 13.5347 47.1163 13.8622ZM51.8398 11.4707L51.6613 11.1035C52.2765 10.8158 52.9017 10.528 53.5268 10.26L53.6954 10.6371C53.0703 10.915 52.455 11.1929 51.8398 11.4806V11.4707ZM56.6923 9.36698L56.5434 8.98989C57.1785 8.74181 57.8136 8.49374 58.4487 8.25558L58.5877 8.64254C57.9526 8.8807 57.3175 9.12877 56.6923 9.37685V9.36698ZM61.6638 7.56094L61.5348 7.17392C62.1798 6.95561 62.8348 6.75714 63.4897 6.54875L63.6088 6.93577C62.9538 7.13424 62.3089 7.34262 61.6638 7.55101V7.56094ZM66.7445 6.04266L66.6354 5.64577C67.2903 5.46715 67.9552 5.29844 68.62 5.13967L68.7193 5.53656C68.0544 5.69534 67.3995 5.86404 66.7445 6.04266ZM71.9046 4.83205L71.8252 4.4351C72.4901 4.29617 73.1649 4.16716 73.8397 4.04808L73.9091 4.45496C73.2343 4.57404 72.5694 4.70306 71.9046 4.84198V4.83205ZM77.1341 3.929L77.0747 3.52218C77.7495 3.42294 78.4341 3.33362 79.1089 3.25423L79.1585 3.66112C78.4837 3.7405 77.8089 3.82977 77.1341 3.929ZM82.4035 3.33363L82.3736 2.92675C83.0584 2.86721 83.7431 2.81763 84.4179 2.77793L84.4476 3.18476C83.7728 3.22445 83.0882 3.27409 82.4134 3.33363H82.4035ZM87.7024 3.05575V2.64893H87.9505V3.05575H87.7024Z" fill="white"/>
<path id="Vector_8" d="M153.661 108.46C156.686 108.46 159.139 106.008 159.139 102.982C159.139 99.9573 156.686 97.5049 153.661 97.5049C150.636 97.5049 148.184 99.9573 148.184 102.982C148.184 106.008 150.636 108.46 153.661 108.46Z" fill="#4285F3"/>
<path id="Vector_9" d="M52.8527 43.6924C55.8779 43.6924 58.3303 41.24 58.3303 38.2148C58.3303 35.1896 55.8779 32.7371 52.8527 32.7371C49.8274 32.7371 47.375 35.1896 47.375 38.2148C47.375 41.24 49.8274 43.6924 52.8527 43.6924Z" fill="#4285F3"/>
<path id="Vector_10" d="M29.9775 123.524C33.0027 123.524 35.4552 121.072 35.4552 118.047C35.4552 115.021 33.0027 112.569 29.9775 112.569C26.9523 112.569 24.5 115.021 24.5 118.047C24.5 121.072 26.9523 123.524 29.9775 123.524Z" fill="#35A854"/>
<path id="Vector_11" d="M70.6533 10.9552C73.6785 10.9552 76.131 8.5028 76.131 5.47759C76.131 2.45238 73.6785 0 70.6533 0C67.6281 0 65.1758 2.45238 65.1758 5.47759C65.1758 8.5028 67.6281 10.9552 70.6533 10.9552Z" fill="#35A854"/>
<path id="Vector_12" d="M9.6964 58.4279C12.7216 58.4279 15.1741 55.9755 15.1741 52.9502C15.1741 49.925 12.7216 47.4726 9.6964 47.4726C6.67119 47.4726 4.21875 49.925 4.21875 52.9502C4.21875 55.9755 6.67119 58.4279 9.6964 58.4279Z" fill="#FABB06"/>
<path id="Vector_13" d="M102.845 160.598C105.87 160.598 108.322 158.145 108.322 155.12C108.322 152.095 105.87 149.642 102.845 149.642C99.8196 149.642 97.3672 152.095 97.3672 155.12C97.3672 158.145 99.8196 160.598 102.845 160.598Z" fill="#FABB06"/>
<path id="Vector_14" d="M142.54 25.0661C145.565 25.0661 148.018 22.6137 148.018 19.5885C148.018 16.5633 145.565 14.1108 142.54 14.1108C139.515 14.1108 137.062 16.5633 137.062 19.5885C137.062 22.6137 139.515 25.0661 142.54 25.0661Z" fill="#E94336"/>
<path id="Vector_15" d="M42.8605 173.161C45.8857 173.161 48.338 170.709 48.338 167.684C48.338 164.658 45.8857 162.206 42.8605 162.206C39.8353 162.206 37.3828 164.658 37.3828 167.684C37.3828 170.709 39.8353 173.161 42.8605 173.161Z" fill="#E94336"/>
<g id="lEL1iN">
<path id="Vector_16" d="M100.61 76.0904C101.374 76.6163 101.959 77.3308 102.545 78.0354C104.004 79.8017 105.046 81.7963 105.681 83.9993C105.74 84.2076 105.859 84.3366 106.028 84.4557C108.747 86.4899 110.424 89.1692 110.9 92.5233C111.426 96.185 110.454 99.4596 108.023 102.268C106.078 104.511 103.626 105.85 100.699 106.317C100.342 106.376 99.9847 106.436 99.6175 106.436C96.2536 106.436 92.8796 106.436 89.5156 106.436C89.5156 103.945 89.5156 101.454 89.5156 98.9734C89.6645 98.9734 89.8133 98.9536 89.9721 98.9536C93.0185 98.9536 96.0749 98.9833 99.1214 98.9337C101.84 98.894 103.974 96.2148 103.488 93.5553C103.091 91.3623 101.424 89.8242 99.1908 89.6257C98.9328 89.6059 98.8634 89.5265 98.8634 89.2784C98.8634 88.7922 98.8534 88.3158 98.8038 87.8296C98.5557 85.2297 97.4146 83.0962 95.3902 81.4291C95.4498 81.2505 95.6085 81.1413 95.7276 81.0123C97.355 79.375 98.9924 77.7277 100.62 76.0904H100.61Z" fill="#4285F3"/>
<path id="Vector_17" d="M72.8234 103.973C71.2556 102.872 70.0845 101.423 69.241 99.7263C66.5816 94.3975 68.1594 88.0169 72.9921 84.514C73.1012 84.4346 73.2005 84.3453 73.2997 84.256C73.8654 83.9484 74.421 83.6109 75.0065 83.3331C77.4079 82.2018 79.9284 81.9637 82.5283 82.4202C82.6474 82.4499 82.7665 82.4797 82.8757 82.5095C85.5847 83.1446 87.8074 84.5537 89.5936 86.6773C89.8219 86.9452 89.7723 87.0742 89.5441 87.2925C87.9167 88.8902 86.3091 90.5076 84.6916 92.1152C84.6023 92.2045 84.5328 92.3335 84.374 92.3534C84.0961 91.8076 83.7489 91.3312 83.3023 90.9045C81.8833 89.555 79.6407 89.2771 77.8743 90.2397C76.108 91.2023 75.1355 93.2465 75.5225 95.1716C75.8401 96.7494 76.7629 97.8508 78.172 98.5653C78.0628 98.6844 77.9537 98.8134 77.8445 98.9325C76.1675 100.609 74.4905 102.296 72.8036 103.973H72.8234Z" fill="#FABB06"/>
<path id="Vector_18" d="M82.528 82.431C79.9281 81.9844 77.4077 82.2126 75.0062 83.3439C74.4208 83.6217 73.8651 83.9591 73.2995 84.2667C73.0911 84.1477 73.23 83.9989 73.2697 83.8798C74.1925 80.8135 75.8597 78.2136 78.2611 76.0999C81.6251 73.1329 85.5845 71.7039 90.0598 71.8627C94.0589 72.0016 97.5817 73.4306 100.598 76.09C98.9709 77.7273 97.3335 79.3647 95.7061 81.0119C95.5771 81.1409 95.4283 81.2402 95.3687 81.4287C95.2794 81.3791 95.1802 81.3295 95.1008 81.27C93.7413 80.2578 92.233 79.6227 90.5461 79.4441C87.3706 79.1067 84.7012 80.1189 82.528 82.4508V82.431Z" fill="#E94336"/>
<path id="Vector_19" d="M72.8224 103.974C74.4995 102.297 76.1864 100.62 77.8634 98.9329C77.9825 98.8138 78.0817 98.6947 78.1908 98.5657C79.2427 98.9924 80.3442 98.9528 81.4357 98.9528C84.1249 98.9528 86.8042 98.9528 89.4934 98.9528C89.4934 101.443 89.4934 103.934 89.4934 106.415C86.0997 106.415 82.7059 106.484 79.3122 106.385C76.9107 106.316 74.7277 105.433 72.8125 103.964L72.8224 103.974Z" fill="#35A854"/>
</g>
</g>
</svg>
