<svg width="98" height="98" viewBox="0 0 98 98" fill="none" xmlns="http://www.w3.org/2000/svg">
<g id="Group">
<path id="Vector" d="M42.1914 97.8902C40.7094 97.8902 39.4744 96.6986 39.452 95.1922L39.3621 89.8188C35.0958 88.8521 31.0316 87.2333 27.2593 85.0075L23.6218 88.8296C22.5664 89.9313 20.8375 89.9537 19.7372 88.9195L9.4532 79.0721C8.9143 78.555 8.6224 77.8805 8.59994 77.1385C8.57749 76.3966 8.84694 75.6996 9.36338 75.1825L13.1132 71.2705C10.8004 67.6058 9.07148 63.6488 7.99368 59.467H2.73941C1.99842 59.467 1.3248 59.1748 0.80835 58.6352C0.291904 58.0956 0 57.4211 0 56.6792V42.4476C0.0449083 40.9412 1.25743 39.7047 2.78432 39.7047H7.61196C8.55503 35.3655 10.1942 31.2286 12.4621 27.3841L8.98166 23.7868C8.46522 23.2697 8.19577 22.5728 8.21822 21.8308C8.21822 21.0889 8.53258 20.4144 9.04902 19.8973L19.2657 10.0049C20.3435 8.94816 22.0949 8.97064 23.1502 10.0723L26.204 13.2199L26.2714 13.1749C30.2682 10.6568 34.6019 8.83575 39.1825 7.80154L39.0927 3.03519C39.0927 2.29325 39.3621 1.59628 39.8561 1.07917C40.3726 0.539587 41.0462 0.247312 41.7872 0.247312L56.0007 0C56.7192 0 57.4377 0.269794 57.9542 0.764416C58.4706 1.25904 58.785 1.95601 58.785 2.69794L58.8748 7.9814C63.2309 9.08306 67.3625 10.8592 71.1572 13.2873L74.5702 9.73506C75.6256 8.6334 77.3546 8.61092 78.4548 9.66761L88.6715 19.5601C89.2104 20.0772 89.5023 20.7516 89.5023 21.4936C89.5023 22.2355 89.2328 22.9325 88.7388 23.4496L84.8543 27.474C87.2119 31.4759 88.8735 35.8151 89.7717 40.3567H94.5544C95.2281 40.3567 95.9691 40.6264 96.508 41.1436C97.0469 41.6607 97.3163 42.3576 97.3163 43.0771V57.3087C97.3612 58.0506 97.0693 58.7251 96.5529 59.2647C96.0364 59.7818 95.3403 60.0741 94.6218 60.0741H89.0981C87.9978 64.0086 86.3587 67.7632 84.1582 71.248L87.7284 74.9802C88.7837 76.0818 88.7388 77.813 87.6386 78.8697L77.3546 88.6947C76.8157 89.2118 76.1196 89.4591 75.4011 89.4591C74.6601 89.4591 73.9864 89.1444 73.47 88.6048L69.9896 84.9625C66.5766 86.986 62.8941 88.5148 59.0544 89.5041L59.1442 94.8325C59.1442 95.5745 58.8748 96.2714 58.3808 96.7885C57.8644 97.3281 57.1907 97.6204 56.4497 97.6204L42.2363 97.8677C42.2363 97.8677 42.2138 97.8677 42.1914 97.8677V97.8902ZM26.8103 82.3546L27.6411 82.7368C31.6379 85.2323 36.0165 86.9635 40.6196 87.9078L41.4279 88.0652L41.4728 89.1444L41.5626 95.1698C41.5626 95.507 41.8321 95.7543 42.1689 95.7543L56.3824 95.507C56.5396 95.507 56.6967 95.4395 56.809 95.3271C56.9213 95.2147 56.9886 95.0574 56.9886 94.9L56.8764 88.0202L57.7296 87.6605C61.9286 86.6713 65.9254 85.0075 69.6079 82.7368L70.3489 82.2871L75.0193 87.1659C75.1316 87.2783 75.2888 87.3457 75.446 87.3457C75.6256 87.3457 75.7603 87.3008 75.8726 87.1884L86.1566 77.3634C86.2689 77.251 86.3362 77.0936 86.3362 76.9362C86.3362 76.7788 86.2913 76.6214 86.179 76.509L81.4412 71.5403L81.9128 70.8209C84.3603 67.1112 86.1341 63.0643 87.2344 58.7926L87.4365 58.0057H94.5994C94.7565 57.9832 94.9137 57.9157 95.026 57.8033C95.1383 57.6909 95.2056 57.5335 95.2056 57.3761V43.1445C95.1832 42.9871 95.1158 42.8298 95.0035 42.7174C94.8913 42.6049 94.8239 42.6049 94.5769 42.5375H87.9978L87.8407 41.6607C86.9649 36.7819 85.2135 32.1729 82.6088 27.9237L82.1822 27.2267L87.2119 22.0107C87.3242 21.8983 87.3916 21.7409 87.3916 21.5835C87.3916 21.4261 87.3242 21.2687 87.2119 21.1563L76.9953 11.2639C76.7483 11.0391 76.3666 11.0391 76.142 11.2639L71.494 16.0977L70.753 15.6031C66.7337 12.9051 62.3327 10.9941 57.6174 9.91492L56.809 9.73506L56.6967 2.76539C56.6967 2.60801 56.6294 2.45063 56.5171 2.33821C56.4048 2.2258 56.2252 2.18083 56.0905 2.15835L41.877 2.40566C41.7198 2.40566 41.5626 2.47311 41.4504 2.58553C41.3381 2.69794 41.2707 2.85532 41.2707 3.0127L41.383 9.5552L40.5073 9.73506C35.8593 10.7018 31.4583 12.478 27.439 15.0185L25.9345 16.0078L21.6458 11.5787C21.4213 11.3313 21.0395 11.3313 20.7925 11.5787L10.5759 21.4711C10.4636 21.5835 10.3963 21.7409 10.3963 21.8983C10.3963 22.0556 10.4636 22.213 10.5759 22.3254L15.2015 27.1143L14.7748 27.8112C12.26 31.9031 10.5085 36.3322 9.58792 41.0087L9.40829 41.8855H2.78432C2.62714 41.9305 2.46996 41.9305 2.35769 42.0429C2.24542 42.1553 2.17805 42.3127 2.17805 42.47V56.7017C2.1556 57.0389 2.42505 57.3087 2.73941 57.3087H9.58792L9.85737 58.1406C10.9352 62.6596 12.7989 66.9089 15.3586 70.7984L15.8302 71.5178L10.9127 76.6664C10.8004 76.7788 10.7331 76.9362 10.7555 77.0936C10.7555 77.2509 10.8229 77.4083 10.9352 77.5207L21.2192 87.3682C21.4662 87.593 21.8479 87.593 22.0724 87.3682L26.8327 82.377L26.8103 82.3546Z" fill="white"/>
<g id="Group_2">
<path id="Vector_2" d="M29.2817 30.8463L27.6875 29.4074C33.0091 23.4495 40.6435 20.0321 48.6148 20.0321C54.0262 20.0321 59.2805 21.5834 63.8162 24.5062L62.6486 26.3048C58.4721 23.6069 53.622 22.1905 48.6148 22.1905C41.2498 22.1905 34.1992 25.338 29.2817 30.8463Z" fill="#61BB73"/>
<path id="Vector_3" d="M42.1927 75.5196C29.4612 72.5294 20.5469 61.2655 20.5469 48.1581C20.5469 47.5061 20.5693 46.8316 20.6142 46.1796L22.7474 46.3369C22.7025 46.944 22.68 47.551 22.68 48.1581C22.68 60.2763 30.8982 70.6634 42.6642 73.4287L42.1702 75.5196H42.1927Z" fill="#61BB73"/>
<path id="Vector_4" d="M60.6042 73.5862L59.6836 71.6527C68.7102 67.3809 74.5482 58.163 74.5482 48.1581C74.5482 45.5501 74.1665 42.9646 73.4031 40.469L75.4464 39.8395C76.2772 42.5149 76.7038 45.3253 76.7038 48.1581C76.7038 58.9724 70.3942 68.9547 60.6042 73.5862Z" fill="#61BB73"/>
<g id="Group_3">
<path id="Vector_5" d="M21.9604 46.0447C24.7754 46.0447 27.0575 43.7598 27.0575 40.9411C27.0575 38.1225 24.7754 35.8375 21.9604 35.8375C19.1453 35.8375 16.8633 38.1225 16.8633 40.9411C16.8633 43.7598 19.1453 46.0447 21.9604 46.0447Z" fill="#61BB73"/>
<path id="Vector_6" d="M21.96 47.1238C18.5695 47.1238 15.7852 44.3585 15.7852 40.9411C15.7852 37.5237 18.547 34.7583 21.96 34.7583C25.3731 34.7583 28.1349 37.5237 28.1349 40.9411C28.1349 44.3585 25.3731 47.1238 21.96 47.1238ZM21.96 36.9166C19.7371 36.9166 17.9408 38.7153 17.9408 40.9411C17.9408 43.1669 19.7371 44.9655 21.96 44.9655C24.183 44.9655 25.9793 43.1669 25.9793 40.9411C25.9793 38.7153 24.183 36.9166 21.96 36.9166Z" fill="#61BB73"/>
</g>
<g id="Group_4">
<path id="Vector_7" d="M67.2533 33.5668C70.0684 33.5668 72.3504 31.2818 72.3504 28.4632C72.3504 25.6446 70.0684 23.3596 67.2533 23.3596C64.4383 23.3596 62.1562 25.6446 62.1562 28.4632C62.1562 31.2818 64.4383 33.5668 67.2533 33.5668Z" fill="#61BB73"/>
<path id="Vector_8" d="M67.253 34.6459C63.84 34.6459 61.0781 31.8806 61.0781 28.4632C61.0781 25.0458 63.84 22.2804 67.253 22.2804C70.666 22.2804 73.4279 25.0458 73.4279 28.4632C73.4279 31.8806 70.666 34.6459 67.253 34.6459ZM67.253 24.4387C65.0301 24.4387 63.2337 26.2374 63.2337 28.4632C63.2337 30.689 65.0301 32.4876 67.253 32.4876C69.476 32.4876 71.2723 30.689 71.2723 28.4632C71.2723 26.2374 69.476 24.4387 67.253 24.4387Z" fill="#61BB73"/>
</g>
<g id="Group_5">
<path id="Vector_9" d="M55.6635 79.2294C58.4785 79.2294 60.7606 76.9444 60.7606 74.1258C60.7606 71.3072 58.4785 69.0222 55.6635 69.0222C52.8485 69.0222 50.5664 71.3072 50.5664 74.1258C50.5664 76.9444 52.8485 79.2294 55.6635 79.2294Z" fill="#61BB73"/>
<path id="Vector_10" d="M55.6632 80.3085C52.2726 80.3085 49.4883 77.5432 49.4883 74.1258C49.4883 70.7084 52.2501 67.943 55.6632 67.943C59.0762 67.943 61.8381 70.7084 61.8381 74.1258C61.8381 77.5432 59.0762 80.3085 55.6632 80.3085ZM55.6632 70.1014C53.4402 70.1014 51.6439 71.9 51.6439 74.1258C51.6439 76.3516 53.4402 78.1502 55.6632 78.1502C57.8861 78.1502 59.6825 76.3516 59.6825 74.1258C59.6825 71.9 57.8861 70.1014 55.6632 70.1014Z" fill="#61BB73"/>
</g>
</g>
</g>
</svg>
