<svg width="95" height="96" viewBox="0 0 95 96" fill="none" xmlns="http://www.w3.org/2000/svg">
<g id="Group">
<g id="Group_2">
<path id="Vector" d="M69.8764 11.5786C69.2477 11.2413 68.6189 10.9491 67.9453 10.6568C64.2628 8.99307 60.2884 7.82396 56.1344 7.26189C55.4383 7.14948 54.7198 7.08203 54.0237 7.01458C52.7663 6.90217 51.5089 6.83472 50.2514 6.83472C26.1132 6.83472 6.48828 26.7995 6.48828 51.3507C6.48828 52.3399 6.51074 53.3292 6.5781 54.2959C6.62301 55.0154 6.69037 55.7348 6.78019 56.4318C7.27418 60.8384 8.39689 65.0652 10.081 68.9772C10.3504 69.6517 10.6423 70.3262 10.9791 70.9557C18.1195 85.682 33.0515 95.8442 50.2739 95.8442C58.8738 95.8442 66.89 93.3036 73.6487 88.942C74.2325 88.5597 74.8163 88.1775 75.4001 87.7504C79.3071 84.9625 82.7426 81.5226 85.5718 77.5881C85.9984 77.0036 86.4026 76.419 86.7843 75.8345C91.365 68.7974 94.037 60.3663 94.037 51.3282C94.037 33.949 84.2021 18.863 69.8988 11.5336L69.8764 11.5786ZM86.5822 73.7436C86.223 74.3506 85.8413 74.9352 85.4371 75.5197C82.2262 80.331 78.0946 84.4679 73.2894 87.6379C72.7056 88.0426 72.1218 88.4024 71.5155 88.7621C65.2508 92.4718 57.9981 94.5851 50.2514 94.5851C34.1293 94.5851 20.073 85.4122 12.8877 71.9225C12.5509 71.2929 12.2365 70.6634 11.9222 70.0114C9.69922 65.3125 8.28462 60.1415 7.9029 54.6781C7.83553 53.9587 7.81308 53.2617 7.79063 52.5423C7.79063 52.1376 7.79063 51.7779 7.79063 51.3732C7.79063 27.5414 26.8542 8.1612 50.2739 8.1612C50.9475 8.1612 51.6436 8.1612 52.3172 8.20617C53.0133 8.22865 53.7094 8.2961 54.4055 8.36355C59.5699 8.85817 64.4874 10.3196 68.9557 12.5454C69.5845 12.8601 70.2132 13.1974 70.8194 13.5346C83.9102 20.909 92.7796 35.0956 92.7796 51.3507C92.7796 59.5344 90.5342 67.1786 86.6272 73.7211L86.5822 73.7436Z" fill="white" stroke="white" stroke-width="0.3" stroke-miterlimit="10"/>
<g id="Group_3">
<path id="Vector_2" d="M70.7737 13.5573C70.5042 12.8828 70.1898 12.2308 69.8755 11.5788C69.2468 11.2415 68.618 10.9493 67.9444 10.657C68.2812 11.2865 68.5956 11.916 68.91 12.568C71.582 18.2112 73.064 24.5289 73.064 31.1838C73.064 35.8377 72.3454 40.3343 70.9757 44.5161C70.841 44.9658 70.6838 45.4154 70.5267 45.8426C66.193 58.0283 56.6051 67.6959 44.5472 71.9676C44.1206 72.1025 43.6715 72.2599 43.2449 72.3948C39.248 73.6763 34.9817 74.3733 30.5583 74.3733C23.8669 74.3733 17.5348 72.7995 11.8989 69.9666C11.2701 69.6519 10.6414 69.3146 10.0352 68.9774C10.3046 69.6519 10.5965 70.3264 10.9333 70.9559C11.562 71.2706 12.2132 71.5854 12.8644 71.8777C18.2983 74.3283 24.2711 75.6773 30.5583 75.6773C35.2961 75.6773 39.8543 74.9129 44.1206 73.474C44.5696 73.3391 44.9963 73.1817 45.4229 73.0243C57.4583 68.5952 67.0463 58.9276 71.5371 46.7644C71.6943 46.3372 71.8514 45.8875 72.0086 45.4379C73.4906 40.9413 74.299 36.1525 74.299 31.1613C74.299 24.8886 73.0191 18.9307 70.7063 13.5348L70.7737 13.5573Z" fill="white"/>
<path id="Vector_3" d="M30.5805 76.0369C24.3607 76.0369 18.3654 74.7554 12.7295 72.1923C12.0783 71.9 11.4271 71.5853 10.7984 71.2705L10.7086 71.2256L10.6637 71.1356C10.3493 70.5286 10.0574 69.8541 9.76552 69.1347L9.40625 68.2353L10.2371 68.73C10.7984 69.0447 11.3822 69.382 12.0783 69.7192C17.849 72.6195 24.0913 74.0809 30.5805 74.0809C34.8917 74.0809 39.1356 73.4289 43.1548 72.1249C43.4692 72.0349 43.806 71.9225 44.1204 71.8101L44.4572 71.6977C56.313 67.4934 65.9458 57.7808 70.2346 45.775C70.3693 45.3703 70.504 44.9431 70.6387 44.5385C72.0309 40.2218 72.727 35.7702 72.727 31.2286C72.727 24.7311 71.3348 18.5258 68.5954 12.7478C68.3484 12.1857 68.0565 11.6011 67.6523 10.8592L67.2032 10.0273L68.079 10.4096C68.7301 10.7018 69.3813 10.9941 70.0325 11.3313L70.1223 11.3763L70.1672 11.4662C70.4816 12.0958 70.7959 12.7702 71.0654 13.4447C73.468 19.0654 74.6805 25.0459 74.6805 31.2062C74.6805 36.1074 73.8946 40.9412 72.3677 45.5952C72.2105 46.0673 72.0534 46.5169 71.8962 46.9441C67.338 59.2647 57.75 68.9098 45.5799 73.4064C45.1533 73.5863 44.7042 73.7212 44.2551 73.8785C39.8316 75.3399 35.2285 76.0818 30.5805 76.0818V76.0369ZM11.2026 70.7309C11.8088 71.0232 12.4151 71.3155 13.0214 71.5853C18.5675 74.1034 24.473 75.3624 30.5805 75.3624C35.1612 75.3624 39.6969 74.6205 44.053 73.1816C44.4796 73.0467 44.9287 72.8893 45.3329 72.7319C57.3459 68.3028 66.7766 58.7926 71.2674 46.6518C71.4246 46.2247 71.5818 45.7975 71.739 45.3703C73.2659 40.7613 74.0293 35.995 74.0293 31.1837C74.0293 25.0908 72.8392 19.2228 70.4591 13.6696C70.2121 13.04 69.8977 12.4105 69.6283 11.8035C69.3139 11.6461 68.9996 11.4887 68.6852 11.3313C68.8873 11.7136 69.0445 12.0508 69.2017 12.388C71.986 18.2336 73.4006 24.5512 73.4006 31.1387C73.4006 35.7477 72.7045 40.2667 71.3124 44.5834C71.1552 45.078 71.0204 45.5052 70.8633 45.9099C66.5072 58.1181 56.7396 67.9656 44.6817 72.2373L44.3449 72.3497C44.0306 72.4621 43.6937 72.5745 43.3569 72.6645C39.2703 73.9685 34.9591 74.643 30.5805 74.643C23.979 74.643 17.6469 73.1591 11.7639 70.2138C11.4047 70.034 11.0679 69.8541 10.731 69.6743C10.8882 70.0115 11.0229 70.3262 11.1801 70.641L11.2026 70.7309Z" fill="white"/>
</g>
<g id="Group_4">
<path id="Vector_4" d="M45.4681 73.0464C45.1762 72.6867 44.8843 72.3495 44.5699 71.9898C38.5747 64.5479 34.9596 55.0152 34.9596 44.6282C34.9596 41.7729 35.229 38.9625 35.7679 36.2421C35.8577 35.7924 35.97 35.3203 36.0598 34.8706C38.5971 23.8091 45.2885 14.3663 54.4049 8.36339C54.9887 7.9587 55.5725 7.59898 56.1788 7.23925C55.4827 7.12684 54.7641 7.05939 54.0681 6.99194C53.4843 7.37415 52.9004 7.75636 52.3166 8.18353C43.4922 14.4787 37.0703 24.0114 34.6901 35.0955C34.5779 35.5451 34.488 36.0173 34.4207 36.5119C33.9267 39.1424 33.6797 41.8403 33.6797 44.6057C33.6797 55.1052 37.2723 64.7728 43.2901 72.3944C43.582 72.7542 43.8739 73.1364 44.1882 73.4736C51.0143 81.6124 60.6471 87.1881 71.5599 88.717C72.2559 88.8294 72.9745 88.8968 73.6705 88.9643C74.2543 88.5821 74.8382 88.1999 75.422 87.7727C74.7259 87.7502 74.0298 87.6828 73.3337 87.6153C62.2638 86.5361 52.4289 81.0953 45.4906 73.0464H45.4681Z" fill="white"/>
<path id="Vector_5" d="M73.7153 89.3241H73.6031C72.8845 89.2566 72.166 89.1892 71.4699 89.0768C60.7593 87.5929 50.9693 82.1521 43.8962 73.721C43.5819 73.3613 43.29 73.0016 42.998 72.6194C36.7558 64.7054 33.3203 54.768 33.3203 44.6283C33.3203 41.8404 33.5673 39.0975 34.0613 36.467C34.1286 35.9949 34.2409 35.5227 34.3307 35.0506C36.6884 24.079 42.9981 14.4338 52.092 7.93631C52.6309 7.53162 53.2147 7.14941 53.8434 6.72223L53.9332 6.65479H54.0455C54.764 6.72223 55.4826 6.78968 56.1786 6.9021L57.0993 7.03699L56.2909 7.50913C55.6397 7.89134 55.0559 8.25106 54.5395 8.61079C45.2884 14.7036 38.8216 24.034 36.3516 34.9157L36.2169 35.5677C36.172 35.815 36.1271 36.0398 36.0597 36.2871C35.5433 38.9851 35.2738 41.7729 35.2738 44.6058C35.2738 54.4757 38.6644 64.1209 44.8168 71.7425C45.0189 71.9898 45.221 72.2147 45.4231 72.462L45.715 72.7992C52.833 81.0729 62.6454 86.199 73.3336 87.2557C74.0297 87.3456 74.7258 87.3906 75.3994 87.4131L76.3649 87.458L75.579 88.0201C74.9952 88.4473 74.4114 88.8295 73.8051 89.2342L73.7153 89.3016V89.3241ZM54.1128 7.37424C53.5066 7.75644 52.9901 8.11617 52.4737 8.49838C43.5145 14.906 37.2947 24.3937 34.9819 35.208C34.8696 35.6576 34.8023 36.1298 34.7125 36.6019C34.2185 39.2099 33.9715 41.9078 33.9715 44.6507C33.9715 54.7905 37.2722 64.3232 43.5145 72.2372C43.8064 72.5969 44.0983 72.9566 44.3902 73.3163C51.351 81.6125 60.9838 86.9859 71.5373 88.4473C72.1884 88.5372 72.8621 88.6271 73.5132 88.6721C73.8051 88.4922 74.097 88.2899 74.3889 88.0875C74.0072 88.065 73.6255 88.0201 73.2213 87.9751C62.3535 86.896 52.3839 81.6799 45.1761 73.2938L44.8842 72.9566C44.6821 72.7093 44.48 72.4845 44.2779 72.2372C38.0357 64.4806 34.5777 54.7006 34.5777 44.6732C34.5777 41.7954 34.8472 38.9626 35.3861 36.2422C35.431 35.9949 35.4759 35.7475 35.5433 35.5002L35.678 34.8482C38.2153 23.7867 44.7719 14.2989 54.1578 8.13865C54.4721 7.93631 54.7865 7.71148 55.1457 7.50913C54.7865 7.46417 54.4497 7.44168 54.0904 7.4192L54.1128 7.37424Z" fill="white"/>
</g>
<g id="Group_5">
<path id="Vector_6" d="M86.5813 73.7434C85.3239 62.5245 79.9573 52.5646 72.0535 45.4601C71.6942 45.1453 71.3349 44.8305 70.9757 44.5383C63.4086 38.1532 53.6635 34.3086 43.0876 34.3086C40.685 34.3086 38.3273 34.5109 36.0145 34.8931C35.543 34.9831 35.0939 35.0505 34.6448 35.1405C23.6647 37.3438 14.1442 43.7064 7.76721 52.5646C7.36303 53.1492 6.93641 53.7337 6.55469 54.3408C6.5996 55.0602 6.66696 55.7797 6.75678 56.4766C7.11604 55.8696 7.49776 55.2851 7.90193 54.7005C13.987 45.55 23.4178 38.8951 34.3978 36.5569C34.8469 36.4445 35.296 36.3545 35.7451 36.2871C38.1252 35.8599 40.5952 35.6351 43.0876 35.6351C53.5288 35.6351 63.1167 39.5021 70.549 45.8872C70.9083 46.202 71.2226 46.4943 71.5819 46.809C79.4184 54.026 84.6053 64.1882 85.4586 75.5421C85.5259 76.2615 85.5484 76.9585 85.5709 77.6555C85.9975 77.0709 86.4017 76.4863 86.7834 75.9018C86.7385 75.1823 86.6711 74.4629 86.5813 73.7659V73.7434Z" fill="white"/>
<path id="Vector_7" d="M85.2788 78.5998L85.2339 77.6555C85.2115 76.8911 85.189 76.2391 85.1217 75.5646C84.3133 64.593 79.4183 54.4533 71.3573 47.0339L70.3244 46.1122C62.7124 39.5697 53.0571 35.9499 43.0875 35.9499C40.6624 35.9499 38.1925 36.1748 35.7899 36.5794C35.3408 36.6469 34.8917 36.7368 34.4426 36.8492C23.6871 39.12 14.3462 45.5051 8.14882 54.8355C7.74465 55.42 7.38538 56.0046 7.02611 56.6116L6.50967 57.466L6.3974 56.4767C6.30758 55.7573 6.26267 55.0603 6.19531 54.3184V54.206L6.24022 54.116C6.6444 53.464 7.09347 52.857 7.45274 52.3399C14.0543 43.1894 23.6871 36.9616 34.5324 34.8033C34.9815 34.7134 35.4531 34.6234 35.9021 34.556C38.2374 34.1738 40.64 33.9714 43.0201 33.9714C53.2592 33.9714 63.2513 37.6361 71.1327 44.2686C71.492 44.5608 71.8513 44.8981 72.2105 45.2128C80.4287 52.5872 85.6157 62.7045 86.8506 73.6986C86.9404 74.418 86.9854 75.1375 87.0527 75.8569V75.9693L87.0078 76.0593C86.5363 76.7562 86.1546 77.3183 85.7728 77.8354L85.2115 78.5998H85.2788ZM43.1099 35.2754C53.2143 35.2754 63.0492 38.9401 70.7735 45.595L71.8064 46.5393C80.0021 54.0711 84.9645 64.3682 85.7728 75.4972C85.8177 75.8794 85.8402 76.2616 85.8626 76.6438C86.0423 76.374 86.2444 76.0817 86.4465 75.767C86.4016 75.0925 86.3342 74.418 86.2668 73.7435C85.0543 62.9068 79.9348 52.9469 71.8513 45.685C71.5144 45.3702 71.1552 45.0555 70.7959 44.7632C63.0268 38.2207 53.1919 34.601 43.1099 34.601C40.7523 34.601 38.3946 34.8033 36.1042 35.1855C35.6327 35.253 35.2061 35.3429 34.757 35.4328C24.0464 37.5687 14.5707 43.7065 8.08146 52.7221C7.7222 53.2167 7.31802 53.7788 6.9363 54.3858C6.95875 54.7456 6.98121 55.0828 7.02611 55.42C7.2282 55.1053 7.43029 54.768 7.65483 54.4533C13.942 44.988 23.4401 38.4905 34.3528 36.1748C34.8019 36.0623 35.251 35.9724 35.7225 35.905C38.17 35.4778 40.6624 35.253 43.1324 35.253L43.1099 35.2754Z" fill="white"/>
</g>
</g>
<g id="Group_6">
<path id="Vector_8" d="M69.5595 18.5486C73.2426 18.5486 76.2284 15.5087 76.2284 11.7588C76.2284 8.0089 73.2426 4.96899 69.5595 4.96899C65.8764 4.96899 62.8906 8.0089 62.8906 11.7588C62.8906 15.5087 65.8764 18.5486 69.5595 18.5486Z" fill="#61BB73"/>
<path id="Vector_9" d="M69.5613 19.223C65.5195 19.223 62.2188 15.873 62.2188 11.7812C62.2188 7.68929 65.4971 4.33936 69.5613 4.33936C73.6255 4.33936 76.9038 7.68929 76.9038 11.7812C76.9038 15.873 73.603 19.223 69.5613 19.223ZM69.5613 5.64336C66.2381 5.64336 63.5436 8.38626 63.5436 11.7587C63.5436 15.1311 66.2381 17.874 69.5613 17.874C72.8845 17.874 75.579 15.1311 75.579 11.7587C75.579 8.38626 72.8845 5.64336 69.5613 5.64336Z" fill="white"/>
</g>
<g id="Group_7">
<path id="Vector_10" d="M53.6845 14.2317C57.3676 14.2317 60.3534 11.1918 60.3534 7.44191C60.3534 3.692 57.3676 0.6521 53.6845 0.6521C50.0014 0.6521 47.0156 3.692 47.0156 7.44191C47.0156 11.1918 50.0014 14.2317 53.6845 14.2317Z" fill="#61BB73"/>
<path id="Vector_11" d="M53.6863 14.8836C49.6445 14.8836 46.3438 11.5337 46.3438 7.44181C46.3438 3.34994 49.6221 0 53.6863 0C57.7505 0 61.0288 3.34994 61.0288 7.44181C61.0288 11.5337 57.728 14.8836 53.6863 14.8836ZM53.6863 1.32649C50.3631 1.32649 47.6686 4.06939 47.6686 7.44181C47.6686 10.8142 50.3631 13.5571 53.6863 13.5571C57.0095 13.5571 59.704 10.8142 59.704 7.44181C59.704 4.06939 57.0095 1.32649 53.6863 1.32649Z" fill="white"/>
</g>
<g id="Group_8">
<path id="Vector_12" d="M35.1845 42.4927C38.8676 42.4927 41.8534 39.4528 41.8534 35.7029C41.8534 31.953 38.8676 28.9131 35.1845 28.9131C31.5014 28.9131 28.5156 31.953 28.5156 35.7029C28.5156 39.4528 31.5014 42.4927 35.1845 42.4927Z" fill="#61BB73"/>
<path id="Vector_13" d="M35.1863 43.1446C31.1445 43.1446 27.8438 39.7947 27.8438 35.7028C27.8438 31.6109 31.1445 28.261 35.1863 28.261C39.228 28.261 42.5288 31.6109 42.5288 35.7028C42.5288 39.7947 39.2505 43.1446 35.1863 43.1446ZM35.1863 29.5875C31.863 29.5875 29.1685 32.3304 29.1685 35.7028C29.1685 39.0752 31.863 41.8181 35.1863 41.8181C38.5095 41.8181 41.204 39.0752 41.204 35.7028C41.204 32.3304 38.5095 29.5875 35.1863 29.5875Z" fill="white"/>
</g>
<g id="Group_9">
<path id="Vector_14" d="M71.4931 52.4749C75.1762 52.4749 78.162 49.435 78.162 45.6851C78.162 41.9352 75.1762 38.8953 71.4931 38.8953C67.81 38.8953 64.8242 41.9352 64.8242 45.6851C64.8242 49.435 67.81 52.4749 71.4931 52.4749Z" fill="#61BB73"/>
<path id="Vector_15" d="M71.4949 53.1268C67.4531 53.1268 64.1523 49.7768 64.1523 45.685C64.1523 41.5931 67.4531 38.2432 71.4949 38.2432C75.5366 38.2432 78.8374 41.5931 78.8374 45.685C78.8374 49.7768 75.5591 53.1268 71.4949 53.1268ZM71.4949 39.5697C68.1716 39.5697 65.4771 42.3126 65.4771 45.685C65.4771 49.0574 68.1716 51.8003 71.4949 51.8003C74.8181 51.8003 77.5126 49.0574 77.5126 45.685C77.5126 42.3126 74.8181 39.5697 71.4949 39.5697Z" fill="white"/>
</g>
<g id="Group_10">
<path id="Vector_16" d="M44.8876 79.1844C48.5707 79.1844 51.5565 76.1445 51.5565 72.3945C51.5565 68.6446 48.5707 65.6047 44.8876 65.6047C41.2045 65.6047 38.2188 68.6446 38.2188 72.3945C38.2188 76.1445 41.2045 79.1844 44.8876 79.1844Z" fill="#61BB73"/>
<path id="Vector_17" d="M44.8894 79.8363C40.8476 79.8363 37.5469 76.4863 37.5469 72.3945C37.5469 68.3026 40.8252 64.9526 44.8894 64.9526C48.9536 64.9526 52.2319 68.3026 52.2319 72.3945C52.2319 76.4863 48.9311 79.8363 44.8894 79.8363ZM44.8894 66.2566C41.5662 66.2566 38.8717 68.9995 38.8717 72.372C38.8717 75.7444 41.5662 78.4873 44.8894 78.4873C48.2126 78.4873 50.9071 75.7444 50.9071 72.372C50.9071 68.9995 48.2126 66.2566 44.8894 66.2566Z" fill="white"/>
</g>
<g id="Group_11">
<path id="Vector_18" d="M7.34076 61.0857C11.0239 61.0857 14.0096 58.0458 14.0096 54.2959C14.0096 50.546 11.0239 47.5061 7.34076 47.5061C3.65764 47.5061 0.671875 50.546 0.671875 54.2959C0.671875 58.0458 3.65764 61.0857 7.34076 61.0857Z" fill="#61BB73"/>
<path id="Vector_19" d="M7.34251 61.7601C3.30076 61.7601 0 58.4101 0 54.3183C0 50.2264 3.30076 46.8765 7.34251 46.8765C11.3843 46.8765 14.685 50.2264 14.685 54.3183C14.685 58.4101 11.3843 61.7601 7.34251 61.7601ZM7.34251 48.1805C4.01929 48.1805 1.3248 50.9234 1.3248 54.2958C1.3248 57.6682 4.01929 60.4111 7.34251 60.4111C10.6657 60.4111 13.3602 57.6682 13.3602 54.2958C13.3602 50.9234 10.6657 48.1805 7.34251 48.1805Z" fill="white"/>
</g>
<g id="Group_12">
<path id="Vector_20" d="M11.5595 77.2058C15.2426 77.2058 18.2284 74.1659 18.2284 70.416C18.2284 66.6661 15.2426 63.6262 11.5595 63.6262C7.87639 63.6262 4.89062 66.6661 4.89062 70.416C4.89062 74.1659 7.87639 77.2058 11.5595 77.2058Z" fill="#61BB73"/>
<path id="Vector_21" d="M11.5613 77.8577C7.51951 77.8577 4.21875 74.5078 4.21875 70.4159C4.21875 66.3241 7.49706 62.9741 11.5613 62.9741C15.6255 62.9741 18.9038 66.3241 18.9038 70.4159C18.9038 74.5078 15.603 77.8577 11.5613 77.8577ZM11.5613 64.2781C8.23804 64.2781 5.54355 67.021 5.54355 70.3935C5.54355 73.7659 8.23804 76.5088 11.5613 76.5088C14.8845 76.5088 17.579 73.7659 17.579 70.3935C17.579 67.021 14.8845 64.2781 11.5613 64.2781Z" fill="white"/>
</g>
<g id="Group_13">
<path id="Vector_22" d="M74.8173 94.4729C78.5004 94.4729 81.4862 91.433 81.4862 87.6831C81.4862 83.9332 78.5004 80.8933 74.8173 80.8933C71.1342 80.8933 68.1484 83.9332 68.1484 87.6831C68.1484 91.433 71.1342 94.4729 74.8173 94.4729Z" fill="#61BB73"/>
<path id="Vector_23" d="M74.8191 95.1473C70.7773 95.1473 67.4766 91.7973 67.4766 87.7055C67.4766 83.6136 70.7549 80.2637 74.8191 80.2637C78.8833 80.2637 82.1616 83.6136 82.1616 87.7055C82.1616 91.7973 78.8608 95.1473 74.8191 95.1473ZM74.8191 81.5677C71.4958 81.5677 68.8013 84.3106 68.8013 87.683C68.8013 91.0554 71.4958 93.7983 74.8191 93.7983C78.1423 93.7983 80.8368 91.0554 80.8368 87.683C80.8368 84.3106 78.1423 81.5677 74.8191 81.5677Z" fill="white"/>
</g>
<g id="Group_14">
<path id="Vector_24" d="M86.4501 82.7144C90.1333 82.7144 93.119 79.6745 93.119 75.9246C93.119 72.1747 90.1333 69.1348 86.4501 69.1348C82.767 69.1348 79.7812 72.1747 79.7812 75.9246C79.7812 79.6745 82.767 82.7144 86.4501 82.7144Z" fill="#61BB73"/>
<path id="Vector_25" d="M86.4519 83.3887C82.4101 83.3887 79.1094 80.0388 79.1094 75.9469C79.1094 71.8551 82.3877 68.5051 86.4519 68.5051C90.5161 68.5051 93.7944 71.8551 93.7944 75.9469C93.7944 80.0388 90.4936 83.3887 86.4519 83.3887ZM86.4519 69.8091C83.1287 69.8091 80.4342 72.552 80.4342 75.9245C80.4342 79.2969 83.1287 82.0398 86.4519 82.0398C89.7751 82.0398 92.4696 79.2969 92.4696 75.9245C92.4696 72.552 89.7751 69.8091 86.4519 69.8091Z" fill="white"/>
</g>
</g>
</svg>
