<svg width="83" height="103" viewBox="0 0 83 103" fill="none" xmlns="http://www.w3.org/2000/svg">
<g id="Group">
<path id="Vector" d="M82.8762 96.3613H73.8047V4.74385L82.8986 4.5415L82.8762 96.3613Z" fill="#61BB73"/>
<path id="Vector_2" d="M82.9025 94.9898V102.432H6.01948L5.83984 94.9673L82.9025 94.9898Z" fill="#61BB73"/>
<path id="Vector_3" d="M75.3561 96.159H0V0.224828L75.446 0L75.3561 96.1365V96.159ZM2.40259 93.7533H72.976L73.0658 2.40566L2.40259 2.60801V93.7533Z" fill="white"/>
<path id="Vector_4" d="M59.0295 23.045H15.4685C14.9745 23.045 14.5703 22.6403 14.5703 22.1456C14.5703 21.651 14.9745 21.2463 15.4685 21.2463H59.0295C59.5235 21.2463 59.9277 21.651 59.9277 22.1456C59.9277 22.6403 59.5235 23.045 59.0295 23.045Z" fill="white"/>
<path id="Vector_5" d="M59.6583 37.2991H15.4685C14.9745 37.2991 14.5703 36.8944 14.5703 36.3998C14.5703 35.9052 14.9745 35.5005 15.4685 35.5005H59.6583C60.1523 35.5005 60.5564 35.9052 60.5564 36.3998C60.5564 36.8944 60.1523 37.2991 59.6583 37.2991Z" fill="white"/>
<path id="Vector_6" d="M42.1216 51.5755H15.4685C14.9745 51.5755 14.5703 51.1708 14.5703 50.6762C14.5703 50.1815 14.9745 49.7769 15.4685 49.7769H42.1216C42.6155 49.7769 43.0197 50.1815 43.0197 50.6762C43.0197 51.1708 42.6155 51.5755 42.1216 51.5755Z" fill="white"/>
</g>
</svg>
