<svg width="233" height="88" viewBox="0 0 233 88" fill="none" xmlns="http://www.w3.org/2000/svg">
<g id="Layer_1" clip-path="url(#clip0_44_7855)">
<path id="Vector" d="M8.90215 15.5055C10.8008 15.5055 12.3399 13.9663 12.3399 12.0677C12.3399 10.169 10.8008 8.62988 8.90215 8.62988C7.00351 8.62988 5.46436 10.169 5.46436 12.0677C5.46436 13.9663 7.00351 15.5055 8.90215 15.5055Z" fill="#61BD73"/>
<path id="Vector_2" d="M8.90195 15.8068C6.83927 15.8068 5.1626 14.1302 5.1626 12.0675C5.1626 10.0048 6.83927 8.32812 8.90195 8.32812C10.9646 8.32812 12.6413 10.0048 12.6413 12.0675C12.6413 14.1302 10.9646 15.8068 8.90195 15.8068ZM8.90195 8.93125C7.17702 8.93125 5.76572 10.3426 5.76572 12.0675C5.76572 13.7924 7.17702 15.2037 8.90195 15.2037C10.6269 15.2037 12.0382 13.7924 12.0382 12.0675C12.0382 10.3426 10.6269 8.93125 8.90195 8.93125Z" fill="#131144"/>
<path id="Vector_3" d="M3.43799 21.4885C3.43799 18.4126 5.92285 15.9277 8.99876 15.9277C12.0747 15.9277 14.5595 18.4126 14.5595 21.4885" fill="#61BD73"/>
<path id="Vector_4" d="M14.8731 21.4883H14.27C14.27 18.5813 11.9058 16.2291 9.01077 16.2291C6.11579 16.2291 3.75156 18.5933 3.75156 21.4883H3.14844C3.14844 18.2556 5.77805 15.626 9.01077 15.626C12.2435 15.626 14.8731 18.2556 14.8731 21.4883Z" fill="#131144"/>
<path id="Vector_5" d="M14.4989 18.5571H3.08786C2.14188 18.5571 1.375 19.324 1.375 20.27V27.8934C1.375 28.8394 2.14188 29.6063 3.08786 29.6063H14.4989C15.4449 29.6063 16.2118 28.8394 16.2118 27.8934V20.27C16.2118 19.324 15.4449 18.5571 14.4989 18.5571Z" fill="#E1E1E1"/>
<path id="Vector_6" d="M14.5113 29.9082H3.08815C1.97841 29.9082 1.07373 29.0035 1.07373 27.8937V20.2703C1.07373 19.1605 1.97841 18.2559 3.08815 18.2559H14.4992C15.6089 18.2559 16.5136 19.1605 16.5136 20.2703V27.8937C16.5136 29.0035 15.6089 29.9082 14.4992 29.9082H14.5113ZM3.08815 18.859C2.31616 18.859 1.67685 19.4862 1.67685 20.2703V27.8937C1.67685 28.6657 2.3041 29.305 3.08815 29.305H14.4992C15.2712 29.305 15.9105 28.6778 15.9105 27.8937V20.2703C15.9105 19.4983 15.2833 18.859 14.4992 18.859H3.08815Z" fill="#131144"/>
<path id="Vector_7" d="M15.8258 30.3906H1.761C1.54782 30.3906 1.375 30.5634 1.375 30.7766C1.375 30.9898 1.54782 31.1626 1.761 31.1626H15.8258C16.039 31.1626 16.2118 30.9898 16.2118 30.7766C16.2118 30.5634 16.039 30.3906 15.8258 30.3906Z" fill="#E1E1E1"/>
<path id="Vector_8" d="M15.8261 31.4518H1.76129C1.38735 31.4518 1.07373 31.1502 1.07373 30.7642C1.07373 30.3782 1.37529 30.0767 1.76129 30.0767H15.8261C16.2 30.0767 16.5136 30.3782 16.5136 30.7642C16.5136 31.1502 16.2 31.4518 15.8261 31.4518ZM1.76129 30.6918C1.76129 30.6918 1.67685 30.728 1.67685 30.7763C1.67685 30.8245 1.71304 30.8607 1.76129 30.8607H15.8261C15.8261 30.8607 15.9105 30.8245 15.9105 30.7763C15.9105 30.728 15.8743 30.6918 15.8261 30.6918H1.76129Z" fill="#131144"/>
<path id="Vector_9" d="M9.63782 22.9722V23.9975L8.79345 23.515L7.96114 23.9975V22.9722L6.95996 23.5512V24.6368L7.90083 25.1917L8.79345 24.673L9.68607 25.1917L10.639 24.6368V23.5512L9.63782 22.9722Z" fill="#131144"/>
<path id="Vector_10" d="M211.973 31.1383L211.575 30.3301L222.817 24.709L223.227 25.5172L211.973 31.1383Z" fill="#131144"/>
<path id="Vector_11" d="M222.818 45.0532L211.572 50.6924L211.977 51.5011L223.224 45.8619L222.818 45.0532Z" fill="#131144"/>
<path id="Vector_12" d="M211.973 71.9576L211.575 71.1494L222.817 65.5283L223.227 66.3365L211.973 71.9576Z" fill="#131144"/>
<path id="Vector_13" d="M192.49 25.1479L192.085 25.957L203.337 31.5844L203.742 30.7753L192.49 25.1479Z" fill="#131144"/>
<path id="Vector_14" d="M203.348 51.9459L192.094 46.3248L192.504 45.5166L203.759 51.1377L203.348 51.9459Z" fill="#131144"/>
<path id="Vector_15" d="M192.497 65.9628L192.092 66.772L203.345 72.3994L203.749 71.5902L192.497 65.9628Z" fill="#131144"/>
<path id="Vector_16" d="M208.342 16.6636H207.438V72.006H208.342V16.6636Z" fill="#131144"/>
<path id="Vector_17" d="M189.079 20.668H188.174V65.9986H189.079V20.668Z" fill="#131144"/>
<path id="Vector_18" d="M227.352 20.668H226.448V65.9986H227.352V20.668Z" fill="#131144"/>
<path id="Vector_19" d="M222.901 22.4653H193.542V23.37H222.901V22.4653Z" fill="#131144"/>
<path id="Vector_20" d="M222.901 42.9717H193.542V43.8764H222.901V42.9717Z" fill="#131144"/>
<path id="Vector_21" d="M222.901 63.4775H193.542V64.3822H222.901V63.4775Z" fill="#131144"/>
<path id="Vector_22" d="M192.504 20.065L192.094 19.2568L203.348 13.6357L203.759 14.4439L192.504 20.065Z" fill="#131144"/>
<path id="Vector_23" d="M192.504 40.4262L192.094 39.618L203.348 33.9849L203.759 34.793L192.504 40.4262Z" fill="#131144"/>
<path id="Vector_24" d="M192.504 60.8964L192.094 60.0882L203.348 54.4551L203.759 55.2633L192.504 60.8964Z" fill="#131144"/>
<path id="Vector_25" d="M223.505 19.8115L212.25 14.1783L212.661 13.3701L223.903 19.0033L223.505 19.8115Z" fill="#131144"/>
<path id="Vector_26" d="M212.639 33.7128L212.234 34.522L223.487 40.1494L223.891 39.3403L212.639 33.7128Z" fill="#131144"/>
<path id="Vector_27" d="M223.505 60.6309L212.25 55.0098L212.661 54.2017L223.903 59.8227L223.505 60.6309Z" fill="#131144"/>
<path id="Vector_28" d="M188.632 27.833C191.343 27.833 193.541 25.635 193.541 22.9236C193.541 20.2122 191.343 18.0142 188.632 18.0142C185.921 18.0142 183.723 20.2122 183.723 22.9236C183.723 25.635 185.921 27.833 188.632 27.833Z" fill="#55CBDE"/>
<path id="Vector_29" d="M188.632 28.2795C185.677 28.2795 183.264 25.8791 183.264 22.9117C183.264 19.9444 185.665 17.5439 188.632 17.5439C191.599 17.5439 194 19.9444 194 22.9117C194 25.8791 191.599 28.2795 188.632 28.2795ZM188.632 18.4607C186.171 18.4607 184.169 20.4631 184.169 22.9238C184.169 25.3845 186.171 27.3869 188.632 27.3869C191.093 27.3869 193.095 25.3845 193.095 22.9238C193.095 20.4631 191.093 18.4607 188.632 18.4607Z" fill="#131144"/>
<path id="Vector_30" d="M188.632 68.8335C191.343 68.8335 193.541 66.6354 193.541 63.9241C193.541 61.2127 191.343 59.0146 188.632 59.0146C185.921 59.0146 183.723 61.2127 183.723 63.9241C183.723 66.6354 185.921 68.8335 188.632 68.8335Z" fill="#55CBDE"/>
<path id="Vector_31" d="M188.632 69.2917C185.677 69.2917 183.264 66.8913 183.264 63.9239C183.264 60.9566 185.665 58.5562 188.632 58.5562C191.599 58.5562 194 60.9566 194 63.9239C194 66.8913 191.599 69.2917 188.632 69.2917ZM188.632 59.4729C186.171 59.4729 184.169 61.4753 184.169 63.936C184.169 66.3967 186.171 68.3991 188.632 68.3991C191.093 68.3991 193.095 66.3967 193.095 63.936C193.095 61.4753 191.093 59.4729 188.632 59.4729Z" fill="#131144"/>
<path id="Vector_32" d="M188.632 48.3271C191.343 48.3271 193.541 46.1291 193.541 43.4177C193.541 40.7063 191.343 38.5083 188.632 38.5083C185.921 38.5083 183.723 40.7063 183.723 43.4177C183.723 46.1291 185.921 48.3271 188.632 48.3271Z" fill="#55CBDE"/>
<path id="Vector_33" d="M188.632 48.7858C185.677 48.7858 183.264 46.3854 183.264 43.4181C183.264 40.4507 185.665 38.0503 188.632 38.0503C191.599 38.0503 194 40.4507 194 43.4181C194 46.3854 191.599 48.7858 188.632 48.7858ZM188.632 38.967C186.171 38.967 184.169 40.9694 184.169 43.4301C184.169 45.8909 186.171 47.8932 188.632 47.8932C191.093 47.8932 193.095 45.8909 193.095 43.4301C193.095 40.9694 191.093 38.967 188.632 38.967Z" fill="#131144"/>
<path id="Vector_34" d="M226.906 27.833C229.617 27.833 231.815 25.635 231.815 22.9236C231.815 20.2122 229.617 18.0142 226.906 18.0142C224.195 18.0142 221.997 20.2122 221.997 22.9236C221.997 25.635 224.195 27.833 226.906 27.833Z" fill="#A590DD"/>
<path id="Vector_35" d="M226.906 28.2795C223.951 28.2795 221.539 25.8791 221.539 22.9117C221.539 19.9444 223.939 17.5439 226.906 17.5439C229.874 17.5439 232.274 19.9444 232.274 22.9117C232.274 25.8791 229.874 28.2795 226.906 28.2795ZM226.906 18.4607C224.446 18.4607 222.443 20.4631 222.443 22.9238C222.443 25.3845 224.446 27.3869 226.906 27.3869C229.367 27.3869 231.369 25.3845 231.369 22.9238C231.369 20.4631 229.367 18.4607 226.906 18.4607Z" fill="#131144"/>
<path id="Vector_36" d="M226.906 68.8335C229.617 68.8335 231.815 66.6354 231.815 63.9241C231.815 61.2127 229.617 59.0146 226.906 59.0146C224.195 59.0146 221.997 61.2127 221.997 63.9241C221.997 66.6354 224.195 68.8335 226.906 68.8335Z" fill="#A590DD"/>
<path id="Vector_37" d="M226.906 69.2917C223.951 69.2917 221.539 66.8913 221.539 63.9239C221.539 60.9566 223.939 58.5562 226.906 58.5562C229.874 58.5562 232.274 60.9566 232.274 63.9239C232.274 66.8913 229.874 69.2917 226.906 69.2917ZM226.906 59.4729C224.446 59.4729 222.443 61.4753 222.443 63.936C222.443 66.3967 224.446 68.3991 226.906 68.3991C229.367 68.3991 231.369 66.3967 231.369 63.936C231.369 61.4753 229.367 59.4729 226.906 59.4729Z" fill="#131144"/>
<path id="Vector_38" d="M226.906 48.3271C229.617 48.3271 231.815 46.1291 231.815 43.4177C231.815 40.7063 229.617 38.5083 226.906 38.5083C224.195 38.5083 221.997 40.7063 221.997 43.4177C221.997 46.1291 224.195 48.3271 226.906 48.3271Z" fill="#A590DD"/>
<path id="Vector_39" d="M226.906 48.7858C223.951 48.7858 221.539 46.3854 221.539 43.4181C221.539 40.4507 223.939 38.0503 226.906 38.0503C229.874 38.0503 232.274 40.4507 232.274 43.4181C232.274 46.3854 229.874 48.7858 226.906 48.7858ZM226.906 38.967C224.446 38.967 222.443 40.9694 222.443 43.4301C222.443 45.8909 224.446 47.8932 226.906 47.8932C229.367 47.8932 231.369 45.8909 231.369 43.4301C231.369 40.9694 229.367 38.967 226.906 38.967Z" fill="#131144"/>
<path id="Vector_40" d="M207.896 16.6635C210.607 16.6635 212.805 14.4655 212.805 11.7541C212.805 9.04274 210.607 6.84473 207.896 6.84473C205.184 6.84473 202.986 9.04274 202.986 11.7541C202.986 14.4655 205.184 16.6635 207.896 16.6635Z" fill="#61BD73"/>
<path id="Vector_41" d="M207.896 17.1218C204.94 17.1218 202.528 14.7214 202.528 11.754C202.528 8.78665 204.928 6.38623 207.896 6.38623C210.863 6.38623 213.263 8.78665 213.263 11.754C213.263 14.7214 210.863 17.1218 207.896 17.1218ZM207.896 7.30297C205.435 7.30297 203.433 9.30534 203.433 11.7661C203.433 14.2268 205.435 16.2292 207.896 16.2292C210.356 16.2292 212.359 14.2268 212.359 11.7661C212.359 9.30534 210.356 7.30297 207.896 7.30297Z" fill="#131144"/>
<path id="Vector_42" d="M207.896 78.1816C210.607 78.1816 212.805 75.9836 212.805 73.2722C212.805 70.5608 210.607 68.3628 207.896 68.3628C205.184 68.3628 202.986 70.5608 202.986 73.2722C202.986 75.9836 205.184 78.1816 207.896 78.1816Z" fill="#61BD73"/>
<path id="Vector_43" d="M207.896 78.6281C204.94 78.6281 202.528 76.2277 202.528 73.2604C202.528 70.293 204.928 67.8926 207.896 67.8926C210.863 67.8926 213.263 70.293 213.263 73.2604C213.263 76.2277 210.863 78.6281 207.896 78.6281ZM207.896 68.8093C205.435 68.8093 203.433 70.8117 203.433 73.2724C203.433 75.7332 205.435 77.7355 207.896 77.7355C210.356 77.7355 212.359 75.7332 212.359 73.2724C212.359 70.8117 210.356 68.8093 207.896 68.8093Z" fill="#131144"/>
<path id="Vector_44" d="M207.896 57.6757C210.607 57.6757 212.805 55.4777 212.805 52.7663C212.805 50.0549 210.607 47.8569 207.896 47.8569C205.184 47.8569 202.986 50.0549 202.986 52.7663C202.986 55.4777 205.184 57.6757 207.896 57.6757Z" fill="#61BD73"/>
<path id="Vector_45" d="M207.896 58.1218C204.94 58.1218 202.528 55.7214 202.528 52.754C202.528 49.7867 204.928 47.3862 207.896 47.3862C210.863 47.3862 213.263 49.7867 213.263 52.754C213.263 55.7214 210.863 58.1218 207.896 58.1218ZM207.896 48.303C205.435 48.303 203.433 50.3053 203.433 52.7661C203.433 55.2268 205.435 57.2292 207.896 57.2292C210.356 57.2292 212.359 55.2268 212.359 52.7661C212.359 50.3053 210.356 48.303 207.896 48.303Z" fill="#131144"/>
<path id="Vector_46" d="M207.896 37.1694C210.607 37.1694 212.805 34.9714 212.805 32.26C212.805 29.5486 210.607 27.3506 207.896 27.3506C205.184 27.3506 202.986 29.5486 202.986 32.26C202.986 34.9714 205.184 37.1694 207.896 37.1694Z" fill="#61BD73"/>
<path id="Vector_47" d="M207.896 37.6159C204.94 37.6159 202.528 35.2155 202.528 32.2482C202.528 29.2808 204.928 26.8804 207.896 26.8804C210.863 26.8804 213.263 29.2808 213.263 32.2482C213.263 35.2155 210.863 37.6159 207.896 37.6159ZM207.896 27.7971C205.435 27.7971 203.433 29.7995 203.433 32.2602C203.433 34.7209 205.435 36.7233 207.896 36.7233C210.356 36.7233 212.359 34.7209 212.359 32.2602C212.359 29.7995 210.356 27.7971 207.896 27.7971Z" fill="#131144"/>
<path id="Vector_48" d="M91.0471 87.663C90.3957 87.663 89.7444 87.4941 89.1654 87.1564L54.703 67.2655C53.545 66.59 52.8213 65.3355 52.8213 63.9965V24.2026C52.8213 22.8637 53.545 21.6092 54.703 20.9337L89.1654 1.04275C90.3354 0.367259 91.7709 0.367259 92.9409 1.04275L127.403 20.9337C128.561 21.6092 129.285 22.8516 129.285 24.2026V63.9965C129.285 65.3355 128.561 66.59 127.403 67.2655L92.9409 87.1564C92.3619 87.4941 91.7105 87.663 91.0592 87.663H91.0471ZM91.0471 1.23575C90.5164 1.23575 89.9856 1.36844 89.5031 1.64588L55.0408 21.5368C54.0878 22.0796 53.4968 23.1049 53.4968 24.2026V63.9965C53.4968 65.0942 54.0878 66.1075 55.0408 66.6623L89.5031 86.5533C90.456 87.0961 91.6382 87.0961 92.579 86.5533L127.041 66.6623C127.994 66.1075 128.585 65.0942 128.585 63.9965V24.2026C128.585 23.1049 127.994 22.0796 127.041 21.5368L92.579 1.64588C92.1086 1.36844 91.5779 1.23575 91.035 1.23575H91.0471Z" fill="#131144"/>
<path id="Vector_49" d="M91.0473 87.9644C90.3356 87.9644 89.6239 87.7714 89.0087 87.4216L54.5464 67.5306C53.2919 66.8069 52.5078 65.4559 52.5078 63.9963V24.2024C52.5078 22.7549 53.2919 21.4039 54.5464 20.6681L89.0087 0.777184C90.2632 0.0534387 91.8192 0.0534387 93.0858 0.777184L127.548 20.6681C128.803 21.3919 129.587 22.7429 129.587 24.2024V63.9963C129.587 65.4438 128.803 66.7948 127.548 67.5186L93.0858 87.4095C92.4706 87.7593 91.7589 87.9523 91.0473 87.9523V87.9644ZM91.0473 0.837496C90.4441 0.837496 89.841 0.994308 89.3103 1.29587L54.8479 21.1868C53.7744 21.802 53.1109 22.96 53.1109 24.1903V63.9843C53.1109 65.2146 53.7744 66.3726 54.8479 66.9878L89.3103 86.8788C90.3597 87.4819 91.7227 87.4819 92.7842 86.8788L127.247 66.9878C128.32 66.3726 128.984 65.2146 128.984 63.9843V24.2024C128.984 22.972 128.32 21.814 127.247 21.1989L92.7842 1.29587C92.2535 0.982245 91.6504 0.837496 91.0473 0.837496ZM91.0473 87.2648C90.4683 87.2648 89.8772 87.12 89.3585 86.8184L54.8962 66.9275C53.8467 66.3244 53.2074 65.2026 53.2074 63.9963V24.2024C53.2074 22.9962 53.8588 21.8744 54.8962 21.2712L89.3585 1.38031C90.3838 0.789246 91.7107 0.789246 92.736 1.38031L127.198 21.2712C128.236 21.8744 128.887 22.9962 128.887 24.2024V63.9963C128.887 65.2026 128.236 66.3244 127.198 66.9275L92.736 86.8184C92.2173 87.12 91.6263 87.2648 91.0473 87.2648ZM91.0473 1.52505C90.5648 1.52505 90.0823 1.65774 89.6601 1.89899L55.1977 21.7899C54.3413 22.2845 53.8106 23.2012 53.8106 24.1903V63.9843C53.8106 64.9734 54.3413 65.8901 55.1977 66.3847L89.6601 86.2756C90.5165 86.7702 91.578 86.7702 92.4344 86.2756L126.897 66.3847C127.753 65.8901 128.284 64.9734 128.284 63.9843V24.2024C128.284 23.2133 127.753 22.2965 126.897 21.802L92.4344 1.89899C92.0122 1.65774 91.5298 1.52505 91.0473 1.52505Z" fill="#131144"/>
<path id="Vector_50" d="M91.3487 0.958008H90.7456V31.4759H91.3487V0.958008Z" fill="#131144"/>
<path id="Vector_51" d="M53.7379 66.1314L53.4243 65.6127L91.5778 42.9595L128.971 65.6127L128.658 66.1314L91.5778 43.6591L53.7379 66.1314Z" fill="#131144"/>
<path id="Vector_52" d="M110.42 55.1666V33.032C110.42 32.9596 110.383 32.8873 110.311 32.8511L91.1439 21.7898C91.0836 21.7536 90.9991 21.7536 90.9388 21.7898L71.7716 32.8511C71.7113 32.8873 71.6631 32.9596 71.6631 33.032V55.1666C71.6631 55.2389 71.6993 55.3113 71.7716 55.3475L90.9388 66.4087C90.9991 66.4449 91.0836 66.4449 91.1439 66.4087L110.311 55.3475C110.371 55.3113 110.42 55.2389 110.42 55.1666Z" fill="#131144"/>
<path id="Vector_53" d="M91.0472 66.3846C90.6974 66.3846 90.3476 66.3002 90.046 66.1193L72.4831 55.9748C71.8679 55.6129 71.4819 54.9495 71.4819 54.2378V33.9488C71.4819 33.2371 71.8679 32.5737 72.4831 32.2118L90.046 22.0673C90.6612 21.7054 91.4332 21.7054 92.0484 22.0673L109.611 32.2118C110.226 32.5737 110.612 33.2371 110.612 33.9488V54.2378C110.612 54.9495 110.226 55.6129 109.611 55.9748L92.0484 66.1193C91.7347 66.3002 91.397 66.3846 91.0472 66.3846ZM91.0472 22.2C90.7698 22.2 90.4923 22.2724 90.239 22.4171L72.6761 32.5616C72.1816 32.8511 71.8679 33.3819 71.8679 33.9488V54.2378C71.8679 54.8047 72.1695 55.3475 72.6761 55.625L90.239 65.7695C90.7336 66.059 91.3487 66.059 91.8433 65.7695L109.406 55.625C109.901 55.3355 110.214 54.8047 110.214 54.2378V33.9488C110.214 33.3819 109.913 32.839 109.406 32.5616L91.8433 22.4171C91.6021 22.2724 91.3126 22.2 91.0351 22.2H91.0472Z" fill="#131144"/>
<path id="Vector_54" d="M96.5716 36.8076V43.6108L91.047 40.4143L85.5224 43.6108V36.8076L78.9604 40.5952V47.7965L85.1726 51.3911L91.047 48.0015L96.9093 51.3911L103.121 47.7965V40.6073L96.5716 36.8076Z" fill="#61BD73"/>
<path id="Vector_55" d="M34.9446 55.7817H21.5674V72.9104H34.9446V55.7817Z" fill="white"/>
<path id="Vector_56" d="M35.403 73.3688H21.1211V55.3354H35.403V73.3688ZM22.0258 72.4641H34.4983V56.2401H22.0258V72.4641Z" fill="#131144"/>
<path id="Vector_57" d="M32.8582 61.6319H23.6546C23.4857 61.6319 23.353 61.4992 23.353 61.3304C23.353 61.1615 23.4857 61.0288 23.6546 61.0288H32.8582C33.0271 61.0288 33.1598 61.1615 33.1598 61.3304C33.1598 61.4992 33.0271 61.6319 32.8582 61.6319Z" fill="#131144"/>
<path id="Vector_58" d="M32.8582 63.128H23.6546C23.4857 63.128 23.353 62.9953 23.353 62.8265C23.353 62.6576 23.4857 62.5249 23.6546 62.5249H32.8582C33.0271 62.5249 33.1598 62.6576 33.1598 62.8265C33.1598 62.9953 33.0271 63.128 32.8582 63.128Z" fill="#131144"/>
<path id="Vector_59" d="M32.8582 64.6236H23.6546C23.4857 64.6236 23.353 64.4909 23.353 64.3221C23.353 64.1532 23.4857 64.0205 23.6546 64.0205H32.8582C33.0271 64.0205 33.1598 64.1532 33.1598 64.3221C33.1598 64.4909 33.0271 64.6236 32.8582 64.6236Z" fill="#131144"/>
<path id="Vector_60" d="M32.8582 66.1192H23.6546C23.4857 66.1192 23.353 65.9865 23.353 65.8177C23.353 65.6488 23.4857 65.5161 23.6546 65.5161H32.8582C33.0271 65.5161 33.1598 65.6488 33.1598 65.8177C33.1598 65.9865 33.0271 66.1192 32.8582 66.1192Z" fill="#131144"/>
<path id="Vector_61" d="M32.8582 68.797H23.6546C23.4857 68.797 23.353 68.6643 23.353 68.4954C23.353 68.3265 23.4857 68.1938 23.6546 68.1938H32.8582C33.0271 68.1938 33.1598 68.3265 33.1598 68.4954C33.1598 68.6643 33.0271 68.797 32.8582 68.797Z" fill="#131144"/>
<path id="Vector_62" d="M26.1033 70.2931H23.6546C23.4857 70.2931 23.353 70.1604 23.353 69.9915C23.353 69.8226 23.4857 69.6899 23.6546 69.6899H26.1033C26.2721 69.6899 26.4048 69.8226 26.4048 69.9915C26.4048 70.1604 26.2721 70.2931 26.1033 70.2931Z" fill="#131144"/>
<path id="Vector_63" d="M25.2103 58.0859H23.6543V59.8953H25.2103V58.0859Z" fill="#61BD73"/>
<path id="Vector_64" d="M163.663 14.251H150.286V31.3796H163.663V14.251Z" fill="white"/>
<path id="Vector_65" d="M164.121 31.838H149.839V13.8047H164.121V31.838ZM150.744 30.9333H163.217V14.7094H150.744V30.9333Z" fill="#131144"/>
<path id="Vector_66" d="M161.576 20.1012H152.372C152.203 20.1012 152.071 19.9685 152.071 19.7996C152.071 19.6307 152.203 19.498 152.372 19.498H161.576C161.745 19.498 161.878 19.6307 161.878 19.7996C161.878 19.9685 161.745 20.1012 161.576 20.1012Z" fill="#131144"/>
<path id="Vector_67" d="M161.576 21.5968H152.372C152.203 21.5968 152.071 21.4641 152.071 21.2952C152.071 21.1263 152.203 20.9937 152.372 20.9937H161.576C161.745 20.9937 161.878 21.1263 161.878 21.2952C161.878 21.4641 161.745 21.5968 161.576 21.5968Z" fill="#131144"/>
<path id="Vector_68" d="M161.576 23.0929H152.372C152.203 23.0929 152.071 22.9602 152.071 22.7913C152.071 22.6224 152.203 22.4897 152.372 22.4897H161.576C161.745 22.4897 161.878 22.6224 161.878 22.7913C161.878 22.9602 161.745 23.0929 161.576 23.0929Z" fill="#131144"/>
<path id="Vector_69" d="M161.576 24.5885H152.372C152.203 24.5885 152.071 24.4558 152.071 24.2869C152.071 24.118 152.203 23.9854 152.372 23.9854H161.576C161.745 23.9854 161.878 24.118 161.878 24.2869C161.878 24.4558 161.745 24.5885 161.576 24.5885Z" fill="#131144"/>
<path id="Vector_70" d="M161.576 27.2662H152.372C152.203 27.2662 152.071 27.1335 152.071 26.9646C152.071 26.7958 152.203 26.6631 152.372 26.6631H161.576C161.745 26.6631 161.878 26.7958 161.878 26.9646C161.878 27.1335 161.745 27.2662 161.576 27.2662Z" fill="#131144"/>
<path id="Vector_71" d="M154.821 28.7501H152.372C152.203 28.7501 152.071 28.6174 152.071 28.4485C152.071 28.2797 152.203 28.147 152.372 28.147H154.821C154.99 28.147 155.123 28.2797 155.123 28.4485C155.123 28.6174 154.99 28.7501 154.821 28.7501Z" fill="#131144"/>
<path id="Vector_72" d="M153.929 16.543H152.373V18.3523H153.929V16.543Z" fill="#61BD73"/>
<path id="Vector_73" d="M49.1303 22.3691H37.3091V23.2738H49.1303V22.3691Z" fill="#131144"/>
<path id="Vector_74" d="M47.3451 25.0347L46.9712 24.6366L48.9253 22.8152L46.9712 20.9938L47.3451 20.5957L49.7335 22.8152L47.3451 25.0347Z" fill="#131144"/>
<path id="Vector_75" d="M144.134 22.3691H132.312V23.2738H144.134V22.3691Z" fill="#131144"/>
<path id="Vector_76" d="M142.336 25.0347L141.975 24.6366L143.929 22.8152L141.975 20.9938L142.336 20.5957L144.725 22.8152L142.336 25.0347Z" fill="#131144"/>
<path id="Vector_77" d="M180.188 22.5137H168.234V23.1168H180.188V22.5137Z" fill="#131144"/>
<path id="Vector_78" d="M178.789 24.5402L178.5 24.2386L180.031 22.8153L178.5 21.404L178.789 21.0903L180.647 22.8153L178.789 24.5402Z" fill="#131144"/>
<path id="Vector_79" d="M180.647 64.0444H168.693V64.6476H180.647V64.0444Z" fill="#131144"/>
<path id="Vector_80" d="M170.092 62.6211L170.381 62.9347L168.85 64.346L170.381 65.7694L170.092 66.083L168.234 64.346L170.092 62.6211Z" fill="#131144"/>
<path id="Vector_81" d="M144.725 63.8999H132.904V64.8046H144.725V63.8999Z" fill="#131144"/>
<path id="Vector_82" d="M134.701 62.1265L135.075 62.5245L133.109 64.346L135.075 66.1794L134.701 66.5654L132.312 64.346L134.701 62.1265Z" fill="#131144"/>
<path id="Vector_83" d="M50.1434 63.8999H38.3223V64.8046H50.1434V63.8999Z" fill="#131144"/>
<path id="Vector_84" d="M40.1198 62.1265L40.4937 62.5245L38.5276 64.346L40.4937 66.1794L40.1198 66.5654L37.7314 64.346L40.1198 62.1265Z" fill="#131144"/>
<path id="Vector_85" d="M9.09531 38.5811H8.49219V50.5349H9.09531V38.5811Z" fill="#131144"/>
<path id="Vector_86" d="M10.5303 39.9802L10.2167 40.2576L8.79329 38.7377L7.38198 40.2576L7.06836 39.9802L8.79329 38.1226L10.5303 39.9802Z" fill="#131144"/>
<path id="Vector_87" d="M25.9221 18.5693V17.7249L25.9583 17.7731C25.91 17.8696 25.8376 17.942 25.7411 17.9903C25.6446 18.0385 25.5361 18.0626 25.4275 18.0626C25.2948 18.0626 25.1742 18.0264 25.0656 17.9661C24.9571 17.9058 24.8726 17.8093 24.8123 17.7008C24.752 17.5922 24.7158 17.4595 24.7158 17.3148C24.7158 17.17 24.752 17.0373 24.8123 16.9288C24.8726 16.8202 24.9571 16.7237 25.0656 16.6634C25.1742 16.6031 25.2948 16.5669 25.4275 16.5669C25.5481 16.5669 25.6567 16.591 25.7411 16.6393C25.8376 16.6875 25.91 16.7599 25.9583 16.8443L25.9221 16.9046V16.591H26.1633V18.5572H25.91L25.9221 18.5693ZM25.4396 17.8334C25.524 17.8334 25.6084 17.8093 25.6808 17.7611C25.7532 17.7128 25.8135 17.6525 25.8497 17.5801C25.8859 17.5078 25.91 17.4113 25.91 17.3268C25.91 17.2424 25.8859 17.1459 25.8497 17.0615C25.8014 16.9891 25.7532 16.9288 25.6808 16.8805C25.6084 16.8323 25.524 16.8081 25.4396 16.8081C25.3551 16.8081 25.2707 16.8323 25.1983 16.8805C25.1259 16.9288 25.0656 16.9891 25.0294 17.0615C24.9933 17.1338 24.9691 17.2183 24.9691 17.3268C24.9691 17.4354 24.9933 17.5078 25.0294 17.5801C25.0656 17.6525 25.1259 17.7249 25.1983 17.7611C25.2707 17.8093 25.3551 17.8334 25.4396 17.8334Z" fill="#131144"/>
<path id="Vector_88" d="M27.056 18.0745C26.9474 18.0745 26.863 18.0504 26.7786 18.0021C26.6941 17.9539 26.6338 17.8936 26.5856 17.7971C26.5373 17.7126 26.5132 17.6161 26.5132 17.4955V16.6029H26.7665V17.4714C26.7665 17.5438 26.7786 17.6041 26.8147 17.6523C26.8509 17.7006 26.8871 17.7488 26.9354 17.7729C26.9836 17.8091 27.0439 17.8212 27.1163 17.8212C27.1887 17.8212 27.249 17.8091 27.2972 17.7729C27.3455 17.7488 27.3937 17.7006 27.4179 17.6403C27.442 17.5799 27.4661 17.5196 27.4661 17.4352V16.5908H27.7194V18.0262H27.4782V17.7488L27.5144 17.7729C27.4782 17.8694 27.4179 17.9297 27.3455 17.9901C27.2611 18.0383 27.1766 18.0624 27.0681 18.0624L27.056 18.0745Z" fill="#131144"/>
<path id="Vector_89" d="M28.7569 18.0748C28.6243 18.0748 28.4916 18.0387 28.383 17.9783C28.2745 17.918 28.19 17.8215 28.1297 17.713C28.0694 17.6044 28.0332 17.4717 28.0332 17.327C28.0332 17.1822 28.0694 17.0495 28.1297 16.941C28.19 16.8324 28.2745 16.7359 28.383 16.6756C28.4916 16.6153 28.6122 16.5791 28.7449 16.5791C28.8534 16.5791 28.9499 16.6032 29.0344 16.6394C29.1188 16.6756 29.1912 16.7238 29.2394 16.7962C29.2877 16.8686 29.3359 16.941 29.3721 17.0133C29.4083 17.0978 29.4204 17.1822 29.4204 17.2667C29.4204 17.2908 29.4204 17.3149 29.4204 17.339C29.4204 17.3632 29.4204 17.3873 29.4204 17.4114H28.2383V17.1943H29.2756L29.155 17.2908C29.1671 17.1943 29.155 17.1098 29.1309 17.0375C29.0947 16.9651 29.0464 16.9048 28.9861 16.8686C28.9258 16.8203 28.8414 16.8083 28.7569 16.8083C28.6725 16.8083 28.6001 16.8324 28.5278 16.8686C28.4554 16.9168 28.4071 16.9772 28.371 17.0495C28.3348 17.1219 28.3227 17.2184 28.3227 17.327C28.3227 17.4355 28.3227 17.52 28.371 17.6044C28.4192 17.6888 28.4675 17.7492 28.5398 17.7853C28.6122 17.8336 28.6966 17.8457 28.7811 17.8457C28.8776 17.8457 28.962 17.8215 29.0223 17.7853C29.0826 17.7371 29.1429 17.6888 29.1791 17.6165L29.3842 17.725C29.3601 17.7853 29.3118 17.8457 29.2515 17.906C29.1912 17.9542 29.1188 18.0025 29.0344 18.0387C28.9499 18.0748 28.8655 18.0869 28.769 18.0869L28.7569 18.0748Z" fill="#131144"/>
<path id="Vector_90" d="M29.7217 18.0383V16.6029H29.9629V16.8683L29.9388 16.8321C29.975 16.7476 30.0232 16.6873 30.0956 16.6511C30.168 16.6149 30.2524 16.5908 30.3489 16.5908H30.4334V16.8321H30.3127C30.2162 16.8321 30.1318 16.8683 30.0715 16.9286C30.0112 16.9889 29.975 17.0733 29.975 17.1939V18.0504H29.7217V18.0383Z" fill="#131144"/>
<path id="Vector_91" d="M30.7349 18.6294C30.7349 18.6294 30.6746 18.6294 30.6384 18.6294C30.6022 18.6294 30.5781 18.6173 30.5419 18.6052V18.3881C30.5419 18.3881 30.5901 18.3881 30.6143 18.3881C30.6384 18.3881 30.6746 18.3881 30.6987 18.3881C30.7832 18.3881 30.8435 18.364 30.8917 18.3278C30.94 18.2916 30.9761 18.2313 31.0123 18.1348L31.1088 17.9177V18.1348L30.4937 16.5908H30.759L31.2415 17.8091H31.1571L31.6275 16.5908H31.905L31.2536 18.1951C31.2174 18.2675 31.1812 18.3399 31.133 18.4002C31.0847 18.4605 31.0244 18.5087 30.9641 18.557C30.8917 18.5932 30.8193 18.6173 30.7228 18.6173L30.7349 18.6294Z" fill="#131144"/>
<path id="Vector_92" d="M23.4613 28.5689V26.6027H23.7025V26.9164L23.6663 26.856C23.7146 26.7716 23.787 26.6992 23.8835 26.651C23.98 26.6027 24.0765 26.5786 24.1971 26.5786C24.3298 26.5786 24.4504 26.6148 24.559 26.6751C24.6675 26.7354 24.752 26.8319 24.8123 26.9405C24.8726 27.049 24.9088 27.1817 24.9088 27.3265C24.9088 27.4712 24.8726 27.5919 24.8123 27.7125C24.752 27.821 24.6675 27.9175 24.559 27.9779C24.4504 28.0382 24.3298 28.0744 24.1971 28.0744C24.0765 28.0744 23.98 28.0502 23.8835 28.002C23.787 27.9537 23.7146 27.8814 23.6663 27.7849L23.7025 27.7366V28.581H23.4492L23.4613 28.5689ZM24.185 27.8331C24.2815 27.8331 24.3539 27.809 24.4263 27.7607C24.4986 27.7125 24.5469 27.6522 24.5951 27.5798C24.6313 27.5074 24.6555 27.4109 24.6555 27.3265C24.6555 27.242 24.6313 27.1455 24.5951 27.0611C24.559 26.9887 24.4986 26.9284 24.4263 26.8802C24.3539 26.8319 24.2815 26.8078 24.185 26.8078C24.0885 26.8078 24.0162 26.8319 23.9438 26.8802C23.8714 26.9284 23.8111 26.9887 23.7749 27.0611C23.7387 27.1335 23.7146 27.2179 23.7146 27.3265C23.7146 27.435 23.7387 27.5074 23.7749 27.5798C23.8111 27.6522 23.8714 27.7245 23.9438 27.7607C24.0162 27.809 24.1006 27.8331 24.185 27.8331Z" fill="#131144"/>
<path id="Vector_93" d="M25.2466 28.0383V26.6029H25.4878V26.8683L25.4637 26.8321C25.4999 26.7476 25.5481 26.6873 25.6205 26.6511C25.6929 26.6149 25.7773 26.5908 25.8738 26.5908H25.9583V26.8321H25.8376C25.7411 26.8321 25.6567 26.8683 25.5964 26.9286C25.5361 26.9889 25.4999 27.0733 25.4999 27.1939V28.0504H25.2466V28.0383Z" fill="#131144"/>
<path id="Vector_94" d="M26.851 28.0621C26.7184 28.0621 26.5857 28.026 26.4771 27.9656C26.3685 27.9053 26.272 27.8088 26.2117 27.7003C26.1514 27.5917 26.1152 27.459 26.1152 27.3143C26.1152 27.1695 26.1514 27.0368 26.2117 26.9283C26.272 26.8197 26.3685 26.7232 26.4771 26.6629C26.5857 26.6026 26.7184 26.5664 26.851 26.5664C26.9837 26.5664 27.1164 26.6026 27.225 26.6629C27.3335 26.7232 27.43 26.8197 27.4904 26.9283C27.5507 27.0368 27.5869 27.1695 27.5869 27.3143C27.5869 27.459 27.5507 27.5917 27.4904 27.7003C27.418 27.8088 27.3335 27.9053 27.225 27.9656C27.1164 28.026 26.9958 28.0621 26.851 28.0621ZM26.851 27.833C26.9475 27.833 27.0199 27.8088 27.0923 27.7606C27.1647 27.7123 27.225 27.652 27.2612 27.5796C27.3094 27.5073 27.3215 27.4108 27.3215 27.3143C27.3215 27.2178 27.2974 27.1333 27.2612 27.061C27.225 26.9886 27.1647 26.9283 27.0923 26.88C27.0199 26.8318 26.9355 26.8077 26.851 26.8077C26.7666 26.8077 26.6822 26.8318 26.6098 26.88C26.5374 26.9283 26.4771 26.9886 26.4409 27.061C26.3927 27.1333 26.3806 27.2178 26.3806 27.3143C26.3806 27.4108 26.4047 27.4952 26.4409 27.5796C26.4892 27.6641 26.5374 27.7244 26.6098 27.7606C26.6822 27.8088 26.7666 27.833 26.851 27.833Z" fill="#131144"/>
<path id="Vector_95" d="M27.9125 28.038V26.6026H28.1538V26.8921L28.1176 26.8438C28.1538 26.7473 28.2141 26.687 28.2864 26.6388C28.3588 26.5905 28.4553 26.5664 28.5518 26.5664C28.6604 26.5664 28.7689 26.6026 28.8534 26.6629C28.9378 26.7232 28.9981 26.8077 29.0343 26.9042H28.9619C28.9981 26.7956 29.0584 26.7112 29.1549 26.6508C29.2394 26.5905 29.3479 26.5664 29.4444 26.5664C29.5409 26.5664 29.6374 26.5905 29.7098 26.6388C29.7942 26.687 29.8546 26.7473 29.9028 26.8318C29.9511 26.9162 29.9752 27.0007 29.9752 27.1092V28.038H29.7219V27.1937C29.7219 27.1092 29.7098 27.0489 29.6736 26.9886C29.6495 26.9403 29.6012 26.8921 29.553 26.8559C29.5047 26.8197 29.4444 26.8077 29.3841 26.8077C29.3238 26.8077 29.2635 26.8197 29.2152 26.8559C29.167 26.8921 29.1188 26.9283 29.0946 26.9886C29.0705 27.0489 29.0464 27.1092 29.0464 27.1937V28.038H28.7931V27.1937C28.7931 27.1092 28.781 27.0489 28.7448 26.9886C28.7207 26.9403 28.6724 26.8921 28.6242 26.8559C28.5759 26.8197 28.5156 26.8077 28.4553 26.8077C28.395 26.8077 28.3347 26.8197 28.2864 26.8559C28.2382 26.8921 28.1899 26.9283 28.1658 26.9886C28.1417 27.0489 28.1176 27.1092 28.1176 27.1937V28.038H27.8643H27.9125Z" fill="#131144"/>
<path id="Vector_96" d="M30.349 28.5689V26.6027H30.5902V26.9164L30.554 26.856C30.6023 26.7716 30.6747 26.6992 30.7712 26.651C30.8677 26.6027 30.9642 26.5786 31.0848 26.5786C31.2175 26.5786 31.3381 26.6148 31.4467 26.6751C31.5552 26.7354 31.6397 26.8319 31.7 26.9405C31.7603 27.049 31.7965 27.1817 31.7965 27.3265C31.7965 27.4712 31.7603 27.5919 31.7 27.7125C31.6397 27.821 31.5552 27.9175 31.4467 27.9779C31.3381 28.0382 31.2175 28.0744 31.0848 28.0744C30.9642 28.0744 30.8677 28.0502 30.7712 28.002C30.6747 27.9537 30.6023 27.8814 30.554 27.7849L30.5902 27.7366V28.581H30.3369L30.349 28.5689ZM31.0727 27.8331C31.1692 27.8331 31.2416 27.809 31.314 27.7607C31.3863 27.7125 31.4346 27.6522 31.4828 27.5798C31.519 27.5074 31.5432 27.4109 31.5432 27.3265C31.5432 27.242 31.519 27.1455 31.4828 27.0611C31.4467 26.9887 31.3863 26.9284 31.314 26.8802C31.2416 26.8319 31.1692 26.8078 31.0727 26.8078C30.9762 26.8078 30.9038 26.8319 30.8315 26.8802C30.7591 26.9284 30.6988 26.9887 30.6626 27.0611C30.6264 27.1335 30.6023 27.2179 30.6023 27.3265C30.6023 27.435 30.6264 27.5074 30.6626 27.5798C30.6988 27.6522 30.7591 27.7245 30.8315 27.7607C30.9038 27.809 30.9883 27.8331 31.0727 27.8331Z" fill="#131144"/>
<path id="Vector_97" d="M32.689 28.0502C32.5443 28.0502 32.4357 28.014 32.3633 27.9296C32.291 27.8452 32.2548 27.7366 32.2548 27.5919V26.8319H32.0015V26.5907H32.0497C32.11 26.5907 32.1583 26.5666 32.1945 26.5304C32.2307 26.4942 32.2548 26.4339 32.2548 26.3736V26.2529H32.5081V26.5786H32.8338V26.8199H32.5081V27.5677C32.5081 27.5677 32.5081 27.6522 32.5322 27.6884C32.5443 27.7245 32.5684 27.7487 32.6046 27.7728C32.6408 27.7969 32.689 27.809 32.7493 27.809C32.7493 27.809 32.7735 27.809 32.7976 27.809C32.8217 27.809 32.8338 27.809 32.8458 27.809V28.0261C32.8458 28.0261 32.7976 28.0261 32.7735 28.0261C32.7493 28.0261 32.7252 28.0261 32.7011 28.0261L32.689 28.0502Z" fill="#131144"/>
<path id="Vector_98" d="M34.7398 31.0176H21.7727C21.2661 31.0176 20.856 30.6075 20.856 30.1009V24.4436C20.856 23.937 21.2661 23.5269 21.7727 23.5269H34.7398C35.2464 23.5269 35.6565 23.937 35.6565 24.4436V30.1009C35.6565 30.6075 35.2464 31.0176 34.7398 31.0176ZM21.7727 24.4315V30.1009L34.7398 30.1129C34.7398 30.1129 34.7519 30.1129 34.7519 30.1009V24.4436H21.7727V24.4315Z" fill="#131144"/>
<path id="Vector_99" d="M152.18 39.606V37.6398H152.421V37.9535L152.385 37.8932C152.433 37.8087 152.505 37.7363 152.602 37.6881C152.698 37.6398 152.795 37.6157 152.915 37.6157C153.048 37.6157 153.169 37.6519 153.277 37.7122C153.386 37.7725 153.47 37.869 153.531 37.9776C153.591 38.0862 153.627 38.2188 153.627 38.3636C153.627 38.5083 153.591 38.629 153.531 38.7496C153.47 38.8582 153.386 38.9547 153.277 39.015C153.169 39.0753 153.048 39.1115 152.915 39.1115C152.795 39.1115 152.698 39.0873 152.602 39.0391C152.505 38.9908 152.433 38.9185 152.385 38.822L152.421 38.7737V39.6181H152.167L152.18 39.606ZM152.903 38.8702C153 38.8702 153.072 38.8461 153.145 38.7978C153.217 38.7496 153.265 38.6893 153.313 38.6169C153.35 38.5445 153.374 38.448 153.374 38.3636C153.374 38.2792 153.35 38.1827 153.313 38.0982C153.277 38.0258 153.217 37.9655 153.145 37.9173C153.072 37.869 153 37.8449 152.903 37.8449C152.807 37.8449 152.734 37.869 152.662 37.9173C152.59 37.9655 152.529 38.0258 152.493 38.0982C152.457 38.1706 152.433 38.255 152.433 38.3636C152.433 38.4722 152.457 38.5445 152.493 38.6169C152.529 38.6893 152.59 38.7617 152.662 38.7978C152.734 38.8461 152.819 38.8702 152.903 38.8702Z" fill="#131144"/>
<path id="Vector_100" d="M153.965 39.0754V37.64H154.206V37.9054L154.182 37.8692C154.218 37.7847 154.266 37.7244 154.339 37.6882C154.411 37.6521 154.496 37.6279 154.592 37.6279H154.677V37.8692H154.556C154.459 37.8692 154.375 37.9054 154.315 37.9657C154.254 38.026 154.218 38.1104 154.218 38.2311V39.0875H153.965V39.0754Z" fill="#131144"/>
<path id="Vector_101" d="M155.569 39.1115C155.436 39.1115 155.303 39.0753 155.195 39.015C155.086 38.9547 154.99 38.8582 154.93 38.7496C154.869 38.641 154.833 38.5083 154.833 38.3636C154.833 38.2188 154.869 38.0862 154.93 37.9776C154.99 37.869 155.086 37.7725 155.195 37.7122C155.303 37.6519 155.436 37.6157 155.569 37.6157C155.702 37.6157 155.834 37.6519 155.943 37.7122C156.051 37.7725 156.148 37.869 156.208 37.9776C156.268 38.0862 156.305 38.2188 156.305 38.3636C156.305 38.5083 156.268 38.641 156.208 38.7496C156.136 38.8582 156.051 38.9547 155.943 39.015C155.834 39.0753 155.714 39.1115 155.569 39.1115ZM155.569 38.8702C155.665 38.8702 155.738 38.8461 155.81 38.7978C155.882 38.7496 155.943 38.6893 155.979 38.6169C156.027 38.5445 156.039 38.448 156.039 38.3515C156.039 38.255 156.015 38.1706 155.979 38.0982C155.943 38.0258 155.882 37.9655 155.81 37.9173C155.738 37.869 155.653 37.8449 155.569 37.8449C155.484 37.8449 155.4 37.869 155.328 37.9173C155.255 37.9655 155.195 38.0258 155.159 38.0982C155.11 38.1706 155.098 38.255 155.098 38.3515C155.098 38.448 155.123 38.5325 155.159 38.6169C155.207 38.7013 155.255 38.7617 155.328 38.7978C155.4 38.8461 155.484 38.8702 155.569 38.8702Z" fill="#131144"/>
<path id="Vector_102" d="M156.631 39.0751V37.6397H156.872V37.9292L156.836 37.881C156.872 37.7845 156.932 37.7241 157.005 37.6759C157.077 37.6276 157.174 37.6035 157.27 37.6035C157.379 37.6035 157.487 37.6397 157.572 37.7C157.656 37.7603 157.716 37.8448 157.753 37.9413H157.68C157.716 37.8327 157.777 37.7483 157.873 37.688C157.958 37.6276 158.066 37.6035 158.163 37.6035C158.259 37.6035 158.356 37.6276 158.428 37.6759C158.513 37.7241 158.573 37.7845 158.621 37.8689C158.669 37.9533 158.693 38.0378 158.693 38.1463V39.0751H158.44V38.2308C158.44 38.1463 158.428 38.086 158.392 38.0257C158.368 37.9775 158.32 37.9292 158.271 37.893C158.223 37.8568 158.163 37.8448 158.102 37.8448C158.042 37.8448 157.982 37.8568 157.934 37.893C157.885 37.9292 157.837 37.9654 157.813 38.0257C157.789 38.086 157.765 38.1463 157.765 38.2308V39.0751H157.511V38.2308C157.511 38.1463 157.499 38.086 157.463 38.0257C157.439 37.9775 157.391 37.9292 157.342 37.893C157.294 37.8568 157.234 37.8448 157.174 37.8448C157.113 37.8448 157.053 37.8568 157.005 37.893C156.956 37.9292 156.908 37.9654 156.884 38.0257C156.86 38.086 156.836 38.1463 156.836 38.2308V39.0751H156.583H156.631Z" fill="#131144"/>
<path id="Vector_103" d="M159.067 39.606V37.6398H159.308V37.9535L159.272 37.8932C159.321 37.8087 159.393 37.7363 159.489 37.6881C159.586 37.6398 159.682 37.6157 159.803 37.6157C159.936 37.6157 160.056 37.6519 160.165 37.7122C160.273 37.7725 160.358 37.869 160.418 37.9776C160.479 38.0862 160.515 38.2188 160.515 38.3636C160.515 38.5083 160.479 38.629 160.418 38.7496C160.358 38.8582 160.273 38.9547 160.165 39.015C160.056 39.0753 159.936 39.1115 159.803 39.1115C159.682 39.1115 159.586 39.0873 159.489 39.0391C159.393 38.9908 159.321 38.9185 159.272 38.822L159.308 38.7737V39.6181H159.055L159.067 39.606ZM159.791 38.8702C159.887 38.8702 159.96 38.8461 160.032 38.7978C160.105 38.7496 160.153 38.6893 160.201 38.6169C160.237 38.5445 160.261 38.448 160.261 38.3636C160.261 38.2792 160.237 38.1827 160.201 38.0982C160.165 38.0258 160.105 37.9655 160.032 37.9173C159.96 37.869 159.887 37.8449 159.791 37.8449C159.694 37.8449 159.622 37.869 159.55 37.9173C159.477 37.9655 159.417 38.0258 159.381 38.0982C159.345 38.1706 159.321 38.255 159.321 38.3636C159.321 38.4722 159.345 38.5445 159.381 38.6169C159.417 38.6893 159.477 38.7617 159.55 38.7978C159.622 38.8461 159.707 38.8702 159.791 38.8702Z" fill="#131144"/>
<path id="Vector_104" d="M161.407 39.0995C161.263 39.0995 161.154 39.0634 161.082 38.9789C161.009 38.8945 160.973 38.7859 160.973 38.6412V37.8812H160.72V37.64H160.768C160.828 37.64 160.877 37.6159 160.913 37.5797C160.949 37.5435 160.973 37.4832 160.973 37.4229V37.3022H161.226V37.6279H161.552V37.8692H161.226V38.6171C161.226 38.6171 161.226 38.7015 161.25 38.7377C161.263 38.7739 161.287 38.798 161.323 38.8221C161.359 38.8462 161.407 38.8583 161.468 38.8583C161.468 38.8583 161.492 38.8583 161.516 38.8583C161.54 38.8583 161.552 38.8583 161.564 38.8583V39.0754C161.564 39.0754 161.516 39.0754 161.492 39.0754C161.468 39.0754 161.443 39.0754 161.419 39.0754L161.407 39.0995Z" fill="#131144"/>
<path id="Vector_105" d="M163.458 42.0669H150.491C149.984 42.0669 149.574 41.6568 149.574 41.1502V35.4929C149.574 34.9863 149.984 34.5762 150.491 34.5762H163.458C163.965 34.5762 164.375 34.9863 164.375 35.4929V41.1502C164.375 41.6568 163.965 42.0669 163.458 42.0669ZM150.491 35.4688V41.1381L163.458 41.1502C163.458 41.1502 163.47 41.1502 163.47 41.1381V35.4809H150.491V35.4688Z" fill="#131144"/>
<path id="Vector_106" d="M34.7398 21.0782H21.7727C21.2661 21.0782 20.856 20.668 20.856 20.1614V14.5041C20.856 13.9975 21.2661 13.5874 21.7727 13.5874H34.7398C35.2464 13.5874 35.6565 13.9975 35.6565 14.5041V20.1614C35.6565 20.668 35.2464 21.0782 34.7398 21.0782ZM21.7727 14.4921V20.1614L34.7398 20.1735C34.7398 20.1735 34.7519 20.1735 34.7519 20.1614V14.5041H21.7727V14.4921Z" fill="#131144"/>
<path id="Vector_107" d="M150.768 71.7162H148.561C148.428 71.7162 148.332 71.6076 148.332 71.487V57.2292C148.332 57.0965 148.44 57 148.561 57H150.708C150.841 57 150.937 57.1086 150.937 57.2292C150.937 57.3498 150.828 57.4584 150.708 57.4584H148.79V71.2578H150.756C150.889 71.2578 150.985 71.3663 150.985 71.487C150.985 71.6076 150.877 71.7162 150.756 71.7162H150.768Z" fill="#131144"/>
<path id="Vector_108" d="M150.768 71.873H148.561C148.344 71.873 148.175 71.7042 148.175 71.487V57.2293C148.175 57.0121 148.344 56.8433 148.561 56.8433H150.708C150.925 56.8433 151.094 57.0121 151.094 57.2293C151.094 57.4464 150.925 57.6153 150.708 57.6153H148.947V71.1131H150.768C150.985 71.1131 151.154 71.282 151.154 71.4991C151.154 71.7162 150.985 71.8851 150.768 71.8851V71.873ZM148.561 57.1328C148.561 57.1328 148.476 57.1689 148.476 57.2172V71.475C148.476 71.475 148.513 71.5594 148.561 71.5594H150.768C150.768 71.5594 150.853 71.5232 150.853 71.475C150.853 71.4267 150.816 71.3905 150.768 71.3905H148.645V57.2896H150.708C150.708 57.2896 150.792 57.2534 150.792 57.2051C150.792 57.1569 150.756 57.1207 150.708 57.1207H148.561V57.1328Z" fill="#131144"/>
<path id="Vector_109" d="M165.388 71.7162H163.241C163.108 71.7162 163.012 71.6076 163.012 71.487C163.012 71.3663 163.12 71.2578 163.241 71.2578H165.159V57.4584H163.193C163.06 57.4584 162.963 57.3498 162.963 57.2292C162.963 57.1086 163.072 57 163.193 57H165.4C165.533 57 165.629 57.1086 165.629 57.2292V71.487C165.629 71.6197 165.521 71.7162 165.4 71.7162H165.388Z" fill="#131144"/>
<path id="Vector_110" d="M165.388 71.8729H163.241C163.024 71.8729 162.855 71.704 162.855 71.4869C162.855 71.2698 163.024 71.1009 163.241 71.1009H165.002V57.6031H163.18C162.963 57.6031 162.794 57.4342 162.794 57.2171C162.794 56.9999 162.963 56.8311 163.18 56.8311H165.388C165.605 56.8311 165.774 56.9999 165.774 57.2171V71.4748C165.774 71.692 165.605 71.8608 165.388 71.8608V71.8729ZM163.241 71.4025C163.241 71.4025 163.156 71.4386 163.156 71.4869C163.156 71.5351 163.192 71.5713 163.241 71.5713H165.388C165.388 71.5713 165.472 71.5351 165.472 71.4869V57.2291C165.472 57.2291 165.436 57.1447 165.388 57.1447H163.18C163.18 57.1447 163.096 57.1809 163.096 57.2291C163.096 57.2774 163.132 57.3136 163.18 57.3136H165.303V71.4145H163.241V71.4025Z" fill="#131144"/>
<path id="Vector_111" d="M161.673 60.4379H160.901C160.708 60.4379 160.551 60.2811 160.551 60.0881C160.551 59.8951 160.708 59.7383 160.901 59.7383H161.673C161.866 59.7383 162.022 59.8951 162.022 60.0881C162.022 60.2811 161.866 60.4379 161.673 60.4379ZM158.573 60.4379H157.801C157.608 60.4379 157.451 60.2811 157.451 60.0881C157.451 59.8951 157.608 59.7383 157.801 59.7383H158.573C158.766 59.7383 158.922 59.8951 158.922 60.0881C158.922 60.2811 158.766 60.4379 158.573 60.4379ZM155.46 60.4379H154.688C154.495 60.4379 154.339 60.2811 154.339 60.0881C154.339 59.8951 154.495 59.7383 154.688 59.7383H155.46C155.653 59.7383 155.81 59.8951 155.81 60.0881C155.81 60.2811 155.653 60.4379 155.46 60.4379ZM152.348 60.4379H151.576C151.383 60.4379 151.227 60.2811 151.227 60.0881C151.227 59.8951 151.383 59.7383 151.576 59.7383H152.348C152.541 59.7383 152.698 59.8951 152.698 60.0881C152.698 60.2811 152.541 60.4379 152.348 60.4379Z" fill="#131144"/>
<path id="Vector_112" d="M161.673 60.5948H160.901C160.623 60.5948 160.394 60.3656 160.394 60.0882C160.394 59.8107 160.623 59.5815 160.901 59.5815H161.673C161.95 59.5815 162.179 59.8107 162.179 60.0882C162.179 60.3656 161.95 60.5948 161.673 60.5948ZM160.913 59.8952C160.804 59.8952 160.708 59.9796 160.708 60.1002C160.708 60.2209 160.792 60.3053 160.913 60.3053H161.685C161.793 60.3053 161.89 60.2209 161.89 60.1002C161.89 59.9796 161.805 59.8952 161.685 59.8952H160.913ZM158.573 60.5948H157.801C157.523 60.5948 157.294 60.3656 157.294 60.0882C157.294 59.8107 157.523 59.5815 157.801 59.5815H158.573C158.85 59.5815 159.079 59.8107 159.079 60.0882C159.079 60.3656 158.85 60.5948 158.573 60.5948ZM157.801 59.8952C157.692 59.8952 157.596 59.9796 157.596 60.1002C157.596 60.2209 157.68 60.3053 157.801 60.3053H158.573C158.681 60.3053 158.778 60.2209 158.778 60.1002C158.778 59.9796 158.693 59.8952 158.573 59.8952H157.801ZM155.461 60.5948H154.689C154.411 60.5948 154.182 60.3656 154.182 60.0882C154.182 59.8107 154.411 59.5815 154.689 59.5815H155.461C155.738 59.5815 155.967 59.8107 155.967 60.0882C155.967 60.3656 155.738 60.5948 155.461 60.5948ZM154.689 59.8952C154.58 59.8952 154.484 59.9796 154.484 60.1002C154.484 60.2209 154.568 60.3053 154.689 60.3053H155.461C155.569 60.3053 155.666 60.2209 155.666 60.1002C155.666 59.9796 155.581 59.8952 155.461 59.8952H154.689ZM152.348 60.5948H151.576C151.299 60.5948 151.07 60.3656 151.07 60.0882C151.07 59.8107 151.299 59.5815 151.576 59.5815H152.348C152.626 59.5815 152.855 59.8107 152.855 60.0882C152.855 60.3656 152.626 60.5948 152.348 60.5948ZM151.576 59.8952C151.468 59.8952 151.371 59.9796 151.371 60.1002C151.371 60.2209 151.456 60.3053 151.576 60.3053H152.348C152.457 60.3053 152.554 60.2209 152.554 60.1002C152.554 59.9796 152.469 59.8952 152.348 59.8952H151.576Z" fill="#131144"/>
<path id="Vector_113" d="M161.673 63.3329H160.901C160.708 63.3329 160.551 63.1761 160.551 62.9831C160.551 62.7901 160.708 62.6333 160.901 62.6333H161.673C161.866 62.6333 162.022 62.7901 162.022 62.9831C162.022 63.1761 161.866 63.3329 161.673 63.3329ZM158.573 63.3329H157.801C157.608 63.3329 157.451 63.1761 157.451 62.9831C157.451 62.7901 157.608 62.6333 157.801 62.6333H158.573C158.766 62.6333 158.922 62.7901 158.922 62.9831C158.922 63.1761 158.766 63.3329 158.573 63.3329ZM155.46 63.3329H154.688C154.495 63.3329 154.339 63.1761 154.339 62.9831C154.339 62.7901 154.495 62.6333 154.688 62.6333H155.46C155.653 62.6333 155.81 62.7901 155.81 62.9831C155.81 63.1761 155.653 63.3329 155.46 63.3329ZM152.348 63.3329H151.576C151.383 63.3329 151.227 63.1761 151.227 62.9831C151.227 62.7901 151.383 62.6333 151.576 62.6333H152.348C152.541 62.6333 152.698 62.7901 152.698 62.9831C152.698 63.1761 152.541 63.3329 152.348 63.3329Z" fill="#131144"/>
<path id="Vector_114" d="M161.673 63.4898H160.901C160.623 63.4898 160.394 63.2606 160.394 62.9832C160.394 62.7058 160.623 62.4766 160.901 62.4766H161.673C161.95 62.4766 162.179 62.7058 162.179 62.9832C162.179 63.2606 161.95 63.4898 161.673 63.4898ZM160.913 62.7902C160.804 62.7902 160.708 62.8746 160.708 62.9952C160.708 63.1159 160.792 63.2003 160.913 63.2003H161.685C161.793 63.2003 161.89 63.1159 161.89 62.9952C161.89 62.8746 161.805 62.7902 161.685 62.7902H160.913ZM158.573 63.4898H157.801C157.523 63.4898 157.294 63.2606 157.294 62.9832C157.294 62.7058 157.523 62.4766 157.801 62.4766H158.573C158.85 62.4766 159.079 62.7058 159.079 62.9832C159.079 63.2606 158.85 63.4898 158.573 63.4898ZM157.801 62.7902C157.692 62.7902 157.596 62.8746 157.596 62.9952C157.596 63.1159 157.68 63.2003 157.801 63.2003H158.573C158.681 63.2003 158.778 63.1159 158.778 62.9952C158.778 62.8746 158.693 62.7902 158.573 62.7902H157.801ZM155.461 63.4898H154.689C154.411 63.4898 154.182 63.2606 154.182 62.9832C154.182 62.7058 154.411 62.4766 154.689 62.4766H155.461C155.738 62.4766 155.967 62.7058 155.967 62.9832C155.967 63.2606 155.738 63.4898 155.461 63.4898ZM154.689 62.7902C154.58 62.7902 154.484 62.8746 154.484 62.9952C154.484 63.1159 154.568 63.2003 154.689 63.2003H155.461C155.569 63.2003 155.666 63.1159 155.666 62.9952C155.666 62.8746 155.581 62.7902 155.461 62.7902H154.689ZM152.348 63.4898H151.576C151.299 63.4898 151.07 63.2606 151.07 62.9832C151.07 62.7058 151.299 62.4766 151.576 62.4766H152.348C152.626 62.4766 152.855 62.7058 152.855 62.9832C152.855 63.2606 152.626 63.4898 152.348 63.4898ZM151.576 62.7902C151.468 62.7902 151.371 62.8746 151.371 62.9952C151.371 63.1159 151.456 63.2003 151.576 63.2003H152.348C152.457 63.2003 152.554 63.1159 152.554 62.9952C152.554 62.8746 152.469 62.7902 152.348 62.7902H151.576Z" fill="#131144"/>
<path id="Vector_115" d="M161.673 66.2279H160.901C160.708 66.2279 160.551 66.0711 160.551 65.8781C160.551 65.6851 160.708 65.5283 160.901 65.5283H161.673C161.866 65.5283 162.022 65.6851 162.022 65.8781C162.022 66.0711 161.866 66.2279 161.673 66.2279ZM158.573 66.2279H157.801C157.608 66.2279 157.451 66.0711 157.451 65.8781C157.451 65.6851 157.608 65.5283 157.801 65.5283H158.573C158.766 65.5283 158.922 65.6851 158.922 65.8781C158.922 66.0711 158.766 66.2279 158.573 66.2279ZM155.46 66.2279H154.688C154.495 66.2279 154.339 66.0711 154.339 65.8781C154.339 65.6851 154.495 65.5283 154.688 65.5283H155.46C155.653 65.5283 155.81 65.6851 155.81 65.8781C155.81 66.0711 155.653 66.2279 155.46 66.2279ZM152.348 66.2279H151.576C151.383 66.2279 151.227 66.0711 151.227 65.8781C151.227 65.6851 151.383 65.5283 151.576 65.5283H152.348C152.541 65.5283 152.698 65.6851 152.698 65.8781C152.698 66.0711 152.541 66.2279 152.348 66.2279Z" fill="#131144"/>
<path id="Vector_116" d="M161.673 66.3848H160.901C160.623 66.3848 160.394 66.1556 160.394 65.8782C160.394 65.6008 160.623 65.3716 160.901 65.3716H161.673C161.95 65.3716 162.179 65.6008 162.179 65.8782C162.179 66.1556 161.95 66.3848 161.673 66.3848ZM160.913 65.6852C160.804 65.6852 160.708 65.7696 160.708 65.8903C160.708 66.0109 160.792 66.0953 160.913 66.0953H161.685C161.793 66.0953 161.89 66.0109 161.89 65.8903C161.89 65.7696 161.805 65.6852 161.685 65.6852H160.913ZM158.573 66.3848H157.801C157.523 66.3848 157.294 66.1556 157.294 65.8782C157.294 65.6008 157.523 65.3716 157.801 65.3716H158.573C158.85 65.3716 159.079 65.6008 159.079 65.8782C159.079 66.1556 158.85 66.3848 158.573 66.3848ZM157.801 65.6852C157.692 65.6852 157.596 65.7696 157.596 65.8903C157.596 66.0109 157.68 66.0953 157.801 66.0953H158.573C158.681 66.0953 158.778 66.0109 158.778 65.8903C158.778 65.7696 158.693 65.6852 158.573 65.6852H157.801ZM155.461 66.3848H154.689C154.411 66.3848 154.182 66.1556 154.182 65.8782C154.182 65.6008 154.411 65.3716 154.689 65.3716H155.461C155.738 65.3716 155.967 65.6008 155.967 65.8782C155.967 66.1556 155.738 66.3848 155.461 66.3848ZM154.689 65.6852C154.58 65.6852 154.484 65.7696 154.484 65.8903C154.484 66.0109 154.568 66.0953 154.689 66.0953H155.461C155.569 66.0953 155.666 66.0109 155.666 65.8903C155.666 65.7696 155.581 65.6852 155.461 65.6852H154.689ZM152.348 66.3848H151.576C151.299 66.3848 151.07 66.1556 151.07 65.8782C151.07 65.6008 151.299 65.3716 151.576 65.3716H152.348C152.626 65.3716 152.855 65.6008 152.855 65.8782C152.855 66.1556 152.626 66.3848 152.348 66.3848ZM151.576 65.6852C151.468 65.6852 151.371 65.7696 151.371 65.8903C151.371 66.0109 151.456 66.0953 151.576 66.0953H152.348C152.457 66.0953 152.554 66.0109 152.554 65.8903C152.554 65.7696 152.469 65.6852 152.348 65.6852H151.576Z" fill="#131144"/>
<path id="Vector_117" d="M161.673 69.123H160.901C160.708 69.123 160.551 68.9661 160.551 68.7732C160.551 68.5802 160.708 68.4233 160.901 68.4233H161.673C161.866 68.4233 162.022 68.5802 162.022 68.7732C162.022 68.9661 161.866 69.123 161.673 69.123ZM158.573 69.123H157.801C157.608 69.123 157.451 68.9661 157.451 68.7732C157.451 68.5802 157.608 68.4233 157.801 68.4233H158.573C158.766 68.4233 158.922 68.5802 158.922 68.7732C158.922 68.9661 158.766 69.123 158.573 69.123ZM155.46 69.123H154.688C154.495 69.123 154.339 68.9661 154.339 68.7732C154.339 68.5802 154.495 68.4233 154.688 68.4233H155.46C155.653 68.4233 155.81 68.5802 155.81 68.7732C155.81 68.9661 155.653 69.123 155.46 69.123ZM152.348 69.123H151.576C151.383 69.123 151.227 68.9661 151.227 68.7732C151.227 68.5802 151.383 68.4233 151.576 68.4233H152.348C152.541 68.4233 152.698 68.5802 152.698 68.7732C152.698 68.9661 152.541 69.123 152.348 69.123Z" fill="#131144"/>
<path id="Vector_118" d="M161.673 69.2798H160.901C160.623 69.2798 160.394 69.0507 160.394 68.7732C160.394 68.4958 160.623 68.2666 160.901 68.2666H161.673C161.95 68.2666 162.179 68.4958 162.179 68.7732C162.179 69.0507 161.95 69.2798 161.673 69.2798ZM160.913 68.5802C160.804 68.5802 160.708 68.6647 160.708 68.7853C160.708 68.9059 160.792 68.9903 160.913 68.9903H161.685C161.793 68.9903 161.89 68.9059 161.89 68.7853C161.89 68.6647 161.805 68.5802 161.685 68.5802H160.913ZM158.573 69.2798H157.801C157.523 69.2798 157.294 69.0507 157.294 68.7732C157.294 68.4958 157.523 68.2666 157.801 68.2666H158.573C158.85 68.2666 159.079 68.4958 159.079 68.7732C159.079 69.0507 158.85 69.2798 158.573 69.2798ZM157.801 68.5802C157.692 68.5802 157.596 68.6647 157.596 68.7853C157.596 68.9059 157.68 68.9903 157.801 68.9903H158.573C158.681 68.9903 158.778 68.9059 158.778 68.7853C158.778 68.6647 158.693 68.5802 158.573 68.5802H157.801ZM155.461 69.2798H154.689C154.411 69.2798 154.182 69.0507 154.182 68.7732C154.182 68.4958 154.411 68.2666 154.689 68.2666H155.461C155.738 68.2666 155.967 68.4958 155.967 68.7732C155.967 69.0507 155.738 69.2798 155.461 69.2798ZM154.689 68.5802C154.58 68.5802 154.484 68.6647 154.484 68.7853C154.484 68.9059 154.568 68.9903 154.689 68.9903H155.461C155.569 68.9903 155.666 68.9059 155.666 68.7853C155.666 68.6647 155.581 68.5802 155.461 68.5802H154.689ZM152.348 69.2798H151.576C151.299 69.2798 151.07 69.0507 151.07 68.7732C151.07 68.4958 151.299 68.2666 151.576 68.2666H152.348C152.626 68.2666 152.855 68.4958 152.855 68.7732C152.855 69.0507 152.626 69.2798 152.348 69.2798ZM151.576 68.5802C151.468 68.5802 151.371 68.6647 151.371 68.7853C151.371 68.9059 151.456 68.9903 151.576 68.9903H152.348C152.457 68.9903 152.554 68.9059 152.554 68.7853C152.554 68.6647 152.469 68.5802 152.348 68.5802H151.576Z" fill="#131144"/>
<path id="Vector_119" d="M2.59335 71.7162H0.385924C0.253238 71.7162 0.156738 71.6076 0.156738 71.487V57.2292C0.156738 57.0965 0.2653 57 0.385924 57H2.53304C2.66572 57 2.76222 57.1086 2.76222 57.2292C2.76222 57.3498 2.65366 57.4584 2.53304 57.4584H0.61511V71.2578H2.58129C2.71397 71.2578 2.81047 71.3663 2.81047 71.487C2.81047 71.6076 2.70191 71.7162 2.58129 71.7162H2.59335Z" fill="#131144"/>
<path id="Vector_120" d="M2.59342 71.873H0.385998C0.168874 71.873 0 71.7042 0 71.487V57.2293C0 57.0121 0.168874 56.8433 0.385998 56.8433H2.53311C2.75023 56.8433 2.91911 57.0121 2.91911 57.2293C2.91911 57.4464 2.75023 57.6153 2.53311 57.6153H0.771995V71.1131H2.59342C2.81054 71.1131 2.97942 71.282 2.97942 71.4991C2.97942 71.7162 2.81054 71.8851 2.59342 71.8851V71.873ZM0.385998 57.1328C0.385998 57.1328 0.301561 57.1689 0.301561 57.2172V71.475C0.301561 71.475 0.337748 71.5594 0.385998 71.5594H2.59342C2.59342 71.5594 2.67786 71.5232 2.67786 71.475C2.67786 71.4267 2.64167 71.3905 2.59342 71.3905H0.470434V57.2896H2.53311C2.53311 57.2896 2.61755 57.2534 2.61755 57.2051C2.61755 57.1569 2.58136 57.1207 2.53311 57.1207H0.385998V57.1328Z" fill="#131144"/>
<path id="Vector_121" d="M17.2131 71.7162H15.066C14.9333 71.7162 14.8368 71.6076 14.8368 71.487C14.8368 71.3663 14.9454 71.2578 15.066 71.2578H16.9839V57.4584H15.0178C14.8851 57.4584 14.7886 57.3498 14.7886 57.2292C14.7886 57.1086 14.8971 57 15.0178 57H17.2252C17.3579 57 17.4544 57.1086 17.4544 57.2292V71.487C17.4544 71.6197 17.3458 71.7162 17.2252 71.7162H17.2131Z" fill="#131144"/>
<path id="Vector_122" d="M17.2131 71.8729H15.0659C14.8488 71.8729 14.6799 71.704 14.6799 71.4869C14.6799 71.2698 14.8488 71.1009 15.0659 71.1009H16.8271V57.6031H15.0056C14.7885 57.6031 14.6196 57.4342 14.6196 57.2171C14.6196 56.9999 14.7885 56.8311 15.0056 56.8311H17.2131C17.4302 56.8311 17.599 56.9999 17.599 57.2171V71.4748C17.599 71.692 17.4302 71.8608 17.2131 71.8608V71.8729ZM15.0659 71.4025C15.0659 71.4025 14.9815 71.4386 14.9815 71.4869C14.9815 71.5351 15.0177 71.5713 15.0659 71.5713H17.2131C17.2131 71.5713 17.2975 71.5351 17.2975 71.4869V57.2291C17.2975 57.2291 17.2613 57.1447 17.2131 57.1447H15.0056C15.0056 57.1447 14.9212 57.1809 14.9212 57.2291C14.9212 57.2774 14.9574 57.3136 15.0056 57.3136H17.1286V71.4145H15.0659V71.4025Z" fill="#131144"/>
<path id="Vector_123" d="M13.4978 60.4379H12.7258C12.5328 60.4379 12.376 60.2811 12.376 60.0881C12.376 59.8951 12.5328 59.7383 12.7258 59.7383H13.4978C13.6908 59.7383 13.8476 59.8951 13.8476 60.0881C13.8476 60.2811 13.6908 60.4379 13.4978 60.4379ZM10.3857 60.4379H9.61371C9.42072 60.4379 9.2639 60.2811 9.2639 60.0881C9.2639 59.8951 9.42072 59.7383 9.61371 59.7383H10.3857C10.5787 59.7383 10.7355 59.8951 10.7355 60.0881C10.7355 60.2811 10.5787 60.4379 10.3857 60.4379ZM7.27361 60.4379H6.50161C6.30861 60.4379 6.1518 60.2811 6.1518 60.0881C6.1518 59.8951 6.30861 59.7383 6.50161 59.7383H7.27361C7.4666 59.7383 7.62342 59.8951 7.62342 60.0881C7.62342 60.2811 7.4666 60.4379 7.27361 60.4379ZM4.17356 60.4379H3.40157C3.20857 60.4379 3.05176 60.2811 3.05176 60.0881C3.05176 59.8951 3.20857 59.7383 3.40157 59.7383H4.17356C4.36656 59.7383 4.52337 59.8951 4.52337 60.0881C4.52337 60.2811 4.36656 60.4379 4.17356 60.4379Z" fill="#131144"/>
<path id="Vector_124" d="M13.4979 60.5948H12.7259C12.4485 60.5948 12.2193 60.3656 12.2193 60.0882C12.2193 59.8107 12.4485 59.5815 12.7259 59.5815H13.4979C13.7753 59.5815 14.0045 59.8107 14.0045 60.0882C14.0045 60.3656 13.7753 60.5948 13.4979 60.5948ZM12.7259 59.8952C12.6173 59.8952 12.5208 59.9796 12.5208 60.1002C12.5208 60.2209 12.6053 60.3053 12.7259 60.3053H13.4979C13.6064 60.3053 13.7029 60.2209 13.7029 60.1002C13.7029 59.9796 13.6185 59.8952 13.4979 59.8952H12.7259ZM10.3858 60.5948H9.61379C9.33635 60.5948 9.10717 60.3656 9.10717 60.0882C9.10717 59.8107 9.33635 59.5815 9.61379 59.5815H10.3858C10.6632 59.5815 10.8924 59.8107 10.8924 60.0882C10.8924 60.3656 10.6632 60.5948 10.3858 60.5948ZM9.61379 59.8952C9.50523 59.8952 9.40873 59.9796 9.40873 60.1002C9.40873 60.2209 9.49316 60.3053 9.61379 60.3053H10.3858C10.4943 60.3053 10.5908 60.2209 10.5908 60.1002C10.5908 59.9796 10.5064 59.8952 10.3858 59.8952H9.61379ZM7.27368 60.5948H6.50168C6.22425 60.5948 5.99506 60.3656 5.99506 60.0882C5.99506 59.8107 6.22425 59.5815 6.50168 59.5815H7.27368C7.55111 59.5815 7.7803 59.8107 7.7803 60.0882C7.7803 60.3656 7.55111 60.5948 7.27368 60.5948ZM6.50168 59.8952C6.39312 59.8952 6.29662 59.9796 6.29662 60.1002C6.29662 60.2209 6.38106 60.3053 6.50168 60.3053H7.27368C7.38224 60.3053 7.47874 60.2209 7.47874 60.1002C7.47874 59.9796 7.3943 59.8952 7.27368 59.8952H6.50168ZM4.17364 60.5948H3.40164C3.12421 60.5948 2.89502 60.3656 2.89502 60.0882C2.89502 59.8107 3.12421 59.5815 3.40164 59.5815H4.17364C4.45107 59.5815 4.68026 59.8107 4.68026 60.0882C4.68026 60.3656 4.45107 60.5948 4.17364 60.5948ZM3.40164 59.8952C3.29308 59.8952 3.19658 59.9796 3.19658 60.1002C3.19658 60.2209 3.28102 60.3053 3.40164 60.3053H4.17364C4.2822 60.3053 4.3787 60.2209 4.3787 60.1002C4.3787 59.9796 4.29426 59.8952 4.17364 59.8952H3.40164Z" fill="#131144"/>
<path id="Vector_125" d="M13.4978 63.3329H12.7258C12.5328 63.3329 12.376 63.1761 12.376 62.9831C12.376 62.7901 12.5328 62.6333 12.7258 62.6333H13.4978C13.6908 62.6333 13.8476 62.7901 13.8476 62.9831C13.8476 63.1761 13.6908 63.3329 13.4978 63.3329ZM10.3857 63.3329H9.61371C9.42072 63.3329 9.2639 63.1761 9.2639 62.9831C9.2639 62.7901 9.42072 62.6333 9.61371 62.6333H10.3857C10.5787 62.6333 10.7355 62.7901 10.7355 62.9831C10.7355 63.1761 10.5787 63.3329 10.3857 63.3329ZM7.27361 63.3329H6.50161C6.30861 63.3329 6.1518 63.1761 6.1518 62.9831C6.1518 62.7901 6.30861 62.6333 6.50161 62.6333H7.27361C7.4666 62.6333 7.62342 62.7901 7.62342 62.9831C7.62342 63.1761 7.4666 63.3329 7.27361 63.3329ZM4.17356 63.3329H3.40157C3.20857 63.3329 3.05176 63.1761 3.05176 62.9831C3.05176 62.7901 3.20857 62.6333 3.40157 62.6333H4.17356C4.36656 62.6333 4.52337 62.7901 4.52337 62.9831C4.52337 63.1761 4.36656 63.3329 4.17356 63.3329Z" fill="#131144"/>
<path id="Vector_126" d="M13.4979 63.4898H12.7259C12.4485 63.4898 12.2193 63.2606 12.2193 62.9832C12.2193 62.7058 12.4485 62.4766 12.7259 62.4766H13.4979C13.7753 62.4766 14.0045 62.7058 14.0045 62.9832C14.0045 63.2606 13.7753 63.4898 13.4979 63.4898ZM12.7259 62.7902C12.6173 62.7902 12.5208 62.8746 12.5208 62.9952C12.5208 63.1159 12.6053 63.2003 12.7259 63.2003H13.4979C13.6064 63.2003 13.7029 63.1159 13.7029 62.9952C13.7029 62.8746 13.6185 62.7902 13.4979 62.7902H12.7259ZM10.3858 63.4898H9.61379C9.33635 63.4898 9.10717 63.2606 9.10717 62.9832C9.10717 62.7058 9.33635 62.4766 9.61379 62.4766H10.3858C10.6632 62.4766 10.8924 62.7058 10.8924 62.9832C10.8924 63.2606 10.6632 63.4898 10.3858 63.4898ZM9.61379 62.7902C9.50523 62.7902 9.40873 62.8746 9.40873 62.9952C9.40873 63.1159 9.49316 63.2003 9.61379 63.2003H10.3858C10.4943 63.2003 10.5908 63.1159 10.5908 62.9952C10.5908 62.8746 10.5064 62.7902 10.3858 62.7902H9.61379ZM7.27368 63.4898H6.50168C6.22425 63.4898 5.99506 63.2606 5.99506 62.9832C5.99506 62.7058 6.22425 62.4766 6.50168 62.4766H7.27368C7.55111 62.4766 7.7803 62.7058 7.7803 62.9832C7.7803 63.2606 7.55111 63.4898 7.27368 63.4898ZM6.50168 62.7902C6.39312 62.7902 6.29662 62.8746 6.29662 62.9952C6.29662 63.1159 6.38106 63.2003 6.50168 63.2003H7.27368C7.38224 63.2003 7.47874 63.1159 7.47874 62.9952C7.47874 62.8746 7.3943 62.7902 7.27368 62.7902H6.50168ZM4.17364 63.4898H3.40164C3.12421 63.4898 2.89502 63.2606 2.89502 62.9832C2.89502 62.7058 3.12421 62.4766 3.40164 62.4766H4.17364C4.45107 62.4766 4.68026 62.7058 4.68026 62.9832C4.68026 63.2606 4.45107 63.4898 4.17364 63.4898ZM3.40164 62.7902C3.29308 62.7902 3.19658 62.8746 3.19658 62.9952C3.19658 63.1159 3.28102 63.2003 3.40164 63.2003H4.17364C4.2822 63.2003 4.3787 63.1159 4.3787 62.9952C4.3787 62.8746 4.29426 62.7902 4.17364 62.7902H3.40164Z" fill="#131144"/>
<path id="Vector_127" d="M13.4978 66.2279H12.7258C12.5328 66.2279 12.376 66.0711 12.376 65.8781C12.376 65.6851 12.5328 65.5283 12.7258 65.5283H13.4978C13.6908 65.5283 13.8476 65.6851 13.8476 65.8781C13.8476 66.0711 13.6908 66.2279 13.4978 66.2279ZM10.3857 66.2279H9.61371C9.42072 66.2279 9.2639 66.0711 9.2639 65.8781C9.2639 65.6851 9.42072 65.5283 9.61371 65.5283H10.3857C10.5787 65.5283 10.7355 65.6851 10.7355 65.8781C10.7355 66.0711 10.5787 66.2279 10.3857 66.2279ZM7.27361 66.2279H6.50161C6.30861 66.2279 6.1518 66.0711 6.1518 65.8781C6.1518 65.6851 6.30861 65.5283 6.50161 65.5283H7.27361C7.4666 65.5283 7.62342 65.6851 7.62342 65.8781C7.62342 66.0711 7.4666 66.2279 7.27361 66.2279ZM4.17356 66.2279H3.40157C3.20857 66.2279 3.05176 66.0711 3.05176 65.8781C3.05176 65.6851 3.20857 65.5283 3.40157 65.5283H4.17356C4.36656 65.5283 4.52337 65.6851 4.52337 65.8781C4.52337 66.0711 4.36656 66.2279 4.17356 66.2279Z" fill="#131144"/>
<path id="Vector_128" d="M13.4979 66.3848H12.7259C12.4485 66.3848 12.2193 66.1556 12.2193 65.8782C12.2193 65.6008 12.4485 65.3716 12.7259 65.3716H13.4979C13.7753 65.3716 14.0045 65.6008 14.0045 65.8782C14.0045 66.1556 13.7753 66.3848 13.4979 66.3848ZM12.7259 65.6852C12.6173 65.6852 12.5208 65.7696 12.5208 65.8903C12.5208 66.0109 12.6053 66.0953 12.7259 66.0953H13.4979C13.6064 66.0953 13.7029 66.0109 13.7029 65.8903C13.7029 65.7696 13.6185 65.6852 13.4979 65.6852H12.7259ZM10.3858 66.3848H9.61379C9.33635 66.3848 9.10717 66.1556 9.10717 65.8782C9.10717 65.6008 9.33635 65.3716 9.61379 65.3716H10.3858C10.6632 65.3716 10.8924 65.6008 10.8924 65.8782C10.8924 66.1556 10.6632 66.3848 10.3858 66.3848ZM9.61379 65.6852C9.50523 65.6852 9.40873 65.7696 9.40873 65.8903C9.40873 66.0109 9.49316 66.0953 9.61379 66.0953H10.3858C10.4943 66.0953 10.5908 66.0109 10.5908 65.8903C10.5908 65.7696 10.5064 65.6852 10.3858 65.6852H9.61379ZM7.27368 66.3848H6.50168C6.22425 66.3848 5.99506 66.1556 5.99506 65.8782C5.99506 65.6008 6.22425 65.3716 6.50168 65.3716H7.27368C7.55111 65.3716 7.7803 65.6008 7.7803 65.8782C7.7803 66.1556 7.55111 66.3848 7.27368 66.3848ZM6.50168 65.6852C6.39312 65.6852 6.29662 65.7696 6.29662 65.8903C6.29662 66.0109 6.38106 66.0953 6.50168 66.0953H7.27368C7.38224 66.0953 7.47874 66.0109 7.47874 65.8903C7.47874 65.7696 7.3943 65.6852 7.27368 65.6852H6.50168ZM4.17364 66.3848H3.40164C3.12421 66.3848 2.89502 66.1556 2.89502 65.8782C2.89502 65.6008 3.12421 65.3716 3.40164 65.3716H4.17364C4.45107 65.3716 4.68026 65.6008 4.68026 65.8782C4.68026 66.1556 4.45107 66.3848 4.17364 66.3848ZM3.40164 65.6852C3.29308 65.6852 3.19658 65.7696 3.19658 65.8903C3.19658 66.0109 3.28102 66.0953 3.40164 66.0953H4.17364C4.2822 66.0953 4.3787 66.0109 4.3787 65.8903C4.3787 65.7696 4.29426 65.6852 4.17364 65.6852H3.40164Z" fill="#131144"/>
<path id="Vector_129" d="M13.4978 69.123H12.7258C12.5328 69.123 12.376 68.9661 12.376 68.7732C12.376 68.5802 12.5328 68.4233 12.7258 68.4233H13.4978C13.6908 68.4233 13.8476 68.5802 13.8476 68.7732C13.8476 68.9661 13.6908 69.123 13.4978 69.123ZM10.3857 69.123H9.61371C9.42072 69.123 9.2639 68.9661 9.2639 68.7732C9.2639 68.5802 9.42072 68.4233 9.61371 68.4233H10.3857C10.5787 68.4233 10.7355 68.5802 10.7355 68.7732C10.7355 68.9661 10.5787 69.123 10.3857 69.123ZM7.27361 69.123H6.50161C6.30861 69.123 6.1518 68.9661 6.1518 68.7732C6.1518 68.5802 6.30861 68.4233 6.50161 68.4233H7.27361C7.4666 68.4233 7.62342 68.5802 7.62342 68.7732C7.62342 68.9661 7.4666 69.123 7.27361 69.123ZM4.17356 69.123H3.40157C3.20857 69.123 3.05176 68.9661 3.05176 68.7732C3.05176 68.5802 3.20857 68.4233 3.40157 68.4233H4.17356C4.36656 68.4233 4.52337 68.5802 4.52337 68.7732C4.52337 68.9661 4.36656 69.123 4.17356 69.123Z" fill="#131144"/>
<path id="Vector_130" d="M13.4979 69.2798H12.7259C12.4485 69.2798 12.2193 69.0507 12.2193 68.7732C12.2193 68.4958 12.4485 68.2666 12.7259 68.2666H13.4979C13.7753 68.2666 14.0045 68.4958 14.0045 68.7732C14.0045 69.0507 13.7753 69.2798 13.4979 69.2798ZM12.7259 68.5802C12.6173 68.5802 12.5208 68.6647 12.5208 68.7853C12.5208 68.9059 12.6053 68.9903 12.7259 68.9903H13.4979C13.6064 68.9903 13.7029 68.9059 13.7029 68.7853C13.7029 68.6647 13.6185 68.5802 13.4979 68.5802H12.7259ZM10.3858 69.2798H9.61379C9.33635 69.2798 9.10717 69.0507 9.10717 68.7732C9.10717 68.4958 9.33635 68.2666 9.61379 68.2666H10.3858C10.6632 68.2666 10.8924 68.4958 10.8924 68.7732C10.8924 69.0507 10.6632 69.2798 10.3858 69.2798ZM9.61379 68.5802C9.50523 68.5802 9.40873 68.6647 9.40873 68.7853C9.40873 68.9059 9.49316 68.9903 9.61379 68.9903H10.3858C10.4943 68.9903 10.5908 68.9059 10.5908 68.7853C10.5908 68.6647 10.5064 68.5802 10.3858 68.5802H9.61379ZM7.27368 69.2798H6.50168C6.22425 69.2798 5.99506 69.0507 5.99506 68.7732C5.99506 68.4958 6.22425 68.2666 6.50168 68.2666H7.27368C7.55111 68.2666 7.7803 68.4958 7.7803 68.7732C7.7803 69.0507 7.55111 69.2798 7.27368 69.2798ZM6.50168 68.5802C6.39312 68.5802 6.29662 68.6647 6.29662 68.7853C6.29662 68.9059 6.38106 68.9903 6.50168 68.9903H7.27368C7.38224 68.9903 7.47874 68.9059 7.47874 68.7853C7.47874 68.6647 7.3943 68.5802 7.27368 68.5802H6.50168ZM4.17364 69.2798H3.40164C3.12421 69.2798 2.89502 69.0507 2.89502 68.7732C2.89502 68.4958 3.12421 68.2666 3.40164 68.2666H4.17364C4.45107 68.2666 4.68026 68.4958 4.68026 68.7732C4.68026 69.0507 4.45107 69.2798 4.17364 69.2798ZM3.40164 68.5802C3.29308 68.5802 3.19658 68.6647 3.19658 68.7853C3.19658 68.9059 3.28102 68.9903 3.40164 68.9903H4.17364C4.2822 68.9903 4.3787 68.9059 4.3787 68.7853C4.3787 68.6647 4.29426 68.5802 4.17364 68.5802H3.40164Z" fill="#131144"/>
</g>
<defs>
<clipPath id="clip0_44_7855">
<rect width="232.262" height="87.73" fill="white" transform="translate(0 0.234375)"/>
</clipPath>
</defs>
</svg>
