<svg width="111" height="125" viewBox="0 0 111 125" fill="none" xmlns="http://www.w3.org/2000/svg">
<path d="M55.0373 125.001C53.7801 125.001 52.5229 124.676 51.4008 124.029L3.63657 96.4165C1.39225 95.1191 0 92.7014 0 90.1098V34.8887C0 32.2939 1.39225 29.8794 3.63657 28.582L51.4008 0.973042C53.6451 -0.324347 56.4328 -0.324347 58.6739 0.973042L106.438 28.582C108.682 29.8794 110.075 32.2971 110.075 34.8887V90.1098C110.075 92.7046 108.682 95.1191 106.438 96.4165L58.6739 124.025C57.5518 124.673 56.2945 124.998 55.0373 124.998V125.001ZM55.0373 1.15654C53.9795 1.15654 52.9216 1.43019 51.9763 1.97425L4.21534 29.5832C2.32792 30.6746 1.15431 32.7092 1.15431 34.8887V90.1098C1.15431 92.2925 2.32792 94.3239 4.21534 95.4152L51.9795 123.024C53.8669 124.116 56.2109 124.116 58.0984 123.024L105.863 95.4152C107.75 94.3239 108.924 92.2893 108.924 90.1098V34.8887C108.924 32.706 107.75 30.6746 105.863 29.5832L58.0951 1.97425C57.153 1.42697 56.092 1.15654 55.0341 1.15654H55.0373Z" fill="white"/>
<path d="M62.1978 92.4355H53.1787V101.466H62.1978V92.4355Z" fill="#52B848"/>
<path d="M62.4833 101.752H52.8887V92.1455H62.4833V101.752ZM53.4674 101.176H61.9078V92.725H53.4674V101.176Z" fill="white"/>
<path d="M71.0376 101.836H62.0186V110.866H71.0376V101.836Z" fill="white"/>
<path d="M71.3232 111.152H61.7285V101.546H71.3232V111.152ZM62.3073 110.576H70.7476V102.125H62.3073V110.576Z" fill="white"/>
<path d="M100.281 47.2158H91.2617V56.246H100.281V47.2158Z" fill="white"/>
<path d="M100.567 56.5352H90.9727V46.9287H100.567V56.5352ZM91.5482 55.9557H99.9885V47.505H91.5482V55.9557Z" fill="white"/>
<path d="M84.0753 57.2275H79.5674V61.741H84.0753V57.2275Z" fill="white"/>
<path d="M29.0988 65.6592H24.5908V70.1727H29.0988V65.6592Z" fill="white"/>
<path d="M102.046 62.501H97.5381V67.0145H102.046V62.501Z" fill="white"/>
<path d="M16.0236 59.1631H11.5156V63.6766H16.0236V59.1631Z" fill="white"/>
<path d="M16.0236 52.1123H11.5156V56.6258H16.0236V52.1123Z" fill="white"/>
<path d="M16.0236 45.0615H11.5156V49.575H16.0236V45.0615Z" fill="white"/>
<path d="M16.0245 38.0146H11.5166V42.5281H16.0245V38.0146Z" fill="#52B848"/>
<path d="M16.3133 42.8176H11.2266V37.7246H16.3133V42.8176ZM11.8053 42.2381H15.7377V38.3009H11.8053V42.2381Z" fill="white"/>
<path d="M25.9402 80.4537L17.3096 71.8125L8.67897 80.4538L17.3096 89.095L25.9402 80.4537Z" fill="#61BD73"/>
<path d="M17.3089 89.5082L8.27051 80.4587L17.3089 71.4092L26.3473 80.4587L17.3089 89.5082ZM9.08721 80.4555L17.3121 88.6905L25.537 80.4555L17.3121 72.2205L9.08721 80.4555Z" fill="white"/>
<path d="M40.1795 37.0429V28.605L32.8838 24.3877L25.585 28.605V37.0429L32.8838 41.2602L40.1795 37.0429Z" fill="#61BD73"/>
<path d="M32.8839 41.5946L25.2988 37.2098V28.4404L32.8839 24.0557L40.4689 28.4404V37.2098L32.8839 41.5946ZM25.8744 36.875L32.8839 40.9282L39.8934 36.875V28.772L32.8839 24.7188L25.8744 28.772V36.875Z" fill="white"/>
<path d="M43.6762 19.2623C45.3845 19.2623 46.7694 17.8758 46.7694 16.1654C46.7694 14.4549 45.3845 13.0684 43.6762 13.0684C41.9679 13.0684 40.583 14.4549 40.583 16.1654C40.583 17.8758 41.9679 19.2623 43.6762 19.2623Z" fill="#52B848"/>
<path d="M43.6755 19.5518C41.8106 19.5518 40.293 18.0323 40.293 16.1651C40.293 14.2978 41.8106 12.7783 43.6755 12.7783C45.5404 12.7783 47.0581 14.2978 47.0581 16.1651C47.0581 18.0323 45.5404 19.5518 43.6755 19.5518ZM43.6755 13.3578C42.1289 13.3578 40.8717 14.6166 40.8717 16.1651C40.8717 17.7136 42.1289 18.9723 43.6755 18.9723C45.2221 18.9723 46.4793 17.7136 46.4793 16.1651C46.4793 14.6166 45.2221 13.3578 43.6755 13.3578Z" fill="white"/>
<path d="M52.7133 19.2623C54.4216 19.2623 55.8065 17.8758 55.8065 16.1654C55.8065 14.4549 54.4216 13.0684 52.7133 13.0684C51.005 13.0684 49.6201 14.4549 49.6201 16.1654C49.6201 17.8758 51.005 19.2623 52.7133 19.2623Z" fill="white"/>
<path d="M61.7524 19.2623C63.4607 19.2623 64.8455 17.8758 64.8455 16.1654C64.8455 14.4549 63.4607 13.0684 61.7524 13.0684C60.044 13.0684 58.6592 14.4549 58.6592 16.1654C58.6592 17.8758 60.044 19.2623 61.7524 19.2623Z" fill="white"/>
<path d="M61.7517 19.5518C59.8868 19.5518 58.3691 18.0323 58.3691 16.1651C58.3691 14.2978 59.8868 12.7783 61.7517 12.7783C63.6166 12.7783 65.1343 14.2978 65.1343 16.1651C65.1343 18.0323 63.6166 19.5518 61.7517 19.5518ZM61.7517 13.3578C60.2051 13.3578 58.9479 14.6166 58.9479 16.1651C58.9479 17.7136 60.2051 18.9723 61.7517 18.9723C63.2983 18.9723 64.5555 17.7136 64.5555 16.1651C64.5555 14.6166 63.2983 13.3578 61.7517 13.3578Z" fill="white"/>
<path d="M84.9145 77.1881C86.6228 77.1881 88.0076 75.8016 88.0076 74.0911C88.0076 72.3807 86.6228 70.9941 84.9145 70.9941C83.2062 70.9941 81.8213 72.3807 81.8213 74.0911C81.8213 75.8016 83.2062 77.1881 84.9145 77.1881Z" fill="#61BD73"/>
<path d="M84.9148 77.4776C83.0499 77.4776 81.5322 75.958 81.5322 74.0908C81.5322 72.2236 83.0499 70.7041 84.9148 70.7041C86.7797 70.7041 88.2973 72.2236 88.2973 74.0908C88.2973 75.958 86.7797 77.4776 84.9148 77.4776ZM84.9148 71.2836C83.3682 71.2836 82.111 72.5423 82.111 74.0908C82.111 75.6393 83.3682 76.8981 84.9148 76.8981C86.4614 76.8981 87.7186 75.6393 87.7186 74.0908C87.7186 72.5423 86.4614 71.2836 84.9148 71.2836Z" fill="white"/>
<path d="M37.9087 83.9422L39.3235 85.3716C39.629 85.6774 39.7833 85.9382 39.7833 86.1571C39.7833 86.376 39.629 86.6336 39.3235 86.9362C39.018 87.2388 38.7576 87.3901 38.5454 87.3901C38.3332 87.3901 38.0727 87.2356 37.7673 86.9298L36.3654 85.5133L34.9506 86.9298C34.6451 87.2356 34.3879 87.3901 34.1789 87.3901C33.9699 87.3901 33.7127 87.2388 33.4008 86.9362C33.0889 86.6336 32.9346 86.376 32.9346 86.1571C32.9346 85.9382 33.0889 85.6774 33.3944 85.3716L34.8091 83.9422L33.3944 82.5128C33.0889 82.207 32.9346 81.9462 32.9346 81.7273C32.9346 81.5084 33.0889 81.2476 33.4008 80.9418C33.7095 80.636 33.9699 80.4814 34.1789 80.4814C34.3879 80.4814 34.6451 80.636 34.9506 80.9418L36.3654 82.3712L37.7673 80.9418C38.0727 80.636 38.3332 80.4814 38.5454 80.4814C38.7576 80.4814 39.018 80.636 39.3235 80.9418C39.629 81.2476 39.7833 81.5084 39.7833 81.7273C39.7833 81.9462 39.629 82.2038 39.3235 82.5128L37.9087 83.9422Z" fill="white"/>
<path d="M54.816 28.5692L56.2307 29.9986C56.5362 30.3044 56.6905 30.5652 56.6905 30.7841C56.6905 31.003 56.5362 31.2605 56.2307 31.5632C55.9253 31.8658 55.6648 32.0171 55.4526 32.0171C55.2404 32.0171 54.9799 31.8658 54.6745 31.5567L53.2726 30.1402L51.8578 31.5567C51.5524 31.8625 51.2951 32.0171 51.0861 32.0171C50.8771 32.0171 50.6199 31.8658 50.308 31.5632C49.9994 31.2605 49.8418 31.003 49.8418 30.7841C49.8418 30.5652 49.9961 30.3044 50.3016 29.9986L51.7164 28.5692L50.3016 27.1398C49.9961 26.834 49.8418 26.5732 49.8418 26.3543C49.8418 26.1354 49.9961 25.8746 50.308 25.5688C50.6167 25.2629 50.8771 25.1084 51.0861 25.1084C51.2951 25.1084 51.5524 25.2629 51.8578 25.5688L53.2726 26.9981L54.6745 25.5688C54.9799 25.2629 55.2404 25.1084 55.4526 25.1084C55.6648 25.1084 55.9253 25.2629 56.2307 25.5688C56.5362 25.8746 56.6905 26.1354 56.6905 26.3543C56.6905 26.5732 56.5362 26.834 56.2307 27.1398L54.816 28.5692Z" fill="white"/>
<path d="M75.7959 91.8361H72.8538C72.6931 91.8361 72.5645 91.7073 72.5645 91.5463V84.6022C72.5645 84.4413 72.6931 84.3125 72.8538 84.3125H75.7219C75.8827 84.3125 76.0113 84.4413 76.0113 84.6022C76.0113 84.7632 75.8827 84.892 75.7219 84.892H73.14V91.2598H75.7927C75.9534 91.2598 76.0821 91.3886 76.0821 91.5495C76.0821 91.7105 75.9534 91.8393 75.7927 91.8393L75.7959 91.8361Z" fill="white"/>
<path d="M95.2966 91.8354H92.4285C92.2677 91.8354 92.1391 91.7066 92.1391 91.5456C92.1391 91.3847 92.2677 91.2559 92.4285 91.2559H95.0104V84.8881H92.3577C92.197 84.8881 92.0684 84.7593 92.0684 84.5983C92.0684 84.4374 92.197 84.3086 92.3577 84.3086H95.2998C95.4606 84.3086 95.5892 84.4374 95.5892 84.5983V91.5424C95.5892 91.7034 95.4606 91.8322 95.2998 91.8322L95.2966 91.8354Z" fill="white"/>
<path d="M91.2975 88.725H90.7219C90.5612 88.725 90.4325 88.5962 90.4325 88.4353C90.4325 88.2743 90.5612 88.1455 90.7219 88.1455H91.2975C91.4582 88.1455 91.5869 88.2743 91.5869 88.4353C91.5869 88.5962 91.4582 88.725 91.2975 88.725ZM89.5676 88.725H88.9921C88.8313 88.725 88.7027 88.5962 88.7027 88.4353C88.7027 88.2743 88.8313 88.1455 88.9921 88.1455H89.5676C89.7284 88.1455 89.857 88.2743 89.857 88.4353C89.857 88.5962 89.7284 88.725 89.5676 88.725ZM87.8377 88.725H87.2622C87.1014 88.725 86.9728 88.5962 86.9728 88.4353C86.9728 88.2743 87.1014 88.1455 87.2622 88.1455H87.8377C87.9985 88.1455 88.1271 88.2743 88.1271 88.4353C88.1271 88.5962 87.9985 88.725 87.8377 88.725ZM86.1047 88.725H85.5291C85.3684 88.725 85.2397 88.5962 85.2397 88.4353C85.2397 88.2743 85.3684 88.1455 85.5291 88.1455H86.1047C86.2654 88.1455 86.3941 88.2743 86.3941 88.4353C86.3941 88.5962 86.2654 88.725 86.1047 88.725ZM84.3748 88.725H83.7993C83.6385 88.725 83.5099 88.5962 83.5099 88.4353C83.5099 88.2743 83.6385 88.1455 83.7993 88.1455H84.3748C84.5356 88.1455 84.6642 88.2743 84.6642 88.4353C84.6642 88.5962 84.5356 88.725 84.3748 88.725ZM82.6417 88.725H82.0662C81.9054 88.725 81.7768 88.5962 81.7768 88.4353C81.7768 88.2743 81.9054 88.1455 82.0662 88.1455H82.6417C82.8025 88.1455 82.9311 88.2743 82.9311 88.4353C82.9311 88.5962 82.8025 88.725 82.6417 88.725ZM80.9119 88.725H80.3363C80.1755 88.725 80.0469 88.5962 80.0469 88.4353C80.0469 88.2743 80.1755 88.1455 80.3363 88.1455H80.9119C81.0726 88.1455 81.2012 88.2743 81.2012 88.4353C81.2012 88.5962 81.0726 88.725 80.9119 88.725ZM79.1788 88.725H78.6032C78.4425 88.725 78.3139 88.5962 78.3139 88.4353C78.3139 88.2743 78.4425 88.1455 78.6032 88.1455H79.1788C79.3396 88.1455 79.4682 88.2743 79.4682 88.4353C79.4682 88.5962 79.3396 88.725 79.1788 88.725ZM77.4489 88.725H76.8734C76.7126 88.725 76.584 88.5962 76.584 88.4353C76.584 88.2743 76.7126 88.1455 76.8734 88.1455H77.4489C77.6097 88.1455 77.7383 88.2743 77.7383 88.4353C77.7383 88.5962 77.6097 88.725 77.4489 88.725Z" fill="white"/>
<path d="M26.3721 101.526H23.43C23.2692 101.526 23.1406 101.398 23.1406 101.237V94.2927C23.1406 94.1317 23.2692 94.0029 23.43 94.0029H26.2981C26.4589 94.0029 26.5875 94.1317 26.5875 94.2927C26.5875 94.4536 26.4589 94.5824 26.2981 94.5824H23.7162V100.95H26.3688C26.5296 100.95 26.6582 101.079 26.6582 101.24C26.6582 101.401 26.5296 101.53 26.3688 101.53L26.3721 101.526Z" fill="white"/>
<path d="M45.8767 101.526H43.0086C42.8478 101.526 42.7192 101.397 42.7192 101.236C42.7192 101.075 42.8478 100.946 43.0086 100.946H45.5905V94.5785H42.9378C42.777 94.5785 42.6484 94.4497 42.6484 94.2888C42.6484 94.1278 42.777 93.999 42.9378 93.999H45.8799C46.0406 93.999 46.1693 94.1278 46.1693 94.2888V101.233C46.1693 101.394 46.0406 101.523 45.8799 101.523L45.8767 101.526Z" fill="white"/>
<path d="M41.8769 98.4125H41.3013C41.1405 98.4125 41.0119 98.2837 41.0119 98.1227C41.0119 97.9618 41.1405 97.833 41.3013 97.833H41.8769C42.0376 97.833 42.1662 97.9618 42.1662 98.1227C42.1662 98.2837 42.0376 98.4125 41.8769 98.4125ZM40.1438 98.4125H39.5682C39.4075 98.4125 39.2789 98.2837 39.2789 98.1227C39.2789 97.9618 39.4075 97.833 39.5682 97.833H40.1438C40.3046 97.833 40.4332 97.9618 40.4332 98.1227C40.4332 98.2837 40.3046 98.4125 40.1438 98.4125ZM38.4139 98.4125H37.8384C37.6776 98.4125 37.549 98.2837 37.549 98.1227C37.549 97.9618 37.6776 97.833 37.8384 97.833H38.4139C38.5747 97.833 38.7033 97.9618 38.7033 98.1227C38.7033 98.2837 38.5747 98.4125 38.4139 98.4125ZM36.6808 98.4125H36.1053C35.9445 98.4125 35.8159 98.2837 35.8159 98.1227C35.8159 97.9618 35.9445 97.833 36.1053 97.833H36.6808C36.8416 97.833 36.9702 97.9618 36.9702 98.1227C36.9702 98.2837 36.8416 98.4125 36.6808 98.4125ZM34.951 98.4125H34.3754C34.2147 98.4125 34.086 98.2837 34.086 98.1227C34.086 97.9618 34.2147 97.833 34.3754 97.833H34.951C35.1117 97.833 35.2404 97.9618 35.2404 98.1227C35.2404 98.2837 35.1117 98.4125 34.951 98.4125ZM33.2179 98.4125H32.6423C32.4816 98.4125 32.353 98.2837 32.353 98.1227C32.353 97.9618 32.4816 97.833 32.6423 97.833H33.2179C33.3787 97.833 33.5073 97.9618 33.5073 98.1227C33.5073 98.2837 33.3787 98.4125 33.2179 98.4125ZM31.488 98.4125H30.9125C30.7517 98.4125 30.6231 98.2837 30.6231 98.1227C30.6231 97.9618 30.7517 97.833 30.9125 97.833H31.488C31.6488 97.833 31.7774 97.9618 31.7774 98.1227C31.7774 98.2837 31.6488 98.4125 31.488 98.4125ZM29.7582 98.4125H29.1826C29.0219 98.4125 28.8932 98.2837 28.8932 98.1227C28.8932 97.9618 29.0219 97.833 29.1826 97.833H29.7582C29.9189 97.833 30.0475 97.9618 30.0475 98.1227C30.0475 98.2837 29.9189 98.4125 29.7582 98.4125ZM28.0251 98.4125H27.4495C27.2888 98.4125 27.1602 98.2837 27.1602 98.1227C27.1602 97.9618 27.2888 97.833 27.4495 97.833H28.0251C28.1859 97.833 28.3145 97.9618 28.3145 98.1227C28.3145 98.2837 28.1859 98.4125 28.0251 98.4125Z" fill="white"/>
<path d="M73.3164 35.7003H70.3743C70.2136 35.7003 70.085 35.5716 70.085 35.4106V28.4665C70.085 28.3055 70.2136 28.1768 70.3743 28.1768H73.2424C73.4032 28.1768 73.5318 28.3055 73.5318 28.4665C73.5318 28.6275 73.4032 28.7562 73.2424 28.7562H70.6605V35.1241H73.3132C73.4739 35.1241 73.6026 35.2528 73.6026 35.4138C73.6026 35.5748 73.4739 35.7035 73.3132 35.7035L73.3164 35.7003Z" fill="white"/>
<path d="M92.821 35.6996H89.9529C89.7921 35.6996 89.6635 35.5709 89.6635 35.4099C89.6635 35.2489 89.7921 35.1202 89.9529 35.1202H92.5348V28.7523H89.8822C89.7214 28.7523 89.5928 28.6236 89.5928 28.4626C89.5928 28.3016 89.7214 28.1729 89.8822 28.1729H92.8242C92.985 28.1729 93.1136 28.3016 93.1136 28.4626V35.4067C93.1136 35.5676 92.985 35.6964 92.8242 35.6964L92.821 35.6996Z" fill="white"/>
<path d="M88.8209 32.5863H88.2454C88.0846 32.5863 87.956 32.4575 87.956 32.2966C87.956 32.1356 88.0846 32.0068 88.2454 32.0068H88.8209C88.9817 32.0068 89.1103 32.1356 89.1103 32.2966C89.1103 32.4575 88.9817 32.5863 88.8209 32.5863ZM87.091 32.5863H86.5155C86.3547 32.5863 86.2261 32.4575 86.2261 32.2966C86.2261 32.1356 86.3547 32.0068 86.5155 32.0068H87.091C87.2518 32.0068 87.3804 32.1356 87.3804 32.2966C87.3804 32.4575 87.2518 32.5863 87.091 32.5863ZM85.358 32.5863H84.7824C84.6217 32.5863 84.493 32.4575 84.493 32.2966C84.493 32.1356 84.6217 32.0068 84.7824 32.0068H85.358C85.5187 32.0068 85.6474 32.1356 85.6474 32.2966C85.6474 32.4575 85.5187 32.5863 85.358 32.5863ZM83.6281 32.5863H83.0526C82.8918 32.5863 82.7632 32.4575 82.7632 32.2966C82.7632 32.1356 82.8918 32.0068 83.0526 32.0068H83.6281C83.7889 32.0068 83.9175 32.1356 83.9175 32.2966C83.9175 32.4575 83.7889 32.5863 83.6281 32.5863ZM81.8982 32.5863H81.3227C81.1619 32.5863 81.0333 32.4575 81.0333 32.2966C81.0333 32.1356 81.1619 32.0068 81.3227 32.0068H81.8982C82.059 32.0068 82.1876 32.1356 82.1876 32.2966C82.1876 32.4575 82.059 32.5863 81.8982 32.5863ZM80.1652 32.5863H79.5896C79.4288 32.5863 79.3002 32.4575 79.3002 32.2966C79.3002 32.1356 79.4288 32.0068 79.5896 32.0068H80.1652C80.3259 32.0068 80.4545 32.1356 80.4545 32.2966C80.4545 32.4575 80.3259 32.5863 80.1652 32.5863ZM78.4353 32.5863H77.8597C77.699 32.5863 77.5704 32.4575 77.5704 32.2966C77.5704 32.1356 77.699 32.0068 77.8597 32.0068H78.4353C78.5961 32.0068 78.7247 32.1356 78.7247 32.2966C78.7247 32.4575 78.5961 32.5863 78.4353 32.5863ZM76.7022 32.5863H76.1267C75.9659 32.5863 75.8373 32.4575 75.8373 32.2966C75.8373 32.1356 75.9659 32.0068 76.1267 32.0068H76.7022C76.863 32.0068 76.9916 32.1356 76.9916 32.2966C76.9916 32.4575 76.863 32.5863 76.7022 32.5863ZM74.9724 32.5863H74.3968C74.236 32.5863 74.1074 32.4575 74.1074 32.2966C74.1074 32.1356 74.236 32.0068 74.3968 32.0068H74.9724C75.1331 32.0068 75.2617 32.1356 75.2617 32.2966C75.2617 32.4575 75.1331 32.5863 74.9724 32.5863Z" fill="white"/>
<path d="M74.2336 49.0779L74.2341 49.0782C74.9053 49.4652 75.3214 50.1852 75.3214 50.963V72.262C75.3214 73.0387 74.9062 73.7565 74.2331 74.1474C74.233 74.1474 74.2329 74.1475 74.2328 74.1475L55.8096 84.7966L55.8088 84.7971C55.1377 85.1866 54.3068 85.1866 53.6357 84.7971L53.6349 84.7966L35.2109 74.1471L35.2104 74.1468C34.5392 73.7598 34.123 73.0398 34.123 72.262V50.963C34.123 50.1863 34.5383 49.4685 35.2114 49.0776C35.2115 49.0776 35.2116 49.0775 35.2117 49.0775L53.6349 38.4284L53.6357 38.4279C54.3068 38.0383 55.1377 38.0383 55.8088 38.4279L55.8096 38.4284L74.2336 49.0779Z" fill="#130C49" stroke="#68B357"/>
<path d="M46.4485 67.0211L50.8375 54.2822H53.8439L58.2328 67.0211H55.7056L54.7988 64.3008H49.8793L48.9565 67.0211H46.4453H46.4485ZM50.5481 62.234H54.1172L52.0175 55.908H52.667L50.5481 62.234Z" fill="white"/>
<path d="M59.6348 67.0211V54.2822H61.9755V67.0211H59.6348Z" fill="white"/>
</svg>
