<svg width="244" height="278" viewBox="0 0 244 278" fill="none" xmlns="http://www.w3.org/2000/svg">
<g opacity="0.9">
<path d="M122 277.087C119.213 277.087 116.426 276.366 113.939 274.931L8.06111 213.724C3.08617 210.848 0 205.489 0 199.744V77.3369C0 71.5851 3.08617 66.2329 8.06111 63.3571L113.939 2.15692C118.914 -0.718973 125.093 -0.718973 130.061 2.15692L235.939 63.3571C240.914 66.2329 244 71.5922 244 77.3369V199.744C244 205.496 240.914 210.848 235.939 213.724L130.061 274.924C127.574 276.359 124.787 277.079 122 277.079V277.087ZM122 2.56368C119.655 2.56368 117.31 3.17026 115.215 4.37628L9.34404 65.5764C5.16025 67.9956 2.55874 72.5057 2.55874 77.3369V199.744C2.55874 204.583 5.16025 209.086 9.34404 211.505L115.222 272.705C119.406 275.124 124.602 275.124 128.785 272.705L234.663 211.505C238.847 209.086 241.448 204.576 241.448 199.744V77.3369C241.448 72.4986 238.847 67.9956 234.663 65.5764L128.778 4.37628C126.69 3.16313 124.338 2.56368 121.993 2.56368H122Z" fill="#ECF4F8"/>
<path d="M137.867 204.904H117.875V224.921H137.867V204.904Z" fill="#ECF4F8"/>
<path d="M138.499 225.555H117.23V204.261H138.499V225.555ZM118.513 224.278H137.223V205.545H118.513V224.278Z" fill="#ECF4F8"/>
<path d="M157.465 225.741H137.473V245.758H157.465V225.741Z" fill="#ECF4F8"/>
<path d="M158.096 246.392H136.828V225.098H158.096V246.392ZM138.111 245.115H156.821V226.382H138.111V245.115Z" fill="#ECF4F8"/>
<path d="M222.309 104.663H202.316V124.68H222.309V104.663Z" fill="#ECF4F8"/>
<path d="M222.94 125.32H201.672V104.025H222.94V125.32ZM202.948 124.035H221.657V105.303H202.948V124.035Z" fill="#ECF4F8"/>
<path d="M186.379 126.856H176.387V136.861H186.379V126.856Z" fill="#ECF4F8"/>
<path d="M64.5239 145.545H54.5312V155.55H64.5239V145.545Z" fill="#ECF4F8"/>
<path d="M226.207 138.545H216.215V148.55H226.207V138.545Z" fill="#ECF4F8"/>
<path d="M35.5278 131.144H25.5352V141.149H35.5278V131.144Z" fill="#ECF4F8"/>
<path d="M35.5278 115.516H25.5352V125.521H35.5278V115.516Z" fill="#ECF4F8"/>
<path d="M35.5278 99.8867H25.5352V109.892H35.5278V99.8867Z" fill="#ECF4F8"/>
<path d="M35.5356 84.2656H25.543V94.2706H35.5356V84.2656Z" fill="#ECF4F8"/>
<path d="M36.174 94.9116H24.8984V83.6221H36.174V94.9116ZM26.1814 93.627H34.8982V84.8995H26.1814V93.627Z" fill="#ECF4F8"/>
<path d="M57.5258 178.341L38.3945 159.187L19.2633 178.341L38.3945 197.496L57.5258 178.341Z" fill="#ECF4F8"/>
<path d="M38.3906 198.413L18.3555 178.353L38.3906 158.293L58.4258 178.353L38.3906 198.413ZM20.1658 178.346L38.3978 196.6L56.6297 178.346L38.3978 160.091L20.1658 178.346Z" fill="#ECF4F8"/>
<path d="M89.1092 82.112V63.408L72.937 54.0596L56.7578 63.408V82.112L72.937 91.4604L89.1092 82.112Z" fill="#ECF4F8"/>
<path d="M72.9269 92.2023L56.1133 82.4828V63.0437L72.9269 53.3242L89.7404 63.0437V82.4828L72.9269 92.2023ZM57.3891 81.7406L72.9269 90.7251L88.4646 81.7406V63.7788L72.9269 54.7943L57.3891 63.7788V81.7406Z" fill="#ECF4F8"/>
<path d="M96.841 42.6998C100.628 42.6998 103.698 39.6262 103.698 35.8348C103.698 32.0433 100.628 28.9697 96.841 28.9697C93.0542 28.9697 89.9844 32.0433 89.9844 35.8348C89.9844 39.6262 93.0542 42.6998 96.841 42.6998Z" fill="#ECF4F8"/>
<path d="M96.8379 43.3408C92.704 43.3408 89.3398 39.9725 89.3398 35.8335C89.3398 31.6945 92.704 28.3262 96.8379 28.3262C100.972 28.3262 104.336 31.6945 104.336 35.8335C104.336 39.9725 100.972 43.3408 96.8379 43.3408ZM96.8379 29.6107C93.4096 29.6107 90.6228 32.4009 90.6228 35.8335C90.6228 39.266 93.4096 42.0562 96.8379 42.0562C100.266 42.0562 103.053 39.266 103.053 35.8335C103.053 32.4009 100.266 29.6107 96.8379 29.6107Z" fill="#ECF4F8"/>
<path d="M116.868 42.6988C120.655 42.6988 123.725 39.6252 123.725 35.8338C123.725 32.0423 120.655 28.9688 116.868 28.9688C113.082 28.9688 110.012 32.0423 110.012 35.8338C110.012 39.6252 113.082 42.6988 116.868 42.6988Z" fill="#ECF4F8"/>
<path d="M136.915 42.6998C140.702 42.6998 143.772 39.6262 143.772 35.8348C143.772 32.0433 140.702 28.9697 136.915 28.9697C133.128 28.9697 130.059 32.0433 130.059 35.8348C130.059 39.6262 133.128 42.6998 136.915 42.6998Z" fill="#ECF4F8"/>
<path d="M136.912 43.3408C132.778 43.3408 129.414 39.9725 129.414 35.8335C129.414 31.6945 132.778 28.3262 136.912 28.3262C141.046 28.3262 144.41 31.6945 144.41 35.8335C144.41 39.9725 141.046 43.3408 136.912 43.3408ZM136.912 29.6107C133.484 29.6107 130.697 32.4009 130.697 35.8335C130.697 39.266 133.484 42.0562 136.912 42.0562C140.34 42.0562 143.127 39.266 143.127 35.8335C143.127 32.4009 140.34 29.6107 136.912 29.6107Z" fill="#ECF4F8"/>
<path d="M188.255 171.103C192.042 171.103 195.112 168.03 195.112 164.238C195.112 160.447 192.042 157.373 188.255 157.373C184.468 157.373 181.398 160.447 181.398 164.238C181.398 168.03 184.468 171.103 188.255 171.103Z" fill="#ECF4F8"/>
<path d="M188.252 171.744C184.118 171.744 180.754 168.376 180.754 164.237C180.754 160.098 184.118 156.729 188.252 156.729C192.386 156.729 195.75 160.098 195.75 164.237C195.75 168.376 192.386 171.744 188.252 171.744ZM188.252 158.014C184.824 158.014 182.037 160.804 182.037 164.237C182.037 167.669 184.824 170.46 188.252 170.46C191.68 170.46 194.467 167.669 194.467 164.237C194.467 160.804 191.68 158.014 188.252 158.014Z" fill="#ECF4F8"/>
<path d="M84.0456 186.074L87.1817 189.242C87.8588 189.92 88.2009 190.498 88.2009 190.983C88.2009 191.469 87.8588 192.04 87.1817 192.71C86.5046 193.381 85.9273 193.717 85.4569 193.717C84.9865 193.717 84.4091 193.374 83.732 192.696L80.6245 189.556L77.4884 192.696C76.8113 193.374 76.2411 193.717 75.7778 193.717C75.3146 193.717 74.7444 193.381 74.053 192.71C73.3616 192.04 73.0195 191.469 73.0195 190.983C73.0195 190.498 73.3616 189.92 74.0388 189.242L77.1748 186.074L74.0388 182.905C73.3616 182.227 73.0195 181.649 73.0195 181.164C73.0195 180.679 73.3616 180.101 74.053 179.423C74.7372 178.745 75.3146 178.402 75.7778 178.402C76.2411 178.402 76.8113 178.745 77.4884 179.423L80.6245 182.591L83.732 179.423C84.4091 178.745 84.9865 178.402 85.4569 178.402C85.9273 178.402 86.5046 178.745 87.1817 179.423C87.8588 180.101 88.2009 180.679 88.2009 181.164C88.2009 181.649 87.8588 182.22 87.1817 182.905L84.0456 186.074Z" fill="#ECF4F8"/>
<path d="M121.526 63.3287L124.662 66.4971C125.339 67.1751 125.681 67.7531 125.681 68.2384C125.681 68.7236 125.339 69.2945 124.662 69.9653C123.985 70.6361 123.408 70.9715 122.937 70.9715C122.467 70.9715 121.89 70.6361 121.213 69.9511L118.105 66.8111L114.969 69.9511C114.292 70.629 113.722 70.9715 113.258 70.9715C112.795 70.9715 112.225 70.6361 111.533 69.9653C110.849 69.2945 110.5 68.7236 110.5 68.2384C110.5 67.7531 110.842 67.1751 111.519 66.4971L114.655 63.3287L111.519 60.1602C110.842 59.4822 110.5 58.9042 110.5 58.4189C110.5 57.9337 110.842 57.3556 111.533 56.6777C112.218 55.9998 112.795 55.6572 113.258 55.6572C113.722 55.6572 114.292 55.9998 114.969 56.6777L118.105 59.8462L121.213 56.6777C121.89 55.9998 122.467 55.6572 122.937 55.6572C123.408 55.6572 123.985 55.9998 124.662 56.6777C125.339 57.3556 125.681 57.9337 125.681 58.4189C125.681 58.9042 125.339 59.4822 124.662 60.1602L121.526 63.3287Z" fill="#ECF4F8"/>
<path d="M168.038 203.572H161.516C161.16 203.572 160.875 203.286 160.875 202.93V187.537C160.875 187.18 161.16 186.895 161.516 186.895H167.874C168.23 186.895 168.516 187.18 168.516 187.537C168.516 187.894 168.23 188.179 167.874 188.179H162.151V202.294H168.031C168.387 202.294 168.672 202.58 168.672 202.937C168.672 203.294 168.387 203.579 168.031 203.579L168.038 203.572Z" fill="#ECF4F8"/>
<path d="M211.273 203.569H204.915C204.559 203.569 204.274 203.284 204.274 202.927C204.274 202.57 204.559 202.285 204.915 202.285H210.639V188.169H204.759C204.402 188.169 204.117 187.884 204.117 187.527C204.117 187.17 204.402 186.885 204.759 186.885H211.28C211.637 186.885 211.922 187.17 211.922 187.527V202.92C211.922 203.277 211.637 203.562 211.28 203.562L211.273 203.569Z" fill="#ECF4F8"/>
<path d="M202.389 196.675H201.113C200.756 196.675 200.471 196.39 200.471 196.033C200.471 195.676 200.756 195.391 201.113 195.391H202.389C202.745 195.391 203.03 195.676 203.03 196.033C203.03 196.39 202.745 196.675 202.389 196.675ZM198.554 196.675H197.278C196.922 196.675 196.637 196.39 196.637 196.033C196.637 195.676 196.922 195.391 197.278 195.391H198.554C198.91 195.391 199.195 195.676 199.195 196.033C199.195 196.39 198.91 196.675 198.554 196.675ZM194.719 196.675H193.444C193.087 196.675 192.802 196.39 192.802 196.033C192.802 195.676 193.087 195.391 193.444 195.391H194.719C195.076 195.391 195.361 195.676 195.361 196.033C195.361 196.39 195.076 196.675 194.719 196.675ZM190.878 196.675H189.602C189.246 196.675 188.96 196.39 188.96 196.033C188.96 195.676 189.246 195.391 189.602 195.391H190.878C191.234 195.391 191.519 195.676 191.519 196.033C191.519 196.39 191.234 196.675 190.878 196.675ZM187.043 196.675H185.767C185.411 196.675 185.126 196.39 185.126 196.033C185.126 195.676 185.411 195.391 185.767 195.391H187.043C187.4 195.391 187.685 195.676 187.685 196.033C187.685 196.39 187.4 196.675 187.043 196.675ZM183.201 196.675H181.926C181.569 196.675 181.284 196.39 181.284 196.033C181.284 195.676 181.569 195.391 181.926 195.391H183.201C183.558 195.391 183.843 195.676 183.843 196.033C183.843 196.39 183.558 196.675 183.201 196.675ZM179.367 196.675H178.091C177.735 196.675 177.45 196.39 177.45 196.033C177.45 195.676 177.735 195.391 178.091 195.391H179.367C179.723 195.391 180.008 195.676 180.008 196.033C180.008 196.39 179.723 196.675 179.367 196.675ZM175.525 196.675H174.249C173.893 196.675 173.608 196.39 173.608 196.033C173.608 195.676 173.893 195.391 174.249 195.391H175.525C175.882 195.391 176.167 195.676 176.167 196.033C176.167 196.39 175.882 196.675 175.525 196.675ZM171.691 196.675H170.415C170.059 196.675 169.773 196.39 169.773 196.033C169.773 195.676 170.059 195.391 170.415 195.391H171.691C172.047 195.391 172.332 195.676 172.332 196.033C172.332 196.39 172.047 196.675 171.691 196.675Z" fill="#ECF4F8"/>
<path d="M58.4677 225.052H51.9462C51.5898 225.052 51.3047 224.767 51.3047 224.41V209.017C51.3047 208.66 51.5898 208.375 51.9462 208.375H58.3038C58.6602 208.375 58.9453 208.66 58.9453 209.017C58.9453 209.374 58.6602 209.66 58.3038 209.66H52.5805V223.775H58.4606C58.817 223.775 59.1021 224.06 59.1021 224.417C59.1021 224.774 58.817 225.059 58.4606 225.059L58.4677 225.052Z" fill="#ECF4F8"/>
<path d="M101.703 225.05H95.3451C94.9888 225.05 94.7037 224.764 94.7037 224.407C94.7037 224.051 94.9888 223.765 95.3451 223.765H101.068V209.65H95.1883C94.832 209.65 94.5469 209.364 94.5469 209.007C94.5469 208.651 94.832 208.365 95.1883 208.365H101.71C102.066 208.365 102.351 208.651 102.351 209.007V224.4C102.351 224.757 102.066 225.043 101.71 225.043L101.703 225.05Z" fill="#ECF4F8"/>
<path d="M92.8253 218.149H91.5495C91.1931 218.149 90.908 217.863 90.908 217.507C90.908 217.15 91.1931 216.864 91.5495 216.864H92.8253C93.1817 216.864 93.4668 217.15 93.4668 217.507C93.4668 217.863 93.1817 218.149 92.8253 218.149ZM88.9836 218.149H87.7078C87.3515 218.149 87.0664 217.863 87.0664 217.507C87.0664 217.15 87.3515 216.864 87.7078 216.864H88.9836C89.34 216.864 89.6251 217.15 89.6251 217.507C89.6251 217.863 89.34 218.149 88.9836 218.149ZM85.1491 218.149H83.8733C83.5169 218.149 83.2318 217.863 83.2318 217.507C83.2318 217.15 83.5169 216.864 83.8733 216.864H85.1491C85.5055 216.864 85.7906 217.15 85.7906 217.507C85.7906 217.863 85.5055 218.149 85.1491 218.149ZM81.3074 218.149H80.0316C79.6752 218.149 79.3901 217.863 79.3901 217.507C79.3901 217.15 79.6752 216.864 80.0316 216.864H81.3074C81.6638 216.864 81.9489 217.15 81.9489 217.507C81.9489 217.863 81.6638 218.149 81.3074 218.149ZM77.4729 218.149H76.1971C75.8407 218.149 75.5556 217.863 75.5556 217.507C75.5556 217.15 75.8407 216.864 76.1971 216.864H77.4729C77.8292 216.864 78.1143 217.15 78.1143 217.507C78.1143 217.863 77.8292 218.149 77.4729 218.149ZM73.6312 218.149H72.3554C71.999 218.149 71.7139 217.863 71.7139 217.507C71.7139 217.15 71.999 216.864 72.3554 216.864H73.6312C73.9875 216.864 74.2726 217.15 74.2726 217.507C74.2726 217.863 73.9875 218.149 73.6312 218.149ZM69.7966 218.149H68.5208C68.1644 218.149 67.8794 217.863 67.8794 217.507C67.8794 217.15 68.1644 216.864 68.5208 216.864H69.7966C70.153 216.864 70.4381 217.15 70.4381 217.507C70.4381 217.863 70.153 218.149 69.7966 218.149ZM65.9621 218.149H64.6863C64.3299 218.149 64.0448 217.863 64.0448 217.507C64.0448 217.15 64.3299 216.864 64.6863 216.864H65.9621C66.3185 216.864 66.6035 217.15 66.6035 217.507C66.6035 217.863 66.3185 218.149 65.9621 218.149ZM62.1204 218.149H60.8446C60.4882 218.149 60.2031 217.863 60.2031 217.507C60.2031 217.15 60.4882 216.864 60.8446 216.864H62.1204C62.4768 216.864 62.7619 217.15 62.7619 217.507C62.7619 217.863 62.4768 218.149 62.1204 218.149Z" fill="#ECF4F8"/>
<path d="M162.522 79.1383H156.001C155.644 79.1383 155.359 78.8528 155.359 78.496V63.1032C155.359 62.7464 155.644 62.4609 156.001 62.4609H162.358C162.715 62.4609 163 62.7464 163 63.1032C163 63.46 162.715 63.7455 162.358 63.7455H156.635V77.8609H162.515C162.872 77.8609 163.157 78.1463 163.157 78.5031C163.157 78.8599 162.872 79.1454 162.515 79.1454L162.522 79.1383Z" fill="#ECF4F8"/>
<path d="M205.757 79.1356H199.4C199.043 79.1356 198.758 78.8502 198.758 78.4934C198.758 78.1366 199.043 77.8511 199.4 77.8511H205.123V63.7357H199.243C198.887 63.7357 198.602 63.4502 198.602 63.0934C198.602 62.7366 198.887 62.4512 199.243 62.4512H205.765C206.121 62.4512 206.406 62.7366 206.406 63.0934V78.4862C206.406 78.843 206.121 79.1285 205.765 79.1285L205.757 79.1356Z" fill="#ECF4F8"/>
<path d="M196.892 72.2347H195.617C195.26 72.2347 194.975 71.9493 194.975 71.5925C194.975 71.2356 195.26 70.9502 195.617 70.9502H196.892C197.249 70.9502 197.534 71.2356 197.534 71.5925C197.534 71.9493 197.249 72.2347 196.892 72.2347ZM193.058 72.2347H191.782C191.426 72.2347 191.141 71.9493 191.141 71.5925C191.141 71.2356 191.426 70.9502 191.782 70.9502H193.058C193.414 70.9502 193.699 71.2356 193.699 71.5925C193.699 71.9493 193.414 72.2347 193.058 72.2347ZM189.216 72.2347H187.94C187.584 72.2347 187.299 71.9493 187.299 71.5925C187.299 71.2356 187.584 70.9502 187.94 70.9502H189.216C189.573 70.9502 189.858 71.2356 189.858 71.5925C189.858 71.9493 189.573 72.2347 189.216 72.2347ZM185.382 72.2347H184.106C183.749 72.2347 183.464 71.9493 183.464 71.5925C183.464 71.2356 183.749 70.9502 184.106 70.9502H185.382C185.738 70.9502 186.023 71.2356 186.023 71.5925C186.023 71.9493 185.738 72.2347 185.382 72.2347ZM181.547 72.2347H180.271C179.915 72.2347 179.63 71.9493 179.63 71.5925C179.63 71.2356 179.915 70.9502 180.271 70.9502H181.547C181.903 70.9502 182.189 71.2356 182.189 71.5925C182.189 71.9493 181.903 72.2347 181.547 72.2347ZM177.705 72.2347H176.43C176.073 72.2347 175.788 71.9493 175.788 71.5925C175.788 71.2356 176.073 70.9502 176.43 70.9502H177.705C178.062 70.9502 178.347 71.2356 178.347 71.5925C178.347 71.9493 178.062 72.2347 177.705 72.2347ZM173.871 72.2347H172.595C172.239 72.2347 171.954 71.9493 171.954 71.5925C171.954 71.2356 172.239 70.9502 172.595 70.9502H173.871C174.227 70.9502 174.512 71.2356 174.512 71.5925C174.512 71.9493 174.227 72.2347 173.871 72.2347ZM170.029 72.2347H168.753C168.397 72.2347 168.112 71.9493 168.112 71.5925C168.112 71.2356 168.397 70.9502 168.753 70.9502H170.029C170.386 70.9502 170.671 71.2356 170.671 71.5925C170.671 71.9493 170.386 72.2347 170.029 72.2347ZM166.195 72.2347H164.919C164.562 72.2347 164.277 71.9493 164.277 71.5925C164.277 71.2356 164.562 70.9502 164.919 70.9502H166.195C166.551 70.9502 166.836 71.2356 166.836 71.5925C166.836 71.9493 166.551 72.2347 166.195 72.2347Z" fill="#ECF4F8"/>
<path d="M164.864 108.263L164.865 108.263C166.541 109.23 167.579 111.027 167.579 112.968V160.181C167.579 162.121 166.542 163.912 164.863 164.887L124.024 188.493L124.023 188.493C122.347 189.466 120.272 189.466 118.595 188.493L118.594 188.493L77.7543 164.886L77.7538 164.886C76.0772 163.919 75.0391 162.122 75.0391 160.181V112.968C75.0391 111.028 76.0763 109.237 77.7545 108.263C77.7547 108.262 77.7549 108.262 77.7551 108.262L118.594 84.6561L118.595 84.6557C120.272 83.6825 122.347 83.6825 124.023 84.6557L124.024 84.6561L164.864 108.263Z" stroke="#ECF4F8"/>
<path d="M102.952 148.565L112.681 120.327H119.346L129.074 148.565H123.472L121.462 142.535H110.557L108.512 148.565H102.945H102.952ZM112.04 137.954H119.951L115.297 123.931H116.737L112.04 137.954Z" fill="#ECF4F8"/>
<path d="M132.184 148.565V120.327H137.372V148.565H132.184Z" fill="#ECF4F8"/>
</g>
</svg>
