<svg width="37" height="37" viewBox="0 0 37 37" fill="none" xmlns="http://www.w3.org/2000/svg">
<g id="Flexibility and scalability-icon">
<path id="Vector" d="M28.6687 0H8.32125C3.72503 0 0 3.73 0 8.32V28.68C0 33.28 3.72503 37 8.32125 37H28.6788C33.275 37 37 33.27 37 28.68V8.32C37 3.72 33.275 0 28.6788 0H28.6687Z" fill="#ECF4F8"/>
<path id="Vector_2" d="M29.5517 29.5195H22.0415V26.5195H26.5476V22.0195H29.5517V29.5195Z" fill="#61D384"/>
<path id="Vector_3" d="M15.1102 29.5195H7.6001V22.0195H10.6042V26.5195H15.1102V29.5195Z" fill="#61D384"/>
<path id="Vector_4" d="M10.6042 15.09H7.6001V7.58997H15.1102V10.59H10.6042V15.09Z" fill="#61D384"/>
<path id="Vector_5" d="M29.5517 15.09H26.5476V10.59H22.0415V7.58997H29.5517V15.09Z" fill="#61D384"/>
<path id="Vector_6" d="M23.9645 13.17H13.1899V23.93H23.9645V13.17Z" fill="#130C49"/>
</g>
</svg>
