<svg width="254" height="204" viewBox="0 0 254 204" fill="none" xmlns="http://www.w3.org/2000/svg">
<path d="M226.362 186.121H225.262C225.042 186.121 224.864 185.942 224.864 185.722C224.864 185.501 225.042 185.323 225.262 185.323H226.31C226.53 185.323 226.729 185.501 226.729 185.722C226.729 185.942 226.582 186.121 226.362 186.121ZM221.081 186.121H220.033C219.813 186.121 219.635 185.942 219.635 185.722C219.635 185.501 219.813 185.323 220.033 185.323H221.081C221.301 185.323 221.479 185.501 221.479 185.722C221.479 185.942 221.301 186.121 221.081 186.121ZM215.853 186.121H214.805C214.585 186.121 214.407 185.942 214.407 185.722C214.407 185.501 214.585 185.323 214.805 185.323H215.853C216.073 185.323 216.251 185.501 216.251 185.722C216.251 185.942 216.073 186.121 215.853 186.121ZM210.624 186.121H209.577C209.357 186.121 209.178 185.942 209.178 185.722C209.178 185.501 209.357 185.323 209.577 185.323H210.624C210.844 185.323 211.023 185.501 211.023 185.722C211.023 185.942 210.844 186.121 210.624 186.121ZM205.396 186.121H204.348C204.128 186.121 203.95 185.942 203.95 185.722C203.95 185.501 204.128 185.323 204.348 185.323H205.396C205.616 185.323 205.794 185.501 205.794 185.722C205.794 185.942 205.616 186.121 205.396 186.121ZM200.168 186.121H199.12C198.9 186.121 198.722 185.942 198.722 185.722C198.722 185.501 198.9 185.323 199.12 185.323H200.168C200.388 185.323 200.566 185.501 200.566 185.722C200.566 185.942 200.388 186.121 200.168 186.121ZM194.95 186.121H193.902C193.682 186.121 193.504 185.942 193.504 185.722C193.504 185.501 193.682 185.323 193.902 185.323H194.95C195.17 185.323 195.348 185.501 195.348 185.722C195.348 185.942 195.17 186.121 194.95 186.121ZM189.721 186.121H188.673C188.453 186.121 188.275 185.942 188.275 185.722C188.275 185.501 188.453 185.323 188.673 185.323H189.721C189.941 185.323 190.119 185.501 190.119 185.722C190.119 185.942 189.941 186.121 189.721 186.121ZM184.493 186.121H183.445C183.225 186.121 183.047 185.942 183.047 185.722C183.047 185.501 183.225 185.323 183.445 185.323H184.493C184.713 185.323 184.891 185.501 184.891 185.722C184.891 185.942 184.713 186.121 184.493 186.121ZM179.264 186.121H178.217C177.997 186.121 177.818 185.942 177.818 185.722C177.818 185.501 177.997 185.323 178.217 185.323H179.264C179.484 185.323 179.663 185.501 179.663 185.722C179.663 185.942 179.484 186.121 179.264 186.121ZM174.036 186.121H172.988C172.768 186.121 172.59 185.942 172.59 185.722C172.59 185.501 172.768 185.323 172.988 185.323H174.036C174.256 185.323 174.434 185.501 174.434 185.722C174.434 185.942 174.256 186.121 174.036 186.121ZM168.808 186.121H167.76C167.54 186.121 167.362 185.942 167.362 185.722C167.362 185.501 167.54 185.323 167.76 185.323H168.808C169.028 185.323 169.206 185.501 169.206 185.722C169.206 185.942 169.028 186.121 168.808 186.121ZM163.579 186.121H162.531C162.311 186.121 162.133 185.942 162.133 185.722C162.133 185.501 162.311 185.323 162.531 185.323H163.579C163.799 185.323 163.977 185.501 163.977 185.722C163.977 185.942 163.799 186.121 163.579 186.121ZM158.351 186.121H157.303C157.083 186.121 156.905 185.942 156.905 185.722C156.905 185.501 157.083 185.323 157.303 185.323H158.351C158.571 185.323 158.749 185.501 158.749 185.722C158.749 185.942 158.571 186.121 158.351 186.121ZM153.122 186.121H152.075C151.855 186.121 151.676 185.942 151.676 185.722C151.676 185.501 151.855 185.323 152.075 185.323H153.122C153.342 185.323 153.52 185.501 153.52 185.722C153.52 185.942 153.342 186.121 153.122 186.121ZM147.894 186.121H146.846C146.626 186.121 146.448 185.942 146.448 185.722C146.448 185.501 146.626 185.323 146.846 185.323H147.894C148.114 185.323 148.292 185.501 148.292 185.722C148.292 185.942 148.114 186.121 147.894 186.121ZM142.666 186.121H141.618C141.398 186.121 141.22 185.942 141.22 185.722C141.22 185.501 141.398 185.323 141.618 185.323H142.666C142.886 185.323 143.064 185.501 143.064 185.722C143.064 185.942 142.886 186.121 142.666 186.121ZM137.437 186.121H136.389C136.169 186.121 135.991 185.942 135.991 185.722C135.991 185.501 136.169 185.323 136.389 185.323H137.437C137.657 185.323 137.835 185.501 137.835 185.722C137.835 185.942 137.657 186.121 137.437 186.121ZM132.219 186.121H131.171C130.951 186.121 130.773 185.942 130.773 185.722C130.773 185.501 130.951 185.323 131.171 185.323H132.219C132.439 185.323 132.617 185.501 132.617 185.722C132.617 185.942 132.439 186.121 132.219 186.121ZM126.991 186.121H125.943C125.723 186.121 125.545 185.942 125.545 185.722C125.545 185.501 125.723 185.323 125.943 185.323H126.991C127.211 185.323 127.389 185.501 127.389 185.722C127.389 185.942 127.211 186.121 126.991 186.121ZM121.762 186.121H120.715C120.495 186.121 120.316 185.942 120.316 185.722C120.316 185.501 120.495 185.323 120.715 185.323H121.762C121.982 185.323 122.16 185.501 122.16 185.722C122.16 185.942 121.982 186.121 121.762 186.121ZM116.534 186.121H115.486C115.266 186.121 115.088 185.942 115.088 185.722C115.088 185.501 115.266 185.323 115.486 185.323H116.534C116.754 185.323 116.932 185.501 116.932 185.722C116.932 185.942 116.754 186.121 116.534 186.121ZM111.305 186.121H110.258C110.038 186.121 109.86 185.942 109.86 185.722C109.86 185.501 110.038 185.323 110.258 185.323H111.305C111.526 185.323 111.704 185.501 111.704 185.722C111.704 185.942 111.526 186.121 111.305 186.121ZM106.077 186.121H105.029C104.809 186.121 104.631 185.942 104.631 185.722C104.631 185.501 104.809 185.323 105.029 185.323H106.077C106.297 185.323 106.475 185.501 106.475 185.722C106.475 185.942 106.297 186.121 106.077 186.121ZM100.849 186.121H99.8009C99.5808 186.121 99.4027 185.942 99.4027 185.722C99.4027 185.501 99.5808 185.323 99.8009 185.323H100.849C101.069 185.323 101.247 185.501 101.247 185.722C101.247 185.942 101.069 186.121 100.849 186.121ZM95.6202 186.121H94.5725C94.3524 186.121 94.1743 185.942 94.1743 185.722C94.1743 185.501 94.3524 185.323 94.5725 185.323H95.6202C95.8403 185.323 96.0184 185.501 96.0184 185.722C96.0184 185.942 95.8403 186.121 95.6202 186.121ZM90.3918 186.121H89.344C89.124 186.121 88.9459 185.942 88.9459 185.722C88.9459 185.501 89.124 185.323 89.344 185.323H90.3918C90.6119 185.323 90.79 185.501 90.79 185.722C90.79 185.942 90.6119 186.121 90.3918 186.121ZM85.1634 186.121H84.1156C83.8956 186.121 83.7175 185.942 83.7175 185.722C83.7175 185.501 83.8956 185.323 84.1156 185.323H85.1634C85.3834 185.323 85.5616 185.501 85.5616 185.722C85.5616 185.942 85.3834 186.121 85.1634 186.121ZM79.935 186.121H78.8872C78.6672 186.121 78.4891 185.942 78.4891 185.722C78.4891 185.501 78.6672 185.323 78.8872 185.323H79.935C80.155 185.323 80.3331 185.501 80.3331 185.722C80.3331 185.942 80.155 186.121 79.935 186.121ZM74.7066 186.121H73.6588C73.4388 186.121 73.2606 185.942 73.2606 185.722C73.2606 185.501 73.4388 185.323 73.6588 185.323H74.7066C74.9266 185.323 75.1047 185.501 75.1047 185.722C75.1047 185.942 74.9266 186.121 74.7066 186.121ZM69.4886 186.121H68.4409C68.2208 186.121 68.0427 185.942 68.0427 185.722C68.0427 185.501 68.2208 185.323 68.4409 185.323H69.4886C69.7087 185.323 69.8868 185.501 69.8868 185.722C69.8868 185.942 69.7087 186.121 69.4886 186.121ZM64.2602 186.121H63.2124C62.9924 186.121 62.8143 185.942 62.8143 185.722C62.8143 185.501 62.9924 185.323 63.2124 185.323H64.2602C64.4803 185.323 64.6584 185.501 64.6584 185.722C64.6584 185.942 64.4803 186.121 64.2602 186.121ZM59.0318 186.121H57.984C57.764 186.121 57.5859 185.942 57.5859 185.722C57.5859 185.501 57.764 185.323 57.984 185.323H59.0318C59.2518 185.323 59.43 185.501 59.43 185.722C59.43 185.942 59.2518 186.121 59.0318 186.121ZM53.8034 186.121H52.7556C52.5356 186.121 52.3575 185.942 52.3575 185.722C52.3575 185.501 52.5356 185.323 52.7556 185.323H53.8034C54.0234 185.323 54.2015 185.501 54.2015 185.722C54.2015 185.942 54.0234 186.121 53.8034 186.121ZM48.575 186.121H47.5272C47.3072 186.121 47.129 185.942 47.129 185.722C47.129 185.501 47.3072 185.323 47.5272 185.323H48.575C48.795 185.323 48.9731 185.501 48.9731 185.722C48.9731 185.942 48.795 186.121 48.575 186.121ZM43.3466 186.121H42.2988C42.0787 186.121 41.9006 185.942 41.9006 185.722C41.9006 185.501 42.0787 185.323 42.2988 185.323H43.3466C43.5666 185.323 43.7447 185.501 43.7447 185.722C43.7447 185.942 43.5666 186.121 43.3466 186.121ZM38.1181 186.121H37.0704C36.8503 186.121 36.6722 185.942 36.6722 185.722C36.6722 185.501 36.8503 185.323 37.0704 185.323H38.1181C38.3382 185.323 38.5163 185.501 38.5163 185.722C38.5163 185.942 38.3382 186.121 38.1181 186.121ZM32.8897 186.121H31.842C31.6219 186.121 31.4438 185.942 31.4438 185.722C31.4438 185.501 31.6219 185.323 31.842 185.323H32.8897C33.1098 185.323 33.2879 185.501 33.2879 185.722C33.2879 185.942 33.1098 186.121 32.8897 186.121ZM27.6613 186.121H26.6135C26.3935 186.121 26.2154 185.942 26.2154 185.722C26.2154 185.501 26.3935 185.323 26.6135 185.323H27.6613C27.8813 185.323 28.0595 185.501 28.0595 185.722C28.0595 185.942 27.8813 186.121 27.6613 186.121ZM22.5796 185.386C22.5062 185.386 22.4224 185.365 22.3596 185.313C22.0452 185.092 21.7623 184.84 21.5109 184.557C21.3642 184.389 21.3851 184.148 21.5423 184.001C21.6995 183.854 21.9509 183.875 22.0976 184.032C22.3072 184.273 22.5482 184.483 22.7996 184.662C22.9777 184.788 23.0197 185.029 22.9044 185.208C22.8311 185.323 22.7053 185.376 22.5796 185.376V185.386ZM229.841 184.137C229.767 184.137 229.694 184.116 229.631 184.074C229.443 183.959 229.39 183.717 229.505 183.528C229.673 183.255 229.799 182.972 229.893 182.668C229.956 182.458 230.176 182.342 230.386 182.405C230.595 182.468 230.71 182.689 230.647 182.899C230.532 183.266 230.375 183.612 230.176 183.938C230.103 184.064 229.977 184.127 229.841 184.127V184.137ZM20.7669 180.757C20.5469 180.757 20.3688 180.579 20.3688 180.359V179.309C20.3688 179.089 20.5469 178.91 20.7669 178.91C20.987 178.91 21.1651 179.089 21.1651 179.309V180.359C21.1651 180.579 20.987 180.757 20.7669 180.757ZM230.459 179.015C230.239 179.015 230.061 178.837 230.061 178.616V177.567C230.061 177.346 230.239 177.168 230.459 177.168C230.679 177.168 230.857 177.346 230.857 177.567V178.616C230.857 178.837 230.679 179.015 230.459 179.015ZM20.7669 175.52C20.5469 175.52 20.3688 175.342 20.3688 175.121V174.072C20.3688 173.851 20.5469 173.673 20.7669 173.673C20.987 173.673 21.1651 173.851 21.1651 174.072V175.121C21.1651 175.342 20.987 175.52 20.7669 175.52ZM230.459 173.778C230.239 173.778 230.061 173.599 230.061 173.379V172.329C230.061 172.109 230.239 171.93 230.459 171.93C230.679 171.93 230.857 172.109 230.857 172.329V173.379C230.857 173.599 230.679 173.778 230.459 173.778ZM20.7669 170.293C20.5469 170.293 20.3688 170.115 20.3688 169.894V168.845C20.3688 168.624 20.5469 168.446 20.7669 168.446C20.987 168.446 21.1651 168.624 21.1651 168.845V169.894C21.1651 170.115 20.987 170.293 20.7669 170.293ZM230.459 168.54C230.239 168.54 230.061 168.362 230.061 168.142V167.092C230.061 166.872 230.239 166.693 230.459 166.693C230.679 166.693 230.857 166.872 230.857 167.092V168.142C230.857 168.362 230.679 168.54 230.459 168.54ZM20.7669 165.056C20.5469 165.056 20.3688 164.877 20.3688 164.657V163.607C20.3688 163.387 20.5469 163.209 20.7669 163.209C20.987 163.209 21.1651 163.387 21.1651 163.607V164.657C21.1651 164.877 20.987 165.056 20.7669 165.056ZM230.459 163.303C230.239 163.303 230.061 163.125 230.061 162.904V161.855C230.061 161.634 230.239 161.456 230.459 161.456C230.679 161.456 230.857 161.634 230.857 161.855V162.904C230.857 163.125 230.679 163.303 230.459 163.303ZM20.7669 159.818C20.5469 159.818 20.3688 159.64 20.3688 159.42V158.37C20.3688 158.15 20.5469 157.971 20.7669 157.971C20.987 157.971 21.1651 158.15 21.1651 158.37V159.42C21.1651 159.64 20.987 159.818 20.7669 159.818ZM230.459 158.066C230.239 158.066 230.061 157.887 230.061 157.667V156.617C230.061 156.397 230.239 156.218 230.459 156.218C230.679 156.218 230.857 156.397 230.857 156.617V157.667C230.857 157.887 230.679 158.066 230.459 158.066ZM20.7669 154.581C20.5469 154.581 20.3688 154.403 20.3688 154.182V153.133C20.3688 152.912 20.5469 152.734 20.7669 152.734C20.987 152.734 21.1651 152.912 21.1651 153.133V154.182C21.1651 154.403 20.987 154.581 20.7669 154.581ZM230.459 152.828C230.239 152.828 230.061 152.65 230.061 152.429V151.38C230.061 151.159 230.239 150.981 230.459 150.981C230.679 150.981 230.857 151.159 230.857 151.38V152.429C230.857 152.65 230.679 152.828 230.459 152.828ZM20.7669 149.344C20.5469 149.344 20.3688 149.165 20.3688 148.945V147.895C20.3688 147.675 20.5469 147.496 20.7669 147.496C20.987 147.496 21.1651 147.675 21.1651 147.895V148.945C21.1651 149.165 20.987 149.344 20.7669 149.344ZM230.459 147.591C230.239 147.591 230.061 147.412 230.061 147.192V146.142C230.061 145.922 230.239 145.744 230.459 145.744C230.679 145.744 230.857 145.922 230.857 146.142V147.192C230.857 147.412 230.679 147.591 230.459 147.591ZM20.7669 144.106C20.5469 144.106 20.3688 143.928 20.3688 143.707V142.658C20.3688 142.437 20.5469 142.259 20.7669 142.259C20.987 142.259 21.1651 142.437 21.1651 142.658V143.707C21.1651 143.928 20.987 144.106 20.7669 144.106ZM230.459 142.353C230.239 142.353 230.061 142.175 230.061 141.955V140.905C230.061 140.685 230.239 140.506 230.459 140.506C230.679 140.506 230.857 140.685 230.857 140.905V141.955C230.857 142.175 230.679 142.353 230.459 142.353ZM20.7669 138.869C20.5469 138.869 20.3688 138.69 20.3688 138.47V137.42C20.3688 137.2 20.5469 137.022 20.7669 137.022C20.987 137.022 21.1651 137.2 21.1651 137.42V138.47C21.1651 138.69 20.987 138.869 20.7669 138.869ZM230.459 137.116C230.239 137.116 230.061 136.938 230.061 136.717V135.668C230.061 135.447 230.239 135.269 230.459 135.269C230.679 135.269 230.857 135.447 230.857 135.668V136.717C230.857 136.938 230.679 137.116 230.459 137.116ZM20.7669 133.632C20.5469 133.632 20.3688 133.453 20.3688 133.233V132.183C20.3688 131.963 20.5469 131.784 20.7669 131.784C20.987 131.784 21.1651 131.963 21.1651 132.183V133.233C21.1651 133.453 20.987 133.632 20.7669 133.632ZM230.459 131.889C230.239 131.889 230.061 131.711 230.061 131.49V130.441C230.061 130.22 230.239 130.042 230.459 130.042C230.679 130.042 230.857 130.22 230.857 130.441V131.49C230.857 131.711 230.679 131.889 230.459 131.889ZM20.7669 128.394C20.5469 128.394 20.3688 128.216 20.3688 127.995V126.946C20.3688 126.725 20.5469 126.547 20.7669 126.547C20.987 126.547 21.1651 126.725 21.1651 126.946V127.995C21.1651 128.216 20.987 128.394 20.7669 128.394ZM230.459 126.652C230.239 126.652 230.061 126.473 230.061 126.253V125.203C230.061 124.983 230.239 124.805 230.459 124.805C230.679 124.805 230.857 124.983 230.857 125.203V126.253C230.857 126.473 230.679 126.652 230.459 126.652ZM20.7669 123.157C20.5469 123.157 20.3688 122.978 20.3688 122.758V121.708C20.3688 121.488 20.5469 121.31 20.7669 121.31C20.987 121.31 21.1651 121.488 21.1651 121.708V122.758C21.1651 122.978 20.987 123.157 20.7669 123.157ZM230.459 121.414C230.239 121.414 230.061 121.236 230.061 121.016V119.966C230.061 119.746 230.239 119.567 230.459 119.567C230.679 119.567 230.857 119.746 230.857 119.966V121.016C230.857 121.236 230.679 121.414 230.459 121.414ZM20.7669 117.919C20.5469 117.919 20.3688 117.741 20.3688 117.521V116.471C20.3688 116.251 20.5469 116.072 20.7669 116.072C20.987 116.072 21.1651 116.251 21.1651 116.471V117.521C21.1651 117.741 20.987 117.919 20.7669 117.919ZM230.459 116.177C230.239 116.177 230.061 115.999 230.061 115.778V114.729C230.061 114.508 230.239 114.33 230.459 114.33C230.679 114.33 230.857 114.508 230.857 114.729V115.778C230.857 115.999 230.679 116.177 230.459 116.177ZM20.7669 112.682C20.5469 112.682 20.3688 112.504 20.3688 112.283V111.234C20.3688 111.013 20.5469 110.835 20.7669 110.835C20.987 110.835 21.1651 111.013 21.1651 111.234V112.283C21.1651 112.504 20.987 112.682 20.7669 112.682ZM230.459 110.94C230.239 110.94 230.061 110.761 230.061 110.541V109.491C230.061 109.271 230.239 109.092 230.459 109.092C230.679 109.092 230.857 109.271 230.857 109.491V110.541C230.857 110.761 230.679 110.94 230.459 110.94ZM20.7669 107.455C20.5469 107.455 20.3688 107.277 20.3688 107.056V106.007C20.3688 105.786 20.5469 105.608 20.7669 105.608C20.987 105.608 21.1651 105.786 21.1651 106.007V107.056C21.1651 107.277 20.987 107.455 20.7669 107.455ZM230.459 105.702C230.239 105.702 230.061 105.524 230.061 105.304V104.254C230.061 104.034 230.239 103.855 230.459 103.855C230.679 103.855 230.857 104.034 230.857 104.254V105.304C230.857 105.524 230.679 105.702 230.459 105.702ZM20.7669 102.218C20.5469 102.218 20.3688 102.039 20.3688 101.819V100.769C20.3688 100.549 20.5469 100.371 20.7669 100.371C20.987 100.371 21.1651 100.549 21.1651 100.769V101.819C21.1651 102.039 20.987 102.218 20.7669 102.218ZM230.459 100.465C230.239 100.465 230.061 100.287 230.061 100.066V99.0166C230.061 98.7962 230.239 98.6177 230.459 98.6177C230.679 98.6177 230.857 98.7962 230.857 99.0166V100.066C230.857 100.287 230.679 100.465 230.459 100.465ZM20.7669 96.9804C20.5469 96.9804 20.3688 96.802 20.3688 96.5816V95.532C20.3688 95.3116 20.5469 95.1331 20.7669 95.1331C20.987 95.1331 21.1651 95.3116 21.1651 95.532V96.5816C21.1651 96.802 20.987 96.9804 20.7669 96.9804ZM230.459 95.2276C230.239 95.2276 230.061 95.0492 230.061 94.8288V93.7792C230.061 93.5588 230.239 93.3803 230.459 93.3803C230.679 93.3803 230.857 93.5588 230.857 93.7792V94.8288C230.857 95.0492 230.679 95.2276 230.459 95.2276ZM20.7669 91.743C20.5469 91.743 20.3688 91.5646 20.3688 91.3442V90.2946C20.3688 90.0742 20.5469 89.8958 20.7669 89.8958C20.987 89.8958 21.1651 90.0742 21.1651 90.2946V91.3442C21.1651 91.5646 20.987 91.743 20.7669 91.743ZM230.459 89.9902C230.239 89.9902 230.061 89.8118 230.061 89.5914V88.5418C230.061 88.3214 230.239 88.143 230.459 88.143C230.679 88.143 230.857 88.3214 230.857 88.5418V89.5914C230.857 89.8118 230.679 89.9902 230.459 89.9902ZM20.7669 86.5056C20.5469 86.5056 20.3688 86.3272 20.3688 86.1068V85.0572C20.3688 84.8368 20.5469 84.6584 20.7669 84.6584C20.987 84.6584 21.1651 84.8368 21.1651 85.0572V86.1068C21.1651 86.3272 20.987 86.5056 20.7669 86.5056ZM230.459 84.7529C230.239 84.7529 230.061 84.5744 230.061 84.354V83.3044C230.061 83.084 230.239 82.9056 230.459 82.9056C230.679 82.9056 230.857 83.084 230.857 83.3044V84.354C230.857 84.5744 230.679 84.7529 230.459 84.7529ZM20.7669 81.2683C20.5469 81.2683 20.3688 81.0898 20.3688 80.8694V79.8199C20.3688 79.5994 20.5469 79.421 20.7669 79.421C20.987 79.421 21.1651 79.5994 21.1651 79.8199V80.8694C21.1651 81.0898 20.987 81.2683 20.7669 81.2683ZM230.459 79.5155C230.239 79.5155 230.061 79.3371 230.061 79.1166V78.0671C230.061 77.8466 230.239 77.6682 230.459 77.6682C230.679 77.6682 230.857 77.8466 230.857 78.0671V79.1166C230.857 79.3371 230.679 79.5155 230.459 79.5155ZM20.7669 76.0309C20.5469 76.0309 20.3688 75.8525 20.3688 75.632V74.5825C20.3688 74.3621 20.5469 74.1836 20.7669 74.1836C20.987 74.1836 21.1651 74.3621 21.1651 74.5825V75.632C21.1651 75.8525 20.987 76.0309 20.7669 76.0309ZM230.459 74.2781C230.239 74.2781 230.061 74.0997 230.061 73.8793V72.8297C230.061 72.6093 230.239 72.4309 230.459 72.4309C230.679 72.4309 230.857 72.6093 230.857 72.8297V73.8793C230.857 74.0997 230.679 74.2781 230.459 74.2781ZM20.7669 70.7935C20.5469 70.7935 20.3688 70.6151 20.3688 70.3947V69.3451C20.3688 69.1247 20.5469 68.9463 20.7669 68.9463C20.987 68.9463 21.1651 69.1247 21.1651 69.3451V70.3947C21.1651 70.6151 20.987 70.7935 20.7669 70.7935ZM230.459 69.0512C230.239 69.0512 230.061 68.8728 230.061 68.6524V67.6028C230.061 67.3824 230.239 67.204 230.459 67.204C230.679 67.204 230.857 67.3824 230.857 67.6028V68.6524C230.857 68.8728 230.679 69.0512 230.459 69.0512ZM20.7669 65.5561C20.5469 65.5561 20.3688 65.3777 20.3688 65.1573V64.1077C20.3688 63.8873 20.5469 63.7089 20.7669 63.7089C20.987 63.7089 21.1651 63.8873 21.1651 64.1077V65.1573C21.1651 65.3777 20.987 65.5561 20.7669 65.5561ZM230.459 63.8138C230.239 63.8138 230.061 63.6354 230.061 63.415V62.3654C230.061 62.145 230.239 61.9666 230.459 61.9666C230.679 61.9666 230.857 62.145 230.857 62.3654V63.415C230.857 63.6354 230.679 63.8138 230.459 63.8138ZM20.7669 60.3188C20.5469 60.3188 20.3688 60.1403 20.3688 59.9199V58.8704C20.3688 58.6499 20.5469 58.4715 20.7669 58.4715C20.987 58.4715 21.1651 58.6499 21.1651 58.8704V59.9199C21.1651 60.1403 20.987 60.3188 20.7669 60.3188ZM230.459 58.5765C230.239 58.5765 230.061 58.398 230.061 58.1776V57.1281C230.061 56.9076 230.239 56.7292 230.459 56.7292C230.679 56.7292 230.857 56.9076 230.857 57.1281V58.1776C230.857 58.398 230.679 58.5765 230.459 58.5765ZM20.7669 55.0814C20.5469 55.0814 20.3688 54.903 20.3688 54.6825V53.633C20.3688 53.4126 20.5469 53.2341 20.7669 53.2341C20.987 53.2341 21.1651 53.4126 21.1651 53.633V54.6825C21.1651 54.903 20.987 55.0814 20.7669 55.0814ZM230.459 53.3391C230.239 53.3391 230.061 53.1607 230.061 52.9403V51.8907C230.061 51.6703 230.239 51.4918 230.459 51.4918C230.679 51.4918 230.857 51.6703 230.857 51.8907V52.9403C230.857 53.1607 230.679 53.3391 230.459 53.3391ZM20.7669 49.844C20.5469 49.844 20.3688 49.6656 20.3688 49.4452V48.3956C20.3688 48.1752 20.5469 47.9968 20.7669 47.9968C20.987 47.9968 21.1651 48.1752 21.1651 48.3956V49.4452C21.1651 49.6656 20.987 49.844 20.7669 49.844ZM230.459 48.1017C230.239 48.1017 230.061 47.9233 230.061 47.7029V46.6533C230.061 46.4329 230.239 46.2545 230.459 46.2545C230.679 46.2545 230.857 46.4329 230.857 46.6533V47.7029C230.857 47.9233 230.679 48.1017 230.459 48.1017ZM20.7669 44.6066C20.5469 44.6066 20.3688 44.4282 20.3688 44.2078V43.1582C20.3688 42.9378 20.5469 42.7594 20.7669 42.7594C20.987 42.7594 21.1651 42.9378 21.1651 43.1582V44.2078C21.1651 44.4282 20.987 44.6066 20.7669 44.6066ZM230.459 42.8643C230.239 42.8643 230.061 42.6859 230.061 42.4655V41.4159C230.061 41.1955 230.239 41.0171 230.459 41.0171C230.679 41.0171 230.857 41.1955 230.857 41.4159V42.4655C230.857 42.6859 230.679 42.8643 230.459 42.8643ZM20.7669 39.3798C20.5469 39.3798 20.3688 39.2013 20.3688 38.9809V37.9313C20.3688 37.7109 20.5469 37.5325 20.7669 37.5325C20.987 37.5325 21.1651 37.7109 21.1651 37.9313V38.9809C21.1651 39.2013 20.987 39.3798 20.7669 39.3798ZM230.459 37.627C230.239 37.627 230.061 37.4485 230.061 37.2281V36.1786C230.061 35.9581 230.239 35.7797 230.459 35.7797C230.679 35.7797 230.857 35.9581 230.857 36.1786V37.2281C230.857 37.4485 230.679 37.627 230.459 37.627ZM20.7669 34.1424C20.5469 34.1424 20.3688 33.964 20.3688 33.7435V32.694C20.3688 32.4736 20.5469 32.2951 20.7669 32.2951C20.987 32.2951 21.1651 32.4736 21.1651 32.694V33.7435C21.1651 33.964 20.987 34.1424 20.7669 34.1424ZM230.459 32.3896C230.239 32.3896 230.061 32.2112 230.061 31.9908V30.9412C230.061 30.7208 230.239 30.5423 230.459 30.5423C230.679 30.5423 230.857 30.7208 230.857 30.9412V31.9908C230.857 32.2112 230.679 32.3896 230.459 32.3896ZM20.7669 28.905C20.5469 28.905 20.3688 28.7266 20.3688 28.5062V27.4566C20.3688 27.2362 20.5469 27.0578 20.7669 27.0578C20.987 27.0578 21.1651 27.2362 21.1651 27.4566V28.5062C21.1651 28.7266 20.987 28.905 20.7669 28.905ZM230.459 27.1522C230.239 27.1522 230.061 26.9738 230.061 26.7534V25.7038C230.061 25.4834 230.239 25.305 230.459 25.305C230.679 25.305 230.857 25.4834 230.857 25.7038V26.7534C230.857 26.9738 230.679 27.1522 230.459 27.1522ZM20.7669 23.6676C20.5469 23.6676 20.3688 23.4892 20.3688 23.2688V22.2192C20.3688 21.9988 20.5469 21.8204 20.7669 21.8204C20.987 21.8204 21.1651 21.9988 21.1651 22.2192V23.2688C21.1651 23.4892 20.987 23.6676 20.7669 23.6676ZM230.459 21.9148C230.239 21.9148 230.061 21.7364 230.061 21.516V20.4664C230.061 20.246 230.239 20.0676 230.459 20.0676C230.679 20.0676 230.857 20.246 230.857 20.4664V21.516C230.857 21.7364 230.679 21.9148 230.459 21.9148ZM20.7669 18.4303C20.5469 18.4303 20.3688 18.2518 20.3688 18.0314V16.9818C20.3688 16.7614 20.5469 16.583 20.7669 16.583C20.987 16.583 21.1651 16.7614 21.1651 16.9818V18.0314C21.1651 18.2518 20.987 18.4303 20.7669 18.4303ZM230.448 16.6775C230.249 16.6775 230.082 16.5305 230.061 16.3206C230.029 16.0057 229.956 15.6909 229.851 15.397C229.778 15.1871 229.883 14.9667 230.082 14.8932C230.291 14.8197 230.511 14.9247 230.585 15.1241C230.71 15.481 230.805 15.8588 230.836 16.2366C230.857 16.4571 230.7 16.646 230.48 16.667C230.469 16.667 230.459 16.667 230.438 16.667L230.448 16.6775ZM22.4643 13.7387C22.3491 13.7387 22.2233 13.6862 22.15 13.5812C22.0243 13.4028 22.0557 13.1614 22.2338 13.0354C22.5377 12.8045 22.873 12.6156 23.2292 12.4792C23.4283 12.3952 23.6588 12.4897 23.7426 12.6996C23.8264 12.899 23.7321 13.1299 23.5226 13.2139C23.2292 13.3398 22.9568 13.4868 22.6948 13.6757C22.6215 13.7282 22.5377 13.7492 22.4643 13.7492V13.7387ZM227.2 13.0145C227.2 13.0145 227.148 13.0145 227.116 13.0145C226.855 12.962 226.582 12.9305 226.31 12.9305H226.153C225.932 12.9305 225.754 12.7521 225.754 12.5316C225.754 12.3112 225.932 12.1328 226.153 12.1328H226.31C226.634 12.1328 226.97 12.1643 227.284 12.2378C227.494 12.2798 227.63 12.5002 227.588 12.7101C227.546 12.8885 227.389 13.0145 227.2 13.0145ZM221.972 12.92H220.924C220.704 12.92 220.526 12.7416 220.526 12.5212C220.526 12.3007 220.704 12.1223 220.924 12.1223H221.972C222.192 12.1223 222.37 12.3007 222.37 12.5212C222.37 12.7416 222.192 12.92 221.972 12.92ZM216.754 12.92H215.706C215.486 12.92 215.308 12.7416 215.308 12.5212C215.308 12.3007 215.486 12.1223 215.706 12.1223H216.754C216.974 12.1223 217.152 12.3007 217.152 12.5212C217.152 12.7416 216.974 12.92 216.754 12.92ZM211.526 12.92H210.478C210.258 12.92 210.08 12.7416 210.08 12.5212C210.08 12.3007 210.258 12.1223 210.478 12.1223H211.526C211.746 12.1223 211.924 12.3007 211.924 12.5212C211.924 12.7416 211.746 12.92 211.526 12.92ZM206.297 12.92H205.249C205.029 12.92 204.851 12.7416 204.851 12.5212C204.851 12.3007 205.029 12.1223 205.249 12.1223H206.297C206.517 12.1223 206.695 12.3007 206.695 12.5212C206.695 12.7416 206.517 12.92 206.297 12.92ZM201.069 12.92H200.021C199.801 12.92 199.623 12.7416 199.623 12.5212C199.623 12.3007 199.801 12.1223 200.021 12.1223H201.069C201.289 12.1223 201.467 12.3007 201.467 12.5212C201.467 12.7416 201.289 12.92 201.069 12.92ZM195.84 12.92H194.792C194.572 12.92 194.394 12.7416 194.394 12.5212C194.394 12.3007 194.572 12.1223 194.792 12.1223H195.84C196.06 12.1223 196.238 12.3007 196.238 12.5212C196.238 12.7416 196.06 12.92 195.84 12.92ZM190.612 12.92H189.564C189.344 12.92 189.166 12.7416 189.166 12.5212C189.166 12.3007 189.344 12.1223 189.564 12.1223H190.612C190.832 12.1223 191.01 12.3007 191.01 12.5212C191.01 12.7416 190.832 12.92 190.612 12.92ZM185.383 12.92H184.336C184.116 12.92 183.938 12.7416 183.938 12.5212C183.938 12.3007 184.116 12.1223 184.336 12.1223H185.383C185.603 12.1223 185.782 12.3007 185.782 12.5212C185.782 12.7416 185.603 12.92 185.383 12.92ZM180.155 12.92H179.107C178.887 12.92 178.709 12.7416 178.709 12.5212C178.709 12.3007 178.887 12.1223 179.107 12.1223H180.155C180.375 12.1223 180.553 12.3007 180.553 12.5212C180.553 12.7416 180.375 12.92 180.155 12.92ZM174.927 12.92H173.879C173.659 12.92 173.481 12.7416 173.481 12.5212C173.481 12.3007 173.659 12.1223 173.879 12.1223H174.927C175.147 12.1223 175.325 12.3007 175.325 12.5212C175.325 12.7416 175.147 12.92 174.927 12.92ZM169.698 12.92H168.65C168.43 12.92 168.252 12.7416 168.252 12.5212C168.252 12.3007 168.43 12.1223 168.65 12.1223H169.698C169.918 12.1223 170.096 12.3007 170.096 12.5212C170.096 12.7416 169.918 12.92 169.698 12.92ZM164.47 12.92H163.422C163.202 12.92 163.024 12.7416 163.024 12.5212C163.024 12.3007 163.202 12.1223 163.422 12.1223H164.47C164.69 12.1223 164.868 12.3007 164.868 12.5212C164.868 12.7416 164.69 12.92 164.47 12.92ZM159.241 12.92H158.194C157.974 12.92 157.795 12.7416 157.795 12.5212C157.795 12.3007 157.974 12.1223 158.194 12.1223H159.241C159.461 12.1223 159.64 12.3007 159.64 12.5212C159.64 12.7416 159.461 12.92 159.241 12.92ZM154.023 12.92H152.976C152.756 12.92 152.577 12.7416 152.577 12.5212C152.577 12.3007 152.756 12.1223 152.976 12.1223H154.023C154.243 12.1223 154.422 12.3007 154.422 12.5212C154.422 12.7416 154.243 12.92 154.023 12.92ZM148.795 12.92H147.747C147.527 12.92 147.349 12.7416 147.349 12.5212C147.349 12.3007 147.527 12.1223 147.747 12.1223H148.795C149.015 12.1223 149.193 12.3007 149.193 12.5212C149.193 12.7416 149.015 12.92 148.795 12.92ZM143.567 12.92H142.519C142.299 12.92 142.121 12.7416 142.121 12.5212C142.121 12.3007 142.299 12.1223 142.519 12.1223H143.567C143.787 12.1223 143.965 12.3007 143.965 12.5212C143.965 12.7416 143.787 12.92 143.567 12.92ZM138.338 12.92H137.29C137.07 12.92 136.892 12.7416 136.892 12.5212C136.892 12.3007 137.07 12.1223 137.29 12.1223H138.338C138.558 12.1223 138.736 12.3007 138.736 12.5212C138.736 12.7416 138.558 12.92 138.338 12.92ZM133.11 12.92H132.062C131.842 12.92 131.664 12.7416 131.664 12.5212C131.664 12.3007 131.842 12.1223 132.062 12.1223H133.11C133.33 12.1223 133.508 12.3007 133.508 12.5212C133.508 12.7416 133.33 12.92 133.11 12.92ZM127.881 12.92H126.834C126.614 12.92 126.435 12.7416 126.435 12.5212C126.435 12.3007 126.614 12.1223 126.834 12.1223H127.881C128.101 12.1223 128.28 12.3007 128.28 12.5212C128.28 12.7416 128.101 12.92 127.881 12.92ZM122.653 12.92H121.605C121.385 12.92 121.207 12.7416 121.207 12.5212C121.207 12.3007 121.385 12.1223 121.605 12.1223H122.653C122.873 12.1223 123.051 12.3007 123.051 12.5212C123.051 12.7416 122.873 12.92 122.653 12.92ZM117.425 12.92H116.377C116.157 12.92 115.979 12.7416 115.979 12.5212C115.979 12.3007 116.157 12.1223 116.377 12.1223H117.425C117.645 12.1223 117.823 12.3007 117.823 12.5212C117.823 12.7416 117.645 12.92 117.425 12.92ZM112.196 12.92H111.148C110.928 12.92 110.75 12.7416 110.75 12.5212C110.75 12.3007 110.928 12.1223 111.148 12.1223H112.196C112.416 12.1223 112.594 12.3007 112.594 12.5212C112.594 12.7416 112.416 12.92 112.196 12.92ZM106.968 12.92H105.92C105.7 12.92 105.522 12.7416 105.522 12.5212C105.522 12.3007 105.7 12.1223 105.92 12.1223H106.968C107.188 12.1223 107.366 12.3007 107.366 12.5212C107.366 12.7416 107.188 12.92 106.968 12.92ZM101.739 12.92H100.691C100.471 12.92 100.293 12.7416 100.293 12.5212C100.293 12.3007 100.471 12.1223 100.691 12.1223H101.739C101.959 12.1223 102.137 12.3007 102.137 12.5212C102.137 12.7416 101.959 12.92 101.739 12.92ZM96.5108 12.92H95.4631C95.243 12.92 95.0649 12.7416 95.0649 12.5212C95.0649 12.3007 95.243 12.1223 95.4631 12.1223H96.5108C96.7309 12.1223 96.909 12.3007 96.909 12.5212C96.909 12.7416 96.7309 12.92 96.5108 12.92ZM91.2929 12.92H90.2451C90.0251 12.92 89.847 12.7416 89.847 12.5212C89.847 12.3007 90.0251 12.1223 90.2451 12.1223H91.2929C91.5129 12.1223 91.6911 12.3007 91.6911 12.5212C91.6911 12.7416 91.5129 12.92 91.2929 12.92ZM86.0645 12.92H85.0167C84.7967 12.92 84.6186 12.7416 84.6186 12.5212C84.6186 12.3007 84.7967 12.1223 85.0167 12.1223H86.0645C86.2845 12.1223 86.4627 12.3007 86.4627 12.5212C86.4627 12.7416 86.2845 12.92 86.0645 12.92ZM80.8361 12.92H79.7883C79.5683 12.92 79.3901 12.7416 79.3901 12.5212C79.3901 12.3007 79.5683 12.1223 79.7883 12.1223H80.8361C81.0561 12.1223 81.2342 12.3007 81.2342 12.5212C81.2342 12.7416 81.0561 12.92 80.8361 12.92ZM75.6077 12.92H74.5599C74.3399 12.92 74.1617 12.7416 74.1617 12.5212C74.1617 12.3007 74.3399 12.1223 74.5599 12.1223H75.6077C75.8277 12.1223 76.0058 12.3007 76.0058 12.5212C76.0058 12.7416 75.8277 12.92 75.6077 12.92ZM70.3792 12.92H69.3315C69.1114 12.92 68.9333 12.7416 68.9333 12.5212C68.9333 12.3007 69.1114 12.1223 69.3315 12.1223H70.3792C70.5993 12.1223 70.7774 12.3007 70.7774 12.5212C70.7774 12.7416 70.5993 12.92 70.3792 12.92ZM65.1508 12.92H64.1031C63.883 12.92 63.7049 12.7416 63.7049 12.5212C63.7049 12.3007 63.883 12.1223 64.1031 12.1223H65.1508C65.3709 12.1223 65.549 12.3007 65.549 12.5212C65.549 12.7416 65.3709 12.92 65.1508 12.92ZM59.9224 12.92H58.8746C58.6546 12.92 58.4765 12.7416 58.4765 12.5212C58.4765 12.3007 58.6546 12.1223 58.8746 12.1223H59.9224C60.1425 12.1223 60.3206 12.3007 60.3206 12.5212C60.3206 12.7416 60.1425 12.92 59.9224 12.92ZM54.694 12.92H53.6462C53.4262 12.92 53.2481 12.7416 53.2481 12.5212C53.2481 12.3007 53.4262 12.1223 53.6462 12.1223H54.694C54.914 12.1223 55.0922 12.3007 55.0922 12.5212C55.0922 12.7416 54.914 12.92 54.694 12.92ZM49.4656 12.92H48.4178C48.1978 12.92 48.0197 12.7416 48.0197 12.5212C48.0197 12.3007 48.1978 12.1223 48.4178 12.1223H49.4656C49.6856 12.1223 49.8637 12.3007 49.8637 12.5212C49.8637 12.7416 49.6856 12.92 49.4656 12.92ZM44.2372 12.92H43.1894C42.9694 12.92 42.7912 12.7416 42.7912 12.5212C42.7912 12.3007 42.9694 12.1223 43.1894 12.1223H44.2372C44.4572 12.1223 44.6353 12.3007 44.6353 12.5212C44.6353 12.7416 44.4572 12.92 44.2372 12.92ZM39.0088 12.92H37.961C37.7409 12.92 37.5628 12.7416 37.5628 12.5212C37.5628 12.3007 37.7409 12.1223 37.961 12.1223H39.0088C39.2288 12.1223 39.4069 12.3007 39.4069 12.5212C39.4069 12.7416 39.2288 12.92 39.0088 12.92ZM33.7803 12.92H32.7326C32.5125 12.92 32.3344 12.7416 32.3344 12.5212C32.3344 12.3007 32.5125 12.1223 32.7326 12.1223H33.7803C34.0004 12.1223 34.1785 12.3007 34.1785 12.5212C34.1785 12.7416 34.0004 12.92 33.7803 12.92ZM28.5624 12.92H27.5146C27.2946 12.92 27.1165 12.7416 27.1165 12.5212C27.1165 12.3007 27.2946 12.1223 27.5146 12.1223H28.5624C28.7824 12.1223 28.9606 12.3007 28.9606 12.5212C28.9606 12.7416 28.7824 12.92 28.5624 12.92Z" fill="#130C49"/>
<path d="M122.685 98.7222H4.53751C2.24597 98.7222 0.388306 100.583 0.388306 102.878V199.009C0.388306 201.304 2.24597 203.165 4.53751 203.165H122.685C124.977 203.165 126.834 201.304 126.834 199.009V102.878C126.834 100.583 124.977 98.7222 122.685 98.7222Z" fill="#130C49"/>
<path d="M122.685 203.554H4.54748C2.04329 203.554 0.00012207 201.507 0.00012207 198.999V102.879C0.00012207 100.371 2.04329 98.3239 4.54748 98.3239H122.685C125.189 98.3239 127.232 100.371 127.232 102.879V198.999C127.232 201.507 125.189 203.554 122.685 203.554ZM4.54748 99.111C2.47288 99.111 0.785956 100.801 0.785956 102.879V198.999C0.785956 201.077 2.47288 202.767 4.54748 202.767H122.685C124.759 202.767 126.446 201.077 126.446 198.999V102.879C126.446 100.801 124.759 99.111 122.685 99.111H4.54748Z" fill="#61D384"/>
<path d="M49.0353 132.006H33.612C33.3186 132.006 33.0881 131.775 33.0881 131.481C33.0881 131.187 33.3186 130.956 33.612 130.956H49.0353C49.3287 130.956 49.5592 131.187 49.5592 131.481C49.5592 131.775 49.3287 132.006 49.0353 132.006Z" fill="#61D384"/>
<path d="M81.883 132.006H66.4597C66.1663 132.006 65.9358 131.775 65.9358 131.481C65.9358 131.187 66.1663 130.956 66.4597 130.956H81.883C82.1764 130.956 82.4069 131.187 82.4069 131.481C82.4069 131.775 82.1764 132.006 81.883 132.006Z" fill="#61D384"/>
<path d="M57.8803 131.995C57.7441 131.995 57.6079 131.943 57.5136 131.848C57.4088 131.743 57.3564 131.617 57.3564 131.47C57.3564 131.334 57.4088 131.197 57.5136 131.103C57.7022 130.904 58.048 130.904 58.2471 131.103C58.3518 131.197 58.4042 131.334 58.4042 131.47C58.4042 131.617 58.3518 131.743 58.2471 131.848C58.1528 131.943 58.0165 131.995 57.8803 131.995Z" fill="#61D384"/>
<path d="M49.0353 168.142H33.612C33.3186 168.142 33.0881 167.911 33.0881 167.618C33.0881 167.324 33.3186 167.093 33.612 167.093H49.0353C49.3287 167.093 49.5592 167.324 49.5592 167.618C49.5592 167.911 49.3287 168.142 49.0353 168.142Z" fill="#61D384"/>
<path d="M81.883 168.142H66.4597C66.1663 168.142 65.9358 167.911 65.9358 167.618C65.9358 167.324 66.1663 167.093 66.4597 167.093H81.883C82.1764 167.093 82.4069 167.324 82.4069 167.618C82.4069 167.911 82.1764 168.142 81.883 168.142Z" fill="#61D384"/>
<path d="M57.8803 168.142C57.807 168.142 57.7441 168.121 57.6813 168.1C57.6184 168.069 57.5555 168.037 57.5136 167.985C57.4612 167.932 57.4193 167.88 57.3984 167.817C57.3669 167.754 57.3564 167.68 57.3564 167.618C57.3564 167.544 57.3564 167.481 57.3984 167.418C57.4193 167.355 57.4612 167.292 57.5136 167.24C57.5555 167.198 57.6184 167.156 57.6813 167.135C57.807 167.082 57.9537 167.082 58.0794 167.135C58.1423 167.156 58.2051 167.198 58.2471 167.24C58.2994 167.292 58.3414 167.345 58.3623 167.418C58.3937 167.481 58.4042 167.544 58.4042 167.618C58.4042 167.68 58.3937 167.754 58.3623 167.817C58.3414 167.88 58.2994 167.932 58.2471 167.985C58.2051 168.037 58.1423 168.069 58.0794 168.1C58.0165 168.121 57.9537 168.142 57.8803 168.142Z" fill="#61D384"/>
<path d="M49.0353 156.092H33.612C33.3186 156.092 33.0881 155.861 33.0881 155.567C33.0881 155.274 33.3186 155.043 33.612 155.043H49.0353C49.3287 155.043 49.5592 155.274 49.5592 155.567C49.5592 155.861 49.3287 156.092 49.0353 156.092Z" fill="#61D384"/>
<path d="M72.8726 156.092H57.4493C57.1559 156.092 56.9254 155.861 56.9254 155.567C56.9254 155.274 57.1559 155.043 57.4493 155.043H72.8726C73.166 155.043 73.3965 155.274 73.3965 155.567C73.3965 155.861 73.166 156.092 72.8726 156.092Z" fill="#61D384"/>
<path d="M58.2599 144.055H42.8366C42.5433 144.055 42.3127 143.824 42.3127 143.53C42.3127 143.236 42.5433 143.005 42.8366 143.005H58.2599C58.5533 143.005 58.7838 143.236 58.7838 143.53C58.7838 143.824 58.5533 144.055 58.2599 144.055Z" fill="#61D384"/>
<path d="M74.1721 144.055H66.4604C66.167 144.055 65.9365 143.824 65.9365 143.53C65.9365 143.236 66.167 143.005 66.4604 143.005H74.1721C74.4654 143.005 74.696 143.236 74.696 143.53C74.696 143.824 74.4654 144.055 74.1721 144.055Z" fill="#61D384"/>
<path d="M33.6035 144.044C33.4673 144.044 33.3311 143.992 33.2368 143.887C33.132 143.792 33.0796 143.666 33.0796 143.519C33.0796 143.457 33.0796 143.383 33.1215 143.32C33.1425 143.257 33.1844 143.194 33.2368 143.152C33.4254 142.953 33.7711 142.953 33.9702 143.152C34.075 143.247 34.1274 143.383 34.1274 143.519C34.1274 143.593 34.1169 143.656 34.0855 143.719C34.0645 143.782 34.0226 143.845 33.9702 143.887C33.8759 143.992 33.7397 144.044 33.6035 144.044Z" fill="#61D384"/>
<path d="M58.2599 180.192H42.8366C42.5433 180.192 42.3127 179.961 42.3127 179.667C42.3127 179.373 42.5433 179.142 42.8366 179.142H58.2599C58.5533 179.142 58.7838 179.373 58.7838 179.667C58.7838 179.961 58.5533 180.192 58.2599 180.192Z" fill="#61D384"/>
<path d="M74.1721 180.192H66.4604C66.167 180.192 65.9365 179.961 65.9365 179.667C65.9365 179.373 66.167 179.142 66.4604 179.142H74.1721C74.4654 179.142 74.696 179.373 74.696 179.667C74.696 179.961 74.4654 180.192 74.1721 180.192Z" fill="#61D384"/>
<path d="M33.6035 180.192C33.4673 180.192 33.3311 180.129 33.2368 180.034C33.132 179.929 33.0796 179.803 33.0796 179.667C33.0796 179.52 33.132 179.394 33.2368 179.289C33.4254 179.09 33.7816 179.09 33.9702 179.289C34.075 179.394 34.1274 179.52 34.1274 179.667C34.1274 179.73 34.1169 179.803 34.0855 179.866C34.0645 179.929 34.0226 179.982 33.9702 180.034C33.8759 180.129 33.7397 180.192 33.6035 180.192Z" fill="#61D384"/>
<path d="M61.3068 138.029H33.6035C33.3101 138.029 33.0796 137.798 33.0796 137.505C33.0796 137.211 33.3101 136.98 33.6035 136.98H61.3068C61.6001 136.98 61.8306 137.211 61.8306 137.505C61.8306 137.798 61.6001 138.029 61.3068 138.029Z" fill="#61D384"/>
<path d="M61.3068 174.166H33.6035C33.3101 174.166 33.0796 173.935 33.0796 173.641C33.0796 173.348 33.3101 173.117 33.6035 173.117H61.3068C61.6001 173.117 61.8306 173.348 61.8306 173.641C61.8306 173.935 61.6001 174.166 61.3068 174.166Z" fill="#61D384"/>
<path d="M33.6035 162.117C33.4673 162.117 33.3311 162.065 33.2368 161.96C33.1844 161.918 33.1425 161.855 33.1215 161.792C33.0901 161.729 33.0796 161.666 33.0796 161.593C33.0796 161.519 33.0796 161.456 33.1215 161.393C33.1425 161.33 33.1844 161.267 33.2368 161.225C33.4254 161.026 33.7711 161.015 33.9702 161.225C34.0226 161.267 34.0645 161.33 34.0855 161.393C34.1169 161.456 34.1274 161.519 34.1274 161.593C34.1274 161.666 34.1169 161.729 34.0855 161.792C34.0645 161.855 34.0226 161.918 33.9702 161.96C33.8759 162.065 33.7397 162.117 33.6035 162.117Z" fill="#61D384"/>
<path d="M69.0184 162.118H41.3151C41.0218 162.118 40.7913 161.887 40.7913 161.593C40.7913 161.299 41.0218 161.068 41.3151 161.068H69.0184C69.3118 161.068 69.5423 161.299 69.5423 161.593C69.5423 161.887 69.3118 162.118 69.0184 162.118Z" fill="#61D384"/>
<path d="M41.3151 150.068H33.6035C33.3101 150.068 33.0796 149.838 33.0796 149.544C33.0796 149.25 33.3101 149.019 33.6035 149.019H41.3151C41.6085 149.019 41.839 149.25 41.839 149.544C41.839 149.838 41.6085 150.068 41.3151 150.068Z" fill="#61D384"/>
<path d="M49.7811 150.068C49.6344 150.068 49.5087 150.016 49.4144 149.911C49.3096 149.817 49.2572 149.691 49.2572 149.544C49.2572 149.407 49.3096 149.271 49.4144 149.176C49.603 148.977 49.9487 148.977 50.1478 149.176C50.2526 149.271 50.305 149.407 50.305 149.544C50.305 149.691 50.2526 149.817 50.1478 149.911C50.0535 150.016 49.9173 150.068 49.7811 150.068Z" fill="#61D384"/>
<path d="M86.7269 150.068H59.0236C58.7303 150.068 58.4998 149.838 58.4998 149.544C58.4998 149.25 58.7303 149.019 59.0236 149.019H86.7269C87.0203 149.019 87.2508 149.25 87.2508 149.544C87.2508 149.838 87.0203 150.068 86.7269 150.068Z" fill="#61D384"/>
<path d="M7.07238 106.249C7.84201 106.249 8.46592 105.624 8.46592 104.853C8.46592 104.082 7.84201 103.457 7.07238 103.457C6.30274 103.457 5.67883 104.082 5.67883 104.853C5.67883 105.624 6.30274 106.249 7.07238 106.249Z" fill="#61D384"/>
<path d="M11.7355 106.249C12.5051 106.249 13.129 105.624 13.129 104.853C13.129 104.082 12.5051 103.457 11.7355 103.457C10.9658 103.457 10.3419 104.082 10.3419 104.853C10.3419 105.624 10.9658 106.249 11.7355 106.249Z" fill="#61D384"/>
<path d="M16.3986 106.249C17.1682 106.249 17.7921 105.624 17.7921 104.853C17.7921 104.082 17.1682 103.457 16.3986 103.457C15.6289 103.457 15.005 104.082 15.005 104.853C15.005 105.624 15.6289 106.249 16.3986 106.249Z" fill="#61D384"/>
<g opacity="0.3">
<path d="M20.569 130.682H6.90597C6.61259 130.682 6.38208 130.451 6.38208 130.157C6.38208 129.864 6.61259 129.633 6.90597 129.633H20.569C20.8624 129.633 21.0929 129.864 21.0929 130.157C21.0929 130.451 20.8624 130.682 20.569 130.682Z" fill="#61D384"/>
<path d="M20.569 142.615H6.90597C6.61259 142.615 6.38208 142.385 6.38208 142.091C6.38208 141.797 6.61259 141.566 6.90597 141.566H20.569C20.8624 141.566 21.0929 141.797 21.0929 142.091C21.0929 142.385 20.8624 142.615 20.569 142.615Z" fill="#61D384"/>
<path d="M16.7865 136.654H6.90597C6.61259 136.654 6.38208 136.423 6.38208 136.129C6.38208 135.835 6.61259 135.604 6.90597 135.604H16.7865C17.0799 135.604 17.3104 135.835 17.3104 136.129C17.3104 136.423 17.0799 136.654 16.7865 136.654Z" fill="#61D384"/>
<path d="M16.7865 124.72H6.90597C6.61259 124.72 6.38208 124.49 6.38208 124.196C6.38208 123.902 6.61259 123.671 6.90597 123.671H16.7865C17.0799 123.671 17.3104 123.902 17.3104 124.196C17.3104 124.49 17.0799 124.72 16.7865 124.72Z" fill="#61D384"/>
<path d="M14.3452 118.759H6.90597C6.61259 118.759 6.38208 118.528 6.38208 118.234C6.38208 117.94 6.61259 117.709 6.90597 117.709H14.3452C14.6386 117.709 14.8691 117.94 14.8691 118.234C14.8691 118.528 14.6386 118.759 14.3452 118.759Z" fill="#61D384"/>
<path d="M14.3452 148.577H6.90597C6.61259 148.577 6.38208 148.346 6.38208 148.052C6.38208 147.758 6.61259 147.528 6.90597 147.528H14.3452C14.6386 147.528 14.8691 147.758 14.8691 148.052C14.8691 148.346 14.6386 148.577 14.3452 148.577Z" fill="#61D384"/>
</g>
<path d="M248.786 0.388062H130.638C128.347 0.388062 126.489 2.24891 126.489 4.54438V100.675C126.489 102.97 128.347 104.831 130.638 104.831H248.786C251.078 104.831 252.935 102.97 252.935 100.675V4.54438C252.935 2.24891 251.078 0.388062 248.786 0.388062Z" fill="#F7F9FD"/>
<path d="M248.785 105.22H130.648C128.144 105.22 126.101 103.173 126.101 100.665V4.55515C126.101 2.04667 128.144 0 130.648 0H248.785C251.29 0 253.333 2.04667 253.333 4.55515V100.675C253.333 103.184 251.29 105.23 248.785 105.23V105.22ZM130.648 0.787181C128.574 0.787181 126.887 2.47699 126.887 4.55515V100.675C126.887 102.753 128.574 104.443 130.648 104.443H248.785C250.86 104.443 252.547 102.753 252.547 100.675V4.55515C252.547 2.47699 250.86 0.787181 248.785 0.787181H130.648Z" fill="#130C49"/>
<path d="M133.173 7.92419C133.943 7.92419 134.567 7.29921 134.567 6.52826C134.567 5.7573 133.943 5.13232 133.173 5.13232C132.404 5.13232 131.78 5.7573 131.78 6.52826C131.78 7.29921 132.404 7.92419 133.173 7.92419Z" fill="#130C49"/>
<path d="M137.836 7.92419C138.606 7.92419 139.23 7.29921 139.23 6.52826C139.23 5.7573 138.606 5.13232 137.836 5.13232C137.067 5.13232 136.443 5.7573 136.443 6.52826C136.443 7.29921 137.067 7.92419 137.836 7.92419Z" fill="#130C49"/>
<path d="M142.5 7.92419C143.269 7.92419 143.893 7.29921 143.893 6.52826C143.893 5.7573 143.269 5.13232 142.5 5.13232C141.73 5.13232 141.106 5.7573 141.106 6.52826C141.106 7.29921 141.73 7.92419 142.5 7.92419Z" fill="#130C49"/>
<path d="M104.413 27.9288H94.0919V38.2671H104.413V27.9288Z" fill="#61D384"/>
<path d="M104.676 38.53H93.8207V27.6564H104.676V38.53ZM94.355 38.0052H104.152V28.1917H94.355V38.0052Z" fill="#130C49"/>
<path d="M98.044 35.3289H87.7234V45.6672H98.044V35.3289Z" fill="#130C49"/>
<path d="M243.452 131.889H217.467C215.332 131.889 213.601 133.623 213.601 135.762V161.791C213.601 163.93 215.332 165.664 217.467 165.664H243.452C245.587 165.664 247.318 163.93 247.318 161.791V135.762C247.318 133.623 245.587 131.889 243.452 131.889Z" fill="#61D384"/>
<path d="M243.454 165.927H217.469C215.195 165.927 213.341 164.069 213.341 161.791V135.762C213.341 133.484 215.195 131.627 217.469 131.627H243.454C245.728 131.627 247.582 133.484 247.582 135.762V161.791C247.582 164.069 245.728 165.927 243.454 165.927ZM217.469 132.151C215.478 132.151 213.865 133.768 213.865 135.762V161.791C213.865 163.786 215.478 165.402 217.469 165.402H243.454C245.445 165.402 247.058 163.786 247.058 161.791V135.762C247.058 133.768 245.445 132.151 243.454 132.151H217.469Z" fill="#130C49"/>
<path d="M236.315 152.042V143.404L228.845 139.09L221.385 143.404V152.042L228.845 156.366L236.315 152.042Z" fill="#130C49"/>
<path d="M239.541 148.839H233.076V155.315H239.541V148.839Z" fill="#ECF4F8"/>
<path d="M239.805 155.578H232.816V148.577H239.805V155.578ZM233.34 155.053H239.281V149.102H233.34V155.053Z" fill="#130C49"/>
<path d="M144.297 172.34C146.102 172.34 147.566 170.874 147.566 169.066C147.566 167.257 146.102 165.791 144.297 165.791C142.491 165.791 141.028 167.257 141.028 169.066C141.028 170.874 142.491 172.34 144.297 172.34Z" fill="#130C49"/>
<path d="M153.844 172.603C151.895 172.603 150.313 171.018 150.313 169.066C150.313 167.114 151.895 165.529 153.844 165.529C155.793 165.529 157.375 167.114 157.375 169.066C157.375 171.018 155.793 172.603 153.844 172.603ZM153.844 166.064C152.189 166.064 150.837 167.418 150.837 169.076C150.837 170.735 152.189 172.089 153.844 172.089C155.5 172.089 156.851 170.735 156.851 169.076C156.851 167.418 155.5 166.064 153.844 166.064Z" fill="#130C49"/>
<path d="M163.388 172.34C165.193 172.34 166.657 170.874 166.657 169.066C166.657 167.257 165.193 165.791 163.388 165.791C161.582 165.791 160.119 167.257 160.119 169.066C160.119 170.874 161.582 172.34 163.388 172.34Z" fill="#130C49"/>
<path d="M66.1958 71.2654H63.3982V43.0633L66.1958 43.0004V71.2654Z" fill="#130C49"/>
<path d="M66.197 70.8352V73.1338H42.5486L42.4962 70.8352H66.197Z" fill="#130C49"/>
<path d="M64.0384 71.3601H40.5472V41.5207L64.0699 41.4578L64.0384 71.3601ZM41.595 70.3106H62.9907L63.0221 42.5073L41.595 42.5703V70.3106Z" fill="#130C49"/>
<path d="M58.8648 48.8153H45.4637C45.2437 48.8153 45.0656 48.6368 45.0656 48.4164C45.0656 48.196 45.2437 48.0176 45.4637 48.0176H58.8648C59.0848 48.0176 59.263 48.196 59.263 48.4164C59.263 48.6368 59.0848 48.8153 58.8648 48.8153Z" fill="#130C49"/>
<path d="M59.0534 53.2025H45.4637C45.2437 53.2025 45.0656 53.024 45.0656 52.8036C45.0656 52.5832 45.2437 52.4048 45.4637 52.4048H59.0534C59.2734 52.4048 59.4516 52.5832 59.4516 52.8036C59.4516 53.024 59.2734 53.2025 59.0534 53.2025Z" fill="#130C49"/>
<path d="M53.6573 57.5999H45.4637C45.2437 57.5999 45.0656 57.4215 45.0656 57.2011C45.0656 56.9807 45.2437 56.8022 45.4637 56.8022H53.6573C53.8774 56.8022 54.0555 56.9807 54.0555 57.2011C54.0555 57.4215 53.8774 57.5999 53.6573 57.5999Z" fill="#130C49"/>
<path d="M179.831 156.313C179.275 156.313 178.71 156.092 178.301 155.651L153.699 129.36C152.903 128.509 152.955 127.187 153.793 126.389C154.642 125.592 155.962 125.644 156.759 126.484L181.36 152.776C182.157 153.626 182.104 154.948 181.266 155.746C180.858 156.124 180.344 156.313 179.831 156.313Z" fill="#130C49"/>
<path d="M134.976 140.244L134.284 137.169C141.388 135.553 147.885 131.974 153.082 126.799C168.316 111.633 168.4 86.8839 153.26 71.6231C146.156 64.465 136.694 60.3717 126.625 60.1198L126.709 56.9711C137.595 57.244 147.822 61.6627 155.491 69.398C171.847 85.8868 171.763 112.64 155.303 129.035C149.687 134.619 142.667 138.491 134.986 140.244H134.976Z" fill="#130C49"/>
<path d="M125.587 141.294C114.303 141.294 103.741 136.896 95.7569 128.846C79.401 112.357 79.4849 85.6031 95.9455 69.2088C101.928 63.2577 109.451 59.2693 117.708 57.7054L118.295 60.8017C110.656 62.2606 103.699 65.9446 98.1563 71.4549C90.7799 78.8019 86.6936 88.5839 86.6622 99.0062C86.6307 109.428 90.6542 119.242 97.9782 126.631C105.575 134.293 115.665 138.397 126.467 138.134L126.541 141.283C126.216 141.283 125.901 141.283 125.577 141.283L125.587 141.294Z" fill="#F7F9FD"/>
<path d="M125.607 127.723C125.114 127.723 124.632 127.712 124.15 127.681C123.857 127.67 123.637 127.419 123.658 127.135C123.668 126.841 123.909 126.61 124.213 126.642C124.884 126.673 125.554 126.684 126.236 126.673H126.246C126.529 126.673 126.759 126.904 126.77 127.188C126.77 127.481 126.55 127.712 126.256 127.723C126.047 127.723 125.827 127.723 125.617 127.723H125.607ZM129.358 127.461C129.096 127.461 128.876 127.272 128.834 127.009C128.792 126.726 129.002 126.453 129.285 126.421C129.945 126.337 130.615 126.212 131.275 126.075C131.558 126.023 131.841 126.201 131.894 126.484C131.956 126.768 131.768 127.051 131.485 127.104C130.793 127.251 130.102 127.366 129.421 127.461C129.4 127.461 129.379 127.461 129.347 127.461H129.358ZM121.049 127.345C121.049 127.345 120.997 127.345 120.965 127.345C120.284 127.23 119.593 127.093 118.912 126.925C118.629 126.852 118.461 126.568 118.524 126.295C118.587 126.012 118.88 125.855 119.153 125.907C119.802 126.065 120.473 126.201 121.133 126.316C121.416 126.358 121.615 126.631 121.562 126.925C121.52 127.177 121.3 127.366 121.049 127.366V127.345ZM134.419 126.285C134.199 126.285 133.989 126.149 133.926 125.928C133.832 125.655 133.989 125.361 134.261 125.267C134.901 125.057 135.54 124.816 136.158 124.564C136.42 124.448 136.734 124.585 136.839 124.847C136.954 125.109 136.818 125.424 136.556 125.529C135.917 125.792 135.257 126.044 134.586 126.264C134.534 126.285 134.482 126.295 134.419 126.295V126.285ZM116.02 126.012C115.957 126.012 115.904 126.012 115.842 125.981C115.223 125.76 114.616 125.508 114.008 125.235C113.746 125.12 113.568 124.784 113.683 124.522C113.798 124.259 114.05 124.112 114.312 124.228L114.427 124.28C115.014 124.543 115.601 124.784 116.187 124.994C116.46 125.088 116.596 125.393 116.502 125.666C116.428 125.876 116.219 126.012 116.009 126.012H116.02ZM139.186 124.196C138.997 124.196 138.819 124.102 138.725 123.923C138.589 123.672 138.673 123.346 138.935 123.21C139.521 122.884 140.108 122.538 140.663 122.171C140.904 122.013 141.229 122.087 141.386 122.328C141.544 122.569 141.481 122.895 141.229 123.052C140.642 123.43 140.035 123.797 139.427 124.133C139.343 124.175 139.259 124.196 139.176 124.196H139.186ZM111.326 123.787C111.231 123.787 111.147 123.766 111.064 123.714C110.466 123.357 109.869 122.979 109.303 122.58C109.062 122.412 109.01 122.087 109.167 121.845C109.324 121.604 109.66 121.551 109.901 121.719C110.456 122.097 111.022 122.465 111.598 122.811C111.85 122.958 111.933 123.283 111.787 123.535C111.692 123.703 111.514 123.797 111.336 123.797L111.326 123.787ZM143.482 121.279C143.335 121.279 143.178 121.216 143.073 121.09C142.885 120.869 142.916 120.533 143.147 120.355C143.671 119.925 144.173 119.473 144.655 119.011C144.865 118.812 145.2 118.823 145.399 119.032C145.598 119.242 145.588 119.578 145.389 119.778C144.886 120.26 144.362 120.733 143.817 121.174C143.723 121.258 143.597 121.289 143.482 121.289V121.279ZM107.124 120.733C106.998 120.733 106.883 120.691 106.778 120.607C106.254 120.145 105.741 119.662 105.248 119.158C105.049 118.948 105.049 118.623 105.248 118.413C105.458 118.214 105.783 118.214 105.992 118.413C106.464 118.896 106.956 119.368 107.459 119.809C107.679 119.998 107.7 120.334 107.512 120.554C107.407 120.67 107.26 120.733 107.114 120.733H107.124ZM147.16 117.595C147.044 117.595 146.919 117.553 146.824 117.469C146.604 117.28 146.573 116.954 146.751 116.734C147.181 116.22 147.6 115.674 147.987 115.128C148.155 114.897 148.48 114.834 148.721 115.002C148.951 115.17 149.014 115.495 148.847 115.737C148.438 116.304 148.008 116.87 147.568 117.406C147.463 117.532 147.317 117.595 147.16 117.595ZM103.551 116.944C103.394 116.944 103.237 116.87 103.142 116.744C102.713 116.199 102.304 115.621 101.917 115.044C101.759 114.803 101.822 114.477 102.063 114.32C102.304 114.162 102.629 114.225 102.786 114.467C103.163 115.023 103.562 115.579 103.97 116.104C104.148 116.335 104.106 116.66 103.876 116.839C103.782 116.912 103.666 116.954 103.551 116.954V116.944ZM150.093 113.302C150.01 113.302 149.915 113.281 149.842 113.239C149.59 113.102 149.496 112.777 149.643 112.525C149.968 111.937 150.282 111.329 150.554 110.72C150.68 110.457 150.984 110.342 151.246 110.468C151.508 110.594 151.623 110.898 151.497 111.161C151.204 111.79 150.89 112.42 150.544 113.039C150.45 113.218 150.272 113.312 150.083 113.312L150.093 113.302ZM100.743 112.567C100.554 112.567 100.366 112.462 100.282 112.284C99.9572 111.664 99.6638 111.024 99.3914 110.384C99.2762 110.122 99.3914 109.807 99.6638 109.691C99.9258 109.576 100.24 109.691 100.355 109.964C100.617 110.583 100.911 111.203 101.215 111.801C101.351 112.063 101.246 112.378 100.995 112.504C100.921 112.546 100.837 112.567 100.754 112.567H100.743ZM152.189 108.537C152.137 108.537 152.074 108.537 152.021 108.505C151.749 108.411 151.602 108.117 151.697 107.844C151.906 107.204 152.105 106.553 152.273 105.902C152.346 105.619 152.629 105.451 152.912 105.524C153.195 105.598 153.363 105.881 153.289 106.165C153.122 106.836 152.912 107.519 152.692 108.18C152.619 108.4 152.409 108.537 152.199 108.537H152.189ZM98.7942 107.75C98.5741 107.75 98.3646 107.603 98.2912 107.372C98.0922 106.7 97.914 106.018 97.7569 105.335C97.694 105.052 97.8721 104.769 98.155 104.706C98.4379 104.653 98.7208 104.821 98.7837 105.105C98.9304 105.755 99.098 106.417 99.2971 107.067C99.3809 107.34 99.2238 107.634 98.9513 107.718C98.899 107.729 98.8466 107.739 98.8047 107.739L98.7942 107.75ZM153.373 103.467C153.373 103.467 153.321 103.467 153.3 103.467C153.017 103.425 152.818 103.163 152.849 102.879C152.943 102.208 153.006 101.536 153.048 100.864C153.069 100.57 153.31 100.329 153.603 100.371C153.897 100.392 154.117 100.633 154.096 100.927C154.054 101.62 153.981 102.323 153.886 103.016C153.855 103.278 153.624 103.467 153.373 103.467ZM97.7569 102.649C97.4949 102.649 97.2644 102.449 97.233 102.176C97.1596 101.484 97.1073 100.78 97.0863 100.077C97.0863 99.7832 97.3063 99.5418 97.5892 99.5313C97.8826 99.5313 98.1236 99.7517 98.1341 100.035C98.155 100.707 98.2074 101.389 98.2808 102.05C98.3122 102.334 98.1026 102.596 97.8197 102.628C97.7988 102.628 97.7778 102.628 97.7674 102.628L97.7569 102.649ZM153.603 98.2718C153.331 98.2718 153.09 98.0514 153.08 97.768C153.048 97.1068 152.985 96.4246 152.901 95.7529C152.87 95.4695 153.069 95.2071 153.352 95.1651C153.645 95.1231 153.897 95.333 153.939 95.6164C154.023 96.3196 154.085 97.0228 154.117 97.7156C154.127 98.0094 153.907 98.2509 153.614 98.2613H153.593L153.603 98.2718ZM97.6835 97.4427C97.6835 97.4427 97.6521 97.4427 97.6416 97.4427C97.3482 97.4217 97.1387 97.1698 97.1596 96.8759C97.212 96.1832 97.2959 95.48 97.4006 94.7873C97.4425 94.5039 97.715 94.3045 97.9979 94.3464C98.2808 94.3884 98.4798 94.6613 98.4379 94.9447C98.3332 95.6059 98.2598 96.2881 98.2074 96.9599C98.1865 97.2328 97.956 97.4427 97.6835 97.4427ZM152.86 93.1184C152.619 93.1184 152.409 92.961 152.346 92.7196C152.189 92.0689 152.011 91.4076 151.801 90.7674C151.717 90.4945 151.864 90.2006 152.137 90.1062C152.409 90.0222 152.702 90.1691 152.797 90.442C153.006 91.1032 153.195 91.7855 153.362 92.4677C153.425 92.7511 153.258 93.0345 152.975 93.0974C152.933 93.0974 152.891 93.1079 152.849 93.1079L152.86 93.1184ZM98.5741 92.3103C98.5741 92.3103 98.4798 92.3103 98.4379 92.2893C98.155 92.2158 97.9979 91.9219 98.0712 91.649C98.2598 90.9773 98.4694 90.2951 98.6999 89.6443C98.7942 89.3715 99.098 89.2245 99.3705 89.3295C99.6429 89.4239 99.7896 89.7283 99.6848 90.0012C99.4648 90.6309 99.2552 91.2817 99.0876 91.9324C99.0247 92.1633 98.8151 92.3208 98.5846 92.3208L98.5741 92.3103ZM100.02 88.2379C99.9467 88.2379 99.8734 88.2274 99.8105 88.1959C99.5486 88.0805 99.4228 87.7656 99.5486 87.5032C99.8315 86.863 100.146 86.2227 100.471 85.614C100.607 85.3621 100.921 85.2571 101.183 85.4041C101.435 85.5405 101.529 85.8554 101.393 86.1178C101.078 86.7055 100.774 87.3143 100.502 87.9335C100.418 88.133 100.219 88.2484 100.02 88.2484V88.2379ZM151.194 88.1959C150.995 88.1959 150.806 88.0805 150.712 87.8811C150.439 87.2618 150.135 86.6531 149.821 86.0653C149.685 85.8134 149.779 85.488 150.031 85.3516C150.293 85.2151 150.607 85.3096 150.743 85.5615C151.068 86.1702 151.382 86.8105 151.665 87.4507C151.78 87.7131 151.665 88.028 151.403 88.1435C151.33 88.1749 151.256 88.1854 151.194 88.1854V88.1959ZM102.566 83.7038C102.461 83.7038 102.357 83.6723 102.273 83.6093C102.032 83.4414 101.979 83.116 102.137 82.8746C102.524 82.3078 102.954 81.741 103.394 81.1848C103.572 80.9644 103.907 80.9224 104.127 81.1008C104.358 81.2792 104.389 81.6151 104.211 81.8355C103.792 82.3603 103.383 82.9061 103.006 83.4623C102.901 83.6093 102.744 83.6933 102.577 83.6933L102.566 83.7038ZM148.637 83.6618C148.469 83.6618 148.312 83.5778 148.207 83.4309C147.82 82.8746 147.411 82.3288 146.992 81.8145C146.814 81.5941 146.845 81.2582 147.076 81.0798C147.296 80.9014 147.631 80.9329 147.809 81.1533C148.249 81.6886 148.668 82.2553 149.067 82.8326C149.234 83.074 149.171 83.3994 148.93 83.5673C148.836 83.6303 148.731 83.6618 148.637 83.6618ZM105.898 79.7049C105.762 79.7049 105.626 79.6524 105.531 79.5474C105.332 79.3375 105.332 79.0122 105.531 78.8022C106.024 78.3089 106.548 77.8366 107.082 77.3748C107.302 77.1859 107.637 77.2174 107.816 77.4378C108.004 77.6582 107.973 77.9941 107.753 78.183C107.239 78.6238 106.736 79.0856 106.265 79.5474C106.16 79.6524 106.024 79.6944 105.898 79.6944V79.7049ZM145.295 79.6734C145.158 79.6734 145.033 79.6209 144.928 79.5264C144.446 79.0541 143.953 78.5923 143.44 78.162C143.22 77.9731 143.189 77.6477 143.377 77.4168C143.566 77.1964 143.901 77.1649 144.121 77.3538C144.655 77.8051 145.169 78.288 145.672 78.7708C145.881 78.9702 145.881 79.306 145.672 79.516C145.567 79.6209 145.431 79.6734 145.295 79.6734ZM109.911 76.4092C109.743 76.4092 109.576 76.3252 109.471 76.1783C109.314 75.9369 109.377 75.6115 109.607 75.4541C110.184 75.0658 110.781 74.6879 111.388 74.3416C111.64 74.1946 111.965 74.2891 112.101 74.5305C112.248 74.7824 112.153 75.0972 111.912 75.2442C111.326 75.58 110.749 75.9369 110.194 76.3147C110.1 76.3777 110.005 76.4092 109.901 76.4092H109.911ZM141.271 76.3777C141.166 76.3777 141.072 76.3462 140.978 76.2938C140.422 75.9159 139.846 75.5591 139.259 75.2232C139.008 75.0762 138.924 74.7614 139.06 74.5095C139.207 74.2576 139.521 74.1736 139.773 74.3101C140.381 74.6564 140.978 75.0343 141.554 75.4226C141.795 75.58 141.858 75.9054 141.701 76.1468C141.596 76.2938 141.439 76.3777 141.261 76.3777H141.271ZM114.469 73.9112C114.27 73.9112 114.071 73.7958 113.987 73.5964C113.872 73.334 113.987 73.0191 114.259 72.9036C114.899 72.6307 115.559 72.3684 116.219 72.1374C116.491 72.043 116.795 72.1899 116.889 72.4628C116.984 72.7357 116.837 73.0401 116.565 73.1345C115.925 73.3549 115.297 73.6068 114.679 73.8692C114.616 73.9007 114.542 73.9112 114.469 73.9112ZM136.713 73.8797C136.64 73.8797 136.577 73.8692 136.504 73.8378C135.886 73.5754 135.246 73.3235 134.618 73.1031C134.345 73.0086 134.199 72.7042 134.293 72.4313C134.387 72.1584 134.691 72.0115 134.964 72.106C135.613 72.3369 136.273 72.5888 136.912 72.8721C137.174 72.9876 137.3 73.292 137.185 73.5649C137.101 73.7643 136.902 73.8797 136.703 73.8797H136.713ZM119.404 72.2844C119.163 72.2844 118.953 72.1165 118.891 71.8751C118.828 71.5917 119.006 71.3083 119.289 71.2453C119.97 71.0879 120.661 70.9619 121.353 70.857C121.636 70.815 121.908 71.0144 121.95 71.2978C121.992 71.5812 121.793 71.8541 121.51 71.896C120.85 72.001 120.179 72.1269 119.519 72.2739C119.477 72.2739 119.435 72.2844 119.404 72.2844ZM131.768 72.2739C131.768 72.2739 131.694 72.2739 131.653 72.2634C130.982 72.1165 130.322 71.9905 129.662 71.8855C129.379 71.8436 129.18 71.5812 129.222 71.2873C129.264 71.0039 129.526 70.8045 129.819 70.8465C130.5 70.9514 131.192 71.0774 131.883 71.2348C132.166 71.2978 132.344 71.5812 132.281 71.8646C132.229 72.106 132.009 72.2739 131.768 72.2739ZM124.559 71.6022C124.276 71.6022 124.046 71.3817 124.035 71.0984C124.025 70.8045 124.255 70.5631 124.538 70.5526C125.24 70.5316 125.932 70.5211 126.634 70.5526C126.927 70.5526 127.147 70.8045 127.137 71.0984C127.137 71.3922 126.875 71.6127 126.592 71.6022C125.921 71.5812 125.24 71.5812 124.57 71.6022H124.549H124.559Z" fill="#130C49"/>
<path d="M125.622 116.764C135.349 116.764 143.235 108.865 143.235 99.121C143.235 89.3769 135.349 81.4777 125.622 81.4777C115.894 81.4777 108.008 89.3769 108.008 99.121C108.008 108.865 115.894 116.764 125.622 116.764Z" fill="#130C49"/>
<path d="M125.611 117.31C123.107 117.31 120.603 116.786 118.246 115.736C109.109 111.664 104.981 100.895 109.046 91.7428C113.111 82.5905 123.862 78.4552 132.998 82.5275C142.135 86.5999 146.263 97.3685 142.198 106.521C140.228 110.96 136.655 114.361 132.129 116.093C130.012 116.901 127.812 117.31 125.622 117.31H125.611ZM125.643 82.0027C119.094 82.0027 112.829 85.7917 110 92.1626C106.165 100.79 110.052 110.929 118.665 114.77C127.277 118.612 137.399 114.718 141.234 106.09C145.069 97.463 141.181 87.3241 132.569 83.4826C130.316 82.475 127.958 82.0027 125.643 82.0027Z" fill="#61D384"/>
<path d="M177.064 28.4324V20.6235H179.075V21.3477H177.944V27.6977H179.075V28.4219H177.064V28.4324Z" fill="#130C49"/>
<path d="M182.115 27.7607C181.633 27.7607 181.225 27.6347 180.879 27.3828C180.533 27.1309 180.271 26.7636 180.093 26.2808C179.915 25.798 179.821 25.2102 179.821 24.5385C179.821 23.8667 179.915 23.279 180.093 22.7962C180.271 22.3134 180.533 21.946 180.879 21.6941C181.225 21.4422 181.633 21.3163 182.115 21.3163C182.597 21.3163 183.006 21.4422 183.341 21.6941C183.687 21.946 183.949 22.3134 184.127 22.7962C184.305 23.279 184.399 23.8563 184.399 24.5385C184.399 25.2207 184.305 25.8085 184.127 26.2913C183.949 26.7741 183.687 27.1414 183.341 27.3933C182.995 27.6452 182.587 27.7712 182.105 27.7712L182.115 27.7607ZM182.115 26.9525C182.534 26.9525 182.87 26.7426 183.111 26.3332C183.352 25.9239 183.467 25.3257 183.467 24.5385C183.467 24.0137 183.415 23.5729 183.299 23.216C183.184 22.8592 183.037 22.5863 182.828 22.3973C182.618 22.2084 182.388 22.114 182.105 22.114C181.686 22.114 181.35 22.3239 181.109 22.7332C180.868 23.153 180.753 23.7513 180.743 24.528C180.743 25.0528 180.795 25.4936 180.91 25.8504C181.015 26.2073 181.172 26.4802 181.371 26.6691C181.57 26.858 181.811 26.942 182.094 26.942L182.115 26.9525Z" fill="#130C49"/>
<path d="M187.866 21.4005V27.6665H186.923V22.3451H186.881L185.383 23.3212V22.4186L186.944 21.4005H187.866Z" fill="#130C49"/>
<path d="M190.4 26.8058L190.358 27.1416C190.327 27.3831 190.275 27.6454 190.201 27.9078C190.128 28.1702 190.055 28.4221 189.981 28.653C189.908 28.8839 189.845 29.0624 189.793 29.1988H189.143C189.164 29.0729 189.206 28.9049 189.248 28.6845C189.29 28.4641 189.342 28.2332 189.384 27.9603C189.426 27.6979 189.457 27.425 189.489 27.1521L189.52 26.8058H190.4Z" fill="#130C49"/>
<path d="M193.619 27.7607C193.137 27.7607 192.728 27.6347 192.382 27.3828C192.037 27.1309 191.775 26.7636 191.597 26.2808C191.418 25.798 191.324 25.2102 191.324 24.5385C191.324 23.8667 191.418 23.279 191.597 22.7962C191.775 22.3134 192.037 21.946 192.382 21.6941C192.728 21.4422 193.137 21.3163 193.619 21.3163C194.101 21.3163 194.509 21.4422 194.845 21.6941C195.19 21.946 195.452 22.3134 195.63 22.7962C195.809 23.279 195.903 23.8563 195.903 24.5385C195.903 25.2207 195.809 25.8085 195.63 26.2913C195.452 26.7741 195.19 27.1414 194.845 27.3933C194.499 27.6452 194.09 27.7712 193.608 27.7712L193.619 27.7607ZM193.619 26.9525C194.038 26.9525 194.373 26.7426 194.614 26.3332C194.855 25.9239 194.97 25.3257 194.97 24.5385C194.97 24.0137 194.918 23.5729 194.803 23.216C194.687 22.8592 194.541 22.5863 194.331 22.3973C194.122 22.2084 193.891 22.114 193.608 22.114C193.189 22.114 192.854 22.3239 192.613 22.7332C192.372 23.153 192.257 23.7513 192.246 24.528C192.246 25.0528 192.299 25.4936 192.414 25.8504C192.519 26.2073 192.676 26.4802 192.875 26.6691C193.074 26.858 193.315 26.942 193.598 26.942L193.619 26.9525Z" fill="#130C49"/>
<path d="M196.992 27.6557V26.9735L199.108 24.7799C199.339 24.5385 199.517 24.3286 199.663 24.1501C199.81 23.9717 199.925 23.8038 199.999 23.6358C200.072 23.4679 200.103 23.3 200.103 23.1111C200.103 22.9011 200.051 22.7227 199.957 22.5758C199.862 22.4288 199.726 22.3029 199.559 22.2294C199.391 22.1559 199.202 22.1035 198.993 22.1035C198.773 22.1035 198.574 22.1454 198.406 22.2399C198.238 22.3344 198.113 22.4603 198.018 22.6283C197.924 22.7962 197.882 22.9956 197.882 23.216H196.981C196.981 22.8382 197.065 22.5023 197.243 22.2189C197.421 21.9355 197.662 21.7151 197.966 21.5577C198.27 21.4003 198.616 21.3163 199.003 21.3163C199.391 21.3163 199.747 21.3898 200.041 21.5472C200.344 21.7046 200.575 21.9145 200.743 22.1874C200.91 22.4603 200.994 22.7542 200.994 23.0901C200.994 23.321 200.952 23.5519 200.868 23.7723C200.785 23.9927 200.627 24.2446 200.418 24.5175C200.208 24.7904 199.904 25.1157 199.527 25.5041L198.28 26.8056V26.8475H201.099V27.6557H196.981H196.992Z" fill="#130C49"/>
<path d="M203.466 26.8058L203.424 27.1416C203.393 27.3831 203.34 27.6454 203.267 27.9078C203.194 28.1702 203.12 28.4221 203.047 28.653C202.974 28.8839 202.911 29.0624 202.858 29.1988H202.209C202.23 29.0729 202.272 28.9049 202.314 28.6845C202.356 28.4641 202.408 28.2332 202.45 27.9603C202.492 27.6979 202.523 27.425 202.555 27.1521L202.586 26.8058H203.466Z" fill="#130C49"/>
<path d="M206.696 27.7607C206.214 27.7607 205.805 27.6347 205.459 27.3828C205.114 27.1309 204.852 26.7636 204.674 26.2808C204.495 25.798 204.401 25.2102 204.401 24.5385C204.401 23.8667 204.495 23.279 204.674 22.7962C204.852 22.3134 205.114 21.946 205.459 21.6941C205.805 21.4422 206.214 21.3163 206.696 21.3163C207.178 21.3163 207.586 21.4422 207.922 21.6941C208.267 21.946 208.529 22.3134 208.707 22.7962C208.886 23.279 208.98 23.8563 208.98 24.5385C208.98 25.2207 208.886 25.8085 208.707 26.2913C208.529 26.7741 208.267 27.1414 207.922 27.3933C207.576 27.6452 207.167 27.7712 206.685 27.7712L206.696 27.7607ZM206.696 26.9525C207.115 26.9525 207.45 26.7426 207.691 26.3332C207.932 25.9239 208.047 25.3257 208.047 24.5385C208.047 24.0137 207.995 23.5729 207.88 23.216C207.764 22.8592 207.618 22.5863 207.408 22.3973C207.199 22.2084 206.968 22.114 206.685 22.114C206.266 22.114 205.931 22.3239 205.69 22.7332C205.449 23.153 205.334 23.7513 205.323 24.528C205.323 25.0528 205.376 25.4936 205.491 25.8504C205.596 26.2073 205.753 26.4802 205.952 26.6691C206.151 26.858 206.392 26.942 206.675 26.942L206.696 26.9525Z" fill="#130C49"/>
<path d="M212.247 27.7501C211.828 27.7501 211.451 27.6766 211.126 27.5296C210.801 27.3827 210.539 27.1833 210.351 26.9209C210.162 26.6585 210.057 26.3646 210.047 26.0183H211.011C211.021 26.2072 211.084 26.3646 211.199 26.5011C211.315 26.6375 211.461 26.7425 211.64 26.8159C211.818 26.8894 212.027 26.9314 212.247 26.9314C212.488 26.9314 212.708 26.8894 212.897 26.8054C213.085 26.7215 213.232 26.5955 213.347 26.4486C213.452 26.2911 213.505 26.1127 213.505 25.9133C213.505 25.7139 213.452 25.5145 213.347 25.357C213.243 25.1996 213.085 25.0736 212.876 24.9792C212.666 24.8847 212.425 24.8427 212.132 24.8427H211.608V24.0765H212.132C212.362 24.0765 212.572 24.0346 212.74 23.9506C212.918 23.8666 213.054 23.7512 213.159 23.6042C213.264 23.4573 213.305 23.2789 213.305 23.0794C213.305 22.88 213.264 22.7226 213.18 22.5757C213.096 22.4287 212.97 22.3238 212.813 22.2398C212.656 22.1558 212.467 22.1138 212.258 22.1138C212.048 22.1138 211.86 22.1558 211.692 22.2293C211.514 22.3028 211.378 22.4077 211.262 22.5442C211.158 22.6806 211.095 22.8485 211.084 23.0375H210.173C210.173 22.7016 210.288 22.3972 210.476 22.1453C210.665 21.8934 210.917 21.6835 211.231 21.5471C211.545 21.4106 211.891 21.3267 212.279 21.3267C212.666 21.3267 213.023 21.4001 213.316 21.5576C213.609 21.715 213.829 21.9249 213.997 22.1768C214.154 22.4392 214.238 22.7226 214.238 23.027C214.238 23.3733 214.144 23.6777 213.945 23.9191C213.746 24.1605 213.484 24.3284 213.159 24.4124V24.4649C213.578 24.5279 213.892 24.6958 214.123 24.9582C214.353 25.2206 214.469 25.5564 214.469 25.9553C214.469 26.3016 214.374 26.606 214.186 26.8789C213.997 27.1518 213.735 27.3617 213.4 27.5191C213.064 27.6766 212.687 27.7501 212.258 27.7501H212.247Z" fill="#130C49"/>
<path d="M216.616 26.8058L216.574 27.1416C216.542 27.3831 216.49 27.6454 216.417 27.9078C216.343 28.1702 216.27 28.4221 216.197 28.653C216.123 28.8839 216.06 29.0624 216.008 29.1988H215.358C215.379 29.0729 215.421 28.9049 215.463 28.6845C215.505 28.4641 215.557 28.2332 215.599 27.9603C215.641 27.6979 215.673 27.425 215.704 27.1521L215.736 26.8058H216.616Z" fill="#130C49"/>
<path d="M219.834 27.7607C219.352 27.7607 218.943 27.6347 218.598 27.3828C218.252 27.1309 217.99 26.7636 217.812 26.2808C217.634 25.798 217.539 25.2102 217.539 24.5385C217.539 23.8667 217.634 23.279 217.812 22.7962C217.99 22.3134 218.252 21.946 218.598 21.6941C218.943 21.4422 219.352 21.3163 219.834 21.3163C220.316 21.3163 220.725 21.4422 221.06 21.6941C221.406 21.946 221.668 22.3134 221.846 22.7962C222.024 23.279 222.118 23.8563 222.118 24.5385C222.118 25.2207 222.024 25.8085 221.846 26.2913C221.668 26.7741 221.406 27.1414 221.06 27.3933C220.714 27.6452 220.306 27.7712 219.824 27.7712L219.834 27.7607ZM219.834 26.9525C220.253 26.9525 220.588 26.7426 220.829 26.3332C221.07 25.9239 221.186 25.3257 221.186 24.5385C221.186 24.0137 221.133 23.5729 221.018 23.216C220.903 22.8592 220.756 22.5863 220.547 22.3973C220.337 22.2084 220.106 22.114 219.824 22.114C219.404 22.114 219.069 22.3239 218.828 22.7332C218.587 23.153 218.472 23.7513 218.461 24.528C218.461 25.0528 218.514 25.4936 218.629 25.8504C218.734 26.2073 218.891 26.4802 219.09 26.6691C219.289 26.858 219.53 26.942 219.813 26.942L219.834 26.9525Z" fill="#130C49"/>
<path d="M223.081 26.4385V25.6723L225.784 21.4005H226.382V22.5236H226.004L224.066 25.5883V25.6408H227.775V26.4385H223.081ZM226.046 27.656V25.8507V21.39H226.937V27.656H226.036H226.046Z" fill="#130C49"/>
<path d="M230.508 20.6235V28.4324H228.497V27.7082H229.628V21.3582H228.497V20.634H230.508V20.6235Z" fill="#130C49"/>
<path d="M177.064 43.3785V35.5697H179.075V36.2939H177.944V42.6438H179.075V43.368H177.064V43.3785Z" fill="#130C49"/>
<path d="M182.115 42.7173C181.633 42.7173 181.225 42.5914 180.879 42.3395C180.533 42.0876 180.271 41.7202 180.093 41.2374C179.915 40.7546 179.821 40.1669 179.821 39.4951C179.821 38.8234 179.915 38.2357 180.093 37.7528C180.271 37.27 180.533 36.9027 180.879 36.6508C181.225 36.3989 181.633 36.2729 182.115 36.2729C182.597 36.2729 183.006 36.3989 183.341 36.6508C183.687 36.9027 183.949 37.27 184.127 37.7528C184.305 38.2357 184.399 38.8129 184.399 39.4951C184.399 40.1774 184.305 40.7651 184.127 41.2479C183.949 41.7307 183.687 42.0981 183.341 42.35C182.995 42.6019 182.587 42.7278 182.105 42.7278L182.115 42.7173ZM182.115 41.8987C182.534 41.8987 182.87 41.6888 183.111 41.2794C183.352 40.8701 183.467 40.2718 183.467 39.4846C183.467 38.9599 183.415 38.519 183.299 38.1622C183.184 37.8053 183.037 37.5324 182.828 37.3435C182.618 37.1546 182.388 37.0601 182.105 37.0601C181.686 37.0601 181.35 37.27 181.109 37.6794C180.868 38.0992 180.753 38.6975 180.743 39.4741C180.743 39.9989 180.795 40.4398 180.91 40.7966C181.015 41.1535 181.172 41.4264 181.371 41.6153C181.57 41.8042 181.811 41.8882 182.094 41.8882L182.115 41.8987Z" fill="#130C49"/>
<path d="M187.866 36.3467V42.6126H186.923V37.2913H186.881L185.383 38.2674V37.3648L186.944 36.3467H187.866Z" fill="#130C49"/>
<path d="M190.4 41.752L190.358 42.0878C190.327 42.3292 190.275 42.5916 190.201 42.854C190.128 43.1164 190.055 43.3683 189.981 43.5992C189.908 43.8301 189.845 44.0085 189.793 44.145H189.143C189.164 44.019 189.206 43.8511 189.248 43.6307C189.29 43.4103 189.342 43.1794 189.384 42.9065C189.426 42.6441 189.457 42.3712 189.489 42.0983L189.52 41.752H190.4Z" fill="#130C49"/>
<path d="M193.619 42.7173C193.137 42.7173 192.728 42.5914 192.382 42.3395C192.037 42.0876 191.775 41.7202 191.597 41.2374C191.418 40.7546 191.324 40.1669 191.324 39.4951C191.324 38.8234 191.418 38.2357 191.597 37.7528C191.775 37.27 192.037 36.9027 192.382 36.6508C192.728 36.3989 193.137 36.2729 193.619 36.2729C194.101 36.2729 194.509 36.3989 194.845 36.6508C195.19 36.9027 195.452 37.27 195.63 37.7528C195.809 38.2357 195.903 38.8129 195.903 39.4951C195.903 40.1774 195.809 40.7651 195.63 41.2479C195.452 41.7307 195.19 42.0981 194.845 42.35C194.499 42.6019 194.09 42.7278 193.608 42.7278L193.619 42.7173ZM193.619 41.8987C194.038 41.8987 194.373 41.6888 194.614 41.2794C194.855 40.8701 194.97 40.2718 194.97 39.4846C194.97 38.9599 194.918 38.519 194.803 38.1622C194.687 37.8053 194.541 37.5324 194.331 37.3435C194.122 37.1546 193.891 37.0601 193.608 37.0601C193.189 37.0601 192.854 37.27 192.613 37.6794C192.372 38.0992 192.257 38.6975 192.246 39.4741C192.246 39.9989 192.299 40.4398 192.414 40.7966C192.519 41.1535 192.676 41.4264 192.875 41.6153C193.074 41.8042 193.315 41.8882 193.598 41.8882L193.619 41.8987Z" fill="#130C49"/>
<path d="M196.992 42.6124V41.9302L199.108 39.7365C199.339 39.4951 199.517 39.2852 199.663 39.1068C199.81 38.9284 199.925 38.7604 199.999 38.5925C200.072 38.4246 200.103 38.2566 200.103 38.0677C200.103 37.8578 200.051 37.6794 199.957 37.5324C199.862 37.3855 199.726 37.2595 199.559 37.1861C199.391 37.1126 199.202 37.0601 198.993 37.0601C198.773 37.0601 198.574 37.1021 198.406 37.1966C198.238 37.291 198.113 37.417 198.018 37.5849C197.924 37.7528 197.882 37.9523 197.882 38.1727H196.981C196.981 37.7948 197.065 37.459 197.243 37.1756C197.421 36.8922 197.662 36.6718 197.966 36.5144C198.27 36.3569 198.616 36.2729 199.003 36.2729C199.391 36.2729 199.747 36.3464 200.041 36.5039C200.344 36.6613 200.575 36.8712 200.743 37.1441C200.91 37.417 200.994 37.7109 200.994 38.0467C200.994 38.2776 200.952 38.5085 200.868 38.729C200.785 38.9494 200.627 39.2013 200.418 39.4741C200.208 39.747 199.904 40.0724 199.527 40.4607L198.28 41.7622V41.8042H201.099V42.6124H196.981H196.992Z" fill="#130C49"/>
<path d="M203.466 41.752L203.424 42.0878C203.393 42.3292 203.34 42.5916 203.267 42.854C203.194 43.1164 203.12 43.3683 203.047 43.5992C202.974 43.8301 202.911 44.0085 202.858 44.145H202.209C202.23 44.019 202.272 43.8511 202.314 43.6307C202.356 43.4103 202.408 43.1794 202.45 42.9065C202.492 42.6441 202.523 42.3712 202.555 42.0983L202.586 41.752H203.466Z" fill="#130C49"/>
<path d="M206.696 42.7173C206.214 42.7173 205.805 42.5914 205.459 42.3395C205.114 42.0876 204.852 41.7202 204.674 41.2374C204.495 40.7546 204.401 40.1669 204.401 39.4951C204.401 38.8234 204.495 38.2357 204.674 37.7528C204.852 37.27 205.114 36.9027 205.459 36.6508C205.805 36.3989 206.214 36.2729 206.696 36.2729C207.178 36.2729 207.586 36.3989 207.922 36.6508C208.267 36.9027 208.529 37.27 208.707 37.7528C208.886 38.2357 208.98 38.8129 208.98 39.4951C208.98 40.1774 208.886 40.7651 208.707 41.2479C208.529 41.7307 208.267 42.0981 207.922 42.35C207.576 42.6019 207.167 42.7278 206.685 42.7278L206.696 42.7173ZM206.696 41.8987C207.115 41.8987 207.45 41.6888 207.691 41.2794C207.932 40.8701 208.047 40.2718 208.047 39.4846C208.047 38.9599 207.995 38.519 207.88 38.1622C207.764 37.8053 207.618 37.5324 207.408 37.3435C207.199 37.1546 206.968 37.0601 206.685 37.0601C206.266 37.0601 205.931 37.27 205.69 37.6794C205.449 38.0992 205.334 38.6975 205.323 39.4741C205.323 39.9989 205.376 40.4398 205.491 40.7966C205.596 41.1535 205.753 41.4264 205.952 41.6153C206.151 41.8042 206.392 41.8882 206.675 41.8882L206.696 41.8987Z" fill="#130C49"/>
<path d="M212.247 42.6963C211.828 42.6963 211.451 42.6229 211.126 42.4759C210.801 42.329 210.539 42.1296 210.351 41.8672C210.162 41.6048 210.057 41.3109 210.047 40.9645H211.011C211.021 41.1535 211.084 41.3109 211.199 41.4474C211.315 41.5838 211.461 41.6888 211.64 41.7622C211.818 41.8357 212.027 41.8777 212.247 41.8777C212.488 41.8777 212.708 41.8357 212.897 41.7517C213.085 41.6678 213.232 41.5418 213.347 41.3949C213.452 41.2374 213.505 41.059 213.505 40.8596C213.505 40.6602 213.452 40.4608 213.347 40.3033C213.243 40.1459 213.085 40.0199 212.876 39.9255C212.666 39.831 212.425 39.789 212.132 39.789H211.608V39.0228H212.132C212.362 39.0228 212.572 38.9809 212.74 38.8969C212.918 38.8129 213.054 38.6975 213.159 38.5505C213.264 38.4036 213.305 38.2252 213.305 38.0257C213.305 37.8263 213.264 37.6689 213.18 37.5219C213.096 37.375 212.97 37.27 212.813 37.1861C212.656 37.1021 212.467 37.0601 212.258 37.0601C212.048 37.0601 211.86 37.1021 211.692 37.1756C211.514 37.249 211.378 37.354 211.262 37.4905C211.158 37.6269 211.095 37.7948 211.084 37.9838H210.173C210.173 37.6479 210.288 37.3435 210.476 37.0916C210.665 36.8397 210.917 36.6298 211.231 36.4934C211.545 36.3569 211.891 36.2729 212.279 36.2729C212.666 36.2729 213.023 36.3464 213.316 36.5039C213.609 36.6613 213.829 36.8712 213.997 37.1231C214.154 37.3855 214.238 37.6689 214.238 37.9733C214.238 38.3196 214.144 38.624 213.945 38.8654C213.746 39.1068 213.484 39.2747 213.159 39.3587V39.4112C213.578 39.4741 213.892 39.6421 214.123 39.9045C214.353 40.1669 214.469 40.5027 214.469 40.9016C214.469 41.2479 214.374 41.5523 214.186 41.8252C213.997 42.0981 213.735 42.308 213.4 42.4654C213.064 42.6229 212.687 42.6963 212.258 42.6963H212.247Z" fill="#130C49"/>
<path d="M216.616 41.752L216.574 42.0878C216.542 42.3292 216.49 42.5916 216.417 42.854C216.343 43.1164 216.27 43.3683 216.197 43.5992C216.123 43.8301 216.06 44.0085 216.008 44.145H215.358C215.379 44.019 215.421 43.8511 215.463 43.6307C215.505 43.4103 215.557 43.1794 215.599 42.9065C215.641 42.6441 215.673 42.3712 215.704 42.0983L215.736 41.752H216.616Z" fill="#130C49"/>
<path d="M219.834 42.7173C219.352 42.7173 218.943 42.5914 218.598 42.3395C218.252 42.0876 217.99 41.7202 217.812 41.2374C217.634 40.7546 217.539 40.1669 217.539 39.4951C217.539 38.8234 217.634 38.2357 217.812 37.7528C217.99 37.27 218.252 36.9027 218.598 36.6508C218.943 36.3989 219.352 36.2729 219.834 36.2729C220.316 36.2729 220.725 36.3989 221.06 36.6508C221.406 36.9027 221.668 37.27 221.846 37.7528C222.024 38.2357 222.118 38.8129 222.118 39.4951C222.118 40.1774 222.024 40.7651 221.846 41.2479C221.668 41.7307 221.406 42.0981 221.06 42.35C220.714 42.6019 220.306 42.7278 219.824 42.7278L219.834 42.7173ZM219.834 41.8987C220.253 41.8987 220.588 41.6888 220.829 41.2794C221.07 40.8701 221.186 40.2718 221.186 39.4846C221.186 38.9599 221.133 38.519 221.018 38.1622C220.903 37.8053 220.756 37.5324 220.547 37.3435C220.337 37.1546 220.106 37.0601 219.824 37.0601C219.404 37.0601 219.069 37.27 218.828 37.6794C218.587 38.0992 218.472 38.6975 218.461 39.4741C218.461 39.9989 218.514 40.4398 218.629 40.7966C218.734 41.1535 218.891 41.4264 219.09 41.6153C219.289 41.8042 219.53 41.8882 219.813 41.8882L219.834 41.8987Z" fill="#130C49"/>
<path d="M223.081 41.3846V40.6184L225.784 36.3467H226.382V37.4697H226.004L224.066 40.5345V40.587H227.775V41.3846H223.081ZM226.046 42.6126V40.8074V36.3467H226.937V42.6126H226.036H226.046Z" fill="#130C49"/>
<path d="M230.508 35.5802V43.389H228.497V42.6648H229.628V36.3149H228.497V35.5907H230.508V35.5802Z" fill="#130C49"/>
<path d="M177.064 58.3249V50.5161H179.075V51.2403H177.944V57.5902H179.075V58.3145H177.064V58.3249Z" fill="#130C49"/>
<path d="M182.115 57.6635C181.633 57.6635 181.225 57.5376 180.879 57.2857C180.533 57.0338 180.271 56.6664 180.093 56.1836C179.915 55.7008 179.821 55.113 179.821 54.4413C179.821 53.7696 179.915 53.1818 180.093 52.699C180.271 52.2162 180.533 51.8489 180.879 51.597C181.225 51.3451 181.633 51.2191 182.115 51.2191C182.597 51.2191 183.006 51.3451 183.341 51.597C183.687 51.8489 183.949 52.2162 184.127 52.699C184.305 53.1818 184.399 53.7591 184.399 54.4413C184.399 55.1235 184.305 55.7113 184.127 56.1941C183.949 56.6769 183.687 57.0443 183.341 57.2962C182.995 57.548 182.587 57.674 182.105 57.674L182.115 57.6635ZM182.115 56.8448C182.534 56.8448 182.87 56.6349 183.111 56.2256C183.352 55.8163 183.467 55.218 183.467 54.4308C183.467 53.906 183.415 53.4652 183.299 53.1083C183.184 52.7515 183.037 52.4786 182.828 52.2897C182.618 52.1008 182.388 52.0063 182.105 52.0063C181.686 52.0063 181.35 52.2162 181.109 52.6255C180.868 53.0454 180.753 53.6436 180.743 54.4203C180.743 54.9451 180.795 55.3859 180.91 55.7428C181.015 56.0996 181.172 56.3725 181.371 56.5614C181.57 56.7504 181.811 56.8343 182.094 56.8343L182.115 56.8448Z" fill="#130C49"/>
<path d="M187.866 51.293V57.5589H186.923V52.2376H186.881L185.383 53.2137V52.3111L186.944 51.293H187.866Z" fill="#130C49"/>
<path d="M190.4 56.6984L190.358 57.0342C190.327 57.2756 190.275 57.538 190.201 57.8004C190.128 58.0628 190.055 58.3147 189.981 58.5456C189.908 58.7765 189.845 58.9549 189.793 59.0914H189.143C189.164 58.9654 189.206 58.7975 189.248 58.5771C189.29 58.3567 189.342 58.1258 189.384 57.8529C189.426 57.5905 189.457 57.3176 189.489 57.0447L189.52 56.6984H190.4Z" fill="#130C49"/>
<path d="M193.619 57.6635C193.137 57.6635 192.728 57.5376 192.382 57.2857C192.037 57.0338 191.775 56.6664 191.597 56.1836C191.418 55.7008 191.324 55.113 191.324 54.4413C191.324 53.7696 191.418 53.1818 191.597 52.699C191.775 52.2162 192.037 51.8489 192.382 51.597C192.728 51.3451 193.137 51.2191 193.619 51.2191C194.101 51.2191 194.509 51.3451 194.845 51.597C195.19 51.8489 195.452 52.2162 195.63 52.699C195.809 53.1818 195.903 53.7591 195.903 54.4413C195.903 55.1235 195.809 55.7113 195.63 56.1941C195.452 56.6769 195.19 57.0443 194.845 57.2962C194.499 57.548 194.09 57.674 193.608 57.674L193.619 57.6635ZM193.619 56.8448C194.038 56.8448 194.373 56.6349 194.614 56.2256C194.855 55.8163 194.97 55.218 194.97 54.4308C194.97 53.906 194.918 53.4652 194.803 53.1083C194.687 52.7515 194.541 52.4786 194.331 52.2897C194.122 52.1008 193.891 52.0063 193.608 52.0063C193.189 52.0063 192.854 52.2162 192.613 52.6255C192.372 53.0454 192.257 53.6436 192.246 54.4203C192.246 54.9451 192.299 55.3859 192.414 55.7428C192.519 56.0996 192.676 56.3725 192.875 56.5614C193.074 56.7504 193.315 56.8343 193.598 56.8343L193.619 56.8448Z" fill="#130C49"/>
<path d="M196.992 57.5585V56.8763L199.108 54.6827C199.339 54.4413 199.517 54.2314 199.663 54.053C199.81 53.8745 199.925 53.7066 199.999 53.5387C200.072 53.3707 200.103 53.2028 200.103 53.0139C200.103 52.804 200.051 52.6255 199.957 52.4786C199.862 52.3317 199.726 52.2057 199.559 52.1322C199.391 52.0588 199.202 52.0063 198.993 52.0063C198.773 52.0063 198.574 52.0483 198.406 52.1427C198.238 52.2372 198.113 52.3632 198.018 52.5311C197.924 52.699 197.882 52.8984 197.882 53.1188H196.981C196.981 52.741 197.065 52.4051 197.243 52.1218C197.421 51.8384 197.662 51.618 197.966 51.4605C198.27 51.3031 198.616 51.2191 199.003 51.2191C199.391 51.2191 199.747 51.2926 200.041 51.45C200.344 51.6075 200.575 51.8174 200.743 52.0903C200.91 52.3632 200.994 52.657 200.994 52.9929C200.994 53.2238 200.952 53.4547 200.868 53.6751C200.785 53.8955 200.627 54.1474 200.418 54.4203C200.208 54.6932 199.904 55.0186 199.527 55.4069L198.28 56.7084V56.7504H201.099V57.5585H196.981H196.992Z" fill="#130C49"/>
<path d="M203.466 56.6984L203.424 57.0342C203.393 57.2756 203.34 57.538 203.267 57.8004C203.194 58.0628 203.12 58.3147 203.047 58.5456C202.974 58.7765 202.911 58.9549 202.858 59.0914H202.209C202.23 58.9654 202.272 58.7975 202.314 58.5771C202.356 58.3567 202.408 58.1258 202.45 57.8529C202.492 57.5905 202.523 57.3176 202.555 57.0447L202.586 56.6984H203.466Z" fill="#130C49"/>
<path d="M206.696 57.6635C206.214 57.6635 205.805 57.5376 205.459 57.2857C205.114 57.0338 204.852 56.6664 204.674 56.1836C204.495 55.7008 204.401 55.113 204.401 54.4413C204.401 53.7696 204.495 53.1818 204.674 52.699C204.852 52.2162 205.114 51.8489 205.459 51.597C205.805 51.3451 206.214 51.2191 206.696 51.2191C207.178 51.2191 207.586 51.3451 207.922 51.597C208.267 51.8489 208.529 52.2162 208.707 52.699C208.886 53.1818 208.98 53.7591 208.98 54.4413C208.98 55.1235 208.886 55.7113 208.707 56.1941C208.529 56.6769 208.267 57.0443 207.922 57.2962C207.576 57.548 207.167 57.674 206.685 57.674L206.696 57.6635ZM206.696 56.8448C207.115 56.8448 207.45 56.6349 207.691 56.2256C207.932 55.8163 208.047 55.218 208.047 54.4308C208.047 53.906 207.995 53.4652 207.88 53.1083C207.764 52.7515 207.618 52.4786 207.408 52.2897C207.199 52.1008 206.968 52.0063 206.685 52.0063C206.266 52.0063 205.931 52.2162 205.69 52.6255C205.449 53.0454 205.334 53.6436 205.323 54.4203C205.323 54.9451 205.376 55.3859 205.491 55.7428C205.596 56.0996 205.753 56.3725 205.952 56.5614C206.151 56.7504 206.392 56.8343 206.675 56.8343L206.696 56.8448Z" fill="#130C49"/>
<path d="M212.247 57.6425C211.828 57.6425 211.451 57.569 211.126 57.4221C210.801 57.2752 210.539 57.0757 210.351 56.8133C210.162 56.551 210.057 56.2571 210.047 55.9107H211.011C211.021 56.0996 211.084 56.2571 211.199 56.3935C211.315 56.53 211.461 56.6349 211.64 56.7084C211.818 56.7819 212.027 56.8238 212.247 56.8238C212.488 56.8238 212.708 56.7819 212.897 56.6979C213.085 56.6139 213.232 56.488 213.347 56.341C213.452 56.1836 213.505 56.0052 213.505 55.8058C213.505 55.6063 213.452 55.4069 213.347 55.2495C213.243 55.092 213.085 54.9661 212.876 54.8716C212.666 54.7772 212.425 54.7352 212.132 54.7352H211.608V53.969H212.132C212.362 53.969 212.572 53.927 212.74 53.8431C212.918 53.7591 213.054 53.6436 213.159 53.4967C213.264 53.3498 213.305 53.1713 213.305 52.9719C213.305 52.7725 213.264 52.6151 213.18 52.4681C213.096 52.3212 212.97 52.2162 212.813 52.1322C212.656 52.0483 212.467 52.0063 212.258 52.0063C212.048 52.0063 211.86 52.0483 211.692 52.1218C211.514 52.1952 211.378 52.3002 211.262 52.4366C211.158 52.5731 211.095 52.741 211.084 52.9299H210.173C210.173 52.5941 210.288 52.2897 210.476 52.0378C210.665 51.7859 210.917 51.576 211.231 51.4395C211.545 51.3031 211.891 51.2191 212.279 51.2191C212.666 51.2191 213.023 51.2926 213.316 51.45C213.609 51.6075 213.829 51.8174 213.997 52.0693C214.154 52.3317 214.238 52.615 214.238 52.9194C214.238 53.2658 214.144 53.5702 213.945 53.8116C213.746 54.053 213.484 54.2209 213.159 54.3049V54.3573C213.578 54.4203 213.892 54.5882 214.123 54.8506C214.353 55.113 214.469 55.4489 214.469 55.8477C214.469 56.1941 214.374 56.4985 214.186 56.7714C213.997 57.0443 213.735 57.2542 213.4 57.4116C213.064 57.569 212.687 57.6425 212.258 57.6425H212.247Z" fill="#130C49"/>
<path d="M216.616 56.6984L216.574 57.0342C216.542 57.2756 216.49 57.538 216.417 57.8004C216.343 58.0628 216.27 58.3147 216.197 58.5456C216.123 58.7765 216.06 58.9549 216.008 59.0914H215.358C215.379 58.9654 215.421 58.7975 215.463 58.5771C215.505 58.3567 215.557 58.1258 215.599 57.8529C215.641 57.5905 215.673 57.3176 215.704 57.0447L215.736 56.6984H216.616Z" fill="#130C49"/>
<path d="M219.834 57.6635C219.352 57.6635 218.943 57.5376 218.598 57.2857C218.252 57.0338 217.99 56.6664 217.812 56.1836C217.634 55.7008 217.539 55.113 217.539 54.4413C217.539 53.7696 217.634 53.1818 217.812 52.699C217.99 52.2162 218.252 51.8489 218.598 51.597C218.943 51.3451 219.352 51.2191 219.834 51.2191C220.316 51.2191 220.725 51.3451 221.06 51.597C221.406 51.8489 221.668 52.2162 221.846 52.699C222.024 53.1818 222.118 53.7591 222.118 54.4413C222.118 55.1235 222.024 55.7113 221.846 56.1941C221.668 56.6769 221.406 57.0443 221.06 57.2962C220.714 57.548 220.306 57.674 219.824 57.674L219.834 57.6635ZM219.834 56.8448C220.253 56.8448 220.588 56.6349 220.829 56.2256C221.07 55.8163 221.186 55.218 221.186 54.4308C221.186 53.906 221.133 53.4652 221.018 53.1083C220.903 52.7515 220.756 52.4786 220.547 52.2897C220.337 52.1008 220.106 52.0063 219.824 52.0063C219.404 52.0063 219.069 52.2162 218.828 52.6255C218.587 53.0454 218.472 53.6436 218.461 54.4203C218.461 54.9451 218.514 55.3859 218.629 55.7428C218.734 56.0996 218.891 56.3725 219.09 56.5614C219.289 56.7504 219.53 56.8343 219.813 56.8343L219.834 56.8448Z" fill="#130C49"/>
<path d="M223.081 56.3309V55.5647L225.784 51.293H226.382V52.416H226.004L224.066 55.4808V55.5332H227.775V56.3309H223.081ZM226.046 57.5589V55.7537V51.293H226.937V57.5589H226.036H226.046Z" fill="#130C49"/>
<path d="M230.508 50.5266V58.3354H228.497V57.6112H229.628V51.2613H228.497V50.5371H230.508V50.5266Z" fill="#130C49"/>
<path d="M177.064 73.2817V65.4729H179.075V66.1971H177.944V72.547H179.075V73.2712H177.064V73.2817Z" fill="#130C49"/>
<path d="M182.115 72.61C181.633 72.61 181.225 72.4841 180.879 72.2322C180.533 71.9803 180.271 71.6129 180.093 71.1301C179.915 70.6473 179.821 70.0596 179.821 69.3878C179.821 68.7161 179.915 68.1283 180.093 67.6455C180.271 67.1627 180.533 66.7954 180.879 66.5435C181.225 66.2916 181.633 66.1656 182.115 66.1656C182.597 66.1656 183.006 66.2916 183.341 66.5435C183.687 66.7954 183.949 67.1627 184.127 67.6455C184.305 68.1283 184.399 68.7056 184.399 69.3878C184.399 70.0701 184.305 70.6578 184.127 71.1406C183.949 71.6234 183.687 71.9908 183.341 72.2427C182.995 72.4946 182.587 72.6205 182.105 72.6205L182.115 72.61ZM182.115 71.7914C182.534 71.7914 182.87 71.5814 183.111 71.1721C183.352 70.7628 183.467 70.1645 183.467 69.3773C183.467 68.8526 183.415 68.4117 183.299 68.0549C183.184 67.698 183.037 67.4251 182.828 67.2362C182.618 67.0473 182.388 66.9528 182.105 66.9528C181.686 66.9528 181.35 67.1627 181.109 67.5721C180.868 67.9919 180.753 68.5902 180.743 69.3668C180.743 69.8916 180.795 70.3325 180.91 70.6893C181.015 71.0462 181.172 71.3191 181.371 71.508C181.57 71.6969 181.811 71.7809 182.094 71.7809L182.115 71.7914Z" fill="#130C49"/>
<path d="M187.866 66.2394V72.5053H186.923V67.184H186.881L185.383 68.1601V67.2575L186.944 66.2394H187.866Z" fill="#130C49"/>
<path d="M190.4 71.6448L190.358 71.9806C190.327 72.222 190.275 72.4844 190.201 72.7468C190.128 73.0092 190.055 73.2611 189.981 73.492C189.908 73.7229 189.845 73.9014 189.793 74.0378H189.143C189.164 73.9119 189.206 73.7439 189.248 73.5235C189.29 73.3031 189.342 73.0722 189.384 72.7993C189.426 72.5369 189.457 72.264 189.489 71.9911L189.52 71.6448H190.4Z" fill="#130C49"/>
<path d="M193.619 72.61C193.137 72.61 192.728 72.4841 192.382 72.2322C192.037 71.9803 191.775 71.6129 191.597 71.1301C191.418 70.6473 191.324 70.0596 191.324 69.3878C191.324 68.7161 191.418 68.1283 191.597 67.6455C191.775 67.1627 192.037 66.7954 192.382 66.5435C192.728 66.2916 193.137 66.1656 193.619 66.1656C194.101 66.1656 194.509 66.2916 194.845 66.5435C195.19 66.7954 195.452 67.1627 195.63 67.6455C195.809 68.1283 195.903 68.7056 195.903 69.3878C195.903 70.0701 195.809 70.6578 195.63 71.1406C195.452 71.6234 195.19 71.9908 194.845 72.2427C194.499 72.4946 194.09 72.6205 193.608 72.6205L193.619 72.61ZM193.619 71.7914C194.038 71.7914 194.373 71.5814 194.614 71.1721C194.855 70.7628 194.97 70.1645 194.97 69.3773C194.97 68.8526 194.918 68.4117 194.803 68.0549C194.687 67.698 194.541 67.4251 194.331 67.2362C194.122 67.0473 193.891 66.9528 193.608 66.9528C193.189 66.9528 192.854 67.1627 192.613 67.5721C192.372 67.9919 192.257 68.5902 192.246 69.3668C192.246 69.8916 192.299 70.3325 192.414 70.6893C192.519 71.0462 192.676 71.3191 192.875 71.508C193.074 71.6969 193.315 71.7809 193.598 71.7809L193.619 71.7914Z" fill="#130C49"/>
<path d="M196.992 72.5051V71.8229L199.108 69.6292C199.339 69.3878 199.517 69.1779 199.663 68.9995C199.81 68.8211 199.925 68.6531 199.999 68.4852C200.072 68.3173 200.103 68.1493 200.103 67.9604C200.103 67.7505 200.051 67.5721 199.957 67.4251C199.862 67.2782 199.726 67.1522 199.559 67.0788C199.391 67.0053 199.202 66.9528 198.993 66.9528C198.773 66.9528 198.574 66.9948 198.406 67.0893C198.238 67.1837 198.113 67.3097 198.018 67.4776C197.924 67.6455 197.882 67.845 197.882 68.0654H196.981C196.981 67.6875 197.065 67.3517 197.243 67.0683C197.421 66.7849 197.662 66.5645 197.966 66.4071C198.27 66.2496 198.616 66.1656 199.003 66.1656C199.391 66.1656 199.747 66.2391 200.041 66.3966C200.344 66.554 200.575 66.7639 200.743 67.0368C200.91 67.3097 200.994 67.6036 200.994 67.9394C200.994 68.1703 200.952 68.4012 200.868 68.6216C200.785 68.8421 200.627 69.094 200.418 69.3668C200.208 69.6397 199.904 69.9651 199.527 70.3534L198.28 71.6549V71.6969H201.099V72.5051H196.981H196.992Z" fill="#130C49"/>
<path d="M203.466 71.6448L203.424 71.9806C203.393 72.222 203.34 72.4844 203.267 72.7468C203.194 73.0092 203.12 73.2611 203.047 73.492C202.974 73.7229 202.911 73.9014 202.858 74.0378H202.209C202.23 73.9119 202.272 73.7439 202.314 73.5235C202.356 73.3031 202.408 73.0722 202.45 72.7993C202.492 72.5369 202.523 72.264 202.555 71.9911L202.586 71.6448H203.466Z" fill="#130C49"/>
<path d="M206.696 72.61C206.214 72.61 205.805 72.4841 205.459 72.2322C205.114 71.9803 204.852 71.6129 204.674 71.1301C204.495 70.6473 204.401 70.0596 204.401 69.3878C204.401 68.7161 204.495 68.1283 204.674 67.6455C204.852 67.1627 205.114 66.7954 205.459 66.5435C205.805 66.2916 206.214 66.1656 206.696 66.1656C207.178 66.1656 207.586 66.2916 207.922 66.5435C208.267 66.7954 208.529 67.1627 208.707 67.6455C208.886 68.1283 208.98 68.7056 208.98 69.3878C208.98 70.0701 208.886 70.6578 208.707 71.1406C208.529 71.6234 208.267 71.9908 207.922 72.2427C207.576 72.4946 207.167 72.6205 206.685 72.6205L206.696 72.61ZM206.696 71.7914C207.115 71.7914 207.45 71.5814 207.691 71.1721C207.932 70.7628 208.047 70.1645 208.047 69.3773C208.047 68.8526 207.995 68.4117 207.88 68.0549C207.764 67.698 207.618 67.4251 207.408 67.2362C207.199 67.0473 206.968 66.9528 206.685 66.9528C206.266 66.9528 205.931 67.1627 205.69 67.5721C205.449 67.9919 205.334 68.5902 205.323 69.3668C205.323 69.8916 205.376 70.3325 205.491 70.6893C205.596 71.0462 205.753 71.3191 205.952 71.508C206.151 71.6969 206.392 71.7809 206.675 71.7809L206.696 71.7914Z" fill="#130C49"/>
<path d="M212.247 72.589C211.828 72.589 211.451 72.5156 211.126 72.3686C210.801 72.2217 210.539 72.0223 210.351 71.7599C210.162 71.4975 210.057 71.2036 210.047 70.8572H211.011C211.021 71.0462 211.084 71.2036 211.199 71.3401C211.315 71.4765 211.461 71.5814 211.64 71.6549C211.818 71.7284 212.027 71.7704 212.247 71.7704C212.488 71.7704 212.708 71.7284 212.897 71.6444C213.085 71.5605 213.232 71.4345 213.347 71.2876C213.452 71.1301 213.505 70.9517 213.505 70.7523C213.505 70.5529 213.452 70.3534 213.347 70.196C213.243 70.0386 213.085 69.9126 212.876 69.8182C212.666 69.7237 212.425 69.6817 212.132 69.6817H211.608V68.9155H212.132C212.362 68.9155 212.572 68.8736 212.74 68.7896C212.918 68.7056 213.054 68.5902 213.159 68.4432C213.264 68.2963 213.305 68.1179 213.305 67.9184C213.305 67.719 213.264 67.5616 213.18 67.4146C213.096 67.2677 212.97 67.1627 212.813 67.0788C212.656 66.9948 212.467 66.9528 212.258 66.9528C212.048 66.9528 211.86 66.9948 211.692 67.0683C211.514 67.1418 211.378 67.2467 211.262 67.3832C211.158 67.5196 211.095 67.6875 211.084 67.8765H210.173C210.173 67.5406 210.288 67.2362 210.476 66.9843C210.665 66.7324 210.917 66.5225 211.231 66.3861C211.545 66.2496 211.891 66.1656 212.279 66.1656C212.666 66.1656 213.023 66.2391 213.316 66.3966C213.609 66.554 213.829 66.7639 213.997 67.0158C214.154 67.2782 214.238 67.5616 214.238 67.866C214.238 68.2123 214.144 68.5167 213.945 68.7581C213.746 68.9995 213.484 69.1674 213.159 69.2514V69.3039C213.578 69.3668 213.892 69.5348 214.123 69.7972C214.353 70.0596 214.469 70.3954 214.469 70.7943C214.469 71.1406 214.374 71.445 214.186 71.7179C213.997 71.9908 213.735 72.2007 213.4 72.3581C213.064 72.5156 212.687 72.589 212.258 72.589H212.247Z" fill="#130C49"/>
<path d="M216.616 71.6448L216.574 71.9806C216.542 72.222 216.49 72.4844 216.417 72.7468C216.343 73.0092 216.27 73.2611 216.197 73.492C216.123 73.7229 216.06 73.9014 216.008 74.0378H215.358C215.379 73.9119 215.421 73.7439 215.463 73.5235C215.505 73.3031 215.557 73.0722 215.599 72.7993C215.641 72.5369 215.673 72.264 215.704 71.9911L215.736 71.6448H216.616Z" fill="#130C49"/>
<path d="M219.834 72.61C219.352 72.61 218.943 72.4841 218.598 72.2322C218.252 71.9803 217.99 71.6129 217.812 71.1301C217.634 70.6473 217.539 70.0596 217.539 69.3878C217.539 68.7161 217.634 68.1283 217.812 67.6455C217.99 67.1627 218.252 66.7954 218.598 66.5435C218.943 66.2916 219.352 66.1656 219.834 66.1656C220.316 66.1656 220.725 66.2916 221.06 66.5435C221.406 66.7954 221.668 67.1627 221.846 67.6455C222.024 68.1283 222.118 68.7056 222.118 69.3878C222.118 70.0701 222.024 70.6578 221.846 71.1406C221.668 71.6234 221.406 71.9908 221.06 72.2427C220.714 72.4946 220.306 72.6205 219.824 72.6205L219.834 72.61ZM219.834 71.7914C220.253 71.7914 220.588 71.5814 220.829 71.1721C221.07 70.7628 221.186 70.1645 221.186 69.3773C221.186 68.8526 221.133 68.4117 221.018 68.0549C220.903 67.698 220.756 67.4251 220.547 67.2362C220.337 67.0473 220.106 66.9528 219.824 66.9528C219.404 66.9528 219.069 67.1627 218.828 67.5721C218.587 67.9919 218.472 68.5902 218.461 69.3668C218.461 69.8916 218.514 70.3325 218.629 70.6893C218.734 71.0462 218.891 71.3191 219.09 71.508C219.289 71.6969 219.53 71.7809 219.813 71.7809L219.834 71.7914Z" fill="#130C49"/>
<path d="M223.081 71.2878V70.5216L225.784 66.2499H226.382V67.3729H226.004L224.066 70.4377V70.4902H227.775V71.2878H223.081ZM226.046 72.5053V70.7001V66.2394H226.937V72.5053H226.036H226.046Z" fill="#130C49"/>
<path d="M230.508 65.4729V73.2817H228.497V72.5575H229.628V66.2076H228.497V65.4834H230.508V65.4729Z" fill="#130C49"/>
<path d="M129.223 94.3571V98.8072L125.619 96.7081L122.004 98.8072V94.3571L117.719 96.8341V101.547L121.784 103.898L125.619 101.683L129.454 103.898L133.509 101.547V96.8445L129.223 94.3571Z" fill="#61D384"/>
</svg>
