<svg width="25" height="21" viewBox="0 0 25 21" fill="none" xmlns="http://www.w3.org/2000/svg">
<g id="Group">
<g id="Group_2">
<path id="Vector" d="M16.4497 4.54004H0.429688V20.44H16.4497V4.54004Z" fill="white"/>
<path id="Vector_2" d="M16.87 20.87H0V4.12H16.88V20.87H16.87ZM0.85 20.01H16.01V4.97H0.86V20.01H0.85Z" fill="#272361"/>
</g>
<path id="Vector_3" d="M7.12914 15.03L8.26914 16.17C8.51914 16.41 8.63914 16.62 8.63914 16.8C8.63914 16.98 8.51914 17.18 8.26914 17.42C8.01914 17.66 7.80914 17.78 7.63914 17.78C7.46914 17.78 7.25914 17.66 7.00914 17.41L5.87914 16.28L4.73914 17.41C4.48914 17.65 4.28914 17.78 4.11914 17.78C3.94914 17.78 3.73914 17.66 3.48914 17.42C3.23914 17.18 3.11914 16.97 3.11914 16.8C3.11914 16.63 3.23914 16.42 3.48914 16.17L4.62914 15.03L3.48914 13.89C3.23914 13.65 3.11914 13.44 3.11914 13.26C3.11914 13.08 3.23914 12.88 3.48914 12.63C3.73914 12.39 3.94914 12.26 4.11914 12.26C4.28914 12.26 4.49914 12.38 4.73914 12.63L5.87914 13.77L7.00914 12.63C7.25914 12.39 7.45914 12.26 7.63914 12.26C7.81914 12.26 8.01914 12.38 8.26914 12.63C8.51914 12.88 8.63914 13.08 8.63914 13.26C8.63914 13.44 8.51914 13.64 8.26914 13.89L7.12914 15.03Z" fill="#272361"/>
<g id="Group_3">
<path id="Vector_4" d="M15.3196 12.35C11.8896 12.35 9.09961 9.58 9.09961 6.18C9.09961 2.78 11.8896 0 15.3196 0C18.7496 0 21.5396 2.77 21.5396 6.17C21.5396 9.57 18.7496 12.34 15.3196 12.34V12.35ZM15.3196 1C12.4396 1 10.0996 3.32 10.0996 6.17C10.0996 9.02 12.4396 11.34 15.3196 11.34C18.1996 11.34 20.5396 9.02 20.5396 6.17C20.5396 3.32 18.1996 1 15.3196 1Z" fill="#272361"/>
<path id="Vector_5" d="M20.1429 9.25827L19.5215 10.0417L23.9168 13.5279L24.5382 12.7444L20.1429 9.25827Z" fill="#272361"/>
</g>
</g>
</svg>
