<svg width="31" height="29" viewBox="0 0 31 29" fill="none" xmlns="http://www.w3.org/2000/svg">
<g id="Group">
<g id="Group_2">
<path id="Vector" d="M16.1397 12.51H0.429688V28.1H16.1397V12.51Z" fill="white"/>
<path id="Vector_2" d="M16.57 28.53H0V12.08H16.57V28.53ZM0.86 27.67H15.71V12.93H0.86V27.67Z" fill="#272361"/>
</g>
<g id="Group_3">
<g id="Group_4">
<path id="Vector_3" d="M16.6401 16.39C18.3301 16.39 19.7001 15.02 19.7001 13.33C19.7001 11.64 18.3301 10.27 16.6401 10.27C14.9501 10.27 13.5801 11.64 13.5801 13.33C13.5801 15.02 14.9501 16.39 16.6401 16.39Z" fill="white"/>
<path id="Vector_4" d="M16.6401 16.89C14.6801 16.89 13.0801 15.29 13.0801 13.33C13.0801 11.37 14.6801 9.77002 16.6401 9.77002C18.6001 9.77002 20.2001 11.37 20.2001 13.33C20.2001 15.29 18.6001 16.89 16.6401 16.89ZM16.6401 10.78C15.2301 10.78 14.0801 11.93 14.0801 13.34C14.0801 14.75 15.2301 15.9 16.6401 15.9C18.0501 15.9 19.2001 14.75 19.2001 13.34C19.2001 11.93 18.0501 10.78 16.6401 10.78Z" fill="#272361"/>
</g>
<path id="Vector_5" d="M16.6401 7.12C14.6801 7.12 13.0801 5.52 13.0801 3.56C13.0801 1.6 14.6801 0 16.6401 0C18.6001 0 20.2001 1.6 20.2001 3.56C20.2001 5.52 18.6001 7.12 16.6401 7.12ZM16.6401 1.01C15.2301 1.01 14.0801 2.16 14.0801 3.57C14.0801 4.98 15.2301 6.13 16.6401 6.13C18.0501 6.13 19.2001 4.98 19.2001 3.57C19.2001 2.16 18.0501 1.01 16.6401 1.01Z" fill="#272361"/>
<path id="Vector_6" d="M26.5698 16.89C24.6098 16.89 23.0098 15.29 23.0098 13.33C23.0098 11.37 24.6098 9.77002 26.5698 9.77002C28.5298 9.77002 30.1298 11.37 30.1298 13.33C30.1298 15.29 28.5298 16.89 26.5698 16.89ZM26.5698 10.78C25.1598 10.78 24.0098 11.93 24.0098 13.34C24.0098 14.75 25.1598 15.9 26.5698 15.9C27.9798 15.9 29.1298 14.75 29.1298 13.34C29.1298 11.93 27.9798 10.78 26.5698 10.78Z" fill="#272361"/>
<g id="Group_5">
<path id="Vector_7" d="M10.1694 24.53C11.8594 24.53 13.2294 23.16 13.2294 21.47C13.2294 19.78 11.8594 18.41 10.1694 18.41C8.47938 18.41 7.10938 19.78 7.10938 21.47C7.10938 23.16 8.47938 24.53 10.1694 24.53Z" fill="white"/>
<path id="Vector_8" d="M10.1694 25.03C8.20938 25.03 6.60938 23.43 6.60938 21.47C6.60938 19.51 8.20938 17.91 10.1694 17.91C12.1294 17.91 13.7294 19.51 13.7294 21.47C13.7294 23.43 12.1294 25.03 10.1694 25.03ZM10.1694 18.92C8.75938 18.92 7.60938 20.07 7.60938 21.48C7.60938 22.89 8.75938 24.04 10.1694 24.04C11.5794 24.04 12.7294 22.89 12.7294 21.48C12.7294 20.07 11.5794 18.92 10.1694 18.92Z" fill="#272361"/>
</g>
<path id="Vector_9" d="M20.8491 26.05C18.8891 26.05 17.2891 24.45 17.2891 22.49C17.2891 20.53 18.8891 18.93 20.8491 18.93C22.8091 18.93 24.4091 20.53 24.4091 22.49C24.4091 24.45 22.8091 26.05 20.8491 26.05ZM20.8491 19.93C19.4391 19.93 18.2891 21.08 18.2891 22.49C18.2891 23.9 19.4391 25.05 20.8491 25.05C22.2591 25.05 23.4091 23.9 23.4091 22.49C23.4091 21.08 22.2591 19.93 20.8491 19.93Z" fill="#272361"/>
<path id="Vector_10" d="M23.5095 12.83H19.6895V13.83H23.5095V12.83Z" fill="#272361"/>
<path id="Vector_11" d="M18.4844 15.9398L17.5703 16.3454L19.1198 19.837L20.0338 19.4314L18.4844 15.9398Z" fill="#272361"/>
<path id="Vector_12" d="M17.1387 6.45001H16.1387V10.27H17.1387V6.45001Z" fill="#272361"/>
<path id="Vector_13" d="M14.005 15.4504L11.7285 18.518L12.5315 19.1139L14.808 16.0464L14.005 15.4504Z" fill="#272361"/>
</g>
</g>
</svg>
