<svg width="231" height="96" viewBox="0 0 231 96" fill="none" xmlns="http://www.w3.org/2000/svg">
<g id="Layer_1" clip-path="url(#clip0_44_8079)">
<path id="Vector" d="M219.838 29.9467C225.86 29.9467 230.743 25.0643 230.743 19.0417C230.743 13.019 225.86 8.13672 219.838 8.13672C213.815 8.13672 208.933 13.019 208.933 19.0417C208.933 25.0643 213.815 29.9467 219.838 29.9467Z" fill="#131144"/>
<path id="Vector_2" d="M68.8757 22.0443C74.8983 22.0443 79.7807 17.162 79.7807 11.1394C79.7807 5.1167 74.8983 0.234375 68.8757 0.234375C62.853 0.234375 57.9707 5.1167 57.9707 11.1394C57.9707 17.162 62.853 22.0443 68.8757 22.0443Z" fill="#131144"/>
<path id="Vector_3" d="M198.186 69.4413C204.209 69.4413 209.091 64.559 209.091 58.5363C209.091 52.5137 204.209 47.6313 198.186 47.6313C192.164 47.6313 187.281 52.5137 187.281 58.5363C187.281 64.559 192.164 69.4413 198.186 69.4413Z" fill="#131144"/>
<path id="Vector_4" d="M10.905 44.5341C16.9276 44.5341 21.8099 39.6517 21.8099 33.6291C21.8099 27.6064 16.9276 22.7241 10.905 22.7241C4.88232 22.7241 0 27.6064 0 33.6291C0 39.6517 4.88232 44.5341 10.905 44.5341Z" fill="#131144"/>
<path id="Vector_5" d="M113.333 66.3436C119.355 66.3436 124.238 61.4613 124.238 55.4387C124.238 49.416 119.355 44.5337 113.333 44.5337C107.31 44.5337 102.428 49.416 102.428 55.4387C102.428 61.4613 107.31 66.3436 113.333 66.3436Z" fill="#61BD73"/>
<path id="Vector_6" d="M113.333 67.134C106.885 67.134 101.638 61.887 101.638 55.4388C101.638 48.9907 106.885 43.7437 113.333 43.7437C119.781 43.7437 125.028 48.9907 125.028 55.4388C125.028 61.887 119.781 67.134 113.333 67.134ZM113.333 45.3241C107.754 45.3241 103.218 49.8599 103.218 55.4388C103.218 61.0178 107.754 65.5536 113.333 65.5536C118.912 65.5536 123.448 61.0178 123.448 55.4388C123.448 49.8599 118.912 45.3241 113.333 45.3241Z" fill="#131144"/>
<path id="Vector_7" d="M152.496 57.4462C158.518 57.4462 163.401 52.5639 163.401 46.5412C163.401 40.5186 158.518 35.6362 152.496 35.6362C146.473 35.6362 141.591 40.5186 141.591 46.5412C141.591 52.5639 146.473 57.4462 152.496 57.4462Z" fill="#A590DD"/>
<path id="Vector_8" d="M152.496 58.2361C146.048 58.2361 140.801 52.9891 140.801 46.5409C140.801 40.0927 146.048 34.8457 152.496 34.8457C158.944 34.8457 164.191 40.0927 164.191 46.5409C164.191 52.9891 158.944 58.2361 152.496 58.2361ZM152.496 36.4261C146.917 36.4261 142.381 40.962 142.381 46.5409C142.381 52.1198 146.917 56.6557 152.496 56.6557C158.075 56.6557 162.611 52.1198 162.611 46.5409C162.611 40.962 158.075 36.4261 152.496 36.4261Z" fill="#131144"/>
<path id="Vector_9" d="M143.74 23.83C149.763 23.83 154.645 18.9476 154.645 12.925C154.645 6.90234 149.763 2.02002 143.74 2.02002C137.717 2.02002 132.835 6.90234 132.835 12.925C132.835 18.9476 137.717 23.83 143.74 23.83Z" fill="#A590DD"/>
<path id="Vector_10" d="M143.74 24.6204C137.292 24.6204 132.045 19.3733 132.045 12.9252C132.045 6.47701 137.292 1.22998 143.74 1.22998C150.188 1.22998 155.435 6.47701 155.435 12.9252C155.435 19.3733 150.188 24.6204 143.74 24.6204ZM143.74 2.81041C138.161 2.81041 133.625 7.34625 133.625 12.9252C133.625 18.5041 138.161 23.0399 143.74 23.0399C149.319 23.0399 153.855 18.5041 153.855 12.9252C153.855 7.34625 149.319 2.81041 143.74 2.81041Z" fill="#131144"/>
<path id="Vector_11" d="M106.442 27.5126C112.465 27.5126 117.347 22.6303 117.347 16.6076C117.347 10.585 112.465 5.70264 106.442 5.70264C100.419 5.70264 95.5371 10.585 95.5371 16.6076C95.5371 22.6303 100.419 27.5126 106.442 27.5126Z" fill="#A590DD"/>
<path id="Vector_12" d="M106.442 28.303C99.9941 28.303 94.7471 23.0559 94.7471 16.6078C94.7471 10.1596 99.9941 4.9126 106.442 4.9126C112.89 4.9126 118.137 10.1596 118.137 16.6078C118.137 23.0559 112.89 28.303 106.442 28.303ZM106.442 6.49303C100.863 6.49303 96.3275 11.0289 96.3275 16.6078C96.3275 22.1867 100.863 26.7225 106.442 26.7225C112.021 26.7225 116.557 22.1867 116.557 16.6078C116.557 11.0289 112.021 6.49303 106.442 6.49303Z" fill="#131144"/>
<path id="Vector_13" d="M83.8894 51.4559C89.912 51.4559 94.7943 46.5736 94.7943 40.551C94.7943 34.5283 89.912 29.646 83.8894 29.646C77.8667 29.646 72.9844 34.5283 72.9844 40.551C72.9844 46.5736 77.8667 51.4559 83.8894 51.4559Z" fill="#A590DD"/>
<path id="Vector_14" d="M83.8895 52.2463C77.4414 52.2463 72.1943 46.9993 72.1943 40.5511C72.1943 34.103 77.4414 28.856 83.8895 28.856C90.3377 28.856 95.5847 34.103 95.5847 40.5511C95.5847 46.9993 90.3377 52.2463 83.8895 52.2463ZM83.8895 30.4364C78.3106 30.4364 73.7748 34.9722 73.7748 40.5511C73.7748 46.1301 78.3106 50.6659 83.8895 50.6659C89.4685 50.6659 94.0043 46.1301 94.0043 40.5511C94.0043 34.9722 89.4685 30.4364 83.8895 30.4364Z" fill="#131144"/>
<path id="Vector_15" d="M46.5749 70.8007C52.5975 70.8007 57.4799 65.9184 57.4799 59.8957C57.4799 53.873 52.5975 48.9907 46.5749 48.9907C40.5522 48.9907 35.6699 53.873 35.6699 59.8957C35.6699 65.9184 40.5522 70.8007 46.5749 70.8007Z" fill="#A590DD"/>
<path id="Vector_16" d="M46.5751 71.5911C40.1269 71.5911 34.8799 66.344 34.8799 59.8959C34.8799 53.4477 40.1269 48.2007 46.5751 48.2007C53.0232 48.2007 58.2703 53.4477 58.2703 59.8959C58.2703 66.344 53.0232 71.5911 46.5751 71.5911ZM46.5751 49.7811C40.9962 49.7811 36.4603 54.317 36.4603 59.8959C36.4603 65.4748 40.9962 70.0106 46.5751 70.0106C52.154 70.0106 56.6898 65.4748 56.6898 59.8959C56.6898 54.317 52.154 49.7811 46.5751 49.7811Z" fill="#131144"/>
<path id="Vector_17" d="M89.863 94.744C95.8856 94.744 100.768 89.8617 100.768 83.8391C100.768 77.8164 95.8856 72.9341 89.863 72.9341C83.8403 72.9341 78.958 77.8164 78.958 83.8391C78.958 89.8617 83.8403 94.744 89.863 94.744Z" fill="#A590DD"/>
<path id="Vector_18" d="M89.8632 95.5344C83.415 95.5344 78.168 90.2874 78.168 83.8392C78.168 77.3911 83.415 72.144 89.8632 72.144C96.3113 72.144 101.558 77.3911 101.558 83.8392C101.558 90.2874 96.3113 95.5344 89.8632 95.5344ZM89.8632 73.7245C84.2842 73.7245 79.7484 78.2603 79.7484 83.8392C79.7484 89.4182 84.2842 93.954 89.8632 93.954C95.4421 93.954 99.9779 89.4182 99.9779 83.8392C99.9779 78.2603 95.4421 73.7245 89.8632 73.7245Z" fill="#131144"/>
<path id="Vector_19" d="M145.099 91.6308C151.122 91.6308 156.004 86.7484 156.004 80.7258C156.004 74.7031 151.122 69.8208 145.099 69.8208C139.077 69.8208 134.194 74.7031 134.194 80.7258C134.194 86.7484 139.077 91.6308 145.099 91.6308Z" fill="#A590DD"/>
<path id="Vector_20" d="M145.115 92.4211C138.667 92.4211 133.42 87.1741 133.42 80.726C133.42 74.2778 138.667 69.0308 145.115 69.0308C151.563 69.0308 156.81 74.2778 156.81 80.726C156.81 87.1741 151.563 92.4211 145.115 92.4211ZM145.115 70.627C139.536 70.627 135 75.1628 135 80.7418C135 86.3207 139.536 90.8565 145.115 90.8565C150.694 90.8565 155.23 86.3207 155.23 80.7418C155.23 75.1628 150.694 70.627 145.115 70.627Z" fill="#131144"/>
<path id="Vector_21" d="M109.626 28.4806L108.052 28.6211L109.475 44.5675L111.049 44.427L109.626 28.4806Z" fill="#131144"/>
<path id="Vector_22" d="M104.672 32.6176L105.541 33.2972L108.876 28.9826L112.938 32.6334L113.68 31.8116L108.734 27.3706L104.672 32.6176Z" fill="#131144"/>
<path id="Vector_23" d="M139.84 47.8023L123.792 50.9683L124.098 52.5188L140.146 49.3528L139.84 47.8023Z" fill="#131144"/>
<path id="Vector_24" d="M135.522 44.8657L134.938 45.814L139.584 48.6746L136.376 53.0998L137.277 53.7477L141.18 48.3585L135.522 44.8657Z" fill="#131144"/>
<path id="Vector_25" d="M105.014 62.6897L95.7676 73.1631L96.9523 74.2091L106.199 63.7357L105.014 62.6897Z" fill="#131144"/>
<path id="Vector_26" d="M102.19 73.93L102.08 72.8237L96.6589 73.3768L96.5008 67.9243L95.3945 67.9559L95.5842 74.5937L102.19 73.93Z" fill="#131144"/>
<path id="Vector_27" d="M95.6213 45.05L94.9111 46.4619L103.425 50.7439L104.135 49.332L95.6213 45.05Z" fill="#131144"/>
<path id="Vector_28" d="M96.5008 51.4561L97.5439 51.061L95.6474 45.9562L100.879 44.4231L100.563 43.3643L94.1934 45.2292L96.5008 51.4561Z" fill="#131144"/>
<path id="Vector_29" d="M121.723 62.6528L120.801 63.9365L134.858 74.0302L135.78 72.7465L121.723 62.6528Z" fill="#131144"/>
<path id="Vector_30" d="M134.984 67.5767L133.909 67.7979L134.984 73.1398L129.579 73.8352L129.721 74.9257L136.312 74.088L134.984 67.5767Z" fill="#131144"/>
<path id="Vector_31" d="M135.476 21.9064L117.493 45.04L118.741 46.01L136.724 22.8763L135.476 21.9064Z" fill="#131144"/>
<path id="Vector_32" d="M130.275 22.4866L130.449 23.5929L135.839 22.7079L136.313 28.1446L137.419 28.0497L136.834 21.4277L130.275 22.4866Z" fill="#131144"/>
</g>
<defs>
<clipPath id="clip0_44_8079">
<rect width="230.743" height="95.3" fill="white" transform="translate(0 0.234375)"/>
</clipPath>
</defs>
</svg>
