<svg width="40" height="41" viewBox="0 0 40 41" fill="none" xmlns="http://www.w3.org/2000/svg">
<path d="M21.1394 40.2348C31.3624 40.2348 39.6499 32.0057 39.6499 21.8547C39.6499 11.7037 31.3624 3.47461 21.1394 3.47461C10.9163 3.47461 2.62891 11.7037 2.62891 21.8547C2.62891 32.0057 10.9163 40.2348 21.1394 40.2348Z" fill="white"/>
<path d="M29.6112 4.81219C29.3461 4.67534 29.0705 4.54902 28.7842 4.42269C27.1622 3.69633 25.4553 3.21209 23.7061 2.96997C23.4092 2.92787 23.1018 2.88576 22.7943 2.8647C22.2748 2.81207 21.7448 2.79102 21.1617 2.79102C10.7933 2.79102 2.34375 11.3073 2.34375 21.7817C2.34375 22.2238 2.35435 22.6449 2.38616 23.0344C2.40736 23.3396 2.43916 23.6449 2.47097 23.9502C2.683 25.7924 3.16008 27.5925 3.89159 29.2979C4.01881 29.6032 4.14603 29.8874 4.27325 30.1506C7.42194 36.6036 14.0586 40.7723 21.1723 40.7723C24.745 40.7723 28.2224 39.7512 31.2332 37.8353C31.5089 37.6563 31.7527 37.4984 31.9859 37.33C33.6716 36.1404 35.1452 34.6772 36.3644 33.0034C36.5234 32.7929 36.6825 32.5613 36.8839 32.256C38.9194 29.1611 40.0008 25.5398 40.0008 21.8027C40.0008 14.5917 36.0252 8.08608 29.6112 4.83325V4.81219ZM31.6043 13.2338C31.6043 10.7599 31.1378 8.35978 30.2261 6.09648C35.7495 9.34931 39.1739 15.3181 39.1739 21.7817C39.1739 24.9608 38.3469 28.0768 36.7779 30.8138C36.1736 26.3504 34.0109 22.2554 30.6501 19.2341C31.2862 17.2972 31.6043 15.276 31.6043 13.2338ZM15.0975 15.5076C16.0941 15.3392 17.1118 15.2549 18.1084 15.2549C22.3278 15.2549 26.4201 16.7603 29.6642 19.4973C27.8301 24.5081 23.7803 28.561 18.7869 30.3506C16.2001 27.1294 14.7795 23.087 14.7795 18.9394C14.7795 17.7814 14.8855 16.6234 15.0975 15.5181V15.5076ZM29.9504 18.6446C26.6109 15.9181 22.4127 14.4128 18.119 14.4128C17.1648 14.4128 16.2213 14.4865 15.2884 14.6233C16.3803 10.1178 19.1049 6.25439 22.9639 3.71739C25.0737 3.92793 27.1092 4.50691 29.0281 5.45434C30.1837 7.88607 30.7668 10.4968 30.7668 13.2338C30.7668 15.0865 30.4911 16.9077 29.9504 18.6446ZM14.3978 14.7812C9.93453 15.6865 5.96951 18.192 3.18128 21.8553V21.7817C3.18128 11.7705 11.2491 3.63317 21.1723 3.63317C21.3313 3.63317 21.4903 3.63317 21.6281 3.63317C17.9494 6.35966 15.3838 10.3073 14.3978 14.7812ZM14.2282 15.676C14.048 16.7287 13.9525 17.8235 13.9525 18.9288C13.9525 23.1502 15.3732 27.2978 17.96 30.6138C16.2955 31.1191 14.5568 31.3822 12.7864 31.3822C10.0193 31.3822 7.37953 30.7717 4.93055 29.5611C3.987 27.561 3.41452 25.424 3.24489 23.2133C5.85289 19.3499 9.7437 16.6761 14.2388 15.676H14.2282ZM12.7758 32.2244C14.7265 32.2244 16.6666 31.9191 18.5219 31.3191C21.4373 34.7403 25.4341 36.9826 29.8232 37.6879C27.1834 39.1617 24.2043 39.9301 21.1723 39.9301C14.7053 39.9301 8.75774 36.4352 5.54545 30.7717C7.8354 31.7402 10.2632 32.2349 12.7758 32.2349V32.2244ZM19.37 31.0243C24.4058 29.1189 28.392 25.1503 30.3427 20.0868C33.6822 23.2028 35.7071 27.4136 36.057 31.9718C34.7106 33.9719 33.0037 35.6667 30.9788 36.9931C26.4943 36.5405 22.3915 34.4245 19.37 31.0243Z" fill="#130C49"/>
<path d="M29.4182 7.88542C30.9933 7.88542 32.2701 6.59875 32.2701 5.01156C32.2701 3.42437 30.9933 2.1377 29.4182 2.1377C27.8432 2.1377 26.5664 3.42437 26.5664 5.01156C26.5664 6.59875 27.8432 7.88542 29.4182 7.88542Z" fill="#61BD73"/>
<path d="M22.6448 6.05436C24.2198 6.05436 25.4967 4.76769 25.4967 3.1805C25.4967 1.59331 24.2198 0.306641 22.6448 0.306641C21.0698 0.306641 19.793 1.59331 19.793 3.1805C19.793 4.76769 21.0698 6.05436 22.6448 6.05436Z" fill="#61BD73"/>
<path d="M14.7386 18.0231C16.3136 18.0231 17.5904 16.7364 17.5904 15.1493C17.5904 13.5621 16.3136 12.2754 14.7386 12.2754C13.1635 12.2754 11.8867 13.5621 11.8867 15.1493C11.8867 16.7364 13.1635 18.0231 14.7386 18.0231Z" fill="#61BD73"/>
<path d="M30.2386 22.2448C31.8136 22.2448 33.0904 20.9581 33.0904 19.3709C33.0904 17.7837 31.8136 16.4971 30.2386 16.4971C28.6635 16.4971 27.3867 17.7837 27.3867 19.3709C27.3867 20.9581 28.6635 22.2448 30.2386 22.2448Z" fill="#61BD73"/>
<path d="M18.8831 33.5505C20.4581 33.5505 21.7349 32.2638 21.7349 30.6766C21.7349 29.0894 20.4581 27.8027 18.8831 27.8027C17.3081 27.8027 16.0312 29.0894 16.0312 30.6766C16.0312 32.2638 17.3081 33.5505 18.8831 33.5505Z" fill="#61BD73"/>
<path d="M2.85184 25.8971C4.42687 25.8971 5.70368 24.6105 5.70368 23.0233C5.70368 21.4361 4.42687 20.1494 2.85184 20.1494C1.27681 20.1494 0 21.4361 0 23.0233C0 24.6105 1.27681 25.8971 2.85184 25.8971Z" fill="#61BD73"/>
<path d="M4.65262 32.7087C6.22765 32.7087 7.50447 31.422 7.50447 29.8348C7.50447 28.2476 6.22765 26.9609 4.65262 26.9609C3.07759 26.9609 1.80078 28.2476 1.80078 29.8348C1.80078 31.422 3.07759 32.7087 4.65262 32.7087Z" fill="#61BD73"/>
<path d="M31.6565 40.0251C33.2316 40.0251 34.5084 38.7384 34.5084 37.1512C34.5084 35.564 33.2316 34.2773 31.6565 34.2773C30.0815 34.2773 28.8047 35.564 28.8047 37.1512C28.8047 38.7384 30.0815 40.0251 31.6565 40.0251Z" fill="#61BD73"/>
<path d="M36.6292 35.0456C38.2042 35.0456 39.481 33.7589 39.481 32.1717C39.481 30.5845 38.2042 29.2979 36.6292 29.2979C35.0542 29.2979 33.7773 30.5845 33.7773 32.1717C33.7773 33.7589 35.0542 35.0456 36.6292 35.0456Z" fill="#61BD73"/>
</svg>
