<svg width="37" height="38" viewBox="0 0 37 38" fill="none" xmlns="http://www.w3.org/2000/svg">
<g id="Group 2874">
<path id="Vector" d="M24.91 13.0801H0V37.9901H24.91V13.0801Z" fill="#61BD73"/>
<g id="Group 2873">
<path id="Vector_2" d="M36.8178 27.1302H20.0078V18.4102H36.8178V27.1302ZM20.7678 26.3702H36.0578V19.1602H20.7678V26.3702Z" fill="#130C49"/>
<path id="Vector_3" d="M25.0712 8.72H10.0312V0H25.0712V8.72ZM10.7913 7.96H24.3212V0.76H10.7913V7.97V7.96Z" fill="#130C49"/>
<path id="Vector_4" d="M18.7591 27.1101H10.0391V9.37012H18.7591V27.1101ZM10.7891 26.3501H17.9991V10.1301H10.7891V26.3501Z" fill="#130C49"/>
<path id="Vector_5" d="M28.7278 17.6795H20.0078V9.43945H28.7278V17.6795ZM20.7678 16.9295H27.9778V10.2095H20.7678V16.9295Z" fill="#130C49"/>
<path id="Vector_6" d="M34.1814 17.6797H29.4414V13.1797H34.1814V17.6797ZM30.1914 16.9297H33.4114V13.9497H30.1914V16.9297Z" fill="#130C49"/>
</g>
</g>
</svg>
