<svg width="131" height="148" viewBox="0 0 131 148" fill="none" xmlns="http://www.w3.org/2000/svg">
<g id="Isolation_Mode" clip-path="url(#clip0_4112_1222)">
<path id="Vector" d="M65.5 148C63.6124 148 61.7248 147.516 60.0377 146.536L5.46227 115.011C2.08817 113.063 0 109.439 0 105.542V42.4814C0 38.5851 2.09996 34.9603 5.46227 33.0122L60.0377 1.46404C63.4118 -0.484107 67.6 -0.484107 70.9741 1.46404L125.55 33.0004C128.924 34.9485 131.012 38.5733 131.012 42.4695V105.53C131.012 109.427 128.912 113.051 125.55 115L70.9741 146.536C69.287 147.504 67.3994 148 65.5118 148H65.5ZM65.5 1.18067C63.813 1.18067 62.1259 1.61753 60.6276 2.47944L6.05214 34.0158C3.04377 35.7514 1.17976 38.9865 1.17976 42.4695V105.53C1.17976 109.002 3.04377 112.249 6.05214 113.984L60.6276 145.521C63.636 147.256 67.3758 147.256 70.3842 145.521L124.96 113.984C127.968 112.249 129.832 109.013 129.832 105.53V42.4695C129.832 38.9983 127.968 35.7514 124.96 34.0158L70.3842 2.47944C68.8859 1.60572 67.1988 1.18067 65.5118 1.18067H65.5Z" fill="#1B1464"/>
<path id="Vector_2" d="M70.8335 110.737H60.0859V121.493H70.8335V110.737Z" fill="#61BD73"/>
<path id="Vector_3" d="M71.4234 122.084H59.4961V110.147H71.4234V122.084ZM60.6758 120.903H70.2437V111.328H60.6758V120.903Z" fill="#1B1464"/>
<path id="Vector_4" d="M81.3687 121.93H70.6211V132.686H81.3687V121.93Z" fill="#F3F3F3"/>
<path id="Vector_5" d="M81.9586 133.277H70.0312V121.34H81.9586V133.277ZM71.211 132.096H80.7788V122.521H71.211V132.096Z" fill="#1B1464"/>
<path id="Vector_6" d="M115.556 42.1389H104.809V52.895H115.556V42.1389Z" fill="#61BD73"/>
<path id="Vector_7" d="M116.146 53.4854H104.219V41.5486H116.146V53.4854ZM105.399 52.3047H114.966V42.7293H105.399V52.3047Z" fill="#1B1464"/>
<path id="Vector_8" d="M103.333 66.6501H97.9531V72.0341H103.333V66.6501Z" fill="#1B1464"/>
<path id="Vector_9" d="M32.4539 74.5491H27.0742V79.933H32.4539V74.5491Z" fill="#1B1464"/>
<path id="Vector_10" d="M121.54 96.4863H116.16V101.87H121.54V96.4863Z" fill="#1B1464"/>
<path id="Vector_11" d="M19.0047 70.0269H13.625V75.4108H19.0047V70.0269Z" fill="#1B1464"/>
<path id="Vector_12" d="M19.0047 61.6204H13.625V67.0043H19.0047V61.6204Z" fill="#1B1464"/>
<path id="Vector_13" d="M19.0047 53.2256H13.625V58.6095H19.0047V53.2256Z" fill="#1B1464"/>
<path id="Vector_14" d="M19.0047 44.8191H13.625V50.2031H19.0047V44.8191Z" fill="#61BD73"/>
<path id="Vector_15" d="M19.5946 50.7934H13.0352V44.2288H19.5946V50.7934ZM14.2149 49.6127H18.4148V45.4095H14.2149V49.6127Z" fill="#1B1464"/>
<path id="Vector_16" d="M30.821 97.5345L20.5352 87.2405L10.2493 97.5345L20.5352 107.829L30.821 97.5345Z" fill="#61BD73"/>
<path id="Vector_17" d="M20.5392 108.671L9.41406 97.537L20.5392 86.4031L31.6642 97.537L20.5392 108.671ZM11.0893 97.537L20.5392 106.994L29.989 97.537L20.5392 88.0797L11.0893 97.537Z" fill="#1B1464"/>
<path id="Vector_18" d="M47.7919 43.6622V33.6145L39.0971 28.5847L30.4023 33.6145V43.6622L39.0971 48.6919L47.7919 43.6622Z" fill="#E7E7E7"/>
<path id="Vector_19" d="M39.0972 49.3767L29.8125 44.0046V33.2721L39.0972 27.8999L48.3818 33.2721V44.0046L39.0972 49.3767ZM30.9923 43.3316L39.0972 48.0189L47.2021 43.3316V33.9569L39.0972 29.2695L30.9923 33.9569V43.3316Z" fill="#1B1464"/>
<path id="Vector_20" d="M55.1653 25.7036C57.2047 25.7036 58.8579 24.0491 58.8579 22.0081C58.8579 19.9671 57.2047 18.3125 55.1653 18.3125C53.1259 18.3125 51.4727 19.9671 51.4727 22.0081C51.4727 24.0491 53.1259 25.7036 55.1653 25.7036Z" fill="#61BB73"/>
<path id="Vector_21" d="M55.1653 26.294C52.8058 26.294 50.8828 24.3695 50.8828 22.0081C50.8828 19.6467 52.8058 17.7222 55.1653 17.7222C57.5248 17.7222 59.4478 19.6467 59.4478 22.0081C59.4478 24.3695 57.5248 26.294 55.1653 26.294ZM55.1653 18.9147C53.4547 18.9147 52.0626 20.3079 52.0626 22.0199C52.0626 23.7319 53.4547 25.1251 55.1653 25.1251C56.876 25.1251 58.2681 23.7319 58.2681 22.0199C58.2681 20.3079 56.876 18.9147 55.1653 18.9147Z" fill="#1B1464"/>
<path id="Vector_22" d="M65.9465 25.7036C67.9859 25.7036 69.6392 24.0491 69.6392 22.0081C69.6392 19.9671 67.9859 18.3125 65.9465 18.3125C63.9072 18.3125 62.2539 19.9671 62.2539 22.0081C62.2539 24.0491 63.9072 25.7036 65.9465 25.7036Z" fill="#1B1464"/>
<path id="Vector_23" d="M76.72 25.7036C78.7594 25.7036 80.4126 24.0491 80.4126 22.0081C80.4126 19.9671 78.7594 18.3125 76.72 18.3125C74.6806 18.3125 73.0273 19.9671 73.0273 22.0081C73.0273 24.0491 74.6806 25.7036 76.72 25.7036Z" fill="#61BD73"/>
<path id="Vector_24" d="M76.72 26.294C74.3605 26.294 72.4375 24.3695 72.4375 22.0081C72.4375 19.6467 74.3605 17.7222 76.72 17.7222C79.0795 17.7222 81.0025 19.6467 81.0025 22.0081C81.0025 24.3695 79.0795 26.294 76.72 26.294ZM76.72 18.9147C75.0094 18.9147 73.6173 20.3079 73.6173 22.0199C73.6173 23.7319 75.0094 25.1251 76.72 25.1251C78.4307 25.1251 79.8228 23.7319 79.8228 22.0199C79.8228 20.3079 78.4307 18.9147 76.72 18.9147Z" fill="#1B1464"/>
<path id="Vector_25" d="M101.118 93.6526C103.158 93.6526 104.811 91.9981 104.811 89.9571C104.811 87.916 103.158 86.2615 101.118 86.2615C99.079 86.2615 97.4258 87.916 97.4258 89.9571C97.4258 91.9981 99.079 93.6526 101.118 93.6526Z" fill="#61BD73"/>
<path id="Vector_26" d="M101.118 94.2313C98.7589 94.2313 96.8359 92.3067 96.8359 89.9453C96.8359 87.584 98.7589 85.6594 101.118 85.6594C103.478 85.6594 105.401 87.584 105.401 89.9453C105.401 92.3067 103.478 94.2313 101.118 94.2313ZM101.118 86.8519C99.4078 86.8519 98.0157 88.2451 98.0157 89.9571C98.0157 91.6692 99.4078 93.0624 101.118 93.0624C102.829 93.0624 104.221 91.6692 104.221 89.9571C104.221 88.2451 102.829 86.8519 101.118 86.8519Z" fill="#1B1464"/>
<path id="Vector_27" d="M118.849 74.6553C120.888 74.6553 122.542 73.0007 122.542 70.9597C122.542 68.9187 120.888 67.2642 118.849 67.2642C116.809 67.2642 115.156 68.9187 115.156 70.9597C115.156 73.0007 116.809 74.6553 118.849 74.6553Z" fill="#61BD73"/>
<path id="Vector_28" d="M118.849 75.234C116.489 75.234 114.566 73.3094 114.566 70.948C114.566 68.5866 116.489 66.6621 118.849 66.6621C121.208 66.6621 123.131 68.5866 123.131 70.948C123.131 73.3094 121.208 75.234 118.849 75.234ZM118.849 67.8546C117.138 67.8546 115.746 69.2478 115.746 70.9598C115.746 72.6718 117.138 74.0651 118.849 74.0651C120.56 74.0651 121.952 72.6718 121.952 70.9598C121.952 69.2478 120.56 67.8546 118.849 67.8546Z" fill="#1B1464"/>
<path id="Vector_29" d="M45.0905 113.465L46.7775 115.165C47.1433 115.531 47.3202 115.838 47.3202 116.098C47.3202 116.357 47.1433 116.664 46.7775 117.03C46.4118 117.385 46.1051 117.574 45.8455 117.574C45.586 117.574 45.2793 117.396 44.9135 117.03L43.2383 115.342L41.5512 117.03C41.1855 117.396 40.8788 117.574 40.631 117.574C40.3833 117.574 40.0765 117.396 39.699 117.03C39.3333 116.676 39.1445 116.357 39.1445 116.098C39.1445 115.838 39.3215 115.531 39.6872 115.165L41.3743 113.465L39.6872 111.765C39.3215 111.399 39.1445 111.092 39.1445 110.832C39.1445 110.572 39.3333 110.265 39.699 109.899C40.0647 109.533 40.3715 109.356 40.631 109.356C40.8906 109.356 41.1855 109.533 41.5512 109.899L43.2383 111.599L44.9135 109.899C45.2793 109.533 45.586 109.356 45.8455 109.356C46.1051 109.356 46.4118 109.533 46.7775 109.899C47.1433 110.265 47.3202 110.572 47.3202 110.832C47.3202 111.092 47.1433 111.399 46.7775 111.765L45.0905 113.465Z" fill="#1B1464"/>
<path id="Vector_30" d="M98.2038 110.761L99.8908 112.461C100.257 112.827 100.434 113.134 100.434 113.394C100.434 113.654 100.257 113.961 99.8908 114.327C99.5251 114.681 99.2184 114.87 98.9588 114.87C98.6993 114.87 98.3925 114.693 98.0268 114.327L96.3516 112.638L94.6645 114.327C94.2988 114.693 93.9921 114.87 93.7443 114.87C93.4966 114.87 93.1898 114.693 92.8123 114.327C92.4466 113.972 92.2578 113.654 92.2578 113.394C92.2578 113.134 92.4348 112.827 92.8005 112.461L94.4875 110.761L92.8005 109.061C92.4348 108.695 92.2578 108.388 92.2578 108.128C92.2578 107.868 92.4466 107.561 92.8123 107.195C93.178 106.829 93.4848 106.652 93.7443 106.652C94.0039 106.652 94.2988 106.829 94.6645 107.195L96.3516 108.895L98.0268 107.195C98.3925 106.829 98.6993 106.652 98.9588 106.652C99.2184 106.652 99.5251 106.829 99.8908 107.195C100.257 107.561 100.434 107.868 100.434 108.128C100.434 108.388 100.257 108.695 99.8908 109.061L98.2038 110.761Z" fill="#1B1464"/>
<path id="Vector_31" d="M89.7428 39.872L91.4299 41.5722C91.7956 41.9382 91.9726 42.2452 91.9726 42.5049C91.9726 42.7647 91.7956 43.0717 91.4299 43.4377C91.0642 43.7919 90.7574 43.9808 90.4979 43.9808C90.2383 43.9808 89.9316 43.8037 89.5659 43.4377L87.8906 41.7493L86.2036 43.4377C85.8379 43.8037 85.5311 43.9808 85.2834 43.9808C85.0356 43.9808 84.7289 43.8037 84.3514 43.4377C83.9856 43.0835 83.7969 42.7647 83.7969 42.5049C83.7969 42.2452 83.9738 41.9382 84.3396 41.5722L86.0266 39.872L84.3396 38.1718C83.9738 37.8058 83.7969 37.4988 83.7969 37.2391C83.7969 36.9793 83.9856 36.6723 84.3514 36.3063C84.7171 35.9403 85.0238 35.7632 85.2834 35.7632C85.5429 35.7632 85.8379 35.9403 86.2036 36.3063L87.8906 38.0065L89.5659 36.3063C89.9316 35.9403 90.2383 35.7632 90.4979 35.7632C90.7574 35.7632 91.0642 35.9403 91.4299 36.3063C91.7956 36.6723 91.9726 36.9793 91.9726 37.2391C91.9726 37.4988 91.7956 37.8058 91.4299 38.1718L89.7428 39.872Z" fill="#1B1464"/>
<path id="Vector_32" d="M90.2733 85.0926V60.8057C90.2733 59.3299 89.4829 57.9602 88.2088 57.2282L67.1973 45.0789C65.9232 44.335 64.3423 44.335 63.0682 45.0789L42.0568 57.2282C40.7826 57.9721 39.9922 59.3299 39.9922 60.8057V85.0926C39.9922 86.5685 40.7826 87.9381 42.0568 88.6701L63.0682 100.819C64.3423 101.563 65.9232 101.563 67.1973 100.819L88.2088 88.6701C89.4829 87.9263 90.2733 86.5685 90.2733 85.0926Z" fill="#1B1464"/>
</g>
<defs>
<clipPath id="clip0_4112_1222">
<rect width="131" height="148" fill="white"/>
</clipPath>
</defs>
</svg>
