<svg width="131" height="148" viewBox="0 0 131 148" fill="none" xmlns="http://www.w3.org/2000/svg">
<g id="Isolation_Mode" clip-path="url(#clip0_4112_1222)">
<path id="Vector" d="M65.5 148C63.6124 148 61.7248 147.516 60.0377 146.536L5.46227 115.011C2.08817 113.063 0 109.439 0 105.542V42.4814C0 38.5851 2.09996 34.9603 5.46227 33.0122L60.0377 1.46404C63.4118 -0.484107 67.6 -0.484107 70.9741 1.46404L125.55 33.0004C128.924 34.9485 131.012 38.5733 131.012 42.4695V105.53C131.012 109.427 128.912 113.051 125.55 115L70.9741 146.536C69.287 147.504 67.3994 148 65.5118 148H65.5ZM65.5 1.18067C63.813 1.18067 62.1259 1.61753 60.6276 2.47944L6.05214 34.0158C3.04377 35.7514 1.17976 38.9865 1.17976 42.4695V105.53C1.17976 109.002 3.04377 112.249 6.05214 113.984L60.6276 145.521C63.636 147.256 67.3758 147.256 70.3842 145.521L124.96 113.984C127.968 112.249 129.832 109.013 129.832 105.53V42.4695C129.832 38.9983 127.968 35.7514 124.96 34.0158L70.3842 2.47944C68.8859 1.60572 67.1988 1.18067 65.5118 1.18067H65.5Z" fill="#1B1464"/>
<path id="Vector_2" d="M70.8335 110.737H60.0859V121.493H70.8335V110.737Z" fill="#61BD73"/>
<path id="Vector_3" d="M71.4234 122.084H59.4961V110.147H71.4234V122.084ZM60.6758 120.903H70.2437V111.328H60.6758V120.903Z" fill="#1B1464"/>
<path id="Vector_4" d="M81.3687 121.93H70.6211V132.686H81.3687V121.93Z" fill="#F3F3F3"/>
<path id="Vector_5" d="M81.9586 133.277H70.0312V121.34H81.9586V133.277ZM71.211 132.096H80.7788V122.521H71.211V132.096Z" fill="#1B1464"/>
<path id="Vector_6" d="M115.556 42.1389H104.809V52.895H115.556V42.1389Z" fill="#61BD73"/>
<path id="Vector_7" d="M116.146 53.4854H104.219V41.5486H116.146V53.4854ZM105.399 52.3047H114.966V42.7293H105.399V52.3047Z" fill="#1B1464"/>
<path id="Vector_8" d="M103.333 66.6501H97.9531V72.0341H103.333V66.6501Z" fill="#1B1464"/>
<path id="Vector_9" d="M32.4539 74.5491H27.0742V79.933H32.4539V74.5491Z" fill="#1B1464"/>
<path id="Vector_10" d="M121.54 96.4863H116.16V101.87H121.54V96.4863Z" fill="#1B1464"/>
<path id="Vector_11" d="M19.0047 70.0269H13.625V75.4108H19.0047V70.0269Z" fill="#1B1464"/>
<path id="Vector_12" d="M19.0047 61.6204H13.625V67.0043H19.0047V61.6204Z" fill="#1B1464"/>
<path id="Vector_13" d="M19.0047 53.2256H13.625V58.6095H19.0047V53.2256Z" fill="#1B1464"/>
<path id="Vector_14" d="M19.0047 44.8191H13.625V50.2031H19.0047V44.8191Z" fill="#61BD73"/>
<path id="Vector_15" d="M19.5946 50.7934H13.0352V44.2288H19.5946V50.7934ZM14.2149 49.6127H18.4148V45.4095H14.2149V49.6127Z" fill="#1B1464"/>
<path id="Vector_16" d="M30.821 97.5345L20.5352 87.2405L10.2493 97.5345L20.5352 107.829L30.821 97.5345Z" fill="#61BD73"/>
<path id="Vector_17" d="M20.5392 108.671L9.41406 97.537L20.5392 86.4031L31.6642 97.537L20.5392 108.671ZM11.0893 97.537L20.5392 106.994L29.989 97.537L20.5392 88.0797L11.0893 97.537Z" fill="#1B1464"/>
<path id="Vector_18" d="M47.7919 43.6622V33.6145L39.0971 28.5847L30.4023 33.6145V43.6622L39.0971 48.6919L47.7919 43.6622Z" fill="#E7E7E7"/>
<path id="Vector_19" d="M39.0972 49.3767L29.8125 44.0046V33.2721L39.0972 27.8999L48.3818 33.2721V44.0046L39.0972 49.3767ZM30.9923 43.3316L39.0972 48.0189L47.2021 43.3316V33.9569L39.0972 29.2695L30.9923 33.9569V43.3316Z" fill="#1B1464"/>
<path id="Vector_20" d="M55.1653 25.7036C57.2047 25.7036 58.8579 24.0491 58.8579 22.0081C58.8579 19.9671 57.2047 18.3125 55.1653 18.3125C53.1259 18.3125 51.4727 19.9671 51.4727 22.0081C51.4727 24.0491 53.1259 25.7036 55.1653 25.7036Z" fill="#61BB73"/>
<path id="Vector_21" d="M55.1653 26.294C52.8058 26.294 50.8828 24.3695 50.8828 22.0081C50.8828 19.6467 52.8058 17.7222 55.1653 17.7222C57.5248 17.7222 59.4478 19.6467 59.4478 22.0081C59.4478 24.3695 57.5248 26.294 55.1653 26.294ZM55.1653 18.9147C53.4547 18.9147 52.0626 20.3079 52.0626 22.0199C52.0626 23.7319 53.4547 25.1251 55.1653 25.1251C56.876 25.1251 58.2681 23.7319 58.2681 22.0199C58.2681 20.3079 56.876 18.9147 55.1653 18.9147Z" fill="#1B1464"/>
<path id="Vector_22" d="M65.9465 25.7036C67.9859 25.7036 69.6392 24.0491 69.6392 22.0081C69.6392 19.9671 67.9859 18.3125 65.9465 18.3125C63.9072 18.3125 62.2539 19.9671 62.2539 22.0081C62.2539 24.0491 63.9072 25.7036 65.9465 25.7036Z" fill="#1B1464"/>
<path id="Vector_23" d="M76.72 25.7036C78.7594 25.7036 80.4126 24.0491 80.4126 22.0081C80.4126 19.9671 78.7594 18.3125 76.72 18.3125C74.6806 18.3125 73.0273 19.9671 73.0273 22.0081C73.0273 24.0491 74.6806 25.7036 76.72 25.7036Z" fill="#61BD73"/>
<path id="Vector_24" d="M76.72 26.294C74.3605 26.294 72.4375 24.3695 72.4375 22.0081C72.4375 19.6467 74.3605 17.7222 76.72 17.7222C79.0795 17.7222 81.0025 19.6467 81.0025 22.0081C81.0025 24.3695 79.0795 26.294 76.72 26.294ZM76.72 18.9147C75.0094 18.9147 73.6173 20.3079 73.6173 22.0199C73.6173 23.7319 75.0094 25.1251 76.72 25.1251C78.4307 25.1251 79.8228 23.7319 79.8228 22.0199C79.8228 20.3079 78.4307 18.9147 76.72 18.9147Z" fill="#1B1464"/>
<path id="Vector_25" d="M101.118 93.6526C103.158 93.6526 104.811 91.9981 104.811 89.9571C104.811 87.916 103.158 86.2615 101.118 86.2615C99.079 86.2615 97.4258 87.916 97.4258 89.9571C97.4258 91.9981 99.079 93.6526 101.118 93.6526Z" fill="#61BD73"/>
<path id="Vector_26" d="M101.118 94.2313C98.7589 94.2313 96.8359 92.3067 96.8359 89.9453C96.8359 87.584 98.7589 85.6594 101.118 85.6594C103.478 85.6594 105.401 87.584 105.401 89.9453C105.401 92.3067 103.478 94.2313 101.118 94.2313ZM101.118 86.8519C99.4078 86.8519 98.0157 88.2451 98.0157 89.9571C98.0157 91.6692 99.4078 93.0624 101.118 93.0624C102.829 93.0624 104.221 91.6692 104.221 89.9571C104.221 88.2451 102.829 86.8519 101.118 86.8519Z" fill="#1B1464"/>
<path id="Vector_27" d="M118.849 74.6553C120.888 74.6553 122.542 73.0007 122.542 70.9597C122.542 68.9187 120.888 67.2642 118.849 67.2642C116.809 67.2642 115.156 68.9187 115.156 70.9597C115.156 73.0007 116.809 74.6553 118.849 74.6553Z" fill="#61BD73"/>
<path id="Vector_28" d="M118.849 75.234C116.489 75.234 114.566 73.3094 114.566 70.948C114.566 68.5866 116.489 66.6621 118.849 66.6621C121.208 66.6621 123.131 68.5866 123.131 70.948C123.131 73.3094 121.208 75.234 118.849 75.234ZM118.849 67.8546C117.138 67.8546 115.746 69.2478 115.746 70.9598C115.746 72.6718 117.138 74.0651 118.849 74.0651C120.56 74.0651 121.952 72.6718 121.952 70.9598C121.952 69.2478 120.56 67.8546 118.849 67.8546Z" fill="#1B1464"/>
<path id="Vector_29" d="M45.0905 113.465L46.7775 115.165C47.1433 115.531 47.3202 115.838 47.3202 116.098C47.3202 116.357 47.1433 116.664 46.7775 117.03C46.4118 117.385 46.1051 117.574 45.8455 117.574C45.586 117.574 45.2793 117.396 44.9135 117.03L43.2383 115.342L41.5512 117.03C41.1855 117.396 40.8788 117.574 40.631 117.574C40.3833 117.574 40.0765 117.396 39.699 117.03C39.3333 116.676 39.1445 116.357 39.1445 116.098C39.1445 115.838 39.3215 115.531 39.6872 115.165L41.3743 113.465L39.6872 111.765C39.3215 111.399 39.1445 111.092 39.1445 110.832C39.1445 110.572 39.3333 110.265 39.699 109.899C40.0647 109.533 40.3715 109.356 40.631 109.356C40.8906 109.356 41.1855 109.533 41.5512 109.899L43.2383 111.599L44.9135 109.899C45.2793 109.533 45.586 109.356 45.8455 109.356C46.1051 109.356 46.4118 109.533 46.7775 109.899C47.1433 110.265 47.3202 110.572 47.3202 110.832C47.3202 111.092 47.1433 111.399 46.7775 111.765L45.0905 113.465Z" fill="#1B1464"/>
<path id="Vector_30" d="M98.2038 110.761L99.8908 112.461C100.257 112.827 100.434 113.134 100.434 113.394C100.434 113.654 100.257 113.961 99.8908 114.327C99.5251 114.681 99.2184 114.87 98.9588 114.87C98.6993 114.87 98.3925 114.693 98.0268 114.327L96.3516 112.638L94.6645 114.327C94.2988 114.693 93.9921 114.87 93.7443 114.87C93.4966 114.87 93.1898 114.693 92.8123 114.327C92.4466 113.972 92.2578 113.654 92.2578 113.394C92.2578 113.134 92.4348 112.827 92.8005 112.461L94.4875 110.761L92.8005 109.061C92.4348 108.695 92.2578 108.388 92.2578 108.128C92.2578 107.868 92.4466 107.561 92.8123 107.195C93.178 106.829 93.4848 106.652 93.7443 106.652C94.0039 106.652 94.2988 106.829 94.6645 107.195L96.3516 108.895L98.0268 107.195C98.3925 106.829 98.6993 106.652 98.9588 106.652C99.2184 106.652 99.5251 106.829 99.8908 107.195C100.257 107.561 100.434 107.868 100.434 108.128C100.434 108.388 100.257 108.695 99.8908 109.061L98.2038 110.761Z" fill="#1B1464"/>
<path id="Vector_31" d="M89.7428 39.872L91.4299 41.5722C91.7956 41.9382 91.9726 42.2452 91.9726 42.5049C91.9726 42.7647 91.7956 43.0717 91.4299 43.4377C91.0642 43.7919 90.7574 43.9808 90.4979 43.9808C90.2383 43.9808 89.9316 43.8037 89.5659 43.4377L87.8906 41.7493L86.2036 43.4377C85.8379 43.8037 85.5311 43.9808 85.2834 43.9808C85.0356 43.9808 84.7289 43.8037 84.3514 43.4377C83.9856 43.0835 83.7969 42.7647 83.7969 42.5049C83.7969 42.2452 83.9738 41.9382 84.3396 41.5722L86.0266 39.872L84.3396 38.1718C83.9738 37.8058 83.7969 37.4988 83.7969 37.2391C83.7969 36.9793 83.9856 36.6723 84.3514 36.3063C84.7171 35.9403 85.0238 35.7632 85.2834 35.7632C85.5429 35.7632 85.8379 35.9403 86.2036 36.3063L87.8906 38.0065L89.5659 36.3063C89.9316 35.9403 90.2383 35.7632 90.4979 35.7632C90.7574 35.7632 91.0642 35.9403 91.4299 36.3063C91.7956 36.6723 91.9726 36.9793 91.9726 37.2391C91.9726 37.4988 91.7956 37.8058 91.4299 38.1718L89.7428 39.872Z" fill="#1B1464"/>
<path id="Vector_32" d="M90.2733 85.0926V60.8057C90.2733 59.3299 89.4829 57.9602 88.2088 57.2282L67.1973 45.0789C65.9232 44.335 64.3423 44.335 63.0682 45.0789L42.0568 57.2282C40.7826 57.9721 39.9922 59.3299 39.9922 60.8057V85.0926C39.9922 86.5685 40.7826 87.9381 42.0568 88.6701L63.0682 100.819C64.3423 101.563 65.9232 101.563 67.1973 100.819L88.2088 88.6701C89.4829 87.9263 90.2733 86.5685 90.2733 85.0926Z" fill="#1B1464"/>
<path id="Vector_33" fill-rule="evenodd" clip-rule="evenodd" d="M78.5516 71.9481L75.0633 74L78.5516 76.0346C78.7602 76.1577 78.943 76.3215 79.0896 76.5167C79.2362 76.7119 79.3437 76.9347 79.4059 77.1723C79.4682 77.4099 79.484 77.6577 79.4524 77.9016C79.4208 78.1454 79.3425 78.3805 79.222 78.5935C79.1014 78.8065 78.9409 78.9931 78.7497 79.1427C78.5585 79.2924 78.3402 79.4021 78.1075 79.4656C77.8747 79.5292 77.632 79.5453 77.3931 79.5131C77.1542 79.4808 76.9239 79.4009 76.7153 79.2778L70.4652 75.6022C70.1787 75.433 69.9423 75.188 69.7809 74.8931C69.6195 74.5981 69.5391 74.2642 69.5481 73.9265C69.553 73.7802 69.575 73.635 69.6138 73.4941C69.7417 73.0214 70.0458 72.6186 70.461 72.3719L76.7111 68.7092C76.9206 68.5856 77.152 68.5054 77.3919 68.4732C77.6318 68.4409 77.8756 68.4573 78.1093 68.5214C78.343 68.5855 78.562 68.6959 78.7539 68.8465C78.9457 68.9971 79.1066 69.1848 79.2273 69.3989C79.3485 69.6112 79.4272 69.8459 79.4588 70.0895C79.4904 70.333 79.4743 70.5806 79.4114 70.8177C79.3486 71.0549 79.2402 71.2769 79.0926 71.471C78.945 71.665 78.7611 71.8272 78.5516 71.9481ZM75.2497 81.894L69.0017 78.2248C68.7221 78.0611 68.4055 77.9748 68.0832 77.9747C67.7609 77.9746 67.4442 78.0605 67.1645 78.224C66.8848 78.3876 66.6519 78.6229 66.489 78.9068C66.326 79.1907 66.2387 79.5131 66.2356 79.8421V87.1718C66.2518 87.6588 66.4527 88.1204 66.7959 88.459C67.1391 88.7977 67.5977 88.987 68.0751 88.987C68.5524 88.987 69.011 88.7977 69.3542 88.459C69.6974 88.1204 69.8983 87.6588 69.9145 87.1718V83.0638L73.4113 85.1156C73.6199 85.2389 73.8502 85.3189 74.0891 85.3513C74.3281 85.3837 74.5709 85.3677 74.8037 85.3042C75.0366 85.2408 75.2549 85.1311 75.4463 84.9815C75.6376 84.8319 75.7983 84.6453 75.919 84.4324C76.0397 84.2194 76.1181 83.9843 76.1498 83.7404C76.1815 83.4965 76.1658 83.2486 76.1037 83.0109C76.0415 82.7732 75.9341 82.5503 75.7876 82.3549C75.6411 82.1596 75.4583 81.9956 75.2497 81.8724V81.894ZM68.0486 74.7243L65.4435 77.3513C65.3543 77.4359 65.2388 77.4857 65.1173 77.4919H64.3527C64.2315 77.4845 64.1163 77.4349 64.0265 77.3513L61.4363 74.7157C61.3552 74.6254 61.3073 74.5093 61.3007 74.387V73.6087C61.3077 73.4858 61.3555 73.3692 61.4363 73.2778L64.0265 70.6422C64.1166 70.5593 64.2317 70.5105 64.3527 70.5038H65.1173C65.2385 70.5096 65.3539 70.5585 65.4435 70.6422L68.0401 73.2778C68.1202 73.3694 68.1673 73.4861 68.1735 73.6087V74.387C68.1677 74.509 68.1205 74.6252 68.0401 74.7157L68.0486 74.7243ZM65.973 73.9935C65.963 73.8675 65.9115 73.7486 65.8268 73.6562L65.0749 72.8973C64.9848 72.8146 64.8698 72.7658 64.7488 72.7589H64.7212C64.6008 72.7654 64.4863 72.8143 64.3972 72.8973L63.6453 73.6562C63.5646 73.7491 63.5175 73.8674 63.5119 73.9914V74.0195C63.5172 74.1416 63.5644 74.2579 63.6453 74.3481L64.4014 75.1049C64.4907 75.1876 64.6051 75.2364 64.7255 75.2432H64.753C64.874 75.2364 64.9891 75.1876 65.0792 75.1049L65.8311 74.3416C65.9123 74.2513 65.9608 74.1353 65.9687 74.013L65.973 73.9935ZM54.2203 66.106L60.4705 69.7643C60.7503 69.928 61.0672 70.0142 61.3898 70.0142C61.7123 70.0142 62.0293 69.928 62.3091 69.7643C62.5889 69.6006 62.822 69.365 62.985 69.0809C63.1481 68.7968 63.2355 68.4741 63.2387 68.1449V60.8217C63.2225 60.3347 63.0216 59.8731 62.6784 59.5345C62.3352 59.1958 61.8765 59.0065 61.3992 59.0065C60.9219 59.0065 60.4632 59.1958 60.12 59.5345C59.7768 59.8731 59.5759 60.3347 59.5597 60.8217V64.9298L56.0587 62.8757C55.8501 62.7525 55.6198 62.6724 55.3809 62.6401C55.142 62.6077 54.8991 62.6237 54.6663 62.6871C54.4334 62.7506 54.2151 62.8602 54.0237 63.0098C53.8324 63.1594 53.6718 63.346 53.551 63.559C53.4303 63.7719 53.3519 64.0071 53.3202 64.251C53.2885 64.4949 53.3042 64.7427 53.3663 64.9805C53.4285 65.2182 53.5359 65.4411 53.6824 65.6364C53.8289 65.8318 54.0117 65.9957 54.2203 66.1189V66.106ZM67.9363 70.0152C68.3054 70.0449 68.6747 69.9598 68.9953 69.7708L75.2433 66.0952C75.4519 65.9719 75.6347 65.808 75.7813 65.6126C75.9278 65.4173 76.0352 65.1944 76.0973 64.9567C76.1595 64.719 76.1752 64.4711 76.1435 64.2272C76.1118 63.9833 76.0333 63.7481 75.9126 63.5352C75.7919 63.3222 75.6313 63.1356 75.4399 62.986C75.2486 62.8365 75.0303 62.7268 74.7974 62.6634C74.3271 62.5352 73.8262 62.6031 73.4049 62.8519L69.9082 64.9233V60.8152C69.892 60.3282 69.6911 59.8666 69.3479 59.528C69.0047 59.1893 68.546 59 68.0687 59C67.5914 59 67.1327 59.1893 66.7895 59.528C66.4463 59.8666 66.2454 60.3282 66.2292 60.8152V68.1449C66.2287 68.6194 66.4046 69.0765 66.7215 69.4237C67.0384 69.7709 67.4726 69.9823 67.9363 70.0152ZM61.5379 77.9805C61.1688 77.9499 60.7993 78.0351 60.4789 78.2248L54.2203 81.8854C53.799 82.1342 53.4918 82.5438 53.3663 83.0239C53.2408 83.504 53.3073 84.0153 53.551 84.4454C53.7948 84.8754 54.196 85.189 54.6663 85.3172C55.1366 85.4453 55.6374 85.3775 56.0587 85.1286L59.5597 83.0767V87.1848C59.5759 87.6718 59.7768 88.1334 60.12 88.472C60.4632 88.8107 60.9219 89 61.3992 89C61.8765 89 62.3352 88.8107 62.6784 88.472C63.0216 88.1334 63.2225 87.6718 63.2387 87.1848V79.8421C63.2377 79.37 63.0619 78.9157 62.7464 78.5704C62.431 78.2251 61.9992 78.0144 61.5379 77.9805ZM59.8435 74.5492C59.9642 74.1442 59.946 73.7092 59.792 73.3162C59.638 72.9231 59.3573 72.5954 58.9964 72.387L52.7526 68.7135C52.3309 68.467 51.8308 68.4007 51.3614 68.5291C50.892 68.6575 50.4914 68.9702 50.247 69.3989C50.126 69.6111 50.0474 69.8457 50.0158 70.0891C49.9842 70.3325 50.0001 70.5799 50.0628 70.817C50.1254 71.054 50.2335 71.2761 50.3807 71.4702C50.5279 71.6644 50.7114 71.8268 50.9205 71.9481L54.4088 74L50.9205 76.0346C50.7119 76.1574 50.529 76.3209 50.3824 76.5159C50.2357 76.7108 50.128 76.9334 50.0656 77.1708C50.0031 77.4082 49.9871 77.6558 50.0184 77.8996C50.0497 78.1433 50.1278 78.3784 50.2481 78.5913C50.3684 78.8043 50.5286 78.991 50.7195 79.1407C50.9105 79.2905 51.1285 79.4004 51.361 79.4641C51.5936 79.5278 51.8362 79.5442 52.075 79.5122C52.3137 79.4803 52.544 79.4006 52.7526 79.2778L58.9964 75.6022C59.3984 75.373 59.7004 74.9967 59.8414 74.5492H59.8435ZM79.5725 62.3936H79.2908V62.746H79.5704C79.6996 62.746 79.7822 62.6854 79.7822 62.573C79.7822 62.4606 79.7059 62.3936 79.5704 62.3936H79.5725ZM78.9498 62.0692H79.5852C79.9283 62.0692 80.157 62.2617 80.157 62.56C80.1581 62.6431 80.1375 62.7249 80.0973 62.7972C80.0571 62.8694 79.9988 62.9293 79.9283 62.9709L80.1761 63.3341V63.4076H79.8182L79.5704 63.0617H79.2908V63.4076H78.9477L78.9498 62.0692ZM80.7077 62.7654C80.718 62.6018 80.6949 62.4377 80.6399 62.2836C80.5848 62.1295 80.499 61.9887 80.3879 61.8703C80.2768 61.7518 80.1429 61.6581 79.9945 61.5952C79.8461 61.5323 79.6865 61.5016 79.5259 61.5049C78.8248 61.5049 78.3589 62.0217 78.3589 62.7654C78.3589 63.4746 78.8248 64.0238 79.5259 64.0238C79.6866 64.0278 79.8464 63.9975 79.995 63.935C80.1436 63.8725 80.2779 63.7791 80.3892 63.6607C80.5006 63.5424 80.5866 63.4017 80.6418 63.2475C80.697 63.0934 80.7202 62.9292 80.7098 62.7654H80.7077ZM81 62.7654C81 63.6065 80.4493 64.3092 79.5174 64.3092C78.5855 64.3092 78.0581 63.6 78.0581 62.7654C78.0581 61.9309 78.6025 61.2217 79.5174 61.2217C80.4324 61.2217 80.9979 61.9222 80.9979 62.7654H81Z" fill="#29B5E8"/>
</g>
<defs>
<clipPath id="clip0_4112_1222">
<rect width="131" height="148" fill="white"/>
</clipPath>
</defs>
</svg>
