<svg width="155" height="142" viewBox="0 0 155 142" fill="none" xmlns="http://www.w3.org/2000/svg">
<g id="Group 288">
<path id="Vector" d="M37.0234 79.58V61.9065C37.0234 60.8628 36.4722 59.9128 35.5692 59.3851L20.2648 50.5425C19.3618 50.0265 18.2594 50.0265 17.3563 50.5425L2.05188 59.3851C1.14886 59.9011 0.597656 60.8628 0.597656 61.9065V79.58C0.597656 80.6237 1.14886 81.5736 2.05188 82.1014L17.3563 90.944C18.2594 91.46 19.3618 91.46 20.2648 90.944L35.5692 82.1014C36.4722 81.5854 37.0234 80.6237 37.0234 79.58Z" fill="#F3F3F3"/>
<path id="Vector_2" d="M18.7993 91.9178C18.1894 91.9178 17.5913 91.7653 17.0519 91.4487L1.74739 82.6061C0.668459 81.9845 0 80.8235 0 79.5804V61.907C0 60.6638 0.668459 59.5028 1.74739 58.8813L17.0519 50.0387C18.1308 49.4171 19.4677 49.4171 20.5467 50.0387L35.8511 58.8813C36.9301 59.5028 37.5985 60.6638 37.5985 61.907V79.5804C37.5985 80.8235 36.9301 81.9845 35.8511 82.6061L20.5467 91.4487C20.0072 91.7653 19.4091 91.9178 18.7993 91.9178ZM18.7993 50.7541C18.4005 50.7541 18.0018 50.8596 17.6382 51.059L2.33377 59.9016C1.61839 60.312 1.17276 61.086 1.17276 61.907V79.5804C1.17276 80.4013 1.61839 81.1753 2.33377 81.5858L17.6382 90.4284C18.3536 90.8389 19.2449 90.8389 19.9603 90.4284L35.2648 81.5858C35.9801 81.1753 36.4258 80.4013 36.4258 79.5804V61.907C36.4258 61.086 35.9801 60.312 35.2648 59.9016L19.9603 51.059C19.5967 50.8479 19.198 50.7541 18.7993 50.7541Z" fill="#1B1464"/>
<path id="Vector_3" d="M63.2461 30.0077V12.3343C63.2461 11.2905 62.6949 10.3406 61.7919 9.81284L46.4874 0.970261C45.5844 0.454249 44.482 0.454249 43.579 0.970261L28.2745 9.81284C27.3715 10.3289 26.8203 11.2905 26.8203 12.3343V30.0077C26.8203 31.0514 27.3715 32.0014 28.2745 32.5291L43.579 41.3717C44.482 41.8877 45.5844 41.8877 46.4874 41.3717L61.7919 32.5291C62.6949 32.0131 63.2461 31.0514 63.2461 30.0077Z" fill="#F3F3F3"/>
<path id="Vector_4" d="M45.0336 42.3453C44.4238 42.3453 43.8257 42.1928 43.2862 41.8762L27.9818 33.0336C26.9029 32.412 26.2344 31.251 26.2344 30.0079V12.3345C26.2344 11.0913 26.9029 9.93031 27.9818 9.30875L43.2862 0.46617C44.3652 -0.15539 45.7021 -0.15539 46.7811 0.46617L62.0855 9.30875C63.1644 9.93031 63.8329 11.0913 63.8329 12.3345V30.0079C63.8329 31.251 63.1644 32.412 62.0855 33.0336L46.7811 41.8762C46.2416 42.1928 45.6435 42.3453 45.0336 42.3453ZM45.0336 1.18155C44.6349 1.18155 44.2362 1.2871 43.8726 1.48647L28.5682 10.329C27.8528 10.7395 27.4071 11.5135 27.4071 12.3345V30.0079C27.4071 30.8288 27.8528 31.6028 28.5682 32.0133L43.8726 40.8559C44.588 41.2663 45.4793 41.2663 46.1947 40.8559L61.4991 32.0133C62.2145 31.6028 62.6602 30.8288 62.6602 30.0079V12.3345C62.6602 11.5135 62.2145 10.7395 61.4991 10.329L46.1947 1.48647C45.8311 1.27537 45.4324 1.18155 45.0336 1.18155Z" fill="#1B1464"/>
<path id="Vector_5" d="M63.2461 129.129V111.456C63.2461 110.412 62.6949 109.462 61.7919 108.934L46.4874 100.092C45.5844 99.5756 44.482 99.5756 43.579 100.092L28.2745 108.934C27.3715 109.45 26.8203 110.412 26.8203 111.456V129.129C26.8203 130.173 27.3715 131.123 28.2745 131.65L43.579 140.493C44.482 141.009 45.5844 141.009 46.4874 140.493L61.7919 131.65C62.6949 131.134 63.2461 130.173 63.2461 129.129Z" fill="#F3F3F3"/>
<path id="Vector_6" d="M45.0336 141.467C44.4238 141.467 43.8257 141.314 43.2862 140.998L27.9818 132.155C26.9029 131.533 26.2344 130.372 26.2344 129.129V111.456C26.2344 110.213 26.9029 109.052 27.9818 108.43L43.2862 99.5875C44.3652 98.9659 45.7021 98.9659 46.7811 99.5875L62.0855 108.43C63.1644 109.052 63.8329 110.213 63.8329 111.456V129.129C63.8329 130.372 63.1644 131.533 62.0855 132.155L46.7811 140.998C46.2416 141.314 45.6435 141.467 45.0336 141.467ZM45.0336 100.303C44.6349 100.303 44.2362 100.408 43.8726 100.608L28.5682 109.45C27.8528 109.861 27.4071 110.635 27.4071 111.456V129.129C27.4071 129.95 27.8528 130.724 28.5682 131.135L43.8726 139.977C44.588 140.388 45.4793 140.388 46.1947 139.977L61.4991 131.135C62.2145 130.724 62.6602 129.95 62.6602 129.129V111.456C62.6602 110.635 62.2145 109.861 61.4991 109.45L46.1947 100.608C45.8311 100.397 45.4324 100.303 45.0336 100.303Z" fill="#1B1464"/>
<path id="Vector_7" d="M117.582 61.4024V79.0758C117.582 80.1196 118.133 81.0695 119.036 81.5972L134.341 90.4398C135.244 90.9558 136.346 90.9558 137.249 90.4398L152.554 81.5972C153.457 81.0812 154.008 80.1196 154.008 79.0758V61.4024C154.008 60.3586 153.457 59.4087 152.554 58.881L137.249 50.0384C136.346 49.5224 135.244 49.5224 134.341 50.0384L119.036 58.881C118.133 59.397 117.582 60.3586 117.582 61.4024Z" fill="#F3F3F3"/>
<path id="Vector_8" d="M135.791 91.4131C135.182 91.4131 134.584 91.2607 134.044 90.944L118.74 82.1015C117.661 81.4799 116.992 80.3189 116.992 79.0758V61.4023C116.992 60.1592 117.661 58.9982 118.74 58.3766L134.044 49.534C135.123 48.9125 136.46 48.9125 137.539 49.534L152.843 58.3766C153.922 58.9982 154.591 60.1592 154.591 61.4023V79.0758C154.591 80.3189 153.922 81.4799 152.843 82.1015L137.539 90.944C136.999 91.2607 136.401 91.4131 135.791 91.4131ZM135.791 50.2494C135.393 50.2494 134.994 50.355 134.63 50.5543L119.326 59.3969C118.611 59.8074 118.165 60.5814 118.165 61.4023V79.0758C118.165 79.8967 118.611 80.6707 119.326 81.0812L134.63 89.9238C135.346 90.3342 136.237 90.3342 136.952 89.9238L152.257 81.0812C152.972 80.6707 153.418 79.8967 153.418 79.0758V61.4023C153.418 60.5814 152.972 59.8074 152.257 59.3969L136.952 50.5543C136.589 50.3432 136.19 50.2494 135.791 50.2494Z" fill="#1B1464"/>
<path id="Vector_9" d="M90.043 111.948V129.622C90.043 130.665 90.5942 131.615 91.4972 132.143L106.802 140.986C107.705 141.502 108.807 141.502 109.71 140.986L125.015 132.143C125.918 131.627 126.469 130.665 126.469 129.622V111.948C126.469 110.905 125.918 109.955 125.015 109.427L109.71 100.584C108.807 100.068 107.705 100.068 106.802 100.584L91.4972 109.427C90.5942 109.943 90.043 110.905 90.043 111.948Z" fill="#F3F3F3"/>
<path id="Vector_10" d="M108.256 141.947C107.646 141.947 107.048 141.795 106.509 141.478L91.2044 132.636C90.1255 132.014 89.457 130.853 89.457 129.61V111.937C89.457 110.693 90.1255 109.532 91.2044 108.911L106.509 100.068C107.588 99.4467 108.925 99.4467 110.004 100.068L125.308 108.911C126.387 109.532 127.056 110.693 127.056 111.937V129.61C127.056 130.853 126.387 132.014 125.308 132.636L110.004 141.478C109.464 141.795 108.866 141.947 108.256 141.947ZM108.256 100.784C107.858 100.784 107.459 100.889 107.095 101.089L91.7908 109.931C91.0754 110.342 90.6298 111.116 90.6298 111.937V129.61C90.6298 130.431 91.0754 131.205 91.7908 131.615L107.095 140.458C107.811 140.868 108.702 140.868 109.417 140.458L124.722 131.615C125.437 131.205 125.883 130.431 125.883 129.61V111.937C125.883 111.116 125.437 110.342 124.722 109.931L109.417 101.089C109.054 100.877 108.655 100.784 108.256 100.784Z" fill="#1B1464"/>
<path id="Vector_11" d="M91.3438 12.3343V30.0077C91.3438 31.0514 91.8949 32.0014 92.798 32.5291L108.102 41.3717C109.005 41.8877 110.108 41.8877 111.011 41.3717L126.315 32.5291C127.218 32.0131 127.77 31.0514 127.77 30.0077V12.3343C127.77 11.2905 127.218 10.3406 126.315 9.81284L111.011 0.970261C110.108 0.454249 109.005 0.454249 108.102 0.970261L92.798 9.81284C91.8949 10.3289 91.3438 11.2905 91.3438 12.3343Z" fill="#F3F3F3"/>
<path id="Vector_12" d="M109.557 42.3453C108.947 42.3453 108.349 42.1928 107.81 41.8762L92.5052 33.0336C91.4263 32.412 90.7578 31.251 90.7578 30.0079V12.3345C90.7578 11.0913 91.4263 9.93031 92.5052 9.30875L107.81 0.46617C108.889 -0.15539 110.226 -0.15539 111.304 0.46617L126.609 9.30875C127.688 9.93031 128.356 11.0913 128.356 12.3345V30.0079C128.356 31.251 127.688 32.412 126.609 33.0336L111.304 41.8762C110.765 42.1928 110.167 42.3453 109.557 42.3453ZM109.557 1.18155C109.158 1.18155 108.76 1.2871 108.396 1.48647L93.0916 10.329C92.3762 10.7395 91.9306 11.5135 91.9306 12.3345V30.0079C91.9306 30.8288 92.3762 31.6028 93.0916 32.0133L108.396 40.8559C109.111 41.2663 110.003 41.2663 110.718 40.8559L126.023 32.0133C126.738 31.6028 127.184 30.8288 127.184 30.0079V12.3345C127.184 11.5135 126.738 10.7395 126.023 10.329L110.718 1.48647C110.355 1.27537 109.956 1.18155 109.557 1.18155Z" fill="#1B1464"/>
<path id="Vector_13" d="M52.1279 14.0815H37.9375V28.2719H52.1279V14.0815Z" fill="#1B1464"/>
<path id="Vector_14" d="M52.7147 28.8585H37.3516V13.4954H52.7147V28.8585ZM38.5243 27.6857H51.5419V14.6681H38.5243V27.6857Z" fill="#1B1464"/>
<path id="Vector_15" d="M24.0195 73.7517V67.7354L18.8008 64.7214L13.5938 67.7354V73.7517L18.8008 76.7539L24.0195 73.7517Z" fill="#61BD73"/>
<path id="Vector_16" d="M18.7973 77.4341L13.0039 74.0918V67.3953L18.7973 64.053L24.5907 67.3953V74.0918L18.7973 77.4341ZM14.1767 73.4116L18.7973 76.0855L23.418 73.4116V68.0755L18.7973 65.4016L14.1767 68.0755V73.4116Z" fill="#1B1464"/>
<path id="Vector_17" d="M141.469 64.5688H130.105V75.9329H141.469V64.5688Z" fill="#1B1464"/>
<path id="Vector_18" d="M142.056 76.5192H129.52V63.9824H142.056V76.5192ZM130.692 75.3464H140.884V65.1552H130.692V75.3464Z" fill="#1B1464"/>
<path id="Vector_19" d="M109.557 30.0194C114.441 30.0194 118.4 26.0604 118.4 21.1768C118.4 16.2932 114.441 12.3342 109.557 12.3342C104.674 12.3342 100.715 16.2932 100.715 21.1768C100.715 26.0604 104.674 30.0194 109.557 30.0194Z" fill="#61BD73"/>
<path id="Vector_20" d="M109.558 30.594C104.363 30.594 100.129 26.3603 100.129 21.165C100.129 15.9697 104.363 11.7361 109.558 11.7361C114.753 11.7361 118.987 15.9697 118.987 21.165C118.987 26.3603 114.753 30.594 109.558 30.594ZM109.558 12.9206C105.008 12.9206 101.302 16.6265 101.302 21.1768C101.302 25.7271 105.008 29.433 109.558 29.433C114.108 29.433 117.814 25.7271 117.814 21.1768C117.814 16.6265 114.108 12.9206 109.558 12.9206Z" fill="#1B1464"/>
<path id="Vector_21" d="M49.7587 108.078H43.3203V114.517H49.7587V108.078Z" fill="#61BD73"/>
<path id="Vector_22" d="M50.3456 115.103H42.7344V107.492H50.3456V115.103ZM43.9071 113.93H49.1728V108.665H43.9071V113.93Z" fill="#1B1464"/>
<path id="Vector_23" d="M56.0712 114.247H49.6328V120.685H56.0712V114.247Z" fill="#F3F3F3"/>
<path id="Vector_24" d="M56.6581 121.272H49.0469V113.661H56.6581V121.272ZM50.2196 120.099H55.4853V114.833H50.2196V120.099Z" fill="#1B1464"/>
<path id="Vector_25" d="M43.872 125.634H37.4336V132.073H43.872V125.634Z" fill="#1B1464"/>
<path id="Vector_26" d="M44.4588 132.659H36.8477V125.048H44.4588V132.659ZM38.0204 131.486H43.2861V126.221H38.0204V131.486Z" fill="#1B1464"/>
<path id="Vector_27" d="M115.515 124.59V116.006L108.08 111.714L100.656 116.006V124.59L108.08 128.871L115.515 124.59Z" fill="#1B1464"/>
<path id="Vector_28" d="M108.08 129.552L100.059 124.919V115.666L108.08 111.034L116.102 115.666V124.919L108.08 129.552ZM101.231 124.251L108.08 128.203L114.929 124.251V116.346L108.08 112.394L101.231 116.346V124.251Z" fill="#1B1464"/>
<path id="Vector_29" d="M118.743 121.401H112.305V127.839H118.743V121.401Z" fill="#61BD73"/>
<path id="Vector_30" d="M119.326 128.425H111.715V120.814H119.326V128.425ZM112.888 127.253H118.153V121.987H112.888V127.253Z" fill="#1B1464"/>
<path id="Vector_31" d="M55.3093 36.25L54.3281 36.8923L62.6077 49.5401L63.589 48.8978L55.3093 36.25Z" fill="#1B1464"/>
<path id="Vector_32" d="M90.614 91.4458L89.6328 92.0881L98.407 105.491L99.3882 104.849L90.614 91.4458Z" fill="#1B1464"/>
<path id="Vector_33" d="M60.7167 92.2033L53.1328 103.793L54.1141 104.435L61.698 92.8455L60.7167 92.2033Z" fill="#1B1464"/>
<path id="Vector_34" d="M99.3014 36.2302L92.3789 46.8088L93.3602 47.451L100.283 36.8724L99.3014 36.2302Z" fill="#1B1464"/>
<path id="Vector_35" d="M117.58 69.4592H37.0234V70.632H117.58V69.4592Z" fill="#1B1464"/>
<path id="Vector_36" d="M105.327 83.6262V56.8639C105.327 55.2924 104.494 53.8499 103.134 53.0642L79.9481 39.6831C78.5877 38.8973 76.9107 38.8973 75.5503 39.6831L52.3649 53.0642C51.0045 53.8499 50.1719 55.3042 50.1719 56.8639V83.6262C50.1719 85.1977 51.0045 86.6402 52.3649 87.4259L75.5503 100.807C76.9107 101.593 78.5877 101.593 79.9481 100.807L103.134 87.4259C104.494 86.6402 105.327 85.186 105.327 83.6262Z" fill="#61BD73"/>
<path id="Vector_37" d="M77.7555 101.992C76.8994 101.992 76.0316 101.769 75.2693 101.323L52.0839 87.9419C50.5476 87.0506 49.5977 85.4088 49.5977 83.6262V56.8639C49.5977 55.093 50.5476 53.4394 52.0839 52.5481L75.2693 39.167C76.8056 38.2757 78.7172 38.2757 80.2535 39.167L103.439 52.5481C104.975 53.4394 105.925 55.0813 105.925 56.8639V83.6262C105.925 85.397 104.975 87.0506 103.439 87.9419L80.2535 101.323C79.4912 101.769 78.6234 101.992 77.7673 101.992H77.7555ZM77.7555 39.6713C77.0988 39.6713 76.442 39.8355 75.8557 40.1756L52.6703 53.5567C51.4975 54.2369 50.7704 55.4918 50.7704 56.8522V83.6144C50.7704 84.9748 51.4975 86.2297 52.6703 86.9099L75.8557 100.291C77.0284 100.971 78.4826 100.971 79.6671 100.291L102.852 86.9099C104.025 86.2297 104.752 84.9631 104.752 83.6144V56.8522C104.752 55.4918 104.025 54.2369 102.852 53.5567L79.6671 40.1756C79.0807 39.8355 78.424 39.6713 77.7673 39.6713H77.7555Z" fill="#1B1464"/>
</g>
</svg>
