<svg width="131" height="148" viewBox="0 0 131 148" fill="none" xmlns="http://www.w3.org/2000/svg">
<g id="Group 2691">
<g id="Group 287">
<path id="Vector" d="M65.1114 147.013C64.9589 147.013 64.8065 147.013 64.654 147.013L64.7009 145.84C64.8417 145.84 64.9707 145.84 65.1114 145.84C65.7095 145.84 66.3076 145.782 66.894 145.676L67.1051 146.825C66.4483 146.954 65.7681 147.013 65.0997 147.013H65.1114ZM62.203 146.614C61.4055 146.391 60.6315 146.075 59.9044 145.688L60.4673 144.656C61.1123 145.008 61.8042 145.289 62.5079 145.488L62.1912 146.614H62.203ZM69.4741 146.098L69.0049 145.019C69.3333 144.879 69.65 144.714 69.9549 144.539L71.0104 143.929L71.5967 144.949L70.5413 145.559C70.1894 145.758 69.8376 145.934 69.4741 146.098ZM57.8638 144.515L55.8349 143.342L56.4213 142.322L58.4501 143.495L57.8638 144.515ZM73.6256 143.788L73.0392 142.768L75.0681 141.595L75.6545 142.615L73.6256 143.788ZM53.806 142.17L51.7772 140.997L52.3635 139.977L54.3924 141.149L53.806 142.17ZM77.6951 141.442L77.1087 140.422L79.1376 139.249L79.7239 140.27L77.6951 141.442ZM49.7483 139.824L47.7194 138.651L48.3058 137.631L50.3347 138.804L49.7483 139.824ZM81.7645 139.097L81.1782 138.077L83.207 136.904L83.7934 137.924L81.7645 139.097ZM45.6906 137.479L43.6617 136.306L44.2481 135.285L46.2769 136.458L45.6906 137.479ZM85.8223 136.751L85.2359 135.731L87.2648 134.558L87.8511 135.579L85.8223 136.751ZM41.6211 135.133L39.5922 133.96L40.1786 132.94L42.2075 134.113L41.6211 135.133ZM89.88 134.406L89.2936 133.386L91.3225 132.213L91.9089 133.233L89.88 134.406ZM37.5516 132.788L35.5228 131.615L36.1091 130.594L38.138 131.767L37.5516 132.788ZM93.9377 132.06L93.3514 131.04L95.3802 129.867L95.9666 130.888L93.9377 132.06ZM33.4822 130.442L31.4533 129.269L32.0397 128.249L34.0686 129.422L33.4822 130.442ZM97.9955 129.715L97.4091 128.695L99.438 127.522L100.024 128.542L97.9955 129.715ZM29.4244 128.096L27.3956 126.924L27.982 125.903L30.0108 127.076L29.4244 128.096ZM102.065 127.369L101.479 126.349L103.507 125.176L104.094 126.197L102.065 127.369ZM25.3667 125.751L23.3378 124.578L23.9242 123.558L25.9531 124.731L25.3667 125.751ZM106.134 125.024L105.548 124.004L107.577 122.831L108.163 123.851L106.134 125.024ZM21.309 123.405L19.2801 122.233L19.8665 121.212L21.8953 122.385L21.309 123.405ZM110.192 122.678L109.606 121.658L111.635 120.485L112.221 121.506L110.192 122.678ZM17.2395 121.06L15.2106 119.887L15.797 118.867L17.8259 120.04L17.2395 121.06ZM114.25 120.333L113.663 119.313L115.692 118.14L116.279 119.16L114.25 120.333ZM13.17 118.714L11.1412 117.542L11.7276 116.521L13.7564 117.694L13.17 118.714ZM118.308 117.987L117.721 116.967L119.75 115.794L120.336 116.815L118.308 117.987ZM9.11231 116.369L7.08344 115.196L7.66982 114.176L9.69869 115.349L9.11231 116.369ZM122.377 115.642L121.791 114.622L123.82 113.449L124.406 114.469L122.377 115.642ZM5.03112 114.012C4.3392 113.566 3.68245 113.05 3.1078 112.452L3.94046 111.631C4.45647 112.159 5.03112 112.628 5.65268 113.015L5.01939 114L5.03112 114.012ZM126.423 113.085L125.661 112.194C126.224 111.713 126.728 111.174 127.162 110.576L128.112 111.267C127.619 111.936 127.056 112.546 126.435 113.085H126.423ZM1.59495 110.493C1.16103 109.79 0.809201 109.039 0.551195 108.253L1.66531 107.878C1.89986 108.582 2.20478 109.25 2.59179 109.884L1.59495 110.493ZM129.343 109.121L128.264 108.652C128.557 107.972 128.769 107.268 128.898 106.541L130.047 106.752C129.906 107.562 129.66 108.359 129.331 109.121H129.343ZM0.0469102 105.826C0.0117276 105.497 0 105.157 0 104.829V103.433H1.17276V104.829C1.17276 105.134 1.18448 105.427 1.20794 105.72L0.0351827 105.826H0.0469102ZM130.235 104.829H129.062V102.484H130.235V104.829ZM1.17276 101.076H0V98.7307H1.17276V101.076ZM130.223 100.126H129.05V97.7808H130.223V100.126ZM1.17276 96.3852H0V94.0397H1.17276V96.3852ZM130.223 95.4352H129.05V93.0897H130.223V95.4352ZM1.17276 91.6942H0V89.3486H1.17276V91.6942ZM130.223 90.7442H129.05V88.3987H130.223V90.7442ZM1.17276 87.0031H0V84.6576H1.17276V87.0031ZM130.223 86.0532H129.05V83.7077H130.223V86.0532ZM1.17276 82.3121H0V79.9666H1.17276V82.3121ZM130.223 81.3622H129.05V79.0167H130.223V81.3622ZM1.17276 77.6211H0V75.2756H1.17276V77.6211ZM130.223 76.6712H129.05V74.3256H130.223V76.6712ZM1.17276 72.9301H0V70.5845H1.17276V72.9301ZM130.223 71.9801H129.05V69.6346H130.223V71.9801ZM1.17276 68.239H0V65.8935H1.17276V68.239ZM130.223 67.2891H129.05V64.9436H130.223V67.2891ZM1.17276 63.548H0V61.2025H1.17276V63.548ZM130.223 62.5981H129.05V60.2526H130.223V62.5981ZM1.17276 58.857H0V56.5115H1.17276V58.857ZM130.223 57.9071H129.05V55.5615H130.223V57.9071ZM1.17276 54.166H0V51.8205H1.17276V54.166ZM130.223 53.216H129.05V50.8705H130.223V53.216ZM1.17276 49.4749H0V47.1294H1.17276V49.4749ZM130.223 48.525H129.05V46.1795H130.223V48.525ZM1.17276 44.7839H0V42.4384H1.17276V44.7839ZM130.223 43.834H129.05V42.1804C129.05 41.9576 129.05 41.7465 129.027 41.5354L130.199 41.4533C130.211 41.6996 130.223 41.9341 130.223 42.1804V43.834ZM1.37212 40.2336L0.222824 39.9991C0.387009 39.1899 0.645016 38.4041 0.996842 37.6536L2.06405 38.1461C1.75913 38.8146 1.52458 39.5183 1.37212 40.2454V40.2336ZM128.64 39.3658C128.428 38.6621 128.124 37.9819 127.76 37.3369L128.78 36.7505C129.191 37.4659 129.519 38.2282 129.765 39.014L128.64 39.3541V39.3658ZM3.20162 36.2463L2.27515 35.5309C2.77943 34.8741 3.36581 34.276 3.9991 33.76L4.73793 34.6748C4.16328 35.1439 3.64727 35.6716 3.20162 36.258V36.2463ZM126.447 35.5661C125.942 35.0266 125.379 34.5458 124.769 34.1353L125.426 33.1619C126.106 33.6193 126.751 34.1588 127.314 34.7686L126.458 35.5661H126.447ZM6.62607 33.4316L6.03969 32.4114L8.06856 31.2386L8.65494 32.2589L6.62607 33.4316ZM122.776 32.9625L120.747 31.7898L121.333 30.7695L123.362 31.9422L122.776 32.9625ZM10.6838 31.0861L10.0974 30.0658L12.1263 28.8931L12.7127 29.9134L10.6838 31.0861ZM118.706 30.617L116.677 29.4443L117.264 28.424L119.293 29.5967L118.706 30.617ZM14.7415 28.7406L14.1552 27.7203L16.184 26.5476L16.7704 27.5679L14.7415 28.7406ZM114.649 28.2715L112.62 27.0988L113.206 26.0785L115.235 27.2512L114.649 28.2715ZM18.811 26.3951L18.2246 25.3748L20.2535 24.2021L20.8399 25.2224L18.811 26.3951ZM110.591 25.926L108.562 24.7533L109.148 23.733L111.177 24.9057L110.591 25.926ZM22.8805 24.0496L22.2941 23.0293L24.323 21.8565L24.9093 22.8768L22.8805 24.0496ZM106.533 23.5805L104.504 22.4077L105.091 21.3874L107.119 22.5602L106.533 23.5805ZM26.9382 21.7041L26.3518 20.6838L28.3807 19.511L28.9671 20.5313L26.9382 21.7041ZM102.464 21.235L100.435 20.0622L101.021 19.0419L103.05 20.2147L102.464 21.235ZM30.9959 19.3586L30.4096 18.3383L32.4384 17.1655L33.0248 18.1858L30.9959 19.3586ZM98.3942 18.8895L96.3653 17.7167L96.9517 16.6964L98.9806 17.8692L98.3942 18.8895ZM35.0537 17.0131L34.4673 15.9928L36.4962 14.82L37.0825 15.8403L35.0537 17.0131ZM94.3365 16.544L92.3076 15.3712L92.894 14.3509L94.9229 15.5237L94.3365 16.544ZM39.1231 14.6676L38.5368 13.6473L40.5656 12.4745L41.152 13.4948L39.1231 14.6676ZM90.2787 14.1985L88.2499 13.0257L88.8362 12.0054L90.8651 13.1782L90.2787 14.1985ZM43.1926 12.322L42.6062 11.3017L44.6351 10.129L45.2215 11.1493L43.1926 12.322ZM86.221 11.8529L84.1921 10.6802L84.7785 9.65989L86.8074 10.8326L86.221 11.8529ZM47.2621 9.97653L46.6757 8.95624L48.7045 7.78348L49.2909 8.80378L47.2621 9.97653ZM82.1633 9.50743L80.1344 8.33468L80.7208 7.31438L82.7496 8.48713L82.1633 9.50743ZM51.3198 7.63102L50.7334 6.61073L52.7623 5.43797L53.3487 6.45827L51.3198 7.63102ZM78.0938 7.16192L76.0649 5.98917L76.6513 4.96887L78.6802 6.14162L78.0938 7.16192ZM55.3775 5.28551L54.7911 4.26521L56.82 3.09246L57.4064 4.11276L55.3775 5.28551ZM74.0243 4.81641L71.9955 3.64365L72.5818 2.62336L74.6107 3.79611L74.0243 4.81641ZM59.4353 2.94L58.8489 1.9197L59.6698 1.43887C60.092 1.19259 60.5377 0.981499 60.9833 0.793858L61.4289 1.88452C61.0302 2.04871 60.6315 2.24807 60.2562 2.45917L59.4353 2.94ZM69.9549 2.4709C69.3216 2.09562 68.6414 1.80243 67.9377 1.59133L68.2778 0.465486C69.0636 0.700037 69.8259 1.04014 70.5413 1.4506L69.9549 2.4709ZM63.5634 1.29814L63.3757 0.137114C64.1849 0.00811137 65.0176 -0.0270713 65.8502 0.0198389L65.7681 1.19259C65.0293 1.14568 64.2905 1.18087 63.5634 1.29814Z" fill="#1B1464"/>
<path id="Vector_2" d="M78.7862 33.9946V20.8011C78.7862 20.0036 78.364 19.253 77.6603 18.8543L66.2377 12.2634C65.5457 11.8647 64.6896 11.8647 63.9977 12.2634L52.5751 18.8543C51.8831 19.253 51.4492 19.9919 51.4492 20.8011V33.9946C51.4492 34.792 51.8714 35.5426 52.5751 35.9413L63.9977 42.5322C64.6896 42.931 65.5457 42.931 66.2377 42.5322L77.6603 35.9413C78.3522 35.5426 78.7862 34.8038 78.7862 33.9946Z" fill="#1B1464"/>
<path id="Vector_3" d="M65.9657 36.7739H64.793V103.539H65.9657V36.7739Z" fill="#1B1464"/>
<path id="Vector_4" d="M100.33 69.5759H29.9062V70.7487H100.33V69.5759Z" fill="#1B1464"/>
<path id="Vector_5" d="M43.1684 51.3982H16.6406V86.4167H43.1684V51.3982Z" fill="#E7E7E7"/>
<path id="Vector_6" d="M43.7552 87.003H16.0547V50.8118H43.7552V87.003ZM17.2274 85.8303H42.5824V51.9845H17.2274V85.8303Z" fill="#1B1464"/>
<path id="Vector_7" d="M78.3754 51.3982H51.8477V86.4167H78.3754V51.3982Z" fill="#E7E7E7"/>
<path id="Vector_8" d="M78.9622 87.003H51.2617V50.8118H78.9622V87.003ZM52.4345 85.8303H77.7895V51.9845H52.4345V85.8303Z" fill="#1B1464"/>
<path id="Vector_9" d="M113.582 51.3982H87.0547V86.4167H113.582V51.3982Z" fill="#E7E7E7"/>
<path id="Vector_10" d="M114.181 87.003H86.4805V50.8118H114.181V87.003ZM87.6532 85.8303H113.008V51.9845H87.6532V85.8303Z" fill="#1B1464"/>
<path id="Vector_11" d="M16.6289 94.9776V109.848H113.581V94.9776H16.6289Z" fill="#61BD73"/>
<path id="Vector_12" d="M114.179 110.435H16.0547V94.3914H114.179V110.435ZM17.2274 109.262H113.006V95.5641H17.2274V109.262Z" fill="#1B1464"/>
</g>
<path id="Vector_13" fill-rule="evenodd" clip-rule="evenodd" d="M72.4977 25.9137L70.6013 27.0065L72.4977 28.0993C72.9701 28.375 73.1461 28.9846 72.8659 29.4548C72.5889 29.925 71.9763 30.0871 71.5039 29.8212L68.1055 27.8561C67.8742 27.7296 67.7243 27.5221 67.6559 27.2919C67.62 27.1881 67.6102 27.0746 67.6102 26.9708C67.6102 26.8897 67.6233 26.8087 67.6461 26.7406C67.7145 26.5006 67.8774 26.2801 68.1088 26.1439L71.4941 24.2015C71.9666 23.9258 72.5791 24.088 72.8561 24.5679C73.1461 25.0284 72.9701 25.638 72.4977 25.9137ZM70.7056 31.1929L67.3072 29.2505C67.1215 29.1467 66.926 29.1013 66.7305 29.124C66.2092 29.1597 65.8052 29.5942 65.8052 30.1131V34.0109C65.8052 34.5622 66.2548 35 66.7989 35C67.3431 35 67.7927 34.5525 67.7927 34.0109V31.8253L69.7118 32.9181C70.1843 33.1938 70.7968 33.0316 71.0771 32.5614C71.3442 32.0782 71.1813 31.4686 70.7089 31.1929H70.7056ZM66.7892 27.3859L65.3783 28.7771C65.3425 28.8225 65.2643 28.8581 65.2056 28.8581H64.7886C64.7299 28.8581 64.6485 28.8225 64.6159 28.7771L63.205 27.3859C63.1692 27.3502 63.1366 27.2724 63.1366 27.214V26.7989C63.1366 26.7406 63.1725 26.6595 63.205 26.6271L64.6159 25.2132C64.6615 25.1678 64.7299 25.1451 64.7886 25.1451H65.2056C65.2643 25.1451 65.3457 25.1808 65.3783 25.2132L66.7892 26.6173C66.825 26.653 66.8576 26.7308 66.8576 26.7892V27.2043C66.8706 27.2627 66.8348 27.3437 66.7892 27.3891V27.3859ZM65.6683 26.9935C65.6683 26.9351 65.6325 26.8541 65.5999 26.8216L65.1959 26.4195C65.16 26.3839 65.0818 26.3514 65.0232 26.3514H65.0101C64.9515 26.3514 64.87 26.3871 64.8374 26.4195L64.4334 26.8216C64.3878 26.867 64.365 26.9481 64.365 26.9935V27.0065C64.365 27.0649 64.4008 27.1459 64.4334 27.1784L64.8374 27.5805C64.8733 27.6161 64.9515 27.6486 65.0101 27.6486H65.0232C65.0818 27.6486 65.1633 27.6129 65.1959 27.5805L65.5999 27.1784C65.6357 27.133 65.6683 27.0649 65.6683 27.0065V26.9935ZM59.2886 22.8071L62.687 24.7495C62.8727 24.8533 63.0682 24.8987 63.2637 24.876C63.785 24.8403 64.189 24.4058 64.189 23.8869V19.9891C64.189 19.4378 63.7394 19 63.1953 19C62.6511 19 62.2015 19.4475 62.2015 19.9891V22.1747L60.3052 21.0819C59.8327 20.8062 59.2202 20.9684 58.94 21.4483C58.65 21.9185 58.8129 22.5282 59.2853 22.8038L59.2886 22.8071ZM66.7305 24.876C66.926 24.8889 67.1248 24.8533 67.3072 24.7495L70.6926 22.8071C71.165 22.5314 71.3279 21.9218 71.0608 21.4516C70.7838 20.9814 70.1713 20.8192 69.6988 21.0851L67.8025 22.1779V19.9923C67.8025 19.441 67.3528 19.0032 66.8087 19.0032C66.2646 19.0032 65.8149 19.4508 65.8149 19.9923V23.8901C65.8149 24.4187 66.219 24.8435 66.7273 24.8792L66.7305 24.876ZM63.2637 29.1208C63.0682 29.1078 62.8694 29.1435 62.687 29.2473L59.2886 31.1897C58.8161 31.4653 58.6532 32.075 58.9204 32.5484C59.1974 33.0186 59.8099 33.1808 60.2824 32.9051L62.1787 31.8123V33.998C62.1787 34.5493 62.6283 34.987 63.1725 34.987C63.7166 34.987 64.1662 34.5395 64.1662 33.998V30.1098C64.189 29.5813 63.785 29.1565 63.2637 29.1208ZM62.3383 27.2919C62.3742 27.1881 62.384 27.0746 62.384 26.9708C62.384 26.8897 62.3709 26.8087 62.3481 26.7406C62.2797 26.5006 62.1168 26.2801 61.8854 26.1439L58.5001 24.1885C58.0276 23.9129 57.4151 24.075 57.1381 24.5549C56.8612 25.0251 57.0241 25.6348 57.5063 25.9104L59.4026 27.0032L57.4965 28.0831C57.0241 28.3587 56.8612 28.9684 57.1284 29.4386C57.4053 29.9088 58.0179 30.0709 58.5033 29.805L61.8887 27.8496C62.12 27.7231 62.2699 27.5156 62.3383 27.2854V27.2919Z" fill="#2BB5E9"/>
</g>
</svg>
