<svg width="140" height="112" viewBox="0 0 140 112" fill="none" xmlns="http://www.w3.org/2000/svg">
<path d="M81.1415 0.830078H6.38669C3.31139 0.830078 0.818359 3.33158 0.818359 6.41735V105.591C0.818359 108.677 3.31139 111.179 6.38669 111.179H81.1415C84.2168 111.179 86.7099 108.677 86.7099 105.591V6.41735C86.7099 3.33158 84.2168 0.830078 81.1415 0.830078Z" fill="white"/>
<path d="M81.1502 112H6.3872C2.86605 112 0 109.124 0 105.591V6.40892C0 2.8758 2.86605 0 6.3872 0H81.1502C84.6714 0 87.5374 2.8758 87.5374 6.40892V105.591C87.5374 109.124 84.6714 112 81.1502 112ZM6.3872 1.65153C3.76681 1.65153 1.63774 3.78784 1.63774 6.41714V105.599C1.63774 108.229 3.76681 110.365 6.3872 110.365H81.1502C83.7706 110.365 85.8997 108.229 85.8997 105.599V6.41714C85.8997 3.78784 83.7706 1.65153 81.1502 1.65153H6.3872Z" fill="#130C49"/>
<path d="M73.321 55.0102H14.2148C13.7808 55.0102 13.4287 54.6569 13.4287 54.2214C13.4287 53.7859 13.7808 53.4326 14.2148 53.4326H73.321C73.755 53.4326 74.1071 53.7859 74.1071 54.2214C74.1071 54.6569 73.755 55.0102 73.321 55.0102Z" fill="#130C49"/>
<path d="M73.321 65.3295H14.2148C13.7808 65.3295 13.4287 64.9762 13.4287 64.5407C13.4287 64.1053 13.7808 63.752 14.2148 63.752H73.321C73.755 63.752 74.1071 64.1053 74.1071 64.5407C74.1071 64.9762 73.755 65.3295 73.321 65.3295Z" fill="#130C49"/>
<path d="M73.321 75.6577H14.2148C13.7808 75.6577 13.4287 75.3044 13.4287 74.8689C13.4287 74.4334 13.7808 74.0801 14.2148 74.0801H73.321C73.755 74.0801 74.1071 74.4334 74.1071 74.8689C74.1071 75.3044 73.755 75.6577 73.321 75.6577Z" fill="#130C49"/>
<path d="M73.321 85.9858H14.2148C13.7808 85.9858 13.4287 85.6325 13.4287 85.197C13.4287 84.7615 13.7808 84.4082 14.2148 84.4082H73.321C73.755 84.4082 74.1071 84.7615 74.1071 85.197C74.1071 85.6325 73.755 85.9858 73.321 85.9858Z" fill="#130C49"/>
<path d="M29.929 96.3061H14.2148C13.7808 96.3061 13.4287 95.9528 13.4287 95.5173C13.4287 95.0818 13.7808 94.7285 14.2148 94.7285H29.929C30.363 94.7285 30.7151 95.0818 30.7151 95.5173C30.7151 95.9528 30.363 96.3061 29.929 96.3061Z" fill="#130C49"/>
<path d="M59.6469 36.1038V20.7306C59.6469 19.7939 59.1474 18.9312 58.3449 18.4629L45.0709 10.7722C44.2603 10.3038 43.2694 10.3038 42.4587 10.7722L29.1848 18.4629C28.3741 18.9312 27.8828 19.7939 27.8828 20.7306V36.1038C27.8828 37.0405 28.3823 37.9033 29.1848 38.3716L42.4587 46.0623C43.2694 46.5306 44.2603 46.5306 45.0709 46.0623L58.3449 38.3716C59.1555 37.9033 59.6469 37.0405 59.6469 36.1038Z" fill="#130C49"/>
<path d="M47.7245 23.1797V28.0603L43.7694 25.7679L39.8142 28.0603V23.1797L35.1221 25.9076V31.0758L39.5685 33.6558L43.7694 31.2237L47.9702 33.6558L52.4167 31.0758V25.9076L47.7245 23.1797Z" fill="#61BB73"/>
<path d="M138.782 22.8418H100.287V32.5784H138.782V22.8418Z" fill="#61BB73"/>
<path d="M130.839 62.2564H99.501V22.0527H139.568V53.4811H137.996V23.6303H101.081V60.6706H130.839V62.2564Z" fill="#130C49"/>
<path d="M138.782 31.7822H100.287V33.3598H138.782V31.7822Z" fill="#130C49"/>
<path d="M130.839 62.24C130.741 62.24 130.634 62.2236 130.536 62.1825C130.241 62.0593 130.053 61.7717 130.053 61.4512V53.4812C130.053 53.0457 130.405 52.6924 130.839 52.6924H138.782C139.101 52.6924 139.388 52.8814 139.511 53.1772C139.634 53.473 139.568 53.8098 139.339 54.0399L131.396 62.01C131.248 62.1579 131.044 62.24 130.839 62.24ZM131.633 54.27V59.545L136.89 54.27H131.633Z" fill="#130C49"/>
<path d="M113.135 80.4316L130.806 92.1238L113.135 103.816V80.4316Z" fill="#61BB73"/>
<path d="M112.349 105.278V78.9688L132.247 92.1235L112.349 105.278ZM113.921 81.8938V102.345L129.381 92.1235L113.921 81.9021V81.8938Z" fill="#130C49"/>
<path d="M134.171 111.967H104.397C101.703 111.967 99.5 109.765 99.5 107.054V77.1782C99.5 74.4749 101.695 72.2646 104.397 72.2646H134.171C136.865 72.2646 139.068 74.4667 139.068 77.1782V107.054C139.068 109.757 136.873 111.967 134.171 111.967ZM104.397 73.8504C102.571 73.8504 101.08 75.3459 101.08 77.1782V107.054C101.08 108.886 102.571 110.381 104.397 110.381H134.171C135.997 110.381 137.487 108.886 137.487 107.054V77.1782C137.487 75.3459 135.997 73.8504 134.171 73.8504H104.397Z" fill="#130C49"/>
</svg>
