<svg width="109" height="123" viewBox="0 0 109 123" fill="none" xmlns="http://www.w3.org/2000/svg">
<path d="M54.0247 122.792C52.6826 122.792 51.3405 122.443 50.1514 121.753L3.87331 94.9449C1.48118 93.5564 0 90.9747 0 88.2046V34.5893C0 31.8192 1.48813 29.2376 3.87331 27.849L50.1514 1.0414C52.5435 -0.347132 55.5128 -0.347132 57.9049 1.0414L104.183 27.849C106.575 29.2376 108.056 31.8192 108.056 34.5893V88.2116C108.056 90.9816 106.568 93.5633 104.183 94.9519L57.9049 121.759C56.7089 122.45 55.3668 122.799 54.0316 122.799L54.0247 122.792ZM54.0247 1.39725C52.926 1.39725 51.8272 1.68333 50.8467 2.24851L4.5687 29.0561C2.6077 30.1935 1.39078 32.3146 1.39078 34.5823V88.2046C1.39078 90.4793 2.6077 92.5935 4.5687 93.7308L50.8467 120.538C52.8077 121.676 55.2485 121.676 57.2095 120.538L103.488 93.7308C105.449 92.5935 106.666 90.4723 106.666 88.2046V34.5893C106.666 32.3146 105.449 30.2005 103.488 29.0631L57.2095 2.24851C56.229 1.68333 55.1303 1.39725 54.0316 1.39725H54.0247Z" fill="#130C49"/>
<path d="M54.0312 61.5713L53.9547 61.5295L0.945312 32.5309L1.09134 32.2657L54.0243 61.2225L106.345 31.3936L106.498 31.6587L54.0312 61.5713Z" fill="#130C49"/>
<path d="M61.0404 90.7783H52.209V99.6398H61.0404V90.7783Z" fill="white"/>
<path d="M61.3467 99.9472H51.9033V90.4717H61.3467V99.9472ZM52.5153 99.3331H60.7417V91.0787H52.5153V99.3331Z" fill="#130C49"/>
<path d="M69.6976 100.003H60.8662V108.864H69.6976V100.003Z" fill="white"/>
<path d="M69.9971 109.172H60.5537V99.6963H69.9971V109.172ZM61.1657 108.565H69.3921V100.31H61.1657V108.565Z" fill="#130C49"/>
<path d="M98.3343 46.3945H89.5029V55.256H98.3343V46.3945Z" fill="#61BB73"/>
<path d="M98.6406 55.5634H89.1973V46.0879H98.6406V55.5634ZM89.8092 54.9563H98.0356V46.7019H89.8092V54.9563Z" fill="#130C49"/>
<path d="M82.4655 56.2266H78.0498V60.6573H82.4655V56.2266Z" fill="#130C49"/>
<path d="M28.6286 64.502H24.2129V68.9327H28.6286V64.502Z" fill="#130C49"/>
<path d="M100.066 61.3965H95.6504V65.8272H100.066V61.3965Z" fill="#130C49"/>
<path d="M15.819 58.124H11.4033V62.5547H15.819V58.124Z" fill="#130C49"/>
<path d="M15.819 51.2021H11.4033V55.6329H15.819V51.2021Z" fill="#130C49"/>
<path d="M15.819 44.2803H11.4033V48.711H15.819V44.2803Z" fill="#130C49"/>
<path d="M15.819 37.3662H11.4033V41.7969H15.819V37.3662Z" fill="white"/>
<path d="M16.1185 42.0965H11.0908V37.0518H16.1185V42.0965ZM11.7028 41.4895H15.5135V37.6658H11.7028V41.4895Z" fill="#130C49"/>
<path d="M25.5287 79.0213L17.0762 70.54L8.62362 79.0213L17.0762 87.5026L25.5287 79.0213Z" fill="#61BB73"/>
<path d="M17.0783 87.9389L8.19824 79.0216L17.0783 70.1113L25.9654 79.0216L17.0783 87.9389ZM9.05357 79.0216L17.0783 87.0737L25.1031 79.0216L17.0783 70.9696L9.05357 79.0216Z" fill="#130C49"/>
<path d="M39.4769 36.4102V28.1279L32.3283 23.9902L25.1797 28.1279V36.4102L32.3283 40.5479L39.4769 36.4102Z" fill="#61BB73"/>
<path d="M32.3285 40.9041L24.8809 36.585V27.9539L32.3285 23.6348L39.783 27.9539V36.585L32.3285 40.9041ZM25.4858 36.2362L32.3285 40.1994L39.1711 36.2362V28.3097L32.3285 24.3465L25.4858 28.3097V36.2362Z" fill="#130C49"/>
<path d="M42.8981 18.9662C44.5726 18.9662 45.93 17.6042 45.93 15.924C45.93 14.2439 44.5726 12.8818 42.8981 12.8818C41.2236 12.8818 39.8662 14.2439 39.8662 15.924C39.8662 17.6042 41.2236 18.9662 42.8981 18.9662Z" fill="white"/>
<path d="M42.8983 19.2665C41.0625 19.2665 39.5674 17.7663 39.5674 15.9243C39.5674 14.0822 41.0625 12.582 42.8983 12.582C44.7341 12.582 46.2292 14.0822 46.2292 15.9243C46.2292 17.7663 44.7341 19.2665 42.8983 19.2665ZM42.8983 13.1891C41.3963 13.1891 40.1724 14.4171 40.1724 15.9243C40.1724 17.4314 41.3963 18.6595 42.8983 18.6595C44.4003 18.6595 45.6242 17.4314 45.6242 15.9243C45.6242 14.4171 44.4003 13.1891 42.8983 13.1891Z" fill="#130C49"/>
<path d="M51.7506 18.9662C53.4251 18.9662 54.7825 17.6042 54.7825 15.924C54.7825 14.2439 53.4251 12.8818 51.7506 12.8818C50.0762 12.8818 48.7188 14.2439 48.7188 15.924C48.7188 17.6042 50.0762 18.9662 51.7506 18.9662Z" fill="#130C49"/>
<path d="M60.6022 18.9662C62.2767 18.9662 63.6341 17.6042 63.6341 15.924C63.6341 14.2439 62.2767 12.8818 60.6022 12.8818C58.9277 12.8818 57.5703 14.2439 57.5703 15.924C57.5703 17.6042 58.9277 18.9662 60.6022 18.9662Z" fill="#61BB73"/>
<path d="M60.6024 19.2665C58.7666 19.2665 57.2715 17.7663 57.2715 15.9243C57.2715 14.0822 58.7666 12.582 60.6024 12.582C62.4382 12.582 63.9333 14.0822 63.9333 15.9243C63.9333 17.7663 62.4382 19.2665 60.6024 19.2665ZM60.6024 13.1891C59.1004 13.1891 57.8765 14.4171 57.8765 15.9243C57.8765 17.4314 59.1004 18.6595 60.6024 18.6595C62.1044 18.6595 63.3283 17.4314 63.3283 15.9243C63.3283 14.4171 62.1044 13.1891 60.6024 13.1891Z" fill="#130C49"/>
<path d="M83.2858 75.8188C84.9603 75.8188 86.3177 74.4567 86.3177 72.7766C86.3177 71.0964 84.9603 69.7344 83.2858 69.7344C81.6113 69.7344 80.2539 71.0964 80.2539 72.7766C80.2539 74.4567 81.6113 75.8188 83.2858 75.8188Z" fill="#61BB73"/>
<path d="M83.286 76.119C81.4502 76.119 79.9551 74.6189 79.9551 72.7768C79.9551 70.9347 81.4502 69.4346 83.286 69.4346C85.1218 69.4346 86.6169 70.9347 86.6169 72.7768C86.6169 74.6189 85.1218 76.119 83.286 76.119ZM83.286 70.0416C81.7839 70.0416 80.5601 71.2697 80.5601 72.7768C80.5601 74.2839 81.7839 75.512 83.286 75.512C84.788 75.512 86.0119 74.2839 86.0119 72.7768C86.0119 71.2697 84.788 70.0416 83.286 70.0416Z" fill="#130C49"/>
<path d="M37.2513 82.4409L38.6351 83.8434C38.9341 84.1434 39.0871 84.4016 39.0871 84.6109C39.0871 84.8202 38.9341 85.0784 38.6351 85.3714C38.3361 85.6645 38.0788 85.818 37.8771 85.818C37.6755 85.818 37.4182 85.6645 37.1191 85.3645L35.7492 83.9759L34.3654 85.3645C34.0664 85.6645 33.8161 85.818 33.6074 85.818C33.3988 85.818 33.1485 85.6715 32.8495 85.3714C32.5435 85.0784 32.3975 84.8202 32.3975 84.6109C32.3975 84.4016 32.5504 84.1434 32.8495 83.8434L34.2333 82.4409L32.8495 81.0384C32.5504 80.7384 32.3975 80.4802 32.3975 80.2709C32.3975 80.0615 32.5504 79.8034 32.8495 79.5033C33.1554 79.2033 33.4058 79.0498 33.6074 79.0498C33.8091 79.0498 34.0594 79.2033 34.3654 79.5033L35.7492 80.9058L37.1191 79.5033C37.4182 79.2033 37.6685 79.0498 37.8771 79.0498C38.0857 79.0498 38.3361 79.2033 38.6351 79.5033C38.9341 79.8034 39.0871 80.0615 39.0871 80.2709C39.0871 80.4802 38.9341 80.7384 38.6351 81.0384L37.2513 82.4409Z" fill="#130C49"/>
<path d="M53.8089 28.0932L55.1927 29.4957C55.4917 29.7957 55.6447 30.0539 55.6447 30.2632C55.6447 30.4726 55.4917 30.7307 55.1927 31.0238C54.8937 31.3168 54.6364 31.4703 54.4347 31.4703C54.2331 31.4703 53.9758 31.3168 53.6768 31.0168L52.3068 29.6283L50.923 31.0168C50.624 31.3168 50.3737 31.4703 50.1651 31.4703C49.9564 31.4703 49.7061 31.3238 49.4071 31.0238C49.1011 30.7307 48.9551 30.4726 48.9551 30.2632C48.9551 30.0539 49.1081 29.7957 49.4071 29.4957L50.7909 28.0932L49.4071 26.6907C49.1081 26.3907 48.9551 26.1325 48.9551 25.9232C48.9551 25.7139 49.1081 25.4557 49.4071 25.1557C49.7131 24.8557 49.9634 24.7021 50.1651 24.7021C50.3667 24.7021 50.6171 24.8557 50.923 25.1557L52.3068 26.5582L53.6768 25.1557C53.9758 24.8557 54.2261 24.7021 54.4347 24.7021C54.6434 24.7021 54.8937 24.8557 55.1927 25.1557C55.4917 25.4557 55.6447 25.7139 55.6447 25.9232C55.6447 26.1325 55.4917 26.3907 55.1927 26.6907L53.8089 28.0932Z" fill="#130C49"/>
<path d="M74.3577 90.2143H71.4788C71.3119 90.2143 71.1729 90.0747 71.1729 89.9073V83.0902C71.1729 82.9228 71.3119 82.7832 71.4788 82.7832H74.2882C74.4551 82.7832 74.5942 82.9228 74.5942 83.0902C74.5942 83.2577 74.4551 83.3972 74.2882 83.3972H71.7848V89.6072H74.3647C74.5316 89.6072 74.6707 89.7468 74.6707 89.9142C74.6707 90.0817 74.5316 90.2212 74.3647 90.2212L74.3577 90.2143Z" fill="#130C49"/>
<path d="M93.4604 90.2144H90.651C90.4841 90.2144 90.345 90.0749 90.345 89.9074C90.345 89.7399 90.4841 89.6004 90.651 89.6004H93.1544V83.3904H90.5745C90.4076 83.3904 90.2686 83.2508 90.2686 83.0834C90.2686 82.9159 90.4076 82.7764 90.5745 82.7764H93.4534C93.6203 82.7764 93.7594 82.9159 93.7594 83.0834V89.9004C93.7594 90.0679 93.6203 90.2074 93.4534 90.2074L93.4604 90.2144Z" fill="#130C49"/>
<path d="M88.7936 87.158H88.1886C88.0217 87.158 87.8827 87.0184 87.8827 86.851C87.8827 86.6835 88.0217 86.5439 88.1886 86.5439H88.7936C88.9605 86.5439 89.0996 86.6835 89.0996 86.851C89.0996 87.0184 88.9605 87.158 88.7936 87.158ZM86.9648 87.158H86.3598C86.1929 87.158 86.0538 87.0184 86.0538 86.851C86.0538 86.6835 86.1929 86.5439 86.3598 86.5439H86.9648C87.1316 86.5439 87.2707 86.6835 87.2707 86.851C87.2707 87.0184 87.1316 87.158 86.9648 87.158ZM85.1428 87.158H84.5379C84.371 87.158 84.2319 87.0184 84.2319 86.851C84.2319 86.6835 84.371 86.5439 84.5379 86.5439H85.1428C85.3097 86.5439 85.4488 86.6835 85.4488 86.851C85.4488 87.0184 85.3097 87.158 85.1428 87.158ZM83.314 87.158H82.709C82.5421 87.158 82.403 87.0184 82.403 86.851C82.403 86.6835 82.5421 86.5439 82.709 86.5439H83.314C83.4809 86.5439 83.6199 86.6835 83.6199 86.851C83.6199 87.0184 83.4809 87.158 83.314 87.158ZM81.4921 87.158H80.8871C80.7202 87.158 80.5811 87.0184 80.5811 86.851C80.5811 86.6835 80.7202 86.5439 80.8871 86.5439H81.4921C81.6589 86.5439 81.798 86.6835 81.798 86.851C81.798 87.0184 81.6589 87.158 81.4921 87.158ZM79.6701 87.158H79.0652C78.8983 87.158 78.7592 87.0184 78.7592 86.851C78.7592 86.6835 78.8983 86.5439 79.0652 86.5439H79.6701C79.837 86.5439 79.9761 86.6835 79.9761 86.851C79.9761 87.0184 79.837 87.158 79.6701 87.158ZM77.8413 87.158H77.2363C77.0694 87.158 76.9303 87.0184 76.9303 86.851C76.9303 86.6835 77.0694 86.5439 77.2363 86.5439H77.8413C78.0082 86.5439 78.1472 86.6835 78.1472 86.851C78.1472 87.0184 78.0082 87.158 77.8413 87.158ZM76.0194 87.158H75.4144C75.2475 87.158 75.1084 87.0184 75.1084 86.851C75.1084 86.6835 75.2475 86.5439 75.4144 86.5439H76.0194C76.1863 86.5439 76.3253 86.6835 76.3253 86.851C76.3253 87.0184 76.1863 87.158 76.0194 87.158Z" fill="#130C49"/>
<path d="M25.9515 99.724H23.0726C22.9057 99.724 22.7666 99.5845 22.7666 99.417V92.6C22.7666 92.4325 22.9057 92.293 23.0726 92.293H25.8819C26.0488 92.293 26.1879 92.4325 26.1879 92.6C26.1879 92.7674 26.0488 92.907 25.8819 92.907H23.3785V99.117H25.9584C26.1253 99.117 26.2644 99.2565 26.2644 99.424C26.2644 99.5915 26.1253 99.731 25.9584 99.731L25.9515 99.724Z" fill="#130C49"/>
<path d="M45.0541 99.7242H42.2448C42.0779 99.7242 41.9388 99.5846 41.9388 99.4172C41.9388 99.2497 42.0779 99.1101 42.2448 99.1101H44.7482V92.9002H42.1683C42.0014 92.9002 41.8623 92.7606 41.8623 92.5931C41.8623 92.4257 42.0014 92.2861 42.1683 92.2861H45.0472C45.2141 92.2861 45.3531 92.4257 45.3531 92.5931V99.4102C45.3531 99.5776 45.2141 99.7172 45.0472 99.7172L45.0541 99.7242Z" fill="#130C49"/>
<path d="M40.3874 96.6677H39.7824C39.6155 96.6677 39.4764 96.5282 39.4764 96.3607C39.4764 96.1933 39.6155 96.0537 39.7824 96.0537H40.3874C40.5543 96.0537 40.6933 96.1933 40.6933 96.3607C40.6933 96.5282 40.5543 96.6677 40.3874 96.6677ZM38.5655 96.6677H37.9605C37.7936 96.6677 37.6545 96.5282 37.6545 96.3607C37.6545 96.1933 37.7936 96.0537 37.9605 96.0537H38.5655C38.7324 96.0537 38.8714 96.1933 38.8714 96.3607C38.8714 96.5282 38.7324 96.6677 38.5655 96.6677ZM36.7366 96.6677H36.1316C35.9647 96.6677 35.8256 96.5282 35.8256 96.3607C35.8256 96.1933 35.9647 96.0537 36.1316 96.0537H36.7366C36.9035 96.0537 37.0426 96.1933 37.0426 96.3607C37.0426 96.5282 36.9035 96.6677 36.7366 96.6677ZM34.9147 96.6677H34.3097C34.1428 96.6677 34.0037 96.5282 34.0037 96.3607C34.0037 96.1933 34.1428 96.0537 34.3097 96.0537H34.9147C35.0816 96.0537 35.2206 96.1933 35.2206 96.3607C35.2206 96.5282 35.0816 96.6677 34.9147 96.6677ZM33.0858 96.6677H32.4808C32.3139 96.6677 32.1748 96.5282 32.1748 96.3607C32.1748 96.1933 32.3139 96.0537 32.4808 96.0537H33.0858C33.2527 96.0537 33.3918 96.1933 33.3918 96.3607C33.3918 96.5282 33.2527 96.6677 33.0858 96.6677ZM31.2639 96.6677H30.6589C30.492 96.6677 30.3529 96.5282 30.3529 96.3607C30.3529 96.1933 30.492 96.0537 30.6589 96.0537H31.2639C31.4308 96.0537 31.5699 96.1933 31.5699 96.3607C31.5699 96.5282 31.4308 96.6677 31.2639 96.6677ZM29.442 96.6677H28.837C28.6701 96.6677 28.531 96.5282 28.531 96.3607C28.531 96.1933 28.6701 96.0537 28.837 96.0537H29.442C29.6089 96.0537 29.7479 96.1933 29.7479 96.3607C29.7479 96.5282 29.6089 96.6677 29.442 96.6677ZM27.6131 96.6677H27.0081C26.8412 96.6677 26.7021 96.5282 26.7021 96.3607C26.7021 96.1933 26.8412 96.0537 27.0081 96.0537H27.6131C27.78 96.0537 27.9191 96.1933 27.9191 96.3607C27.9191 96.5282 27.78 96.6677 27.6131 96.6677Z" fill="#130C49"/>
<path d="M71.931 35.1127H69.0521C68.8852 35.1127 68.7461 34.9732 68.7461 34.8057V27.9887C68.7461 27.8212 68.8852 27.6816 69.0521 27.6816H71.8614C72.0283 27.6816 72.1674 27.8212 72.1674 27.9887C72.1674 28.1561 72.0283 28.2957 71.8614 28.2957H69.358V34.5057H71.9379C72.1048 34.5057 72.2439 34.6452 72.2439 34.8127C72.2439 34.9801 72.1048 35.1197 71.9379 35.1197L71.931 35.1127Z" fill="#130C49"/>
<path d="M91.0336 35.1128H88.2243C88.0574 35.1128 87.9183 34.9733 87.9183 34.8058C87.9183 34.6384 88.0574 34.4988 88.2243 34.4988H90.7277V28.2888H88.1478C87.9809 28.2888 87.8418 28.1493 87.8418 27.9818C87.8418 27.8144 87.9809 27.6748 88.1478 27.6748H91.0267C91.1936 27.6748 91.3326 27.8144 91.3326 27.9818V34.7989C91.3326 34.9663 91.1936 35.1059 91.0267 35.1059L91.0336 35.1128Z" fill="#130C49"/>
<path d="M86.3669 32.0632H85.7619C85.595 32.0632 85.4559 31.9237 85.4559 31.7562C85.4559 31.5888 85.595 31.4492 85.7619 31.4492H86.3669C86.5338 31.4492 86.6728 31.5888 86.6728 31.7562C86.6728 31.9237 86.5338 32.0632 86.3669 32.0632ZM84.538 32.0632H83.933C83.7661 32.0632 83.627 31.9237 83.627 31.7562C83.627 31.5888 83.7661 31.4492 83.933 31.4492H84.538C84.7049 31.4492 84.844 31.5888 84.844 31.7562C84.844 31.9237 84.7049 32.0632 84.538 32.0632ZM82.7161 32.0632H82.1111C81.9442 32.0632 81.8051 31.9237 81.8051 31.7562C81.8051 31.5888 81.9442 31.4492 82.1111 31.4492H82.7161C82.883 31.4492 83.0221 31.5888 83.0221 31.7562C83.0221 31.9237 82.883 32.0632 82.7161 32.0632ZM80.8942 32.0632H80.2892C80.1223 32.0632 79.9832 31.9237 79.9832 31.7562C79.9832 31.5888 80.1223 31.4492 80.2892 31.4492H80.8942C81.0611 31.4492 81.2001 31.5888 81.2001 31.7562C81.2001 31.9237 81.0611 32.0632 80.8942 32.0632ZM79.0653 32.0632H78.4603C78.2934 32.0632 78.1543 31.9237 78.1543 31.7562C78.1543 31.5888 78.2934 31.4492 78.4603 31.4492H79.0653C79.2322 31.4492 79.3713 31.5888 79.3713 31.7562C79.3713 31.9237 79.2322 32.0632 79.0653 32.0632ZM77.2434 32.0632H76.6384C76.4715 32.0632 76.3324 31.9237 76.3324 31.7562C76.3324 31.5888 76.4715 31.4492 76.6384 31.4492H77.2434C77.4103 31.4492 77.5494 31.5888 77.5494 31.7562C77.5494 31.9237 77.4103 32.0632 77.2434 32.0632ZM75.4215 32.0632H74.8165C74.6496 32.0632 74.5105 31.9237 74.5105 31.7562C74.5105 31.5888 74.6496 31.4492 74.8165 31.4492H75.4215C75.5884 31.4492 75.7274 31.5888 75.7274 31.7562C75.7274 31.9237 75.5884 32.0632 75.4215 32.0632ZM73.5926 32.0632H72.9876C72.8207 32.0632 72.6816 31.9237 72.6816 31.7562C72.6816 31.5888 72.8207 31.4492 72.9876 31.4492H73.5926C73.7595 31.4492 73.8986 31.5888 73.8986 31.7562C73.8986 31.9237 73.7595 32.0632 73.5926 32.0632Z" fill="#130C49"/>
<path d="M70.2201 69.2394V53.5609C70.2201 52.605 69.7125 51.7258 68.892 51.2513L55.3597 43.4086C54.5391 42.9341 53.5239 42.9341 52.6964 43.4086L39.1641 51.2513C38.3436 51.7258 37.8359 52.6119 37.8359 53.5609V69.2394C37.8359 70.1953 38.3436 71.0745 39.1641 71.5489L52.6964 79.3917C53.5169 79.8661 54.5322 79.8661 55.3597 79.3917L68.892 71.5489C69.7125 71.0745 70.2201 70.1883 70.2201 69.2394Z" fill="#130C49"/>
<path d="M58.0578 56.0518V61.0407L54.0315 58.6962L49.9913 61.0407V56.0518L45.207 58.8358V64.1108L49.741 66.7413L54.0315 64.2573L58.3081 66.7413L62.849 64.1108V58.8428L58.0578 56.0518Z" fill="#61BB73"/>
</svg>
