<svg width="171" height="138" viewBox="0 0 171 138" fill="none" xmlns="http://www.w3.org/2000/svg">
<g id="Layer_1" clip-path="url(#clip0_2862_3703)">
<path id="Vector" d="M170.088 124.658V116.502C170.088 115.995 169.813 115.527 169.369 115.267L162.264 111.195C161.819 110.935 161.269 110.935 160.824 111.195L153.72 115.267C153.275 115.527 153 115.995 153 116.502V124.658C153 125.166 153.275 125.634 153.72 125.894L160.824 129.965C161.269 130.226 161.819 130.226 162.264 129.965L169.369 125.894C169.813 125.634 170.088 125.166 170.088 124.658Z" fill="#61B973"/>
<path id="Vector_2" d="M18.0882 109.658V101.502C18.0882 100.995 17.8134 100.527 17.3686 100.267L10.2638 96.1951C9.81888 95.935 9.26934 95.935 8.82447 96.1951L1.71964 100.267C1.27477 100.527 1 100.995 1 101.502V109.658C1 110.166 1.27477 110.634 1.71964 110.894L8.82447 114.965C9.26934 115.226 9.81888 115.226 10.2638 114.965L17.3686 110.894C17.8134 110.634 18.0882 110.166 18.0882 109.658Z" fill="#61B973"/>
<path id="Vector_3" d="M107.502 35.6541V14.7505C107.502 13.4498 106.795 12.24 105.657 11.5896L87.4562 1.13135C86.3179 0.480957 84.9179 0.480957 83.7795 1.13135L65.566 11.5766C64.4277 12.227 63.7211 13.4368 63.7211 14.7375V35.6411C63.7211 36.9419 64.4277 38.1516 65.566 38.802L83.7795 49.2473C84.9179 49.8977 86.3179 49.8977 87.4562 49.2473L105.67 38.802C106.808 38.1516 107.515 36.9419 107.515 35.6411L107.502 35.6541Z" fill="#61B973"/>
<path id="Vector_4" d="M85.6113 50.4186C84.8655 50.4186 84.1066 50.2235 83.4393 49.8463L65.2258 39.401C63.8912 38.6336 63.0538 37.2027 63.0538 35.6678V14.7512C63.0538 13.2163 63.8781 11.7854 65.2258 11.0179L83.4524 0.572667C84.787 -0.194795 86.4487 -0.194795 87.7833 0.572667L105.997 11.031C107.331 11.7984 108.169 13.2293 108.169 14.7642V35.6678C108.169 37.2027 107.345 38.6336 105.997 39.401L87.7833 49.8463C87.116 50.2235 86.3702 50.4186 85.6113 50.4186ZM85.6113 1.3011C85.088 1.3011 84.5646 1.43118 84.0935 1.70435L65.8801 12.1626C64.9511 12.696 64.3623 13.6976 64.3623 14.7642V35.6678C64.3623 36.7344 64.938 37.736 65.8801 38.2693L84.0935 48.7146C85.0225 49.2479 86.1871 49.2479 87.116 48.7146L105.33 38.2693C106.259 37.736 106.847 36.7344 106.847 35.6678V14.7512C106.847 13.6846 106.272 12.683 105.33 12.1496L87.116 1.69134C86.645 1.41817 86.1216 1.2881 85.5983 1.2881L85.6113 1.3011Z" fill="#131144"/>
<path id="Vector_5" d="M22.5446 138C21.7988 138 21.053 137.805 20.3726 137.428L2.15913 126.983C0.824523 126.215 -0.0128784 124.784 -0.0128784 123.25V102.346C-0.0128784 100.811 0.811439 99.3801 2.15913 98.6127L20.3726 88.1674C21.7072 87.3999 23.3689 87.3999 24.7036 88.1674L42.917 98.6127C44.2516 99.3801 45.089 100.811 45.089 102.346V123.25C45.089 124.784 44.2647 126.215 42.917 126.983L24.7036 137.428C24.0362 137.805 23.2904 138 22.5315 138H22.5446ZM22.5446 88.8828C22.0212 88.8828 21.4979 89.0129 21.0268 89.2861L2.81335 99.7313C1.88436 100.265 1.29556 101.266 1.29556 102.333V123.236C1.29556 124.303 1.87128 125.305 2.81335 125.838L21.0268 136.283C21.9558 136.817 23.1203 136.817 24.0493 136.283L42.2628 125.838C43.1918 125.305 43.7806 124.303 43.7806 123.236V102.333C43.7806 101.266 43.2049 100.265 42.2628 99.7313L24.0493 89.2861C23.5783 89.0129 23.0549 88.8828 22.5315 88.8828H22.5446Z" fill="#131144"/>
<path id="Vector_6" d="M85.5067 138C84.7608 138 84.002 137.805 83.3346 137.428L65.1212 126.983C63.7866 126.215 62.9492 124.784 62.9492 123.25V102.346C62.9492 100.811 63.7735 99.3801 65.1212 98.6127L83.3346 88.1674C84.6693 87.3999 86.331 87.3999 87.6656 88.1674L105.879 98.6127C107.214 99.3801 108.051 100.811 108.051 102.346V123.25C108.051 124.784 107.227 126.215 105.879 126.983L87.6656 137.428C86.9983 137.805 86.2525 138 85.4936 138H85.5067ZM85.5067 88.8828C84.9833 88.8828 84.4599 89.0129 83.9889 89.2861L65.7754 99.7313C64.8464 100.265 64.2576 101.266 64.2576 102.333V123.236C64.2576 124.303 64.8333 125.305 65.7754 125.838L83.9889 136.283C84.9179 136.817 86.0824 136.817 87.0114 136.283L105.225 125.838C106.154 125.305 106.743 124.303 106.743 123.236V102.333C106.743 101.266 106.167 100.265 105.225 99.7313L87.0114 89.2861C86.5403 89.0129 86.0169 88.8828 85.4936 88.8828H85.5067Z" fill="#131144"/>
<path id="Vector_7" d="M94.0882 116.658V108.502C94.0882 107.995 93.8135 107.527 93.3686 107.267L86.2638 103.195C85.8189 102.935 85.2693 102.935 84.8245 103.195L77.7196 107.267C77.2748 107.527 77 107.995 77 108.502V116.658C77 117.166 77.2748 117.634 77.7196 117.894L84.8245 121.965C85.2693 122.226 85.8189 122.226 86.2638 121.965L93.3686 117.894C93.8135 117.634 94.0882 117.166 94.0882 116.658Z" fill="#61B973"/>
<path id="Vector_8" d="M148.456 138C147.71 138 146.951 137.805 146.284 137.428L128.07 126.983C126.736 126.215 125.898 124.784 125.898 123.25V102.346C125.898 100.811 126.723 99.3801 128.07 98.6127L146.284 88.1674C147.618 87.3999 149.28 87.3999 150.615 88.1674L168.828 98.6127C170.163 99.3801 171 100.811 171 102.346V123.25C171 124.784 170.176 126.215 168.828 126.983L150.615 137.428C149.947 137.805 149.201 138 148.443 138H148.456ZM148.456 88.8828C147.932 88.8828 147.409 89.0129 146.938 89.2861L128.724 99.7313C127.795 100.265 127.207 101.266 127.207 102.333V123.236C127.207 124.303 127.782 125.305 128.724 125.838L146.938 136.283C147.867 136.817 149.031 136.817 149.96 136.283L168.174 125.838C169.103 125.305 169.692 124.303 169.692 123.236V102.333C169.692 101.266 169.116 100.265 168.174 99.7313L149.96 89.2861C149.489 89.0129 148.966 88.8828 148.443 88.8828H148.456Z" fill="#131144"/>
<path id="Vector_9" d="M106.863 55.3488L105.938 56.2686L124.525 74.7472L125.45 73.8274L106.863 55.3488Z" fill="#131144"/>
<path id="Vector_10" d="M125.493 69.5264L124.577 69.5524L124.734 74.0401L120.22 73.884L120.193 74.7945L125.689 74.9897L125.493 69.5264Z" fill="#131144"/>
<path id="Vector_11" d="M64.3687 55.3524L45.7813 73.8311L46.7065 74.7508L65.2939 56.2722L64.3687 55.3524Z" fill="#131144"/>
<path id="Vector_12" d="M45.7432 69.5264L46.6591 69.5524L46.489 74.0401L51.0031 73.884L51.0293 74.7945L45.5338 74.9897L45.7432 69.5264Z" fill="#131144"/>
<path id="Vector_13" d="M86.2656 55.8555H84.9571V81.2988H86.2656V55.8555Z" fill="#131144"/>
<path id="Vector_14" d="M81.8692 78.2676L82.5365 77.6562L85.6113 80.9342L88.6862 77.6562L89.3535 78.2676L85.6113 82.274L81.8692 78.2676Z" fill="#131144"/>
</g>
<defs>
<clipPath id="clip0_2862_3703">
<rect width="171" height="138" fill="white"/>
</clipPath>
</defs>
</svg>
