<svg width="131" height="114" viewBox="0 0 131 114" fill="none" xmlns="http://www.w3.org/2000/svg">
<path d="M23.4193 48.4541H0.577148V77.8H23.4193V48.4541Z" fill="white"/>
<path d="M24.002 78.3847H0V47.875H24.002V78.3847ZM1.15278 77.2209H22.8421V49.0317H1.15278V77.2209Z" fill="#130C49"/>
<path d="M19.8617 59.37H4.14263C3.92204 59.37 3.74414 59.1915 3.74414 58.9702C3.74414 58.7488 3.92204 58.5703 4.14263 58.5703H19.8617C20.0823 58.5703 20.2602 58.7488 20.2602 58.9702C20.2602 59.1915 20.0823 59.37 19.8617 59.37Z" fill="#130C49"/>
<path d="M19.8617 61.9266H4.14263C3.92204 61.9266 3.74414 61.7481 3.74414 61.5268C3.74414 61.3055 3.92204 61.127 4.14263 61.127H19.8617C20.0823 61.127 20.2602 61.3055 20.2602 61.5268C20.2602 61.7481 20.0823 61.9266 19.8617 61.9266Z" fill="#130C49"/>
<path d="M19.8617 64.4891H4.14263C3.92204 64.4891 3.74414 64.3106 3.74414 64.0893C3.74414 63.868 3.92204 63.6895 4.14263 63.6895H19.8617C20.0823 63.6895 20.2602 63.868 20.2602 64.0893C20.2602 64.3106 20.0823 64.4891 19.8617 64.4891Z" fill="#130C49"/>
<path d="M19.8617 67.0458H4.14263C3.92204 67.0458 3.74414 66.8673 3.74414 66.6459C3.74414 66.4246 3.92204 66.2461 4.14263 66.2461H19.8617C20.0823 66.2461 20.2602 66.4246 20.2602 66.6459C20.2602 66.8673 20.0823 67.0458 19.8617 67.0458Z" fill="#130C49"/>
<path d="M19.8617 71.6434H4.14263C3.92204 71.6434 3.74414 71.4649 3.74414 71.2436C3.74414 71.0223 3.92204 70.8438 4.14263 70.8438H19.8617C20.0823 70.8438 20.2602 71.0223 20.2602 71.2436C20.2602 71.4649 20.0823 71.6434 19.8617 71.6434Z" fill="#130C49"/>
<path d="M8.32029 74.1934H4.14269C3.92206 74.1934 3.74414 74.0148 3.74414 73.7935C3.74414 73.5721 3.92206 73.3936 4.14269 73.3936H8.32029C8.54092 73.3936 8.71884 73.5721 8.71884 73.7935C8.71884 74.0148 8.54092 74.1934 8.32029 74.1934Z" fill="#130C49"/>
<path d="M6.80234 52.3877H4.14062V55.4798H6.80234V52.3877Z" fill="#61BB73"/>
<path d="M117.073 38.0068H35.4173C33.6174 38.0068 32.1582 39.4709 32.1582 41.277V55.2502C32.1582 57.0563 33.6174 58.5204 35.4173 58.5204H117.073C118.872 58.5204 120.332 57.0563 120.332 55.2502V41.277C120.332 39.4709 118.872 38.0068 117.073 38.0068Z" fill="white"/>
<path d="M117.071 59.0776H35.4089C33.3097 59.0776 31.5947 57.364 31.5947 55.2505V41.2773C31.5947 39.171 33.3025 37.4502 35.4089 37.4502H117.071C119.17 37.4502 120.885 39.1638 120.885 41.2773V55.2505C120.885 57.3568 119.178 59.0776 117.071 59.0776ZM35.4089 38.5641C33.9216 38.5641 32.7119 39.7779 32.7119 41.2773V55.2505C32.7119 56.7428 33.9216 57.9566 35.4089 57.9566H117.071C118.558 57.9566 119.768 56.7428 119.768 55.2505V41.2773C119.768 39.785 118.558 38.5641 117.071 38.5641H35.4089Z" fill="#130C49"/>
<path d="M81.6755 0.564453H62.555C60.755 0.564453 59.2959 2.02855 59.2959 3.83462V23.0201C59.2959 24.8262 60.755 26.2903 62.555 26.2903H81.6755C83.4754 26.2903 84.9346 24.8262 84.9346 23.0201V3.83462C84.9346 2.02855 83.4754 0.564453 81.6755 0.564453Z" fill="#61BB73"/>
<path d="M81.683 26.8469H62.5553C60.4561 26.8469 58.7412 25.1332 58.7412 23.0197V3.8271C58.7412 1.72076 60.449 0 62.5553 0H81.683C83.7822 0 85.4971 1.71362 85.4971 3.8271V23.0197C85.4971 25.1261 83.7893 26.8469 81.683 26.8469ZM62.5553 1.121C61.0681 1.121 59.8584 2.33482 59.8584 3.83424V23.0269C59.8584 24.5192 61.0681 25.7401 62.5553 25.7401H81.683C83.1702 25.7401 84.387 24.5263 84.387 23.0269V3.83424C84.387 2.34196 83.1773 1.121 81.683 1.121H62.5553Z" fill="#130C49"/>
<path d="M73.8771 20.2431C72.7599 20.2431 71.6499 20.2431 70.5327 20.2431C70.3548 20.2431 70.1982 20.2074 70.063 20.1003C69.8353 19.929 69.6005 19.7719 69.387 19.5862C68.9031 19.1793 68.6612 18.6866 68.6754 18.0154C68.711 16.1804 68.6967 14.3383 68.6825 12.5032C68.6825 12.0463 68.8319 11.7035 69.1806 11.4037C69.9776 10.7182 70.7746 10.0328 71.4577 9.21879C72.2974 8.21917 72.6745 7.01963 72.8026 5.76297C72.9165 4.68481 73.7135 4.59913 74.361 4.99897C75.0655 5.43452 75.1722 6.12711 75.2007 6.86968C75.2363 7.89072 74.9374 8.84751 74.6243 9.80428C74.603 9.87568 74.5745 9.93993 74.5531 10.0113C74.4464 10.3398 74.5105 10.4397 74.8449 10.454C75.7486 10.4897 76.6523 10.5183 77.5561 10.5468C77.8478 10.554 78.1467 10.5754 78.4384 10.5826C79.3493 10.6111 80.0253 11.2466 80.1463 12.1677C80.2245 12.7817 80.068 13.3672 79.9897 13.9598C79.7976 15.4378 79.5699 16.9015 79.3991 18.3796C79.3137 19.1507 78.9152 19.6434 78.2605 19.9647C77.8905 20.1432 77.4991 20.2503 77.0793 20.2431C76.019 20.2289 74.9516 20.2431 73.8914 20.2431H73.8771Z" fill="white"/>
<path d="M67.8855 15.7457C67.8855 17.088 67.8784 18.4304 67.8855 19.7727C67.8855 20.0726 67.7788 20.1511 67.5013 20.1511C66.4623 20.1368 66.5691 20.2011 66.2844 19.2372C65.5728 16.8667 64.8541 14.4962 64.1425 12.1256C63.9718 11.5616 64.1141 11.3545 64.7047 11.3545C65.6511 11.3545 66.5975 11.3545 67.5439 11.3545C67.8072 11.3545 67.8855 11.4402 67.8855 11.6972C67.8713 13.0467 67.8855 14.4033 67.8855 15.7528V15.7457Z" fill="#130C49"/>
<path d="M69.9926 113.443C75.5221 113.443 80.0047 108.945 80.0047 103.397C80.0047 97.8484 75.5221 93.3506 69.9926 93.3506C64.463 93.3506 59.9805 97.8484 59.9805 103.397C59.9805 108.945 64.463 113.443 69.9926 113.443Z" fill="#61BB73"/>
<path d="M69.9929 114C64.165 114 59.4258 109.245 59.4258 103.397C59.4258 97.5496 64.165 92.7871 69.9929 92.7871C75.8209 92.7871 80.5601 97.5425 80.5601 103.397C80.5601 109.252 75.8209 114 69.9929 114ZM69.9929 93.9081C64.777 93.9081 60.5359 98.1637 60.5359 103.397C60.5359 108.631 64.777 112.887 69.9929 112.887C75.2089 112.887 79.45 108.631 79.45 103.397C79.45 98.1637 75.2089 93.9081 69.9929 93.9081Z" fill="#130C49"/>
<path d="M64.748 101.74C64.7623 100.912 65.0611 100.105 65.7372 99.4622C66.8686 98.3841 68.4839 98.4412 69.5442 99.5979C69.7007 99.7621 69.8359 99.9406 69.9569 100.133C69.9854 100.183 69.9996 100.183 70.0352 100.133C70.3127 99.705 70.6472 99.3337 71.0883 99.0695C71.9921 98.5197 73.095 98.5768 73.9703 99.2266C74.6961 99.7621 75.0946 100.498 75.2085 101.39C75.3223 102.254 75.116 103.061 74.7388 103.825C74.3403 104.625 73.7853 105.296 73.1448 105.903C72.3194 106.688 71.3872 107.331 70.3981 107.895C70.2842 107.959 70.1633 108.023 70.0423 108.095C70.0138 108.109 69.9925 108.116 69.9569 108.095C68.6903 107.395 67.4877 106.588 66.4843 105.524C65.9008 104.91 65.4098 104.232 65.0896 103.439C64.8833 102.925 64.7623 102.397 64.7552 101.74H64.748Z" fill="white"/>
<path d="M77.8064 81.6825H39.5085C37.4093 81.6825 35.6943 79.9689 35.6943 77.8554V71.5293C35.6943 69.423 37.4022 67.7021 39.5085 67.7021H77.8064C79.9056 67.7021 81.6205 69.4158 81.6205 71.5293V77.8554C81.6205 79.9618 79.9127 81.6825 77.8064 81.6825ZM39.5014 68.8232C38.0141 68.8232 36.8044 70.037 36.8044 71.5364V77.8626C36.8044 79.3549 38.0141 80.5687 39.5014 80.5687H77.7993C79.2865 80.5687 80.4962 79.3549 80.4962 77.8626V71.5364C80.4962 70.0441 79.2865 68.8232 77.7993 68.8232H39.5014Z" fill="#130C49"/>
<path d="M71.1822 72.9566H42.8822C42.5762 72.9566 42.3271 72.7067 42.3271 72.3997C42.3271 72.0927 42.5762 71.8428 42.8822 71.8428H71.1822C71.4882 71.8428 71.7373 72.0927 71.7373 72.3997C71.7373 72.7067 71.4882 72.9566 71.1822 72.9566Z" fill="#130C49"/>
<path d="M61.4402 77.356H42.889C42.583 77.356 42.334 77.1062 42.334 76.7991C42.334 76.4921 42.583 76.2422 42.889 76.2422H61.4402C61.7462 76.2422 61.9953 76.4921 61.9953 76.7991C61.9953 77.1062 61.7462 77.356 61.4402 77.356Z" fill="#130C49"/>
<path d="M95.1191 21.0283C95.8423 21.0283 96.4286 20.44 96.4286 19.7143C96.4286 18.9887 95.8423 18.4004 95.1191 18.4004C94.3959 18.4004 93.8096 18.9887 93.8096 19.7143C93.8096 20.44 94.3959 21.0283 95.1191 21.0283Z" fill="#130C49"/>
<path d="M103.081 21.0283C103.804 21.0283 104.39 20.44 104.39 19.7143C104.39 18.9887 103.804 18.4004 103.081 18.4004C102.358 18.4004 101.771 18.9887 101.771 19.7143C101.771 20.44 102.358 21.0283 103.081 21.0283Z" fill="#130C49"/>
<path d="M111.037 21.0283C111.76 21.0283 112.347 20.44 112.347 19.7143C112.347 18.9887 111.76 18.4004 111.037 18.4004C110.314 18.4004 109.728 18.9887 109.728 19.7143C109.728 20.44 110.314 21.0283 111.037 21.0283Z" fill="#130C49"/>
<path d="M50.012 105.017L44.9454 99.5835L39.8789 105.017V90.7012H50.012V105.017Z" fill="#61BB73"/>
<path d="M50.2887 105.723L44.9446 99.99L39.6006 105.723V90.415H50.2958V105.723H50.2887ZM44.9446 99.176L49.7337 104.317V90.9863H40.1485V104.317L44.9375 99.176H44.9446Z" fill="#130C49"/>
<path d="M103.081 45.526H83.7543C83.4483 45.526 83.1992 45.2761 83.1992 44.969C83.1992 44.662 83.4483 44.4121 83.7543 44.4121H103.081C103.387 44.4121 103.636 44.662 103.636 44.969C103.636 45.2761 103.387 45.526 103.081 45.526Z" fill="#130C49"/>
<path d="M71.1811 45.5261H65.9858C65.6798 45.5261 65.4307 45.2762 65.4307 44.9691C65.4307 44.662 65.6798 44.4121 65.9858 44.4121H71.1811C71.4871 44.4121 71.7362 44.662 71.7362 44.9691C71.7362 45.2762 71.4871 45.5261 71.1811 45.5261Z" fill="#130C49"/>
<path d="M55.4546 45.526H39.9632C39.6573 45.526 39.4082 45.2761 39.4082 44.969C39.4082 44.662 39.6573 44.4121 39.9632 44.4121H55.4546C55.7606 44.4121 56.0097 44.662 56.0097 44.969C56.0097 45.2761 55.7606 45.526 55.4546 45.526Z" fill="#130C49"/>
<path d="M103.081 49.5943H65.9857C65.6797 49.5943 65.4307 49.3444 65.4307 49.0374C65.4307 48.7304 65.6797 48.4805 65.9857 48.4805H103.081C103.387 48.4805 103.636 48.7304 103.636 49.0374C103.636 49.3444 103.387 49.5943 103.081 49.5943Z" fill="#130C49"/>
<path d="M62.1365 49.5943H39.9632C39.6573 49.5943 39.4082 49.3444 39.4082 49.0374C39.4082 48.7304 39.6573 48.4805 39.9632 48.4805H62.1365C62.4425 48.4805 62.6915 48.7304 62.6915 49.0374C62.6915 49.3444 62.4425 49.5943 62.1365 49.5943Z" fill="#130C49"/>
<path d="M75.2297 53.9371H53.889C53.583 53.9371 53.334 53.6872 53.334 53.3801C53.334 53.0731 53.583 52.8232 53.889 52.8232H75.2297C75.5357 52.8232 75.7847 53.0731 75.7847 53.3801C75.7847 53.6872 75.5357 53.9371 75.2297 53.9371Z" fill="#130C49"/>
<path d="M49.0574 53.9371H39.9632C39.6573 53.9371 39.4082 53.6872 39.4082 53.3801C39.4082 53.0731 39.6573 52.8232 39.9632 52.8232H49.0574C49.3634 52.8232 49.6124 53.0731 49.6124 53.3801C49.6124 53.6872 49.3634 53.9371 49.0574 53.9371Z" fill="#130C49"/>
<path d="M39.8787 26.1979C36.8544 26.1979 34.3994 23.7346 34.3994 20.7C34.3994 17.6655 36.8544 15.2021 39.8787 15.2021C42.9029 15.2021 45.3579 17.6655 45.3579 20.7C45.3579 23.7346 42.9029 26.1979 39.8787 26.1979Z" fill="#61BB73"/>
<path d="M39.8786 15.6801C42.6396 15.6801 44.8811 17.9364 44.8811 20.6996C44.8811 23.4628 42.6325 25.7191 39.8786 25.7191C37.1247 25.7191 34.8761 23.4628 34.8761 20.6996C34.8761 17.9364 37.1247 15.6801 39.8786 15.6801ZM39.8786 14.7305C36.591 14.7305 33.9297 17.4009 33.9297 20.6996C33.9297 23.9983 36.591 26.6688 39.8786 26.6688C43.1662 26.6688 45.8275 23.9983 45.8275 20.6996C45.8275 17.4009 43.1662 14.7305 39.8786 14.7305Z" fill="#130C49"/>
<path d="M39.4656 23.1205C39.2735 23.1205 39.0956 23.0348 38.9746 22.8777L37.5227 21.0281C37.3092 20.7568 37.3519 20.3568 37.6295 20.1426C37.8999 19.9284 38.2985 19.9712 38.512 20.2497L39.4727 21.4709L41.4441 18.9572C41.6576 18.6858 42.0562 18.6358 42.3266 18.8501C42.5971 19.0643 42.6469 19.4642 42.4334 19.7356L39.9638 22.8705C39.8428 23.0205 39.6649 23.1133 39.4727 23.1133L39.4656 23.1205Z" fill="white"/>
<path d="M130.982 43.5328V33.2153C130.982 32.587 130.647 32.0086 130.107 31.6945L121.205 26.5393C120.664 26.2252 119.995 26.2252 119.454 26.5393L110.552 31.6945C110.011 32.0086 109.677 32.587 109.677 33.2153V43.5328C109.677 44.1611 110.011 44.7395 110.552 45.0537L119.454 50.2088C119.995 50.523 120.664 50.523 121.205 50.2088L130.107 45.0537C130.647 44.7395 130.982 44.1611 130.982 43.5328Z" fill="#130C49"/>
<path d="M122.983 34.8643V38.1416L120.329 36.5993L117.675 38.1416V34.8643L114.522 36.6921V40.1622L117.511 41.8902L120.329 40.2551L123.147 41.8902L126.129 40.1622V36.6993L122.983 34.8643Z" fill="#61BB73"/>
<path d="M101.118 73.7588L114.233 82.434L101.118 91.1021V73.7588Z" fill="#61BB73"/>
<path d="M100.534 92.1949V72.6738L115.293 82.4344L100.534 92.1949ZM101.701 74.8516V90.0172L113.172 82.4344L101.701 74.8516Z" fill="#130C49"/>
<path d="M116.723 97.1558H94.635C92.6354 97.1558 91.0059 95.5207 91.0059 93.5144V71.3514C91.0059 69.3451 92.6354 67.71 94.635 67.71H116.723C118.722 67.71 120.352 69.3451 120.352 71.3514V93.5144C120.352 95.5207 118.722 97.1558 116.723 97.1558ZM94.635 68.8738C93.2758 68.8738 92.1729 69.9805 92.1729 71.3443V93.5072C92.1729 94.871 93.2758 95.9777 94.635 95.9777H116.723C118.082 95.9777 119.185 94.871 119.185 93.5072V71.3443C119.185 69.9805 118.082 68.8738 116.723 68.8738H94.635Z" fill="#130C49"/>
</svg>
