<svg width="121" height="95" viewBox="0 0 121 95" fill="none" xmlns="http://www.w3.org/2000/svg">
<path d="M112.388 0.697266H8.26113C4.08264 0.697266 0.695312 4.09612 0.695312 8.28881V86.4929C0.695312 90.6856 4.08264 94.0844 8.26113 94.0844H112.388C116.567 94.0844 119.954 90.6856 119.954 86.4929V8.28881C119.954 4.09612 116.567 0.697266 112.388 0.697266Z" fill="white"/>
<path d="M112.389 94.7827H8.2612C3.70641 94.7827 0 91.0636 0 86.4934V8.2893C0 3.71902 3.70641 0 8.2612 0H112.389C116.943 0 120.65 3.71902 120.65 8.2893V86.4934C120.65 91.0636 116.943 94.7827 112.389 94.7827ZM8.2612 1.3955C4.47134 1.3955 1.39078 4.48655 1.39078 8.2893V86.4934C1.39078 90.2961 4.47134 93.3872 8.2612 93.3872H112.389C116.178 93.3872 119.259 90.2961 119.259 86.4934V8.2893C119.259 4.48655 116.178 1.3955 112.389 1.3955H8.2612Z" fill="#130C49"/>
<path d="M0.695312 18.8528V8.28881C0.695312 4.11625 4.10271 0.697266 8.26113 0.697266H112.388C116.547 0.697266 119.954 4.11625 119.954 8.28881V18.8528" fill="#130C49"/>
<path d="M11.5157 12.9575C12.8868 12.9575 13.9983 11.8423 13.9983 10.4665C13.9983 9.0908 12.8868 7.97559 11.5157 7.97559C10.1447 7.97559 9.0332 9.0908 9.0332 10.4665C9.0332 11.8423 10.1447 12.9575 11.5157 12.9575Z" fill="#61BB73"/>
<path d="M19.839 12.9575C21.21 12.9575 22.3215 11.8423 22.3215 10.4665C22.3215 9.0908 21.21 7.97559 19.839 7.97559C18.4679 7.97559 17.3564 9.0908 17.3564 10.4665C17.3564 11.8423 18.4679 12.9575 19.839 12.9575Z" fill="#61BB73"/>
<path d="M28.1564 12.9575C29.5274 12.9575 30.6389 11.8423 30.6389 10.4665C30.6389 9.0908 29.5274 7.97559 28.1564 7.97559C26.7853 7.97559 25.6738 9.0908 25.6738 10.4665C25.6738 11.8423 26.7853 12.9575 28.1564 12.9575Z" fill="#61BB73"/>
<path d="M107.458 30.4355H66.166V32.3962H107.458V30.4355Z" fill="#130C49"/>
<path d="M101.436 40.1836H66.166V42.1443H101.436V40.1836Z" fill="#130C49"/>
<path d="M56.1459 62.958V43.6512C56.1459 42.479 55.52 41.3905 54.5117 40.8044L37.8502 31.1544C36.835 30.5683 35.5902 30.5683 34.5749 31.1544L17.9135 40.8044C16.8982 41.3905 16.2793 42.479 16.2793 43.6512V62.958C16.2793 64.1302 16.9051 65.2187 17.9135 65.8048L34.5749 75.4547C35.5902 76.0408 36.835 76.0408 37.8502 75.4547L54.5117 65.8048C55.527 65.2187 56.1459 64.1302 56.1459 62.958Z" fill="#130C49"/>
<path d="M41.1746 46.7285V52.8617L36.2164 49.98L31.2444 52.8617V46.7285L25.3545 50.1545V56.6436L30.9385 59.8881L36.2164 56.825L41.4875 59.8881L47.0714 56.6436V50.1614L41.1746 46.7285Z" fill="#61BB73"/>
<path d="M70.2197 75.5251C72.2552 75.5251 73.9053 73.8694 73.9053 71.827C73.9053 69.7846 72.2552 68.1289 70.2197 68.1289C68.1843 68.1289 66.5342 69.7846 66.5342 71.827C66.5342 73.8694 68.1843 75.5251 70.2197 75.5251Z" fill="white"/>
<path d="M70.2201 75.8946C67.9879 75.8946 66.166 74.0734 66.166 71.8267C66.166 69.5799 67.981 67.7588 70.2201 67.7588C72.4593 67.7588 74.2742 69.5799 74.2742 71.8267C74.2742 74.0734 72.4593 75.8946 70.2201 75.8946ZM70.2201 68.5054C68.3913 68.5054 66.9031 69.9985 66.9031 71.8336C66.9031 73.6687 68.3913 75.1619 70.2201 75.1619C72.049 75.1619 73.5371 73.6687 73.5371 71.8336C73.5371 69.9985 72.049 68.5054 70.2201 68.5054Z" fill="#130C49"/>
<path d="M80.9844 75.5251C83.0199 75.5251 84.6699 73.8694 84.6699 71.827C84.6699 69.7846 83.0199 68.1289 80.9844 68.1289C78.9489 68.1289 77.2988 69.7846 77.2988 71.827C77.2988 73.8694 78.9489 75.5251 80.9844 75.5251Z" fill="#130C49"/>
<path d="M91.7422 75.5251C93.7777 75.5251 95.4277 73.8694 95.4277 71.827C95.4277 69.7846 93.7777 68.1289 91.7422 68.1289C89.7067 68.1289 88.0566 69.7846 88.0566 71.827C88.0566 73.8694 89.7067 75.5251 91.7422 75.5251Z" fill="#61BB73"/>
<path d="M91.7426 75.8946C89.5104 75.8946 87.6885 74.0734 87.6885 71.8267C87.6885 69.5799 89.5104 67.7588 91.7426 67.7588C93.9748 67.7588 95.7967 69.5799 95.7967 71.8267C95.7967 74.0734 93.9817 75.8946 91.7426 75.8946ZM91.7426 68.5054C89.9137 68.5054 88.4256 69.9985 88.4256 71.8336C88.4256 73.6687 89.9137 75.1619 91.7426 75.1619C93.5715 75.1619 95.0596 73.6687 95.0596 71.8336C95.0596 69.9985 93.5715 68.5054 91.7426 68.5054Z" fill="#130C49"/>
<path d="M73.5166 58.6044V51.4385H66.375V58.6044H73.5166Z" fill="#130C49"/>
<path d="M84.6641 58.6112V51.4453H77.5225V58.6112H84.6641Z" fill="#130C49"/>
<path d="M95.8174 58.6044V51.4385H88.6758V58.6044H95.8174Z" fill="#130C49"/>
<path d="M106.964 58.6112V51.4453H99.8223V58.6112H106.964Z" fill="white"/>
<path d="M107.458 59.0999H99.3359V50.9502H107.458V59.0999ZM100.323 58.1161H106.478V51.941H100.323V58.1161Z" fill="#130C49"/>
</svg>
