<svg width="83" height="22" viewBox="0 0 83 22" fill="none" xmlns="http://www.w3.org/2000/svg">
<path d="M30.1541 18.3173C29.5898 18.3173 29.0372 18.2591 28.4846 18.1428C27.9673 18.0382 27.4618 17.8405 27.0032 17.5497C26.5682 17.2706 26.192 16.8868 25.9216 16.4333C25.6394 15.9681 25.5336 15.2587 25.5336 15.2238C25.4983 15.0378 25.5571 14.8517 25.6747 14.7121C25.7923 14.5726 25.9686 14.4912 26.1567 14.5028H27.6499C28.0143 14.5028 28.3318 14.7819 28.3906 15.154C28.3906 15.1773 28.4258 15.2238 28.4846 15.3401C28.5787 15.5146 28.7198 15.6657 28.8844 15.7937C29.0607 15.9216 29.2488 16.003 29.4605 16.0612C29.6956 16.1193 29.9307 16.1542 30.1659 16.1542C30.354 16.1542 30.5303 16.1309 30.7067 16.096C30.8831 16.0612 31.0477 15.9914 31.2005 15.91C31.3416 15.8286 31.4591 15.7239 31.5532 15.5843C31.6473 15.4448 31.6943 15.2703 31.6825 15.0959C31.6825 14.9796 31.6825 14.6191 31.0124 14.3632C30.5068 14.1655 29.3429 13.8864 29.3311 13.8864L28.3553 13.6422C28.3553 13.6422 28.0731 13.5724 27.7087 13.4445C27.3442 13.3282 27.0032 13.1654 26.6858 12.9444C26.3801 12.7351 26.1215 12.4676 25.9333 12.142C25.7335 11.7815 25.6394 11.3745 25.6512 10.9558C25.6512 10.2929 25.7805 9.73469 26.0391 9.3044C26.286 8.88574 26.6388 8.53685 27.062 8.281C27.497 8.02515 27.9673 7.85071 28.4493 7.7693C28.9666 7.67627 29.484 7.62975 30.0013 7.62975C30.5186 7.62975 31.0359 7.67627 31.5532 7.78093C32.0352 7.87397 32.5055 8.06004 32.9288 8.31589C33.3403 8.57174 33.6812 8.92063 33.9399 9.33929C34.128 9.67654 34.2573 10.0371 34.3279 10.4092C34.3631 10.5953 34.3279 10.7813 34.2103 10.9209C34.0927 11.0605 33.9164 11.1419 33.74 11.1419H32.2469C31.8589 11.1302 31.5297 10.8744 31.4356 10.5022C31.3768 10.3162 31.2475 10.165 31.0829 10.0719C30.7302 9.89751 30.3422 9.80447 29.9425 9.8161C29.7897 9.8161 29.6368 9.8161 29.484 9.83936C29.3429 9.85099 29.2018 9.88588 29.0607 9.94402C28.9549 9.99054 28.8491 10.0719 28.7785 10.165C28.708 10.2697 28.661 10.3976 28.6727 10.5255C28.6727 10.6999 28.7433 10.8628 28.8726 10.9674C29.049 11.1186 29.2606 11.2349 29.484 11.3047C29.7896 11.4093 30.1071 11.4907 30.4128 11.5605L31.5062 11.8047C31.8941 11.8978 32.2704 12.0024 32.6466 12.1304C33.0111 12.2583 33.352 12.4327 33.6695 12.6537C33.9751 12.8747 34.222 13.1654 34.4102 13.491C34.61 13.8748 34.7041 14.3051 34.6924 14.7354C34.7394 15.8751 34.175 16.9566 33.2345 17.5614C32.7877 17.8521 32.2939 18.0498 31.7766 18.1428C31.2358 18.2475 30.6949 18.3056 30.1423 18.3056L30.1541 18.3173ZM42.7694 18.0731C42.3932 18.0731 42.0758 17.7591 42.0758 17.3637V12.863L42.0287 11.8513C42.0052 11.6187 41.9112 10.9325 41.7348 10.6418C41.5232 10.3045 41.1469 10.1301 40.5826 10.1301C39.9242 10.1301 39.4657 10.3162 39.1718 10.7116C38.9366 11.0372 38.8073 11.9327 38.772 12.2467L38.725 13.2584V17.3637C38.725 17.7591 38.4193 18.0731 38.0313 18.0731H36.4089C36.0326 18.0731 35.7152 17.7591 35.7152 17.3637V4.88518C35.7152 4.50141 36.0209 4.17578 36.4089 4.17578H38.0313C38.4076 4.17578 38.725 4.48978 38.725 4.88518V8.97877L38.7603 8.94388C38.7603 8.94388 39.2423 8.32752 39.7949 8.04841C40.2887 7.79256 40.8413 7.65301 41.3938 7.64138C42.1228 7.64138 42.7224 7.74604 43.2044 7.95538C43.6512 8.14145 44.051 8.44382 44.3449 8.82759C44.6388 9.23462 44.8269 9.68817 44.921 10.1766C44.9915 10.5604 45.0385 10.9558 45.062 11.3512L45.0856 12.3862V17.3753C45.0856 17.7707 44.7799 18.0847 44.3919 18.0847H42.7694V18.0731Z" fill="#181818"/>
<path d="M46.5794 6.07059C46.5794 6.466 46.8851 6.78 47.273 6.78H48.8955C49.2718 6.78 49.5892 6.45437 49.5892 6.07059V4.88438C49.5892 4.69831 49.5187 4.51224 49.3893 4.38431C49.26 4.25639 49.0836 4.17498 48.8955 4.17498H47.273C46.8968 4.17498 46.5794 4.48898 46.5794 4.88438V6.07059ZM46.5794 17.3745C46.5794 17.7699 46.8851 18.0839 47.273 18.0839H48.8955C49.2718 18.0839 49.5892 17.7583 49.5892 17.3745V8.61746C49.5892 8.43139 49.5187 8.24532 49.3893 8.11739C49.26 7.98947 49.0836 7.90806 48.8955 7.90806H47.273C46.8968 7.90806 46.5794 8.22206 46.5794 8.61746V17.3745ZM51.0823 20.7936C51.0823 21.189 51.388 21.503 51.776 21.503H53.3985C53.7747 21.503 54.0922 21.189 54.0922 20.8052V17.1419L54.1274 17.1884C54.3978 17.4908 54.727 17.7466 55.0797 17.9443C55.6206 18.2002 56.2084 18.3281 56.7963 18.3281C57.4664 18.3397 58.1248 18.1886 58.7244 17.8862C59.2652 17.6071 59.7355 17.2 60.1 16.7116C60.4762 16.2115 60.7466 15.6417 60.923 15.037C61.0994 14.409 61.1934 13.7461 61.1934 13.0948C61.1934 12.4087 61.1111 11.7109 60.923 11.048C60.7584 10.42 60.4762 9.82693 60.1 9.3036C59.7238 8.80353 59.2417 8.38487 58.6891 8.09413C58.066 7.78014 57.3606 7.61732 56.6552 7.64058C56.0673 7.64058 55.4795 7.76851 54.9386 8.02435C54.5624 8.23369 54.2332 8.50116 53.9746 8.83842L53.951 8.86168V8.61746C53.951 8.22206 53.6454 7.90806 53.2574 7.90806H51.7642C51.388 7.90806 51.0706 8.22206 51.0706 8.61746V20.8052L51.0823 20.7936ZM55.1032 10.3037C55.3972 10.1293 55.7381 10.0479 56.0908 10.0595C56.4318 10.0595 56.761 10.1293 57.0549 10.3037C57.3136 10.4666 57.537 10.6991 57.7133 10.9666C57.8897 11.2574 58.019 11.583 58.0895 11.9202C58.1718 12.2924 58.2071 12.6645 58.2071 13.0367C58.2071 13.4088 58.1718 13.781 58.1013 14.1531C58.0425 14.4787 57.9249 14.7927 57.7486 15.0835C57.584 15.3393 57.3724 15.5603 57.102 15.7231C56.1967 16.1999 55.0797 15.9324 54.4801 15.0835C54.3038 14.7927 54.1862 14.4787 54.1157 14.1531C54.0334 13.7926 53.9981 13.4088 53.9981 13.0367C53.9981 12.6529 54.0333 12.2808 54.1039 11.897C54.1627 11.5714 54.2803 11.2457 54.4566 10.955C54.6212 10.6875 54.8446 10.4666 55.1032 10.3037ZM61.9341 20.7936C61.9341 21.189 62.2398 21.503 62.6278 21.503H64.2503C64.6265 21.503 64.9439 21.189 64.9439 20.8052V17.1419L64.9792 17.1884C65.2496 17.4908 65.5788 17.7466 65.9315 17.9443C66.4723 18.2002 67.0601 18.3281 67.648 18.3281C68.3181 18.3397 68.9883 18.1886 69.5879 17.8862C70.1288 17.5955 70.599 17.2 70.9635 16.7116C71.3397 16.2115 71.6101 15.6417 71.7865 15.037C71.9629 14.409 72.0569 13.7461 72.0569 13.0948C72.0569 12.4087 71.9746 11.7109 71.7865 11.048C71.6219 10.42 71.3397 9.82693 70.9517 9.3036C70.5755 8.80353 70.0935 8.38487 69.5409 8.09413C68.9178 7.78014 68.2123 7.61732 67.5069 7.64058C66.9191 7.64058 66.3313 7.76851 65.7904 8.02435C65.4142 8.23369 65.085 8.50116 64.8146 8.83842L64.791 8.86168V8.61746C64.791 8.23369 64.4854 7.90806 64.0974 7.90806H62.6042C62.228 7.90806 61.9105 8.22206 61.9105 8.61746V20.8052L61.9341 20.7936ZM65.955 10.3037C66.2489 10.1293 66.5899 10.0479 66.9426 10.0595C67.2836 10.0479 67.6245 10.1293 67.9184 10.3037C68.1771 10.4782 68.4005 10.6991 68.5651 10.9666C68.7414 11.2574 68.8708 11.583 68.9413 11.9202C69.0236 12.2924 69.0589 12.6645 69.0589 13.0367C69.0589 13.4088 69.0236 13.781 68.9531 14.1531C68.8943 14.4787 68.7767 14.7927 68.6003 15.0835C68.036 15.9789 66.8838 16.2581 65.9903 15.7115C65.7316 15.5603 65.5083 15.3393 65.3437 15.0835C65.1673 14.7927 65.0497 14.4787 64.9792 14.1531C64.8969 13.7926 64.8616 13.4088 64.8616 13.0367C64.8616 12.6529 64.8969 12.2808 64.9674 11.897C65.0262 11.5597 65.1438 11.2457 65.3201 10.955C65.4847 10.6875 65.6963 10.4666 65.9667 10.3037H65.955ZM75.7368 17.956C76.407 18.2118 77.1242 18.3397 77.8414 18.3281C78.5586 18.3281 79.2757 18.2118 79.9576 17.956C80.569 17.7234 81.1334 17.3512 81.5919 16.8744C82.0504 16.386 82.4031 15.8161 82.6382 15.1881C82.8851 14.4904 83.0144 13.7461 83.0027 13.0018C83.0027 12.2575 82.8851 11.5132 82.6382 10.8038C82.1915 9.52456 81.2157 8.51279 79.9694 8.02435C78.6056 7.51266 77.1007 7.51266 75.7486 8.02435C74.5024 8.51279 73.5383 9.52456 73.0915 10.8038C72.8446 11.5132 72.7153 12.2575 72.727 13.0018C72.727 13.7461 72.8446 14.4904 73.0915 15.1881C73.3149 15.8161 73.6676 16.386 74.1379 16.8744C74.5964 17.3396 75.149 17.7117 75.7604 17.956H75.7368ZM76.1836 10.9434C76.5363 10.3503 77.1712 10.013 77.8531 10.0479C78.2058 10.0479 78.5703 10.1293 78.876 10.3037C79.1464 10.4666 79.3698 10.6875 79.5344 10.955C79.7108 11.2457 79.8283 11.5597 79.8871 11.897C79.9577 12.2691 79.9929 12.6413 79.9929 13.0134C79.9929 13.3856 79.9577 13.7577 79.8871 14.1182C79.8283 14.4555 79.699 14.7695 79.5344 15.0602C79.3698 15.3277 79.1464 15.537 78.876 15.6998C78.5585 15.8743 78.2058 15.9557 77.8531 15.9441C77.5004 15.9557 77.1477 15.8743 76.842 15.7115C76.5716 15.5487 76.3482 15.3277 76.1954 15.0718C76.019 14.7811 75.9015 14.4671 75.8427 14.1299C75.7721 13.7693 75.7368 13.3972 75.7368 13.025C75.7368 12.6529 75.7721 12.2808 75.8427 11.9086C75.9015 11.583 76.019 11.2574 76.1954 10.9666L76.1836 10.9434ZM21.1607 5.38445C21.7485 5.86126 22.2188 6.47763 22.5009 7.18703C22.7596 7.82665 22.8772 8.51279 22.8301 9.19894C22.7831 9.85019 22.5833 10.4782 22.2306 11.0364C21.8661 11.6179 21.3723 12.0831 20.7844 12.4203C20.4552 12.5948 20.1143 12.7459 19.7733 12.8855L18.8328 13.339C18.1156 13.7112 17.4219 14.1182 16.74 14.5601L14.5414 16.0255C14.0124 16.3976 12.2136 19.0724 11.32 20.4447C15.4232 20.2702 18.8916 17.2931 19.7616 13.1995L19.8791 13.153L20.0673 13.0716L20.126 13.0483C20.3964 12.9436 20.6551 12.8273 20.9138 12.6878C20.9726 12.6529 21.0196 12.618 21.0784 12.5831C20.4552 17.4443 16.6107 21.2122 11.8373 21.6542C7.06397 22.0961 2.61981 19.0608 1.18545 14.3857C-0.248905 9.71064 1.67923 4.64016 5.82947 2.18633C9.99146 -0.267495 15.2586 0.569831 18.4918 4.19824H18.3625C18.0921 4.19824 17.8217 4.2215 17.5512 4.26802C17.3631 4.30291 17.1633 4.3378 16.9752 4.39594C14.3533 1.977 10.5911 1.34901 7.34613 2.77944C4.10119 4.20987 1.97316 7.44288 1.90262 11.048C2.97251 10.6991 4.83014 10.0711 5.04176 9.85019C5.50029 9.36175 5.95881 8.87331 6.39382 8.37324C6.52314 8.22206 6.65247 8.07087 6.75828 7.89643C6.79355 7.83828 6.81708 7.78013 6.84059 7.72199C6.91113 7.54754 7.00518 7.3731 7.12275 7.22192C7.06396 7.07073 7.01694 6.91955 6.98167 6.75674C6.92288 6.64044 6.88759 6.51252 6.85232 6.38459C6.77002 6.05897 6.74654 5.72171 6.77005 5.38445C6.79356 5.11697 6.87583 4.69831 7.21679 4.69831C7.33436 4.72157 7.44019 4.76809 7.53425 4.83787C7.88696 5.07046 8.20438 5.34956 8.4983 5.65193H8.53361L9.63874 5.52401C10.0973 5.45423 10.5558 5.43097 11.0261 5.45423C11.226 5.47749 11.4258 5.51238 11.6139 5.58216C11.8138 5.65193 12.0137 5.71008 12.2253 5.74497C12.6133 5.838 13.013 5.87289 13.4128 5.87289C14.177 5.86126 14.9294 5.6403 15.5878 5.23327L15.8465 5.11697L16.2345 4.94253C16.6695 4.74483 17.128 4.59365 17.61 4.51224C18.0685 4.43083 18.5271 4.43083 18.9856 4.48898C19.7733 4.59365 20.5258 4.90764 21.1489 5.39608L21.1607 5.38445ZM11.4141 8.54768C11.7433 8.74538 12.1548 8.73376 12.4605 8.51279C12.7544 8.2802 12.8602 7.87317 12.7308 7.52428C12.5898 7.15214 12.2488 6.90792 11.8726 6.90792C11.5199 6.90792 11.2024 7.10562 11.0496 7.41962L11.0731 7.34984C11.0731 7.34984 11.0496 7.40799 11.0261 7.46614C11.0261 7.45451 11.0378 7.43125 11.0496 7.41962L11.0261 7.4894C10.9556 7.69873 10.9908 7.61732 11.0261 7.51266C11.0261 7.51266 11.0026 7.58243 10.9908 7.62895C10.932 8.0011 11.0966 8.36161 11.4141 8.57094V8.54768Z" fill="#181818"/>
</svg>
