<svg width="65" height="17" viewBox="0 0 65 17" fill="none" xmlns="http://www.w3.org/2000/svg">
<g id="shippo">
<path id="Vector" d="M23.2369 13.8353C22.7915 13.8353 22.3553 13.7894 21.9192 13.6976C21.5109 13.615 21.1119 13.4589 20.75 13.2295C20.4066 13.0092 20.1097 12.7063 19.8963 12.3483C19.6736 11.9811 19.5901 11.4212 19.5901 11.3937C19.5622 11.2468 19.6086 11.1 19.7014 10.9898C19.7942 10.8797 19.9334 10.8154 20.0819 10.8246H21.2603C21.548 10.8246 21.7986 11.0449 21.845 11.3386C21.845 11.357 21.8728 11.3937 21.9192 11.4855C21.9934 11.6232 22.1048 11.7425 22.2347 11.8435C22.3739 11.9444 22.5224 12.0087 22.6894 12.0546C22.875 12.1005 23.0606 12.128 23.2462 12.128C23.3946 12.128 23.5338 12.1096 23.673 12.0821C23.8122 12.0546 23.9421 11.9995 24.0628 11.9352C24.1741 11.871 24.2669 11.7884 24.3411 11.6782C24.4154 11.5681 24.4525 11.4304 24.4432 11.2927C24.4432 11.2009 24.4432 10.9164 23.9143 10.7145C23.5153 10.5584 22.5966 10.3381 22.5873 10.3381L21.8171 10.1454C21.8171 10.1454 21.5944 10.0903 21.3068 9.98934C21.0191 9.89755 20.75 9.76905 20.4994 9.59465C20.2582 9.42943 20.054 9.21832 19.9056 8.96131C19.7478 8.67677 19.6736 8.35551 19.6829 8.02507C19.6829 7.50188 19.7849 7.0613 19.9891 6.72168C20.1839 6.39125 20.4623 6.11588 20.7964 5.91395C21.1397 5.71201 21.5109 5.57433 21.8913 5.51008C22.2996 5.43665 22.7079 5.39993 23.1162 5.39993C23.5245 5.39993 23.9328 5.43665 24.3411 5.51926C24.7216 5.59269 25.0928 5.73955 25.4268 5.94148C25.7516 6.14342 26.0207 6.41878 26.2249 6.74922C26.3733 7.0154 26.4754 7.29995 26.5311 7.59367C26.5589 7.74053 26.5311 7.88739 26.4383 7.99754C26.3455 8.10768 26.2063 8.17194 26.0671 8.17194H24.8886C24.5824 8.16276 24.3226 7.96082 24.2483 7.6671C24.2019 7.52024 24.0999 7.40092 23.97 7.32748C23.6916 7.1898 23.3854 7.11637 23.0699 7.12555C22.9492 7.12555 22.8286 7.12555 22.7079 7.14391C22.5966 7.15309 22.4852 7.18062 22.3739 7.22652C22.2904 7.26323 22.2068 7.32748 22.1512 7.40092C22.0955 7.48352 22.0584 7.58449 22.0677 7.68546C22.0677 7.82314 22.1233 7.95164 22.2254 8.03425C22.3646 8.15358 22.5316 8.24537 22.7079 8.30044C22.9492 8.38305 23.1998 8.4473 23.441 8.50237L24.304 8.69513C24.6102 8.76856 24.9072 8.85117 25.2041 8.95213C25.4918 9.0531 25.7609 9.19078 26.0114 9.36518C26.2527 9.53958 26.4476 9.76905 26.596 10.0261C26.7538 10.329 26.828 10.6686 26.8188 11.0082C26.8559 11.9077 26.4104 12.7613 25.6681 13.2386C25.3155 13.4681 24.9257 13.6241 24.5174 13.6976C24.0906 13.7802 23.6637 13.8261 23.2276 13.8261L23.2369 13.8353ZM33.1937 13.6425C32.8968 13.6425 32.6463 13.3947 32.6463 13.0826V9.5304L32.6091 8.73184C32.5906 8.54827 32.5163 8.00672 32.3772 7.77725C32.2101 7.51106 31.9132 7.37338 31.4678 7.37338C30.9481 7.37338 30.5862 7.52024 30.3542 7.83232C30.1686 8.08933 30.0665 8.79609 30.0387 9.04392L30.0016 9.84248V13.0826C30.0016 13.3947 29.7603 13.6425 29.4541 13.6425H28.1736C27.8766 13.6425 27.6261 13.3947 27.6261 13.0826V3.23374C27.6261 2.93083 27.8673 2.67383 28.1736 2.67383H29.4541C29.7511 2.67383 30.0016 2.92166 30.0016 3.23374V6.46468L30.0294 6.43714C30.0294 6.43714 30.4099 5.95066 30.846 5.73037C31.2358 5.52844 31.6719 5.41829 32.108 5.40911C32.6834 5.40911 33.1566 5.49172 33.5371 5.65694C33.8897 5.8038 34.2052 6.04245 34.4372 6.34535C34.6692 6.66661 34.8176 7.02458 34.8919 7.41009C34.9476 7.71299 34.9847 8.02507 35.0032 8.33715L35.0218 9.15407V13.0918C35.0218 13.4039 34.7805 13.6517 34.4743 13.6517H33.1937V13.6425Z" fill="#181818"/>
<path id="Vector_2" d="M36.1994 4.17009C36.1994 4.48217 36.4407 4.72999 36.7469 4.72999H38.0275C38.3244 4.72999 38.575 4.47299 38.575 4.17009V3.23385C38.575 3.08699 38.5193 2.94013 38.4172 2.83916C38.3152 2.73819 38.176 2.67394 38.0275 2.67394H36.7469C36.45 2.67394 36.1994 2.92177 36.1994 3.23385V4.17009ZM36.1994 13.0919C36.1994 13.404 36.4407 13.6518 36.7469 13.6518H38.0275C38.3244 13.6518 38.575 13.3948 38.575 13.0919V6.18025C38.575 6.03339 38.5193 5.88652 38.4172 5.78556C38.3152 5.68459 38.176 5.62034 38.0275 5.62034H36.7469C36.45 5.62034 36.1994 5.86817 36.1994 6.18025V13.0919ZM39.7534 15.7905C39.7534 16.1025 39.9947 16.3504 40.301 16.3504H41.5815C41.8784 16.3504 42.129 16.1025 42.129 15.7996V12.9083L42.1569 12.945C42.3703 13.1837 42.6301 13.3856 42.9085 13.5417C43.3353 13.7436 43.7993 13.8446 44.2633 13.8446C44.7922 13.8537 45.3118 13.7344 45.7851 13.4958C46.212 13.2755 46.5831 12.9542 46.8708 12.5687C47.1678 12.174 47.3812 11.7242 47.5204 11.2469C47.6596 10.7513 47.7338 10.2281 47.7338 9.71409C47.7338 9.17254 47.6689 8.62181 47.5204 8.09862C47.3905 7.60296 47.1678 7.13484 46.8708 6.7218C46.5739 6.32711 46.1934 5.99667 45.7573 5.7672C45.2654 5.51937 44.7087 5.39087 44.1519 5.40923C43.688 5.40923 43.224 5.51019 42.7971 5.71213C42.5002 5.87735 42.2404 6.08846 42.0362 6.35464L42.0176 6.373V6.18025C42.0176 5.86817 41.7764 5.62034 41.4702 5.62034H40.2917C39.9947 5.62034 39.7442 5.86817 39.7442 6.18025V15.7996L39.7534 15.7905ZM42.927 7.51117C43.159 7.37349 43.4281 7.30924 43.7065 7.31842C43.9756 7.31842 44.2354 7.37349 44.4674 7.51117C44.6716 7.63968 44.8479 7.82325 44.9871 8.03437C45.1263 8.26384 45.2284 8.52084 45.284 8.78703C45.349 9.08075 45.3768 9.37447 45.3768 9.66819C45.3768 9.96192 45.349 10.2556 45.2933 10.5494C45.2469 10.8064 45.1541 11.0542 45.0149 11.2837C44.885 11.4856 44.718 11.66 44.5046 11.7885C43.79 12.1648 42.9085 11.9537 42.4352 11.2837C42.296 11.0542 42.2032 10.8064 42.1476 10.5494C42.0826 10.2648 42.0548 9.96192 42.0548 9.66819C42.0548 9.36529 42.0826 9.07157 42.1383 8.76867C42.1847 8.51166 42.2775 8.25466 42.4167 8.02519C42.5466 7.81407 42.7229 7.63968 42.927 7.51117ZM48.3184 15.7905C48.3184 16.1025 48.5597 16.3504 48.8659 16.3504H50.1465C50.4434 16.3504 50.6939 16.1025 50.6939 15.7996V12.9083L50.7218 12.945C50.9352 13.1837 51.1951 13.3856 51.4734 13.5417C51.9003 13.7436 52.3642 13.8446 52.8282 13.8446C53.3571 13.8537 53.8861 13.7344 54.3593 13.4958C54.7862 13.2663 55.1574 12.9542 55.445 12.5687C55.742 12.174 55.9554 11.7242 56.0946 11.2469C56.2338 10.7513 56.308 10.2281 56.308 9.71409C56.308 9.17254 56.2431 8.62181 56.0946 8.09862C55.9647 7.60296 55.742 7.13484 55.4357 6.7218C55.1388 6.32711 54.7584 5.99667 54.3222 5.7672C53.8304 5.51937 53.2736 5.39087 52.7169 5.40923C52.2529 5.40923 51.7889 5.51019 51.3621 5.71213C51.0652 5.87735 50.8053 6.08846 50.5919 6.35464L50.5733 6.373V6.18025C50.5733 5.87735 50.3321 5.62034 50.0258 5.62034H48.8473C48.5504 5.62034 48.2998 5.86817 48.2998 6.18025V15.7996L48.3184 15.7905ZM51.492 7.51117C51.7239 7.37349 51.9931 7.30924 52.2715 7.31842C52.5406 7.30924 52.8097 7.37349 53.0417 7.51117C53.2458 7.64886 53.4221 7.82325 53.552 8.03437C53.6912 8.26384 53.7933 8.52084 53.849 8.78703C53.9139 9.08075 53.9418 9.37447 53.9418 9.66819C53.9418 9.96192 53.9139 10.2556 53.8583 10.5494C53.8119 10.8064 53.719 11.0542 53.5798 11.2837C53.1344 11.9904 52.2251 12.2107 51.5198 11.7793C51.3157 11.66 51.1394 11.4856 51.0095 11.2837C50.8703 11.0542 50.7775 10.8064 50.7218 10.5494C50.6569 10.2648 50.629 9.96192 50.629 9.66819C50.629 9.36529 50.6568 9.07157 50.7125 8.76867C50.7589 8.50249 50.8517 8.25466 50.9909 8.02519C51.1208 7.81407 51.2878 7.63968 51.5013 7.51117H51.492ZM59.2125 13.5508C59.7414 13.7528 60.3075 13.8537 60.8735 13.8446C61.4396 13.8446 62.0056 13.7528 62.5438 13.5508C63.0264 13.3673 63.4718 13.0735 63.8337 12.6972C64.1956 12.3117 64.4739 11.8619 64.6595 11.3663C64.8544 10.8155 64.9565 10.2281 64.9472 9.64066C64.9472 9.05321 64.8544 8.46577 64.6595 7.90586C64.3069 6.89619 63.5367 6.09764 62.5531 5.71213C61.4767 5.30826 60.2889 5.30826 59.2218 5.71213C58.2381 6.09764 57.4772 6.89619 57.1246 7.90586C56.9297 8.46577 56.8277 9.05321 56.8369 9.64066C56.8369 10.2281 56.9297 10.8155 57.1246 11.3663C57.3009 11.8619 57.5793 12.3117 57.9505 12.6972C58.3124 13.0644 58.7485 13.3581 59.2311 13.5508H59.2125ZM59.5651 8.01601C59.8435 7.54789 60.3446 7.2817 60.8828 7.30924C61.1612 7.30924 61.4488 7.37349 61.6901 7.51117C61.9035 7.63968 62.0799 7.81407 62.2098 8.02519C62.349 8.25466 62.4418 8.50249 62.4882 8.76867C62.5438 9.06239 62.5716 9.35611 62.5716 9.64984C62.5716 9.94356 62.5438 10.2373 62.4882 10.5218C62.4418 10.788 62.3397 11.0358 62.2098 11.2653C62.0799 11.4764 61.9035 11.6416 61.6901 11.7701C61.4395 11.9078 61.1612 11.9721 60.8828 11.9629C60.6044 11.9721 60.326 11.9078 60.0848 11.7793C59.8713 11.6508 59.695 11.4764 59.5744 11.2745C59.4352 11.045 59.3424 10.7972 59.296 10.531C59.2403 10.2465 59.2125 9.95274 59.2125 9.65902C59.2125 9.36529 59.2403 9.07157 59.296 8.77785C59.3424 8.52084 59.4352 8.26384 59.5744 8.03437L59.5651 8.01601ZM16.1372 3.62854C16.6012 4.00487 16.9724 4.49134 17.1951 5.05125C17.3992 5.55609 17.492 6.09764 17.4549 6.63919C17.4178 7.1532 17.2601 7.64886 16.9817 8.08944C16.694 8.54838 16.3043 8.91553 15.8403 9.18172C15.5805 9.3194 15.3114 9.43872 15.0423 9.54887L14.2999 9.90684C13.7338 10.2006 13.1864 10.5218 12.6481 10.8706L10.9129 12.0271C10.4953 12.3209 9.07557 14.432 8.37033 15.5151C11.6089 15.3774 14.3463 13.0276 15.033 9.7967L15.1258 9.75998L15.2743 9.69573L15.3206 9.67737C15.5341 9.59476 15.7382 9.50297 15.9424 9.39283C15.9888 9.36529 16.0259 9.33776 16.0723 9.31022C15.5805 13.147 12.5461 16.1209 8.77863 16.4697C5.01117 16.8185 1.50353 14.4228 0.371438 10.7329C-0.760656 7.04305 0.761158 3.04109 4.03681 1.10436C7.32174 -0.832365 11.4789 -0.171491 14.0308 2.6923H13.9287C13.7153 2.6923 13.5019 2.71066 13.2884 2.74737C13.14 2.77491 12.9822 2.80244 12.8337 2.84834C10.7644 0.939145 7.795 0.443489 5.23387 1.57248C2.67274 2.70148 0.993148 5.25319 0.937471 8.09862C1.7819 7.82325 3.24807 7.3276 3.4151 7.1532C3.777 6.76769 4.13889 6.38218 4.48223 5.98749C4.58431 5.86817 4.68638 5.74884 4.76989 5.61116C4.79773 5.56527 4.8163 5.51937 4.83486 5.47348C4.89053 5.3358 4.96476 5.19811 5.05755 5.07879C5.01116 4.95946 4.97404 4.84014 4.94621 4.71164C4.89981 4.61985 4.87196 4.51888 4.84412 4.41791C4.77916 4.16091 4.76062 3.89472 4.77918 3.62854C4.79774 3.41742 4.86267 3.08699 5.13178 3.08699C5.22457 3.10534 5.30811 3.14206 5.38234 3.19713C5.66073 3.38071 5.91125 3.601 6.14324 3.83965H6.1711L7.04334 3.73868C7.40524 3.68361 7.76717 3.66525 8.13834 3.68361C8.29609 3.70197 8.45385 3.7295 8.60232 3.78458C8.76007 3.83965 8.91781 3.88554 9.08484 3.91308C9.39106 3.98651 9.70657 4.01405 10.0221 4.01405C10.6252 4.00487 11.2191 3.83047 11.7388 3.50921L11.9429 3.41742L12.2491 3.27974C12.5925 3.1237 12.9544 3.00438 13.3348 2.94013C13.6967 2.87587 14.0586 2.87587 14.4205 2.92177C15.0423 3.00438 15.6361 3.25221 16.1279 3.63772L16.1372 3.62854ZM8.44455 6.12517C8.70438 6.28121 9.02917 6.27203 9.27044 6.09764C9.50243 5.91406 9.58592 5.5928 9.48385 5.31744C9.37249 5.02372 9.10341 4.83096 8.80647 4.83096C8.52808 4.83096 8.27752 4.987 8.15689 5.23483L8.17544 5.17976C8.17544 5.17976 8.1569 5.22565 8.13834 5.27154C8.13834 5.26237 8.14761 5.24401 8.15689 5.23483L8.13834 5.2899C8.08267 5.45512 8.11051 5.39087 8.13834 5.30826C8.13834 5.30826 8.11979 5.36333 8.11051 5.40005C8.06411 5.69377 8.19401 5.97831 8.44455 6.14353V6.12517Z" fill="#181818"/>
</g>
</svg>
