<svg width="127" height="33" viewBox="0 0 127 33" fill="none" xmlns="http://www.w3.org/2000/svg">
<g id="Group">
<path id="Vector" d="M45.7485 27.4515C44.8808 27.4515 44.0312 27.362 43.1816 27.1829C42.3863 27.0217 41.609 26.7172 40.9041 26.2695C40.2352 25.8397 39.6568 25.2486 39.241 24.5502C38.8072 23.8338 38.6445 22.7413 38.6445 22.6876C38.5903 22.401 38.6807 22.1145 38.8614 21.8996C39.0422 21.6847 39.3134 21.5593 39.6026 21.5772H41.8982C42.4586 21.5772 42.9466 22.007 43.037 22.5801C43.037 22.6159 43.0912 22.6876 43.1816 22.8667C43.3262 23.1353 43.5432 23.3681 43.7963 23.5651C44.0674 23.7622 44.3566 23.8875 44.682 23.9771C45.0435 24.0666 45.405 24.1203 45.7665 24.1203C46.0558 24.1203 46.3269 24.0845 46.598 24.0308C46.8692 23.9771 47.1223 23.8696 47.3573 23.7442C47.5742 23.6189 47.7549 23.4577 47.8995 23.2428C48.0441 23.0279 48.1164 22.7592 48.0983 22.4906C48.0983 22.3115 48.0984 21.7563 47.068 21.3623C46.2908 21.0578 44.5012 20.628 44.4831 20.628L42.9828 20.2519C42.9828 20.2519 42.549 20.1444 41.9886 19.9474C41.4283 19.7683 40.904 19.5176 40.416 19.1773C39.946 18.855 39.5483 18.443 39.2591 17.9416C38.9518 17.3864 38.8072 16.7596 38.8253 16.1148C38.8253 15.094 39.0241 14.2343 39.4218 13.5717C39.8014 12.9269 40.3437 12.3896 40.9944 11.9956C41.6632 11.6016 42.3863 11.333 43.1274 11.2076C43.9227 11.0643 44.7181 10.9927 45.5135 10.9927C46.3088 10.9927 47.1042 11.0643 47.8995 11.2255C48.6406 11.3688 49.3637 11.6553 50.0145 12.0494C50.6471 12.4434 51.1713 12.9806 51.569 13.6254C51.8582 14.1448 52.057 14.7 52.1655 15.2731C52.2197 15.5596 52.1655 15.8462 51.9847 16.0611C51.804 16.276 51.5328 16.4014 51.2617 16.4014H48.966C48.3695 16.3835 47.8634 15.9894 47.7187 15.4163C47.6284 15.1298 47.4296 14.897 47.1765 14.7537C46.6342 14.485 46.0377 14.3418 45.4231 14.3597C45.1881 14.3597 44.9531 14.3597 44.7181 14.3955C44.5012 14.4134 44.2843 14.4671 44.0674 14.5567C43.9047 14.6283 43.742 14.7537 43.6335 14.897C43.5251 15.0581 43.4528 15.2552 43.4708 15.4522C43.4708 15.7208 43.5793 15.9715 43.7782 16.1327C44.0493 16.3655 44.3747 16.5446 44.7181 16.6521C45.1881 16.8133 45.6761 16.9386 46.1461 17.0461L47.8272 17.4222C48.4237 17.5655 49.0022 17.7267 49.5806 17.9237C50.1409 18.1207 50.6651 18.3893 51.1532 18.7296C51.6232 19.0699 52.0028 19.5176 52.292 20.0191C52.5993 20.6101 52.744 21.2727 52.7259 21.9354C52.7982 23.6905 51.9305 25.3561 50.4844 26.2874C49.7975 26.7351 49.0383 27.0396 48.243 27.1829C47.4115 27.344 46.5799 27.4336 45.7304 27.4336L45.7485 27.4515ZM65.1442 27.0754C64.5658 27.0754 64.0777 26.5919 64.0777 25.9829V19.052L64.0054 17.4938C63.9692 17.1356 63.8246 16.079 63.5535 15.6313C63.2281 15.1119 62.6496 14.8432 61.782 14.8432C60.7697 14.8432 60.0648 15.1298 59.6129 15.7387C59.2514 16.2402 59.0525 17.6192 58.9982 18.1028L58.926 19.6609V25.9829C58.926 26.5919 58.456 27.0754 57.8595 27.0754H55.365C54.7865 27.0754 54.2985 26.5919 54.2985 25.9829V6.76606C54.2985 6.17505 54.7685 5.67358 55.365 5.67358H57.8595C58.4379 5.67358 58.926 6.15714 58.926 6.76606V13.0702L58.9802 13.0165C58.9802 13.0165 59.7213 12.0673 60.5709 11.6374C61.3301 11.2434 62.1797 11.0285 63.0293 11.0106C64.15 11.0106 65.0719 11.1718 65.813 11.4942C66.4999 11.7807 67.1145 12.2464 67.5664 12.8374C68.0183 13.4642 68.3075 14.1627 68.4521 14.9149C68.5606 15.5059 68.6329 16.1148 68.669 16.7237L68.7052 18.3177V26.0008C68.7052 26.6098 68.2352 27.0933 67.6387 27.0933H65.1442V27.0754Z" fill="#130C49"/>
<path id="Vector_2" d="M70.9999 8.59287C70.9999 9.20179 71.4699 9.68535 72.0664 9.68535H74.5609C75.1394 9.68535 75.6274 9.18388 75.6274 8.59287V6.76611C75.6274 6.47955 75.519 6.193 75.3202 5.996C75.1213 5.79899 74.8502 5.67363 74.5609 5.67363H72.0664C71.488 5.67363 70.9999 6.15718 70.9999 6.76611V8.59287ZM70.9999 26.0009C70.9999 26.6098 71.4699 27.0934 72.0664 27.0934H74.5609C75.1394 27.0934 75.6274 26.5919 75.6274 26.0009V12.515C75.6274 12.2285 75.519 11.9419 75.3202 11.7449C75.1213 11.5479 74.8502 11.4226 74.5609 11.4226H72.0664C71.488 11.4226 70.9999 11.9061 70.9999 12.515V26.0009ZM77.9231 31.2663C77.9231 31.8752 78.3931 32.3587 78.9896 32.3587H81.4841C82.0625 32.3587 82.5506 31.8752 82.5506 31.2842V25.6427L82.6048 25.7143C83.0206 26.18 83.5267 26.574 84.069 26.8784C84.9005 27.2725 85.8043 27.4695 86.7081 27.4695C87.7385 27.4874 88.7507 27.2545 89.6726 26.7889C90.5041 26.3591 91.2271 25.7322 91.7875 24.98C92.3659 24.2099 92.7817 23.3324 93.0529 22.4011C93.324 21.434 93.4686 20.4131 93.4686 19.4102C93.4686 18.3535 93.3421 17.279 93.0529 16.2581C92.7998 15.291 92.3659 14.3776 91.7875 13.5717C91.2091 12.8016 90.4679 12.1569 89.6183 11.7091C88.6603 11.2256 87.5758 10.9748 86.4912 11.0107C85.5874 11.0107 84.6836 11.2077 83.8521 11.6017C83.2736 11.924 82.7675 12.336 82.3699 12.8553L82.3337 12.8911V12.515C82.3337 11.9061 81.8637 11.4226 81.2672 11.4226H78.9715C78.3931 11.4226 77.905 11.9061 77.905 12.515V31.2842L77.9231 31.2663ZM84.1051 15.1119C84.557 14.8433 85.0812 14.7179 85.6235 14.7358C86.1477 14.7358 86.6539 14.8433 87.1058 15.1119C87.5035 15.3627 87.8469 15.7208 88.118 16.1328C88.3892 16.5805 88.588 17.082 88.6965 17.6013C88.823 18.1744 88.8773 18.7475 88.8773 19.3207C88.8773 19.8938 88.823 20.4669 88.7145 21.04C88.6242 21.5414 88.4434 22.025 88.1723 22.4727C87.9192 22.8667 87.5939 23.207 87.1781 23.4577C85.7862 24.192 84.069 23.7801 83.1471 22.4727C82.876 22.025 82.6952 21.5414 82.5868 21.04C82.4602 20.4848 82.406 19.8938 82.406 19.3207C82.406 18.7296 82.4602 18.1565 82.5687 17.5655C82.659 17.0641 82.8398 16.5626 83.111 16.1149C83.364 15.7029 83.7075 15.3627 84.1051 15.1119ZM94.6074 31.2663C94.6074 31.8752 95.0774 32.3587 95.6739 32.3587H98.1684C98.7469 32.3587 99.2349 31.8752 99.2349 31.2842V25.6427L99.2892 25.7143C99.7049 26.18 100.211 26.574 100.753 26.8784C101.585 27.2725 102.489 27.4695 103.392 27.4695C104.423 27.4874 105.453 27.2545 106.375 26.7889C107.206 26.3412 107.929 25.7322 108.49 24.98C109.068 24.2099 109.484 23.3324 109.755 22.4011C110.026 21.434 110.171 20.4131 110.171 19.4102C110.171 18.3535 110.044 17.279 109.755 16.2581C109.502 15.291 109.068 14.3776 108.472 13.5717C107.893 12.8016 107.152 12.1569 106.303 11.7091C105.345 11.2256 104.26 10.9748 103.175 11.0107C102.272 11.0107 101.368 11.2077 100.536 11.6017C99.958 11.924 99.4518 12.336 99.0361 12.8553L98.9999 12.8911V12.515C98.9999 11.924 98.53 11.4226 97.9334 11.4226H95.6377C95.0593 11.4226 94.5712 11.9061 94.5712 12.515V31.2842L94.6074 31.2663ZM100.789 15.1119C101.241 14.8433 101.766 14.7179 102.308 14.7358C102.832 14.7179 103.356 14.8433 103.808 15.1119C104.206 15.3806 104.549 15.7208 104.802 16.1328C105.074 16.5805 105.272 17.082 105.381 17.6013C105.507 18.1744 105.562 18.7475 105.562 19.3207C105.562 19.8938 105.507 20.4669 105.399 21.04C105.309 21.5414 105.128 22.025 104.857 22.4727C103.989 23.8517 102.217 24.2816 100.844 23.4398C100.446 23.207 100.103 22.8667 99.8495 22.4727C99.5784 22.025 99.3976 21.5414 99.2892 21.04C99.1626 20.4848 99.1083 19.8938 99.1083 19.3207C99.1083 18.7296 99.1626 18.1565 99.2711 17.5655C99.3614 17.0461 99.5422 16.5626 99.8133 16.1149C100.066 15.7029 100.392 15.3627 100.807 15.1119H100.789ZM115.829 26.8964C116.859 27.2904 117.962 27.4874 119.064 27.4695C120.167 27.4695 121.27 27.2904 122.318 26.8964C123.258 26.5382 124.126 25.9651 124.831 25.2308C125.536 24.4786 126.078 23.601 126.439 22.6339C126.819 21.5593 127.018 20.4131 127 19.2669C127 18.1207 126.819 16.9745 126.439 15.882C125.753 13.912 124.252 12.3539 122.336 11.6017C120.239 10.8136 117.926 10.8136 115.847 11.6017C113.931 12.3539 112.449 13.912 111.762 15.882C111.382 16.9745 111.183 18.1207 111.201 19.2669C111.201 20.4131 111.382 21.5593 111.762 22.6339C112.105 23.601 112.647 24.4786 113.37 25.2308C114.075 25.9472 114.925 26.5203 115.865 26.8964H115.829ZM116.516 16.0969C117.058 15.1836 118.034 14.6642 119.082 14.7179C119.625 14.7179 120.185 14.8433 120.655 15.1119C121.071 15.3627 121.414 15.7029 121.667 16.1149C121.939 16.5626 122.119 17.0461 122.21 17.5655C122.318 18.1386 122.372 18.7117 122.372 19.2848C122.372 19.8579 122.318 20.431 122.21 20.9862C122.119 21.5056 121.921 21.9892 121.667 22.4369C121.414 22.8488 121.071 23.1712 120.655 23.4219C120.167 23.6906 119.625 23.8159 119.082 23.798C118.54 23.8159 117.998 23.6906 117.528 23.4398C117.112 23.1891 116.769 22.8488 116.534 22.4548C116.263 22.0071 116.082 21.5235 115.992 21.0041C115.883 20.4489 115.829 19.8758 115.829 19.3027C115.829 18.7296 115.883 18.1565 115.992 17.5834C116.082 17.082 116.263 16.5805 116.534 16.1328L116.516 16.0969ZM31.9193 7.53621C32.8231 8.2705 33.5461 9.2197 33.9799 10.3122C34.3776 11.2972 34.5584 12.3539 34.4861 13.4105C34.4138 14.4135 34.1065 15.3806 33.5642 16.2402C33.0039 17.1357 32.2447 17.8521 31.3408 18.3714C30.8347 18.6401 30.3105 18.8729 29.7863 19.0878L28.3402 19.7863C27.2376 20.3594 26.1711 20.9862 25.1226 21.6668L21.7424 23.9234C20.929 24.4965 18.1634 28.6157 16.7896 30.729C23.0981 30.4603 28.4306 25.8755 29.7682 19.5714L29.949 19.4997L30.2382 19.3744L30.3286 19.3386C30.7443 19.1774 31.142 18.9983 31.5397 18.7834C31.6301 18.7296 31.7024 18.6759 31.7927 18.6222C30.8347 26.1083 24.9238 31.911 17.5849 32.5916C10.246 33.2721 3.41322 28.5978 1.20793 21.3981C-0.997364 14.1985 1.96709 6.39001 8.34797 2.61111C14.7469 -1.16779 22.845 0.12169 27.816 5.70945H27.6172C27.2014 5.70945 26.7857 5.74527 26.3699 5.8169C26.0807 5.87063 25.7734 5.92436 25.4842 6.01391C21.4532 2.28874 15.6688 1.32162 10.6798 3.52449C5.69079 5.72736 2.419 10.7062 2.31055 16.2581C3.95548 15.7208 6.81153 14.7537 7.1369 14.4135C7.84187 13.6613 8.54683 12.9091 9.21565 12.1389C9.41449 11.9061 9.61332 11.6733 9.77601 11.4047C9.83023 11.3151 9.8664 11.2256 9.90255 11.136C10.011 10.8674 10.1556 10.5987 10.3364 10.3659C10.246 10.1331 10.1737 9.90026 10.1195 9.64953C10.0291 9.47044 9.97482 9.27343 9.92059 9.07643C9.79406 8.57496 9.75795 8.05559 9.7941 7.53621C9.83025 7.1243 9.95674 6.47955 10.4809 6.47955C10.6617 6.51537 10.8244 6.58701 10.969 6.69447C11.5113 7.05266 11.9993 7.48248 12.4512 7.94813H12.5055L14.2046 7.75113C14.9096 7.64367 15.6146 7.60785 16.3377 7.64367C16.645 7.67949 16.9522 7.73322 17.2415 7.84068C17.5488 7.94813 17.856 8.03768 18.1814 8.09141C18.7779 8.23468 19.3925 8.28841 20.0071 8.28841C21.1821 8.2705 22.339 7.93022 23.3512 7.30339L23.7488 7.1243L24.3454 6.85565C25.0142 6.55119 25.7191 6.31837 26.4603 6.193C27.1652 6.06764 27.8702 6.06764 28.5752 6.15718C29.7863 6.31837 30.9432 6.80192 31.9012 7.55412L31.9193 7.53621ZM16.9341 12.4076C17.4403 12.7121 18.073 12.6941 18.543 12.3539C18.9949 11.9957 19.1575 11.3688 18.9587 10.8316C18.7418 10.2585 18.2176 9.88235 17.6391 9.88235C17.0969 9.88235 16.6088 10.1868 16.3738 10.6704L16.4099 10.5629C16.4099 10.5629 16.3738 10.6525 16.3377 10.742C16.3377 10.7241 16.3557 10.6883 16.3738 10.6704L16.3377 10.7778C16.2292 11.1002 16.2834 10.9748 16.3377 10.8136C16.3377 10.8136 16.3015 10.9211 16.2834 10.9927C16.1931 11.5658 16.4461 12.121 16.9341 12.4434V12.4076Z" fill="#130C49"/>
</g>
</svg>
