<svg width="66" height="17" viewBox="0 0 66 17" fill="none" xmlns="http://www.w3.org/2000/svg">
<g id="shippo">
<path id="Vector" d="M24.0321 13.931C23.5883 13.931 23.1537 13.8853 22.7192 13.7938C22.3124 13.7115 21.9149 13.5561 21.5543 13.3274C21.2122 13.108 20.9163 12.8062 20.7037 12.4495C20.4818 12.0837 20.3986 11.5258 20.3986 11.4984C20.3709 11.3521 20.4171 11.2058 20.5096 11.096C20.602 10.9863 20.7407 10.9223 20.8886 10.9314H22.0628C22.3494 10.9314 22.599 11.1509 22.6452 11.4435C22.6452 11.4618 22.673 11.4984 22.7192 11.5899C22.7932 11.727 22.9041 11.8459 23.0336 11.9465C23.1722 12.0471 23.3202 12.1111 23.4866 12.1569C23.6715 12.2026 23.8564 12.23 24.0413 12.23C24.1892 12.23 24.3279 12.2117 24.4666 12.1843C24.6053 12.1569 24.7347 12.102 24.8549 12.038C24.9659 11.974 25.0583 11.8917 25.1323 11.7819C25.2062 11.6722 25.2432 11.535 25.2339 11.3978C25.2339 11.3064 25.234 11.0229 24.707 10.8217C24.3094 10.6662 23.3941 10.4467 23.3849 10.4467L22.6175 10.2547C22.6175 10.2547 22.3956 10.1998 22.109 10.0992C21.8224 10.0078 21.5543 9.87973 21.3047 9.70597C21.0643 9.54136 20.8609 9.33102 20.713 9.07495C20.5558 8.79146 20.4818 8.47138 20.4911 8.14215C20.4911 7.62088 20.5928 7.18191 20.7962 6.84354C20.9903 6.51432 21.2677 6.23997 21.6005 6.03877C21.9426 5.83758 22.3124 5.7004 22.6915 5.63639C23.0983 5.56323 23.5051 5.52665 23.9119 5.52665C24.3187 5.52665 24.7255 5.56323 25.1323 5.64553C25.5113 5.71869 25.8812 5.86502 26.214 6.06621C26.5376 6.2674 26.8057 6.54176 27.0091 6.87098C27.157 7.13619 27.2587 7.41969 27.3142 7.71233C27.3419 7.85865 27.3142 8.00497 27.2217 8.11472C27.1293 8.22446 26.9906 8.28847 26.8519 8.28847H25.6777C25.3726 8.27933 25.1138 8.07814 25.0398 7.78549C24.9936 7.63917 24.8919 7.52028 24.7625 7.44712C24.4851 7.30995 24.18 7.23678 23.8656 7.24593C23.7455 7.24593 23.6253 7.24593 23.5051 7.26422C23.3941 7.27337 23.2832 7.3008 23.1722 7.34653C23.089 7.38311 23.0058 7.44712 22.9503 7.52028C22.8949 7.60259 22.8579 7.70319 22.8671 7.80378C22.8671 7.94096 22.9226 8.06899 23.0243 8.1513C23.163 8.27018 23.3294 8.36163 23.5051 8.41651C23.7454 8.49881 23.9951 8.56283 24.2355 8.6177L25.0953 8.80975C25.4004 8.88291 25.6962 8.96521 25.9921 9.06581C26.2787 9.16641 26.5468 9.30358 26.7964 9.47734C27.0368 9.6511 27.231 9.87972 27.3789 10.1358C27.5361 10.4376 27.61 10.7759 27.6008 11.1143C27.6378 12.0105 27.194 12.861 26.4543 13.3366C26.103 13.5652 25.7147 13.7207 25.3079 13.7938C24.8826 13.8761 24.4573 13.9219 24.0228 13.9219L24.0321 13.931ZM33.9524 13.739C33.6565 13.739 33.4069 13.492 33.4069 13.1811V9.64195L33.3699 8.84633C33.3514 8.66342 33.2775 8.12386 33.1388 7.89523C32.9724 7.63003 32.6765 7.49285 32.2327 7.49285C31.715 7.49285 31.3544 7.63917 31.1233 7.9501C30.9384 8.20617 30.8367 8.91034 30.8089 9.15726L30.772 9.95289V13.1811C30.772 13.492 30.5316 13.739 30.2265 13.739H28.9506C28.6548 13.739 28.4051 13.492 28.4051 13.1811V3.3684C28.4051 3.06661 28.6455 2.81055 28.9506 2.81055H30.2265C30.5223 2.81055 30.772 3.05746 30.772 3.3684V6.58748L30.7997 6.56005C30.7997 6.56005 31.1788 6.07536 31.6133 5.85587C32.0016 5.65468 32.4361 5.54494 32.8707 5.53579C33.4439 5.53579 33.9154 5.6181 34.2945 5.78271C34.6458 5.92903 34.9601 6.16681 35.1913 6.4686C35.4224 6.78867 35.5703 7.14533 35.6443 7.52943C35.6997 7.83122 35.7367 8.14215 35.7552 8.45309L35.7737 9.267V13.1903C35.7737 13.5012 35.5333 13.7481 35.2283 13.7481H33.9524V13.739Z" fill="#B9C8DE"/>
<path id="Vector_2" d="M36.9494 4.30126C36.9494 4.6122 37.1898 4.85912 37.4948 4.85912H38.7707C39.0666 4.85912 39.3162 4.60305 39.3162 4.30126V3.36846C39.3162 3.22214 39.2607 3.07582 39.159 2.97522C39.0573 2.87463 38.9186 2.81061 38.7707 2.81061H37.4948C37.199 2.81061 36.9494 3.05753 36.9494 3.36846V4.30126ZM36.9494 13.1903C36.9494 13.5013 37.1898 13.7482 37.4948 13.7482H38.7707C39.0666 13.7482 39.3162 13.4921 39.3162 13.1903V6.30405C39.3162 6.15772 39.2607 6.0114 39.159 5.91081C39.0573 5.81021 38.9186 5.74619 38.7707 5.74619H37.4948C37.199 5.74619 36.9494 5.99311 36.9494 6.30405V13.1903ZM40.4903 15.879C40.4903 16.1899 40.7308 16.4368 41.0359 16.4368H42.3117C42.6075 16.4368 42.8572 16.1899 42.8572 15.8881V13.0074L42.8849 13.044C43.0976 13.2818 43.3564 13.483 43.6338 13.6384C44.0591 13.8396 44.5214 13.9402 44.9836 13.9402C45.5106 13.9494 46.0283 13.8305 46.4999 13.5927C46.9251 13.3732 47.295 13.0531 47.5816 12.6691C47.8774 12.2758 48.0901 11.8277 48.2288 11.3522C48.3675 10.8583 48.4414 10.337 48.4414 9.82492C48.4414 9.28536 48.3767 8.73665 48.2288 8.21538C48.0993 7.72154 47.8774 7.25514 47.5816 6.84361C47.2857 6.45037 46.9067 6.12114 46.4721 5.89252C45.9821 5.6456 45.4274 5.51757 44.8727 5.53586C44.4104 5.53586 43.9481 5.63645 43.5228 5.83765C43.227 6.00226 42.9681 6.21259 42.7647 6.4778L42.7462 6.49609V6.30405C42.7462 5.99311 42.5059 5.74619 42.2008 5.74619H41.0266C40.7307 5.74619 40.4811 5.99311 40.4811 6.30405V15.8881L40.4903 15.879ZM43.6523 7.63009C43.8834 7.49291 44.1515 7.4289 44.4289 7.43804C44.697 7.43804 44.9559 7.49291 45.187 7.63009C45.3904 7.75812 45.5661 7.94102 45.7048 8.15136C45.8434 8.37999 45.9452 8.63605 46.0006 8.90126C46.0653 9.1939 46.0931 9.48655 46.0931 9.77919C46.0931 10.0718 46.0653 10.3645 46.0099 10.6571C45.9636 10.9132 45.8712 11.1601 45.7325 11.3887C45.6031 11.5899 45.4367 11.7637 45.224 11.8917C44.5121 12.2667 43.6338 12.0563 43.1623 11.3887C43.0236 11.1601 42.9312 10.9132 42.8757 10.6571C42.811 10.3736 42.7832 10.0718 42.7832 9.77919C42.7832 9.4774 42.811 9.18476 42.8664 8.88297C42.9127 8.62691 43.0051 8.37084 43.1438 8.14222C43.2732 7.93188 43.4489 7.75812 43.6523 7.63009ZM49.0239 15.879C49.0239 16.1899 49.2643 16.4368 49.5694 16.4368H50.8452C51.1411 16.4368 51.3907 16.1899 51.3907 15.8881V13.0074L51.4184 13.044C51.6311 13.2818 51.89 13.483 52.1673 13.6384C52.5926 13.8396 53.0548 13.9402 53.5171 13.9402C54.0441 13.9494 54.5711 13.8305 55.0426 13.5927C55.4679 13.3641 55.8377 13.0531 56.1243 12.6691C56.4202 12.2758 56.6328 11.8277 56.7715 11.3522C56.9102 10.8583 56.9841 10.337 56.9841 9.82492C56.9841 9.28536 56.9194 8.73665 56.7715 8.21538C56.6421 7.72154 56.4202 7.25514 56.1151 6.84361C55.8192 6.45037 55.4402 6.12114 55.0057 5.89252C54.5157 5.6456 53.9609 5.51757 53.4062 5.53586C52.9439 5.53586 52.4817 5.63645 52.0564 5.83765C51.7605 6.00226 51.5016 6.21259 51.289 6.4778L51.2705 6.49609V6.30405C51.2705 6.00226 51.0301 5.74619 50.725 5.74619H49.5509C49.255 5.74619 49.0054 5.99311 49.0054 6.30405V15.8881L49.0239 15.879ZM52.1858 7.63009C52.4169 7.49291 52.6851 7.4289 52.9624 7.43804C53.2305 7.4289 53.4987 7.49291 53.7298 7.63009C53.9332 7.76727 54.1088 7.94102 54.2383 8.15136C54.377 8.37999 54.4787 8.63605 54.5341 8.90126C54.5989 9.1939 54.6266 9.48655 54.6266 9.77919C54.6266 10.0718 54.5989 10.3645 54.5434 10.6571C54.4972 10.9132 54.4047 11.1601 54.266 11.3887C53.8222 12.0929 52.9162 12.3124 52.2135 11.8826C52.0101 11.7637 51.8345 11.5899 51.7051 11.3887C51.5664 11.1601 51.4739 10.9132 51.4184 10.6571C51.3537 10.3736 51.326 10.0718 51.326 9.77919C51.326 9.4774 51.3537 9.18476 51.4092 8.88297C51.4554 8.61776 51.5479 8.37084 51.6865 8.14222C51.816 7.93188 51.9824 7.75812 52.195 7.63009H52.1858ZM59.878 13.6476C60.4049 13.8488 60.9689 13.9494 61.5329 13.9402C62.0969 13.9402 62.6608 13.8488 63.1971 13.6476C63.6778 13.4647 64.1216 13.172 64.4822 12.7971C64.8428 12.413 65.1201 11.9649 65.305 11.471C65.4992 10.9223 65.6009 10.337 65.5916 9.75176C65.5916 9.16647 65.4992 8.58118 65.305 8.02333C64.9537 7.01737 64.1863 6.22174 63.2063 5.83765C62.1339 5.43526 60.9504 5.43526 59.8872 5.83765C58.9072 6.22174 58.1491 7.01737 57.7977 8.02333C57.6036 8.58118 57.5019 9.16647 57.5111 9.75176C57.5111 10.337 57.6036 10.9223 57.7977 11.471C57.9734 11.9649 58.2508 12.413 58.6206 12.7971C58.9812 13.1629 59.4157 13.4555 59.8965 13.6476H59.878ZM60.2293 8.13307C60.5066 7.66667 61.0059 7.40146 61.5421 7.4289C61.8195 7.4289 62.1061 7.49291 62.3465 7.63009C62.5591 7.75812 62.7348 7.93188 62.8643 8.14222C63.0029 8.37084 63.0954 8.61776 63.1416 8.88297C63.1971 9.17561 63.2248 9.46826 63.2248 9.7609C63.2248 10.0535 63.1971 10.3462 63.1416 10.6297C63.0954 10.8949 62.9937 11.1418 62.8643 11.3704C62.7348 11.5808 62.5591 11.7454 62.3465 11.8734C62.0968 12.0106 61.8195 12.0746 61.5421 12.0655C61.2648 12.0746 60.9874 12.0106 60.747 11.8826C60.5344 11.7545 60.3587 11.5808 60.2385 11.3796C60.0999 11.151 60.0074 10.904 59.9612 10.6388C59.9057 10.3553 59.878 10.0627 59.878 9.77005C59.878 9.4774 59.9057 9.18476 59.9612 8.89212C60.0074 8.63605 60.0999 8.37999 60.2385 8.15136L60.2293 8.13307ZM16.9608 3.7617C17.4231 4.13665 17.7929 4.62134 18.0148 5.1792C18.2182 5.68218 18.3106 6.22174 18.2736 6.7613C18.2367 7.27343 18.0795 7.76727 17.8022 8.20623C17.5155 8.66349 17.1272 9.02929 16.665 9.2945C16.4061 9.43168 16.138 9.55056 15.8699 9.66031L15.1302 10.017C14.5662 10.3096 14.0208 10.6297 13.4845 10.9772L11.7557 12.1295C11.3396 12.4221 9.92507 14.5255 9.22242 15.6046C12.4491 15.4675 15.1765 13.1263 15.8606 9.90722L15.9531 9.87064L16.101 9.80663L16.1472 9.78834C16.3599 9.70603 16.5633 9.61458 16.7667 9.50484C16.8129 9.4774 16.8499 9.44997 16.8961 9.42253C16.4061 13.2452 13.3829 16.2082 9.62922 16.5557C5.87559 16.9032 2.38083 14.5164 1.25289 10.84C0.124948 7.16369 1.64118 3.17641 4.9048 1.24679C8.17768 -0.682826 12.3196 -0.024377 14.8621 2.8289H14.7604C14.5478 2.8289 14.3351 2.84719 14.1225 2.88377C13.9745 2.91121 13.8174 2.93864 13.6695 2.98437C11.6077 1.08218 8.6492 0.588346 6.09747 1.7132C3.54574 2.83805 1.87232 5.38039 1.81684 8.21538C2.65817 7.94102 4.11896 7.44719 4.28538 7.27343C4.64595 6.88933 5.00651 6.50524 5.34859 6.112C5.45029 5.99311 5.55199 5.87423 5.6352 5.73705C5.66293 5.69132 5.68143 5.6456 5.69992 5.59987C5.7554 5.4627 5.82935 5.32552 5.9218 5.20663C5.87558 5.08775 5.8386 4.96886 5.81086 4.84083C5.76464 4.74938 5.73689 4.64878 5.70915 4.54818C5.64443 4.29212 5.62596 4.02691 5.64445 3.7617C5.66294 3.55137 5.72764 3.22214 5.99575 3.22214C6.08821 3.24043 6.17144 3.27701 6.2454 3.33188C6.52276 3.51478 6.77237 3.73427 7.0035 3.97204H7.03126L7.90031 3.87144C8.26088 3.81657 8.62147 3.79828 8.99128 3.81657C9.14846 3.83486 9.30563 3.8623 9.45356 3.91717C9.61073 3.97204 9.76789 4.01777 9.93431 4.0452C10.2394 4.11836 10.5538 4.1458 10.8681 4.1458C11.4691 4.13665 12.0608 3.9629 12.5785 3.64282L12.7819 3.55137L13.087 3.41419C13.4291 3.25872 13.7896 3.13984 14.1687 3.07582C14.5293 3.0118 14.8898 3.0118 15.2504 3.05753C15.8699 3.13983 16.4616 3.38675 16.9516 3.77085L16.9608 3.7617ZM9.29637 6.24918C9.55524 6.40464 9.87884 6.3955 10.1192 6.22174C10.3504 6.03884 10.4336 5.71876 10.3319 5.44441C10.2209 5.15176 9.95281 4.95971 9.65695 4.95971C9.37959 4.95971 9.12996 5.11518 9.00977 5.3621L9.02825 5.30723C9.02825 5.30723 9.00978 5.35295 8.99128 5.39868C8.99128 5.38953 9.00052 5.37124 9.00977 5.3621L8.99128 5.41697C8.93581 5.58158 8.96355 5.51757 8.99128 5.43526C8.99128 5.43526 8.97279 5.49013 8.96355 5.52671C8.91732 5.81936 9.04674 6.10285 9.29637 6.26747V6.24918Z" fill="#B9C8DE"/>
</g>
</svg>
