<?xml version="1.0" encoding="UTF-8"?><svg id="Layer_2" xmlns="http://www.w3.org/2000/svg" xmlns:xlink="http://www.w3.org/1999/xlink" viewBox="0 0 98.33 98.33"><defs><style>.cls-1{fill:url(#linear-gradient);opacity:.5;}.cls-2{fill:#fff;}.cls-3{fill:url(#linear-gradient-3);}.cls-4{opacity:.7;}.cls-5{fill:none;opacity:.8;stroke:url(#linear-gradient-2);stroke-miterlimit:10;stroke-width:2px;}</style><linearGradient id="linear-gradient" x1="6.58" y1="73.75" x2="91.75" y2="24.58" gradientUnits="userSpaceOnUse"><stop offset="0" stop-color="#00da00"/><stop offset="1" stop-color="#ffd400"/></linearGradient><linearGradient id="linear-gradient-2" x1="17.1" y1="67.68" x2="81.23" y2="30.65" xlink:href="#linear-gradient"/><linearGradient id="linear-gradient-3" x1="20.93" y1="65.47" x2="77.41" y2="32.86" gradientUnits="userSpaceOnUse"><stop offset="0" stop-color="#000"/><stop offset=".22" stop-color="#000003"/><stop offset=".4" stop-color="#03020d"/><stop offset=".57" stop-color="#08051e"/><stop offset=".73" stop-color="#0e0936"/><stop offset=".88" stop-color="#160e55"/><stop offset="1" stop-color="#1f1474"/></linearGradient></defs><g id="visuals"><g><g><circle class="cls-1" cx="49.17" cy="49.17" r="49.17"/><circle class="cls-5" cx="49.17" cy="49.17" r="36.02"/><circle class="cls-3" cx="49.17" cy="49.17" r="32.6"/></g><g id="mgWyKR" class="cls-4"><g><path class="cls-2" d="M43.74,67.1c-.51-.14-1.04-.2-1.52-.46-1.45-.77-2.25-1.98-2.26-3.61-.03-3.44-.02-6.88,0-10.32,0-2.14,1.71-3.92,3.83-4.04,2.13-.12,4.01,1.45,4.28,3.57,.02,.18,.02,.35,.02,.53,0,3.4,0,6.81,0,10.21,0,1.97-1.27,3.53-3.17,3.99-.18,.04-.39,0-.55,.13h-.61Z"/><path class="cls-2" d="M68.67,52.84c-.15,.19-.09,.41-.13,.62-.33,1.88-2.01,3.3-3.92,3.3-3.45,0-6.91,0-10.36,0-2.08,0-3.86-1.67-4-3.73-.15-2.13,1.39-4,3.49-4.29,.32-.04,.63-.06,.95-.06,3.25,0,6.5-.01,9.75,0,1.56,0,2.79,.67,3.61,2.03,.29,.48,.48,1.01,.51,1.58,0,.11,.02,.23,.1,.32v.23Z"/><path class="cls-2" d="M50.26,37.29c0-1.68,0-3.35,0-5.03,0-1.98,1.26-3.58,3.18-4.03,2.21-.52,4.51,1.05,4.84,3.3,.05,.32,.07,.63,.07,.95,0,3.32,0,6.63,0,9.95,0,1.88-1.29,3.51-3.1,3.95-2.51,.61-4.98-1.31-4.99-3.9,0-1.73,0-3.46,0-5.18Z"/><path class="cls-2" d="M37.85,51.12c-.04,.79,.09,1.74-.15,2.66-.51,1.95-2.41,3.24-4.45,3-1.95-.24-3.47-1.91-3.53-3.87-.07-2.37,1.73-4.23,4.11-4.24,1.23,0,2.46,0,3.69,0,.27,0,.34,.08,.34,.34-.02,.66,0,1.32,0,2.12Z"/><path class="cls-2" d="M52.81,58.97c.66,.05,1.48-.08,2.28,.08,1.88,.36,3.28,2.1,3.24,4.02-.04,1.91-1.52,3.62-3.38,3.91-2.49,.39-4.7-1.5-4.7-4.03,0-1.19,0-2.39,0-3.58,0-.3,.09-.4,.39-.39,.67,.02,1.35,0,2.17,0Z"/><path class="cls-2" d="M29.66,42.32c.15-.19,.09-.41,.13-.62,.33-1.88,2.01-3.3,3.92-3.3,3.45,0,6.91,0,10.36,0,2.08,0,3.86,1.67,4,3.73,.15,2.13-1.39,4-3.49,4.29-.32,.04-.63,.06-.95,.06-3.25,0-6.5,.01-9.75,0-1.56,0-2.79-.67-3.61-2.03-.29-.48-.48-1.01-.51-1.58,0-.11-.02-.23-.1-.32v-.23Z"/><path class="cls-2" d="M45.52,36.19c-.66-.05-1.48,.08-2.28-.08-1.88-.36-3.28-2.1-3.24-4.02,.04-1.91,1.52-3.62,3.38-3.91,2.49-.39,4.7,1.5,4.7,4.03,0,1.19,0,2.39,0,3.58,0,.3-.09,.4-.39,.39-.67-.02-1.35,0-2.17,0Z"/><path class="cls-2" d="M60.51,43.86c.03-.68-.07-1.51,.1-2.32,.34-1.56,1.72-3.12,3.92-3.12,2.45,0,3.98,1.98,4.04,3.93,.06,2.19-1.75,4.18-4.1,4.14-1.17-.02-2.34-.02-3.51,0-.36,0-.46-.13-.45-.47,.02-.67,0-1.35,0-2.16Z"/></g></g></g></g></svg>