<svg width="20" height="20" viewBox="0 0 20 20" fill="none" xmlns="http://www.w3.org/2000/svg">
<g id="Group">
<path id="Vector" d="M20.0019 12.8575C19.9525 13.0698 19.9187 13.2858 19.8234 13.4837C19.4363 14.2874 18.7922 14.7266 17.9045 14.7363C16.1484 14.7556 14.3923 14.7532 12.6361 14.7375C11.3914 14.7266 10.4699 13.7034 10.5519 12.4605C10.6135 11.5361 11.3456 10.7349 12.2779 10.5683C12.419 10.543 12.5614 10.537 12.7037 10.537C14.4176 10.537 16.1303 10.5358 17.8442 10.537C18.9574 10.537 19.7933 11.2489 19.979 12.3494C19.9814 12.3663 19.9947 12.382 20.0019 12.3989V12.8563V12.8575Z" fill="#61BD73"/>
<path id="Vector_2" d="M12.8884 0C13.0911 0.0651622 13.3058 0.0880896 13.4987 0.183419C14.2924 0.575599 14.7278 1.21515 14.7374 2.09846C14.7555 3.86026 14.7543 5.62084 14.7374 7.38263C14.7266 8.60262 13.7219 9.51971 12.5085 9.45696C11.452 9.40266 10.5582 8.50367 10.5498 7.44538C10.5353 5.65584 10.5365 3.86508 10.5474 2.07554C10.5534 1.03898 11.2855 0.206347 12.3095 0.028961C12.3409 0.0229274 12.3722 0.00965366 12.4036 0.00120671C12.5652 0.00120671 12.7268 0.00120671 12.8897 0.00120671L12.8884 0Z" fill="#61BD73"/>
<path id="Vector_3" d="M19.9986 7.59974C19.9286 7.89538 19.8563 8.18861 19.691 8.44926C19.3027 9.06227 18.7503 9.41946 18.0266 9.44962C17.3186 9.47979 16.6094 9.45807 15.9002 9.4629C15.8158 9.4629 15.7977 9.43273 15.7977 9.3555C15.8013 8.67009 15.7904 7.98468 15.8037 7.29927C15.8218 6.33511 16.5069 5.52179 17.4609 5.3082C18.3788 5.10306 19.334 5.56282 19.7694 6.41234C19.8888 6.64403 19.9383 6.89382 19.9986 7.1424V7.59974Z" fill="#61BD73"/>
<path id="Vector_4" d="M7.60423 0C7.68142 0.0193073 7.75982 0.0386146 7.83701 0.0579219C8.7802 0.282369 9.43754 1.07518 9.45925 2.04537C9.47493 2.72595 9.46167 3.40653 9.46649 4.08712C9.46649 4.18607 9.43031 4.20296 9.34347 4.20175C8.66804 4.19813 7.9926 4.20538 7.31717 4.19813C6.43188 4.18848 5.6479 3.59961 5.37049 2.74405C5.0967 1.90056 5.39341 0.966573 6.09537 0.434415C6.37519 0.222034 6.68637 0.0941232 7.0277 0.0313744C7.06027 0.0253409 7.09525 0.0313744 7.11937 0.00120671C7.28099 0 7.44261 0 7.60423 0Z" fill="#61BD73"/>
<path id="Vector_5" d="M4.7198 9.46175C3.86345 9.46175 3.0059 9.46537 2.14955 9.46175C1.13882 9.45572 0.318653 8.82944 0.0750162 7.88579C-0.256668 6.60065 0.679285 5.33119 2.00482 5.26724C2.05668 5.26482 2.10975 5.26362 2.16161 5.26362C3.87913 5.26362 5.59786 5.2612 7.31538 5.26362C8.35386 5.26482 9.16558 5.90196 9.41042 6.90232C9.69507 8.05956 8.86767 9.2723 7.68687 9.4352C7.54455 9.45451 7.40343 9.46296 7.2599 9.46296C6.4132 9.46296 5.5653 9.46296 4.7186 9.46296L4.7198 9.46175Z" fill="#61BD73"/>
<path id="Vector_6" d="M9.4678 15.2746C9.4678 16.141 9.47142 17.0074 9.4678 17.8738C9.46298 18.7885 8.92263 19.5692 8.09523 19.8709C6.76729 20.356 5.34165 19.4124 5.2741 17.9969C5.25963 17.6928 5.26807 17.3875 5.26807 17.0834C5.26807 15.6173 5.26566 14.1499 5.26807 12.6838C5.27049 11.6001 5.98089 10.7542 7.03746 10.566C7.98909 10.397 8.98173 10.9678 9.32427 11.8777C9.42679 12.1492 9.46901 12.4267 9.4678 12.7163C9.46539 13.5683 9.4678 14.4214 9.4678 15.2734V15.2746Z" fill="#61BD73"/>
<path id="Vector_7" d="M4.20852 11.7931C4.19164 12.1214 4.23626 12.5268 4.18319 12.9298C4.03725 14.0352 3.0036 14.8533 1.90241 14.7254C1.06898 14.6277 0.470741 14.1848 0.164385 13.4101C-0.161269 12.5883 0.00276405 11.8245 0.60462 11.1765C0.982138 10.7698 1.467 10.5526 2.02544 10.5418C2.71052 10.5285 3.39559 10.5406 4.08067 10.5333C4.19525 10.5333 4.21093 10.5744 4.20973 10.6733C4.2049 11.0208 4.20732 11.3684 4.20732 11.7907L4.20852 11.7931Z" fill="#61BD73"/>
<path id="Vector_8" d="M10.5432 17.0726C10.5432 16.6394 10.5469 16.2822 10.5408 15.925C10.5396 15.8249 10.5686 15.7983 10.6675 15.7983C11.3332 15.8031 12.0002 15.7947 12.666 15.8019C14.0711 15.8164 15.0614 17.1836 14.6429 18.5243C14.3582 19.4353 13.4633 20.0592 12.5345 19.9952C11.5238 19.9252 10.7278 19.2133 10.5722 18.2359C10.507 17.8244 10.5613 17.4093 10.5432 17.0714V17.0726Z" fill="#61BD73"/>
</g>
</svg>
