<svg width="98" height="98" viewBox="0 0 98 98" fill="none" xmlns="http://www.w3.org/2000/svg">
<circle cx="48.5774" cy="48.5774" r="48.5774" fill="#262262"/>
<path d="M37.6814 53.1282C37.6814 55.2444 35.9546 56.9732 33.8407 56.9732C31.7268 56.9732 30 55.2444 30 53.1282C30 51.012 31.7268 49.2832 33.8407 49.2832H37.6814V53.1282Z" fill="#E01E5A"/>
<path d="M39.6172 53.1282C39.6172 51.012 41.344 49.2832 43.4579 49.2832C45.5717 49.2832 47.2986 51.012 47.2986 53.1282V62.7556C47.2986 64.8719 45.5717 66.6006 43.4579 66.6006C41.344 66.6006 39.6172 64.8719 39.6172 62.7556V53.1282Z" fill="#E01E5A"/>
<path d="M43.4579 37.69C41.344 37.69 39.6172 35.9612 39.6172 33.845C39.6172 31.7288 41.344 30 43.4579 30C45.5717 30 47.2986 31.7288 47.2986 33.845V37.69H43.4579Z" fill="#36C5F0"/>
<path d="M43.4573 39.627C45.5712 39.627 47.298 41.3557 47.298 43.472C47.298 45.5882 45.5712 47.317 43.4573 47.317H33.8407C31.7268 47.317 30 45.5882 30 43.472C30 41.3557 31.7268 39.627 33.8407 39.627H43.4573Z" fill="#36C5F0"/>
<path d="M58.8789 43.472C58.8789 41.3557 60.6057 39.627 62.7196 39.627C64.8335 39.627 66.5603 41.3557 66.5603 43.472C66.5603 45.5882 64.8335 47.317 62.7196 47.317H58.8789V43.472Z" fill="#2EB67D"/>
<path d="M56.9431 43.4724C56.9431 45.5887 55.2163 47.3174 53.1024 47.3174C50.9885 47.3174 49.2617 45.5887 49.2617 43.4724V33.845C49.2617 31.7288 50.9885 30 53.1024 30C55.2163 30 56.9431 31.7288 56.9431 33.845V43.4724Z" fill="#2EB67D"/>
<path d="M53.1024 58.9102C55.2163 58.9102 56.9431 60.6389 56.9431 62.7552C56.9431 64.8714 55.2163 66.6002 53.1024 66.6002C50.9885 66.6002 49.2617 64.8714 49.2617 62.7552V58.9102H53.1024Z" fill="#ECB22E"/>
<path d="M53.1024 56.9732C50.9885 56.9732 49.2617 55.2444 49.2617 53.1282C49.2617 51.012 50.9885 49.2832 53.1024 49.2832H62.719C64.8329 49.2832 66.5597 51.012 66.5597 53.1282C66.5597 55.2444 64.8329 56.9732 62.719 56.9732H53.1024Z" fill="#ECB22E"/>
</svg>
