<svg width="151" height="26" viewBox="0 0 151 26" fill="none" xmlns="http://www.w3.org/2000/svg">
<g id="Layer_1" clip-path="url(#clip0_3950_1007)">
<path id="Vector" d="M20.2656 25.5829C20.2744 25.3534 20.2921 25.1253 20.2921 24.8959C20.2934 21.1558 20.2934 17.4158 20.2921 13.6757C20.2921 12.1744 20.693 10.8042 21.6119 9.59657C22.6153 8.27804 23.9275 7.42212 25.5599 7.15237C27.1986 6.88261 28.8575 6.91664 30.4975 7.17001C31.3484 7.30111 32.1161 7.71079 32.8283 8.19988C32.9833 8.30577 33.1358 8.41544 33.2934 8.52636C33.538 8.47972 33.6955 8.29946 33.8783 8.17341C34.9561 7.42843 36.1498 7.0427 37.4583 7.02379C38.2965 7.01118 39.1361 7.00866 39.9743 7.01875C43.1837 7.06034 45.851 9.45539 46.3061 12.6093C46.354 12.9383 46.3351 13.2761 46.3351 13.6102C46.3351 17.6011 46.3338 21.5907 46.3313 25.5816H41.7983C41.8059 25.54 41.821 25.4997 41.821 25.4581C41.8235 21.4041 41.8298 17.3502 41.821 13.2963C41.8185 12.4278 41.2147 11.7017 40.3411 11.5176C39.3289 11.3046 38.2915 11.3462 37.2818 11.4735C36.2128 11.6084 35.6216 12.4 35.6191 13.4841C35.609 17.412 35.6065 21.3411 35.6027 25.269C35.6027 25.3724 35.6191 25.4757 35.6292 25.5803H31.0963C31.0963 21.7546 31.0963 17.9275 31.0963 14.1018C31.0963 13.8509 31.1101 13.5976 31.0811 13.3492C30.9601 12.2765 30.3614 11.6538 29.5017 11.5038C28.5033 11.3298 27.4949 11.3777 26.4978 11.4622C25.8486 11.5176 25.328 11.9097 25.0242 12.511C24.8339 12.8891 24.7973 13.3026 24.7973 13.7249C24.8023 17.6767 24.7998 21.6285 24.7998 25.5803H20.2669L20.2656 25.5829Z" fill="#7F65BD"/>
<path id="Vector_2" d="M126.552 25.5829C126.127 25.3711 125.653 25.4808 125.203 25.3686C121.576 24.4685 119.203 22.2437 118.202 18.6738C117.394 15.7897 117.989 13.1022 119.775 10.6996C121.039 9.00034 122.732 7.89357 124.778 7.34271C126.648 6.83849 128.497 6.90782 130.298 7.65407C130.899 7.90366 131.419 8.28686 131.981 8.80621V7.04648H136.5V25.5816H132.092C132.074 25.0131 132.058 24.4446 132.036 23.7526C130.981 24.7849 129.814 25.3421 128.45 25.4593C128.277 25.4921 128.063 25.356 127.936 25.5803H126.551L126.552 25.5829ZM127.12 21.0777C129.648 21.2315 132.019 18.9852 132.01 16.2977C132.001 13.6555 129.77 11.5303 127.24 11.505C124.53 11.4773 122.379 13.7992 122.373 16.2788C122.365 18.9612 124.682 21.1558 127.122 21.0777H127.12Z" fill="#7E64BD"/>
<path id="Vector_3" d="M57.9207 25.5829C57.4505 25.3799 56.9374 25.4669 56.4471 25.3459C52.8835 24.4711 50.0611 21.7457 49.3956 17.8607C48.8523 14.6942 49.7989 11.9135 52.0906 9.64951C53.539 8.21879 55.3088 7.37926 57.3585 7.11581C58.8257 6.92673 60.2262 7.06791 61.5952 7.62381C62.0653 7.81541 62.4927 8.065 62.8872 8.3814C63.012 8.48098 63.099 8.65116 63.3587 8.61334V7.049H67.7996C67.9193 7.13724 67.8803 7.27212 67.8803 7.39061C67.8815 13.4123 67.8803 19.4352 67.8803 25.4568C67.8803 25.4984 67.874 25.54 67.8702 25.5816H63.462C63.4444 25.0118 63.4267 24.4421 63.4053 23.7626C62.3464 24.7912 61.1855 25.3471 59.8254 25.4619C59.6501 25.4921 59.4358 25.356 59.306 25.5816H57.9207V25.5829ZM63.3625 16.338C63.5099 13.735 61.1565 11.5025 58.6026 11.4987C56.1698 11.495 53.7961 13.5144 53.7583 16.2321C53.7192 19.0154 56.1244 21.0663 58.527 21.1029C61.0859 21.1419 63.4784 18.9234 63.3625 16.3393V16.338Z" fill="#7E64BD"/>
<path id="Vector_4" d="M8.17692 25.5829C7.68404 25.385 7.15209 25.4732 6.6403 25.3509C3.20909 24.524 0.527898 21.597 0.106875 18.1544C0.0791424 17.9275 -0.0103566 17.712 0.00098834 17.4763C0.0123333 17.2481 0.00350944 17.0187 0.00350944 16.7943C0.467392 16.6809 3.72591 16.6594 4.38644 16.7615C4.55914 16.9078 4.49359 17.112 4.50115 17.291C4.59317 19.3041 6.44996 21.0335 8.45045 21.1092C10.751 21.1961 12.2964 19.6646 12.7401 18.128C13.2985 16.1981 12.5611 14.1875 10.6993 13.2736C9.69336 12.7795 8.60172 12.5942 7.54538 12.279C6.56593 11.9866 5.57766 11.7143 4.69528 11.1748C3.23682 10.2848 2.37586 8.96377 2.02921 7.32758C1.5918 5.26153 2.17796 3.435 3.59356 1.90595C4.52258 0.900032 5.71128 0.305053 7.09032 0.100844C7.69538 0.011345 8.29919 0 8.90551 0C10.4169 0 11.9271 0 13.4384 0C13.6427 0 13.8481 0 14.0788 0V4.41697C13.8658 4.54806 13.6502 4.48882 13.4473 4.49008C11.622 4.49512 9.79672 4.49386 7.97018 4.4926C7.31218 4.4926 6.84073 4.83295 6.55459 5.37624C6.27727 5.90315 6.30248 6.46536 6.64156 6.98345C6.86972 7.33262 7.21764 7.52926 7.6021 7.64397C8.60046 7.94398 9.60638 8.21374 10.6047 8.51249C12.3544 9.03562 13.9275 9.85498 15.2108 11.1861C16.2873 12.303 16.9566 13.624 17.2264 15.1342C17.6386 17.4372 17.2983 19.6217 16.0075 21.6033C14.6675 23.6605 12.7578 24.9223 10.3551 25.4392C9.97068 25.5211 9.561 25.4316 9.18283 25.5829H8.17565H8.17692Z" fill="#7F65BD"/>
<path id="Vector_5" d="M107.407 25.5828C106.892 25.3937 106.34 25.4732 105.807 25.3496C102.127 24.5013 99.3084 21.4898 98.7084 17.78C98.0541 13.7374 100.067 9.81587 103.667 8.04102C107.114 6.34306 110.466 6.69349 113.587 8.96374C114.565 9.67595 115.321 10.5861 115.97 11.6777C114.69 12.4176 113.415 13.1551 112.109 13.9101C111.236 12.5437 110.018 11.7017 108.394 11.5315C106.915 11.3764 105.604 11.8302 104.546 12.8513C102.58 14.7497 102.603 17.8456 104.538 19.7465C106.321 21.4974 109.876 21.9134 112.141 18.7305C113.398 19.444 114.662 20.1625 115.958 20.8974C115.438 21.8831 114.729 22.6937 113.899 23.397C112.698 24.4168 111.299 25.0408 109.767 25.4001C109.318 25.5047 108.847 25.3975 108.412 25.5803H107.405L107.407 25.5828Z" fill="#7F65BD"/>
<path id="Vector_6" d="M145.44 25.5829C145.325 25.3446 145.072 25.4278 144.891 25.3736C142.333 24.606 140.785 22.9093 140.191 20.3352C140.094 19.9129 140.059 19.468 140.059 19.0343C140.05 13.7035 140.052 8.3726 140.055 3.04174C140.055 2.85896 140.002 2.66483 140.12 2.49718C140.559 2.37364 143.599 2.34087 144.54 2.45558V7.00238H150.56V11.4017C149.912 11.4345 149.25 11.413 148.59 11.4168C147.939 11.4206 147.289 11.4168 146.639 11.4168C145.988 11.4168 145.302 11.4168 144.666 11.4168C144.505 11.6009 144.56 11.7761 144.56 11.9349C144.56 14.2758 144.568 16.6179 144.569 18.9587C144.569 19.8852 144.97 20.5508 145.817 20.9516C146.076 21.0739 146.342 21.0764 146.615 21.0764C148.04 21.0764 149.465 21.0764 150.96 21.0764C151.029 21.8391 150.982 22.5828 150.99 23.324C150.996 24.0765 150.984 24.8291 150.98 25.5816H145.439L145.44 25.5829Z" fill="#7F65BD"/>
<path id="Vector_7" d="M91.1649 25.5829C90.817 25.4014 90.4249 25.5123 90.0606 25.4127C87.3252 24.669 85.7344 22.8689 85.1483 20.1436C85.0915 19.8814 85.1092 19.6028 85.1092 19.3306C85.1067 13.856 85.1079 8.38268 85.1092 2.90811C85.1092 2.76441 85.0827 2.61566 85.171 2.43793H89.5148V6.99229H95.539V11.3967H89.685C89.4846 11.5769 89.5426 11.7547 89.5426 11.9135C89.5388 14.1699 89.5425 16.4262 89.5375 18.6826C89.5375 19.0621 89.5942 19.4352 89.7052 19.7881C89.951 20.5722 90.672 21.0689 91.5178 21.0739C92.7759 21.0815 94.0339 21.0764 95.2932 21.0764C95.5012 21.0764 95.7092 21.0764 95.8756 21.0764C96.1277 21.2958 96.0432 21.5416 96.0457 21.7596C96.0621 23.0328 96.0672 24.3072 96.076 25.5804H91.1649V25.5829Z" fill="#7E64BD"/>
<path id="Vector_8" d="M71.3918 25.5828C71.3918 21.5503 71.4057 17.5178 71.3868 13.4853C71.3717 10.2899 73.8033 7.57463 76.7744 7.11705C77.1488 7.05907 77.5194 7.01873 77.895 7.01621C79.1745 7.00864 80.4539 7.01116 81.7334 7.01621C81.8746 7.01621 82.0271 6.97461 82.1834 7.09436V11.3222C82.0548 11.4748 81.8758 11.4155 81.717 11.4155C80.4791 11.4206 79.2425 11.418 78.0047 11.418C77.2118 11.418 76.5866 11.7294 76.1681 12.4114C76.0029 12.6811 75.9122 12.971 75.9122 13.2988C75.9122 17.3313 75.9059 21.3638 75.9033 25.3963C75.9033 25.458 75.9197 25.5198 75.9273 25.5816H71.3944L71.3918 25.5828Z" fill="#7F65BD"/>
<path id="Vector_9" d="M59.824 25.4631C59.8051 25.5009 59.8001 25.5413 59.8089 25.5829H59.3047C59.4345 25.3572 59.6488 25.4934 59.824 25.4631Z" fill="#7F65BD"/>
<path id="Vector_10" d="M128.449 25.4618C128.43 25.5009 128.426 25.5412 128.438 25.5828H127.934C128.061 25.3572 128.275 25.4946 128.448 25.4618H128.449Z" fill="#7F65BD"/>
</g>
<defs>
<clipPath id="clip0_3950_1007">
<rect width="151" height="25.5829" fill="white"/>
</clipPath>
</defs>
</svg>
