<svg width="160" height="32" viewBox="0 0 160 32" fill="none" xmlns="http://www.w3.org/2000/svg">
<path fill-rule="evenodd" clip-rule="evenodd" d="M123.077 17.422C123.077 21.1182 125.495 23.9428 129.085 23.9428C131.647 23.9428 133.072 22.7181 134.165 21.019L137.346 23.2036C135.634 25.8847 132.895 27.5729 129.074 27.5729C123.397 27.5729 118.88 23.2587 118.88 17.411C118.88 11.5632 123.397 7.28217 129.074 7.28217C132.663 7.28217 135.225 8.56206 137.003 11.3315L133.889 13.5492C132.961 12.0376 131.36 10.9563 129.085 10.9563C125.495 10.9563 123.077 13.7257 123.077 17.422ZM58.4682 15.5021L57.4521 15.0718C55.7072 14.3105 54.9451 13.814 54.9451 12.6003C54.9451 11.6073 55.7072 10.857 56.8999 10.857C58.0707 10.857 58.8216 11.3535 59.5285 12.6003L62.7092 10.5591C61.3618 8.19795 59.5064 7.2932 56.911 7.2932C53.2665 7.2932 50.9361 9.62128 50.9361 12.6776C50.9361 15.9987 52.891 17.5654 55.8288 18.8233L56.8447 19.2646C58.7113 20.081 59.8156 20.5776 59.8156 21.9678C59.8156 23.1373 58.7332 23.976 57.0436 23.976C55.0335 23.976 53.896 22.9277 53.0234 21.5043L49.6992 23.4243C50.8919 25.7854 53.3437 27.5839 57.1318 27.5839C61.0084 27.5839 63.8909 25.5758 63.8909 21.9017C63.8909 18.5033 61.9361 16.9917 58.4682 15.5021ZM80.17 14.6526C78.3367 14.6526 76.9672 15.5021 75.9402 16.7821C75.1781 15.3256 74.0517 14.6526 72.4392 14.6526C70.9481 14.6526 69.7886 15.3256 68.9161 16.8372L69.0044 14.9174H65.0727V27.3191H69.0044V20.6769C69.0044 18.9887 69.7002 18.2274 71.2242 18.2274C72.7153 18.2274 73.1459 19.0108 73.1459 20.4673V27.308H77.0445V20.6659C77.0445 18.9776 77.7183 18.2163 79.2313 18.2163C80.7223 18.2163 81.1861 18.9997 81.1861 20.4562V27.297H85.0847V20.1031C85.0958 16.7269 83.2956 14.6526 80.17 14.6526ZM86.8629 16.6937C88.0336 15.5574 89.3368 14.6526 92.2525 14.6526C95.4332 14.6526 97.8518 16.3738 97.8407 20.2796V27.3301H93.9312L94.0195 25.6089C93.0918 27.0322 92.0095 27.5839 90.3529 27.5839C88.0888 27.5839 85.9903 26.5578 85.9903 23.6779C85.9903 21.03 88.0004 19.9487 91.0597 19.9487H93.9423C93.887 18.5254 93.1912 17.8853 91.8769 17.8853C90.386 17.8853 89.6018 18.5254 89.0497 19.0218L86.8629 16.6937ZM91.5235 24.5276C93.1249 24.5276 93.9423 23.8325 93.9423 22.7844V22.2878H91.2585C90.2645 22.2878 89.8337 22.7291 89.8337 23.4243C89.8337 24.1193 90.419 24.5276 91.5235 24.5276ZM114.44 24.2959C113.833 24.2959 113.424 24.031 113.424 22.7844V18.1833H116.605V14.9174H113.424V8.45171H109.515V14.9174C109.128 14.9174 108.998 14.9118 108.868 14.9063C108.739 14.9008 108.609 14.8953 108.222 14.8953C107.648 14.8953 107.063 14.8953 106.488 14.9174C106.312 14.9174 106.146 14.9284 105.969 14.9505C105.174 15.0608 104.445 15.4249 103.937 16.0427C103.805 16.2083 103.694 16.3848 103.584 16.5613C103.528 16.6607 103.473 16.76 103.429 16.8593C103.424 16.8691 103.417 16.88 103.41 16.8915L103.395 16.9162C103.347 16.9948 103.283 17.0987 103.274 17.1682L103.33 14.9284H99.3979V27.3301H103.33V21.8243C103.33 21.5173 103.335 21.467 103.348 21.3332C103.354 21.2649 103.363 21.1753 103.374 21.019C103.407 20.5887 103.639 20.048 103.849 19.6839C104.136 19.1653 104.622 18.8233 105.152 18.5915C106.08 18.2053 107.107 18.1723 108.09 18.1723C108.278 18.1723 108.463 18.175 108.648 18.1777C108.832 18.1805 109.018 18.1833 109.205 18.1833H109.349H109.503V22.663C109.503 26.3923 111.315 27.639 113.822 27.639C115.633 27.639 116.682 26.9991 117.29 26.5025L115.81 23.7663L115.741 23.8123C115.468 23.9976 115.029 24.2959 114.44 24.2959ZM144.028 14.6526C141.112 14.6526 139.798 15.5574 138.638 16.6937L140.825 19.0218C141.377 18.5254 142.161 17.8853 143.652 17.8853C144.966 17.8853 145.662 18.5254 145.717 19.9487H142.835C139.776 19.9487 137.766 21.03 137.766 23.6779C137.766 26.5578 139.864 27.5839 142.139 27.5839C143.796 27.5839 144.878 27.0322 145.817 25.6089L145.728 27.3301H149.638V20.2796C149.627 16.3738 147.208 14.6526 144.028 14.6526ZM145.717 22.7844C145.717 23.8325 144.9 24.5276 143.299 24.5276C142.194 24.5276 141.609 24.1193 141.609 23.4243C141.609 22.7291 142.051 22.2878 143.034 22.2878H145.717V22.7844ZM158.438 23.8123C158.462 23.796 158.485 23.7806 158.507 23.7663L159.997 26.5025C159.39 26.9991 158.341 27.639 156.53 27.639C154.023 27.639 152.211 26.3923 152.211 22.663V18.1833H150.378V14.9174H152.211V8.45171H156.121V14.9174H159.302V18.1833H156.121V22.7844C156.121 24.031 156.53 24.2959 157.137 24.2959C157.726 24.2959 158.165 23.9976 158.438 23.8123Z" fill="#222121"/>
<path d="M20.6162 31.4788L20.0638 31.9533L10.6211 8.16492H31.8371L20.6162 31.4788Z" fill="#1072BA"/>
<path d="M7.91869 0L0 22.5195L20.0672 31.9532L7.91869 0Z" fill="#249FDA"/>
<path d="M32.2262 0L20.0664 31.9532L40.1449 22.5195L32.2262 0Z" fill="#249FDA"/>
</svg>
