<svg width="126" height="130" viewBox="0 0 126 130" fill="none" xmlns="http://www.w3.org/2000/svg">
<g id="Group 2694">
<g id="Group 2693">
<g id="Group">
<path id="Vector" d="M62.4882 129.984C44.1004 129.984 25.7126 129.984 7.3248 129.984C6.0881 129.984 4.81885 130.049 3.58215 129.919C1.46674 129.691 0.0347718 128.487 0.00222705 126.339C-0.0628625 124.158 1.30402 122.889 3.41943 122.629C4.65613 122.466 5.89283 122.531 7.16207 122.531C44.3933 122.531 81.6245 122.531 118.856 122.531C119.637 122.531 120.418 122.531 121.199 122.531C123.868 122.531 126.015 123.442 125.918 126.404C125.853 129.073 123.835 129.984 121.362 129.984C119.637 129.984 117.944 129.984 116.22 129.984C98.2874 129.984 80.3878 129.984 62.4556 129.984H62.4882Z" fill="#00B2E8"/>
<path id="Vector_2" d="M56.8899 86.9596C56.8899 93.3383 56.955 99.7171 56.8899 106.096C56.8248 111.238 54.9697 113.093 49.7626 113.093C37.005 113.158 24.215 113.158 11.4249 113.093C6.51061 113.093 4.55792 111.173 4.52538 106.324C4.46029 93.078 4.46029 79.8648 4.52538 66.6191C4.52538 61.7699 6.51061 59.8823 11.4249 59.8498C24.1824 59.7847 36.9725 59.7847 49.7626 59.8498C54.9697 59.8498 56.8248 61.7374 56.8899 66.8794C56.9875 73.5837 56.8899 80.2553 56.8899 86.9596Z" fill="#01B3E8"/>
<path id="Vector_3" d="M65.3154 86.4389C65.3154 80.0601 65.2828 73.6814 65.3154 67.3026C65.3479 61.8025 67.1379 59.9149 72.5078 59.8824C85.1351 59.8173 97.73 59.8173 110.357 59.8824C115.792 59.8824 117.647 61.7374 117.647 67.2049C117.712 80.1252 117.712 93.0455 117.647 105.966C117.647 111.336 115.727 113.126 110.227 113.158C97.7625 113.191 85.2979 113.191 72.8332 113.158C67.1053 113.158 65.3479 111.368 65.2828 105.608C65.2177 99.229 65.2828 92.8502 65.2828 86.4714L65.3154 86.4389Z" fill="#01B3E8"/>
<path id="Vector_4" d="M56.8969 26.524C56.8969 32.9027 56.962 39.2815 56.8969 45.6928C56.8318 50.3467 54.9442 52.2994 50.3554 52.332C37.2724 52.4296 24.1894 52.4296 11.0739 52.332C6.48506 52.332 4.59747 50.3467 4.56492 45.6928C4.49983 32.6098 4.53238 19.5269 4.56492 6.44386C4.53238 2.27813 6.64779 0.0325448 10.8461 0C24.0918 0 37.3375 0 50.5832 0C54.7815 0 56.8643 2.24559 56.8969 6.41132C56.8969 13.1155 56.8969 19.8198 56.8969 26.4914V26.524Z" fill="#01B3E8"/>
<path id="Vector_5" d="M52.1371 86.9595C52.1371 92.8827 52.072 98.8058 52.1697 104.696C52.2022 107.105 51.8117 108.407 48.9152 108.374C36.776 108.244 24.6042 108.276 12.4651 108.374C10.0242 108.374 9.21058 107.625 9.24312 105.185C9.34076 92.72 9.34076 80.2553 9.24312 67.8232C9.24312 65.3173 10.1218 64.6339 12.4976 64.6339C24.6368 64.7315 36.8085 64.7315 48.9477 64.6339C51.356 64.6339 52.2347 65.3824 52.1697 67.8232C52.0395 74.202 52.1371 80.5808 52.1371 86.9595Z" fill="#FCFCFC"/>
<path id="Vector_6" d="M112.93 86.4716C112.93 92.6876 112.832 98.9362 112.963 105.152C113.028 107.593 112.149 108.374 109.741 108.374C97.6014 108.277 85.4297 108.277 73.2905 108.374C70.9147 108.374 70.0035 107.691 70.036 105.217C70.1336 92.7527 70.1336 80.2881 70.036 67.856C70.036 65.4151 70.8171 64.634 73.2579 64.634C85.3971 64.7317 97.5689 64.7642 109.708 64.634C112.605 64.6015 113.028 65.8707 112.963 68.279C112.832 74.3649 112.93 80.4182 112.93 86.5041V86.4716Z" fill="#FCFCFC"/>
<path id="Vector_7" d="M30.6909 4.78416C36.7442 4.78416 42.83 4.84925 48.8834 4.75161C51.2266 4.71907 52.1704 5.33742 52.1704 7.87591C52.0728 20.1453 52.0728 32.4472 52.1704 44.7166C52.1704 46.9947 51.3242 47.6456 49.1437 47.6131C36.8418 47.548 24.5724 47.5154 12.2705 47.6131C9.6344 47.6131 9.21131 46.474 9.24386 44.2284C9.30895 32.0892 9.34149 19.9826 9.24386 7.84336C9.24386 5.33742 10.1226 4.65398 12.4983 4.68652C18.5517 4.8167 24.6375 4.71907 30.6909 4.71907V4.78416Z" fill="#FCFCFC"/>
<path id="Vector_8" d="M27.9232 86.439C27.9232 83.3473 27.9232 80.2555 27.9232 77.1638C27.9232 75.3413 28.8344 74.1046 30.6244 74.072C32.4469 74.0069 33.4558 75.2111 33.4558 77.0336C33.4558 83.3798 33.4883 89.7261 33.4558 96.0397C33.4558 97.8622 32.3493 99.0013 30.5268 98.9037C28.7042 98.806 27.8906 97.5043 27.8906 95.7143C27.8906 92.6225 27.8906 89.5308 27.8906 86.439H27.9232Z" fill="#01B2E8"/>
<path id="Vector_9" d="M16.668 86.0484C16.668 83.2496 16.668 80.4507 16.668 77.6519C16.668 75.9921 16.9609 74.2347 18.881 74.1045C20.8662 73.9743 21.3544 75.6341 21.3544 77.3264C21.3544 83.4123 21.3544 89.4656 21.3544 95.5515C21.3544 97.2438 20.8988 98.9361 18.9461 98.871C17.026 98.8059 16.668 97.0485 16.668 95.3887C16.668 92.2644 16.668 89.1727 16.668 86.0484Z" fill="#02B3E8"/>
<path id="Vector_10" d="M40.0703 86.4713C40.0703 83.347 40.0703 80.2552 40.0703 77.1309C40.0703 75.5688 40.6887 74.1694 42.3159 74.1043C43.9757 74.0392 44.6917 75.4061 44.6917 76.9682C44.6917 83.347 44.7242 89.7258 44.6917 96.1045C44.6917 97.6341 43.9431 99.0336 42.2508 98.9034C40.591 98.7732 40.0703 97.3412 40.0703 95.8116C40.0703 92.6873 40.0703 89.5956 40.0703 86.4713Z" fill="#02B3E8"/>
<path id="Vector_11" d="M94.3204 86.8295C94.3204 89.7585 94.3204 92.7201 94.3204 95.6491C94.3204 97.6669 93.3766 99.0338 91.3262 98.9361C89.5363 98.8385 88.7227 97.5042 88.7227 95.7142C88.7227 89.5307 88.7227 83.3472 88.7227 77.1637C88.7227 75.3412 89.6665 74.137 91.489 74.1045C93.3115 74.1045 94.2553 75.3086 94.2878 77.0986C94.2878 80.3531 94.2878 83.6076 94.2878 86.8295H94.3204Z" fill="#01B2E8"/>
<path id="Vector_12" d="M82.1513 86.8294C82.1513 89.9537 82.2164 93.0454 82.1513 96.1697C82.1188 97.6993 81.3702 99.0337 79.6454 98.8709C78.2134 98.7408 77.5625 97.5366 77.5625 96.1697C77.5625 89.6282 77.5625 83.0867 77.5625 76.5453C77.5625 75.1458 78.4412 74.0393 79.8406 74.0393C81.2401 74.0393 82.0862 75.1458 82.0862 76.5453C82.1513 79.9625 82.0862 83.3797 82.0862 86.8294H82.1513Z" fill="#02B3E8"/>
<path id="Vector_13" d="M100.857 86.0483C100.857 83.2495 100.857 80.4506 100.857 77.6518C100.857 75.992 101.15 74.2346 103.07 74.1369C105.022 74.0068 105.511 75.6991 105.511 77.3914C105.511 83.4773 105.511 89.5306 105.511 95.6165C105.511 97.3088 105.022 99.0011 103.07 98.9035C101.15 98.8059 100.824 97.081 100.824 95.3887C100.824 92.2644 100.824 89.1726 100.824 86.0483H100.857Z" fill="#02B3E8"/>
<path id="Vector_14" d="M27.9297 26.1335C27.9297 22.879 27.9297 19.6245 27.9297 16.4026C27.9297 14.5801 28.8409 13.3434 30.6634 13.3109C32.486 13.2458 33.4948 14.4499 33.4948 16.2724C33.4948 22.6187 33.5274 28.9649 33.4948 35.2786C33.4948 37.1011 32.3883 38.2401 30.5658 38.1425C28.7759 38.0449 27.9297 36.7431 27.9297 34.9531C27.9297 32.0241 27.9297 29.0625 27.9297 26.1335Z" fill="#01B2E8"/>
<path id="Vector_15" d="M44.7242 25.4176C44.7242 28.6721 44.7242 31.9591 44.7242 35.2136C44.7242 36.7757 44.0082 38.1426 42.3484 38.11C40.6887 38.0775 40.1029 36.6455 40.0703 35.0834C40.0703 28.8673 40.0703 22.6187 40.0703 16.4027C40.0703 14.8731 40.591 13.376 42.2183 13.3109C44.2035 13.2133 44.6917 14.8405 44.7242 16.5329C44.7242 19.4944 44.7242 22.456 44.7242 25.4176Z" fill="#02B3E8"/>
<path id="Vector_16" d="M21.3544 25.7103C21.3544 28.6719 21.3544 31.6335 21.3544 34.5951C21.3544 36.2548 21.029 38.0123 19.1088 38.1099C17.1561 38.2075 16.668 36.5152 16.668 34.8229C16.668 28.737 16.668 22.6837 16.668 16.5978C16.668 14.9055 17.1561 13.2132 19.1088 13.3108C21.029 13.4084 21.3544 15.1658 21.3219 16.8256C21.3219 19.7872 21.3219 22.7488 21.3219 25.7103H21.3544Z" fill="#02B3E8"/>
</g>
<g id="Group_2">
<path id="Vector_17" d="M90.4012 7.4856C90.7917 6.80216 91.7681 6.80216 92.1586 7.4856L103.94 28.2817L115.721 49.1429C116.112 49.7938 115.623 50.6399 114.842 50.6399H67.7175C66.9364 50.6399 66.4808 49.8263 66.8388 49.1429L78.62 28.2817L90.4012 7.4856Z" stroke="#00B3E9" stroke-linecap="round" stroke-linejoin="round"/>
<path id="Vector_18" d="M80.8672 24.832L88.3525 18.6159L93.6898 25.19L98.1484 18.2579" stroke="#00B3E9" stroke-linecap="round" stroke-linejoin="round"/>
<path id="Vector_19" d="M91.2497 26.6218H69.4121C67.8664 26.6218 66.6133 27.8749 66.6133 29.4206V43.7728C66.6133 45.3186 67.8664 46.5717 69.4121 46.5717H91.2497C92.7954 46.5717 94.0485 45.3186 94.0485 43.7728V29.4206C94.0485 27.8749 92.7954 26.6218 91.2497 26.6218Z" fill="#00B3E9"/>
<path id="Vector_20" d="M70.1367 29.8763H83.1221" stroke="white" stroke-width="0.5" stroke-linecap="round" stroke-linejoin="round"/>
<path id="Vector_21" d="M70.1367 40.7461H83.1221" stroke="white" stroke-width="0.5" stroke-linecap="round" stroke-linejoin="round"/>
<path id="Vector_22" d="M73.7734 44.5214H86.7588" stroke="white" stroke-width="0.5" stroke-linecap="round" stroke-linejoin="round"/>
<path id="Vector_23" d="M74.6875 33.4235H91.2853" stroke="white" stroke-width="0.5" stroke-linecap="round" stroke-linejoin="round"/>
<path id="Vector_24" d="M74.8164 37.0689H91.4142" stroke="white" stroke-width="0.5" stroke-linecap="round" stroke-linejoin="round"/>
<path id="Vector_25" d="M72.6075 23.0418C74.0993 23.0418 75.3087 21.8325 75.3087 20.3406C75.3087 18.8488 74.0993 17.6394 72.6075 17.6394C71.1156 17.6394 69.9062 18.8488 69.9062 20.3406C69.9062 21.8325 71.1156 23.0418 72.6075 23.0418Z" stroke="#00B3E9" stroke-linecap="round" stroke-linejoin="round"/>
<path id="Vector_26" d="M61.1484 25.6455L69.4473 21.4473" stroke="#00B3E9" stroke-linecap="round" stroke-linejoin="round"/>
<path id="Vector_27" d="M77.3203 18.3554L80.0215 17.2163" stroke="#00B3E9" stroke-linecap="round" stroke-linejoin="round"/>
<path id="Vector_28" d="M72.6016 23.0419V27.6633" stroke="#00B3E9" stroke-linecap="round" stroke-linejoin="round"/>
</g>
</g>
</g>
</svg>
