<svg width="322" height="367" viewBox="0 0 322 367" fill="none" xmlns="http://www.w3.org/2000/svg">
<path d="M130.232 155.846V108.168C130.232 102.47 127.204 97.2147 122.284 94.3593L81.0788 70.5205C76.1587 67.6771 70.0893 67.6771 65.1692 70.5205L23.9645 94.3593C19.0443 97.2027 16.0156 102.47 16.0156 108.168V155.846C16.0156 161.545 19.0443 166.799 23.9645 169.655L65.1692 193.494C70.0893 196.337 76.1587 196.337 81.0788 193.494L122.284 169.655C127.204 166.811 130.232 161.545 130.232 155.846Z" fill="#1B1464"/>
<path d="M71.287 211.514C70.88 211.466 70.5807 211.094 70.6286 210.674C70.6765 210.266 71.0476 209.966 71.4546 210.014C71.8736 210.062 72.1609 210.434 72.125 210.842C72.0771 211.226 71.7539 211.514 71.3708 211.514H71.287ZM75.1178 210.746C75.0459 210.338 75.3213 209.954 75.7283 209.882C76.1353 209.81 76.5304 210.086 76.5902 210.494C76.674 210.902 76.3987 211.286 75.9917 211.358C75.9917 211.358 75.8959 211.37 75.86 211.37C75.5008 211.37 75.1896 211.118 75.1178 210.746ZM66.738 210.338C66.3669 210.182 66.1753 209.738 66.3309 209.354C66.4985 208.97 66.9295 208.79 67.3126 208.946C67.6956 209.114 67.8872 209.546 67.7196 209.93C67.5999 210.218 67.3245 210.398 67.0253 210.398C66.9295 210.398 66.8337 210.374 66.738 210.338ZM79.4513 209.558C79.2718 209.186 79.4274 208.742 79.7985 208.562C80.1696 208.371 80.6125 208.526 80.7921 208.898C80.9836 209.27 80.828 209.726 80.4569 209.906C80.3492 209.954 80.2414 209.99 80.1217 209.99C79.8464 209.978 79.583 209.834 79.4513 209.558ZM62.6917 208.155C62.3326 207.951 62.2129 207.495 62.4164 207.135C62.6319 206.775 63.0868 206.655 63.4459 206.859C63.805 207.063 63.9247 207.531 63.7212 207.891C63.5776 208.131 63.3262 208.263 63.0628 208.263C62.9431 208.263 62.8114 208.227 62.6917 208.155ZM83.3898 207.387C83.1863 207.027 83.306 206.571 83.6652 206.355C84.0243 206.151 84.4792 206.271 84.6947 206.631C84.8982 206.991 84.7785 207.447 84.4193 207.663C84.2996 207.723 84.1679 207.759 84.0363 207.759C83.7729 207.759 83.5215 207.627 83.3898 207.387ZM58.7891 205.899C58.442 205.695 58.3103 205.239 58.5257 204.879C58.7293 204.519 59.1842 204.399 59.5433 204.603C59.9024 204.807 60.0221 205.275 59.8186 205.635C59.687 205.875 59.4356 206.007 59.1722 206.007C59.0405 206.007 58.9088 205.971 58.7891 205.899ZM87.2924 205.131C87.0769 204.771 87.2086 204.315 87.5678 204.099C87.9269 203.896 88.3818 204.015 88.5853 204.375C88.8008 204.735 88.6691 205.191 88.31 205.407C88.2022 205.467 88.0705 205.503 87.9389 205.503C87.6875 205.503 87.4241 205.371 87.2924 205.131ZM54.8985 203.644C54.5394 203.44 54.4196 202.984 54.6232 202.624C54.8267 202.264 55.2935 202.144 55.6527 202.348C56.0118 202.552 56.1315 203.02 55.928 203.38C55.7844 203.62 55.533 203.752 55.2696 203.752C55.1499 203.752 55.0182 203.716 54.8985 203.644ZM91.183 202.876C90.9795 202.516 91.0993 202.06 91.4584 201.844C91.8175 201.64 92.2844 201.76 92.4879 202.12C92.6914 202.48 92.5717 202.936 92.2126 203.152C92.0928 203.212 91.9612 203.248 91.8415 203.248C91.5781 203.248 91.3267 203.116 91.183 202.876ZM50.9959 201.388C50.6368 201.184 50.517 200.728 50.7206 200.368C50.9241 200.008 51.3909 199.888 51.7501 200.092C52.1092 200.296 52.2289 200.764 52.0254 201.124C51.8818 201.364 51.6304 201.496 51.379 201.496C51.2473 201.496 51.1156 201.46 50.9959 201.388ZM95.0856 200.62C94.8821 200.26 95.0018 199.804 95.361 199.588C95.7201 199.384 96.175 199.504 96.3785 199.864C96.594 200.224 96.4743 200.68 96.1152 200.896C95.9954 200.956 95.8638 200.992 95.7441 200.992C95.4807 200.992 95.2293 200.86 95.0856 200.62ZM47.1053 199.133C46.7461 198.929 46.6145 198.473 46.8299 198.113C47.0334 197.753 47.4883 197.633 47.8595 197.837C48.2066 198.041 48.3383 198.509 48.1228 198.869C47.9911 199.109 47.7397 199.241 47.4764 199.241C47.3447 199.241 47.225 199.205 47.1053 199.133ZM98.9882 198.365C98.7728 198.005 98.8925 197.549 99.2516 197.333C99.6107 197.129 100.078 197.249 100.281 197.609C100.485 197.969 100.365 198.425 100.006 198.641C99.8861 198.701 99.7664 198.737 99.6347 198.737C99.3713 198.737 99.1199 198.605 98.9882 198.365ZM43.2027 196.877C42.8435 196.673 42.7238 196.217 42.9273 195.857C43.1309 195.497 43.5977 195.377 43.9569 195.581C44.316 195.785 44.4357 196.253 44.2202 196.613C44.0885 196.853 43.8372 196.985 43.5738 196.985C43.4541 196.985 43.3224 196.949 43.2027 196.877ZM102.879 196.109C102.675 195.749 102.795 195.293 103.154 195.077C103.513 194.873 103.98 194.993 104.184 195.353C104.387 195.713 104.268 196.169 103.908 196.385C103.789 196.445 103.657 196.481 103.537 196.481C103.274 196.481 103.023 196.349 102.879 196.109ZM39.3001 194.634C38.9409 194.418 38.8212 193.962 39.0247 193.602C39.2402 193.242 39.6951 193.122 40.0543 193.326C40.4134 193.53 40.5331 193.998 40.3296 194.358C40.1859 194.598 39.9346 194.73 39.6832 194.73C39.5515 194.73 39.4198 194.694 39.3001 194.634ZM106.781 193.854C106.566 193.494 106.698 193.026 107.057 192.822C107.416 192.618 107.871 192.738 108.074 193.098C108.29 193.458 108.158 193.914 107.799 194.13C107.691 194.19 107.56 194.226 107.428 194.226C107.165 194.226 106.913 194.094 106.781 193.854ZM35.4095 192.366C35.0503 192.162 34.9186 191.706 35.1341 191.346C35.3376 190.986 35.7925 190.866 36.1517 191.07C36.5108 191.274 36.6425 191.742 36.427 192.102C36.2953 192.342 36.0439 192.474 35.7806 192.474C35.6489 192.474 35.5292 192.438 35.4095 192.366ZM110.684 191.598C110.469 191.238 110.6 190.782 110.959 190.566C111.307 190.362 111.773 190.482 111.977 190.842C112.18 191.202 112.061 191.658 111.702 191.874C111.582 191.934 111.462 191.97 111.33 191.97C111.067 191.97 110.816 191.838 110.684 191.598ZM31.5069 190.123C31.1477 189.907 31.028 189.451 31.2315 189.091C31.435 188.731 31.9019 188.611 32.261 188.815C32.6202 189.019 32.7399 189.487 32.5364 189.847C32.3927 190.087 32.1413 190.218 31.878 190.218C31.7583 190.218 31.6266 190.182 31.5069 190.123ZM114.575 189.343C114.371 188.983 114.491 188.515 114.85 188.311C115.209 188.107 115.664 188.227 115.88 188.587C116.083 188.947 115.963 189.403 115.604 189.619C115.484 189.679 115.353 189.715 115.233 189.715C114.97 189.715 114.718 189.583 114.575 189.343ZM27.6043 187.867C27.2451 187.651 27.1254 187.195 27.3409 186.835C27.5444 186.475 27.9993 186.355 28.3585 186.559C28.7176 186.763 28.8373 187.231 28.6338 187.579C28.4901 187.819 28.2387 187.963 27.9873 187.963C27.8557 187.963 27.724 187.927 27.6043 187.867ZM118.477 187.087C118.262 186.727 118.393 186.259 118.753 186.055C119.112 185.851 119.567 185.971 119.77 186.331C119.986 186.691 119.854 187.147 119.495 187.351C119.387 187.423 119.255 187.459 119.124 187.459C118.86 187.459 118.609 187.327 118.477 187.087ZM23.7136 185.611C23.3545 185.396 23.2348 184.94 23.4383 184.58C23.6418 184.22 24.0967 184.1 24.4559 184.304C24.815 184.508 24.9467 184.976 24.7312 185.336C24.5995 185.576 24.3481 185.707 24.0848 185.707C23.9531 185.707 23.8334 185.671 23.7136 185.611ZM122.368 184.832C122.164 184.472 122.284 184.004 122.643 183.8C123.002 183.596 123.469 183.716 123.673 184.076C123.876 184.436 123.757 184.892 123.397 185.096C123.278 185.168 123.146 185.204 123.026 185.204C122.763 185.204 122.512 185.072 122.368 184.832ZM19.8111 183.356C19.4519 183.14 19.3322 182.684 19.5357 182.324C19.7392 181.964 20.2061 181.844 20.5652 182.048C20.9244 182.252 21.0441 182.72 20.8406 183.068C20.6969 183.32 20.4455 183.452 20.1822 183.452C20.0624 183.452 19.9308 183.416 19.8111 183.356ZM126.27 182.576C126.067 182.216 126.187 181.748 126.546 181.544C126.905 181.34 127.36 181.46 127.575 181.82C127.779 182.18 127.659 182.636 127.3 182.84C127.18 182.912 127.049 182.948 126.917 182.948C126.666 182.948 126.414 182.816 126.27 182.576ZM15.9085 181.1C15.5493 180.885 15.4296 180.429 15.6331 180.069C15.8486 179.709 16.3035 179.589 16.6626 179.793C17.0218 179.997 17.1415 180.465 16.938 180.813C16.7943 181.052 16.5429 181.196 16.2796 181.196C16.1599 181.196 16.0282 181.16 15.9085 181.1ZM130.173 180.321C129.958 179.961 130.077 179.493 130.436 179.289C130.796 179.085 131.262 179.205 131.466 179.565C131.669 179.925 131.55 180.381 131.191 180.585C131.071 180.657 130.951 180.693 130.82 180.693C130.556 180.693 130.305 180.561 130.173 180.321ZM12.0178 178.845C11.6587 178.629 11.539 178.173 11.7425 177.813C11.946 177.453 12.4009 177.333 12.772 177.537C13.1312 177.741 13.2509 178.197 13.0354 178.557C12.9037 178.809 12.6523 178.941 12.3889 178.941C12.2573 178.941 12.1375 178.905 12.0178 178.845ZM134.064 178.065C133.86 177.705 133.98 177.237 134.339 177.033C134.698 176.829 135.165 176.949 135.369 177.309C135.572 177.669 135.452 178.125 135.093 178.329C134.974 178.401 134.842 178.437 134.71 178.437C134.459 178.437 134.207 178.305 134.064 178.065ZM8.13918 176.326C7.81596 176.062 7.76807 175.582 8.03144 175.27C8.30678 174.946 8.77365 174.898 9.09687 175.162C9.40812 175.426 9.45601 175.906 9.19264 176.23C9.04899 176.41 8.83351 176.493 8.61803 176.493C8.45043 176.493 8.27086 176.445 8.13918 176.326ZM137.835 175.594C137.547 175.294 137.559 174.814 137.859 174.538C138.17 174.25 138.637 174.262 138.924 174.562C139.211 174.874 139.187 175.342 138.888 175.63C138.744 175.762 138.565 175.834 138.373 175.834C138.182 175.834 137.978 175.75 137.835 175.594ZM4.9788 172.846C4.73937 172.498 4.83514 172.03 5.17034 171.802C5.5175 171.563 5.98437 171.659 6.21183 171.994C6.45125 172.342 6.35548 172.81 6.02029 173.038C5.8886 173.134 5.74495 173.17 5.58933 173.17C5.3499 173.17 5.12245 173.062 4.9788 172.846ZM140.803 172.222C140.444 172.006 140.325 171.551 140.54 171.191C140.744 170.831 141.21 170.711 141.558 170.927C141.917 171.131 142.036 171.599 141.833 171.958C141.689 172.186 141.438 172.318 141.175 172.318C141.055 172.318 140.923 172.294 140.803 172.222ZM2.90779 168.611C2.77611 168.215 2.99159 167.795 3.38663 167.663C3.78168 167.543 4.21264 167.759 4.33235 168.155C4.46404 168.539 4.24856 168.971 3.85351 169.103C3.76971 169.127 3.69788 169.139 3.62606 169.139C3.30284 169.139 3.01553 168.935 2.90779 168.611ZM142.707 168.143C142.312 168.047 142.072 167.627 142.168 167.231C142.276 166.824 142.683 166.584 143.078 166.692C143.485 166.8 143.724 167.207 143.629 167.603C143.533 167.939 143.234 168.167 142.898 168.167C142.898 168.167 142.779 168.167 142.707 168.143ZM2.10572 163.98C2.10572 163.56 2.41697 163.212 2.83596 163.2C3.24298 163.188 3.59014 163.512 3.60211 163.932C3.61409 164.34 3.29087 164.7 2.87187 164.7H2.84793C2.44091 164.7 2.11769 164.388 2.10572 163.98ZM142.647 163.464C142.647 163.044 142.982 162.708 143.389 162.708C143.808 162.708 144.143 163.044 144.143 163.464C144.143 163.872 143.808 164.208 143.389 164.208C142.982 164.208 142.647 163.872 142.647 163.464ZM2.09375 159.445C2.09375 159.025 2.42894 158.689 2.84793 158.689C3.26692 158.689 3.59014 159.025 3.59014 159.445C3.59014 159.853 3.26692 160.189 2.84793 160.189C2.42894 160.189 2.09375 159.853 2.09375 159.445ZM142.647 158.953C142.647 158.533 142.982 158.197 143.389 158.197C143.808 158.197 144.143 158.533 144.143 158.953C144.143 159.361 143.808 159.697 143.389 159.697C142.982 159.697 142.647 159.361 142.647 158.953ZM2.09375 154.934C2.09375 154.514 2.42894 154.178 2.84793 154.178C3.26692 154.178 3.59014 154.514 3.59014 154.934C3.59014 155.342 3.26692 155.678 2.84793 155.678C2.42894 155.678 2.09375 155.342 2.09375 154.934ZM142.647 154.442C142.647 154.022 142.982 153.686 143.389 153.686C143.808 153.686 144.143 154.022 144.143 154.442C144.143 154.85 143.808 155.186 143.389 155.186C142.982 155.186 142.647 154.85 142.647 154.442ZM2.09375 150.423C2.09375 150.003 2.42894 149.667 2.84793 149.667C3.26692 149.667 3.59014 150.003 3.59014 150.423C3.59014 150.831 3.26692 151.167 2.84793 151.167C2.42894 151.167 2.09375 150.831 2.09375 150.423ZM142.647 149.931C142.647 149.511 142.982 149.175 143.389 149.175C143.808 149.175 144.143 149.511 144.143 149.931C144.143 150.339 143.808 150.675 143.389 150.675C142.982 150.675 142.647 150.339 142.647 149.931ZM2.09375 145.912C2.09375 145.492 2.42894 145.156 2.84793 145.156C3.26692 145.156 3.59014 145.492 3.59014 145.912C3.59014 146.32 3.26692 146.656 2.84793 146.656C2.42894 146.656 2.09375 146.32 2.09375 145.912ZM142.647 145.42C142.647 145 142.982 144.664 143.389 144.664C143.808 144.664 144.143 145 144.143 145.42C144.143 145.828 143.808 146.164 143.389 146.164C142.982 146.164 142.647 145.828 142.647 145.42ZM2.09375 141.401C2.09375 140.981 2.42894 140.645 2.84793 140.645C3.26692 140.645 3.59014 140.981 3.59014 141.401C3.59014 141.809 3.26692 142.145 2.84793 142.145C2.42894 142.145 2.09375 141.809 2.09375 141.401ZM142.647 140.897C142.647 140.489 142.982 140.153 143.389 140.153C143.808 140.153 144.143 140.489 144.143 140.897C144.143 141.317 143.808 141.653 143.389 141.653C142.982 141.653 142.647 141.317 142.647 140.897ZM2.09375 136.89C2.09375 136.47 2.42894 136.134 2.84793 136.134C3.26692 136.134 3.59014 136.47 3.59014 136.89C3.59014 137.298 3.26692 137.634 2.84793 137.634C2.42894 137.634 2.09375 137.298 2.09375 136.89ZM142.647 136.386C142.647 135.978 142.982 135.642 143.389 135.642C143.808 135.642 144.143 135.978 144.143 136.386C144.143 136.806 143.808 137.142 143.389 137.142C142.982 137.142 142.647 136.806 142.647 136.386ZM2.09375 132.379C2.09375 131.959 2.42894 131.623 2.84793 131.623C3.26692 131.623 3.59014 131.959 3.59014 132.379C3.59014 132.787 3.26692 133.123 2.84793 133.123C2.42894 133.123 2.09375 132.787 2.09375 132.379ZM142.647 131.875C142.647 131.467 142.982 131.131 143.389 131.131C143.808 131.131 144.143 131.467 144.143 131.875C144.143 132.295 143.808 132.631 143.389 132.631C142.982 132.631 142.647 132.295 142.647 131.875ZM2.09375 127.868C2.09375 127.448 2.42894 127.112 2.84793 127.112C3.26692 127.112 3.59014 127.448 3.59014 127.868C3.59014 128.276 3.26692 128.612 2.84793 128.612C2.42894 128.612 2.09375 128.276 2.09375 127.868ZM142.647 127.364C142.647 126.956 142.982 126.62 143.389 126.62C143.808 126.62 144.143 126.956 144.143 127.364C144.143 127.784 143.808 128.12 143.389 128.12C142.982 128.12 142.647 127.784 142.647 127.364ZM2.09375 123.357C2.09375 122.937 2.42894 122.601 2.84793 122.601C3.26692 122.601 3.59014 122.937 3.59014 123.357C3.59014 123.765 3.26692 124.101 2.84793 124.101C2.42894 124.101 2.09375 123.765 2.09375 123.357ZM142.647 122.853C142.647 122.445 142.982 122.109 143.389 122.109C143.808 122.109 144.143 122.445 144.143 122.853C144.143 123.273 143.808 123.609 143.389 123.609C142.982 123.609 142.647 123.273 142.647 122.853ZM2.09375 118.846C2.09375 118.426 2.42894 118.09 2.84793 118.09C3.26692 118.09 3.59014 118.426 3.59014 118.846C3.59014 119.254 3.26692 119.59 2.84793 119.59C2.42894 119.59 2.09375 119.254 2.09375 118.846ZM142.647 118.342C142.647 117.934 142.982 117.598 143.389 117.598C143.808 117.598 144.143 117.934 144.143 118.342C144.143 118.762 143.808 119.098 143.389 119.098C142.982 119.098 142.647 118.762 142.647 118.342ZM2.09375 114.335C2.09375 113.915 2.42894 113.579 2.84793 113.579C3.26692 113.579 3.59014 113.915 3.59014 114.335C3.59014 114.743 3.26692 115.079 2.84793 115.079C2.42894 115.079 2.09375 114.743 2.09375 114.335ZM142.647 113.831C142.647 113.423 142.982 113.087 143.389 113.087C143.808 113.087 144.143 113.423 144.143 113.831C144.143 114.251 143.808 114.587 143.389 114.587C142.982 114.587 142.647 114.251 142.647 113.831ZM2.09375 109.824C2.09375 109.404 2.42894 109.068 2.84793 109.068C3.26692 109.068 3.59014 109.404 3.59014 109.824C3.59014 110.232 3.26692 110.568 2.84793 110.568C2.42894 110.568 2.09375 110.232 2.09375 109.824ZM142.647 109.32C142.647 108.912 142.982 108.576 143.389 108.576C143.808 108.576 144.143 108.912 144.143 109.32C144.143 109.74 143.808 110.076 143.389 110.076C142.982 110.076 142.647 109.74 142.647 109.32ZM2.09375 105.313C2.09375 104.893 2.42894 104.557 2.84793 104.557C3.26692 104.557 3.59014 104.893 3.59014 105.313C3.59014 105.721 3.26692 106.057 2.84793 106.057C2.42894 106.057 2.09375 105.721 2.09375 105.313ZM142.647 104.809C142.647 104.401 142.982 104.065 143.389 104.065C143.808 104.065 144.143 104.401 144.143 104.809C144.143 105.229 143.808 105.565 143.389 105.565C142.982 105.565 142.647 105.229 142.647 104.809ZM2.09375 100.79C2.09375 100.382 2.42894 100.046 2.84793 100.046C3.26692 100.046 3.59014 100.382 3.59014 100.79C3.59014 101.21 3.26692 101.546 2.84793 101.546C2.42894 101.546 2.09375 101.21 2.09375 100.79ZM142.647 100.31C142.647 99.9022 142.97 99.5543 143.377 99.5543C143.796 99.5423 144.131 99.8782 144.143 100.286C144.143 100.706 143.82 101.042 143.401 101.054C142.994 101.054 142.659 100.73 142.659 100.31H142.647ZM3.20707 97.0588C2.81202 96.9508 2.5726 96.5429 2.68034 96.135C2.80005 95.7391 3.20707 95.4991 3.60211 95.6191C4.00913 95.7151 4.23659 96.135 4.12885 96.5309C4.04505 96.8668 3.7338 97.0948 3.41058 97.0948C3.33875 97.0948 3.27889 97.0828 3.20707 97.0588ZM141.977 96.075C141.857 95.6791 142.072 95.2592 142.467 95.1392C142.874 95.0192 143.293 95.2472 143.413 95.6431C143.533 96.039 143.305 96.4589 142.91 96.5789C142.839 96.6029 142.767 96.6149 142.695 96.6149C142.372 96.6149 142.072 96.3989 141.977 96.075ZM4.79923 92.8477C4.4401 92.6438 4.33235 92.1759 4.54784 91.8159C4.76332 91.468 5.23019 91.36 5.57735 91.564C5.93649 91.7919 6.04423 92.2478 5.82875 92.6078C5.68509 92.8357 5.44567 92.9677 5.18231 92.9677C5.05062 92.9677 4.91894 92.9317 4.79923 92.8477ZM140.157 92.1998C139.93 91.8639 140.025 91.396 140.372 91.1561C140.72 90.9401 141.187 91.0361 141.414 91.384C141.641 91.72 141.546 92.1879 141.199 92.4158C141.067 92.4998 140.923 92.5478 140.78 92.5478C140.54 92.5478 140.301 92.4278 140.157 92.1998ZM7.49274 89.2605C7.2174 88.9486 7.24134 88.4687 7.54062 88.1927C7.85187 87.9168 8.31875 87.9288 8.60606 88.2407C8.88139 88.5526 8.85745 89.0205 8.55817 89.3085C8.41452 89.4405 8.22298 89.5004 8.04341 89.5004C7.8399 89.5004 7.64836 89.4165 7.49274 89.2605ZM137.332 88.9965C137.021 88.7206 136.985 88.2407 137.248 87.9288C137.523 87.6168 137.99 87.5809 138.301 87.8448C138.625 88.1207 138.661 88.5886 138.385 88.9126C138.242 89.0805 138.038 89.1765 137.823 89.1765C137.643 89.1765 137.475 89.1165 137.332 88.9965ZM11.0961 86.5611C10.8806 86.2012 11.0123 85.7453 11.3714 85.5413C11.7305 85.3254 12.1854 85.4573 12.3889 85.8172C12.6044 86.1772 12.4727 86.6331 12.1136 86.837C11.9939 86.909 11.8742 86.945 11.7425 86.945C11.4791 86.945 11.2277 86.801 11.0961 86.5611ZM133.693 86.5851C133.333 86.3811 133.214 85.9252 133.417 85.5653C133.621 85.2054 134.088 85.0854 134.447 85.2894C134.806 85.4933 134.926 85.9612 134.722 86.3211C134.578 86.5611 134.327 86.6931 134.076 86.6931C133.944 86.6931 133.812 86.6571 133.693 86.5851ZM14.9867 84.3056C14.7832 83.9456 14.9029 83.4897 15.262 83.2858C15.6211 83.0698 16.088 83.2018 16.2915 83.5617C16.495 83.9217 16.3753 84.3776 16.0162 84.5815C15.8965 84.6535 15.7648 84.6895 15.6451 84.6895C15.3817 84.6895 15.1303 84.5455 14.9867 84.3056ZM129.79 84.3416C129.431 84.1256 129.311 83.6697 129.515 83.3098C129.73 82.9499 130.185 82.8299 130.544 83.0338C130.903 83.2378 131.023 83.7057 130.82 84.0656C130.676 84.3056 130.424 84.4375 130.173 84.4375C130.041 84.4375 129.91 84.4016 129.79 84.3416ZM18.8893 82.0501C18.6858 81.6901 18.8055 81.2342 19.1646 81.0303C19.5237 80.8143 19.9786 80.9463 20.1822 81.3062C20.3976 81.6661 20.2779 82.122 19.9188 82.326C19.7991 82.398 19.6674 82.434 19.5357 82.434C19.2843 82.434 19.0329 82.29 18.8893 82.0501ZM125.899 82.0861C125.54 81.8701 125.421 81.4142 125.624 81.0543C125.828 80.6944 126.294 80.5744 126.654 80.7783C127.013 80.9823 127.132 81.4502 126.917 81.8101C126.785 82.0501 126.534 82.182 126.27 82.182C126.139 82.182 126.019 82.146 125.899 82.0861ZM22.7919 79.7946C22.5764 79.4346 22.7081 78.9787 23.0672 78.7748C23.4263 78.5588 23.8812 78.6908 24.0848 79.0507C24.3002 79.4106 24.1685 79.8665 23.8094 80.0705C23.6897 80.1425 23.57 80.1785 23.4383 80.1785C23.1749 80.1785 22.9236 80.0345 22.7919 79.7946ZM121.997 79.8305C121.638 79.6146 121.518 79.1587 121.721 78.7988C121.937 78.4388 122.392 78.3189 122.751 78.5228C123.11 78.7268 123.23 79.1947 123.026 79.5546C122.883 79.7945 122.631 79.9265 122.38 79.9265C122.248 79.9265 122.117 79.8905 121.997 79.8305ZM26.6825 77.539C26.479 77.1791 26.5987 76.7232 26.9578 76.5193C27.317 76.3033 27.7838 76.4353 27.9873 76.7952C28.1909 77.1551 28.0711 77.611 27.712 77.815C27.5923 77.887 27.4606 77.923 27.3409 77.923C27.0775 77.923 26.8261 77.779 26.6825 77.539ZM118.106 77.575C117.747 77.3591 117.615 76.9032 117.831 76.5433C118.034 76.1833 118.489 76.0634 118.848 76.2673C119.208 76.4713 119.339 76.9392 119.124 77.2991C118.992 77.539 118.741 77.671 118.477 77.671C118.346 77.671 118.214 77.635 118.106 77.575ZM30.5851 75.2835C30.3816 74.9236 30.5013 74.4677 30.8604 74.2638C31.2196 74.0478 31.6745 74.1798 31.8899 74.5397C32.0935 74.8996 31.9737 75.3555 31.6146 75.5595C31.4949 75.6315 31.3632 75.6675 31.2315 75.6675C30.9801 75.6675 30.7287 75.5235 30.5851 75.2835ZM114.204 75.3195C113.844 75.1036 113.725 74.6477 113.928 74.2878C114.132 73.9278 114.599 73.8079 114.958 74.0118C115.305 74.2158 115.437 74.6837 115.233 75.0436C115.089 75.2835 114.838 75.4155 114.575 75.4155C114.455 75.4155 114.323 75.3795 114.204 75.3195ZM34.4877 73.028C34.2722 72.6681 34.3919 72.2122 34.751 72.0083C35.1102 71.7923 35.5771 71.9243 35.7806 72.2842C35.9841 72.6441 35.8644 73.1 35.5052 73.304C35.3855 73.3759 35.2658 73.4119 35.1341 73.4119C34.8708 73.4119 34.6194 73.268 34.4877 73.028ZM110.301 73.064C109.942 72.8481 109.822 72.3922 110.026 72.0322C110.241 71.6723 110.696 71.5524 111.055 71.7563C111.414 71.9603 111.534 72.4282 111.33 72.7881C111.187 73.028 110.935 73.16 110.684 73.16C110.552 73.16 110.421 73.124 110.301 73.064ZM38.3783 70.7725C38.1748 70.4126 38.2945 69.9567 38.6536 69.7527C39.0128 69.5368 39.4677 69.6688 39.6832 70.0287C39.8867 70.3886 39.767 70.8445 39.4078 71.0485C39.2881 71.1204 39.1564 71.1564 39.0367 71.1564C38.7734 71.1564 38.522 71.0125 38.3783 70.7725ZM106.398 70.8085C106.051 70.5926 105.92 70.1367 106.135 69.7767C106.339 69.4168 106.793 69.2968 107.153 69.5008C107.512 69.7048 107.631 70.1727 107.428 70.5326C107.296 70.7725 107.045 70.9045 106.781 70.9045C106.65 70.9045 106.518 70.8685 106.398 70.8085ZM42.2809 68.517C42.0774 68.1571 42.1971 67.7012 42.5562 67.4972C42.9154 67.2813 43.3703 67.4133 43.5738 67.7732C43.7893 68.1331 43.6576 68.589 43.2984 68.793C43.1907 68.8649 43.059 68.9009 42.9273 68.9009C42.664 68.9009 42.4126 68.757 42.2809 68.517ZM102.508 68.553C102.149 68.3371 102.029 67.8811 102.232 67.5212C102.436 67.1613 102.903 67.0413 103.262 67.2453C103.621 67.4492 103.741 67.9171 103.537 68.2771C103.394 68.517 103.142 68.649 102.879 68.649C102.759 68.649 102.627 68.613 102.508 68.553ZM46.1715 66.2615C45.968 65.9016 46.0997 65.4457 46.4469 65.2417C46.806 65.0258 47.2729 65.1577 47.4764 65.5177C47.6799 65.8776 47.5602 66.3335 47.201 66.5374C47.0813 66.6094 46.9496 66.6454 46.8299 66.6454C46.5666 66.6454 46.3152 66.5015 46.1715 66.2615ZM98.6052 66.2975C98.246 66.0815 98.1263 65.6256 98.3298 65.2657C98.5453 64.9058 99.0002 64.7858 99.3593 64.9898C99.7185 65.1937 99.8382 65.6616 99.6347 66.0216C99.491 66.2615 99.2396 66.3935 98.9882 66.3935C98.8566 66.3935 98.7249 66.3575 98.6052 66.2975ZM50.0741 64.006C49.8706 63.6461 49.9903 63.1902 50.3495 62.9862C50.7086 62.7703 51.1635 62.9022 51.379 63.2622C51.5825 63.6221 51.4628 64.078 51.1036 64.2819C50.9839 64.3539 50.8522 64.3899 50.7325 64.3899C50.4692 64.3899 50.2178 64.2459 50.0741 64.006ZM94.7145 64.042C94.3554 63.826 94.2357 63.3701 94.4392 63.0102C94.6427 62.6503 95.0976 62.5303 95.4567 62.7343C95.8159 62.9382 95.9476 63.4061 95.7321 63.766C95.6004 64.006 95.349 64.138 95.0856 64.138C94.954 64.138 94.8343 64.102 94.7145 64.042ZM53.9767 61.7505C53.7732 61.3906 53.8929 60.9347 54.252 60.7307C54.6112 60.5148 55.0661 60.6467 55.2696 61.0066C55.4851 61.3666 55.3534 61.8225 55.0062 62.0264C54.8865 62.0984 54.7548 62.1344 54.6232 62.1344C54.3598 62.1344 54.1084 61.9904 53.9767 61.7505ZM90.8119 61.7865C90.4528 61.5705 90.3331 61.1146 90.5366 60.7547C90.7521 60.3948 91.207 60.2748 91.5661 60.4788C91.9253 60.6827 92.045 61.1506 91.8415 61.5105C91.6978 61.7505 91.4464 61.8825 91.183 61.8825C91.0633 61.8825 90.9316 61.8465 90.8119 61.7865ZM57.8793 59.495C57.6638 59.1351 57.7835 58.6792 58.1427 58.4752C58.5018 58.2593 58.9687 58.3912 59.1722 58.7511C59.3757 59.1111 59.256 59.567 58.8969 59.7709C58.7771 59.8429 58.6455 59.8789 58.5257 59.8789C58.2624 59.8789 58.011 59.7349 57.8793 59.495ZM86.9213 59.531C86.5622 59.315 86.4305 58.8591 86.646 58.4992C86.8495 58.1393 87.3044 58.0193 87.6635 58.2233C88.0227 58.4272 88.1424 58.8951 87.9389 59.255C87.8072 59.495 87.5558 59.627 87.2924 59.627C87.1607 59.627 87.0291 59.591 86.9213 59.531ZM61.7699 57.2395C61.5664 56.8795 61.6861 56.4236 62.0453 56.2197C62.4044 56.0037 62.8593 56.1357 63.0748 56.4956C63.2783 56.8556 63.1586 57.3115 62.7994 57.5154C62.6797 57.5874 62.5481 57.6234 62.4164 57.6234C62.165 57.6234 61.9136 57.4794 61.7699 57.2395ZM83.0187 57.2755C82.6596 57.0595 82.5399 56.6036 82.7434 56.2437C82.9469 55.8838 83.4018 55.7638 83.7609 55.9677C84.1201 56.1717 84.2517 56.6396 84.0482 56.9995C83.9046 57.2395 83.6532 57.3714 83.3898 57.3714C83.2701 57.3714 83.1384 57.3355 83.0187 57.2755ZM65.6606 54.984C65.493 54.6 65.6606 54.1561 66.0197 53.9762C66.4028 53.7962 66.8457 53.9642 67.0253 54.3361C67.2048 54.72 67.0253 55.1639 66.6661 55.3439C66.5584 55.3919 66.4506 55.4159 66.3429 55.4159C66.0676 55.4159 65.7922 55.2479 65.6606 54.984ZM79.1401 55.1399C78.769 54.984 78.5894 54.5401 78.757 54.1561C78.9246 53.7722 79.3675 53.6043 79.7386 53.7602C80.1097 53.9282 80.2893 54.3721 80.1217 54.756C80.002 55.0439 79.7267 55.2119 79.4393 55.2119C79.3316 55.2119 79.2358 55.1879 79.1281 55.1399H79.1401ZM69.8864 53.4603C69.8265 53.0404 70.1019 52.6565 70.5089 52.5965C70.9159 52.5245 71.299 52.8124 71.3588 53.2203C71.4306 53.6283 71.1433 54.0122 70.7363 54.0842H70.6166C70.2575 54.0842 69.9462 53.8322 69.8744 53.4603H69.8864ZM75.022 54.0122C74.615 53.9642 74.3277 53.5923 74.3755 53.1724C74.4234 52.7644 74.7945 52.4645 75.2135 52.5245C75.6206 52.5725 75.9198 52.9564 75.86 53.3643C75.8121 53.7482 75.4889 54.0242 75.1178 54.0242C75.1178 54.0242 75.0579 54.0122 75.022 54.0122Z" fill="#00261C"/>
<path d="M307.143 258.747V211.07C307.143 205.371 304.114 200.116 299.194 197.261L257.989 173.422C253.069 170.579 246.999 170.579 242.079 173.422L200.875 197.261C195.954 200.104 192.926 205.371 192.926 211.07V258.747C192.926 264.446 195.954 269.701 200.875 272.556L242.079 296.395C246.999 299.239 253.069 299.239 257.989 296.395L299.194 272.556C304.114 269.713 307.143 264.446 307.143 258.747Z" fill="#1B1464"/>
<path d="M248.197 314.415C247.79 314.367 247.491 313.996 247.527 313.588C247.575 313.168 247.946 312.88 248.365 312.916C248.772 312.964 249.071 313.336 249.023 313.756C248.987 314.14 248.652 314.415 248.281 314.415H248.197ZM252.028 313.66C251.956 313.252 252.231 312.856 252.638 312.784C253.045 312.712 253.429 312.988 253.5 313.396C253.572 313.804 253.297 314.2 252.89 314.272C252.89 314.272 252.806 314.283 252.77 314.283C252.411 314.283 252.088 314.02 252.028 313.66ZM243.648 313.24C243.265 313.084 243.085 312.652 243.241 312.256C243.397 311.884 243.84 311.692 244.223 311.86C244.606 312.016 244.785 312.46 244.63 312.844C244.51 313.132 244.235 313.3 243.935 313.3C243.84 313.3 243.744 313.288 243.648 313.24ZM256.361 312.472C256.17 312.1 256.326 311.644 256.697 311.464C257.068 311.284 257.523 311.44 257.702 311.812C257.882 312.184 257.738 312.628 257.355 312.808C257.247 312.868 257.128 312.892 257.02 312.892C256.745 312.892 256.469 312.736 256.35 312.472H256.361ZM239.602 311.068C239.243 310.864 239.111 310.396 239.327 310.036C239.53 309.677 239.985 309.557 240.344 309.76C240.703 309.976 240.835 310.432 240.619 310.792C240.488 311.032 240.236 311.164 239.973 311.164C239.841 311.164 239.722 311.14 239.602 311.068ZM260.3 310.288C260.085 309.928 260.204 309.473 260.563 309.257C260.934 309.053 261.389 309.185 261.593 309.545C261.796 309.904 261.677 310.36 261.318 310.564C261.198 310.636 261.078 310.672 260.946 310.672C260.683 310.672 260.432 310.528 260.3 310.288ZM235.699 308.813C235.34 308.609 235.22 308.141 235.424 307.781C235.627 307.421 236.094 307.301 236.453 307.505C236.813 307.721 236.932 308.177 236.729 308.537C236.585 308.777 236.334 308.909 236.07 308.909C235.951 308.909 235.819 308.885 235.699 308.813ZM264.191 308.033C263.987 307.673 264.107 307.217 264.466 307.013C264.825 306.797 265.292 306.917 265.495 307.277C265.699 307.649 265.579 308.105 265.22 308.309C265.1 308.381 264.969 308.417 264.849 308.417C264.586 308.417 264.334 308.273 264.191 308.033ZM231.797 306.557C231.45 306.353 231.318 305.885 231.521 305.525C231.737 305.165 232.192 305.046 232.551 305.249C232.91 305.465 233.03 305.921 232.826 306.281C232.683 306.521 232.431 306.653 232.18 306.653C232.048 306.653 231.916 306.629 231.797 306.557ZM268.093 305.777C267.89 305.417 268.009 304.962 268.369 304.758C268.728 304.542 269.183 304.662 269.386 305.022C269.602 305.381 269.482 305.849 269.123 306.053C269.003 306.125 268.871 306.161 268.74 306.161C268.488 306.149 268.237 306.017 268.093 305.777ZM227.906 304.302C227.547 304.098 227.427 303.63 227.631 303.27C227.834 302.91 228.301 302.79 228.648 302.994C229.019 303.21 229.139 303.666 228.936 304.026C228.792 304.266 228.541 304.398 228.277 304.398C228.157 304.398 228.026 304.374 227.906 304.302ZM271.996 303.522C271.78 303.162 271.912 302.706 272.259 302.502C272.618 302.286 273.085 302.418 273.289 302.766C273.492 303.126 273.372 303.594 273.013 303.798C272.894 303.87 272.774 303.894 272.642 303.894C272.379 303.894 272.127 303.762 271.996 303.522ZM224.003 302.046C223.644 301.83 223.525 301.374 223.728 301.014C223.944 300.654 224.399 300.535 224.758 300.738C225.117 300.954 225.236 301.41 225.033 301.77C224.889 302.01 224.638 302.142 224.375 302.142C224.255 302.142 224.123 302.118 224.003 302.046ZM275.886 301.266C275.683 300.906 275.803 300.451 276.162 300.235C276.521 300.031 276.976 300.163 277.191 300.523C277.395 300.87 277.275 301.338 276.916 301.542C276.796 301.614 276.665 301.638 276.533 301.638C276.281 301.638 276.03 301.506 275.886 301.266ZM220.113 299.791C219.754 299.587 219.622 299.119 219.837 298.759C220.041 298.399 220.496 298.279 220.855 298.483C221.214 298.699 221.346 299.155 221.13 299.515C220.999 299.755 220.735 299.887 220.484 299.887C220.352 299.887 220.221 299.863 220.113 299.791ZM279.789 299.011C279.586 298.651 279.705 298.195 280.064 297.979C280.423 297.775 280.878 297.907 281.082 298.267C281.297 298.615 281.166 299.083 280.807 299.287C280.699 299.359 280.567 299.395 280.435 299.395C280.172 299.395 279.921 299.251 279.789 299.011ZM216.21 297.535C215.851 297.331 215.731 296.863 215.935 296.503C216.138 296.143 216.605 296.023 216.952 296.227C217.324 296.431 217.443 296.899 217.24 297.259C217.096 297.499 216.845 297.631 216.581 297.631C216.462 297.631 216.33 297.607 216.21 297.535ZM283.68 296.755C283.476 296.395 283.596 295.939 283.955 295.736C284.314 295.52 284.781 295.64 284.984 296.011C285.188 296.371 285.068 296.827 284.709 297.031C284.589 297.103 284.458 297.127 284.338 297.127C284.075 297.127 283.823 296.995 283.68 296.755ZM212.308 295.28C211.949 295.076 211.829 294.608 212.032 294.248C212.248 293.888 212.703 293.768 213.062 293.972C213.421 294.188 213.541 294.644 213.337 295.004C213.194 295.244 212.942 295.376 212.691 295.376C212.559 295.376 212.427 295.352 212.308 295.28ZM287.582 294.5C287.379 294.14 287.498 293.684 287.858 293.48C288.217 293.264 288.672 293.384 288.887 293.744C289.091 294.104 288.971 294.572 288.612 294.776C288.492 294.848 288.36 294.872 288.241 294.872C287.977 294.872 287.726 294.74 287.582 294.5ZM208.417 293.024C208.058 292.82 207.926 292.352 208.142 291.992C208.345 291.632 208.8 291.512 209.159 291.716C209.518 291.932 209.65 292.388 209.435 292.748C209.303 292.988 209.051 293.12 208.788 293.12C208.656 293.12 208.537 293.096 208.417 293.024ZM291.485 292.244C291.269 291.884 291.401 291.428 291.76 291.225C292.119 291.009 292.574 291.129 292.778 291.488C292.981 291.848 292.862 292.316 292.502 292.52C292.395 292.592 292.263 292.616 292.131 292.616C291.868 292.616 291.617 292.484 291.485 292.244ZM204.514 290.769C204.155 290.553 204.036 290.097 204.239 289.737C204.443 289.377 204.909 289.257 205.269 289.461C205.628 289.677 205.747 290.133 205.544 290.493C205.4 290.733 205.149 290.865 204.886 290.865C204.766 290.865 204.634 290.841 204.514 290.769ZM295.375 289.989C295.172 289.629 295.304 289.173 295.651 288.957C296.01 288.753 296.477 288.885 296.68 289.233C296.884 289.593 296.764 290.061 296.405 290.265C296.285 290.337 296.166 290.361 296.034 290.361C295.77 290.361 295.519 290.229 295.375 289.989ZM200.612 288.513C200.253 288.297 200.133 287.841 200.337 287.481C200.552 287.121 201.007 287.001 201.366 287.205C201.725 287.421 201.845 287.877 201.641 288.237C201.498 288.477 201.246 288.609 200.995 288.609C200.863 288.609 200.732 288.585 200.612 288.513ZM299.278 287.733C299.075 287.373 299.194 286.917 299.553 286.702C299.913 286.498 300.367 286.63 300.583 286.989C300.786 287.337 300.667 287.805 300.308 288.009C300.188 288.081 300.056 288.117 299.924 288.117C299.661 288.117 299.422 287.973 299.278 287.733ZM196.721 286.258C196.362 286.054 196.23 285.586 196.446 285.226C196.649 284.866 197.104 284.746 197.463 284.95C197.823 285.154 197.954 285.622 197.739 285.982C197.607 286.222 197.356 286.354 197.092 286.354C196.961 286.354 196.841 286.33 196.721 286.258ZM303.181 285.478C302.965 285.118 303.097 284.662 303.456 284.446C303.803 284.242 304.27 284.362 304.474 284.734C304.689 285.094 304.557 285.55 304.198 285.754C304.078 285.826 303.959 285.85 303.827 285.85C303.564 285.85 303.312 285.718 303.181 285.478ZM192.819 284.002C192.459 283.798 192.34 283.33 192.543 282.97C192.747 282.61 193.214 282.49 193.573 282.694C193.932 282.91 194.052 283.366 193.848 283.726C193.704 283.966 193.453 284.098 193.202 284.098C193.07 284.098 192.938 284.062 192.819 284.002ZM307.071 283.222C306.868 282.862 306.987 282.406 307.347 282.202C307.706 281.987 308.173 282.107 308.376 282.466C308.58 282.826 308.46 283.294 308.101 283.498C307.981 283.57 307.849 283.594 307.73 283.594C307.466 283.594 307.215 283.462 307.071 283.222ZM188.916 281.747C188.569 281.543 188.437 281.075 188.653 280.715C188.856 280.355 189.311 280.235 189.67 280.439C190.029 280.655 190.149 281.111 189.946 281.471C189.814 281.711 189.562 281.843 189.299 281.843C189.167 281.843 189.036 281.819 188.916 281.747ZM310.974 280.967C310.77 280.607 310.89 280.151 311.249 279.947C311.608 279.731 312.063 279.851 312.279 280.211C312.482 280.571 312.363 281.039 311.991 281.243C311.884 281.315 311.752 281.339 311.62 281.339C311.369 281.339 311.117 281.207 310.974 280.967ZM185.037 279.227C184.726 278.963 184.678 278.495 184.942 278.171C185.205 277.859 185.684 277.811 185.995 278.075C186.318 278.339 186.366 278.807 186.103 279.131C185.947 279.311 185.732 279.407 185.516 279.407C185.349 279.407 185.181 279.347 185.037 279.227ZM314.733 278.507C314.457 278.195 314.469 277.727 314.769 277.44C315.068 277.152 315.547 277.176 315.834 277.476C316.109 277.775 316.098 278.255 315.798 278.531C315.655 278.675 315.463 278.735 315.283 278.735C315.08 278.735 314.888 278.663 314.733 278.507ZM181.877 275.748C181.65 275.412 181.733 274.932 182.081 274.704C182.428 274.476 182.895 274.56 183.122 274.908C183.349 275.244 183.266 275.712 182.918 275.952C182.799 276.036 182.643 276.084 182.499 276.084C182.26 276.084 182.033 275.964 181.877 275.748ZM317.702 275.124C317.354 274.92 317.235 274.452 317.438 274.092C317.654 273.744 318.109 273.624 318.468 273.828C318.827 274.044 318.947 274.5 318.731 274.86C318.599 275.1 318.336 275.232 318.085 275.232C317.953 275.232 317.821 275.196 317.702 275.124ZM179.818 271.525C179.686 271.129 179.902 270.697 180.297 270.577C180.692 270.445 181.111 270.661 181.243 271.057C181.374 271.453 181.159 271.873 180.764 272.005C180.68 272.029 180.608 272.041 180.524 272.041C180.213 272.041 179.914 271.837 179.818 271.525ZM319.617 271.057C319.21 270.949 318.971 270.541 319.078 270.145C319.186 269.737 319.593 269.497 319.988 269.593C320.395 269.701 320.635 270.109 320.527 270.517C320.443 270.853 320.144 271.081 319.809 271.081C319.737 271.081 319.677 271.069 319.617 271.057ZM179.004 266.882C179.004 266.462 179.327 266.126 179.734 266.114C180.153 266.102 180.5 266.426 180.512 266.834C180.512 267.254 180.201 267.602 179.782 267.614H179.758C179.351 267.614 179.016 267.29 179.004 266.882ZM319.557 266.366C319.557 265.946 319.892 265.61 320.299 265.61C320.718 265.61 321.054 265.946 321.054 266.366C321.054 266.774 320.718 267.122 320.299 267.122C319.892 267.122 319.557 266.774 319.557 266.366ZM179.004 262.347C179.004 261.927 179.339 261.591 179.746 261.591C180.165 261.591 180.5 261.927 180.5 262.347C180.5 262.767 180.165 263.103 179.746 263.103C179.339 263.103 179.004 262.767 179.004 262.347ZM319.557 261.855C319.557 261.435 319.892 261.099 320.299 261.099C320.718 261.099 321.054 261.435 321.054 261.855C321.054 262.275 320.718 262.599 320.299 262.599C319.892 262.599 319.557 262.275 319.557 261.855ZM179.004 257.836C179.004 257.416 179.339 257.092 179.746 257.092C180.165 257.092 180.5 257.416 180.5 257.836C180.5 258.256 180.165 258.592 179.746 258.592C179.339 258.592 179.004 258.256 179.004 257.836ZM319.557 257.344C319.557 256.924 319.892 256.588 320.299 256.588C320.718 256.588 321.054 256.924 321.054 257.344C321.054 257.764 320.718 258.1 320.299 258.1C319.892 258.1 319.557 257.764 319.557 257.344ZM179.004 253.325C179.004 252.917 179.339 252.569 179.746 252.569C180.165 252.569 180.5 252.917 180.5 253.325C180.5 253.745 180.165 254.081 179.746 254.081C179.339 254.081 179.004 253.745 179.004 253.325ZM319.557 252.833C319.557 252.413 319.892 252.077 320.299 252.077C320.718 252.077 321.054 252.413 321.054 252.833C321.054 253.241 320.718 253.589 320.299 253.589C319.892 253.589 319.557 253.241 319.557 252.833ZM179.004 248.814C179.004 248.394 179.339 248.07 179.746 248.07C180.165 248.07 180.5 248.394 180.5 248.814C180.5 249.234 180.165 249.57 179.746 249.57C179.339 249.57 179.004 249.234 179.004 248.814ZM319.557 248.322C319.557 247.902 319.892 247.566 320.299 247.566C320.718 247.566 321.054 247.902 321.054 248.322C321.054 248.742 320.718 249.066 320.299 249.066C319.892 249.066 319.557 248.742 319.557 248.322ZM179.004 244.303C179.004 243.883 179.339 243.547 179.746 243.547C180.165 243.547 180.5 243.883 180.5 244.303C180.5 244.723 180.165 245.059 179.746 245.059C179.339 245.059 179.004 244.723 179.004 244.303ZM319.557 243.811C319.557 243.391 319.892 243.055 320.299 243.055C320.718 243.055 321.054 243.391 321.054 243.811C321.054 244.219 320.718 244.567 320.299 244.567C319.892 244.567 319.557 244.219 319.557 243.811ZM179.004 239.792C179.004 239.384 179.339 239.036 179.746 239.036C180.165 239.036 180.5 239.384 180.5 239.792C180.5 240.212 180.165 240.548 179.746 240.548C179.339 240.548 179.004 240.212 179.004 239.792ZM319.557 239.3C319.557 238.88 319.892 238.544 320.299 238.544C320.718 238.544 321.054 238.88 321.054 239.3C321.054 239.708 320.718 240.056 320.299 240.056C319.892 240.056 319.557 239.708 319.557 239.3ZM179.004 235.281C179.004 234.861 179.339 234.537 179.746 234.537C180.165 234.537 180.5 234.861 180.5 235.281C180.5 235.701 180.165 236.037 179.746 236.037C179.339 236.037 179.004 235.701 179.004 235.281ZM319.557 234.789C319.557 234.369 319.892 234.033 320.299 234.033C320.718 234.033 321.054 234.369 321.054 234.789C321.054 235.209 320.718 235.533 320.299 235.533C319.892 235.533 319.557 235.209 319.557 234.789ZM179.004 230.77C179.004 230.362 179.339 230.014 179.746 230.014C180.165 230.014 180.5 230.362 180.5 230.77C180.5 231.19 180.165 231.526 179.746 231.526C179.339 231.526 179.004 231.19 179.004 230.77ZM319.557 230.278C319.557 229.858 319.892 229.522 320.299 229.522C320.718 229.522 321.054 229.858 321.054 230.278C321.054 230.686 320.718 231.034 320.299 231.034C319.892 231.034 319.557 230.686 319.557 230.278ZM179.004 226.259C179.004 225.839 179.339 225.503 179.746 225.503C180.165 225.503 180.5 225.839 180.5 226.259C180.5 226.679 180.165 227.015 179.746 227.015C179.339 227.015 179.004 226.679 179.004 226.259ZM319.557 225.767C319.557 225.347 319.892 225.011 320.299 225.011C320.718 225.011 321.054 225.347 321.054 225.767C321.054 226.175 320.718 226.511 320.299 226.511C319.892 226.511 319.557 226.175 319.557 225.767ZM179.004 221.748C179.004 221.328 179.339 220.992 179.746 220.992C180.165 220.992 180.5 221.328 180.5 221.748C180.5 222.168 180.165 222.504 179.746 222.504C179.339 222.504 179.004 222.168 179.004 221.748ZM319.557 221.256C319.557 220.836 319.892 220.5 320.299 220.5C320.718 220.5 321.054 220.836 321.054 221.256C321.054 221.664 320.718 222 320.299 222C319.892 222 319.557 221.664 319.557 221.256ZM179.004 217.237C179.004 216.829 179.339 216.481 179.746 216.481C180.165 216.481 180.5 216.829 180.5 217.237C180.5 217.657 180.165 217.992 179.746 217.992C179.339 217.992 179.004 217.657 179.004 217.237ZM319.557 216.745C319.557 216.325 319.892 215.989 320.299 215.989C320.718 215.989 321.054 216.325 321.054 216.745C321.054 217.153 320.718 217.501 320.299 217.501C319.892 217.501 319.557 217.153 319.557 216.745ZM179.004 212.726C179.004 212.306 179.339 211.97 179.746 211.97C180.165 211.97 180.5 212.306 180.5 212.726C180.5 213.146 180.165 213.481 179.746 213.481C179.339 213.481 179.004 213.146 179.004 212.726ZM319.557 212.234C319.557 211.814 319.892 211.478 320.299 211.478C320.718 211.478 321.054 211.814 321.054 212.234C321.054 212.642 320.718 212.978 320.299 212.978C319.892 212.978 319.557 212.642 319.557 212.234ZM179.004 208.215C179.004 207.795 179.339 207.459 179.746 207.459C180.165 207.459 180.5 207.795 180.5 208.215C180.5 208.635 180.165 208.97 179.746 208.97C179.339 208.97 179.004 208.635 179.004 208.215ZM319.557 207.723C319.557 207.303 319.892 206.967 320.299 206.967C320.718 206.967 321.054 207.303 321.054 207.723C321.054 208.131 320.718 208.467 320.299 208.467C319.892 208.467 319.557 208.131 319.557 207.723ZM179.004 203.704C179.004 203.284 179.339 202.948 179.746 202.948C180.165 202.948 180.5 203.284 180.5 203.704C180.5 204.123 180.165 204.459 179.746 204.459C179.339 204.459 179.004 204.123 179.004 203.704ZM319.545 203.224C319.545 202.804 319.88 202.468 320.287 202.456C320.706 202.444 321.042 202.78 321.054 203.2H321.042C321.054 203.608 320.73 203.956 320.311 203.956C319.904 203.956 319.569 203.632 319.557 203.224H319.545ZM180.117 199.972C179.722 199.852 179.483 199.445 179.59 199.049C179.698 198.641 180.117 198.413 180.512 198.521C180.907 198.629 181.147 199.037 181.039 199.445C180.943 199.78 180.644 199.996 180.321 199.996C180.249 199.996 180.189 199.984 180.117 199.972ZM318.887 198.989C318.767 198.593 318.983 198.173 319.378 198.053C319.773 197.933 320.192 198.149 320.311 198.545C320.443 198.941 320.216 199.361 319.821 199.481C319.749 199.505 319.677 199.517 319.605 199.517C319.282 199.517 318.983 199.313 318.887 198.989ZM181.709 195.761C181.35 195.545 181.243 195.077 181.458 194.73C181.673 194.37 182.128 194.262 182.488 194.478C182.835 194.694 182.954 195.161 182.739 195.509C182.595 195.737 182.344 195.869 182.092 195.869C181.961 195.869 181.829 195.833 181.709 195.761ZM317.067 195.113C316.84 194.766 316.936 194.298 317.283 194.07C317.63 193.842 318.097 193.938 318.312 194.286C318.54 194.634 318.444 195.101 318.097 195.329C317.965 195.413 317.821 195.449 317.678 195.449C317.438 195.449 317.199 195.329 317.055 195.113H317.067ZM184.403 192.162C184.128 191.85 184.14 191.382 184.451 191.094C184.75 190.818 185.229 190.842 185.516 191.142C185.792 191.454 185.768 191.934 185.456 192.21C185.313 192.342 185.133 192.402 184.954 192.402C184.75 192.402 184.547 192.318 184.403 192.162ZM314.242 191.898C313.919 191.634 313.883 191.154 314.158 190.842C314.422 190.518 314.9 190.482 315.212 190.758C315.535 191.022 315.559 191.502 315.295 191.814C315.152 191.994 314.936 192.078 314.721 192.078C314.553 192.078 314.374 192.018 314.242 191.898ZM187.994 189.475C187.791 189.115 187.922 188.647 188.27 188.443C188.629 188.239 189.096 188.359 189.299 188.719C189.503 189.079 189.383 189.535 189.024 189.751C188.904 189.811 188.772 189.847 188.653 189.847C188.389 189.847 188.138 189.715 187.994 189.475ZM310.603 189.499C310.244 189.295 310.112 188.827 310.327 188.467C310.531 188.107 310.998 187.987 311.345 188.203C311.704 188.407 311.836 188.863 311.632 189.223C311.489 189.463 311.237 189.595 310.974 189.595C310.842 189.595 310.722 189.571 310.603 189.499ZM191.897 187.219C191.693 186.859 191.813 186.391 192.172 186.187C192.531 185.983 192.998 186.103 193.202 186.463C193.405 186.823 193.285 187.291 192.926 187.495C192.807 187.555 192.675 187.591 192.555 187.591C192.292 187.591 192.04 187.459 191.897 187.219ZM306.7 187.243C306.341 187.039 306.221 186.571 306.425 186.211C306.628 185.863 307.095 185.732 307.454 185.935C307.813 186.151 307.933 186.607 307.73 186.967C307.586 187.207 307.335 187.339 307.071 187.339C306.952 187.339 306.82 187.315 306.7 187.243ZM195.799 184.964C195.584 184.604 195.716 184.148 196.075 183.932C196.434 183.728 196.889 183.848 197.092 184.208C197.308 184.568 197.176 185.024 196.817 185.24C196.697 185.3 196.578 185.336 196.446 185.336C196.183 185.336 195.931 185.204 195.799 184.964ZM302.81 184.988C302.45 184.784 302.319 184.316 302.522 183.968C302.738 183.608 303.193 183.476 303.552 183.68C303.911 183.896 304.043 184.352 303.827 184.712C303.695 184.952 303.444 185.084 303.181 185.084C303.049 185.084 302.917 185.06 302.81 184.988ZM199.69 182.708C199.487 182.348 199.606 181.892 199.965 181.676C200.325 181.472 200.791 181.592 200.995 181.952C201.198 182.312 201.079 182.768 200.72 182.984C200.6 183.044 200.468 183.08 200.348 183.08C200.085 183.08 199.834 182.948 199.69 182.708ZM298.907 182.732C298.548 182.528 298.416 182.06 298.632 181.712C298.835 181.34 299.29 181.22 299.649 181.424C300.008 181.64 300.14 182.096 299.936 182.456C299.793 182.696 299.541 182.828 299.278 182.828C299.158 182.828 299.027 182.804 298.907 182.732ZM203.593 180.453C203.389 180.093 203.509 179.625 203.868 179.421C204.227 179.217 204.682 179.337 204.898 179.697C205.101 180.057 204.981 180.513 204.622 180.729C204.502 180.789 204.371 180.825 204.239 180.825C203.988 180.825 203.736 180.693 203.593 180.453ZM295.004 180.477C294.645 180.273 294.525 179.805 294.729 179.445C294.933 179.085 295.399 178.965 295.759 179.181C296.118 179.385 296.237 179.841 296.034 180.201C295.89 180.441 295.639 180.573 295.387 180.573C295.256 180.573 295.124 180.549 295.004 180.477ZM207.483 178.197C207.28 177.837 207.411 177.369 207.771 177.165C208.118 176.961 208.585 177.081 208.788 177.441C209.004 177.801 208.872 178.257 208.513 178.473C208.393 178.533 208.273 178.569 208.142 178.569C207.878 178.569 207.627 178.437 207.483 178.197ZM291.114 178.221C290.755 178.017 290.623 177.549 290.826 177.189C291.042 176.829 291.497 176.709 291.856 176.925C292.215 177.129 292.347 177.585 292.131 177.945C291.988 178.185 291.736 178.317 291.485 178.317C291.353 178.317 291.221 178.293 291.114 178.221ZM211.386 175.942C211.182 175.582 211.302 175.114 211.661 174.91C212.02 174.706 212.487 174.826 212.691 175.186C212.894 175.546 212.775 176.002 212.415 176.218C212.296 176.278 212.164 176.314 212.044 176.314C211.781 176.314 211.53 176.182 211.386 175.942ZM287.211 175.966C286.852 175.762 286.732 175.294 286.936 174.934C287.139 174.574 287.606 174.454 287.953 174.658C288.324 174.874 288.444 175.33 288.241 175.69C288.097 175.93 287.846 176.062 287.582 176.062C287.451 176.062 287.331 176.038 287.211 175.966ZM215.288 173.686C215.073 173.326 215.205 172.858 215.564 172.654C215.923 172.45 216.378 172.57 216.593 172.93C216.797 173.29 216.665 173.746 216.306 173.962C216.198 174.022 216.067 174.058 215.935 174.058C215.684 174.058 215.432 173.926 215.288 173.686ZM283.309 173.71C282.949 173.506 282.83 173.038 283.033 172.678C283.249 172.33 283.704 172.198 284.063 172.402C284.422 172.618 284.542 173.074 284.338 173.434C284.194 173.674 283.943 173.806 283.68 173.806C283.56 173.806 283.428 173.782 283.309 173.71ZM219.179 171.431C218.976 171.071 219.095 170.615 219.466 170.399C219.826 170.195 220.28 170.315 220.484 170.675C220.699 171.035 220.568 171.491 220.209 171.707C220.089 171.767 219.957 171.803 219.837 171.803C219.574 171.803 219.323 171.671 219.179 171.431ZM279.418 171.455C279.059 171.251 278.927 170.783 279.143 170.435C279.346 170.063 279.801 169.943 280.16 170.147C280.519 170.363 280.651 170.819 280.447 171.179C280.304 171.419 280.052 171.551 279.789 171.551C279.657 171.551 279.538 171.527 279.418 171.455ZM223.082 169.175C222.878 168.815 222.998 168.347 223.357 168.143C223.716 167.939 224.183 168.059 224.387 168.419C224.59 168.779 224.47 169.235 224.111 169.451C223.991 169.511 223.86 169.547 223.728 169.547C223.477 169.547 223.225 169.415 223.082 169.175ZM275.515 169.199C275.156 168.995 275.036 168.539 275.24 168.167C275.443 167.807 275.91 167.687 276.269 167.891C276.629 168.107 276.748 168.563 276.545 168.923C276.401 169.163 276.15 169.295 275.886 169.295C275.767 169.295 275.635 169.271 275.515 169.199ZM226.984 166.92C226.781 166.56 226.9 166.092 227.26 165.888C227.619 165.684 228.074 165.804 228.277 166.164C228.493 166.524 228.361 166.98 228.002 167.196C227.894 167.256 227.762 167.292 227.631 167.292C227.379 167.292 227.116 167.16 226.984 166.92ZM271.625 166.944C271.266 166.74 271.134 166.272 271.337 165.912C271.553 165.552 272.008 165.432 272.367 165.648C272.726 165.852 272.846 166.308 272.642 166.668C272.499 166.908 272.247 167.04 271.996 167.04C271.864 167.04 271.732 167.016 271.625 166.944ZM230.875 164.664C230.671 164.304 230.791 163.836 231.15 163.632C231.509 163.428 231.976 163.548 232.18 163.908C232.383 164.268 232.264 164.724 231.904 164.94C231.785 165 231.653 165.036 231.533 165.036C231.27 165.036 231.019 164.904 230.875 164.664ZM267.722 164.688C267.363 164.484 267.231 164.016 267.447 163.656C267.65 163.296 268.105 163.176 268.464 163.392C268.823 163.596 268.955 164.052 268.74 164.412C268.608 164.652 268.357 164.784 268.093 164.784C267.962 164.784 267.842 164.76 267.722 164.688ZM234.777 162.409C234.574 162.049 234.694 161.581 235.053 161.377C235.412 161.173 235.867 161.293 236.082 161.653C236.286 162.013 236.166 162.469 235.807 162.685C235.687 162.745 235.556 162.781 235.424 162.781C235.173 162.781 234.921 162.649 234.777 162.409ZM263.82 162.433C263.46 162.229 263.341 161.761 263.544 161.401C263.748 161.053 264.215 160.921 264.574 161.125C264.933 161.341 265.053 161.797 264.849 162.157C264.705 162.397 264.454 162.529 264.191 162.529C264.071 162.529 263.939 162.505 263.82 162.433ZM238.68 160.153C238.465 159.793 238.596 159.325 238.955 159.121C239.315 158.917 239.769 159.037 239.973 159.397C240.188 159.757 240.057 160.213 239.698 160.429C239.578 160.489 239.446 160.525 239.327 160.525C239.063 160.525 238.812 160.393 238.68 160.153ZM259.917 160.177C259.57 159.973 259.438 159.505 259.654 159.145C259.857 158.785 260.312 158.665 260.671 158.869C261.03 159.085 261.15 159.541 260.946 159.901C260.815 160.141 260.551 160.273 260.3 160.273C260.168 160.273 260.037 160.249 259.917 160.177ZM242.571 157.886C242.391 157.514 242.571 157.07 242.93 156.89C243.301 156.71 243.756 156.866 243.935 157.25C244.103 157.622 243.935 158.066 243.564 158.245C243.469 158.293 243.361 158.317 243.253 158.317C242.966 158.317 242.702 158.162 242.571 157.886ZM256.05 158.054C255.667 157.886 255.5 157.442 255.667 157.07C255.823 156.686 256.266 156.506 256.649 156.674C257.032 156.842 257.211 157.274 257.044 157.658C256.912 157.946 256.637 158.114 256.35 158.114C256.254 158.114 256.146 158.09 256.05 158.054ZM246.797 156.362C246.737 155.954 247.012 155.57 247.419 155.498C247.826 155.438 248.209 155.714 248.281 156.122C248.341 156.542 248.065 156.926 247.658 156.986C247.658 156.986 247.575 156.998 247.539 156.998C247.168 156.998 246.856 156.734 246.797 156.362ZM251.932 156.926C251.525 156.866 251.226 156.494 251.274 156.086C251.334 155.666 251.705 155.378 252.124 155.426C252.531 155.474 252.818 155.858 252.77 156.266C252.722 156.65 252.399 156.926 252.028 156.926H251.932Z" fill="#00261C"/>
<mask id="mask0_4112_1096" style="mask-type:luminance" maskUnits="userSpaceOnUse" x="217" y="215" width="66" height="40">
<path d="M282.099 241.351V225.995C282.099 224.495 281.309 223.115 280.016 222.359L268.907 215.893C267.039 214.813 264.705 216.157 264.705 218.316V234.681L256.816 230.122C252.59 227.686 247.394 227.686 243.181 230.134L235.339 234.681V218.304C235.339 216.145 233.005 214.801 231.138 215.881L220.028 222.347C218.735 223.103 217.945 224.483 217.945 225.983V241.351C217.945 243.499 219.047 245.514 220.854 246.666L230.97 253.121C233.604 254.8 236.991 254.668 239.481 252.785L246.508 247.47C248.436 246.006 251.596 246.006 253.536 247.47L260.563 252.785C263.053 254.668 266.44 254.8 269.074 253.121L279.19 246.654C280.997 245.49 282.099 243.499 282.099 241.339V241.351Z" fill="white"/>
</mask>
<g mask="url(#mask0_4112_1096)">
<path d="M282.098 244.819L250.052 226.151L250.004 226.331V226.151L217.957 244.819L235.339 255.928L250.028 249.27L264.716 255.928L282.098 244.819Z" fill="url(#paint0_linear_4112_1096)"/>
<path style="mix-blend-mode:multiply" d="M282.099 244.819L250.052 226.151L217.945 244.819L235.339 255.928L246.281 247.65C248.496 245.971 251.548 245.971 253.763 247.65L264.705 255.928L282.099 244.819Z" fill="url(#paint1_linear_4112_1096)"/>
<g style="mix-blend-mode:overlay">
<path d="M282.134 244.819L250.087 226.151L217.98 244.819L226.588 250.338L244.736 238.712C247.968 236.637 252.11 236.649 255.342 238.712L273.455 250.326L282.122 244.819H282.134Z" fill="url(#paint2_linear_4112_1096)"/>
<g style="mix-blend-mode:overlay" opacity="0.3">
<path d="M282.134 244.819L250.087 226.151L217.98 244.819L226.588 250.338L244.736 238.712C247.968 236.637 252.11 236.649 255.342 238.712L273.455 250.326L282.122 244.819H282.134Z" fill="white"/>
</g>
</g>
<path d="M239.9 252.473L235.339 255.928L217.945 244.819V223.571L235.339 213.446V250.206C235.339 251.897 236.728 253.061 238.2 253.061C238.775 253.061 239.374 252.881 239.9 252.485V252.473Z" fill="url(#paint3_linear_4112_1096)"/>
<path style="mix-blend-mode:color-dodge" d="M239.9 252.485L235.339 255.94L217.945 244.831V223.583L235.339 213.458V250.218C235.339 251.909 236.728 253.073 238.2 253.073C238.775 253.073 239.374 252.893 239.9 252.497V252.485Z" fill="url(#paint4_linear_4112_1096)"/>
<path style="mix-blend-mode:hard-light" d="M238.2 253.061C236.728 253.061 235.339 251.897 235.339 250.205V234.693L222.231 242.335C221.764 242.599 221.285 242.731 220.806 242.731C219.322 242.731 217.957 241.543 217.957 239.876V244.843L235.351 255.952L239.912 252.497C239.385 252.893 238.787 253.073 238.212 253.073L238.2 253.061Z" fill="url(#paint5_linear_4112_1096)"/>
<path style="mix-blend-mode:hard-light" d="M238.2 253.061C236.727 253.061 235.339 251.897 235.339 250.206V244.771L230.371 247.914C227.917 249.486 224.72 249.126 222.302 247.602C222.278 247.59 222.266 247.578 222.242 247.566L235.351 255.94L239.912 252.485C239.385 252.881 238.786 253.061 238.212 253.061H238.2Z" fill="url(#paint6_linear_4112_1096)"/>
<path d="M260.18 252.473L264.741 255.928L282.135 244.819V223.571L264.741 213.446V250.206C264.741 251.897 263.352 253.061 261.88 253.061C261.305 253.061 260.706 252.881 260.18 252.485V252.473Z" fill="url(#paint7_linear_4112_1096)"/>
<path style="mix-blend-mode:color-dodge" d="M260.18 252.473L264.741 255.928L282.135 244.819V223.571L264.741 213.446V250.206C264.741 251.897 263.352 253.061 261.88 253.061C261.305 253.061 260.706 252.881 260.18 252.485V252.473Z" fill="url(#paint8_linear_4112_1096)"/>
<path style="mix-blend-mode:hard-light" d="M260.18 252.473L264.741 255.928L282.135 244.819V239.852C282.135 241.519 280.77 242.707 279.286 242.707C278.807 242.707 278.316 242.587 277.861 242.311L264.753 234.669V250.182C264.753 251.873 263.364 253.037 261.892 253.037C261.317 253.037 260.718 252.857 260.192 252.461L260.18 252.473Z" fill="url(#paint9_linear_4112_1096)"/>
<path style="mix-blend-mode:hard-light" d="M260.18 252.473L264.741 255.928L277.849 247.554C277.825 247.566 277.813 247.578 277.789 247.59C275.371 249.114 272.163 249.474 269.721 247.902L264.753 244.759V250.194C264.753 251.885 263.364 253.049 261.892 253.049C261.317 253.049 260.718 252.869 260.192 252.473H260.18Z" fill="url(#paint10_linear_4112_1096)"/>
</g>
<path d="M176.632 193.326C176.273 193.122 176.141 192.666 176.345 192.306C176.56 191.946 177.015 191.814 177.374 192.018C177.733 192.234 177.853 192.69 177.65 193.05C177.518 193.29 177.255 193.434 177.003 193.434C176.872 193.434 176.74 193.398 176.632 193.326ZM172.718 191.094C172.358 190.878 172.239 190.422 172.442 190.062C172.646 189.703 173.113 189.571 173.472 189.787C173.831 189.99 173.951 190.446 173.747 190.806C173.603 191.058 173.352 191.19 173.089 191.19C172.969 191.19 172.837 191.154 172.718 191.094ZM168.815 188.851C168.456 188.647 168.324 188.191 168.54 187.831C168.743 187.459 169.198 187.339 169.557 187.543C169.916 187.747 170.048 188.203 169.832 188.563C169.701 188.815 169.449 188.947 169.186 188.947C169.054 188.947 168.935 188.923 168.815 188.851ZM164.912 186.607C164.553 186.403 164.422 185.947 164.625 185.587C164.829 185.228 165.295 185.096 165.655 185.3C166.014 185.515 166.133 185.971 165.93 186.331C165.786 186.571 165.535 186.715 165.283 186.715C165.152 186.715 165.02 186.679 164.912 186.607ZM160.998 184.376C160.639 184.16 160.519 183.704 160.722 183.344C160.926 182.984 161.381 182.852 161.74 183.068C162.099 183.272 162.231 183.728 162.027 184.088C161.884 184.34 161.632 184.472 161.369 184.472C161.237 184.472 161.117 184.436 160.998 184.376ZM157.095 182.132C156.736 181.928 156.604 181.46 156.808 181.112C157.023 180.741 157.478 180.621 157.837 180.824C158.197 181.028 158.328 181.484 158.113 181.844C157.981 182.096 157.73 182.228 157.466 182.228C157.335 182.228 157.203 182.192 157.095 182.132ZM153.181 179.889C152.821 179.685 152.702 179.229 152.905 178.869C153.109 178.509 153.564 178.377 153.935 178.581C154.294 178.797 154.414 179.253 154.21 179.613C154.066 179.853 153.815 179.997 153.552 179.997C153.432 179.997 153.3 179.961 153.181 179.889ZM149.278 177.657C148.919 177.441 148.787 176.985 149.003 176.625C149.206 176.265 149.661 176.134 150.02 176.349C150.379 176.553 150.511 177.009 150.296 177.369C150.164 177.621 149.912 177.753 149.649 177.753C149.517 177.753 149.398 177.717 149.278 177.657ZM145.375 175.414C145.016 175.21 144.885 174.742 145.088 174.382C145.292 174.022 145.758 173.902 146.118 174.106C146.477 174.31 146.596 174.766 146.393 175.126C146.249 175.378 145.998 175.51 145.747 175.51C145.615 175.51 145.483 175.474 145.375 175.414Z" fill="#00261C"/>
<path fill-rule="evenodd" clip-rule="evenodd" d="M102.866 127.759L95.5521 132L102.866 136.205C103.304 136.459 103.687 136.798 103.994 137.201C104.302 137.605 104.527 138.065 104.658 138.556C104.788 139.047 104.821 139.559 104.755 140.063C104.689 140.567 104.525 141.053 104.272 141.493C104.019 141.933 103.683 142.319 103.282 142.628C102.881 142.938 102.423 143.164 101.935 143.296C101.447 143.427 100.938 143.46 100.437 143.394C99.9363 143.327 99.4534 143.162 99.016 142.907L85.9109 135.311C85.3103 134.961 84.8146 134.455 84.4761 133.846C84.1377 133.236 83.969 132.546 83.988 131.848C83.9982 131.546 84.0445 131.246 84.1256 130.954C84.3939 129.978 85.0315 129.145 85.902 128.635L99.0071 121.066C99.4465 120.81 99.9315 120.644 100.435 120.578C100.938 120.511 101.449 120.545 101.939 120.678C102.429 120.81 102.888 121.038 103.29 121.349C103.693 121.661 104.03 122.049 104.283 122.491C104.537 122.93 104.702 123.415 104.768 123.918C104.835 124.422 104.801 124.933 104.669 125.423C104.537 125.913 104.31 126.372 104.001 126.773C103.691 127.174 103.306 127.51 102.866 127.759ZM95.9429 148.314L82.8422 140.731C82.2561 140.393 81.5921 140.215 80.9164 140.214C80.2406 140.214 79.5765 140.392 78.9901 140.73C78.4037 141.068 77.9153 141.554 77.5737 142.141C77.232 142.727 77.0488 143.394 77.0424 144.074V159.222C77.0763 160.228 77.4975 161.182 78.2172 161.882C78.9368 162.582 79.8985 162.973 80.8993 162.973C81.9002 162.973 82.8619 162.582 83.5815 161.882C84.3011 161.182 84.7223 160.228 84.7562 159.222V150.732L92.0882 154.972C92.5256 155.227 93.0085 155.392 93.5095 155.459C94.0105 155.526 94.5196 155.493 95.0079 155.362C95.4961 155.231 95.9539 155.004 96.3551 154.695C96.7564 154.386 97.0931 154 97.3462 153.56C97.5993 153.12 97.7638 152.634 97.8303 152.13C97.8967 151.626 97.8639 151.114 97.7336 150.623C97.6032 150.131 97.378 149.671 97.0708 149.267C96.7636 148.863 96.3803 148.524 95.9429 148.27V148.314ZM80.8438 133.497L75.3815 138.926C75.1946 139.101 74.9524 139.204 74.6976 139.217H73.0944C72.8401 139.201 72.5988 139.099 72.4105 138.926L66.9793 133.479C66.8094 133.293 66.7089 133.053 66.695 132.8V131.191C66.7097 130.937 66.81 130.696 66.9793 130.508L72.4105 125.06C72.5992 124.889 72.8406 124.788 73.0944 124.775H74.6976C74.9518 124.786 75.1938 124.888 75.3815 125.06L80.826 130.508C80.994 130.697 81.0927 130.938 81.1058 131.191V132.8C81.0935 133.052 80.9946 133.292 80.826 133.479L80.8438 133.497ZM76.4917 131.987C76.4707 131.726 76.3627 131.48 76.1853 131.29L74.6088 129.721C74.4198 129.55 74.1785 129.449 73.9249 129.435H73.8671C73.6146 129.448 73.3744 129.55 73.1877 129.721L71.6111 131.29C71.4419 131.481 71.3431 131.726 71.3314 131.982V132.04C71.3425 132.293 71.4416 132.533 71.6111 132.719L73.1965 134.283C73.3837 134.454 73.6236 134.555 73.876 134.569H73.9337C74.1874 134.555 74.4287 134.454 74.6176 134.283L76.1942 132.706C76.3644 132.519 76.4663 132.28 76.4828 132.027L76.4917 131.987ZM51.8491 115.686L64.9542 123.246C65.541 123.585 66.2055 123.763 66.8818 123.763C67.5581 123.763 68.2226 123.585 68.8094 123.246C69.3962 122.908 69.8848 122.421 70.2267 121.834C70.5686 121.247 70.7519 120.58 70.7585 119.899V104.765C70.7245 103.758 70.3033 102.804 69.5837 102.105C68.8641 101.405 67.9024 101.013 66.9015 101.013C65.9007 101.013 64.939 101.405 64.2194 102.105C63.4998 102.804 63.0786 103.758 63.0446 104.765V113.255L55.7038 109.01C55.2664 108.755 54.7834 108.59 54.2825 108.523C53.7815 108.456 53.2724 108.489 52.7841 108.62C52.2959 108.751 51.8381 108.978 51.4368 109.287C51.0356 109.596 50.6988 109.982 50.4457 110.422C50.1926 110.862 50.0282 111.348 49.9617 111.852C49.8952 112.356 49.9281 112.868 50.0584 113.36C50.1887 113.851 50.4139 114.312 50.7212 114.715C51.0284 115.119 51.4117 115.458 51.8491 115.712V115.686ZM80.6084 123.765C81.3823 123.826 82.1565 123.65 82.8289 123.26L95.9296 115.663C96.367 115.409 96.7502 115.07 97.0575 114.666C97.3647 114.262 97.5899 113.802 97.7202 113.31C97.8505 112.819 97.8834 112.307 97.817 111.803C97.7505 111.299 97.586 110.813 97.3329 110.373C97.0798 109.933 96.743 109.547 96.3418 109.238C95.9406 108.929 95.4828 108.702 94.9945 108.571C94.0085 108.306 92.9582 108.446 92.0749 108.961L84.7429 113.241V104.751C84.709 103.745 84.2878 102.791 83.5681 102.091C82.8485 101.391 81.8868 101 80.886 101C79.8851 101 78.9234 101.391 78.2038 102.091C77.4842 102.791 77.063 103.745 77.0291 104.751V119.899C77.0278 120.88 77.3967 121.825 78.0612 122.542C78.7257 123.26 79.6361 123.697 80.6084 123.765ZM67.1924 140.226C66.4184 140.163 65.6437 140.339 64.972 140.731L51.8491 148.296C50.9657 148.811 50.3216 149.657 50.0584 150.649C49.7952 151.642 49.9346 152.698 50.4457 153.587C50.9569 154.476 51.798 155.124 52.7841 155.389C53.7702 155.654 54.8204 155.513 55.7038 154.999L63.0446 150.759V159.249C63.0786 160.255 63.4998 161.209 64.2194 161.909C64.939 162.609 65.9007 163 66.9015 163C67.9024 163 68.8641 162.609 69.5837 161.909C70.3033 161.209 70.7245 160.255 70.7585 159.249V144.074C70.7565 143.098 70.3878 142.159 69.7263 141.445C69.0649 140.732 68.1597 140.296 67.1924 140.226ZM63.6397 133.135C63.8927 132.298 63.8545 131.399 63.5316 130.587C63.2087 129.774 62.6202 129.097 61.8633 128.667L48.7715 121.075C47.8873 120.565 46.8388 120.428 45.8546 120.693C44.8703 120.959 44.0304 121.605 43.5179 122.491C43.2642 122.93 43.0994 123.414 43.0331 123.918C42.9668 124.421 43.0003 124.932 43.1316 125.422C43.2629 125.912 43.4895 126.371 43.7982 126.772C44.1069 127.173 44.4916 127.509 44.9301 127.759L52.2443 132L44.9301 136.205C44.4927 136.459 44.1093 136.797 43.8017 137.199C43.4941 137.602 43.2685 138.062 43.1375 138.553C43.0066 139.044 42.973 139.555 43.0386 140.059C43.1043 140.563 43.2679 141.049 43.5201 141.489C43.7724 141.929 44.1083 142.315 44.5087 142.624C44.9091 142.934 45.3662 143.161 45.8538 143.292C46.3414 143.424 46.8501 143.458 47.3507 143.392C47.8513 143.326 48.3341 143.161 48.7715 142.907L61.8633 135.311C62.7064 134.838 63.3396 134.06 63.6353 133.135H63.6397ZM105.007 108.013H104.416V108.742H105.002C105.273 108.742 105.446 108.617 105.446 108.384C105.446 108.152 105.287 108.013 105.002 108.013H105.007ZM103.701 107.343H105.033C105.753 107.343 106.233 107.741 106.233 108.357C106.235 108.529 106.192 108.698 106.107 108.847C106.023 108.997 105.901 109.121 105.753 109.206L106.272 109.957V110.109H105.522L105.002 109.394H104.416V110.109H103.697L103.701 107.343ZM107.387 108.782C107.409 108.444 107.36 108.105 107.245 107.786C107.129 107.468 106.95 107.177 106.717 106.932C106.484 106.687 106.203 106.493 105.892 106.363C105.581 106.233 105.246 106.17 104.909 106.177C103.439 106.177 102.462 107.245 102.462 108.782C102.462 110.248 103.439 111.383 104.909 111.383C105.246 111.391 105.581 111.328 105.893 111.199C106.204 111.07 106.486 110.877 106.719 110.632C106.953 110.388 107.133 110.097 107.249 109.778C107.365 109.46 107.413 109.12 107.392 108.782H107.387ZM108 108.782C108 110.52 106.845 111.972 104.891 111.972C102.937 111.972 101.832 110.507 101.832 108.782C101.832 107.057 102.973 105.591 104.891 105.591C106.81 105.591 107.996 107.039 107.996 108.782H108Z" fill="#29B5E8"/>
<defs>
<linearGradient id="paint0_linear_4112_1096" x1="250.028" y1="202.192" x2="250.028" y2="264.495" gradientUnits="userSpaceOnUse">
<stop offset="0.34" stop-color="#FDF400"/>
<stop offset="0.42" stop-color="#92DF1C"/>
<stop offset="0.48" stop-color="#43D030"/>
<stop offset="0.52" stop-color="#12C63D"/>
<stop offset="0.54" stop-color="#00C342"/>
<stop offset="0.81" stop-color="#135090"/>
</linearGradient>
<linearGradient id="paint1_linear_4112_1096" x1="215.958" y1="205.443" x2="279.324" y2="278.358" gradientUnits="userSpaceOnUse">
<stop stop-opacity="0"/>
<stop offset="0.85" stop-opacity="0.56"/>
<stop offset="1"/>
</linearGradient>
<linearGradient id="paint2_linear_4112_1096" x1="229.497" y1="216.685" x2="265.369" y2="265.559" gradientUnits="userSpaceOnUse">
<stop stop-color="white" stop-opacity="0"/>
<stop offset="0.11" stop-color="#FCFFFA" stop-opacity="0.02"/>
<stop offset="0.23" stop-color="#F4FFEE" stop-opacity="0.08"/>
<stop offset="0.37" stop-color="#E8FFD9" stop-opacity="0.17"/>
<stop offset="0.51" stop-color="#D7FFBC" stop-opacity="0.3"/>
<stop offset="0.65" stop-color="#C0FF97" stop-opacity="0.47"/>
<stop offset="0.8" stop-color="#A5FF69" stop-opacity="0.68"/>
<stop offset="0.95" stop-color="#86FF34" stop-opacity="0.92"/>
<stop offset="1" stop-color="#7BFF22"/>
</linearGradient>
<linearGradient id="paint3_linear_4112_1096" x1="228.935" y1="125.565" x2="228.935" y2="298.639" gradientUnits="userSpaceOnUse">
<stop stop-color="#F8FF5D"/>
<stop offset="0.49" stop-color="#FFCB00"/>
<stop offset="1" stop-color="#06CD00"/>
</linearGradient>
<linearGradient id="paint4_linear_4112_1096" x1="229.402" y1="235.125" x2="216.859" y2="207.996" gradientUnits="userSpaceOnUse">
<stop stop-color="white" stop-opacity="0"/>
<stop offset="1" stop-color="white"/>
</linearGradient>
<linearGradient id="paint5_linear_4112_1096" x1="228.935" y1="195.917" x2="228.935" y2="256.54" gradientUnits="userSpaceOnUse">
<stop stop-color="#2FC514"/>
<stop offset="0.12" stop-color="#2BB814" stop-opacity="0.92"/>
<stop offset="0.36" stop-color="#219616" stop-opacity="0.71"/>
<stop offset="0.68" stop-color="#116019" stop-opacity="0.37"/>
<stop offset="1" stop-color="#00261C" stop-opacity="0"/>
</linearGradient>
<linearGradient id="paint6_linear_4112_1096" x1="231.077" y1="224.387" x2="231.077" y2="256.252" gradientUnits="userSpaceOnUse">
<stop stop-color="#2FC514"/>
<stop offset="0.11" stop-color="#2CBB14" stop-opacity="0.94"/>
<stop offset="0.31" stop-color="#24A015" stop-opacity="0.77"/>
<stop offset="0.57" stop-color="#177517" stop-opacity="0.5"/>
<stop offset="0.89" stop-color="#063B1A" stop-opacity="0.13"/>
<stop offset="1" stop-color="#00261C" stop-opacity="0"/>
</linearGradient>
<linearGradient id="paint7_linear_4112_1096" x1="271.157" y1="124.209" x2="271.157" y2="301.626" gradientUnits="userSpaceOnUse">
<stop stop-color="#F8FF5D"/>
<stop offset="0.5" stop-color="#FFCB00"/>
<stop offset="1" stop-color="#06CD00"/>
</linearGradient>
<linearGradient id="paint8_linear_4112_1096" x1="269.577" y1="235.101" x2="254.142" y2="206.515" gradientUnits="userSpaceOnUse">
<stop stop-color="white" stop-opacity="0"/>
<stop offset="1" stop-color="white"/>
</linearGradient>
<linearGradient id="paint9_linear_4112_1096" x1="271.145" y1="195.917" x2="271.145" y2="256.54" gradientUnits="userSpaceOnUse">
<stop stop-color="#2FC514"/>
<stop offset="0.12" stop-color="#2BB814" stop-opacity="0.92"/>
<stop offset="0.35" stop-color="#219616" stop-opacity="0.71"/>
<stop offset="0.68" stop-color="#116119" stop-opacity="0.37"/>
<stop offset="1" stop-color="#00261C" stop-opacity="0"/>
</linearGradient>
<linearGradient id="paint10_linear_4112_1096" x1="269.014" y1="224.387" x2="269.014" y2="256.252" gradientUnits="userSpaceOnUse">
<stop stop-color="#2FC514"/>
<stop offset="0.1" stop-color="#2DBE14" stop-opacity="0.96"/>
<stop offset="0.26" stop-color="#28AD15" stop-opacity="0.85"/>
<stop offset="0.45" stop-color="#1F9116" stop-opacity="0.67"/>
<stop offset="0.68" stop-color="#146A18" stop-opacity="0.43"/>
<stop offset="0.92" stop-color="#05381B" stop-opacity="0.12"/>
<stop offset="1" stop-color="#00261C" stop-opacity="0"/>
</linearGradient>
</defs>
</svg>
