<svg width="146" height="148" viewBox="0 0 146 148" fill="none" xmlns="http://www.w3.org/2000/svg">
<g id="IrksL2">
<path id="Vector" d="M50.5218 5.67097C52.1606 4.79212 53.9952 4.51311 55.7598 4.05625C60.9175 2.71705 66.1101 1.5034 71.2888 0.226975C72.3161 -0.0241256 73.3295 -0.0973631 74.3638 0.1642C81.2128 1.89749 88.0652 3.62031 94.9141 5.3536C95.0644 5.39196 95.1832 5.54542 95.3195 5.64307C94.7254 7.48098 93.7855 9.21776 93.733 11.2091C93.8728 11.4079 94.0685 11.4986 94.2921 11.5858C96.4377 12.4193 98.6042 13.204 100.711 14.1247C106.638 16.7159 111.942 20.3359 116.75 24.5767C120.737 28.0956 124.41 31.9598 127.419 36.4272C130.074 40.3716 132.437 44.4694 134.331 48.8009C136.217 53.1115 137.514 57.6243 138.405 62.2731C139.104 65.9036 139.436 69.548 139.638 73.2099C139.775 75.6268 139.579 78.0506 139.397 80.4779C139.16 83.7003 138.678 86.8565 137.965 89.9918C136.717 95.502 134.771 100.744 132.178 105.78C129.491 110.994 126.122 115.723 122.268 120.092C118.466 124.406 114.056 128.075 109.227 131.211C106.372 133.062 103.381 134.663 100.292 136.121C96.1022 138.098 91.7378 139.539 87.265 140.533C83.0054 141.481 78.6758 142.224 74.245 142.057C70.6563 141.921 67.0396 142.221 63.4789 141.631C59.1249 140.909 54.8059 140.013 50.6231 138.534C45.0147 136.553 39.6543 134.116 34.7727 130.677C32.5119 129.087 30.1497 127.594 28.1719 125.679C24.9536 122.565 21.6514 119.538 19.0621 115.785C17.563 113.613 15.9486 111.51 14.5753 109.246C12.9679 106.596 11.6436 103.799 10.3681 100.977C9.24992 98.5117 8.29946 95.9659 7.66348 93.3642C7.05546 90.8741 6.48239 88.3562 6.06656 85.8068C5.58084 82.8459 5.33974 79.878 5.1755 76.9067C4.97982 73.3878 5.3642 69.8898 5.79051 66.3884C6.26574 62.5033 7.09389 58.7159 8.22257 54.9808C9.81251 49.7216 12.1397 44.7903 14.9667 40.0926C17.5979 35.7228 20.6835 31.6982 24.363 28.1479C25.946 26.6204 27.487 25.058 29.1783 23.6246C32.4874 20.8207 36.0551 18.3969 39.8256 16.3044C43.25 14.4037 46.7933 12.7018 50.5672 11.5509C51.0424 11.4044 51.5806 11.251 51.9126 10.6895C52.0069 10.1803 51.9859 9.63974 51.7588 9.06779C51.308 7.95179 50.9272 6.80789 50.5183 5.67445L50.5218 5.67097ZM52.8805 15.0977C51.8217 15.4604 50.8398 15.7464 49.8928 16.1265C45.8673 17.7307 42.02 19.6314 38.3475 21.9785C34.7238 24.2942 31.4356 26.9796 28.2907 29.8638C26.3828 31.6145 24.7649 33.6512 23.1086 35.646C21.0434 38.1396 19.1879 40.7796 17.6294 43.601C15.2567 47.8872 13.2544 52.3303 11.8253 57.0488C10.5044 61.4187 9.67274 65.8687 9.40716 70.3816C9.19401 74.0051 9.23595 77.653 9.56791 81.3114C9.86144 84.5339 10.3961 87.704 11.1683 90.7974C12.7233 97.0261 15.3546 102.854 18.7301 108.329C20.1838 110.683 21.8401 112.891 23.5768 115.049C25.4882 117.421 27.6407 119.573 29.8142 121.672C32.5853 124.351 35.7931 126.537 39.0498 128.633C42.6176 130.928 46.4299 132.721 50.3646 134.203C53.6283 135.434 57.0353 136.24 60.4737 136.968C64.1743 137.753 67.9027 137.781 71.6172 138.151C73.1582 138.304 74.7237 138.036 76.2787 137.924C78.5256 137.76 80.741 137.526 82.9739 137.213C86.4718 136.721 89.8298 135.737 93.1425 134.646C97.2274 133.3 101.127 131.455 104.8 129.195C109.234 126.464 113.438 123.399 117.103 119.688C120.426 116.326 123.358 112.64 125.881 108.612C128.065 105.124 129.777 101.438 131.357 97.6573C132.713 94.407 133.607 91.038 134.372 87.6308C134.987 84.8861 135.389 82.0682 135.421 79.2712C135.47 74.72 135.76 70.1688 134.869 65.6072C134.208 62.2278 133.52 58.8728 132.538 55.5771C131.287 51.3712 129.299 47.4826 127.219 43.6464C126.482 42.2863 125.577 41.0133 124.711 39.7264C123.065 37.2852 121.227 35.0043 119.277 32.7863C117.778 31.0774 116.261 29.3755 114.535 27.9456C111.837 25.7102 109.059 23.5618 106.047 21.71C102.396 19.464 98.6182 17.5215 94.6276 15.973C94.058 15.7533 93.5339 15.701 92.8455 15.9242C92.8455 16.6496 92.8734 17.3367 92.842 18.0237C92.6603 21.9646 93.3347 25.8741 93.2369 29.8219C93.1635 32.7305 92.0558 35.1648 90.5008 37.5049C89.3581 39.2242 87.8101 40.5146 86.2097 41.7527C84.1061 43.3778 81.8977 44.8286 79.3852 45.7877C76.5024 46.8898 73.4972 46.9525 70.4991 46.7642C69.1502 46.6805 67.7455 46.3492 66.505 45.8121C62.0497 43.88 58.0521 41.2784 55.1518 37.2712C53.6003 35.1299 52.7302 32.7723 52.6289 30.0765C52.5031 26.6518 53.0482 23.2654 53.0133 19.8511C52.9958 18.3027 53.1216 16.7438 52.884 15.1047L52.8805 15.0977ZM59.9461 33.2606C61.5675 33.2606 62.9023 33.2292 64.2371 33.2745C64.9185 33.2955 65.4462 33.0758 65.9948 32.6852C70.188 29.6929 75.6427 29.6929 79.8499 32.6538C80.2273 32.9188 80.5558 33.2711 81.073 33.2571C82.6105 33.2153 84.155 33.3896 85.8288 33.1455C81.4958 25.4172 77.2991 17.7761 72.8997 10.0164C72.0156 11.7915 70.9917 13.1342 70.3523 14.7978C72.5747 18.7875 74.8076 22.7911 77.2397 27.161C74.2205 26.31 71.5544 26.5297 68.7099 26.997C69.6779 25.2289 70.506 23.7083 71.3796 22.1145C70.5515 20.6254 69.7408 19.1641 68.7938 17.4622C65.8376 22.7423 62.9652 27.8724 59.9496 33.2641L59.9461 33.2606Z" fill="#014886"/>
<path id="Vector_2" d="M50.5211 5.67093C50.93 6.80437 51.3109 7.94827 51.7616 9.06427C51.9923 9.63273 52.0097 10.1768 51.9154 10.686C51.5799 11.2474 51.0453 11.4009 50.57 11.5474C46.7961 12.7017 43.2529 14.4001 39.8284 16.3008C36.058 18.3933 32.4902 20.8172 29.1811 23.6211C27.4933 25.051 25.9488 26.6134 24.3659 28.1444C20.6863 31.6947 17.5973 35.7192 14.9695 40.0891C12.1426 44.7868 9.81535 49.7181 8.22541 54.9772C7.09673 58.7123 6.26856 62.4998 5.79333 66.3848C5.36352 69.8863 4.97916 73.3878 5.17834 76.9032C5.34607 79.8745 5.58718 82.8424 6.0694 85.8033C6.48523 88.3561 7.0583 90.8706 7.66632 93.3607C8.3023 95.9624 9.25276 98.5117 10.371 100.974C11.6499 103.795 12.9707 106.592 14.5782 109.243C15.9514 111.506 17.5658 113.609 19.0649 115.782C21.6542 119.534 24.9564 122.562 28.1747 125.676C30.1525 127.591 32.5147 129.083 34.7755 130.673C39.6572 134.112 45.0175 136.55 50.626 138.531C54.8087 140.01 59.1277 140.906 63.4817 141.628C67.0425 142.217 70.6591 141.921 74.2478 142.053C78.6787 142.221 83.0082 141.478 87.2678 140.529C91.7406 139.532 96.1085 138.091 100.295 136.117C103.384 134.66 106.375 133.059 109.23 131.207C114.059 128.072 118.472 124.403 122.271 120.089C126.122 115.716 129.494 110.99 132.181 105.776C134.774 100.74 136.72 95.502 137.967 89.9883C138.677 86.853 139.163 83.6968 139.4 80.4744C139.578 78.0471 139.774 75.6267 139.641 73.2064C139.439 69.5445 139.103 65.9001 138.408 62.2696C137.513 57.6208 136.217 53.1079 134.333 48.7974C132.439 44.4624 130.077 40.3681 127.421 36.4237C124.413 31.9562 120.74 28.0886 116.753 24.5732C111.945 20.3324 106.637 16.7124 100.714 14.1211C98.607 13.2004 96.4405 12.4158 94.295 11.5822C94.0713 11.4951 93.8757 11.4044 93.7359 11.2056C93.7848 9.21423 94.7248 7.47746 95.3223 5.63954C104.125 8.40513 112.071 12.7854 119.168 18.6165C125.901 24.1512 131.52 30.6833 135.888 38.2581C138.443 42.6838 140.588 47.2838 142.154 52.1489C144.09 58.1753 145.372 64.3168 145.666 70.6605C145.746 72.3938 145.914 74.1271 145.865 75.8639C145.666 82.7168 144.757 89.4582 142.758 96.0426C140.508 103.467 137.181 110.366 132.743 116.73C125.95 126.478 117.256 134.109 106.763 139.668C100.225 143.134 93.2641 145.478 85.9889 146.831C80.2511 147.895 74.4365 148.226 68.6219 147.846C56.6223 147.065 45.4263 143.657 35.1215 137.356C29.3803 133.844 24.1946 129.683 19.624 124.78C11.87 116.458 6.35594 106.819 3.09919 95.9275C1.8552 91.7704 0.946673 87.5366 0.548316 83.1946C0.268767 80.1361 -0.105147 77.0775 0.0276382 74.0085C0.275738 68.4006 0.873279 62.845 2.23957 57.3592C4.5144 48.2498 8.40014 39.9252 13.8688 32.3294C19.5681 24.4163 26.5952 17.9051 34.9258 12.8168C39.8354 9.81757 45.0001 7.35539 50.5176 5.67093H50.5211Z" fill="#0880E7"/>
<path id="Vector_3" d="M52.8829 15.0977C53.1205 16.7368 52.9947 18.2923 53.0122 19.8442C53.0506 23.2585 52.502 26.6448 52.6278 30.0696C52.7257 32.7654 53.5992 35.123 55.1507 37.2643C58.0545 41.2714 62.0486 43.8731 66.5039 45.8052C67.7444 46.3422 69.1491 46.6736 70.498 46.7573C73.4996 46.9421 76.5013 46.8828 79.3841 45.7808C81.8966 44.8217 84.105 43.3709 86.2086 41.7457C87.809 40.5111 89.3605 39.2173 90.4997 37.4979C92.0547 35.1578 93.1624 32.7236 93.2358 29.815C93.3336 25.8671 92.6592 21.9611 92.8409 18.0168C92.8724 17.3297 92.8444 16.6427 92.8444 15.9173C93.5328 15.6941 94.0604 15.7464 94.6265 15.9661C98.6171 17.518 102.394 19.4571 106.046 21.703C109.058 23.5549 111.836 25.7032 114.534 27.9387C116.26 29.3686 117.777 31.0705 119.276 32.7794C121.222 34.9974 123.06 37.2782 124.709 39.7195C125.576 41.0064 126.481 42.2793 127.218 43.6394C129.298 47.4757 131.286 51.3643 132.537 55.5702C133.519 58.8659 134.207 62.2208 134.868 65.6002C135.759 70.1619 135.469 74.7096 135.42 79.2643C135.392 82.0612 134.99 84.8791 134.371 87.6238C133.606 91.0311 132.712 94.4035 131.356 97.6504C129.776 101.431 128.068 105.117 125.88 108.605C123.357 112.629 120.425 116.315 117.102 119.681C113.437 123.392 109.236 126.457 104.799 129.188C101.126 131.448 97.2298 133.293 93.1414 134.639C89.8288 135.73 86.4707 136.714 82.9728 137.206C80.7399 137.519 78.5245 137.753 76.2776 137.917C74.7226 138.029 73.1607 138.297 71.6161 138.144C67.9016 137.774 64.1732 137.746 60.4727 136.961C57.0342 136.233 53.6272 135.427 50.3635 134.196C46.4253 132.71 42.613 130.918 39.0487 128.626C35.7885 126.53 32.5842 124.344 29.8131 121.665C27.6431 119.566 25.4871 117.418 23.5757 115.043C21.8355 112.884 20.1792 110.68 18.729 108.322C15.3535 102.847 12.7257 97.0191 11.1672 90.7905C10.395 87.697 9.86035 84.5269 9.56683 81.3045C9.23486 77.6461 9.18943 73.9981 9.40608 70.3746C9.67165 65.8653 10.5033 61.4117 11.8242 57.0419C13.2534 52.3233 15.2556 47.8802 17.6283 43.5941C19.1903 40.7727 21.0423 38.1327 23.1075 35.6391C24.7638 33.6443 26.3782 31.6076 28.2896 29.8568C31.4345 26.9762 34.7227 24.2908 38.3464 21.9716C42.0189 19.6245 45.8697 17.7238 49.8917 16.1196C50.8387 15.7429 51.8206 15.4534 52.8794 15.0907L52.8829 15.0977ZM47.4701 73.5482C47.4701 74.1272 47.4247 74.7131 47.4771 75.2885C47.9069 80.1327 50.9051 84.1433 55.7168 85.2907C57.4395 85.7022 59.2042 85.7161 60.9129 85.4302C64.1627 84.8826 66.745 83.2261 68.3629 80.2826C69.8655 77.5554 70.1241 74.6398 69.8445 71.5639C69.4287 66.9638 66.5563 62.608 61.1575 61.6349C57.2823 60.9374 53.6691 61.5861 50.7129 64.5261C48.1865 67.0406 47.3758 70.1235 47.4666 73.5482H47.4701ZM45.8208 68.7076C45.9431 65.1469 43.3328 62.7091 40.4045 61.8512C38.7028 61.3525 36.9521 61.3001 35.2189 61.478C32.6506 61.7396 30.4212 62.7579 28.7788 64.8469C26.9687 67.1557 26.8499 71.8568 30.3652 73.8063C31.3262 74.3399 32.3011 74.8177 33.3879 75.1072C35.0652 75.557 36.7984 75.7803 38.4267 76.422C39.3947 76.8021 40.1425 77.3566 40.4115 78.3889C39.9468 80.2373 38.6224 80.6697 36.9661 80.729C34.5829 80.8127 32.9336 79.9339 32.4025 77.395C30.533 77.5414 28.7439 77.2799 26.9303 77.5658C27.0107 78.1169 27.0806 78.5145 27.126 78.9155C27.4545 81.7962 29.0409 83.7841 31.7071 84.7327C34.8974 85.8696 38.1821 85.9847 41.4424 84.8582C44.5314 83.7945 46.2541 81.559 46.282 78.5737C46.31 75.7803 44.6886 73.4715 41.9106 72.2544C40.3556 71.5743 38.7098 71.2604 37.0779 70.8698C35.5649 70.5106 33.9644 70.2177 33.4892 68.4286C33.905 66.8871 34.9743 66.3884 36.3685 66.2524C38.4267 66.0536 39.8454 66.8767 40.5443 68.8157C42.3858 68.7808 44.1155 68.9378 45.8243 68.7076H45.8208ZM93.0121 70.3467C93.3476 69.9526 93.2602 69.583 93.1973 69.2586C92.5753 66.1687 90.905 63.8844 88.0257 62.4859C85.9081 61.4536 83.6577 61.206 81.3969 61.471C77.2141 61.9663 74.1286 64.0971 72.5631 68.0973C71.4834 70.8594 71.2982 73.7191 71.8817 76.6417C72.6645 80.5686 74.7506 83.3795 78.5595 84.8826C80.3031 85.5697 82.0748 85.5697 83.8779 85.5383C87.9069 85.4685 91.7821 82.8878 93.0995 78.354C93.2288 77.9146 93.3825 77.4647 93.0366 77.0009H87.4945C87.166 78.082 86.7572 79.0794 85.8557 79.6653C83.0147 81.5102 79.2618 80.2756 78.1681 77.3217C77.3783 75.1944 77.284 73.0356 77.8501 70.835C78.5525 68.1008 80.3171 66.2419 83.6752 66.6081C85.1882 66.772 86.2785 67.4347 86.9948 68.7948C87.2604 69.297 87.1591 69.9771 87.7636 70.3432H93.0156L93.0121 70.3467ZM105.651 69.3214C106.025 68.9134 106.029 68.6169 106.06 68.3309C106.2 67.0475 107.077 66.357 108.185 66.0641C109.492 65.7188 110.739 65.9943 111.655 67.1068C112.469 68.0938 112.591 69.161 112.046 70.3502C111.445 71.658 110.452 72.638 109.422 73.5587C106.602 76.0627 103.726 78.504 100.888 80.9592C100.801 82.396 100.773 83.7631 100.885 85.1058C103.963 85.4302 117.008 85.3116 118.29 84.9454C118.311 83.5434 118.483 82.124 118.151 80.6H109.041C109.215 79.9931 109.642 79.7525 109.967 79.4456C111.613 77.8902 113.304 76.3801 114.932 74.8072C116.026 73.7505 116.917 72.5334 117.494 71.107C118.584 68.4077 117.944 65.6421 115.841 63.6263C112.829 60.7421 106.064 60.641 102.905 63.4275C101.157 64.969 100.207 66.8453 100.63 69.3214H105.662H105.651ZM55.8776 113.013V123.134C57.3172 123.134 58.6521 123.21 59.973 123.116C61.7865 122.984 63.1388 122.07 63.9216 120.392C64.3584 119.454 64.1732 118.453 64.2186 117.477C64.3479 114.872 62.0975 113.013 59.8611 113.016C58.5822 113.016 57.3068 113.016 55.8741 113.016L55.8776 113.013ZM89.3081 123.078C89.3081 122.394 89.3081 121.93 89.3081 121.47C89.3081 120.312 89.2871 119.151 89.3221 117.993C89.3396 117.369 89.1299 116.887 88.7175 116.431C87.0997 114.628 83.9233 115.182 82.8296 117.494C83.3467 117.773 83.9128 117.85 84.4614 117.923C86.2226 116.605 86.4078 116.619 86.9145 118.073C86.4427 118.635 85.7823 118.593 85.1498 118.61C84.423 118.628 83.787 118.893 83.2314 119.329C82.4592 119.932 82.2076 120.759 82.5151 121.648C82.8226 122.53 83.3747 123.113 84.3915 123.196C85.3769 123.28 86.289 123.099 87.0647 122.565C87.7077 123.468 88.445 123.099 89.3081 123.078ZM74.5514 118.115C74.3522 118.22 74.167 118.363 73.9574 118.422C73.6254 118.513 73.276 118.596 72.937 118.589C72.3954 118.582 71.9167 118.746 71.431 118.949C70.3198 119.416 69.7257 120.34 69.8969 121.362C70.0716 122.408 70.9208 123.081 72.1124 123.21C73.0104 123.308 73.7827 122.977 74.513 122.576C75.1804 123.468 75.9387 123.172 76.7109 123.001V117.177C75.6521 115.266 73.9783 115.322 72.35 115.569C71.382 115.716 70.498 116.232 70.4351 117.554C70.9487 117.672 71.4345 117.787 71.5428 117.812C72.5911 117.745 72.8252 116.856 73.6813 116.989C74.1251 117.139 74.4606 117.48 74.5514 118.112V118.115ZM57.5793 100.768C57.5793 103.007 57.5758 105.264 57.5793 107.52C57.5793 108.155 57.9218 108.287 58.5717 108.071V102.854C59.302 101.699 60.0988 101.173 61.3707 101.727C62.5099 103.774 61.2903 106.216 62.101 108.34C62.7649 108.224 62.8348 107.907 62.8418 107.53C62.8733 106.373 62.9222 105.211 62.9501 104.053C62.9641 103.53 62.9432 103.011 63.1354 102.508C63.4289 101.755 63.9915 101.473 64.7777 101.487C65.5395 101.501 65.9763 101.923 66.158 102.592C66.2768 103.032 66.2733 103.509 66.2768 103.97C66.2908 105.351 66.2803 106.732 66.2803 108.026C66.738 108.252 66.9966 108.266 67.3041 107.858C67.3041 106.477 67.3041 104.974 67.3041 103.471C67.3041 103.237 67.3111 103.004 67.2797 102.774C67.0246 100.702 65.2669 99.8266 63.4603 100.876C63.1633 101.051 62.9012 101.288 62.6287 101.494C61.175 100.221 60.5775 100.165 58.7359 101.127C58.5263 100.789 58.3586 100.36 57.5688 100.765L57.5793 100.768ZM93.2882 98.3444C93.2882 98.6966 93.3021 99.15 93.2847 99.5999C93.2637 100.113 93.407 100.639 93.1379 101.183C92.9317 101.096 92.7186 101.019 92.5229 100.922C90.6849 100.018 89.2242 100.378 88.3681 102.219C87.6098 103.848 87.6203 105.602 88.6686 107.168C89.5038 108.413 90.926 108.782 92.1595 108.179C92.4635 108.033 92.7011 107.754 93.075 107.747C93.4384 107.966 93.6061 108.015 94.3959 108.102V98.313C94.0639 98.0235 93.7529 98.041 93.2847 98.3479L93.2882 98.3444ZM100.986 98.2223C100.542 98.0514 100.214 98.0201 100.011 98.3444V108.106C100.27 108.144 100.459 108.231 100.602 108.183C100.916 108.078 101.206 107.904 101.482 107.768C103.345 108.8 105.012 108.531 105.882 106.948C106.57 105.693 106.7 104.325 106.242 102.913C105.49 100.601 103.817 99.8859 101.692 101.026C101.538 101.11 101.392 101.162 101.199 101.026C100.892 100.158 101.262 99.2093 100.99 98.2188L100.986 98.2223ZM77.4657 115.726C77.4448 116.274 77.27 116.87 77.5915 117.023C78.5979 117.505 78.3323 118.307 78.3288 119.092C78.3253 119.782 78.4232 120.473 78.4371 121.167C78.4581 122.352 78.9683 123.015 80.1284 123.141C80.7364 123.207 81.3934 123.343 81.9245 122.97C82.3962 121.7 81.3969 121.487 80.6421 121.149V117.463C81.0265 117.076 81.617 117.407 81.9525 116.996C82.0503 116.56 82.1412 116.113 81.928 115.691C81.5471 115.349 80.9531 115.702 80.663 115.266C80.4604 114.774 80.8168 114.181 80.2577 113.735C79.7475 113.763 79.171 113.564 78.6049 113.871C78.3148 114.335 78.6468 114.924 78.3148 115.36C78.0458 115.475 77.7907 115.587 77.4762 115.723L77.4657 115.726ZM73.2061 103.513C72.1613 103.809 71.0745 103.694 70.1101 104.102C69.2644 104.458 68.5586 105.026 68.5656 106.006C68.5726 106.986 69.0513 107.802 70.0018 108.211C70.8369 108.566 71.6791 108.646 72.4828 108.078C72.668 107.949 72.8846 107.865 73.0628 107.775C73.5136 107.984 73.8595 108.399 74.5584 108.005C74.5584 106.282 74.5759 104.448 74.5514 102.617C74.5409 101.923 74.0692 101.438 73.5695 101.04C72.2591 99.994 70.0717 100.419 69.0059 101.905C68.957 101.975 68.9989 102.111 68.9989 102.198C69.1666 102.39 69.3169 102.568 69.6977 102.571C70.456 101.947 71.2737 101.058 72.5037 101.626C73.1886 101.94 73.566 102.501 73.2026 103.523L73.2061 103.513ZM86.6349 104.789C87.0263 104.186 86.9494 103.774 86.89 103.384C86.6629 101.891 85.4678 100.657 84.0805 100.437C82.8365 100.242 81.596 100.932 80.8203 102.25C79.9712 103.694 80.1459 106.062 81.1907 107.318C82.3718 108.734 84.9227 108.831 86.1841 107.492C86.579 107.07 86.8411 106.61 85.9745 106.275C85.038 107.265 83.8709 107.698 82.5675 107.07C81.7218 106.662 81.3654 105.874 81.631 104.789H86.6314H86.6349ZM33.3844 98.3339C33 98.0305 32.6191 98.0201 32.081 98.2467C30.9174 101.445 29.7223 104.727 28.5587 107.925C28.8976 108.266 29.2051 108.294 29.3449 108.172C30.2464 107.377 30.1591 106.059 30.8894 105.079C32.1544 105.187 33.4263 104.932 34.7122 105.246C35.0931 106.237 35.46 107.199 35.806 108.106C36.2393 108.214 36.5747 108.333 36.8578 107.907C35.7046 104.73 34.5375 101.522 33.3809 98.3374L33.3844 98.3339ZM37.7838 100.824C37.7838 101.563 37.7628 102.425 37.7908 103.283C37.8187 104.263 37.6824 105.246 37.934 106.223C38.3953 108.022 39.7511 108.779 41.4738 108.151C41.7429 108.054 41.9875 107.9 42.2286 107.785C42.7178 107.959 43.1127 108.493 43.7277 107.945V100.737C43.3538 100.573 43.0498 100.468 42.7458 100.765C42.7108 100.873 42.6444 100.977 42.6444 101.086C42.6304 102.243 42.5745 103.405 42.6305 104.559C42.6829 105.616 42.4557 106.495 41.5332 107.108C39.3632 107.318 38.9718 106.965 38.9509 104.782C38.9474 104.318 38.9718 103.855 38.9474 103.391C38.8985 102.484 39.0976 101.553 38.8146 100.702C38.4582 100.552 38.1856 100.489 37.7908 100.821L37.7838 100.824ZM65.2669 115.642C65.2669 116.961 65.2285 118.167 65.2774 119.367C65.3263 120.605 65.0502 121.871 65.4591 123.109C66.2069 123.12 66.8953 123.304 67.5976 122.917C67.5976 121.739 67.5837 120.588 67.6011 119.44C67.6291 117.808 67.8108 117.609 69.4182 117.278C69.572 117.247 69.7047 117.132 69.8969 117.027C69.7711 116.528 70.0821 115.991 69.6139 115.52C68.929 115.179 68.2895 115.911 67.678 115.726C66.9267 115.496 66.2244 115.485 65.2634 115.642H65.2669ZM106.976 100.817C107.734 102.889 108.454 105.019 109.299 107.102C109.722 108.148 109.673 109.002 108.887 109.801C108.45 110.198 107.318 109.574 107.426 110.788C109.093 111.112 109.789 110.795 110.376 109.257C111.347 106.718 112.252 104.155 113.192 101.605C113.307 101.288 113.541 100.991 113.241 100.618C113.101 100.604 112.85 100.507 112.78 100.583C111.323 102.132 111.532 104.465 110.131 106.31C109.229 104.325 108.859 102.331 107.961 100.639C107.552 100.524 107.273 100.496 106.976 100.817ZM49.5178 104.856C49.5213 104.936 49.4969 105.291 49.5702 105.63C49.8708 106.983 50.6989 107.879 52.0163 108.312C53.2708 108.723 54.3296 108.277 55.1787 107.415C56.6149 105.958 56.6568 103.241 55.3534 101.668C53.9242 99.9486 51.4397 100.095 50.1468 101.937C49.5737 102.756 49.5003 103.652 49.5143 104.856H49.5178ZM45.8068 100.238C45.5308 100.684 44.776 100.364 44.741 101.009C44.748 101.755 45.716 101.34 45.8627 102.174C45.8627 102.641 45.8627 103.335 45.8627 104.029C45.8662 104.953 45.7963 105.884 46.0095 106.795C46.3205 108.127 47.3863 108.584 48.7281 107.966C48.6897 106.955 47.5016 107.475 47.0543 106.488C46.918 105.11 46.946 103.401 47.0263 101.811C47.5435 101.295 48.3926 101.856 48.5674 101.023C48.3507 100.217 47.5155 100.751 47.1347 100.378C46.7922 99.9033 47.1906 99.3035 46.7922 98.8815C46.5092 98.7594 46.2331 98.7141 45.9256 98.9861C45.8872 99.3871 45.8418 99.8405 45.8033 100.235L45.8068 100.238ZM77.8152 101.759C78.3183 101.372 78.9438 101.72 79.3352 101.312C79.4295 100.133 78.2205 100.831 77.8816 100.301C77.588 99.8545 78.0633 99.2232 77.5321 98.8605C77.3644 98.7455 77.0918 98.721 76.8682 98.9721C76.6061 99.3906 76.9416 99.9696 76.6166 100.433C76.2741 100.636 75.6347 100.433 75.6172 101.089C75.7255 101.752 76.4733 101.347 76.7389 101.853C76.7494 102.017 76.7703 102.243 76.7738 102.47C76.7773 103.799 76.7389 105.131 76.7913 106.456C76.8367 107.649 77.8256 108.476 79.0032 108.343C79.5309 108.284 79.6357 107.911 79.4086 107.44C79.0382 107.053 78.3463 107.419 77.9025 106.659C77.6824 105.18 77.8361 103.468 77.8152 101.762V101.759Z" fill="#0880E7"/>
<path id="Vector_4" d="M59.9498 33.2606C62.9654 27.8724 65.8378 22.7388 68.794 17.4587C69.741 19.1606 70.5517 20.6219 71.3798 22.111C70.5097 23.7048 69.6781 25.2254 68.7101 26.9935C71.5511 26.5262 74.2172 26.3065 77.2399 27.1574C74.8078 22.7876 72.5749 18.7839 70.3525 14.7942C70.9919 13.1342 72.0158 11.788 72.8999 10.0129C77.3028 17.7726 81.4995 25.4137 85.829 33.142C84.1587 33.3861 82.6107 33.2152 81.0732 33.2536C80.556 33.2675 80.2275 32.9153 79.8501 32.6503C75.6429 29.6894 70.1883 29.6859 65.995 32.6816C65.4464 33.0722 64.9222 33.292 64.2374 33.271C62.9025 33.2292 61.5677 33.2571 59.9463 33.2571L59.9498 33.2606Z" fill="#FEFEFE"/>
<path id="Vector_5" d="M47.4708 73.5517C47.3765 70.1305 48.1907 67.044 50.7171 64.5295C53.6733 61.5896 57.2865 60.9409 61.1617 61.6384C66.557 62.6114 69.4329 66.9673 69.8487 71.5673C70.1282 74.6433 69.8697 77.5588 68.3671 80.2861C66.7457 83.2295 64.1634 84.8861 60.9171 85.4336C59.2084 85.7196 57.4472 85.7056 55.721 85.2941C50.9058 84.1467 47.9111 80.1326 47.4813 75.292C47.4289 74.7165 47.4743 74.1341 47.4743 73.5517H47.4708ZM53.3798 73.4785C53.3169 75.0757 53.5231 76.6695 54.3792 78.1168C56.3185 81.4021 60.9171 81.3707 62.7866 78.3958C64.6072 75.4942 64.5163 72.3311 63.1465 69.2516C62.3149 67.3823 60.697 66.4686 58.6842 66.4895C56.6226 66.5104 55.0047 67.4067 54.1101 69.3737C53.523 70.6675 53.3309 72.0277 53.3798 73.4785Z" fill="#FEFEFE"/>
<path id="Vector_6" d="M45.8208 68.7111C44.112 68.9412 42.3823 68.7843 40.5408 68.8192C39.8384 66.8836 38.4232 66.0571 36.365 66.2559C34.9708 66.3919 33.9015 66.8941 33.4857 68.4321C33.9609 70.2211 35.5648 70.5106 37.0744 70.8733C38.7062 71.2639 40.3556 71.5743 41.9071 72.2578C44.6851 73.4785 46.3065 75.7837 46.2785 78.5772C46.2506 81.5625 44.5278 83.798 41.4388 84.8617C38.1786 85.9846 34.8939 85.8696 31.7035 84.7361C29.0373 83.7875 27.4509 81.7997 27.1224 78.919C27.077 78.5179 27.0071 78.1203 26.9268 77.5693C28.7438 77.2868 30.5294 77.5449 32.3989 77.3984C32.9266 79.9373 34.5794 80.8197 36.9625 80.7325C38.6189 80.6732 39.9432 80.2407 40.408 78.3924C40.1389 77.3601 39.3911 76.8055 38.4232 76.4254C36.7948 75.7837 35.0616 75.5605 33.3843 75.1106C32.2976 74.8177 31.3226 74.3434 30.3617 73.8098C26.8464 71.8603 26.9617 67.1591 28.7753 64.8504C30.4176 62.7579 32.647 61.743 35.2154 61.4815C36.9486 61.3036 38.6993 61.3559 40.401 61.8546C43.3328 62.7126 45.9431 65.1503 45.8173 68.7111H45.8208Z" fill="#FEFEFE"/>
<path id="Vector_7" d="M93.0123 70.3502H87.7603C87.1557 69.984 87.2536 69.3039 86.9915 68.8017C86.2751 67.4416 85.1884 66.779 83.6718 66.6151C80.3173 66.2524 78.5526 68.1077 77.8468 70.8419C77.2807 73.046 77.375 75.2013 78.1648 77.3287C79.262 80.2826 83.0114 81.5172 85.8523 79.6723C86.7539 79.0864 87.1627 78.089 87.4912 77.0078H93.0333C93.3792 77.4717 93.2254 77.9216 93.0961 78.361C91.7788 82.8947 87.9035 85.4755 83.8745 85.5452C82.0714 85.5766 80.2998 85.5766 78.5561 84.8896C74.7473 83.3865 72.6611 80.5721 71.8784 76.6486C71.2948 73.7261 71.48 70.8663 72.5598 68.1042C74.1253 64.1041 77.2073 61.9732 81.3935 61.478C83.6579 61.2094 85.9047 61.4605 88.0223 62.4928C90.9017 63.8948 92.5685 66.1791 93.194 69.2656C93.2604 69.5899 93.3442 69.9561 93.0088 70.3537L93.0123 70.3502Z" fill="#FEFEFE"/>
<path id="Vector_8" d="M105.655 69.3249H100.623C100.2 66.8453 101.151 64.969 102.898 63.431C106.057 60.6445 112.822 60.7456 115.834 63.6298C117.938 65.6456 118.577 68.4112 117.487 71.1105C116.91 72.5369 116.019 73.7575 114.926 74.8107C113.297 76.3836 111.61 77.8937 109.96 79.4491C109.635 79.756 109.209 80.0001 109.034 80.6035H118.144C118.476 82.124 118.305 83.5469 118.284 84.9489C117.001 85.3116 103.953 85.4302 100.878 85.1093C100.767 83.7666 100.795 82.3995 100.882 80.9627C103.719 78.5075 106.599 76.0697 109.415 73.5622C110.449 72.645 111.442 71.6615 112.039 70.3537C112.584 69.1645 112.462 68.0973 111.648 67.1103C110.732 65.9978 109.488 65.7223 108.178 66.0676C107.07 66.3605 106.197 67.051 106.054 68.3344C106.022 68.6204 106.019 68.9168 105.645 69.3249H105.655Z" fill="#FEFEFE"/>
<path id="Vector_9" d="M55.8818 113.016C57.311 113.016 58.59 113.016 59.8689 113.016C62.1053 113.016 64.3522 114.872 64.2264 117.477C64.1774 118.453 64.3661 119.454 63.9293 120.392C63.1466 122.073 61.7943 122.984 59.9807 123.116C58.6598 123.214 57.325 123.134 55.8853 123.134V113.013L55.8818 113.016ZM58.0239 120.943C60.2638 121.31 60.8718 121.139 61.6196 119.977C62.3254 118.882 62.3115 116.846 61.4658 115.866C60.5468 114.795 59.3238 114.68 58.0239 115.001V120.947V120.943Z" fill="#FEFEFE"/>
<path id="Vector_10" d="M89.3113 123.081C88.4482 123.099 87.7109 123.472 87.0679 122.569C86.2922 123.102 85.3837 123.283 84.3948 123.2C83.3779 123.116 82.8258 122.534 82.5183 121.651C82.2108 120.765 82.4624 119.935 83.2346 119.332C83.7902 118.896 84.4262 118.635 85.153 118.614C85.7855 118.596 86.446 118.638 86.9177 118.077C86.411 116.619 86.2258 116.608 84.4646 117.927C83.916 117.85 83.3499 117.777 82.8328 117.498C83.9265 115.185 87.1064 114.631 88.7208 116.434C89.1331 116.894 89.3428 117.372 89.3253 117.996C89.2904 119.154 89.3113 120.316 89.3113 121.473C89.3113 121.937 89.3113 122.398 89.3113 123.081ZM84.7127 120.71C85.2963 121.718 85.485 121.836 86.0686 121.609C86.8408 121.31 87.0959 120.779 86.9561 119.744C86.0965 119.824 85.2474 119.915 84.7127 120.71Z" fill="#FEFEFE"/>
<path id="Vector_11" d="M74.5547 118.118C74.4673 117.487 74.1319 117.145 73.6846 116.995C72.832 116.863 72.5978 117.752 71.546 117.819C71.4377 117.794 70.952 117.679 70.4383 117.56C70.5012 116.235 71.3853 115.719 72.3532 115.576C73.9816 115.328 75.6554 115.273 76.7142 117.184V123.008C75.9454 123.182 75.1872 123.475 74.5162 122.582C73.7859 122.984 73.0137 123.311 72.1156 123.217C70.9205 123.088 70.0749 122.415 69.9002 121.369C69.729 120.347 70.323 119.426 71.4342 118.955C71.9199 118.75 72.3987 118.589 72.9403 118.596C73.2792 118.6 73.6287 118.516 73.9606 118.429C74.1703 118.373 74.3555 118.23 74.5547 118.122V118.118ZM72.0877 120.912C72.514 121.78 73.122 121.899 73.9152 121.432C74.6106 121.02 74.8063 120.497 74.3869 119.674C73.5553 120.075 72.472 119.799 72.0842 120.912H72.0877Z" fill="#FEFEFE"/>
<path id="Vector_12" d="M57.583 100.772C58.3727 100.367 58.5405 100.796 58.7501 101.134C60.5917 100.172 61.1892 100.224 62.6428 101.501C62.9154 101.295 63.174 101.058 63.4745 100.883C65.2811 99.8335 67.0352 100.705 67.2938 102.78C67.3218 103.011 67.3148 103.244 67.3183 103.478C67.3183 104.981 67.3183 106.484 67.3183 107.865C67.0143 108.273 66.7522 108.259 66.2944 108.033C66.2944 106.739 66.3049 105.358 66.2909 103.977C66.2875 103.516 66.291 103.039 66.1721 102.599C65.9904 101.933 65.5536 101.511 64.7919 101.494C64.0056 101.48 63.443 101.762 63.1495 102.515C62.9538 103.018 62.9748 103.541 62.9643 104.06C62.9364 105.218 62.884 106.38 62.856 107.537C62.8455 107.918 62.7756 108.231 62.1152 108.346C61.3045 106.219 62.524 103.781 61.3849 101.734C60.1129 101.18 59.3162 101.706 58.5859 102.861V108.078C57.9359 108.291 57.597 108.158 57.5935 107.527C57.5865 105.271 57.5935 103.014 57.5935 100.775L57.583 100.772Z" fill="#FEFEFE"/>
<path id="Vector_13" d="M93.2928 98.3478C93.761 98.0409 94.072 98.027 94.404 98.3129V108.102C93.6143 108.015 93.443 107.97 93.0831 107.747C92.7127 107.754 92.4716 108.033 92.1676 108.179C90.9306 108.782 89.5119 108.416 88.6767 107.168C87.6249 105.605 87.6179 103.851 88.3762 102.219C89.2323 100.378 90.693 100.015 92.531 100.922C92.7302 101.019 92.9399 101.096 93.146 101.183C93.4151 100.639 93.2683 100.112 93.2928 99.5998C93.3137 99.1499 93.2963 98.6966 93.2963 98.3443L93.2928 98.3478ZM89.0017 104.315C88.9458 105.061 89.0576 105.745 89.4175 106.362C90.1863 107.673 91.9125 107.83 92.7477 106.62C93.6562 105.309 93.6772 103.701 92.8385 102.376C92.0069 101.061 90.1583 101.159 89.3896 102.508C89.0681 103.073 88.9318 103.694 88.9982 104.315H89.0017Z" fill="#FEFEFE"/>
<path id="Vector_14" d="M100.99 98.2258C101.266 99.2197 100.892 100.168 101.2 101.033C101.392 101.166 101.539 101.113 101.693 101.033C103.817 99.8928 105.494 100.604 106.242 102.92C106.7 104.332 106.574 105.699 105.882 106.955C105.012 108.538 103.345 108.81 101.483 107.775C101.207 107.911 100.917 108.081 100.602 108.19C100.459 108.238 100.267 108.151 100.012 108.113V98.3513C100.218 98.027 100.543 98.0584 100.987 98.2292L100.99 98.2258ZM105.438 104.563C105.449 103.924 105.386 103.366 105.117 102.826C104.691 101.975 104.104 101.445 103.094 101.487C102.073 101.528 101.56 102.153 101.214 103.018C100.753 104.179 100.941 105.302 101.486 106.352C102.157 107.645 103.684 107.813 104.666 106.735C105.236 106.114 105.505 105.361 105.438 104.563Z" fill="#FEFEFE"/>
<path id="Vector_15" d="M77.469 115.73C77.787 115.594 78.042 115.482 78.3076 115.367C78.6396 114.931 78.3076 114.342 78.5977 113.878C79.1637 113.571 79.7403 113.77 80.2505 113.742C80.8096 114.188 80.4567 114.781 80.6558 115.273C80.9494 115.705 81.5399 115.353 81.9208 115.698C82.134 116.12 82.0431 116.567 81.9452 117.003C81.6098 117.411 81.0227 117.083 80.6349 117.47V121.156C81.3896 121.494 82.389 121.707 81.9173 122.977C81.3896 123.35 80.7292 123.214 80.1212 123.147C78.9611 123.022 78.4509 122.359 78.4299 121.174C78.4194 120.483 78.3181 119.789 78.3216 119.099C78.3251 118.314 78.5907 117.512 77.5843 117.03C77.2628 116.877 77.441 116.281 77.4585 115.733L77.469 115.73Z" fill="#FEFEFE"/>
<path id="Vector_16" d="M73.2103 103.516C73.5737 102.494 73.1963 101.936 72.5114 101.619C71.2814 101.054 70.4637 101.94 69.7055 102.564C69.3246 102.557 69.1743 102.383 69.0066 102.191C69.0066 102.1 68.9647 101.968 69.0136 101.898C70.0794 100.412 72.2668 99.9869 73.5772 101.033C74.0769 101.431 74.5486 101.916 74.5591 102.61C74.5836 104.444 74.5661 106.278 74.5661 107.998C73.8672 108.395 73.5178 107.977 73.0705 107.768C72.8923 107.858 72.6757 107.942 72.4905 108.071C71.6868 108.639 70.8411 108.563 70.0095 108.203C69.059 107.795 68.5803 106.979 68.5733 105.999C68.5663 105.023 69.2722 104.451 70.1178 104.095C71.0822 103.691 72.169 103.806 73.2138 103.506L73.2103 103.516ZM73.3466 104.322C72.494 104.772 71.6029 104.636 70.7852 104.915C70.1283 105.138 69.66 105.511 69.7264 106.278C69.7823 106.931 70.4078 107.391 71.2045 107.464C71.9873 107.534 72.5394 107.154 72.9657 106.582C73.4409 105.947 73.7834 105.257 73.3466 104.325V104.322Z" fill="#FEFEFE"/>
<path id="Vector_17" d="M86.6389 104.793H81.6385C81.3729 105.877 81.7293 106.666 82.5749 107.074C83.8783 107.701 85.0455 107.269 85.9819 106.278C86.8485 106.613 86.5865 107.074 86.1916 107.496C84.9301 108.838 82.3758 108.741 81.1982 107.321C80.1534 106.066 79.9786 103.698 80.8278 102.254C81.6035 100.936 82.844 100.245 84.088 100.44C85.4752 100.66 86.6703 101.895 86.8975 103.387C86.9569 103.774 87.0337 104.189 86.6424 104.793H86.6389ZM85.8561 103.67C85.2551 101.839 84.7449 101.413 83.438 101.504C82.2395 101.588 81.8341 102.059 81.6035 103.67H85.8561Z" fill="#FEFEFE"/>
<path id="Vector_18" d="M33.3876 98.3373C34.5443 101.518 35.7079 104.726 36.8645 107.907C36.5815 108.333 36.246 108.214 35.8127 108.106C35.4668 107.199 35.0999 106.24 34.719 105.246C33.4331 104.932 32.1611 105.187 30.8962 105.079C30.1658 106.059 30.2497 107.373 29.3517 108.172C29.2119 108.298 28.9044 108.266 28.5654 107.924C29.7291 104.726 30.9241 101.445 32.0877 98.2467C32.6259 98.02 33.0068 98.0304 33.3911 98.3339L33.3876 98.3373ZM32.6748 99.8195C32.0248 101.494 31.4063 102.77 31.0918 104.273C32.2275 104.325 33.2444 104.385 34.3486 104.231C33.8699 102.805 33.5554 101.417 32.6713 99.8195H32.6748Z" fill="#FEFEFE"/>
<path id="Vector_19" d="M37.7845 100.827C38.1794 100.496 38.4554 100.559 38.8084 100.709C39.0949 101.56 38.8922 102.488 38.9412 103.398C38.9656 103.862 38.9411 104.325 38.9446 104.789C38.9691 106.976 39.357 107.325 41.527 107.115C42.4495 106.505 42.6766 105.623 42.6242 104.566C42.5683 103.412 42.6242 102.25 42.6382 101.093C42.6382 100.984 42.7046 100.876 42.7395 100.768C43.0435 100.472 43.3475 100.576 43.7214 100.74V107.949C43.1064 108.496 42.7116 107.963 42.2223 107.789C41.9847 107.907 41.7366 108.057 41.4676 108.155C39.7448 108.782 38.389 108.026 37.9278 106.226C37.6797 105.25 37.816 104.266 37.7845 103.286C37.7601 102.428 37.7775 101.567 37.7775 100.827H37.7845Z" fill="#FEFEFE"/>
<path id="Vector_20" d="M65.2703 115.646C66.2278 115.489 66.9302 115.503 67.6849 115.73C68.2965 115.914 68.9359 115.178 69.6208 115.524C70.0891 115.995 69.7781 116.532 69.9039 117.03C69.7117 117.135 69.5789 117.25 69.4251 117.281C67.8177 117.613 67.636 117.812 67.6081 119.444C67.5906 120.591 67.6046 121.742 67.6046 122.921C66.8987 123.308 66.2138 123.123 65.466 123.113C65.0572 121.874 65.3367 120.609 65.2843 119.37C65.2354 118.167 65.2738 116.964 65.2738 115.646H65.2703Z" fill="#FEFEFE"/>
<path id="Vector_21" d="M106.979 100.82C107.277 100.5 107.556 100.528 107.965 100.643C108.863 102.331 109.233 104.329 110.135 106.313C111.533 104.468 111.326 102.135 112.784 100.587C112.854 100.514 113.105 100.608 113.245 100.622C113.545 100.995 113.311 101.295 113.196 101.609C112.256 104.158 111.351 106.725 110.38 109.26C109.789 110.798 109.097 111.116 107.43 110.791C107.322 109.581 108.454 110.202 108.891 109.808C109.681 109.006 109.73 108.151 109.303 107.105C108.458 105.023 107.738 102.892 106.979 100.82Z" fill="#FEFEFE"/>
<path id="Vector_22" d="M49.5181 104.859C49.5041 103.656 49.5775 102.76 50.1506 101.94C51.4435 100.095 53.928 99.9486 55.3572 101.671C56.6606 103.244 56.6187 105.958 55.1825 107.419C54.3333 108.28 53.2746 108.73 52.0201 108.315C50.6992 107.883 49.8745 106.986 49.574 105.633C49.5007 105.298 49.5251 104.939 49.5216 104.859H49.5181ZM55.1825 104.465C55.186 102.651 54.3648 101.539 52.9845 101.49C51.454 101.434 50.5734 102.484 50.549 104.395C50.5245 106.177 51.5518 107.499 52.9146 107.447C54.246 107.394 55.1825 106.163 55.186 104.465H55.1825Z" fill="#FEFEFE"/>
<path id="Vector_23" d="M45.8074 100.242C45.8458 99.8475 45.8913 99.3941 45.9297 98.993C46.2372 98.721 46.5098 98.7663 46.7963 98.8884C47.1947 99.3104 46.7963 99.9102 47.1387 100.385C47.5196 100.758 48.3548 100.224 48.5714 101.03C48.3932 101.863 47.5441 101.302 47.0304 101.818C46.9501 103.405 46.9221 105.114 47.0584 106.495C47.5022 107.482 48.6937 106.965 48.7322 107.973C47.3903 108.591 46.3246 108.134 46.0136 106.802C45.8004 105.888 45.8703 104.96 45.8668 104.036C45.8633 103.342 45.8668 102.648 45.8668 102.181C45.7235 101.344 44.7521 101.762 44.7451 101.016C44.7801 100.371 45.5348 100.691 45.8109 100.245L45.8074 100.242Z" fill="#FEFEFE"/>
<path id="Vector_24" d="M77.8152 101.762C77.8361 103.467 77.6824 105.18 77.9025 106.659C78.3463 107.419 79.0382 107.056 79.4086 107.44C79.6357 107.914 79.5309 108.284 79.0032 108.343C77.8256 108.479 76.8367 107.649 76.7913 106.456C76.7389 105.128 76.7808 103.799 76.7738 102.47C76.7738 102.243 76.7494 102.013 76.7389 101.853C76.4733 101.347 75.7255 101.752 75.6172 101.089C75.6347 100.43 76.2741 100.636 76.6166 100.433C76.9415 99.9695 76.6061 99.3906 76.8682 98.9721C77.0918 98.721 77.3644 98.7454 77.5321 98.8605C78.0633 99.2232 77.5845 99.8579 77.8815 100.301C78.217 100.834 79.426 100.133 79.3352 101.312C78.9403 101.72 78.3148 101.372 77.8152 101.759V101.762Z" fill="#FEFEFE"/>
<path id="Vector_25" d="M53.3786 73.475C53.3297 72.0242 53.5219 70.6641 54.109 69.3702C55 67.4033 56.6214 66.507 58.6831 66.4861C60.6959 66.4651 62.3137 67.3789 63.1454 69.2482C64.5152 72.3276 64.606 75.4908 62.7855 78.3924C60.916 81.3672 56.3174 81.3986 54.3781 78.1134C53.5219 76.6661 53.3157 75.0758 53.3786 73.475Z" fill="#0880E7"/>
<path id="Vector_26" d="M58.0234 120.943V114.997C59.3268 114.676 60.5464 114.791 61.4654 115.862C62.3075 116.846 62.3215 118.879 61.6191 119.974C60.8713 121.135 60.2633 121.306 58.0234 120.94V120.943Z" fill="#0880E7"/>
<path id="Vector_27" d="M84.7129 120.713C85.251 119.918 86.0967 119.831 86.9563 119.747C87.096 120.783 86.841 121.31 86.0687 121.613C85.4851 121.84 85.2964 121.721 84.7129 120.713Z" fill="#0880E7"/>
<path id="Vector_28" d="M72.0879 120.912C72.4758 119.796 73.559 120.075 74.3907 119.674C74.8065 120.497 74.6143 121.02 73.9189 121.432C73.1257 121.899 72.5142 121.78 72.0914 120.912H72.0879Z" fill="#0880E7"/>
<path id="Vector_29" d="M89 104.311C88.9336 103.691 89.0664 103.07 89.3914 102.505C90.1602 101.155 92.0087 101.058 92.8403 102.372C93.679 103.698 93.658 105.305 92.7495 106.617C91.9108 107.827 90.1846 107.67 89.4194 106.359C89.0594 105.741 88.9441 105.058 89.0035 104.311H89Z" fill="#0880E7"/>
<path id="Vector_30" d="M105.438 104.563C105.504 105.361 105.232 106.115 104.666 106.735C103.684 107.813 102.16 107.646 101.486 106.352C100.941 105.302 100.748 104.179 101.213 103.018C101.559 102.153 102.073 101.528 103.093 101.487C104.103 101.445 104.69 101.975 105.116 102.826C105.385 103.366 105.448 103.924 105.438 104.563Z" fill="#0880E7"/>
<path id="Vector_31" d="M73.3461 104.322C73.7794 105.253 73.4405 105.944 72.9653 106.578C72.5355 107.15 71.9868 107.53 71.2041 107.461C70.4074 107.391 69.7854 106.927 69.726 106.275C69.6596 105.508 70.1279 105.135 70.7848 104.911C71.6025 104.636 72.4935 104.768 73.3461 104.318V104.322Z" fill="#0880E7"/>
<path id="Vector_32" d="M85.8552 103.67H81.6025C81.8332 102.059 82.2385 101.584 83.4371 101.504C84.744 101.413 85.2541 101.839 85.8552 103.67Z" fill="#0880E7"/>
<path id="Vector_33" d="M32.6761 99.8196C33.5567 101.417 33.8747 102.805 34.3534 104.231C33.2492 104.381 32.2289 104.325 31.0967 104.273C31.4077 102.77 32.0297 101.494 32.6796 99.8196H32.6761Z" fill="#0880E7"/>
<path id="Vector_34" d="M55.1863 104.465C55.1828 106.163 54.2463 107.394 52.9149 107.447C51.5521 107.499 50.5248 106.177 50.5493 104.395C50.5737 102.484 51.4578 101.434 52.9848 101.49C54.3651 101.542 55.1863 102.651 55.1828 104.465H55.1863Z" fill="#0880E7"/>
</g>
</svg>
