<svg width="139" height="45" viewBox="0 0 139 45" fill="none" xmlns="http://www.w3.org/2000/svg">
<g id="Group">
<path id="Vector" d="M58.4214 15.9002L56.4692 15.7391C54.9689 15.6137 54.3543 15.0227 54.3543 14.0018C54.3543 12.8019 55.2942 12.0318 57.0295 12.0318C58.2949 12.0318 59.3794 12.3183 60.2471 12.9989L61.3859 11.8706C60.2832 10.993 58.7829 10.5811 57.0295 10.5811C54.4627 10.5811 52.6009 11.9064 52.6009 14.0914C52.6009 16.0614 53.8662 17.1181 56.2161 17.3151L58.2045 17.4763C59.5783 17.6016 60.1929 18.1568 60.1929 19.2135C60.1929 20.6283 58.9818 21.3089 56.9753 21.3089C55.475 21.3089 54.1735 20.9149 53.2335 19.9478L52.0586 21.1119C53.3962 22.3656 54.9869 22.8491 57.0115 22.8491C59.9398 22.8491 61.9282 21.5238 61.9282 19.2314C61.9643 16.9032 60.5002 16.1331 58.3852 15.9361L58.4214 15.9002ZM73.5511 10.5095C71.5989 10.5095 70.3878 10.8677 69.3213 12.2467L70.4601 13.375C71.147 12.3721 71.9604 12.0139 73.515 12.0139C75.7022 12.0139 76.606 12.8915 76.606 14.6287V15.7928H72.9908C70.3155 15.7928 68.8513 17.1539 68.8513 19.2493C68.8513 20.2164 69.1767 21.1119 69.7371 21.6671C70.5144 22.4372 71.4905 22.7596 73.1535 22.7596C74.8165 22.7596 75.6299 22.4372 76.6422 21.4701V22.6342H78.3956V14.5033C78.3594 11.9243 76.7687 10.5095 73.5511 10.5095ZM76.606 18.4076C76.606 19.4105 76.4072 20.0911 75.9914 20.4672C75.2142 21.1835 74.3284 21.2731 73.3162 21.2731C71.4001 21.2731 70.5505 20.6283 70.5505 19.2135C70.5505 17.7986 71.4362 17.1181 73.2258 17.1181H76.606V18.4076ZM85.2645 12.0855C86.4033 12.0855 87.1444 12.4079 88.0301 13.4108L89.2051 12.2825C87.994 10.9572 86.9275 10.5453 85.2645 10.5453C82.2096 10.5453 79.932 12.6049 79.932 16.6704C79.932 20.7358 82.2277 22.7954 85.2645 22.7954C86.9275 22.7954 87.994 22.3477 89.2412 21.0224L88.0301 19.8941C87.1444 20.897 86.4033 21.2552 85.2645 21.2552C84.1257 21.2552 83.1134 20.8074 82.4627 19.8941C81.9023 19.1239 81.6854 18.2106 81.6854 16.6704C81.6854 15.1301 81.8842 14.2526 82.4627 13.4466C83.1134 12.5154 84.0895 12.0855 85.2645 12.0855ZM100.394 10.6707H98.207L92.7119 15.954V5.35156H90.9585V22.6342H92.7119V18.2822L94.8629 16.151L98.8939 22.6342H101.081L96.074 14.9331L100.376 10.6707H100.394ZM66.8991 12.5691L68.526 10.9572H65.2V7.01714H63.4466V19.4284C63.4466 21.2014 64.4588 22.6521 66.5376 22.6521H67.8029V21.1656H66.863C65.7242 21.1656 65.2361 20.5209 65.2361 19.4284V12.587H66.8991V12.5691Z" fill="#130C49"/>
<path id="Vector_2" d="M0 44.269V28.7415H3.90445V40.4005H31.3079V28.7415H35.2666V44.269H0Z" fill="#BCBBBB"/>
<path id="Vector_3" d="M8.24242 27.6668L27.4574 31.6427L28.2527 27.828L9.03777 23.8521L8.24242 27.6668ZM10.755 18.5509L28.5239 26.7713L30.1869 23.279L12.418 15.0048L10.755 18.5509ZM15.6717 9.91852L30.7653 22.3298L33.2779 19.3568L18.1843 6.94555L15.6717 9.91852ZM25.4148 0.748866L22.2514 3.0771L33.9648 18.6583L37.1281 16.3301L25.4148 0.730957V0.748866ZM7.80859 36.4783H27.3851V32.6098H7.80859V36.4783Z" fill="#F48022"/>
<path id="Vector_4" d="M56.9565 31.0696C55.0766 31.0696 53.8654 31.7859 53.0882 32.5919C51.9494 33.756 51.6602 35.1708 51.6602 37.4453C51.6602 39.7198 51.9494 41.1168 53.0882 42.2988C53.8654 43.1047 55.1127 43.8211 56.9565 43.8211C58.8002 43.8211 60.0836 43.1047 60.8609 42.2988C61.9997 41.1347 62.2889 39.7198 62.2889 37.4453C62.2889 35.1708 61.9997 33.7739 60.8609 32.5919C60.0836 31.7859 58.7822 31.0696 56.9565 31.0696ZM58.4206 40.4541C58.0591 40.8123 57.5711 41.0093 56.9565 41.0093C56.3419 41.0093 55.8538 40.8123 55.4923 40.4541C54.8416 39.8094 54.7693 38.7169 54.7693 37.4274C54.7693 36.138 54.8596 35.0455 55.4923 34.4007C55.8538 34.0425 56.3057 33.8455 56.9565 33.8455C57.5711 33.8455 58.0591 34.0425 58.4206 34.4007C59.0714 35.0455 59.1437 36.138 59.1437 37.4274C59.1437 38.7169 59.0533 39.8094 58.4206 40.4541ZM70.622 31.2308L68.1095 38.9318L65.5426 31.2308H62.2528L66.8803 43.6778H69.3206L73.9119 31.2308H70.622ZM79.2805 31.0696C76.0268 31.0696 73.7854 33.3441 73.7854 37.4274C73.7854 42.46 76.6233 43.7853 79.6059 43.7853C81.8835 43.7853 83.0946 43.1047 84.3599 41.8153L82.4438 39.9527C81.6304 40.7586 80.9797 41.1168 79.6059 41.1168C77.8525 41.1168 76.8402 39.9527 76.8402 38.3408H84.6853V36.9797C84.7214 33.5948 82.7331 31.0517 79.2805 31.0517V31.0696ZM76.8764 36.2633C76.9125 35.7081 76.9487 35.3857 77.1656 34.938C77.491 34.2216 78.1779 33.6485 79.2805 33.6485C79.7143 33.6485 80.1482 33.756 80.5278 33.9709C80.9074 34.2037 81.1966 34.5261 81.3954 34.9201C81.5943 35.3678 81.6846 35.726 81.6846 36.2454H76.8764V36.2633ZM89.3489 32.3949V31.1949H86.2941V43.6778H89.4212V36.1917C89.4212 34.6156 90.4697 33.9172 91.4458 33.9172C92.223 33.9172 92.6207 34.1679 93.1088 34.6336L95.4587 32.3053C94.6091 31.4636 93.7053 31.1412 92.4942 31.1412C91.1204 31.1054 89.9274 31.7501 89.3309 32.4307L89.3489 32.3949ZM96.4167 29.9413V43.6778H99.5439V33.8455H101.84V31.4636H99.5439V30.1025C99.5439 29.3861 99.9054 28.9742 100.647 28.9742H101.858V26.3594H100.068C97.5555 26.3594 96.4167 28.1682 96.4167 29.9413ZM114.8 31.0696C112.92 31.0696 111.709 31.7859 110.932 32.5919C109.793 33.756 109.504 35.1708 109.504 37.4453C109.504 39.7198 109.793 41.1168 110.932 42.2988C111.709 43.1047 112.956 43.8211 114.8 43.8211C116.644 43.8211 117.927 43.1047 118.705 42.2988C119.843 41.1347 120.133 39.7198 120.133 37.4453C120.133 35.1708 119.843 33.7739 118.705 32.5919C117.927 31.7859 116.626 31.0696 114.8 31.0696ZM116.264 40.4541C115.903 40.8123 115.415 41.0093 114.8 41.0093C114.186 41.0093 113.698 40.8123 113.336 40.4541C112.685 39.8094 112.613 38.7169 112.613 37.4274C112.613 36.138 112.685 35.0455 113.336 34.4007C113.698 34.0425 114.149 33.8455 114.8 33.8455C115.415 33.8455 115.903 34.0425 116.264 34.4007C116.915 35.0455 116.987 36.138 116.987 37.4274C116.987 38.7169 116.915 39.8094 116.264 40.4541ZM134.919 31.2308L132.894 38.9318L130.328 31.2308H128.05L125.483 38.9318L123.459 31.2308H120.133L124.001 43.6778H126.568L129.207 35.8693L131.846 43.6778H134.413L138.227 31.2308H134.919ZM106.503 39.9348V26.3594H103.376V40.0959C103.376 41.869 104.479 43.642 107.027 43.642H108.817V41.0272H107.606C106.829 41.0272 106.503 40.669 106.503 39.9348Z" fill="#130C49"/>
</g>
</svg>
