<?xml version="1.0" encoding="UTF-8"?><svg id="Layer_2" xmlns="http://www.w3.org/2000/svg" viewBox="0 0 242.32 54.26"><defs><style>.cls-1{fill:#fff;stroke-width:0px;}</style></defs><g id="Layer_1-2"><path class="cls-1" d="m157.19,13.21c.29-1.34-.07-2.77.37-4.26h8.19v35.18h-7.95c-.48-1.41-.45-2.94-.54-4.41-.28-.11-.45-.02-.56.13-3.6,4.74-8.55,5.94-14.17,5.33-1.35-.14-2.67-.44-3.97-.88-4.75-1.61-8.09-4.7-9.87-9.35-2.01-5.24-2.16-10.62-.26-15.9,2.24-6.24,6.95-9.66,13.44-10.76,2.28-.39,4.53-.49,6.82,0,2.99.63,5.6,1.89,7.58,4.27.22.26.34.69.92.65Zm-.22,13.43c.19-4.95-2.84-9.34-7.35-10.52-6.17-1.62-12.87,1.68-13.62,8.97-.86,8.36,5.58,13.82,13.47,11.95,5.16-1.22,7.66-6.05,7.51-10.4Z"/><path class="cls-1" d="m208.77,4.88c2.76-1.54,5.49-3.06,8.48-4.73,0,4.01,0,7.75,0,11.49s0,7.33,0,10.99c.14.05.27.1.41.15,3.92-4.64,7.84-9.28,11.77-13.92h10.66c-1.55,2.18-3.31,3.85-4.88,5.66-1.57,1.82-3.22,3.58-4.83,5.38-1.65,1.84-3.29,3.69-5.01,5.62,5.58,6.13,11.12,12.22,16.96,18.63h-11.05c-4.46-5.12-9.03-10.36-13.9-15.95v15.92h-8.6V4.88Z"/><path class="cls-1" d="m66.9,33.14c3.96,3.19,8.25,4.84,13.15,4.8,1.6-.01,3.05-.51,4.28-1.52,2.33-1.92,1.87-4.79-.98-5.77-1.64-.56-3.37-.71-5.11-.84-3.23-.24-6.36-.87-9.22-2.47-4.32-2.42-6.11-6.8-4.67-11.48.76-2.48,2.41-4.28,4.63-5.56,2.55-1.47,5.33-2.25,8.29-2.36,2.91-.11,5.81-.1,8.65.75,2.52.75,4.77,1.96,6.8,3.82-1.62,1.9-3.18,3.71-4.81,5.61-2.91-2.54-6.27-3.3-9.91-3.1-1.31.07-2.59.3-3.75.93-2.32,1.25-2.38,3.98-.14,5.34,1.13.69,2.39.96,3.69,1.11,3.06.36,6.15.47,9.13,1.44,4.36,1.43,7.08,4.24,7.48,8.87.38,4.44-1.42,7.92-5.2,10.32-2.28,1.45-4.84,2.17-7.53,2.33-3.4.2-6.81.21-10.13-.74-3.41-.97-6.32-2.73-8.82-5.44,1.38-2,2.73-3.96,4.17-6.04Z"/><path class="cls-1" d="m198.42,18.75c-5.63-4.39-12.09-2.85-15.08.71-3.4,4.05-3.34,10.66.1,14.47,3.29,3.65,10.48,4.49,15.34.36,1.79,1.92,3.59,3.83,5.5,5.87-1.78,1.93-4.33,3.49-7.26,4.35-4.91,1.44-9.8,1.17-14.52-.8-5.05-2.12-8.26-5.91-9.63-11.21-1.11-4.33-1.06-8.65.33-12.91,2.05-6.26,6.57-9.81,12.86-11.24,3.04-.69,6.13-.69,9.21-.09,3.33.65,6.06,2.35,8.58,4.78-1.82,1.91-3.6,3.78-5.44,5.7Z"/><path class="cls-1" d="m112.61.09v8.78h9.64v7.51h-9.45c-.5.77-.35,1.4-.35,2-.01,4.07,0,8.14-.02,12.2,0,.99.09,1.98.28,2.94.39,1.93,1.94,3.15,3.92,3.32,1.65.14,3.16-.4,4.81-.86.79,2.38,1.56,4.69,2.35,7.1-1.29.84-2.75,1.09-4.18,1.32-2.39.37-4.8.48-7.18-.08-4.68-1.1-7.67-4.48-8.35-9.23-.34-2.4-.32-4.79-.32-7.19,0-3.75,0-7.5,0-11.43h-6.51v-7.36c2.08-.37,4.19.02,6.35-.24.36-1.23.02-2.47.28-3.91,2.74-1.53,5.61-3.13,8.73-4.88Z"/><path class="cls-1" d="m25.85,29.66v-14.73c4.22-2.67,8.38-5.29,12.74-8.04v15.68c-4.1,2.28-8.32,4.64-12.74,7.1Z"/><path class="cls-1" d="m53.06,44.26c-4.16,2.47-8.32,4.94-12.7,7.54v-14.77c4.14-2.56,8.32-5.14,12.7-7.86v15.09Z"/><path class="cls-1" d="m0,47.25v-14.89c4.39,2.4,8.61,4.71,12.82,7.02v14.87c-4.39-2.4-8.62-4.71-12.82-7Z"/><path class="cls-1" d="m12.9,22.66c4.15,2.34,8.27,4.65,12.7,7.15-4.24,2.75-8.23,5.34-12.29,7.97-4.37-2.43-8.65-4.8-13.13-7.29,4.39-2.7,8.53-5.24,12.73-7.83Z"/><path class="cls-1" d="m38.64,36.86v14.85c-4.34-2.47-8.53-4.86-12.8-7.29v-14.47c4.41,2.38,8.62,4.65,12.8,6.91Z"/><path class="cls-1" d="m25.69,13.22c-4.11-2.17-8.08-4.28-12.31-6.52,4.2-2.28,8.21-4.46,12.34-6.7,3.92,1.86,7.84,3.72,12.09,5.73-4.2,2.6-8.11,5.01-12.12,7.49Z"/></g></svg>