<svg width="65" height="21" viewBox="0 0 65 21" fill="none" xmlns="http://www.w3.org/2000/svg">
<g id="stackoverflow">
<path id="Vector" d="M27.4069 7.7063L26.4911 7.63081C25.7872 7.57209 25.4989 7.29528 25.4989 6.81715C25.4989 6.25514 25.9398 5.89444 26.7539 5.89444C27.3476 5.89444 27.8564 6.02865 28.2634 6.34741L28.7977 5.81895C28.2804 5.40792 27.5765 5.21499 26.7539 5.21499C25.5497 5.21499 24.6763 5.83572 24.6763 6.85909C24.6763 7.7818 25.2699 8.2767 26.3723 8.36897L27.3052 8.44447C27.9497 8.50319 28.238 8.76322 28.238 9.25813C28.238 9.9208 27.6698 10.2396 26.7285 10.2396C26.0246 10.2396 25.4141 10.055 24.9731 9.60205L24.4219 10.1473C25.0494 10.7345 25.7957 10.9609 26.7455 10.9609C28.1193 10.9609 29.0521 10.3402 29.0521 9.26652C29.069 8.17604 28.3821 7.81535 27.39 7.72308L27.4069 7.7063ZM34.5049 5.18144C33.589 5.18144 33.0208 5.3492 32.5205 5.9951L33.0547 6.52356C33.377 6.05382 33.7586 5.88605 34.4879 5.88605C35.514 5.88605 35.938 6.29708 35.938 7.11074V7.65597H34.242C32.9869 7.65597 32.3 8.29348 32.3 9.2749C32.3 9.72787 32.4527 10.1473 32.7155 10.4073C33.0802 10.768 33.5381 10.919 34.3183 10.919C35.0985 10.919 35.4801 10.768 35.955 10.315V10.8603H36.7776V7.05202C36.7606 5.84411 36.0143 5.18144 34.5049 5.18144ZM35.938 8.88066C35.938 9.3504 35.8447 9.66915 35.6497 9.84531C35.285 10.1808 34.8695 10.2228 34.3946 10.2228C33.4957 10.2228 33.0971 9.9208 33.0971 9.25813C33.0971 8.59546 33.5127 8.2767 34.3522 8.2767H35.938V8.88066ZM40.0001 5.91961C40.5343 5.91961 40.882 6.07059 41.2975 6.54034L41.8487 6.01188C41.2806 5.39115 40.7802 5.19822 40.0001 5.19822C38.5669 5.19822 37.4984 6.16286 37.4984 8.067C37.4984 9.97113 38.5754 10.9358 40.0001 10.9358C40.7802 10.9358 41.2806 10.7261 41.8657 10.1053L41.2975 9.57688C40.882 10.0466 40.5343 10.2144 40.0001 10.2144C39.4658 10.2144 38.9909 10.0047 38.6856 9.57688C38.4227 9.21619 38.321 8.78839 38.321 8.067C38.321 7.34561 38.4143 6.93458 38.6856 6.55711C38.9909 6.12092 39.4488 5.91961 40.0001 5.91961ZM47.098 5.25693H46.0719L43.4939 7.73147V2.76562H42.6713V10.8603H43.4939V8.82194L44.5031 7.82374L46.3941 10.8603H47.4203L45.0712 7.25334L47.0895 5.25693H47.098ZM31.3841 6.14609L32.1474 5.39115H30.587V3.54573H29.7644V9.35879C29.7644 10.1892 30.2393 10.8687 31.2145 10.8687H31.8082V10.1724H31.3672C30.8329 10.1724 30.604 9.87047 30.604 9.35879V6.15448H31.3841V6.14609Z" fill="#B9C8DE"/>
<path id="Vector_2" d="M0 20.9933V13.7207H1.83173V19.1815H14.6878V13.7207H16.5449V20.9933H0Z" fill="#B9C8DE"/>
<path id="Vector_3" d="M3.86759 13.2175L12.8821 15.0797L13.2552 13.293L4.24072 11.4308L3.86759 13.2175ZM5.04634 8.94787L13.3824 12.7981L14.1626 11.1624L5.82652 7.28699L5.04634 8.94787ZM7.35296 4.90473L14.434 10.7178L15.6127 9.32534L8.53171 3.51228L7.35296 4.90473ZM11.9238 0.609951L10.4398 1.70042L15.935 8.9982L17.419 7.90772L11.9238 0.601562V0.609951ZM3.66406 17.3445H12.8481V15.5326H3.66406V17.3445Z" fill="#B9C8DE"/>
<path id="Vector_4" d="M26.7191 14.8116C25.8371 14.8116 25.269 15.1471 24.9043 15.5246C24.3701 16.0698 24.2344 16.7325 24.2344 17.7978C24.2344 18.8631 24.3701 19.5174 24.9043 20.071C25.269 20.4485 25.8541 20.784 26.7191 20.784C27.5841 20.784 28.1862 20.4485 28.5508 20.071C29.0851 19.5258 29.2207 18.8631 29.2207 17.7978C29.2207 16.7325 29.0851 16.0782 28.5508 15.5246C28.1862 15.1471 27.5756 14.8116 26.7191 14.8116ZM27.406 19.207C27.2364 19.3748 27.0074 19.4671 26.7191 19.4671C26.4308 19.4671 26.2018 19.3748 26.0322 19.207C25.7269 18.905 25.693 18.3934 25.693 17.7894C25.693 17.1855 25.7354 16.6738 26.0322 16.3718C26.2018 16.204 26.4138 16.1118 26.7191 16.1118C27.0074 16.1118 27.2364 16.204 27.406 16.3718C27.7113 16.6738 27.7452 17.1855 27.7452 17.7894C27.7452 18.3934 27.7028 18.905 27.406 19.207ZM33.1301 14.8871L31.9514 18.494L30.7472 14.8871H29.2038L31.3747 20.7169H32.5196L34.6735 14.8871H33.1301ZM37.1922 14.8116C35.6657 14.8116 34.6142 15.8769 34.6142 17.7894C34.6142 20.1465 35.9456 20.7672 37.3448 20.7672C38.4133 20.7672 38.9815 20.4485 39.5751 19.8445L38.6762 18.9721C38.2946 19.3496 37.9893 19.5174 37.3448 19.5174C36.5222 19.5174 36.0473 18.9721 36.0473 18.2172H39.7277V17.5797C39.7447 15.9943 38.8119 14.8032 37.1922 14.8032V14.8116ZM36.0643 17.2442C36.0813 16.9841 36.0982 16.8331 36.2 16.6234C36.3526 16.2879 36.6749 16.0195 37.1922 16.0195C37.3957 16.0195 37.5992 16.0698 37.7773 16.1705C37.9554 16.2795 38.0911 16.4305 38.1843 16.6151C38.2776 16.8248 38.32 16.9925 38.32 17.2358H36.0643V17.2442ZM41.9156 15.4323V14.8703H40.4825V20.7169H41.9496V17.2106C41.9496 16.4725 42.4414 16.1453 42.8994 16.1453C43.264 16.1453 43.4506 16.2627 43.6795 16.4808L44.782 15.3904C44.3834 14.9961 43.9594 14.8451 43.3912 14.8451C42.7467 14.8284 42.187 15.1303 41.9072 15.4491L41.9156 15.4323ZM45.2314 14.2831V20.7169H46.6985V16.1118H47.7755V14.9961H46.6985V14.3586C46.6985 14.0231 46.8681 13.8302 47.2158 13.8302H47.784V12.6055H46.9444C45.7657 12.6055 45.2314 13.4527 45.2314 14.2831ZM53.8558 14.8116C52.9739 14.8116 52.4057 15.1471 52.041 15.5246C51.5068 16.0698 51.3711 16.7325 51.3711 17.7978C51.3711 18.8631 51.5068 19.5174 52.041 20.071C52.4057 20.4485 52.9908 20.784 53.8558 20.784C54.7208 20.784 55.3229 20.4485 55.6875 20.071C56.2218 19.5258 56.3575 18.8631 56.3575 17.7978C56.3575 16.7325 56.2218 16.0782 55.6875 15.5246C55.3229 15.1471 54.7123 14.8116 53.8558 14.8116ZM54.5427 19.207C54.3731 19.3748 54.1441 19.4671 53.8558 19.4671C53.5675 19.4671 53.3385 19.3748 53.1689 19.207C52.8636 18.905 52.8297 18.3934 52.8297 17.7894C52.8297 17.1855 52.8636 16.6738 53.1689 16.3718C53.3385 16.204 53.5505 16.1118 53.8558 16.1118C54.1441 16.1118 54.3731 16.204 54.5427 16.3718C54.848 16.6738 54.8819 17.1855 54.8819 17.7894C54.8819 18.3934 54.848 18.905 54.5427 19.207ZM63.2943 14.8871L62.3445 18.494L61.1403 14.8871H60.0718L58.8676 18.494L57.9178 14.8871H56.3575L58.1722 20.7169H59.3764L60.6146 17.0596L61.8527 20.7169H63.0569L64.8462 14.8871H63.2943ZM49.9634 18.9638V12.6055H48.4963V19.0393C48.4963 19.8697 49.0136 20.7001 50.2093 20.7001H51.0489V19.4754H50.4807C50.116 19.4754 49.9634 19.3077 49.9634 18.9638Z" fill="#B9C8DE"/>
</g>
</svg>
