<?xml version="1.0" encoding="UTF-8"?>
<svg id="Layer_1" xmlns="http://www.w3.org/2000/svg" version="1.1" viewBox="0 0 215 50">
  <!-- Generator: Adobe Illustrator 29.4.0, SVG Export Plug-In . SVG Version: 2.1.0 Build 152)  -->
  <defs>
    <style>
      .st0 {
        fill: #fff;
      }
    </style>
  </defs>
  <path class="st0" d="M79.8,22.2c-4.3-1-7.8-1.8-7.8-5.4s2.1-4.3,6.3-4.3,7.1,2.1,7.7,6h5.3c-.5-6.5-5.4-10.2-13-10.2s-11.7,3.2-11.7,8.8,5.7,7.7,11,9.1c6.1,1.5,9.3,2.1,9.3,6.1s-1.6,5.2-7,5.2-8.9-2.9-9.3-7.2h-5.3c.4,7.2,6.4,11.4,14.7,11.4s12.2-4.1,12.2-9.6-6.1-8.3-12.5-9.8c0,0,0,0,0,0ZM100.6,34.7v-12.9h4.6v-3.6h-4.6v-7.4h-4.6v7.4h-3.4v3.6h3.4v12.8h0c0,5.3,2.4,6.7,6.3,6.7s1.7,0,2.9-.3v-3.5c-.8.1-1.2.2-2,.2-2,0-2.7-.5-2.7-3,0,0,0,0,0,0ZM126.8,35.9v-10.5c0-5.9-3.9-7.9-8.8-7.9-7.3,0-10.3,3.5-10.5,7.9h4.7c.2-3.1,1.5-4.3,5.6-4.3s4.5,1.4,4.5,3.1-2.3,2.7-6,3.4c-5.9,1.1-9.9,2.6-9.9,7.7h0c0,3.9,3,6.5,7.8,6.5s6.6-1.5,8.1-3.9h0c.3,2.6,1.5,3.5,3.8,3.5s1.5,0,2.3-.3v-2.7c-.3,0-.4,0-.6,0-.9,0-1.1-.9-1.1-2.5ZM122.3,32.2c0,4-3,6-7.1,6h0c-2.8,0-4-1.2-4-3.3s1.8-3.5,6-4.3c2.4-.5,4.5-1,5.2-1.7v3.3ZM141.1,21.1c4.3,0,5.7,3,6,5.3h4.7c-.6-5.2-4.6-9-10.7-9s-11.6,4.9-11.6,12.1h0c0,7.2,4.6,12.1,11.7,12.1s10.3-3.9,10.7-9.2h-4.7c-.2,2.6-1.6,5.5-6,5.5s-6.9-4.1-6.9-8.4,1.9-8.5,6.9-8.5h0ZM174.2,18.2h-5.3l-10.4,9.7V9h-4.6v32.1h4.6v-8.5l3.4-3.2,7.8,11.7h5.4l-10.1-14.5s9.1-8.4,9.1-8.4ZM189.4,9l-12.4,32.1h5.4l2.7-7.7h13.9l2.7,7.7h5.6l-12.5-32.1h-5.5s0,0,0,0ZM186.7,29.2l5.4-15.6h0l5.4,15.6h-10.9ZM215,9h-5.1v32.1h5.1V9ZM47.5,26.4l-9.9-5.9c-.2-.1-.4-.4-.4-.7v-11.6c0-.8-.4-1.5-1.1-2L26.6.6c-1.3-.8-2.9-.8-4.1,0l-9.6,5.7c-.7.4-1.1,1.2-1.1,2v11.6c0,.3-.1.5-.4.7L1.5,26.4C.6,26.9,0,27.9,0,29v11.2c0,1.5.8,3,2,3.7l9.2,5.6c1,.6,2.2.6,3.2,0l9.8-5.9c.2-.1.5-.1.8,0l10.1,6.1c.7.4,1.6.4,2.4,0l9.6-5.8c1.2-.8,2-2.2,2-3.7v-11.2c0-1.1-.6-2.1-1.5-2.6ZM23.4,40.2c0,.8-.4,1.6-1,1.9l-7.7,4.7c-.6.4-1.4-.2-1.4-1v-9.1c0-.8.4-1.6,1-1.9l7.7-4.7c.6-.4,1.4.2,1.4,1v9.1h0ZM35.2,19.9c0,.8-.4,1.6-1,1.9l-7.7,4.7c-.6.4-1.4-.2-1.4-1v-9.1c0-.8.4-1.6,1-1.9l7.7-4.7c.6-.4,1.4.2,1.4,1v9.1h0ZM46.9,40.2c0,.8-.4,1.6-1,1.9l-7.7,4.7c-.6.4-1.4-.2-1.4-1v-9.1c0-.8.4-1.6,1-1.9l7.7-4.7c.6-.4,1.4.2,1.4,1v9.1h0Z"/>
</svg>