<svg xmlns="http://www.w3.org/2000/svg" width="215" height="50" fill="none"><path fill="#000" d="M79.75 22.222c-4.288-1.032-7.782-1.788-7.782-5.383 0-2.783 2.146-4.263 6.337-4.263 4.846 0 7.131 2.111 7.69 5.973h5.312c-.508-6.461-5.446-10.19-13.039-10.19-7.181 0-11.65 3.185-11.65 8.757 0 6.097 5.733 7.715 10.953 9.06 6.051 1.485 9.314 2.065 9.314 6.149 0 2.917-1.629 5.161-6.988 5.161-6.24 0-8.893-2.917-9.267-7.226h-5.313c.374 7.226 6.374 11.434 14.714 11.434s12.208-4.12 12.208-9.646c0-6.78-6.06-8.259-12.485-9.826h-.004Zm20.829 12.523V21.822h4.565V18.19h-4.565v-7.36h-4.564v7.37h-3.448v3.631h3.448v12.79l-.01-.01c0 5.296 2.373 6.729 6.291 6.729.979 0 1.722-.046 2.889-.268v-3.548c-.784.133-1.158.18-1.952.18-1.952 0-2.654-.535-2.654-2.964v.005Zm26.174 1.128V25.365c0-5.917-3.914-7.894-8.806-7.894-7.265 0-10.256 3.46-10.482 7.858h4.662c.24-3.06 1.495-4.31 5.64-4.31 3.494 0 4.518 1.388 4.518 3.051 0 2.245-2.289 2.697-6.013 3.365-5.917 1.078-9.919 2.608-9.919 7.724h-.009c0 3.899 3.037 6.549 7.781 6.549 3.868 0 6.568-1.484 8.11-3.862h.097c.276 2.608 1.495 3.461 3.77 3.461.739 0 1.533-.088 2.327-.267v-2.696c-.277.046-.411.046-.554.046-.891 0-1.122-.853-1.122-2.517Zm-4.481-3.719c0 3.996-3.024 6.014-7.122 6.014h-.009c-2.834 0-4.048-1.166-4.048-3.318 0-2.378 1.772-3.507 5.963-4.309 2.423-.498 4.472-.995 5.216-1.664v3.277Zm18.821-11.015c4.339 0 5.737 2.963 5.964 5.346h4.712c-.554-5.162-4.606-8.978-10.712-8.978-7.039 0-11.65 4.94-11.65 12.121l.009-.009c0 7.19 4.607 12.121 11.691 12.121 6.097 0 10.339-3.908 10.667-9.158h-4.713c-.231 2.609-1.588 5.48-5.963 5.48-5.072 0-6.942-4.138-6.942-8.443s1.865-8.48 6.942-8.48h-.005Zm33.125-2.946h-5.266l-10.385 9.697V8.99h-4.569v32.099h4.569v-8.526l3.443-3.185 7.787 11.711h5.4L165.084 26.59l9.134-8.397Zm15.194-9.203-12.388 32.09h5.4l2.747-7.724H199.1l2.746 7.724h5.589L194.951 8.99h-5.543.004Zm-2.7 20.2 5.4-15.62h.097l5.446 15.62h-10.943ZM215 8.99h-5.123v32.09H215V8.99ZM47.502 26.39l-9.896-5.932a.762.762 0 0 1-.369-.654V8.254c0-.802-.42-1.548-1.112-1.958L26.566.57a4.042 4.042 0 0 0-4.145 0L12.863 6.3a2.291 2.291 0 0 0-1.112 1.958v11.558a.771.771 0 0 1-.37.655l-9.9 5.918A3.047 3.047 0 0 0 0 29.003V40.17c0 1.534.766 2.954 2.003 3.7l9.157 5.559c.974.59 2.192.59 3.166 0l9.817-5.909a.763.763 0 0 1 .78.005l10.127 6.143a2.29 2.29 0 0 0 2.376 0l9.554-5.798c1.237-.75 2.003-2.166 2.003-3.7V29.003c0-1.07-.563-2.06-1.481-2.613ZM23.428 40.17c0 .82-.392 1.567-1.01 1.944l-7.704 4.674c-.632.382-1.39-.152-1.39-.982V36.7c0-.82.393-1.567 1.011-1.945l7.704-4.673c.632-.382 1.389.152 1.389.982v9.107Zm11.75-20.311c0 .82-.392 1.567-1.01 1.945l-7.703 4.673c-.633.383-1.39-.152-1.39-.982V16.39c0-.82.393-1.567 1.011-1.945L33.79 9.77c.633-.382 1.39.153 1.39.982v9.107Zm11.747 20.31c0 .821-.392 1.568-1.01 1.946l-7.704 4.673c-.632.382-1.39-.152-1.39-.982V36.7c0-.82.393-1.567 1.012-1.945l7.703-4.673c.632-.382 1.389.152 1.389.982v9.107Z"/></svg>