<svg width="158" height="79" viewBox="0 0 158 79" fill="none" xmlns="http://www.w3.org/2000/svg">
<path d="M73.0878 32.5019L71.3024 32.3531C69.9265 32.2412 69.3669 31.6842 69.3669 30.7533C69.3669 29.6381 70.2227 28.9311 71.8212 28.9311C72.9746 28.9311 73.9779 29.1918 74.76 29.8238L75.8001 28.7836C74.7955 27.9673 73.4196 27.5933 71.8198 27.5933C69.4762 27.5933 67.7645 28.8205 67.7645 30.8297C67.7645 32.652 68.9179 33.621 71.0746 33.8054L72.8969 33.9542C74.1609 34.0661 74.7191 34.5862 74.7191 35.5539C74.7191 36.8574 73.6039 37.4894 71.7803 37.4894C70.4044 37.4894 69.2128 37.1181 68.357 36.2254L67.2773 37.3051C68.5045 38.4585 69.9554 38.9048 71.8146 38.9048C74.4927 38.9048 76.3149 37.6777 76.3149 35.5579C76.3518 33.4012 75.0114 32.6941 73.0786 32.5085L73.0878 32.5019ZM86.922 27.5183C85.1366 27.5183 84.0214 27.8527 83.0536 29.118L84.0938 30.1582C84.7258 29.2286 85.4697 28.8942 86.8851 28.8942C88.8931 28.8942 89.712 29.7105 89.712 31.3116V32.3913H86.4019C83.9477 32.3913 82.6099 33.6553 82.6099 35.5908C82.6099 36.4835 82.9075 37.3024 83.4263 37.8225C84.1333 38.5296 85.026 38.8271 86.5507 38.8271C88.0385 38.8271 88.8193 38.5296 89.7502 37.6369V38.7165H91.35V31.2036C91.3131 28.8231 89.8621 27.5209 86.926 27.5209L86.922 27.5183ZM89.7133 34.8087C89.7133 35.7382 89.529 36.3702 89.1551 36.7047C88.448 37.3735 87.6304 37.4486 86.7008 37.4486C84.9523 37.4486 84.1728 36.8535 84.1728 35.5526C84.1728 34.2886 84.9891 33.6171 86.6271 33.6171H89.7147L89.7133 34.8087ZM97.6331 28.9666C98.6733 28.9666 99.3448 29.2642 100.161 30.1938L101.241 29.1536C100.126 27.9265 99.1578 27.5538 97.6331 27.5538C94.8418 27.5538 92.7614 29.4498 92.7614 33.2076C92.7614 36.9654 94.8681 38.8614 97.6331 38.8614C99.1578 38.8614 100.126 38.4532 101.278 37.2248L100.162 36.1846C99.3461 37.1142 98.6746 37.4486 97.6344 37.4486C96.5547 37.4486 95.6634 37.0404 95.0669 36.1846C94.5468 35.4775 94.3599 34.623 94.3599 33.2089C94.3599 31.833 94.5442 30.9772 95.0669 30.2333C95.662 29.3774 96.5547 28.9693 97.6344 28.9693L97.6331 28.9666ZM111.469 27.6631H109.461L104.44 32.5348V22.752H102.841V38.7073H104.44V34.6915L106.411 32.7204L110.094 38.7086H112.102L107.528 31.6052L111.469 27.6631ZM80.8232 29.4143L82.311 27.9265H79.2616V24.2819H77.6619V35.7369C77.6619 37.3735 78.5915 38.7126 80.4888 38.7126H81.6422V37.3367H80.7863C79.7462 37.3367 79.2985 36.7415 79.2985 35.7369V29.4143H80.8232Z" fill="white"/>
<path d="M19.6445 58.6931V44.3494H23.218V55.1197H48.282V44.3494H51.9029V58.6931H19.6445Z" fill="#BCBBBB"/>
<path d="M27.185 43.3711L44.7599 47.0419L45.4946 43.5172L27.9197 39.8463L27.185 43.3711ZM29.4852 34.951L45.7381 42.5389L47.2563 39.3078L31.0033 31.6712L29.4852 34.951ZM33.9882 26.972L47.7935 38.427L50.0937 35.6857L36.2884 24.2307L33.9882 26.972ZM42.8981 18.5032L40.0093 20.6572L50.7296 35.0484L53.6184 32.8943L42.8981 18.5032ZM26.7939 51.4975H44.7111V47.9241H26.7939V51.4975Z" fill="#F48024"/>
<path d="M71.7495 46.5072C70.0379 46.5072 68.9227 47.1761 68.2156 47.92C67.1754 48.9997 66.9121 50.3006 66.9121 52.3967C66.9121 54.4928 67.1728 55.7805 68.2156 56.8734C68.9227 57.6173 70.0747 58.2861 71.7495 58.2861C73.4612 58.2861 74.6133 57.6173 75.3203 56.8734C76.3605 55.7937 76.6238 54.4928 76.6238 52.3967C76.6238 50.3006 76.3631 49.0129 75.3203 47.92C74.6133 47.1761 73.4243 46.5072 71.7495 46.5072ZM73.0886 55.1735C72.7542 55.508 72.3078 55.6936 71.7495 55.6936C71.1913 55.6936 70.7449 55.5093 70.4105 55.1735C69.8154 54.5784 69.7416 53.5738 69.7416 52.3822C69.7416 51.1906 69.8167 50.1873 70.4105 49.5909C70.7449 49.2564 71.1544 49.0708 71.7495 49.0708C72.3078 49.0708 72.7542 49.2551 73.0886 49.5909C73.6837 50.186 73.7575 51.1906 73.7575 52.3822C73.7575 53.5738 73.6824 54.5771 73.0886 55.1735ZM84.246 46.6547L81.9419 53.7581L79.5982 46.6547H76.5857L80.8253 58.1492H83.0571L87.2599 46.6547H84.246ZM92.1671 46.5072C89.1914 46.5072 87.1466 48.6139 87.1466 52.3835C87.1466 57.0314 89.7497 58.2598 92.466 58.2598C94.5489 58.2598 95.6655 57.6278 96.8176 56.4375L95.069 54.7259C94.3251 55.4698 93.73 55.8055 92.466 55.8055C90.8662 55.8055 89.938 54.7259 89.938 53.238H97.1164V51.974C97.1533 48.8496 95.331 46.5072 92.1697 46.5072H92.1671ZM89.9722 51.3052C90.0091 50.7851 90.0459 50.4888 90.2329 50.078C90.5305 49.4092 91.1625 48.8878 92.1684 48.8878C92.5718 48.8757 92.9699 48.982 93.3136 49.1935C93.6573 49.405 93.9316 49.7125 94.1026 50.078C94.2869 50.4862 94.3633 50.822 94.3633 51.3052H89.9722ZM101.39 47.7344V46.6192H98.599V58.1492H101.463V51.2314C101.463 49.7805 102.429 49.1248 103.322 49.1248C104.029 49.1248 104.402 49.3486 104.847 49.7936L107.003 47.6369C106.223 46.8562 105.404 46.5573 104.288 46.5573C103.024 46.5204 101.945 47.1155 101.388 47.7475L101.39 47.7344ZM107.862 45.4658V58.1479H110.726V49.0721H112.832V46.8772H110.726V45.6132C110.726 44.9444 111.06 44.5731 111.73 44.5731H112.845V42.1557H111.209C108.905 42.1557 107.862 43.8278 107.862 45.4658ZM124.673 46.5059C122.961 46.5059 121.846 47.1748 121.139 47.9187C120.099 48.9984 119.836 50.2992 119.836 52.3954C119.836 54.4915 120.096 55.7792 121.139 56.872C121.846 57.616 122.998 58.2848 124.673 58.2848C126.385 58.2848 127.537 57.616 128.244 56.872C129.284 55.7924 129.547 54.4915 129.547 52.3954C129.547 50.2992 129.287 49.0115 128.244 47.9187C127.537 47.1748 126.348 46.5059 124.673 46.5059ZM126.012 55.1722C125.678 55.5067 125.231 55.6923 124.673 55.6923C124.115 55.6923 123.668 55.508 123.334 55.1722C122.739 54.5771 122.665 53.5725 122.665 52.3809C122.665 51.1893 122.739 50.186 123.334 49.5896C123.668 49.2551 124.078 49.0695 124.673 49.0695C125.231 49.0695 125.678 49.2538 126.012 49.5896C126.607 50.1847 126.681 51.1893 126.681 52.3809C126.681 53.5725 126.607 54.5758 126.012 55.1722ZM143.084 46.6534L141.225 53.7568L138.881 46.6534H136.802L134.458 53.7568L132.599 46.6534H129.56L133.094 58.1479H135.438L137.855 50.9326L140.273 58.1479H142.617L146.112 46.6534H143.084ZM117.086 54.6851V42.1504H114.223V54.8325C114.223 56.4691 115.227 58.1058 117.57 58.1058H119.206V55.6949H118.105C117.398 55.6949 117.101 55.3605 117.101 54.6903L117.086 54.6851Z" fill="white"/>
</svg>
