<svg width="37" height="37" viewBox="0 0 37 37" fill="none" xmlns="http://www.w3.org/2000/svg">
<g id="Ease-of-use-icon">
<path id="Vector" d="M28.63 0H8.31C3.72 0 0 3.73 0 8.32V28.68C0 33.28 3.72 37 8.31 37H28.64C33.23 37 36.95 33.27 36.95 28.68V8.32C36.95 3.72 33.23 0 28.64 0H28.63Z" fill="#85E3BC"/>
<path id="Vector_2" fill-rule="evenodd" clip-rule="evenodd" d="M26.1719 10.8206C21.8019 6.45063 14.7219 6.46063 10.3519 10.8206C5.98188 15.1906 5.99188 22.2706 10.3519 26.6406C14.7219 31.0106 21.8019 31.0006 26.1719 26.6406C28.2719 24.5406 29.4419 21.7006 29.4419 18.7306C29.4419 15.7606 28.2719 12.9206 26.1619 10.8206H26.1719Z" fill="#ECF4F8"/>
<path id="Vector_3" fill-rule="evenodd" clip-rule="evenodd" d="M23.9313 20.7906C23.4613 21.8006 22.6913 22.6406 21.7213 23.2006C19.5813 24.4306 16.9413 24.4306 14.8013 23.2006C13.8313 22.6406 13.0613 21.8006 12.5913 20.7906C12.4113 20.3806 11.9213 20.1906 11.5113 20.3806C11.1013 20.5606 10.9113 21.0506 11.1013 21.4606C11.7113 22.7806 12.7113 23.8806 13.9613 24.6106C16.6213 26.1606 19.9013 26.1606 22.5613 24.6106C23.8113 23.8806 24.8113 22.7806 25.4213 21.4606C25.6013 21.0506 25.4213 20.5606 25.0113 20.3806C24.6013 20.2006 24.1113 20.3806 23.9313 20.7906Z" fill="#130C49"/>
<path id="Vector_4" fill-rule="evenodd" clip-rule="evenodd" d="M13.4416 16.0999C14.0416 16.0999 14.5316 15.6099 14.5316 15.0099C14.5316 14.4099 14.0416 13.9199 13.4416 13.9199C12.8416 13.9199 12.3516 14.4099 12.3516 15.0099C12.3516 15.6099 12.8416 16.0999 13.4416 16.0999Z" fill="#130C49"/>
<path id="Vector_5" fill-rule="evenodd" clip-rule="evenodd" d="M23.0783 16.0999C23.6783 16.0999 24.1683 15.6099 24.1683 15.0099C24.1683 14.4099 23.6783 13.9199 23.0783 13.9199C22.4783 13.9199 21.9883 14.4099 21.9883 15.0099C21.9883 15.6099 22.4783 16.0999 23.0783 16.0999Z" fill="#130C49"/>
</g>
</svg>
