<svg width="15" height="15" viewBox="0 0 15 15" fill="none" xmlns="http://www.w3.org/2000/svg">
<path id="Vector" d="M7.50613 10.8612L8.5347 8.54692L10.849 7.51839L8.5347 6.48986L7.50613 4.17555L6.47752 6.48986L4.16326 7.51839L6.47752 8.54692L7.50613 10.8612ZM1.29796 15C0.942854 15 0.636732 14.8776 0.379589 14.6205C0.134691 14.3756 0 14.0695 0 13.7021V1.29803C0 0.942929 0.122446 0.636806 0.379589 0.379664C0.624487 0.134766 0.930609 0 1.29796 0H13.702C14.0571 0 14.3633 0.122521 14.6204 0.379664C14.8653 0.624562 15 0.930684 15 1.29803V13.7021C15 14.0572 14.8776 14.3633 14.6204 14.6205C14.3633 14.8776 14.0694 15 13.702 15H1.29796ZM1.29796 14.2776H13.702C13.8367 14.2776 13.9714 14.2164 14.0939 14.1061C14.2163 13.9959 14.2653 13.8613 14.2653 13.7144V1.31029C14.2653 1.17559 14.2041 1.04082 14.0939 0.918367C13.9836 0.795918 13.849 0.746921 13.702 0.746921H1.29796C1.16326 0.746921 1.02856 0.808163 0.906111 0.918367C0.783662 1.02857 0.734664 1.16335 0.734664 1.31029V13.7144C0.734664 13.8491 0.795906 13.9837 0.906111 14.1061C1.01631 14.2286 1.15102 14.2776 1.29796 14.2776Z" fill="#00C342"/>
</svg>
