<svg width="37" height="37" viewBox="0 0 37 37" fill="none" xmlns="http://www.w3.org/2000/svg">
<g id="Financial Research-icon">
<path id="Vector" d="M28.63 0H8.31C3.72 0 0 3.73 0 8.32V28.68C0 33.28 3.72 37 8.31 37H28.64C33.23 37 36.95 33.27 36.95 28.68V8.32C36.95 3.72 33.23 0 28.64 0H28.63Z" fill="#85E3BC"/>
<path id="Vector_2" d="M16.4617 24.2L14.0817 30.16C9.38172 28.39 6.03172 23.85 6.01172 18.54L12.4317 18.5C12.4317 21.13 14.1117 23.36 16.4617 24.2Z" fill="#130C49"/>
<path id="Vector_3" d="M14.64 31.45L13.72 31.1C8.52 29.14 5.02 24.1 5 18.55V17.55L13.42 17.5V18.51C13.42 20.64 14.77 22.55 16.78 23.27L17.76 23.62L14.63 31.45H14.64ZM7.06 19.54C7.43 23.54 9.91 27.11 13.53 28.84L15.17 24.72C13.19 23.67 11.82 21.72 11.5 19.5L7.05 19.53L7.06 19.54Z" fill="#85E3BC"/>
<path id="Vector_4" d="M30.9303 18.5109C30.9303 25.3909 25.3503 30.9709 18.4603 30.9709C16.9103 30.9709 15.4303 30.6909 14.0703 30.1709L16.4503 24.2109C17.0803 24.4309 17.7603 24.5509 18.4603 24.5509C21.8103 24.5509 24.5103 21.8509 24.5103 18.5109C24.5103 16.4609 23.5003 14.6509 21.9503 13.5609L25.3903 8.13086C28.7403 10.3709 30.9403 14.1809 30.9403 18.5109H30.9303Z" fill="#130C49"/>
<path id="Vector_5" d="M18.4695 31.9707C16.8395 31.9707 15.2395 31.6807 13.7195 31.1007L12.7695 30.7407L15.8795 22.9407L16.7795 23.2607C17.3195 23.4507 17.8795 23.5407 18.4595 23.5407C21.2395 23.5407 23.5095 21.2807 23.5095 18.5007C23.5095 16.8507 22.7095 15.3107 21.3695 14.3707L20.5895 13.8207L25.0895 6.7207L25.9395 7.2907C29.6895 9.8007 31.9295 13.9907 31.9295 18.5007C31.9295 25.9207 25.8895 31.9607 18.4595 31.9607L18.4695 31.9707ZM15.3995 29.5507C16.3895 29.8307 17.4195 29.9707 18.4695 29.9707C24.7895 29.9707 29.9395 24.8307 29.9395 18.5107C29.9395 15.0107 28.3595 11.7407 25.6695 9.5707L23.2795 13.3407C24.6995 14.6607 25.5195 16.5307 25.5195 18.5007C25.5195 22.3807 22.3595 25.5407 18.4695 25.5407C17.9895 25.5407 17.5195 25.4907 17.0595 25.4007L15.3995 29.5407V29.5507Z" fill="#85E3BC"/>
<path id="Vector_6" d="M25.3914 8.12906L21.9514 13.5591C20.9814 12.8691 19.7914 12.4591 18.5114 12.4591L18.4414 6.03906H18.4714C21.0314 6.03906 23.4114 6.80906 25.3914 8.13906V8.12906Z" fill="#ECF4F8"/>
<path id="Vector_7" d="M22.2297 14.9793L21.3697 14.3693C20.5297 13.7693 19.5297 13.4593 18.4997 13.4493H17.5197L17.4297 5.0293H18.4397C21.1497 5.0293 23.7297 5.8093 25.9397 7.2993L26.7497 7.8393L22.2297 14.9793ZM19.4997 11.5293C20.2397 11.6393 20.9597 11.8593 21.6297 12.1993L23.9997 8.4593C22.5997 7.6793 21.0497 7.2193 19.4497 7.0793L19.4997 11.5293Z" fill="#85E3BC"/>
<path id="Vector_8" d="M18.5117 12.4493H18.4717C15.1317 12.4493 12.4317 15.1493 12.4317 18.4993L6.01172 18.5393V18.4993C6.01172 11.6193 11.5717 6.0493 18.4417 6.0293L18.5117 12.4493Z" fill="#ECF4F8"/>
<path id="Vector_9" d="M5.01172 19.5493V18.5393C5.01172 11.0893 11.0317 5.0493 18.4417 5.0293H19.4317L19.5217 13.4493H18.4717C15.6917 13.4493 13.4317 15.7193 13.4317 18.4993V19.4893L5.01172 19.5393V19.5493ZM17.4517 7.0793C11.9317 7.5693 7.51172 12.0093 7.05172 17.5393L11.5017 17.5093C11.9417 14.4093 14.4017 11.9493 17.5017 11.5193L17.4517 7.0793Z" fill="#85E3BC"/>
<path id="Vector_10" d="M18.4708 20.4201C19.5308 20.4201 20.3908 19.5601 20.3908 18.5001C20.3908 17.4401 19.5308 16.5801 18.4708 16.5801C17.4108 16.5801 16.5508 17.4401 16.5508 18.5001C16.5508 19.5601 17.4108 20.4201 18.4708 20.4201Z" fill="#ECF4F8"/>
</g>
</svg>
