<?xml version="1.0" encoding="UTF-8"?><svg id="Layer_2" xmlns="http://www.w3.org/2000/svg" viewBox="0 0 291.52 79.43"><defs><style>.cls-1{fill:#b22125;}.cls-1,.cls-2,.cls-3,.cls-4,.cls-5,.cls-6,.cls-7,.cls-8{stroke-width:0px;}.cls-2{fill:#fff;}.cls-3{fill:#e92333;}.cls-4{fill:#e82232;}.cls-5{fill:#e81f2f;}.cls-6{fill:#e82030;}.cls-7{fill:#e82130;}.cls-8{fill:#e82131;}</style></defs><g id="Layer_1-2"><path class="cls-7" d="m61.2,54.38c-2.46-1.41-4.93-2.82-7.39-4.24-4.6-2.65-9.2-5.31-13.8-7.95-.89-.51-1.79-1-2.69-1.51,0-5-.01-10.01-.02-15.01,0-.08-.06-.15-.09-.22-.07-.05-.13-.09-.2-.14.1-.15.24-.22.47-.2.06.03.18.07.28.13,12.32,7.11,24.63,14.21,36.95,21.32.01.14.02.26.03.38-.16,0-.33.02-.49.03-.41.3-.83.56-1.27.77-.44.21-.85.5-1.27.75-.36.2-.68.49-1.05.65-.91.41-1.69,1.03-2.59,1.44-.19.08-.36.2-.53.31-.56.34-1.09.74-1.68,1.02-.89.43-1.69,1.03-2.58,1.45-.18.09-.35.21-.53.32-.49.29-.96.64-1.55.72Z"/><path class="cls-6" d="m36.99.22c.13-.2.33-.26.54-.18.27.11.51.26.76.41,2.76,1.59,5.51,3.18,8.27,4.77,4.08,2.35,8.16,4.7,12.24,7.06,4.01,2.31,8.01,4.63,12.02,6.94.89.52,1.79,1.03,2.68,1.55.39.23.78.46,1.17.7-.07.09-.1.17-.16.21-4.39,2.55-8.79,5.1-13.21,7.66-.24-.12-.46-.21-.67-.33-7.08-4.09-14.16-8.19-21.25-12.27-.68-.39-1.33-.83-2.06-1.12,0-4.59,0-9.18,0-13.78,0-.37,0-.74,0-1.12,0-.12-.06-.23-.09-.33-.09-.06-.16-.1-.23-.15Z"/><path class="cls-1" d="m36.99.22c.07.04.14.09.23.15.03.1.08.21.09.33.01.37,0,.74,0,1.12,0,4.59,0,9.18,0,13.78-7.94,4.58-15.88,9.16-23.83,13.74-.85-.41-1.65-.92-2.49-1.36-.87-.46-1.66-1.07-2.59-1.43-1.13-.83-2.44-1.36-3.58-2.17-.92-.37-1.7-1.01-2.59-1.43-.22-.1-.41-.27-.63-.38-.51-.27-.96-.65-1.56-.71v-.39c1.25-.72,2.5-1.44,3.75-2.17,5.69-3.28,11.37-6.57,17.06-9.85,5.08-2.93,10.16-5.86,15.24-8.79.28-.16.59-.29.88-.43Z"/><path class="cls-1" d="m37.32,65.76c-3,1.74-6,3.48-9.01,5.22-4.72,2.73-9.44,5.45-14.17,8.17-.18.1-.36.2-.47.27-.3.06-.47-.05-.65-.16-4.08-2.35-8.16-4.7-12.23-7.06-.24-.14-.54-.23-.67-.58.2-.12.4-.25.6-.37,7.12-4.11,14.23-8.22,21.35-12.33,4.58-2.64,9.16-5.29,13.74-7.93.39-.22.75-.51,1.21-.61.16.08.27.19.28.37.01.37.01.74.01,1.12,0,4.63,0,9.26,0,13.89Z"/><path class="cls-2" d="m213.1,71.43c-.08.03-.15.08-.23.08-1.53,0-3.06.01-4.59.01-.16,0-.32-.03-.44-.04-.26-.2-.32-.43-.4-.67-.91-2.83-1.83-5.65-2.75-8.48-.5-1.53-1-3.06-1.5-4.59-.05-.16-.12-.31-.31-.34-.03.01-.07.02-.09.04-.03.03-.06.06-.07.1-1.54,4.58-3.07,9.16-4.61,13.74-.01.04-.05.06-.11.13-.07.03-.19.1-.3.1-1.57,0-3.14,0-4.72,0-.12,0-.24-.05-.34-.07-.21-.2-.27-.44-.35-.67-.91-2.78-1.82-5.57-2.73-8.35-1.02-3.1-2.04-6.19-3.06-9.29-.3-.9-.59-1.8-.88-2.71-.06-.19-.11-.4.02-.6.03-.02.07-.04.11-.06.04-.02.08-.04.11-.04,1.45,0,2.9-.01,4.34-.01.12,0,.24.03.33.05.27.17.32.42.39.65.57,1.77,1.13,3.53,1.7,5.3.89,2.79,1.77,5.58,2.66,8.37.06.18.12.38.36.42.21-.27.29-.59.39-.9,1.48-4.42,2.96-8.84,4.44-13.26.07-.2.13-.39.3-.53.79-.14,2.78-.16,4.44-.05.25.12.31.38.39.6.56,1.69,1.1,3.38,1.64,5.06.76,2.35,1.53,4.71,2.29,7.06.24.74.41,1.5.73,2.25.12-.1.25-.16.29-.26.19-.5.35-1.01.52-1.52,1.36-4.16,2.72-8.32,4.08-12.47.08-.23.19-.45.28-.65.11-.04.18-.1.26-.1,1.41,0,2.81,0,4.22,0,.08,0,.15.06.23.09.07.34-.09.64-.19.94-.54,1.69-1.1,3.37-1.66,5.06-1.57,4.78-3.13,9.57-4.71,14.35-.14.43-.19.89-.51,1.25Z"/><path class="cls-6" d="m37.32,65.76c0-4.63,0-9.26,0-13.89,0-.37,0-.74-.01-1.12,0-.18-.12-.29-.28-.37.09-.07.18-.15.24-.19.33-.05.52.14.73.25,1.61.92,3.22,1.85,4.83,2.78,4.68,2.7,9.36,5.41,14.04,8.11,1.43.82,2.86,1.64,4.29,2.46v15.6c-.32-.16-.66-.3-.98-.49-7.11-4.11-14.21-8.22-21.32-12.32-.5-.29-1.02-.55-1.52-.82Z"/><path class="cls-1" d="m37.01,25.3c.07.05.13.09.2.14.03.07.09.15.09.22.01,5,.02,10.01.02,15.01-4.29,2.48-8.58,4.96-12.87,7.44-3.43,1.98-6.87,3.96-10.31,5.94-.21.12-.39.32-.67.25,0-4.75,0-9.51,0-14.26,0-.45.02-.91.03-1.36.23-.1.46-.18.67-.3,4.39-2.53,8.78-5.07,13.17-7.6,2.93-1.69,5.85-3.38,8.78-5.06.28-.16.54-.39.88-.43Z"/><path class="cls-1" d="m61.16,79.39c0-5.2,0-10.4,0-15.6.02-.2.07-.41.07-.61,0-2.93,0-5.87-.01-8.8.59-.09,1.05-.43,1.55-.72.18-.1.34-.23.53-.32.9-.42,1.69-1.01,2.58-1.45.59-.29,1.12-.68,1.68-1.02.17-.11.35-.22.53-.31.9-.41,1.68-1.03,2.59-1.44.37-.16.69-.45,1.05-.65.43-.24.83-.54,1.27-.75.45-.21.87-.47,1.27-.77.16,0,.32-.02.49-.03.02.29.05.58.05.86,0,7.74,0,15.47,0,23.21v.53c-.17.32-.4.41-.61.54-2.54,1.47-5.08,2.94-7.62,4.4-1.65.95-3.29,1.9-4.94,2.85-.15.09-.3.13-.46.06Z"/><path class="cls-5" d="m13.51,38.69c-.01.45-.03.91-.03,1.36,0,4.75,0,9.51,0,14.26-.31,0-.53-.2-.77-.34-2.93-1.69-5.87-3.38-8.8-5.07-1.11-.64-2.21-1.28-3.32-1.93-.18-.1-.34-.22-.54-.35-.02-.21-.05-.41-.05-.61,0-7.81,0-15.62,0-23.43,0-.25.04-.49.06-.74.6.06,1.05.44,1.56.71.22.11.41.28.63.38.9.42,1.67,1.06,2.59,1.43,1.14.81,2.45,1.34,3.58,2.17.93.36,1.72.97,2.59,1.43.83.44,1.64.95,2.49,1.36,0,3.12,0,6.24.01,9.36Z"/><path class="cls-4" d="m278.62,33.03c2.63-4.38,5.22-8.8,7.78-13.09.28-.22.49-.2.69-.2.95,0,1.9,0,2.85,0,.2,0,.42-.02.6.13.16.21.11.47.11.71,0,2.36,0,4.71.01,7.07.02,4.34.05,8.68.08,13.02,0,.24.04.49-.07.71-.09.05-.16.12-.24.12-1.46.07-3.51.04-4.32-.06-.14-.12-.16-.28-.16-.45,0-1.65,0-3.31-.01-4.96,0-2.07,0-4.13-.02-6.2,0-.23.07-.48-.08-.7-.14-.03-.25.04-.31.14-.22.35-.43.7-.64,1.06-1.67,2.8-3.34,5.61-5,8.41-.08.14-.18.28-.29.44-.73.14-1.47.04-2.19.06-.36-.23-.5-.58-.69-.89-1.74-2.86-3.48-5.72-5.21-8.58-.1-.17-.17-.38-.46-.39-.15.34-.07.7-.08,1.06-.01.37,0,.74,0,1.12,0,.33,0,.66,0,.99v6.57c0,.37,0,.74,0,1.12,0,.37.02.74-.03,1.11-.14.06-.24.16-.35.16-1.32.01-2.65.01-3.97,0-.11,0-.23-.06-.32-.09-.04-.06-.07-.1-.08-.13-.02-.24-.05-.49-.05-.73-.07-9.4-.04-19.4.06-20.61.09-.05.19-.17.29-.17,1.2-.01,2.4,0,3.59,0,.08,0,.16.05.3.1.24.37.51.78.77,1.2,2.28,3.79,4.56,7.58,6.84,11.36.11.18.23.34.36.5.05.05.14.06.26.1Z"/><path class="cls-2" d="m127.18,49.42c2.27-.04,4.33.46,6.26,1.51,2.67,1.46,4.43,3.67,5.3,6.58.31,1.03.4,2.1.41,3.18,0,1.43-.24,2.79-.74,4.12-.73,1.95-1.96,3.51-3.62,4.77-1.38,1.05-2.93,1.72-4.59,2.07-1.62.35-3.27.52-4.92.15-.92-.03-1.79-.32-2.64-.63-2.64-.94-4.67-2.63-6.02-5.08-.83-1.5-1.27-3.12-1.32-4.85-.04-1.54.14-3.04.68-4.5.92-2.52,2.56-4.41,4.88-5.72,1.98-1.12,4.12-1.66,6.33-1.59Zm6.79,11.54c0-1.55-.06-1.89-.45-3-1.03-2.92-3.8-4.29-6.61-4.26-.45,0-.91.1-1.34.21-1.57.4-2.9,1.17-3.85,2.53-.78,1.11-1.2,2.34-1.24,3.7-.02.74-.07,1.5.11,2.22.64,2.51,2.14,4.23,4.68,4.99.85.26,1.71.21,2.58.22.55,0,1.07-.11,1.58-.29,1.77-.6,3.09-1.72,3.9-3.41.48-.99.71-2.02.65-2.92Z"/><path class="cls-2" d="m264.48,64.74c.48.77,1,1.51,1.53,2.25.51.7.97,1.44,1.48,2.14.53.73,1.03,1.47,1.52,2.2-.1.1-.13.14-.16.14-.7.09-3.91.09-5.07,0-.2-.08-.31-.27-.42-.43-1.18-1.7-2.35-3.4-3.53-5.09-.09-.13-.21-.25-.3-.35-.8-.07-3.59-.1-4.25-.04-.07,0-.14.07-.22.1-.16.16-.17.37-.17.58,0,1.28,0,2.56,0,3.85,0,.41,0,.83,0,1.25-.13.07-.24.17-.34.17-1.49.01-2.98,0-4.42,0-.19-.13-.24-.27-.24-.45,0-.29,0-.58,0-.87,0-6.37,0-12.74,0-19.11,0-.41-.08-.82.1-1.23.12-.04.23-.1.34-.11.37-.02.74-.01,1.12-.01,2.32,0,4.63.02,6.95,0,1.12-.02,2.23.07,3.33.24,1.79.27,3.42.94,4.78,2.17.95.85,1.59,1.92,1.93,3.13.51,1.79.47,3.59-.18,5.36-.5,1.37-1.4,2.42-2.6,3.22-.31.21-.64.38-.95.59-.09.06-.14.19-.24.31Zm-9.51-3.37c.19.06.35.14.5.14,1.28.01,2.56.05,3.84,0,.73-.03,1.48-.14,2.17-.43,1.29-.55,2.05-1.49,2.12-2.92.02-.37,0-.74-.01-1.11-.07-1.24-.77-2.07-1.83-2.6-.7-.35-1.47-.54-2.27-.54-1.36,0-2.72,0-4.09,0-.17,0-.33.02-.43.18-.09.97-.1,6.06,0,7.28Z"/><path class="cls-8" d="m143.82,35.57c-.98-.09-3.46-.1-4.48-.01-.15.11-.17.27-.17.44,0,1.41,0,2.81,0,4.22,0,.37-.01.74-.02,1.12-.13.06-.23.15-.34.15-1.49,0-2.98,0-4.42,0-.19-.13-.24-.27-.24-.45,0-.21,0-.41,0-.62,0-6.53,0-13.06,0-19.6,0-.32-.05-.66.08-.95.28-.21.58-.14.86-.14,2.27,0,4.55,0,6.82,0,1.16,0,2.32.02,3.47.14,1.45.16,2.84.55,4.1,1.3,2.09,1.26,3.25,3.13,3.51,5.54.16,1.5-.02,2.97-.69,4.35-.57,1.19-1.41,2.13-2.52,2.83-.35.22-.73.38-1.01.65-.04.36.19.56.35.79.68.99,1.37,1.97,2.06,2.95.64.91,1.28,1.83,1.92,2.74.07.1.1.22.14.31-.04.05-.06.1-.09.1-.69.09-3.8.1-5.07.02-.21-.07-.31-.26-.43-.43-1.11-1.59-2.21-3.19-3.32-4.79-.16-.24-.34-.46-.5-.67Zm-4.42-4.09c1.22,0,2.46-.02,3.69,0,.67.02,1.32-.09,1.96-.23,1.29-.29,2.25-1.01,2.67-2.31.18-.56.17-1.14.14-1.72-.08-1.37-.76-2.33-2-2.88-.72-.32-1.49-.48-2.28-.48-1.32,0-2.64,0-3.96,0-.11,0-.23.06-.32.08-.05.11-.11.18-.11.25,0,2.35.02,4.7.03,7.05,0,.03.05.06.18.22Z"/><path class="cls-2" d="m291.01,49.84c.12,1.07.11,2.96-.01,3.9-.1.04-.2.12-.31.12-.37.02-.74.01-1.12.01-2.94,0-5.87,0-8.81,0-.32,0-.65-.02-.92.04-.08.14-.15.21-.15.28,0,1.32,0,2.64,0,3.96,0,.07.08.14.12.22.34.16.72.09,1.08.1,2.48,0,4.96,0,7.44,0,.33,0,.66,0,.99.02.11,0,.22.09.32.13.16.72.19,2.32.06,3.7-.13.21-.35.2-.55.2-2.15,0-4.3,0-6.45,0-.95,0-1.9,0-2.81,0-.1.1-.2.16-.2.23-.07.75-.06,3.7,0,4.57.11.15.26.19.44.19,1.24,0,2.48,0,3.72,0,2.15,0,4.3,0,6.45,0,.33,0,.66.01.91.02.24.13.28.29.28.45,0,1.03,0,2.07,0,3.1,0,.12-.05.24-.08.36-.12.05-.23.13-.34.15-.25.03-.5.02-.74.02-4.88,0-9.76,0-14.64,0-.25,0-.5,0-.74-.03-.12-.01-.23-.09-.33-.13-.04-.09-.09-.17-.09-.25,0-6.99,0-13.97,0-20.96,0-.12.04-.24.06-.37.11-.05.22-.13.33-.14.29-.02.58-.01.87-.01,4.67,0,9.35,0,14.02,0,.37,0,.74-.06,1.18.11Z"/><path class="cls-8" d="m250.36,37.42c.55.11.96.07,1.37.07.46,0,.91,0,1.37,0h6.33c.46,0,.91,0,1.37,0,.41,0,.82.01,1.25.02.06.12.16.23.16.33.01,1.08.01,2.15,0,3.23,0,.12-.07.23-.1.33-.1.04-.17.09-.25.1-1.08.06-15.65.01-16.38-.05-.16-.1-.19-.26-.19-.43,0-.21,0-.41,0-.62,0-6.5,0-12.99,0-19.49,0-.33-.06-.66.07-.97.12-.15.27-.2.44-.2.25,0,.5,0,.74,0,4.68,0,9.35,0,14.03,0,.36,0,.74-.08,1.08.09.05.09.11.16.12.23.03,1.2.04,2.39,0,3.54-.13.2-.29.23-.46.23-1.12,0-2.23,0-3.35,0-2.28,0-4.55,0-6.83,0-.24,0-.5-.07-.7.13-.12,1.02-.11,3.47,0,4.42.16.18.38.14.58.14,1.86,0,3.72,0,5.59,0,.99,0,1.99,0,2.98,0,.25,0,.49.03.77.04.22.96.06,1.91.1,2.85.01.32.07.67-.2,1.01-.77.1-1.6.03-2.42.04-.83.01-1.66,0-2.48,0s-1.57,0-2.36,0c-.82,0-1.65-.01-2.42.01-.09.12-.18.18-.19.25-.06,1.53-.02,3.05-.03,4.67Z"/><path class="cls-3" d="m236.02,36.65v-6.15c.14-.07.24-.17.35-.17,1.32-.01,2.65,0,3.97,0,.07,0,.15.06.22.09.04.07.11.14.11.21,0,2.81,0,5.62,0,8.38-.13.3-.34.43-.55.56-1.8,1.15-3.76,1.87-5.87,2.18-.82.12-1.64.2-2.47.2-1.59,0-3.13-.27-4.61-.84-3.61-1.39-5.97-3.93-6.89-7.71-.65-2.66-.39-5.26.8-7.73,1.2-2.5,3.14-4.23,5.68-5.28,2.43-1,4.95-1.22,7.54-.81,1.87.29,3.6.92,5.12,2.06.49.37.93.81,1.39,1.24.08.08.11.21.16.32-.75.82-2.32,2.28-3.1,2.88-.35-.07-.53-.37-.78-.58-.87-.73-1.83-1.26-2.94-1.53-.77-.19-1.55-.22-2.34-.2-.79.03-1.57.13-2.31.4-1.99.73-3.35,2.07-4.01,4.1-.53,1.62-.53,3.25.02,4.87.74,2.16,2.23,3.54,4.41,4.16,1.84.52,3.68.43,5.47-.29.19-.08.36-.19.64-.33Z"/><path class="cls-4" d="m200.2,41.41c-.17.04-.29.09-.4.09-1.49,0-2.98,0-4.47-.01-.07,0-.15-.06-.22-.1,0-.08,0-.17.03-.24,3.12-7.02,6.25-14.04,9.38-21.06.03-.07.09-.14.15-.2.03-.03.07-.05.1-.08.89-.11,3.82-.12,4.81,0,.03.03.07.05.09.08.05.06.12.12.15.19,3.12,6.98,6.24,13.95,9.35,20.93.05.11.07.23.1.34-.04.04-.07.08-.1.08-1.44.15-2.89.04-4.33.07-.24,0-.5.05-.8-.15-.34-.66-.6-1.44-.93-2.2-.31-.71-.57-1.46-.95-2.14-.14-.04-.26-.1-.38-.1-3.06,0-6.12,0-9.19,0-.16,0-.32.04-.47.06-.35.46-.47.99-.69,1.48-.22.49-.42.99-.63,1.48-.21.49-.41.99-.61,1.46Zm10.18-8.44c.07-.28-.02-.47-.1-.66-.6-1.45-1.2-2.89-1.8-4.34-.36-.88-.72-1.76-1.09-2.63-.06-.14-.15-.3-.4-.18-.09.19-.2.41-.29.64-.52,1.26-1.03,2.52-1.55,3.77-.42,1.03-.85,2.06-1.27,3.09-.04.11-.1.22.02.32,1.09.08,5.35.08,6.49,0Z"/><path class="cls-2" d="m231.12,49.8c1.08-.09,3.7-.09,4.74,0,.2.1.3.27.39.47.52,1.17,1.06,2.33,1.58,3.5.44.98.86,1.97,1.3,2.94.91,2.03,1.84,4.06,2.75,6.09,1.19,2.67,2.37,5.35,3.56,8.03.08.18.22.36.17.58-.03.02-.06.07-.09.07-.33.03-.65.07-.98.07-1.36-.02-2.72.06-4.08-.04-.41-.76-.65-1.55-1-2.29-.33-.7-.53-1.47-.89-2.04-.28-.21-.49-.2-.7-.2-4.65-.09-8.54-.04-9.43.11-.24.32-.33.73-.5,1.1-.17.37-.31.76-.47,1.14-.14.34-.29.68-.44,1.02-.16.38-.27.78-.56,1.13-.14.02-.3.06-.46.06-1.48-.03-2.97.08-4.45-.06-.04,0-.07-.04-.1-.06,0-.08,0-.17.02-.24,3.14-7.04,6.28-14.09,9.43-21.13.03-.07.11-.12.22-.25Zm-.81,13.17c.08.03.15.09.23.09,1.98,0,3.96,0,5.94,0,.08,0,.15-.06.22-.08.1-.21.03-.41-.05-.6-.74-1.79-1.47-3.58-2.21-5.36-.25-.61-.51-1.22-.78-1.82-.04-.1-.17-.16-.3-.11-.54,1.29-1.07,2.58-1.61,3.87-.46,1.1-.92,2.2-1.38,3.3-.09.23-.18.46-.06.71Z"/><path class="cls-4" d="m163.83,19.82c.71-.09,3.8-.13,4.63-.07.12,0,.23.07.37.12.08.14.17.27.24.42,3.1,6.94,6.19,13.88,9.29,20.83.02.04.01.08.01.12,0,.04,0,.08,0,.12-.03.02-.06.06-.09.07-.67.1-3.78.11-4.95,0-.2-.1-.26-.31-.33-.49-.46-1.11-.91-2.22-1.36-3.33-.08-.19-.18-.37-.28-.59-.14-.04-.29-.11-.45-.11-3.1,0-6.21,0-9.31,0-.08,0-.16.04-.3.08-.37.35-.44.91-.66,1.39-.23.48-.42.99-.62,1.49-.21.49-.41.99-.59,1.42-.18.17-.33.21-.5.21-1.41,0-2.81,0-4.22,0-.12,0-.24-.05-.34-.08-.08-.18-.04-.34.03-.49.33-.76.67-1.51,1-2.27,2.17-4.86,4.35-9.73,6.53-14.59.52-1.17,1.03-2.34,1.56-3.51.12-.26.26-.51.38-.74Zm2.47,5.17c-.06.06-.15.1-.17.17-1.04,2.5-2.08,5.01-3.12,7.52-.03.07,0,.16,0,.24.08.03.15.1.22.1,2.1-.01,4.2.08,6.3-.05.03,0,.05-.04.08-.07-.34-1.09-1.68-4.38-3.05-7.53-.06-.14-.08-.31-.25-.38Z"/><path class="cls-3" d="m93.72,39.29c.48-1.18,1.01-2.37,1.6-3.49.25-.09.38,0,.53.09,1.03.62,2.12,1.1,3.27,1.45,1.61.48,3.25.58,4.91.4.7-.07,1.38-.26,1.96-.71.54-.41.77-.96.73-1.62-.02-.38-.16-.72-.43-1-.38-.4-.85-.67-1.35-.85-.58-.21-1.18-.37-1.78-.53-1.04-.27-2.08-.51-3.13-.76-.8-.2-1.58-.48-2.33-.81-.87-.39-1.67-.9-2.31-1.63-.65-.73-1.04-1.58-1.19-2.54-.15-.95-.11-1.89.14-2.82.37-1.37,1.17-2.45,2.31-3.28,1.05-.77,2.24-1.24,3.5-1.5,2.77-.56,5.51-.38,8.2.47.75.23,1.47.55,2.15.95.1.06.19.15.28.22-.16.71-.81,2.42-1.32,3.47-.05.1-.16.18-.25.29-.38-.18-.75-.36-1.12-.53-1.96-.9-4.01-1.24-6.16-.99-.58.07-1.13.23-1.64.52-.49.27-.84.67-1.02,1.2-.22.64-.11,1.22.35,1.73.34.38.78.61,1.24.8.85.34,1.73.53,2.61.75,1,.25,2,.49,3,.75.84.22,1.64.55,2.41.96.55.3,1.06.66,1.49,1.1.88.89,1.34,1.98,1.43,3.21.19,2.55-.88,4.48-3.01,5.85-1.02.65-2.16,1.03-3.34,1.25-2.95.54-5.84.22-8.68-.7-.83-.27-1.61-.65-2.36-1.08-.24-.14-.52-.27-.67-.61Z"/><path class="cls-2" d="m93.26,69.31c.54-1.16,1.07-2.32,1.61-3.47.03-.06.13-.09.21-.15.24.14.49.29.74.44,1.14.68,2.39,1.12,3.68,1.43,1.14.27,2.29.29,3.45.27.59-.01,1.15-.16,1.7-.31.48-.13.91-.4,1.23-.79.71-.87.59-1.84-.25-2.5-.35-.28-.78-.47-1.2-.64-.5-.2-1.01-.35-1.53-.49-.8-.2-1.61-.36-2.41-.56-1.2-.3-2.4-.63-3.5-1.2-.44-.23-.87-.48-1.27-.77-1.27-.94-1.92-2.23-2.03-3.8-.11-1.59.26-3.02,1.23-4.31.8-1.06,1.85-1.76,3.06-2.23,1.28-.49,2.61-.79,3.98-.79.74,0,1.49-.04,2.23.02,2.12.17,4.15.66,5.96,1.7.14.19.21.35.14.51-.45,1.11-.9,2.21-1.36,3.31-.01.03-.06.05-.12.1-.1-.02-.22-.01-.33-.06-.64-.28-1.26-.61-1.92-.86-1.7-.64-3.47-.74-5.25-.52-.96.12-1.84.47-2.39,1.39-.18.55-.25,1.12,0,1.68.26.57.81.79,1.33,1.05.64.31,1.32.46,2,.63,1,.25,2,.49,3,.73.96.24,1.91.54,2.79.99.4.21.79.45,1.16.7,1.36.93,2.03,2.24,2.1,3.87.01.25,0,.5,0,.74-.03,1.96-.89,3.48-2.43,4.65-1.25.94-2.68,1.42-4.21,1.69-1.07.19-2.14.24-3.21.2-2.16-.09-4.25-.53-6.25-1.37-.61-.26-1.18-.59-1.72-.97-.09-.07-.15-.18-.25-.31Z"/><path class="cls-2" d="m159.92,63.38c-.12.22-.28.29-.44.3-.33.02-.66.02-.99.02-2.4,0-4.8,0-7.19,0-.41,0-.82.02-1.16.02-.23.13-.29.28-.29.45,0,.37-.01.74-.01,1.12,0,1.69,0,3.39,0,5.08,0,.33-.02.65-.02.95-.1.08-.16.17-.23.18-.83.07-3.73.05-4.6-.03-.04-.09-.13-.2-.13-.3-.02-.33-.02-.66-.02-.99,0-6.36,0-12.73,0-19.09,0-.4-.08-.82.1-1.23.12-.04.23-.1.34-.11.25-.02.5-.01.74-.01,4.71,0,9.43,0,14.14,0h.78c.24.14.31.28.31.46,0,1.07,0,2.15,0,3.22,0,.12.02.26-.08.3-.25.21-.51.16-.75.16-2.23,0-4.47,0-6.7,0-.99,0-1.98,0-2.98,0-.24,0-.49.02-.71.03-.08.1-.17.16-.17.23,0,1.73,0,3.47,0,5.2,0,.03.04.07.06.1.12.15.29.15.45.15.99,0,1.98,0,2.98,0,1.86,0,3.72,0,5.58,0,.28,0,.57.03.83.04.07.1.16.17.16.24.02,1.03.03,2.07.03,3.1,0,.16-.02.33-.03.42Z"/><path class="cls-2" d="m183.07,49.74c.08.24.17.39.17.54,0,1.12,0,2.23-.02,3.35,0,.03-.04.07-.09.14-.12.16-.34.12-.54.12-1.57,0-3.14,0-4.71,0-.37,0-.74,0-1.12.01-.12,0-.23.06-.37.09-.04.12-.1.23-.11.34-.02.37-.01.74-.01,1.12,0,4.96,0,9.92,0,14.87,0,.36.09.74-.11,1.08-.04.03-.08.06-.11.07-.12.02-.24.05-.36.05-1.44,0-2.89,0-4.26,0-.22-.15-.26-.31-.26-.48,0-.37,0-.74,0-1.12,0-4.88,0-9.75,0-14.63,0-.41-.01-.82-.02-1.17-.19-.25-.4-.24-.6-.24-1.74,0-3.47,0-5.21,0-.32,0-.66.07-.96-.08-.05-.08-.13-.14-.13-.21-.02-1.07-.02-2.15-.03-3.22,0-.16.03-.33.05-.5.12-.05.23-.13.34-.14.29-.02.58-.02.87-.02,5.5,0,10.99,0,16.49,0,.33,0,.66,0,1.1,0Z"/><path class="cls-6" d="m184.11,24.05c-.26-.23-.52-.17-.76-.17-1.65,0-3.31,0-4.96,0-.33,0-.66-.02-.99-.03-.06-.13-.15-.24-.15-.35-.01-1.12-.01-2.23,0-3.35,0-.08.06-.15.1-.25.09-.04.2-.13.31-.14.29-.02.58-.02.87-.02,5.46,0,10.92,0,16.38,0,.41,0,.83-.09,1.21.12.19.68.22,1.45.11,3.8-.1.16-.25.21-.42.21-1.7,0-3.39,0-5.09,0-.41,0-.82.01-1.16.02-.23.14-.25.3-.25.46,0,.37,0,.74,0,1.12,0,4.88,0,9.76,0,14.64,0,.41.02.82-.03,1.19-.11.08-.17.17-.24.17-1.53,0-3.05,0-4.58,0-.04,0-.08-.03-.14-.05-.03-.1-.1-.21-.11-.33-.02-.37-.01-.74-.01-1.12,0-4.92,0-9.84,0-14.76,0-.41.05-.82-.06-1.16Z"/><path class="cls-6" d="m124.48,24.06v17.24c-.13.07-.23.18-.33.18-1.49,0-2.98,0-4.46,0-.03,0-.06-.05-.14-.11-.02-.06-.08-.17-.08-.29-.01-.37,0-.74,0-1.12,0-4.84,0-9.67,0-14.51,0-.37,0-.74-.01-1.12,0-.12-.07-.23-.1-.31-.24-.2-.5-.15-.74-.15-1.78,0-3.56,0-5.33,0-.24,0-.5.06-.72-.1-.15-.71-.18-2.43-.06-3.8.1-.15.25-.22.42-.22.29,0,.58,0,.87,0,5.42,0,10.83,0,16.25,0,.29,0,.58,0,.87.01.16.01.31.08.45.12.12.94.12,2.81,0,3.85-.15.19-.37.15-.57.15-1.78,0-3.56,0-5.33,0-.28,0-.58-.07-.97.18Z"/></g></svg>