<svg width="221" height="24" viewBox="0 0 221 24" fill="none" xmlns="http://www.w3.org/2000/svg">
<g id="instabase 1" clip-path="url(#clip0_6117_648)">
<path id="Vector" d="M139.062 2.54915C139.21 2.44448 139.374 2.49444 139.526 2.49444C143.825 2.49206 148.124 2.46589 152.42 2.4992C156.559 2.5325 158.855 6.80025 157.102 10.1973C156.766 10.8491 156.302 11.4129 155.734 11.9101C156.569 12.5477 157.29 13.2328 157.715 14.182C158.943 16.9201 157.668 20.0936 155.013 21.1997C154.321 21.4876 153.617 21.6375 152.882 21.6398C148.385 21.647 143.889 21.6446 139.393 21.6446H139.062V2.55153V2.54915ZM140.958 19.7439H143.128C146.332 19.7439 149.539 19.7486 152.744 19.7439C154.307 19.7415 155.572 18.8922 156.041 17.61C156.945 15.1335 154.973 12.9854 152.763 13.0211C148.985 13.0829 145.205 13.0377 141.425 13.0401C141.275 13.0401 141.111 12.9854 140.954 13.1043V19.7439H140.958ZM140.954 11.0632C141.049 11.0918 141.085 11.1108 141.12 11.1108C144.903 11.1108 148.688 11.1394 152.47 11.1013C153.857 11.087 154.932 10.4257 155.494 9.1173C156.041 7.84459 155.841 6.64324 154.961 5.57749C154.211 4.67113 153.177 4.3928 152.051 4.39042C148.485 4.38328 144.919 4.38804 141.356 4.39042C141.225 4.39042 141.077 4.33809 140.954 4.47844V11.0609V11.0632Z" fill="white"/>
<path id="Vector_2" d="M219.975 2.53516V4.39308H203.725V11.1087H219.002V13.0261H203.722V19.737H220.924V21.6163H201.826V2.53516H219.975Z" fill="white"/>
<path id="Vector_3" d="M78.2414 21.6155H76.3478C71.2546 16.2035 66.1828 10.8129 61.1133 5.42232L61.0015 5.45324V21.6107H59.127V2.53909C59.7502 2.43442 60.3783 2.5272 60.9849 2.48438C66.0948 7.91541 71.1832 13.3274 76.3573 18.8298V2.52006H78.2414V21.6155Z" fill="white"/>
<path id="Vector_4" d="M80.8062 15.4249H82.6665C82.7498 15.4868 82.7783 15.5581 82.7855 15.639C82.9924 17.8609 84.2604 19.1955 86.3229 19.883C87.598 20.3088 88.9135 20.4063 90.241 20.4111C91.6873 20.4182 93.1218 20.2993 94.4921 19.7997C95.5435 19.4167 96.3976 18.803 96.8829 17.742C97.4847 16.4288 97.0089 14.923 95.7362 14.2355C94.7181 13.6859 93.6119 13.3886 92.489 13.1555C90.7477 12.7939 89.0016 12.4489 87.2554 12.1064C86.0874 11.878 84.9574 11.5259 83.8798 11.0335C81.9886 10.1699 81.2844 8.47615 81.6888 6.49215C82.0028 4.94586 82.9615 3.87536 84.3627 3.16407C86.4966 2.08166 88.7803 1.93417 91.1045 2.07691C92.4319 2.15779 93.7189 2.4385 94.9345 3.00468C96.9138 3.92531 98.0985 5.47874 98.5885 7.57693C98.7122 8.10742 98.8003 8.64981 98.7384 9.23027H96.8805C96.771 8.69501 96.6878 8.13597 96.5355 7.59596C96.0027 5.70235 94.6729 4.61757 92.8221 4.1632C90.4503 3.58037 88.0881 3.70407 85.771 4.47484C84.6981 4.83167 83.9845 5.55248 83.6276 6.64916C83.2898 7.6816 83.8703 9.00427 84.8765 9.48719C85.6854 9.87733 86.5299 10.1295 87.4029 10.3103C89.6629 10.7837 91.9276 11.2452 94.1876 11.7186C95.2557 11.9422 96.2596 12.3371 97.185 12.9199C98.7051 13.8786 99.2332 15.2917 99.0643 17.0259C98.8193 19.5285 97.1588 20.9654 94.8203 21.5815C91.88 22.357 88.9159 22.3309 85.9803 21.5316C83.944 20.9773 82.2621 19.9258 81.3248 17.9299C81.0322 17.3066 80.7896 16.2242 80.7991 15.4273L80.8062 15.4249Z" fill="white"/>
<path id="Vector_5" d="M198.022 9.23801H196.166C195.993 8.90972 196.019 8.52909 195.948 8.16988C195.505 5.93133 194.102 4.63483 191.925 4.12099C189.66 3.58573 187.41 3.73323 185.202 4.39932C184.056 4.74426 183.197 5.4722 182.88 6.7021C182.604 7.77974 183.075 8.86928 184.041 9.42118C185.019 9.98022 186.108 10.1919 187.189 10.4179C189.313 10.8652 191.449 11.2672 193.569 11.7406C194.844 12.0261 196.048 12.5019 197.059 13.3844C197.917 14.1338 198.308 15.0853 198.343 16.1939C198.424 18.5324 197.308 20.338 195.022 21.2467C193.145 21.9913 191.204 22.1174 189.22 22.0841C187.724 22.0603 186.261 21.8795 184.843 21.4085C183.692 21.0255 182.633 20.4855 181.762 19.61C180.613 18.4586 180.14 17.0479 180.035 15.4374H182.005C182.107 15.8228 182.095 16.1963 182.193 16.5579C182.626 18.1541 183.694 19.1485 185.183 19.7409C186.644 20.3213 188.183 20.4212 189.732 20.4093C191.18 20.3974 192.617 20.2761 193.968 19.7076C194.975 19.2865 195.812 18.6656 196.202 17.5665C196.678 16.2153 196.238 14.8594 194.891 14.179C193.821 13.639 192.677 13.3416 191.516 13.1013C189.831 12.754 188.145 12.421 186.458 12.0903C185.366 11.8762 184.312 11.5384 183.292 11.1102C180.347 9.87793 180.335 6.62835 181.734 4.72047C182.733 3.35736 184.203 2.72457 185.79 2.37725C187.978 1.89909 190.184 1.86103 192.377 2.37487C194.218 2.80783 195.819 3.64521 196.88 5.27C197.649 6.44517 198.041 7.75595 198.024 9.23325L198.022 9.23801Z" fill="white"/>
<path id="Vector_6" d="M10.3853 23.4834H0.222656V13.3184H10.3853V23.4834Z" fill="#8362AC"/>
<path id="Vector_7" d="M45.6628 4.4071H37.0702C37.0107 3.76242 37.0369 3.15818 37.0535 2.52539H56.2037V4.36904H47.642V19.7367H56.2037V21.5947H37.0726V19.7367H45.6652V4.4071H45.6628Z" fill="white"/>
<path id="Vector_8" d="M178.638 21.6217H176.575C175.807 19.7043 175.036 17.7821 174.251 15.8243H163.927C163.168 17.7179 162.392 19.6496 161.607 21.605H159.545C162.09 15.2224 164.619 8.88505 167.157 2.52148H171.021C173.54 8.83747 176.076 15.1915 178.638 21.6193V21.6217ZM168.463 4.41985C167.207 7.57189 165.958 10.7025 164.702 13.8546H173.488C172.213 10.674 170.954 7.53383 169.705 4.41985H168.466H168.463Z" fill="white"/>
<path id="Vector_9" d="M136.485 21.6171H134.444C133.675 19.6783 132.902 17.7324 132.136 15.8031H121.9C121.131 17.7419 120.363 19.6735 119.59 21.6195H117.539C120.065 15.2345 122.582 8.87333 125.102 2.50977H128.917C131.425 8.84002 133.937 15.1846 136.482 21.6171H136.485ZM131.36 13.8666C130.088 10.6504 128.846 7.51022 127.602 4.36531C127.133 4.44143 126.738 4.31535 126.377 4.44381C125.135 7.58872 123.905 10.7027 122.656 13.8666H131.36Z" fill="white"/>
<path id="Vector_10" d="M13.9008 10.3349V0.169834C14.0911 0.0532681 14.2743 0.0984665 14.448 0.0984665C15.9348 0.0937087 17.4192 0.0913298 18.906 0.0984665C20.6593 0.105603 22.0842 0.790727 23.1524 2.18952C24.5488 4.0189 24.4584 6.67613 23.0001 8.44366C21.8963 9.7806 20.4523 10.3301 18.7895 10.3777C17.2265 10.4229 15.6588 10.3872 14.0935 10.3848C14.0388 10.3848 13.9841 10.3587 13.8984 10.3373L13.9008 10.3349Z" fill="#EDA91F"/>
<path id="Vector_11" d="M13.9086 13.2929C15.8355 13.2929 17.7196 13.1954 19.5918 13.3167C22.0302 13.4737 24.0142 15.6314 24.1665 18.0817C24.3187 20.5248 22.6511 22.7919 20.2793 23.3747C19.9296 23.4604 19.5799 23.5079 19.2231 23.5103C17.5602 23.5103 15.895 23.5127 14.2322 23.5103C14.1346 23.5103 14.0395 23.4937 13.9062 23.4794V13.2929H13.9086Z" fill="#32A980"/>
<path id="Vector_12" d="M10.4371 5.19807C10.449 8.06465 8.20568 10.3294 5.34386 10.3389C2.48204 10.3484 0.1864 8.08606 0.181642 5.25278C0.179264 2.40762 2.45349 0.111976 5.28915 0.0977029C8.13907 0.0858084 10.4252 2.35052 10.4371 5.19569V5.19807Z" fill="#EA4723"/>
<path id="Vector_13" d="M108.975 4.38527H100.34V2.52734H119.49V4.36861H110.886V21.6014H108.978V4.38527H108.975Z" fill="white"/>
</g>
<defs>
<clipPath id="clip0_6117_648">
<rect width="221" height="23.5511" fill="white" transform="translate(0 -0.0078125)"/>
</clipPath>
</defs>
</svg>
