<svg width="221" height="24" viewBox="0 0 221 24" fill="none" xmlns="http://www.w3.org/2000/svg">
<g id="instabase 1" clip-path="url(#clip0_6117_664)">
<path id="Vector" d="M139.062 2.55696C139.21 2.45229 139.374 2.50225 139.526 2.50225C143.825 2.49987 148.124 2.4737 152.42 2.50701C156.559 2.54031 158.855 6.80806 157.102 10.2051C156.766 10.857 156.302 11.4208 155.734 11.9179C156.569 12.5555 157.29 13.2406 157.715 14.1898C158.943 16.9279 157.668 20.1014 155.013 21.2076C154.321 21.4954 153.617 21.6453 152.882 21.6477C148.385 21.6548 143.889 21.6524 139.393 21.6524H139.062V2.55934V2.55696ZM140.958 19.7517H143.128C146.332 19.7517 149.539 19.7564 152.744 19.7517C154.307 19.7493 155.572 18.9 156.041 17.6178C156.945 15.1414 154.973 12.9932 152.763 13.0289C148.985 13.0907 145.205 13.0455 141.425 13.0479C141.275 13.0479 141.111 12.9932 140.954 13.1122V19.7517H140.958ZM140.954 11.0711C141.049 11.0996 141.085 11.1186 141.12 11.1186C144.903 11.1186 148.688 11.1472 152.47 11.1091C153.857 11.0948 154.932 10.4335 155.494 9.12511C156.041 7.8524 155.841 6.65106 154.961 5.58531C154.211 4.67895 153.177 4.40061 152.051 4.39823C148.485 4.3911 144.919 4.39585 141.356 4.39823C141.225 4.39823 141.077 4.3459 140.954 4.48625V11.0687V11.0711Z" fill="#1D1D1D"/>
<path id="Vector_2" d="M219.975 2.54297V4.40089H203.725V11.1165H219.002V13.0339H203.722V19.7448H220.924V21.6241H201.826V2.54297H219.975Z" fill="#1D1D1D"/>
<path id="Vector_3" d="M78.2414 21.6243H76.3478C71.2546 16.2123 66.1828 10.8217 61.1133 5.43111L61.0015 5.46203V21.6195H59.127V2.54788C59.7502 2.44321 60.3783 2.53598 60.9849 2.49316C66.0948 7.9242 71.1832 13.3362 76.3573 18.8386V2.52885H78.2414V21.6243Z" fill="#1D1D1D"/>
<path id="Vector_4" d="M80.8062 15.4318H82.6665C82.7498 15.4936 82.7783 15.565 82.7855 15.6459C82.9924 17.8678 84.2604 19.2023 86.3229 19.8898C87.598 20.3156 88.9135 20.4132 90.241 20.4179C91.6873 20.4251 93.1218 20.3061 94.4921 19.8066C95.5435 19.4236 96.3976 18.8098 96.8829 17.7488C97.4847 16.4357 97.0089 14.9298 95.7362 14.2423C94.7181 13.6928 93.6119 13.3954 92.489 13.1623C90.7477 12.8007 89.0016 12.4558 87.2554 12.1132C86.0874 11.8848 84.9574 11.5327 83.8798 11.0403C81.9886 10.1768 81.2844 8.48299 81.6888 6.49898C82.0028 4.9527 82.9615 3.88219 84.3627 3.1709C86.4966 2.0885 88.7803 1.94101 91.1045 2.08374C92.4319 2.16463 93.7189 2.44534 94.9345 3.01152C96.9138 3.93215 98.0985 5.48557 98.5885 7.58376C98.7122 8.11426 98.8003 8.65665 98.7384 9.2371H96.8805C96.771 8.70185 96.6878 8.14281 96.5355 7.6028C96.0027 5.70919 94.6729 4.62441 92.8221 4.17004C90.4503 3.58721 88.0881 3.71091 85.771 4.48168C84.6981 4.83851 83.9845 5.55932 83.6276 6.65599C83.2898 7.68844 83.8703 9.01111 84.8765 9.49402C85.6854 9.88416 86.5299 10.1363 87.4029 10.3171C89.6629 10.7905 91.9276 11.252 94.1876 11.7254C95.2557 11.949 96.2596 12.3439 97.185 12.9268C98.7051 13.8855 99.2332 15.2985 99.0643 17.0328C98.8193 19.5354 97.1588 20.9722 94.8203 21.5884C91.88 22.3639 88.9159 22.3377 85.9803 21.5384C83.944 20.9841 82.2621 19.9326 81.3248 17.9367C81.0322 17.3135 80.7896 16.2311 80.7991 15.4341L80.8062 15.4318Z" fill="#1D1D1D"/>
<path id="Vector_5" d="M198.022 9.24679H196.166C195.993 8.91851 196.019 8.53788 195.948 8.17867C195.505 5.94012 194.102 4.64362 191.925 4.12978C189.66 3.59452 187.41 3.74201 185.202 4.40811C184.056 4.75305 183.197 5.48099 182.88 6.71088C182.604 7.78853 183.075 8.87806 184.041 9.42997C185.019 9.98901 186.108 10.2007 187.189 10.4267C189.313 10.874 191.449 11.276 193.569 11.7494C194.844 12.0349 196.048 12.5106 197.059 13.3932C197.917 14.1426 198.308 15.0941 198.343 16.2027C198.424 18.5412 197.308 20.3468 195.022 21.2555C193.145 22.0001 191.204 22.1262 189.22 22.0929C187.724 22.0691 186.261 21.8883 184.843 21.4173C183.692 21.0343 182.633 20.4942 181.762 19.6188C180.613 18.4674 180.14 17.0567 180.035 15.4462H182.005C182.107 15.8316 182.095 16.2051 182.193 16.5667C182.626 18.1629 183.694 19.1573 185.183 19.7496C186.644 20.3301 188.183 20.43 189.732 20.4181C191.18 20.4062 192.617 20.2849 193.968 19.7163C194.975 19.2953 195.812 18.6744 196.202 17.5753C196.678 16.2241 196.238 14.8681 194.891 14.1878C193.821 13.6478 192.677 13.3504 191.516 13.1101C189.831 12.7628 188.145 12.4298 186.458 12.0991C185.366 11.885 184.312 11.5472 183.292 11.119C180.347 9.88672 180.335 6.63714 181.734 4.72926C182.733 3.36615 184.203 2.73336 185.79 2.38604C187.978 1.90788 190.184 1.86982 192.377 2.38366C194.218 2.81662 195.819 3.654 196.88 5.27879C197.649 6.45396 198.041 7.76474 198.024 9.24204L198.022 9.24679Z" fill="#1D1D1D"/>
<path id="Vector_6" d="M10.3853 23.4912H0.222656V13.3262H10.3853V23.4912Z" fill="#8362AC"/>
<path id="Vector_7" d="M45.6628 4.41491H37.0702C37.0107 3.77023 37.0369 3.16599 37.0535 2.5332H56.2037V4.37685H47.642V19.7446H56.2037V21.6025H37.0726V19.7446H45.6652V4.41491H45.6628Z" fill="#1D1D1D"/>
<path id="Vector_8" d="M178.638 21.6285H176.575C175.807 19.7111 175.036 17.789 174.251 15.8311H163.927C163.168 17.7247 162.392 19.6564 161.607 21.6119H159.545C162.09 15.2293 164.619 8.89188 167.157 2.52832H171.021C173.54 8.84431 176.076 15.1984 178.638 21.6261V21.6285ZM168.463 4.42668C167.207 7.57873 165.958 10.7094 164.702 13.8614H173.488C172.213 10.6808 170.954 7.54067 169.705 4.42668H168.466H168.463Z" fill="#1D1D1D"/>
<path id="Vector_9" d="M136.485 21.6239H134.444C133.675 19.6851 132.902 17.7392 132.136 15.8099H121.9C121.131 17.7487 120.363 19.6804 119.59 21.6263H117.539C120.065 15.2413 122.582 8.88016 125.102 2.5166H128.917C131.425 8.84686 133.937 15.1914 136.482 21.6239H136.485ZM131.36 13.8735C130.088 10.6572 128.846 7.51705 127.602 4.37214C127.133 4.44827 126.738 4.32219 126.377 4.45065C125.135 7.59556 123.905 10.7095 122.656 13.8735H131.36Z" fill="#1D1D1D"/>
<path id="Vector_10" d="M13.9008 10.3437V0.178623C14.0911 0.0620571 14.2743 0.107256 14.448 0.107256C15.9348 0.102498 17.4192 0.100119 18.906 0.107256C20.6593 0.114392 22.0842 0.799516 23.1524 2.19831C24.5488 4.02769 24.4584 6.68492 23.0001 8.45244C21.8963 9.78939 20.4523 10.3389 18.7895 10.3865C17.2265 10.4317 15.6588 10.396 14.0935 10.3936C14.0388 10.3936 13.9841 10.3675 13.8984 10.346L13.9008 10.3437Z" fill="#EDA91F"/>
<path id="Vector_11" d="M13.9086 13.3007C15.8355 13.3007 17.7196 13.2032 19.5918 13.3245C22.0302 13.4815 24.0142 15.6392 24.1665 18.0895C24.3187 20.5326 22.6511 22.7997 20.2793 23.3825C19.9296 23.4682 19.5799 23.5158 19.2231 23.5181C17.5602 23.5181 15.895 23.5205 14.2322 23.5181C14.1346 23.5181 14.0395 23.5015 13.9062 23.4872V13.3007H13.9086Z" fill="#32A980"/>
<path id="Vector_12" d="M10.4371 5.2049C10.449 8.07148 8.20568 10.3362 5.34386 10.3457C2.48204 10.3552 0.1864 8.09289 0.181642 5.25962C0.179264 2.41445 2.45349 0.118812 5.28915 0.104539C8.13907 0.0926443 10.4252 2.35736 10.4371 5.20253V5.2049Z" fill="#EA4723"/>
<path id="Vector_13" d="M108.975 4.39405H100.34V2.53613H119.49V4.3774H110.886V21.6102H108.978V4.39405H108.975Z" fill="#1D1D1D"/>
</g>
<defs>
<clipPath id="clip0_6117_664">
<rect width="221" height="23.5511" fill="white"/>
</clipPath>
</defs>
</svg>
