<?xml version="1.0" encoding="UTF-8"?><svg id="Layer_2" xmlns="http://www.w3.org/2000/svg" xmlns:xlink="http://www.w3.org/1999/xlink" viewBox="0 0 1287.19 940.37"><defs><style>.cls-1{fill:none;}.cls-2{fill:url(#linear-gradient);}.cls-2,.cls-3,.cls-4,.cls-5,.cls-6,.cls-7,.cls-8,.cls-9{opacity:.5;}.cls-10{clip-path:url(#clippath);}.cls-11{opacity:.9;}.cls-12{fill:url(#linear-gradient-9);opacity:.3;}.cls-3{fill:url(#linear-gradient-4);}.cls-4{fill:url(#linear-gradient-2);}.cls-5{fill:url(#linear-gradient-3);}.cls-6{fill:url(#linear-gradient-8);}.cls-7{fill:url(#linear-gradient-5);}.cls-8{fill:url(#linear-gradient-6);}.cls-9{fill:url(#linear-gradient-7);}</style><clipPath id="clippath"><rect class="cls-1" x="50.5" y="438.82" width="1045.35" height="136.05" rx="23.42" ry="23.42" transform="translate(1146.35 1013.68) rotate(-180)"/></clipPath><linearGradient id="linear-gradient" x1="1664.11" y1="1248.88" x2="2281.77" y2="1248.88" gradientTransform="translate(355.88 -1835.31) rotate(115.65) scale(1 -1)" gradientUnits="userSpaceOnUse"><stop offset="0" stop-color="#00da00"/><stop offset=".19" stop-color="#00cd3a"/><stop offset=".4" stop-color="#00c176"/><stop offset=".59" stop-color="#00b7a5"/><stop offset=".76" stop-color="#00afc6"/><stop offset=".91" stop-color="#00abdb"/><stop offset="1" stop-color="#00aae3"/></linearGradient><linearGradient id="linear-gradient-2" x1="1486.78" y1="1237.15" x2="2437.38" y2="1237.15" xlink:href="#linear-gradient"/><linearGradient id="linear-gradient-3" x1="1815.98" y1="1178.23" x2="2137.46" y2="1178.23" xlink:href="#linear-gradient"/><linearGradient id="linear-gradient-4" x1="2234.88" y1="862.97" x2="2374.72" y2="862.97" xlink:href="#linear-gradient"/><linearGradient id="linear-gradient-5" x1="1918.48" y1="1222.12" x2="2058.32" y2="1222.12" xlink:href="#linear-gradient"/><linearGradient id="linear-gradient-6" x1="2115.64" y1="858.09" x2="2196.16" y2="858.09" xlink:href="#linear-gradient"/><linearGradient id="linear-gradient-7" x1="1956.73" y1="719.41" x2="2064.09" y2="719.41" xlink:href="#linear-gradient"/><linearGradient id="linear-gradient-8" x1="1917.97" y1="1690.9" x2="2207.19" y2="1690.9" xlink:href="#linear-gradient"/><linearGradient id="linear-gradient-9" x1="1444.22" y1="1640.16" x2="1597.28" y2="1640.16" xlink:href="#linear-gradient"/></defs><g id="cards"><g class="cls-11"><g class="cls-10"><g><path class="cls-2" d="M529.57,718.28c36.11-3.45,46.12,31.67,79.42,32.18,27.59,.43,55.36-30.78,110.9-93.19,35.12-39.47,41.06-51.84,62.62-58.22,29.22-8.65,41.86,7.08,82.76,1.81,9.59-1.24,47.6-6.14,73.5-30.7,40.46-38.37,31.04-105.45,27.85-128.17-13.5-96.18-86.26-157.39-110.37-177.11-79.75-65.2-264.05-157.42-414.52-54.98-111.51,75.92-142.59,216.64-125.01,319.21,20.24,118.03,112.04,227.08,161.26,216.27,18.92-4.15,24.8-24.54,51.58-27.1Z"/><path class="cls-4" d="M440.07,862.97c28.96-1.01,29.78-7.98,44.6-6.19,39.61,4.79,40.42,55.4,88.51,75.91,1.74,.74,41.53,17.06,75.23-.23,27.03-13.87,21.71-34.78,48.58-49.76,33.51-18.68,56,5.92,83.41-12.14,21.16-13.95,16.31-34.25,38.71-78.29,13.37-26.29,26.9-42.25,49.24-68.6,14.32-16.89,63.66-72.83,146.93-120.39,58.06-33.16,78.98-18.28,130.85-54.62,27.97-19.6,57.17-40.72,61.94-76.36,4.08-30.43-10.6-64.38-35.25-82.46-33.28-24.4-58.43-.59-95.02-23.55-25.35-15.9-35.83-41.48-55.83-90.28-15.68-38.25-19.56-61.17-24.96-78.54-28.57-91.88-134.61-140.76-177.38-160.48C728.09-5.2,648.15-1.22,591,1.62c-67.54,3.36-125.37,6.24-168.76,47.51-30.16,28.68-22.42,46.5-59.05,76.24-47.21,38.32-80.46,25.29-107.38,62.33-22.77,31.33-21.51,71.67-21.14,83.35,1.49,47.44,24.66,65.08,12.38,89.19-9.24,18.14-30.73,24.6-57.96,32.79-41.46,12.47-60.8,5.99-82.03,10.64-62.3,13.63-124.79,119.5-102.41,216.93,13.24,57.65,57.04,116,112.51,131.34,24.83,6.87,51.64,5.01,101.35,1.59,63.5-4.38,69.94-13.92,88.05-5.1,43.41,21.16,26.57,85.86,73.88,106.9,20.31,9.03,48.06,8.06,59.64,7.66Z"/><path class="cls-5" d="M463.37,556.22c2.29,4.77,24.04,48.49,69.25,63.74,47.66,16.07,92.6-9.21,115.18-21.9,20.59-11.58,112.26-67.72,105.87-154.73-3.26-44.43-32.08-96.73-70.98-105.53-27.83-6.3-38.86,14.64-88.9,13.2-15.51-.44-14.74-2.47-69.02-12.36-66.15-12.06-74.12-10.31-80.26-8.09-33.29,12.01-58.8,54.11-49.89,82,6.12,19.17,23.27,15.21,41.55,38.24,26.51,33.39,6.05,61.34,27.21,105.44Z"/><path class="cls-3" d="M161.68,669.59c8.43-3.89,37.33-19.08,41.73-49.31,4.85-33.34-22.76-66.68-50.57-72.12-48.57-9.51-104.63,64.69-89.07,100.75,11.18,25.91,61.6,37.42,97.91,20.68Z"/><path class="cls-7" d="M622.4,539.87c8.43-3.89,37.33-19.08,41.73-49.31,4.85-33.34-22.76-66.68-50.57-72.12-48.57-9.51-104.63,64.69-89.07,100.75,11.18,25.91,61.6,37.42,97.91,20.68Z"/><path class="cls-8" d="M207.06,524.98c23.03-2.41,40.92-34.73,33.81-56.59-9.74-29.98-65.7-37.87-80.74-19.49-10.29,12.58-1.39,37.45,7.83,51.06,2.89,4.26,18.42,27.18,39.1,25.02Z"/><path class="cls-9" d="M148.44,350.43c23.68-1.65,47.14-30.64,45.05-60.86-2.05-29.76-28.26-52.08-55.56-54.79-31.09-3.09-63.16,19.29-64.84,42.65-1.12,15.48,11.37,27.71,28.49,44.49,17.48,17.13,30.26,29.66,46.86,28.51Z"/><path class="cls-6" d="M993.91,821.59c15.66-26.35,40.74-45.77,47.35-51.44,41.24-35.38,65.42-32.08,75.61-58.32,6.82-17.56,4.59-41.19-7.98-54.86-27.1-29.46-93.62-3.23-108.37,2.59-77.8,30.68-157.24,114.16-137.45,173.17,9.6,28.63,42.84,52.36,68.62,48.54,13.48-2,28.67-3.19,62.23-59.67Z"/><path class="cls-12" d="M1279.04,218.3c13.18,16.07,9.69,47.01-5.54,61.48-7.66,7.28-13.57,5.91-28.41,11.58-38.87,14.84-46.82,42.75-58.46,39.41-6.36-1.82-12.32-12.56-15.31-26.97-11.46,4.34-26.16,6.99-42.33,2.78-33.05-8.6-54.44-41.21-55.03-72.84-.79-42.09,35.3-79.53,71.79-80.41,29.03-.7,50.89,21.91,55.42,26.6,5.02,5.19,14.28,15.02,19.23,29.98,22.26-7.59,46.81-6.03,58.64,8.4Z"/></g></g></g></g></svg>