<svg version="1.1" id="Layer_1" xmlns:x="ns_extend;" xmlns:i="ns_ai;" xmlns:graph="ns_graphs;" xmlns="http://www.w3.org/2000/svg" xmlns:xlink="http://www.w3.org/1999/xlink" x="0px" y="0px" viewBox="0 0 603.3 40" style="enable-background:new 0 0 603.3 40;" xml:space="preserve">
 <style type="text/css">
  .st0{fill:#1B1B1B;}
 </style>
 <metadata>
  <sfw xmlns="ns_sfw;">
   <slices>
   </slices>
   <sliceSourceBounds bottomLeftOrigin="true" height="40" width="603.3" x="-212.5" y="0.6">
   </sliceSourceBounds>
  </sfw>
 </metadata>
 <g>
  <path class="st0" d="M15.9,39.9c-6,0-11.2-2.1-15.9-6.2l2.7-3.2c2.1,1.9,4.1,3.3,6.2,4.2C11,35.6,13.4,36,16,36
		c2.6,0,4.7-0.6,6.3-1.8c1.6-1.3,2.4-2.9,2.4-4.9c0-1.9-0.7-3.4-2.1-4.5c-1.4-1.1-4.1-2.1-8-2.9c-4.6-1-8-2.3-10-4
		c-2-1.7-3.1-4.1-3.1-7.3C1.6,7.5,2.8,5,5.2,3c2.4-2,5.5-3,9.2-3C19.5,0,24,1.6,28,4.8l-2.6,3.4C22,5.3,18.2,3.9,14.2,3.9
		c-2.5,0-4.5,0.6-6,1.8C6.7,7,5.9,8.5,5.9,10.3c0,1.9,0.7,3.4,2.2,4.5c1.5,1.1,4.3,2.1,8.4,3c4.4,1,7.6,2.3,9.6,4
		c2,1.7,3.1,4.1,3.1,7c0,3.3-1.2,6-3.7,8C22.9,38.9,19.8,39.9,15.9,39.9z">
  </path>
  <path class="st0" d="M75.8,40c-4.9,0-8.8-1.5-11.8-4.4c-2.9-3-4.4-7.1-4.4-12.5V0.6H64v22.3c0,4.2,1,7.4,3.1,9.7
		c2.1,2.3,5,3.4,8.8,3.4c3.7,0,6.5-1.1,8.6-3.3c2.1-2.2,3.1-5.4,3.1-9.5V0.6H92v22.2c0,5.5-1.5,9.8-4.4,12.8
		C84.7,38.5,80.7,40,75.8,40z">
  </path>
  <path class="st0" d="M124.5,39.4V0.6h14.5c4.4,0,8,1.1,10.6,3.3c2.6,2.2,3.9,5.3,3.9,9.1c0,4-1.5,7.2-4.4,9.4
		c-2.9,2.2-6.5,3.3-10.9,3.3h-9.4v13.7H124.5z M128.9,21.7h9.6c3.2,0,5.8-0.8,7.7-2.3c2-1.6,2.9-3.7,2.9-6.3c0-2.7-0.9-4.8-2.8-6.2
		c-1.8-1.5-4.4-2.2-7.6-2.2h-9.8V21.7z">
  </path>
  <path class="st0" d="M183.8,39.4V0.6h28.1v4h-23.7v13.3h21.2v4h-21.2v13.6h24v4H183.8z">
  </path>
  <path class="st0" d="M243.1,39.4V0.6h16.7c4.8,0,8.5,1.3,11,3.9c2,2,3,4.6,3,7.8c0,3.1-1,5.6-2.9,7.5c-1.9,1.9-4.5,3.2-7.7,3.8
		l11.9,15.9h-5.4l-11.3-15.1h-11.1v15.1H243.1z M247.5,20.4h11.9c3,0,5.4-0.7,7.2-2.2c1.8-1.4,2.8-3.4,2.8-5.9
		c0-2.4-0.9-4.3-2.7-5.6c-1.7-1.4-4.2-2.1-7.3-2.1h-12V20.4z">
  </path>
  <path class="st0" d="M305.4,39.4V0.6h4.4v17.3h22.4V0.6h4.4v38.8h-4.4V21.9h-22.4v17.5H305.4z">
  </path>
  <path class="st0" d="M385.3,40c-4.9,0-8.8-1.5-11.8-4.4c-2.9-3-4.4-7.1-4.4-12.5V0.6h4.4v22.3c0,4.2,1,7.4,3.1,9.7
		c2.1,2.3,5,3.4,8.8,3.4c3.7,0,6.5-1.1,8.6-3.3c2.1-2.2,3.1-5.4,3.1-9.5V0.6h4.4v22.2c0,5.5-1.5,9.8-4.4,12.8
		C394.2,38.5,390.2,40,385.3,40z">
  </path>
  <path class="st0" d="M434,39.4V0.6h4.4l14.1,21.2l14.1-21.2h4.4v38.8h-4.4V7.9l-14.1,20.8h-0.2L438.3,8v31.4H434z">
  </path>
  <path class="st0" d="M501.1,39.4l17.7-39.1h4.1l17.7,39.1h-4.7l-4.5-10.3h-21.1l-4.6,10.3H501.1z M511.9,25.2h17.7l-8.8-19.8
		L511.9,25.2z">
  </path>
  <path class="st0" d="M570.4,39.4V0.6h4.1L599,31.7V0.6h4.3v38.8h-3.5L574.7,7.5v31.8H570.4z">
  </path>
 </g>
</svg>