<svg width="42" height="41" viewBox="0 0 42 41" fill="none" xmlns="http://www.w3.org/2000/svg">
<path d="M40.5292 20.6281C40.5292 13.619 36.7645 7.14243 30.6469 3.63247C24.5293 0.12251 16.9999 0.12251 10.8823 3.63247C4.76468 7.14243 1 13.619 1 20.6281C1 27.6371 4.76468 34.1137 10.8823 37.6237C16.9999 41.1336 24.5293 41.1336 30.6469 37.6237C36.7645 34.1137 40.5292 27.6371 40.5292 20.6281Z" fill="white" stroke="#130C49" stroke-miterlimit="10"/>
<path d="M20.7723 14.8313L14.9375 20.625L20.7723 26.4187L26.6071 20.625L20.7723 14.8313Z" fill="#61BB73"/>
<path d="M32.1804 20.7364C32.1804 26.9956 27.0697 32.0704 20.766 32.0704C14.4623 32.0704 9.35156 26.9956 9.35156 20.7364C9.35156 14.4771 14.4623 9.40234 20.766 9.40234C22.6483 9.40234 24.4212 9.84788 25.9753 10.652" stroke="#130C49" stroke-linecap="round" stroke-linejoin="round"/>
<path d="M23.1641 11.2175L25.6921 10.5112L24.9807 8.00098L26.3597 8.77252L27.0601 11.2827L24.532 11.9782L23.1641 11.2175Z" fill="#130C49"/>
</svg>
