<svg width="29" height="22" viewBox="0 0 29 22" fill="none" xmlns="http://www.w3.org/2000/svg">
<g id="Group">
<g id="Group_2">
<path id="Vector" d="M23.1591 18.2109H21.6211V17.3751H22.3232V16.6841H23.1591V18.2109Z" fill="white"/>
<path id="Vector_2" d="M19.4376 18.2109H17.2532V17.375H19.4376V18.2109ZM15.0688 18.2109H12.8844V17.375H15.0688V18.2109ZM10.7 18.2109H8.51562V17.375H10.7V18.2109Z" fill="white"/>
<path id="Vector_3" d="M6.34268 18.2109H4.80469V16.6841H5.64055V17.3751H6.34268V18.2109Z" fill="white"/>
<path id="Vector_4" d="M5.64055 14.522H4.80469V12.3599H5.64055V14.522ZM5.64055 10.1977H4.80469V8.03564H5.64055V10.1977ZM5.64055 5.87353H4.80469V3.71143H5.64055V5.87353Z" fill="white"/>
<path id="Vector_5" d="M5.64055 1.53799H4.80469V0H6.34268V0.835866H5.64055V1.53799Z" fill="white"/>
<path id="Vector_6" d="M19.4376 0.835866H17.2532V0H19.4376V0.835866ZM15.0688 0.835866H12.8844V0H15.0688V0.835866ZM10.7 0.835866H8.51562V0H10.7V0.835866Z" fill="white"/>
<path id="Vector_7" d="M23.1591 1.53799H22.3232V0.835866H21.6211V0H23.1591V1.53799Z" fill="white"/>
<path id="Vector_8" d="M23.1601 14.522H22.3242V12.3599H23.1601V14.522ZM23.1601 10.1977H22.3242V8.03564H23.1601V10.1977ZM23.1601 5.87353H22.3242V3.71143H23.1601V5.87353Z" fill="white"/>
</g>
<g id="Group_3">
<g id="Group_4">
<g id="Group_5">
<path id="Vector_9" d="M22.3927 14.3543C24.1716 14.3543 25.6136 12.9123 25.6136 11.1335C25.6136 9.35463 24.1716 7.9126 22.3927 7.9126C20.6139 7.9126 19.1719 9.35463 19.1719 11.1335C19.1719 12.9123 20.6139 14.3543 22.3927 14.3543Z" fill="#61BD73"/>
<path id="Vector_10" d="M22.3944 14.7668C20.3883 14.7668 18.75 13.1396 18.75 11.1224C18.75 9.10518 20.3772 7.47803 22.3944 7.47803C24.4116 7.47803 26.0388 9.10518 26.0388 11.1224C26.0388 13.1396 24.4116 14.7668 22.3944 14.7668ZM22.3944 8.32504C20.8452 8.32504 19.5859 9.58441 19.5859 11.1335C19.5859 12.6827 20.8452 13.9421 22.3944 13.9421C23.9435 13.9421 25.2029 12.6827 25.2029 11.1335C25.2029 9.58441 23.9435 8.32504 22.3944 8.32504Z" fill="white"/>
</g>
<g id="Group_6">
<path id="Vector_11" d="M17.2773 19.9381C17.2773 17.0627 19.6066 14.7334 22.482 14.7334C25.3574 14.7334 27.6867 17.0627 27.6867 19.9381" fill="#61BD73"/>
<path id="Vector_12" d="M28.1118 19.9382H27.2759C27.2759 17.2969 25.125 15.1459 22.4836 15.1459C19.8423 15.1459 17.6913 17.2969 17.6913 19.9382H16.8555C16.8555 16.8399 19.3742 14.3101 22.4836 14.3101C25.5931 14.3101 28.1118 16.8288 28.1118 19.9382Z" fill="white"/>
</g>
</g>
<g id="Group_7">
<g id="Group_8">
<path id="Vector_13" d="M5.52947 14.3543C7.3083 14.3543 8.75034 12.9123 8.75034 11.1335C8.75034 9.35463 7.3083 7.9126 5.52947 7.9126C3.75063 7.9126 2.30859 9.35463 2.30859 11.1335C2.30859 12.9123 3.75063 14.3543 5.52947 14.3543Z" fill="#61BD73"/>
<path id="Vector_14" d="M5.52776 14.7668C3.52168 14.7668 1.89453 13.1396 1.89453 11.1224C1.89453 9.10518 3.52168 7.47803 5.52776 7.47803C7.53384 7.47803 9.17214 9.10518 9.17214 11.1224C9.17214 13.1396 7.54499 14.7668 5.52776 14.7668ZM5.52776 8.32504C3.97862 8.32504 2.7304 9.58441 2.7304 11.1335C2.7304 12.6827 3.98977 13.9421 5.52776 13.9421C7.06576 13.9421 8.33627 12.6827 8.33627 11.1335C8.33627 9.58441 7.0769 8.32504 5.52776 8.32504Z" fill="white"/>
</g>
<g id="Group_9">
<path id="Vector_15" d="M0.421875 19.9381C0.421875 17.0627 2.75116 14.7334 5.62654 14.7334C8.50192 14.7334 10.8312 17.0627 10.8312 19.9381" fill="#61BD73"/>
<path id="Vector_16" d="M11.2452 19.9382H10.4093C10.4093 17.2969 8.25836 15.1459 5.61702 15.1459C2.97568 15.1459 0.835866 17.2969 0.835866 19.9382H0C0 16.8399 2.51874 14.3101 5.62817 14.3101C8.73759 14.3101 11.2563 16.8288 11.2563 19.9382H11.2452Z" fill="white"/>
</g>
</g>
<g id="Group_10">
<g id="Group_11">
<path id="Vector_17" d="M14.0529 16.4046C15.8317 16.4046 17.2738 14.9626 17.2738 13.1838C17.2738 11.4049 15.8317 9.96289 14.0529 9.96289C12.2741 9.96289 10.832 11.4049 10.832 13.1838C10.832 14.9626 12.2741 16.4046 14.0529 16.4046Z" fill="white"/>
<path id="Vector_18" d="M14.0545 16.8283C12.0485 16.8283 10.4102 15.2012 10.4102 13.1839C10.4102 11.1667 12.0373 9.53955 14.0545 9.53955C16.0718 9.53955 17.6989 11.1667 17.6989 13.1839C17.6989 15.2012 16.0718 16.8283 14.0545 16.8283ZM14.0545 10.3866C12.5054 10.3866 11.246 11.6459 11.246 13.1951C11.246 14.7442 12.5054 16.0036 14.0545 16.0036C15.6037 16.0036 16.863 14.7442 16.863 13.1951C16.863 11.6459 15.6037 10.3866 14.0545 10.3866Z" fill="#61BD73"/>
</g>
<g id="Group_12">
<path id="Vector_19" d="M8.94141 21.9996C8.94141 19.1242 11.2707 16.7949 14.1461 16.7949C17.0214 16.7949 19.3507 19.1242 19.3507 21.9996" fill="white"/>
<path id="Vector_20" d="M19.7837 21.9997H18.9478C18.9478 19.3584 16.7968 17.2074 14.1555 17.2074C11.5142 17.2074 9.36321 19.3584 9.36321 21.9997H8.52734C8.52734 18.9015 11.0461 16.3716 14.1555 16.3716C17.2649 16.3716 19.7837 18.8903 19.7837 21.9997Z" fill="#61BD73"/>
</g>
</g>
</g>
</g>
</svg>
