<svg width="25" height="21" viewBox="0 0 25 21" fill="none" xmlns="http://www.w3.org/2000/svg">
<g id="Group">
<g id="Group_2">
<path id="Vector" d="M16.4497 4.54004H0.429688V20.44H16.4497V4.54004Z" fill="#61BD73"/>
<path id="Vector_2" d="M16.87 20.8701H0V4.12012H16.88V20.8701H16.87ZM0.85 20.0101H16.01V4.97012H0.86V20.0101H0.85Z" fill="white"/>
</g>
<path id="Vector_3" d="M7.13109 15.0298L8.27109 16.1698C8.52109 16.4098 8.64109 16.6198 8.64109 16.7998C8.64109 16.9798 8.52109 17.1798 8.27109 17.4198C8.02109 17.6598 7.81109 17.7798 7.64109 17.7798C7.47109 17.7798 7.26109 17.6598 7.01109 17.4098L5.88109 16.2798L4.74109 17.4098C4.49109 17.6498 4.29109 17.7798 4.12109 17.7798C3.95109 17.7798 3.74109 17.6598 3.49109 17.4198C3.24109 17.1798 3.12109 16.9698 3.12109 16.7998C3.12109 16.6298 3.24109 16.4198 3.49109 16.1698L4.63109 15.0298L3.49109 13.8898C3.24109 13.6498 3.12109 13.4398 3.12109 13.2598C3.12109 13.0798 3.24109 12.8798 3.49109 12.6298C3.74109 12.3898 3.95109 12.2598 4.12109 12.2598C4.29109 12.2598 4.50109 12.3798 4.74109 12.6298L5.88109 13.7698L7.01109 12.6298C7.26109 12.3898 7.46109 12.2598 7.64109 12.2598C7.82109 12.2598 8.02109 12.3798 8.27109 12.6298C8.52109 12.8798 8.64109 13.0798 8.64109 13.2598C8.64109 13.4398 8.52109 13.6398 8.27109 13.8898L7.13109 15.0298Z" fill="white"/>
<g id="Group_3">
<path id="Vector_4" d="M15.3216 12.35C11.8916 12.35 9.10156 9.58 9.10156 6.18C9.10156 2.78 11.8916 0 15.3216 0C18.7516 0 21.5416 2.77 21.5416 6.17C21.5416 9.57 18.7516 12.34 15.3216 12.34V12.35ZM15.3216 1C12.4416 1 10.1016 3.32 10.1016 6.17C10.1016 9.02 12.4416 11.34 15.3216 11.34C18.2016 11.34 20.5416 9.02 20.5416 6.17C20.5416 3.32 18.2016 1 15.3216 1Z" fill="white"/>
<path id="Vector_5" d="M20.1449 9.25852L19.5234 10.042L23.9187 13.5282L24.5402 12.7447L20.1449 9.25852Z" fill="white"/>
</g>
</g>
</svg>
