<svg width="25" height="25" viewBox="0 0 25 25" fill="none" xmlns="http://www.w3.org/2000/svg">
<g id="Group">
<g id="Group_2">
<path id="Vector" d="M20.3194 4.58008H4.60938V20.1701H20.3194V4.58008Z" fill="#61BD73"/>
<path id="Vector_2" d="M20.7497 20.6102H4.17969V4.16016H20.7497V20.6102ZM5.03967 19.7502H19.8897V5.01015H5.03967V19.7502Z" fill="white"/>
</g>
<g id="Group_3">
<path id="Vector_3" d="M24.9297 23.75H23.9297V24.75H24.9297V23.75Z" fill="white"/>
<path id="Vector_4" d="M21.9283 24.75H20.9283V23.75H21.9283V24.75ZM18.9383 24.75H17.9383V23.75H18.9383V24.75ZM15.9483 24.75H14.9483V23.75H15.9483V24.75ZM12.9583 24.75H11.9583V23.75H12.9583V24.75ZM9.96829 24.75H8.96829V23.75H9.96829V24.75ZM6.97827 24.75H5.97827V23.75H6.97827V24.75ZM3.98828 24.75H2.98828V23.75H3.98828V24.75Z" fill="white"/>
<path id="Vector_5" d="M1 23.75H0V24.75H1V23.75Z" fill="white"/>
<path id="Vector_6" d="M1 21.7802H0V20.7902H1V21.7802ZM1 18.8102H0V17.8202H1V18.8102ZM1 15.8402H0V14.8502H1V15.8402ZM1 12.8702H0V11.8802H1V12.8702ZM1 9.90022H0V8.91022H1V9.90022ZM1 6.93021H0V5.94022H1V6.93021ZM1 3.96021H0V2.97021H1V3.96021Z" fill="white"/>
<path id="Vector_7" d="M1 0H0V1H1V0Z" fill="white"/>
<path id="Vector_8" d="M21.9283 1H20.9283V0H21.9283V1ZM18.9383 1H17.9383V0H18.9383V1ZM15.9483 1H14.9483V0H15.9483V1ZM12.9583 1H11.9583V0H12.9583V1ZM9.96829 1H8.96829V0H9.96829V1ZM6.97827 1H5.97827V0H6.97827V1ZM3.98828 1H2.98828V0H3.98828V1Z" fill="white"/>
<path id="Vector_9" d="M24.9297 0H23.9297V1H24.9297V0Z" fill="white"/>
<path id="Vector_10" d="M24.9297 21.7802H23.9297V20.7902H24.9297V21.7802ZM24.9297 18.8102H23.9297V17.8202H24.9297V18.8102ZM24.9297 15.8402H23.9297V14.8502H24.9297V15.8402ZM24.9297 12.8702H23.9297V11.8802H24.9297V12.8702ZM24.9297 9.90022H23.9297V8.91022H24.9297V9.90022ZM24.9297 6.93021H23.9297V5.94022H24.9297V6.93021ZM24.9297 3.96021H23.9297V2.97021H24.9297V3.96021Z" fill="white"/>
</g>
</g>
</svg>
