<svg width="878" height="306" viewBox="0 0 878 306" fill="none" xmlns="http://www.w3.org/2000/svg">
<path d="M0 57L28 73V265L0 249V57Z" fill="#998AE5"/>
<path d="M0 57L28 73V265L0 249V57Z" fill="black" fill-opacity="0.2"/>
<path d="M28 105L56 121V249L28 265V105Z" fill="#998AE5"/>
<path d="M28 73L140 137L112 153L28 105V73Z" fill="#998AE5"/>
<path d="M28 73L140 137L112 153L28 105V73Z" fill="black" fill-opacity="0.2"/>
<path d="M28 41L168 121L140 137L0 57L28 41Z" fill="#998AE5"/>
<path d="M28 41L168 121L140 137L0 57L28 41Z" fill="white" fill-opacity="0.8"/>
<path d="M56 217L196 137V169L56 249V217Z" fill="#998AE5"/>
<path d="M56 185L168 121L196 137L56 217V185Z" fill="#998AE5"/>
<path d="M56 185L168 121L196 137L56 217V185Z" fill="white" fill-opacity="0.8"/>
<path d="M349.18 72.45H198.53V98.44H259.02V230H288.69V98.44H349.18V72.45ZM325.14 200.33C325.14 220.11 338.94 233.22 363.78 233.22C384.48 233.22 401.5 224.02 406.56 212.29H408.17L408.63 215.28C410.01 227.7 420.59 232.07 433.93 232.07C440.37 232.07 447.73 230.92 452.33 229.08V205.85C449.57 206.77 444.74 207.46 440.83 207.46C437.61 207.46 434.62 207 433.24 206.31L433.47 145.59C433.47 122.36 413.92 111.32 382.41 111.32C349.06 111.32 327.9 124.43 327.9 153.18H356.65C356.42 141.45 362.86 134.32 380.8 134.32C395.98 134.32 404.72 138.92 404.72 149.27V159.62L362.63 165.14C340.09 168.13 325.14 179.63 325.14 200.33ZM354.81 198.03C354.81 189.98 360.1 184.69 369.99 183.31L404.72 178.71V195.04C400.35 205.62 385.86 211.6 373.21 211.6C361.94 211.6 354.81 206.77 354.81 198.03ZM451.609 172.27C451.609 208.61 477.139 232.99 514.859 232.99C548.899 232.99 573.739 212.98 576.269 184.92H546.369C543.379 198.03 530.959 206.77 515.549 206.77C495.309 206.77 481.739 192.74 481.739 172.04C481.739 151.34 495.309 137.54 515.549 137.54C531.189 137.54 543.609 146.05 546.369 158.93H576.269C574.199 131.33 549.589 111.09 515.319 111.09C477.139 111.09 451.609 135.7 451.609 172.27ZM712.948 94.99C723.528 94.99 730.888 89.47 730.888 78.43C730.888 68.31 724.908 61.64 712.948 61.64C702.368 61.64 695.238 67.16 695.238 78.43C695.238 88.55 700.988 94.99 712.948 94.99ZM727.438 114.54H636.128V63.94H607.378V114.54H576.328V138.69H607.378V198.03C607.378 218.73 619.108 232.53 648.088 232.53C657.748 232.53 667.868 230.92 673.158 228.62V205.16C667.638 207 659.818 208.15 652.688 208.15C645.328 208.15 638.888 207 636.128 205.62V138.69H698.918V230H727.438V114.54ZM744.293 172.27C744.293 208.61 769.823 232.99 807.543 232.99C841.583 232.99 866.423 212.98 868.953 184.92H839.053C836.063 198.03 823.643 206.77 808.233 206.77C787.993 206.77 774.423 192.74 774.423 172.04C774.423 151.34 787.993 137.54 808.233 137.54C823.873 137.54 836.293 146.05 839.053 158.93H868.953C866.883 131.33 842.273 111.09 808.003 111.09C769.823 111.09 744.293 135.7 744.293 172.27Z" fill="white"/>
</svg>
