<svg width="72" height="72" viewBox="0 0 72 72" fill="none" xmlns="http://www.w3.org/2000/svg">
<g opacity="0.8">
<path d="M62.1663 25.5661C63.737 25.5661 65.0103 24.2927 65.0103 22.7221C65.0103 21.1514 63.737 19.8781 62.1663 19.8781C60.5956 19.8781 59.3223 21.1514 59.3223 22.7221C59.3223 24.2927 60.5956 25.5661 62.1663 25.5661Z" fill="#20E220"/>
</g>
<g opacity="0.8">
<path d="M68.8373 31.674C69.8347 31.674 70.6432 30.8654 70.6432 29.868C70.6432 28.8706 69.8347 28.062 68.8373 28.062C67.8398 28.062 67.0312 28.8706 67.0312 29.868C67.0312 30.8654 67.8398 31.674 68.8373 31.674Z" fill="#00B7E2"/>
</g>
<g opacity="0.8">
<path d="M45.7854 61.224C36.3594 61.224 28.6914 53.556 28.6914 44.13C28.6914 34.704 36.3594 27.036 45.7854 27.036C55.2114 27.036 62.8794 34.704 62.8794 44.13C62.8794 51.924 57.6114 58.734 50.0754 60.684C49.9914 60.708 49.9074 60.72 49.8174 60.732C49.7394 60.762 49.6554 60.786 49.5714 60.804C48.3354 61.086 47.0634 61.224 45.7854 61.224ZM45.7854 30.708C38.3814 30.708 32.3634 36.732 32.3634 44.13C32.3634 51.528 38.3874 57.552 45.7854 57.552C46.7934 57.552 47.7954 57.438 48.7614 57.222C48.8274 57.204 48.8934 57.198 48.9654 57.186C49.0254 57.162 49.0914 57.144 49.1574 57.126C55.0734 55.596 59.2074 50.25 59.2074 44.13C59.2074 36.726 53.1834 30.708 45.7854 30.708Z" fill="#00B7E2"/>
</g>
<g opacity="0.8">
<path d="M2.86147 58.818C3.69321 58.818 4.36747 58.1438 4.36747 57.312C4.36747 56.4803 3.69321 55.806 2.86147 55.806C2.02973 55.806 1.35547 56.4803 1.35547 57.312C1.35547 58.1438 2.02973 58.818 2.86147 58.818Z" fill="#20E220"/>
</g>
<g opacity="0.8">
<path d="M34.2543 44.982C24.8223 44.982 17.1543 37.308 17.1543 27.882C17.1543 18.456 24.8283 10.782 34.2543 10.782C43.6803 10.782 51.3543 18.456 51.3543 27.882C51.3543 35.682 46.0863 42.492 38.5443 44.442C38.4603 44.466 38.3763 44.478 38.2863 44.49C38.2083 44.52 38.1243 44.544 38.0403 44.562C36.8043 44.844 35.5323 44.982 34.2543 44.982ZM34.2543 14.466C26.8563 14.466 20.8383 20.484 20.8383 27.882C20.8383 35.28 26.8563 41.298 34.2543 41.298C35.2623 41.298 36.2583 41.19 37.2303 40.968C37.2963 40.95 37.3623 40.944 37.4343 40.932C37.4943 40.908 37.5603 40.89 37.6263 40.872C43.5423 39.342 47.6703 34.002 47.6703 27.882C47.6703 20.484 41.6523 14.466 34.2543 14.466Z" fill="#20E220"/>
</g>
<g opacity="0.8">
<path d="M33.3593 56.904C32.8793 56.904 32.4053 56.706 32.0633 56.37C31.9793 56.28 31.9013 56.19 31.8353 56.088C31.7693 55.986 31.7153 55.884 31.6673 55.77C31.6193 55.662 31.5893 55.542 31.5653 55.428C31.5413 55.308 31.5293 55.188 31.5293 55.068C31.5293 54.948 31.5413 54.828 31.5653 54.708C31.5893 54.594 31.6193 54.48 31.6673 54.366C31.7153 54.258 31.7693 54.15 31.8353 54.048C31.9013 53.952 31.9793 53.856 32.0633 53.772C32.7473 53.088 33.9773 53.088 34.6613 53.772C34.7453 53.856 34.8233 53.952 34.8893 54.048C34.9553 54.15 35.0093 54.258 35.0573 54.366C35.1053 54.48 35.1413 54.594 35.1593 54.708C35.1833 54.828 35.1953 54.948 35.1953 55.068C35.1953 55.188 35.1833 55.308 35.1593 55.428C35.1413 55.542 35.1053 55.662 35.0573 55.77C35.0093 55.884 34.9553 55.986 34.8893 56.088C34.8233 56.19 34.7453 56.28 34.6613 56.37C34.3193 56.706 33.8453 56.904 33.3593 56.904Z" fill="#00B7E2"/>
<path d="M21.6602 61.1941C20.6462 61.1281 19.8782 60.2581 19.9442 59.2501C20.0042 58.2361 20.8802 57.4681 21.8882 57.5281C22.9022 57.5941 23.6702 58.4641 23.6042 59.4781C23.5442 60.4501 22.7402 61.2001 21.7742 61.2001C21.7382 61.2001 21.6962 61.1941 21.6602 61.1941ZM26.2982 59.0821C25.9502 58.1341 26.4302 57.0781 27.3842 56.7241C28.3322 56.3701 29.3882 56.8501 29.7422 57.8041C30.0962 58.7521 29.6102 59.8081 28.6622 60.1621C28.4522 60.2401 28.2362 60.2761 28.0202 60.2761C27.2762 60.2761 26.5742 59.8201 26.2982 59.0821ZM14.8442 59.3041C13.9442 58.8421 13.5962 57.7321 14.0582 56.8321C14.5262 55.9321 15.6362 55.5841 16.5362 56.0461C17.4362 56.5141 17.7842 57.6181 17.3222 58.5241C16.9922 59.1541 16.3562 59.5141 15.6902 59.5141C15.4082 59.5141 15.1142 59.4481 14.8442 59.3041ZM9.3782 54.8221C8.7422 54.0301 8.8742 52.8721 9.6662 52.2421C10.4582 51.6061 11.6102 51.7381 12.2462 52.5301C12.8762 53.3161 12.7502 54.4741 11.9582 55.1101C11.6162 55.3801 11.2142 55.5121 10.8122 55.5121C10.2722 55.5121 9.7382 55.2721 9.3782 54.8221ZM36.4262 51.0841C35.4782 50.7361 34.9862 49.6801 35.3342 48.7261C35.6762 47.7781 36.7322 47.2861 37.6862 47.6341C38.6342 47.9761 39.1262 49.0321 38.7842 49.9861C38.5082 50.7301 37.8062 51.1921 37.0562 51.1921C36.8462 51.1921 36.6362 51.1561 36.4262 51.0841ZM6.1922 48.5101C5.9282 47.5321 6.5162 46.5241 7.4942 46.2661C8.4722 46.0021 9.4802 46.5901 9.7382 47.5681C9.9962 48.5461 9.4142 49.5541 8.4362 49.8121C8.2802 49.8541 8.11821 49.8721 7.9622 49.8721C7.15221 49.8721 6.4082 49.3321 6.1922 48.5101ZM36.1142 43.2301C36.0482 42.2161 36.8162 41.3401 37.8242 41.2741C38.8382 41.2081 39.7142 41.9761 39.7802 42.9841C39.8462 43.9981 39.0842 44.8681 38.0702 44.9401H37.9442C36.9902 44.9401 36.1802 44.1961 36.1142 43.2301ZM7.36221 43.5481C6.36021 43.3861 5.6762 42.4441 5.8382 41.4421C5.9942 40.4461 6.9362 39.7621 7.9382 39.9181C8.9402 40.0801 9.6182 41.0221 9.4622 42.0241C9.3182 42.9241 8.5382 43.5721 7.6502 43.5721C7.5542 43.5721 7.45821 43.5601 7.36221 43.5481ZM34.6022 37.8901C34.1342 36.9901 34.4762 35.8801 35.3702 35.4061C36.2702 34.9381 37.3802 35.2801 37.8542 36.1801C38.3222 37.0741 37.9802 38.1841 37.0802 38.6581C36.8102 38.8021 36.5162 38.8681 36.2282 38.8681C35.5682 38.8681 34.9322 38.5141 34.6022 37.8901ZM8.9102 37.3801C8.0582 36.8281 7.8122 35.6941 8.3642 34.8421C8.9162 33.9901 10.0502 33.7441 10.9022 34.2961C11.7542 34.8481 12.0002 35.9821 11.4482 36.8341C11.0942 37.3801 10.5062 37.6741 9.9062 37.6741C9.5642 37.6741 9.2162 37.5781 8.9102 37.3801ZM31.0622 33.6061C30.2642 32.9821 30.1322 31.8241 30.7622 31.0321C31.3922 30.2341 32.5442 30.1021 33.3422 30.7321C34.1342 31.3621 34.2722 32.5141 33.6362 33.3121C33.2762 33.7681 32.7422 34.0021 32.2022 34.0021C31.8002 34.0021 31.3982 33.8761 31.0622 33.6061ZM12.8222 32.3701C12.2702 31.5181 12.5042 30.3841 13.3562 29.8261C14.2022 29.2741 15.3422 29.5141 15.8942 30.3601C16.4522 31.2061 16.2122 32.3461 15.3662 32.8981C15.0542 33.1021 14.7062 33.1981 14.3642 33.1981C13.7642 33.1981 13.1762 32.9101 12.8222 32.3701ZM26.0882 31.1401C25.1102 30.8821 24.5162 29.8801 24.7742 28.8961C25.0262 27.9181 26.0282 27.3301 27.0062 27.5821C27.9902 27.8401 28.5782 28.8361 28.3262 29.8201C28.1102 30.6481 27.3662 31.1941 26.5502 31.1941C26.3942 31.1941 26.2442 31.1761 26.0882 31.1401ZM18.4322 29.3641C18.2642 28.3681 18.9422 27.4201 19.9442 27.2581C20.9462 27.0961 21.8882 27.7741 22.0502 28.7701C22.2182 29.7721 21.5402 30.7201 20.5382 30.8821C20.4362 30.9001 20.3402 30.9061 20.2382 30.9061C19.3562 30.9061 18.5762 30.2641 18.4322 29.3641Z" fill="#00B7E2"/>
<path d="M33.6895 56.5741C33.5695 56.5741 33.4495 56.5681 33.3295 56.5441C33.2155 56.5201 33.1015 56.4841 32.9875 56.4361C32.8795 56.3881 32.7715 56.3341 32.6695 56.2681C32.5735 56.2021 32.4775 56.1241 32.3935 56.0401C32.3095 55.9561 32.2315 55.8601 32.1655 55.7581C32.0995 55.6621 32.0395 55.5541 31.9975 55.4461C31.9495 55.3321 31.9135 55.2181 31.8895 55.0981C31.8655 54.9841 31.8535 54.8641 31.8535 54.7441C31.8535 54.2581 32.0515 53.7841 32.3935 53.4421C32.4775 53.3581 32.5735 53.2861 32.6695 53.2141C32.7715 53.1481 32.8795 53.0941 32.9875 53.0461C33.1015 52.9981 33.2155 52.9681 33.3295 52.9441C33.5695 52.8961 33.8095 52.8961 34.0495 52.9441C34.1635 52.9681 34.2835 52.9981 34.3915 53.0461C34.5055 53.0941 34.6075 53.1481 34.7095 53.2141C34.8115 53.2861 34.9015 53.3581 34.9855 53.4421C35.3275 53.7841 35.5255 54.2581 35.5255 54.7441C35.5255 54.8641 35.5135 54.9841 35.4895 55.0981C35.4655 55.2181 35.4295 55.3321 35.3875 55.4461C35.3395 55.5541 35.2795 55.6621 35.2135 55.7581C35.1475 55.8601 35.0755 55.9561 34.9855 56.0401C34.9015 56.1241 34.8115 56.2021 34.7095 56.2681C34.6075 56.3341 34.5055 56.3881 34.3915 56.4361C34.2835 56.4841 34.1635 56.5201 34.0495 56.5441C33.9295 56.5681 33.8095 56.5741 33.6895 56.5741Z" fill="#00B7E2"/>
</g>
</svg>
