<svg width="224" height="112" viewBox="0 0 224 112" fill="none" xmlns="http://www.w3.org/2000/svg">
<g id="Layer_1" clip-path="url(#clip0_44_8113)">
<path id="Vector" d="M33.2036 44.0337V65.4818C33.2036 66.7391 32.1904 67.7523 30.933 67.7523H2.41702C1.15968 67.7523 0.134277 66.7391 0.134277 65.4818V44.0337C0.134277 42.7764 1.15968 41.751 2.41702 41.751H30.933C32.1904 41.751 33.2036 42.7764 33.2036 44.0337ZM32.4467 65.0911V44.2168C32.4467 43.2891 31.6899 42.5322 30.7621 42.5322H2.60013C1.67238 42.5322 0.903331 43.2891 0.903331 44.2168V58.9143L9.22864 50.589L20.0564 61.3313L24.4266 56.9245L32.4345 65.0911H32.4467Z" fill="#131144"/>
<path id="Vector_2" d="M32.4467 44.2168V65.0911L24.4388 56.9245L20.0686 61.3313L9.24083 50.589L0.915527 58.9143V44.2168C0.915527 43.2891 1.68458 42.5322 2.61233 42.5322H30.7743C31.7021 42.5322 32.4589 43.2891 32.4589 44.2168H32.4467Z" fill="#55CBDE"/>
<path id="Vector_3" d="M30.933 41.751H2.41702C1.15968 41.751 0.134277 42.7764 0.134277 44.0337V65.4818C0.134277 66.7391 1.15968 67.7523 2.41702 67.7523H30.933C32.1904 67.7523 33.2036 66.7391 33.2036 65.4818V44.0337C33.2036 42.7764 32.1904 41.751 30.933 41.751Z" stroke="#131144" stroke-width="0.22" stroke-miterlimit="10"/>
<path id="Vector_4" d="M19.8609 46.9146C18.5425 46.9146 17.4561 47.9888 17.4561 49.3194C17.4561 50.6499 18.5303 51.7242 19.8609 51.7242C21.1915 51.7242 22.2657 50.6377 22.2657 49.3194C22.2657 48.001 21.1915 46.9146 19.8609 46.9146Z" fill="#131144"/>
<path id="Vector_5" d="M28.5159 93.6072C28.5281 95.2674 28.1863 96.8421 27.4539 98.3314C25.513 102.287 22.3635 104.606 17.9811 105.18C17.5417 105.241 17.4074 105.399 17.4196 105.827C17.444 106.901 17.4196 107.975 17.4196 109.037C17.4196 109.171 17.4196 109.306 17.4196 109.44C17.3708 109.953 17.0656 110.27 16.6261 110.246C16.1378 110.209 15.9181 109.892 15.9059 109.44C15.8815 108.793 15.9059 108.134 15.9059 107.487C15.9059 106.937 15.8815 106.376 15.9059 105.814C15.9303 105.399 15.8083 105.228 15.3566 105.167C11.316 104.667 8.28862 102.604 6.27443 99.0883C5.31006 97.4159 4.83398 95.597 4.82178 93.6561C4.82178 92.9969 5.0293 92.6917 5.51759 92.6795C6.03029 92.6551 6.28664 92.9847 6.29885 93.6438C6.50637 99.7963 11.7921 104.362 17.9201 103.678C22.8518 103.129 26.8191 98.8563 27.0145 93.8758C27.0145 93.7781 27.0145 93.6805 27.0267 93.595C27.0511 92.9725 27.3074 92.6673 27.8079 92.6795C28.284 92.6917 28.5159 92.9969 28.5159 93.595V93.6072Z" fill="#131144"/>
<path id="Vector_6" d="M23.4254 85.3672C23.6939 88.3213 23.7184 91.3121 23.4132 94.254C23.047 97.8795 19.9708 100.345 16.333 100.223C12.8906 100.101 10.0707 97.3058 9.8632 93.7413C9.78995 92.4229 9.85099 91.1046 9.85099 89.7862H9.87541C9.87541 88.3457 9.76554 86.9053 9.89982 85.477C10.2538 81.937 13.1347 79.3368 16.5894 79.3124C20.1172 79.2758 23.0958 81.7905 23.4254 85.3672ZM21.9849 93.3141C22.0094 92.1422 21.9849 90.9825 21.9849 89.8106C21.9849 88.6387 21.9849 87.5156 21.9849 86.3682C21.9849 85.7944 21.9483 85.2207 21.7896 84.6592C21.0816 82.2177 18.6768 80.5575 16.1987 80.8383C13.4887 81.1435 11.4623 83.1821 11.3891 85.8311C11.3159 88.5533 11.3036 91.2755 11.4135 93.9855C11.5356 96.8786 14.5263 99.1613 17.3828 98.6852C20.1783 98.2091 21.9483 96.1705 21.9849 93.3141Z" fill="#131144"/>
<path id="Vector_7" d="M21.9854 89.811C21.9854 90.9829 21.9976 92.1425 21.9854 93.3144C21.9366 96.1587 20.1665 98.1973 17.3833 98.6856C14.539 99.1617 11.536 96.8789 11.414 93.9858C11.3041 91.2758 11.3163 88.5536 11.3895 85.8314C11.4628 83.1825 13.5014 81.1439 16.1992 80.8387C18.6772 80.5701 21.0821 82.2181 21.7901 84.6595C21.9488 85.2211 21.9854 85.7948 21.9854 86.3685C21.9854 87.516 21.9854 88.6635 21.9854 89.811Z" fill="#A590DD"/>
<path id="Vector_8" d="M16.6016 98.9051C15.4053 98.9051 14.1968 98.4656 13.1958 97.6599C12.024 96.7078 11.3159 95.3772 11.2671 93.9978C11.1694 91.6296 11.1572 89.0417 11.2427 85.8312C11.3159 83.1578 13.3912 80.9971 16.1866 80.6919C18.7257 80.4112 21.2038 82.108 21.9484 84.6227C22.1193 85.2208 22.1437 85.819 22.1559 86.3683C22.1559 87.1373 22.1559 87.8942 22.1559 88.6632V89.8107V90.8239C22.1559 91.654 22.1559 92.4841 22.1559 93.3142C22.1071 96.2195 20.3004 98.3313 17.4195 98.8318C17.151 98.8807 16.8824 98.8929 16.6139 98.8929L16.6016 98.9051ZM16.7359 80.9605C16.565 80.9605 16.3941 80.9605 16.211 80.9849C13.5254 81.2779 11.6089 83.2799 11.5357 85.8312C11.4502 89.0295 11.4624 91.6174 11.5601 93.9734C11.6089 95.2673 12.2803 96.5125 13.3789 97.4158C14.5386 98.3557 15.9913 98.7708 17.3463 98.5389C20.0685 98.075 21.7775 96.073 21.8263 93.3264C21.8385 92.4963 21.8263 91.6662 21.8263 90.8361V89.8229V88.6754C21.8263 87.9064 21.8263 87.1495 21.8263 86.3805C21.8263 85.8434 21.7897 85.2696 21.631 84.7203C20.984 82.5108 18.9332 80.9727 16.7237 80.9727L16.7359 80.9605Z" fill="#A590DD"/>
<path id="Vector_9" d="M28.223 26.2112H5.24902V3.2373H28.223V26.2112ZM6.46974 24.9905H27.0022V4.45802H6.46974V24.9905Z" fill="#131144"/>
<path id="Vector_10" d="M6.15238 6.86287C7.68952 6.86287 8.93562 5.61677 8.93562 4.07963C8.93562 2.54249 7.68952 1.29639 6.15238 1.29639C4.61524 1.29639 3.36914 2.54249 3.36914 4.07963C3.36914 5.61677 4.61524 6.86287 6.15238 6.86287Z" fill="#61BD73"/>
<path id="Vector_11" d="M6.15239 7.47323C4.28469 7.47323 2.75879 5.94734 2.75879 4.07963C2.75879 2.21193 4.28469 0.686035 6.15239 0.686035C8.02009 0.686035 9.54599 2.21193 9.54599 4.07963C9.54599 5.94734 8.02009 7.47323 6.15239 7.47323ZM6.15239 1.90675C4.95608 1.90675 3.97951 2.88333 3.97951 4.07963C3.97951 5.27594 4.95608 6.25251 6.15239 6.25251C7.34869 6.25251 8.32527 5.27594 8.32527 4.07963C8.32527 2.88333 7.34869 1.90675 6.15239 1.90675Z" fill="#131144"/>
<path id="Vector_12" d="M27.1973 6.86287C28.7344 6.86287 29.9805 5.61677 29.9805 4.07963C29.9805 2.54249 28.7344 1.29639 27.1973 1.29639C25.6602 1.29639 24.4141 2.54249 24.4141 4.07963C24.4141 5.61677 25.6602 6.86287 27.1973 6.86287Z" fill="#61BD73"/>
<path id="Vector_13" d="M27.1973 7.47323C25.3296 7.47323 23.8037 5.94734 23.8037 4.07963C23.8037 2.21193 25.3296 0.686035 27.1973 0.686035C29.065 0.686035 30.5909 2.21193 30.5909 4.07963C30.5909 5.94734 29.065 7.47323 27.1973 7.47323ZM27.1973 1.90675C26.001 1.90675 25.0244 2.88333 25.0244 4.07963C25.0244 5.27594 26.001 6.25251 27.1973 6.25251C28.3936 6.25251 29.3702 5.27594 29.3702 4.07963C29.3702 2.88333 28.3936 1.90675 27.1973 1.90675Z" fill="#131144"/>
<path id="Vector_14" d="M6.15238 28.1768C7.68952 28.1768 8.93562 26.9307 8.93562 25.3936C8.93562 23.8565 7.68952 22.6104 6.15238 22.6104C4.61524 22.6104 3.36914 23.8565 3.36914 25.3936C3.36914 26.9307 4.61524 28.1768 6.15238 28.1768Z" fill="#61BD73"/>
<path id="Vector_15" d="M6.15239 28.7872C4.28469 28.7872 2.75879 27.2613 2.75879 25.3936C2.75879 23.5259 4.28469 22 6.15239 22C8.02009 22 9.54599 23.5259 9.54599 25.3936C9.54599 27.2613 8.02009 28.7872 6.15239 28.7872ZM6.15239 23.2207C4.95608 23.2207 3.97951 24.1973 3.97951 25.3936C3.97951 26.5899 4.95608 27.5665 6.15239 27.5665C7.34869 27.5665 8.32527 26.5899 8.32527 25.3936C8.32527 24.1973 7.34869 23.2207 6.15239 23.2207Z" fill="#131144"/>
<path id="Vector_16" d="M27.1973 28.1768C28.7344 28.1768 29.9805 26.9307 29.9805 25.3936C29.9805 23.8565 28.7344 22.6104 27.1973 22.6104C25.6602 22.6104 24.4141 23.8565 24.4141 25.3936C24.4141 26.9307 25.6602 28.1768 27.1973 28.1768Z" fill="#61BD73"/>
<path id="Vector_17" d="M27.1973 28.7872C25.3296 28.7872 23.8037 27.2613 23.8037 25.3936C23.8037 23.5259 25.3296 22 27.1973 22C29.065 22 30.5909 23.5259 30.5909 25.3936C30.5909 27.2613 29.065 28.7872 27.1973 28.7872ZM27.1973 23.2207C26.001 23.2207 25.0244 24.1973 25.0244 25.3936C25.0244 26.5899 26.001 27.5665 27.1973 27.5665C28.3936 27.5665 29.3702 26.5899 29.3702 25.3936C29.3702 24.1973 28.3936 23.2207 27.1973 23.2207Z" fill="#131144"/>
<path id="Vector_18" d="M11.5112 11.8311H10.2905V8.70605H22.7785V11.8189H21.5578V9.92677H11.5112V11.8311Z" fill="#131144"/>
<path id="Vector_19" d="M18.7012 19.4976H14.3555V20.7183H18.7012V19.4976Z" fill="#131144"/>
<path id="Vector_20" d="M17.1387 9.31641H15.918V20.1076H17.1387V9.31641Z" fill="#131144"/>
<path id="Vector_21" d="M119.508 33.1694H80.7017C79.1713 33.1694 77.9307 34.4101 77.9307 35.9405V74.7471C77.9307 76.2775 79.1713 77.5182 80.7017 77.5182H119.508C121.039 77.5182 122.279 76.2775 122.279 74.7471V35.9405C122.279 34.4101 121.039 33.1694 119.508 33.1694Z" fill="#61BD73"/>
<path id="Vector_22" d="M119.508 78.1285H80.7017C78.834 78.1285 77.3203 76.6148 77.3203 74.7471V35.9405C77.3203 34.0728 78.834 32.5591 80.7017 32.5591H119.508C121.376 32.5591 122.89 34.0728 122.89 35.9405V74.7471C122.89 76.6148 121.376 78.1285 119.508 78.1285ZM80.7017 33.7798C79.5054 33.7798 78.541 34.7442 78.541 35.9405V74.7471C78.541 75.9434 79.5054 76.9078 80.7017 76.9078H119.508C120.705 76.9078 121.669 75.9434 121.669 74.7471V35.9405C121.669 34.7442 120.705 33.7798 119.508 33.7798H80.7017Z" fill="#131144"/>
<path id="Vector_23" d="M73.2187 54.9712H37.6836V56.1919H73.2187V54.9712Z" fill="#131144"/>
<path id="Vector_24" d="M69.1777 60.5744L68.3477 59.6832L72.7544 55.5816L68.3477 51.48L69.1777 50.5889L74.5489 55.5816L69.1777 60.5744Z" fill="#131144"/>
<path id="Vector_25" d="M174.416 29.2265H151.064C149.514 29.2265 148.244 27.9569 148.244 26.4066V3.05424C148.244 1.50392 149.514 0.234375 151.064 0.234375H174.416C175.967 0.234375 177.236 1.50392 177.236 3.05424V26.4188C177.236 27.9691 175.967 29.2387 174.416 29.2387V29.2265ZM151.064 1.45509C150.185 1.45509 149.465 2.17532 149.465 3.05424V26.4188C149.465 27.2977 150.185 28.0179 151.064 28.0179H174.416C175.295 28.0179 176.016 27.2977 176.016 26.4188V3.05424C176.016 2.17532 175.295 1.45509 174.416 1.45509H151.064Z" fill="#131144"/>
<path id="Vector_26" d="M220.877 69.8397H197.525C195.975 69.8397 194.705 68.5702 194.705 67.0199V43.6675C194.705 42.1172 195.975 40.8477 197.525 40.8477H220.877C222.428 40.8477 223.697 42.1172 223.697 43.6675V67.0199C223.697 68.5702 222.428 69.8397 220.877 69.8397ZM197.513 42.0562C196.634 42.0562 195.914 42.7764 195.914 43.6553V67.0077C195.914 67.8866 196.634 68.6068 197.513 68.6068H220.865C221.744 68.6068 222.464 67.8866 222.464 67.0077V43.6553C222.464 42.7764 221.744 42.0562 220.865 42.0562H197.513Z" fill="#131144"/>
<path id="Vector_27" d="M174.416 111.234H151.064C149.514 111.234 148.244 109.965 148.244 108.414V85.062C148.244 83.5117 149.514 82.2422 151.064 82.2422H174.416C175.967 82.2422 177.236 83.5117 177.236 85.062V108.414C177.236 109.965 175.967 111.234 174.416 111.234ZM151.064 83.4629C150.185 83.4629 149.465 84.1831 149.465 85.062V108.414C149.465 109.293 150.185 110.014 151.064 110.014H174.416C175.295 110.014 176.016 109.293 176.016 108.414V85.062C176.016 84.1831 175.295 83.4629 174.416 83.4629H151.064Z" fill="#131144"/>
<path id="Vector_28" d="M195.425 55.9116H122.865V57.1323H195.425V55.9116Z" fill="#131144"/>
<path id="Vector_29" d="M163.356 28.1279H162.136V82.8406H163.356V28.1279Z" fill="#131144"/>
<path id="Vector_30" d="M82.6914 51.2358V50.6621H86.1216V51.2358H84.7422V55.0933H84.0708V51.2358H82.6914Z" fill="#131144"/>
<path id="Vector_31" d="M86.4883 55.0933V51.7607H87.1109V52.2857H87.1475C87.2085 52.1025 87.3184 51.9683 87.4649 51.8584C87.6236 51.7607 87.7945 51.6997 87.9898 51.6997C88.0264 51.6997 88.0752 51.6997 88.1363 51.6997C88.1973 51.6997 88.2339 51.6997 88.2705 51.6997V52.3223C88.2705 52.3223 88.1973 52.3101 88.1363 52.2979C88.0752 52.2979 88.002 52.2857 87.9409 52.2857C87.7945 52.2857 87.648 52.3223 87.5381 52.3833C87.4282 52.4443 87.3306 52.542 87.2573 52.6519C87.1841 52.7617 87.1597 52.896 87.1597 53.0425V55.0811H86.5127L86.4883 55.0933Z" fill="#131144"/>
<path id="Vector_32" d="M89.7715 55.1665C89.564 55.1665 89.3687 55.1299 89.1978 55.0445C89.0269 54.959 88.8926 54.8492 88.7949 54.7027C88.6973 54.5562 88.6484 54.3731 88.6484 54.1533C88.6484 53.9702 88.6851 53.8116 88.7583 53.6895C88.8315 53.5674 88.9292 53.4697 89.0513 53.3965C89.1733 53.3233 89.3076 53.2744 89.4663 53.2378C89.6128 53.2012 89.7715 53.1768 89.9302 53.1524C90.1255 53.1279 90.2964 53.1157 90.4185 53.0913C90.5405 53.0791 90.6382 53.0547 90.687 53.0181C90.7481 52.9815 90.7725 52.9326 90.7725 52.8472C90.7725 52.6397 90.7237 52.4932 90.6138 52.3955C90.5039 52.2979 90.3452 52.2368 90.1377 52.2368C89.9302 52.2368 89.7471 52.2857 89.625 52.3833C89.5029 52.481 89.4175 52.5908 89.3687 52.7007L88.7583 52.5664C88.8315 52.3589 88.9414 52.2002 89.0757 52.0781C89.21 51.9561 89.3809 51.8584 89.564 51.8096C89.7471 51.7607 89.9424 51.7241 90.1377 51.7241C90.272 51.7241 90.4063 51.7363 90.565 51.773C90.7115 51.8096 90.8579 51.8584 90.98 51.9439C91.1021 52.0293 91.2242 52.1392 91.2974 52.2979C91.3706 52.4566 91.4195 52.6519 91.4195 52.896V55.1055H90.7847V54.6538H90.7603C90.7114 54.7393 90.6504 54.8247 90.565 54.898C90.4795 54.9834 90.3696 55.0445 90.2476 55.1055C90.1133 55.1543 89.9546 55.191 89.7715 55.191V55.1665ZM89.9058 54.6538C90.0889 54.6538 90.2354 54.6172 90.3696 54.544C90.4917 54.4707 90.5894 54.3853 90.6626 54.2632C90.7359 54.1533 90.7603 54.0191 90.7603 53.897V53.4697C90.7603 53.4697 90.687 53.5186 90.626 53.5308C90.565 53.5552 90.4795 53.5674 90.4063 53.5796C90.3208 53.5918 90.2354 53.604 90.1621 53.6162C90.0889 53.6162 90.0156 53.6406 89.9668 53.6406C89.8447 53.6529 89.7227 53.6895 89.625 53.7261C89.5273 53.7627 89.4419 53.8238 89.3809 53.8848C89.3198 53.958 89.2832 54.0435 89.2832 54.1656C89.2832 54.3243 89.3442 54.4463 89.4663 54.5318C89.5884 54.6172 89.7349 54.6538 89.918 54.6538H89.9058Z" fill="#131144"/>
<path id="Vector_33" d="M92.9214 53.1157V55.0933H92.2744V51.7607H92.897V52.2979H92.9336C93.0068 52.127 93.1289 51.9805 93.2998 51.8706C93.4585 51.7607 93.666 51.7119 93.9224 51.7119C94.1543 51.7119 94.3496 51.7607 94.5205 51.8584C94.6914 51.9561 94.8257 52.0903 94.9234 52.2857C95.021 52.4688 95.0699 52.7007 95.0699 52.9815V55.0933H94.4229V53.0547C94.4229 52.8106 94.3618 52.6275 94.2398 52.4932C94.1177 52.3589 93.9346 52.2857 93.7271 52.2857C93.5806 52.2857 93.4463 52.3223 93.3242 52.3833C93.2022 52.4443 93.1167 52.542 93.0435 52.6641C92.9702 52.7862 92.9458 52.9448 92.9458 53.1157H92.9214Z" fill="#131144"/>
<path id="Vector_34" d="M98.4141 52.5786L97.8282 52.6763C97.8037 52.603 97.7671 52.5298 97.7183 52.4566C97.6695 52.3833 97.5962 52.3345 97.5108 52.2857C97.4253 52.2368 97.3032 52.2246 97.169 52.2246C96.9859 52.2246 96.8272 52.2612 96.7051 52.3467C96.583 52.4321 96.522 52.5298 96.522 52.6641C96.522 52.7739 96.5586 52.8716 96.6441 52.9326C96.7295 52.9937 96.8638 53.0547 97.0469 53.1035L97.5718 53.2256C97.877 53.2988 98.1089 53.4087 98.2554 53.5552C98.4019 53.7017 98.4751 53.897 98.4751 54.1289C98.4751 54.3243 98.4141 54.5074 98.3042 54.6661C98.1944 54.8247 98.0357 54.9468 97.8282 55.0323C97.6206 55.1177 97.3887 55.1665 97.1201 55.1665C96.7417 55.1665 96.4487 55.0811 96.2046 54.9224C95.9727 54.7637 95.8262 54.5318 95.7773 54.2388L96.3999 54.1411C96.4365 54.2998 96.522 54.4219 96.6441 54.5074C96.7661 54.5928 96.9248 54.6294 97.1201 54.6294C97.3277 54.6294 97.4986 54.5806 97.6328 54.4952C97.7549 54.4097 97.8282 54.2998 97.8282 54.1656C97.8282 54.0557 97.7915 53.9702 97.7061 53.9092C97.6328 53.836 97.5108 53.7871 97.3521 53.7505L96.7905 53.6284C96.4854 53.5552 96.2534 53.4453 96.1069 53.2866C95.9605 53.1279 95.8872 52.9326 95.8872 52.7007C95.8872 52.5054 95.936 52.3345 96.0459 52.188C96.1558 52.0415 96.3023 51.9316 96.4976 51.8462C96.6929 51.7607 96.9126 51.7241 97.1568 51.7241C97.5108 51.7241 97.8037 51.7974 98.0113 51.9561C98.2188 52.1147 98.3531 52.3223 98.4141 52.5786Z" fill="#131144"/>
<path id="Vector_35" d="M100.782 51.7608V52.2857H98.9023V51.7608H100.782ZM99.4151 55.0933V51.3823C99.4151 51.1748 99.4639 51.0039 99.5493 50.8574C99.6348 50.7232 99.7568 50.6133 99.9155 50.5522C100.062 50.479 100.233 50.4546 100.404 50.4546C100.538 50.4546 100.648 50.4546 100.733 50.4912C100.831 50.5156 100.892 50.5278 100.941 50.5522L100.794 51.0772C100.794 51.0772 100.721 51.0527 100.672 51.0405C100.624 51.0283 100.563 51.0283 100.501 51.0283C100.343 51.0283 100.233 51.0649 100.16 51.1504C100.099 51.2236 100.062 51.3457 100.062 51.4922V55.1177H99.4151V55.0933Z" fill="#131144"/>
<path id="Vector_36" d="M102.711 55.1665C102.394 55.1665 102.125 55.0933 101.894 54.9468C101.662 54.8003 101.479 54.605 101.356 54.3487C101.222 54.0923 101.161 53.7871 101.161 53.4453C101.161 53.1035 101.222 52.7984 101.356 52.542C101.491 52.2856 101.662 52.0781 101.894 51.9439C102.125 51.7974 102.394 51.7241 102.711 51.7241C103.029 51.7241 103.297 51.7974 103.529 51.9439C103.761 52.0903 103.944 52.2856 104.066 52.542C104.189 52.7984 104.262 53.1035 104.262 53.4453C104.262 53.7871 104.201 54.0923 104.066 54.3487C103.932 54.605 103.761 54.8003 103.529 54.9468C103.297 55.0933 103.029 55.1665 102.711 55.1665ZM102.724 54.6172C102.931 54.6172 103.09 54.5684 103.224 54.4585C103.358 54.3487 103.456 54.2144 103.517 54.0313C103.578 53.8482 103.615 53.6529 103.615 53.4453C103.615 53.2378 103.578 53.0425 103.517 52.8594C103.456 52.6763 103.358 52.542 103.224 52.4321C103.09 52.3223 102.919 52.2734 102.724 52.2734C102.528 52.2734 102.345 52.3223 102.211 52.4321C102.077 52.542 101.979 52.6885 101.918 52.8594C101.857 53.0425 101.82 53.2378 101.82 53.4453C101.82 53.6529 101.857 53.8482 101.918 54.0313C101.979 54.2144 102.077 54.3487 102.211 54.4585C102.345 54.5684 102.516 54.6172 102.724 54.6172Z" fill="#131144"/>
<path id="Vector_37" d="M104.994 55.0933V51.7607H105.617V52.2857H105.653C105.714 52.1025 105.824 51.9683 105.971 51.8584C106.129 51.7607 106.3 51.6997 106.496 51.6997C106.532 51.6997 106.581 51.6997 106.642 51.6997C106.703 51.6997 106.74 51.6997 106.776 51.6997V52.3223C106.776 52.3223 106.703 52.3101 106.642 52.2979C106.581 52.2979 106.508 52.2857 106.447 52.2857C106.3 52.2857 106.154 52.3223 106.044 52.3833C105.934 52.4443 105.836 52.542 105.763 52.6519C105.69 52.7617 105.666 52.896 105.666 53.0425V55.0811H105.019L104.994 55.0933Z" fill="#131144"/>
<path id="Vector_38" d="M107.338 55.0933V51.7607H107.96V52.2979H107.997C108.07 52.1148 108.18 51.9683 108.339 51.8706C108.498 51.773 108.681 51.7119 108.9 51.7119C109.12 51.7119 109.303 51.7607 109.462 51.8706C109.608 51.9683 109.718 52.1148 109.792 52.2979H109.828C109.901 52.1148 110.036 51.9805 110.207 51.8706C110.377 51.7607 110.585 51.7119 110.829 51.7119C111.134 51.7119 111.378 51.8096 111.574 51.9927C111.769 52.1758 111.867 52.4688 111.867 52.8472V55.0811H111.22V52.9082C111.22 52.6885 111.159 52.5176 111.037 52.4199C110.915 52.3223 110.768 52.2734 110.597 52.2734C110.39 52.2734 110.219 52.3345 110.109 52.4688C109.987 52.603 109.938 52.7617 109.938 52.9693V55.0933H109.291V52.8838C109.291 52.7007 109.23 52.5542 109.12 52.4443C109.01 52.3345 108.864 52.2857 108.681 52.2857C108.559 52.2857 108.449 52.3223 108.339 52.3833C108.241 52.4443 108.156 52.542 108.095 52.6519C108.034 52.7617 107.997 52.896 107.997 53.0547V55.1055H107.35L107.338 55.0933Z" fill="#131144"/>
<path id="Vector_39" d="M114.162 55.1665C113.833 55.1665 113.552 55.0933 113.32 54.959C113.088 54.8247 112.905 54.6172 112.771 54.3609C112.636 54.1045 112.575 53.7993 112.575 53.4575C112.575 53.1157 112.636 52.8106 112.771 52.5542C112.893 52.2979 113.076 52.0903 113.308 51.9439C113.54 51.7974 113.808 51.7241 114.113 51.7241C114.296 51.7241 114.48 51.7607 114.663 51.8218C114.846 51.8828 114.992 51.9805 115.139 52.1148C115.285 52.249 115.395 52.4199 115.468 52.6275C115.554 52.835 115.59 53.0913 115.59 53.3965V53.6284H112.941V53.1402H114.956C114.956 52.9693 114.919 52.8228 114.846 52.6885C114.772 52.5542 114.675 52.4566 114.553 52.3711C114.431 52.2979 114.284 52.2612 114.113 52.2612C113.93 52.2612 113.771 52.3101 113.637 52.3955C113.503 52.481 113.393 52.603 113.332 52.7373C113.259 52.8838 113.222 53.0303 113.222 53.2012V53.5796C113.222 53.7993 113.259 53.9947 113.344 54.1411C113.417 54.2998 113.527 54.4219 113.674 54.4952C113.82 54.5806 113.979 54.6172 114.174 54.6172C114.296 54.6172 114.406 54.605 114.504 54.5684C114.602 54.5318 114.699 54.4829 114.76 54.4097C114.834 54.3365 114.895 54.251 114.931 54.1533L115.542 54.2632C115.493 54.4463 115.407 54.605 115.273 54.7393C115.139 54.8736 114.992 54.9834 114.797 55.0567C114.602 55.1299 114.394 55.1665 114.15 55.1665H114.162Z" fill="#131144"/>
<path id="Vector_40" d="M116.311 55.0933V51.7607H116.933V52.2857H116.97C117.031 52.1025 117.141 51.9683 117.287 51.8584C117.446 51.7607 117.617 51.6997 117.812 51.6997C117.849 51.6997 117.897 51.6997 117.959 51.6997C118.02 51.6997 118.056 51.6997 118.093 51.6997V52.3223C118.093 52.3223 118.02 52.3101 117.959 52.2979C117.897 52.2979 117.824 52.2857 117.763 52.2857C117.617 52.2857 117.47 52.3223 117.36 52.3833C117.251 52.4443 117.153 52.542 117.08 52.6519C117.006 52.7617 116.982 52.896 116.982 53.0425V55.0811H116.335L116.311 55.0933Z" fill="#131144"/>
<path id="Vector_41" d="M91.7734 57.9746H92.5913L94.0074 61.4292H94.0562L95.4722 57.9746H96.2901V62.418H95.6553V59.2075H95.6187L94.3125 62.418H93.7876L92.4815 59.2075H92.4448V62.418H91.8101V57.9746H91.7734Z" fill="#131144"/>
<path id="Vector_42" d="M98.5972 62.4913C98.2798 62.4913 98.0112 62.418 97.7793 62.2715C97.5474 62.125 97.3643 61.9297 97.2422 61.6734C97.1079 61.417 97.0469 61.1118 97.0469 60.77C97.0469 60.4282 97.1079 60.1231 97.2422 59.8667C97.3765 59.6104 97.5474 59.4028 97.7793 59.2686C98.0112 59.1221 98.2798 59.0488 98.5972 59.0488C98.9146 59.0488 99.1831 59.1221 99.4151 59.2686C99.647 59.415 99.8301 59.6104 99.9522 59.8667C100.074 60.1231 100.148 60.4282 100.148 60.77C100.148 61.1118 100.086 61.417 99.9522 61.6734C99.8179 61.9297 99.647 62.125 99.4151 62.2715C99.1831 62.418 98.9146 62.4913 98.5972 62.4913ZM98.5972 61.9419C98.8047 61.9419 98.9634 61.8931 99.0977 61.7832C99.232 61.6734 99.3296 61.5391 99.3907 61.356C99.4517 61.1729 99.4883 60.9776 99.4883 60.77C99.4883 60.5625 99.4517 60.3672 99.3907 60.1841C99.3296 60.001 99.232 59.8667 99.0977 59.7568C98.9634 59.647 98.7925 59.5982 98.5972 59.5982C98.4019 59.5982 98.2188 59.647 98.0845 59.7568C97.9502 59.8667 97.8526 60.0132 97.7915 60.1841C97.7305 60.3672 97.6939 60.5625 97.6939 60.77C97.6939 60.9776 97.7305 61.1729 97.7915 61.356C97.8526 61.5391 97.9502 61.6734 98.0845 61.7832C98.2188 61.8931 98.3897 61.9419 98.5972 61.9419Z" fill="#131144"/>
<path id="Vector_43" d="M102.125 62.4913C101.856 62.4913 101.612 62.418 101.405 62.2837C101.197 62.1495 101.026 61.9542 100.917 61.6978C100.794 61.4414 100.733 61.1363 100.733 60.7701C100.733 60.4038 100.794 60.0987 100.917 59.8423C101.039 59.586 101.209 59.3906 101.417 59.2564C101.625 59.1221 101.869 59.0488 102.137 59.0488C102.345 59.0488 102.516 59.0855 102.638 59.1465C102.76 59.2197 102.857 59.293 102.931 59.3906C103.004 59.4883 103.053 59.5615 103.089 59.6348H103.126V57.9868H103.773V62.4302H103.138V61.9175H103.089C103.053 61.9908 102.992 62.064 102.918 62.1617C102.845 62.2593 102.748 62.3326 102.613 62.4058C102.491 62.4791 102.32 62.5035 102.125 62.5035V62.4913ZM102.259 61.9297C102.442 61.9297 102.601 61.8809 102.735 61.7832C102.87 61.6856 102.967 61.5513 103.028 61.3682C103.102 61.1973 103.126 60.9898 103.126 60.7578C103.126 60.5259 103.089 60.3184 103.028 60.1475C102.967 59.9766 102.87 59.8423 102.735 59.7447C102.601 59.647 102.442 59.5982 102.259 59.5982C102.076 59.5982 101.905 59.647 101.771 59.7447C101.637 59.8423 101.539 59.9888 101.478 60.1597C101.417 60.3306 101.38 60.5259 101.38 60.7578C101.38 60.9898 101.417 61.1851 101.478 61.356C101.539 61.5391 101.649 61.6734 101.771 61.7832C101.905 61.8809 102.064 61.9419 102.259 61.9419V61.9297Z" fill="#131144"/>
<path id="Vector_44" d="M106.129 62.4913C105.799 62.4913 105.519 62.418 105.287 62.2837C105.055 62.1495 104.872 61.9419 104.737 61.6856C104.603 61.4292 104.542 61.124 104.542 60.7822C104.542 60.4404 104.603 60.1353 104.737 59.8789C104.859 59.6226 105.042 59.415 105.274 59.2686C105.506 59.1221 105.775 59.0488 106.08 59.0488C106.263 59.0488 106.446 59.0854 106.629 59.1465C106.813 59.2075 106.959 59.3052 107.106 59.4395C107.252 59.5737 107.362 59.7446 107.435 59.9522C107.521 60.1597 107.557 60.416 107.557 60.7212V60.9532H104.908V60.4649H106.922C106.922 60.294 106.886 60.1475 106.813 60.0132C106.739 59.8789 106.642 59.7813 106.52 59.6958C106.397 59.6226 106.251 59.5859 106.08 59.5859C105.897 59.5859 105.738 59.6348 105.604 59.7202C105.47 59.8057 105.36 59.9277 105.299 60.062C105.226 60.2085 105.189 60.355 105.189 60.5259V60.9043C105.189 61.1241 105.226 61.3194 105.311 61.4659C105.384 61.6245 105.494 61.7466 105.641 61.8199C105.787 61.9053 105.946 61.9419 106.141 61.9419C106.263 61.9419 106.373 61.9297 106.471 61.8931C106.568 61.8565 106.666 61.8077 106.727 61.7344C106.8 61.6612 106.861 61.5757 106.898 61.4781L107.508 61.5879C107.46 61.771 107.374 61.9297 107.24 62.064C107.106 62.1983 106.959 62.3081 106.764 62.3814C106.568 62.4546 106.361 62.4913 106.117 62.4913H106.129Z" fill="#131144"/>
<path id="Vector_45" d="M108.924 57.9746V62.418H108.277V57.9746H108.924Z" fill="#131144"/>
<path id="Vector_46" d="M205.228 57.7546C208.72 57.7546 211.551 54.9235 211.551 51.4312C211.551 47.939 208.72 45.1079 205.228 45.1079C201.735 45.1079 198.904 47.939 198.904 51.4312C198.904 54.9235 201.735 57.7546 205.228 57.7546Z" fill="#61BD73"/>
<path id="Vector_47" d="M205.215 58.0475C201.565 58.0475 198.587 55.0812 198.587 51.419C198.587 47.7569 201.553 44.7905 205.215 44.7905C208.878 44.7905 211.844 47.7569 211.844 51.419C211.844 55.0812 208.878 58.0475 205.215 58.0475ZM205.215 45.4131C201.895 45.4131 199.197 48.1109 199.197 51.4312C199.197 54.7516 201.895 57.4494 205.215 57.4494C208.536 57.4494 211.234 54.7516 211.234 51.4312C211.234 48.1109 208.536 45.4131 205.215 45.4131Z" fill="#131144"/>
<path id="Vector_48" d="M212.918 65.7746C216.41 65.7746 219.241 62.9435 219.241 59.4513C219.241 55.959 216.41 53.1279 212.918 53.1279C209.426 53.1279 206.595 55.959 206.595 59.4513C206.595 62.9435 209.426 65.7746 212.918 65.7746Z" fill="#61BD73"/>
<path id="Vector_49" d="M212.918 66.0676C209.268 66.0676 206.289 63.1012 206.289 59.4391C206.289 55.7769 209.255 52.8105 212.918 52.8105C216.58 52.8105 219.546 55.7769 219.546 59.4391C219.546 63.1012 216.58 66.0676 212.918 66.0676ZM212.918 53.4331C209.597 53.4331 206.899 56.1309 206.899 59.4513C206.899 62.7716 209.597 65.4694 212.918 65.4694C216.238 65.4694 218.936 62.7716 218.936 59.4513C218.936 56.1309 216.238 53.4331 212.918 53.4331Z" fill="#131144"/>
<path id="Vector_50" d="M207.4 52.2979C207.632 52.4566 207.791 52.5665 207.889 52.6397C208.072 52.774 208.157 52.9083 208.157 53.0181C208.157 53.128 208.084 53.3111 207.938 53.5308C207.791 53.7506 207.632 53.8604 207.486 53.8604C207.388 53.8604 207.242 53.7872 207.059 53.6651C207.034 53.6529 206.961 53.6041 206.851 53.5186C206.741 53.4332 206.644 53.3843 206.583 53.3355C206.119 53.6895 205.606 53.8726 205.02 53.8726C204.251 53.8726 203.604 53.6041 203.067 53.0548C202.542 52.5054 202.273 51.8584 202.273 51.1016C202.273 50.6866 202.347 50.3081 202.493 49.9419C202.64 49.5757 202.835 49.2827 203.091 49.0386C203.335 48.7944 203.628 48.5991 203.946 48.4648C204.263 48.3306 204.605 48.2573 204.947 48.2573C205.679 48.2573 206.326 48.5259 206.863 49.0508C207.4 49.5879 207.681 50.2593 207.681 51.0772C207.681 51.4922 207.584 51.8951 207.4 52.3101V52.2979ZM203.592 51.0528C203.592 51.4922 203.738 51.8584 204.019 52.127C204.3 52.4078 204.629 52.542 204.983 52.542C205.337 52.542 205.655 52.4078 205.936 52.1392C206.216 51.8707 206.363 51.5044 206.363 51.0528C206.363 50.6011 206.216 50.2349 205.936 49.9663C205.655 49.6978 205.325 49.5513 204.971 49.5513C204.617 49.5513 204.3 49.6856 204.019 49.9663C203.738 50.2471 203.592 50.6011 203.592 51.0406V51.0528Z" fill="#131144"/>
<path id="Vector_51" d="M213.602 56.7905L215.616 60.9532C215.701 61.1241 215.738 61.2462 215.738 61.3316C215.738 61.5147 215.591 61.6734 215.311 61.8199C215.14 61.9053 215.005 61.942 214.908 61.942C214.81 61.942 214.737 61.9176 214.664 61.8687C214.603 61.8199 214.554 61.7711 214.529 61.7222C214.505 61.6734 214.468 61.6002 214.419 61.5025L214.029 60.6968H211.966L211.575 61.5025C211.526 61.6002 211.49 61.6734 211.465 61.7222C211.441 61.7711 211.392 61.8077 211.331 61.8565C211.27 61.9053 211.185 61.9298 211.087 61.9298C210.989 61.9298 210.855 61.8931 210.684 61.8077C210.391 61.6734 210.257 61.5147 210.257 61.3316C210.257 61.2462 210.293 61.1241 210.379 60.9532L212.393 56.7783C212.442 56.6685 212.527 56.5708 212.637 56.4976C212.747 56.4243 212.869 56.3877 212.991 56.3877C213.26 56.3877 213.455 56.522 213.589 56.7783L213.602 56.7905ZM212.991 58.5728L212.503 59.5982H213.492L212.991 58.5728Z" fill="#131144"/>
<path id="Vector_52" d="M170.938 86.8198H155.166V107.011H170.938V86.8198Z" fill="#61BD73"/>
<path id="Vector_53" d="M170.938 107.474H155.166C154.91 107.474 154.702 107.267 154.702 107.011V86.8198C154.702 86.5635 154.91 86.356 155.166 86.356H170.938C171.194 86.356 171.402 86.5635 171.402 86.8198V107.011C171.402 107.267 171.194 107.474 170.938 107.474ZM155.63 106.559H170.486V87.2837H155.63V106.559Z" fill="#131144"/>
<path id="Vector_54" d="M168.484 93.0581H157.632V93.6685H168.484V93.0581Z" fill="#131144"/>
<path id="Vector_55" d="M168.484 94.8159H157.632V95.4263H168.484V94.8159Z" fill="#131144"/>
<path id="Vector_56" d="M168.484 96.5737H157.632V97.1841H168.484V96.5737Z" fill="#131144"/>
<path id="Vector_57" d="M168.484 98.3438H157.632V98.9541H168.484V98.3438Z" fill="#131144"/>
<path id="Vector_58" d="M168.484 101.493H157.632V102.104H168.484V101.493Z" fill="#131144"/>
<path id="Vector_59" d="M160.513 103.251H157.632V103.861H160.513V103.251Z" fill="#131144"/>
<path id="Vector_60" d="M159.463 89.5298H157.632V91.6538H159.463V89.5298Z" fill="#131144"/>
<path id="Vector_61" d="M164.284 21.1941C169.004 21.1941 172.829 17.3683 172.829 12.649C172.829 7.92975 169.004 4.104 164.284 4.104C159.565 4.104 155.739 7.92975 155.739 12.649C155.739 17.3683 159.565 21.1941 164.284 21.1941Z" fill="#61BD73"/>
<path id="Vector_62" d="M164.285 21.6457C159.329 21.6457 155.288 17.6052 155.288 12.649C155.288 7.69292 159.329 3.65234 164.285 3.65234C169.241 3.65234 173.281 7.69292 173.281 12.649C173.281 17.6052 169.241 21.6457 164.285 21.6457ZM164.285 4.56788C159.829 4.56788 156.204 8.19342 156.204 12.649C156.204 17.1047 159.829 20.7302 164.285 20.7302C168.74 20.7302 172.366 17.1047 172.366 12.649C172.366 8.19342 168.74 4.56788 164.285 4.56788Z" fill="#131144"/>
<path id="Vector_63" d="M152.346 25.5153C152.224 25.5153 152.114 25.4665 152.016 25.3811C151.833 25.198 151.833 24.9172 152.016 24.7341L157.778 18.9723C157.961 18.7892 158.242 18.7892 158.425 18.9723C158.608 19.1554 158.608 19.4362 158.425 19.6193L152.663 25.3811C152.578 25.4665 152.456 25.5153 152.334 25.5153H152.346Z" fill="#131144"/>
<path id="Vector_64" d="M164.59 15.8474H164.578C164.443 15.8474 164.333 15.7863 164.248 15.6887L161.831 12.8932L158.816 15.6643C158.633 15.8352 158.34 15.823 158.169 15.6399C157.998 15.4567 158.01 15.1638 158.193 14.9929L161.55 11.8922C161.636 11.8068 161.758 11.758 161.892 11.7702C162.014 11.7702 162.136 11.8312 162.209 11.9289L164.602 14.7121L169.607 9.58508C169.778 9.40198 170.071 9.40198 170.254 9.58508C170.437 9.75599 170.437 10.049 170.254 10.2321L164.895 15.7253C164.809 15.8108 164.687 15.8596 164.565 15.8596L164.59 15.8474Z" fill="#131144"/>
</g>
<defs>
<clipPath id="clip0_44_8113">
<rect width="223.685" height="111" fill="white" transform="translate(0 0.234375)"/>
</clipPath>
</defs>
</svg>
