<svg width="163" height="128" viewBox="0 0 163 128" fill="none" xmlns="http://www.w3.org/2000/svg">
<path d="M65.7891 3.71141C65.7891 2.0845 67.108 0.765625 68.7349 0.765625H95.247C96.8739 0.765625 98.1927 2.0845 98.1927 3.71141V14.5126C98.1927 16.1395 96.8739 17.4584 95.247 17.4584H68.7349C67.108 17.4584 65.7891 16.1395 65.7891 14.5126V3.71141Z" fill="#F7F9FD"/>
<path fill-rule="evenodd" clip-rule="evenodd" d="M95.247 1.74755H68.7349C67.6503 1.74755 66.7711 2.6268 66.7711 3.71141V14.5126C66.7711 15.5972 67.6503 16.4765 68.7349 16.4765H95.247C96.3316 16.4765 97.2108 15.5972 97.2108 14.5126V3.71141C97.2108 2.6268 96.3316 1.74755 95.247 1.74755ZM68.7349 0.765625C67.108 0.765625 65.7891 2.0845 65.7891 3.71141V14.5126C65.7891 16.1395 67.108 17.4584 68.7349 17.4584H95.247C96.8739 17.4584 98.1927 16.1395 98.1927 14.5126V3.71141C98.1927 2.0845 96.8739 0.765625 95.247 0.765625H68.7349Z" fill="#130C49"/>
<path d="M66.7711 112.705C66.7711 111.078 68.09 109.76 69.7169 109.76H96.229C97.8559 109.76 99.1748 111.078 99.1748 112.705V124.488C99.1748 126.115 97.8559 127.434 96.229 127.434H69.7169C68.09 127.434 66.7711 126.115 66.7711 124.488V112.705Z" fill="#85E3BC"/>
<path fill-rule="evenodd" clip-rule="evenodd" d="M96.229 110.741H69.7169C68.6323 110.741 67.7531 111.621 67.7531 112.705V124.488C67.7531 125.573 68.6323 126.452 69.7169 126.452H96.229C97.3136 126.452 98.1928 125.573 98.1928 124.488V112.705C98.1928 111.621 97.3136 110.741 96.229 110.741ZM69.7169 109.76C68.09 109.76 66.7711 111.078 66.7711 112.705V124.488C66.7711 126.115 68.09 127.434 69.7169 127.434H96.229C97.8559 127.434 99.1748 126.115 99.1748 124.488V112.705C99.1748 111.078 97.8559 109.76 96.229 109.76H69.7169Z" fill="#130C49"/>
<path d="M65.7891 31.2053C65.7891 29.5784 67.108 28.2595 68.7349 28.2595H95.247C96.8739 28.2595 98.1927 29.5784 98.1927 31.2053V42.0065C98.1927 43.6334 96.8739 44.9523 95.247 44.9523H68.7349C67.108 44.9523 65.7891 43.6334 65.7891 42.0065V31.2053Z" fill="#61BD73"/>
<path fill-rule="evenodd" clip-rule="evenodd" d="M95.247 28.9469H68.7349C67.4876 28.9469 66.4765 29.958 66.4765 31.2053V42.0065C66.4765 43.2538 67.4876 44.265 68.7349 44.265H95.247C96.4943 44.265 97.5054 43.2538 97.5054 42.0065V31.2053C97.5054 29.958 96.4943 28.9469 95.247 28.9469ZM68.7349 28.2595C67.108 28.2595 65.7891 29.5784 65.7891 31.2053V42.0065C65.7891 43.6334 67.108 44.9523 68.7349 44.9523H95.247C96.8739 44.9523 98.1927 43.6334 98.1927 42.0065V31.2053C98.1927 29.5784 96.8739 28.2595 95.247 28.2595H68.7349Z" fill="#130C49"/>
<path d="M43.2048 58.6992C43.2048 57.0723 44.5237 55.7535 46.1506 55.7535H72.6626C74.2895 55.7535 75.6084 57.0723 75.6084 58.6992V68.5185C75.6084 70.1454 74.2895 71.4643 72.6626 71.4643H46.1506C44.5237 71.4643 43.2048 70.1454 43.2048 68.5185V58.6992Z" fill="#85E3BC"/>
<path fill-rule="evenodd" clip-rule="evenodd" d="M72.6626 56.4408H46.1506C44.9033 56.4408 43.8922 57.4519 43.8922 58.6992V68.5185C43.8922 69.7658 44.9033 70.777 46.1506 70.777H72.6626C73.9099 70.777 74.9211 69.7658 74.9211 68.5185V58.6992C74.9211 57.4519 73.9099 56.4408 72.6626 56.4408ZM46.1506 55.7535C44.5237 55.7535 43.2048 57.0723 43.2048 58.6992V68.5185C43.2048 70.1454 44.5237 71.4643 46.1506 71.4643H72.6626C74.2895 71.4643 75.6084 70.1454 75.6084 68.5185V58.6992C75.6084 57.0723 74.2895 55.7535 72.6626 55.7535H46.1506Z" fill="#130C49"/>
<path d="M42.2229 84.2294C42.2229 82.6025 43.5418 81.2836 45.1687 81.2836H72.6627C74.2896 81.2836 75.6084 82.6025 75.6084 84.2294V96.0125C75.6084 97.6394 74.2896 98.9583 72.6627 98.9583H45.1687C43.5418 98.9583 42.2229 97.6394 42.2229 96.0125V84.2294Z" fill="#61BD73"/>
<path fill-rule="evenodd" clip-rule="evenodd" d="M72.6627 81.971H45.1687C43.9214 81.971 42.9102 82.9821 42.9102 84.2294V96.0125C42.9102 97.2598 43.9214 98.271 45.1687 98.271H72.6627C73.91 98.271 74.9211 97.2598 74.9211 96.0125V84.2294C74.9211 82.9821 73.91 81.971 72.6627 81.971ZM45.1687 81.2836C43.5418 81.2836 42.2229 82.6025 42.2229 84.2294V96.0125C42.2229 97.6394 43.5418 98.9583 45.1687 98.9583H72.6627C74.2896 98.9583 75.6084 97.6394 75.6084 96.0125V84.2294C75.6084 82.6025 74.2896 81.2836 72.6627 81.2836H45.1687Z" fill="#130C49"/>
<path d="M109.976 31.2053C109.976 29.5784 111.295 28.2595 112.922 28.2595H140.416C142.043 28.2595 143.361 29.5784 143.361 31.2053V42.0065C143.361 43.6334 142.043 44.9523 140.416 44.9523H112.922C111.295 44.9523 109.976 43.6334 109.976 42.0065V31.2053Z" fill="#85E3BC"/>
<path fill-rule="evenodd" clip-rule="evenodd" d="M140.416 28.9469H112.922C111.674 28.9469 110.663 29.958 110.663 31.2053V42.0065C110.663 43.2538 111.674 44.265 112.922 44.265H140.416C141.663 44.265 142.674 43.2538 142.674 42.0065V31.2053C142.674 29.958 141.663 28.9469 140.416 28.9469ZM112.922 28.2595C111.295 28.2595 109.976 29.5784 109.976 31.2053V42.0065C109.976 43.6334 111.295 44.9523 112.922 44.9523H140.416C142.043 44.9523 143.361 43.6334 143.361 42.0065V31.2053C143.361 29.5784 142.043 28.2595 140.416 28.2595H112.922Z" fill="#130C49"/>
<path d="M87.3916 58.6992C87.3916 57.0723 88.7105 55.7535 90.3374 55.7535H116.849C118.476 55.7535 119.795 57.0723 119.795 58.6992V68.5185C119.795 70.1454 118.476 71.4643 116.849 71.4643H90.3374C88.7105 71.4643 87.3916 70.1454 87.3916 68.5185V58.6992Z" fill="#61BD73"/>
<path fill-rule="evenodd" clip-rule="evenodd" d="M116.849 56.4408H90.3374C89.0901 56.4408 88.079 57.4519 88.079 58.6992V68.5185C88.079 69.7658 89.0901 70.777 90.3374 70.777H116.849C118.097 70.777 119.108 69.7658 119.108 68.5185V58.6992C119.108 57.4519 118.097 56.4408 116.849 56.4408ZM90.3374 55.7535C88.7105 55.7535 87.3916 57.0723 87.3916 58.6992V68.5185C87.3916 70.1454 88.7105 71.4643 90.3374 71.4643H116.849C118.476 71.4643 119.795 70.1454 119.795 68.5185V58.6992C119.795 57.0723 118.476 55.7535 116.849 55.7535H90.3374Z" fill="#130C49"/>
<path d="M86.4096 84.2294C86.4096 82.6025 87.7285 81.2836 89.3554 81.2836H115.867C117.494 81.2836 118.813 82.6025 118.813 84.2294V96.0125C118.813 97.6394 117.494 98.9583 115.867 98.9583H89.3554C87.7285 98.9583 86.4096 97.6394 86.4096 96.0125V84.2294Z" fill="#BCF0A7"/>
<path fill-rule="evenodd" clip-rule="evenodd" d="M115.867 81.971H89.3554C88.1081 81.971 87.097 82.9821 87.097 84.2294V96.0125C87.097 97.2598 88.1081 98.271 89.3554 98.271H115.867C117.115 98.271 118.126 97.2598 118.126 96.0125V84.2294C118.126 82.9821 117.115 81.971 115.867 81.971ZM89.3554 81.2836C87.7285 81.2836 86.4096 82.6025 86.4096 84.2294V96.0125C86.4096 97.6394 87.7285 98.9583 89.3554 98.9583H115.867C117.494 98.9583 118.813 97.6394 118.813 96.0125V84.2294C118.813 82.6025 117.494 81.2836 115.867 81.2836H89.3554Z" fill="#130C49"/>
<path d="M130.596 58.6992C130.596 57.0723 131.915 55.7535 133.542 55.7535H160.054C161.681 55.7535 163 57.0723 163 58.6992V68.5185C163 70.1454 161.681 71.4643 160.054 71.4643H133.542C131.915 71.4643 130.596 70.1454 130.596 68.5185V58.6992Z" fill="#BCF0A7"/>
<path fill-rule="evenodd" clip-rule="evenodd" d="M160.054 56.4408H133.542C132.295 56.4408 131.284 57.4519 131.284 58.6992V68.5185C131.284 69.7658 132.295 70.777 133.542 70.777H160.054C161.302 70.777 162.313 69.7658 162.313 68.5185V58.6992C162.313 57.4519 161.302 56.4408 160.054 56.4408ZM133.542 55.7535C131.915 55.7535 130.596 57.0723 130.596 58.6992V68.5185C130.596 70.1454 131.915 71.4643 133.542 71.4643H160.054C161.681 71.4643 163 70.1454 163 68.5185V58.6992C163 57.0723 161.681 55.7535 160.054 55.7535H133.542Z" fill="#130C49"/>
<path d="M129.614 84.2294C129.614 82.6025 130.933 81.2836 132.56 81.2836H160.054C161.681 81.2836 163 82.6025 163 84.2294V96.0125C163 97.6394 161.681 98.9583 160.054 98.9583H132.56C130.933 98.9583 129.614 97.6394 129.614 96.0125V84.2294Z" fill="#85E3BC"/>
<path fill-rule="evenodd" clip-rule="evenodd" d="M160.054 81.971H132.56C131.313 81.971 130.302 82.9821 130.302 84.2294V96.0125C130.302 97.2598 131.313 98.271 132.56 98.271H160.054C161.302 98.271 162.313 97.2598 162.313 96.0125V84.2294C162.313 82.9821 161.302 81.971 160.054 81.971ZM132.56 81.2836C130.933 81.2836 129.614 82.6025 129.614 84.2294V96.0125C129.614 97.6394 130.933 98.9583 132.56 98.9583H160.054C161.681 98.9583 163 97.6394 163 96.0125V84.2294C163 82.6025 161.681 81.2836 160.054 81.2836H132.56Z" fill="#130C49"/>
<path d="M22.5844 31.2053C22.5844 29.5784 23.9032 28.2595 25.5301 28.2595H53.0241C54.651 28.2595 55.9699 29.5784 55.9699 31.2053V42.0065C55.9699 43.6334 54.651 44.9523 53.0241 44.9523H25.5301C23.9032 44.9523 22.5844 43.6334 22.5844 42.0065V31.2053Z" fill="#61BD73" fill-opacity="0.5"/>
<path fill-rule="evenodd" clip-rule="evenodd" d="M53.0241 28.9469H25.5301C24.2828 28.9469 23.2717 29.958 23.2717 31.2053V42.0065C23.2717 43.2538 24.2828 44.265 25.5301 44.265H53.0241C54.2714 44.265 55.2825 43.2538 55.2825 42.0065V31.2053C55.2825 29.958 54.2714 28.9469 53.0241 28.9469ZM25.5301 28.2595C23.9032 28.2595 22.5844 29.5784 22.5844 31.2053V42.0065C22.5844 43.6334 23.9032 44.9523 25.5301 44.9523H53.0241C54.651 44.9523 55.9699 43.6334 55.9699 42.0065V31.2053C55.9699 29.5784 54.651 28.2595 53.0241 28.2595H25.5301Z" fill="#130C49"/>
<path d="M0 58.6992C0 57.0723 1.31887 55.7535 2.94578 55.7535H29.4578C31.0847 55.7535 32.4036 57.0723 32.4036 58.6992V68.5185C32.4036 70.1454 31.0847 71.4643 29.4578 71.4643H2.94578C1.31887 71.4643 0 70.1454 0 68.5185V58.6992Z" fill="#61BD73" fill-opacity="0.5"/>
<path fill-rule="evenodd" clip-rule="evenodd" d="M29.4578 56.4408H2.94578C1.69848 56.4408 0.687349 57.4519 0.687349 58.6992V68.5185C0.687349 69.7658 1.69848 70.777 2.94578 70.777H29.4578C30.7051 70.777 31.7163 69.7658 31.7163 68.5185V58.6992C31.7163 57.4519 30.7051 56.4408 29.4578 56.4408ZM2.94578 55.7535C1.31887 55.7535 0 57.0723 0 58.6992V68.5185C0 70.1454 1.31887 71.4643 2.94578 71.4643H29.4578C31.0847 71.4643 32.4036 70.1454 32.4036 68.5185V58.6992C32.4036 57.0723 31.0847 55.7535 29.4578 55.7535H2.94578Z" fill="#130C49"/>
<path d="M0 84.2294C0 82.6025 1.31887 81.2836 2.94578 81.2836H29.4578C31.0847 81.2836 32.4036 82.6025 32.4036 84.2294V96.0125C32.4036 97.6394 31.0847 98.9583 29.4578 98.9583H2.94578C1.31887 98.9583 0 97.6394 0 96.0125V84.2294Z" fill="#BCF0A7"/>
<path fill-rule="evenodd" clip-rule="evenodd" d="M29.4578 81.971H2.94578C1.69848 81.971 0.687349 82.9821 0.687349 84.2294V96.0125C0.687349 97.2598 1.69848 98.271 2.94578 98.271H29.4578C30.7051 98.271 31.7163 97.2598 31.7163 96.0125V84.2294C31.7163 82.9821 30.7051 81.971 29.4578 81.971ZM2.94578 81.2836C1.31887 81.2836 0 82.6025 0 84.2294V96.0125C0 97.6394 1.31887 98.9583 2.94578 98.9583H29.4578C31.0847 98.9583 32.4036 97.6394 32.4036 96.0125V84.2294C32.4036 82.6025 31.0847 81.2836 29.4578 81.2836H2.94578Z" fill="#130C49"/>
<path d="M91.7989 8.35368V8.77211H90.1335V8.35368H91.7989ZM90.6189 7.58376H91.1127V10.6467C91.1127 10.7862 91.1329 10.8908 91.1734 10.9605C91.2152 11.0289 91.2682 11.0749 91.3324 11.0986C91.3979 11.1209 91.467 11.1321 91.5395 11.1321C91.5939 11.1321 91.6385 11.1293 91.6734 11.1237C91.7083 11.1167 91.7362 11.1112 91.7571 11.107L91.8575 11.5505C91.824 11.5631 91.7773 11.5756 91.7173 11.5882C91.6573 11.6021 91.5813 11.6091 91.4893 11.6091C91.3498 11.6091 91.2131 11.5791 91.0792 11.5191C90.9467 11.4592 90.8365 11.3678 90.7486 11.2451C90.6622 11.1223 90.6189 10.9675 90.6189 10.7806V7.58376Z" fill="#130C49"/>
<path d="M86.812 12.7721V8.35344H87.289V8.86393H87.3476C87.3839 8.80814 87.4341 8.737 87.4982 8.65053C87.5638 8.56266 87.6573 8.48455 87.7786 8.4162C87.9013 8.34647 88.0673 8.3116 88.2765 8.3116C88.5471 8.3116 88.7856 8.37924 88.9921 8.51454C89.1985 8.64983 89.3596 8.84161 89.4753 9.08988C89.5911 9.33816 89.649 9.63106 89.649 9.9686C89.649 10.3089 89.5911 10.6039 89.4753 10.8536C89.3596 11.1019 89.1992 11.2943 88.9942 11.431C88.7891 11.5663 88.5527 11.634 88.2849 11.634C88.0785 11.634 87.9132 11.5998 87.7891 11.5315C87.6649 11.4617 87.5694 11.3829 87.5024 11.295C87.4355 11.2058 87.3839 11.1318 87.3476 11.0733H87.3058V12.7721H86.812ZM87.2974 9.96023C87.2974 10.2029 87.333 10.417 87.4041 10.6025C87.4752 10.7866 87.5791 10.931 87.7158 11.0356C87.8525 11.1388 88.0199 11.1904 88.218 11.1904C88.4244 11.1904 88.5966 11.136 88.7347 11.0272C88.8742 10.9171 88.9788 10.7692 89.0485 10.5837C89.1197 10.3968 89.1552 10.189 89.1552 9.96023C89.1552 9.73427 89.1204 9.53064 89.0506 9.34931C88.9823 9.1666 88.8784 9.02224 88.7389 8.91623C88.6008 8.80884 88.4272 8.75514 88.218 8.75514C88.0171 8.75514 87.8483 8.80605 87.7116 8.90787C87.575 9.00829 87.4717 9.14916 87.402 9.33049C87.3323 9.51041 87.2974 9.72033 87.2974 9.96023Z" fill="#130C49"/>
<path d="M81.6913 11.567V8.35344H82.1683V8.85556H82.2102C82.2771 8.684 82.3852 8.5508 82.5345 8.45596C82.6837 8.35972 82.8629 8.3116 83.0722 8.3116C83.2842 8.3116 83.4606 8.35972 83.6015 8.45596C83.7437 8.5508 83.8546 8.684 83.9341 8.85556H83.9676C84.0499 8.68958 84.1733 8.55778 84.3379 8.46014C84.5025 8.36111 84.6999 8.3116 84.93 8.3116C85.2173 8.3116 85.4523 8.40156 85.6351 8.58149C85.8178 8.76002 85.9091 9.03828 85.9091 9.41626V11.567H85.4154V9.41626C85.4154 9.17915 85.3505 9.00969 85.2208 8.90787C85.0911 8.80605 84.9384 8.75514 84.7626 8.75514C84.5367 8.75514 84.3616 8.82348 84.2375 8.96017C84.1134 9.09546 84.0513 9.26702 84.0513 9.47485V11.567H83.5492V9.36605C83.5492 9.18334 83.4899 9.03619 83.3713 8.9246C83.2528 8.81163 83.1 8.75514 82.9131 8.75514C82.7848 8.75514 82.6649 8.78931 82.5533 8.85765C82.4431 8.926 82.3538 9.02084 82.2855 9.14219C82.2185 9.26214 82.1851 9.40092 82.1851 9.55853V11.567H81.6913Z" fill="#130C49"/>
<path d="M79.4826 11.634C79.1925 11.634 78.9379 11.5649 78.719 11.4268C78.5014 11.2888 78.3312 11.0956 78.2085 10.8473C78.0871 10.599 78.0265 10.3089 78.0265 9.97697C78.0265 9.64222 78.0871 9.35001 78.2085 9.10035C78.3312 8.85068 78.5014 8.6568 78.719 8.51872C78.9379 8.38064 79.1925 8.3116 79.4826 8.3116C79.7727 8.3116 80.0266 8.38064 80.2442 8.51872C80.4631 8.6568 80.6333 8.85068 80.7547 9.10035C80.8774 9.35001 80.9388 9.64222 80.9388 9.97697C80.9388 10.3089 80.8774 10.599 80.7547 10.8473C80.6333 11.0956 80.4631 11.2888 80.2442 11.4268C80.0266 11.5649 79.7727 11.634 79.4826 11.634ZM79.4826 11.1904C79.703 11.1904 79.8843 11.1339 80.0266 11.021C80.1688 10.908 80.2742 10.7594 80.3425 10.5753C80.4108 10.3912 80.445 10.1918 80.445 9.97697C80.445 9.76217 80.4108 9.56202 80.3425 9.37651C80.2742 9.19101 80.1688 9.04107 80.0266 8.9267C79.8843 8.81232 79.703 8.75514 79.4826 8.75514C79.2622 8.75514 79.0809 8.81232 78.9386 8.9267C78.7964 9.04107 78.6911 9.19101 78.6227 9.37651C78.5544 9.56202 78.5202 9.76217 78.5202 9.97697C78.5202 10.1918 78.5544 10.3912 78.6227 10.5753C78.6911 10.7594 78.7964 10.908 78.9386 11.021C79.0809 11.1339 79.2622 11.1904 79.4826 11.1904Z" fill="#130C49"/>
<path d="M76.0818 11.5676V8.35405H76.5588V8.83943H76.5923C76.6509 8.68042 76.7569 8.55141 76.9103 8.45238C77.0637 8.35335 77.2367 8.30383 77.4292 8.30383C77.4654 8.30383 77.5108 8.30453 77.5652 8.30593C77.6196 8.30732 77.6607 8.30941 77.6886 8.3122V8.81432C77.6719 8.81014 77.6335 8.80386 77.5735 8.79549C77.515 8.78573 77.4529 8.78085 77.3873 8.78085C77.2311 8.78085 77.0916 8.81363 76.9689 8.87918C76.8476 8.94334 76.7513 9.03261 76.6802 9.14698C76.6104 9.25996 76.5756 9.38897 76.5756 9.53403V11.5676H76.0818Z" fill="#130C49"/>
<path d="M72.4091 11.5674V7.28265H73.8568C74.193 7.28265 74.4678 7.34332 74.6812 7.46467C74.896 7.58462 75.055 7.74711 75.1582 7.95215C75.2614 8.15718 75.313 8.38592 75.313 8.63838C75.313 8.89084 75.2614 9.12028 75.1582 9.32671C75.0564 9.53313 74.8987 9.69772 74.6853 9.82046C74.4719 9.9418 74.1986 10.0025 73.8652 10.0025H72.8275V9.5422H73.8485C74.0786 9.5422 74.2634 9.50245 74.4029 9.42295C74.5424 9.34344 74.6435 9.23604 74.7063 9.10075C74.7704 8.96406 74.8025 8.80994 74.8025 8.63838C74.8025 8.46682 74.7704 8.3134 74.7063 8.1781C74.6435 8.04281 74.5417 7.9368 74.4008 7.86009C74.2599 7.78198 74.073 7.74293 73.8401 7.74293H72.9279V11.5674H72.4091Z" fill="#130C49"/>
<path d="M95.4848 120.628C95.1752 120.628 94.9081 120.559 94.6835 120.423C94.4603 120.285 94.2881 120.092 94.1667 119.845C94.0468 119.597 93.9868 119.308 93.9868 118.979C93.9868 118.65 94.0468 118.36 94.1667 118.109C94.2881 117.856 94.4569 117.66 94.6731 117.519C94.8906 117.377 95.1445 117.305 95.4346 117.305C95.602 117.305 95.7673 117.333 95.9304 117.389C96.0936 117.445 96.2422 117.536 96.3761 117.661C96.51 117.785 96.6167 117.95 96.6962 118.155C96.7757 118.36 96.8154 118.612 96.8154 118.912V119.121H94.3383V118.695H96.3133C96.3133 118.513 96.2771 118.352 96.2045 118.209C96.1334 118.067 96.0316 117.955 95.8991 117.872C95.768 117.79 95.6131 117.749 95.4346 117.749C95.2379 117.749 95.0678 117.798 94.9241 117.895C94.7818 117.992 94.6724 118.117 94.5956 118.272C94.5189 118.427 94.4806 118.593 94.4806 118.77V119.054C94.4806 119.297 94.5224 119.503 94.6061 119.672C94.6912 119.839 94.809 119.967 94.9597 120.055C95.1103 120.141 95.2854 120.184 95.4848 120.184C95.6145 120.184 95.7317 120.166 95.8363 120.13C95.9423 120.092 96.0337 120.036 96.1104 119.962C96.1871 119.887 96.2464 119.794 96.2882 119.682L96.7652 119.816C96.715 119.978 96.6306 120.12 96.5121 120.243C96.3935 120.364 96.2471 120.459 96.0727 120.527C95.8984 120.594 95.7024 120.628 95.4848 120.628Z" fill="#130C49"/>
<path d="M93.3351 118.067L92.8916 118.193C92.8637 118.119 92.8225 118.047 92.7681 117.977C92.7151 117.906 92.6426 117.847 92.5506 117.801C92.4585 117.755 92.3406 117.732 92.197 117.732C92.0003 117.732 91.8364 117.778 91.7053 117.868C91.5756 117.957 91.5107 118.071 91.5107 118.209C91.5107 118.332 91.5554 118.429 91.6446 118.5C91.7339 118.571 91.8734 118.63 92.0631 118.678L92.5401 118.795C92.8274 118.865 93.0415 118.971 93.1824 119.115C93.3233 119.257 93.3937 119.441 93.3937 119.665C93.3937 119.85 93.3407 120.014 93.2347 120.159C93.1301 120.304 92.9836 120.419 92.7953 120.502C92.607 120.586 92.3881 120.628 92.1384 120.628C91.8106 120.628 91.5393 120.557 91.3245 120.414C91.1097 120.272 90.9738 120.064 90.9166 119.791L91.3852 119.674C91.4298 119.847 91.5142 119.976 91.6384 120.063C91.7639 120.149 91.9278 120.193 92.13 120.193C92.3602 120.193 92.5429 120.144 92.6782 120.046C92.8149 119.947 92.8832 119.829 92.8832 119.69C92.8832 119.579 92.8442 119.485 92.766 119.41C92.6879 119.333 92.568 119.276 92.4062 119.239L91.8706 119.113C91.5763 119.043 91.3601 118.935 91.222 118.789C91.0853 118.641 91.017 118.456 91.017 118.234C91.017 118.053 91.0679 117.893 91.1697 117.753C91.2729 117.614 91.4131 117.504 91.5902 117.425C91.7688 117.345 91.971 117.305 92.197 117.305C92.515 117.305 92.7647 117.375 92.946 117.515C93.1287 117.654 93.2584 117.838 93.3351 118.067Z" fill="#130C49"/>
<path d="M88.1059 118.628V120.561H87.6121V117.347H88.0891V117.849H88.131C88.2063 117.686 88.3207 117.555 88.4741 117.456C88.6275 117.356 88.8256 117.305 89.0683 117.305C89.2859 117.305 89.4762 117.35 89.6394 117.439C89.8026 117.527 89.9296 117.661 90.0202 117.841C90.1109 118.02 90.1562 118.246 90.1562 118.519V120.561H89.6625V118.552C89.6625 118.3 89.5969 118.103 89.4658 117.962C89.3347 117.82 89.1548 117.749 88.926 117.749C88.7684 117.749 88.6275 117.783 88.5034 117.851C88.3806 117.92 88.2837 118.02 88.2126 118.151C88.1414 118.282 88.1059 118.441 88.1059 118.628Z" fill="#130C49"/>
<path d="M85.4032 120.628C85.1131 120.628 84.8586 120.559 84.6396 120.421C84.422 120.283 84.2518 120.089 84.1291 119.841C84.0078 119.593 83.9471 119.303 83.9471 118.971C83.9471 118.636 84.0078 118.344 84.1291 118.094C84.2518 117.845 84.422 117.651 84.6396 117.513C84.8586 117.374 85.1131 117.305 85.4032 117.305C85.6934 117.305 85.9472 117.374 86.1648 117.513C86.3838 117.651 86.5539 117.845 86.6753 118.094C86.798 118.344 86.8594 118.636 86.8594 118.971C86.8594 119.303 86.798 119.593 86.6753 119.841C86.5539 120.089 86.3838 120.283 86.1648 120.421C85.9472 120.559 85.6934 120.628 85.4032 120.628ZM85.4032 120.184C85.6236 120.184 85.8049 120.128 85.9472 120.015C86.0895 119.902 86.1948 119.753 86.2631 119.569C86.3315 119.385 86.3656 119.186 86.3656 118.971C86.3656 118.756 86.3315 118.556 86.2631 118.37C86.1948 118.185 86.0895 118.035 85.9472 117.921C85.8049 117.806 85.6236 117.749 85.4032 117.749C85.1829 117.749 85.0015 117.806 84.8593 117.921C84.717 118.035 84.6117 118.185 84.5434 118.37C84.475 118.556 84.4408 118.756 84.4408 118.971C84.4408 119.186 84.475 119.385 84.5434 119.569C84.6117 119.753 84.717 119.902 84.8593 120.015C85.0015 120.128 85.1829 120.184 85.4032 120.184Z" fill="#130C49"/>
<path d="M80.5065 121.766V117.347H80.9835V117.858H81.0421C81.0784 117.802 81.1286 117.731 81.1928 117.644C81.2583 117.556 81.3518 117.478 81.4731 117.41C81.5959 117.34 81.7618 117.305 81.9711 117.305C82.2416 117.305 82.4802 117.373 82.6866 117.508C82.893 117.644 83.0541 117.835 83.1699 118.084C83.2856 118.332 83.3435 118.625 83.3435 118.962C83.3435 119.303 83.2856 119.598 83.1699 119.847C83.0541 120.096 82.8937 120.288 82.6887 120.425C82.4836 120.56 82.2472 120.628 81.9794 120.628C81.773 120.628 81.6077 120.594 81.4836 120.525C81.3594 120.456 81.2639 120.377 81.1969 120.289C81.13 120.2 81.0784 120.126 81.0421 120.067H81.0003V121.766H80.5065ZM80.9919 118.954C80.9919 119.197 81.0275 119.411 81.0986 119.596C81.1698 119.78 81.2737 119.925 81.4104 120.029C81.547 120.133 81.7144 120.184 81.9125 120.184C82.1189 120.184 82.2912 120.13 82.4292 120.021C82.5687 119.911 82.6733 119.763 82.7431 119.578C82.8142 119.391 82.8498 119.183 82.8498 118.954C82.8498 118.728 82.8149 118.524 82.7452 118.343C82.6768 118.16 82.5729 118.016 82.4334 117.91C82.2953 117.803 82.1217 117.749 81.9125 117.749C81.7116 117.749 81.5429 117.8 81.4062 117.902C81.2695 118.002 81.1663 118.143 81.0965 118.324C81.0268 118.504 80.9919 118.714 80.9919 118.954Z" fill="#130C49"/>
<path d="M79.705 118.067L79.2615 118.193C79.2336 118.119 79.1924 118.047 79.138 117.977C79.085 117.906 79.0125 117.847 78.9204 117.801C78.8284 117.755 78.7105 117.732 78.5668 117.732C78.3702 117.732 78.2063 117.778 78.0752 117.868C77.9455 117.957 77.8806 118.071 77.8806 118.209C77.8806 118.332 77.9252 118.429 78.0145 118.5C78.1038 118.571 78.2433 118.63 78.433 118.678L78.91 118.795C79.1973 118.865 79.4114 118.971 79.5523 119.115C79.6931 119.257 79.7636 119.441 79.7636 119.665C79.7636 119.85 79.7106 120.014 79.6046 120.159C79.5 120.304 79.3535 120.419 79.1652 120.502C78.9769 120.586 78.7579 120.628 78.5083 120.628C78.1805 120.628 77.9092 120.557 77.6944 120.414C77.4796 120.272 77.3436 120.064 77.2864 119.791L77.7551 119.674C77.7997 119.847 77.8841 119.976 78.0082 120.063C78.1338 120.149 78.2977 120.193 78.4999 120.193C78.73 120.193 78.9128 120.144 79.048 120.046C79.1847 119.947 79.2531 119.829 79.2531 119.69C79.2531 119.579 79.214 119.485 79.1359 119.41C79.0578 119.333 78.9379 119.276 78.7761 119.239L78.2405 119.113C77.9462 119.043 77.73 118.935 77.5919 118.789C77.4552 118.641 77.3869 118.456 77.3869 118.234C77.3869 118.053 77.4378 117.893 77.5396 117.753C77.6428 117.614 77.783 117.504 77.9601 117.425C78.1387 117.345 78.3409 117.305 78.5668 117.305C78.8849 117.305 79.1345 117.375 79.3158 117.515C79.4986 117.654 79.6283 117.838 79.705 118.067Z" fill="#130C49"/>
<path d="M75.3477 120.628C75.0381 120.628 74.771 120.559 74.5464 120.423C74.3233 120.285 74.151 120.092 74.0297 119.845C73.9097 119.597 73.8497 119.308 73.8497 118.979C73.8497 118.65 73.9097 118.36 74.0297 118.109C74.151 117.856 74.3198 117.66 74.536 117.519C74.7536 117.377 75.0074 117.305 75.2975 117.305C75.4649 117.305 75.6302 117.333 75.7934 117.389C75.9566 117.445 76.1051 117.536 76.239 117.661C76.3729 117.785 76.4796 117.95 76.5591 118.155C76.6386 118.36 76.6784 118.612 76.6784 118.912V119.121H74.2012V118.695H76.1762C76.1762 118.513 76.14 118.352 76.0674 118.209C75.9963 118.067 75.8945 117.955 75.762 117.872C75.6309 117.79 75.476 117.749 75.2975 117.749C75.1009 117.749 74.9307 117.798 74.787 117.895C74.6448 117.992 74.5353 118.117 74.4586 118.272C74.3818 118.427 74.3435 118.593 74.3435 118.77V119.054C74.3435 119.297 74.3853 119.503 74.469 119.672C74.5541 119.839 74.672 119.967 74.8226 120.055C74.9732 120.141 75.1483 120.184 75.3477 120.184C75.4774 120.184 75.5946 120.166 75.6992 120.13C75.8052 120.092 75.8966 120.036 75.9733 119.962C76.05 119.887 76.1093 119.794 76.1511 119.682L76.6281 119.816C76.5779 119.978 76.4935 120.12 76.375 120.243C76.2564 120.364 76.11 120.459 75.9356 120.527C75.7613 120.594 75.5653 120.628 75.3477 120.628Z" fill="#130C49"/>
<path d="M70.3325 120.561V116.276H71.7802C72.115 116.276 72.3898 116.334 72.6046 116.448C72.8194 116.561 72.9784 116.717 73.0816 116.915C73.1848 117.113 73.2364 117.338 73.2364 117.59C73.2364 117.843 73.1848 118.067 73.0816 118.262C72.9784 118.457 72.8201 118.611 72.6067 118.722C72.3933 118.832 72.1206 118.887 71.7886 118.887H70.617V118.419H71.7719C72.0006 118.419 72.1847 118.385 72.3242 118.318C72.4651 118.251 72.5669 118.157 72.6297 118.034C72.6938 117.91 72.7259 117.762 72.7259 117.59C72.7259 117.419 72.6938 117.269 72.6297 117.141C72.5655 117.012 72.463 116.913 72.3221 116.843C72.1812 116.772 71.995 116.737 71.7635 116.737H70.8513V120.561H70.3325ZM72.3493 118.636L73.4038 120.561H72.8012L71.7635 118.636H72.3493Z" fill="#130C49"/>
<path d="M50.6143 35.8475V36.266H48.9489V35.8475H50.6143ZM49.4343 35.0776H49.9281V38.1406C49.9281 38.28 49.9483 38.3846 49.9887 38.4544C50.0306 38.5227 50.0836 38.5688 50.1477 38.5925C50.2133 38.6148 50.2823 38.6259 50.3549 38.6259C50.4093 38.6259 50.4539 38.6232 50.4888 38.6176C50.5236 38.6106 50.5515 38.605 50.5724 38.6008L50.6729 39.0444C50.6394 39.0569 50.5927 39.0695 50.5327 39.082C50.4727 39.096 50.3967 39.103 50.3046 39.103C50.1652 39.103 50.0285 39.073 49.8946 39.013C49.7621 38.953 49.6519 38.8617 49.564 38.7389C49.4775 38.6162 49.4343 38.4614 49.4343 38.2745V35.0776Z" fill="#130C49"/>
<path d="M46.2284 37.1281V39.0613H45.7346V34.7765H46.2284V36.3498H46.2702C46.3455 36.1838 46.4585 36.052 46.6091 35.9544C46.7612 35.8553 46.9634 35.8058 47.2159 35.8058C47.4349 35.8058 47.6266 35.8498 47.7912 35.9376C47.9558 36.0241 48.0834 36.1573 48.1741 36.3372C48.2662 36.5158 48.3122 36.7431 48.3122 37.0193V39.0613H47.8184V37.0528C47.8184 36.7975 47.7522 36.6002 47.6197 36.4607C47.4886 36.3198 47.3065 36.2494 47.0736 36.2494C46.9118 36.2494 46.7668 36.2835 46.6384 36.3519C46.5115 36.4202 46.4111 36.52 46.3372 36.6511C46.2646 36.7822 46.2284 36.9412 46.2284 37.1281Z" fill="#130C49"/>
<path d="M43.4427 40.3329C43.2042 40.3329 42.9991 40.3022 42.8276 40.2409C42.656 40.1809 42.513 40.1014 42.3987 40.0024C42.2857 39.9047 42.1957 39.8001 42.1288 39.6885L42.5221 39.4124C42.5667 39.4709 42.6232 39.5379 42.6916 39.6132C42.7599 39.6899 42.8534 39.7562 42.9719 39.812C43.0919 39.8692 43.2488 39.8977 43.4427 39.8977C43.7021 39.8977 43.9162 39.835 44.085 39.7094C44.2537 39.5839 44.3381 39.3873 44.3381 39.1195V38.4667H44.2963C44.26 38.5253 44.2084 38.5978 44.1414 38.6843C44.0759 38.7694 43.981 38.8454 43.8569 38.9123C43.7342 38.9779 43.5682 39.0107 43.359 39.0107C43.0995 39.0107 42.8666 38.9493 42.6602 38.8266C42.4552 38.7038 42.2927 38.5253 42.1727 38.291C42.0542 38.0566 41.9949 37.7721 41.9949 37.4373C41.9949 37.1082 42.0528 36.8216 42.1685 36.5775C42.2843 36.332 42.4454 36.1423 42.6518 36.0084C42.8582 35.8731 43.0968 35.8055 43.3673 35.8055C43.5766 35.8055 43.7425 35.8403 43.8653 35.9101C43.9894 35.9784 44.0843 36.0565 44.1498 36.1444C44.2168 36.2309 44.2684 36.302 44.3046 36.3578H44.3548V35.8473H44.8319V39.1529C44.8319 39.4291 44.7691 39.6537 44.6436 39.8266C44.5194 40.001 44.3521 40.1286 44.1414 40.2095C43.9322 40.2918 43.6993 40.3329 43.4427 40.3329ZM43.4259 38.5671C43.624 38.5671 43.7914 38.5218 43.928 38.4311C44.0647 38.3405 44.1686 38.2101 44.2398 38.0399C44.3109 37.8697 44.3465 37.6661 44.3465 37.429C44.3465 37.1974 44.3116 36.9931 44.2419 36.816C44.1721 36.6388 44.0689 36.5001 43.9322 36.3996C43.7955 36.2992 43.6268 36.249 43.4259 36.249C43.2167 36.249 43.0424 36.302 42.9029 36.408C42.7648 36.514 42.6609 36.6563 42.5911 36.8348C42.5228 37.0133 42.4886 37.2114 42.4886 37.429C42.4886 37.6521 42.5235 37.8495 42.5932 38.0211C42.6644 38.1912 42.769 38.3251 42.9071 38.4228C43.0465 38.519 43.2195 38.5671 43.4259 38.5671Z" fill="#130C49"/>
<path d="M40.7462 37.7472V35.8475H41.24V39.0611H40.7462V38.5172H40.7127C40.6374 38.6804 40.5202 38.8191 40.3612 38.9335C40.2022 39.0465 40.0014 39.103 39.7587 39.103C39.5578 39.103 39.3793 39.059 39.2231 38.9712C39.0669 38.8819 38.9441 38.748 38.8549 38.5695C38.7656 38.3895 38.721 38.1629 38.721 37.8895V35.8475H39.2147V37.856C39.2147 38.0904 39.2803 38.2773 39.4114 38.4167C39.5439 38.5562 39.7127 38.626 39.9177 38.626C40.0404 38.626 40.1653 38.5946 40.2922 38.5318C40.4205 38.469 40.5279 38.3728 40.6144 38.2431C40.7023 38.1134 40.7462 37.9481 40.7462 37.7472Z" fill="#130C49"/>
<path d="M36.5123 39.1278C36.2222 39.1278 35.9676 39.0588 35.7486 38.9207C35.531 38.7826 35.3609 38.5894 35.2381 38.3412C35.1168 38.0929 35.0561 37.8028 35.0561 37.4708C35.0561 37.1361 35.1168 36.8439 35.2381 36.5942C35.3609 36.3445 35.531 36.1507 35.7486 36.0126C35.9676 35.8745 36.2222 35.8055 36.5123 35.8055C36.8024 35.8055 37.0562 35.8745 37.2738 36.0126C37.4928 36.1507 37.663 36.3445 37.7843 36.5942C37.9071 36.8439 37.9684 37.1361 37.9684 37.4708C37.9684 37.8028 37.9071 38.0929 37.7843 38.3412C37.663 38.5894 37.4928 38.7826 37.2738 38.9207C37.0562 39.0588 36.8024 39.1278 36.5123 39.1278ZM36.5123 38.6843C36.7327 38.6843 36.914 38.6278 37.0562 38.5148C37.1985 38.4018 37.3038 38.2533 37.3722 38.0692C37.4405 37.8851 37.4747 37.6856 37.4747 37.4708C37.4747 37.256 37.4405 37.0559 37.3722 36.8704C37.3038 36.6849 37.1985 36.5349 37.0562 36.4205C36.914 36.3062 36.7327 36.249 36.5123 36.249C36.2919 36.249 36.1106 36.3062 35.9683 36.4205C35.826 36.5349 35.7207 36.6849 35.6524 36.8704C35.584 37.0559 35.5499 37.256 35.5499 37.4708C35.5499 37.6856 35.584 37.8851 35.6524 38.0692C35.7207 38.2533 35.826 38.4018 35.9683 38.5148C36.1106 38.6278 36.2919 38.6843 36.5123 38.6843Z" fill="#130C49"/>
<path d="M32.2186 37.1281V39.0613H31.7249V34.7765H32.2186V36.3498H32.2605C32.3358 36.1838 32.4488 36.052 32.5994 35.9544C32.7514 35.8553 32.9537 35.8058 33.2061 35.8058C33.4251 35.8058 33.6169 35.8498 33.7815 35.9376C33.9461 36.0241 34.0737 36.1573 34.1644 36.3372C34.2564 36.5158 34.3024 36.7431 34.3024 37.0193V39.0613H33.8087V37.0528C33.8087 36.7975 33.7424 36.6002 33.6099 36.4607C33.4788 36.3198 33.2968 36.2494 33.0639 36.2494C32.9021 36.2494 32.757 36.2835 32.6287 36.3519C32.5018 36.4202 32.4014 36.52 32.3274 36.6511C32.2549 36.7822 32.2186 36.9412 32.2186 37.1281Z" fill="#130C49"/>
<path d="M27.778 35.2367V34.7765H30.9915V35.2367H29.6442V39.0612H29.1253V35.2367H27.778Z" fill="#130C49"/>
<path d="M27.0478 62.3592V62.7776H25.3824V62.3592H27.0478ZM25.8678 61.5893H26.3616V64.6522C26.3616 64.7917 26.3818 64.8963 26.4223 64.9661C26.4641 65.0344 26.5171 65.0804 26.5813 65.1041C26.6468 65.1265 26.7159 65.1376 26.7884 65.1376C26.8428 65.1376 26.8874 65.1348 26.9223 65.1292C26.9572 65.1223 26.9851 65.1167 27.006 65.1125L27.1064 65.556C27.0729 65.5686 27.0262 65.5812 26.9662 65.5937C26.9062 65.6077 26.8302 65.6146 26.7382 65.6146C26.5987 65.6146 26.462 65.5846 26.3281 65.5247C26.1956 65.4647 26.0854 65.3733 25.9975 65.2506C25.9111 65.1278 25.8678 64.973 25.8678 64.7861V61.5893Z" fill="#130C49"/>
<path d="M22.6619 63.6398V65.5729H22.1682V61.2882H22.6619V62.8615H22.7038C22.7791 62.6955 22.8921 62.5637 23.0427 62.466C23.1947 62.367 23.397 62.3175 23.6494 62.3175C23.8684 62.3175 24.0602 62.3614 24.2248 62.4493C24.3894 62.5358 24.517 62.669 24.6077 62.8489C24.6997 63.0274 24.7457 63.2548 24.7457 63.531V65.5729H24.252V63.5644C24.252 63.3092 24.1857 63.1118 24.0532 62.9724C23.9221 62.8315 23.7401 62.761 23.5072 62.761C23.3454 62.761 23.2003 62.7952 23.072 62.8636C22.9451 62.9319 22.8447 63.0316 22.7707 63.1627C22.6982 63.2939 22.6619 63.4529 22.6619 63.6398Z" fill="#130C49"/>
<path d="M19.8762 66.8446C19.6377 66.8446 19.4327 66.8139 19.2611 66.7525C19.0895 66.6926 18.9466 66.613 18.8322 66.514C18.7192 66.4164 18.6293 66.3118 18.5623 66.2002L18.9556 65.924C19.0003 65.9826 19.0568 66.0496 19.1251 66.1249C19.1934 66.2016 19.2869 66.2678 19.4055 66.3236C19.5254 66.3808 19.6823 66.4094 19.8762 66.4094C20.1356 66.4094 20.3497 66.3466 20.5185 66.2211C20.6873 66.0956 20.7716 65.8989 20.7716 65.6311V64.9784H20.7298C20.6935 65.0369 20.6419 65.1095 20.575 65.1959C20.5094 65.281 20.4146 65.357 20.2904 65.424C20.1677 65.4896 20.0017 65.5223 19.7925 65.5223C19.5331 65.5223 19.3001 65.461 19.0937 65.3382C18.8887 65.2155 18.7262 65.0369 18.6062 64.8026C18.4877 64.5683 18.4284 64.2838 18.4284 63.949C18.4284 63.6198 18.4863 63.3332 18.6021 63.0891C18.7178 62.8436 18.8789 62.654 19.0853 62.5201C19.2918 62.3848 19.5303 62.3171 19.8009 62.3171C20.0101 62.3171 20.1761 62.352 20.2988 62.4217C20.4229 62.4901 20.5178 62.5682 20.5833 62.656C20.6503 62.7425 20.7019 62.8137 20.7382 62.8695H20.7884V62.359H21.2654V65.6646C21.2654 65.9408 21.2026 66.1653 21.0771 66.3383C20.953 66.5126 20.7856 66.6402 20.575 66.7211C20.3658 66.8034 20.1328 66.8446 19.8762 66.8446ZM19.8595 65.0788C20.0575 65.0788 20.2249 65.0335 20.3616 64.9428C20.4983 64.8521 20.6022 64.7217 20.6733 64.5516C20.7444 64.3814 20.78 64.1778 20.78 63.9406C20.78 63.7091 20.7451 63.5048 20.6754 63.3276C20.6057 63.1505 20.5024 63.0117 20.3658 62.9113C20.2291 62.8109 20.0603 62.7607 19.8595 62.7607C19.6502 62.7607 19.4759 62.8137 19.3364 62.9197C19.1983 63.0257 19.0944 63.1679 19.0247 63.3465C18.9563 63.525 18.9222 63.7231 18.9222 63.9406C18.9222 64.1638 18.957 64.3612 19.0268 64.5327C19.0979 64.7029 19.2025 64.8368 19.3406 64.9344C19.4801 65.0307 19.653 65.0788 19.8595 65.0788Z" fill="#130C49"/>
<path d="M17.1799 64.2589V62.3592H17.6736V65.5728H17.1799V65.0288H17.1464C17.0711 65.192 16.9539 65.3308 16.7949 65.4452C16.6359 65.5582 16.4351 65.6146 16.1924 65.6146C15.9915 65.6146 15.813 65.5707 15.6568 65.4828C15.5006 65.3936 15.3778 65.2597 15.2886 65.0811C15.1993 64.9012 15.1547 64.6746 15.1547 64.4012V62.3592H15.6484V64.3677C15.6484 64.602 15.714 64.7889 15.8451 64.9284C15.9776 65.0679 16.1464 65.1376 16.3514 65.1376C16.4741 65.1376 16.599 65.1062 16.7259 65.0435C16.8542 64.9807 16.9616 64.8845 17.0481 64.7548C17.136 64.625 17.1799 64.4598 17.1799 64.2589Z" fill="#130C49"/>
<path d="M12.9458 65.6395C12.6557 65.6395 12.4011 65.5704 12.1822 65.4324C11.9646 65.2943 11.7944 65.1011 11.6717 64.8528C11.5503 64.6046 11.4897 64.3144 11.4897 63.9825C11.4897 63.6477 11.5503 63.3555 11.6717 63.1059C11.7944 62.8562 11.9646 62.6623 12.1822 62.5242C12.4011 62.3862 12.6557 62.3171 12.9458 62.3171C13.2359 62.3171 13.4898 62.3862 13.7074 62.5242C13.9263 62.6623 14.0965 62.8562 14.2179 63.1059C14.3406 63.3555 14.402 63.6477 14.402 63.9825C14.402 64.3144 14.3406 64.6046 14.2179 64.8528C14.0965 65.1011 13.9263 65.2943 13.7074 65.4324C13.4898 65.5704 13.2359 65.6395 12.9458 65.6395ZM12.9458 65.1959C13.1662 65.1959 13.3475 65.1395 13.4898 65.0265C13.632 64.9135 13.7373 64.765 13.8057 64.5808C13.874 64.3967 13.9082 64.1973 13.9082 63.9825C13.9082 63.7677 13.874 63.5675 13.8057 63.382C13.7373 63.1965 13.632 63.0466 13.4898 62.9322C13.3475 62.8178 13.1662 62.7607 12.9458 62.7607C12.7254 62.7607 12.5441 62.8178 12.4018 62.9322C12.2596 63.0466 12.1543 63.1965 12.0859 63.382C12.0176 63.5675 11.9834 63.7677 11.9834 63.9825C11.9834 64.1973 12.0176 64.3967 12.0859 64.5808C12.1543 64.765 12.2596 64.9135 12.4018 65.0265C12.5441 65.1395 12.7254 65.1959 12.9458 65.1959Z" fill="#130C49"/>
<path d="M8.65217 63.6398V65.5729H8.15842V61.2882H8.65217V62.8615H8.69401C8.76933 62.6955 8.88231 62.5637 9.03295 62.466C9.18498 62.367 9.38722 62.3175 9.63968 62.3175C9.85866 62.3175 10.0504 62.3614 10.215 62.4493C10.3796 62.5358 10.5072 62.669 10.5979 62.8489C10.6899 63.0274 10.736 63.2548 10.736 63.531V65.5729H10.2422V63.5644C10.2422 63.3092 10.176 63.1118 10.0435 62.9724C9.91236 62.8315 9.73034 62.761 9.49741 62.761C9.33561 62.761 9.19056 62.7952 9.06224 62.8636C8.93531 62.9319 8.83489 63.0316 8.76096 63.1627C8.68843 63.2939 8.65217 63.4529 8.65217 63.6398Z" fill="#130C49"/>
<path d="M4.21161 61.7484V61.2881H7.42519V61.7484H6.07783V65.5729H5.55897V61.7484H4.21161Z" fill="#130C49"/>
<path d="M70.2531 62.3592V62.7776H68.5878V62.3592H70.2531ZM69.0732 61.5893H69.5669V64.6522C69.5669 64.7917 69.5871 64.8963 69.6276 64.9661C69.6694 65.0344 69.7224 65.0804 69.7866 65.1041C69.8521 65.1265 69.9212 65.1376 69.9937 65.1376C70.0481 65.1376 70.0927 65.1348 70.1276 65.1292C70.1625 65.1223 70.1904 65.1167 70.2113 65.1125L70.3117 65.556C70.2782 65.5686 70.2315 65.5812 70.1715 65.5937C70.1116 65.6077 70.0356 65.6146 69.9435 65.6146C69.804 65.6146 69.6673 65.5846 69.5334 65.5247C69.4009 65.4647 69.2907 65.3733 69.2029 65.2506C69.1164 65.1278 69.0732 64.973 69.0732 64.7861V61.5893Z" fill="#130C49"/>
<path d="M65.8673 63.6398V65.5729H65.3735V61.2882H65.8673V62.8615H65.9091C65.9844 62.6955 66.0974 62.5637 66.248 62.466C66.4001 62.367 66.6023 62.3175 66.8548 62.3175C67.0737 62.3175 67.2655 62.3614 67.4301 62.4493C67.5947 62.5358 67.7223 62.669 67.813 62.8489C67.905 63.0274 67.9511 63.2548 67.9511 63.531V65.5729H67.4573V63.5644C67.4573 63.3092 67.3911 63.1118 67.2586 62.9724C67.1274 62.8315 66.9454 62.761 66.7125 62.761C66.5507 62.761 66.4056 62.7952 66.2773 62.8636C66.1504 62.9319 66.05 63.0316 65.9761 63.1627C65.9035 63.2939 65.8673 63.4529 65.8673 63.6398Z" fill="#130C49"/>
<path d="M63.0814 66.8446C62.8429 66.8446 62.6379 66.8139 62.4663 66.7525C62.2947 66.6926 62.1518 66.613 62.0374 66.514C61.9244 66.4164 61.8345 66.3118 61.7675 66.2002L62.1608 65.924C62.2055 65.9826 62.262 66.0496 62.3303 66.1249C62.3986 66.2016 62.4921 66.2678 62.6107 66.3236C62.7306 66.3808 62.8875 66.4094 63.0814 66.4094C63.3408 66.4094 63.5549 66.3466 63.7237 66.2211C63.8925 66.0956 63.9768 65.8989 63.9768 65.6311V64.9784H63.935C63.8987 65.0369 63.8471 65.1095 63.7802 65.1959C63.7146 65.281 63.6198 65.357 63.4956 65.424C63.3729 65.4896 63.2069 65.5223 62.9977 65.5223C62.7383 65.5223 62.5053 65.461 62.2989 65.3382C62.0939 65.2155 61.9314 65.0369 61.8114 64.8026C61.6929 64.5683 61.6336 64.2838 61.6336 63.949C61.6336 63.6198 61.6915 63.3332 61.8073 63.0891C61.923 62.8436 62.0841 62.654 62.2905 62.5201C62.497 62.3848 62.7355 62.3171 63.0061 62.3171C63.2153 62.3171 63.3813 62.352 63.504 62.4217C63.6281 62.4901 63.723 62.5682 63.7885 62.656C63.8555 62.7425 63.9071 62.8137 63.9434 62.8695H63.9936V62.359H64.4706V65.6646C64.4706 65.9408 64.4078 66.1653 64.2823 66.3383C64.1582 66.5126 63.9908 66.6402 63.7802 66.7211C63.571 66.8034 63.338 66.8446 63.0814 66.8446ZM63.0647 65.0788C63.2627 65.0788 63.4301 65.0335 63.5668 64.9428C63.7035 64.8521 63.8074 64.7217 63.8785 64.5516C63.9496 64.3814 63.9852 64.1778 63.9852 63.9406C63.9852 63.7091 63.9503 63.5048 63.8806 63.3276C63.8109 63.1505 63.7076 63.0117 63.571 62.9113C63.4343 62.8109 63.2655 62.7607 63.0647 62.7607C62.8554 62.7607 62.6811 62.8137 62.5416 62.9197C62.4035 63.0257 62.2996 63.1679 62.2299 63.3465C62.1615 63.525 62.1274 63.7231 62.1274 63.9406C62.1274 64.1638 62.1622 64.3612 62.232 64.5327C62.3031 64.7029 62.4077 64.8368 62.5458 64.9344C62.6853 65.0307 62.8582 65.0788 63.0647 65.0788Z" fill="#130C49"/>
<path d="M60.3851 64.2589V62.3592H60.8789V65.5728H60.3851V65.0288H60.3516C60.2763 65.192 60.1592 65.3308 60.0002 65.4452C59.8412 65.5582 59.6403 65.6146 59.3976 65.6146C59.1968 65.6146 59.0182 65.5707 58.862 65.4828C58.7058 65.3936 58.5831 65.2597 58.4938 65.0811C58.4045 64.9012 58.3599 64.6746 58.3599 64.4012V62.3592H58.8536V64.3677C58.8536 64.602 58.9192 64.7889 59.0503 64.9284C59.1828 65.0679 59.3516 65.1376 59.5566 65.1376C59.6794 65.1376 59.8042 65.1062 59.9311 65.0435C60.0594 64.9807 60.1668 64.8845 60.2533 64.7548C60.3412 64.625 60.3851 64.4598 60.3851 64.2589Z" fill="#130C49"/>
<path d="M56.1511 65.6395C55.861 65.6395 55.6065 65.5704 55.3875 65.4324C55.1699 65.2943 54.9997 65.1011 54.877 64.8528C54.7557 64.6046 54.695 64.3144 54.695 63.9825C54.695 63.6477 54.7557 63.3555 54.877 63.1059C54.9997 62.8562 55.1699 62.6623 55.3875 62.5242C55.6065 62.3862 55.861 62.3171 56.1511 62.3171C56.4412 62.3171 56.6951 62.3862 56.9127 62.5242C57.1317 62.6623 57.3018 62.8562 57.4232 63.1059C57.5459 63.3555 57.6073 63.6477 57.6073 63.9825C57.6073 64.3144 57.5459 64.6046 57.4232 64.8528C57.3018 65.1011 57.1317 65.2943 56.9127 65.4324C56.6951 65.5704 56.4412 65.6395 56.1511 65.6395ZM56.1511 65.1959C56.3715 65.1959 56.5528 65.1395 56.6951 65.0265C56.8374 64.9135 56.9427 64.765 57.011 64.5808C57.0794 64.3967 57.1135 64.1973 57.1135 63.9825C57.1135 63.7677 57.0794 63.5675 57.011 63.382C56.9427 63.1965 56.8374 63.0466 56.6951 62.9322C56.5528 62.8178 56.3715 62.7607 56.1511 62.7607C55.9308 62.7607 55.7494 62.8178 55.6072 62.9322C55.4649 63.0466 55.3596 63.1965 55.2912 63.382C55.2229 63.5675 55.1887 63.7677 55.1887 63.9825C55.1887 64.1973 55.2229 64.3967 55.2912 64.5808C55.3596 64.765 55.4649 64.9135 55.6072 65.0265C55.7494 65.1395 55.9308 65.1959 56.1511 65.1959Z" fill="#130C49"/>
<path d="M51.8575 63.6398V65.5729H51.3637V61.2882H51.8575V62.8615H51.8993C51.9747 62.6955 52.0876 62.5637 52.2383 62.466C52.3903 62.367 52.5925 62.3175 52.845 62.3175C53.064 62.3175 53.2558 62.3614 53.4203 62.4493C53.5849 62.5358 53.7126 62.669 53.8032 62.8489C53.8953 63.0274 53.9413 63.2548 53.9413 63.531V65.5729H53.4475V63.5644C53.4475 63.3092 53.3813 63.1118 53.2488 62.9724C53.1177 62.8315 52.9357 62.761 52.7027 62.761C52.5409 62.761 52.3959 62.7952 52.2676 62.8636C52.1406 62.9319 52.0402 63.0316 51.9663 63.1627C51.8938 63.2939 51.8575 63.4529 51.8575 63.6398Z" fill="#130C49"/>
<path d="M47.4168 61.7484V61.2881H50.6304V61.7484H49.2831V65.5729H48.7642V61.7484H47.4168Z" fill="#130C49"/>
<path d="M114.44 62.3592V62.7776H112.774V62.3592H114.44ZM113.26 61.5893H113.754V64.6522C113.754 64.7917 113.774 64.8963 113.814 64.9661C113.856 65.0344 113.909 65.0804 113.973 65.1041C114.039 65.1265 114.108 65.1376 114.18 65.1376C114.235 65.1376 114.279 65.1348 114.314 65.1292C114.349 65.1223 114.377 65.1167 114.398 65.1125L114.498 65.556C114.465 65.5686 114.418 65.5812 114.358 65.5937C114.298 65.6077 114.222 65.6146 114.13 65.6146C113.991 65.6146 113.854 65.5846 113.72 65.5247C113.588 65.4647 113.477 65.3733 113.39 65.2506C113.303 65.1278 113.26 64.973 113.26 64.7861V61.5893Z" fill="#130C49"/>
<path d="M110.054 63.6398V65.5729H109.56V61.2882H110.054V62.8615H110.096C110.171 62.6955 110.284 62.5637 110.435 62.466C110.587 62.367 110.789 62.3175 111.041 62.3175C111.26 62.3175 111.452 62.3614 111.617 62.4493C111.781 62.5358 111.909 62.669 112 62.8489C112.092 63.0274 112.138 63.2548 112.138 63.531V65.5729H111.644V63.5644C111.644 63.3092 111.578 63.1118 111.445 62.9724C111.314 62.8315 111.132 62.761 110.899 62.761C110.737 62.761 110.592 62.7952 110.464 62.8636C110.337 62.9319 110.237 63.0316 110.163 63.1627C110.09 63.2939 110.054 63.4529 110.054 63.6398Z" fill="#130C49"/>
<path d="M107.268 66.8446C107.03 66.8446 106.825 66.8139 106.653 66.7525C106.481 66.6926 106.338 66.613 106.224 66.514C106.111 66.4164 106.021 66.3118 105.954 66.2002L106.348 65.924C106.392 65.9826 106.449 66.0496 106.517 66.1249C106.585 66.2016 106.679 66.2678 106.797 66.3236C106.917 66.3808 107.074 66.4094 107.268 66.4094C107.528 66.4094 107.742 66.3466 107.91 66.2211C108.079 66.0956 108.164 65.8989 108.164 65.6311V64.9784H108.122C108.085 65.0369 108.034 65.1095 107.967 65.1959C107.901 65.281 107.806 65.357 107.682 65.424C107.56 65.4896 107.394 65.5223 107.184 65.5223C106.925 65.5223 106.692 65.461 106.486 65.3382C106.281 65.2155 106.118 65.0369 105.998 64.8026C105.88 64.5683 105.82 64.2838 105.82 63.949C105.82 63.6198 105.878 63.3332 105.994 63.0891C106.11 62.8436 106.271 62.654 106.477 62.5201C106.684 62.3848 106.922 62.3171 107.193 62.3171C107.402 62.3171 107.568 62.352 107.691 62.4217C107.815 62.4901 107.91 62.5682 107.975 62.656C108.042 62.7425 108.094 62.8137 108.13 62.8695H108.18V62.359H108.657V65.6646C108.657 65.9408 108.595 66.1653 108.469 66.3383C108.345 66.5126 108.177 66.6402 107.967 66.7211C107.758 66.8034 107.525 66.8446 107.268 66.8446ZM107.251 65.0788C107.449 65.0788 107.617 65.0335 107.753 64.9428C107.89 64.8521 107.994 64.7217 108.065 64.5516C108.136 64.3814 108.172 64.1778 108.172 63.9406C108.172 63.7091 108.137 63.5048 108.067 63.3276C107.998 63.1505 107.894 63.0117 107.758 62.9113C107.621 62.8109 107.452 62.7607 107.251 62.7607C107.042 62.7607 106.868 62.8137 106.728 62.9197C106.59 63.0257 106.486 63.1679 106.417 63.3465C106.348 63.525 106.314 63.7231 106.314 63.9406C106.314 64.1638 106.349 64.3612 106.419 64.5327C106.49 64.7029 106.594 64.8368 106.733 64.9344C106.872 65.0307 107.045 65.0788 107.251 65.0788Z" fill="#130C49"/>
<path d="M104.572 64.2589V62.3592H105.066V65.5728H104.572V65.0288H104.538C104.463 65.192 104.346 65.3308 104.187 65.4452C104.028 65.5582 103.827 65.6146 103.584 65.6146C103.384 65.6146 103.205 65.5707 103.049 65.4828C102.893 65.3936 102.77 65.2597 102.681 65.0811C102.591 64.9012 102.547 64.6746 102.547 64.4012V62.3592H103.04V64.3677C103.04 64.602 103.106 64.7889 103.237 64.9284C103.37 65.0679 103.538 65.1376 103.743 65.1376C103.866 65.1376 103.991 65.1062 104.118 65.0435C104.246 64.9807 104.354 64.8845 104.44 64.7548C104.528 64.625 104.572 64.4598 104.572 64.2589Z" fill="#130C49"/>
<path d="M100.338 65.6395C100.048 65.6395 99.7931 65.5704 99.5741 65.4324C99.3565 65.2943 99.1864 65.1011 99.0636 64.8528C98.9423 64.6046 98.8816 64.3144 98.8816 63.9825C98.8816 63.6477 98.9423 63.3555 99.0636 63.1059C99.1864 62.8562 99.3565 62.6623 99.5741 62.5242C99.7931 62.3862 100.048 62.3171 100.338 62.3171C100.628 62.3171 100.882 62.3862 101.099 62.5242C101.318 62.6623 101.488 62.8562 101.61 63.1059C101.733 63.3555 101.794 63.6477 101.794 63.9825C101.794 64.3144 101.733 64.6046 101.61 64.8528C101.488 65.1011 101.318 65.2943 101.099 65.4324C100.882 65.5704 100.628 65.6395 100.338 65.6395ZM100.338 65.1959C100.558 65.1959 100.739 65.1395 100.882 65.0265C101.024 64.9135 101.129 64.765 101.198 64.5808C101.266 64.3967 101.3 64.1973 101.3 63.9825C101.3 63.7677 101.266 63.5675 101.198 63.382C101.129 63.1965 101.024 63.0466 100.882 62.9322C100.739 62.8178 100.558 62.7607 100.338 62.7607C100.117 62.7607 99.936 62.8178 99.7938 62.9322C99.6515 63.0466 99.5462 63.1965 99.4779 63.382C99.4095 63.5675 99.3753 63.7677 99.3753 63.9825C99.3753 64.1973 99.4095 64.3967 99.4779 64.5808C99.5462 64.765 99.6515 64.9135 99.7938 65.0265C99.936 65.1395 100.117 65.1959 100.338 65.1959Z" fill="#130C49"/>
<path d="M96.0441 63.6398V65.5729H95.5504V61.2882H96.0441V62.8615H96.086C96.1613 62.6955 96.2742 62.5637 96.4249 62.466C96.5769 62.367 96.7792 62.3175 97.0316 62.3175C97.2506 62.3175 97.4424 62.3614 97.607 62.4493C97.7715 62.5358 97.8992 62.669 97.9898 62.8489C98.0819 63.0274 98.1279 63.2548 98.1279 63.531V65.5729H97.6342V63.5644C97.6342 63.3092 97.5679 63.1118 97.4354 62.9724C97.3043 62.8315 97.1223 62.761 96.8893 62.761C96.7276 62.761 96.5825 62.7952 96.4542 62.8636C96.3272 62.9319 96.2268 63.0316 96.1529 63.1627C96.0804 63.2939 96.0441 63.4529 96.0441 63.6398Z" fill="#130C49"/>
<path d="M91.6035 61.7484V61.2881H94.817V61.7484H93.4697V65.5729H92.9508V61.7484H91.6035Z" fill="#130C49"/>
<path d="M157.644 62.3592V62.7776H155.978V62.3592H157.644ZM156.464 61.5893H156.958V64.6522C156.958 64.7917 156.978 64.8963 157.018 64.9661C157.06 65.0344 157.113 65.0804 157.177 65.1041C157.243 65.1265 157.312 65.1376 157.384 65.1376C157.439 65.1376 157.483 65.1348 157.518 65.1292C157.553 65.1223 157.581 65.1167 157.602 65.1125L157.702 65.556C157.669 65.5686 157.622 65.5812 157.562 65.5937C157.502 65.6077 157.426 65.6146 157.334 65.6146C157.195 65.6146 157.058 65.5846 156.924 65.5247C156.792 65.4647 156.681 65.3733 156.593 65.2506C156.507 65.1278 156.464 64.973 156.464 64.7861V61.5893Z" fill="#130C49"/>
<path d="M153.258 63.6398V65.5729H152.764V61.2882H153.258V62.8615H153.3C153.375 62.6955 153.488 62.5637 153.639 62.466C153.791 62.367 153.993 62.3175 154.245 62.3175C154.464 62.3175 154.656 62.3614 154.821 62.4493C154.985 62.5358 155.113 62.669 155.204 62.8489C155.296 63.0274 155.342 63.2548 155.342 63.531V65.5729H154.848V63.5644C154.848 63.3092 154.782 63.1118 154.649 62.9724C154.518 62.8315 154.336 62.761 154.103 62.761C153.941 62.761 153.796 62.7952 153.668 62.8636C153.541 62.9319 153.441 63.0316 153.367 63.1627C153.294 63.2939 153.258 63.4529 153.258 63.6398Z" fill="#130C49"/>
<path d="M150.472 66.8446C150.234 66.8446 150.029 66.8139 149.857 66.7525C149.685 66.6926 149.543 66.613 149.428 66.514C149.315 66.4164 149.225 66.3118 149.158 66.2002L149.552 65.924C149.596 65.9826 149.653 66.0496 149.721 66.1249C149.789 66.2016 149.883 66.2678 150.001 66.3236C150.121 66.3808 150.278 66.4094 150.472 66.4094C150.732 66.4094 150.946 66.3466 151.114 66.2211C151.283 66.0956 151.368 65.8989 151.368 65.6311V64.9784H151.326C151.289 65.0369 151.238 65.1095 151.171 65.1959C151.105 65.281 151.011 65.357 150.886 65.424C150.764 65.4896 150.598 65.5223 150.388 65.5223C150.129 65.5223 149.896 65.461 149.69 65.3382C149.485 65.2155 149.322 65.0369 149.202 64.8026C149.084 64.5683 149.024 64.2838 149.024 63.949C149.024 63.6198 149.082 63.3332 149.198 63.0891C149.314 62.8436 149.475 62.654 149.681 62.5201C149.888 62.3848 150.126 62.3171 150.397 62.3171C150.606 62.3171 150.772 62.352 150.895 62.4217C151.019 62.4901 151.114 62.5682 151.179 62.656C151.246 62.7425 151.298 62.8137 151.334 62.8695H151.384V62.359H151.861V65.6646C151.861 65.9408 151.799 66.1653 151.673 66.3383C151.549 66.5126 151.382 66.6402 151.171 66.7211C150.962 66.8034 150.729 66.8446 150.472 66.8446ZM150.455 65.0788C150.653 65.0788 150.821 65.0335 150.958 64.9428C151.094 64.8521 151.198 64.7217 151.269 64.5516C151.34 64.3814 151.376 64.1778 151.376 63.9406C151.376 63.7091 151.341 63.5048 151.271 63.3276C151.202 63.1505 151.098 63.0117 150.962 62.9113C150.825 62.8109 150.656 62.7607 150.455 62.7607C150.246 62.7607 150.072 62.8137 149.932 62.9197C149.794 63.0257 149.69 63.1679 149.621 63.3465C149.552 63.525 149.518 63.7231 149.518 63.9406C149.518 64.1638 149.553 64.3612 149.623 64.5327C149.694 64.7029 149.798 64.8368 149.937 64.9344C150.076 65.0307 150.249 65.0788 150.455 65.0788Z" fill="#130C49"/>
<path d="M147.776 64.2589V62.3592H148.27V65.5728H147.776V65.0288H147.742C147.667 65.192 147.55 65.3308 147.391 65.4452C147.232 65.5582 147.031 65.6146 146.788 65.6146C146.587 65.6146 146.409 65.5707 146.253 65.4828C146.096 65.3936 145.974 65.2597 145.884 65.0811C145.795 64.9012 145.751 64.6746 145.751 64.4012V62.3592H146.244V64.3677C146.244 64.602 146.31 64.7889 146.441 64.9284C146.573 65.0679 146.742 65.1376 146.947 65.1376C147.07 65.1376 147.195 65.1062 147.322 65.0435C147.45 64.9807 147.557 64.8845 147.644 64.7548C147.732 64.625 147.776 64.4598 147.776 64.2589Z" fill="#130C49"/>
<path d="M143.542 65.6395C143.252 65.6395 142.997 65.5704 142.778 65.4324C142.561 65.2943 142.39 65.1011 142.268 64.8528C142.146 64.6046 142.086 64.3144 142.086 63.9825C142.086 63.6477 142.146 63.3555 142.268 63.1059C142.39 62.8562 142.561 62.6623 142.778 62.5242C142.997 62.3862 143.252 62.3171 143.542 62.3171C143.832 62.3171 144.086 62.3862 144.303 62.5242C144.522 62.6623 144.693 62.8562 144.814 63.1059C144.937 63.3555 144.998 63.6477 144.998 63.9825C144.998 64.3144 144.937 64.6046 144.814 64.8528C144.693 65.1011 144.522 65.2943 144.303 65.4324C144.086 65.5704 143.832 65.6395 143.542 65.6395ZM143.542 65.1959C143.762 65.1959 143.944 65.1395 144.086 65.0265C144.228 64.9135 144.333 64.765 144.402 64.5808C144.47 64.3967 144.504 64.1973 144.504 63.9825C144.504 63.7677 144.47 63.5675 144.402 63.382C144.333 63.1965 144.228 63.0466 144.086 62.9322C143.944 62.8178 143.762 62.7607 143.542 62.7607C143.321 62.7607 143.14 62.8178 142.998 62.9322C142.856 63.0466 142.75 63.1965 142.682 63.382C142.614 63.5675 142.579 63.7677 142.579 63.9825C142.579 64.1973 142.614 64.3967 142.682 64.5808C142.75 64.765 142.856 64.9135 142.998 65.0265C143.14 65.1395 143.321 65.1959 143.542 65.1959Z" fill="#130C49"/>
<path d="M139.248 63.6398V65.5729H138.754V61.2882H139.248V62.8615H139.29C139.365 62.6955 139.478 62.5637 139.629 62.466C139.781 62.367 139.983 62.3175 140.236 62.3175C140.455 62.3175 140.646 62.3614 140.811 62.4493C140.976 62.5358 141.103 62.669 141.194 62.8489C141.286 63.0274 141.332 63.2548 141.332 63.531V65.5729H140.838V63.5644C140.838 63.3092 140.772 63.1118 140.639 62.9724C140.508 62.8315 140.326 62.761 140.093 62.761C139.932 62.761 139.787 62.7952 139.658 62.8636C139.531 62.9319 139.431 63.0316 139.357 63.1627C139.284 63.2939 139.248 63.4529 139.248 63.6398Z" fill="#130C49"/>
<path d="M134.807 61.7484V61.2881H138.021V61.7484H136.674V65.5729H136.155V61.7484H134.807Z" fill="#130C49"/>
<path d="M157.644 88.8715V89.2899H155.978V88.8715H157.644ZM156.464 88.1016H156.958V91.1645C156.958 91.304 156.978 91.4086 157.018 91.4783C157.06 91.5467 157.113 91.5927 157.177 91.6164C157.243 91.6387 157.312 91.6499 157.384 91.6499C157.439 91.6499 157.483 91.6471 157.518 91.6415C157.553 91.6345 157.581 91.629 157.602 91.6248L157.702 92.0683C157.669 92.0809 157.622 92.0934 157.562 92.106C157.502 92.1199 157.426 92.1269 157.334 92.1269C157.195 92.1269 157.058 92.0969 156.924 92.0369C156.792 91.977 156.681 91.8856 156.593 91.7629C156.507 91.6401 156.464 91.4853 156.464 91.2984V88.1016Z" fill="#130C49"/>
<path d="M153.258 90.152V92.0852H152.764V87.8004H153.258V89.3737H153.3C153.375 89.2078 153.488 89.076 153.639 88.9783C153.791 88.8793 153.993 88.8298 154.245 88.8298C154.464 88.8298 154.656 88.8737 154.821 88.9616C154.985 89.0481 155.113 89.1813 155.204 89.3612C155.296 89.5397 155.342 89.7671 155.342 90.0432V92.0852H154.848V90.0767C154.848 89.8215 154.782 89.6241 154.649 89.4846C154.518 89.3438 154.336 89.2733 154.103 89.2733C153.941 89.2733 153.796 89.3075 153.668 89.3758C153.541 89.4442 153.441 89.5439 153.367 89.675C153.294 89.8061 153.258 89.9651 153.258 90.152Z" fill="#130C49"/>
<path d="M150.472 93.3568C150.234 93.3568 150.029 93.3262 149.857 93.2648C149.685 93.2048 149.543 93.1253 149.428 93.0263C149.315 92.9286 149.225 92.824 149.158 92.7125L149.552 92.4363C149.596 92.4949 149.653 92.5618 149.721 92.6371C149.789 92.7138 149.883 92.7801 150.001 92.8359C150.121 92.8931 150.278 92.9217 150.472 92.9217C150.732 92.9217 150.946 92.8589 151.114 92.7334C151.283 92.6078 151.368 92.4112 151.368 92.1434V91.4906H151.326C151.289 91.5492 151.238 91.6217 151.171 91.7082C151.105 91.7933 151.011 91.8693 150.886 91.9363C150.764 92.0018 150.598 92.0346 150.388 92.0346C150.129 92.0346 149.896 91.9732 149.69 91.8505C149.485 91.7277 149.322 91.5492 149.202 91.3149C149.084 91.0806 149.024 90.796 149.024 90.4613C149.024 90.1321 149.082 89.8455 149.198 89.6014C149.314 89.3559 149.475 89.1662 149.681 89.0323C149.888 88.897 150.126 88.8294 150.397 88.8294C150.606 88.8294 150.772 88.8642 150.895 88.934C151.019 89.0023 151.114 89.0804 151.179 89.1683C151.246 89.2548 151.298 89.3259 151.334 89.3817H151.384V88.8712H151.861V92.1769C151.861 92.453 151.799 92.6776 151.673 92.8505C151.549 93.0249 151.382 93.1525 151.171 93.2334C150.962 93.3157 150.729 93.3568 150.472 93.3568ZM150.455 91.591C150.653 91.591 150.821 91.5457 150.958 91.4551C151.094 91.3644 151.198 91.234 151.269 91.0638C151.34 90.8937 151.376 90.69 151.376 90.4529C151.376 90.2214 151.341 90.017 151.271 89.8399C151.202 89.6628 151.098 89.524 150.962 89.4236C150.825 89.3231 150.656 89.2729 150.455 89.2729C150.246 89.2729 150.072 89.3259 149.932 89.4319C149.794 89.5379 149.69 89.6802 149.621 89.8587C149.552 90.0373 149.518 90.2353 149.518 90.4529C149.518 90.6761 149.553 90.8734 149.623 91.045C149.694 91.2152 149.798 91.3491 149.937 91.4467C150.076 91.5429 150.249 91.591 150.455 91.591Z" fill="#130C49"/>
<path d="M147.776 90.7712V88.8715H148.27V92.0851H147.776V91.5411H147.742C147.667 91.7043 147.55 91.8431 147.391 91.9574C147.232 92.0704 147.031 92.1269 146.788 92.1269C146.587 92.1269 146.409 92.083 146.253 91.9951C146.096 91.9058 145.974 91.7719 145.884 91.5934C145.795 91.4135 145.751 91.1868 145.751 90.9135V88.8715H146.244V90.88C146.244 91.1143 146.31 91.3012 146.441 91.4407C146.573 91.5802 146.742 91.6499 146.947 91.6499C147.07 91.6499 147.195 91.6185 147.322 91.5558C147.45 91.493 147.557 91.3967 147.644 91.267C147.732 91.1373 147.776 90.972 147.776 90.7712Z" fill="#130C49"/>
<path d="M143.542 92.1518C143.252 92.1518 142.997 92.0827 142.778 91.9446C142.561 91.8065 142.39 91.6134 142.268 91.3651C142.146 91.1168 142.086 90.8267 142.086 90.4947C142.086 90.16 142.146 89.8678 142.268 89.6181C142.39 89.3685 142.561 89.1746 142.778 89.0365C142.997 88.8984 143.252 88.8294 143.542 88.8294C143.832 88.8294 144.086 88.8984 144.303 89.0365C144.522 89.1746 144.693 89.3685 144.814 89.6181C144.937 89.8678 144.998 90.16 144.998 90.4947C144.998 90.8267 144.937 91.1168 144.814 91.3651C144.693 91.6134 144.522 91.8065 144.303 91.9446C144.086 92.0827 143.832 92.1518 143.542 92.1518ZM143.542 91.7082C143.762 91.7082 143.944 91.6517 144.086 91.5387C144.228 91.4258 144.333 91.2772 144.402 91.0931C144.47 90.909 144.504 90.7095 144.504 90.4947C144.504 90.28 144.47 90.0798 144.402 89.8943C144.333 89.7088 144.228 89.5588 144.086 89.4445C143.944 89.3301 143.762 89.2729 143.542 89.2729C143.321 89.2729 143.14 89.3301 142.998 89.4445C142.856 89.5588 142.75 89.7088 142.682 89.8943C142.614 90.0798 142.579 90.28 142.579 90.4947C142.579 90.7095 142.614 90.909 142.682 91.0931C142.75 91.2772 142.856 91.4258 142.998 91.5387C143.14 91.6517 143.321 91.7082 143.542 91.7082Z" fill="#130C49"/>
<path d="M139.248 90.152V92.0852H138.754V87.8004H139.248V89.3737H139.29C139.365 89.2078 139.478 89.076 139.629 88.9783C139.781 88.8793 139.983 88.8298 140.236 88.8298C140.455 88.8298 140.646 88.8737 140.811 88.9616C140.976 89.0481 141.103 89.1813 141.194 89.3612C141.286 89.5397 141.332 89.7671 141.332 90.0432V92.0852H140.838V90.0767C140.838 89.8215 140.772 89.6241 140.639 89.4846C140.508 89.3438 140.326 89.2733 140.093 89.2733C139.932 89.2733 139.787 89.3075 139.658 89.3758C139.531 89.4442 139.431 89.5439 139.357 89.675C139.284 89.8061 139.248 89.9651 139.248 90.152Z" fill="#130C49"/>
<path d="M134.807 88.2607V87.8004H138.021V88.2607H136.674V92.0852H136.155V88.2607H134.807Z" fill="#130C49"/>
<path d="M113.457 88.8715V89.2899H111.792V88.8715H113.457ZM112.277 88.1016H112.771V91.1645C112.771 91.304 112.791 91.4086 112.831 91.4783C112.873 91.5467 112.926 91.5927 112.991 91.6164C113.056 91.6387 113.125 91.6499 113.198 91.6499C113.252 91.6499 113.297 91.6471 113.332 91.6415C113.366 91.6345 113.394 91.629 113.415 91.6248L113.516 92.0683C113.482 92.0809 113.435 92.0934 113.375 92.106C113.315 92.1199 113.239 92.1269 113.147 92.1269C113.008 92.1269 112.871 92.0969 112.737 92.0369C112.605 91.977 112.495 91.8856 112.407 91.7629C112.32 91.6401 112.277 91.4853 112.277 91.2984V88.1016Z" fill="#130C49"/>
<path d="M109.071 90.152V92.0852H108.577V87.8004H109.071V89.3737H109.113C109.188 89.2078 109.301 89.076 109.452 88.9783C109.604 88.8793 109.806 88.8298 110.059 88.8298C110.278 88.8298 110.469 88.8737 110.634 88.9616C110.799 89.0481 110.926 89.1813 111.017 89.3612C111.109 89.5397 111.155 89.7671 111.155 90.0432V92.0852H110.661V90.0767C110.661 89.8215 110.595 89.6241 110.462 89.4846C110.331 89.3438 110.149 89.2733 109.916 89.2733C109.755 89.2733 109.61 89.3075 109.481 89.3758C109.354 89.4442 109.254 89.5439 109.18 89.675C109.107 89.8061 109.071 89.9651 109.071 90.152Z" fill="#130C49"/>
<path d="M106.285 93.3568C106.047 93.3568 105.842 93.3262 105.67 93.2648C105.499 93.2048 105.356 93.1253 105.241 93.0263C105.128 92.9286 105.038 92.824 104.972 92.7125L105.365 92.4363C105.41 92.4949 105.466 92.5618 105.534 92.6371C105.603 92.7138 105.696 92.7801 105.815 92.8359C105.935 92.8931 106.092 92.9217 106.285 92.9217C106.545 92.9217 106.759 92.8589 106.928 92.7334C107.096 92.6078 107.181 92.4112 107.181 92.1434V91.4906H107.139C107.103 91.5492 107.051 91.6217 106.984 91.7082C106.919 91.7933 106.824 91.8693 106.7 91.9363C106.577 92.0018 106.411 92.0346 106.202 92.0346C105.942 92.0346 105.709 91.9732 105.503 91.8505C105.298 91.7277 105.135 91.5492 105.015 91.3149C104.897 91.0806 104.838 90.796 104.838 90.4613C104.838 90.1321 104.896 89.8455 105.011 89.6014C105.127 89.3559 105.288 89.1662 105.495 89.0323C105.701 88.897 105.94 88.8294 106.21 88.8294C106.419 88.8294 106.585 88.8642 106.708 88.934C106.832 89.0023 106.927 89.0804 106.993 89.1683C107.06 89.2548 107.111 89.3259 107.147 89.3817H107.198V88.8712H107.675V92.1769C107.675 92.453 107.612 92.6776 107.486 92.8505C107.362 93.0249 107.195 93.1525 106.984 93.2334C106.775 93.3157 106.542 93.3568 106.285 93.3568ZM106.269 91.591C106.467 91.591 106.634 91.5457 106.771 91.4551C106.908 91.3644 107.011 91.234 107.083 91.0638C107.154 90.8937 107.189 90.69 107.189 90.4529C107.189 90.2214 107.154 90.017 107.085 89.8399C107.015 89.6628 106.912 89.524 106.775 89.4236C106.638 89.3231 106.47 89.2729 106.269 89.2729C106.059 89.2729 105.885 89.3259 105.746 89.4319C105.608 89.5379 105.504 89.6802 105.434 89.8587C105.366 90.0373 105.331 90.2353 105.331 90.4529C105.331 90.6761 105.366 90.8734 105.436 91.045C105.507 91.2152 105.612 91.3491 105.75 91.4467C105.889 91.5429 106.062 91.591 106.269 91.591Z" fill="#130C49"/>
<path d="M103.589 90.7712V88.8715H104.083V92.0851H103.589V91.5411H103.556C103.48 91.7043 103.363 91.8431 103.204 91.9574C103.045 92.0704 102.844 92.1269 102.602 92.1269C102.401 92.1269 102.222 92.083 102.066 91.9951C101.91 91.9058 101.787 91.7719 101.698 91.5934C101.608 91.4135 101.564 91.1868 101.564 90.9135V88.8715H102.058V90.88C102.058 91.1143 102.123 91.3012 102.254 91.4407C102.387 91.5802 102.555 91.6499 102.761 91.6499C102.883 91.6499 103.008 91.6185 103.135 91.5558C103.263 91.493 103.371 91.3967 103.457 91.267C103.545 91.1373 103.589 90.972 103.589 90.7712Z" fill="#130C49"/>
<path d="M99.355 92.1518C99.0649 92.1518 98.8104 92.0827 98.5914 91.9446C98.3738 91.8065 98.2036 91.6134 98.0809 91.3651C97.9595 91.1168 97.8989 90.8267 97.8989 90.4947C97.8989 90.16 97.9595 89.8678 98.0809 89.6181C98.2036 89.3685 98.3738 89.1746 98.5914 89.0365C98.8104 88.8984 99.0649 88.8294 99.355 88.8294C99.6451 88.8294 99.899 88.8984 100.117 89.0365C100.336 89.1746 100.506 89.3685 100.627 89.6181C100.75 89.8678 100.811 90.16 100.811 90.4947C100.811 90.8267 100.75 91.1168 100.627 91.3651C100.506 91.6134 100.336 91.8065 100.117 91.9446C99.899 92.0827 99.6451 92.1518 99.355 92.1518ZM99.355 91.7082C99.5754 91.7082 99.7567 91.6517 99.899 91.5387C100.041 91.4258 100.147 91.2772 100.215 91.0931C100.283 90.909 100.317 90.7095 100.317 90.4947C100.317 90.28 100.283 90.0798 100.215 89.8943C100.147 89.7088 100.041 89.5588 99.899 89.4445C99.7567 89.3301 99.5754 89.2729 99.355 89.2729C99.1346 89.2729 98.9533 89.3301 98.8111 89.4445C98.6688 89.5588 98.5635 89.7088 98.4951 89.8943C98.4268 90.0798 98.3926 90.28 98.3926 90.4947C98.3926 90.7095 98.4268 90.909 98.4951 91.0931C98.5635 91.2772 98.6688 91.4258 98.8111 91.5387C98.9533 91.6517 99.1346 91.7082 99.355 91.7082Z" fill="#130C49"/>
<path d="M95.0614 90.152V92.0852H94.5676V87.8004H95.0614V89.3737H95.1032C95.1785 89.2078 95.2915 89.076 95.4422 88.9783C95.5942 88.8793 95.7964 88.8298 96.0489 88.8298C96.2679 88.8298 96.4597 88.8737 96.6242 88.9616C96.7888 89.0481 96.9164 89.1813 97.0071 89.3612C97.0992 89.5397 97.1452 89.7671 97.1452 90.0432V92.0852H96.6514V90.0767C96.6514 89.8215 96.5852 89.6241 96.4527 89.4846C96.3216 89.3438 96.1395 89.2733 95.9066 89.2733C95.7448 89.2733 95.5998 89.3075 95.4714 89.3758C95.3445 89.4442 95.2441 89.5439 95.1702 89.675C95.0976 89.8061 95.0614 89.9651 95.0614 90.152Z" fill="#130C49"/>
<path d="M90.6208 88.2607V87.8004H93.8344V88.2607H92.487V92.0852H91.9681V88.2607H90.6208Z" fill="#130C49"/>
<path d="M70.2531 88.8715V89.2899H68.5878V88.8715H70.2531ZM69.0732 88.1016H69.5669V91.1645C69.5669 91.304 69.5871 91.4086 69.6276 91.4783C69.6694 91.5467 69.7224 91.5927 69.7866 91.6164C69.8521 91.6387 69.9212 91.6499 69.9937 91.6499C70.0481 91.6499 70.0927 91.6471 70.1276 91.6415C70.1625 91.6345 70.1904 91.629 70.2113 91.6248L70.3117 92.0683C70.2782 92.0809 70.2315 92.0934 70.1715 92.106C70.1116 92.1199 70.0356 92.1269 69.9435 92.1269C69.804 92.1269 69.6673 92.0969 69.5334 92.0369C69.4009 91.977 69.2907 91.8856 69.2029 91.7629C69.1164 91.6401 69.0732 91.4853 69.0732 91.2984V88.1016Z" fill="#130C49"/>
<path d="M65.8673 90.152V92.0852H65.3735V87.8004H65.8673V89.3737H65.9091C65.9844 89.2078 66.0974 89.076 66.248 88.9783C66.4001 88.8793 66.6023 88.8298 66.8548 88.8298C67.0737 88.8298 67.2655 88.8737 67.4301 88.9616C67.5947 89.0481 67.7223 89.1813 67.813 89.3612C67.905 89.5397 67.9511 89.7671 67.9511 90.0432V92.0852H67.4573V90.0767C67.4573 89.8215 67.3911 89.6241 67.2586 89.4846C67.1274 89.3438 66.9454 89.2733 66.7125 89.2733C66.5507 89.2733 66.4056 89.3075 66.2773 89.3758C66.1504 89.4442 66.05 89.5439 65.9761 89.675C65.9035 89.8061 65.8673 89.9651 65.8673 90.152Z" fill="#130C49"/>
<path d="M63.0814 93.3568C62.8429 93.3568 62.6379 93.3262 62.4663 93.2648C62.2947 93.2048 62.1518 93.1253 62.0374 93.0263C61.9244 92.9286 61.8345 92.824 61.7675 92.7125L62.1608 92.4363C62.2055 92.4949 62.262 92.5618 62.3303 92.6371C62.3986 92.7138 62.4921 92.7801 62.6107 92.8359C62.7306 92.8931 62.8875 92.9217 63.0814 92.9217C63.3408 92.9217 63.5549 92.8589 63.7237 92.7334C63.8925 92.6078 63.9768 92.4112 63.9768 92.1434V91.4906H63.935C63.8987 91.5492 63.8471 91.6217 63.7802 91.7082C63.7146 91.7933 63.6198 91.8693 63.4956 91.9363C63.3729 92.0018 63.2069 92.0346 62.9977 92.0346C62.7383 92.0346 62.5053 91.9732 62.2989 91.8505C62.0939 91.7277 61.9314 91.5492 61.8114 91.3149C61.6929 91.0806 61.6336 90.796 61.6336 90.4613C61.6336 90.1321 61.6915 89.8455 61.8073 89.6014C61.923 89.3559 62.0841 89.1662 62.2905 89.0323C62.497 88.897 62.7355 88.8294 63.0061 88.8294C63.2153 88.8294 63.3813 88.8642 63.504 88.934C63.6281 89.0023 63.723 89.0804 63.7885 89.1683C63.8555 89.2548 63.9071 89.3259 63.9434 89.3817H63.9936V88.8712H64.4706V92.1769C64.4706 92.453 64.4078 92.6776 64.2823 92.8505C64.1582 93.0249 63.9908 93.1525 63.7802 93.2334C63.571 93.3157 63.338 93.3568 63.0814 93.3568ZM63.0647 91.591C63.2627 91.591 63.4301 91.5457 63.5668 91.4551C63.7035 91.3644 63.8074 91.234 63.8785 91.0638C63.9496 90.8937 63.9852 90.69 63.9852 90.4529C63.9852 90.2214 63.9503 90.017 63.8806 89.8399C63.8109 89.6628 63.7076 89.524 63.571 89.4236C63.4343 89.3231 63.2655 89.2729 63.0647 89.2729C62.8554 89.2729 62.6811 89.3259 62.5416 89.4319C62.4035 89.5379 62.2996 89.6802 62.2299 89.8587C62.1615 90.0373 62.1274 90.2353 62.1274 90.4529C62.1274 90.6761 62.1622 90.8734 62.232 91.045C62.3031 91.2152 62.4077 91.3491 62.5458 91.4467C62.6853 91.5429 62.8582 91.591 63.0647 91.591Z" fill="#130C49"/>
<path d="M60.3851 90.7712V88.8715H60.8789V92.0851H60.3851V91.5411H60.3516C60.2763 91.7043 60.1592 91.8431 60.0002 91.9574C59.8412 92.0704 59.6403 92.1269 59.3976 92.1269C59.1968 92.1269 59.0182 92.083 58.862 91.9951C58.7058 91.9058 58.5831 91.7719 58.4938 91.5934C58.4045 91.4135 58.3599 91.1868 58.3599 90.9135V88.8715H58.8536V90.88C58.8536 91.1143 58.9192 91.3012 59.0503 91.4407C59.1828 91.5802 59.3516 91.6499 59.5566 91.6499C59.6794 91.6499 59.8042 91.6185 59.9311 91.5558C60.0594 91.493 60.1668 91.3967 60.2533 91.267C60.3412 91.1373 60.3851 90.972 60.3851 90.7712Z" fill="#130C49"/>
<path d="M56.1511 92.1518C55.861 92.1518 55.6065 92.0827 55.3875 91.9446C55.1699 91.8065 54.9997 91.6134 54.877 91.3651C54.7557 91.1168 54.695 90.8267 54.695 90.4947C54.695 90.16 54.7557 89.8678 54.877 89.6181C54.9997 89.3685 55.1699 89.1746 55.3875 89.0365C55.6065 88.8984 55.861 88.8294 56.1511 88.8294C56.4412 88.8294 56.6951 88.8984 56.9127 89.0365C57.1317 89.1746 57.3018 89.3685 57.4232 89.6181C57.5459 89.8678 57.6073 90.16 57.6073 90.4947C57.6073 90.8267 57.5459 91.1168 57.4232 91.3651C57.3018 91.6134 57.1317 91.8065 56.9127 91.9446C56.6951 92.0827 56.4412 92.1518 56.1511 92.1518ZM56.1511 91.7082C56.3715 91.7082 56.5528 91.6517 56.6951 91.5387C56.8374 91.4258 56.9427 91.2772 57.011 91.0931C57.0794 90.909 57.1135 90.7095 57.1135 90.4947C57.1135 90.28 57.0794 90.0798 57.011 89.8943C56.9427 89.7088 56.8374 89.5588 56.6951 89.4445C56.5528 89.3301 56.3715 89.2729 56.1511 89.2729C55.9308 89.2729 55.7494 89.3301 55.6072 89.4445C55.4649 89.5588 55.3596 89.7088 55.2912 89.8943C55.2229 90.0798 55.1887 90.28 55.1887 90.4947C55.1887 90.7095 55.2229 90.909 55.2912 91.0931C55.3596 91.2772 55.4649 91.4258 55.6072 91.5387C55.7494 91.6517 55.9308 91.7082 56.1511 91.7082Z" fill="#130C49"/>
<path d="M51.8575 90.152V92.0852H51.3637V87.8004H51.8575V89.3737H51.8993C51.9747 89.2078 52.0876 89.076 52.2383 88.9783C52.3903 88.8793 52.5925 88.8298 52.845 88.8298C53.064 88.8298 53.2558 88.8737 53.4203 88.9616C53.5849 89.0481 53.7126 89.1813 53.8032 89.3612C53.8953 89.5397 53.9413 89.7671 53.9413 90.0432V92.0852H53.4475V90.0767C53.4475 89.8215 53.3813 89.6241 53.2488 89.4846C53.1177 89.3438 52.9357 89.2733 52.7027 89.2733C52.5409 89.2733 52.3959 89.3075 52.2676 89.3758C52.1406 89.4442 52.0402 89.5439 51.9663 89.675C51.8938 89.8061 51.8575 89.9651 51.8575 90.152Z" fill="#130C49"/>
<path d="M47.4168 88.2607V87.8004H50.6304V88.2607H49.2831V92.0852H48.7642V88.2607H47.4168Z" fill="#130C49"/>
<path d="M27.0479 88.8716V89.29H25.3826V88.8716H27.0479ZM25.868 88.1017H26.3617V91.1646C26.3617 91.3041 26.3819 91.4087 26.4224 91.4784C26.4642 91.5468 26.5172 91.5928 26.5814 91.6165C26.6469 91.6388 26.716 91.65 26.7885 91.65C26.8429 91.65 26.8875 91.6472 26.9224 91.6416C26.9573 91.6347 26.9852 91.6291 27.0061 91.6249L27.1065 92.0684C27.073 92.081 27.0263 92.0935 26.9663 92.1061C26.9064 92.12 26.8304 92.127 26.7383 92.127C26.5988 92.127 26.4621 92.097 26.3282 92.0371C26.1957 91.9771 26.0855 91.8857 25.9977 91.763C25.9112 91.6402 25.868 91.4854 25.868 91.2985V88.1017Z" fill="#130C49"/>
<path d="M22.662 90.1521V92.0853H22.1683V87.8005H22.662V89.3739H22.7039C22.7792 89.2079 22.8922 89.0761 23.0428 88.9784C23.1948 88.8794 23.3971 88.8299 23.6495 88.8299C23.8685 88.8299 24.0603 88.8738 24.2249 88.9617C24.3895 89.0482 24.5171 89.1814 24.6078 89.3613C24.6998 89.5398 24.7458 89.7672 24.7458 90.0433V92.0853H24.2521V90.0768C24.2521 89.8216 24.1858 89.6242 24.0533 89.4847C23.9222 89.3439 23.7402 89.2734 23.5073 89.2734C23.3455 89.2734 23.2004 89.3076 23.0721 89.3759C22.9452 89.4443 22.8447 89.544 22.7708 89.6751C22.6983 89.8062 22.662 89.9652 22.662 90.1521Z" fill="#130C49"/>
<path d="M19.8763 93.3568C19.6378 93.3568 19.4328 93.3262 19.2612 93.2648C19.0897 93.2048 18.9467 93.1253 18.8323 93.0263C18.7193 92.9286 18.6294 92.824 18.5624 92.7125L18.9558 92.4363C19.0004 92.4949 19.0569 92.5618 19.1252 92.6371C19.1936 92.7138 19.287 92.7801 19.4056 92.8359C19.5255 92.8931 19.6824 92.9217 19.8763 92.9217C20.1357 92.9217 20.3498 92.8589 20.5186 92.7334C20.6874 92.6078 20.7718 92.4112 20.7718 92.1434V91.4906H20.7299C20.6937 91.5492 20.642 91.6217 20.5751 91.7082C20.5095 91.7933 20.4147 91.8693 20.2906 91.9363C20.1678 92.0018 20.0018 92.0346 19.7926 92.0346C19.5332 92.0346 19.3003 91.9732 19.0938 91.8505C18.8888 91.7277 18.7263 91.5492 18.6064 91.3149C18.4878 91.0806 18.4285 90.796 18.4285 90.4613C18.4285 90.1321 18.4864 89.8455 18.6022 89.6014C18.7179 89.3559 18.879 89.1662 19.0855 89.0323C19.2919 88.897 19.5304 88.8294 19.801 88.8294C20.0102 88.8294 20.1762 88.8642 20.2989 88.934C20.4231 89.0023 20.5179 89.0804 20.5835 89.1683C20.6504 89.2548 20.702 89.3259 20.7383 89.3817H20.7885V88.8712H21.2655V92.1769C21.2655 92.453 21.2028 92.6776 21.0772 92.8505C20.9531 93.0249 20.7857 93.1525 20.5751 93.2334C20.3659 93.3157 20.133 93.3568 19.8763 93.3568ZM19.8596 91.591C20.0576 91.591 20.225 91.5457 20.3617 91.4551C20.4984 91.3644 20.6023 91.234 20.6734 91.0638C20.7446 90.8937 20.7801 90.69 20.7801 90.4529C20.7801 90.2214 20.7453 90.017 20.6755 89.8399C20.6058 89.6628 20.5026 89.524 20.3659 89.4236C20.2292 89.3231 20.0604 89.2729 19.8596 89.2729C19.6504 89.2729 19.476 89.3259 19.3365 89.4319C19.1984 89.5379 19.0945 89.6802 19.0248 89.8587C18.9565 90.0373 18.9223 90.2353 18.9223 90.4529C18.9223 90.6761 18.9572 90.8734 19.0269 91.045C19.098 91.2152 19.2026 91.3491 19.3407 91.4467C19.4802 91.5429 19.6531 91.591 19.8596 91.591Z" fill="#130C49"/>
<path d="M17.18 90.7713V88.8716H17.6738V92.0852H17.18V91.5412H17.1466C17.0712 91.7044 16.9541 91.8432 16.7951 91.9576C16.6361 92.0705 16.4352 92.127 16.1925 92.127C15.9917 92.127 15.8132 92.0831 15.6569 91.9952C15.5007 91.906 15.378 91.7721 15.2887 91.5935C15.1994 91.4136 15.1548 91.187 15.1548 90.9136V88.8716H15.6486V90.8801C15.6486 91.1144 15.7141 91.3013 15.8452 91.4408C15.9777 91.5803 16.1465 91.65 16.3515 91.65C16.4743 91.65 16.5991 91.6186 16.726 91.5559C16.8544 91.4931 16.9618 91.3969 17.0482 91.2672C17.1361 91.1374 17.18 90.9722 17.18 90.7713Z" fill="#130C49"/>
<path d="M12.946 92.1518C12.6558 92.1518 12.4013 92.0827 12.1823 91.9446C11.9647 91.8065 11.7946 91.6134 11.6718 91.3651C11.5505 91.1168 11.4898 90.8267 11.4898 90.4947C11.4898 90.16 11.5505 89.8678 11.6718 89.6181C11.7946 89.3685 11.9647 89.1746 12.1823 89.0365C12.4013 88.8984 12.6558 88.8294 12.946 88.8294C13.2361 88.8294 13.4899 88.8984 13.7075 89.0365C13.9265 89.1746 14.0967 89.3685 14.218 89.6181C14.3407 89.8678 14.4021 90.16 14.4021 90.4947C14.4021 90.8267 14.3407 91.1168 14.218 91.3651C14.0967 91.6134 13.9265 91.8065 13.7075 91.9446C13.4899 92.0827 13.2361 92.1518 12.946 92.1518ZM12.946 91.7082C13.1663 91.7082 13.3477 91.6517 13.4899 91.5387C13.6322 91.4258 13.7375 91.2772 13.8058 91.0931C13.8742 90.909 13.9084 90.7095 13.9084 90.4947C13.9084 90.28 13.8742 90.0798 13.8058 89.8943C13.7375 89.7088 13.6322 89.5588 13.4899 89.4445C13.3477 89.3301 13.1663 89.2729 12.946 89.2729C12.7256 89.2729 12.5443 89.3301 12.402 89.4445C12.2597 89.5588 12.1544 89.7088 12.0861 89.8943C12.0177 90.0798 11.9836 90.28 11.9836 90.4947C11.9836 90.7095 12.0177 90.909 12.0861 91.0931C12.1544 91.2772 12.2597 91.4258 12.402 91.5387C12.5443 91.6517 12.7256 91.7082 12.946 91.7082Z" fill="#130C49"/>
<path d="M8.65241 90.1521V92.0853H8.15866V87.8005H8.65241V89.3739H8.69426C8.76958 89.2079 8.88255 89.0761 9.03319 88.9784C9.18522 88.8794 9.38747 88.8299 9.63992 88.8299C9.8589 88.8299 10.0507 88.8738 10.2153 88.9617C10.3799 89.0482 10.5075 89.1814 10.5981 89.3613C10.6902 89.5398 10.7362 89.7672 10.7362 90.0433V92.0853H10.2425V90.0768C10.2425 89.8216 10.1762 89.6242 10.0437 89.4847C9.9126 89.3439 9.73058 89.2734 9.49765 89.2734C9.33586 89.2734 9.1908 89.3076 9.06248 89.3759C8.93556 89.4443 8.83513 89.544 8.76121 89.6751C8.68868 89.8062 8.65241 89.9652 8.65241 90.1521Z" fill="#130C49"/>
<path d="M4.21161 88.2608V87.8005H7.42519V88.2608H6.07783V92.0853H5.55897V88.2608H4.21161Z" fill="#130C49"/>
<path d="M92.8367 35.8475V36.266H91.1713V35.8475H92.8367ZM91.6567 35.0776H92.1505V38.1406C92.1505 38.28 92.1707 38.3846 92.2111 38.4544C92.253 38.5227 92.306 38.5688 92.3701 38.5925C92.4357 38.6148 92.5047 38.6259 92.5773 38.6259C92.6317 38.6259 92.6763 38.6232 92.7112 38.6176C92.746 38.6106 92.7739 38.605 92.7949 38.6008L92.8953 39.0444C92.8618 39.0569 92.8151 39.0695 92.7551 39.082C92.6951 39.096 92.6191 39.103 92.5271 39.103C92.3876 39.103 92.2509 39.073 92.117 39.013C91.9845 38.953 91.8743 38.8617 91.7864 38.7389C91.6999 38.6162 91.6567 38.4614 91.6567 38.2745V35.0776Z" fill="#130C49"/>
<path d="M88.4508 37.1281V39.0613H87.957V34.7765H88.4508V36.3498H88.4926C88.5679 36.1838 88.6809 36.052 88.8316 35.9544C88.9836 35.8553 89.1858 35.8058 89.4383 35.8058C89.6573 35.8058 89.8491 35.8498 90.0136 35.9376C90.1782 36.0241 90.3058 36.1573 90.3965 36.3372C90.4886 36.5158 90.5346 36.7431 90.5346 37.0193V39.0613H90.0408V37.0528C90.0408 36.7975 89.9746 36.6002 89.8421 36.4607C89.711 36.3198 89.529 36.2494 89.296 36.2494C89.1342 36.2494 88.9892 36.2835 88.8609 36.3519C88.7339 36.4202 88.6335 36.52 88.5596 36.6511C88.487 36.7822 88.4508 36.9412 88.4508 37.1281Z" fill="#130C49"/>
<path d="M85.6651 40.3329C85.4266 40.3329 85.2215 40.3022 85.05 40.2409C84.8784 40.1809 84.7354 40.1014 84.6211 40.0024C84.5081 39.9047 84.4181 39.8001 84.3512 39.6885L84.7445 39.4124C84.7891 39.4709 84.8456 39.5379 84.914 39.6132C84.9823 39.6899 85.0758 39.7562 85.1943 39.812C85.3143 39.8692 85.4712 39.8977 85.6651 39.8977C85.9245 39.8977 86.1386 39.835 86.3074 39.7094C86.4761 39.5839 86.5605 39.3873 86.5605 39.1195V38.4667H86.5187C86.4824 38.5253 86.4308 38.5978 86.3639 38.6843C86.2983 38.7694 86.2035 38.8454 86.0793 38.9123C85.9566 38.9779 85.7906 39.0107 85.5814 39.0107C85.322 39.0107 85.089 38.9493 84.8826 38.8266C84.6776 38.7038 84.5151 38.5253 84.3951 38.291C84.2766 38.0566 84.2173 37.7721 84.2173 37.4373C84.2173 37.1082 84.2752 36.8216 84.3909 36.5775C84.5067 36.332 84.6678 36.1423 84.8742 36.0084C85.0807 35.8731 85.3192 35.8055 85.5898 35.8055C85.799 35.8055 85.9649 35.8403 86.0877 35.9101C86.2118 35.9784 86.3067 36.0565 86.3722 36.1444C86.4392 36.2309 86.4908 36.302 86.527 36.3578H86.5773V35.8473H87.0543V39.1529C87.0543 39.4291 86.9915 39.6537 86.866 39.8266C86.7418 40.001 86.5745 40.1286 86.3639 40.2095C86.1546 40.2918 85.9217 40.3329 85.6651 40.3329ZM85.6483 38.5671C85.8464 38.5671 86.0138 38.5218 86.1505 38.4311C86.2871 38.3405 86.3911 38.2101 86.4622 38.0399C86.5333 37.8697 86.5689 37.6661 86.5689 37.429C86.5689 37.1974 86.534 36.9931 86.4643 36.816C86.3945 36.6388 86.2913 36.5001 86.1546 36.3996C86.018 36.2992 85.8492 36.249 85.6483 36.249C85.4391 36.249 85.2648 36.302 85.1253 36.408C84.9872 36.514 84.8833 36.6563 84.8136 36.8348C84.7452 37.0133 84.711 37.2114 84.711 37.429C84.711 37.6521 84.7459 37.8495 84.8156 38.0211C84.8868 38.1912 84.9914 38.3251 85.1295 38.4228C85.269 38.519 85.4419 38.5671 85.6483 38.5671Z" fill="#130C49"/>
<path d="M82.9686 37.7472V35.8475H83.4624V39.0611H82.9686V38.5172H82.9352C82.8599 38.6804 82.7427 38.8191 82.5837 38.9335C82.4247 39.0465 82.2238 39.103 81.9811 39.103C81.7803 39.103 81.6018 39.059 81.4455 38.9712C81.2893 38.8819 81.1666 38.748 81.0773 38.5695C80.9881 38.3895 80.9434 38.1629 80.9434 37.8895V35.8475H81.4372V37.856C81.4372 38.0904 81.5027 38.2773 81.6338 38.4167C81.7663 38.5562 81.9351 38.626 82.1401 38.626C82.2629 38.626 82.3877 38.5946 82.5146 38.5318C82.643 38.469 82.7504 38.3728 82.8368 38.2431C82.9247 38.1134 82.9686 37.9481 82.9686 37.7472Z" fill="#130C49"/>
<path d="M78.7347 39.1278C78.4446 39.1278 78.19 39.0588 77.971 38.9207C77.7535 38.7826 77.5833 38.5894 77.4606 38.3412C77.3392 38.0929 77.2785 37.8028 77.2785 37.4708C77.2785 37.1361 77.3392 36.8439 77.4606 36.5942C77.5833 36.3445 77.7535 36.1507 77.971 36.0126C78.19 35.8745 78.4446 35.8055 78.7347 35.8055C79.0248 35.8055 79.2787 35.8745 79.4962 36.0126C79.7152 36.1507 79.8854 36.3445 80.0067 36.5942C80.1295 36.8439 80.1908 37.1361 80.1908 37.4708C80.1908 37.8028 80.1295 38.0929 80.0067 38.3412C79.8854 38.5894 79.7152 38.7826 79.4962 38.9207C79.2787 39.0588 79.0248 39.1278 78.7347 39.1278ZM78.7347 38.6843C78.9551 38.6843 79.1364 38.6278 79.2787 38.5148C79.4209 38.4018 79.5262 38.2533 79.5946 38.0692C79.6629 37.8851 79.6971 37.6856 79.6971 37.4708C79.6971 37.256 79.6629 37.0559 79.5946 36.8704C79.5262 36.6849 79.4209 36.5349 79.2787 36.4205C79.1364 36.3062 78.9551 36.249 78.7347 36.249C78.5143 36.249 78.333 36.3062 78.1907 36.4205C78.0485 36.5349 77.9431 36.6849 77.8748 36.8704C77.8065 37.0559 77.7723 37.256 77.7723 37.4708C77.7723 37.6856 77.8065 37.8851 77.8748 38.0692C77.9431 38.2533 78.0485 38.4018 78.1907 38.5148C78.333 38.6278 78.5143 38.6843 78.7347 38.6843Z" fill="#130C49"/>
<path d="M74.441 37.1281V39.0613H73.9473V34.7765H74.441V36.3498H74.4829C74.5582 36.1838 74.6712 36.052 74.8218 35.9544C74.9739 35.8553 75.1761 35.8058 75.4286 35.8058C75.6475 35.8058 75.8393 35.8498 76.0039 35.9376C76.1685 36.0241 76.2961 36.1573 76.3868 36.3372C76.4788 36.5158 76.5249 36.7431 76.5249 37.0193V39.0613H76.0311V37.0528C76.0311 36.7975 75.9649 36.6002 75.8323 36.4607C75.7012 36.3198 75.5192 36.2494 75.2863 36.2494C75.1245 36.2494 74.9794 36.2835 74.8511 36.3519C74.7242 36.4202 74.6238 36.52 74.5498 36.6511C74.4773 36.7822 74.441 36.9412 74.441 37.1281Z" fill="#130C49"/>
<path d="M70.0004 35.2367V34.7765H73.2139V35.2367H71.8666V39.0612H71.3477V35.2367H70.0004Z" fill="#130C49"/>
<path d="M138.006 35.8475V36.266H136.341V35.8475H138.006ZM136.826 35.0776H137.32V38.1406C137.32 38.28 137.34 38.3846 137.38 38.4544C137.422 38.5227 137.475 38.5688 137.539 38.5925C137.605 38.6148 137.674 38.6259 137.747 38.6259C137.801 38.6259 137.846 38.6232 137.88 38.6176C137.915 38.6106 137.943 38.605 137.964 38.6008L138.065 39.0444C138.031 39.0569 137.984 39.0695 137.924 39.082C137.864 39.096 137.788 39.103 137.696 39.103C137.557 39.103 137.42 39.073 137.286 39.013C137.154 38.953 137.044 38.8617 136.956 38.7389C136.869 38.6162 136.826 38.4614 136.826 38.2745V35.0776Z" fill="#130C49"/>
<path d="M133.62 37.1281V39.0613H133.126V34.7765H133.62V36.3498H133.662C133.737 36.1838 133.85 36.052 134.001 35.9544C134.153 35.8553 134.355 35.8058 134.608 35.8058C134.827 35.8058 135.018 35.8498 135.183 35.9376C135.348 36.0241 135.475 36.1573 135.566 36.3372C135.658 36.5158 135.704 36.7431 135.704 37.0193V39.0613H135.21V37.0528C135.21 36.7975 135.144 36.6002 135.011 36.4607C134.88 36.3198 134.698 36.2494 134.465 36.2494C134.304 36.2494 134.158 36.2835 134.03 36.3519C133.903 36.4202 133.803 36.52 133.729 36.6511C133.656 36.7822 133.62 36.9412 133.62 37.1281Z" fill="#130C49"/>
<path d="M130.834 40.3329C130.596 40.3329 130.391 40.3022 130.219 40.2409C130.048 40.1809 129.905 40.1014 129.79 40.0024C129.677 39.9047 129.587 39.8001 129.52 39.6885L129.914 39.4124C129.958 39.4709 130.015 39.5379 130.083 39.6132C130.152 39.6899 130.245 39.7562 130.364 39.812C130.484 39.8692 130.641 39.8977 130.834 39.8977C131.094 39.8977 131.308 39.835 131.477 39.7094C131.645 39.5839 131.73 39.3873 131.73 39.1195V38.4667H131.688C131.652 38.5253 131.6 38.5978 131.533 38.6843C131.468 38.7694 131.373 38.8454 131.249 38.9123C131.126 38.9779 130.96 39.0107 130.751 39.0107C130.491 39.0107 130.258 38.9493 130.052 38.8266C129.847 38.7038 129.684 38.5253 129.564 38.291C129.446 38.0566 129.387 37.7721 129.387 37.4373C129.387 37.1082 129.444 36.8216 129.56 36.5775C129.676 36.332 129.837 36.1423 130.044 36.0084C130.25 35.8731 130.488 35.8055 130.759 35.8055C130.968 35.8055 131.134 35.8403 131.257 35.9101C131.381 35.9784 131.476 36.0565 131.542 36.1444C131.608 36.2309 131.66 36.302 131.696 36.3578H131.747V35.8473H132.224V39.1529C132.224 39.4291 132.161 39.6537 132.035 39.8266C131.911 40.001 131.744 40.1286 131.533 40.2095C131.324 40.2918 131.091 40.3329 130.834 40.3329ZM130.818 38.5671C131.016 38.5671 131.183 38.5218 131.32 38.4311C131.456 38.3405 131.56 38.2101 131.632 38.0399C131.703 37.8697 131.738 37.6661 131.738 37.429C131.738 37.1974 131.703 36.9931 131.634 36.816C131.564 36.6388 131.461 36.5001 131.324 36.3996C131.187 36.2992 131.018 36.249 130.818 36.249C130.608 36.249 130.434 36.302 130.295 36.408C130.157 36.514 130.053 36.6563 129.983 36.8348C129.915 37.0133 129.88 37.2114 129.88 37.429C129.88 37.6521 129.915 37.8495 129.985 38.0211C130.056 38.1912 130.161 38.3251 130.299 38.4228C130.438 38.519 130.611 38.5671 130.818 38.5671Z" fill="#130C49"/>
<path d="M128.138 37.7472V35.8475H128.632V39.0611H128.138V38.5172H128.104C128.029 38.6804 127.912 38.8191 127.753 38.9335C127.594 39.0465 127.393 39.103 127.15 39.103C126.95 39.103 126.771 39.059 126.615 38.9712C126.459 38.8819 126.336 38.748 126.247 38.5695C126.157 38.3895 126.113 38.1629 126.113 37.8895V35.8475H126.606V37.856C126.606 38.0904 126.672 38.2773 126.803 38.4167C126.936 38.5562 127.104 38.626 127.309 38.626C127.432 38.626 127.557 38.5946 127.684 38.5318C127.812 38.469 127.92 38.3728 128.006 38.2431C128.094 38.1134 128.138 37.9481 128.138 37.7472Z" fill="#130C49"/>
<path d="M123.904 39.1278C123.614 39.1278 123.359 39.0588 123.14 38.9207C122.923 38.7826 122.753 38.5894 122.63 38.3412C122.509 38.0929 122.448 37.8028 122.448 37.4708C122.448 37.1361 122.509 36.8439 122.63 36.5942C122.753 36.3445 122.923 36.1507 123.14 36.0126C123.359 35.8745 123.614 35.8055 123.904 35.8055C124.194 35.8055 124.448 35.8745 124.666 36.0126C124.885 36.1507 125.055 36.3445 125.176 36.5942C125.299 36.8439 125.36 37.1361 125.36 37.4708C125.36 37.8028 125.299 38.0929 125.176 38.3412C125.055 38.5894 124.885 38.7826 124.666 38.9207C124.448 39.0588 124.194 39.1278 123.904 39.1278ZM123.904 38.6843C124.124 38.6843 124.306 38.6278 124.448 38.5148C124.59 38.4018 124.696 38.2533 124.764 38.0692C124.832 37.8851 124.866 37.6856 124.866 37.4708C124.866 37.256 124.832 37.0559 124.764 36.8704C124.696 36.6849 124.59 36.5349 124.448 36.4205C124.306 36.3062 124.124 36.249 123.904 36.249C123.684 36.249 123.502 36.3062 123.36 36.4205C123.218 36.5349 123.112 36.6849 123.044 36.8704C122.976 37.0559 122.942 37.256 122.942 37.4708C122.942 37.6856 122.976 37.8851 123.044 38.0692C123.112 38.2533 123.218 38.4018 123.36 38.5148C123.502 38.6278 123.684 38.6843 123.904 38.6843Z" fill="#130C49"/>
<path d="M119.61 37.1281V39.0613H119.117V34.7765H119.61V36.3498H119.652C119.728 36.1838 119.841 36.052 119.991 35.9544C120.143 35.8553 120.345 35.8058 120.598 35.8058C120.817 35.8058 121.009 35.8498 121.173 35.9376C121.338 36.0241 121.465 36.1573 121.556 36.3372C121.648 36.5158 121.694 36.7431 121.694 37.0193V39.0613H121.2V37.0528C121.2 36.7975 121.134 36.6002 121.002 36.4607C120.871 36.3198 120.689 36.2494 120.456 36.2494C120.294 36.2494 120.149 36.2835 120.02 36.3519C119.894 36.4202 119.793 36.52 119.719 36.6511C119.647 36.7822 119.61 36.9412 119.61 37.1281Z" fill="#130C49"/>
<path d="M115.17 35.2367V34.7765H118.383V35.2367H117.036V39.0612H116.517V35.2367H115.17Z" fill="#130C49"/>
<path fill-rule="evenodd" clip-rule="evenodd" d="M83.485 24.8228L81.5008 28.2596L79.5166 24.8228L81.1571 24.8228L81.1571 17.4584L81.8445 17.4584L81.8445 24.8228L83.485 24.8228Z" fill="#130C49"/>
<path fill-rule="evenodd" clip-rule="evenodd" d="M17.6959 77.8469L15.7117 81.2836L13.7274 77.8469L15.368 77.8469L15.368 71.4643L16.0553 71.4643L16.0553 77.8469L17.6959 77.8469Z" fill="#130C49"/>
<path fill-rule="evenodd" clip-rule="evenodd" d="M81.156 48.8801L81.156 44.9524L81.8433 44.9524L81.8433 48.8801L81.156 48.8801Z" fill="#130C49"/>
<path fill-rule="evenodd" clip-rule="evenodd" d="M105.087 77.8469L103.103 81.2836L101.119 77.8469L102.759 77.8469L102.759 71.4643L103.447 71.4643L103.447 77.8469L105.087 77.8469Z" fill="#130C49"/>
<path fill-rule="evenodd" clip-rule="evenodd" d="M42.2222 21.7302C40.7851 21.7302 39.6201 22.8952 39.6201 24.3323V24.8233H41.2606L39.2764 28.26L37.2922 24.8233H38.9327V24.3323C38.9327 22.5156 40.4055 21.0428 42.2222 21.0428H123.722C125.539 21.0428 127.012 22.5156 127.012 24.3323V24.8233H128.652L126.668 28.26L124.684 24.8233H126.324V24.3323C126.324 22.8952 125.159 21.7302 123.722 21.7302H42.2222Z" fill="#130C49"/>
<path fill-rule="evenodd" clip-rule="evenodd" d="M61.8606 49.2241C60.4235 49.2241 59.2585 50.3891 59.2585 51.8262V52.3172H60.899L58.9148 55.7539L56.9306 52.3172H58.5712V51.8262C58.5712 50.0095 60.0439 48.5368 61.8606 48.5368H101.138C102.954 48.5368 104.427 50.0095 104.427 51.8262V52.3172H106.068L104.084 55.7539L102.099 52.3172H103.74V51.8262C103.74 50.3891 102.575 49.2241 101.138 49.2241H61.8606Z" fill="#130C49"/>
<path fill-rule="evenodd" clip-rule="evenodd" d="M61.8606 74.7543C60.4235 74.7543 59.2585 75.9193 59.2585 77.3564V77.8473H60.899L58.9148 81.2841L56.9306 77.8473H58.5712V77.3564C58.5712 75.5396 60.0439 74.0669 61.8606 74.0669H143.361C145.177 74.0669 146.65 75.5396 146.65 77.3564V77.8473H148.291L146.306 81.2841L144.322 77.8473H145.963V77.3564C145.963 75.9193 144.798 74.7543 143.361 74.7543H61.8606Z" fill="#130C49"/>
<path fill-rule="evenodd" clip-rule="evenodd" d="M38.9327 47.1724V44.9524H39.62V47.1724C39.62 48.9891 38.1473 50.4619 36.3305 50.4619H18.6559C17.4784 50.4619 16.4837 51.2439 16.1626 52.3169H17.6943L15.7101 55.7536L13.7259 52.3169H15.4516C15.7899 50.8601 17.0961 49.7745 18.6559 49.7745H36.3305C37.7677 49.7745 38.9327 48.6095 38.9327 47.1724Z" fill="#130C49"/>
<path fill-rule="evenodd" clip-rule="evenodd" d="M59.26 101.178V98.9584H58.5727V101.178C58.5727 102.995 60.0454 104.468 61.8621 104.468H79.5368C80.7142 104.468 81.709 105.25 82.0301 106.323H80.4984L82.4826 109.76L84.4668 106.323H82.7411C82.4027 104.866 81.0965 103.78 79.5368 103.78H61.8621C60.425 103.78 59.26 102.615 59.26 101.178Z" fill="#130C49"/>
</svg>
