<svg width="72" height="72" viewBox="0 0 72 72" fill="none" xmlns="http://www.w3.org/2000/svg">
<g id="trust 1">
<g id="Group" opacity="0.8">
<path id="Vector" d="M62.1643 25.5669C63.735 25.5669 65.0083 24.2936 65.0083 22.7229C65.0083 21.1522 63.735 19.8789 62.1643 19.8789C60.5936 19.8789 59.3203 21.1522 59.3203 22.7229C59.3203 24.2936 60.5936 25.5669 62.1643 25.5669Z" fill="#61BD73"/>
</g>
<g id="Group_2" opacity="0.8">
<path id="Vector_2" d="M68.8373 31.6745C69.8347 31.6745 70.6432 30.8659 70.6432 29.8685C70.6432 28.8711 69.8347 28.0625 68.8373 28.0625C67.8398 28.0625 67.0312 28.8711 67.0312 29.8685C67.0312 30.8659 67.8398 31.6745 68.8373 31.6745Z" fill="#2A97E1"/>
</g>
<g id="Group_3" opacity="0.8">
<path id="Vector_3" d="M45.7854 61.2232C36.3594 61.2232 28.6914 53.5552 28.6914 44.1292C28.6914 34.7032 36.3594 27.0352 45.7854 27.0352C55.2114 27.0352 62.8794 34.7032 62.8794 44.1292C62.8794 51.9232 57.6114 58.7332 50.0754 60.6832C49.9914 60.7072 49.9074 60.7192 49.8174 60.7312C49.7394 60.7612 49.6554 60.7852 49.5714 60.8032C48.3354 61.0852 47.0634 61.2232 45.7854 61.2232ZM45.7854 30.7072C38.3814 30.7072 32.3634 36.7312 32.3634 44.1292C32.3634 51.5272 38.3874 57.5512 45.7854 57.5512C46.7934 57.5512 47.7954 57.4372 48.7614 57.2212C48.8274 57.2032 48.8934 57.1972 48.9654 57.1852C49.0254 57.1612 49.0914 57.1432 49.1574 57.1252C55.0734 55.5952 59.2074 50.2492 59.2074 44.1292C59.2074 36.7252 53.1834 30.7072 45.7854 30.7072Z" fill="#2A97E1"/>
</g>
<g id="Group_4" opacity="0.8">
<path id="Vector_4" d="M2.86147 58.8186C3.69321 58.8186 4.36747 58.1444 4.36747 57.3126C4.36747 56.4809 3.69321 55.8066 2.86147 55.8066C2.02973 55.8066 1.35547 56.4809 1.35547 57.3126C1.35547 58.1444 2.02973 58.8186 2.86147 58.8186Z" fill="#61BD73"/>
</g>
<g id="Group_5" opacity="0.8">
<path id="Vector_5" d="M34.2523 44.9813C24.8203 44.9813 17.1523 37.3073 17.1523 27.8813C17.1523 18.4553 24.8263 10.7812 34.2523 10.7812C43.6783 10.7812 51.3523 18.4553 51.3523 27.8813C51.3523 35.6813 46.0843 42.4913 38.5423 44.4412C38.4583 44.4653 38.3743 44.4773 38.2843 44.4893C38.2063 44.5193 38.1223 44.5432 38.0383 44.5612C36.8023 44.8433 35.5303 44.9813 34.2523 44.9813ZM34.2523 14.4653C26.8543 14.4653 20.8363 20.4833 20.8363 27.8813C20.8363 35.2793 26.8543 41.2973 34.2523 41.2973C35.2603 41.2973 36.2563 41.1892 37.2283 40.9672C37.2943 40.9492 37.3603 40.9433 37.4323 40.9313C37.4923 40.9073 37.5583 40.8893 37.6243 40.8713C43.5403 39.3413 47.6683 34.0013 47.6683 27.8813C47.6683 20.4833 41.6503 14.4653 34.2523 14.4653Z" fill="#61BD73"/>
</g>
<g id="Group_6" opacity="0.8">
<path id="Vector_6" d="M33.3573 56.9048C32.8773 56.9048 32.4033 56.7068 32.0613 56.3708C31.9773 56.2808 31.8993 56.1908 31.8333 56.0888C31.7673 55.9868 31.7133 55.8848 31.6653 55.7708C31.6173 55.6628 31.5873 55.5428 31.5633 55.4288C31.5393 55.3088 31.5273 55.1888 31.5273 55.0688C31.5273 54.9488 31.5393 54.8288 31.5633 54.7088C31.5873 54.5948 31.6173 54.4808 31.6653 54.3668C31.7133 54.2588 31.7673 54.1508 31.8333 54.0488C31.8993 53.9528 31.9773 53.8568 32.0613 53.7728C32.7453 53.0888 33.9753 53.0888 34.6593 53.7728C34.7433 53.8568 34.8213 53.9528 34.8873 54.0488C34.9533 54.1508 35.0073 54.2588 35.0553 54.3668C35.1033 54.4808 35.1393 54.5948 35.1573 54.7088C35.1813 54.8288 35.1933 54.9488 35.1933 55.0688C35.1933 55.1888 35.1813 55.3088 35.1573 55.4288C35.1393 55.5428 35.1033 55.6628 35.0553 55.7708C35.0073 55.8848 34.9533 55.9868 34.8873 56.0888C34.8213 56.1908 34.7433 56.2808 34.6593 56.3708C34.3173 56.7068 33.8433 56.9048 33.3573 56.9048Z" fill="#2A97E1"/>
<path id="Vector_7" d="M21.6582 61.1943C20.6442 61.1283 19.8763 60.2583 19.9423 59.2503C20.0023 58.2363 20.8783 57.4683 21.8862 57.5283C22.9002 57.5943 23.6683 58.4643 23.6023 59.4783C23.5422 60.4503 22.7383 61.2003 21.7723 61.2003C21.7363 61.2003 21.6942 61.1943 21.6582 61.1943ZM26.2963 59.0823C25.9483 58.1343 26.4282 57.0783 27.3822 56.7243C28.3302 56.3703 29.3862 56.8503 29.7402 57.8043C30.0942 58.7523 29.6082 59.8083 28.6602 60.1623C28.4503 60.2403 28.2343 60.2763 28.0183 60.2763C27.2743 60.2763 26.5723 59.8203 26.2963 59.0823ZM14.8423 59.3043C13.9423 58.8423 13.5943 57.7323 14.0563 56.8323C14.5243 55.9323 15.6343 55.5843 16.5343 56.0463C17.4342 56.5143 17.7823 57.6183 17.3203 58.5243C16.9903 59.1543 16.3543 59.5143 15.6883 59.5143C15.4063 59.5143 15.1123 59.4483 14.8423 59.3043ZM9.37625 54.8223C8.74025 54.0303 8.87225 52.8723 9.66425 52.2423C10.4563 51.6063 11.6083 51.7383 12.2443 52.5303C12.8743 53.3163 12.7483 54.4743 11.9563 55.1103C11.6143 55.3803 11.2123 55.5123 10.8103 55.5123C10.2703 55.5123 9.73625 55.2723 9.37625 54.8223ZM36.4242 51.0843C35.4762 50.7363 34.9842 49.6803 35.3322 48.7263C35.6742 47.7783 36.7302 47.2863 37.6842 47.6343C38.6323 47.9763 39.1242 49.0323 38.7822 49.9863C38.5062 50.7303 37.8042 51.1923 37.0542 51.1923C36.8442 51.1923 36.6342 51.1563 36.4242 51.0843ZM6.19025 48.5103C5.92625 47.5323 6.51425 46.5243 7.49225 46.2663C8.47025 46.0023 9.47825 46.5903 9.73625 47.5683C9.99425 48.5463 9.41225 49.5543 8.43425 49.8123C8.27825 49.8543 8.11625 49.8723 7.96025 49.8723C7.15025 49.8723 6.40625 49.3323 6.19025 48.5103ZM36.1122 43.2303C36.0462 42.2163 36.8143 41.3403 37.8223 41.2743C38.8363 41.2083 39.7122 41.9763 39.7783 42.9843C39.8442 43.9983 39.0822 44.8683 38.0682 44.9403H37.9422C36.9883 44.9403 36.1782 44.1963 36.1122 43.2303ZM7.36025 43.5483C6.35825 43.3863 5.67425 42.4443 5.83625 41.4423C5.99225 40.4463 6.93425 39.7623 7.93625 39.9183C8.93825 40.0803 9.61625 41.0223 9.46025 42.0243C9.31625 42.9243 8.53625 43.5723 7.64825 43.5723C7.55225 43.5723 7.45625 43.5603 7.36025 43.5483ZM34.6002 37.8903C34.1322 36.9903 34.4743 35.8803 35.3682 35.4063C36.2682 34.9383 37.3783 35.2803 37.8522 36.1803C38.3202 37.0743 37.9782 38.1843 37.0782 38.6583C36.8082 38.8023 36.5142 38.8683 36.2262 38.8683C35.5662 38.8683 34.9302 38.5143 34.6002 37.8903ZM8.90825 37.3803C8.05625 36.8283 7.81025 35.6943 8.36225 34.8423C8.91425 33.9903 10.0483 33.7443 10.9003 34.2963C11.7523 34.8483 11.9983 35.9823 11.4463 36.8343C11.0923 37.3803 10.5043 37.6743 9.90425 37.6743C9.56225 37.6743 9.21425 37.5783 8.90825 37.3803ZM31.0602 33.6063C30.2623 32.9823 30.1303 31.8243 30.7603 31.0323C31.3902 30.2343 32.5422 30.1023 33.3403 30.7323C34.1322 31.3623 34.2703 32.5143 33.6343 33.3123C33.2743 33.7683 32.7402 34.0023 32.2002 34.0023C31.7982 34.0023 31.3962 33.8763 31.0602 33.6063ZM12.8203 32.3703C12.2683 31.5183 12.5023 30.3843 13.3543 29.8263C14.2003 29.2743 15.3403 29.5143 15.8923 30.3603C16.4503 31.2063 16.2103 32.3463 15.3643 32.8983C15.0523 33.1023 14.7043 33.1983 14.3623 33.1983C13.7623 33.1983 13.1743 32.9103 12.8203 32.3703ZM26.0863 31.1403C25.1082 30.8823 24.5143 29.8803 24.7723 28.8963C25.0243 27.9183 26.0262 27.3303 27.0042 27.5823C27.9882 27.8403 28.5763 28.8363 28.3242 29.8203C28.1082 30.6483 27.3643 31.1943 26.5483 31.1943C26.3923 31.1943 26.2423 31.1763 26.0863 31.1403ZM18.4303 29.3643C18.2622 28.3683 18.9403 27.4203 19.9423 27.2583C20.9443 27.0963 21.8862 27.7743 22.0483 28.7703C22.2162 29.7723 21.5382 30.7203 20.5363 30.8823C20.4342 30.9003 20.3383 30.9063 20.2362 30.9063C19.3542 30.9063 18.5743 30.2643 18.4303 29.3643Z" fill="#2A97E1"/>
<path id="Vector_8" d="M33.6876 56.5742C33.5676 56.5742 33.4476 56.5682 33.3276 56.5442C33.2136 56.5202 33.0996 56.4842 32.9856 56.4362C32.8776 56.3882 32.7696 56.3342 32.6676 56.2682C32.5716 56.2022 32.4756 56.1242 32.3916 56.0402C32.3076 55.9562 32.2296 55.8602 32.1636 55.7582C32.0976 55.6622 32.0376 55.5542 31.9956 55.4462C31.9476 55.3322 31.9116 55.2182 31.8876 55.0982C31.8636 54.9842 31.8516 54.8642 31.8516 54.7442C31.8516 54.2582 32.0496 53.7842 32.3916 53.4422C32.4756 53.3582 32.5716 53.2862 32.6676 53.2142C32.7696 53.1482 32.8776 53.0942 32.9856 53.0462C33.0996 52.9982 33.2136 52.9682 33.3276 52.9442C33.5676 52.8962 33.8076 52.8962 34.0476 52.9442C34.1616 52.9682 34.2816 52.9982 34.3896 53.0462C34.5036 53.0942 34.6056 53.1482 34.7076 53.2142C34.8096 53.2862 34.8996 53.3582 34.9836 53.4422C35.3256 53.7842 35.5236 54.2582 35.5236 54.7442C35.5236 54.8642 35.5116 54.9842 35.4876 55.0982C35.4636 55.2182 35.4276 55.3322 35.3856 55.4462C35.3376 55.5542 35.2776 55.6622 35.2116 55.7582C35.1456 55.8602 35.0736 55.9562 34.9836 56.0402C34.8996 56.1242 34.8096 56.2022 34.7076 56.2682C34.6056 56.3342 34.5036 56.3882 34.3896 56.4362C34.2816 56.4842 34.1616 56.5202 34.0476 56.5442C33.9276 56.5682 33.8076 56.5742 33.6876 56.5742Z" fill="#2A97E1"/>
</g>
</g>
</svg>
