<svg width="69" height="50" viewBox="0 0 69 50" fill="none" xmlns="http://www.w3.org/2000/svg">
<g clip-path="url(#clip0_323_1218)">
<g opacity="0.8">
<path d="M55.3546 49.5229C54.4512 49.5229 53.629 48.9139 53.3905 48.0004C53.1114 46.9143 53.761 45.8079 54.847 45.5288C60.6225 44.0367 64.6522 38.8246 64.6522 32.8511C64.6522 26.8777 60.4804 21.4626 54.507 20.0872C53.4159 19.8335 52.7307 18.7474 52.9845 17.6512C53.2382 16.56 54.3243 15.88 55.4155 16.1286C63.2413 17.9303 68.7122 24.8071 68.7122 32.8461C68.7122 40.885 63.4291 47.4979 55.8621 49.4569C55.6895 49.5026 55.522 49.5229 55.3546 49.5229Z" fill="#00B7E2"/>
</g>
<g opacity="0.8">
<path d="M51.5582 50C42.0982 50 34.4043 42.3061 34.4043 32.8461C34.4043 23.3861 42.0982 15.6923 51.5582 15.6923C52.8625 15.6923 54.1617 15.8394 55.4203 16.1287C56.5115 16.3825 57.1966 17.4685 56.9429 18.5597C56.6891 19.6508 55.603 20.336 54.5119 20.0822C53.5527 19.8589 52.558 19.7473 51.5632 19.7473C44.3414 19.7473 38.4695 25.6192 38.4695 32.8411C38.4695 40.0629 44.3414 45.9349 51.5632 45.9349C52.5427 45.9349 53.5222 45.8283 54.4662 45.61C55.5624 45.3614 56.6485 46.0516 56.8921 47.1427C57.1408 48.239 56.4557 49.325 55.3594 49.5686C54.1211 49.8478 52.8422 49.9899 51.5582 49.9899V50Z" fill="#00B7E2"/>
</g>
<g opacity="0.8">
<path d="M20.9501 34.394C20.0467 34.394 19.2245 33.785 18.986 32.8714C18.7069 31.7854 19.3565 30.679 20.4426 30.3999C26.218 28.9078 30.2477 23.6956 30.2477 17.7222C30.2477 10.5004 24.3758 4.62845 17.1539 4.62845C9.93199 4.62845 4.06009 10.5004 4.06009 17.7222C4.06009 20.8536 5.18169 23.8885 7.22696 26.2586C7.95778 27.1061 7.86135 28.3901 7.0138 29.1209C6.16119 29.8518 4.88226 29.7553 4.15144 28.9078C1.47178 25.8018 0 21.828 0 17.7222C0 8.26223 7.69387 0.568359 17.1539 0.568359C26.6139 0.568359 34.3078 8.26223 34.3078 17.7222C34.3078 25.5481 29.0246 32.3741 21.4576 34.3331C21.285 34.3788 21.1175 34.3991 20.9501 34.3991V34.394Z" fill="#20E220"/>
</g>
<g opacity="0.8">
<path d="M17.1548 34.8761C12.1558 34.8761 7.41054 32.6989 4.14724 28.9078C3.41643 28.0603 3.51285 26.7763 4.3604 26.0454C5.21301 25.3146 6.49194 25.411 7.22276 26.2586C9.71464 29.1565 13.3332 30.816 17.1548 30.816C18.1342 30.816 19.1137 30.7095 20.0577 30.4963C21.1489 30.2476 22.24 30.9328 22.4836 32.029C22.7323 33.1252 22.0472 34.2113 20.9509 34.4549C19.7126 34.734 18.4337 34.8761 17.1497 34.8761H17.1548Z" fill="#20E220"/>
</g>
<g opacity="0.8">
<path d="M27.0402 49.594C26.5936 49.594 26.1419 49.4316 25.7917 49.0967C25.0609 48.4065 25.0305 47.2544 25.7207 46.5236L25.8526 46.3866C26.553 45.6659 27.7051 45.6456 28.4257 46.346C29.1464 47.0463 29.1667 48.1984 28.4663 48.919L28.3648 49.0256C28.0045 49.4063 27.5274 49.594 27.0402 49.594Z" fill="#20E220"/>
</g>
<g opacity="0.8">
<path d="M38.9711 8.60739C40.1006 8.60739 41.0163 7.69169 41.0163 6.56212C41.0163 5.43254 40.1006 4.51685 38.9711 4.51685C37.8415 4.51685 36.9258 5.43254 36.9258 6.56212C36.9258 7.69169 37.8415 8.60739 38.9711 8.60739Z" fill="#20E220"/>
</g>
<g opacity="0.8">
<path d="M20.4633 45.4476C21.1808 45.4476 21.7625 44.8659 21.7625 44.1483C21.7625 43.4308 21.1808 42.8491 20.4633 42.8491C19.7457 42.8491 19.1641 43.4308 19.1641 44.1483C19.1641 44.8659 19.7457 45.4476 20.4633 45.4476Z" fill="#00B7E2"/>
</g>
<g opacity="0.8">
<path d="M46.9965 2.59846C47.714 2.59846 48.2957 2.01677 48.2957 1.29923C48.2957 0.581684 47.714 0 46.9965 0C46.2789 0 45.6973 0.581684 45.6973 1.29923C45.6973 2.01677 46.2789 2.59846 46.9965 2.59846Z" fill="#00B7E2"/>
</g>
<g opacity="0.8">
<path d="M18.4535 19.6407C19.1711 19.6407 19.7528 19.059 19.7528 18.3415C19.7528 17.6239 19.1711 17.0422 18.4535 17.0422C17.736 17.0422 17.1543 17.6239 17.1543 18.3415C17.1543 19.059 17.736 19.6407 18.4535 19.6407Z" fill="#00B7E2"/>
</g>
<g opacity="0.8">
<path d="M27.0395 17.7222C27.757 17.7222 28.3387 17.1406 28.3387 16.423C28.3387 15.7055 27.757 15.1238 27.0395 15.1238C26.3219 15.1238 25.7402 15.7055 25.7402 16.423C25.7402 17.1406 26.3219 17.7222 27.0395 17.7222Z" fill="#00B7E2"/>
</g>
<g opacity="0.8">
<path d="M30.725 36.6373C31.4426 36.6373 32.0242 36.0556 32.0242 35.338C32.0242 34.6205 31.4426 34.0388 30.725 34.0388C30.0075 34.0388 29.4258 34.6205 29.4258 35.338C29.4258 36.0556 30.0075 36.6373 30.725 36.6373Z" fill="#20E220"/>
</g>
<g opacity="0.8">
<path d="M45.6957 13.1446C46.4133 13.1446 46.9949 12.5629 46.9949 11.8454C46.9949 11.1278 46.4133 10.5461 45.6957 10.5461C44.9782 10.5461 44.3965 11.1278 44.3965 11.8454C44.3965 12.5629 44.9782 13.1446 45.6957 13.1446Z" fill="#20E220"/>
</g>
<g opacity="0.8">
<path d="M53.6645 31.1662C54.382 31.1662 54.9637 30.5845 54.9637 29.867C54.9637 29.1494 54.382 28.5677 53.6645 28.5677C52.9469 28.5677 52.3652 29.1494 52.3652 29.867C52.3652 30.5845 52.9469 31.1662 53.6645 31.1662Z" fill="#20E220"/>
</g>
<g opacity="0.8">
<path d="M44.5238 31.1662C45.2414 31.1662 45.8231 30.5845 45.8231 29.867C45.8231 29.1494 45.2414 28.5677 44.5238 28.5677C43.8063 28.5677 43.2246 29.1494 43.2246 29.867C43.2246 30.5845 43.8063 31.1662 44.5238 31.1662Z" fill="#20E220"/>
</g>
<g opacity="0.8">
<path d="M49.1975 36.7489C47.5735 36.7489 46.1982 35.5867 45.9241 33.988C45.848 33.5465 46.1423 33.1303 46.5839 33.0542C47.0254 32.9781 47.4416 33.2725 47.5177 33.714C47.6547 34.5209 48.3754 35.1299 49.1975 35.1299C50.0197 35.1299 50.7049 34.5565 50.8673 33.7698C50.9586 33.3334 51.3849 33.0492 51.8214 33.1405C52.2578 33.2319 52.542 33.6582 52.4507 34.0946C52.136 35.6324 50.7658 36.7438 49.1975 36.7438V36.7489Z" fill="#20E220"/>
</g>
<g opacity="0.8">
<path d="M26.1972 20.2649C26.3647 21.4169 25.7049 22.5791 24.5732 22.9902C23.411 23.4115 22.127 22.9141 21.5332 21.8737L26.1972 20.2649Z" fill="#20E220"/>
</g>
</g>
<defs>
<clipPath id="clip0_323_1218">
<rect width="68.7119" height="50" fill="white"/>
</clipPath>
</defs>
</svg>
