<?xml version="1.0" encoding="UTF-8"?><svg id="Layer_2" xmlns="http://www.w3.org/2000/svg" xmlns:xlink="http://www.w3.org/1999/xlink" viewBox="0 0 98.33 98.33"><defs><style>.cls-1{fill:url(#linear-gradient);opacity:.5;}.cls-2{fill:#fff;}.cls-3{fill:url(#linear-gradient-3);}.cls-4{opacity:.7;}.cls-5{fill:none;opacity:.8;stroke:url(#linear-gradient-2);stroke-miterlimit:10;stroke-width:2px;}</style><linearGradient id="linear-gradient" x1="6.58" y1="73.75" x2="91.75" y2="24.58" gradientUnits="userSpaceOnUse"><stop offset="0" stop-color="#00da00"/><stop offset="1" stop-color="#ffd400"/></linearGradient><linearGradient id="linear-gradient-2" x1="17.1" y1="67.68" x2="81.23" y2="30.65" xlink:href="#linear-gradient"/><linearGradient id="linear-gradient-3" x1="20.93" y1="65.47" x2="77.41" y2="32.86" gradientUnits="userSpaceOnUse"><stop offset="0" stop-color="#000"/><stop offset=".22" stop-color="#000003"/><stop offset=".4" stop-color="#03020d"/><stop offset=".57" stop-color="#08051e"/><stop offset=".73" stop-color="#0e0936"/><stop offset=".88" stop-color="#160e55"/><stop offset="1" stop-color="#1f1474"/></linearGradient></defs><g id="visuals"><g><g><circle class="cls-1" cx="49.17" cy="49.17" r="49.17"/><circle class="cls-5" cx="49.17" cy="49.17" r="36.02"/><circle class="cls-3" cx="49.17" cy="49.17" r="32.6"/></g><g id="P5wLSw" class="cls-4"><path class="cls-2" d="M33.45,44.8c1,.51,2.01,.83,3.22,.86-1.82-1.32-2.86-3.02-3.13-5.14-.2-1.59,.12-3.09,.93-4.5,.24,.18,.4,.43,.59,.64,3.14,3.47,6.98,5.69,11.59,6.58,.83,.16,1.66,.25,2.5,.32,.22,.02,.29,0,.25-.26-.42-2.69,.33-4.98,2.35-6.83,2.45-2.25,6.5-2.4,9.12-.35,.22,.17,.45,.33,.63,.54,.23,.27,.46,.28,.79,.2,1.34-.33,2.62-.8,3.82-1.48,.08-.04,.16-.08,.31-.15-.55,1.69-1.58,2.93-2.98,3.91,1.35-.13,2.63-.51,3.95-1.06-.54,.84-1.12,1.52-1.75,2.17-.5,.51-1.03,.99-1.62,1.4-.16,.12-.23,.25-.23,.46,0,7.48-2.94,13.48-9.02,17.86-2.57,1.85-5.5,2.85-8.64,3.26-2.96,.39-5.88,.2-8.76-.62-1.81-.52-3.52-1.29-5.12-2.29-.04-.02-.07-.05-.15-.12,3.93,.35,7.43-.6,10.62-3-.54-.06-1-.09-1.44-.2-2.48-.63-4.21-2.14-5.18-4.51-.14-.35-.12-.36,.26-.31,.85,.12,1.7,.07,2.54-.1,.06-.01,.13-.05,.21-.08-3.94-.99-5.76-4.45-5.66-7.19Z"/></g></g></g></svg>