<svg width="89" height="25" viewBox="0 0 89 25" fill="none" xmlns="http://www.w3.org/2000/svg">
<g id="Layer_1">
<path id="Vector" d="M37.0123 2.0155V7.77352C37.574 7.06113 38.2029 6.58621 38.9457 6.28415C41.1012 5.40459 43.9751 6.0011 45.498 8.39663C46.8416 10.5091 46.8678 14.0806 45.4214 16.2253C44.3129 17.8705 42.7752 18.6836 40.8007 18.6532C39.304 18.6304 38.0667 18.0548 37.016 16.8465V18.4233H33.8827V2.0155H37.0142H37.0123ZM37.003 12.0289C37.003 12.8932 37.128 13.5126 37.3874 14.0407C37.9211 15.1311 38.7927 15.7713 39.9833 15.8454C41.1609 15.9195 42.0828 15.3781 42.7248 14.3769C43.3126 13.4594 43.419 12.4487 43.238 11.3849C42.8666 9.20401 40.4667 8.02809 38.621 9.14702C37.4714 9.84421 37.0571 10.9612 37.003 12.0289Z" fill="#F7F9FD"/>
<path id="Vector_2" d="M71.2669 7.53247V2.01001H74.3853C74.4954 2.32916 74.529 17.7985 74.4152 18.4216H71.2743V16.9797C71.097 16.9303 71.0672 17.0462 71.0112 17.107C70.0968 18.1063 68.9696 18.5926 67.6296 18.6439C66.3923 18.6914 65.2633 18.4007 64.2555 17.6655C63.0667 16.7993 62.3501 15.6043 62.0161 14.1777C61.6186 12.4774 61.7044 10.8 62.4005 9.18142C63.9009 5.68785 68.3052 4.78739 71.0224 7.41469C71.0746 7.46598 71.112 7.54387 71.2669 7.53057V7.53247ZM71.2986 12.3292C71.2781 12.0614 71.2706 11.7935 71.2333 11.5276C71.0392 10.1275 70.0557 9.04084 68.7605 8.78438C67.4001 8.51652 66.0788 9.08833 65.4573 10.3402C64.7482 11.7669 64.7855 13.2221 65.7037 14.5538C66.8048 16.1477 68.9938 16.2958 70.3319 14.9166C71.028 14.2004 71.2781 13.3095 71.2967 12.3273L71.2986 12.3292Z" fill="#F7F9FD"/>
<path id="Vector_3" d="M0.0558515 4.88037H2.84211C2.90742 5.07794 2.87943 5.25271 2.8813 5.42369C2.88876 7.16002 2.8533 8.89636 2.90556 10.6308C3.00633 13.9667 6.18822 16.29 9.33279 15.3611C11.3763 14.757 12.8543 12.8895 12.9252 10.6992C12.9812 8.96475 12.9458 7.22841 12.9495 5.49208C12.9495 5.30401 12.9495 5.11594 12.9495 4.88987H15.775C15.8552 5.05324 15.8216 5.21282 15.8216 5.3667C15.8235 7.07074 15.8608 8.77668 15.816 10.4807C15.7376 13.469 14.4593 15.7866 11.9306 17.3577C9.14804 19.0864 5.57424 18.8356 3.01006 16.7479C1.06361 15.1597 0.0577177 13.0567 0.0147949 10.513C-0.0150645 8.80897 0.00919622 7.10303 0.0110624 5.39899C0.0110624 5.24322 -0.0113321 5.08364 0.0577177 4.88037H0.0558515Z" fill="#F7F9FD"/>
<path id="Vector_4" d="M54.0473 18.6456C52.4312 18.657 50.9961 18.1707 49.7924 17.048C48.9936 16.3033 48.4506 15.3895 48.1744 14.3314C47.7265 12.6159 47.7638 10.9214 48.5457 9.29904C49.4882 7.34044 51.0819 6.2823 53.1665 5.97455C54.5158 5.77508 55.8296 5.93656 57.0669 6.56156C58.7763 7.42403 59.8233 8.80702 60.232 10.701C60.5753 12.2949 60.454 13.845 59.7281 15.3059C58.836 17.1031 57.3543 18.127 55.4358 18.5373C54.9767 18.6361 54.512 18.638 54.0455 18.6456H54.0473ZM51.1025 12.2569C51.1025 12.4469 51.0875 12.6368 51.1043 12.8249C51.1808 13.6779 51.4365 14.4625 52.0673 15.0628C53.5528 16.478 55.9919 15.9784 56.8243 14.0806C57.2927 13.013 57.2927 11.894 56.9568 10.796C56.3017 8.64934 53.5677 7.97874 52.0188 9.5726C51.2984 10.3135 51.0707 11.2443 51.1006 12.2569H51.1025Z" fill="#F7F9FD"/>
<path id="Vector_5" d="M81.5221 24.227H78.1704C79.0438 22.1792 79.9004 20.1731 80.7775 18.1157C79.1744 14.1472 77.5639 10.1597 75.9328 6.1228H79.4525C80.4658 8.90208 81.4736 11.6719 82.4813 14.4397C82.5149 14.4397 82.5485 14.4397 82.584 14.4397C83.6067 11.6719 84.6275 8.90588 85.6558 6.1247H89C86.4937 12.1905 84.0098 18.2012 81.5202 24.2289L81.5221 24.227Z" fill="#F7F9FD"/>
<path id="Vector_6" d="M19.4943 6.11324C20.517 6.06575 21.5154 6.09614 22.5568 6.09614V7.44113C22.7807 7.37654 22.8703 7.22077 22.9897 7.11249C24.9231 5.35715 28.2021 5.54522 29.8854 7.51522C30.6169 8.37199 30.9902 9.40354 31.0088 10.5073C31.0574 13.127 31.0238 15.7486 31.0238 18.4101H27.9595C27.8549 18.2505 27.9053 18.0567 27.9053 17.8724C27.9016 15.9138 27.9053 13.9571 27.8997 11.9985C27.8997 11.5274 27.8997 11.0525 27.7784 10.589C27.5284 9.622 26.9666 8.9571 25.9869 8.74434C24.7365 8.47458 23.6429 8.81843 23.0327 9.81007C22.6743 10.3895 22.5792 11.0449 22.5754 11.7136C22.5698 13.7672 22.5754 15.8189 22.5717 17.8724C22.5717 18.0434 22.5997 18.2182 22.525 18.4177H19.5279C19.4253 18.0928 19.3842 6.95861 19.4925 6.11324H19.4943Z" fill="#F7F9FD"/>
<path id="Vector_7" d="M6.45142 2.91036H2.23938V0H6.45142V2.90846V2.91036Z" fill="#F7F9FD"/>
<path id="Vector_8" d="M9.37592 0H12.2088V2.92935H9.37592V0Z" fill="#F7F9FD"/>
</g>
</svg>
