<svg width="145" height="40" viewBox="0 0 145 40" fill="none" xmlns="http://www.w3.org/2000/svg">
<g id="Layer_1">
<path id="Vector" d="M60.302 3.2832V12.6643C61.2172 11.5036 62.2418 10.7299 63.4519 10.2378C66.9636 8.80475 71.6459 9.77659 74.127 13.6794C76.3161 17.1211 76.3587 22.9398 74.0023 26.4341C72.1963 29.1144 69.6909 30.4391 66.4741 30.3896C64.0357 30.3524 62.0198 29.4146 60.3081 27.4462V30.0151H55.2031V3.2832H60.305H60.302ZM60.2868 19.5972C60.2868 21.0054 60.4905 22.0144 60.9131 22.8748C61.7827 24.6514 63.2026 25.6944 65.1424 25.8151C67.0609 25.9358 68.5629 25.0537 69.6088 23.4226C70.5666 21.9277 70.7399 20.2812 70.445 18.5479C69.8399 14.9948 65.9299 13.079 62.9229 14.902C61.0499 16.0379 60.375 17.8577 60.2868 19.5972Z" fill="#1D1D1E"/>
<path id="Vector_2" d="M116.11 12.2727V3.27539H121.191C121.37 3.79536 121.425 28.9983 121.239 30.0134H116.122V27.6643C115.833 27.5838 115.785 27.7726 115.693 27.8717C114.204 29.4997 112.367 30.292 110.184 30.3755C108.168 30.4529 106.329 29.9794 104.687 28.7816C102.75 27.3703 101.583 25.4235 101.038 23.0991C100.391 20.3291 100.531 17.5961 101.665 14.9592C104.109 9.26739 111.285 7.80034 115.712 12.0808C115.797 12.1643 115.858 12.2912 116.11 12.2696V12.2727ZM116.162 20.0876C116.128 19.6512 116.116 19.2148 116.055 18.7815C115.739 16.5005 114.137 14.7301 112.027 14.3123C109.81 13.8759 107.658 14.8075 106.645 16.8471C105.49 19.1715 105.551 21.5423 107.046 23.7119C108.84 26.3087 112.407 26.5501 114.587 24.3031C115.721 23.1363 116.128 21.6847 116.159 20.0845L116.162 20.0876Z" fill="#1D1D1E"/>
<path id="Vector_3" d="M0.0909942 7.95117H4.6304C4.73682 8.27306 4.69121 8.5578 4.69425 8.83635C4.70642 11.6652 4.64865 14.4941 4.73378 17.3199C4.89796 22.7547 10.082 26.54 15.2051 25.0265C18.5344 24.0423 20.9425 20.9999 21.058 17.4313C21.1492 14.6055 21.0915 11.7766 21.0975 8.94777C21.0975 8.64137 21.0975 8.33496 21.0975 7.96665H25.7008C25.8315 8.23282 25.7768 8.4928 25.7768 8.7435C25.7799 11.5198 25.8407 14.2991 25.7677 17.0753C25.64 21.9438 23.5573 25.7198 19.4375 28.2794C14.9041 31.0959 9.08164 30.6873 4.90405 27.2859C1.73284 24.6984 0.0940346 21.2722 0.024104 17.128C-0.0245434 14.3517 0.0149826 11.5724 0.0180231 8.79612C0.0180231 8.54232 -0.0184625 8.28234 0.0940346 7.95117H0.0909942Z" fill="#1D1D1E"/>
<path id="Vector_4" d="M88.0538 30.3788C85.4208 30.3974 83.0826 29.605 81.1215 27.7759C79.8202 26.5626 78.9355 25.0739 78.4855 23.35C77.7558 20.5551 77.8166 17.7944 79.0905 15.1512C80.626 11.9602 83.2225 10.2363 86.6187 9.73488C88.817 9.4099 90.9574 9.67298 92.9733 10.6912C95.7583 12.0964 97.464 14.3496 98.1299 17.4353C98.6893 20.0321 98.4917 22.5576 97.309 24.9377C95.8556 27.8656 93.4415 29.5338 90.3159 30.2024C89.5679 30.3633 88.8109 30.3664 88.0508 30.3788H88.0538ZM83.2559 19.9702C83.2559 20.2797 83.2316 20.5892 83.259 20.8956C83.3836 22.2853 83.8002 23.5635 84.8279 24.5415C87.2481 26.8473 91.222 26.0333 92.578 22.9414C93.3412 21.202 93.3412 19.379 92.7939 17.5901C91.7267 14.0927 87.2724 13.0001 84.7488 15.5969C83.5752 16.8039 83.2043 18.3205 83.2529 19.9702H83.2559Z" fill="#1D1D1E"/>
<path id="Vector_5" d="M132.817 39.4703H127.356C128.779 36.1339 130.175 32.8655 131.604 29.5136C128.992 23.0481 126.368 16.5516 123.711 9.97461H129.445C131.096 14.5027 132.738 19.0152 134.38 23.5247C134.435 23.5247 134.489 23.5247 134.547 23.5247C136.213 19.0152 137.876 14.5088 139.552 9.97771H145C140.917 19.8602 136.87 29.6529 132.814 39.4734L132.817 39.4703Z" fill="#1D1D1E"/>
<path id="Vector_6" d="M31.7595 9.95924C33.4257 9.88187 35.0523 9.93139 36.7489 9.93139V12.1227C37.1137 12.0174 37.2597 11.7637 37.4543 11.5872C40.6042 8.72742 45.9463 9.03383 48.6888 12.2434C49.8806 13.6392 50.4887 15.3199 50.5191 17.1181C50.5982 21.3861 50.5435 25.6573 50.5435 29.9934H45.551C45.3808 29.7334 45.4628 29.4178 45.4628 29.1175C45.4568 25.9265 45.4628 22.7387 45.4537 19.5477C45.4537 18.7801 45.4537 18.0063 45.2561 17.2512C44.8487 15.6758 43.9335 14.5925 42.3372 14.2459C40.3001 13.8064 38.5184 14.3666 37.5242 15.9822C36.9404 16.9262 36.7854 17.994 36.7793 19.0834C36.7702 22.4292 36.7793 25.7718 36.7732 29.1175C36.7732 29.3961 36.8188 29.6808 36.6972 30.0058H31.8142C31.647 29.4766 31.5801 11.3365 31.7564 9.95924H31.7595Z" fill="#1D1D1E"/>
<path id="Vector_7" d="M10.5108 4.7416H3.64844V0H10.5108V4.7385V4.7416Z" fill="#1D1D1E"/>
<path id="Vector_8" d="M15.2734 0H19.8889V4.77255H15.2734V0Z" fill="#1D1D1E"/>
</g>
</svg>
