<svg width="163" height="140" viewBox="0 0 163 140" fill="none" xmlns="http://www.w3.org/2000/svg">
<path d="M134.657 43.7411C126.053 43.7411 119.051 36.6723 119.051 27.9858C119.051 19.2993 126.053 12.2305 134.657 12.2305C143.262 12.2305 150.264 19.2993 150.264 27.9858C150.264 36.6723 143.262 43.7411 134.657 43.7411ZM134.657 13.4403C126.713 13.4403 120.263 19.9654 120.263 27.9722C120.263 35.979 126.726 42.504 134.657 42.504C142.589 42.504 149.052 35.979 149.052 27.9722C149.052 19.9654 142.589 13.4403 134.657 13.4403Z" fill="#61BB73"/>
<path d="M150.862 17.8019C148.163 13.4899 143.815 10.2084 138.444 8.96094L133.918 28.2835L150.849 17.8019H150.862Z" fill="#61BB73"/>
<path d="M98.2427 121.032L92 114.79L98.2427 108.547L104.485 114.79L98.2427 121.032ZM93.0515 114.79L98.2427 119.981L103.434 114.79L98.2427 109.598L93.0515 114.79Z" fill="#1B1464"/>
<path d="M19.4688 83.576L27.7923 70.4961L36.1159 83.576H19.4688Z" fill="#1B1464"/>
<path d="M84.8685 139.165H72.0859V126.383H84.8685V139.165ZM73.6854 137.579H83.2825V127.982H73.6854V137.579Z" fill="#61BB73"/>
<path d="M102.999 11.6367H91.7031V22.933H102.999V11.6367Z" fill="#1B1464"/>
<path d="M116.973 132.924C116.973 136.044 119.502 138.572 122.621 138.572C125.741 138.572 128.27 136.044 128.27 132.924C128.27 129.805 125.741 127.276 122.621 127.276C119.502 127.276 116.973 129.805 116.973 132.924Z" fill="#61BB73"/>
<path d="M75.6508 17.8792H23.9258V0.0429688H75.6508V17.8792ZM25.2774 16.532H74.2992V1.39011H25.2774V16.532Z" fill="#61BB73"/>
<path d="M57.5157 7.47461H28.0859V10.4473H57.5157V7.47461Z" fill="#61BB73"/>
<path d="M126.188 107.873V70.5734C126.188 67.5754 128.605 65.1445 131.587 65.1445H156.461C159.442 65.1445 161.86 67.5754 161.86 70.5734V107.873C161.86 110.871 159.442 113.302 156.461 113.302H132.513" fill="white"/>
<path d="M156.555 113.6H132.427V112.669H156.555C159.289 112.669 161.522 110.442 161.522 107.715V70.4356C161.522 67.7092 159.289 65.4821 156.555 65.4821H131.494C128.76 65.4821 126.527 67.7092 126.527 70.4356V107.715H125.594V70.4356C125.594 67.1828 128.246 64.5508 131.494 64.5508H156.555C159.816 64.5508 162.455 67.1963 162.455 70.4356V107.715C162.455 110.968 159.803 113.6 156.555 113.6Z" fill="#1B1464"/>
<path d="M122.621 110.252V72.9523C122.621 69.9543 125.059 67.5234 128.065 67.5234H153.147C156.153 67.5234 158.591 69.9543 158.591 72.9523V110.252C158.591 113.25 156.153 115.681 153.147 115.681H129" fill="white"/>
<path d="M153.036 116.274H129.103V115.343H153.036C155.747 115.343 157.962 113.116 157.962 110.389V73.1095C157.962 70.383 155.747 68.1559 153.036 68.1559H128.177C125.465 68.1559 123.25 70.383 123.25 73.1095V110.389H122.324V73.1095C122.324 69.8566 124.955 67.2246 128.177 67.2246H153.036C156.271 67.2246 158.888 69.8701 158.888 73.1095V110.389C158.888 113.642 156.258 116.274 153.036 116.274Z" fill="#1B1464"/>
<path d="M155.321 75.6281V112.928C155.321 115.926 152.884 118.357 149.877 118.357H124.796C121.789 118.357 119.352 115.926 119.352 112.928V75.6281C119.352 72.6301 121.789 70.1992 124.796 70.1992H148.943" fill="white"/>
<path d="M149.763 118.653H124.903C121.668 118.653 119.051 116.023 119.051 112.803V75.7496C119.051 72.5164 121.682 69.9004 124.903 69.9004H148.836V70.8261H124.903C122.192 70.8261 119.977 73.0396 119.977 75.7496V112.803C119.977 115.513 122.192 117.727 124.903 117.727H149.763C152.474 117.727 154.689 115.513 154.689 112.803V75.7496H155.615V112.803C155.615 116.037 152.984 118.653 149.763 118.653Z" fill="#1B1464"/>
<path d="M148.78 79.4141H135.105V81.495H148.78V79.4141Z" fill="#1B1464"/>
<path d="M148.78 85.0625H135.105V85.9543H148.78V85.0625Z" fill="#1B1464"/>
<path d="M148.78 91.8984H135.105V93.9793H148.78V91.8984Z" fill="#1B1464"/>
<path d="M148.78 97.5488H135.105V98.4406H148.78V97.5488Z" fill="#1B1464"/>
<path d="M148.78 104.088H135.105V106.466H148.78V104.088Z" fill="#1B1464"/>
<path d="M148.78 110.033H135.105V110.628H148.78V110.033Z" fill="#1B1464"/>
<path d="M131.241 86.8462H123.512V79.1172H131.241V86.8462ZM124.31 86.048H130.429V79.9287H124.31V86.048Z" fill="#1B1464"/>
<path d="M127.526 84.7649C128.593 84.7649 129.458 83.8998 129.458 82.8326C129.458 81.7655 128.593 80.9004 127.526 80.9004C126.459 80.9004 125.594 81.7655 125.594 82.8326C125.594 83.8998 126.459 84.7649 127.526 84.7649Z" fill="#61BB73"/>
<path d="M131.241 99.0337H123.512V91.3047H131.241V99.0337ZM124.31 98.2355H130.429V92.1162H124.31V98.2355Z" fill="#61BB73"/>
<path d="M127.526 96.9524C128.593 96.9524 129.458 96.0873 129.458 95.0201C129.458 93.953 128.593 93.0879 127.526 93.0879C126.459 93.0879 125.594 93.953 125.594 95.0201C125.594 96.0873 126.459 96.9524 127.526 96.9524Z" fill="#1B1464"/>
<path d="M131.241 111.222H123.512V103.195H131.241V111.222ZM124.31 110.393H130.429V104.038H124.31V110.393Z" fill="#1B1464"/>
<path d="M127.526 109.142C128.593 109.142 129.458 108.277 129.458 107.21C129.458 106.142 128.593 105.277 127.526 105.277C126.459 105.277 125.594 106.142 125.594 107.21C125.594 108.277 126.459 109.142 127.526 109.142Z" fill="#61BB73"/>
<path d="M155.163 76.1431H148.944C148.692 76.1431 148.48 75.9289 148.48 75.6746V70.3612C148.48 70.1872 148.586 70.0132 148.745 69.9463C148.904 69.866 149.102 69.8928 149.235 70.0132L155.454 75.3266C155.6 75.4471 155.653 75.6612 155.587 75.8352C155.521 76.0226 155.349 76.1431 155.15 76.1431H155.163ZM149.394 75.2196H153.906L149.394 71.3784V75.2196Z" fill="#1B1464"/>
<path d="M37.1153 27.9863H5.08726C2.68539 27.9863 0.738281 29.9274 0.738281 32.3219V54.2696C0.738281 56.6641 2.68539 58.6051 5.08726 58.6051H37.1153C39.5172 58.6051 41.4643 56.6641 41.4643 54.2696V32.3219C41.4643 29.9274 39.5172 27.9863 37.1153 27.9863Z" fill="#61BB73"/>
<path d="M37.053 28.737C39.0772 28.737 40.7101 30.3771 40.7101 32.3802V54.2128C40.7101 56.2294 39.0637 57.8561 37.053 57.8561H5.15113C3.1269 57.8561 1.49402 56.216 1.49402 54.2128V32.3802C1.49402 30.3636 3.14039 28.737 5.15113 28.737H37.053ZM37.053 27.3926H5.15113C2.38468 27.3926 0.144531 29.6242 0.144531 32.3802V54.2128C0.144531 56.9688 2.38468 59.2005 5.15113 59.2005H37.053C39.8195 59.2005 42.0596 56.9688 42.0596 54.2128V32.3802C42.0596 29.6242 39.8195 27.3926 37.053 27.3926Z" fill="#1B1464"/>
<path d="M21.0882 46.1198L0.441406 30.5401L1.25214 29.4727L21.0882 44.4307L40.9512 29.4727L41.7619 30.5401L21.0882 46.1198Z" fill="#1B1464"/>
<path d="M61.0831 99.332H16.1953V132.924H61.0831V99.332Z" fill="white"/>
<path d="M61.6784 133.517H15.6016V98.7363H61.6784V133.517ZM16.9465 132.171H60.3335V100.082H16.9465V132.171Z" fill="#1B1464"/>
<path d="M61.0862 128.149L47.1601 111.223L33.8018 127.48L25.2974 117.138L16.793 127.48V133.518H28.8398H38.7638H61.0862V128.149Z" fill="#1B1464"/>
<path d="M36.4106 112.931V109.215L33.2826 107.357L30.168 109.215V112.931L33.2826 114.789L36.4106 112.931Z" fill="#61BB73"/>
<path d="M76.2461 58.9023L88.4342 66.7732L76.2461 74.6577V58.9023Z" fill="#61BB73"/>
<path d="M75.9501 42.8485H69.4102L72.6734 37.7949L75.9366 42.8485H75.9501ZM70.6965 42.1538H74.6638L72.6734 39.0753L70.6829 42.1538H70.6965Z" fill="#1B1464"/>
<path d="M67.9239 38.3906H63.4648V42.8497H67.9239V38.3906Z" fill="#61BB73"/>
<path d="M102.032 90.7102H58.7857C54.9698 90.7102 51.8711 87.6276 51.8711 83.8316V40.8102C51.8711 37.0142 54.9698 33.9316 58.7857 33.9316H102.032C105.848 33.9316 108.947 37.0142 108.947 40.8102V83.8316C108.947 87.6276 105.848 90.7102 102.032 90.7102ZM58.7857 35.1835C55.6599 35.1835 53.1295 37.7142 53.1295 40.8102V83.8316C53.1295 86.9411 55.6734 89.4583 58.7857 89.4583H102.032C105.158 89.4583 107.689 86.9277 107.689 83.8316V40.8102C107.689 37.7007 105.145 35.1835 102.032 35.1835H58.7857Z" fill="#1B1464"/>
<path d="M108.054 45.2285H52.4648V46.4176H108.054V45.2285Z" fill="#1B1464"/>
<path d="M58.8545 42.8501C60.0859 42.8501 61.0841 41.7853 61.0841 40.4719C61.0841 39.1585 60.0859 38.0938 58.8545 38.0938C57.6232 38.0938 56.625 39.1585 56.625 40.4719C56.625 41.7853 57.6232 42.8501 58.8545 42.8501Z" fill="#1B1464"/>
<path d="M79.8135 82.0895C71.2845 82.0895 64.3555 75.2271 64.3555 66.7801C64.3555 58.3331 71.2845 51.4707 79.8135 51.4707C88.3426 51.4707 95.2715 58.3331 95.2715 66.7801C95.2715 75.2271 88.3426 82.0895 79.8135 82.0895ZM79.8135 53.9686C72.6811 53.9686 66.8776 59.7163 66.8776 66.7801C66.8776 73.8439 72.6811 79.5917 79.8135 79.5917C86.9459 79.5917 92.7494 73.8439 92.7494 66.7801C92.7494 59.7163 86.9459 53.9686 79.8135 53.9686Z" fill="#61BB73"/>
</svg>
