<svg width="64" height="64" viewBox="0 0 64 64" fill="none" xmlns="http://www.w3.org/2000/svg">
<g id="unstructured 1" clip-path="url(#clip0_3950_913)">
<path id="Vector" d="M34.8747 64.1251C23.2525 64.1251 11.6928 64.1251 0.128906 64.1251C0.128906 42.7997 0.128906 21.4744 0.128906 0.137085C21.4448 0.137085 42.7649 0.137085 64.1048 0.137085C64.1048 21.4584 64.1048 42.7917 64.1048 64.1251C54.3907 64.1251 44.6639 64.1251 34.8747 64.1251ZM25.1165 14.7597C26.0293 15.9662 27.0099 17.1287 27.8312 18.3945C28.3825 19.2443 29.0365 19.3987 29.9318 19.1901C29.9318 16.6933 29.9318 14.2059 29.9318 11.7037C29.3925 11.7037 28.8878 11.7037 28.3163 11.7037C28.3163 13.2094 28.3163 14.6719 28.3163 16.2703C28.1094 16.0083 27.9918 15.8676 27.883 15.7204C26.9691 14.4832 26.0615 13.2413 25.138 12.0114C25.026 11.8622 24.8404 11.6956 24.6723 11.6754C24.2663 11.6266 23.8505 11.6596 23.4149 11.6596C23.4149 14.2185 23.4149 16.7221 23.4149 19.2159C23.9653 19.2159 24.4756 19.2159 24.9689 19.2159C24.9923 19.16 25.0063 19.142 25.0065 19.124C25.0155 17.6877 25.0234 16.2514 25.1165 14.7597ZM48.8256 53.7551C49.471 53.7551 50.1168 53.7684 50.7619 53.7526C53.0938 53.6955 54.3387 52.6381 54.5766 50.3479C54.7583 48.5988 54.1146 46.8611 52.2672 46.4155C50.9487 46.0976 49.5323 46.1853 48.1456 46.091C48.1456 48.7399 48.1456 51.2127 48.1456 53.7274C48.3421 53.7372 48.5229 53.7461 48.8256 53.7551ZM10.8426 34.0624C10.8426 34.8655 10.8426 35.6686 10.8426 36.4697C11.4091 36.4697 11.9008 36.4697 12.4561 36.4697C12.4561 35.7021 12.4561 34.9629 12.4561 34.2254C13.1646 34.0609 13.6686 34.1244 13.9233 34.8768C14.0806 35.3415 14.3614 35.7682 14.6177 36.1933C14.6981 36.3266 14.8738 36.475 15.0156 36.4856C15.4969 36.5218 15.9825 36.4994 16.5372 36.4994C16.0451 35.5499 15.6023 34.6957 15.1571 33.8367C16.3387 33.0845 16.6729 32.0267 16.3535 30.7855C16.0464 29.592 15.1363 29.0176 13.9677 28.9316C12.9435 28.8563 11.9093 28.9159 10.8426 28.9159C10.8426 30.6129 10.8426 32.2751 10.8426 34.0624ZM27.315 46.3461C26.0188 46.2644 24.7225 46.1826 23.4079 46.0997C23.4079 48.733 23.4079 51.2221 23.4079 53.7236C23.9503 53.7236 24.4601 53.7236 25.0309 53.7236C25.0309 52.9546 25.0309 52.2148 25.0309 51.495C25.7516 51.2842 26.2424 51.3998 26.5113 52.1247C26.6833 52.5887 26.9467 53.0224 27.202 53.45C27.2822 53.5843 27.4637 53.7292 27.6089 53.7406C28.079 53.7773 28.5539 53.7543 29.1123 53.7543C28.6326 52.8226 28.1903 51.9634 27.7495 51.1072C29.6707 49.9286 29.3466 47.0276 27.315 46.3461ZM29.6993 32.804C29.6993 31.5045 29.6993 30.205 29.6993 28.9178C29.1024 28.9178 28.6125 28.9178 28.0845 28.9178C28.0845 29.8854 28.0933 30.8207 28.0817 31.7557C28.0729 32.4619 28.0873 33.1739 28.0016 33.8723C27.9075 34.6381 27.4417 34.9985 26.6924 35.0234C25.7217 35.0558 25.1582 34.485 25.1484 33.415C25.1348 31.9216 25.145 30.428 25.145 28.9296C24.5839 28.9296 24.0794 28.9296 23.5481 28.9296C23.5481 30.5309 23.5139 32.0903 23.5559 33.6476C23.6235 36.1509 25.4204 36.8797 27.3789 36.5454C28.6341 36.3312 29.4116 35.5739 29.6118 34.3573C29.689 33.888 29.6729 33.4033 29.6993 32.804ZM42.2754 29.53C40.4656 28.224 37.7957 28.6442 36.6392 30.4173C35.4138 32.2961 35.9854 35.0693 37.8162 36.1273C39.8033 37.2757 42.2802 36.5142 43.3584 34.4096C43.1292 34.3134 42.8948 34.2307 42.6748 34.1195C42.1879 33.8734 41.8396 33.8468 41.441 34.3819C40.8911 35.1203 39.558 35.2491 38.7539 34.7662C37.8671 34.2335 37.5653 33.3954 37.658 32.4202C37.7473 31.4816 38.2085 30.7391 39.1498 30.462C40.0959 30.1834 40.9547 30.3696 41.6213 31.1803C41.7408 31.3257 41.999 31.4913 42.1453 31.455C42.5585 31.3524 42.9467 31.1496 43.4523 30.9423C43.0467 30.4474 42.695 30.0181 42.2754 29.53ZM12.0338 11.6589C11.6279 11.6589 11.2221 11.6589 10.8311 11.6589C10.8311 13.3582 10.7853 14.96 10.8437 16.5581C10.9046 18.223 11.6771 19.1045 13.312 19.3298C15.016 19.5647 16.6136 18.9909 16.8308 17.1296C17.0385 15.3503 16.8756 13.5277 16.8756 11.7051C16.39 11.7051 15.8878 11.7051 15.3577 11.7051C15.3577 12.4166 15.3671 13.0819 15.3554 13.7469C15.3386 14.7025 15.3577 15.6629 15.2642 16.6117C15.1931 17.3327 14.7512 17.6917 14.087 17.7788C13.105 17.9077 12.4256 17.2866 12.4048 16.1819C12.3797 14.8502 12.4066 13.5175 12.3859 12.1857C12.3832 12.0093 12.2327 11.8352 12.0338 11.6589ZM39.6872 53.7558C40.4498 53.7558 41.2125 53.7558 41.9902 53.7558C41.9902 53.2123 41.9902 52.7399 41.9902 52.2048C40.938 52.2048 39.9081 52.2048 38.8586 52.2048C38.8586 51.6784 38.8586 51.2154 38.8586 50.6872C39.7232 50.6872 40.5437 50.6872 41.3656 50.6872C41.3656 50.1493 41.3656 49.6775 41.3656 49.1469C40.5161 49.1469 39.6936 49.1469 38.8528 49.1469C38.8528 48.6438 38.8528 48.2008 38.8528 47.6913C39.9204 47.6913 40.9498 47.6913 41.9746 47.6913C41.9746 47.155 41.9746 46.6864 41.9746 46.2001C40.3848 46.2001 38.8337 46.2001 37.2732 46.2001C37.2732 48.7284 37.2732 51.2292 37.2732 53.7558C38.0664 53.7558 38.8143 53.7558 39.6872 53.7558ZM12.1238 47.1976C12.1238 46.8713 12.1238 46.5449 12.1238 46.2122C11.5432 46.2122 11.0338 46.2122 10.4974 46.2122C10.4974 47.8527 10.4485 49.4575 10.5111 51.0579C10.5746 52.682 11.4214 53.6243 13.0077 53.8335C14.7488 54.0632 16.353 53.4628 16.543 51.5035C16.7121 49.7589 16.5785 47.985 16.5785 46.2113C16.0597 46.2113 15.5495 46.2113 15.0005 46.2113C15.0005 47.7244 15.0044 49.201 14.9992 50.6775C14.9955 51.7321 14.4567 52.3319 13.5452 52.3141C12.6603 52.2968 12.1331 51.704 12.1258 50.6949C12.1177 49.5701 12.1238 48.4451 12.1238 47.1976ZM37.6958 18.8811C38.5047 19.4259 39.4167 19.4744 40.3351 19.3672C41.4046 19.2424 42.2851 18.3973 42.3866 17.4813C42.5317 16.1708 42.1091 15.4485 40.8581 14.9655C40.2999 14.75 39.7077 14.6238 39.1431 14.423C38.777 14.2928 38.3797 14.0347 38.5624 13.6174C38.6808 13.3471 39.1257 13.0289 39.3941 13.0541C39.9785 13.1089 40.5436 13.3695 41.2582 13.5896C41.4821 13.4298 41.8827 13.1439 42.2831 12.8581C41.4856 11.7585 40.3015 11.2923 39.0189 11.5372C37.7186 11.7854 36.9551 12.5528 36.8758 13.6912C36.8015 14.7592 37.4237 15.5624 38.6834 15.9913C39.1341 16.1448 39.6056 16.2377 40.0549 16.3945C40.4662 16.5381 40.8402 16.7692 40.7296 17.2939C40.6246 17.7918 40.2208 17.8925 39.7744 17.9144C38.9166 17.9564 38.3447 17.4717 37.8539 16.847C37.4224 17.1273 37.0286 17.3833 36.5549 17.691C36.9453 18.1082 37.2826 18.4688 37.6958 18.8811ZM52.1663 35.9001C52.1663 34.0996 52.1663 32.2991 52.1663 30.4409C52.9827 30.4409 53.7035 30.4409 54.4367 30.4409C54.4367 29.8957 54.4367 29.4102 54.4367 28.9157C52.3856 28.9157 50.3764 28.9157 48.3586 28.9157C48.3586 29.4345 48.3586 29.9221 48.3586 30.4679C49.1002 30.4679 49.7987 30.4679 50.5677 30.4679C50.5677 32.5091 50.5677 34.4928 50.5677 36.4731C51.1347 36.4731 51.6278 36.4731 52.1406 36.4731C52.1502 36.3031 52.1582 36.1596 52.1663 35.9001ZM50.6178 19.2537C51.0487 19.2537 51.4796 19.2537 51.9696 19.2537C51.9696 17.2283 51.9696 15.2647 51.9696 13.2353C52.7649 13.2353 53.5012 13.2353 54.2218 13.2353C54.2218 12.6782 54.2218 12.189 54.2218 11.689C52.1768 11.689 50.1695 11.689 48.1527 11.689C48.1527 12.2229 48.1527 12.7253 48.1527 13.2631C48.9021 13.2631 49.6048 13.2631 50.3512 13.2631C50.3512 15.0819 50.3463 16.8647 50.358 18.6475C50.3593 18.8485 50.454 19.0488 50.6178 19.2537Z" fill="#0ADDF8"/>
<path id="Vector_2" d="M25.0732 14.7874C25.0226 16.2514 25.0147 17.6877 25.0056 19.124C25.0055 19.1421 24.9915 19.1601 24.9681 19.2159C24.4748 19.2159 23.9645 19.2159 23.4141 19.2159C23.4141 16.7221 23.4141 14.2186 23.4141 11.6596C23.8497 11.6596 24.2655 11.6266 24.6715 11.6754C24.8396 11.6957 25.0252 11.8622 25.1372 12.0114C26.0607 13.2413 26.9683 14.4832 27.8822 15.7204C27.991 15.8676 28.1086 16.0083 28.3155 16.2704C28.3155 14.6719 28.3155 13.2094 28.3155 11.7037C28.887 11.7037 29.3917 11.7037 29.931 11.7037C29.931 14.2059 29.931 16.6934 29.931 19.1901C29.0357 19.3987 28.3817 19.2443 27.8304 18.3945C27.0091 17.1287 26.0285 15.9662 25.0732 14.7874Z" fill="#000404"/>
<path id="Vector_3" d="M48.7635 53.755C48.5218 53.746 48.3409 53.7371 48.1445 53.7273C48.1445 51.2126 48.1445 48.7398 48.1445 46.0909C49.5312 46.1852 50.9476 46.0975 52.266 46.4154C54.1135 46.861 54.7571 48.5987 54.5755 50.3478C54.3376 52.638 53.0926 53.6954 50.7607 53.7525C50.1157 53.7683 49.4699 53.755 48.7635 53.755ZM51.8275 47.9421C51.1625 47.8485 50.4975 47.7548 49.7857 47.6546C49.7857 49.2314 49.7857 50.6749 49.7857 52.1141C51.3679 52.3542 52.3933 51.9466 52.7744 50.9421C53.216 49.7778 52.8741 48.6104 51.8275 47.9421Z" fill="#000304"/>
<path id="Vector_4" d="M10.8438 33.9998C10.8438 32.275 10.8438 30.6128 10.8438 28.9158C11.9104 28.9158 12.9446 28.8562 13.9688 28.9315C15.1375 29.0175 16.0475 29.5919 16.3546 30.7854C16.674 32.0266 16.3398 33.0844 15.1582 33.8366C15.6034 34.6956 16.0462 35.5498 16.5384 36.4993C15.9836 36.4993 15.498 36.5217 15.0168 36.4855C14.8749 36.4749 14.6993 36.3265 14.6188 36.1932C14.3625 35.7681 14.0817 35.3414 13.9245 34.8767C13.6698 34.1243 13.1657 34.0608 12.4572 34.2253C12.4572 34.9628 12.4572 35.702 12.4572 36.4696C11.9019 36.4696 11.4102 36.4696 10.8438 36.4696C10.8438 35.6685 10.8437 34.8654 10.8438 33.9998ZM13.0555 32.6212C13.4042 32.5866 13.7616 32.5886 14.0996 32.5087C14.5969 32.3911 14.7856 32.0108 14.788 31.5239C14.7903 31.0218 14.5352 30.6528 14.0702 30.5542C13.5582 30.4456 13.0191 30.4646 12.4443 30.4247C12.4443 31.0774 12.47 31.6176 12.4359 32.154C12.4103 32.5575 12.569 32.6806 13.0555 32.6212Z" fill="#000405"/>
<path id="Vector_5" d="M27.3613 46.3579C29.345 47.0276 29.6691 49.9286 27.7479 51.1072C28.1887 51.9634 28.631 52.8226 29.1107 53.7543C28.5522 53.7543 28.0774 53.7774 27.6073 53.7406C27.4621 53.7292 27.2806 53.5843 27.2004 53.45C26.945 53.0224 26.6817 52.5887 26.5096 52.1247C26.2408 51.3998 25.75 51.2842 25.0292 51.495C25.0292 52.2148 25.0292 52.9546 25.0292 53.7236C24.4585 53.7236 23.9487 53.7236 23.4062 53.7236C23.4062 51.2221 23.4062 48.733 23.4062 46.0997C24.7209 46.1826 26.0172 46.2644 27.3613 46.3579ZM25.9209 47.734C25.6366 47.734 25.3523 47.734 25.0562 47.734C25.0562 48.4794 25.0562 49.1529 25.0562 49.8589C25.5302 49.8589 25.9921 49.9517 26.3892 49.8311C26.7419 49.7241 27.1834 49.4354 27.29 49.1254C27.3962 48.816 27.2317 48.3001 27.0039 48.0258C26.8246 47.8098 26.3686 47.8234 25.9209 47.734Z" fill="#000203"/>
<path id="Vector_6" d="M29.6995 32.8647C29.6731 33.4032 29.6892 33.8879 29.612 34.3572C29.4118 35.5738 28.6343 36.3311 27.3791 36.5453C25.4206 36.8796 23.6237 36.1508 23.5561 33.6475C23.5141 32.0902 23.5483 30.5308 23.5483 28.9295C24.0796 28.9295 24.5841 28.9295 25.1452 28.9295C25.1452 30.4279 25.135 31.9215 25.1486 33.4149C25.1584 34.4849 25.7219 35.0557 26.6926 35.0233C27.4419 34.9983 27.9077 34.638 28.0018 33.8722C28.0875 33.1738 28.0731 32.4618 28.0819 31.7556C28.0935 30.8206 28.0847 29.8853 28.0847 28.9177C28.6127 28.9177 29.1026 28.9177 29.6995 28.9177C29.6995 30.2049 29.6995 31.5044 29.6995 32.8647Z" fill="#000606"/>
<path id="Vector_7" d="M42.3083 29.5594C42.6939 30.0181 43.0457 30.4474 43.4512 30.9423C42.9457 31.1496 42.5574 31.3524 42.1443 31.4549C41.9979 31.4913 41.7398 31.3257 41.6202 31.1803C40.9536 30.3696 40.0948 30.1834 39.1487 30.4619C38.2074 30.7391 37.7462 31.4816 37.6569 32.4202C37.5642 33.3953 37.866 34.2335 38.7528 34.7661C39.5569 35.2491 40.89 35.1203 41.44 34.3819C41.8385 33.8467 42.1869 33.8734 42.6737 34.1195C42.8937 34.2307 43.1282 34.3134 43.3573 34.4096C42.2791 36.5142 39.8022 37.2757 37.8151 36.1273C35.9843 35.0692 35.4127 32.296 36.6382 30.4172C37.7947 28.6442 40.4645 28.2239 42.3083 29.5594Z" fill="#000404"/>
<path id="Vector_8" d="M12.0907 11.6595C12.2312 11.8352 12.3816 12.0093 12.3844 12.1857C12.4051 13.5175 12.3782 14.8502 12.4033 16.1819C12.4241 17.2866 13.1034 17.9077 14.0855 17.7788C14.7497 17.6917 15.1916 17.3327 15.2626 16.6117C15.3561 15.6629 15.3371 14.7025 15.3539 13.7469C15.3656 13.0819 15.3561 12.4166 15.3561 11.7051C15.8862 11.7051 16.3884 11.7051 16.8741 11.7051C16.8741 13.5277 17.0369 15.3503 16.8293 17.1296C16.612 18.9909 15.0145 19.5647 13.3105 19.3298C11.6756 19.1045 10.903 18.223 10.8422 16.5581C10.7838 14.96 10.8296 13.3582 10.8296 11.6589C11.2206 11.6589 11.6264 11.6589 12.0907 11.6595Z" fill="#000607"/>
<path id="Vector_9" d="M39.625 53.7558C38.8146 53.7558 38.0666 53.7558 37.2734 53.7558C37.2734 51.2292 37.2734 48.7284 37.2734 46.2001C38.834 46.2001 40.3851 46.2001 41.9749 46.2001C41.9749 46.6864 41.9749 47.155 41.9749 47.6913C40.9501 47.6913 39.9207 47.6913 38.853 47.6913C38.853 48.2008 38.853 48.6438 38.853 49.1469C39.6939 49.1469 40.5164 49.1469 41.3658 49.1469C41.3658 49.6775 41.3658 50.1492 41.3658 50.6872C40.544 50.6872 39.7235 50.6872 38.8589 50.6872C38.8589 51.2154 38.8589 51.6784 38.8589 52.2047C39.9083 52.2047 40.9383 52.2047 41.9905 52.2047C41.9905 52.7399 41.9905 53.2123 41.9905 53.7558C41.2128 53.7558 40.4501 53.7558 39.625 53.7558Z" fill="#000606"/>
<path id="Vector_10" d="M12.1251 47.2588C12.1251 48.4451 12.1189 49.57 12.1271 50.6948C12.1343 51.7039 12.6616 52.2967 13.5464 52.314C14.4579 52.3318 14.9967 51.7321 15.0005 50.6774C15.0057 49.2009 15.0018 47.7243 15.0018 46.2112C15.5508 46.2112 16.061 46.2112 16.5798 46.2112C16.5798 47.9849 16.7134 49.7588 16.5442 51.5034C16.3542 53.4627 14.7501 54.0631 13.0089 53.8334C11.4226 53.6242 10.5759 52.6819 10.5123 51.0578C10.4497 49.4574 10.4987 47.8526 10.4987 46.2121C11.035 46.2121 11.5445 46.2121 12.1251 46.2121C12.1251 46.5448 12.1251 46.8712 12.1251 47.2588Z" fill="#000303"/>
<path id="Vector_11" d="M37.6576 18.8552C37.2823 18.4687 36.945 18.1082 36.5547 17.691C37.0283 17.3832 37.4222 17.1273 37.8537 16.8469C38.3444 17.4717 38.9164 17.9563 39.7742 17.9143C40.2206 17.8925 40.6243 17.7917 40.7293 17.2938C40.84 16.7691 40.4659 16.538 40.0546 16.3945C39.6053 16.2377 39.1338 16.1448 38.6832 15.9913C37.4235 15.5623 36.8012 14.7591 36.8756 13.6911C36.9549 12.5528 37.7183 11.7854 39.0186 11.5372C40.3013 11.2923 41.4853 11.7585 42.2828 12.858C41.8825 13.1438 41.4819 13.4297 41.258 13.5895C40.5434 13.3694 39.9782 13.1088 39.3938 13.054C39.1254 13.0289 38.6806 13.347 38.5622 13.6174C38.3795 14.0347 38.7768 14.2928 39.1428 14.423C39.7075 14.6237 40.2996 14.75 40.8578 14.9655C42.1088 15.4485 42.5315 16.1708 42.3863 17.4812C42.2848 18.3972 41.4043 19.2423 40.3349 19.3671C39.4165 19.4743 38.5044 19.4259 37.6576 18.8552Z" fill="#000303"/>
<path id="Vector_12" d="M52.167 35.9581C52.1589 36.1595 52.1509 36.3031 52.1414 36.4731C51.6286 36.4731 51.1354 36.4731 50.5685 36.4731C50.5685 34.4928 50.5685 32.5091 50.5685 30.4678C49.7994 30.4678 49.1009 30.4678 48.3594 30.4678C48.3594 29.9221 48.3594 29.4344 48.3594 28.9156C50.3771 28.9156 52.3863 28.9156 54.4374 28.9156C54.4374 29.4102 54.4374 29.8957 54.4374 30.4409C53.7042 30.4409 52.9835 30.4409 52.167 30.4409C52.167 32.299 52.167 34.0996 52.167 35.9581Z" fill="#00090A"/>
<path id="Vector_13" d="M50.5612 19.2516C50.4536 19.0488 50.3589 18.8485 50.3576 18.6475C50.346 16.8647 50.3509 15.0819 50.3509 13.2631C49.6045 13.2631 48.9017 13.2631 48.1523 13.2631C48.1523 12.7253 48.1523 12.2229 48.1523 11.689C50.1692 11.689 52.1764 11.689 54.2214 11.689C54.2214 12.189 54.2214 12.6782 54.2214 13.2353C53.5009 13.2353 52.7645 13.2353 51.9693 13.2353C51.9693 15.2647 51.9693 17.2283 51.9693 19.2537C51.4793 19.2537 51.0484 19.2537 50.5612 19.2516Z" fill="#000607"/>
<path id="Vector_14" d="M51.8724 47.9673C52.8775 48.6104 53.2194 49.7778 52.7777 50.9421C52.3966 51.9466 51.3712 52.3542 49.7891 52.1141C49.7891 50.675 49.7891 49.2315 49.7891 47.6547C50.5008 47.7549 51.1659 47.8485 51.8724 47.9673Z" fill="#0ADBF5"/>
<path id="Vector_15" d="M12.9965 32.6213C12.5693 32.6807 12.4106 32.5575 12.4362 32.154C12.4703 31.6176 12.4447 31.0774 12.4447 30.4248C13.0195 30.4647 13.5585 30.4456 14.0705 30.5542C14.5355 30.6529 14.7907 31.0218 14.7883 31.524C14.786 32.0109 14.5972 32.3912 14.0999 32.5088C13.7619 32.5886 13.4046 32.5866 12.9965 32.6213Z" fill="#0ADBF5"/>
<path id="Vector_16" d="M25.9806 47.7345C26.371 47.8234 26.8269 47.8098 27.0063 48.0258C27.2341 48.3001 27.3986 48.816 27.2923 49.1253C27.1858 49.4354 26.7443 49.7241 26.3916 49.8311C25.9945 49.9517 25.5326 49.8589 25.0586 49.8589C25.0586 49.1529 25.0586 48.4794 25.0586 47.734C25.3547 47.734 25.639 47.734 25.9806 47.7345Z" fill="#0AD6F0"/>
</g>
<defs>
<clipPath id="clip0_3950_913">
<rect width="64" height="64" fill="white"/>
</clipPath>
</defs>
</svg>
