<?xml version="1.0" encoding="UTF-8"?><svg id="Layer_2" xmlns="http://www.w3.org/2000/svg" viewBox="0 0 261.35 99.82"><defs><style>.cls-1{fill:#79dcdf;}.cls-1,.cls-2,.cls-3,.cls-4,.cls-5,.cls-6,.cls-7,.cls-8,.cls-9{stroke-width:0px;}.cls-2{fill:#29aae1;}.cls-3{fill:#0e87cb;}.cls-4{fill:#40bdc0;}.cls-5{fill:#fff;}.cls-6{fill:#0171bb;}.cls-7{fill:#003c5e;}.cls-8{fill:#65c7cf;}.cls-9{fill:#0071bb;}</style></defs><g id="Layer_1-2"><path class="cls-7" d="m114.06,0c-.07.16-.04.32-.04.48,0,6.32,0,12.63,0,18.95,0,.16-.01.32-.02.49-.37-.07-.66-.31-.97-.49-1.67-.96-3.33-1.92-5-2.89-1.5-.87-3.01-1.73-4.51-2.59-1.51-.87-3.03-1.75-4.54-2.62-.76-.44-1.51-.91-2.3-1.3.68-.49,1.43-.87,2.15-1.28,4.93-2.85,9.86-5.69,14.79-8.54.1-.06.23-.08.28-.21h.16Z"/><path class="cls-5" d="m261.35,92.46c-.15.32-.14.67-.24,1.01-.89,3.27-2.95,5.33-6.3,6.04-.44.09-.89.13-1.34.13-1.4,0-2.8-.03-4.2,0-3.36.07-6.87-2.11-7.83-6.22-.52-2.21-.35-4.38.75-6.41,1.15-2.12,3-3.31,5.33-3.78.59-.12,1.18-.16,1.78-.15,1.43,0,2.86-.02,4.29,0,1.84.04,3.53.57,4.98,1.75,1.53,1.25,2.38,2.9,2.69,4.83.01.09-.03.2.08.25v2.53Zm-10.12,4.29c.84-.02,1.69.03,2.53-.04,1.31-.11,2.44-.63,3.32-1.61,1.13-1.26,1.5-2.76,1.34-4.42-.26-2.72-2.31-4.64-5.04-4.68-1.43-.02-2.86-.04-4.28,0-2.07.06-3.59,1.02-4.49,2.9-.56,1.17-.64,2.41-.38,3.66.53,2.62,2.58,4.07,4.72,4.15.76.03,1.52,0,2.28.02Z"/><path class="cls-6" d="m148.7.07s-.02-.04-.02-.07h.16s-.02.04-.02.07c-.04,0-.08,0-.12,0Z"/><path class="cls-1" d="m131.29,50.02c.05,0,.11,0,.16,0,.03.07.07.12.13.15,1.63.94,3.26,1.87,4.89,2.81,1.84,1.06,3.69,2.11,5.53,3.17,1.72.99,3.45,1.99,5.16,3,.51.3,1.07.53,1.52.92-.84.55-1.73,1.02-2.59,1.52-2.04,1.19-4.09,2.36-6.13,3.54-2.01,1.16-4.02,2.32-6.03,3.48-.85.49-1.69.97-2.56,1.47-.56-.32-1.14-.65-1.72-.98-2.42-1.4-4.84-2.8-7.26-4.19-2.67-1.54-5.34-3.08-8-4.62-.12-.07-.22-.15-.34-.22.09-.12.22-.19.35-.27,1.22-.71,2.44-1.41,3.66-2.11,2.12-1.22,4.24-2.45,6.37-3.67,2.04-1.17,4.09-2.34,6.13-3.52.25-.15.56-.22.74-.48Z"/><path class="cls-3" d="m114,20.07c0,.12.02.24.02.36,0,6.38,0,12.76,0,19.13,0,.11,0,.22-.01.33-.02.03-.03.05-.05.08-1.11-.64-2.23-1.27-3.34-1.91-1.15-.66-2.3-1.32-3.45-1.98-1.34-.77-2.67-1.54-4-2.31-1.12-.65-2.24-1.3-3.37-1.95-1.04-.6-2.09-1.19-3.13-1.79,0-.03,0-.06,0-.08.23-.01.39-.19.57-.29,1.33-.75,2.66-1.51,3.98-2.28,1.12-.65,2.24-1.31,3.37-1.96,1.18-.68,2.38-1.35,3.56-2.03,1.64-.95,3.27-1.91,4.91-2.85.3-.17.57-.42.94-.47Z"/><path class="cls-8" d="m148.68,60.07c-.45-.39-1.01-.62-1.52-.92-1.71-1.01-3.44-2-5.16-3-1.84-1.06-3.69-2.12-5.53-3.17-1.63-.94-3.26-1.87-4.89-2.81-.06-.04-.1-.09-.13-.15,1.23-.77,2.51-1.46,3.76-2.19,2.54-1.47,5.08-2.93,7.62-4.4,1.85-1.07,3.69-2.13,5.54-3.2.17-.1.34-.18.33-.41.06.04.06.11.06.17,0,.03,0,.05,0,.08,0,6.52,0,13.03,0,19.55,0,.13-.05.28.09.37-.04.07-.1.08-.17.09Z"/><path class="cls-3" d="m148.76,39.99c0-.06,0-.12-.06-.17,0-5.24,0-10.47,0-15.71,0-1.35,0-2.69,0-4.04.15-.02.26.06.38.12.59.34,1.17.68,1.75,1.02,1.31.76,2.62,1.52,3.93,2.27,1.15.66,2.29,1.32,3.44,1.99,1.11.64,2.22,1.29,3.33,1.93,1.02.59,2.03,1.19,3.06,1.75.48.26.92.63,1.46.79,0,.03,0,.06,0,.08-1.39.79-2.77,1.58-4.16,2.37-1.92,1.11-3.84,2.22-5.76,3.33-1.11.64-2.23,1.27-3.34,1.92-1.35.78-2.69,1.56-4.03,2.34Z"/><path class="cls-7" d="m148.7.07s.08,0,.12,0c1.44.82,2.87,1.64,4.31,2.47,4.24,2.45,8.49,4.9,12.73,7.35.05.03.09.06.14.09-.05.08-.14.13-.22.18-1.31.76-2.63,1.53-3.94,2.29-2.03,1.17-4.07,2.34-6.1,3.51-2.02,1.17-4.03,2.34-6.06,3.5-.31.18-.6.43-.97.49,0-.09-.01-.19-.01-.28,0-6.43,0-12.86,0-19.29,0-.09,0-.19.01-.28Z"/><path class="cls-8" d="m113.97,39.98s.03-.05.05-.08c.04.16.17.23.3.31,3.35,1.93,6.7,3.86,10.04,5.79,2.28,1.32,4.56,2.63,6.84,3.95.03.02.06.05.09.08-.18.26-.49.33-.74.48-2.03,1.19-4.08,2.35-6.13,3.52-2.12,1.22-4.25,2.45-6.37,3.67-1.22.7-2.44,1.41-3.66,2.11-.13.07-.26.14-.35.27-.06-.01-.13-.02-.17-.09.16-.12.09-.3.09-.45,0-3.01,0-6.03,0-9.04,0-3.48,0-6.95,0-10.43,0-.03,0-.06,0-.09Z"/><path class="cls-2" d="m148.76,39.99c1.34-.78,2.69-1.56,4.03-2.34,1.11-.64,2.23-1.27,3.34-1.92,1.92-1.11,3.84-2.22,5.76-3.33,1.38-.8,2.77-1.58,4.16-2.37,0,.12.01.24.01.37,0,6.42,0,12.84,0,19.26,0,.12,0,.24-.02.37-.34-.19-.68-.39-1.02-.58-1.14-.65-2.27-1.31-3.41-1.96-.98-.57-1.97-1.13-2.95-1.7-1.11-.64-2.22-1.29-3.33-1.93-1.14-.66-2.27-1.31-3.41-1.96-1.05-.61-2.11-1.21-3.17-1.82,0-.03,0-.05,0-.08Z"/><path class="cls-4" d="m113.97,40.07c0,3.48,0,6.95,0,10.43,0,3.01,0,6.03,0,9.04,0,.15.07.33-.09.45-1.14-.65-2.29-1.3-3.43-1.96-4.2-2.42-8.39-4.84-12.59-7.27-.4-.23-.85-.4-1.19-.75.11-.06.22-.11.33-.17,1.03-.59,2.06-1.19,3.09-1.79.96-.56,1.91-1.12,2.87-1.67,1.09-.63,2.18-1.26,3.27-1.88,1.32-.76,2.65-1.52,3.98-2.28,1.25-.72,2.51-1.44,3.76-2.16Z"/><path class="cls-2" d="m113.97,40.07c-1.25.72-2.51,1.44-3.76,2.16-1.33.76-2.65,1.52-3.98,2.28-1.09.63-2.18,1.25-3.27,1.88-.96.56-1.92,1.12-2.87,1.67-1.03.6-2.06,1.19-3.09,1.79-.11.06-.22.11-.33.17,0-.12-.02-.24-.02-.37,0-6.43,0-12.87,0-19.3,0-.11,0-.22.01-.32,1.04.6,2.09,1.19,3.13,1.79,1.12.65,2.25,1.3,3.37,1.95,1.33.77,2.67,1.54,4,2.31,1.15.66,2.3,1.32,3.45,1.98,1.11.64,2.23,1.28,3.34,1.91,0,.03,0,.06,0,.09Z"/><path class="cls-6" d="m148.7,19.93c.38-.05.66-.31.97-.49,2.02-1.16,4.04-2.34,6.06-3.5,2.03-1.17,4.07-2.34,6.1-3.51,1.32-.76,2.63-1.53,3.94-2.29.08-.05.17-.09.22-.18.13.07.07.2.07.29,0,6.51,0,13.02,0,19.52,0,.05,0,.11-.01.16-.54-.16-.97-.53-1.46-.79-1.03-.56-2.04-1.17-3.06-1.75-1.11-.64-2.22-1.29-3.33-1.93-1.15-.66-2.29-1.32-3.44-1.99-1.31-.76-2.62-1.52-3.93-2.27-.58-.34-1.17-.68-1.75-1.02-.12-.07-.24-.14-.38-.12,0-.05,0-.1,0-.15Z"/><path class="cls-4" d="m148.76,40.07c1.06.61,2.11,1.21,3.17,1.82,1.14.65,2.27,1.31,3.41,1.96,1.11.64,2.22,1.29,3.33,1.93.98.57,1.97,1.14,2.95,1.7,1.14.65,2.27,1.31,3.41,1.96.34.2.68.39,1.02.58-.18.25-.48.34-.73.48-5.44,3.14-10.88,6.28-16.32,9.42-.05.03-.1.04-.15.07-.14-.1-.09-.25-.09-.37,0-6.52,0-13.03,0-19.55Z"/><path class="cls-9" d="m114,20.07c-.37.04-.64.3-.94.47-1.64.94-3.27,1.9-4.91,2.85-1.18.68-2.38,1.35-3.56,2.03-1.12.65-2.24,1.31-3.37,1.96-1.32.76-2.65,1.52-3.98,2.28-.19.11-.34.28-.57.29,0-.14-.02-.27-.02-.41,0-6.37,0-12.74,0-19.11,0-.13.02-.27.02-.4.79.39,1.53.86,2.3,1.3,1.52.87,3.03,1.75,4.54,2.62,1.5.87,3.01,1.73,4.51,2.59,1.67.96,3.33,1.93,5,2.89.31.18.6.42.97.49.04.05.04.1,0,.16Z"/><path class="cls-5" d="m57.14,83.06v2.85c-.16.06-.31.03-.46.03-3.71,0-7.43,0-11.14,0-.39,0-.79.02-1.17.15-.69.25-1.08.75-1.17,1.48-.03.27-.03.55,0,.81.09.82.72,1.43,1.55,1.54.21.03.43.04.65.04,2.49,0,4.98,0,7.47,0,.69,0,1.38.07,2.05.26,1.58.45,2.57,1.45,2.9,3.08.21,1,.22,2-.05,2.99-.48,1.76-1.67,2.78-3.42,3.17-.52.12-1.05.16-1.58.16-3.97,0-7.95,0-11.92,0h-.47v-2.93c.16,0,.31,0,.46,0,4.01,0,8.03,0,12.04,0,.63,0,1.22-.14,1.69-.59.7-.68.76-1.52.5-2.38-.24-.83-.92-1.16-1.73-1.27-.28-.04-.57-.04-.85-.04-2.49,0-4.98,0-7.47,0-1.03,0-1.99-.24-2.86-.79-1.18-.75-1.81-1.85-1.99-3.21-.11-.8-.05-1.6.22-2.37.58-1.68,1.84-2.52,3.5-2.87.35-.07.7-.11,1.05-.11,3.97,0,7.95,0,11.92,0h.27Z"/><path class="cls-5" d="m91.34,94.72c1.66,1.61,3.31,3.21,5.04,4.88h-4.18c-.63-.69-1.29-1.41-1.94-2.13-.67-.73-1.34-1.46-2-2.2-.16-.18-.33-.25-.56-.24-1.8,0-3.59,0-5.39,0-.15,0-.3.03-.46-.04v-2.48c.12-.1.27-.05.41-.05,2.11,0,4.22,0,6.33,0,.37,0,.74-.02,1.09-.1,1.1-.24,1.8-.92,2.07-2,.19-.73.2-1.48.04-2.22-.26-1.21-1.1-1.97-2.32-2.12-.38-.05-.76-.07-1.14-.07-2.71,0-5.41,0-8.12,0-.15,0-.3-.04-.48.06v13.6h-2.87v-16.51c.1-.08.23-.04.34-.04,3.93,0,7.86-.01,11.79,0,1.68,0,3.18.51,4.35,1.79.75.83,1.16,1.83,1.32,2.92.21,1.34.15,2.65-.36,3.93-.47,1.18-1.27,2.07-2.42,2.64-.16.08-.31.16-.47.23-.03.05-.05.09-.08.14Z"/><path class="cls-5" d="m187.63,94.62c1.63,1.64,3.26,3.29,4.96,5.01h-.45c-1.12,0-2.23,0-3.35,0-.26,0-.43-.08-.59-.27-1.22-1.35-2.45-2.69-3.67-4.05-.19-.21-.38-.3-.66-.29-1.78.01-3.56,0-5.35,0h-.43v-2.54c.12-.08.28-.03.42-.03,2.1,0,4.19,0,6.29,0,.44,0,.87-.04,1.29-.15.92-.24,1.52-.82,1.82-1.7.29-.87.3-1.77.07-2.65-.29-1.1-1.13-1.8-2.31-1.94-.36-.04-.73-.07-1.1-.07-2.71,0-5.41,0-8.12,0-.15,0-.3-.02-.48.04v13.62h-2.87v-16.5c.07-.08.19-.03.29-.03,3.96,0,7.92-.02,11.88,0,1.79,0,3.36.6,4.51,2.05.62.78.97,1.69,1.11,2.67.16,1.14.16,2.28-.17,3.39-.43,1.47-1.34,2.56-2.72,3.23-.12.06-.26.07-.37.2Z"/><path class="cls-5" d="m211.36,83.09c.17-.06.32-.03.47-.03,3.1,0,6.2,0,9.3,0,4.01,0,7.18,2.64,7.78,6.6.42,2.81-.17,5.39-2.15,7.52-1.38,1.49-3.12,2.26-5.14,2.42-.15.01-.3.02-.45.02-3.16,0-6.31,0-9.47,0-.1,0-.22.03-.33-.05v-16.48Zm2.92,2.84c-.06.53-.05,10.44.01,10.77.1,0,.21,0,.32,0,2.16,0,4.32.02,6.49,0,1.62-.02,2.95-.69,3.93-1.98,1.05-1.38,1.27-2.97.97-4.64-.41-2.24-2.21-3.91-4.48-4.07-2.4-.17-4.81-.02-7.24-.07Z"/><path class="cls-5" d="m23.2,87.58v12.02h-2.71c-.1-.1-.06-.23-.06-.35,0-4.9,0-9.79,0-14.69,0-.16.01-.32.05-.49.25-1.19,1.44-1.64,2.4-.9.26.2.49.44.72.66,2.37,2.36,4.74,4.72,7.12,7.07,1.28,1.27,2.57,2.54,3.86,3.81.06.05.1.13.24.16v-11.97h2.74c.1.11.05.23.05.35,0,4.92,0,9.84,0,14.77,0,.16-.01.33-.03.49-.17,1.21-1.24,1.54-2.16,1.11-.22-.1-.41-.26-.58-.44-3.3-3.32-6.6-6.63-9.9-9.94-.54-.55-1.1-1.08-1.72-1.68Z"/><path class="cls-5" d="m112.09,83.08h2.81c.08.14.04.28.04.41,0,2.87,0,5.74,0,8.61,0,1.25-.11,2.5-.56,3.68-.63,1.67-1.84,2.75-3.5,3.36-1.21.44-2.47.66-3.75.66-1.17,0-2.34.07-3.51-.07-1.54-.19-3.02-.55-4.28-1.52-1.18-.9-1.8-2.14-2.1-3.57-.16-.73-.22-1.48-.23-2.23-.01-3.03,0-6.06,0-9.1v-.22h2.98c.07.14.03.29.03.44,0,2.99,0,5.98,0,8.97,0,.51.06,1,.18,1.49.3,1.28,1.09,2.13,2.34,2.54.79.26,1.61.37,2.44.41,1.35.06,2.69.05,4.01-.25,1.5-.34,2.55-1.16,2.91-2.72.12-.52.18-1.04.18-1.58,0-2.95,0-5.9,0-8.85v-.47Z"/><path class="cls-5" d="m0,83.08h2.96c.08.16.04.31.04.45,0,2.98,0,5.95,0,8.93,0,.53.05,1.06.18,1.57.29,1.18,1,1.99,2.14,2.43.85.32,1.73.44,2.63.48,1.35.07,2.69.05,4.01-.25,1.57-.36,2.63-1.25,2.94-2.89.08-.44.13-.89.13-1.34,0-2.98,0-5.95,0-8.93v-.46h2.81c.08.06.05.16.05.25,0,3.19,0,6.39-.02,9.58,0,.97-.18,1.92-.52,2.83-.66,1.78-1.97,2.89-3.74,3.47-1.15.38-2.35.58-3.56.58-1.15,0-2.31.07-3.46-.07-1.03-.13-2.04-.34-2.99-.76-1.98-.87-3.06-2.44-3.43-4.53C.05,93.74,0,93.03,0,92.32c0-2.92,0-5.85,0-8.77,0-.15,0-.3,0-.48Z"/><path class="cls-5" d="m152.58,83.07h2.94c.11.14.06.3.06.44,0,2.96,0,5.93,0,8.89,0,.54.06,1.08.18,1.61.3,1.28,1.09,2.09,2.31,2.51.82.28,1.66.38,2.52.42,1.33.06,2.66.05,3.97-.26,1.45-.33,2.49-1.12,2.86-2.62.13-.51.19-1.04.19-1.57,0-2.99,0-5.98,0-8.97,0-.15-.03-.3.04-.45h2.77s.05.08.05.14c0,3.25,0,6.5-.02,9.75,0,.86-.16,1.7-.43,2.52-.65,2-2.06,3.2-4.03,3.81-1.14.35-2.3.53-3.49.51-1.11-.02-2.23.06-3.34-.08-1.04-.13-2.06-.35-3.03-.77-1.92-.85-2.97-2.38-3.37-4.4-.13-.67-.19-1.34-.19-2.02,0-2.99,0-5.98,0-8.97,0-.15,0-.3,0-.48Z"/><path class="cls-5" d="m194.07,99.61v-16.52h14.77v2.84h-11.87v10.75h11.9v2.93h-14.79Z"/><path class="cls-5" d="m134.06,83.06v2.84c-.15.08-.3.04-.45.04-2.76,0-5.52,0-8.29,0-.89,0-1.76.13-2.57.54-.94.47-1.64,1.18-2.14,2.09-.52.94-.73,1.96-.67,3.03.09,1.38.52,2.65,1.53,3.65.96.95,2.11,1.46,3.48,1.46,2.88,0,5.77,0,8.65,0,.15,0,.3-.04.45.04v2.83c-.1.09-.2.06-.29.06-3.1,0-6.2.03-9.31,0-.87-.01-1.72-.26-2.53-.61-1.14-.49-2.11-1.22-2.93-2.15-.46-.52-.81-1.11-1.11-1.74-.41-.85-.66-1.75-.8-2.67-.15-.93-.11-1.87.06-2.8.22-1.22.62-2.36,1.33-3.37,1.16-1.62,2.72-2.64,4.68-3.05.59-.12,1.19-.18,1.8-.18,2.87,0,5.74,0,8.61,0h.49Z"/><path class="cls-5" d="m144.64,99.6h-2.9v-13.64h-6.27v-2.89h15.44v2.86h-6.26v13.67Z"/><path class="cls-5" d="m65.74,99.6v-13.66h-6.27v-2.86h15.45v2.85h-6.24v13.67h-2.94Z"/><path class="cls-5" d="m235.77,83.09h2.85v16.52h-2.85v-16.52Z"/><path class="cls-5" d="m208.18,89.98c.07.1.05.19.05.26,0,.71,0,1.41,0,2.14h-9.17v-2.41h9.11Z"/><path class="cls-5" d="m231.15,99.8c-.72.11-1.55-.56-1.53-1.53.02-.91.64-1.56,1.53-1.56.92,0,1.58.65,1.58,1.55,0,.91-.64,1.54-1.58,1.54Z"/></g></svg>