<svg width="190" height="27" viewBox="0 0 190 27" fill="none" xmlns="http://www.w3.org/2000/svg">
<rect x="1" y="1" width="140" height="25" fill="#BCF0A7"/>
<rect x="1" y="1" width="140" height="25" stroke="#131144" stroke-width="0.5"/>
<rect x="1" y="1" width="140" height="25" stroke="#131144" stroke-width="0.5"/>
<rect x="1" y="1" width="140" height="25" stroke="#131144" stroke-width="0.5"/>
<rect x="4" y="3" width="73" height="21" fill="#7AC7C0"/>
<rect x="4" y="3" width="73" height="21" stroke="#131144" stroke-width="0.5"/>
<rect x="4" y="3" width="73" height="21" stroke="#131144" stroke-width="0.5"/>
<rect x="4" y="3" width="73" height="21" stroke="#131144" stroke-width="0.5"/>
<rect x="77" y="3" width="21" height="21" fill="#AAD8D4"/>
<rect x="77" y="3" width="21" height="21" stroke="#131144" stroke-width="0.5"/>
<rect x="77" y="3" width="21" height="21" stroke="#131144" stroke-width="0.5"/>
<rect x="77" y="3" width="21" height="21" stroke="#131144" stroke-width="0.5"/>
<rect x="98" y="3" width="20" height="21" fill="#C2E1DE"/>
<rect x="98" y="3" width="20" height="21" stroke="#131144" stroke-width="0.5"/>
<rect x="98" y="3" width="20" height="21" stroke="#131144" stroke-width="0.5"/>
<rect x="98" y="3" width="20" height="21" stroke="#131144" stroke-width="0.5"/>
<rect x="141" y="1" width="24" height="25" fill="#BCF0A7" fill-opacity="0.6"/>
<rect x="141" y="1" width="24" height="25" stroke="#131144" stroke-width="0.5"/>
<rect x="141" y="1" width="24" height="25" stroke="#131144" stroke-width="0.5"/>
<rect x="141" y="1" width="24" height="25" stroke="#131144" stroke-width="0.5"/>
<rect x="165" y="1" width="24" height="25" fill="#BCF0A7" fill-opacity="0.4"/>
<rect x="165" y="1" width="24" height="25" stroke="#131144" stroke-width="0.5"/>
<rect x="165" y="1" width="24" height="25" stroke="#131144" stroke-width="0.5"/>
<rect x="165" y="1" width="24" height="25" stroke="#131144" stroke-width="0.5"/>
<rect x="6" y="5" width="17" height="17" fill="#7AD6EB"/>
<rect x="6" y="5" width="17" height="17" stroke="#131144" stroke-width="0.5"/>
<rect x="6" y="5" width="17" height="17" stroke="#131144" stroke-width="0.5"/>
<rect x="6" y="5" width="17" height="17" stroke="#131144" stroke-width="0.5"/>
<rect x="23" y="5" width="16" height="17" fill="#AAE1EE"/>
<rect x="23" y="5" width="16" height="17" stroke="#131144" stroke-width="0.5"/>
<rect x="23" y="5" width="16" height="17" stroke="#131144" stroke-width="0.5"/>
<rect x="23" y="5" width="16" height="17" stroke="#131144" stroke-width="0.5"/>
<rect x="39" y="5" width="17" height="17" fill="#C2E7EF"/>
<rect x="39" y="5" width="17" height="17" stroke="#131144" stroke-width="0.5"/>
<rect x="39" y="5" width="17" height="17" stroke="#131144" stroke-width="0.5"/>
<rect x="39" y="5" width="17" height="17" stroke="#131144" stroke-width="0.5"/>
</svg>
