<svg width="120" height="35" viewBox="0 0 120 35" fill="none" xmlns="http://www.w3.org/2000/svg">
<path fill-rule="evenodd" clip-rule="evenodd" d="M73.6877 29.9833C72.3555 30.46 71.2302 30.7887 70.2818 30.7887C68.595 30.7887 67.6781 29.7742 67.6781 27.8365V22.0232H73.7168V17.9988H67.6781V11.4403H63.4434V15.8527C63.4434 15.8714 63.4288 15.8999 63.4256 15.9219C63.4256 15.9284 63.4272 15.9333 63.4272 15.9398C63.4272 17.0771 62.5119 17.9988 61.3834 17.9988C61.3656 17.9988 61.3503 17.9939 61.3325 17.9939C61.3268 17.9939 61.3187 17.9988 61.3139 17.9988H60.5424V22.0232H63.4434V28.0748C63.4434 32.7858 66.2862 34.7529 69.5426 34.7529C71.4968 34.7529 73.5091 34.037 74.3986 33.4415L73.6877 29.9833ZM87.3047 24.17H95.0899C94.6174 22.3811 93.2852 21.1584 91.2414 21.1584C89.1692 21.1584 87.8379 22.4104 87.3047 24.17ZM99.5905 27.3004H87.0979C87.3637 29.9239 89.1394 31.2353 91.3302 31.2353C92.958 31.2353 94.3798 30.4901 94.9429 29.1787H99.3239C98.1097 33.0543 94.8532 34.7529 91.3609 34.7529C86.2683 34.7529 82.7751 31.1173 82.7751 26.2273C82.7751 21.3081 86.2973 17.6408 91.2713 17.6408C96.6596 17.6408 100.004 21.9036 99.5905 27.3004ZM76.5612 34.3965H80.7943V17.9988H76.5612V34.3965ZM81.3275 12.9306C81.3275 14.3909 80.232 15.4639 78.6923 15.4639C77.2123 15.4639 76.0571 14.3909 76.0571 12.9306C76.0571 11.4696 77.2123 10.4259 78.6923 10.4259C80.232 10.4259 81.3275 11.4696 81.3275 12.9306ZM54.5595 34.3966H58.7934V11.4403H54.5595V34.3966ZM51.774 17.9988V34.3965H47.5417V32.1301C46.3566 33.7994 44.7571 34.7529 42.5072 34.7529C38.9261 34.7529 36.7061 32.279 36.7061 28.2839V17.9988H40.9384V27.3589C40.9384 29.5058 41.7382 30.6992 43.9282 30.6992C46.2678 30.6992 47.5417 29.2975 47.5417 26.6138V17.9988H51.774ZM29.8338 26.1972C29.8338 23.5143 28.0274 21.6953 25.6596 21.6953C23.291 21.6953 21.5444 23.5143 21.5444 26.1972C21.5444 28.9103 23.3201 30.6992 25.6596 30.6992C28.0274 30.6992 29.8338 28.9103 29.8338 26.1972ZM34.0677 17.9988L34.0378 34.3966H29.8039V32.1903C28.6793 33.7392 26.9918 34.7529 24.7112 34.7529C20.4498 34.7529 17.2814 31.2353 17.2814 26.1973C17.2814 21.1291 20.508 17.6408 24.6821 17.6408C26.9918 17.6408 28.7084 18.7138 29.8338 20.2945V17.9988H34.0677ZM18.9472 13.5269L12.1088 34.3965H6.77944L0 13.5269H4.47062L9.44453 29.3569L14.4774 13.5269H18.9472Z" fill="#144B5A"/>
<path fill-rule="evenodd" clip-rule="evenodd" d="M110.66 15.6145C108.724 17.5494 105.586 17.5494 103.65 15.6145C101.715 13.6787 101.715 10.541 103.65 8.60527C105.586 6.67032 108.724 6.67032 110.66 8.60527C112.595 10.541 112.595 13.6787 110.66 15.6145ZM119.318 10.0339H115.48C115.112 8.58658 114.37 7.21399 113.237 6.08195C112.104 4.94911 110.732 4.20715 109.285 3.83901V0H105.025V3.83901C103.578 4.20715 102.206 4.94911 101.073 6.08195C99.9404 7.21399 99.1984 8.58658 98.8303 10.0339H94.9911V14.2931H98.8303C99.1984 15.7396 99.9404 17.1122 101.073 18.2451C102.206 19.3779 103.578 20.119 105.025 20.488V24.327H109.285V20.488C110.732 20.119 112.104 19.3779 113.237 18.2451C114.37 17.1122 115.112 15.7396 115.48 14.2931H119.318V10.0339ZM119.318 2.50137C119.318 3.96091 118.217 5.03281 116.668 5.03281C115.179 5.03281 114.017 3.96091 114.017 2.50137C114.017 1.04183 115.179 0 116.668 0C118.217 0 119.318 1.04183 119.318 2.50137Z" fill="#F56446"/>
</svg>
