<svg width="133" height="126" viewBox="0 0 133 126" fill="none" xmlns="http://www.w3.org/2000/svg">
<g clip-path="url(#clip0_5367_969)">
<path d="M31.4492 40.7722L65.5374 7.43555L97.4771 40.5921" stroke="#130C49" stroke-width="1.29293" stroke-miterlimit="10"/>
<path d="M17.3477 64.0623L32.7082 40.7715L46.1847 64.0623" stroke="#130C49" stroke-width="1.29293" stroke-miterlimit="10"/>
<path d="M16.344 76.2995C19.6493 76.2995 22.3287 73.6231 22.3287 70.3216C22.3287 67.0201 19.6493 64.3438 16.344 64.3438C13.0388 64.3438 10.3594 67.0201 10.3594 70.3216C10.3594 73.6231 13.0388 76.2995 16.344 76.2995Z" fill="#61BD73" stroke="#130C49" stroke-width="1.29293" stroke-miterlimit="10"/>
<path d="M47.6409 76.2995C50.9462 76.2995 53.6256 73.6231 53.6256 70.3216C53.6256 67.0201 50.9462 64.3438 47.6409 64.3438C44.3357 64.3438 41.6562 67.0201 41.6562 70.3216C41.6562 73.6231 44.3357 76.2995 47.6409 76.2995Z" fill="#61BD73" stroke="#130C49" stroke-width="1.29293" stroke-miterlimit="10"/>
<path d="M82.1562 64.0623L97.5168 40.7715L110.989 64.0623" stroke="#130C49" stroke-width="1.29293" stroke-miterlimit="10"/>
<path d="M81.1487 76.2995C84.454 76.2995 87.1334 73.6231 87.1334 70.3216C87.1334 67.0201 84.454 64.3438 81.1487 64.3438C77.8435 64.3438 75.1641 67.0201 75.1641 70.3216C75.1641 73.6231 77.8435 76.2995 81.1487 76.2995Z" fill="#61BD73" stroke="#130C49" stroke-width="1.29293" stroke-miterlimit="10"/>
<path d="M112.446 76.2995C115.751 76.2995 118.43 73.6231 118.43 70.3216C118.43 67.0201 115.751 64.3438 112.446 64.3438C109.14 64.3438 106.461 67.0201 106.461 70.3216C106.461 73.6231 109.14 76.2995 112.446 76.2995Z" fill="#61BD73" stroke="#130C49" stroke-width="1.29293" stroke-miterlimit="10"/>
<path d="M32.7308 47.8034C36.036 47.8034 38.7154 45.127 38.7154 41.8255C38.7154 38.524 36.036 35.8477 32.7308 35.8477C29.4255 35.8477 26.7461 38.524 26.7461 41.8255C26.7461 45.127 29.4255 47.8034 32.7308 47.8034Z" fill="#BCF0A7" stroke="#130C49" stroke-width="1.29293" stroke-miterlimit="10"/>
<path d="M97.6839 47.8034C100.989 47.8034 103.669 45.127 103.669 41.8255C103.669 38.524 100.989 35.8477 97.6839 35.8477C94.3786 35.8477 91.6992 38.524 91.6992 41.8255C91.6992 45.127 94.3786 47.8034 97.6839 47.8034Z" fill="#BCF0A7" stroke="#130C49" stroke-width="1.29293" stroke-miterlimit="10"/>
<path d="M65.9339 13.4342C69.2391 13.4342 71.9186 10.7579 71.9186 7.45638C71.9186 4.1549 69.2391 1.47852 65.9339 1.47852C62.6286 1.47852 59.9492 4.1549 59.9492 7.45638C59.9492 10.7579 62.6286 13.4342 65.9339 13.4342Z" fill="#7AD6EB" stroke="#130C49" stroke-width="1.29293" stroke-miterlimit="10"/>
<path d="M16.3438 76.2988V89.9842" stroke="#130C49" stroke-width="1.29293" stroke-miterlimit="10"/>
<path d="M14.7031 88.659L14.9957 88.3867L16.3426 89.8321L17.6894 88.3867L17.9821 88.659L16.3426 90.4207L14.7031 88.659Z" fill="#130C49"/>
<path d="M47.8789 76.2988V89.9842" stroke="#130C49" stroke-width="1.29293" stroke-miterlimit="10"/>
<path d="M46.2383 88.659L46.5309 88.3867L47.8778 89.8321L49.2246 88.3867L49.5172 88.659L47.8778 90.4207L46.2383 88.659Z" fill="#130C49"/>
<path d="M80.9688 76.2988V89.9842" stroke="#130C49" stroke-width="1.29293" stroke-miterlimit="10"/>
<path d="M79.3281 88.659L79.6247 88.3867L80.9676 89.8321L82.3144 88.3867L82.6071 88.659L80.9676 90.4207L79.3281 88.659Z" fill="#130C49"/>
<path d="M112.504 76.4805V90.1699" stroke="#130C49" stroke-width="1.29293" stroke-miterlimit="10"/>
<path d="M110.863 88.8387L111.156 88.5664L112.503 90.0118L113.85 88.5664L114.142 88.8387L112.503 90.6004L110.863 88.8387Z" fill="#130C49"/>
<path d="M132.281 90.7344H1.64844V124.548H132.281V90.7344Z" stroke="#130C49" stroke-width="1.29293" stroke-miterlimit="10"/>
<path d="M34.2344 90.7656V124.11" stroke="#130C49" stroke-width="1.29293" stroke-miterlimit="10"/>
<path d="M66.7812 90.7656V124.11" stroke="#130C49" stroke-width="1.29293" stroke-miterlimit="10"/>
<path d="M99.3359 90.7656V124.11" stroke="#130C49" stroke-width="1.29293" stroke-miterlimit="10"/>
<path d="M86.1788 114.091C87.2591 114.091 88.1349 113.217 88.1349 112.138C88.1349 111.058 87.2591 110.184 86.1788 110.184C85.0985 110.184 84.2227 111.058 84.2227 112.138C84.2227 113.217 85.0985 114.091 86.1788 114.091Z" fill="#130C49"/>
<path d="M91.4327 120.287C92.5131 120.287 93.3889 119.412 93.3889 118.333C93.3889 117.254 92.5131 116.379 91.4327 116.379C90.3524 116.379 89.4766 117.254 89.4766 118.333C89.4766 119.412 90.3524 120.287 91.4327 120.287Z" stroke="#130C49" stroke-width="0.646467" stroke-miterlimit="10"/>
<path d="M94.3272 109.767C95.4076 109.767 96.2834 108.892 96.2834 107.813C96.2834 106.734 95.4076 105.859 94.3272 105.859C93.2469 105.859 92.3711 106.734 92.3711 107.813C92.3711 108.892 93.2469 109.767 94.3272 109.767Z" stroke="#130C49" stroke-width="0.646467" stroke-miterlimit="10"/>
<path d="M90.9093 102.252C91.9896 102.252 92.8654 101.377 92.8654 100.298C92.8654 99.2185 91.9896 98.3438 90.9093 98.3438C89.8289 98.3438 88.9531 99.2185 88.9531 100.298C88.9531 101.377 89.8289 102.252 90.9093 102.252Z" stroke="#130C49" stroke-width="0.646467" stroke-miterlimit="10"/>
<path d="M83.3819 98.3375C84.4623 98.3375 85.3381 97.4627 85.3381 96.3836C85.3381 95.3045 84.4623 94.4297 83.3819 94.4297C82.3016 94.4297 81.4258 95.3045 81.4258 96.3836C81.4258 97.4627 82.3016 98.3375 83.3819 98.3375Z" stroke="#130C49" stroke-width="0.646467" stroke-miterlimit="10"/>
<path d="M74.2061 99.6051C75.2865 99.6051 76.1623 98.7303 76.1623 97.6512C76.1623 96.5721 75.2865 95.6973 74.2061 95.6973C73.1258 95.6973 72.25 96.5721 72.25 97.6512C72.25 98.7303 73.1258 99.6051 74.2061 99.6051Z" stroke="#130C49" stroke-width="0.646467" stroke-miterlimit="10"/>
<path d="M72.6796 118.74C73.6936 118.74 74.5155 117.919 74.5155 116.906C74.5155 115.893 73.6936 115.072 72.6796 115.072C71.6657 115.072 70.8438 115.893 70.8438 116.906C70.8438 117.919 71.6657 118.74 72.6796 118.74Z" stroke="#130C49" stroke-width="0.646467" stroke-miterlimit="10"/>
<path d="M77.9296 112.912C78.9436 112.912 79.7655 112.091 79.7655 111.078C79.7655 110.065 78.9436 109.244 77.9296 109.244C76.9157 109.244 76.0938 110.065 76.0938 111.078C76.0938 112.091 76.9157 112.912 77.9296 112.912Z" stroke="#130C49" stroke-width="0.646467" stroke-miterlimit="10"/>
<path d="M73.6604 102.412L74.6585 104.142L75.6606 105.871H73.6604H71.6602L72.6623 104.142L73.6604 102.412Z" stroke="#130C49" stroke-width="0.646467" stroke-miterlimit="10"/>
<path d="M80.8674 117.295L81.8655 119.025L82.8677 120.754H80.8674H78.8672L79.8653 119.025L80.8674 117.295Z" stroke="#130C49" stroke-width="0.646467" stroke-miterlimit="10"/>
<path d="M83.2784 102.08L83.9077 103.353L85.3107 103.558L84.2925 104.546L84.533 105.944L83.2784 105.283L82.0197 105.944L82.2602 104.546L81.2461 103.558L82.6491 103.353L83.2784 102.08Z" stroke="#130C49" stroke-width="0.646467" stroke-miterlimit="10"/>
<path d="M45.1007 104.402C46.181 104.402 47.0568 103.527 47.0568 102.448C47.0568 101.369 46.181 100.494 45.1007 100.494C44.0203 100.494 43.1445 101.369 43.1445 102.448C43.1445 103.527 44.0203 104.402 45.1007 104.402Z" fill="#130C49"/>
<path d="M40.1866 109.472C41.267 109.472 42.1428 108.597 42.1428 107.518C42.1428 106.439 41.267 105.564 40.1866 105.564C39.1063 105.564 38.2305 106.439 38.2305 107.518C38.2305 108.597 39.1063 109.472 40.1866 109.472Z" fill="#130C49"/>
<path d="M50.9718 119.578C52.0521 119.578 52.9279 118.703 52.9279 117.624C52.9279 116.545 52.0521 115.67 50.9718 115.67C49.8914 115.67 49.0156 116.545 49.0156 117.624C49.0156 118.703 49.8914 119.578 50.9718 119.578Z" fill="#130C49"/>
<path d="M55.6515 114.601C56.7318 114.601 57.6076 113.726 57.6076 112.647C57.6076 111.568 56.7318 110.693 55.6515 110.693C54.5711 110.693 53.6953 111.568 53.6953 112.647C53.6953 113.726 54.5711 114.601 55.6515 114.601Z" fill="#130C49"/>
<path d="M58.3194 120.699C59.3998 120.699 60.2756 119.824 60.2756 118.745C60.2756 117.666 59.3998 116.791 58.3194 116.791C57.2391 116.791 56.3633 117.666 56.3633 118.745C56.3633 119.824 57.2391 120.699 58.3194 120.699Z" stroke="#130C49" stroke-width="0.646467" stroke-miterlimit="10"/>
<path d="M40.8194 120.13C41.8998 120.13 42.7756 119.256 42.7756 118.177C42.7756 117.097 41.8998 116.223 40.8194 116.223C39.7391 116.223 38.8633 117.097 38.8633 118.177C38.8633 119.256 39.7391 120.13 40.8194 120.13Z" stroke="#130C49" stroke-width="0.646467" stroke-miterlimit="10"/>
<path d="M40.5822 95.0332L41.5843 96.7629L42.5824 98.4926H40.5822H38.5859L39.5841 96.7629L40.5822 95.0332Z" stroke="#130C49" stroke-width="0.646467" stroke-miterlimit="10"/>
<path d="M45.719 109.637L46.7211 111.366L47.7192 113.096H45.719H43.7188L44.7209 111.366L45.719 109.637Z" stroke="#130C49" stroke-width="0.646467" stroke-miterlimit="10"/>
<path d="M52.1057 104.242L53.1038 105.972L54.1059 107.702H52.1057H50.1055L51.1076 105.972L52.1057 104.242Z" stroke="#130C49" stroke-width="0.646467" stroke-miterlimit="10"/>
<path d="M59.3565 98.4922L59.9859 99.7614L61.3888 99.9656L60.3747 100.959L60.6152 102.356L59.3565 101.695L58.1019 102.356L58.3424 100.959L57.3242 99.9656L58.7272 99.7614L59.3565 98.4922Z" stroke="#130C49" stroke-width="0.646467" stroke-miterlimit="10"/>
<path d="M61.2472 105.717L61.8725 106.986L63.2795 107.19L62.2613 108.179L62.5018 109.577L61.2472 108.92L59.9885 109.577L60.229 108.179L59.2148 107.19L60.6178 106.986L61.2472 105.717Z" stroke="#130C49" stroke-width="0.646467" stroke-miterlimit="10"/>
<path d="M52.3526 95.2656L52.982 96.5389L54.3849 96.7431L53.3668 97.732L53.6073 99.1294L52.3526 98.4688L51.094 99.1294L51.3345 97.732L50.3203 96.7431L51.7233 96.5389L52.3526 95.2656Z" stroke="#130C49" stroke-width="0.646467" stroke-miterlimit="10"/>
<path d="M11.2843 101.088C12.3646 101.088 13.2404 100.213 13.2404 99.1336C13.2404 98.0545 12.3646 97.1797 11.2843 97.1797C10.2039 97.1797 9.32812 98.0545 9.32812 99.1336C9.32812 100.213 10.2039 101.088 11.2843 101.088Z" fill="#130C49"/>
<path d="M19.6554 99.2067C20.7357 99.2067 21.6115 98.3319 21.6115 97.2527C21.6115 96.1736 20.7357 95.2988 19.6554 95.2988C18.575 95.2988 17.6992 96.1736 17.6992 97.2527C17.6992 98.3319 18.575 99.2067 19.6554 99.2067Z" fill="#130C49"/>
<path d="M28.0225 99.2379C29.1029 99.2379 29.9787 98.3631 29.9787 97.284C29.9787 96.2049 29.1029 95.3301 28.0225 95.3301C26.9422 95.3301 26.0664 96.2049 26.0664 97.284C26.0664 98.3631 26.9422 99.2379 28.0225 99.2379Z" fill="#130C49"/>
<path d="M25.671 105.98C26.7513 105.98 27.6271 105.105 27.6271 104.026C27.6271 102.947 26.7513 102.072 25.671 102.072C24.5906 102.072 23.7148 102.947 23.7148 104.026C23.7148 105.105 24.5906 105.98 25.671 105.98Z" fill="#130C49"/>
<path d="M16.839 106.502C17.9193 106.502 18.7951 105.627 18.7951 104.548C18.7951 103.469 17.9193 102.594 16.839 102.594C15.7586 102.594 14.8828 103.469 14.8828 104.548C14.8828 105.627 15.7586 106.502 16.839 106.502Z" fill="#130C49"/>
<path d="M20.2022 112.875C21.2826 112.875 22.1584 112 22.1584 110.921C22.1584 109.842 21.2826 108.967 20.2022 108.967C19.1219 108.967 18.2461 109.842 18.2461 110.921C18.2461 112 19.1219 112.875 20.2022 112.875Z" fill="#130C49"/>
<path d="M23.6671 119.521C24.7474 119.521 25.6232 118.646 25.6232 117.567C25.6232 116.488 24.7474 115.613 23.6671 115.613C22.5867 115.613 21.7109 116.488 21.7109 117.567C21.7109 118.646 22.5867 119.521 23.6671 119.521Z" fill="#130C49"/>
<path d="M16.464 120.828C17.5443 120.828 18.4201 119.953 18.4201 118.874C18.4201 117.795 17.5443 116.92 16.464 116.92C15.3836 116.92 14.5078 117.795 14.5078 118.874C14.5078 119.953 15.3836 120.828 16.464 120.828Z" stroke="#130C49" stroke-width="0.646467" stroke-miterlimit="10"/>
<path d="M7.21004 118.591C8.29039 118.591 9.16619 117.717 9.16619 116.638C9.16619 115.558 8.29039 114.684 7.21004 114.684C6.1297 114.684 5.25391 115.558 5.25391 116.638C5.25391 117.717 6.1297 118.591 7.21004 118.591Z" fill="#130C49"/>
<path d="M13.3713 110.152L14.3694 111.882L15.3676 113.612H13.3713H11.3711L12.3692 111.882L13.3713 110.152Z" stroke="#130C49" stroke-width="0.646467" stroke-miterlimit="10"/>
<path d="M27.7776 109.395L28.7757 111.124L29.7778 112.854H27.7776H25.7773L26.7795 111.124L27.7776 109.395Z" stroke="#130C49" stroke-width="0.646467" stroke-miterlimit="10"/>
<path d="M8.48933 104.506L9.11867 105.779L10.5256 105.983L9.50749 106.972L9.748 108.37L8.48933 107.709L7.23468 108.37L7.47518 106.972L6.45703 105.983L7.86401 105.779L8.48933 104.506Z" stroke="#130C49" stroke-width="0.646467" stroke-miterlimit="10"/>
<path d="M121.21 108.63C122.29 108.63 123.166 107.756 123.166 106.677C123.166 105.597 122.29 104.723 121.21 104.723C120.13 104.723 119.254 105.597 119.254 106.677C119.254 107.756 120.13 108.63 121.21 108.63Z" fill="#130C49"/>
<path d="M118.765 100.816C119.845 100.816 120.721 99.9412 120.721 98.8621C120.721 97.783 119.845 96.9082 118.765 96.9082C117.684 96.9082 116.809 97.783 116.809 98.8621C116.809 99.9412 117.684 100.816 118.765 100.816Z" stroke="#130C49" stroke-width="0.646467" stroke-miterlimit="10"/>
<path d="M126.691 113.384C127.771 113.384 128.647 112.51 128.647 111.43C128.647 110.351 127.771 109.477 126.691 109.477C125.61 109.477 124.734 110.351 124.734 111.43C124.734 112.51 125.61 113.384 126.691 113.384Z" stroke="#130C49" stroke-width="0.646467" stroke-miterlimit="10"/>
<path d="M105.067 117.127L106.065 118.857L107.067 120.586H105.067H103.066L104.065 118.857L105.067 117.127Z" stroke="#130C49" stroke-width="0.646467" stroke-miterlimit="10"/>
<path d="M115.039 117.195L116.037 118.925L117.036 120.655H115.039H113.039L114.037 118.925L115.039 117.195Z" stroke="#130C49" stroke-width="0.646467" stroke-miterlimit="10"/>
<path d="M124.649 116.77L125.651 118.499L126.649 120.229H124.649H122.648L123.651 118.499L124.649 116.77Z" stroke="#130C49" stroke-width="0.646467" stroke-miterlimit="10"/>
<path d="M116.488 109.111L117.491 110.841L118.489 112.571H116.488H114.492L115.49 110.841L116.488 109.111Z" stroke="#130C49" stroke-width="0.646467" stroke-miterlimit="10"/>
<path d="M126.864 98.502L127.862 100.232L128.864 101.961H126.864H124.863L125.861 100.232L126.864 98.502Z" stroke="#130C49" stroke-width="0.646467" stroke-miterlimit="10"/>
<path d="M112.383 99.9746L113.381 101.704L114.379 103.434H112.383H110.383L111.381 101.704L112.383 99.9746Z" stroke="#130C49" stroke-width="0.646467" stroke-miterlimit="10"/>
<path d="M105.34 104.652L106.342 106.382L107.34 108.112H105.34H103.34L104.342 106.382L105.34 104.652Z" stroke="#130C49" stroke-width="0.646467" stroke-miterlimit="10"/>
<path d="M105.087 95.4336L105.716 96.7069L107.119 96.911L106.105 97.9L106.346 99.2974L105.087 98.6367L103.832 99.2974L104.073 97.9L103.055 96.911L104.462 96.7069L105.087 95.4336Z" stroke="#130C49" stroke-width="0.646467" stroke-miterlimit="10"/>
<path d="M108.806 111.113L109.435 112.383L110.838 112.587L109.824 113.576L110.064 114.973L108.806 114.316L107.551 114.973L107.792 113.576L106.773 112.587L108.176 112.383L108.806 111.113Z" stroke="#130C49" stroke-width="0.646467" stroke-miterlimit="10"/>
</g>
<defs>
<clipPath id="clip0_5367_969">
<rect width="131.879" height="124.122" fill="white" transform="translate(0.894531 0.945312)"/>
</clipPath>
</defs>
</svg>
