<svg width="320" height="241" viewBox="0 0 320 241" fill="none" xmlns="http://www.w3.org/2000/svg">
<path d="M150.976 40.0098L59.9863 91.4848" stroke="#262262" stroke-width="0.125" stroke-miterlimit="10"/>
<path d="M150.736 66.2646L60.0156 118.43" stroke="#262262" stroke-width="0.125" stroke-miterlimit="10"/>
<path d="M150.72 92.75L59.7305 144.225" stroke="#262262" stroke-width="0.125" stroke-miterlimit="10"/>
<path d="M83.2559 50.2051V156.79" stroke="#262262" stroke-width="0.125" stroke-miterlimit="10"/>
<path d="M105.89 38.5801L105.445 144.34" stroke="#262262" stroke-width="0.125" stroke-miterlimit="10"/>
<path d="M128.275 24.9648L128.49 131.195" stroke="#262262" stroke-width="0.125" stroke-miterlimit="10"/>
<path d="M150.971 40.1299L241.961 91.6049" stroke="#262262" stroke-width="0.125" stroke-miterlimit="10"/>
<path d="M150.736 66.2646L242.016 118.61" stroke="#262262" stroke-width="0.125" stroke-miterlimit="10"/>
<path d="M150.721 92.8691L241.711 144.344" stroke="#262262" stroke-width="0.125" stroke-miterlimit="10"/>
<path d="M218.691 50.3242V157.354" stroke="#262262" stroke-width="0.125" stroke-miterlimit="10"/>
<path d="M196.061 38.7051V144.81" stroke="#262262" stroke-width="0.125" stroke-miterlimit="10"/>
<path d="M173.01 25.085V131.19" stroke="#262262" stroke-width="0.125" stroke-miterlimit="10"/>
<path d="M128.266 131.07L217.346 182.295" stroke="#262262" stroke-width="0.125" stroke-miterlimit="10"/>
<path d="M105.375 144.545L196.315 196.585" stroke="#262262" stroke-width="0.125" stroke-miterlimit="10"/>
<path d="M83.2559 156.609L174.996 210.104" stroke="#262262" stroke-width="0.125" stroke-miterlimit="10"/>
<path d="M173.381 131.439L83.2559 183.299" stroke="#262262" stroke-width="0.125" stroke-miterlimit="10"/>
<path d="M196.06 144.5L104.955 196.92" stroke="#262262" stroke-width="0.125" stroke-miterlimit="10"/>
<path d="M218.69 157.355L127.59 209.115" stroke="#262262" stroke-width="0.125" stroke-miterlimit="10"/>
<path d="M150.73 24.0391L150.52 109.634" stroke="#130C49" stroke-width="0.375" stroke-miterlimit="10"/>
<path d="M149.195 25.2798L149.47 25.5348L150.73 24.1848L151.985 25.5398L152.26 25.2848L150.73 23.6348L149.195 25.2798Z" fill="#130C49"/>
<path d="M75.9012 74.339H76.7873V74.6379H76.2857V77.8562H76.7873V78.1551H75.9012V74.339ZM78.5908 74.6337C78.9238 74.6337 79.1753 74.7695 79.3453 75.0412C79.5166 75.3129 79.6023 75.7148 79.6023 76.2471C79.6023 76.7793 79.5166 77.1812 79.3453 77.4529C79.1753 77.7246 78.9238 77.8604 78.5908 77.8604C78.2578 77.8604 78.0064 77.7246 77.8364 77.4529C77.6664 77.1812 77.5814 76.7793 77.5814 76.2471C77.5814 75.7148 77.6664 75.3129 77.8364 75.0412C78.0064 74.7695 78.2578 74.6337 78.5908 74.6337ZM78.5908 77.526C78.7887 77.526 78.9356 77.4208 79.0318 77.2105C79.1293 77.0001 79.1781 76.679 79.1781 76.2471C79.1781 76.0172 79.1641 75.8096 79.1363 75.6243L78.1415 77.1812C78.246 77.4111 78.3958 77.526 78.5908 77.526ZM78.5908 74.9681C78.3944 74.9681 78.2474 75.0733 78.1499 75.2836C78.0537 75.494 78.0057 75.8151 78.0057 76.2471C78.0057 76.4435 78.0189 76.6274 78.0454 76.7988L79.0192 75.246C78.9134 75.0607 78.7705 74.9681 78.5908 74.9681ZM80.6953 76.9555H81.4309V77.7998H80.6953V76.9555ZM84.0829 76.13C84.2877 76.1844 84.4445 76.2812 84.5531 76.4205C84.6618 76.5584 84.7162 76.7312 84.7162 76.9388C84.7162 77.2258 84.6193 77.4515 84.4257 77.6159C84.2334 77.7789 83.9666 77.8604 83.6253 77.8604C83.4818 77.8604 83.3355 77.8472 83.1864 77.8207C83.0373 77.7942 82.891 77.7559 82.7475 77.7058V77.2857C82.8896 77.3595 83.0296 77.4146 83.1676 77.4508C83.3055 77.487 83.4427 77.5051 83.5793 77.5051C83.8106 77.5051 83.9882 77.4529 84.1122 77.3484C84.2362 77.2439 84.2982 77.0934 84.2982 76.897C84.2982 76.7159 84.2362 76.5724 84.1122 76.4665C83.9882 76.3592 83.8203 76.3056 83.6085 76.3056H83.2867V75.9587H83.6085C83.8022 75.9587 83.9534 75.9162 84.062 75.8312C84.1707 75.7462 84.225 75.6278 84.225 75.4759C84.225 75.3157 84.1742 75.1931 84.0725 75.1081C83.9722 75.0217 83.8287 74.9785 83.642 74.9785C83.518 74.9785 83.3898 74.9924 83.2574 75.0203C83.1251 75.0482 82.9865 75.09 82.8416 75.1457V74.757C83.0101 74.7124 83.1599 74.679 83.2909 74.6567C83.4232 74.6344 83.5403 74.6232 83.642 74.6232C83.9457 74.6232 84.1881 74.6999 84.3692 74.8531C84.5518 75.005 84.643 75.207 84.643 75.4592C84.643 75.6305 84.5949 75.7734 84.4988 75.8876C84.4041 76.0018 84.2654 76.0826 84.0829 76.13ZM86.5761 75.0642L85.5918 76.7131H86.5761V75.0642ZM86.5071 74.6797H86.9962V76.7131H87.4121V77.0558H86.9962V77.7998H86.5761V77.0558H85.2532V76.6567L86.5071 74.6797ZM88.5427 77.0454H89.1947V77.5992L88.7307 78.4999L88.3128 78.502L88.5427 77.5992V77.0454ZM90.9773 77.4445H92.411V77.7998H90.5155V77.4445C90.776 77.1701 91.0038 76.9276 91.1988 76.7173C91.3939 76.5069 91.5283 76.3585 91.6022 76.2721C91.7415 76.1022 91.8356 75.9649 91.8843 75.8604C91.9331 75.7545 91.9575 75.6466 91.9575 75.5365C91.9575 75.3624 91.9059 75.2258 91.8028 75.1269C91.7011 75.028 91.5611 74.9785 91.3828 74.9785C91.256 74.9785 91.1229 75.0015 90.9836 75.0475C90.8443 75.0935 90.6966 75.1631 90.5405 75.2565V74.8301C90.6841 74.7619 90.8248 74.7103 90.9627 74.6755C91.102 74.6407 91.2393 74.6232 91.3744 74.6232C91.6795 74.6232 91.9247 74.7047 92.11 74.8678C92.2967 75.0294 92.3901 75.2418 92.3901 75.5052C92.3901 75.6389 92.3587 75.7727 92.296 75.9064C92.2347 76.0402 92.1344 76.1878 91.9951 76.3495C91.9171 76.44 91.8035 76.5654 91.6544 76.7256C91.5068 76.8858 91.281 77.1255 90.9773 77.4445ZM93.5896 76.9555H94.3253V77.7998H93.5896V76.9555ZM96.9773 76.13C97.1821 76.1844 97.3388 76.2812 97.4475 76.4205C97.5562 76.5584 97.6105 76.7312 97.6105 76.9388C97.6105 77.2258 97.5137 77.4515 97.32 77.6159C97.1277 77.7789 96.8609 77.8604 96.5196 77.8604C96.3761 77.8604 96.2298 77.8472 96.0807 77.8207C95.9316 77.7942 95.7854 77.7559 95.6419 77.7058V77.2857C95.784 77.3595 95.924 77.4146 96.0619 77.4508C96.1998 77.487 96.3371 77.5051 96.4736 77.5051C96.7049 77.5051 96.8825 77.4529 97.0065 77.3484C97.1305 77.2439 97.1925 77.0934 97.1925 76.897C97.1925 76.7159 97.1305 76.5724 97.0065 76.4665C96.8825 76.3592 96.7146 76.3056 96.5029 76.3056H96.181V75.9587H96.5029C96.6965 75.9587 96.8477 75.9162 96.9564 75.8312C97.065 75.7462 97.1194 75.6278 97.1194 75.4759C97.1194 75.3157 97.0685 75.1931 96.9668 75.1081C96.8665 75.0217 96.723 74.9785 96.5363 74.9785C96.4123 74.9785 96.2841 74.9924 96.1518 75.0203C96.0194 75.0482 95.8808 75.09 95.7359 75.1457V74.757C95.9045 74.7124 96.0543 74.679 96.1852 74.6567C96.3176 74.6344 96.4346 74.6232 96.5363 74.6232C96.84 74.6232 97.0825 74.6999 97.2636 74.8531C97.4461 75.005 97.5373 75.207 97.5373 75.4592C97.5373 75.6305 97.4893 75.7734 97.3931 75.8876C97.2984 76.0018 97.1598 76.0826 96.9773 76.13ZM98.367 74.6797H99.9469V75.0349H98.7515V75.8019C98.8115 75.7796 98.8714 75.7636 98.9313 75.7538C98.9926 75.7427 99.0539 75.7371 99.1152 75.7371C99.4384 75.7371 99.6948 75.8326 99.8842 76.0234C100.074 76.2143 100.168 76.4728 100.168 76.7988C100.168 77.1276 100.069 77.3867 99.8696 77.5762C99.6718 77.7657 99.4008 77.8604 99.0567 77.8604C98.8909 77.8604 98.739 77.8493 98.6011 77.827C98.4645 77.8047 98.3419 77.7712 98.2333 77.7267V77.2982C98.3614 77.3679 98.4903 77.4201 98.6199 77.455C98.7495 77.4884 98.8818 77.5051 99.017 77.5051C99.2496 77.5051 99.4287 77.4438 99.554 77.3212C99.6808 77.1986 99.7442 77.0245 99.7442 76.7988C99.7442 76.5759 99.6787 76.4024 99.5478 76.2784C99.4182 76.1544 99.2371 76.0924 99.0044 76.0924C98.8916 76.0924 98.7815 76.1056 98.6742 76.1321C98.5669 76.1572 98.4645 76.1955 98.367 76.2471V74.6797ZM102.018 74.339V78.1551H101.132V77.8562H101.633V74.6379H101.132V74.339H102.018Z" fill="#130C49"/>
<path d="M176.593 44.5149H177.16V44.7062H176.839V46.7666H177.16V46.9579H176.593V44.5149ZM178.315 44.7036C178.528 44.7036 178.689 44.7905 178.798 44.9645C178.908 45.1384 178.962 45.3957 178.962 45.7364C178.962 46.0771 178.908 46.3345 178.798 46.5084C178.689 46.6823 178.528 46.7693 178.315 46.7693C178.102 46.7693 177.941 46.6823 177.832 46.5084C177.723 46.3345 177.669 46.0771 177.669 45.7364C177.669 45.3957 177.723 45.1384 177.832 44.9645C177.941 44.7905 178.102 44.7036 178.315 44.7036ZM178.315 46.5552C178.442 46.5552 178.536 46.4879 178.597 46.3532C178.66 46.2185 178.691 46.0129 178.691 45.7364C178.691 45.5892 178.682 45.4564 178.664 45.3377L178.027 46.3345C178.094 46.4816 178.19 46.5552 178.315 46.5552ZM178.315 44.9176C178.189 44.9176 178.095 44.985 178.033 45.1196C177.971 45.2543 177.94 45.4599 177.94 45.7364C177.94 45.8622 177.949 45.9799 177.966 46.0896L178.589 45.0956C178.521 44.9769 178.43 44.9176 178.315 44.9176ZM179.662 46.19H180.133V46.7305H179.662V46.19ZM181.831 45.6615C181.962 45.6963 182.062 45.7583 182.132 45.8475C182.202 45.9358 182.236 46.0464 182.236 46.1793C182.236 46.363 182.174 46.5075 182.05 46.6127C181.927 46.7171 181.756 46.7693 181.538 46.7693C181.446 46.7693 181.352 46.7608 181.257 46.7438C181.162 46.7269 181.068 46.7024 180.976 46.6703V46.4013C181.067 46.4486 181.157 46.4839 181.245 46.507C181.333 46.5302 181.421 46.5418 181.508 46.5418C181.657 46.5418 181.77 46.5084 181.85 46.4415C181.929 46.3746 181.969 46.2783 181.969 46.1525C181.969 46.0365 181.929 45.9447 181.85 45.8769C181.77 45.8082 181.663 45.7739 181.527 45.7739H181.321V45.5518H181.527C181.651 45.5518 181.748 45.5246 181.818 45.4702C181.887 45.4158 181.922 45.34 181.922 45.2427C181.922 45.1402 181.889 45.0617 181.824 45.0073C181.76 44.952 181.668 44.9243 181.549 44.9243C181.469 44.9243 181.387 44.9332 181.302 44.9511C181.218 44.9689 181.129 44.9957 181.036 45.0313V44.7825C181.144 44.754 181.24 44.7326 181.324 44.7183C181.409 44.704 181.484 44.6969 181.549 44.6969C181.743 44.6969 181.898 44.7459 182.014 44.844C182.131 44.9413 182.189 45.0706 182.189 45.232C182.189 45.3417 182.159 45.4332 182.097 45.5063C182.037 45.5794 181.948 45.6312 181.831 45.6615ZM183.427 44.9792L182.797 46.0348H183.427V44.9792ZM183.383 44.733H183.696V46.0348H183.962V46.2542H183.696V46.7305H183.427V46.2542H182.58V45.9986L183.383 44.733ZM184.686 46.2475H185.103V46.602L184.806 47.1787L184.539 47.18L184.686 46.602V46.2475ZM186.245 46.503H187.162V46.7305H185.949V46.503C186.116 46.3273 186.262 46.1721 186.386 46.0374C186.511 45.9028 186.597 45.8078 186.645 45.7525C186.734 45.6437 186.794 45.5558 186.825 45.4889C186.856 45.4211 186.872 45.352 186.872 45.2815C186.872 45.17 186.839 45.0826 186.773 45.0193C186.708 44.956 186.618 44.9243 186.504 44.9243C186.423 44.9243 186.338 44.939 186.249 44.9685C186.159 44.9979 186.065 45.0425 185.965 45.1023V44.8293C186.057 44.7856 186.147 44.7526 186.235 44.7303C186.324 44.708 186.412 44.6969 186.499 44.6969C186.694 44.6969 186.851 44.7491 186.97 44.8534C187.089 44.9569 187.149 45.0929 187.149 45.2615C187.149 45.3471 187.129 45.4327 187.089 45.5183C187.05 45.604 186.985 45.6985 186.896 45.802C186.846 45.8599 186.774 45.9402 186.678 46.0428C186.584 46.1454 186.439 46.2988 186.245 46.503ZM187.917 46.19H188.388V46.7305H187.917V46.19ZM190.086 45.6615C190.217 45.6963 190.317 45.7583 190.387 45.8475C190.456 45.9358 190.491 46.0464 190.491 46.1793C190.491 46.363 190.429 46.5075 190.305 46.6127C190.182 46.7171 190.011 46.7693 189.793 46.7693C189.701 46.7693 189.607 46.7608 189.512 46.7438C189.416 46.7269 189.323 46.7024 189.231 46.6703V46.4013C189.322 46.4486 189.411 46.4839 189.5 46.507C189.588 46.5302 189.676 46.5418 189.763 46.5418C189.911 46.5418 190.025 46.5084 190.104 46.4415C190.184 46.3746 190.224 46.2783 190.224 46.1525C190.224 46.0365 190.184 45.9447 190.104 45.8769C190.025 45.8082 189.918 45.7739 189.782 45.7739H189.576V45.5518H189.782C189.906 45.5518 190.003 45.5246 190.072 45.4702C190.142 45.4158 190.177 45.34 190.177 45.2427C190.177 45.1402 190.144 45.0617 190.079 45.0073C190.015 44.952 189.923 44.9243 189.803 44.9243C189.724 44.9243 189.642 44.9332 189.557 44.9511C189.473 44.9689 189.384 44.9957 189.291 45.0313V44.7825C189.399 44.754 189.495 44.7326 189.579 44.7183C189.663 44.704 189.738 44.6969 189.803 44.6969C189.998 44.6969 190.153 44.7459 190.269 44.844C190.386 44.9413 190.444 45.0706 190.444 45.232C190.444 45.3417 190.413 45.4332 190.352 45.5063C190.291 45.5794 190.203 45.6312 190.086 45.6615ZM190.975 44.733H191.987V44.9604H191.222V45.4514C191.26 45.4372 191.298 45.4269 191.337 45.4207C191.376 45.4135 191.415 45.41 191.454 45.41C191.661 45.41 191.825 45.4711 191.947 45.5933C192.068 45.7155 192.129 45.8809 192.129 46.0896C192.129 46.3001 192.065 46.466 191.937 46.5873C191.811 46.7086 191.637 46.7693 191.417 46.7693C191.311 46.7693 191.214 46.7621 191.125 46.7479C191.038 46.7336 190.959 46.7122 190.89 46.6836V46.4094C190.972 46.454 191.054 46.4874 191.137 46.5097C191.22 46.5311 191.305 46.5418 191.391 46.5418C191.54 46.5418 191.655 46.5026 191.735 46.4241C191.816 46.3456 191.857 46.2341 191.857 46.0896C191.857 45.9469 191.815 45.8359 191.731 45.7565C191.648 45.6771 191.532 45.6374 191.383 45.6374C191.311 45.6374 191.241 45.6459 191.172 45.6628C191.103 45.6789 191.038 45.7034 190.975 45.7364V44.733ZM192.941 46.2475H193.358V46.602L193.061 47.1787L192.794 47.18L192.941 46.602V46.2475ZM194.825 45.7819C194.704 45.7819 194.611 45.8158 194.545 45.8836C194.48 45.9505 194.447 46.0455 194.447 46.1686C194.447 46.2916 194.48 46.3875 194.546 46.4562C194.613 46.524 194.706 46.5579 194.825 46.5579C194.946 46.5579 195.039 46.5244 195.104 46.4575C195.17 46.3898 195.203 46.2934 195.203 46.1686C195.203 46.0464 195.17 45.9514 195.103 45.8836C195.037 45.8158 194.944 45.7819 194.825 45.7819ZM194.589 45.6695C194.474 45.6401 194.384 45.5852 194.319 45.505C194.255 45.4247 194.222 45.3279 194.222 45.2146C194.222 45.0559 194.276 44.9301 194.384 44.8374C194.492 44.7437 194.639 44.6969 194.825 44.6969C195.011 44.6969 195.158 44.7437 195.266 44.8374C195.374 44.9301 195.428 45.0559 195.428 45.2146C195.428 45.3279 195.395 45.4247 195.33 45.505C195.266 45.5852 195.176 45.6401 195.061 45.6695C195.195 45.699 195.297 45.7583 195.368 45.8475C195.439 45.9367 195.475 46.0522 195.475 46.194C195.475 46.3741 195.417 46.5151 195.302 46.6167C195.187 46.7184 195.028 46.7693 194.825 46.7693C194.621 46.7693 194.462 46.7189 194.347 46.6181C194.233 46.5164 194.176 46.3759 194.176 46.1967C194.176 46.0539 194.211 45.938 194.281 45.8488C194.353 45.7587 194.455 45.699 194.589 45.6695ZM194.491 45.2401C194.491 45.3471 194.52 45.4287 194.577 45.4849C194.634 45.5411 194.717 45.5692 194.825 45.5692C194.933 45.5692 195.016 45.5411 195.073 45.4849C195.13 45.4287 195.159 45.3471 195.159 45.2401C195.159 45.1312 195.13 45.0483 195.073 44.9912C195.017 44.9341 194.934 44.9056 194.825 44.9056C194.717 44.9056 194.634 44.9346 194.577 44.9925C194.52 45.0496 194.491 45.1321 194.491 45.2401ZM196.172 46.19H196.643V46.7305H196.172V46.19ZM198.34 45.6615C198.472 45.6963 198.572 45.7583 198.642 45.8475C198.711 45.9358 198.746 46.0464 198.746 46.1793C198.746 46.363 198.684 46.5075 198.56 46.6127C198.437 46.7171 198.266 46.7693 198.047 46.7693C197.956 46.7693 197.862 46.7608 197.767 46.7438C197.671 46.7269 197.577 46.7024 197.486 46.6703V46.4013C197.577 46.4486 197.666 46.4839 197.754 46.507C197.843 46.5302 197.931 46.5418 198.018 46.5418C198.166 46.5418 198.28 46.5084 198.359 46.4415C198.439 46.3746 198.478 46.2783 198.478 46.1525C198.478 46.0365 198.439 45.9447 198.359 45.8769C198.28 45.8082 198.172 45.7739 198.037 45.7739H197.831V45.5518H198.037C198.161 45.5518 198.258 45.5246 198.327 45.4702C198.397 45.4158 198.431 45.34 198.431 45.2427C198.431 45.1402 198.399 45.0617 198.334 45.0073C198.27 44.952 198.178 44.9243 198.058 44.9243C197.979 44.9243 197.897 44.9332 197.812 44.9511C197.727 44.9689 197.639 44.9957 197.546 45.0313V44.7825C197.654 44.754 197.75 44.7326 197.833 44.7183C197.918 44.704 197.993 44.6969 198.058 44.6969C198.253 44.6969 198.408 44.7459 198.524 44.844C198.641 44.9413 198.699 45.0706 198.699 45.232C198.699 45.3417 198.668 45.4332 198.607 45.5063C198.546 45.5794 198.457 45.6312 198.34 45.6615ZM199.937 44.9792L199.306 46.0348H199.937V44.9792ZM199.892 44.733H200.206V46.0348H200.472V46.2542H200.206V46.7305H199.937V46.2542H199.09V45.9986L199.892 44.733ZM201.567 44.5149V46.9579H201V46.7666H201.321V44.7062H201V44.5149H201.567Z" fill="#130C49"/>
<path d="M205.588 176.576H206.287V176.811H205.891V179.349H206.287V179.585H205.588V176.576ZM207.709 176.808C207.971 176.808 208.17 176.915 208.304 177.129C208.439 177.344 208.506 177.661 208.506 178.08C208.506 178.5 208.439 178.817 208.304 179.031C208.17 179.245 207.971 179.352 207.709 179.352C207.446 179.352 207.248 179.245 207.114 179.031C206.98 178.817 206.913 178.5 206.913 178.08C206.913 177.661 206.98 177.344 207.114 177.129C207.248 176.915 207.446 176.808 207.709 176.808ZM207.709 179.089C207.865 179.089 207.981 179.006 208.057 178.84C208.133 178.674 208.172 178.421 208.172 178.08C208.172 177.899 208.161 177.735 208.139 177.589L207.355 178.817C207.437 178.998 207.555 179.089 207.709 179.089ZM207.709 177.072C207.554 177.072 207.438 177.155 207.361 177.321C207.285 177.486 207.247 177.74 207.247 178.08C207.247 178.235 207.258 178.38 207.279 178.515L208.047 177.291C207.963 177.145 207.851 177.072 207.709 177.072ZM209.368 178.639H209.948V179.305H209.368V178.639ZM211.743 178.214C211.885 178.214 211.996 178.163 212.076 178.06C212.157 177.958 212.198 177.817 212.198 177.637C212.198 177.457 212.157 177.316 212.076 177.213C211.996 177.111 211.885 177.06 211.743 177.06C211.596 177.06 211.485 177.109 211.41 177.207C211.335 177.304 211.298 177.447 211.298 177.637C211.298 177.828 211.335 177.972 211.409 178.069C211.483 178.165 211.595 178.214 211.743 178.214ZM211.15 179.254V178.947C211.219 178.988 211.293 179.019 211.371 179.041C211.449 179.062 211.53 179.072 211.615 179.072C211.825 179.072 211.985 178.993 212.092 178.835C212.201 178.676 212.256 178.442 212.256 178.133C212.204 178.243 212.131 178.327 212.038 178.387C211.945 178.445 211.838 178.474 211.717 178.474C211.479 178.474 211.295 178.401 211.165 178.255C211.035 178.109 210.97 177.902 210.97 177.634C210.97 177.369 211.037 177.164 211.17 177.019C211.304 176.873 211.493 176.8 211.736 176.8C212.022 176.8 212.231 176.903 212.364 177.108C212.497 177.313 212.564 177.636 212.564 178.077C212.564 178.491 212.484 178.808 212.323 179.026C212.164 179.244 211.932 179.352 211.628 179.352C211.547 179.352 211.467 179.344 211.385 179.326C211.304 179.31 211.226 179.285 211.15 179.254ZM213.777 178.214C213.918 178.214 214.029 178.163 214.109 178.06C214.191 177.958 214.231 177.817 214.231 177.637C214.231 177.457 214.191 177.316 214.109 177.213C214.029 177.111 213.918 177.06 213.777 177.06C213.629 177.06 213.518 177.109 213.444 177.207C213.369 177.304 213.332 177.447 213.332 177.637C213.332 177.828 213.368 177.972 213.442 178.069C213.517 178.165 213.628 178.214 213.777 178.214ZM213.183 179.254V178.947C213.253 178.988 213.326 179.019 213.404 179.041C213.482 179.062 213.563 179.072 213.648 179.072C213.859 179.072 214.018 178.993 214.126 178.835C214.235 178.676 214.289 178.442 214.289 178.133C214.237 178.243 214.165 178.327 214.072 178.387C213.978 178.445 213.871 178.474 213.75 178.474C213.513 178.474 213.329 178.401 213.198 178.255C213.069 178.109 213.004 177.902 213.004 177.634C213.004 177.369 213.07 177.164 213.203 177.019C213.337 176.873 213.526 176.8 213.77 176.8C214.056 176.8 214.265 176.903 214.398 177.108C214.531 177.313 214.597 177.636 214.597 178.077C214.597 178.491 214.517 178.808 214.357 179.026C214.197 179.244 213.966 179.352 213.661 179.352C213.581 179.352 213.5 179.344 213.419 179.326C213.338 179.31 213.259 179.285 213.183 179.254ZM215.556 178.71H216.071V179.146L215.705 179.857L215.375 179.858L215.556 179.146V178.71ZM217.877 176.808C218.139 176.808 218.338 176.915 218.472 177.129C218.607 177.344 218.674 177.661 218.674 178.08C218.674 178.5 218.607 178.817 218.472 179.031C218.338 179.245 218.139 179.352 217.877 179.352C217.614 179.352 217.416 179.245 217.282 179.031C217.148 178.817 217.081 178.5 217.081 178.08C217.081 177.661 217.148 177.344 217.282 177.129C217.416 176.915 217.614 176.808 217.877 176.808ZM217.877 179.089C218.033 179.089 218.149 179.006 218.224 178.84C218.301 178.674 218.34 178.421 218.34 178.08C218.34 177.899 218.329 177.735 218.307 177.589L217.522 178.817C217.605 178.998 217.723 179.089 217.877 179.089ZM217.877 177.072C217.722 177.072 217.606 177.155 217.529 177.321C217.453 177.486 217.415 177.74 217.415 178.08C217.415 178.235 217.426 178.38 217.447 178.515L218.215 177.291C218.131 177.145 218.018 177.072 217.877 177.072ZM219.536 178.639H220.116V179.305H219.536V178.639ZM221.158 176.844H222.707V176.986L221.827 179.305H221.479L222.336 177.124H221.158V176.844ZM223.303 176.844H224.549V177.124H223.607V177.729C223.654 177.712 223.701 177.699 223.748 177.691C223.797 177.683 223.845 177.678 223.893 177.678C224.148 177.678 224.35 177.753 224.5 177.904C224.649 178.054 224.724 178.258 224.724 178.515C224.724 178.775 224.645 178.979 224.488 179.128C224.332 179.278 224.119 179.352 223.847 179.352C223.716 179.352 223.597 179.344 223.488 179.326C223.38 179.309 223.284 179.282 223.198 179.247V178.909C223.299 178.964 223.401 179.005 223.503 179.033C223.605 179.059 223.709 179.072 223.816 179.072C223.999 179.072 224.141 179.024 224.239 178.927C224.339 178.831 224.389 178.693 224.389 178.515C224.389 178.34 224.338 178.203 224.234 178.105C224.132 178.007 223.99 177.958 223.806 177.958C223.717 177.958 223.63 177.969 223.546 177.99C223.461 178.009 223.38 178.04 223.303 178.08V176.844ZM226.182 176.576V179.585H225.484V179.349H225.879V176.811H225.484V176.576H226.182Z" fill="#130C49"/>
<path d="M145.081 181.416H146.083V181.754H145.515V185.394H146.083V185.732H145.081V181.416ZM148.122 183.655C147.909 183.655 147.745 183.714 147.628 183.834C147.513 183.952 147.456 184.12 147.456 184.337C147.456 184.555 147.514 184.724 147.631 184.846C147.749 184.965 147.913 185.025 148.122 185.025C148.336 185.025 148.501 184.966 148.616 184.848C148.733 184.728 148.791 184.558 148.791 184.337C148.791 184.122 148.732 183.954 148.614 183.834C148.497 183.714 148.333 183.655 148.122 183.655ZM147.706 183.456C147.503 183.404 147.344 183.307 147.229 183.165C147.115 183.024 147.059 182.853 147.059 182.652C147.059 182.372 147.154 182.15 147.345 181.986C147.535 181.821 147.794 181.738 148.122 181.738C148.451 181.738 148.711 181.821 148.902 181.986C149.093 182.15 149.188 182.372 149.188 182.652C149.188 182.853 149.13 183.024 149.015 183.165C148.902 183.307 148.744 183.404 148.54 183.456C148.777 183.508 148.957 183.613 149.082 183.77C149.208 183.928 149.271 184.132 149.271 184.382C149.271 184.701 149.169 184.95 148.966 185.129C148.763 185.309 148.481 185.399 148.122 185.399C147.763 185.399 147.482 185.31 147.278 185.132C147.077 184.952 146.976 184.704 146.976 184.387C146.976 184.135 147.038 183.93 147.163 183.773C147.289 183.614 147.47 183.508 147.706 183.456ZM147.534 182.697C147.534 182.886 147.584 183.031 147.685 183.13C147.786 183.229 147.931 183.279 148.122 183.279C148.314 183.279 148.461 183.229 148.562 183.13C148.662 183.031 148.713 182.886 148.713 182.697C148.713 182.505 148.662 182.359 148.562 182.258C148.462 182.157 148.316 182.107 148.122 182.107C147.931 182.107 147.786 182.158 147.685 182.26C147.584 182.361 147.534 182.507 147.534 182.697ZM150.502 184.375H151.334V185.33H150.502V184.375ZM154.236 182.237L153.123 184.101H154.236V182.237ZM154.158 181.802H154.711V184.101H155.181V184.489H154.711V185.33H154.236V184.489H152.74V184.037L154.158 181.802ZM157.152 182.237L156.039 184.101H157.152V182.237ZM157.074 181.802H157.627V184.101H158.097V184.489H157.627V185.33H157.152V184.489H155.656V184.037L157.074 181.802ZM160.033 181.416V185.732H159.031V185.394H159.598V181.754H159.031V181.416H160.033Z" fill="#130C49"/>
<path d="M224.734 123.357H225.434V123.593H225.038V126.134H225.434V126.37H224.734V123.357ZM226.858 123.59C227.121 123.59 227.319 123.697 227.454 123.911C227.589 124.126 227.657 124.443 227.657 124.864C227.657 125.284 227.589 125.601 227.454 125.816C227.319 126.03 227.121 126.138 226.858 126.138C226.595 126.138 226.396 126.03 226.262 125.816C226.128 125.601 226.061 125.284 226.061 124.864C226.061 124.443 226.128 124.126 226.262 123.911C226.396 123.697 226.595 123.59 226.858 123.59ZM226.858 125.874C227.014 125.874 227.13 125.791 227.206 125.624C227.283 125.458 227.322 125.205 227.322 124.864C227.322 124.682 227.311 124.518 227.289 124.372L226.503 125.601C226.586 125.783 226.704 125.874 226.858 125.874ZM226.858 123.854C226.703 123.854 226.587 123.937 226.51 124.103C226.434 124.269 226.396 124.523 226.396 124.864C226.396 125.019 226.406 125.164 226.427 125.299L227.196 124.073C227.113 123.927 227 123.854 226.858 123.854ZM228.52 125.423H229.101V126.09H228.52V125.423ZM230.144 123.626H231.695V123.768L230.814 126.09H230.466L231.324 123.906H230.144V123.626ZM232.293 123.626H233.54V123.906H232.596V124.512C232.644 124.494 232.691 124.482 232.738 124.474C232.787 124.465 232.835 124.461 232.883 124.461C233.139 124.461 233.341 124.536 233.491 124.687C233.64 124.838 233.715 125.042 233.715 125.299C233.715 125.559 233.637 125.764 233.479 125.913C233.323 126.063 233.109 126.138 232.837 126.138C232.706 126.138 232.586 126.129 232.477 126.111C232.37 126.094 232.273 126.067 232.187 126.032V125.694C232.288 125.749 232.39 125.79 232.492 125.818C232.595 125.844 232.699 125.857 232.806 125.857C232.99 125.857 233.131 125.809 233.23 125.712C233.33 125.615 233.38 125.478 233.38 125.299C233.38 125.123 233.329 124.986 233.225 124.888C233.123 124.79 232.98 124.741 232.796 124.741C232.707 124.741 232.62 124.752 232.535 124.773C232.451 124.793 232.37 124.823 232.293 124.864V123.626ZM235.176 123.357V126.37H234.476V126.134H234.872V123.593H234.476V123.357H235.176Z" fill="#130C49"/>
<path d="M87.3491 112.192H88.0489V112.428H87.6528V114.969H88.0489V115.205H87.3491V112.192ZM89.4731 112.424C89.7361 112.424 89.9347 112.532 90.0689 112.746C90.2043 112.961 90.2719 113.278 90.2719 113.699C90.2719 114.119 90.2043 114.436 90.0689 114.651C89.9347 114.865 89.7361 114.973 89.4731 114.973C89.2102 114.973 89.0116 114.865 88.8774 114.651C88.7431 114.436 88.676 114.119 88.676 113.699C88.676 113.278 88.7431 112.961 88.8774 112.746C89.0116 112.532 89.2102 112.424 89.4731 112.424ZM89.4731 114.709C89.6294 114.709 89.7455 114.626 89.8214 114.459C89.8984 114.293 89.9369 114.04 89.9369 113.699C89.9369 113.517 89.9259 113.353 89.9039 113.207L89.1183 114.436C89.2008 114.618 89.3191 114.709 89.4731 114.709ZM89.4731 112.689C89.318 112.689 89.2019 112.772 89.1249 112.938C89.049 113.104 89.011 113.357 89.011 113.699C89.011 113.854 89.0215 113.999 89.0424 114.134L89.8115 112.908C89.7279 112.762 89.6151 112.689 89.4731 112.689ZM91.1351 114.258H91.716V114.925H91.1351V114.258ZM93.1453 114.644H94.2774V114.925H92.7805V114.644C92.9863 114.427 93.1662 114.236 93.3202 114.07C93.4742 113.904 93.5804 113.787 93.6387 113.718C93.7488 113.584 93.823 113.476 93.8615 113.393C93.9 113.31 93.9193 113.224 93.9193 113.137C93.9193 113 93.8786 112.892 93.7972 112.814C93.7168 112.736 93.6063 112.697 93.4654 112.697C93.3653 112.697 93.2602 112.715 93.1502 112.751C93.0402 112.788 92.9236 112.843 92.8003 112.916V112.58C92.9137 112.526 93.0248 112.485 93.1337 112.457C93.2437 112.43 93.3521 112.416 93.4588 112.416C93.6998 112.416 93.8934 112.481 94.0398 112.609C94.1872 112.737 94.2609 112.905 94.2609 113.113C94.2609 113.218 94.2362 113.324 94.1867 113.43C94.1382 113.535 94.059 113.652 93.949 113.779C93.8874 113.851 93.7977 113.95 93.68 114.077C93.5634 114.203 93.3851 114.392 93.1453 114.644ZM95.847 113.606C96.0087 113.649 96.1325 113.726 96.2183 113.836C96.3041 113.944 96.347 114.081 96.347 114.245C96.347 114.471 96.2706 114.65 96.1176 114.78C95.9658 114.908 95.7551 114.973 95.4855 114.973C95.3722 114.973 95.2567 114.962 95.1389 114.941C95.0212 114.92 94.9057 114.89 94.7924 114.851V114.519C94.9046 114.577 95.0152 114.621 95.1241 114.649C95.233 114.678 95.3414 114.692 95.4492 114.692C95.6319 114.692 95.7721 114.651 95.8701 114.568C95.968 114.486 96.0169 114.367 96.0169 114.212C96.0169 114.069 95.968 113.955 95.8701 113.872C95.7721 113.787 95.6396 113.745 95.4723 113.745H95.2182V113.471H95.4723C95.6253 113.471 95.7446 113.437 95.8304 113.37C95.9163 113.303 95.9592 113.209 95.9592 113.09C95.9592 112.963 95.919 112.866 95.8387 112.799C95.7595 112.731 95.6462 112.697 95.4987 112.697C95.4008 112.697 95.2996 112.708 95.195 112.73C95.0905 112.752 94.981 112.785 94.8666 112.829V112.522C94.9998 112.487 95.118 112.46 95.2215 112.443C95.326 112.425 95.4184 112.416 95.4987 112.416C95.7386 112.416 95.93 112.477 96.0731 112.598C96.2172 112.718 96.2893 112.877 96.2893 113.076C96.2893 113.212 96.2513 113.324 96.1754 113.415C96.1006 113.505 95.9911 113.569 95.847 113.606ZM97.7911 112.192V115.205H97.0913V114.969H97.4874V112.428H97.0913V112.192H97.7911Z" fill="#130C49"/>
<path d="M100.494 160.257H101.193V160.493H100.797V163.035H101.193V163.271H100.494V160.257ZM102.618 160.49C102.881 160.49 103.079 160.597 103.213 160.812C103.349 161.026 103.416 161.344 103.416 161.764C103.416 162.184 103.349 162.502 103.213 162.716C103.079 162.931 102.881 163.038 102.618 163.038C102.355 163.038 102.156 162.931 102.022 162.716C101.888 162.502 101.821 162.184 101.821 161.764C101.821 161.344 101.888 161.026 102.022 160.812C102.156 160.597 102.355 160.49 102.618 160.49ZM102.618 162.774C102.774 162.774 102.89 162.691 102.966 162.525C103.043 162.359 103.081 162.105 103.081 161.764C103.081 161.582 103.07 161.419 103.048 161.272L102.263 162.502C102.345 162.683 102.464 162.774 102.618 162.774ZM102.618 160.754C102.463 160.754 102.346 160.837 102.269 161.003C102.194 161.169 102.156 161.423 102.156 161.764C102.156 161.919 102.166 162.064 102.187 162.2L102.956 160.973C102.872 160.827 102.76 160.754 102.618 160.754ZM104.28 162.323H104.861V162.99H104.28V162.323ZM105.904 160.526H107.455V160.668L106.574 162.99H106.225L107.084 160.807H105.904V160.526ZM108.052 160.526H109.3V160.807H108.356V161.412C108.403 161.395 108.451 161.382 108.498 161.375C108.546 161.366 108.595 161.361 108.643 161.361C108.899 161.361 109.101 161.437 109.251 161.587C109.4 161.738 109.475 161.942 109.475 162.2C109.475 162.459 109.396 162.664 109.239 162.814C109.083 162.963 108.869 163.038 108.597 163.038C108.466 163.038 108.346 163.029 108.237 163.012C108.129 162.994 108.033 162.968 107.947 162.932V162.594C108.048 162.649 108.15 162.69 108.252 162.718C108.354 162.744 108.459 162.758 108.566 162.758C108.749 162.758 108.891 162.709 108.99 162.612C109.09 162.515 109.14 162.378 109.14 162.2C109.14 162.024 109.088 161.887 108.985 161.789C108.883 161.691 108.74 161.642 108.556 161.642C108.467 161.642 108.38 161.652 108.295 161.673C108.21 161.693 108.129 161.723 108.052 161.764V160.526ZM110.936 160.257V163.271H110.236V163.035H110.632V160.493H110.236V160.257H110.936Z" fill="#130C49"/>
<path d="M112.755 50.3119H113.655V50.6152H113.145V53.8825H113.655V54.1859H112.755V50.3119ZM115.485 50.611C115.824 50.611 116.079 50.7489 116.251 51.0247C116.425 51.3005 116.512 51.7086 116.512 52.2489C116.512 52.7892 116.425 53.1972 116.251 53.473C116.079 53.7488 115.824 53.8867 115.485 53.8867C115.147 53.8867 114.892 53.7488 114.72 53.473C114.547 53.1972 114.461 52.7892 114.461 52.2489C114.461 51.7086 114.547 51.3005 114.72 51.0247C114.892 50.7489 115.147 50.611 115.485 50.611ZM115.485 53.5473C115.686 53.5473 115.836 53.4405 115.933 53.2269C116.032 53.0133 116.082 52.6873 116.082 52.2489C116.082 52.0155 116.067 51.8047 116.039 51.6166L115.029 53.1972C115.135 53.4306 115.287 53.5473 115.485 53.5473ZM115.485 50.9505C115.286 50.9505 115.137 51.0572 115.038 51.2708C114.94 51.4844 114.891 51.8104 114.891 52.2489C114.891 52.4483 114.905 52.635 114.932 52.809L115.92 51.2326C115.813 51.0445 115.668 50.9505 115.485 50.9505ZM117.622 52.9681H118.369V53.8252H117.622V52.9681ZM120.206 53.4645H121.661V53.8252H119.737V53.4645C120.002 53.1859 120.233 52.9398 120.431 52.7262C120.629 52.5126 120.765 52.362 120.84 52.2743C120.982 52.1018 121.077 51.9624 121.127 51.8564C121.176 51.7489 121.201 51.6393 121.201 51.5275C121.201 51.3507 121.149 51.2121 121.044 51.1117C120.941 51.0113 120.799 50.9611 120.618 50.9611C120.489 50.9611 120.354 50.9844 120.212 51.0311C120.071 51.0777 119.921 51.1485 119.763 51.2432V50.8104C119.908 50.7411 120.051 50.6888 120.191 50.6534C120.333 50.6181 120.472 50.6004 120.609 50.6004C120.919 50.6004 121.168 50.6831 121.356 50.8486C121.545 51.0127 121.64 51.2284 121.64 51.4957C121.64 51.6315 121.608 51.7673 121.545 51.903C121.482 52.0388 121.381 52.1887 121.239 52.3528C121.16 52.4448 121.045 52.572 120.893 52.7347C120.743 52.8974 120.514 53.1406 120.206 53.4645ZM122.824 53.4645H124.279V53.8252H122.355V53.4645C122.62 53.1859 122.851 52.9398 123.049 52.7262C123.247 52.5126 123.383 52.362 123.458 52.2743C123.6 52.1018 123.695 51.9624 123.745 51.8564C123.794 51.7489 123.819 51.6393 123.819 51.5275C123.819 51.3507 123.767 51.2121 123.662 51.1117C123.559 51.0113 123.417 50.9611 123.236 50.9611C123.107 50.9611 122.972 50.9844 122.83 51.0311C122.689 51.0777 122.539 51.1485 122.381 51.2432V50.8104C122.526 50.7411 122.669 50.6888 122.809 50.6534C122.951 50.6181 123.09 50.6004 123.227 50.6004C123.537 50.6004 123.786 50.6831 123.974 50.8486C124.163 51.0127 124.258 51.2284 124.258 51.4957C124.258 51.6315 124.226 51.7673 124.163 51.903C124.101 52.0388 123.999 52.1887 123.857 52.3528C123.778 52.4448 123.663 52.572 123.511 52.7347C123.361 52.8974 123.132 53.1406 122.824 53.4645ZM125.588 53.0593H126.25V53.6215L125.779 54.5359L125.355 54.538L125.588 53.6215V53.0593ZM127.842 53.4666H128.508V51.0735L127.71 51.4575V51.0459L128.504 50.6683H128.932V53.4666H129.59V53.8252H127.842V53.4666ZM130.712 52.9681H131.459V53.8252H130.712V52.9681ZM134.607 50.7277V51.1223C134.518 51.07 134.423 51.0304 134.323 51.0035C134.223 50.9752 134.118 50.9611 134.009 50.9611C133.737 50.9611 133.532 51.0636 133.392 51.2687C133.252 51.4724 133.182 51.7729 133.182 52.1704C133.249 52.0289 133.344 51.9207 133.464 51.8458C133.584 51.7694 133.722 51.7312 133.877 51.7312C134.183 51.7312 134.419 51.8253 134.586 52.0134C134.754 52.2001 134.839 52.4653 134.839 52.809C134.839 53.1512 134.752 53.4164 134.58 53.6046C134.407 53.7927 134.165 53.8867 133.852 53.8867C133.484 53.8867 133.215 53.7552 133.044 53.4921C132.873 53.2276 132.787 52.8118 132.787 52.2446C132.787 51.71 132.89 51.3026 133.095 51.0226C133.301 50.7411 133.6 50.6004 133.99 50.6004C134.095 50.6004 134.199 50.6117 134.304 50.6343C134.409 50.6556 134.51 50.6867 134.607 50.7277ZM133.844 52.0664C133.661 52.0664 133.518 52.1322 133.413 52.2637C133.308 52.3952 133.256 52.577 133.256 52.809C133.256 53.0409 133.308 53.2227 133.413 53.3542C133.518 53.4857 133.661 53.5515 133.844 53.5515C134.033 53.5515 134.176 53.4893 134.272 53.3648C134.368 53.2389 134.416 53.0536 134.416 52.809C134.416 52.5629 134.368 52.3776 134.272 52.2531C134.176 52.1286 134.033 52.0664 133.844 52.0664ZM136.682 51.048L135.683 52.722H136.682V51.048ZM136.612 50.6577H137.109V52.722H137.531V53.0699H137.109V53.8252H136.682V53.0699H135.339V52.6647L136.612 50.6577ZM139.268 50.3119V54.1859H138.369V53.8825H138.878V50.6152H138.369V50.3119H139.268Z" fill="#130C49"/>
<path d="M205.032 83.8843H205.908V84.1797H205.412V87.3605H205.908V87.6558H205.032V83.8843ZM207.69 84.1756C208.019 84.1756 208.268 84.3098 208.436 84.5783C208.605 84.8468 208.69 85.2441 208.69 85.7701C208.69 86.2961 208.605 86.6933 208.436 86.9618C208.268 87.2303 208.019 87.3646 207.69 87.3646C207.361 87.3646 207.113 87.2303 206.945 86.9618C206.777 86.6933 206.693 86.2961 206.693 85.7701C206.693 85.2441 206.777 84.8468 206.945 84.5783C207.113 84.3098 207.361 84.1756 207.69 84.1756ZM207.69 87.0341C207.886 87.0341 208.031 86.9302 208.126 86.7222C208.222 86.5143 208.271 86.1969 208.271 85.7701C208.271 85.5429 208.257 85.3377 208.229 85.1546L207.246 86.6933C207.349 86.9205 207.497 87.0341 207.69 87.0341ZM207.69 84.506C207.496 84.506 207.351 84.61 207.254 84.8179C207.159 85.0258 207.112 85.3432 207.112 85.7701C207.112 85.9642 207.125 86.146 207.151 86.3153L208.114 84.7807C208.009 84.5976 207.868 84.506 207.69 84.506ZM209.77 86.4703H210.497V87.3047H209.77V86.4703ZM212.286 86.9536H213.703V87.3047H211.829V86.9536C212.087 86.6823 212.312 86.4427 212.505 86.2348C212.697 86.0269 212.83 85.8802 212.903 85.7949C213.041 85.6269 213.134 85.4912 213.182 85.388C213.23 85.2833 213.254 85.1766 213.254 85.0678C213.254 84.8957 213.204 84.7608 213.102 84.663C213.001 84.5652 212.863 84.5164 212.686 84.5164C212.561 84.5164 212.43 84.5391 212.292 84.5845C212.154 84.63 212.008 84.6988 211.854 84.7911V84.3697C211.996 84.3022 212.135 84.2513 212.271 84.2169C212.409 84.1824 212.545 84.1652 212.678 84.1652C212.98 84.1652 213.222 84.2458 213.405 84.4069C213.59 84.5666 213.682 84.7766 213.682 85.0368C213.682 85.169 213.651 85.3012 213.589 85.4334C213.528 85.5656 213.429 85.7116 213.292 85.8713C213.215 85.9608 213.102 86.0847 212.955 86.2431C212.809 86.4014 212.586 86.6382 212.286 86.9536ZM214.622 86.9556H215.27V84.6258L214.494 84.9997V84.599L215.266 84.2313H215.683V86.9556H216.324V87.3047H214.622V86.9556ZM217.526 86.5591H218.17V87.1064L217.712 87.9966L217.299 87.9987L217.526 87.1064V86.5591ZM220.434 84.1756C220.763 84.1756 221.012 84.3098 221.18 84.5783C221.349 84.8468 221.434 85.2441 221.434 85.7701C221.434 86.2961 221.349 86.6933 221.18 86.9618C221.012 87.2303 220.763 87.3646 220.434 87.3646C220.105 87.3646 219.856 87.2303 219.688 86.9618C219.52 86.6933 219.436 86.2961 219.436 85.7701C219.436 85.2441 219.52 84.8468 219.688 84.5783C219.856 84.3098 220.105 84.1756 220.434 84.1756ZM220.434 87.0341C220.629 87.0341 220.775 86.9302 220.87 86.7222C220.966 86.5143 221.014 86.1969 221.014 85.7701C221.014 85.5429 221.001 85.3377 220.973 85.1546L219.99 86.6933C220.093 86.9205 220.241 87.0341 220.434 87.0341ZM220.434 84.506C220.24 84.506 220.094 84.61 219.998 84.8179C219.903 85.0258 219.856 85.3432 219.856 85.7701C219.856 85.9642 219.869 86.146 219.895 86.3153L220.857 84.7807C220.753 84.5976 220.612 84.506 220.434 84.506ZM222.514 86.4703H223.241V87.3047H222.514V86.4703ZM225.777 84.601L224.804 86.2307H225.777V84.601ZM225.709 84.221H226.192V86.2307H226.603V86.5694H226.192V87.3047H225.777V86.5694H224.47V86.1749L225.709 84.221ZM228.295 83.8843V87.6558H227.419V87.3605H227.915V84.1797H227.419V83.8843H228.295Z" fill="#130C49"/>
<path d="M63.041 168.23L141.261 123.965" stroke="#130C49" stroke-width="0.375" stroke-miterlimit="10"/>
<path d="M64.8755 168.949L64.9605 168.584L63.1655 168.159L63.7205 166.394L63.3655 166.279L62.6855 168.429L64.8755 168.949Z" fill="#130C49"/>
<path d="M238.659 168.675L160.789 124.59" stroke="#130C49" stroke-width="0.375" stroke-miterlimit="10"/>
<path d="M238.333 166.725L237.978 166.84L238.533 168.6L236.738 169.03L236.823 169.395L239.013 168.875L238.333 166.725Z" fill="#130C49"/>
<path d="M178.501 138.264L159.166 149.784V125.084L179.586 113.229V131.864L196.201 141.454V92.1494L150.691 118.424V170.974L192.666 146.444L178.501 138.264Z" fill="#262262"/>
<path d="M155.121 164.48C155.61 164.48 156.006 163.983 156.006 163.37C156.006 162.757 155.61 162.26 155.121 162.26C154.633 162.26 154.236 162.757 154.236 163.37C154.236 163.983 154.633 164.48 155.121 164.48Z" fill="#7AC7C0"/>
<path d="M158.326 162.744C158.815 162.744 159.211 162.247 159.211 161.634C159.211 161.021 158.815 160.524 158.326 160.524C157.838 160.524 157.441 161.021 157.441 161.634C157.441 162.247 157.838 162.744 158.326 162.744Z" fill="white"/>
<path d="M161.531 161.155C162.02 161.155 162.416 160.658 162.416 160.045C162.416 159.432 162.02 158.935 161.531 158.935C161.043 158.935 160.646 159.432 160.646 160.045C160.646 160.658 161.043 161.155 161.531 161.155Z" fill="#7AC7C0"/>
<path d="M105.211 92.2949V141.885L121.571 132.44V112.3L141.991 124.16V148.86L123.166 137.93L108.196 146.57L150.721 171.12V118.57L105.211 92.2949Z" fill="#7AC7C0"/>
<path d="M109.426 114.185C109.997 114.185 110.461 113.603 110.461 112.885C110.461 112.167 109.997 111.585 109.426 111.585C108.854 111.585 108.391 112.167 108.391 112.885C108.391 113.603 108.854 114.185 109.426 114.185Z" fill="#7AC7C0"/>
<path d="M109.426 109.664C109.997 109.664 110.461 109.082 110.461 108.364C110.461 107.646 109.997 107.064 109.426 107.064C108.854 107.064 108.391 107.646 108.391 108.364C108.391 109.082 108.854 109.664 109.426 109.664Z" fill="#7AC7C0"/>
<path d="M153.496 67.625V85.385L171.216 95.39L150.386 107.155L130.221 94.605L147.946 85.275V67.625L105.211 92.295L150.721 118.57L196.231 92.295L153.496 67.625Z" fill="#61BD73"/>
<path d="M186.966 93.2952C187.747 93.2952 188.381 92.9102 188.381 92.4352C188.381 91.9602 187.747 91.5752 186.966 91.5752C186.184 91.5752 185.551 91.9602 185.551 92.4352C185.551 92.9102 186.184 93.2952 186.966 93.2952Z" fill="#7AD6EB"/>
<path d="M184.132 95.0149C184.913 95.0149 185.547 94.6299 185.547 94.1549C185.547 93.68 184.913 93.2949 184.132 93.2949C183.35 93.2949 182.717 93.68 182.717 94.1549C182.717 94.6299 183.35 95.0149 184.132 95.0149Z" fill="white"/>
<path d="M181.116 96.7298C181.898 96.7298 182.531 96.3447 182.531 95.8698C182.531 95.3948 181.898 95.0098 181.116 95.0098C180.335 95.0098 179.701 95.3948 179.701 95.8698C179.701 96.3447 180.335 96.7298 181.116 96.7298Z" fill="#130C49"/>
<path d="M109.06 104.65C109.645 104.65 110.12 104.057 110.12 103.325C110.12 102.593 109.645 102 109.06 102C108.475 102 108 102.593 108 103.325C108 104.057 108.475 104.65 109.06 104.65Z" fill="#1B1464"/>
<path d="M109.06 113.884C109.645 113.884 110.12 113.291 110.12 112.559C110.12 111.828 109.645 111.234 109.06 111.234C108.475 111.234 108 111.828 108 112.559C108 113.291 108.475 113.884 109.06 113.884Z" fill="#1B1464"/>
<path d="M109.06 109.265C109.645 109.265 110.12 108.672 110.12 107.94C110.12 107.208 109.645 106.615 109.06 106.615C108.475 106.615 108 107.208 108 107.94C108 108.672 108.475 109.265 109.06 109.265Z" fill="white"/>
</svg>
