<svg width="104" height="105" viewBox="0 0 104 105" fill="none" xmlns="http://www.w3.org/2000/svg">
<g id="Layer_1" clip-path="url(#clip0_4597_11000)">
<path id="Vector" d="M27.378 27.4222H1.53906V1.54102H27.378V27.4222ZM2.35017 26.6098H26.5668V2.35345H2.35017V26.6098Z" fill="#1B1464"/>
<path id="Vector_2" d="M52.4053 27.4222H26.5664V1.54102H52.4053V27.4222ZM27.3775 26.6098H51.5942V2.35345H27.3775V26.6098Z" fill="#1B1464"/>
<g id="Group">
<path id="Vector_3" d="M77.0278 1.94727H52V27.016H77.0278V1.94727Z" fill="#1B1464"/>
<path id="Vector_4" d="M77.4326 27.4222H51.5938V1.54102H77.4326V27.4222ZM52.4049 26.6098H76.6215V2.35345H52.4049V26.6098Z" fill="#1B1464"/>
</g>
<path id="Vector_5" d="M102.46 27.4222H76.6211V1.54102H102.46V27.4222ZM77.4322 26.6098H101.649V2.35345H77.4322V26.6098Z" fill="#1B1464"/>
<path id="Vector_6" d="M102.46 52.7523H76.6211V26.8711H102.46V52.7523ZM77.4322 51.9398H101.649V27.6835H77.4322V51.9398Z" fill="#1B1464"/>
<path id="Vector_7" d="M77.4326 52.7523H51.5938V26.8711H77.4326V52.7523ZM52.4049 51.9398H76.6215V27.6835H52.4049V51.9398Z" fill="#1B1464"/>
<g id="Group_2">
<path id="Vector_8" d="M26.9722 52.3457H52V27.277L26.9722 27.277L26.9722 52.3457Z" fill="#1B1464"/>
<path id="Vector_9" d="M52.4053 52.7523H26.5664V26.8711H52.4053V52.7523ZM27.3775 51.9398H51.5942V27.6835H27.3775V51.9398Z" fill="#1B1464"/>
</g>
<path id="Vector_10" d="M27.378 52.7523H1.53906V26.8711H27.378V52.7523ZM2.35017 51.9398H26.5668V27.6835H2.35017V51.9398Z" fill="#1B1464"/>
<path id="Vector_11" d="M27.378 77.7445H1.53906V51.8633H27.378V77.7445ZM2.35017 76.932H26.5668V52.6757H2.35017V76.932Z" fill="#1B1464"/>
<path id="Vector_12" d="M52.4053 77.7445H26.5664V51.8633H52.4053V77.7445ZM27.3775 76.932H51.5942V52.6757H27.3775V76.932Z" fill="#1B1464"/>
<path id="Vector_13" d="M77.4326 77.7445H51.5938V51.8633H77.4326V77.7445ZM52.4049 76.932H76.6215V52.6757H52.4049V76.932Z" fill="#1B1464"/>
<g id="Group_3">
<path id="Vector_14" d="M102.055 52.2754H77.0273V77.3441H102.055V52.2754Z" fill="#1B1464"/>
<path id="Vector_15" d="M102.46 77.7445H76.6211V51.8633H102.46V77.7445ZM77.4322 76.932H101.649V52.6757H77.4322V76.932Z" fill="#1B1464"/>
</g>
<path id="Vector_16" d="M102.46 103.075H76.6211V77.1934H102.46V103.075ZM77.4322 102.262H101.649V78.0058H77.4322V102.262Z" fill="#1B1464"/>
<path id="Vector_17" d="M77.4326 103.075H51.5938V77.1934H77.4326V103.075ZM52.4049 102.262H76.6215V78.0058H52.4049V102.262Z" fill="#1B1464"/>
<path id="Vector_18" d="M52.4053 103.075H26.5664V77.1934H52.4053V103.075ZM27.3775 102.262H51.5942V78.0058H27.3775V102.262Z" fill="#1B1464"/>
<g id="Group_4">
<path id="Vector_19" d="M1.94488 102.674H26.9727L26.9727 77.6051H1.94488L1.94488 102.674Z" fill="#1B1464"/>
<path id="Vector_20" d="M27.378 103.075H1.53906V77.1934H27.378V103.075ZM2.35017 102.262H26.5668V78.0058H2.35017V102.262Z" fill="#1B1464"/>
</g>
<path id="Vector_21" d="M64.893 19.0211V11.531H63.293V10.5684H66.0096V19.0211H64.8874H64.893Z" fill="white"/>
<path id="Vector_22" d="M39.2791 19.1531C38.6124 19.1531 38.0291 18.9695 37.5235 18.6022C37.018 18.2349 36.6235 17.723 36.3402 17.0719C36.0569 16.4209 35.918 15.6585 35.918 14.7849C35.918 13.9112 36.0569 13.1544 36.3402 12.4978C36.6235 11.8412 37.0124 11.3348 37.5124 10.9731C38.0124 10.6114 38.5957 10.4277 39.268 10.4277C39.9402 10.4277 40.518 10.6114 41.018 10.9731C41.518 11.3348 41.9124 11.8467 42.1902 12.4978C42.468 13.1488 42.6069 13.9112 42.6069 14.7849C42.6069 15.6585 42.468 16.4209 42.1957 17.0775C41.9235 17.7341 41.5291 18.2461 41.0291 18.6078C40.5291 18.9695 39.9457 19.1531 39.2791 19.1531ZM39.268 18.1181C39.7235 18.1181 40.1124 17.979 40.4457 17.7063C40.7791 17.4281 41.0346 17.0441 41.2235 16.5433C41.4069 16.0425 41.5013 15.4582 41.5013 14.7849C41.5013 14.1115 41.4069 13.5272 41.2235 13.032C41.0402 12.5367 40.7791 12.1528 40.4457 11.8745C40.1124 11.5963 39.7235 11.4628 39.268 11.4628C38.8124 11.4628 38.4235 11.6019 38.0902 11.8745C37.7569 12.1528 37.5013 12.5367 37.3124 13.032C37.1235 13.5272 37.0346 14.1115 37.0346 14.7849C37.0346 15.4582 37.1291 16.0313 37.3124 16.5322C37.4957 17.033 37.7569 17.4225 38.0957 17.7007C38.4346 17.979 38.8235 18.1181 39.268 18.1181Z" fill="#1B1464"/>
<path id="Vector_23" d="M14.9783 19.1531C14.3116 19.1531 13.7283 18.9695 13.2227 18.6022C12.7172 18.2349 12.3227 17.723 12.0394 17.0719C11.7561 16.4209 11.6172 15.6585 11.6172 14.7849C11.6172 13.9112 11.7561 13.1544 12.0394 12.4978C12.3227 11.8412 12.7116 11.3348 13.2116 10.9731C13.7116 10.6114 14.295 10.4277 14.9672 10.4277C15.6394 10.4277 16.2172 10.6114 16.7172 10.9731C17.2172 11.3348 17.6116 11.8467 17.8894 12.4978C18.1672 13.1488 18.3061 13.9112 18.3061 14.7849C18.3061 15.6585 18.1672 16.4209 17.895 17.0775C17.6227 17.7341 17.2283 18.2461 16.7283 18.6078C16.2283 18.9695 15.645 19.1531 14.9783 19.1531ZM14.9672 18.1181C15.4227 18.1181 15.8116 17.979 16.145 17.7063C16.4783 17.4281 16.7339 17.0441 16.9227 16.5433C17.1061 16.0425 17.2005 15.4582 17.2005 14.7849C17.2005 14.1115 17.1061 13.5272 16.9227 13.032C16.7394 12.5367 16.4783 12.1528 16.145 11.8745C15.8116 11.5963 15.4227 11.4628 14.9672 11.4628C14.5116 11.4628 14.1227 11.6019 13.7894 11.8745C13.4561 12.1528 13.2005 12.5367 13.0116 13.032C12.8227 13.5272 12.7339 14.1115 12.7339 14.7849C12.7339 15.4582 12.8283 16.0313 13.0116 16.5322C13.195 17.033 13.4561 17.4225 13.795 17.7007C14.1339 17.979 14.5227 18.1181 14.9672 18.1181Z" fill="#1B1464"/>
<path id="Vector_24" d="M89.3728 43.4929C88.7062 43.4929 88.1228 43.3093 87.6173 42.942C87.1117 42.5748 86.7173 42.0628 86.4339 41.4118C86.1506 40.7607 86.0117 39.9983 86.0117 39.1247C86.0117 38.251 86.1506 37.4943 86.4339 36.8376C86.7173 36.181 87.1062 35.6746 87.6062 35.3129C88.1062 34.9512 88.6895 34.7676 89.3617 34.7676C90.0339 34.7676 90.6117 34.9512 91.1117 35.3129C91.6117 35.6746 92.0062 36.1866 92.2839 36.8376C92.5617 37.4887 92.7006 38.251 92.7006 39.1247C92.7006 39.9983 92.5617 40.7607 92.2895 41.4173C92.0173 42.074 91.6228 42.5859 91.1228 42.9476C90.6228 43.3093 90.0395 43.4929 89.3728 43.4929ZM89.3617 42.4579C89.8173 42.4579 90.2062 42.3188 90.5395 42.0461C90.8728 41.7679 91.1284 41.3839 91.3173 40.8831C91.5006 40.3823 91.595 39.798 91.595 39.1247C91.595 38.4514 91.5006 37.8671 91.3173 37.3718C91.1339 36.8766 90.8728 36.4926 90.5395 36.2144C90.2062 35.9362 89.8173 35.8026 89.3617 35.8026C88.9062 35.8026 88.5173 35.9417 88.1839 36.2144C87.8506 36.4926 87.595 36.8766 87.4062 37.3718C87.2173 37.8671 87.1284 38.4514 87.1284 39.1247C87.1284 39.798 87.2228 40.3712 87.4062 40.872C87.5895 41.3728 87.8506 41.7623 88.1895 42.0406C88.5284 42.3188 88.9173 42.4579 89.3617 42.4579Z" fill="#1B1464"/>
<path id="Vector_25" d="M65.072 43.4929C64.4054 43.4929 63.822 43.3093 63.3165 42.942C62.8109 42.5748 62.4165 42.0628 62.1332 41.4118C61.8498 40.7607 61.7109 39.9983 61.7109 39.1247C61.7109 38.251 61.8498 37.4943 62.1332 36.8376C62.4165 36.181 62.8054 35.6746 63.3054 35.3129C63.8054 34.9512 64.3887 34.7676 65.0609 34.7676C65.7332 34.7676 66.3109 34.9512 66.8109 35.3129C67.3109 35.6746 67.7054 36.1866 67.9832 36.8376C68.2609 37.4887 68.3998 38.251 68.3998 39.1247C68.3998 39.9983 68.2609 40.7607 67.9887 41.4173C67.7165 42.074 67.322 42.5859 66.822 42.9476C66.322 43.3093 65.7387 43.4929 65.072 43.4929ZM65.0609 42.4579C65.5165 42.4579 65.9054 42.3188 66.2387 42.0461C66.572 41.7679 66.8276 41.3839 67.0165 40.8831C67.1998 40.3823 67.2943 39.798 67.2943 39.1247C67.2943 38.4514 67.1998 37.8671 67.0165 37.3718C66.8332 36.8766 66.572 36.4926 66.2387 36.2144C65.9054 35.9362 65.5165 35.8026 65.0609 35.8026C64.6054 35.8026 64.2165 35.9417 63.8832 36.2144C63.5498 36.4926 63.2943 36.8766 63.1054 37.3718C62.9165 37.8671 62.8276 38.4514 62.8276 39.1247C62.8276 39.798 62.922 40.3712 63.1054 40.872C63.2887 41.3728 63.5498 41.7623 63.8887 42.0406C64.2276 42.3188 64.6165 42.4579 65.0609 42.4579Z" fill="#1B1464"/>
<path id="Vector_26" d="M65.072 69.4969C64.4054 69.4969 63.822 69.3132 63.3165 68.946C62.8109 68.5787 62.4165 68.0667 62.1332 67.4157C61.8498 66.7646 61.7109 66.0023 61.7109 65.1286C61.7109 64.255 61.8498 63.4982 62.1332 62.8415C62.4165 62.1849 62.8054 61.6785 63.3054 61.3168C63.8054 60.9551 64.3887 60.7715 65.0609 60.7715C65.7332 60.7715 66.3109 60.9551 66.8109 61.3168C67.3109 61.6785 67.7054 62.1905 67.9832 62.8415C68.2609 63.4926 68.3998 64.255 68.3998 65.1286C68.3998 66.0023 68.2609 66.7646 67.9887 67.4212C67.7165 68.0779 67.322 68.5898 66.822 68.9515C66.322 69.3132 65.7387 69.4969 65.072 69.4969ZM65.0609 68.4618C65.5165 68.4618 65.9054 68.3227 66.2387 68.05C66.572 67.7718 66.8276 67.3878 67.0165 66.887C67.1998 66.3862 67.2943 65.8019 67.2943 65.1286C67.2943 64.4553 67.1998 63.871 67.0165 63.3757C66.8332 62.8805 66.572 62.4965 66.2387 62.2183C65.9054 61.9401 65.5165 61.8065 65.0609 61.8065C64.6054 61.8065 64.2165 61.9456 63.8832 62.2183C63.5498 62.4965 63.2943 62.8805 63.1054 63.3757C62.9165 63.871 62.8276 64.4553 62.8276 65.1286C62.8276 65.8019 62.922 66.3751 63.1054 66.8759C63.2887 67.3767 63.5498 67.7662 63.8887 68.0445C64.2276 68.3227 64.6165 68.4618 65.0609 68.4618Z" fill="#1B1464"/>
<path id="Vector_27" d="M40.7713 69.4969C40.1046 69.4969 39.5213 69.3132 39.0157 68.946C38.5102 68.5787 38.1157 68.0667 37.8324 67.4157C37.549 66.7646 37.4102 66.0023 37.4102 65.1286C37.4102 64.255 37.549 63.4982 37.8324 62.8415C38.1157 62.1849 38.5046 61.6785 39.0046 61.3168C39.5046 60.9551 40.0879 60.7715 40.7602 60.7715C41.4324 60.7715 42.0102 60.9551 42.5102 61.3168C43.0102 61.6785 43.4046 62.1905 43.6824 62.8415C43.9602 63.4926 44.099 64.255 44.099 65.1286C44.099 66.0023 43.9602 66.7646 43.6879 67.4212C43.4157 68.0779 43.0213 68.5898 42.5213 68.9515C42.0213 69.3132 41.4379 69.4969 40.7713 69.4969ZM40.7602 68.4618C41.2157 68.4618 41.6046 68.3227 41.9379 68.05C42.2713 67.7718 42.5268 67.3878 42.7157 66.887C42.899 66.3862 42.9935 65.8019 42.9935 65.1286C42.9935 64.4553 42.899 63.871 42.7157 63.3757C42.5324 62.8805 42.2713 62.4965 41.9379 62.2183C41.6046 61.9401 41.2157 61.8065 40.7602 61.8065C40.3046 61.8065 39.9157 61.9456 39.5824 62.2183C39.249 62.4965 38.9935 62.8805 38.8046 63.3757C38.6157 63.871 38.5268 64.4553 38.5268 65.1286C38.5268 65.8019 38.6213 66.3751 38.8046 66.8759C38.9879 67.3767 39.249 67.7662 39.5879 68.0445C39.9268 68.3227 40.3157 68.4618 40.7602 68.4618Z" fill="#1B1464"/>
<path id="Vector_28" d="M14.1228 69.4969C13.4562 69.4969 12.8728 69.3132 12.3673 68.946C11.8617 68.5787 11.4673 68.0667 11.1839 67.4157C10.9006 66.7646 10.7617 66.0023 10.7617 65.1286C10.7617 64.255 10.9006 63.4982 11.1839 62.8415C11.4673 62.1849 11.8562 61.6785 12.3562 61.3168C12.8562 60.9551 13.4395 60.7715 14.1117 60.7715C14.7839 60.7715 15.3617 60.9551 15.8617 61.3168C16.3617 61.6785 16.7562 62.1905 17.0339 62.8415C17.3117 63.4926 17.4506 64.255 17.4506 65.1286C17.4506 66.0023 17.3117 66.7646 17.0395 67.4212C16.7673 68.0779 16.3728 68.5898 15.8728 68.9515C15.3728 69.3132 14.7895 69.4969 14.1228 69.4969ZM14.1117 68.4618C14.5673 68.4618 14.9562 68.3227 15.2895 68.05C15.6228 67.7718 15.8784 67.3878 16.0673 66.887C16.2506 66.3862 16.3451 65.8019 16.3451 65.1286C16.3451 64.4553 16.2506 63.871 16.0673 63.3757C15.8839 62.8805 15.6228 62.4965 15.2895 62.2183C14.9562 61.9401 14.5673 61.8065 14.1117 61.8065C13.6562 61.8065 13.2673 61.9456 12.9339 62.2183C12.6006 62.4965 12.3451 62.8805 12.1562 63.3757C11.9673 63.871 11.8784 64.4553 11.8784 65.1286C11.8784 65.8019 11.9728 66.3751 12.1562 66.8759C12.3395 67.3767 12.6006 67.7662 12.9395 68.0445C13.2784 68.3227 13.6673 68.4618 14.1117 68.4618Z" fill="#1B1464"/>
<path id="Vector_29" d="M14.1228 43.4929C13.4562 43.4929 12.8728 43.3093 12.3673 42.942C11.8617 42.5748 11.4673 42.0628 11.1839 41.4118C10.9006 40.7607 10.7617 39.9983 10.7617 39.1247C10.7617 38.251 10.9006 37.4943 11.1839 36.8376C11.4673 36.181 11.8562 35.6746 12.3562 35.3129C12.8562 34.9512 13.4395 34.7676 14.1117 34.7676C14.7839 34.7676 15.3617 34.9512 15.8617 35.3129C16.3617 35.6746 16.7562 36.1866 17.0339 36.8376C17.3117 37.4887 17.4506 38.251 17.4506 39.1247C17.4506 39.9983 17.3117 40.7607 17.0395 41.4173C16.7673 42.074 16.3728 42.5859 15.8728 42.9476C15.3728 43.3093 14.7895 43.4929 14.1228 43.4929ZM14.1117 42.4579C14.5673 42.4579 14.9562 42.3188 15.2895 42.0461C15.6228 41.7679 15.8784 41.3839 16.0673 40.8831C16.2506 40.3823 16.3451 39.798 16.3451 39.1247C16.3451 38.4514 16.2506 37.8671 16.0673 37.3718C15.8839 36.8766 15.6228 36.4926 15.2895 36.2144C14.9562 35.9362 14.5673 35.8026 14.1117 35.8026C13.6562 35.8026 13.2673 35.9417 12.9339 36.2144C12.6006 36.4926 12.3451 36.8766 12.1562 37.3718C11.9673 37.8671 11.8784 38.4514 11.8784 39.1247C11.8784 39.798 11.9728 40.3712 12.1562 40.872C12.3395 41.3728 12.6006 41.7623 12.9395 42.0406C13.2784 42.3188 13.6673 42.4579 14.1117 42.4579Z" fill="#1B1464"/>
<path id="Vector_30" d="M89.3728 94.3816C88.7062 94.3816 88.1228 94.198 87.6173 93.8307C87.1117 93.4635 86.7173 92.9515 86.4339 92.3004C86.1506 91.6494 86.0117 90.887 86.0117 90.0134C86.0117 89.1397 86.1506 88.3829 86.4339 87.7263C86.7173 87.0697 87.1062 86.5633 87.6062 86.2016C88.1062 85.8399 88.6895 85.6562 89.3617 85.6562C90.0339 85.6562 90.6117 85.8399 91.1117 86.2016C91.6117 86.5633 92.0062 87.0752 92.2839 87.7263C92.5617 88.3774 92.7006 89.1397 92.7006 90.0134C92.7006 90.887 92.5617 91.6494 92.2895 92.306C92.0173 92.9626 91.6228 93.4746 91.1228 93.8363C90.6228 94.198 90.0395 94.3816 89.3728 94.3816ZM89.3617 93.3466C89.8173 93.3466 90.2062 93.2075 90.5395 92.9348C90.8728 92.6566 91.1284 92.2726 91.3173 91.7718C91.5006 91.271 91.595 90.6867 91.595 90.0134C91.595 89.34 91.5006 88.7558 91.3173 88.2605C91.1339 87.7653 90.8728 87.3813 90.5395 87.1031C90.2062 86.8248 89.8173 86.6913 89.3617 86.6913C88.9062 86.6913 88.5173 86.8304 88.1839 87.1031C87.8506 87.3813 87.595 87.7653 87.4062 88.2605C87.2173 88.7558 87.1284 89.34 87.1284 90.0134C87.1284 90.6867 87.2228 91.2599 87.4062 91.7607C87.5895 92.2615 87.8506 92.651 88.1895 92.9292C88.5284 93.2075 88.9173 93.3466 89.3617 93.3466Z" fill="#1B1464"/>
<path id="Vector_31" d="M64.6931 94.3816C64.0265 94.3816 63.4431 94.198 62.9376 93.8307C62.432 93.4635 62.0376 92.9515 61.7543 92.3004C61.4709 91.6494 61.332 90.887 61.332 90.0134C61.332 89.1397 61.4709 88.3829 61.7543 87.7263C62.0376 87.0697 62.4265 86.5633 62.9265 86.2016C63.4265 85.8399 64.0098 85.6562 64.682 85.6562C65.3543 85.6562 65.932 85.8399 66.432 86.2016C66.932 86.5633 67.3265 87.0752 67.6043 87.7263C67.882 88.3774 68.0209 89.1397 68.0209 90.0134C68.0209 90.887 67.882 91.6494 67.6098 92.306C67.3376 92.9626 66.9431 93.4746 66.4431 93.8363C65.9431 94.198 65.3598 94.3816 64.6931 94.3816ZM64.682 93.3466C65.1376 93.3466 65.5265 93.2075 65.8598 92.9348C66.1931 92.6566 66.4487 92.2726 66.6376 91.7718C66.8209 91.271 66.9154 90.6867 66.9154 90.0134C66.9154 89.34 66.8209 88.7558 66.6376 88.2605C66.4543 87.7653 66.1931 87.3813 65.8598 87.1031C65.5265 86.8248 65.1376 86.6913 64.682 86.6913C64.2265 86.6913 63.8376 86.8304 63.5043 87.1031C63.1709 87.3813 62.9154 87.7653 62.7265 88.2605C62.5376 88.7558 62.4487 89.34 62.4487 90.0134C62.4487 90.6867 62.5431 91.2599 62.7265 91.7607C62.9098 92.2615 63.1709 92.651 63.5098 92.9292C63.8487 93.2075 64.2376 93.3466 64.682 93.3466Z" fill="#1B1464"/>
<path id="Vector_32" d="M40.0174 94.3816C39.3507 94.3816 38.7674 94.198 38.2618 93.8307C37.7562 93.4635 37.3618 92.9515 37.0785 92.3004C36.7951 91.6494 36.6562 90.887 36.6562 90.0134C36.6562 89.1397 36.7951 88.3829 37.0785 87.7263C37.3618 87.0697 37.7507 86.5633 38.2507 86.2016C38.7507 85.8399 39.334 85.6562 40.0062 85.6562C40.6785 85.6562 41.2563 85.8399 41.7563 86.2016C42.2563 86.5633 42.6507 87.0752 42.9285 87.7263C43.2062 88.3774 43.3451 89.1397 43.3451 90.0134C43.3451 90.887 43.2062 91.6494 42.934 92.306C42.6618 92.9626 42.2674 93.4746 41.7674 93.8363C41.2674 94.198 40.684 94.3816 40.0174 94.3816ZM40.0062 93.3466C40.4618 93.3466 40.8507 93.2075 41.184 92.9348C41.5174 92.6566 41.7729 92.2726 41.9618 91.7718C42.1451 91.271 42.2396 90.6867 42.2396 90.0134C42.2396 89.34 42.1451 88.7558 41.9618 88.2605C41.7785 87.7653 41.5174 87.3813 41.184 87.1031C40.8507 86.8248 40.4618 86.6913 40.0062 86.6913C39.5507 86.6913 39.1618 86.8304 38.8285 87.1031C38.4951 87.3813 38.2396 87.7653 38.0507 88.2605C37.8618 88.7558 37.7729 89.34 37.7729 90.0134C37.7729 90.6867 37.8674 91.2599 38.0507 91.7607C38.234 92.2615 38.4951 92.651 38.834 92.9292C39.1729 93.2075 39.5618 93.3466 40.0062 93.3466Z" fill="#1B1464"/>
<path id="Vector_33" d="M89.3728 19.1531C88.7062 19.1531 88.1228 18.9695 87.6173 18.6022C87.1117 18.2349 86.7173 17.723 86.4339 17.0719C86.1506 16.4209 86.0117 15.6585 86.0117 14.7849C86.0117 13.9112 86.1506 13.1544 86.4339 12.4978C86.7173 11.8412 87.1062 11.3348 87.6062 10.9731C88.1062 10.6114 88.6895 10.4277 89.3617 10.4277C90.0339 10.4277 90.6117 10.6114 91.1117 10.9731C91.6117 11.3348 92.0062 11.8467 92.2839 12.4978C92.5617 13.1488 92.7006 13.9112 92.7006 14.7849C92.7006 15.6585 92.5617 16.4209 92.2895 17.0775C92.0173 17.7341 91.6228 18.2461 91.1228 18.6078C90.6228 18.9695 90.0395 19.1531 89.3728 19.1531ZM89.3617 18.1181C89.8173 18.1181 90.2062 17.979 90.5395 17.7063C90.8728 17.4281 91.1284 17.0441 91.3173 16.5433C91.5006 16.0425 91.595 15.4582 91.595 14.7849C91.595 14.1115 91.5006 13.5272 91.3173 13.032C91.1339 12.5367 90.8728 12.1528 90.5395 11.8745C90.2062 11.5963 89.8173 11.4628 89.3617 11.4628C88.9062 11.4628 88.5173 11.6019 88.1839 11.8745C87.8506 12.1528 87.595 12.5367 87.4062 13.032C87.2173 13.5272 87.1284 14.1115 87.1284 14.7849C87.1284 15.4582 87.2228 16.0313 87.4062 16.5322C87.5895 17.033 87.8506 17.4225 88.1895 17.7007C88.5284 17.979 88.9173 18.1181 89.3617 18.1181Z" fill="#1B1464"/>
<path id="Vector_34" d="M39.6117 44.273V36.783H38.0117V35.8203H40.7284V44.273H39.6062H39.6117Z" fill="white"/>
<path id="Vector_35" d="M89.0609 69.357V61.867H87.4609V60.9043H90.1776V69.357H89.0554H89.0609Z" fill="white"/>
<path id="Vector_36" d="M15.1781 94.2476V86.7576H13.5781V85.7949H16.2948V94.2476H15.1726H15.1781Z" fill="white"/>
<path id="Vector_37" d="M104 104.615H0V0H104V104.615ZM3.88889 100.72H100.111V3.89525H3.88889V100.72Z" fill="#1B1464"/>
</g>
<defs>
<clipPath id="clip0_4597_11000">
<rect width="104" height="104.615" fill="white"/>
</clipPath>
</defs>
</svg>
