<svg width="144" height="155" viewBox="0 0 144 155" fill="none" xmlns="http://www.w3.org/2000/svg">
<path d="M97.9125 55.0197C97.9125 56.2126 98.88 57.1797 100.073 57.1797C101.267 57.1797 102.234 56.2126 102.234 55.0197C102.234 53.8268 101.267 52.8598 100.073 52.8598C98.88 52.8598 97.9125 53.8268 97.9125 55.0197Z" fill="#1B1464"/>
<path d="M116.037 84.3498C116.037 85.5427 117.005 86.5098 118.198 86.5098C119.392 86.5098 120.359 85.5427 120.359 84.3498C120.359 83.1569 119.392 82.1899 118.198 82.1899C117.005 82.1899 116.037 83.1569 116.037 84.3498Z" fill="#1B1464"/>
<path d="M125.342 72.3264C125.342 73.5193 126.31 74.4863 127.503 74.4863C128.697 74.4863 129.664 73.5193 129.664 72.3264C129.664 71.1335 128.697 70.1664 127.503 70.1664C126.31 70.1664 125.342 71.1335 125.342 72.3264Z" fill="#1B1464"/>
<path d="M102.077 79.8518C102.077 81.0447 103.044 82.0117 104.237 82.0117C105.431 82.0117 106.398 81.0447 106.398 79.8518C106.398 78.6589 105.431 77.6918 104.237 77.6918C103.044 77.6918 102.077 78.6589 102.077 79.8518Z" fill="#1B1464"/>
<path d="M60.0257 46.3615C60.0257 47.5544 60.9932 48.5215 62.1867 48.5215C63.3802 48.5215 64.3477 47.5544 64.3477 46.3615C64.3477 45.1686 63.3802 44.2016 62.1867 44.2016C60.9932 44.2016 60.0257 45.1686 60.0257 46.3615Z" fill="#61BB73"/>
<path d="M42.0804 57.5041C42.0804 58.697 43.0479 59.6641 44.2414 59.6641C45.4349 59.6641 46.4023 58.697 46.4023 57.5041C46.4023 56.3112 45.4349 55.3442 44.2414 55.3442C43.0479 55.3442 42.0804 56.3112 42.0804 57.5041Z" fill="#61BB73"/>
<path d="M22.8109 46.3615C22.8109 47.5544 23.7784 48.5215 24.9719 48.5215C26.1653 48.5215 27.1328 47.5544 27.1328 46.3615C27.1328 45.1686 26.1653 44.2016 24.9719 44.2016C23.7784 44.2016 22.8109 45.1686 22.8109 46.3615Z" fill="#61BB73"/>
<path d="M34.1195 53.1858C34.1195 54.3787 35.087 55.3457 36.2805 55.3457C37.4739 55.3457 38.4414 54.3787 38.4414 53.1858C38.4414 51.9928 37.4739 51.0258 36.2805 51.0258C35.087 51.0258 34.1195 51.9928 34.1195 53.1858Z" fill="#61BB73"/>
<path d="M36.2769 32.195C36.2769 34.3935 38.06 36.1758 40.2596 36.1758C42.4591 36.1758 44.2422 34.3935 44.2422 32.195C44.2422 29.9965 42.4591 28.2142 40.2596 28.2142C38.06 28.2142 36.2769 29.9965 36.2769 32.195Z" fill="#61BB73"/>
<path d="M18.8316 66.1852C18.8316 68.3838 20.6147 70.166 22.8143 70.166C25.0138 70.166 26.7969 68.3838 26.7969 66.1852C26.7969 63.9867 25.0138 62.2045 22.8143 62.2045C20.6147 62.2045 18.8316 63.9867 18.8316 66.1852Z" fill="#61BB73"/>
<path d="M108.113 66.1852C108.113 68.3838 109.896 70.166 112.096 70.166C114.295 70.166 116.078 68.3838 116.078 66.1852C116.078 63.9867 114.295 62.2045 112.096 62.2045C109.896 62.2045 108.113 63.9867 108.113 66.1852Z" fill="#1B1464"/>
<circle cx="38.3499" cy="50.8792" r="27.3812" fill="#61BB73" fill-opacity="0.4"/>
<circle cx="109.751" cy="72.4955" r="21.4857" fill="#1B1464" fill-opacity="0.2"/>
<path d="M71.8302 21.4766L0.488281 61.834" stroke="#61BB73" stroke-width="0.315465" stroke-miterlimit="10"/>
<path d="M71.8302 41.9551L0.488281 82.3126" stroke="#61BB73" stroke-width="0.315465" stroke-miterlimit="10"/>
<path d="M71.8302 62.7422L0.488281 103.1" stroke="#61BB73" stroke-width="0.315465" stroke-miterlimit="10"/>
<path d="M18.7344 30.5195V113.709" stroke="#61BB73" stroke-width="0.315465" stroke-miterlimit="10"/>
<path d="M36.4805 20.3574V103.547" stroke="#61BB73" stroke-width="0.315465" stroke-miterlimit="10"/>
<path d="M53.4922 9.68359L53.9384 92.9325" stroke="#61BB73" stroke-width="0.315465" stroke-miterlimit="10"/>
<path d="M71.8242 21.5684L143.161 61.9258" stroke="#61BB73" stroke-width="0.315465" stroke-miterlimit="10"/>
<path d="M71.8242 42.0527L143.161 82.4102" stroke="#61BB73" stroke-width="0.315465" stroke-miterlimit="10"/>
<path d="M71.8242 62.8379L143.161 103.195" stroke="#61BB73" stroke-width="0.315465" stroke-miterlimit="10"/>
<path d="M124.395 30.0898V113.279" stroke="#61BB73" stroke-width="0.315465" stroke-miterlimit="10"/>
<path d="M107.176 20.4551V103.645" stroke="#61BB73" stroke-width="0.315465" stroke-miterlimit="10"/>
<path d="M90.1562 9.77539V92.965" stroke="#61BB73" stroke-width="0.315465" stroke-miterlimit="10"/>
<path d="M53.9414 92.9316L124.949 133.545" stroke="#61BB73" stroke-width="0.315465" stroke-miterlimit="10"/>
<path d="M36.4805 103.264L107.904 144.239" stroke="#61BB73" stroke-width="0.315465" stroke-miterlimit="10"/>
<path d="M19.2344 113.861L90.6583 154.836" stroke="#61BB73" stroke-width="0.315465" stroke-miterlimit="10"/>
<path d="M90.1583 93.248L18.7344 134.348" stroke="#61BB73" stroke-width="0.315465" stroke-miterlimit="10"/>
<path d="M107.175 103.406L35.7461 144.502" stroke="#61BB73" stroke-width="0.315465" stroke-miterlimit="10"/>
<path d="M124.426 113.369L53.418 153.982" stroke="#61BB73" stroke-width="0.315465" stroke-miterlimit="10"/>
<path d="M72.2427 0.290454C72.0159 0.0636215 71.6481 0.0636215 71.4213 0.290454L67.7249 3.98691C67.498 4.21374 67.498 4.58151 67.7249 4.80835C67.9517 5.03518 68.3195 5.03518 68.5463 4.80835L71.832 1.52261L75.1178 4.80835C75.3446 5.03518 75.7124 5.03518 75.9392 4.80835C76.166 4.58151 76.166 4.21374 75.9392 3.98691L72.2427 0.290454ZM71.2512 0.701172V82.6366H72.4129V0.701172H71.2512Z" fill="#61BB73"/>
<path d="M1.68827 123.081C1.60665 123.391 1.79198 123.709 2.10221 123.79L7.15774 125.12C7.46797 125.202 7.78563 125.017 7.86725 124.707C7.94888 124.396 7.76355 124.079 7.45332 123.997L2.95952 122.815L4.14185 118.321C4.22347 118.011 4.03815 117.693 3.72791 117.611C3.41768 117.53 3.10002 117.715 3.0184 118.025L1.68827 123.081ZM2.5427 123.73L72.1239 83.1365L71.5385 82.1331L1.9573 122.727L2.5427 123.73Z" fill="#61BB73"/>
<path d="M142.184 124.113C142.494 124.032 142.679 123.714 142.597 123.404L141.265 118.349C141.183 118.039 140.865 117.853 140.555 117.935C140.245 118.017 140.06 118.335 140.142 118.645L141.326 123.138L136.833 124.322C136.522 124.404 136.337 124.722 136.419 125.032C136.501 125.342 136.818 125.528 137.129 125.446L142.184 124.113ZM142.328 123.05L72.1245 82.1329L71.5395 83.1366L141.743 124.054L142.328 123.05Z" fill="#61BB73"/>
<path d="M51.3757 78.518C51.3757 80.9038 53.3107 82.8379 55.6976 82.8379C58.0845 82.8379 60.0195 80.9038 60.0195 78.518C60.0195 76.1322 58.0845 74.1981 55.6976 74.1981C53.3107 74.1981 51.3757 76.1322 51.3757 78.518Z" fill="#61BB73" fill-opacity="0.35"/>
<path d="M47.9343 108.856C47.9343 111.242 49.8693 113.176 52.2562 113.176C54.6431 113.176 56.5781 111.242 56.5781 108.856C56.5781 106.47 54.6431 104.536 52.2562 104.536C49.8693 104.536 47.9343 106.47 47.9343 108.856Z" fill="#61BB73" fill-opacity="0.35"/>
<path d="M97.7507 111.506C97.7507 113.892 99.6857 115.826 102.073 115.826C104.46 115.826 106.395 113.892 106.395 111.506C106.395 109.12 104.46 107.186 102.073 107.186C99.6857 107.186 97.7507 109.12 97.7507 111.506Z" fill="#61BB73" fill-opacity="0.35"/>
<path d="M116.772 46.3596C116.772 47.5525 117.739 48.5195 118.933 48.5195C120.126 48.5195 121.094 47.5525 121.094 46.3596C121.094 45.1667 120.126 44.1996 118.933 44.1996C117.739 44.1996 116.772 45.1667 116.772 46.3596Z" fill="#61BB73" fill-opacity="0.35"/>
<path d="M84.2054 60.0393C84.2054 61.2322 85.1729 62.1992 86.3664 62.1992C87.5599 62.1992 88.5273 61.2322 88.5273 60.0393C88.5273 58.8464 87.5599 57.8793 86.3664 57.8793C85.1729 57.8793 84.2054 58.8464 84.2054 60.0393Z" fill="#61BB73" fill-opacity="0.35"/>
<path d="M35.4593 79.8498C35.4593 81.0427 36.4268 82.0098 37.6203 82.0098C38.8138 82.0098 39.7812 81.0427 39.7812 79.8498C39.7812 78.6569 38.8138 77.6899 37.6203 77.6899C36.4268 77.6899 35.4593 78.6569 35.4593 79.8498Z" fill="#61BB73" fill-opacity="0.35"/>
<path d="M18.8265 91.9533C18.8265 93.1462 19.794 94.1133 20.9875 94.1133C22.1809 94.1133 23.1484 93.1462 23.1484 91.9533C23.1484 90.7604 22.1809 89.7934 20.9875 89.7934C19.794 89.7934 18.8265 90.7604 18.8265 91.9533Z" fill="#61BB73" fill-opacity="0.35"/>
<path d="M77.8701 106.941H77.8746C79.1347 106.941 80.1562 105.92 80.1562 104.661V104.656C80.1562 103.397 79.1347 102.376 77.8746 102.376H77.8701C76.6099 102.376 75.5884 103.397 75.5884 104.656V104.661C75.5884 105.92 76.6099 106.941 77.8701 106.941Z" fill="#61BB73" fill-opacity="0.35"/>
<path d="M70.581 118.35H70.5855C71.8457 118.35 72.8672 117.329 72.8672 116.069V116.064C72.8672 114.805 71.8457 113.784 70.5855 113.784H70.581C69.3209 113.784 68.2994 114.805 68.2994 116.064V116.069C68.2994 117.329 69.3209 118.35 70.581 118.35Z" fill="#61BB73" fill-opacity="0.35"/>
<path d="M35.4599 113.176H35.4645C36.7246 113.176 37.7461 112.155 37.7461 110.895V110.891C37.7461 109.631 36.7246 108.61 35.4645 108.61H35.4599C34.1998 108.61 33.1783 109.631 33.1783 110.891V110.895C33.1783 112.155 34.1998 113.176 35.4599 113.176Z" fill="#61BB73" fill-opacity="0.35"/>
<path d="M84.7177 115.463H84.7223C85.9824 115.463 87.0039 114.442 87.0039 113.182V113.178C87.0039 111.918 85.9824 110.897 84.7223 110.897H84.7177C83.4576 110.897 82.4361 111.918 82.4361 113.178V113.182C82.4361 114.442 83.4576 115.463 84.7177 115.463Z" fill="#61BB73" fill-opacity="0.35"/>
<path d="M64.7216 104.66H64.7262C65.9863 104.66 67.0078 103.639 67.0078 102.38V102.375C67.0078 101.116 65.9863 100.094 64.7262 100.094H64.7216C63.4615 100.094 62.44 101.116 62.44 102.375V102.38C62.44 103.639 63.4615 104.66 64.7216 104.66Z" fill="#61BB73" fill-opacity="0.35"/>
<path d="M94.191 36.1716C94.191 38.3701 95.9741 40.1523 98.1736 40.1523C100.373 40.1523 102.156 38.3701 102.156 36.1716C102.156 33.9731 100.373 32.1908 98.1736 32.1908C95.9741 32.1908 94.191 33.9731 94.191 36.1716Z" fill="#61BB73" fill-opacity="0.35"/>
<path d="M80.2223 77.6931C80.2223 79.8916 82.0053 81.6738 84.2049 81.6738C86.4044 81.6738 88.1875 79.8916 88.1875 77.6931C88.1875 75.4945 86.4044 73.7123 84.2049 73.7123C82.0053 73.7123 80.2223 75.4945 80.2223 77.6931Z" fill="#61BB73" fill-opacity="0.35"/>
<path d="M64.7617 85.5469C64.7617 85.5469 64.7933 85.5604 64.8114 85.5694C64.7933 85.5604 64.7798 85.5559 64.7617 85.5469Z" fill="#6AD17E"/>
<path d="M64.7695 66.6934C64.7695 66.6934 64.8011 66.7069 64.8192 66.7159C64.8011 66.7069 64.7876 66.7024 64.7695 66.6934Z" fill="#6AD17E"/>
</svg>
