<svg width="92" height="99" viewBox="0 0 92 99" fill="none" xmlns="http://www.w3.org/2000/svg">
<g id="Group 2541">
<path id="Vector" d="M62.4573 35.2644C62.4573 36.0169 63.0676 36.627 63.8205 36.627C64.5733 36.627 65.1836 36.0169 65.1836 35.2644C65.1836 34.5119 64.5733 33.9019 63.8205 33.9019C63.0676 33.9019 62.4573 34.5119 62.4573 35.2644Z" fill="#61BD73"/>
<path id="Vector_2" d="M73.8909 53.7664C73.8909 54.5189 74.5012 55.1289 75.254 55.1289C76.0069 55.1289 76.6172 54.5189 76.6172 53.7664C76.6172 53.0139 76.0069 52.4039 75.254 52.4039C74.5012 52.4039 73.8909 53.0139 73.8909 53.7664Z" fill="#61BD73"/>
<path id="Vector_3" d="M79.7581 46.1805C79.7581 46.933 80.3684 47.543 81.1212 47.543C81.8741 47.543 82.4844 46.933 82.4844 46.1805C82.4844 45.428 81.8741 44.8179 81.1212 44.8179C80.3684 44.8179 79.7581 45.428 79.7581 46.1805Z" fill="#61BD73"/>
<path id="Vector_4" d="M65.0823 50.9285C65.0823 51.681 65.6926 52.291 66.4454 52.291C67.1983 52.291 67.8086 51.681 67.8086 50.9285C67.8086 50.176 67.1983 49.566 66.4454 49.566C65.6926 49.566 65.0823 50.176 65.0823 50.9285Z" fill="#61BD73"/>
<path id="Vector_5" d="M38.5589 29.8016C38.5589 30.554 39.1692 31.1641 39.922 31.1641C40.6749 31.1641 41.2852 30.554 41.2852 29.8016C41.2852 29.0491 40.6749 28.439 39.922 28.439C39.1692 28.439 38.5589 29.0491 38.5589 29.8016Z" fill="#130C49"/>
<path id="Vector_6" d="M27.2346 36.8308C27.2346 37.5833 27.8449 38.1934 28.5978 38.1934C29.3506 38.1934 29.9609 37.5833 29.9609 36.8308C29.9609 36.0784 29.3506 35.4683 28.5978 35.4683C27.8449 35.4683 27.2346 36.0784 27.2346 36.8308Z" fill="#130C49"/>
<path id="Vector_7" d="M15.0823 29.8016C15.0823 30.554 15.6926 31.1641 16.4454 31.1641C17.1983 31.1641 17.8086 30.554 17.8086 29.8016C17.8086 29.0491 17.1983 28.439 16.4454 28.439C15.6926 28.439 15.0823 29.0491 15.0823 29.8016Z" fill="#130C49"/>
<path id="Vector_8" d="M22.2151 34.1082C22.2151 34.8607 22.8254 35.4707 23.5783 35.4707C24.3311 35.4707 24.9414 34.8607 24.9414 34.1082C24.9414 33.3557 24.3311 32.7457 23.5783 32.7457C22.8254 32.7457 22.2151 33.3557 22.2151 34.1082Z" fill="#130C49"/>
<path id="Vector_9" d="M23.577 20.8659C23.577 22.2527 24.7018 23.377 26.0893 23.377C27.4768 23.377 28.6016 22.2527 28.6016 20.8659C28.6016 19.479 27.4768 18.3548 26.0893 18.3548C24.7018 18.3548 23.577 19.479 23.577 20.8659Z" fill="#130C49"/>
<path id="Vector_10" d="M12.5692 42.3073C12.5692 43.6941 13.694 44.8184 15.0815 44.8184C16.469 44.8184 17.5938 43.6941 17.5938 42.3073C17.5938 40.9204 16.469 39.7962 15.0815 39.7962C13.694 39.7962 12.5692 40.9204 12.5692 42.3073Z" fill="#130C49"/>
<path id="Vector_11" d="M68.8895 42.3073C68.8895 43.6941 70.0143 44.8184 71.4018 44.8184C72.7893 44.8184 73.9141 43.6941 73.9141 42.3073C73.9141 40.9204 72.7893 39.7962 71.4018 39.7962C70.0143 39.7962 68.8895 40.9204 68.8895 42.3073Z" fill="#61BD73"/>
<g id="Group 2540">
<circle id="Ellipse 42" cx="24.8855" cy="32.6531" r="17.2723" fill="#61BB73" fill-opacity="0.4"/>
<circle id="Ellipse 43" cx="69.9244" cy="46.2877" r="13.5533" fill="#1B1464" fill-opacity="0.2"/>
<g id="Group 2536">
<path id="Vector_12" d="M46.003 14.1055L1 39.5633" stroke="#130C49" stroke-width="0.315465" stroke-miterlimit="10"/>
<path id="Vector_13" d="M46.003 27.0234L1 52.4812" stroke="#130C49" stroke-width="0.315465" stroke-miterlimit="10"/>
<path id="Vector_14" d="M46.003 40.1367L1 65.5945" stroke="#130C49" stroke-width="0.315465" stroke-miterlimit="10"/>
<path id="Vector_15" d="M12.5078 19.8105V72.2872" stroke="#130C49" stroke-width="0.315465" stroke-miterlimit="10"/>
<path id="Vector_16" d="M23.707 13.4004V65.877" stroke="#130C49" stroke-width="0.315465" stroke-miterlimit="10"/>
<path id="Vector_17" d="M34.4375 6.66602L34.719 59.1801" stroke="#130C49" stroke-width="0.315465" stroke-miterlimit="10"/>
<path id="Vector_18" d="M46 14.1641L91 39.6219" stroke="#130C49" stroke-width="0.315465" stroke-miterlimit="10"/>
<path id="Vector_19" d="M46 27.0859L91 52.5437" stroke="#130C49" stroke-width="0.315465" stroke-miterlimit="10"/>
<path id="Vector_20" d="M46 40.1973L91 65.6551" stroke="#130C49" stroke-width="0.315465" stroke-miterlimit="10"/>
<path id="Vector_21" d="M79.1641 19.5391V72.0157" stroke="#130C49" stroke-width="0.315465" stroke-miterlimit="10"/>
<path id="Vector_22" d="M68.2969 13.4609V65.9376" stroke="#130C49" stroke-width="0.315465" stroke-miterlimit="10"/>
<path id="Vector_23" d="M57.5625 6.72266V59.1993" stroke="#130C49" stroke-width="0.315465" stroke-miterlimit="10"/>
<path id="Vector_24" d="M34.7188 59.1797L79.5109 84.7988" stroke="#130C49" stroke-width="0.315465" stroke-miterlimit="10"/>
<path id="Vector_25" d="M23.707 65.6973L68.7618 91.5446" stroke="#130C49" stroke-width="0.315465" stroke-miterlimit="10"/>
<path id="Vector_26" d="M12.8242 72.3828L57.879 98.2301" stroke="#130C49" stroke-width="0.315465" stroke-miterlimit="10"/>
<path id="Vector_27" d="M57.5626 59.3789L12.5078 85.3053" stroke="#130C49" stroke-width="0.315465" stroke-miterlimit="10"/>
<path id="Vector_28" d="M68.3 65.7871L23.2422 91.7105" stroke="#130C49" stroke-width="0.315465" stroke-miterlimit="10"/>
<path id="Vector_29" d="M79.1789 72.0723L34.3867 97.6914" stroke="#130C49" stroke-width="0.315465" stroke-miterlimit="10"/>
</g>
<g id="Group 2537">
<path id="Vector_30" d="M46.4185 0.589283C46.1917 0.36245 45.8239 0.36245 45.5971 0.589283L41.9006 4.28574C41.6738 4.51257 41.6738 4.88034 41.9006 5.10717C42.1275 5.33401 42.4952 5.33401 42.7221 5.10717L46.0078 1.82143L49.2936 5.10717C49.5204 5.33401 49.8882 5.33401 50.115 5.10717C50.3418 4.88034 50.3418 4.51257 50.115 4.28574L46.4185 0.589283ZM45.427 1V52.6855H46.5887V1H45.427Z" fill="#130C49"/>
<path id="Vector_31" d="M1.55156 78.1447C1.46993 78.4549 1.65526 78.7726 1.96549 78.8542L7.02102 80.1843C7.33125 80.2659 7.64891 80.0806 7.73053 79.7704C7.81216 79.4601 7.62683 79.1425 7.3166 79.0609L2.8228 77.8785L4.00513 73.3847C4.08675 73.0745 3.90143 72.7568 3.59119 72.6752C3.28096 72.5936 2.9633 72.7789 2.88168 73.0891L1.55156 78.1447ZM2.40598 78.7942L46.2983 53.1873L45.7129 52.1838L1.82059 77.7908L2.40598 78.7942Z" fill="#130C49"/>
<path id="Vector_32" d="M90.4407 79.058C90.7509 78.9762 90.9361 78.6585 90.8544 78.3483L89.5221 73.2933C89.4403 72.9831 89.1226 72.798 88.8124 72.8797C88.5022 72.9615 88.317 73.2792 88.3988 73.5894L89.583 78.0827L85.0897 79.2669C84.7795 79.3487 84.5943 79.6664 84.6761 79.9766C84.7578 80.2868 85.0756 80.472 85.3858 80.3903L90.4407 79.058ZM90.5852 77.9945L46.3003 52.1837L45.7153 53.1874L90.0002 78.9982L90.5852 77.9945Z" fill="#130C49"/>
</g>
<g id="Group 2538">
<path id="Vector_33" d="M33.1021 50.0894C33.1021 51.5944 34.3227 52.8145 35.8284 52.8145C37.3341 52.8145 38.5547 51.5944 38.5547 50.0894C38.5547 48.5844 37.3341 47.3644 35.8284 47.3644C34.3227 47.3644 33.1021 48.5844 33.1021 50.0894Z" fill="#61BB73" fill-opacity="0.35"/>
<path id="Vector_34" d="M30.9302 69.2261C30.9302 70.7311 32.1508 71.9512 33.6565 71.9512C35.1622 71.9512 36.3828 70.7311 36.3828 69.2261C36.3828 67.7212 35.1622 66.5011 33.6565 66.5011C32.1508 66.5011 30.9302 67.7212 30.9302 69.2261Z" fill="#61BB73" fill-opacity="0.35"/>
<path id="Vector_35" d="M62.356 70.898C62.356 72.403 63.5766 73.623 65.0823 73.623C66.588 73.623 67.8086 72.403 67.8086 70.898C67.8086 69.393 66.588 68.173 65.0823 68.173C63.5766 68.173 62.356 69.393 62.356 70.898Z" fill="#61BB73" fill-opacity="0.35"/>
<path id="Vector_36" d="M74.3557 29.8035C74.3557 30.556 74.966 31.166 75.7189 31.166C76.4717 31.166 77.082 30.556 77.082 29.8035C77.082 29.051 76.4717 28.441 75.7189 28.441C74.966 28.441 74.3557 29.051 74.3557 29.8035Z" fill="#61BB73" fill-opacity="0.35"/>
<path id="Vector_37" d="M53.8128 38.4305C53.8128 39.183 54.4231 39.793 55.1759 39.793C55.9288 39.793 56.5391 39.183 56.5391 38.4305C56.5391 37.678 55.9288 37.0679 55.1759 37.0679C54.4231 37.0679 53.8128 37.678 53.8128 38.4305Z" fill="#61BB73" fill-opacity="0.35"/>
<path id="Vector_38" d="M23.0628 50.9285C23.0628 51.681 23.6731 52.291 24.4259 52.291C25.1788 52.291 25.7891 51.681 25.7891 50.9285C25.7891 50.176 25.1788 49.566 24.4259 49.566C23.6731 49.566 23.0628 50.176 23.0628 50.9285Z" fill="#61BB73" fill-opacity="0.35"/>
<path id="Vector_39" d="M12.5706 58.5633C12.5706 59.3158 13.1809 59.9258 13.9337 59.9258C14.6866 59.9258 15.2969 59.3158 15.2969 58.5633C15.2969 57.8108 14.6866 57.2008 13.9337 57.2008C13.1809 57.2008 12.5706 57.8108 12.5706 58.5633Z" fill="#61BB73" fill-opacity="0.35"/>
<path id="Vector_40" d="M49.8157 68.0176H49.8185C50.6134 68.0176 51.2578 67.3735 51.2578 66.579V66.5761C51.2578 65.7816 50.6134 65.1375 49.8185 65.1375H49.8157C49.0208 65.1375 48.3764 65.7816 48.3764 66.5761V66.579C48.3764 67.3735 49.0208 68.0176 49.8157 68.0176Z" fill="#61BB73" fill-opacity="0.35"/>
<path id="Vector_41" d="M45.218 75.2148H45.2209C46.0158 75.2148 46.6602 74.5708 46.6602 73.7762V73.7734C46.6602 72.9789 46.0158 72.3348 45.2209 72.3348H45.218C44.4231 72.3348 43.7787 72.9789 43.7787 73.7734V73.7762C43.7787 74.5708 44.4231 75.2148 45.218 75.2148Z" fill="#61BB73" fill-opacity="0.35"/>
<path id="Vector_42" d="M23.0618 71.9512H23.0646C23.8595 71.9512 24.5039 71.3071 24.5039 70.5126V70.5097C24.5039 69.7152 23.8595 69.0711 23.0646 69.0711H23.0618C22.2669 69.0711 21.6225 69.7152 21.6225 70.5097V70.5126C21.6225 71.3071 22.2669 71.9512 23.0618 71.9512Z" fill="#61BB73" fill-opacity="0.35"/>
<path id="Vector_43" d="M54.136 73.3926H54.1389C54.9337 73.3926 55.5781 72.7485 55.5781 71.954V71.9511C55.5781 71.1566 54.9337 70.5125 54.1389 70.5125H54.136C53.3411 70.5125 52.6967 71.1566 52.6967 71.9511V71.954C52.6967 72.7485 53.3411 73.3926 54.136 73.3926Z" fill="#61BB73" fill-opacity="0.35"/>
<path id="Vector_44" d="M41.5188 66.5801H41.5217C42.3166 66.5801 42.9609 65.936 42.9609 65.1415V65.1386C42.9609 64.3441 42.3166 63.7 41.5217 63.7H41.5188C40.7239 63.7 40.0795 64.3441 40.0795 65.1386V65.1415C40.0795 65.936 40.7239 66.5801 41.5188 66.5801Z" fill="#61BB73" fill-opacity="0.35"/>
<path id="Vector_45" d="M60.1122 23.3756C60.1122 24.7625 61.237 25.8867 62.6245 25.8867C64.0119 25.8867 65.1367 24.7625 65.1367 23.3756C65.1367 21.9888 64.0119 20.8645 62.6245 20.8645C61.237 20.8645 60.1122 21.9888 60.1122 23.3756Z" fill="#61BB73" fill-opacity="0.35"/>
<path id="Vector_46" d="M51.2997 49.567C51.2997 50.9539 52.4245 52.0781 53.812 52.0781C55.1994 52.0781 56.3242 50.9539 56.3242 49.567C56.3242 48.1802 55.1994 47.0559 53.812 47.0559C52.4245 47.0559 51.2997 48.1802 51.2997 49.567Z" fill="#61BB73" fill-opacity="0.35"/>
</g>
</g>
<path id="Vector_47" d="M41.5469 54.5215C41.5469 54.5215 41.5674 54.5303 41.5791 54.5361C41.5674 54.5303 41.5586 54.5273 41.5469 54.5215Z" fill="#6AD17E"/>
<path id="Vector_48" d="M41.5508 42.6289C41.5508 42.6289 41.5713 42.6377 41.583 42.6436C41.5713 42.6377 41.5625 42.6348 41.5508 42.6289Z" fill="#6AD17E"/>
</g>
</svg>
