<svg width="157" height="83" viewBox="0 0 157 83" fill="none" xmlns="http://www.w3.org/2000/svg">
<g id="Graph-Based Index" clip-path="url(#clip0_4597_11207)">
<path id="Vector" d="M20.4654 3.46862L4.30469 32.0789L15.3663 62.3717L56.4546 78.5051L110.814 75.4319L152.878 75.6966L153.88 73.0451L151.2 26.1927L151.491 24.6045L84.4328 3.21289L20.4654 3.46862Z" stroke="#130C49" stroke-width="1.29293" stroke-miterlimit="10"/>
<path id="Vector_2" d="M4.18359 31.4693L96.0398 16.4082L152.877 75.6971" stroke="#130C49" stroke-width="1.29293" stroke-miterlimit="10"/>
<path id="Vector_3" d="M20.7561 41.4549L4.30469 32.0781" stroke="#130C49" stroke-width="1.9394" stroke-miterlimit="10"/>
<path id="Vector_4" d="M20.957 6.40625L110.814 75.4309L112.308 48.2203L96.742 19.8657" stroke="#130C49" stroke-width="1.29293" stroke-miterlimit="10"/>
<path id="Vector_5" d="M84.2919 4.00586L55.9827 79.1949L46.1602 15.8367" stroke="#130C49" stroke-width="1.29293" stroke-miterlimit="10"/>
<path id="Vector_6" d="M112.308 48.2214L88.2617 42.9453" stroke="#130C49" stroke-width="1.29293" stroke-miterlimit="10"/>
<path id="Vector_7" d="M15.6055 61.85L20.7538 41.4545L20.6778 4.19422L46.1601 15.8366L83.9117 3.79492L94.8704 15.3835L96.0333 15.9039L151.717 25.4018L88.2594 42.944L59.0735 27.7124L47.4528 17.1422L45.9454 15.3342L21.9168 40.2656L20.7538 41.4545L57.2261 28.17L59.0735 27.7124L56.4523 78.5039L87.1366 43.922L96.0378 16.4064L96.1496 18.1921L59.0735 27.7124L83.4062 4.03271" stroke="#130C49" stroke-width="0.646467" stroke-miterlimit="10"/>
<path id="Vector_8" d="M15.6055 61.8499L58.2683 29.9824" stroke="#130C49" stroke-width="1.29293" stroke-miterlimit="10"/>
<path id="Vector_9" d="M112.308 48.22L151.2 26.1914L111.668 75.6459" stroke="#130C49" stroke-width="1.29293" stroke-miterlimit="10"/>
<path id="Vector_10" d="M56.4547 81.9498C58.352 81.9498 59.89 80.4072 59.89 78.5042C59.89 76.6013 58.352 75.0586 56.4547 75.0586C54.5575 75.0586 53.0195 76.6013 53.0195 78.5042C53.0195 80.4072 54.5575 81.9498 56.4547 81.9498Z" fill="#7AD6EB" stroke="#130C49" stroke-width="1.9394" stroke-miterlimit="10"/>
<path id="Vector_11" d="M30.3415 47.2116C32.2387 47.2116 33.7767 45.6689 33.7767 43.7659C33.7767 41.863 32.2387 40.3203 30.3415 40.3203C28.4443 40.3203 26.9062 41.863 26.9062 43.7659C26.9062 45.6689 28.4443 47.2116 30.3415 47.2116Z" fill="#61BD73" stroke="#130C49" stroke-width="1.29293" stroke-miterlimit="10"/>
<path id="Vector_12" d="M20.7555 44.901C22.6527 44.901 24.1907 43.3583 24.1907 41.4554C24.1907 39.5524 22.6527 38.0098 20.7555 38.0098C18.8583 38.0098 17.3203 39.5524 17.3203 41.4554C17.3203 43.3583 18.8583 44.901 20.7555 44.901Z" fill="#7AD6EB" stroke="#130C49" stroke-width="1.29293" stroke-miterlimit="10"/>
<path id="Vector_13" d="M4.3024 35.524C6.19961 35.524 7.73762 33.9814 7.73762 32.0784C7.73762 30.1755 6.19961 28.6328 4.3024 28.6328C2.40518 28.6328 0.867188 30.1755 0.867188 32.0784C0.867188 33.9814 2.40518 35.524 4.3024 35.524Z" fill="#7AD6EB" stroke="#130C49" stroke-width="1.29293" stroke-miterlimit="10"/>
<path id="Vector_14" d="M20.4001 8.19788C22.2973 8.19788 23.8353 6.65522 23.8353 4.75226C23.8353 2.84929 22.2973 1.30664 20.4001 1.30664C18.5028 1.30664 16.9648 2.84929 16.9648 4.75226C16.9648 6.65522 18.5028 8.19788 20.4001 8.19788Z" fill="#7AD6EB" stroke="#130C49" stroke-width="1.29293" stroke-miterlimit="10"/>
<path id="Vector_15" d="M46.1618 19.2819C48.059 19.2819 49.597 17.7392 49.597 15.8363C49.597 13.9333 48.059 12.3906 46.1618 12.3906C44.2646 12.3906 42.7266 13.9333 42.7266 15.8363C42.7266 17.7392 44.2646 19.2819 46.1618 19.2819Z" fill="#7AD6EB" stroke="#130C49" stroke-width="1.29293" stroke-miterlimit="10"/>
<path id="Vector_16" d="M59.0758 31.1588C60.9731 31.1588 62.511 29.6162 62.511 27.7132C62.511 25.8102 60.9731 24.2676 59.0758 24.2676C57.1786 24.2676 55.6406 25.8102 55.6406 27.7132C55.6406 29.6162 57.1786 31.1588 59.0758 31.1588Z" fill="#7AD6EB" stroke="#130C49" stroke-width="1.29293" stroke-miterlimit="10"/>
<path id="Vector_17" d="M15.6071 65.2955C17.5043 65.2955 19.0423 63.7529 19.0423 61.8499C19.0423 59.947 17.5043 58.4043 15.6071 58.4043C13.7099 58.4043 12.1719 59.947 12.1719 61.8499C12.1719 63.7529 13.7099 65.2955 15.6071 65.2955Z" fill="#7AD6EB" stroke="#130C49" stroke-width="1.29293" stroke-miterlimit="10"/>
<path id="Vector_18" d="M88.2594 46.3912C90.1566 46.3912 91.6946 44.8486 91.6946 42.9456C91.6946 41.0427 90.1566 39.5 88.2594 39.5C86.3622 39.5 84.8242 41.0427 84.8242 42.9456C84.8242 44.8486 86.3622 46.3912 88.2594 46.3912Z" fill="#7AD6EB" stroke="#130C49" stroke-width="1.29293" stroke-miterlimit="10"/>
<path id="Vector_19" d="M110.814 78.8776C112.711 78.8776 114.249 77.3349 114.249 75.4319C114.249 73.529 112.711 71.9863 110.814 71.9863C108.917 71.9863 107.379 73.529 107.379 75.4319C107.379 77.3349 108.917 78.8776 110.814 78.8776Z" fill="#7AD6EB" stroke="#130C49" stroke-width="1.29293" stroke-miterlimit="10"/>
<path id="Vector_20" d="M112.306 51.6666C114.204 51.6666 115.742 50.124 115.742 48.221C115.742 46.318 114.204 44.7754 112.306 44.7754C110.409 44.7754 108.871 46.318 108.871 48.221C108.871 50.124 110.409 51.6666 112.306 51.6666Z" fill="#7AD6EB" stroke="#130C49" stroke-width="1.29293" stroke-miterlimit="10"/>
<path id="Vector_21" d="M96.1383 20.8307C98.0356 20.8307 99.5735 19.288 99.5735 17.3851C99.5735 15.4821 98.0356 13.9395 96.1383 13.9395C94.2411 13.9395 92.7031 15.4821 92.7031 17.3851C92.7031 19.288 94.2411 20.8307 96.1383 20.8307Z" fill="#7AD6EB" stroke="#130C49" stroke-width="1.29293" stroke-miterlimit="10"/>
<path id="Vector_22" d="M84.2907 7.45179C86.1879 7.45179 87.7259 5.90913 87.7259 4.00617C87.7259 2.1032 86.1879 0.560547 84.2907 0.560547C82.3935 0.560547 80.8555 2.1032 80.8555 4.00617C80.8555 5.90913 82.3935 7.45179 84.2907 7.45179Z" fill="#7AD6EB" stroke="#130C49" stroke-width="1.29293" stroke-miterlimit="10"/>
<path id="Vector_23" d="M151.197 29.6373C153.094 29.6373 154.632 28.0947 154.632 26.1917C154.632 24.2888 153.094 22.7461 151.197 22.7461C149.3 22.7461 147.762 24.2888 147.762 26.1917C147.762 28.0947 149.3 29.6373 151.197 29.6373Z" fill="#7AD6EB" stroke="#130C49" stroke-width="1.29293" stroke-miterlimit="10"/>
<path id="Vector_24" d="M152.877 79.1412C154.774 79.1412 156.312 77.5986 156.312 75.6956C156.312 73.7927 154.774 72.25 152.877 72.25C150.979 72.25 149.441 73.7927 149.441 75.6956C149.441 77.5986 150.979 79.1412 152.877 79.1412Z" fill="#7AD6EB" stroke="#130C49" stroke-width="1.29293" stroke-miterlimit="10"/>
</g>
<defs>
<clipPath id="clip0_4597_11207">
<rect width="157" height="83" fill="white"/>
</clipPath>
</defs>
</svg>
