<svg width="26" height="26" viewBox="0 0 26 26" fill="none" xmlns="http://www.w3.org/2000/svg">
<path d="M20.7114 4.65039H4.69141V20.5504H20.7114V4.65039Z" fill="#61BD73"/>
<path d="M21.1417 20.9805H4.26172V4.23047H21.1417V20.9805ZM5.12173 20.1205H20.2817V5.08047H5.12173V20.1205Z" fill="#130C49"/>
<path d="M25.3906 24.21H24.3906V25.21H25.3906V24.21Z" fill="#130C49"/>
<path d="M22.3591 25.21H21.3391V24.21H22.3591V25.21ZM19.3091 25.21H18.2891V24.21H19.3091V25.21ZM16.2591 25.21H15.2391V24.21H16.2591V25.21ZM13.2091 25.21H12.1891V24.21H13.2091V25.21ZM10.1591 25.21H9.13907V24.21H10.1591V25.21ZM7.10907 25.21H6.08905V24.21H7.10907V25.21ZM4.05905 25.21H3.03906V24.21H4.05905V25.21Z" fill="#130C49"/>
<path d="M1 24.21H0V25.21H1V24.21Z" fill="#130C49"/>
<path d="M1 22.19H0V21.18H1V22.19ZM1 19.16H0V18.15H1V19.16ZM1 16.13H0V15.12H1V16.13ZM1 13.1H0V12.09H1V13.1ZM1 10.07H0V9.06H1V10.07ZM1 7.04H0V6.03H1V7.04ZM1 4.01H0V3H1V4.01Z" fill="#130C49"/>
<path d="M1 0H0V1H1V0Z" fill="#130C49"/>
<path d="M22.3591 1H21.3391V0H22.3591V1ZM19.3091 1H18.2891V0H19.3091V1ZM16.2591 1H15.2391V0H16.2591V1ZM13.2091 1H12.1891V0H13.2091V1ZM10.1591 1H9.13907V0H10.1591V1ZM7.10907 1H6.08905V0H7.10907V1ZM4.05905 1H3.03906V0H4.05905V1Z" fill="#130C49"/>
<path d="M25.3906 0H24.3906V1H25.3906V0Z" fill="#130C49"/>
<path d="M25.3906 22.19H24.3906V21.18H25.3906V22.19ZM25.3906 19.16H24.3906V18.15H25.3906V19.16ZM25.3906 16.13H24.3906V15.12H25.3906V16.13ZM25.3906 13.1H24.3906V12.09H25.3906V13.1ZM25.3906 10.07H24.3906V9.06H25.3906V10.07ZM25.3906 7.04H24.3906V6.03H25.3906V7.04ZM25.3906 4.01H24.3906V3H25.3906V4.01Z" fill="#130C49"/>
</svg>
