<svg width="152" height="165" viewBox="0 0 152 165" fill="none" xmlns="http://www.w3.org/2000/svg">
<path d="M75.72 23.0391L0.148438 65.7892" stroke="#61BB73" stroke-width="0.200327" stroke-miterlimit="10"/>
<path d="M75.72 44.7305L0.148438 87.4806" stroke="#61BB73" stroke-width="0.200327" stroke-miterlimit="10"/>
<path d="M75.72 66.75L0.148438 109.5" stroke="#61BB73" stroke-width="0.200327" stroke-miterlimit="10"/>
<path d="M19.4727 32.6152V120.737" stroke="#61BB73" stroke-width="0.200327" stroke-miterlimit="10"/>
<path d="M38.2734 21.8535V109.975" stroke="#61BB73" stroke-width="0.200327" stroke-miterlimit="10"/>
<path d="M56.2969 10.5449L56.7696 98.7293" stroke="#61BB73" stroke-width="0.200327" stroke-miterlimit="10"/>
<path d="M75.7148 23.1348L151.281 65.8849" stroke="#61BB73" stroke-width="0.200327" stroke-miterlimit="10"/>
<path d="M75.7148 44.832L151.281 87.5822" stroke="#61BB73" stroke-width="0.200327" stroke-miterlimit="10"/>
<path d="M75.7148 66.8516L151.281 109.602" stroke="#61BB73" stroke-width="0.200327" stroke-miterlimit="10"/>
<path d="M131.402 32.1621V120.284" stroke="#61BB73" stroke-width="0.200327" stroke-miterlimit="10"/>
<path d="M113.16 21.9551V110.077" stroke="#61BB73" stroke-width="0.200327" stroke-miterlimit="10"/>
<path d="M95.1328 10.6426V98.7643" stroke="#61BB73" stroke-width="0.200327" stroke-miterlimit="10"/>
<path d="M56.7695 98.7305L131.987 141.751" stroke="#61BB73" stroke-width="0.200327" stroke-miterlimit="10"/>
<path d="M38.2734 109.674L113.932 153.078" stroke="#61BB73" stroke-width="0.200327" stroke-miterlimit="10"/>
<path d="M20.0078 120.9L95.6662 164.305" stroke="#61BB73" stroke-width="0.200327" stroke-miterlimit="10"/>
<path d="M95.1311 99.0645L19.4727 142.602" stroke="#61BB73" stroke-width="0.200327" stroke-miterlimit="10"/>
<path d="M113.16 109.822L37.4961 153.354" stroke="#61BB73" stroke-width="0.200327" stroke-miterlimit="10"/>
<path d="M131.432 120.379L56.2148 163.4" stroke="#61BB73" stroke-width="0.200327" stroke-miterlimit="10"/>
<path d="M75.9835 0.770436C75.8394 0.626392 75.6059 0.626392 75.4618 0.770436L73.1145 3.11776C72.9705 3.26181 72.9705 3.49535 73.1145 3.63939C73.2586 3.78344 73.4921 3.78344 73.6361 3.63939L75.7227 1.55288L77.8092 3.63939C77.9532 3.78344 78.1868 3.78344 78.3308 3.63939C78.4748 3.49535 78.4748 3.26181 78.3308 3.11776L75.9835 0.770436ZM75.3538 1.03125V87.8243H76.0915V1.03125H75.3538Z" fill="#61BB73"/>
<path d="M1.65892 130.731C1.60709 130.928 1.72477 131.13 1.92177 131.181L5.13214 132.026C5.32914 132.078 5.53087 131.96 5.5827 131.763C5.63453 131.566 5.51685 131.365 5.31984 131.313L2.46618 130.562L3.21699 127.708C3.26882 127.511 3.15114 127.309 2.95413 127.258C2.75713 127.206 2.55541 127.324 2.50357 127.521L1.65892 130.731ZM2.20149 131.143L75.9079 88.1428L75.5362 87.5056L1.82976 130.506L2.20149 131.143Z" fill="#61BB73"/>
<path d="M150.182 131.524C150.379 131.472 150.497 131.27 150.445 131.073L149.599 127.863C149.547 127.666 149.345 127.549 149.148 127.6C148.951 127.652 148.834 127.854 148.886 128.051L149.638 130.904L146.784 131.656C146.587 131.708 146.47 131.91 146.522 132.107C146.573 132.304 146.775 132.422 146.972 132.37L150.182 131.524ZM150.274 130.848L75.9084 87.5055L75.5369 88.1429L149.903 131.486L150.274 130.848Z" fill="#61BB73"/>
<path d="M75.8476 87.608C75.6829 87.8022 75.7068 88.0932 75.901 88.2579C76.0952 88.4226 76.3861 88.3987 76.5508 88.2045L75.8476 87.608ZM113.392 44.0526L108.379 45.8471L112.44 49.2906L113.392 44.0526ZM76.5508 88.2045L111.059 47.5154L110.356 46.919L75.8476 87.608L76.5508 88.2045Z" fill="#1B1464"/>
<path d="M113.391 44.4688V130.927L131.432 120.796" stroke="#1B1464" stroke-width="0.737694" stroke-linecap="round" stroke-dasharray="1.11 1.84"/>
</svg>
