<svg width="41" height="41" viewBox="0 0 41 41" fill="none" xmlns="http://www.w3.org/2000/svg">
<path d="M20.2954 38.7236C10.1883 38.7236 1.90777 30.4025 1.90777 20.2954C1.90777 18.0223 2.31368 15.871 3.0849 13.8415L13.8415 35.4764C13.9632 35.7605 14.1662 36.004 14.4909 36.004C14.8156 36.004 15.0186 35.7605 15.1404 35.4764L20.0924 24.3951C20.133 24.2733 20.2142 24.1515 20.336 24.1515C20.4578 24.1515 20.4984 24.2733 20.5795 24.3951L25.5316 35.4764C25.6534 35.7605 25.8563 36.004 26.1811 36.004C26.5058 36.004 26.7088 35.7605 26.8305 35.4764L37.5871 13.8415C38.3583 15.871 38.7642 18.0223 38.7642 20.2954C38.683 30.4025 30.4025 38.7236 20.2954 38.7236ZM20.2954 16.1145C20.1736 16.1145 20.133 15.9928 20.0519 15.871L14.288 2.88195C16.1551 2.1919 18.1847 1.82659 20.2954 1.82659C22.4061 1.82659 24.4357 2.1919 26.3028 2.88195L20.5389 15.871C20.4578 16.0334 20.4172 16.1145 20.2954 16.1145ZM14.4097 29.4689C14.288 29.4689 14.2474 29.3472 14.1662 29.2254L4.83031 10.3912C6.49453 7.83403 8.72702 5.68271 11.4466 4.18085L18.1847 19.1589C18.2659 19.4024 18.4688 19.4836 18.6718 19.4836H21.919C22.1626 19.4836 22.3249 19.443 22.4467 19.1589L29.1848 4.18085C31.8638 5.68271 34.1369 7.83403 35.8011 10.3912L26.384 29.2254C26.3434 29.3472 26.2623 29.4689 26.1405 29.4689C26.0187 29.4689 25.9781 29.3472 25.8969 29.2254L22.3655 21.1884C22.2438 20.9043 22.0814 20.8637 21.8379 20.8637H18.5906C18.347 20.8637 18.1847 20.9043 18.0629 21.1884L14.6533 29.2254C14.6127 29.3472 14.5315 29.4689 14.4097 29.4689ZM20.2954 40.5908C31.5391 40.5908 40.5908 31.5391 40.5908 20.2954C40.5908 9.05175 31.5391 0 20.2954 0C9.05175 0 0 9.05175 0 20.2954C0 31.5391 9.05175 40.5908 20.2954 40.5908Z" fill="#262262"/>
</svg>
