<svg width="114" height="106" viewBox="0 0 114 106" fill="none" xmlns="http://www.w3.org/2000/svg">
<path d="M27.5501 59.3784V45.343C27.5501 44.9252 27.3294 44.545 26.968 44.3337L14.8102 37.316C14.4488 37.1095 14.0075 37.1095 13.6461 37.316L1.48832 44.3337C1.12687 44.5403 0.90625 44.9252 0.90625 45.343V59.3784C0.90625 59.7962 1.12687 60.1764 1.48832 60.3876L13.6461 67.4053C14.0075 67.6119 14.4488 67.6119 14.8102 67.4053L26.968 60.3876C27.3294 60.1811 27.5501 59.7962 27.5501 59.3784Z" fill="#130C49" stroke="white" stroke-miterlimit="10"/>
<path d="M46.7258 23.1294V9.09396C46.7258 8.67618 46.5052 8.29596 46.1438 8.08472L33.986 1.06702C33.6246 0.860474 33.1833 0.860474 32.8219 1.06702L20.6641 8.08472C20.3027 8.29126 20.082 8.67618 20.082 9.09396V23.1294C20.082 23.5471 20.3027 23.9274 20.6641 24.1386L32.8219 31.1563C33.1833 31.3629 33.6246 31.3629 33.986 31.1563L46.1438 24.1386C46.5052 23.9321 46.7258 23.5471 46.7258 23.1294Z" fill="#130C49" stroke="white" stroke-miterlimit="10"/>
<path d="M46.7258 95.6118V81.5764C46.7258 81.1586 46.5052 80.7784 46.1438 80.5671L33.986 73.5494C33.6246 73.3429 33.1833 73.3429 32.8219 73.5494L20.6641 80.5671C20.3027 80.7737 20.082 81.1586 20.082 81.5764V95.6118C20.082 96.0296 20.3027 96.4098 20.6641 96.621L32.8219 103.639C33.1833 103.845 33.6246 103.845 33.986 103.639L46.1438 96.621C46.5052 96.4145 46.7258 96.0296 46.7258 95.6118Z" fill="#130C49" stroke="white" stroke-miterlimit="10"/>
<path d="M86.4492 44.9768V59.0122C86.4492 59.43 86.6698 59.8102 87.0313 60.0214L99.1891 67.0391C99.5505 67.2457 99.9917 67.2457 100.353 67.0391L112.511 60.0214C112.872 59.8149 113.093 59.43 113.093 59.0122V44.9768C113.093 44.559 112.872 44.1788 112.511 43.9675L100.353 36.9498C99.9917 36.7433 99.5505 36.7433 99.1891 36.9498L87.0313 43.9675C86.6698 44.1741 86.4492 44.559 86.4492 44.9768Z" fill="#130C49" stroke="white" stroke-miterlimit="10"/>
<path d="M66.3203 81.9279V95.9634C66.3203 96.3811 66.5409 96.7613 66.9024 96.9726L79.0601 103.99C79.4216 104.197 79.8628 104.197 80.2243 103.99L92.382 96.9726C92.7435 96.766 92.9641 96.3811 92.9641 95.9634V81.9279C92.9641 81.5102 92.7435 81.1299 92.382 80.9187L80.2243 73.901C79.8628 73.6945 79.4216 73.6945 79.0601 73.901L66.9024 80.9187C66.5409 81.1252 66.3203 81.5102 66.3203 81.9279Z" fill="#130C49" stroke="white" stroke-miterlimit="10"/>
<path d="M67.2773 9.09005V23.1255C67.2773 23.5432 67.498 23.9235 67.8594 24.1347L80.0172 31.1524C80.3786 31.3589 80.8199 31.3589 81.1813 31.1524L93.3391 24.1347C93.7005 23.9282 93.9212 23.5432 93.9212 23.1255V9.09005C93.9212 8.67227 93.7005 8.29205 93.3391 8.08082L81.1813 1.06311C80.8199 0.856568 80.3786 0.856568 80.0172 1.06311L67.8594 8.08082C67.498 8.28736 67.2773 8.67227 67.2773 9.09005Z" fill="#130C49" stroke="white" stroke-miterlimit="10"/>
<path d="M38.5935 10.9209H28.2148V21.2996H38.5935V10.9209Z" stroke="white" stroke-miterlimit="10"/>
<path d="M18.0404 54.557V50.1586L14.2288 47.957L10.4219 50.1586V54.557L14.2288 56.7585L18.0404 54.557Z" fill="#61BD73" stroke="white" stroke-miterlimit="10"/>
<path d="M103.926 47.8398H95.6172V56.1484H103.926V47.8398Z" stroke="white" stroke-miterlimit="10"/>
<path d="M80.5927 22.576C84.1626 22.576 87.0565 19.6821 87.0565 16.1122C87.0565 12.5424 84.1626 9.64844 80.5927 9.64844C77.0228 9.64844 74.1289 12.5424 74.1289 16.1122C74.1289 19.6821 77.0228 22.576 80.5927 22.576Z" fill="#61BD73" stroke="white" stroke-miterlimit="10"/>
<path d="M36.8644 79.6621H32.1562V84.3703H36.8644V79.6621Z" fill="#61BD73" stroke="white" stroke-miterlimit="10"/>
<path d="M41.4816 84.1729H36.7734V88.8811H41.4816V84.1729Z" fill="#130C49" stroke="white" stroke-miterlimit="10"/>
<path d="M32.5519 92.5H27.8438V97.2082H32.5519V92.5Z" fill="white" stroke="white" stroke-miterlimit="10"/>
<path d="M84.9497 91.7301V85.454L79.5139 82.3184L74.0781 85.454V91.7301L79.5139 94.8657L84.9497 91.7301Z" stroke="white" stroke-miterlimit="10"/>
<path d="M87.3019 89.3965H82.5938V94.1047H87.3019V89.3965Z" fill="#61BD73" stroke="white" stroke-miterlimit="10"/>
<path d="M40.5547 27.3643L46.6101 36.6164" stroke="white" stroke-miterlimit="10"/>
<path d="M66.3789 67.7383L72.7911 77.5349" stroke="white" stroke-miterlimit="10"/>
<path d="M45.2352 68.2969L39.6914 76.7698" stroke="white" stroke-miterlimit="10"/>
<path d="M73.4556 27.3643L68.3906 35.1002" stroke="white" stroke-miterlimit="10"/>
<path d="M86.4526 51.8535H27.5508" stroke="white" stroke-miterlimit="10"/>
<path d="M77.4951 62.6218V41.3716C77.4951 40.7426 77.1618 40.1652 76.6173 39.8507L58.2117 29.2232C57.6672 28.9087 56.9959 28.9087 56.4514 29.2232L38.0458 39.8507C37.5013 40.1652 37.168 40.7472 37.168 41.3716V62.6218C37.168 63.2508 37.5013 63.8282 38.0458 64.1427L56.4514 74.7702C56.9959 75.0847 57.6672 75.0847 58.2117 74.7702L76.6173 64.1427C77.1618 63.8282 77.4951 63.2462 77.4951 62.6218Z" fill="#130C49" stroke="white" stroke-miterlimit="10"/>
<path d="M62.4113 45.8232V51.5587L57.5614 48.8648L52.7021 51.5587V45.8232L46.9414 49.0248V55.0896L52.4016 58.1174L57.5614 55.2588L62.7165 58.1174L68.1767 55.0896V49.0294L62.4113 45.8232Z" fill="#61BD73"/>
</svg>
