<?xml version="1.0" encoding="UTF-8"?><svg id="Layer_2" xmlns="http://www.w3.org/2000/svg" xmlns:xlink="http://www.w3.org/1999/xlink" viewBox="0 0 189.91 144.52"><defs><style>.cls-1{fill:url(#linear-gradient);}.cls-1,.cls-2{stroke-width:0px;}.cls-2{fill:#fff;}</style><linearGradient id="linear-gradient" x1="72.09" y1="76.49" x2="117.82" y2="-2.71" gradientUnits="userSpaceOnUse"><stop offset="0" stop-color="#0075ba"/><stop offset=".07" stop-color="#2961b0"/><stop offset=".16" stop-color="#5b4ba4"/><stop offset=".26" stop-color="#873799"/><stop offset=".36" stop-color="#ac2690"/><stop offset=".47" stop-color="#ca1889"/><stop offset=".58" stop-color="#e10d84"/><stop offset=".7" stop-color="#f20580"/><stop offset=".83" stop-color="#fb017d"/><stop offset="1" stop-color="#ff007d"/></linearGradient></defs><g id="Layer_1-2"><path class="cls-1" d="m122.51,0v33.94l-27.55-15.95-27.55,15.95V0l-32.72,18.94v35.9l31,17.94,29.27-16.94,29.27,16.94,31-17.94V18.98L122.51,0ZM38.03,52.87v-31.89l25.83-14.93v61.68l-25.83-14.86Zm84.48,14.86l-27.55-15.86-27.55,15.86v-29.83l27.55-15.91,27.55,15.93v29.81Zm29.27-14.93l-25.83,14.93V6.04l25.83,14.93v31.82Z"/><polygon class="cls-2" points="49.68 102.55 44.55 89.5 43.54 89.5 38.35 102.55 34.65 89.5 31.74 89.5 37.49 109.8 38.49 109.8 44.06 95.88 49.52 109.8 50.52 109.8 56.35 89.5 53.45 89.5 49.68 102.55"/><path class="cls-2" d="m73.62,102.32c-.02-2.05-.58-3.8-1.68-5.18-1.54-1.96-3.63-2.95-6.21-2.95s-4.54.97-6.04,2.89c-1.18,1.5-1.77,3.23-1.77,5.14,0,2.04.7,3.88,2.09,5.5,1.4,1.63,3.36,2.46,5.83,2.46,1.11,0,2.12-.17,3-.51.88-.34,1.69-.84,2.4-1.49.7-.65,1.33-1.51,1.86-2.55l.2-.39-2.32-1.22-.22.36c-.54.89-1.04,1.54-1.48,1.93-.44.38-.99.7-1.63.93-.64.23-1.31.35-1.98.35-1.4,0-2.55-.48-3.5-1.46-.86-.89-1.34-1.99-1.45-3.35h12.9v-.45Zm-12.57-2.04c.34-.95.8-1.69,1.36-2.19.94-.84,2.03-1.25,3.34-1.25.79,0,1.54.17,2.26.5.71.33,1.28.77,1.71,1.3.34.42.62.97.84,1.64h-9.5Z"/><path class="cls-2" d="m88.66,96.41c-.57-.59-1.19-1.06-1.86-1.42-1.01-.53-2.16-.8-3.41-.8-2.15,0-4.02.79-5.56,2.34-1.53,1.55-2.31,3.44-2.31,5.62s.77,4.14,2.28,5.69c1.52,1.56,3.38,2.34,5.52,2.34,1.21,0,2.34-.26,3.36-.76.7-.35,1.36-.81,1.97-1.39v1.78h2.71v-15.25h-2.71v1.85Zm-1.4,1.99c1.02,1.04,1.51,2.3,1.51,3.85,0,1.01-.23,1.92-.67,2.72-.44.79-1.09,1.43-1.92,1.9-1.66.93-3.63.95-5.24,0-.8-.47-1.45-1.14-1.93-1.99-.48-.85-.72-1.75-.72-2.68s.24-1.84.71-2.68c.47-.84,1.12-1.5,1.91-1.96.8-.46,1.68-.7,2.62-.7,1.49,0,2.71.5,3.72,1.54Z"/><polygon class="cls-2" points="100.51 104.4 95.97 94.55 93.03 94.55 100.05 109.8 100.96 109.8 107.94 94.55 104.98 94.55 100.51 104.4"/><rect class="cls-2" x="109.34" y="94.55" width="2.74" height="15.25"/><path class="cls-2" d="m109.32,89.22c-.38.38-.58.85-.58,1.4s.19,1,.58,1.38c.38.38.85.58,1.38.58s1.01-.19,1.39-.58c.38-.38.58-.85.58-1.38s-.19-1.01-.58-1.4c-.76-.76-2-.78-2.77,0Z"/><path class="cls-2" d="m127.51,96.41c-.57-.59-1.19-1.06-1.86-1.42-1.01-.53-2.16-.8-3.41-.8-2.15,0-4.02.79-5.56,2.34-1.53,1.55-2.31,3.44-2.31,5.62s.77,4.14,2.28,5.69c1.52,1.56,3.38,2.34,5.52,2.34,1.21,0,2.34-.26,3.36-.76.7-.35,1.36-.81,1.97-1.39v1.78h2.71v-15.25h-2.71v1.85Zm-1.4,1.99c1.02,1.04,1.51,2.3,1.51,3.85,0,1.01-.23,1.92-.67,2.72-.44.79-1.09,1.43-1.92,1.9-1.66.93-3.63.95-5.24,0-.8-.47-1.45-1.14-1.93-1.99-.48-.85-.72-1.75-.72-2.68s.24-1.84.71-2.68c.47-.84,1.12-1.5,1.91-1.96.8-.46,1.68-.7,2.62-.7,1.49,0,2.71.5,3.72,1.54Z"/><polygon class="cls-2" points="137.83 89.22 135.1 89.22 135.1 94.55 132.58 94.55 132.58 97.04 135.1 97.04 135.1 109.8 137.83 109.8 137.83 97.04 140.76 97.04 140.76 94.55 137.83 94.55 137.83 89.22"/><path class="cls-2" d="m154.79,104.36c-.54.89-1.04,1.54-1.48,1.93-.44.38-.99.7-1.62.93-.64.23-1.31.35-1.98.35-1.4,0-2.55-.48-3.5-1.46-.86-.89-1.34-1.99-1.45-3.35h12.9v-.45c-.02-2.05-.59-3.8-1.68-5.18-1.54-1.96-3.63-2.95-6.21-2.95s-4.54.97-6.04,2.89c-1.18,1.5-1.77,3.23-1.77,5.14,0,2.04.7,3.88,2.09,5.5,1.4,1.63,3.36,2.46,5.83,2.46,1.11,0,2.12-.17,3-.51.88-.34,1.69-.84,2.4-1.49.7-.65,1.33-1.51,1.86-2.55l.2-.39-2.32-1.22-.22.36Zm-9.71-4.08c.34-.95.8-1.69,1.36-2.19h0c.94-.84,2.03-1.25,3.34-1.25.79,0,1.54.17,2.26.5.71.33,1.28.77,1.71,1.3.34.42.62.97.84,1.64h-9.5Z"/><path class="cls-2" d="m18.97,128.23l-1.53,1.17c-.84-1.1-1.86-1.93-3.04-2.5-1.18-.57-2.48-.85-3.9-.85-1.55,0-2.98.37-4.3,1.12-1.32.74-2.34,1.74-3.07,3-.73,1.25-1.09,2.66-1.09,4.23,0,2.37.81,4.34,2.43,5.92,1.62,1.58,3.67,2.38,6.14,2.38,2.72,0,4.99-1.06,6.82-3.19l1.53,1.16c-.97,1.23-2.17,2.18-3.62,2.86-1.45.67-3.06,1.01-4.85,1.01-3.4,0-6.07-1.13-8.04-3.39-1.64-1.91-2.47-4.21-2.47-6.91,0-2.84,1-5.23,2.99-7.17,1.99-1.94,4.49-2.91,7.49-2.91,1.81,0,3.45.36,4.91,1.08,1.46.72,2.66,1.72,3.59,3.02Z"/><path class="cls-2" d="m22.29,124.14h1.85v19.9h-1.85v-19.9Z"/><path class="cls-2" d="m34.77,129.31c2.21,0,4.05.8,5.5,2.4,1.32,1.46,1.98,3.19,1.98,5.19s-.7,3.76-2.1,5.26c-1.4,1.5-3.19,2.25-5.39,2.25s-4-.75-5.4-2.25c-1.4-1.5-2.1-3.25-2.1-5.26s.66-3.71,1.98-5.17c1.45-1.61,3.29-2.42,5.51-2.42Zm0,1.81c-1.54,0-2.86.57-3.96,1.7-1.1,1.14-1.66,2.51-1.66,4.12,0,1.04.25,2.01.75,2.9.5.9,1.18,1.59,2.04,2.08.86.49,1.8.73,2.82.73s1.96-.24,2.82-.73c.86-.49,1.54-1.18,2.04-2.08.5-.9.75-1.86.75-2.9,0-1.61-.55-2.98-1.66-4.12-1.11-1.13-2.43-1.7-3.95-1.7Z"/><path class="cls-2" d="m45.43,129.68h1.85v6.7c0,1.64.09,2.76.26,3.38.26.88.77,1.57,1.51,2.09s1.63.77,2.66.77,1.91-.25,2.62-.75,1.21-1.15,1.49-1.96c.18-.55.28-1.73.28-3.52v-6.7h1.89v7.05c0,1.98-.23,3.47-.69,4.47s-1.16,1.79-2.09,2.36-2.09.85-3.49.85-2.57-.28-3.5-.85-1.64-1.36-2.1-2.38c-.46-1.02-.69-2.54-.69-4.59v-6.91Z"/><path class="cls-2" d="m76.43,124.14v19.9h-1.82v-2.47c-.77.94-1.64,1.65-2.61,2.12-.96.48-2.02.71-3.16.71-2.03,0-3.77-.74-5.21-2.21-1.44-1.47-2.16-3.27-2.16-5.38s.73-3.84,2.18-5.3c1.45-1.47,3.2-2.2,5.24-2.2,1.18,0,2.25.25,3.2.75.95.5,1.79,1.25,2.51,2.26v-8.18h1.82Zm-7.38,6.95c-1.03,0-1.98.25-2.85.76-.87.5-1.56,1.21-2.08,2.13-.51.91-.77,1.88-.77,2.9s.26,1.98.78,2.9c.52.92,1.21,1.64,2.09,2.16s1.81.77,2.81.77,1.97-.25,2.87-.76,1.6-1.2,2.09-2.07c.49-.87.73-1.85.73-2.94,0-1.66-.55-3.05-1.64-4.17-1.09-1.12-2.44-1.67-4.04-1.67Z"/><path class="cls-2" d="m86.39,140.42l1.65-.99c1.16,2.14,2.5,3.21,4.02,3.21.65,0,1.26-.15,1.83-.46.57-.3,1.01-.71,1.31-1.22.3-.51.45-1.05.45-1.62,0-.65-.22-1.29-.66-1.91-.61-.86-1.72-1.9-3.33-3.11-1.62-1.22-2.63-2.11-3.02-2.65-.69-.91-1.03-1.9-1.03-2.97,0-.84.2-1.61.61-2.31.4-.7.97-1.24,1.71-1.64s1.53-.6,2.4-.6c.92,0,1.77.23,2.57.68.8.45,1.64,1.29,2.53,2.5l-1.58,1.2c-.73-.97-1.35-1.61-1.87-1.91-.51-.31-1.08-.46-1.68-.46-.78,0-1.42.24-1.92.71-.5.48-.75,1.06-.75,1.76,0,.42.09.83.26,1.23s.5.83.96,1.29c.26.25,1.09.89,2.51,1.94,1.68,1.24,2.83,2.34,3.46,3.31.62.97.94,1.94.94,2.92,0,1.41-.53,2.63-1.6,3.67-1.07,1.04-2.37,1.56-3.9,1.56-1.18,0-2.25-.31-3.21-.94-.96-.63-1.84-1.68-2.65-3.16Z"/><path class="cls-2" d="m113.64,139.27l1.56.82c-.51,1-1.1,1.81-1.77,2.43-.67.62-1.42,1.08-2.26,1.41-.84.32-1.78.48-2.84.48-2.34,0-4.17-.77-5.49-2.3-1.32-1.53-1.98-3.27-1.98-5.21,0-1.82.56-3.44,1.68-4.87,1.42-1.81,3.31-2.72,5.69-2.72s4.4.93,5.86,2.78c1.04,1.31,1.57,2.95,1.58,4.91h-12.92c.04,1.67.57,3.03,1.6,4.1s2.3,1.6,3.82,1.6c.73,0,1.44-.13,2.13-.38.69-.25,1.28-.59,1.76-1.01.48-.42,1.01-1.1,1.57-2.04Zm0-3.87c-.25-.99-.61-1.77-1.08-2.36s-1.09-1.06-1.87-1.43c-.77-.36-1.59-.54-2.44-.54-1.41,0-2.62.45-3.63,1.36-.74.66-1.3,1.65-1.68,2.97h10.7Z"/><path class="cls-2" d="m118.42,129.68h1.89v2.1c.56-.83,1.16-1.44,1.78-1.85.63-.41,1.28-.61,1.95-.61.51,0,1.06.16,1.64.49l-.96,1.56c-.39-.17-.71-.25-.98-.25-.62,0-1.21.25-1.78.76-.57.51-1.01,1.29-1.31,2.36-.23.82-.34,2.47-.34,4.96v4.86h-1.89v-14.36Z"/><path class="cls-2" d="m125.89,129.68h1.97l4.82,10.47,4.76-10.47h1.98l-6.57,14.36h-.34l-6.61-14.36Z"/><path class="cls-2" d="m142.86,123.77c.42,0,.78.15,1.08.45s.45.66.45,1.08-.15.77-.45,1.07c-.3.3-.66.45-1.08.45s-.77-.15-1.06-.45c-.3-.3-.45-.66-.45-1.07s.15-.78.45-1.08.65-.45,1.06-.45Zm-.92,5.91h1.85v14.36h-1.85v-14.36Z"/><path class="cls-2" d="m161.57,132.66l-1.47.91c-1.27-1.68-2.99-2.52-5.18-2.52-1.75,0-3.2.56-4.36,1.69-1.16,1.13-1.73,2.49-1.73,4.1,0,1.05.27,2.03.8,2.95.53.92,1.26,1.64,2.19,2.15.93.51,1.97.76,3.12.76,2.11,0,3.83-.84,5.17-2.52l1.47.96c-.69,1.03-1.61,1.84-2.77,2.41s-2.47.85-3.95.85c-2.27,0-4.15-.72-5.65-2.16-1.5-1.44-2.24-3.2-2.24-5.27,0-1.39.35-2.68,1.05-3.87.7-1.19,1.66-2.12,2.88-2.79s2.59-1,4.1-1c.95,0,1.87.15,2.75.44.88.29,1.63.67,2.25,1.14s1.14,1.06,1.57,1.78Z"/><path class="cls-2" d="m177.21,139.27l1.56.82c-.51,1-1.1,1.81-1.77,2.43-.67.62-1.42,1.08-2.26,1.41-.84.32-1.78.48-2.84.48-2.34,0-4.17-.77-5.49-2.3-1.32-1.53-1.98-3.27-1.98-5.21,0-1.82.56-3.44,1.68-4.87,1.42-1.81,3.31-2.72,5.69-2.72s4.4.93,5.86,2.78c1.04,1.31,1.57,2.95,1.58,4.91h-12.92c.04,1.67.57,3.03,1.6,4.1s2.3,1.6,3.82,1.6c.73,0,1.44-.13,2.13-.38.69-.25,1.28-.59,1.76-1.01.48-.42,1.01-1.1,1.57-2.04Zm0-3.87c-.25-.99-.61-1.77-1.08-2.36s-1.09-1.06-1.87-1.43c-.77-.36-1.59-.54-2.44-.54-1.41,0-2.62.45-3.63,1.36-.74.66-1.3,1.65-1.68,2.97h10.7Z"/><path class="cls-2" d="m189.9,131.25l-1.19,1.23c-.99-.96-1.95-1.44-2.9-1.44-.6,0-1.11.2-1.54.59-.43.4-.64.86-.64,1.39,0,.47.18.91.53,1.33.35.43,1.09.94,2.22,1.52,1.37.71,2.31,1.4,2.8,2.06.48.67.73,1.42.73,2.26,0,1.18-.41,2.18-1.24,3-.83.82-1.86,1.23-3.11,1.23-.83,0-1.62-.18-2.37-.54-.75-.36-1.38-.86-1.87-1.49l1.16-1.32c.94,1.06,1.94,1.6,3,1.6.74,0,1.37-.24,1.89-.71s.78-1.03.78-1.68c0-.53-.17-1-.51-1.41-.34-.4-1.12-.91-2.33-1.53-1.3-.67-2.18-1.33-2.65-1.98s-.7-1.39-.7-2.23c0-1.09.37-2,1.12-2.72.74-.72,1.69-1.08,2.82-1.08,1.32,0,2.65.65,3.99,1.94Z"/></g></svg>