<svg width="119" height="79" viewBox="0 0 119 79" fill="none" xmlns="http://www.w3.org/2000/svg">
<g id="Group">
<path id="Vector" opacity="0.6" d="M1.49369 62.895C1.53734 62.8429 1.57226 62.7778 1.58972 62.6953C1.59408 62.6736 1.59845 62.6476 1.60718 62.6258C2.37974 60.8115 3.5364 59.175 5.17319 58.0118C7.38612 56.4361 10.1141 55.8762 12.7984 55.9413C16.3251 56.0194 19.5638 57.2999 22.8155 58.5326C25.9669 59.7307 29.3103 60.8939 32.7366 60.4208C36.4816 59.8999 39.5893 57.4084 42.457 55.1296C45.5952 52.6337 48.5589 49.9252 51.5357 47.2427C57.2229 42.1164 63.0804 36.9858 70.0859 33.7043C73.617 32.0505 77.3881 30.9697 81.2859 30.6181C85.4978 30.2404 89.736 30.5833 93.9262 31.0652C94.6551 31.1476 95.384 31.2344 96.1086 31.3256C89.6051 33.6088 83.071 35.957 77.1175 39.4556C70.9414 43.0843 65.8608 48.0978 60.6493 52.9332C55.6123 57.6081 50.235 62.1744 43.7446 64.7137C40.6325 65.9291 37.3153 66.6322 33.9631 66.5411C30.1309 66.4326 26.4121 65.3648 22.6148 64.9698C19.2845 64.6225 15.6661 64.7788 12.698 66.489C10.8954 67.5221 9.37645 69.1802 8.59952 71.1161C8.28962 69.5839 7.77022 68.1081 6.8187 66.8536C5.47872 65.0913 3.30507 63.8195 1.07031 64.0886C1.19689 63.685 1.33656 63.2856 1.49369 62.895Z" fill="#61BD73"/>
<path id="Vector_2" opacity="0.3" d="M96.499 29.6021C96.822 29.6021 97.0751 29.6021 97.2803 29.6151H97.9699C97.6775 29.9233 97.4025 30.2445 97.1362 30.57C97.1188 30.5613 97.1013 30.5613 97.0795 30.557C92.8151 30.0274 88.5289 29.5022 84.2253 29.576C80.201 29.6498 76.2378 30.3183 72.471 31.742C65.2604 34.4592 59.1497 39.2947 53.445 44.3385C50.394 47.0427 47.4129 49.8294 44.3008 52.4641C42.7339 53.7924 41.132 55.0902 39.4734 56.3013C37.9195 57.4342 36.274 58.515 34.4321 59.1183C30.9403 60.2686 27.3743 59.2702 24.0527 58.0505C20.7224 56.8265 17.4445 55.381 13.861 55.1032C11.1068 54.8906 8.23481 55.2465 5.78618 56.5834C4.87831 57.0782 4.07083 57.6946 3.35938 58.4065C3.73038 57.6772 4.11448 56.9567 4.50731 56.2361C5.2886 54.8037 5.39335 53.189 5.7338 51.6177C6.07426 50.0594 6.57184 48.5315 7.1829 47.0557C8.45305 43.9999 10.2295 41.1612 12.1718 38.4873C13.1408 37.1591 14.2014 35.9003 15.1704 34.5721C16.1394 33.2482 16.8203 31.7767 16.7024 30.1012C16.4842 26.9282 14.6685 23.8334 12.3377 21.6674C14.5724 21.0076 16.9556 21.9799 18.8455 23.1866C20.8752 24.4758 22.7302 25.9993 24.8034 27.2321C28.8277 29.6281 33.4588 31.3513 38.2207 30.9477C42.6684 30.57 46.7014 28.5256 50.5599 26.4464C54.6758 24.2284 58.7613 21.9756 63.4228 21.1248C68.9355 20.1221 74.745 20.8383 79.8911 23.0217C79.9565 23.0477 80.0176 23.0607 80.0788 23.0607C80.4236 23.6077 80.7771 24.1459 81.1438 24.6798C81.9032 25.7997 82.8766 26.6635 84.0987 27.1757C87.5599 28.6298 91.1172 29.741 94.9451 29.6021H96.4946H96.499Z" fill="#61BD73"/>
<path id="Vector_3" d="M105.851 7.72598C106.41 8.21647 106.449 9.08026 105.943 9.71399C105.297 10.5127 104.886 10.721 103.799 10.7818C102.682 10.8469 102.241 10.2175 102.717 9.23218C102.935 8.7851 103.651 8.49861 103.175 7.81714C103.145 7.77373 103.28 7.5784 103.372 7.48725C103.813 7.05753 105.253 7.20077 105.851 7.72598Z" fill="#130C49"/>
<path id="Vector_4" d="M98.9683 29.6161H97.9688C98.0473 29.525 98.1302 29.4338 98.2175 29.347C98.5056 29.0475 98.9159 29.2993 98.9683 29.6161Z" fill="#130C49"/>
<path id="Vector_5" d="M97.4641 31.2473C97.5732 31.0129 97.4641 30.644 97.1367 30.5702C97.403 30.2446 97.678 29.9234 97.9704 29.6152H98.9699C98.9874 29.7324 98.9568 29.8626 98.8477 29.9755C98.3719 30.4747 97.9224 30.9912 97.5034 31.5294C97.5165 31.434 97.5034 31.3341 97.4641 31.2473Z" fill="#130C49"/>
<path id="Vector_6" d="M97.0803 31.4434C97.2767 31.4694 97.4077 31.3783 97.4644 31.248C97.5037 31.3349 97.5168 31.4347 97.5037 31.5302C97.4077 31.643 97.316 31.7602 97.2244 31.8774C97.22 31.8818 97.2113 31.8818 97.2025 31.8861C96.7181 32.0554 96.2379 32.2203 95.7578 32.394C95.9935 32.0467 96.2423 31.7082 96.4998 31.3739C96.6962 31.3956 96.8883 31.4173 97.0803 31.4434Z" fill="#130C49"/>
<path id="Vector_7" d="M97.502 31.5293C97.4758 31.6725 97.3929 31.8114 97.2227 31.8765C97.3143 31.7594 97.406 31.6422 97.502 31.5293Z" fill="#130C49"/>
<path id="Vector_8" d="M97.4646 31.2475C97.4079 31.3777 97.2769 31.4689 97.0805 31.4428C96.8885 31.4168 96.6964 31.3951 96.5 31.3734C96.5611 31.2909 96.6266 31.2041 96.6921 31.1216C96.7837 31.0912 96.871 31.0565 96.9627 31.0261C97.2071 30.9393 97.3904 31.0652 97.4646 31.2475Z" fill="#130C49"/>
<path id="Vector_9" d="M97.464 31.2474C97.3898 31.0651 97.2064 30.9393 96.962 31.0261C96.8704 31.0565 96.7831 31.0912 96.6914 31.1216C96.8354 30.9349 96.9838 30.7526 97.1366 30.5703C97.464 30.6441 97.5731 31.0131 97.464 31.2474Z" fill="#130C49"/>
<path id="Vector_10" d="M96.6899 31.1211C96.6244 31.2036 96.5589 31.2904 96.4978 31.3729C96.3713 31.3555 96.2403 31.3381 96.1094 31.3251C96.3014 31.2557 96.4978 31.1905 96.6899 31.1211Z" fill="#130C49"/>
<path id="Vector_11" d="M101.583 41.452C103.229 41.07 104.805 40.4406 106.337 39.7331C109.409 38.3224 112.369 36.6165 115.647 35.7006C116.201 35.5444 116.437 36.4038 115.882 36.5557C113.853 37.1244 111.937 38.0055 110.047 38.9257C106.847 40.4883 103.613 42.2072 100.021 42.6153C99.1871 42.7107 98.2575 42.8062 97.4369 42.5849C96.625 42.3678 96.1755 41.7732 95.9834 40.9832C95.5426 39.1427 95.2021 37.2719 94.8398 35.4098C94.866 35.3664 94.8966 35.3187 94.9228 35.2752C95.1192 34.954 95.32 34.6372 95.5295 34.3203C95.7652 35.4662 95.9965 36.6078 96.2322 37.7537C96.4504 38.8215 96.577 39.9631 96.9131 41.0005C97.2099 41.9207 98.2793 41.8339 99.078 41.8036C99.9204 41.7688 100.758 41.6429 101.583 41.452Z" fill="#130C49"/>
<path id="Vector_12" d="M94.67 34.1208C94.8358 33.7909 95.4076 33.7258 95.4993 34.1729C95.508 34.2206 95.5211 34.2727 95.5298 34.3205C95.3203 34.6373 95.1195 34.9542 94.9231 35.2754C94.8969 35.3188 94.8664 35.3666 94.8402 35.41C94.7747 35.0757 94.7093 34.7459 94.6394 34.4116C94.6176 34.2988 94.6307 34.2033 94.67 34.1208Z" fill="#130C49"/>
<path id="Vector_13" d="M97.2259 31.877C96.6236 32.6626 96.0649 33.483 95.5324 34.3207C95.5237 34.273 95.5106 34.2209 95.5019 34.1731C95.4102 33.7261 94.8384 33.7912 94.6725 34.1211L94.6289 34.095C94.9912 33.5177 95.3665 32.9491 95.7594 32.3935C96.2395 32.2199 96.7196 32.0549 97.2041 31.8856C97.2128 31.8813 97.2216 31.8813 97.2259 31.877Z" fill="#130C49"/>
<path id="Vector_14" d="M95.8393 22.7715C99.4577 22.4503 102.998 21.7645 106.332 20.2323C107.995 19.4683 109.169 17.324 108.807 15.5183C108.737 15.1581 108.593 14.902 108.218 14.8499C107.615 14.7717 107.039 14.4983 106.411 14.6068C106.179 14.6285 105.939 14.6285 105.717 14.6806C105.494 14.737 105.25 14.8846 105.128 14.5808C104.979 14.2205 105.141 13.9601 105.464 13.7691C106.101 13.3871 106.839 13.5954 107.467 13.6171C109.405 13.6779 110.06 14.7891 109.759 16.7294C109.383 19.1428 108.087 20.5318 105.791 21.4433C102.67 22.6804 99.4839 23.3749 96.1754 23.657C93.1987 23.9088 90.929 21.9338 90.9814 19.1341C90.9857 19.0212 91.0774 18.8346 91.1647 18.8129C91.2651 18.7912 91.4615 18.8736 91.5095 18.9691C91.7408 19.4249 92.042 19.8807 92.1249 20.3668C92.4567 22.2984 94.2331 22.9148 95.8393 22.7715Z" fill="#130C49"/>
<path id="Vector_15" d="M92.3713 6.86705C91.1492 6.78892 89.7568 7.73084 89.639 8.7639C89.5691 9.37593 89.8616 8.92885 90.0667 8.89846C90.9091 8.78127 91.817 9.44972 91.8126 10.1486C91.734 10.4177 91.4765 10.7302 91.9566 10.9255C92.7641 11.2598 94.8505 9.89681 94.8592 9.02434C94.8679 7.96089 93.7069 6.95386 92.3713 6.86705ZM95.623 8.32116C95.7714 8.69011 95.8544 9.02868 95.6972 9.38895C95.1211 10.7432 94.043 11.6114 92.6506 11.7763C91.2845 11.9326 89.9838 11.429 89.0366 10.3222C88.6787 9.89681 88.7442 9.35857 88.766 8.84638C88.7791 8.40797 89.2941 7.93919 88.5652 7.53551C88.2728 7.3749 88.6569 7.0537 88.8446 6.89744C89.6651 6.21596 90.6472 5.95118 91.6948 5.87305C94.1259 6.10744 94.8461 6.36788 95.623 8.32116Z" fill="#130C49"/>
<path id="Vector_16" d="M101.301 47.2395C101.65 47.539 101.72 48.0034 101.702 48.4375C101.681 49.1059 101.576 49.7831 101.493 50.4472C101.327 51.7928 101.122 53.1384 100.851 54.4666C100.598 55.7167 100.21 56.9017 99.4327 57.9304C98.682 58.9201 97.7305 59.7361 96.8183 60.5695C95.7751 61.5288 94.7319 62.4838 93.6887 63.4387C93.2653 63.825 92.6324 63.2 93.0558 62.8136C94.1514 61.8066 95.2469 60.8039 96.3425 59.8013C97.2766 58.9461 98.2848 58.1041 98.9744 57.0319C99.6379 56.0119 99.8867 54.8182 100.105 53.6376C100.341 52.3744 100.533 51.1026 100.677 49.8265C100.716 49.4792 100.751 49.132 100.781 48.7847C100.799 48.5938 100.864 48.3377 100.812 48.151C100.651 47.5997 99.5506 48.0338 99.1316 48.1163C97.8571 48.368 96.5826 48.6241 95.308 48.8759C90.4326 49.8482 85.5615 50.8162 80.6861 51.7841C80.6686 51.5975 80.6468 51.4065 80.625 51.2198C80.852 51.0722 81.0746 50.916 81.2972 50.7597C83.9728 50.2258 86.6527 49.6963 89.3283 49.1624C92.1654 48.5981 94.9981 48.0338 97.8352 47.4739C98.5685 47.3263 99.3018 47.1613 100.035 47.0355C100.472 46.9617 100.943 46.9313 101.301 47.2395Z" fill="#130C49"/>
<path id="Vector_17" d="M84.4746 47.1349C87.2811 44.6478 89.7428 41.7916 91.7812 38.6534C92.7545 37.1558 93.658 35.6019 94.627 34.0957L94.6706 34.1217C94.6314 34.2042 94.6183 34.2997 94.6401 34.4126C94.7099 34.7468 94.7754 35.0767 94.8409 35.4109C92.8549 38.6056 90.8995 41.7526 88.3548 44.5523C86.2467 46.8788 83.8722 48.958 81.297 50.7594C81.057 50.8071 80.8213 50.8549 80.5812 50.9026C80.5157 50.6378 80.2539 50.5206 80.0312 50.551C81.5895 49.5136 83.0735 48.372 84.4746 47.1349Z" fill="#130C49"/>
<path id="Vector_18" d="M80.5801 50.903C80.8201 50.8553 81.0558 50.8075 81.2959 50.7598C81.0733 50.916 80.8507 51.0723 80.6237 51.2199L80.5975 50.9725C80.5932 50.9464 80.5888 50.9247 80.5801 50.903Z" fill="#130C49"/>
<path id="Vector_19" d="M80.598 50.9718L80.6242 51.2192C80.3492 51.4059 80.0699 51.5882 79.7905 51.7661C79.7687 51.5361 79.7469 51.306 79.7207 51.076C79.7338 51.0716 79.7469 51.0673 79.7644 51.0629C80.035 51.0109 80.3099 50.9544 80.5806 50.9023C80.5893 50.924 80.5937 50.9458 80.598 50.9718Z" fill="#130C49"/>
<path id="Vector_20" d="M80.3441 22.2542C80.8024 22.4538 80.5099 23.0615 80.0822 23.0615C79.8247 22.6578 79.5672 22.2498 79.3184 21.8418C79.6632 21.972 80.008 22.1109 80.3484 22.2542H80.3441Z" fill="#130C49"/>
<path id="Vector_21" d="M80.0005 51.9176C79.9307 51.9306 79.8696 51.9306 79.8085 51.9132C79.8041 51.8655 79.7997 51.8134 79.791 51.7657C80.0704 51.5877 80.3497 51.4054 80.6247 51.2188C80.6465 51.4054 80.6683 51.5964 80.6858 51.783C80.4588 51.8264 80.2275 51.8742 80.0005 51.9176Z" fill="#130C49"/>
<path id="Vector_22" d="M80.0337 50.5508C79.942 50.6159 79.846 50.6767 79.75 50.7374C79.8067 50.6289 79.9115 50.5681 80.0337 50.5508Z" fill="#130C49"/>
<path id="Vector_23" d="M79.7905 51.7656C79.7993 51.8134 79.8036 51.8655 79.808 51.9132C79.7469 51.9045 79.6945 51.8785 79.6465 51.8438C79.6858 51.8307 79.7207 51.8134 79.76 51.7873C79.7687 51.7786 79.7818 51.7743 79.7905 51.7656Z" fill="#130C49"/>
<path id="Vector_24" d="M79.6418 51.8445C79.3799 51.6491 79.3493 51.1847 79.7203 51.0762C79.7465 51.3062 79.7683 51.5363 79.7902 51.7663C79.7814 51.775 79.7683 51.7794 79.7596 51.788C79.7203 51.8141 79.6854 51.8314 79.6461 51.8445H79.6418Z" fill="#130C49"/>
<path id="Vector_25" d="M79.7662 51.0638C79.7662 51.0638 79.7356 51.0724 79.7225 51.0768L79.7094 50.9726C79.6963 50.8771 79.7138 50.799 79.7487 50.7382C79.8447 50.6774 79.9408 50.6167 80.0324 50.5516C80.255 50.5212 80.5169 50.6384 80.5824 50.9032C80.3118 50.9552 80.0368 51.0117 79.7662 51.0638Z" fill="#130C49"/>
<path id="Vector_26" d="M79.7217 51.0749C79.3507 51.1834 79.3813 51.6479 79.6432 51.8432C79.211 51.9777 78.8706 51.305 79.3114 51.0228C79.4598 50.9273 79.6039 50.8362 79.7479 50.7363C79.713 50.7971 79.6955 50.8752 79.7086 50.9707L79.7217 51.0749Z" fill="#130C49"/>
<path id="Vector_27" d="M102.615 1.62309C103.13 2.10925 103.972 2.10925 104.679 2.29155C106.7 2.81243 108.738 3.1727 110.615 4.27088C112.902 5.61213 114.679 7.37443 116.111 9.53172C116.774 10.5344 117.756 11.3418 118.048 12.5788C118.577 14.8273 118.546 17.1061 118.31 19.3763C118.127 21.1386 117.053 22.4755 115.726 23.5476C112.641 26.0391 109.022 27.3326 105.155 28.0792C103.234 28.4482 101.345 28.9951 99.4328 29.4118C99.2364 29.4552 99.088 29.5246 98.9832 29.6158H98.9701C98.9178 29.2989 98.5075 29.0472 98.2194 29.3467C98.1321 29.4335 98.0492 29.5246 97.9706 29.6158H97.281C97.0758 29.6028 96.8227 29.6028 96.4997 29.6028H94.9502C91.1223 29.7417 87.565 28.6305 84.1038 27.1764C82.8816 26.6642 81.9083 25.8004 81.1488 24.6805C80.7822 24.1466 80.4286 23.6084 80.0838 23.0615C80.5116 23.0615 80.804 22.4538 80.3457 22.2541C80.0052 22.1109 79.6604 21.972 79.3156 21.8417C78.447 20.4224 77.6221 18.9726 76.819 17.5098C75.9548 15.9298 75.8718 14.3628 76.6269 12.7134C77.7268 10.3043 78.6216 7.78679 80.3806 5.72933C82.2051 3.59374 84.4573 1.97469 87.0762 1.04145C88.5776 0.507554 90.2886 0.563982 91.8992 0.312226C94.2169 -0.0523871 96.5433 -0.065409 98.8697 0.108216C100.249 0.20805 101.541 0.607388 102.615 1.62309ZM104.278 3.15968C102.859 2.91226 101.458 2.5954 99.9871 2.90358C99.2975 3.04682 98.6602 3.34198 97.9706 3.4722C97.5603 3.54599 97.15 3.44182 97.0453 3.03814C96.9274 2.58237 97.3944 2.59105 97.6869 2.51292C98.813 2.21776 99.9173 1.83144 101.109 1.89655C101.275 1.90524 101.515 1.91826 101.51 1.65348C101.51 1.60573 101.297 1.55364 101.179 1.51458C100.066 1.15431 98.9439 0.950298 97.7524 0.924254C94.9764 0.859145 92.2571 1.23244 89.5204 1.57535C85.7056 2.04848 82.9689 4.13198 80.6556 6.99679C79.1628 8.8459 78.5038 11.103 77.4868 13.1865C76.8364 14.5191 76.9194 15.7735 77.6526 17.028C78.6347 18.7165 79.56 20.4354 80.5945 22.0892C81.5766 23.6605 82.4539 25.3707 84.2609 26.1954C87.6916 27.758 91.31 28.5871 94.9196 28.8171C96.7048 28.6826 98.3241 28.5741 99.9391 28.2963C101.602 28.0054 103.191 27.4585 104.849 27.159C108.463 26.5036 111.899 25.3316 114.827 23.0137C116.259 21.8851 117.289 20.5482 117.464 18.608C117.555 17.5706 117.398 16.5722 117.429 15.5608C117.481 13.6119 116.957 11.9451 115.644 10.4519C114.482 9.13238 113.618 7.56541 112.187 6.44987C109.843 4.63115 107.163 3.65885 104.278 3.15968Z" fill="#130C49"/>
<path id="Vector_28" d="M70.213 77.3799C71.278 75.648 72.5176 74.0289 73.9274 72.5618C74.5734 71.889 75.2543 71.2509 75.9657 70.6476C76.6335 70.0746 77.3537 69.5103 77.8426 68.7681C78.3663 67.9737 78.5889 67.0318 78.8072 66.1203C79.0472 65.1437 79.248 64.1583 79.4182 63.1687C80.0468 59.4531 80.1646 55.6637 79.8067 51.9134C79.8678 51.9308 79.9289 51.9308 79.9988 51.9178C80.2257 51.8744 80.4571 51.8266 80.684 51.7832C80.8892 53.8537 80.9503 55.9415 80.8586 58.0207C80.7626 60.0651 80.5269 62.1052 80.1515 64.1193C79.8111 65.938 79.5186 68.0779 78.3532 69.5798C77.812 70.2743 77.1224 70.8169 76.4589 71.3898C75.7518 72.0018 75.0709 72.6486 74.4293 73.3257C73.1243 74.7017 71.9763 76.2123 70.9855 77.827C70.6844 78.3175 69.9118 77.8704 70.213 77.3799Z" fill="#130C49"/>
<path id="Vector_29" d="M11.7148 20.9519C14.1416 20.0881 16.7387 20.8737 18.8905 22.1672C20.0952 22.8921 21.1995 23.7559 22.343 24.5676C23.4691 25.3619 24.6258 26.1129 25.8261 26.7987C30.0643 29.2208 34.9004 30.74 39.8108 29.8458C44.3458 29.0211 48.3657 26.6034 52.3726 24.4591C54.3978 23.3739 56.4536 22.3322 58.6098 21.5292C60.91 20.6741 63.315 20.1445 65.7549 19.9188C70.3554 19.4934 75.0169 20.1923 79.3162 21.8417C79.565 22.2497 79.8225 22.6577 80.0801 23.0614C80.019 23.0614 79.9579 23.0484 79.8924 23.0223C74.7463 20.839 68.9368 20.1228 63.4241 21.1255C58.7626 21.9763 54.6772 24.229 50.5612 26.4471C46.7028 28.5263 42.6697 30.5707 38.222 30.9483C33.4601 31.352 28.8291 29.6288 24.8048 27.2328C22.7315 26 20.8765 24.4765 18.8469 23.1873C16.9569 21.9806 14.5738 21.0083 12.339 21.6681C12.1644 21.5075 11.9855 21.3512 11.8021 21.1993L11.7148 20.9519Z" fill="#130C49"/>
<path id="Vector_30" d="M11.8006 21.1992C11.984 21.3511 12.1629 21.5074 12.3375 21.668C12.128 21.7288 11.9185 21.8069 11.709 21.8981C11.7395 21.6637 11.7701 21.4336 11.8006 21.1992Z" fill="#130C49"/>
<path id="Vector_31" d="M12.702 66.4896C15.6701 64.7794 19.2884 64.6231 22.6188 64.9704C26.4161 65.3654 30.1349 66.4332 33.9671 66.5417C37.3193 66.6328 40.6365 65.9296 43.7486 64.7143C50.239 62.175 55.6163 57.6087 60.6533 52.9338C65.8648 48.0984 70.9454 43.0849 77.1215 39.4562C83.075 35.9576 89.6091 33.6093 96.1126 31.3262C96.2435 31.3392 96.3745 31.3566 96.501 31.3739C96.2435 31.7081 95.9947 32.0467 95.759 32.394C95.4055 32.5155 95.0519 32.637 94.6984 32.7629C88.0334 35.1242 81.351 37.6722 75.4105 41.5614C69.5399 45.4115 64.6776 50.5161 59.501 55.1996C54.595 59.6357 49.2132 63.781 42.8843 65.9774C39.7941 67.0495 36.5118 67.5878 33.2382 67.3968C29.5282 67.1798 25.9316 66.1597 22.239 65.8211C18.9305 65.5173 15.286 65.7256 12.4751 67.6833C10.5589 69.0158 9.07927 71.2122 8.95706 73.5518C8.87413 72.7401 8.76938 71.9197 8.60352 71.1167C9.38044 69.1808 10.8994 67.5227 12.702 66.4896Z" fill="#130C49"/>
<path id="Vector_32" d="M8.95532 73.5523C8.92913 74.0818 8.96842 74.6157 9.09063 75.154C8.80256 75.193 8.51012 75.2321 8.21768 75.2712C8.16967 74.6895 8.12165 74.0992 8.06055 73.5045C8.06055 73.4264 8.06055 73.3483 8.07364 73.2701C8.14348 72.5279 8.32243 71.803 8.60178 71.1172C8.76764 71.9202 8.87239 72.7406 8.95532 73.5523Z" fill="#130C49"/>
<path id="Vector_33" d="M9.10953 75.2705C9.14881 75.7741 8.34133 75.8695 8.23221 75.3877C8.09254 74.7714 8.02707 74.1376 8.06199 73.5039C8.12309 74.0986 8.17111 74.6889 8.21912 75.2705C8.51156 75.2315 8.804 75.1924 9.09207 75.1533C8.96986 74.6151 8.93057 74.0812 8.95676 73.5517C9.01787 74.129 9.06588 74.7063 9.10953 75.2705Z" fill="#130C49"/>
<path id="Vector_34" d="M97.0817 30.5583C97.1035 30.5626 97.121 30.5626 97.1385 30.5713C96.9857 30.7536 96.8373 30.9359 96.6932 31.1225C96.5012 31.192 96.3048 31.2571 96.1127 31.3265C95.3882 31.2354 94.6593 31.1486 93.9304 31.0661C89.7402 30.5843 85.502 30.2414 81.29 30.619C77.3923 30.9706 73.6211 32.0514 70.09 33.7052C63.0846 36.9867 57.2271 42.1173 51.5398 47.2436C48.563 49.9261 45.5994 52.6347 42.4611 55.1305C39.5935 57.4094 36.4858 59.9009 32.7408 60.4218C29.3145 60.8949 25.9711 59.7316 22.8197 58.5336C19.5679 57.3009 16.3293 56.0204 12.8026 55.9422C10.1182 55.8771 7.39027 56.4371 5.17734 58.0127C3.54055 59.176 2.38389 60.8124 1.61133 62.6268C1.86448 61.5069 2.37953 60.4391 2.86838 59.4104C3.02987 59.0762 3.19574 58.742 3.3616 58.4077C4.07305 57.6959 4.88053 57.0795 5.7884 56.5847C8.23703 55.2477 11.109 54.8918 13.8632 55.1045C17.4467 55.3823 20.7246 56.8277 24.0549 58.0518C27.3765 59.2715 30.9425 60.2699 34.4343 59.1196C36.2762 58.5162 37.9218 57.4354 39.4756 56.3025C41.1342 55.0915 42.7361 53.7936 44.303 52.4654C47.4151 49.8306 50.3962 47.044 53.4472 44.3397C59.1519 39.2959 65.2626 34.4605 72.4732 31.7432C76.24 30.3195 80.2032 29.6511 84.2275 29.5773C88.5311 29.5035 92.8173 30.0287 97.0817 30.5583Z" fill="#130C49"/>
<path id="Vector_35" d="M1.60958 62.627C1.60958 62.627 1.59648 62.6747 1.59212 62.6964C1.57466 62.7789 1.53974 62.844 1.49609 62.8961C1.53101 62.8049 1.57029 62.7138 1.60958 62.627Z" fill="#130C49"/>
<path id="Vector_36" d="M2.86515 59.4089C2.37629 60.4377 1.86125 61.5055 1.60809 62.6253C1.56881 62.7122 1.52953 62.8033 1.49461 62.8945C1.23273 63.1723 0.626024 62.9335 0.730778 62.4561C0.743873 62.404 0.752602 62.3519 0.770061 62.2998C1.38986 60.8457 2.25408 59.5131 3.35836 58.4062C3.1925 58.7405 3.02664 59.0747 2.86515 59.4089Z" fill="#130C49"/>
<path id="Vector_37" d="M12.3381 21.6674C14.6689 23.8333 16.4846 26.9282 16.7029 30.1012C16.8207 31.7767 16.1398 33.2482 15.1708 34.5721C14.2018 35.9003 13.1412 37.1591 12.1722 38.4873C10.2299 41.1611 8.45346 43.9999 7.18332 47.0557C6.57225 48.5315 6.07467 50.0594 5.73422 51.6177C5.39376 53.189 5.28901 54.8037 4.50772 56.2361C4.11489 56.9567 3.73079 57.6772 3.35979 58.4064C2.2555 59.5133 1.39128 60.8459 0.771484 62.3C1.352 59.8128 2.90149 57.6642 3.94903 55.3723C4.61684 53.9182 4.65612 52.2037 5.04022 50.6628C5.41559 49.1652 5.93499 47.7068 6.55043 46.2874C7.82057 43.3531 9.52283 40.6229 11.404 38.0402C12.3337 36.7597 13.3464 35.5444 14.2891 34.2726C15.3323 32.8792 16.0132 31.4294 15.7601 29.6541C15.328 26.6113 13.5035 23.7813 11.1683 21.828C10.9632 21.6544 11.0068 21.242 11.26 21.1291C11.4128 21.064 11.5612 21.0033 11.7139 20.9512L11.8012 21.1986C11.7707 21.433 11.7401 21.663 11.7096 21.8974C11.9191 21.8063 12.1286 21.7281 12.3381 21.6674Z" fill="#130C49"/>
<path id="Vector_38" d="M6.32732 67.6914C5.10519 65.8554 2.81369 64.4664 0.565841 65.0957C0.373791 65.1478 0.221025 65.0827 0.125 64.9655C0.343238 65.1695 0.775349 65.1652 0.875739 64.7832C0.936845 64.5488 1.00232 64.3188 1.07215 64.0887C3.30691 63.8196 5.48056 65.0914 6.82054 66.8537C7.77206 68.1081 8.29146 69.584 8.60136 71.1162C8.32202 71.802 8.14306 72.5269 8.07323 73.2691C8.0645 73.3473 8.06013 73.4254 8.06013 73.5035C7.85062 71.4678 7.46652 69.4103 6.32732 67.6914Z" fill="#130C49"/>
<path id="Vector_39" d="M1.07326 64.0898C1.00342 64.3199 0.937953 64.55 0.876847 64.7843C0.776457 65.1663 0.344346 65.1707 0.126108 64.9667C0.121743 64.9623 0.117378 64.958 0.117378 64.9536C-0.057212 64.7279 -0.0266587 64.3373 0.326887 64.2374C0.575678 64.168 0.82447 64.1202 1.07326 64.0898Z" fill="#130C49"/>
<path id="Vector_40" d="M0.732055 62.457C0.627301 62.9345 1.234 63.1732 1.49589 62.8954C1.33876 63.2861 1.19908 63.6854 1.07251 64.0891C0.823715 64.1195 0.574923 64.1673 0.326132 64.2367C-0.0274134 64.3365 -0.0579667 64.7272 0.116624 64.9529C0.020599 64.8574 -0.0274134 64.7185 0.0162342 64.5492C0.203919 63.8243 0.430886 63.1125 0.71896 62.4223C0.736419 62.3833 0.753879 62.3398 0.771338 62.3008C0.753879 62.3529 0.745149 62.405 0.732055 62.457Z" fill="#130C49"/>
</g>
</svg>
