<svg width="339" height="278" viewBox="0 0 339 278" fill="none" xmlns="http://www.w3.org/2000/svg">
<g clip-path="url(#clip0_3029_395)">
<path d="M136.183 109.669V59.0641C136.183 53.0144 132.964 47.4294 127.732 44.4084L83.945 19.1019C78.7134 16.0809 72.2668 16.0809 67.0353 19.1019L23.2479 44.4084C18.0163 47.4294 14.7969 53.0221 14.7969 59.0641V109.669C14.7969 115.719 18.0163 121.304 23.2479 124.325L67.0353 149.632C72.2668 152.653 78.7134 152.653 83.945 149.632L127.732 124.325C132.964 121.304 136.183 115.711 136.183 109.669Z" stroke="white" stroke-miterlimit="10"/>
<path d="M73.5362 168.772C73.1028 168.718 72.7855 168.323 72.8396 167.882C72.8938 167.448 73.2808 167.13 73.7219 167.184C74.163 167.239 74.4726 167.634 74.4339 168.06C74.3797 168.47 74.0392 168.772 73.629 168.772H73.5362ZM77.6069 167.959C77.5295 167.525 77.8236 167.122 78.257 167.045C78.6903 166.967 79.1083 167.262 79.1702 167.696C79.2553 168.129 78.9689 168.532 78.5356 168.61C78.4814 168.625 78.435 168.625 78.3963 168.625C78.0171 168.625 77.6843 168.354 77.6069 167.967V167.959ZM68.6993 167.525C68.3046 167.363 68.1034 166.89 68.2659 166.479C68.4439 166.069 68.9005 165.883 69.3107 166.046C69.7131 166.224 69.922 166.681 69.744 167.091C69.6125 167.394 69.3261 167.587 69.0088 167.587C68.9082 167.587 68.8076 167.564 68.707 167.525H68.6993ZM82.2116 166.696C82.0181 166.301 82.1884 165.829 82.5831 165.643C82.9778 165.441 83.4498 165.604 83.6356 165.999C83.8368 166.394 83.6743 166.875 83.2796 167.068C83.1635 167.122 83.0474 167.161 82.9236 167.161C82.6295 167.146 82.3509 166.998 82.2116 166.704V166.696ZM64.3964 165.209C64.0172 164.992 63.8856 164.512 64.1023 164.125C64.3345 163.745 64.8143 163.613 65.1935 163.83C65.5727 164.047 65.7043 164.543 65.4876 164.922C65.3328 165.178 65.0697 165.318 64.7833 165.318C64.6595 165.318 64.5125 165.279 64.3886 165.201L64.3964 165.209ZM86.3984 164.396C86.1817 164.016 86.3055 163.528 86.6925 163.304C87.0717 163.087 87.5593 163.211 87.7837 163.598C88.0004 163.977 87.8766 164.465 87.4896 164.69C87.358 164.752 87.2187 164.791 87.0794 164.791C86.8008 164.791 86.53 164.651 86.3907 164.396H86.3984ZM60.256 162.816C59.8845 162.599 59.7452 162.118 59.9774 161.731C60.1941 161.352 60.6816 161.22 61.0609 161.437C61.4401 161.654 61.5716 162.149 61.3549 162.529C61.2156 162.785 60.9525 162.924 60.6662 162.924C60.5269 162.924 60.3876 162.885 60.2637 162.808L60.256 162.816ZM90.5465 162.002C90.3143 161.623 90.4537 161.135 90.8406 160.91C91.2198 160.693 91.7074 160.825 91.9241 161.204C92.1562 161.584 92.0169 162.072 91.63 162.297C91.5139 162.359 91.3746 162.397 91.2353 162.397C90.9644 162.397 90.6858 162.258 90.5465 162.002ZM56.1156 160.422C55.7364 160.205 55.6048 159.725 55.8215 159.338C56.0382 158.958 56.5335 158.826 56.9127 159.043C57.292 159.26 57.4235 159.756 57.2068 160.135C57.052 160.391 56.7889 160.53 56.5103 160.53C56.3865 160.53 56.2395 160.492 56.1156 160.414V160.422ZM94.6792 159.609C94.4625 159.229 94.5863 158.741 94.9732 158.516C95.3525 158.3 95.8477 158.424 96.0644 158.811C96.2811 159.19 96.1573 159.678 95.7704 159.903C95.6388 159.965 95.4995 160.004 95.3757 160.004C95.0971 160.004 94.8262 159.864 94.6792 159.609ZM51.9675 158.028C51.5883 157.812 51.4567 157.331 51.6734 156.944C51.8901 156.564 52.3854 156.433 52.7646 156.65C53.1438 156.867 53.2754 157.362 53.0587 157.742C52.9039 157.997 52.6408 158.137 52.3699 158.137C52.2306 158.137 52.0913 158.098 51.9598 158.021L51.9675 158.028ZM98.8273 157.215C98.6106 156.836 98.7421 156.348 99.1214 156.123C99.5006 155.906 99.9881 156.038 100.205 156.417C100.437 156.797 100.305 157.285 99.9262 157.509C99.8024 157.571 99.6553 157.61 99.5315 157.61C99.2529 157.61 98.982 157.471 98.8273 157.215ZM47.8349 155.635C47.4557 155.418 47.3164 154.938 47.5408 154.55C47.7575 154.171 48.2373 154.039 48.632 154.256C49.0035 154.473 49.1428 154.969 48.9106 155.348C48.7713 155.604 48.5004 155.743 48.2218 155.743C48.0825 155.743 47.951 155.705 47.8271 155.627L47.8349 155.635ZM102.975 154.822C102.743 154.442 102.875 153.954 103.254 153.729C103.633 153.512 104.129 153.636 104.345 154.024C104.562 154.403 104.43 154.891 104.051 155.116C103.927 155.178 103.796 155.217 103.656 155.217C103.378 155.217 103.107 155.077 102.968 154.822H102.975ZM43.6868 153.241C43.3075 153.024 43.176 152.544 43.3927 152.157C43.6094 151.777 44.1047 151.646 44.4839 151.863C44.8631 152.079 44.9947 152.575 44.7625 152.955C44.6232 153.21 44.3523 153.35 44.0737 153.35C43.9422 153.35 43.8028 153.311 43.679 153.234L43.6868 153.241ZM107.116 152.428C106.899 152.048 107.023 151.56 107.41 151.336C107.789 151.119 108.292 151.251 108.501 151.63C108.718 152.01 108.586 152.498 108.207 152.722C108.083 152.784 107.936 152.823 107.812 152.823C107.534 152.823 107.263 152.684 107.116 152.428ZM39.5464 150.863C39.1672 150.631 39.0356 150.151 39.2523 149.771C39.4845 149.392 39.9643 149.26 40.3435 149.477C40.7227 149.694 40.8543 150.189 40.6376 150.569C40.4828 150.825 40.2197 150.964 39.9488 150.964C39.8095 150.964 39.6702 150.925 39.5386 150.863H39.5464ZM111.264 150.034C111.032 149.655 111.171 149.159 111.558 148.942C111.937 148.725 112.425 148.849 112.641 149.237C112.874 149.616 112.727 150.104 112.347 150.329C112.231 150.391 112.092 150.43 111.953 150.43C111.674 150.43 111.403 150.29 111.264 150.034ZM35.406 148.454C35.0268 148.237 34.8875 147.757 35.1119 147.37C35.3286 146.99 35.8162 146.859 36.1954 147.075C36.5746 147.292 36.7139 147.788 36.4895 148.168C36.3502 148.423 36.087 148.563 35.8007 148.563C35.6614 148.563 35.5298 148.524 35.406 148.447V148.454ZM115.412 147.641C115.18 147.261 115.319 146.773 115.706 146.549C116.078 146.332 116.573 146.464 116.79 146.843C117.006 147.223 116.882 147.711 116.495 147.935C116.364 147.997 116.24 148.036 116.101 148.036C115.822 148.036 115.551 147.897 115.412 147.641ZM31.2579 146.076C30.8787 145.844 30.7471 145.364 30.9638 144.984C31.1805 144.604 31.6758 144.473 32.055 144.69C32.4342 144.907 32.5658 145.402 32.3491 145.782C32.1943 146.037 31.9312 146.177 31.6526 146.177C31.5288 146.177 31.3817 146.138 31.2579 146.076ZM119.545 145.247C119.328 144.868 119.452 144.372 119.839 144.155C120.218 143.938 120.705 144.062 120.93 144.45C121.147 144.829 121.023 145.317 120.636 145.542C120.504 145.604 120.365 145.642 120.241 145.642C119.963 145.642 119.692 145.503 119.545 145.247ZM27.1098 143.683C26.7306 143.45 26.599 142.97 26.8312 142.59C27.0479 142.211 27.5277 142.079 27.9146 142.296C28.2939 142.513 28.4254 143.009 28.2087 143.381C28.0539 143.636 27.7908 143.791 27.52 143.791C27.3806 143.791 27.2413 143.752 27.1175 143.69L27.1098 143.683ZM123.693 142.854C123.461 142.474 123.608 141.979 123.987 141.762C124.366 141.545 124.854 141.669 125.07 142.056C125.302 142.436 125.163 142.924 124.776 143.14C124.66 143.218 124.521 143.257 124.382 143.257C124.103 143.257 123.832 143.117 123.693 142.862V142.854ZM22.9771 141.289C22.5979 141.057 22.4664 140.576 22.6831 140.197C22.8998 139.817 23.3796 139.686 23.7665 139.903C24.1457 140.119 24.285 140.615 24.0606 140.995C23.9213 141.25 23.6504 141.39 23.3718 141.39C23.2325 141.39 23.101 141.351 22.9771 141.289ZM127.825 140.46C127.609 140.081 127.74 139.585 128.119 139.368C128.499 139.151 128.994 139.275 129.211 139.662C129.427 140.042 129.296 140.53 128.917 140.747C128.793 140.824 128.646 140.863 128.522 140.863C128.243 140.863 127.972 140.724 127.818 140.468L127.825 140.46ZM18.829 138.896C18.4498 138.663 18.3183 138.183 18.535 137.803C18.7516 137.424 19.2469 137.292 19.6262 137.509C20.0054 137.726 20.1369 138.222 19.9202 138.593C19.7655 138.865 19.5023 139.004 19.2237 139.004C19.0922 139.004 18.9529 138.965 18.829 138.903V138.896ZM131.973 138.067C131.757 137.687 131.881 137.191 132.268 136.975C132.647 136.758 133.134 136.882 133.359 137.269C133.575 137.648 133.444 138.136 133.065 138.353C132.941 138.431 132.794 138.47 132.662 138.47C132.391 138.47 132.128 138.33 131.973 138.075V138.067ZM14.6809 136.502C14.3017 136.27 14.1701 135.789 14.3868 135.41C14.619 135.03 15.0988 134.899 15.478 135.115C15.8572 135.332 15.9888 135.828 15.7721 136.2C15.6173 136.456 15.3542 136.61 15.0679 136.61C14.944 136.61 14.797 136.572 14.6732 136.51L14.6809 136.502ZM136.122 135.673C135.889 135.294 136.021 134.798 136.4 134.581C136.779 134.364 137.282 134.488 137.491 134.875C137.708 135.255 137.577 135.743 137.197 135.96C137.074 136.037 136.942 136.076 136.803 136.076C136.524 136.076 136.253 135.937 136.114 135.681L136.122 135.673ZM10.5405 134.108C10.1613 133.876 10.0298 133.396 10.2465 133.016C10.4632 132.637 10.943 132.505 11.3377 132.722C11.7169 132.939 11.8484 133.419 11.6163 133.806C11.477 134.078 11.2138 134.217 10.9275 134.217C10.7882 134.217 10.6566 134.178 10.5328 134.116L10.5405 134.108ZM140.254 133.28C140.038 132.9 140.161 132.404 140.548 132.187C140.928 131.971 141.431 132.095 141.64 132.482C141.856 132.861 141.732 133.349 141.345 133.566C141.222 133.644 141.075 133.682 140.943 133.682C140.672 133.682 140.409 133.543 140.254 133.287V133.28ZM6.41565 131.436C6.07513 131.157 6.02096 130.646 6.29956 130.313C6.59364 129.972 7.08894 129.918 7.42946 130.197C7.76224 130.476 7.80867 130.987 7.53007 131.328C7.37528 131.521 7.15085 131.606 6.91868 131.606C6.74068 131.606 6.54721 131.552 6.40791 131.428L6.41565 131.436ZM144.255 130.661C143.953 130.344 143.961 129.833 144.279 129.538C144.611 129.236 145.107 129.244 145.408 129.562C145.71 129.895 145.687 130.39 145.37 130.692C145.215 130.832 145.029 130.909 144.82 130.909C144.619 130.909 144.402 130.816 144.248 130.654L144.255 130.661ZM3.05691 127.749C2.80152 127.377 2.90213 126.881 3.25813 126.641C3.6296 126.386 4.1249 126.486 4.36481 126.843C4.62019 127.214 4.51959 127.71 4.16359 127.95C4.02429 128.051 3.86951 128.09 3.70699 128.09C3.4516 128.09 3.21169 127.974 3.05691 127.749ZM147.413 127.091C147.034 126.858 146.902 126.378 147.134 125.998C147.351 125.619 147.846 125.487 148.218 125.719C148.597 125.936 148.728 126.432 148.512 126.812C148.357 127.052 148.094 127.191 147.808 127.191C147.684 127.191 147.537 127.168 147.413 127.091ZM0.86677 123.233C0.727468 122.815 0.959638 122.365 1.37755 122.226C1.79545 122.102 2.25979 122.327 2.38362 122.745C2.52292 123.156 2.29075 123.613 1.87284 123.752C1.78771 123.775 1.71032 123.791 1.63293 123.791C1.29242 123.791 0.982855 123.574 0.86677 123.233ZM149.448 122.737C149.03 122.637 148.775 122.187 148.876 121.769C148.992 121.335 149.425 121.08 149.843 121.196C150.276 121.312 150.532 121.746 150.431 122.164C150.33 122.52 150.013 122.76 149.657 122.76C149.595 122.76 149.533 122.76 149.456 122.737H149.448ZM0.015478 118.314C0 117.865 0.348256 117.501 0.78938 117.485C1.22276 117.47 1.59424 117.818 1.60198 118.26C1.61745 118.694 1.2692 119.073 0.828075 119.073H0.804858C0.371473 119.073 0.0309561 118.74 0.015478 118.306V118.314ZM149.386 117.764C149.386 117.315 149.742 116.959 150.176 116.959C150.617 116.959 150.981 117.315 150.981 117.764C150.981 118.198 150.625 118.554 150.176 118.554C149.742 118.554 149.386 118.198 149.386 117.764ZM0 113.504C0 113.055 0.355995 112.698 0.804858 112.698C1.25372 112.698 1.59424 113.055 1.59424 113.504C1.59424 113.938 1.25372 114.294 0.804858 114.294C0.363734 114.294 0 113.938 0 113.504ZM149.386 112.985C149.386 112.536 149.742 112.179 150.176 112.179C150.617 112.179 150.981 112.536 150.981 112.985C150.981 113.419 150.625 113.775 150.176 113.775C149.742 113.775 149.386 113.419 149.386 112.985ZM0 108.709C0 108.26 0.355995 107.903 0.804858 107.903C1.25372 107.903 1.59424 108.26 1.59424 108.709C1.59424 109.143 1.25372 109.499 0.804858 109.499C0.363734 109.499 0 109.143 0 108.709ZM149.386 108.19C149.386 107.741 149.742 107.384 150.176 107.384C150.617 107.384 150.981 107.741 150.981 108.19C150.981 108.624 150.625 108.98 150.176 108.98C149.742 108.98 149.386 108.624 149.386 108.19ZM0 103.922C0 103.473 0.355995 103.116 0.804858 103.116C1.25372 103.116 1.59424 103.473 1.59424 103.922C1.59424 104.356 1.25372 104.712 0.804858 104.712C0.363734 104.712 0 104.356 0 103.922ZM149.386 103.403C149.386 102.954 149.742 102.597 150.176 102.597C150.617 102.597 150.981 102.954 150.981 103.403C150.981 103.837 150.625 104.193 150.176 104.193C149.742 104.193 149.386 103.837 149.386 103.403ZM0 99.1348C0 98.6855 0.355995 98.3292 0.804858 98.3292C1.25372 98.3292 1.59424 98.6855 1.59424 99.1348C1.59424 99.5686 1.25372 99.9249 0.804858 99.9249C0.363734 99.9249 0 99.5686 0 99.1348ZM149.386 98.6158C149.386 98.1666 149.742 97.8102 150.176 97.8102C150.617 97.8102 150.981 98.1666 150.981 98.6158C150.981 99.0496 150.625 99.4059 150.176 99.4059C149.742 99.4059 149.386 99.0496 149.386 98.6158ZM0 94.3477C0 93.8985 0.355995 93.5421 0.804858 93.5421C1.25372 93.5421 1.59424 93.8985 1.59424 94.3477C1.59424 94.7815 1.25372 95.1378 0.804858 95.1378C0.363734 95.1378 0 94.7815 0 94.3477ZM149.386 93.8132C149.386 93.3795 149.742 93.0231 150.176 93.0231C150.617 93.0231 150.981 93.3795 150.981 93.8132C150.981 94.2625 150.625 94.6188 150.176 94.6188C149.742 94.6188 149.386 94.2625 149.386 93.8132ZM0 89.5606C0 89.1114 0.355995 88.755 0.804858 88.755C1.25372 88.755 1.59424 89.1114 1.59424 89.5606C1.59424 89.9944 1.25372 90.3507 0.804858 90.3507C0.363734 90.3507 0 89.9944 0 89.5606ZM149.386 89.0262C149.386 88.5924 149.742 88.2361 150.176 88.2361C150.617 88.2361 150.981 88.5924 150.981 89.0262C150.981 89.4754 150.625 89.8317 150.176 89.8317C149.742 89.8317 149.386 89.4754 149.386 89.0262ZM0 84.7735C0 84.3243 0.355995 83.9679 0.804858 83.9679C1.25372 83.9679 1.59424 84.3243 1.59424 84.7735C1.59424 85.2073 1.25372 85.5636 0.804858 85.5636C0.363734 85.5636 0 85.2073 0 84.7735ZM149.386 84.2391C149.386 83.8053 149.742 83.449 150.176 83.449C150.617 83.449 150.981 83.8053 150.981 84.2391C150.981 84.6883 150.625 85.0447 150.176 85.0447C149.742 85.0447 149.386 84.6883 149.386 84.2391ZM0 79.9865C0 79.5372 0.355995 79.1809 0.804858 79.1809C1.25372 79.1809 1.59424 79.5372 1.59424 79.9865C1.59424 80.4202 1.25372 80.7766 0.804858 80.7766C0.363734 80.7766 0 80.4202 0 79.9865ZM149.386 79.452C149.386 79.0182 149.742 78.6619 150.176 78.6619C150.617 78.6619 150.981 79.0182 150.981 79.452C150.981 79.9012 150.625 80.2576 150.176 80.2576C149.742 80.2576 149.386 79.9012 149.386 79.452ZM0 75.1916C0 74.7423 0.355995 74.386 0.804858 74.386C1.25372 74.386 1.59424 74.7423 1.59424 75.1916C1.59424 75.6254 1.25372 75.9817 0.804858 75.9817C0.363734 75.9817 0 75.6254 0 75.1916ZM149.386 74.6571C149.386 74.2233 149.742 73.867 150.176 73.867C150.617 73.867 150.981 74.2233 150.981 74.6571C150.981 75.1064 150.625 75.4627 150.176 75.4627C149.742 75.4627 149.386 75.1064 149.386 74.6571ZM0 70.4045C0 69.9552 0.355995 69.5989 0.804858 69.5989C1.25372 69.5989 1.59424 69.9552 1.59424 70.4045C1.59424 70.8383 1.25372 71.1946 0.804858 71.1946C0.363734 71.1946 0 70.8383 0 70.4045ZM149.386 69.87C149.386 69.4362 149.742 69.0799 150.176 69.0799C150.617 69.0799 150.981 69.4362 150.981 69.87C150.981 70.3193 150.625 70.6756 150.176 70.6756C149.742 70.6756 149.386 70.3193 149.386 69.87ZM0 65.6174C0 65.1681 0.355995 64.8118 0.804858 64.8118C1.25372 64.8118 1.59424 65.1681 1.59424 65.6174C1.59424 66.0512 1.25372 66.4075 0.804858 66.4075C0.363734 66.4075 0 66.0512 0 65.6174ZM149.386 65.0829C149.386 64.6492 149.742 64.2928 150.176 64.2928C150.617 64.2928 150.981 64.6492 150.981 65.0829C150.981 65.5322 150.625 65.8885 150.176 65.8885C149.742 65.8885 149.386 65.5322 149.386 65.0829ZM0 60.8303C0 60.3811 0.355995 60.0247 0.804858 60.0247C1.25372 60.0247 1.59424 60.3811 1.59424 60.8303C1.59424 61.2641 1.25372 61.6204 0.804858 61.6204C0.363734 61.6204 0 61.2641 0 60.8303ZM149.386 60.2958C149.386 59.8621 149.742 59.5057 150.176 59.5057C150.617 59.5057 150.981 59.8621 150.981 60.2958C150.981 60.7451 150.625 61.1014 150.176 61.1014C149.742 61.1014 149.386 60.7451 149.386 60.2958ZM0 56.0432C0 55.594 0.355995 55.2376 0.804858 55.2376C1.25372 55.2376 1.59424 55.594 1.59424 56.0432C1.59424 56.477 1.25372 56.8333 0.804858 56.8333C0.363734 56.8333 0 56.477 0 56.0432ZM149.386 55.5088C149.386 55.075 149.742 54.7186 150.176 54.7186C150.617 54.7186 150.981 55.075 150.981 55.5088C150.981 55.958 150.625 56.3143 150.176 56.3143C149.742 56.3143 149.386 55.958 149.386 55.5088ZM0 51.2407C0 50.8069 0.355995 50.4505 0.804858 50.4505C1.25372 50.4505 1.59424 50.8069 1.59424 51.2407C1.59424 51.6899 1.25372 52.0462 0.804858 52.0462C0.363734 52.0462 0 51.6899 0 51.2407ZM149.386 50.7294C149.371 50.2956 149.727 49.9238 150.16 49.9238C150.601 49.9083 150.965 50.2646 150.973 50.6984C150.973 51.1477 150.632 51.504 150.183 51.5118H150.168C149.735 51.5118 149.379 51.1709 149.379 50.7217L149.386 50.7294ZM1.18407 47.2824C0.766163 47.1662 0.510775 46.7324 0.62686 46.2986C0.750685 45.8803 1.18407 45.6247 1.60972 45.7487C2.0431 45.8494 2.28301 46.2986 2.16693 46.7169C2.07406 47.0732 1.74902 47.3134 1.40076 47.3134C1.32337 47.3134 1.26146 47.2979 1.18407 47.2746V47.2824ZM148.674 46.2367C148.55 45.8184 148.775 45.3691 149.193 45.2452C149.626 45.1212 150.075 45.3614 150.199 45.7796C150.33 46.1979 150.083 46.6472 149.665 46.7711C149.587 46.7944 149.51 46.8099 149.433 46.8099C149.092 46.8099 148.767 46.5775 148.667 46.2367H148.674ZM2.87892 42.8129C2.4997 42.596 2.38362 42.1002 2.60805 41.7207C2.84022 41.3489 3.33552 41.2404 3.69925 41.4496C4.07846 41.6897 4.19455 42.1777 3.97012 42.5573C3.81534 42.7974 3.55995 42.9368 3.28134 42.9368C3.14204 42.9368 3.00274 42.8981 2.87118 42.8129H2.87892ZM146.74 42.1235C146.5 41.7672 146.6 41.2714 146.972 41.0158C147.343 40.7834 147.838 40.8918 148.078 41.2559C148.318 41.6122 148.218 42.108 147.846 42.3481C147.707 42.4333 147.552 42.4875 147.397 42.4875C147.142 42.4875 146.887 42.3636 146.74 42.1157V42.1235ZM5.73461 39.0018C5.44053 38.6687 5.46375 38.1652 5.78879 37.8709C6.12156 37.5765 6.61686 37.592 6.91868 37.9251C7.21277 38.2582 7.18955 38.7539 6.86451 39.056C6.70973 39.1955 6.50851 39.2574 6.31504 39.2574C6.09835 39.2574 5.89713 39.1722 5.72687 39.0018H5.73461ZM143.729 38.7229C143.396 38.4286 143.358 37.9173 143.644 37.592C143.938 37.2589 144.433 37.2202 144.766 37.4991C145.107 37.7934 145.145 38.2892 144.851 38.63C144.696 38.8081 144.48 38.9088 144.255 38.9088C144.062 38.9088 143.884 38.8469 143.737 38.7152L143.729 38.7229ZM9.56543 36.1357C9.33326 35.7562 9.47256 35.2682 9.85951 35.0513C10.2387 34.8189 10.7263 34.9583 10.943 35.3456C11.1751 35.7252 11.0358 36.2132 10.6489 36.4301C10.5251 36.5076 10.3935 36.5463 10.2542 36.5463C9.9756 36.5463 9.70473 36.3914 9.56543 36.1357ZM139.86 36.159C139.48 35.9421 139.349 35.4618 139.565 35.0745C139.782 34.695 140.277 34.5633 140.657 34.7802C141.036 34.9971 141.167 35.4928 140.951 35.8724C140.796 36.128 140.533 36.2674 140.262 36.2674C140.123 36.2674 139.983 36.2287 139.852 36.1512L139.86 36.159ZM13.6981 33.7422C13.4814 33.3626 13.6052 32.8746 13.9921 32.6577C14.3714 32.4254 14.8744 32.5648 15.0833 32.9521C15.3 33.3317 15.1685 33.8197 14.7893 34.0365C14.6654 34.114 14.5184 34.1527 14.3946 34.1527C14.116 34.1527 13.8451 33.9978 13.6981 33.7422ZM135.711 33.7809C135.332 33.5485 135.201 33.0683 135.417 32.6887C135.65 32.3092 136.129 32.1775 136.509 32.3944C136.888 32.6113 137.019 33.107 136.803 33.4866C136.648 33.7422 136.385 33.8816 136.114 33.8816C135.975 33.8816 135.835 33.8429 135.704 33.7809H135.711ZM17.8462 31.3486C17.6295 30.9691 17.7533 30.4811 18.1403 30.2642C18.5195 30.0318 19.007 30.1712 19.2237 30.5585C19.4559 30.9381 19.3243 31.4261 18.9451 31.643C18.8213 31.7205 18.6743 31.7592 18.5427 31.7592C18.2718 31.7592 18.0087 31.6043 17.8539 31.3486H17.8462ZM131.579 31.3874C131.2 31.155 131.068 30.6747 131.285 30.2952C131.501 29.9156 131.997 29.7839 132.376 30.0008C132.755 30.2177 132.887 30.7135 132.655 31.093C132.515 31.3486 132.244 31.4881 131.966 31.4881C131.826 31.4881 131.695 31.4493 131.571 31.3874H131.579ZM21.9943 28.9551C21.7621 28.5755 21.9014 28.0875 22.2884 27.8706C22.6676 27.6383 23.1551 27.7777 23.3718 28.165C23.604 28.5446 23.4647 29.0326 23.0778 29.2495C22.9539 29.3269 22.8224 29.3656 22.6831 29.3656C22.4045 29.3656 22.1336 29.2107 21.9943 28.9551ZM127.431 28.9938C127.051 28.7614 126.92 28.2812 127.137 27.9016C127.369 27.5221 127.849 27.3904 128.228 27.6073C128.607 27.8242 128.739 28.3199 128.522 28.6995C128.367 28.9551 128.104 29.0945 127.833 29.0945C127.694 29.0945 127.555 29.0558 127.423 28.9938H127.431ZM26.1269 26.5616C25.9102 26.182 26.0341 25.694 26.421 25.4771C26.8002 25.2447 27.2955 25.3841 27.5122 25.7715C27.7289 26.151 27.6051 26.639 27.2181 26.8559C27.0866 26.9334 26.9473 26.9721 26.8234 26.9721C26.5448 26.9721 26.274 26.8172 26.1269 26.5616ZM123.29 26.6003C122.911 26.3679 122.772 25.8876 122.996 25.5081C123.213 25.1285 123.7 24.9968 124.08 25.2137C124.459 25.4306 124.598 25.9264 124.374 26.3059C124.234 26.5616 123.971 26.701 123.685 26.701C123.546 26.701 123.406 26.6623 123.29 26.6003ZM30.2673 24.168C30.0506 23.7884 30.1822 23.3004 30.5614 23.0836C30.9406 22.8512 31.4282 22.9983 31.6526 23.3779C31.8693 23.7575 31.7455 24.2455 31.3585 24.4624C31.2347 24.5398 31.0876 24.5786 30.9483 24.5786C30.6775 24.5786 30.4143 24.4236 30.2596 24.168H30.2673ZM119.142 24.2067C118.763 23.9744 118.631 23.4941 118.848 23.1145C119.065 22.735 119.56 22.6033 119.939 22.8202C120.311 23.0371 120.45 23.5328 120.233 23.9124C120.079 24.168 119.815 24.3074 119.537 24.3074C119.413 24.3074 119.266 24.2687 119.142 24.2067ZM34.4154 21.7745C34.1832 21.3949 34.3148 20.9069 34.694 20.69C35.0732 20.4576 35.5685 20.5971 35.7852 20.9844C36.0019 21.3639 35.8781 21.8519 35.4911 22.0688C35.3673 22.1463 35.2358 22.185 35.0965 22.185C34.8178 22.185 34.547 22.0301 34.4077 21.7745H34.4154ZM114.986 21.8132C114.607 21.5808 114.476 21.1005 114.692 20.721C114.924 20.3414 115.404 20.2097 115.783 20.4266C116.163 20.6435 116.294 21.1393 116.078 21.5188C115.923 21.7745 115.66 21.9139 115.389 21.9139C115.249 21.9139 115.11 21.8752 114.979 21.8132H114.986ZM38.5481 19.3809C38.3314 19.0014 38.4552 18.5133 38.8421 18.2965C39.2213 18.0641 39.7089 18.2113 39.9333 18.5908C40.15 18.9704 40.0185 19.4584 39.6393 19.6753C39.5154 19.7527 39.3684 19.7915 39.2446 19.7915C38.966 19.7915 38.6951 19.6365 38.5481 19.3809ZM110.838 19.4196C110.467 19.1873 110.327 18.707 110.56 18.3274C110.776 17.9479 111.256 17.8162 111.643 18.0331C112.022 18.25 112.154 18.7457 111.937 19.1253C111.798 19.3809 111.527 19.5203 111.248 19.5203C111.109 19.5203 110.97 19.4816 110.838 19.4196ZM42.6962 16.9874C42.4795 16.6078 42.6033 16.1198 42.9902 15.9029C43.3695 15.6705 43.857 15.81 44.0737 16.1973C44.3059 16.5768 44.1588 17.0648 43.7796 17.2817C43.6635 17.3592 43.5242 17.3979 43.3849 17.3979C43.1063 17.3979 42.8355 17.243 42.6962 16.9874ZM106.706 17.0261C106.326 16.7937 106.195 16.3135 106.412 15.9339C106.628 15.5543 107.124 15.4227 107.503 15.6395C107.882 15.8564 108.013 16.3522 107.797 16.7317C107.642 16.9874 107.379 17.1268 107.1 17.1268C106.969 17.1268 106.829 17.0881 106.706 17.0261ZM46.8288 14.5938C46.6121 14.2143 46.7514 13.7263 47.1229 13.5094C47.5021 13.277 48.0051 13.4242 48.2141 13.8037C48.4308 14.1833 48.307 14.6713 47.92 14.8882C47.7962 14.9656 47.6491 15.0044 47.5253 15.0044C47.2467 15.0044 46.9758 14.8494 46.8288 14.5938ZM102.557 14.6326C102.178 14.4002 102.047 13.9199 102.263 13.5403C102.496 13.1608 102.975 13.0291 103.355 13.246C103.734 13.4629 103.865 13.9586 103.649 14.3382C103.494 14.5938 103.231 14.7332 102.96 14.7332C102.821 14.7332 102.681 14.6945 102.55 14.6326H102.557ZM50.9769 12.2003C50.7602 11.8207 50.884 11.3327 51.271 11.1158C51.6502 10.8834 52.1378 11.0229 52.3622 11.4102C52.5789 11.7897 52.4551 12.2777 52.0681 12.4946C51.9366 12.5721 51.7972 12.6108 51.6734 12.6108C51.3948 12.6108 51.124 12.4559 50.9769 12.2003ZM98.4248 12.239C98.0456 12.0066 97.9141 11.5264 98.1308 11.1468C98.3475 10.7672 98.835 10.6356 99.2142 10.8525C99.5934 11.0693 99.7327 11.5651 99.5083 11.9447C99.369 12.2003 99.1059 12.3397 98.8195 12.3397C98.6802 12.3397 98.5487 12.301 98.4248 12.239ZM55.125 9.80673C54.9083 9.42717 55.0399 8.93916 55.4191 8.72227C55.7983 8.48989 56.2859 8.63707 56.5026 9.01662C56.7347 9.39618 56.5954 9.88419 56.224 10.1011C56.0924 10.1785 55.9531 10.2173 55.8138 10.2173C55.5352 10.2173 55.2643 10.0623 55.125 9.80673ZM94.2767 9.84546C93.8975 9.61307 93.766 9.13282 93.9826 8.75326C94.2148 8.3737 94.6946 8.24201 95.0738 8.45891C95.4531 8.6758 95.5846 9.17155 95.3679 9.55111C95.2132 9.80673 94.95 9.94616 94.6714 9.94616C94.5476 9.94616 94.4006 9.90743 94.2767 9.84546ZM59.2731 7.41318C59.041 7.03362 59.1725 6.54562 59.5517 6.32873C59.931 6.09634 60.4263 6.23577 60.643 6.62308C60.8596 7.00264 60.7358 7.49064 60.3489 7.70753C60.2173 7.78499 60.078 7.82372 59.9542 7.82372C59.6756 7.82372 59.4047 7.6688 59.2654 7.41318H59.2731ZM90.1441 7.45191C89.7649 7.21953 89.6256 6.73927 89.85 6.35971C90.0667 5.98015 90.5465 5.84847 90.9335 6.06536C91.3127 6.28225 91.4442 6.778 91.2276 7.15756C91.0882 7.41318 90.8174 7.55261 90.5388 7.55261C90.3995 7.55261 90.2602 7.51388 90.1441 7.45191ZM63.4135 5.01963C63.1968 4.64007 63.3284 4.15207 63.7076 3.93518C64.0868 3.7028 64.5744 3.84997 64.7988 4.22953C65.0155 4.60909 64.8839 5.0971 64.5047 5.31399C64.3809 5.39145 64.2339 5.43018 64.0946 5.43018C63.8237 5.43018 63.5606 5.27526 63.4058 5.01963H63.4135ZM85.996 5.05836C85.6168 4.82598 85.4852 4.34572 85.7019 3.96616C85.9186 3.5866 86.3984 3.45492 86.7854 3.67181C87.1646 3.8887 87.3039 4.38445 87.0872 4.76401C86.9324 5.01963 86.6693 5.15906 86.3907 5.15906C86.2668 5.15906 86.1198 5.12033 85.996 5.05836ZM67.5462 2.62609C67.3682 2.21554 67.5307 1.75078 67.9254 1.55712C68.3278 1.36347 68.7999 1.54163 68.9934 1.93668C69.1868 2.34723 69.0088 2.81199 68.6141 3.00565C68.4981 3.05987 68.382 3.08311 68.2736 3.08311C67.9795 3.08311 67.6855 2.90495 67.5462 2.62609ZM81.8711 2.78876C81.4764 2.62609 81.2829 2.15357 81.4609 1.74303C81.6389 1.33249 82.111 1.15433 82.5057 1.32474H82.5212C82.9158 1.5029 83.1093 1.97541 82.9313 2.37821C82.7998 2.68031 82.5134 2.85847 82.2039 2.85847C82.0878 2.85847 81.9872 2.83523 81.8711 2.78101V2.78876ZM72.0348 1.00715C71.9729 0.557877 72.267 0.155079 72.7003 0.0931105H72.7158C73.1492 0.0156494 73.5594 0.325494 73.6213 0.75153C73.6987 1.18531 73.3891 1.59586 72.9557 1.66557H72.8319C72.4527 1.66557 72.1199 1.39446 72.0425 1.00715H72.0348ZM77.4908 1.59585C77.0574 1.54163 76.7556 1.14658 76.802 0.705053C76.8562 0.271271 77.2509 -0.0463194 77.692 0.0156494C78.1254 0.0698722 78.4427 0.47267 78.3808 0.906452C78.3266 1.317 77.9861 1.6036 77.5914 1.6036C77.5914 1.6036 77.5295 1.58811 77.4908 1.58811V1.59585Z" fill="white"/>
<path d="M324.203 218.905V168.3C324.203 162.25 320.983 156.665 315.752 153.644L271.965 128.337C266.733 125.316 260.286 125.316 255.055 128.337L211.267 153.644C206.036 156.665 202.816 162.258 202.816 168.3V218.905C202.816 224.955 206.036 230.54 211.267 233.561L255.055 258.867C260.286 261.888 266.733 261.888 271.965 258.867L315.752 233.561C320.983 230.54 324.203 224.947 324.203 218.905Z" stroke="white" stroke-miterlimit="10"/>
<path d="M261.563 278C261.13 277.946 260.812 277.551 260.851 277.125C260.905 276.675 261.292 276.373 261.741 276.412C262.174 276.466 262.492 276.861 262.445 277.303C262.406 277.713 262.051 278 261.656 278H261.563ZM265.634 277.194C265.556 276.761 265.85 276.342 266.284 276.265C266.717 276.187 267.127 276.482 267.197 276.916C267.274 277.349 266.98 277.768 266.547 277.845C266.547 277.845 266.454 277.861 266.423 277.861C266.044 277.861 265.696 277.582 265.634 277.202V277.194ZM256.726 276.745C256.316 276.582 256.13 276.118 256.293 275.699C256.455 275.304 256.927 275.103 257.337 275.281C257.748 275.444 257.933 275.916 257.771 276.327C257.647 276.629 257.353 276.807 257.036 276.807C256.935 276.807 256.834 276.792 256.734 276.745H256.726ZM270.238 275.932C270.037 275.537 270.2 275.056 270.594 274.863C270.989 274.669 271.477 274.84 271.662 275.235C271.856 275.63 271.701 276.102 271.291 276.288H271.306C271.19 276.35 271.066 276.381 270.95 276.381C270.656 276.381 270.362 276.218 270.238 275.932ZM252.423 274.445C252.044 274.228 251.905 273.732 252.129 273.352C252.346 272.973 252.826 272.841 253.213 273.058C253.592 273.29 253.731 273.771 253.507 274.15C253.367 274.406 253.096 274.545 252.818 274.545C252.679 274.545 252.547 274.522 252.423 274.445ZM274.425 273.616C274.193 273.236 274.325 272.748 274.704 272.523C275.098 272.307 275.578 272.446 275.795 272.826C276.012 273.205 275.88 273.693 275.501 273.91C275.377 273.987 275.246 274.026 275.106 274.026C274.828 274.026 274.557 273.871 274.417 273.616H274.425ZM248.275 272.051C247.896 271.834 247.764 271.338 247.981 270.959C248.198 270.579 248.693 270.448 249.072 270.664C249.451 270.897 249.583 271.377 249.366 271.757C249.211 272.012 248.948 272.152 248.67 272.152C248.538 272.152 248.399 272.128 248.275 272.051ZM278.558 271.222C278.341 270.843 278.465 270.355 278.852 270.138C279.231 269.905 279.734 270.037 279.943 270.417C280.16 270.812 280.028 271.292 279.649 271.509C279.525 271.586 279.378 271.625 279.254 271.625C278.976 271.625 278.705 271.47 278.558 271.214V271.222ZM244.127 269.657C243.755 269.441 243.616 268.945 243.833 268.565C244.065 268.186 244.545 268.054 244.924 268.271C245.303 268.503 245.435 268.984 245.218 269.363C245.063 269.619 244.8 269.758 244.529 269.758C244.39 269.758 244.251 269.735 244.119 269.657H244.127ZM282.706 268.829C282.489 268.449 282.613 267.961 283 267.744C283.379 267.512 283.867 267.643 284.083 268.023C284.316 268.403 284.184 268.898 283.805 269.115C283.673 269.193 283.534 269.231 283.395 269.231C283.124 269.216 282.861 269.076 282.706 268.821V268.829ZM239.994 267.264C239.615 267.047 239.484 266.551 239.7 266.172C239.917 265.792 240.412 265.66 240.784 265.877C241.178 266.11 241.302 266.59 241.085 266.97C240.931 267.225 240.668 267.365 240.389 267.365C240.257 267.365 240.118 267.341 239.994 267.264ZM286.854 266.435C286.622 266.055 286.761 265.567 287.133 265.351C287.512 265.118 288.015 265.265 288.224 265.629C288.441 266.009 288.317 266.505 287.93 266.722C287.798 266.799 287.674 266.822 287.535 266.822C287.256 266.822 286.986 266.683 286.846 266.427L286.854 266.435ZM235.846 264.87C235.467 264.638 235.335 264.158 235.552 263.778C235.784 263.399 236.264 263.267 236.643 263.484C237.023 263.716 237.154 264.196 236.937 264.576C236.783 264.832 236.519 264.971 236.233 264.971C236.109 264.971 235.962 264.948 235.838 264.87H235.846ZM290.987 264.042C290.77 263.662 290.894 263.174 291.281 262.949C291.66 262.732 292.148 262.872 292.372 263.251C292.589 263.623 292.465 264.119 292.078 264.336C291.946 264.413 291.807 264.437 291.668 264.437C291.397 264.437 291.134 264.297 290.979 264.042H290.987ZM231.714 262.477C231.334 262.26 231.195 261.764 231.419 261.385C231.636 261.005 232.124 260.873 232.503 261.09C232.882 261.323 233.021 261.803 232.797 262.182C232.658 262.438 232.379 262.577 232.108 262.577C231.969 262.577 231.83 262.554 231.714 262.477ZM295.135 261.648C294.918 261.268 295.05 260.78 295.429 260.556C295.808 260.339 296.296 260.478 296.512 260.858C296.745 261.23 296.605 261.725 296.218 261.942C296.102 262.02 295.963 262.059 295.824 262.059C295.545 262.059 295.274 261.904 295.135 261.648ZM227.565 260.083C227.186 259.866 227.055 259.371 227.271 258.991C227.488 258.611 227.983 258.48 228.355 258.697C228.75 258.914 228.873 259.409 228.657 259.789C228.502 260.045 228.239 260.184 227.96 260.184C227.836 260.184 227.689 260.161 227.565 260.083ZM299.275 259.254C299.058 258.875 299.19 258.387 299.569 258.17C299.948 257.938 300.444 258.069 300.66 258.464C300.877 258.844 300.746 259.332 300.366 259.549C300.243 259.626 300.096 259.649 299.972 259.649C299.693 259.649 299.422 259.51 299.267 259.254H299.275ZM223.417 257.69C223.038 257.473 222.907 256.977 223.123 256.598C223.355 256.218 223.835 256.086 224.214 256.303C224.594 256.536 224.725 257.016 224.509 257.395C224.354 257.651 224.091 257.79 223.82 257.79C223.68 257.79 223.541 257.767 223.41 257.69H223.417ZM303.423 256.861C303.207 256.481 303.33 255.993 303.717 255.776C304.097 255.544 304.584 255.676 304.809 256.055C305.025 256.435 304.894 256.931 304.515 257.147C304.391 257.225 304.244 257.248 304.12 257.248C303.841 257.248 303.57 257.109 303.423 256.853V256.861ZM219.285 255.296C218.905 255.079 218.766 254.584 218.991 254.204C219.207 253.824 219.687 253.693 220.074 253.91C220.453 254.142 220.593 254.622 220.368 255.002C220.229 255.257 219.958 255.397 219.679 255.397C219.54 255.397 219.409 255.374 219.285 255.296ZM307.571 254.467C307.339 254.088 307.479 253.6 307.865 253.383C308.245 253.15 308.732 253.282 308.949 253.662C309.166 254.041 309.034 254.537 308.655 254.754C308.539 254.831 308.399 254.855 308.26 254.855C307.982 254.855 307.711 254.715 307.571 254.46V254.467ZM215.137 252.903C214.757 252.67 214.626 252.19 214.842 251.81C215.059 251.431 215.554 251.299 215.934 251.516C216.313 251.748 216.444 252.229 216.228 252.608C216.073 252.864 215.81 253.003 215.531 253.003C215.4 253.003 215.26 252.98 215.137 252.903ZM311.704 252.074C311.487 251.694 311.627 251.206 311.998 250.982C312.377 250.765 312.88 250.904 313.089 251.276C313.306 251.655 313.182 252.151 312.795 252.368C312.671 252.446 312.54 252.469 312.401 252.469C312.122 252.469 311.851 252.329 311.704 252.074ZM210.988 250.509C210.609 250.277 210.478 249.796 210.694 249.417C210.927 249.037 211.406 248.906 211.786 249.122C212.165 249.355 212.296 249.835 212.08 250.215C211.925 250.47 211.662 250.61 211.391 250.61C211.252 250.61 211.112 250.587 210.981 250.509H210.988ZM315.852 249.68C315.635 249.301 315.759 248.813 316.146 248.588C316.525 248.371 317.013 248.511 317.237 248.89C317.454 249.262 317.33 249.758 316.943 249.975C316.812 250.052 316.673 250.091 316.533 250.091C316.255 250.091 315.999 249.936 315.844 249.68H315.852ZM206.856 248.116C206.477 247.899 206.337 247.403 206.562 247.023C206.778 246.644 207.266 246.512 207.645 246.729C208.024 246.946 208.164 247.442 207.939 247.821C207.8 248.077 207.537 248.216 207.25 248.216C207.111 248.216 206.98 248.193 206.856 248.116ZM320 247.287C319.768 246.907 319.915 246.419 320.294 246.194C320.666 245.978 321.161 246.109 321.378 246.497C321.61 246.876 321.471 247.364 321.084 247.581C320.952 247.658 320.828 247.682 320.689 247.682C320.41 247.682 320.14 247.542 320 247.287ZM202.708 245.722C202.328 245.505 202.197 245.009 202.414 244.63C202.63 244.25 203.126 244.119 203.505 244.335C203.884 244.568 204.016 245.048 203.799 245.428C203.644 245.683 203.381 245.823 203.11 245.823C202.971 245.823 202.832 245.784 202.708 245.722ZM324.133 244.893C323.916 244.514 324.048 244.026 324.427 243.809C324.806 243.576 325.301 243.708 325.518 244.088C325.735 244.467 325.611 244.963 325.224 245.18C325.1 245.257 324.953 245.28 324.829 245.28C324.551 245.28 324.28 245.141 324.125 244.885L324.133 244.893ZM198.56 243.328C198.188 243.112 198.049 242.616 198.281 242.236C198.498 241.857 198.977 241.725 199.364 241.942C199.744 242.174 199.875 242.655 199.659 243.034C199.519 243.29 199.248 243.429 198.97 243.429C198.83 243.429 198.691 243.406 198.567 243.328H198.56ZM328.281 242.5C328.064 242.12 328.188 241.632 328.575 241.415C328.954 241.183 329.442 241.314 329.666 241.694C329.883 242.074 329.751 242.569 329.364 242.786C329.248 242.864 329.109 242.887 328.97 242.887C328.699 242.887 328.436 242.747 328.281 242.492V242.5ZM194.435 240.656C194.102 240.377 194.055 239.881 194.334 239.533C194.613 239.2 195.123 239.153 195.456 239.432C195.797 239.711 195.851 240.207 195.572 240.555C195.41 240.749 195.178 240.85 194.945 240.85C194.767 240.85 194.589 240.788 194.435 240.656ZM332.274 239.889C331.98 239.556 331.996 239.06 332.313 238.758C332.63 238.456 333.141 238.479 333.443 238.797C333.737 239.115 333.722 239.626 333.404 239.92C333.249 240.075 333.048 240.137 332.855 240.137C332.638 240.137 332.437 240.06 332.267 239.897L332.274 239.889ZM191.076 236.961C190.836 236.605 190.921 236.094 191.293 235.853C191.664 235.613 192.159 235.699 192.399 236.07C192.639 236.427 192.554 236.922 192.183 237.178C192.059 237.271 191.889 237.317 191.742 237.317C191.486 237.317 191.246 237.194 191.076 236.961ZM335.432 236.303C335.06 236.086 334.937 235.59 335.153 235.21C335.385 234.839 335.865 234.715 336.244 234.932C336.624 235.164 336.755 235.644 336.523 236.024C336.384 236.279 336.105 236.419 335.834 236.419C335.695 236.419 335.556 236.38 335.424 236.303H335.432ZM188.886 232.484C188.747 232.066 188.979 231.609 189.397 231.477C189.814 231.337 190.263 231.562 190.403 231.988C190.542 232.406 190.31 232.856 189.892 232.995C189.799 233.018 189.729 233.034 189.636 233.034C189.304 233.034 188.986 232.817 188.886 232.484ZM337.467 231.988C337.034 231.872 336.778 231.438 336.895 231.02C337.011 230.586 337.444 230.33 337.862 230.431C338.295 230.547 338.551 230.981 338.435 231.415C338.342 231.771 338.024 232.011 337.668 232.011C337.591 232.011 337.529 231.996 337.467 231.988ZM188.019 227.557C188.004 227.108 188.36 226.752 188.793 226.744C189.242 226.729 189.606 227.077 189.621 227.511C189.637 227.96 189.288 228.324 188.847 228.34H188.824C188.391 228.34 188.035 227.999 188.019 227.565V227.557ZM337.405 227.007C337.405 226.558 337.761 226.202 338.195 226.202C338.636 226.202 339 226.558 339 227.007C339 227.441 338.644 227.813 338.195 227.813C337.761 227.813 337.405 227.441 337.405 227.007ZM188.019 222.739C188.019 222.29 188.375 221.934 188.808 221.934C189.25 221.934 189.613 222.29 189.613 222.739C189.613 223.189 189.257 223.545 188.808 223.545C188.375 223.545 188.019 223.189 188.019 222.739ZM337.405 222.22C337.405 221.771 337.761 221.415 338.195 221.415C338.636 221.415 339 221.771 339 222.22C339 222.67 338.644 223.01 338.195 223.01C337.761 223.01 337.405 222.67 337.405 222.22ZM188.019 217.952C188.019 217.503 188.375 217.162 188.808 217.162C189.25 217.162 189.613 217.503 189.613 217.952C189.613 218.401 189.257 218.758 188.808 218.758C188.375 218.758 188.019 218.401 188.019 217.952ZM337.405 217.433C337.405 216.984 337.761 216.628 338.195 216.628C338.636 216.628 339 216.984 339 217.433C339 217.882 338.644 218.239 338.195 218.239C337.761 218.239 337.405 217.882 337.405 217.433ZM188.019 213.165C188.019 212.731 188.375 212.359 188.808 212.359C189.25 212.359 189.613 212.731 189.613 213.165C189.613 213.614 189.257 213.971 188.808 213.971C188.375 213.971 188.019 213.614 188.019 213.165ZM337.405 212.646C337.405 212.197 337.761 211.841 338.195 211.841C338.636 211.841 339 212.197 339 212.646C339 213.08 338.644 213.452 338.195 213.452C337.761 213.452 337.405 213.08 337.405 212.646ZM188.019 208.378C188.019 207.929 188.375 207.588 188.808 207.588C189.25 207.588 189.613 207.929 189.613 208.378C189.613 208.827 189.257 209.184 188.808 209.184C188.375 209.184 188.019 208.827 188.019 208.378ZM337.405 207.859C337.405 207.41 337.761 207.053 338.195 207.053C338.636 207.053 339 207.41 339 207.859C339 208.308 338.644 208.649 338.195 208.649C337.761 208.649 337.405 208.308 337.405 207.859ZM188.019 203.591C188.019 203.142 188.375 202.785 188.808 202.785C189.25 202.785 189.613 203.142 189.613 203.591C189.613 204.04 189.257 204.396 188.808 204.396C188.375 204.396 188.019 204.04 188.019 203.591ZM337.405 203.072C337.405 202.623 337.761 202.266 338.195 202.266C338.636 202.266 339 202.623 339 203.072C339 203.506 338.644 203.878 338.195 203.878C337.761 203.878 337.405 203.506 337.405 203.072ZM188.019 198.804C188.019 198.37 188.375 197.998 188.808 197.998C189.25 197.998 189.613 198.37 189.613 198.804C189.613 199.253 189.257 199.609 188.808 199.609C188.375 199.609 188.019 199.253 188.019 198.804ZM337.405 198.285C337.405 197.836 337.761 197.479 338.195 197.479C338.636 197.479 339 197.836 339 198.285C339 198.719 338.644 199.09 338.195 199.09C337.761 199.09 337.405 198.719 337.405 198.285ZM188.019 194.017C188.019 193.567 188.375 193.227 188.808 193.227C189.25 193.227 189.613 193.567 189.613 194.017C189.613 194.466 189.257 194.822 188.808 194.822C188.375 194.822 188.019 194.466 188.019 194.017ZM337.405 193.498C337.405 193.048 337.761 192.692 338.195 192.692C338.636 192.692 339 193.048 339 193.498C339 193.947 338.644 194.288 338.195 194.288C337.761 194.288 337.405 193.947 337.405 193.498ZM188.019 189.23C188.019 188.796 188.375 188.424 188.808 188.424C189.25 188.424 189.613 188.796 189.613 189.23C189.613 189.679 189.257 190.035 188.808 190.035C188.375 190.035 188.019 189.679 188.019 189.23ZM337.405 188.711C337.405 188.261 337.761 187.905 338.195 187.905C338.636 187.905 339 188.261 339 188.711C339 189.144 338.644 189.516 338.195 189.516C337.761 189.516 337.405 189.144 337.405 188.711ZM188.019 184.443C188.019 183.993 188.375 183.637 188.808 183.637C189.25 183.637 189.613 183.993 189.613 184.443C189.613 184.892 189.257 185.248 188.808 185.248C188.375 185.248 188.019 184.892 188.019 184.443ZM337.405 183.924C337.405 183.474 337.761 183.118 338.195 183.118C338.636 183.118 339 183.474 339 183.924C339 184.357 338.644 184.714 338.195 184.714C337.761 184.714 337.405 184.357 337.405 183.924ZM188.019 179.655C188.019 179.206 188.375 178.85 188.808 178.85C189.25 178.85 189.613 179.206 189.613 179.655C189.613 180.105 189.257 180.461 188.808 180.461C188.375 180.461 188.019 180.105 188.019 179.655ZM337.405 179.136C337.405 178.687 337.761 178.331 338.195 178.331C338.636 178.331 339 178.687 339 179.136C339 179.57 338.644 179.927 338.195 179.927C337.761 179.927 337.405 179.57 337.405 179.136ZM188.019 174.868C188.019 174.435 188.375 174.063 188.808 174.063C189.25 174.063 189.613 174.435 189.613 174.868C189.613 175.318 189.257 175.674 188.808 175.674C188.375 175.674 188.019 175.318 188.019 174.868ZM337.405 174.349C337.405 173.9 337.761 173.544 338.195 173.544C338.636 173.544 339 173.9 339 174.349C339 174.783 338.644 175.155 338.195 175.155C337.761 175.155 337.405 174.783 337.405 174.349ZM188.019 170.081C188.019 169.632 188.375 169.276 188.808 169.276C189.25 169.276 189.613 169.632 189.613 170.081C189.613 170.531 189.257 170.887 188.808 170.887C188.375 170.887 188.019 170.531 188.019 170.081ZM337.405 169.562C337.405 169.113 337.761 168.757 338.195 168.757C338.636 168.757 339 169.113 339 169.562C339 169.996 338.644 170.352 338.195 170.352C337.761 170.352 337.405 169.996 337.405 169.562ZM188.019 165.294C188.019 164.845 188.375 164.489 188.808 164.489C189.25 164.489 189.613 164.845 189.613 165.294C189.613 165.743 189.257 166.1 188.808 166.1C188.375 166.1 188.019 165.743 188.019 165.294ZM337.405 164.775C337.405 164.326 337.761 163.97 338.195 163.97C338.636 163.97 339 164.326 339 164.775C339 165.209 338.644 165.565 338.195 165.565C337.761 165.565 337.405 165.209 337.405 164.775ZM188.019 160.507C188.019 160.058 188.375 159.701 188.808 159.701C189.25 159.701 189.613 160.058 189.613 160.507C189.613 160.956 189.257 161.313 188.808 161.313C188.375 161.313 188.019 160.956 188.019 160.507ZM337.39 159.996C337.39 159.547 337.746 159.19 338.179 159.182C338.628 159.167 338.984 159.523 338.992 159.973H338.976C338.992 160.406 338.644 160.778 338.202 160.778H338.187C337.754 160.778 337.398 160.437 337.382 160.004L337.39 159.996ZM189.203 156.541C188.785 156.417 188.53 155.983 188.646 155.557C188.762 155.124 189.203 154.883 189.629 155C190.047 155.116 190.302 155.55 190.186 155.983C190.085 156.34 189.768 156.572 189.42 156.572C189.342 156.572 189.281 156.557 189.203 156.549V156.541ZM336.693 155.495C336.57 155.077 336.794 154.628 337.212 154.504C337.63 154.38 338.079 154.605 338.202 155.023C338.342 155.441 338.102 155.89 337.684 156.014C337.607 156.038 337.529 156.053 337.452 156.053C337.111 156.053 336.786 155.836 336.686 155.495H336.693ZM190.898 152.072C190.519 151.839 190.403 151.343 190.627 150.979C190.859 150.6 191.339 150.484 191.718 150.708C192.09 150.941 192.214 151.436 191.989 151.8C191.834 152.041 191.571 152.18 191.3 152.18C191.161 152.18 191.022 152.141 190.89 152.064L190.898 152.072ZM334.759 151.382C334.519 151.01 334.619 150.515 334.991 150.274C335.362 150.034 335.858 150.135 336.082 150.507H336.097C336.337 150.879 336.237 151.374 335.865 151.615C335.726 151.7 335.571 151.738 335.416 151.738C335.161 151.738 334.906 151.615 334.759 151.382ZM193.761 148.253C193.467 147.92 193.483 147.424 193.816 147.122C194.133 146.827 194.644 146.851 194.945 147.176C195.24 147.509 195.216 148.013 194.884 148.307C194.729 148.446 194.543 148.508 194.35 148.508C194.133 148.508 193.916 148.423 193.761 148.253ZM331.756 147.974C331.415 147.695 331.377 147.184 331.663 146.851C331.942 146.51 332.452 146.471 332.785 146.758C333.126 147.037 333.157 147.548 332.87 147.881C332.715 148.075 332.491 148.16 332.259 148.16C332.081 148.16 331.887 148.098 331.748 147.966L331.756 147.974ZM197.577 145.402C197.36 145.023 197.499 144.527 197.871 144.31C198.25 144.093 198.745 144.217 198.962 144.604C199.179 144.984 199.055 145.472 198.668 145.697C198.536 145.758 198.397 145.797 198.273 145.797C197.995 145.797 197.724 145.658 197.577 145.402ZM327.886 145.425C327.507 145.209 327.368 144.713 327.592 144.333C327.809 143.954 328.304 143.822 328.676 144.054C329.055 144.271 329.194 144.751 328.978 145.139C328.823 145.394 328.56 145.534 328.281 145.534C328.142 145.534 328.01 145.511 327.886 145.433V145.425ZM201.725 143.009C201.508 142.629 201.64 142.133 202.019 141.916C202.398 141.7 202.893 141.823 203.11 142.211C203.327 142.59 203.203 143.086 202.816 143.303C202.692 143.365 202.545 143.404 202.421 143.404C202.143 143.404 201.872 143.264 201.725 143.009ZM323.738 143.032C323.359 142.815 323.227 142.319 323.444 141.94C323.661 141.568 324.156 141.428 324.535 141.645C324.915 141.878 325.046 142.358 324.829 142.737C324.675 142.993 324.412 143.133 324.125 143.133C324.001 143.133 323.854 143.109 323.73 143.032H323.738ZM205.873 140.615C205.641 140.235 205.78 139.747 206.167 139.523C206.546 139.306 207.034 139.43 207.25 139.817C207.483 140.197 207.343 140.685 206.956 140.909C206.833 140.971 206.701 141.01 206.562 141.01C206.283 141.01 206.012 140.871 205.873 140.615ZM319.606 140.638C319.226 140.421 319.087 139.926 319.304 139.554C319.536 139.174 320.016 139.035 320.395 139.252C320.774 139.484 320.913 139.964 320.689 140.344C320.55 140.6 320.287 140.739 320 140.739C319.861 140.739 319.722 140.716 319.606 140.638ZM210.006 138.222C209.789 137.842 209.913 137.354 210.3 137.129C210.679 136.912 211.182 137.036 211.391 137.424C211.608 137.803 211.476 138.291 211.097 138.516C210.973 138.578 210.826 138.617 210.702 138.617C210.424 138.617 210.153 138.477 210.006 138.222ZM315.457 138.245C315.078 138.028 314.939 137.532 315.163 137.16C315.38 136.765 315.86 136.641 316.247 136.858C316.626 137.091 316.765 137.571 316.549 137.95C316.394 138.206 316.131 138.345 315.852 138.345C315.728 138.345 315.581 138.322 315.457 138.245ZM214.154 135.828C213.937 135.448 214.061 134.953 214.448 134.736C214.827 134.519 215.315 134.643 215.539 135.03C215.756 135.41 215.632 135.898 215.245 136.122C215.121 136.184 214.974 136.223 214.842 136.223C214.572 136.223 214.308 136.084 214.154 135.828ZM311.309 135.851C310.93 135.634 310.799 135.139 311.015 134.759C311.232 134.379 311.727 134.248 312.106 134.48C312.486 134.697 312.617 135.177 312.401 135.565C312.246 135.82 311.983 135.96 311.712 135.96C311.572 135.96 311.433 135.936 311.302 135.859L311.309 135.851ZM218.294 133.434C218.077 133.055 218.217 132.559 218.596 132.342C218.967 132.125 219.463 132.249 219.679 132.637C219.912 133.016 219.772 133.504 219.385 133.729C219.261 133.791 219.13 133.829 218.991 133.829C218.712 133.829 218.441 133.69 218.294 133.434ZM307.177 133.458C306.798 133.241 306.658 132.745 306.875 132.365C307.107 131.986 307.587 131.854 307.966 132.087C308.345 132.303 308.485 132.784 308.26 133.171C308.105 133.427 307.842 133.566 307.571 133.566C307.432 133.566 307.293 133.543 307.177 133.465V133.458ZM222.442 131.041C222.226 130.661 222.349 130.166 222.736 129.949C223.115 129.732 223.611 129.856 223.827 130.243C224.044 130.623 223.92 131.111 223.533 131.335C223.402 131.397 223.263 131.436 223.139 131.436C222.86 131.436 222.589 131.296 222.442 131.041ZM303.029 131.064C302.649 130.847 302.518 130.351 302.735 129.972C302.951 129.592 303.447 129.461 303.818 129.678C304.213 129.91 304.337 130.39 304.12 130.77C303.965 131.025 303.702 131.165 303.423 131.165C303.284 131.165 303.152 131.142 303.029 131.064ZM226.59 128.647C226.358 128.268 226.505 127.772 226.884 127.555C227.264 127.338 227.751 127.462 227.976 127.849C228.192 128.229 228.053 128.717 227.674 128.942C227.558 129.004 227.418 129.042 227.279 129.042C227.008 129.042 226.745 128.903 226.59 128.647ZM298.881 128.671C298.501 128.454 298.37 127.958 298.586 127.578C298.819 127.207 299.298 127.067 299.678 127.284C300.057 127.516 300.188 127.997 299.972 128.376C299.817 128.632 299.554 128.771 299.267 128.771C299.144 128.771 298.997 128.748 298.873 128.671H298.881ZM230.723 126.254C230.506 125.874 230.638 125.386 231.025 125.162C231.404 124.945 231.892 125.069 232.108 125.456C232.34 125.835 232.201 126.323 231.814 126.548C231.683 126.61 231.543 126.649 231.419 126.649C231.141 126.649 230.87 126.509 230.723 126.254ZM294.748 126.277C294.369 126.06 294.229 125.564 294.454 125.193C294.67 124.798 295.158 124.674 295.537 124.89C295.916 125.123 296.056 125.603 295.839 125.983C295.684 126.238 295.421 126.378 295.135 126.378C294.995 126.378 294.864 126.354 294.74 126.277H294.748ZM234.871 123.86C234.654 123.481 234.786 122.985 235.165 122.768C235.544 122.551 236.047 122.683 236.256 123.062C236.473 123.442 236.341 123.93 235.962 124.155C235.838 124.217 235.691 124.255 235.552 124.255C235.281 124.255 235.018 124.116 234.863 123.86H234.871ZM290.6 123.883C290.221 123.667 290.089 123.186 290.306 122.791C290.522 122.412 291.018 122.28 291.397 122.497C291.776 122.729 291.908 123.21 291.691 123.589C291.536 123.845 291.273 123.984 290.994 123.984C290.871 123.984 290.724 123.961 290.6 123.883ZM239.019 121.467C238.802 121.087 238.926 120.591 239.313 120.374C239.692 120.158 240.18 120.282 240.397 120.669C240.629 121.048 240.482 121.536 240.103 121.761C239.987 121.823 239.847 121.862 239.708 121.862C239.437 121.862 239.158 121.722 239.019 121.467ZM286.467 121.49C286.088 121.273 285.949 120.777 286.165 120.398C286.397 120.018 286.877 119.886 287.256 120.119C287.636 120.336 287.767 120.816 287.551 121.203C287.396 121.459 287.133 121.598 286.862 121.598C286.723 121.598 286.583 121.575 286.467 121.498V121.49ZM243.16 119.073C242.943 118.694 243.067 118.198 243.454 117.981C243.833 117.764 244.336 117.896 244.545 118.275C244.762 118.655 244.638 119.143 244.251 119.367C244.127 119.429 243.98 119.468 243.856 119.468C243.577 119.468 243.307 119.329 243.16 119.073ZM282.319 119.096C281.94 118.879 281.8 118.384 282.025 118.004C282.242 117.625 282.721 117.493 283.108 117.725C283.488 117.942 283.627 118.422 283.402 118.81C283.263 119.065 282.992 119.205 282.714 119.205C282.574 119.205 282.443 119.182 282.319 119.104V119.096ZM247.308 116.68C247.091 116.3 247.215 115.804 247.602 115.587C247.981 115.371 248.469 115.494 248.693 115.882C248.91 116.261 248.786 116.749 248.399 116.974C248.267 117.036 248.128 117.075 247.989 117.075C247.718 117.075 247.455 116.935 247.3 116.68H247.308ZM278.171 116.703C277.792 116.486 277.66 115.99 277.877 115.611C278.093 115.239 278.589 115.099 278.968 115.316C279.347 115.549 279.479 116.029 279.262 116.408C279.107 116.664 278.844 116.804 278.566 116.804C278.434 116.804 278.295 116.78 278.171 116.703ZM251.456 114.286C251.224 113.906 251.371 113.411 251.75 113.194C252.129 112.977 252.617 113.109 252.833 113.488C253.066 113.868 252.926 114.356 252.539 114.58C252.408 114.642 252.268 114.681 252.145 114.681C251.866 114.681 251.595 114.542 251.456 114.286ZM274.031 114.309C273.659 114.092 273.52 113.597 273.752 113.217C273.969 112.838 274.448 112.706 274.835 112.923C275.215 113.155 275.346 113.635 275.129 114.015C274.99 114.271 274.712 114.41 274.441 114.41C274.301 114.41 274.162 114.387 274.031 114.309ZM255.596 111.877C255.403 111.482 255.581 111.009 255.975 110.824C256.37 110.63 256.858 110.8 257.043 111.203C257.221 111.598 257.059 112.071 256.649 112.257C256.548 112.311 256.432 112.334 256.316 112.334C256.014 112.334 255.728 112.171 255.588 111.877H255.596ZM269.921 112.055C269.519 111.877 269.333 111.404 269.519 111.009C269.681 110.599 270.153 110.413 270.563 110.591C270.974 110.769 271.159 111.226 270.981 111.637C270.842 111.939 270.548 112.117 270.246 112.117C270.146 112.117 270.029 112.094 269.929 112.055H269.921ZM260.085 110.258C260.023 109.824 260.317 109.414 260.743 109.344C261.176 109.282 261.586 109.576 261.656 110.002C261.718 110.452 261.424 110.855 260.99 110.916C260.936 110.932 260.905 110.932 260.866 110.932C260.472 110.932 260.139 110.653 260.077 110.258H260.085ZM265.541 110.855C265.107 110.793 264.79 110.398 264.844 109.964C264.906 109.514 265.301 109.212 265.75 109.267C266.183 109.321 266.485 109.724 266.439 110.157C266.384 110.568 266.044 110.855 265.649 110.855H265.549H265.541Z" fill="white"/>
<mask id="mask0_3029_395" style="mask-type:luminance" maskUnits="userSpaceOnUse" x="229" y="173" width="69" height="42">
<path d="M297.596 200.438V184.14C297.596 182.552 296.752 181.081 295.383 180.283L283.581 173.42C281.599 172.266 279.115 173.699 279.115 175.992V193.358L270.734 188.525C266.245 185.938 260.727 185.945 256.246 188.54L247.911 193.374V175.992C247.911 173.699 245.427 172.266 243.446 173.42L231.644 180.283C230.274 181.081 229.431 182.552 229.431 184.14V200.454C229.431 202.739 230.599 204.869 232.519 206.093L243.26 212.948C246.054 214.73 249.66 214.59 252.307 212.592L259.775 206.945C261.826 205.396 265.193 205.396 267.244 206.945L274.712 212.584C277.358 214.583 280.965 214.722 283.759 212.94L294.516 206.077C296.443 204.846 297.604 202.723 297.604 200.438H297.596Z" fill="white"/>
</mask>
<g mask="url(#mask0_3029_395)">
<path d="M297.596 204.118L263.536 184.303L263.474 184.497V184.303L229.415 204.118L247.896 215.915L263.498 208.843L279.107 215.915L297.596 204.118Z" fill="url(#paint0_linear_3029_395)"/>
<path style="mix-blend-mode:multiply" d="M297.596 204.118L263.536 184.303L229.415 204.118L247.896 215.915L259.52 207.131C261.872 205.349 265.115 205.349 267.476 207.131L279.107 215.923L297.588 204.125L297.596 204.118Z" fill="url(#paint1_linear_3029_395)"/>
<g style="mix-blend-mode:overlay">
<path d="M297.627 204.118L263.568 184.303L229.446 204.118L238.594 209.974L257.887 197.634C261.323 195.434 265.719 195.442 269.155 197.634L288.41 209.966L297.627 204.118Z" fill="url(#paint2_linear_3029_395)"/>
<g style="mix-blend-mode:overlay" opacity="0.3">
<path d="M297.627 204.118L263.568 184.303L229.446 204.118L238.594 209.974L257.887 197.634C261.323 195.434 265.719 195.442 269.155 197.634L288.41 209.966L297.627 204.118Z" fill="white"/>
</g>
</g>
<path d="M252.748 212.251L247.904 215.915L229.423 204.118V181.569L247.904 170.817V209.834C247.904 211.624 249.374 212.863 250.937 212.863C251.556 212.863 252.183 212.669 252.748 212.243V212.251Z" fill="url(#paint3_linear_3029_395)"/>
<path style="mix-blend-mode:color-dodge" d="M252.748 212.259L247.904 215.923L229.423 204.126V181.577L247.904 170.825V209.842C247.904 211.632 249.374 212.871 250.937 212.871C251.556 212.871 252.183 212.677 252.748 212.251V212.259Z" fill="url(#paint4_linear_3029_395)"/>
<path style="mix-blend-mode:hard-light" d="M250.937 212.871C249.374 212.871 247.904 211.631 247.904 209.842V193.374L233.973 201.476C233.486 201.763 232.96 201.895 232.457 201.895C230.878 201.895 229.423 200.632 229.423 198.858V204.125L247.904 215.923L252.748 212.259C252.183 212.685 251.556 212.878 250.937 212.878V212.871Z" fill="url(#paint5_linear_3029_395)"/>
<path style="mix-blend-mode:hard-light" d="M250.938 212.871C249.374 212.871 247.904 211.631 247.904 209.842V204.071L242.618 207.402C240.018 209.067 236.613 208.688 234.036 207.069C234.012 207.053 233.989 207.046 233.974 207.03L247.904 215.915L252.749 212.251C252.184 212.677 251.557 212.871 250.938 212.871Z" fill="url(#paint6_linear_3029_395)"/>
<path d="M274.294 212.251L279.139 215.915L297.619 204.118V181.569L279.139 170.817V209.834C279.139 211.624 277.668 212.863 276.105 212.863C275.486 212.863 274.859 212.669 274.294 212.243V212.251Z" fill="url(#paint7_linear_3029_395)"/>
<path style="mix-blend-mode:color-dodge" d="M274.294 212.251L279.139 215.915L297.619 204.118V181.569L279.139 170.817V209.834C279.139 211.624 277.668 212.863 276.105 212.863C275.486 212.863 274.859 212.669 274.294 212.243V212.251Z" fill="url(#paint8_linear_3029_395)"/>
<path style="mix-blend-mode:hard-light" d="M274.294 212.251L279.139 215.915L297.619 204.118V198.85C297.619 200.624 296.164 201.887 294.586 201.887C294.083 201.887 293.556 201.755 293.069 201.468L279.139 193.366V209.834C279.139 211.624 277.668 212.863 276.105 212.863C275.486 212.863 274.859 212.669 274.294 212.243V212.251Z" fill="url(#paint9_linear_3029_395)"/>
<path style="mix-blend-mode:hard-light" d="M274.294 212.251L279.139 215.915L293.069 207.03C293.046 207.046 293.022 207.061 293.007 207.069C290.43 208.68 287.032 209.067 284.424 207.402L279.139 204.063V209.834C279.139 211.624 277.668 212.863 276.105 212.863C275.486 212.863 274.859 212.669 274.294 212.243V212.251Z" fill="url(#paint10_linear_3029_395)"/>
</g>
<path d="M185.505 149.461C185.126 149.244 184.986 148.764 185.203 148.377C185.435 147.997 185.915 147.858 186.294 148.075C186.673 148.307 186.805 148.787 186.588 149.167C186.449 149.422 186.17 149.577 185.899 149.577C185.76 149.577 185.621 149.539 185.505 149.461ZM181.341 147.091C180.962 146.858 180.83 146.378 181.047 145.999C181.264 145.619 181.759 145.48 182.138 145.704C182.518 145.921 182.649 146.401 182.432 146.789C182.278 147.06 182.014 147.199 181.736 147.199C181.612 147.199 181.465 147.161 181.341 147.099V147.091ZM177.193 144.713C176.814 144.496 176.675 144.016 176.899 143.628C177.116 143.233 177.596 143.109 177.982 143.326C178.362 143.543 178.501 144.023 178.277 144.411C178.137 144.682 177.866 144.821 177.588 144.821C177.448 144.821 177.317 144.798 177.193 144.72V144.713ZM173.045 142.335C172.666 142.118 172.526 141.638 172.743 141.25C172.96 140.871 173.455 140.731 173.834 140.948C174.214 141.181 174.345 141.661 174.128 142.04C173.974 142.296 173.711 142.451 173.44 142.451C173.3 142.451 173.161 142.412 173.045 142.335ZM168.881 139.964C168.502 139.732 168.371 139.252 168.587 138.872C168.804 138.493 169.292 138.353 169.671 138.578C170.05 138.795 170.189 139.275 169.973 139.662C169.818 139.933 169.555 140.073 169.276 140.073C169.137 140.073 169.005 140.034 168.881 139.972V139.964ZM164.733 137.586C164.354 137.369 164.215 136.874 164.431 136.502C164.664 136.107 165.143 135.983 165.523 136.2C165.902 136.417 166.041 136.897 165.817 137.284C165.677 137.555 165.407 137.695 165.128 137.695C164.989 137.695 164.849 137.656 164.733 137.594V137.586ZM160.57 135.208C160.19 134.991 160.059 134.511 160.276 134.124C160.492 133.744 160.972 133.605 161.367 133.822C161.746 134.054 161.878 134.534 161.661 134.914C161.506 135.17 161.243 135.324 160.964 135.324C160.833 135.324 160.693 135.286 160.57 135.208ZM156.422 132.838C156.042 132.606 155.903 132.125 156.127 131.746C156.344 131.366 156.832 131.227 157.211 131.451C157.59 131.668 157.729 132.149 157.505 132.536C157.366 132.807 157.103 132.946 156.816 132.946C156.677 132.946 156.545 132.908 156.422 132.846V132.838ZM152.273 130.46C151.894 130.243 151.755 129.747 151.972 129.368C152.188 128.988 152.684 128.856 153.063 129.073C153.442 129.29 153.574 129.77 153.357 130.158C153.202 130.429 152.939 130.568 152.668 130.568C152.529 130.568 152.39 130.53 152.273 130.468V130.46Z" fill="white"/>
<path d="M76.5618 118.058C76.4302 117.996 76.2909 118.02 76.1516 118.02C68.2733 117.818 61.2308 115.316 55.1247 110.312C49.7771 105.928 46.2094 100.351 44.3365 93.6814C43.3227 90.064 42.8119 86.3846 42.9667 82.6277C43.1757 77.6779 44.5145 73.038 46.9291 68.7157C49.0728 64.8736 51.7582 61.4499 55.117 58.5993C58.1429 56.0353 61.5481 54.1375 65.286 52.8362C67.6 52.0383 69.9682 51.4651 72.3982 51.1553C74.6193 50.8764 76.8404 50.8222 79.077 51.0004C80.2378 51.0933 81.3909 51.2405 82.5441 51.4574C82.6834 51.4806 82.8149 51.5039 82.9233 51.6123C83.0007 51.806 82.8846 51.9686 82.8072 52.1313C81.5999 54.6643 80.3849 57.205 79.1776 59.738C78.3805 61.4111 77.5756 63.0843 76.794 64.7652C76.616 65.1525 76.3606 65.2997 75.9427 65.3152C71.4927 65.4856 67.5458 66.9806 64.1561 69.8699C60.6736 72.8289 58.4834 76.578 57.7018 81.0785C56.6493 87.1747 58.2048 92.5969 62.2523 97.2601C65.0926 100.529 68.7454 102.419 72.9477 103.287C78.4424 104.425 83.3876 103.093 87.884 99.8628C88.1471 99.6769 88.4025 99.4755 88.6579 99.2896C88.7585 99.2121 88.8668 99.1269 89.0216 99.1579C89.1609 99.2121 89.2228 99.3516 89.3002 99.4755C91.5368 103.349 93.7734 107.222 96.0022 111.095C96.2499 111.521 96.2189 111.637 95.801 111.931C91.7303 114.782 87.2494 116.641 82.3583 117.508C80.6712 117.803 78.9764 117.965 77.266 118.02C77.119 118.02 76.972 118.004 76.8327 118.066H76.5541L76.5618 118.058Z" fill="#EF492D"/>
<path d="M100.003 108.291C99.8639 108.236 99.8097 108.136 99.7555 108.043C97.1784 103.558 94.6091 99.0804 92.032 94.5954C91.7998 94.1926 91.467 94.0222 91.0104 94.0222C85.8872 94.0222 80.764 94.0222 75.6485 94.0222C75.5247 94.0222 75.3931 94.0455 75.2693 93.9912C75.1996 93.8518 75.2693 93.7434 75.3312 93.6349C77.916 89.1499 80.5086 84.6649 83.0857 80.1722C83.3024 79.7926 83.581 79.63 84.0221 79.63C89.1453 79.63 94.2686 79.63 99.3841 79.63C99.8174 79.63 100.096 79.7926 100.313 80.1722C102.859 84.5952 105.405 89.026 107.967 93.4413C108.214 93.8596 108.207 94.2004 107.967 94.6109C105.413 99.0185 102.867 103.434 100.32 107.849C100.228 108.004 100.181 108.19 100.003 108.291Z" fill="#EF492D"/>
<path d="M89.0601 60.776C88.9827 60.7062 88.9208 60.652 88.8589 60.59C88.054 59.7845 87.2492 58.9789 86.4443 58.1733C86.1889 57.9176 86.1812 57.8092 86.3592 57.4994C87.8528 54.9509 90.1281 53.634 93.0147 53.3165C95.0501 53.0918 96.9384 53.5488 98.6719 54.6255C100.491 55.7565 101.412 57.4296 101.419 59.5676C101.419 61.6125 100.638 63.2857 99.0357 64.5793C98.0373 65.3926 96.9307 66.0201 95.8008 66.6088C94.903 67.0735 94.0053 67.5306 93.1463 68.065C92.3414 68.5685 91.7455 69.2424 91.4514 70.1642C91.405 70.3114 91.3431 70.4586 91.4205 70.6213C91.552 70.7529 91.7223 70.7374 91.8848 70.7374C94.787 70.7374 97.6891 70.7297 100.583 70.722C101.272 70.722 101.365 70.8149 101.326 71.5043C101.288 72.3874 101.295 73.2704 101.326 74.1457C101.326 74.2387 101.334 74.3316 101.334 74.4246C101.326 74.7809 101.226 74.8816 100.862 74.8816C99.9179 74.8816 98.9738 74.8816 98.0296 74.8816C94.2607 74.8816 90.4841 74.8816 86.7152 74.8816C86.2121 74.8816 86.158 74.8351 86.1657 74.3316C86.1889 72.6507 86.3592 70.9931 86.9396 69.4051C87.6129 67.5538 88.8279 66.1363 90.3835 64.9666C91.614 64.0448 92.9606 63.3554 94.3304 62.6815C94.934 62.3871 95.5067 62.0386 96.0097 61.5815C96.6908 60.9541 97.039 60.195 96.8688 59.2655C96.7062 58.3747 95.9555 57.6853 94.903 57.5071C92.8058 57.1508 90.9174 57.8634 89.6018 59.8851C89.4161 60.164 89.2458 60.4584 89.0678 60.7682L89.0601 60.776Z" fill="#EF492D"/>
<path d="M101.868 112.535C101.953 112.241 102.015 111.993 102.085 111.761C102.209 111.707 102.325 111.714 102.441 111.745C102.573 112.241 102.503 112.961 102.309 112.985C102.24 112.869 102.278 112.737 102.271 112.613C102.271 112.489 102.271 112.357 102.271 112.156C102.108 112.458 102.116 112.737 102 112.977C101.93 113.039 101.853 113.031 101.752 112.985C101.69 112.76 101.628 112.528 101.559 112.295C101.543 112.295 101.52 112.295 101.505 112.295V112.938C101.412 113.031 101.342 113.023 101.265 112.969V111.753C101.388 111.707 101.497 111.714 101.613 111.738C101.737 111.962 101.737 112.241 101.868 112.535Z" fill="#EF492D"/>
<path d="M99.9951 111.815C100.367 111.621 100.715 111.753 101.032 111.722C101.079 111.8 101.079 111.846 101.048 111.916C100.947 111.931 100.846 111.939 100.707 111.954V112.93C100.606 113.031 100.529 113.008 100.429 112.946V111.993C100.305 111.885 100.165 111.978 99.9951 111.807V111.815Z" fill="#EF492D"/>
</g>
<defs>
<linearGradient id="paint0_linear_3029_395" x1="263.505" y1="158.88" x2="263.505" y2="225.009" gradientUnits="userSpaceOnUse">
<stop offset="0.34" stop-color="#FDF400"/>
<stop offset="0.42" stop-color="#92DF1C"/>
<stop offset="0.48" stop-color="#43D030"/>
<stop offset="0.52" stop-color="#12C63D"/>
<stop offset="0.54" stop-color="#00C342"/>
<stop offset="0.81" stop-color="#135090"/>
</linearGradient>
<linearGradient id="paint1_linear_3029_395" x1="227.295" y1="162.327" x2="294.547" y2="239.805" gradientUnits="userSpaceOnUse">
<stop stop-opacity="0"/>
<stop offset="0.85" stop-opacity="0.56"/>
<stop offset="1"/>
</linearGradient>
<linearGradient id="paint2_linear_3029_395" x1="241.689" y1="174.264" x2="279.749" y2="226.184" gradientUnits="userSpaceOnUse">
<stop stop-color="white" stop-opacity="0"/>
<stop offset="0.11" stop-color="#FCFFFA" stop-opacity="0.02"/>
<stop offset="0.23" stop-color="#F4FFEE" stop-opacity="0.08"/>
<stop offset="0.37" stop-color="#E8FFD9" stop-opacity="0.17"/>
<stop offset="0.51" stop-color="#D7FFBC" stop-opacity="0.3"/>
<stop offset="0.65" stop-color="#C0FF97" stop-opacity="0.47"/>
<stop offset="0.8" stop-color="#A5FF69" stop-opacity="0.68"/>
<stop offset="0.95" stop-color="#86FF34" stop-opacity="0.92"/>
<stop offset="1" stop-color="#7BFF22"/>
</linearGradient>
<linearGradient id="paint3_linear_3029_395" x1="241.078" y1="77.5386" x2="241.078" y2="261.253" gradientUnits="userSpaceOnUse">
<stop stop-color="#F8FF5D"/>
<stop offset="0.49" stop-color="#FFCB00"/>
<stop offset="1" stop-color="#06CD00"/>
</linearGradient>
<linearGradient id="paint4_linear_3029_395" x1="241.589" y1="193.831" x2="228.281" y2="165.025" gradientUnits="userSpaceOnUse">
<stop stop-color="white" stop-opacity="0"/>
<stop offset="1" stop-color="white"/>
</linearGradient>
<linearGradient id="paint5_linear_3029_395" x1="241.078" y1="152.211" x2="241.078" y2="216.566" gradientUnits="userSpaceOnUse">
<stop stop-color="#2FC514"/>
<stop offset="0.12" stop-color="#2BB814" stop-opacity="0.92"/>
<stop offset="0.36" stop-color="#219616" stop-opacity="0.71"/>
<stop offset="0.68" stop-color="#116019" stop-opacity="0.37"/>
<stop offset="1" stop-color="#00261C" stop-opacity="0"/>
</linearGradient>
<linearGradient id="paint6_linear_3029_395" x1="243.353" y1="182.429" x2="243.353" y2="216.256" gradientUnits="userSpaceOnUse">
<stop stop-color="#2FC514"/>
<stop offset="0.11" stop-color="#2CBB14" stop-opacity="0.94"/>
<stop offset="0.31" stop-color="#24A015" stop-opacity="0.77"/>
<stop offset="0.57" stop-color="#177517" stop-opacity="0.5"/>
<stop offset="0.89" stop-color="#063B1A" stop-opacity="0.13"/>
<stop offset="1" stop-color="#00261C" stop-opacity="0"/>
</linearGradient>
<linearGradient id="paint7_linear_3029_395" x1="285.957" y1="76.1055" x2="285.957" y2="264.421" gradientUnits="userSpaceOnUse">
<stop stop-color="#F8FF5D"/>
<stop offset="0.5" stop-color="#FFCB00"/>
<stop offset="1" stop-color="#06CD00"/>
</linearGradient>
<linearGradient id="paint8_linear_3029_395" x1="284.285" y1="193.808" x2="267.917" y2="163.448" gradientUnits="userSpaceOnUse">
<stop stop-color="white" stop-opacity="0"/>
<stop offset="1" stop-color="white"/>
</linearGradient>
<linearGradient id="paint9_linear_3029_395" x1="285.957" y1="152.211" x2="285.957" y2="216.566" gradientUnits="userSpaceOnUse">
<stop stop-color="#2FC514"/>
<stop offset="0.12" stop-color="#2BB814" stop-opacity="0.92"/>
<stop offset="0.35" stop-color="#219616" stop-opacity="0.71"/>
<stop offset="0.68" stop-color="#116119" stop-opacity="0.37"/>
<stop offset="1" stop-color="#00261C" stop-opacity="0"/>
</linearGradient>
<linearGradient id="paint10_linear_3029_395" x1="283.681" y1="182.429" x2="283.681" y2="216.256" gradientUnits="userSpaceOnUse">
<stop stop-color="#2FC514"/>
<stop offset="0.1" stop-color="#2DBE14" stop-opacity="0.96"/>
<stop offset="0.26" stop-color="#28AD15" stop-opacity="0.85"/>
<stop offset="0.45" stop-color="#1F9116" stop-opacity="0.67"/>
<stop offset="0.68" stop-color="#146A18" stop-opacity="0.43"/>
<stop offset="0.92" stop-color="#05381B" stop-opacity="0.12"/>
<stop offset="1" stop-color="#00261C" stop-opacity="0"/>
</linearGradient>
<clipPath id="clip0_3029_395">
<rect width="339" height="278" fill="white"/>
</clipPath>
</defs>
</svg>
