<svg width="320" height="263" viewBox="0 0 320 263" fill="none" xmlns="http://www.w3.org/2000/svg">
<path d="M128.234 103.847V56.169C128.234 50.4702 125.206 45.2154 120.285 42.36L79.0808 18.5212C74.1606 15.6778 68.0913 15.6778 63.1711 18.5212L21.9664 42.36C17.0463 45.2034 14.0176 50.4702 14.0176 56.169V103.847C14.0176 109.545 17.0463 114.8 21.9664 117.656L63.1711 141.494C68.0913 144.338 74.1606 144.338 79.0808 141.494L120.285 117.656C125.206 114.812 128.234 109.545 128.234 103.847Z" fill="#1B1464"/>
<path d="M69.288 159.515C68.881 159.467 68.5817 159.095 68.6296 158.675C68.6774 158.267 69.0485 157.967 69.4556 158.015C69.8746 158.063 70.1619 158.435 70.126 158.843C70.0781 159.227 69.7548 159.515 69.3718 159.515H69.288ZM73.1187 158.747C73.0469 158.339 73.3222 157.955 73.7293 157.883C74.1363 157.811 74.5313 158.087 74.5912 158.495C74.675 158.903 74.3997 159.287 73.9926 159.359C73.9926 159.359 73.8969 159.371 73.8609 159.371C73.5018 159.371 73.1906 159.119 73.1187 158.747ZM64.7389 158.339C64.3678 158.183 64.1763 157.739 64.3319 157.355C64.4995 156.971 64.9305 156.791 65.3135 156.947C65.6966 157.115 65.8882 157.547 65.7206 157.931C65.6009 158.219 65.3255 158.399 65.0262 158.399C64.9305 158.399 64.8347 158.375 64.7389 158.339ZM77.4523 157.559C77.2727 157.187 77.4284 156.743 77.7995 156.563C78.1706 156.371 78.6135 156.527 78.7931 156.899C78.9846 157.271 78.829 157.727 78.4579 157.907C78.3501 157.955 78.2424 157.991 78.1227 157.991C77.8473 157.979 77.584 157.835 77.4523 157.559ZM60.6927 156.155C60.3335 155.951 60.2138 155.495 60.4173 155.136C60.6328 154.776 61.0877 154.656 61.4469 154.86C61.806 155.064 61.9257 155.531 61.7222 155.891C61.5785 156.131 61.3272 156.263 61.0638 156.263C60.9441 156.263 60.8124 156.227 60.6927 156.155ZM81.3908 155.387C81.1873 155.028 81.307 154.572 81.6661 154.356C82.0253 154.152 82.4802 154.272 82.6957 154.632C82.8992 154.992 82.7794 155.447 82.4203 155.663C82.3006 155.723 82.1689 155.759 82.0372 155.759C81.7739 155.759 81.5225 155.627 81.3908 155.387ZM56.7901 153.9C56.4429 153.696 56.3112 153.24 56.5267 152.88C56.7302 152.52 57.1851 152.4 57.5443 152.604C57.9034 152.808 58.0231 153.276 57.8196 153.636C57.6879 153.876 57.4365 154.008 57.1732 154.008C57.0415 154.008 56.9098 153.972 56.7901 153.9ZM85.2934 153.132C85.0779 152.772 85.2096 152.316 85.5687 152.1C85.9279 151.896 86.3828 152.016 86.5863 152.376C86.8018 152.736 86.6701 153.192 86.3109 153.408C86.2032 153.468 86.0715 153.504 85.9398 153.504C85.6884 153.504 85.4251 153.372 85.2934 153.132ZM52.8995 151.644C52.5403 151.44 52.4206 150.984 52.6241 150.625C52.8276 150.265 53.2945 150.145 53.6537 150.349C54.0128 150.553 54.1325 151.02 53.929 151.38C53.7853 151.62 53.5339 151.752 53.2706 151.752C53.1509 151.752 53.0192 151.716 52.8995 151.644ZM89.184 150.876C88.9805 150.517 89.1002 150.061 89.4594 149.845C89.8185 149.641 90.2854 149.761 90.4889 150.121C90.6924 150.481 90.5727 150.936 90.2135 151.152C90.0938 151.212 89.9622 151.248 89.8424 151.248C89.5791 151.248 89.3277 151.116 89.184 150.876ZM48.9969 149.389C48.6377 149.185 48.518 148.729 48.7215 148.369C48.925 148.009 49.3919 147.889 49.7511 148.093C50.1102 148.297 50.2299 148.765 50.0264 149.125C49.8827 149.365 49.6313 149.497 49.3799 149.497C49.2483 149.497 49.1166 149.461 48.9969 149.389ZM93.0866 148.621C92.8831 148.261 93.0028 147.805 93.362 147.589C93.7211 147.385 94.176 147.505 94.3795 147.865C94.595 148.225 94.4753 148.681 94.1161 148.897C93.9964 148.957 93.8647 148.993 93.745 148.993C93.4817 148.993 93.2303 148.861 93.0866 148.621ZM45.1062 147.133C44.7471 146.929 44.6154 146.473 44.8309 146.114C45.0344 145.754 45.4893 145.634 45.8604 145.838C46.2076 146.042 46.3393 146.509 46.1238 146.869C45.9921 147.109 45.7407 147.241 45.4774 147.241C45.3457 147.241 45.226 147.205 45.1062 147.133ZM96.9892 146.365C96.7737 146.006 96.8934 145.55 97.2526 145.334C97.6117 145.13 98.0786 145.25 98.2821 145.61C98.4856 145.97 98.3659 146.425 98.0068 146.641C97.887 146.701 97.7673 146.737 97.6357 146.737C97.3723 146.737 97.1209 146.605 96.9892 146.365ZM41.2037 144.878C40.8445 144.674 40.7248 144.218 40.9283 143.858C41.1318 143.498 41.5987 143.378 41.9578 143.582C42.317 143.786 42.4367 144.254 42.2212 144.614C42.0895 144.854 41.8381 144.986 41.5748 144.986C41.4551 144.986 41.3234 144.95 41.2037 144.878ZM100.88 144.11C100.676 143.75 100.796 143.294 101.155 143.078C101.514 142.874 101.981 142.994 102.185 143.354C102.388 143.714 102.268 144.17 101.909 144.386C101.79 144.446 101.658 144.482 101.538 144.482C101.275 144.482 101.023 144.35 100.88 144.11ZM37.3011 142.634C36.9419 142.418 36.8222 141.962 37.0257 141.602C37.2412 141.243 37.6961 141.123 38.0552 141.327C38.4144 141.531 38.5341 141.998 38.3306 142.358C38.1869 142.598 37.9355 142.73 37.6841 142.73C37.5525 142.73 37.4208 142.694 37.3011 142.634ZM104.782 141.854C104.567 141.495 104.699 141.027 105.058 140.823C105.417 140.619 105.872 140.739 106.075 141.099C106.291 141.459 106.159 141.914 105.8 142.13C105.692 142.19 105.561 142.226 105.429 142.226C105.166 142.226 104.914 142.094 104.782 141.854ZM33.4104 140.367C33.0513 140.163 32.9196 139.707 33.1351 139.347C33.3386 138.987 33.7935 138.867 34.1526 139.071C34.5118 139.275 34.6435 139.743 34.428 140.103C34.2963 140.343 34.0449 140.475 33.7815 140.475C33.6499 140.475 33.5301 140.439 33.4104 140.367ZM108.685 139.599C108.47 139.239 108.601 138.783 108.96 138.567C109.308 138.363 109.774 138.483 109.978 138.843C110.181 139.203 110.062 139.659 109.703 139.875C109.583 139.935 109.463 139.971 109.331 139.971C109.068 139.971 108.817 139.839 108.685 139.599ZM29.5078 138.123C29.1487 137.907 29.029 137.451 29.2325 137.091C29.436 136.732 29.9029 136.612 30.262 136.816C30.6212 137.019 30.7409 137.487 30.5374 137.847C30.3937 138.087 30.1423 138.219 29.8789 138.219C29.7592 138.219 29.6276 138.183 29.5078 138.123ZM112.576 137.343C112.372 136.984 112.492 136.516 112.851 136.312C113.21 136.108 113.665 136.228 113.881 136.588C114.084 136.947 113.964 137.403 113.605 137.619C113.485 137.679 113.354 137.715 113.234 137.715C112.971 137.715 112.719 137.583 112.576 137.343ZM25.6052 135.868C25.2461 135.652 25.1264 135.196 25.3419 134.836C25.5454 134.476 26.0003 134.356 26.3594 134.56C26.7186 134.764 26.8383 135.232 26.6348 135.58C26.4911 135.82 26.2397 135.964 25.9883 135.964C25.8566 135.964 25.725 135.928 25.6052 135.868ZM116.478 135.088C116.263 134.728 116.394 134.26 116.754 134.056C117.113 133.852 117.568 133.972 117.771 134.332C117.987 134.692 117.855 135.148 117.496 135.352C117.388 135.424 117.256 135.46 117.125 135.46C116.861 135.46 116.61 135.328 116.478 135.088ZM21.7146 133.612C21.3555 133.396 21.2358 132.94 21.4393 132.58C21.6428 132.221 22.0977 132.101 22.4568 132.305C22.816 132.508 22.9477 132.976 22.7322 133.336C22.6005 133.576 22.3491 133.708 22.0857 133.708C21.954 133.708 21.8343 133.672 21.7146 133.612ZM120.369 132.832C120.165 132.472 120.285 132.005 120.644 131.801C121.003 131.597 121.47 131.717 121.674 132.077C121.877 132.436 121.758 132.892 121.398 133.096C121.279 133.168 121.147 133.204 121.027 133.204C120.764 133.204 120.513 133.072 120.369 132.832ZM17.812 131.357C17.4529 131.141 17.3332 130.685 17.5367 130.325C17.7402 129.965 18.2071 129.845 18.5662 130.049C18.9253 130.253 19.0451 130.721 18.8415 131.069C18.6979 131.321 18.4465 131.453 18.1831 131.453C18.0634 131.453 17.9317 131.417 17.812 131.357ZM124.271 130.577C124.068 130.217 124.188 129.749 124.547 129.545C124.906 129.341 125.361 129.461 125.576 129.821C125.78 130.181 125.66 130.637 125.301 130.841C125.181 130.913 125.05 130.949 124.918 130.949C124.667 130.949 124.415 130.817 124.271 130.577ZM13.9094 129.101C13.5503 128.885 13.4306 128.429 13.6341 128.069C13.8496 127.71 14.3045 127.59 14.6636 127.793C15.0227 127.997 15.1425 128.465 14.939 128.813C14.7953 129.053 14.5439 129.197 14.2805 129.197C14.1608 129.197 14.0291 129.161 13.9094 129.101ZM128.174 128.321C127.959 127.961 128.078 127.494 128.437 127.29C128.797 127.086 129.263 127.206 129.467 127.566C129.67 127.925 129.551 128.381 129.192 128.585C129.072 128.657 128.952 128.693 128.82 128.693C128.557 128.693 128.306 128.561 128.174 128.321ZM10.0188 126.846C9.65967 126.63 9.53996 126.174 9.74347 125.814C9.94698 125.454 10.4019 125.334 10.773 125.538C11.1321 125.742 11.2518 126.198 11.0364 126.558C10.9047 126.81 10.6533 126.942 10.3899 126.942C10.2582 126.942 10.1385 126.906 10.0188 126.846ZM132.065 126.066C131.861 125.706 131.981 125.238 132.34 125.034C132.699 124.83 133.166 124.95 133.37 125.31C133.573 125.67 133.453 126.126 133.094 126.33C132.974 126.402 132.843 126.438 132.711 126.438C132.46 126.438 132.208 126.306 132.065 126.066ZM6.14016 124.326C5.81694 124.062 5.76905 123.582 6.03242 123.27C6.30775 122.947 6.77463 122.899 7.09785 123.162C7.4091 123.426 7.45698 123.906 7.19362 124.23C7.04996 124.41 6.83448 124.494 6.619 124.494C6.45141 124.494 6.27184 124.446 6.14016 124.326ZM135.836 123.594C135.548 123.294 135.56 122.815 135.86 122.539C136.171 122.251 136.638 122.263 136.925 122.563C137.212 122.875 137.188 123.342 136.889 123.63C136.745 123.762 136.566 123.834 136.374 123.834C136.183 123.834 135.979 123.75 135.836 123.594ZM2.97977 120.847C2.74035 120.499 2.83612 120.031 3.17131 119.803C3.51848 119.563 3.98535 119.659 4.2128 119.995C4.45223 120.343 4.35646 120.811 4.02126 121.039C3.88958 121.135 3.74593 121.171 3.5903 121.171C3.35088 121.171 3.12343 121.063 2.97977 120.847ZM138.804 120.223C138.445 120.007 138.326 119.551 138.541 119.191C138.745 118.831 139.211 118.711 139.559 118.927C139.918 119.131 140.037 119.599 139.834 119.959C139.69 120.187 139.439 120.319 139.176 120.319C139.056 120.319 138.924 120.295 138.804 120.223ZM0.908765 116.612C0.777082 116.216 0.992563 115.796 1.38761 115.664C1.78266 115.544 2.21362 115.76 2.33333 116.156C2.46501 116.54 2.24953 116.972 1.85449 117.104C1.77069 117.128 1.69886 117.14 1.62703 117.14C1.30381 117.14 1.01651 116.936 0.908765 116.612ZM140.708 116.144C140.313 116.048 140.073 115.628 140.169 115.232C140.277 114.824 140.684 114.584 141.079 114.692C141.486 114.8 141.725 115.208 141.63 115.604C141.534 115.94 141.235 116.168 140.899 116.168C140.899 116.168 140.78 116.168 140.708 116.144ZM0.106698 111.981C0.106698 111.561 0.417947 111.213 0.836938 111.201C1.24396 111.189 1.59112 111.513 1.60309 111.933C1.61506 112.341 1.29184 112.701 0.872851 112.701H0.848909C0.44189 112.701 0.118669 112.389 0.106698 111.981ZM140.648 111.465C140.648 111.045 140.983 110.709 141.39 110.709C141.809 110.709 142.144 111.045 142.144 111.465C142.144 111.873 141.809 112.209 141.39 112.209C140.983 112.209 140.648 111.873 140.648 111.465ZM0.0947266 107.446C0.0947266 107.026 0.429919 106.69 0.848909 106.69C1.2679 106.69 1.59112 107.026 1.59112 107.446C1.59112 107.854 1.2679 108.19 0.848909 108.19C0.429919 108.19 0.0947266 107.854 0.0947266 107.446ZM140.648 106.954C140.648 106.534 140.983 106.198 141.39 106.198C141.809 106.198 142.144 106.534 142.144 106.954C142.144 107.362 141.809 107.698 141.39 107.698C140.983 107.698 140.648 107.362 140.648 106.954ZM0.0947266 102.935C0.0947266 102.515 0.429919 102.179 0.848909 102.179C1.2679 102.179 1.59112 102.515 1.59112 102.935C1.59112 103.343 1.2679 103.679 0.848909 103.679C0.429919 103.679 0.0947266 103.343 0.0947266 102.935ZM140.648 102.443C140.648 102.023 140.983 101.687 141.39 101.687C141.809 101.687 142.144 102.023 142.144 102.443C142.144 102.851 141.809 103.187 141.39 103.187C140.983 103.187 140.648 102.851 140.648 102.443ZM0.0947266 98.4239C0.0947266 98.004 0.429919 97.6681 0.848909 97.6681C1.2679 97.6681 1.59112 98.004 1.59112 98.4239C1.59112 98.8318 1.2679 99.1677 0.848909 99.1677C0.429919 99.1677 0.0947266 98.8318 0.0947266 98.4239ZM140.648 97.932C140.648 97.5121 140.983 97.1762 141.39 97.1762C141.809 97.1762 142.144 97.5121 142.144 97.932C142.144 98.3399 141.809 98.6758 141.39 98.6758C140.983 98.6758 140.648 98.3399 140.648 97.932ZM0.0947266 93.9129C0.0947266 93.493 0.429919 93.157 0.848909 93.157C1.2679 93.157 1.59112 93.493 1.59112 93.9129C1.59112 94.3208 1.2679 94.6567 0.848909 94.6567C0.429919 94.6567 0.0947266 94.3208 0.0947266 93.9129ZM140.648 93.421C140.648 93.0011 140.983 92.6652 141.39 92.6652C141.809 92.6652 142.144 93.0011 142.144 93.421C142.144 93.8289 141.809 94.1648 141.39 94.1648C140.983 94.1648 140.648 93.8289 140.648 93.421ZM0.0947266 89.4019C0.0947266 88.9819 0.429919 88.646 0.848909 88.646C1.2679 88.646 1.59112 88.9819 1.59112 89.4019C1.59112 89.8098 1.2679 90.1457 0.848909 90.1457C0.429919 90.1457 0.0947266 89.8098 0.0947266 89.4019ZM140.648 88.898C140.648 88.4901 140.983 88.1541 141.39 88.1541C141.809 88.1541 142.144 88.4901 142.144 88.898C142.144 89.3179 141.809 89.6538 141.39 89.6538C140.983 89.6538 140.648 89.3179 140.648 88.898ZM0.0947266 84.8908C0.0947266 84.4709 0.429919 84.135 0.848909 84.135C1.2679 84.135 1.59112 84.4709 1.59112 84.8908C1.59112 85.2988 1.2679 85.6347 0.848909 85.6347C0.429919 85.6347 0.0947266 85.2988 0.0947266 84.8908ZM140.648 84.387C140.648 83.979 140.983 83.6431 141.39 83.6431C141.809 83.6431 142.144 83.979 142.144 84.387C142.144 84.8069 141.809 85.1428 141.39 85.1428C140.983 85.1428 140.648 84.8069 140.648 84.387ZM0.0947266 80.3798C0.0947266 79.9599 0.429919 79.624 0.848909 79.624C1.2679 79.624 1.59112 79.9599 1.59112 80.3798C1.59112 80.7877 1.2679 81.1237 0.848909 81.1237C0.429919 81.1237 0.0947266 80.7877 0.0947266 80.3798ZM140.648 79.8759C140.648 79.468 140.983 79.1321 141.39 79.1321C141.809 79.1321 142.144 79.468 142.144 79.8759C142.144 80.2958 141.809 80.6318 141.39 80.6318C140.983 80.6318 140.648 80.2958 140.648 79.8759ZM0.0947266 75.8688C0.0947266 75.4489 0.429919 75.113 0.848909 75.113C1.2679 75.113 1.59112 75.4489 1.59112 75.8688C1.59112 76.2767 1.2679 76.6126 0.848909 76.6126C0.429919 76.6126 0.0947266 76.2767 0.0947266 75.8688ZM140.648 75.3649C140.648 74.957 140.983 74.6211 141.39 74.6211C141.809 74.6211 142.144 74.957 142.144 75.3649C142.144 75.7848 141.809 76.1208 141.39 76.1208C140.983 76.1208 140.648 75.7848 140.648 75.3649ZM0.0947266 71.3578C0.0947266 70.9379 0.429919 70.602 0.848909 70.602C1.2679 70.602 1.59112 70.9379 1.59112 71.3578C1.59112 71.7657 1.2679 72.1016 0.848909 72.1016C0.429919 72.1016 0.0947266 71.7657 0.0947266 71.3578ZM140.648 70.8539C140.648 70.446 140.983 70.1101 141.39 70.1101C141.809 70.1101 142.144 70.446 142.144 70.8539C142.144 71.2738 141.809 71.6097 141.39 71.6097C140.983 71.6097 140.648 71.2738 140.648 70.8539ZM0.0947266 66.8468C0.0947266 66.4269 0.429919 66.0909 0.848909 66.0909C1.2679 66.0909 1.59112 66.4269 1.59112 66.8468C1.59112 67.2547 1.2679 67.5906 0.848909 67.5906C0.429919 67.5906 0.0947266 67.2547 0.0947266 66.8468ZM140.648 66.3429C140.648 65.935 140.983 65.599 141.39 65.599C141.809 65.599 142.144 65.935 142.144 66.3429C142.144 66.7628 141.809 67.0987 141.39 67.0987C140.983 67.0987 140.648 66.7628 140.648 66.3429ZM0.0947266 62.3358C0.0947266 61.9159 0.429919 61.5799 0.848909 61.5799C1.2679 61.5799 1.59112 61.9159 1.59112 62.3358C1.59112 62.7437 1.2679 63.0796 0.848909 63.0796C0.429919 63.0796 0.0947266 62.7437 0.0947266 62.3358ZM140.648 61.8319C140.648 61.424 140.983 61.088 141.39 61.088C141.809 61.088 142.144 61.424 142.144 61.8319C142.144 62.2518 141.809 62.5877 141.39 62.5877C140.983 62.5877 140.648 62.2518 140.648 61.8319ZM0.0947266 57.8247C0.0947266 57.4048 0.429919 57.0689 0.848909 57.0689C1.2679 57.0689 1.59112 57.4048 1.59112 57.8247C1.59112 58.2327 1.2679 58.5686 0.848909 58.5686C0.429919 58.5686 0.0947266 58.2327 0.0947266 57.8247ZM140.648 57.3209C140.648 56.9129 140.983 56.577 141.39 56.577C141.809 56.577 142.144 56.9129 142.144 57.3209C142.144 57.7408 141.809 58.0767 141.39 58.0767C140.983 58.0767 140.648 57.7408 140.648 57.3209ZM0.0947266 53.3137C0.0947266 52.8938 0.429919 52.5579 0.848909 52.5579C1.2679 52.5579 1.59112 52.8938 1.59112 53.3137C1.59112 53.7216 1.2679 54.0576 0.848909 54.0576C0.429919 54.0576 0.0947266 53.7216 0.0947266 53.3137ZM140.648 52.8098C140.648 52.4019 140.983 52.066 141.39 52.066C141.809 52.066 142.144 52.4019 142.144 52.8098C142.144 53.2297 141.809 53.5657 141.39 53.5657C140.983 53.5657 140.648 53.2297 140.648 52.8098ZM0.0947266 48.7907C0.0947266 48.3828 0.429919 48.0469 0.848909 48.0469C1.2679 48.0469 1.59112 48.3828 1.59112 48.7907C1.59112 49.2106 1.2679 49.5465 0.848909 49.5465C0.429919 49.5465 0.0947266 49.2106 0.0947266 48.7907ZM140.648 48.3108C140.648 47.9029 140.971 47.555 141.378 47.555C141.797 47.543 142.132 47.8789 142.144 48.2868C142.144 48.7067 141.821 49.0427 141.402 49.0547C140.995 49.0547 140.66 48.7307 140.66 48.3108H140.648ZM1.20804 45.0595C0.812996 44.9515 0.573573 44.5436 0.681313 44.1357C0.801024 43.7398 1.20804 43.4999 1.60309 43.6198C2.01011 43.7158 2.23756 44.1357 2.12982 44.5316C2.04602 44.8676 1.73477 45.0955 1.41155 45.0955C1.33973 45.0955 1.27987 45.0835 1.20804 45.0595ZM139.978 44.0757C139.858 43.6798 140.073 43.2599 140.468 43.1399C140.875 43.02 141.294 43.2479 141.414 43.6438C141.534 44.0397 141.306 44.4597 140.911 44.5796C140.84 44.6036 140.768 44.6156 140.696 44.6156C140.373 44.6156 140.073 44.3997 139.978 44.0757ZM2.80021 40.8484C2.44107 40.6445 2.33333 40.1766 2.54881 39.8167C2.76429 39.4687 3.23117 39.3608 3.57833 39.5647C3.93747 39.7927 4.04521 40.2486 3.82973 40.6085C3.68607 40.8364 3.44665 40.9684 3.18328 40.9684C3.0516 40.9684 2.91992 40.9324 2.80021 40.8484ZM138.158 40.2006C137.931 39.8647 138.026 39.3968 138.373 39.1568C138.721 38.9409 139.188 39.0368 139.415 39.3848C139.642 39.7207 139.547 40.1886 139.199 40.4165C139.068 40.5005 138.924 40.5485 138.78 40.5485C138.541 40.5485 138.302 40.4285 138.158 40.2006ZM5.49372 37.2612C5.21838 36.9493 5.24232 36.4694 5.5416 36.1935C5.85285 35.9175 6.31972 35.9295 6.60703 36.2414C6.88237 36.5534 6.85843 37.0213 6.55915 37.3092C6.41549 37.4412 6.22395 37.5012 6.04439 37.5012C5.84088 37.5012 5.64934 37.4172 5.49372 37.2612ZM135.333 36.9973C135.022 36.7213 134.986 36.2414 135.249 35.9295C135.524 35.6176 135.991 35.5816 136.302 35.8455C136.626 36.1215 136.662 36.5894 136.386 36.9133C136.243 37.0813 136.039 37.1772 135.824 37.1772C135.644 37.1772 135.476 37.1173 135.333 36.9973ZM9.09703 34.5618C8.88155 34.2019 9.01323 33.746 9.37237 33.542C9.7315 33.3261 10.1864 33.458 10.3899 33.818C10.6054 34.1779 10.4737 34.6338 10.1146 34.8377C9.99487 34.9097 9.87516 34.9457 9.74347 34.9457C9.48011 34.9457 9.22871 34.8018 9.09703 34.5618ZM131.694 34.5858C131.334 34.3818 131.215 33.9259 131.418 33.566C131.622 33.2061 132.089 33.0861 132.448 33.2901C132.807 33.494 132.927 33.9619 132.723 34.3219C132.579 34.5618 132.328 34.6938 132.077 34.6938C131.945 34.6938 131.813 34.6578 131.694 34.5858ZM12.9877 32.3063C12.7841 31.9464 12.9039 31.4905 13.263 31.2865C13.6221 31.0706 14.089 31.2025 14.2925 31.5625C14.496 31.9224 14.3763 32.3783 14.0172 32.5822C13.8975 32.6542 13.7658 32.6902 13.6461 32.6902C13.3827 32.6902 13.1313 32.5462 12.9877 32.3063ZM127.791 32.3423C127.432 32.1263 127.312 31.6704 127.516 31.3105C127.731 30.9506 128.186 30.8306 128.545 31.0346C128.904 31.2385 129.024 31.7064 128.82 32.0664C128.677 32.3063 128.425 32.4383 128.174 32.4383C128.042 32.4383 127.911 32.4023 127.791 32.3423ZM16.8902 30.0508C16.6867 29.6909 16.8065 29.235 17.1656 29.031C17.5247 28.8151 17.9796 28.947 18.1831 29.307C18.3986 29.6669 18.2789 30.1228 17.9198 30.3267C17.8001 30.3987 17.6684 30.4347 17.5367 30.4347C17.2853 30.4347 17.0339 30.2907 16.8902 30.0508ZM123.9 30.0868C123.541 29.8708 123.422 29.4149 123.625 29.055C123.829 28.6951 124.295 28.5751 124.655 28.7791C125.014 28.983 125.133 29.4509 124.918 29.8109C124.786 30.0508 124.535 30.1828 124.271 30.1828C124.14 30.1828 124.02 30.1468 123.9 30.0868ZM20.7928 27.7953C20.5774 27.4354 20.709 26.9795 21.0682 26.7755C21.4273 26.5596 21.8822 26.6915 22.0857 27.0514C22.3012 27.4114 22.1695 27.8673 21.8104 28.0712C21.6907 28.1432 21.571 28.1792 21.4393 28.1792C21.1759 28.1792 20.9245 28.0352 20.7928 27.7953ZM119.998 27.8313C119.639 27.6153 119.519 27.1594 119.722 26.7995C119.938 26.4396 120.393 26.3196 120.752 26.5236C121.111 26.7275 121.231 27.1954 121.027 27.5553C120.884 27.7953 120.632 27.9273 120.381 27.9273C120.249 27.9273 120.117 27.8913 119.998 27.8313ZM24.6835 25.5398C24.48 25.1799 24.5997 24.724 24.9588 24.52C25.3179 24.304 25.7848 24.436 25.9883 24.7959C26.1918 25.1559 26.0721 25.6118 25.713 25.8157C25.5933 25.8877 25.4616 25.9237 25.3419 25.9237C25.0785 25.9237 24.8271 25.7797 24.6835 25.5398ZM116.107 25.5758C115.748 25.3598 115.616 24.9039 115.832 24.544C116.035 24.1841 116.49 24.0641 116.849 24.2681C117.208 24.472 117.34 24.9399 117.125 25.2998C116.993 25.5398 116.742 25.6717 116.478 25.6717C116.347 25.6717 116.215 25.6358 116.107 25.5758ZM28.5861 23.2843C28.3826 22.9243 28.5023 22.4684 28.8614 22.2645C29.2205 22.0485 29.6754 22.1805 29.8909 22.5404C30.0944 22.9004 29.9747 23.3563 29.6156 23.5602C29.4959 23.6322 29.3642 23.6682 29.2325 23.6682C28.9811 23.6682 28.7297 23.5242 28.5861 23.2843ZM112.205 23.3203C111.845 23.1043 111.726 22.6484 111.929 22.2885C112.133 21.9286 112.6 21.8086 112.959 22.0125C113.306 22.2165 113.438 22.6844 113.234 23.0443C113.09 23.2843 112.839 23.4162 112.576 23.4162C112.456 23.4162 112.324 23.3802 112.205 23.3203ZM32.4887 21.0288C32.2732 20.6688 32.3929 20.2129 32.752 20.009C33.1112 19.793 33.578 19.925 33.7815 20.2849C33.9851 20.6448 33.8653 21.1007 33.5062 21.3047C33.3865 21.3767 33.2668 21.4127 33.1351 21.4127C32.8717 21.4127 32.6203 21.2687 32.4887 21.0288ZM108.302 21.0648C107.943 20.8488 107.823 20.3929 108.027 20.033C108.242 19.6731 108.697 19.5531 109.056 19.757C109.415 19.961 109.535 20.4289 109.331 20.7888C109.188 21.0288 108.936 21.1607 108.685 21.1607C108.553 21.1607 108.422 21.1247 108.302 21.0648ZM36.3793 18.7733C36.1758 18.4133 36.2955 17.9574 36.6546 17.7535C37.0138 17.5375 37.4687 17.6695 37.6841 18.0294C37.8876 18.3893 37.7679 18.8452 37.4088 19.0492C37.2891 19.1212 37.1574 19.1572 37.0377 19.1572C36.7743 19.1572 36.5229 19.0132 36.3793 18.7733ZM104.399 18.8092C104.052 18.5933 103.921 18.1374 104.136 17.7775C104.34 17.4175 104.794 17.2976 105.154 17.5015C105.513 17.7055 105.632 18.1734 105.429 18.5333C105.297 18.7733 105.046 18.9052 104.782 18.9052C104.651 18.9052 104.519 18.8692 104.399 18.8092ZM40.2819 16.5177C40.0784 16.1578 40.1981 15.7019 40.5572 15.498C40.9163 15.282 41.3713 15.414 41.5748 15.7739C41.7902 16.1338 41.6586 16.5897 41.2994 16.7937C41.1917 16.8657 41.06 16.9017 40.9283 16.9017C40.665 16.9017 40.4136 16.7577 40.2819 16.5177ZM100.509 16.5537C100.15 16.3378 100.03 15.8819 100.233 15.522C100.437 15.162 100.904 15.0421 101.263 15.246C101.622 15.45 101.742 15.9179 101.538 16.2778C101.395 16.5177 101.143 16.6497 100.88 16.6497C100.76 16.6497 100.628 16.6137 100.509 16.5537ZM44.1725 14.2622C43.969 13.9023 44.1007 13.4464 44.4478 13.2425C44.807 13.0265 45.2738 13.1585 45.4774 13.5184C45.6809 13.8783 45.5612 14.3342 45.202 14.5382C45.0823 14.6102 44.9506 14.6462 44.8309 14.6462C44.5675 14.6462 44.3162 14.5022 44.1725 14.2622ZM96.6061 14.2982C96.247 14.0823 96.1273 13.6264 96.3308 13.2665C96.5463 12.9065 97.0012 12.7866 97.3603 12.9905C97.7195 13.1945 97.8392 13.6624 97.6357 14.0223C97.492 14.2622 97.2406 14.3942 96.9892 14.3942C96.8575 14.3942 96.7258 14.3582 96.6061 14.2982ZM48.0751 12.0067C47.8716 11.6468 47.9913 11.1909 48.3504 10.9869C48.7096 10.771 49.1645 10.903 49.3799 11.2629C49.5835 11.6228 49.4637 12.0787 49.1046 12.2827C48.9849 12.3547 48.8532 12.3906 48.7335 12.3906C48.4701 12.3906 48.2188 12.2467 48.0751 12.0067ZM92.7155 12.0427C92.3564 11.8268 92.2367 11.3709 92.4402 11.0109C92.6437 10.651 93.0986 10.5311 93.4577 10.735C93.8169 10.939 93.9485 11.4069 93.7331 11.7668C93.6014 12.0067 93.35 12.1387 93.0866 12.1387C92.9549 12.1387 92.8352 12.1027 92.7155 12.0427ZM51.9777 9.75122C51.7742 9.3913 51.8939 8.9354 52.253 8.73144C52.6122 8.51549 53.0671 8.64746 53.2706 9.00738C53.486 9.3673 53.3544 9.8232 53.0072 10.0272C52.8875 10.0991 52.7558 10.1351 52.6241 10.1351C52.3608 10.1351 52.1094 9.99117 51.9777 9.75122ZM88.8129 9.78721C88.4538 9.57126 88.3341 9.11536 88.5376 8.75544C88.7531 8.39551 89.208 8.27554 89.5671 8.4795C89.9262 8.68345 90.0459 9.15135 89.8424 9.51127C89.6988 9.75122 89.4474 9.88319 89.184 9.88319C89.0643 9.88319 88.9326 9.8472 88.8129 9.78721ZM55.8803 7.49571C55.6648 7.13579 55.7845 6.67989 56.1436 6.47594C56.5028 6.25998 56.9697 6.39195 57.1732 6.75187C57.3767 7.1118 57.257 7.5677 56.8978 7.77165C56.7781 7.84364 56.6464 7.87963 56.5267 7.87963C56.2634 7.87963 56.012 7.73566 55.8803 7.49571ZM84.9223 7.5317C84.5632 7.31575 84.4315 6.85985 84.6469 6.49993C84.8505 6.14 85.3054 6.02003 85.6645 6.22399C86.0236 6.42794 86.1433 6.89584 85.9398 7.25576C85.8082 7.49571 85.5568 7.62768 85.2934 7.62768C85.1617 7.62768 85.03 7.59169 84.9223 7.5317ZM59.7709 5.2402C59.5674 4.88028 59.6871 4.42438 60.0462 4.22043C60.4054 4.00447 60.8603 4.13644 61.0758 4.49637C61.2793 4.85629 61.1596 5.31219 60.8004 5.51614C60.6807 5.58813 60.549 5.62412 60.4173 5.62412C60.166 5.62412 59.9146 5.48015 59.7709 5.2402ZM81.0197 5.2762C80.6606 5.06024 80.5409 4.60434 80.7444 4.24442C80.9479 3.8845 81.4028 3.76453 81.7619 3.96848C82.121 4.17244 82.2527 4.64033 82.0492 5.00025C81.9056 5.2402 81.6542 5.37217 81.3908 5.37217C81.2711 5.37217 81.1394 5.33618 81.0197 5.2762ZM63.6615 2.9847C63.4939 2.60078 63.6615 2.15688 64.0207 1.97692C64.4037 1.79696 64.8467 1.96492 65.0262 2.33684C65.2058 2.72075 65.0262 3.16466 64.6671 3.34462C64.5594 3.39261 64.4516 3.4166 64.3439 3.4166C64.0685 3.4166 63.7932 3.24864 63.6615 2.9847ZM77.141 3.14066C76.7699 2.98469 76.5904 2.54079 76.758 2.15687C76.9256 1.77296 77.3685 1.605 77.7396 1.76096C78.1107 1.92893 78.2903 2.37283 78.1227 2.75674C78.003 3.04468 77.7276 3.21265 77.4403 3.21265C77.3326 3.21265 77.2368 3.18865 77.1291 3.14066H77.141ZM67.8873 1.46103C67.8275 1.04112 68.1028 0.657202 68.5098 0.597215C68.9169 0.525231 69.2999 0.813168 69.3598 1.22108C69.4316 1.62899 69.1443 2.01291 68.7373 2.08489H68.6176C68.2585 2.08489 67.9472 1.83295 67.8754 1.46103H67.8873ZM73.023 2.01291C72.6159 1.96492 72.3286 1.593 72.3765 1.17309C72.4244 0.765178 72.7955 0.465242 73.2145 0.525229C73.6215 0.573219 73.9208 0.957136 73.8609 1.36505C73.8131 1.74896 73.4898 2.0249 73.1187 2.0249C73.1187 2.0249 73.0589 2.01291 73.023 2.01291Z" fill="#00261C"/>
<path d="M305.144 206.749V159.071C305.144 153.373 302.115 148.118 297.195 145.262L255.99 121.424C251.07 118.58 245 118.58 240.08 121.424L198.876 145.262C193.955 148.106 190.927 153.373 190.927 159.071V206.749C190.927 212.448 193.955 217.703 198.876 220.558L240.08 244.397C245 247.24 251.07 247.24 255.99 244.397L297.195 220.558C302.115 217.715 305.144 212.448 305.144 206.749Z" fill="#1B1464"/>
<path d="M246.197 262.416C245.79 262.368 245.491 261.997 245.527 261.589C245.575 261.169 245.946 260.881 246.365 260.917C246.772 260.965 247.071 261.337 247.023 261.757C246.987 262.141 246.652 262.416 246.281 262.416H246.197ZM250.028 261.661C249.956 261.253 250.231 260.857 250.638 260.785C251.045 260.713 251.429 260.989 251.5 261.397C251.572 261.805 251.297 262.201 250.89 262.272C250.89 262.272 250.806 262.284 250.77 262.284C250.411 262.284 250.088 262.021 250.028 261.661ZM241.648 261.241C241.265 261.085 241.085 260.653 241.241 260.257C241.397 259.885 241.84 259.693 242.223 259.861C242.606 260.017 242.785 260.461 242.63 260.845C242.51 261.133 242.235 261.301 241.935 261.301C241.84 261.301 241.744 261.289 241.648 261.241ZM254.361 260.473C254.17 260.101 254.326 259.645 254.697 259.465C255.068 259.285 255.523 259.441 255.702 259.813C255.882 260.185 255.738 260.629 255.355 260.809C255.247 260.869 255.128 260.893 255.02 260.893C254.745 260.893 254.469 260.737 254.35 260.473H254.361ZM237.602 259.069C237.243 258.865 237.111 258.397 237.327 258.037C237.53 257.678 237.985 257.558 238.344 257.761C238.703 257.977 238.835 258.433 238.619 258.793C238.488 259.033 238.236 259.165 237.973 259.165C237.841 259.165 237.722 259.141 237.602 259.069ZM258.3 258.289C258.085 257.929 258.204 257.474 258.563 257.258C258.934 257.054 259.389 257.186 259.593 257.546C259.796 257.905 259.677 258.361 259.318 258.565C259.198 258.637 259.078 258.673 258.946 258.673C258.683 258.673 258.432 258.529 258.3 258.289ZM233.699 256.814C233.34 256.61 233.22 256.142 233.424 255.782C233.627 255.422 234.094 255.302 234.453 255.506C234.813 255.722 234.932 256.178 234.729 256.538C234.585 256.778 234.334 256.91 234.07 256.91C233.951 256.91 233.819 256.886 233.699 256.814ZM262.191 256.034C261.987 255.674 262.107 255.218 262.466 255.014C262.825 254.798 263.292 254.918 263.495 255.278C263.699 255.65 263.579 256.106 263.22 256.31C263.1 256.382 262.969 256.418 262.849 256.418C262.586 256.418 262.334 256.274 262.191 256.034ZM229.797 254.558C229.45 254.354 229.318 253.886 229.521 253.526C229.737 253.166 230.192 253.046 230.551 253.25C230.91 253.466 231.03 253.922 230.826 254.282C230.683 254.522 230.431 254.654 230.18 254.654C230.048 254.654 229.916 254.63 229.797 254.558ZM266.093 253.778C265.89 253.418 266.009 252.963 266.369 252.759C266.728 252.543 267.183 252.663 267.386 253.023C267.602 253.382 267.482 253.85 267.123 254.054C267.003 254.126 266.871 254.162 266.74 254.162C266.488 254.15 266.237 254.018 266.093 253.778ZM225.906 252.303C225.547 252.099 225.427 251.631 225.631 251.271C225.834 250.911 226.301 250.791 226.648 250.995C227.019 251.211 227.139 251.667 226.936 252.027C226.792 252.267 226.541 252.399 226.277 252.399C226.157 252.399 226.026 252.375 225.906 252.303ZM269.996 251.523C269.78 251.163 269.912 250.707 270.259 250.503C270.618 250.287 271.085 250.419 271.289 250.767C271.492 251.127 271.372 251.595 271.013 251.799C270.894 251.871 270.774 251.895 270.642 251.895C270.379 251.895 270.127 251.763 269.996 251.523ZM222.003 250.047C221.644 249.831 221.525 249.375 221.728 249.015C221.944 248.655 222.399 248.535 222.758 248.739C223.117 248.955 223.236 249.411 223.033 249.771C222.889 250.011 222.638 250.143 222.375 250.143C222.255 250.143 222.123 250.119 222.003 250.047ZM273.886 249.267C273.683 248.907 273.803 248.451 274.162 248.236C274.521 248.032 274.976 248.164 275.191 248.523C275.395 248.871 275.275 249.339 274.916 249.543C274.796 249.615 274.665 249.639 274.533 249.639C274.281 249.639 274.03 249.507 273.886 249.267ZM218.113 247.792C217.754 247.588 217.622 247.12 217.837 246.76C218.041 246.4 218.496 246.28 218.855 246.484C219.214 246.7 219.346 247.156 219.13 247.516C218.999 247.756 218.735 247.888 218.484 247.888C218.352 247.888 218.221 247.864 218.113 247.792ZM277.789 247.012C277.586 246.652 277.705 246.196 278.064 245.98C278.423 245.776 278.878 245.908 279.082 246.268C279.297 246.616 279.166 247.084 278.807 247.288C278.699 247.36 278.567 247.396 278.435 247.396C278.172 247.396 277.921 247.252 277.789 247.012ZM214.21 245.536C213.851 245.332 213.731 244.864 213.935 244.504C214.138 244.144 214.605 244.024 214.952 244.228C215.324 244.432 215.443 244.9 215.24 245.26C215.096 245.5 214.845 245.632 214.581 245.632C214.462 245.632 214.33 245.608 214.21 245.536ZM281.68 244.756C281.476 244.396 281.596 243.94 281.955 243.737C282.314 243.521 282.781 243.641 282.984 244.012C283.188 244.372 283.068 244.828 282.709 245.032C282.589 245.104 282.458 245.128 282.338 245.128C282.075 245.128 281.823 244.996 281.68 244.756ZM210.308 243.281C209.949 243.077 209.829 242.609 210.032 242.249C210.248 241.889 210.703 241.769 211.062 241.973C211.421 242.189 211.541 242.645 211.337 243.005C211.194 243.245 210.942 243.377 210.691 243.377C210.559 243.377 210.427 243.353 210.308 243.281ZM285.582 242.501C285.379 242.141 285.498 241.685 285.858 241.481C286.217 241.265 286.672 241.385 286.887 241.745C287.091 242.105 286.971 242.573 286.612 242.777C286.492 242.849 286.36 242.873 286.241 242.873C285.977 242.873 285.726 242.741 285.582 242.501ZM206.417 241.025C206.058 240.821 205.926 240.353 206.142 239.993C206.345 239.633 206.8 239.513 207.159 239.717C207.518 239.933 207.65 240.389 207.435 240.749C207.303 240.989 207.051 241.121 206.788 241.121C206.656 241.121 206.537 241.097 206.417 241.025ZM289.485 240.245C289.269 239.885 289.401 239.429 289.76 239.226C290.119 239.01 290.574 239.13 290.778 239.489C290.981 239.849 290.862 240.317 290.502 240.521C290.395 240.593 290.263 240.617 290.131 240.617C289.868 240.617 289.617 240.485 289.485 240.245ZM202.514 238.77C202.155 238.554 202.036 238.098 202.239 237.738C202.443 237.378 202.909 237.258 203.269 237.462C203.628 237.678 203.747 238.134 203.544 238.494C203.4 238.734 203.149 238.866 202.886 238.866C202.766 238.866 202.634 238.842 202.514 238.77ZM293.375 237.99C293.172 237.63 293.304 237.174 293.651 236.958C294.01 236.754 294.477 236.886 294.68 237.234C294.884 237.594 294.764 238.062 294.405 238.266C294.285 238.338 294.166 238.362 294.034 238.362C293.77 238.362 293.519 238.23 293.375 237.99ZM198.612 236.514C198.253 236.298 198.133 235.842 198.337 235.482C198.552 235.122 199.007 235.002 199.366 235.206C199.725 235.422 199.845 235.878 199.641 236.238C199.498 236.478 199.246 236.61 198.995 236.61C198.863 236.61 198.732 236.586 198.612 236.514ZM297.278 235.734C297.075 235.374 297.194 234.918 297.553 234.702C297.913 234.499 298.367 234.631 298.583 234.99C298.786 235.338 298.667 235.806 298.308 236.01C298.188 236.082 298.056 236.118 297.924 236.118C297.661 236.118 297.422 235.974 297.278 235.734ZM194.721 234.259C194.362 234.055 194.23 233.587 194.446 233.227C194.649 232.867 195.104 232.747 195.463 232.951C195.823 233.155 195.954 233.623 195.739 233.983C195.607 234.223 195.356 234.355 195.092 234.355C194.961 234.355 194.841 234.331 194.721 234.259ZM301.181 233.479C300.965 233.119 301.097 232.663 301.456 232.447C301.803 232.243 302.27 232.363 302.474 232.735C302.689 233.095 302.557 233.551 302.198 233.755C302.078 233.827 301.959 233.851 301.827 233.851C301.564 233.851 301.312 233.719 301.181 233.479ZM190.819 232.003C190.459 231.799 190.34 231.331 190.543 230.971C190.747 230.611 191.214 230.491 191.573 230.695C191.932 230.911 192.052 231.367 191.848 231.727C191.704 231.967 191.453 232.099 191.202 232.099C191.07 232.099 190.938 232.063 190.819 232.003ZM305.071 231.223C304.868 230.863 304.987 230.407 305.347 230.203C305.706 229.988 306.173 230.107 306.376 230.467C306.58 230.827 306.46 231.295 306.101 231.499C305.981 231.571 305.849 231.595 305.73 231.595C305.466 231.595 305.215 231.463 305.071 231.223ZM186.916 229.748C186.569 229.544 186.437 229.076 186.653 228.716C186.856 228.356 187.311 228.236 187.67 228.44C188.029 228.656 188.149 229.112 187.946 229.472C187.814 229.712 187.562 229.844 187.299 229.844C187.167 229.844 187.036 229.82 186.916 229.748ZM308.974 228.968C308.77 228.608 308.89 228.152 309.249 227.948C309.608 227.732 310.063 227.852 310.279 228.212C310.482 228.572 310.363 229.04 309.991 229.244C309.884 229.316 309.752 229.34 309.62 229.34C309.369 229.34 309.117 229.208 308.974 228.968ZM183.037 227.228C182.726 226.964 182.678 226.496 182.942 226.172C183.205 225.86 183.684 225.812 183.995 226.076C184.318 226.34 184.366 226.808 184.103 227.132C183.947 227.312 183.732 227.408 183.516 227.408C183.349 227.408 183.181 227.348 183.037 227.228ZM312.733 226.508C312.457 226.196 312.469 225.728 312.769 225.441C313.068 225.153 313.547 225.177 313.834 225.476C314.109 225.776 314.098 226.256 313.798 226.532C313.655 226.676 313.463 226.736 313.283 226.736C313.08 226.736 312.888 226.664 312.733 226.508ZM179.877 223.749C179.65 223.413 179.733 222.933 180.081 222.705C180.428 222.477 180.895 222.561 181.122 222.909C181.349 223.245 181.266 223.713 180.918 223.953C180.799 224.037 180.643 224.085 180.499 224.085C180.26 224.085 180.033 223.965 179.877 223.749ZM315.702 223.125C315.354 222.921 315.235 222.453 315.438 222.093C315.654 221.745 316.109 221.625 316.468 221.829C316.827 222.045 316.947 222.501 316.731 222.861C316.599 223.101 316.336 223.233 316.085 223.233C315.953 223.233 315.821 223.197 315.702 223.125ZM177.818 219.526C177.686 219.13 177.902 218.698 178.297 218.578C178.692 218.446 179.111 218.662 179.243 219.058C179.374 219.454 179.159 219.874 178.764 220.006C178.68 220.03 178.608 220.042 178.524 220.042C178.213 220.042 177.914 219.838 177.818 219.526ZM317.617 219.058C317.21 218.95 316.971 218.542 317.078 218.146C317.186 217.738 317.593 217.498 317.988 217.594C318.395 217.702 318.635 218.11 318.527 218.518C318.443 218.854 318.144 219.082 317.809 219.082C317.737 219.082 317.677 219.07 317.617 219.058ZM177.004 214.883C177.004 214.463 177.327 214.127 177.734 214.115C178.153 214.103 178.5 214.427 178.512 214.835C178.512 215.255 178.201 215.603 177.782 215.615H177.758C177.351 215.615 177.016 215.291 177.004 214.883ZM317.557 214.367C317.557 213.947 317.892 213.611 318.299 213.611C318.718 213.611 319.054 213.947 319.054 214.367C319.054 214.775 318.718 215.123 318.299 215.123C317.892 215.123 317.557 214.775 317.557 214.367ZM177.004 210.348C177.004 209.928 177.339 209.592 177.746 209.592C178.165 209.592 178.5 209.928 178.5 210.348C178.5 210.768 178.165 211.104 177.746 211.104C177.339 211.104 177.004 210.768 177.004 210.348ZM317.557 209.856C317.557 209.436 317.892 209.1 318.299 209.1C318.718 209.1 319.054 209.436 319.054 209.856C319.054 210.276 318.718 210.6 318.299 210.6C317.892 210.6 317.557 210.276 317.557 209.856ZM177.004 205.837C177.004 205.417 177.339 205.093 177.746 205.093C178.165 205.093 178.5 205.417 178.5 205.837C178.5 206.257 178.165 206.593 177.746 206.593C177.339 206.593 177.004 206.257 177.004 205.837ZM317.557 205.345C317.557 204.925 317.892 204.589 318.299 204.589C318.718 204.589 319.054 204.925 319.054 205.345C319.054 205.765 318.718 206.101 318.299 206.101C317.892 206.101 317.557 205.765 317.557 205.345ZM177.004 201.326C177.004 200.918 177.339 200.57 177.746 200.57C178.165 200.57 178.5 200.918 178.5 201.326C178.5 201.746 178.165 202.082 177.746 202.082C177.339 202.082 177.004 201.746 177.004 201.326ZM317.557 200.834C317.557 200.414 317.892 200.078 318.299 200.078C318.718 200.078 319.054 200.414 319.054 200.834C319.054 201.242 318.718 201.59 318.299 201.59C317.892 201.59 317.557 201.242 317.557 200.834ZM177.004 196.815C177.004 196.395 177.339 196.071 177.746 196.071C178.165 196.071 178.5 196.395 178.5 196.815C178.5 197.235 178.165 197.571 177.746 197.571C177.339 197.571 177.004 197.235 177.004 196.815ZM317.557 196.323C317.557 195.903 317.892 195.567 318.299 195.567C318.718 195.567 319.054 195.903 319.054 196.323C319.054 196.743 318.718 197.067 318.299 197.067C317.892 197.067 317.557 196.743 317.557 196.323ZM177.004 192.304C177.004 191.884 177.339 191.548 177.746 191.548C178.165 191.548 178.5 191.884 178.5 192.304C178.5 192.724 178.165 193.06 177.746 193.06C177.339 193.06 177.004 192.724 177.004 192.304ZM317.557 191.812C317.557 191.392 317.892 191.056 318.299 191.056C318.718 191.056 319.054 191.392 319.054 191.812C319.054 192.22 318.718 192.568 318.299 192.568C317.892 192.568 317.557 192.22 317.557 191.812ZM177.004 187.793C177.004 187.385 177.339 187.037 177.746 187.037C178.165 187.037 178.5 187.385 178.5 187.793C178.5 188.213 178.165 188.549 177.746 188.549C177.339 188.549 177.004 188.213 177.004 187.793ZM317.557 187.301C317.557 186.881 317.892 186.545 318.299 186.545C318.718 186.545 319.054 186.881 319.054 187.301C319.054 187.709 318.718 188.057 318.299 188.057C317.892 188.057 317.557 187.709 317.557 187.301ZM177.004 183.282C177.004 182.862 177.339 182.538 177.746 182.538C178.165 182.538 178.5 182.862 178.5 183.282C178.5 183.702 178.165 184.038 177.746 184.038C177.339 184.038 177.004 183.702 177.004 183.282ZM317.557 182.79C317.557 182.37 317.892 182.034 318.299 182.034C318.718 182.034 319.054 182.37 319.054 182.79C319.054 183.21 318.718 183.534 318.299 183.534C317.892 183.534 317.557 183.21 317.557 182.79ZM177.004 178.771C177.004 178.363 177.339 178.015 177.746 178.015C178.165 178.015 178.5 178.363 178.5 178.771C178.5 179.191 178.165 179.527 177.746 179.527C177.339 179.527 177.004 179.191 177.004 178.771ZM317.557 178.279C317.557 177.859 317.892 177.523 318.299 177.523C318.718 177.523 319.054 177.859 319.054 178.279C319.054 178.687 318.718 179.035 318.299 179.035C317.892 179.035 317.557 178.687 317.557 178.279ZM177.004 174.26C177.004 173.84 177.339 173.504 177.746 173.504C178.165 173.504 178.5 173.84 178.5 174.26C178.5 174.68 178.165 175.015 177.746 175.015C177.339 175.015 177.004 174.68 177.004 174.26ZM317.557 173.768C317.557 173.348 317.892 173.012 318.299 173.012C318.718 173.012 319.054 173.348 319.054 173.768C319.054 174.176 318.718 174.512 318.299 174.512C317.892 174.512 317.557 174.176 317.557 173.768ZM177.004 169.749C177.004 169.329 177.339 168.993 177.746 168.993C178.165 168.993 178.5 169.329 178.5 169.749C178.5 170.169 178.165 170.504 177.746 170.504C177.339 170.504 177.004 170.169 177.004 169.749ZM317.557 169.257C317.557 168.837 317.892 168.501 318.299 168.501C318.718 168.501 319.054 168.837 319.054 169.257C319.054 169.665 318.718 170.001 318.299 170.001C317.892 170.001 317.557 169.665 317.557 169.257ZM177.004 165.238C177.004 164.83 177.339 164.482 177.746 164.482C178.165 164.482 178.5 164.83 178.5 165.238C178.5 165.658 178.165 165.993 177.746 165.993C177.339 165.993 177.004 165.658 177.004 165.238ZM317.557 164.746C317.557 164.326 317.892 163.99 318.299 163.99C318.718 163.99 319.054 164.326 319.054 164.746C319.054 165.154 318.718 165.502 318.299 165.502C317.892 165.502 317.557 165.154 317.557 164.746ZM177.004 160.727C177.004 160.307 177.339 159.971 177.746 159.971C178.165 159.971 178.5 160.307 178.5 160.727C178.5 161.147 178.165 161.482 177.746 161.482C177.339 161.482 177.004 161.147 177.004 160.727ZM317.557 160.235C317.557 159.815 317.892 159.479 318.299 159.479C318.718 159.479 319.054 159.815 319.054 160.235C319.054 160.643 318.718 160.979 318.299 160.979C317.892 160.979 317.557 160.643 317.557 160.235ZM177.004 156.216C177.004 155.796 177.339 155.46 177.746 155.46C178.165 155.46 178.5 155.796 178.5 156.216C178.5 156.636 178.165 156.971 177.746 156.971C177.339 156.971 177.004 156.636 177.004 156.216ZM317.557 155.724C317.557 155.304 317.892 154.968 318.299 154.968C318.718 154.968 319.054 155.304 319.054 155.724C319.054 156.132 318.718 156.468 318.299 156.468C317.892 156.468 317.557 156.132 317.557 155.724ZM177.004 151.705C177.004 151.285 177.339 150.949 177.746 150.949C178.165 150.949 178.5 151.285 178.5 151.705C178.5 152.124 178.165 152.46 177.746 152.46C177.339 152.46 177.004 152.124 177.004 151.705ZM317.545 151.225C317.545 150.805 317.88 150.469 318.287 150.457C318.706 150.445 319.042 150.781 319.054 151.201H319.042C319.054 151.609 318.73 151.957 318.311 151.957C317.904 151.957 317.569 151.633 317.557 151.225H317.545ZM178.117 147.973C177.722 147.853 177.483 147.446 177.59 147.05C177.698 146.642 178.117 146.414 178.512 146.522C178.907 146.63 179.147 147.038 179.039 147.446C178.943 147.781 178.644 147.997 178.321 147.997C178.249 147.997 178.189 147.985 178.117 147.973ZM316.887 146.99C316.767 146.594 316.983 146.174 317.378 146.054C317.773 145.934 318.192 146.15 318.311 146.546C318.443 146.942 318.216 147.362 317.821 147.481C317.749 147.505 317.677 147.517 317.605 147.517C317.282 147.517 316.983 147.314 316.887 146.99ZM179.709 143.762C179.35 143.546 179.243 143.078 179.458 142.731C179.673 142.371 180.128 142.263 180.488 142.479C180.835 142.695 180.954 143.162 180.739 143.51C180.595 143.738 180.344 143.87 180.092 143.87C179.961 143.87 179.829 143.834 179.709 143.762ZM315.067 143.114C314.84 142.767 314.936 142.299 315.283 142.071C315.63 141.843 316.097 141.939 316.312 142.287C316.54 142.635 316.444 143.102 316.097 143.33C315.965 143.414 315.821 143.45 315.678 143.45C315.438 143.45 315.199 143.33 315.055 143.114H315.067ZM182.403 140.163C182.128 139.851 182.14 139.383 182.451 139.095C182.75 138.819 183.229 138.843 183.516 139.143C183.792 139.455 183.768 139.935 183.456 140.211C183.313 140.343 183.133 140.403 182.954 140.403C182.75 140.403 182.547 140.319 182.403 140.163ZM312.242 139.899C311.919 139.635 311.883 139.155 312.158 138.843C312.422 138.519 312.9 138.483 313.212 138.759C313.535 139.023 313.559 139.503 313.295 139.815C313.152 139.995 312.936 140.079 312.721 140.079C312.553 140.079 312.374 140.019 312.242 139.899ZM185.994 137.476C185.791 137.116 185.922 136.648 186.27 136.444C186.629 136.24 187.096 136.36 187.299 136.72C187.503 137.08 187.383 137.536 187.024 137.752C186.904 137.812 186.772 137.848 186.653 137.848C186.389 137.848 186.138 137.716 185.994 137.476ZM308.603 137.5C308.244 137.296 308.112 136.828 308.327 136.468C308.531 136.108 308.998 135.988 309.345 136.204C309.704 136.408 309.836 136.864 309.632 137.224C309.489 137.464 309.237 137.596 308.974 137.596C308.842 137.596 308.722 137.572 308.603 137.5ZM189.897 135.22C189.693 134.86 189.813 134.392 190.172 134.188C190.531 133.984 190.998 134.104 191.202 134.464C191.405 134.824 191.285 135.292 190.926 135.496C190.807 135.556 190.675 135.592 190.555 135.592C190.292 135.592 190.04 135.46 189.897 135.22ZM304.7 135.244C304.341 135.04 304.221 134.572 304.425 134.212C304.628 133.864 305.095 133.732 305.454 133.936C305.813 134.152 305.933 134.608 305.73 134.968C305.586 135.208 305.335 135.34 305.071 135.34C304.952 135.34 304.82 135.316 304.7 135.244ZM193.799 132.965C193.584 132.605 193.716 132.149 194.075 131.933C194.434 131.729 194.889 131.849 195.092 132.209C195.308 132.569 195.176 133.025 194.817 133.241C194.697 133.301 194.578 133.337 194.446 133.337C194.183 133.337 193.931 133.205 193.799 132.965ZM300.81 132.989C300.45 132.785 300.319 132.317 300.522 131.969C300.738 131.609 301.193 131.477 301.552 131.681C301.911 131.897 302.043 132.353 301.827 132.713C301.695 132.953 301.444 133.085 301.181 133.085C301.049 133.085 300.917 133.061 300.81 132.989ZM197.69 130.709C197.487 130.349 197.606 129.893 197.965 129.677C198.325 129.473 198.791 129.593 198.995 129.953C199.198 130.313 199.079 130.769 198.72 130.985C198.6 131.045 198.468 131.081 198.348 131.081C198.085 131.081 197.834 130.949 197.69 130.709ZM296.907 130.733C296.548 130.529 296.416 130.061 296.632 129.713C296.835 129.341 297.29 129.221 297.649 129.425C298.008 129.641 298.14 130.097 297.936 130.457C297.793 130.697 297.541 130.829 297.278 130.829C297.158 130.829 297.027 130.805 296.907 130.733ZM201.593 128.454C201.389 128.094 201.509 127.626 201.868 127.422C202.227 127.218 202.682 127.338 202.898 127.698C203.101 128.058 202.981 128.514 202.622 128.73C202.502 128.79 202.371 128.826 202.239 128.826C201.988 128.826 201.736 128.694 201.593 128.454ZM293.004 128.478C292.645 128.274 292.525 127.806 292.729 127.446C292.933 127.086 293.399 126.966 293.759 127.182C294.118 127.386 294.237 127.842 294.034 128.202C293.89 128.442 293.639 128.574 293.387 128.574C293.256 128.574 293.124 128.55 293.004 128.478ZM205.483 126.198C205.28 125.838 205.411 125.37 205.771 125.166C206.118 124.962 206.585 125.082 206.788 125.442C207.004 125.802 206.872 126.258 206.513 126.474C206.393 126.534 206.273 126.57 206.142 126.57C205.878 126.57 205.627 126.438 205.483 126.198ZM289.114 126.222C288.755 126.018 288.623 125.55 288.826 125.19C289.042 124.83 289.497 124.71 289.856 124.926C290.215 125.13 290.347 125.586 290.131 125.946C289.988 126.186 289.736 126.318 289.485 126.318C289.353 126.318 289.221 126.294 289.114 126.222ZM209.386 123.943C209.182 123.583 209.302 123.115 209.661 122.911C210.02 122.707 210.487 122.827 210.691 123.187C210.894 123.547 210.775 124.003 210.415 124.219C210.296 124.279 210.164 124.315 210.044 124.315C209.781 124.315 209.53 124.183 209.386 123.943ZM285.211 123.967C284.852 123.763 284.732 123.295 284.936 122.935C285.139 122.575 285.606 122.455 285.953 122.659C286.324 122.875 286.444 123.331 286.241 123.691C286.097 123.931 285.846 124.063 285.582 124.063C285.451 124.063 285.331 124.039 285.211 123.967ZM213.288 121.687C213.073 121.327 213.205 120.859 213.564 120.655C213.923 120.451 214.378 120.571 214.593 120.931C214.797 121.291 214.665 121.747 214.306 121.963C214.198 122.023 214.067 122.059 213.935 122.059C213.684 122.059 213.432 121.927 213.288 121.687ZM281.309 121.711C280.949 121.507 280.83 121.039 281.033 120.679C281.249 120.331 281.704 120.199 282.063 120.403C282.422 120.619 282.542 121.075 282.338 121.435C282.194 121.675 281.943 121.807 281.68 121.807C281.56 121.807 281.428 121.783 281.309 121.711ZM217.179 119.432C216.976 119.072 217.095 118.616 217.466 118.4C217.826 118.196 218.28 118.316 218.484 118.676C218.699 119.036 218.568 119.492 218.209 119.708C218.089 119.768 217.957 119.804 217.837 119.804C217.574 119.804 217.323 119.672 217.179 119.432ZM277.418 119.456C277.059 119.252 276.927 118.784 277.143 118.436C277.346 118.064 277.801 117.944 278.16 118.148C278.519 118.364 278.651 118.82 278.447 119.18C278.304 119.42 278.052 119.552 277.789 119.552C277.657 119.552 277.538 119.528 277.418 119.456ZM221.082 117.176C220.878 116.816 220.998 116.348 221.357 116.144C221.716 115.94 222.183 116.06 222.387 116.42C222.59 116.78 222.47 117.236 222.111 117.452C221.991 117.512 221.86 117.548 221.728 117.548C221.477 117.548 221.225 117.416 221.082 117.176ZM273.515 117.2C273.156 116.996 273.036 116.54 273.24 116.168C273.443 115.808 273.91 115.688 274.269 115.892C274.629 116.108 274.748 116.564 274.545 116.924C274.401 117.164 274.15 117.296 273.886 117.296C273.767 117.296 273.635 117.272 273.515 117.2ZM224.984 114.921C224.781 114.561 224.9 114.093 225.26 113.889C225.619 113.685 226.074 113.805 226.277 114.165C226.493 114.525 226.361 114.981 226.002 115.197C225.894 115.257 225.762 115.293 225.631 115.293C225.379 115.293 225.116 115.161 224.984 114.921ZM269.625 114.945C269.266 114.741 269.134 114.273 269.337 113.913C269.553 113.553 270.008 113.433 270.367 113.649C270.726 113.853 270.846 114.309 270.642 114.669C270.499 114.909 270.247 115.041 269.996 115.041C269.864 115.041 269.732 115.017 269.625 114.945ZM228.875 112.665C228.671 112.305 228.791 111.837 229.15 111.633C229.509 111.429 229.976 111.549 230.18 111.909C230.383 112.269 230.264 112.725 229.904 112.941C229.785 113.001 229.653 113.037 229.533 113.037C229.27 113.037 229.019 112.905 228.875 112.665ZM265.722 112.689C265.363 112.485 265.231 112.017 265.447 111.657C265.65 111.297 266.105 111.177 266.464 111.393C266.823 111.597 266.955 112.053 266.74 112.413C266.608 112.653 266.357 112.785 266.093 112.785C265.962 112.785 265.842 112.761 265.722 112.689ZM232.777 110.41C232.574 110.05 232.694 109.582 233.053 109.378C233.412 109.174 233.867 109.294 234.082 109.654C234.286 110.014 234.166 110.47 233.807 110.686C233.687 110.746 233.556 110.781 233.424 110.781C233.173 110.781 232.921 110.65 232.777 110.41ZM261.82 110.434C261.46 110.23 261.341 109.762 261.544 109.402C261.748 109.054 262.215 108.922 262.574 109.126C262.933 109.342 263.053 109.798 262.849 110.158C262.705 110.398 262.454 110.53 262.191 110.53C262.071 110.53 261.939 110.506 261.82 110.434ZM236.68 108.154C236.465 107.794 236.596 107.326 236.955 107.122C237.315 106.918 237.769 107.038 237.973 107.398C238.188 107.758 238.057 108.214 237.698 108.43C237.578 108.49 237.446 108.526 237.327 108.526C237.063 108.526 236.812 108.394 236.68 108.154ZM257.917 108.178C257.57 107.974 257.438 107.506 257.654 107.146C257.857 106.786 258.312 106.666 258.671 106.87C259.03 107.086 259.15 107.542 258.946 107.902C258.815 108.142 258.551 108.274 258.3 108.274C258.168 108.274 258.037 108.25 257.917 108.178ZM240.571 105.887C240.391 105.515 240.571 105.071 240.93 104.891C241.301 104.711 241.756 104.867 241.935 105.251C242.103 105.623 241.935 106.067 241.564 106.246C241.469 106.294 241.361 106.318 241.253 106.318C240.966 106.318 240.702 106.163 240.571 105.887ZM254.05 106.055C253.667 105.887 253.5 105.443 253.667 105.071C253.823 104.687 254.266 104.507 254.649 104.675C255.032 104.843 255.211 105.275 255.044 105.659C254.912 105.947 254.637 106.114 254.35 106.114C254.254 106.114 254.146 106.091 254.05 106.055ZM244.797 104.363C244.737 103.955 245.012 103.571 245.419 103.499C245.826 103.439 246.209 103.715 246.281 104.123C246.341 104.543 246.065 104.927 245.658 104.987C245.658 104.987 245.575 104.999 245.539 104.999C245.168 104.999 244.856 104.735 244.797 104.363ZM249.932 104.927C249.525 104.867 249.226 104.495 249.274 104.087C249.334 103.667 249.705 103.379 250.124 103.427C250.531 103.475 250.818 103.859 250.77 104.267C250.722 104.651 250.399 104.927 250.028 104.927H249.932Z" fill="#00261C"/>
<mask id="mask0_11848_774" style="mask-type:luminance" maskUnits="userSpaceOnUse" x="215" y="163" width="66" height="40">
<path d="M280.1 189.351V173.995C280.1 172.495 279.31 171.115 278.017 170.359L266.907 163.893C265.04 162.813 262.706 164.157 262.706 166.316V182.681L254.817 178.122C250.591 175.686 245.395 175.686 241.181 178.134L233.34 182.681V166.304C233.34 164.145 231.006 162.801 229.139 163.881L218.029 170.347C216.736 171.103 215.946 172.483 215.946 173.983V189.351C215.946 191.499 217.048 193.514 218.855 194.666L228.971 201.121C231.605 202.8 234.992 202.668 237.482 200.785L244.509 195.47C246.437 194.006 249.597 194.006 251.537 195.47L258.564 200.785C261.054 202.668 264.441 202.8 267.075 201.121L277.191 194.654C278.998 193.49 280.1 191.499 280.1 189.339V189.351Z" fill="white"/>
</mask>
<g mask="url(#mask0_11848_774)">
<path d="M280.099 192.818L248.053 174.15L248.005 174.33V174.15L215.958 192.818L233.34 203.928L248.029 197.269L262.717 203.928L280.099 192.818Z" fill="url(#paint0_linear_11848_774)"/>
<path style="mix-blend-mode:multiply" d="M280.1 192.818L248.053 174.15L215.946 192.818L233.34 203.928L244.282 195.65C246.497 193.97 249.549 193.97 251.764 195.65L262.706 203.928L280.1 192.818Z" fill="url(#paint1_linear_11848_774)"/>
<g style="mix-blend-mode:overlay">
<path d="M280.136 192.818L248.089 174.15L215.982 192.818L224.59 198.337L242.738 186.712C245.97 184.636 250.112 184.648 253.344 186.712L271.457 198.325L280.124 192.818H280.136Z" fill="url(#paint2_linear_11848_774)"/>
<g style="mix-blend-mode:overlay" opacity="0.3">
<path d="M280.136 192.818L248.089 174.15L215.982 192.818L224.59 198.337L242.738 186.712C245.97 184.636 250.112 184.648 253.344 186.712L271.457 198.325L280.124 192.818H280.136Z" fill="white"/>
</g>
</g>
<path d="M237.901 200.473L233.34 203.928L215.946 192.818V171.571L233.34 161.445V198.205C233.34 199.897 234.729 201.061 236.201 201.061C236.776 201.061 237.375 200.881 237.901 200.485V200.473Z" fill="url(#paint3_linear_11848_774)"/>
<path style="mix-blend-mode:color-dodge" d="M237.901 200.485L233.34 203.94L215.946 192.83V171.583L233.34 161.457V198.217C233.34 199.909 234.729 201.072 236.201 201.072C236.776 201.072 237.375 200.892 237.901 200.497V200.485Z" fill="url(#paint4_linear_11848_774)"/>
<path style="mix-blend-mode:hard-light" d="M236.201 201.061C234.729 201.061 233.34 199.898 233.34 198.206V182.693L220.232 190.336C219.765 190.6 219.286 190.732 218.807 190.732C217.323 190.732 215.958 189.544 215.958 187.876V192.843L233.352 203.953L237.913 200.497C237.386 200.893 236.788 201.073 236.213 201.073L236.201 201.061Z" fill="url(#paint5_linear_11848_774)"/>
<path style="mix-blend-mode:hard-light" d="M236.202 201.06C234.729 201.06 233.341 199.896 233.341 198.204V192.77L228.373 195.913C225.918 197.484 222.722 197.125 220.304 195.601C220.28 195.589 220.268 195.577 220.244 195.565L233.353 203.939L237.914 200.484C237.387 200.88 236.788 201.06 236.214 201.06H236.202Z" fill="url(#paint6_linear_11848_774)"/>
<path d="M258.181 200.473L262.742 203.928L280.136 192.818V171.571L262.742 161.445V198.205C262.742 199.897 261.353 201.061 259.881 201.061C259.306 201.061 258.707 200.881 258.181 200.485V200.473Z" fill="url(#paint7_linear_11848_774)"/>
<path style="mix-blend-mode:color-dodge" d="M258.181 200.473L262.742 203.928L280.136 192.818V171.571L262.742 161.445V198.205C262.742 199.897 261.353 201.061 259.881 201.061C259.306 201.061 258.707 200.881 258.181 200.485V200.473Z" fill="url(#paint8_linear_11848_774)"/>
<path style="mix-blend-mode:hard-light" d="M258.181 200.472L262.742 203.927L280.136 192.818V187.851C280.136 189.518 278.771 190.706 277.287 190.706C276.808 190.706 276.317 190.586 275.862 190.31L262.754 182.668V198.181C262.754 199.872 261.365 201.036 259.893 201.036C259.318 201.036 258.719 200.856 258.193 200.46L258.181 200.472Z" fill="url(#paint9_linear_11848_774)"/>
<path style="mix-blend-mode:hard-light" d="M258.181 200.472L262.742 203.927L275.85 195.553C275.826 195.565 275.814 195.577 275.79 195.589C273.372 197.113 270.164 197.473 267.722 195.901L262.754 192.758V198.193C262.754 199.884 261.365 201.048 259.893 201.048C259.318 201.048 258.719 200.868 258.193 200.472H258.181Z" fill="url(#paint10_linear_11848_774)"/>
</g>
<path d="M174.634 141.327C174.275 141.123 174.143 140.667 174.347 140.307C174.562 139.947 175.017 139.815 175.376 140.019C175.735 140.235 175.855 140.691 175.652 141.051C175.52 141.291 175.257 141.435 175.005 141.435C174.873 141.435 174.742 141.399 174.634 141.327ZM170.719 139.095C170.36 138.879 170.241 138.423 170.444 138.063C170.648 137.704 171.115 137.572 171.474 137.788C171.833 137.991 171.953 138.447 171.749 138.807C171.605 139.059 171.354 139.191 171.091 139.191C170.971 139.191 170.839 139.155 170.719 139.095ZM166.817 136.852C166.458 136.648 166.326 136.192 166.542 135.832C166.745 135.46 167.2 135.34 167.559 135.544C167.918 135.748 168.05 136.204 167.834 136.564C167.703 136.816 167.451 136.948 167.188 136.948C167.056 136.948 166.937 136.924 166.817 136.852ZM162.914 134.608C162.555 134.404 162.423 133.948 162.627 133.588C162.83 133.229 163.297 133.097 163.657 133.3C164.016 133.516 164.135 133.972 163.932 134.332C163.788 134.572 163.537 134.716 163.285 134.716C163.154 134.716 163.022 134.68 162.914 134.608ZM159 132.377C158.641 132.161 158.521 131.705 158.724 131.345C158.928 130.985 159.383 130.853 159.742 131.069C160.101 131.273 160.233 131.729 160.029 132.089C159.886 132.341 159.634 132.473 159.371 132.473C159.239 132.473 159.119 132.437 159 132.377ZM155.097 130.133C154.738 129.929 154.606 129.461 154.81 129.113C155.025 128.741 155.48 128.622 155.839 128.825C156.198 129.029 156.33 129.485 156.115 129.845C155.983 130.097 155.732 130.229 155.468 130.229C155.337 130.229 155.205 130.193 155.097 130.133ZM151.183 127.89C150.823 127.686 150.704 127.23 150.907 126.87C151.111 126.51 151.566 126.378 151.937 126.582C152.296 126.798 152.416 127.254 152.212 127.614C152.068 127.854 151.817 127.998 151.554 127.998C151.434 127.998 151.302 127.962 151.183 127.89ZM147.28 125.658C146.921 125.442 146.789 124.986 147.005 124.626C147.208 124.266 147.663 124.134 148.022 124.35C148.381 124.554 148.513 125.01 148.298 125.37C148.166 125.622 147.914 125.754 147.651 125.754C147.519 125.754 147.4 125.718 147.28 125.658ZM143.377 123.415C143.018 123.211 142.887 122.743 143.09 122.383C143.294 122.023 143.76 121.903 144.12 122.107C144.479 122.311 144.598 122.767 144.395 123.127C144.251 123.379 144 123.511 143.748 123.511C143.617 123.511 143.485 123.475 143.377 123.415Z" fill="#00261C"/>
<path d="M97.8382 74.383L71.5283 89.3049L43.355 73.3617L42 74.0993V85.6737L71.5283 102.355L97.8382 87.4894V93.6171L71.5283 108.539L43.355 92.5958L42 93.3334V95.3193L71.5283 112L101 95.3193V83.7447L99.6451 83.0071L71.5283 98.8936L45.1617 84.0284V77.9007L71.5283 92.766L101 76.0852V64.6809L99.5321 63.8298L71.5283 79.6596L46.5167 65.5887L71.5283 51.461L92.0793 63.0922L93.8861 62.0709V60.6525L71.5283 48L42 64.6809V66.4964L71.5283 83.1772L97.8382 68.2553V74.383Z" fill="#EE3D2C"/>
<defs>
<linearGradient id="paint0_linear_11848_774" x1="248.029" y1="150.192" x2="248.029" y2="212.494" gradientUnits="userSpaceOnUse">
<stop offset="0.34" stop-color="#FDF400"/>
<stop offset="0.42" stop-color="#92DF1C"/>
<stop offset="0.48" stop-color="#43D030"/>
<stop offset="0.52" stop-color="#12C63D"/>
<stop offset="0.54" stop-color="#00C342"/>
<stop offset="0.81" stop-color="#135090"/>
</linearGradient>
<linearGradient id="paint1_linear_11848_774" x1="213.959" y1="153.443" x2="277.325" y2="226.358" gradientUnits="userSpaceOnUse">
<stop stop-opacity="0"/>
<stop offset="0.85" stop-opacity="0.56"/>
<stop offset="1"/>
</linearGradient>
<linearGradient id="paint2_linear_11848_774" x1="227.499" y1="164.684" x2="263.37" y2="213.559" gradientUnits="userSpaceOnUse">
<stop stop-color="white" stop-opacity="0"/>
<stop offset="0.11" stop-color="#FCFFFA" stop-opacity="0.02"/>
<stop offset="0.23" stop-color="#F4FFEE" stop-opacity="0.08"/>
<stop offset="0.37" stop-color="#E8FFD9" stop-opacity="0.17"/>
<stop offset="0.51" stop-color="#D7FFBC" stop-opacity="0.3"/>
<stop offset="0.65" stop-color="#C0FF97" stop-opacity="0.47"/>
<stop offset="0.8" stop-color="#A5FF69" stop-opacity="0.68"/>
<stop offset="0.95" stop-color="#86FF34" stop-opacity="0.92"/>
<stop offset="1" stop-color="#7BFF22"/>
</linearGradient>
<linearGradient id="paint3_linear_11848_774" x1="226.936" y1="73.5645" x2="226.936" y2="246.639" gradientUnits="userSpaceOnUse">
<stop stop-color="#F8FF5D"/>
<stop offset="0.49" stop-color="#FFCB00"/>
<stop offset="1" stop-color="#06CD00"/>
</linearGradient>
<linearGradient id="paint4_linear_11848_774" x1="227.403" y1="183.124" x2="214.86" y2="155.995" gradientUnits="userSpaceOnUse">
<stop stop-color="white" stop-opacity="0"/>
<stop offset="1" stop-color="white"/>
</linearGradient>
<linearGradient id="paint5_linear_11848_774" x1="226.936" y1="143.918" x2="226.936" y2="204.541" gradientUnits="userSpaceOnUse">
<stop stop-color="#2FC514"/>
<stop offset="0.12" stop-color="#2BB814" stop-opacity="0.92"/>
<stop offset="0.36" stop-color="#219616" stop-opacity="0.71"/>
<stop offset="0.68" stop-color="#116019" stop-opacity="0.37"/>
<stop offset="1" stop-color="#00261C" stop-opacity="0"/>
</linearGradient>
<linearGradient id="paint6_linear_11848_774" x1="229.079" y1="172.386" x2="229.079" y2="204.251" gradientUnits="userSpaceOnUse">
<stop stop-color="#2FC514"/>
<stop offset="0.11" stop-color="#2CBB14" stop-opacity="0.94"/>
<stop offset="0.31" stop-color="#24A015" stop-opacity="0.77"/>
<stop offset="0.57" stop-color="#177517" stop-opacity="0.5"/>
<stop offset="0.89" stop-color="#063B1A" stop-opacity="0.13"/>
<stop offset="1" stop-color="#00261C" stop-opacity="0"/>
</linearGradient>
<linearGradient id="paint7_linear_11848_774" x1="269.158" y1="72.2087" x2="269.158" y2="249.626" gradientUnits="userSpaceOnUse">
<stop stop-color="#F8FF5D"/>
<stop offset="0.5" stop-color="#FFCB00"/>
<stop offset="1" stop-color="#06CD00"/>
</linearGradient>
<linearGradient id="paint8_linear_11848_774" x1="267.578" y1="183.101" x2="252.143" y2="154.515" gradientUnits="userSpaceOnUse">
<stop stop-color="white" stop-opacity="0"/>
<stop offset="1" stop-color="white"/>
</linearGradient>
<linearGradient id="paint9_linear_11848_774" x1="269.146" y1="143.916" x2="269.146" y2="204.539" gradientUnits="userSpaceOnUse">
<stop stop-color="#2FC514"/>
<stop offset="0.12" stop-color="#2BB814" stop-opacity="0.92"/>
<stop offset="0.35" stop-color="#219616" stop-opacity="0.71"/>
<stop offset="0.68" stop-color="#116119" stop-opacity="0.37"/>
<stop offset="1" stop-color="#00261C" stop-opacity="0"/>
</linearGradient>
<linearGradient id="paint10_linear_11848_774" x1="267.015" y1="172.386" x2="267.015" y2="204.251" gradientUnits="userSpaceOnUse">
<stop stop-color="#2FC514"/>
<stop offset="0.1" stop-color="#2DBE14" stop-opacity="0.96"/>
<stop offset="0.26" stop-color="#28AD15" stop-opacity="0.85"/>
<stop offset="0.45" stop-color="#1F9116" stop-opacity="0.67"/>
<stop offset="0.68" stop-color="#146A18" stop-opacity="0.43"/>
<stop offset="0.92" stop-color="#05381B" stop-opacity="0.12"/>
<stop offset="1" stop-color="#00261C" stop-opacity="0"/>
</linearGradient>
</defs>
</svg>
