<svg width="195" height="29" viewBox="0 0 195 29" fill="none" xmlns="http://www.w3.org/2000/svg">
<path d="M193.945 14.6684C194.532 14.1572 194.829 13.2891 194.829 12.0877C194.829 11.3434 194.652 10.5902 194.303 9.8493C193.957 9.1118 193.454 8.4351 192.808 7.83834C192.162 7.24046 191.368 6.76306 190.455 6.42302C189.558 6.05596 188.522 5.87018 187.379 5.87018C185.712 5.87018 184.205 6.24062 182.902 6.96911C181.618 7.67733 180.595 8.66254 179.86 9.89659C179.125 11.1318 178.753 12.5561 178.753 14.1302C178.753 15.3124 178.95 16.4316 179.339 17.4574C179.728 18.4842 180.298 19.4098 181.035 20.2126C181.791 20.9895 182.721 21.6144 183.797 22.0704C184.873 22.5264 186.112 22.7572 187.48 22.7572C188.706 22.7572 189.811 22.6187 190.766 22.3474C191.75 22.0738 192.531 21.736 193.087 21.343C193.693 20.9152 193.988 20.5154 193.988 20.1214C193.988 19.9221 193.962 19.7329 193.912 19.5573C193.861 19.3805 193.762 19.1913 193.618 18.9977C193.482 18.7353 193.288 18.5597 193.042 18.473C192.82 18.366 192.583 18.3401 192.331 18.3964C192.134 18.4459 191.923 18.5315 191.705 18.652C191.701 18.6542 191.698 18.6554 191.695 18.6576C191.525 18.7635 191.319 18.8716 191.082 18.9785C190.844 19.0866 190.557 19.197 190.231 19.305C189.909 19.412 189.525 19.4987 189.092 19.564C188.657 19.6293 188.125 19.662 187.512 19.662C186.696 19.662 185.867 19.4773 185.052 19.1125C184.258 18.75 183.585 18.2298 183.054 17.5745C182.59 16.9586 182.346 16.2244 182.326 15.3901H191.812C192.646 15.3901 193.361 15.1469 193.942 14.665L193.945 14.6684ZM191.59 12.1215C191.59 12.5065 191.515 12.7554 191.371 12.8286C191.256 12.8916 191.018 12.9682 190.539 12.9682H182.329C182.349 12.26 182.561 11.6137 182.961 11.0462C183.406 10.4123 184.021 9.90785 184.79 9.54529C185.584 9.16021 186.467 8.96542 187.414 8.96542C188.227 8.96542 188.952 9.11517 189.57 9.41355C190.205 9.70855 190.707 10.1015 191.067 10.5857C191.419 11.0406 191.591 11.5427 191.591 12.1215H191.59Z" fill="#F7F9FD"/>
<path d="M175.244 6.15737C175.002 6.08419 174.714 6.04816 174.383 6.04816L171.435 6.09207V1.78417C171.435 1.43738 171.399 1.15702 171.326 0.932952C171.242 0.64696 171.061 0.428525 170.786 0.285529C170.526 0.127895 170.173 0.0513306 169.707 0.0513306C169.241 0.0513306 168.892 0.130147 168.651 0.291159C168.404 0.434155 168.236 0.650338 168.154 0.932952C168.081 1.18066 168.045 1.47904 168.045 1.81908V6.09995L166.533 6.08419H166.531C166.02 6.08419 165.636 6.22493 165.392 6.50304C165.152 6.77665 165.035 7.18424 165.035 7.74835C165.035 8.31245 165.124 8.73693 165.309 9.00603C165.311 9.01054 165.314 9.01392 165.317 9.01729C165.539 9.30216 165.924 9.44628 166.466 9.44628L168.043 9.43052V16.9665C168.043 18.0103 168.147 18.9077 168.353 19.6339C168.565 20.3556 168.922 20.9546 169.419 21.4152C169.91 21.8712 170.537 22.2112 171.283 22.4263C172.035 22.6368 172.956 22.7427 174.018 22.7427C174.324 22.7427 174.6 22.7055 174.841 22.6334C175.148 22.5726 175.376 22.4083 175.516 22.1515C175.671 21.8847 175.748 21.5233 175.748 21.0436C175.748 20.5898 175.685 20.2532 175.553 20.0111C175.413 19.7533 175.2 19.5776 174.92 19.492C174.675 19.4177 174.361 19.3794 173.984 19.3794C173.484 19.3794 173.055 19.3569 172.709 19.313C172.4 19.2736 172.147 19.1756 171.959 19.0236C171.792 18.8694 171.658 18.6408 171.56 18.3447C171.477 17.999 171.435 17.5351 171.435 16.9665V9.43615L174.42 9.48119C174.753 9.48119 175.046 9.4429 175.289 9.36859C175.569 9.28189 175.782 9.10737 175.927 8.84052C176.055 8.57817 176.117 8.22125 176.117 7.74835C176.117 7.27544 176.042 6.92302 175.887 6.67756C175.748 6.39833 175.526 6.22043 175.246 6.15963L175.244 6.15737Z" fill="#F7F9FD"/>
<path d="M161.756 6.1146C161.534 5.94908 161.196 5.86914 160.72 5.86914C160.149 5.86914 159.715 6.00313 159.428 6.26773C159.153 6.51769 159.027 6.93204 159.053 7.49727L159.088 8.23589C158.802 7.91387 158.488 7.61775 158.15 7.35089C157.639 6.90389 157.017 6.54696 156.306 6.2925C155.589 6.01214 154.714 5.86914 153.707 5.86914C152.628 5.86914 151.592 6.09321 150.625 6.53571C149.686 6.97595 148.84 7.58622 148.108 8.34962C147.376 9.11414 146.796 10.0183 146.383 11.0384C145.995 12.0337 145.797 13.1124 145.797 14.2451C145.797 15.3778 145.994 16.5004 146.383 17.5216C146.794 18.5384 147.361 19.4515 148.071 20.2397C148.804 21.0267 149.651 21.6494 150.592 22.0907C151.557 22.5321 152.604 22.7562 153.706 22.7562C154.808 22.7562 155.797 22.5783 156.588 22.2247C157.367 21.8532 158.008 21.4287 158.497 20.9569C158.721 20.7295 158.92 20.5133 159.091 20.3095L159.019 21.2226C159.019 21.2361 159.019 21.2497 159.019 21.2632C159.069 21.744 159.215 22.1088 159.452 22.3497C159.455 22.352 159.458 22.3553 159.461 22.3576C159.73 22.6031 160.131 22.7224 160.687 22.7224C161.157 22.7224 161.504 22.6447 161.745 22.4848C161.996 22.3407 162.165 22.1133 162.247 21.8081C162.319 21.5413 162.355 21.235 162.355 20.9006V7.79002C162.355 7.40944 162.319 7.08179 162.247 6.81382C162.166 6.51431 162.001 6.27786 161.757 6.11122L161.756 6.1146ZM158.883 14.28C158.883 15.2787 158.667 16.1795 158.238 16.9587C157.834 17.713 157.262 18.3244 156.535 18.7782C155.838 19.2274 155.054 19.456 154.208 19.456C153.201 19.456 152.301 19.2376 151.54 18.8097C150.794 18.356 150.199 17.7446 149.774 16.9913C149.347 16.2133 149.13 15.3249 149.13 14.3487C149.13 13.3725 149.346 12.4503 149.774 11.6723C150.201 10.8954 150.785 10.2716 151.509 9.81786C152.252 9.34496 153.138 9.10626 154.141 9.10626C154.988 9.10626 155.771 9.3337 156.476 9.78746C157.198 10.2176 157.78 10.829 158.21 11.6115C158.657 12.3648 158.883 13.2633 158.883 14.2811V14.28Z" fill="#F7F9FD"/>
<path d="M142.257 6.07184C142.016 5.91421 141.67 5.83765 141.201 5.83765C140.732 5.83765 140.352 5.9007 140.087 6.03356C139.834 6.17431 139.663 6.38824 139.578 6.6686C139.505 6.91181 139.468 7.20455 139.468 7.53784V21.0166C139.468 21.3499 139.505 21.6426 139.578 21.8859C139.663 22.1662 139.834 22.3801 140.08 22.5175C140.341 22.674 140.697 22.7506 141.167 22.7506C141.638 22.7506 141.978 22.6864 142.206 22.5592C142.486 22.4184 142.671 22.2034 142.756 21.9196C142.829 21.6764 142.867 21.3837 142.867 21.0504V7.60427C142.867 7.24847 142.829 6.94558 142.756 6.70125C142.673 6.42314 142.504 6.21146 142.255 6.07072L142.257 6.07184Z" fill="#F7F9FD"/>
<path d="M142.383 0.279899C142.101 0.125643 141.715 0.0513306 141.202 0.0513306C140.689 0.0513306 140.277 0.124518 139.996 0.276521C139.695 0.415013 139.489 0.650338 139.382 0.971234C139.284 1.24034 139.235 1.57137 139.235 1.95307C139.235 2.33476 139.271 2.66129 139.342 2.94616C139.343 2.95179 139.345 2.95742 139.346 2.96304C139.452 3.28056 139.652 3.53503 139.942 3.71856C139.946 3.72081 139.951 3.72419 139.954 3.72644C140.235 3.8807 140.633 3.95501 141.167 3.95501C141.702 3.95501 142.099 3.8807 142.38 3.72644C142.679 3.5643 142.873 3.32785 142.957 3.02385C143.052 2.7356 143.101 2.39782 143.101 2.0195C143.101 1.64118 143.052 1.30564 142.958 1.0174C142.873 0.690872 142.68 0.443162 142.38 0.279899H142.383Z" fill="#F7F9FD"/>
<path d="M135.489 6.01763C134.782 5.66408 134.241 5.62692 133.878 5.90616C133.56 6.15049 133.268 6.55021 133.003 7.10305L128.319 18.1768L123.532 6.76639C123.281 6.18765 122.959 5.85099 122.576 5.76542C122.211 5.66295 121.775 5.73727 121.282 5.98385C120.739 6.25633 120.398 6.55358 120.244 6.88912C120.076 7.22465 120.13 7.68291 120.408 8.29093L126.607 21.8001C126.607 21.8001 126.611 21.8091 126.613 21.8125C126.791 22.1435 127.016 22.3777 127.289 22.514C127.563 22.6389 127.91 22.702 128.319 22.702C128.757 22.702 129.121 22.6254 129.399 22.4734C129.689 22.3147 129.904 22.0748 130.031 21.7675L136.195 8.4936C136.41 8.04097 136.518 7.61423 136.518 7.22352C136.518 6.75175 136.171 6.34528 135.489 6.0165V6.01763Z" fill="#F7F9FD"/>
<path d="M116.873 6.1146C116.652 5.94908 116.313 5.86914 115.837 5.86914C115.266 5.86914 114.832 6.00313 114.544 6.26773C114.269 6.51769 114.143 6.93204 114.169 7.49727L114.204 8.23589C113.918 7.91387 113.604 7.61775 113.266 7.35089C112.756 6.90389 112.133 6.54696 111.422 6.2925C110.705 6.01214 109.831 5.86914 108.823 5.86914C107.744 5.86914 106.708 6.09321 105.741 6.53571C104.802 6.97595 103.956 7.58622 103.225 8.34962C102.492 9.11414 101.912 10.0183 101.499 11.0384C101.11 12.0337 100.913 13.1124 100.913 14.2451C100.913 15.3778 101.11 16.5004 101.499 17.5216C101.91 18.5372 102.477 19.4515 103.187 20.2397C103.92 21.0267 104.768 21.6494 105.708 22.0907C106.673 22.5321 107.721 22.7562 108.822 22.7562C109.924 22.7562 110.913 22.5783 111.704 22.2247C112.483 21.8532 113.125 21.4287 113.613 20.9569C113.837 20.7295 114.036 20.5133 114.207 20.3095L114.135 21.2226C114.135 21.2361 114.135 21.2497 114.135 21.2643C114.185 21.7451 114.331 22.1099 114.569 22.3497C114.571 22.3531 114.574 22.3553 114.578 22.3576C114.847 22.6031 115.247 22.7224 115.803 22.7224C116.274 22.7224 116.619 22.6447 116.861 22.4848C117.112 22.3407 117.281 22.1133 117.363 21.8081C117.435 21.5413 117.471 21.2361 117.471 20.9006V7.79002C117.471 7.40944 117.435 7.08179 117.363 6.81382C117.282 6.51431 117.118 6.27786 116.873 6.11122V6.1146ZM114 14.28C114 15.2787 113.784 16.1795 113.355 16.9587C112.951 17.7119 112.38 18.3233 111.654 18.7782C110.956 19.2274 110.173 19.456 109.325 19.456C108.318 19.456 107.418 19.2376 106.657 18.8097C105.911 18.356 105.317 17.7434 104.891 16.9913C104.465 16.2133 104.248 15.3249 104.248 14.3487C104.248 13.3725 104.464 12.4492 104.891 11.6723C105.318 10.8954 105.901 10.2716 106.627 9.81786C107.369 9.34496 108.255 9.10626 109.258 9.10626C110.104 9.10626 110.887 9.3337 111.593 9.78746C112.316 10.2176 112.897 10.829 113.327 11.6104C113.774 12.3636 114 13.2621 114 14.2811V14.28Z" fill="#F7F9FD"/>
<path d="M96.177 7.83731C95.531 7.23943 94.7376 6.76202 93.8238 6.42198C92.9268 6.05492 91.8926 5.86914 90.7481 5.86914C89.0814 5.86914 87.5745 6.23958 86.2713 6.96807C84.9872 7.6763 83.9642 8.6615 83.2293 9.89555C82.4945 11.1307 82.1219 12.555 82.1219 14.1291C82.1219 15.3114 82.3189 16.4317 82.7083 17.4563C83.0977 18.4832 83.666 19.4087 84.4042 20.2115C85.1616 20.9884 86.0901 21.6133 87.1659 22.0694C88.2418 22.5254 89.4809 22.7562 90.8493 22.7562C92.0749 22.7562 93.18 22.6177 94.1355 22.3463C95.1191 22.0727 95.9001 21.7349 96.456 21.342C97.0626 20.9141 97.3575 20.5144 97.3575 20.1203C97.3575 19.9222 97.3316 19.7319 97.2821 19.5562C97.2314 19.3783 97.1324 19.1903 96.9884 18.9966C96.8522 18.7343 96.6586 18.5586 96.4122 18.4719C96.1905 18.365 95.953 18.3391 95.7009 18.3954C95.504 18.4449 95.2935 18.5305 95.0752 18.651C95.0718 18.6532 95.0684 18.6543 95.0651 18.6566C94.8963 18.7624 94.6903 18.8705 94.4529 18.9775C94.2143 19.0856 93.9273 19.1959 93.6009 19.304C93.2791 19.411 92.8964 19.4977 92.462 19.563C92.0265 19.6283 91.4953 19.6609 90.882 19.6609C90.0661 19.6609 89.2378 19.4763 88.4219 19.1115C87.6296 18.7489 86.9555 18.2287 86.4243 17.5734C85.9607 16.9575 85.7164 16.2234 85.6962 15.3891H95.1821C96.016 15.3891 96.7318 15.1459 97.3125 14.664C97.8988 14.1528 98.1959 13.2847 98.1959 12.0833C98.1959 11.339 98.0192 10.5858 97.6703 9.84488C97.3237 9.10738 96.8207 8.43068 96.1747 7.83393L96.177 7.83731ZM94.9593 12.1216C94.9593 12.5066 94.8839 12.7566 94.7398 12.8287C94.625 12.8917 94.3876 12.9683 93.9082 12.9683H85.6996C85.7198 12.26 85.9314 11.6138 86.3309 11.0463C86.7766 10.4124 87.391 9.90793 88.1597 9.54538C88.9542 9.1603 89.8365 8.96551 90.783 8.96551C91.5966 8.96551 92.3214 9.11526 92.9392 9.41364C93.5739 9.70864 94.0758 10.1016 94.436 10.5858C94.7882 11.0406 94.9604 11.5428 94.9604 12.1216H94.9593Z" fill="#F7F9FD"/>
<path d="M79.425 6.05481C78.8319 5.83074 78.3435 5.81048 77.9687 5.99964C77.6266 6.18542 77.352 6.56599 77.1303 7.16275L73.5414 16.7176L70.2418 7.21004C70.1889 7.00399 70.0865 6.8092 69.9368 6.6313C69.8074 6.45227 69.6296 6.29801 69.4056 6.17191C69.1895 6.03792 68.8891 5.97261 68.4895 5.97261C68.1407 5.97261 67.8447 6.03904 67.6117 6.16965C67.3788 6.30027 67.1942 6.47366 67.0581 6.69322C66.9635 6.85986 66.8802 7.04114 66.8082 7.23481L63.4748 16.6534L59.8837 6.99723C59.6822 6.43988 59.4009 6.09872 59.0441 5.985C58.6987 5.85439 58.244 5.8983 57.6622 6.11899C57.2953 6.24172 57.0196 6.38922 56.817 6.56824C56.8136 6.57162 56.8091 6.575 56.8057 6.57838C56.6133 6.77204 56.5019 7.01074 56.4738 7.28773C56.4738 7.29561 56.4738 7.30236 56.4738 7.31024C56.4738 7.56133 56.5323 7.85971 56.6527 8.22339C56.6538 8.22677 56.6549 8.23127 56.6572 8.23465L61.8284 21.4894C61.8768 21.7022 61.9488 21.906 62.0433 22.0963C62.0489 22.1064 62.0546 22.1165 62.0613 22.1267C62.193 22.3136 62.3674 22.4622 62.5689 22.5635C62.8018 22.6941 63.1091 22.7606 63.4804 22.7606C63.8248 22.7606 64.0949 22.7099 64.3065 22.6074C64.5304 22.5196 64.7004 22.3631 64.8129 22.1402C64.9311 21.9476 65.038 21.7078 65.1291 21.4308L68.5233 11.6711L71.8894 21.4398C71.9816 21.6718 72.0863 21.8958 72.2022 22.1053C72.2045 22.1086 72.2056 22.112 72.2078 22.1154C72.3406 22.3305 72.5173 22.4937 72.7323 22.6018C72.9438 22.7088 73.2173 22.7606 73.5684 22.7606C73.9196 22.7606 74.1975 22.6953 74.4091 22.5658C74.6466 22.4566 74.8221 22.3023 74.9279 22.1154C75.0461 21.924 75.1429 21.7292 75.2138 21.54L80.3894 8.27293C80.6415 7.66267 80.6708 7.19202 80.4806 6.83397C80.2971 6.49168 79.9404 6.2282 79.4261 6.05593L79.425 6.05481Z" fill="#F7F9FD"/>
<path d="M46.7216 18.8519V8.23411C46.7216 7.19948 46.1549 6.24117 45.2335 5.72102L37.3193 1.24608C35.9911 0.49413 34.3257 1.427 34.3257 2.91959V14.2327L28.7047 11.0836C25.6965 9.39878 21.9937 9.40444 18.9885 11.0949L13.3994 14.244V2.92242C13.3994 1.42983 11.7341 0.496957 10.4058 1.24891L2.49163 5.72102C1.57029 6.24117 1.00354 7.19948 1.00354 8.23411V18.8632C1.00354 20.3529 1.78537 21.7381 3.07582 22.5381L10.2809 27.0046C12.1555 28.1664 14.5736 28.0731 16.3466 26.7699L21.3543 23.0922C22.732 22.0801 24.9845 22.0801 26.3621 23.0922L31.3699 26.7671C33.1428 28.0675 35.5609 28.1607 37.4356 26.9989L44.6493 22.524C45.9398 21.724 46.7187 20.3388 46.7187 18.849H46.7216V18.8519Z" fill="#00070E"/>
<path d="M45.7384 4.8753L37.8242 0.400362C36.8884 -0.13109 35.7665 -0.133917 34.8248 0.394709C33.8831 0.920507 33.3222 1.86468 33.3222 2.91911V12.5418L29.2067 10.2351C25.8992 8.38063 21.7924 8.38628 18.4878 10.2464L14.4042 12.5474V2.92193C14.4042 1.86751 13.8433 0.923334 12.9016 0.397536C11.9628 -0.128263 10.841 -0.125436 9.90219 0.403189L1.988 4.8753C0.761484 5.56789 0 6.85412 0 8.2308V18.8598C0 20.6917 0.947495 22.3737 2.53731 23.3574L9.74234 27.8267C10.7509 28.4543 11.928 28.785 13.14 28.785C14.5118 28.785 15.8662 28.3468 16.9532 27.5497L21.961 23.8719C22.9898 23.1143 24.7279 23.1143 25.7567 23.8719L30.7645 27.5468C32.8601 29.0847 35.7578 29.1977 37.9754 27.8239L45.1891 23.3489C46.7469 22.3821 47.6886 20.7454 47.7235 18.9503V8.23363C47.7264 6.85412 46.9649 5.56789 45.7384 4.87813V4.8753ZM13.0731 26.8345C12.2709 26.8232 11.5036 26.6027 10.8468 26.1984L3.61559 21.7122C2.60997 21.0874 2.00834 20.0217 2.00834 18.8598V8.23363C2.00834 7.5467 2.38618 6.90783 2.99653 6.56578L10.9107 2.09366C11.0589 2.00885 11.2304 1.96362 11.4077 1.96362C11.585 1.96362 11.742 2.00885 11.8989 2.09366C12.0471 2.17564 12.393 2.4244 12.393 2.92759V24.98C12.393 25.6641 12.6313 26.3115 13.0702 26.8345H13.0731ZM16.0754 25.7489L16.0435 25.7687C15.8633 25.9044 15.6569 25.9723 15.436 25.9723C14.939 25.9723 14.4042 25.5906 14.4042 24.9744V21.7206L20.6356 17.8478C22.6033 16.6238 25.1435 16.6238 27.1111 17.8478L33.3367 21.7206L33.3425 24.9716C33.3425 25.5878 32.8077 25.9694 32.3107 25.9694C32.0957 25.9694 31.8457 25.8875 31.6626 25.7518L26.9716 22.3086C25.2278 21.0281 22.4986 21.0281 20.7548 22.3086L16.0754 25.7489ZM28.1923 16.2026C25.5678 14.5715 22.176 14.5715 19.5515 16.2026L14.4013 19.4026V14.8061L19.4905 11.9397L19.5108 11.9255C22.1906 10.4245 25.5184 10.4245 28.204 11.9255L33.3222 14.7948L33.3309 19.3998L28.1923 16.2026ZM43.8492 21.8648L36.8971 26.1786C36.2344 26.5914 35.47 26.8147 34.6737 26.8316C35.1096 26.3087 35.3479 25.6613 35.3479 24.9772L35.3276 14.2351V2.92193C35.3276 2.4244 35.6735 2.17281 35.8217 2.08801C35.9757 2.00037 36.1472 1.95797 36.3158 1.95797C36.4844 1.95797 36.6558 2.00037 36.8099 2.08801L44.7241 6.56295C45.3315 6.90783 45.7094 7.5467 45.7094 8.2308V18.8881C45.6977 20.033 45.0961 21.0846 44.1021 21.7009L43.8434 21.862H43.8521L43.8492 21.8648Z" fill="#F7F9FD"/>
</svg>
