<svg width="219" height="55" viewBox="0 0 219 55" fill="none" xmlns="http://www.w3.org/2000/svg">
<g id="Layer_1" clip-path="url(#clip0_4575_7264)">
<g id="Group">
<path id="Vector" d="M123.964 1.21449C125.133 1.62257 125.718 2.163 125.718 2.8468C125.718 3.06738 125.619 3.48649 125.409 4.09309L120.388 18.2655C120.355 18.3868 120.288 18.5302 120.2 18.6956C120.112 18.8611 119.88 19.0927 119.505 19.3684C119.129 19.6442 118.688 19.7875 118.169 19.7875C117.651 19.7875 117.209 19.6442 116.834 19.3684C116.459 19.0927 116.205 18.8059 116.083 18.5412L113.026 9.72897C111.095 15.3097 110.102 18.1552 110.068 18.2545C110.035 18.3537 109.958 18.4971 109.837 18.6846C109.715 18.8721 109.572 19.0375 109.417 19.192C109.02 19.589 108.534 19.7765 107.982 19.7765C107.431 19.7765 106.967 19.6442 106.614 19.3905C106.261 19.1368 106.018 18.8831 105.897 18.6295L105.709 18.2435L100.654 4.07103C100.467 3.50855 100.367 3.08944 100.367 2.82474C100.367 2.14094 100.952 1.61154 102.122 1.21449C102.63 1.04905 103.082 0.960822 103.491 0.960822C103.899 0.960822 104.219 1.09317 104.429 1.3689C104.649 1.64463 104.848 2.06373 105.014 2.61519L107.894 11.1407L110.742 2.73651C110.984 2.01962 111.426 1.52331 112.077 1.25861C112.353 1.13729 112.717 1.08214 113.159 1.08214C113.6 1.08214 114.02 1.22552 114.406 1.50125C114.792 1.77698 115.035 2.06373 115.134 2.32843L118.147 11.1958L121.028 2.61519C121.171 2.21814 121.282 1.93138 121.37 1.74389C121.458 1.55639 121.624 1.3689 121.856 1.19243C122.087 1.01597 122.385 0.927734 122.727 0.927734C123.07 0.927734 123.489 1.01597 123.952 1.1814L123.964 1.21449Z" fill="#130C49"/>
<path id="Vector_2" d="M138.607 11.5046C138.607 12.5523 138.342 13.3244 137.813 13.8317C137.283 14.3391 136.687 14.5817 136.047 14.5817H129.844C129.844 15.0559 130.131 15.464 130.705 15.7839C131.279 16.1037 131.853 16.2691 132.427 16.2691C133.442 16.2691 134.237 16.1699 134.811 15.9603L135.098 15.8611C135.517 15.6736 135.87 15.5853 136.146 15.5853C136.709 15.5853 137.184 15.9714 137.581 16.7324C137.813 17.1956 137.923 17.5816 137.923 17.9125C137.923 19.4235 136.069 20.1845 132.35 20.1845C131.058 20.1845 129.91 19.9639 128.906 19.5338C127.902 19.1036 127.118 18.5301 126.566 17.8132C125.463 16.4346 124.922 14.8905 124.922 13.192C124.922 11.0413 125.628 9.33183 127.052 8.04142C128.476 6.75102 130.253 6.11133 132.372 6.11133C134.8 6.11133 136.577 6.94954 137.713 8.61494C138.309 9.49727 138.607 10.4678 138.607 11.5156V11.5046ZM133.089 12.2545C133.751 12.2545 134.082 11.9788 134.082 11.4384C134.082 11.0413 133.928 10.7325 133.63 10.4899C133.321 10.2472 132.89 10.137 132.316 10.137C131.743 10.137 131.191 10.3575 130.628 10.8097C130.065 11.2619 129.789 11.7472 129.789 12.2545H133.089Z" fill="#130C49"/>
<path id="Vector_3" d="M149.259 7.80879C149.358 6.86028 150.054 6.375 151.323 6.375C152.007 6.375 152.504 6.43015 152.846 6.52941C153.177 6.62867 153.409 6.80514 153.541 7.06983C153.674 7.3235 153.751 7.55512 153.773 7.74261C153.795 7.94113 153.817 8.22789 153.817 8.62494V17.5585C153.817 17.9556 153.806 18.2423 153.773 18.4409C153.751 18.6394 153.674 18.86 153.552 19.1136C153.309 19.5548 152.713 19.7754 151.764 19.7754C150.815 19.7754 150.175 19.6651 149.855 19.4335C149.535 19.2019 149.347 18.871 149.292 18.4298C148.641 19.3342 147.57 19.7864 146.058 19.7864C144.546 19.7864 143.145 19.1136 141.853 17.7681C140.562 16.4225 139.922 14.8564 139.922 13.0807C139.922 11.305 140.573 9.73888 141.875 8.40436C143.178 7.06983 144.601 6.39706 146.158 6.39706C146.754 6.39706 147.294 6.49632 147.78 6.70587C148.266 6.91543 148.608 7.10292 148.795 7.27939C148.983 7.45585 149.149 7.63232 149.27 7.79776L149.259 7.80879ZM144.491 13.1248C144.491 13.6873 144.723 14.1946 145.175 14.6468C145.628 15.099 146.18 15.3196 146.82 15.3196C147.46 15.3196 148.001 15.088 148.431 14.6248C148.862 14.1616 149.071 13.6542 149.071 13.1028C149.071 12.5513 148.862 12.0329 148.453 11.5587C148.045 11.0844 147.493 10.8418 146.809 10.8418C146.124 10.8418 145.562 11.0844 145.131 11.5587C144.701 12.0329 144.491 12.5513 144.491 13.1138V13.1248Z" fill="#130C49"/>
<path id="Vector_4" d="M169.414 6.68427C170.319 7.21367 170.772 7.77615 170.772 8.37172C170.772 8.71363 170.595 9.17685 170.253 9.77242L164.834 18.8384C164.657 19.1251 164.381 19.3898 163.995 19.6214C163.609 19.853 163.234 19.9633 162.858 19.9633C162.483 19.9633 162.13 19.8751 161.788 19.6986C161.446 19.5222 161.203 19.3347 161.07 19.1472L160.839 18.8714L155.398 9.78345C155.044 9.22097 154.879 8.75774 154.879 8.40481C154.879 7.78718 155.331 7.2247 156.236 6.6953C156.899 6.32031 157.417 6.13281 157.804 6.13281C158.19 6.13281 158.488 6.2431 158.709 6.47472C158.929 6.70633 159.161 7.04823 159.404 7.51145L162.836 13.9525L166.269 7.51145C166.456 7.19161 166.6 6.94897 166.699 6.80559C166.798 6.66221 166.953 6.51883 167.152 6.37545C167.361 6.23207 167.637 6.15487 167.99 6.15487C168.344 6.15487 168.818 6.33134 169.425 6.6953L169.414 6.68427Z" fill="#130C49"/>
<path id="Vector_5" d="M176.522 3.88317C176.389 4.12581 176.157 4.30228 175.826 4.40154C175.495 4.5008 175.054 4.55595 174.502 4.55595C173.95 4.55595 173.509 4.5008 173.178 4.40154C172.846 4.30228 172.615 4.12581 172.482 3.86111C172.35 3.60744 172.273 3.37583 172.25 3.18834C172.228 2.98981 172.206 2.70306 172.206 2.30601C172.206 1.90896 172.217 1.6222 172.25 1.42368C172.273 1.22515 172.35 1.0156 172.471 0.77296C172.714 0.309737 173.398 0.078125 174.513 0.078125C175.628 0.078125 176.279 0.309737 176.5 0.77296C176.643 1.02663 176.72 1.25824 176.753 1.44574C176.776 1.64426 176.798 1.93102 176.798 2.32807C176.798 2.72511 176.787 3.01187 176.753 3.2104C176.731 3.40892 176.654 3.6295 176.522 3.87214V3.88317ZM172.217 8.62569C172.217 8.22865 172.228 7.94189 172.262 7.74336C172.284 7.54484 172.361 7.32426 172.482 7.07059C172.725 6.62942 173.409 6.40884 174.524 6.40884C175.363 6.40884 175.959 6.55222 176.301 6.83898C176.599 7.08162 176.753 7.44558 176.776 7.94189C176.798 8.10732 176.798 8.36099 176.798 8.68084V17.6144C176.798 18.0115 176.787 18.2982 176.753 18.4968C176.731 18.6953 176.643 18.9159 176.5 19.1695C176.268 19.6107 175.606 19.8313 174.48 19.8313C173.354 19.8313 172.714 19.5997 172.46 19.1364C172.339 18.8828 172.262 18.6622 172.239 18.4747C172.217 18.2872 172.195 17.9894 172.195 17.5813V8.62569H172.217Z" fill="#130C49"/>
<path id="Vector_6" d="M187.833 7.80879C187.932 6.86028 188.628 6.375 189.897 6.375C190.581 6.375 191.078 6.43015 191.42 6.52941C191.751 6.62867 191.983 6.80514 192.115 7.06983C192.248 7.3235 192.325 7.55512 192.347 7.74261C192.369 7.94113 192.391 8.22789 192.391 8.62494V17.5585C192.391 17.9556 192.38 18.2423 192.347 18.4409C192.325 18.6394 192.248 18.86 192.126 19.1136C191.884 19.5548 191.288 19.7754 190.338 19.7754C189.389 19.7754 188.749 19.6651 188.429 19.4335C188.109 19.2019 187.921 18.871 187.866 18.4298C187.215 19.3342 186.144 19.7864 184.632 19.7864C183.12 19.7864 181.719 19.1136 180.428 17.7681C179.136 16.4225 178.496 14.8564 178.496 13.0807C178.496 11.305 179.147 9.73888 180.45 8.40436C181.752 7.06983 183.176 6.39706 184.732 6.39706C185.328 6.39706 185.869 6.49632 186.354 6.70587C186.84 6.91543 187.182 7.10292 187.37 7.27939C187.557 7.45585 187.723 7.63232 187.844 7.79776L187.833 7.80879ZM183.065 13.1248C183.065 13.6873 183.297 14.1946 183.75 14.6468C184.202 15.099 184.754 15.3196 185.394 15.3196C186.034 15.3196 186.575 15.088 187.005 14.6248C187.436 14.1616 187.645 13.6542 187.645 13.1028C187.645 12.5513 187.436 12.0329 187.027 11.5587C186.619 11.0844 186.067 10.8418 185.383 10.8418C184.699 10.8418 184.136 11.0844 183.705 11.5587C183.275 12.0329 183.065 12.5513 183.065 13.1138V13.1248Z" fill="#130C49"/>
<path id="Vector_7" d="M202.489 10.8977L200.789 10.7985V14.3278C200.789 14.791 200.866 15.1219 201.01 15.3204C201.153 15.53 201.44 15.6292 201.849 15.6292C202.257 15.6292 202.577 15.6403 202.787 15.6623C203.007 15.6844 203.239 15.7726 203.482 15.905C203.879 16.1255 204.089 16.6991 204.089 17.6145C204.089 18.6843 203.846 19.346 203.361 19.5777C203.096 19.699 202.864 19.7651 202.665 19.7982C202.467 19.8203 202.169 19.8313 201.793 19.8313C199.983 19.8313 198.604 19.4343 197.655 18.6291C196.716 17.824 196.242 16.4785 196.242 14.5704V10.7874C195.911 10.8426 195.558 10.8646 195.171 10.8646C194.785 10.8646 194.465 10.7213 194.211 10.4345C193.957 10.1478 193.836 9.65145 193.836 8.95661C193.836 8.26178 193.88 7.75444 193.968 7.43459C194.057 7.11475 194.178 6.89417 194.333 6.76182C194.608 6.54123 194.962 6.43094 195.381 6.43094L196.242 6.5302V3.89424C196.242 3.50823 196.253 3.21044 196.286 3.02294C196.308 2.83545 196.396 2.63693 196.54 2.40531C196.772 1.97518 197.434 1.76562 198.56 1.76562C199.741 1.76562 200.447 2.08547 200.679 2.71413C200.767 2.98986 200.811 3.41999 200.811 4.01557V6.51918C201.584 6.453 202.158 6.41991 202.555 6.41991C202.952 6.41991 203.239 6.43094 203.449 6.453C203.647 6.47506 203.879 6.56329 204.144 6.69564C204.597 6.91622 204.828 7.57797 204.828 8.65882C204.828 9.73968 204.597 10.3904 204.122 10.622C203.857 10.7433 203.625 10.8095 203.427 10.8426C203.228 10.8646 202.93 10.8757 202.522 10.8757L202.489 10.8977Z" fill="#130C49"/>
<path id="Vector_8" d="M219.002 11.5046C219.002 12.5523 218.737 13.3244 218.207 13.8317C217.677 14.3391 217.081 14.5817 216.441 14.5817H210.239C210.239 15.0559 210.526 15.464 211.1 15.7839C211.674 16.1037 212.247 16.2691 212.821 16.2691C213.837 16.2691 214.631 16.1699 215.205 15.9603L215.492 15.8611C215.912 15.6736 216.265 15.5853 216.541 15.5853C217.104 15.5853 217.578 15.9714 217.975 16.7324C218.207 17.1956 218.318 17.5816 218.318 17.9125C218.318 19.4235 216.463 20.1845 212.744 20.1845C211.453 20.1845 210.305 19.9639 209.301 19.5338C208.296 19.1036 207.513 18.5301 206.961 17.8132C205.857 16.4346 205.316 14.8905 205.316 13.192C205.316 11.0413 206.023 9.33183 207.446 8.04142C208.87 6.75102 210.647 6.11133 212.766 6.11133C215.194 6.11133 216.971 6.94954 218.108 8.61494C218.704 9.49727 219.002 10.4678 219.002 11.5156V11.5046ZM213.484 12.2545C214.146 12.2545 214.477 11.9788 214.477 11.4384C214.477 11.0413 214.322 10.7325 214.024 10.4899C213.715 10.2472 213.285 10.137 212.711 10.137C212.137 10.137 211.585 10.3575 211.022 10.8097C210.459 11.2619 210.184 11.7472 210.184 12.2545H213.484Z" fill="#130C49"/>
</g>
<path id="Vector_9" d="M87.9841 9.44173L72.4555 0.629464C70.9877 -0.208749 69.2218 -0.208749 67.7539 0.629464C66.275 1.45665 65.4031 2.94558 65.4031 4.59995V25.5442L55.5584 20.0076C49.4331 16.5665 41.8289 16.5776 35.7035 20.0297L25.914 25.5663V4.58892C25.914 2.92352 25.0311 1.44562 23.5632 0.618435C22.0954 -0.208749 20.3295 -0.208749 18.8616 0.618435L3.31099 9.44173C1.26921 10.5998 0 12.7505 0 15.0556V35.9888C0 39.1983 1.6555 42.1541 4.43673 43.8746L18.5747 52.6759C20.4067 53.8229 22.5147 54.3854 24.6007 54.3854C26.9956 54.3854 29.3906 53.6464 31.3772 52.1796L41.2108 44.9334C43.6168 43.1577 47.6783 43.1577 50.0843 44.9334L59.2888 51.7163L59.9069 52.1685C63.6262 54.9148 68.7803 55.1133 72.7094 52.6648L78.8568 48.8377L86.8583 43.8526C89.6285 42.121 91.284 39.1762 91.284 35.9668V15.0556C91.284 12.7505 90.0148 10.5998 87.973 9.44173H87.9841ZM68.5375 1.95296C69.5198 1.4015 70.6897 1.4015 71.6609 1.95296L87.1894 10.7652C88.7456 11.6476 89.7168 13.2909 89.7168 15.0445V35.9557C89.7168 37.0145 89.4961 38.0402 89.0877 38.9887L66.9703 26.4155V4.58892C66.9703 3.48601 67.5553 2.50441 68.5375 1.95296ZM36.4871 21.3642C42.1158 18.1768 49.1241 18.1768 54.7638 21.3422L65.4031 27.3199L65.4252 39.1652L53.5167 31.7316C48.7599 28.7537 42.6014 28.7537 37.8336 31.7316L25.914 39.1652V27.342L36.4871 21.3642ZM1.57824 15.0556C1.57824 13.3019 2.54946 11.6586 4.10563 10.7763L19.6342 1.96399C20.1198 1.68826 20.6606 1.54488 21.2014 1.54488C21.7422 1.54488 22.2719 1.67723 22.7575 1.95296C23.7398 2.50441 24.3248 3.48601 24.3248 4.58892V26.4486L2.19629 38.9998C1.79897 38.0623 1.57824 37.0366 1.57824 35.9778V15.0556ZM2.94678 40.3563L24.3248 28.2354V40.1468L12.8577 47.2937L5.27551 42.5732C4.3374 41.9887 3.54276 41.2276 2.94678 40.3563ZM19.4134 51.3744L14.3256 48.2091L24.3248 41.9776V48.0326C24.3248 50.0509 25.6491 51.7715 27.5033 52.4112C24.8324 53.2273 21.8636 52.8854 19.4245 51.3744H19.4134ZM40.2506 43.7092L31.013 50.5142C30.4501 50.9333 29.7879 51.1539 29.1036 51.1539C27.1281 51.1539 25.892 49.5326 25.892 48.0326V40.985L38.6613 33.022C42.9104 30.375 48.3957 30.375 52.6448 33.022L65.4142 40.996V48.0326C65.4252 49.5326 64.2001 51.1539 62.2246 51.1539C61.5513 51.1539 60.8008 50.9112 60.238 50.4921L51.0334 43.7092C48.0646 41.5254 43.2305 41.5254 40.2617 43.7092H40.2506ZM71.8596 51.3744C69.4315 52.8854 66.4737 53.2273 63.8138 52.4222C65.668 51.7825 67.0034 50.062 67.0034 48.0326V41.9887L76.9474 48.1981L71.8596 51.3634V51.3744ZM86.0085 42.5622L78.4043 47.2937L66.9814 40.1578L66.9593 28.2243L88.3262 40.3674C87.7302 41.2276 86.9466 41.9887 86.0085 42.5732V42.5622Z" fill="#130C49"/>
<g id="Group_2">
<path id="Vector_10" d="M104.727 54.3619V23.6348H107.431V37.6197H125.222V23.6348H127.926V54.3619H125.222V40.0902H107.431V54.3619H104.727Z" fill="#129C5B"/>
<path id="Vector_11" d="M135.859 54.3619V23.6348H155.681V26.1053H138.574V37.73H154.842V40.1674H138.574V51.8803H155.681V54.3509H135.859V54.3619Z" fill="#129C5B"/>
<path id="Vector_12" d="M161.766 54.3619V23.6348H172.284C174.314 23.6348 176.091 24.0208 177.603 24.7928C179.126 25.5649 180.307 26.6457 181.157 28.0464C182.007 29.4471 182.426 31.0684 182.426 32.9103C182.426 35.1051 181.819 36.991 180.605 38.5351C179.391 40.0902 177.747 41.149 175.661 41.7336L183.099 54.3509H179.888L172.074 40.9064L174.358 42.1857H164.47V54.3509H161.766V54.3619ZM164.47 39.7263H172.372C173.84 39.7263 175.12 39.4505 176.213 38.877C177.316 38.3145 178.166 37.5204 178.795 36.4837C179.413 35.447 179.722 34.2448 179.722 32.8772C179.722 31.5096 179.413 30.3184 178.795 29.3148C178.177 28.3111 177.316 27.528 176.213 26.9656C175.109 26.4031 173.829 26.1163 172.372 26.1163H164.47V39.7263Z" fill="#129C5B"/>
<path id="Vector_13" d="M203.385 54.8591C201.21 54.8591 199.191 54.4731 197.303 53.701C195.416 52.929 193.761 51.8371 192.337 50.4254C190.913 49.0137 189.798 47.3372 189.004 45.3961C188.198 43.455 187.801 41.3153 187.801 38.9882C187.801 36.6611 188.198 34.5214 189.004 32.5913C189.809 30.6722 190.924 28.9958 192.359 27.5841C193.794 26.1724 195.449 25.0805 197.325 24.3084C199.202 23.5364 201.221 23.1504 203.385 23.1504C205.548 23.1504 207.534 23.5364 209.411 24.3084C211.287 25.0805 212.942 26.1724 214.377 27.5841C215.812 28.9958 216.938 30.6833 217.732 32.6134C218.538 34.5545 218.935 36.6721 218.935 38.9882C218.935 41.3043 218.538 43.466 217.732 45.3961C216.926 47.3372 215.812 49.0137 214.399 50.4254C212.975 51.8371 211.32 52.94 209.433 53.701C207.545 54.4731 205.526 54.8591 203.396 54.8591H203.385ZM203.385 52.3445C205.272 52.3445 207.005 51.9915 208.583 51.2967C210.161 50.5908 211.519 49.6313 212.655 48.385C213.792 47.1498 214.675 45.727 215.293 44.1167C215.911 42.5065 216.22 40.797 216.22 38.9772C216.22 37.1574 215.911 35.492 215.293 33.8817C214.675 32.2715 213.792 30.8487 212.655 29.6135C211.519 28.3782 210.161 27.4076 208.605 26.7018C207.038 25.9959 205.305 25.654 203.385 25.654C201.464 25.654 199.72 26.0069 198.142 26.7018C196.564 27.4076 195.206 28.3672 194.07 29.6135C192.933 30.8487 192.05 32.2715 191.432 33.8817C190.814 35.492 190.505 37.1905 190.505 38.9772C190.505 40.7639 190.814 42.5065 191.432 44.1167C192.05 45.727 192.933 47.1498 194.07 48.385C195.206 49.6203 196.564 50.5908 198.142 51.2967C199.72 52.0026 201.464 52.3445 203.385 52.3445Z" fill="#129C5B"/>
</g>
</g>
<defs>
<clipPath id="clip0_4575_7264">
<rect width="219" height="54.8588" fill="white"/>
</clipPath>
</defs>
</svg>
