<svg width="67" height="75" viewBox="0 0 67 75" fill="none" xmlns="http://www.w3.org/2000/svg">
<g id="Group">
<path id="Vector" d="M33.5 74.6128C32.4288 74.6128 31.3704 74.3353 30.414 73.793L3.08603 58.1933C1.18595 57.1087 0 55.0784 0 52.9093V21.6972C0 19.5281 1.18595 17.4977 3.08603 16.4132L30.414 0.813407C32.314 -0.271136 34.686 -0.271136 36.586 0.813407L63.914 16.4132C65.814 17.4977 67 19.5281 67 21.6972V52.9093C67 55.0784 65.814 57.1087 63.914 58.1933L36.586 73.793C35.6296 74.3353 34.5712 74.6128 33.5 74.6128ZM33.5 1.57006C32.7094 1.57006 31.9187 1.77184 31.2174 2.17539L3.88942 17.7752C2.47393 18.5823 1.60678 20.083 1.60678 21.6972V52.9093C1.60678 54.5235 2.48668 56.0242 3.88942 56.8313L31.2174 72.4311C32.6329 73.2382 34.3799 73.2382 35.7954 72.4311L63.1233 56.8313C64.5388 56.0242 65.406 54.5235 65.406 52.9093V21.6972C65.406 20.083 64.5261 18.5823 63.1233 17.7752L35.7826 2.17539C35.0813 1.77184 34.2906 1.57006 33.5 1.57006Z" fill="#61BD73"/>
<path id="Vector_2" d="M39.9443 28.8726V36.7292L33.4917 33.0468L27.0391 36.7292V28.8726L19.375 33.2612V41.5718L26.631 45.7334L33.4917 41.8114L40.3523 45.7334L47.6083 41.5718V33.2738L39.9443 28.8726Z" fill="#61BD73"/>
</g>
</svg>
