<svg width="55" height="34" viewBox="0 0 55 34" fill="none" xmlns="http://www.w3.org/2000/svg">
<g clip-path="url(#clip0_5456_5055)">
<path d="M39.8222 25.0944L39.8283 29.7493C39.8283 31.1814 38.6508 32.1705 37.3949 32.1705C36.903 32.1705 36.3509 32.0004 35.9017 31.6611L30.2944 27.431C28.6494 26.1872 25.9552 26.1872 24.3103 27.431L18.6846 31.6794C18.2355 32.0196 17.7322 32.1713 17.2342 32.1713C15.9782 32.1713 14.8008 31.1823 14.8008 29.7501V25.0953L22.7996 19.9851C25.5549 18.225 29.0812 18.225 31.8303 19.9851L39.8231 25.0953L39.8222 25.0944Z" fill="url(#paint0_linear_5456_5055)"/>
<path d="M39.8047 16.5488L39.8231 25.0936L31.8303 19.9835C29.0812 18.2234 25.5549 18.2234 22.7996 19.9835L14.8008 25.0936V16.561L21.4826 12.6954C25.0691 10.6196 29.4937 10.6135 33.0924 12.6832L39.8047 16.5488Z" fill="url(#paint1_linear_5456_5055)"/>
<path d="M14.8005 29.7476C14.8005 31.1797 15.978 32.1688 17.2339 32.1688C17.732 32.1688 18.2352 32.017 18.6844 31.6768L18.3259 31.9498C16.2082 33.5459 13.3195 33.6611 11.0798 32.235L7.34766 29.8557V29.8496L14.8005 25.0918V29.7467V29.7476Z" fill="url(#paint2_linear_5456_5055)"/>
<path d="M14.8006 16.5605V25.0932L7.34773 29.851V29.8571L2.4748 26.7495C1.69768 26.2515 1.07319 25.5781 0.648438 24.7897L14.8006 16.5605Z" fill="url(#paint3_linear_5456_5055)"/>
<path d="M37.3986 32.1708C38.6545 32.1708 39.832 31.1817 39.832 29.7496L39.8259 25.0947L47.2604 29.8525L43.5283 32.2319C41.2885 33.6579 38.3998 33.5489 36.2822 31.9467L35.9062 31.6614C36.3554 32.0016 36.9075 32.1708 37.3994 32.1708H37.3986Z" fill="url(#paint4_linear_5456_5055)"/>
<path d="M53.9568 24.7903C53.5321 25.5674 52.9128 26.2407 52.1427 26.7387L47.2576 29.8525L39.823 25.0947L39.8047 16.5498L53.9568 24.7911V24.7903Z" fill="url(#paint5_linear_5456_5055)"/>
<path d="M54.6158 9.17547V22.2234C54.6158 23.1401 54.3855 24.014 53.9608 24.7903L39.8086 16.549V2.65148C39.8086 0.819011 41.7989 -0.327919 43.3889 0.593986L52.8443 6.09227C53.9424 6.72984 54.6166 7.90643 54.6166 9.17547H54.6158Z" fill="url(#paint6_linear_5456_5055)"/>
<path d="M14.8019 2.65001V16.5597L0.649782 24.7897C0.225025 24.0187 0 23.1447 0 22.235V9.17399C0 7.90583 0.673331 6.72837 1.77229 6.0908L11.2277 0.592513C12.8177 -0.330264 14.8019 0.816666 14.8019 2.65001Z" fill="url(#paint7_linear_5456_5055)"/>
</g>
<defs>
<linearGradient id="paint0_linear_5456_5055" x1="27.3145" y1="18.665" x2="27.3145" y2="32.1713" gradientUnits="userSpaceOnUse">
<stop stop-color="#1E9634"/>
<stop offset="0.94" stop-color="#35537F"/>
</linearGradient>
<linearGradient id="paint1_linear_5456_5055" x1="27.3119" y1="11.1348" x2="29.4554" y2="25.2103" gradientUnits="userSpaceOnUse">
<stop stop-color="#57E736"/>
<stop offset="1" stop-color="#348522"/>
</linearGradient>
<linearGradient id="paint2_linear_5456_5055" x1="13.016" y1="25.0918" x2="13.016" y2="33.2307" gradientUnits="userSpaceOnUse">
<stop stop-color="#8AB11B"/>
<stop offset="1" stop-color="#6EAF02"/>
</linearGradient>
<linearGradient id="paint3_linear_5456_5055" x1="9.4372" y1="15.3302" x2="7.75" y2="31.8763" gradientUnits="userSpaceOnUse">
<stop stop-color="#75BE2C"/>
<stop offset="0.86" stop-color="#9DC03B"/>
</linearGradient>
<linearGradient id="paint4_linear_5456_5055" x1="41.5833" y1="25.0947" x2="41.5833" y2="33.2297" gradientUnits="userSpaceOnUse">
<stop stop-color="#8AB11B"/>
<stop offset="1" stop-color="#6EAF02"/>
</linearGradient>
<linearGradient id="paint5_linear_5456_5055" x1="48.5934" y1="15.3189" x2="46.8796" y2="29.0807" gradientUnits="userSpaceOnUse">
<stop stop-color="#75BE2C"/>
<stop offset="0.86" stop-color="#9DC03B"/>
</linearGradient>
<linearGradient id="paint6_linear_5456_5055" x1="47.2126" y1="0.268555" x2="47.2126" y2="24.7903" gradientUnits="userSpaceOnUse">
<stop stop-color="#EBEE2E"/>
<stop offset="0.565" stop-color="#CACD2D"/>
<stop offset="1" stop-color="#97CC01"/>
</linearGradient>
<linearGradient id="paint7_linear_5456_5055" x1="7.40097" y1="0.266602" x2="7.40097" y2="24.7897" gradientUnits="userSpaceOnUse">
<stop stop-color="#EBEE2E"/>
<stop offset="0.565" stop-color="#CACD2D"/>
</linearGradient>
<clipPath id="clip0_5456_5055">
<rect width="54.6139" height="32.9644" fill="white" transform="translate(0 0.268555)"/>
</clipPath>
</defs>
</svg>
