<svg width="184" height="28" viewBox="0 0 184 28" fill="none" xmlns="http://www.w3.org/2000/svg">
<path d="M183.171 13.8535C183.725 13.3707 184.005 12.5508 184.005 11.4162C184.005 10.7133 183.838 10.0019 183.509 9.30214C183.181 8.60561 182.706 7.96651 182.096 7.40291C181.486 6.83824 180.737 6.38736 179.874 6.06621C179.027 5.71954 178.049 5.54408 176.969 5.54408C175.395 5.54408 173.972 5.89394 172.741 6.58196C171.528 7.25084 170.562 8.18131 169.868 9.3468C169.174 10.5134 168.822 11.8586 168.822 13.3452C168.822 14.4618 169.008 15.5188 169.376 16.4875C169.744 17.4574 170.281 18.3315 170.978 19.0897C171.692 19.8234 172.57 20.4136 173.586 20.8443C174.602 21.275 175.772 21.493 177.065 21.493C178.222 21.493 179.266 21.3622 180.168 21.1059C181.097 20.8475 181.835 20.5285 182.36 20.1573C182.933 19.7532 183.211 19.3757 183.211 19.0035C183.211 18.8153 183.187 18.6367 183.139 18.4708C183.091 18.3038 182.998 18.1252 182.862 17.9423C182.733 17.6945 182.55 17.5286 182.317 17.4467C182.108 17.3457 181.884 17.3212 181.646 17.3744C181.46 17.4212 181.261 17.502 181.055 17.6158C181.051 17.6179 181.048 17.619 181.045 17.6211C180.885 17.7211 180.69 17.8232 180.467 17.9242C180.242 18.0263 179.971 18.1305 179.662 18.2326C179.358 18.3336 178.996 18.4155 178.587 18.4772C178.176 18.5388 177.674 18.5697 177.094 18.5697C176.324 18.5697 175.542 18.3953 174.771 18.0507C174.022 17.7083 173.386 17.217 172.884 16.5981C172.446 16.0164 172.216 15.3231 172.197 14.5351H181.156C181.943 14.5351 182.619 14.3054 183.168 13.8503L183.171 13.8535ZM180.946 11.4481C180.946 11.8118 180.875 12.0468 180.739 12.1159C180.631 12.1754 180.406 12.2478 179.954 12.2478H172.2C172.219 11.5789 172.419 10.9685 172.796 10.4325C173.217 9.83384 173.797 9.35743 174.524 9.01502C175.274 8.65134 176.108 8.46737 177.002 8.46737C177.77 8.46737 178.455 8.6088 179.038 8.8906C179.638 9.16921 180.112 9.54034 180.452 9.9976C180.785 10.4272 180.947 10.9015 180.947 11.4481H180.946Z" fill="#111111"/>
<path d="M165.508 5.81525C165.28 5.74613 165.007 5.7121 164.695 5.7121L161.911 5.75357V1.685C161.911 1.35748 161.877 1.09269 161.808 0.881074C161.728 0.61097 161.557 0.40467 161.298 0.269619C161.052 0.120743 160.719 0.0484314 160.279 0.0484314C159.839 0.0484314 159.509 0.122869 159.282 0.274936C159.048 0.409987 158.89 0.61416 158.812 0.881074C158.743 1.11502 158.709 1.39682 158.709 1.71797V5.76102L157.281 5.74613H157.279C156.797 5.74613 156.434 5.87905 156.204 6.14171C155.977 6.40012 155.867 6.78507 155.867 7.31783C155.867 7.8506 155.951 8.2515 156.125 8.50565C156.127 8.50991 156.13 8.5131 156.132 8.51629C156.343 8.78533 156.706 8.92144 157.218 8.92144L158.708 8.90655V16.0239C158.708 17.0097 158.806 17.8572 159 18.5431C159.2 19.2247 159.538 19.7905 160.007 20.2254C160.471 20.6561 161.063 20.9772 161.768 21.1803C162.478 21.3792 163.347 21.4791 164.351 21.4791C164.64 21.4791 164.9 21.444 165.128 21.376C165.418 21.3186 165.633 21.1633 165.765 20.9208C165.912 20.6688 165.984 20.3275 165.984 19.8745C165.984 19.4459 165.925 19.128 165.8 18.8993C165.667 18.6558 165.467 18.4899 165.202 18.4091C164.971 18.3389 164.675 18.3028 164.319 18.3028C163.846 18.3028 163.441 18.2815 163.114 18.24C162.822 18.2028 162.583 18.1103 162.406 17.9667C162.248 17.821 162.122 17.6052 162.029 17.3255C161.951 16.999 161.911 16.5609 161.911 16.0239V8.91187L164.73 8.95441C165.045 8.95441 165.321 8.91825 165.551 8.84807C165.815 8.76618 166.016 8.60136 166.153 8.34933C166.274 8.10156 166.333 7.76446 166.333 7.31783C166.333 6.87121 166.262 6.53836 166.116 6.30654C165.984 6.04282 165.775 5.8748 165.51 5.81738L165.508 5.81525Z" fill="#111111"/>
<path d="M152.77 5.77484C152.56 5.61852 152.24 5.54301 151.791 5.54301C151.252 5.54301 150.842 5.66956 150.57 5.91946C150.311 6.15553 150.192 6.54686 150.217 7.08069L150.25 7.77828C149.98 7.47415 149.683 7.19447 149.364 6.94245C148.882 6.52028 148.294 6.18318 147.622 5.94285C146.945 5.67807 146.119 5.54301 145.168 5.54301C144.149 5.54301 143.17 5.75463 142.257 6.17255C141.37 6.58834 140.571 7.1647 139.88 7.88569C139.188 8.60773 138.641 9.46164 138.251 10.4251C137.884 11.3651 137.697 12.3839 137.697 13.4536C137.697 14.5234 137.883 15.5836 138.251 16.5481C138.639 17.5084 139.174 18.3708 139.845 19.1152C140.537 19.8585 141.337 20.4466 142.226 20.8634C143.137 21.2803 144.126 21.4919 145.167 21.4919C146.207 21.4919 147.142 21.3239 147.889 20.99C148.624 20.639 149.23 20.2381 149.691 19.7926C149.903 19.5778 150.091 19.3736 150.253 19.1811L150.185 20.0435C150.185 20.0563 150.185 20.0691 150.185 20.0818C150.231 20.5359 150.37 20.8804 150.594 21.108C150.596 21.1101 150.599 21.1133 150.602 21.1154C150.856 21.3473 151.235 21.46 151.76 21.46C152.204 21.46 152.531 21.3866 152.759 21.2356C152.996 21.0995 153.155 20.8847 153.233 20.5965C153.301 20.3445 153.335 20.0552 153.335 19.7394V7.35718C153.335 6.99775 153.301 6.6883 153.233 6.43521C153.156 6.15234 153.001 5.92903 152.771 5.77165L152.77 5.77484ZM150.056 13.4866C150.056 14.4298 149.852 15.2806 149.447 16.0164C149.065 16.7289 148.526 17.3063 147.839 17.7349C147.18 18.1592 146.44 18.3751 145.641 18.3751C144.69 18.3751 143.839 18.1688 143.121 17.7647C142.416 17.3361 141.855 16.7587 141.453 16.0473C141.05 15.3125 140.845 14.4734 140.845 13.5515C140.845 12.6295 141.049 11.7586 141.453 11.0238C141.856 10.29 142.408 9.70091 143.092 9.27236C143.794 8.82573 144.63 8.60029 145.577 8.60029C146.377 8.60029 147.117 8.8151 147.783 9.24365C148.465 9.64987 149.014 10.2273 149.42 10.9664C149.842 11.6778 150.056 12.5264 150.056 13.4877V13.4866Z" fill="#111111"/>
<path d="M134.353 5.73443C134.126 5.58556 133.8 5.51324 133.356 5.51324C132.913 5.51324 132.555 5.5728 132.304 5.69828C132.065 5.8312 131.904 6.03325 131.824 6.29803C131.755 6.52773 131.72 6.80421 131.72 7.11898V19.8489C131.72 20.1637 131.755 20.4402 131.824 20.6699C131.904 20.9347 132.065 21.1367 132.298 21.2665C132.544 21.4143 132.88 21.4866 133.325 21.4866C133.769 21.4866 134.09 21.426 134.306 21.3058C134.57 21.1729 134.745 20.9698 134.825 20.7018C134.894 20.4721 134.93 20.1956 134.93 19.8808V7.18172C134.93 6.84568 134.894 6.55963 134.825 6.32887C134.747 6.06621 134.587 5.86629 134.352 5.73337L134.353 5.73443Z" fill="#111111"/>
<path d="M134.472 0.264302C134.207 0.118616 133.842 0.0484314 133.358 0.0484314C132.873 0.0484314 132.484 0.117552 132.218 0.261111C131.934 0.39191 131.74 0.61416 131.639 0.917229C131.546 1.17138 131.5 1.48402 131.5 1.84451C131.5 2.20501 131.534 2.51339 131.601 2.78243C131.602 2.78775 131.604 2.79307 131.605 2.79838C131.705 3.09826 131.894 3.33859 132.167 3.51193C132.171 3.51405 132.176 3.51724 132.179 3.51937C132.445 3.66505 132.82 3.73524 133.325 3.73524C133.829 3.73524 134.205 3.66505 134.47 3.51937C134.752 3.36624 134.936 3.14293 135.015 2.85581C135.105 2.58358 135.151 2.26456 135.151 1.90725C135.151 1.54995 135.105 1.23306 135.016 0.960829C134.936 0.652443 134.753 0.418495 134.47 0.264302H134.472Z" fill="#111111"/>
<path d="M127.962 5.68339C127.295 5.34948 126.783 5.31439 126.44 5.57811C126.14 5.80887 125.864 6.18638 125.614 6.70851L121.191 17.167L116.669 6.39055C116.432 5.84396 116.128 5.526 115.767 5.44519C115.421 5.34842 115.01 5.4186 114.544 5.65149C114.031 5.90883 113.709 6.18957 113.563 6.50646C113.405 6.82335 113.456 7.25616 113.719 7.83039L119.573 20.5891C119.573 20.5891 119.577 20.5976 119.579 20.6008C119.747 20.9134 119.96 21.1346 120.217 21.2633C120.476 21.3813 120.804 21.4408 121.191 21.4408C121.604 21.4408 121.947 21.3685 122.21 21.225C122.484 21.075 122.687 20.8485 122.807 20.5582L128.628 8.0218C128.831 7.59432 128.933 7.19129 128.933 6.82229C128.933 6.37672 128.606 5.99284 127.962 5.68232V5.68339Z" fill="#111111"/>
<path d="M110.38 5.77484C110.171 5.61852 109.851 5.54301 109.402 5.54301C108.863 5.54301 108.452 5.66956 108.18 5.91946C107.921 6.15553 107.802 6.54686 107.826 7.08069L107.859 7.77828C107.589 7.47415 107.293 7.19447 106.974 6.94245C106.491 6.52028 105.904 6.18318 105.232 5.94285C104.555 5.67807 103.729 5.54301 102.778 5.54301C101.758 5.54301 100.78 5.75463 99.8665 6.17255C98.9801 6.58834 98.1808 7.1647 97.49 7.88569C96.798 8.60773 96.2506 9.46164 95.8606 10.4251C95.4928 11.3651 95.3068 12.3839 95.3068 13.4536C95.3068 14.5234 95.4928 15.5836 95.8606 16.5481C96.2485 17.5073 96.7842 18.3708 97.4549 19.1152C98.1468 19.8585 98.9471 20.4466 99.8357 20.8634C100.747 21.2803 101.736 21.4919 102.777 21.4919C103.817 21.4919 104.751 21.3239 105.499 20.99C106.234 20.639 106.84 20.2381 107.301 19.7926C107.513 19.5778 107.701 19.3736 107.862 19.1811L107.794 20.0435C107.794 20.0563 107.794 20.0691 107.794 20.0829C107.841 20.537 107.979 20.8815 108.204 21.108C108.206 21.1112 108.209 21.1133 108.212 21.1154C108.466 21.3473 108.845 21.46 109.37 21.46C109.814 21.46 110.14 21.3866 110.369 21.2356C110.606 21.0995 110.765 20.8847 110.843 20.5965C110.911 20.3445 110.945 20.0563 110.945 19.7394V7.35718C110.945 6.99775 110.911 6.6883 110.843 6.43521C110.766 6.15234 110.611 5.92903 110.38 5.77165V5.77484ZM107.667 13.4866C107.667 14.4298 107.463 15.2806 107.058 16.0164C106.676 16.7279 106.136 17.3053 105.451 17.7349C104.792 18.1592 104.052 18.3751 103.252 18.3751C102.301 18.3751 101.45 18.1688 100.732 17.7647C100.027 17.3361 99.4658 16.7576 99.0641 16.0473C98.6612 15.3125 98.4561 14.4734 98.4561 13.5515C98.4561 12.6295 98.6602 11.7575 99.0641 11.0238C99.4669 10.29 100.017 9.70091 100.703 9.27236C101.404 8.82573 102.241 8.60029 103.188 8.60029C103.987 8.60029 104.727 8.8151 105.393 9.24365C106.076 9.64987 106.625 10.2273 107.031 10.9653C107.453 11.6767 107.667 12.5253 107.667 13.4877V13.4866Z" fill="#111111"/>
<path d="M90.8339 7.40184C90.2238 6.83717 89.4745 6.38629 88.6114 6.06514C87.7643 5.71848 86.7875 5.54301 85.7066 5.54301C84.1325 5.54301 82.7093 5.89287 81.4785 6.58089C80.2658 7.24977 79.2996 8.18025 78.6056 9.34573C77.9115 10.5123 77.5597 11.8575 77.5597 13.3441C77.5597 14.4607 77.7457 15.5188 78.1134 16.4865C78.4812 17.4563 79.018 18.3304 79.7152 19.0886C80.4305 19.8224 81.3074 20.4125 82.3235 20.8432C83.3396 21.2739 84.5098 21.4919 85.8022 21.4919C86.9597 21.4919 88.0034 21.3611 88.9058 21.1048C89.8348 20.8464 90.5724 20.5274 91.0975 20.1563C91.6703 19.7522 91.9488 19.3747 91.9488 19.0025C91.9488 18.8153 91.9244 18.6356 91.8776 18.4697C91.8298 18.3017 91.7362 18.1241 91.6002 17.9412C91.4716 17.6934 91.2888 17.5275 91.056 17.4457C90.8466 17.3446 90.6224 17.3202 90.3843 17.3733C90.1983 17.4201 89.9995 17.5009 89.7933 17.6147C89.7901 17.6169 89.7869 17.6179 89.7837 17.62C89.6243 17.72 89.4298 17.8221 89.2055 17.9231C88.9802 18.0252 88.7092 18.1294 88.401 18.2315C88.097 18.3325 87.7356 18.4144 87.3253 18.4761C86.914 18.5378 86.4123 18.5686 85.8331 18.5686C85.0625 18.5686 84.2802 18.3942 83.5096 18.0497C82.7614 17.7072 82.1247 17.216 81.623 16.5971C81.1851 16.0154 80.9545 15.322 80.9354 14.5341H89.8943C90.6819 14.5341 91.3579 14.3044 91.9063 13.8492C92.46 13.3664 92.7407 12.5466 92.7407 11.4119C92.7407 10.709 92.5738 9.9976 92.2443 9.29788C91.9169 8.60135 91.4418 7.96225 90.8317 7.39865L90.8339 7.40184ZM89.6838 11.4481C89.6838 11.8118 89.6126 12.0478 89.4766 12.1159C89.3682 12.1754 89.1439 12.2478 88.6911 12.2478H80.9385C80.9577 11.5789 81.1575 10.9685 81.5348 10.4325C81.9557 9.83383 82.536 9.35743 83.262 9.01502C84.0124 8.65133 84.8457 8.46737 85.7395 8.46737C86.508 8.46737 87.1925 8.6088 87.776 8.8906C88.3754 9.16921 88.8495 9.54034 89.1896 9.9976C89.5223 10.4272 89.6849 10.9015 89.6849 11.4481H89.6838Z" fill="#111111"/>
<path d="M75.0124 5.71848C74.4523 5.50687 73.991 5.48773 73.6371 5.66638C73.314 5.84184 73.0546 6.20127 72.8453 6.76487L69.4558 15.7889L66.3394 6.80953C66.2895 6.61493 66.1928 6.43096 66.0514 6.26294C65.9292 6.09386 65.7612 5.94818 65.5497 5.82908C65.3457 5.70253 65.0619 5.64086 64.6846 5.64086C64.3551 5.64086 64.0755 5.7036 63.8555 5.82695C63.6355 5.9503 63.4612 6.11407 63.3326 6.32143C63.2433 6.47881 63.1646 6.65002 63.0966 6.83293L59.9484 15.7283L56.5568 6.60855C56.3665 6.08217 56.1008 5.75996 55.7639 5.65255C55.4376 5.5292 55.0082 5.57067 54.4587 5.7791C54.1122 5.89501 53.8518 6.03431 53.6605 6.20339C53.6573 6.20658 53.653 6.20977 53.6499 6.21296C53.4681 6.39587 53.3629 6.62131 53.3363 6.88291C53.3363 6.89035 53.3363 6.89673 53.3363 6.90417C53.3363 7.14131 53.3916 7.42311 53.5053 7.76659C53.5064 7.76978 53.5074 7.77404 53.5096 7.77723L58.3934 20.2956C58.4391 20.4966 58.5072 20.689 58.5964 20.8687C58.6018 20.8783 58.6071 20.8879 58.6134 20.8975C58.7378 21.074 58.9025 21.2143 59.0928 21.3101C59.3128 21.4334 59.603 21.4962 59.9537 21.4962C60.279 21.4962 60.5341 21.4483 60.7339 21.3515C60.9454 21.2686 61.1059 21.1208 61.2122 20.9102C61.3238 20.7284 61.4247 20.5019 61.5108 20.2403L64.7164 11.0227L67.8955 20.2488C67.9826 20.4678 68.0815 20.6795 68.191 20.8773C68.1931 20.8804 68.1941 20.8836 68.1963 20.8868C68.3217 21.0899 68.4886 21.2441 68.6916 21.3462C68.8914 21.4472 69.1497 21.4962 69.4813 21.4962C69.8129 21.4962 70.0754 21.4345 70.2752 21.3122C70.4995 21.209 70.6653 21.0633 70.7652 20.8868C70.8768 20.706 70.9682 20.5221 71.0352 20.3434L75.9233 7.81338C76.1614 7.23702 76.189 6.79252 76.0094 6.45436C75.8362 6.13108 75.4992 5.88225 75.0135 5.71955L75.0124 5.71848Z" fill="#111111"/>
<path d="M44.126 17.8046V7.77669C44.126 6.79953 43.5907 5.89446 42.7206 5.40322L35.2461 1.17688C33.9916 0.466707 32.4188 1.34775 32.4188 2.75742V13.4421L27.11 10.4679C24.269 8.87666 20.7719 8.882 17.9336 10.4786L12.6551 13.4527V2.76009C12.6551 1.35042 11.0822 0.469377 9.82775 1.17955L2.35323 5.40322C1.48308 5.89446 0.947815 6.79953 0.947815 7.77669V17.8152C0.947815 19.2222 1.68621 20.5304 2.90497 21.286L9.70972 25.5043C11.4802 26.6016 13.764 26.5135 15.4384 25.2827L20.168 21.8093C21.4691 20.8535 23.5965 20.8535 24.8976 21.8093L29.6271 25.2801C31.3016 26.5082 33.5854 26.5963 35.3559 25.499L42.1688 21.2727C43.3876 20.5171 44.1233 19.2089 44.1233 17.8019H44.126V17.8046Z" fill="url(#paint0_linear_3560_4601)"/>
<path d="M43.1974 4.60445L35.7229 0.37812C34.839 -0.123807 33.7794 -0.126477 32.8901 0.37278C32.0007 0.869368 31.4709 1.76109 31.4709 2.75693V11.845L27.5841 9.66644C24.4603 7.91504 20.5817 7.92038 17.4607 9.67712L13.604 11.8504V2.7596C13.604 1.76376 13.0742 0.872038 12.1849 0.37545C11.2982 -0.121137 10.2387 -0.118468 9.35207 0.38079L1.87755 4.60445C0.719179 5.25856 0 6.47333 0 7.77354V17.8121C0 19.5421 0.894856 21.1307 2.39635 22.0598L9.2011 26.2808C10.1536 26.8735 11.2653 27.1858 12.41 27.1858C13.7056 27.1858 14.9847 26.772 16.0113 26.0191L20.7409 22.5457C21.7126 21.8302 23.3541 21.8302 24.3258 22.5457L29.0554 26.0165C31.0345 27.4688 33.7712 27.5756 35.8656 26.2781L42.6786 22.0518C44.1499 21.1387 45.0393 19.5929 45.0722 17.8975V7.77621C45.0749 6.47333 44.3558 5.25856 43.1974 4.60712V4.60445ZM12.3468 25.3437C11.5892 25.333 10.8645 25.1247 10.2442 24.743L3.41473 20.5059C2.46497 19.9159 1.89677 18.9094 1.89677 17.8121V7.77621C1.89677 7.12744 2.25361 6.52406 2.83005 6.20101L10.3046 1.97735C10.4446 1.89725 10.6065 1.85453 10.774 1.85453C10.9414 1.85453 11.0896 1.89725 11.2379 1.97735C11.3778 2.05477 11.7045 2.28972 11.7045 2.76494V23.5923C11.7045 24.2384 11.9296 24.8497 12.3441 25.3437H12.3468ZM15.1824 24.3184L15.1522 24.3371C14.982 24.4653 14.7871 24.5294 14.5785 24.5294C14.1091 24.5294 13.604 24.1689 13.604 23.5869V20.5139L19.4892 16.8563C21.3475 15.7003 23.7466 15.7003 25.605 16.8563L31.4847 20.5139L31.4902 23.5842C31.4902 24.1663 30.9851 24.5267 30.5157 24.5267C30.3126 24.5267 30.0765 24.4493 29.9036 24.3211L25.4732 21.0693C23.8262 19.8598 21.2487 19.8598 19.6017 21.0693L15.1824 24.3184ZM26.6261 15.3024C24.1474 13.762 20.944 13.762 18.4653 15.3024L13.6013 18.3247V13.9836L18.4077 11.2763L18.4269 11.263C20.9578 9.84532 24.1007 9.84532 26.6371 11.263L31.4709 13.9729L31.4792 18.322L26.6261 15.3024ZM41.4132 20.6501L34.8472 24.7243C34.2214 25.1141 33.4995 25.325 32.7473 25.341C33.1591 24.8471 33.3842 24.2357 33.3842 23.5896L33.365 13.4442V2.7596C33.365 2.28972 33.6916 2.0521 33.8316 1.97201C33.9771 1.88924 34.139 1.84919 34.2982 1.84919C34.4575 1.84919 34.6194 1.88924 34.7649 1.97201L42.2394 6.19834C42.8131 6.52406 43.1699 7.12744 43.1699 7.77354V17.8388C43.159 18.9201 42.5908 19.9132 41.652 20.4953L41.4077 20.6474H41.4159L41.4132 20.6501Z" fill="#111111"/>
<defs>
<linearGradient id="paint0_linear_3560_4601" x1="9.05781" y1="0.925797" x2="25.0524" y2="33.1249" gradientUnits="userSpaceOnUse">
<stop stop-color="#75FBAE"/>
<stop offset="1" stop-color="#B6F874"/>
</linearGradient>
</defs>
</svg>
