<?xml version="1.0" encoding="UTF-8"?>
<svg id="Layer_1" data-name="Layer 1" xmlns="http://www.w3.org/2000/svg" xmlns:xlink="http://www.w3.org/1999/xlink" viewBox="0 0 97.15 97.15">
  <defs>
    <style>
      .cls-1 {
        clip-path: url(#clippath);
      }

      .cls-2 {
        fill: none;
      }

      .cls-2, .cls-3, .cls-4, .cls-5, .cls-6, .cls-7, .cls-8, .cls-9, .cls-10, .cls-11 {
        stroke-width: 0px;
      }

      .cls-3 {
        fill: url(#linear-gradient);
      }

      .cls-4 {
        fill: #262262;
      }

      .cls-5 {
        fill: url(#linear-gradient-4);
      }

      .cls-6 {
        fill: url(#linear-gradient-2);
      }

      .cls-7 {
        fill: url(#linear-gradient-3);
      }

      .cls-8 {
        fill: url(#linear-gradient-8);
      }

      .cls-9 {
        fill: url(#linear-gradient-7);
      }

      .cls-10 {
        fill: url(#linear-gradient-5);
      }

      .cls-11 {
        fill: url(#linear-gradient-6);
      }
    </style>
    <clipPath id="clippath">
      <rect class="cls-2" x="23.84" y="33.22" width="49.48" height="29.86"/>
    </clipPath>
    <linearGradient id="linear-gradient" x1="48.59" y1="48.42" x2="48.59" y2="36.18" gradientTransform="translate(0 98.31) scale(1 -1)" gradientUnits="userSpaceOnUse">
      <stop offset="0" stop-color="#1e9634"/>
      <stop offset=".94" stop-color="#35537f"/>
    </linearGradient>
    <linearGradient id="linear-gradient-2" x1="47.27" y1="55.04" x2="49.21" y2="42.29" gradientTransform="translate(0 98.31) scale(1 -1)" gradientUnits="userSpaceOnUse">
      <stop offset="0" stop-color="#57e736"/>
      <stop offset="1" stop-color="#348522"/>
    </linearGradient>
    <linearGradient id="linear-gradient-3" x1="35.63" y1="42.6" x2="35.63" y2="35.22" gradientTransform="translate(0 98.31) scale(1 -1)" gradientUnits="userSpaceOnUse">
      <stop offset="0" stop-color="#8ab11b"/>
      <stop offset="1" stop-color="#6eaf02"/>
    </linearGradient>
    <linearGradient id="linear-gradient-4" x1="31.73" y1="51.51" x2="30.2" y2="36.52" gradientTransform="translate(0 98.31) scale(1 -1)" gradientUnits="userSpaceOnUse">
      <stop offset="0" stop-color="#75be2c"/>
      <stop offset=".86" stop-color="#9dc03b"/>
    </linearGradient>
    <linearGradient id="linear-gradient-5" x1="61.51" y1="42.6" x2="61.51" y2="35.23" xlink:href="#linear-gradient-3"/>
    <linearGradient id="linear-gradient-6" x1="66.93" y1="51.57" x2="65.38" y2="39.1" xlink:href="#linear-gradient-4"/>
    <linearGradient id="linear-gradient-7" x1="66.61" y1="65.09" x2="66.61" y2="42.87" gradientTransform="translate(0 98.31) scale(1 -1)" gradientUnits="userSpaceOnUse">
      <stop offset="0" stop-color="#ebee2e"/>
      <stop offset=".56" stop-color="#cacd2d"/>
      <stop offset="1" stop-color="#97cc01"/>
    </linearGradient>
    <linearGradient id="linear-gradient-8" x1="30.54" y1="65.09" x2="30.54" y2="42.87" gradientTransform="translate(0 98.31) scale(1 -1)" gradientUnits="userSpaceOnUse">
      <stop offset="0" stop-color="#ebee2e"/>
      <stop offset=".56" stop-color="#cacd2d"/>
    </linearGradient>
  </defs>
  <circle class="cls-4" cx="48.58" cy="48.58" r="48.58"/>
  <g class="cls-1">
    <g>
      <path class="cls-3" d="M59.92,55.71v4.22c0,1.3-1.06,2.19-2.2,2.19-.45,0-.95-.15-1.35-.46l-5.08-3.83c-1.49-1.13-3.93-1.13-5.42,0l-5.1,3.85c-.41.31-.86.45-1.31.45-1.14,0-2.2-.9-2.2-2.19v-4.22l7.25-4.63c2.5-1.59,5.69-1.59,8.18,0l7.24,4.63h0Z"/>
      <path class="cls-6" d="M59.9,47.97l.02,7.74-7.24-4.63c-2.49-1.59-5.69-1.59-8.18,0l-7.25,4.63v-7.73l6.05-3.5c3.25-1.88,7.26-1.89,10.52-.01l6.08,3.5Z"/>
      <path class="cls-7" d="M37.25,59.93c0,1.3,1.07,2.19,2.2,2.19.45,0,.91-.14,1.31-.45l-.32.25c-1.92,1.45-4.54,1.55-6.56.26l-3.38-2.16h0s6.75-4.32,6.75-4.32v4.22h0Z"/>
      <path class="cls-5" d="M37.25,47.98v7.73l-6.75,4.31h0s-4.41-2.81-4.41-2.81c-.7-.45-1.27-1.06-1.65-1.78l12.82-7.46Z"/>
      <path class="cls-10" d="M57.72,62.12c1.14,0,2.2-.9,2.2-2.19v-4.22s6.73,4.31,6.73,4.31l-3.38,2.16c-2.03,1.29-4.65,1.19-6.56-.26l-.34-.26c.41.31.91.46,1.35.46h0Z"/>
      <path class="cls-11" d="M72.72,55.44c-.38.7-.95,1.31-1.64,1.77l-4.43,2.82-6.74-4.31-.02-7.74,12.82,7.47h0Z"/>
      <path class="cls-9" d="M73.32,41.29v11.82c0,.83-.21,1.62-.59,2.33l-12.82-7.47v-12.59c0-1.66,1.8-2.7,3.24-1.86l8.57,4.98c.99.58,1.61,1.64,1.61,2.79h0Z"/>
      <path class="cls-8" d="M37.25,35.38v12.6l-12.82,7.46c-.38-.7-.59-1.49-.59-2.31v-11.83c0-1.15.61-2.22,1.61-2.79l8.57-4.98c1.44-.84,3.24.2,3.24,1.86Z"/>
    </g>
  </g>
</svg>