<svg width="167" height="23" viewBox="0 0 167 23" fill="none" xmlns="http://www.w3.org/2000/svg">
<g id="weaviate-logo-light">
<g id="weaviate">
<path id="Vector" d="M166.242 11.7422C166.744 11.3331 166.999 10.6383 166.999 9.67668C166.999 9.08098 166.848 8.47807 166.549 7.88507C166.251 7.29478 165.82 6.75315 165.267 6.27551C164.713 5.79697 164.033 5.41485 163.249 5.14269C162.481 4.84889 161.593 4.7002 160.613 4.7002C159.184 4.7002 157.893 4.99669 156.775 5.57978C155.675 6.14664 154.798 6.9352 154.168 7.92292C153.538 8.91155 153.219 10.0516 153.219 11.3115C153.219 12.2577 153.388 13.1535 153.721 13.9745C154.055 14.7964 154.543 15.5372 155.175 16.1798C155.823 16.8016 156.62 17.3018 157.542 17.6668C158.465 18.0318 159.527 18.2165 160.7 18.2165C161.75 18.2165 162.698 18.1057 163.517 17.8885C164.36 17.6695 165.029 17.3991 165.506 17.0846C166.026 16.7422 166.278 16.4222 166.278 16.1068C166.278 15.9473 166.256 15.7959 166.213 15.6553C166.169 15.5138 166.085 15.3624 165.961 15.2074C165.844 14.9974 165.678 14.8568 165.467 14.7874C165.277 14.7018 165.074 14.6811 164.857 14.7262C164.689 14.7658 164.508 14.8343 164.321 14.9307C164.318 14.9325 164.315 14.9334 164.312 14.9352C164.167 15.0199 163.99 15.1065 163.788 15.1921C163.583 15.2786 163.337 15.3669 163.057 15.4534C162.782 15.539 162.453 15.6084 162.081 15.6607C161.709 15.713 161.253 15.7391 160.727 15.7391C160.027 15.7391 159.317 15.5913 158.618 15.2993C157.938 15.0091 157.361 14.5928 156.906 14.0683C156.508 13.5753 156.299 12.9877 156.282 12.3199H164.413C165.128 12.3199 165.741 12.1253 166.239 11.7395L166.242 11.7422ZM164.223 9.70371C164.223 10.0119 164.158 10.2111 164.035 10.2697C163.936 10.3201 163.733 10.3814 163.322 10.3814H156.284C156.302 9.81456 156.483 9.29727 156.826 8.84306C157.208 8.33568 157.734 7.93193 158.394 7.64174C159.074 7.33353 159.832 7.17762 160.643 7.17762C161.34 7.17762 161.962 7.29748 162.491 7.5363C163.035 7.77242 163.465 8.08694 163.774 8.47446C164.076 8.83855 164.224 9.24049 164.224 9.70371H164.223Z" fill="#F7F9FD"/>
<path id="Vector_2" d="M150.211 4.92925C150.004 4.87067 149.757 4.84183 149.473 4.84183L146.947 4.87698V1.42895C146.947 1.15138 146.916 0.92698 146.853 0.747639C146.781 0.518732 146.626 0.343897 146.39 0.229444C146.168 0.103274 145.865 0.0419922 145.465 0.0419922C145.066 0.0419922 144.767 0.105077 144.56 0.23395C144.348 0.348403 144.204 0.521436 144.134 0.747639C144.071 0.945905 144.04 1.18473 144.04 1.45689V4.88329L142.745 4.87067H142.743C142.305 4.87067 141.976 4.98332 141.767 5.20592C141.561 5.42492 141.461 5.75115 141.461 6.20266C141.461 6.65417 141.537 6.99392 141.695 7.20931C141.697 7.21292 141.7 7.21562 141.702 7.21832C141.893 7.44633 142.223 7.56169 142.687 7.56169L144.04 7.54907V13.5809C144.04 14.4163 144.128 15.1345 144.305 15.7158C144.486 16.2935 144.793 16.7729 145.218 17.1415C145.64 17.5065 146.177 17.7787 146.817 17.9508C147.461 18.1194 148.25 18.2041 149.161 18.2041C149.423 18.2041 149.66 18.1743 149.866 18.1167C150.129 18.068 150.325 17.9364 150.445 17.7309C150.578 17.5173 150.644 17.2281 150.644 16.8441C150.644 16.481 150.59 16.2115 150.477 16.0177C150.356 15.8114 150.174 15.6708 149.934 15.6023C149.724 15.5428 149.455 15.5122 149.132 15.5122C148.703 15.5122 148.335 15.4941 148.039 15.459C147.774 15.4274 147.557 15.349 147.396 15.2274C147.253 15.1039 147.138 14.921 147.054 14.6839C146.983 14.4073 146.947 14.036 146.947 13.5809V7.55357L149.505 7.58962C149.791 7.58962 150.042 7.55898 150.25 7.4995C150.49 7.43011 150.673 7.29042 150.797 7.07683C150.907 6.86685 150.96 6.58117 150.96 6.20266C150.96 5.82415 150.895 5.54207 150.763 5.34561C150.644 5.12211 150.454 4.97972 150.213 4.93105L150.211 4.92925Z" fill="#F7F9FD"/>
<path id="Vector_3" d="M138.649 4.89519C138.459 4.76272 138.168 4.69873 137.76 4.69873C137.271 4.69873 136.899 4.80597 136.653 5.01776C136.417 5.21783 136.309 5.54947 136.332 6.00188L136.361 6.59307C136.116 6.33533 135.847 6.09831 135.558 5.88472C135.12 5.52694 134.587 5.24126 133.977 5.03759C133.362 4.81318 132.613 4.69873 131.749 4.69873C130.824 4.69873 129.936 4.87807 129.107 5.23225C128.303 5.58462 127.577 6.07308 126.95 6.6841C126.322 7.29602 125.825 8.01969 125.471 8.83618C125.139 9.63285 124.969 10.4962 124.969 11.4028C124.969 12.3094 125.138 13.208 125.471 14.0254C125.823 14.8391 126.31 15.57 126.918 16.2009C127.546 16.8308 128.273 17.3292 129.079 17.6825C129.906 18.0357 130.804 18.2151 131.748 18.2151C132.693 18.2151 133.541 18.0727 134.219 17.7897C134.887 17.4923 135.436 17.1525 135.855 16.7749C136.047 16.5929 136.218 16.4199 136.364 16.2567L136.303 16.9876C136.303 16.9984 136.303 17.0093 136.303 17.0201C136.345 17.4049 136.471 17.6969 136.674 17.8897C136.676 17.8915 136.679 17.8942 136.682 17.896C136.912 18.0925 137.256 18.188 137.732 18.188C138.136 18.188 138.433 18.1259 138.639 17.9979C138.854 17.8825 138.999 17.7005 139.069 17.4563C139.131 17.2427 139.162 16.9975 139.162 16.7299V6.23619C139.162 5.93159 139.131 5.66933 139.069 5.45485C139 5.21512 138.859 5.02587 138.65 4.89249L138.649 4.89519ZM136.186 11.4308C136.186 12.2301 136.001 12.9511 135.633 13.5747C135.287 14.1786 134.797 14.6679 134.174 15.0311C133.576 15.3907 132.904 15.5736 132.179 15.5736C131.315 15.5736 130.544 15.3988 129.891 15.0563C129.252 14.6931 128.743 14.2038 128.378 13.6009C128.012 12.9781 127.826 12.2671 127.826 11.4857C127.826 10.7044 128.011 9.9663 128.378 9.34357C128.743 8.72173 129.244 8.22246 129.865 7.85927C130.502 7.48077 131.261 7.28971 132.121 7.28971C132.847 7.28971 133.519 7.47175 134.123 7.83494C134.742 8.1792 135.241 8.66856 135.609 9.2949C135.992 9.89781 136.186 10.617 136.186 11.4317V11.4308Z" fill="#F7F9FD"/>
<path id="Vector_4" d="M121.933 4.86079C121.727 4.73462 121.431 4.67334 121.029 4.67334C120.626 4.67334 120.301 4.72381 120.074 4.83015C119.856 4.9428 119.71 5.11403 119.638 5.33843C119.575 5.53309 119.543 5.76741 119.543 6.03417V16.8225C119.543 17.0893 119.575 17.3236 119.638 17.5183C119.71 17.7427 119.856 17.9139 120.068 18.0239C120.292 18.1491 120.596 18.2104 121 18.2104C121.403 18.2104 121.694 18.159 121.89 18.0572C122.13 17.9446 122.288 17.7724 122.362 17.5453C122.424 17.3507 122.456 17.1163 122.456 16.8496V6.08734C122.456 5.80256 122.424 5.56013 122.362 5.36457C122.29 5.14197 122.146 4.97254 121.932 4.85989L121.933 4.86079Z" fill="#F7F9FD"/>
<path id="Vector_5" d="M122.042 0.224938C121.801 0.101472 121.47 0.0419922 121.03 0.0419922C120.59 0.0419922 120.237 0.100571 119.996 0.222234C119.738 0.333083 119.562 0.521436 119.47 0.77828C119.386 0.99367 119.344 1.25863 119.344 1.56414C119.344 1.86965 119.375 2.131 119.435 2.359C119.436 2.36351 119.438 2.36801 119.439 2.37252C119.53 2.62666 119.702 2.83033 119.95 2.97723C119.953 2.97903 119.957 2.98174 119.96 2.98354C120.201 3.10701 120.542 3.16649 121 3.16649C121.458 3.16649 121.799 3.10701 122.04 2.98354C122.296 2.85377 122.463 2.66451 122.534 2.42119C122.616 2.19048 122.657 1.92011 122.657 1.61731C122.657 1.3145 122.616 1.04594 122.535 0.81523C122.463 0.553879 122.297 0.355613 122.04 0.224938H122.042Z" fill="#F7F9FD"/>
<path id="Vector_6" d="M116.134 4.81769C115.528 4.53471 115.064 4.50497 114.753 4.72847C114.481 4.92403 114.23 5.24396 114.003 5.68645L109.988 14.5499L105.885 5.41699C105.669 4.95377 105.394 4.68431 105.066 4.61582C104.752 4.53381 104.379 4.59329 103.956 4.79065C103.49 5.00874 103.198 5.24666 103.066 5.51522C102.922 5.78378 102.968 6.15058 103.207 6.63723L108.52 17.4499C108.52 17.4499 108.524 17.4572 108.526 17.4599C108.678 17.7248 108.871 17.9123 109.105 18.0213C109.34 18.1213 109.637 18.1718 109.988 18.1718C110.364 18.1718 110.675 18.1105 110.913 17.9889C111.162 17.8618 111.347 17.6698 111.456 17.4238L116.739 6.79945C116.923 6.43716 117.016 6.0956 117.016 5.78288C117.016 5.40528 116.719 5.07994 116.134 4.81679V4.81769Z" fill="#F7F9FD"/>
<path id="Vector_7" d="M100.173 4.89519C99.9831 4.76272 99.6927 4.69873 99.2847 4.69873C98.7956 4.69873 98.4232 4.80597 98.1763 5.01776C97.9409 5.21783 97.8328 5.54947 97.855 6.00188L97.8849 6.59307C97.6399 6.33533 97.3708 6.09831 97.0814 5.88472C96.6434 5.52694 96.1099 5.24126 95.5003 5.03759C94.8858 4.81318 94.1362 4.69873 93.2728 4.69873C92.3477 4.69873 91.4593 4.87807 90.6306 5.23225C89.8261 5.58462 89.1007 6.07308 88.4736 6.6841C87.8456 7.29602 87.3488 8.01969 86.9948 8.83618C86.661 9.63285 86.4922 10.4962 86.4922 11.4028C86.4922 12.3094 86.661 13.208 86.9948 14.0254C87.3469 14.8382 87.8331 15.57 88.4418 16.2009C89.0698 16.8308 89.7962 17.3292 90.6026 17.6825C91.4294 18.0357 92.3275 18.2151 93.2719 18.2151C94.2163 18.2151 95.0642 18.0727 95.7424 17.7897C96.41 17.4923 96.9598 17.1525 97.3785 16.7749C97.5705 16.5929 97.7412 16.4199 97.8878 16.2567L97.8261 16.9876C97.8261 16.9984 97.8261 17.0093 97.8261 17.021C97.8685 17.4058 97.9939 17.6978 98.1975 17.8897C98.1994 17.8924 98.2023 17.8942 98.2052 17.896C98.4358 18.0925 98.7792 18.188 99.2557 18.188C99.659 18.188 99.9551 18.1259 100.163 17.9979C100.378 17.8825 100.522 17.7005 100.593 17.4563C100.654 17.2427 100.685 16.9984 100.685 16.7299V6.23619C100.685 5.93159 100.654 5.66933 100.593 5.45485C100.523 5.21512 100.382 5.02587 100.173 4.89249V4.89519ZM97.7103 11.4308C97.7103 12.2301 97.5251 12.9511 97.1576 13.5747C96.8113 14.1777 96.3212 14.667 95.699 15.0311C95.1009 15.3907 94.4295 15.5736 93.7031 15.5736C92.8397 15.5736 92.068 15.3988 91.4159 15.0563C90.7763 14.6931 90.2669 14.2029 89.9023 13.6009C89.5367 12.9781 89.3505 12.2671 89.3505 11.4857C89.3505 10.7044 89.5357 9.9654 89.9023 9.34357C90.2679 8.72173 90.7676 8.22246 91.3898 7.85927C92.0265 7.48077 92.7857 7.28971 93.6452 7.28971C94.3706 7.28971 95.0421 7.47175 95.6469 7.83494C96.2662 8.1792 96.765 8.66856 97.1335 9.294C97.5164 9.89691 97.7103 10.6161 97.7103 11.4317V11.4308Z" fill="#F7F9FD"/>
<path id="Vector_8" d="M82.4345 6.27405C81.8808 5.7955 81.2007 5.41339 80.4174 5.14122C79.6485 4.84743 78.762 4.69873 77.7809 4.69873C76.3522 4.69873 75.0605 4.99523 73.9435 5.57831C72.8428 6.14517 71.9659 6.93373 71.336 7.92146C70.706 8.91008 70.3867 10.0501 70.3867 11.31C70.3867 12.2563 70.5555 13.153 70.8893 13.9731C71.2231 14.795 71.7102 15.5358 72.3431 16.1783C72.9923 16.8002 73.7881 17.3003 74.7104 17.6653C75.6326 18.0303 76.6947 18.2151 77.8677 18.2151C78.9183 18.2151 79.8656 18.1042 80.6846 17.887C81.5277 17.668 82.1972 17.3977 82.6737 17.0832C83.1937 16.7407 83.4464 16.4208 83.4464 16.1053C83.4464 15.9467 83.4242 15.7944 83.3818 15.6538C83.3384 15.5114 83.2535 15.3609 83.13 15.2059C83.0133 14.996 82.8474 14.8554 82.6361 14.786C82.4461 14.7004 82.2425 14.6796 82.0264 14.7247C81.8576 14.7643 81.6772 14.8328 81.4901 14.9293C81.4872 14.9311 81.4843 14.932 81.4814 14.9338C81.3367 15.0185 81.1602 15.105 80.9566 15.1906C80.7521 15.2771 80.5061 15.3655 80.2264 15.452C79.9505 15.5376 79.6225 15.607 79.2501 15.6592C78.8768 15.7115 78.4215 15.7377 77.8957 15.7377C77.1963 15.7377 76.4863 15.5899 75.7869 15.2979C75.1078 15.0077 74.53 14.5913 74.0747 14.0668C73.6772 13.5738 73.4679 12.9863 73.4505 12.3185H81.5817C82.2965 12.3185 82.9101 12.1238 83.4078 11.7381C83.9104 11.3289 84.1651 10.6341 84.1651 9.67251C84.1651 9.07681 84.0136 8.4739 83.7146 7.8809C83.4175 7.29061 82.9863 6.74898 82.4326 6.27134L82.4345 6.27405ZM81.3907 9.70315C81.3907 10.0114 81.3261 10.2114 81.2026 10.2691C81.1042 10.3196 80.9007 10.3809 80.4897 10.3809H73.4534C73.4708 9.814 73.6521 9.2967 73.9946 8.84249C74.3766 8.33511 74.9033 7.93137 75.5622 7.64118C76.2432 7.33297 76.9995 7.17706 77.8108 7.17706C78.5083 7.17706 79.1295 7.29692 79.6591 7.53574C80.2032 7.77186 80.6334 8.08638 80.9421 8.4739C81.2441 8.83799 81.3917 9.23993 81.3917 9.70315H81.3907Z" fill="#F7F9FD"/>
<path id="Vector_9" d="M68.0758 4.84734C67.5674 4.668 67.1488 4.65177 66.8275 4.80318C66.5343 4.95188 66.2989 5.25649 66.1089 5.73413L63.0325 13.3818L60.2041 5.77198C60.1588 5.60706 60.071 5.45115 59.9427 5.30876C59.8317 5.16546 59.6793 5.042 59.4874 4.94106C59.3021 4.83382 59.0446 4.78155 58.7021 4.78155C58.4031 4.78155 58.1494 4.83472 57.9497 4.93926C57.75 5.0438 57.5918 5.18259 57.4751 5.35832C57.394 5.4917 57.3226 5.6368 57.2609 5.7918L54.4036 13.3304L51.3253 5.60165C51.1526 5.15555 50.9114 4.88248 50.6056 4.79146C50.3095 4.68692 49.9198 4.72207 49.421 4.89871C49.1066 4.99694 48.8702 5.115 48.6966 5.25829C48.6937 5.26099 48.6898 5.2637 48.6869 5.2664C48.522 5.42141 48.4265 5.61246 48.4023 5.83416C48.4023 5.84047 48.4023 5.84588 48.4023 5.85219C48.4023 6.05316 48.4525 6.29198 48.5557 6.58307C48.5567 6.58577 48.5577 6.58938 48.5596 6.59208L52.9922 17.2011C53.0337 17.3714 53.0955 17.5346 53.1765 17.6869C53.1813 17.695 53.1861 17.7031 53.1919 17.7112C53.3048 17.8608 53.4543 17.9798 53.627 18.0609C53.8267 18.1654 54.09 18.2186 54.4084 18.2186C54.7036 18.2186 54.9351 18.178 55.1164 18.096C55.3084 18.0257 55.4541 17.9005 55.5505 17.722C55.6518 17.5679 55.7435 17.376 55.8216 17.1543L58.7311 9.34257L61.6164 17.1615C61.6955 17.3471 61.7852 17.5265 61.8846 17.6941C61.8865 17.6968 61.8875 17.6995 61.8894 17.7022C62.0032 17.8743 62.1547 18.005 62.3389 18.0915C62.5203 18.1771 62.7547 18.2186 63.0557 18.2186C63.3567 18.2186 63.5949 18.1663 63.7763 18.0627C63.9798 17.9753 64.1303 17.8518 64.221 17.7022C64.3223 17.549 64.4053 17.3931 64.466 17.2417L68.9025 6.62272C69.1186 6.13426 69.1437 5.75756 68.9807 5.47097C68.8234 5.19701 68.5176 4.98612 68.0768 4.84824L68.0758 4.84734Z" fill="#F7F9FD"/>
</g>
<g id="w">
<mask id="mask0_9617_5531" style="mask-type:luminance" maskUnits="userSpaceOnUse" x="0" y="0" width="41" height="23">
<g id="clippath">
<path id="Vector_10" d="M39.3277 4.01313L32.3203 0.224447C31.1453 -0.410906 29.6742 0.381257 29.6742 1.64926V11.5373C27.0136 10.1621 24.6406 8.95086 23.6875 8.50656C22.6427 8.01991 21.5063 7.77658 20.369 7.77658C19.2326 7.77658 18.0953 8.01991 17.0505 8.50656C16.0965 8.95086 13.7224 10.163 11.0609 11.5382V1.64926C11.0609 0.380356 9.58978 -0.411807 8.41481 0.224447L1.40938 4.01313C0.537321 4.48447 0 5.35503 0 6.2959V15.2215C0 15.8703 0.162064 16.5057 0.490052 17.0545C0.811287 17.5899 1.27336 18.0522 1.84638 18.391L5.4581 20.5233L8.28748 22.1842C11.5239 23.9173 13.8449 22.0517 13.9655 21.9517L19.3841 18.473C19.6812 18.282 20.0256 18.1856 20.37 18.1838C20.7144 18.1856 21.0587 18.282 21.3559 18.473L26.7686 21.9481C26.7686 21.9481 26.7677 21.9481 26.7667 21.9481C26.7667 21.9481 29.1253 23.965 32.4496 22.1851L35.2789 20.5242L38.8907 18.3919C39.4637 18.054 39.9258 17.5917 40.247 17.0554C40.575 16.5066 40.737 15.8713 40.737 15.2224V6.2968C40.737 5.35594 40.1997 4.48537 39.3277 4.01403V4.01313Z" fill="white"/>
</g>
</mask>
<g mask="url(#mask0_9617_5531)">
<g id="Group">
<path id="Vector_11" d="M39.3277 4.01313L32.3203 0.224447C31.1453 -0.410906 29.6742 0.381257 29.6742 1.64926V11.5373C27.0136 10.1621 24.6406 8.95086 23.6875 8.50656C22.6427 8.01991 21.5063 7.77658 20.369 7.77658C19.2326 7.77658 18.0953 8.01991 17.0505 8.50656C16.0965 8.95086 13.7224 10.163 11.0609 11.5382V1.64926C11.0609 0.380356 9.58978 -0.411807 8.41481 0.224447L1.40938 4.01313C0.537321 4.48447 0 5.35503 0 6.2959V15.2215C0 15.8703 0.162064 16.5057 0.490052 17.0545C0.811287 17.5899 1.27336 18.0522 1.84638 18.391L5.4581 20.5233L8.28748 22.1842C11.5239 23.9173 13.8449 22.0517 13.9655 21.9517L19.3841 18.473C19.6812 18.282 20.0256 18.1856 20.37 18.1838C20.7144 18.1856 21.0587 18.282 21.3559 18.473L26.7686 21.9481C26.7686 21.9481 26.7677 21.9481 26.7667 21.9481C26.7667 21.9481 29.1253 23.965 32.4496 22.1851L35.2789 20.5242L38.8907 18.3919C39.4637 18.054 39.9258 17.5917 40.247 17.0554C40.575 16.5066 40.737 15.8713 40.737 15.2224V6.2968C40.737 5.35594 40.1997 4.48537 39.3277 4.01403V4.01313Z" fill="url(#paint0_linear_9617_5531)"/>
<g id="Group_2">
<path id="Vector_12" d="M20.3696 12.98C19.3441 12.9818 18.3197 13.226 17.3772 13.7127C16.2476 14.2966 13.5822 15.8062 11.0586 17.258V22.9032C12.0011 22.8825 12.9387 22.6112 13.75 22.0903L19.3837 18.4738C19.6808 18.2827 20.0252 18.1863 20.3696 18.1845H20.3686C20.713 18.1863 21.0574 18.2827 21.3545 18.4738L26.9882 22.0903C27.7995 22.6112 28.7371 22.8834 29.6806 22.9032V17.258C27.156 15.8062 24.4907 14.2966 23.361 13.7127C22.4185 13.2251 21.3941 12.9809 20.3686 12.98" fill="url(#paint1_linear_9617_5531)"/>
<path id="Vector_13" d="M20.3706 13.0138C19.3452 13.0156 18.3207 13.2589 17.3792 13.7438C16.2495 14.325 13.5851 15.8355 11.0625 17.2819V11.5394C13.724 10.1633 16.099 8.95203 17.0521 8.50684C18.0969 8.02018 19.2333 7.77686 20.3706 7.77686C21.507 7.77686 22.6443 8.02018 23.6891 8.50684C24.6431 8.95113 27.0172 10.1633 29.6787 11.5394V17.2819C27.1551 15.8355 24.4907 14.3259 23.362 13.7438C22.4196 13.2589 21.3951 13.0156 20.3706 13.0138Z" fill="url(#paint2_linear_9617_5531)"/>
<path id="Vector_14" d="M40.2476 17.0545C40.5756 16.5057 40.7377 15.8703 40.7377 15.2215V6.29589C40.7377 5.35503 40.2003 4.48446 39.3283 4.01312L32.3219 0.224439C31.1469 -0.410914 29.6758 0.381249 29.6758 1.64925V11.5391L40.2476 17.0545Z" fill="url(#paint3_linear_9617_5531)"/>
<path id="Vector_15" d="M29.6767 17.2801C32.5698 18.9383 35.2795 20.5227 35.2795 20.5227L38.8913 18.3904C39.4643 18.0524 39.9264 17.5901 40.2476 17.0539C40.2476 17.0539 34.4895 14.0258 29.6758 11.5376V17.2792L29.6767 17.2801Z" fill="url(#paint4_linear_9617_5531)"/>
<path id="Vector_16" d="M26.7666 21.9471C29.2516 22.9457 29.6751 21.839 29.6751 20.5079V17.2798C32.5681 18.938 35.2779 20.5232 35.2779 20.5232L32.4485 22.1842C29.1242 23.9641 26.7656 21.9471 26.7656 21.9471H26.7666Z" fill="url(#paint5_linear_9617_5531)"/>
<path id="Vector_17" d="M0.490052 17.0545C0.162065 16.5057 0 15.8712 0 15.2224V6.29679C0 5.35593 0.537321 4.48536 1.40938 4.01403L8.41578 0.224439C9.59075 -0.410914 11.0619 0.381249 11.0619 1.64925V11.5391L0.490052 17.0545Z" fill="url(#paint6_linear_9617_5531)"/>
<path id="Vector_18" d="M11.0591 17.2801C8.16609 18.9383 5.45633 20.5227 5.45633 20.5227L1.84461 18.3904C1.27159 18.0524 0.809516 17.5901 0.488281 17.0539C0.488281 17.0539 6.24639 14.0258 11.0601 11.5376V17.2792L11.0591 17.2801Z" fill="url(#paint7_linear_9617_5531)"/>
<path id="Vector_19" d="M13.9722 21.9471C11.4872 22.9457 11.0637 21.839 11.0637 20.5079V17.2798C8.17069 18.938 5.46094 20.5232 5.46094 20.5232L8.29031 22.1842C11.6146 23.9641 13.9732 21.9471 13.9732 21.9471H13.9722Z" fill="url(#paint8_linear_9617_5531)"/>
</g>
</g>
</g>
</g>
</g>
<defs>
<linearGradient id="paint0_linear_9617_5531" x1="20.368" y1="7.39717" x2="20.368" y2="33.9351" gradientUnits="userSpaceOnUse">
<stop stop-color="#8AB11B"/>
<stop offset="1" stop-color="#6EAF02"/>
</linearGradient>
<linearGradient id="paint1_linear_9617_5531" x1="20.3686" y1="12.98" x2="20.3686" y2="22.9041" gradientUnits="userSpaceOnUse">
<stop stop-color="#238D37"/>
<stop offset="0.94" stop-color="#35537F"/>
</linearGradient>
<linearGradient id="paint2_linear_9617_5531" x1="19.1358" y1="7.87328" x2="20.9234" y2="18.724" gradientUnits="userSpaceOnUse">
<stop stop-color="#67D84D"/>
<stop offset="1" stop-color="#348522"/>
</linearGradient>
<linearGradient id="paint3_linear_9617_5531" x1="35.2072" y1="3.77118e-05" x2="35.2072" y2="22.6312" gradientUnits="userSpaceOnUse">
<stop stop-color="#E4D00A"/>
<stop offset="0.56" stop-color="#C4D132"/>
</linearGradient>
<linearGradient id="paint4_linear_9617_5531" x1="34.9622" y1="5.17506" x2="34.9622" y2="25.3739" gradientUnits="userSpaceOnUse">
<stop offset="0.22" stop-color="#75BE2C"/>
<stop offset="0.66" stop-color="#9DC03B"/>
</linearGradient>
<linearGradient id="paint5_linear_9617_5531" x1="31.0217" y1="19.0993" x2="31.0217" y2="25.6286" gradientUnits="userSpaceOnUse">
<stop stop-color="#8AB11B"/>
<stop offset="1" stop-color="#6EAF02"/>
</linearGradient>
<linearGradient id="paint6_linear_9617_5531" x1="5.53045" y1="3.77118e-05" x2="5.53045" y2="22.6312" gradientUnits="userSpaceOnUse">
<stop offset="0.15" stop-color="#E4D00A"/>
<stop offset="0.52" stop-color="#C4D132"/>
</linearGradient>
<linearGradient id="paint7_linear_9617_5531" x1="5.77371" y1="5.17506" x2="5.77371" y2="25.3739" gradientUnits="userSpaceOnUse">
<stop offset="0.22" stop-color="#75BE2C"/>
<stop offset="0.66" stop-color="#9DC03B"/>
</linearGradient>
<linearGradient id="paint8_linear_9617_5531" x1="9.7161" y1="19.0993" x2="9.7161" y2="25.6286" gradientUnits="userSpaceOnUse">
<stop stop-color="#8AB11B"/>
<stop offset="1" stop-color="#6EAF02"/>
</linearGradient>
</defs>
</svg>
