<svg width="297" height="138" viewBox="0 0 297 138" fill="none" xmlns="http://www.w3.org/2000/svg">
<g clip-path="url(#clip0_3651_479)">
<path opacity="0.6" d="M2.64711 111.22C2.7243 111.128 2.78604 111.013 2.81691 110.867C2.82463 110.829 2.83235 110.783 2.84779 110.744C4.21393 107.536 6.25927 104.642 9.15364 102.585C13.0668 99.7987 17.8907 98.8086 22.6375 98.9237C28.8739 99.0619 34.6009 101.326 40.351 103.506C45.9236 105.625 51.8358 107.682 57.8947 106.845C64.517 105.924 70.0124 101.518 75.0833 97.4884C80.6328 93.0749 85.8735 88.2853 91.1374 83.5418C101.194 74.4769 111.552 65.4043 123.94 59.6015C130.184 56.6771 136.853 54.7659 143.745 54.1441C151.193 53.4764 158.688 54.0827 166.097 54.9347C167.386 55.0806 168.675 55.2341 169.957 55.3953C158.456 59.4326 146.902 63.5852 136.374 69.7717C125.453 76.1885 116.469 85.0539 107.253 93.6045C98.3463 101.871 88.8373 109.946 77.3602 114.436C71.8571 116.585 65.9912 117.829 60.0635 117.668C53.2869 117.476 46.7109 115.587 39.9959 114.889C34.1069 114.275 27.7084 114.551 22.46 117.575C19.2723 119.402 16.5864 122.334 15.2125 125.758C14.6645 123.048 13.746 120.438 12.0634 118.22C9.69392 115.104 5.8502 112.855 1.89844 113.331C2.12227 112.617 2.36925 111.911 2.64711 111.22Z" fill="#61BD73"/>
<path opacity="0.3" d="M170.644 52.3479C171.215 52.3479 171.663 52.3479 172.026 52.371H173.245C172.728 52.9159 172.242 53.4839 171.771 54.0596C171.74 54.0442 171.709 54.0442 171.671 54.0366C164.13 53.1001 156.55 52.1714 148.94 52.3019C141.824 52.4324 134.816 53.6144 128.155 56.132C115.404 60.937 104.599 69.4876 94.5108 78.4067C89.1157 83.1886 83.8441 88.1163 78.341 92.7754C75.5701 95.1242 72.7375 97.4192 69.8045 99.5607C67.0568 101.564 64.147 103.475 60.8899 104.542C54.7153 106.576 48.4094 104.811 42.5358 102.654C36.6467 100.489 30.8503 97.9334 24.5136 97.4422C19.6433 97.0661 14.5647 97.6955 10.2347 100.06C8.62933 100.935 7.20144 102.025 5.94336 103.283C6.59941 101.994 7.27862 100.72 7.97327 99.4455C9.35485 96.9126 9.54009 94.0573 10.1421 91.2787C10.7441 88.5231 11.624 85.8213 12.7046 83.2116C14.9506 77.808 18.092 72.7881 21.5266 68.0599C23.2401 65.7112 25.1156 63.4853 26.8291 61.1365C28.5425 58.7955 29.7466 56.1934 29.5382 53.2306C29.1523 47.6198 25.9415 42.147 21.8199 38.3169C25.7717 37.1502 29.9858 38.8695 33.3279 41.0034C36.9169 43.283 40.1972 45.9772 43.8633 48.157C50.9796 52.394 59.1687 55.4412 67.5894 54.7274C75.4543 54.0596 82.586 50.4444 89.409 46.7678C96.6874 42.8455 103.912 38.8619 112.155 37.3574C121.903 35.5844 132.176 36.8509 141.276 40.7117C141.392 40.7577 141.5 40.7808 141.608 40.7808C142.218 41.7479 142.843 42.6997 143.491 43.6438C144.834 45.6241 146.555 47.1515 148.716 48.0573C154.837 50.6286 161.127 52.5936 167.896 52.3479H170.636H170.644Z" fill="#61BD73"/>
<path d="M187.176 13.6623C188.164 14.5296 188.233 16.0571 187.338 17.1777C186.196 18.59 185.47 18.9585 183.548 19.0659C181.572 19.1811 180.793 18.0681 181.634 16.3257C182.02 15.5351 183.286 15.0285 182.445 13.8235C182.391 13.7467 182.63 13.4013 182.792 13.2401C183.571 12.4802 186.118 12.7335 187.176 13.6623Z" fill="#130C49"/>
<path d="M175.012 52.3693H173.244C173.383 52.2081 173.53 52.0469 173.684 51.8934C174.193 51.3638 174.919 51.809 175.012 52.3693Z" fill="#130C49"/>
<path d="M172.348 55.2571C172.541 54.8426 172.348 54.1902 171.77 54.0597C172.24 53.4841 172.727 52.9161 173.244 52.3711H175.011C175.042 52.5783 174.988 52.8086 174.795 53.0082C173.954 53.8909 173.159 54.8043 172.418 55.756C172.441 55.5872 172.418 55.4106 172.348 55.2571Z" fill="#130C49"/>
<path d="M171.671 55.6013C172.018 55.6473 172.25 55.4861 172.35 55.2559C172.419 55.4094 172.443 55.5859 172.419 55.7548C172.25 55.9543 172.087 56.1616 171.925 56.3688C171.918 56.3765 171.902 56.3765 171.887 56.3842C171.03 56.6835 170.181 56.9752 169.332 57.2822C169.749 56.6682 170.189 56.0695 170.644 55.4785C170.991 55.5168 171.331 55.5552 171.671 55.6013Z" fill="#130C49"/>
<path d="M172.418 55.7559C172.371 56.0092 172.225 56.2548 171.924 56.3699C172.086 56.1627 172.248 55.9554 172.418 55.7559Z" fill="#130C49"/>
<path d="M172.348 55.2556C172.248 55.4858 172.016 55.647 171.669 55.601C171.33 55.5549 170.99 55.5165 170.643 55.4782C170.751 55.3323 170.866 55.1788 170.982 55.033C171.144 54.9792 171.299 54.9178 171.461 54.8641C171.893 54.7106 172.217 54.9332 172.348 55.2556Z" fill="#130C49"/>
<path d="M172.349 55.256C172.217 54.9336 171.893 54.711 171.461 54.8645C171.299 54.9183 171.145 54.9797 170.982 55.0334C171.237 54.7033 171.5 54.381 171.77 54.0586C172.349 54.1891 172.542 54.8415 172.349 55.256Z" fill="#130C49"/>
<path d="M170.984 55.0332C170.868 55.179 170.752 55.3326 170.644 55.4784C170.42 55.4477 170.189 55.417 169.957 55.394C170.297 55.2711 170.644 55.156 170.984 55.0332Z" fill="#130C49"/>
<path d="M179.636 73.3025C182.546 72.627 185.332 71.514 188.041 70.2629C193.475 67.7683 198.708 64.7518 204.504 63.1323C205.484 62.8559 205.901 64.3757 204.921 64.6444C201.332 65.6499 197.944 67.208 194.601 68.8352C188.944 71.5985 183.225 74.638 176.873 75.3595C175.398 75.5284 173.754 75.6972 172.303 75.3058C170.868 74.922 170.073 73.8704 169.733 72.4735C168.954 69.219 168.352 65.9108 167.711 62.618C167.757 62.5412 167.811 62.4568 167.858 62.38C168.205 61.812 168.56 61.2517 168.93 60.6914C169.347 62.7178 169.756 64.7365 170.173 66.7628C170.559 68.651 170.783 70.6697 171.377 72.5042C171.902 74.1314 173.793 73.9779 175.205 73.9242C176.695 73.8628 178.177 73.6402 179.636 73.3025Z" fill="#130C49"/>
<path d="M167.409 60.3383C167.702 59.755 168.713 59.6399 168.875 60.4305C168.89 60.5149 168.914 60.607 168.929 60.6914C168.559 61.2517 168.204 61.8121 167.856 62.3801C167.81 62.4568 167.756 62.5413 167.71 62.618C167.594 62.027 167.478 61.4436 167.355 60.8526C167.316 60.653 167.339 60.4842 167.409 60.3383Z" fill="#130C49"/>
<path d="M171.924 56.3691C170.859 57.7584 169.871 59.2091 168.93 60.6905C168.914 60.6061 168.891 60.514 168.876 60.4295C168.714 59.639 167.703 59.7541 167.409 60.3374L167.332 60.2914C167.973 59.2705 168.636 58.265 169.331 57.2825C170.18 56.9755 171.029 56.6838 171.886 56.3845C171.901 56.3768 171.917 56.3768 171.924 56.3691Z" fill="#130C49"/>
<path d="M169.479 40.2659C175.877 39.6979 182.137 38.4851 188.034 35.7756C190.974 34.4247 193.05 30.633 192.41 27.4399C192.286 26.8028 192.032 26.35 191.368 26.2579C190.303 26.1197 189.284 25.6361 188.172 25.828C187.763 25.8664 187.339 25.8664 186.945 25.9585C186.552 26.0583 186.119 26.3193 185.903 25.782C185.641 25.1449 185.926 24.6844 186.498 24.3466C187.624 23.6712 188.929 24.0396 190.04 24.078C193.467 24.1854 194.625 26.1504 194.092 29.5814C193.429 33.849 191.136 36.3052 187.076 37.9171C181.558 40.1047 175.924 41.3328 170.073 41.8317C164.809 42.2769 160.796 38.7845 160.888 33.8337C160.896 33.6341 161.058 33.3041 161.212 33.2657C161.39 33.2273 161.737 33.3732 161.822 33.542C162.231 34.348 162.764 35.1539 162.91 36.0136C163.497 39.4292 166.638 40.5192 169.479 40.2659Z" fill="#130C49"/>
<path d="M163.342 12.1425C161.181 12.0043 158.719 13.6699 158.51 15.4967C158.387 16.579 158.904 15.7884 159.267 15.7347C160.756 15.5274 162.362 16.7095 162.354 17.9453C162.215 18.4211 161.76 18.9738 162.609 19.3192C164.037 19.9102 167.726 17.5001 167.741 15.9573C167.757 14.0767 165.704 12.296 163.342 12.1425ZM169.092 14.7138C169.355 15.3662 169.501 15.9649 169.223 16.602C168.205 18.9968 166.298 20.5319 163.836 20.8236C161.42 21.0999 159.12 20.2096 157.445 18.2523C156.812 17.5001 156.928 16.5483 156.967 15.6426C156.99 14.8673 157.901 14.0384 156.612 13.3245C156.095 13.0405 156.774 12.4725 157.106 12.1962C158.557 10.9911 160.293 10.5229 162.146 10.3848C166.445 10.7992 167.718 11.2598 169.092 14.7138Z" fill="#130C49"/>
<path d="M179.134 83.5336C179.751 84.0632 179.875 84.8845 179.844 85.6521C179.805 86.8341 179.62 88.0315 179.473 89.2059C179.18 91.5853 178.817 93.9648 178.339 96.3135C177.891 98.5241 177.204 100.62 175.83 102.439C174.503 104.189 172.82 105.632 171.207 107.105C169.362 108.802 167.518 110.49 165.673 112.179C164.924 112.862 163.805 111.757 164.554 111.074C166.491 109.293 168.429 107.52 170.366 105.747C172.018 104.235 173.8 102.746 175.02 100.85C176.193 99.046 176.633 96.9352 177.019 94.8474C177.436 92.6138 177.775 90.3649 178.03 88.1083C178.1 87.4942 178.161 86.8802 178.215 86.2661C178.246 85.9284 178.362 85.4755 178.269 85.1455C177.984 84.1707 176.039 84.9382 175.298 85.0841C173.044 85.5292 170.79 85.9821 168.537 86.4273C159.915 88.1466 151.302 89.8583 142.68 91.57C142.649 91.2399 142.611 90.9022 142.572 90.5721C142.974 90.3112 143.367 90.0348 143.761 89.7585C148.492 88.8144 153.231 87.878 157.963 86.9339C162.979 85.9361 167.989 84.9382 173.005 83.9481C174.302 83.6871 175.599 83.3954 176.896 83.1728C177.667 83.0423 178.501 82.9886 179.134 83.5336Z" fill="#130C49"/>
<path d="M149.379 83.3486C154.342 78.9504 158.695 73.8999 162.299 68.3504C164.02 65.7023 165.618 62.9545 167.331 60.291L167.409 60.3371C167.339 60.4829 167.316 60.6518 167.355 60.8513C167.478 61.4424 167.594 62.0257 167.71 62.6167C164.198 68.266 160.74 73.8308 156.24 78.7816C152.512 82.8957 148.314 86.5723 143.76 89.7577C143.335 89.8422 142.918 89.9266 142.494 90.011C142.378 89.5428 141.915 89.3356 141.521 89.3893C144.277 87.5548 146.901 85.5361 149.379 83.3486Z" fill="#130C49"/>
<path d="M142.494 90.0111C142.919 89.9267 143.335 89.8422 143.76 89.7578C143.366 90.0341 142.973 90.3105 142.571 90.5714L142.525 90.1339C142.517 90.0879 142.51 90.0495 142.494 90.0111Z" fill="#130C49"/>
<path d="M142.526 90.1345L142.572 90.572C142.086 90.9021 141.592 91.2245 141.098 91.5392C141.06 91.1324 141.021 90.7256 140.975 90.3187C140.998 90.3111 141.021 90.3034 141.052 90.2957C141.53 90.2036 142.017 90.1038 142.495 90.0117C142.511 90.0501 142.518 90.0885 142.526 90.1345Z" fill="#130C49"/>
<path d="M142.077 39.3522C142.888 39.7053 142.371 40.7799 141.614 40.7799C141.159 40.0661 140.704 39.3446 140.264 38.623C140.873 38.8533 141.483 39.0989 142.085 39.3522H142.077Z" fill="#130C49"/>
<path d="M141.468 91.808C141.345 91.8311 141.237 91.8311 141.129 91.8004C141.121 91.7159 141.113 91.6238 141.098 91.5394C141.592 91.2247 142.086 90.9023 142.572 90.5723C142.61 90.9023 142.649 91.24 142.68 91.5701C142.279 91.6469 141.869 91.7313 141.468 91.808Z" fill="#130C49"/>
<path d="M141.523 89.3906C141.361 89.5058 141.191 89.6132 141.021 89.7207C141.122 89.5288 141.307 89.4213 141.523 89.3906Z" fill="#130C49"/>
<path d="M141.098 91.5391C141.114 91.6235 141.122 91.7156 141.129 91.8C141.021 91.7847 140.929 91.7386 140.844 91.6772C140.913 91.6542 140.975 91.6235 141.044 91.5774C141.06 91.5621 141.083 91.5544 141.098 91.5391Z" fill="#130C49"/>
<path d="M140.835 91.6769C140.372 91.3315 140.318 90.5102 140.974 90.3184C141.02 90.7252 141.059 91.132 141.098 91.5388C141.082 91.5541 141.059 91.5618 141.044 91.5772C140.974 91.6232 140.912 91.6539 140.843 91.6769H140.835Z" fill="#130C49"/>
<path d="M141.051 90.2949C141.051 90.2949 140.997 90.3102 140.974 90.3179L140.951 90.1337C140.928 89.9648 140.959 89.8267 141.021 89.7192C141.19 89.6117 141.36 89.5043 141.522 89.3892C141.916 89.3354 142.379 89.5427 142.495 90.0109C142.016 90.103 141.53 90.2028 141.051 90.2949Z" fill="#130C49"/>
<path d="M140.974 90.3194C140.318 90.5113 140.372 91.3326 140.836 91.678C140.071 91.9159 139.469 90.7262 140.249 90.2273C140.511 90.0584 140.766 89.8972 141.021 89.7207C140.959 89.8282 140.928 89.9663 140.951 90.1352L140.974 90.3194Z" fill="#130C49"/>
<path d="M181.456 2.87015C182.367 3.72982 183.857 3.72982 185.107 4.0522C188.681 4.97327 192.285 5.61035 195.604 7.55228C199.648 9.92405 202.79 13.0403 205.321 16.8551C206.494 18.6282 208.231 20.0559 208.748 22.2434C209.682 26.2194 209.628 30.2491 209.211 34.2634C208.887 37.3797 206.988 39.7438 204.642 41.6397C199.185 46.0455 192.787 48.3329 185.948 49.6531C182.552 50.3055 179.21 51.2726 175.83 52.0095C175.482 52.0862 175.22 52.2091 175.035 52.3702H175.012C174.919 51.8099 174.193 51.3647 173.684 51.8944C173.53 52.0479 173.383 52.2091 173.244 52.3702H172.025C171.662 52.3472 171.214 52.3472 170.643 52.3472H167.903C161.134 52.5928 154.844 50.6279 148.723 48.0565C146.562 47.1508 144.841 45.6234 143.498 43.6431C142.849 42.699 142.224 41.7472 141.614 40.78C142.371 40.78 142.888 39.7055 142.078 39.3524C141.476 39.0991 140.866 38.8535 140.256 38.6232C138.72 36.1133 137.261 33.5496 135.841 30.9629C134.313 28.169 134.166 25.3981 135.502 22.4814C137.447 18.2214 139.029 13.7695 142.139 10.1313C145.366 6.35488 149.348 3.49188 153.979 1.84162C156.634 0.897518 159.66 0.997301 162.508 0.552115C166.606 -0.0926372 170.72 -0.115664 174.834 0.191361C177.273 0.3679 179.558 1.07406 181.456 2.87015ZM184.397 5.58732C181.889 5.14981 179.411 4.58949 176.81 5.13446C175.59 5.38776 174.464 5.9097 173.244 6.13997C172.519 6.27045 171.793 6.08624 171.608 5.37241C171.399 4.56646 172.225 4.58182 172.742 4.44366C174.734 3.92171 176.686 3.23858 178.793 3.35372C179.087 3.36907 179.511 3.39209 179.504 2.92388C179.504 2.83945 179.125 2.74734 178.917 2.67826C176.949 2.04119 174.965 1.68043 172.858 1.63438C167.949 1.51924 163.141 2.17935 158.301 2.78572C151.556 3.62236 146.716 7.30666 142.626 12.3726C139.986 15.6424 138.82 19.6337 137.022 23.318C135.872 25.6744 136.019 27.8927 137.315 30.1109C139.052 33.0967 140.688 36.1363 142.518 39.0607C144.254 41.8393 145.806 44.8635 149.001 46.3218C155.067 49.0851 161.466 50.5511 167.849 50.9579C171.006 50.72 173.869 50.5281 176.725 50.0368C179.666 49.5226 182.475 48.5555 185.408 48.0258C191.799 46.8668 197.873 44.7944 203.052 40.6956C205.584 38.7 207.405 36.3359 207.714 32.9049C207.876 31.0704 207.598 29.305 207.652 27.5166C207.745 24.0702 206.819 21.1228 204.495 18.4824C202.442 16.149 200.914 13.3781 198.383 11.4054C194.238 8.18936 189.499 6.47002 184.397 5.58732Z" fill="#130C49"/>
<path d="M124.164 136.833C126.047 133.771 128.239 130.908 130.732 128.314C131.875 127.124 133.079 125.995 134.337 124.929C135.518 123.915 136.791 122.918 137.656 121.605C138.582 120.2 138.975 118.535 139.361 116.923C139.786 115.196 140.141 113.454 140.442 111.703C141.553 105.133 141.762 98.4323 141.129 91.8006C141.237 91.8313 141.345 91.8313 141.468 91.8083C141.87 91.7315 142.279 91.6471 142.68 91.5703C143.043 95.2316 143.151 98.9236 142.989 102.6C142.819 106.215 142.402 109.823 141.739 113.384C141.137 116.601 140.619 120.385 138.559 123.04C137.602 124.268 136.382 125.228 135.209 126.241C133.958 127.323 132.754 128.467 131.62 129.664C129.312 132.098 127.282 134.769 125.53 137.624C124.998 138.491 123.631 137.701 124.164 136.833Z" fill="#130C49"/>
<path d="M20.7148 37.0502C25.0062 35.5228 29.5986 36.912 33.4037 39.1994C35.534 40.4812 37.4867 42.0087 39.5089 43.444C41.5002 44.8486 43.5456 46.1765 45.6681 47.3893C53.1626 51.6723 61.7144 54.3587 70.3975 52.7776C78.4168 51.3192 85.5254 47.0439 92.6108 43.2521C96.192 41.3332 99.8274 39.491 103.64 38.0711C107.708 36.559 111.961 35.6225 116.275 35.2234C124.41 34.4712 132.653 35.707 140.256 38.6237C140.696 39.3452 141.151 40.0667 141.607 40.7806C141.498 40.7806 141.39 40.7575 141.275 40.7115C132.175 36.8506 121.902 35.5842 112.153 37.3572C103.91 38.8616 96.686 42.8453 89.4077 46.7675C82.5847 50.4442 75.453 54.0594 67.5881 54.7272C59.1674 55.441 50.9783 52.3938 43.862 48.1568C40.1958 45.977 36.9155 43.2828 33.3265 41.0031C29.9845 38.8693 25.7703 37.15 21.8186 38.3167C21.5098 38.0327 21.1934 37.7564 20.8692 37.4877L20.7148 37.0502Z" fill="#130C49"/>
<path d="M20.8691 37.4863C21.1933 37.755 21.5097 38.0313 21.8185 38.3153C21.448 38.4228 21.0775 38.5609 20.707 38.7221C20.7611 38.3076 20.8151 37.9008 20.8691 37.4863Z" fill="#130C49"/>
<path d="M22.4604 117.575C27.7088 114.551 34.1073 114.274 39.9963 114.888C46.7113 115.587 53.2872 117.475 60.0639 117.667C65.9916 117.828 71.8575 116.585 77.3606 114.435C88.8377 109.945 98.3466 101.87 107.254 93.6038C116.469 85.0531 125.453 76.1878 136.375 69.771C146.902 63.5844 158.457 59.4319 169.957 55.3945C170.189 55.4176 170.42 55.4483 170.644 55.479C170.189 56.07 169.749 56.6687 169.332 57.2827C168.707 57.4977 168.081 57.7126 167.456 57.9352C155.67 62.1107 143.854 66.6163 133.349 73.4937C122.968 80.3019 114.37 89.3285 105.216 97.6105C96.5406 105.455 87.0239 112.785 75.8324 116.669C70.3678 118.565 64.5637 119.517 58.7749 119.179C52.2144 118.795 45.8545 116.991 39.3248 116.393C33.4744 115.855 27.0296 116.224 22.059 119.686C18.6707 122.042 16.0542 125.926 15.8381 130.063C15.6914 128.628 15.5062 127.177 15.2129 125.757C16.5867 122.334 19.2727 119.402 22.4604 117.575Z" fill="#130C49"/>
<path d="M15.8381 130.062C15.7918 130.998 15.8613 131.942 16.0774 132.894C15.568 132.963 15.0508 133.032 14.5337 133.101C14.4488 132.073 14.3639 131.029 14.2559 129.977C14.2559 129.839 14.2559 129.701 14.279 129.563C14.4025 128.25 14.719 126.969 15.2129 125.756C15.5062 127.176 15.6915 128.627 15.8381 130.062Z" fill="#130C49"/>
<path d="M16.107 133.102C16.1765 133.993 14.7486 134.162 14.5557 133.31C14.3087 132.22 14.1929 131.099 14.2546 129.979C14.3627 131.03 14.4476 132.074 14.5325 133.102C15.0496 133.033 15.5668 132.964 16.0762 132.895C15.86 131.943 15.7906 130.999 15.8369 130.063C15.9449 131.084 16.0299 132.105 16.107 133.102Z" fill="#130C49"/>
<path d="M171.67 54.0361C171.709 54.0437 171.739 54.0437 171.77 54.0591C171.5 54.3815 171.238 54.7038 170.983 55.0339C170.643 55.1567 170.296 55.2718 169.956 55.3947C168.675 55.2335 167.386 55.08 166.097 54.9341C158.688 54.0821 151.193 53.4757 143.745 54.1435C136.853 54.7653 130.184 56.6765 123.94 59.6009C111.552 65.4037 101.194 74.4762 91.1372 83.5412C85.8734 88.2847 80.6326 93.0743 75.0832 97.4878C70.0123 101.517 64.5168 105.923 57.8945 106.844C51.8357 107.681 45.9235 105.624 40.3509 103.505C34.6007 101.326 28.8738 99.0613 22.6374 98.9231C17.8906 98.808 13.0667 99.7981 9.1535 102.584C6.25914 104.641 4.21379 107.535 2.84766 110.744C3.29532 108.763 4.20608 106.875 5.07053 105.056C5.3561 104.465 5.6494 103.874 5.94269 103.283C7.20078 102.024 8.62866 100.934 10.2341 100.059C14.564 97.695 19.6427 97.0656 24.5129 97.4417C30.8496 97.9329 36.6461 100.489 42.5351 102.653C48.4088 104.81 54.7146 106.576 60.8892 104.542C64.1464 103.475 67.0562 101.564 69.8039 99.5602C72.7368 97.4187 75.5694 95.1237 78.3403 92.7749C83.8435 88.1158 89.115 83.1881 94.5101 78.4062C104.598 69.4871 115.404 60.9364 128.154 56.1315C134.815 53.6139 141.823 52.4319 148.94 52.3014C156.55 52.1709 164.129 53.0996 171.67 54.0361Z" fill="#130C49"/>
<path d="M2.84716 110.744C2.84716 110.744 2.82401 110.829 2.81629 110.867C2.78541 111.013 2.72367 111.128 2.64648 111.22C2.70823 111.059 2.7777 110.898 2.84716 110.744Z" fill="#130C49"/>
<path d="M5.07091 105.056C4.20646 106.875 3.2957 108.764 2.84804 110.744C2.77857 110.897 2.70911 111.059 2.64736 111.22C2.18426 111.711 1.11142 111.289 1.29666 110.445C1.31982 110.352 1.33525 110.26 1.36613 110.168C2.46212 107.597 3.99035 105.24 5.94307 103.283C5.64978 103.874 5.35648 104.465 5.07091 105.056Z" fill="#130C49"/>
<path d="M21.8187 38.3153C25.9403 42.1454 29.1511 47.6182 29.537 53.229C29.7454 56.1918 28.5414 58.7939 26.8279 61.1349C25.1144 63.4837 23.2389 65.7096 21.5254 68.0583C18.0908 72.7865 14.9494 77.8064 12.7034 83.21C11.6228 85.8197 10.743 88.5215 10.1409 91.2771C9.53891 94.0557 9.35367 96.911 7.9721 99.444C7.27745 100.718 6.59824 101.992 5.94218 103.282C3.98945 105.239 2.46123 107.595 1.36523 110.167C2.39177 105.769 5.13176 101.969 6.98415 97.9165C8.16505 95.3452 8.23452 92.3133 8.91373 89.5885C9.5775 86.9404 10.496 84.3614 11.5843 81.8514C13.8303 76.6627 16.8404 71.8347 20.167 67.2678C21.811 65.0034 23.6016 62.8543 25.2688 60.6053C27.1135 58.1414 28.3175 55.5778 27.8699 52.4384C27.1057 47.0578 23.8795 42.0533 19.7502 38.5993C19.3875 38.2923 19.4646 37.5631 19.9123 37.3635C20.1824 37.2484 20.4449 37.1409 20.715 37.0488L20.8694 37.4863C20.8153 37.9008 20.7613 38.3076 20.7073 38.7221C21.0778 38.5609 21.4482 38.4228 21.8187 38.3153Z" fill="#130C49"/>
<path d="M11.1904 119.7C9.02923 116.453 4.97713 113.997 1.0022 115.11C0.662599 115.202 0.392459 115.087 0.222656 114.88C0.608571 115.24 1.37268 115.233 1.5502 114.557C1.65826 114.143 1.77403 113.736 1.89753 113.329C5.84929 112.853 9.693 115.102 12.0625 118.219C13.7451 120.437 14.6636 123.047 15.2116 125.756C14.7176 126.969 14.4012 128.251 14.2777 129.563C14.2622 129.701 14.2545 129.84 14.2545 129.978C13.884 126.378 13.2048 122.74 11.1904 119.7Z" fill="#130C49"/>
<path d="M1.89908 113.33C1.77559 113.737 1.65982 114.144 1.55176 114.558C1.37424 115.234 0.610128 115.241 0.224214 114.881C0.216495 114.873 0.208777 114.865 0.208777 114.858C-0.0999548 114.458 -0.0459268 113.768 0.579255 113.591C1.0192 113.468 1.45914 113.384 1.89908 113.33Z" fill="#130C49"/>
<path d="M1.29646 110.444C1.11122 111.289 2.18406 111.711 2.64716 111.22C2.3693 111.91 2.12232 112.616 1.89849 113.33C1.45854 113.384 1.0186 113.468 0.578659 113.591C-0.0465225 113.768 -0.100551 114.459 0.208181 114.858C0.0383787 114.689 -0.0465225 114.443 0.0306604 114.144C0.362547 112.862 0.763898 111.603 1.27331 110.383C1.30418 110.314 1.33505 110.237 1.36593 110.168C1.33505 110.26 1.31962 110.352 1.29646 110.444Z" fill="#130C49"/>
<path d="M201.294 108.933C202.467 109.355 203.061 109.908 203.061 110.614C203.061 110.844 202.953 111.266 202.745 111.896L197.682 126.441C197.643 126.564 197.581 126.71 197.496 126.886C197.412 127.063 197.172 127.293 196.802 127.577C196.424 127.869 195.976 128.007 195.459 128.007C194.942 128.007 194.494 127.861 194.116 127.577C193.738 127.285 193.491 127.001 193.367 126.725L190.288 117.683C188.335 123.417 187.347 126.334 187.308 126.433C187.27 126.541 187.193 126.687 187.069 126.879C186.946 127.07 186.807 127.247 186.645 127.401C186.243 127.8 185.757 128.007 185.193 128.007C184.63 128.007 184.167 127.876 183.812 127.615C183.449 127.354 183.21 127.094 183.086 126.833L182.901 126.441L177.815 111.896C177.622 111.32 177.521 110.89 177.521 110.614C177.521 109.915 178.108 109.363 179.289 108.964C179.798 108.787 180.261 108.703 180.671 108.703C181.08 108.703 181.396 108.841 181.62 109.125C181.836 109.401 182.037 109.831 182.214 110.407L185.116 119.157L187.987 110.537C188.234 109.8 188.682 109.294 189.33 109.017C189.608 108.895 189.979 108.833 190.426 108.833C190.874 108.833 191.291 108.979 191.677 109.263C192.063 109.555 192.31 109.839 192.418 110.115L195.451 119.211L198.353 110.407C198.492 110.008 198.608 109.708 198.693 109.516C198.778 109.324 198.94 109.14 199.179 108.956C199.418 108.772 199.712 108.68 200.059 108.68C200.406 108.68 200.823 108.764 201.294 108.941V108.933Z" fill="#130C49"/>
<path d="M216.051 119.479C216.051 120.554 215.781 121.352 215.248 121.866C214.715 122.381 214.121 122.642 213.473 122.642H207.229C207.229 123.133 207.522 123.54 208.101 123.87C208.68 124.2 209.259 124.369 209.837 124.369C210.856 124.369 211.659 124.261 212.238 124.054L212.531 123.947C212.956 123.755 213.303 123.655 213.589 123.655C214.152 123.655 214.631 124.046 215.04 124.837C215.271 125.305 215.379 125.712 215.379 126.042C215.379 127.6 213.511 128.375 209.768 128.375C208.471 128.375 207.314 128.153 206.302 127.708C205.291 127.262 204.504 126.671 203.941 125.942C202.837 124.53 202.281 122.949 202.281 121.199C202.281 118.996 202.999 117.238 204.427 115.918C205.855 114.598 207.645 113.938 209.791 113.938C212.23 113.938 214.029 114.797 215.171 116.509C215.765 117.415 216.066 118.412 216.066 119.487L216.051 119.479ZM210.494 120.255C211.157 120.255 211.497 119.978 211.497 119.418C211.497 119.019 211.343 118.696 211.034 118.451C210.725 118.205 210.285 118.082 209.714 118.082C209.143 118.082 208.579 118.313 208.016 118.773C207.453 119.234 207.175 119.733 207.175 120.255H210.494Z" fill="#130C49"/>
<path d="M226.772 115.687C226.88 114.712 227.575 114.221 228.856 114.221C229.543 114.221 230.052 114.274 230.384 114.374C230.716 114.482 230.947 114.666 231.079 114.927C231.21 115.188 231.287 115.418 231.318 115.618C231.341 115.817 231.357 116.117 231.357 116.523V125.696C231.357 126.095 231.341 126.402 231.318 126.601C231.295 126.801 231.218 127.031 231.094 127.292C230.847 127.745 230.245 127.975 229.288 127.975C228.331 127.975 227.69 127.86 227.366 127.622C227.042 127.384 226.849 127.039 226.803 126.586C226.154 127.515 225.066 127.975 223.546 127.975C222.025 127.975 220.613 127.285 219.316 125.903C218.019 124.521 217.363 122.917 217.363 121.098C217.363 119.279 218.019 117.675 219.324 116.301C220.636 114.927 222.071 114.244 223.631 114.244C224.225 114.244 224.773 114.351 225.267 114.558C225.761 114.766 226.1 114.965 226.293 115.149C226.486 115.334 226.648 115.51 226.764 115.687H226.772ZM221.979 121.136C221.979 121.712 222.21 122.234 222.666 122.695C223.121 123.155 223.677 123.385 224.325 123.385C224.974 123.385 225.514 123.147 225.946 122.679C226.378 122.211 226.594 121.689 226.594 121.121C226.594 120.553 226.386 120.023 225.977 119.532C225.56 119.041 225.012 118.795 224.317 118.795C223.623 118.795 223.059 119.041 222.627 119.532C222.195 120.023 221.979 120.553 221.979 121.129V121.136Z" fill="#130C49"/>
<path d="M247.063 114.537C247.974 115.082 248.437 115.657 248.437 116.264C248.437 116.617 248.26 117.093 247.912 117.707L242.456 127.009C242.278 127.309 242 127.57 241.614 127.808C241.228 128.046 240.843 128.161 240.472 128.161C240.102 128.161 239.731 128.069 239.391 127.885C239.052 127.7 238.805 127.516 238.666 127.324L238.427 127.033L232.947 117.707C232.592 117.131 232.422 116.655 232.422 116.294C232.422 115.665 232.877 115.082 233.796 114.537C234.46 114.153 234.992 113.961 235.378 113.961C235.764 113.961 236.065 114.076 236.289 114.314C236.505 114.552 236.744 114.905 236.983 115.373L240.433 121.974L243.884 115.373C244.077 115.043 244.223 114.798 244.316 114.652C244.408 114.506 244.563 114.352 244.779 114.207C244.987 114.061 245.273 113.984 245.62 113.984C245.967 113.984 246.454 114.168 247.071 114.537H247.063Z" fill="#130C49"/>
<path d="M254.218 111.665C254.087 111.918 253.856 112.095 253.524 112.202C253.192 112.31 252.744 112.356 252.196 112.356C251.648 112.356 251.201 112.302 250.869 112.202C250.537 112.095 250.305 111.911 250.174 111.65C250.043 111.389 249.966 111.158 249.935 110.959C249.912 110.759 249.896 110.46 249.896 110.053C249.896 109.646 249.912 109.347 249.935 109.147C249.958 108.948 250.035 108.725 250.159 108.48C250.406 108.011 251.093 107.773 252.212 107.773C253.331 107.773 253.987 108.011 254.211 108.48C254.35 108.741 254.435 108.971 254.458 109.17C254.481 109.37 254.496 109.669 254.496 110.076C254.496 110.483 254.481 110.782 254.458 110.982C254.435 111.181 254.35 111.412 254.218 111.665ZM249.881 116.524C249.881 116.125 249.896 115.817 249.919 115.618C249.943 115.418 250.02 115.188 250.143 114.927C250.39 114.474 251.077 114.244 252.196 114.244C253.038 114.244 253.64 114.39 253.987 114.689C254.288 114.935 254.442 115.311 254.458 115.817C254.473 115.994 254.481 116.247 254.481 116.577V125.75C254.481 126.149 254.465 126.456 254.442 126.655C254.419 126.855 254.334 127.085 254.195 127.346C253.964 127.799 253.292 128.029 252.165 128.029C251.039 128.029 250.382 127.791 250.135 127.323C250.012 127.062 249.935 126.832 249.912 126.64C249.888 126.448 249.873 126.141 249.873 125.719V116.524H249.881Z" fill="#130C49"/>
<path d="M265.618 115.687C265.726 114.712 266.42 114.221 267.702 114.221C268.388 114.221 268.898 114.274 269.23 114.374C269.562 114.482 269.793 114.666 269.924 114.927C270.056 115.188 270.133 115.418 270.164 115.618C270.187 115.817 270.202 116.117 270.202 116.523V125.696C270.202 126.095 270.187 126.402 270.164 126.601C270.14 126.801 270.063 127.031 269.94 127.292C269.693 127.745 269.091 127.975 268.134 127.975C267.177 127.975 266.536 127.86 266.212 127.622C265.888 127.384 265.695 127.039 265.648 126.586C265 127.515 263.912 127.975 262.391 127.975C260.871 127.975 259.458 127.285 258.162 125.903C256.865 124.521 256.209 122.917 256.209 121.098C256.209 119.279 256.865 117.675 258.169 116.301C259.482 114.927 260.917 114.244 262.476 114.244C263.071 114.244 263.619 114.351 264.113 114.558C264.606 114.766 264.946 114.965 265.139 115.149C265.332 115.334 265.494 115.51 265.61 115.687H265.618ZM260.825 121.136C260.825 121.712 261.056 122.234 261.511 122.695C261.967 123.155 262.523 123.385 263.171 123.385C263.819 123.385 264.36 123.147 264.792 122.679C265.224 122.211 265.44 121.689 265.44 121.121C265.44 120.553 265.232 120.023 264.823 119.532C264.406 119.041 263.858 118.795 263.163 118.795C262.469 118.795 261.905 119.041 261.473 119.532C261.041 120.023 260.825 120.553 260.825 121.129V121.136Z" fill="#130C49"/>
<path d="M280.376 118.865L278.663 118.757V122.372C278.663 122.841 278.74 123.186 278.886 123.393C279.033 123.6 279.319 123.708 279.728 123.708C280.137 123.708 280.453 123.723 280.677 123.746C280.893 123.769 281.132 123.854 281.372 123.992C281.773 124.222 281.981 124.805 281.981 125.75C281.981 126.847 281.734 127.523 281.241 127.768C280.978 127.891 280.747 127.968 280.546 127.991C280.345 128.014 280.052 128.029 279.666 128.029C277.837 128.029 276.447 127.622 275.506 126.801C274.556 125.98 274.086 124.591 274.086 122.633V118.757C273.754 118.811 273.391 118.834 273.005 118.834C272.619 118.834 272.295 118.688 272.04 118.389C271.786 118.089 271.662 117.583 271.662 116.869C271.662 116.155 271.708 115.633 271.793 115.311C271.878 114.988 272.002 114.758 272.164 114.62C272.442 114.39 272.797 114.282 273.221 114.282L274.093 114.39V111.688C274.093 111.289 274.109 110.989 274.132 110.797C274.155 110.606 274.24 110.398 274.379 110.168C274.61 109.731 275.282 109.516 276.409 109.516C277.605 109.516 278.315 109.838 278.547 110.483C278.632 110.759 278.678 111.204 278.678 111.818V114.39C279.45 114.321 280.036 114.282 280.43 114.282C280.824 114.282 281.125 114.298 281.325 114.321C281.526 114.344 281.758 114.428 282.02 114.566C282.475 114.796 282.707 115.464 282.707 116.585C282.707 117.706 282.468 118.358 281.997 118.604C281.734 118.726 281.503 118.803 281.302 118.826C281.102 118.849 280.801 118.865 280.391 118.865H280.376Z" fill="#130C49"/>
<path d="M297 119.479C297 120.554 296.73 121.352 296.197 121.866C295.665 122.381 295.07 122.642 294.422 122.642H288.178C288.178 123.133 288.471 123.54 289.05 123.87C289.629 124.2 290.208 124.369 290.787 124.369C291.806 124.369 292.608 124.261 293.187 124.054L293.48 123.947C293.905 123.755 294.252 123.655 294.538 123.655C295.101 123.655 295.58 124.046 295.989 124.837C296.22 125.305 296.328 125.712 296.328 126.042C296.328 127.6 294.461 128.375 290.717 128.375C289.421 128.375 288.263 128.153 287.252 127.708C286.241 127.262 285.453 126.671 284.89 125.942C283.786 124.53 283.23 122.949 283.23 121.199C283.23 118.996 283.948 117.238 285.376 115.918C286.804 114.598 288.595 113.938 290.74 113.938C293.179 113.938 294.978 114.797 296.12 116.509C296.714 117.415 297.015 118.412 297.015 119.487L297 119.479ZM291.443 120.255C292.107 120.255 292.446 119.978 292.446 119.418C292.446 119.019 292.292 118.696 291.983 118.451C291.674 118.205 291.234 118.082 290.663 118.082C290.092 118.082 289.529 118.313 288.965 118.773C288.402 119.234 288.124 119.733 288.124 120.255H291.443Z" fill="#130C49"/>
<path d="M279.959 46.4532L264.314 37.4113C262.833 36.5516 261.065 36.5516 259.575 37.4036C258.094 38.2556 257.206 39.7754 257.206 41.4794V62.9711L247.288 57.2912C241.113 53.7604 233.457 53.7681 227.29 57.3142L217.434 62.9865V41.4717C217.434 39.7677 216.546 38.2403 215.064 37.396C213.582 36.5516 211.807 36.5516 210.325 37.4036L194.68 46.4455C192.627 47.6352 191.346 49.8381 191.346 52.2022V73.6786C191.346 76.9715 193.013 80.0033 195.807 81.7764L210.047 90.8029C211.9 91.9773 214.007 92.553 216.121 92.553C218.537 92.553 220.945 91.7931 222.944 90.2887L232.847 82.851C235.271 81.0319 239.361 81.0319 241.785 82.851L251.062 89.8128L251.687 90.281C255.438 93.0979 260.617 93.2975 264.585 90.7876L270.775 86.8577L278.833 81.7457C281.627 79.9726 283.294 76.9484 283.294 73.6556V52.1946C283.294 49.8305 282.02 47.6199 279.959 46.4302V46.4532ZM260.37 38.7699C261.358 38.2019 262.532 38.2096 263.519 38.7699L279.164 47.8118C280.731 48.7175 281.704 50.3985 281.704 52.2022V73.6633C281.704 74.7532 281.48 75.8048 281.071 76.7719L258.796 63.8769V41.4717C258.796 40.3434 259.382 39.3302 260.37 38.7622V38.7699ZM228.085 58.6805C233.758 55.4106 240.812 55.403 246.493 58.6574L257.206 64.7903L257.229 76.9484L245.235 69.3189C240.442 66.2716 234.244 66.264 229.443 69.3189L217.434 76.9484V64.8209L228.085 58.6881V58.6805ZM192.936 52.2099C192.936 50.4061 193.908 48.7252 195.475 47.8194L211.12 38.7776C211.614 38.4936 212.154 38.3477 212.702 38.3477C213.25 38.3477 213.775 38.4859 214.269 38.7699C215.257 39.3379 215.844 40.3434 215.844 41.4794V63.9076L193.561 76.7872C193.159 75.8201 192.936 74.7762 192.936 73.6863V52.2099ZM194.317 78.1765L215.844 65.7343V77.9539L204.297 85.2842L196.664 80.4485C195.714 79.8498 194.927 79.0669 194.317 78.1765ZM210.904 89.475L205.771 86.2206L215.836 79.8268V86.044C215.836 88.1165 217.171 89.8819 219.031 90.542C216.345 91.3709 213.351 91.0332 210.896 89.475H210.904ZM231.882 81.6075L222.574 88.5924C222.003 89.0222 221.339 89.2448 220.652 89.2448C218.661 89.2448 217.426 87.5868 217.426 86.044V78.8213L230.292 70.6467C234.568 67.9296 240.094 67.9296 244.37 70.6467L257.229 78.8213L257.245 86.0364C257.245 87.5792 256.01 89.2371 254.018 89.2371C253.331 89.2371 252.59 88.9838 252.019 88.554L242.742 81.5922C239.747 79.3432 234.885 79.3432 231.89 81.5922L231.882 81.6075ZM263.712 89.4674C261.273 91.0178 258.294 91.3633 255.616 90.5496C257.484 89.8895 258.827 88.1241 258.827 86.044V79.8421L268.837 86.2206L263.712 89.4674ZM277.968 80.4255L270.312 85.2842L258.811 77.9693L258.788 65.719L280.299 78.1765C279.697 79.0669 278.91 79.8345 277.96 80.4332L277.968 80.4255Z" fill="#130C49"/>
</g>
<defs>
<clipPath id="clip0_3651_479">
<rect width="297" height="138" fill="white"/>
</clipPath>
</defs>
</svg>
