<svg width="68" height="63" viewBox="0 0 68 63" fill="none" xmlns="http://www.w3.org/2000/svg">
<mask id="mask0_323_1066" style="mask-type:luminance" maskUnits="userSpaceOnUse" x="0" y="11" width="68" height="43">
<path d="M29.5031 11.449C28.8296 11.4922 28.2797 11.6529 27.8348 11.9H31.8448C31.1219 11.5664 30.3372 11.3934 29.5031 11.449ZM31.8448 11.9C35.2986 13.5003 37.4056 18.919 37.3005 22.0392C37.3005 22.0207 37.3005 22.0021 37.3005 21.9774C37.3005 21.9465 37.3005 21.8971 37.3005 21.8415C37.3005 21.8106 37.3005 21.7797 37.3005 21.7488C37.3005 21.6499 37.3067 21.5326 37.3129 21.409C37.3129 21.3843 37.3129 21.3657 37.3129 21.3472C37.3129 21.2236 37.3191 21.1 37.3252 20.9826C37.3252 20.9209 37.3252 20.8653 37.3252 20.8158C37.3252 20.7602 37.3252 20.7108 37.3252 20.6675C37.3252 20.6366 37.3252 20.6119 37.3252 20.581C37.3252 20.5563 37.3252 20.5316 37.3252 20.5069C37.3252 20.4698 37.3252 20.4451 37.3252 20.4266C37.3252 20.3339 37.3252 20.3462 37.3252 20.4266C37.3252 20.4513 37.3252 20.476 37.3252 20.5069C37.3252 20.5254 37.3252 20.5501 37.3252 20.581C37.3252 20.6058 37.3252 20.6366 37.3252 20.6675C37.3252 20.7108 37.3252 20.7602 37.3252 20.8158C37.3252 20.8714 37.3252 20.927 37.3252 20.9826C37.3252 21.0877 37.3191 21.2113 37.3129 21.3472C37.3129 21.3657 37.3129 21.3904 37.3129 21.409C37.3129 21.514 37.3067 21.6252 37.3005 21.7488C37.3005 21.7797 37.3005 21.8106 37.3005 21.8415C37.3005 21.8847 37.3005 21.9342 37.3005 21.9774C37.3005 22.0145 37.3005 22.0392 37.3005 22.0392C37.2758 22.8115 37.1584 23.6148 36.7321 24.2635C35.8732 25.5734 34.1062 25.8576 32.5491 26.0183C31.3814 26.1356 30.0777 26.2221 29.1509 25.4931C28.4589 24.9555 28.1376 24.0782 27.8534 23.2502C26.8648 20.4266 24.5478 13.7227 27.8348 11.9H0V53.6677H67.7304V11.9H31.8509H31.8448Z" fill="white"/>
</mask>
<g mask="url(#mask0_323_1066)">
<g opacity="0.8">
<path d="M46.8467 53.6678C35.3297 53.6678 25.9629 44.301 25.9629 32.784C25.9629 21.267 35.3297 11.9001 46.8467 11.9001C58.3637 11.9001 67.7306 21.267 67.7306 32.784C67.7306 42.3053 61.2986 50.6218 52.0862 53.0067C51.9812 53.0314 51.8762 53.0562 51.7711 53.0685C51.6723 53.1056 51.5734 53.1365 51.4684 53.155C49.9608 53.4948 48.4038 53.6678 46.8406 53.6678H46.8467ZM46.8467 16.8431C38.0545 16.8431 30.9058 23.9979 30.9058 32.784C30.9058 41.57 38.0545 48.7249 46.8467 48.7249C48.0392 48.7249 49.2317 48.5952 50.3809 48.3357C50.4612 48.3171 50.5416 48.3048 50.6219 48.2924C50.696 48.2677 50.7764 48.243 50.8505 48.2183C57.8818 46.4017 62.7877 40.0563 62.7877 32.784C62.7877 23.9918 55.639 16.8431 46.8467 16.8431Z" fill="#00B7E2"/>
</g>
<g opacity="0.8">
<path d="M20.8838 53.6676C9.36684 53.6676 0 44.3008 0 32.7837C0 21.2667 9.36684 11.8999 20.8838 11.8999C32.4009 11.8999 41.7677 21.2667 41.7677 32.7837C41.7677 42.3051 35.3357 50.6215 26.1233 53.0065C26.0183 53.0312 25.9133 53.0559 25.8144 53.0683C25.7155 53.1053 25.6167 53.1362 25.5117 53.1548C24.0041 53.4946 22.447 53.6676 20.8838 53.6676ZM20.8838 16.8428C12.0916 16.8428 4.94292 23.9977 4.94292 32.7837C4.94292 41.5698 12.0916 48.7247 20.8838 48.7247C22.0763 48.7247 23.2688 48.5949 24.418 48.3354C24.4984 48.3169 24.5787 48.3045 24.659 48.2922C24.7331 48.2674 24.8135 48.2427 24.8876 48.218C31.9189 46.4015 36.8248 40.056 36.8248 32.7837C36.8248 23.9915 29.6761 16.8428 20.8838 16.8428Z" fill="#20E220"/>
</g>
</g>
<mask id="mask1_323_1066" style="mask-type:luminance" maskUnits="userSpaceOnUse" x="26" y="11" width="12" height="16">
<path d="M37.3018 22.0392C37.2771 22.8115 37.1597 23.6147 36.7333 24.2635C35.8745 25.5734 34.1074 25.8576 32.5504 26.0182C31.3826 26.1356 30.0789 26.2221 29.1521 25.493C28.4601 24.9555 28.1388 24.0781 27.8546 23.2502C26.7363 20.0435 23.8879 11.8259 29.5043 11.449C34.3237 11.1277 37.4315 18.264 37.3018 22.0392Z" fill="white"/>
</mask>
<g mask="url(#mask1_323_1066)">
<g opacity="0.8">
<path d="M20.8858 53.6678C9.36879 53.6678 0.00195312 44.301 0.00195312 32.784C0.00195312 21.267 9.36879 11.9001 20.8858 11.9001C32.4028 11.9001 41.7696 21.267 41.7696 32.784C41.7696 42.3053 35.3377 50.6218 26.1253 53.0067C26.0203 53.0314 25.9152 53.0562 25.8164 53.0685C25.7175 53.1056 25.6186 53.1365 25.5136 53.155C24.006 53.4948 22.449 53.6678 20.8858 53.6678ZM20.8858 16.8431C12.0936 16.8431 4.94487 23.9979 4.94487 32.784C4.94487 41.57 12.0936 48.7249 20.8858 48.7249C22.0783 48.7249 23.2708 48.5952 24.42 48.3357C24.5003 48.3171 24.5806 48.3048 24.661 48.2924C24.7351 48.2677 24.8154 48.243 24.8896 48.2183C31.9209 46.4017 36.8267 40.0563 36.8267 32.784C36.8267 23.9918 29.678 16.8431 20.8858 16.8431Z" fill="#20E220"/>
</g>
<g opacity="0.8">
<path d="M46.8487 53.6678C35.3317 53.6678 25.9648 44.301 25.9648 32.784C25.9648 21.267 35.3317 11.9001 46.8487 11.9001C58.3657 11.9001 67.7325 21.267 67.7325 32.784C67.7325 42.3053 61.3006 50.6218 52.0882 53.0067C51.9831 53.0314 51.8781 53.0562 51.7731 53.0685C51.6742 53.1056 51.5754 53.1365 51.4703 53.155C49.9627 53.4948 48.4057 53.6678 46.8425 53.6678H46.8487ZM46.8487 16.8431C38.0565 16.8431 30.9078 23.9979 30.9078 32.784C30.9078 41.57 38.0565 48.7249 46.8487 48.7249C48.0412 48.7249 49.2336 48.5952 50.3829 48.3357C50.4632 48.3171 50.5435 48.3048 50.6238 48.2924C50.698 48.2677 50.7783 48.243 50.8525 48.2183C57.8838 46.4017 62.7896 40.0563 62.7896 32.784C62.7896 23.9918 55.6409 16.8431 46.8487 16.8431Z" fill="#00B7E2"/>
</g>
</g>
<g opacity="0.8">
<path d="M50.9234 52.9572C49.9163 52.9572 49.0019 52.2652 48.7671 51.2333C48.4952 50.0408 49.2367 48.8545 50.4291 48.5827C50.5898 48.5456 50.7504 48.5085 50.9111 48.4653C52.0974 48.1625 53.3022 48.8731 53.6111 50.0532C53.9139 51.2395 53.2034 52.4443 52.0232 52.7533C51.8255 52.8027 51.6216 52.8521 51.4177 52.9016C51.2509 52.9386 51.0841 52.9572 50.9234 52.9572Z" fill="#00B7E2"/>
</g>
<g opacity="0.8">
<path d="M24.7467 62.4784C24.1968 62.4784 23.6469 62.2745 23.2206 61.8667C22.337 61.0264 22.2999 59.6239 23.1402 58.7342L23.3071 58.5612C24.1659 57.69 25.5684 57.6776 26.4396 58.5303C27.3108 59.3891 27.3232 60.7917 26.4705 61.6628L26.3531 61.7864C25.9206 62.2436 25.3337 62.4722 24.7467 62.4722V62.4784Z" fill="#20E220"/>
</g>
<g opacity="0.8">
<path d="M33.6853 10.0095C35.0605 10.0095 36.1753 8.89472 36.1753 7.51954C36.1753 6.14435 35.0605 5.02954 33.6853 5.02954C32.3101 5.02954 31.1953 6.14435 31.1953 7.51954C31.1953 8.89472 32.3101 10.0095 33.6853 10.0095Z" fill="#20E220"/>
</g>
<g opacity="0.8">
<path d="M40.5993 3.16347C41.4729 3.16347 42.181 2.4553 42.181 1.58174C42.181 0.708167 41.4729 0 40.5993 0C39.7257 0 39.0176 0.708167 39.0176 1.58174C39.0176 2.4553 39.7257 3.16347 40.5993 3.16347Z" fill="#00B7E2"/>
</g>
<g opacity="0.8">
<path d="M65.2575 14.3036C66.1311 14.3036 66.8392 13.5954 66.8392 12.7219C66.8392 11.8483 66.1311 11.1401 65.2575 11.1401C64.3839 11.1401 63.6758 11.8483 63.6758 12.7219C63.6758 13.5954 64.3839 14.3036 65.2575 14.3036Z" fill="#20E220"/>
</g>
</svg>
