<svg width="108" height="28" viewBox="0 0 108 28" fill="none" xmlns="http://www.w3.org/2000/svg">
<g clip-path="url(#clip0_9539_468)">
<path fill-rule="evenodd" clip-rule="evenodd" d="M3.43768 3.8163C3.94406 1.59384 5.91455 0 8.20048 0H23.6311C25.6283 0 27.097 1.84313 26.684 3.78558L26.6832 3.78955L26.3553 5.2831H9.98615C9.09523 5.2831 8.30878 5.91733 8.11204 6.78319C8.11185 6.78402 8.11166 6.78485 8.11147 6.78568L4.55943 23.2013H3.12674C1.12951 23.2013 -0.339178 21.3582 0.0737827 19.4157L0.0741576 19.414L3.43768 3.8163ZM9.97383 4.05163C8.50632 4.05741 7.23075 5.09496 6.91022 6.51443L3.56591 21.9698H3.12674C1.92237 21.9698 1.02673 20.8579 1.27818 19.6727C1.27812 19.6729 1.27823 19.6724 1.27818 19.6727L4.63917 4.08653C5.02067 2.41923 6.49753 1.23149 8.20048 1.23149H23.6311C24.8351 1.23149 25.7306 2.34284 25.4798 3.52773C25.4797 3.52832 25.4796 3.5289 25.4795 3.52949L25.3648 4.05161L9.97383 4.05163Z" fill="#181818"/>
<path fill-rule="evenodd" clip-rule="evenodd" d="M25.3658 4.05078H26.7985C28.7918 4.05078 30.2887 5.88953 29.8764 7.85909L29.8755 7.86339L26.4999 23.4358C25.9935 25.6583 24.023 27.2521 21.737 27.2521H6.30642C4.3092 27.2521 2.84051 25.409 3.25347 23.4665L3.25433 23.4625L3.58218 21.969H19.9637C20.853 21.969 21.6265 21.3368 21.8124 20.4726L25.3658 4.05078ZM26.3593 5.28227L23.0163 20.7315C22.7096 22.1578 21.4388 23.2005 19.9637 23.2005H4.57267L4.45804 23.7226C4.45791 23.7232 4.45777 23.7239 4.45764 23.7245C4.20694 24.9093 5.10241 26.0206 6.30642 26.0206H21.737C23.44 26.0206 24.9169 24.8328 25.2984 23.1654L28.6711 7.6068C28.6712 7.60609 28.6714 7.60538 28.6715 7.60466C28.9228 6.39779 28.0062 5.28227 26.7985 5.28227H26.3593Z" fill="#181818"/>
<path d="M22.4111 20.6015L25.8593 4.66602H9.97307C8.79083 4.66602 7.76869 5.4788 7.5224 6.64872L4.07422 22.5842H19.9605C21.1427 22.5842 22.1525 21.7468 22.4111 20.6015Z" fill="#181818"/>
<path d="M9.24685 16.502L8.10156 10.5293H9.89954L10.4537 14.2607L12.2763 10.5293H13.4955L14.2098 14.2607L15.8846 10.5293H17.6826L14.7639 16.502H13.2615L12.5472 13.0046L10.7862 16.502H9.25916H9.24685Z" fill="white"/>
<path d="M17.043 15.5412L17.9789 14.4452C18.3976 14.9624 18.9395 15.2334 19.5922 15.2334C20.0109 15.2334 20.3926 15.061 20.4419 14.7654C20.4665 14.593 20.3434 14.4329 20.0724 14.3097C20.0109 14.2728 19.8631 14.2235 19.6291 14.1497C19.1734 13.9772 18.9887 13.9034 18.5946 13.6571C18.0405 13.3122 17.7819 12.8443 17.8804 12.0438C18.0528 10.9355 19.0626 10.332 20.3434 10.332C21.2177 10.332 21.932 10.6153 22.5231 11.1818L21.5995 12.2655C21.2177 11.9083 20.7744 11.7359 20.2695 11.7359C19.8631 11.7359 19.6291 11.8591 19.5675 12.1054C19.5183 12.3147 19.6291 12.4871 19.9 12.6103C19.9862 12.6596 20.1586 12.7334 20.4173 12.832C20.6759 12.9305 20.8975 13.0167 21.0823 13.1152C21.6734 13.3615 22.363 13.9403 22.1537 14.827C22.0551 15.4058 21.7596 15.8614 21.267 16.1939C20.7744 16.5264 20.1833 16.6865 19.5183 16.6865C18.4469 16.6865 17.6218 16.3048 17.043 15.5536V15.5412Z" fill="white"/>
<path d="M44.1594 18.7804H42.4723L39.1719 8.79297H41.3639L43.3836 15.5046L45.6495 8.79297H46.918L49.2332 15.5046L51.2159 8.79297H53.4079L50.1198 18.7804H48.4327L46.3145 12.2411L44.1717 18.7804H44.1594Z" fill="#181818"/>
<path d="M55.2799 18.7795H53.3711V11.4152H55.2183V12.4127C55.6494 11.6122 56.3267 11.2305 57.238 11.2305C57.5335 11.2305 57.8291 11.2797 58.1247 11.3906L57.9646 13.2132C57.6321 13.1147 57.3611 13.0531 57.0902 13.0531C56.536 13.0531 56.0927 13.2501 55.7725 13.6072C55.4646 13.9767 55.2799 14.5309 55.2799 15.2821V18.7795Z" fill="#181818"/>
<path d="M60.6992 9.42263C60.6992 9.75513 60.6007 10.0261 60.3667 10.26C60.145 10.4817 59.8618 10.5925 59.5293 10.5925C59.1968 10.5925 58.9259 10.494 58.6919 10.26C58.4702 10.0384 58.3594 9.75513 58.3594 9.42263C58.3594 9.09013 58.4579 8.8192 58.6919 8.60985C58.9135 8.38818 59.1968 8.27734 59.5293 8.27734C59.8618 8.27734 60.1327 8.37586 60.3667 8.60985C60.5884 8.8192 60.6992 9.10244 60.6992 9.42263ZM60.4652 11.43V18.7943H58.5564V11.43H60.4652Z" fill="#181818"/>
<path d="M66.3916 16.8592L66.9704 18.3493C66.3669 18.7434 65.628 18.9528 64.7906 18.9528C63.9532 18.9528 63.3128 18.7065 62.8818 18.2262C62.4508 17.7336 62.2414 17.007 62.2414 16.0465V13.0047H61.0469V11.4037H62.2661V8.79297H64.1625V11.4037H66.6009V13.0047H64.1625V15.9233C64.1625 16.7977 64.5074 17.2287 65.2093 17.2287C65.5541 17.2287 65.9728 17.1055 66.4039 16.8469L66.3916 16.8592Z" fill="#181818"/>
<path d="M74.361 14.9373C74.361 15.1589 74.3486 15.4422 74.2871 15.7747H68.7577C69.0409 16.8214 69.7552 17.3387 70.9005 17.3387C71.7502 17.3387 72.5507 17.0924 73.2896 16.5875L74.0408 17.9298C73.1048 18.6071 72.0457 18.9396 70.8266 18.9396C69.5335 18.9396 68.5483 18.5702 67.8464 17.8313C67.169 17.1047 66.8242 16.1811 66.8242 15.0974C66.8242 14.0136 67.169 13.0408 67.8833 12.3265C68.5976 11.5999 69.5212 11.2305 70.6542 11.2305C71.7871 11.2305 72.5999 11.563 73.3019 12.228C74.0284 12.9053 74.3856 13.8166 74.3856 14.9373H74.361ZM70.6665 12.8191C70.1985 12.8191 69.7798 12.9546 69.4473 13.2378C69.1148 13.521 68.8931 13.8782 68.77 14.3708H72.5137C72.4275 13.9028 72.2182 13.521 71.8857 13.2378C71.5531 12.9546 71.1591 12.8191 70.6665 12.8191Z" fill="#181818"/>
<path d="M77.5457 18.9776C76.2526 18.9776 75.2551 18.5096 74.5039 17.5491L75.5137 16.3545C75.7723 16.6624 76.0925 16.9087 76.4497 17.1057C76.8191 17.3028 77.1762 17.389 77.5457 17.389C77.8413 17.389 78.0629 17.3151 78.2723 17.1796C78.4693 17.0441 78.5678 16.8717 78.5678 16.6624C78.5678 16.4038 78.3954 16.1944 78.0506 16.0343C77.9521 15.9851 77.6565 15.8742 77.1762 15.7018C76.7575 15.5417 76.4497 15.4186 76.2403 15.3077C75.3906 14.9137 74.9719 14.261 74.9719 13.3989C74.9719 12.7585 75.2182 12.229 75.7231 11.798C76.2157 11.3793 76.893 11.1699 77.7181 11.1699C78.7649 11.1699 79.6269 11.5147 80.2919 12.229L79.356 13.4605C78.8388 12.9679 78.2723 12.7339 77.6688 12.7339C77.4225 12.7339 77.2132 12.7832 77.0654 12.9063C76.9053 13.0295 76.8191 13.1649 76.8191 13.3373C76.8191 13.6452 77.0285 13.8792 77.4595 14.0147C78.4201 14.3841 79.0112 14.6058 79.2328 14.7289C80.0702 15.16 80.4643 15.788 80.4643 16.5885C80.4643 17.2904 80.1811 17.8446 79.6515 18.2879C79.1343 18.7559 78.4324 18.9899 77.5457 18.9899V18.9776Z" fill="#181818"/>
<path d="M80.8203 15.098C80.8203 14.0019 81.1898 13.1029 81.9287 12.3517C82.6799 11.6005 83.6158 11.2188 84.7611 11.2188C85.9064 11.2188 86.8546 11.6005 87.5935 12.3517C88.3201 13.0783 88.7019 14.0019 88.7019 15.098C88.7019 16.194 88.3324 17.1176 87.5935 17.8442C86.8423 18.5954 85.9064 18.9525 84.7611 18.9525C83.6158 18.9525 82.6676 18.5831 81.9287 17.8442C81.1774 17.1176 80.8203 16.194 80.8203 15.098ZM83.3079 16.5881C83.6897 16.9821 84.1823 17.1915 84.7734 17.1915C85.3645 17.1915 85.8202 16.9821 86.2143 16.5881C86.6083 16.1693 86.8054 15.6644 86.8054 15.098C86.8054 14.5315 86.6083 14.0142 86.2143 13.6202C85.8202 13.2261 85.3399 13.0167 84.7734 13.0167C84.2069 13.0167 83.6897 13.2261 83.3079 13.6202C82.9262 14.0266 82.7291 14.5068 82.7291 15.098C82.7291 15.6891 82.9262 16.194 83.3079 16.5881Z" fill="#181818"/>
<path d="M91.4127 18.7801H89.5039V11.4158H91.3635V12.4379C91.5605 12.0685 91.8684 11.7729 92.2871 11.5513C92.7058 11.3296 93.1614 11.2188 93.6787 11.2188C94.4791 11.2188 95.1565 11.4774 95.7106 12.0192C96.2648 12.5611 96.548 13.3123 96.548 14.2852V18.7924H94.6392V14.8024C94.6392 14.2236 94.5038 13.7803 94.2205 13.4601C93.9373 13.1522 93.5555 12.9675 93.0875 12.9675C92.5826 12.9675 92.1886 13.1399 91.8684 13.4847C91.5605 13.8295 91.4004 14.2852 91.4004 14.827V18.7555H91.4127V18.7801Z" fill="#181818"/>
<path d="M99.8242 9.42263C99.8242 9.75513 99.7257 10.0261 99.4917 10.26C99.27 10.4817 98.9868 10.5925 98.6543 10.5925C98.3218 10.5925 98.0509 10.494 97.8169 10.26C97.5952 10.0384 97.4844 9.75513 97.4844 9.42263C97.4844 9.09013 97.5829 8.8192 97.8169 8.60985C98.0385 8.38818 98.3218 8.27734 98.6543 8.27734C98.9868 8.27734 99.2577 8.37586 99.4917 8.60985C99.7134 8.8192 99.8242 9.10244 99.8242 9.42263ZM99.5902 11.43V18.7943H97.6814V11.43H99.5902Z" fill="#181818"/>
<path d="M104.268 18.9519C103.135 18.9519 102.199 18.5825 101.448 17.8682C100.721 17.1539 100.352 16.2303 100.352 15.0974C100.352 13.9644 100.721 13.0408 101.46 12.3265C102.211 11.5999 103.159 11.2305 104.317 11.2305C105.068 11.2305 105.758 11.4029 106.374 11.7723C106.977 12.1418 107.457 12.6467 107.753 13.2871L106.226 14.1245C105.77 13.3733 105.142 13.0161 104.342 13.0161C103.738 13.0161 103.233 13.2255 102.851 13.6196C102.457 14.0136 102.26 14.5062 102.26 15.0974C102.26 15.6885 102.457 16.2057 102.839 16.6121C103.246 17.0062 103.726 17.2032 104.317 17.2032C104.699 17.2032 105.068 17.1047 105.425 16.8953C105.77 16.686 106.029 16.4274 106.189 16.0949L107.741 16.9939C107.433 17.585 106.952 18.0529 106.349 18.4224C105.721 18.7549 105.031 18.9396 104.28 18.9396L104.268 18.9519Z" fill="#181818"/>
</g>
<defs>
<clipPath id="clip0_9539_468">
<rect width="107.756" height="27.2529" fill="white"/>
</clipPath>
</defs>
</svg>
