<svg width="86" height="22" viewBox="0 0 86 22" fill="none" xmlns="http://www.w3.org/2000/svg">
<g id="Layer_1" clip-path="url(#clip0_10580_686)">
<path id="Vector (Stroke)" fill-rule="evenodd" clip-rule="evenodd" d="M2.71408 3.01208C3.11375 1.25797 4.66899 0 6.4732 0H18.6521C20.2284 0 21.3876 1.45473 21.0617 2.98783L21.061 2.99097L20.8022 4.16978H7.88257C7.17939 4.16978 6.55868 4.67036 6.4034 5.35375C6.40325 5.35441 6.4031 5.35507 6.40295 5.35572L3.59944 18.3121H2.46866C0.892308 18.3121 -0.266879 16.8573 0.0590575 15.3242L0.0593534 15.3228L2.71408 3.01208ZM7.87285 3.19782C6.71459 3.20238 5.70782 4.02129 5.45484 5.14163L2.81528 17.3401H2.46866C1.51809 17.3401 0.811189 16.4625 1.00965 15.527C1.0096 15.5272 1.00969 15.5268 1.00965 15.527L3.66237 3.22537C3.96348 1.90942 5.12911 0.971977 6.4732 0.971977H18.6521C19.6024 0.971977 20.3092 1.84913 20.1112 2.78433C20.1111 2.78479 20.111 2.78525 20.1109 2.78571L20.0205 3.19781L7.87285 3.19782Z" fill="#181818"/>
<path id="Vector (Stroke)_2" fill-rule="evenodd" clip-rule="evenodd" d="M20.0194 3.19727H21.1502C22.7235 3.19727 23.9049 4.64853 23.5795 6.20304L23.5788 6.20644L20.9145 18.4972C20.5148 20.2514 18.9596 21.5093 17.1553 21.5093H4.97647C3.40012 21.5093 2.24093 20.0546 2.56687 18.5215L2.56755 18.5183L2.82631 17.3395H15.7557C16.4576 17.3395 17.0681 16.8406 17.2148 16.1585L20.0194 3.19727ZM20.8035 4.16924L18.1651 16.3628C17.923 17.4886 16.92 18.3115 15.7557 18.3115H3.60807L3.5176 18.7236C3.51749 18.7241 3.51739 18.7246 3.51728 18.7251C3.31942 19.6602 4.02618 20.5373 4.97647 20.5373H17.1553C18.4995 20.5373 19.6652 19.5998 19.9662 18.2838L22.6282 6.00392C22.6283 6.00336 22.6284 6.00279 22.6285 6.00223C22.8268 5.04968 22.1034 4.16924 21.1502 4.16924H20.8035Z" fill="#181818"/>
<path id="Vector" d="M17.6876 16.261L20.4091 3.68359H7.87062C6.93752 3.68359 6.13078 4.3251 5.93638 5.24848L3.21484 17.8259H15.7534C16.6864 17.8259 17.4835 17.1649 17.6876 16.261Z" fill="#181818"/>
<path id="Vector_2" d="M7.29847 13.0246L6.39453 8.31055H7.81362L8.25101 11.2556L9.68953 8.31055H10.6518L11.2155 11.2556L12.5374 8.31055H13.9565L11.6529 13.0246H10.4671L9.90337 10.2642L8.51344 13.0246H7.30819H7.29847Z" fill="white"/>
<path id="Vector_3" d="M13.4531 12.2677L14.1918 11.4027C14.5223 11.8109 14.95 12.0247 15.4651 12.0247C15.7956 12.0247 16.0969 11.8886 16.1358 11.6554C16.1552 11.5193 16.058 11.3929 15.8442 11.2957C15.7956 11.2666 15.679 11.2277 15.4943 11.1694C15.1346 11.0333 14.9888 10.975 14.6778 10.7806C14.2404 10.5084 14.0363 10.1391 14.1141 9.5073C14.2501 8.63252 15.0472 8.15625 16.058 8.15625C16.7481 8.15625 17.3119 8.3798 17.7784 8.82691L17.0494 9.68225C16.7481 9.40038 16.3982 9.2643 15.9997 9.2643C15.679 9.2643 15.4943 9.3615 15.4457 9.5559C15.4068 9.72113 15.4943 9.85721 15.7081 9.95441C15.7762 9.99329 15.9122 10.0516 16.1163 10.1294C16.3205 10.2071 16.4954 10.2752 16.6412 10.3529C17.1078 10.5473 17.6521 11.0041 17.4868 11.704C17.4091 12.1608 17.1758 12.5204 16.787 12.7829C16.3982 13.0453 15.9317 13.1717 15.4068 13.1717C14.5612 13.1717 13.91 12.8703 13.4531 12.2774V12.2677Z" fill="white"/>
<path id="Vector_4" d="M34.8545 14.8241H33.5229L30.918 6.94141H32.6481L34.2421 12.2387L36.0306 6.94141H37.0317L38.859 12.2387L40.4239 6.94141H42.154L39.5588 14.8241H38.2272L36.5554 9.66294L34.8642 14.8241H34.8545Z" fill="#181818"/>
<path id="Vector_5" d="M43.6316 14.8215H42.125V9.00908H43.583V9.79638C43.9232 9.16459 44.4577 8.86328 45.177 8.86328C45.4103 8.86328 45.6436 8.90216 45.8768 8.98964L45.7505 10.4282C45.488 10.3504 45.2742 10.3018 45.0604 10.3018C44.623 10.3018 44.2731 10.4573 44.0204 10.7392C43.7774 11.0308 43.6316 11.4682 43.6316 12.0611V14.8215Z" fill="#181818"/>
<path id="Vector_6" d="M47.9093 7.43714C47.9093 7.69958 47.8315 7.91341 47.6468 8.09809C47.4719 8.27304 47.2483 8.36052 46.9859 8.36052C46.7234 8.36052 46.5096 8.28276 46.3249 8.09809C46.15 7.92313 46.0625 7.69958 46.0625 7.43714C46.0625 7.17471 46.1403 6.96087 46.3249 6.79564C46.4999 6.62068 46.7234 6.5332 46.9859 6.5332C47.2483 6.5332 47.4621 6.61096 47.6468 6.79564C47.8218 6.96087 47.9093 7.18443 47.9093 7.43714ZM47.7246 9.02146V14.8339H46.218V9.02146H47.7246Z" fill="#181818"/>
<path id="Vector_7" d="M52.3981 13.3079L52.8549 14.484C52.3786 14.795 51.7954 14.9602 51.1345 14.9602C50.4736 14.9602 49.9681 14.7658 49.6279 14.3868C49.2877 13.998 49.1225 13.4245 49.1225 12.6664V10.2656H48.1797V9.002H49.1419V6.94141H50.6388V9.002H52.5633V10.2656H50.6388V12.5692C50.6388 13.2593 50.9109 13.5995 51.465 13.5995C51.7371 13.5995 52.0676 13.5023 52.4078 13.2981L52.3981 13.3079Z" fill="#181818"/>
<path id="Vector_8" d="M58.6907 11.7889C58.6907 11.9639 58.681 12.1874 58.6324 12.4499H54.2682C54.4917 13.2761 55.0555 13.6843 55.9594 13.6843C56.6301 13.6843 57.2619 13.4899 57.8451 13.0914L58.438 14.1508C57.6993 14.6854 56.8634 14.9479 55.9011 14.9479C54.8805 14.9479 54.103 14.6563 53.5489 14.0731C53.0143 13.4996 52.7422 12.7706 52.7422 11.9153C52.7422 11.06 53.0143 10.2921 53.5781 9.72834C54.1418 9.15487 54.8708 8.86328 55.765 8.86328C56.6593 8.86328 57.3008 9.12572 57.8548 9.65058C58.4283 10.1852 58.7101 10.9044 58.7101 11.7889H58.6907ZM55.7748 10.1171C55.4054 10.1171 55.0749 10.224 54.8125 10.4476C54.5501 10.6712 54.3751 10.953 54.2779 11.3418H57.2327C57.1647 10.9725 56.9994 10.6712 56.737 10.4476C56.4746 10.224 56.1636 10.1171 55.7748 10.1171Z" fill="#181818"/>
<path id="Vector_9" d="M61.2055 14.9787C60.1849 14.9787 59.3976 14.6094 58.8047 13.8512L59.6017 12.9084C59.8058 13.1514 60.0585 13.3458 60.3404 13.5013C60.632 13.6569 60.9139 13.7249 61.2055 13.7249C61.4387 13.7249 61.6137 13.6666 61.7789 13.5597C61.9345 13.4527 62.0122 13.3167 62.0122 13.1514C62.0122 12.9473 61.8761 12.7821 61.604 12.6557C61.5262 12.6168 61.2929 12.5294 60.9139 12.3933C60.5834 12.2669 60.3404 12.1697 60.1752 12.0823C59.5045 11.7712 59.174 11.2561 59.174 10.5757C59.174 10.0703 59.3684 9.65231 59.7669 9.31211C60.1557 8.98164 60.6903 8.81641 61.3415 8.81641C62.1677 8.81641 62.8481 9.08856 63.373 9.65231L62.6343 10.6243C62.226 10.2355 61.7789 10.0508 61.3027 10.0508C61.1083 10.0508 60.943 10.0897 60.8264 10.1869C60.7 10.2841 60.632 10.391 60.632 10.5271C60.632 10.7701 60.7972 10.9548 61.1374 11.0617C61.8956 11.3533 62.3621 11.5282 62.5371 11.6254C63.198 11.9656 63.5091 12.4613 63.5091 13.0931C63.5091 13.6471 63.2855 14.0845 62.8676 14.4344C62.4593 14.8038 61.9053 14.9885 61.2055 14.9885V14.9787Z" fill="#181818"/>
<path id="Vector_10" d="M63.7891 11.9152C63.7891 11.0502 64.0807 10.3406 64.6638 9.74773C65.2567 9.15483 65.9955 8.85352 66.8994 8.85352C67.8033 8.85352 68.5518 9.15483 69.1349 9.74773C69.7084 10.3212 70.0097 11.0502 70.0097 11.9152C70.0097 12.7803 69.7181 13.5093 69.1349 14.0828C68.542 14.6757 67.8033 14.9575 66.8994 14.9575C65.9955 14.9575 65.247 14.6659 64.6638 14.0828C64.0709 13.5093 63.7891 12.7803 63.7891 11.9152ZM65.7525 13.0913C66.0538 13.4024 66.4426 13.5676 66.9091 13.5676C67.3757 13.5676 67.7353 13.4024 68.0463 13.0913C68.3574 12.7609 68.5129 12.3624 68.5129 11.9152C68.5129 11.4681 68.3574 11.0599 68.0463 10.7489C67.7353 10.4378 67.3562 10.2726 66.9091 10.2726C66.462 10.2726 66.0538 10.4378 65.7525 10.7489C65.4511 11.0696 65.2956 11.4487 65.2956 11.9152C65.2956 12.3818 65.4511 12.7803 65.7525 13.0913Z" fill="#181818"/>
<path id="Vector_11" d="M72.1511 14.8215H70.6445V9.00903H72.1122V9.81577C72.2677 9.52418 72.5107 9.29091 72.8412 9.11595C73.1717 8.94099 73.5313 8.85352 73.9395 8.85352C74.5713 8.85352 75.1059 9.05763 75.5433 9.4853C75.9807 9.91297 76.2042 10.5059 76.2042 11.2737V14.8312H74.6977V11.682C74.6977 11.2251 74.5908 10.8752 74.3672 10.6225C74.1437 10.3795 73.8423 10.2337 73.473 10.2337C73.0745 10.2337 72.7634 10.3698 72.5107 10.642C72.2677 10.9141 72.1414 11.2737 72.1414 11.7014V14.802H72.1511V14.8215Z" fill="#181818"/>
<path id="Vector_12" d="M78.7882 7.43714C78.7882 7.69958 78.7104 7.91341 78.5257 8.09809C78.3508 8.27304 78.1272 8.36052 77.8648 8.36052C77.6023 8.36052 77.3885 8.28276 77.2038 8.09809C77.0289 7.92313 76.9414 7.69958 76.9414 7.43714C76.9414 7.17471 77.0192 6.96087 77.2038 6.79564C77.3788 6.62068 77.6023 6.5332 77.8648 6.5332C78.1272 6.5332 78.3411 6.61096 78.5257 6.79564C78.7007 6.96087 78.7882 7.18443 78.7882 7.43714ZM78.6035 9.02146V14.8339H77.0969V9.02146H78.6035Z" fill="#181818"/>
<path id="Vector_13" d="M82.294 14.9576C81.3998 14.9576 80.6611 14.666 80.0682 14.1022C79.4947 13.5385 79.2031 12.8095 79.2031 11.9153C79.2031 11.0211 79.4947 10.2921 80.0779 9.72834C80.6708 9.15487 81.4192 8.86328 82.3329 8.86328C82.9258 8.86328 83.4701 8.99936 83.9561 9.29095C84.4324 9.58254 84.8114 9.98106 85.0447 10.4865L83.8395 11.1474C83.4798 10.5545 82.9841 10.2726 82.3523 10.2726C81.8761 10.2726 81.4776 10.4379 81.1762 10.7489C80.8652 11.06 80.7097 11.4487 80.7097 11.9153C80.7097 12.3818 80.8652 12.7901 81.1665 13.1108C81.4873 13.4219 81.8663 13.5774 82.3329 13.5774C82.6342 13.5774 82.9258 13.4996 83.2077 13.3344C83.4798 13.1691 83.6839 12.965 83.8103 12.7026L85.035 13.4121C84.792 13.8787 84.4129 14.248 83.9367 14.5396C83.4409 14.8021 82.8966 14.9479 82.3037 14.9479L82.294 14.9576Z" fill="#181818"/>
</g>
<defs>
<clipPath id="clip0_10580_686">
<rect width="85.048" height="21.5099" fill="white"/>
</clipPath>
</defs>
</svg>
