<svg width="147" height="37" viewBox="0 0 147 37" fill="none" xmlns="http://www.w3.org/2000/svg">
<path d="M13.2626 6.33098H34.8368L35.144 4.96044C35.5928 2.83374 33.986 0.825195 31.8121 0.825195H10.8523C8.13487 0.825195 5.79548 2.71559 5.20473 5.36214L0.620523 26.5346C0.171554 28.6614 1.77839 30.6698 3.95234 30.6698H5.22837L9.9071 9.0248C10.2616 7.46522 11.6557 6.33098 13.2626 6.33098Z" fill="#00CDFA"/>
<path d="M36.1128 6.33203H34.8367L30.1579 27.9771C29.8271 29.5367 28.433 30.6709 26.8262 30.6709H5.25193L4.94474 32.0414C4.49578 34.1682 6.1026 36.1767 8.27657 36.1767H29.2364C31.9537 36.1767 34.2932 34.2863 34.8839 31.6397L39.4682 10.4909C39.9171 8.34059 38.2867 6.33203 36.1128 6.33203Z" fill="url(#paint0_linear_9204_501)"/>
<path d="M30.1579 27.9771L34.8367 6.33203H13.2625C11.6557 6.33203 10.2615 7.44265 9.93069 9.02585L5.25195 30.6709H26.8262C28.433 30.6709 29.8035 29.5367 30.1579 27.9771Z" fill="#3A00FF"/>
<path d="M12.2722 22.411L10.7109 14.2944H13.1592L13.9132 19.3595L16.3881 14.2944H18.0381L19.0049 19.3595L21.2758 14.2944H23.7241L19.759 22.411H17.7098L16.7341 17.6563L14.3479 22.411H12.2722Z" fill="white"/>
<path d="M22.8633 21.0984L24.1406 19.6169C24.7173 20.3266 25.4448 20.6903 26.3407 20.6903C26.9172 20.6903 27.4228 20.4508 27.5026 20.0516C27.5292 19.8122 27.3696 19.608 26.997 19.4307C26.9084 19.3864 26.7131 19.3153 26.4028 19.2089C25.7906 18.9694 25.5246 18.8806 24.9922 18.5437C24.2472 18.0824 23.8924 17.4436 24.0165 16.3437C24.2561 14.8446 25.631 14.0107 27.3696 14.0107C28.5583 14.0107 29.534 14.401 30.3235 15.1728L29.0639 16.6453C28.5406 16.1574 27.9373 15.9179 27.2544 15.9179C26.7043 15.9179 26.3762 16.0776 26.3052 16.4235C26.243 16.7074 26.3939 16.9469 26.7488 17.1065C26.864 17.1687 27.1034 17.2663 27.4583 17.3993C27.8131 17.5323 28.1148 17.6477 28.3631 17.7896C29.1615 18.1267 30.1017 18.9162 29.818 20.1225C29.6848 20.912 29.2856 21.533 28.6115 21.9766C27.9462 22.4201 27.1389 22.6418 26.2341 22.6418C24.7794 22.6329 23.6528 22.1273 22.8633 21.0984Z" fill="white"/>
<path d="M59.7109 25.5088H57.4183L52.9277 11.9424H55.9058L58.6474 21.0653L61.7199 11.9424H63.4453L66.5886 21.0653L69.2831 11.9424H72.2611L67.7941 25.5088H65.5015L62.618 16.6221L59.7109 25.5088Z" fill="#181818"/>
<path d="M74.8087 25.508H72.209V15.5105H74.7142V16.8576C75.3051 15.7705 76.2268 15.2505 77.4558 15.2505C77.8577 15.2505 78.2595 15.3214 78.6612 15.4632L78.4486 17.9449C77.9996 17.803 77.6213 17.7321 77.2668 17.7321C76.5105 17.7321 75.9196 17.9921 75.4706 18.4884C75.0451 18.9848 74.8087 19.7411 74.8087 20.7574V25.508Z" fill="#181818"/>
<path d="M82.1632 12.7938C82.1632 13.2428 82.0213 13.621 81.7141 13.9282C81.4068 14.2355 81.0287 14.3773 80.5796 14.3773C80.1306 14.3773 79.7523 14.2355 79.4451 13.9282C79.1378 13.621 78.9961 13.2428 78.9961 12.7938C78.9961 12.3447 79.1378 11.9666 79.4451 11.6829C79.7523 11.3757 80.1306 11.2339 80.5796 11.2339C81.0287 11.2339 81.4068 11.3757 81.7141 11.6829C82.0213 11.9666 82.1632 12.3447 82.1632 12.7938ZM81.8558 15.5118V25.5092H79.2561V15.5118H81.8558Z" fill="#181818"/>
<path d="M89.8946 22.8853L90.6746 24.9179C89.8475 25.4614 88.8548 25.745 87.7204 25.745C86.5623 25.745 85.7114 25.4142 85.1205 24.7524C84.5297 24.0907 84.246 23.0979 84.246 21.7981V17.662H82.6152V15.4876H84.2697V11.9424H86.8459V15.4876H90.1546V17.662H86.8459V21.6327C86.8459 22.8143 87.3185 23.4053 88.2639 23.4053C88.7366 23.4053 89.3039 23.2398 89.8946 22.8853Z" fill="#181818"/>
<path d="M100.72 20.2846C100.72 20.592 100.697 20.9701 100.626 21.4191H93.11C93.4883 22.8372 94.4573 23.5462 96.0171 23.5462C97.1751 23.5462 98.2625 23.2155 99.2551 22.53L100.271 24.3498C98.9951 25.2716 97.5534 25.7207 95.8989 25.7207C94.1499 25.7207 92.8028 25.2243 91.8574 24.2081C90.9357 23.2155 90.4629 21.9627 90.4629 20.4974C90.4629 18.9611 90.9357 17.7085 91.9047 16.7395C92.8737 15.7468 94.1264 15.2505 95.6625 15.2505C97.128 15.2505 98.3096 15.6996 99.2551 16.5977C100.248 17.5194 100.72 18.7484 100.72 20.2846ZM95.7099 17.4013C95.0718 17.4013 94.5045 17.5904 94.0554 17.9685C93.6064 18.3466 93.2992 18.843 93.1337 19.5048H98.2151C98.097 18.8666 97.8134 18.3466 97.3644 17.9685C96.9153 17.5904 96.3716 17.4013 95.7099 17.4013Z" fill="#181818"/>
<path d="M105.064 25.7685C103.315 25.7685 101.944 25.1302 100.928 23.8304L102.298 22.1995C102.653 22.625 103.078 22.9559 103.575 23.2159C104.071 23.4759 104.567 23.594 105.064 23.594C105.466 23.594 105.773 23.4995 106.056 23.3104C106.316 23.1214 106.458 22.885 106.458 22.6014C106.458 22.2469 106.222 21.9633 105.749 21.7505C105.607 21.6796 105.206 21.5379 104.567 21.3015C104 21.0888 103.575 20.9233 103.291 20.7579C102.133 20.2143 101.566 19.3398 101.566 18.158C101.566 17.2836 101.897 16.5745 102.582 15.9837C103.244 15.4164 104.166 15.1328 105.3 15.1328C106.718 15.1328 107.9 15.6055 108.798 16.5745L107.522 18.2527C106.813 17.5908 106.056 17.2599 105.229 17.2599C104.898 17.2599 104.615 17.3308 104.402 17.4963C104.189 17.6618 104.071 17.8508 104.071 18.0872C104.071 18.5125 104.355 18.8198 104.946 19.0089C106.246 19.5053 107.049 19.8124 107.356 19.9779C108.491 20.5688 109.034 21.4196 109.034 22.5069C109.034 23.4522 108.656 24.2085 107.924 24.823C107.215 25.4611 106.269 25.7685 105.064 25.7685Z" fill="#181818"/>
<path d="M109.504 20.4995C109.504 19.0105 110 17.7815 111.017 16.7653C112.033 15.749 113.309 15.229 114.869 15.229C116.429 15.229 117.705 15.749 118.722 16.7653C119.714 17.7579 120.234 19.0105 120.234 20.4995C120.234 21.9885 119.738 23.2411 118.722 24.2339C117.705 25.2501 116.429 25.7465 114.869 25.7465C113.309 25.7465 112.033 25.2501 111.017 24.2339C110 23.2411 109.504 21.9885 109.504 20.4995ZM112.884 22.5321C113.404 23.0757 114.065 23.3594 114.869 23.3594C115.649 23.3594 116.287 23.0757 116.831 22.5321C117.374 21.9649 117.634 21.2795 117.634 20.4995C117.634 19.7195 117.374 19.0343 116.831 18.4905C116.287 17.9469 115.649 17.6634 114.869 17.6634C114.065 17.6634 113.404 17.9469 112.884 18.4905C112.364 19.0343 112.104 19.6959 112.104 20.4995C112.104 21.3031 112.364 21.9885 112.884 22.5321Z" fill="#181818"/>
<path d="M123.902 25.508H121.303V15.5105H123.832V16.9049C124.092 16.4086 124.517 16.0068 125.084 15.6995C125.651 15.3923 126.266 15.2505 126.975 15.2505C128.062 15.2505 128.984 15.605 129.74 16.3377C130.497 17.0704 130.875 18.0866 130.875 19.4101V25.5316H128.275V20.1192C128.275 19.3394 128.086 18.7248 127.708 18.2994C127.33 17.8739 126.81 17.6375 126.171 17.6375C125.486 17.6375 124.942 17.8739 124.517 18.3466C124.092 18.8194 123.879 19.4339 123.879 20.1665V25.508H123.902Z" fill="#181818"/>
<path d="M135.317 12.7938C135.317 13.2428 135.176 13.621 134.868 13.9282C134.561 14.2355 134.183 14.3773 133.734 14.3773C133.285 14.3773 132.907 14.2355 132.599 13.9282C132.292 13.621 132.15 13.2428 132.15 12.7938C132.15 12.3447 132.292 11.9666 132.599 11.6829C132.907 11.3757 133.285 11.2339 133.734 11.2339C134.183 11.2339 134.561 11.3757 134.868 11.6829C135.176 11.9666 135.317 12.3447 135.317 12.7938ZM135.01 15.5118V25.5092H132.41V15.5118H135.01Z" fill="#181818"/>
<path d="M141.371 25.7455C139.834 25.7455 138.558 25.2493 137.542 24.2802C136.549 23.3112 136.053 22.0586 136.053 20.5223C136.053 18.9861 136.549 17.7335 137.565 16.7644C138.582 15.7717 139.882 15.2754 141.441 15.2754C142.458 15.2754 143.403 15.5117 144.23 16.0081C145.058 16.5044 145.696 17.1897 146.098 18.0642L144.018 19.1987C143.403 18.1825 142.552 17.6861 141.465 17.6861C140.638 17.6861 139.953 17.9697 139.433 18.5133C138.889 19.057 138.629 19.7187 138.629 20.5223C138.629 21.3496 138.889 22.0349 139.409 22.5786C139.953 23.1222 140.614 23.3822 141.418 23.3822C141.938 23.3822 142.434 23.2403 142.93 22.9567C143.403 22.6731 143.758 22.3186 143.97 21.8696L146.074 23.0984C145.648 23.9021 145.01 24.5402 144.183 25.0365C143.332 25.4857 142.387 25.7455 141.371 25.7455Z" fill="#181818"/>
<defs>
<linearGradient id="paint0_linear_9204_501" x1="4.86868" y1="21.2577" x2="39.5343" y2="21.2577" gradientUnits="userSpaceOnUse">
<stop stop-color="#FFB3FF"/>
<stop offset="0.5335" stop-color="#FF76DF"/>
<stop offset="1" stop-color="#C239C6"/>
</linearGradient>
</defs>
</svg>
