<svg width="86" height="23" viewBox="0 0 86 23" fill="none" xmlns="http://www.w3.org/2000/svg">
<g id="Layer_1" clip-path="url(#clip0_10228_3856)">
<path id="Vector (Stroke)" fill-rule="evenodd" clip-rule="evenodd" d="M3.32132 3.83111C3.71952 2.08343 5.26905 0.830078 7.06665 0.830078H19.2008C20.7714 0.830078 21.9263 2.27947 21.6016 3.80695L21.6009 3.81007L21.3431 4.98456H8.47084C7.77025 4.98456 7.15181 5.4833 6.99709 6.16418C6.99695 6.16484 6.9968 6.16549 6.99665 6.16614L4.20343 19.0749H3.0768C1.50624 19.0749 0.351302 17.6255 0.676043 16.0981L0.676337 16.0967L3.32132 3.83111ZM8.46116 4.01617C7.30715 4.02071 6.30408 4.83661 6.05202 5.95284L3.42215 18.1065H3.0768C2.12972 18.1065 1.42541 17.2321 1.62314 16.3001C1.6231 16.3003 1.62319 16.2999 1.62314 16.3001L4.26613 4.04361C4.56613 2.73249 5.72749 1.79849 7.06665 1.79849H19.2008C20.1477 1.79849 20.8518 2.67242 20.6546 3.60419C20.6545 3.60465 20.6544 3.60511 20.6543 3.60557L20.5642 4.01615L8.46116 4.01617Z" fill="#B9C8DE"/>
<path id="Vector (Stroke)_2" fill-rule="evenodd" clip-rule="evenodd" d="M20.5645 4.01562H21.6911C23.2587 4.01562 24.4357 5.46157 24.1116 7.01037L24.1109 7.01375L21.4563 19.2594C21.0581 21.0071 19.5086 22.2605 17.711 22.2605H5.5768C4.00623 22.2605 2.8513 20.8111 3.17604 19.2836L3.17672 19.2805L3.43453 18.106H16.3165C17.0158 18.106 17.6241 17.6089 17.7702 16.9293L20.5645 4.01562ZM21.3458 4.98404L18.717 17.1329C18.4758 18.2545 17.4764 19.0744 16.3165 19.0744H4.21342L4.12328 19.485C4.12318 19.4855 4.12307 19.486 4.12297 19.4865C3.92583 20.4182 4.63 21.2921 5.5768 21.2921H17.711C19.0502 21.2921 20.2116 20.358 20.5115 19.0468L23.1637 6.81198C23.1638 6.81142 23.1639 6.81086 23.1641 6.8103C23.3616 5.86124 22.6409 4.98404 21.6911 4.98404H21.3458Z" fill="#B9C8DE"/>
<path id="Vector" d="M18.2399 17.0312L20.9515 4.5H8.45899C7.52932 4.5 6.72554 5.13915 6.53186 6.05914L3.82031 18.5904H16.3128C17.2425 18.5904 18.0366 17.9318 18.2399 17.0312Z" fill="#B9C8DE"/>
<path id="Vector_2" d="M7.8889 13.8081L6.98828 9.11133H8.40216L8.83794 12.0456L10.2712 9.11133H11.2299L11.7916 12.0456L13.1086 9.11133H14.5225L12.2274 13.8081H11.0459L10.4842 11.0578L9.09941 13.8081H7.89859H7.8889Z" fill="#130C49"/>
<path id="Vector_3" d="M14.0195 13.0515L14.7555 12.1896C15.0848 12.5963 15.5109 12.8093 16.0241 12.8093C16.3534 12.8093 16.6536 12.6738 16.6923 12.4414C16.7117 12.3058 16.6149 12.1799 16.4018 12.083C16.3534 12.054 16.2372 12.0153 16.0532 11.9571C15.6949 11.8216 15.5496 11.7635 15.2397 11.5698C14.8039 11.2986 14.6006 10.9306 14.6781 10.3012C14.8136 9.4296 15.6077 8.95508 16.6149 8.95508C17.3024 8.95508 17.8641 9.17781 18.329 9.62328L17.6026 10.4755C17.3024 10.1946 16.9538 10.0591 16.5568 10.0591C16.2372 10.0591 16.0532 10.1559 16.0048 10.3496C15.966 10.5142 16.0532 10.6498 16.2662 10.7466C16.334 10.7854 16.4696 10.8435 16.673 10.9209C16.8763 10.9984 17.0507 11.0662 17.1959 11.1437C17.6608 11.3374 18.2031 11.7925 18.0384 12.4898C17.961 12.9449 17.7285 13.3032 17.3412 13.5647C16.9538 13.8262 16.489 13.9521 15.966 13.9521C15.1235 13.9521 14.4747 13.6519 14.0195 13.0611V13.0515Z" fill="#130C49"/>
<path id="Vector_4" d="M35.3439 15.5999H34.0172L31.4219 7.74609H33.1456L34.7338 13.0239L36.5157 7.74609H37.5132L39.3338 13.0239L40.8929 7.74609H42.6167L40.031 15.5999H38.7043L37.0387 10.4576L35.3536 15.5999H35.3439Z" fill="#B9C8DE"/>
<path id="Vector_5" d="M44.0909 15.5985H42.5898V9.80737H44.0425V10.5918C44.3814 9.96232 44.914 9.66211 45.6306 9.66211C45.8631 9.66211 46.0955 9.70085 46.3279 9.788L46.202 11.2212C45.9405 11.1438 45.7275 11.0954 45.5144 11.0954C45.0787 11.0954 44.73 11.2503 44.4782 11.5311C44.2361 11.8217 44.0909 12.2574 44.0909 12.8482V15.5985Z" fill="#B9C8DE"/>
<path id="Vector_6" d="M48.3517 8.23851C48.3517 8.49998 48.2742 8.71303 48.0902 8.89703C47.9159 9.07134 47.6932 9.1585 47.4317 9.1585C47.1702 9.1585 46.9572 9.08103 46.7732 8.89703C46.5989 8.72272 46.5117 8.49998 46.5117 8.23851C46.5117 7.97704 46.5892 7.76399 46.7732 7.59936C46.9475 7.42505 47.1702 7.33789 47.4317 7.33789C47.6932 7.33789 47.9062 7.41536 48.0902 7.59936C48.2645 7.76399 48.3517 7.98673 48.3517 8.23851ZM48.1677 9.81702V15.6081H46.6667V9.81702H48.1677Z" fill="#B9C8DE"/>
<path id="Vector_7" d="M52.824 14.0892L53.2791 15.261C52.8046 15.5708 52.2236 15.7355 51.5651 15.7355C50.9065 15.7355 50.403 15.5418 50.064 15.1641C49.7251 14.7767 49.5605 14.2054 49.5605 13.45V11.0581H48.6211V9.79912H49.5798V7.74609H51.0712V9.79912H52.9886V11.0581H51.0712V13.3532C51.0712 14.0408 51.3423 14.3797 51.8943 14.3797C52.1655 14.3797 52.4947 14.2829 52.8337 14.0795L52.824 14.0892Z" fill="#B9C8DE"/>
<path id="Vector_8" d="M59.0907 12.577C59.0907 12.7513 59.081 12.9741 59.0326 13.2355H54.6845C54.9072 14.0587 55.4689 14.4654 56.3695 14.4654C57.0377 14.4654 57.6672 14.2717 58.2482 13.8747L58.8389 14.9303C58.103 15.4629 57.2701 15.7244 56.3114 15.7244C55.2946 15.7244 54.5198 15.4338 53.9678 14.8528C53.4352 14.2814 53.1641 13.5551 53.1641 12.7029C53.1641 11.8507 53.4352 11.0857 53.9969 10.524C54.5586 9.95263 55.2849 9.66211 56.1758 9.66211C57.0668 9.66211 57.7059 9.92358 58.2579 10.4465C58.8293 10.9791 59.1101 11.6958 59.1101 12.577H59.0907ZM56.1855 10.9114C55.8175 10.9114 55.4882 11.0179 55.2268 11.2406C54.9653 11.4634 54.791 11.7442 54.6942 12.1316H57.6381C57.5703 11.7636 57.4057 11.4634 57.1442 11.2406C56.8828 11.0179 56.5729 10.9114 56.1855 10.9114Z" fill="#B9C8DE"/>
<path id="Vector_9" d="M61.599 15.753C60.5822 15.753 59.7978 15.385 59.207 14.6296L60.0011 13.6903C60.2045 13.9324 60.4563 14.1261 60.7371 14.281C61.0276 14.436 61.3085 14.5038 61.599 14.5038C61.8314 14.5038 62.0057 14.4456 62.1704 14.3391C62.3253 14.2326 62.4028 14.097 62.4028 13.9324C62.4028 13.729 62.2672 13.5644 61.9961 13.4385C61.9186 13.3998 61.6862 13.3126 61.3085 13.177C60.9792 13.0511 60.7371 12.9543 60.5725 12.8671C59.9043 12.5572 59.575 12.044 59.575 11.3661C59.575 10.8625 59.7687 10.4461 60.1658 10.1072C60.5531 9.77791 61.0857 9.61328 61.7346 9.61328C62.5577 9.61328 63.2356 9.88444 63.7586 10.4461L63.0226 11.4145C62.6158 11.0272 62.1704 10.8432 61.6958 10.8432C61.5022 10.8432 61.3375 10.8819 61.2213 10.9787C61.0954 11.0756 61.0276 11.1821 61.0276 11.3177C61.0276 11.5598 61.1923 11.7438 61.5312 11.8503C62.2866 12.1408 62.7514 12.3151 62.9257 12.412C63.5842 12.7509 63.8941 13.2448 63.8941 13.8743C63.8941 14.4263 63.6714 14.8621 63.255 15.2107C62.8483 15.5787 62.2963 15.7627 61.599 15.7627V15.753Z" fill="#B9C8DE"/>
<path id="Vector_10" d="M64.1719 12.7028C64.1719 11.841 64.4624 11.134 65.0434 10.5433C65.6342 9.95255 66.3702 9.65234 67.2708 9.65234C68.1714 9.65234 68.9171 9.95255 69.4981 10.5433C70.0695 11.1146 70.3697 11.841 70.3697 12.7028C70.3697 13.5647 70.0792 14.291 69.4981 14.8624C68.9074 15.4531 68.1714 15.734 67.2708 15.734C66.3702 15.734 65.6245 15.4434 65.0434 14.8624C64.4527 14.291 64.1719 13.5647 64.1719 12.7028ZM66.1281 13.8746C66.4283 14.1845 66.8156 14.3491 67.2805 14.3491C67.7453 14.3491 68.1036 14.1845 68.4135 13.8746C68.7234 13.5454 68.8783 13.1483 68.8783 12.7028C68.8783 12.2574 68.7234 11.8506 68.4135 11.5407C68.1036 11.2309 67.7259 11.0662 67.2805 11.0662C66.835 11.0662 66.4283 11.2309 66.1281 11.5407C65.8279 11.8603 65.6729 12.238 65.6729 12.7028C65.6729 13.1677 65.8279 13.5647 66.1281 13.8746Z" fill="#B9C8DE"/>
<path id="Vector_11" d="M72.501 15.5984H71V9.80729H72.4623V10.6111C72.6172 10.3205 72.8593 10.0881 73.1886 9.91381C73.5179 9.7395 73.8762 9.65234 74.2829 9.65234C74.9124 9.65234 75.445 9.85571 75.8808 10.2818C76.3166 10.7079 76.5393 11.2986 76.5393 12.0637V15.6081H75.0383V12.4704C75.0383 12.0153 74.9317 11.6666 74.709 11.4149C74.4863 11.1727 74.1861 11.0275 73.8181 11.0275C73.421 11.0275 73.1111 11.1631 72.8593 11.4342C72.6172 11.7054 72.4914 12.0637 72.4914 12.4898V15.579H72.501V15.5984Z" fill="#B9C8DE"/>
<path id="Vector_12" d="M79.1173 8.23851C79.1173 8.49998 79.0398 8.71303 78.8558 8.89703C78.6815 9.07134 78.4588 9.1585 78.1973 9.1585C77.9359 9.1585 77.7228 9.08103 77.5388 8.89703C77.3645 8.72272 77.2773 8.49998 77.2773 8.23851C77.2773 7.97704 77.3548 7.76399 77.5388 7.59936C77.7131 7.42505 77.9359 7.33789 78.1973 7.33789C78.4588 7.33789 78.6719 7.41536 78.8558 7.59936C79.0302 7.76399 79.1173 7.98673 79.1173 8.23851ZM78.9333 9.81702V15.6081H77.4323V9.81702H78.9333Z" fill="#B9C8DE"/>
<path id="Vector_13" d="M82.6108 15.734C81.7199 15.734 80.9839 15.4435 80.3931 14.8818C79.8218 14.3202 79.5312 13.5939 79.5312 12.7029C79.5312 11.812 79.8218 11.0857 80.4028 10.524C80.9936 9.95263 81.7392 9.66211 82.6495 9.66211C83.2403 9.66211 83.7826 9.79769 84.2668 10.0882C84.7413 10.3787 85.119 10.7758 85.3514 11.2794L84.1506 11.9379C83.7923 11.3471 83.2984 11.0663 82.6689 11.0663C82.1944 11.0663 81.7973 11.2309 81.4971 11.5408C81.1872 11.8507 81.0323 12.2381 81.0323 12.7029C81.0323 13.1678 81.1872 13.5745 81.4874 13.8941C81.807 14.204 82.1847 14.3589 82.6495 14.3589C82.9497 14.3589 83.2403 14.2814 83.5211 14.1168C83.7923 13.9522 83.9956 13.7488 84.1215 13.4873L85.3417 14.1943C85.0996 14.6591 84.7219 15.0271 84.2474 15.3176C83.7535 15.5791 83.2112 15.7244 82.6205 15.7244L82.6108 15.734Z" fill="#B9C8DE"/>
</g>
<defs>
<clipPath id="clip0_10228_3856">
<rect width="84.7358" height="21.4309" fill="white" transform="translate(0.617188 0.830078)"/>
</clipPath>
</defs>
</svg>
