<svg width="48" height="48" viewBox="0 0 48 48" fill="none" xmlns="http://www.w3.org/2000/svg">
<path d="M37.1919 0H10.7951C4.83248 0 0 4.83892 0 10.7935V37.2065C0 43.1741 4.83248 48 10.7951 48H37.2049C43.1675 48 48 43.1611 48 37.2065V10.7935C48 4.82595 43.1675 0 37.2049 0H37.1919Z" fill="#61D384"/>
<path d="M21.3848 31.3946L18.293 39.1265C12.1875 36.8303 7.83567 30.9405 7.80969 24.0519L16.1496 24C16.1496 27.4119 18.332 30.3049 21.3848 31.3946Z" fill="#130C49"/>
<path d="M19.0182 40.7999L17.8231 40.3459C11.068 37.8032 6.52134 31.2648 6.49536 24.0648V22.7675L17.4334 22.7026V24.0129C17.4334 26.7762 19.1871 29.254 21.7982 30.188L23.0713 30.6421L19.0052 40.7999H19.0182ZM9.17141 25.3491C9.65206 30.5383 12.8737 35.1697 17.5763 37.414L19.7067 32.0691C17.1346 30.707 15.3549 28.1772 14.9392 25.2972L9.15842 25.3362L9.17141 25.3491Z" fill="#61D384"/>
<path d="M40.1801 24.014C40.1801 32.9394 32.9314 40.1784 23.9809 40.1784C21.9674 40.1784 20.0448 39.8151 18.2781 39.1405L21.3698 31.4086C22.1882 31.694 23.0716 31.8497 23.9809 31.8497C28.3327 31.8497 31.8402 28.347 31.8402 24.014C31.8402 21.3546 30.5281 19.0065 28.5146 17.5924L32.9834 10.5481C37.3352 13.454 40.1931 18.3967 40.1931 24.014H40.1801Z" fill="#130C49"/>
<path d="M23.9927 41.4755C21.8753 41.4755 19.7968 41.0993 17.8222 40.3469L16.5881 39.8798L20.6282 29.7609L21.7973 30.176C22.4988 30.4225 23.2263 30.5393 23.9797 30.5393C27.5911 30.5393 30.54 27.6074 30.54 24.0009C30.54 21.8604 29.5007 19.8625 27.76 18.6431L26.7467 17.9296L32.5925 8.71875L33.6967 9.45821C38.5681 12.7144 41.478 18.1501 41.478 24.0009C41.478 33.6269 33.6317 41.4625 23.9797 41.4625L23.9927 41.4755ZM20.0046 38.336C21.2907 38.6993 22.6287 38.8809 23.9927 38.8809C32.2027 38.8809 38.8929 32.2128 38.8929 24.0139C38.8929 19.4733 36.8404 15.2312 33.3459 12.416L30.2412 17.3069C32.0858 19.0193 33.1511 21.4452 33.1511 24.0009C33.1511 29.0344 29.046 33.1339 23.9927 33.1339C23.3692 33.1339 22.7586 33.069 22.1611 32.9523L20.0046 38.3231V38.336Z" fill="#61D384"/>
<path d="M32.9847 10.5458L28.516 17.5901C27.2559 16.695 25.71 16.1631 24.0472 16.1631L23.9563 7.83447H23.9953C27.3208 7.83447 30.4126 8.83339 32.9847 10.5588V10.5458Z" fill="#ECF4F8"/>
<path d="M28.8773 19.4325L27.7601 18.6412C26.6689 17.8628 25.3699 17.4606 24.0318 17.4477H22.7588L22.6418 6.52441H23.9539C27.4743 6.52441 30.8259 7.53631 33.6968 9.46928L34.749 10.1698L28.8773 19.4325ZM25.3309 14.9568C26.2922 15.0995 27.2275 15.385 28.0979 15.826L31.1766 10.9741C29.3579 9.96225 27.3444 9.36549 25.2659 9.18387L25.3309 14.9568Z" fill="#61D384"/>
<path d="M24.0479 16.1504H23.9959C19.6571 16.1504 16.1496 19.6531 16.1496 23.9991L7.80969 24.051V23.9991C7.80969 15.0737 15.0324 7.84772 23.9569 7.82178L24.0479 16.1504Z" fill="#ECF4F8"/>
<path d="M6.51062 25.3612V24.0509C6.51062 14.386 14.3309 6.55036 23.9569 6.52441H25.243L25.3599 17.4477H23.9959C20.3845 17.4477 17.4486 20.3925 17.4486 23.999V25.2833L6.51062 25.3482V25.3612ZM22.6708 9.18387C15.5001 9.81955 9.75825 15.5795 9.16069 22.7536L14.9415 22.7147C15.5131 18.6931 18.7087 15.5017 22.7358 14.9439L22.6708 9.18387Z" fill="#61D384"/>
<path d="M23.9947 26.4909C25.3717 26.4909 26.4889 25.3752 26.4889 24.0001C26.4889 22.625 25.3717 21.5093 23.9947 21.5093C22.6177 21.5093 21.5005 22.625 21.5005 24.0001C21.5005 25.3752 22.6177 26.4909 23.9947 26.4909Z" fill="#ECF4F8"/>
</svg>
