<svg width="48" height="48" viewBox="0 0 48 48" fill="none" xmlns="http://www.w3.org/2000/svg">
<path d="M37.1919 0H10.7951C4.83248 0 0 4.83892 0 10.7935V37.2065C0 43.1741 4.83248 48 10.7951 48H37.2049C43.1675 48 48 43.1611 48 37.2065V10.7935C48 4.82595 43.1675 0 37.2049 0H37.1919Z" fill="#61D384"/>
<path d="M35.7349 35.724C38.2918 33.1706 35.1086 25.8519 28.6252 19.3772C22.1418 12.9025 14.8131 9.72366 12.2563 12.2771C9.69944 14.8305 12.8826 22.1492 19.366 28.6238C25.8495 35.0985 33.1781 38.2774 35.7349 35.724Z" fill="#130C49"/>
<path d="M28.6252 28.6253C35.1086 22.1506 38.2918 14.8319 35.7349 12.2785C33.1781 9.72509 25.8495 12.9039 19.366 19.3786C12.8826 25.8533 9.69945 33.172 12.2563 35.7254C14.8131 38.2788 22.1418 35.1 28.6252 28.6253Z" fill="#ECF4F8"/>
<path d="M23.954 26.8154C25.331 26.8154 26.4482 25.6997 26.4482 24.3246C26.4482 22.9494 25.331 21.8337 23.954 21.8337C22.577 21.8337 21.4598 22.9494 21.4598 24.3246C21.4598 25.6997 22.577 26.8154 23.954 26.8154Z" fill="#130C49"/>
<path d="M39.0909 26.4909C40.4679 26.4909 41.585 25.3752 41.585 24.0001C41.585 22.625 40.4679 21.5093 39.0909 21.5093C37.7139 21.5093 36.5967 22.625 36.5967 24.0001C36.5967 25.3752 37.7139 26.4909 39.0909 26.4909Z" fill="#130C49"/>
<path d="M23.9947 11.7673C25.3717 11.7673 26.4889 10.6516 26.4889 9.27646C26.4889 7.90132 25.3717 6.78564 23.9947 6.78564C22.6177 6.78564 21.5005 7.90132 21.5005 9.27646C21.5005 10.6516 22.6177 11.7673 23.9947 11.7673Z" fill="#130C49"/>
<path d="M8.14701 26.4909C9.52401 26.4909 10.6412 25.3752 10.6412 24.0001C10.6412 22.625 9.52401 21.5093 8.14701 21.5093C6.77002 21.5093 5.65283 22.625 5.65283 24.0001C5.65283 25.3752 6.77002 26.4909 8.14701 26.4909Z" fill="#ECF4F8"/>
<path d="M23.9947 41.8C25.3717 41.8 26.4889 40.6843 26.4889 39.3092C26.4889 37.934 25.3717 36.8184 23.9947 36.8184C22.6177 36.8184 21.5005 37.934 21.5005 39.3092C21.5005 40.6843 22.6177 41.8 23.9947 41.8Z" fill="#ECF4F8"/>
</svg>
