<svg width="48" height="48" viewBox="0 0 48 48" fill="none" xmlns="http://www.w3.org/2000/svg">
<path d="M37.2049 0H10.7951C4.83248 0 0 4.83892 0 10.7935V37.2065C0 43.1741 4.83248 48 10.7951 48H37.2049C43.1675 48 48 43.1611 48 37.2065V10.7935C48 4.82594 43.1675 0 37.2049 0Z" fill="#61D384"/>
<path d="M37.4008 15.022C35.5197 13.8155 30.8624 11.169 24.35 11.0652C17.3964 10.9615 12.4018 13.8285 10.5337 15.022C10.3781 17.435 10.3781 22.6112 13.1413 28.2415C16.4624 35.0004 21.7554 38.3604 23.831 39.528C25.9197 38.3734 31.057 35.1561 34.4429 28.6696C37.4916 22.8447 37.5175 17.435 37.3878 15.022H37.4008Z" fill="#ECF4F8"/>
<path d="M26.8139 20.6004C26.8139 19.0306 25.5425 17.7593 23.9728 17.7593C22.4031 17.7593 21.1317 19.0306 21.1317 20.6004C21.1317 21.6512 21.7155 22.5722 22.5717 23.0522L21.6117 29.4479H26.3469L25.3609 23.0652C26.2301 22.5723 26.8139 21.6641 26.8139 20.6004Z" fill="#130C49"/>
</svg>
