<svg width="48" height="48" viewBox="0 0 48 48" fill="none" xmlns="http://www.w3.org/2000/svg">
<path d="M37.206 0H10.794C4.83265 0 0 4.83264 0 10.794V37.206C0 43.1674 4.83265 48 10.794 48H37.206C43.1674 48 48 43.1674 48 37.206V10.794C48 4.83264 43.1674 0 37.206 0Z" fill="#61D384"/>
<path d="M13.9964 36.4844H14.0024C15.3776 36.4844 16.4924 35.3696 16.4924 33.9944C16.4924 32.6192 15.3776 31.5044 14.0024 31.5044H13.9964C12.6212 31.5044 11.5064 32.6192 11.5064 33.9944C11.5064 35.3696 12.6212 36.4844 13.9964 36.4844Z" fill="#ECF4F8"/>
<path d="M34.014 16.5474H34.02C35.3952 16.5474 36.51 15.4326 36.51 14.0574C36.51 12.6822 35.3952 11.5674 34.02 11.5674H34.014C32.6388 11.5674 31.524 12.6822 31.524 14.0574C31.524 15.4326 32.6388 16.5474 34.014 16.5474Z" fill="#ECF4F8"/>
<path d="M36.5197 36.4863H21.5617L21.5137 26.5203H26.4577L26.4997 21.5403H36.5197V36.4863Z" fill="#130C49"/>
<path d="M11.4635 11.5508H26.4275L26.4695 21.5108H21.5315L21.4895 26.4968H11.4635V11.5508Z" fill="#ECF4F8"/>
</svg>
