<svg width="48" height="48" viewBox="0 0 48 48" fill="none" xmlns="http://www.w3.org/2000/svg">
<path d="M37.1919 0H10.7951C4.83248 0 0 4.83892 0 10.7935V37.2065C0 43.1741 4.83248 48 10.7951 48H37.2049C43.1675 48 48 43.1611 48 37.2065V10.7935C48 4.82595 43.1675 0 37.2049 0H37.1919Z" fill="#61D384"/>
<path d="M38.3373 38.2956H28.5944V34.4038H34.4401V28.5659H38.3373V38.2956Z" fill="#130C49"/>
<path d="M19.6025 38.2956H9.85962V28.5659H13.7568V34.4038H19.6025V38.2956Z" fill="#130C49"/>
<path d="M13.7568 19.5764H9.85962V9.84668H19.6025V13.7386H13.7568V19.5764Z" fill="#130C49"/>
<path d="M38.3373 19.5764H34.4401V13.7386H28.5944V9.84668H38.3373V19.5764Z" fill="#130C49"/>
<path d="M31.0891 17.0854H17.1113V31.0444H31.0891V17.0854Z" fill="#ECF4F8"/>
</svg>
