<svg width="98" height="98" viewBox="0 0 98 98" fill="none" xmlns="http://www.w3.org/2000/svg">
<circle cx="48.5774" cy="48.5774" r="48.5774" fill="#262262"/>
<path d="M30 32.0397C30.1008 31.9861 30.1818 32.0065 30.2596 32.0065C33.998 32.0054 37.7365 32.0065 41.476 32.0022C41.6534 32.0022 41.7662 32.0515 41.8758 32.1943C44.4904 35.5925 47.1105 38.9864 49.7305 42.3813C49.8233 42.5008 49.9233 42.5008 50.0307 42.3813C53.0363 39.0143 56.043 35.6494 59.0421 32.2781C59.2163 32.0827 59.3849 31.9989 59.6544 32C61.3259 32.0129 62.9974 32.0065 64.6678 32.0075C64.7467 32.0075 64.8277 31.9903 64.9143 32.029C64.8902 32.117 64.8179 32.1696 64.7631 32.2308C60.7596 36.7166 56.755 41.2024 52.7515 45.6882C52.7121 45.7333 52.677 45.7827 52.631 45.8213C52.5116 45.9222 52.5171 46.0081 52.6157 46.1338C53.2302 46.9154 53.8337 47.7045 54.4416 48.4915C58.628 53.9157 62.8156 59.3409 67.002 64.7651C67.0305 64.8016 67.0579 64.8392 67.0863 64.8757C67.14 64.9444 67.1269 64.982 67.0349 64.983C66.9878 64.983 66.9407 64.983 66.8936 64.983C63.2417 64.983 59.5909 64.982 55.939 64.9873C55.7637 64.9873 55.6607 64.9294 55.5578 64.7962C52.6584 61.0727 49.7546 57.3536 46.8519 53.6322C46.749 53.5005 46.6409 53.4984 46.5277 53.6258C43.1902 57.3632 39.8516 61.0996 36.5162 64.8392C36.4242 64.9422 36.33 64.9863 36.1898 64.9852C34.4515 64.9809 32.7132 64.983 30.9749 64.9809C30.9069 64.9809 30.8084 65.0238 30.7766 64.9433C30.7536 64.8843 30.8401 64.837 30.8829 64.7887C35.1952 59.9561 39.5098 55.1236 43.8233 50.2921C43.8496 50.262 43.8726 50.2287 43.9033 50.204C44.0336 50.0977 44.0227 50.0065 43.9186 49.8744C42.6863 48.3047 41.4617 46.7307 40.2349 45.1578C36.8711 40.8481 33.5073 36.5373 30.1424 32.2266C30.0986 32.1696 30.0548 32.1117 30 32.0397ZM38.3455 35.1512C37.8756 35.1512 37.4057 35.1491 36.9358 35.1534C36.8394 35.1534 36.7035 35.1008 36.6564 35.1942C36.617 35.2736 36.7353 35.3488 36.7912 35.4196C41.9075 41.9765 47.0261 48.5323 52.1436 55.0881C53.8118 57.2247 55.4778 59.3624 57.1438 61.5001C57.214 61.5903 57.2764 61.6676 57.4155 61.6665C58.3619 61.66 59.3083 61.6633 60.2546 61.6622C60.305 61.6622 60.3707 61.6847 60.3992 61.6246C60.4277 61.5677 60.3707 61.5291 60.3423 61.4872C60.3204 61.4539 60.2941 61.4238 60.27 61.3927C57.0102 57.17 53.7505 52.9483 50.4907 48.7256C47.0414 44.2559 43.5933 39.7862 40.1473 35.3144C40.0575 35.1974 39.9666 35.1448 39.8143 35.148C39.3247 35.1577 38.834 35.1512 38.3444 35.1512H38.3455Z" fill="white"/>
</svg>
