<svg width="19" height="18" viewBox="0 0 19 18" fill="none" xmlns="http://www.w3.org/2000/svg">
<g id="Youtube-Clip-Logo--Streamline-Logos (1) 2">
<path id="Vector" d="M1.95801 9.11153C1.95801 8.03235 2.00988 7.01454 2.07784 6.16113C2.18013 4.87225 3.20159 3.88148 4.4912 3.79161C5.7304 3.70466 7.42334 3.63159 9.62993 3.63159C11.8365 3.63159 13.5295 3.70466 14.7687 3.79161C16.0583 3.88148 17.0797 4.87298 17.182 6.16113C17.25 7.01527 17.3018 8.03162 17.3018 9.11153C17.3018 10.2294 17.2463 11.2809 17.1747 12.1533C17.1309 12.7492 16.8723 13.3089 16.4468 13.7283C16.0213 14.1478 15.4579 14.3984 14.8614 14.4337C13.6098 14.5191 11.8584 14.5915 9.62993 14.5915C7.40142 14.5915 5.65003 14.5191 4.39841 14.4337C3.80196 14.3984 3.2386 14.1478 2.8131 13.7283C2.38759 13.3089 2.12891 12.7492 2.08514 12.1533C2.00186 11.1415 1.95945 10.1267 1.95801 9.11153Z" stroke="black" stroke-width="0.730659" stroke-linejoin="round"/>
<path id="Vector_2" d="M8.16895 11.3036V6.91968L12.1876 9.11165L8.16895 11.3036Z" stroke="black" stroke-width="0.730659" stroke-linejoin="round"/>
</g>
</svg>
