<?xml version="1.0" encoding="UTF-8"?><svg id="Layer_2" xmlns="http://www.w3.org/2000/svg" viewBox="0 0 245.19 52.6"><defs><style>.cls-1{fill:#2a295d;}.cls-1,.cls-2,.cls-3,.cls-4,.cls-5,.cls-6,.cls-7,.cls-8{stroke-width:0px;}.cls-2{fill:#808099;}.cls-3{fill:#3dc9cc;}.cls-4{fill:#14c1c3;}.cls-5{fill:#b1993c;}.cls-6{fill:#fff;}.cls-7{fill:#edc92d;}.cls-8{fill:#e7dfc3;}</style></defs><g id="Layer_1-2"><path class="cls-6" d="m125.18,17.33c.45-.5.26-1.07.27-1.59.02-3.65,0-7.31,0-10.96,0-1.71.04-1.75,1.73-1.76.71,0,1.42-.02,2.13,0,1.2.04,1.32.17,1.37,1.31,0,.16,0,.33,0,.49,0,11.73,0,23.46,0,35.18,0,1.72,0,1.72-1.72,1.74-.71,0-1.42,0-2.13,0-.8.02-1.21-.27-1.17-1.16.03-.69.16-1.41-.16-2.11-.66-.16-.99.36-1.37.69-3.19,2.72-6.89,3.36-10.9,2.7-4.18-.68-7.39-2.8-9.55-6.48-2.86-4.88-2.52-13.2,2.17-17.75,4.57-4.43,12.82-5.1,17.52-1.56.58.43.91,1.27,1.8,1.24Zm-8.99,20.3c4.3.24,9.34-2.88,9.36-9.6.02-6-3.77-9.7-9.21-9.72-5.68-.01-9.33,3.82-9.38,9.56-.06,6.37,4.69,9.92,9.23,9.75Z"/><path class="cls-6" d="m116.05,42.77c-.93,0-1.91-.08-2.92-.25-4.42-.72-7.79-3.01-10.01-6.8-2.95-5.03-2.74-13.69,2.28-18.56,4.77-4.63,13.36-5.39,18.38-1.61.21.16.4.36.59.57.19.21.32.35.45.44,0-.11,0-.24-.01-.43-.01-.14-.02-.27-.02-.41.01-2.27,0-4.55,0-6.82v-4.14c0-2.06.34-2.4,2.39-2.42h.39c.59-.01,1.18-.02,1.77,0,1.53.05,1.94.45,2.01,1.95,0,.12,0,.24,0,.36v35.34c0,2.09-.29,2.38-2.38,2.4h-.96c-.39,0-.78,0-1.17,0-.63,0-1.1-.14-1.42-.47-.32-.32-.46-.78-.43-1.38l.02-.38c.02-.34.05-.66,0-.95-.05.05-.12.11-.21.19-.09.09-.18.17-.27.25-2.43,2.07-5.24,3.1-8.52,3.1Zm-.11-28.28c-3.51,0-7.17,1.25-9.62,3.62-4.51,4.37-4.71,12.43-2.06,16.94,2.01,3.43,5.07,5.5,9.09,6.16,4.16.68,7.55-.15,10.37-2.55.07-.06.13-.12.19-.18.33-.32.88-.87,1.77-.64l.31.08.13.29c.34.73.29,1.44.24,2.07l-.02.34c-.01.27.03.37.05.39,0,0,.07.09.44.07.4,0,.8,0,1.2,0h.94c.47,0,.96-.01,1.08-.07-.01-.05-.01-.54-.01-1.01V4.35c-.01-.37-.04-.59-.07-.65-.02,0-.26-.01-.65-.03-.57-.02-1.14-.01-1.71,0h-.4c-.4,0-.94.01-1.07.07,0,.07,0,.63-.01,1.03v4.14c0,2.28,0,4.55,0,6.83,0,.1,0,.2.02.31.04.48.08,1.13-.45,1.72l-.19.21h-.28c-.95.09-1.45-.54-1.83-.97-.13-.14-.25-.29-.4-.4-1.9-1.43-4.43-2.12-7.04-2.12Zm.73,23.8c-.16,0-.32,0-.48-.01-2.52.07-5.02-.88-6.86-2.67-1.4-1.36-3.06-3.81-3.03-7.75.06-6.12,4.08-10.22,10.01-10.22h.03c2.89,0,5.35.98,7.12,2.81,1.8,1.86,2.75,4.48,2.74,7.57-.01,3.98-1.68,6.38-3.08,7.7-1.75,1.65-4.08,2.57-6.46,2.57Zm-.47-1.34h.03c2.17.12,4.41-.7,6-2.2,1.73-1.63,2.65-3.97,2.66-6.74,0-2.74-.81-5.03-2.37-6.64-1.52-1.57-3.66-2.4-6.18-2.41h-.03c-5.23,0-8.64,3.49-8.69,8.91-.03,3.47,1.41,5.61,2.62,6.79,1.59,1.54,3.74,2.38,5.92,2.3h.03Z"/><path class="cls-6" d="m74.09,38.48c-.4.64-.25,1.2-.25,1.73-.02,3.22,0,6.44,0,9.65,0,.44,0,.87-.04,1.31-.05.5-.32.77-.87.76-1.04-.02-2.08,0-3.12,0-.73,0-1.13-.31-1.12-1.07,0-.33,0-.65,0-.98,0-11.29,0-22.58,0-33.87,0-.33,0-.65,0-.98.01-.59.31-.93.9-.94,1.09-.02,2.19,0,3.28.01.54,0,.76.31.8.83.05.81-.14,1.63.14,2.41.39.25.65,0,.88-.21,3.25-3.07,7.15-3.76,11.4-3.09,4.78.76,8.25,3.36,10.2,7.75,2.37,5.33,1.55,12.53-3.24,16.86-4.73,4.29-13.26,4.72-17.78.52-.32-.29-.65-.57-1.17-.7Zm18.17-10.51c-.08-1.12,0-2.27-.39-3.38-1.3-3.6-3.76-5.79-7.64-6.2-3.51-.37-6.48.67-8.59,3.58-2.11,2.9-2.38,6.11-1.3,9.48,1.95,6.06,8.91,7.62,13.36,5,3.22-1.9,4.59-4.81,4.57-8.48Z"/><path class="cls-6" d="m69.77,52.6c-.56,0-1-.16-1.31-.46-.31-.31-.46-.74-.45-1.28V15.76c0-.25,0-.49,0-.74.02-.95.63-1.58,1.55-1.59,1.07-.02,2.14,0,3.22.01.93.01,1.47.55,1.53,1.45.02.29,0,.59,0,.89-.01.27-.02.53,0,.78,3.12-2.91,7.01-3.95,11.87-3.18,5.06.8,8.66,3.54,10.7,8.14,2.29,5.15,1.85,12.86-3.4,17.62-5.09,4.61-14,4.86-18.68.52-.11-.1-.22-.2-.33-.28,0,.13,0,.28,0,.44,0,.13.01.26.01.39-.01,2.12,0,4.24,0,6.36v3.29c0,.53,0,.95-.05,1.37-.09.86-.7,1.34-1.54,1.36-1.03-.02-2.06,0-3.1,0h-.04Zm.84-37.86c-.34,0-.68,0-1.02,0-.17,0-.24,0-.25.3,0,.24,0,.47,0,.71v.26s0,34.87,0,34.87c0,.19.03.29.06.32.04.04.16.06.39.07,1.05-.01,2.09-.02,3.14,0,.14,0,.16-.02.16-.02.07-.52.07-.9.07-1.28v-3.4c0-2.12,0-4.24,0-6.37,0-.1,0-.2-.01-.31-.03-.46-.06-1.09.36-1.77l.25-.4.46.11c.68.16,1.11.53,1.46.85,4.14,3.84,12.35,3.58,16.89-.53,4.78-4.34,5.17-11.38,3.07-16.1-1.85-4.16-5.11-6.64-9.7-7.37-4.48-.71-8.02.24-10.84,2.91-.24.23-.86.82-1.69.29l-.19-.12-.08-.21c-.23-.64-.21-1.27-.18-1.84.01-.25.02-.51,0-.76,0-.16-.04-.21-.04-.21h-.18c-.72-.01-1.44-.02-2.16-.02Zm12.43,23.59c-1.24,0-2.49-.22-3.66-.66-2.76-1.05-4.77-3.18-5.68-6.01-1.2-3.74-.73-7.13,1.39-10.07,2.16-2.98,5.26-4.27,9.2-3.85,4,.43,6.75,2.66,8.19,6.64.33.92.36,1.83.39,2.71,0,.28.02.56.04.84v.04c.03,4.07-1.62,7.12-4.89,9.05-1.47.87-3.22,1.31-4.99,1.31Zm-.13-19.35c-2.85,0-5.11,1.13-6.74,3.38-1.89,2.61-2.29,5.52-1.21,8.88.78,2.44,2.52,4.28,4.89,5.18,2.46.94,5.34.72,7.5-.55,2.87-1.7,4.26-4.27,4.24-7.88-.02-.29-.03-.58-.04-.87-.03-.81-.05-1.58-.31-2.31-1.27-3.51-3.59-5.4-7.09-5.77-.43-.05-.84-.07-1.25-.07Z"/><path class="cls-6" d="m8.57,36.82c.6.46,1.22.28,1.8.28,6.23.01,12.47,0,18.7,0,.38,0,.77-.02,1.15,0,.94.07,1.21.34,1.25,1.33.03.76-.02,1.53.02,2.29.04.73-.37.97-1,.99-.38.01-.77,0-1.15,0-8.91,0-17.83,0-26.74,0-.27,0-.55,0-.82,0-.73.03-1.04-.25-1.1-1.05-.12-1.67.34-3,1.43-4.33,5.75-6.99,11.41-14.05,17.11-21.09.93-1.14,1.86-2.28,2.8-3.42.38-.46.81-.88,1.01-1.51-.4-.65-1.06-.4-1.61-.4-6.02-.02-12.03-.02-18.05,0-2.51,0-2.39.09-2.38-2.44q0-2.4,2.49-2.4c8.31,0,16.63,0,24.94,0,.38,0,.77-.02,1.15,0,.78.04,1.19.46,1.24,1.24.09,1.4-.14,2.63-1.09,3.8-5.58,6.85-11.08,13.76-16.62,20.64-1.23,1.53-2.49,3.04-3.73,4.56-.34.41-.76.78-.8,1.5Z"/><path class="cls-6" d="m1.7,42.41c-1.04,0-1.6-.56-1.68-1.67-.13-1.8.37-3.33,1.58-4.79,4.19-5.09,8.34-10.23,12.48-15.36l4.62-5.72c.75-.92,1.5-1.84,2.26-2.76l.75-.9c.19-.22.36-.42.49-.64-.09,0-.2,0-.36.02-.15.01-.36,0-.43.03-6.02-.02-12.03-.02-18.05,0h-.23c-1.26,0-1.9,0-2.37-.46-.46-.46-.46-1.12-.45-2.32v-.33c.01-2.78.31-3.06,3.15-3.06h25.3c.27,0,.54-.01.82,0,1.11.05,1.8.73,1.87,1.85.12,1.75-.26,3.07-1.23,4.26-3.92,4.82-7.81,9.66-11.7,14.5l-4.92,6.13c-.69.86-1.4,1.72-2.1,2.58l-1.8,2.2c-.17.19-.29.34-.37.51.17.03.36.02.61,0,.14,0,.24-.04.43-.02,4.85.01,9.7,0,14.55,0h4.5c.29-.01.57-.01.86,0,1.29.1,1.81.65,1.86,1.96.02.38.01.76,0,1.14,0,.38,0,.76,0,1.15.02.5-.1.9-.37,1.19-.29.31-.7.47-1.26.49-.32.01-.63.01-.95,0H2.33c-.17,0-.35,0-.52,0-.04,0-.07,0-.11,0ZM22.15,9.24c.47,0,1.04.12,1.43.77l.16.26-.09.29c-.21.65-.6,1.11-.94,1.51l-.73.88c-.75.92-1.51,1.83-2.25,2.76l-4.62,5.72c-4.15,5.14-8.29,10.27-12.49,15.37-1.01,1.22-1.39,2.37-1.28,3.86.02.32.09.4.09.4,0,0,.07.04.32.04.19,0,.39,0,.59,0h.26s26.97,0,26.97,0c.31,0,.6,0,.9,0,.27,0,.34-.06.34-.06h0s.03-.06.02-.23c-.02-.41-.02-.82-.01-1.22,0-.36,0-.71,0-1.07q-.03-.65-.64-.7c-.25-.02-.49-.01-.73,0h-4.52c-4.85,0-9.7,0-14.55,0-.07.02-.22,0-.34.01-.51.03-1.2.08-1.86-.44l-.27-.21.02-.34c.04-.83.47-1.34.79-1.71l1.78-2.17c.7-.85,1.4-1.71,2.09-2.56l4.92-6.13c3.89-4.85,7.78-9.69,11.7-14.51.75-.93,1.04-1.92.94-3.33-.03-.45-.17-.6-.61-.62-.24-.01-.49,0-.74,0h-.38s-24.94,0-24.94,0c-.77,0-1.57,0-1.71.11-.11.13-.11.88-.11,1.61v.35c0,.62,0,1.25.07,1.39.12.06.77.05,1.41.06h.23c6.02-.01,12.04-.01,18.05,0,.16,0,.2-.01.3-.02.13-.01.28-.03.44-.03Z"/><path class="cls-3" d="m180.14,10.69c.86.03,1.61.23,2,1.12.31.71.97,1.05,1.67,1.2,4.29.87,7.12,3.73,9.72,6.97,2.06,2.57,3.09,5.6,3.85,8.7.36,1.49.56,3.08.56,4.67,0,1.41-.62,2.27-1.71,2.91-3.93,2.34-8.25,3.7-12.69,4.52-4.14.76-8.39.58-12.58.35-4.02-.22-7.91-1.32-11.8-2.28-.45-.11-.99-.22-1.07-.85.49-.09,1-.15,1.46,0,1.84.62,3.67,1.24,5.64,1.26.15,0,.36.05.45.15.56.61,1.29.47,1.99.49.65.02,1.29-.03,1.92.26.85.39,1.78.42,2.72.4,1.42-.03,2.84.02,4.26-.01,2-.05,4.03.3,5.96-.59.36-.17.86-.04,1.3-.05.33,0,.73.09.97-.06,1.34-.86,3.04-.62,4.41-1.5-.72-.12-1.38-.18-2.04.2-.42.25-.88.39-1.4.37-5.97-.13-11.97.49-17.87-.98-1.96-.49-3.99-.75-5.85-1.62-1.55-.73-2.23-1.88-1.86-3.54.5-2.25.96-4.53,1.74-6.69.26-.72.38-1.52.79-2.22.82-1.38,1.57-2.8,2.31-4.21.1-.19.38-.44.04-.72h-.64c2.06-2.56,4.75-4.19,7.82-5.24.89-.31,1.74-.56,2.16-1.54.39-.89,1.58-.68,2.12-1.41.12.03.24.07.35.1,0,.45-.01.84-.64.88-.79.04-1.27.48-1.34,1.3-.05.02-.11.03-.14.06-.02.02-.02.07-.03.11.06-.06.11-.11.17-.17,1.57.18,3.08-.51,4.66-.34.39.04.57-.21.59-.6.02-.48-.21-.69-.67-.69-.49,0-.97,0-1.46-.02-.34-.01-.44-.25-.47-.54.65-.06,1.29-.12,1.94-.17.23,0,.46.01.69.02Zm5.27,23.99c.62,0,1.17.05,1.71,0,2.86-.29,4.85-1.9,4.81-5.23-.01-1.24-.35-2.41-.8-3.47-1.67-3.92-4.92-6.18-8.88-7.29-3.15-.88-6.37-.55-9.44.64-1.68.65-3.28,1.46-4.57,2.77-2.8,2.84-3.76,6.39-3.84,10.24-.07,3.01,1.82,4.32,4.32,4.34,2.27.02,4.39-.61,6.49-1.37,1.64-.59,3.27-1.07,5.07-1.03,1.75.03,3.45.57,5.13.41Zm5.91,3.07c-.69-.16-1.18-.27-1.73.26.69.28,1.09-.09,1.73-.26Z"/><path class="cls-6" d="m217.23,20.89c.17-.29.34-.59.51-.88.43-.05.57-.31.51-.71.37-.5.64-1.08,1.24-1.38.51.08.74-.14.69-.65.83-.89,1.81-1.55,2.95-1.96,1.32-.41,2.64-.82,3.96-1.23.21-.03.43-.05.64-.08,1.21.17,2.43.14,3.64.01.22.03.44.05.66.08,1.17.5,2.37.92,3.61,1.23.97.26,1.61.98,2.3,1.63.28.61.61,1.15,1.61.86V3.6c1.51-.08,2.84-.21,4.18.07v37.53c-1.33.07-2.56.25-3.88-.15v-3.21c-.9-.49-1.34.05-1.78.52-1.11,1.16-2.41,2.03-3.94,2.53-3.39,1.11-6.79,1.01-10.09-.24-3.01-1.14-5.36-3.18-6.68-6.15-1.53-3.42-1.88-6.97-.88-10.65.26-.98.88-1.89.76-2.96Zm3.49,6.9c.05.87.06,1.75.18,2.61.08.53.33,1.03.52,1.54,2.13,5.69,8.83,7.12,13.2,4.53,4.44-2.63,5.41-6.81,4.37-11.18-1.69-7.08-9-8.44-13.75-5.82-3.19,1.76-4.57,4.7-4.52,8.32Z"/><path class="cls-6" d="m229.4,42.33c-1.88,0-3.75-.35-5.6-1.05-3.27-1.24-5.71-3.49-7.05-6.49-1.62-3.62-1.93-7.35-.92-11.1.09-.34.22-.67.35-1,.23-.59.45-1.15.39-1.72l-.02-.21.78-1.36.25-.03-.02-.15.16-.3c.08-.11.15-.22.23-.33.3-.44.63-.94,1.25-1.25l.19-.09.12.02v-.11s.19-.32.19-.32c.91-.98,2-1.69,3.21-2.13l4.17-1.28.66-.08h.09c1.04.16,2.15.16,3.48.02l.98.13c1.25.53,2.39.92,3.51,1.2,1.04.28,1.75.97,2.37,1.58l.37.42c.13.3.22.46.35.52V2.97l1.27-.07c1.27-.07,2.47-.14,3.71.12l.53.11v38.7l-1.27.07c-1.1.07-2.24.15-3.47-.22l-.47-.14v-3.24c-.15.01-.29.14-.56.43-1.31,1.37-2.73,2.27-4.3,2.79-1.64.54-3.28.8-4.92.8Zm-11.5-21.28c.03.8-.25,1.5-.49,2.12-.11.29-.22.57-.3.86-.93,3.44-.64,6.88.85,10.21,1.22,2.72,3.34,4.67,6.31,5.8,3.18,1.2,6.43,1.28,9.65.23,1.38-.45,2.58-1.22,3.67-2.36.5-.53,1.28-1.36,2.58-.64l.34.19v3.09c.82.16,1.62.11,2.53.05h.03V4.23c-.89-.11-1.8-.06-2.83,0h-.02v14.1l-.48.14c-1.52.43-2.09-.56-2.34-1.11l-.14-.13c-.56-.55-1.09-1.06-1.78-1.25-1.15-.28-2.33-.69-3.61-1.22l-.56-.07c-1.26.15-2.44.15-3.57,0l-.48.06-3.91,1.22c-.92.33-1.76.87-2.49,1.59-.03.38-.2.62-.35.76-.16.15-.43.3-.85.3-.23.16-.4.42-.6.72-.04.06-.08.12-.12.18,0,.28-.08.52-.24.72-.1.13-.26.28-.52.38l-.27.46Zm12.05,17.33c-1.15,0-2.32-.19-3.42-.58-2.7-.95-4.73-2.95-5.73-5.62l-.15-.37c-.17-.41-.34-.83-.41-1.31-.09-.62-.12-1.26-.15-1.9l-.04-.8c-.05-4.05,1.63-7.13,4.86-8.91,2.86-1.57,6.44-1.75,9.35-.46,2.71,1.2,4.62,3.58,5.36,6.71,1.23,5.16-.43,9.39-4.67,11.91-1.5.89-3.24,1.34-5.01,1.34Zm-8.57-10.61l.04.77c.03.59.05,1.18.14,1.77.04.31.18.65.32,1l.16.41c.86,2.3,2.61,4.02,4.93,4.84,2.44.86,5.18.62,7.32-.65,4.75-2.81,4.83-7.24,4.06-10.46-.83-3.48-2.97-5.08-4.61-5.8-2.54-1.13-5.67-.97-8.18.41-2.81,1.55-4.22,4.15-4.18,7.72Z"/><path class="cls-6" d="m38.51,21.09c-1.16-.84-1.5-2.1-2.09-3.17-.29-.52.19-.89.61-1.19,1.82-1.27,3.85-2.1,6-2.51,2.69-.51,5.42-.64,8.15-.12,4.27.8,7.48,3.6,8.14,8.2.21,1.46.37,2.91.36,4.39-.03,4.42,0,8.84-.01,13.26,0,1.66-.1,1.79-1.75,1.78-1.02,0-2.07.16-3.04-.15-.45-.8.08-1.69-.36-2.39-.27-.15-.46-.04-.61.11-1.6,1.54-3.55,2.33-5.71,2.62-3.39.46-6.66.19-9.61-1.77-2.34-1.55-3.44-3.84-3.31-6.54.13-2.9,1.52-5.2,4.25-6.51,1.59-.76,3.27-1.23,5.04-1.25,2.68-.03,5.36-.03,8.04-.05,1.65-.01,1.65-.08,1.64-1.65-.04-3.38-2.49-5.42-5.39-5.71-3.72-.37-7.17.31-10.36,2.63Zm11.17,8.38s0,.03,0,.04c-1.25,0-2.51-.02-3.76.01-.65.02-1.3.11-1.95.22-2.12.37-3.47,1.8-3.62,3.83-.12,1.69,1.12,3.41,2.93,4.09,2.07.77,4.15.75,6.24.08,3.52-1.13,5.09-3.42,4.91-7.08-.04-.84-.37-1.2-1.17-1.2-1.2,0-2.4,0-3.6,0Z"/><path class="cls-6" d="m45.5,42.79c-2.8,0-5.16-.68-7.26-2.07-2.5-1.66-3.75-4.12-3.61-7.12.15-3.25,1.75-5.69,4.62-7.08,1.81-.87,3.55-1.3,5.32-1.32,1.5-.02,3.01-.02,4.51-.03l3.53-.02c.31,0,.88,0,1.01-.07-.02-.04-.03-.5-.03-.91-.03-3.17-2.43-4.82-4.79-5.05-3.83-.38-7.07.44-9.91,2.51l-.39.28-.39-.28c-1.01-.73-1.47-1.72-1.88-2.59-.13-.27-.25-.54-.4-.8-.59-1.07.46-1.81.81-2.05,1.85-1.3,3.96-2.18,6.25-2.62,3.02-.58,5.77-.62,8.4-.12,4.84.91,8.01,4.11,8.68,8.76.19,1.31.38,2.86.37,4.49-.02,3.06-.02,6.12-.01,9.19v4.07c0,.83,0,1.54-.46,1.99-.43.42-1.04.46-1.95.44-.26,0-.53,0-.8.02-.8.03-1.61.06-2.44-.2l-.25-.08-.13-.23c-.32-.57-.29-1.14-.27-1.6,0-.09,0-.17,0-.24-1.56,1.36-3.48,2.2-5.76,2.51-.98.13-1.92.2-2.8.2Zm1.53-25.08c.62,0,1.26.03,1.91.1,3.54.35,5.95,2.91,5.98,6.36.01.92.02,1.47-.39,1.88-.41.42-1.04.43-1.91.43l-3.54.02c-1.5,0-3,.01-4.5.03-1.58.02-3.14.41-4.77,1.19-2.45,1.17-3.75,3.17-3.87,5.94-.11,2.51.93,4.57,3.02,5.96,2.49,1.65,5.4,2.18,9.15,1.66,2.2-.3,3.95-1.1,5.34-2.45.59-.57,1.18-.34,1.4-.21l.23.22c.33.53.3,1.09.28,1.54-.01.27-.02.48.01.65.52.11,1.09.08,1.69.06.29-.01.58-.01.86-.02.25,0,.89,0,1.02-.07.06-.11.06-.76.06-1.04v-4.07c0-3.07-.01-6.13.01-9.2.01-1.54-.17-3.04-.35-4.29-.58-4.06-3.36-6.84-7.61-7.65-2.46-.46-5.05-.42-7.91.12-2.11.4-4.04,1.21-5.74,2.4-.31.22-.4.32-.42.37.17.24.3.53.44.83.31.66.61,1.29,1.11,1.78,2.52-1.71,5.31-2.55,8.48-2.55Zm-.55,21.2c-1.16,0-2.3-.21-3.41-.62-2.1-.78-3.51-2.78-3.36-4.76.17-2.32,1.77-4.02,4.16-4.44.6-.1,1.31-.21,2.04-.23.89-.02,1.79-.02,2.68-.01h.47s.62-.04.62-.04h3.6c.79,0,1.75.32,1.83,1.83.19,3.99-1.56,6.52-5.37,7.74-1.1.35-2.19.53-3.27.53Zm1.01-8.74c-.51,0-1.02,0-1.54.02-.65.02-1.3.12-1.85.21-1.82.31-2.94,1.49-3.07,3.23-.1,1.38.97,2.85,2.5,3.42,1.88.7,3.78.72,5.81.07,3.2-1.03,4.62-3.07,4.45-6.42-.03-.57-.1-.58-.51-.57l-4.7.04c-.37,0-.73,0-1.1,0Z"/><path class="cls-6" d="m144.63,14.17c.57,1.04-.02,2.2.42,3.2.45.23.72-.01,1-.31,2.05-2.22,4.7-3.06,7.62-3.21,1.19-.06,1.33.1,1.39,1.26,0,.11,0,.22,0,.33-.06.97.34,2.09-.19,2.88-.55.83-1.73.37-2.62.52-4.77.81-6.89,4.22-6.99,7.98-.1,4.31-.06,8.61-.08,12.92q0,2-1.95,2.01c-.66,0-1.31.01-1.97,0-1.19-.04-1.28-.1-1.28-1.35-.01-8.29-.01-16.58,0-24.86,0-1.31.13-1.44,1.38-1.44,1.08,0,2.18-.11,3.26.08Z"/><path class="cls-6" d="m142.14,42.41c-.3,0-.59,0-.89-.01-1.56-.05-1.92-.43-1.92-2.01-.01-8.29-.01-16.58,0-24.87,0-1.67.42-2.1,2.04-2.1.28,0,.55,0,.83-.02.82-.02,1.68-.05,2.55.11l.31.06.15.27c.39.71.37,1.43.34,2.06-.01.26-.02.5,0,.72,0,0,0-.01.01-.02,1.96-2.13,4.6-3.25,8.07-3.42.63-.03,1.19-.03,1.59.34.4.36.46.91.49,1.55,0,.13,0,.27,0,.4-.02.29.01.6.04.9.07.74.14,1.58-.34,2.3-.58.87-1.57.83-2.28.8-.29-.01-.56-.02-.78.01-5.67.96-6.39,5.46-6.43,7.34-.07,3.05-.07,6.17-.07,9.17v3.73c-.01,2.36-.31,2.66-2.62,2.67h-.48c-.21,0-.41,0-.62,0Zm.97-27.7c-.29,0-.58,0-.88.02-.7.02-1.46.01-1.58.07.02.02,0,.29,0,.73-.01,8.29-.01,16.57,0,24.86,0,.17,0,.61.04.72,0-.05.42-.04.6-.03.48.01.97.01,1.46,0h.49c.55,0,1.12,0,1.26-.07.03-.1.04-.69.04-1.26v-3.74c0-3.02,0-6.14.08-9.21.11-4.62,2.93-7.84,7.54-8.62.36-.06.71-.05,1.06-.03.65.03.97.02,1.12-.21.22-.33.17-.87.12-1.45-.03-.37-.07-.75-.04-1.11,0-.08,0-.17,0-.25-.02-.46-.06-.61-.08-.66.02.04-.13,0-.61.03-3.15.16-5.43,1.11-7.17,3-.23.25-.85.92-1.78.46l-.21-.11-.1-.22c-.27-.61-.24-1.23-.22-1.78.02-.41.03-.77-.06-1.09-.34-.04-.69-.05-1.05-.05Z"/><path class="cls-6" d="m203.81,14.07c1.33,0,2.58.02,3.83,0,.71-.01.98.34.97,1,0,.33,0,.65,0,.98,0,7.95,0,15.91,0,23.86,0,.27,0,.55,0,.82.03.67-.28,1.02-.96,1.03-1.04,0-2.07,0-3.11,0-.7,0-.98-.36-.96-1.02,0-.27,0-.54,0-.82,0-8.01,0-16.02,0-24.02,0-.54-.05-1.08.23-1.82Z"/><path class="cls-6" d="m204.53,42.41c-.51,0-.91-.15-1.19-.44-.29-.3-.43-.73-.41-1.26,0-.18,0-.36,0-.54v-8.27s0-16.23,0-16.23c0-.49-.01-1.09.27-1.84l.16-.43h1.63c.9,0,1.77.01,2.65,0,.53,0,.93.13,1.21.42.29.29.44.71.43,1.25v.97s0,24.11,0,24.11c0,.18,0,.36,0,.54.02.53-.12.95-.41,1.26-.29.3-.7.46-1.21.46h-3.11s-.01,0-.02,0Zm-.24-1.36s.01.04.25.04h3.12c.18,0,.25-.04.26-.05.01-.01.05-.1.04-.29,0-.2,0-.4,0-.6v-.24s0-23.86,0-23.86v-.99c0-.23-.04-.29-.05-.3h0s-.07-.02-.26-.03c-.88.02-1.77.01-2.68.01h-.67c-.07.32-.06.61-.06.92v.23s0,24.27,0,24.27c0,.2,0,.4,0,.59,0,.23.04.29.04.29h0Z"/><path class="cls-4" d="m164.4,18.95h.64c.34.28.06.53-.04.72-.75,1.42-1.49,2.84-2.31,4.21-.42.69-.54,1.5-.79,2.22-.77,2.16-1.24,4.44-1.74,6.69-.37,1.66.31,2.81,1.86,3.54,1.86.87,3.89,1.13,5.85,1.62,5.9,1.48,11.9.85,17.87.98.52.01.98-.13,1.4-.37.66-.39,1.33-.32,2.04-.2-1.37.87-3.07.63-4.41,1.5-.24.15-.64.05-.97.06-.44.01-.94-.12-1.3.05-1.93.89-3.96.54-5.96.59-1.42.04-2.84-.02-4.26.01-.94.02-1.87-.01-2.72-.4-.64-.29-1.27-.24-1.92-.26-.7-.02-1.43.13-1.99-.49-.09-.1-.3-.15-.45-.15-1.97-.02-3.8-.64-5.64-1.26-.47-.16-.97-.09-1.46,0v-.02c-.29-1-.58-1.99-.88-2.99.01-.22.03-.43.04-.65.43-.03.82-.26.82-.66,0-1.14.44-2.18.65-3.26.43-2.24,1.56-4.16,2.49-6.15.67-1.44,1.34-2.95,2.63-4.03.23-.19.2-.49.15-.76.14-.18.28-.36.42-.55Z"/><path class="cls-6" d="m217.23,20.89c.11,1.08-.5,1.98-.76,2.96-.99,3.68-.65,7.24.88,10.65,1.33,2.96,3.67,5,6.68,6.15,3.3,1.25,6.7,1.35,10.09.24,1.54-.5,2.83-1.37,3.94-2.53.45-.47.89-1.02,1.78-.52v3.21c1.32.4,2.55.22,3.88.15V3.67c-1.34-.28-2.67-.15-4.18-.07v14.23c-1.01.29-1.34-.25-1.61-.86h.81c.38-.43.22-.94.22-1.42.01-3.6,0-7.2,0-10.8,0-1.88.17-2.02,2.07-2.04,4.15-.04,3.43-.03,3.43,3.41.03,11.24,0,22.48,0,33.72,0,.33-.03.66,0,.98.08.77-.36,1.17-1.02,1.22-1.09.08-2.19.09-3.27-.02-.78-.07-1.25-.57-1.17-1.47.05-.52.12-1.09-.15-1.56-.34-.14-.58,0-.78.18-3.39,3.11-7.4,3.74-11.74,2.87-6.72-1.35-10.98-6.96-11.05-13.35-.03-2.54.2-5,1.36-7.31.13-.25.21-.5.55-.49Z"/><path class="cls-6" d="m229.8,43.05c-1.13,0-2.31-.12-3.56-.37-6.75-1.35-11.51-7.1-11.59-13.99-.02-2.31.13-5.02,1.43-7.61.15-.31.39-.91,1.17-.85l.57.02.06.57c.09.89-.21,1.67-.48,2.35-.11.29-.22.57-.3.86-.93,3.44-.64,6.88.85,10.21,1.22,2.72,3.34,4.67,6.31,5.8,3.18,1.2,6.43,1.28,9.65.23,1.38-.45,2.58-1.22,3.67-2.36.5-.53,1.28-1.36,2.58-.64l.34.19v3.09c.82.16,1.62.11,2.53.05h.03V4.23c-.89-.11-1.8-.06-2.83,0h-.02v14.1l-.48.14c-1.63.46-2.17-.72-2.4-1.23l-.42-.94h1.42c0-.09,0-.21-.01-.38,0-.13-.02-.26-.02-.38,0-2.14,0-4.29,0-6.43v-4.37c0-2.23.46-2.68,2.73-2.7,2.22-.02,3.14-.03,3.71.55.48.49.46,1.18.42,2.23-.01.36-.03.79-.03,1.29.02,8.22.02,16.44.01,24.66v9.37c-.01.2-.02.4,0,.6.07.67-.16,1.11-.37,1.35-.3.35-.73.56-1.26.6-1.24.09-2.35.08-3.38-.02-.57-.05-1.04-.28-1.36-.66-.23-.27-.48-.76-.41-1.53.03-.26.05-.49.04-.69-2.49,2.19-5.33,3.26-8.63,3.26Zm9.27-4.72s.05.02.08.03l.04.02v-.08s-.08.01-.12.03Z"/><path class="cls-6" d="m206.12,8.86c-1.97.01-3.5-1.46-3.49-3.34.02-1.79,1.67-3.36,3.55-3.37,1.79,0,3.37,1.53,3.39,3.31.02,1.87-1.51,3.38-3.45,3.39Z"/><path class="cls-6" d="m206.09,9.53c-1.15,0-2.21-.43-2.98-1.21-.74-.74-1.15-1.74-1.14-2.8.02-2.13,1.98-4.01,4.2-4.02h.02c2.17,0,4.02,1.81,4.04,3.97,0,1.06-.4,2.07-1.14,2.83-.78.79-1.83,1.23-2.96,1.24h-.03Zm.1-6.7h-.01c-1.5,0-2.87,1.3-2.89,2.71,0,.7.26,1.36.75,1.85.53.53,1.22.79,2.07.82h0c.78,0,1.5-.3,2.03-.84.5-.51.77-1.18.76-1.89-.01-1.42-1.28-2.65-2.71-2.65Z"/><path class="cls-7" d="m177.61,4.84c-1.69-1.3-1.94-1.91-1.37-3.35C176.62.51,177.4,0,178.5,0c1.08,0,1.86.48,2.32,1.47.46,1,.31,1.83-.49,2.64-.34.35-.68.71-1.19.79-.51-.02-1.01-.04-1.52-.05Z"/><path class="cls-8" d="m197.23,19.3c.11-.93.53-1.74.92-2.57.44-.94.74-1.9-.09-2.85-.39-.44-.35-1.14-.11-1.55.67-1.11.55-2.3.57-3.48,0-.22.02-.43.29-.67.55.41.67,1.05.67,1.64.04,3.43.03,6.86,0,10.29,0,.76-.56,1.31-1.29,1.42-.61.09-1.39-.46-1.57-1.15-.1-.38.22-.43.49-.47.16.62.39,1.16,1.29.9.19-.84.34-1.68-.12-2.52-.58.22-.35,1.08-1.06,1.01Z"/><path class="cls-3" d="m163.98,19.49c.06.28.08.57-.15.76-1.28,1.08-1.96,2.6-2.63,4.03-.93,2-2.06,3.91-2.49,6.15-.21,1.08-.64,2.12-.65,3.26,0,.4-.39.63-.82.66-.37-1.26.32-2.36.63-3.48.98-3.57,2.32-7,4.56-10.01.42-.57.81-1.17,1.55-1.39Z"/><path class="cls-2" d="m177.61,4.84c.51.02,1.01.04,1.52.05-.26,2.03.38,3.91,1,5.8-.23,0-.46-.01-.69-.02-.67-1.68-1.14-3.41-1.13-5.26-.02,1.28-.39,2.45-.74,3.63-.16.56-.51,1.08-.45,1.7-.1.02-.2.06-.28.12-.12-.03-.24-.07-.35-.1.42-1.96,1.02-3.9,1.11-5.92Z"/><path class="cls-7" d="m197.23,19.3c.71.06.48-.79,1.06-1.01.46.84.31,1.68.12,2.52-.9.26-1.12-.28-1.29-.9.04-.2.07-.4.11-.6Z"/><path class="cls-6" d="m231.37,14.02c-1.22.13-2.43.16-3.64-.01.07-.14.12-.38.22-.4,1.07-.19,2.15-.21,3.22,0,.09.02.14.26.21.4Z"/><path class="cls-6" d="m229.49,14.78c-.65,0-1.26-.04-1.85-.12l-.93-.13.43-.83c.11-.27.26-.67.69-.74,1.22-.21,2.39-.21,3.47.01.43.09.57.48.64.67l.42.85-.92.18c-.7.07-1.34.11-1.95.11Z"/><path class="cls-6" d="m227.09,14.08c-1.32.41-2.64.82-3.96,1.23.92-1.04,2.63-1.58,3.96-1.23Z"/><path class="cls-6" d="m221.07,16.65l1.57-1.78c1.08-1.22,3.06-1.84,4.62-1.44l2.25.58-8.44,2.63Z"/><path class="cls-6" d="m235.64,15.33c-1.24-.31-2.44-.73-3.61-1.23.06-.18.21-.3.36-.25,1.14.36,2.5.26,3.25,1.48Z"/><path class="cls-6" d="m237.05,16.36l-1.57-.39c-1.19-.29-2.4-.71-3.71-1.26l-.56-.24.19-.58c.17-.53.69-.83,1.19-.67.27.09.56.14.84.2.92.19,2.06.42,2.77,1.56l.85,1.38Zm-4.86-1.88s0,0,0,0c0,0,0,0,0,0Z"/><path class="cls-3" d="m157.2,35.01c.29,1,.59,1.99.88,2.99-1.2-.73-1.48-1.68-.88-2.99Z"/><path class="cls-6" d="m218.25,19.3c.06.4-.08.66-.51.71-.18-.49.04-.69.51-.71Z"/><path class="cls-6" d="m217.3,20.72l-.18-.49c-.2-.53-.07-.89.07-1.1.21-.31.56-.47,1.04-.49l.59-.02.09.59c.06.4-.01.74-.21,1.01-.14.18-.4.4-.88.46l-.52.06Zm.97-.99v.14c.05-.06.07-.13.07-.18l-.07.04Zm-.61-.39s-.06.08-.06.13l.07-.02v-.11Z"/><path class="cls-6" d="m220.18,17.27c.05.51-.18.72-.69.65.01-.45.23-.68.69-.65Z"/><path class="cls-6" d="m219.68,18.6c-.09,0-.18,0-.29-.02l-.57-.09v-.58c.02-.42.16-.75.41-.98.17-.16.49-.35.99-.31l.56.04.05.56c.05.58-.16.91-.34,1.09-.15.14-.41.3-.82.3Zm-.09-1.28s-.06.08-.06.12h.05s.02-.12.02-.12Z"/><path class="cls-1" d="m185.41,34.68c-1.68.16-3.38-.38-5.13-.41-1.8-.03-3.43.44-5.07,1.03-2.1.76-4.22,1.39-6.49,1.37-2.5-.02-4.39-1.33-4.32-4.34.09-3.85,1.04-7.4,3.84-10.24,1.29-1.31,2.89-2.11,4.57-2.77,3.07-1.19,6.29-1.52,9.44-.64,3.97,1.11,7.21,3.37,8.88,7.29.45,1.05.79,2.23.8,3.47.03,3.33-1.95,4.93-4.81,5.23-.54.06-1.09,0-1.71,0Zm-9.29-4.22c.91.82,2.14.83,3.13.02,1.19-.51,1.83-1.32,1.5-2.68.04-.29,0-.54-.34-.61-.4-.07-.6.16-.72.49-1.35.13-2.7.31-4-.24-.4-.17-.7-.16-1.01.16-.35.36-.4.73-.19,1.17.35.75.86,1.34,1.63,1.69Zm8.97-5.82c-1.52.98-1.83,2.03-1.03,3.27.36.57.82.6,1.3.09.9-.97.83-2.16-.26-3.36Zm-15.45,2c0,.97.41,1.64,1.1,1.73.92.12.97-.68,1.25-1.22.12-.23.18-.51.19-.77.05-.98-.52-1.83-1.19-1.83-.56,0-1.19.76-1.32,1.61-.02.16-.03.32-.04.48Z"/><path class="cls-4" d="m176.86,10.86c.08-.06.18-.1.28-.12.12.04.25.07.37.11.03.29.14.53.47.54.49.02.97.02,1.46.02.47,0,.69.21.67.69-.01.39-.2.64-.59.6-1.58-.16-3.08.52-4.66.34h0c.07-.82.54-1.26,1.34-1.3.63-.04.65-.43.64-.88Z"/><path class="cls-1" d="m177.51,10.85c-.12-.04-.25-.07-.37-.11-.06-.62.29-1.14.45-1.7.34-1.18.71-2.35.74-3.63-.01,1.86.46,3.58,1.13,5.26-.65.06-1.29.12-1.94.17Z"/><path class="cls-4" d="m191.31,37.75c-.64.17-1.04.54-1.73.26.55-.53,1.04-.42,1.73-.26Z"/><path class="cls-4" d="m174.88,13.04c-.06.06-.11.11-.17.17,0-.04,0-.09.03-.11.04-.03.1-.04.14-.06,0,0,0,0,0,0Z"/><path class="cls-7" d="m180.75,27.8c.33,1.36-.31,2.17-1.5,2.68-1.04-.12-2.09-.09-3.13-.02-.77-.35-1.28-.94-1.63-1.69-.21-.45-.16-.81.19-1.17.31-.32.61-.33,1.01-.16,1.3.55,2.65.37,4,.24.36.04.71.08,1.07.12Z"/><path class="cls-7" d="m185.08,24.64c1.09,1.2,1.16,2.39.26,3.36-.47.51-.93.48-1.3-.09-.8-1.24-.49-2.29,1.03-3.27Z"/><path class="cls-5" d="m169.63,26.65c.01-.16.01-.32.04-.48.13-.84.76-1.61,1.32-1.61.67,0,1.23.85,1.19,1.83-.01.26-.07.54-.19.77-.28.54-.34,1.34-1.25,1.22-.69-.09-1.11-.77-1.1-1.73Zm1.66-1.4c-.96.35-1.07.95-1.01,1.64.02.29.12.53.45.56.43.04.55-.24.56-.6.01-.48,0-.96,0-1.59Z"/><path class="cls-5" d="m176.12,30.46c1.04-.07,2.09-.1,3.13.02-.99.81-2.22.8-3.13-.02Z"/><path class="cls-5" d="m180.75,27.8c-.36-.04-.71-.08-1.07-.12.13-.33.33-.56.72-.49.35.07.38.32.34.61Z"/><path class="cls-7" d="m171.29,25.25c0,.64,0,1.12,0,1.59,0,.36-.13.64-.56.6-.33-.03-.43-.27-.45-.56-.05-.69.05-1.29,1.01-1.64Z"/></g></svg>