<svg width="17" height="11" viewBox="0 0 17 11" fill="none" xmlns="http://www.w3.org/2000/svg">
<path d="M1.32282e-10 5.02294C1.25423e-08 4.74747 0.107916 4.47199 0.325224 4.26249L4.39052 0.316765C4.82366 -0.103635 5.52585 -0.103635 5.959 0.316765C6.39214 0.737166 6.39214 1.4187 5.959 1.8391L2.67718 5.02439L5.959 8.20968C6.39214 8.63006 6.39214 9.3116 5.959 9.73201C5.52585 10.1524 4.82366 10.1524 4.39052 9.73201L0.325224 5.78627C0.109394 5.57679 -1.241e-08 5.3013 0 5.02582L1.32282e-10 5.02294Z" fill="#130C49"/>
<path d="M10.0631 8.96865C10.0631 8.69317 10.171 8.4177 10.3883 8.2082L13.6702 5.02291L10.3883 1.83764C9.95521 1.41724 9.95521 0.7357 10.3883 0.3153C10.8215 -0.1051 11.5237 -0.1051 11.9568 0.3153L16.0206 4.26246C16.4538 4.68287 16.4538 5.36441 16.0206 5.78481L11.9553 9.73055C11.5222 10.1509 10.82 10.1509 10.3869 9.73055C10.171 9.52107 10.0616 9.24557 10.0616 8.9701L10.0631 8.96865Z" fill="#130C49"/>
</svg>
