<svg width="57" height="57" viewBox="0 0 57 57" fill="none" xmlns="http://www.w3.org/2000/svg">
<path d="M56.5 45.3C56.5 51.4856 51.4856 56.5 45.3 56.5L11.7 56.5C5.51441 56.5 0.5 51.4856 0.500001 45.3L0.500004 11.7C0.500004 5.51441 5.51442 0.499996 11.7 0.499996L45.3 0.499999C51.4856 0.5 56.5 5.51441 56.5 11.7L56.5 45.3Z" fill="#111111" stroke="#6E6B91"/>
<path d="M32.9375 15.5H21.125C20.4288 15.5 19.7611 15.7739 19.2688 16.2615C18.7766 16.7491 18.5 17.4104 18.5 18.1V38.9C18.5 39.5896 18.7766 40.2509 19.2688 40.7385C19.7611 41.2261 20.4288 41.5 21.125 41.5H36.875C37.5712 41.5 38.2389 41.2261 38.7312 40.7385C39.2234 40.2509 39.5 39.5896 39.5 38.9V22L32.9375 15.5Z" fill="url(#paint0_linear_14951_223)"/>
<path d="M31.625 15.5V20.7C31.625 21.3896 31.9016 22.0509 32.3938 22.5385C32.8861 23.0261 33.5538 23.3 34.25 23.3H39.5" fill="url(#paint1_linear_14951_223)"/>
<path d="M25.0625 32.4H32.9375H25.0625Z" fill="url(#paint2_linear_14951_223)"/>
<path d="M29 36.3V28.5V36.3Z" fill="url(#paint3_linear_14951_223)"/>
<path d="M31.625 15.5V20.7C31.625 21.3896 31.9016 22.0509 32.3938 22.5385C32.8861 23.0261 33.5538 23.3 34.25 23.3H39.5M25.0625 32.4H32.9375M29 36.3V28.5M32.9375 15.5H21.125C20.4288 15.5 19.7611 15.7739 19.2688 16.2615C18.7766 16.7491 18.5 17.4104 18.5 18.1V38.9C18.5 39.5896 18.7766 40.2509 19.2688 40.7385C19.7611 41.2261 20.4288 41.5 21.125 41.5H36.875C37.5712 41.5 38.2389 41.2261 38.7312 40.7385C39.2234 40.2509 39.5 39.5896 39.5 38.9V22L32.9375 15.5Z" stroke="#1A1A1A" stroke-width="2" stroke-linecap="round" stroke-linejoin="round"/>
<defs>
<linearGradient id="paint0_linear_14951_223" x1="39.5" y1="13.29" x2="13.639" y2="35.9532" gradientUnits="userSpaceOnUse">
<stop stop-color="#43E2C5"/>
<stop offset="1" stop-color="#70EE62"/>
</linearGradient>
<linearGradient id="paint1_linear_14951_223" x1="39.5" y1="13.29" x2="13.639" y2="35.9532" gradientUnits="userSpaceOnUse">
<stop stop-color="#43E2C5"/>
<stop offset="1" stop-color="#70EE62"/>
</linearGradient>
<linearGradient id="paint2_linear_14951_223" x1="39.5" y1="13.29" x2="13.639" y2="35.9532" gradientUnits="userSpaceOnUse">
<stop stop-color="#43E2C5"/>
<stop offset="1" stop-color="#70EE62"/>
</linearGradient>
<linearGradient id="paint3_linear_14951_223" x1="39.5" y1="13.29" x2="13.639" y2="35.9532" gradientUnits="userSpaceOnUse">
<stop stop-color="#43E2C5"/>
<stop offset="1" stop-color="#70EE62"/>
</linearGradient>
</defs>
</svg>
