<svg width="268" height="269" viewBox="0 0 268 269" fill="none" xmlns="http://www.w3.org/2000/svg">
<path d="M254.797 188.522C267.597 160.263 270.103 130.391 263.81 102.873C264.307 102.577 264.81 102.283 265.32 101.986L265.038 101.489C264.577 101.749 264.119 102.016 263.675 102.284C259.1 82.6692 250.043 64.2568 237.053 48.5101C237.086 48.4658 237.117 48.4135 237.142 48.3722L236.687 48.0669C224.007 32.8301 207.629 20.1074 188.042 11.2355L188.031 11.2306C170.907 3.47451 151.536 0.0246547 131.657 0.870712C131.612 0.678789 131.567 0.486863 131.528 0.297422L130.965 0.418531C130.998 0.578642 131.045 0.738231 131.075 0.903813C116.247 1.59644 101.151 4.68772 86.5126 10.1901C52.0157 23.1515 24.4005 47.8659 10.7531 77.9965C-2.8944 108.127 -3.25601 145.179 9.75061 179.664C15.2744 194.298 22.9098 207.679 32.1608 219.285C32.0211 219.36 31.868 219.436 31.7314 219.519L32.0116 220.022C32.18 219.927 32.354 219.834 32.5255 219.747C44.9946 235.245 60.369 247.532 77.4927 255.288L77.5036 255.293C97.0907 264.165 117.458 268.08 137.28 267.564L137.807 267.711C137.821 267.651 137.835 267.605 137.855 267.547C158.258 266.926 178.059 261.591 195.833 252.093C195.923 252.609 196.023 253.129 196.132 253.647L196.692 253.531C196.573 252.949 196.462 252.378 196.365 251.806C221.197 238.379 242.001 216.801 254.798 188.548L254.797 188.522ZM22.9593 112.369C31.3589 114.683 39.7378 117.158 48.0726 119.746C46.0723 134.067 47.2734 149.811 51.703 165.157C43.5943 165.027 35.4798 165.099 27.3867 165.445C22.14 147.446 20.6498 129.077 22.9648 112.372L22.9593 112.369ZM26.7958 165.468C19.9167 165.769 13.0532 166.269 6.21845 167.026C0.581987 146.931 -0.624079 126.361 2.57879 107.142C9.1988 108.709 15.8105 110.411 22.3941 112.219C20.0653 128.983 21.5416 147.412 26.7904 165.465L26.7958 165.468ZM87.4638 32.808C92.5443 39.1138 97.8419 45.2607 103.288 51.27C88.8362 58.0643 76.2038 67.543 66.756 78.4971C59.3163 73.9332 51.9347 69.2702 44.6504 64.4798C55.6859 51.7247 70.4709 40.7272 87.4583 32.8055L87.4638 32.808ZM44.1675 64.1622C38.4613 60.4032 32.827 56.5581 27.2776 52.6129C39.6116 37.5299 55.8631 24.8678 74.6913 15.8534C78.63 21.4903 82.7808 26.9791 87.0911 32.3489C70.0516 40.313 55.2308 51.3602 44.1675 64.1622ZM104.611 230.243C104.54 230.211 104.474 230.181 104.403 230.149C110.701 226.761 117.45 223.906 124.13 221.364C124.267 221.426 124.401 221.493 124.533 221.553L124.538 221.555C136.823 227.12 149.931 229.613 162.963 229.024C159.179 232.324 155.744 235.67 152.667 239.185C136.465 240.218 120.038 237.231 104.611 230.243ZM197.317 214.296C190.72 216.757 183.937 218.158 177.175 218.506C178.749 217.345 180.348 216.189 181.9 215.065C184.706 213.037 187.522 211 190.276 208.896C196.011 208.657 201.823 207.45 207.401 205.273C208.294 204.932 209.173 204.551 210.04 204.165C208.917 205.801 207.71 207.504 206.431 209.293C206.122 209.727 205.803 210.17 205.492 210.609C202.864 212.012 200.133 213.249 197.315 214.301L197.317 214.296ZM147.49 212.977C150.156 212.001 152.94 211.025 155.875 209.993C160.203 208.477 164.741 206.877 169.309 205.139C175.498 207.817 182.327 209.083 189.287 208.923C186.744 210.853 184.151 212.733 181.565 214.596C179.786 215.888 177.943 217.218 176.146 218.548C166.329 218.898 156.57 217.037 147.493 212.972L147.49 212.977ZM225.489 109.596C225.674 111.824 225.887 114.091 226.095 116.283C226.392 119.459 226.692 122.643 226.922 125.834C222.451 120.498 216.993 116.191 210.901 113.313C209.183 108.715 207.381 104.231 205.666 99.9639C204.512 97.0926 203.426 94.3774 202.402 91.7433C211.445 95.8718 219.282 101.975 225.489 109.596ZM238.871 136.901C238.751 137.427 238.624 137.957 238.504 138.469C237.997 140.622 237.515 142.647 237.027 144.57C236.753 143.66 236.457 142.755 236.127 141.853C234.079 136.221 231.157 131.065 227.548 126.593C227.313 123.135 226.987 119.675 226.661 116.229C226.485 114.316 226.299 112.351 226.133 110.402C230.329 115.72 233.749 121.742 236.25 128.325C237.321 131.132 238.192 134.001 238.869 136.906L238.871 136.901ZM168.896 204.332L168.879 204.325C162.316 201.352 156.592 197.004 151.985 191.605C160.437 190.512 169.05 189.221 177.371 187.382C180.324 190.739 183.946 193.448 188.068 195.315C188.304 195.422 188.539 195.528 188.774 195.622C188.851 195.656 188.927 195.678 189.003 195.712C182.727 199.111 175.987 201.975 169.314 204.515C169.172 204.45 169.033 204.394 168.89 204.329L168.896 204.332ZM210.024 113.53C210.161 113.592 210.303 113.656 210.438 113.724C212.922 120.417 215.216 127.367 216.801 134.326C216.73 134.294 216.658 134.249 216.587 134.216C212.26 132.131 207.594 131.086 202.868 131.077C198.762 123.609 194.051 116.283 189.299 109.209C196.401 109.114 203.439 110.547 210.002 113.52L210.024 113.53ZM189.001 195.091C184.758 193.301 181.04 190.614 178.011 187.237C185.446 185.564 192.637 183.451 199.269 180.623C200.685 182.201 202.388 183.467 204.331 184.347C204.523 184.434 204.722 184.518 204.922 184.601C200.489 188.736 195.267 192.269 189.659 195.356C189.441 195.271 189.214 195.188 188.998 195.097L189.001 195.091ZM205.233 184.103C203.152 183.279 201.326 182.009 199.83 180.389C205.248 178.04 210.268 175.201 214.743 171.758C212.384 176.429 209.184 180.522 205.375 184.154C205.331 184.134 205.277 184.122 205.233 184.103ZM197.06 162.37C197.588 161.204 198.261 160.11 199.04 159.104C204.219 162.716 209.326 166.415 214.342 170.198C208.188 168.928 202.037 167.52 195.911 166.012C196.154 164.763 196.531 163.536 197.06 162.37ZM218.916 154.258C218.693 159.514 217.73 164.627 215.772 169.473C215.413 163.841 214.231 158.193 212.423 152.571C214.394 152.619 216.328 153.053 218.135 153.872C218.348 153.968 218.567 154.067 218.787 154.18C218.83 154.2 218.869 154.231 218.918 154.253L218.916 154.258ZM216.45 169.331C218.305 164.61 219.238 159.649 219.476 154.565C221.003 155.448 222.367 156.574 223.53 157.866C221.884 161.877 219.592 165.714 216.45 169.331ZM223.955 158.355C225.296 159.952 226.362 161.781 227.092 163.708C224.444 166.058 221.057 168.133 216.613 170.006C219.872 166.336 222.255 162.428 223.955 158.355ZM215.196 169.476C212.311 164.165 208.979 159.053 205.301 154.108C205.813 153.866 206.346 153.651 206.885 153.467C208.514 152.899 210.179 152.603 211.813 152.578C213.634 158.2 214.83 163.848 215.194 169.482L215.196 169.476ZM214.682 169.738C209.666 165.955 204.57 162.262 199.397 158.652C200.865 156.882 202.702 155.418 204.778 154.36C208.462 159.307 211.799 164.421 214.685 169.733L214.682 169.738ZM214.218 170.762C208.323 172.096 202.278 172.96 196.129 173.454C195.548 171.198 195.439 168.847 195.806 166.579C201.926 168.084 208.067 169.486 214.221 170.756L214.218 170.762ZM214.361 171.321C209.886 174.763 204.857 177.592 199.43 179.93C198.368 178.678 197.496 177.24 196.842 175.638C196.626 175.111 196.436 174.569 196.28 174.024C202.423 173.527 208.463 172.661 214.358 171.327L214.361 171.321ZM215.078 172.359C214.432 177.106 213.06 181.36 211.13 185.243C209.391 185.221 207.646 184.938 205.981 184.375C209.64 180.841 212.753 176.867 215.081 172.367L215.078 172.359ZM215.693 172.037C217.216 176.612 217.89 180.527 217.87 184.067C215.937 184.795 213.863 185.194 211.778 185.239C213.718 181.276 215.081 176.912 215.693 172.037ZM216.179 171.676C216.755 172.181 217.317 172.674 217.854 173.134C220.697 175.597 222.948 177.546 224.567 179.579C222.901 181.424 220.764 182.877 218.4 183.858C218.407 180.259 217.72 176.286 216.177 171.682L216.179 171.676ZM218.236 172.7C217.671 172.214 217.078 171.701 216.464 171.165C217.266 171.272 218.048 171.381 218.786 171.485C222.444 171.987 225.413 172.395 228.053 172.278C227.853 173.533 227.502 174.76 226.974 175.926C226.446 177.092 225.761 178.167 224.943 179.143C223.285 177.079 221.023 175.111 218.23 172.698L218.236 172.7ZM218.869 170.909C218.166 170.815 217.422 170.709 216.666 170.617C221.144 168.74 224.584 166.636 227.285 164.257C228.107 166.681 228.426 169.24 228.13 171.713C225.542 171.834 222.592 171.428 218.866 170.914L218.869 170.909ZM227.542 163.312C226.757 161.3 225.628 159.41 224.204 157.762C225.991 153.307 226.998 148.65 227.493 143.886C229.787 146.819 231.68 150.17 233.044 153.816C233.202 154.238 233.342 154.657 233.477 155.088C232.016 158.167 230.152 160.885 227.539 163.317L227.542 163.312ZM223.771 157.276C222.542 155.954 221.113 154.812 219.514 153.929C219.731 147.872 218.983 141.642 217.636 135.411C221.142 137.328 224.31 140.004 226.971 143.248C226.508 148.072 225.532 152.776 223.768 157.281L223.771 157.276ZM218.951 153.628C216.845 152.568 214.565 152.024 212.234 151.997C209.987 145.147 206.832 138.348 203.186 131.656C207.723 131.705 212.194 132.728 216.338 134.737C216.549 134.839 216.761 134.955 216.969 135.062C218.347 141.314 219.132 147.561 218.951 153.628ZM211.63 152.007C209.985 152.054 208.324 152.357 206.694 152.925C206.105 153.134 205.52 153.377 204.958 153.643C200.076 147.13 194.611 140.888 188.825 134.843C189.763 134.404 190.721 133.993 191.703 133.646C195.257 132.353 198.906 131.697 202.525 131.66C206.195 138.356 209.36 145.16 211.633 152.015L211.63 152.007ZM204.432 153.9C202.301 154.993 200.428 156.506 198.924 158.326C191.778 153.347 184.512 148.532 177.156 143.841C180.177 140.215 183.975 137.218 188.278 135.103C194.075 141.153 199.543 147.39 204.432 153.9ZM198.562 158.775C197.763 159.812 197.083 160.935 196.537 162.14C195.992 163.344 195.596 164.596 195.344 165.881C186.888 163.793 178.471 161.504 170.088 159.066C170.563 156.372 171.363 153.746 172.494 151.249C173.625 148.753 175.073 146.414 176.783 144.286C184.142 148.984 191.414 153.802 198.562 158.775ZM195.247 166.444C194.871 168.774 194.969 171.18 195.553 173.503C187.435 174.121 179.141 174.125 170.77 173.757C169.522 169.128 169.275 164.299 170.002 159.634C178.382 162.064 186.794 164.35 195.247 166.444ZM195.698 174.071C195.869 174.669 196.073 175.269 196.31 175.852C196.952 177.449 197.82 178.898 198.869 180.164C192.226 182.974 185.018 185.08 177.567 186.746C175.208 184.001 173.295 180.826 171.923 177.301C171.544 176.331 171.213 175.343 170.925 174.349C179.292 174.708 187.581 174.702 195.698 174.071ZM205.516 184.818C207.237 185.432 209.035 185.759 210.839 185.811C208.621 190.11 205.727 193.952 202.403 197.474C198.213 197.607 194.114 196.998 190.361 195.628C195.933 192.531 201.106 188.976 205.514 184.823L205.516 184.818ZM211.485 185.813C213.668 185.799 215.829 185.399 217.858 184.662C217.761 188.227 216.94 191.424 215.594 194.555C215.184 194.732 214.771 194.901 214.349 195.06C210.707 196.445 206.939 197.232 203.222 197.442C206.476 193.928 209.312 190.1 211.482 185.818L211.485 185.813ZM218.397 184.464C220.894 183.464 223.158 181.963 224.924 180.031C226.322 181.911 227.189 183.9 227.478 186.452C224.448 189.646 220.645 192.317 216.314 194.248C217.562 191.171 218.317 187.99 218.397 184.464ZM225.302 179.602C226.19 178.56 226.934 177.412 227.502 176.158C228.068 174.91 228.442 173.589 228.637 172.239C230.96 172.064 233.042 171.444 235.152 170.077C234.812 173.07 234.051 175.945 232.856 178.583C231.661 181.222 230.002 183.69 227.974 185.925C227.604 183.435 226.697 181.461 225.302 179.602ZM228.712 171.666C229 169.065 228.641 166.376 227.739 163.836C230.335 161.443 232.231 158.785 233.715 155.815C235.12 160.345 235.618 164.97 235.224 169.351C233.109 170.814 231.042 171.475 228.707 171.664L228.712 171.666ZM234.081 155.064C235.279 152.506 236.214 149.73 237.045 146.715C238.799 153.329 239.26 160.089 238.453 166.532C237.559 167.473 236.688 168.259 235.836 168.902C236.177 164.406 235.595 159.676 234.081 155.064ZM233.822 154.327C233.737 154.091 233.661 153.851 233.579 153.61C232.122 149.717 230.071 146.149 227.575 143.066C228.036 137.997 227.937 132.813 227.613 127.599C230.948 131.874 233.655 136.749 235.583 142.048C236.019 143.242 236.396 144.449 236.746 145.656C235.902 148.83 234.996 151.705 233.827 154.329L233.822 154.327ZM227.037 142.433C224.296 139.206 221.047 136.546 217.468 134.675C215.921 127.72 213.656 120.776 211.18 114.08C217.219 117.033 222.61 121.414 226.989 126.808C227.344 132.069 227.469 137.311 227.042 142.435L227.037 142.433ZM202.215 131.091C198.63 131.156 195.019 131.816 191.501 133.1C190.443 133.485 189.403 133.917 188.399 134.399C181.79 127.52 174.771 120.877 167.732 114.351C169.074 113.705 170.447 113.106 171.857 112.571C177.336 110.48 182.993 109.368 188.616 109.217C193.372 116.299 198.09 123.622 202.215 131.091ZM187.861 134.67C183.536 136.835 179.714 139.867 176.668 143.534C168.113 138.083 159.454 132.788 150.759 127.616C155.176 122.234 160.743 117.809 167.175 114.62C174.22 121.149 181.247 127.789 187.861 134.67ZM176.303 143.976C174.581 146.132 173.114 148.496 171.974 151.014C170.833 153.532 170.024 156.194 169.539 158.91C159.799 156.075 150.11 153.052 140.483 149.925C141.189 145.963 142.382 142.09 144.066 138.373C145.749 134.656 147.876 131.199 150.386 128.061C159.086 133.235 167.748 138.524 176.303 143.976ZM169.445 159.481C168.698 164.189 168.939 169.062 170.167 173.735C160.632 173.302 151.006 172.399 141.452 171.41C139.607 164.472 139.262 157.368 140.394 150.499C150.017 153.623 159.705 156.646 169.448 159.475L169.445 159.481ZM170.316 174.324C170.621 175.398 170.976 176.463 171.385 177.513C172.742 180.997 174.62 184.15 176.933 186.894C168.598 188.72 159.981 190.002 151.53 191.096C147.931 186.761 145.04 181.783 142.998 176.286C142.47 174.873 142.017 173.441 141.615 172.012C151.163 172.998 160.786 173.893 170.316 174.324ZM189.702 195.989C193.472 197.44 197.606 198.131 201.839 198.063C198.272 201.758 194.249 205.121 190.058 208.329C183.115 208.595 176.274 207.43 170.069 204.844C176.736 202.288 183.449 199.411 189.702 195.989ZM202.67 198.05C206.634 197.892 210.669 197.081 214.558 195.603C214.791 195.511 215.027 195.413 215.255 195.318C214.061 197.925 212.492 200.5 210.661 203.233C209.527 203.768 208.372 204.281 207.187 204.74C201.932 206.787 196.477 207.964 191.07 208.279C195.194 205.087 199.159 201.737 202.665 198.047L202.67 198.05ZM215.98 195.027C220.453 193.121 224.384 190.441 227.542 187.214C227.618 188.284 227.601 189.457 227.484 190.75C223.173 195.606 217.788 199.718 211.659 202.761C213.38 200.143 214.848 197.615 215.98 195.027ZM228.067 186.68C230.284 184.306 232.087 181.666 233.371 178.83C234.656 175.994 235.451 172.898 235.776 169.66C236.606 169.066 237.453 168.348 238.318 167.486C237.707 171.69 236.561 175.736 234.855 179.502C233.149 183.268 230.864 186.799 228.109 190.024C228.186 188.806 228.166 187.701 228.07 186.675L228.067 186.68ZM229.002 189.874C228.681 190.336 228.349 190.792 228.011 191.246C228.021 191.165 228.029 191.076 228.034 190.993C228.358 190.625 228.686 190.252 228.997 189.872L229.002 189.874ZM238.999 166.799C239.053 166.737 239.115 166.673 239.172 166.62C239.056 167.168 238.926 167.716 238.797 168.264C238.87 167.783 238.94 167.293 239.004 166.801L238.999 166.799ZM239.123 165.826C239.839 159.249 239.244 152.362 237.332 145.658C237.928 143.44 238.478 141.104 239.063 138.617C239.098 138.482 239.128 138.33 239.165 138.189C241.112 147.232 241.188 156.562 239.412 165.508C239.317 165.617 239.219 165.731 239.126 165.834L239.123 165.826ZM201.65 91.409C202.729 94.2132 203.891 97.1084 205.133 100.178C206.778 104.281 208.505 108.566 210.153 112.968C203.418 109.937 196.195 108.493 188.917 108.64C187.061 105.893 185.211 103.175 183.384 100.507C179.933 95.4536 176.665 90.6678 173.732 86.0736C183.204 85.7855 192.758 87.4738 201.65 91.409ZM182.913 100.834C184.671 103.405 186.455 106.021 188.246 108.666C182.677 108.855 177.085 109.971 171.664 112.035C170.164 112.609 168.707 113.248 167.289 113.932C165.61 112.38 163.926 110.826 162.25 109.281C156.23 103.724 150.536 98.4669 145.09 93.1434C153.801 88.9281 163.385 86.4867 173.068 86.0964C176.059 90.7825 179.396 95.6652 182.921 100.831L182.913 100.834ZM161.86 109.705C163.478 111.203 165.109 112.701 166.727 114.212C160.277 117.439 154.698 121.906 150.261 127.331C140.906 121.768 131.523 116.337 122.2 110.979C128.273 103.603 135.973 97.6566 144.541 93.4226C150.03 98.7983 155.777 104.1 161.852 109.708L161.86 109.705ZM149.888 127.776C147.363 130.934 145.231 134.402 143.535 138.146C141.842 141.885 140.638 145.78 139.933 149.755C129.589 146.389 119.319 142.919 109.148 139.447C110.029 134.383 111.516 129.396 113.681 124.617C115.848 119.832 118.608 115.429 121.841 111.424C131.156 116.784 140.538 122.215 149.891 127.77L149.888 127.776ZM139.845 150.329C138.695 157.237 139.02 164.371 140.842 171.358C138.639 171.125 136.438 170.9 134.248 170.667C126.025 169.799 118.244 168.973 110.584 168.393C108.121 159.163 107.509 149.458 109.052 140.023C119.228 143.498 129.498 146.968 139.842 150.334L139.845 150.329ZM134.187 171.24C136.452 171.481 138.726 171.719 141.008 171.954C141.424 173.482 141.907 174.994 142.468 176.495C144.489 181.936 147.344 186.878 150.871 191.18C147.697 191.59 144.557 191.968 141.462 192.348C135.257 193.1 129.389 193.82 123.894 194.663C117.801 187.126 113.318 178.307 110.738 168.984C118.329 169.559 126.042 170.374 134.187 171.24ZM141.533 192.921C144.74 192.526 148.011 192.134 151.298 191.71C155.984 197.283 161.836 201.755 168.557 204.818C164.172 206.474 159.83 208.004 155.674 209.46C152.537 210.559 149.576 211.606 146.735 212.648C137.913 208.56 130.343 202.492 124.314 195.176C129.7 194.357 135.453 193.657 141.527 192.918L141.533 192.921ZM206.896 209.636C208.376 207.562 209.77 205.607 211.044 203.697C217.347 200.706 222.913 196.617 227.387 191.736C227.368 191.879 227.35 192.022 227.331 192.165C221.78 199.396 214.715 205.498 206.63 210.004C206.717 209.885 206.807 209.76 206.888 209.639L206.896 209.636ZM239.463 136.918C239.545 136.579 239.618 136.243 239.701 135.898C240.144 134.06 240.626 132.312 241.159 130.64C243.129 141.686 242.831 152.964 240.286 163.885C241.796 155.016 241.531 145.812 239.458 136.916L239.463 136.918ZM239.171 135.684C238.525 133.135 237.734 130.613 236.794 128.129C234.168 121.213 230.523 114.911 226.046 109.386C226.047 109.34 226.04 109.298 226.035 109.249C225.608 104.088 225.331 99.1798 225.264 94.4783C230.244 100.963 234.274 108.218 237.193 116.091C238.836 120.49 240.081 124.966 240.951 129.484C240.286 131.446 239.693 133.513 239.171 135.684ZM225.406 108.615C219.17 101.159 211.362 95.1811 202.389 91.1171C202.291 91.0725 202.198 91.0303 202.11 90.9907C200.999 88.1124 199.801 85.1353 198.534 81.9886C196.914 77.9626 195.217 73.7432 193.587 69.4163C205.971 75.0519 216.552 83.3872 224.682 93.7394C224.721 98.4743 224.988 103.418 225.406 108.615ZM197.997 82.2002C199.191 85.156 200.318 87.9556 201.358 90.6699C192.431 86.8112 182.861 85.1881 173.367 85.5255C173.298 85.4152 173.226 85.3103 173.158 85.2L170.764 81.4242C166.888 75.3142 162.978 69.1625 159.186 62.9257C171.025 62.4956 182.556 64.5518 192.843 69.0926C194.533 73.6054 196.302 78.0022 197.991 82.1977L197.997 82.2002ZM170.281 81.7332L172.675 85.509C172.675 85.509 172.695 85.5378 172.701 85.5537C162.987 85.9964 153.381 88.487 144.649 92.7326C144.577 92.6601 144.498 92.5851 144.42 92.5101C137.477 85.6841 130.47 78.7825 123.533 71.7545C125.562 70.7998 127.644 69.9023 129.759 69.0788C139.204 65.4137 148.956 63.372 158.528 62.9509C162.37 69.2827 166.34 75.5343 170.276 81.7307L170.281 81.7332ZM144.03 92.9205C144.055 92.9518 144.083 92.9776 144.116 93.0059C135.515 97.2842 127.792 103.266 121.702 110.695C119.533 109.455 117.373 108.206 115.217 106.966C108.059 102.859 100.85 98.7164 93.629 94.5153C101.284 85.3487 111.345 77.6013 122.978 72.0178C129.965 79.095 137.031 86.0428 144.024 92.918L144.03 92.9205ZM114.932 107.463C117.064 108.686 119.198 109.917 121.34 111.144C118.1 115.166 115.33 119.591 113.158 124.387C110.986 129.182 109.486 134.183 108.603 139.266C106.265 138.471 103.937 137.667 101.61 136.877C93.7772 134.2 85.874 131.504 77.9205 128.832C78.9537 122.531 80.7386 116.478 83.2876 110.851C85.8391 105.217 89.2036 99.8867 93.264 94.9569C100.518 99.1729 107.757 103.336 114.935 107.458L114.932 107.463ZM101.426 137.427C103.781 138.23 106.141 139.035 108.501 139.84C106.936 149.311 107.531 159.067 109.988 168.354C109.942 168.353 109.907 168.344 109.867 168.345C100.086 167.623 90.2038 166.894 80.2756 166.31C76.7999 153.883 75.9858 141.216 77.8298 129.411C85.7504 132.068 93.6183 134.755 101.426 137.427ZM109.821 168.912C109.929 168.921 110.037 168.931 110.139 168.937C112.699 178.304 117.167 187.169 123.244 194.758C123.228 194.764 123.207 194.767 123.185 194.771L118.766 195.454C111.512 196.582 104.2 197.723 96.9091 199.006C90.9124 191.533 86.0098 182.854 82.5385 173.345C81.7598 171.204 81.0641 169.055 80.446 166.895C90.2986 167.472 100.114 168.19 109.821 168.912ZM118.857 196.023L123.277 195.34C123.405 195.319 123.534 195.298 123.662 195.277C129.665 202.634 137.197 208.757 145.988 212.93C143.274 213.924 140.448 214.92 137.462 215.963C133.174 217.464 128.691 219.043 124.161 220.758C113.971 216.017 104.818 208.711 97.3326 199.528C104.514 198.268 111.714 197.142 118.86 196.031L118.857 196.023ZM137.642 216.499C140.826 215.382 143.838 214.325 146.713 213.265C146.806 213.307 146.899 213.35 146.998 213.394C155.97 217.458 165.611 219.391 175.328 219.16C171.155 222.271 167.257 225.328 163.672 228.421C150.528 229.138 137.288 226.69 124.881 221.09C129.226 219.45 133.525 217.94 137.642 216.499ZM176.225 219.204C176.262 219.181 176.299 219.158 176.333 219.127C183.439 218.849 190.581 217.427 197.513 214.84C199.997 213.913 202.415 212.844 204.76 211.643C203.463 213.471 202.311 215.271 201.272 217.07C197.303 219.396 193.117 221.412 188.73 223.087C180.886 226.072 172.775 227.827 164.611 228.372C168.192 225.316 172.062 222.293 176.225 219.204ZM205.273 211.909C205.474 211.624 205.681 211.342 205.88 211.062C213.937 206.749 221.028 200.882 226.701 193.892C220.168 203.013 211.89 210.67 202.288 216.475C203.195 214.966 204.184 213.454 205.278 211.911L205.273 211.909ZM241.538 129.499C242.424 126.886 243.445 124.458 244.619 122.2C246.844 135.32 246.406 148.726 243.316 161.754C242.51 162.353 241.701 163.061 240.87 163.906C243.492 152.597 243.721 140.919 241.538 129.499ZM241.321 128.418C240.457 124.194 239.261 120.003 237.734 115.888C234.694 107.728 230.476 100.217 225.257 93.5318C225.217 88.4796 225.438 83.6648 226.018 79.0192C231.801 86.659 236.476 95.1562 239.868 104.345C241.921 109.907 243.454 115.596 244.476 121.336C243.278 123.545 242.236 125.89 241.324 128.413L241.321 128.418ZM224.678 92.8009C216.527 82.6108 205.998 74.4108 193.716 68.8412L193.71 68.8387C193.574 68.7768 193.44 68.7227 193.303 68.6607C190.808 61.9625 188.5 55.0125 186.89 48.0356C186.961 48.0678 187.033 48.1 187.104 48.1323L187.109 48.1347C202.536 55.1221 215.618 65.4942 225.525 78.3603C224.917 82.9801 224.663 87.7801 224.678 92.8009ZM192.575 68.3444C182.243 63.8888 170.698 61.8923 158.858 62.3681C154.58 55.3241 150.476 48.1739 146.732 40.8836C160.79 40.2447 174.321 42.5335 186.231 47.7569C187.811 54.7135 190.089 61.6566 192.575 68.3444ZM158.2 62.3933C148.667 62.8451 138.966 64.8902 129.56 68.5405C127.366 69.3939 125.215 70.3263 123.118 71.3159C116.726 64.8318 110.397 58.2376 104.253 51.4697C106.304 50.525 108.38 49.625 110.5 48.7906C122.301 44.134 134.376 41.5083 146.101 40.9078C149.837 48.2012 153.936 55.3488 158.2 62.3933ZM122.561 71.5847C110.896 77.207 100.808 85.0011 93.1283 94.2225C84.4873 89.1937 75.8373 84.0684 67.2578 78.8167C76.6808 67.9174 89.2799 58.483 103.698 51.733C109.843 58.501 116.169 65.1006 122.558 71.5901L122.561 71.5847ZM92.7608 94.6696C88.6984 99.6183 85.3215 104.976 82.7651 110.62C80.2086 116.264 78.4108 122.331 77.3702 128.649C67.8832 125.473 58.3202 122.349 48.7032 119.359C49.8136 111.707 51.8442 104.486 54.8023 97.9549C57.7604 91.4241 61.8543 85.124 66.8684 79.2539C75.4614 84.5051 84.1169 89.6329 92.7608 94.6696ZM77.2765 129.22C75.4102 141.074 76.205 153.798 79.6718 166.274C70.5822 165.746 61.4466 165.348 52.3068 165.193C47.8659 149.901 46.6479 134.209 48.6314 119.94C58.2375 122.925 67.795 126.047 77.274 129.225L77.2765 129.22ZM79.8397 166.864C80.4743 169.105 81.1944 171.331 82.0001 173.543C85.4565 183.012 90.3227 191.656 96.2707 199.12C88.1685 200.563 80.0895 202.188 72.1463 204.198C64.867 194.983 58.8714 184.172 54.5861 172.236C53.8154 170.093 53.1222 167.938 52.4822 165.768C61.6249 165.931 70.7526 166.331 79.8421 166.859L79.8397 166.864ZM96.6832 199.636C104.137 208.844 113.255 216.214 123.416 221.034C116.754 223.578 110.033 226.445 103.765 229.854C91.9801 224.338 81.3359 215.677 72.5418 204.694C80.4856 202.697 88.5701 201.074 96.6832 199.636ZM163.911 228.985C172.376 228.504 180.801 226.726 188.944 223.619C193.045 222.052 196.976 220.191 200.729 218.051C199.434 220.401 198.356 222.736 197.487 225.093C192.492 228.109 187.213 230.705 181.676 232.835C172.539 236.343 163.061 238.437 153.504 239.129C156.614 235.629 160.089 232.281 163.914 228.98L163.911 228.985ZM201.682 217.506C211.703 211.622 220.331 203.746 227.102 194.318C227.012 195.491 227.019 196.569 227.097 197.575C219.343 208.491 209.547 217.665 198.225 224.643C199.15 222.265 200.3 219.902 201.682 217.506ZM227.767 193.372C230.722 189.136 233.318 184.598 235.495 179.792C237.675 174.98 239.376 170.044 240.606 165.026C241.453 164.104 242.276 163.322 243.095 162.664C241.603 168.697 239.547 174.647 236.921 180.445C234.298 186.237 231.181 191.706 227.633 196.801C227.587 195.752 227.632 194.618 227.765 193.378L227.767 193.372ZM237.45 180.677C240.189 174.628 242.318 168.414 243.824 162.103C245.994 160.546 248.157 159.804 250.565 159.542C248.795 167.528 246.188 175.412 242.721 183.065C239.257 190.713 235.054 197.88 230.216 204.47C228.824 202.487 227.953 200.377 227.692 197.719C231.437 192.422 234.71 186.726 237.45 180.677ZM244.02 161.262C247.055 148.109 247.416 134.583 245.071 121.362C246.788 118.227 248.823 115.395 251.246 112.785C254.179 128.04 253.986 143.688 250.701 158.937C248.308 159.166 246.163 159.838 244.015 161.259L244.02 161.262ZM244.925 120.55C243.897 115.011 242.39 109.526 240.406 104.147C236.928 94.7274 232.101 86.01 226.124 78.2028C226.774 73.3447 227.824 68.681 229.377 64.1326C236.366 73.2161 242.004 83.3439 246.069 94.2959C248.246 100.151 249.922 106.122 251.114 112.158C248.706 114.722 246.658 117.495 244.919 120.547L244.925 120.55ZM225.637 77.5733C215.717 64.8395 202.689 54.5649 187.347 47.6092L187.342 47.6067C187.139 47.515 186.932 47.4342 186.729 47.3425C185.324 41.0651 184.507 34.784 184.658 28.6836C202.389 36.8601 217.464 48.834 228.952 63.584C227.375 68.1146 226.305 72.7495 225.632 77.5708L225.637 77.5733ZM184.819 28.1233C184.775 28.1035 184.737 28.0861 184.693 28.0663C184.893 22.4697 185.929 17.0346 188.091 11.8979C207.53 20.7486 223.774 33.4173 236.356 48.5637C233.288 53.2967 230.94 58.0586 229.189 62.9456C217.653 48.227 202.558 36.2834 184.822 28.1179L184.819 28.1233ZM186.078 47.0608C174.102 41.8937 160.533 39.6467 146.447 40.319C143.09 33.7318 140.046 27.0224 137.467 20.1607C154.166 19.3721 170.189 22.1301 184.099 28.4307C183.924 34.5266 184.706 40.7983 186.084 47.0633L186.078 47.0608ZM145.813 40.3486C134.108 40.9779 122.06 43.616 110.286 48.2582C108.1 49.122 105.952 50.049 103.84 51.0256C98.3922 45.0217 93.097 38.8694 88.0056 32.5586C91.2221 31.0796 94.5068 29.6976 97.8693 28.4497C110.836 23.6085 124.041 20.8615 136.853 20.1924C139.421 27.0491 142.459 33.7561 145.808 40.3462L145.813 40.3486ZM66.3751 78.9447C61.3566 84.8392 57.2552 91.1557 54.2847 97.7139C51.3167 104.267 49.2682 111.513 48.1504 119.181C39.8211 116.596 31.4476 114.122 23.0456 111.814C24.3328 102.884 26.6955 94.4341 30.1595 86.7865C33.6259 79.1334 38.4167 71.7899 44.2805 64.9324C51.5593 69.7203 58.9409 74.3833 66.3751 78.9447ZM51.8793 165.759C52.5299 167.993 53.25 170.219 54.0502 172.429C58.321 184.339 64.2838 195.134 71.5362 204.35C64.3821 206.177 57.3343 208.322 50.4865 210.914C42.5397 200.842 35.8922 189.096 30.977 176.162C29.7052 172.809 28.5697 169.431 27.568 166.035C35.6642 165.698 43.7786 165.626 51.8873 165.756L51.8793 165.759ZM71.9288 204.838C80.7115 215.876 91.3552 224.596 103.138 230.19C97.5197 233.286 92.2846 236.833 87.8179 240.984C73.9076 234.684 61.267 224.459 50.8487 211.381C57.7074 208.794 64.7557 206.663 71.9288 204.838ZM87.9436 241.668C87.9874 241.688 88.0257 241.705 88.0695 241.725C105.908 249.68 124.838 253.141 143.508 252.11C140.99 256.65 138.959 261.556 137.427 266.978C117.738 267.52 97.5068 263.654 78.0313 254.886C80.4667 249.873 83.8713 245.517 87.9491 241.671L87.9436 241.668ZM88.3927 241.245C92.8759 237.1 98.1388 233.579 103.787 230.49C103.984 230.58 104.181 230.682 104.378 230.772L104.384 230.774C119.723 237.722 136.041 240.732 152.161 239.793C148.986 243.482 146.2 247.346 143.837 251.514C125.167 252.604 106.23 249.173 88.3897 241.237L88.3927 241.245ZM152.956 239.758C162.766 239.101 172.494 236.983 181.879 233.376C187.228 231.326 192.342 228.833 197.189 225.955C196.041 229.275 195.307 232.643 194.966 236.15C189.64 239.227 184.046 241.905 178.207 244.136C167.296 248.298 155.964 250.739 144.524 251.482C146.928 247.313 149.741 243.447 152.961 239.76L152.956 239.758ZM197.891 225.527C209.372 218.575 219.302 209.383 227.187 198.427C227.529 200.977 228.445 203.034 229.853 204.979C220.557 217.506 208.923 227.971 195.521 235.828C195.885 232.285 196.666 228.885 197.896 225.529L197.891 225.527ZM230.21 205.457C231.847 207.597 234.077 209.636 236.773 212.104C237.486 212.757 238.239 213.455 239.014 214.175C227.312 229.815 212.676 242.305 196.259 251.211C195.345 245.901 195.05 241.09 195.446 236.532C209.019 228.648 220.798 218.11 230.208 205.463L230.21 205.457ZM239.36 213.705C238.598 212.997 237.862 212.321 237.162 211.68C234.428 209.182 232.187 207.124 230.568 204.959C235.481 198.292 239.733 191.047 243.241 183.301C246.752 175.549 249.389 167.573 251.166 159.484C253.863 159.281 256.88 159.612 260.564 160.014C261.51 160.112 262.501 160.225 263.535 160.33C261.507 169.73 258.443 179.103 254.278 188.299C250.112 197.496 245.09 205.976 239.362 213.699L239.36 213.705ZM263.659 159.766C262.606 159.659 261.585 159.552 260.623 159.447C256.991 159.048 253.985 158.723 251.299 158.898C254.597 143.489 254.752 127.679 251.727 112.277C254.889 108.979 258.703 106.022 263.294 103.213C267.424 121.419 267.694 140.66 263.656 159.772L263.659 159.766ZM263.166 102.621C258.619 105.39 254.804 108.353 251.606 111.655C250.413 105.724 248.754 99.8599 246.613 94.1003C242.48 82.9787 236.731 72.7018 229.602 63.4892C231.331 58.5789 233.668 53.7851 236.732 49.0442C249.645 64.7428 258.632 83.0771 263.164 102.626L263.166 102.621ZM187.566 11.6599C185.399 16.8075 184.351 22.2376 184.124 27.8219C170.142 21.5214 154.039 18.7799 137.252 19.6015C135.043 13.6724 133.2 7.63232 131.796 1.45443C151.457 0.622095 170.614 4.03444 187.566 11.6599ZM86.7182 10.7121C101.338 5.22114 116.408 2.14432 131.212 1.46068C132.605 7.63362 134.443 13.6846 136.642 19.6088C123.831 20.3047 110.624 23.0572 97.6652 27.8954C94.2445 29.1697 90.9041 30.5727 87.6379 32.0886C83.3196 26.7218 79.1633 21.2304 75.2222 15.599C78.9545 13.8259 82.789 12.1915 86.7182 10.7121ZM26.9181 53.057C32.4645 56.9943 38.0933 60.8369 43.7941 64.5934C37.9125 71.4758 33.1122 78.8546 29.6359 86.5295C26.1596 94.2045 23.779 102.679 22.4848 111.64C15.9013 109.832 9.3005 108.135 2.68048 106.568C4.38524 96.6725 7.23889 87.1387 11.283 78.2101C15.3247 69.287 20.6035 60.8517 26.9231 53.0461L26.9181 53.057ZM10.291 179.447C8.80908 175.523 7.50868 171.563 6.38233 167.582C13.2171 166.825 20.0811 166.338 26.9657 166.039C27.9804 169.494 29.1319 172.938 30.4246 176.348C35.3423 189.276 41.9789 201.017 49.9073 211.1C44.0041 213.354 38.2436 215.964 32.6821 218.993C23.4322 207.414 15.8057 194.057 10.2934 179.441L10.291 179.447ZM50.278 211.578C60.7317 224.738 73.4073 235.031 87.3713 241.402C83.3234 245.256 79.9272 249.622 77.4973 254.637C60.5771 246.927 45.3799 234.773 33.0413 219.453C38.6033 216.437 44.3668 213.835 50.278 211.578ZM138.02 266.949C139.568 261.508 141.625 256.601 144.178 252.058C155.802 251.345 167.321 248.883 178.407 244.655C184.146 242.471 189.65 239.845 194.892 236.836C194.522 241.412 194.814 246.228 195.729 251.478C178.051 260.968 158.337 266.302 138.02 266.949Z" fill="url(#paint0_linear_14098_2062)"/>
<path d="M104.611 230.243C104.54 230.211 104.474 230.181 104.403 230.149C110.701 226.761 117.45 223.906 124.13 221.364C124.267 221.426 124.401 221.493 124.533 221.553L124.538 221.555C136.823 227.12 149.931 229.613 162.963 229.024C159.179 232.324 155.744 235.67 152.667 239.185C136.465 240.218 120.038 237.231 104.611 230.243ZM104.611 230.243L104.606 230.241M254.797 188.522C267.597 160.263 270.103 130.391 263.81 102.873C264.307 102.577 264.81 102.283 265.32 101.986L265.038 101.489C264.577 101.749 264.119 102.016 263.675 102.284C259.1 82.6692 250.043 64.2568 237.053 48.5101C237.086 48.4658 237.117 48.4135 237.142 48.3722L236.687 48.0669C224.007 32.8301 207.629 20.1074 188.042 11.2355L188.031 11.2306C170.907 3.47451 151.536 0.0246548 131.657 0.870713C131.612 0.678789 131.567 0.486864 131.528 0.297421L130.965 0.418532C130.998 0.57864 131.045 0.73823 131.075 0.903813C116.247 1.59644 101.151 4.68772 86.5126 10.1901C52.0157 23.1515 24.4005 47.8659 10.7531 77.9965C-2.8944 108.127 -3.25601 145.179 9.75062 179.664C15.2744 194.298 22.9098 207.679 32.1608 219.285C32.0211 219.36 31.868 219.436 31.7314 219.519L32.0116 220.022C32.18 219.927 32.354 219.834 32.5255 219.747C44.9946 235.245 60.369 247.532 77.4927 255.288L77.5036 255.293C97.0907 264.165 117.458 268.08 137.28 267.564L137.807 267.711C137.821 267.651 137.835 267.605 137.855 267.547C158.258 266.926 178.059 261.591 195.833 252.093C195.923 252.609 196.023 253.129 196.132 253.647L196.692 253.531C196.573 252.949 196.462 252.378 196.365 251.806C221.197 238.379 242.001 216.801 254.798 188.548L254.797 188.522ZM22.9593 112.369C31.3589 114.683 39.7378 117.158 48.0726 119.746C46.0723 134.067 47.2734 149.811 51.703 165.157C43.5943 165.027 35.4798 165.099 27.3867 165.445C22.14 147.446 20.6498 129.077 22.9648 112.372L22.9593 112.369ZM26.7958 165.468C19.9167 165.769 13.0532 166.269 6.21845 167.026C0.581987 146.931 -0.624082 126.361 2.57879 107.142C9.1988 108.709 15.8105 110.411 22.3941 112.219C20.0653 128.983 21.5416 147.412 26.7904 165.465L26.7958 165.468ZM87.4638 32.808C92.5443 39.1138 97.8419 45.2607 103.288 51.27C88.8362 58.0643 76.2038 67.543 66.756 78.4971C59.3163 73.9332 51.9347 69.2702 44.6504 64.4798C55.6859 51.7247 70.4709 40.7272 87.4583 32.8055L87.4638 32.808ZM44.1675 64.1622C38.4613 60.4032 32.827 56.5581 27.2776 52.6129C39.6116 37.5299 55.8631 24.8678 74.6913 15.8534C78.63 21.4903 82.7808 26.9791 87.0911 32.3489C70.0516 40.313 55.2308 51.3602 44.1675 64.1622ZM197.317 214.296C190.72 216.757 183.937 218.158 177.175 218.506C178.749 217.345 180.348 216.189 181.9 215.065C184.706 213.037 187.522 211 190.276 208.896C196.011 208.657 201.823 207.45 207.401 205.273C208.294 204.932 209.173 204.551 210.04 204.165C208.917 205.801 207.71 207.504 206.431 209.293C206.122 209.727 205.803 210.17 205.492 210.609C202.864 212.012 200.133 213.249 197.315 214.301L197.317 214.296ZM147.49 212.977C150.156 212.001 152.94 211.025 155.875 209.993C160.203 208.477 164.741 206.877 169.309 205.139C175.498 207.817 182.327 209.083 189.287 208.923C186.744 210.853 184.151 212.733 181.565 214.596C179.786 215.888 177.943 217.218 176.146 218.548C166.329 218.898 156.57 217.037 147.493 212.972L147.49 212.977ZM225.489 109.596C225.674 111.824 225.887 114.091 226.095 116.283C226.392 119.459 226.692 122.643 226.922 125.834C222.451 120.498 216.993 116.191 210.901 113.313C209.183 108.715 207.381 104.231 205.666 99.9639C204.512 97.0926 203.426 94.3774 202.402 91.7433C211.445 95.8718 219.282 101.975 225.489 109.596ZM238.871 136.901C238.751 137.427 238.624 137.957 238.504 138.469C237.997 140.622 237.515 142.647 237.027 144.57C236.753 143.66 236.457 142.755 236.127 141.853C234.079 136.221 231.157 131.065 227.548 126.593C227.313 123.135 226.987 119.675 226.661 116.229C226.485 114.316 226.299 112.351 226.133 110.402C230.329 115.72 233.749 121.742 236.25 128.325C237.321 131.132 238.192 134.001 238.869 136.906L238.871 136.901ZM168.896 204.332L168.879 204.325C162.316 201.352 156.592 197.004 151.985 191.605C160.437 190.512 169.05 189.221 177.371 187.382C180.324 190.739 183.946 193.448 188.068 195.315C188.304 195.422 188.539 195.528 188.774 195.622C188.851 195.656 188.927 195.678 189.003 195.712C182.727 199.111 175.987 201.975 169.314 204.515C169.172 204.45 169.033 204.394 168.89 204.329L168.896 204.332ZM210.024 113.53C210.161 113.592 210.303 113.656 210.438 113.724C212.922 120.417 215.216 127.367 216.801 134.326C216.73 134.294 216.658 134.249 216.587 134.216C212.26 132.131 207.594 131.086 202.868 131.077C198.762 123.609 194.051 116.283 189.299 109.209C196.401 109.114 203.439 110.547 210.002 113.52L210.024 113.53ZM189.001 195.091C184.758 193.301 181.04 190.614 178.011 187.237C185.446 185.564 192.637 183.451 199.269 180.623C200.685 182.201 202.388 183.467 204.331 184.347C204.523 184.434 204.722 184.518 204.922 184.601C200.489 188.736 195.267 192.269 189.659 195.356C189.441 195.271 189.214 195.188 188.998 195.097L189.001 195.091ZM205.233 184.103C203.152 183.279 201.326 182.009 199.83 180.389C205.248 178.04 210.268 175.201 214.743 171.758C212.384 176.429 209.184 180.522 205.375 184.154C205.331 184.134 205.277 184.122 205.233 184.103ZM197.06 162.37C197.588 161.204 198.261 160.11 199.04 159.104C204.219 162.716 209.326 166.415 214.342 170.198C208.188 168.928 202.037 167.52 195.911 166.012C196.154 164.763 196.531 163.536 197.06 162.37ZM218.916 154.258C218.693 159.514 217.73 164.627 215.772 169.473C215.413 163.841 214.231 158.193 212.423 152.571C214.394 152.619 216.328 153.053 218.135 153.872C218.348 153.968 218.567 154.067 218.787 154.18C218.83 154.2 218.869 154.231 218.918 154.253L218.916 154.258ZM216.45 169.331C218.304 164.61 219.238 159.649 219.476 154.565C221.003 155.448 222.367 156.574 223.53 157.866C221.884 161.877 219.592 165.714 216.45 169.331ZM223.955 158.355C225.296 159.952 226.362 161.781 227.092 163.708C224.444 166.058 221.057 168.133 216.613 170.006C219.872 166.336 222.255 162.428 223.955 158.355ZM215.196 169.476C212.311 164.165 208.979 159.053 205.301 154.108C205.813 153.866 206.346 153.651 206.885 153.467C208.514 152.899 210.179 152.603 211.813 152.578C213.634 158.2 214.83 163.848 215.194 169.482L215.196 169.476ZM214.682 169.738C209.666 165.955 204.57 162.262 199.397 158.652C200.865 156.882 202.702 155.418 204.778 154.36C208.462 159.307 211.799 164.421 214.685 169.733L214.682 169.738ZM214.218 170.762C208.323 172.096 202.278 172.96 196.129 173.454C195.548 171.198 195.439 168.847 195.806 166.579C201.926 168.084 208.067 169.486 214.221 170.756L214.218 170.762ZM214.361 171.321C209.886 174.763 204.857 177.592 199.43 179.93C198.368 178.678 197.496 177.24 196.842 175.638C196.626 175.111 196.436 174.569 196.28 174.024C202.423 173.527 208.463 172.661 214.358 171.327L214.361 171.321ZM215.078 172.359C214.432 177.106 213.06 181.36 211.13 185.243C209.391 185.221 207.646 184.938 205.981 184.375C209.64 180.841 212.753 176.867 215.081 172.367L215.078 172.359ZM215.693 172.037C217.216 176.612 217.89 180.527 217.87 184.067C215.937 184.795 213.863 185.194 211.778 185.239C213.718 181.276 215.081 176.912 215.693 172.037ZM216.179 171.676C216.755 172.181 217.317 172.674 217.854 173.134C220.697 175.597 222.948 177.546 224.567 179.579C222.901 181.424 220.764 182.877 218.4 183.858C218.407 180.259 217.72 176.286 216.177 171.682L216.179 171.676ZM218.236 172.7C217.671 172.214 217.078 171.701 216.464 171.165C217.266 171.272 218.048 171.381 218.786 171.485C222.444 171.987 225.413 172.395 228.053 172.278C227.853 173.533 227.502 174.76 226.974 175.926C226.446 177.092 225.761 178.167 224.943 179.143C223.285 177.079 221.023 175.111 218.23 172.698L218.236 172.7ZM218.869 170.909C218.166 170.815 217.422 170.709 216.666 170.617C221.144 168.74 224.584 166.636 227.285 164.257C228.107 166.681 228.426 169.24 228.13 171.713C225.542 171.834 222.592 171.428 218.866 170.914L218.869 170.909ZM227.542 163.312C226.757 161.3 225.628 159.41 224.204 157.762C225.991 153.307 226.998 148.65 227.493 143.886C229.787 146.819 231.68 150.17 233.044 153.816C233.202 154.238 233.342 154.657 233.477 155.088C232.016 158.167 230.152 160.885 227.539 163.317L227.542 163.312ZM223.771 157.276C222.542 155.954 221.113 154.812 219.514 153.929C219.731 147.872 218.983 141.642 217.636 135.411C221.142 137.328 224.31 140.004 226.971 143.248C226.508 148.072 225.532 152.776 223.768 157.281L223.771 157.276ZM218.951 153.628C216.845 152.568 214.565 152.024 212.234 151.997C209.987 145.147 206.832 138.348 203.186 131.656C207.723 131.705 212.194 132.728 216.338 134.737C216.549 134.839 216.761 134.955 216.969 135.062C218.347 141.314 219.132 147.561 218.951 153.628ZM211.63 152.007C209.985 152.054 208.324 152.357 206.694 152.925C206.105 153.134 205.52 153.377 204.958 153.643C200.076 147.13 194.611 140.888 188.825 134.843C189.763 134.404 190.721 133.993 191.703 133.646C195.257 132.353 198.906 131.697 202.525 131.66C206.195 138.356 209.36 145.16 211.633 152.015L211.63 152.007ZM204.432 153.9C202.301 154.993 200.428 156.506 198.924 158.326C191.778 153.347 184.512 148.532 177.156 143.841C180.177 140.215 183.975 137.218 188.278 135.103C194.075 141.153 199.543 147.39 204.432 153.9ZM198.562 158.775C197.763 159.812 197.083 160.935 196.537 162.14C195.992 163.344 195.596 164.596 195.344 165.881C186.888 163.793 178.471 161.504 170.088 159.066C170.563 156.372 171.363 153.746 172.494 151.249C173.625 148.753 175.073 146.414 176.783 144.286C184.142 148.984 191.414 153.802 198.562 158.775ZM195.247 166.444C194.871 168.774 194.969 171.18 195.553 173.503C187.435 174.121 179.141 174.125 170.77 173.757C169.522 169.128 169.275 164.299 170.002 159.634C178.382 162.064 186.794 164.35 195.247 166.444ZM195.698 174.071C195.869 174.669 196.073 175.269 196.31 175.852C196.952 177.449 197.82 178.898 198.869 180.164C192.226 182.974 185.018 185.08 177.567 186.746C175.208 184.001 173.295 180.826 171.923 177.301C171.544 176.331 171.213 175.343 170.925 174.349C179.292 174.708 187.581 174.702 195.698 174.071ZM205.516 184.818C207.237 185.432 209.035 185.759 210.839 185.811C208.621 190.11 205.727 193.952 202.403 197.474C198.213 197.607 194.114 196.998 190.361 195.628C195.933 192.531 201.106 188.976 205.514 184.823L205.516 184.818ZM211.485 185.813C213.668 185.799 215.829 185.399 217.858 184.662C217.761 188.227 216.94 191.424 215.594 194.555C215.184 194.732 214.771 194.901 214.349 195.06C210.707 196.445 206.939 197.232 203.222 197.442C206.476 193.928 209.312 190.1 211.482 185.818L211.485 185.813ZM218.397 184.464C220.894 183.464 223.158 181.963 224.924 180.031C226.322 181.911 227.189 183.9 227.478 186.452C224.448 189.646 220.645 192.317 216.314 194.248C217.562 191.171 218.317 187.99 218.397 184.464ZM225.302 179.602C226.19 178.56 226.934 177.412 227.502 176.158C228.068 174.91 228.442 173.589 228.637 172.239C230.96 172.064 233.042 171.444 235.152 170.077C234.812 173.07 234.051 175.945 232.856 178.583C231.661 181.222 230.002 183.69 227.974 185.925C227.604 183.435 226.697 181.461 225.302 179.602ZM228.712 171.666C229 169.065 228.641 166.376 227.739 163.836C230.335 161.443 232.231 158.785 233.715 155.815C235.12 160.345 235.618 164.97 235.224 169.351C233.109 170.814 231.042 171.475 228.707 171.664L228.712 171.666ZM234.081 155.064C235.279 152.506 236.214 149.73 237.045 146.715C238.799 153.329 239.26 160.089 238.453 166.532C237.559 167.473 236.688 168.259 235.836 168.902C236.177 164.406 235.595 159.676 234.081 155.064ZM233.822 154.327C233.737 154.091 233.661 153.851 233.579 153.61C232.122 149.717 230.071 146.149 227.575 143.066C228.036 137.997 227.937 132.813 227.613 127.599C230.948 131.874 233.655 136.749 235.583 142.048C236.019 143.242 236.396 144.449 236.746 145.656C235.902 148.83 234.996 151.705 233.827 154.329L233.822 154.327ZM227.037 142.433C224.296 139.206 221.047 136.546 217.468 134.675C215.921 127.72 213.656 120.776 211.18 114.08C217.219 117.033 222.61 121.414 226.989 126.808C227.344 132.069 227.469 137.311 227.042 142.435L227.037 142.433ZM202.215 131.091C198.63 131.156 195.019 131.816 191.501 133.1C190.443 133.485 189.403 133.917 188.399 134.399C181.79 127.52 174.771 120.877 167.732 114.351C169.074 113.705 170.447 113.106 171.857 112.571C177.336 110.48 182.993 109.368 188.616 109.217C193.372 116.299 198.09 123.622 202.215 131.091ZM187.861 134.67C183.536 136.835 179.714 139.867 176.668 143.534C168.113 138.083 159.454 132.788 150.759 127.616C155.176 122.234 160.743 117.809 167.175 114.62C174.22 121.149 181.247 127.789 187.861 134.67ZM176.303 143.976C174.581 146.132 173.114 148.496 171.974 151.014C170.833 153.532 170.024 156.194 169.539 158.91C159.799 156.075 150.11 153.052 140.483 149.925C141.189 145.963 142.382 142.09 144.066 138.373C145.749 134.656 147.876 131.199 150.386 128.061C159.086 133.235 167.748 138.524 176.303 143.976ZM169.445 159.481C168.698 164.189 168.939 169.062 170.167 173.735C160.632 173.302 151.006 172.399 141.452 171.41C139.607 164.472 139.262 157.368 140.394 150.499C150.017 153.623 159.705 156.646 169.448 159.475L169.445 159.481ZM170.316 174.324C170.621 175.398 170.976 176.463 171.385 177.513C172.742 180.997 174.62 184.15 176.933 186.894C168.598 188.72 159.981 190.002 151.53 191.096C147.931 186.761 145.04 181.783 142.998 176.286C142.47 174.873 142.017 173.441 141.615 172.012C151.163 172.998 160.786 173.893 170.316 174.324ZM189.702 195.989C193.472 197.44 197.606 198.131 201.839 198.063C198.272 201.758 194.249 205.121 190.058 208.329C183.115 208.595 176.274 207.43 170.069 204.844C176.736 202.288 183.449 199.411 189.702 195.989ZM202.67 198.05C206.634 197.892 210.669 197.081 214.558 195.603C214.791 195.511 215.027 195.413 215.255 195.318C214.061 197.925 212.492 200.5 210.661 203.233C209.527 203.768 208.372 204.281 207.187 204.74C201.932 206.787 196.477 207.964 191.07 208.279C195.194 205.087 199.159 201.737 202.665 198.047L202.67 198.05ZM215.98 195.027C220.453 193.121 224.384 190.441 227.542 187.214C227.618 188.284 227.601 189.457 227.484 190.75C223.173 195.606 217.788 199.718 211.659 202.761C213.38 200.143 214.848 197.615 215.98 195.027ZM228.067 186.68C230.284 184.306 232.087 181.666 233.371 178.83C234.656 175.994 235.451 172.898 235.776 169.66C236.606 169.066 237.453 168.348 238.318 167.486C237.707 171.69 236.561 175.736 234.855 179.502C233.149 183.268 230.864 186.799 228.109 190.024C228.186 188.806 228.166 187.701 228.07 186.675L228.067 186.68ZM229.002 189.874C228.681 190.336 228.349 190.792 228.011 191.246C228.021 191.165 228.029 191.076 228.034 190.993C228.358 190.625 228.686 190.252 228.997 189.872L229.002 189.874ZM238.999 166.799C239.053 166.737 239.115 166.673 239.172 166.62C239.056 167.168 238.926 167.716 238.797 168.264C238.87 167.783 238.94 167.293 239.004 166.801L238.999 166.799ZM239.123 165.826C239.839 159.249 239.244 152.362 237.332 145.658C237.928 143.44 238.478 141.104 239.063 138.617C239.098 138.482 239.128 138.33 239.165 138.189C241.112 147.232 241.188 156.562 239.412 165.508C239.317 165.617 239.219 165.731 239.126 165.834L239.123 165.826ZM201.65 91.409C202.729 94.2132 203.891 97.1084 205.133 100.178C206.778 104.281 208.505 108.566 210.153 112.968C203.418 109.937 196.195 108.493 188.917 108.64C187.061 105.893 185.211 103.175 183.384 100.507C179.933 95.4536 176.665 90.6678 173.732 86.0736C183.204 85.7855 192.758 87.4738 201.65 91.409ZM182.913 100.834C184.671 103.405 186.455 106.021 188.246 108.666C182.677 108.855 177.085 109.971 171.664 112.035C170.164 112.609 168.707 113.248 167.289 113.932C165.61 112.38 163.926 110.826 162.25 109.281C156.23 103.724 150.536 98.4669 145.09 93.1434C153.801 88.9281 163.385 86.4867 173.068 86.0964C176.059 90.7825 179.396 95.6652 182.921 100.831L182.913 100.834ZM161.86 109.705C163.478 111.203 165.109 112.701 166.727 114.212C160.277 117.439 154.698 121.906 150.261 127.331C140.906 121.768 131.523 116.337 122.2 110.979C128.273 103.603 135.973 97.6566 144.541 93.4226C150.03 98.7983 155.777 104.1 161.852 109.708L161.86 109.705ZM149.888 127.776C147.363 130.934 145.231 134.402 143.535 138.146C141.842 141.885 140.638 145.78 139.933 149.755C129.589 146.389 119.319 142.919 109.148 139.447C110.029 134.383 111.516 129.396 113.681 124.617C115.848 119.832 118.608 115.429 121.841 111.424C131.156 116.784 140.538 122.215 149.891 127.77L149.888 127.776ZM139.845 150.329C138.695 157.237 139.02 164.371 140.842 171.358C138.639 171.125 136.438 170.9 134.248 170.667C126.025 169.799 118.244 168.973 110.584 168.393C108.121 159.163 107.509 149.458 109.052 140.023C119.228 143.498 129.498 146.968 139.842 150.334L139.845 150.329ZM134.187 171.24C136.452 171.481 138.726 171.719 141.008 171.954C141.424 173.482 141.907 174.994 142.468 176.495C144.489 181.936 147.344 186.878 150.871 191.18C147.697 191.59 144.557 191.968 141.462 192.348C135.257 193.1 129.389 193.82 123.894 194.663C117.801 187.126 113.318 178.307 110.738 168.984C118.329 169.559 126.042 170.374 134.187 171.24ZM141.533 192.921C144.74 192.526 148.011 192.134 151.298 191.71C155.984 197.283 161.836 201.755 168.557 204.818C164.172 206.474 159.83 208.004 155.674 209.46C152.537 210.559 149.576 211.606 146.735 212.648C137.913 208.56 130.343 202.492 124.314 195.176C129.7 194.357 135.453 193.657 141.527 192.918L141.533 192.921ZM206.896 209.636C208.376 207.562 209.77 205.607 211.044 203.697C217.347 200.706 222.913 196.617 227.387 191.736C227.368 191.879 227.35 192.022 227.331 192.165C221.78 199.396 214.715 205.498 206.63 210.004C206.717 209.885 206.807 209.76 206.888 209.639L206.896 209.636ZM239.463 136.918C239.545 136.579 239.618 136.243 239.701 135.898C240.144 134.06 240.626 132.312 241.159 130.64C243.129 141.686 242.831 152.964 240.286 163.885C241.796 155.016 241.531 145.812 239.458 136.916L239.463 136.918ZM239.171 135.684C238.525 133.135 237.734 130.613 236.794 128.129C234.168 121.213 230.523 114.911 226.046 109.386C226.047 109.34 226.04 109.298 226.035 109.249C225.609 104.088 225.331 99.1798 225.264 94.4783C230.244 100.963 234.274 108.218 237.193 116.091C238.836 120.49 240.081 124.966 240.951 129.484C240.286 131.446 239.693 133.513 239.171 135.684ZM225.406 108.615C219.17 101.159 211.362 95.1811 202.389 91.1171C202.291 91.0725 202.198 91.0303 202.11 90.9906C200.999 88.1124 199.801 85.1353 198.534 81.9886C196.914 77.9626 195.217 73.7432 193.587 69.4163C205.971 75.0519 216.552 83.3872 224.682 93.7394C224.721 98.4743 224.988 103.418 225.406 108.615ZM197.997 82.2002C199.191 85.156 200.318 87.9556 201.358 90.6699C192.431 86.8112 182.861 85.1881 173.367 85.5255C173.298 85.4152 173.226 85.3103 173.158 85.2L170.764 81.4242C166.888 75.3142 162.978 69.1626 159.186 62.9257C171.025 62.4956 182.556 64.5518 192.843 69.0926C194.533 73.6054 196.302 78.0022 197.991 82.1977L197.997 82.2002ZM170.281 81.7332L172.675 85.509C172.675 85.509 172.695 85.5378 172.701 85.5537C162.987 85.9963 153.381 88.487 144.649 92.7326C144.577 92.6601 144.498 92.5851 144.42 92.5101C137.477 85.6841 130.47 78.7825 123.533 71.7545C125.562 70.7998 127.644 69.9023 129.759 69.0788C139.204 65.4137 148.956 63.372 158.528 62.9509C162.37 69.2827 166.34 75.5343 170.276 81.7307L170.281 81.7332ZM144.03 92.9205C144.055 92.9518 144.083 92.9776 144.116 93.0059C135.515 97.2842 127.792 103.266 121.702 110.695C119.533 109.455 117.373 108.206 115.217 106.966C108.059 102.859 100.85 98.7164 93.629 94.5153C101.284 85.3487 111.345 77.6013 122.978 72.0178C129.965 79.095 137.031 86.0428 144.024 92.918L144.03 92.9205ZM114.932 107.463C117.064 108.686 119.198 109.917 121.34 111.144C118.1 115.166 115.331 119.591 113.158 124.387C110.986 129.182 109.486 134.183 108.603 139.266C106.265 138.471 103.937 137.667 101.61 136.877C93.7772 134.2 85.874 131.504 77.9205 128.832C78.9537 122.531 80.7386 116.478 83.2876 110.851C85.8391 105.218 89.2036 99.8867 93.264 94.9569C100.518 99.1729 107.757 103.336 114.935 107.458L114.932 107.463ZM101.426 137.427C103.781 138.23 106.141 139.035 108.501 139.84C106.936 149.311 107.531 159.067 109.988 168.354C109.942 168.353 109.907 168.344 109.867 168.345C100.086 167.623 90.2038 166.894 80.2756 166.31C76.7999 153.883 75.9858 141.216 77.8298 129.411C85.7504 132.068 93.6183 134.755 101.426 137.427ZM109.821 168.912C109.929 168.921 110.037 168.931 110.139 168.937C112.699 178.304 117.167 187.169 123.244 194.758C123.228 194.764 123.207 194.767 123.185 194.771L118.766 195.454C111.512 196.582 104.2 197.723 96.9091 199.006C90.9124 191.533 86.0098 182.854 82.5385 173.345C81.7598 171.204 81.0641 169.055 80.446 166.895C90.2986 167.472 100.114 168.19 109.821 168.912ZM118.857 196.023L123.277 195.34C123.405 195.319 123.534 195.298 123.662 195.277C129.665 202.634 137.197 208.757 145.988 212.93C143.274 213.924 140.448 214.92 137.462 215.963C133.174 217.464 128.691 219.043 124.161 220.758C113.971 216.017 104.818 208.711 97.3326 199.528C104.514 198.268 111.714 197.142 118.86 196.031L118.857 196.023ZM137.642 216.499C140.826 215.382 143.838 214.325 146.713 213.265C146.806 213.307 146.899 213.35 146.998 213.394C155.97 217.458 165.611 219.391 175.328 219.16C171.155 222.271 167.257 225.328 163.672 228.421C150.528 229.138 137.288 226.69 124.881 221.09C129.226 219.45 133.525 217.94 137.642 216.499ZM176.225 219.204C176.262 219.181 176.299 219.158 176.333 219.127C183.439 218.849 190.581 217.427 197.513 214.84C199.997 213.913 202.415 212.844 204.76 211.643C203.463 213.471 202.311 215.271 201.272 217.07C197.303 219.396 193.117 221.412 188.73 223.087C180.886 226.072 172.775 227.827 164.611 228.372C168.192 225.316 172.062 222.293 176.225 219.204ZM205.273 211.909C205.474 211.624 205.681 211.342 205.88 211.062C213.937 206.749 221.028 200.882 226.701 193.892C220.168 203.013 211.89 210.67 202.288 216.475C203.195 214.966 204.184 213.454 205.278 211.911L205.273 211.909ZM241.538 129.499C242.424 126.886 243.445 124.458 244.619 122.2C246.844 135.32 246.406 148.726 243.316 161.754C242.51 162.353 241.701 163.061 240.87 163.906C243.492 152.597 243.721 140.919 241.538 129.499ZM241.321 128.418C240.457 124.194 239.261 120.003 237.734 115.888C234.694 107.728 230.476 100.217 225.257 93.5318C225.217 88.4796 225.438 83.6648 226.018 79.0192C231.801 86.659 236.476 95.1562 239.868 104.345C241.921 109.907 243.454 115.596 244.476 121.336C243.278 123.545 242.236 125.89 241.324 128.413L241.321 128.418ZM224.678 92.8009C216.527 82.6108 205.998 74.4108 193.716 68.8412L193.71 68.8387C193.574 68.7768 193.44 68.7227 193.303 68.6607C190.808 61.9625 188.5 55.0125 186.89 48.0356C186.961 48.0678 187.033 48.1 187.104 48.1323L187.109 48.1347C202.536 55.1221 215.618 65.4942 225.525 78.3603C224.917 82.9801 224.663 87.7801 224.678 92.8009ZM192.575 68.3444C182.243 63.8888 170.698 61.8923 158.858 62.3681C154.58 55.3241 150.476 48.174 146.732 40.8836C160.79 40.2447 174.321 42.5335 186.231 47.7569C187.811 54.7135 190.089 61.6566 192.575 68.3444ZM158.2 62.3933C148.667 62.8451 138.966 64.8902 129.56 68.5405C127.366 69.3939 125.215 70.3263 123.118 71.3159C116.726 64.8317 110.397 58.2376 104.253 51.4697C106.304 50.525 108.38 49.625 110.5 48.7906C122.301 44.134 134.376 41.5083 146.101 40.9078C149.837 48.2012 153.936 55.3488 158.2 62.3933ZM122.561 71.5847C110.896 77.207 100.808 85.0011 93.1283 94.2225C84.4873 89.1937 75.8373 84.0684 67.2578 78.8167C76.6808 67.9174 89.2799 58.483 103.698 51.733C109.843 58.501 116.169 65.1006 122.558 71.5901L122.561 71.5847ZM92.7608 94.6696C88.6984 99.6183 85.3215 104.976 82.7651 110.62C80.2086 116.264 78.4108 122.331 77.3702 128.649C67.8832 125.473 58.3202 122.349 48.7032 119.359C49.8136 111.707 51.8442 104.486 54.8023 97.9549C57.7604 91.4241 61.8543 85.124 66.8684 79.2539C75.4614 84.5051 84.1169 89.6329 92.7608 94.6696ZM77.2765 129.22C75.4102 141.074 76.205 153.798 79.6718 166.274C70.5822 165.746 61.4466 165.348 52.3068 165.193C47.8659 149.901 46.6479 134.209 48.6314 119.94C58.2375 122.925 67.795 126.047 77.274 129.225L77.2765 129.22ZM79.8397 166.864C80.4743 169.105 81.1944 171.331 82.0001 173.543C85.4565 183.012 90.3227 191.656 96.2707 199.12C88.1685 200.563 80.0895 202.188 72.1463 204.198C64.867 194.983 58.8714 184.172 54.5861 172.236C53.8154 170.093 53.1222 167.938 52.4822 165.768C61.6249 165.931 70.7526 166.331 79.8421 166.859L79.8397 166.864ZM96.6832 199.636C104.137 208.845 113.255 216.214 123.416 221.034C116.754 223.578 110.033 226.445 103.765 229.854C91.9801 224.338 81.3359 215.677 72.5418 204.694C80.4856 202.697 88.5701 201.074 96.6832 199.636ZM163.911 228.985C172.376 228.504 180.801 226.726 188.944 223.619C193.045 222.052 196.976 220.191 200.729 218.051C199.434 220.401 198.356 222.736 197.487 225.093C192.492 228.109 187.212 230.705 181.676 232.835C172.539 236.343 163.061 238.437 153.504 239.129C156.614 235.629 160.089 232.281 163.914 228.98L163.911 228.985ZM201.682 217.506C211.703 211.622 220.331 203.746 227.102 194.318C227.012 195.491 227.019 196.569 227.097 197.575C219.343 208.491 209.547 217.665 198.225 224.643C199.15 222.265 200.3 219.902 201.682 217.506ZM227.767 193.372C230.722 189.136 233.318 184.599 235.495 179.792C237.675 174.98 239.376 170.044 240.606 165.026C241.453 164.104 242.276 163.322 243.095 162.664C241.603 168.697 239.547 174.647 236.922 180.445C234.298 186.237 231.181 191.706 227.633 196.801C227.587 195.752 227.632 194.618 227.765 193.378L227.767 193.372ZM237.45 180.677C240.189 174.628 242.318 168.414 243.824 162.103C245.994 160.546 248.157 159.804 250.565 159.542C248.795 167.528 246.188 175.412 242.721 183.065C239.257 190.713 235.054 197.88 230.216 204.47C228.824 202.487 227.953 200.377 227.692 197.719C231.437 192.422 234.71 186.726 237.45 180.677ZM244.02 161.262C247.055 148.109 247.416 134.583 245.071 121.362C246.788 118.227 248.823 115.395 251.246 112.785C254.179 128.04 253.986 143.688 250.701 158.937C248.308 159.166 246.163 159.838 244.015 161.259L244.02 161.262ZM244.925 120.55C243.897 115.011 242.39 109.526 240.406 104.147C236.928 94.7274 232.101 86.01 226.124 78.2028C226.774 73.3447 227.824 68.681 229.377 64.1326C236.366 73.2161 242.004 83.3439 246.069 94.296C248.246 100.151 249.922 106.122 251.114 112.158C248.706 114.722 246.658 117.495 244.919 120.547L244.925 120.55ZM225.637 77.5733C215.717 64.8396 202.689 54.5649 187.347 47.6092L187.342 47.6067C187.139 47.515 186.932 47.4342 186.729 47.3425C185.324 41.0651 184.507 34.784 184.658 28.6836C202.389 36.8601 217.464 48.834 228.952 63.584C227.375 68.1146 226.305 72.7495 225.632 77.5709L225.637 77.5733ZM184.819 28.1233C184.775 28.1035 184.737 28.0861 184.693 28.0663C184.893 22.4697 185.93 17.0346 188.091 11.8979C207.53 20.7486 223.774 33.4173 236.356 48.5637C233.288 53.2967 230.94 58.0586 229.189 62.9456C217.653 48.227 202.558 36.2834 184.822 28.1179L184.819 28.1233ZM186.078 47.0608C174.102 41.8937 160.533 39.6467 146.447 40.319C143.09 33.7318 140.046 27.0224 137.467 20.1607C154.166 19.3721 170.189 22.1301 184.099 28.4307C183.924 34.5266 184.706 40.7983 186.084 47.0633L186.078 47.0608ZM145.813 40.3486C134.108 40.9779 122.06 43.616 110.286 48.2582C108.1 49.122 105.952 50.049 103.84 51.0256C98.3922 45.0217 93.097 38.8694 88.0056 32.5586C91.2221 31.0796 94.5068 29.6976 97.8693 28.4497C110.836 23.6085 124.041 20.8615 136.853 20.1924C139.421 27.0491 142.459 33.756 145.808 40.3462L145.813 40.3486ZM66.3751 78.9447C61.3566 84.8392 57.2552 91.1557 54.2847 97.7139C51.3167 104.267 49.2682 111.513 48.1504 119.181C39.8211 116.596 31.4476 114.122 23.0456 111.814C24.3328 102.884 26.6955 94.4341 30.1595 86.7865C33.6259 79.1334 38.4167 71.7899 44.2805 64.9324C51.5593 69.7203 58.9409 74.3833 66.3751 78.9447ZM51.8793 165.759C52.5299 167.993 53.25 170.219 54.0502 172.429C58.321 184.339 64.2838 195.134 71.5362 204.35C64.3821 206.177 57.3343 208.322 50.4865 210.914C42.5397 200.842 35.8922 189.096 30.977 176.162C29.7052 172.809 28.5697 169.431 27.568 166.035C35.6642 165.698 43.7786 165.626 51.8873 165.756L51.8793 165.759ZM71.9288 204.838C80.7115 215.876 91.3552 224.596 103.138 230.19C97.5197 233.286 92.2846 236.833 87.8179 240.984C73.9076 234.684 61.267 224.459 50.8487 211.381C57.7074 208.794 64.7557 206.663 71.9288 204.838ZM87.9436 241.668C87.9874 241.688 88.0257 241.705 88.0695 241.725C105.908 249.68 124.838 253.141 143.508 252.11C140.99 256.65 138.959 261.556 137.427 266.978C117.738 267.52 97.5068 263.654 78.0313 254.886C80.4667 249.873 83.8713 245.517 87.9491 241.671L87.9436 241.668ZM88.3927 241.245C92.8759 237.1 98.1388 233.579 103.787 230.49C103.984 230.58 104.181 230.682 104.378 230.771L104.384 230.774C119.723 237.722 136.041 240.732 152.161 239.793C148.986 243.482 146.2 247.346 143.837 251.514C125.167 252.604 106.23 249.173 88.3897 241.237L88.3927 241.245ZM152.956 239.758C162.766 239.101 172.494 236.983 181.879 233.376C187.228 231.326 192.342 228.833 197.189 225.955C196.041 229.275 195.307 232.643 194.966 236.15C189.64 239.227 184.046 241.905 178.207 244.136C167.296 248.298 155.964 250.739 144.524 251.482C146.928 247.313 149.741 243.447 152.961 239.76L152.956 239.758ZM197.891 225.527C209.372 218.575 219.302 209.383 227.187 198.427C227.529 200.977 228.445 203.034 229.853 204.979C220.557 217.506 208.923 227.971 195.521 235.828C195.885 232.285 196.666 228.885 197.896 225.529L197.891 225.527ZM230.21 205.457C231.847 207.597 234.077 209.636 236.773 212.104C237.486 212.757 238.239 213.455 239.014 214.175C227.312 229.815 212.676 242.305 196.259 251.211C195.345 245.901 195.05 241.09 195.446 236.532C209.019 228.648 220.798 218.11 230.208 205.463L230.21 205.457ZM239.359 213.705C238.598 212.997 237.862 212.321 237.162 211.68C234.428 209.182 232.187 207.124 230.568 204.959C235.481 198.292 239.733 191.047 243.241 183.301C246.752 175.549 249.389 167.573 251.166 159.484C253.863 159.281 256.88 159.612 260.564 160.014C261.51 160.112 262.501 160.225 263.535 160.33C261.507 169.73 258.443 179.103 254.278 188.299C250.112 197.496 245.09 205.976 239.362 213.699L239.359 213.705ZM263.659 159.766C262.606 159.659 261.585 159.552 260.623 159.447C256.991 159.048 253.985 158.723 251.299 158.898C254.597 143.489 254.752 127.679 251.727 112.277C254.889 108.979 258.703 106.022 263.294 103.213C267.424 121.419 267.694 140.66 263.656 159.772L263.659 159.766ZM263.166 102.621C258.619 105.39 254.804 108.353 251.606 111.655C250.413 105.724 248.754 99.8599 246.613 94.1003C242.48 82.9787 236.731 72.7018 229.602 63.4892C231.331 58.5789 233.668 53.7851 236.732 49.0442C249.645 64.7428 258.632 83.0771 263.164 102.626L263.166 102.621ZM187.566 11.6599C185.399 16.8075 184.351 22.2376 184.124 27.8219C170.142 21.5214 154.039 18.7799 137.252 19.6015C135.043 13.6724 133.2 7.63232 131.796 1.45443C151.457 0.622094 170.614 4.03444 187.566 11.6599ZM86.7182 10.7121C101.338 5.22114 116.408 2.14432 131.212 1.46068C132.605 7.63361 134.443 13.6846 136.642 19.6088C123.831 20.3047 110.624 23.0572 97.6652 27.8954C94.2445 29.1697 90.9041 30.5727 87.6379 32.0886C83.3196 26.7218 79.1633 21.2304 75.2222 15.599C78.9545 13.8259 82.789 12.1915 86.7182 10.7121ZM26.9181 53.057C32.4645 56.9943 38.0933 60.8369 43.7941 64.5934C37.9125 71.4758 33.1122 78.8546 29.6359 86.5296C26.1596 94.2045 23.779 102.679 22.4848 111.64C15.9013 109.832 9.3005 108.135 2.68048 106.568C4.38524 96.6725 7.23889 87.1387 11.283 78.2101C15.3247 69.287 20.6035 60.8517 26.9231 53.0461L26.9181 53.057ZM10.291 179.447C8.80908 175.523 7.50868 171.563 6.38233 167.582C13.2171 166.825 20.0811 166.338 26.9657 166.039C27.9804 169.494 29.1319 172.938 30.4246 176.348C35.3423 189.276 41.9789 201.017 49.9073 211.1C44.0041 213.354 38.2436 215.964 32.6821 218.993C23.4322 207.414 15.8057 194.057 10.2934 179.441L10.291 179.447ZM50.278 211.578C60.7317 224.738 73.4073 235.031 87.3713 241.402C83.3234 245.256 79.9272 249.622 77.4973 254.637C60.5771 246.927 45.3799 234.773 33.0413 219.453C38.6033 216.437 44.3668 213.835 50.278 211.578ZM138.02 266.949C139.568 261.508 141.625 256.601 144.178 252.058C155.802 251.345 167.321 248.883 178.407 244.655C184.146 242.472 189.65 239.845 194.892 236.836C194.522 241.412 194.814 246.228 195.729 251.478C178.051 260.968 158.337 266.302 138.02 266.949Z" stroke="url(#paint1_linear_14098_2062)" stroke-width="0.5"/>
<defs>
<linearGradient id="paint0_linear_14098_2062" x1="111.864" y1="-23.2688" x2="191.676" y2="298.14" gradientUnits="userSpaceOnUse">
<stop stop-color="#FFA5FF"/>
<stop offset="1" stop-color="#926FF0"/>
</linearGradient>
<linearGradient id="paint1_linear_14098_2062" x1="111.864" y1="-23.2688" x2="191.676" y2="298.14" gradientUnits="userSpaceOnUse">
<stop stop-color="#FFA5FF"/>
<stop offset="1" stop-color="#926FF0"/>
</linearGradient>
</defs>
</svg>
