<svg width="21" height="21" viewBox="0 0 21 21" fill="none" xmlns="http://www.w3.org/2000/svg">
<path d="M17.3595 0.75H2.82618C1.67954 0.75 0.75 1.67954 0.75 2.82618V17.3595C0.75 18.5061 1.67954 19.4356 2.82618 19.4356H17.3595C18.5061 19.4356 19.4356 18.5061 19.4356 17.3595V2.82618C19.4356 1.67954 18.5061 0.75 17.3595 0.75Z" fill="#111111"/>
<path d="M6.97855 10.0928L9.05473 12.169L13.2071 8.01664" fill="#111111"/>
<path d="M6.97855 10.0928L9.05473 12.169L13.2071 8.01664M2.82618 0.75H17.3595C18.5061 0.75 19.4356 1.67954 19.4356 2.82618V17.3595C19.4356 18.5061 18.5061 19.4356 17.3595 19.4356H2.82618C1.67954 19.4356 0.75 18.5061 0.75 17.3595V2.82618C0.75 1.67954 1.67954 0.75 2.82618 0.75Z" stroke="url(#paint0_linear_14098_2131)" stroke-width="1.5" stroke-linecap="round" stroke-linejoin="round"/>
<defs>
<linearGradient id="paint0_linear_14098_2131" x1="19.4356" y1="-0.83828" x2="0.749998" y2="19.4356" gradientUnits="userSpaceOnUse">
<stop stop-color="#43E2C5"/>
<stop offset="1" stop-color="#70EE62"/>
</linearGradient>
</defs>
</svg>
