<svg width="40" height="40" viewBox="0 0 40 40" fill="none" xmlns="http://www.w3.org/2000/svg">
<rect x="39.75" y="39.75" width="39.5" height="39.5" rx="7.75" transform="rotate(-180 39.75 39.75)" fill="#111111" stroke="url(#paint0_linear_14142_541)" stroke-width="0.5"/>
<path d="M17.9346 12C19.624 12 21.1883 12.8544 22.0986 14.248C22.4003 14.1943 22.7067 14.1608 23.0137 14.1465V14.1338H23.3477C27.1993 14.1338 30.3329 17.2399 30.333 21.0576C30.333 24.8754 27.1993 27.9824 23.3477 27.9824C22.471 27.9824 20.7758 27.9867 19.0889 27.9912H18.9121L14.8096 28C11.6048 27.9998 9.00013 25.4178 9 22.2412C9.00005 19.7521 10.6083 17.5606 12.9639 16.7793C13.0442 14.129 15.2416 12.0001 17.9346 12Z" fill="url(#paint1_linear_14142_541)"/>
<path d="M17.9346 12V11.5H17.9346L17.9346 12ZM22.0986 14.248L21.68 14.5215C21.7897 14.6893 21.989 14.7755 22.1864 14.7403L22.0986 14.248ZM23.0137 14.1465L23.0369 14.6459C23.3037 14.6335 23.5137 14.4136 23.5137 14.1465H23.0137ZM23.0137 14.1338V13.6338C22.7375 13.6338 22.5137 13.8576 22.5137 14.1338H23.0137ZM23.3477 14.1338L23.3477 13.6338H23.3477V14.1338ZM30.333 21.0576L30.833 21.0576V21.0576L30.333 21.0576ZM23.3477 27.9824V28.4824H23.3477L23.3477 27.9824ZM19.0889 27.9912V28.4912L19.0902 28.4912L19.0889 27.9912ZM18.9121 27.9912V27.4912L18.911 27.4912L18.9121 27.9912ZM14.8096 28L14.8095 28.5L14.8106 28.5L14.8096 28ZM9 22.2412L8.5 22.2412V22.2412L9 22.2412ZM12.9639 16.7793L13.1213 17.2539C13.3205 17.1878 13.4573 17.0043 13.4636 16.7944L12.9639 16.7793ZM17.9346 12V12.5C19.4549 12.5 20.8619 13.269 21.68 14.5215L22.0986 14.248L22.5172 13.9746C21.5147 12.4398 19.793 11.5 17.9346 11.5V12ZM22.0986 14.248L22.1864 14.7403C22.4659 14.6905 22.7507 14.6593 23.0369 14.6459L23.0137 14.1465L22.9904 13.647C22.6627 13.6623 22.3347 13.6981 22.0109 13.7558L22.0986 14.248ZM23.0137 14.1465H23.5137V14.1338H23.0137H22.5137V14.1465H23.0137ZM23.0137 14.1338V14.6338H23.3477V14.1338V13.6338H23.0137V14.1338ZM23.3477 14.1338L23.3477 14.6338C26.9273 14.6338 29.8329 17.5202 29.833 21.0576L30.333 21.0576L30.833 21.0576C30.8329 16.9596 27.4713 13.6338 23.3477 13.6338L23.3477 14.1338ZM30.333 21.0576L29.833 21.0576C29.833 24.5952 26.9273 27.4824 23.3477 27.4824L23.3477 27.9824L23.3477 28.4824C27.4714 28.4824 30.833 25.1556 30.833 21.0576L30.333 21.0576ZM23.3477 27.9824V27.4824C22.4701 27.4824 20.7741 27.4867 19.0875 27.4912L19.0889 27.9912L19.0902 28.4912C20.7775 28.4867 22.4718 28.4824 23.3477 28.4824V27.9824ZM19.0889 27.9912V27.4912H18.9121V27.9912V28.4912H19.0889V27.9912ZM18.9121 27.9912L18.911 27.4912L14.8085 27.5L14.8096 28L14.8106 28.5L18.9132 28.4912L18.9121 27.9912ZM14.8096 28L14.8096 27.5C11.8768 27.4998 9.50012 25.1375 9.5 22.2412L9 22.2412L8.5 22.2412C8.50014 25.6981 11.3328 28.4997 14.8095 28.5L14.8096 28ZM9 22.2412L9.5 22.2412C9.50004 19.9709 10.9671 17.9684 13.1213 17.2539L12.9639 16.7793L12.8065 16.3047C10.2495 17.1528 8.50005 19.5333 8.5 22.2412L9 22.2412ZM12.9639 16.7793L13.4636 16.7944C13.5357 14.4174 15.5087 12.5001 17.9346 12.5L17.9346 12L17.9346 11.5C14.9744 11.5001 12.5527 13.8407 12.4641 16.7641L12.9639 16.7793Z" fill="#1A1A1A"/>
<defs>
<linearGradient id="paint0_linear_14142_541" x1="80" y1="36.6" x2="40" y2="80" gradientUnits="userSpaceOnUse">
<stop stop-color="#43E2C5"/>
<stop offset="1" stop-color="#70EE62"/>
</linearGradient>
<linearGradient id="paint1_linear_14142_541" x1="30.333" y1="10.64" x2="15.3152" y2="32.3654" gradientUnits="userSpaceOnUse">
<stop stop-color="#43E2C5"/>
<stop offset="1" stop-color="#70EE62"/>
</linearGradient>
</defs>
</svg>
