<svg width="57" height="57" viewBox="0 0 57 57" fill="none" xmlns="http://www.w3.org/2000/svg">
<path d="M56.5 45.3C56.5 51.4856 51.4856 56.5 45.3 56.5L11.7 56.5C5.51441 56.5 0.5 51.4856 0.500001 45.3L0.500004 11.7C0.500004 5.51441 5.51442 0.499996 11.7 0.499996L45.3 0.499999C51.4856 0.5 56.5 5.51441 56.5 11.7L56.5 45.3Z" fill="#111111" stroke="#6E6B91"/>
<path d="M39.5617 16.0559H32.6481C31.8845 16.0559 31.2654 16.675 31.2654 17.4386V24.3522C31.2654 25.1159 31.8845 25.7349 32.6481 25.7349H39.5617C40.3254 25.7349 40.9444 25.1159 40.9444 24.3522V17.4386C40.9444 16.675 40.3254 16.0559 39.5617 16.0559Z" fill="url(#paint0_linear_14803_2070)"/>
<path d="M25.7346 40.9448V22.9695C25.7346 22.6028 25.5889 22.2511 25.3296 21.9918C25.0703 21.7325 24.7186 21.5868 24.3519 21.5868H17.4383C17.0716 21.5868 16.7199 21.7325 16.4605 21.9918C16.2012 22.2511 16.0556 22.6028 16.0556 22.9695V39.5621C16.0556 39.9288 16.2012 40.2805 16.4605 40.5398C16.7199 40.7991 17.0716 40.9448 17.4383 40.9448H34.0309C34.3976 40.9448 34.7493 40.7991 35.0086 40.5398C35.2679 40.2805 35.4136 39.9288 35.4136 39.5621V32.6485C35.4136 32.2818 35.2679 31.9301 35.0086 31.6708C34.7493 31.4115 34.3976 31.2658 34.0309 31.2658H16.0556" fill="url(#paint1_linear_14803_2070)"/>
<path d="M25.7346 40.9448V22.9695C25.7346 22.6028 25.5889 22.2511 25.3296 21.9918C25.0703 21.7325 24.7186 21.5868 24.3519 21.5868H17.4383C17.0716 21.5868 16.7199 21.7325 16.4605 21.9918C16.2012 22.2511 16.0556 22.6028 16.0556 22.9695V39.5621C16.0556 39.9288 16.2012 40.2805 16.4605 40.5398C16.7199 40.7991 17.0716 40.9448 17.4383 40.9448H34.0309C34.3976 40.9448 34.7493 40.7991 35.0086 40.5398C35.2679 40.2805 35.4136 39.9288 35.4136 39.5621V32.6485C35.4136 32.2818 35.2679 31.9301 35.0086 31.6708C34.7493 31.4115 34.3976 31.2658 34.0309 31.2658H16.0556M32.6481 16.0559H39.5617C40.3254 16.0559 40.9444 16.675 40.9444 17.4386V24.3522C40.9444 25.1159 40.3254 25.7349 39.5617 25.7349H32.6481C31.8845 25.7349 31.2654 25.1159 31.2654 24.3522V17.4386C31.2654 16.675 31.8845 16.0559 32.6481 16.0559Z" stroke="#1A1A1A" stroke-width="1.4" stroke-linecap="round" stroke-linejoin="round"/>
<defs>
<linearGradient id="paint0_linear_14803_2070" x1="40.9444" y1="13.9404" x2="16.0556" y2="40.9448" gradientUnits="userSpaceOnUse">
<stop stop-color="#43E2C5"/>
<stop offset="1" stop-color="#70EE62"/>
</linearGradient>
<linearGradient id="paint1_linear_14803_2070" x1="40.9444" y1="13.9404" x2="16.0556" y2="40.9448" gradientUnits="userSpaceOnUse">
<stop stop-color="#43E2C5"/>
<stop offset="1" stop-color="#70EE62"/>
</linearGradient>
</defs>
</svg>
