<svg width="57" height="57" viewBox="0 0 57 57" fill="none" xmlns="http://www.w3.org/2000/svg">
<path d="M56.5 45.3C56.5 51.4856 51.4856 56.5 45.3 56.5L11.7 56.5C5.51441 56.5 0.500004 51.4856 0.500005 45.3L0.500008 11.7C0.500008 5.51441 5.51442 0.499999 11.7 0.5L45.3 0.500003C51.4856 0.500003 56.5 5.51442 56.5 11.7L56.5 45.3Z" fill="#111111" stroke="#6E6B91"/>
<path d="M38.9125 22.6912C38.8439 23.1419 38.9951 23.5982 39.317 23.9201L41.5118 26.1149C42.1697 26.7727 42.5 27.6364 42.5 28.5C42.5 29.3636 42.1711 30.2259 41.5118 30.8851L39.2568 33.1401C39.1053 33.2915 38.9204 33.4053 38.7169 33.4724C38.5135 33.5394 38.2972 33.558 38.0853 33.5264C37.4274 33.4284 36.9627 32.8545 36.7304 32.2317C36.5265 31.6813 36.1875 31.191 35.7446 30.8059C35.3016 30.4207 34.769 30.1532 34.1956 30.0278C33.6222 29.9024 33.0265 29.9231 32.4633 30.0882C31.9 30.2532 31.3873 30.5572 30.9723 30.9723C30.5572 31.3873 30.2532 31.9 30.0882 32.4633C29.9231 33.0265 29.9024 33.6222 30.0278 34.1956C30.1532 34.769 30.4207 35.3016 30.8059 35.7446C31.191 36.1875 31.6813 36.5265 32.2317 36.7304C32.8559 36.9627 33.4284 37.426 33.5264 38.0853C33.5581 38.2972 33.5396 38.5135 33.4725 38.717C33.4054 38.9205 33.2916 39.1054 33.1401 39.2568L30.8865 41.5104C30.5735 41.8244 30.2016 42.0735 29.792 42.2434C29.3825 42.4132 28.9434 42.5004 28.5 42.5C28.0569 42.5006 27.6181 42.4135 27.2088 42.244C26.7995 42.0744 26.4277 41.8255 26.1149 41.5118L23.9201 39.317C23.7615 39.1581 23.5678 39.0386 23.3546 38.9681C23.1414 38.8976 22.9147 38.8781 22.6926 38.9111C22.0025 39.0147 21.5168 39.6166 21.2648 40.266C21.0537 40.8081 20.7107 41.2889 20.2669 41.6651C19.8231 42.0413 19.2926 42.3008 18.7233 42.4204C18.1539 42.5399 17.5638 42.5156 17.0062 42.3497C16.4487 42.1838 15.9412 41.8815 15.5299 41.4701C15.1185 41.0588 14.8162 40.5513 14.6503 39.9938C14.4844 39.4362 14.4601 38.8461 14.5796 38.2767C14.6992 37.7074 14.9587 37.1769 15.3349 36.7331C15.711 36.2893 16.1919 35.9463 16.734 35.7352C17.3834 35.4832 17.9853 34.9975 18.0875 34.3074C18.1207 34.0854 18.1014 33.8588 18.0311 33.6456C17.9609 33.4324 17.8416 33.2386 17.683 33.0799L15.4882 30.8851C15.1745 30.5723 14.9256 30.2005 14.756 29.7912C14.5865 29.3819 14.4994 28.9431 14.5 28.5C14.5 27.6364 14.8303 26.7727 15.4882 26.1149L17.6242 23.9789C17.9601 23.643 18.4374 23.4848 18.9077 23.5548C19.6286 23.6626 20.1353 24.2938 20.4096 24.9685C20.6276 25.5028 20.9743 25.975 21.4188 26.3429C21.8634 26.7108 22.3921 26.9631 22.9578 27.0772C23.5235 27.1913 24.1086 27.1637 24.661 26.997C25.2135 26.8302 25.7161 26.5294 26.1242 26.1214C26.5322 25.7133 26.833 25.2107 26.9998 24.6582C27.1665 24.1058 27.1941 23.5207 27.08 22.955C26.9659 22.3893 26.7136 21.8606 26.3457 21.416C25.9778 20.9715 25.5056 20.6248 24.9713 20.4068C24.2966 20.1325 23.6654 19.6258 23.5576 18.9049C23.4876 18.4346 23.6444 17.9587 23.9817 17.6214L26.1163 15.4868C26.4291 15.1735 26.8007 14.925 27.2097 14.7557C27.6188 14.5863 28.0573 14.4994 28.5 14.5C29.3636 14.5 30.2273 14.8303 30.8851 15.4882L33.0799 17.683C33.4018 18.0049 33.8581 18.1561 34.3074 18.0889C34.9975 17.9853 35.4832 17.3834 35.7352 16.734C35.9463 16.1919 36.2893 15.711 36.7331 15.3349C37.1769 14.9587 37.7074 14.6992 38.2767 14.5796C38.8461 14.4601 39.4362 14.4844 39.9938 14.6503C40.5514 14.8162 41.0588 15.1185 41.4701 15.5299C41.8815 15.9412 42.1838 16.4487 42.3497 17.0062C42.5156 17.5638 42.5399 18.1539 42.4204 18.7233C42.3008 19.2926 42.0413 19.8231 41.6651 20.2669C41.289 20.7107 40.8081 21.0537 40.266 21.2648C39.6166 21.5168 39.0147 22.0011 38.9125 22.6912Z" fill="url(#paint0_linear_14950_278)" stroke="#1A1A1A" stroke-width="1.4" stroke-linecap="round" stroke-linejoin="round"/>
<defs>
<linearGradient id="paint0_linear_14950_278" x1="11.3743" y1="41.7073" x2="43.6273" y2="13.0918" gradientUnits="userSpaceOnUse">
<stop offset="0.168669" stop-color="#00FE6B"/>
<stop offset="0.887092" stop-color="#00B7E2"/>
</linearGradient>
</defs>
</svg>
