<svg width="57" height="57" viewBox="0 0 57 57" fill="none" xmlns="http://www.w3.org/2000/svg">
<path d="M56.5 45.3C56.5 51.4856 51.4856 56.5 45.3 56.5L11.7 56.5C5.51441 56.5 0.500004 51.4856 0.500005 45.3L0.500008 11.7C0.500008 5.51441 5.51442 0.499999 11.7 0.5L45.3 0.500003C51.4856 0.500003 56.5 5.51442 56.5 11.7L56.5 45.3Z" fill="#111111" stroke="#6E6B91"/>
<path d="M28.5002 28.6777C30.1571 28.6777 31.5002 27.3843 31.5002 25.7888C31.5002 24.1933 30.1571 22.8999 28.5002 22.8999C26.8433 22.8999 25.5002 24.1933 25.5002 25.7888C25.5002 27.3843 26.8433 28.6777 28.5002 28.6777ZM28.5002 28.6777C29.7732 28.6777 30.9941 29.1647 31.8943 30.0315C32.7945 30.8983 33.3002 32.074 33.3002 33.2999H23.7002C23.7002 32.074 24.2059 30.8983 25.1061 30.0315C26.0063 29.1647 27.2272 28.6777 28.5002 28.6777Z" stroke="url(#paint0_linear_15112_43)" stroke-width="2" stroke-linecap="round" stroke-linejoin="round"/>
<path d="M16.5 21.8333V19.1667C16.5 18.4594 16.781 17.7811 17.281 17.281C17.7811 16.781 18.4594 16.5 19.1667 16.5H21.8333M35.1667 16.5H37.8333C38.5406 16.5 39.2189 16.781 39.719 17.281C40.219 17.7811 40.5 18.4594 40.5 19.1667V21.8333M40.5 35.1667V37.8333C40.5 38.5406 40.219 39.2189 39.719 39.719C39.2189 40.219 38.5406 40.5 37.8333 40.5H35.1667M21.8333 40.5H19.1667C18.4594 40.5 17.7811 40.219 17.281 39.719C16.781 39.2189 16.5 38.5406 16.5 37.8333V35.1667" stroke="url(#paint1_linear_15112_43)" stroke-width="2" stroke-linecap="round" stroke-linejoin="round"/>
<defs>
<linearGradient id="paint0_linear_15112_43" x1="21.6348" y1="24.5519" x2="35.1342" y2="32.6977" gradientUnits="userSpaceOnUse">
<stop offset="0.165259" stop-color="#26D6FF"/>
<stop offset="1" stop-color="#D77AFF"/>
</linearGradient>
<linearGradient id="paint1_linear_15112_43" x1="11.3366" y1="20.3123" x2="43.5903" y2="41.3967" gradientUnits="userSpaceOnUse">
<stop offset="0.165259" stop-color="#26D6FF"/>
<stop offset="1" stop-color="#D77AFF"/>
</linearGradient>
</defs>
</svg>
