<svg width="57" height="57" viewBox="0 0 57 57" fill="none" xmlns="http://www.w3.org/2000/svg">
<path d="M56.5 45.3C56.5 51.4856 51.4856 56.5 45.3 56.5L11.7 56.5C5.51441 56.5 0.500004 51.4856 0.500005 45.3L0.500008 11.7C0.500008 5.51441 5.51442 0.499999 11.7 0.5L45.3 0.500003C51.4856 0.500003 56.5 5.51442 56.5 11.7L56.5 45.3Z" fill="#111111" stroke="#6E6B91"/>
<path d="M23.1667 16.5V20.5C23.1667 21.2072 22.8857 21.8855 22.3856 22.3856C21.8855 22.8857 21.2072 23.1667 20.5 23.1667H16.5M40.5 23.1667H36.5C35.7928 23.1667 35.1145 22.8857 34.6144 22.3856C34.1143 21.8855 33.8333 21.2072 33.8333 20.5V16.5M16.5 33.8333H20.5C21.2072 33.8333 21.8855 34.1143 22.3856 34.6144C22.8857 35.1145 23.1667 35.7928 23.1667 36.5V40.5M33.8333 40.5V36.5C33.8333 35.7928 34.1143 35.1145 34.6144 34.6144C35.1145 34.1143 35.7928 33.8333 36.5 33.8333H40.5" stroke="url(#paint0_linear_14967_1379)" stroke-width="2" stroke-linecap="round" stroke-linejoin="round"/>
<defs>
<linearGradient id="paint0_linear_14967_1379" x1="13.8208" y1="39.8206" x2="41.4663" y2="15.293" gradientUnits="userSpaceOnUse">
<stop offset="0.168669" stop-color="#00FE6B"/>
<stop offset="0.887092" stop-color="#00B7E2"/>
</linearGradient>
</defs>
</svg>
