<svg width="57" height="57" viewBox="0 0 57 57" fill="none" xmlns="http://www.w3.org/2000/svg">
<path d="M56.5 45.3C56.5 51.4856 51.4856 56.5 45.3 56.5L11.7 56.5C5.51441 56.5 0.500004 51.4856 0.500005 45.3L0.500008 11.7C0.500008 5.51441 5.51442 0.499999 11.7 0.5L45.3 0.500003C51.4856 0.500003 56.5 5.51442 56.5 11.7L56.5 45.3Z" fill="#111111" stroke="#6E6B91"/>
<path d="M39.2895 20.1C39.2895 22.0882 34.4117 23.7 28.3947 23.7C22.3777 23.7 17.5 22.0882 17.5 20.1M39.2895 20.1C39.2895 18.1118 34.4117 16.5 28.3947 16.5C22.3777 16.5 17.5 18.1118 17.5 20.1M39.2895 20.1V25.26M17.5 20.1L17.5 36.9C17.4992 37.6784 18.2621 38.436 19.6741 39.059C21.0862 39.6821 23.0714 40.1372 25.3321 40.356M17.5 28.5C17.4983 29.171 18.064 29.8288 19.1335 30.3991C20.203 30.9695 21.7336 31.4298 23.5526 31.728M33.2368 33.3H28.3947V28.5M28.3947 33.3L30.9247 30.792C31.9779 29.748 33.4426 29.1 35.0526 29.1C36.4974 29.1 37.8829 29.6689 38.9045 30.6816C39.9261 31.6943 40.5 33.0678 40.5 34.5C40.5 35.7593 40.1003 36.9867 39.3575 38.0083C38.6147 39.0299 37.5665 39.7939 36.3614 40.1921C35.1562 40.5903 33.8552 40.6026 32.6427 40.2271C31.4301 39.8516 30.3675 39.1074 29.6053 38.1" stroke="url(#paint0_linear_14967_1376)" stroke-width="2" stroke-linecap="round" stroke-linejoin="round"/>
<defs>
<linearGradient id="paint0_linear_14967_1376" x1="14.9324" y1="39.8206" x2="42.4137" y2="16.4546" gradientUnits="userSpaceOnUse">
<stop offset="0.168669" stop-color="#00FE6B"/>
<stop offset="0.887092" stop-color="#00B7E2"/>
</linearGradient>
</defs>
</svg>
