<svg width="57" height="57" viewBox="0 0 57 57" fill="none" xmlns="http://www.w3.org/2000/svg">
<path d="M56.5 45.3C56.5 51.4856 51.4856 56.5 45.3 56.5L11.7 56.5C5.51441 56.5 0.500004 51.4856 0.500005 45.3L0.500008 11.7C0.500008 5.51441 5.51442 0.499999 11.7 0.5L45.3 0.500003C51.4856 0.500003 56.5 5.51442 56.5 11.7L56.5 45.3Z" fill="#111111" stroke="#6E6B91"/>
<path d="M20.1 33.3V29.7C20.1 29.3817 20.2264 29.0765 20.4515 28.8515C20.6765 28.6264 20.9817 28.5 21.3 28.5H35.7C36.0183 28.5 36.3235 28.6264 36.5485 28.8515C36.7736 29.0765 36.9 29.3817 36.9 29.7V33.3M28.5 28.5V23.7M34.5 33.3H39.3C39.9627 33.3 40.5 33.8373 40.5 34.5V39.3C40.5 39.9627 39.9627 40.5 39.3 40.5H34.5C33.8373 40.5 33.3 39.9627 33.3 39.3V34.5C33.3 33.8373 33.8373 33.3 34.5 33.3ZM17.7 33.3H22.5C23.1627 33.3 23.7 33.8373 23.7 34.5V39.3C23.7 39.9627 23.1627 40.5 22.5 40.5H17.7C17.0373 40.5 16.5 39.9627 16.5 39.3V34.5C16.5 33.8373 17.0373 33.3 17.7 33.3ZM26.1 16.5H30.9C31.5627 16.5 32.1 17.0373 32.1 17.7V22.5C32.1 23.1627 31.5627 23.7 30.9 23.7H26.1C25.4373 23.7 24.9 23.1627 24.9 22.5V17.7C24.9 17.0373 25.4373 16.5 26.1 16.5Z" stroke="url(#paint0_linear_14967_1382)" stroke-width="2" stroke-linecap="round" stroke-linejoin="round"/>
<defs>
<linearGradient id="paint0_linear_14967_1382" x1="13.8208" y1="39.8206" x2="41.4663" y2="15.293" gradientUnits="userSpaceOnUse">
<stop offset="0.168669" stop-color="#00FE6B"/>
<stop offset="0.887092" stop-color="#00B7E2"/>
</linearGradient>
</defs>
</svg>
