<svg width="57" height="57" viewBox="0 0 57 57" fill="none" xmlns="http://www.w3.org/2000/svg">
<path d="M56.5 45.3C56.5 51.4856 51.4856 56.5 45.3 56.5L11.7 56.5C5.51441 56.5 0.500004 51.4856 0.500005 45.3L0.500008 11.7C0.500008 5.51441 5.51442 0.499999 11.7 0.5L45.3 0.500003C51.4856 0.500003 56.5 5.51442 56.5 11.7L56.5 45.3Z" fill="#111111" stroke="#6E6B91"/>
<path d="M25.4375 28.5L27.8125 30.9L32.5625 26.1M29 40.5C29 40.5 38.5 35.7 38.5 28.5V20.1L29 16.5L19.5 20.1V28.5C19.5 35.7 29 40.5 29 40.5Z" stroke="url(#paint0_linear_14967_1385)" stroke-width="2" stroke-linecap="round" stroke-linejoin="round"/>
<defs>
<linearGradient id="paint0_linear_14967_1385" x1="17.379" y1="39.8206" x2="43.5711" y2="21.4237" gradientUnits="userSpaceOnUse">
<stop offset="0.168669" stop-color="#00FE6B"/>
<stop offset="0.887092" stop-color="#00B7E2"/>
</linearGradient>
</defs>
</svg>
