<svg width="57" height="57" viewBox="0 0 57 57" fill="none" xmlns="http://www.w3.org/2000/svg">
<path d="M56.5 45.3C56.5 51.4856 51.4856 56.5 45.3 56.5L11.7 56.5C5.51441 56.5 0.500004 51.4856 0.500005 45.3L0.500008 11.7C0.500008 5.51441 5.51442 0.499999 11.7 0.5L45.3 0.500003C51.4856 0.500003 56.5 5.51442 56.5 11.7L56.5 45.3Z" fill="#111111" stroke="#6E6B91"/>
<path d="M27.1157 17.7866C27.8499 17.3628 28.7546 17.3628 29.4888 17.7866L39.5181 23.5767C40.2522 24.0006 40.7046 24.7846 40.7046 25.6323V37.2124C40.7046 38.0602 40.2522 38.8442 39.5181 39.2681L29.4888 45.0581C28.7546 45.482 27.8499 45.482 27.1157 45.0581L17.0864 39.2681C16.3522 38.8442 15.8999 38.0602 15.8999 37.2124V25.6323C15.8999 24.7845 16.3522 24.0006 17.0864 23.5767L27.1157 17.7866ZM26.5825 27.2847C25.7918 27.2999 25.1592 28.2742 25.1694 29.4605C25.1798 30.6468 25.8288 31.5967 26.6196 31.5816C27.4103 31.5663 28.043 30.592 28.0327 29.4058C28.0224 28.2197 27.3731 27.2699 26.5825 27.2847ZM34.9507 27.2847C34.1599 27.2999 33.5273 28.2742 33.5376 29.4605C33.5479 30.6467 34.1972 31.5965 34.9878 31.5816C35.7786 31.5664 36.4112 30.5921 36.4009 29.4058C36.3905 28.2195 35.7414 27.2696 34.9507 27.2847Z" fill="url(#paint0_linear_14993_318)"/>
<path d="M27.1157 17.7866L26.8657 17.3536L26.8657 17.3536L27.1157 17.7866ZM29.4888 17.7866L29.2388 18.2197L29.2388 18.2197L29.4888 17.7866ZM39.5181 23.5767L39.7681 23.1437L39.7681 23.1437L39.5181 23.5767ZM39.5181 39.2681L39.7681 39.7011L39.7681 39.7011L39.5181 39.2681ZM29.4888 45.0581L29.2388 44.6251L29.2388 44.6251L29.4888 45.0581ZM27.1157 45.0581L26.8657 45.4911L26.8657 45.4912L27.1157 45.0581ZM17.0864 39.2681L16.8364 39.7011L16.8364 39.7011L17.0864 39.2681ZM17.0864 23.5767L16.8364 23.1437L16.8364 23.1437L17.0864 23.5767ZM26.5825 27.2847L26.5732 26.7848L26.5729 26.7848L26.5825 27.2847ZM25.1694 29.4605L24.6695 29.4648V29.4648L25.1694 29.4605ZM26.6196 31.5816L26.6292 32.0815L26.6293 32.0815L26.6196 31.5816ZM28.0327 29.4058L28.5327 29.4014V29.4014L28.0327 29.4058ZM34.9507 27.2847L34.9411 26.7848H34.9411L34.9507 27.2847ZM33.5376 29.4605L33.0376 29.4648V29.4648L33.5376 29.4605ZM34.9878 31.5816L34.9972 32.0815L34.9974 32.0815L34.9878 31.5816ZM36.4009 29.4058L36.9009 29.4014V29.4014L36.4009 29.4058ZM27.1157 17.7866L27.3657 18.2197C27.9452 17.8851 28.6593 17.8851 29.2388 18.2197L29.4888 17.7866L29.7388 17.3536C28.8499 16.8404 27.7546 16.8405 26.8657 17.3536L27.1157 17.7866ZM29.4888 17.7866L29.2388 18.2197L39.2681 24.0097L39.5181 23.5767L39.7681 23.1437L29.7388 17.3536L29.4888 17.7866ZM39.5181 23.5767L39.268 24.0097C39.8474 24.3442 40.2046 24.9631 40.2046 25.6323H40.7046H41.2046C41.2046 24.6061 40.657 23.657 39.7681 23.1437L39.5181 23.5767ZM40.7046 25.6323H40.2046V37.2124H40.7046H41.2046V25.6323H40.7046ZM40.7046 37.2124H40.2046C40.2046 37.8817 39.8474 38.5005 39.268 38.8351L39.5181 39.2681L39.7681 39.7011C40.657 39.1878 41.2046 38.2387 41.2046 37.2124H40.7046ZM39.5181 39.2681L39.2681 38.8351L29.2388 44.6251L29.4888 45.0581L29.7388 45.4911L39.7681 39.7011L39.5181 39.2681ZM29.4888 45.0581L29.2388 44.6251C28.6593 44.9597 27.9452 44.9597 27.3657 44.6251L27.1157 45.0581L26.8657 45.4912C27.7546 46.0043 28.8499 46.0044 29.7388 45.4911L29.4888 45.0581ZM27.1157 45.0581L27.3657 44.6251L17.3364 38.8351L17.0864 39.2681L16.8364 39.7011L26.8657 45.4911L27.1157 45.0581ZM17.0864 39.2681L17.3364 38.8351C16.757 38.5006 16.3999 37.8817 16.3999 37.2124H15.8999H15.3999C15.3999 38.2387 15.9474 39.1878 16.8364 39.7011L17.0864 39.2681ZM15.8999 37.2124H16.3999V25.6323H15.8999H15.3999V37.2124H15.8999ZM15.8999 25.6323H16.3999C16.3999 24.963 16.757 24.3442 17.3364 24.0097L17.0864 23.5767L16.8364 23.1437C15.9474 23.657 15.3999 24.606 15.3999 25.6323H15.8999ZM17.0864 23.5767L17.3364 24.0097L27.3657 18.2197L27.1157 17.7866L26.8657 17.3536L16.8364 23.1437L17.0864 23.5767ZM26.5825 27.2847L26.5729 26.7848C25.9594 26.7966 25.4695 27.1787 25.1563 27.6611C24.8404 28.1475 24.6636 28.7867 24.6695 29.4648L25.1694 29.4605L25.6694 29.4561C25.665 28.948 25.7994 28.5068 25.9949 28.2057C26.1931 27.9006 26.4149 27.788 26.5921 27.7846L26.5825 27.2847ZM25.1694 29.4605L24.6695 29.4648C24.6754 30.1428 24.8631 30.7768 25.1891 31.2537C25.5131 31.7277 26.0135 32.0933 26.6292 32.0815L26.6196 31.5816L26.61 31.0817C26.435 31.085 26.2155 30.9832 26.0146 30.6894C25.8158 30.3986 25.6738 29.9645 25.6694 29.4561L25.1694 29.4605ZM26.6196 31.5816L26.6293 32.0815C27.2428 32.0696 27.7326 31.6875 28.0459 31.2051C28.3618 30.7187 28.5386 30.0796 28.5327 29.4014L28.0327 29.4058L27.5327 29.4101C27.5372 29.9183 27.4028 30.3594 27.2072 30.6605C27.0091 30.9656 26.7872 31.0782 26.61 31.0817L26.6196 31.5816ZM28.0327 29.4058L28.5327 29.4014C28.5268 28.7235 28.339 28.0896 28.013 27.6127C27.689 27.1388 27.1886 26.7733 26.5732 26.7848L26.5825 27.2847L26.5919 27.7846C26.767 27.7813 26.9866 27.8833 27.1874 28.1771C27.3863 28.468 27.5283 28.9019 27.5327 29.4101L28.0327 29.4058ZM34.9507 27.2847L34.9411 26.7848C34.3275 26.7966 33.8377 27.1787 33.5244 27.6611C33.2085 28.1475 33.0317 28.7867 33.0376 29.4648L33.5376 29.4605L34.0376 29.4561C34.0332 28.948 34.1676 28.5068 34.3631 28.2057C34.5613 27.9006 34.7831 27.788 34.9603 27.7846L34.9507 27.2847ZM33.5376 29.4605L33.0376 29.4648C33.0435 30.1428 33.2313 30.7767 33.5573 31.2536C33.8813 31.7275 34.3817 32.0931 34.9972 32.0815L34.9878 31.5816L34.9784 31.0817C34.8033 31.085 34.5837 30.9831 34.3829 30.6892C34.184 30.3984 34.042 29.9644 34.0376 29.4561L33.5376 29.4605ZM34.9878 31.5816L34.9974 32.0815C35.611 32.0697 36.1008 31.6876 36.4141 31.2052C36.73 30.7187 36.9068 30.0796 36.9009 29.4014L36.4009 29.4058L35.9009 29.4101C35.9053 29.9183 35.7709 30.3595 35.5754 30.6605C35.3773 30.9657 35.1554 31.0783 34.9782 31.0817L34.9878 31.5816ZM36.4009 29.4058L36.9009 29.4014C36.8949 28.7235 36.7072 28.0894 36.3812 27.6125C36.0572 27.1386 35.5568 26.773 34.9411 26.7848L34.9507 27.2847L34.9602 27.7846C35.1353 27.7813 35.3548 27.8831 35.5557 28.1769C35.7545 28.4677 35.8965 28.9018 35.9009 29.4101L36.4009 29.4058Z" fill="#1A1A1A"/>
<circle cx="22.0291" cy="14.7174" r="3.01742" fill="url(#paint1_linear_14993_318)" stroke="#1A1A1A" stroke-linecap="round" stroke-linejoin="round"/>
<defs>
<linearGradient id="paint0_linear_14993_318" x1="40.7046" y1="15.0966" x2="12.7228" y2="42.0816" gradientUnits="userSpaceOnUse">
<stop stop-color="#43E2C5"/>
<stop offset="1" stop-color="#70EE62"/>
</linearGradient>
<linearGradient id="paint1_linear_14993_318" x1="25.0466" y1="11.187" x2="19.0117" y2="17.7348" gradientUnits="userSpaceOnUse">
<stop stop-color="#43E2C5"/>
<stop offset="1" stop-color="#70EE62"/>
</linearGradient>
</defs>
</svg>
