<svg width="57" height="57" viewBox="0 0 57 57" fill="none" xmlns="http://www.w3.org/2000/svg">
<path d="M56.5 45.3C56.5 51.4856 51.4856 56.5 45.3 56.5L11.7 56.5C5.51441 56.5 0.500004 51.4856 0.500005 45.3L0.500008 11.7C0.500008 5.51441 5.51442 0.499999 11.7 0.5L45.3 0.500003C51.4856 0.500003 56.5 5.51442 56.5 11.7L56.5 45.3Z" fill="#111111" stroke="#6E6B91"/>
<path d="M28.4918 32.6779C30.8078 32.6779 32.6853 30.8019 32.6853 28.4877C32.6853 26.1736 30.8078 24.2976 28.4918 24.2976C26.1758 24.2976 24.2982 26.1736 24.2982 28.4877C24.2982 30.8019 26.1758 32.6779 28.4918 32.6779Z" fill="url(#paint0_linear_14993_378)"/>
<path d="M38.2767 21.5041C39.8207 21.5041 41.0724 20.2534 41.0724 18.7106C41.0724 17.1679 39.8207 15.9172 38.2767 15.9172C36.7327 15.9172 35.481 17.1679 35.481 18.7106C35.481 20.2534 36.7327 21.5041 38.2767 21.5041Z" fill="url(#paint1_linear_14993_378)"/>
<path d="M18.7069 41.0583C20.2509 41.0583 21.5025 39.8076 21.5025 38.2648C21.5025 36.722 20.2509 35.4714 18.7069 35.4714C17.1628 35.4714 15.9112 36.722 15.9112 38.2648C15.9112 39.8076 17.1628 41.0583 18.7069 41.0583Z" fill="url(#paint2_linear_14993_378)"/>
<path d="M26.2551 42.3152C28.9428 42.7564 31.701 42.4035 34.1907 41.2997C36.6804 40.1959 38.7931 38.3894 40.2693 36.1022C41.7454 33.8149 42.5206 31.1466 42.4996 28.4251C42.4786 25.7036 41.6623 23.0475 40.1511 20.7832M30.5886 14.6601C27.9119 14.2516 25.1741 14.6288 22.7078 15.7457C20.2415 16.8627 18.153 18.6713 16.6961 20.9519C15.2391 23.2324 14.4763 25.8867 14.5006 28.5922C14.5248 31.2977 15.3349 33.9379 16.8324 36.192M32.6853 28.4877C32.6853 30.8019 30.8078 32.6779 28.4918 32.6779C26.1758 32.6779 24.2982 30.8019 24.2982 28.4877C24.2982 26.1736 26.1758 24.2976 28.4918 24.2976C30.8078 24.2976 32.6853 26.1736 32.6853 28.4877ZM41.0724 18.7106C41.0724 20.2534 39.8207 21.5041 38.2767 21.5041C36.7327 21.5041 35.481 20.2534 35.481 18.7106C35.481 17.1679 36.7327 15.9172 38.2767 15.9172C39.8207 15.9172 41.0724 17.1679 41.0724 18.7106ZM21.5025 38.2648C21.5025 39.8076 20.2509 41.0583 18.7069 41.0583C17.1628 41.0583 15.9112 39.8076 15.9112 38.2648C15.9112 36.722 17.1628 35.4714 18.7069 35.4714C20.2509 35.4714 21.5025 36.722 21.5025 38.2648Z" stroke="url(#paint3_linear_14993_378)" stroke-linecap="round" stroke-linejoin="round"/>
<defs>
<linearGradient id="paint0_linear_14993_378" x1="42.5" y1="12.12" x2="14.5" y2="42.5" gradientUnits="userSpaceOnUse">
<stop stop-color="#43E2C5"/>
<stop offset="1" stop-color="#70EE62"/>
</linearGradient>
<linearGradient id="paint1_linear_14993_378" x1="42.5" y1="12.12" x2="14.5" y2="42.5" gradientUnits="userSpaceOnUse">
<stop stop-color="#43E2C5"/>
<stop offset="1" stop-color="#70EE62"/>
</linearGradient>
<linearGradient id="paint2_linear_14993_378" x1="42.5" y1="12.12" x2="14.5" y2="42.5" gradientUnits="userSpaceOnUse">
<stop stop-color="#43E2C5"/>
<stop offset="1" stop-color="#70EE62"/>
</linearGradient>
<linearGradient id="paint3_linear_14993_378" x1="42.5" y1="12.12" x2="14.5" y2="42.5" gradientUnits="userSpaceOnUse">
<stop stop-color="#43E2C5"/>
<stop offset="1" stop-color="#70EE62"/>
</linearGradient>
</defs>
</svg>
