<svg width="432" height="344" viewBox="0 0 432 344" fill="none" xmlns="http://www.w3.org/2000/svg">
<path d="M213.486 110.678C215.042 109.774 216.958 109.774 218.514 110.678L267.486 139.147C269.042 140.051 270 141.723 270 143.532V200.468C270 202.277 269.042 203.949 267.486 204.853L218.514 233.322C216.958 234.226 215.042 234.226 213.486 233.322L164.514 204.853C162.958 203.949 162 202.277 162 200.468V143.532C162 141.723 162.958 140.051 164.514 139.147L213.486 110.678Z" stroke="#B9C8DE" stroke-width="0.7" stroke-linecap="round" stroke-dasharray="1 2"/>
<path d="M214.475 122.547C215.728 121.818 217.272 121.818 218.525 122.547L257.975 145.505C259.228 146.235 260 147.583 260 149.042V194.958C260 196.417 259.228 197.765 257.975 198.495L218.525 221.453C217.272 222.182 215.728 222.182 214.475 221.453L175.025 198.495C173.772 197.765 173 196.417 173 194.958V149.042C173 147.583 173.772 146.235 175.025 145.505L214.475 122.547Z" fill="url(#paint0_linear_14993_314)" fill-opacity="0.8"/>
<rect x="0.2" y="110.2" width="123.6" height="123.6" rx="7.8" fill="#111111" stroke="#B9C8DE" stroke-width="0.4"/>
<rect x="308.2" y="110.2" width="123.6" height="123.6" rx="7.8" fill="#111111" stroke="#B9C8DE" stroke-width="0.4"/>
<rect x="0.2" y="264.2" width="431.6" height="79.6" rx="7.8" fill="#111111" stroke="#B9C8DE" stroke-width="0.4"/>
<path d="M239.506 183.974V160.757C239.506 159.634 238.901 158.598 237.937 158.037L217.829 146.421C216.85 145.86 215.656 145.86 214.677 146.421L194.569 158.037C193.59 158.598 193 159.634 193 160.757V183.974C193 185.097 193.605 186.133 194.569 186.694L214.677 198.296C215.656 198.857 216.85 198.857 217.829 198.296L237.937 186.694C238.916 186.133 239.506 185.097 239.506 183.974Z" fill="#111111"/>
<path d="M220.839 166.311V171.953L216.262 169.304L211.671 171.953V166.311L206.215 169.463V175.436L211.383 178.43L216.262 175.609L221.127 178.43L226.294 175.436V169.463L220.839 166.311Z" fill="url(#paint1_linear_14993_314)"/>
<path d="M51.2878 197H47.9917V186.818H51.3922C52.3899 186.818 53.2466 187.022 53.9625 187.43C54.6784 187.834 55.227 188.416 55.6081 189.175C55.9926 189.93 56.1848 190.837 56.1848 191.894C56.1848 192.955 55.9909 193.866 55.6032 194.629C55.2187 195.391 54.6619 195.978 53.9327 196.388C53.2035 196.796 52.3219 197 51.2878 197ZM49.5279 195.658H51.2033C51.9789 195.658 52.6235 195.512 53.1373 195.22C53.651 194.925 54.0355 194.499 54.2907 193.942C54.5459 193.382 54.6735 192.7 54.6735 191.894C54.6735 191.095 54.5459 190.418 54.2907 189.861C54.0388 189.304 53.6626 188.881 53.1621 188.593C52.6616 188.305 52.0402 188.161 51.2978 188.161H49.5279V195.658ZM60.1982 197.169C59.7143 197.169 59.2768 197.08 58.8857 196.901C58.4946 196.718 58.1847 196.455 57.956 196.11C57.7306 195.765 57.6179 195.343 57.6179 194.842C57.6179 194.411 57.7008 194.057 57.8665 193.778C58.0322 193.5 58.2559 193.28 58.5376 193.117C58.8194 192.955 59.1342 192.832 59.4822 192.749C59.8303 192.666 60.1849 192.603 60.5462 192.56C61.0036 192.507 61.3748 192.464 61.6598 192.431C61.9448 192.395 62.152 192.337 62.2812 192.257C62.4105 192.178 62.4751 192.048 62.4751 191.869V191.835C62.4751 191.4 62.3525 191.064 62.1072 190.825C61.8653 190.587 61.504 190.467 61.0234 190.467C60.523 190.467 60.1286 190.578 59.8402 190.8C59.5552 191.019 59.358 191.263 59.2486 191.531L57.8516 191.213C58.0173 190.749 58.2592 190.375 58.5774 190.089C58.8989 189.801 59.2685 189.592 59.6861 189.463C60.1037 189.33 60.5429 189.264 61.0036 189.264C61.3085 189.264 61.6316 189.301 61.973 189.374C62.3177 189.443 62.6392 189.572 62.9375 189.761C63.2391 189.95 63.486 190.22 63.6783 190.572C63.8705 190.92 63.9666 191.372 63.9666 191.929V197H62.5149V195.956H62.4553C62.3591 196.148 62.215 196.337 62.0227 196.523C61.8305 196.708 61.5836 196.862 61.282 196.985C60.9804 197.108 60.6191 197.169 60.1982 197.169ZM60.5213 195.976C60.9323 195.976 61.2836 195.895 61.5753 195.732C61.8703 195.57 62.094 195.358 62.2464 195.096C62.4022 194.831 62.4801 194.547 62.4801 194.246V193.261C62.4271 193.314 62.3243 193.364 62.1719 193.411C62.0227 193.454 61.852 193.492 61.6598 193.525C61.4676 193.555 61.2803 193.583 61.098 193.609C60.9157 193.633 60.7633 193.652 60.6406 193.669C60.3523 193.705 60.0888 193.767 59.8501 193.853C59.6148 193.939 59.4259 194.063 59.2834 194.226C59.1442 194.385 59.0746 194.597 59.0746 194.862C59.0746 195.23 59.2105 195.509 59.4822 195.697C59.754 195.883 60.1004 195.976 60.5213 195.976ZM69.5112 189.364V190.557H65.34V189.364H69.5112ZM66.4586 187.534H67.9451V194.758C67.9451 195.046 67.9882 195.263 68.0744 195.409C68.1606 195.552 68.2716 195.649 68.4075 195.702C68.5467 195.752 68.6975 195.777 68.8599 195.777C68.9792 195.777 69.0836 195.769 69.1731 195.752C69.2626 195.736 69.3322 195.722 69.3819 195.712L69.6504 196.94C69.5642 196.973 69.4416 197.007 69.2825 197.04C69.1234 197.076 68.9245 197.096 68.6859 197.099C68.2948 197.106 67.9302 197.036 67.5922 196.891C67.2541 196.745 66.9806 196.519 66.7718 196.214C66.563 195.91 66.4586 195.527 66.4586 195.066V187.534ZM73.3778 197.169C72.8939 197.169 72.4564 197.08 72.0653 196.901C71.6742 196.718 71.3643 196.455 71.1357 196.11C70.9103 195.765 70.7976 195.343 70.7976 194.842C70.7976 194.411 70.8804 194.057 71.0462 193.778C71.2119 193.5 71.4356 193.28 71.7173 193.117C71.9991 192.955 72.3139 192.832 72.6619 192.749C73.0099 192.666 73.3646 192.603 73.7259 192.56C74.1832 192.507 74.5545 192.464 74.8395 192.431C75.1245 192.395 75.3317 192.337 75.4609 192.257C75.5902 192.178 75.6548 192.048 75.6548 191.869V191.835C75.6548 191.4 75.5322 191.064 75.2869 190.825C75.045 190.587 74.6837 190.467 74.2031 190.467C73.7027 190.467 73.3082 190.578 73.0199 190.8C72.7348 191.019 72.5376 191.263 72.4283 191.531L71.0312 191.213C71.197 190.749 71.4389 190.375 71.7571 190.089C72.0786 189.801 72.4482 189.592 72.8658 189.463C73.2834 189.33 73.7225 189.264 74.1832 189.264C74.4882 189.264 74.8113 189.301 75.1527 189.374C75.4974 189.443 75.8189 189.572 76.1172 189.761C76.4188 189.95 76.6657 190.22 76.858 190.572C77.0502 190.92 77.1463 191.372 77.1463 191.929V197H75.6946V195.956H75.6349C75.5388 196.148 75.3946 196.337 75.2024 196.523C75.0102 196.708 74.7633 196.862 74.4616 196.985C74.16 197.108 73.7988 197.169 73.3778 197.169ZM73.701 195.976C74.112 195.976 74.4633 195.895 74.755 195.732C75.05 195.57 75.2737 195.358 75.4261 195.096C75.5819 194.831 75.6598 194.547 75.6598 194.246V193.261C75.6068 193.314 75.504 193.364 75.3516 193.411C75.2024 193.454 75.0317 193.492 74.8395 193.525C74.6473 193.555 74.46 193.583 74.2777 193.609C74.0954 193.633 73.9429 193.652 73.8203 193.669C73.532 193.705 73.2685 193.767 73.0298 193.853C72.7945 193.939 72.6056 194.063 72.4631 194.226C72.3239 194.385 72.2543 194.597 72.2543 194.862C72.2543 195.23 72.3902 195.509 72.6619 195.697C72.9337 195.883 73.2801 195.976 73.701 195.976ZM31.5307 214V203.818H35.16C35.9521 203.818 36.6084 203.962 37.1287 204.251C37.6491 204.539 38.0385 204.933 38.2971 205.434C38.5556 205.931 38.6848 206.491 38.6848 207.114C38.6848 207.741 38.5539 208.304 38.2921 208.805C38.0336 209.302 37.6425 209.696 37.1188 209.988C36.5984 210.276 35.9438 210.42 35.155 210.42H32.6593V209.118H35.0158C35.5163 209.118 35.9223 209.032 36.2338 208.859C36.5454 208.684 36.7741 208.445 36.9199 208.143C37.0658 207.842 37.1387 207.499 37.1387 207.114C37.1387 206.73 37.0658 206.388 36.9199 206.09C36.7741 205.792 36.5437 205.558 36.2289 205.389C35.9173 205.22 35.5063 205.136 34.9959 205.136H33.0669V214H31.5307ZM41.853 203.818V214H40.3665V203.818H41.853ZM46.0751 214.169C45.5912 214.169 45.1537 214.08 44.7626 213.901C44.3715 213.718 44.0616 213.455 43.8329 213.11C43.6075 212.765 43.4949 212.343 43.4949 211.842C43.4949 211.411 43.5777 211.057 43.7434 210.778C43.9092 210.5 44.1329 210.28 44.4146 210.117C44.6963 209.955 45.0112 209.832 45.3592 209.749C45.7072 209.666 46.0618 209.603 46.4231 209.56C46.8805 209.507 47.2517 209.464 47.5368 209.431C47.8218 209.395 48.0289 209.337 48.1582 209.257C48.2875 209.178 48.3521 209.048 48.3521 208.869V208.835C48.3521 208.4 48.2295 208.064 47.9842 207.825C47.7422 207.587 47.381 207.467 46.9004 207.467C46.3999 207.467 46.0055 207.578 45.7172 207.8C45.4321 208.019 45.2349 208.263 45.1255 208.531L43.7285 208.213C43.8942 207.749 44.1362 207.375 44.4544 207.089C44.7759 206.801 45.1454 206.592 45.563 206.463C45.9806 206.33 46.4198 206.264 46.8805 206.264C47.1854 206.264 47.5086 206.301 47.85 206.374C48.1947 206.443 48.5162 206.572 48.8145 206.761C49.1161 206.95 49.363 207.22 49.5552 207.572C49.7475 207.92 49.8436 208.372 49.8436 208.929V214H48.3919V212.956H48.3322C48.2361 213.148 48.0919 213.337 47.8997 213.523C47.7074 213.708 47.4605 213.862 47.1589 213.985C46.8573 214.108 46.496 214.169 46.0751 214.169ZM46.3983 212.976C46.8092 212.976 47.1606 212.895 47.4522 212.732C47.7472 212.57 47.9709 212.358 48.1234 212.096C48.2792 211.831 48.3571 211.547 48.3571 211.246V210.261C48.304 210.314 48.2013 210.364 48.0488 210.411C47.8997 210.454 47.729 210.492 47.5368 210.525C47.3445 210.555 47.1573 210.583 46.975 210.609C46.7927 210.633 46.6402 210.652 46.5176 210.669C46.2292 210.705 45.9657 210.767 45.7271 210.853C45.4918 210.939 45.3029 211.063 45.1603 211.226C45.0211 211.385 44.9515 211.597 44.9515 211.862C44.9515 212.23 45.0874 212.509 45.3592 212.697C45.631 212.883 45.9773 212.976 46.3983 212.976ZM55.3881 206.364V207.557H51.217V206.364H55.3881ZM52.3356 204.534H53.8221V211.758C53.8221 212.046 53.8652 212.263 53.9513 212.409C54.0375 212.552 54.1486 212.649 54.2844 212.702C54.4237 212.752 54.5745 212.777 54.7369 212.777C54.8562 212.777 54.9606 212.769 55.0501 212.752C55.1396 212.736 55.2092 212.722 55.2589 212.712L55.5273 213.94C55.4412 213.973 55.3185 214.007 55.1594 214.04C55.0004 214.076 54.8015 214.096 54.5629 214.099C54.1718 214.106 53.8072 214.036 53.4691 213.891C53.131 213.745 52.8576 213.519 52.6488 213.214C52.44 212.91 52.3356 212.527 52.3356 212.066V204.534ZM60.6667 206.364V207.557H56.3514V206.364H60.6667ZM57.5346 214V205.479C57.5346 205.001 57.639 204.605 57.8478 204.29C58.0566 203.972 58.3334 203.735 58.6781 203.58C59.0228 203.42 59.3973 203.341 59.8017 203.341C60.1 203.341 60.3552 203.366 60.5673 203.415C60.7794 203.462 60.9368 203.505 61.0396 203.545L60.6916 204.748C60.622 204.728 60.5325 204.705 60.4231 204.678C60.3137 204.648 60.1812 204.634 60.0254 204.634C59.6641 204.634 59.4056 204.723 59.2498 204.902C59.0974 205.081 59.0211 205.339 59.0211 205.678V214H57.5346ZM65.1163 214.154C64.4004 214.154 63.7756 213.99 63.242 213.662C62.7084 213.334 62.2941 212.875 61.9991 212.285C61.7041 211.695 61.5566 211.005 61.5566 210.217C61.5566 209.424 61.7041 208.732 61.9991 208.138C62.2941 207.545 62.7084 207.085 63.242 206.756C63.7756 206.428 64.4004 206.264 65.1163 206.264C65.8322 206.264 66.457 206.428 66.9906 206.756C67.5242 207.085 67.9385 207.545 68.2335 208.138C68.5285 208.732 68.676 209.424 68.676 210.217C68.676 211.005 68.5285 211.695 68.2335 212.285C67.9385 212.875 67.5242 213.334 66.9906 213.662C66.457 213.99 65.8322 214.154 65.1163 214.154ZM65.1213 212.906C65.5853 212.906 65.9698 212.784 66.2747 212.538C66.5796 212.293 66.805 211.967 66.9508 211.559C67.1 211.151 67.1745 210.702 67.1745 210.212C67.1745 209.724 67.1 209.277 66.9508 208.869C66.805 208.458 66.5796 208.129 66.2747 207.88C65.9698 207.631 65.5853 207.507 65.1213 207.507C64.6539 207.507 64.2662 207.631 63.9579 207.88C63.653 208.129 63.426 208.458 63.2768 208.869C63.131 209.277 63.0581 209.724 63.0581 210.212C63.0581 210.702 63.131 211.151 63.2768 211.559C63.426 211.967 63.653 212.293 63.9579 212.538C64.2662 212.784 64.6539 212.906 65.1213 212.906ZM70.3352 214V206.364H71.772V207.577H71.8516C71.9908 207.166 72.236 206.843 72.5874 206.607C72.942 206.369 73.343 206.249 73.7905 206.249C73.8833 206.249 73.9927 206.253 74.1186 206.259C74.2479 206.266 74.349 206.274 74.4219 206.284V207.706C74.3622 207.689 74.2562 207.671 74.1037 207.651C73.9512 207.628 73.7988 207.616 73.6463 207.616C73.295 207.616 72.9818 207.691 72.7067 207.84C72.4349 207.986 72.2195 208.19 72.0604 208.452C71.9013 208.71 71.8217 209.005 71.8217 209.337V214H70.3352ZM75.7083 214V206.364H77.1351V207.607H77.2296C77.3887 207.186 77.6489 206.857 78.0101 206.622C78.3714 206.384 78.8039 206.264 79.3077 206.264C79.8181 206.264 80.2457 206.384 80.5904 206.622C80.9384 206.861 81.1953 207.189 81.361 207.607H81.4405C81.6228 207.199 81.9128 206.874 82.3105 206.632C82.7083 206.387 83.1822 206.264 83.7324 206.264C84.4251 206.264 84.9902 206.481 85.4277 206.915C85.8685 207.35 86.089 208.004 86.089 208.879V214H84.6025V209.018C84.6025 208.501 84.4616 208.127 84.1799 207.895C83.8981 207.663 83.5617 207.547 83.1706 207.547C82.6867 207.547 82.3105 207.696 82.0421 207.994C81.7736 208.289 81.6394 208.669 81.6394 209.133V214H80.1578V208.924C80.1578 208.51 80.0286 208.177 79.7701 207.925C79.5115 207.673 79.1751 207.547 78.7608 207.547C78.4791 207.547 78.2189 207.621 77.9803 207.771C77.745 207.916 77.5544 208.12 77.4086 208.382C77.266 208.644 77.1948 208.947 77.1948 209.292V214H75.7083ZM93.8036 208.228L92.4563 208.467C92.4 208.294 92.3105 208.13 92.1879 207.974C92.0685 207.819 91.9061 207.691 91.7006 207.592C91.4951 207.492 91.2383 207.442 90.93 207.442C90.5091 207.442 90.1578 207.537 89.8761 207.726C89.5943 207.911 89.4535 208.152 89.4535 208.447C89.4535 208.702 89.5479 208.907 89.7369 209.063C89.9258 209.219 90.2307 209.347 90.6516 209.446L91.8647 209.724C92.5674 209.887 93.091 210.137 93.4357 210.475C93.7804 210.813 93.9528 211.252 93.9528 211.793C93.9528 212.25 93.8202 212.658 93.555 213.016C93.2932 213.37 92.927 213.649 92.4563 213.851C91.989 214.053 91.4471 214.154 90.8306 214.154C89.9755 214.154 89.2778 213.972 88.7376 213.607C88.1973 213.239 87.8659 212.717 87.7433 212.041L89.18 211.822C89.2695 212.197 89.4535 212.48 89.7319 212.673C90.0103 212.862 90.3732 212.956 90.8207 212.956C91.3079 212.956 91.6973 212.855 91.989 212.653C92.2807 212.447 92.4265 212.197 92.4265 211.902C92.4265 211.663 92.337 211.463 92.158 211.3C91.9824 211.138 91.7122 211.015 91.3477 210.933L90.055 210.649C89.3424 210.487 88.8155 210.228 88.4741 209.874C88.136 209.519 87.967 209.07 87.967 208.526C87.967 208.076 88.0929 207.681 88.3448 207.343C88.5967 207.005 88.9447 206.741 89.3888 206.553C89.833 206.36 90.3417 206.264 90.9151 206.264C91.7404 206.264 92.39 206.443 92.864 206.801C93.338 207.156 93.6512 207.631 93.8036 208.228Z" fill="#B9C8DE"/>
<path d="M348.868 190.129H347.317C347.257 189.798 347.146 189.506 346.984 189.254C346.822 189.002 346.623 188.789 346.387 188.613C346.152 188.437 345.889 188.305 345.597 188.215C345.309 188.126 345.002 188.081 344.677 188.081C344.091 188.081 343.565 188.228 343.101 188.523C342.641 188.818 342.276 189.251 342.007 189.821C341.742 190.391 341.61 191.087 341.61 191.909C341.61 192.738 341.742 193.437 342.007 194.007C342.276 194.577 342.642 195.008 343.106 195.3C343.57 195.591 344.092 195.737 344.672 195.737C344.994 195.737 345.299 195.694 345.587 195.608C345.879 195.518 346.142 195.388 346.377 195.215C346.613 195.043 346.812 194.832 346.974 194.584C347.14 194.332 347.254 194.044 347.317 193.719L348.868 193.724C348.785 194.224 348.625 194.685 348.386 195.106C348.151 195.523 347.847 195.885 347.476 196.19C347.108 196.491 346.687 196.725 346.213 196.891C345.739 197.056 345.222 197.139 344.662 197.139C343.781 197.139 342.995 196.93 342.306 196.513C341.616 196.092 341.073 195.49 340.675 194.708C340.281 193.926 340.083 192.993 340.083 191.909C340.083 190.822 340.282 189.889 340.68 189.11C341.078 188.328 341.621 187.728 342.311 187.31C343 186.889 343.784 186.679 344.662 186.679C345.203 186.679 345.706 186.757 346.174 186.913C346.644 187.065 347.067 187.29 347.441 187.589C347.816 187.884 348.126 188.245 348.371 188.673C348.616 189.097 348.782 189.582 348.868 190.129ZM353.804 197.154C353.088 197.154 352.463 196.99 351.93 196.662C351.396 196.334 350.982 195.875 350.687 195.285C350.392 194.695 350.244 194.005 350.244 193.217C350.244 192.424 350.392 191.732 350.687 191.138C350.982 190.545 351.396 190.085 351.93 189.756C352.463 189.428 353.088 189.264 353.804 189.264C354.52 189.264 355.144 189.428 355.678 189.756C356.212 190.085 356.626 190.545 356.921 191.138C357.216 191.732 357.363 192.424 357.363 193.217C357.363 194.005 357.216 194.695 356.921 195.285C356.626 195.875 356.212 196.334 355.678 196.662C355.144 196.99 354.52 197.154 353.804 197.154ZM353.809 195.906C354.273 195.906 354.657 195.784 354.962 195.538C355.267 195.293 355.492 194.967 355.638 194.559C355.787 194.151 355.862 193.702 355.862 193.212C355.862 192.724 355.787 192.277 355.638 191.869C355.492 191.458 355.267 191.129 354.962 190.88C354.657 190.631 354.273 190.507 353.809 190.507C353.341 190.507 352.954 190.631 352.645 190.88C352.34 191.129 352.113 191.458 351.964 191.869C351.818 192.277 351.746 192.724 351.746 193.212C351.746 193.702 351.818 194.151 351.964 194.559C352.113 194.967 352.34 195.293 352.645 195.538C352.954 195.784 353.341 195.906 353.809 195.906ZM359.023 197V189.364H360.45V190.607H360.544C360.703 190.186 360.963 189.857 361.325 189.622C361.686 189.384 362.118 189.264 362.622 189.264C363.133 189.264 363.56 189.384 363.905 189.622C364.253 189.861 364.51 190.189 364.675 190.607H364.755C364.937 190.199 365.227 189.874 365.625 189.632C366.023 189.387 366.497 189.264 367.047 189.264C367.74 189.264 368.305 189.481 368.742 189.915C369.183 190.35 369.403 191.004 369.403 191.879V197H367.917V192.018C367.917 191.501 367.776 191.127 367.494 190.895C367.213 190.663 366.876 190.547 366.485 190.547C366.001 190.547 365.625 190.696 365.357 190.994C365.088 191.289 364.954 191.669 364.954 192.133V197H363.472V191.924C363.472 191.51 363.343 191.177 363.085 190.925C362.826 190.673 362.49 190.547 362.075 190.547C361.794 190.547 361.533 190.621 361.295 190.771C361.059 190.916 360.869 191.12 360.723 191.382C360.58 191.644 360.509 191.947 360.509 192.292V197H359.023ZM371.396 199.864V189.364H372.847V190.602H372.972C373.058 190.442 373.182 190.259 373.345 190.05C373.507 189.841 373.732 189.659 374.021 189.503C374.309 189.344 374.69 189.264 375.164 189.264C375.781 189.264 376.331 189.42 376.815 189.732C377.299 190.043 377.678 190.492 377.953 191.079C378.232 191.665 378.371 192.371 378.371 193.197C378.371 194.022 378.233 194.73 377.958 195.32C377.683 195.906 377.305 196.359 376.825 196.677C376.344 196.992 375.796 197.149 375.179 197.149C374.715 197.149 374.336 197.071 374.041 196.915C373.749 196.76 373.52 196.577 373.355 196.369C373.189 196.16 373.061 195.974 372.972 195.812H372.882V199.864H371.396ZM372.852 193.182C372.852 193.719 372.93 194.189 373.086 194.594C373.242 194.998 373.467 195.315 373.762 195.543C374.057 195.769 374.419 195.881 374.846 195.881C375.29 195.881 375.661 195.764 375.96 195.528C376.258 195.29 376.483 194.967 376.636 194.559C376.792 194.151 376.869 193.692 376.869 193.182C376.869 192.678 376.793 192.226 376.641 191.825C376.492 191.424 376.266 191.107 375.965 190.875C375.666 190.643 375.294 190.527 374.846 190.527C374.415 190.527 374.051 190.638 373.752 190.86C373.457 191.082 373.234 191.392 373.081 191.79C372.929 192.187 372.852 192.652 372.852 193.182ZM384.874 193.833V189.364H386.365V197H384.904V195.678H384.824C384.648 196.085 384.367 196.425 383.979 196.697C383.594 196.965 383.115 197.099 382.542 197.099C382.052 197.099 381.617 196.992 381.24 196.776C380.865 196.558 380.57 196.234 380.355 195.807C380.142 195.379 380.036 194.851 380.036 194.221V189.364H381.523V194.042C381.523 194.562 381.667 194.977 381.955 195.285C382.244 195.593 382.618 195.747 383.079 195.747C383.357 195.747 383.634 195.678 383.909 195.538C384.188 195.399 384.418 195.189 384.6 194.907C384.786 194.625 384.877 194.267 384.874 193.833ZM391.927 189.364V190.557H387.756V189.364H391.927ZM388.875 187.534H390.361V194.758C390.361 195.046 390.404 195.263 390.49 195.409C390.577 195.552 390.688 195.649 390.824 195.702C390.963 195.752 391.114 195.777 391.276 195.777C391.395 195.777 391.5 195.769 391.589 195.752C391.679 195.736 391.748 195.722 391.798 195.712L392.066 196.94C391.98 196.973 391.858 197.007 391.699 197.04C391.539 197.076 391.341 197.096 391.102 197.099C390.711 197.106 390.346 197.036 390.008 196.891C389.67 196.745 389.397 196.519 389.188 196.214C388.979 195.91 388.875 195.527 388.875 195.066V187.534ZM396.781 197.154C396.028 197.154 395.38 196.993 394.837 196.672C394.297 196.347 393.879 195.891 393.584 195.305C393.292 194.715 393.146 194.024 393.146 193.232C393.146 192.449 393.292 191.76 393.584 191.163C393.879 190.567 394.29 190.101 394.817 189.766C395.347 189.432 395.967 189.264 396.676 189.264C397.107 189.264 397.525 189.335 397.929 189.478C398.334 189.621 398.696 189.844 399.018 190.149C399.339 190.454 399.593 190.85 399.779 191.337C399.964 191.821 400.057 192.41 400.057 193.102V193.629H393.987V192.516H398.6C398.6 192.125 398.521 191.778 398.362 191.477C398.203 191.172 397.979 190.931 397.691 190.756C397.405 190.58 397.071 190.492 396.686 190.492C396.269 190.492 395.904 190.595 395.593 190.8C395.284 191.003 395.046 191.268 394.877 191.596C394.711 191.921 394.628 192.274 394.628 192.655V193.525C394.628 194.035 394.718 194.469 394.896 194.827C395.079 195.185 395.332 195.459 395.657 195.648C395.982 195.833 396.361 195.926 396.796 195.926C397.077 195.926 397.334 195.886 397.566 195.807C397.798 195.724 397.999 195.601 398.168 195.439C398.337 195.277 398.466 195.076 398.556 194.837L399.963 195.091C399.85 195.505 399.648 195.868 399.356 196.18C399.068 196.488 398.705 196.728 398.267 196.901C397.833 197.07 397.338 197.154 396.781 197.154ZM326.758 203.818V214H325.222V203.818H326.758ZM330.363 209.466V214H328.876V206.364H330.303V207.607H330.398C330.573 207.202 330.848 206.877 331.223 206.632C331.601 206.387 332.076 206.264 332.65 206.264C333.17 206.264 333.626 206.374 334.017 206.592C334.408 206.808 334.711 207.129 334.927 207.557C335.142 207.984 335.25 208.513 335.25 209.143V214H333.763V209.322C333.763 208.768 333.619 208.336 333.331 208.024C333.042 207.709 332.646 207.552 332.143 207.552C331.798 207.552 331.491 207.626 331.223 207.776C330.958 207.925 330.747 208.143 330.591 208.432C330.439 208.717 330.363 209.062 330.363 209.466ZM340.878 206.364V207.557H336.562V206.364H340.878ZM337.746 214V205.479C337.746 205.001 337.85 204.605 338.059 204.29C338.268 203.972 338.544 203.735 338.889 203.58C339.234 203.42 339.608 203.341 340.013 203.341C340.311 203.341 340.566 203.366 340.778 203.415C340.99 203.462 341.148 203.505 341.251 203.545L340.903 204.748C340.833 204.728 340.743 204.705 340.634 204.678C340.525 204.648 340.392 204.634 340.236 204.634C339.875 204.634 339.617 204.723 339.461 204.902C339.308 205.081 339.232 205.339 339.232 205.678V214H337.746ZM342.411 214V206.364H343.848V207.577H343.928C344.067 207.166 344.312 206.843 344.664 206.607C345.018 206.369 345.419 206.249 345.867 206.249C345.959 206.249 346.069 206.253 346.195 206.259C346.324 206.266 346.425 206.274 346.498 206.284V207.706C346.438 207.689 346.332 207.671 346.18 207.651C346.027 207.628 345.875 207.616 345.722 207.616C345.371 207.616 345.058 207.691 344.783 207.84C344.511 207.986 344.296 208.19 344.137 208.452C343.977 208.71 343.898 209.005 343.898 209.337V214H342.411ZM349.938 214.169C349.454 214.169 349.017 214.08 348.626 213.901C348.235 213.718 347.925 213.455 347.696 213.11C347.471 212.765 347.358 212.343 347.358 211.842C347.358 211.411 347.441 211.057 347.607 210.778C347.772 210.5 347.996 210.28 348.278 210.117C348.56 209.955 348.874 209.832 349.222 209.749C349.57 209.666 349.925 209.603 350.286 209.56C350.744 209.507 351.115 209.464 351.4 209.431C351.685 209.395 351.892 209.337 352.021 209.257C352.151 209.178 352.215 209.048 352.215 208.869V208.835C352.215 208.4 352.093 208.064 351.847 207.825C351.606 207.587 351.244 207.467 350.764 207.467C350.263 207.467 349.869 207.578 349.58 207.8C349.295 208.019 349.098 208.263 348.989 208.531L347.592 208.213C347.758 207.749 347.999 207.375 348.318 207.089C348.639 206.801 349.009 206.592 349.426 206.463C349.844 206.33 350.283 206.264 350.744 206.264C351.049 206.264 351.372 206.301 351.713 206.374C352.058 206.443 352.379 206.572 352.678 206.761C352.979 206.95 353.226 207.22 353.419 207.572C353.611 207.92 353.707 208.372 353.707 208.929V214H352.255V212.956H352.195C352.099 213.148 351.955 213.337 351.763 213.523C351.571 213.708 351.324 213.862 351.022 213.985C350.721 214.108 350.359 214.169 349.938 214.169ZM350.262 212.976C350.673 212.976 351.024 212.895 351.316 212.732C351.61 212.57 351.834 212.358 351.987 212.096C352.142 211.831 352.22 211.547 352.22 211.246V210.261C352.167 210.314 352.065 210.364 351.912 210.411C351.763 210.454 351.592 210.492 351.4 210.525C351.208 210.555 351.021 210.583 350.838 210.609C350.656 210.633 350.503 210.652 350.381 210.669C350.093 210.705 349.829 210.767 349.59 210.853C349.355 210.939 349.166 211.063 349.024 211.226C348.884 211.385 348.815 211.597 348.815 211.862C348.815 212.23 348.951 212.509 349.222 212.697C349.494 212.883 349.841 212.976 350.262 212.976ZM361.409 208.228L360.062 208.467C360.005 208.294 359.916 208.13 359.793 207.974C359.674 207.819 359.512 207.691 359.306 207.592C359.101 207.492 358.844 207.442 358.536 207.442C358.115 207.442 357.763 207.537 357.482 207.726C357.2 207.911 357.059 208.152 357.059 208.447C357.059 208.702 357.153 208.907 357.342 209.063C357.531 209.219 357.836 209.347 358.257 209.446L359.47 209.724C360.173 209.887 360.696 210.137 361.041 210.475C361.386 210.813 361.558 211.252 361.558 211.793C361.558 212.25 361.426 212.658 361.161 213.016C360.899 213.37 360.532 213.649 360.062 213.851C359.594 214.053 359.053 214.154 358.436 214.154C357.581 214.154 356.883 213.972 356.343 213.607C355.803 213.239 355.471 212.717 355.349 212.041L356.786 211.822C356.875 212.197 357.059 212.48 357.337 212.673C357.616 212.862 357.979 212.956 358.426 212.956C358.913 212.956 359.303 212.855 359.594 212.653C359.886 212.447 360.032 212.197 360.032 211.902C360.032 211.663 359.942 211.463 359.763 211.3C359.588 211.138 359.318 211.015 358.953 210.933L357.661 210.649C356.948 210.487 356.421 210.228 356.08 209.874C355.741 209.519 355.572 209.07 355.572 208.526C355.572 208.076 355.698 207.681 355.95 207.343C356.202 207.005 356.55 206.741 356.994 206.553C357.438 206.36 357.947 206.264 358.521 206.264C359.346 206.264 359.996 206.443 360.469 206.801C360.943 207.156 361.257 207.631 361.409 208.228ZM366.757 206.364V207.557H362.586V206.364H366.757ZM363.705 204.534H365.191V211.758C365.191 212.046 365.234 212.263 365.32 212.409C365.407 212.552 365.518 212.649 365.654 212.702C365.793 212.752 365.944 212.777 366.106 212.777C366.225 212.777 366.33 212.769 366.419 212.752C366.509 212.736 366.578 212.722 366.628 212.712L366.896 213.94C366.81 213.973 366.688 214.007 366.529 214.04C366.369 214.076 366.171 214.096 365.932 214.099C365.541 214.106 365.176 214.036 364.838 213.891C364.5 213.745 364.227 213.519 364.018 213.214C363.809 212.91 363.705 212.527 363.705 212.066V204.534ZM368.402 214V206.364H369.838V207.577H369.918C370.057 207.166 370.302 206.843 370.654 206.607C371.008 206.369 371.409 206.249 371.857 206.249C371.95 206.249 372.059 206.253 372.185 206.259C372.314 206.266 372.415 206.274 372.488 206.284V207.706C372.429 207.689 372.323 207.671 372.17 207.651C372.018 207.628 371.865 207.616 371.713 207.616C371.361 207.616 371.048 207.691 370.773 207.84C370.501 207.986 370.286 208.19 370.127 208.452C369.968 208.71 369.888 209.005 369.888 209.337V214H368.402ZM378.612 210.833V206.364H380.104V214H378.642V212.678H378.562C378.387 213.085 378.105 213.425 377.717 213.697C377.333 213.965 376.854 214.099 376.28 214.099C375.79 214.099 375.356 213.992 374.978 213.776C374.603 213.558 374.308 213.234 374.093 212.807C373.881 212.379 373.775 211.851 373.775 211.221V206.364H375.261V211.042C375.261 211.562 375.405 211.977 375.694 212.285C375.982 212.593 376.357 212.747 376.817 212.747C377.096 212.747 377.372 212.678 377.648 212.538C377.926 212.399 378.156 212.189 378.339 211.907C378.524 211.625 378.615 211.267 378.612 210.833ZM385.317 214.154C384.578 214.154 383.942 213.987 383.408 213.652C382.878 213.314 382.47 212.848 382.185 212.255C381.9 211.662 381.758 210.982 381.758 210.217C381.758 209.441 381.904 208.757 382.195 208.163C382.487 207.567 382.898 207.101 383.428 206.766C383.959 206.432 384.583 206.264 385.303 206.264C385.883 206.264 386.4 206.372 386.854 206.587C387.308 206.799 387.674 207.098 387.952 207.482C388.234 207.867 388.402 208.316 388.455 208.83H387.008C386.928 208.472 386.746 208.163 386.461 207.905C386.179 207.646 385.801 207.517 385.327 207.517C384.913 207.517 384.55 207.626 384.239 207.845C383.93 208.061 383.69 208.369 383.518 208.77C383.345 209.168 383.259 209.638 383.259 210.182C383.259 210.739 383.344 211.219 383.513 211.624C383.682 212.028 383.92 212.341 384.229 212.563C384.54 212.785 384.906 212.896 385.327 212.896C385.609 212.896 385.864 212.845 386.093 212.742C386.325 212.636 386.519 212.485 386.675 212.29C386.834 212.094 386.945 211.859 387.008 211.584H388.455C388.402 212.078 388.241 212.518 387.972 212.906C387.704 213.294 387.344 213.599 386.893 213.821C386.446 214.043 385.921 214.154 385.317 214.154ZM393.609 206.364V207.557H389.438V206.364H393.609ZM390.556 204.534H392.043V211.758C392.043 212.046 392.086 212.263 392.172 212.409C392.258 212.552 392.369 212.649 392.505 212.702C392.644 212.752 392.795 212.777 392.958 212.777C393.077 212.777 393.181 212.769 393.271 212.752C393.36 212.736 393.43 212.722 393.48 212.712L393.748 213.94C393.662 213.973 393.539 214.007 393.38 214.04C393.221 214.076 393.022 214.096 392.784 214.099C392.392 214.106 392.028 214.036 391.69 213.891C391.352 213.745 391.078 213.519 390.869 213.214C390.661 212.91 390.556 212.527 390.556 212.066V204.534ZM400.091 210.833V206.364H401.582V214H400.12V212.678H400.041C399.865 213.085 399.583 213.425 399.196 213.697C398.811 213.965 398.332 214.099 397.759 214.099C397.268 214.099 396.834 213.992 396.456 213.776C396.082 213.558 395.787 213.234 395.571 212.807C395.359 212.379 395.253 211.851 395.253 211.221V206.364H396.74V211.042C396.74 211.562 396.884 211.977 397.172 212.285C397.461 212.593 397.835 212.747 398.296 212.747C398.574 212.747 398.851 212.678 399.126 212.538C399.404 212.399 399.635 212.189 399.817 211.907C400.003 211.625 400.094 211.267 400.091 210.833ZM403.579 214V206.364H405.016V207.577H405.096C405.235 207.166 405.48 206.843 405.831 206.607C406.186 206.369 406.587 206.249 407.035 206.249C407.127 206.249 407.237 206.253 407.363 206.259C407.492 206.266 407.593 206.274 407.666 206.284V207.706C407.606 207.689 407.5 207.671 407.348 207.651C407.195 207.628 407.043 207.616 406.89 207.616C406.539 207.616 406.226 207.691 405.951 207.84C405.679 207.986 405.464 208.19 405.305 208.452C405.145 208.71 405.066 209.005 405.066 209.337V214H403.579ZM411.97 214.154C411.218 214.154 410.57 213.993 410.026 213.672C409.486 213.347 409.068 212.891 408.773 212.305C408.482 211.715 408.336 211.024 408.336 210.232C408.336 209.449 408.482 208.76 408.773 208.163C409.068 207.567 409.479 207.101 410.006 206.766C410.537 206.432 411.156 206.264 411.866 206.264C412.297 206.264 412.714 206.335 413.119 206.478C413.523 206.621 413.886 206.844 414.207 207.149C414.529 207.454 414.782 207.85 414.968 208.337C415.154 208.821 415.246 209.41 415.246 210.102V210.629H409.176V209.516H413.79C413.79 209.125 413.71 208.778 413.551 208.477C413.392 208.172 413.168 207.931 412.88 207.756C412.595 207.58 412.26 207.492 411.876 207.492C411.458 207.492 411.094 207.595 410.782 207.8C410.474 208.003 410.235 208.268 410.066 208.596C409.9 208.921 409.817 209.274 409.817 209.655V210.525C409.817 211.035 409.907 211.469 410.086 211.827C410.268 212.185 410.522 212.459 410.847 212.648C411.171 212.833 411.551 212.926 411.985 212.926C412.267 212.926 412.524 212.886 412.756 212.807C412.988 212.724 413.188 212.601 413.357 212.439C413.526 212.277 413.656 212.076 413.745 211.837L415.152 212.091C415.039 212.505 414.837 212.868 414.545 213.18C414.257 213.488 413.894 213.728 413.457 213.901C413.022 214.07 412.527 214.154 411.97 214.154Z" fill="#B9C8DE"/>
<path d="M50.1477 146.002L43.1523 149.202C42.809 149.364 42.5186 149.62 42.3153 149.94C42.1119 150.261 42.0039 150.632 42.0039 151.012C42.0039 151.392 42.1119 151.764 42.3153 152.084C42.5186 152.405 42.809 152.661 43.1523 152.822L60.3411 160.643C60.8591 160.878 61.4213 160.999 61.99 160.999C62.5587 160.999 63.1209 160.878 63.6389 160.643L80.7877 152.842C81.1424 152.686 81.4439 152.429 81.6556 152.105C81.8673 151.78 81.98 151.4 81.98 151.012C81.98 150.624 81.8673 150.245 81.6556 149.92C81.4439 149.595 81.1424 149.339 80.7877 149.182L73.7923 146.002M50.1477 156.003L43.1523 159.203C42.809 159.364 42.5186 159.62 42.3153 159.941C42.1119 160.261 42.0039 160.633 42.0039 161.013C42.0039 161.393 42.1119 161.765 42.3153 162.085C42.5186 162.406 42.809 162.662 43.1523 162.823L60.3411 170.644C60.8591 170.879 61.4213 171 61.99 171C62.5587 171 63.1209 170.879 63.6389 170.644L80.7877 162.843C81.1424 162.687 81.4439 162.43 81.6556 162.105C81.8673 161.78 81.98 161.401 81.98 161.013C81.98 160.625 81.8673 160.246 81.6556 159.921C81.4439 159.596 81.1424 159.339 80.7877 159.183L73.7923 156.003M63.6389 131.361C63.1181 131.123 62.5524 131 61.98 131C61.4076 131 60.8419 131.123 60.3211 131.361L43.1923 139.161C42.8376 139.318 42.5361 139.574 42.3244 139.899C42.1127 140.224 42 140.604 42 140.992C42 141.379 42.1127 141.759 42.3244 142.084C42.5361 142.409 42.8376 142.665 43.1923 142.822L60.3411 150.642C60.8619 150.88 61.4276 151.003 62 151.003C62.5724 151.003 63.1381 150.88 63.6589 150.642L80.8077 142.842C81.1624 142.685 81.4639 142.429 81.6756 142.104C81.8873 141.779 82 141.399 82 141.012C82 140.624 81.8873 140.244 81.6756 139.919C81.4639 139.594 81.1624 139.338 80.8077 139.181L63.6389 131.361Z" stroke="url(#paint2_linear_14993_314)" stroke-width="2" stroke-linecap="round" stroke-linejoin="round"/>
<path d="M356 159V153C356 152.47 356.211 151.961 356.586 151.586C356.961 151.211 357.47 151 358 151H382C382.53 151 383.039 151.211 383.414 151.586C383.789 151.961 384 152.47 384 153V159M370 151V143M380 159H388C389.105 159 390 159.895 390 161V169C390 170.105 389.105 171 388 171H380C378.895 171 378 170.105 378 169V161C378 159.895 378.895 159 380 159ZM352 159H360C361.105 159 362 159.895 362 161V169C362 170.105 361.105 171 360 171H352C350.895 171 350 170.105 350 169V161C350 159.895 350.895 159 352 159ZM366 131H374C375.105 131 376 131.895 376 133V141C376 142.105 375.105 143 374 143H366C364.895 143 364 142.105 364 141V133C364 131.895 364.895 131 366 131Z" stroke="url(#paint3_linear_14993_314)" stroke-width="2" stroke-linecap="round" stroke-linejoin="round"/>
<path d="M196.575 302.129H195.024C194.964 301.798 194.853 301.506 194.691 301.254C194.529 301.002 194.33 300.789 194.094 300.613C193.859 300.437 193.596 300.305 193.304 300.215C193.016 300.126 192.709 300.081 192.384 300.081C191.798 300.081 191.272 300.228 190.808 300.523C190.348 300.818 189.983 301.251 189.714 301.821C189.449 302.391 189.317 303.087 189.317 303.909C189.317 304.738 189.449 305.437 189.714 306.007C189.983 306.577 190.349 307.008 190.813 307.3C191.277 307.591 191.799 307.737 192.379 307.737C192.701 307.737 193.006 307.694 193.294 307.608C193.586 307.518 193.849 307.388 194.085 307.215C194.32 307.043 194.519 306.832 194.681 306.584C194.847 306.332 194.961 306.044 195.024 305.719L196.575 305.724C196.492 306.224 196.332 306.685 196.093 307.106C195.858 307.523 195.554 307.885 195.183 308.19C194.815 308.491 194.394 308.725 193.92 308.891C193.446 309.056 192.929 309.139 192.369 309.139C191.488 309.139 190.702 308.93 190.013 308.513C189.323 308.092 188.78 307.49 188.382 306.708C187.988 305.926 187.79 304.993 187.79 303.909C187.79 302.822 187.989 301.889 188.387 301.11C188.785 300.328 189.328 299.728 190.018 299.31C190.707 298.889 191.491 298.679 192.369 298.679C192.91 298.679 193.413 298.757 193.881 298.913C194.351 299.065 194.774 299.29 195.148 299.589C195.523 299.884 195.833 300.245 196.078 300.673C196.323 301.097 196.489 301.582 196.575 302.129ZM199.781 298.818V309H198.294V298.818H199.781ZM204.997 309.154C204.281 309.154 203.656 308.99 203.123 308.662C202.589 308.334 202.175 307.875 201.88 307.285C201.585 306.695 201.438 306.005 201.438 305.217C201.438 304.424 201.585 303.732 201.88 303.138C202.175 302.545 202.589 302.085 203.123 301.756C203.656 301.428 204.281 301.264 204.997 301.264C205.713 301.264 206.338 301.428 206.871 301.756C207.405 302.085 207.819 302.545 208.114 303.138C208.409 303.732 208.557 304.424 208.557 305.217C208.557 306.005 208.409 306.695 208.114 307.285C207.819 307.875 207.405 308.334 206.871 308.662C206.338 308.99 205.713 309.154 204.997 309.154ZM205.002 307.906C205.466 307.906 205.851 307.784 206.156 307.538C206.46 307.293 206.686 306.967 206.832 306.559C206.981 306.151 207.055 305.702 207.055 305.212C207.055 304.724 206.981 304.277 206.832 303.869C206.686 303.458 206.46 303.129 206.156 302.88C205.851 302.631 205.466 302.507 205.002 302.507C204.535 302.507 204.147 302.631 203.839 302.88C203.534 303.129 203.307 303.458 203.158 303.869C203.012 304.277 202.939 304.724 202.939 305.212C202.939 305.702 203.012 306.151 203.158 306.559C203.307 306.967 203.534 307.293 203.839 307.538C204.147 307.784 204.535 307.906 205.002 307.906ZM215.053 305.833V301.364H216.545V309H215.083V307.678H215.004C214.828 308.085 214.546 308.425 214.159 308.697C213.774 308.965 213.295 309.099 212.722 309.099C212.231 309.099 211.797 308.992 211.419 308.776C211.045 308.558 210.75 308.234 210.534 307.807C210.322 307.379 210.216 306.851 210.216 306.221V301.364H211.703V306.042C211.703 306.562 211.847 306.977 212.135 307.285C212.423 307.593 212.798 307.747 213.259 307.747C213.537 307.747 213.814 307.678 214.089 307.538C214.367 307.399 214.598 307.189 214.78 306.907C214.966 306.625 215.057 306.267 215.053 305.833ZM221.401 309.149C220.784 309.149 220.234 308.992 219.75 308.677C219.27 308.359 218.892 307.906 218.617 307.32C218.345 306.73 218.209 306.022 218.209 305.197C218.209 304.371 218.347 303.665 218.622 303.079C218.9 302.492 219.281 302.043 219.765 301.732C220.249 301.42 220.798 301.264 221.411 301.264C221.885 301.264 222.266 301.344 222.554 301.503C222.846 301.659 223.071 301.841 223.23 302.05C223.393 302.259 223.519 302.442 223.608 302.602H223.698V298.818H225.184V309H223.733V307.812H223.608C223.519 307.974 223.39 308.16 223.221 308.369C223.055 308.577 222.826 308.76 222.534 308.915C222.243 309.071 221.865 309.149 221.401 309.149ZM221.729 307.881C222.157 307.881 222.518 307.769 222.813 307.543C223.111 307.315 223.337 306.998 223.489 306.594C223.645 306.189 223.723 305.719 223.723 305.182C223.723 304.652 223.646 304.187 223.494 303.79C223.342 303.392 223.118 303.082 222.823 302.86C222.528 302.638 222.163 302.527 221.729 302.527C221.282 302.527 220.909 302.643 220.61 302.875C220.312 303.107 220.087 303.424 219.934 303.825C219.785 304.226 219.711 304.678 219.711 305.182C219.711 305.692 219.787 306.151 219.939 306.559C220.092 306.967 220.317 307.29 220.615 307.528C220.917 307.764 221.288 307.881 221.729 307.881ZM231.13 309V298.818H232.667V303.243H237.743V298.818H239.284V309H237.743V304.56H232.667V309H231.13ZM242.341 311.864C242.119 311.864 241.917 311.845 241.735 311.809C241.552 311.776 241.417 311.739 241.327 311.7L241.685 310.482C241.957 310.554 242.199 310.586 242.411 310.576C242.623 310.566 242.81 310.487 242.973 310.337C243.138 310.188 243.284 309.945 243.41 309.607L243.594 309.099L240.8 301.364H242.391L244.325 307.29H244.404L246.338 301.364H247.934L244.787 310.019C244.641 310.417 244.456 310.753 244.23 311.028C244.005 311.307 243.737 311.516 243.425 311.655C243.114 311.794 242.752 311.864 242.341 311.864ZM249.331 311.864V301.364H250.783V302.602H250.907C250.993 302.442 251.118 302.259 251.28 302.05C251.443 301.841 251.668 301.659 251.956 301.503C252.245 301.344 252.626 301.264 253.1 301.264C253.716 301.264 254.266 301.42 254.75 301.732C255.234 302.043 255.614 302.492 255.889 303.079C256.167 303.665 256.306 304.371 256.306 305.197C256.306 306.022 256.169 306.73 255.894 307.32C255.619 307.906 255.241 308.359 254.76 308.677C254.28 308.992 253.731 309.149 253.115 309.149C252.651 309.149 252.271 309.071 251.976 308.915C251.685 308.76 251.456 308.577 251.29 308.369C251.124 308.16 250.997 307.974 250.907 307.812H250.818V311.864H249.331ZM250.788 305.182C250.788 305.719 250.866 306.189 251.022 306.594C251.177 306.998 251.403 307.315 251.698 307.543C251.993 307.769 252.354 307.881 252.782 307.881C253.226 307.881 253.597 307.764 253.895 307.528C254.194 307.29 254.419 306.967 254.571 306.559C254.727 306.151 254.805 305.692 254.805 305.182C254.805 304.678 254.729 304.226 254.576 303.825C254.427 303.424 254.202 303.107 253.9 302.875C253.602 302.643 253.229 302.527 252.782 302.527C252.351 302.527 251.986 302.638 251.688 302.86C251.393 303.082 251.169 303.392 251.017 303.79C250.864 304.187 250.788 304.652 250.788 305.182ZM261.263 309.154C260.511 309.154 259.863 308.993 259.319 308.672C258.779 308.347 258.361 307.891 258.066 307.305C257.775 306.715 257.629 306.024 257.629 305.232C257.629 304.449 257.775 303.76 258.066 303.163C258.361 302.567 258.772 302.101 259.299 301.766C259.83 301.432 260.449 301.264 261.159 301.264C261.59 301.264 262.007 301.335 262.412 301.478C262.816 301.621 263.179 301.844 263.5 302.149C263.822 302.454 264.075 302.85 264.261 303.337C264.447 303.821 264.539 304.41 264.539 305.102V305.629H258.469V304.516H263.083C263.083 304.125 263.003 303.778 262.844 303.477C262.685 303.172 262.461 302.931 262.173 302.756C261.888 302.58 261.553 302.492 261.169 302.492C260.751 302.492 260.386 302.595 260.075 302.8C259.767 303.003 259.528 303.268 259.359 303.596C259.193 303.921 259.11 304.274 259.11 304.655V305.525C259.11 306.035 259.2 306.469 259.379 306.827C259.561 307.185 259.815 307.459 260.14 307.648C260.464 307.833 260.844 307.926 261.278 307.926C261.56 307.926 261.817 307.886 262.049 307.807C262.281 307.724 262.481 307.601 262.65 307.439C262.819 307.277 262.949 307.076 263.038 306.837L264.445 307.091C264.332 307.505 264.13 307.868 263.838 308.18C263.55 308.488 263.187 308.728 262.75 308.901C262.315 309.07 261.82 309.154 261.263 309.154ZM266.189 309V301.364H267.626V302.577H267.705C267.844 302.166 268.09 301.843 268.441 301.607C268.796 301.369 269.197 301.249 269.644 301.249C269.737 301.249 269.846 301.253 269.972 301.259C270.101 301.266 270.202 301.274 270.275 301.284V302.706C270.216 302.689 270.11 302.671 269.957 302.651C269.805 302.628 269.652 302.616 269.5 302.616C269.148 302.616 268.835 302.691 268.56 302.84C268.288 302.986 268.073 303.19 267.914 303.452C267.755 303.71 267.675 304.005 267.675 304.337V309H266.189ZM277.284 303.228L275.937 303.467C275.88 303.294 275.791 303.13 275.668 302.974C275.549 302.819 275.387 302.691 275.181 302.592C274.976 302.492 274.719 302.442 274.411 302.442C273.99 302.442 273.638 302.537 273.357 302.726C273.075 302.911 272.934 303.152 272.934 303.447C272.934 303.702 273.028 303.907 273.217 304.063C273.406 304.219 273.711 304.347 274.132 304.446L275.345 304.724C276.048 304.887 276.571 305.137 276.916 305.475C277.261 305.813 277.433 306.252 277.433 306.793C277.433 307.25 277.301 307.658 277.036 308.016C276.774 308.37 276.407 308.649 275.937 308.851C275.469 309.053 274.928 309.154 274.311 309.154C273.456 309.154 272.758 308.972 272.218 308.607C271.678 308.239 271.346 307.717 271.224 307.041L272.661 306.822C272.75 307.197 272.934 307.48 273.212 307.673C273.491 307.862 273.854 307.956 274.301 307.956C274.788 307.956 275.178 307.855 275.469 307.653C275.761 307.447 275.907 307.197 275.907 306.902C275.907 306.663 275.817 306.463 275.638 306.3C275.463 306.138 275.193 306.015 274.828 305.933L273.536 305.649C272.823 305.487 272.296 305.228 271.955 304.874C271.616 304.519 271.447 304.07 271.447 303.526C271.447 303.076 271.573 302.681 271.825 302.343C272.077 302.005 272.425 301.741 272.869 301.553C273.313 301.36 273.822 301.264 274.396 301.264C275.221 301.264 275.871 301.443 276.344 301.801C276.818 302.156 277.132 302.631 277.284 303.228ZM282.284 309.154C281.545 309.154 280.909 308.987 280.375 308.652C279.845 308.314 279.437 307.848 279.152 307.255C278.867 306.662 278.725 305.982 278.725 305.217C278.725 304.441 278.87 303.757 279.162 303.163C279.454 302.567 279.865 302.101 280.395 301.766C280.925 301.432 281.55 301.264 282.269 301.264C282.849 301.264 283.366 301.372 283.82 301.587C284.275 301.799 284.641 302.098 284.919 302.482C285.201 302.867 285.368 303.316 285.421 303.83H283.975C283.895 303.472 283.713 303.163 283.428 302.905C283.146 302.646 282.768 302.517 282.294 302.517C281.88 302.517 281.517 302.626 281.205 302.845C280.897 303.061 280.657 303.369 280.485 303.77C280.312 304.168 280.226 304.638 280.226 305.182C280.226 305.739 280.311 306.219 280.48 306.624C280.649 307.028 280.887 307.341 281.195 307.563C281.507 307.785 281.873 307.896 282.294 307.896C282.576 307.896 282.831 307.845 283.06 307.742C283.292 307.636 283.486 307.485 283.642 307.29C283.801 307.094 283.912 306.859 283.975 306.584H285.421C285.368 307.078 285.208 307.518 284.939 307.906C284.671 308.294 284.311 308.599 283.86 308.821C283.413 309.043 282.887 309.154 282.284 309.154ZM289.233 309.169C288.749 309.169 288.312 309.08 287.921 308.901C287.53 308.718 287.22 308.455 286.991 308.11C286.766 307.765 286.653 307.343 286.653 306.842C286.653 306.411 286.736 306.057 286.902 305.778C287.067 305.5 287.291 305.28 287.573 305.117C287.855 304.955 288.169 304.832 288.517 304.749C288.865 304.666 289.22 304.603 289.581 304.56C290.039 304.507 290.41 304.464 290.695 304.431C290.98 304.395 291.187 304.337 291.316 304.257C291.446 304.178 291.51 304.048 291.51 303.869V303.835C291.51 303.4 291.388 303.064 291.142 302.825C290.9 302.587 290.539 302.467 290.059 302.467C289.558 302.467 289.164 302.578 288.875 302.8C288.59 303.019 288.393 303.263 288.284 303.531L286.887 303.213C287.052 302.749 287.294 302.375 287.613 302.089C287.934 301.801 288.304 301.592 288.721 301.463C289.139 301.33 289.578 301.264 290.039 301.264C290.344 301.264 290.667 301.301 291.008 301.374C291.353 301.443 291.674 301.572 291.973 301.761C292.274 301.95 292.521 302.22 292.713 302.572C292.906 302.92 293.002 303.372 293.002 303.929V309H291.55V307.956H291.49C291.394 308.148 291.25 308.337 291.058 308.523C290.866 308.708 290.619 308.862 290.317 308.985C290.016 309.108 289.654 309.169 289.233 309.169ZM289.556 307.976C289.967 307.976 290.319 307.895 290.61 307.732C290.905 307.57 291.129 307.358 291.282 307.096C291.437 306.831 291.515 306.547 291.515 306.246V305.261C291.462 305.314 291.359 305.364 291.207 305.411C291.058 305.454 290.887 305.492 290.695 305.525C290.503 305.555 290.315 305.583 290.133 305.609C289.951 305.633 289.798 305.652 289.676 305.669C289.387 305.705 289.124 305.767 288.885 305.853C288.65 305.939 288.461 306.063 288.319 306.226C288.179 306.385 288.11 306.597 288.11 306.862C288.11 307.23 288.246 307.509 288.517 307.697C288.789 307.883 289.136 307.976 289.556 307.976ZM296.468 298.818V309H294.982V298.818H296.468ZM301.759 309.154C301.007 309.154 300.359 308.993 299.815 308.672C299.275 308.347 298.857 307.891 298.562 307.305C298.271 306.715 298.125 306.024 298.125 305.232C298.125 304.449 298.271 303.76 298.562 303.163C298.857 302.567 299.268 302.101 299.795 301.766C300.326 301.432 300.946 301.264 301.655 301.264C302.086 301.264 302.503 301.335 302.908 301.478C303.312 301.621 303.675 301.844 303.996 302.149C304.318 302.454 304.571 302.85 304.757 303.337C304.943 303.821 305.036 304.41 305.036 305.102V305.629H298.965V304.516H303.579C303.579 304.125 303.499 303.778 303.34 303.477C303.181 303.172 302.957 302.931 302.669 302.756C302.384 302.58 302.049 302.492 301.665 302.492C301.247 302.492 300.883 302.595 300.571 302.8C300.263 303.003 300.024 303.268 299.855 303.596C299.689 303.921 299.607 304.274 299.607 304.655V305.525C299.607 306.035 299.696 306.469 299.875 306.827C300.057 307.185 300.311 307.459 300.636 307.648C300.96 307.833 301.34 307.926 301.774 307.926C302.056 307.926 302.313 307.886 302.545 307.807C302.777 307.724 302.977 307.601 303.146 307.439C303.315 307.277 303.445 307.076 303.534 306.837L304.941 307.091C304.828 307.505 304.626 307.868 304.335 308.18C304.046 308.488 303.683 308.728 303.246 308.901C302.812 309.07 302.316 309.154 301.759 309.154ZM306.685 309V301.364H308.122V302.577H308.201C308.34 302.166 308.586 301.843 308.937 301.607C309.292 301.369 309.693 301.249 310.14 301.249C310.233 301.249 310.342 301.253 310.468 301.259C310.597 301.266 310.699 301.274 310.771 301.284V302.706C310.712 302.689 310.606 302.671 310.453 302.651C310.301 302.628 310.148 302.616 309.996 302.616C309.645 302.616 309.331 302.691 309.056 302.84C308.785 302.986 308.569 303.19 308.41 303.452C308.251 303.71 308.171 304.005 308.171 304.337V309H306.685ZM317.78 303.228L316.433 303.467C316.377 303.294 316.287 303.13 316.164 302.974C316.045 302.819 315.883 302.691 315.677 302.592C315.472 302.492 315.215 302.442 314.907 302.442C314.486 302.442 314.134 302.537 313.853 302.726C313.571 302.911 313.43 303.152 313.43 303.447C313.43 303.702 313.525 303.907 313.713 304.063C313.902 304.219 314.207 304.347 314.628 304.446L315.841 304.724C316.544 304.887 317.068 305.137 317.412 305.475C317.757 305.813 317.929 306.252 317.929 306.793C317.929 307.25 317.797 307.658 317.532 308.016C317.27 308.37 316.904 308.649 316.433 308.851C315.966 309.053 315.424 309.154 314.807 309.154C313.952 309.154 313.254 308.972 312.714 308.607C312.174 308.239 311.842 307.717 311.72 307.041L313.157 306.822C313.246 307.197 313.43 307.48 313.708 307.673C313.987 307.862 314.35 307.956 314.797 307.956C315.284 307.956 315.674 307.855 315.966 307.653C316.257 307.447 316.403 307.197 316.403 306.902C316.403 306.663 316.314 306.463 316.135 306.3C315.959 306.138 315.689 306.015 315.324 305.933L314.032 305.649C313.319 305.487 312.792 305.228 312.451 304.874C312.113 304.519 311.944 304.07 311.944 303.526C311.944 303.076 312.069 302.681 312.321 302.343C312.573 302.005 312.921 301.741 313.365 301.553C313.81 301.36 314.318 301.264 314.892 301.264C315.717 301.264 316.367 301.443 316.841 301.801C317.315 302.156 317.628 302.631 317.78 303.228Z" fill="#B9C8DE"/>
<path d="M142.739 296.84C143.145 296.84 143.502 297.17 143.502 297.603V303.73H149.353C149.758 303.73 150.116 304.06 150.116 304.494V316.327H150.127V316.736C150.127 317.141 149.797 317.498 149.364 317.499H128.591C128.185 317.499 127.827 317.169 127.827 316.736V308.858C127.828 308.453 128.158 308.095 128.591 308.095H134.441V297.603C134.441 297.197 134.772 296.84 135.205 296.84H142.739ZM130.263 315.053H134.431V310.542H130.263V315.053ZM136.877 315.053H141.045V299.275H136.877V315.053ZM143.502 315.053H147.67V306.166H143.502V315.053Z" fill="url(#paint4_linear_14993_314)"/>
<path d="M136.337 284L136.337 283H136.337L136.337 284ZM146.748 289.62L145.911 290.167L146.272 290.721L146.923 290.605L146.748 289.62ZM149.035 289.365L149.082 290.364L150.035 290.32V289.365H149.035ZM149.035 289.334V288.334H148.035V289.334H149.035ZM149.869 289.334L149.869 288.334H149.869V289.334ZM167.333 306.644H168.333V306.644L167.333 306.644ZM149.869 323.955V324.955H149.869L149.869 323.955ZM139.222 323.978V324.978L139.224 324.978L139.222 323.978ZM138.781 323.978V322.978L138.779 322.978L138.781 323.978ZM128.525 324V325L128.528 325L128.525 324ZM114 309.603L113 309.603V309.603L114 309.603ZM123.909 295.949L124.224 296.898L124.888 296.678L124.909 295.979L123.909 295.949ZM136.337 284L136.337 285C140.223 285 143.82 286.965 145.911 290.167L146.748 289.62L147.585 289.073C145.125 285.306 140.899 283 136.337 283L136.337 284ZM146.748 289.62L146.923 290.605C147.634 290.478 148.356 290.398 149.082 290.364L149.035 289.365L148.989 288.366C148.179 288.404 147.37 288.494 146.573 288.636L146.748 289.62ZM149.035 289.365H150.035V289.334H149.035H148.035V289.365H149.035ZM149.035 289.334V290.334H149.869V289.334V288.334H149.035V289.334ZM149.869 289.334L149.869 290.334C158.954 290.334 166.333 297.66 166.333 306.644L167.333 306.644L168.333 306.644C168.333 296.539 160.042 288.334 149.869 288.334L149.869 289.334ZM167.333 306.644H166.333C166.333 315.628 158.954 322.955 149.869 322.955L149.869 323.955L149.869 324.955C160.042 324.955 168.333 316.749 168.333 306.644H167.333ZM149.869 323.955V322.955C147.676 322.955 143.436 322.966 139.219 322.978L139.222 323.978L139.224 324.978C143.443 324.966 147.679 324.955 149.869 324.955V323.955ZM139.222 323.978V322.978H138.781V323.978V324.978H139.222V323.978ZM138.781 323.978L138.779 322.978L128.523 323L128.525 324L128.528 325L138.783 324.978L138.781 323.978ZM128.525 324V323C121.057 323 115 316.984 115 309.603L114 309.603L113 309.603C113 318.105 119.969 325 128.525 325V324ZM114 309.603L115 309.603C115 303.817 118.738 298.718 124.224 296.898L123.909 295.949L123.594 295C117.303 297.087 113 302.942 113 309.603L114 309.603ZM123.909 295.949L124.909 295.979C125.093 289.9 130.138 285 136.337 285L136.337 284L136.337 283C129.07 283 123.127 288.746 122.91 295.919L123.909 295.949Z" fill="url(#paint5_linear_14993_314)"/>
<line x1="124.35" y1="171.65" x2="161.65" y2="171.65" stroke="#B9C8DE" stroke-width="0.7" stroke-linecap="round" stroke-dasharray="1 2"/>
<path d="M180 40L202 40C204.761 40 207 42.2386 207 45L207 115" stroke="#B9C8DE" stroke-width="0.7" stroke-dasharray="1 2"/>
<path d="M252 40L230 40C227.239 40 225 42.2386 225 45L225 115" stroke="#B9C8DE" stroke-width="0.7" stroke-dasharray="1 2"/>
<line x1="216.35" y1="234.35" x2="216.35" y2="263.65" stroke="#B9C8DE" stroke-width="0.7" stroke-linecap="round" stroke-dasharray="1 2"/>
<line x1="270.35" y1="171.65" x2="307.65" y2="171.65" stroke="#B9C8DE" stroke-width="0.7" stroke-linecap="round" stroke-dasharray="1 2"/>
<rect x="0.2" y="0.2" width="189.6" height="79.6" rx="7.8" fill="#111111" stroke="#B9C8DE" stroke-width="0.4"/>
<ellipse cx="1.79292" cy="2.6894" rx="1.79292" ry="2.6894" transform="matrix(0.999816 -0.0191794 0.00872213 0.999962 38.0605 39.3213)" fill="url(#paint6_linear_14993_314)"/>
<ellipse cx="1.79292" cy="2.6894" rx="1.79292" ry="2.6894" transform="matrix(0.999816 -0.0191794 0.00872213 0.999962 47.4116 39.3213)" fill="url(#paint7_linear_14993_314)"/>
<path d="M39.8758 27.8731C40.9159 27.2726 42.1974 27.2726 43.2375 27.8731L54.4325 34.3366C55.4726 34.9371 56.1133 36.0469 56.1133 37.2479V50.1748C56.1133 51.3759 55.4726 52.4857 54.4325 53.0862L43.2375 59.5497C42.1974 60.1502 40.9159 60.1502 39.8758 59.5497L28.6809 53.0862C27.6407 52.4857 27 51.3759 27 50.1748V37.2479C27 36.0469 27.6407 34.9371 28.6809 34.3366L39.8758 27.8731Z" stroke="url(#paint8_linear_14993_314)" stroke-width="2"/>
<ellipse cx="35.8001" cy="23.2" rx="3.2" ry="3.2" fill="url(#paint9_linear_14993_314)"/>
<path d="M77.1186 37V26.8182H78.6548V35.6776H83.2685V37H77.1186ZM85.021 37V26.8182H86.5572V35.6776H91.1708V37H85.021ZM92.9233 26.8182H94.7876L98.0291 34.733H98.1484L101.39 26.8182H103.254V37H101.793V29.6321H101.698L98.6953 36.9851H97.4822L94.4794 29.6271H94.3849V37H92.9233V26.8182ZM112.037 37.1442C111.354 37.1442 110.766 37.0199 110.272 36.7713C109.781 36.5227 109.403 36.1847 109.138 35.7571C108.873 35.3262 108.74 34.839 108.74 34.2955C108.74 33.8812 108.827 33.5133 108.999 33.1918C109.171 32.867 109.412 32.567 109.72 32.2919C110.028 32.0168 110.384 31.7401 110.789 31.4616L112.429 30.3033C112.708 30.121 112.925 29.9287 113.081 29.7266C113.236 29.5211 113.314 29.2675 113.314 28.9659C113.314 28.7273 113.212 28.4986 113.006 28.2798C112.801 28.0611 112.525 27.9517 112.181 27.9517C111.942 27.9517 111.732 28.0097 111.549 28.1257C111.37 28.2417 111.23 28.3909 111.127 28.5732C111.027 28.7521 110.978 28.9411 110.978 29.1399C110.978 29.3719 111.041 29.6056 111.167 29.8409C111.296 30.0762 111.462 30.3198 111.664 30.5717C111.866 30.8203 112.078 31.0788 112.3 31.3473L117.028 37H115.348L111.435 32.4013C111.107 32.0135 110.802 31.6489 110.52 31.3075C110.239 30.9628 110.01 30.6148 109.834 30.2635C109.662 29.9089 109.576 29.526 109.576 29.1151C109.576 28.6477 109.682 28.2334 109.894 27.8722C110.109 27.5076 110.409 27.2225 110.794 27.017C111.178 26.8116 111.629 26.7088 112.146 26.7088C112.67 26.7088 113.119 26.8116 113.493 27.017C113.871 27.2192 114.161 27.4893 114.363 27.8274C114.569 28.1622 114.672 28.5284 114.672 28.9261C114.672 29.41 114.551 29.8376 114.309 30.2088C114.07 30.5767 113.74 30.9148 113.319 31.223L111.276 32.7294C110.878 33.0211 110.601 33.3094 110.446 33.5945C110.293 33.8762 110.217 34.0966 110.217 34.2557C110.217 34.5473 110.292 34.8175 110.441 35.0661C110.593 35.3146 110.805 35.5135 111.077 35.6626C111.352 35.8118 111.674 35.8864 112.042 35.8864C112.419 35.8864 112.787 35.8052 113.145 35.6428C113.507 35.477 113.833 35.2401 114.125 34.9318C114.42 34.6236 114.653 34.254 114.826 33.8232C114.998 33.3923 115.084 32.91 115.084 32.3764H116.426C116.426 33.0327 116.352 33.5878 116.203 34.0419C116.054 34.4927 115.873 34.8606 115.661 35.1456C115.452 35.4273 115.255 35.6477 115.069 35.8068C115.01 35.8598 114.953 35.9129 114.9 35.9659C114.847 36.0189 114.791 36.072 114.731 36.125C114.386 36.473 113.969 36.7299 113.478 36.8956C112.991 37.0613 112.511 37.1442 112.037 37.1442ZM122.877 37H121.246L124.911 26.8182H126.685L130.349 37H128.719L125.84 28.6676H125.761L122.877 37ZM123.151 33.0128H128.44V34.3054H123.151V33.0128ZM134.779 40.0227C134.173 40.0227 133.651 39.9432 133.213 39.7841C132.779 39.625 132.424 39.4145 132.149 39.1527C131.874 38.8909 131.669 38.6042 131.533 38.2926L132.81 37.7656C132.9 37.9115 133.019 38.0656 133.168 38.228C133.321 38.3937 133.526 38.5346 133.785 38.6506C134.047 38.7666 134.383 38.8246 134.794 38.8246C135.357 38.8246 135.823 38.687 136.191 38.4119C136.559 38.1402 136.743 37.706 136.743 37.1094V35.608H136.648C136.559 35.7704 136.43 35.951 136.261 36.1499C136.095 36.3487 135.866 36.5211 135.575 36.6669C135.283 36.8127 134.903 36.8857 134.436 36.8857C133.833 36.8857 133.289 36.7448 132.805 36.4631C132.325 36.178 131.944 35.7588 131.662 35.2053C131.384 34.6484 131.244 33.964 131.244 33.152C131.244 32.34 131.382 31.6439 131.657 31.0639C131.935 30.4839 132.317 30.0398 132.8 29.7315C133.284 29.42 133.833 29.2642 134.446 29.2642C134.92 29.2642 135.303 29.3438 135.594 29.5028C135.886 29.6586 136.113 29.8409 136.276 30.0497C136.441 30.2585 136.569 30.4425 136.658 30.6016H136.768V29.3636H138.224V37.169C138.224 37.8253 138.072 38.3639 137.767 38.7848C137.462 39.2057 137.049 39.5173 136.529 39.7195C136.012 39.9216 135.429 40.0227 134.779 40.0227ZM134.764 35.6527C135.192 35.6527 135.553 35.5533 135.848 35.3544C136.146 35.1522 136.372 34.8639 136.524 34.4893C136.68 34.1115 136.758 33.6591 136.758 33.1321C136.758 32.6184 136.682 32.166 136.529 31.7749C136.377 31.3838 136.153 31.0788 135.858 30.8601C135.563 30.638 135.198 30.527 134.764 30.527C134.317 30.527 133.944 30.643 133.646 30.875C133.347 31.1037 133.122 31.4152 132.969 31.8097C132.82 32.2041 132.746 32.6449 132.746 33.1321C132.746 33.6326 132.822 34.0717 132.974 34.4496C133.127 34.8274 133.352 35.1224 133.651 35.3345C133.952 35.5466 134.323 35.6527 134.764 35.6527ZM143.509 37.1541C142.757 37.1541 142.109 36.9934 141.565 36.6719C141.025 36.3471 140.607 35.8913 140.312 35.3047C140.021 34.7147 139.875 34.0237 139.875 33.2315C139.875 32.4493 140.021 31.7599 140.312 31.1634C140.607 30.5668 141.018 30.1011 141.545 29.7663C142.076 29.4316 142.696 29.2642 143.405 29.2642C143.836 29.2642 144.253 29.3355 144.658 29.478C145.062 29.6205 145.425 29.8442 145.746 30.1491C146.068 30.4541 146.321 30.8501 146.507 31.3374C146.693 31.8213 146.786 32.4096 146.786 33.1023V33.6293H140.715V32.5156H145.329C145.329 32.1245 145.249 31.7782 145.09 31.4766C144.931 31.1716 144.707 30.9313 144.419 30.7557C144.134 30.58 143.799 30.4922 143.415 30.4922C142.997 30.4922 142.633 30.5949 142.321 30.8004C142.013 31.0026 141.774 31.2678 141.605 31.5959C141.439 31.9207 141.357 32.2737 141.357 32.6548V33.5249C141.357 34.0353 141.446 34.4695 141.625 34.8274C141.807 35.1854 142.061 35.4588 142.386 35.6477C142.71 35.8333 143.09 35.9261 143.524 35.9261C143.806 35.9261 144.063 35.8864 144.295 35.8068C144.527 35.724 144.727 35.6013 144.896 35.4389C145.065 35.2765 145.195 35.076 145.284 34.8374L146.691 35.0909C146.578 35.5052 146.376 35.8681 146.085 36.1797C145.796 36.4879 145.433 36.7282 144.996 36.9006C144.562 37.0696 144.066 37.1541 143.509 37.1541ZM149.921 32.4659V37H148.435V29.3636H149.862V30.6065H149.956C150.132 30.2022 150.407 29.8774 150.781 29.6321C151.159 29.3868 151.635 29.2642 152.208 29.2642C152.729 29.2642 153.184 29.3736 153.575 29.5923C153.967 29.8078 154.27 30.1293 154.485 30.5568C154.701 30.9844 154.808 31.513 154.808 32.1428V37H153.322V32.3217C153.322 31.7682 153.178 31.3357 152.889 31.0241C152.601 30.7093 152.205 30.5518 151.701 30.5518C151.356 30.5518 151.05 30.6264 150.781 30.7756C150.516 30.9247 150.306 31.1435 150.15 31.4318C149.998 31.7169 149.921 32.0616 149.921 32.4659ZM160.367 29.3636V30.5568H156.195V29.3636H160.367ZM157.314 27.5341H158.801V34.7578C158.801 35.0462 158.844 35.2633 158.93 35.4091C159.016 35.5516 159.127 35.6494 159.263 35.7024C159.402 35.7521 159.553 35.777 159.715 35.777C159.835 35.777 159.939 35.7687 160.029 35.7521C160.118 35.7356 160.188 35.7223 160.237 35.7124L160.506 36.9403C160.42 36.9735 160.297 37.0066 160.138 37.0398C159.979 37.0762 159.78 37.0961 159.541 37.0994C159.15 37.1061 158.786 37.0365 158.448 36.8906C158.11 36.7448 157.836 36.5194 157.627 36.2145C157.419 35.9096 157.314 35.5268 157.314 35.0661V27.5341ZM77.1186 54V43.8182H83.4325V45.1406H78.6548V48.2429H82.9801V49.5604H78.6548V54H77.1186ZM85.1067 54V46.3636H86.5435V47.5767H86.623C86.7623 47.1657 87.0075 46.8426 87.3588 46.6072C87.7135 46.3686 88.1145 46.2493 88.562 46.2493C88.6548 46.2493 88.7641 46.2526 88.8901 46.2592C89.0194 46.2659 89.1204 46.2741 89.1934 46.2841V47.706C89.1337 47.6894 89.0276 47.6712 88.8752 47.6513C88.7227 47.6281 88.5703 47.6165 88.4178 47.6165C88.0665 47.6165 87.7533 47.6911 87.4782 47.8402C87.2064 47.986 86.9909 48.1899 86.8319 48.4517C86.6728 48.7102 86.5932 49.0052 86.5932 49.3366V54H85.1067ZM92.6337 54.169C92.1498 54.169 91.7123 54.0795 91.3212 53.9006C90.9301 53.7183 90.6202 53.4548 90.3915 53.1101C90.1661 52.7654 90.0534 52.3428 90.0534 51.8423C90.0534 51.4115 90.1363 51.0568 90.302 50.7784C90.4677 50.5 90.6915 50.2796 90.9732 50.1172C91.2549 49.9548 91.5698 49.8321 91.9178 49.7493C92.2658 49.6664 92.6204 49.6035 92.9817 49.5604C93.4391 49.5073 93.8103 49.4643 94.0953 49.4311C94.3804 49.3946 94.5875 49.3366 94.7168 49.2571C94.8461 49.1776 94.9107 49.0483 94.9107 48.8693V48.8345C94.9107 48.4003 94.7881 48.0639 94.5428 47.8253C94.3008 47.5866 93.9396 47.4673 93.459 47.4673C92.9585 47.4673 92.5641 47.5784 92.2757 47.8004C91.9907 48.0192 91.7935 48.2628 91.6841 48.5312L90.2871 48.2131C90.4528 47.7491 90.6948 47.3745 91.013 47.0895C91.3345 46.8011 91.704 46.5923 92.1216 46.4631C92.5392 46.3305 92.9784 46.2642 93.4391 46.2642C93.744 46.2642 94.0672 46.3007 94.4086 46.3736C94.7533 46.4432 95.0748 46.5724 95.373 46.7614C95.6747 46.9503 95.9216 47.2204 96.1138 47.5717C96.306 47.9197 96.4022 48.3722 96.4022 48.929V54H94.9505V52.956H94.8908C94.7947 53.1482 94.6505 53.3371 94.4583 53.5227C94.266 53.7083 94.0191 53.8625 93.7175 53.9851C93.4159 54.1077 93.0546 54.169 92.6337 54.169ZM92.9569 52.9759C93.3678 52.9759 93.7192 52.8946 94.0108 52.7322C94.3058 52.5698 94.5295 52.3577 94.682 52.0959C94.8378 51.8307 94.9157 51.5473 94.9157 51.2457V50.2614C94.8626 50.3144 94.7599 50.3641 94.6074 50.4105C94.4583 50.4536 94.2876 50.4917 94.0953 50.5249C93.9031 50.5547 93.7159 50.5829 93.5336 50.6094C93.3513 50.6326 93.1988 50.6525 93.0762 50.669C92.7878 50.7055 92.5243 50.7668 92.2857 50.853C92.0504 50.9392 91.8614 51.0634 91.7189 51.2259C91.5797 51.3849 91.5101 51.5971 91.5101 51.8622C91.5101 52.2301 91.646 52.5085 91.9178 52.6974C92.1896 52.883 92.5359 52.9759 92.9569 52.9759ZM98.3821 54V46.3636H99.8089V47.6065H99.9034C100.063 47.1856 100.323 46.8575 100.684 46.6222C101.045 46.3835 101.478 46.2642 101.982 46.2642C102.492 46.2642 102.92 46.3835 103.264 46.6222C103.612 46.8608 103.869 47.1889 104.035 47.6065H104.114C104.297 47.1989 104.587 46.8741 104.984 46.6321C105.382 46.3868 105.856 46.2642 106.406 46.2642C107.099 46.2642 107.664 46.4813 108.102 46.9155C108.542 47.3497 108.763 48.0043 108.763 48.8793V54H107.276V49.0185C107.276 48.5014 107.135 48.1269 106.854 47.8949C106.572 47.6629 106.236 47.5469 105.844 47.5469C105.361 47.5469 104.984 47.696 104.716 47.9943C104.447 48.2893 104.313 48.6688 104.313 49.1328V54H102.832V48.924C102.832 48.5097 102.702 48.1766 102.444 47.9247C102.185 47.6728 101.849 47.5469 101.435 47.5469C101.153 47.5469 100.893 47.6214 100.654 47.7706C100.419 47.9164 100.228 48.1203 100.082 48.3821C99.9399 48.6439 99.8686 48.9472 99.8686 49.2919V54H98.3821ZM114.046 54.1541C113.294 54.1541 112.646 53.9934 112.102 53.6719C111.562 53.3471 111.145 52.8913 110.85 52.3047C110.558 51.7147 110.412 51.0237 110.412 50.2315C110.412 49.4493 110.558 48.7599 110.85 48.1634C111.145 47.5668 111.556 47.1011 112.083 46.7663C112.613 46.4316 113.233 46.2642 113.942 46.2642C114.373 46.2642 114.79 46.3355 115.195 46.478C115.599 46.6205 115.962 46.8442 116.284 47.1491C116.605 47.4541 116.859 47.8501 117.044 48.3374C117.23 48.8213 117.323 49.4096 117.323 50.1023V50.6293H111.252V49.5156H115.866C115.866 49.1245 115.786 48.7782 115.627 48.4766C115.468 48.1716 115.244 47.9313 114.956 47.7557C114.671 47.58 114.336 47.4922 113.952 47.4922C113.534 47.4922 113.17 47.5949 112.858 47.8004C112.55 48.0026 112.311 48.2678 112.142 48.5959C111.977 48.9207 111.894 49.2737 111.894 49.6548V50.5249C111.894 51.0353 111.983 51.4695 112.162 51.8274C112.344 52.1854 112.598 52.4588 112.923 52.6477C113.248 52.8333 113.627 52.9261 114.061 52.9261C114.343 52.9261 114.6 52.8864 114.832 52.8068C115.064 52.724 115.264 52.6013 115.433 52.4389C115.602 52.2765 115.732 52.076 115.821 51.8374L117.228 52.0909C117.115 52.5052 116.913 52.8681 116.622 53.1797C116.333 53.4879 115.97 53.7282 115.533 53.9006C115.099 54.0696 114.603 54.1541 114.046 54.1541ZM120.614 54L118.367 46.3636H119.903L121.399 51.9716H121.474L122.975 46.3636H124.512L126.003 51.9467H126.078L127.564 46.3636H129.1L126.858 54H125.342L123.791 48.4865H123.676L122.125 54H120.614ZM133.495 54.1541C132.779 54.1541 132.155 53.9901 131.621 53.6619C131.087 53.3338 130.673 52.8748 130.378 52.2848C130.083 51.6948 129.936 51.0054 129.936 50.2166C129.936 49.4245 130.083 48.7318 130.378 48.1385C130.673 47.5452 131.087 47.0845 131.621 46.7564C132.155 46.4283 132.779 46.2642 133.495 46.2642C134.211 46.2642 134.836 46.4283 135.369 46.7564C135.903 47.0845 136.317 47.5452 136.612 48.1385C136.907 48.7318 137.055 49.4245 137.055 50.2166C137.055 51.0054 136.907 51.6948 136.612 52.2848C136.317 52.8748 135.903 53.3338 135.369 53.6619C134.836 53.9901 134.211 54.1541 133.495 54.1541ZM133.5 52.9062C133.964 52.9062 134.349 52.7836 134.654 52.5384C134.959 52.2931 135.184 51.9666 135.33 51.5589C135.479 51.1513 135.553 50.7022 135.553 50.2116C135.553 49.7244 135.479 49.277 135.33 48.8693C135.184 48.4583 134.959 48.1286 134.654 47.88C134.349 47.6314 133.964 47.5071 133.5 47.5071C133.033 47.5071 132.645 47.6314 132.337 47.88C132.032 48.1286 131.805 48.4583 131.656 48.8693C131.51 49.277 131.437 49.7244 131.437 50.2116C131.437 50.7022 131.51 51.1513 131.656 51.5589C131.805 51.9666 132.032 52.2931 132.337 52.5384C132.645 52.7836 133.033 52.9062 133.5 52.9062ZM138.714 54V46.3636H140.151V47.5767H140.23C140.37 47.1657 140.615 46.8426 140.966 46.6072C141.321 46.3686 141.722 46.2493 142.169 46.2493C142.262 46.2493 142.372 46.2526 142.498 46.2592C142.627 46.2659 142.728 46.2741 142.801 46.2841V47.706C142.741 47.6894 142.635 47.6712 142.483 47.6513C142.33 47.6281 142.178 47.6165 142.025 47.6165C141.674 47.6165 141.361 47.6911 141.086 47.8402C140.814 47.986 140.598 48.1899 140.439 48.4517C140.28 48.7102 140.201 49.0052 140.201 49.3366V54H138.714ZM145.454 51.4098L145.444 49.5952H145.703L148.746 46.3636H150.525L147.055 50.0426H146.822L145.454 51.4098ZM144.087 54V43.8182H145.574V54H144.087ZM148.91 54L146.175 50.3707L147.199 49.3317L150.734 54H148.91ZM157.602 48.228L156.255 48.4666C156.199 48.2943 156.109 48.1302 155.987 47.9744C155.867 47.8187 155.705 47.6911 155.499 47.5916C155.294 47.4922 155.037 47.4425 154.729 47.4425C154.308 47.4425 153.957 47.5369 153.675 47.7259C153.393 47.9115 153.252 48.1518 153.252 48.4467C153.252 48.7019 153.347 48.9074 153.536 49.0632C153.725 49.219 154.03 49.3466 154.45 49.446L155.664 49.7244C156.366 49.8868 156.89 50.1371 157.235 50.4751C157.579 50.8132 157.752 51.2524 157.752 51.7926C157.752 52.25 157.619 52.6577 157.354 53.0156C157.092 53.3703 156.726 53.6487 156.255 53.8509C155.788 54.053 155.246 54.1541 154.629 54.1541C153.774 54.1541 153.077 53.9718 152.536 53.6072C151.996 53.2393 151.665 52.7173 151.542 52.0412L152.979 51.8224C153.068 52.197 153.252 52.4804 153.531 52.6726C153.809 52.8615 154.172 52.956 154.619 52.956C155.107 52.956 155.496 52.8549 155.788 52.6527C156.079 52.4472 156.225 52.197 156.225 51.902C156.225 51.6634 156.136 51.4628 155.957 51.3004C155.781 51.138 155.511 51.0154 155.146 50.9325L153.854 50.6491C153.141 50.4867 152.614 50.2282 152.273 49.8736C151.935 49.5189 151.766 49.0698 151.766 48.5263C151.766 48.0755 151.892 47.6811 152.144 47.343C152.396 47.005 152.744 46.7415 153.188 46.5526C153.632 46.3603 154.141 46.2642 154.714 46.2642C155.539 46.2642 156.189 46.4432 156.663 46.8011C157.137 47.1558 157.45 47.6314 157.602 48.228Z" fill="#B9C8DE"/>
<rect x="242.2" y="0.2" width="189.6" height="79.6" rx="7.8" fill="#111111" stroke="#B9C8DE" stroke-width="0.4"/>
<path d="M332.119 26.8182H333.983L337.224 34.733H337.344L340.585 26.8182H342.45V37H340.988V29.6321H340.893L337.891 36.9851H336.678L333.675 29.6271H333.58V37H332.119V26.8182ZM347.78 37.1541C347.064 37.1541 346.44 36.9901 345.906 36.6619C345.372 36.3338 344.958 35.8748 344.663 35.2848C344.368 34.6948 344.221 34.0054 344.221 33.2166C344.221 32.4245 344.368 31.7318 344.663 31.1385C344.958 30.5452 345.372 30.0845 345.906 29.7564C346.44 29.4283 347.064 29.2642 347.78 29.2642C348.496 29.2642 349.121 29.4283 349.655 29.7564C350.188 30.0845 350.603 30.5452 350.898 31.1385C351.193 31.7318 351.34 32.4245 351.34 33.2166C351.34 34.0054 351.193 34.6948 350.898 35.2848C350.603 35.8748 350.188 36.3338 349.655 36.6619C349.121 36.9901 348.496 37.1541 347.78 37.1541ZM347.785 35.9062C348.249 35.9062 348.634 35.7836 348.939 35.5384C349.244 35.2931 349.469 34.9666 349.615 34.5589C349.764 34.1513 349.839 33.7022 349.839 33.2116C349.839 32.7244 349.764 32.277 349.615 31.8693C349.469 31.4583 349.244 31.1286 348.939 30.88C348.634 30.6314 348.249 30.5071 347.785 30.5071C347.318 30.5071 346.93 30.6314 346.622 30.88C346.317 31.1286 346.09 31.4583 345.941 31.8693C345.795 32.277 345.722 32.7244 345.722 33.2116C345.722 33.7022 345.795 34.1513 345.941 34.5589C346.09 34.9666 346.317 35.2931 346.622 35.5384C346.93 35.7836 347.318 35.9062 347.785 35.9062ZM355.858 37.1491C355.241 37.1491 354.691 36.9917 354.207 36.6768C353.727 36.3587 353.349 35.9062 353.074 35.3196C352.802 34.7296 352.666 34.022 352.666 33.1967C352.666 32.3714 352.804 31.6655 353.079 31.0788C353.357 30.4922 353.738 30.0431 354.222 29.7315C354.706 29.42 355.255 29.2642 355.868 29.2642C356.342 29.2642 356.723 29.3438 357.011 29.5028C357.303 29.6586 357.528 29.8409 357.688 30.0497C357.85 30.2585 357.976 30.4425 358.065 30.6016H358.155V26.8182H359.641V37H358.19V35.8118H358.065C357.976 35.9742 357.847 36.1598 357.678 36.3686C357.512 36.5774 357.283 36.7597 356.991 36.9155C356.7 37.0713 356.322 37.1491 355.858 37.1491ZM356.186 35.8814C356.614 35.8814 356.975 35.7687 357.27 35.5433C357.568 35.3146 357.794 34.9981 357.946 34.5938C358.102 34.1894 358.18 33.7187 358.18 33.1818C358.18 32.6515 358.103 32.1875 357.951 31.7898C357.799 31.392 357.575 31.0821 357.28 30.8601C356.985 30.638 356.62 30.527 356.186 30.527C355.739 30.527 355.366 30.643 355.067 30.875C354.769 31.107 354.544 31.4235 354.391 31.8246C354.242 32.2256 354.168 32.678 354.168 33.1818C354.168 33.6922 354.244 34.1513 354.396 34.5589C354.549 34.9666 354.774 35.2898 355.072 35.5284C355.374 35.7637 355.745 35.8814 356.186 35.8814ZM365.054 37.1541C364.302 37.1541 363.654 36.9934 363.11 36.6719C362.57 36.3471 362.152 35.8913 361.857 35.3047C361.566 34.7147 361.42 34.0237 361.42 33.2315C361.42 32.4493 361.566 31.7599 361.857 31.1634C362.152 30.5668 362.563 30.1011 363.09 29.7663C363.621 29.4316 364.24 29.2642 364.95 29.2642C365.381 29.2642 365.798 29.3355 366.203 29.478C366.607 29.6205 366.97 29.8442 367.291 30.1491C367.613 30.4541 367.866 30.8501 368.052 31.3374C368.238 31.8213 368.33 32.4096 368.33 33.1023V33.6293H362.26V32.5156H366.874C366.874 32.1245 366.794 31.7782 366.635 31.4766C366.476 31.1716 366.252 30.9313 365.964 30.7557C365.679 30.58 365.344 30.4922 364.96 30.4922C364.542 30.4922 364.177 30.5949 363.866 30.8004C363.558 31.0026 363.319 31.2678 363.15 31.5959C362.984 31.9207 362.901 32.2737 362.901 32.6548V33.5249C362.901 34.0353 362.991 34.4695 363.17 34.8274C363.352 35.1854 363.606 35.4588 363.931 35.6477C364.255 35.8333 364.635 35.9261 365.069 35.9261C365.351 35.9261 365.608 35.8864 365.84 35.8068C366.072 35.724 366.272 35.6013 366.441 35.4389C366.61 35.2765 366.74 35.076 366.829 34.8374L368.236 35.0909C368.123 35.5052 367.921 35.8681 367.629 36.1797C367.341 36.4879 366.978 36.7282 366.541 36.9006C366.106 37.0696 365.611 37.1541 365.054 37.1541ZM371.466 26.8182V37H369.98V26.8182H371.466ZM332.119 54V43.8182H335.748C336.54 43.8182 337.196 43.9624 337.717 44.2507C338.237 44.5391 338.626 44.9335 338.885 45.4339C339.143 45.9311 339.273 46.4912 339.273 47.1143C339.273 47.7408 339.142 48.3042 338.88 48.8047C338.621 49.3018 338.23 49.6963 337.707 49.9879C337.186 50.2763 336.532 50.4205 335.743 50.4205H333.247V49.1179H335.604C336.104 49.1179 336.51 49.0317 336.822 48.8594C337.133 48.6837 337.362 48.4451 337.508 48.1435C337.654 47.8419 337.727 47.4988 337.727 47.1143C337.727 46.7299 337.654 46.3885 337.508 46.0902C337.362 45.7919 337.132 45.5582 336.817 45.3892C336.505 45.2202 336.094 45.1357 335.584 45.1357H333.655V54H332.119ZM340.954 54V46.3636H342.391V47.5767H342.471C342.61 47.1657 342.855 46.8426 343.206 46.6072C343.561 46.3686 343.962 46.2493 344.41 46.2493C344.502 46.2493 344.612 46.2526 344.738 46.2592C344.867 46.2659 344.968 46.2741 345.041 46.2841V47.706C344.981 47.6894 344.875 47.6712 344.723 47.6513C344.57 47.6281 344.418 47.6165 344.265 47.6165C343.914 47.6165 343.601 47.6911 343.326 47.8402C343.054 47.986 342.839 48.1899 342.68 48.4517C342.52 48.7102 342.441 49.0052 342.441 49.3366V54H340.954ZM349.271 54.1541C348.555 54.1541 347.93 53.9901 347.396 53.6619C346.863 53.3338 346.448 52.8748 346.153 52.2848C345.858 51.6948 345.711 51.0054 345.711 50.2166C345.711 49.4245 345.858 48.7318 346.153 48.1385C346.448 47.5452 346.863 47.0845 347.396 46.7564C347.93 46.4283 348.555 46.2642 349.271 46.2642C349.987 46.2642 350.611 46.4283 351.145 46.7564C351.679 47.0845 352.093 47.5452 352.388 48.1385C352.683 48.7318 352.83 49.4245 352.83 50.2166C352.83 51.0054 352.683 51.6948 352.388 52.2848C352.093 52.8748 351.679 53.3338 351.145 53.6619C350.611 53.9901 349.987 54.1541 349.271 54.1541ZM349.276 52.9062C349.74 52.9062 350.124 52.7836 350.429 52.5384C350.734 52.2931 350.959 51.9666 351.105 51.5589C351.254 51.1513 351.329 50.7022 351.329 50.2116C351.329 49.7244 351.254 49.277 351.105 48.8693C350.959 48.4583 350.734 48.1286 350.429 47.88C350.124 47.6314 349.74 47.5071 349.276 47.5071C348.808 47.5071 348.42 47.6314 348.112 47.88C347.807 48.1286 347.58 48.4583 347.431 48.8693C347.285 49.277 347.212 49.7244 347.212 50.2116C347.212 50.7022 347.285 51.1513 347.431 51.5589C347.58 51.9666 347.807 52.2931 348.112 52.5384C348.42 52.7836 348.808 52.9062 349.276 52.9062ZM360.762 46.3636L357.993 54H356.402L353.628 46.3636H355.224L357.158 52.2401H357.238L359.167 46.3636H360.762ZM362.159 54V46.3636H363.646V54H362.159ZM362.91 45.1854C362.652 45.1854 362.43 45.0992 362.244 44.9268C362.062 44.7512 361.971 44.5424 361.971 44.3004C361.971 44.0552 362.062 43.8464 362.244 43.674C362.43 43.4983 362.652 43.4105 362.91 43.4105C363.169 43.4105 363.389 43.4983 363.571 43.674C363.757 43.8464 363.85 44.0552 363.85 44.3004C363.85 44.5424 363.757 44.7512 363.571 44.9268C363.389 45.0992 363.169 45.1854 362.91 45.1854ZM368.504 54.1491C367.888 54.1491 367.338 53.9917 366.854 53.6768C366.373 53.3587 365.995 52.9062 365.72 52.3196C365.449 51.7296 365.313 51.022 365.313 50.1967C365.313 49.3714 365.45 48.6655 365.725 48.0788C366.004 47.4922 366.385 47.0431 366.869 46.7315C367.353 46.42 367.901 46.2642 368.514 46.2642C368.988 46.2642 369.369 46.3438 369.658 46.5028C369.95 46.6586 370.175 46.8409 370.334 47.0497C370.496 47.2585 370.622 47.4425 370.712 47.6016H370.801V43.8182H372.288V54H370.836V52.8118H370.712C370.622 52.9742 370.493 53.1598 370.324 53.3686C370.158 53.5774 369.93 53.7597 369.638 53.9155C369.346 54.0713 368.968 54.1491 368.504 54.1491ZM368.833 52.8814C369.26 52.8814 369.621 52.7687 369.916 52.5433C370.215 52.3146 370.44 51.9981 370.593 51.5938C370.748 51.1894 370.826 50.7187 370.826 50.1818C370.826 49.6515 370.75 49.1875 370.597 48.7898C370.445 48.392 370.221 48.0821 369.926 47.8601C369.631 47.638 369.267 47.527 368.833 47.527C368.385 47.527 368.012 47.643 367.714 47.875C367.416 48.107 367.19 48.4235 367.038 48.8246C366.889 49.2256 366.814 49.678 366.814 50.1818C366.814 50.6922 366.89 51.1513 367.043 51.5589C367.195 51.9666 367.421 52.2898 367.719 52.5284C368.021 52.7637 368.392 52.8814 368.833 52.8814ZM377.701 54.1541C376.948 54.1541 376.3 53.9934 375.757 53.6719C375.217 53.3471 374.799 52.8913 374.504 52.3047C374.212 51.7147 374.066 51.0237 374.066 50.2315C374.066 49.4493 374.212 48.7599 374.504 48.1634C374.799 47.5668 375.21 47.1011 375.737 46.7663C376.267 46.4316 376.887 46.2642 377.596 46.2642C378.027 46.2642 378.445 46.3355 378.849 46.478C379.253 46.6205 379.616 46.8442 379.938 47.1491C380.259 47.4541 380.513 47.8501 380.699 48.3374C380.884 48.8213 380.977 49.4096 380.977 50.1023V50.6293H374.907V49.5156H379.52C379.52 49.1245 379.441 48.7782 379.282 48.4766C379.123 48.1716 378.899 47.9313 378.61 47.7557C378.325 47.58 377.991 47.4922 377.606 47.4922C377.189 47.4922 376.824 47.5949 376.512 47.8004C376.204 48.0026 375.966 48.2678 375.797 48.5959C375.631 48.9207 375.548 49.2737 375.548 49.6548V50.5249C375.548 51.0353 375.637 51.4695 375.816 51.8274C375.999 52.1854 376.252 52.4588 376.577 52.6477C376.902 52.8333 377.281 52.9261 377.716 52.9261C377.997 52.9261 378.254 52.8864 378.486 52.8068C378.718 52.724 378.919 52.6013 379.088 52.4389C379.257 52.2765 379.386 52.076 379.475 51.8374L380.882 52.0909C380.77 52.5052 380.568 52.8681 380.276 53.1797C379.988 53.4879 379.625 53.7282 379.187 53.9006C378.753 54.0696 378.257 54.1541 377.701 54.1541ZM382.626 54V46.3636H384.063V47.5767H384.143C384.282 47.1657 384.527 46.8426 384.878 46.6072C385.233 46.3686 385.634 46.2493 386.081 46.2493C386.174 46.2493 386.284 46.2526 386.41 46.2592C386.539 46.2659 386.64 46.2741 386.713 46.2841V47.706C386.653 47.6894 386.547 47.6712 386.395 47.6513C386.242 47.6281 386.09 47.6165 385.937 47.6165C385.586 47.6165 385.273 47.6911 384.998 47.8402C384.726 47.986 384.51 48.1899 384.351 48.4517C384.192 48.7102 384.113 49.0052 384.113 49.3366V54H382.626ZM393.722 48.228L392.374 48.4666C392.318 48.2943 392.228 48.1302 392.106 47.9744C391.987 47.8187 391.824 47.6911 391.619 47.5916C391.413 47.4922 391.156 47.4425 390.848 47.4425C390.427 47.4425 390.076 47.5369 389.794 47.7259C389.512 47.9115 389.371 48.1518 389.371 48.4467C389.371 48.7019 389.466 48.9074 389.655 49.0632C389.844 49.219 390.149 49.3466 390.57 49.446L391.783 49.7244C392.485 49.8868 393.009 50.1371 393.354 50.4751C393.698 50.8132 393.871 51.2524 393.871 51.7926C393.871 52.25 393.738 52.6577 393.473 53.0156C393.211 53.3703 392.845 53.6487 392.374 53.8509C391.907 54.053 391.365 54.1541 390.749 54.1541C389.893 54.1541 389.196 53.9718 388.656 53.6072C388.115 53.2393 387.784 52.7173 387.661 52.0412L389.098 51.8224C389.188 52.197 389.371 52.4804 389.65 52.6726C389.928 52.8615 390.291 52.956 390.739 52.956C391.226 52.956 391.615 52.8549 391.907 52.6527C392.199 52.4472 392.344 52.197 392.344 51.902C392.344 51.6634 392.255 51.4628 392.076 51.3004C391.9 51.138 391.63 51.0154 391.266 50.9325L389.973 50.6491C389.26 50.4867 388.733 50.2282 388.392 49.8736C388.054 49.5189 387.885 49.0698 387.885 48.5263C387.885 48.0755 388.011 47.6811 388.263 47.343C388.515 47.005 388.863 46.7415 389.307 46.5526C389.751 46.3603 390.26 46.2642 390.833 46.2642C391.658 46.2642 392.308 46.4432 392.782 46.8011C393.256 47.1558 393.569 47.6314 393.722 48.228Z" fill="#B9C8DE"/>
<path d="M295.844 50.1293C300.662 50.1293 304.569 46.1628 304.569 41.2699C304.569 36.377 300.662 32.4106 295.844 32.4106C291.025 32.4106 287.118 36.377 287.118 41.2699C287.118 46.1628 291.025 50.1293 295.844 50.1293Z" stroke="url(#paint10_linear_14993_314)" stroke-width="2" stroke-miterlimit="10"/>
<path d="M300.749 27.8207L298.965 32.7954" stroke="url(#paint11_linear_14993_314)" stroke-width="2" stroke-miterlimit="10"/>
<path d="M282.24 43.3215L287.413 42.6656" stroke="url(#paint12_linear_14993_314)" stroke-width="2" stroke-miterlimit="10"/>
<path d="M301.159 48.3416L304.42 52.4665" stroke="url(#paint13_linear_14993_314)" stroke-width="2" stroke-miterlimit="10"/>
<path d="M306.988 60C309.224 60 311.037 58.1595 311.037 55.889C311.037 53.6186 309.224 51.7781 306.988 51.7781C304.752 51.7781 302.939 53.6186 302.939 55.889C302.939 58.1595 304.752 60 306.988 60Z" stroke="url(#paint14_linear_14993_314)" stroke-width="2" stroke-miterlimit="10"/>
<path d="M302.263 28.2219C304.499 28.2219 306.311 26.3814 306.311 24.111C306.311 21.8405 304.499 20 302.263 20C300.027 20 298.214 21.8405 298.214 24.111C298.214 26.3814 300.027 28.2219 302.263 28.2219Z" stroke="url(#paint15_linear_14993_314)" stroke-width="2" stroke-miterlimit="10"/>
<path d="M278.049 48.037C280.285 48.037 282.098 46.1965 282.098 43.926C282.098 41.6556 280.285 39.8151 278.049 39.8151C275.813 39.8151 274 41.6556 274 43.926C274 46.1965 275.813 48.037 278.049 48.037Z" stroke="url(#paint16_linear_14993_314)" stroke-width="2" stroke-miterlimit="10"/>
<defs>
<linearGradient id="paint0_linear_14993_314" x1="163.288" y1="219.169" x2="275.52" y2="132.539" gradientUnits="userSpaceOnUse">
<stop offset="0.168669" stop-color="#00FE6B"/>
<stop offset="0.887092" stop-color="#00B7E2"/>
</linearGradient>
<linearGradient id="paint1_linear_14993_314" x1="226.294" y1="165.28" x2="215.963" y2="183.852" gradientUnits="userSpaceOnUse">
<stop stop-color="#43E2C5"/>
<stop offset="1" stop-color="#70EE62"/>
</linearGradient>
<linearGradient id="paint2_linear_14993_314" x1="82" y1="127.6" x2="42" y2="171" gradientUnits="userSpaceOnUse">
<stop stop-color="#43E2C5"/>
<stop offset="1" stop-color="#70EE62"/>
</linearGradient>
<linearGradient id="paint3_linear_14993_314" x1="390" y1="127.6" x2="350" y2="171" gradientUnits="userSpaceOnUse">
<stop stop-color="#43E2C5"/>
<stop offset="1" stop-color="#70EE62"/>
</linearGradient>
<linearGradient id="paint4_linear_14993_314" x1="150.127" y1="295.083" x2="129.655" y2="319.059" gradientUnits="userSpaceOnUse">
<stop stop-color="#43E2C5"/>
<stop offset="1" stop-color="#70EE62"/>
</linearGradient>
<linearGradient id="paint5_linear_14993_314" x1="167.333" y1="280.6" x2="129.789" y2="334.914" gradientUnits="userSpaceOnUse">
<stop stop-color="#43E2C5"/>
<stop offset="1" stop-color="#70EE62"/>
</linearGradient>
<linearGradient id="paint6_linear_14993_314" x1="3.58583" y1="-0.457197" x2="-1.53966" y2="3.25021" gradientUnits="userSpaceOnUse">
<stop stop-color="#43E2C5"/>
<stop offset="1" stop-color="#70EE62"/>
</linearGradient>
<linearGradient id="paint7_linear_14993_314" x1="3.58583" y1="-0.457197" x2="-1.53966" y2="3.25021" gradientUnits="userSpaceOnUse">
<stop stop-color="#43E2C5"/>
<stop offset="1" stop-color="#70EE62"/>
</linearGradient>
<linearGradient id="paint8_linear_14993_314" x1="56.1133" y1="24.6536" x2="23.4431" y2="56.3317" gradientUnits="userSpaceOnUse">
<stop stop-color="#43E2C5"/>
<stop offset="1" stop-color="#70EE62"/>
</linearGradient>
<linearGradient id="paint9_linear_14993_314" x1="39.0001" y1="19.456" x2="32.6001" y2="26.4" gradientUnits="userSpaceOnUse">
<stop stop-color="#43E2C5"/>
<stop offset="1" stop-color="#70EE62"/>
</linearGradient>
<linearGradient id="paint10_linear_14993_314" x1="304.569" y1="30.9045" x2="286.83" y2="49.8598" gradientUnits="userSpaceOnUse">
<stop stop-color="#43E2C5"/>
<stop offset="1" stop-color="#70EE62"/>
</linearGradient>
<linearGradient id="paint11_linear_14993_314" x1="300.749" y1="27.3978" x2="297.376" y2="28.7095" gradientUnits="userSpaceOnUse">
<stop stop-color="#43E2C5"/>
<stop offset="1" stop-color="#70EE62"/>
</linearGradient>
<linearGradient id="paint12_linear_14993_314" x1="287.413" y1="42.6098" x2="287.261" y2="43.9083" gradientUnits="userSpaceOnUse">
<stop stop-color="#43E2C5"/>
<stop offset="1" stop-color="#70EE62"/>
</linearGradient>
<linearGradient id="paint13_linear_14993_314" x1="304.42" y1="47.991" x2="300.33" y2="51.5006" gradientUnits="userSpaceOnUse">
<stop stop-color="#43E2C5"/>
<stop offset="1" stop-color="#70EE62"/>
</linearGradient>
<linearGradient id="paint14_linear_14993_314" x1="311.037" y1="51.0792" x2="302.806" y2="59.875" gradientUnits="userSpaceOnUse">
<stop stop-color="#43E2C5"/>
<stop offset="1" stop-color="#70EE62"/>
</linearGradient>
<linearGradient id="paint15_linear_14993_314" x1="306.311" y1="19.3011" x2="298.08" y2="28.0969" gradientUnits="userSpaceOnUse">
<stop stop-color="#43E2C5"/>
<stop offset="1" stop-color="#70EE62"/>
</linearGradient>
<linearGradient id="paint16_linear_14993_314" x1="282.098" y1="39.1162" x2="273.866" y2="47.912" gradientUnits="userSpaceOnUse">
<stop stop-color="#43E2C5"/>
<stop offset="1" stop-color="#70EE62"/>
</linearGradient>
</defs>
</svg>
