<svg width="57" height="57" viewBox="0 0 57 57" fill="none" xmlns="http://www.w3.org/2000/svg">
<path d="M56.5 45.3C56.5 51.4856 51.4856 56.5 45.3 56.5L11.7 56.5C5.51441 56.5 0.500004 51.4856 0.500005 45.3L0.500008 11.7C0.500008 5.51441 5.51442 0.499999 11.7 0.5L45.3 0.500003C51.4856 0.500003 56.5 5.51442 56.5 11.7L56.5 45.3Z" fill="#111111" stroke="#6E6B91"/>
<path d="M26.5758 40.3416C28.8796 40.7198 31.2437 40.4173 33.3777 39.4712C35.5118 38.5251 37.3227 36.9767 38.5879 35.0161C39.8532 33.0556 40.5176 30.7685 40.4996 28.4358C40.4816 26.1031 39.782 23.8264 38.4866 21.8856M30.2903 16.6372C27.9959 16.2871 25.6492 16.6104 23.5353 17.5678C21.4213 18.5252 19.6312 20.0754 18.3823 22.0302C17.1335 23.9849 16.4797 26.26 16.5005 28.579C16.5212 30.898 17.2156 33.161 18.4992 35.0932M32.0874 28.4895C32.0874 30.4731 30.4781 32.0811 28.493 32.0811C26.5078 32.0811 24.8985 30.4731 24.8985 28.4895C24.8985 26.5059 26.5078 24.8979 28.493 24.8979C30.4781 24.8979 32.0874 26.5059 32.0874 28.4895ZM39.2763 20.1091C39.2763 21.4315 38.2035 22.5035 36.88 22.5035C35.5566 22.5035 34.4837 21.4315 34.4837 20.1091C34.4837 18.7867 35.5566 17.7147 36.88 17.7147C38.2035 17.7147 39.2763 18.7867 39.2763 20.1091ZM22.5022 36.8699C22.5022 38.1922 21.4293 39.2642 20.1059 39.2642C18.7824 39.2642 17.7096 38.1922 17.7096 36.8699C17.7096 35.5475 18.7824 34.4755 20.1059 34.4755C21.4293 34.4755 22.5022 35.5475 22.5022 36.8699Z" stroke="url(#paint0_linear_14967_1358)" stroke-width="2" stroke-linecap="round" stroke-linejoin="round"/>
<defs>
<linearGradient id="paint0_linear_14967_1358" x1="13.8208" y1="39.8206" x2="41.4663" y2="15.293" gradientUnits="userSpaceOnUse">
<stop offset="0.168669" stop-color="#00FE6B"/>
<stop offset="0.887092" stop-color="#00B7E2"/>
</linearGradient>
</defs>
</svg>
