<svg width="57" height="57" viewBox="0 0 57 57" fill="none" xmlns="http://www.w3.org/2000/svg">
<path d="M56.5 45.3C56.5 51.4856 51.4856 56.5 45.3 56.5L11.7 56.5C5.51441 56.5 0.500004 51.4856 0.500005 45.3L0.500008 11.7C0.500008 5.51441 5.51442 0.499999 11.7 0.5L45.3 0.500003C51.4856 0.500003 56.5 5.51442 56.5 11.7L56.5 45.3Z" fill="#111111" stroke="#6E6B91"/>
<path d="M19.1667 16.5V21.8333M37.8333 35.1667V40.5M16.5 19.1667H21.8333M35.1667 37.8333H40.5M28.5 16.5L25.9507 24.2507C25.8202 24.6473 25.5984 25.0078 25.3031 25.3031C25.0078 25.5984 24.6473 25.8202 24.2507 25.9507L16.5 28.5L24.2507 31.0493C24.6473 31.1798 25.0078 31.4016 25.3031 31.6969C25.5984 31.9922 25.8202 32.3527 25.9507 32.7493L28.5 40.5L31.0493 32.7493C31.1798 32.3527 31.4016 31.9922 31.6969 31.6969C31.9922 31.4016 32.3527 31.1798 32.7493 31.0493L40.5 28.5L32.7493 25.9507C32.3527 25.8202 31.9922 25.5984 31.6969 25.3031C31.4016 25.0078 31.1798 24.6473 31.0493 24.2507L28.5 16.5Z" stroke="url(#paint0_linear_14993_378)" stroke-width="2" stroke-linecap="round" stroke-linejoin="round"/>
<defs>
<linearGradient id="paint0_linear_14993_378" x1="11.3366" y1="20.3123" x2="43.5903" y2="41.3967" gradientUnits="userSpaceOnUse">
<stop offset="0.165259" stop-color="#26D6FF"/>
<stop offset="1" stop-color="#D77AFF"/>
</linearGradient>
</defs>
</svg>
