<svg width="57" height="57" viewBox="0 0 57 57" fill="none" xmlns="http://www.w3.org/2000/svg">
<path d="M56.5 45.3C56.5 51.4856 51.4856 56.5 45.3 56.5L11.7 56.5C5.51441 56.5 0.500004 51.4856 0.500005 45.3L0.500008 11.7C0.500008 5.51441 5.51442 0.499999 11.7 0.5L45.3 0.500003C51.4856 0.500003 56.5 5.51442 56.5 11.7L56.5 45.3Z" fill="#111111" stroke="#6E6B91"/>
<path d="M23.1667 27.1667L25.8334 29.8334L31.1667 24.5M40.5 40.5L34.7667 34.7667M37.8334 27.1667C37.8334 33.0577 33.0577 37.8334 27.1667 37.8334C21.2756 37.8334 16.5 33.0577 16.5 27.1667C16.5 21.2756 21.2756 16.5 27.1667 16.5C33.0577 16.5 37.8334 21.2756 37.8334 27.1667Z" stroke="url(#paint0_linear_14967_1343)" stroke-width="2" stroke-linecap="round" stroke-linejoin="round"/>
<defs>
<linearGradient id="paint0_linear_14967_1343" x1="13.8208" y1="39.8206" x2="41.4663" y2="15.293" gradientUnits="userSpaceOnUse">
<stop offset="0.168669" stop-color="#00FE6B"/>
<stop offset="0.887092" stop-color="#00B7E2"/>
</linearGradient>
</defs>
</svg>
