<svg width="57" height="57" viewBox="0 0 57 57" fill="none" xmlns="http://www.w3.org/2000/svg">
<path d="M56.5 45.3C56.5 51.4856 51.4856 56.5 45.3 56.5L11.7 56.5C5.51441 56.5 0.500004 51.4856 0.500005 45.3L0.500008 11.7C0.500008 5.51441 5.51442 0.499999 11.7 0.5L45.3 0.500003C51.4856 0.500003 56.5 5.51442 56.5 11.7L56.5 45.3Z" fill="#111111" stroke="#6E6B91"/>
<path d="M16.5 21.8333V19.1667C16.5 18.4594 16.781 17.7811 17.281 17.281C17.7811 16.781 18.4594 16.5 19.1667 16.5H21.8333M35.1667 16.5H37.8333C38.5406 16.5 39.2189 16.781 39.719 17.281C40.219 17.7811 40.5 18.4594 40.5 19.1667V21.8333M40.5 35.1667V37.8333C40.5 38.5406 40.219 39.2189 39.719 39.719C39.2189 40.219 38.5406 40.5 37.8333 40.5H35.1667M21.8333 40.5H19.1667C18.4594 40.5 17.7811 40.219 17.281 39.719C16.781 39.2189 16.5 38.5406 16.5 37.8333V35.1667M21.8333 23.1667H32.5M21.8333 28.5H35.1667M21.8333 33.8333H29.8333" stroke="url(#paint0_linear_14967_1361)" stroke-width="2" stroke-linecap="round" stroke-linejoin="round"/>
<defs>
<linearGradient id="paint0_linear_14967_1361" x1="13.8208" y1="39.8206" x2="41.4663" y2="15.293" gradientUnits="userSpaceOnUse">
<stop offset="0.168669" stop-color="#00FE6B"/>
<stop offset="0.887092" stop-color="#00B7E2"/>
</linearGradient>
</defs>
</svg>
