<svg width="64" height="71" viewBox="0 0 64 71" fill="none" xmlns="http://www.w3.org/2000/svg">
<path d="M28.1613 1.44201C30.3368 0.185997 33.0171 0.185997 35.1925 1.44201L59.3382 15.3825C61.5137 16.6385 62.8538 18.9597 62.8538 21.4718V49.3528C62.8538 51.8648 61.5137 54.186 59.3382 55.442L35.1925 69.3825C33.0171 70.6385 30.3368 70.6385 28.1613 69.3825L4.01562 55.442C1.84015 54.186 0.5 51.8648 0.5 49.3528V21.4718C0.5 18.9597 1.84015 16.6385 4.01562 15.3825L28.1613 1.44201Z" fill="#111111" stroke="#6E6B91"/>
<path d="M31.5002 35.6778C33.1571 35.6778 34.5002 34.3844 34.5002 32.7889C34.5002 31.1934 33.1571 29.9 31.5002 29.9C29.8433 29.9 28.5002 31.1934 28.5002 32.7889C28.5002 34.3844 29.8433 35.6778 31.5002 35.6778ZM31.5002 35.6778C32.7732 35.6778 33.9941 36.1648 34.8943 37.0316C35.7945 37.8985 36.3002 39.0741 36.3002 40.3H26.7002C26.7002 39.0741 27.2059 37.8985 28.1061 37.0316C29.0063 36.1648 30.2272 35.6778 31.5002 35.6778Z" stroke="url(#paint0_linear_14967_1073)" stroke-width="2" stroke-linecap="round" stroke-linejoin="round"/>
<path d="M19.5 28.8333V26.1667C19.5 25.4594 19.781 24.7811 20.281 24.281C20.7811 23.781 21.4594 23.5 22.1667 23.5H24.8333M38.1667 23.5H40.8333C41.5406 23.5 42.2189 23.781 42.719 24.281C43.219 24.7811 43.5 25.4594 43.5 26.1667V28.8333M43.5 42.1667V44.8333C43.5 45.5406 43.219 46.2189 42.719 46.719C42.2189 47.219 41.5406 47.5 40.8333 47.5H38.1667M24.8333 47.5H22.1667C21.4594 47.5 20.7811 47.219 20.281 46.719C19.781 46.2189 19.5 45.5406 19.5 44.8333V42.1667" stroke="url(#paint1_linear_14967_1073)" stroke-width="2" stroke-linecap="round" stroke-linejoin="round"/>
<defs>
<linearGradient id="paint0_linear_14967_1073" x1="25.6285" y1="40.0056" x2="37.4574" y2="30.3181" gradientUnits="userSpaceOnUse">
<stop offset="0.168669" stop-color="#00FE6B"/>
<stop offset="0.887092" stop-color="#00B7E2"/>
</linearGradient>
<linearGradient id="paint1_linear_14967_1073" x1="16.8208" y1="46.8206" x2="44.4663" y2="22.293" gradientUnits="userSpaceOnUse">
<stop offset="0.168669" stop-color="#00FE6B"/>
<stop offset="0.887092" stop-color="#00B7E2"/>
</linearGradient>
</defs>
</svg>
