<svg width="64" height="71" viewBox="0 0 64 71" fill="none" xmlns="http://www.w3.org/2000/svg">
<path d="M28.1613 1.44201C30.3368 0.185997 33.0171 0.185997 35.1925 1.44201L59.3382 15.3825C61.5137 16.6385 62.8538 18.9597 62.8538 21.4718V49.3528C62.8538 51.8648 61.5137 54.186 59.3382 55.442L35.1925 69.3825C33.0171 70.6385 30.3368 70.6385 28.1613 69.3825L4.01562 55.442C1.84015 54.186 0.5 51.8648 0.5 49.3528V21.4718C0.5 18.9597 1.84015 16.6385 4.01562 15.3825L28.1613 1.44201Z" fill="#111111" stroke="#6E6B91"/>
<path d="M28.8333 47.5V30.1667C28.8333 29.813 28.6929 29.4739 28.4428 29.2239C28.1928 28.9738 27.8536 28.8333 27.5 28.8333H20.8333C20.4797 28.8333 20.1406 28.9738 19.8905 29.2239C19.6405 29.4739 19.5 29.813 19.5 30.1667V46.1667C19.5 46.5203 19.6405 46.8594 19.8905 47.1095C20.1406 47.3595 20.4797 47.5 20.8333 47.5H36.8333C37.187 47.5 37.5261 47.3595 37.7761 47.1095C38.0262 46.8594 38.1667 46.5203 38.1667 46.1667V39.5C38.1667 39.1464 38.0262 38.8072 37.7761 38.5572C37.5261 38.3071 37.187 38.1667 36.8333 38.1667H19.5M35.5 23.5H42.1667C42.903 23.5 43.5 24.097 43.5 24.8333V31.5C43.5 32.2364 42.903 32.8333 42.1667 32.8333H35.5C34.7636 32.8333 34.1667 32.2364 34.1667 31.5V24.8333C34.1667 24.097 34.7636 23.5 35.5 23.5Z" stroke="url(#paint0_linear_14967_1078)" stroke-width="2" stroke-linecap="round" stroke-linejoin="round"/>
<defs>
<linearGradient id="paint0_linear_14967_1078" x1="14.3366" y1="27.3123" x2="46.5903" y2="48.3967" gradientUnits="userSpaceOnUse">
<stop offset="0.165259" stop-color="#26D6FF"/>
<stop offset="1" stop-color="#D77AFF"/>
</linearGradient>
</defs>
</svg>
