<svg width="40" height="40" viewBox="0 0 40 40" fill="none" xmlns="http://www.w3.org/2000/svg">
<rect x="39.75" y="39.75" width="39.5" height="39.5" rx="7.75" transform="rotate(-180 39.75 39.75)" fill="#111111" stroke="url(#paint0_linear_14490_2129)" stroke-width="0.5"/>
<path d="M12.0513 24.8719C10.5128 26.1642 10 30 10 30C10 30 13.8359 29.4872 15.1282 27.9488C15.8564 27.0872 15.8462 25.7642 15.0359 24.9642C14.6372 24.5837 14.1121 24.3638 13.5613 24.3468C13.0104 24.3298 12.4727 24.5167 12.0513 24.8719Z" fill="url(#paint1_linear_14490_2129)"/>
<path d="M19.7436 23.3334L16.6667 20.2565C17.2125 18.8405 17.8997 17.4833 18.7179 16.2053C19.913 14.2945 21.577 12.7213 23.5518 11.6352C25.5265 10.5491 27.7463 9.98628 30 10.0003C30 12.79 29.2 17.6924 23.8462 21.2821C22.5507 22.1013 21.1763 22.7885 19.7436 23.3334Z" fill="url(#paint2_linear_14490_2129)"/>
<path d="M16.6667 20.2565L11.5385 20.2565C11.5385 20.2565 12.1026 17.1489 13.5897 16.154C15.2513 15.0463 18.7179 16.154 18.7179 16.154" fill="url(#paint3_linear_14490_2129)"/>
<path d="M19.7436 23.3334V28.4615C19.7436 28.4615 22.8513 27.8974 23.8462 26.4102C24.9538 24.7487 23.8462 21.2821 23.8462 21.2821" fill="url(#paint4_linear_14490_2129)"/>
<path d="M19.7436 23.3334L16.6667 20.2565M19.7436 23.3334C21.1763 22.7885 22.5507 22.1013 23.8462 21.2821M19.7436 23.3334V28.4615C19.7436 28.4615 22.8513 27.8974 23.8462 26.4102C24.9538 24.7487 23.8462 21.2821 23.8462 21.2821M16.6667 20.2565C17.2125 18.8405 17.8997 17.4833 18.7179 16.2053C19.913 14.2945 21.577 12.7213 23.5518 11.6352C25.5265 10.5491 27.7463 9.98628 30 10.0003C30 12.79 29.2 17.6924 23.8462 21.2821M16.6667 20.2565L11.5385 20.2565C11.5385 20.2565 12.1026 17.1489 13.5897 16.154C15.2513 15.0463 18.7179 16.154 18.7179 16.154M12.0513 24.8719C10.5128 26.1642 10 30 10 30C10 30 13.8359 29.4872 15.1282 27.9488C15.8564 27.0872 15.8462 25.7642 15.0359 24.9642C14.6372 24.5837 14.1121 24.3638 13.5613 24.3468C13.0104 24.3298 12.4727 24.5167 12.0513 24.8719Z" stroke="#1A1A1A" stroke-linecap="round" stroke-linejoin="round"/>
<defs>
<linearGradient id="paint0_linear_14490_2129" x1="47.513" y1="40" x2="78.1655" y2="78.7947" gradientUnits="userSpaceOnUse">
<stop stop-color="#FFA5FF"/>
<stop offset="1" stop-color="#926FF0"/>
</linearGradient>
<linearGradient id="paint1_linear_14490_2129" x1="13.7565" y1="10" x2="29.0827" y2="29.3973" gradientUnits="userSpaceOnUse">
<stop stop-color="#FFA5FF"/>
<stop offset="1" stop-color="#926FF0"/>
</linearGradient>
<linearGradient id="paint2_linear_14490_2129" x1="13.7565" y1="10" x2="29.0827" y2="29.3973" gradientUnits="userSpaceOnUse">
<stop stop-color="#FFA5FF"/>
<stop offset="1" stop-color="#926FF0"/>
</linearGradient>
<linearGradient id="paint3_linear_14490_2129" x1="13.7565" y1="10" x2="29.0827" y2="29.3973" gradientUnits="userSpaceOnUse">
<stop stop-color="#FFA5FF"/>
<stop offset="1" stop-color="#926FF0"/>
</linearGradient>
<linearGradient id="paint4_linear_14490_2129" x1="13.7565" y1="10" x2="29.0827" y2="29.3973" gradientUnits="userSpaceOnUse">
<stop stop-color="#FFA5FF"/>
<stop offset="1" stop-color="#926FF0"/>
</linearGradient>
</defs>
</svg>
