<svg width="40" height="40" viewBox="0 0 40 40" fill="none" xmlns="http://www.w3.org/2000/svg">
<rect x="39.75" y="39.75" width="39.5" height="39.5" rx="7.75" transform="rotate(-180 39.75 39.75)" fill="#111111" stroke="#6E6B91" stroke-width="0.5"/>
<path d="M16.6667 10H11.1111C10.4975 10 10 10.4975 10 11.1111V18.8889C10 19.5025 10.4975 20 11.1111 20H16.6667C17.2803 20 17.7778 19.5025 17.7778 18.8889V11.1111C17.7778 10.4975 17.2803 10 16.6667 10Z" fill="#6E6B91"/>
<path d="M28.8889 10H23.3333C22.7197 10 22.2222 10.4975 22.2222 11.1111V14.4444C22.2222 15.0581 22.7197 15.5556 23.3333 15.5556H28.8889C29.5025 15.5556 30 15.0581 30 14.4444V11.1111C30 10.4975 29.5025 10 28.8889 10Z" fill="#6E6B91"/>
<path d="M28.8889 20H23.3333C22.7197 20 22.2222 20.4975 22.2222 21.1111V28.8889C22.2222 29.5025 22.7197 30 23.3333 30H28.8889C29.5025 30 30 29.5025 30 28.8889V21.1111C30 20.4975 29.5025 20 28.8889 20Z" fill="#6E6B91"/>
<path d="M16.6667 24.4444H11.1111C10.4975 24.4444 10 24.9419 10 25.5556V28.8889C10 29.5025 10.4975 30 11.1111 30H16.6667C17.2803 30 17.7778 29.5025 17.7778 28.8889V25.5556C17.7778 24.9419 17.2803 24.4444 16.6667 24.4444Z" fill="#6E6B91"/>
<path d="M16.6667 10H11.1111C10.4975 10 10 10.4975 10 11.1111V18.8889C10 19.5025 10.4975 20 11.1111 20H16.6667C17.2803 20 17.7778 19.5025 17.7778 18.8889V11.1111C17.7778 10.4975 17.2803 10 16.6667 10Z" stroke="#1A1A1A" stroke-linecap="round" stroke-linejoin="round"/>
<path d="M28.8889 10H23.3333C22.7197 10 22.2222 10.4975 22.2222 11.1111V14.4444C22.2222 15.0581 22.7197 15.5556 23.3333 15.5556H28.8889C29.5025 15.5556 30 15.0581 30 14.4444V11.1111C30 10.4975 29.5025 10 28.8889 10Z" stroke="#1A1A1A" stroke-linecap="round" stroke-linejoin="round"/>
<path d="M28.8889 20H23.3333C22.7197 20 22.2222 20.4975 22.2222 21.1111V28.8889C22.2222 29.5025 22.7197 30 23.3333 30H28.8889C29.5025 30 30 29.5025 30 28.8889V21.1111C30 20.4975 29.5025 20 28.8889 20Z" stroke="#1A1A1A" stroke-linecap="round" stroke-linejoin="round"/>
<path d="M16.6667 24.4444H11.1111C10.4975 24.4444 10 24.9419 10 25.5556V28.8889C10 29.5025 10.4975 30 11.1111 30H16.6667C17.2803 30 17.7778 29.5025 17.7778 28.8889V25.5556C17.7778 24.9419 17.2803 24.4444 16.6667 24.4444Z" stroke="#1A1A1A" stroke-linecap="round" stroke-linejoin="round"/>
</svg>
