<svg width="30" height="30" viewBox="0 0 30 30" fill="none" xmlns="http://www.w3.org/2000/svg">
<rect x="30" y="30" width="30" height="30" rx="5" transform="rotate(-180 30 30)" fill="#111111"/>
<path d="M20.9258 8.3335H17.2221C16.813 8.3335 16.4814 8.66514 16.4814 9.07424V12.7779C16.4814 13.187 16.813 13.5187 17.2221 13.5187H20.9258C21.3349 13.5187 21.6666 13.187 21.6666 12.7779V9.07424C21.6666 8.66514 21.3349 8.3335 20.9258 8.3335Z" fill="url(#paint0_linear_14124_137)"/>
<path d="M13.5184 21.6668V12.0372C13.5184 11.8407 13.4404 11.6523 13.3015 11.5134C13.1626 11.3745 12.9742 11.2965 12.7777 11.2965H9.07399C8.87754 11.2965 8.68913 11.3745 8.55021 11.5134C8.41129 11.6523 8.33325 11.8407 8.33325 12.0372V20.9261C8.33325 21.1225 8.41129 21.311 8.55021 21.4499C8.68913 21.5888 8.87754 21.6668 9.07399 21.6668H17.9629C18.1593 21.6668 18.3477 21.5888 18.4867 21.4499C18.6256 21.311 18.7036 21.1225 18.7036 20.9261V17.2224C18.7036 17.0259 18.6256 16.8375 18.4867 16.6986C18.3477 16.5597 18.1593 16.4816 17.9629 16.4816H8.33325" fill="url(#paint1_linear_14124_137)"/>
<path d="M13.5184 21.6668V12.0372C13.5184 11.8407 13.4404 11.6523 13.3015 11.5134C13.1626 11.3745 12.9742 11.2965 12.7777 11.2965H9.07399C8.87754 11.2965 8.68913 11.3745 8.55021 11.5134C8.41129 11.6523 8.33325 11.8407 8.33325 12.0372V20.9261C8.33325 21.1225 8.41129 21.311 8.55021 21.4499C8.68913 21.5888 8.87754 21.6668 9.07399 21.6668H17.9629C18.1593 21.6668 18.3477 21.5888 18.4867 21.4499C18.6256 21.311 18.7036 21.1225 18.7036 20.9261V17.2224C18.7036 17.0259 18.6256 16.8375 18.4867 16.6986C18.3477 16.5597 18.1593 16.4816 17.9629 16.4816H8.33325M17.2221 8.3335H20.9258C21.3349 8.3335 21.6666 8.66514 21.6666 9.07424V12.7779C21.6666 13.187 21.3349 13.5187 20.9258 13.5187H17.2221C16.813 13.5187 16.4814 13.187 16.4814 12.7779V9.07424C16.4814 8.66514 16.813 8.3335 17.2221 8.3335Z" stroke="#1A1A1A" stroke-linecap="round" stroke-linejoin="round"/>
<defs>
<linearGradient id="paint0_linear_14124_137" x1="21.6666" y1="7.20016" x2="8.33325" y2="21.6668" gradientUnits="userSpaceOnUse">
<stop stop-color="#43E2C5"/>
<stop offset="1" stop-color="#70EE62"/>
</linearGradient>
<linearGradient id="paint1_linear_14124_137" x1="21.6666" y1="7.20016" x2="8.33325" y2="21.6668" gradientUnits="userSpaceOnUse">
<stop stop-color="#43E2C5"/>
<stop offset="1" stop-color="#70EE62"/>
</linearGradient>
</defs>
</svg>
