<svg width="70" height="70" viewBox="0 0 70 70" fill="none" xmlns="http://www.w3.org/2000/svg">
<path d="M68.6001 55.1601C68.6001 62.5828 62.5828 68.6001 55.1601 68.6001L14.0401 68.6001C6.61738 68.6001 0.600091 62.5828 0.600091 55.1601L0.600095 14.0401C0.600095 6.6174 6.61739 0.6001 14.0401 0.600101L55.1601 0.600104C62.5828 0.600105 68.6001 6.6174 68.6001 14.0401L68.6001 55.1601Z" fill="#111111" stroke="#6E6B91" stroke-width="1.2"/>
<path d="M31.2668 49.6001V27.9334C31.2668 27.4914 31.0912 27.0675 30.7786 26.7549C30.466 26.4424 30.0421 26.2668 29.6001 26.2668H21.2668C20.8247 26.2668 20.4008 26.4424 20.0883 26.7549C19.7757 27.0675 19.6001 27.4914 19.6001 27.9334V47.9334C19.6001 48.3755 19.7757 48.7994 20.0883 49.1119C20.4008 49.4245 20.8247 49.6001 21.2668 49.6001H41.2668C41.7088 49.6001 42.1327 49.4245 42.4453 49.1119C42.7578 48.7994 42.9334 48.3755 42.9334 47.9334V39.6001C42.9334 39.1581 42.7578 38.7341 42.4453 38.4216C42.1327 38.109 41.7088 37.9334 41.2668 37.9334H19.6001M39.6001 19.6001H47.9334C48.8539 19.6001 49.6001 20.3463 49.6001 21.2668V29.6001C49.6001 30.5206 48.8539 31.2668 47.9334 31.2668H39.6001C38.6796 31.2668 37.9334 30.5206 37.9334 29.6001V21.2668C37.9334 20.3463 38.6796 19.6001 39.6001 19.6001Z" stroke="url(#paint0_linear_15538_1303)" stroke-width="3" stroke-linecap="round" stroke-linejoin="round"/>
<defs>
<linearGradient id="paint0_linear_15538_1303" x1="49.6001" y1="17.0501" x2="19.6001" y2="49.6001" gradientUnits="userSpaceOnUse">
<stop stop-color="#43E2C5"/>
<stop offset="1" stop-color="#70EE62"/>
</linearGradient>
</defs>
</svg>
