<svg width="117" height="20" viewBox="0 0 117 20" fill="none" xmlns="http://www.w3.org/2000/svg">
<path fill-rule="evenodd" clip-rule="evenodd" d="M113.382 19.7222C112.187 19.7222 111.159 19.533 110.297 19.1545C109.435 18.776 108.774 18.1829 108.314 17.375C107.855 16.5671 107.625 15.5255 107.625 14.25V8.92014H105.441C105.244 8.92014 105.079 8.85301 104.944 8.71875C104.81 8.58449 104.743 8.41898 104.743 8.22222V5.9757C104.743 5.77893 104.81 5.61343 104.944 5.47917C105.079 5.34491 105.244 5.27778 105.441 5.27778H107.625V0.697916C107.625 0.501156 107.692 0.335649 107.826 0.20139C107.961 0.0671286 108.126 0 108.323 0H111.538C111.735 0 111.9 0.0671286 112.035 0.20139C112.169 0.335649 112.236 0.501156 112.236 0.697916V5.27778H115.715C115.912 5.27778 116.078 5.34491 116.212 5.47917C116.346 5.61343 116.413 5.77893 116.413 5.9757V8.22222C116.413 8.41898 116.346 8.58449 116.212 8.71875C116.078 8.85301 115.912 8.92014 115.715 8.92014H112.236V13.8611C112.236 14.4954 112.358 14.9948 112.601 15.3594C112.844 15.724 113.249 15.9062 113.816 15.9062H115.958C116.155 15.9062 116.321 15.9734 116.455 16.1076C116.589 16.2419 116.656 16.4074 116.656 16.6042V19.0243C116.656 19.2211 116.589 19.3866 116.455 19.5208C116.321 19.6551 116.155 19.7222 115.958 19.7222H113.382ZM67.0833 19.7222C66.8866 19.7222 66.7211 19.6551 66.5868 19.5208C66.4526 19.3866 66.3854 19.2211 66.3854 19.0243V0.986112C66.3854 0.782407 66.4526 0.613427 66.5868 0.479166C66.7211 0.344907 66.8866 0.277778 67.0833 0.277778H75.566C77.1632 0.277778 78.4693 0.500576 79.4844 0.94618C80.4994 1.39178 81.2506 2.0243 81.7378 2.84375C82.2251 3.6632 82.4688 4.64467 82.4688 5.7882C82.4688 6.45718 82.3438 7.04514 82.0938 7.55208C81.8438 8.05903 81.5405 8.47685 81.184 8.80555C80.8275 9.13426 80.4873 9.37963 80.1632 9.54167C80.8808 9.86574 81.5122 10.4091 82.0573 11.1719C82.6024 11.9346 82.875 12.8241 82.875 13.8403C82.875 15.0556 82.6024 16.1018 82.0573 16.9792C81.5122 17.8565 80.7164 18.533 79.6701 19.0087C78.6238 19.4844 77.338 19.7222 75.8125 19.7222H67.0833ZM71.3819 16.1111H75.257C76.0602 16.1111 76.6632 15.8802 77.066 15.4184C77.4688 14.9566 77.6701 14.4248 77.6701 13.8229C77.6701 13.191 77.463 12.6516 77.0486 12.2049C76.6343 11.7581 76.037 11.5347 75.257 11.5347H71.3819V16.1111ZM71.3819 8.01042H74.9965C75.765 8.01042 76.338 7.81192 76.7153 7.41493C77.0926 7.01794 77.2812 6.52199 77.2812 5.92708C77.2812 5.33217 77.0926 4.84375 76.7153 4.46181C76.338 4.07986 75.765 3.88889 74.9965 3.88889H71.3819V8.01042ZM57.2188 20C56.0243 20 55.0046 19.8675 54.1597 19.6024C53.3148 19.3374 52.6267 19.0069 52.0955 18.6111C51.5642 18.2153 51.1719 17.8096 50.9184 17.3941C50.6649 16.9786 50.5289 16.6204 50.5104 16.3194C50.4919 16.1157 50.5538 15.9485 50.6962 15.8177C50.8385 15.6869 50.9919 15.6215 51.1562 15.6215H54.3333C54.3866 15.6215 54.4346 15.6285 54.4774 15.6424C54.5203 15.6562 54.5718 15.6944 54.6319 15.7569C54.8727 15.8866 55.1128 16.0486 55.3524 16.2431C55.592 16.4375 55.8704 16.6065 56.1875 16.75C56.5046 16.8935 56.8889 16.9653 57.3403 16.9653C57.8495 16.9653 58.283 16.8623 58.6406 16.6562C58.9983 16.4502 59.1771 16.1505 59.1771 15.7569C59.1771 15.4583 59.0914 15.2095 58.9201 15.0104C58.7488 14.8113 58.4103 14.6233 57.9045 14.4462C57.3987 14.2691 56.6377 14.0799 55.6215 13.8785C54.6516 13.6701 53.8073 13.3831 53.0885 13.0174C52.3698 12.6516 51.8154 12.1765 51.4253 11.592C51.0353 11.0075 50.8403 10.3032 50.8403 9.47917C50.8403 8.73842 51.0775 8.02604 51.5521 7.34201C52.0266 6.65798 52.728 6.09664 53.6562 5.65799C54.5845 5.21933 55.7315 5 57.0972 5C58.1551 5 59.0816 5.12616 59.8767 5.37847C60.6719 5.63079 61.3397 5.94849 61.8802 6.3316C62.4207 6.7147 62.8316 7.11342 63.1128 7.52778C63.3941 7.94213 63.544 8.30903 63.5625 8.62847C63.581 8.82523 63.5255 8.99074 63.3958 9.125C63.2662 9.25926 63.1181 9.32639 62.9514 9.32639H60.0521C59.9734 9.32639 59.8993 9.31424 59.8299 9.28993C59.7604 9.26562 59.7002 9.23264 59.6493 9.19097C59.4178 9.07986 59.1898 8.93229 58.9653 8.74826C58.7407 8.56424 58.4832 8.39931 58.1927 8.25347C57.9022 8.10764 57.5312 8.03472 57.0799 8.03472C56.5822 8.03472 56.195 8.14583 55.9184 8.36806C55.6418 8.59028 55.5035 8.87384 55.5035 9.21875C55.5035 9.46412 55.5799 9.6875 55.7326 9.88889C55.8854 10.0903 56.2095 10.2755 56.7049 10.4444C57.2002 10.6134 57.9676 10.7963 59.0069 10.9931C60.2847 11.206 61.3009 11.5399 62.0556 11.9948C62.8102 12.4497 63.3484 12.9768 63.6701 13.5764C63.9919 14.1759 64.1528 14.8044 64.1528 15.4618C64.1528 16.353 63.8866 17.1424 63.3542 17.8299C62.8218 18.5174 62.0394 19.0509 61.0069 19.4306C59.9745 19.8102 58.7118 20 57.2188 20ZM42.0903 20C40.7245 20 39.5127 19.7512 38.4549 19.2535C37.397 18.7558 36.5596 18.0313 35.9427 17.0799C35.3258 16.1285 34.9873 14.978 34.9271 13.6285C34.9086 13.3391 34.8993 12.9688 34.8993 12.5174C34.8993 12.066 34.9086 11.6898 34.9271 11.3889C34.9873 10.0324 35.3229 8.87732 35.934 7.92361C36.5451 6.9699 37.3825 6.24422 38.4462 5.74653C39.5098 5.24884 40.7245 5 42.0903 5C43.3727 5 44.4687 5.18055 45.3785 5.54167C46.2882 5.90278 47.0295 6.35301 47.6024 6.89236C48.1754 7.43172 48.6024 7.98379 48.8837 8.54861C49.1649 9.11343 49.3148 9.60532 49.3333 10.0243C49.3519 10.2211 49.2876 10.3866 49.1406 10.5208C48.9936 10.6551 48.8252 10.7222 48.6354 10.7222H45.1042C44.9074 10.7222 44.7558 10.6748 44.6493 10.5799C44.5428 10.485 44.4433 10.3438 44.3507 10.1562C44.1238 9.59838 43.8403 9.19502 43.5 8.94618C43.1597 8.69734 42.7188 8.57292 42.1771 8.57292C41.4387 8.57292 40.8686 8.81539 40.467 9.30035C40.0654 9.7853 39.8484 10.5278 39.816 11.5278C39.7905 12.2685 39.7905 12.9225 39.816 13.4896C39.86 14.5127 40.0799 15.2581 40.4757 15.7257C40.8715 16.1933 41.4387 16.4271 42.1771 16.4271C42.7535 16.4271 43.206 16.3027 43.5347 16.0538C43.8634 15.805 44.1354 15.4016 44.3507 14.8438C44.4317 14.6562 44.5284 14.515 44.6406 14.4201C44.7529 14.3252 44.9074 14.2778 45.1042 14.2778H48.6354C48.8252 14.2778 48.9936 14.3449 49.1406 14.4792C49.2876 14.6134 49.3519 14.7789 49.3333 14.9757C49.3148 15.2789 49.2228 15.6429 49.0573 16.0677C48.8918 16.4925 48.6331 16.934 48.2812 17.3924C47.9294 17.8507 47.4734 18.2772 46.9132 18.6719C46.353 19.0666 45.673 19.3866 44.8733 19.6319C44.0735 19.8773 43.1458 20 42.0903 20ZM25.8889 20C24.3241 20 23.0087 19.7512 21.9427 19.2535C20.8767 18.7558 20.0613 18.037 19.4965 17.0972C18.9317 16.1574 18.6134 15.0428 18.5417 13.7535C18.5231 13.3831 18.5139 12.9624 18.5139 12.4913C18.5139 12.0203 18.5231 11.6053 18.5417 11.2465C18.6134 9.93865 18.9462 8.81945 19.5399 7.88889C20.1337 6.95833 20.9635 6.24422 22.0295 5.74653C23.0955 5.24884 24.3819 5 25.8889 5C27.3958 5 28.6823 5.24884 29.7483 5.74653C30.8142 6.24422 31.6441 6.95833 32.2378 7.88889C32.8316 8.81945 33.1644 9.93865 33.2361 11.2465C33.2662 11.6053 33.2812 12.0203 33.2812 12.4913C33.2812 12.9624 33.2662 13.3831 33.2361 13.7535C33.1644 15.0428 32.8461 16.1574 32.2812 17.0972C31.7164 18.037 30.901 18.7558 29.8351 19.2535C28.7691 19.7512 27.4537 20 25.8889 20ZM25.8889 16.6181C26.7107 16.6181 27.3148 16.3663 27.7014 15.8628C28.088 15.3594 28.3032 14.61 28.3472 13.6146C28.3657 13.3368 28.375 12.9653 28.375 12.5C28.375 12.0347 28.3657 11.6632 28.3472 11.3854C28.3032 10.4062 28.088 9.66088 27.7014 9.14931C27.3148 8.63773 26.7107 8.38194 25.8889 8.38194C25.0787 8.38194 24.4774 8.63773 24.0851 9.14931C23.6927 9.66088 23.4745 10.4062 23.4306 11.3854C23.412 11.6632 23.4028 12.0347 23.4028 12.5C23.4028 12.9653 23.412 13.3368 23.4306 13.6146C23.4745 14.61 23.6927 15.3594 24.0851 15.8628C24.4774 16.3663 25.0787 16.6181 25.8889 16.6181ZM0.697917 19.7222C0.501156 19.7222 0.335649 19.6551 0.201389 19.5208C0.0671291 19.3866 0 19.2211 0 19.0243V0.986112C0 0.782407 0.0671291 0.613427 0.201389 0.479166C0.335649 0.344907 0.501156 0.277778 0.697917 0.277778H7.91667C9.74075 0.277778 11.2893 0.567706 12.5625 1.14757C13.8357 1.72743 14.8183 2.58043 15.5104 3.7066C16.2025 4.83276 16.5694 6.21874 16.6111 7.86458C16.6412 8.67477 16.6562 9.38773 16.6562 10.0035C16.6562 10.6192 16.6412 11.3206 16.6111 12.1076C16.5509 13.8345 16.191 15.2621 15.5312 16.3906C14.8715 17.5191 13.9173 18.3565 12.6684 18.9028C11.4196 19.4491 9.88195 19.7222 8.05556 19.7222H0.697917ZM4.99653 15.7118H7.91667C8.72686 15.7118 9.39467 15.588 9.92014 15.3403C10.4456 15.0926 10.8432 14.6997 11.1128 14.1615C11.3825 13.6233 11.5266 12.9213 11.5451 12.0556C11.5752 11.5116 11.5932 11.0284 11.599 10.6059C11.6047 10.1834 11.6047 9.75984 11.599 9.33507C11.5932 8.9103 11.5752 8.4375 11.5451 7.91667C11.5081 6.66666 11.1777 5.74942 10.5538 5.16493C9.92997 4.58044 9.00464 4.28819 7.77778 4.28819H4.99653V15.7118Z" fill="#B9C8DE"/>
<path d="M94.4924 1.56641C95.0472 1.56641 95.4953 2.07434 95.4953 2.70305V4.97633H99.2563C100.504 4.97633 101.513 6.12007 101.513 7.53377V17.1952C101.513 18.6089 100.504 19.7526 99.2563 19.7526H89.7286C88.4812 19.7526 87.472 18.6089 87.472 17.1952V7.53377C87.472 6.12007 88.4812 4.97633 89.7286 4.97633H93.4895V2.70305C93.4895 2.07434 93.9377 1.56641 94.4924 1.56641ZM90.9822 15.2061C90.7064 15.2061 90.4808 15.4618 90.4808 15.7744C90.4808 16.087 90.7064 16.3427 90.9822 16.3427H91.9851C92.2609 16.3427 92.4866 16.087 92.4866 15.7744C92.4866 15.4618 92.2609 15.2061 91.9851 15.2061H90.9822ZM93.991 15.8078C93.7152 15.8078 93.4895 16.0636 93.4895 16.3762C93.4895 16.6887 93.7152 16.9445 93.991 16.9445H94.9939C95.2697 16.9445 95.4953 16.6887 95.4953 16.3762C95.4953 16.0636 95.2697 15.8078 94.9939 15.8078H93.991ZM96.9997 15.2061C96.7239 15.2061 96.4983 15.4618 96.4983 15.7744C96.4983 16.087 96.7239 16.3427 96.9997 16.3427H98.0026C98.2784 16.3427 98.5041 16.087 98.5041 15.7744C98.5041 15.4618 98.2784 15.2061 98.0026 15.2061H96.9997ZM93.0883 10.6595C93.0883 9.87484 92.3766 9.23873 91.6843 9.23873C90.9919 9.23873 90.23 9.87484 90.23 10.6595C90.23 11.4442 90.9919 12.0803 91.6843 12.0803C92.3766 12.0803 93.0883 11.4442 93.0883 10.6595ZM97.3675 12.0803C98.0598 12.0803 98.7548 11.4442 98.7548 10.6595C98.7548 9.87484 98.0598 9.23873 97.3675 9.23873C96.6751 9.23873 95.9634 9.87484 95.9634 10.6595C95.9634 11.4442 96.6751 12.0803 97.3675 12.0803ZM85.9676 9.52289H86.4691V16.3427H85.9676C85.1371 16.3427 84.4633 15.579 84.4633 14.6378V11.2278C84.4633 10.2866 85.1371 9.52289 85.9676 9.52289ZM103.017 9.52289C103.848 9.52289 104.522 10.2866 104.522 11.2278V14.6378C104.522 15.579 103.848 16.3427 103.017 16.3427H102.516V9.52289H103.017Z" fill="#B9C8DE"/>
</svg>
