<svg width="64" height="72" viewBox="0 0 64 72" fill="none" xmlns="http://www.w3.org/2000/svg">
<path d="M32.4462 7.88397C32.1368 7.70534 31.7556 7.70534 31.4462 7.88397L27.25 10.3066C26.9406 10.4853 26.75 10.8154 26.75 11.1726V16.0179C26.75 16.3752 26.9406 16.7053 27.25 16.884L31.4462 19.3066C31.7556 19.4853 32.1368 19.4853 32.4462 19.3066L36.6423 16.884C36.9517 16.7053 37.1423 16.3752 37.1423 16.0179V11.1726C37.1423 10.8154 36.9517 10.4853 36.6423 10.3066L32.4462 7.88397Z" fill="url(#paint0_linear_14490_2041)"/>
<path d="M38.4462 30.3066C38.1368 30.4853 37.7556 30.4853 37.4462 30.3066L33.25 27.884C32.9406 27.7053 32.75 27.3752 32.75 27.018V22.1726C32.75 21.8154 32.9406 21.4853 33.25 21.3066L37.4462 18.884C37.7556 18.7053 38.1368 18.7053 38.4462 18.884L42.6423 21.3066C42.9517 21.4853 43.1423 21.8154 43.1423 22.1726V27.018C43.1423 27.3752 42.9517 27.7053 42.6423 27.884L38.4462 30.3066Z" fill="url(#paint1_linear_14490_2041)"/>
<path d="M37.4462 52.3066C37.7556 52.4853 38.1368 52.4853 38.4462 52.3066L42.6423 49.884C42.9517 49.7053 43.1423 49.3752 43.1423 49.0179V44.1726C43.1423 43.8154 42.9517 43.4853 42.6423 43.3066L38.4462 40.884C38.1368 40.7053 37.7556 40.7053 37.4462 40.884L33.25 43.3066C32.9406 43.4853 32.75 43.8154 32.75 44.1726V49.0179C32.75 49.3752 32.9406 49.7053 33.25 49.884L37.4462 52.3066Z" fill="url(#paint2_linear_14490_2041)"/>
<path d="M14.4462 30.3066C14.1368 30.4853 13.7556 30.4853 13.4462 30.3066L9.25003 27.884C8.94063 27.7053 8.75003 27.3752 8.75003 27.018V22.1726C8.75003 21.8154 8.94063 21.4853 9.25003 21.3066L13.4462 18.884C13.7556 18.7053 14.1368 18.7053 14.4462 18.884L18.6423 21.3066C18.9517 21.4853 19.1423 21.8154 19.1423 22.1726V27.018C19.1423 27.3752 18.9517 27.7053 18.6423 27.884L14.4462 30.3066Z" fill="url(#paint3_linear_14490_2041)"/>
<path d="M14.4462 52.3066C14.1368 52.4853 13.7556 52.4853 13.4462 52.3066L9.25003 49.884C8.94063 49.7053 8.75003 49.3752 8.75003 49.0179V44.1726C8.75003 43.8154 8.94063 43.4853 9.25003 43.3066L13.4462 40.884C13.7556 40.7053 14.1368 40.7053 14.4462 40.884L18.6423 43.3066C18.9517 43.4853 19.1423 43.8154 19.1423 44.1726V49.0179C19.1423 49.3752 18.9517 49.7053 18.6423 49.884L14.4462 52.3066Z" fill="url(#paint4_linear_14490_2041)"/>
<path d="M25.4462 18.884C25.7556 18.7053 26.1368 18.7053 26.4462 18.884L30.6423 21.3066C30.9517 21.4853 31.1423 21.8154 31.1423 22.1726V27.018C31.1423 27.3752 30.9517 27.7053 30.6423 27.884L26.4462 30.3066C26.1368 30.4853 25.7556 30.4853 25.4462 30.3066L21.25 27.884C20.9406 27.7053 20.75 27.3752 20.75 27.018V22.1726C20.75 21.8154 20.9406 21.4853 21.25 21.3066L25.4462 18.884Z" fill="url(#paint5_linear_14490_2041)"/>
<path d="M25.4462 40.884C25.7556 40.7053 26.1368 40.7053 26.4462 40.884L30.6423 43.3066C30.9517 43.4853 31.1423 43.8154 31.1423 44.1726V49.0179C31.1423 49.3752 30.9517 49.7053 30.6423 49.884L26.4462 52.3066C26.1368 52.4853 25.7556 52.4853 25.4462 52.3066L21.25 49.884C20.9406 49.7053 20.75 49.3752 20.75 49.0179V44.1726C20.75 43.8154 20.9406 43.4853 21.25 43.3066L25.4462 40.884Z" fill="url(#paint6_linear_14490_2041)"/>
<path d="M49.4462 18.884C49.7556 18.7053 50.1368 18.7053 50.4462 18.884L54.6423 21.3066C54.9517 21.4853 55.1423 21.8154 55.1423 22.1726V27.018C55.1423 27.3752 54.9517 27.7053 54.6423 27.884L50.4462 30.3066C50.1368 30.4853 49.7556 30.4853 49.4462 30.3066L45.25 27.884C44.9406 27.7053 44.75 27.3752 44.75 27.018V22.1726C44.75 21.8154 44.9406 21.4853 45.25 21.3066L49.4462 18.884Z" fill="url(#paint7_linear_14490_2041)"/>
<path d="M50.4462 52.3066C50.1368 52.4853 49.7556 52.4853 49.4462 52.3066L45.25 49.884C44.9406 49.7053 44.75 49.3752 44.75 49.0179V44.1726C44.75 43.8154 44.9406 43.4853 45.25 43.3066L49.4462 40.884C49.7556 40.7053 50.1368 40.7053 50.4462 40.884L54.6423 43.3066C54.9517 43.4853 55.1423 43.8154 55.1423 44.1726V49.0179C55.1423 49.3752 54.9517 49.7053 54.6423 49.884L50.4462 52.3066Z" fill="url(#paint8_linear_14490_2041)"/>
<path d="M32.4462 51.884C32.1368 51.7053 31.7556 51.7053 31.4462 51.884L27.25 54.3066C26.9406 54.4853 26.75 54.8154 26.75 55.1726V60.0179C26.75 60.3752 26.9406 60.7053 27.25 60.884L31.4462 63.3066C31.7556 63.4853 32.1368 63.4853 32.4462 63.3066L36.6423 60.884C36.9517 60.7053 37.1423 60.3752 37.1423 60.0179V55.1726C37.1423 54.8154 36.9517 54.4853 36.6423 54.3066L32.4462 51.884Z" fill="url(#paint9_linear_14490_2041)"/>
<path d="M19.4462 41.3066C19.7556 41.4853 20.1368 41.4853 20.4462 41.3066L24.6423 38.884C24.9517 38.7053 25.1423 38.3752 25.1423 38.018V33.1726C25.1423 32.8154 24.9517 32.4853 24.6423 32.3066L20.4462 29.884C20.1368 29.7053 19.7556 29.7053 19.4462 29.884L15.25 32.3066C14.9406 32.4853 14.75 32.8154 14.75 33.1726V38.018C14.75 38.3752 14.9406 38.7053 15.25 38.884L19.4462 41.3066Z" fill="url(#paint10_linear_14490_2041)"/>
<path d="M43.4462 29.884C43.7556 29.7053 44.1368 29.7053 44.4462 29.884L48.6423 32.3066C48.9517 32.4853 49.1423 32.8154 49.1423 33.1726V38.018C49.1423 38.3752 48.9517 38.7053 48.6423 38.884L44.4462 41.3066C44.1368 41.4853 43.7556 41.4853 43.4462 41.3066L39.25 38.884C38.9406 38.7053 38.75 38.3752 38.75 38.018V33.1726C38.75 32.8154 38.9406 32.4853 39.25 32.3066L43.4462 29.884Z" fill="url(#paint11_linear_14490_2041)"/>
<path d="M28.4113 1.69201C30.5868 0.435997 33.2671 0.435997 35.4425 1.69201L59.5882 15.6325C61.7637 16.8885 63.1038 19.2097 63.1038 21.7218V49.6028C63.1038 52.1148 61.7637 54.436 59.5882 55.692L35.4425 69.6325C33.2671 70.8885 30.5868 70.8885 28.4113 69.6325L4.26562 55.692C2.09015 54.436 0.75 52.1148 0.75 49.6028V21.7218C0.75 19.2097 2.09015 16.8885 4.26562 15.6325L28.4113 1.69201Z" stroke="#DDEBF2" stroke-width="1.5"/>
<defs>
<linearGradient id="paint0_linear_14490_2041" x1="40.8212" y1="32.4882" x2="49.4668" y2="39.3246" gradientUnits="userSpaceOnUse">
<stop stop-color="#75FBAE"/>
<stop offset="1" stop-color="#B6F874"/>
</linearGradient>
<linearGradient id="paint1_linear_14490_2041" x1="40.8212" y1="32.4882" x2="49.4668" y2="39.3246" gradientUnits="userSpaceOnUse">
<stop stop-color="#75FBAE"/>
<stop offset="1" stop-color="#B6F874"/>
</linearGradient>
<linearGradient id="paint2_linear_14490_2041" x1="40.8212" y1="32.4882" x2="49.4668" y2="39.3246" gradientUnits="userSpaceOnUse">
<stop stop-color="#75FBAE"/>
<stop offset="1" stop-color="#B6F874"/>
</linearGradient>
<linearGradient id="paint3_linear_14490_2041" x1="40.8212" y1="32.4882" x2="49.4668" y2="39.3246" gradientUnits="userSpaceOnUse">
<stop stop-color="#75FBAE"/>
<stop offset="1" stop-color="#B6F874"/>
</linearGradient>
<linearGradient id="paint4_linear_14490_2041" x1="40.8212" y1="32.4882" x2="49.4668" y2="39.3246" gradientUnits="userSpaceOnUse">
<stop stop-color="#75FBAE"/>
<stop offset="1" stop-color="#B6F874"/>
</linearGradient>
<linearGradient id="paint5_linear_14490_2041" x1="40.8212" y1="32.4882" x2="49.4668" y2="39.3246" gradientUnits="userSpaceOnUse">
<stop stop-color="#75FBAE"/>
<stop offset="1" stop-color="#B6F874"/>
</linearGradient>
<linearGradient id="paint6_linear_14490_2041" x1="40.8212" y1="32.4882" x2="49.4668" y2="39.3246" gradientUnits="userSpaceOnUse">
<stop stop-color="#75FBAE"/>
<stop offset="1" stop-color="#B6F874"/>
</linearGradient>
<linearGradient id="paint7_linear_14490_2041" x1="40.8212" y1="32.4882" x2="49.4668" y2="39.3246" gradientUnits="userSpaceOnUse">
<stop stop-color="#75FBAE"/>
<stop offset="1" stop-color="#B6F874"/>
</linearGradient>
<linearGradient id="paint8_linear_14490_2041" x1="40.8212" y1="32.4882" x2="49.4668" y2="39.3246" gradientUnits="userSpaceOnUse">
<stop stop-color="#75FBAE"/>
<stop offset="1" stop-color="#B6F874"/>
</linearGradient>
<linearGradient id="paint9_linear_14490_2041" x1="40.8212" y1="32.4882" x2="49.4668" y2="39.3246" gradientUnits="userSpaceOnUse">
<stop stop-color="#75FBAE"/>
<stop offset="1" stop-color="#B6F874"/>
</linearGradient>
<linearGradient id="paint10_linear_14490_2041" x1="40.8212" y1="32.4882" x2="49.4668" y2="39.3246" gradientUnits="userSpaceOnUse">
<stop stop-color="#75FBAE"/>
<stop offset="1" stop-color="#B6F874"/>
</linearGradient>
<linearGradient id="paint11_linear_14490_2041" x1="40.8212" y1="32.4882" x2="49.4668" y2="39.3246" gradientUnits="userSpaceOnUse">
<stop stop-color="#75FBAE"/>
<stop offset="1" stop-color="#B6F874"/>
</linearGradient>
</defs>
</svg>
