<svg width="48" height="56" viewBox="0 0 48 56" fill="none" xmlns="http://www.w3.org/2000/svg">
<path d="M24.5 0.288675C24.1906 0.110042 23.8094 0.110042 23.5 0.288675L19.3038 2.71132C18.9944 2.88996 18.8038 3.22008 18.8038 3.57735V8.42265C18.8038 8.77992 18.9944 9.11004 19.3038 9.28868L23.5 11.7113C23.8094 11.89 24.1906 11.89 24.5 11.7113L28.6962 9.28868C29.0056 9.11004 29.1962 8.77991 29.1962 8.42265V3.57735C29.1962 3.22008 29.0056 2.88996 28.6962 2.71132L24.5 0.288675Z" fill="url(#paint0_linear_14098_1933)"/>
<path d="M30.5 22.7113C30.1906 22.89 29.8094 22.89 29.5 22.7113L25.3038 20.2887C24.9944 20.11 24.8038 19.7799 24.8038 19.4226V14.5774C24.8038 14.2201 24.9944 13.89 25.3038 13.7113L29.5 11.2887C29.8094 11.11 30.1906 11.11 30.5 11.2887L34.6962 13.7113C35.0056 13.89 35.1962 14.2201 35.1962 14.5774V19.4226C35.1962 19.7799 35.0056 20.11 34.6962 20.2887L30.5 22.7113Z" fill="url(#paint1_linear_14098_1933)"/>
<path d="M29.5 44.7113C29.8094 44.89 30.1906 44.89 30.5 44.7113L34.6962 42.2887C35.0056 42.11 35.1962 41.7799 35.1962 41.4226V36.5774C35.1962 36.2201 35.0056 35.89 34.6962 35.7113L30.5 33.2887C30.1906 33.11 29.8094 33.11 29.5 33.2887L25.3038 35.7113C24.9944 35.89 24.8038 36.2201 24.8038 36.5774V41.4226C24.8038 41.7799 24.9944 42.11 25.3038 42.2887L29.5 44.7113Z" fill="url(#paint2_linear_14098_1933)"/>
<path d="M6.5 22.7113C6.1906 22.89 5.8094 22.89 5.5 22.7113L1.30385 20.2887C0.994447 20.11 0.803848 19.7799 0.803848 19.4226V14.5774C0.803848 14.2201 0.994447 13.89 1.30385 13.7113L5.5 11.2887C5.8094 11.11 6.1906 11.11 6.5 11.2887L10.6962 13.7113C11.0056 13.89 11.1962 14.2201 11.1962 14.5774V19.4226C11.1962 19.7799 11.0056 20.11 10.6962 20.2887L6.5 22.7113Z" fill="url(#paint3_linear_14098_1933)"/>
<path d="M6.5 44.7113C6.1906 44.89 5.8094 44.89 5.5 44.7113L1.30385 42.2887C0.994447 42.11 0.803848 41.7799 0.803848 41.4226V36.5774C0.803848 36.2201 0.994447 35.89 1.30385 35.7113L5.5 33.2887C5.8094 33.11 6.1906 33.11 6.5 33.2887L10.6962 35.7113C11.0056 35.89 11.1962 36.2201 11.1962 36.5774V41.4226C11.1962 41.7799 11.0056 42.11 10.6962 42.2887L6.5 44.7113Z" fill="url(#paint4_linear_14098_1933)"/>
<path d="M17.5 11.2887C17.8094 11.11 18.1906 11.11 18.5 11.2887L22.6962 13.7113C23.0056 13.89 23.1962 14.2201 23.1962 14.5774V19.4226C23.1962 19.7799 23.0056 20.11 22.6962 20.2887L18.5 22.7113C18.1906 22.89 17.8094 22.89 17.5 22.7113L13.3038 20.2887C12.9944 20.11 12.8038 19.7799 12.8038 19.4226V14.5774C12.8038 14.2201 12.9944 13.89 13.3038 13.7113L17.5 11.2887Z" fill="url(#paint5_linear_14098_1933)"/>
<path d="M17.5 33.2887C17.8094 33.11 18.1906 33.11 18.5 33.2887L22.6962 35.7113C23.0056 35.89 23.1962 36.2201 23.1962 36.5774V41.4226C23.1962 41.7799 23.0056 42.11 22.6962 42.2887L18.5 44.7113C18.1906 44.89 17.8094 44.89 17.5 44.7113L13.3038 42.2887C12.9944 42.11 12.8038 41.7799 12.8038 41.4226V36.5774C12.8038 36.2201 12.9944 35.89 13.3038 35.7113L17.5 33.2887Z" fill="url(#paint6_linear_14098_1933)"/>
<path d="M41.5 11.2887C41.8094 11.11 42.1906 11.11 42.5 11.2887L46.6962 13.7113C47.0056 13.89 47.1962 14.2201 47.1962 14.5774V19.4226C47.1962 19.7799 47.0056 20.11 46.6962 20.2887L42.5 22.7113C42.1906 22.89 41.8094 22.89 41.5 22.7113L37.3038 20.2887C36.9944 20.11 36.8038 19.7799 36.8038 19.4226V14.5774C36.8038 14.2201 36.9944 13.89 37.3038 13.7113L41.5 11.2887Z" fill="url(#paint7_linear_14098_1933)"/>
<path d="M42.5 44.7113C42.1906 44.89 41.8094 44.89 41.5 44.7113L37.3038 42.2887C36.9944 42.11 36.8038 41.7799 36.8038 41.4226V36.5774C36.8038 36.2201 36.9944 35.89 37.3038 35.7113L41.5 33.2887C41.8094 33.11 42.1906 33.11 42.5 33.2887L46.6962 35.7113C47.0056 35.89 47.1962 36.2201 47.1962 36.5774V41.4226C47.1962 41.7799 47.0056 42.11 46.6962 42.2887L42.5 44.7113Z" fill="url(#paint8_linear_14098_1933)"/>
<path d="M24.5 44.2887C24.1906 44.11 23.8094 44.11 23.5 44.2887L19.3038 46.7113C18.9944 46.89 18.8038 47.2201 18.8038 47.5774V52.4226C18.8038 52.7799 18.9944 53.11 19.3038 53.2887L23.5 55.7113C23.8094 55.89 24.1906 55.89 24.5 55.7113L28.6962 53.2887C29.0056 53.11 29.1962 52.7799 29.1962 52.4226V47.5774C29.1962 47.2201 29.0056 46.89 28.6962 46.7113L24.5 44.2887Z" fill="url(#paint9_linear_14098_1933)"/>
<path d="M11.5 33.7113C11.8094 33.89 12.1906 33.89 12.5 33.7113L16.6962 31.2887C17.0056 31.11 17.1962 30.7799 17.1962 30.4226V25.5774C17.1962 25.2201 17.0056 24.89 16.6962 24.7113L12.5 22.2887C12.1906 22.11 11.8094 22.11 11.5 22.2887L7.30385 24.7113C6.99445 24.89 6.80385 25.2201 6.80385 25.5774V30.4226C6.80385 30.7799 6.99445 31.11 7.30385 31.2887L11.5 33.7113Z" fill="url(#paint10_linear_14098_1933)"/>
<path d="M35.5 22.2887C35.8094 22.11 36.1906 22.11 36.5 22.2887L40.6962 24.7113C41.0056 24.89 41.1962 25.2201 41.1962 25.5774V30.4226C41.1962 30.7799 41.0056 31.11 40.6962 31.2887L36.5 33.7113C36.1906 33.89 35.8094 33.89 35.5 33.7113L31.3038 31.2887C30.9944 31.11 30.8038 30.7799 30.8038 30.4226V25.5774C30.8038 25.2201 30.9944 24.89 31.3038 24.7113L35.5 22.2887Z" fill="url(#paint11_linear_14098_1933)"/>
<defs>
<linearGradient id="paint0_linear_14098_1933" x1="27.125" y1="2.89286" x2="18.4794" y2="9.72928" gradientUnits="userSpaceOnUse">
<stop stop-color="#75FBAE"/>
<stop offset="1" stop-color="#B6F874"/>
</linearGradient>
<linearGradient id="paint1_linear_14098_1933" x1="33.125" y1="20.1071" x2="24.4794" y2="13.2707" gradientUnits="userSpaceOnUse">
<stop stop-color="#75FBAE"/>
<stop offset="1" stop-color="#B6F874"/>
</linearGradient>
<linearGradient id="paint2_linear_14098_1933" x1="26.875" y1="42.1071" x2="35.5206" y2="35.2707" gradientUnits="userSpaceOnUse">
<stop stop-color="#75FBAE"/>
<stop offset="1" stop-color="#B6F874"/>
</linearGradient>
<linearGradient id="paint3_linear_14098_1933" x1="9.125" y1="20.1071" x2="0.479444" y2="13.2707" gradientUnits="userSpaceOnUse">
<stop stop-color="#75FBAE"/>
<stop offset="1" stop-color="#B6F874"/>
</linearGradient>
<linearGradient id="paint4_linear_14098_1933" x1="9.125" y1="42.1071" x2="0.479444" y2="35.2707" gradientUnits="userSpaceOnUse">
<stop stop-color="#75FBAE"/>
<stop offset="1" stop-color="#B6F874"/>
</linearGradient>
<linearGradient id="paint5_linear_14098_1933" x1="14.875" y1="13.8929" x2="23.5206" y2="20.7293" gradientUnits="userSpaceOnUse">
<stop stop-color="#75FBAE"/>
<stop offset="1" stop-color="#B6F874"/>
</linearGradient>
<linearGradient id="paint6_linear_14098_1933" x1="14.875" y1="35.8929" x2="23.5206" y2="42.7293" gradientUnits="userSpaceOnUse">
<stop stop-color="#75FBAE"/>
<stop offset="1" stop-color="#B6F874"/>
</linearGradient>
<linearGradient id="paint7_linear_14098_1933" x1="38.875" y1="13.8929" x2="47.5206" y2="20.7293" gradientUnits="userSpaceOnUse">
<stop stop-color="#75FBAE"/>
<stop offset="1" stop-color="#B6F874"/>
</linearGradient>
<linearGradient id="paint8_linear_14098_1933" x1="45.125" y1="42.1071" x2="36.4794" y2="35.2707" gradientUnits="userSpaceOnUse">
<stop stop-color="#75FBAE"/>
<stop offset="1" stop-color="#B6F874"/>
</linearGradient>
<linearGradient id="paint9_linear_14098_1933" x1="27.125" y1="46.8929" x2="18.4794" y2="53.7293" gradientUnits="userSpaceOnUse">
<stop stop-color="#75FBAE"/>
<stop offset="1" stop-color="#B6F874"/>
</linearGradient>
<linearGradient id="paint10_linear_14098_1933" x1="8.875" y1="31.1071" x2="17.5206" y2="24.2707" gradientUnits="userSpaceOnUse">
<stop stop-color="#75FBAE"/>
<stop offset="1" stop-color="#B6F874"/>
</linearGradient>
<linearGradient id="paint11_linear_14098_1933" x1="32.875" y1="24.8929" x2="41.5206" y2="31.7293" gradientUnits="userSpaceOnUse">
<stop stop-color="#75FBAE"/>
<stop offset="1" stop-color="#B6F874"/>
</linearGradient>
</defs>
</svg>
