<svg width="64" height="72" viewBox="0 0 64 72" fill="none" xmlns="http://www.w3.org/2000/svg">
<path d="M28.4113 1.69201C30.5868 0.435997 33.2671 0.435997 35.4425 1.69201L59.5882 15.6325C61.7637 16.8885 63.1038 19.2097 63.1038 21.7218V49.6028C63.1038 52.1148 61.7637 54.436 59.5882 55.692L35.4425 69.6325C33.2671 70.8885 30.5868 70.8885 28.4113 69.6325L4.26562 55.692C2.09015 54.436 0.75 52.1148 0.75 49.6028V21.7218C0.75 19.2097 2.09015 16.8885 4.26562 15.6325L28.4113 1.69201Z" stroke="#DDEBF2" stroke-width="1.5"/>
<path d="M30.0195 36.4727C30.1055 36.5228 30.1943 36.5671 30.2832 36.6094V61.4238C30.1221 61.3569 29.9645 61.2799 29.8125 61.1914L29.8066 61.1875L21.0166 56.1211V44.0352C21.0166 42.7899 20.3551 41.6378 19.2793 41.0107L8.75 34.875V24.7412C8.75024 24.5237 8.76899 24.3076 8.80371 24.0947L30.0195 36.4727ZM54.7617 24.0947C54.7965 24.3077 54.8162 24.5237 54.8164 24.7412V34.875L44.2881 41.0107C43.212 41.6378 42.5498 42.7898 42.5498 44.0352V56.1211L33.7607 61.1875L33.7549 61.1914C33.6027 61.28 33.4445 61.3568 33.2832 61.4238V36.6094C33.3722 36.5671 33.4608 36.5228 33.5469 36.4727L54.7617 24.0947ZM17.7686 43.6025C17.9222 43.6921 18.0166 43.8573 18.0166 44.0352V54.3926L10.7246 50.1904C10.1278 49.8414 9.63025 49.3398 9.2832 48.7344C8.97853 48.2028 8.79935 47.6078 8.75879 46.9961L8.75 46.7324V38.3467L17.7686 43.6025ZM54.8164 46.7344C54.8154 47.4374 54.6312 48.1272 54.2832 48.7344C53.9361 49.3399 53.4387 49.8414 52.8418 50.1904L45.5498 54.3926V44.0352C45.5498 43.8573 45.6442 43.6921 45.7979 43.6025L54.8164 38.3467V46.7344ZM30.0215 22.1777C31.1105 22.8121 32.457 22.8123 33.5459 22.1777L43.9121 16.1367L52.8359 21.2793V21.2803C52.9649 21.3554 53.0888 21.4385 53.208 21.5273L32.0352 33.8809C31.8795 33.9716 31.6869 33.9716 31.5312 33.8809L10.3584 21.5273C10.4776 21.4385 10.6015 21.3554 10.7305 21.2803L10.7295 21.2793L19.6543 16.1357L30.0215 22.1777ZM31.7832 9.75C32.4744 9.75002 33.1548 9.93377 33.7549 10.2832L33.7607 10.2861L40.916 14.4102L32.0352 19.5859C31.8796 19.6766 31.6868 19.6765 31.5312 19.5859L22.6494 14.4102L29.8066 10.2861L29.8125 10.2832C30.4126 9.93382 31.0921 9.75002 31.7832 9.75Z" fill="url(#paint0_linear_14490_2114)"/>
<defs>
<linearGradient id="paint0_linear_14490_2114" x1="3.60746" y1="59.961" x2="61.9452" y2="13.8193" gradientUnits="userSpaceOnUse">
<stop stop-color="#68FFA8"/>
<stop offset="0.834741" stop-color="#00B7E2"/>
</linearGradient>
</defs>
</svg>
