<svg width="47" height="52" viewBox="0 0 47 52" fill="none" xmlns="http://www.w3.org/2000/svg">
<path d="M21.2695 26.7227C21.3555 26.7728 21.4443 26.8171 21.5332 26.8594V51.6738C21.3721 51.6069 21.2145 51.5299 21.0625 51.4414L21.0566 51.4375L12.2666 46.3711V34.2852C12.2666 33.0399 11.6051 31.8878 10.5293 31.2607L0 25.125V14.9912C0.00023756 14.7737 0.0189939 14.5576 0.0537109 14.3447L21.2695 26.7227ZM46.0117 14.3447C46.0465 14.5577 46.0662 14.7737 46.0664 14.9912V25.125L35.5381 31.2607C34.462 31.8878 33.7998 33.0398 33.7998 34.2852V46.3711L25.0107 51.4375L25.0049 51.4414C24.8527 51.53 24.6945 51.6068 24.5332 51.6738V26.8594C24.6222 26.8171 24.7108 26.7728 24.7969 26.7227L46.0117 14.3447ZM9.01855 33.8525C9.17218 33.9421 9.2666 34.1073 9.2666 34.2852V44.6426L1.97461 40.4404C1.37777 40.0914 0.880246 39.5898 0.533203 38.9844C0.228527 38.4528 0.0493513 37.8578 0.00878906 37.2461L0 36.9824V28.5967L9.01855 33.8525ZM46.0664 36.9844C46.0654 37.6874 45.8812 38.3772 45.5332 38.9844C45.1861 39.5899 44.6887 40.0914 44.0918 40.4404L36.7998 44.6426V34.2852C36.7998 34.1073 36.8942 33.9421 37.0479 33.8525L46.0664 28.5967V36.9844ZM21.2715 12.4277C22.3605 13.0621 23.707 13.0623 24.7959 12.4277L35.1621 6.38672L44.0859 11.5293V11.5303C44.2149 11.6054 44.3388 11.6885 44.458 11.7773L23.2852 24.1309C23.1295 24.2216 22.9369 24.2216 22.7812 24.1309L1.6084 11.7773C1.72764 11.6885 1.85146 11.6054 1.98047 11.5303L1.97949 11.5293L10.9043 6.38574L21.2715 12.4277ZM23.0332 0C23.7244 2.30693e-05 24.4048 0.183768 25.0049 0.533203L25.0107 0.536133L32.166 4.66016L23.2852 9.83594C23.1296 9.92655 22.9368 9.9265 22.7812 9.83594L13.8994 4.66016L21.0566 0.536133L21.0625 0.533203C21.6626 0.183818 22.3421 2.29468e-05 23.0332 0Z" fill="url(#paint0_linear_14098_1955)"/>
<defs>
<linearGradient id="paint0_linear_14098_1955" x1="-5.14254" y1="50.211" x2="53.1952" y2="4.0693" gradientUnits="userSpaceOnUse">
<stop stop-color="#68FFA8"/>
<stop offset="0.834741" stop-color="#00B7E2"/>
</linearGradient>
</defs>
</svg>
