<svg width="56" height="56" viewBox="0 0 56 56" fill="none" xmlns="http://www.w3.org/2000/svg">
<rect x="55.65" y="55.65" width="55.3" height="55.3" rx="10.85" transform="rotate(-180 55.65 55.65)" fill="#111111" stroke="url(#paint0_linear_14803_2082)" stroke-width="0.7"/>
<path d="M39.0617 15.5558H32.1481C31.3845 15.5558 30.7654 16.1749 30.7654 16.9386V23.8521C30.7654 24.6158 31.3845 25.2349 32.1481 25.2349H39.0617C39.8254 25.2349 40.4444 24.6158 40.4444 23.8521V16.9386C40.4444 16.1749 39.8254 15.5558 39.0617 15.5558Z" fill="url(#paint1_linear_14803_2082)"/>
<path d="M25.2346 40.4447V22.4694C25.2346 22.1027 25.0889 21.751 24.8296 21.4917C24.5703 21.2324 24.2186 21.0867 23.8518 21.0867H16.9383C16.5715 21.0867 16.2198 21.2324 15.9605 21.4917C15.7012 21.751 15.5555 22.1027 15.5555 22.4694V39.062C15.5555 39.4287 15.7012 39.7804 15.9605 40.0397C16.2198 40.2991 16.5715 40.4447 16.9383 40.4447H33.5309C33.8976 40.4447 34.2493 40.2991 34.5086 40.0397C34.7679 39.7804 34.9136 39.4287 34.9136 39.062V32.1484C34.9136 31.7817 34.7679 31.43 34.5086 31.1707C34.2493 30.9114 33.8976 30.7657 33.5309 30.7657H15.5555" fill="url(#paint2_linear_14803_2082)"/>
<path d="M25.2346 40.4447V22.4694C25.2346 22.1027 25.0889 21.751 24.8296 21.4917C24.5703 21.2324 24.2186 21.0867 23.8518 21.0867H16.9383C16.5715 21.0867 16.2198 21.2324 15.9605 21.4917C15.7012 21.751 15.5555 22.1027 15.5555 22.4694V39.062C15.5555 39.4287 15.7012 39.7804 15.9605 40.0397C16.2198 40.2991 16.5715 40.4447 16.9383 40.4447H33.5309C33.8976 40.4447 34.2493 40.2991 34.5086 40.0397C34.7679 39.7804 34.9136 39.4287 34.9136 39.062V32.1484C34.9136 31.7817 34.7679 31.43 34.5086 31.1707C34.2493 30.9114 33.8976 30.7657 33.5309 30.7657H15.5555M32.1481 15.5558H39.0617C39.8254 15.5558 40.4444 16.1749 40.4444 16.9386V23.8521C40.4444 24.6158 39.8254 25.2349 39.0617 25.2349H32.1481C31.3845 25.2349 30.7654 24.6158 30.7654 23.8521V16.9386C30.7654 16.1749 31.3845 15.5558 32.1481 15.5558Z" stroke="#1A1A1A" stroke-width="1.4" stroke-linecap="round" stroke-linejoin="round"/>
<defs>
<linearGradient id="paint0_linear_14803_2082" x1="49.7485" y1="110.415" x2="114.255" y2="53.1837" gradientUnits="userSpaceOnUse">
<stop stop-color="#68FFA8"/>
<stop offset="0.834741" stop-color="#00B7E2"/>
</linearGradient>
<linearGradient id="paint1_linear_14803_2082" x1="12.7771" y1="39.7401" x2="41.4465" y2="14.3041" gradientUnits="userSpaceOnUse">
<stop stop-color="#68FFA8"/>
<stop offset="0.834741" stop-color="#00B7E2"/>
</linearGradient>
<linearGradient id="paint2_linear_14803_2082" x1="12.7771" y1="39.7401" x2="41.4465" y2="14.3041" gradientUnits="userSpaceOnUse">
<stop stop-color="#68FFA8"/>
<stop offset="0.834741" stop-color="#00B7E2"/>
</linearGradient>
</defs>
</svg>
