<svg width="57" height="57" viewBox="0 0 57 57" fill="none" xmlns="http://www.w3.org/2000/svg">
<path d="M56.5 45.3C56.5 51.4856 51.4856 56.5 45.3 56.5L11.7 56.5C5.51441 56.5 0.500004 51.4856 0.500005 45.3L0.500008 11.7C0.500008 5.51441 5.51442 0.499999 11.7 0.5L45.3 0.500003C51.4856 0.500003 56.5 5.51442 56.5 11.7L56.5 45.3Z" fill="#111111" stroke="#6E6B91"/>
<path d="M24.9106 28.4952L27.3099 30.8954L32.1084 26.095M18.7324 24.4389C18.5573 23.6499 18.5842 22.8294 18.8106 22.0535C19.037 21.2777 19.4555 20.5715 20.0274 20.0006C20.5993 19.4297 21.306 19.0125 22.0821 18.7876C22.8581 18.5628 23.6783 18.5376 24.4667 18.7144C24.9006 18.0356 25.4984 17.4769 26.2049 17.0899C26.9114 16.7029 27.7039 16.5 28.5094 16.5C29.3149 16.5 30.1075 16.7029 30.814 17.0899C31.5205 17.4769 32.1183 18.0356 32.5522 18.7144C33.3417 18.5369 34.1634 18.5619 34.9407 18.7873C35.7179 19.0127 36.4256 19.4311 36.9978 20.0035C37.5701 20.576 37.9883 21.284 38.2136 22.0615C38.4389 22.8391 38.4639 23.6611 38.2864 24.4509C38.9651 24.885 39.5235 25.483 39.9104 26.1898C40.2972 26.8966 40.5 27.6895 40.5 28.4953C40.5 29.3011 40.2972 30.094 39.9104 30.8008C39.5235 31.5076 38.9651 32.1056 38.2864 32.5396C38.4632 33.3283 38.438 34.1489 38.2133 34.9252C37.9885 35.7015 37.5714 36.4086 37.0008 36.9807C36.4301 37.5528 35.7242 37.9715 34.9486 38.1979C34.1731 38.4244 33.3529 38.4513 32.5642 38.2761C32.1308 38.9576 31.5326 39.5187 30.8249 39.9075C30.1171 40.2962 29.3228 40.5 28.5154 40.5C27.708 40.5 26.9137 40.2962 26.206 39.9075C25.4983 39.5187 24.9 38.9576 24.4667 38.2761C23.6783 38.453 22.8581 38.4278 22.0821 38.2029C21.306 37.9781 20.5993 37.5609 20.0274 36.99C19.4555 36.419 19.037 35.7129 18.8106 34.937C18.5842 34.1612 18.5573 33.3407 18.7324 32.5516C18.0486 32.1187 17.4853 31.5198 17.095 30.8106C16.7047 30.1013 16.5 29.3049 16.5 28.4953C16.5 27.6857 16.7047 26.8892 17.095 26.18C17.4853 25.4708 18.0486 24.8719 18.7324 24.4389Z" stroke="url(#paint0_linear_15128_1290)" stroke-width="2" stroke-linecap="round" stroke-linejoin="round"/>
<defs>
<linearGradient id="paint0_linear_15128_1290" x1="13.8208" y1="39.8206" x2="41.4663" y2="15.293" gradientUnits="userSpaceOnUse">
<stop offset="0.168669" stop-color="#00FE6B"/>
<stop offset="0.887092" stop-color="#00B7E2"/>
</linearGradient>
</defs>
</svg>
