<svg width="57" height="57" viewBox="0 0 57 57" fill="none" xmlns="http://www.w3.org/2000/svg">
<path d="M56.5 45.3C56.5 51.4856 51.4856 56.5 45.3 56.5L11.7 56.5C5.51441 56.5 0.500004 51.4856 0.500005 45.3L0.500008 11.7C0.500008 5.51441 5.51442 0.499999 11.7 0.5L45.3 0.500003C51.4856 0.500003 56.5 5.51442 56.5 11.7L56.5 45.3Z" fill="#111111" stroke="#6E6B91"/>
<path d="M36.5 40.5C36.5 38.3783 35.6571 36.3434 34.1569 34.8431C32.6566 33.3429 30.6217 32.5 28.5 32.5M28.5 32.5C26.3783 32.5 24.3434 33.3429 22.8431 34.8431C21.3429 36.3434 20.5 38.3783 20.5 40.5M28.5 32.5C31.4455 32.5 33.8333 30.1122 33.8333 27.1667C33.8333 24.2211 31.4455 21.8333 28.5 21.8333C25.5545 21.8333 23.1667 24.2211 23.1667 27.1667C23.1667 30.1122 25.5545 32.5 28.5 32.5ZM19.1667 16.5H37.8333C39.3061 16.5 40.5 17.6939 40.5 19.1667V37.8333C40.5 39.3061 39.3061 40.5 37.8333 40.5H19.1667C17.6939 40.5 16.5 39.3061 16.5 37.8333V19.1667C16.5 17.6939 17.6939 16.5 19.1667 16.5Z" stroke="url(#paint0_linear_15128_1302)" stroke-width="2" stroke-linecap="round" stroke-linejoin="round"/>
<defs>
<linearGradient id="paint0_linear_15128_1302" x1="13.8208" y1="39.8206" x2="41.4663" y2="15.293" gradientUnits="userSpaceOnUse">
<stop offset="0.168669" stop-color="#00FE6B"/>
<stop offset="0.887092" stop-color="#00B7E2"/>
</linearGradient>
</defs>
</svg>
