<svg width="57" height="57" viewBox="0 0 57 57" fill="none" xmlns="http://www.w3.org/2000/svg">
<path d="M56.5 45.3C56.5 51.4856 51.4856 56.5 45.3 56.5L11.7 56.5C5.51441 56.5 0.500004 51.4856 0.500005 45.3L0.500008 11.7C0.500008 5.51441 5.51442 0.499999 11.7 0.5L45.3 0.500003C51.4856 0.500003 56.5 5.51442 56.5 11.7L56.5 45.3Z" fill="#111111" stroke="#6E6B91"/>
<path d="M27.3 36.9H18.9C18.2635 36.9 17.653 36.6471 17.2029 36.1971C16.7529 35.747 16.5 35.1365 16.5 34.5V22.5C16.5 21.8635 16.7529 21.253 17.2029 20.8029C17.653 20.3529 18.2635 20.1 18.9 20.1H24.9M21.3 23.7L24.9 20.1L21.3 16.5M29.7 20.1H38.1C38.7365 20.1 39.347 20.3529 39.7971 20.8029C40.2471 21.253 40.5 21.8635 40.5 22.5V34.5C40.5 35.1365 40.2471 35.747 39.7971 36.1971C39.347 36.6471 38.7365 36.9 38.1 36.9H32.1M35.7 33.3L32.1 36.9L35.7 40.5M32.1 28.5C32.1 30.4882 30.4882 32.1 28.5 32.1C26.5118 32.1 24.9 30.4882 24.9 28.5C24.9 26.5118 26.5118 24.9 28.5 24.9C30.4882 24.9 32.1 26.5118 32.1 28.5Z" stroke="url(#paint0_linear_15128_1299)" stroke-width="2" stroke-linecap="round" stroke-linejoin="round"/>
<defs>
<linearGradient id="paint0_linear_15128_1299" x1="13.8208" y1="39.8206" x2="41.4663" y2="15.293" gradientUnits="userSpaceOnUse">
<stop offset="0.168669" stop-color="#00FE6B"/>
<stop offset="0.887092" stop-color="#00B7E2"/>
</linearGradient>
</defs>
</svg>
