<svg width="40" height="40" viewBox="0 0 40 40" fill="none" xmlns="http://www.w3.org/2000/svg">
<rect x="39.75" y="39.75" width="39.5" height="39.5" rx="7.75" transform="rotate(-180 39.75 39.75)" fill="#111111" stroke="#6E6B91" stroke-width="0.5"/>
<path d="M26.384 11H13.616C12.4283 11.0003 11.2829 11.4461 10.4012 12.2513C9.51954 13.0565 8.96414 14.1638 8.8424 15.3593C8.8352 15.4224 8.8304 15.4819 8.822 15.5439C8.7248 16.3623 8 22.4823 8 24.3571C8 25.3233 8.37928 26.2499 9.05442 26.933C9.72955 27.6162 10.6452 28 11.6 28C12.8 28 13.4 27.3929 14 26.7857L15.6968 25.0687C16.1468 24.6132 16.7571 24.3573 17.3936 24.3571H22.6064C23.2429 24.3573 23.8532 24.6132 24.3032 25.0687L26 26.7857C26.6 27.3929 27.2 28 28.4 28C29.3548 28 30.2705 27.6162 30.9456 26.933C31.6207 26.2499 32 25.3233 32 24.3571C32 22.4811 31.2752 16.3623 31.178 15.5439C31.1696 15.4831 31.1648 15.4224 31.1576 15.3605C31.0361 14.1648 30.4809 13.0572 29.5991 12.2517C28.7174 11.4463 27.5719 11.0003 26.384 11Z" fill="#6E6B91"/>
<path d="M12.8 18.2857H17.6M15.2 15.8571V20.7143M23.6 19.5H23.612M27.2 17.0714H27.212M26.384 11H13.616C12.4283 11.0003 11.2829 11.4461 10.4012 12.2513C9.51954 13.0565 8.96414 14.1638 8.8424 15.3593C8.8352 15.4224 8.8304 15.4819 8.822 15.5439C8.7248 16.3623 8 22.4823 8 24.3571C8 25.3233 8.37928 26.2499 9.05442 26.933C9.72955 27.6162 10.6452 28 11.6 28C12.8 28 13.4 27.3929 14 26.7857L15.6968 25.0687C16.1468 24.6132 16.7571 24.3573 17.3936 24.3571H22.6064C23.2429 24.3573 23.8532 24.6132 24.3032 25.0687L26 26.7857C26.6 27.3929 27.2 28 28.4 28C29.3548 28 30.2705 27.6162 30.9456 26.933C31.6207 26.2499 32 25.3233 32 24.3571C32 22.4811 31.2752 16.3623 31.178 15.5439C31.1696 15.4831 31.1648 15.4224 31.1576 15.3605C31.0361 14.1648 30.4809 13.0572 29.5991 12.2517C28.7174 11.4463 27.5719 11.0003 26.384 11Z" stroke="#1A1A1A" stroke-width="1.5" stroke-linecap="round" stroke-linejoin="round"/>
</svg>
