<svg width="196" height="20" viewBox="0 0 196 20" fill="none" xmlns="http://www.w3.org/2000/svg">
<path d="M186.862 0L190.558 9.82706H188.366L187.731 8.15387L183.481 8.11681L182.693 9.82706H180.501L184.197 0H186.862ZM187.121 6.29276L185.488 1.98265L183.94 6.29276H187.121Z" fill="#B9C8DE"/>
<path d="M195.028 0V9.74085C194.402 9.9391 193.635 9.7736 192.964 9.82792V0H195.028Z" fill="#B9C8DE"/>
<path d="M96.9548 0.000861731C97.0725 0.151716 97.3674 0.0844786 97.5565 0.0870648C99.9004 0.124132 102.21 1.04132 103.963 2.58607L103.958 2.92829L101.798 5.68072C100.089 4.26356 96.776 2.94812 94.6341 3.92306C93.5382 4.42217 92.9804 5.85227 94.0384 6.67464C95.1421 7.53322 98.0722 7.89698 99.5127 8.3392C101.968 9.09175 104.296 10.3693 104.521 13.2294C104.85 17.4008 101.752 19.6972 97.8994 19.9136C97.6811 19.9256 97.3579 19.8386 97.2118 19.9997H96.4383C96.366 19.8618 96.1459 19.9161 96.0085 19.9136C93.3628 19.8696 90.4551 18.8955 88.699 16.8534L90.8968 13.7932C91.7229 14.5165 92.4672 15.1397 93.4849 15.5914C95.0973 16.3068 99.6674 17.1051 100.266 14.7441C100.715 12.9691 99.0082 12.4666 97.6862 12.0674C94.885 11.2235 90.5152 10.9037 89.5009 7.51856C88.2469 3.3343 91.7598 0.292226 95.6655 0.086202C95.7918 0.0793061 95.9096 0.109477 96.0093 0L96.9548 0.000861731Z" fill="#B9C8DE"/>
<path d="M97.9003 19.9129V19.999H97.2128C97.3588 19.8378 97.682 19.9249 97.9003 19.9129Z" fill="#B9C8DE"/>
<path d="M97.5563 0V0.0862031C97.3671 0.0836168 97.0723 0.150855 96.9546 0H97.5563Z" fill="#B9C8DE"/>
<path d="M96.4391 20H96.0093V19.9138C96.1469 19.9164 96.3669 19.8621 96.4391 20Z" fill="#B9C8DE"/>
<path d="M96.0095 0C95.9099 0.109477 95.7921 0.0793061 95.6656 0.0862031V0H96.0095Z" fill="#B9C8DE"/>
<path d="M127.812 0.345093V3.96559H122.225V19.6544H118.142L118.014 19.5251V3.96559H112.427V0.345093H127.812Z" fill="#B9C8DE"/>
<path d="M67.3869 0.345093L76.0432 12.5626L76.24 12.672V0.345093H80.3658V19.6544H76.369L67.4591 7.03956L67.215 6.89647V19.6544H63.0892V0.345093H67.3869Z" fill="#B9C8DE"/>
<path d="M41.6015 0.345093V3.87939H32.1896L32.0606 4.00869V8.01709H41.3006L41.4295 8.14639V11.5083L41.3006 11.6376H32.1896L32.0606 11.7669V19.6544H28.0638L27.9349 19.5251V0.345093H41.6015Z" fill="#B9C8DE"/>
<path d="M54.322 0.345093H50.1963V19.6544H54.322V0.345093Z" fill="#B9C8DE"/>
<path d="M18.9955 0.345093H0V5.77583H18.9955V0.345093Z" fill="#B9C8DE"/>
<path d="M12.2053 7.15454H0V12.5852H12.2053V7.15454Z" fill="#B9C8DE"/>
<path d="M5.41504 13.9653H0V19.3961H5.41504V13.9653Z" fill="#B9C8DE"/>
<path d="M9.48011 19.3542C10.965 19.3542 12.1688 18.147 12.1688 16.6579C12.1688 15.1687 10.965 13.9614 9.48011 13.9614C7.99524 13.9614 6.7915 15.1687 6.7915 16.6579C6.7915 18.147 7.99524 19.3542 9.48011 19.3542Z" fill="#B9C8DE"/>
<path d="M16.2654 19.3552C17.7498 19.3552 18.9532 18.1484 18.9532 16.6597C18.9532 15.1709 17.7498 13.9641 16.2654 13.9641C14.781 13.9641 13.5776 15.1709 13.5776 16.6597C13.5776 18.1484 14.781 19.3552 16.2654 19.3552Z" fill="#B9C8DE"/>
<path d="M16.2641 12.5485C17.7484 12.5485 18.9517 11.3416 18.9517 9.85285C18.9517 8.36419 17.7484 7.15735 16.2641 7.15735C14.7796 7.15735 13.5763 8.36419 13.5763 9.85285C13.5763 11.3416 14.7796 12.5485 16.2641 12.5485Z" fill="#B9C8DE"/>
<path d="M140.705 3.87938V8.01709H149.987V11.6376H140.705V16.0339H150.117L150.246 16.1632V19.5251L150.117 19.6544H136.579V0.345093H150.117L150.246 0.474394V3.75008L150.117 3.87938H140.705Z" fill="#B9C8DE"/>
<path d="M168.769 0.345093C169.321 0.398534 170.267 0.683868 170.785 0.908859C175.652 3.01736 175.441 10.998 170.099 12.2859L174.313 19.6553H169.714L165.846 12.759H162.88V19.6553H158.755V0.345093H168.769ZM162.881 9.13771H167.909C168.11 9.13771 169 8.67395 169.186 8.52137C170.536 7.41109 170.253 5.0138 168.673 4.23454C168.538 4.16816 167.74 3.87938 167.652 3.87938H162.881V9.13771Z" fill="#B9C8DE"/>
</svg>
