<svg width="57" height="57" viewBox="0 0 57 57" fill="none" xmlns="http://www.w3.org/2000/svg">
<path d="M56.5 45.3C56.5 51.4856 51.4856 56.5 45.3 56.5L11.7 56.5C5.51441 56.5 0.5 51.4856 0.500001 45.3L0.500004 11.7C0.500004 5.51441 5.51442 0.499996 11.7 0.499996L45.3 0.499999C51.4856 0.5 56.5 5.51441 56.5 11.7L56.5 45.3Z" fill="#111111" stroke="#6E6B91"/>
<path d="M28.5 41.5C35.6797 41.5 41.5 35.6797 41.5 28.5C41.5 21.3203 35.6797 15.5 28.5 15.5C21.3203 15.5 15.5 21.3203 15.5 28.5C15.5 35.6797 21.3203 41.5 28.5 41.5Z" fill="url(#paint0_linear_14951_222)"/>
<path d="M23.3 31.1C23.3 31.1 25.25 33.7 28.5 33.7C31.75 33.7 33.7 31.1 33.7 31.1" fill="url(#paint1_linear_14951_222)"/>
<path d="M23.3 31.1C23.3 31.1 25.25 33.7 28.5 33.7C31.75 33.7 33.7 31.1 33.7 31.1M24.6 24.6H24.613M32.4 24.6H32.413M41.5 28.5C41.5 35.6797 35.6797 41.5 28.5 41.5C21.3203 41.5 15.5 35.6797 15.5 28.5C15.5 21.3203 21.3203 15.5 28.5 15.5C35.6797 15.5 41.5 21.3203 41.5 28.5Z" stroke="#1A1A1A" stroke-width="2" stroke-linecap="round" stroke-linejoin="round"/>
<defs>
<linearGradient id="paint0_linear_14951_222" x1="41.5" y1="13.29" x2="15.5" y2="41.5" gradientUnits="userSpaceOnUse">
<stop stop-color="#43E2C5"/>
<stop offset="1" stop-color="#70EE62"/>
</linearGradient>
<linearGradient id="paint1_linear_14951_222" x1="41.5" y1="13.29" x2="15.5" y2="41.5" gradientUnits="userSpaceOnUse">
<stop stop-color="#43E2C5"/>
<stop offset="1" stop-color="#70EE62"/>
</linearGradient>
</defs>
</svg>
