<svg width="20" height="20" viewBox="0 0 20 20" fill="none" xmlns="http://www.w3.org/2000/svg">
<path d="M11.8637 14.7731C12.182 14.7172 12.4827 14.6728 12.7801 14.6102C13.3043 14.5009 13.8099 14.3331 14.2842 14.0748C15.1219 13.6184 15.7015 12.93 16.0367 12.0244C16.3269 11.2398 16.4186 10.419 16.3985 9.58912C16.3752 8.5997 16.0456 7.71966 15.3783 6.97122C15.6846 6.05582 15.6203 5.15194 15.2738 4.25463C14.9145 4.19459 14.5785 4.27108 14.2481 4.38376C13.6934 4.5721 13.1885 4.86325 12.6997 5.18566C12.6435 5.22267 12.588 5.25968 12.5301 5.29916C10.8685 4.84598 9.20841 4.84433 7.5347 5.29669C6.69382 4.77936 5.86098 4.20857 4.78938 4.23407C4.43487 5.13549 4.36412 6.03608 4.67121 6.95313C4.55063 7.11762 4.42763 7.2706 4.31991 7.43427C3.89786 8.0725 3.68081 8.77981 3.66152 9.54964C3.64222 10.3186 3.71216 11.0761 3.94529 11.8131C4.32071 12.9999 5.07959 13.8166 6.20425 14.2846C6.79511 14.5305 7.4125 14.6621 8.04196 14.7435C8.08054 14.7484 8.11833 14.755 8.19389 14.7665C7.81686 15.158 7.64001 15.6194 7.56766 16.1277C7.33453 16.2683 7.0821 16.3349 6.82807 16.3769C6.484 16.4328 6.13913 16.4271 5.79988 16.3119C5.29745 16.1409 4.94695 15.7888 4.67362 15.3447C4.48631 15.0404 4.26444 14.7706 3.98066 14.5576C3.68483 14.3355 3.35603 14.222 2.98624 14.2582C2.8737 14.2689 2.75793 14.2772 2.67996 14.375C2.63896 14.4787 2.68558 14.5568 2.74829 14.6193C2.8335 14.7048 2.92113 14.7953 3.02402 14.8537C3.26439 14.9902 3.45974 15.1761 3.60444 15.408C3.79818 15.7181 4.00719 16.0257 4.14144 16.3637C4.42361 17.0702 4.93248 17.4568 5.6383 17.6098C6.20907 17.734 6.77984 17.6871 7.3498 17.5974C7.39562 17.59 7.44144 17.5843 7.50013 17.576C7.50656 17.6262 7.51781 17.6714 7.51781 17.7159C7.52103 18.2908 7.52425 18.8657 7.52425 19.4397C7.52425 19.8428 7.23967 20.0755 6.85862 19.9694C6.33608 19.823 5.84249 19.596 5.36739 19.3336C2.8327 17.9322 1.15175 15.8176 0.351063 12.9818C0.0721105 11.9891 -0.0251611 10.9725 0.00538701 9.94113C0.0769339 7.52967 0.884048 5.40525 2.41145 3.57774C3.73949 1.98792 5.40115 0.917079 7.37794 0.366029C8.01623 0.188378 8.66578 0.0896823 9.32498 0.0312875C10.1578 -0.0427341 10.9818 0.0189505 11.797 0.170284C13.4546 0.477062 14.9482 1.17204 16.261 2.25687C17.7748 3.50619 18.8504 5.0738 19.4806 6.95888C19.725 7.69088 19.9051 8.44014 19.9501 9.21243C19.9871 9.83257 20.0257 10.4593 19.9774 11.0761C19.8287 12.9744 19.2097 14.7081 18.1132 16.2527C16.8977 17.9651 15.314 19.1823 13.371 19.9085C13.2834 19.9414 13.1941 19.9719 13.1025 19.99C12.8243 20.0434 12.5792 19.8789 12.5189 19.5968C12.4988 19.5047 12.4923 19.4077 12.4931 19.3131C12.5004 18.4643 12.5213 17.6163 12.514 16.7684C12.5116 16.4427 12.4634 16.1145 12.4039 15.7946C12.3404 15.4557 12.1836 15.1523 11.9553 14.8924C11.9256 14.8586 11.8999 14.8216 11.8629 14.7747L11.8637 14.7731Z" fill="#B9C8DE"/>
</svg>
