<svg width="189" height="20" viewBox="0 0 189 20" fill="none" xmlns="http://www.w3.org/2000/svg">
<path d="M118.583 2.10032C118.709 2.01093 118.849 2.05359 118.979 2.05359C122.65 2.05156 126.32 2.02922 129.988 2.05766C133.523 2.0861 135.483 5.73059 133.986 8.63156C133.699 9.18818 133.303 9.66965 132.818 10.0942C133.531 10.6387 134.146 11.2237 134.51 12.0343C135.558 14.3725 134.469 17.0826 132.202 18.0272C131.611 18.273 131.01 18.401 130.382 18.403C126.544 18.4091 122.705 18.4071 118.866 18.4071H118.583V2.10235V2.10032ZM120.202 16.7839H122.055C124.791 16.7839 127.529 16.788 130.265 16.7839C131.599 16.7819 132.68 16.0566 133.08 14.9617C133.852 12.8469 132.168 11.0125 130.281 11.0429C127.055 11.0958 123.828 11.0572 120.6 11.0592C120.472 11.0592 120.332 11.0125 120.198 11.114V16.7839H120.202ZM120.198 9.37102C120.279 9.3954 120.31 9.41165 120.34 9.41165C123.57 9.41165 126.801 9.43603 130.031 9.40352C131.215 9.39133 132.133 8.82658 132.613 7.70926C133.08 6.62241 132.909 5.59651 132.158 4.68641C131.518 3.91241 130.634 3.67472 129.674 3.67269C126.629 3.6666 123.584 3.67066 120.541 3.67269C120.43 3.67269 120.304 3.628 120.198 3.74786V9.36899V9.37102Z" fill="#B9C8DE"/>
<path d="M187.668 2.08765V3.67424H173.793V9.40913H186.838V11.0465H173.791V16.7773H188.479V18.3822H172.172V2.08765H187.668Z" fill="#B9C8DE"/>
<path d="M66.6512 18.3823H65.0344C60.6856 13.7606 56.3551 9.15729 52.0266 4.55393L51.9312 4.58034V18.3782H50.3306V2.09177C50.8627 2.00238 51.399 2.08161 51.9169 2.04504C56.2799 6.68293 60.6247 11.3046 65.0425 16.0034V2.07552H66.6512V18.3823Z" fill="#B9C8DE"/>
<path d="M68.841 13.0945H70.4294C70.5005 13.1474 70.5249 13.2083 70.531 13.2774C70.7077 15.1748 71.7903 16.3144 73.5514 16.9015C74.6401 17.2652 75.7634 17.3485 76.8968 17.3525C78.1317 17.3586 79.3565 17.2571 80.5265 16.8304C81.4243 16.5034 82.1535 15.9792 82.5679 15.0732C83.0818 13.9518 82.6755 12.6659 81.5888 12.0788C80.7195 11.6095 79.775 11.3556 78.8163 11.1565C77.3294 10.8477 75.8385 10.5531 74.3476 10.2606C73.3503 10.0656 72.3855 9.76492 71.4654 9.34441C69.8505 8.60698 69.2493 7.16055 69.5946 5.46629C69.8627 4.14582 70.6813 3.23166 71.8777 2.62424C73.6997 1.69991 75.6496 1.57396 77.6341 1.69585C78.7675 1.76492 79.8664 2.00464 80.9043 2.48813C82.5943 3.27432 83.6058 4.60088 84.0242 6.39265C84.1299 6.84567 84.205 7.30885 84.1522 7.80454H82.5658C82.4724 7.34745 82.4013 6.87005 82.2713 6.4089C81.8163 4.79184 80.6809 3.86548 79.1006 3.47747C77.0755 2.97975 75.0585 3.08539 73.0801 3.74359C72.1641 4.04831 71.5547 4.66386 71.25 5.60037C70.9616 6.48204 71.4572 7.61155 72.3164 8.02394C73.007 8.3571 73.7281 8.57244 74.4736 8.72683C76.4032 9.1311 78.3369 9.52521 80.2665 9.92947C81.1785 10.1204 82.0357 10.4577 82.8258 10.9554C84.1238 11.7741 84.5747 12.9808 84.4305 14.4617C84.2213 16.5989 82.8035 17.8259 80.8068 18.352C78.2963 19.0143 75.7654 18.9919 73.2589 18.3094C71.5202 17.836 70.0841 16.9381 69.2838 15.2337C69.034 14.7014 68.8268 13.7771 68.8349 13.0966L68.841 13.0945Z" fill="#B9C8DE"/>
<path d="M168.925 7.81204H167.34C167.192 7.53169 167.215 7.20665 167.154 6.8999C166.776 4.98827 165.577 3.88111 163.719 3.4423C161.785 2.98522 159.864 3.11117 157.979 3.67999C157 3.97455 156.266 4.59619 155.996 5.64647C155.761 6.56673 156.163 7.49716 156.987 7.96846C157.822 8.44586 158.753 8.62666 159.675 8.81966C161.489 9.20158 163.313 9.5449 165.122 9.94916C166.211 10.1929 167.239 10.5992 168.102 11.3529C168.835 11.9928 169.169 12.8054 169.199 13.7521C169.268 15.7491 168.315 17.291 166.363 18.067C164.761 18.7029 163.103 18.8105 161.409 18.7821C160.132 18.7618 158.883 18.6074 157.672 18.2051C156.689 17.8781 155.785 17.4169 155.042 16.6693C154.06 15.6861 153.656 14.4814 153.567 13.1061H155.249C155.336 13.4352 155.326 13.7541 155.409 14.0629C155.779 15.4261 156.691 16.2752 157.962 16.7811C159.21 17.2767 160.524 17.3621 161.846 17.3519C163.083 17.3418 164.31 17.2381 165.464 16.7526C166.323 16.393 167.038 15.8628 167.371 14.9243C167.777 13.7704 167.401 12.6124 166.252 12.0314C165.338 11.5703 164.361 11.3164 163.369 11.1112C161.931 10.8146 160.491 10.5302 159.051 10.2478C158.119 10.065 157.219 9.77649 156.348 9.41082C153.833 8.35851 153.823 5.58349 155.017 3.95424C155.87 2.79019 157.126 2.24982 158.48 1.95322C160.349 1.54489 162.232 1.51239 164.105 1.95119C165.677 2.32092 167.044 3.03601 167.95 4.42351C168.606 5.42707 168.941 6.54642 168.927 7.80797L168.925 7.81204Z" fill="#B9C8DE"/>
<path d="M8.71365 19.9772H0.036377V11.2966H8.71365V19.9772Z" fill="#B9C8DE"/>
<path d="M38.8348 3.68625H31.4981C31.4473 3.13572 31.4697 2.61972 31.4839 2.07935H47.835V3.65375H40.5248V16.7772H47.835V18.3638H31.5002V16.7772H38.8368V3.68625H38.8348Z" fill="#B9C8DE"/>
<path d="M152.374 18.3868H150.613C149.957 16.7494 149.299 15.1079 148.629 13.436H139.813C139.166 15.0531 138.503 16.7027 137.833 18.3725H136.072C138.245 12.922 140.405 7.51016 142.572 2.07593H145.871C148.022 7.46953 150.187 12.8956 152.374 18.3847V18.3868ZM143.687 3.69706C142.615 6.38878 141.548 9.06222 140.476 11.7539H147.977C146.888 9.03784 145.814 6.35628 144.747 3.69706H143.689H143.687Z" fill="#B9C8DE"/>
<path d="M116.382 18.3827H114.639C113.983 16.7271 113.323 15.0653 112.668 13.4178H103.928C103.272 15.0734 102.616 16.723 101.956 18.3847H100.205C102.362 12.9322 104.511 7.50003 106.662 2.0658H109.92C112.061 7.47159 114.206 12.8896 116.379 18.3827H116.382ZM112.006 11.7641C110.92 9.01755 109.859 6.33599 108.797 3.65036C108.397 3.71536 108.06 3.6077 107.751 3.7174C106.691 6.40302 105.641 9.06225 104.574 11.7641H112.006Z" fill="#B9C8DE"/>
<path d="M11.7135 8.74886V0.0683088C11.876 -0.0312342 12.0324 0.00736346 12.1806 0.00736346C13.4501 0.00330048 14.7176 0.00126899 15.9871 0.00736346C17.4841 0.0134579 18.7008 0.598527 19.6128 1.79304C20.8051 3.35526 20.7279 5.62443 19.4828 7.13383C18.5403 8.27552 17.3074 8.7448 15.8876 8.78543C14.5531 8.82403 13.2145 8.79355 11.878 8.79152C11.8313 8.79152 11.7845 8.76918 11.7114 8.75089L11.7135 8.74886Z" fill="#B9C8DE"/>
<path d="M11.7218 11.274C13.367 11.274 14.9757 11.1907 16.5743 11.2943C18.6563 11.4284 20.3503 13.2709 20.4803 15.3634C20.6103 17.4497 19.1864 19.3857 17.1613 19.8834C16.8627 19.9566 16.5641 19.9972 16.2594 19.9992C14.8396 19.9992 13.4178 20.0013 11.998 19.9992C11.9147 19.9992 11.8335 19.985 11.7197 19.9728V11.274H11.7218Z" fill="#B9C8DE"/>
<path d="M8.75649 4.36141C8.76665 6.80936 6.85123 8.74333 4.4077 8.75146C1.96417 8.75959 0.00406399 6.82764 1.59206e-06 4.40814C-0.0020296 1.97847 1.93979 0.0180881 4.36098 0.0058992C6.79436 -0.00425824 8.74634 1.92972 8.75649 4.35938V4.36141Z" fill="#B9C8DE"/>
<path d="M92.893 3.66838H85.5198V2.08179H101.871V3.65416H94.5241V18.3703H92.895V3.66838H92.893Z" fill="#B9C8DE"/>
</svg>
