<svg width="40" height="40" viewBox="0 0 40 40" fill="none" xmlns="http://www.w3.org/2000/svg">
<rect x="39.75" y="39.75" width="39.5" height="39.5" rx="7.75" transform="rotate(-180 39.75 39.75)" fill="#111111" stroke="url(#paint0_linear_14142_539)" stroke-width="0.5"/>
<path d="M27.9012 11.1111H22.963C22.4175 11.1111 21.9753 11.5533 21.9753 12.0987V17.037C21.9753 17.5825 22.4175 18.0247 22.963 18.0247H27.9012C28.4467 18.0247 28.8889 17.5825 28.8889 17.037V12.0987C28.8889 11.5533 28.4467 11.1111 27.9012 11.1111Z" fill="url(#paint1_linear_14142_539)"/>
<path d="M18.0247 28.8889V16.0494C18.0247 15.7874 17.9206 15.5362 17.7354 15.351C17.5502 15.1658 17.299 15.0617 17.037 15.0617H12.0988C11.8368 15.0617 11.5856 15.1658 11.4004 15.351C11.2152 15.5362 11.1111 15.7874 11.1111 16.0494V27.9012C11.1111 28.1632 11.2152 28.4144 11.4004 28.5996C11.5856 28.7848 11.8368 28.8889 12.0988 28.8889H23.9506C24.2126 28.8889 24.4638 28.7848 24.649 28.5996C24.8342 28.4144 24.9383 28.1632 24.9383 27.9012V22.9629C24.9383 22.701 24.8342 22.4498 24.649 22.2646C24.4638 22.0793 24.2126 21.9753 23.9506 21.9753H11.1111" fill="url(#paint2_linear_14142_539)"/>
<path d="M18.0247 28.8889V16.0494C18.0247 15.7874 17.9206 15.5362 17.7354 15.351C17.5502 15.1658 17.299 15.0617 17.037 15.0617H12.0988C11.8368 15.0617 11.5856 15.1658 11.4004 15.351C11.2152 15.5362 11.1111 15.7874 11.1111 16.0494V27.9012C11.1111 28.1632 11.2152 28.4144 11.4004 28.5996C11.5856 28.7848 11.8368 28.8889 12.0988 28.8889H23.9506C24.2126 28.8889 24.4638 28.7848 24.649 28.5996C24.8342 28.4144 24.9383 28.1632 24.9383 27.9012V22.9629C24.9383 22.701 24.8342 22.4498 24.649 22.2646C24.4638 22.0793 24.2126 21.9753 23.9506 21.9753H11.1111M22.963 11.1111H27.9012C28.4467 11.1111 28.8889 11.5533 28.8889 12.0987V17.037C28.8889 17.5825 28.4467 18.0247 27.9012 18.0247H22.963C22.4175 18.0247 21.9753 17.5825 21.9753 17.037V12.0987C21.9753 11.5533 22.4175 11.1111 22.963 11.1111Z" stroke="#1A1A1A" stroke-linecap="round" stroke-linejoin="round"/>
<defs>
<linearGradient id="paint0_linear_14142_539" x1="80" y1="36.6" x2="40" y2="80" gradientUnits="userSpaceOnUse">
<stop stop-color="#43E2C5"/>
<stop offset="1" stop-color="#70EE62"/>
</linearGradient>
<linearGradient id="paint1_linear_14142_539" x1="28.8889" y1="9.59997" x2="11.1111" y2="28.8889" gradientUnits="userSpaceOnUse">
<stop stop-color="#43E2C5"/>
<stop offset="1" stop-color="#70EE62"/>
</linearGradient>
<linearGradient id="paint2_linear_14142_539" x1="28.8889" y1="9.59997" x2="11.1111" y2="28.8889" gradientUnits="userSpaceOnUse">
<stop stop-color="#43E2C5"/>
<stop offset="1" stop-color="#70EE62"/>
</linearGradient>
</defs>
</svg>
