<svg width="85" height="24" viewBox="0 0 85 24" fill="none" xmlns="http://www.w3.org/2000/svg">
<path d="M36.6715 0V18.8428H46.5254V23.4488H31.2762V0H36.6715Z" fill="#B9C8DE"/>
<path d="M11.8258 0V8.31023C11.8775 8.30122 11.9763 8.32831 12.0145 8.30507C12.0358 8.29156 12.2219 7.93811 12.2703 7.86852C13.4813 6.13883 15.5734 5.49718 17.6153 6.00082C18.9845 6.33879 20.2613 7.15588 21.7112 7.21588C21.7209 7.26034 21.6776 7.25068 21.6466 7.2636C20.8531 7.59635 20.0668 7.77307 19.2875 8.19742C17.572 9.13248 16.626 10.6931 16.1866 12.5615C16.7262 12.7639 17.2489 13.0213 17.7471 13.3096C20.8241 15.0888 22.9758 18.2373 23.483 21.7636C23.5638 22.3241 23.587 22.8845 23.6174 23.4494H11.8251V13.7862H11.6313C11.139 16.8049 9.33425 19.5516 6.84076 21.298C4.8603 22.6858 2.43853 23.4739 0.00124915 23.4488V11.7244H9.27349L9.25474 11.4632C3.95246 10.3411 -0.0814578 5.44042 0.00124915 0H11.8258ZM16.6247 8.01749C16.6247 7.54993 16.2448 7.17136 15.7757 7.17136C15.3066 7.17136 14.9267 7.54993 14.9267 8.01749C14.9267 8.48499 15.3066 8.86357 15.7757 8.86357C16.2448 8.86357 16.6247 8.48499 16.6247 8.01749Z" fill="#B9C8DE"/>
<path d="M73.985 1.6438V6.21746H77.0866V9.95404H73.985L73.9838 17.5085C74.0705 18.3901 74.0723 19.529 75.0846 19.8572C75.6382 20.0365 76.3283 19.9959 76.8926 19.8746V23.6757C76.1283 23.784 75.3575 23.8782 74.5814 23.8705C73.4243 23.8582 71.9634 23.6912 70.9475 23.1127C69.1241 22.0744 68.8861 19.8579 68.8143 17.9599L68.8155 9.95404H66.2314V6.21746H68.8155V1.6438H73.985Z" fill="#B9C8DE"/>
<path d="M84.26 6.21716H79.1232V23.4497H84.26V6.21716Z" fill="#B9C8DE"/>
<path d="M84.26 0H79.1232V4.21962H84.26V0Z" fill="#B9C8DE"/>
<path d="M56.0168 5.64708C62.1313 5.3543 66.3443 9.71577 65.8447 15.7998C65.3569 21.742 60.2278 24.7815 54.5629 23.827C50.3196 23.1124 47.6103 19.9833 47.2685 15.7354C46.8168 10.1279 50.3552 5.91861 56.0168 5.64708ZM56.0168 9.70546C53.8877 9.8983 52.8021 11.8717 52.5993 13.8032C52.324 16.4196 52.983 19.7196 56.1693 19.9382C59.6688 20.1788 60.6663 17.0316 60.4491 14.125C60.2557 11.5325 58.8856 9.44556 56.0168 9.70546Z" fill="#B9C8DE"/>
</svg>
