<svg width="95" height="30" viewBox="0 0 95 30" fill="none" xmlns="http://www.w3.org/2000/svg">
<path d="M40.4372 12.3413L43.8634 18.0271L43.9708 17.9498L47.3317 12.3844L47.4715 12.339L49.9505 12.3413V22.8337H47.6822V15.7619C46.516 17.4405 45.4712 19.2062 44.3509 20.9176C44.249 21.0236 43.5241 21.0088 43.4653 20.9556L40.1965 15.8207L40.0905 15.7624V22.8342H37.8684V12.3418H40.4377L40.4372 12.3413Z" fill="#B9C8DE"/>
<path d="M87.3788 12.3416L89.4463 15.5002L89.5541 15.5775L91.5485 12.4832L91.6841 12.3416H94.3923L90.7966 17.3565L94.7626 22.834H92.0082L89.6162 19.2596L89.4861 19.136L87.0779 22.834H84.3003L88.2741 17.3482L84.6706 12.3416H87.3788Z" fill="#B9C8DE"/>
<path d="M80.0412 19.9681H75.0415C75.448 21.481 77.5464 21.5106 78.4899 20.4875L79.9481 21.3778C79.6259 21.9314 79.1112 22.3384 78.5302 22.5967C76.4516 23.5198 73.6323 22.6569 73.0648 20.3014C72.4921 17.9238 74.2522 15.8189 76.6872 15.8989C78.9144 15.9721 80.4097 17.7636 80.0412 19.9686V19.9681ZM78.1432 18.7201C77.7714 17.1628 75.473 17.1702 75.0878 18.7201H78.1432Z" fill="#B9C8DE"/>
<path d="M57.7743 22.8336H55.7837V22.2331C55.7397 22.1836 55.424 22.5183 55.3546 22.5669C53.9417 23.5613 51.3414 22.7387 51.4844 20.7365C51.6344 18.6366 54.1417 18.5621 55.7379 18.5579C55.3314 17.1066 53.4283 17.7163 52.5436 18.3505L51.8913 16.9474C53.5237 15.4627 56.9883 15.3975 57.6581 17.889C57.6896 18.0061 57.7743 18.3237 57.7743 18.42V22.834V22.8336ZM54.7884 19.968C54.493 20.0444 54.1977 20.0273 53.9079 20.1518C53.3834 20.3772 53.2005 20.9462 53.613 21.3726C54.0255 21.7989 54.8759 21.7563 55.3222 21.4249C55.4573 21.3244 55.7837 20.9365 55.7837 20.7763V20.0365C55.7837 20.0314 55.7193 19.9671 55.7143 19.9671H54.7884V19.968Z" fill="#B9C8DE"/>
<path d="M66.7552 16.0392L68.5842 20.4306L70.4587 16.0392H72.7733L69.649 22.7878L67.6561 22.8369L64.4868 16.0392H66.7552Z" fill="#B9C8DE"/>
<path d="M83.328 10.5383H81.3374V22.8334H83.328V10.5383Z" fill="#B9C8DE"/>
<path d="M63.8386 15.9004V18.0729C62.8882 17.6892 61.9508 18.0253 61.6147 19.0187C61.5795 19.1224 61.4777 19.4923 61.4777 19.5752V22.8338H59.4871V16.0393H61.4777V17.2873C61.5897 17.3123 61.5527 17.2674 61.5809 17.2267C62.1425 16.4161 62.7966 15.9055 63.8386 15.9004Z" fill="#B9C8DE"/>
<path d="M28.7186 0.283779C28.4256 0.134251 28.1334 0.084717 27.8224 0H2.26838C1.0629 0.117122 0.125918 1.12586 0 2.31097V27.6872C0.0689772 27.9654 0.111104 28.2362 0.223134 28.5043C0.580983 29.3616 1.46056 29.9375 2.38457 29.9977L27.6622 30C28.9501 29.9051 29.9111 28.9964 30.0463 27.7117V2.28643C29.9588 1.45269 29.4718 0.668477 28.7186 0.284242V0.283779Z" fill="#B9C8DE"/>
<path d="M22.707 18.7641L19.6067 9.38089L16.8911 12.1029L16.7597 12.0645L15.4463 10.7845C16.7069 9.39987 18.0494 8.09115 19.3516 6.7454C19.8053 6.34635 20.4613 6.42042 20.8307 6.88845C22.6278 11.9229 24.2338 17.0387 25.9586 22.1037C26.3688 23.1263 25.1305 23.9629 24.3263 23.2259L10.4689 9.38181L7.30054 18.7414L13.1761 13.0066L13.2928 13.0297L14.6066 14.3898L5.60897 23.293C5.14095 23.6888 4.35026 23.5124 4.09842 22.9555C3.89241 22.5 4.0799 22.1065 4.2123 21.6667C5.68165 16.7892 7.57691 12.0233 9.06756 7.15001C9.34856 6.4806 10.1656 6.30423 10.7008 6.79216L22.7065 18.7646L22.707 18.7641Z" fill="#111111"/>
</svg>
