<svg width="158" height="30" viewBox="0 0 158 30" fill="none" xmlns="http://www.w3.org/2000/svg">
<path d="M50.1396 5.45295L53.4361 5.44812L53.4364 21.2571L49.6946 21.2614C49.6495 19.9287 49.682 18.4271 49.6817 17.0817C49.6761 15.5062 49.6607 13.2911 49.8652 11.7374C49.435 12.5155 48.8208 13.4258 48.3325 14.1851C47.6461 15.2528 46.9549 16.3603 46.2503 17.4126L44.7041 17.4136C44.6342 17.273 44.5498 17.1257 44.467 16.9924C43.3981 15.2714 42.2558 13.5929 41.224 11.8492C41.2711 12.1098 41.2783 12.3569 41.2928 12.6201C41.4509 15.4963 41.3999 18.3786 41.4017 21.2603L37.6476 21.2637C37.5865 20.4029 37.6192 19.2173 37.6191 18.3366L37.6206 13.2424L37.6188 8.35611C37.6178 7.4761 37.5857 6.31882 37.6476 5.45667C38.7847 5.44566 39.9219 5.44742 41.059 5.46199C41.761 6.4804 42.607 7.95462 43.2674 9.03221C43.9703 10.179 44.9275 11.6442 45.5496 12.8047C47.0677 10.3973 48.5784 7.81015 50.1396 5.45295Z" fill="#B9C8DE"/>
<path d="M94.0906 5.45482L97.9669 5.446C99.0239 5.44436 100.509 5.35557 101.512 5.62821C105.123 6.61061 105.675 10.9155 102.458 12.8357C102.589 12.8859 102.718 12.9397 102.847 12.997C105.281 14.1002 105.956 16.401 104.882 18.7737C104.673 19.1754 104.406 19.5437 104.088 19.8663C102.487 21.4938 100.364 21.2675 98.2871 21.2631C96.8878 21.2562 95.488 21.2567 94.0884 21.2645C94.0713 20.5494 94.0721 19.8163 94.0794 19.1C94.1253 14.5593 94.01 9.99304 94.0906 5.45482ZM103.074 19.1313C105.036 17.0454 104.025 14.254 101.431 13.7656C99.8292 13.4638 96.9527 13.6 95.2666 13.6302C95.1209 14.0533 95.219 19.3177 95.2207 20.0934L98.6061 20.106C100.188 20.1103 101.802 20.2762 103.074 19.1313ZM95.216 12.4747L98.4425 12.4849C99.9697 12.488 101.156 12.6608 102.42 11.6309C103.029 10.9746 103.382 10.3401 103.319 9.45357C103.132 6.79729 101.017 6.54702 98.8627 6.62856C97.7354 6.67123 96.3254 6.66591 95.2303 6.63489C95.2148 8.58146 95.21 10.5281 95.216 12.4747Z" fill="#B9C8DE"/>
<path d="M82.4154 9.02949C84.3982 8.94818 85.3074 9.19514 86.6837 10.6567C86.6431 10.2199 86.6744 9.70509 86.6895 9.26114L90.2705 9.26629C90.1858 13.1481 90.2645 17.3162 90.2628 21.2252C89.0367 21.2123 87.8105 21.213 86.5844 21.2273L86.5783 20.1317C86.5853 20.0598 86.5668 19.9919 86.5528 19.9203C86.3664 19.9634 85.9366 20.475 85.696 20.6247C85.1639 20.9556 84.5982 21.1943 83.987 21.3239C82.7261 21.5822 81.4141 21.3328 80.3359 20.63C76.7446 18.287 76.866 11.4417 80.8307 9.51665C81.3626 9.25836 81.8459 9.14532 82.4154 9.02949ZM84.4062 18.3408C86.2368 18.0434 86.9507 16.1608 86.6501 14.507C86.3423 12.8131 85.3259 12.0036 83.6448 12.0708C80.9577 12.587 80.5788 16.4314 82.5844 17.9441C83.119 18.3472 83.7586 18.3684 84.4062 18.3408Z" fill="#B9C8DE"/>
<path d="M143.265 4.56367L144.431 4.55859C144.356 6.37596 144.414 8.56826 144.414 10.4267L144.421 21.2584L143.309 21.2628C143.271 20.4965 143.223 19.709 143.233 18.9437C143.176 19.0271 143.117 19.11 143.058 19.1922C141.207 21.77 137.904 22.2003 135.356 20.3681C130.859 16.5989 133.452 8.2675 139.772 9.38069C141.354 9.65929 142.375 10.551 143.254 11.8317C143.242 11.4749 143.243 11.1 143.247 10.7428C143.272 8.69023 143.199 6.6135 143.265 4.56367ZM139.28 20.2991C143.551 19.926 144.674 13.8718 141.6 11.3908C140.727 10.6868 139.403 10.2274 138.298 10.4679C135.353 10.887 134.038 13.4573 134.403 16.2537C134.571 17.5329 135.184 18.6941 136.223 19.4831C137.26 20.2435 138.062 20.3234 139.28 20.2991Z" fill="#B9C8DE"/>
<path d="M129.765 4.56431L130.885 4.55884C130.832 6.47506 130.87 8.54248 130.87 10.4675L130.875 21.2572L129.792 21.2642C129.743 20.5231 129.747 19.6886 129.735 18.9394C129.565 19.1832 129.382 19.4179 129.188 19.6425C128.263 20.7194 126.943 21.3785 125.527 21.471C124.194 21.5631 122.737 21.149 121.721 20.266C119.844 18.6331 119.24 16.1475 119.764 13.7594C120.086 12.256 120.99 10.9412 122.279 10.1027C124.913 8.42187 128.13 9.31707 129.78 11.9135C129.706 11.249 129.739 9.77269 129.745 9.03293C129.757 7.58192 129.708 5.99866 129.765 4.56431ZM125.761 20.2985C128.62 20.0628 130.003 17.3544 129.783 14.7151C129.69 13.4422 129.093 12.2591 128.125 11.4273C127.208 10.6516 125.98 10.2778 124.784 10.466C118.733 11.3639 120.021 21.0088 125.761 20.2985Z" fill="#B9C8DE"/>
<path d="M61.2882 9.03048C63.225 8.95482 64.7755 9.20033 66.1911 10.6713C67.7171 12.2571 67.7781 13.9853 67.7302 16.0357C64.996 16.0231 62.2617 16.0246 59.5275 16.0404C60.1177 17.7958 61.7308 18.4615 63.5014 18.2341C64.294 18.1323 64.9491 17.7097 65.5837 17.2539L66.2938 18.2756C66.6356 18.7447 66.973 19.2171 67.3059 19.6926C66.1558 20.5437 65.3356 21.0379 63.8678 21.3177C57.8713 22.4609 53.9558 16.6534 57.1188 11.5022C58.0445 9.99475 59.5802 9.34891 61.2882 9.03048ZM59.5125 13.9864L62.2704 13.9864C62.9436 13.9873 63.7503 13.9677 64.4128 13.9989C64.1377 12.4531 63.1207 11.9417 61.6318 12.0667C60.4143 12.3057 59.896 12.8228 59.5125 13.9864Z" fill="#B9C8DE"/>
<path d="M70.8967 6.24646C72.0804 6.25769 73.2643 6.2584 74.448 6.24861L74.4478 9.29491C75.2219 9.30066 75.9961 9.29499 76.7701 9.2779L76.7737 12.4622L74.4419 12.4679C74.4849 15.3617 74.4466 18.3546 74.448 21.2566L70.859 21.2639C70.7975 20.1486 70.8297 18.7788 70.8292 17.6445C70.823 15.9179 70.8259 14.1913 70.8381 12.4648L68.7234 12.4684C68.6793 11.6252 68.6636 10.1245 68.7217 9.29166L70.8559 9.29004C70.8183 8.86193 70.7741 6.55292 70.8967 6.24646Z" fill="#B9C8DE"/>
<path d="M146.163 9.49714C146.469 9.49368 146.953 9.46984 147.243 9.54883C147.373 9.58147 147.473 9.76221 147.527 9.87621C148.572 12.0721 149.586 14.2851 150.611 16.4911C151.122 17.5943 151.674 18.7121 152.141 19.8317C152.531 19.0097 152.979 17.7401 153.341 16.8646C154.347 14.4323 155.271 11.9292 156.287 9.50148L157.522 9.4992L155.108 15.5789L152.259 22.7502C151.788 23.939 151.306 25.2591 150.792 26.4178H149.611C150.12 24.8041 151.04 22.9673 151.577 21.305C151.304 20.4634 150.401 18.7374 150.012 17.8531C148.805 15.1049 147.31 12.2568 146.163 9.49714Z" fill="#B9C8DE"/>
<path d="M116.222 9.49895C116.592 9.50769 116.986 9.49802 117.358 9.49504L117.36 12.6777L117.362 21.2559L116.238 21.2647C116.226 20.5748 116.182 19.8663 116.148 19.1755C115.912 19.6006 115.601 19.9806 115.232 20.2976C113.615 21.7078 110.608 22.0354 109.067 20.313C107.628 18.5265 108.031 15.7601 107.987 13.5895C107.962 12.3001 107.934 10.7498 108.025 9.50637L109.144 9.49329L109.146 14.489C109.146 16.9024 108.787 20.3594 112.174 20.3758C113.273 20.3813 114.329 19.9539 115.115 19.1861C115.583 18.7295 115.915 18.1518 116.074 17.5175C116.29 16.6616 116.222 14.9361 116.22 13.989L116.222 9.49895Z" fill="#B9C8DE"/>
<path d="M22.5328 12.8378C24.0939 12.6878 26.4365 13.8914 27.6022 14.8877C27.425 15.0337 27.2395 15.2065 27.0681 15.3611C26.7132 15.0705 26.5363 14.8495 26.075 14.682C25.1789 14.3391 24.2512 15.2012 24.0279 16.0368C23.543 17.8505 24.0487 19.8253 24.42 21.6232C24.4824 21.9251 24.7057 22.3863 24.8131 22.6963C25.1305 23.6117 25.5412 24.4912 25.9645 25.3612C26.2443 25.9163 26.5984 26.5227 26.8977 27.0826C26.4404 27.4966 25.7365 27.9823 25.2255 28.3765C24.7549 28.7491 24.2807 29.1172 23.803 29.4808C23.5639 29.6604 23.3187 29.814 23.0866 30C22.4632 29.1772 21.6071 28.1369 21.0229 27.2905C19.9736 25.6875 18.9953 23.9478 18.3553 22.138C17.9956 21.1206 17.9806 19.8052 17.9418 18.7411C17.8841 17.1647 18.3319 16.0135 19.2946 14.792C20.2261 13.6101 21.0284 13.0285 22.5328 12.8378Z" fill="#B9C8DE"/>
<path d="M5.70156 9.80674C6.42152 9.77105 8.3161 9.81659 8.99367 9.89696C11.4098 10.1835 14.0896 11.436 15.5408 13.4417C16.3055 14.4985 17.0604 15.8537 16.8624 17.2015C16.6728 18.491 15.7992 19.6284 14.7724 20.3776C14.5036 20.5737 13.6175 21.2923 13.3386 21.2569C13.2172 21.148 13.1386 20.8359 13.0896 20.6729C13.6483 20.3217 14.1853 20.0623 14.2434 19.3248C14.0685 18.4904 13.5813 17.7449 12.8763 17.3038C10.5667 15.8587 7.74207 15.4271 5.05933 15.3462C3.93489 15.3122 2.84002 15.2358 1.70928 15.4373C1.28253 14.5621 1.13618 13.8519 0.815704 12.9521C0.546698 12.1968 0.219714 11.5448 0 10.7503C0.150572 10.658 0.251861 10.6444 0.415947 10.6039C1.84943 10.2501 3.3037 9.89237 4.78543 9.83818C5.08973 9.82705 5.3961 9.81639 5.70156 9.80674Z" fill="#B9C8DE"/>
<path d="M23.1873 0C24.1099 0.148745 25.0527 0.48386 25.9565 0.719689C26.207 0.785065 28.0444 1.22437 28.0386 1.40905C28.0094 2.33544 27.4886 3.68969 27.174 4.57571C26.1728 7.39549 24.4449 10.3043 21.6657 11.655C19.6432 12.645 17.8001 12.6916 15.7055 11.9673C13.0558 10.7355 12.8439 8.54339 12.5887 5.95038C12.8429 6.01607 13.0266 6.05183 13.2863 6.09408C13.2673 6.38469 13.2378 6.68431 13.2873 6.97344C13.3475 7.32454 13.5412 7.60757 13.8332 7.80878C14.3467 8.16263 15.0267 8.27301 15.6333 8.15972C18.4153 7.64024 21.0495 3.97743 22.4007 1.67146C22.6753 1.20274 22.9218 0.375037 23.1712 0.0223448C23.1765 0.0148341 23.1819 0.00744613 23.1873 0Z" fill="#B9C8DE"/>
</svg>
