<svg width="64" height="83" viewBox="0 0 64 83" fill="none" xmlns="http://www.w3.org/2000/svg">
<path d="M29.0626 20.4697C30.7256 19.5096 32.7745 19.5096 34.4376 20.4697L53.0626 31.2227C54.7256 32.1829 55.7501 33.9576 55.7501 35.8779V57.3838C55.7501 59.3042 54.7256 61.0788 53.0626 62.0391L34.4376 72.792C32.7745 73.7521 30.7256 73.7521 29.0626 72.792L10.4376 62.0391C8.77448 61.0788 7.75006 59.3042 7.75006 57.3838V35.8779C7.75006 33.9575 8.77448 32.1829 10.4376 31.2227L29.0626 20.4697ZM28.6739 38.7168C27.1899 38.7453 26.0022 40.5735 26.0215 42.7998C26.041 45.0263 27.2601 46.8087 28.7442 46.7803C30.2281 46.7517 31.4149 44.9235 31.3956 42.6973C31.3761 40.4709 30.1579 38.6885 28.6739 38.7168ZM44.378 38.7168C42.894 38.7453 41.7063 40.5735 41.7256 42.7998C41.7451 45.0263 42.9642 46.8087 44.4483 46.7803C45.9323 46.7517 47.12 44.9235 47.1006 42.6973C47.0812 40.4709 45.862 38.6884 44.378 38.7168Z" fill="url(#paint0_linear_14490_2056)"/>
<path d="M28.4113 12.692C30.5868 11.436 33.2671 11.436 35.4425 12.692L59.5882 26.6325C61.7637 27.8885 63.1038 30.2097 63.1038 32.7218V60.6028C63.1038 63.1148 61.7637 65.436 59.5882 66.692L35.4425 80.6325C33.2671 81.8885 30.5868 81.8885 28.4113 80.6325L4.26562 66.692C2.09015 65.436 0.75 63.1148 0.75 60.6028V32.7218C0.75 30.2097 2.09015 27.8885 4.26562 26.6325L28.4113 12.692Z" stroke="#DDEBF2" stroke-width="1.5"/>
<circle cx="22.6251" cy="4.96875" r="4.21875" stroke="#DDEBF2" stroke-width="1.5"/>
<defs>
<linearGradient id="paint0_linear_14490_2056" x1="-2.5768" y1="28.2899" x2="66.1023" y2="68.3736" gradientUnits="userSpaceOnUse">
<stop offset="0.165259" stop-color="#26D6FF"/>
<stop offset="1" stop-color="#D77AFF"/>
</linearGradient>
</defs>
</svg>
