<svg width="57" height="57" viewBox="0 0 57 57" fill="none" xmlns="http://www.w3.org/2000/svg">
<path d="M56.5 45.3C56.5 51.4856 51.4856 56.5 45.3 56.5L11.7 56.5C5.51441 56.5 0.500004 51.4856 0.500005 45.3L0.500008 11.7C0.500008 5.51441 5.51442 0.499999 11.7 0.5L45.3 0.500003C51.4856 0.500003 56.5 5.51442 56.5 11.7L56.5 45.3Z" fill="#111111" stroke="#6E6B91"/>
<path d="M27.1158 17.7868C27.85 17.3629 28.7547 17.3629 29.4889 17.7868L39.5182 23.5768C40.2523 24.0007 40.7047 24.7847 40.7047 25.6325V37.2125C40.7047 38.0603 40.2523 38.8443 39.5182 39.2682L29.4889 45.0582C28.7547 45.4821 27.85 45.4821 27.1158 45.0582L17.0865 39.2682C16.3523 38.8443 15.9 38.0604 15.9 37.2125V25.6325C15.9 24.7847 16.3523 24.0007 17.0865 23.5768L27.1158 17.7868ZM26.5826 27.2848C25.7919 27.3 25.1593 28.2743 25.1696 29.4606C25.1799 30.6469 25.829 31.5969 26.6198 31.5817C27.4105 31.5664 28.0432 30.5922 28.0328 29.4059C28.0225 28.2198 27.3732 27.27 26.5826 27.2848ZM34.9508 27.2848C34.1601 27.3 33.5274 28.2743 33.5377 29.4606C33.5481 30.6468 34.1973 31.5966 34.9879 31.5817C35.7787 31.5665 36.4113 30.5922 36.401 29.4059C36.3907 28.2196 35.7416 27.2697 34.9508 27.2848Z" fill="url(#paint0_linear_14950_263)"/>
<path d="M27.1158 17.7868L26.8659 17.3537L26.8659 17.3537L27.1158 17.7868ZM29.4889 17.7868L29.2389 18.2198L29.2389 18.2198L29.4889 17.7868ZM39.5182 23.5768L39.7682 23.1438L39.7682 23.1438L39.5182 23.5768ZM39.5182 39.2682L39.7682 39.7012L39.7682 39.7012L39.5182 39.2682ZM29.4889 45.0582L29.2389 44.6252L29.2389 44.6252L29.4889 45.0582ZM27.1158 45.0582L26.8659 45.4913L26.8659 45.4913L27.1158 45.0582ZM17.0865 39.2682L16.8365 39.7012L16.8366 39.7012L17.0865 39.2682ZM17.0865 23.5768L16.8366 23.1438L16.8365 23.1438L17.0865 23.5768ZM26.5826 27.2848L26.5733 26.7849L26.5731 26.7849L26.5826 27.2848ZM25.1696 29.4606L24.6696 29.4649V29.465L25.1696 29.4606ZM26.6198 31.5817L26.6293 32.0816L26.6294 32.0816L26.6198 31.5817ZM28.0328 29.4059L28.5328 29.4015V29.4015L28.0328 29.4059ZM34.9508 27.2848L34.9412 26.7849H34.9412L34.9508 27.2848ZM33.5377 29.4606L33.0377 29.4649V29.465L33.5377 29.4606ZM34.9879 31.5817L34.9973 32.0816L34.9975 32.0816L34.9879 31.5817ZM36.401 29.4059L36.901 29.4015V29.4015L36.401 29.4059ZM27.1158 17.7868L27.3658 18.2198C27.9454 17.8852 28.6594 17.8852 29.2389 18.2198L29.4889 17.7868L29.7389 17.3538C28.85 16.8405 27.7547 16.8406 26.8659 17.3537L27.1158 17.7868ZM29.4889 17.7868L29.2389 18.2198L39.2682 24.0098L39.5182 23.5768L39.7682 23.1438L29.7389 17.3537L29.4889 17.7868ZM39.5182 23.5768L39.2682 24.0098C39.8475 24.3444 40.2047 24.9632 40.2047 25.6325H40.7047H41.2047C41.2047 24.6062 40.6571 23.6571 39.7682 23.1438L39.5182 23.5768ZM40.7047 25.6325H40.2047V37.2125H40.7047H41.2047V25.6325H40.7047ZM40.7047 37.2125H40.2047C40.2047 37.8818 39.8475 38.5007 39.2682 38.8352L39.5182 39.2682L39.7682 39.7012C40.6571 39.1879 41.2047 38.2388 41.2047 37.2125H40.7047ZM39.5182 39.2682L39.2682 38.8352L29.2389 44.6252L29.4889 45.0582L29.7389 45.4913L39.7682 39.7012L39.5182 39.2682ZM29.4889 45.0582L29.2389 44.6252C28.6594 44.9598 27.9454 44.9598 27.3658 44.6252L27.1158 45.0582L26.8659 45.4913C27.7547 46.0044 28.85 46.0045 29.7389 45.4913L29.4889 45.0582ZM27.1158 45.0582L27.3658 44.6252L17.3365 38.8352L17.0865 39.2682L16.8366 39.7012L26.8659 45.4913L27.1158 45.0582ZM17.0865 39.2682L17.3365 38.8352C16.7571 38.5007 16.4 37.8818 16.4 37.2125H15.9H15.4C15.4 38.2389 15.9475 39.1879 16.8365 39.7012L17.0865 39.2682ZM15.9 37.2125H16.4V25.6325H15.9H15.4V37.2125H15.9ZM15.9 25.6325H16.4C16.4 24.9632 16.7571 24.3443 17.3365 24.0098L17.0865 23.5768L16.8365 23.1438C15.9475 23.6571 15.4 24.6062 15.4 25.6325H15.9ZM17.0865 23.5768L17.3365 24.0098L27.3658 18.2198L27.1158 17.7868L26.8659 17.3537L16.8366 23.1438L17.0865 23.5768ZM26.5826 27.2848L26.5731 26.7849C25.9595 26.7967 25.4696 27.1789 25.1564 27.6612C24.8405 28.1477 24.6637 28.7868 24.6696 29.4649L25.1696 29.4606L25.6695 29.4563C25.6651 28.9481 25.7995 28.507 25.9951 28.2059C26.1932 27.9007 26.4151 27.7881 26.5922 27.7847L26.5826 27.2848ZM25.1696 29.4606L24.6696 29.465C24.6755 30.1429 24.8632 30.777 25.1892 31.2539C25.5132 31.7278 26.0136 32.0934 26.6293 32.0816L26.6198 31.5817L26.6102 31.0818C26.4351 31.0851 26.2156 30.9833 26.0148 30.6895C25.816 30.3987 25.674 29.9646 25.6695 29.4562L25.1696 29.4606ZM26.6198 31.5817L26.6294 32.0816C27.2429 32.0698 27.7327 31.6876 28.046 31.2053C28.3619 30.7188 28.5387 30.0797 28.5328 29.4015L28.0328 29.4059L27.5329 29.4103C27.5373 29.9184 27.4029 30.3595 27.2074 30.6606C27.0092 30.9657 26.7873 31.0784 26.6101 31.0818L26.6198 31.5817ZM28.0328 29.4059L28.5328 29.4015C28.5269 28.7236 28.3391 28.0897 28.0131 27.6128C27.6891 27.139 27.1888 26.7734 26.5733 26.7849L26.5826 27.2848L26.592 27.7847C26.7671 27.7815 26.9867 27.8834 27.1876 28.1772C27.3864 28.4681 27.5284 28.9021 27.5329 29.4103L28.0328 29.4059ZM34.9508 27.2848L34.9412 26.7849C34.3276 26.7967 33.8378 27.1789 33.5245 27.6612C33.2087 28.1477 33.0319 28.7868 33.0377 29.4649L33.5377 29.4606L34.0377 29.4563C34.0333 28.9481 34.1677 28.507 34.3632 28.2059C34.5614 27.9007 34.7832 27.7881 34.9604 27.7847L34.9508 27.2848ZM33.5377 29.4606L33.0377 29.465C33.0437 30.1429 33.2314 30.7768 33.5574 31.2537C33.8814 31.7276 34.3818 32.0932 34.9973 32.0816L34.9879 31.5817L34.9785 31.0818C34.8034 31.0851 34.5838 30.9832 34.383 30.6894C34.1841 30.3985 34.0421 29.9645 34.0377 29.4562L33.5377 29.4606ZM34.9879 31.5817L34.9975 32.0816C35.6111 32.0698 36.1009 31.6877 36.4142 31.2053C36.7301 30.7189 36.9069 30.0797 36.901 29.4015L36.401 29.4059L35.901 29.4103C35.9054 29.9184 35.7711 30.3596 35.5755 30.6607C35.3774 30.9658 35.1555 31.0784 34.9783 31.0818L34.9879 31.5817ZM36.401 29.4059L36.901 29.4015C36.8951 28.7236 36.7073 28.0896 36.3813 27.6126C36.0573 27.1387 35.5569 26.7731 34.9412 26.7849L34.9508 27.2848L34.9604 27.7847C35.1355 27.7814 35.3549 27.8832 35.5558 28.177C35.7546 28.4678 35.8966 28.9019 35.901 29.4103L36.401 29.4059Z" fill="#1A1A1A"/>
<circle cx="22.0291" cy="14.7174" r="3.01742" fill="url(#paint1_linear_14950_263)" stroke="#1A1A1A" stroke-linecap="round" stroke-linejoin="round"/>
<defs>
<linearGradient id="paint0_linear_14950_263" x1="13.131" y1="44.5861" x2="44.6154" y2="19.7581" gradientUnits="userSpaceOnUse">
<stop offset="0.168669" stop-color="#00FE6B"/>
<stop offset="0.887092" stop-color="#00B7E2"/>
</linearGradient>
<linearGradient id="paint1_linear_14950_263" x1="18.338" y1="17.564" x2="25.2895" y2="11.3964" gradientUnits="userSpaceOnUse">
<stop offset="0.168669" stop-color="#00FE6B"/>
<stop offset="0.887092" stop-color="#00B7E2"/>
</linearGradient>
</defs>
</svg>
