<svg width="64" height="71" viewBox="0 0 64 71" fill="none" xmlns="http://www.w3.org/2000/svg">
<path d="M28.1613 1.44201C30.3368 0.185997 33.0171 0.185997 35.1925 1.44201L59.3382 15.3825C61.5137 16.6385 62.8538 18.9597 62.8538 21.4718V49.3528C62.8538 51.8648 61.5137 54.186 59.3382 55.442L35.1925 69.3825C33.0171 70.6385 30.3368 70.6385 28.1613 69.3825L4.01562 55.442C1.84015 54.186 0.5 51.8648 0.5 49.3528V21.4718C0.5 18.9597 1.84015 16.6385 4.01562 15.3825L28.1613 1.44201Z" fill="#111111" stroke="#6E6B91"/>
<path d="M29.5758 47.3416C31.8796 47.7198 34.2437 47.4173 36.3777 46.4712C38.5118 45.5251 40.3227 43.9767 41.5879 42.0161C42.8532 40.0556 43.5176 37.7685 43.4996 35.4358C43.4816 33.1031 42.782 30.8264 41.4866 28.8856M33.2903 23.6372C30.9959 23.2871 28.6492 23.6104 26.5353 24.5678C24.4213 25.5252 22.6312 27.0754 21.3823 29.0302C20.1335 30.9849 19.4797 33.26 19.5005 35.579C19.5212 37.898 20.2156 40.161 21.4992 42.0932M35.0874 35.4895C35.0874 37.4731 33.4781 39.0811 31.493 39.0811C29.5078 39.0811 27.8985 37.4731 27.8985 35.4895C27.8985 33.5059 29.5078 31.8979 31.493 31.8979C33.4781 31.8979 35.0874 33.5059 35.0874 35.4895ZM42.2763 27.1091C42.2763 28.4315 41.2035 29.5035 39.88 29.5035C38.5566 29.5035 37.4837 28.4315 37.4837 27.1091C37.4837 25.7867 38.5566 24.7147 39.88 24.7147C41.2035 24.7147 42.2763 25.7867 42.2763 27.1091ZM25.5022 43.8699C25.5022 45.1922 24.4293 46.2642 23.1059 46.2642C21.7824 46.2642 20.7096 45.1922 20.7096 43.8699C20.7096 42.5475 21.7824 41.4755 23.1059 41.4755C24.4293 41.4755 25.5022 42.5475 25.5022 43.8699Z" stroke="url(#paint0_linear_14951_290)" stroke-width="2" stroke-linecap="round" stroke-linejoin="round"/>
<defs>
<linearGradient id="paint0_linear_14951_290" x1="24.0078" y1="23.5" x2="42.3993" y2="46.7768" gradientUnits="userSpaceOnUse">
<stop stop-color="#FFA5FF"/>
<stop offset="1" stop-color="#926FF0"/>
</linearGradient>
</defs>
</svg>
