<svg width="1464" height="404" viewBox="0 0 1464 404" fill="none" xmlns="http://www.w3.org/2000/svg">
<path d="M259.964 224.342L206.929 196.307L114.866 147.65C114.782 147.566 114.614 147.566 114.53 147.566C111.169 145.969 107.723 149.331 108.984 152.692L155.893 272.335L155.902 272.361C155.952 272.478 155.994 272.596 156.044 272.714C157.969 277.176 162.171 279.932 166.742 281.016C167.129 281.1 167.405 281.177 167.87 281.269C168.331 281.372 168.978 281.512 169.532 281.554C169.625 281.563 169.709 281.563 169.801 281.571H169.868C169.936 281.579 170.003 281.579 170.07 281.588H170.163C170.221 281.596 170.289 281.596 170.347 281.596H170.457C170.524 281.605 170.591 281.605 170.658 281.605V281.605C229.782 288.051 290.289 288.051 349.413 281.605V281.605C350.127 281.605 350.825 281.571 351.497 281.504C351.715 281.479 351.925 281.453 352.136 281.428C352.161 281.42 352.194 281.42 352.22 281.411C352.362 281.395 352.505 281.369 352.648 281.344C352.858 281.319 353.068 281.277 353.278 281.235C353.699 281.142 353.89 281.075 354.46 280.879C355.03 280.683 355.977 280.341 356.569 280.055C357.162 279.769 357.573 279.495 358.069 279.184C358.682 278.798 359.265 278.402 359.857 277.959C360.112 277.763 360.287 277.638 360.472 277.462L360.371 277.403L259.964 224.342Z" fill="#FAFAFA"/>
<path d="M405.215 147.651H405.131L313.035 196.309L364.23 272.555L411.022 152.694V152.525C412.199 148.996 408.585 145.803 405.215 147.651" fill="#A3A8B8"/>
<path d="M264.872 124.516C262.519 121.079 257.393 121.079 255.124 124.516L206.929 196.308L259.965 224.343L360.473 277.462C361.104 276.844 361.61 276.242 362.145 275.606C362.901 274.673 363.607 273.673 364.229 272.555L313.034 196.308L264.872 124.516Z" fill="#D5DAE5"/>
<path d="M586.204 162.565H604.596C603.753 138.885 581.913 121.183 551.567 121.183C521.527 121.183 497.924 138.655 497.924 165.017C497.924 186.167 513.251 198.735 537.773 205.785L557.084 211.303C573.637 215.901 588.35 221.725 588.35 237.358C588.35 254.523 571.798 265.865 550.034 265.865C531.336 265.865 514.783 257.588 513.251 239.81H493.633C495.472 265.558 516.316 283.03 550.034 283.03C586.204 283.03 606.742 263.106 606.742 237.664C606.742 208.237 578.848 198.735 562.602 194.444L546.662 190.152C535.014 187.087 516.316 180.956 516.316 164.097C516.316 149.077 530.11 138.042 550.954 138.042C569.958 138.042 584.365 147.085 586.204 162.565ZM682.411 162.565H657.275V134.364H639.19V162.565H621.412V177.891H639.19V251.458C639.19 271.995 655.743 281.804 671.069 281.804C677.813 281.804 682.104 280.578 684.556 279.658L680.878 263.412C679.345 263.719 676.893 264.332 672.908 264.332C664.939 264.332 657.275 261.88 657.275 246.553V177.891H682.411V162.565ZM705.299 280.271H723.384V205.785C723.384 189.846 735.952 178.198 753.117 178.198C757.945 178.198 762.926 179.117 764.152 179.424V161.032C762.083 160.879 757.332 160.725 754.65 160.725C740.55 160.725 728.289 168.695 723.997 180.343H722.771V162.565H705.299V280.271ZM827.043 282.724C850.952 282.724 868.424 270.769 873.942 252.99L856.47 248.086C851.872 260.347 841.22 266.478 827.043 266.478C805.816 266.478 791.179 252.761 790.336 227.549H875.781V219.885C875.781 176.052 849.726 161.032 825.204 161.032C793.325 161.032 772.174 186.167 772.174 222.338C772.174 258.508 793.018 282.724 827.043 282.724ZM790.336 211.916C791.562 193.601 804.513 177.278 825.204 177.278C844.822 177.278 857.389 191.991 857.389 211.916H790.336ZM933.614 283.03C954.151 283.03 964.879 271.995 968.558 264.332H969.477V280.271H987.562V202.72C987.562 165.323 959.055 161.032 944.035 161.032C926.257 161.032 906.026 167.163 896.83 188.62L913.996 194.75C917.981 186.167 927.406 176.971 944.649 176.971C961.278 176.971 969.477 185.784 969.477 200.881V201.494C969.477 210.23 960.588 209.463 939.131 212.222C917.291 215.058 893.458 219.885 893.458 246.86C893.458 269.85 911.237 283.03 933.614 283.03ZM936.372 266.784C921.965 266.784 911.543 260.347 911.543 247.779C911.543 233.986 924.111 229.694 938.211 227.855C945.875 226.936 966.412 224.79 969.477 221.112V237.664C969.477 252.377 957.829 266.784 936.372 266.784ZM1016.26 280.271H1034.34V206.705C1034.34 189.463 1046.91 177.278 1061.01 177.278C1074.73 177.278 1084.31 186.244 1084.31 199.655V280.271H1102.7V203.639C1102.7 188.466 1112.2 177.278 1128.75 177.278C1141.63 177.278 1152.66 184.098 1152.66 201.494V280.271H1170.75V201.494C1170.75 173.83 1155.88 161.032 1134.88 161.032C1118.02 161.032 1105.69 168.772 1099.63 180.956H1098.41C1092.58 168.389 1082.31 161.032 1066.83 161.032C1051.51 161.032 1040.16 168.389 1035.26 180.956H1033.73V162.565H1016.26V280.271ZM1217.58 123.329H1199.5V280.271H1217.58V123.329ZM1246.39 280.271H1264.48V162.565H1246.39V280.271ZM1255.59 142.947C1262.64 142.947 1268.46 137.429 1268.46 130.686C1268.46 123.942 1262.64 118.425 1255.59 118.425C1248.54 118.425 1242.71 123.942 1242.71 130.686C1242.71 137.429 1248.54 142.947 1255.59 142.947ZM1344.47 162.565H1319.34V134.364H1301.25V162.565H1283.47V177.891H1301.25V251.458C1301.25 271.995 1317.81 281.804 1333.13 281.804C1339.88 281.804 1344.17 280.578 1346.62 279.658L1342.94 263.412C1341.41 263.719 1338.96 264.332 1334.97 264.332C1327 264.332 1319.34 261.88 1319.34 246.553V177.891H1344.47V162.565Z" fill="#FAFAFA"/>
</svg>
