<svg width="17" height="17" viewBox="0 0 17 17" fill="none" xmlns="http://www.w3.org/2000/svg">
<path d="M13.9744 0.641235H2.30778C1.38731 0.641235 0.641113 1.38743 0.641113 2.3079V13.9746C0.641113 14.895 1.38731 15.6412 2.30778 15.6412H13.9744C14.8949 15.6412 15.6411 14.895 15.6411 13.9746V2.3079C15.6411 1.38743 14.8949 0.641235 13.9744 0.641235Z" fill="#111111"/>
<path d="M5.64111 8.14124L7.30778 9.8079L10.6411 6.47457" fill="#111111"/>
<path d="M5.64111 8.14124L7.30778 9.8079L10.6411 6.47457M2.30778 0.641235H13.9744C14.8949 0.641235 15.6411 1.38743 15.6411 2.3079V13.9746C15.6411 14.895 14.8949 15.6412 13.9744 15.6412H2.30778C1.38731 15.6412 0.641113 14.895 0.641113 13.9746V2.3079C0.641113 1.38743 1.38731 0.641235 2.30778 0.641235Z" stroke="url(#paint0_linear_14967_965)" stroke-width="1.28238" stroke-linecap="round" stroke-linejoin="round"/>
<defs>
<linearGradient id="paint0_linear_14967_965" x1="15.6411" y1="-0.633764" x2="0.641112" y2="15.6412" gradientUnits="userSpaceOnUse">
<stop stop-color="#43E2C5"/>
<stop offset="1" stop-color="#70EE62"/>
</linearGradient>
</defs>
</svg>
