<svg width="64" height="72" viewBox="0 0 64 72" fill="none" xmlns="http://www.w3.org/2000/svg">
<path d="M28.4113 1.69201C30.5868 0.435997 33.2671 0.435997 35.4425 1.69201L59.5882 15.6325C61.7637 16.8885 63.1038 19.2097 63.1038 21.7218V49.6028C63.1038 52.1148 61.7637 54.436 59.5882 55.692L35.4425 69.6325C33.2671 70.8885 30.5868 70.8885 28.4113 69.6325L4.26562 55.692C2.09015 54.436 0.75 52.1148 0.75 49.6028V21.7218C0.75 19.2097 2.09015 16.8885 4.26562 15.6325L28.4113 1.69201Z" stroke="#DDEBF2" stroke-width="1.5"/>
<path d="M54.6797 32.9082C55.7875 33.548 56.469 34.7314 56.4658 36.0107C56.4626 37.2837 55.782 38.4591 54.6797 39.0957L34.916 50.5059C33.1757 51.5106 31.0314 51.5106 29.291 50.5059L9.53809 39.1016C8.43006 38.4618 7.7488 37.2784 7.75195 35.999C7.75518 34.726 8.4356 33.5506 9.53809 32.9141L10.2529 32.501C10.3536 32.5681 10.4568 32.6323 10.5625 32.6934L29.291 43.5059C31.0314 44.5106 33.1757 44.5106 34.916 43.5059L53.6514 32.6885C53.7579 32.627 53.8615 32.5618 53.9629 32.4941L54.6797 32.9082Z" fill="url(#paint0_linear_14490_2110)"/>
<path fill-rule="evenodd" clip-rule="evenodd" d="M54.6777 43.1641C55.7856 43.8039 56.4671 44.9873 56.4639 46.2666C56.4606 47.5395 55.7801 48.715 54.6777 49.3516L34.9141 60.7617C33.1738 61.7665 31.0294 61.7664 29.2891 60.7617L9.53614 49.3574C8.42812 48.7177 7.74686 47.5343 7.75001 46.2549C7.75324 44.9818 8.43366 43.8064 9.53614 43.1699L10.251 42.7568C10.3516 42.824 10.4549 42.8882 10.5606 42.9492L29.2891 53.7617C31.0294 54.7664 33.1737 54.7665 34.9141 53.7617L53.6494 42.9443C53.7559 42.8828 53.8596 42.8177 53.9609 42.75L54.6777 43.1641Z" fill="url(#paint1_linear_14490_2110)"/>
<path d="M29.2997 11.5036C31.0401 10.4988 33.1843 10.4988 34.9247 11.5036L54.6777 22.908C55.7858 23.5478 56.4672 24.7313 56.4639 26.0109C56.4607 27.2839 55.7802 28.459 54.6777 29.0955L34.9142 40.506C33.1738 41.5108 31.0296 41.5108 29.2892 40.506L9.53618 29.1016C8.42808 28.4618 7.74676 27.2783 7.75001 25.9988C7.75324 24.7257 8.43369 23.5506 9.53618 22.9141L29.2997 11.5036Z" fill="url(#paint2_linear_14490_2110)"/>
<defs>
<linearGradient id="paint0_linear_14490_2110" x1="2.31387" y1="50.7282" x2="18.2201" y2="14.0932" gradientUnits="userSpaceOnUse">
<stop offset="0.168669" stop-color="#00FE6B"/>
<stop offset="0.887092" stop-color="#00B7E2"/>
</linearGradient>
<linearGradient id="paint1_linear_14490_2110" x1="2.31191" y1="60.984" x2="18.2181" y2="24.3491" gradientUnits="userSpaceOnUse">
<stop offset="0.168669" stop-color="#00FE6B"/>
<stop offset="0.887092" stop-color="#00B7E2"/>
</linearGradient>
<linearGradient id="paint2_linear_14490_2110" x1="2.31191" y1="40.3959" x2="35.6646" y2="-6.85148" gradientUnits="userSpaceOnUse">
<stop offset="0.168669" stop-color="#00FE6B"/>
<stop offset="0.887092" stop-color="#00B7E2"/>
</linearGradient>
</defs>
</svg>
