<svg width="72" height="72" viewBox="0 0 72 72" fill="none" xmlns="http://www.w3.org/2000/svg">
<path d="M32.4844 2.02975C34.6599 0.773735 37.3401 0.773735 39.5156 2.02975L63.6613 15.9703C65.8368 17.2263 67.1769 19.5475 67.1769 22.0595V49.9405C67.1769 52.4525 65.8368 54.7737 63.6613 56.0297L39.5156 69.9703C37.3401 71.2263 34.6599 71.2263 32.4844 69.9703L8.33871 56.0297C6.16323 54.7737 4.82309 52.4525 4.82309 49.9405V22.0595C4.82309 19.5475 6.16323 17.2263 8.33871 15.9703L32.4844 2.02975Z" stroke="#DDEBF2" stroke-width="1.5"/>
<g style="mix-blend-mode:lighten">
<path d="M33.5549 29.6238C35.2953 28.619 37.4396 28.619 39.1799 29.6238L57.9082 40.4366C59.6505 41.4425 60.723 43.3025 60.7207 45.3144L60.7176 47.9442C60.7153 49.9515 59.6435 51.8055 57.9052 52.8091L39.1695 63.6262C37.4291 64.631 35.2848 64.631 33.5445 63.6262L14.8162 52.8134C13.0738 51.8075 12.0014 49.9475 12.0037 47.9356L12.0067 45.3058C12.009 43.2985 13.0809 41.4445 14.8192 40.4409L33.5549 29.6238Z" fill="#111111"/>
<path d="M33.5549 31.6238C35.2953 30.619 37.4396 30.619 39.1799 31.6238L58.933 43.0282C60.0411 43.668 60.7224 44.8515 60.7191 46.131C60.7159 47.4041 60.0355 48.5792 58.933 49.2157L39.1695 60.6262C37.4291 61.631 35.2848 61.631 33.5445 60.6262L13.7914 49.2218C12.6833 48.582 12.002 47.3985 12.0052 46.119C12.0085 44.8459 12.6889 43.6708 13.7914 43.0343L33.5549 31.6238Z" fill="url(#paint0_linear_14098_1921)"/>
<path d="M33.5549 19.6238C35.2953 18.619 37.4396 18.619 39.1799 19.6238L57.9082 30.4366C59.6505 31.4425 60.723 33.3025 60.7207 35.3144L60.7176 37.9442C60.7153 39.9515 59.6435 41.8055 57.9052 42.8091L39.1695 53.6262C37.4291 54.631 35.2848 54.631 33.5445 53.6262L14.8162 42.8134C13.0738 41.8075 12.0014 39.9475 12.0037 37.9356L12.0067 35.3058C12.009 33.2985 13.0809 31.4445 14.8192 30.4409L33.5549 19.6238Z" fill="#111111"/>
<path d="M33.5549 21.6238C35.2953 20.619 37.4396 20.619 39.1799 21.6238L58.933 33.0282C60.0411 33.668 60.7224 34.8515 60.7191 36.131C60.7159 37.4041 60.0355 38.5792 58.933 39.2157L39.1695 50.6262C37.4291 51.631 35.2848 51.631 33.5445 50.6262L13.7914 39.2218C12.6833 38.582 12.002 37.3985 12.0052 36.119C12.0085 34.8459 12.6889 33.6708 13.7914 33.0343L33.5549 21.6238Z" fill="url(#paint1_linear_14098_1921)"/>
<path d="M33.5549 9.6238C35.2953 8.61899 37.4396 8.61899 39.1799 9.6238L57.9082 20.4366C59.6505 21.4425 60.723 23.3025 60.7207 25.3144L60.7176 27.9442C60.7153 29.9515 59.6435 31.8055 57.9052 32.8091L39.1695 43.6262C37.4291 44.631 35.2848 44.631 33.5445 43.6262L14.8162 32.8134C13.0738 31.8075 12.0014 29.9475 12.0037 27.9356L12.0067 25.3058C12.009 23.2985 13.0809 21.4445 14.8192 20.4409L33.5549 9.6238Z" fill="#111111"/>
<path d="M33.5549 11.6238C35.2953 10.619 37.4396 10.619 39.1799 11.6238L58.933 23.0282C60.0411 23.668 60.7224 24.8515 60.7191 26.131C60.7159 27.4041 60.0355 28.5792 58.933 29.2157L39.1695 40.6262C37.4291 41.631 35.2848 41.631 33.5445 40.6262L13.7914 29.2218C12.6833 28.582 12.002 27.3985 12.0052 26.119C12.0085 24.8459 12.6889 23.6708 13.7914 23.0343L33.5549 11.6238Z" fill="url(#paint2_linear_14098_1921)"/>
</g>
<defs>
<linearGradient id="paint0_linear_14098_1921" x1="6.56074" y1="61.337" x2="42.4252" y2="13.2629" gradientUnits="userSpaceOnUse">
<stop offset="0.168669" stop-color="#00FE6B"/>
<stop offset="0.887092" stop-color="#00B7E2"/>
</linearGradient>
<linearGradient id="paint1_linear_14098_1921" x1="6.56074" y1="51.337" x2="42.4252" y2="3.26293" gradientUnits="userSpaceOnUse">
<stop offset="0.168669" stop-color="#00FE6B"/>
<stop offset="0.887092" stop-color="#00B7E2"/>
</linearGradient>
<linearGradient id="paint2_linear_14098_1921" x1="6.56074" y1="41.337" x2="42.4252" y2="-6.73707" gradientUnits="userSpaceOnUse">
<stop offset="0.168669" stop-color="#00FE6B"/>
<stop offset="0.887092" stop-color="#00B7E2"/>
</linearGradient>
</defs>
</svg>
