<svg width="21" height="15" viewBox="0 0 21 15" fill="none" xmlns="http://www.w3.org/2000/svg">
<path d="M1 6.36397C0.447715 6.36397 0 6.81168 0 7.36397C0 7.91625 0.447715 8.36397 1 8.36397L1 7.36397L1 6.36397ZM20.7071 8.07107C21.0976 7.68055 21.0976 7.04739 20.7071 6.65686L14.3431 0.2929C13.9526 -0.0976243 13.3195 -0.0976243 12.9289 0.2929C12.5384 0.683424 12.5384 1.31659 12.9289 1.70711L18.5858 7.36397L12.9289 13.0208C12.5384 13.4113 12.5384 14.0445 12.9289 14.435C13.3195 14.8256 13.9526 14.8256 14.3431 14.435L20.7071 8.07107ZM1 7.36397L1 8.36397L20 8.36397V7.36397V6.36397L1 6.36397L1 7.36397Z" fill="url(#paint0_linear_14098_2225)"/>
<defs>
<linearGradient id="paint0_linear_14098_2225" x1="20" y1="7.27897" x2="19.9029" y2="9.28092" gradientUnits="userSpaceOnUse">
<stop stop-color="#43E2C5"/>
<stop offset="1" stop-color="#70EE62"/>
</linearGradient>
</defs>
</svg>
