<svg width="40" height="40" viewBox="0 0 40 40" fill="none" xmlns="http://www.w3.org/2000/svg">
<rect x="40" y="40" width="40" height="40" rx="8" transform="rotate(-180 40 40)" fill="#111111"/>
<path d="M29 23.9435V15.9746C28.9996 15.6253 28.9071 15.2821 28.7315 14.9797C28.556 14.6772 28.3037 14.426 28 14.2514L21 10.2669C20.696 10.0921 20.3511 10 20 10C19.6489 10 19.304 10.0921 19 10.2669L12 14.2514C11.6963 14.426 11.444 14.6772 11.2685 14.9797C11.0929 15.2821 11.0004 15.6253 11 15.9746V23.9435C11.0004 24.2929 11.0929 24.636 11.2685 24.9385C11.444 25.241 11.6963 25.4921 12 25.6668L19 29.6513C19.304 29.8261 19.6489 29.9182 20 29.9182C20.3511 29.9182 20.696 29.8261 21 29.6513L28 25.6668C28.3037 25.4921 28.556 25.241 28.7315 24.9385C28.9071 24.636 28.9996 24.2929 29 23.9435Z" fill="url(#paint0_linear_14145_643)"/>
<path d="M15.5 12.1994L20 14.7893L24.5 12.1994" fill="url(#paint1_linear_14145_643)"/>
<path d="M15.5 27.7189V22.5491L11 19.9592" fill="url(#paint2_linear_14145_643)"/>
<path d="M29 19.9592L24.5 22.5491V27.7189" fill="url(#paint3_linear_14145_643)"/>
<path d="M11.27 14.9387L20 19.9691L28.73 14.9387" fill="url(#paint4_linear_14145_643)"/>
<path d="M15.5 12.1994L20 14.7893L24.5 12.1994M15.5 27.7189V22.5491L11 19.9592M29 19.9592L24.5 22.5491V27.7189M11.27 14.9387L20 19.9691L28.73 14.9387M20 30V19.9592M29 23.9435V15.9746C28.9996 15.6253 28.9071 15.2821 28.7315 14.9797C28.556 14.6772 28.3037 14.426 28 14.2514L21 10.2669C20.696 10.0921 20.3511 10 20 10C19.6489 10 19.304 10.0921 19 10.2669L12 14.2514C11.6963 14.426 11.444 14.6772 11.2685 14.9797C11.0929 15.2821 11.0004 15.6253 11 15.9746V23.9435C11.0004 24.2929 11.0929 24.636 11.2685 24.9385C11.444 25.241 11.6963 25.4921 12 25.6668L19 29.6513C19.304 29.8261 19.6489 29.9182 20 29.9182C20.3511 29.9182 20.696 29.8261 21 29.6513L28 25.6668C28.3037 25.4921 28.556 25.241 28.7315 24.9385C28.9071 24.636 28.9996 24.2929 29 23.9435Z" stroke="#1A1A1A" stroke-linecap="round" stroke-linejoin="round"/>
<defs>
<linearGradient id="paint0_linear_14145_643" x1="29" y1="8.3" x2="8.93908" y2="27.8895" gradientUnits="userSpaceOnUse">
<stop stop-color="#43E2C5"/>
<stop offset="1" stop-color="#70EE62"/>
</linearGradient>
<linearGradient id="paint1_linear_14145_643" x1="29" y1="8.3" x2="8.93908" y2="27.8895" gradientUnits="userSpaceOnUse">
<stop stop-color="#43E2C5"/>
<stop offset="1" stop-color="#70EE62"/>
</linearGradient>
<linearGradient id="paint2_linear_14145_643" x1="29" y1="8.3" x2="8.93908" y2="27.8895" gradientUnits="userSpaceOnUse">
<stop stop-color="#43E2C5"/>
<stop offset="1" stop-color="#70EE62"/>
</linearGradient>
<linearGradient id="paint3_linear_14145_643" x1="29" y1="8.3" x2="8.93908" y2="27.8895" gradientUnits="userSpaceOnUse">
<stop stop-color="#43E2C5"/>
<stop offset="1" stop-color="#70EE62"/>
</linearGradient>
<linearGradient id="paint4_linear_14145_643" x1="29" y1="8.3" x2="8.93908" y2="27.8895" gradientUnits="userSpaceOnUse">
<stop stop-color="#43E2C5"/>
<stop offset="1" stop-color="#70EE62"/>
</linearGradient>
</defs>
</svg>
