<svg width="40" height="40" viewBox="0 0 40 40" fill="none" xmlns="http://www.w3.org/2000/svg">
<rect x="40" y="40" width="40" height="40" rx="8" transform="rotate(-180 40 40)" fill="#111111"/>
<path d="M11.0185 20.9493C10.7085 21.1328 10.4518 21.392 10.2734 21.7019C10.095 22.0118 10.0008 22.3618 10 22.7181V26.0694C10.0008 26.4257 10.095 26.7757 10.2734 27.0856C10.4518 27.3955 10.7085 27.6547 11.0185 27.8382L14.1685 29.7C14.4951 29.8933 14.869 29.9955 15.25 29.9955C15.631 29.9955 16.0049 29.8933 16.3315 29.7L20.5 27.2382V21.5492L15.25 18.4461L11.0185 20.9493Z" fill="url(#paint0_linear_14145_647)"/>
<path d="M15.25 24.6522L10.273 21.7043L15.25 24.6522Z" fill="url(#paint1_linear_14145_647)"/>
<path d="M15.25 24.6522L20.5 21.5492L15.25 24.6522Z" fill="url(#paint2_linear_14145_647)"/>
<path d="M15.25 24.6522L15.25 30L15.25 24.6522Z" fill="url(#paint3_linear_14145_647)"/>
<path d="M20.5 21.5492V27.2382L24.6685 29.7C24.9951 29.8933 25.369 29.9955 25.75 29.9955C26.131 29.9955 26.5049 29.8933 26.8315 29.7L29.9815 27.8382C30.2915 27.6547 30.5482 27.3955 30.7266 27.0856C30.905 26.7757 30.9992 26.4257 31 26.0694V22.7181C30.9992 22.3618 30.905 22.0118 30.7266 21.7019C30.5482 21.392 30.2915 21.1328 29.9815 20.9493L25.75 18.4461L20.5 21.5492Z" fill="url(#paint4_linear_14145_647)"/>
<path d="M25.75 24.6523L20.5 21.5492L25.75 24.6523Z" fill="url(#paint5_linear_14145_647)"/>
<path d="M25.75 24.6523L30.727 21.7043L25.75 24.6523Z" fill="url(#paint6_linear_14145_647)"/>
<path d="M25.75 24.6523V30V24.6523Z" fill="url(#paint7_linear_14145_647)"/>
<path d="M16.2685 12.1573C15.9585 12.3408 15.7018 12.6 15.5234 12.9099C15.345 13.2198 15.2508 13.5698 15.25 13.9261V18.4461L20.5 21.5492L25.75 18.4461V13.9261C25.7492 13.5698 25.655 13.2198 25.4766 12.9099C25.2982 12.6 25.0415 12.3408 24.7315 12.1573L21.5815 10.2954C21.2549 10.1021 20.881 10 20.5 10C20.119 10 19.7451 10.1021 19.4185 10.2954L16.2685 12.1573Z" fill="url(#paint8_linear_14145_647)"/>
<path d="M20.5 15.8601L15.523 12.9122L20.5 15.8601Z" fill="url(#paint9_linear_14145_647)"/>
<path d="M20.5 15.8601L25.477 12.9122L20.5 15.8601Z" fill="url(#paint10_linear_14145_647)"/>
<path d="M20.5 21.5492L20.5 15.8601L20.5 21.5492Z" fill="url(#paint11_linear_14145_647)"/>
<path d="M20.5 27.2382L16.3315 29.7C16.0049 29.8933 15.631 29.9955 15.25 29.9955C14.869 29.9955 14.4951 29.8933 14.1685 29.7L11.0185 27.8382C10.7085 27.6547 10.4518 27.3955 10.2734 27.0856C10.095 26.7757 10.0008 26.4257 10 26.0694V22.7181C10.0008 22.3618 10.095 22.0118 10.2734 21.7019C10.4518 21.392 10.7085 21.1328 11.0185 20.9493L15.25 18.4461M20.5 27.2382V21.5492M20.5 27.2382L24.6685 29.7C24.9951 29.8933 25.369 29.9955 25.75 29.9955C26.131 29.9955 26.5049 29.8933 26.8315 29.7L29.9815 27.8382C30.2915 27.6547 30.5482 27.3955 30.7266 27.0856C30.905 26.7757 30.9992 26.4257 31 26.0694V22.7181C30.9992 22.3618 30.905 22.0118 30.7266 21.7019C30.5482 21.392 30.2915 21.1328 29.9815 20.9493L25.75 18.4461M20.5 21.5492L15.25 18.4461M20.5 21.5492L15.25 24.6522M20.5 21.5492L25.75 18.4461M20.5 21.5492L25.75 24.6523M20.5 21.5492L20.5 15.8601M15.25 18.4461V13.9261C15.2508 13.5698 15.345 13.2198 15.5234 12.9099C15.7018 12.6 15.9585 12.3408 16.2685 12.1573L19.4185 10.2954C19.7451 10.1021 20.119 10 20.5 10C20.881 10 21.2549 10.1021 21.5815 10.2954L24.7315 12.1573C25.0415 12.3408 25.2982 12.6 25.4766 12.9099C25.655 13.2198 25.7492 13.5698 25.75 13.9261V18.4461M15.25 24.6522L10.273 21.7043M15.25 24.6522L15.25 30M25.75 24.6523L30.727 21.7043M25.75 24.6523V30M20.5 15.8601L15.523 12.9122M20.5 15.8601L25.477 12.9122" stroke="#1A1A1A" stroke-linecap="round" stroke-linejoin="round"/>
<defs>
<linearGradient id="paint0_linear_14145_647" x1="31" y1="8.3" x2="11.1027" y2="30.968" gradientUnits="userSpaceOnUse">
<stop stop-color="#43E2C5"/>
<stop offset="1" stop-color="#70EE62"/>
</linearGradient>
<linearGradient id="paint1_linear_14145_647" x1="31" y1="8.3" x2="11.1027" y2="30.968" gradientUnits="userSpaceOnUse">
<stop stop-color="#43E2C5"/>
<stop offset="1" stop-color="#70EE62"/>
</linearGradient>
<linearGradient id="paint2_linear_14145_647" x1="31" y1="8.3" x2="11.1027" y2="30.968" gradientUnits="userSpaceOnUse">
<stop stop-color="#43E2C5"/>
<stop offset="1" stop-color="#70EE62"/>
</linearGradient>
<linearGradient id="paint3_linear_14145_647" x1="31" y1="8.3" x2="11.1027" y2="30.968" gradientUnits="userSpaceOnUse">
<stop stop-color="#43E2C5"/>
<stop offset="1" stop-color="#70EE62"/>
</linearGradient>
<linearGradient id="paint4_linear_14145_647" x1="31" y1="8.3" x2="11.1027" y2="30.968" gradientUnits="userSpaceOnUse">
<stop stop-color="#43E2C5"/>
<stop offset="1" stop-color="#70EE62"/>
</linearGradient>
<linearGradient id="paint5_linear_14145_647" x1="31" y1="8.3" x2="11.1027" y2="30.968" gradientUnits="userSpaceOnUse">
<stop stop-color="#43E2C5"/>
<stop offset="1" stop-color="#70EE62"/>
</linearGradient>
<linearGradient id="paint6_linear_14145_647" x1="31" y1="8.3" x2="11.1027" y2="30.968" gradientUnits="userSpaceOnUse">
<stop stop-color="#43E2C5"/>
<stop offset="1" stop-color="#70EE62"/>
</linearGradient>
<linearGradient id="paint7_linear_14145_647" x1="31" y1="8.3" x2="11.1027" y2="30.968" gradientUnits="userSpaceOnUse">
<stop stop-color="#43E2C5"/>
<stop offset="1" stop-color="#70EE62"/>
</linearGradient>
<linearGradient id="paint8_linear_14145_647" x1="31" y1="8.3" x2="11.1027" y2="30.968" gradientUnits="userSpaceOnUse">
<stop stop-color="#43E2C5"/>
<stop offset="1" stop-color="#70EE62"/>
</linearGradient>
<linearGradient id="paint9_linear_14145_647" x1="31" y1="8.3" x2="11.1027" y2="30.968" gradientUnits="userSpaceOnUse">
<stop stop-color="#43E2C5"/>
<stop offset="1" stop-color="#70EE62"/>
</linearGradient>
<linearGradient id="paint10_linear_14145_647" x1="31" y1="8.3" x2="11.1027" y2="30.968" gradientUnits="userSpaceOnUse">
<stop stop-color="#43E2C5"/>
<stop offset="1" stop-color="#70EE62"/>
</linearGradient>
<linearGradient id="paint11_linear_14145_647" x1="31" y1="8.3" x2="11.1027" y2="30.968" gradientUnits="userSpaceOnUse">
<stop stop-color="#43E2C5"/>
<stop offset="1" stop-color="#70EE62"/>
</linearGradient>
</defs>
</svg>
