<svg width="40" height="40" viewBox="0 0 40 40" fill="none" xmlns="http://www.w3.org/2000/svg">
<rect x="40" y="40" width="40" height="40" rx="8" transform="rotate(-180 40 40)" fill="#111111"/>
<path d="M19.9941 22.9842C21.6484 22.9842 22.9895 21.6442 22.9895 19.9912C22.9895 18.3383 21.6484 16.9983 19.9941 16.9983C18.3398 16.9983 16.9987 18.3383 16.9987 19.9912C16.9987 21.6442 18.3398 22.9842 19.9941 22.9842Z" fill="url(#paint0_linear_14145_645)"/>
<path d="M26.9834 15.0029C28.0862 15.0029 28.9803 14.1096 28.9803 13.0076C28.9803 11.9056 28.0862 11.0123 26.9834 11.0123C25.8805 11.0123 24.9864 11.9056 24.9864 13.0076C24.9864 14.1096 25.8805 15.0029 26.9834 15.0029Z" fill="url(#paint1_linear_14145_645)"/>
<path d="M13.0049 28.9702C14.1078 28.9702 15.0018 28.0769 15.0018 26.9749C15.0018 25.8729 14.1078 24.9796 13.0049 24.9796C11.902 24.9796 11.008 25.8729 11.008 26.9749C11.008 28.0769 11.902 28.9702 13.0049 28.9702Z" fill="url(#paint2_linear_14145_645)"/>
<path d="M18.3965 29.868C20.3163 30.1832 22.2864 29.9311 24.0648 29.1427C25.8431 28.3543 27.3522 27.0639 28.4066 25.4301C29.461 23.7964 30.0147 21.8904 29.9997 19.9465C29.9847 18.0025 29.4017 16.1053 28.3222 14.488M21.4919 10.1143C19.5799 9.8226 17.6243 10.092 15.8627 10.8898C14.1011 11.6876 12.6093 12.9795 11.5686 14.6085C10.5279 16.2374 9.98311 18.1333 10.0004 20.0658C10.0177 21.9983 10.5963 23.8842 11.666 25.4943M22.9895 19.9912C22.9895 21.6442 21.6484 22.9842 19.9941 22.9842C18.3398 22.9842 16.9987 21.6442 16.9987 19.9912C16.9987 18.3383 18.3398 16.9983 19.9941 16.9983C21.6484 16.9983 22.9895 18.3383 22.9895 19.9912ZM28.9803 13.0076C28.9803 14.1096 28.0862 15.0029 26.9834 15.0029C25.8805 15.0029 24.9864 14.1096 24.9864 13.0076C24.9864 11.9056 25.8805 11.0123 26.9834 11.0123C28.0862 11.0123 28.9803 11.9056 28.9803 13.0076ZM15.0018 26.9749C15.0018 28.0769 14.1078 28.9702 13.0049 28.9702C11.902 28.9702 11.008 28.0769 11.008 26.9749C11.008 25.8729 11.902 24.9796 13.0049 24.9796C14.1078 24.9796 15.0018 25.8729 15.0018 26.9749Z" stroke="url(#paint3_linear_14145_645)" stroke-linecap="round" stroke-linejoin="round"/>
<defs>
<linearGradient id="paint0_linear_14145_645" x1="30" y1="8.3" x2="10" y2="30" gradientUnits="userSpaceOnUse">
<stop stop-color="#43E2C5"/>
<stop offset="1" stop-color="#70EE62"/>
</linearGradient>
<linearGradient id="paint1_linear_14145_645" x1="30" y1="8.3" x2="10" y2="30" gradientUnits="userSpaceOnUse">
<stop stop-color="#43E2C5"/>
<stop offset="1" stop-color="#70EE62"/>
</linearGradient>
<linearGradient id="paint2_linear_14145_645" x1="30" y1="8.3" x2="10" y2="30" gradientUnits="userSpaceOnUse">
<stop stop-color="#43E2C5"/>
<stop offset="1" stop-color="#70EE62"/>
</linearGradient>
<linearGradient id="paint3_linear_14145_645" x1="30" y1="8.3" x2="10" y2="30" gradientUnits="userSpaceOnUse">
<stop stop-color="#43E2C5"/>
<stop offset="1" stop-color="#70EE62"/>
</linearGradient>
</defs>
</svg>
