<svg width="20" height="18" viewBox="0 0 20 18" fill="none" xmlns="http://www.w3.org/2000/svg">
<path d="M0 0.0214106C0.0542984 -0.00751522 0.0979731 0.00347659 0.139877 0.00347659C2.15423 0.00289807 4.16858 0.00347659 6.18352 0.00116252C6.27913 0.00116252 6.33992 0.0277743 6.39894 0.104717C7.80775 1.93572 9.21951 3.76441 10.6313 5.59368C10.6812 5.65809 10.7351 5.65809 10.793 5.59368C12.4125 3.77945 14.0326 1.96638 15.6486 0.149841C15.7424 0.0445512 15.8333 -0.000573028 15.9785 5.48858e-06C16.8791 0.00694768 17.7798 0.00347659 18.6798 0.0040551C18.7223 0.0040551 18.766 -0.00520116 18.8126 0.0156254C18.7996 0.0630638 18.7607 0.0914111 18.7312 0.124386C16.574 2.54143 14.4162 4.95847 12.259 7.37551C12.2378 7.39981 12.2189 7.42642 12.1941 7.44725C12.1298 7.50163 12.1327 7.54791 12.1859 7.61559C12.517 8.03675 12.8422 8.46196 13.1697 8.88602C15.4255 11.8087 17.6818 14.7319 19.9375 17.6546C19.9529 17.6743 19.9676 17.6945 19.983 17.7142C20.0119 17.7512 20.0048 17.7714 19.9552 17.772C19.9299 17.772 19.9045 17.772 19.8791 17.772C17.9114 17.772 15.9442 17.7714 13.9765 17.7743C13.8821 17.7743 13.8266 17.7431 13.7711 17.6714C12.2089 15.6651 10.6442 13.6611 9.08022 11.656C9.02474 11.585 8.96651 11.5838 8.90552 11.6525C7.10718 13.6663 5.30826 15.6795 3.5111 17.6945C3.46152 17.75 3.41076 17.7738 3.33522 17.7732C2.39857 17.7709 1.46192 17.772 0.525278 17.7709C0.488685 17.7709 0.435567 17.794 0.418451 17.7506C0.406057 17.7188 0.452683 17.6933 0.475701 17.6673C2.79932 15.0634 5.12411 12.4595 7.44832 9.85619C7.46248 9.83999 7.47488 9.82205 7.4914 9.80875C7.56164 9.75148 7.55573 9.7023 7.49967 9.63114C6.83569 8.78535 6.17585 7.93725 5.51482 7.08972C3.70232 4.76756 1.88982 2.44482 0.0767259 0.122072C0.053118 0.0914111 0.02951 0.0601712 0 0.0214106ZM4.49673 1.69795C4.24354 1.69795 3.99034 1.69679 3.73714 1.69911C3.68521 1.69911 3.61202 1.67076 3.58664 1.72109C3.5654 1.7639 3.62914 1.8044 3.65924 1.84258C6.41606 5.37558 9.17406 8.908 11.9315 12.4404C12.8303 13.5917 13.728 14.7435 14.6257 15.8953C14.6635 15.9439 14.6971 15.9856 14.7721 15.985C15.282 15.9815 15.792 15.9833 16.3019 15.9827C16.3291 15.9827 16.3645 15.9948 16.3798 15.9624C16.3952 15.9318 16.3645 15.9109 16.3491 15.8884C16.3373 15.8704 16.3232 15.8542 16.3102 15.8375C14.5537 13.5622 12.7973 11.2874 11.0409 9.01213C9.18233 6.60377 7.32438 4.19541 5.46761 1.78589C5.41921 1.72283 5.37023 1.69448 5.28819 1.69622C5.02437 1.70142 4.75996 1.69795 4.49614 1.69795H4.49673Z" fill="#B9C8DE"/>
</svg>
