<svg width="22" height="16" viewBox="0 0 22 16" fill="none" xmlns="http://www.w3.org/2000/svg">
<path d="M21.54 2.49859C21.2865 1.51458 20.5421 0.741298 19.5949 0.477893C17.88 1.43051e-07 11 0 11 0C11 0 4.12002 1.43051e-07 2.405 0.477893C1.45785 0.741298 0.713533 1.51458 0.459993 2.49859C1.37693e-07 4.28034 0 8 0 8C0 8 1.37693e-07 11.7197 0.459993 13.5014C0.713533 14.4854 1.45785 15.2587 2.405 15.5221C4.12002 16 11 16 11 16C11 16 17.88 16 19.5949 15.5221C20.5421 15.2587 21.2865 14.4854 21.54 13.5014C22 11.7197 22 8 22 8C22 8 21.9982 4.28034 21.54 2.49859Z" fill="#B9C8DE"/>
<path d="M8.79712 11.4283L14.5126 8.00032L8.79712 4.57227V11.4283Z" fill="#111111"/>
</svg>
