<svg xmlns="http://www.w3.org/2000/svg" xmlns:xlink="http://www.w3.org/1999/xlink" viewBox="0 0 300 300"><defs><style>.cls-1{isolation:isolate;}.cls-2{fill:url(#linear-gradient);}.cls-3{fill:url(#linear-gradient-2);}.cls-4{fill:url(#linear-gradient-3);}.cls-5{fill:#e2e9ff;}.cls-6{fill:url(#linear-gradient-4);}.cls-7{fill:#b7005c;}.cls-8{fill:url(#linear-gradient-5);}.cls-9{fill:url(#linear-gradient-6);}.cls-10{fill:url(#linear-gradient-7);}.cls-11{fill:url(#linear-gradient-8);}.cls-12{fill:url(#linear-gradient-9);}.cls-13{fill:url(#linear-gradient-10);}.cls-14{fill:url(#linear-gradient-11);}.cls-15{fill:url(#linear-gradient-12);}.cls-16{fill:url(#linear-gradient-13);}.cls-17{fill:url(#linear-gradient-14);}.cls-18{fill:url(#linear-gradient-15);}.cls-19{fill:url(#linear-gradient-16);}.cls-20{fill:url(#linear-gradient-17);}.cls-21{opacity:0.8;}.cls-22{fill:url(#linear-gradient-18);}.cls-23{fill:url(#linear-gradient-19);}.cls-24{fill:url(#linear-gradient-20);}.cls-25{fill:url(#linear-gradient-21);}.cls-26{fill:url(#linear-gradient-22);}.cls-27{fill:#fff;}.cls-28{opacity:0.3;fill:url(#linear-gradient-23);}.cls-28,.cls-42{mix-blend-mode:multiply;}.cls-29{fill:url(#linear-gradient-24);}.cls-30{fill:url(#linear-gradient-25);}.cls-31{fill:url(#linear-gradient-26);}.cls-32{fill:url(#linear-gradient-27);}.cls-33{fill:#d20268;}.cls-34{fill:#06547a;}.cls-35{fill:url(#linear-gradient-28);}.cls-36{fill:url(#linear-gradient-29);}.cls-37{fill:#fa0171;}.cls-38{fill:url(#linear-gradient-30);}.cls-39{fill:#f9cebb;}.cls-40{fill:url(#linear-gradient-31);}.cls-41{fill:url(#linear-gradient-32);}.cls-42{opacity:0.4;fill:url(#linear-gradient-33);}.cls-43{fill:url(#linear-gradient-34);}</style><linearGradient id="linear-gradient" x1="142.51" y1="129.55" x2="136.27" y2="106.47" gradientUnits="userSpaceOnUse"><stop offset="0" stop-color="#0070e6"/><stop offset="1" stop-color="#00152b"/></linearGradient><linearGradient id="linear-gradient-2" x1="395.93" y1="169.64" x2="414.09" y2="207.77" gradientTransform="matrix(-1, 0, 0, 1, 511.31, 0)" gradientUnits="userSpaceOnUse"><stop offset="0" stop-color="#a5c5ff"/><stop offset="1" stop-color="#0067dc"/></linearGradient><linearGradient id="linear-gradient-3" x1="93.02" y1="191.29" x2="121.3" y2="191.29" gradientUnits="userSpaceOnUse"><stop offset="0" stop-color="#fff"/><stop offset="1" stop-color="#eff7ff"/></linearGradient><linearGradient id="linear-gradient-4" x1="98.4" y1="191.07" x2="98.4" y2="178.53" gradientUnits="userSpaceOnUse"><stop offset="0" stop-color="#fa0171"/><stop offset="1" stop-color="#ff90bd"/></linearGradient><linearGradient id="linear-gradient-5" x1="105.02" y1="175.94" x2="87.32" y2="178.85" xlink:href="#linear-gradient-4"/><linearGradient id="linear-gradient-6" x1="352.35" y1="144.8" x2="370.51" y2="182.94" xlink:href="#linear-gradient-2"/><linearGradient id="linear-gradient-7" x1="136.6" y1="166.46" x2="164.88" y2="166.46" xlink:href="#linear-gradient-3"/><linearGradient id="linear-gradient-8" x1="145.24" y1="163.63" x2="138.95" y2="155.73" gradientUnits="userSpaceOnUse"><stop offset="0" stop-color="#38d611"/><stop offset="1" stop-color="#bcf0a7"/></linearGradient><linearGradient id="linear-gradient-9" x1="134.82" y1="157.36" x2="136.19" y2="167.83" gradientUnits="userSpaceOnUse"><stop offset="0" stop-color="#38d611"/><stop offset="1" stop-color="#009c00"/></linearGradient><linearGradient id="linear-gradient-10" x1="148.6" y1="151.11" x2="130.9" y2="154.02" xlink:href="#linear-gradient-8"/><linearGradient id="linear-gradient-11" x1="307.61" y1="117.98" x2="325.77" y2="156.11" xlink:href="#linear-gradient-2"/><linearGradient id="linear-gradient-12" x1="181.34" y1="139.63" x2="209.62" y2="139.63" xlink:href="#linear-gradient-3"/><linearGradient id="linear-gradient-13" x1="189.98" y1="136.8" x2="183.68" y2="128.9" gradientUnits="userSpaceOnUse"><stop offset="0" stop-color="#0070e6"/><stop offset="1" stop-color="#a5c5ff"/></linearGradient><linearGradient id="linear-gradient-14" x1="179.56" y1="130.54" x2="180.92" y2="141.01" xlink:href="#linear-gradient"/><linearGradient id="linear-gradient-15" x1="193.34" y1="124.29" x2="175.64" y2="127.19" xlink:href="#linear-gradient-13"/><linearGradient id="linear-gradient-16" x1="350.44" y1="30.19" x2="378.33" y2="88.76" xlink:href="#linear-gradient-2"/><linearGradient id="linear-gradient-17" x1="126.53" y1="63.44" x2="169.96" y2="63.44" xlink:href="#linear-gradient-3"/><linearGradient id="linear-gradient-18" x1="857.77" y1="44.33" x2="868.11" y2="44.33" gradientTransform="matrix(-1, 0, 0, 1, 1010.93, 0)" gradientUnits="userSpaceOnUse"><stop offset="0" stop-color="#a5c5ff"/><stop offset="1" stop-color="#77a4f9"/></linearGradient><linearGradient id="linear-gradient-19" x1="854.75" y1="42.56" x2="871.12" y2="42.56" xlink:href="#linear-gradient-18"/><linearGradient id="linear-gradient-20" x1="855.39" y1="42.53" x2="870.82" y2="42.53" xlink:href="#linear-gradient-18"/><linearGradient id="linear-gradient-21" x1="855.06" y1="42.34" x2="870.48" y2="42.34" xlink:href="#linear-gradient-18"/><linearGradient id="linear-gradient-22" x1="862.78" y1="42.3" x2="863.08" y2="42.3" xlink:href="#linear-gradient-18"/><linearGradient id="linear-gradient-23" x1="157.87" y1="276.13" x2="202.67" y2="276.13" gradientUnits="userSpaceOnUse"><stop offset="0" stop-color="#b0a002"/><stop offset="1" stop-color="#ead77c"/></linearGradient><linearGradient id="linear-gradient-24" x1="160.08" y1="270.4" x2="179.01" y2="280.8" xlink:href="#linear-gradient"/><linearGradient id="linear-gradient-25" x1="176.95" y1="282.63" x2="185.71" y2="283.1" xlink:href="#linear-gradient"/><linearGradient id="linear-gradient-26" x1="175.6" y1="259.1" x2="194.53" y2="269.5" xlink:href="#linear-gradient"/><linearGradient id="linear-gradient-27" x1="192.47" y1="271.33" x2="201.23" y2="271.81" xlink:href="#linear-gradient"/><linearGradient id="linear-gradient-28" x1="188.7" y1="284.08" x2="193.74" y2="228.58" xlink:href="#linear-gradient"/><linearGradient id="linear-gradient-29" x1="199.8" y1="281.84" x2="178.52" y2="229.51" xlink:href="#linear-gradient"/><linearGradient id="linear-gradient-30" x1="190.34" y1="168.69" x2="186.35" y2="162.54" gradientUnits="userSpaceOnUse"><stop offset="0" stop-color="#f9cebb"/><stop offset="1" stop-color="#f19265"/></linearGradient><linearGradient id="linear-gradient-31" x1="180.86" y1="142.52" x2="186.47" y2="150.78" gradientUnits="userSpaceOnUse"><stop offset="0" stop-color="#aa5300"/><stop offset="1" stop-color="#a97d00"/></linearGradient><linearGradient id="linear-gradient-32" x1="184.38" y1="155.29" x2="182" y2="150.95" xlink:href="#linear-gradient-31"/><linearGradient id="linear-gradient-33" x1="196.49" y1="190.43" x2="182.56" y2="225.8" gradientUnits="userSpaceOnUse"><stop offset="0" stop-color="#0062ab"/><stop offset="1" stop-color="#76d733"/></linearGradient><linearGradient id="linear-gradient-34" x1="573.52" y1="257.62" x2="529.7" y2="271.18" gradientTransform="translate(-224.54 -281.16) rotate(23.4)" xlink:href="#linear-gradient-4"/></defs><g class="cls-1"><g id="icons"><path class="cls-2" d="M188.14,100.86a2.85,2.85,0,0,0-2.89.21L148.49,122.3v-26a.68.68,0,1,0-1.35,0v26.83l-37.58,21.69a7.58,7.58,0,0,0-3.47,6v44a.68.68,0,0,0,1.36,0v-44a6.25,6.25,0,0,1,2.79-4.83l36.9-21.31v46.08a.68.68,0,1,0,1.35,0V123.86l37.44-21.61a1.25,1.25,0,0,1,2.11,1.22v44a.68.68,0,0,0,1.36,0v-44A2.83,2.83,0,0,0,188.14,100.86Z"/><path class="cls-3" d="M91.39,222.61V174.37a3.07,3.07,0,0,1,1.29-2.45l25.71-14.85a.77.77,0,0,1,.93,0h0l1.59.91-1.24,3v45.28a3.06,3.06,0,0,1-1.28,2.45l-24.17,14-.78,1.87-1.59-.91h0A1.1,1.1,0,0,1,91.39,222.61Z"/><path class="cls-4" d="M93,223.57c0,.94.58,1.38,1.29,1L120,209.7a3.09,3.09,0,0,0,1.28-2.46V159c0-.94-.58-1.38-1.28-1L94.31,172.88A3.08,3.08,0,0,0,93,175.33Z"/><path class="cls-5" d="M106.15,174.33a1,1,0,0,1,.43-.81l5.91-3.42c.24-.13.43,0,.43.33v.62a1,1,0,0,1-.43.82l-5.91,3.41c-.24.13-.43,0-.43-.32Z"/><path class="cls-5" d="M106.15,178.33a1,1,0,0,1,.43-.82l10.3-5.89c.24-.13.43,0,.43.33v.62a1,1,0,0,1-.43.82l-10.3,5.88c-.24.14-.43,0-.43-.32Z"/><path class="cls-5" d="M110.55,179.64a1,1,0,0,1,.42-.81l5.91-3.42c.24-.13.43,0,.43.33v.62a1,1,0,0,1-.43.82L111,180.59c-.23.14-.42,0-.42-.32Z"/><path class="cls-5" d="M109.2,179.87c.24-.13.43,0,.43.33v.62a1,1,0,0,1-.43.82l-2.76,1.59c-.24.14-.43,0-.43-.32v-.62a1,1,0,0,1,.43-.82Z"/><path class="cls-5" d="M110.55,189.06a1,1,0,0,1,.42-.82l5.91-3.41c.24-.14.43,0,.43.32v.62a1,1,0,0,1-.43.82L111,190c-.23.14-.42,0-.42-.32Z"/><path class="cls-5" d="M103.78,193.58a1,1,0,0,1-.43.82l-5.91,3.41c-.23.14-.42,0-.42-.32v-.62a1,1,0,0,1,.42-.82l5.91-3.41c.24-.14.43,0,.43.32Z"/><path class="cls-5" d="M112.14,193.16a1,1,0,0,1-.43.82l-14.27,8.24c-.23.14-.42,0-.42-.32v-.62a1,1,0,0,1,.42-.82l14.27-8.24c.24-.14.43,0,.43.32Z"/><path class="cls-5" d="M117.31,190.18a1,1,0,0,1-.43.82L114,192.66c-.24.13-.43,0-.43-.33v-.62a1,1,0,0,1,.43-.82l2.87-1.65c.24-.14.43,0,.43.32Z"/><path class="cls-5" d="M105.81,193c-.24.13-.43,0-.43-.33V192a1,1,0,0,1,.43-.82l2.76-1.6c.24-.13.43,0,.43.33v.62a1,1,0,0,1-.43.82Z"/><path class="cls-5" d="M103.78,202.81a1,1,0,0,1-.43.82L97.44,207c-.23.13-.42,0-.42-.32v-.63a1.05,1.05,0,0,1,.42-.82l5.91-3.41c.24-.13.43,0,.43.33Z"/><path class="cls-5" d="M110.55,198.28a1.05,1.05,0,0,1,.42-.82l5.91-3.41c.24-.14.43,0,.43.32V195a1,1,0,0,1-.43.81L111,199.22c-.23.14-.42,0-.42-.32Z"/><path class="cls-5" d="M117.31,199.4a1,1,0,0,1-.43.82l-14.27,8.24c-.24.14-.43,0-.43-.32v-.62a1,1,0,0,1,.43-.82l14.27-8.24c.24-.14.43,0,.43.32Z"/><path class="cls-5" d="M100.74,209a1.05,1.05,0,0,1-.42.82l-2.88,1.65c-.23.14-.42,0-.42-.32v-.62a1,1,0,0,1,.42-.82l2.88-1.66c.23-.13.42,0,.42.33Z"/><path class="cls-5" d="M108.52,198.88c.23-.14.43,0,.43.32v.63a1,1,0,0,1-.43.81l-2.77,1.6c-.23.14-.43,0-.43-.32v-.63a1,1,0,0,1,.43-.81Z"/><path class="cls-5" d="M104.05,211.25a1,1,0,0,1-.43.82l-5.91,3.41c-.23.13-.42,0-.42-.33v-.62a1.05,1.05,0,0,1,.42-.82l5.91-3.41c.24-.13.43,0,.43.33Z"/><path class="cls-5" d="M108.81,208.35a1.05,1.05,0,0,1-.42.82l-2.77,1.59c-.24.14-.43,0-.43-.32v-.63a1,1,0,0,1,.43-.81l2.77-1.6c.23-.14.42,0,.42.33Z"/><polygon class="cls-6" points="103.57 188.27 93.24 194.24 93.24 180.46 103.57 174.5 103.57 188.27"/><polygon class="cls-7" points="90.38 178.81 90.38 192.59 93.24 194.24 93.24 180.46 90.38 178.81"/><polygon class="cls-8" points="102.36 173.8 93.03 179.19 91.39 178.24 90.38 178.81 93.24 180.46 103.57 174.5 102.36 173.8"/><path class="cls-9" d="M135,197.78V149.54a3.07,3.07,0,0,1,1.29-2.45L162,132.24a.77.77,0,0,1,.93,0h0l1.59.91-1.24,3v45.28A3.08,3.08,0,0,1,162,183.9l-24.18,14-.77,1.87-1.59-.91h0A1.1,1.1,0,0,1,135,197.78Z"/><path class="cls-10" d="M136.6,198.74c0,.94.58,1.38,1.29,1l25.71-14.85a3.06,3.06,0,0,0,1.28-2.45V134.17c0-.94-.58-1.38-1.28-1l-25.71,14.85a3.07,3.07,0,0,0-1.29,2.45Z"/><path class="cls-5" d="M149.73,149.5a1,1,0,0,1,.43-.81l5.91-3.42c.23-.13.43,0,.43.33v.62a1.06,1.06,0,0,1-.43.82l-5.91,3.41c-.24.13-.43,0-.43-.33Z"/><path class="cls-5" d="M149.73,153.5a1,1,0,0,1,.43-.82l10.3-5.89c.24-.13.43,0,.43.33v.62a1,1,0,0,1-.43.82l-10.3,5.88c-.24.14-.43,0-.43-.32Z"/><path class="cls-5" d="M154.13,154.81a1,1,0,0,1,.42-.81l5.91-3.42c.24-.13.43,0,.43.33v.62a1,1,0,0,1-.43.82l-5.91,3.41c-.23.14-.42,0-.42-.33Z"/><path class="cls-5" d="M152.78,155c.24-.13.43,0,.43.33V156a1,1,0,0,1-.43.82L150,158.4c-.24.14-.43,0-.43-.32v-.62a1,1,0,0,1,.43-.82Z"/><path class="cls-5" d="M154.13,164.23a1,1,0,0,1,.42-.82l5.91-3.41c.24-.14.43,0,.43.32v.62a1,1,0,0,1-.43.82l-5.91,3.41c-.23.14-.43,0-.42-.32Z"/><path class="cls-5" d="M147.36,168.75a1,1,0,0,1-.43.82L141,173c-.23.14-.43,0-.43-.32V172a1,1,0,0,1,.43-.82l5.91-3.41c.24-.14.43,0,.43.32Z"/><path class="cls-5" d="M155.72,168.33a1,1,0,0,1-.43.82L141,177.39c-.23.14-.43,0-.43-.32v-.62a1,1,0,0,1,.43-.82l14.27-8.24c.24-.14.43,0,.43.32Z"/><path class="cls-5" d="M160.89,165.35a1,1,0,0,1-.43.82l-2.87,1.65c-.24.14-.43,0-.43-.32v-.62a1,1,0,0,1,.43-.82l2.87-1.66c.24-.13.43,0,.43.33Z"/><path class="cls-5" d="M149.39,168.15c-.24.14-.43,0-.43-.32v-.62a1,1,0,0,1,.43-.82l2.76-1.6c.24-.13.43,0,.43.33v.62a1,1,0,0,1-.43.82Z"/><path class="cls-5" d="M147.36,178a1,1,0,0,1-.43.81L141,182.21c-.23.13-.43,0-.43-.32v-.63a1.06,1.06,0,0,1,.43-.82l5.91-3.41c.24-.14.43,0,.43.33Z"/><path class="cls-5" d="M154.13,173.45a1,1,0,0,1,.42-.82l5.91-3.41c.24-.14.43,0,.43.32v.63a1,1,0,0,1-.43.81l-5.91,3.41c-.23.14-.42,0-.42-.32Z"/><path class="cls-5" d="M160.89,174.57a1,1,0,0,1-.43.82l-14.27,8.24c-.24.14-.43,0-.43-.32v-.62a1,1,0,0,1,.43-.82l14.27-8.24c.24-.14.43,0,.43.32Z"/><path class="cls-5" d="M144.32,184.14a1,1,0,0,1-.43.82L141,186.61c-.23.14-.43,0-.42-.32v-.62a1,1,0,0,1,.42-.82l2.87-1.66c.24-.13.43,0,.43.33Z"/><path class="cls-5" d="M152.1,174.05c.23-.14.43,0,.43.32V175a1,1,0,0,1-.43.82l-2.77,1.6c-.23.13-.43,0-.43-.32v-.63a1,1,0,0,1,.43-.81Z"/><path class="cls-5" d="M147.63,186.42a1,1,0,0,1-.43.81l-5.91,3.42c-.23.13-.42,0-.42-.33v-.62a1.05,1.05,0,0,1,.42-.82l5.91-3.41c.24-.14.43,0,.43.32Z"/><path class="cls-5" d="M152.39,183.52a1,1,0,0,1-.43.82l-2.76,1.59c-.24.14-.43,0-.43-.32V185a1,1,0,0,1,.43-.81l2.76-1.6c.24-.14.43,0,.43.32Z"/><polygon class="cls-11" points="147.15 163.44 136.82 169.41 136.82 155.63 147.15 149.67 147.15 163.44"/><polygon class="cls-12" points="133.96 153.98 133.96 167.76 136.82 169.41 136.82 155.63 133.96 153.98"/><polygon class="cls-13" points="145.94 148.97 136.61 154.36 134.97 153.41 133.96 153.98 136.82 155.63 147.15 149.67 145.94 148.97"/><path class="cls-14" d="M179.71,171V122.71a3.07,3.07,0,0,1,1.28-2.45l25.71-14.85a.79.79,0,0,1,.94,0h0l1.59.92-1.24,3v45.28a3.08,3.08,0,0,1-1.29,2.45L182.53,171l-.77,1.87-1.59-.91h0A1.1,1.1,0,0,1,179.71,171Z"/><path class="cls-15" d="M181.34,171.91c0,.94.58,1.38,1.28,1L208.33,158a3.1,3.1,0,0,0,1.29-2.46V107.34c0-.94-.58-1.37-1.29-1l-25.71,14.85a3.1,3.1,0,0,0-1.28,2.45Z"/><path class="cls-5" d="M194.47,122.67a1,1,0,0,1,.43-.81l5.9-3.41c.24-.14.43,0,.43.32v.62a1.05,1.05,0,0,1-.42.82l-5.91,3.41c-.24.14-.43,0-.43-.32Z"/><path class="cls-5" d="M194.47,126.67a1,1,0,0,1,.43-.82L205.2,120c.23-.13.43,0,.43.33v.62a1.06,1.06,0,0,1-.43.82l-10.3,5.88c-.24.14-.43,0-.43-.32Z"/><path class="cls-5" d="M198.86,128a1,1,0,0,1,.43-.81l5.91-3.41c.23-.14.43,0,.43.32v.62a1,1,0,0,1-.43.82l-5.91,3.41c-.24.14-.43,0-.43-.32Z"/><path class="cls-5" d="M197.52,128.21c.24-.13.43,0,.43.33v.62a1,1,0,0,1-.43.82l-2.77,1.6c-.23.13-.42,0-.42-.33v-.62a1.05,1.05,0,0,1,.42-.82Z"/><path class="cls-5" d="M198.86,137.4a1,1,0,0,1,.43-.82l5.91-3.41c.23-.14.43,0,.43.32v.62a1,1,0,0,1-.43.82l-5.91,3.41c-.24.14-.43,0-.43-.32Z"/><path class="cls-5" d="M192.1,141.93a1,1,0,0,1-.43.81l-5.91,3.42c-.24.13-.43,0-.43-.33v-.62a1,1,0,0,1,.43-.82l5.91-3.41c.23-.13.43,0,.43.33Z"/><path class="cls-5" d="M200.46,141.51a1,1,0,0,1-.43.81l-14.27,8.24c-.24.14-.43,0-.43-.32v-.62a1,1,0,0,1,.43-.82L200,140.56c.24-.14.43,0,.43.33Z"/><path class="cls-5" d="M205.63,138.52a1,1,0,0,1-.43.82L202.32,141c-.23.13-.42,0-.42-.33v-.62a1,1,0,0,1,.42-.81l2.88-1.66c.23-.14.43,0,.43.32Z"/><path class="cls-5" d="M194.12,141.33c-.23.13-.43,0-.43-.33v-.62a1.06,1.06,0,0,1,.43-.82l2.77-1.59c.23-.14.43,0,.43.32v.62a1,1,0,0,1-.43.82Z"/><path class="cls-5" d="M192.1,151.15a1.06,1.06,0,0,1-.43.82l-5.91,3.41c-.24.13-.43,0-.43-.32v-.63a1,1,0,0,1,.43-.81l5.91-3.42c.23-.13.43,0,.43.33Z"/><path class="cls-5" d="M198.86,146.62a1,1,0,0,1,.43-.82l5.91-3.41c.23-.14.43,0,.43.32v.63a1.06,1.06,0,0,1-.43.82l-5.91,3.41c-.24.13-.43,0-.43-.33Z"/><path class="cls-5" d="M205.63,147.74a1,1,0,0,1-.43.82l-14.27,8.24c-.24.14-.43,0-.43-.32v-.62a1,1,0,0,1,.43-.82l14.27-8.24c.23-.13.43,0,.43.32Z"/><path class="cls-5" d="M189.06,157.31a1,1,0,0,1-.43.82l-2.87,1.66c-.24.13-.43,0-.43-.33v-.62a1,1,0,0,1,.43-.82l2.87-1.66c.24-.13.43,0,.43.33Z"/><path class="cls-5" d="M196.84,147.22c.23-.14.42,0,.42.32v.63a1,1,0,0,1-.42.81l-2.77,1.6c-.24.14-.43,0-.43-.32v-.62a1,1,0,0,1,.43-.82Z"/><path class="cls-5" d="M192.37,159.59a1.06,1.06,0,0,1-.43.82L186,163.82c-.24.13-.43,0-.43-.33v-.62a1,1,0,0,1,.43-.82l5.91-3.41c.23-.13.43,0,.43.33Z"/><path class="cls-5" d="M197.13,156.69a1,1,0,0,1-.43.82l-2.77,1.59c-.23.14-.42,0-.42-.32v-.62a1,1,0,0,1,.42-.82l2.77-1.6c.24-.13.43,0,.43.33Z"/><polygon class="cls-16" points="191.88 136.62 181.55 142.58 181.55 128.8 191.88 122.84 191.88 136.62"/><polygon class="cls-17" points="178.7 127.16 178.7 140.93 181.55 142.58 181.55 128.8 178.7 127.16"/><polygon class="cls-18" points="190.68 122.14 181.34 127.53 179.71 126.58 178.7 127.16 181.55 128.8 191.88 122.84 190.68 122.14"/><path class="cls-19" d="M124,111.54V37.46a4.68,4.68,0,0,1,2-3.76l39.48-22.8a1.2,1.2,0,0,1,1.44,0h0l2.44,1.41-1.9,4.62V86.47a4.74,4.74,0,0,1-2,3.77l-37.12,21.43-1.19,2.87-2.44-1.4h0A1.69,1.69,0,0,1,124,111.54Z"/><path class="cls-20" d="M126.53,113c0,1.44.89,2.11,2,1.49L168,91.71A4.74,4.74,0,0,0,170,88V13.86c0-1.44-.89-2.11-2-1.49L128.5,35.17a4.76,4.76,0,0,0-2,3.77Z"/><path class="cls-5" d="M153.44,60a1.58,1.58,0,0,1,.66-1.26l9.07-5.24c.36-.21.66,0,.66.5V55a1.6,1.6,0,0,1-.66,1.26l-9.07,5.24c-.36.21-.66,0-.66-.5Z"/><path class="cls-5" d="M143.05,67a1.6,1.6,0,0,1-.66,1.26l-9.07,5.24c-.36.2-.66,0-.66-.5V72a1.58,1.58,0,0,1,.66-1.26l9.07-5.24c.36-.21.66,0,.66.5Z"/><path class="cls-5" d="M155.89,66.33a1.55,1.55,0,0,1-.66,1.25L133.32,80.24c-.36.2-.66,0-.66-.5v-1a1.58,1.58,0,0,1,.66-1.25l21.91-12.66c.37-.21.66,0,.66.5Z"/><path class="cls-5" d="M163.83,61.74a1.58,1.58,0,0,1-.66,1.26l-4.41,2.54c-.36.21-.66,0-.66-.49v-1a1.6,1.6,0,0,1,.66-1.26l4.41-2.55c.36-.21.66,0,.66.5Z"/><path class="cls-5" d="M146.16,66.05c-.36.21-.66,0-.66-.5v-1a1.6,1.6,0,0,1,.66-1.26l4.25-2.45c.36-.21.66,0,.66.5v1a1.6,1.6,0,0,1-.66,1.26Z"/><path class="cls-5" d="M143.05,81.14a1.58,1.58,0,0,1-.66,1.25l-9.07,5.24c-.36.21-.66,0-.66-.49v-1a1.6,1.6,0,0,1,.66-1.26l9.07-5.24c.36-.21.66,0,.66.5Z"/><path class="cls-5" d="M153.44,74.18a1.56,1.56,0,0,1,.66-1.25l9.07-5.25c.36-.21.66,0,.66.5v1a1.6,1.6,0,0,1-.66,1.26l-9.07,5.23c-.36.21-.66,0-.66-.5Z"/><path class="cls-5" d="M163.83,75.91a1.58,1.58,0,0,1-.66,1.25L141.25,89.82c-.36.21-.65,0-.65-.5v-.95a1.58,1.58,0,0,1,.65-1.26l21.92-12.65c.36-.21.66,0,.66.49Z"/><path class="cls-5" d="M138.39,90.6a1.58,1.58,0,0,1-.66,1.25l-4.41,2.55c-.36.21-.66,0-.66-.5V93a1.58,1.58,0,0,1,.66-1.26l4.41-2.55c.36-.21.66,0,.66.5Z"/><path class="cls-5" d="M150.33,75.1c.36-.21.66,0,.66.5v1a1.58,1.58,0,0,1-.66,1.26l-4.25,2.45c-.36.21-.66,0-.66-.49v-1a1.6,1.6,0,0,1,.66-1.26Z"/><path class="cls-5" d="M143.47,94.1a1.56,1.56,0,0,1-.66,1.25l-9.08,5.24c-.36.21-.65,0-.65-.5v-1a1.59,1.59,0,0,1,.65-1.26l9.08-5.24c.36-.21.66,0,.66.5Z"/><path class="cls-5" d="M150.78,89.64a1.6,1.6,0,0,1-.66,1.26l-4.25,2.45c-.36.21-.65,0-.65-.5V91.9a1.59,1.59,0,0,1,.65-1.26l4.25-2.45c.36-.21.66,0,.66.5Z"/><g class="cls-21"><path class="cls-22" d="M142.83,45.33v4l2.58.49L148,46.32l2.58.5,2.59-3.48v-4l-2.59-.49v4l-2.58-.5-2.59,3.48v-4Z"/><path class="cls-23" d="M148,55.1a.25.25,0,0,1-.18,0L140,53.63c-.12,0-.19-.14-.19-.33v-12a1,1,0,0,1,.19-.55l7.81-10.52a.42.42,0,0,1,.38-.22L156,31.5c.11,0,.18.14.18.32v12a1,1,0,0,1-.18.55l-7.81,10.52A.67.67,0,0,1,148,55.1Zm-7.43-2.53L148,54l7.44-10V32.55L148,31.13l-7.43,10Z"/><path class="cls-24" d="M155.39,44.22l-.53-.1.15-.44.53.11Zm-1.06-.2-.52-.11.15-.44.53.1Zm-1.05-.2-.52-.11.15-.44.53.11Zm-1.05-.21-.52-.1.14-.44.53.11Zm-1-.2-.52-.1.15-.44.53.09Zm-1.06-.2-.52-.11.15-.43.52.1ZM149.07,43l-.53-.09.15-.44.53.1ZM148,42.81l-.52-.11.15-.44.53.1Zm-1-.21-.53-.1.15-.44.53.11Zm-1.05-.2-.53-.1.14-.45.53.1Zm-1.06-.21-.52-.1.15-.44.53.1Zm-1-.2-.53-.09.15-.45.52.11Zm-1.06-.2-.53-.1.16-.44.53.1Zm-1.05-.2-.53-.11.16-.44.53.1Zm-1.05-.21-.53-.1.15-.44.53.1Z"/><path class="cls-25" d="M140.6,52.76l-.15-.26.53-.72.15.27Zm1.05-1.42-.15-.26.53-.71.15.26Zm1.07-1.43-.15-.26.52-.71.16.27Zm1.05-1.41-.16-.26.53-.7.15.26Zm1-1.42-.15-.27.53-.7.15.26Zm1.06-1.42-.16-.26.53-.71.15.26Zm1-1.42-.15-.26.53-.71.15.27ZM148,42.82l-.15-.26.53-.71.15.26ZM149,41.41l-.14-.26.53-.71.15.27ZM150.08,40l-.16-.26.54-.73.15.26Zm1-1.42-.15-.26.52-.71.16.26Zm1.06-1.42-.16-.26.53-.72.16.28Zm1.05-1.42-.15-.27.52-.7.15.26Zm1-1.42-.13-.28.53-.71.15.27Zm1.05-1.42-.14-.26.52-.71.15.26Z"/><path class="cls-26" d="M148.15,54l-.3.17v-.81l.31-.18Zm0-1.62-.3.17v-.82l.31-.17Zm0-1.63-.3.17v-.81l.31-.17Zm0-1.62-.3.17v-.81l.31-.18Zm0-1.62-.3.17v-.82l.31-.17Zm0-1.62-.3.16v-.81l.31-.17Zm0-1.63-.3.17v-.8l.31-.17Zm0-1.62-.3.17V42l.31-.18Zm0-1.62-.3.17v-.81l.31-.18Zm0-1.62-.3.16v-.81l.31-.17Zm0-1.63-.3.17v-.81l.31-.18Zm0-1.62-.3.17v-.81l.31-.18Zm0-1.62-.3.17v-.81l.31-.18Zm0-1.62-.3.17v-.82l.31-.17Zm0-1.62-.3.16v-.81l.31-.18Z"/></g><path class="cls-27" d="M101.31,180.47v0a.08.08,0,0,1,0,0,0,0,0,0,1,0,0l0,0h0l0,0h0l-2.66-.5c-.08,0-.17,0-.25.14l-2.67,3.59h0l0,.05,0,0,0,.07v0s0,.05,0,.08h0a.38.38,0,0,0,0,.1v4c0,.12.05.2.12.22l2.67.5s0,0,0,0h0l.06,0,.07-.05v0l0-.05,2.66-3.58a.63.63,0,0,0,.13-.36v-4A.19.19,0,0,0,101.31,180.47Zm-2.91.1,2.17.41-2,2.67-.19.24-.18,0-2-.38ZM96,184.2l2.17.41v3.27l-2.17-.4Zm4.84.48-2.17,2.92v-3.27l2.17-2.92Z"/><path class="cls-27" d="M145,155.75h0a.08.08,0,0,0,0-.05h0a.05.05,0,0,0,0,0h-.06l-2.66-.5a.27.27,0,0,0-.25.14l-2.67,3.58h0l0,0,0,0,0,.06s0,0,0,0a.19.19,0,0,0,0,.07v4.15c0,.12,0,.2.12.22l2.67.5H142l.06,0,.07,0v0l.05-.05,2.66-3.59a.61.61,0,0,0,.13-.36v-4A.28.28,0,0,0,145,155.75Zm-2.91.11,2.17.41-2,2.66-.19.25-.18,0-2-.38Zm-2.42,3.63,2.17.41v3.27l-2.17-.41Zm4.84.48-2.17,2.91v-3.27l2.17-2.91Z"/><path class="cls-27" d="M189.63,128.8h0a.08.08,0,0,0,0,0,0,0,0,0,0,0,0l0,0h-.05l-2.67-.5c-.07,0-.17,0-.24.14l-2.67,3.58h0l0,.05,0,0s0,0,0,.06a0,0,0,0,0,0,0,.19.19,0,0,0,0,.07v0s0,.06,0,.09v4c0,.12,0,.2.13.22l2.67.5h.05a.09.09,0,0,0,.07,0l.06,0s0,0,0,0l0,0,2.67-3.59a.61.61,0,0,0,.13-.36v-4S189.63,128.83,189.63,128.8Zm-2.91.11,2.17.41-2,2.67-.18.24-.18,0-2-.38Zm-2.42,3.63,2.17.41v3.27l-2.17-.41Zm4.84.48L187,135.94v-3.28l2.17-2.91Z"/><path class="cls-28" d="M171.2,266.31c-14.85,6-16.92,12.89-8.06,18,10,5.8,17.61,7.38,30.6.4,11.9-6.3,11.21-13,2.06-18.6C189.41,262.08,183.21,261.58,171.2,266.31Z"/><path class="cls-29" d="M176.12,277.11a38.57,38.57,0,0,1-4.62-.27c-1.93-.28-3.44.33-3.63,1.74s.33,2.78,3.44,4,7,2.25,8.54,2.11a2.26,2.26,0,0,0,2,1c1.46.05,4.77.06,4.77-1.87A11,11,0,0,0,185,278.1C184.09,276.73,176.12,277.11,176.12,277.11Z"/><path class="cls-30" d="M171.31,282.54c3.11,1.18,7,2.25,8.54,2.11a2.26,2.26,0,0,0,2,1c1.46.05,4.77.06,4.77-1.87,0-.22,0-.45,0-.67-1.61,1.1-4.36,1.23-6.44,1a51,51,0,0,1-9.12-2.39,5.26,5.26,0,0,1-3.15-2.33C168,280.52,168.8,281.59,171.31,282.54Z"/><path class="cls-31" d="M191.64,265.81a38.57,38.57,0,0,1-4.62-.27c-1.93-.28-3.44.33-3.63,1.74s.33,2.78,3.44,4,7,2.26,8.54,2.11a2.24,2.24,0,0,0,2,1c1.46.05,4.77.06,4.77-1.87a11,11,0,0,0-1.56-5.66C199.61,265.43,191.64,265.81,191.64,265.81Z"/><path class="cls-32" d="M186.83,271.24c3.11,1.18,7,2.26,8.54,2.11a2.24,2.24,0,0,0,2,1c1.46.05,4.77.06,4.77-1.87,0-.22,0-.44,0-.67-1.61,1.1-4.36,1.23-6.44,1a51.84,51.84,0,0,1-9.12-2.38,5.34,5.34,0,0,1-3.15-2.34C183.5,269.22,184.32,270.29,186.83,271.24Z"/><path class="cls-33" d="M203.35,170.39s2.25,15.11-.54,22.31-15,0-15,0Z"/><path class="cls-34" d="M186.54,220.28c1.13,5.3,4.18,10.54,4.65,13.45s1.59,19.07,1.65,24.24-.46,6.5-.26,7.36.73,1.79,2.52,3.31,5.23,3.12,7,1.46c.67-.53.47-10.74.67-16.64.19-5.3-1.06-18.73-1.33-22.18-.33-4.11,1.13-12.07,1-18.56s-5.3-15.05-5.3-15.05-12.53,2.65-13.19,2.72C184,200.39,185.42,215,186.54,220.28Z"/><path class="cls-35" d="M186.54,220.28c1.13,5.3,4.18,10.54,4.65,13.45s1.59,19.07,1.65,24.24-.46,6.5-.26,7.36.73,1.79,2.52,3.31,5.23,3.12,7,1.46c.67-.53.47-10.74.67-16.64.19-5.3-1.06-18.73-1.33-22.18-.33-4.11,1.13-12.07,1-18.56s-5.3-15.05-5.3-15.05-12.53,2.65-13.19,2.72C184,200.39,185.42,215,186.54,220.28Z"/><path class="cls-36" d="M174.52,212.54a30.94,30.94,0,0,0,9.12,1.36,60.35,60.35,0,0,0,9.62-.76c-.2,8.63-3,12.11-4.06,16.55-1.13,5.24-2.59,4.71-1.66,12.06s.27,21.72.2,26-.8,12.6-1.33,13.46-3.25.4-5.63-.6c-4.58-1.86-4.38-4-4.38-4s.27-6.1.4-10.34c.13-4.91-.13-20.26-.86-27.69-.73-7.16-2.26-13.72-1.9-21.68C174.13,215,174.54,212.46,174.52,212.54Z"/><path class="cls-37" d="M176.19,200.64v0a61.87,61.87,0,0,0-1.71-13.68c-.91-4-1-10,1.46-12.53,3-3.09,8.78-6,13-7.44,6.7-2.27,13.22-2,14.1,1.81,1.74,7.59-1.46,14.65-2.05,19.09a45.57,45.57,0,0,0,0,14.25l0,.27h0s.88,6.1,1.17,8c-2.11,1.62-9.88,3.53-18.56,3.52a30.94,30.94,0,0,1-9.12-1.36C174.94,210.87,176.49,205.6,176.19,200.64Z"/><path class="cls-38" d="M192.59,161.09s.57,3.66.89,4.76c0,0,.64,1-2.9,2.45-2.27.94-7.05,1-7.05,1s.69-4.35.21-4.46a10.66,10.66,0,0,0-1.68-.09s2.22-6.61,4.38-7.15S192.59,161.09,192.59,161.09Z"/><path class="cls-39" d="M179.74,149.18a11.51,11.51,0,0,0-1,2.48c-.2,1,.22,1.2,0,2-.33,1.32.29,5.38.48,7.31s.77,3.58,1.87,3.8a2.72,2.72,0,0,0,2.9-1.82c.43-1.25.68-2.33.68-2.33a6.27,6.27,0,0,0,1-4.08C185.34,154.91,181.15,147.11,179.74,149.18Z"/><path class="cls-40" d="M192.55,146.58s-1.73-2.62-6.37-2.39-8.36,4.05-5.86,4.93c0,0,.65,2.51-.1,4,0,0,2.3.8,2.09,5.72,0,0,.76.63.72-.42s.79-2.51,1.69-2.26,1.07,1.16.82,2.46a11.69,11.69,0,0,1,2,3.23l5.08-.77s.83-2.11,2-4.29S197.09,149.59,192.55,146.58Z"/><path class="cls-41" d="M185.54,158.63c.25-1.3.08-2.22-.82-2.46s-1.73,1.22-1.69,2.26-.72.42-.72.42c.21-4.92-2.09-5.72-2.09-5.72.75-1.5.1-4,.1-4s10.9.86,7.19,12.74A11.69,11.69,0,0,0,185.54,158.63Z"/><path class="cls-42" d="M201,202.11l0,.27h0s.88,6.1,1.17,8c-2.11,1.62-9.88,3.53-18.56,3.52a30.94,30.94,0,0,1-9.12-1.36c.12-.47.33-1.23.56-2.19C195.3,205.6,202,183.12,202,183.12a.12.12,0,0,1,0,0,44.47,44.47,0,0,0-1,4.7A45.57,45.57,0,0,0,201,202.11Z"/><path class="cls-39" d="M155,155.58l.17.09c.92.56,2.09,4.21,2.55,5.74s-.75,4.08-.75,4.08l-4.32,1a25.42,25.42,0,0,1-1.73-4.49,3.13,3.13,0,0,0-.44.79c-.14.47-.65.83-.84.46a6.58,6.58,0,0,1,.66-3c.41-.91,2-1.23,2-1.23h0a9.11,9.11,0,0,1,2-.28,1.27,1.27,0,0,1,1.06.68,31.31,31.31,0,0,1-1.05-3.24C154.34,155.54,155,155.58,155,155.58Z"/><path class="cls-43" d="M154,165.61a12.85,12.85,0,0,0-1.85,1c.37,1.72,2.78,10.82,4.81,20.07l.21,1v0l0,.07,0,.16.1.31c.07.21.17.43.26.63s.23.43.36.64a4.77,4.77,0,0,0,.48.63,5.55,5.55,0,0,0,2.89,1.76,6,6,0,0,0,3.19-.16,6.52,6.52,0,0,0,.83-.36l.22-.11.28-.16.11-.06.21-.12.83-.46,1.64-.91,5.88-3.27,5.73-3.18a4.9,4.9,0,1,0-4.76-8.56,3.94,3.94,0,0,0-.4.26l-5.4,3.73-5.53,3.83-.43.29c-2.73-8.35-6.22-15.67-6.7-17.14A6,6,0,0,0,154,165.61Zm10.61,19.65s0,0,0,0a1,1,0,0,1,.07.18s0,.05,0,.08v0Z"/></g></g></svg>