<svg xmlns="http://www.w3.org/2000/svg" width="286" height="243" viewBox="0 0 286 243">
    <g fill="none" fill-rule="evenodd">
        <g opacity=".5" transform="translate(1)">
            <path stroke="#B3B3B3" stroke-width=".5" d="M99.585 78.45L80.65 89.38v21.861l18.935 10.93 18.93-10.93v-21.86"/>
            <path stroke="#B3B3B3" stroke-width=".5" d="M80.65 89.38l18.935 10.93V144.29"/>
            <path stroke="#B3B3B3" stroke-width=".5" d="M118.515 89.38l-18.93 10.93-18.935 10.931"/>
            <path stroke="#B3B3B3" stroke-width=".5" d="M99.585 100.31l18.93 10.931 13.01 7.906 6.05 3.678V78.347l18.934-10.93M42.785 111.25L23.85 100.315M42.785 89.38l18.93 10.93v21.874l-18.93 11.455 18.93 11.145 18.935-11.02"/>
            <path stroke="#B3B3B3" stroke-width=".5" d="M80.65 89.38l-18.935 10.93-18.93 10.931M99.585 78.45L80.65 67.52V31.399l12.975-7.618M106.137 38.527l12.378 7.794M23.85 144.29L4.92 133.764M244.833 162.73v-21.86l-18.93-10.93-18.935 10.93v21.86l18.934 10.931z"/>
            <path stroke="#B3B3B3" stroke-width=".5" d="M244.833 140.87l-18.93 10.93-18.935 10.93M137.575 56.486l18.934 10.93v21.861l-18.934 10.935-18.93-10.935v-21.86"/>
            <path stroke="#B3B3B3" stroke-width=".5" d="M118.644 67.417l18.93 10.93 18.935 10.93M137.575 78.347l-18.93 10.93M137.575 56.486v-21.86l18.934-10.93 18.93 10.93v21.86l-18.93 10.93z"/>
            <path stroke="#B3B3B3" stroke-width=".5" d="M175.315 56.486l-18.935-10.93-18.934-10.93-18.93-10.265V46.3M194.375 89.286v-21.86l18.93-10.931 18.935 10.93v21.861l-18.935 10.93"/>
            <path stroke="#B3B3B3" stroke-width=".5" d="M232.24 53.281l12.666 7.06-12.666 7.084-18.935 10.93v21.874"/>
            <path stroke="#B3B3B3" stroke-width=".5" d="M194.375 67.425l18.93 10.93 18.935 10.931V111.8l19.046 10.526V100.78M194.375 89.286l18.934-10.93M156.51 89.277v-21.86l18.93-10.93 18.935 10.93v21.86l-18.935 10.935z"/>
            <path stroke="#B3B3B3" stroke-width=".5" d="M194.375 67.417l-18.935 10.93v21.878l18.935 11.454-18.935 11.146-19.004-11.064"/>
            <path stroke="#B3B3B3" stroke-width=".5" d="M156.51 67.417l18.93 10.93 18.935 10.93M137.575 56.486l18.934-10.93V9.436l-12.975-7.619M130.893 16.563l-12.378 7.798M118.571 177.665v21.865l-18.93 10.93-18.935-10.93v-21.865l18.935-10.93z"/>
            <path stroke="#B3B3B3" stroke-width=".5" d="M99.64 166.722V188.6l-18.934 10.93-18.93 10.93v14.265"/>
            <path stroke="#B3B3B3" stroke-width=".5" d="M118.571 199.53l-18.93-10.93-18.935-10.935M118.571 177.67l-18.93 10.93M156.436 177.674l-18.93-10.93v-21.861l18.93-10.93 18.935 10.93v21.86"/>
            <path stroke="#B3B3B3" stroke-width=".5" d="M137.506 166.744l18.93-10.93V111.76"/>
            <path stroke="#B3B3B3" stroke-width=".5" d="M175.371 166.744l-18.935-10.93-18.93-10.931"/>
            <path stroke="#B3B3B3" stroke-width=".5" d="M156.436 155.813l18.935-10.93 13.01-7.906M156.436 177.674v21.86l-18.93 10.931-18.935-10.93v-21.861l18.935-10.93z"/>
            <path stroke="#B3B3B3" stroke-width=".5" d="M118.571 177.674l18.935 10.93 18.93 10.93 14.209 7.704 17.392 9.599M99.64 144.874v21.861l-18.934 10.93-18.93-10.93v-21.86"/>
            <path stroke="#B3B3B3" stroke-width=".5" d="M61.775 180.884l-12.67-7.064 12.67-7.085 18.93-10.93V133.93M99.64 144.874l-18.934 10.93M137.506 144.883v21.86l-18.935 10.931-18.93-10.93v-21.861l18.93-10.93z"/>
            <path stroke="#B3B3B3" stroke-width=".5" d="M99.64 166.744l18.931-10.93V133.94l-18.93-11.455"/>
            <path stroke="#B3B3B3" stroke-width=".5" d="M137.506 166.744l-18.935-10.93-18.93-10.931M49.105 203.174l12.67 7.287M49.105 159.517v14.303M118.571 242.998v-21.8l-18.93-10.737v22.007M156.436 177.674l-18.93 10.93v36.121l12.975 7.618M206.968 140.87l37.865 21.86"/>
            <circle cx="80.654" cy="67.417" r="1.817" fill="gray"/>
            <circle cx="42.793" cy="89.402" r="1.817" fill="gray"/>
            <circle cx="42.785" cy="111.383" r="1.817" fill="gray"/>
            <circle cx="23.635" cy="100.332" r="1.817" fill="gray"/>
            <circle cx="4.92" cy="133.764" r="1.817" fill="gray"/>
            <circle cx="23.248" cy="144.015" r="1.817" fill="gray"/>
            <circle cx="61.715" cy="100.332" r="1.817" fill="gray"/>
            <circle cx="61.775" cy="122.172" r="1.817" fill="gray"/>
            <circle cx="80.65" cy="111.383" r="1.817" fill="gray"/>
            <circle cx="42.793" cy="133.764" r="1.817" fill="gray"/>
            <circle cx="80.654" cy="45.921" r="1.817" fill="gray"/>
            <circle cx="80.714" cy="31.399" r="1.817" fill="gray"/>
            <circle cx="93.548" cy="23.781" r="1.817" fill="gray"/>
            <circle cx="99.576" cy="56.856" r="1.817" fill="gray"/>
            <circle cx="106.137" cy="38.604" r="1.817" fill="gray"/>
            <circle cx="118.515" cy="46.321" r="1.817" fill="gray"/>
            <circle cx="118.515" cy="24.361" r="1.817" fill="gray"/>
            <circle cx="130.893" cy="16.563" r="1.817" fill="gray"/>
            <circle cx="137.575" cy="34.63" r="1.817" fill="gray"/>
            <circle cx="137.575" cy="56.594" r="1.817" fill="gray"/>
            <circle cx="175.315" cy="56.486" r="1.817" fill="gray"/>
            <circle cx="156.436" cy="46.024" r="1.817" fill="gray"/>
            <circle cx="156.509" cy="67.417" r="1.817" fill="gray"/>
            <circle cx="156.574" cy="89.157" r="1.817" fill="gray"/>
            <circle cx="194.31" cy="89.05" r="1.817" fill="gray"/>
            <circle cx="213.309" cy="78.356" r="1.817" fill="gray"/>
            <circle cx="213.309" cy="100.311" r="1.817" fill="gray"/>
            <circle cx="194.31" cy="111.761" r="1.817" fill="gray"/>
            <circle cx="175.9" cy="122.485" r="1.817" fill="gray"/>
            <circle cx="156.574" cy="112.264" r="1.817" fill="gray"/>
            <circle cx="156.436" cy="133.953" r="1.817" fill="gray"/>
            <circle cx="175.371" cy="144.883" r="1.817" fill="gray"/>
            <circle cx="137.575" cy="145.205" r="1.817" fill="gray"/>
            <circle cx="188.037" cy="136.973" r="1.817" fill="gray"/>
            <circle cx="232.24" cy="89.157" r="1.817" fill="gray"/>
            <circle cx="251.286" cy="101.187" r="1.817" fill="gray"/>
            <circle cx="251.286" cy="122.172" r="1.817" fill="gray"/>
            <circle cx="232.24" cy="111.761" r="1.817" fill="gray"/>
            <circle cx="175.436" cy="78.588" r="1.817" fill="gray"/>
            <circle cx="175.504" cy="99.984" r="1.817" fill="gray"/>
            <circle cx="175.44" cy="34.858" r="1.817" fill="gray"/>
            <circle cx="156.509" cy="23.781" r="1.817" fill="gray"/>
            <circle cx="212.785" cy="56.443" r="1.817" fill="gray"/>
            <circle cx="194.375" cy="67.374" r="1.817" fill="gray"/>
            <circle cx="225.842" cy="152.028" r="1.817" fill="gray"/>
            <circle cx="244.837" cy="141.334" r="1.817" fill="gray"/>
            <circle cx="244.837" cy="162.542" r="1.817" fill="gray"/>
            <circle cx="225.842" cy="173.249" r="1.817" fill="gray"/>
            <circle cx="206.963" cy="141.566" r="1.817" fill="gray"/>
            <circle cx="207.036" cy="162.958" r="1.817" fill="gray"/>
            <circle cx="156.436" cy="155.805" r="1.817" fill="gray"/>
            <circle cx="137.575" cy="166.576" r="1.817" fill="gray"/>
            <circle cx="175.371" cy="166.744" r="1.817" fill="gray"/>
            <circle cx="156.479" cy="177.644" r="1.817" fill="gray"/>
            <circle cx="137.549" cy="188.329" r="1.817" fill="gray"/>
            <circle cx="156.479" cy="199.436" r="1.817" fill="gray"/>
            <circle cx="137.549" cy="210.293" r="1.817" fill="gray"/>
            <circle cx="137.549" cy="224.725" r="1.817" fill="gray"/>
            <circle cx="118.571" cy="221.086" r="1.817" fill="gray"/>
            <circle cx="99.641" cy="232.343" r="1.817" fill="gray"/>
            <circle cx="99.641" cy="210.293" r="1.817" fill="gray"/>
            <circle cx="80.65" cy="199.436" r="1.817" fill="gray"/>
            <circle cx="61.775" cy="210.293" r="1.817" fill="gray"/>
            <circle cx="61.715" cy="224.725" r="1.817" fill="gray"/>
            <circle cx="49.105" cy="203.174" r="1.817" fill="gray"/>
            <circle cx="150.554" cy="232.343" r="1.817" fill="gray"/>
            <circle cx="118.674" cy="178.611" r="1.817" fill="gray"/>
            <circle cx="99.576" cy="188.604" r="1.817" fill="gray"/>
            <circle cx="80.706" cy="177.644" r="1.817" fill="gray"/>
            <circle cx="99.641" cy="166.744" r="1.817" fill="gray"/>
            <circle cx="118.515" cy="155.805" r="1.817" fill="gray"/>
            <circle cx="118.515" cy="133.953" r="1.817" fill="gray"/>
            <circle cx="99.576" cy="144.883" r="1.817" fill="gray"/>
            <circle cx="80.706" cy="155.805" r="1.817" fill="gray"/>
            <circle cx="61.775" cy="166.722" r="1.817" fill="gray"/>
            <circle cx="61.775" cy="144.784" r="1.817" fill="gray"/>
            <circle cx="80.65" cy="133.931" r="1.817" fill="gray"/>
            <circle cx="49.105" cy="173.661" r="1.817" fill="gray"/>
            <circle cx="49.105" cy="159.517" r="1.817" fill="gray"/>
            <circle cx="61.715" cy="180.879" r="1.817" fill="gray"/>
            <circle cx="118.747" cy="200.003" r="1.817" fill="gray"/>
            <circle cx="188.11" cy="216.837" r="1.817" fill="gray"/>
            <circle cx="225.907" cy="130.352" r="1.817" fill="gray"/>
            <circle cx="232.983" cy="53.707" r="1.817" fill="gray"/>
            <circle cx="244.906" cy="60.233" r="1.817" fill="gray"/>
            <circle cx="232.24" cy="67.374" r="1.817" fill="gray"/>
            <circle cx="156.436" cy="9.435" r="1.817" fill="gray"/>
            <circle cx="143.869" cy="1.817" r="1.817" fill="gray"/>
            <circle cx="99.576" cy="78.609" r="1.817" fill="gray"/>
            <circle cx="80.654" cy="89.66" r="1.817" fill="gray"/>
            <circle cx="99.636" cy="100.199" r="1.817" fill="gray"/>
            <circle cx="99.692" cy="122.038" r="1.817" fill="gray"/>
            <circle cx="118.567" cy="111.25" r="1.817" fill="gray"/>
            <circle cx="137.575" cy="122.485" r="1.817" fill="gray"/>
            <circle cx="118.575" cy="89.527" r="1.817" fill="gray"/>
            <circle cx="137.575" cy="78.347" r="1.817" fill="gray"/>
            <circle cx="118.644" cy="67.374" r="1.817" fill="gray"/>
            <circle cx="137.506" cy="99.984" r="1.817" fill="gray"/>
            <circle cx="106.137" cy="38.437" r="4.735" stroke="#B3B3B3" stroke-width=".5"/>
            <circle cx="156.436" cy="9.607" r="4.735" stroke="#B3B3B3" stroke-width=".5"/>
            <circle cx="232.24" cy="67.438" r="4.735" stroke="#B3B3B3" stroke-width=".5"/>
            <circle cx="251.286" cy="122.038" r="4.735" stroke="#B3B3B3" stroke-width=".5"/>
            <circle cx="244.906" cy="162.542" r="4.735" stroke="#B3B3B3" stroke-width=".5"/>
            <circle cx="225.902" cy="130.352" r="4.735" stroke="#B3B3B3" stroke-width=".5"/>
            <circle cx="137.476" cy="224.725" r="4.735" stroke="#B3B3B3" stroke-width=".5"/>
            <circle cx="99.641" cy="232.343" r="4.735" stroke="#B3B3B3" stroke-width=".5"/>
            <circle cx="61.715" cy="210.293" r="4.735" stroke="#B3B3B3" stroke-width=".5"/>
            <circle cx="175.9" cy="122.172" r="4.735" stroke="#B3B3B3" stroke-width=".5"/>
            <circle cx="80.65" cy="133.953" r="4.735" stroke="#B3B3B3" stroke-width=".5"/>
            <circle cx="99.576" cy="78.609" r="4.735" stroke="#B3B3B3" stroke-width=".5"/>
            <circle cx="49.105" cy="173.82" r="4.735" stroke="#B3B3B3" stroke-width=".5"/>
            <circle cx="118.515" cy="155.813" r="4.735" stroke="#B3B3B3" stroke-width=".5"/>
            <circle cx="4.92" cy="133.764" r="4.735" stroke="#B3B3B3" stroke-width=".5"/>
        </g>
        <path fill="#38D611" stroke="#364A68" stroke-width=".859" d="M83.588 130.97v-18.762l-16.245-9.38-16.25 9.38v18.763l16.25 9.383z"/>
        <path stroke="#364A68" stroke-width="1.289" d="M128.078 63.636l.748-.43v-.86"/>
        <path stroke="#364A68" stroke-dasharray="1.731" stroke-width="1.289" d="M128.826 60.615V23.37"/>
        <path stroke="#364A68" stroke-width="1.289" d="M128.826 22.5v-.858l-.748-.43"/>
        <path stroke="#364A68" stroke-dasharray="1.731" stroke-width="1.289" d="M126.579 20.348L94.325 1.723"/>
        <path stroke="#364A68" stroke-width="1.289" d="M93.573 1.289l-.743-.43-.744.43"/>
        <path stroke="#364A68" stroke-dasharray="1.731" stroke-width="1.289" d="M90.587 2.157L58.328 20.782"/>
        <path stroke="#364A68" stroke-width="1.289" d="M57.58 21.212l-.742.43v.859"/>
        <path stroke="#364A68" stroke-dasharray="1.731" stroke-width="1.289" d="M56.838 24.237v37.242"/>
        <path stroke="#364A68" stroke-width="1.289" d="M56.838 62.347v.86l.743.429"/>
        <path stroke="#364A68" stroke-dasharray="1.731" stroke-width="1.289" d="M59.08 64.504l32.254 18.62"/>
        <path stroke="#364A68" stroke-width="1.289" d="M92.086 83.559l.744.43.743-.43"/>
        <path stroke="#364A68" stroke-dasharray="1.731" stroke-width="1.289" d="M95.077 82.69l32.254-18.62"/>
        <path stroke="#364A68" stroke-width="1.289" d="M103.335 142.374v-41.565L67.343 80.027l-35.997 20.782v41.565l35.997 20.782zM128.512 220.897l.743-.43v-.859"/>
        <path stroke="#364A68" stroke-dasharray="1.731" stroke-width="1.289" d="M129.255 217.872V180.63"/>
        <path stroke="#364A68" stroke-width="1.289" d="M129.255 179.762v-.86l-.743-.429"/>
        <path stroke="#364A68" stroke-dasharray="1.731" stroke-width="1.289" d="M127.008 177.605l-32.254-18.62"/>
        <path stroke="#364A68" stroke-width="1.289" d="M94.002 158.55l-.743-.43-.743.43"/>
        <path stroke="#364A68" stroke-dasharray="1.731" stroke-width="1.289" d="M91.016 159.418L58.758 178.04"/>
        <path stroke="#364A68" stroke-width="1.289" d="M58.01 178.473l-.743.43v.86"/>
        <path stroke="#364A68" stroke-dasharray="1.731" stroke-width="1.289" d="M57.267 181.494v37.246"/>
        <path stroke="#364A68" stroke-width="1.289" d="M57.267 219.608v.86l.744.429"/>
        <path stroke="#364A68" stroke-dasharray="1.731" stroke-width="1.289" d="M59.51 221.76l32.254 18.626"/>
        <path stroke="#364A68" stroke-width="1.289" d="M92.516 240.816l.743.43.743-.43"/>
        <path stroke="#364A68" stroke-dasharray="1.731" stroke-width="1.289" d="M95.506 239.952l32.254-18.625"/>
        <path stroke="#364A68" stroke-width="1.289" d="M139.03 162.447v41.56l35.996 20.783 35.997-20.783v-41.56l-35.997-20.782zM213.42 100.1l-.743.43v.86"/>
        <path stroke="#364A68" stroke-dasharray="1.731" stroke-width="1.289" d="M212.677 103.12v37.247"/>
        <path stroke="#364A68" stroke-width="1.289" d="M212.677 141.235v.86l.743.43"/>
        <path stroke="#364A68" stroke-dasharray="1.731" stroke-width="1.289" d="M214.92 143.388l32.258 18.625"/>
        <path stroke="#364A68" stroke-width="1.289" d="M247.925 162.443l.744.43.747-.43"/>
        <path stroke="#364A68" stroke-dasharray="1.731" stroke-width="1.289" d="M250.916 161.58l32.254-18.622"/>
        <path stroke="#364A68" stroke-width="1.289" d="M283.922 142.524l.743-.43v-.859"/>
        <path stroke="#364A68" stroke-dasharray="1.731" stroke-width="1.289" d="M284.665 139.504v-37.247"/>
        <path stroke="#364A68" stroke-width="1.289" d="M284.665 101.39v-.86l-.743-.43"/>
        <path stroke="#364A68" stroke-dasharray="1.731" stroke-width="1.289" d="M282.422 99.237L250.164 80.61"/>
        <path stroke="#364A68" stroke-width="1.289" d="M249.416 80.177l-.747-.43-.744.43"/>
        <path stroke="#364A68" stroke-dasharray="1.731" stroke-width="1.289" d="M246.426 81.045l-32.254 18.621"/>
        <path stroke="#364A68" stroke-width="1.289" d="M138.67 38.905V80.47l35.991 20.782 35.996-20.782V38.905l-35.996-20.778z"/>
        <path fill="#364A68" d="M66.088 131.164v-2.449a10.44 10.44 0 0 1-4.37-1.108l.77-3.008a9.298 9.298 0 0 0 4.275 1.13c1.469 0 2.474-.58 2.474-1.598 0-1.019-.825-1.586-2.737-2.23-2.754-.932-4.631-2.221-4.631-4.726 0-2.277 1.59-4.056 4.352-4.585v-2.444h2.53v2.272a9.19 9.19 0 0 1 3.726.838l-.765 2.913a8.21 8.21 0 0 0-3.7-.89c-1.653 0-2.199.736-2.199 1.453 0 .86.898 1.397 3.08 2.204 3.068 1.074 4.297 2.492 4.297 4.825s-1.607 4.228-4.563 4.726v2.643l-2.539.034z"/>
        <path fill="#38D611" stroke="#364A68" stroke-width=".859" d="M109.079 51.807V33.045l-16.25-9.384-16.249 9.384v18.762l16.25 9.38zM190.91 69.07V50.309l-16.249-9.384-16.245 9.384v18.763l16.245 9.38zM264.918 130.692v-18.763l-16.25-9.38-16.245 9.38v18.763l16.246 9.383zM191.276 192.609v-18.763l-16.25-9.38-16.25 9.38v18.763l16.25 9.379zM109.509 209.064v-18.763l-16.25-9.379-16.25 9.38v18.762l16.25 9.384z"/>
        <path fill="#364A68" d="M83.003 199.685c0-5.662 4.59-10.253 10.252-10.256 5.662-.002 10.255 4.585 10.26 10.248.005 5.662-4.58 10.257-10.243 10.264a10.26 10.26 0 0 1-10.269-10.256z"/>
        <path fill="#38D611" d="M94.045 198.03v2.15c.009.286-.103.563-.309.764-1.078 1.096-2.148 2.191-3.235 3.283a.804.804 0 1 1-1.16-1.113c.97-1.003 1.945-2.005 2.921-3.008a.528.528 0 0 0 .168-.43v-4.004c0-.339.216-.64.537-.747a.752.752 0 0 1 .88.262c.113.173.177.373.186.58.025.786.012 1.525.012 2.264z"/>
        <path fill="#364A68" d="M177.535 61.668c.058.03.11.065.16.107 1.878 1.865 3.752 3.734 5.62 5.607.11.104.197.23.257.37a.653.653 0 0 1-.262.76.683.683 0 0 1-.786 0 2.466 2.466 0 0 1-.21-.197l-5.612-5.586-.125-.116a6.544 6.544 0 0 1-5.615 1.332 6.406 6.406 0 0 1-3.966-2.578 6.672 6.672 0 1 1 10.54.34v-.039z"/>
        <path fill="#38D611" d="M167.68 57.17a4.726 4.726 0 0 1 4.644-4.482.4.4 0 0 1 .43.297.365.365 0 0 1-.185.43.705.705 0 0 1-.284.068 3.949 3.949 0 0 0-3.798 3.351c-.026.18-.03.37-.039.555a.43.43 0 0 1-.386.43.395.395 0 0 1-.387-.405c0-.094.004-.171.004-.244z"/>
        <path fill="#364A68" stroke="#364A68" stroke-width="1.289" d="M175.628 190.64h-6.797a1.38 1.38 0 0 1-1.345-.777 1.512 1.512 0 0 1-.146-.657V177.79a1.38 1.38 0 0 1 1.435-1.43h3.128c.482-.001.934.237 1.207.635l.464.619c.276.387.728.61 1.203.593h7.652c.566-.044 1.1.27 1.336.786.098.218.148.453.146.692v9.478a1.396 1.396 0 0 1-1.49 1.478c-2.256.004-4.529 0-6.793 0z"/>
        <path fill="#364A68" fill-rule="nonzero" d="M238.65 119.409c.678-.34 1.348-.7 2.04-1.01.309-.136.544-.4.644-.722a1.5 1.5 0 0 0-.03-1.289c-.275-.592-.48-1.211-.721-1.817a.22.22 0 0 1 .051-.28c.554-.545 1.109-1.095 1.65-1.65a.228.228 0 0 1 .292-.055c.774.31 1.55.612 2.329.907.08.027.168.027.25 0 .296-.09.588-.194.858-.305a.4.4 0 0 0 .19-.168c.378-.745.75-1.49 1.117-2.234a.228.228 0 0 1 .24-.146h2.2a.206.206 0 0 1 .215.137c.37.754.743 1.504 1.121 2.252.043.073.11.13.19.163.287.112.58.21.859.3a.395.395 0 0 0 .253 0c.79-.3 1.577-.61 2.359-.919a.18.18 0 0 1 .232.047 85.049 85.049 0 0 0 1.688 1.685.185.185 0 0 1 .043.245c-.343.777-.679 1.555-1.022 2.333a.284.284 0 0 0 0 .279c.137.283.253.576.386.86.039.082.1.152.177.201.744.378 1.49.75 2.238 1.113.1.038.16.14.146.245v2.178a.215.215 0 0 1-.15.236c-.705.327-1.407.66-2.106 1.001a.473.473 0 0 0-.193.207c-.142.283-.275.575-.4.859a.33.33 0 0 0 0 .232c.301.79.606 1.577.916 2.359.05.088.027.199-.052.262a61.487 61.487 0 0 0-1.675 1.671.18.18 0 0 1-.228.048l-2.342-.92a.33.33 0 0 0-.296.026c-.284.137-.576.253-.86.39a.43.43 0 0 0-.184.168c-.383.748-.757 1.496-1.13 2.247a.202.202 0 0 1-.215.138h-2.213a.202.202 0 0 1-.215-.138c-.37-.747-.743-1.492-1.121-2.234a.43.43 0 0 0-.21-.184 12.786 12.786 0 0 0-.86-.306.43.43 0 0 0-.253 0c-.782.301-1.563.606-2.342.916a.206.206 0 0 1-.262-.052 153.64 153.64 0 0 0-1.671-1.676.176.176 0 0 1-.043-.244c.343-.782.683-1.564 1.026-2.35a.25.25 0 0 0 0-.246c-.133-.27-.262-.545-.373-.829a.455.455 0 0 0-.245-.275c-.733-.36-1.468-.729-2.204-1.104-.052-.026-.12-.094-.12-.146.02-.79.025-1.594.025-2.406zm6.26 1.263a3.76 3.76 0 1 0 3.754-3.768 3.695 3.695 0 0 0-3.755 3.768zM95.012 32.434v4.727c0 .43.116.545.546.545h4.799v13.99c0 .404-.12.524-.524.524H86.329c-.4 0-.529-.125-.529-.524V32.94c0-.373.138-.52.499-.52h8.537l.176.013zm-1.916 9.882h5.087a.365.365 0 0 0 .387-.33.382.382 0 0 0-.305-.43 1.212 1.212 0 0 0-.25 0h-9.882a1.654 1.654 0 0 0-.206 0 .365.365 0 0 0-.34.36c0 .254.164.388.486.388l5.023.012zm0 5.955h-4.95a.95.95 0 0 0-.249 0 .36.36 0 0 0-.034.696c.073.023.15.034.227.03h9.986a.786.786 0 0 0 .244-.034.335.335 0 0 0 .237-.352.327.327 0 0 0-.262-.335c-.09-.011-.181-.011-.271 0l-4.928-.005zm.043-1.495h5.044a.365.365 0 0 0 .202-.687.739.739 0 0 0-.322-.056h-9.934a1.091 1.091 0 0 0-.206 0 .357.357 0 0 0-.314.378c0 .185.146.337.331.344.083.004.166.004.25 0l4.949.021zm0-2.234h5.104a.361.361 0 1 0 .082-.717 1.289 1.289 0 0 0-.288 0h-9.865a1.319 1.319 0 0 0-.292 0 .327.327 0 0 0-.27.348c0 .24.154.365.476.365l5.053.004zm0-4.464h5.104a.357.357 0 0 0 .357-.43c-.052-.21-.194-.296-.503-.296H87.95a.357.357 0 0 0-.34.378.344.344 0 0 0 .34.348c.077.004.154.004.232 0h4.958zM90.56 37.07h-2.488c-.3 0-.455.155-.43.43.026.275.164.33.43.335h4.971a.43.43 0 0 0 .34-.15.43.43 0 0 0 .034-.378.511.511 0 0 0-.37-.198c-.859-.056-1.688-.047-2.517-.047l.03.008z"/>
        <path fill="#364A68" d="M100.495 36.52h-3.97c-.241 0-.344-.094-.344-.322v-3.867s0-.025.03-.073l4.296 4.224-.012.038z"/>
        <path fill="#364A68" stroke="#38D611" stroke-linejoin="round" stroke-width="2.148" d="M175.413 143.65v-43l-37.238-21.5-37.238 21.5v43l37.238 21.5z"/>
        <path fill="#38D611" d="M113.522 121.802v14.239l12.33 7.12 12.332-7.12 12.326 7.12 12.331-7.12v-14.239l-12.326-7.12-.005 14.24-12.326-7.12-12.331 7.12v-14.235z"/>
    </g>
</svg>
