<?xml version="1.0" encoding="UTF-8"?><svg id="Layer_2" xmlns="http://www.w3.org/2000/svg" viewBox="0 0 375.13 355.49"><defs><style>.cls-1,.cls-2,.cls-3,.cls-4,.cls-5,.cls-6,.cls-7,.cls-8,.cls-9,.cls-10,.cls-11{fill:none;}.cls-1,.cls-2,.cls-3,.cls-4,.cls-5,.cls-6,.cls-8,.cls-10{stroke-linecap:round;stroke-linejoin:round;stroke-width:3.79px;}.cls-1,.cls-2,.cls-3,.cls-4,.cls-5,.cls-6,.cls-8,.cls-10,.cls-11{stroke:#eb6a9e;}.cls-2{stroke-dasharray:0 0 0 0 0 0 1.72 8.59 0 0 0 0;}.cls-12{fill:#eb6a9e;}.cls-3{stroke-dasharray:0 0 0 0 0 0 1.69 8.44 0 0 0 0;}.cls-4{stroke-dasharray:0 0 0 0 0 0 1.71 8.54 0 0 0 0;}.cls-5{stroke-dasharray:0 0 0 0 0 0 1.7 8.52 0 0 0 0;}.cls-6{stroke-dasharray:0 0 0 0 0 0 1.89 9.47 0 0 0 0;}.cls-13,.cls-7{opacity:.5;}.cls-7{isolation:isolate;}.cls-7,.cls-9{stroke:#e43272;stroke-width:.47px;}.cls-7,.cls-9,.cls-11{stroke-miterlimit:10;}.cls-8{stroke-dasharray:0 0 0 0 0 0 1.69 8.44 0 0 0 0;}.cls-10{stroke-dasharray:0 0 0 0 0 0 2.04 10.18 0 0 0 0;}.cls-11{stroke-width:1.89px;}</style></defs><g id="Heading_1"><g><g id="main_grid"><polygon class="cls-7" points="107.3 123.22 107.3 92.36 80.58 76.93 53.85 92.36 53.85 123.22 80.58 138.66 107.3 123.22"/><polyline class="cls-7" points="80.58 138.68 80.58 107.79 53.85 92.36 27.12 76.93 27.12 56.8"/><polyline class="cls-7" points="107.3 92.36 80.58 107.79 53.85 123.22"/><line class="cls-7" x1="107.3" y1="123.22" x2="80.58" y2="107.79"/><polyline class="cls-7" points="160.75 123.21 134.02 138.64 134.02 169.51 160.75 184.94 187.47 169.51 187.47 138.64"/><polyline class="cls-7" points="134.02 138.64 160.75 154.08 160.75 184.96 160.75 216.15"/><polyline class="cls-7" points="187.47 138.64 160.75 154.08 134.02 169.51"/><polyline class="cls-7" points="160.75 154.08 187.47 169.51 205.84 180.67 214.39 185.86 214.38 185.16 214.38 153.95 214.39 123.08 241.11 107.65"/><polygon class="cls-7" points="160.75 123.21 160.75 92.35 134.02 76.92 107.3 92.35 107.3 123.21 134.02 138.64 160.75 123.21"/><polyline class="cls-7" points="107.3 123.21 134.02 107.78 160.75 92.35 187.47 77.87 187.47 107.78"/><polyline class="cls-7" points="80.58 169.52 80.58 138.66 53.85 123.22 27.12 138.66 27.12 169.52 53.85 184.95"/><polyline class="cls-7" points="27.12 118.69 9.25 128.66 27.12 138.66 53.85 154.09 53.85 184.97"/><polyline class="cls-7" points="80.58 138.66 53.85 154.09 27.12 169.52 27.12 201.3 .24 216.15 .24 185.73"/><line class="cls-7" x1="80.58" y1="169.52" x2="53.85" y2="154.09"/><polygon class="cls-7" points="134.02 169.51 134.02 138.64 107.3 123.21 80.58 138.64 80.58 169.51 107.3 184.94 134.02 169.51"/><polyline class="cls-7" points="80.58 138.64 107.3 154.08 107.3 184.96 80.58 201.12 107.3 216.86 134.02 201.3"/><polyline class="cls-7" points="134.02 138.64 107.3 154.08 80.58 169.51"/><line class="cls-7" x1="9.25" y1="87.22" x2="27.12" y2="76.93"/><line class="cls-7" x1="9.25" y1="148.85" x2="9.25" y2="128.66"/><polyline class="cls-7" points="107.3 31.01 107.3 61.79 80.58 76.93 80.58 45.87"/><polyline class="cls-7" points="160.75 123.21 134.02 107.78 134.02 76.92 134.02 56.8 152.34 46.05"/><line class="cls-7" x1="170" y1="66.86" x2="187.47" y2="77.87"/><line class="cls-7" x1="53.85" y1="216.15" x2="27.12" y2="201.3"/><polygon class="cls-7" points="365.79 242.19 365.79 211.33 339.06 195.9 312.33 211.33 312.33 242.19 339.06 257.62 365.79 242.19"/><polyline class="cls-7" points="365.79 211.33 339.06 226.76 312.33 242.19"/><polyline class="cls-7" points="339.06 288.48 339.06 257.62 312.33 242.19 285.61 257.62 285.61 288.48 312.33 303.9"/><polyline class="cls-7" points="267.73 247.61 285.61 257.62 312.33 273.05 312.33 303.92"/><polyline class="cls-7" points="285.61 319.21 285.61 288.48 312.33 273.05 339.06 257.62 339.06 226.73"/><line class="cls-7" x1="339.06" y1="288.47" x2="312.33" y2="273.05"/><polygon class="cls-7" points="267.83 92.23 267.83 61.37 294.56 45.94 321.28 61.37 321.28 92.23 294.56 107.66 267.83 92.23"/><polyline class="cls-7" points="294.56 107.67 294.56 76.8 321.28 61.37 348.01 45.94 348.01 25.79"/><polyline class="cls-7" points="267.83 61.37 294.56 76.8 321.28 92.23"/><line class="cls-7" x1="267.83" y1="92.23" x2="294.56" y2="76.8"/><polyline class="cls-7" points="214.38 92.22 241.11 107.65 241.11 138.51 214.38 153.94 187.66 138.51 187.66 107.65"/><polyline class="cls-7" points="187.66 107.65 214.39 123.08 241.11 138.51"/><line class="cls-7" x1="214.38" y1="123.08" x2="187.66" y2="138.51"/><polygon class="cls-7" points="214.39 92.22 214.39 61.36 241.11 45.92 267.83 61.36 267.83 92.22 241.11 107.65 214.39 92.22"/><polyline class="cls-7" points="267.65 92.22 240.93 76.79 214.2 61.36 187.47 46.87 187.47 77.83"/><polyline class="cls-7" points="294.56 138.52 294.56 107.66 321.28 92.23 348.01 107.66 348.01 138.52 321.28 153.94"/><polyline class="cls-7" points="348.01 87.68 365.89 97.65 348.01 107.66 321.28 123.09 321.28 153.96"/><polyline class="cls-7" points="294.56 107.66 321.28 123.09 348.01 138.52 348.01 170.29 374.89 185.16 374.89 154.74"/><line class="cls-7" x1="294.56" y1="138.51" x2="321.28" y2="123.09"/><polygon class="cls-7" points="241.11 138.51 241.11 107.65 267.83 92.22 294.56 107.65 294.56 138.51 267.83 153.94 241.11 138.51"/><polyline class="cls-7" points="294.56 107.65 267.83 123.08 267.83 153.95 294.56 170.12 267.83 185.86 241.01 170.24"/><polyline class="cls-7" points="241.11 107.65 267.83 123.08 294.56 138.51"/><polyline class="cls-7" points="267.83 0 267.83 30.78 294.56 45.94 294.56 14.87"/><polyline class="cls-7" points="214.39 92.22 241.11 76.79 241.11 45.92 241.11 25.79 222.79 15.04"/><line class="cls-7" x1="204.95" y1="35.86" x2="187.47" y2="46.87"/><g class="cls-13"><polygon class="cls-9" points="187.55 263.27 187.55 294.14 160.83 309.56 134.11 294.14 134.11 263.27 160.83 247.84 187.55 263.27"/><polyline class="cls-9" points="160.83 247.82 160.83 278.71 134.11 294.14 107.38 309.56 107.38 329.7"/><polyline class="cls-9" points="187.55 294.14 160.83 278.71 134.11 263.27"/><line class="cls-9" x1="187.55" y1="263.27" x2="160.83" y2="278.71"/><polyline class="cls-9" points="241.01 263.29 214.28 247.85 214.28 216.99 241.01 201.56 267.73 216.99 267.73 247.85"/><polyline class="cls-9" points="214.28 247.85 241.01 232.42 241.01 201.54 241.01 170.24"/><polyline class="cls-9" points="267.73 247.85 241.01 232.42 214.28 216.99"/><polyline class="cls-9" points="241.01 232.42 267.73 216.99 286.1 205.83"/><polygon class="cls-9" points="241.01 263.29 241.01 294.14 214.28 309.57 187.55 294.14 187.55 263.29 214.28 247.85 241.01 263.29"/><polyline class="cls-9" points="187.55 263.29 214.28 278.72 241.01 294.14 261.06 305.01 285.61 318.56"/><polyline class="cls-9" points="160.83 216.98 160.83 247.84 134.11 263.27 107.38 247.84 107.38 216.98"/><polyline class="cls-9" points="107.38 267.81 89.49 257.84 107.38 247.84 134.11 232.41 134.11 201.53"/><line class="cls-9" x1="160.83" y1="216.98" x2="134.11" y2="232.41"/><polygon class="cls-9" points="214.28 216.99 214.28 247.85 187.55 263.29 160.83 247.85 160.83 216.99 187.55 201.56 214.28 216.99"/><polyline class="cls-9" points="160.83 247.85 187.55 232.42 187.55 201.54 160.83 185.38"/><polyline class="cls-9" points="214.28 247.85 187.55 232.42 160.83 216.99"/><line class="cls-9" x1="89.49" y1="299.28" x2="107.38" y2="309.57"/><line class="cls-9" x1="89.49" y1="237.65" x2="89.49" y2="257.84"/><polyline class="cls-9" points="187.55 355.49 187.55 324.71 160.83 309.56 160.83 340.63"/><polyline class="cls-9" points="241.01 263.29 214.28 278.72 214.28 309.57 214.28 329.7 232.6 340.45"/></g><line class="cls-7" x1="312.33" y1="211.33" x2="365.79" y2="242.19"/></g><g><polygon class="cls-11" points="272.24 125.73 272.24 120.43 267.65 117.78 263.06 120.43 263.06 125.73 267.65 128.38 272.24 125.73"/><polygon class="cls-12" points="169.7 66.89 169.7 61.59 165.11 58.94 160.52 61.59 160.52 66.89 165.11 69.54 169.7 66.89"/><polygon class="cls-11" points="85.17 141.16 85.17 135.86 80.58 133.21 75.99 135.86 75.99 141.16 80.58 143.81 85.17 141.16"/><polygon class="cls-12" points="63.03 221.78 63.03 216.48 58.44 213.83 53.85 216.48 53.85 221.78 58.44 224.43 63.03 221.78"/><polygon class="cls-12" points="192.14 204.21 192.14 198.91 187.55 196.26 182.96 198.91 182.96 204.21 187.55 206.86 192.14 204.21"/><polygon class="cls-11" points="165.42 281.35 165.42 276.05 160.83 273.4 156.24 276.05 156.24 281.35 160.83 284 165.42 281.35"/><polygon class="cls-11" points="272.24 250.5 272.24 245.2 267.65 242.55 263.06 245.2 263.06 250.5 267.65 253.15 272.24 250.5"/><polygon class="cls-11" points="85.17 44.02 85.17 38.72 80.58 36.07 75.99 38.72 75.99 44.02 80.58 46.67 85.17 44.02"/><polygon class="cls-11" points="245.21 28.44 245.21 23.14 240.62 20.49 236.03 23.14 236.03 28.44 240.62 31.09 245.21 28.44"/><polygon class="cls-12" points="348.18 87.29 348.18 81.99 343.59 79.34 339 81.99 339 87.29 343.59 89.94 348.18 87.29"/><line class="cls-1" x1="214.39" y1="61.36" x2="240.93" y2="76.79"/><line class="cls-6" x1="244.71" y1="78.85" x2="271.25" y2="94.28"/><g><line class="cls-1" x1="107.3" y1="92.36" x2="108.12" y2="91.89"/><line class="cls-5" x1="115.5" y1="87.63" x2="133.2" y2="77.4"/><polyline class="cls-1" points="133.2 77.4 134.02 76.92 134.84 77.4"/><line class="cls-8" x1="142.15" y1="81.62" x2="159.7" y2="91.74"/><line class="cls-1" x1="159.7" y1="91.74" x2="160.52" y2="92.22"/></g><line class="cls-6" x1="187.66" y1="138.51" x2="214.38" y2="153.94"/><line class="cls-1" x1="134.02" y1="169.51" x2="134.02" y2="138.64"/><polyline class="cls-1" points="321.28 92.23 321.28 61.37 294.56 45.94"/><polyline class="cls-1" points="241.01 170.24 267.83 185.86 294.56 170.12"/><line class="cls-1" x1="27.12" y1="138.66" x2="27.12" y2="201.3"/><g><line class="cls-1" x1="107.38" y1="216.98" x2="108.2" y2="216.5"/><line class="cls-4" x1="115.55" y1="212.17" x2="133.21" y2="201.78"/><polyline class="cls-1" points="133.21 201.78 134.02 201.3 134.03 202.25"/><line class="cls-2" x1="134.05" y1="210.84" x2="134.11" y2="231.47"/><line class="cls-1" x1="134.11" y1="231.47" x2="134.11" y2="232.41"/></g><polyline class="cls-1" points="187.55 232.42 214.28 247.85 214.28 216.99"/><g><line class="cls-1" x1="285.61" y1="257.62" x2="285.61" y2="258.57"/><line class="cls-10" x1="285.61" y1="268.75" x2="285.61" y2="317.61"/><polyline class="cls-1" points="285.61 317.61 285.61 318.56 284.78 318.1"/><line class="cls-3" x1="277.38" y1="314.05" x2="241.84" y2="294.59"/><line class="cls-1" x1="241.84" y1="294.59" x2="241.01" y2="294.14"/></g><polyline class="cls-1" points="339.06 257.62 339.06 226.76 365.79 211.33"/><line class="cls-6" x1="267.73" y1="216.99" x2="286.1" y2="205.83"/><line class="cls-1" x1="53.85" y1="92.36" x2="27.12" y2="76.93"/><polyline class="cls-1" points="134.11 294.14 160.83 309.56 160.83 340.63"/></g></g></g></svg>