<svg height="163" width="163" xmlns="http://www.w3.org/2000/svg"><g fill="none" fill-rule="evenodd" transform="translate(1 1)"><circle cx="80.5" cy="80.5" fill="#fff" fill-opacity=".1" r="80" stroke="#122742" stroke-width="2"/><circle cx="80.5" cy="80.5" fill="#fff" r="73.75" stroke="#122742"/><g stroke="#95025c"><path d="m63 63 9-24" stroke-width="1.5"/><path d="m66.315 64.455 44.609 18.714" stroke-width="2"/><path d="m113.895 56.095.23 23.299m15.003-5.449-11.238 6.825m16.438 22.247-16.418-18.597m-8.887 25.173 4.606-22.573"/><path d="m64.395 66.72 8.832 25.4" stroke-width="2"/><path d="m71.754 98.141-8.638 11.105" stroke-width="1.5"/><path d="m61.855 114.406-2.429 15.404m-1.03-19.895-12.578-2.618"/><path d="m58.374 65.248-11.773 7.149" stroke-width="1.5"/><path d="m58.345 59.772-15.855-13.445"/></g><path d="m118.119 88.069a6.066 6.066 0 1 1 -6.297-10.37 6.066 6.066 0 0 1 6.297 10.37m-42.463 11.358a4.449 4.449 0 0 1 -4.617-7.603 4.448 4.448 0 0 1 4.617 7.603m-29.321-21.749a4.449 4.449 0 0 1 -4.617-7.603 4.448 4.448 0 0 1 4.617 7.603m17.701 37.593a4.448 4.448 0 1 1 -4.617-7.604 4.448 4.448 0 0 1 4.617 7.604m10.291-72.814a4.448 4.448 0 1 1 -4.616-7.605 4.448 4.448 0 0 1 4.616 7.605m41.348 13.477a3.033 3.033 0 1 1 -3.393-5.03 3.033 3.033 0 0 1 3.393 5.03m17.069 19.666a3.033 3.033 0 1 1 -3.393-5.028 3.033 3.033 0 0 1 3.393 5.028" fill="#122742" fill-rule="nonzero"/><path d="m132.744 75.6a3.033 3.033 0 1 1 -3.393-5.028 3.033 3.033 0 0 1 3.393 5.028m3.919 30.58a3.033 3.033 0 1 1 -3.393-5.028 3.033 3.033 0 0 1 3.393 5.028m-26.7 6.691a3.033 3.033 0 1 1 -3.393-5.029 3.033 3.033 0 0 1 3.393 5.029m-67.623-66.266a3.032 3.032 0 1 1 -3.392-5.026 3.032 3.032 0 0 1 3.392 5.026m2.909 62.69a3.033 3.033 0 1 1 -3.393-5.027 3.033 3.033 0 0 1 3.393 5.027m15.872 24.433a3.033 3.033 0 1 1 -3.393-5.027 3.033 3.033 0 0 1 3.393 5.027m4.439-65.404a6.066 6.066 0 1 1 -6.295-10.367 6.066 6.066 0 0 1 6.295 10.367" fill="#122742" fill-rule="nonzero"/></g></svg>