<svg xmlns="http://www.w3.org/2000/svg" width="794" height="612" viewBox="0 0 794 612">
    <g fill="none" fill-rule="evenodd" stroke="#C1C1C1" stroke-linecap="round" stroke-linejoin="round" stroke-width=".25">
        <path d="M20.63 612L1 578M793 22.22L609.53 340M793 555.78L609.53 238M793 521.78L609.53 204M793 487.78L609.53 170M793 453.78L609.53 136M793 419.78L609.53 102M793 385.78L609.53 68M793 351.78L609.53 34M793 317.78L609.53 0M793 113.78L727.31 0M793 79.78L746.94 0M793 45.78L766.57 0M793 11.78L786.2 0M793 396.22L668.42 612M793 362.22L648.79 612M793 328.22L629.16 612M793 294.22L609.53 612M793 430.22L688.05 612M793 464.22L707.68 612M793 532.22L746.94 612M793 566.22L766.57 612M793 600.22L786.2 612M793 124.22L609.53 442M793 90.22L609.53 408M793 56.22L609.53 374M793 249.78L648.79 0M793 215.78L668.42 0M793 181.78L688.05 0M793 147.78L707.68 0M793 260.22L609.53 578M793 226.22L609.53 544M793 192.22L609.53 510M793 158.22L609.53 476M793 283.78L629.16 0M793 595H609.53M793 578H609.53M793 561H609.53M793 544H609.53M793 527H609.53M793 510H609.53M793 493H609.53M793 476H609.53M793 459H609.53M793 442H609.53M793 425H609.53M793 408H609.53M793 391H609.53M793 374H609.53M793 357H609.53M793 340H609.53M793 323H609.53M793 306H609.53M793 289H609.53M793 272H609.53M793 255H609.53M793 238H609.53M793 221H609.53M793 204H609.53M793 187H609.53M793 170H609.53M793 153H609.53M793 136H609.53M793 119H609.53M793 102H609.53M793 85H609.53M793 68H609.53M793 51H609.53M793 34H609.53M793 17H609.53M793 498.22L727.31 612M629.16 612l-19.63-34M648.79 612l-39.26-68M668.42 612l-58.89-102M688.05 612l-78.52-136M707.68 612l-98.15-170M727.31 612L609.53 408M746.94 612L609.53 374M766.57 612L609.53 340M786.2 612L609.53 306M648.79 0l-39.26 68M786.2 0L609.53 306M766.57 0L609.53 272M746.94 0L609.53 238M727.31 0L609.53 204M707.68 0l-98.15 170M688.05 0l-78.52 136M668.42 0l-58.89 102M629.16 0l-19.63 34M609.53 17H1M609.53 34H1M609.53 51H1M609.53 68H1M609.53 85H1M609.53 102H1M609.53 119H1M609.53 136H1M609.53 153H1M609.53 170H1M609.53 187H1M609.53 204H1M609.53 221H1M609.53 238H1M609.53 255H1M609.53 272H1M609.53 289H1M609.53 306H1M609.53 323H1M609.53 340H1M609.53 357H1M609.53 374H1M609.53 391H1M609.53 408H1M609.53 425H1M609.53 442H1M609.53 459H1M609.53 476H1M609.53 493H1M609.53 510H1M609.53 527H1M609.53 544H1M609.53 561H1M609.53 578H1M609.53 595H1M373.97 612L20.63 0M609.53 578L275.82 0M609.53 544L295.45 0M609.53 510L315.08 0M609.53 476L334.71 0M609.53 442L354.34 0M609.53 408L373.97 0M609.53 374L393.6 0M609.53 340L413.23 0M609.53 306L432.86 0M609.53 272L452.49 0M609.53 238L472.12 0M609.53 204L491.75 0M609.53 170L511.38 0M609.53 136L531.01 0M609.53 102L550.64 0M609.53 68L570.27 0M609.53 34L589.9 0M609.53 578l-19.63 34M609.53 544l-39.26 68M609.53 510l-58.89 102M609.53 476l-78.52 136M609.53 442l-98.15 170M275.82 0L1 476M295.45 0L1 510M315.08 0L1 544M334.71 0L1 578M452.49 612L99.15 0M432.86 612L79.52 0M413.23 612L59.89 0M393.6 612L40.26 0M20.63 0L1 34M59.89 0L1 102M79.52 0L1 136M99.15 0L1 170M118.78 0L1 204M138.41 0L1 238M158.04 0L1 272M177.67 0L1 306M197.3 0L1 340M216.93 0L1 374M236.56 0L1 408M256.19 0L1 442M40.26 0L1 68M609.53 408L491.75 612M609.53 374L472.12 612M609.53 340L452.49 612M609.53 306L432.86 612M609.53 272l-196.3 340M609.53 238L393.6 612M609.53 204L373.97 612M609.53 170L354.34 612M609.53 136L334.71 612M609.53 102L315.08 612M609.53 68L295.45 612M609.53 34L275.82 612M609.53 0L256.19 612M589.9 0L236.56 612M570.27 0L216.93 612M550.64 0L197.3 612M531.01 0L177.67 612M511.38 0L158.04 612M491.75 0L138.41 612M472.12 0L118.78 612M452.49 0L99.15 612M432.86 0L79.52 612M354.34 0L1 612M373.97 0L20.63 612M393.6 0L40.26 612M413.23 0L59.89 612M531.01 612L177.67 0M511.38 612L158.04 0M491.75 612L138.41 0M472.12 612L118.78 0M550.64 612L197.3 0M570.27 612L216.93 0M589.9 612L236.56 0M609.53 612L256.19 0M354.34 612L1 0M334.71 612L1 34M315.08 612L1 68M295.45 612L1 102M275.82 612L1 136M256.19 612L1 170M236.56 612L1 204M216.93 612L1 238M197.3 612L1 272M177.67 612L1 306M158.04 612L1 340M138.41 612L1 374M118.78 612L1 408M99.15 612L1 442M79.52 612L1 476M59.89 612L1 510M40.26 612L1 544M793 589.78L609.53 272"/>
    </g>
</svg>
