<?xml version="1.0" encoding="UTF-8"?>
<svg width="185px" height="80px" viewBox="0 0 185 80" version="1.1" xmlns="http://www.w3.org/2000/svg" xmlns:xlink="http://www.w3.org/1999/xlink">
    <!-- Generator: Sketch 64 (93537) - https://sketch.com -->
    <title>jina_logo</title>
    <desc>Created with Sketch.</desc>
    <g id="页面-1" stroke="none" stroke-width="1" fill="none" fill-rule="evenodd">
        <g id="jina_logo">
            <g id="编组">
                <g id="编组-2">
                    <circle id="椭圆形备份-3" fill="#FF7673" cx="12.096197" cy="67.096197" r="12.096197"></circle>
                    <path d="M50.3096743,28.7620684 C51.2999669,28.7620684 52.1027576,29.5648592 52.1027576,30.5551518 L52.1027309,30.5649499 L51.9702745,54.8044691 C51.9702745,68.0319484 41.3545137,78.779984 28.1779459,78.993622 L27.7778805,78.9968631 L27.7778805,54.8044691 L27.8458805,54.8040684 L27.9151235,30.5500722 C27.9179232,29.5617667 28.7198902,28.7620684 29.7081996,28.7620684 L50.3096743,28.7620684 Z M103.337917,71.7497686 C103.671452,71.7497686 103.959898,71.7911516 104.203254,71.8739177 C104.446611,71.9566837 104.648585,72.0666267 104.809176,72.2037466 C104.969767,72.3408664 105.087122,72.4847805 105.161241,72.6354889 C105.23536,72.7861972 105.272419,72.9331996 105.272419,73.0764961 C105.272419,73.2074394 105.226095,73.3254119 105.133446,73.4304136 C105.040798,73.5354153 104.925296,73.5879162 104.78694,73.5879162 C104.660938,73.5879162 104.565202,73.5564156 104.49973,73.4934146 C104.434258,73.4304136 104.363228,73.3272649 104.286638,73.1839684 C104.187813,72.9789062 104.069223,72.818933 103.930868,72.7040488 C103.792513,72.5891646 103.570156,72.5317225 103.263798,72.5317225 C102.979676,72.5317225 102.750525,72.5941059 102.576346,72.7188726 C102.402166,72.8436393 102.315077,72.99373 102.315077,73.1691446 C102.315077,73.2778523 102.344724,73.3717362 102.404019,73.4507963 C102.463314,73.5298564 102.544845,73.5977987 102.648612,73.6546231 C102.752378,73.7114476 102.85738,73.7559189 102.963617,73.7880371 C103.069854,73.8201552 103.245268,73.8670972 103.489861,73.9288629 C103.796218,74.0005111 104.073546,74.0795712 104.321845,74.1660432 C104.570143,74.2525152 104.781382,74.3575169 104.955561,74.4810483 C105.12974,74.6045798 105.265625,74.760847 105.363215,74.9498501 C105.460804,75.1388532 105.509599,75.3704746 105.509599,75.6447144 C105.509599,75.9733079 105.42498,76.2685481 105.255742,76.5304347 C105.086504,76.7923213 104.838824,76.9973835 104.512701,77.1456212 C104.186578,77.2938589 103.799924,77.3679777 103.352741,77.3679777 C102.816614,77.3679777 102.374372,77.266682 102.026013,77.0640904 C101.77895,76.9183233 101.578212,76.7237613 101.423797,76.4804044 C101.269383,76.2370475 101.192176,76.0004849 101.192176,75.7707164 C101.192176,75.6373025 101.2385,75.5230359 101.331149,75.4279167 C101.423797,75.3327975 101.54177,75.2852379 101.685066,75.2852379 C101.801186,75.2852379 101.899393,75.3222973 101.979689,75.3964162 C102.059984,75.4705351 102.128544,75.580478 102.185369,75.7262451 C102.254546,75.8991891 102.329283,76.0437209 102.409578,76.1598404 C102.489874,76.2759599 102.602905,76.3716968 102.748672,76.447051 C102.894439,76.5224051 103.085913,76.5600822 103.323093,76.5600822 C103.649216,76.5600822 103.914191,76.4841104 104.118018,76.3321667 C104.321845,76.1802231 104.423758,75.9906023 104.423758,75.7633045 C104.423758,75.5829486 104.368787,75.4365639 104.258844,75.3241503 C104.148901,75.2117367 104.00684,75.1258824 103.83266,75.0665873 C103.658481,75.0072922 103.425624,74.9442912 103.13409,74.8775842 C102.743731,74.786171 102.41699,74.6793163 102.153868,74.5570202 C101.890746,74.4347241 101.681978,74.2679566 101.527564,74.0567179 C101.37315,73.8454792 101.295942,73.5829749 101.295942,73.2692051 C101.295942,72.970259 101.377473,72.7046665 101.540535,72.4724274 C101.703596,72.2401883 101.939541,72.0616854 102.24837,71.9369187 C102.557198,71.8121519 102.920381,71.7497686 103.337917,71.7497686 Z M155.522102,71.8424171 L155.638394,71.8446407 C155.784458,71.8505702 155.894549,71.8683587 155.968668,71.8980063 C156.061317,71.9350657 156.129877,72.0017727 156.174348,72.0981272 C156.218819,72.1944817 156.269467,72.3513666 156.326292,72.5687819 L156.326292,72.5687819 L157.115657,75.5446539 L157.905023,72.5687819 L157.938377,72.4455964 C157.98186,72.2910339 158.02139,72.1752108 158.056967,72.0981272 C158.101438,72.0017727 158.169998,71.9350657 158.262647,71.8980063 C158.355295,71.8609469 158.504151,71.8424171 158.709213,71.8424171 L158.709213,71.8424171 L159.050159,71.8424171 L159.170973,71.8473831 C159.32514,71.8606257 159.451637,71.9003534 159.550462,71.9665662 C159.673993,72.0493323 159.735759,72.2093055 159.735759,72.4464858 L159.735759,72.4464858 L159.735759,76.7453793 L159.7302,76.863673 C159.715376,77.0130966 159.670905,77.129315 159.596786,77.2123281 C159.504137,77.3160945 159.379988,77.3679777 159.224339,77.3679777 C159.078572,77.3679777 158.958746,77.3160945 158.864862,77.2123281 C158.770978,77.1085617 158.724036,76.9529121 158.724036,76.7453793 L158.724036,76.7453793 L158.724036,72.9949653 L157.85314,76.4563158 L157.820305,76.5840226 C157.778206,76.7447123 157.742826,76.8670578 157.714167,76.9510592 C157.678343,77.0560609 157.612254,77.1517977 157.515899,77.2382697 C157.419545,77.3247417 157.286131,77.3679777 157.115657,77.3679777 C156.987185,77.3679777 156.878477,77.3401832 156.789534,77.284594 C156.700592,77.2290049 156.631414,77.1579743 156.582002,77.0715023 C156.532589,76.9850303 156.493677,76.8892935 156.465264,76.7842917 C156.436852,76.67929 156.407822,76.5699647 156.378175,76.4563158 L156.378175,76.4563158 L155.507278,72.9949653 L155.507278,76.7453793 L155.501719,76.863673 C155.486896,77.0130966 155.442424,77.129315 155.368305,77.2123281 C155.275657,77.3160945 155.152743,77.3679777 154.999564,77.3679777 C154.851326,77.3679777 154.730266,77.3167122 154.636382,77.2141811 C154.542498,77.11165 154.495556,76.9553828 154.495556,76.7453793 L154.495556,76.7453793 L154.495556,72.4464858 L154.500703,72.3343296 C154.51786,72.1581257 154.57791,72.0355379 154.680853,71.9665662 C154.804384,71.8838002 154.971152,71.8424171 155.181155,71.8424171 L155.181155,71.8424171 L155.522102,71.8424171 Z M127.947382,71.7497686 C128.387154,71.7497686 128.778748,71.8374759 129.122166,72.0128905 C129.465583,72.1883051 129.728705,72.4051028 129.911531,72.6632834 C130.094358,72.9214641 130.185771,73.1654387 130.185771,73.3952071 C130.185771,73.5212092 130.1413,73.6323875 130.052357,73.728742 C129.963415,73.8250965 129.855942,73.8732737 129.72994,73.8732737 C129.589114,73.8732737 129.483495,73.8399203 129.413082,73.7732133 C129.342669,73.7065063 129.264227,73.5916221 129.177755,73.4285606 C129.034458,73.1592621 128.865838,72.9579059 128.671893,72.824492 C128.477949,72.691078 128.238916,72.6243711 127.954794,72.6243711 C127.502669,72.6243711 127.142574,72.7960797 126.874511,73.1394971 C126.606448,73.4829144 126.472416,73.9708636 126.472416,74.6033445 C126.472416,75.0258219 126.531712,75.3772688 126.650302,75.6576852 C126.768892,75.9381015 126.936895,76.1474873 127.15431,76.2858424 C127.371725,76.4241976 127.6262,76.4933752 127.917734,76.4933752 C128.233975,76.4933752 128.50142,76.4149328 128.720071,76.2580479 C128.938721,76.101163 129.103636,75.8707769 129.214814,75.5668896 C129.261756,75.4235931 129.319816,75.3068559 129.388993,75.216678 C129.458171,75.1265 129.569349,75.0814111 129.722528,75.0814111 C129.853472,75.0814111 129.965885,75.1271177 130.059769,75.2185309 C130.153653,75.3099442 130.200595,75.4235931 130.200595,75.5594777 C130.200595,75.7324217 130.157977,75.9195718 130.07274,76.120928 C129.987503,76.3222842 129.853472,76.5199345 129.670645,76.7138788 C129.487819,76.9078232 129.254344,77.0653257 128.970222,77.1863865 C128.6861,77.3074473 128.355035,77.3679777 127.977029,77.3679777 C127.690436,77.3679777 127.429785,77.3408008 127.195075,77.286447 C126.960366,77.2320932 126.747274,77.1474741 126.5558,77.0325899 C126.364326,76.9177057 126.188294,76.7663797 126.027703,76.5786119 C125.884407,76.4081386 125.762111,76.2172825 125.660815,76.0060438 C125.559519,75.794805 125.483547,75.5693602 125.4329,75.3297092 C125.382252,75.0900583 125.356928,74.8355835 125.356928,74.566285 C125.356928,74.1289838 125.420546,73.7373892 125.547784,73.3915012 C125.675021,73.0456132 125.85723,72.7497554 126.09441,72.5039279 C126.331591,72.2581004 126.609536,72.0709503 126.928247,71.9424776 C127.246959,71.8140049 127.58667,71.7497686 127.947382,71.7497686 Z M54.8300269,71.7497686 C54.9832059,71.7497686 55.1110609,71.7787985 55.213592,71.8368582 C55.3161231,71.894918 55.3988891,71.9696545 55.4618902,72.0610678 C55.5248912,72.152481 55.5780097,72.2506885 55.6212457,72.3556902 C55.6644817,72.4606919 55.7194532,72.6009001 55.7861602,72.7763147 L55.7861602,72.7763147 L57.2055362,76.2821365 L57.2564929,76.4094768 C57.3337001,76.611588 57.3723036,76.7630855 57.3723036,76.8639695 C57.3723036,76.9899716 57.3198028,77.1054734 57.2148011,77.2104752 C57.1097994,77.3154769 56.9831797,77.3679777 56.8349419,77.3679777 C56.7484699,77.3679777 56.6743511,77.3525363 56.6125854,77.3216534 C56.5508197,77.2907706 56.4989365,77.2487699 56.4569358,77.1956514 C56.4149351,77.1425329 56.3698461,77.0610021 56.3216689,76.9510592 C56.2734916,76.8411162 56.2321086,76.744144 56.1975198,76.6601427 L56.1975198,76.6601427 L55.9381038,75.9782492 L53.729362,75.9782492 L53.469946,76.6749664 L53.4205334,76.8034906 C53.340238,77.0054301 53.2702368,77.1460329 53.21053,77.2252989 C53.1388817,77.3204181 53.0215269,77.3679777 52.8584654,77.3679777 C52.7201102,77.3679777 52.5978141,77.3173298 52.4915771,77.2160341 C52.3853401,77.1147383 52.3322216,76.9998541 52.3322216,76.8713814 C52.3322216,76.7972625 52.3445747,76.7206731 52.369281,76.6416129 C52.3939873,76.5625528 52.4347526,76.4526099 52.4915771,76.311784 L52.4915771,76.311784 L53.8813056,72.7837266 L53.9235122,72.6756366 C53.9534342,72.5990471 53.986925,72.5133987 54.0239844,72.4186912 C54.0795735,72.2766301 54.1388686,72.1586576 54.2018696,72.0647737 C54.2648707,71.9708898 54.3476367,71.894918 54.4501678,71.8368582 C54.5526989,71.7787985 54.6793186,71.7497686 54.8300269,71.7497686 Z M177.207077,71.7497686 C177.365197,71.7497686 177.489964,71.8022694 177.581377,71.9072711 C177.67279,72.0122728 177.718497,72.1697754 177.718497,72.3797788 L177.718497,72.3797788 L177.718497,76.6527308 L177.713596,76.7768645 C177.680927,77.17094 177.48491,77.3679777 177.125546,77.3679777 C177.026721,77.3679777 176.937778,77.3537716 176.858718,77.3253594 C176.779658,77.2969472 176.705539,77.2518582 176.636362,77.1900925 C176.567184,77.1283268 176.502948,77.0560609 176.443652,76.9732948 C176.384357,76.8905288 176.325062,76.8059097 176.265767,76.7194377 L176.265767,76.7194377 L174.201557,73.5545627 L174.201557,76.7379675 L174.195776,76.8564094 C174.180359,77.0062283 174.134109,77.1236326 174.057025,77.2086222 C173.960671,77.3148592 173.837139,77.3679777 173.686431,77.3679777 C173.530782,77.3679777 173.406015,77.3142416 173.312131,77.2067692 C173.218247,77.0992969 173.171305,76.9430296 173.171305,76.7379675 L173.171305,76.7379675 L173.171305,72.5465463 L173.175011,72.4203126 C173.182423,72.3012592 173.200953,72.2037466 173.2306,72.1277747 C173.277542,72.0165964 173.355367,71.9258009 173.464075,71.8553879 C173.572782,71.784975 173.690137,71.7497686 173.816139,71.7497686 C173.914964,71.7497686 173.999583,71.7658277 174.069996,71.7979458 C174.140409,71.830064 174.202175,71.8733 174.255293,71.9276538 C174.308412,71.9820076 174.362766,72.0524206 174.418355,72.1388926 C174.473944,72.2253646 174.531386,72.3155425 174.590681,72.4094264 L174.590681,72.4094264 L176.706774,75.6113609 L176.706774,72.3797788 L176.712185,72.2600769 C176.726614,72.1088744 176.769899,71.9912725 176.842041,71.9072711 C176.932219,71.8022694 177.053898,71.7497686 177.207077,71.7497686 Z M183.233441,71.7497686 C183.371796,71.7497686 183.487298,71.7948575 183.579946,71.8850355 C183.672595,71.9752134 183.718919,72.0795975 183.718919,72.1981876 C183.718919,72.2945422 183.695448,72.3908967 183.648506,72.4872512 C183.601564,72.5836057 183.521269,72.7170196 183.40762,72.887493 L183.40762,72.887493 L182.047539,74.9739387 L182.047539,76.6972021 L182.041313,76.8252795 C182.024711,76.9869574 181.974903,77.1122677 181.89189,77.2012103 C181.788123,77.3123886 181.655945,77.3679777 181.495354,77.3679777 C181.332292,77.3679777 181.200114,77.3130062 181.098818,77.2030633 C180.997522,77.0931203 180.946874,76.9244999 180.946874,76.6972021 L180.946874,76.6972021 L180.946874,74.9739387 L179.620147,72.9171405 L179.539427,72.7858112 C179.465076,72.6621253 179.409834,72.56137 179.373701,72.4835452 C179.325524,72.3797788 179.301436,72.2896009 179.301436,72.2130114 C179.301436,72.0870094 179.350231,71.9783017 179.44782,71.8868885 C179.54541,71.7954752 179.665853,71.7497686 179.80915,71.7497686 C179.959858,71.7497686 180.074125,71.7923869 180.151949,71.8776236 C180.229774,71.9628603 180.346511,72.132716 180.502161,72.3871907 L180.502161,72.3871907 L181.517589,74.0363352 L182.544135,72.3871907 L182.602607,72.291248 C182.639392,72.2308548 182.671785,72.1775991 182.699785,72.1314807 C182.741786,72.0623031 182.78811,71.9974491 182.838758,71.9369187 C182.889406,71.8763883 182.945613,71.830064 183.007378,71.7979458 C183.069144,71.7658277 183.144498,71.7497686 183.233441,71.7497686 Z M65.7524427,71.7497686 C65.9105629,71.7497686 66.0353297,71.8022694 66.1267429,71.9072711 C66.2181562,72.0122728 66.2638628,72.1697754 66.2638628,72.3797788 L66.2638628,72.3797788 L66.2638628,76.6527308 L66.2589624,76.7768645 C66.2262929,77.17094 66.0302761,77.3679777 65.670912,77.3679777 C65.5720868,77.3679777 65.4831442,77.3537716 65.4040841,77.3253594 C65.325024,77.2969472 65.2509051,77.2518582 65.1817275,77.1900925 C65.1125499,77.1283268 65.0483136,77.0560609 64.9890185,76.9732948 C64.9297234,76.8905288 64.8704283,76.8059097 64.8111333,76.7194377 L64.8111333,76.7194377 L62.7469232,73.5545627 L62.7469232,76.7379675 L62.7411419,76.8564094 C62.7257252,77.0062283 62.679475,77.1236326 62.6023914,77.2086222 C62.5060369,77.3148592 62.3825055,77.3679777 62.2317971,77.3679777 C62.0761475,77.3679777 61.9513808,77.3142416 61.8574969,77.2067692 C61.763613,77.0992969 61.7166711,76.9430296 61.7166711,76.7379675 L61.7166711,76.7379675 L61.7166711,72.5465463 L61.720377,72.4203126 C61.7277889,72.3012592 61.7463186,72.2037466 61.7759662,72.1277747 C61.8229081,72.0165964 61.9007329,71.9258009 62.0094406,71.8553879 C62.1181482,71.784975 62.2355031,71.7497686 62.3615051,71.7497686 C62.4603303,71.7497686 62.5449493,71.7658277 62.6153622,71.7979458 C62.6857751,71.830064 62.7475408,71.8733 62.8006593,71.9276538 C62.8537779,71.9820076 62.9081317,72.0524206 62.9637208,72.1388926 C63.01931,72.2253646 63.0767521,72.3155425 63.1360472,72.4094264 L63.1360472,72.4094264 L65.2521404,75.6113609 L65.2521404,72.3797788 L65.2575511,72.2600769 C65.2719796,72.1088744 65.315265,71.9912725 65.3874074,71.9072711 C65.4775853,71.8022694 65.5992637,71.7497686 65.7524427,71.7497686 Z M121.858017,71.8424171 L122.036597,71.8443859 C122.20846,71.8483235 122.360172,71.8581674 122.491733,71.8739177 C122.667147,71.894918 122.825268,71.9375363 122.966093,72.0017727 C123.136567,72.0734209 123.287275,72.175952 123.418218,72.3093659 C123.549162,72.4427799 123.648604,72.5978118 123.716547,72.7744617 C123.784489,72.9511117 123.81846,73.1382618 123.81846,73.3359121 C123.81846,73.7410951 123.704194,74.0647475 123.47566,74.306869 C123.247127,74.5489906 122.900622,74.7206993 122.436144,74.8219951 C122.631323,74.9257615 122.817856,75.0789404 122.995741,75.281532 C123.173626,75.4841235 123.332364,75.6996858 123.471955,75.928219 C123.611545,76.1567521 123.720253,76.3630496 123.798078,76.5471114 C123.875902,76.7311732 123.914815,76.8577929 123.914815,76.9269705 C123.914815,76.9986188 123.891961,77.0696493 123.846255,77.1400622 C123.800548,77.2104752 123.738165,77.2660643 123.659105,77.3068297 C123.580045,77.347595 123.488631,77.3679777 123.384865,77.3679777 C123.261333,77.3679777 123.157567,77.3389478 123.073566,77.2808881 C122.989564,77.2228283 122.917298,77.1493271 122.856768,77.0603845 C122.796238,76.9714419 122.714089,76.8404985 122.610323,76.6675545 L122.610323,76.6675545 L122.169316,75.9337779 L122.076445,75.7799072 C121.955285,75.585024 121.844799,75.4312521 121.744985,75.3185914 C121.620219,75.1777656 121.493599,75.0814111 121.365126,75.0295279 C121.236653,74.9776447 121.074827,74.9517031 120.879648,74.9517031 L120.879648,74.9517031 L120.49423,74.9517031 L120.49423,76.6972021 L120.488152,76.8277995 C120.471945,76.9922445 120.423323,77.1179501 120.342286,77.2049162 C120.24099,77.3136239 120.108812,77.3679777 119.94575,77.3679777 C119.770335,77.3679777 119.634451,77.3111533 119.538096,77.1975044 C119.441742,77.0838554 119.393565,76.917088 119.393565,76.6972021 L119.393565,76.6972021 L119.393565,72.5168987 L119.399939,72.3824471 C119.416937,72.2136538 119.467931,72.0867623 119.55292,72.0017727 C119.659157,71.8955357 119.830866,71.8424171 120.068046,71.8424171 L120.068046,71.8424171 L121.858017,71.8424171 Z M168.994206,71.7497686 C169.147385,71.7497686 169.27524,71.7787985 169.377771,71.8368582 C169.480302,71.894918 169.563069,71.9696545 169.62607,72.0610678 C169.689071,72.152481 169.742189,72.2506885 169.785425,72.3556902 C169.828661,72.4606919 169.883633,72.6009001 169.95034,72.7763147 L169.95034,72.7763147 L171.369716,76.2821365 L171.420672,76.4094768 C171.497879,76.611588 171.536483,76.7630855 171.536483,76.8639695 C171.536483,76.9899716 171.483982,77.1054734 171.37898,77.2104752 C171.273979,77.3154769 171.147359,77.3679777 170.999121,77.3679777 C170.912649,77.3679777 170.83853,77.3525363 170.776765,77.3216534 C170.714999,77.2907706 170.663116,77.2487699 170.621115,77.1956514 C170.579114,77.1425329 170.534026,77.0610021 170.485848,76.9510592 C170.437671,76.8411162 170.396288,76.744144 170.361699,76.6601427 L170.361699,76.6601427 L170.102283,75.9782492 L167.893541,75.9782492 L167.634125,76.6749664 L167.584713,76.8034906 C167.504417,77.0054301 167.434416,77.1460329 167.374709,77.2252989 C167.303061,77.3204181 167.185706,77.3679777 167.022645,77.3679777 C166.88429,77.3679777 166.761994,77.3173298 166.655756,77.2160341 C166.549519,77.1147383 166.496401,76.9998541 166.496401,76.8713814 C166.496401,76.7972625 166.508754,76.7206731 166.53346,76.6416129 C166.558167,76.5625528 166.598932,76.4526099 166.655756,76.311784 L166.655756,76.311784 L168.045485,72.7837266 L168.087692,72.6756366 C168.117614,72.5990471 168.151104,72.5133987 168.188164,72.4186912 C168.243753,72.2766301 168.303048,72.1586576 168.366049,72.0647737 C168.42905,71.9708898 168.511816,71.894918 168.614347,71.8368582 C168.716878,71.7787985 168.843498,71.7497686 168.994206,71.7497686 Z M78.1757653,71.7497686 C78.3412974,71.7497686 78.475329,71.8047401 78.5778601,71.914683 C78.6803912,72.024626 78.7316567,72.1920111 78.7316567,72.4168383 L78.7316567,72.4168383 L78.7316567,75.0295279 L78.7266907,75.2760472 C78.7134482,75.5934735 78.6737205,75.8658356 78.6075076,76.0931334 C78.5247416,76.3772557 78.3684743,76.6267892 78.1387059,76.8417339 C77.9410556,77.0245604 77.7112871,77.1579743 77.4494005,77.2419757 C77.1875139,77.325977 76.881156,77.3679777 76.5303267,77.3679777 C76.1127905,77.3679777 75.7533141,77.3228888 75.4518974,77.2327108 C75.1504807,77.1425329 74.9046532,77.0029424 74.7144148,76.8139393 C74.5241764,76.6249362 74.3845859,76.3828146 74.2956433,76.0875745 C74.2067006,75.7923344 74.1622293,75.4396522 74.1622293,75.0295279 L74.1622293,75.0295279 L74.1622293,72.4168383 L74.168233,72.290095 C74.1842426,72.1299983 74.2322716,72.0054786 74.31232,71.916536 C74.4123805,71.8053577 74.5439414,71.7497686 74.7070029,71.7497686 C74.8774763,71.7497686 75.0127432,71.8053577 75.1128036,71.916536 C75.2128641,72.0277143 75.2628943,72.1944817 75.2628943,72.4168383 L75.2628943,72.4168383 L75.2628943,75.088823 L75.2669709,75.2651517 C75.2778416,75.4922519 75.3104539,75.6873327 75.3648077,75.8503942 C75.43275,76.054221 75.5531932,76.2123413 75.7261372,76.3247548 C75.8990811,76.4371684 76.1412027,76.4933752 76.4525019,76.4933752 C76.8823913,76.4933752 77.1862786,76.3791087 77.3641638,76.1505755 C77.5420491,75.9220424 77.6309917,75.5755368 77.6309917,75.1110586 L77.6309917,75.1110586 L77.6309917,72.4168383 L77.6369212,72.288835 C77.6527332,72.1273547 77.7001693,72.0026374 77.7792294,71.914683 C77.8780546,71.8047401 78.0102332,71.7497686 78.1757653,71.7497686 Z M83.1904071,71.8424171 L83.3689872,71.8443859 C83.5408503,71.8483235 83.6925623,71.8581674 83.8241233,71.8739177 C83.9995379,71.894918 84.1576581,71.9375363 84.2984839,72.0017727 C84.4689573,72.0734209 84.6196657,72.175952 84.750609,72.3093659 C84.8815523,72.4427799 84.9809951,72.5978118 85.0489373,72.7744617 C85.1168796,72.9511117 85.1508508,73.1382618 85.1508508,73.3359121 C85.1508508,73.7410951 85.0365842,74.0647475 84.8080511,74.306869 C84.5795179,74.5489906 84.2330123,74.7206993 83.7685341,74.8219951 C83.9637138,74.9257615 84.1502462,75.0789404 84.3281315,75.281532 C84.5060167,75.4841235 84.6647546,75.6996858 84.8043451,75.928219 C84.9439356,76.1567521 85.0526433,76.3630496 85.1304681,76.5471114 C85.2082929,76.7311732 85.2472053,76.8577929 85.2472053,76.9269705 C85.2472053,76.9986188 85.224352,77.0696493 85.1786453,77.1400622 C85.1329387,77.2104752 85.0705553,77.2660643 84.9914952,77.3068297 C84.9124351,77.347595 84.8210219,77.3679777 84.7172555,77.3679777 C84.5937241,77.3679777 84.4899577,77.3389478 84.4059563,77.2808881 C84.3219549,77.2228283 84.249689,77.1493271 84.1891586,77.0603845 C84.1286282,76.9714419 84.0464798,76.8404985 83.9427134,76.6675545 L83.9427134,76.6675545 L83.5017063,75.9337779 L83.4088353,75.7799072 C83.2876757,75.585024 83.1771892,75.4312521 83.0773758,75.3185914 C82.9526091,75.1777656 82.8259894,75.0814111 82.6975167,75.0295279 C82.569044,74.9776447 82.4072179,74.9517031 82.2120382,74.9517031 L82.2120382,74.9517031 L81.8266202,74.9517031 L81.8266202,76.6972021 L81.8205424,76.8277995 C81.8043351,76.9922445 81.7557131,77.1179501 81.6746765,77.2049162 C81.5733807,77.3136239 81.4412021,77.3679777 81.2781406,77.3679777 C81.102726,77.3679777 80.9668415,77.3111533 80.8704869,77.1975044 C80.7741324,77.0838554 80.7259552,76.917088 80.7259552,76.6972021 L80.7259552,76.6972021 L80.7259552,72.5168987 L80.7323294,72.3824471 C80.7493273,72.2136538 80.8003211,72.0867623 80.8853107,72.0017727 C80.9915477,71.8955357 81.1632564,71.8424171 81.4004367,71.8424171 L81.4004367,71.8424171 L83.1904071,71.8424171 Z M163.786856,71.8424171 L163.987594,71.8450937 C164.308776,71.8540154 164.563045,71.8852414 164.750401,71.9387716 C164.972757,72.0005374 165.164849,72.1030684 165.326675,72.2463649 C165.488501,72.3896613 165.611415,72.565076 165.695416,72.7726088 C165.779417,72.9801416 165.821418,73.2136159 165.821418,73.4730319 C165.821418,74.0264527 165.650945,74.4458419 165.309998,74.7311995 C164.969051,75.0165571 164.461337,75.1592359 163.786856,75.1592359 L163.786856,75.1592359 L162.778839,75.1592359 L162.778839,76.6972021 L162.772613,76.8227594 C162.75601,76.9816703 162.706203,77.1065852 162.62319,77.1975044 C162.519423,77.3111533 162.38848,77.3679777 162.23036,77.3679777 C162.064827,77.3679777 161.931414,77.3117709 161.830118,77.1993573 C161.728822,77.0869437 161.678174,76.9220293 161.678174,76.704614 L161.678174,76.704614 L161.678174,72.5168987 L161.682807,72.4016027 C161.698248,72.2190507 161.752293,72.0845387 161.844942,71.9980667 C161.95612,71.8943003 162.13277,71.8424171 162.374891,71.8424171 L162.374891,71.8424171 L163.786856,71.8424171 Z M89.1130048,71.7497686 C89.2661838,71.7497686 89.3940388,71.7787985 89.4965699,71.8368582 C89.599101,71.894918 89.681867,71.9696545 89.7448681,72.0610678 C89.8078691,72.152481 89.8609876,72.2506885 89.9042236,72.3556902 C89.9474596,72.4606919 90.0024311,72.6009001 90.0691381,72.7763147 L90.0691381,72.7763147 L91.4885141,76.2821365 L91.5394708,76.4094768 C91.616678,76.611588 91.6552815,76.7630855 91.6552815,76.8639695 C91.6552815,76.9899716 91.6027807,77.1054734 91.497779,77.2104752 C91.3927773,77.3154769 91.2661575,77.3679777 91.1179198,77.3679777 C91.0314478,77.3679777 90.957329,77.3525363 90.8955633,77.3216534 C90.8337976,77.2907706 90.7819144,77.2487699 90.7399137,77.1956514 C90.697913,77.1425329 90.652824,77.0610021 90.6046468,76.9510592 C90.5564695,76.8411162 90.5150865,76.744144 90.4804977,76.6601427 L90.4804977,76.6601427 L90.2210817,75.9782492 L88.0123398,75.9782492 L87.7529239,76.6749664 L87.7035113,76.8034906 C87.6232159,77.0054301 87.5532147,77.1460329 87.4935079,77.2252989 C87.4218596,77.3204181 87.3045048,77.3679777 87.1414433,77.3679777 C87.0030881,77.3679777 86.880792,77.3173298 86.774555,77.2160341 C86.668318,77.1147383 86.6151994,76.9998541 86.6151994,76.8713814 C86.6151994,76.7972625 86.6275526,76.7206731 86.6522589,76.6416129 C86.6769652,76.5625528 86.7177305,76.4526099 86.774555,76.311784 L86.774555,76.311784 L88.1642835,72.7837266 L88.2064901,72.6756366 C88.2364121,72.5990471 88.2699029,72.5133987 88.3069623,72.4186912 C88.3625514,72.2766301 88.4218465,72.1586576 88.4848475,72.0647737 C88.5478486,71.9708898 88.6306146,71.894918 88.7331457,71.8368582 C88.8356768,71.7787985 88.9622965,71.7497686 89.1130048,71.7497686 Z M136.030544,71.7497686 C136.196076,71.7497686 136.330108,71.8047401 136.432639,71.914683 C136.53517,72.024626 136.586435,72.1920111 136.586435,72.4168383 L136.586435,72.4168383 L136.586435,76.6972021 L136.580209,76.8252795 C136.563607,76.9869574 136.513799,77.1122677 136.430786,77.2012103 C136.327019,77.3123886 136.193606,77.3679777 136.030544,77.3679777 C135.865012,77.3679777 135.732833,77.3117709 135.634008,77.1993573 C135.535183,77.0869437 135.48577,76.9195587 135.48577,76.6972021 L135.48577,76.6972021 L135.48577,74.8701723 L133.110261,74.8701723 L133.110261,76.6972021 L133.104035,76.8252795 C133.087433,76.9869574 133.037625,77.1122677 132.954612,77.2012103 C132.850845,77.3123886 132.717431,77.3679777 132.55437,77.3679777 C132.388838,77.3679777 132.256659,77.3117709 132.157834,77.1993573 C132.059009,77.0869437 132.009596,76.9195587 132.009596,76.6972021 L132.009596,76.6972021 L132.009596,72.4168383 L132.015452,72.290095 C132.031066,72.1299983 132.077909,72.0054786 132.155981,71.916536 C132.253571,71.8053577 132.386367,71.7497686 132.55437,71.7497686 C132.719902,71.7497686 132.853933,71.8047401 132.956465,71.914683 C133.058996,72.024626 133.110261,72.1920111 133.110261,72.4168383 L133.110261,72.4168383 L133.110261,73.9733342 L135.48577,73.9733342 L135.48577,72.4168383 L135.491774,72.290095 C135.507784,72.1299983 135.555813,72.0054786 135.635861,71.916536 C135.735922,71.8053577 135.867483,71.7497686 136.030544,71.7497686 Z M150.110924,71.7497686 C150.674228,71.7497686 151.157853,71.8640351 151.561801,72.0925683 C151.965749,72.3211014 152.271489,72.6459891 152.479022,73.0672312 C152.686554,73.4884734 152.790321,73.9832167 152.790321,74.5514613 C152.790321,74.9714681 152.733496,75.3531802 152.619848,75.6965976 C152.506199,76.0400149 152.335725,76.3377256 152.108427,76.5897298 C151.88113,76.8417339 151.601949,77.0344429 151.270884,77.1678568 C150.93982,77.3012708 150.560579,77.3679777 150.13316,77.3679777 C149.708212,77.3679777 149.327735,77.2994178 148.99173,77.1622979 C148.655724,77.025178 148.375308,76.8318513 148.150481,76.5823179 C147.925653,76.3327844 147.755798,76.032603 147.640913,75.6817738 C147.526029,75.3309445 147.468587,74.9517031 147.468587,74.5440494 C147.468587,74.1265132 147.5285,73.7435657 147.648325,73.3952071 C147.768151,73.0468485 147.941713,72.7503731 148.16901,72.5057809 C148.396308,72.2611887 148.673019,72.0740386 148.999141,71.9443306 C149.325264,71.8146226 149.695859,71.7497686 150.110924,71.7497686 Z M115.238702,71.7497686 C115.39188,71.7497686 115.519736,71.7787985 115.622267,71.8368582 C115.724798,71.894918 115.807564,71.9696545 115.870565,72.0610678 C115.933566,72.152481 115.986684,72.2506885 116.02992,72.3556902 C116.073156,72.4606919 116.128128,72.6009001 116.194835,72.7763147 L116.194835,72.7763147 L117.614211,76.2821365 L117.665168,76.4094768 C117.742375,76.611588 117.780978,76.7630855 117.780978,76.8639695 C117.780978,76.9899716 117.728477,77.1054734 117.623476,77.2104752 C117.518474,77.3154769 117.391854,77.3679777 117.243617,77.3679777 C117.157145,77.3679777 117.083026,77.3525363 117.02126,77.3216534 C116.959494,77.2907706 116.907611,77.2487699 116.86561,77.1956514 C116.82361,77.1425329 116.778521,77.0610021 116.730343,76.9510592 C116.682166,76.8411162 116.640783,76.744144 116.606194,76.6601427 L116.606194,76.6601427 L116.346778,75.9782492 L114.138037,75.9782492 L113.878621,76.6749664 L113.829208,76.8034906 C113.748913,77.0054301 113.678911,77.1460329 113.619205,77.2252989 C113.547556,77.3204181 113.430201,77.3679777 113.26714,77.3679777 C113.128785,77.3679777 113.006489,77.3173298 112.900252,77.2160341 C112.794015,77.1147383 112.740896,76.9998541 112.740896,76.8713814 C112.740896,76.7972625 112.753249,76.7206731 112.777956,76.6416129 C112.802662,76.5625528 112.843427,76.4526099 112.900252,76.311784 L112.900252,76.311784 L114.28998,72.7837266 L114.332187,72.6756366 C114.362109,72.5990471 114.3956,72.5133987 114.432659,72.4186912 C114.488248,72.2766301 114.547543,72.1586576 114.610544,72.0647737 C114.673545,71.9708898 114.756311,71.894918 114.858842,71.8368582 C114.961373,71.7787985 115.087993,71.7497686 115.238702,71.7497686 Z M143.665789,71.7497686 C144.10556,71.7497686 144.497155,71.8374759 144.840572,72.0128905 C145.18399,72.1883051 145.447112,72.4051028 145.629938,72.6632834 C145.812765,72.9214641 145.904178,73.1654387 145.904178,73.3952071 C145.904178,73.5212092 145.859707,73.6323875 145.770764,73.728742 C145.681821,73.8250965 145.574349,73.8732737 145.448347,73.8732737 C145.307521,73.8732737 145.201902,73.8399203 145.131489,73.7732133 C145.061076,73.7065063 144.982634,73.5916221 144.896162,73.4285606 C144.752865,73.1592621 144.584245,72.9579059 144.3903,72.824492 C144.196356,72.691078 143.957323,72.6243711 143.673201,72.6243711 C143.221076,72.6243711 142.860981,72.7960797 142.592918,73.1394971 C142.324855,73.4829144 142.190823,73.9708636 142.190823,74.6033445 C142.190823,75.0258219 142.250119,75.3772688 142.368709,75.6576852 C142.487299,75.9381015 142.655302,76.1474873 142.872717,76.2858424 C143.090132,76.4241976 143.344607,76.4933752 143.636141,76.4933752 C143.952382,76.4933752 144.219827,76.4149328 144.438478,76.2580479 C144.657128,76.101163 144.822043,75.8707769 144.933221,75.5668896 C144.980163,75.4235931 145.038223,75.3068559 145.1074,75.216678 C145.176578,75.1265 145.287756,75.0814111 145.440935,75.0814111 C145.571878,75.0814111 145.684292,75.1271177 145.778176,75.2185309 C145.87206,75.3099442 145.919002,75.4235931 145.919002,75.5594777 C145.919002,75.7324217 145.876383,75.9195718 145.791147,76.120928 C145.70591,76.3222842 145.571878,76.5199345 145.389052,76.7138788 C145.206225,76.9078232 144.972751,77.0653257 144.688629,77.1863865 C144.404507,77.3074473 144.073442,77.3679777 143.695436,77.3679777 C143.408843,77.3679777 143.148192,77.3408008 142.913482,77.286447 C142.678773,77.2320932 142.465681,77.1474741 142.274207,77.0325899 C142.082733,76.9177057 141.906701,76.7663797 141.74611,76.5786119 C141.602814,76.4081386 141.480518,76.2172825 141.379222,76.0060438 C141.277926,75.794805 141.201954,75.5693602 141.151306,75.3297092 C141.100659,75.0900583 141.075335,74.8355835 141.075335,74.566285 C141.075335,74.1289838 141.138953,73.7373892 141.266191,73.3915012 C141.393428,73.0456132 141.575637,72.7497554 141.812817,72.5039279 C142.049998,72.2581004 142.327943,72.0709503 142.646654,71.9424776 C142.965365,71.8140049 143.305077,71.7497686 143.665789,71.7497686 Z M110.83554,71.8424171 L110.935378,71.8470866 C111.061282,71.8595386 111.158328,71.8968945 111.226517,71.9591543 C111.311754,72.0369791 111.354372,72.1388926 111.354372,72.2648946 C111.354372,72.3933673 111.311754,72.496516 111.226517,72.5743408 C111.141281,72.6521656 111.010955,72.691078 110.83554,72.691078 L110.83554,72.691078 L108.356265,72.691078 L108.356265,74.0252174 L110.639125,74.0252174 L110.734813,74.0297386 C110.855577,74.0417953 110.949066,74.0779653 111.015278,74.1382486 C111.098045,74.2136028 111.139428,74.3130456 111.139428,74.436577 C111.139428,74.5601085 111.098662,74.6607866 111.017131,74.7386114 C110.935601,74.8164362 110.809599,74.8553486 110.639125,74.8553486 L110.639125,74.8553486 L108.356265,74.8553486 L108.356265,76.4007267 L110.920777,76.4007267 L111.019429,76.4055444 C111.144146,76.4183917 111.241588,76.4569335 111.311754,76.5211698 C111.399461,76.6014652 111.443315,76.7083199 111.443315,76.8417339 C111.443315,76.9702065 111.399461,77.0745906 111.311754,77.154886 C111.224047,77.2351814 111.093721,77.2753292 110.920777,77.2753292 L110.920777,77.2753292 L107.930081,77.2753292 L107.79437,77.2689549 C107.624193,77.251957 107.497104,77.2009632 107.413102,77.1159736 C107.3081,77.0097366 107.2556,76.8380279 107.2556,76.6008476 L107.2556,76.6008476 L107.2556,72.5168987 L107.26,72.4037516 C107.268802,72.2960477 107.290806,72.204673 107.326013,72.1296277 C107.372954,72.0295672 107.446456,71.9566837 107.546516,71.9109771 C107.646577,71.8652705 107.774432,71.8424171 107.930081,71.8424171 L107.930081,71.8424171 L110.83554,71.8424171 Z M71.8603376,71.8424171 L71.9601757,71.8470866 C72.0860789,71.8595386 72.1831252,71.8968945 72.2513146,71.9591543 C72.3365512,72.0369791 72.3791696,72.1388926 72.3791696,72.2648946 C72.3791696,72.3933673 72.3365512,72.496516 72.2513146,72.5743408 C72.1660779,72.6521656 72.0357522,72.691078 71.8603376,72.691078 L71.8603376,72.691078 L69.3810619,72.691078 L69.3810619,74.0252174 L71.6639226,74.0252174 L71.7596101,74.0297386 C71.8803744,74.0417953 71.973863,74.0779653 72.0400758,74.1382486 C72.1228419,74.2136028 72.1642249,74.3130456 72.1642249,74.436577 C72.1642249,74.5601085 72.1234595,74.6607866 72.0419288,74.7386114 C71.9603981,74.8164362 71.834396,74.8553486 71.6639226,74.8553486 L71.6639226,74.8553486 L69.3810619,74.8553486 L69.3810619,76.4007267 L71.9455743,76.4007267 L72.0442265,76.4055444 C72.1689438,76.4183917 72.2663854,76.4569335 72.3365512,76.5211698 C72.4242586,76.6014652 72.4681122,76.7083199 72.4681122,76.8417339 C72.4681122,76.9702065 72.4242586,77.0745906 72.3365512,77.154886 C72.2488439,77.2351814 72.1185183,77.2753292 71.9455743,77.2753292 L71.9455743,77.2753292 L68.9548785,77.2753292 L68.8191669,77.2689549 C68.64899,77.251957 68.5219009,77.2009632 68.4378995,77.1159736 C68.3328978,77.0097366 68.2803969,76.8380279 68.2803969,76.6008476 L68.2803969,76.6008476 L68.2803969,72.5168987 L68.2847978,72.4037516 C68.2935994,72.2960477 68.3156034,72.204673 68.3508099,72.1296277 C68.3977518,72.0295672 68.471253,71.9566837 68.5713134,71.9109771 C68.6713739,71.8652705 68.7992289,71.8424171 68.9548785,71.8424171 L68.9548785,71.8424171 L71.8603376,71.8424171 Z M93.7978177,71.7497686 C93.9633498,71.7497686 94.0973814,71.8047401 94.1999125,71.914683 C94.3024436,72.024626 94.3537091,72.1920111 94.3537091,72.4168383 L94.3537091,72.4168383 L94.3537091,76.3710791 L96.5846866,76.3710791 L96.6864518,76.3762675 C96.8155175,76.390103 96.918098,76.4316095 96.9941933,76.5007871 C97.0893125,76.5872591 97.1368721,76.6959668 97.1368721,76.8269101 C97.1368721,76.960324 97.0899302,77.068414 96.9960463,77.1511801 C96.9021624,77.2339461 96.7650425,77.2753292 96.5846866,77.2753292 L96.5846866,77.2753292 L93.9275257,77.2753292 L93.7918141,77.2689549 C93.6216372,77.251957 93.4945481,77.2009632 93.4105467,77.1159736 C93.305545,77.0097366 93.2530441,76.8380279 93.2530441,76.6008476 L93.2530441,76.6008476 L93.2530441,72.4168383 L93.2590478,72.290095 C93.2750574,72.1299983 93.3230865,72.0054786 93.4031348,71.916536 C93.5031953,71.8053577 93.6347562,71.7497686 93.7978177,71.7497686 Z M150.110924,72.6243711 C149.891038,72.6243711 149.687829,72.6657541 149.501297,72.7485201 C149.314764,72.8312862 149.154173,72.9517293 149.019524,73.1098495 C148.884875,73.2679698 148.778638,73.4699436 148.700813,73.7157712 C148.622988,73.9615987 148.584076,74.2376914 148.584076,74.5440494 C148.584076,74.8528779 148.622988,75.132059 148.700813,75.3815924 C148.778638,75.6311259 148.888581,75.838041 149.030642,76.0023378 C149.172703,76.1666346 149.335765,76.2895484 149.519826,76.3710791 C149.703888,76.4526099 149.905862,76.4933752 150.125748,76.4933752 C150.4074,76.4933752 150.666198,76.4229623 150.902143,76.2821365 C151.138088,76.1413107 151.325856,75.9238954 151.465446,75.6298906 C151.605037,75.3358858 151.674832,74.9739387 151.674832,74.5440494 C151.674832,74.1462782 151.610596,73.8016255 151.482123,73.5100914 C151.35365,73.2185572 151.170206,72.9980536 150.931791,72.8485806 C150.693375,72.6991076 150.419753,72.6243711 150.110924,72.6243711 Z M89.1048805,72.9101438 L88.3014034,75.151824 L89.9246063,75.151824 L89.1048805,72.9101438 Z M168.98588,72.9101438 L168.182605,75.151824 L169.805808,75.151824 L168.98588,72.9101438 Z M54.8218805,72.9101438 L54.0184255,75.151824 L55.6416284,75.151824 L54.8218805,72.9101438 Z M115.23088,72.9101438 L114.4271,75.151824 L116.050303,75.151824 L115.23088,72.9101438 Z M163.520028,72.6688424 L162.778839,72.6688424 L162.778839,74.3291047 L163.520028,74.3291047 C163.779444,74.3291047 163.996241,74.3019278 164.170421,74.247574 C164.3446,74.1932201 164.477396,74.1042775 164.568809,73.9807461 C164.660223,73.8572147 164.705929,73.6953885 164.705929,73.4952676 C164.705929,73.2556166 164.635516,73.060437 164.494691,72.9097286 C164.33657,72.7491378 164.011683,72.6688424 163.520028,72.6688424 L163.520028,72.6688424 Z M121.509658,72.6688424 L120.49423,72.6688424 L120.49423,74.1623373 L121.48001,74.1623373 C121.744368,74.1623373 121.966724,74.139484 122.14708,74.0937773 C122.327436,74.0480707 122.465173,73.9702459 122.560293,73.8603029 C122.655412,73.75036 122.702971,73.599034 122.702971,73.406325 C122.702971,73.2556166 122.664677,73.1228203 122.588087,73.0079361 C122.511498,72.8930519 122.405261,72.8071976 122.269376,72.7503731 C122.140903,72.6960193 121.887664,72.6688424 121.509658,72.6688424 L121.509658,72.6688424 Z M82.8420485,72.6688424 L81.8266202,72.6688424 L81.8266202,74.1623373 L82.8124009,74.1623373 C83.0767582,74.1623373 83.2991147,74.139484 83.4794706,74.0937773 C83.6598265,74.0480707 83.797564,73.9702459 83.8926832,73.8603029 C83.9878024,73.75036 84.035362,73.599034 84.035362,73.406325 C84.035362,73.2556166 83.9970673,73.1228203 83.9204778,73.0079361 C83.8438883,72.8930519 83.7376513,72.8071976 83.6017667,72.7503731 C83.473294,72.6960193 83.2200546,72.6688424 82.8420485,72.6688424 L82.8420485,72.6688424 Z M87.4619396,28.7620684 C88.4522322,28.7620684 89.2550229,29.5648592 89.2550229,30.5551518 L89.2550229,65.1075827 C89.2550229,66.0978753 88.4522322,66.9006661 87.4619396,66.9006661 L66.8557122,66.9006661 C65.8654196,66.9006661 65.0626289,66.0978753 65.0626289,65.1075827 L65.0626289,30.5551518 C65.0626289,29.5648592 65.8654196,28.7620684 66.8557122,28.7620684 L87.4619396,28.7620684 Z M115.58204,28.6197602 L115.943432,28.6226423 C127.726397,28.8106992 137.279198,38.1786508 137.762898,49.8875606 L137.774865,50.2467206 L137.782119,50.2547465 L137.782119,64.9652745 C137.782119,65.9060525 137.0576,66.67761 136.136097,66.7524138 L135.989036,66.7583579 L103.998152,66.7583579 C103.00786,66.7583579 102.205069,65.9555671 102.205069,64.9652745 L102.205069,30.4128436 C102.205069,29.422551 103.00786,28.6197602 103.998152,28.6197602 L115.58204,28.6197602 Z M165.674526,28.3351438 C175.823884,28.3351438 184.121326,36.2641399 184.710384,46.2656646 L184.743825,46.2659771 L184.743825,64.6806581 C184.743825,65.6709507 183.941034,66.4737415 182.950742,66.4737415 L164.536061,66.4737415 L164.536374,66.4403372 C154.534554,65.8515882 146.605228,57.5540122 146.605228,47.4044427 C146.605228,36.8727597 155.142843,28.3351438 165.674526,28.3351438 Z" id="形状结合" fill="#00939B"></path>
                    <g id="编组-3" transform="translate(100.477544, 26.971295)">
                        <g id="编组备份-4" transform="translate(19.047619, 20.088711) scale(1, -1) translate(-19.047619, -20.088711) translate(0.000000, 0.406171)">
                            <g id="编组-5" transform="translate(18.860253, 19.682540) scale(-1, 1) translate(-18.860253, -19.682540) translate(0.447554, 0.000000)">
                                <g id="编组-6">
                                    <g id="编组-7"></g>
                                </g>
                            </g>
                        </g>
                    </g>
                    <g id="编组备份" transform="translate(65.031005, 0.000000)" fill="#FFD273">
                        <circle id="椭圆形" cx="12.096197" cy="12.096197" r="12.096197"></circle>
                    </g>
                </g>
            </g>
        </g>
    </g>
</svg>