<svg xmlns="http://www.w3.org/2000/svg" viewBox="0 0 360 360"><defs><style>.cls-1{fill:#00152b;}.cls-2{fill:#4ead9f;}</style></defs><g id="Layer_2" data-name="Layer 2"><polygon class="cls-1" points="151.04 172.73 155.92 160.55 160.68 172.73 161.73 172.73 166.96 154.5 164.17 154.5 160.9 165.85 156.44 154.5 155.4 154.5 150.88 165.85 147.67 154.5 144.85 154.5 150.01 172.73 151.04 172.73"/><path class="cls-1" d="M181.18,166c-.05-4.32-3-7.33-7.11-7.33a7.08,7.08,0,0,0-7,7.24,7,7,0,0,0,7.15,7.15,6.9,6.9,0,0,0,6.52-4.09l.22-.44-2.22-1.17-.24.4a4.89,4.89,0,0,1-4.45,2.81,4.24,4.24,0,0,1-4.26-4.06h11.44Zm-11.12-1.93a4,4,0,0,1,4-2.82,4.1,4.1,0,0,1,4.1,2.82Z"/><path class="cls-1" d="M189.67,173a6.75,6.75,0,0,0,4.64-1.76v1.45h2.61V159h-2.61v1.49a6.41,6.41,0,0,0-4.59-1.82,7.2,7.2,0,0,0-.05,14.39Zm-4.34-7.17a4.55,4.55,0,1,1,4.51,4.68A4.6,4.6,0,0,1,185.33,165.87Z"/><polygon class="cls-1" points="211.69 158.98 208.84 158.98 204.94 167.55 200.99 158.98 198.13 158.98 204.47 172.73 205.4 172.73 211.69 158.98"/><path class="cls-1" d="M214,157.44a1.89,1.89,0,0,0,1.86-1.87,1.86,1.86,0,1,0-1.86,1.87Z"/><rect class="cls-1" x="212.69" y="158.98" width="2.63" height="13.75"/><path class="cls-1" d="M228.8,160.47a6.43,6.43,0,0,0-4.59-1.82,7.2,7.2,0,0,0-.05,14.39,6.75,6.75,0,0,0,4.64-1.76v1.45h2.61V159H228.8Zm-4.45.76a4.66,4.66,0,0,1,0,9.32,4.61,4.61,0,0,1-4.52-4.68A4.55,4.55,0,0,1,224.35,161.23Z"/><polygon class="cls-1" points="238.2 154.23 235.56 154.23 235.56 158.98 233.31 158.98 233.31 161.42 235.56 161.42 235.56 172.73 238.2 172.73 238.2 161.42 240.81 161.42 240.81 158.98 238.2 158.98 238.2 154.23"/><path class="cls-1" d="M255.79,166c0-4.32-3-7.33-7.1-7.33a7.08,7.08,0,0,0-7.05,7.24,7,7,0,0,0,7.15,7.15A6.89,6.89,0,0,0,255.3,169l.23-.44-2.22-1.17-.25.4c-.89,1.46-2,2.81-4.44,2.81a4.25,4.25,0,0,1-4.27-4.06H255.8Zm-11.11-1.93a4,4,0,0,1,4-2.82,4.09,4.09,0,0,1,4.1,2.82Z"/><polygon class="cls-1" points="146.5 201.03 156.3 201.03 156.3 199.34 148.22 199.34 148.22 192.57 156.3 192.57 156.3 190.88 148.22 190.88 148.22 185.48 156.37 185.48 156.37 183.79 146.5 183.79 146.5 201.03"/><path class="cls-1" d="M168,188.68a4.48,4.48,0,0,0-2.54-.73,5.42,5.42,0,0,0-2.6.65,6.87,6.87,0,0,0-2.18,2v-2.28h-1.64V201h1.64v-4.68a16.62,16.62,0,0,1,.24-3.47,4.53,4.53,0,0,1,1.55-2.43,4,4,0,0,1,2.67-1,3,3,0,0,1,3.2,2.54,15.35,15.35,0,0,1,.18,2.95V201h1.64v-6.56a10.44,10.44,0,0,0-.52-3.84A4.34,4.34,0,0,0,168,188.68Z"/><polygon class="cls-1" points="176.79 183.54 175.15 183.54 175.15 188.28 172.91 188.28 172.91 189.7 175.15 189.7 175.15 201.03 176.79 201.03 176.79 189.7 179.39 189.7 179.39 188.28 176.79 188.28 176.79 183.54"/><path class="cls-1" d="M193,190.42a6.28,6.28,0,0,0-5.21-2.47,6.08,6.08,0,0,0-5.05,2.41,7,7,0,0,0,.27,8.95,6.1,6.1,0,0,0,4.88,2.05,7.08,7.08,0,0,0,2.52-.43,6.39,6.39,0,0,0,2-1.25,7.82,7.82,0,0,0,1.57-2.16l-1.38-.72a8.13,8.13,0,0,1-1.4,1.81,5.09,5.09,0,0,1-1.57.9,5.53,5.53,0,0,1-1.89.33,4.5,4.5,0,0,1-3.39-1.42,5.15,5.15,0,0,1-1.42-3.64h11.47A7,7,0,0,0,193,190.42Zm-9.9,2.94a5.42,5.42,0,0,1,1.49-2.63,4.66,4.66,0,0,1,3.23-1.21A5.09,5.09,0,0,1,190,190a4.46,4.46,0,0,1,1.66,1.27,5.41,5.41,0,0,1,1,2.09Z"/><path class="cls-1" d="M200.09,188.49a6,6,0,0,0-1.59,1.65v-1.86h-1.67V201h1.67v-4.31a19.52,19.52,0,0,1,.31-4.41,4.18,4.18,0,0,1,1.16-2.09,2.37,2.37,0,0,1,1.58-.68,2.34,2.34,0,0,1,.87.23l.85-1.39a3,3,0,0,0-1.45-.43A3.12,3.12,0,0,0,200.09,188.49Z"/><path class="cls-1" d="M211.39,188a5.87,5.87,0,0,0-2.82.67,6.49,6.49,0,0,0-2.24,2v-2.34h-1.64v17.41h1.64v-6.85a7.13,7.13,0,0,0,2.31,1.88,6.1,6.1,0,0,0,2.8.64,6.19,6.19,0,0,0,4.61-2,6.57,6.57,0,0,0,1.92-4.77,6.48,6.48,0,0,0-1.93-4.71A6.29,6.29,0,0,0,211.39,188Zm4.22,9.3a5,5,0,0,1-1.85,1.91,4.75,4.75,0,0,1-2.48.68,5.18,5.18,0,0,1-2.56-.67,4.91,4.91,0,0,1-1.86-1.84,5.26,5.26,0,0,1-.65-2.61,5.07,5.07,0,0,1,1.46-3.7,4.81,4.81,0,0,1,3.58-1.49,5,5,0,0,1,2.53.67,5,5,0,0,1,1.84,1.9,5.12,5.12,0,0,1,.68,2.57A5.2,5.2,0,0,1,215.61,197.25Z"/><path class="cls-1" d="M223.68,188.49a6,6,0,0,0-1.59,1.65v-1.86h-1.67V201h1.67v-4.31a19.52,19.52,0,0,1,.31-4.41,4.18,4.18,0,0,1,1.16-2.09,2.37,2.37,0,0,1,1.58-.68,2.34,2.34,0,0,1,.87.23l.85-1.39a3,3,0,0,0-1.45-.43A3.12,3.12,0,0,0,223.68,188.49Z"/><rect class="cls-1" x="228.01" y="188.28" width="1.64" height="12.75"/><path class="cls-1" d="M228.83,183a1.27,1.27,0,0,0-1,.4,1.31,1.31,0,0,0-.4,1,1.34,1.34,0,0,0,.4,1,1.35,1.35,0,0,0,2.3-1,1.37,1.37,0,0,0-1.35-1.36Z"/><path class="cls-1" d="M236.35,193.77a6.52,6.52,0,0,1-2-1.34,1.8,1.8,0,0,1-.47-1.19,1.65,1.65,0,0,1,.56-1.23,2,2,0,0,1,1.37-.52,3.8,3.8,0,0,1,2.58,1.27l1.05-1.09a5.18,5.18,0,0,0-3.54-1.72,3.46,3.46,0,0,0-2.51,1,3.23,3.23,0,0,0-1,2.42,3.35,3.35,0,0,0,.62,2,6.74,6.74,0,0,0,2.35,1.75,7.57,7.57,0,0,1,2.07,1.36,1.93,1.93,0,0,1-.24,2.74,2.37,2.37,0,0,1-1.68.64,3.55,3.55,0,0,1-2.66-1.42l-1,1.17a4.65,4.65,0,0,0,1.67,1.33,4.78,4.78,0,0,0,2.1.48,3.81,3.81,0,0,0,2.76-1.09,3.59,3.59,0,0,0,1.1-2.66,3.34,3.34,0,0,0-.64-2A7.58,7.58,0,0,0,236.35,193.77Z"/><path class="cls-1" d="M253.51,190.42A6.28,6.28,0,0,0,248.3,188a6.08,6.08,0,0,0-5.05,2.41,7,7,0,0,0,.27,8.95,6.1,6.1,0,0,0,4.88,2.05,7.12,7.12,0,0,0,2.52-.43,6.24,6.24,0,0,0,2-1.25,7.65,7.65,0,0,0,1.58-2.16l-1.39-.72a7.85,7.85,0,0,1-1.39,1.81,5.21,5.21,0,0,1-1.57.9,5.57,5.57,0,0,1-1.89.33,4.54,4.54,0,0,1-3.4-1.42,5.24,5.24,0,0,1-1.42-3.64h11.48A7,7,0,0,0,253.51,190.42Zm-9.9,2.94a5.34,5.34,0,0,1,1.49-2.63,4.65,4.65,0,0,1,3.23-1.21,5.12,5.12,0,0,1,2.17.48,4.54,4.54,0,0,1,1.66,1.27,5.55,5.55,0,0,1,1,2.09Z"/><path class="cls-1" d="M269.3,191.29c-1.26-.93-2-1.5-2.23-1.72a4.32,4.32,0,0,1-.86-1.15,2.77,2.77,0,0,1-.23-1.09,2.07,2.07,0,0,1,.66-1.56,2.37,2.37,0,0,1,1.71-.63,2.79,2.79,0,0,1,1.49.41,6.66,6.66,0,0,1,1.66,1.7l1.41-1.07a7.74,7.74,0,0,0-2.25-2.22,4.57,4.57,0,0,0-2.28-.6,4.3,4.3,0,0,0-2.12.53,3.75,3.75,0,0,0-1.52,1.46,4,4,0,0,0-.54,2.05,4.33,4.33,0,0,0,.91,2.64,15,15,0,0,0,2.69,2.35,14,14,0,0,1,2.95,2.77,2.77,2.77,0,0,1,.19,3.14,3,3,0,0,1-1.16,1.08,3.43,3.43,0,0,1-1.63.41c-1.35,0-2.55-.95-3.58-2.85l-1.46.88a7.61,7.61,0,0,0,2.35,2.8,5.09,5.09,0,0,0,2.85.84,4.77,4.77,0,0,0,3.46-1.38,4.4,4.4,0,0,0,1.43-3.26,4.77,4.77,0,0,0-.83-2.59A12.63,12.63,0,0,0,269.3,191.29Z"/><path class="cls-1" d="M287.71,190.42A6.3,6.3,0,0,0,282.5,188a6.1,6.1,0,0,0-5.06,2.41,7,7,0,0,0,.27,8.95,6.12,6.12,0,0,0,4.88,2.05,7.08,7.08,0,0,0,2.52-.43,6.28,6.28,0,0,0,2-1.25,7.63,7.63,0,0,0,1.57-2.16l-1.38-.72a7.84,7.84,0,0,1-1.4,1.81,5.15,5.15,0,0,1-1.56.9,5.63,5.63,0,0,1-1.9.33,4.5,4.5,0,0,1-3.39-1.42,5.15,5.15,0,0,1-1.42-3.64h11.47A6.9,6.9,0,0,0,287.71,190.42Zm-9.91,2.94a5.5,5.5,0,0,1,1.49-2.63,4.66,4.66,0,0,1,3.23-1.21,5.09,5.09,0,0,1,2.17.48,4.46,4.46,0,0,1,1.66,1.27,5.41,5.41,0,0,1,1,2.09Z"/><path class="cls-1" d="M303.26,190.62a6.4,6.4,0,0,0-2.24-2,5.92,5.92,0,0,0-2.84-.67,6.29,6.29,0,0,0-4.65,2,6.44,6.44,0,0,0-1.93,4.71,6.6,6.6,0,0,0,1.91,4.77,6.24,6.24,0,0,0,4.63,2,6.13,6.13,0,0,0,2.8-.64,7.06,7.06,0,0,0,2.32-1.88V201h1.61V188.28h-1.61Zm-.55,6.71a4.81,4.81,0,0,1-1.85,1.84,5.17,5.17,0,0,1-2.55.67,4.8,4.8,0,0,1-2.5-.68,5,5,0,0,1-1.86-1.91,5.2,5.2,0,0,1-.69-2.58,5.13,5.13,0,0,1,.69-2.57,4.88,4.88,0,0,1,1.84-1.9,5,5,0,0,1,2.53-.67A4.81,4.81,0,0,1,301.9,191a5,5,0,0,1,1.46,3.7A5.16,5.16,0,0,1,302.71,197.33Z"/><path class="cls-1" d="M311.2,188.49a6.12,6.12,0,0,0-1.58,1.65v-1.86h-1.68V201h1.68v-4.31a19.52,19.52,0,0,1,.31-4.41,4.18,4.18,0,0,1,1.16-2.09,2.35,2.35,0,0,1,1.58-.68,2.26,2.26,0,0,1,.86.23l.86-1.39a3,3,0,0,0-1.45-.43A3.17,3.17,0,0,0,311.2,188.49Z"/><path class="cls-1" d="M322.26,189.5a5.44,5.44,0,0,1,4.6,2.24l1.3-.81a5.53,5.53,0,0,0-1.4-1.59,6.63,6.63,0,0,0-2-1,7.76,7.76,0,0,0-2.45-.39,7.49,7.49,0,0,0-3.64.89,6.5,6.5,0,0,0-2.56,2.48,6.68,6.68,0,0,0-.93,3.44,6.24,6.24,0,0,0,2,4.67,6.9,6.9,0,0,0,5,1.93,7.88,7.88,0,0,0,3.51-.76,6.17,6.17,0,0,0,2.46-2.14l-1.3-.85a5.61,5.61,0,0,1-4.59,2.23,5.7,5.7,0,0,1-2.77-.67,5,5,0,0,1-1.94-1.91,5.21,5.21,0,0,1-.71-2.62,4.9,4.9,0,0,1,1.54-3.65A5.37,5.37,0,0,1,322.26,189.5Z"/><path class="cls-1" d="M341.91,190.63a4.34,4.34,0,0,0-1.64-1.95,4.48,4.48,0,0,0-2.54-.73,5.38,5.38,0,0,0-2.59.65,7.12,7.12,0,0,0-2.19,2v-7.2h-1.64V201H333v-4.68a16.49,16.49,0,0,1,.24-3.47,4.53,4.53,0,0,1,1.55-2.43,4,4,0,0,1,2.67-1,3.27,3.27,0,0,1,2.1.64,3.42,3.42,0,0,1,1.11,1.9,16.56,16.56,0,0,1,.17,2.95V201h1.64v-6.56A10.37,10.37,0,0,0,341.91,190.63Z"/><path class="cls-2" d="M102.7,158.58l-18-10.39V130.53l-17-9.82-17,9.82v20l17,9.81,15-8.66,18,10.39Zm-35-2.89-13-7.5V132.84l13-7.51,13,7.51v15.35Z"/><polygon class="cls-2" points="18.37 160.31 14.37 160.31 14.37 149.2 24.23 143.51 26.23 146.97 18.37 151.51 18.37 160.31"/><polygon class="cls-2" points="121.06 160.31 117.06 160.31 117.06 151.51 109.2 146.97 111.2 143.51 121.06 149.2 121.06 160.31"/><polygon class="cls-2" points="111.2 216.48 109.2 213.01 117.06 208.47 117.06 199.68 121.06 199.68 121.06 210.78 111.2 216.48"/><polygon class="cls-2" points="24.23 216.48 14.37 210.78 14.37 199.68 18.37 199.68 18.37 208.47 26.23 213.01 24.23 216.48"/><polygon class="cls-2" points="67.72 241.6 58.17 236.09 60.17 232.62 67.72 236.98 75.26 232.62 77.26 236.09 67.72 241.6"/><polygon class="cls-1" points="33.73 179.52 33.73 199.15 50.73 208.97 67.72 199.15 84.72 208.97 101.72 199.15 101.72 179.52 84.73 169.71 84.72 189.34 67.72 179.52 50.73 189.34 50.73 169.71 33.73 179.52"/><rect class="cls-2" x="103.95" y="140.44" width="1" height="4.25" transform="translate(-71.25 161.73) rotate(-60)"/><rect class="cls-2" x="96.58" y="136.19" width="1" height="4.25" transform="translate(-71.25 153.22) rotate(-60)"/><rect class="cls-2" x="89.22" y="131.94" width="1" height="4.25" transform="translate(-71.24 144.72) rotate(-60)"/><rect class="cls-2" x="28.88" y="142.07" width="4.25" height="1" transform="translate(-67.17 34.64) rotate(-30.02)"/><rect class="cls-2" x="36.24" y="137.82" width="4.25" height="1" transform="translate(-64.06 37.76) rotate(-30.02)"/><rect class="cls-2" x="43.61" y="133.56" width="4.25" height="1" transform="translate(-60.94 40.87) rotate(-30.02)"/><rect class="cls-2" x="15.88" y="190.29" width="1" height="4.25"/><rect class="cls-2" x="15.88" y="181.78" width="1" height="4.25"/><rect class="cls-2" x="15.88" y="173.28" width="1" height="4.25"/><rect class="cls-2" x="15.88" y="164.77" width="1" height="4.25"/><rect class="cls-2" x="118.57" y="190.29" width="1" height="4.25"/><rect class="cls-2" x="118.57" y="181.78" width="1" height="4.25"/><rect class="cls-2" x="118.57" y="173.28" width="1" height="4.25"/><rect class="cls-2" x="118.57" y="164.77" width="1" height="4.25"/><rect class="cls-2" x="52.6" y="229.38" width="1" height="4.25" transform="translate(-173.93 161.73) rotate(-60)"/><rect class="cls-2" x="45.24" y="225.12" width="1" height="4.25" transform="translate(-173.93 153.22) rotate(-60)"/><rect class="cls-2" x="37.87" y="220.87" width="1" height="4.25" transform="translate(-173.93 144.72) rotate(-60)"/><rect class="cls-2" x="30.5" y="216.62" width="1" height="4.25" transform="translate(-173.93 136.21) rotate(-60)"/><rect class="cls-2" x="80.22" y="231" width="4.25" height="1" transform="translate(-104.78 72.26) rotate(-30.02)"/><rect class="cls-2" x="87.59" y="226.75" width="4.25" height="1" transform="translate(-101.66 75.38) rotate(-30.02)"/><rect class="cls-2" x="94.96" y="222.5" width="4.25" height="1" transform="translate(-98.55 78.49) rotate(-30.02)"/><rect class="cls-2" x="102.32" y="218.24" width="4.25" height="1" transform="translate(-95.43 81.61) rotate(-30.02)"/></g></svg>