<svg xmlns="http://www.w3.org/2000/svg" width="160" height="42" viewBox="0 0 160 42">
    <g fill="none" fill-rule="nonzero">
        <path fill="#1A3B73" d="M1.244 11.765c1.197 0 2.03.254 2.547.772.58.578.84 1.536.84 3.101v19.563c0 2.708-.567 3.914-3.916 3.914h-.46v1.2h15.051v-1.194l-.454-.006c-3.317-.04-3.877-1.24-3.877-3.914V15.638c0-1.561.259-2.514.838-3.093.524-.525 1.373-.78 2.594-.78h.9v-1.217H.254v1.217h.99zm48.137 18.573s-.261-1.221-.299-1.906v-8.935c-.058-5.21.652-7.804-3.903-7.784v-1.171h10.48v1.17c-4.693-.018-4.102 2.576-4.13 7.785v20.864l-1.49-.016-22.63-23.682s.255 1.22.293 1.904v14.631c-.128 5.338.533 5.983 3.971 5.92v1.22H20.746v-1.22c3.445.004 4.12-.453 4.118-6.355v.353-14.42l-.028-2.289c.128-2.962-.966-4.68-4.306-4.652v-1.171h10.058L49.38 30.338zM87.317 9.974h-1.155l-.054.396c-.08.59-.31 1.578-.984 1.578-.192 0-.67-.09-1.207-.336-2.34-1.013-5.372-1.638-7.924-1.638-4.967 0-9.47 1.778-12.689 5.01-2.955 2.97-4.572 7.011-4.55 11.38.022 4.183 1.666 7.625 5.033 10.525 3.392 2.902 7.192 4.14 12.715 4.14 4.6 0 7.234-.661 11.275-2.83l.707-.384v-7.807c0-3.327.41-3.845 3.116-3.954l.44-.017v-1.159H78.813v1.16l.44.016c3.016.117 3.584.658 3.584 3.409v7.234c-2.236 1.475-3.862 2.036-5.912 2.036-3.034 0-5.734-1.173-7.807-3.244-2.428-2.43-3.612-5.969-3.612-9.968 0-4.308 1.146-7.983 3.51-10.344 1.88-1.881 4.38-2.926 7.23-2.926 2.546 0 5.502 1.092 7.53 2.701 1.652 1.352 2.508 2.658 3.153 4.817l.097.327h1.13l-.839-10.122z"/>
        <path fill="#FFF" d="M145.242 40.236c.736-.11 1.518-.094 2.102-.633 2.485.382 5.004-.232 6.957-1.6a14.594 14.594 0 0 0 2.706-2.845c.66-.927 1.181-1.79 1.517-2.828.253-.646.454-1.312.6-1.99.709-3.224.336-6.828-.712-9.895a18.852 18.852 0 0 0-.65-1.647c-1.31-2.707-3.094-5.627-5.839-7.34-1.545-.964-2.969-2.455-3.843-3.999-.474-.428-.93-.995-1.543-1.096.167.277.353.548.398.873l-.035.045c-.654.02-1.163-.326-1.61-.743l.492-.446c-.185-.095-.4-.13-.605-.178-1.878-.214-3.422.652-5.086 1.07l-.026.093c1.022.455 1.236 1.583 1.832 2.344.147-.177.398-.048.603-.064.298.016.577.232.866.156.008-.249-.132-.446-.177-.668.177-.084.389-.01.586 0 .538.315 1.402-.056 1.74.668-.616.038-1.192.168-1.768.308.038.233.269.419.25.651a5.804 5.804 0 0 0-1.562-.398l-.027.082c.697.82 1.656 1.303 2.632 1.59 1.405.325 2.641-.343 3.998-.11 3.33 1.525 6.176 5.014 7.414 8.325.06.16.118.32.173.484 1.037 3.024 1.232 6.741.196 9.895-.554 1.312-1.16 2.55-2.137 3.618a7.48 7.48 0 0 1-1.22 1.2c-1.396 1.087-3.117 1.566-4.89 1.08-.113-.076-.336-.096-.298-.29.06-.26.119-.522.17-.79.304-1.544.421-3.12.349-4.693l-.006-.203c-.097-2.309-.557-4.384-1.405-6.38-.544-1.145-1.192-2.395-2.006-3.516-.97-1.337-2.175-2.492-3.724-3.068-.95-.252-2.122-.3-2.838.49-.51.449-.724 1.052-.65 1.714-.8.507-1.698.781-2.678.864-.24.02-.485.109-.735.105a4.009 4.009 0 0 1-.693-.026c-1.179-.145-2.368-.78-3.274-1.507-.018-.483-.047-.939-.066-1.45-.52-.27-.95-.782-.984-1.387l.045-.045c.299.093.557.24.829.398-.123-.725-.263-1.44-.623-2.073-.336-.14-.67-.251-.986-.42-.363-.239-.597-.678-.65-1.077.324.316.89.205 1.143.539-.439-1.293-.447-2.772-1.163-3.953-.363-.874-1.312-1.273-1.963-1.914-.25-.308-.353-.737-.809-.783-.37-.094-.4-.511-.464-.782.233.03.427.186.621.224-.54-1.43-1.013-3.023-2.472-3.933l-.25.158c-.567.083-1.173.12-1.74.14.25-.372.697-.53 1.05-.699-.409-.306-.745-.38-1.258-.463-.297.297-.834.446-1.217.53l-.047-.038c-.01-.334-.085-.742.418-.828-.483-.232-1.285-.138-1.778 0-.138.363-.538.688-.509 1.117-.287.297-.49.698-.79.911-.01-.716.295-1.375.425-1.98-.417.158-.842.381-1.254.576-.66-.381-1.354-.762-2.061-1.05-.064-.03-.204-.056-.177.065.605.437.37 1.256.435 1.878l-.382-.315c-.185-.475-.723-.82-.813-1.339-.635.121-1.039.288-1.625.539l-.081.046c.436 0 .809.343 1.022.688-.66.036-1.246-.223-1.898-.29-.064-.064-.12-.14-.224-.13-.324.12-.603.353-.89.576-.641.634-1.293 1.332-1.599 2.168.214.037.483.027.641.157-.353.214-.66.577-1.004.782-.122.484-.103 1.034-.13 1.563-.271.41-.633.771-.809 1.228-.576 1.867-.725 3.944-.64 6.062-.189.178-.43.29-.606.43l.02 1.896h.045c.083-.399.558-.621.846-.893h.094c-.047.429-.102.856-.11 1.293l-.54.446c-.54.475-.086 1.191-.13 1.787.036.156.063.39.174.428.068-.233.272-.4.402-.605.232-.054.436-.242.65-.269a9.813 9.813 0 0 1-.466 1.368 1.688 1.688 0 0 0-.283.231.683.683 0 0 0-.19.345c.42 2.204 1.077 4.379 1.83 6.453-.51.865-.8 1.884-1.226 2.777-.06.125-.116.252-.167.382-.427 1.081-.558 2.292-1.09 3.329a3.892 3.892 0 0 0-.688-.363c-1.004-.335-2.168-.12-2.902.652-.652-.121-1.32-.009-1.832.335-.367.273-.65.606-.813.994-.114.28-.164.583-.145.885-.418.288-.641.733-.78 1.181-.196 1.005.159 2.05.735 2.822h46.355v-.002z"/>
        <path fill="#FFF" d="M139.086 19.324c-.008.242-.185.513-.027.717.223-.252.596-.243.894-.354.825-.074 1.617.186 2.39.372-.196-.308-.327-.65-.54-.93-.43-.111-1.08.186-1.153-.446-.26-.224-.672-.064-.94-.048-.256.181-.469.416-.624.69zm-28.424-8.03l-.014-.009.002.01h.012zm3.381 8.268l.559-.54c.046 0 .081.01.11.048l-.047 1.031c.27.253.604.336.957.354.03-.28.243-.475.365-.717.101-.194.037-.483.24-.623l.064.066c.068.307.049.65.208.92.018.148.045.336.063.466.41.02.78-.095 1.098-.242-.018-.354.103-.643.157-.968.085-.112-.102-.316.132-.307.13.278.36.566.49.863.54-.547.764-1.264.893-2.007-.157-.216-.397-.216-.586-.354-1.58-.513-3.609-.615-5.134.176-.098.634.032 1.333.431 1.834zM99.265 37.014c-.059.717 0 1.389.044 2.095.15.233.42.503.687.522l.049-.475c.11-.662-.243-1.362.13-1.92.26.083.52.213.745.334.109-.614-.048-1.329-.635-1.701l-1.02 1.145zm2.295-1.003c-.362 1.087-.633 2.43-.196 3.574.25-.166.511-.325.734-.557-.045-.876-.165-1.81.353-2.535.456.14.765.577.939 1.005.309-.391.411-.93.289-1.451.02-.409-.446-.315-.67-.483.076-.345.066-.744.43-.939l-1.119.113c-.286.406-.602.808-.76 1.273zm2.297 3.21c.047.086 0 .233.093.252.14-.78.772-1.287 1.116-1.975.167-.231.157-.558.428-.735.362 0 .625.261.978.29.11.083-.057.156-.066.249-.074.634-.316 1.158-.268 1.808h.063c.493-.518.827-1.083 1.19-1.678l.063-.529c.084-.633-.603-1.041-1.05-1.302l.4-.511-.558-.196c-.652.066-1.238.335-1.694.847-.565 1.041-.656 2.217-.695 3.48zm2.503-5.519c.212.066.408-.111.621-.018.856.315 1.75.642 2.391 1.358l.762 1.944.382-1.2-.252-.652c-.212-.465-.798-.427-1.2-.446-.165-.185.01-.4.066-.576.196-.66-.613-.623-.94-.892.02-.4-.463-.261-.735-.298l-.091-.111c-.057-.085-.196-.085-.271-.02-.018-.026-.055-.046-.035-.093l-.206.047c-.288.253-.484.577-.492.957zm.538-2.137c.03.122.098.232.194.315.421-.112.819-.398 1.303-.224.625.549 1.275 1.125 2.03 1.424l.268-.048c.167.058.353.066.464.252.105.251-.157.4-.24.604.42.307.25.857.513 1.227l.667-.892c-.155-.392.01-1.06-.603-1.096a.59.59 0 0 1-.336-.542c-.397-.363-.892-.519-1.293-.891-.324-.262-.52-.661-.939-.755-.287-.157-.603-.241-.937-.315-.625-.091-.68.651-1.091.94zm.893-1.833l.11.177c.467-.028.886-.232 1.342-.224.305.187.707.178 1.02.335.253.344.523.735.893.968.756.111 1.173.921 1.432 1.515v-.288c.113-.399-.008-.865-.157-1.227-.187-.187-.456-.309-.65-.475-.038-.12-.01-.178.027-.289-.289-.307-.716-.475-1.07-.715-.492-.717-1.441-.521-2.194-.717l-.753.94zm-.016-6.823c.084.289.183.652.239.959.26-.578.774-.836 1.23-1.31-.262-.179-.586-.261-.873-.318v-.017c-.205.204-.522.408-.596.686zm1.69 3.06l.418-.428c.42-.427.763-.921.827-1.469-.297-.177-.687-.057-.974.045-.105.606-.26 1.202-.27 1.853zm.306 1.311c.642.038 1.265.166 1.788-.193l.518-1.676c-.165-.01-.334-.083-.491-.028-.343.763-1.035 1.517-1.815 1.897zm.19-5.933c.417.615 1.116 1.303 1.832 1.498-.085-.781-.753-1.322-1.097-1.99l-.02-.224c-.269-.261-.596-.436-.875-.577-.046.447.076.876.16 1.293zm2.266 6.008c.494.085 1.022 0 1.478-.141.662-.155 1.025-.883 1.249-1.45h-.83l-.892.874c-.353.187-.69.467-1.005.717zm-.1-6.854c.14.724.446 1.385.866 2.008l.11-1.385-.976-.623zm3.05 3.617c.054-.464-.139-1.004-.195-1.477-.279-.187-.67-.169-.957-.352.018.733.595 1.355 1.151 1.83zm-.849 4.727c.587-.187 1.153-.392 1.693-.69.344-.491.865-.94.939-1.516-.427.122-.8-.017-1.198.178-.242.437-.392.93-.857 1.246-.074.315-.418.53-.577.782zm.913 1.143l.696.91c.373.122.84.084 1.163-.13l-.252-.827c-.491.188-1.076.13-1.607.047zm1.162-6.586l.27 1.228c.65-.53.782-1.303.765-2.12-.37.427-.59.688-1.035.892zm1.831 2.168c.01.176.059.345.159.484.726.26.8 1.144 1.47 1.478.437.195.938-.047 1.32-.223-.287-.326-.615-.55-.892-.894-.196-.084-.392-.204-.382-.445l-1.675-.4zm.576 4.39c.318.362.746.548 1.192.65-.074-.103.047 0 .066-.064l-.559-1.226c-.277.008-.566.063-.827.045.017.203.064.408.128.595zm.988-5.73c-.262-.605-.37-1.34-.444-2.008-.28.335-.566.549-.829.891-.12.69.862.858 1.273 1.116zm1.134-.632c.336.437 1.07.288 1.48.157-.195-.335-.826-.53-.936-.892a8.179 8.179 0 0 0-.402-1.85c-.325.79-.72 1.73-.142 2.585zm.586 1.972c.93.68 1.842 1.47 3.144 1.182.093-.066.25-.058.27-.178-.383-.243-.79-.429-1.182-.65l-.445-.652h-.205c-.503.168-1.043.231-1.582.298zm.02 7.543h.063c.559-.445 1.22-.595 1.88-.782.178.065.065.26.223.337.4-.17.885-.131 1.293-.27.493.018.894.027 1.293.24.316.42.912.374 1.321.65l-.065-.65c-.864-1.014-2.213-1.087-3.459-1.068l-.028-.132c-.298 0-.631.067-.91.197-.4.017-.78.214-1.163.335-.18.353-.318.78-.449 1.143zm.747-11.43c.36.474.9.836 1.515.716-.316-.307-.68-.633-.698-1.07.093-.827-.817-.89-1.263-1.321.147.558.129 1.18.446 1.674zm-.096 13.077h.109c.495-.31 1.211-.076 1.694-.4.27-.141.287.23.474.333.456.28.51 1.116 1.153.921.772.4.576 1.34.605 2.029l.717-.447c-.066-.362.138-.802-.094-1.117-.177-.398-.66-.436-.892-.76.279-.477-.353-.699-.483-1.043l.037-.047.983.13c.338.204.457.577.559.92.772.13.957 1.004 1.228 1.564.157-.382.224-.792.383-1.163.008-.308-.402-.308-.605-.445-.057-.475-.272-.924-.689-1.21-.856-.214-1.609-.688-2.548-.688l-.782.241c-.428.102-.884-.028-1.208.27-.484.035-.522.567-.64.912zm.491-3.833l.177.083c.38-.178.763-.382 1.165-.53.621-.177 1.104.53 1.627.085.195-.14.36.063.51.176.224.41.746.381 1.134.493-.193-.529-.435-1.256-1.114-1.341-.269-.12-.586-.11-.846-.27-.717-.79-1.18.65-1.963.298-.28.309-.623.596-.69 1.006z"/>
        <path fill="#FFF" d="M122.857 35.457c.297.249.603.679 1.07.621.578.27.335 1.033.651 1.432l.334-.298-.027-.018.047-.046.02.028c.091-.28-.039-.774-.196-1.099-.215-.147-.466.01-.67-.13-.028-.297-.213-.446-.427-.63-.149-.113-.346.036-.513.026l-.289.114zm1.165-11.339c.305.513.9.829 1.376 1.182.389.178.9.223 1.32.13a8.549 8.549 0 0 1-1.098-1.09c-.13-.184-.157-.417-.334-.585-.44.085-.93.077-1.264.363zm.512-3.328c.429.529 1.089.315 1.692.335v-.065l-.93-.783c-.261.085-.539.316-.762.513zm-17.121-8.771l.537 1.674c-.008-.949.43-1.738.336-2.706l.402-.595-.849.26c-.223.427-.406.856-.426 1.367zm.362-2.902l.734-.427V7.6c-.307.188-.476.503-.717.755l-.017.762z"/>
        <path fill="#FFF" d="M122.861 10.81c-.179.233-.446.288-.67.335.39-.716.577-1.712.269-2.522.205-.074.429-.11.623-.223l-.018-.018.513-.447c.677-.465.417-1.348.67-2.008-.336-.52-.439-1.154-.923-1.592l.029-.017c-.383-.484-1.07-.43-1.592-.67-.689-.232-1.22.24-1.712.559-.214.036-.084.316-.314.306-.13.344-.29.716-.383 1.097-.92-.13-1.916-.027-2.65.493-.392-.287-.865-.344-1.321-.474-.334-.065-.717.056-.957-.131-.353-.399-.43-1.124-1.035-1.227-.211-.074-.258-.307-.258-.513-.402-.063-.755-.25-1.145-.335-.594-.269-1.067.16-1.515.447-.196.085-.42.111-.604.225-.334.52-.652 1.05-.865 1.626.065.474.269.894.513 1.293.213.604.883 1.078 1.45 1.322a5.5 5.5 0 0 0 0 2.948l-.016.01a.675.675 0 0 1-.03.026c-.089 0-.184.017-.258-.026h-.012c.13.889.55 1.666 1.225 2.333.242.085.188.372.289.56.066.082.074.258.047.333a7.292 7.292 0 0 0-3.906.976c-.297.15-.167.559-.196.847.82-.539 1.703-.94 2.679-1.115.417-.028.892-.13 1.292-.02l.047.8c-1.106.577-2.315.911-3.264 1.86.02.287-.037.624.046.866l.847-.69c.817-.621 1.674-1.153 2.615-1.497.25.3.512.616.846.8a6.341 6.341 0 0 1 1.833-.8c.344-.204.89-.018 1.114-.427l.159-.847c-.029-.02-.045-.055-.093-.045-.437-.252-.726-.688-.687-1.2-.15.073-.316.12-.493.13-.15-.038-.29-.074-.355-.224-.01-.187-.101-.465.084-.605.605-.373 1.386-.392 2.15-.334.567.073 1.385.044 1.58.716-.027.195-.01.409-.205.539-.204.111-.437-.01-.624-.093-.147.456-.397.968-.91 1.115l.066.54c.063.243.081.641.464.559.883.213 1.663.668 2.438 1.162.258-.261.464-.56.65-.828 1.376.466 2.566 1.497 3.701 2.456l.047-.781c-1.08-.958-2.279-1.637-3.525-2.168.047-.252.102-.494.11-.763a9.108 9.108 0 0 1 4.102 1.255l-.018-.668c-1.283-.688-2.688-1.144-4.224-1.163a.476.476 0 0 1-.063-.29c.745-.12 1.273-.892 1.452-1.563.38-.436.93-.91.8-1.56.018-.053.034-.11.054-.167.051-.162.092-.33.037-.483z"/>
        <path fill="#FFF" d="M124.154 13.2l.761-.242.084-.427c.215-.625-.24-1.09-.464-1.583l-.381 2.252zm1.923 2.949c.363.398.717 1.041 1.359.845-.047-.269-.196-.491-.29-.734-.167-.197-.221-.754-.557-.557-.25-.168-.314-.448-.474-.671-.073.344-.028.773-.038 1.117zm.13 2.723c.142.197.18.448.316.624.253.166.623.14.93.111.28-.063.457.243.717.065-.324-.205-.52-.577-.827-.845-.364-.289-.753-.038-1.136.045zm.495 4.326c.641.382 1.456.755 2.314.624.091-.048.25-.038.268-.15-.53-.186-1.085-.717-1.642-.827-.309-.475-.708.12-1.098.083.009.112.12.196.158.27zm1.932 8.212l.14.299c.14.968.753 1.86.418 2.92.279.194.362.52.54.78h.046c.214-.808.065-1.646-.047-2.455.085-.736-.66-1.164-1.097-1.544zm.161-9.524c.483.373 1.254.41 1.813.224-.353-.194-.744-.409-1.033-.67l-.78.446zm2.294 2.856c-.047.392.213.718.493.912.103-.232.268-.428.287-.688a1.697 1.697 0 0 0-.67-1.032c-.066.26-.14.51-.11.808zm.028 4.24c-.064.436.419.494.623.735.169.204-.11.344-.11.539.351.455.557.977.557 1.582.14-.567.353-1.107.43-1.694-.038-.407-.69-.325-.587-.78.185-.465-.037-.92-.16-1.338-.036-.067-.12-.197-.193-.16-.17.382-.588.65-.56 1.116zm1.275-2.212l.483.938c.213-.026.351-.232.52-.38.131-.391-.214-.642-.315-.958-.085-.225 0-.522-.159-.717-.122-.074-.262-.194-.401-.16l-.128 1.277zm.623-2.474c.38.232.817.566 1.02.975.328.949.847 1.805 1.229 2.725.14.642.252 1.214.427 1.847.068.166.029.491.29.464.075-.706.215-1.385.223-2.12-.233-.306-.54-.437-.827-.624v-.064c.037-.158.167-.345.363-.315.083-.095.334-.187.223-.353-.485-.484-.456-1.318-1.228-1.468-.27-.111-.336-.39-.36-.65-.365-.305-.906-.409-1.36-.417zm.444 5.04c.476.437.309 1.07.27 1.656-.072.353.372.148.512.334.29.428.122 1.052.018 1.517.252-.383.541-.717.735-1.135-.01-.158.194-.233.187-.428.084-.27-.23-.149-.36-.178-.113-.028-.233-.103-.198-.251.242-.465.02-1.024-.074-1.488-.11-.382.047-.892-.13-1.226-.298.408-1.184.502-.96 1.2zm.865-6.603c.83.838 1.435 1.678 2.326 2.487.02-.36-.027-.697-.047-1.051-.132-.25-.372-.436-.576-.621-.66-.067-1.004-.954-1.703-.815zm2.169 4.433c.018.083.055.156.091.242.363.595.707 1.208.96 1.849-.074-.687.39-1.543-.224-2.073-.084-.224-.363-.15-.54-.13l-.287.112zm2.232 6.794c.26.119.594-.096.847-.243.232-.057.427.075.603.195.073.149 0 .287.027.427.558.16 1.108.363 1.6.688l.158-.157c.037-.4-.278-.687-.577-.91-.195-.114-.485-.048-.623-.226.094-.147.094-.37.084-.539-.31 0-.503-.093-.754-.241-.157-.046-.297-.176-.429 0-.463.316-.492.78-.936 1.006zm.652-11.705c.23-.064.474-.131.668-.297.623-.567 1.525-.187 2.25-.196a4.942 4.942 0 0 0-.511-.717c-.26-.103-.503-.223-.8-.223-.633-.371-1.06.251-1.544.557-.13.254-.195.624-.063.876zm.016 1.914c0-.026 0-.055.029-.064.083.076-.01.252.13.288.242-.12.466-.288.688-.445.624 0 .996-.604 1.607-.604 1.023.186 2.039.39 2.931.892-.063-.605-.586-1.152-1.116-1.425-.297-.101-.53.058-.743.225-.625.391-.297-.568-.736-.586-.568.177-1.152.371-1.785.317-.371.138-.634.48-1.05.446-.02.306-.067.679.045.956zm.428 2.076c.196.204.52.166.8.204l.81-.315c.009-.15-.243-.187-.189-.353.226-.252.532-.076.81-.18.392-.054.791-.444 1.18-.155-.01.046.02.111-.017.156-.122.29.083.465.307.577.456.085.883.503 1.34.315-.047-.38-.147-.732-.243-1.097-.38-.065-.65-.381-1.004-.513-.159.15-.362.262-.557.243-.717-.167-1.574-.612-2.298-.157-.26.315-.725.223-1.079.36.02.32.057.626.14.915zm.307 5.527c-.056.158-.213.42.074.494.596.02 1.358-.288 1.824.176.157.122.084.372.074.53l.78.653c.076-.392.214-.746.224-1.165a1.3 1.3 0 0 0-.472-.78c-.513 0-.811-.6-1.36-.524-.288-.065-.539.189-.828.189-.13.13-.204.29-.316.427zm.224-4.383c.12.25.26.66.493.687.55-.241 1.346-.391 1.962-.13.204.038.204.27.16.42.313.185.696.332 1.03.538l-.091-.557c-.02-.606-.783-.662-.83-1.258-.622-.204-1.321-.269-1.979-.11-.216.195-.522.167-.782.224-.018.074.027.12.037.186zm.159 3.013c.363-.103.592-.503.984-.539.596.01 1.128.25 1.498.762.224.15.177.531.464.531-.083-.457.066-.874.05-1.34-.393-.65-1.36-.15-1.722-.912l-.687.046c-.493.121-.363.7-.43 1.09-.057.12-.167.213-.157.362zm3.411 4.068c.29.576.923 1.014.986 1.676.15-.178.253-.383.353-.577-.01-.187-.223-.187-.309-.334-.081-.243.049-.457.086-.672-.12-.344-.41-.67-.734-.874l-.382.781zm1.146-1.47l.67.912c.287-.456.287-1.125.175-1.676-.064-.102-.185-.268-.353-.194-.253.261-.288.66-.492.959zm-2.726-25.457c.24.121.474.232.762.251.195-.102.448-.176.688-.111.346.223.764-.047 1.161-.029-.352-.334-.751-.539-1.16-.733-.52.11-.938.48-1.45.622zm3.637.874c.493.046.844.482 1.18.848.42.065.736.362.986.669l-.157-.494c-.112-.494-.42-.876-.733-1.264-.448.029-.887.064-1.276.241z"/>
        <path fill="#DB812E" d="M111.272 4.336l.269.028c.725.362 1.898.548 1.963 1.599-.734.289-1.44.68-2.027 1.274-.446-.456-1.348-.205-1.496-1.004.14-.753.407-1.7 1.29-1.897zm.698 4.717c.845-.073 1.664.045 2.54-.029.213.093.436.28.539.493-.029 1.005-.336 1.963-.383 2.995-.38.159-.753.475-.846.892-.344.102-.652.308-.986.464-.15-.316-.12-.79.14-1.05.363-.512 1.303-.39 1.226-1.2.243-.391.01-.893.02-1.302-.093-.307-.185.103-.334.093-.297.063-.605.082-.863-.065-.198-.206-.44-.372-.495-.652-.26-.13-.567-.335-.697-.604l.14-.035zm1.023 6.063c.397.056.817-.12 1.163.074-.076.131-.27.186-.428.224l-.625.289c-.232-.057-.1-.43-.11-.587zm1.627-7.766c.4-.13.828-.399 1.256-.27-.307.308-.548.708-.78 1.078l-1.275-.026c.139-.335.492-.614.799-.782zm3.73-.306c.528-.093.501.595.984.623.086.111.206.214.16.38-.28.112-.688.057-1.007.13-.417-.232-.147-.957-.808-.91-.035-.055-.11-.168-.018-.205.204-.074.474-.047.69-.018zm-.336 2.492c.233-.327.587-.354.923-.42l2.409.048c.101.092-.094.175-.094.288-.149.14-.363.178-.493.308-.316.01-.289.38-.513.538-.343.344-.846.187-1.246.132-.14-.104-.297-.243-.362-.4l-.113.11c.142.522.104 1.099.206 1.628l.576.382c.008.857 1.015.624 1.452 1.098-.103.306-.307.568-.53.828a3.134 3.134 0 0 0-1.181-.717c-.037-.503-.584-.8-.892-1.051-.084-.911-.104-1.842-.25-2.726l.108-.046zm.876 5.737h1.116l-.14.587-1.118-.475c-.025-.093.075-.12.142-.112zm2.008-10.536l.827-.261c.476.223.92.503 1.357.819.346.633.287 1.487.132 2.194-.253.28-.8 0-1.004.446h-.039c-.309-.873-1.18-1.654-1.99-2.055.131-.446.271-.882.717-1.143z"/>
        <path fill="#FFF" d="M140.295 40.17h4.961c.736-.11 1.516-.092 2.102-.633 2.484.382 5.004-.232 6.957-1.598a14.537 14.537 0 0 0 2.706-2.845c.66-.927 1.181-1.792 1.517-2.828.25-.642.45-1.306.598-1.991.711-3.223.338-6.828-.71-9.896a17.535 17.535 0 0 0-.652-1.644c-1.31-2.707-3.09-5.627-5.837-7.34-1.547-.964-2.97-2.458-3.843-4-.474-.429-.93-.995-1.545-1.098.169.28.355.548.402.873l-.04.047c-.65.02-1.162-.325-1.606-.745l.493-.446c-.188-.092-.402-.13-.605-.176-1.88-.213-3.424.65-5.088 1.07l-.026.092c1.022.455 1.236 1.58 1.83 2.344.15-.178.402-.047.605-.066.297.019.577.232.864.159.01-.25-.128-.446-.175-.669.175-.085.39-.01.586 0 .538.316 1.404-.057 1.74.669-.616.038-1.192.166-1.769.307.037.232.27.42.253.652a5.839 5.839 0 0 0-1.564-.4l-.027.082c.698.819 1.656 1.303 2.631 1.592 1.406.325 2.642-.344 3.998-.111 3.332 1.525 6.175 5.014 7.413 8.326.062.159.12.32.175.481 1.037 3.025 1.232 6.743.194 9.896-.552 1.313-1.16 2.55-2.135 3.618-.36.445-.769.848-1.22 1.2-1.397 1.089-3.117 1.566-4.89 1.079-.111-.074-.337-.094-.3-.287.064-.26.12-.524.171-.791.295-1.513.43-3.103.352-4.692-.004-.068-.006-.137-.008-.205-.097-2.307-.558-4.382-1.405-6.379-.544-1.146-1.192-2.395-2.006-3.517-.969-1.338-2.175-2.492-3.724-3.07-.95-.251-2.122-.296-2.837.494-.512.446-.725 1.052-.652 1.711-.8.51-1.7.783-2.678.866-.24.02-.485.108-.733.106-.237.012-.47 0-.693-.028-1.18-.146-2.37-.778-3.276-1.507-.02-.481-.047-.94-.066-1.449-.52-.27-.947-.783-.984-1.386l.047-.047c.297.092.557.241.825.4-.12-.725-.259-1.442-.621-2.074-.336-.14-.672-.251-.988-.419-.361-.242-.595-.679-.648-1.08.324.319.89.206 1.143.541-.437-1.293-.447-2.771-1.163-3.953-.363-.874-1.312-1.273-1.963-1.916-.252-.306-.353-.733-.809-.781-.372-.092-.4-.513-.464-.781.23.027.427.186.623.222-.541-1.433-1.014-3.022-2.474-3.933l-.25.157c-.57.085-1.173.121-1.74.14.25-.373.697-.53 1.05-.698-.409-.306-.747-.381-1.26-.466-.295.3-.832.447-1.215.53l-.045-.036c-.01-.334-.087-.745.416-.827-.483-.233-1.283-.14-1.776 0-.14.362-.538.687-.511 1.115-.287.299-.491.697-.79.913-.008-.717.295-1.378.425-1.982-.42.157-.842.38-1.252.578-.662-.382-1.356-.765-2.061-1.05-.068-.03-.208-.058-.179.063.605.436.37 1.255.435 1.879l-.382-.316c-.185-.474-.723-.818-.815-1.34-.633.12-1.037.29-1.623.54l-.082.046c.437 0 .81.344 1.023.687-.66.038-1.246-.223-1.896-.288-.066-.065-.12-.14-.226-.13-.324.121-.603.353-.89.576-.641.631-1.293 1.331-1.601 2.167.216.038.485.029.642.159-.352.214-.66.576-1.004.78-.122.484-.103 1.033-.132 1.563-.268.409-.631.771-.807 1.227-.576 1.869-.725 3.943-.64 6.064-.189.176-.432.289-.606.427l.02 1.897h.044c.086-.4.559-.623.847-.891h.094c-.045.427-.104.854-.11 1.293l-.54.446c-.54.475-.084 1.19-.13 1.784.036.159.063.391.176.429.064-.233.27-.4.4-.605.232-.057.436-.243.65-.27a9.844 9.844 0 0 1-.466 1.367c-.088.059-.194.14-.284.233a.652.652 0 0 0-.187.346c.417 2.204 1.075 4.379 1.83 6.453-.513.864-.802 1.883-1.228 2.778a4.52 4.52 0 0 0-.167.381c-.427 1.082-.559 2.29-1.09 3.33a3.64 3.64 0 0 0-.688-.363c-1.006-.335-2.168-.122-2.902.65-.652-.122-1.32-.01-1.832.334-.367.276-.65.608-.813.996-.115.28-.164.582-.144.884-.42.289-.642.734-.78 1.18-.198 1.007.156 2.052.733 2.823h41.397v.002z"/>
        <path fill="#DB812E" d="M158.426 20.38a17.535 17.535 0 0 0-.652-1.645c-1.31-2.707-3.09-5.627-5.837-7.34-1.547-.964-2.97-2.458-3.843-4-.474-.429-.93-.995-1.545-1.098.169.28.355.548.402.873l-.04.047c-.65.02-1.162-.325-1.606-.745l.493-.446c-.188-.092-.402-.13-.605-.176-1.88-.213-3.424.65-5.088 1.07l-.026.092c1.022.455 1.236 1.58 1.83 2.344.15-.178.402-.047.605-.066.297.019.577.232.864.159.01-.25-.128-.446-.175-.669.175-.085.39-.01.586 0 .538.316 1.404-.057 1.74.669-.616.038-1.192.166-1.769.307.037.232.27.42.253.652a5.839 5.839 0 0 0-1.564-.4l-.027.082c.698.819 1.656 1.303 2.631 1.592 1.406.325 2.642-.344 3.998-.111 3.332 1.525 6.175 5.014 7.413 8.326.062.159.12.32.175.481 1.037 3.025 1.232 6.743.194 9.896-.552 1.313-1.16 2.55-2.135 3.618-.36.445-.769.848-1.22 1.2-1.397 1.089-3.117 1.566-4.89 1.079-.111-.074-.337-.094-.3-.287.064-.26.12-.524.171-.791.295-1.513.43-3.103.352-4.692-.004-.068-.006-.137-.008-.205-.097-2.307-.558-4.382-1.405-6.379-.544-1.146-1.192-2.395-2.006-3.517-.969-1.338-2.175-2.492-3.724-3.07-.95-.251-2.122-.296-2.837.494-.512.446-.725 1.052-.652 1.711-.8.51-1.7.783-2.678.866-.24.02-.485.108-.733.106-.237.012-.47 0-.693-.028-1.18-.146-2.37-.778-3.276-1.507-.02-.481-.047-.94-.066-1.449-.52-.27-.947-.783-.984-1.386l.047-.047c.297.092.557.241.825.4-.12-.725-.259-1.442-.621-2.074-.336-.14-.672-.251-.988-.419-.361-.242-.595-.679-.648-1.08.324.319.89.206 1.143.541-.437-1.293-.447-2.771-1.163-3.953-.363-.874-1.312-1.273-1.963-1.916-.252-.306-.353-.733-.809-.781-.372-.092-.4-.513-.464-.781.23.027.427.186.623.222-.541-1.433-1.014-3.022-2.474-3.933l-.25.157c-.57.085-1.173.121-1.74.14.25-.373.697-.53 1.05-.698-.409-.306-.747-.381-1.26-.466-.295.3-.832.447-1.215.53l-.045-.036c-.01-.334-.087-.745.416-.827-.483-.233-1.283-.14-1.776 0-.14.362-.538.687-.511 1.115-.287.299-.491.697-.79.913-.008-.717.295-1.378.425-1.982-.42.157-.842.38-1.252.578-.662-.382-1.356-.765-2.061-1.05-.068-.03-.208-.058-.179.063.605.436.37 1.255.435 1.879l-.382-.316c-.185-.474-.723-.818-.815-1.34-.633.12-1.037.29-1.623.54l-.082.046c.437 0 .81.344 1.023.687-.66.038-1.246-.223-1.896-.288-.066-.065-.12-.14-.226-.13-.324.121-.603.353-.89.576-.641.631-1.293 1.331-1.601 2.167.216.038.485.029.642.159-.352.214-.66.576-1.004.78-.122.484-.103 1.033-.132 1.563-.268.409-.631.771-.807 1.227-.576 1.869-.725 3.943-.64 6.064-.189.176-.432.289-.606.427l.02 1.897h.044c.086-.4.559-.623.847-.891h.094c-.045.427-.104.854-.11 1.293l-.54.446c-.54.475-.084 1.19-.13 1.784.036.159.063.391.176.429.064-.233.27-.4.4-.605.232-.057.436-.243.65-.27a9.844 9.844 0 0 1-.466 1.367c-.088.059-.194.14-.284.233a.652.652 0 0 0-.187.346c.417 2.204 1.075 4.379 1.83 6.453-.513.864-.802 1.883-1.228 2.778a4.52 4.52 0 0 0-.167.381c-.427 1.082-.559 2.29-1.09 3.33a3.64 3.64 0 0 0-.688-.363c-1.006-.335-2.168-.122-2.902.65-.652-.122-1.32-.01-1.832.334-.367.276-.65.608-.813.996-.115.28-.164.582-.144.884-.42.289-.642.734-.78 1.18-.198 1.007.156 2.052.733 2.823h16.434c-.242-.287-.466-.688-.635-1.032-.353-.531-.11-1.284-.149-1.898.336-.676.676-1.355 1.06-2.016.077-.132.154-.264.234-.393l.753-.288c.4 0 .736-.288 1.116-.186.513.512.513-.51 1.006-.558 1.153-.15 2.297-.038 2.947.939 0 .13.205.13.159.251-.15.046-.29-.047-.447-.047-.706-.176-1.535-.625-2.232-.223a10.18 10.18 0 0 1-.097.503c-.033.178-.066.352-.082.52.457.13.84.455 1.182.807.233-.455.726-.658 1.163-.808.382.083.8.093 1.118.334.586.541.295 1.462.24 2.149.53.297 1.116.466 1.654.753-.25.226-.582.317-.89.43l-.893-.178c-.103-.074-.28-.074-.318-.204-.295.315-.658.734-.845 1.143h12.74c-.168-.382-.362-.679-.596-1.032-.26-.558-.155-1.321-.184-1.917l1.19-1.813c.65-.01 1.386-.25 2.093-.13a.665.665 0 0 0 .101-.055c.294-.203.383-.674.82-.614.78-.214 1.376.14 1.962.492a.764.764 0 0 1-.06.122c-.245.393-.705-.046-1.039.073-.14.15.066.325.093.493.12.166-.122.147-.205.177a.64.64 0 0 1-.558-.177c-.037-.047-.01-.102-.083-.111-.167.277-.41.53-.474.846.213.205.5.41.605.67.214.307-.17.54-.243.81-.028.054-.114.054-.14 0-.196-.112-.362-.392-.576-.318-.188.828.063 1.656-.049 2.484.363.085.79-.02 1.182 0l.159-1.748c.167-1.135.837-2.084 1.627-2.95.855-.584 1.405.569 2.036.968.103.02.065.131.112.195-.01.187-.204.261-.334.317-.392.138-.68-.29-.922-.54-.233.25-.334.586-.603.781l.091.027c.31.308.605.633.672 1.044-.039.37-.224.733-.558.921a9.327 9.327 0 0 1-.624-1.34c.01.018-.01.026-.028.046-.511.138-.648.715-.734 1.182.029.455-.316.64-.223 1.096h6.63c.736-.111 1.516-.093 2.102-.634 2.484.382 5.004-.232 6.957-1.598a14.537 14.537 0 0 0 2.706-2.845c.66-.927 1.181-1.792 1.517-2.828.25-.642.45-1.306.598-1.991.711-3.218.338-6.823-.71-9.89z"/>
        <path fill="#DB812E" d="M115.748 37.642c.362-.232.949-.29 1.032-.828-.147-.112-.28-.253-.446-.29l-.383.112c.03-.224.15-.473.226-.716l1.226-.4c-.169.558-.232 1.256-.289 1.898.112.95.252 1.963.735 2.753h-1.321c-.148-.874-1.06-1.507-.78-2.53zm2.855-1.117h.075l.89.81.13-.028c-.075.953-.118 1.908-.13 2.864h-.966c-.196-.92-.52-1.888-.483-2.882.167-.252.278-.569.484-.764zm1.99.894c.176-.232.25-.624.603-.669.252.008.484.045.671.223.326.408.008.931-.11 1.34-.13.623-.355 1.272-.56 1.859h-.938l.333-2.753zm14.108-.29c.204.261.27.614.577.848.269-.373.333-.95.203-1.425l-.268-.27c.344-.082.707-.11 1.05-.176-.147.494-.429.94-.38 1.516.01.837.149 1.675.223 2.548h-1.022c-.373-.818-.746-1.6-.717-2.548.11-.167.185-.362.334-.493z"/>
        <path fill="#FFF" d="M139.1 19.26c-.01.242-.185.511-.027.717.225-.251.594-.242.892-.354.829-.075 1.62.186 2.39.373-.195-.308-.325-.652-.538-.93-.43-.114-1.08.186-1.153-.448-.263-.224-.67-.065-.94-.046-.257.18-.47.415-.624.688zm-28.425-8.031c-.004-.001-.008-.006-.014-.01l.002.01h.012zm3.382 8.268l.559-.539c.046 0 .083.01.11.046l-.045 1.032c.269.251.601.335.955.353.03-.277.243-.475.363-.716.103-.195.039-.484.242-.622l.066.064c.064.308.045.652.204.92.02.15.047.336.063.467.38.01.758-.073 1.099-.243-.02-.353.103-.64.157-.966.085-.112-.104-.317.13-.308.132.28.362.568.493.866.54-.549.765-1.265.892-2.01-.157-.213-.397-.213-.586-.352-1.58-.511-3.607-.613-5.132.177-.1.63.03 1.327.43 1.831zM99.276 36.95c-.057.717 0 1.39.046 2.096.15.232.42.503.689.52l.045-.475c.112-.66-.24-1.36.132-1.92.26.084.52.214.745.334.11-.613-.049-1.33-.635-1.702l-1.022 1.147zm2.298-1.006c-.363 1.09-.633 2.43-.196 3.577.253-.168.511-.327.734-.558-.045-.876-.167-1.808.353-2.536.456.14.765.578.939 1.004.309-.39.41-.93.289-1.449.02-.41-.446-.316-.67-.484.074-.344.066-.742.43-.94l-1.117.112c-.288.41-.605.81-.762 1.274zm2.297 3.214c.047.084 0 .233.093.252.14-.783.772-1.287 1.116-1.978.167-.23.16-.558.428-.733.362 0 .625.26.977.289.11.083-.056.158-.065.25-.074.634-.316 1.157-.27 1.809h.064c.495-.522.829-1.083 1.192-1.679l.063-.528c.086-.633-.603-1.042-1.05-1.303l.4-.512-.558-.196a2.542 2.542 0 0 0-1.695.849c-.566 1.04-.658 2.215-.695 3.48zm2.501-5.52c.214.064.41-.11.623-.02.856.318 1.747.643 2.391 1.358l.762 1.945.382-1.2-.252-.65c-.214-.465-.8-.428-1.2-.447-.167-.186.01-.4.066-.576.194-.66-.613-.623-.94-.893.02-.399-.465-.262-.735-.297l-.093-.112c-.055-.085-.194-.085-.27-.02-.017-.027-.054-.046-.034-.092l-.206.046c-.288.251-.484.576-.494.959zm.54-2.138a.61.61 0 0 0 .194.315c.419-.111.82-.4 1.302-.224.626.549 1.275 1.125 2.029 1.423l.27-.046c.166.054.352.063.463.251.105.252-.157.399-.24.603.42.309.252.856.51 1.229l.67-.893c-.157-.391.01-1.06-.603-1.097a.586.586 0 0 1-.336-.54c-.397-.362-.892-.52-1.29-.893-.329-.26-.522-.659-.94-.752-.29-.16-.605-.242-.939-.315-.626-.096-.68.649-1.09.939zm.894-1.834l.11.18c.467-.03.884-.233 1.338-.225.307.186.709.176 1.023.336.252.343.522.733.892.965.755.112 1.173.923 1.432 1.516v-.287c.113-.4-.01-.866-.157-1.23-.187-.184-.456-.305-.652-.471-.036-.122-.008-.18.03-.29-.29-.307-.717-.475-1.07-.716-.493-.717-1.44-.52-2.195-.717l-.75.94zm-.017-6.822c.082.29.183.65.239.958.26-.576.774-.838 1.228-1.31-.26-.178-.584-.262-.873-.317v-.019c-.205.204-.52.41-.594.688zm1.689 3.061l.42-.427c.419-.43.762-.923.826-1.47-.297-.176-.687-.055-.974.047-.103.603-.262 1.197-.272 1.85zm.307 1.312c.642.036 1.267.166 1.788-.197l.52-1.673c-.168-.01-.336-.085-.493-.028-.344.76-1.033 1.515-1.815 1.898zm.188-5.934c.419.612 1.118 1.3 1.832 1.496-.083-.782-.751-1.32-1.097-1.99l-.018-.223c-.27-.261-.596-.438-.875-.577-.046.448.076.874.158 1.294zm2.267 6.007c.494.084 1.024 0 1.48-.14.66-.159 1.023-.883 1.246-1.45h-.828l-.89.874c-.356.186-.69.465-1.008.716zm-.099-6.853c.14.726.446 1.385.866 2.009l.11-1.387-.976-.622zm3.047 3.617c.059-.466-.136-1.006-.192-1.478-.279-.187-.67-.168-.959-.353.02.732.595 1.357 1.151 1.83zm-.846 4.724c.587-.186 1.153-.39 1.695-.688.344-.494.863-.939.939-1.515-.43.12-.8-.02-1.2.178-.242.436-.392.93-.857 1.245-.075.314-.418.529-.577.78zm.913 1.144l.696.911c.373.121.84.085 1.163-.128l-.25-.828c-.493.184-1.08.13-1.61.045zm1.162-6.584l.27 1.226c.65-.528.784-1.3.765-2.118-.373.427-.588.687-1.035.892zm1.832 2.165c.01.178.057.345.157.484.725.262.8 1.143 1.47 1.478.437.197.94-.046 1.319-.223-.286-.324-.612-.549-.89-.892-.195-.083-.393-.205-.384-.446l-1.672-.4zm.576 4.392c.316.36.744.549 1.19.65-.074-.102.047 0 .065-.065l-.557-1.228c-.28.01-.57.067-.829.049.021.203.066.407.131.594zm.987-5.73c-.262-.603-.369-1.34-.444-2.008-.277.335-.567.55-.829.892-.121.688.863.855 1.273 1.117zm1.133-.633c.336.439 1.07.29 1.48.16-.197-.335-.826-.532-.936-.893a8.04 8.04 0 0 0-.402-1.85c-.324.79-.718 1.73-.142 2.583zm.586 1.971c.93.68 1.843 1.471 3.143 1.182.093-.064.252-.058.271-.177-.383-.241-.79-.43-1.182-.65l-.446-.65h-.203c-.503.165-1.041.232-1.583.295zm.02 7.543h.066c.557-.446 1.217-.596 1.877-.78.177.066.066.26.226.334.397-.166.883-.13 1.29-.268.494.018.895.026 1.294.24.318.419.91.371 1.321.651l-.065-.652c-.864-1.013-2.213-1.087-3.459-1.067l-.028-.13c-.298 0-.632.062-.913.194-.397.018-.78.213-1.16.334-.18.354-.32.784-.449 1.144zm.747-11.428c.36.474.9.838 1.513.716-.314-.308-.678-.634-.696-1.069.093-.828-.817-.894-1.266-1.322.152.558.133 1.182.449 1.675zm-.095 13.074h.11c.491-.306 1.21-.073 1.693-.398.27-.14.29.232.474.334.456.278.513 1.116 1.153.92.772.4.576 1.34.605 2.027l.717-.445c-.066-.363.14-.8-.094-1.115-.177-.4-.662-.437-.892-.762.279-.475-.353-.7-.485-1.044l.038-.046.986.13c.336.205.456.577.558.922.772.13.957 1.003 1.228 1.561.157-.38.222-.791.38-1.163.01-.307-.399-.307-.602-.446-.057-.475-.272-.92-.69-1.207-.855-.217-1.608-.688-2.547-.688l-.78.24c-.43.104-.886-.026-1.21.27-.485.037-.522.567-.642.91zm.491-3.83l.177.084c.383-.177.763-.381 1.163-.531.623-.176 1.106.531 1.629.083.193-.138.362.067.51.178.226.409.744.38 1.136.492-.195-.53-.438-1.255-1.116-1.34-.269-.12-.586-.11-.846-.269-.717-.79-1.182.652-1.965.3-.278.305-.622.595-.688 1.003z"/>
        <path fill="#FFF" d="M122.871 35.39c.297.251.605.68 1.071.624.577.268.334 1.031.65 1.432l.334-.298-.029-.02.05-.046.017.027c.093-.278-.037-.771-.196-1.097-.213-.15-.462.01-.668-.13-.028-.3-.215-.447-.429-.632-.147-.114-.344.035-.513.025l-.287.115zm1.163-11.336c.307.51.902.827 1.376 1.181.393.176.903.224 1.322.128a8.664 8.664 0 0 1-1.098-1.087c-.13-.187-.16-.42-.334-.585-.437.083-.931.073-1.266.363zm.514-3.328c.427.529 1.087.315 1.692.334v-.065l-.93-.78c-.262.081-.539.314-.762.511zm-17.121-8.772l.537 1.675c-.01-.95.43-1.74.338-2.707l.398-.597-.847.262c-.223.428-.41.855-.426 1.367zm.362-2.9l.734-.429V7.537c-.307.186-.474.503-.715.752l-.019.764z"/>
        <path fill="#FFF" d="M122.875 10.745c-.177.232-.446.289-.67.334.39-.714.577-1.71.27-2.52.203-.074.427-.11.62-.222l-.017-.02.513-.446c.677-.464.417-1.348.667-2.009-.334-.52-.436-1.153-.92-1.59l.029-.019c-.383-.484-1.07-.427-1.592-.669-.689-.232-1.22.242-1.712.558-.214.038-.084.316-.316.307-.13.344-.29.717-.381 1.098-.922-.131-1.916-.028-2.65.493-.392-.29-.865-.345-1.321-.475-.336-.067-.715.055-.957-.13-.353-.399-.43-1.125-1.035-1.226-.213-.076-.258-.309-.258-.512-.402-.067-.755-.252-1.143-.335-.596-.27-1.071.159-1.518.446-.195.083-.419.11-.603.223-.336.521-.65 1.052-.865 1.627.065.476.269.893.512 1.293.214.606.882 1.08 1.45 1.322a5.474 5.474 0 0 0 0 2.947s-.016.014-.016.01c0 .004-.03.028-.03.028-.088 0-.183.017-.257-.028h-.012c.133.888.55 1.667 1.227 2.334.242.084.185.373.287.559.065.084.075.26.049.335a7.3 7.3 0 0 0-3.908.976c-.297.15-.167.559-.196.847.82-.54 1.703-.939 2.678-1.117.418-.026.893-.13 1.293-.02l.047.802c-1.106.577-2.315.912-3.262 1.86.017.288-.04.623.044.864l.847-.688c.819-.623 1.673-1.152 2.613-1.496.252.296.512.615.848.8a6.238 6.238 0 0 1 1.83-.8c.347-.205.895-.02 1.119-.428l.157-.846c-.027-.02-.047-.057-.094-.048-.436-.251-.725-.688-.688-1.198a1.206 1.206 0 0 1-.493.128c-.147-.036-.287-.074-.353-.224-.008-.185-.103-.464.086-.603.603-.373 1.386-.392 2.146-.336.569.076 1.386.047 1.584.717-.029.196-.01.41-.207.54-.204.111-.437-.01-.622-.094-.149.457-.4.968-.91 1.118l.064.538c.063.243.081.642.464.558.883.216 1.665.67 2.436 1.162.262-.259.466-.558.651-.828 1.377.467 2.566 1.5 3.704 2.457l.045-.782c-1.08-.958-2.279-1.636-3.527-2.166.049-.252.104-.494.114-.764a9.15 9.15 0 0 1 4.1 1.255l-.02-.669c-1.283-.688-2.686-1.143-4.22-1.162a.46.46 0 0 1-.065-.288c.743-.121 1.273-.892 1.452-1.563.38-.436.93-.911.8-1.561.016-.055.034-.112.054-.168.049-.163.092-.335.038-.486z"/>
        <path fill="#FFF" d="M124.167 13.136l.761-.243.086-.426c.213-.624-.243-1.09-.466-1.583l-.381 2.252zm1.924 2.946c.363.4.716 1.042 1.358.848-.046-.27-.195-.494-.289-.735-.167-.196-.223-.754-.557-.559-.253-.167-.316-.446-.476-.669-.07.344-.026.771-.036 1.115zm.13 2.726c.14.195.179.447.316.624.253.166.623.139.932.112.278-.067.456.24.715.063-.324-.203-.52-.576-.827-.847-.364-.286-.753-.035-1.136.048zm.493 4.325c.642.38 1.458.753 2.314.622.093-.045.252-.035.27-.148-.53-.187-1.086-.716-1.645-.828-.305-.474-.706.122-1.097.084.008.111.121.195.158.27zm1.933 8.212l.14.297c.14.968.751 1.86.417 2.92.28.197.363.522.54.782h.047c.213-.808.065-1.646-.047-2.456.084-.733-.66-1.161-1.097-1.543zm.159-9.524c.485.373 1.256.409 1.813.224-.353-.195-.742-.41-1.03-.67l-.783.446zm2.297 2.855c-.047.391.213.716.493.913.1-.232.268-.43.287-.689a1.711 1.711 0 0 0-.67-1.032c-.064.26-.14.51-.11.808zm.026 4.242c-.065.436.418.494.624.736.167.203-.113.343-.113.538.353.455.56.975.56 1.58.139-.566.353-1.105.428-1.691-.039-.41-.689-.325-.586-.78.185-.466-.039-.922-.16-1.342-.036-.063-.12-.194-.193-.156-.169.38-.586.65-.56 1.115zm1.275-2.214l.483.94c.214-.029.353-.233.52-.383.13-.39-.213-.64-.316-.959-.083-.223 0-.52-.159-.714-.12-.076-.258-.197-.397-.16l-.13 1.276zm.622-2.475c.382.233.818.568 1.024.978.324.948.845 1.802 1.227 2.724.14.642.252 1.216.427 1.846.065.169.029.493.289.466.074-.708.214-1.386.224-2.122-.233-.307-.538-.436-.83-.622v-.066c.04-.156.17-.344.366-.315.081-.093.333-.185.223-.352-.485-.484-.456-1.316-1.228-1.466-.27-.112-.334-.392-.363-.65-.364-.31-.901-.41-1.36-.42zm.449 5.042c.472.436.307 1.07.268 1.656-.073.353.373.147.513.334.29.428.12 1.052.02 1.517.25-.383.54-.718.733-1.137-.008-.157.196-.232.187-.428.084-.269-.23-.148-.363-.175-.11-.029-.232-.103-.193-.253.24-.465.017-1.022-.076-1.486-.11-.383.047-.895-.13-1.229-.3.41-1.185.503-.96 1.2zm.863-6.603c.83.839 1.432 1.679 2.326 2.489.02-.363-.029-.698-.045-1.052-.132-.251-.373-.436-.58-.624-.658-.063-1.004-.953-1.7-.813zm2.166 4.431c.02.086.056.16.095.243.363.595.707 1.21.96 1.85-.076-.688.388-1.543-.226-2.074-.084-.223-.361-.149-.54-.13l-.29.111zm2.233 6.794c.262.121.596-.092.847-.241.232-.056.429.075.605.196.073.147 0 .288.029.428.557.157 1.106.362 1.599.687l.157-.158c.036-.4-.278-.688-.577-.912-.196-.11-.485-.045-.623-.223.094-.149.094-.372.084-.54-.307 0-.503-.094-.754-.24-.157-.047-.299-.179-.429 0-.463.314-.492.78-.938 1.003zm.652-11.703c.232-.066.476-.131.67-.299.625-.566 1.525-.185 2.252-.194a5.008 5.008 0 0 0-.513-.717c-.26-.103-.503-.224-.8-.224-.633-.372-1.06.252-1.546.559-.13.251-.193.624-.063.875zm.017 1.915c0-.028 0-.057.029-.063.083.073-.01.251.13.287.24-.121.466-.287.686-.446.626 0 .998-.605 1.61-.605 1.024.187 2.038.392 2.93.892-.066-.602-.586-1.153-1.116-1.422-.3-.103-.532.055-.745.223-.621.393-.297-.566-.734-.586-.568.177-1.153.373-1.786.316-.372.14-.633.483-1.05.446-.018.308-.063.68.046.958zm.429 2.074c.196.206.52.168.8.206l.809-.318c.01-.146-.243-.185-.185-.353.222-.251.528-.073.807-.176.39-.056.79-.445 1.182-.158-.012.047.018.112-.02.158-.12.288.083.466.307.577.456.084.883.503 1.34.315-.047-.382-.15-.733-.241-1.096-.383-.066-.652-.382-1.006-.513-.157.149-.362.261-.557.241-.719-.168-1.574-.614-2.298-.158-.26.317-.725.224-1.08.363.014.308.061.614.142.912zm.307 5.529c-.055.158-.214.418.076.493.594.017 1.356-.29 1.822.176.157.12.084.372.074.531l.78.65c.075-.392.216-.745.226-1.163-.066-.299-.214-.586-.475-.78-.512 0-.808-.6-1.36-.525-.287-.064-.538.19-.827.19-.13.13-.206.289-.316.428zm.223-4.386c.12.252.26.662.493.688.55-.24 1.35-.39 1.962-.128.204.035.204.268.16.417.313.186.696.335 1.032.539l-.093-.558c-.02-.605-.78-.66-.83-1.256-.622-.204-1.321-.27-1.979-.111-.216.194-.522.169-.782.223-.017.075.027.122.037.186zm.159 3.014c.362-.103.594-.5.986-.54.594.01 1.124.253 1.496.766.224.147.177.529.466.529-.085-.456.064-.874.045-1.341-.389-.65-1.357-.147-1.72-.911l-.686.047c-.495.122-.363.698-.427 1.09-.059.12-.17.212-.16.36zm3.414 4.069c.288.576.92 1.013.984 1.673.15-.176.253-.38.353-.576-.01-.185-.224-.185-.307-.335-.086-.241.047-.455.083-.669-.12-.345-.409-.67-.735-.875l-.378.782zm1.143-1.47l.668.913c.29-.456.29-1.127.177-1.675-.064-.103-.185-.27-.352-.195-.252.26-.289.66-.493.957zm-2.727-25.457c.243.121.476.233.766.25.193-.102.446-.176.686-.11.346.223.763-.047 1.163-.029-.353-.333-.753-.54-1.163-.734-.522.11-.939.483-1.452.623zm3.638.873c.492.046.848.484 1.181.847.418.064.734.363.984.67L148 9.374c-.11-.494-.42-.875-.735-1.266-.445.029-.883.067-1.273.242z"/>
        <path fill="#DB812E" d="M111.284 4.272l.272.028c.724.363 1.894.549 1.963 1.599-.736.29-1.444.679-2.029 1.274-.446-.455-1.348-.205-1.498-1.004.14-.754.41-1.702 1.292-1.897zm.7 4.717c.847-.076 1.666.044 2.54-.03.213.093.436.278.537.493-.027 1.006-.334 1.964-.379 2.996-.382.157-.755.475-.848.892-.344.103-.652.307-.986.465-.147-.315-.123-.79.14-1.05.363-.512 1.303-.392 1.228-1.201.243-.39.01-.892.018-1.3-.093-.31-.187.101-.336.092-.295.065-.601.084-.863-.065-.196-.205-.437-.373-.493-.65-.26-.132-.567-.335-.697-.606l.14-.036zm1.023 6.062c.397.057.817-.121 1.162.075-.073.13-.27.186-.429.224l-.623.287c-.233-.055-.102-.427-.11-.586zm1.627-7.766c.399-.13.828-.398 1.256-.269-.307.308-.55.707-.78 1.078l-1.275-.028c.139-.335.491-.613.799-.78zm3.73-.306c.528-.092.501.596.984.621.086.112.206.214.16.382-.28.111-.69.058-1.005.13-.419-.231-.149-.957-.809-.91-.038-.057-.112-.168-.02-.205.204-.074.477-.047.69-.018zm-.336 2.49c.233-.324.587-.352.923-.417l2.407.045c.103.094-.092.178-.092.29-.149.14-.363.177-.493.305-.316.01-.289.382-.513.54-.343.346-.846.187-1.246.132-.14-.104-.297-.242-.363-.4l-.112.11c.14.522.104 1.099.206 1.629l.576.381c.01.855 1.015.622 1.452 1.096-.103.309-.307.568-.53.828a3.175 3.175 0 0 0-1.181-.716c-.039-.501-.586-.8-.893-1.05-.083-.912-.1-1.842-.25-2.726l.11-.046zm.874 5.74h1.118l-.14.586-1.118-.474c-.027-.093.075-.121.14-.111zm2.01-10.536l.827-.262c.477.23.931.503 1.357.818.345.632.289 1.489.132 2.195-.253.278-.8 0-1.006.446h-.037c-.307-.873-1.181-1.656-1.99-2.054.131-.447.271-.884.717-1.143z"/>
    </g>
</svg>
