<?xml version="1.0" encoding="UTF-8"?>
<svg width="71px" height="82px" viewBox="0 0 71 82" version="1.1" xmlns="http://www.w3.org/2000/svg" xmlns:xlink="http://www.w3.org/1999/xlink">
    <!-- Generator: Sketch 53.2 (72643) - https://sketchapp.com -->
    <title>logos/weaviate/primary/color copy 23</title>
    <desc>Created with Sketch.</desc>
    <defs>
        <path d="M29.677272,0.653865513 C30.289272,3.63485143 29.6665351,6.44344298 28.0023246,8.49062608 C26.3381141,10.5378092 23.7791667,11.726612 20.7370614,11.870274 L18.8939035,11.8092176 C12.809693,11.2776683 11.8362193,5.57428805 11.7360088,4.85597819 C11.7305362,4.80931234 11.75919,4.76542355 11.8040088,4.75182326 C13.989783,4.14486207 16.3311521,4.53931312 18.1995877,5.82928805 C18.633983,6.14685371 19.0146364,6.5324855 19.3269562,6.97140072 C19.3425695,6.99496457 19.3705141,7.00713371 19.3983287,7.00248162 C19.4261433,6.99782953 19.4486444,6.97722318 19.4557983,6.94985143 C19.8586375,5.2351203 20.7256011,3.66536235 21.9610614,2.41372467 C23.7505351,0.696964104 26.1305351,-0.136275332 28.9328509,0.0181612873 L29.4768509,0.0433021324 C29.5173377,0.0526469918 29.5499548,0.0826511915 29.5627456,0.122316217 L29.677272,0.653865513 Z M17.6842193,8.95393594 L17.6842193,8.94675284 C17.6946724,8.93567275 17.6946724,8.91832588 17.6842193,8.90724579 C17.6842193,8.90724579 17.4909562,8.73844298 17.1974825,8.49780917 L16.1237983,7.61428805 L15.0250614,6.75590777 C14.7244298,6.52245706 14.5204298,6.37520354 14.5204298,6.37520354 C14.5123018,6.37246595 14.5035053,6.37246595 14.4953772,6.37520354 C14.4876527,6.37688583 14.4809649,6.38169786 14.4768982,6.38849961 C14.4728314,6.39530136 14.4717476,6.40348764 14.4739035,6.41111903 L14.4739035,6.43266833 C14.4739035,6.43266833 14.4953772,6.50809086 14.5419035,6.62661199 C14.6076381,6.78213023 14.6854203,6.93223794 14.7745351,7.07555565 C14.8282193,7.16175284 14.8854825,7.25513312 14.9534825,7.34492185 C15.0214825,7.43471058 15.0930614,7.52449932 15.1753772,7.61428805 C15.2554371,7.70723425 15.3402531,7.79594527 15.4294825,7.8800627 C15.5225351,7.96985143 15.6191667,8.04886551 15.7157983,8.13147115 C16.0848277,8.42995109 16.5025793,8.66204243 16.9505351,8.81745706 C17.1096136,8.86820029 17.2723366,8.90662287 17.437272,8.93238664 C17.5625351,8.95393594 17.641272,8.95393594 17.641272,8.95393594 L17.6627456,8.95393594 C17.6693896,8.95778535 17.6775753,8.95778535 17.6842193,8.95393594 Z M27.2471667,2.55738664 L27.229272,2.52147115 C27.2377682,2.50836998 27.2377682,2.49147372 27.229272,2.47837255 C27.2129691,2.46373949 27.1883117,2.46373949 27.1720088,2.47837255 L26.9465351,2.71900636 C26.7997983,2.87344298 26.5886404,3.08893594 26.345272,3.35111903 L24.5557983,5.29773875 L22.7877983,7.26590777 C22.5480088,7.53527396 22.3511667,7.76513312 22.2151667,7.92316129 L21.9968509,8.17456974 C21.9878983,8.18620647 21.9878983,8.20244005 21.9968509,8.21407678 C22.0001175,8.22411805 22.0072549,8.23242846 22.0166694,8.23715229 C22.0260839,8.24187612 22.0369914,8.24261993 22.0469562,8.23921763 L22.0684298,8.23921763 L22.1543246,8.20330213 C22.2115877,8.17816129 22.2939035,8.14224579 22.397693,8.0919641 C22.5014825,8.04168241 22.6231667,7.98421763 22.7555877,7.90520354 C22.8880088,7.82618946 23.0311667,7.73280917 23.1886404,7.63224579 C23.3461141,7.53168241 23.5250614,7.41675284 23.6789562,7.29104861 C23.8328509,7.16534439 24.0368509,7.02886551 24.1907456,6.87802044 C24.3446404,6.72717537 24.5307456,6.55837255 24.7025351,6.40393594 C24.8743246,6.24949932 25.0425351,6.07710495 25.2035877,5.89034439 C25.3646404,5.70358382 25.5185351,5.5419641 25.6724298,5.34442889 C25.8263246,5.14689368 25.9659035,4.97449932 26.0947456,4.78773875 C26.2235877,4.60097819 26.3381141,4.40344298 26.4526404,4.24182326 C26.5671667,4.08020354 26.6602193,3.88266833 26.749693,3.72104861 C26.8391667,3.55942889 26.9143246,3.40140072 26.9751667,3.2613303 C27.0335535,3.1443034 27.0861096,3.02443729 27.1326404,2.90217537 C27.165963,2.82006118 27.1946402,2.73612485 27.2185351,2.65076692 L27.2471667,2.55738664 Z M33.2419035,17.1749923 C34.0543246,17.3402035 34.1581141,18.5290064 33.3850614,18.8881613 L22.8593772,23.8732317 C21.2272295,24.6603538 19.3761145,24.864364 17.6126404,24.4514711 L10.8126404,22.8532317 L10.3867456,22.7526683 L10.2185351,22.7131613 C7.76337721,22.2390768 6.03832458,23.2770345 4.31327195,24.8680909 C3.97707643,25.1828513 3.50658237,25.308588 3.05892014,25.203309 C2.61125791,25.09803 2.24542107,24.775609 2.08358774,24.3437247 L0.090114056,18.9923162 C-0.110816245,18.4623374 0.0310519256,17.8629694 0.448008793,17.480274 L2.90674563,15.2714711 C5.28886861,13.1133348 8.55689966,12.2306903 11.6966404,12.8974571 C11.8040088,12.9190064 11.9113772,12.9441472 12.0187456,12.9728796 L21.989693,14.8692176 C22.2294825,14.9123162 22.469272,14.9554148 22.7054825,15.0056965 C22.9249813,15.0469016 23.1334529,15.1337647 23.3174825,15.2606965 C23.7372473,15.756681 23.9038398,16.42009 23.7684298,17.0564711 C23.6688784,17.584748 23.3669261,18.0528103 22.9273772,18.3602035 C22.4935861,18.6837148 21.9419834,18.8041075 21.4134825,18.6906261 L13.833272,17.0564711 C13.7103027,17.0231108 13.5789341,17.0457737 13.4741259,17.118429 C13.3693178,17.1910843 13.3017018,17.3063618 13.289272,17.4335838 C13.2343297,17.6833535 13.3836777,17.9326175 13.629272,18.0010486 L21.2130614,19.6423866 L21.245272,19.6423866 C22.6768509,19.9368937 23.621693,19.4376683 24.4985351,19.1647106 L30.4288509,17.009781 C30.9006392,16.8420111 31.408734,16.8047933 31.8997983,16.9020345 L33.2419035,17.1749923 Z" id="path-1"></path>
    </defs>
    <g id="SeMI-Website" stroke="none" stroke-width="1" fill="none" fill-rule="evenodd">
        <g id="Styleguide-–-Solution-Branding" transform="translate(-409.000000, -5765.000000)">
            <g id="icons/PointSolutions/SME" transform="translate(409.000000, 5765.000000)">
                <g id="Group-5-Copy-5">
                    <g id="Group-3">
                        <polygon id="Path" fill="#0070E6" points="4.98245614 58.0838004 4.98245614 22.6737753 35.5 4.96969697 66.0175439 22.6737753 66.0175439 58.0838004 35.3888598 76.1587424"></polygon>
                        <path d="M35.5,0 L0,20.4991337 L0,61.5001733 L35.1535707,81.8004141 L35.5,82 L71,61.5001733 L71,20.4991337 L35.8457365,0.199585886 L35.5,0 Z M4.9703628,58.1392424 L4.9703628,22.8202273 L35.337792,5.16165152 L65.7046045,22.8202273 L65.7046045,58.1392424 L35.337792,75.7978182 L4.9703628,58.1392424 Z" id="Fill-24" fill="#ABABAB"></path>
                    </g>
                    <g id="Group-32-Copy">
                        <g id="Group-23" transform="translate(3.736842, 20.701894)" fill="#04152A">
                            <polygon id="Fill-9" points="0.808881196 2.3337697 0.279084057 2.01570909 0.436974706 1.74920909 0.966771845 2.06664848"></polygon>
                            <polygon id="Fill-13" points="31.6520177 20.8609864 31.0432752 20.4957136 31.2011659 20.2285924 31.6520177 20.4994409 32.1028695 20.2285924 32.2607601 20.4957136"></polygon>
                            <polygon id="Fill-17" points="62.4951542 2.3337697 62.3372635 2.06664848 62.8670607 1.74920909 63.0243345 2.01570909"></polygon>
                            <polygon id="Fill-19" points="31.4979509 56.0780606 31.8063311 56.0780606 31.8063311 55.4568485 31.4979509 55.4568485"></polygon>
                            <polygon id="Fill-22" points="31.4979509 22.8786212 31.8063311 22.8786212 31.8063311 22.2574091 31.4979509 22.2574091"></polygon>
                        </g>
                        <path d="M35.5,0 L0,20.4991337 L0,61.5001733 L35.1535707,81.8004141 L35.5,82 L71,61.5001733 L71,20.4991337 L35.8457365,0.199585886 L35.5,0 Z M4.9703628,58.1392424 L4.9703628,22.8202273 L35.337792,5.16165152 L65.7046045,22.8202273 L65.7046045,58.1392424 L35.337792,75.7978182 L4.9703628,58.1392424 Z" id="Fill-24" fill="#EAE7E7"></path>
                        <path d="M35.3313515,40.8479847 L35.5061321,41.1520153 L33.8850904,42.0783162 L33.7103098,41.7742855 L35.3313515,40.8479847 Z M32.089268,42.7005863 L32.2640486,43.004617 L30.6430068,43.9309178 L30.4682262,43.6268871 L32.089268,42.7005863 Z M28.8471845,44.5531879 L29.0219651,44.8572186 L27.4009233,45.7835194 L27.2261427,45.4794887 L28.8471845,44.5531879 Z M25.6051009,46.4057895 L25.7798815,46.7098202 L24.1588398,47.636121 L23.9840592,47.3320904 L25.6051009,46.4057895 Z M22.3630174,48.2583912 L22.537798,48.5624219 L20.9167563,49.4887227 L20.7419756,49.184692 L22.3630174,48.2583912 Z M19.1209339,50.1109928 L19.2957145,50.4150235 L17.6746727,51.3413243 L17.4998921,51.0372936 L19.1209339,50.1109928 Z M15.8788504,51.9635944 L16.053631,52.2676251 L14.4325892,53.1939259 L14.2578086,52.8898952 L15.8788504,51.9635944 Z M12.6367668,53.8161961 L12.8115474,54.1202267 L11.1905057,55.0465276 L11.0157251,54.7424969 L12.6367668,53.8161961 Z M9.3946833,55.6687977 L9.5694639,55.9728284 L7.94842214,56.8991292 L7.77364153,56.5950985 L9.3946833,55.6687977 Z M6.15259977,57.5213993 L6.32738037,57.82543 L5.0577531,58.5509244 L4.8829725,58.2468937 L6.15259977,57.5213993 Z" id="Path-2" fill="#EAE7E7" fill-rule="nonzero"></path>
                        <path d="M65.7904355,57.9863466 L65.6187735,58.2921383 L63.9883421,57.3823655 L64.1600041,57.0765738 L65.7904355,57.9863466 Z M62.5295727,56.166801 L62.3579107,56.4725928 L60.7274793,55.56282 L60.8991412,55.2570283 L62.5295727,56.166801 Z M59.2687098,54.3472555 L59.0970478,54.6530472 L57.4666164,53.7432745 L57.6382784,53.4374827 L59.2687098,54.3472555 Z M56.007847,52.52771 L55.836185,52.8335017 L54.2057536,51.9237289 L54.3774156,51.6179372 L56.007847,52.52771 Z M52.7469842,50.7081644 L52.5753222,51.0139562 L50.9448908,50.1041834 L51.1165527,49.7983917 L52.7469842,50.7081644 Z M49.4861213,48.8886189 L49.3144593,49.1944107 L47.6840279,48.2846379 L47.8556899,47.9788461 L49.4861213,48.8886189 Z M46.2252585,47.0690734 L46.0535965,47.3748651 L44.4231651,46.4650924 L44.5948271,46.1593006 L46.2252585,47.0690734 Z M42.9643957,45.2495278 L42.7927337,45.5553196 L41.1623023,44.6455468 L41.3339643,44.3397551 L42.9643957,45.2495278 Z M39.7035328,43.4299823 L39.5318709,43.7357741 L37.9014394,42.8260013 L38.0731014,42.5202096 L39.7035328,43.4299823 Z M36.44267,41.6104368 L36.271008,41.9162285 L35.9117713,41.7157762 L36.0834332,41.4099844 L36.44267,41.6104368 Z" id="Path-4" fill="#EAE7E7" fill-rule="nonzero"></path>
                        <path d="M35.1617429,5.16245326 L35.6617377,5.16084977 L35.6738997,7.02362837 L35.173905,7.02523186 L35.1617429,5.16245326 Z M35.186067,8.88801046 L35.6860618,8.88640697 L35.6982238,10.7491856 L35.198229,10.7507891 L35.186067,8.88801046 Z M35.2103911,12.6135677 L35.7103859,12.6119642 L35.7225479,14.4747428 L35.2225531,14.4763463 L35.2103911,12.6135677 Z M35.2347152,16.3391248 L35.7347099,16.3375214 L35.746872,18.2003 L35.2468772,18.2019034 L35.2347152,16.3391248 Z M35.2590393,20.064682 L35.759034,20.0630786 L35.7711961,21.9258572 L35.2712013,21.9274606 L35.2590393,20.064682 Z M35.2833633,23.7902392 L35.7833581,23.7886357 L35.7955202,25.6514143 L35.2955254,25.6530178 L35.2833633,23.7902392 Z M35.3076874,27.5157964 L35.8076822,27.5141929 L35.8198442,29.3769715 L35.3198495,29.378575 L35.3076874,27.5157964 Z M35.3320115,31.2413536 L35.8320063,31.2397501 L35.8441683,33.1025287 L35.3441736,33.1041322 L35.3320115,31.2413536 Z M35.3563356,34.9669108 L35.8563304,34.9653073 L35.8684924,36.8280859 L35.3684977,36.8296894 L35.3563356,34.9669108 Z M35.3806597,38.692468 L35.8806545,38.6908645 L35.8928165,40.5536431 L35.3928217,40.5552466 L35.3806597,38.692468 Z" id="Path-3" fill="#EAE7E7" fill-rule="nonzero"></path>
                        <g id="Group-31" transform="translate(19.929825, 25.469697)"></g>
                    </g>
                    <g id="icons/industries/SME" transform="translate(18.980198, 24.529915)">
                        <g id="background/black" transform="translate(0.000000, 2.833333)">
                            <mask id="mask-2" fill="white">
                                <use xlink:href="#path-1"></use>
                            </mask>
                            <g id="Mask" fill-rule="nonzero"></g>
                            <g id="background/white" mask="url(#mask-2)" fill="#FFFFFF">
                                <g transform="translate(0.000000, -2.833333)" id="Combined-Shape">
                                    <polygon points="0 0 34 0 34 34 0 34"></polygon>
                                </g>
                            </g>
                        </g>
                    </g>
                </g>
            </g>
        </g>
    </g>
</svg>