<?xml version="1.0" encoding="UTF-8"?>
<svg width="189px" height="82px" viewBox="0 0 189 82" version="1.1" xmlns="http://www.w3.org/2000/svg" xmlns:xlink="http://www.w3.org/1999/xlink">
    <!-- Generator: Sketch 53.2 (72643) - https://sketchapp.com -->
    <title>logos/solution-engineering/horizontal/black</title>
    <desc>Created with Sketch.</desc>
    <g id="logos/solution-engineering/horizontal/black" stroke="none" stroke-width="1" fill="none" fill-rule="evenodd">
        <g id="solution-engineering" transform="translate(68.000000, 19.180913)" fill="#000000">
            <path d="M0.377562992,13.0362725 L1.6268937,12.28546 C2.50669685,13.90701 3.52315354,14.717785 4.67575197,14.717785 C5.1691378,14.717785 5.63232677,14.602985 6.0653189,14.37236 C6.49882283,14.1422475 6.82842913,13.8337225 7.05516142,13.446785 C7.28138189,13.0598475 7.39500394,12.649335 7.39500394,12.2152475 C7.39500394,11.72171 7.22866535,11.23791 6.89496457,10.7638475 C6.43535827,10.1098975 5.59547638,9.3226975 4.37583071,8.401735 C3.15004331,7.47411 2.38693307,6.80376 2.08701181,6.38966 C1.56701181,5.695735 1.30701181,4.9449225 1.30701181,4.137735 C1.30701181,3.49711 1.46055512,2.91286 1.76712992,2.38601 C2.07319291,1.8586475 2.50516142,1.4435225 3.0615,1.13961 C3.61783858,0.8356975 4.22279921,0.6839975 4.87587008,0.6839975 C5.56937402,0.6839975 6.21681496,0.855685 6.82024016,1.1995725 C7.42366535,1.54346 8.06138189,2.175885 8.73441339,3.096335 L7.53472835,4.00756 C6.98146063,3.2731475 6.51008268,2.78986 6.12059449,2.55616 C5.73059449,2.32246 5.30579134,2.20561 4.84567323,2.20561 C4.25248425,2.20561 3.76779921,2.38601 3.39161811,2.7462975 C3.0149252,3.106585 2.82657874,3.55041 2.82657874,4.0777725 C2.82657874,4.398085 2.89311417,4.7081475 3.02669685,5.0084725 C3.16027953,5.3087975 3.40287795,5.6357725 3.75653937,5.9893975 C3.94949213,6.1759475 4.58260236,6.66641 5.65587008,7.460785 C6.92874409,8.401735 7.80138189,9.23916 8.27480709,9.97306 C8.74772047,10.7074725 8.98417717,11.44496 8.98417717,12.1855225 C8.98417717,13.25306 8.57933465,14.180685 7.76964961,14.9683975 C6.95996457,15.7555975 5.97575197,16.1491975 4.81598819,16.1491975 C3.92287795,16.1491975 3.11319291,15.9103725 2.38693307,15.4337475 C1.66067323,14.95661 0.990712598,14.1576225 0.377562992,13.0362725" id="Fill-1"></path>
            <path d="M17.1088701,5.9793525 C15.9455236,5.9793525 14.9449331,6.4098525 14.1096575,7.2708525 C13.2733583,8.13134 12.8552087,9.1722275 12.8552087,10.393515 C12.8552087,11.180715 13.0461142,11.9151275 13.4274134,12.5957275 C13.8087126,13.2763275 14.3235945,13.8021525 14.9720591,14.1721775 C15.6210354,14.542715 16.3329646,14.7277275 17.1088701,14.7277275 C17.8847756,14.7277275 18.5967047,14.542715 19.2456811,14.1721775 C19.8941457,13.8021525 20.4090276,13.2763275 20.7903268,12.5957275 C21.1711142,11.9151275 21.3625315,11.180715 21.3625315,10.393515 C21.3625315,9.1722275 20.9423346,8.13134 20.1034764,7.2708525 C19.2641063,6.4098525 18.2660748,5.9793525 17.1088701,5.9793525 M17.1139882,4.6079025 C18.7891457,4.6079025 20.1782008,5.215215 21.2796181,6.42984 C22.2807205,7.5373525 22.7817835,8.84884 22.7817835,10.36379 C22.7817835,11.88489 22.2525709,13.2148275 21.1941457,14.3525775 C20.1362323,15.4903275 18.7763504,16.0592025 17.1139882,16.0592025 C15.4449724,16.0592025 14.0809961,15.4903275 13.0235945,14.3525775 C11.9646575,13.2148275 11.4359567,11.88489 11.4359567,10.36379 C11.4359567,8.8555025 11.9370197,7.5476025 12.938122,6.4395775 C14.0395394,5.2188025 15.4316654,4.6079025 17.1139882,4.6079025" id="Fill-3"></path>
            <polygon id="Fill-5" points="25.2635039 15.7787625 26.6627953 15.7787625 26.6627953 0.6841 25.2635039 0.6841"></polygon>
            <path d="M29.4938268,4.88829125 L30.8931181,4.88829125 L30.8931181,9.97331625 C30.8931181,11.2145913 30.9596535,12.0689288 31.093748,12.5358163 C31.2938661,13.2030913 31.676189,13.7304538 32.2396929,14.1173913 C32.8037087,14.5043288 33.4762283,14.6980538 34.257252,14.6980538 C35.0377638,14.6980538 35.7005591,14.5089413 36.2441024,14.1322538 C36.7881575,13.7555663 37.163315,13.2599788 37.3705984,12.6460038 C37.5108346,12.2252413 37.5809528,11.3345163 37.5809528,9.97331625 L37.5809528,4.88829125 L39.0104409,4.88829125 L39.0104409,10.2336663 C39.0104409,11.7347788 38.8354016,12.8658663 38.4853228,13.6269288 C38.1357559,14.3874788 37.6091024,14.9830038 36.905874,15.4135038 C36.2026457,15.8440038 35.3218189,16.0592538 34.2618583,16.0592538 C33.2024094,16.0592538 32.318,15.8440038 31.6081181,15.4135038 C30.8982362,14.9830038 30.3685118,14.3823538 30.0184331,13.6115538 C29.6688661,12.8412663 29.4938268,11.6814788 29.4938268,10.1332163 L29.4938268,4.88829125 Z" id="Fill-7"></path>
            <polygon id="Fill-8" points="43.4411378 0.84435875 44.8404291 0.84435875 44.8404291 4.88849625 47.0596417 4.88849625 47.0596417 6.09953375 44.8404291 6.09953375 44.8404291 15.7791212 43.4411378 15.7791212 43.4411378 6.09953375 41.5320827 6.09953375 41.5320827 4.88849625 43.4411378 4.88849625"></polygon>
            <path d="M49.0514567,15.7787625 L50.450748,15.7787625 L50.450748,4.8881375 L49.0514567,4.8881375 L49.0514567,15.7787625 Z M49.7464961,0.4037625 C50.0648425,0.4037625 50.337126,0.5175375 50.5623228,0.7440625 C50.7880315,0.9711 50.9011417,1.244775 50.9011417,1.5650875 C50.9011417,1.8787375 50.7880315,2.1493375 50.5623228,2.3758625 C50.337126,2.6023875 50.0648425,2.7161625 49.7464961,2.7161625 C49.4342913,2.7161625 49.1655906,2.6023875 48.9398819,2.3758625 C48.714685,2.1493375 48.6015748,1.8787375 48.6015748,1.5650875 C48.6015748,1.244775 48.714685,0.9711 48.9398819,0.7440625 C49.1655906,0.5175375 49.4342913,0.4037625 49.7464961,0.4037625 L49.7464961,0.4037625 Z" id="Fill-9"></path>
            <path d="M58.6055354,5.9793525 C57.442189,5.9793525 56.4415984,6.4098525 55.6063228,7.2708525 C54.7700236,8.13134 54.351874,9.1722275 54.351874,10.393515 C54.351874,11.180715 54.5427795,11.9151275 54.9240787,12.5957275 C55.305378,13.2763275 55.8202598,13.8021525 56.4687244,14.1721775 C57.1177008,14.542715 57.8296299,14.7277275 58.6055354,14.7277275 C59.3814409,14.7277275 60.0933701,14.542715 60.7423465,14.1721775 C61.390811,13.8021525 61.9056929,13.2763275 62.2869921,12.5957275 C62.6677795,11.9151275 62.8591969,11.180715 62.8591969,10.393515 C62.8591969,9.1722275 62.439,8.13134 61.6001417,7.2708525 C60.7607717,6.4098525 59.7627402,5.9793525 58.6055354,5.9793525 M58.6106535,4.6079025 C60.285811,4.6079025 61.6748661,5.215215 62.7762835,6.42984 C63.7773858,7.5373525 64.2784488,8.84884 64.2784488,10.36379 C64.2784488,11.88489 63.7492362,13.2148275 62.690811,14.3525775 C61.6328976,15.4903275 60.2730157,16.0592025 58.6106535,16.0592025 C56.9416378,16.0592025 55.5776614,15.4903275 54.5202598,14.3525775 C53.4613228,13.2148275 52.932622,11.88489 52.932622,10.36379 C52.932622,8.8555025 53.433685,7.5476025 54.4347874,6.4395775 C55.5362047,5.2188025 56.9283307,4.6079025 58.6106535,4.6079025" id="Fill-10"></path>
            <path d="M66.9699606,4.88829125 L68.369252,4.88829125 L68.369252,6.84040375 C68.9291732,6.09317875 69.5489764,5.53404125 70.2286614,5.16350375 C70.9083465,4.79296625 71.6484252,4.60795375 72.447874,4.60795375 C73.2611417,4.60795375 73.9822835,4.81449125 74.6123228,5.22859125 C75.2418504,5.64269125 75.7065748,6.19977875 76.0064961,6.90036625 C76.3064173,7.60095375 76.456378,8.69206625 76.456378,10.1737038 L76.456378,15.7789163 L75.0570866,15.7789163 L75.0570866,10.5837038 C75.0570866,9.32910375 75.0048819,8.49167875 74.9009843,8.07142875 C74.739252,7.35085375 74.4280709,6.80862875 73.9684646,6.44475375 C73.5083465,6.08087875 72.9085039,5.89945375 72.1684252,5.89945375 C71.3224016,5.89945375 70.5633858,6.17979125 69.893937,6.73995375 C69.2239764,7.30062875 68.7827953,7.99506625 68.5693701,8.82224125 C68.4357874,9.36241625 68.369252,10.3500038 68.369252,11.7850038 L68.369252,15.7789163 L66.9699606,15.7789163 L66.9699606,4.88829125 Z" id="Fill-11"></path>
            <polygon id="Fill-12" points="1.90700787 21.5545862 10.3339764 21.5545862 10.3339764 22.9962487 3.37641732 22.9962487 3.37641732 27.6102863 10.2740945 27.6102863 10.2740945 29.0519488 3.37641732 29.0519488 3.37641732 34.8375613 10.2740945 34.8375613 10.2740945 36.2787113 1.90700787 36.2787113"></polygon>
            <path d="M12.7454764,25.3882913 L14.1447677,25.3882913 L14.1447677,27.3404038 C14.704689,26.5931788 15.3244921,26.0340413 16.0041772,25.6635038 C16.6838622,25.2929663 17.4239409,25.1079538 18.2233898,25.1079538 C19.0366575,25.1079538 19.7577992,25.3144913 20.3878386,25.7285913 C21.0173661,26.1426913 21.4820906,26.6997788 21.7820118,27.4003663 C22.0819331,28.1009538 22.2318937,29.1920663 22.2318937,30.6737038 L22.2318937,36.2789163 L20.8326024,36.2789163 L20.8326024,31.0837038 C20.8326024,29.8291038 20.7803976,28.9916788 20.6765,28.5714288 C20.5147677,27.8508538 20.2035866,27.3086288 19.7439803,26.9447538 C19.2838622,26.5808788 18.6840197,26.3994538 17.9439409,26.3994538 C17.0979173,26.3994538 16.3389016,26.6797913 15.6694528,27.2399538 C14.9994921,27.8006288 14.558311,28.4950663 14.3448858,29.3222413 C14.2113031,29.8624163 14.1447677,30.8500038 14.1447677,32.2850038 L14.1447677,36.2789163 L12.7454764,36.2789163 L12.7454764,25.3882913 Z" id="Fill-13"></path>
            <path d="M30.5814252,26.459365 C29.7881181,26.459365 29.0521339,26.65104 28.3724488,27.0349025 C27.692252,27.418765 27.1589449,27.9492025 26.7730394,28.6267275 C26.386622,29.30374 26.1931575,30.0361025 26.1931575,30.823815 C26.1931575,32.0184525 26.5928819,33.0055275 27.3928425,33.7865775 C28.1922913,34.567115 29.2281969,34.95764 30.5015827,34.95764 C31.787252,34.95764 32.8221339,34.5707025 33.6052047,33.796315 C34.3882756,33.02244 34.779811,32.004615 34.779811,30.7433525 C34.779811,29.92284 34.6001654,29.1904775 34.2398504,28.546265 C33.8800472,27.9020525 33.3702835,27.3936525 32.7105591,27.02004 C32.0508346,26.645915 31.3409528,26.459365 30.5814252,26.459365 L30.5814252,26.459365 Z M34.7096929,25.38824 L36.1094961,25.38824 L36.1094961,34.066915 C36.1094961,35.5946775 35.9759134,36.7129525 35.7097717,37.4202025 C35.343315,38.421115 34.706622,39.191915 33.8002047,39.73209 C32.8942992,40.2727775 31.8046535,40.542865 30.5312677,40.542865 C29.5982362,40.542865 28.7604016,40.4111525 28.017252,40.1467025 C27.2741024,39.88174 26.6691417,39.5276025 26.2028819,39.0827525 C25.736622,38.63739 25.3067008,37.986515 24.9136299,37.129615 L26.4331969,37.129615 C26.8467402,37.8507025 27.3805591,38.3847275 28.0341417,38.7311775 C28.6882362,39.07814 29.4989449,39.2518775 30.4662677,39.2518775 C31.4202835,39.2518775 32.2263858,39.0735275 32.8835512,38.718365 C33.5407165,38.3621775 34.0090236,37.9152775 34.2894961,37.37664 C34.5699685,36.83749 34.7096929,35.96829 34.7096929,34.7675025 L34.7096929,34.2068275 C34.1830394,34.8741025 33.5391811,35.3866025 32.7786299,35.7433025 C32.0180787,36.100515 31.2104409,36.278865 30.357252,36.278865 C29.3561496,36.278865 28.4159528,36.0303025 27.535126,35.5331775 C26.6542992,35.0360525 25.9741024,34.36724 25.4940236,33.5262275 C25.0134331,32.685215 24.7733937,31.7611775 24.7733937,30.7536025 C24.7733937,29.7460275 25.0236693,28.806615 25.5242205,27.9358775 C26.0242598,27.06514 26.7162283,26.3758275 27.6006378,25.868965 C28.4840236,25.36159 29.4165433,25.1079025 30.3971732,25.1079025 C31.2104409,25.1079025 31.9699685,25.276515 32.6737087,25.61374 C33.3774488,25.9504525 34.0561102,26.5060025 34.7096929,27.28039 L34.7096929,25.38824 Z" id="Fill-14"></path>
            <path d="M39.0005118,36.2787625 L40.3998031,36.2787625 L40.3998031,25.3881375 L39.0005118,25.3881375 L39.0005118,36.2787625 Z M39.6950394,20.9037625 C40.0133858,20.9037625 40.2856693,21.0175375 40.511378,21.2440625 C40.7365748,21.4711 40.849685,21.744775 40.849685,22.0650875 C40.849685,22.3787375 40.7365748,22.6493375 40.511378,22.8758625 C40.2856693,23.1023875 40.0133858,23.2161625 39.6950394,23.2161625 C39.3833465,23.2161625 39.1141339,23.1023875 38.888937,22.8758625 C38.6632283,22.6493375 38.5506299,22.3787375 38.5506299,22.0650875 C38.5506299,21.744775 38.6632283,21.4711 38.888937,21.2440625 C39.1141339,21.0175375 39.3833465,20.9037625 39.6950394,20.9037625 L39.6950394,20.9037625 Z" id="Fill-15"></path>
            <path d="M43.4111457,25.3882913 L44.810437,25.3882913 L44.810437,27.3404038 C45.3703583,26.5931788 45.9901614,26.0340413 46.6698465,25.6635038 C47.3495315,25.2929663 48.0896102,25.1079538 48.8890591,25.1079538 C49.7023268,25.1079538 50.4234685,25.3144913 51.0535079,25.7285913 C51.6830354,26.1426913 52.1477598,26.6997788 52.4476811,27.4003663 C52.7476024,28.1009538 52.897563,29.1920663 52.897563,30.6737038 L52.897563,36.2789163 L51.4982717,36.2789163 L51.4982717,31.0837038 C51.4982717,29.8291038 51.4460669,28.9916788 51.3421693,28.5714288 C51.180437,27.8508538 50.8692559,27.3086288 50.4096496,26.9447538 C49.9495315,26.5808788 49.349689,26.3994538 48.6096102,26.3994538 C47.7635866,26.3994538 47.0045709,26.6797913 46.335122,27.2399538 C45.6651614,27.8006288 45.2239803,28.4950663 45.0105551,29.3222413 C44.8769724,29.8624163 44.810437,30.8500038 44.810437,32.2850038 L44.810437,36.2789163 L43.4111457,36.2789163 L43.4111457,25.3882913 Z" id="Fill-16"></path>
            <path d="M65.1556417,29.7325488 C64.9688307,28.9853237 64.6970591,28.3877488 64.339815,27.9408488 C63.9825709,27.4939488 63.5106811,27.1336612 62.9236339,26.8599863 C62.3360748,26.5857988 61.7193425,26.4494738 61.0719016,26.4494738 C60.0047756,26.4494738 59.0870984,26.7933613 58.3198937,27.4801113 C57.7594606,27.9808238 57.3356811,28.7316363 57.0485551,29.7325488 L65.1556417,29.7325488 Z M65.1556417,32.6655863 L66.3353661,33.2862238 C65.948437,34.0467737 65.501626,34.6607488 64.9949331,35.1276363 C64.4872165,35.5945238 63.9170591,35.9501987 63.283437,36.1936363 C62.649815,36.4375863 61.9327677,36.5590488 61.1322953,36.5590488 C59.3578465,36.5590488 57.9708386,35.9773613 56.970248,34.8124488 C55.9696575,33.6480488 55.4691063,32.3314363 55.4691063,30.8636363 C55.4691063,29.4824487 55.892374,28.2509113 56.7399331,27.1700487 C57.8137126,25.7950113 59.2513898,25.1082613 61.0519409,25.1082613 C62.9062323,25.1082613 64.3869016,25.8124363 65.4944606,27.2202738 C66.2811142,28.2145238 66.6813504,29.4557988 66.6951693,30.9435863 L56.9088307,30.9435863 C56.9349331,32.2089488 57.3392638,33.2452238 58.1197756,34.0549738 C58.9002874,34.8636988 59.8645394,35.2680613 61.0120197,35.2680613 C61.5657992,35.2680613 62.1047362,35.1717113 62.6288307,34.9784987 C63.1524134,34.7857987 63.5971772,34.5300613 63.9646575,34.2107738 C64.331626,33.8919987 64.7287913,33.3764238 65.1556417,32.6655863 L65.1556417,32.6655863 Z" id="Fill-17"></path>
            <path d="M78.5631969,29.7325488 C78.3763858,28.9853237 78.1046142,28.3877488 77.7473701,27.9408488 C77.390126,27.4939488 76.9182362,27.1336612 76.331189,26.8599863 C75.7436299,26.5857988 75.1268976,26.4494738 74.4794567,26.4494738 C73.4123307,26.4494738 72.4946535,26.7933613 71.7274488,27.4801113 C71.1670157,27.9808238 70.7432362,28.7316363 70.4561102,29.7325488 L78.5631969,29.7325488 Z M78.5631969,32.6655863 L79.7429213,33.2862238 C79.3559921,34.0467737 78.9091811,34.6607488 78.4024882,35.1276363 C77.8947717,35.5945238 77.3246142,35.9501987 76.6909921,36.1936363 C76.0573701,36.4375863 75.3403228,36.5590488 74.5398504,36.5590488 C72.7654016,36.5590488 71.3783937,35.9773613 70.3778031,34.8124488 C69.3772126,33.6480488 68.8766614,32.3314363 68.8766614,30.8636363 C68.8766614,29.4824487 69.2999291,28.2509113 70.1474882,27.1700487 C71.2212677,25.7950113 72.6589449,25.1082613 74.4594961,25.1082613 C76.3137874,25.1082613 77.7944567,25.8124363 78.9020157,27.2202738 C79.6886693,28.2145238 80.0889055,29.4557988 80.1027244,30.9435863 L70.3163858,30.9435863 C70.3424882,32.2089488 70.7468189,33.2452238 71.5273307,34.0549738 C72.3078425,34.8636988 73.2720945,35.2680613 74.4195748,35.2680613 C74.9733543,35.2680613 75.5122913,35.1717113 76.0363858,34.9784987 C76.5599685,34.7857987 77.0047323,34.5300613 77.3722126,34.2107738 C77.7391811,33.8919987 78.1363465,33.3764238 78.5631969,32.6655863 L78.5631969,32.6655863 Z" id="Fill-18"></path>
            <path d="M82.2843189,25.3882913 L83.7138071,25.3882913 L83.7138071,26.9796038 C84.1401457,26.3528163 84.5900276,25.8838788 85.0634528,25.5733038 C85.5363661,25.2632413 86.0292402,25.1079538 86.5425866,25.1079538 C86.9290039,25.1079538 87.3425472,25.2314663 87.7821929,25.4784913 L87.0523504,26.6592913 C86.7590827,26.5327038 86.5129016,26.4691538 86.3127835,26.4691538 C85.8465236,26.4691538 85.3966417,26.6608288 84.9631378,27.0446913 C84.5301457,27.4285538 84.2000276,28.0245913 83.9738071,28.8317788 C83.8003031,29.4524163 83.7138071,30.7070163 83.7138071,32.5955788 L83.7138071,36.2789163 L82.2843189,36.2789163 L82.2843189,25.3882913 Z" id="Fill-19"></path>
            <path d="M88.8637008,36.2787625 L90.2629921,36.2787625 L90.2629921,25.3881375 L88.8637008,25.3881375 L88.8637008,36.2787625 Z M89.5587402,20.9037625 C89.8770866,20.9037625 90.1493701,21.0175375 90.3750787,21.2440625 C90.6002756,21.4711 90.7133858,21.744775 90.7133858,22.0650875 C90.7133858,22.3787375 90.6002756,22.6493375 90.3750787,22.8758625 C90.1493701,23.1023875 89.8770866,23.2161625 89.5587402,23.2161625 C89.2465354,23.2161625 88.9778346,23.1023875 88.7526378,22.8758625 C88.5269291,22.6493375 88.4138189,22.3787375 88.4138189,22.0650875 C88.4138189,21.744775 88.5269291,21.4711 88.7526378,21.2440625 C88.9778346,21.0175375 89.2465354,20.9037625 89.5587402,20.9037625 L89.5587402,20.9037625 Z" id="Fill-20"></path>
            <path d="M93.2747441,25.3882913 L94.6740354,25.3882913 L94.6740354,27.3404038 C95.2339567,26.5931788 95.8537598,26.0340413 96.5334449,25.6635038 C97.2131299,25.2929663 97.9532087,25.1079538 98.7526575,25.1079538 C99.5659252,25.1079538 100.287067,25.3144913 100.917106,25.7285913 C101.546634,26.1426913 102.011358,26.6997788 102.31128,27.4003663 C102.611201,28.1009538 102.761161,29.1920663 102.761161,30.6737038 L102.761161,36.2789163 L101.36187,36.2789163 L101.36187,31.0837038 C101.36187,29.8291038 101.309665,28.9916788 101.205768,28.5714288 C101.044035,27.8508538 100.732854,27.3086288 100.273248,26.9447538 C99.8131299,26.5808788 99.2132874,26.3994538 98.4732087,26.3994538 C97.627185,26.3994538 96.8681693,26.6797913 96.1987205,27.2399538 C95.5287598,27.8006288 95.0875787,28.4950663 94.8741535,29.3222413 C94.7405709,29.8624163 94.6740354,30.8500038 94.6740354,32.2850038 L94.6740354,36.2789163 L93.2747441,36.2789163 L93.2747441,25.3882913 Z" id="Fill-21"></path>
            <path d="M111.110693,26.459365 C110.317386,26.459365 109.581402,26.65104 108.901717,27.0349025 C108.22152,27.418765 107.688213,27.9492025 107.302307,28.6267275 C106.91589,29.30374 106.722425,30.0361025 106.722425,30.823815 C106.722425,32.0184525 107.12215,33.0055275 107.92211,33.7865775 C108.721559,34.567115 109.757465,34.95764 111.03085,34.95764 C112.31652,34.95764 113.351402,34.5707025 114.134472,33.796315 C114.917543,33.02244 115.309079,32.004615 115.309079,30.7433525 C115.309079,29.92284 115.129433,29.1904775 114.769118,28.546265 C114.409315,27.9020525 113.899551,27.3936525 113.239827,27.02004 C112.580102,26.645915 111.87022,26.459365 111.110693,26.459365 L111.110693,26.459365 Z M115.238961,25.38824 L116.638764,25.38824 L116.638764,34.066915 C116.638764,35.5946775 116.505181,36.7129525 116.239039,37.4202025 C115.872583,38.421115 115.23589,39.191915 114.329472,39.73209 C113.423567,40.2727775 112.333921,40.542865 111.060535,40.542865 C110.127504,40.542865 109.289669,40.4111525 108.54652,40.1467025 C107.80337,39.88174 107.198409,39.5276025 106.73215,39.0827525 C106.26589,38.63739 105.835969,37.986515 105.442898,37.129615 L106.962465,37.129615 C107.376008,37.8507025 107.909827,38.3847275 108.563409,38.7311775 C109.217504,39.07814 110.028213,39.2518775 110.995535,39.2518775 C111.949551,39.2518775 112.755654,39.0735275 113.412819,38.718365 C114.069984,38.3621775 114.538291,37.9152775 114.818764,37.37664 C115.099236,36.83749 115.238961,35.96829 115.238961,34.7675025 L115.238961,34.2068275 C114.712307,34.8741025 114.068449,35.3866025 113.307898,35.7433025 C112.547346,36.100515 111.739709,36.278865 110.88652,36.278865 C109.885417,36.278865 108.94522,36.0303025 108.064394,35.5331775 C107.183567,35.0360525 106.50337,34.36724 106.023291,33.5262275 C105.542701,32.685215 105.302661,31.7611775 105.302661,30.7536025 C105.302661,29.7460275 105.552937,28.806615 106.053488,27.9358775 C106.553528,27.06514 107.245496,26.3758275 108.129906,25.868965 C109.013291,25.36159 109.945811,25.1079025 110.926441,25.1079025 C111.739709,25.1079025 112.499236,25.276515 113.202976,25.61374 C113.906717,25.9504525 114.585378,26.5060025 115.238961,27.28039 L115.238961,25.38824 Z" id="Fill-22"></path>
        </g>
        <g id="logomark">
            <polygon id="Fill-23" fill="#B3B3B3" points="23.377378 27.5646075 23.377378 54.6164075 -0.000102362204 41.0792325"></polygon>
            <polygon id="Fill-24" fill="#828282" points="23.377378 27.5646075 23.377378 54.6164075 46.7517874 41.0792325"></polygon>
            <polygon id="Fill-26" fill="#000000" points="23.3774803 0.5130125 0 14.0276375 0 41.0794375 46.7518898 14.0276375"></polygon>
            <polygon id="Fill-29" fill="#000000" points="0 68.1312375 23.3774803 81.6684125 46.7529134 68.142 46.7529134 41.0902"></polygon>
        </g>
    </g>
</svg>