<?xml version="1.0" encoding="utf-8"?>
<!-- Generator: Adobe Illustrator 24.1.0, SVG Export Plug-In . SVG Version: 6.00 Build 0)  -->
<svg version="1.1" id="Layer_1" xmlns="http://www.w3.org/2000/svg" xmlns:xlink="http://www.w3.org/1999/xlink" x="0px" y="0px"
	 viewBox="0 0 202 82" style="enable-background:new 0 0 202 82;" xml:space="preserve">
<style type="text/css">
	.st0{fill:#2E3536;}
	.st1{fill-rule:evenodd;clip-rule:evenodd;fill:#38D611;}
	.st2{fill:#38D611;}
</style>
<g>
	<g>
		<g transform="translate(87.19 25.95)">
			<g>
				<path id="a" d="M3.8,15L0.5,0.8h2.7l2,9.1l2.6-9.1h2.3l2.6,9.1l2-9.1h2.7L14.1,15h-2.6L8.9,5.8L6.3,15H3.8z M25.9,11.9l2.2,1.1
					c-1.1,1.6-2.6,2.3-4.8,2.3c-3.4,0-5.5-2.5-5.5-5.6c0-2.9,2.1-5.5,5.5-5.5c3.3,0,5.6,2.4,5.6,5.7c0,0.2,0,0.4,0,0.6h-8.5
					c0.3,1.6,1.4,2.4,3,2.4C24.4,12.9,25.1,12.6,25.9,11.9z M20.4,8.4h5.7c-0.4-1.2-1.5-2-2.9-2C21.9,6.4,20.9,7.1,20.4,8.4z
					 M38.7,15v-1.1c-0.9,0.9-1.9,1.4-3.3,1.4c-2.7,0-5-2.3-5-5.5c0-3.3,2.2-5.6,5-5.6c1.3,0,2.4,0.5,3.3,1.4V4.5h2.6V15
					C41.3,15,38.7,15,38.7,15z M35.9,6.6c-1.7,0-2.8,1.4-2.8,3.1c0,1.8,1.2,3.1,2.8,3.1c1.6,0,2.9-1.2,2.9-3.2
					C38.8,7.9,37.6,6.6,35.9,6.6z M47.4,15L42.9,4.5h2.7l2.7,6.2l2.7-6.2h2.7L49.1,15C49.1,15,47.4,15,47.4,15z M54.8,15V4.5h2.6V15
					H54.8z M56.1,0.1c1,0,1.7,0.8,1.7,1.7c0,0.9-0.8,1.7-1.7,1.7c-1,0-1.7-0.9-1.7-1.8C54.5,0.8,55.2,0.1,56.1,0.1L56.1,0.1z
					 M67.7,15v-1.1c-0.9,0.9-1.9,1.4-3.3,1.4c-2.7,0-5-2.3-5-5.5c0-3.3,2.2-5.6,5-5.6c1.3,0,2.4,0.5,3.3,1.4V4.5h2.6V15
					C70.3,15,67.7,15,67.7,15z M64.9,6.6C63.1,6.6,62,8,62,9.7c0,1.8,1.2,3.1,2.8,3.1c1.6,0,2.9-1.2,2.9-3.2
					C67.8,7.9,66.5,6.6,64.9,6.6z M73.3,4.5V0.6h2.6v3.9h1.6v2.3h-1.6V15h-2.6V6.7h-1.3V4.5H73.3L73.3,4.5z M86.6,11.9l2.2,1.1
					c-1.1,1.6-2.6,2.3-4.8,2.3c-3.4,0-5.5-2.5-5.5-5.6c0-2.9,2.1-5.5,5.5-5.5c3.3,0,5.6,2.4,5.6,5.7c0,0.2,0,0.4,0,0.6H81
					c0.3,1.6,1.4,2.4,3,2.4C85.1,12.9,85.8,12.6,86.6,11.9z M81.1,8.4h5.7c-0.4-1.2-1.5-2-2.9-2C82.6,6.4,81.6,7.1,81.1,8.4z"/>
			</g>
			<g>
				<path id="a_1_" class="st0" d="M3.8,15L0.5,0.8h2.7l2,9.1l2.6-9.1h2.3l2.6,9.1l2-9.1h2.7L14.1,15h-2.6L8.9,5.8L6.3,15H3.8z
					 M25.9,11.9l2.2,1.1c-1.1,1.6-2.6,2.3-4.8,2.3c-3.4,0-5.5-2.5-5.5-5.6c0-2.9,2.1-5.5,5.5-5.5c3.3,0,5.6,2.4,5.6,5.7
					c0,0.2,0,0.4,0,0.6h-8.5c0.3,1.6,1.4,2.4,3,2.4C24.4,12.9,25.1,12.6,25.9,11.9z M20.4,8.4h5.7c-0.4-1.2-1.5-2-2.9-2
					C21.9,6.4,20.9,7.1,20.4,8.4z M38.7,15v-1.1c-0.9,0.9-1.9,1.4-3.3,1.4c-2.7,0-5-2.3-5-5.5c0-3.3,2.2-5.6,5-5.6
					c1.3,0,2.4,0.5,3.3,1.4V4.5h2.6V15C41.3,15,38.7,15,38.7,15z M35.9,6.6c-1.7,0-2.8,1.4-2.8,3.1c0,1.8,1.2,3.1,2.8,3.1
					c1.6,0,2.9-1.2,2.9-3.2C38.8,7.9,37.6,6.6,35.9,6.6z M47.4,15L42.9,4.5h2.7l2.7,6.2l2.7-6.2h2.7L49.1,15
					C49.1,15,47.4,15,47.4,15z M54.8,15V4.5h2.6V15H54.8z M56.1,0.1c1,0,1.7,0.8,1.7,1.7c0,0.9-0.8,1.7-1.7,1.7
					c-1,0-1.7-0.9-1.7-1.8C54.5,0.8,55.2,0.1,56.1,0.1L56.1,0.1z M67.7,15v-1.1c-0.9,0.9-1.9,1.4-3.3,1.4c-2.7,0-5-2.3-5-5.5
					c0-3.3,2.2-5.6,5-5.6c1.3,0,2.4,0.5,3.3,1.4V4.5h2.6V15C70.3,15,67.7,15,67.7,15z M64.9,6.6C63.1,6.6,62,8,62,9.7
					c0,1.8,1.2,3.1,2.8,3.1c1.6,0,2.9-1.2,2.9-3.2C67.8,7.9,66.5,6.6,64.9,6.6z M73.3,4.5V0.6h2.6v3.9h1.6v2.3h-1.6V15h-2.6V6.7
					h-1.3V4.5H73.3L73.3,4.5z M86.6,11.9l2.2,1.1c-1.1,1.6-2.6,2.3-4.8,2.3c-3.4,0-5.5-2.5-5.5-5.6c0-2.9,2.1-5.5,5.5-5.5
					c3.3,0,5.6,2.4,5.6,5.7c0,0.2,0,0.4,0,0.6H81c0.3,1.6,1.4,2.4,3,2.4C85.1,12.9,85.8,12.6,86.6,11.9z M81.1,8.4h5.7
					c-0.4-1.2-1.5-2-2.9-2C82.6,6.4,81.6,7.1,81.1,8.4z"/>
			</g>
		</g>
	</g>
	<path class="st1" d="M13.5,40.2V53l11.1,6.4L35.6,53l11.1,6.4L57.8,53V40.2l-11.1-6.4v12.8l-11.1-6.4l-11.1,6.4V33.8L13.5,40.2z"/>
	<path class="st2" d="M35.6,81.1c-0.3,0-0.6-0.1-0.8-0.2L1.3,61.6c-0.5-0.3-0.8-0.8-0.8-1.4V21.6c0-0.6,0.3-1.1,0.8-1.4L34.8,0.9
		c0.5-0.3,1.1-0.3,1.6,0l33.5,19.3c0.5,0.3,0.8,0.8,0.8,1.4v38.6c0,0.6-0.3,1.1-0.8,1.4L36.4,80.9C36.2,81.1,35.9,81.1,35.6,81.1z
		 M3.8,59.3l31.8,18.4l31.8-18.4V22.5L35.6,4.2L3.8,22.5C3.8,22.5,3.8,59.3,3.8,59.3z"/>
	<path class="st2" d="M67.3,59.9L65,58.6l0.7-1.1l2.3,1.3C67.9,58.8,67.3,59.9,67.3,59.9z M62.7,57.3L60.5,56l0.7-1.1l2.2,1.3
		C63.4,56.2,62.8,57.3,62.7,57.3z M58.2,54.7L56,53.4l0.7-1.1l2.3,1.3C58.9,53.6,58.2,54.7,58.2,54.7z M53.7,52.1l-2.3-1.3l0.7-1.1
		l2.3,1.3C54.4,51,53.7,52.1,53.7,52.1z M49.2,49.5L47,48.2l0.7-1.1l2.3,1.3C49.9,48.4,49.2,49.5,49.2,49.5z M44.7,46.9l-2.3-1.3
		l0.7-1.1l2.2,1.3L44.7,46.9z M40.2,44.3L37.9,43l0.7-1.1l2.3,1.3C40.8,43.2,40.2,44.3,40.2,44.3z M35.7,41.7l-2.2-1.3l0.7-1.1
		l2.3,1.3L35.7,41.7z M31.2,39.1l-2.2-1.3l0.6-1.1l2.3,1.3C31.8,38,31.2,39.1,31.2,39.1z M26.6,36.5l-2.3-1.3L25,34l2.3,1.3
		C27.3,35.3,26.6,36.5,26.6,36.5z M22.1,33.9l-2.3-1.3l0.6-1.1l2.3,1.3C22.8,32.7,22.1,33.9,22.1,33.9z M17.6,31.3L15.4,30l0.6-1.2
		l2.2,1.3C18.2,30.1,17.6,31.3,17.6,31.3z M13.1,28.7l-2.3-1.3l0.7-1.1l2.2,1.3L13.1,28.7z M8.6,26l-2.3-1.3L7,23.6l2.3,1.3L8.6,26z
		 M4.1,23.4l-2.2-1.3L2.5,21l2.3,1.3C4.7,22.3,4.1,23.4,4.1,23.4z"/>
	<path class="st2" d="M3.9,59.9l-0.6-1.1l2.3-1.3l0.7,1.1L3.9,59.9z M8.4,57.3l-0.7-1.1l2.3-1.3l0.6,1.1L8.4,57.3z M13,54.7
		l-0.6-1.1l2.2-1.3l0.7,1.1L13,54.7z M17.5,52.1L16.8,51l2.3-1.3l0.6,1.1L17.5,52.1z M22,49.5l-0.6-1.1l2.3-1.3l0.6,1.1L22,49.5z
		 M26.5,46.9l-0.6-1.1l2.2-1.3l0.6,1.1L26.5,46.9z M31,44.3l-0.6-1.1l2.3-1.3l0.7,1.1L31,44.3z M35.5,41.7l-0.7-1.1l2.3-1.3l0.7,1.1
		L35.5,41.7z M40,39.1L39.4,38l2.2-1.3l0.7,1.1L40,39.1z M44.5,36.5l-0.7-1.1l2.3-1.4l0.7,1.1C46.8,35.1,44.5,36.5,44.5,36.5z
		 M49,33.9l-0.7-1.1l2.3-1.3l0.7,1.1L49,33.9z M53.5,31.3l-0.7-1.1l2.3-1.3l0.7,1.2C55.8,30,53.5,31.3,53.5,31.3z M58.1,28.7
		l-0.7-1.1l2.2-1.3l0.7,1.1L58.1,28.7z M62.6,26.1L62,24.9l2.3-1.3l0.7,1.1C64.9,24.8,62.6,26,62.6,26.1z M67.1,23.5l-0.7-1.1
		l2.3-1.3l0.7,1.1C69.3,22.1,67.1,23.5,67.1,23.5z"/>
	<path class="st2" d="M36.2,77.8H35v-2.6h1.3L36.2,77.8z M36.2,72.6H35V70h1.3L36.2,72.6z M36.2,67.4H35v-2.6h1.3L36.2,67.4z
		 M36.2,62.2H35v-2.6h1.3L36.2,62.2z M36.2,57H35v-2.6h1.3L36.2,57z M36.2,51.8H35v-2.6h1.3L36.2,51.8z M36.2,46.6H35V44h1.3
		C36.3,44,36.2,46.6,36.2,46.6z M36.2,41.4H35v-2.6h1.3L36.2,41.4z M36.2,36.1H35v-2.6h1.3L36.2,36.1z M36.2,30.9H35v-2.6h1.3
		L36.2,30.9z M36.2,25.7H35v-2.6h1.3L36.2,25.7z M36.2,20.5H35v-2.6h1.3C36.3,17.9,36.2,20.5,36.2,20.5z M36.2,15.3H35v-2.6h1.3
		L36.2,15.3z M36.2,10.1H35V7.5h1.3C36.3,7.5,36.2,10.1,36.2,10.1z M36.2,4.9H35V2.3h1.3C36.3,2.3,36.2,4.9,36.2,4.9z"/>
</g>
<g>
	<path class="st0" d="M102,49.3l-1.1,0.9c-0.6-0.8-1.4-1.4-2.2-1.8c-0.9-0.4-1.8-0.6-2.8-0.6c-1.1,0-2.2,0.3-3.1,0.8
		c-1,0.5-1.7,1.3-2.2,2.2c-0.5,0.9-0.8,1.9-0.8,3.1c0,1.7,0.6,3.2,1.8,4.3s2.7,1.7,4.5,1.7c2,0,3.6-0.8,5-2.3l1.1,0.8
		c-0.7,0.9-1.6,1.6-2.6,2.1c-1.1,0.5-2.2,0.7-3.5,0.7c-2.5,0-4.4-0.8-5.9-2.5c-1.2-1.4-1.8-3.1-1.8-5c0-2.1,0.7-3.8,2.2-5.2
		s3.3-2.1,5.5-2.1c1.3,0,2.5,0.3,3.6,0.8C100.4,47.6,101.3,48.3,102,49.3z"/>
	<path class="st0" d="M109.5,50.1c1.6,0,3,0.6,4,1.8c1,1.1,1.4,2.3,1.4,3.8c0,1.5-0.5,2.7-1.5,3.8c-1,1.1-2.3,1.6-3.9,1.6
		c-1.6,0-2.9-0.5-3.9-1.6c-1-1.1-1.5-2.4-1.5-3.8c0-1.5,0.5-2.7,1.4-3.8C106.6,50.6,107.9,50.1,109.5,50.1z M109.5,51.4
		c-1.1,0-2.1,0.4-2.9,1.2c-0.8,0.8-1.2,1.8-1.2,3c0,0.8,0.2,1.5,0.6,2.1c0.4,0.7,0.9,1.2,1.5,1.5c0.6,0.4,1.3,0.5,2.1,0.5
		c0.7,0,1.4-0.2,2.1-0.5c0.6-0.4,1.1-0.9,1.5-1.5c0.4-0.7,0.6-1.4,0.6-2.1c0-1.2-0.4-2.2-1.2-3C111.6,51.8,110.7,51.4,109.5,51.4z"
		/>
	<path class="st0" d="M117.5,50.3h1.3v1.9c0.5-0.7,1.1-1.3,1.8-1.6c0.7-0.4,1.4-0.5,2.1-0.5c0.8,0,1.5,0.2,2.1,0.6
		c0.6,0.4,1.1,0.9,1.3,1.6c0.3,0.7,0.4,1.7,0.4,3.1v5.4h-1.3v-5c0-1.2-0.1-2-0.1-2.4c-0.2-0.7-0.5-1.2-0.9-1.6
		c-0.4-0.3-1-0.5-1.7-0.5c-0.8,0-1.5,0.3-2.2,0.8s-1.1,1.2-1.3,2c-0.1,0.5-0.2,1.5-0.2,2.8v3.8h-1.3V50.3z"/>
	<path class="st0" d="M134.8,51.5l-0.9,0.9c-0.7-0.7-1.4-1-2.1-1c-0.4,0-0.8,0.1-1.1,0.4c-0.3,0.3-0.5,0.6-0.5,1
		c0,0.3,0.1,0.7,0.4,1c0.3,0.3,0.8,0.7,1.6,1.1c1,0.5,1.7,1,2,1.5c0.4,0.5,0.5,1,0.5,1.6c0,0.9-0.3,1.6-0.9,2.2s-1.4,0.9-2.3,0.9
		c-0.6,0-1.2-0.1-1.7-0.4c-0.5-0.3-1-0.6-1.4-1.1l0.8-1c0.7,0.8,1.4,1.2,2.2,1.2c0.5,0,1-0.2,1.4-0.5c0.4-0.3,0.6-0.8,0.6-1.2
		c0-0.4-0.1-0.7-0.4-1c-0.3-0.3-0.8-0.7-1.7-1.1c-0.9-0.5-1.6-1-1.9-1.4c-0.3-0.5-0.5-1-0.5-1.6c0-0.8,0.3-1.5,0.8-2
		s1.2-0.8,2.1-0.8C132.8,50.1,133.8,50.5,134.8,51.5z"/>
	<path class="st0" d="M142.1,50.1c1.6,0,3,0.6,4,1.8c1,1.1,1.4,2.3,1.4,3.8c0,1.5-0.5,2.7-1.5,3.8c-1,1.1-2.3,1.6-3.9,1.6
		c-1.6,0-2.9-0.5-3.9-1.6c-1-1.1-1.5-2.4-1.5-3.8c0-1.5,0.5-2.7,1.4-3.8C139.2,50.6,140.5,50.1,142.1,50.1z M142.1,51.4
		c-1.1,0-2.1,0.4-2.9,1.2s-1.2,1.8-1.2,3c0,0.8,0.2,1.5,0.6,2.1c0.4,0.7,0.9,1.2,1.5,1.5s1.3,0.5,2.1,0.5s1.4-0.2,2.1-0.5
		s1.1-0.9,1.5-1.5c0.4-0.7,0.6-1.4,0.6-2.1c0-1.2-0.4-2.2-1.2-3C144.2,51.8,143.2,51.4,142.1,51.4z"/>
	<path class="st0" d="M149.9,46.3h1.3v14.5h-1.3V46.3z"/>
	<path class="st0" d="M162.8,57.3l1.1,0.6c-0.4,0.7-0.8,1.3-1.3,1.8s-1,0.8-1.6,1c-0.6,0.2-1.3,0.4-2.1,0.4c-1.7,0-3-0.6-4-1.7
		c-1-1.1-1.4-2.4-1.4-3.8c0-1.3,0.4-2.5,1.2-3.6c1-1.3,2.4-2,4.2-2c1.8,0,3.2,0.7,4.3,2c0.8,1,1.1,2.1,1.2,3.6h-9.4
		c0,1.2,0.4,2.2,1.2,3c0.8,0.8,1.7,1.2,2.8,1.2c0.5,0,1.1-0.1,1.6-0.3c0.5-0.2,0.9-0.4,1.3-0.7C162.1,58.5,162.4,58,162.8,57.3z
		 M162.8,54.5c-0.2-0.7-0.4-1.3-0.8-1.7c-0.3-0.4-0.8-0.8-1.4-1c-0.6-0.3-1.2-0.4-1.8-0.4c-1,0-1.9,0.3-2.7,1
		c-0.5,0.5-0.9,1.2-1.2,2.2H162.8z"/>
</g>
</svg>
