<?xml version="1.0" encoding="UTF-8"?>
<svg width="120px" height="135px" viewBox="0 0 120 135" version="1.1" xmlns="http://www.w3.org/2000/svg" xmlns:xlink="http://www.w3.org/1999/xlink">
    <!-- Generator: Sketch 53.2 (72643) - https://sketchapp.com -->
    <title>logos/consulting/vertical/black copy</title>
    <desc>Created with Sketch.</desc>
    <g id="logos/consulting/vertical/black-copy" stroke="none" stroke-width="1" fill="none" fill-rule="evenodd">
        <g id="logomark" transform="translate(36.000000, 0.000000)">
            <polygon id="Fill-23" fill="#B3B3B3" points="23.377378 27.5646075 23.377378 54.6164075 -0.000102362204 41.0792325"></polygon>
            <polygon id="Fill-24" fill="#828282" points="23.377378 27.5646075 23.377378 54.6164075 46.7517874 41.0792325"></polygon>
            <polygon id="Fill-26" fill="#000000" points="23.3774803 0.5130125 0 14.0276375 0 41.0794375 46.7518898 14.0276375"></polygon>
            <polygon id="Fill-29" fill="#000000" points="0 68.1312375 23.3774803 81.6684125 46.7529134 68.142 46.7529134 41.0902"></polygon>
        </g>
        <g id="sol-eng" transform="translate(0.000000, 92.953830)" fill="#000000">
            <path d="M19.3424444,12.9325257 L20.6446667,12.1638594 C21.5611111,13.8240561 22.6202222,14.6543731 23.8215556,14.6543731 C24.3353333,14.6543731 24.818,14.5363185 25.2695556,14.3006467 C25.7211111,14.0649748 26.0646667,13.748851 26.3006667,13.3527124 C26.5366667,12.9565738 26.6548889,12.5363871 26.6548889,12.0921522 C26.6548889,11.5867038 26.4811111,11.091312 26.134,10.6064139 C25.6548889,9.93656364 24.7797778,9.13073206 23.5091111,8.18760741 C22.2313333,7.23836142 21.4362222,6.55145886 21.1237778,6.12777422 C20.582,5.41769799 20.3113333,4.64903172 20.3113333,3.82221267 C20.3113333,3.16635408 20.4708889,2.56864829 20.7904444,2.02909529 C21.11,1.48910506 21.5593333,1.06367145 22.1393333,0.753231724 C22.7193333,0.442354754 23.3495556,0.28669765 24.03,0.28669765 C24.7522222,0.28669765 25.4273333,0.462467751 26.0557778,0.814445192 C26.6846667,1.16642263 27.3495556,1.81353644 28.0508889,2.75666108 L26.8006667,3.68885475 C26.2242222,2.93767805 25.7331111,2.4422862 25.3268889,2.20311644 C24.9206667,1.96394667 24.478,1.84458041 23.9988889,1.84458041 C23.3806667,1.84458041 22.8753333,2.02909529 22.4828889,2.39768782 C22.0908889,2.76671758 21.8944444,3.22100896 21.8944444,3.76056196 C21.8944444,4.08849125 21.9637778,4.40636405 22.1028889,4.7137431 C22.2415556,5.02112216 22.4953333,5.35604728 22.8633333,5.71808122 C23.0646667,5.90959193 23.7242222,6.41154236 24.8424444,7.22436977 C26.1686667,8.18760741 27.0784444,9.04503321 27.5717778,9.79664714 C28.0646667,10.5482611 28.3113333,11.3029357 28.3113333,12.0615455 C28.3113333,13.1546431 27.8891111,14.1043263 27.0455556,14.9101579 C26.202,15.7164267 25.1757778,16.1195612 23.9673333,16.1195612 C23.0371111,16.1195612 22.1931111,15.8751445 21.4362222,15.3867485 C20.6793333,14.8983525 19.9811111,14.0802782 19.3424444,12.9325257" id="Fill-1"></path>
            <path d="M36.7773333,5.70784982 C35.5644444,5.70784982 34.5231111,6.14858679 33.6515556,7.02962349 C32.7808889,7.91109743 32.3448889,8.97708626 32.3448889,10.2271527 C32.3448889,11.0334215 32.544,11.7845982 32.9408889,12.4815573 C33.3382222,13.1785164 33.8746667,13.7163204 34.5506667,14.0958439 C35.2266667,14.4749302 35.9688889,14.6642547 36.7773333,14.6642547 C37.5853333,14.6642547 38.3275556,14.4749302 39.004,14.0958439 C39.6795556,13.7163204 40.2164444,13.1785164 40.6137778,12.4815573 C41.0106667,11.7845982 41.2097778,11.0334215 41.2097778,10.2271527 C41.2097778,8.97708626 40.772,7.91109743 39.8977778,7.02962349 C39.0231111,6.14858679 37.9831111,5.70784982 36.7773333,5.70784982 M36.7826667,4.30387521 C38.5284444,4.30387521 39.9755556,4.92562915 41.1235556,6.16913703 C42.1671111,7.30289791 42.6888889,8.64565905 42.6888889,10.196546 C42.6888889,11.7539915 42.1377778,13.1151167 41.0346667,14.2799215 C39.9324444,15.4451636 38.5146667,16.0275661 36.7826667,16.0275661 C35.0435556,16.0275661 33.6222222,15.4451636 32.52,14.2799215 C31.4168889,13.1151167 30.8657778,11.7539915 30.8657778,10.196546 C30.8657778,8.65221764 31.3875556,7.31339164 32.4311111,6.17919353 C33.5791111,4.92912706 35.0293333,4.30387521 36.7826667,4.30387521" id="Fill-3"></path>
            <polygon id="Fill-5" points="45.2746667 15.7406061 46.7328889 15.7406061 46.7328889 0.286828822 45.2746667 0.286828822"></polygon>
            <path d="M49.6831556,4.59083521 L51.1413778,4.59083521 L51.1413778,9.79660342 C51.1413778,11.0676574 51.2111556,11.9416982 51.3502667,12.4200378 C51.5591556,13.1034424 51.9569333,13.6429954 52.5444889,14.039134 C53.1324889,14.4357098 53.8329333,14.6337791 54.6467111,14.6337791 C55.4604889,14.6337791 56.1507111,14.4405194 56.7173778,14.0548746 C57.2844889,13.6687925 57.6751556,13.1615952 57.8911556,12.5328454 C58.0373778,12.1026022 58.1102667,11.1905215 58.1102667,9.79660342 L58.1102667,4.59083521 L59.5996,4.59083521 L59.5996,10.0633192 C59.5996,11.6002145 59.4173778,12.7584608 59.0529333,13.5371836 C58.6884889,14.3159063 58.1396,14.9258548 57.4071556,15.3665918 C56.6742667,15.8068915 55.7560444,16.02726 54.6520444,16.02726 C53.5476,16.02726 52.6258222,15.8068915 51.8862667,15.3665918 C51.1467111,14.9258548 50.5947111,14.3106594 50.2298222,13.5218802 C49.8653778,12.7326637 49.6831556,11.5455596 49.6831556,9.96056807 L49.6831556,4.59083521 Z" id="Fill-7"></path>
            <polygon id="Fill-8" points="64.2170222 0.450749744 65.6752444 0.450749744 65.6752444 4.59096638 67.9876889 4.59096638 67.9876889 5.83097634 65.6752444 5.83097634 65.6752444 15.7405623 64.2170222 15.7405623 64.2170222 5.83097634 62.2272444 5.83097634 62.2272444 4.59096638 64.2170222 4.59096638"></polygon>
            <path d="M70.0635556,15.7406061 L71.5217778,15.7406061 L71.5217778,4.5910101 L70.0635556,4.5910101 L70.0635556,15.7406061 Z M70.7871111,-1.09245946e-13 C71.1195556,-1.09245946e-13 71.4026667,0.11586835 71.6377778,0.34804229 C71.8728889,0.580653468 71.9906667,0.860486465 71.9906667,1.18841576 C71.9906667,1.50978646 71.8728889,1.78655879 71.6377778,2.01873273 C71.4026667,2.25090667 71.1195556,2.36721226 70.7871111,2.36721226 C70.4622222,2.36721226 70.1822222,2.25090667 69.9471111,2.01873273 C69.7124444,1.78655879 69.5946667,1.50978646 69.5946667,1.18841576 C69.5946667,0.860486465 69.7124444,0.580653468 69.9471111,0.34804229 C70.1822222,0.11586835 70.4622222,-1.09245946e-13 70.7871111,-1.09245946e-13 L70.7871111,-1.09245946e-13 Z" id="Fill-9"></path>
            <path d="M80.0191111,5.70784982 C78.8062222,5.70784982 77.7648889,6.14858679 76.8933333,7.02962349 C76.0226667,7.91109743 75.5866667,8.97708626 75.5866667,10.2271527 C75.5866667,11.0334215 75.7857778,11.7845982 76.1826667,12.4815573 C76.58,13.1785164 77.1164444,13.7163204 77.7924444,14.0958439 C78.4684444,14.4749302 79.2106667,14.6642547 80.0191111,14.6642547 C80.8271111,14.6642547 81.5693333,14.4749302 82.2457778,14.0958439 C82.9213333,13.7163204 83.4582222,13.1785164 83.8555556,12.4815573 C84.2524444,11.7845982 84.4515556,11.0334215 84.4515556,10.2271527 C84.4515556,8.97708626 84.0137778,7.91109743 83.1395556,7.02962349 C82.2648889,6.14858679 81.2248889,5.70784982 80.0191111,5.70784982 M80.0244444,4.30387521 C81.7702222,4.30387521 83.2173333,4.92562915 84.3653333,6.16913703 C85.4088889,7.30289791 85.9306667,8.64565905 85.9306667,10.196546 C85.9306667,11.7539915 85.3795556,13.1151167 84.2764444,14.2799215 C83.1742222,15.4451636 81.7564444,16.0275661 80.0244444,16.0275661 C78.2853333,16.0275661 76.864,15.4451636 75.7617778,14.2799215 C74.6586667,13.1151167 74.1075556,11.7539915 74.1075556,10.196546 C74.1075556,8.65221764 74.6293333,7.31339164 75.6728889,6.17919353 C76.8208889,4.92912706 78.2711111,4.30387521 80.0244444,4.30387521" id="Fill-10"></path>
            <path d="M88.7348,4.59083521 L90.1930222,4.59083521 L90.1930222,6.5890177 C90.7765778,5.82384935 91.4223556,5.25194066 92.1308,4.8728544 C92.8388,4.4933309 93.6099111,4.30400638 94.4432444,4.30400638 C95.2903556,4.30400638 96.0419111,4.51563009 96.6983556,4.93931473 C97.3548,5.36299938 97.8388,5.93315911 98.1512444,6.6506684 C98.4641333,7.3681777 98.6201333,8.48488625 98.6201333,10.0016685 L98.6201333,15.7404312 L97.1619111,15.7404312 L97.1619111,10.4218553 C97.1619111,9.13724692 97.1076889,8.28025837 96.9996889,7.8495779 C96.8308,7.11195561 96.5063556,6.55666201 96.0272444,6.18457157 C95.5481333,5.81204389 94.9232444,5.62578005 94.1521333,5.62578005 C93.2699111,5.62578005 92.4796889,5.91260888 91.7814667,6.48670376 C91.0836889,7.0603614 90.6236889,7.77087487 90.4014667,8.61824416 C90.2628,9.17178881 90.1930222,10.1826855 90.1930222,11.6513715 L90.1930222,15.7404312 L88.7348,15.7404312 L88.7348,4.59083521 Z" id="Fill-11"></path>
            <polygon id="Fill-12" points="-4.46753745e-13 21.6534336 8.78133333 21.6534336 8.78133333 23.1291154 1.53111111 23.1291154 1.53111111 27.8534834 8.71866667 27.8534834 8.71866667 29.3291652 1.53111111 29.3291652 1.53111111 35.2524427 8.71866667 35.2524427 8.71866667 36.7281245 -4.46753745e-13 36.7281245"></polygon>
            <path d="M11.2942667,25.57831 L12.7524889,25.57831 L12.7524889,27.5764924 C13.3360444,26.8113241 13.9818222,26.2394154 14.6902667,25.8603291 C15.3982667,25.4808056 16.1693778,25.2914811 17.0027111,25.2914811 C17.8498222,25.2914811 18.6013778,25.5031048 19.2578222,25.9267895 C19.9142667,26.3504741 20.3982667,26.9206339 20.7107111,27.6381432 C21.0236,28.3556524 21.1796,29.472361 21.1796,30.9891433 L21.1796,36.7279059 L19.7213778,36.7279059 L19.7213778,31.40933 C19.7213778,30.1247217 19.6671556,29.2677331 19.5591556,28.8370526 C19.3902667,28.0994304 19.0658222,27.5441368 18.5867111,27.1720463 C18.1076,26.7995186 17.4827111,26.6132548 16.7116,26.6132548 C15.8293778,26.6132548 15.0391556,26.9000836 14.3409333,27.4741785 C13.6431556,28.0478361 13.1831556,28.7583496 12.9609333,29.6057189 C12.8222667,30.1592636 12.7524889,31.1701603 12.7524889,32.6388462 L12.7524889,36.7279059 L11.2942667,36.7279059 L11.2942667,25.57831 Z" id="Fill-13"></path>
            <path d="M29.8802222,26.6748181 C29.054,26.6748181 28.2864444,26.8711384 27.578,27.2642163 C26.87,27.656857 26.3144444,28.1999079 25.9113333,28.893369 C25.5086667,29.5868302 25.3073333,30.3366952 25.3073333,31.142964 C25.3073333,32.3659216 25.7237778,33.3768183 26.5571111,34.1760913 C27.3904444,34.9753643 28.4704444,35.3750008 29.7971111,35.3750008 C31.1371111,35.3750008 32.2153333,34.9788622 33.0313333,34.1865851 C33.8473333,33.3938707 34.2553333,32.35193 34.2553333,31.060763 C34.2553333,30.2203896 34.0677778,29.4709618 33.6926667,28.8116053 C33.3175556,28.1522488 32.7864444,27.6314971 32.0988889,27.2484757 C31.4113333,26.8658915 30.6717778,26.6748181 29.8802222,26.6748181 L29.8802222,26.6748181 Z M34.1824444,25.5782225 L35.6406667,25.5782225 L35.6406667,34.4629201 C35.6406667,36.0277987 35.5015556,37.1720533 35.2237778,37.8961212 C34.842,38.9210096 34.1788889,39.7097888 33.2344444,40.2633335 C32.29,40.8168781 31.1544444,41.0936505 29.8282222,41.0936505 C28.8557778,41.0936505 27.9824444,40.9581063 27.2082222,40.6874554 C26.434,40.4168044 25.8037778,40.053896 25.3175556,39.5982929 C24.8317778,39.1422525 24.3837778,38.4759002 23.974,37.5987987 L25.5571111,37.5987987 C25.9882222,38.3368582 26.5446667,38.883407 27.2255556,39.2384451 C27.9073333,39.5939205 28.7522222,39.7714395 29.7602222,39.7714395 C30.7544444,39.7714395 31.594,39.5891109 32.2788889,39.2248907 C32.9637778,38.8606706 33.4522222,38.4024441 33.7442222,37.8515228 C34.0366667,37.3001644 34.1824444,36.4095084 34.1824444,35.1804294 L34.1824444,34.6067718 C33.6331111,35.2897392 32.9624444,35.8139888 32.1695556,36.1795207 C31.3771111,36.5450525 30.5362222,36.7278185 29.6468889,36.7278185 C28.6037778,36.7278185 27.6237778,36.4733453 26.7055556,35.9643991 C25.7882222,35.4554528 25.0793333,34.7707364 24.5788889,33.9098127 C24.078,33.048889 23.8282222,32.1027037 23.8282222,31.0712568 C23.8282222,30.0393726 24.0886667,29.0778839 24.6104444,28.1863535 C25.1313333,27.294823 25.8526667,26.5895564 26.774,26.0701164 C27.6948889,25.5511137 28.6664444,25.2913937 29.6882222,25.2913937 C30.5362222,25.2913937 31.3268889,25.4636659 32.0602222,25.8090847 C32.794,26.1540663 33.5006667,26.7224771 34.1824444,27.5151915 L34.1824444,25.5782225 Z" id="Fill-14"></path>
            <path d="M38.6533333,36.7280808 L40.1115556,36.7280808 L40.1115556,25.5784848 L38.6533333,25.5784848 L38.6533333,36.7280808 Z M39.3773333,20.9874747 C39.7093333,20.9874747 39.9924444,21.1033431 40.2275556,21.335517 C40.4626667,21.5681282 40.5804444,21.8479612 40.5804444,22.1758905 C40.5804444,22.4972612 40.4626667,22.7740335 40.2275556,23.0062075 C39.9924444,23.2383814 39.7093333,23.354687 39.3773333,23.354687 C39.052,23.354687 38.772,23.2383814 38.5368889,23.0062075 C38.3022222,22.7740335 38.1844444,22.4972612 38.1844444,22.1758905 C38.1844444,21.8479612 38.3022222,21.5681282 38.5368889,21.335517 C38.772,21.1033431 39.052,20.9874747 39.3773333,20.9874747 L39.3773333,20.9874747 Z" id="Fill-15"></path>
            <path d="M43.2495556,25.57831 L44.7077778,25.57831 L44.7077778,27.5764924 C45.2913333,26.8113241 45.9371111,26.2394154 46.6455556,25.8603291 C47.3535556,25.4808056 48.1246667,25.2914811 48.958,25.2914811 C49.8051111,25.2914811 50.5566667,25.5031048 51.2131111,25.9267895 C51.8695556,26.3504741 52.3535556,26.9206339 52.666,27.6381432 C52.9788889,28.3556524 53.1348889,29.472361 53.1348889,30.9891433 L53.1348889,36.7279059 L51.6766667,36.7279059 L51.6766667,31.40933 C51.6766667,30.1247217 51.6224444,29.2677331 51.5144444,28.8370526 C51.3455556,28.0994304 51.0211111,27.5441368 50.542,27.1720463 C50.0628889,26.7995186 49.438,26.6132548 48.6668889,26.6132548 C47.7846667,26.6132548 46.9944444,26.9000836 46.2962222,27.4741785 C45.5984444,28.0478361 45.1384444,28.7583496 44.9162222,29.6057189 C44.7775556,30.1592636 44.7077778,31.1701603 44.7077778,32.6388462 L44.7077778,36.7279059 L43.2495556,36.7279059 L43.2495556,25.57831 Z" id="Fill-16"></path>
            <path d="M65.9084,30.0258619 C65.7141778,29.2606936 65.4306222,28.6494334 65.0581778,28.1916441 C64.6861778,27.7338548 64.1946222,27.364825 63.5826222,27.0845548 C62.9706222,26.8047218 62.3275111,26.6648053 61.6532889,26.6648053 C60.5404,26.6648053 59.5844,27.0163455 58.7852889,27.7203004 C58.2008444,28.2323073 57.7590667,29.0009736 57.4604,30.0258619 L65.9084,30.0258619 Z M65.9084,33.0283825 L67.1377333,33.6636909 C66.7341778,34.4428509 66.2688444,35.0711634 65.7404,35.5495029 C65.2124,36.0278425 64.6181778,36.3916254 63.9572889,36.6408516 C63.2972889,36.8900779 62.5497333,37.014691 61.7155111,37.014691 C59.8666222,37.014691 58.4212889,36.4187342 57.3786222,35.2268205 C56.3359556,34.0344696 55.8146222,32.6868988 55.8146222,31.1836709 C55.8146222,29.7696398 56.2559556,28.5090796 57.1390667,27.4024276 C58.2577333,25.9949551 59.7555111,25.2914374 61.6324,25.2914374 C63.5648444,25.2914374 65.1075111,26.0120074 66.2612889,27.4535845 C67.0817333,28.4714771 67.4986222,29.742531 67.5124,31.2658719 L57.3146222,31.2658719 C57.3426222,32.560974 57.7630667,33.6225904 58.5764,34.4507212 C59.3901778,35.278852 60.3946222,35.6929173 61.5906222,35.6929173 C62.1675111,35.6929173 62.7292889,35.5941013 63.2746222,35.3969065 C63.8208444,35.1997117 64.2848444,34.9373682 64.6670667,34.6107507 C65.0497333,34.2841331 65.4635111,33.7568228 65.9084,33.0283825 L65.9084,33.0283825 Z" id="Fill-17"></path>
            <path d="M79.8797778,30.0258619 C79.6855556,29.2606936 79.402,28.6494334 79.0295556,28.1916441 C78.6575556,27.7338548 78.166,27.364825 77.554,27.0845548 C76.942,26.8047218 76.2988889,26.6648053 75.6246667,26.6648053 C74.5117778,26.6648053 73.5557778,27.0163455 72.7566667,27.7203004 C72.1722222,28.2323073 71.7304444,29.0009736 71.4317778,30.0258619 L79.8797778,30.0258619 Z M79.8797778,33.0283825 L81.1091111,33.6636909 C80.7055556,34.4428509 80.2402222,35.0711634 79.7117778,35.5495029 C79.1837778,36.0278425 78.5895556,36.3916254 77.9286667,36.6408516 C77.2686667,36.8900779 76.5211111,37.014691 75.6868889,37.014691 C73.838,37.014691 72.3926667,36.4187342 71.35,35.2268205 C70.3073333,34.0344696 69.786,32.6868988 69.786,31.1836709 C69.786,29.7696398 70.2273333,28.5090796 71.1104444,27.4024276 C72.2291111,25.9949551 73.7268889,25.2914374 75.6037778,25.2914374 C77.5362222,25.2914374 79.0788889,26.0120074 80.2326667,27.4535845 C81.0531111,28.4714771 81.47,29.742531 81.4837778,31.2658719 L71.286,31.2658719 C71.314,32.560974 71.7344444,33.6225904 72.5477778,34.4507212 C73.3615556,35.278852 74.366,35.6929173 75.562,35.6929173 C76.1388889,35.6929173 76.7006667,35.5941013 77.246,35.3969065 C77.7922222,35.1997117 78.2562222,34.9373682 78.6384444,34.6107507 C79.0211111,34.2841331 79.4348889,33.7568228 79.8797778,33.0283825 L79.8797778,33.0283825 Z" id="Fill-18"></path>
            <path d="M83.7569333,25.57831 L85.2467111,25.57831 L85.2467111,27.2078999 C85.6911556,26.5655957 86.1596,26.0855073 86.6529333,25.7680717 C87.1458222,25.4501989 87.6596,25.2914811 88.1942667,25.2914811 C88.5973778,25.2914811 89.0276,25.4178432 89.4862667,25.6705674 L88.7258222,26.8799706 C88.4200444,26.7501106 88.1631556,26.684962 87.9547111,26.684962 C87.4689333,26.684962 87.0000444,26.8812823 86.5484889,27.2743603 C86.0973778,27.6670009 85.7533778,28.2769494 85.5173778,29.1037685 C85.3369333,29.7390768 85.2467111,31.0232479 85.2467111,32.956719 L85.2467111,36.7279059 L83.7569333,36.7279059 L83.7569333,25.57831 Z" id="Fill-19"></path>
            <path d="M90.6137778,36.7280808 L92.072,36.7280808 L92.072,25.5784848 L90.6137778,25.5784848 L90.6137778,36.7280808 Z M91.3377778,20.9874747 C91.6697778,20.9874747 91.9533333,21.1033431 92.188,21.335517 C92.4231111,21.5681282 92.5408889,21.8479612 92.5408889,22.1758905 C92.5408889,22.4972612 92.4231111,22.7740335 92.188,23.0062075 C91.9533333,23.2383814 91.6697778,23.354687 91.3377778,23.354687 C91.0124444,23.354687 90.7324444,23.2383814 90.4973333,23.0062075 C90.2626667,22.7740335 90.1448889,22.4972612 90.1448889,22.1758905 C90.1448889,21.8479612 90.2626667,21.5681282 90.4973333,21.335517 C90.7324444,21.1033431 91.0124444,20.9874747 91.3377778,20.9874747 L91.3377778,20.9874747 Z" id="Fill-20"></path>
            <path d="M95.2100889,25.57831 L96.6683111,25.57831 L96.6683111,27.5764924 C97.2518667,26.8113241 97.8976444,26.2394154 98.6060889,25.8603291 C99.3140889,25.4808056 100.0852,25.2914811 100.918533,25.2914811 C101.765644,25.2914811 102.5172,25.5031048 103.173644,25.9267895 C103.830089,26.3504741 104.314089,26.9206339 104.626533,27.6381432 C104.939422,28.3556524 105.095422,29.472361 105.095422,30.9891433 L105.095422,36.7279059 L103.6372,36.7279059 L103.6372,31.40933 C103.6372,30.1247217 103.582978,29.2677331 103.474978,28.8370526 C103.306089,28.0994304 102.981644,27.5441368 102.502533,27.1720463 C102.023422,26.7995186 101.398533,26.6132548 100.627422,26.6132548 C99.7452,26.6132548 98.9549778,26.9000836 98.2567556,27.4741785 C97.5589778,28.0478361 97.0989778,28.7583496 96.8767556,29.6057189 C96.7380889,30.1592636 96.6683111,31.1701603 96.6683111,32.6388462 L96.6683111,36.7279059 L95.2100889,36.7279059 L95.2100889,25.57831 Z" id="Fill-21"></path>
            <path d="M113.796,26.6748181 C112.969778,26.6748181 112.202222,26.8711384 111.493778,27.2642163 C110.785778,27.656857 110.230222,28.1999079 109.827111,28.893369 C109.424444,29.5868302 109.223111,30.3366952 109.223111,31.142964 C109.223111,32.3659216 109.639556,33.3768183 110.472889,34.1760913 C111.306222,34.9753643 112.386222,35.3750008 113.712889,35.3750008 C115.052889,35.3750008 116.131111,34.9788622 116.947111,34.1865851 C117.763111,33.3938707 118.171111,32.35193 118.171111,31.060763 C118.171111,30.2203896 117.983556,29.4709618 117.608444,28.8116053 C117.233333,28.1522488 116.702222,27.6314971 116.014667,27.2484757 C115.327111,26.8658915 114.587556,26.6748181 113.796,26.6748181 L113.796,26.6748181 Z M118.098222,25.5782225 L119.556444,25.5782225 L119.556444,34.4629201 C119.556444,36.0277987 119.417333,37.1720533 119.139556,37.8961212 C118.757778,38.9210096 118.094667,39.7097888 117.150222,40.2633335 C116.205778,40.8168781 115.070222,41.0936505 113.744,41.0936505 C112.771556,41.0936505 111.898222,40.9581063 111.124,40.6874554 C110.349778,40.4168044 109.719556,40.053896 109.233333,39.5982929 C108.747556,39.1422525 108.299556,38.4759002 107.889778,37.5987987 L109.472889,37.5987987 C109.904,38.3368582 110.460444,38.883407 111.141333,39.2384451 C111.823111,39.5939205 112.668,39.7714395 113.676,39.7714395 C114.670222,39.7714395 115.509778,39.5891109 116.194667,39.2248907 C116.879556,38.8606706 117.368,38.4024441 117.66,37.8515228 C117.952444,37.3001644 118.098222,36.4095084 118.098222,35.1804294 L118.098222,34.6067718 C117.548889,35.2897392 116.878222,35.8139888 116.085333,36.1795207 C115.292889,36.5450525 114.452,36.7278185 113.562667,36.7278185 C112.519556,36.7278185 111.539556,36.4733453 110.621333,35.9643991 C109.704,35.4554528 108.995111,34.7707364 108.494667,33.9098127 C107.993778,33.048889 107.744,32.1027037 107.744,31.0712568 C107.744,30.0393726 108.004444,29.0778839 108.526222,28.1863535 C109.047111,27.294823 109.768444,26.5895564 110.689778,26.0701164 C111.610667,25.5511137 112.582222,25.2913937 113.604,25.2913937 C114.452,25.2913937 115.242667,25.4636659 115.976,25.8090847 C116.709778,26.1540663 117.416444,26.7224771 118.098222,27.5151915 L118.098222,25.5782225 Z" id="Fill-22"></path>
        </g>
    </g>
</svg>