<svg xmlns="http://www.w3.org/2000/svg" width="32" height="36" viewBox="0 0 32 36">
    <g fill="#38D611" fill-rule="evenodd">
        <path d="M5.883 17.77v5.653l5.037 2.826 5.037-2.826 5.037 2.826 5.038-2.826v-5.654l-5.036-2.827-.002 5.654-5.037-2.827-5.037 2.827v-5.653z"/>
        <path d="M15.954 0L0 8.954V26.86l15.954 8.953 15.954-8.953V8.954L15.954 0zM1.482 26.028V9.785l14.472-8.122 14.473 8.122v16.243L15.954 34.15 1.482 26.028z"/>
        <path d="M15.658 1.983V.831h.99v1.152h-.99zm.001 2.304V3.135h.99v1.152h-.99zm0 2.304h.99V5.44h-.99v1.152zm.001 2.304V7.743h.99v1.152h-.99zm.001 2.304h.99v-1.152h-.99V11.2zm0 2.304v-1.152h.99l.001 1.152h-.99zm.001 2.304v-1.152h.99v1.152h-.99zm0 2.304h.991V16.96h-.99v1.152zm.002 2.304v-1.152h.99v1.152h-.99zm0 2.304v-1.152h.99v1.152h-.99zm.001 2.304v-1.152h.99v1.152h-.99zm0 2.304v-1.152h.99l.001 1.152h-.99zm.001 2.304h.99V28.48h-.99v1.152zm.001 2.304v-1.152h.99v1.152h-.99zm0 2.215v-1.063h.99l.001 1.063h-.99z"/>
        <path d="M1.619 10.195L.593 9.619l.296-.5 1.026.577-.296.499zm2.053 1.152l-1.027-.576.297-.5 1.026.577-.296.499zm2.052 1.152l-1.026-.576.297-.5L6.02 12l-.297.499zm2.053 1.152l-1.026-.576.296-.5 1.027.577-.297.499zm2.053 1.152l-1.026-.576.296-.5 1.026.577-.296.499zm2.053 1.152l-1.026-.576.296-.5 1.027.577-.297.499zm2.053 1.152l-1.027-.576.297-.5 1.026.577-.296.499zm2.053 1.152l-1.027-.576.296-.5 1.027.577-.296.499zm2.052 1.152l-1.026-.576.296-.5 1.027.577-.297.499zm2.053 1.152l-1.026-.576.296-.5 1.026.577-.296.499zm2.053 1.152l-1.026-.576.296-.5 1.026.577-.296.499zm2.053 1.152l-1.027-.576.297-.5 1.026.577-.296.499zm2.053 1.152l-1.027-.576.297-.5 1.026.577-.296.499zm2.052 1.152l-1.026-.576.296-.5 1.027.577-.297.499zm2.053 1.152l-1.026-.576.296-.5 1.026.577-.296.499z"/>
        <path d="M30.251 10.232l-.302-.496 1.02-.587.301.495-1.019.588zm-2.039 1.175l-.302-.496 1.02-.587.302.496-1.02.587zm-2.04 1.175l-.301-.496 1.02-.587.302.495-1.02.588zm-2.038 1.175l-.302-.496 1.02-.587.302.495-1.02.588zm-2.039 1.175l-.302-.496 1.02-.587.302.495-1.02.588zm-2.039 1.174l-.302-.495 1.02-.588.301.496-1.019.587zm-2.039 1.176l-.302-.496 1.02-.587.301.495-1.019.588zm-2.039 1.174l-.302-.495 1.02-.588.302.496-1.02.587zm-2.04 1.175l-.301-.495 1.02-.588.301.496-1.02.587zM11.9 20.806l-.302-.495 1.02-.588.302.496-1.02.587zm-2.04 1.175l-.301-.496 1.02-.587.302.496-1.02.587zm-2.038 1.175l-.302-.496 1.02-.587.301.495-1.019.588zm-2.039 1.175l-.302-.496 1.02-.587.301.495-1.019.588zm-2.04 1.175l-.301-.496 1.02-.587.301.495-1.02.588zM1.706 26.68l-.302-.496 1.02-.587.301.495-1.02.588z"/>
    </g>
</svg>
