<svg xmlns="http://www.w3.org/2000/svg" viewBox="0 0 360 360"><defs><style>.cls-1{fill:#00152b;}</style></defs><g id="Layer_5" data-name="Layer 5"><polyline class="cls-1" points="166.79 192.16 189.99 205.55 213.18 192.16 213.18 165.37 189.99 151.98 189.99 178.76 166.79 165.37"/><polyline class="cls-1" points="166.79 165.37 143.6 178.76 143.6 151.98 120.4 165.37 120.4 192.16 143.6 205.55 166.79 192.16"/><polygon class="cls-1" points="189.23 231.99 167.27 244.67 145.46 232.08 167.27 219.31 189.23 231.99"/><polygon class="cls-1" points="236.05 125.53 236.05 204.96 189.23 231.99 235.88 204.96 222.94 197.49 222.94 132.33 235.88 125.53 235.92 125.46 236.05 125.53"/><polygon class="cls-1" points="111.42 133 111.42 198.16 98.48 204.96 98.48 125.53 111.42 133"/><path class="cls-1" d="M98.48,205.57a.62.62,0,0,1-.32-.09.6.6,0,0,1-.29-.52V125.53a.61.61,0,0,1,.91-.53l12.94,7.47a.61.61,0,0,1,.31.53v65.16a.6.6,0,0,1-.33.54l-12.94,6.8A.55.55,0,0,1,98.48,205.57Zm.61-79V204l11.72-6.16V133.35Z"/><path class="cls-1" d="M189.23,232.6a.61.61,0,0,1-.31-1.14l46.52-26.85V125.89L167.27,86.52,98.78,126.06a.61.61,0,0,1-.83-.22.62.62,0,0,1,.22-.84L167,85.28a.61.61,0,0,1,.61,0L236.34,125a.64.64,0,0,1,.32.54V205a.61.61,0,0,1-.31.53l-46.82,27A.54.54,0,0,1,189.23,232.6Z"/><path class="cls-1" d="M167.27,245.28a.68.68,0,0,1-.31-.08l-21.81-12.59a.63.63,0,0,1-.3-.53.62.62,0,0,1,.3-.53L167,218.79a.58.58,0,0,1,.61,0l22,12.68a.61.61,0,0,1,0,1.06l-22,12.68A.64.64,0,0,1,167.27,245.28Zm-20.6-13.2L167.27,244,188,232l-20.74-12Z"/><path class="cls-1" d="M189.23,232.6a.61.61,0,0,1-.31-1.14L234.66,205l-12-6.94a.6.6,0,0,1-.3-.53V132.33a.61.61,0,0,1,.32-.54l12.94-6.8a.61.61,0,1,1,.57,1.08l-12.61,6.63v64.44l12.63,7.29a.61.61,0,0,1,0,1.06l-46.65,27A.54.54,0,0,1,189.23,232.6Z"/></g></svg>