<?xml version="1.0" encoding="UTF-8"?>
<svg width="436px" height="60px" viewBox="0 0 436 60" version="1.1" xmlns="http://www.w3.org/2000/svg" xmlns:xlink="http://www.w3.org/1999/xlink">
    <!-- Generator: Sketch 53.2 (72643) - https://sketchapp.com -->
    <title>logos/SeMI/technologies/horizontal/white-accent</title>
    <desc>Created with Sketch.</desc>
    <g id="logos/SeMI/technologies/horizontal/white-accent" stroke="none" stroke-width="1" fill="none" fill-rule="evenodd">
        <g id="Group" transform="translate(68.000000, 15.000000)" fill="#FFFFFF" fill-rule="nonzero">
            <path d="M18.3398438,5.17578125 L14.296875,8.75 C12.8775971,6.77082344 11.432299,5.78125 9.9609375,5.78125 C9.24478809,5.78125 8.65885645,5.97330537 8.203125,6.35742188 C7.74739355,6.74153838 7.51953125,7.17447676 7.51953125,7.65625 C7.51953125,8.13802324 7.68229004,8.59374785 8.0078125,9.0234375 C8.45052305,9.59635703 9.78514512,10.8268135 12.0117188,12.7148438 C14.0950625,14.4596441 15.3580707,15.5598936 15.8007813,16.015625 C16.9075576,17.1354223 17.692055,18.2063751 18.1542969,19.2285156 C18.6165388,20.2506562 18.8476562,21.3671814 18.8476562,22.578125 C18.8476562,24.9349076 18.0338623,26.8815027 16.40625,28.4179688 C14.7786377,29.9544348 12.6562631,30.7226562 10.0390625,30.7226562 C7.99478145,30.7226562 6.21420029,30.2213592 4.69726562,29.21875 C3.18033096,28.2161408 1.88151582,26.6406357 0.80078125,24.4921875 L5.390625,21.71875 C6.77084023,24.2578252 8.35936602,25.5273438 10.15625,25.5273438 C11.0937547,25.5273438 11.8815072,25.253909 12.5195312,24.7070312 C13.1575553,24.1601535 13.4765625,23.5286494 13.4765625,22.8125 C13.4765625,22.1614551 13.2356795,21.5104199 12.7539062,20.859375 C12.272133,20.2083301 11.2109457,19.2122463 9.5703125,17.8710938 C6.44529688,15.3189977 4.42708789,13.3496163 3.515625,11.9628906 C2.60416211,10.5761649 2.1484375,9.19271523 2.1484375,7.8125 C2.1484375,5.82030254 2.90689346,4.11133525 4.42382812,2.68554688 C5.94076279,1.2597585 7.81248887,0.546875 10.0390625,0.546875 C11.4713613,0.546875 12.83528,0.87890293 14.1308594,1.54296875 C15.4264388,2.20703457 16.8294195,3.41795996 18.3398438,5.17578125 Z M44.7851562,20.9179688 L27.65625,20.9179688 C27.9036471,22.428393 28.5644478,23.6295528 29.6386719,24.5214844 C30.712896,25.4134159 32.083325,25.859375 33.75,25.859375 C35.7421975,25.859375 37.4544199,25.1627674 38.8867188,23.7695312 L43.3789062,25.8789062 C42.259109,27.4674559 40.9179766,28.6425743 39.3554688,29.4042969 C37.7929609,30.1660194 35.9375107,30.546875 33.7890625,30.546875 C30.4557125,30.546875 27.7408959,29.4954532 25.6445312,27.3925781 C23.5481666,25.289703 22.5,22.6562658 22.5,19.4921875 C22.5,16.2499838 23.5449114,13.5579534 25.6347656,11.4160156 C27.7246198,9.27407783 30.3450363,8.203125 33.4960938,8.203125 C36.8424646,8.203125 39.5637916,9.27407783 41.6601562,11.4160156 C43.7565209,13.5579534 44.8046875,16.3867012 44.8046875,19.9023438 L44.7851562,20.9179688 Z M39.4335938,16.71875 C39.0820295,15.5338482 38.3886771,14.5703162 37.3535156,13.828125 C36.3183542,13.0859338 35.1171943,12.7148438 33.75,12.7148438 C32.2656176,12.7148438 30.9635473,13.1315063 29.84375,13.9648438 C29.1406215,14.4856797 28.4895863,15.4036393 27.890625,16.71875 L39.4335938,16.71875 Z M52.4609375,1.26953125 L57.8125,1.26953125 L64.453125,21.3085938 L71.1914062,1.26953125 L76.4648438,1.26953125 L81.3085938,30 L76.0351562,30 L72.9492188,11.8554688 L66.8359375,30 L62.0117188,30 L55.9765625,11.8554688 L52.8320312,30 L47.5,30 L52.4609375,1.26953125 Z M85.2929688,1.26953125 L90.7226562,1.26953125 L90.7226562,30 L85.2929688,30 L85.2929688,1.26953125 Z M105.429688,4.0625 L105.429688,1.26953125 L121.191406,1.26953125 L121.191406,4.0625 L114.785156,4.0625 L114.785156,30 L111.855469,30 L111.855469,4.0625 L105.429688,4.0625 Z M142.753906,22.9492188 L145.058594,24.1601562 C144.303382,25.6445387 143.430995,26.8424434 142.441406,27.7539062 C141.451818,28.6653691 140.338548,29.3587216 139.101562,29.8339844 C137.864577,30.3092472 136.464852,30.546875 134.902344,30.546875 C131.438785,30.546875 128.730479,29.4108187 126.777344,27.1386719 C124.824209,24.8665251 123.847656,22.2981914 123.847656,19.4335938 C123.847656,16.7382678 124.674471,14.335948 126.328125,12.2265625 C128.42449,9.54425742 131.230451,8.203125 134.746094,8.203125 C138.365904,8.203125 141.2565,9.57680918 143.417969,12.3242188 C144.954435,14.2643326 145.735677,16.6861834 145.761719,19.5898438 L126.660156,19.5898438 C126.71224,22.0638145 127.499992,24.091789 129.023438,25.6738281 C130.546883,27.2558673 132.428374,28.046875 134.667969,28.046875 C135.748703,28.046875 136.800125,27.8580748 137.822266,27.4804688 C138.844406,27.1028627 139.713538,26.6015656 140.429688,25.9765625 C141.145837,25.3515594 141.920569,24.3424549 142.753906,22.9492188 Z M142.753906,17.2265625 C142.389321,15.7682219 141.858727,14.6028689 141.162109,13.7304688 C140.465491,12.8580686 139.544277,12.1549506 138.398438,11.6210938 C137.252598,11.0872369 136.048183,10.8203125 134.785156,10.8203125 C132.701813,10.8203125 130.911466,11.4908787 129.414062,12.8320312 C128.320307,13.8085986 127.493492,15.2734277 126.933594,17.2265625 L142.753906,17.2265625 Z M171.484375,13.1640625 L169.316406,14.5117188 C167.441397,12.0247271 164.882829,10.78125 161.640625,10.78125 C159.049466,10.78125 156.897795,11.614575 155.185547,13.28125 C153.473299,14.947925 152.617188,16.9726443 152.617188,19.3554688 C152.617188,20.9049557 153.011064,22.3632744 153.798828,23.7304688 C154.586592,25.0976631 155.667311,26.1588504 157.041016,26.9140625 C158.41472,27.6692746 159.954419,28.046875 161.660156,28.046875 C164.785172,28.046875 167.33723,26.8033979 169.316406,24.3164062 L171.484375,25.7421875 C170.468745,27.2656326 169.104826,28.4472614 167.392578,29.2871094 C165.68033,30.1269573 163.73048,30.546875 161.542969,30.546875 C158.183577,30.546875 155.397146,29.4791773 153.183594,27.34375 C150.970041,25.2083227 149.863281,22.6106924 149.863281,19.5507812 C149.863281,17.4934793 150.380854,15.5826911 151.416016,13.8183594 C152.451177,12.0540276 153.873689,10.6770883 155.683594,9.6875 C157.493499,8.69791172 159.518218,8.203125 161.757812,8.203125 C163.16407,8.203125 164.521478,8.4179666 165.830078,8.84765625 C167.138678,9.2773459 168.248693,9.83723613 169.160156,10.5273438 C170.071619,11.2174514 170.846351,12.0963488 171.484375,13.1640625 Z M176.738281,0.546875 L179.472656,0.546875 L179.472656,12.5585938 C180.579433,11.1002531 181.796868,10.0097692 183.125,9.28710938 C184.453132,8.56444951 185.891919,8.203125 187.441406,8.203125 C189.029956,8.203125 190.439447,8.6067668 191.669922,9.4140625 C192.900397,10.2213582 193.808591,11.3053317 194.394531,12.6660156 C194.980472,14.0266995 195.273438,16.1588396 195.273438,19.0625 L195.273438,30 L192.539062,30 L192.539062,19.8632812 C192.539062,17.4153523 192.441407,15.7812541 192.246094,14.9609375 C191.90755,13.5546805 191.292322,12.4967483 190.400391,11.7871094 C189.508459,11.0774704 188.339851,10.7226562 186.894531,10.7226562 C185.240877,10.7226562 183.759772,11.2695258 182.451172,12.3632812 C181.142572,13.4570367 180.27995,14.8111898 179.863281,16.4257812 C179.602863,17.4674531 179.472656,19.3945172 179.472656,22.2070312 L179.472656,30 L176.738281,30 L176.738281,0.546875 Z M201.132812,8.75 L203.867188,8.75 L203.867188,12.5585938 C204.960943,11.1002531 206.171868,10.0097692 207.5,9.28710938 C208.828132,8.56444951 210.27343,8.203125 211.835938,8.203125 C213.424487,8.203125 214.833978,8.6067668 216.064453,9.4140625 C217.294928,10.2213582 218.203122,11.3085869 218.789062,12.6757812 C219.375003,14.0429756 219.667969,16.1718605 219.667969,19.0625 L219.667969,30 L216.953125,30 L216.953125,19.8632812 C216.953125,17.4153523 216.848959,15.7812541 216.640625,14.9609375 C216.315103,13.5546805 215.703129,12.4967483 214.804688,11.7871094 C213.906246,11.0774704 212.734382,10.7226562 211.289062,10.7226562 C209.635408,10.7226562 208.154303,11.2695258 206.845703,12.3632812 C205.537103,13.4570367 204.674481,14.8111898 204.257812,16.4257812 C203.997395,17.480474 203.867188,19.4075381 203.867188,22.2070312 L203.867188,30 L201.132812,30 L201.132812,8.75 Z M235.585938,8.203125 C238.854183,8.203125 241.562489,9.38800898 243.710938,11.7578125 C245.664072,13.9192816 246.640625,16.4778498 246.640625,19.4335938 C246.640625,22.4023586 245.608734,24.9967337 243.544922,27.2167969 C241.481109,29.4368601 238.828141,30.546875 235.585938,30.546875 C232.330713,30.546875 229.671234,29.4368601 227.607422,27.2167969 C225.543609,24.9967337 224.511719,22.4023586 224.511719,19.4335938 C224.511719,16.4908707 225.488271,13.9388129 227.441406,11.7773438 C229.589854,9.39451934 232.304671,8.203125 235.585938,8.203125 Z M235.585938,10.8789062 C233.320301,10.8789062 231.373706,11.7187416 229.746094,13.3984375 C228.118481,15.0781334 227.304688,17.1093631 227.304688,19.4921875 C227.304688,21.0286535 227.675778,22.4609309 228.417969,23.7890625 C229.16016,25.1171941 230.162754,26.1425745 231.425781,26.8652344 C232.688808,27.5878942 234.075513,27.9492188 235.585938,27.9492188 C237.096362,27.9492188 238.483067,27.5878942 239.746094,26.8652344 C241.009121,26.1425745 242.011715,25.1171941 242.753906,23.7890625 C243.496097,22.4609309 243.867188,21.0286535 243.867188,19.4921875 C243.867188,17.1093631 243.050138,15.0781334 241.416016,13.3984375 C239.781893,11.7187416 237.838553,10.8789062 235.585938,10.8789062 Z M251.308594,0.546875 L254.042969,0.546875 L254.042969,30 L251.308594,30 L251.308594,0.546875 Z M269.785156,8.203125 C273.053402,8.203125 275.761708,9.38800898 277.910156,11.7578125 C279.863291,13.9192816 280.839844,16.4778498 280.839844,19.4335938 C280.839844,22.4023586 279.807953,24.9967337 277.744141,27.2167969 C275.680328,29.4368601 273.02736,30.546875 269.785156,30.546875 C266.529932,30.546875 263.870453,29.4368601 261.806641,27.2167969 C259.742828,24.9967337 258.710938,22.4023586 258.710938,19.4335938 C258.710938,16.4908707 259.68749,13.9388129 261.640625,11.7773438 C263.789073,9.39451934 266.50389,8.203125 269.785156,8.203125 Z M269.785156,10.8789062 C267.51952,10.8789062 265.572925,11.7187416 263.945312,13.3984375 C262.3177,15.0781334 261.503906,17.1093631 261.503906,19.4921875 C261.503906,21.0286535 261.874996,22.4609309 262.617188,23.7890625 C263.359379,25.1171941 264.361973,26.1425745 265.625,26.8652344 C266.888027,27.5878942 268.274732,27.9492188 269.785156,27.9492188 C271.29558,27.9492188 272.682285,27.5878942 273.945312,26.8652344 C275.20834,26.1425745 276.210934,25.1171941 276.953125,23.7890625 C277.695316,22.4609309 278.066406,21.0286535 278.066406,19.4921875 C278.066406,17.1093631 277.249357,15.0781334 275.615234,13.3984375 C273.981112,11.7187416 272.037772,10.8789062 269.785156,10.8789062 Z M304.21875,8.75 L306.972656,8.75 L306.972656,25.6835938 C306.972656,28.6653795 306.712242,30.8463473 306.191406,32.2265625 C305.475257,34.1796973 304.23178,35.6835885 302.460938,36.7382812 C300.690095,37.792974 298.56121,38.3203125 296.074219,38.3203125 C294.251293,38.3203125 292.61394,38.0631536 291.162109,37.5488281 C289.710279,37.0345026 288.52865,36.3444054 287.617188,35.4785156 C286.705725,34.6126259 285.865889,33.3463625 285.097656,31.6796875 L288.066406,31.6796875 C288.873702,33.0859445 289.915358,34.1276008 291.191406,34.8046875 C292.467454,35.4817742 294.04947,35.8203125 295.9375,35.8203125 C297.799488,35.8203125 299.371738,35.4720087 300.654297,34.7753906 C301.936855,34.0787726 302.85156,33.2031303 303.398438,32.1484375 C303.945315,31.0937447 304.21875,29.394543 304.21875,27.0507812 L304.21875,25.9570312 C303.190099,27.2591211 301.933601,28.2584601 300.449219,28.9550781 C298.964836,29.6516962 297.389331,30 295.722656,30 C293.769521,30 291.933602,29.5149788 290.214844,28.5449219 C288.496085,27.5748649 287.167973,26.2695395 286.230469,24.6289062 C285.292964,22.988273 284.824219,21.1849057 284.824219,19.21875 C284.824219,17.2525943 285.312495,15.4199304 286.289062,13.7207031 C287.26563,12.0214759 288.616528,10.6770883 290.341797,9.6875 C292.067066,8.69791172 293.886709,8.203125 295.800781,8.203125 C297.389331,8.203125 298.870436,8.53189775 300.244141,9.18945312 C301.617845,9.8470085 302.942702,10.930982 304.21875,12.4414062 L304.21875,8.75 Z M296.152344,10.8398438 C294.602857,10.8398438 293.164069,11.214189 291.835938,11.9628906 C290.507806,12.7115923 289.46615,13.7467382 288.710938,15.0683594 C287.955725,16.3899806 287.578125,17.8190027 287.578125,19.3554688 C287.578125,21.6862096 288.359367,23.6132736 289.921875,25.1367188 C291.484383,26.6601639 293.509102,27.421875 295.996094,27.421875 C298.509127,27.421875 300.530591,26.6666742 302.060547,25.15625 C303.590502,23.6458258 304.355469,21.6601686 304.355469,19.1992188 C304.355469,17.5976482 304.00391,16.1686261 303.300781,14.9121094 C302.597653,13.6555927 301.601569,12.6627641 300.3125,11.9335938 C299.023431,11.2044234 297.636726,10.8398438 296.152344,10.8398438 Z M313.789062,0 C314.414066,0 314.947914,0.221351953 315.390625,0.6640625 C315.833336,1.10677305 316.054688,1.64062188 316.054688,2.265625 C316.054688,2.87760723 315.833336,3.4049457 315.390625,3.84765625 C314.947914,4.2903668 314.414066,4.51171875 313.789062,4.51171875 C313.17708,4.51171875 312.649742,4.2903668 312.207031,3.84765625 C311.764321,3.4049457 311.542969,2.87760723 311.542969,2.265625 C311.542969,1.64062188 311.764321,1.10677305 312.207031,0.6640625 C312.649742,0.221351953 313.17708,0 313.789062,0 Z M312.421875,8.75 L315.175781,8.75 L315.175781,30 L312.421875,30 L312.421875,8.75 Z M338.730469,22.9492188 L341.035156,24.1601562 C340.279944,25.6445387 339.407557,26.8424434 338.417969,27.7539062 C337.42838,28.6653691 336.31511,29.3587216 335.078125,29.8339844 C333.84114,30.3092472 332.441414,30.546875 330.878906,30.546875 C327.415347,30.546875 324.707041,29.4108187 322.753906,27.1386719 C320.800771,24.8665251 319.824219,22.2981914 319.824219,19.4335938 C319.824219,16.7382678 320.651033,14.335948 322.304688,12.2265625 C324.401052,9.54425742 327.207014,8.203125 330.722656,8.203125 C334.342466,8.203125 337.233062,9.57680918 339.394531,12.3242188 C340.930997,14.2643326 341.712239,16.6861834 341.738281,19.5898438 L322.636719,19.5898438 C322.688802,22.0638145 323.476555,24.091789 325,25.6738281 C326.523445,27.2558673 328.404937,28.046875 330.644531,28.046875 C331.725266,28.046875 332.776688,27.8580748 333.798828,27.4804688 C334.820969,27.1028627 335.690101,26.6015656 336.40625,25.9765625 C337.122399,25.3515594 337.897131,24.3424549 338.730469,22.9492188 Z M338.730469,17.2265625 C338.365884,15.7682219 337.83529,14.6028689 337.138672,13.7304688 C336.442054,12.8580686 335.520839,12.1549506 334.375,11.6210938 C333.229161,11.0872369 332.024746,10.8203125 330.761719,10.8203125 C328.678375,10.8203125 326.888028,11.4908787 325.390625,12.8320312 C324.29687,13.8085986 323.470055,15.2734277 322.910156,17.2265625 L338.730469,17.2265625 Z M357.519531,11.0742188 L355.761719,12.890625 C354.303378,11.4713471 352.877611,10.7617188 351.484375,10.7617188 C350.598954,10.7617188 349.840498,11.0546846 349.208984,11.640625 C348.577471,12.2265654 348.261719,12.9101523 348.261719,13.6914062 C348.261719,14.3815139 348.522133,15.0390594 349.042969,15.6640625 C349.563805,16.3020865 350.657544,17.050777 352.324219,17.9101562 C354.355479,18.964849 355.735673,19.9804639 356.464844,20.9570312 C357.180993,21.9466195 357.539062,23.0598896 357.539062,24.296875 C357.539062,26.0416754 356.927089,27.5195252 355.703125,28.7304688 C354.479161,29.9414123 352.949228,30.546875 351.113281,30.546875 C349.889317,30.546875 348.720709,30.2799506 347.607422,29.7460938 C346.494135,29.2122369 345.57292,28.4765672 344.84375,27.5390625 L346.5625,25.5859375 C347.955736,27.1614662 349.433586,27.9492188 350.996094,27.9492188 C352.089849,27.9492188 353.020829,27.5976598 353.789062,26.8945312 C354.557296,26.1914027 354.941406,25.3645881 354.941406,24.4140625 C354.941406,23.6328086 354.687503,22.936201 354.179688,22.3242188 C353.671872,21.7252574 352.526051,20.9700566 350.742188,20.0585938 C348.828115,19.0690055 347.526045,18.0924527 346.835938,17.1289062 C346.14583,16.1653598 345.800781,15.0651104 345.800781,13.828125 C345.800781,12.2135336 346.350906,10.8724012 347.451172,9.8046875 C348.551438,8.73697383 349.941398,8.203125 351.621094,8.203125 C353.574229,8.203125 355.540355,9.16014668 357.519531,11.0742188 Z" id="SeMITechnologies"></path>
        </g>
        <g id="SeMI-1_hc-Copy">
            <polygon id="Path" fill="#BB075A" points="0.38953405 15.195 0.38953405 44.64 13.1243011 51.9975 13.1243011 37.275 25.8590681 29.9175"></polygon>
            <polygon id="Path" fill="#FA0171" points="38.5938351 7.8375 25.8590681 0.4725 0.38953405 15.195 13.1243011 22.56"></polygon>
            <polygon id="Path" fill="#FA0171" points="51.3286022 44.64 38.5938351 37.275 13.1243011 51.9975 25.8590681 59.3625"></polygon>
            <polygon id="Path" fill="#BB075A" points="51.3286022 44.64 51.3286022 15.195 38.5938351 7.8375 38.5938351 22.56 25.8590681 29.9175"></polygon>
        </g>
    </g>
</svg>