<svg xmlns="http://www.w3.org/2000/svg" viewBox="0 0 360 360"><defs><style>.cls-1{fill:#00152b;}</style></defs><g id="Layer_2" data-name="Layer 2"><path class="cls-1" d="M124.89,133.1l0,92.35L180,257.74l55.14-32.29V165.94l0-31.84-55.05-12.95Zm104.25,32.84v12l-23.09-13.34V194l-25.5-14.72v29.44l25.5,14.72,23.09-13.33V222l-48.63,28.47,0-41.74-25.48,14.71-24.13-13.92v-31l24.13-13.93V194l25.48-14.72,0-51.86,48.56,11.43Z"/><path class="cls-1" d="M256.27,224,254,225.32l.75,1.3,2.6-1.5a.76.76,0,0,0,.38-.65v-3h-1.5Z"/><rect class="cls-1" x="256.27" y="208.71" width="1.5" height="6.38"/><rect class="cls-1" x="256.27" y="195.95" width="1.5" height="6.38"/><rect class="cls-1" x="256.27" y="144.91" width="1.5" height="6.38"/><rect class="cls-1" x="256.27" y="157.67" width="1.5" height="6.38"/><rect class="cls-1" x="256.27" y="183.19" width="1.5" height="6.38"/><rect class="cls-1" x="256.27" y="170.43" width="1.5" height="6.38"/><path class="cls-1" d="M257.39,134.88l-2.6-1.5-.75,1.3,2.23,1.29v2.56h1.5v-3A.76.76,0,0,0,257.39,134.88Z"/><rect class="cls-1" x="212.23" y="106.92" width="1.5" height="6.38" transform="translate(11.13 239.5) rotate(-60)"/><rect class="cls-1" x="223.28" y="113.3" width="1.5" height="6.38" transform="translate(11.15 252.28) rotate(-60)"/><rect class="cls-1" x="201.18" y="100.54" width="1.5" height="6.38" transform="translate(11.13 226.75) rotate(-60)"/><rect class="cls-1" x="190.13" y="94.16" width="1.5" height="6.38" transform="translate(11.12 213.96) rotate(-59.99)"/><rect class="cls-1" x="234.33" y="119.68" width="1.5" height="6.38" transform="translate(11.12 265) rotate(-59.99)"/><rect class="cls-1" x="245.38" y="126.06" width="1.5" height="6.38" transform="translate(11.13 277.78) rotate(-60)"/><path class="cls-1" d="M180,91.93l2.22,1.29.75-1.3-2.59-1.5a.72.72,0,0,0-.75,0l-2.6,1.5.75,1.3Z"/><rect class="cls-1" x="110.68" y="128.5" width="6.38" height="1.5" transform="translate(-49.37 74.26) rotate(-30)"/><rect class="cls-1" x="121.73" y="122.12" width="6.38" height="1.5" transform="translate(-44.7 78.93) rotate(-30)"/><rect class="cls-1" x="132.78" y="115.74" width="6.38" height="1.5" transform="translate(-40.03 83.6) rotate(-30)"/><rect class="cls-1" x="154.88" y="102.98" width="6.38" height="1.5" transform="translate(-30.69 92.94) rotate(-30)"/><rect class="cls-1" x="143.83" y="109.36" width="6.38" height="1.5" transform="translate(-35.36 88.27) rotate(-30)"/><rect class="cls-1" x="165.93" y="96.6" width="6.38" height="1.5" transform="translate(-26.02 97.61) rotate(-30)"/><path class="cls-1" d="M102.61,134.88a.76.76,0,0,0-.38.65v3h1.5V136l2.23-1.29-.75-1.3Z"/><rect class="cls-1" x="102.23" y="183.19" width="1.5" height="6.38"/><rect class="cls-1" x="102.23" y="195.95" width="1.5" height="6.38"/><rect class="cls-1" x="102.23" y="157.67" width="1.5" height="6.38"/><rect class="cls-1" x="102.23" y="170.43" width="1.5" height="6.38"/><rect class="cls-1" x="102.23" y="144.91" width="1.5" height="6.38"/><rect class="cls-1" x="102.23" y="208.71" width="1.5" height="6.38"/><path class="cls-1" d="M103.73,221.47h-1.5v3a.76.76,0,0,0,.38.65l2.6,1.5.75-1.3L103.73,224Z"/><rect class="cls-1" x="135.22" y="240.32" width="1.5" height="6.38" transform="translate(-142.9 239.53) rotate(-60)"/><rect class="cls-1" x="157.32" y="253.08" width="1.5" height="6.38" transform="translate(-142.9 264.99) rotate(-59.99)"/><rect class="cls-1" x="168.36" y="259.46" width="1.5" height="6.38" transform="translate(-142.9 277.81) rotate(-60)"/><rect class="cls-1" x="113.12" y="227.56" width="1.5" height="6.38" transform="translate(-142.9 213.99) rotate(-60)"/><rect class="cls-1" x="124.17" y="233.94" width="1.5" height="6.38" transform="translate(-142.9 226.75) rotate(-60)"/><rect class="cls-1" x="146.27" y="246.7" width="1.5" height="6.38" transform="translate(-142.9 252.27) rotate(-60)"/><path class="cls-1" d="M180,268.07l-2.22-1.29-.75,1.3,2.6,1.5a.69.69,0,0,0,.37.1.75.75,0,0,0,.38-.1l2.59-1.5-.75-1.3Z"/><rect class="cls-1" x="220.84" y="242.76" width="6.38" height="1.5" transform="translate(-91.75 144.66) rotate(-30)"/><rect class="cls-1" x="231.89" y="236.38" width="6.38" height="1.5" transform="translate(-87.08 149.33) rotate(-30)"/><rect class="cls-1" x="242.94" y="230" width="6.38" height="1.5" transform="translate(-82.41 154) rotate(-30)"/><rect class="cls-1" x="187.7" y="261.9" width="6.38" height="1.5" transform="translate(-105.76 130.65) rotate(-30)"/><rect class="cls-1" x="209.79" y="249.14" width="6.38" height="1.5" transform="translate(-96.42 139.99) rotate(-30)"/><rect class="cls-1" x="198.75" y="255.52" width="6.38" height="1.5" transform="translate(-101.09 135.32) rotate(-30)"/></g></svg>