<svg xmlns="http://www.w3.org/2000/svg" width="100" height="100" viewBox="0 0 100 100">
    <defs>
        <linearGradient id="a" x1="49.981%" x2="49.981%" y1=".212%" y2="99.999%">
            <stop offset="0%" stop-color="#364A68"/>
            <stop offset="100%" stop-color="#FA0171"/>
        </linearGradient>
        <linearGradient id="b" x1=".005%" x2="100.001%" y1="49.991%" y2="49.991%">
            <stop offset="0%" stop-color="#364A68"/>
            <stop offset="100%" stop-color="#FA0171"/>
        </linearGradient>
        <linearGradient id="c" x1="-.003%" x2="100.03%" y1="49.925%" y2="49.925%">
            <stop offset="0%" stop-color="#364A68"/>
            <stop offset="100%" stop-color="#FA0171"/>
        </linearGradient>
        <linearGradient id="d" x1="0%" y1="49.987%" y2="49.987%">
            <stop offset="0%" stop-color="#364A68"/>
            <stop offset="100%" stop-color="#FA0171"/>
        </linearGradient>
    </defs>
    <g fill="none" fill-rule="nonzero">
        <path fill="#FA0171" d="M48.825 50.595L47.777 50l.269-.446 1.048.635-.269.406zm1.344-.5l-.269-.446 1.062-.635.269.445-1.062.636zm-3.453-.77l-1.062-.676.269-.446 1.061.635-.268.486zm5.563-.487l-.269-.46 1.048-.635.269.46-1.048.635zm-7.687-.784l-1.048-.635.256-.446 1.061.635-.268.446zm9.783-.486l-.269-.46 1.062-.635.269.46-1.062.635zm-11.906-.784l-1.061-.635.269-.446 1.061.635-.269.446zm14.03-.487l-.27-.46 1.062-.634.255.46-1.048.634zm-16.126-.783l-1.061-.636.268-.446 1.062.636-.269.446zm18.262-.487l-.229-.432 1.062-.636.269.46-1.102.608zm-20.385-.784l-1.062-.635.27-.446 1.06.635-.268.446zm22.494-.486l-.268-.46 1.061-.635.269.46-1.062.635zm-24.617-.784l-1.062-.622.27-.46 1.06.636-.268.446zm26.727-.487l-.269-.459 1.062-.635.269.46-1.062.634zm-28.837-.77l-1.061-.635.268-.46 1.062.636-.269.46zm30.906-.5l-.268-.46 1.061-.634.269.46-1.062.634zm-33.083-.77l-1.061-.635.269-.46 1.061.635-.269.46zm35.193-.5l-.269-.46 1.062-.635.269.46-1.062.635zm-37.249-.757l-1.061-.635.269-.46 1.048.636-.256.46zm39.372-.513l-.268-.46 1.061-.635.269.46-1.062.635zm-41.548-.77l-1.062-.636.269-.46 1.061.636-.268.46zm43.658-.5l-.255-.447 1.048-.635.269.446-1.062.635zm-45.782-.77L24.436 36l.269-.46 1.048.636-.269.46zm47.905-.5l-.269-.447 1.062-.635.269.446-1.062.635zm-49.92-.771l-1.062-.635.269-.46 1.062.635-.27.46zm52.137-.5l-.268-.446 1.048-.635.268.446-1.048.635zm-54.26-.77l-1.048-.636.268-.459 1.048.635-.268.46zm56.437-.5l-.269-.446 1.062-.635.269.445-1.062.636zm-58.48-.77l-1.21-.636.27-.46 1.075.703-.135.392zm60.603-.5l-.268-.447 1.048-.635.268.446-1.048.635zm-62.726-.77l-1.048-.636.269-.446 1.048.622-.269.46zm64.728-.474l-.268-.446L82.7 30l.269.446-1.062.635zm-66.945-.77l-1.062-.635.269-.446 1.062.635-.27.446zm69.069-.5l-.27-.446 1.049-.635.269.446-1.048.635zm-71.22-.77l-1.034-.663.269-.446 1.061.636-.295.473zm73.302-.5l-.268-.446 1.061-.636.269.446-1.062.636zm-75.41-.77l-1.062-.636.268-.446 1.062.635-.269.446zm77.534-.5l-.27-.447 1.062-.635.27.446-1.063.635zM8.58 26.5l-1.062-.635.27-.446 1.06.635-.268.446zm81.767-.5l-.269-.446.242-.135.256.446-.229.135zM49.336 97.716h-.524v-1.135h.524v1.135zm0-2.27h-.524v-1.149h.524v1.149zm0-2.284h-.524v-1.135h.524v1.135zm0-2.27h-.524v-1.149h.524v1.149zm0-2.284h-.524v-1.135h.524v1.135zm0-2.27h-.524v-1.203h.524v1.203zm0-2.284h-.524V82.92h.524v1.135zm0-2.27h-.524v-1.135h.524v1.135zm0-2.284h-.524v-1.122h.524V79.5zm0-2.27h-.524v-1.135h.524v1.135zm0-2.284h-.524V73.81h.524v1.135zm0-2.27h-.524V71.54h.524v1.135zm0-2.284h-.524v-1.135h.524v1.135zm0-2.27h-.524v-1.136h.524v1.136zm0-2.284h-.524v-1.135h.524v1.135zm0-2.27h-.524v-1.136h.524v1.136zm0-2.284h-.524v-1.135h.524v1.135zm0-2.27h-.524v-1.136h.524v1.136zm0-2.27h-.524v-1.15h.524v1.15zm0-2.285h-.524v-1.135h.524v1.135zm0-2.27h-.524v-1.148h.524v1.148z"/>
        <path fill="url(#a)" d="M42.242 98.297a.642.642 0 0 1-.35-.094L1.096 74.527H.841A.7.7 0 0 1 .169 74a.802.802 0 0 1 0-.31.747.747 0 0 1 .08-.474.686.686 0 0 1 .955-.257l.228.122.108.081h.107L42.255 96.73 82.568 73.35a.686.686 0 0 1 .672-.54h.416c.315.003.592.21.686.513a.611.611 0 0 1 0 .311.611.611 0 0 1 0 .31.713.713 0 0 1-.686.528h-.255l-40.81 23.73a.642.642 0 0 1-.35.094z" transform="translate(7 1)"/>
        <path fill="url(#b)" d="M.989 73.851a.4.4 0 0 1-.175 0 .563.563 0 0 1-.269-.135.9.9 0 0 1-.268-.162.706.706 0 0 1-.108-.851l.121-.23-.202-47.297a.73.73 0 0 1 .35-.608L41.127.622l.12-.23a.71.71 0 0 1 .793-.324c.096.03.187.076.27.135.155.06.287.169.375.31a.705.705 0 0 1-.255.96l-.215.135h-.12L42 1.703 1.486 25.486l.202 46.19 40.016-23.473a.7.7 0 0 1 .961.25.708.708 0 0 1-.248.966L1.687 73.324l-.134.23a.698.698 0 0 1-.564.297z" transform="translate(7 1)"/>
        <path fill="url(#c)" d="M83.334 73.932a.685.685 0 0 1-.605-.35l-.134-.23L41.905 49.5a.73.73 0 0 1-.348-.608l.201-47.365-.12-.23a.72.72 0 0 1 .107-.851c.08-.042.166-.074.255-.095.08-.063.17-.11.269-.135a.684.684 0 0 1 .78.325l.133.23 40.69 23.85a.73.73 0 0 1 .349.609l-.202 47.365.121.23a.692.692 0 0 1-.108.837.846.846 0 0 1-.268.176.63.63 0 0 1-.269.135l-.161-.04zm-40.38-25.446l39.681 23.27.202-46.188-39.681-23.27-.202 46.188z" transform="translate(7 1)"/>
        <path fill="url(#d)" d="M53.664 55.54l11.61 6.676-23.22 13.338-23.207-13.338V35.527l23.207-13.338 23.22 13.338-11.61 6.676-11.61-6.676-11.61 6.676V55.54l11.919 6.85z" transform="translate(7 1)"/>
    </g>
</svg>
