<svg id="Layer_1" data-name="Layer 1" xmlns="http://www.w3.org/2000/svg" viewBox="0 0 311.71 60.94"><title>logo-external-tableau</title><polygon points="40.08 28 31.8 28 31.8 18.99 28.54 18.99 28.54 28 20.25 28 20.25 31.2 28.54 31.2 28.54 40.21 31.8 40.21 31.8 31.2 40.08 31.2 40.08 28" style="fill:#e8762d"/><polygon points="23.42 42.71 16 42.71 16 34.64 13.19 34.64 13.19 42.71 5.76 42.71 5.76 45.16 13.19 45.16 13.19 53.23 16 53.23 16 45.16 23.42 45.16 23.42 42.71" style="fill:#c72037"/><polygon points="54.57 13.85 47.15 13.85 47.15 5.75 44.34 5.75 44.34 13.85 36.91 13.85 36.91 16.31 44.34 16.31 44.34 24.34 47.15 24.34 47.15 16.31 54.57 16.31 54.57 13.85" style="fill:#5b879b"/><polygon points="36.45 51.66 31.42 51.66 31.42 46.03 29.02 46.03 29.02 51.66 23.98 51.66 23.98 53.83 29.02 53.83 29.02 59.45 31.42 59.45 31.42 53.83 36.45 53.83 36.45 51.66" style="fill:#5c6692"/><polygon points="23.42 13.85 15.91 13.85 15.91 5.75 13.28 5.75 13.28 13.85 5.76 13.85 5.76 16.24 13.28 16.24 13.28 24.34 15.91 24.34 15.91 16.24 23.42 16.24 23.42 13.85" style="fill:#eb9129"/><polygon points="60.28 28.51 55.24 28.51 55.24 22.89 52.84 22.89 52.84 28.51 47.8 28.51 47.8 30.68 52.84 30.68 52.84 36.31 55.24 36.31 55.24 30.68 60.28 30.68 60.28 28.51" style="fill:#5c6692"/><polygon points="54.57 42.71 47.15 42.71 47.15 34.64 44.34 34.64 44.34 42.71 36.91 42.71 36.91 45.16 44.34 45.16 44.34 53.23 47.15 53.23 47.15 45.16 54.57 45.16 54.57 42.71" style="fill:#1f457e;fill-rule:evenodd"/><polygon points="29.32 0 29.32 5.52 24.34 5.52 24.34 7.19 29.32 7.19 29.32 12.71 31.11 12.71 31.11 7.19 36.1 7.19 36.1 5.52 31.11 5.52 31.11 0 29.32 0" style="fill:#7199a6"/><polygon points="11.76 28.73 6.76 28.73 6.76 23.32 5 23.32 5 28.73 0 28.73 0 30.47 5 30.44 5 35.88 6.76 35.88 6.76 30.43 11.76 30.4 11.76 28.73" style="fill:#7199a6"/><path d="M147.36,173.44a3.84,3.84,0,0,0,2,.55c1.43,0,2.25-.66,2.25-1.7a1.56,1.56,0,0,0-.75-1.42,8.32,8.32,0,0,0-1.42-.61c-.52-.19-.77-.4-.77-.64s.29-.45.84-.45a4.42,4.42,0,0,1,1.86.56v-1.16a4.39,4.39,0,0,0-1.94-.47c-1.31,0-2.15.69-2.15,1.64s.7,1.51,2.14,2c.49.18.75.29.75.63s-.29.51-.85.51a3.76,3.76,0,0,1-1.94-.72Z" transform="translate(-59.95 -113.04)" style="fill:#5b879b;fill-rule:evenodd"/><path d="M175.34,171a2.87,2.87,0,0,0,.89,2.13,3.37,3.37,0,0,0,4.41,0,3,3,0,0,0,0-4.26,3.41,3.41,0,0,0-4.41,0,2.87,2.87,0,0,0-.89,2.13m1.47,0a1.63,1.63,0,1,1,1.62,1.75,1.63,1.63,0,0,1-1.62-1.75" transform="translate(-59.95 -113.04)" style="fill:#5b879b;fill-rule:evenodd"/><polygon points="146.86 60.84 148.28 60.84 148.28 58.5 150.4 58.5 150.4 57.44 148.28 57.44 148.28 56.2 150.54 56.2 150.54 55.15 146.86 55.15 146.86 60.84" style="fill:#5b879b;fill-rule:evenodd"/><polygon points="177.15 60.84 178.66 60.84 178.66 56.21 180.54 56.21 180.54 55.15 175.27 55.15 175.27 56.21 177.15 56.21 177.15 60.84" style="fill:#5b879b;fill-rule:evenodd"/><polygon points="205.83 60.9 206.41 60.9 207.7 57.33 208.99 60.9 209.58 60.9 211.89 55.15 210.4 55.15 209.3 58.26 208.18 55.15 207.23 55.15 206.11 58.24 205 55.15 203.52 55.15 205.83 60.9" style="fill:#5b879b;fill-rule:evenodd"/><path d="M293.37,173.89h1.52l.46-1.11h2.45l.41,1.11h1.51l-2.22-5.7h-1.64Zm2.39-2.09.88-2.17.8,2.17Z" transform="translate(-59.95 -113.04)" style="fill:#5b879b;fill-rule:evenodd"/><path d="M322.84,173.89h1.42v-2.32h.17a1,1,0,0,1,1,.68l.73,1.65h1.61l-.91-2a1.32,1.32,0,0,0-.68-.71,1.43,1.43,0,0,0,1-1.38c0-1.14-.75-1.65-2.27-1.65h-2.1Zm2.11-3.37h-.69V169.2H325c.51,0,.78.24.78.66s-.25.66-.78.66" transform="translate(-59.95 -113.04)" style="fill:#5b879b;fill-rule:evenodd"/><polygon points="291.48 60.84 295.36 60.84 295.36 59.78 292.91 59.78 292.91 58.42 295.19 58.42 295.19 57.36 292.91 57.36 292.91 56.2 295.29 56.2 295.29 55.15 291.48 55.15 291.48 60.84" style="fill:#5b879b;fill-rule:evenodd"/><path d="M220.31,138a13.65,13.65,0,0,1,4.82-1c5.57,0,9.33,3.91,9.33,10.05,0,6.36-4,10.08-10.92,10.08a22.54,22.54,0,0,1-7.28-1.31l-.12-28.14h4.17ZM224,153.3c3.89,0,6.12-2.23,6.12-6.21s-2.24-6.25-5.75-6.25a10,10,0,0,0-4,1v10.74a10.62,10.62,0,0,0,3.65.71" transform="translate(-59.95 -113.04)" style="fill:#1f457e;fill-rule:evenodd"/><rect x="191.83" y="10.69" width="4.12" height="36.93" style="fill:#1f457e"/><path d="M278.68,144.86h9.47a3.73,3.73,0,0,0-3.87-4,5.56,5.56,0,0,0-5.6,4m4.67,12.35c-6.35-.62-9.45-5.09-9.27-10.38.19-5.72,3.89-9.78,9.54-9.78,5.92,0,9.35,4.38,9.05,10.84H278.42c.34,3.58,2.49,5.28,5.43,5.5a14.64,14.64,0,0,0,7.77-1.54v3.94a14.78,14.78,0,0,1-8.27,1.42" transform="translate(-59.95 -113.04)" style="fill:#1f457e;fill-rule:evenodd"/><path d="M353.83,154c2.61,0,4.38-1.34,4.38-4.32V137.42h4.16v12.73c0,4.26-3.3,6.85-8.55,6.85s-8.54-2.59-8.54-6.85V137.42h4.16v12.22c0,3,1.77,4.32,4.39,4.32" transform="translate(-59.95 -113.04)" style="fill:#1f457e;fill-rule:evenodd"/><path d="M188.7,157.13c-7,0-10.92-3.72-10.92-10.08,0-6.14,3.76-10.05,9.32-10.05a8.52,8.52,0,0,1,4.82,1.32v-1.41h4.17L196,155.82a20.36,20.36,0,0,1-7.27,1.31m-.42-3.83a15.23,15.23,0,0,0,3.57-.46l.07-10.66a6.92,6.92,0,0,0-4-1.34c-3.5,0-5.75,2.34-5.75,6.25s2.24,6.26,6.13,6.21" transform="translate(-59.95 -113.04)" style="fill:#1f457e;fill-rule:evenodd"/><path d="M320.36,157.13c-7,0-10.92-3.72-10.92-10.08,0-6.14,3.76-10.05,9.33-10.05a8.52,8.52,0,0,1,4.82,1.32v-1.41h4.17l-.12,18.91a20.37,20.37,0,0,1-7.28,1.31M320,153.3a15.42,15.42,0,0,0,3.56-.46l.08-10.66a6.92,6.92,0,0,0-4-1.34c-3.51,0-5.75,2.34-5.75,6.25s2.23,6.21,6.13,6.21" transform="translate(-59.95 -113.04)" style="fill:#1f457e;fill-rule:evenodd"/><polygon points="86.82 15.97 90.94 15.97 90.94 27.69 102.09 27.69 102.09 31.53 90.94 31.53 90.94 44.23 86.82 44.23 86.82 31.53 75.67 31.53 75.67 27.69 86.82 27.69 86.82 15.97" style="fill:#1f457e"/><path d="M369.23,137.26a2.48,2.48,0,1,1-2.46,2.47,2.44,2.44,0,0,1,2.46-2.47Zm0,.38a2.1,2.1,0,0,0,0,4.19,2,2,0,0,0,2-2.09,2,2,0,0,0-2-2.1Zm-.46,3.53h-.44v-2.76a5.23,5.23,0,0,1,.78-.07,1.47,1.47,0,0,1,.86.21.68.68,0,0,1,.25.57.69.69,0,0,1-.53.68v0c.23,0,.4.26.45.67a2.49,2.49,0,0,0,.18.68h-.46a2,2,0,0,1-.19-.7.51.51,0,0,0-.59-.49h-.31Zm0-1.53h.32c.36,0,.67-.13.67-.47s-.17-.48-.67-.48l-.32,0Z" transform="translate(-59.95 -113.04)" style="fill:#1f457e"/></svg>