<svg width="360" height="360" xmlns="http://www.w3.org/2000/svg">
 <defs>
  <style>.cls-1{fill:#fc3988;}.cls-2{fill:#00152b;}</style>
 </defs>
 <g>
  <title>background</title>
  <rect fill="none" id="canvas_background" height="602" width="802" y="-1" x="-1"/>
 </g>
 <g>
  <title>Layer 1</title>
  <g stroke="null" id="Layer_2">
   <path stroke="null" id="svg_1" d="m132.70052,57.55782a13.8802,13.8802 0 0 0 10.5522,-4.82966l34.23376,19.76508l0.42615,-0.73054l0.30439,78.35007l-11.52625,-11.48566l0,12.17561l14.34693,14.20488l14.20488,-14.34693l0,-12.17561l-11.42478,11.52625l-0.30439,-78.57329l0.5479,0.97405l33.90908,-19.58244a13.98166,13.98166 0 1 0 -3.59181,-9.33464a14.32664,14.32664 0 0 0 0.75083,4.48468l-31.6363,18.26342l-0.16234,-37.09503a14.00195,14.00195 0 1 0 -5.62107,0l0.16234,36.99357l-31.85952,-18.38518a14.00195,14.00195 0 1 0 -13.3323,9.7202l0.02029,0.08117zm95.70032,-22.32196a8.38088,8.38088 0 1 1 -8.38088,8.38088a8.40117,8.40117 0 0 1 8.38088,-8.48234l0,0.10146zm-56.23104,-19.68391a8.38088,8.38088 0 1 1 8.38088,8.38088a8.38088,8.38088 0 0 1 -8.38088,-8.42147l0,0.04059zm-39.46928,19.58244a8.38088,8.38088 0 1 1 -8.36059,8.44176a8.40117,8.40117 0 0 1 8.36059,-8.44176z" class="cls-1"/>
   <path stroke="null" id="svg_2" d="m84.85036,85.13558a13.90049,13.90049 0 0 0 10.59278,-4.87025l34.49757,20.29269l0,17.10674l-11.52625,-11.50595l0,12.17561l14.20488,14.20488l14.20488,-14.20488l0,-12.17561l-11.48566,11.48566l0,-18.70986a2.84098,2.84098 0 0 0 -1.3799,-2.43512l-35.93835,-21.1044a14.00195,14.00195 0 1 0 -13.3323,9.76078l0.16234,-0.02029zm0,-22.32196a8.38088,8.38088 0 1 1 -8.38088,8.38088a8.40117,8.40117 0 0 1 8.38088,-8.42147l0,0.04059z" class="cls-1"/>
   <path stroke="null" id="svg_3" d="m37.08137,112.71335a13.96137,13.96137 0 0 0 10.816,-5.11376l22.7684,13.65698l-15.74713,3.95707l10.41015,6.22986l19.60274,-4.91083l-4.91083,-19.60274l-10.47103,-6.22986l4.05854,15.74713l-23.05249,-13.81932a13.81932,13.81932 0 0 0 0.5682,-3.8962a14.00195,14.00195 0 1 0 -14.00195,13.98166l-0.04059,0zm0,-22.32196a8.38088,8.38088 0 1 1 -8.38088,8.38088a8.40117,8.40117 0 0 1 8.38088,-8.42147l0,0.04059z" class="cls-1"/>
   <path stroke="null" id="svg_4" d="m327.44945,249.30343l0,-26.68488a14.02225,14.02225 0 1 0 -5.62107,0.22322l0,26.38049a14.02225,14.02225 0 0 0 -11.18127,13.71786a13.81932,13.81932 0 0 0 0.97405,5.11376l-23.92508,13.71786a13.98166,13.98166 0 0 0 -23.96566,13.73815l-23.94537,13.73815a13.98166,13.98166 0 0 0 -23.94537,13.73815l-24.35123,13.92078a13.94108,13.94108 0 0 0 -21.00293,0l-24.35123,-13.79903a13.98166,13.98166 0 0 0 -23.82362,-13.55552l-23.92508,-13.57581a13.98166,13.98166 0 0 0 -24.12801,-13.71786l-23.84391,-13.55552a14.02225,14.02225 0 0 0 -9.984,-19.39981l0,-26.56313a14.00195,14.00195 0 1 0 -5.62107,0l0,26.56313a14.00195,14.00195 0 1 0 12.29737,23.98596l24.75708,14.06283a14.36722,14.36722 0 0 0 -0.38556,3.24683a13.98166,13.98166 0 0 0 23.74245,10.02459l24.57445,13.98166a14.7122,14.7122 0 0 0 -0.46673,3.57151a13.98166,13.98166 0 0 0 23.98596,9.78108l24.55415,13.96137a13.77874,13.77874 0 0 0 -0.68995,4.32234a14.00195,14.00195 0 0 0 27.98362,0a14.20488,14.20488 0 0 0 -0.71024,-4.38322l24.45269,-14.02225a13.98166,13.98166 0 0 0 24.10771,-9.65932a14.20488,14.20488 0 0 0 -0.5479,-3.85561l24.35123,-13.98166a13.98166,13.98166 0 0 0 24.02654,-9.74049a13.29171,13.29171 0 0 0 -0.52761,-3.73385l24.35123,-14.02225a13.98166,13.98166 0 1 0 12.7641,-23.53952l0.02029,0z" class="cls-1"/>
   <path stroke="null" id="svg_5" d="m227.50796,96.54007a2.7801,2.7801 0 0 0 -1.3799,2.41483l0,18.66927l-11.48566,-11.46537l0,12.17561l14.20488,14.20488l14.30635,-14.20488l0,-12.17561l-11.48566,11.48566l0,-17.06615l34.07142,-20.11005a13.96137,13.96137 0 1 0 -3.57151,-9.29405a14.06283,14.06283 0 0 0 0.73054,4.4441l-35.39045,20.92176zm48.70245,-33.76703a8.38088,8.38088 0 1 1 -8.38088,8.38088a8.40117,8.40117 0 0 1 8.42147,-8.38088l-0.04059,0z" class="cls-1"/>
   <path stroke="null" id="svg_6" d="m282.01412,106.50378l-5.23551,19.52157l19.52157,5.23551l10.51161,-6.08781l-15.68625,-4.20059l22.50459,-12.98732a13.98166,13.98166 0 1 0 -3.53093,-9.27376a13.71786,13.71786 0 0 0 0.73054,4.40351l-22.50459,12.98732l4.20059,-15.68625l-10.51161,6.08781zm42.08704,-16.23415a8.38088,8.38088 0 1 1 -8.38088,8.38088a8.40117,8.40117 0 0 1 8.38088,-8.29971l0,-0.08117z" class="cls-1"/>
   <polygon stroke="null" id="svg_7" points="177.9938114921133,235.28118215737163 177.9938114921133,304.4183720246958 166.5284158616014,292.93269693083244 166.5284158616014,305.0677495671273 180.81448270174224,319.3537946715089 195.10052780612386,305.0677495671273 195.10052780612386,292.93269693083244 183.63517564713038,304.4183720246958 183.63517564713038,235.28118215737163 177.9938114921133,235.28118215737163 " class="cls-1"/>
   <polygon stroke="null" id="svg_8" points="85.27650716073185,180.12564982232402 85.27650716073185,235.28118215737163 133.04547862941763,262.85894832489544 180.81448270174224,235.28118215737163 228.58346503830762,262.85894832489544 276.3524691106322,235.28118215737163 276.3524691106322,180.12564982232402 228.58346503830762,152.52761505932835 228.58346503830762,207.70341598984783 180.81448270174224,180.12564982232402 133.04547862941763,207.70341598984783 133.04547862941763,152.54789452267983 85.27650716073185,180.12564982232402 " class="cls-2"/>
  </g>
 </g>
</svg>