<svg xmlns="http://www.w3.org/2000/svg" xmlns:xlink="http://www.w3.org/1999/xlink" width="100" height="135" viewBox="0 0 100 135">
    <defs>
        <path id="a" d="M28.397 107.262l2.281-1.369c.655 1.23 1.409 1.865 2.361 1.865.913 0 1.647-.595 1.647-1.33 0-.515-.337-1.11-.913-1.586-2.956-2.48-4.702-3.83-4.702-5.853 0-2.024 1.766-3.591 3.909-3.591 1.805 0 2.996.972 4.127 2.281l-2.024 1.786c-.675-.952-1.37-1.468-2.143-1.468-.714 0-1.21.416-1.21.992 0 .555.417.912.833 1.27 2.659 2.34 4.782 3.452 4.782 6.05 0 2.382-1.786 4.048-4.365 4.048-2.083 0-3.532-1.012-4.583-3.095zm18.907-.357l2.222 1.051c-1.13 1.608-2.618 2.322-4.84 2.322-3.354 0-5.516-2.46-5.516-5.555 0-2.877 2.083-5.536 5.476-5.536 3.333 0 5.595 2.381 5.595 5.714 0 .238-.02.357-.02.595h-8.492c.258 1.568 1.449 2.44 2.956 2.44 1.131 0 1.885-.317 2.62-1.031zm-5.456-3.492h5.734c-.357-1.23-1.488-1.984-2.897-1.984-1.309 0-2.32.655-2.837 1.984zM51.55 110l2.46-14.245h2.659l3.293 9.94 3.333-9.94h2.62l2.4 14.245h-2.619l-1.528-9.007L61.133 110h-2.381l-2.996-9.007L54.19 110H51.55zm18.749 0V95.755h2.718V110h-2.718z"/>
        <path id="b" d="M14.447 3.394l-1.131.853c-1.25-1.647-3.036-2.46-5.08-2.46-3.372 0-6.21 2.5-6.21 6.13 0 3.532 2.7 6.11 6.29 6.11 1.984 0 3.67-.813 5-2.36l1.13.853c-1.467 1.845-3.63 2.817-6.229 2.817-4.762 0-7.678-3.353-7.678-7.539 0-4.206 3.254-7.4 7.678-7.4 2.619 0 4.821 1.031 6.23 2.996zm7.638.793c3.155 0 5.496 2.56 5.496 5.575 0 2.996-2.321 5.516-5.496 5.516-3.174 0-5.496-2.52-5.496-5.516 0-3.015 2.342-5.575 5.496-5.575zm0 1.31c-2.262 0-4.107 1.944-4.107 4.285 0 2.302 1.726 4.186 4.107 4.186 2.361 0 4.107-1.884 4.107-4.186 0-2.341-1.865-4.285-4.107-4.285zm9.345-1.032V6.35c1.091-1.429 2.4-2.163 3.948-2.163 2.301 0 3.908 1.587 3.908 4.9V15h-1.349V9.266c0-2.48-.773-3.849-2.817-3.849-1.13 0-2.063.496-2.778 1.429-.793 1.031-.912 2.063-.912 3.73V15h-1.35V4.465h1.35zm9.761 9.305l.853-.972c.675.754 1.409 1.17 2.202 1.17 1.032 0 1.945-.754 1.945-1.746 0-.615-.357-1.19-.873-1.468-2.42-1.349-3.65-1.924-3.65-3.77 0-1.666 1.289-2.797 2.896-2.797 1.15 0 2.024.556 2.916 1.429l-.873.892c-.635-.615-1.27-1.011-2.123-1.011-.872 0-1.587.615-1.587 1.408 0 .536.338 1.131.814 1.409 2.42 1.409 3.77 1.944 3.77 3.849 0 1.647-1.27 3.115-3.175 3.115-1.17 0-2.361-.536-3.115-1.508zm16.348-4.166V4.465h1.429v5.456c0 3.551-1.607 5.337-4.623 5.337s-4.643-1.786-4.643-5.337V4.465h1.429v5.139c0 1.11 0 2.023.297 2.658.496 1.071 1.588 1.686 2.917 1.686.972 0 1.825-.357 2.38-.932.834-.893.814-1.905.814-3.412zM61.745 15V.398h1.35V15h-1.35zm5.377-10.535V.537h1.349v3.928h2.163v1.19H68.47V15h-1.35V5.655h-1.864v-1.19h1.865zM72.459 15V4.465h1.349V15h-1.35zM73.114.12c.615 0 1.13.496 1.13 1.111s-.515 1.13-1.13 1.13c-.615 0-1.111-.515-1.111-1.13A1.11 1.11 0 0 1 73.113.12zm4.84 4.345V6.35c1.092-1.429 2.401-2.163 3.949-2.163 2.301 0 3.908 1.587 3.908 4.9V15h-1.349V9.266c0-2.48-.774-3.849-2.817-3.849-1.131 0-2.064.496-2.778 1.429-.793 1.031-.912 2.063-.912 3.73V15h-1.35V4.465h1.35zm21.21 0v8.392c0 1.726-.1 3.155-.953 4.325-.893 1.21-2.46 1.925-4.464 1.925-3.035 0-4.503-1.23-5.436-3.274h1.468c.794 1.39 2.024 2.044 3.889 2.044 1.746 0 3.035-.635 3.67-1.786.397-.734.457-1.488.457-2.301v-.794C96.743 14.326 95.215 15 93.569 15c-2.917 0-5.397-2.222-5.397-5.337 0-3.135 2.6-5.476 5.397-5.476 1.865 0 3.115.794 4.226 2.103V4.465h1.369zm-5.377 1.032c-2.361 0-4.226 1.805-4.226 4.245 0 2.103 1.488 3.949 4.266 3.949 2.301 0 4.027-1.588 4.027-4.048 0-2.54-1.885-4.146-4.067-4.146z"/>
    </defs>
    <g fill="none" fill-rule="evenodd">
        <path fill="#FFF" fill-rule="nonzero" d="M34.25 51.15l-.5-.87 1.73-1 .5.87-1.73 1zm3.46-2l-.5-.87 1.74-1 .5.87-1.74 1zm3.47-2l-.5-.87 1.73-1 .5.87-1.73 1zm3.46-2l-.5-.87 1.73-1 .5.87-1.73 1zm3.47-2l-.5-.87 1.73-1 .5.87-1.73 1zm3.39-2.62h-1v-2h1v2zm0-4h-1v-2h1v2zm0-4h-1v-2h1v2zm0-4h-1v-2h1v2zm0-4h-1v-2h1v2zM67.75 51.15l-1.73-1 .5-.87 1.73 1-.5.87zm-3.46-2l-1.74-1 .5-.87 1.74 1-.5.87zm-3.47-2l-1.73-1 .5-.87 1.73 1-.5.87zm-3.46-2l-1.73-1 .5-.87 1.73 1-.5.87zm-3.47-2l-1.73-1 .5-.87 1.73 1-.5.87z"/>
        <path fill="#FFF" d="M34 32.09a1 1 0 0 1-.5-.14l-17-9.81a1 1 0 1 1 1-1.73l17 9.81a1 1 0 0 1-.5 1.87zM51 81.16a1 1 0 0 1-1-1V60.53a1 1 0 0 1 2 0v19.63a1 1 0 0 1-1 1z"/>
        <path fill="#FFF" fill-rule="nonzero" d="M51 81.16a1 1 0 0 1-.5-.13l-34-19.63a1 1 0 0 1-.5-.87V21.27a1 1 0 0 1 .5-.86L50.5.78a1 1 0 0 1 1 0l34 19.63a1 1 0 0 1 0 1.73L68.5 32a1 1 0 0 1-1 0L51 22.43l-16 9.23v18.48l16 9.24 16.5-9.53a1 1 0 0 1 1 0l17 9.82a1 1 0 0 1 0 1.73L51.5 81a1 1 0 0 1-.5.16zM18 60l33 19 32-18.48-15-8.65-16.5 9.53a1 1 0 0 1-1 0l-17-9.82a1 1 0 0 1-.5-.86V31.09a1 1 0 0 1 .5-.87l17-9.81a1 1 0 0 1 1 0L68 29.93l15-8.66L51 2.8 18 21.85V60z"/>
        <g fill-rule="nonzero">
            <use fill="#000" xlink:href="#a"/>
            <use fill="#FFF" xlink:href="#a"/>
        </g>
        <g fill="#FFF" fill-rule="nonzero" transform="translate(0 115)">
            <use xlink:href="#b"/>
            <use xlink:href="#b"/>
        </g>
    </g>
</svg>
