<svg xmlns="http://www.w3.org/2000/svg" viewBox="0 0 360 360"><defs><style>.cls-1{fill:#00152b;}</style></defs><g id="Layer_2" data-name="Layer 2"><polygon class="cls-1" points="160.76 155.18 157.88 165.18 153.96 155.18 153.04 155.18 149.06 165.18 146.23 155.18 143.75 155.18 148.29 171.24 149.2 171.24 153.5 160.52 157.69 171.24 158.62 171.24 163.22 155.18 160.76 155.18"/><path class="cls-1" d="M175.5,167.52l-1.95-1-.22.36a4.29,4.29,0,0,1-3.91,2.47,3.75,3.75,0,0,1-3.76-3.58h10.08v-.44c-.05-3.81-2.62-6.46-6.26-6.46a6.24,6.24,0,0,0-6.21,6.38,6.17,6.17,0,0,0,6.3,6.29,6.07,6.07,0,0,0,5.74-3.6Zm-6-6.41a3.61,3.61,0,0,1,3.61,2.48H166A3.57,3.57,0,0,1,169.5,161.11Z"/><path class="cls-1" d="M183.22,171.51A6,6,0,0,0,187.3,170v1.27h2.3V159.13h-2.3v1.31a5.67,5.67,0,0,0-4-1.6,6.34,6.34,0,0,0,0,12.67Zm.17-10.4a4.11,4.11,0,0,1,0,8.21,4.06,4.06,0,0,1-4-4.13A4,4,0,0,1,183.39,161.11Z"/><polygon class="cls-1" points="196.66 166.67 193.18 159.13 190.67 159.13 196.25 171.24 197.07 171.24 202.61 159.13 200.1 159.13 196.66 166.67"/><rect class="cls-1" x="203.49" y="159.13" width="2.32" height="12.1"/><path class="cls-1" d="M204.63,157.77a1.66,1.66,0,0,0,1.64-1.64,1.64,1.64,0,1,0-1.64,1.64Z"/><path class="cls-1" d="M217.67,171.24H220V159.13h-2.3v1.31a5.67,5.67,0,0,0-4-1.6,6.34,6.34,0,0,0,0,12.67,6,6,0,0,0,4.08-1.54Zm-3.93-1.92a4.06,4.06,0,0,1-4-4.13,4,4,0,1,1,4,4.13Z"/><polygon class="cls-1" points="225.95 154.95 223.63 154.95 223.63 159.13 221.64 159.13 221.64 161.28 223.63 161.28 223.63 171.24 225.95 171.24 225.95 161.28 228.25 161.28 228.25 159.13 225.95 159.13 225.95 154.95"/><path class="cls-1" d="M235.27,171.51a6.07,6.07,0,0,0,5.74-3.6l.2-.39-2-1-.21.36a4.3,4.3,0,0,1-3.92,2.47,3.74,3.74,0,0,1-3.75-3.58h10.07v-.44c0-3.81-2.62-6.46-6.25-6.46a6.24,6.24,0,0,0-6.21,6.38A6.16,6.16,0,0,0,235.27,171.51Zm-.06-10.4a3.62,3.62,0,0,1,3.61,2.48h-7.16A3.55,3.55,0,0,1,235.21,161.11Z"/><path class="cls-1" d="M153.28,181.52a16.27,16.27,0,0,0-4.94-.54h-3.15v15.18H150a9.64,9.64,0,0,0,4.41-.83,6.31,6.31,0,0,0,2.56-2.56,7.92,7.92,0,0,0,1-4,8.14,8.14,0,0,0-1.24-4.55A6.61,6.61,0,0,0,153.28,181.52Zm2.18,10.8a5,5,0,0,1-2.7,2,16.36,16.36,0,0,1-4.36.39h-1.76V182.46h1.08a18.29,18.29,0,0,1,4.69.43,5.36,5.36,0,0,1,3,2.14,6.49,6.49,0,0,1,1.07,3.75A6.17,6.17,0,0,1,155.46,192.32Z"/><path class="cls-1" d="M170.44,187a5.64,5.64,0,0,0-2-1.76,5.3,5.3,0,0,0-2.5-.59,5.57,5.57,0,0,0-4.1,1.72,5.71,5.71,0,0,0-1.7,4.15,5.84,5.84,0,0,0,1.69,4.21,5.73,5.73,0,0,0,6.54,1.17,6.23,6.23,0,0,0,2-1.66v1.93h1.42V184.93h-1.42ZM170,192.9a4.16,4.16,0,0,1-1.63,1.62,4.61,4.61,0,0,1-2.25.59,4.28,4.28,0,0,1-2.2-.6,4.39,4.39,0,0,1-1.63-1.68,4.56,4.56,0,0,1,0-4.54,4.43,4.43,0,0,1,7-.95,4.45,4.45,0,0,1,1.28,3.26A4.64,4.64,0,0,1,170,192.9Z"/><polygon class="cls-1" points="177.82 180.76 176.37 180.76 176.37 184.93 174.4 184.93 174.4 186.18 176.37 186.18 176.37 196.16 177.82 196.16 177.82 186.18 180.11 186.18 180.11 184.93 177.82 184.93 177.82 180.76"/><path class="cls-1" d="M192,187a5.73,5.73,0,0,0-2-1.76,5.3,5.3,0,0,0-2.5-.59,5.55,5.55,0,0,0-4.1,1.72,5.71,5.71,0,0,0-1.7,4.15,5.8,5.8,0,0,0,1.69,4.21,5.73,5.73,0,0,0,6.54,1.17,6.33,6.33,0,0,0,2-1.66v1.93h1.42V184.93H192Zm-.48,5.91a4.19,4.19,0,0,1-1.64,1.62,4.55,4.55,0,0,1-2.24.59,4.26,4.26,0,0,1-2.2-.6,4.41,4.41,0,0,1-1.64-1.68,4.65,4.65,0,0,1-.6-2.27,4.56,4.56,0,0,1,.6-2.27,4.43,4.43,0,0,1,7-.95,4.49,4.49,0,0,1,1.28,3.26A4.64,4.64,0,0,1,191.56,192.9Z"/><polygon class="cls-1" points="212.03 187.34 204.3 187.34 204.3 180.98 202.78 180.98 202.78 196.16 204.3 196.16 204.3 188.83 212.03 188.83 212.03 196.16 213.54 196.16 213.54 180.98 212.03 180.98 212.03 187.34"/><path class="cls-1" d="M226.76,187a5.71,5.71,0,0,0-2-1.76,5.37,5.37,0,0,0-2.51-.59,5.53,5.53,0,0,0-4.09,1.72,5.68,5.68,0,0,0-1.71,4.15,5.84,5.84,0,0,0,1.69,4.21,5.73,5.73,0,0,0,6.54,1.17,6.13,6.13,0,0,0,2-1.66v1.93h1.43V184.93h-1.43Zm-.48,5.91a4.16,4.16,0,0,1-1.63,1.62,4.61,4.61,0,0,1-2.25.59,4.28,4.28,0,0,1-2.2-.6,4.39,4.39,0,0,1-1.63-1.68,4.56,4.56,0,0,1,0-4.54,4.43,4.43,0,0,1,7-.95,4.45,4.45,0,0,1,1.28,3.26A4.64,4.64,0,0,1,226.28,192.9Z"/><path class="cls-1" d="M233.76,185.12a5.13,5.13,0,0,0-1.4,1.45v-1.64h-1.47v11.23h1.47v-3.8a17.54,17.54,0,0,1,.27-3.88,3.83,3.83,0,0,1,1-1.84,2.1,2.1,0,0,1,1.4-.6,2,2,0,0,1,.76.2l.75-1.22a2.66,2.66,0,0,0-1.27-.38A2.73,2.73,0,0,0,233.76,185.12Z"/><path class="cls-1" d="M252.82,185.23a3.68,3.68,0,0,0-2.06-.59,4.22,4.22,0,0,0-2.32.69,5.36,5.36,0,0,0-1.81,2,4.48,4.48,0,0,0-.8-1.52,3.34,3.34,0,0,0-1.2-.85,3.91,3.91,0,0,0-1.55-.32,4.4,4.4,0,0,0-2.3.66,5.51,5.51,0,0,0-1.55,1.57v-1.94h-1.45v11.23h1.45V191.4a8.75,8.75,0,0,1,.42-3.13,3.44,3.44,0,0,1,1.29-1.62,3.17,3.17,0,0,1,1.87-.61,2.55,2.55,0,0,1,1.49.44,2.31,2.31,0,0,1,.89,1.17,9.79,9.79,0,0,1,.25,2.76v5.75h1.44v-4.4a10.37,10.37,0,0,1,.41-3.45,3.53,3.53,0,0,1,1.27-1.65,3.23,3.23,0,0,1,1.91-.62,2.61,2.61,0,0,1,1.49.42,2.21,2.21,0,0,1,.88,1.08,8.06,8.06,0,0,1,.26,2.49v6.13h1.47V190a8.71,8.71,0,0,0-.43-3.16A3.53,3.53,0,0,0,252.82,185.23Z"/><path class="cls-1" d="M262.93,184.64a5.55,5.55,0,0,0-4.31,1.89,6,6,0,0,0,.09,8.15,5.93,5.93,0,0,0,8.43,0,6,6,0,0,0,.09-8.16A5.57,5.57,0,0,0,262.93,184.64Zm3.8,8.23a4.18,4.18,0,0,1-1.6,1.63,4.55,4.55,0,0,1-4.41,0,4.18,4.18,0,0,1-1.6-1.63,4.57,4.57,0,0,1-.59-2.27,4.47,4.47,0,0,1,1.3-3.22,4.27,4.27,0,0,1,6.19,0,4.47,4.47,0,0,1,1.3,3.22A4.57,4.57,0,0,1,266.73,192.87Z"/><path class="cls-1" d="M279.34,185.28a3.94,3.94,0,0,0-2.23-.64,4.71,4.71,0,0,0-2.29.57,6.07,6.07,0,0,0-1.92,1.73v-2h-1.45v11.23h1.45V192a14.75,14.75,0,0,1,.21-3.06,4.06,4.06,0,0,1,1.36-2.14,3.57,3.57,0,0,1,2.35-.87,3,3,0,0,1,1.86.56,2.91,2.91,0,0,1,1,1.68,13,13,0,0,1,.16,2.59v5.36h1.45v-5.78a9.1,9.1,0,0,0-.47-3.38A3.84,3.84,0,0,0,279.34,185.28Z"/><path class="cls-1" d="M284.84,180.3a1.11,1.11,0,0,0-.83.36,1.15,1.15,0,0,0-.35.84,1.16,1.16,0,0,0,.35.84,1.14,1.14,0,0,0,.83.35,1.19,1.19,0,0,0,.85-.35,1.15,1.15,0,0,0,.34-.84,1.14,1.14,0,0,0-.34-.84A1.16,1.16,0,0,0,284.84,180.3Z"/><rect class="cls-1" x="284.13" y="184.93" width="1.44" height="11.23"/><polygon class="cls-1" points="287.65 184.93 287.65 186.2 293.41 186.2 287.06 196.16 295.69 196.16 295.69 194.88 289.54 194.88 295.9 184.93 287.65 184.93"/><path class="cls-1" d="M307.31,187a5.71,5.71,0,0,0-2-1.76,5.34,5.34,0,0,0-2.51-.59,5.53,5.53,0,0,0-4.09,1.72,5.67,5.67,0,0,0-1.7,4.15,5.83,5.83,0,0,0,1.68,4.21,5.49,5.49,0,0,0,4.07,1.72,5.57,5.57,0,0,0,2.48-.55,6.2,6.2,0,0,0,2-1.66v1.93h1.43V184.93h-1.43Zm-.48,5.91a4.16,4.16,0,0,1-1.63,1.62,4.61,4.61,0,0,1-2.25.59,4.31,4.31,0,0,1-2.2-.6,4.39,4.39,0,0,1-1.63-1.68,4.56,4.56,0,0,1,0-4.54,4.41,4.41,0,0,1,1.63-1.66A4.3,4.3,0,0,1,303,186a4.26,4.26,0,0,1,3.16,1.31,4.46,4.46,0,0,1,1.29,3.26A4.65,4.65,0,0,1,306.83,192.9Z"/><polygon class="cls-1" points="314.69 180.76 313.25 180.76 313.25 184.93 311.27 184.93 311.27 186.18 313.25 186.18 313.25 196.16 314.69 196.16 314.69 186.18 316.98 186.18 316.98 184.93 314.69 184.93 314.69 180.76"/><path class="cls-1" d="M319.65,180.3a1.21,1.21,0,0,0-1.18,1.2,1.13,1.13,0,0,0,.35.84,1.17,1.17,0,0,0,1.67,0,1.16,1.16,0,0,0,.35-.84,1.15,1.15,0,0,0-.35-.84A1.12,1.12,0,0,0,319.65,180.3Z"/><rect class="cls-1" x="318.93" y="184.93" width="1.44" height="11.23"/><path class="cls-1" d="M328.69,184.64a5.57,5.57,0,0,0-4.31,1.89,6,6,0,0,0,.09,8.15,5.94,5.94,0,0,0,8.44,0,6,6,0,0,0,.09-8.16A5.59,5.59,0,0,0,328.69,184.64Zm3.8,8.23a4.16,4.16,0,0,1-1.59,1.63,4.57,4.57,0,0,1-4.42,0,4.09,4.09,0,0,1-1.59-1.63,4.57,4.57,0,0,1-.59-2.27,4.46,4.46,0,0,1,1.29-3.22,4.27,4.27,0,0,1,6.19,0,4.43,4.43,0,0,1,1.3,3.22A4.57,4.57,0,0,1,332.49,192.87Z"/><path class="cls-1" d="M346.55,187a3.84,3.84,0,0,0-1.44-1.72,4,4,0,0,0-2.24-.64,4.74,4.74,0,0,0-2.29.57,6.07,6.07,0,0,0-1.92,1.73v-2h-1.44v11.23h1.44V192a14.75,14.75,0,0,1,.21-3.06,4,4,0,0,1,1.37-2.14,3.54,3.54,0,0,1,2.34-.87,2.92,2.92,0,0,1,1.86.56,2.87,2.87,0,0,1,1,1.68,13.83,13.83,0,0,1,.16,2.59v5.36H347v-5.78A9.14,9.14,0,0,0,346.55,187Z"/><path class="cls-1" d="M49.51,136.31A4.65,4.65,0,0,0,53,134.68l11.49,6.63.14-.24.1,26.26-3.86-3.84,0,4.07,4.8,4.77,4.77-4.81v-4.06l-3.83,3.86L66.54,141l.19.32,11.37-6.57a4.67,4.67,0,1,0-1.21-3.12,4.58,4.58,0,0,0,.27,1.49l-10.63,6.14,0-12.44a4.69,4.69,0,1,0-1.88,0l.05,12.4L54,133a4.46,4.46,0,0,0,.25-1.42,4.69,4.69,0,1,0-4.69,4.69Zm32.07-7.5a2.81,2.81,0,1,1-2.81,2.81A2.81,2.81,0,0,1,81.58,128.81Zm-18.84-6.6a2.81,2.81,0,1,1,2.8,2.81A2.81,2.81,0,0,1,62.74,122.21Zm-13.23,6.6a2.81,2.81,0,1,1-2.81,2.81A2.81,2.81,0,0,1,49.51,128.81Z"/><path class="cls-1" d="M33.47,145.55A4.63,4.63,0,0,0,37,143.91l11.56,6.8v5.73l-3.84-3.85v4.06l4.79,4.79,4.79-4.79v-4.06l-3.85,3.85v-6.27a1,1,0,0,0-.47-.82l-12.06-7.08a4.74,4.74,0,0,0,.24-1.41,4.69,4.69,0,1,0-4.69,4.69Zm0-7.5a2.81,2.81,0,1,1-2.81,2.81A2.8,2.8,0,0,1,33.47,138.05Z"/><path class="cls-1" d="M17.43,154.8A4.69,4.69,0,0,0,21,153.07l7.65,4.59L23.41,159l3.49,2.09,6.57-1.64-1.65-6.58-3.48-2.09L29.66,156l-7.74-4.64a4.59,4.59,0,0,0,.2-1.3,4.69,4.69,0,1,0-4.69,4.7Zm0-7.5a2.81,2.81,0,1,1-2.81,2.8A2.81,2.81,0,0,1,17.43,147.3Z"/><path class="cls-1" d="M114.78,200.58v-9a4.7,4.7,0,1,0-1.89.07v8.89a4.68,4.68,0,0,0-3.74,4.59,4.61,4.61,0,0,0,.33,1.71l-8,4.61a4.67,4.67,0,0,0-8,4.6l-8.05,4.61a4.67,4.67,0,0,0-8,4.59L69.22,230a4.63,4.63,0,0,0-7,0l-8.16-4.63a4.75,4.75,0,0,0,.33-1.69A4.68,4.68,0,0,0,46,220.78l-8-4.57a4.68,4.68,0,0,0-8.08-4.59l-8-4.55a4.63,4.63,0,0,0,.41-1.9,4.68,4.68,0,0,0-3.75-4.59v-8.91a4.69,4.69,0,1,0-1.88,0v8.91a4.69,4.69,0,1,0,4.11,8l8.32,4.72a4.34,4.34,0,0,0-.14,1.09,4.69,4.69,0,0,0,4.69,4.69,4.62,4.62,0,0,0,3.26-1.34l8.26,4.69a4.76,4.76,0,0,0-.17,1.2,4.69,4.69,0,0,0,8,3.28l8.24,4.68a4.63,4.63,0,0,0-.25,1.44,4.69,4.69,0,0,0,9.38,0,4.76,4.76,0,0,0-.25-1.46l8.22-4.71a4.63,4.63,0,0,0,3.38,1.46,4.69,4.69,0,0,0,4.69-4.69,4.58,4.58,0,0,0-.2-1.29l8.19-4.69a4.66,4.66,0,0,0,7.86-4.51l8.2-4.71a4.64,4.64,0,0,0,3.34,1.4,4.69,4.69,0,0,0,.94-9.28Z"/><path class="cls-1" d="M81.28,149.37a1,1,0,0,0-.46.81v6.26L77,152.59v4.06l4.79,4.79,4.79-4.79v-4.06l-3.85,3.85v-5.72L94.13,144a4.67,4.67,0,1,0-1.2-3.11,4.51,4.51,0,0,0,.26,1.48Zm16.34-11.32a2.81,2.81,0,1,1-2.81,2.81A2.81,2.81,0,0,1,97.62,138.05Z"/><path class="cls-1" d="M99.55,152.71l-1.75,6.55,6.54,1.75,3.52-2-5.25-1.41,7.55-4.36a4.83,4.83,0,1,0-.94-1.64l-7.56,4.37,1.41-5.26Zm14.11-5.41a2.81,2.81,0,1,1-2.81,2.8A2.81,2.81,0,0,1,113.66,147.3Z"/><polygon class="cls-1" points="81.64 205.12 97.65 195.87 97.65 177.39 81.65 168.14 81.64 186.63 65.63 177.39 49.62 186.63 49.62 168.14 33.61 177.39 33.61 195.87 49.62 205.12 64.69 196.42 64.69 219.04 60.84 215.19 60.84 219.26 65.63 224.05 70.42 219.26 70.42 215.19 66.57 219.04 66.57 196.42 81.64 205.12"/></g></svg>