<svg id="Layer_1" data-name="Layer 1" xmlns="http://www.w3.org/2000/svg" viewBox="0 0 60.28 59.45"><title>logo-external-tableau-emblem</title><polygon points="40.08 28 31.8 28 31.8 18.99 28.54 18.99 28.54 28 20.25 28 20.25 31.2 28.54 31.2 28.54 40.21 31.8 40.21 31.8 31.2 40.08 31.2 40.08 28" style="fill:#e8762d"/><polygon points="23.42 42.71 16 42.71 16 34.64 13.19 34.64 13.19 42.71 5.76 42.71 5.76 45.16 13.19 45.16 13.19 53.23 16 53.23 16 45.16 23.42 45.16 23.42 42.71" style="fill:#c72037"/><polygon points="54.57 13.85 47.15 13.85 47.15 5.75 44.34 5.75 44.34 13.85 36.91 13.85 36.91 16.31 44.34 16.31 44.34 24.34 47.15 24.34 47.15 16.31 54.57 16.31 54.57 13.85" style="fill:#5b879b"/><polygon points="36.45 51.66 31.42 51.66 31.42 46.03 29.02 46.03 29.02 51.66 23.98 51.66 23.98 53.83 29.02 53.83 29.02 59.45 31.42 59.45 31.42 53.83 36.45 53.83 36.45 51.66" style="fill:#5c6692"/><polygon points="23.42 13.85 15.91 13.85 15.91 5.75 13.28 5.75 13.28 13.85 5.76 13.85 5.76 16.24 13.28 16.24 13.28 24.34 15.91 24.34 15.91 16.24 23.42 16.24 23.42 13.85" style="fill:#eb9129"/><polygon points="60.28 28.51 55.24 28.51 55.24 22.89 52.84 22.89 52.84 28.51 47.8 28.51 47.8 30.68 52.84 30.68 52.84 36.31 55.24 36.31 55.24 30.68 60.28 30.68 60.28 28.51" style="fill:#5c6692"/><polygon points="54.57 42.71 47.15 42.71 47.15 34.64 44.34 34.64 44.34 42.71 36.91 42.71 36.91 45.16 44.34 45.16 44.34 53.23 47.15 53.23 47.15 45.16 54.57 45.16 54.57 42.71" style="fill:#1f457e;fill-rule:evenodd"/><polygon points="29.32 0 29.32 5.52 24.34 5.52 24.34 7.19 29.32 7.19 29.32 12.71 31.11 12.71 31.11 7.19 36.1 7.19 36.1 5.52 31.11 5.52 31.11 0 29.32 0" style="fill:#7199a6"/><polygon points="11.76 28.73 6.76 28.73 6.76 23.32 5 23.32 5 28.73 0 28.73 0 30.47 5 30.44 5 35.88 6.76 35.88 6.76 30.43 11.76 30.4 11.76 28.73" style="fill:#7199a6"/></svg>