<svg xmlns="http://www.w3.org/2000/svg" xmlns:xlink="http://www.w3.org/1999/xlink" width="128" height="121" viewBox="0 0 128 121">
    <defs>
        <path id="a" d="M21.77 15L18.536.755h2.678l2.044 9.087L25.817.755h2.262l2.579 9.087L32.682.755h2.678L32.146 15h-2.6l-2.638-9.206L24.348 15z"/>
        <path id="b" d="M43.858 11.905l2.222 1.051c-1.131 1.608-2.62 2.322-4.841 2.322-3.353 0-5.516-2.46-5.516-5.555 0-2.877 2.083-5.536 5.476-5.536 3.333 0 5.595 2.381 5.595 5.714 0 .238-.02.357-.02.595h-8.492c.258 1.568 1.449 2.44 2.957 2.44 1.13 0 1.884-.317 2.619-1.031zm-5.456-3.492h5.733c-.357-1.23-1.488-1.984-2.896-1.984-1.31 0-2.322.655-2.837 1.984zM56.694 15v-1.111c-.932.913-1.924 1.389-3.254 1.389-2.678 0-5.02-2.302-5.02-5.536 0-3.293 2.223-5.555 4.96-5.555 1.27 0 2.362.476 3.314 1.429V4.465h2.639V15h-2.639zm-2.778-8.392c-1.746 0-2.837 1.388-2.837 3.115 0 1.805 1.19 3.134 2.837 3.134 1.627 0 2.897-1.23 2.897-3.154 0-1.845-1.23-3.095-2.897-3.095zM65.364 15L60.86 4.465h2.699l2.658 6.21 2.659-6.21h2.678L67.07 15h-1.706zm7.48 0V4.465h2.638V15h-2.638zM74.154.12c.952 0 1.686.794 1.686 1.746 0 .932-.754 1.686-1.687 1.686-.972 0-1.686-.853-1.686-1.825 0-.913.774-1.607 1.686-1.607zM85.66 15v-1.111c-.932.913-1.924 1.389-3.253 1.389-2.679 0-5.02-2.302-5.02-5.536 0-3.293 2.222-5.555 4.96-5.555 1.27 0 2.361.476 3.313 1.429V4.465h2.64V15h-2.64zm-2.777-8.392c-1.746 0-2.837 1.388-2.837 3.115 0 1.805 1.19 3.134 2.837 3.134 1.627 0 2.896-1.23 2.896-3.154 0-1.845-1.23-3.095-2.896-3.095zm8.392-2.143V.576h2.639v3.889h1.567v2.262h-1.567V15h-2.639V6.727h-1.349V4.465h1.35zm13.293 7.44l2.222 1.051c-1.13 1.608-2.619 2.322-4.841 2.322-3.353 0-5.515-2.46-5.515-5.555 0-2.877 2.083-5.536 5.475-5.536 3.333 0 5.595 2.381 5.595 5.714 0 .238-.02.357-.02.595h-8.491c.258 1.568 1.448 2.44 2.956 2.44 1.13 0 1.885-.317 2.619-1.031zm-5.456-3.492h5.734c-.357-1.23-1.488-1.984-2.897-1.984-1.31 0-2.321.655-2.837 1.984z"/>
        <path id="c" d="M7.761.238c4.325 0 7.619 3.234 7.619 7.48 0 4.186-3.274 7.48-7.5 7.48-4.384 0-7.519-3.433-7.519-7.421 0-4.246 3.293-7.54 7.4-7.54zm.08 1.389c-3.135 0-5.992 2.5-5.992 6.15 0 3.512 2.778 6.031 5.992 6.031 3.333 0 6.05-2.54 6.05-6.11 0-3.611-2.896-6.071-6.05-6.071zm11.527 2.678v1.924c1.051-1.468 2.5-2.202 4.186-2.202 3.075 0 5.456 2.52 5.456 5.516s-2.321 5.555-5.416 5.555c-1.647 0-3.076-.675-4.226-2.063v5.654h-1.35V4.305h1.35zm4.087 1.032c-2.361 0-4.186 1.845-4.186 4.285 0 2.619 2.023 4.246 4.186 4.246 2.34 0 4.166-1.984 4.166-4.286 0-2.261-1.746-4.245-4.166-4.245zm18.451 4.345h-9.484c.06 2.42 1.707 4.186 3.968 4.186 2.203 0 3.254-1.25 4.028-2.52l1.13.595c-1.07 2.103-2.717 3.155-5.019 3.155-3.491 0-5.495-2.678-5.495-5.496 0-2.877 2.123-5.575 5.416-5.575 2.996 0 5.416 2.163 5.456 5.655zm-9.345-1.19h7.857c-.556-2.183-2.123-3.155-3.948-3.155-1.885 0-3.294 1.011-3.909 3.154zm13.214-4.187V6.19c1.091-1.429 2.4-2.163 3.948-2.163 2.301 0 3.908 1.587 3.908 4.9v5.913h-1.349V9.106c0-2.48-.773-3.849-2.817-3.849-1.13 0-2.063.496-2.778 1.429-.793 1.031-.912 2.063-.912 3.73v4.424h-1.35V4.305h1.35zm23.094-1.746l-1.151.893c-.774-1.012-1.448-1.746-2.619-1.746-1.23 0-1.925.873-1.925 1.805 0 .774.457 1.588 1.27 2.203 2.679 1.984 4.643 3.353 4.643 5.654 0 2.004-1.687 3.83-4.008 3.83-1.964 0-3.254-1.092-4.305-3.017l1.21-.734c.853 1.568 1.885 2.361 2.976 2.361 1.488 0 2.639-1.09 2.639-2.42 0-1.568-1.468-2.46-4.702-5.08-.675-.535-1.21-1.666-1.21-2.737 0-1.964 1.527-3.333 3.452-3.333 1.746 0 2.797 1.051 3.73 2.321zm8.035 1.468c3.154 0 5.495 2.56 5.495 5.575 0 2.996-2.32 5.516-5.495 5.516-3.175 0-5.496-2.52-5.496-5.516 0-3.015 2.341-5.575 5.496-5.575zm0 1.31c-2.262 0-4.107 1.944-4.107 4.285 0 2.302 1.726 4.186 4.107 4.186 2.36 0 4.107-1.884 4.107-4.186 0-2.341-1.865-4.285-4.107-4.285zm15.654 4.107V4.305h1.428v5.456c0 3.551-1.607 5.337-4.623 5.337-3.015 0-4.642-1.786-4.642-5.337V4.305h1.428v5.139c0 1.11 0 2.023.298 2.658.496 1.071 1.587 1.686 2.916 1.686.972 0 1.826-.357 2.381-.932.833-.893.814-1.905.814-3.412z"/>
        <path id="d" d="M97.86 4.305v1.528c.794-1.151 1.647-1.806 2.719-1.806.615 0 .932.199 1.21.357l-.714 1.151c-.159-.08-.417-.198-.715-.198-.992 0-1.884.853-2.281 2.301-.179.675-.218 1.766-.218 3.194v4.008h-1.429V4.305h1.429z"/>
        <path id="e" d="M111.954 12.023l1.091.694c-1.031 1.567-2.817 2.38-4.94 2.38-3.472 0-5.793-2.499-5.793-5.435 0-3.095 2.42-5.635 5.892-5.635 2.024 0 3.87.833 4.841 2.46l-1.09.675c-.933-1.23-2.223-1.825-3.81-1.825-2.679 0-4.444 1.964-4.444 4.226 0 2.301 1.746 4.305 4.464 4.305 1.527 0 2.797-.615 3.79-1.845zm14.067-2.341h-9.484c.06 2.42 1.706 4.186 3.968 4.186 2.202 0 3.254-1.25 4.028-2.52l1.13.595c-1.07 2.103-2.718 3.155-5.019 3.155-3.492 0-5.496-2.678-5.496-5.496 0-2.877 2.123-5.575 5.417-5.575 2.995 0 5.416 2.163 5.456 5.655zm-9.345-1.19h7.857c-.556-2.183-2.123-3.155-3.949-3.155-1.884 0-3.293 1.011-3.908 3.154z"/>
    </defs>
    <g fill="none" fill-rule="evenodd">
        <g fill-rule="nonzero">
            <g transform="translate(.84 81.24)">
                <use fill="#000" xlink:href="#a"/>
                <use fill="#2E3536" xlink:href="#a"/>
            </g>
            <g transform="translate(.84 81.24)">
                <use fill="#000" xlink:href="#b"/>
                <use fill="#2E3536" xlink:href="#b"/>
            </g>
            <g transform="translate(.84 101.24)">
                <use fill="#000" xlink:href="#c"/>
                <use fill="#2E3536" xlink:href="#c"/>
            </g>
            <g transform="translate(.84 101.24)">
                <use fill="#000" xlink:href="#d"/>
                <use fill="#2E3536" xlink:href="#d"/>
            </g>
            <g transform="translate(.84 101.24)">
                <use fill="#000" xlink:href="#e"/>
                <use fill="#2E3536" xlink:href="#e"/>
            </g>
        </g>
        <path fill="#364A68" d="M87.47 55l-1.64-2.84 10.34-6V9.06l-10.7-6.17L87.11.05 98.63 6.7c.506.294.818.835.82 1.42v39.05a1.65 1.65 0 0 1-.82 1.42L87.47 55zM40.25 54.89l-10.9-6.3a1.63 1.63 0 0 1-.82-1.42V8.12a1.63 1.63 0 0 1 .82-1.42L40.5.26l1.64 2.84-10.33 6v37.12L41.89 52l-1.64 2.89z"/>
        <path fill="#364A68" d="M41.68 27.3v12.88l11.15 6.43 11.16-6.43 11.15 6.43 11.15-6.43V27.3l-11.15-6.44v12.88L63.99 27.3l-11.16 6.44V20.86z"/>
    </g>
</svg>
