<?xml version="1.0" encoding="UTF-8"?>
<svg width="436px" height="60px" viewBox="0 0 436 60" version="1.1" xmlns="http://www.w3.org/2000/svg" xmlns:xlink="http://www.w3.org/1999/xlink">
    <!-- Generator: Sketch 53.2 (72643) - https://sketchapp.com -->
    <title>logos/SeMI/technologies/horizontal/color</title>
    <desc>Created with Sketch.</desc>
    <g id="logos/SeMI/technologies/horizontal/color" stroke="none" stroke-width="1" fill="none" fill-rule="evenodd">
        <g id="SeMI-1_hc-Copy">
            <polygon id="Path" fill="#BB075A" points="0.38953405 15.195 0.38953405 44.64 13.1243011 51.9975 13.1243011 37.275 25.8590681 29.9175"></polygon>
            <polygon id="Path" fill="#FA0171" points="38.5938351 7.8375 25.8590681 0.4725 0.38953405 15.195 13.1243011 22.56"></polygon>
            <polygon id="Path" fill="#FA0171" points="51.3286022 44.64 38.5938351 37.275 13.1243011 51.9975 25.8590681 59.3625"></polygon>
            <polygon id="Path" fill="#BB075A" points="51.3286022 44.64 51.3286022 15.195 38.5938351 7.8375 38.5938351 22.56 25.8590681 29.9175"></polygon>
        </g>
        <path d="M86.3398438,21.1757812 L82.296875,24.75 C80.8775971,22.7708234 79.432299,21.78125 77.9609375,21.78125 C77.2447881,21.78125 76.6588564,21.9733054 76.203125,22.3574219 C75.7473936,22.7415384 75.5195312,23.1744768 75.5195312,23.65625 C75.5195312,24.1380232 75.68229,24.5937479 76.0078125,25.0234375 C76.450523,25.596357 77.7851451,26.8268135 80.0117188,28.7148438 C82.0950625,30.4596441 83.3580707,31.5598936 83.8007812,32.015625 C84.9075576,33.1354223 85.692055,34.2063751 86.1542969,35.2285156 C86.6165388,36.2506562 86.8476562,37.3671814 86.8476562,38.578125 C86.8476562,40.9349076 86.0338623,42.8815027 84.40625,44.4179688 C82.7786377,45.9544348 80.6562631,46.7226562 78.0390625,46.7226562 C75.9947814,46.7226562 74.2142003,46.2213592 72.6972656,45.21875 C71.180331,44.2161408 69.8815158,42.6406357 68.8007812,40.4921875 L73.390625,37.71875 C74.7708402,40.2578252 76.359366,41.5273438 78.15625,41.5273438 C79.0937547,41.5273438 79.8815072,41.253909 80.5195312,40.7070312 C81.1575553,40.1601535 81.4765625,39.5286494 81.4765625,38.8125 C81.4765625,38.1614551 81.2356795,37.5104199 80.7539062,36.859375 C80.272133,36.2083301 79.2109457,35.2122463 77.5703125,33.8710938 C74.4452969,31.3189977 72.4270879,29.3496163 71.515625,27.9628906 C70.6041621,26.5761649 70.1484375,25.1927152 70.1484375,23.8125 C70.1484375,21.8203025 70.9068935,20.1113353 72.4238281,18.6855469 C73.9407628,17.2597585 75.8124889,16.546875 78.0390625,16.546875 C79.4713613,16.546875 80.83528,16.8789029 82.1308594,17.5429688 C83.4264388,18.2070346 84.8294195,19.41796 86.3398438,21.1757812 Z M112.785156,36.9179688 L95.65625,36.9179688 C95.9036471,38.428393 96.5644478,39.6295528 97.6386719,40.5214844 C98.712896,41.4134159 100.083325,41.859375 101.75,41.859375 C103.742197,41.859375 105.45442,41.1627674 106.886719,39.7695312 L111.378906,41.8789062 C110.259109,43.4674559 108.917977,44.6425743 107.355469,45.4042969 C105.792961,46.1660194 103.937511,46.546875 101.789062,46.546875 C98.4557125,46.546875 95.7408959,45.4954532 93.6445312,43.3925781 C91.5481666,41.289703 90.5,38.6562658 90.5,35.4921875 C90.5,32.2499838 91.5449114,29.5579534 93.6347656,27.4160156 C95.7246198,25.2740778 98.3450363,24.203125 101.496094,24.203125 C104.842465,24.203125 107.563792,25.2740778 109.660156,27.4160156 C111.756521,29.5579534 112.804688,32.3867012 112.804688,35.9023438 L112.785156,36.9179688 Z M107.433594,32.71875 C107.082029,31.5338482 106.388677,30.5703162 105.353516,29.828125 C104.318354,29.0859338 103.117194,28.7148438 101.75,28.7148438 C100.265618,28.7148438 98.9635473,29.1315063 97.84375,29.9648438 C97.1406215,30.4856797 96.4895863,31.4036393 95.890625,32.71875 L107.433594,32.71875 Z M120.460938,17.2695312 L125.8125,17.2695312 L132.453125,37.3085938 L139.191406,17.2695312 L144.464844,17.2695312 L149.308594,46 L144.035156,46 L140.949219,27.8554688 L134.835938,46 L130.011719,46 L123.976562,27.8554688 L120.832031,46 L115.5,46 L120.460938,17.2695312 Z M153.292969,17.2695312 L158.722656,17.2695312 L158.722656,46 L153.292969,46 L153.292969,17.2695312 Z M173.429688,20.0625 L173.429688,17.2695312 L189.191406,17.2695312 L189.191406,20.0625 L182.785156,20.0625 L182.785156,46 L179.855469,46 L179.855469,20.0625 L173.429688,20.0625 Z M210.753906,38.9492188 L213.058594,40.1601562 C212.303382,41.6445387 211.430995,42.8424434 210.441406,43.7539062 C209.451818,44.6653691 208.338548,45.3587216 207.101562,45.8339844 C205.864577,46.3092472 204.464852,46.546875 202.902344,46.546875 C199.438785,46.546875 196.730479,45.4108187 194.777344,43.1386719 C192.824209,40.8665251 191.847656,38.2981914 191.847656,35.4335938 C191.847656,32.7382678 192.674471,30.335948 194.328125,28.2265625 C196.42449,25.5442574 199.230451,24.203125 202.746094,24.203125 C206.365904,24.203125 209.2565,25.5768092 211.417969,28.3242188 C212.954435,30.2643326 213.735677,32.6861834 213.761719,35.5898438 L194.660156,35.5898438 C194.71224,38.0638145 195.499992,40.091789 197.023438,41.6738281 C198.546883,43.2558673 200.428374,44.046875 202.667969,44.046875 C203.748703,44.046875 204.800125,43.8580748 205.822266,43.4804688 C206.844406,43.1028627 207.713538,42.6015656 208.429688,41.9765625 C209.145837,41.3515594 209.920569,40.3424549 210.753906,38.9492188 Z M210.753906,33.2265625 C210.389321,31.7682219 209.858727,30.6028689 209.162109,29.7304688 C208.465491,28.8580686 207.544277,28.1549506 206.398438,27.6210938 C205.252598,27.0872369 204.048183,26.8203125 202.785156,26.8203125 C200.701813,26.8203125 198.911466,27.4908787 197.414062,28.8320312 C196.320307,29.8085986 195.493492,31.2734277 194.933594,33.2265625 L210.753906,33.2265625 Z M239.484375,29.1640625 L237.316406,30.5117188 C235.441397,28.0247271 232.882829,26.78125 229.640625,26.78125 C227.049466,26.78125 224.897795,27.614575 223.185547,29.28125 C221.473299,30.947925 220.617188,32.9726443 220.617188,35.3554688 C220.617188,36.9049557 221.011064,38.3632744 221.798828,39.7304688 C222.586592,41.0976631 223.667311,42.1588504 225.041016,42.9140625 C226.41472,43.6692746 227.954419,44.046875 229.660156,44.046875 C232.785172,44.046875 235.33723,42.8033979 237.316406,40.3164062 L239.484375,41.7421875 C238.468745,43.2656326 237.104826,44.4472614 235.392578,45.2871094 C233.68033,46.1269573 231.73048,46.546875 229.542969,46.546875 C226.183577,46.546875 223.397146,45.4791773 221.183594,43.34375 C218.970041,41.2083227 217.863281,38.6106924 217.863281,35.5507812 C217.863281,33.4934793 218.380854,31.5826911 219.416016,29.8183594 C220.451177,28.0540276 221.873689,26.6770883 223.683594,25.6875 C225.493499,24.6979117 227.518218,24.203125 229.757812,24.203125 C231.16407,24.203125 232.521478,24.4179666 233.830078,24.8476562 C235.138678,25.2773459 236.248693,25.8372361 237.160156,26.5273438 C238.071619,27.2174514 238.846351,28.0963488 239.484375,29.1640625 Z M244.738281,16.546875 L247.472656,16.546875 L247.472656,28.5585938 C248.579433,27.1002531 249.796868,26.0097692 251.125,25.2871094 C252.453132,24.5644495 253.891919,24.203125 255.441406,24.203125 C257.029956,24.203125 258.439447,24.6067668 259.669922,25.4140625 C260.900397,26.2213582 261.808591,27.3053317 262.394531,28.6660156 C262.980472,30.0266995 263.273438,32.1588396 263.273438,35.0625 L263.273438,46 L260.539062,46 L260.539062,35.8632812 C260.539062,33.4153523 260.441407,31.7812541 260.246094,30.9609375 C259.90755,29.5546805 259.292322,28.4967483 258.400391,27.7871094 C257.508459,27.0774704 256.339851,26.7226562 254.894531,26.7226562 C253.240877,26.7226562 251.759772,27.2695258 250.451172,28.3632812 C249.142572,29.4570367 248.27995,30.8111898 247.863281,32.4257812 C247.602863,33.4674531 247.472656,35.3945172 247.472656,38.2070312 L247.472656,46 L244.738281,46 L244.738281,16.546875 Z M269.132812,24.75 L271.867188,24.75 L271.867188,28.5585938 C272.960943,27.1002531 274.171868,26.0097692 275.5,25.2871094 C276.828132,24.5644495 278.27343,24.203125 279.835938,24.203125 C281.424487,24.203125 282.833978,24.6067668 284.064453,25.4140625 C285.294928,26.2213582 286.203122,27.3085869 286.789062,28.6757812 C287.375003,30.0429756 287.667969,32.1718605 287.667969,35.0625 L287.667969,46 L284.953125,46 L284.953125,35.8632812 C284.953125,33.4153523 284.848959,31.7812541 284.640625,30.9609375 C284.315103,29.5546805 283.703129,28.4967483 282.804688,27.7871094 C281.906246,27.0774704 280.734382,26.7226562 279.289062,26.7226562 C277.635408,26.7226562 276.154303,27.2695258 274.845703,28.3632812 C273.537103,29.4570367 272.674481,30.8111898 272.257812,32.4257812 C271.997395,33.480474 271.867188,35.4075381 271.867188,38.2070312 L271.867188,46 L269.132812,46 L269.132812,24.75 Z M303.585938,24.203125 C306.854183,24.203125 309.562489,25.388009 311.710938,27.7578125 C313.664072,29.9192816 314.640625,32.4778498 314.640625,35.4335938 C314.640625,38.4023586 313.608734,40.9967337 311.544922,43.2167969 C309.481109,45.4368601 306.828141,46.546875 303.585938,46.546875 C300.330713,46.546875 297.671234,45.4368601 295.607422,43.2167969 C293.543609,40.9967337 292.511719,38.4023586 292.511719,35.4335938 C292.511719,32.4908707 293.488271,29.9388129 295.441406,27.7773438 C297.589854,25.3945193 300.304671,24.203125 303.585938,24.203125 Z M303.585938,26.8789062 C301.320301,26.8789062 299.373706,27.7187416 297.746094,29.3984375 C296.118481,31.0781334 295.304688,33.1093631 295.304688,35.4921875 C295.304688,37.0286535 295.675778,38.4609309 296.417969,39.7890625 C297.16016,41.1171941 298.162754,42.1425745 299.425781,42.8652344 C300.688808,43.5878942 302.075513,43.9492188 303.585938,43.9492188 C305.096362,43.9492188 306.483067,43.5878942 307.746094,42.8652344 C309.009121,42.1425745 310.011715,41.1171941 310.753906,39.7890625 C311.496097,38.4609309 311.867188,37.0286535 311.867188,35.4921875 C311.867188,33.1093631 311.050138,31.0781334 309.416016,29.3984375 C307.781893,27.7187416 305.838553,26.8789062 303.585938,26.8789062 Z M319.308594,16.546875 L322.042969,16.546875 L322.042969,46 L319.308594,46 L319.308594,16.546875 Z M337.785156,24.203125 C341.053402,24.203125 343.761708,25.388009 345.910156,27.7578125 C347.863291,29.9192816 348.839844,32.4778498 348.839844,35.4335938 C348.839844,38.4023586 347.807953,40.9967337 345.744141,43.2167969 C343.680328,45.4368601 341.02736,46.546875 337.785156,46.546875 C334.529932,46.546875 331.870453,45.4368601 329.806641,43.2167969 C327.742828,40.9967337 326.710938,38.4023586 326.710938,35.4335938 C326.710938,32.4908707 327.68749,29.9388129 329.640625,27.7773438 C331.789073,25.3945193 334.50389,24.203125 337.785156,24.203125 Z M337.785156,26.8789062 C335.51952,26.8789062 333.572925,27.7187416 331.945312,29.3984375 C330.3177,31.0781334 329.503906,33.1093631 329.503906,35.4921875 C329.503906,37.0286535 329.874996,38.4609309 330.617188,39.7890625 C331.359379,41.1171941 332.361973,42.1425745 333.625,42.8652344 C334.888027,43.5878942 336.274732,43.9492188 337.785156,43.9492188 C339.29558,43.9492188 340.682285,43.5878942 341.945312,42.8652344 C343.20834,42.1425745 344.210934,41.1171941 344.953125,39.7890625 C345.695316,38.4609309 346.066406,37.0286535 346.066406,35.4921875 C346.066406,33.1093631 345.249357,31.0781334 343.615234,29.3984375 C341.981112,27.7187416 340.037772,26.8789062 337.785156,26.8789062 Z M372.21875,24.75 L374.972656,24.75 L374.972656,41.6835938 C374.972656,44.6653795 374.712242,46.8463473 374.191406,48.2265625 C373.475257,50.1796973 372.23178,51.6835885 370.460938,52.7382812 C368.690095,53.792974 366.56121,54.3203125 364.074219,54.3203125 C362.251293,54.3203125 360.61394,54.0631536 359.162109,53.5488281 C357.710279,53.0345026 356.52865,52.3444054 355.617188,51.4785156 C354.705725,50.6126259 353.865889,49.3463625 353.097656,47.6796875 L356.066406,47.6796875 C356.873702,49.0859445 357.915358,50.1276008 359.191406,50.8046875 C360.467454,51.4817742 362.04947,51.8203125 363.9375,51.8203125 C365.799488,51.8203125 367.371738,51.4720087 368.654297,50.7753906 C369.936855,50.0787726 370.85156,49.2031303 371.398438,48.1484375 C371.945315,47.0937447 372.21875,45.394543 372.21875,43.0507812 L372.21875,41.9570312 C371.190099,43.2591211 369.933601,44.2584601 368.449219,44.9550781 C366.964836,45.6516962 365.389331,46 363.722656,46 C361.769521,46 359.933602,45.5149788 358.214844,44.5449219 C356.496085,43.5748649 355.167973,42.2695395 354.230469,40.6289062 C353.292964,38.988273 352.824219,37.1849057 352.824219,35.21875 C352.824219,33.2525943 353.312495,31.4199304 354.289062,29.7207031 C355.26563,28.0214759 356.616528,26.6770883 358.341797,25.6875 C360.067066,24.6979117 361.886709,24.203125 363.800781,24.203125 C365.389331,24.203125 366.870436,24.5318978 368.244141,25.1894531 C369.617845,25.8470085 370.942702,26.930982 372.21875,28.4414062 L372.21875,24.75 Z M364.152344,26.8398438 C362.602857,26.8398438 361.164069,27.214189 359.835938,27.9628906 C358.507806,28.7115923 357.46615,29.7467382 356.710938,31.0683594 C355.955725,32.3899806 355.578125,33.8190027 355.578125,35.3554688 C355.578125,37.6862096 356.359367,39.6132736 357.921875,41.1367188 C359.484383,42.6601639 361.509102,43.421875 363.996094,43.421875 C366.509127,43.421875 368.530591,42.6666742 370.060547,41.15625 C371.590502,39.6458258 372.355469,37.6601686 372.355469,35.1992188 C372.355469,33.5976482 372.00391,32.1686261 371.300781,30.9121094 C370.597653,29.6555927 369.601569,28.6627641 368.3125,27.9335938 C367.023431,27.2044234 365.636726,26.8398438 364.152344,26.8398438 Z M381.789062,16 C382.414066,16 382.947914,16.221352 383.390625,16.6640625 C383.833336,17.106773 384.054688,17.6406219 384.054688,18.265625 C384.054688,18.8776072 383.833336,19.4049457 383.390625,19.8476562 C382.947914,20.2903668 382.414066,20.5117188 381.789062,20.5117188 C381.17708,20.5117188 380.649742,20.2903668 380.207031,19.8476562 C379.764321,19.4049457 379.542969,18.8776072 379.542969,18.265625 C379.542969,17.6406219 379.764321,17.106773 380.207031,16.6640625 C380.649742,16.221352 381.17708,16 381.789062,16 Z M380.421875,24.75 L383.175781,24.75 L383.175781,46 L380.421875,46 L380.421875,24.75 Z M406.730469,38.9492188 L409.035156,40.1601562 C408.279944,41.6445387 407.407557,42.8424434 406.417969,43.7539062 C405.42838,44.6653691 404.31511,45.3587216 403.078125,45.8339844 C401.84114,46.3092472 400.441414,46.546875 398.878906,46.546875 C395.415347,46.546875 392.707041,45.4108187 390.753906,43.1386719 C388.800771,40.8665251 387.824219,38.2981914 387.824219,35.4335938 C387.824219,32.7382678 388.651033,30.335948 390.304688,28.2265625 C392.401052,25.5442574 395.207014,24.203125 398.722656,24.203125 C402.342466,24.203125 405.233062,25.5768092 407.394531,28.3242188 C408.930997,30.2643326 409.712239,32.6861834 409.738281,35.5898438 L390.636719,35.5898438 C390.688802,38.0638145 391.476555,40.091789 393,41.6738281 C394.523445,43.2558673 396.404937,44.046875 398.644531,44.046875 C399.725266,44.046875 400.776688,43.8580748 401.798828,43.4804688 C402.820969,43.1028627 403.690101,42.6015656 404.40625,41.9765625 C405.122399,41.3515594 405.897131,40.3424549 406.730469,38.9492188 Z M406.730469,33.2265625 C406.365884,31.7682219 405.83529,30.6028689 405.138672,29.7304688 C404.442054,28.8580686 403.520839,28.1549506 402.375,27.6210938 C401.229161,27.0872369 400.024746,26.8203125 398.761719,26.8203125 C396.678375,26.8203125 394.888028,27.4908787 393.390625,28.8320312 C392.29687,29.8085986 391.470055,31.2734277 390.910156,33.2265625 L406.730469,33.2265625 Z M425.519531,27.0742188 L423.761719,28.890625 C422.303378,27.4713471 420.877611,26.7617188 419.484375,26.7617188 C418.598954,26.7617188 417.840498,27.0546846 417.208984,27.640625 C416.577471,28.2265654 416.261719,28.9101523 416.261719,29.6914062 C416.261719,30.3815139 416.522133,31.0390594 417.042969,31.6640625 C417.563805,32.3020865 418.657544,33.050777 420.324219,33.9101562 C422.355479,34.964849 423.735673,35.9804639 424.464844,36.9570312 C425.180993,37.9466195 425.539062,39.0598896 425.539062,40.296875 C425.539062,42.0416754 424.927089,43.5195252 423.703125,44.7304688 C422.479161,45.9414123 420.949228,46.546875 419.113281,46.546875 C417.889317,46.546875 416.720709,46.2799506 415.607422,45.7460938 C414.494135,45.2122369 413.57292,44.4765672 412.84375,43.5390625 L414.5625,41.5859375 C415.955736,43.1614662 417.433586,43.9492188 418.996094,43.9492188 C420.089849,43.9492188 421.020829,43.5976598 421.789062,42.8945312 C422.557296,42.1914027 422.941406,41.3645881 422.941406,40.4140625 C422.941406,39.6328086 422.687503,38.936201 422.179688,38.3242188 C421.671872,37.7252574 420.526051,36.9700566 418.742188,36.0585938 C416.828115,35.0690055 415.526045,34.0924527 414.835938,33.1289062 C414.14583,32.1653598 413.800781,31.0651104 413.800781,29.828125 C413.800781,28.2135336 414.350906,26.8724012 415.451172,25.8046875 C416.551438,24.7369738 417.941398,24.203125 419.621094,24.203125 C421.574229,24.203125 423.540355,25.1601467 425.519531,27.0742188 Z" id="SeMITechnologies" fill="#00152B" fill-rule="nonzero"></path>
    </g>
</svg>