<svg xmlns="http://www.w3.org/2000/svg" viewBox="0 0 360 360"><defs><style>.cls-1{fill:#fff;}</style></defs><g id="Layer_2" data-name="Layer 2"><path class="cls-1" d="M180.08,126.84a6,6,0,1,0-6-6A6,6,0,0,0,180.08,126.84Zm0-10a4,4,0,1,1-4,4A4,4,0,0,1,180.08,116.88Z"/><circle class="cls-1" cx="163.08" cy="91.41" r="2.99"/><circle class="cls-1" cx="163.08" cy="111.04" r="2.99"/><circle class="cls-1" cx="180.08" cy="100.99" r="2.99"/><circle class="cls-1" cx="146.08" cy="100.99" r="2.99"/><circle class="cls-1" cx="146.09" cy="120.62" r="2.99"/><circle class="cls-1" cx="146.08" cy="179.75" r="2.99"/><circle class="cls-1" cx="163.08" cy="189.56" r="2.99"/><circle class="cls-1" cx="180.08" cy="179.75" r="2.99"/><circle class="cls-1" cx="128.74" cy="130.67" r="2.99"/><circle class="cls-1" cx="128.91" cy="150.3" r="2.99"/><circle class="cls-1" cx="196.92" cy="91.41" r="2.99"/><circle class="cls-1" cx="196.92" cy="111.04" r="2.99"/><circle class="cls-1" cx="213.92" cy="100.99" r="2.99"/><circle class="cls-1" cx="213.91" cy="120.62" r="2.99"/><circle class="cls-1" cx="213.92" cy="179.75" r="2.99"/><circle class="cls-1" cx="196.92" cy="189.56" r="2.99"/><circle class="cls-1" cx="231.27" cy="130.67" r="2.99"/><circle class="cls-1" cx="231.09" cy="150.3" r="2.99"/><path class="cls-1" d="M180.13,87.41a6,6,0,1,0-6-6A6,6,0,0,0,180.13,87.41Zm0-10a4,4,0,1,1-4,4A4,4,0,0,1,180.13,77.45Z"/><path class="cls-1" d="M128.91,105.06a6,6,0,1,0,6,6A6,6,0,0,0,128.91,105.06Zm0,10a4,4,0,1,1,4-4A4,4,0,0,1,128.91,115Z"/><path class="cls-1" d="M128.91,164a6,6,0,1,0,6,6A6,6,0,0,0,128.91,164Zm0,10a4,4,0,1,1,4-4A4,4,0,0,1,128.91,173.91Z"/><path class="cls-1" d="M231.09,117a6,6,0,1,0-6-6A6,6,0,0,0,231.09,117Zm0-10a4,4,0,1,1-4,4A4,4,0,0,1,231.09,107.06Z"/><path class="cls-1" d="M231.09,164a6,6,0,1,0,6,6A6,6,0,0,0,231.09,164Zm0,10a4,4,0,1,1,4-4A4,4,0,0,1,231.09,173.91Z"/><path class="cls-1" d="M180.13,193.8a6,6,0,1,0,6,6A6,6,0,0,0,180.13,193.8Zm0,10a4,4,0,1,1,4-4A4,4,0,0,1,180.13,203.76Z"/><polygon class="cls-1" points="214.09 159.64 214.09 140.01 197.1 130.19 197.09 149.83 180.09 140.01 163.09 149.83 163.09 130.2 146.09 140.01 146.09 159.64 163.09 169.46 180.09 159.64 197.09 169.46 214.09 159.64"/><polygon class="cls-1" points="139.9 241.03 135.42 229.66 134.39 229.66 129.86 241.03 126.64 229.66 123.83 229.66 129 247.89 130.04 247.89 134.91 235.71 139.69 247.89 140.73 247.89 145.97 229.66 143.17 229.66 139.9 241.03"/><path class="cls-1" d="M161.27,241.14a7.36,7.36,0,0,0-1.51-4.66,6.79,6.79,0,0,0-5.6-2.66,6.59,6.59,0,0,0-5.45,2.6A7.46,7.46,0,0,0,149,246a6.55,6.55,0,0,0,5.25,2.22,7.39,7.39,0,0,0,2.7-.46,6.64,6.64,0,0,0,2.17-1.35,7.91,7.91,0,0,0,1.68-2.29l.22-.44-2.24-1.18-.24.41a7.3,7.3,0,0,1-1.29,1.69,4.53,4.53,0,0,1-1.42.8,4.8,4.8,0,0,1-1.72.31,4,4,0,0,1-3-1.27,4.53,4.53,0,0,1-1.25-2.79h11.45Zm-11.11-1.91a4.43,4.43,0,0,1,1.13-1.76,4.14,4.14,0,0,1,2.89-1.08,4.59,4.59,0,0,1,2,.43,4.06,4.06,0,0,1,1.48,1.12,4.35,4.35,0,0,1,.68,1.29Z"/><path class="cls-1" d="M169.8,248.22a6.87,6.87,0,0,0,3-.68,7.14,7.14,0,0,0,1.59-1.09v1.44H177V234.14h-2.62v1.5a6.29,6.29,0,0,0-1.5-1.1,6.55,6.55,0,0,0-3.07-.72,6.79,6.79,0,0,0-5,2.1,7,7,0,0,0-2.08,5.06,7.09,7.09,0,0,0,2.06,5.13A6.73,6.73,0,0,0,169.8,248.22ZM165.42,241a4.7,4.7,0,0,1,.62-2.33A4.55,4.55,0,0,1,167.7,237a4.49,4.49,0,0,1,2.28-.6,4.34,4.34,0,0,1,3.23,1.33,4.54,4.54,0,0,1,1.31,3.35,4.76,4.76,0,0,1-.58,2.37,4.21,4.21,0,0,1-1.67,1.65,4.54,4.54,0,0,1-4.55,0,4.63,4.63,0,0,1-1.67-1.73A4.69,4.69,0,0,1,165.42,241Z"/><polygon class="cls-1" points="188.95 234.14 185.04 242.74 181.09 234.14 178.24 234.14 184.57 247.89 185.52 247.89 191.81 234.14 188.95 234.14"/><rect class="cls-1" x="192.78" y="234.14" width="2.64" height="13.75"/><path class="cls-1" d="M192.8,229.44a1.85,1.85,0,1,0,2.61,0A1.84,1.84,0,0,0,192.8,229.44Z"/><path class="cls-1" d="M207.33,247.54a7.14,7.14,0,0,0,1.59-1.09v1.44h2.62V234.14h-2.62v1.5a6.29,6.29,0,0,0-1.5-1.1,6.55,6.55,0,0,0-3.07-.72,6.79,6.79,0,0,0-5,2.1,7,7,0,0,0-2.08,5.06,7.09,7.09,0,0,0,2.06,5.13,6.73,6.73,0,0,0,5,2.11A6.87,6.87,0,0,0,207.33,247.54Zm-6.78-4.17a4.66,4.66,0,0,1,0-4.66A4.55,4.55,0,0,1,202.2,237a4.49,4.49,0,0,1,2.28-.6,4.34,4.34,0,0,1,3.23,1.33,4.54,4.54,0,0,1,1.31,3.35,4.76,4.76,0,0,1-.58,2.37,4.21,4.21,0,0,1-1.67,1.65,4.54,4.54,0,0,1-4.55,0A4.63,4.63,0,0,1,200.55,243.37Z"/><polygon class="cls-1" points="215.66 247.89 218.3 247.89 218.3 236.56 220.9 236.56 220.9 234.14 218.3 234.14 218.3 229.41 215.66 229.41 215.66 234.14 213.42 234.14 213.42 236.56 215.66 236.56 215.66 247.89"/><path class="cls-1" d="M233.74,246.41a7.73,7.73,0,0,0,1.68-2.29l.23-.44-2.24-1.18-.24.41a7.29,7.29,0,0,1-1.3,1.69,4.48,4.48,0,0,1-1.41.8,4.88,4.88,0,0,1-1.72.31,4,4,0,0,1-3-1.27,4.48,4.48,0,0,1-1.25-2.79H235.9v-.51a7.42,7.42,0,0,0-1.52-4.66,6.77,6.77,0,0,0-5.6-2.66,6.57,6.57,0,0,0-5.44,2.6,7.48,7.48,0,0,0,.28,9.58,6.59,6.59,0,0,0,5.26,2.22,7.46,7.46,0,0,0,2.7-.46A6.5,6.5,0,0,0,233.74,246.41Zm-9-7.18a4.43,4.43,0,0,1,1.13-1.76,4.16,4.16,0,0,1,2.9-1.08,4.59,4.59,0,0,1,2,.43,4.14,4.14,0,0,1,1.48,1.12,4.59,4.59,0,0,1,.68,1.29Z"/><polygon class="cls-1" points="79.45 276.19 89.26 276.19 89.26 274.51 81.17 274.51 81.17 267.73 89.26 267.73 89.26 266.05 81.17 266.05 81.17 260.64 89.33 260.64 89.33 258.96 79.45 258.96 79.45 276.19"/><path class="cls-1" d="M100.63,267.63a4.1,4.1,0,0,0,1.89-1.61,4.62,4.62,0,0,0,.66-2.48,4.3,4.3,0,0,0-1-2.84,4.47,4.47,0,0,0-2.49-1.51,20.64,20.64,0,0,0-3.89-.23H92.4v17.23h1.72v-8h1l6.2,8h2.13l-6.2-8A8.61,8.61,0,0,0,100.63,267.63Zm-6.51-1.13v-5.86h3a7.29,7.29,0,0,1,2.54.31,2.58,2.58,0,0,1,1.23,1,2.74,2.74,0,0,1,.47,1.58,2.91,2.91,0,0,1-.46,1.61,2.68,2.68,0,0,1-1.29,1.05,7.38,7.38,0,0,1-2.56.33Z"/><path class="cls-1" d="M114.28,259.21a20.13,20.13,0,0,0-4-.25h-3.44v17.23h1.73v-8h1.23a22.88,22.88,0,0,0,4.38-.28,4.5,4.5,0,0,0,2.52-1.51,4.34,4.34,0,0,0,.91-2.84,4.27,4.27,0,0,0-.94-2.84A4.43,4.43,0,0,0,114.28,259.21Zm1.1,6a2.6,2.6,0,0,1-1.29,1,7.43,7.43,0,0,1-2.59.33l-2.91,0v-5.85h3a7.27,7.27,0,0,1,2.52.31,2.54,2.54,0,0,1,1.23,1,2.94,2.94,0,0,1,0,3.19Z"/><path class="cls-1" d="M133.93,264.66a5.47,5.47,0,0,1,4.6,2.24l1.3-.81a5.5,5.5,0,0,0-1.4-1.58,6.81,6.81,0,0,0-2-1,7.64,7.64,0,0,0-2.44-.38,7.38,7.38,0,0,0-3.64.89,6.54,6.54,0,0,0-2.56,2.47,6.71,6.71,0,0,0-.94,3.44,6.25,6.25,0,0,0,2,4.68,6.94,6.94,0,0,0,5,1.92,7.74,7.74,0,0,0,3.51-.76,6.07,6.07,0,0,0,2.46-2.13l-1.3-.86a5.62,5.62,0,0,1-4.59,2.24,5.68,5.68,0,0,1-2.77-.68,5,5,0,0,1-1.94-1.91,5.18,5.18,0,0,1-.71-2.62,4.87,4.87,0,0,1,1.54-3.64A5.3,5.3,0,0,1,133.93,264.66Z"/><rect class="cls-1" x="142.73" y="258.52" width="1.64" height="17.67"/><path class="cls-1" d="M158.87,265.79a6.51,6.51,0,0,0-2.23-2,6.09,6.09,0,0,0-2.84-.66,6.32,6.32,0,0,0-4.66,1.95,6.47,6.47,0,0,0-1.93,4.71,6.58,6.58,0,0,0,1.92,4.78,6.19,6.19,0,0,0,4.62,2,6.33,6.33,0,0,0,2.81-.63,7,7,0,0,0,2.31-1.89v2.19h1.62V263.44h-1.62Zm-.54,6.7a4.77,4.77,0,0,1-1.86,1.84,5.13,5.13,0,0,1-2.55.68,4.92,4.92,0,0,1-2.5-.68,5,5,0,0,1-1.86-1.92,5.15,5.15,0,0,1,0-5.15,4.93,4.93,0,0,1,4.37-2.56,4.83,4.83,0,0,1,3.59,1.48,5.11,5.11,0,0,1,1.46,3.7A5.26,5.26,0,0,1,158.33,272.49Z"/><path class="cls-1" d="M167.47,268.94a6.59,6.59,0,0,1-2-1.35,1.83,1.83,0,0,1-.47-1.18,1.62,1.62,0,0,1,.57-1.23,2,2,0,0,1,1.37-.53,3.78,3.78,0,0,1,2.57,1.28l1.06-1.09a5.18,5.18,0,0,0-3.55-1.72,3.44,3.44,0,0,0-2.5,1,3.21,3.21,0,0,0-1,2.41,3.28,3.28,0,0,0,.62,2,6.53,6.53,0,0,0,2.35,1.76,7.31,7.31,0,0,1,2.06,1.36,1.88,1.88,0,0,1,.46,1.25,2,2,0,0,1-.69,1.49,2.4,2.4,0,0,1-1.68.63,3.6,3.6,0,0,1-2.67-1.41l-1,1.17a4.59,4.59,0,0,0,1.66,1.32,4.83,4.83,0,0,0,2.11.48,3.77,3.77,0,0,0,2.76-1.09,3.6,3.6,0,0,0,1.1-2.66,3.26,3.26,0,0,0-.65-2A7.15,7.15,0,0,0,167.47,268.94Z"/><path class="cls-1" d="M176.78,268.94a6.51,6.51,0,0,1-2-1.35,1.83,1.83,0,0,1-.47-1.18,1.62,1.62,0,0,1,.57-1.23,2,2,0,0,1,1.37-.53,3.8,3.8,0,0,1,2.57,1.28l1.06-1.09a5.2,5.2,0,0,0-3.55-1.72,3.48,3.48,0,0,0-2.51,1,3.21,3.21,0,0,0-1,2.41,3.29,3.29,0,0,0,.63,2,6.47,6.47,0,0,0,2.34,1.76,7.25,7.25,0,0,1,2.07,1.36,1.88,1.88,0,0,1,.46,1.25,2,2,0,0,1-.69,1.49A2.44,2.44,0,0,1,176,275a3.6,3.6,0,0,1-2.67-1.41l-1,1.17A4.59,4.59,0,0,0,174,276a4.83,4.83,0,0,0,2.11.48,3.73,3.73,0,0,0,2.75-1.09,3.57,3.57,0,0,0,1.11-2.66,3.32,3.32,0,0,0-.65-2A7.31,7.31,0,0,0,176.78,268.94Z"/><path class="cls-1" d="M183.38,258.19a1.35,1.35,0,0,0-1.34,1.36,1.3,1.3,0,0,0,.39.95,1.29,1.29,0,0,0,.95.4,1.35,1.35,0,0,0,1.35-1.35,1.35,1.35,0,0,0-1.35-1.36Z"/><rect class="cls-1" x="182.57" y="263.44" width="1.64" height="12.75"/><path class="cls-1" d="M189.5,258.55a2,2,0,0,0-.86.94,5.44,5.44,0,0,0-.25,2v2h-1.68v1.42h1.68v11.33H190V264.86h2.66v-1.42H190v-1.72a6.54,6.54,0,0,1,.08-1.34.89.89,0,0,1,.4-.45,1.6,1.6,0,0,1,.8-.19,4.08,4.08,0,0,1,1.55.39v-1.61a7,7,0,0,0-1.91-.33A2.8,2.8,0,0,0,189.5,258.55Z"/><path class="cls-1" d="M195.72,258.19a1.35,1.35,0,0,0-1.34,1.36,1.3,1.3,0,0,0,.39.95,1.29,1.29,0,0,0,.95.4,1.35,1.35,0,0,0,1.35-1.35,1.35,1.35,0,0,0-1.35-1.36Z"/><rect class="cls-1" x="194.91" y="263.44" width="1.64" height="12.75"/><path class="cls-1" d="M206.43,264.66a5.45,5.45,0,0,1,4.6,2.24l1.3-.81a5.47,5.47,0,0,0-1.39-1.58,7.07,7.07,0,0,0-2-1,7.73,7.73,0,0,0-2.44-.38,7.42,7.42,0,0,0-3.65.89,6.54,6.54,0,0,0-2.56,2.47,6.7,6.7,0,0,0-.93,3.44,6.24,6.24,0,0,0,2,4.68,6.94,6.94,0,0,0,5,1.92,7.8,7.8,0,0,0,3.51-.76,6.1,6.1,0,0,0,2.45-2.13l-1.3-.86a5.6,5.6,0,0,1-4.59,2.24,5.71,5.71,0,0,1-2.77-.68,5,5,0,0,1-1.94-1.91,5.18,5.18,0,0,1-.71-2.62,4.91,4.91,0,0,1,1.54-3.64A5.33,5.33,0,0,1,206.43,264.66Z"/><path class="cls-1" d="M226.57,265.79a6.6,6.6,0,0,0-2.23-2,6.09,6.09,0,0,0-2.84-.66,6.32,6.32,0,0,0-4.66,1.95,6.47,6.47,0,0,0-1.93,4.71,6.58,6.58,0,0,0,1.92,4.78,6.19,6.19,0,0,0,4.62,2,6.33,6.33,0,0,0,2.81-.63,7,7,0,0,0,2.31-1.89v2.19h1.62V263.44h-1.62Zm-.54,6.7a4.77,4.77,0,0,1-1.86,1.84,5.13,5.13,0,0,1-2.55.68,4.92,4.92,0,0,1-2.5-.68,5,5,0,0,1-1.86-1.92,5.15,5.15,0,0,1,0-5.15,4.93,4.93,0,0,1,4.37-2.56,4.83,4.83,0,0,1,3.59,1.48,5.11,5.11,0,0,1,1.46,3.7A5.26,5.26,0,0,1,226,272.49Z"/><polygon class="cls-1" points="234.95 258.71 233.31 258.71 233.31 263.44 231.07 263.44 231.07 264.86 233.31 264.86 233.31 276.19 234.95 276.19 234.95 264.86 237.55 264.86 237.55 263.44 234.95 263.44 234.95 258.71"/><path class="cls-1" d="M240.58,258.19a1.35,1.35,0,0,0-1.34,1.36,1.3,1.3,0,0,0,.39.95,1.29,1.29,0,0,0,1,.4,1.35,1.35,0,0,0,1.35-1.35,1.35,1.35,0,0,0-1.35-1.36Z"/><rect class="cls-1" x="239.76" y="263.44" width="1.64" height="12.75"/><path class="cls-1" d="M250.85,263.12a6.3,6.3,0,0,0-4.89,2.14,6.8,6.8,0,0,0,.1,9.26,6.72,6.72,0,0,0,9.57,0,6.81,6.81,0,0,0,.1-9.27A6.3,6.3,0,0,0,250.85,263.12Zm4.31,9.35a4.78,4.78,0,0,1-1.81,1.84,5.15,5.15,0,0,1-5,0,4.78,4.78,0,0,1-1.81-1.84,5.17,5.17,0,0,1-.67-2.58,5.06,5.06,0,0,1,1.47-3.66,4.83,4.83,0,0,1,7,0,5,5,0,0,1,1.48,3.66A5.17,5.17,0,0,1,255.16,272.47Z"/><path class="cls-1" d="M269.49,263.84a4.55,4.55,0,0,0-2.54-.72,5.28,5.28,0,0,0-2.6.65,6.75,6.75,0,0,0-2.18,2v-2.29h-1.64v12.75h1.64v-4.67a16.56,16.56,0,0,1,.24-3.47,4.59,4.59,0,0,1,1.55-2.44,4.06,4.06,0,0,1,2.67-1,3.25,3.25,0,0,1,2.1.64,3.21,3.21,0,0,1,1.1,1.9,15.15,15.15,0,0,1,.18,2.94v6.08h1.64v-6.56a10.17,10.17,0,0,0-.53-3.83A4.34,4.34,0,0,0,269.49,263.84Z"/><path class="cls-1" d="M278.45,268.94a6.51,6.51,0,0,1-2-1.35,1.83,1.83,0,0,1-.47-1.18,1.62,1.62,0,0,1,.57-1.23,2,2,0,0,1,1.37-.53,3.78,3.78,0,0,1,2.57,1.28l1.06-1.09a5.18,5.18,0,0,0-3.55-1.72,3.44,3.44,0,0,0-2.5,1,3.18,3.18,0,0,0-1,2.41,3.29,3.29,0,0,0,.63,2,6.44,6.44,0,0,0,2.35,1.76,7.31,7.31,0,0,1,2.06,1.36,1.88,1.88,0,0,1,.46,1.25,2,2,0,0,1-.69,1.49,2.4,2.4,0,0,1-1.68.63,3.6,3.6,0,0,1-2.67-1.41l-1,1.17a4.59,4.59,0,0,0,1.66,1.32,4.83,4.83,0,0,0,2.11.48,3.77,3.77,0,0,0,2.76-1.09,3.6,3.6,0,0,0,1.1-2.66,3.32,3.32,0,0,0-.65-2A7.11,7.11,0,0,0,278.45,268.94Z"/></g></svg>