<?xml version="1.0" encoding="utf-8"?>
<!-- Generator: Adobe Illustrator 24.1.0, SVG Export Plug-In . SVG Version: 6.00 Build 0)  -->
<svg version="1.1" id="Layer_1" xmlns="http://www.w3.org/2000/svg" xmlns:xlink="http://www.w3.org/1999/xlink" x="0px" y="0px"
	 viewBox="0 0 113 131" style="enable-background:new 0 0 113 131;" xml:space="preserve">
<style type="text/css">
	.st0{fill:#2E3536;}
	.st1{fill-rule:evenodd;clip-rule:evenodd;fill:#38D611;}
	.st2{fill:#38D611;}
</style>
<g>
	<g>
		<g transform="translate(.86 94.59)">
			<g>
				<path id="a" d="M14.8,15L11.5,0.8h2.7l2,9.1l2.6-9.1h2.3l2.6,9.1l2-9.1h2.7L25.1,15h-2.6l-2.6-9.2L17.3,15H14.8z"/>
			</g>
			<g>
				<path id="a_1_" class="st0" d="M14.8,15L11.5,0.8h2.7l2,9.1l2.6-9.1h2.3l2.6,9.1l2-9.1h2.7L25.1,15h-2.6l-2.6-9.2L17.3,15H14.8z
					"/>
			</g>
		</g>
		<g transform="translate(.86 94.59)">
			<g>
				<path id="b" d="M36.9,11.9l2.2,1.1c-1.1,1.6-2.6,2.3-4.8,2.3c-3.4,0-5.5-2.5-5.5-5.6c0-2.9,2.1-5.5,5.5-5.5
					c3.3,0,5.6,2.4,5.6,5.7c0,0.2,0,0.4,0,0.6h-8.5c0.3,1.6,1.4,2.4,3,2.4C35.4,12.9,36.1,12.6,36.9,11.9z M31.4,8.4h5.7
					c-0.4-1.2-1.5-2-2.9-2C32.9,6.4,31.9,7.1,31.4,8.4z M49.7,15v-1.1c-0.9,0.9-1.9,1.4-3.3,1.4c-2.7,0-5-2.3-5-5.5
					c0-3.3,2.2-5.6,5-5.6c1.3,0,2.4,0.5,3.3,1.4V4.5h2.6V15C52.3,15,49.7,15,49.7,15z M46.9,6.6c-1.7,0-2.8,1.4-2.8,3.1
					c0,1.8,1.2,3.1,2.8,3.1c1.6,0,2.9-1.2,2.9-3.2C49.8,7.9,48.6,6.6,46.9,6.6z M58.4,15L53.9,4.5h2.7l2.7,6.2l2.7-6.2h2.7L60.1,15
					H58.4z M65.8,15V4.5h2.6V15H65.8z M67.2,0.1c1,0,1.7,0.8,1.7,1.7c0,0.9-0.8,1.7-1.7,1.7c-1,0-1.7-0.9-1.7-1.8
					C65.5,0.8,66.2,0.1,67.2,0.1L67.2,0.1z M78.7,15v-1.1c-0.9,0.9-1.9,1.4-3.3,1.4c-2.7,0-5-2.3-5-5.5c0-3.3,2.2-5.6,5-5.6
					c1.3,0,2.4,0.5,3.3,1.4V4.5h2.6V15C81.3,15,78.7,15,78.7,15z M75.9,6.6C74.1,6.6,73,8,73,9.7c0,1.8,1.2,3.1,2.8,3.1
					c1.6,0,2.9-1.2,2.9-3.2C78.8,7.9,77.5,6.6,75.9,6.6z M84.3,4.5V0.6h2.6v3.9h1.6v2.3h-1.6V15h-2.6V6.7h-1.3V4.5H84.3L84.3,4.5z
					 M97.6,11.9l2.2,1.1c-1.1,1.6-2.6,2.3-4.8,2.3c-3.4,0-5.5-2.5-5.5-5.6c0-2.9,2.1-5.5,5.5-5.5c3.3,0,5.6,2.4,5.6,5.7
					c0,0.2,0,0.4,0,0.6H92c0.3,1.6,1.4,2.4,3,2.4C96.1,12.9,96.8,12.6,97.6,11.9z M92.1,8.4h5.7c-0.4-1.2-1.5-2-2.9-2
					C93.6,6.4,92.6,7.1,92.1,8.4z"/>
			</g>
			<g>
				<path id="b_1_" class="st0" d="M36.9,11.9l2.2,1.1c-1.1,1.6-2.6,2.3-4.8,2.3c-3.4,0-5.5-2.5-5.5-5.6c0-2.9,2.1-5.5,5.5-5.5
					c3.3,0,5.6,2.4,5.6,5.7c0,0.2,0,0.4,0,0.6h-8.5c0.3,1.6,1.4,2.4,3,2.4C35.4,12.9,36.1,12.6,36.9,11.9z M31.4,8.4h5.7
					c-0.4-1.2-1.5-2-2.9-2C32.9,6.4,31.9,7.1,31.4,8.4z M49.7,15v-1.1c-0.9,0.9-1.9,1.4-3.3,1.4c-2.7,0-5-2.3-5-5.5
					c0-3.3,2.2-5.6,5-5.6c1.3,0,2.4,0.5,3.3,1.4V4.5h2.6V15C52.3,15,49.7,15,49.7,15z M46.9,6.6c-1.7,0-2.8,1.4-2.8,3.1
					c0,1.8,1.2,3.1,2.8,3.1c1.6,0,2.9-1.2,2.9-3.2C49.8,7.9,48.6,6.6,46.9,6.6z M58.4,15L53.9,4.5h2.7l2.7,6.2l2.7-6.2h2.7L60.1,15
					H58.4z M65.8,15V4.5h2.6V15H65.8z M67.2,0.1c1,0,1.7,0.8,1.7,1.7c0,0.9-0.8,1.7-1.7,1.7c-1,0-1.7-0.9-1.7-1.8
					C65.5,0.8,66.2,0.1,67.2,0.1L67.2,0.1z M78.7,15v-1.1c-0.9,0.9-1.9,1.4-3.3,1.4c-2.7,0-5-2.3-5-5.5c0-3.3,2.2-5.6,5-5.6
					c1.3,0,2.4,0.5,3.3,1.4V4.5h2.6V15C81.3,15,78.7,15,78.7,15z M75.9,6.6C74.1,6.6,73,8,73,9.7c0,1.8,1.2,3.1,2.8,3.1
					c1.6,0,2.9-1.2,2.9-3.2C78.8,7.9,77.5,6.6,75.9,6.6z M84.3,4.5V0.6h2.6v3.9h1.6v2.3h-1.6V15h-2.6V6.7h-1.3V4.5H84.3L84.3,4.5z
					 M97.6,11.9l2.2,1.1c-1.1,1.6-2.6,2.3-4.8,2.3c-3.4,0-5.5-2.5-5.5-5.6c0-2.9,2.1-5.5,5.5-5.5c3.3,0,5.6,2.4,5.6,5.7
					c0,0.2,0,0.4,0,0.6H92c0.3,1.6,1.4,2.4,3,2.4C96.1,12.9,96.8,12.6,97.6,11.9z M92.1,8.4h5.7c-0.4-1.2-1.5-2-2.9-2
					C93.6,6.4,92.6,7.1,92.1,8.4z"/>
			</g>
		</g>
	</g>
	<path class="st1" d="M34.9,40.2V53l11.1,6.4L57,53l11.1,6.4L79.2,53V40.2l-11.1-6.4v12.8L57,40.2l-11.1,6.4V33.8L34.9,40.2z"/>
	<path class="st2" d="M57,81.1c-0.3,0-0.6-0.1-0.8-0.2L22.7,61.6c-0.5-0.3-0.8-0.8-0.8-1.4V21.6c0-0.6,0.3-1.1,0.8-1.4L56.2,0.9
		c0.5-0.3,1.1-0.3,1.6,0l33.4,19.3c0.5,0.3,0.8,0.8,0.8,1.4v38.6c0,0.6-0.3,1.1-0.8,1.4L57.8,80.9C57.6,81.1,57.3,81.1,57,81.1z
		 M25.2,59.3L57,77.6l31.8-18.4V22.5L57,4.2L25.2,22.5C25.2,22.5,25.2,59.3,25.2,59.3z"/>
	<path class="st2" d="M88.7,59.9l-2.3-1.3l0.7-1.1l2.3,1.3L88.7,59.9z M84.2,57.3L81.9,56l0.7-1.1l2.2,1.3L84.2,57.3z M79.6,54.7
		l-2.3-1.3l0.6-1.1l2.2,1.3L79.6,54.7z M75.1,52.1l-2.3-1.3l0.7-1.1l2.3,1.3L75.1,52.1z M70.6,49.5l-2.2-1.3l0.6-1.1l2.3,1.3
		L70.6,49.5z M66.1,46.9l-2.2-1.3l0.7-1.1l2.2,1.3L66.1,46.9z M61.6,44.3L59.3,43l0.7-1.1l2.3,1.3C62.3,43.2,61.6,44.3,61.6,44.3z
		 M57.1,41.7l-2.3-1.3l0.7-1.1l2.3,1.3L57.1,41.7z M52.6,39.1l-2.2-1.3l0.7-1.1l2.2,1.3C53.2,38,52.6,39.1,52.6,39.1z M48,36.5
		l-2.3-1.3l0.7-1.2l2.3,1.3L48,36.5z M43.5,33.9l-2.3-1.3l0.7-1.1l2.3,1.3C44.2,32.7,43.5,33.9,43.5,33.9z M39,31.3L36.8,30l0.7-1.1
		l2.3,1.3L39,31.3z M34.5,28.7l-2.3-1.3l0.7-1.1l2.2,1.3L34.5,28.7z M30,26l-2.3-1.3l0.6-1.1l2.3,1.3L30,26z M25.5,23.4l-2.3-1.3
		l0.6-1.1l2.3,1.3L25.5,23.4z"/>
	<path class="st2" d="M25.3,59.9l-0.6-1.1l2.3-1.3l0.6,1.1L25.3,59.9z M29.9,57.3l-0.6-1.1l2.2-1.3l0.7,1.1
		C32.1,56,29.9,57.3,29.9,57.3z M34.4,54.7l-0.7-1.1l2.3-1.3l0.7,1.1L34.4,54.7z M38.9,52.1L38.2,51l2.3-1.3l0.7,1.1L38.9,52.1z
		 M43.4,49.5l-0.7-1.1l2.3-1.3l0.7,1.1C45.7,48.2,43.4,49.5,43.4,49.5z M47.9,46.9l-0.7-1.1l2.2-1.3l0.7,1.1L47.9,46.9z M52.4,44.3
		l-0.7-1.1l2.2-1.3l0.7,1.1L52.4,44.3z M56.9,41.7l-0.7-1.1l2.3-1.3l0.7,1.1L56.9,41.7z M61.4,39.1L60.8,38l2.2-1.3l0.7,1.1
		C63.7,37.8,61.4,39.1,61.4,39.1z M66,36.5l-0.7-1.1l2.2-1.4l0.7,1.1C68.2,35.1,66,36.5,66,36.5z M70.5,33.9l-0.7-1.1l2.3-1.3
		l0.7,1.1L70.5,33.9z M75,31.3l-0.7-1.1l2.3-1.3l0.6,1.2L75,31.3z M79.5,28.7l-0.7-1.1l2.2-1.3l0.7,1.1L79.5,28.7z M84,26l-0.7-1.1
		l2.3-1.3l0.7,1.1L84,26z M88.5,23.4l-0.7-1.1l2.3-1.3l0.7,1.1C90.8,22.1,88.5,23.5,88.5,23.4z"/>
	<path class="st2" d="M57.7,77.8h-1.3v-2.6h1.3V77.8z M57.7,72.6h-1.3V70h1.3V72.6z M57.7,67.4h-1.3v-2.6h1.3V67.4z M57.7,62.2h-1.3
		v-2.6h1.3V62.2z M57.7,57h-1.3v-2.6h1.3V57z M57.7,51.8h-1.3v-2.6h1.3V51.8z M57.7,46.6h-1.3V44h1.3C57.7,44,57.7,46.6,57.7,46.6z
		 M57.7,41.4h-1.3v-2.6h1.3V41.4z M57.7,36.1h-1.3v-2.6h1.3V36.1z M57.7,30.9h-1.3v-2.6h1.3V30.9z M57.7,25.7h-1.3v-2.6h1.3V25.7z
		 M57.7,20.5h-1.3v-2.6h1.3C57.7,17.9,57.7,20.5,57.7,20.5z M57.7,15.3h-1.3v-2.6h1.3V15.3z M57.7,10.1h-1.3V7.5h1.3
		C57.7,7.5,57.7,10.1,57.7,10.1z M57.7,4.9h-1.3V2.3h1.3C57.7,2.3,57.7,4.9,57.7,4.9z"/>
</g>
<g>
	<path class="st0" d="M32.3,117.9l-1.1,0.9c-0.6-0.8-1.4-1.4-2.2-1.8c-0.9-0.4-1.8-0.6-2.8-0.6c-1.1,0-2.2,0.3-3.1,0.8
		c-1,0.5-1.7,1.3-2.2,2.2c-0.5,0.9-0.8,1.9-0.8,3.1c0,1.7,0.6,3.2,1.8,4.3s2.7,1.7,4.5,1.7c2,0,3.6-0.8,5-2.3l1.1,0.8
		c-0.7,0.9-1.6,1.6-2.6,2.1c-1.1,0.5-2.2,0.7-3.5,0.7c-2.5,0-4.4-0.8-5.9-2.5c-1.2-1.4-1.8-3.1-1.8-5c0-2.1,0.7-3.8,2.2-5.2
		s3.3-2.1,5.5-2.1c1.3,0,2.5,0.3,3.6,0.8C30.7,116.2,31.6,117,32.3,117.9z"/>
	<path class="st0" d="M39.8,118.7c1.6,0,3,0.6,4,1.8c1,1.1,1.4,2.3,1.4,3.8c0,1.5-0.5,2.7-1.5,3.8c-1,1.1-2.3,1.6-3.9,1.6
		c-1.6,0-2.9-0.5-3.9-1.6c-1-1.1-1.5-2.4-1.5-3.8c0-1.5,0.5-2.7,1.4-3.8C36.9,119.3,38.2,118.7,39.8,118.7z M39.8,120
		c-1.1,0-2.1,0.4-2.9,1.2c-0.8,0.8-1.2,1.8-1.2,3c0,0.8,0.2,1.5,0.6,2.1c0.4,0.7,0.9,1.2,1.5,1.5c0.6,0.4,1.3,0.5,2.1,0.5
		c0.7,0,1.4-0.2,2.1-0.5c0.6-0.4,1.1-0.9,1.5-1.5c0.4-0.7,0.6-1.4,0.6-2.1c0-1.2-0.4-2.2-1.2-3C41.9,120.4,41,120,39.8,120z"/>
	<path class="st0" d="M47.8,119h1.3v1.9c0.5-0.7,1.1-1.3,1.8-1.6c0.7-0.4,1.4-0.5,2.1-0.5c0.8,0,1.5,0.2,2.1,0.6
		c0.6,0.4,1.1,0.9,1.3,1.6c0.3,0.7,0.4,1.7,0.4,3.1v5.4h-1.3v-5c0-1.2-0.1-2-0.1-2.4c-0.2-0.7-0.5-1.2-0.9-1.6
		c-0.4-0.3-1-0.5-1.7-0.5c-0.8,0-1.5,0.3-2.2,0.8s-1.1,1.2-1.3,2c-0.1,0.5-0.2,1.5-0.2,2.8v3.8h-1.3V119z"/>
	<path class="st0" d="M65.1,120.1l-0.9,0.9c-0.7-0.7-1.4-1-2.1-1c-0.4,0-0.8,0.1-1.1,0.4c-0.3,0.3-0.5,0.6-0.5,1
		c0,0.3,0.1,0.7,0.4,1c0.3,0.3,0.8,0.7,1.6,1.1c1,0.5,1.7,1,2,1.5c0.4,0.5,0.5,1,0.5,1.6c0,0.9-0.3,1.6-0.9,2.2s-1.4,0.9-2.3,0.9
		c-0.6,0-1.2-0.1-1.7-0.4c-0.5-0.3-1-0.6-1.4-1.1l0.8-1c0.7,0.8,1.4,1.2,2.2,1.2c0.5,0,1-0.2,1.4-0.5c0.4-0.3,0.6-0.8,0.6-1.2
		c0-0.4-0.1-0.7-0.4-1c-0.3-0.3-0.8-0.7-1.7-1.1c-0.9-0.5-1.6-1-1.9-1.4c-0.3-0.5-0.5-1-0.5-1.6c0-0.8,0.3-1.5,0.8-2
		s1.2-0.8,2.1-0.8C63.1,118.7,64.1,119.2,65.1,120.1z"/>
	<path class="st0" d="M72.4,118.7c1.6,0,3,0.6,4,1.8c1,1.1,1.4,2.3,1.4,3.8c0,1.5-0.5,2.7-1.5,3.8c-1,1.1-2.3,1.6-3.9,1.6
		c-1.6,0-2.9-0.5-3.9-1.6c-1-1.1-1.5-2.4-1.5-3.8c0-1.5,0.5-2.7,1.4-3.8C69.5,119.3,70.8,118.7,72.4,118.7z M72.4,120
		c-1.1,0-2.1,0.4-2.9,1.2s-1.2,1.8-1.2,3c0,0.8,0.2,1.5,0.6,2.1c0.4,0.7,0.9,1.2,1.5,1.5s1.3,0.5,2.1,0.5s1.4-0.2,2.1-0.5
		s1.1-0.9,1.5-1.5c0.4-0.7,0.6-1.4,0.6-2.1c0-1.2-0.4-2.2-1.2-3C74.5,120.4,73.5,120,72.4,120z"/>
	<path class="st0" d="M80.2,114.9h1.3v14.5h-1.3V114.9z"/>
	<path class="st0" d="M93.1,126l1.1,0.6c-0.4,0.7-0.8,1.3-1.3,1.8s-1,0.8-1.6,1c-0.6,0.2-1.3,0.4-2.1,0.4c-1.7,0-3-0.6-4-1.7
		c-1-1.1-1.4-2.4-1.4-3.8c0-1.3,0.4-2.5,1.2-3.6c1-1.3,2.4-2,4.2-2c1.8,0,3.2,0.7,4.3,2c0.8,1,1.1,2.1,1.2,3.6h-9.4
		c0,1.2,0.4,2.2,1.2,3c0.8,0.8,1.7,1.2,2.8,1.2c0.5,0,1.1-0.1,1.6-0.3c0.5-0.2,0.9-0.4,1.3-0.7C92.4,127.2,92.7,126.7,93.1,126z
		 M93.1,123.2c-0.2-0.7-0.4-1.3-0.8-1.7c-0.3-0.4-0.8-0.8-1.4-1c-0.6-0.3-1.2-0.4-1.8-0.4c-1,0-1.9,0.3-2.7,1
		c-0.5,0.5-0.9,1.2-1.2,2.2H93.1z"/>
</g>
</svg>
