<?xml version="1.0" encoding="UTF-8"?>
<svg width="120px" height="135px" viewBox="0 0 120 135" version="1.1" xmlns="http://www.w3.org/2000/svg" xmlns:xlink="http://www.w3.org/1999/xlink">
    <!-- Generator: Sketch 53.2 (72643) - https://sketchapp.com -->
    <title>logos/consulting/vertical/white copy</title>
    <desc>Created with Sketch.</desc>
    <g id="logos/consulting/vertical/white-copy" stroke="none" stroke-width="1" fill="none" fill-rule="evenodd">
        <g id="logomark" transform="translate(36.000000, 0.000000)">
            <polygon id="Fill-23" fill="#F7F7F7" points="23.377378 27.5646075 23.377378 54.6164075 -0.000102362204 41.0792325"></polygon>
            <polygon id="Fill-24" fill="#B3B3B3" points="23.377378 27.5646075 23.377378 54.6164075 46.7517874 41.0792325"></polygon>
            <polygon id="Fill-26" fill="#FFFFFF" points="23.3774803 0.5130125 0 14.0276375 0 41.0794375 46.7518898 14.0276375"></polygon>
            <polygon id="Fill-29" fill="#FFFFFF" points="0 68.1312375 23.3774803 81.6684125 46.7529134 68.142 46.7529134 41.0902"></polygon>
        </g>
        <g id="sol-eng" transform="translate(0.000000, 92.344544)" fill="#FFFFFF">
            <path d="M19.3424444,13.5418111 L20.6446667,12.7731448 C21.5611111,14.4333415 22.6202222,15.2636585 23.8215556,15.2636585 C24.3353333,15.2636585 24.818,15.1456039 25.2695556,14.9099321 C25.7211111,14.6742602 26.0646667,14.3581364 26.3006667,13.9619978 C26.5366667,13.5658592 26.6548889,13.1456725 26.6548889,12.7014376 C26.6548889,12.1959892 26.4811111,11.7005974 26.134,11.2156993 C25.6548889,10.545849 24.7797778,9.74001745 23.5091111,8.7968928 C22.2313333,7.84764681 21.4362222,7.16074425 21.1237778,6.7370596 C20.582,6.02698337 20.3113333,5.25831711 20.3113333,4.43149805 C20.3113333,3.77563947 20.4708889,3.17793368 20.7904444,2.63838068 C21.11,2.09839044 21.5593333,1.67295684 22.1393333,1.36251711 C22.7193333,1.05164014 23.3495556,0.895983037 24.03,0.895983037 C24.7522222,0.895983037 25.4273333,1.07175314 26.0557778,1.42373058 C26.6846667,1.77570802 27.3495556,2.42282182 28.0508889,3.36594647 L26.8006667,4.29814014 C26.2242222,3.54696344 25.7331111,3.05157159 25.3268889,2.81240182 C24.9206667,2.57323206 24.478,2.4538658 23.9988889,2.4538658 C23.3806667,2.4538658 22.8753333,2.63838068 22.4828889,3.00697321 C22.0908889,3.37600297 21.8944444,3.83029435 21.8944444,4.36984735 C21.8944444,4.69777664 21.9637778,5.01564943 22.1028889,5.32302849 C22.2415556,5.63040755 22.4953333,5.96533267 22.8633333,6.32736661 C23.0646667,6.51887731 23.7242222,7.02082775 24.8424444,7.83365516 C26.1686667,8.7968928 27.0784444,9.65431859 27.5717778,10.4059325 C28.0646667,11.1575465 28.3113333,11.9122211 28.3113333,12.6708308 C28.3113333,13.7639285 27.8891111,14.7136117 27.0455556,15.5194433 C26.202,16.3257121 25.1757778,16.7288465 23.9673333,16.7288465 C23.0371111,16.7288465 22.1931111,16.4844299 21.4362222,15.9960339 C20.6793333,15.5076379 19.9811111,14.6895636 19.3424444,13.5418111" id="Fill-1"></path>
            <path d="M36.7773333,6.31713521 C35.5644444,6.31713521 34.5231111,6.75787218 33.6515556,7.63890888 C32.7808889,8.52038282 32.3448889,9.58637164 32.3448889,10.8364381 C32.3448889,11.6427069 32.544,12.3938836 32.9408889,13.0908427 C33.3382222,13.7878017 33.8746667,14.3256058 34.5506667,14.7051293 C35.2266667,15.0842155 35.9688889,15.2735401 36.7773333,15.2735401 C37.5853333,15.2735401 38.3275556,15.0842155 39.004,14.7051293 C39.6795556,14.3256058 40.2164444,13.7878017 40.6137778,13.0908427 C41.0106667,12.3938836 41.2097778,11.6427069 41.2097778,10.8364381 C41.2097778,9.58637164 40.772,8.52038282 39.8977778,7.63890888 C39.0231111,6.75787218 37.9831111,6.31713521 36.7773333,6.31713521 M36.7826667,4.9131606 C38.5284444,4.9131606 39.9755556,5.53491454 41.1235556,6.77842242 C42.1671111,7.91218329 42.6888889,9.25494444 42.6888889,10.8058314 C42.6888889,12.3632769 42.1377778,13.7244021 41.0346667,14.8892069 C39.9324444,16.054449 38.5146667,16.6368514 36.7826667,16.6368514 C35.0435556,16.6368514 33.6222222,16.054449 32.52,14.8892069 C31.4168889,13.7244021 30.8657778,12.3632769 30.8657778,10.8058314 C30.8657778,9.26150302 31.3875556,7.92267703 32.4311111,6.78847892 C33.5791111,5.53841245 35.0293333,4.9131606 36.7826667,4.9131606" id="Fill-3"></path>
            <polygon id="Fill-5" points="45.2746667 16.3498914 46.7328889 16.3498914 46.7328889 0.896114209 45.2746667 0.896114209"></polygon>
            <path d="M49.6831556,5.20012059 L51.1413778,5.20012059 L51.1413778,10.4058888 C51.1413778,11.6769427 51.2111556,12.5509836 51.3502667,13.0293232 C51.5591556,13.7127278 51.9569333,14.2522808 52.5444889,14.6484194 C53.1324889,15.0449952 53.8329333,15.2430645 54.6467111,15.2430645 C55.4604889,15.2430645 56.1507111,15.0498048 56.7173778,14.66416 C57.2844889,14.2780779 57.6751556,13.7708806 57.8911556,13.1421308 C58.0373778,12.7118876 58.1102667,11.7998069 58.1102667,10.4058888 L58.1102667,5.20012059 L59.5996,5.20012059 L59.5996,10.6726046 C59.5996,12.2094999 59.4173778,13.3677462 59.0529333,14.1464689 C58.6884889,14.9251917 58.1396,15.5351402 57.4071556,15.9758772 C56.6742667,16.4161769 55.7560444,16.6365454 54.6520444,16.6365454 C53.5476,16.6365454 52.6258222,16.4161769 51.8862667,15.9758772 C51.1467111,15.5351402 50.5947111,14.9199448 50.2298222,14.1311656 C49.8653778,13.3419491 49.6831556,12.154845 49.6831556,10.5698535 L49.6831556,5.20012059 Z" id="Fill-7"></path>
            <polygon id="Fill-8" points="64.2170222 1.06003513 65.6752444 1.06003513 65.6752444 5.20025176 67.9876889 5.20025176 67.9876889 6.44026173 65.6752444 6.44026173 65.6752444 16.3498477 64.2170222 16.3498477 64.2170222 6.44026173 62.2272444 6.44026173 62.2272444 5.20025176 64.2170222 5.20025176"></polygon>
            <path d="M70.0635556,16.3498914 L71.5217778,16.3498914 L71.5217778,5.20029549 L70.0635556,5.20029549 L70.0635556,16.3498914 Z M70.7871111,0.609285387 C71.1195556,0.609285387 71.4026667,0.725153737 71.6377778,0.957327677 C71.8728889,1.18993886 71.9906667,1.46977185 71.9906667,1.79770114 C71.9906667,2.11907185 71.8728889,2.39584418 71.6377778,2.62801811 C71.4026667,2.86019205 71.1195556,2.97649764 70.7871111,2.97649764 C70.4622222,2.97649764 70.1822222,2.86019205 69.9471111,2.62801811 C69.7124444,2.39584418 69.5946667,2.11907185 69.5946667,1.79770114 C69.5946667,1.46977185 69.7124444,1.18993886 69.9471111,0.957327677 C70.1822222,0.725153737 70.4622222,0.609285387 70.7871111,0.609285387 L70.7871111,0.609285387 Z" id="Fill-9"></path>
            <path d="M80.0191111,6.31713521 C78.8062222,6.31713521 77.7648889,6.75787218 76.8933333,7.63890888 C76.0226667,8.52038282 75.5866667,9.58637164 75.5866667,10.8364381 C75.5866667,11.6427069 75.7857778,12.3938836 76.1826667,13.0908427 C76.58,13.7878017 77.1164444,14.3256058 77.7924444,14.7051293 C78.4684444,15.0842155 79.2106667,15.2735401 80.0191111,15.2735401 C80.8271111,15.2735401 81.5693333,15.0842155 82.2457778,14.7051293 C82.9213333,14.3256058 83.4582222,13.7878017 83.8555556,13.0908427 C84.2524444,12.3938836 84.4515556,11.6427069 84.4515556,10.8364381 C84.4515556,9.58637164 84.0137778,8.52038282 83.1395556,7.63890888 C82.2648889,6.75787218 81.2248889,6.31713521 80.0191111,6.31713521 M80.0244444,4.9131606 C81.7702222,4.9131606 83.2173333,5.53491454 84.3653333,6.77842242 C85.4088889,7.91218329 85.9306667,9.25494444 85.9306667,10.8058314 C85.9306667,12.3632769 85.3795556,13.7244021 84.2764444,14.8892069 C83.1742222,16.054449 81.7564444,16.6368514 80.0244444,16.6368514 C78.2853333,16.6368514 76.864,16.054449 75.7617778,14.8892069 C74.6586667,13.7244021 74.1075556,12.3632769 74.1075556,10.8058314 C74.1075556,9.26150302 74.6293333,7.92267703 75.6728889,6.78847892 C76.8208889,5.53841245 78.2711111,4.9131606 80.0244444,4.9131606" id="Fill-10"></path>
            <path d="M88.7348,5.20012059 L90.1930222,5.20012059 L90.1930222,7.19830308 C90.7765778,6.43313473 91.4223556,5.86122605 92.1308,5.48213978 C92.8388,5.10261628 93.6099111,4.91329177 94.4432444,4.91329177 C95.2903556,4.91329177 96.0419111,5.12491547 96.6983556,5.54860012 C97.3548,5.97228477 97.8388,6.5424445 98.1512444,7.25995379 C98.4641333,7.97746308 98.6201333,9.09417164 98.6201333,10.6109539 L98.6201333,16.3497166 L97.1619111,16.3497166 L97.1619111,11.0311407 C97.1619111,9.74653231 97.1076889,8.88954376 96.9996889,8.45886329 C96.8308,7.721241 96.5063556,7.16594739 96.0272444,6.79385696 C95.5481333,6.42132928 94.9232444,6.23506544 94.1521333,6.23506544 C93.2699111,6.23506544 92.4796889,6.52189426 91.7814667,7.09598914 C91.0836889,7.66964679 90.6236889,8.38016026 90.4014667,9.22752955 C90.2628,9.7810742 90.1930222,10.7919709 90.1930222,12.2606569 L90.1930222,16.3497166 L88.7348,16.3497166 L88.7348,5.20012059 Z" id="Fill-11"></path>
            <polygon id="Fill-12" points="0 22.2627189 8.78133333 22.2627189 8.78133333 23.7384008 1.53111111 23.7384008 1.53111111 28.4627688 8.71866667 28.4627688 8.71866667 29.9384506 1.53111111 29.9384506 1.53111111 35.8617281 8.71866667 35.8617281 8.71866667 37.3374099 0 37.3374099"></polygon>
            <path d="M11.2942667,26.1875953 L12.7524889,26.1875953 L12.7524889,28.1857778 C13.3360444,27.4206095 13.9818222,26.8487008 14.6902667,26.4696145 C15.3982667,26.090091 16.1693778,25.9007665 17.0027111,25.9007665 C17.8498222,25.9007665 18.6013778,26.1123902 19.2578222,26.5360749 C19.9142667,26.9597595 20.3982667,27.5299192 20.7107111,28.2474285 C21.0236,28.9649378 21.1796,30.0816464 21.1796,31.5984287 L21.1796,37.3371913 L19.7213778,37.3371913 L19.7213778,32.0186154 C19.7213778,30.7340071 19.6671556,29.8770185 19.5591556,29.446338 C19.3902667,28.7087157 19.0658222,28.1534221 18.5867111,27.7813317 C18.1076,27.408804 17.4827111,27.2225402 16.7116,27.2225402 C15.8293778,27.2225402 15.0391556,27.509369 14.3409333,28.0834639 C13.6431556,28.6571215 13.1831556,29.367635 12.9609333,30.2150043 C12.8222667,30.7685489 12.7524889,31.7794456 12.7524889,33.2481316 L12.7524889,37.3371913 L11.2942667,37.3371913 L11.2942667,26.1875953 Z" id="Fill-13"></path>
            <path d="M29.8802222,27.2841034 C29.054,27.2841034 28.2864444,27.4804238 27.578,27.8735017 C26.87,28.2661424 26.3144444,28.8091933 25.9113333,29.5026544 C25.5086667,30.1961156 25.3073333,30.9459806 25.3073333,31.7522494 C25.3073333,32.975207 25.7237778,33.9861037 26.5571111,34.7853767 C27.3904444,35.5846497 28.4704444,35.9842862 29.7971111,35.9842862 C31.1371111,35.9842862 32.2153333,35.5881476 33.0313333,34.7958705 C33.8473333,34.003156 34.2553333,32.9612154 34.2553333,31.6700484 C34.2553333,30.829675 34.0677778,30.0802472 33.6926667,29.4208907 C33.3175556,28.7615342 32.7864444,28.2407825 32.0988889,27.8577611 C31.4113333,27.4751769 30.6717778,27.2841034 29.8802222,27.2841034 L29.8802222,27.2841034 Z M34.1824444,26.1875079 L35.6406667,26.1875079 L35.6406667,35.0722055 C35.6406667,36.6370841 35.5015556,37.7813387 35.2237778,38.5054066 C34.842,39.530295 34.1788889,40.3190742 33.2344444,40.8726189 C32.29,41.4261635 31.1544444,41.7029358 29.8282222,41.7029358 C28.8557778,41.7029358 27.9824444,41.5673917 27.2082222,41.2967408 C26.434,41.0260898 25.8037778,40.6631814 25.3175556,40.2075783 C24.8317778,39.7515379 24.3837778,39.0851856 23.974,38.2080841 L25.5571111,38.2080841 C25.9882222,38.9461436 26.5446667,39.4926924 27.2255556,39.8477305 C27.9073333,40.2032059 28.7522222,40.3807249 29.7602222,40.3807249 C30.7544444,40.3807249 31.594,40.1983962 32.2788889,39.8341761 C32.9637778,39.469956 33.4522222,39.0117294 33.7442222,38.4608082 C34.0366667,37.9094498 34.1824444,37.0187938 34.1824444,35.7897148 L34.1824444,35.2160572 C33.6331111,35.8990246 32.9624444,36.4232742 32.1695556,36.7888061 C31.3771111,37.1543379 30.5362222,37.3371039 29.6468889,37.3371039 C28.6037778,37.3371039 27.6237778,37.0826307 26.7055556,36.5736845 C25.7882222,36.0647382 25.0793333,35.3800218 24.5788889,34.5190981 C24.078,33.6581744 23.8282222,32.7119891 23.8282222,31.6805422 C23.8282222,30.648658 24.0886667,29.6871693 24.6104444,28.7956389 C25.1313333,27.9041084 25.8526667,27.1988418 26.774,26.6794018 C27.6948889,26.1603991 28.6664444,25.9006791 29.6882222,25.9006791 C30.5362222,25.9006791 31.3268889,26.0729513 32.0602222,26.4183701 C32.794,26.7633517 33.5006667,27.3317625 34.1824444,28.1244769 L34.1824444,26.1875079 Z" id="Fill-14"></path>
            <path d="M38.6533333,37.3373662 L40.1115556,37.3373662 L40.1115556,26.1877702 L38.6533333,26.1877702 L38.6533333,37.3373662 Z M39.3773333,21.5967601 C39.7093333,21.5967601 39.9924444,21.7126285 40.2275556,21.9448024 C40.4626667,22.1774136 40.5804444,22.4572466 40.5804444,22.7851759 C40.5804444,23.1065466 40.4626667,23.3833189 40.2275556,23.6154929 C39.9924444,23.8476668 39.7093333,23.9639724 39.3773333,23.9639724 C39.052,23.9639724 38.772,23.8476668 38.5368889,23.6154929 C38.3022222,23.3833189 38.1844444,23.1065466 38.1844444,22.7851759 C38.1844444,22.4572466 38.3022222,22.1774136 38.5368889,21.9448024 C38.772,21.7126285 39.052,21.5967601 39.3773333,21.5967601 L39.3773333,21.5967601 Z" id="Fill-15"></path>
            <path d="M43.2495556,26.1875953 L44.7077778,26.1875953 L44.7077778,28.1857778 C45.2913333,27.4206095 45.9371111,26.8487008 46.6455556,26.4696145 C47.3535556,26.090091 48.1246667,25.9007665 48.958,25.9007665 C49.8051111,25.9007665 50.5566667,26.1123902 51.2131111,26.5360749 C51.8695556,26.9597595 52.3535556,27.5299192 52.666,28.2474285 C52.9788889,28.9649378 53.1348889,30.0816464 53.1348889,31.5984287 L53.1348889,37.3371913 L51.6766667,37.3371913 L51.6766667,32.0186154 C51.6766667,30.7340071 51.6224444,29.8770185 51.5144444,29.446338 C51.3455556,28.7087157 51.0211111,28.1534221 50.542,27.7813317 C50.0628889,27.408804 49.438,27.2225402 48.6668889,27.2225402 C47.7846667,27.2225402 46.9944444,27.509369 46.2962222,28.0834639 C45.5984444,28.6571215 45.1384444,29.367635 44.9162222,30.2150043 C44.7775556,30.7685489 44.7077778,31.7794456 44.7077778,33.2481316 L44.7077778,37.3371913 L43.2495556,37.3371913 L43.2495556,26.1875953 Z" id="Fill-16"></path>
            <path d="M65.9084,30.6351473 C65.7141778,29.869979 65.4306222,29.2587188 65.0581778,28.8009295 C64.6861778,28.3431402 64.1946222,27.9741104 63.5826222,27.6938402 C62.9706222,27.4140072 62.3275111,27.2740907 61.6532889,27.2740907 C60.5404,27.2740907 59.5844,27.6256309 58.7852889,28.3295858 C58.2008444,28.8415927 57.7590667,29.610259 57.4604,30.6351473 L65.9084,30.6351473 Z M65.9084,33.6376679 L67.1377333,34.2729763 C66.7341778,35.0521363 66.2688444,35.6804488 65.7404,36.1587883 C65.2124,36.6371278 64.6181778,37.0009107 63.9572889,37.250137 C63.2972889,37.4993633 62.5497333,37.6239764 61.7155111,37.6239764 C59.8666222,37.6239764 58.4212889,37.0280196 57.3786222,35.8361059 C56.3359556,34.643755 55.8146222,33.2961842 55.8146222,31.7929563 C55.8146222,30.3789252 56.2559556,29.118365 57.1390667,28.011713 C58.2577333,26.6042404 59.7555111,25.9007228 61.6324,25.9007228 C63.5648444,25.9007228 65.1075111,26.6212928 66.2612889,28.0628699 C67.0817333,29.0807625 67.4986222,30.3518164 67.5124,31.8751573 L57.3146222,31.8751573 C57.3426222,33.1702594 57.7630667,34.2318758 58.5764,35.0600066 C59.3901778,35.8881373 60.3946222,36.3022027 61.5906222,36.3022027 C62.1675111,36.3022027 62.7292889,36.2033867 63.2746222,36.0061919 C63.8208444,35.8089971 64.2848444,35.5466536 64.6670667,35.2200361 C65.0497333,34.8934185 65.4635111,34.3661082 65.9084,33.6376679 L65.9084,33.6376679 Z" id="Fill-17"></path>
            <path d="M79.8797778,30.6351473 C79.6855556,29.869979 79.402,29.2587188 79.0295556,28.8009295 C78.6575556,28.3431402 78.166,27.9741104 77.554,27.6938402 C76.942,27.4140072 76.2988889,27.2740907 75.6246667,27.2740907 C74.5117778,27.2740907 73.5557778,27.6256309 72.7566667,28.3295858 C72.1722222,28.8415927 71.7304444,29.610259 71.4317778,30.6351473 L79.8797778,30.6351473 Z M79.8797778,33.6376679 L81.1091111,34.2729763 C80.7055556,35.0521363 80.2402222,35.6804488 79.7117778,36.1587883 C79.1837778,36.6371278 78.5895556,37.0009107 77.9286667,37.250137 C77.2686667,37.4993633 76.5211111,37.6239764 75.6868889,37.6239764 C73.838,37.6239764 72.3926667,37.0280196 71.35,35.8361059 C70.3073333,34.643755 69.786,33.2961842 69.786,31.7929563 C69.786,30.3789252 70.2273333,29.118365 71.1104444,28.011713 C72.2291111,26.6042404 73.7268889,25.9007228 75.6037778,25.9007228 C77.5362222,25.9007228 79.0788889,26.6212928 80.2326667,28.0628699 C81.0531111,29.0807625 81.47,30.3518164 81.4837778,31.8751573 L71.286,31.8751573 C71.314,33.1702594 71.7344444,34.2318758 72.5477778,35.0600066 C73.3615556,35.8881373 74.366,36.3022027 75.562,36.3022027 C76.1388889,36.3022027 76.7006667,36.2033867 77.246,36.0061919 C77.7922222,35.8089971 78.2562222,35.5466536 78.6384444,35.2200361 C79.0211111,34.8934185 79.4348889,34.3661082 79.8797778,33.6376679 L79.8797778,33.6376679 Z" id="Fill-18"></path>
            <path d="M83.7569333,26.1875953 L85.2467111,26.1875953 L85.2467111,27.8171853 C85.6911556,27.1748811 86.1596,26.6947926 86.6529333,26.3773571 C87.1458222,26.0594843 87.6596,25.9007665 88.1942667,25.9007665 C88.5973778,25.9007665 89.0276,26.0271286 89.4862667,26.2798528 L88.7258222,27.489256 C88.4200444,27.359396 88.1631556,27.2942474 87.9547111,27.2942474 C87.4689333,27.2942474 87.0000444,27.4905677 86.5484889,27.8836456 C86.0973778,28.2762863 85.7533778,28.8862348 85.5173778,29.7130539 C85.3369333,30.3483622 85.2467111,31.6325333 85.2467111,33.5660044 L85.2467111,37.3371913 L83.7569333,37.3371913 L83.7569333,26.1875953 Z" id="Fill-19"></path>
            <path d="M90.6137778,37.3373662 L92.072,37.3373662 L92.072,26.1877702 L90.6137778,26.1877702 L90.6137778,37.3373662 Z M91.3377778,21.5967601 C91.6697778,21.5967601 91.9533333,21.7126285 92.188,21.9448024 C92.4231111,22.1774136 92.5408889,22.4572466 92.5408889,22.7851759 C92.5408889,23.1065466 92.4231111,23.3833189 92.188,23.6154929 C91.9533333,23.8476668 91.6697778,23.9639724 91.3377778,23.9639724 C91.0124444,23.9639724 90.7324444,23.8476668 90.4973333,23.6154929 C90.2626667,23.3833189 90.1448889,23.1065466 90.1448889,22.7851759 C90.1448889,22.4572466 90.2626667,22.1774136 90.4973333,21.9448024 C90.7324444,21.7126285 91.0124444,21.5967601 91.3377778,21.5967601 L91.3377778,21.5967601 Z" id="Fill-20"></path>
            <path d="M95.2100889,26.1875953 L96.6683111,26.1875953 L96.6683111,28.1857778 C97.2518667,27.4206095 97.8976444,26.8487008 98.6060889,26.4696145 C99.3140889,26.090091 100.0852,25.9007665 100.918533,25.9007665 C101.765644,25.9007665 102.5172,26.1123902 103.173644,26.5360749 C103.830089,26.9597595 104.314089,27.5299192 104.626533,28.2474285 C104.939422,28.9649378 105.095422,30.0816464 105.095422,31.5984287 L105.095422,37.3371913 L103.6372,37.3371913 L103.6372,32.0186154 C103.6372,30.7340071 103.582978,29.8770185 103.474978,29.446338 C103.306089,28.7087157 102.981644,28.1534221 102.502533,27.7813317 C102.023422,27.408804 101.398533,27.2225402 100.627422,27.2225402 C99.7452,27.2225402 98.9549778,27.509369 98.2567556,28.0834639 C97.5589778,28.6571215 97.0989778,29.367635 96.8767556,30.2150043 C96.7380889,30.7685489 96.6683111,31.7794456 96.6683111,33.2481316 L96.6683111,37.3371913 L95.2100889,37.3371913 L95.2100889,26.1875953 Z" id="Fill-21"></path>
            <path d="M113.796,27.2841034 C112.969778,27.2841034 112.202222,27.4804238 111.493778,27.8735017 C110.785778,28.2661424 110.230222,28.8091933 109.827111,29.5026544 C109.424444,30.1961156 109.223111,30.9459806 109.223111,31.7522494 C109.223111,32.975207 109.639556,33.9861037 110.472889,34.7853767 C111.306222,35.5846497 112.386222,35.9842862 113.712889,35.9842862 C115.052889,35.9842862 116.131111,35.5881476 116.947111,34.7958705 C117.763111,34.003156 118.171111,32.9612154 118.171111,31.6700484 C118.171111,30.829675 117.983556,30.0802472 117.608444,29.4208907 C117.233333,28.7615342 116.702222,28.2407825 116.014667,27.8577611 C115.327111,27.4751769 114.587556,27.2841034 113.796,27.2841034 L113.796,27.2841034 Z M118.098222,26.1875079 L119.556444,26.1875079 L119.556444,35.0722055 C119.556444,36.6370841 119.417333,37.7813387 119.139556,38.5054066 C118.757778,39.530295 118.094667,40.3190742 117.150222,40.8726189 C116.205778,41.4261635 115.070222,41.7029358 113.744,41.7029358 C112.771556,41.7029358 111.898222,41.5673917 111.124,41.2967408 C110.349778,41.0260898 109.719556,40.6631814 109.233333,40.2075783 C108.747556,39.7515379 108.299556,39.0851856 107.889778,38.2080841 L109.472889,38.2080841 C109.904,38.9461436 110.460444,39.4926924 111.141333,39.8477305 C111.823111,40.2032059 112.668,40.3807249 113.676,40.3807249 C114.670222,40.3807249 115.509778,40.1983962 116.194667,39.8341761 C116.879556,39.469956 117.368,39.0117294 117.66,38.4608082 C117.952444,37.9094498 118.098222,37.0187938 118.098222,35.7897148 L118.098222,35.2160572 C117.548889,35.8990246 116.878222,36.4232742 116.085333,36.7888061 C115.292889,37.1543379 114.452,37.3371039 113.562667,37.3371039 C112.519556,37.3371039 111.539556,37.0826307 110.621333,36.5736845 C109.704,36.0647382 108.995111,35.3800218 108.494667,34.5190981 C107.993778,33.6581744 107.744,32.7119891 107.744,31.6805422 C107.744,30.648658 108.004444,29.6871693 108.526222,28.7956389 C109.047111,27.9041084 109.768444,27.1988418 110.689778,26.6794018 C111.610667,26.1603991 112.582222,25.9006791 113.604,25.9006791 C114.452,25.9006791 115.242667,26.0729513 115.976,26.4183701 C116.709778,26.7633517 117.416444,27.3317625 118.098222,28.1244769 L118.098222,26.1875079 Z" id="Fill-22"></path>
        </g>
    </g>
</svg>