<svg xmlns="http://www.w3.org/2000/svg" xmlns:xlink="http://www.w3.org/1999/xlink" width="189" height="82" viewBox="0 0 189 82">
    <defs>
        <path id="a" d="M87.587 38.212l2.281-1.369c.655 1.23 1.409 1.865 2.361 1.865.913 0 1.647-.595 1.647-1.33 0-.515-.337-1.11-.913-1.586-2.956-2.48-4.702-3.83-4.702-5.853 0-2.024 1.766-3.591 3.909-3.591 1.805 0 2.996.972 4.127 2.281l-2.024 1.786c-.675-.952-1.37-1.468-2.143-1.468-.714 0-1.21.416-1.21.992 0 .555.417.912.833 1.27 2.659 2.34 4.782 3.452 4.782 6.05 0 2.382-1.786 4.048-4.365 4.048-2.083 0-3.532-1.012-4.583-3.095zm18.907-.357l2.222 1.051c-1.13 1.608-2.618 2.322-4.84 2.322-3.354 0-5.516-2.46-5.516-5.555 0-2.877 2.083-5.536 5.476-5.536 3.333 0 5.595 2.381 5.595 5.714 0 .238-.02.357-.02.595h-8.492c.258 1.568 1.449 2.44 2.956 2.44 1.131 0 1.885-.317 2.62-1.031zm-5.456-3.492h5.734c-.357-1.23-1.488-1.984-2.897-1.984-1.309 0-2.32.655-2.837 1.984zm9.702 6.587l2.46-14.245h2.659l3.293 9.94 3.333-9.94h2.62l2.4 14.245h-2.619l-1.528-9.007-3.035 9.007h-2.381l-2.996-9.007-1.567 9.007h-2.639zm18.749 0V26.705h2.718V40.95h-2.718z"/>
        <path id="b" d="M101.999 49.394l-1.13.853c-1.25-1.647-3.036-2.46-5.08-2.46-3.373 0-6.21 2.5-6.21 6.13 0 3.532 2.698 6.11 6.29 6.11 1.983 0 3.67-.813 5-2.36l1.13.853c-1.468 1.845-3.63 2.817-6.23 2.817-4.761 0-7.678-3.353-7.678-7.539 0-4.206 3.254-7.4 7.678-7.4 2.62 0 4.821 1.031 6.23 2.996zm7.638.793c3.155 0 5.496 2.56 5.496 5.575 0 2.996-2.321 5.516-5.496 5.516-3.174 0-5.495-2.52-5.495-5.516 0-3.015 2.34-5.575 5.495-5.575zm0 1.31c-2.261 0-4.106 1.944-4.106 4.285 0 2.302 1.726 4.186 4.106 4.186 2.361 0 4.107-1.884 4.107-4.186 0-2.341-1.865-4.285-4.107-4.285zm9.345-1.032v1.885c1.091-1.429 2.4-2.163 3.948-2.163 2.302 0 3.909 1.587 3.909 4.9V61h-1.35v-5.734c0-2.48-.773-3.849-2.817-3.849-1.13 0-2.063.496-2.777 1.429-.794 1.031-.913 2.063-.913 3.73V61h-1.349V50.465h1.35zm9.761 9.305l.853-.972c.675.754 1.41 1.17 2.203 1.17 1.031 0 1.944-.754 1.944-1.746 0-.615-.357-1.19-.873-1.468-2.42-1.349-3.65-1.924-3.65-3.77 0-1.666 1.29-2.797 2.896-2.797 1.15 0 2.024.556 2.917 1.429l-.873.892c-.635-.615-1.27-1.011-2.123-1.011-.873 0-1.587.615-1.587 1.408 0 .536.337 1.131.813 1.409 2.42 1.409 3.77 1.944 3.77 3.849 0 1.647-1.27 3.115-3.175 3.115-1.17 0-2.36-.536-3.115-1.508zm16.349-4.166v-5.139h1.428v5.456c0 3.551-1.607 5.337-4.623 5.337-3.015 0-4.642-1.786-4.642-5.337v-5.456h1.428v5.139c0 1.11 0 2.023.298 2.658.496 1.071 1.587 1.686 2.916 1.686.972 0 1.826-.357 2.381-.932.833-.893.814-1.905.814-3.412zM149.298 61V46.398h1.349V61h-1.35zm5.376-10.535v-3.928h1.35v3.928h2.162v1.19h-2.163V61h-1.349v-9.345h-1.865v-1.19h1.865zM160.011 61V50.465h1.35V61h-1.35zm.655-14.88c.615 0 1.13.496 1.13 1.111s-.515 1.13-1.13 1.13c-.615 0-1.111-.515-1.111-1.13a1.11 1.11 0 0 1 1.11-1.111zm4.84 4.345v1.885c1.092-1.429 2.402-2.163 3.949-2.163 2.301 0 3.909 1.587 3.909 4.9V61h-1.35v-5.734c0-2.48-.773-3.849-2.817-3.849-1.13 0-2.063.496-2.777 1.429-.794 1.031-.913 2.063-.913 3.73V61h-1.35V50.465h1.35zm21.21 0v8.392c0 1.726-.1 3.155-.952 4.325-.893 1.21-2.46 1.925-4.464 1.925-3.036 0-4.504-1.23-5.437-3.274h1.469c.793 1.39 2.023 2.044 3.888 2.044 1.746 0 3.036-.635 3.67-1.786.397-.734.457-1.488.457-2.301v-.794c-1.052 1.33-2.58 2.004-4.226 2.004-2.917 0-5.397-2.222-5.397-5.337 0-3.135 2.6-5.476 5.397-5.476 1.865 0 3.115.794 4.226 2.103v-1.825h1.369zm-5.377 1.032c-2.36 0-4.226 1.805-4.226 4.245 0 2.103 1.488 3.949 4.266 3.949 2.301 0 4.027-1.588 4.027-4.048 0-2.54-1.884-4.146-4.067-4.146z"/>
    </defs>
    <g fill="#000" fill-rule="evenodd">
        <g fill-rule="nonzero">
            <use xlink:href="#a"/>
            <use xlink:href="#a"/>
        </g>
        <path fill-rule="nonzero" d="M19.25 51.15l-.5-.87 1.73-1 .5.87-1.73 1zm3.46-2l-.5-.87 1.74-1 .5.87-1.74 1zm3.47-2l-.5-.87 1.73-1 .5.87-1.73 1zm3.46-2l-.5-.87 1.73-1 .5.87-1.73 1zm3.47-2l-.5-.87 1.73-1 .5.87-1.73 1zm3.39-2.62h-1v-2h1v2zm0-4h-1v-2h1v2zm0-4h-1v-2h1v2zm0-4h-1v-2h1v2zm0-4h-1v-2h1v2zM52.75 51.15l-1.73-1 .5-.87 1.73 1-.5.87zm-3.46-2l-1.74-1 .5-.87 1.74 1-.5.87zm-3.47-2l-1.73-1 .5-.87 1.73 1-.5.87zm-3.46-2l-1.73-1 .5-.87 1.73 1-.5.87zm-3.47-2l-1.73-1 .5-.87 1.73 1-.5.87z"/>
        <path d="M19 32.09a1 1 0 0 1-.5-.14l-17-9.81a1 1 0 1 1 1-1.73l17 9.81a1 1 0 0 1-.5 1.87zM36 81.16a1 1 0 0 1-1-1V60.53a1 1 0 0 1 2 0v19.63a1 1 0 0 1-1 1z"/>
        <path fill-rule="nonzero" d="M36 81.16a1 1 0 0 1-.5-.13L1.5 61.4a1 1 0 0 1-.5-.87V21.27a1 1 0 0 1 .5-.86L35.5.78a1 1 0 0 1 1 0l34 19.63a1 1 0 0 1 0 1.73L53.5 32a1 1 0 0 1-1 0L36 22.43l-16 9.23v18.48l16 9.24 16.5-9.53a1 1 0 0 1 1 0l17 9.82a1 1 0 0 1 0 1.73L36.5 81a1 1 0 0 1-.5.16zM3 60l33 19 32-18.48-15-8.65-16.5 9.53a1 1 0 0 1-1 0l-17-9.82a1 1 0 0 1-.5-.86V31.09a1 1 0 0 1 .5-.87l17-9.81a1 1 0 0 1 1 0L53 29.93l15-8.66L36 2.8 3 21.85V60z"/>
        <g fill-rule="nonzero">
            <use xlink:href="#b"/>
            <use xlink:href="#b"/>
        </g>
    </g>
</svg>
