<svg xmlns="http://www.w3.org/2000/svg" viewBox="0 0 360 360"><defs><style>.cls-1{fill:#009c00;}.cls-2{fill:#00152b;}</style></defs><g id="Layer_2" data-name="Layer 2"><circle class="cls-1" cx="179.4" cy="103.23" r="5.6"/><circle class="cls-1" cx="192.34" cy="111.12" r="4.37"/><circle class="cls-1" cx="167.34" cy="258" r="4.37"/><path class="cls-1" d="M204.9,114.62a4.2,4.2,0,0,0-4.15,3.65H156.08a2.26,2.26,0,1,0-.15,1.54h44.88a4.21,4.21,0,1,0,4.09-5.19Z"/><path class="cls-1" d="M179.4,246.24a4.21,4.21,0,1,0,4.21,4.21A4.21,4.21,0,0,0,179.4,246.24Z"/><path class="cls-1" d="M192.18,239.54a3.93,3.93,0,1,0,3.92,3.93A3.92,3.92,0,0,0,192.18,239.54Z"/><path class="cls-1" d="M191.72,173.59a3.93,3.93,0,1,0-3.92-3.92A3.93,3.93,0,0,0,191.72,173.59Z"/><path class="cls-1" d="M205,172.92a3.91,3.91,0,0,0-3.88,3.52h-45a2.27,2.27,0,1,0-.28,1.54H201.3a3.92,3.92,0,1,0,3.73-5.06Z"/><path class="cls-1" d="M171.4,155.48a3.64,3.64,0,1,0-3.64,3.63A3.64,3.64,0,0,0,171.4,155.48Z"/><circle class="cls-1" cx="191.72" cy="154.94" r="3.1"/><circle class="cls-1" cx="167.34" cy="243.47" r="3.1"/><path class="cls-1" d="M153.9,150.63a3.1,3.1,0,0,0,3-2.22h44.53a3.35,3.35,0,1,0-.07-1.5H156.94a3.1,3.1,0,1,0-3,3.72Z"/><path class="cls-1" d="M176.75,162.12a2.65,2.65,0,1,0,2.65-2.65A2.65,2.65,0,0,0,176.75,162.12Z"/><path class="cls-1" d="M153.9,135.79a2.65,2.65,0,0,0,2.47-1.72H201.1a3.93,3.93,0,1,0-.06-1.54H156.47a2.65,2.65,0,1,0-2.57,3.26Z"/><circle class="cls-1" cx="165.5" cy="170.3" r="2.26"/><circle class="cls-1" cx="190.79" cy="258" r="2.26"/><circle class="cls-1" cx="166.37" cy="110.78" r="2.26"/><path class="cls-1" d="M204.67,232.18a3.91,3.91,0,0,0-3.88,3.53h-45a2.27,2.27,0,1,0-.28,1.54h45.46a3.92,3.92,0,1,0,3.73-5.07Z"/><rect class="cls-1" x="152.3" y="190.83" width="53.5" height="1.5"/><path class="cls-1" d="M258.83,145.55l-26.33-15.2-3,5.2,24.83,14.33v85.83l-24,13.86,3,5.19L258.83,240a3,3,0,0,0,1.5-2.6V148.15A3,3,0,0,0,258.83,145.55Z"/><path class="cls-1" d="M129.67,136l-3-5.2-25.5,14.72a3,3,0,0,0-1.5,2.6v89.29a3,3,0,0,0,1.5,2.6l24.93,14.39,3-5.19-23.43-13.53V149.88Z"/><polygon class="cls-2" points="128.38 191.94 128.38 221.38 153.88 236.11 179.38 221.38 204.88 236.11 230.38 221.38 230.38 191.94 204.88 177.21 204.88 206.66 179.38 191.94 153.88 206.66 153.88 177.22 128.38 191.94"/></g></svg>