<svg xmlns="http://www.w3.org/2000/svg" xmlns:xlink="http://www.w3.org/1999/xlink" width="217" height="82" viewBox="0 0 217 82">
    <defs>
        <path id="a" d="M92.576 50.93l-4.62-20.355h3.827l2.92 12.984 3.657-12.984h3.232l3.685 12.984 2.892-12.984h3.827l-4.592 20.355h-3.714l-3.77-13.154-3.658 13.154h-3.686zm31.554-4.423l3.175 1.503c-1.616 2.296-3.742 3.317-6.917 3.317-4.791 0-7.881-3.515-7.881-7.938 0-4.11 2.976-7.91 7.824-7.91 4.763 0 7.995 3.402 7.995 8.165 0 .34-.028.51-.028.85h-12.134c.368 2.24 2.07 3.488 4.224 3.488 1.616 0 2.693-.454 3.742-1.475zm-7.796-4.99h8.193c-.51-1.757-2.126-2.834-4.14-2.834-1.87 0-3.316.935-4.053 2.835zm26.138 9.413v-1.588c-1.332 1.305-2.75 1.985-4.649 1.985-3.827 0-7.172-3.289-7.172-7.91 0-4.706 3.175-7.938 7.087-7.938 1.814 0 3.374.68 4.734 2.041v-1.644h3.771V50.93h-3.77zm-3.969-11.992c-2.494 0-4.054 1.984-4.054 4.45 0 2.58 1.701 4.48 4.054 4.48 2.325 0 4.14-1.758 4.14-4.507 0-2.637-1.758-4.423-4.14-4.423zm16.358 11.992l-6.435-15.054h3.856l3.798 8.874 3.8-8.874h3.827L157.3 50.93h-2.439zm10.688 0V35.876h3.77l.001 15.054h-3.77zm1.871-21.262c1.361 0 2.41 1.134 2.41 2.494a2.408 2.408 0 0 1-2.41 2.41c-1.389 0-2.41-1.219-2.41-2.608 0-1.304 1.106-2.296 2.41-2.296zm16.444 21.262v-1.588c-1.333 1.305-2.75 1.985-4.65 1.985-3.827 0-7.172-3.289-7.172-7.91 0-4.706 3.175-7.938 7.087-7.938 1.814 0 3.374.68 4.734 2.041v-1.644h3.771V50.93h-3.77zm-3.97-11.992c-2.494 0-4.054 1.984-4.054 4.45 0 2.58 1.701 4.48 4.054 4.48 2.325 0 4.14-1.758 4.14-4.507 0-2.637-1.758-4.423-4.14-4.423zm11.993-3.062V30.32h3.77v5.556h2.24v3.232h-2.24V50.93h-3.77V39.108h-1.928v-3.232h1.928zm18.994 10.631l3.175 1.503c-1.616 2.296-3.742 3.317-6.917 3.317-4.791 0-7.881-3.515-7.881-7.938 0-4.11 2.976-7.91 7.824-7.91 4.763 0 7.995 3.402 7.995 8.165 0 .34-.029.51-.029.85h-12.133c.368 2.24 2.07 3.488 4.224 3.488 1.616 0 2.693-.454 3.742-1.475zm-7.796-4.99h8.193c-.51-1.757-2.126-2.834-4.14-2.834-1.87 0-3.316.935-4.053 2.835z"/>
    </defs>
    <g fill="#000" fill-rule="evenodd">
        <g fill-rule="nonzero">
            <use xlink:href="#a"/>
            <use xlink:href="#a"/>
        </g>
        <path d="M1.449 21.239l.5-.866.866.5-.5.866z"/>
        <path fill-rule="nonzero" d="M4 23l-1-.58.34-.58 1 .58L4 23zm2 1.15l-1-.58.33-.57 1 .57-.33.58zm2 1.15l-1-.57.34-.58 1 .58-.34.57zm2 1.16l-1-.58.34-.58 1 .58-.34.58zm2 1.15l-1-.58.34-.57 1 .57-.34.58zm2 1.15l-1-.57.34-.58 1 .58-.34.57zm2 1.16l-1-.58.33-.58 1 .58-.33.58zm2 1.15l-1-.58.33-.57 1 .57-.33.58zm2 1.15l-1-.57.34-.58 1 .58-.34.57zm2 1.15l-1-.57.34-.58 1 .58-.34.57zm2 1.16l-1-.58.34-.58 1 .58-.34.58zm2 1.15l-1-.64.33-.58 1 .58-.33.64zm2 1.15l-1-.57.33-.58 1 .58-.33.57zm2 1.16l-1-.58.33-.58 1 .58-.33.58zm2 1.15l-1-.58.34-.57 1 .57-.34.58zm2 1.15l-1-.57.34-.58 1 .58-.34.57z"/>
        <path d="M36 41.17a.47.47 0 0 1-.17 0l-.52-.3.34-.58.35.2.35-.2.33.58-.51.3a.47.47 0 0 1-.17 0z"/>
        <path fill-rule="nonzero" d="M68 23l-.33-.58 1-.58.34.58L68 23zm-2 1.1l-.34-.58 1-.57.34.57-1 .58zm-2 1.15l-.34-.57 1-.58.34.58-1 .57zm-2 1.16l-.34-.58 1-.58.33.58-.99.58zm-2 1.15l-.39-.56 1-.57.39.57-1 .56zm-2 1.15l-.34-.57 1-.58.33.58-.99.57zm-2 1.16l-.34-.58 1-.58.34.58-1 .58zm-2 1.15l-.34-.58 1-.57.34.57-1 .58zm-2 1.15l-.34-.57 1-.58.34.58-1 .57zm-2 1.15l-.34-.57 1-.58.33.58-.99.57zm-2 1.16l-.34-.58 1-.58.33.58-.99.58zm-2 1.15l-.34-.58 1-.57.34.57-1 .58zm-2 1.15l-.34-.57 1-.58.34.58-1 .57zm-2 1.16l-.34-.58 1-.58.34.58-1 .58zm-2 1.15l-.34-.58 1-.57.34.57-1 .58zm-2 1.15l-.34-.57 1-.58.33.58-.99.57z"/>
        <path d="M69.714 20.956l.866-.501.5.865-.865.501zM35.67 40.84h1v1h-1z"/>
        <path fill-rule="nonzero" d="M36.35 43.92h-.68v-1.16h.68v1.16zm0 2.33h-.68V45.1h.68v1.15zm0 2.34h-.68v-1.15h.68v1.15zm0 2.34h-.68v-1.16h.68v1.16zm0 2.3h-.68v-1.15h.68v1.15zm0 2.34h-.68V54.3h.68v1.27zm0 2.31h-.68v-1.15h.68v1.15zm0 2.34h-.68v-1.15h.68v1.15zm0 2.31h-.68v-1.16h.68v1.16zm0 2.34h-.68v-1.16h.68v1.16zm0 2.3h-.68V66h.68v1.17zm0 2.34h-.68v-1.15h.68v1.15zm0 2.31h-.68v-1.15h.68v1.15zm0 2.34h-.68V73h.68v1.16zm0 2.34h-.68v-1.15h.68v1.15zm0 2.34h-.68v-1.16h.68v1.16z"/>
        <path d="M35.67 80.01h1v1h-1z"/>
        <path fill-rule="nonzero" d="M69.73 60.22l-33-19.1V2.24l33.05 19.1-.05 38.88zM36 79.82L3.55 61.06 36 42.29l32.46 18.77L36 79.82zM2.29 21.34l33-19.1v38.88l-33 19.11V21.34zm68.43-1L36.35.48a.69.69 0 0 0-.68 0L1.28 20.37a.67.67 0 0 0-.34.58v39.78c0 .238.13.457.34.57l34.39 19.88c.1.067.22.102.34.1a.61.61 0 0 0 .34-.1L70.72 61.3a.64.64 0 0 0 .34-.57V21a.62.62 0 0 0-.34-.63v-.03z"/>
        <path d="M13.08 40.84v13.25l11.46 6.63 11.47-6.63 11.46 6.63 11.47-6.63V40.84l-11.47-6.63v13.25l-11.46-6.62-11.47 6.62V34.21z"/>
    </g>
</svg>
