<svg xmlns="http://www.w3.org/2000/svg" viewBox="0 0 360 360"><defs><style>.cls-1{fill:#fff;}</style></defs><g id="Layer_5" data-name="Layer 5"><polygon class="cls-1" points="212.99 165 190.3 151.89 194.24 149.62 193.63 148.55 189.38 151.01 189.69 151.54 189.68 178.46 167.05 165.39 167.05 162.81 165.83 162.81 165.83 165.31 145.99 176.77 145.97 176.72 143.06 178.4 143.06 151.54 143.06 151.54 143.38 151.02 139.18 148.48 138.54 149.53 142.45 151.89 119.75 165 119.75 191.87 116.23 193.9 116.85 194.96 120.93 192.6 143.06 205.38 166.37 191.92 166.93 192.24 165.83 192.24 165.83 197.14 167.05 197.14 167.05 192.31 189.68 205.38 212.99 191.92 212.99 165"/><path class="cls-1" d="M161.65,101.19h8.13a1.21,1.21,0,0,1,.66.24c1.58,1.23,3.14,2.48,4.7,3.72.12.1.25.18.44.33V92.33a3.56,3.56,0,0,0-3.2-3.84l-.07,0H161.12a4.09,4.09,0,0,0-2.22,1.06,3.35,3.35,0,0,0-1,2.42c0,1.87,0,3.74,0,5.61A3.59,3.59,0,0,0,161.65,101.19Zm10.22-4.27h-6.6V95.56h6.6Zm-9.55-4.19h9.55v1.35h-9.55Z"/><path class="cls-1" d="M113.91,194.3H99.16a1.47,1.47,0,0,0-1.54.9v10.05a1.47,1.47,0,0,0,1.54.91H114a1.48,1.48,0,0,0,1.54-.9V195.2A1.49,1.49,0,0,0,113.91,194.3Zm.18,10.5H99v-8.5l6.9,4.84a.86.86,0,0,0,1.25,0l6.83-4.79.08,0Z"/><path class="cls-1" d="M235.17,196.66l-.1,0,0,0c.1-.2.21-.41.3-.62a.53.53,0,0,0,0-.49.51.51,0,0,0-.39-.23.84.84,0,0,0-.4.09,7,7,0,0,1-1.66.64s-.06,0-.1,0l0,0a3.22,3.22,0,0,0-.46-.34,4,4,0,0,0-4.25,0,3.63,3.63,0,0,0-1.91,3.43h0l-.15,0-.12,0-.61-.11a9.23,9.23,0,0,1-4.4-2.23,7.4,7.4,0,0,1-.56-.56l-.28-.29a.65.65,0,0,0-.5-.19.58.58,0,0,0-.4.28,3.7,3.7,0,0,0-.2,3.43c0,.11.11.23.17.34a.52.52,0,0,0-.31.1.54.54,0,0,0-.22.45,3.72,3.72,0,0,0,1.05,2.57l.29.33,0,0a.48.48,0,0,0-.11.55,3.85,3.85,0,0,0,2,2.22l.32.14a6.66,6.66,0,0,1-1.67.54,7.07,7.07,0,0,1-2,.08.53.53,0,0,0-.61.35.51.51,0,0,0,.26.62,10.91,10.91,0,0,0,5.64,1.55,11.31,11.31,0,0,0,2.46-.27,10,10,0,0,0,7.9-9.81c0-.05,0-.07.06-.12l.14-.12c.29-.26.58-.52.86-.8a5.6,5.6,0,0,0,.45-.54l.1-.13a.49.49,0,0,0,0-.63A.55.55,0,0,0,235.17,196.66Z"/><path class="cls-1" d="M103.05,139.46q3.53,0,7,0a5.37,5.37,0,0,0,5.17-4l2.28,1.38.63-1.05-2.46-1.49-.32.53a1.33,1.33,0,0,1,0-.19v-7.37c-.08-.34-.13-.69-.23-1a5.34,5.34,0,0,0-4.63-3.74l-.18,0H102.7c-.28,0-.58.09-.86.15a5.26,5.26,0,0,0-4.16,5c0,2.22,0,4.45,0,6.67A5.3,5.3,0,0,0,103.05,139.46Zm8.26-14a1,1,0,1,1-1,1A1,1,0,0,1,111.31,125.43Zm-4.68,1.13A4.45,4.45,0,1,1,102,131,4.56,4.56,0,0,1,106.63,126.56Z"/><rect class="cls-1" x="165.83" y="143.19" width="1.23" height="4.9"/><rect class="cls-1" x="165.83" y="211.86" width="1.23" height="4.91"/><rect class="cls-1" x="165.83" y="202.05" width="1.23" height="4.91"/><rect class="cls-1" x="165.83" y="153" width="1.23" height="4.91"/><rect class="cls-1" x="165.83" y="133.38" width="1.23" height="4.91"/><rect class="cls-1" x="165.83" y="103.95" width="1.23" height="4.91"/><rect class="cls-1" x="165.83" y="113.76" width="1.23" height="4.91"/><rect class="cls-1" x="165.83" y="123.57" width="1.23" height="4.91"/><rect class="cls-1" x="123.55" y="137.68" width="1.23" height="4.9" transform="translate(-59.97 174.03) rotate(-58.89)"/><rect class="cls-1" x="131.95" y="142.75" width="1.23" height="4.9" transform="translate(-60.25 183.67) rotate(-58.89)"/><rect class="cls-1" x="206.35" y="139.88" width="4.91" height="1.23" transform="translate(-42.27 123.2) rotate(-29.99)"/><path class="cls-1" d="M215.48,137.35l2.76-1.6c0,.39,0,.77,0,1.16a1.32,1.32,0,0,0,1.41,1.32h1.58c1.19,0,1.57-.29,1.81-1.31h1.24c2.45,0,4.89,0,7.33,0a2.08,2.08,0,0,0,2.1-1.31c.2-.45.35-.91.52-1.38.54-1.47,1.11-2.93,1.6-4.42a2,2,0,0,0-2.08-2.69h-3.91c0-.35,0-.64,0-.94a18.26,18.26,0,0,0-.37-2.77,2.87,2.87,0,0,0-2.57-2.14c-.85-.11-1.27.16-1.42,1-.11.6-.18,1.21-.25,1.82-.19,1.45-.72,2.66-2.42,3a1.54,1.54,0,0,0-1.5-.6h-1.66a1.32,1.32,0,0,0-1.41,1.33q0,3.26,0,6.52l-3.38,1.95Zm8.14-9.12c.12-.06.25-.13.38-.18a3.61,3.61,0,0,0,2.41-2.92c.15-.75.23-1.51.34-2.26,0-.08,0-.15.06-.25a1.37,1.37,0,0,1,1.23.89,7.73,7.73,0,0,1,.41,1.82c.05.71,0,1.44,0,2.16s.19,1,1,1h4.39c.71,0,1,.31.78,1-.47,1.39-1,2.77-1.49,4.16-.19.52-.39,1.05-.59,1.57a.76.76,0,0,1-.82.5h-7.71c-.7,0-.91-.19-.91-.87,0-1.85,0-3.7,0-5.55A1,1,0,0,1,223.62,128.23Z"/><rect class="cls-1" x="197.85" y="144.79" width="4.9" height="1.23" transform="translate(-45.86 119.61) rotate(-29.99)"/><rect class="cls-1" x="214.43" y="190.81" width="1.23" height="4.9" transform="translate(-64.6 266.72) rotate(-56.66)"/><path class="cls-1" d="M175,222.28H158.55c-.53,0-.74.2-.74.71v15.68c0,.51.21.7.75.7h8V233.6h-2.37v-4.06h2.38c0-.2,0-.39,0-.58s0-.33,0-.49a8.89,8.89,0,0,1,.1-1.36,3.86,3.86,0,0,1,3.89-3.22c.57,0,1.14,0,1.69.06l.83,0a.52.52,0,0,1,.54.55c0,.64,0,1.28,0,1.91v.78a.66.66,0,0,1,0,.14l0,.3-.32.07h-1.47a5.7,5.7,0,0,0-.71,0c-.23,0-.27.1-.28.27,0,.32,0,.64,0,1v.53h2.84l-.53,4.06h-2.3v5.77H175c.51,0,.73-.2.73-.69V223C175.7,222.48,175.48,222.28,175,222.28Z"/></g></svg>