<?xml version="1.0" encoding="UTF-8"?>
<svg width="71px" height="82px" viewBox="0 0 71 82" version="1.1" xmlns="http://www.w3.org/2000/svg" xmlns:xlink="http://www.w3.org/1999/xlink">
    <!-- Generator: Sketch 53.2 (72643) - https://sketchapp.com -->
    <title>logos/weaviate/primary/color copy 24</title>
    <desc>Created with Sketch.</desc>
    <defs>
        <path d="M11,0 L23,0 C23.5522845,0 24,0.5074109 24,1.13333333 L24,32.8666667 C24,33.4925891 23.5522845,34 23,34 L11,34 C10.4477155,34 10,33.4925891 10,32.8666667 L10,1.13333333 C10,0.5074109 10.4477155,0 11,0 Z M7,28.3333333 C7,28.9592558 6.5522845,29.4666667 6,29.4666667 C5.4477155,29.4666667 5,28.9592558 5,28.3333333 L5,5.66666667 C5,5.04074423 5.4477155,4.53333333 6,4.53333333 C6.5522845,4.53333333 7,5.04074423 7,5.66666667 L7,28.3333333 Z M2,23.8 C2,24.4259224 1.5522845,24.9333333 1,24.9333333 C0.4477155,24.9333333 0,24.4259224 0,23.8 L0,10.2 C0,9.57407757 0.4477155,9.06666667 1,9.06666667 C1.5522845,9.06666667 2,9.57407757 2,10.2 L2,23.8 Z M34,23.8 C34,24.4259224 33.5522845,24.9333333 33,24.9333333 C32.4477155,24.9333333 32,24.4259224 32,23.8 L32,10.2 C32,9.57407757 32.4477155,9.06666667 33,9.06666667 C33.5522845,9.06666667 34,9.57407757 34,10.2 L34,23.8 Z M29,28.3333333 C29,28.9592558 28.5522845,29.4666667 28,29.4666667 C27.4477155,29.4666667 27,28.9592558 27,28.3333333 L27,5.66666667 C27,5.04074423 27.4477155,4.53333333 28,4.53333333 C28.5522845,4.53333333 29,5.04074423 29,5.66666667 L29,28.3333333 Z" id="path-1"></path>
    </defs>
    <g id="SeMI-Website" stroke="none" stroke-width="1" fill="none" fill-rule="evenodd">
        <g id="Styleguide-–-Solution-Branding" transform="translate(-614.000000, -5765.000000)">
            <g id="icons/PointSolutions/semantic-segmentation" transform="translate(614.000000, 5765.000000)">
                <g id="Group-5-Copy-5" stroke-width="1" fill-rule="evenodd">
                    <g id="Group-3">
                        <polygon id="Path" fill="#0070E6" points="4.98245614 58.0838004 4.98245614 22.6737753 35.5 4.96969697 66.0175439 22.6737753 66.0175439 58.0838004 35.3888598 76.1587424"></polygon>
                        <path d="M35.5,0 L0,20.4991337 L0,61.5001733 L35.1535707,81.8004141 L35.5,82 L71,61.5001733 L71,20.4991337 L35.8457365,0.199585886 L35.5,0 Z M4.9703628,58.1392424 L4.9703628,22.8202273 L35.337792,5.16165152 L65.7046045,22.8202273 L65.7046045,58.1392424 L35.337792,75.7978182 L4.9703628,58.1392424 Z" id="Fill-24" fill="#ABABAB"></path>
                    </g>
                    <g id="Group-32-Copy">
                        <g id="Group-23" transform="translate(3.736842, 20.701894)" fill="#04152A">
                            <polygon id="Fill-9" points="0.808881196 2.3337697 0.279084057 2.01570909 0.436974706 1.74920909 0.966771845 2.06664848"></polygon>
                            <polygon id="Fill-13" points="31.6520177 20.8609864 31.0432752 20.4957136 31.2011659 20.2285924 31.6520177 20.4994409 32.1028695 20.2285924 32.2607601 20.4957136"></polygon>
                            <polygon id="Fill-17" points="62.4951542 2.3337697 62.3372635 2.06664848 62.8670607 1.74920909 63.0243345 2.01570909"></polygon>
                            <polygon id="Fill-19" points="31.4979509 56.0780606 31.8063311 56.0780606 31.8063311 55.4568485 31.4979509 55.4568485"></polygon>
                            <polygon id="Fill-22" points="31.4979509 22.8786212 31.8063311 22.8786212 31.8063311 22.2574091 31.4979509 22.2574091"></polygon>
                        </g>
                        <path d="M35.5,0 L0,20.4991337 L0,61.5001733 L35.1535707,81.8004141 L35.5,82 L71,61.5001733 L71,20.4991337 L35.8457365,0.199585886 L35.5,0 Z M4.9703628,58.1392424 L4.9703628,22.8202273 L35.337792,5.16165152 L65.7046045,22.8202273 L65.7046045,58.1392424 L35.337792,75.7978182 L4.9703628,58.1392424 Z" id="Fill-24" fill="#EAE7E7"></path>
                        <path d="M35.3313515,40.8479847 L35.5061321,41.1520153 L33.8850904,42.0783162 L33.7103098,41.7742855 L35.3313515,40.8479847 Z M32.089268,42.7005863 L32.2640486,43.004617 L30.6430068,43.9309178 L30.4682262,43.6268871 L32.089268,42.7005863 Z M28.8471845,44.5531879 L29.0219651,44.8572186 L27.4009233,45.7835194 L27.2261427,45.4794887 L28.8471845,44.5531879 Z M25.6051009,46.4057895 L25.7798815,46.7098202 L24.1588398,47.636121 L23.9840592,47.3320904 L25.6051009,46.4057895 Z M22.3630174,48.2583912 L22.537798,48.5624219 L20.9167563,49.4887227 L20.7419756,49.184692 L22.3630174,48.2583912 Z M19.1209339,50.1109928 L19.2957145,50.4150235 L17.6746727,51.3413243 L17.4998921,51.0372936 L19.1209339,50.1109928 Z M15.8788504,51.9635944 L16.053631,52.2676251 L14.4325892,53.1939259 L14.2578086,52.8898952 L15.8788504,51.9635944 Z M12.6367668,53.8161961 L12.8115474,54.1202267 L11.1905057,55.0465276 L11.0157251,54.7424969 L12.6367668,53.8161961 Z M9.3946833,55.6687977 L9.5694639,55.9728284 L7.94842214,56.8991292 L7.77364153,56.5950985 L9.3946833,55.6687977 Z M6.15259977,57.5213993 L6.32738037,57.82543 L5.0577531,58.5509244 L4.8829725,58.2468937 L6.15259977,57.5213993 Z" id="Path-2" fill="#EAE7E7" fill-rule="nonzero"></path>
                        <path d="M65.7904355,57.9863466 L65.6187735,58.2921383 L63.9883421,57.3823655 L64.1600041,57.0765738 L65.7904355,57.9863466 Z M62.5295727,56.166801 L62.3579107,56.4725928 L60.7274793,55.56282 L60.8991412,55.2570283 L62.5295727,56.166801 Z M59.2687098,54.3472555 L59.0970478,54.6530472 L57.4666164,53.7432745 L57.6382784,53.4374827 L59.2687098,54.3472555 Z M56.007847,52.52771 L55.836185,52.8335017 L54.2057536,51.9237289 L54.3774156,51.6179372 L56.007847,52.52771 Z M52.7469842,50.7081644 L52.5753222,51.0139562 L50.9448908,50.1041834 L51.1165527,49.7983917 L52.7469842,50.7081644 Z M49.4861213,48.8886189 L49.3144593,49.1944107 L47.6840279,48.2846379 L47.8556899,47.9788461 L49.4861213,48.8886189 Z M46.2252585,47.0690734 L46.0535965,47.3748651 L44.4231651,46.4650924 L44.5948271,46.1593006 L46.2252585,47.0690734 Z M42.9643957,45.2495278 L42.7927337,45.5553196 L41.1623023,44.6455468 L41.3339643,44.3397551 L42.9643957,45.2495278 Z M39.7035328,43.4299823 L39.5318709,43.7357741 L37.9014394,42.8260013 L38.0731014,42.5202096 L39.7035328,43.4299823 Z M36.44267,41.6104368 L36.271008,41.9162285 L35.9117713,41.7157762 L36.0834332,41.4099844 L36.44267,41.6104368 Z" id="Path-4" fill="#EAE7E7" fill-rule="nonzero"></path>
                        <path d="M35.1617429,5.16245326 L35.6617377,5.16084977 L35.6738997,7.02362837 L35.173905,7.02523186 L35.1617429,5.16245326 Z M35.186067,8.88801046 L35.6860618,8.88640697 L35.6982238,10.7491856 L35.198229,10.7507891 L35.186067,8.88801046 Z M35.2103911,12.6135677 L35.7103859,12.6119642 L35.7225479,14.4747428 L35.2225531,14.4763463 L35.2103911,12.6135677 Z M35.2347152,16.3391248 L35.7347099,16.3375214 L35.746872,18.2003 L35.2468772,18.2019034 L35.2347152,16.3391248 Z M35.2590393,20.064682 L35.759034,20.0630786 L35.7711961,21.9258572 L35.2712013,21.9274606 L35.2590393,20.064682 Z M35.2833633,23.7902392 L35.7833581,23.7886357 L35.7955202,25.6514143 L35.2955254,25.6530178 L35.2833633,23.7902392 Z M35.3076874,27.5157964 L35.8076822,27.5141929 L35.8198442,29.3769715 L35.3198495,29.378575 L35.3076874,27.5157964 Z M35.3320115,31.2413536 L35.8320063,31.2397501 L35.8441683,33.1025287 L35.3441736,33.1041322 L35.3320115,31.2413536 Z M35.3563356,34.9669108 L35.8563304,34.9653073 L35.8684924,36.8280859 L35.3684977,36.8296894 L35.3563356,34.9669108 Z M35.3806597,38.692468 L35.8806545,38.6908645 L35.8928165,40.5536431 L35.3928217,40.5552466 L35.3806597,38.692468 Z" id="Path-3" fill="#EAE7E7" fill-rule="nonzero"></path>
                        <g id="Group-31" transform="translate(19.929825, 25.469697)"></g>
                    </g>
                </g>
                <g id="icons/industries/segmentation" transform="translate(18.980198, 24.529915)">
                    <mask id="mask-2" fill="white">
                        <use xlink:href="#path-1"></use>
                    </mask>
                    <use id="Shape" fill="#FFFFFF" fill-rule="nonzero" xlink:href="#path-1"></use>
                    <g id="background/white" mask="url(#mask-2)" fill="#FFFFFF" fill-rule="evenodd">
                        <polygon id="Combined-Shape" points="0 0 34 0 34 34 0 34"></polygon>
                    </g>
                </g>
            </g>
        </g>
    </g>
</svg>