<svg xmlns="http://www.w3.org/2000/svg" viewBox="0 0 360 360"><defs><style>.cls-1{fill:#fff;}</style></defs><g id="Layer_2" data-name="Layer 2"><path class="cls-1" d="M189.65,165h1.77l3.52,12.42L199.89,165h.35l4.89,12.42L208.71,165h1.76l-5,17.24h-.32l-5.11-13-5.22,13h-.32Z"/><path class="cls-1" d="M205.89,182.73h-1l-4.78-12.19-4.87,12.19h-1L189,164.49h2.81L195,175.86l4.53-11.37h1l4.47,11.37,3.28-11.37h2.8Zm-15.58-17.24,4.44,15.66,5.33-13.32,5.22,13.31,4.5-15.65h-.71L205.2,179l-5.14-13.06L194.86,179,191,165.49Z"/><path class="cls-1" d="M224.13,178l1.38.73a7.39,7.39,0,0,1-1.57,2.15,6.17,6.17,0,0,1-2,1.25,7.08,7.08,0,0,1-2.52.43,6.09,6.09,0,0,1-4.88-2.05,7,7,0,0,1-.27-8.95,6.12,6.12,0,0,1,5.06-2.41,6.32,6.32,0,0,1,5.21,2.47,6.9,6.9,0,0,1,1.4,4.36H214.46a5.24,5.24,0,0,0,1.42,3.65,4.57,4.57,0,0,0,3.39,1.42,5.64,5.64,0,0,0,1.9-.34,5.15,5.15,0,0,0,1.56-.9A7.84,7.84,0,0,0,224.13,178Zm0-3.44a5.41,5.41,0,0,0-1-2.09,4.46,4.46,0,0,0-1.66-1.27,5.09,5.09,0,0,0-2.17-.48,4.64,4.64,0,0,0-3.22,1.21,5.34,5.34,0,0,0-1.49,2.63Z"/><path class="cls-1" d="M219.41,183.06a6.62,6.62,0,0,1-5.26-2.22,7.46,7.46,0,0,1-1.88-5,7.34,7.34,0,0,1,1.6-4.63,6.6,6.6,0,0,1,5.45-2.61,6.81,6.81,0,0,1,5.6,2.66,7.39,7.39,0,0,1,1.51,4.67v.5H215a4.53,4.53,0,0,0,1.25,2.8,4,4,0,0,0,3,1.27,5,5,0,0,0,1.72-.31,4.58,4.58,0,0,0,1.41-.81,7.29,7.29,0,0,0,1.3-1.69l.24-.4,2.24,1.17L226,179a8.15,8.15,0,0,1-1.68,2.3,6.82,6.82,0,0,1-2.17,1.35A7.6,7.6,0,0,1,219.41,183.06Zm-.09-13.41a5.57,5.57,0,0,0-4.66,2.22,6.48,6.48,0,0,0,.25,8.32,5.61,5.61,0,0,0,4.5,1.87,6.61,6.61,0,0,0,2.35-.4,5.64,5.64,0,0,0,1.84-1.15,6.56,6.56,0,0,0,1.23-1.58l-.52-.27a7.27,7.27,0,0,1-1.25,1.53,5.54,5.54,0,0,1-1.72,1,6.1,6.1,0,0,1-2.07.37,5,5,0,0,1-3.75-1.58,5.71,5.71,0,0,1-1.56-4v-.51h11.47a6.37,6.37,0,0,0-1.28-3.55A5.79,5.79,0,0,0,219.32,169.65Zm5.45,5.41H214l.18-.63a6,6,0,0,1,1.64-2.87,5.17,5.17,0,0,1,3.56-1.34,5.59,5.59,0,0,1,2.38.53,5,5,0,0,1,1.84,1.4,5.79,5.79,0,0,1,1.05,2.29Zm-9.45-1h8.14a4.41,4.41,0,0,0-.68-1.28,4.08,4.08,0,0,0-1.48-1.13,4.74,4.74,0,0,0-2-.43,4.14,4.14,0,0,0-2.89,1.08A4.5,4.5,0,0,0,215.32,174.06Z"/><path class="cls-1" d="M241.7,169.48v12.75h-1.62V180a7.06,7.06,0,0,1-2.32,1.88,6.13,6.13,0,0,1-2.8.64,6.24,6.24,0,0,1-4.63-2,6.59,6.59,0,0,1-1.91-4.77,6.44,6.44,0,0,1,1.93-4.71,6.29,6.29,0,0,1,4.65-2,6,6,0,0,1,2.85.67,6.46,6.46,0,0,1,2.23,2v-2.34Zm-6.56,1.25a5,5,0,0,0-2.53.68,4.78,4.78,0,0,0-1.84,1.89,5.13,5.13,0,0,0-.69,2.57,5.2,5.2,0,0,0,.69,2.58,5,5,0,0,0,1.86,1.91,4.81,4.81,0,0,0,2.5.69,5.13,5.13,0,0,0,2.55-.68,4.91,4.91,0,0,0,1.86-1.84,5.26,5.26,0,0,0,.64-2.61,5.07,5.07,0,0,0-1.45-3.7A4.84,4.84,0,0,0,235.14,170.73Z"/><path class="cls-1" d="M235,183.06a6.71,6.71,0,0,1-5-2.12,7.07,7.07,0,0,1-2.06-5.12,7,7,0,0,1,2.08-5.06,6.79,6.79,0,0,1,5-2.11,6.45,6.45,0,0,1,3.08.73,6.53,6.53,0,0,1,1.5,1.09V169h2.62v13.75h-2.62v-1.45a6.79,6.79,0,0,1-4.62,1.78Zm0-13.41a5.76,5.76,0,0,0-4.29,1.81,5.9,5.9,0,0,0-1.79,4.36,6,6,0,0,0,1.77,4.42,5.71,5.71,0,0,0,4.27,1.82,5.85,5.85,0,0,0,2.58-.58,6.55,6.55,0,0,0,2.15-1.76l.89-1.08v3.09h.62V170h-.62v3.39l-.91-1.26a6,6,0,0,0-2.06-1.85A5.61,5.61,0,0,0,235,169.65Zm.13,11.9a5.35,5.35,0,0,1-2.75-.76,5.49,5.49,0,0,1-2-2.1,5.71,5.71,0,0,1-.76-2.82,5.64,5.64,0,0,1,.75-2.82,5.45,5.45,0,0,1,4.81-2.82,5.31,5.31,0,0,1,3.94,1.64,5.53,5.53,0,0,1,1.6,4,5.77,5.77,0,0,1-.71,2.85,5.17,5.17,0,0,1-2,2A5.6,5.6,0,0,1,235.13,181.55Zm0-10.32a4.5,4.5,0,0,0-2.28.61,4.45,4.45,0,0,0-1.66,1.7,4.73,4.73,0,0,0-.62,2.33,4.66,4.66,0,0,0,.63,2.33,4.56,4.56,0,0,0,1.67,1.73,4.49,4.49,0,0,0,4.55,0,4.34,4.34,0,0,0,1.67-1.65,4.74,4.74,0,0,0,.58-2.36,4.57,4.57,0,0,0-1.31-3.35A4.31,4.31,0,0,0,235.14,171.23Z"/><path class="cls-1" d="M244.18,169.48h1.75l4.28,9.29,4.22-9.29h1.76l-5.83,12.75h-.31Z"/><path class="cls-1" d="M250.68,182.73h-1L243.4,169h2.85l3.95,8.59,3.91-8.59H257ZM245,170l5.24,11.38L255.41,170h-.65l-4.55,10-4.6-10Z"/><path class="cls-1" d="M259.26,164.23a1.37,1.37,0,0,1,1.35,1.36,1.29,1.29,0,0,1-.4.95,1.31,1.31,0,0,1-.95.4,1.35,1.35,0,0,1-.95-2.31A1.29,1.29,0,0,1,259.26,164.23Zm-.82,5.25h1.64v12.75h-1.64Z"/><path class="cls-1" d="M260.58,182.73h-2.64V169h2.64Zm-1.64-1h.64V170h-.64Zm.32-14.29a1.88,1.88,0,0,1-1.85-1.85,1.85,1.85,0,1,1,3.7,0,1.86,1.86,0,0,1-1.85,1.85Zm0-2.71a.85.85,0,0,0-.85.86.8.8,0,0,0,.26.6.85.85,0,0,0,1.19-1.21A.8.8,0,0,0,259.26,164.73Z"/><path class="cls-1" d="M276.2,169.48v12.75h-1.62V180a7.06,7.06,0,0,1-2.32,1.88,6.13,6.13,0,0,1-2.8.64,6.24,6.24,0,0,1-4.63-2,6.59,6.59,0,0,1-1.91-4.77,6.44,6.44,0,0,1,1.93-4.71,6.29,6.29,0,0,1,4.65-2,6,6,0,0,1,2.85.67,6.46,6.46,0,0,1,2.23,2v-2.34Zm-6.56,1.25a5,5,0,0,0-2.53.68,4.78,4.78,0,0,0-1.84,1.89,5.13,5.13,0,0,0-.69,2.57,5.2,5.2,0,0,0,.69,2.58,5,5,0,0,0,1.86,1.91,4.81,4.81,0,0,0,2.5.69,5.13,5.13,0,0,0,2.55-.68,4.91,4.91,0,0,0,1.86-1.84,5.26,5.26,0,0,0,.64-2.61,5.07,5.07,0,0,0-1.45-3.7A4.84,4.84,0,0,0,269.64,170.73Z"/><path class="cls-1" d="M269.46,183.06a6.71,6.71,0,0,1-5-2.12,7.07,7.07,0,0,1-2.06-5.12,7,7,0,0,1,2.08-5.06,6.79,6.79,0,0,1,5-2.11,6.45,6.45,0,0,1,3.08.73,6.53,6.53,0,0,1,1.5,1.09V169h2.62v13.75h-2.62v-1.45a6.79,6.79,0,0,1-4.62,1.78Zm0-13.41a5.76,5.76,0,0,0-4.29,1.81,5.9,5.9,0,0,0-1.79,4.36,6,6,0,0,0,1.77,4.42,5.71,5.71,0,0,0,4.27,1.82,5.85,5.85,0,0,0,2.58-.58,6.55,6.55,0,0,0,2.15-1.76l.89-1.08v3.09h.62V170h-.62v3.39l-.91-1.26a6,6,0,0,0-2.06-1.85A5.61,5.61,0,0,0,269.5,169.65Zm.13,11.9a5.35,5.35,0,0,1-2.75-.76,5.49,5.49,0,0,1-2-2.1,5.71,5.71,0,0,1-.76-2.82,5.64,5.64,0,0,1,.75-2.82,5.45,5.45,0,0,1,4.81-2.82,5.31,5.31,0,0,1,3.94,1.64,5.53,5.53,0,0,1,1.6,4,5.77,5.77,0,0,1-.71,2.85,5.17,5.17,0,0,1-2,2A5.6,5.6,0,0,1,269.63,181.55Zm0-10.32a4.5,4.5,0,0,0-2.28.61,4.45,4.45,0,0,0-1.66,1.7,4.73,4.73,0,0,0-.62,2.33,4.66,4.66,0,0,0,.63,2.33,4.56,4.56,0,0,0,1.67,1.73,4.49,4.49,0,0,0,4.55,0,4.34,4.34,0,0,0,1.67-1.65,4.74,4.74,0,0,0,.58-2.36,4.57,4.57,0,0,0-1.31-3.35A4.31,4.31,0,0,0,269.64,171.23Z"/><path class="cls-1" d="M281.32,164.74H283v4.74h2.6v1.42H283v11.33h-1.64V170.9h-2.24v-1.42h2.24Z"/><path class="cls-1" d="M283.46,182.73h-2.64V171.4h-2.24V169h2.24v-4.74h2.64V169h2.6v2.42h-2.6Zm-1.64-1h.64V170.4h2.6V170h-2.6v-4.74h-.64V170h-2.24v.42h2.24Z"/><path class="cls-1" d="M298.75,178l1.39.73a7.77,7.77,0,0,1-1.57,2.15,6.39,6.39,0,0,1-2,1.25,7.08,7.08,0,0,1-2.52.43,6.07,6.07,0,0,1-4.88-2.05,7,7,0,0,1-.27-8.95,6.1,6.1,0,0,1,5.05-2.41,6.31,6.31,0,0,1,5.21,2.47,7,7,0,0,1,1.41,4.36H289.09a5.19,5.19,0,0,0,1.42,3.65,4.54,4.54,0,0,0,3.39,1.42,5.54,5.54,0,0,0,1.89-.34,5.09,5.09,0,0,0,1.57-.9A7.85,7.85,0,0,0,298.75,178Zm0-3.44a5.26,5.26,0,0,0-.95-2.09,4.46,4.46,0,0,0-1.66-1.27,5.09,5.09,0,0,0-2.17-.48,4.66,4.66,0,0,0-3.23,1.21,5.42,5.42,0,0,0-1.49,2.63Z"/><path class="cls-1" d="M294,183.06a6.62,6.62,0,0,1-5.26-2.22,7.41,7.41,0,0,1-1.88-5,7.34,7.34,0,0,1,1.6-4.63,6.58,6.58,0,0,1,5.44-2.61,6.8,6.8,0,0,1,5.6,2.66,7.45,7.45,0,0,1,1.52,4.67v.5H289.62a4.48,4.48,0,0,0,1.25,2.8,4,4,0,0,0,3,1.27,5.12,5.12,0,0,0,1.72-.31,4.7,4.7,0,0,0,1.41-.81,7.58,7.58,0,0,0,1.3-1.69l.24-.4,2.24,1.17-.23.44a8,8,0,0,1-1.68,2.3,6.66,6.66,0,0,1-2.16,1.35A7.68,7.68,0,0,1,294,183.06Zm-.1-13.41a5.59,5.59,0,0,0-4.66,2.22,6.5,6.5,0,0,0,.26,8.32,5.59,5.59,0,0,0,4.5,1.87,6.56,6.56,0,0,0,2.34-.4,5.68,5.68,0,0,0,1.85-1.15,6.56,6.56,0,0,0,1.23-1.58l-.53-.27a6.7,6.7,0,0,1-1.25,1.53,5.54,5.54,0,0,1-1.72,1,6,6,0,0,1-2.06.37,5,5,0,0,1-3.75-1.58,5.62,5.62,0,0,1-1.56-4v-.51H300a6.23,6.23,0,0,0-1.28-3.55A5.78,5.78,0,0,0,293.94,169.65Zm5.45,5.41h-10.8l.18-.63a5.87,5.87,0,0,1,1.64-2.87,5.17,5.17,0,0,1,3.56-1.34,5.59,5.59,0,0,1,2.38.53,5.12,5.12,0,0,1,1.84,1.4,6.08,6.08,0,0,1,1.05,2.29Zm-9.45-1h8.15a4.67,4.67,0,0,0-.68-1.28,4.16,4.16,0,0,0-1.48-1.13,4.74,4.74,0,0,0-2-.43,4.16,4.16,0,0,0-2.9,1.08A4.5,4.5,0,0,0,289.94,174.06Z"/><path class="cls-1" d="M190.67,193.79h3.4a7.91,7.91,0,0,1,3.15.49,3.78,3.78,0,0,1,1.74,1.49,4.06,4.06,0,0,1,.64,2.24,4,4,0,0,1-.56,2.09,4.12,4.12,0,0,1-1.64,1.53,6.63,6.63,0,0,1,2.07,1.07,4.34,4.34,0,0,1,1.12,1.49,4.43,4.43,0,0,1,.41,1.89,4.63,4.63,0,0,1-1.52,3.51,5.67,5.67,0,0,1-4.07,1.44h-4.74Zm1.69,1.69V201h1a7.5,7.5,0,0,0,2.64-.34,2.85,2.85,0,0,0,1.34-1,2.75,2.75,0,0,0,.49-1.6,2.25,2.25,0,0,0-.83-1.86,4.15,4.15,0,0,0-2.63-.67Zm0,7.25v6.61h2.14a7.58,7.58,0,0,0,2.77-.37,3.11,3.11,0,0,0,1.41-1.15,3,3,0,0,0-.21-3.71,3.89,3.89,0,0,0-2.07-1.17,15.2,15.2,0,0,0-3.07-.21Z"/><path class="cls-1" d="M204.71,193a1.37,1.37,0,0,1,1.35,1.36,1.29,1.29,0,0,1-.4,1,1.31,1.31,0,0,1-.95.4,1.35,1.35,0,0,1-1-2.31A1.29,1.29,0,0,1,204.71,193Zm-.82,5.25h1.64V211h-1.64Z"/><path class="cls-1" d="M215,198a6.32,6.32,0,0,1,4.88,2.13,6.85,6.85,0,0,1-.1,9.28,6.74,6.74,0,0,1-9.58,0,6.83,6.83,0,0,1-.1-9.26A6.33,6.33,0,0,1,215,198Zm0,1.61a4.72,4.72,0,0,0-3.51,1.51,5.05,5.05,0,0,0-1.48,3.65,5.13,5.13,0,0,0,.68,2.58,4.74,4.74,0,0,0,1.81,1.85,5.15,5.15,0,0,0,5,0,4.81,4.81,0,0,0,1.81-1.85,5.22,5.22,0,0,0,.67-2.58,5,5,0,0,0-1.48-3.65A4.72,4.72,0,0,0,215,199.56Z"/><path class="cls-1" d="M224.41,193.36h1.64V211h-1.64Z"/><path class="cls-1" d="M235.5,198a6.32,6.32,0,0,1,4.88,2.13,6.85,6.85,0,0,1-.1,9.28,6.74,6.74,0,0,1-9.58,0,6.83,6.83,0,0,1-.1-9.26A6.31,6.31,0,0,1,235.5,198Zm0,1.61a4.72,4.72,0,0,0-3.51,1.51,5,5,0,0,0-1.48,3.65,5.13,5.13,0,0,0,.68,2.58,4.74,4.74,0,0,0,1.81,1.85,5,5,0,0,0,2.5.65,5,5,0,0,0,2.51-.65,4.81,4.81,0,0,0,1.81-1.85,5.22,5.22,0,0,0,.67-2.58,5.05,5.05,0,0,0-1.48-3.65A4.72,4.72,0,0,0,235.49,199.56Z"/><path class="cls-1" d="M256.17,198.28h1.64v10.16a12,12,0,0,1-.47,3.92,5.09,5.09,0,0,1-2.24,2.71,7.38,7.38,0,0,1-3.83,1,8.78,8.78,0,0,1-3-.46,5.84,5.84,0,0,1-2.12-1.25,7.28,7.28,0,0,1-1.52-2.29h1.79a4.7,4.7,0,0,0,1.87,1.88,6,6,0,0,0,2.85.61,5.87,5.87,0,0,0,2.84-.63,3.81,3.81,0,0,0,1.65-1.57,7.13,7.13,0,0,0,.49-3.05v-.66a6.22,6.22,0,0,1-2.27,1.8,6.54,6.54,0,0,1-2.83.63,6.63,6.63,0,0,1-3.31-.87,6.28,6.28,0,0,1-2.39-2.35,6.39,6.39,0,0,1-.85-3.25,6.48,6.48,0,0,1,.88-3.3,6.66,6.66,0,0,1,5.71-3.31,6.14,6.14,0,0,1,2.67.59,7.5,7.5,0,0,1,2.39,2Zm-4.84,1.25a5.19,5.19,0,0,0-2.59.68,4.94,4.94,0,0,0-1.88,1.86,5.12,5.12,0,0,0-.68,2.57,4.63,4.63,0,0,0,1.41,3.47,5,5,0,0,0,3.64,1.37,4.93,4.93,0,0,0,3.64-1.36,4.78,4.78,0,0,0,1.38-3.57,5.18,5.18,0,0,0-.63-2.57,4.56,4.56,0,0,0-1.8-1.79A4.94,4.94,0,0,0,251.33,199.53Z"/><path class="cls-1" d="M260,198.28h1.74l4.38,9.82,4.25-9.82h1.75l-7.6,17.41h-1.74l2.46-5.63Z"/><circle class="cls-1" cx="109.36" cy="128.82" r="3.73"/><path class="cls-1" d="M118,137a2.92,2.92,0,1,0-2.91-2.92A2.92,2.92,0,0,0,118,137Z"/><path class="cls-1" d="M101.33,229.08a2.92,2.92,0,1,0,2.91,2.92A2.92,2.92,0,0,0,101.33,229.08Z"/><circle class="cls-1" cx="109.36" cy="226.97" r="2.81"/><path class="cls-1" d="M117.88,219.7a2.62,2.62,0,1,0,2.62,2.61A2.61,2.61,0,0,0,117.88,219.7Z"/><path class="cls-1" d="M117.58,175.73a2.62,2.62,0,1,0-2.61-2.62A2.62,2.62,0,0,0,117.58,175.73Z"/><path class="cls-1" d="M104,163.65a2.43,2.43,0,1,0-2.43,2.42A2.42,2.42,0,0,0,104,163.65Z"/><path class="cls-1" d="M117.58,165.36a2.07,2.07,0,1,0-2.07-2.07A2.07,2.07,0,0,0,117.58,165.36Z"/><path class="cls-1" d="M101.33,224.38a2.07,2.07,0,1,0-2.07-2.07A2.07,2.07,0,0,0,101.33,224.38Z"/><path class="cls-1" d="M92.36,160.42a2.08,2.08,0,0,0,2-1.48H124a2.23,2.23,0,1,0,0-1H94.39a2.07,2.07,0,1,0-2,2.48Z"/><circle class="cls-1" cx="109.36" cy="168.08" r="1.77"/><path class="cls-1" d="M92.36,150.53A1.76,1.76,0,0,0,94,149.38h29.82a2.62,2.62,0,1,0,0-1H94.08a1.76,1.76,0,1,0-1.72,2.18Z"/><path class="cls-1" d="M98.59,173.53a1.51,1.51,0,1,0,1.51-1.5A1.5,1.5,0,0,0,98.59,173.53Z"/><path class="cls-1" d="M117,230.49a1.51,1.51,0,1,0,1.51,1.51A1.52,1.52,0,0,0,117,230.49Z"/><path class="cls-1" d="M92.36,140.73a1.51,1.51,0,0,0,1.36-.86h29.92a2.81,2.81,0,1,0,0-1H93.82a1.51,1.51,0,1,0-1.46,1.89Z"/><path class="cls-1" d="M100.68,135.36a1.51,1.51,0,1,0-1.51-1.51A1.51,1.51,0,0,0,100.68,135.36Z"/><path class="cls-1" d="M162.32,157,144.76,146.9l-2,3.46,16.56,9.56v57.22l-16,9.24,2,3.46,17-9.81a2,2,0,0,0,1-1.73V158.77A2,2,0,0,0,162.32,157Z"/><path class="cls-1" d="M60.21,159.92l16-9.24-2-3.46-17,9.81a2,2,0,0,0-1,1.74V218.3a2,2,0,0,0,1,1.73l16.62,9.59,2-3.46-15.62-9Z"/><path class="cls-1" d="M143.35,207.59V188l-14.78-8.54a2.61,2.61,0,1,0-4.71-1.79h-30a1.5,1.5,0,0,0-3,.26,1.52,1.52,0,0,0,.32.93L75.35,188v19.63l15.53,9a1.44,1.44,0,0,0-.26.84,1.5,1.5,0,0,0,1.5,1.51,1.52,1.52,0,0,0,1.3-.74h30.31a2.6,2.6,0,1,0,4.77-2Zm-51-28.19a1.5,1.5,0,0,0,1.29-.74H124a2.62,2.62,0,0,0,2.39,1.84v6.72h-34V179.4Zm0,18.37v-9.55H108.9Zm17.44-9.55h16.56v9.55ZM93.48,216.75l15.87-9.16L124,216a2.76,2.76,0,0,0-.37,1.1h-30A1.27,1.27,0,0,0,93.48,216.75Z"/></g></svg>