<svg xmlns="http://www.w3.org/2000/svg" width="70" height="43" viewBox="0 0 70 43">
    <g fill="#FFF" fill-rule="nonzero">
        <path d="M51 .67v19.71l-16-9.26-16 9.26V.67l-19 11v20.85l18 10.42 17-9.84 17 9.84 18-10.42V11.69L51 .67zM1.94 31.37V12.85l15-8.67V40l-15-8.63zM51 40l-16-9.21L19 40V22.68l16-9.24 16 9.25V40zm17-8.67L53 40V4.18l15 8.67v18.48z"/>
        <path d="M36 13.12l-.87-.5.25-.43.87.5-.25.43zm-2.35.24l-.25-.43.86-.5.25.43-.86.5zm4.09.76l-.88-.5.25-.43.88.5-.25.43zm-5.83.24l-.25-.43.87-.5.25.43-.87.5zm7.56.76l-.87-.5.25-.43.87.5-.25.43zm-9.28.25l-.25-.44.87-.5.25.43-.87.51zm11 .76l-.86-.5.25-.44.87.51-.26.43zm-12.76.24l-.25-.43.87-.5.25.43-.87.5zm14.42.76l-.86-.5.25-.43.86.5-.25.43zm-16.23.24l-.2-.43.88-.5.25.43-.93.5zm18 .76l-.87-.5.25-.43.87.5-.25.43zm-19.71.24l-.25-.43.86-.5.25.43-.86.5zm21.44.76l-.87-.5.25-.43.87.5-.25.43zm-23.17.24l-.25-.43.86-.5.25.43-.86.5zm24.9.76l-.87-.5.27-.43.87.5-.27.43zm-26.64.24l-.26-.43.88-.5.25.43-.87.5zm28.4.77l-.84-.51.25-.43.86.5-.27.44zm-30.12.24l-.26-.38.87-.51.25.44-.86.45zm31.85.76l-.86-.5.25-.43.86.5-.25.43zM18 22.38l-.27-.38.86-.5.25.43-.84.45zm35.32.76l-.87-.5.25-.43.87.5-.25.43zm-37.06.24L16 23l.86-.5.25.43-.85.45zm38.74.76l-.87-.5.33-.43.87.5-.33.43zm-40.54.24l-.22-.38.87-.5.25.43-.9.45zm42.27.76l-.87-.5.25-.43.87.5-.25.43zm-44 .24l-.22-.38.87-.5.25.43-.9.45zm45.73.76l-.86-.5.25-.43.86.5-.25.43zm-47.35.25l-.22-.39.87-.5.25.43-.9.46zm49.2.76l-.87-.5.26-.44.77.51-.16.43zm-50.94.24L9.15 27l.86-.5.25.43-.89.46zm52.68.76l-.87-.5.25-.43.87.5-.25.43zm-54.41.24L7.42 28l.86-.5.25.43-.89.46zm56.1.76l-.87-.5.25-.43.87.5-.25.43zm-57.88.24L5.64 29l.87-.5.25.43-.9.46zm59.62.76l-.87-.5.25-.43.87.5-.25.43zm-61.42.24L3.84 30l.87-.5.26.43-.91.46zm63.12.76l-.86-.5.25-.43.86.5-.25.43zm-64.82.24L2.14 31l.87-.5.25.43-.9.46zm-1.32.77l-.25-.43.44-.27.25.44-.44.26zm67.87 0l-.87-.51.25-.43.87.51-.25.43z"/>
        <path d="M2.94 32.19h-1v-.46h1v.46zm2 0h-1v-.46h1v.46zm2 0H6v-.46h1l-.06.46zm2 0H8v-.46h1l-.06.46zm2 0H10v-.46h1l-.06.46zm2 0H12v-.46h1l-.06.46zm2 0H14v-.46h1l-.06.46zm2 0H16v-.46h1l-.06.46zm2 0H18v-.46h1l-.06.46zm2 0H20v-.46h1l-.06.46zm2 0H22v-.46h1l-.06.46zm2 0H24v-.46h1l-.06.46zm2 0H26v-.46h1l-.06.46zm2 0H28v-.46h1l-.06.46zm2 0H30v-.46h1l-.06.46zm2 0H32v-.46h1l-.06.46zm2 0H34v-.46h1l-.06.46zm2 0H36v-.46h1l-.06.46zm2 0H38v-.46h1l-.06.46zm2 0H40v-.46h1l-.06.46zm2 0H42v-.46h1l-.06.46zm2 0H44v-.46h1l-.06.46zm2 0H46v-.46h1l-.06.46zm2 0H48v-.46h1l-.06.46zm2 0H50v-.46h1l-.06.46zm2 0H52v-.46h1l-.06.46zm2 0H54v-.46h1l-.06.46zm2 0H56v-.46h1l-.06.46zm2 0H58v-.46h1l-.06.46zm2 0h-1v-.46h1v.46zm2 0h-1v-.46h1v.46zm2 0h-1v-.46h1v.46zm2 0h-1v-.46h1v.46zm2 0h-1v-.46h1v.46z"/>
    </g>
</svg>
