<svg xmlns="http://www.w3.org/2000/svg" width="76" height="84" viewBox="0 0 76 84">
    <path fill="#000" fill-rule="nonzero" d="M71.89 43.26v-16A4.48 4.48 0 1 0 67.21 20L42.42 5.71a3.67 3.67 0 0 0 .07-.75 4.5 4.5 0 1 0-1.19 3l24.79 14.3A3.67 3.67 0 0 0 66 23a4.48 4.48 0 0 0 3.32 4.32v16a4.47 4.47 0 0 0-2 1.28l-25-14.44a4.47 4.47 0 0 0-7.31-4.22l-14-8.09a4.48 4.48 0 1 0-8.85-1c.008.39.068.777.18 1.15l-7.61 4.39a1.27 1.27 0 0 0-.64 1.1v7a4.48 4.48 0 1 0 4.06 7.81l8.23 4.7v11l10.81 6.24 9.45-5.46L55.8 65.8a4.57 4.57 0 0 0-.2 1.34c0 .371.047.74.14 1.1l-14 8.09a4.48 4.48 0 0 0-7.46 0L9.45 62a4.43 4.43 0 0 0 .39-1.82A4.49 4.49 0 1 0 7.76 64l25.76 14.85a4.5 4.5 0 1 0 9 0L57 70.43a4.43 4.43 0 0 0 3 1.2 4.49 4.49 0 1 0-2.85-7.95L50 59.5l9.59-5.5V43l6.7 3.88a4.91 4.91 0 0 0-.05.67 4.49 4.49 0 1 0 5.65-4.32v.03zM39.58 7a2.57 2.57 0 1 1 1-2.36v.33a2.53 2.53 0 0 1-1 2.03zM7.79 61.05a2.6 2.6 0 0 1-2.15 1.7h-.28a2.58 2.58 0 1 1 2.58-2.57 2.47 2.47 0 0 1-.15.87zm32.42 19.09a2.57 2.57 0 0 1-4.39 0 2.48 2.48 0 0 1-.39-1.35 2.59 2.59 0 0 1 .5-1.52 2.58 2.58 0 0 1 4.65 1.52c.01.476-.12.945-.37 1.35zm17.3-13v-.35a2.6 2.6 0 0 1 1.57-2 2.63 2.63 0 0 1 1-.19 2.58 2.58 0 1 1 0 5.15 2.51 2.51 0 0 1-1.25-.33 2.58 2.58 0 0 1-1.32-2.17v-.11zm-22.1-38.07A2.62 2.62 0 0 1 36.9 27a2.54 2.54 0 0 1 1.1-.23 2.59 2.59 0 0 1 2.57 2.33 2 2 0 0 1 0 .25 2.58 2.58 0 0 1-5.15 0c-.02-.1-.01-.19-.01-.28zM14.1 16.87a2.58 2.58 0 0 1 5.16-.06v.06a2.59 2.59 0 0 1-2.58 2.58 2.49 2.49 0 0 1-1.27-.34 2.58 2.58 0 0 1-1.31-2.18v-.06zM7.9 35.21a2.56 2.56 0 0 1-1.64 2 2.44 2.44 0 0 1-.9.17 2.58 2.58 0 0 1-2.57-2.58 2.55 2.55 0 0 1 1.3-2.23 2.54 2.54 0 0 1 2.54 0 2.56 2.56 0 0 1 1.31 2.23 2 2 0 0 1-.04.41zm40.89 12.5L38 41.48 28.37 47l-1.18.68V35.24l-9.62 5.55-8-4.59a4.49 4.49 0 0 0-3-5.72v-6.3l7-4a4.48 4.48 0 0 0 6.2-.07l13.86 8a4.18 4.18 0 0 0-.19 1.28 4.48 4.48 0 0 0 7.73 3.08l7.57 4.37.05 10.87zM68 23.37v-.33a2.59 2.59 0 0 1 2.58-2.57 2.58 2.58 0 1 1-1.17 4.87A2.6 2.6 0 0 1 68 23.37zm2.77 26.79A2.55 2.55 0 0 1 68.19 48a3 3 0 0 1 0-.42 2.58 2.58 0 0 1 1.19-2.18c.413-.26.891-.4 1.38-.4a2.58 2.58 0 1 1 0 5.15l.01.01z"/>
</svg>
