<?xml version="1.0" encoding="UTF-8"?>
<svg width="71px" height="82px" viewBox="0 0 71 82" version="1.1" xmlns="http://www.w3.org/2000/svg" xmlns:xlink="http://www.w3.org/1999/xlink">
    <!-- Generator: Sketch 53.2 (72643) - https://sketchapp.com -->
    <title>logos/weaviate/primary/color copy 22</title>
    <desc>Created with Sketch.</desc>
    <defs>
        <path d="M17.1791719,11.5586501 C17.5055979,11.3204086 17.9133529,11.2248586 18.3104186,11.2935629 C18.7074843,11.3622672 19.0603989,11.5894359 19.28952,11.9238038 C19.7702488,12.6118876 19.6076692,13.5628682 18.9262564,14.048651 C18.2448435,14.5344337 17.3022499,14.3713367 16.8201491,13.6842311 C16.3380482,12.9971254 16.4987297,12.0458164 17.1791719,11.5586501 Z M12.2617901,7.31672449 C12.6926205,7.57414836 13.0016435,7.99679863 13.1182753,8.48813787 C13.234907,8.97947711 13.1491855,9.4975379 12.8806903,9.92399012 C12.3375623,10.8046358 11.1911071,11.0765379 10.3160768,10.5322336 C9.44104643,9.98792923 9.16671443,8.83223979 9.70239772,7.94696322 C10.238081,7.06168664 11.3822023,6.77995199 12.2617901,7.31672449 Z M24.2982148,16.1247776 C24.173082,17.1895248 24.0513312,18.1928443 23.9972197,19.018706 C23.9226927,20.1260546 23.9373962,21.2376813 24.0411853,22.3426284 L24.5924461,28.1373104 C24.6191728,28.4249756 24.5241984,28.7106441 24.3309524,28.9238433 C24.1377063,29.1370426 23.8641819,29.2579215 23.5778556,29.25666 L9.91132227,29.413642 C9.63566477,29.413829 9.3717977,29.3008275 9.18041857,29.1006311 C8.98903944,28.9004348 8.88662432,28.6302788 8.89673182,28.3523074 L8.9948089,25.2229061 L5.45050626,25.4652044 C4.94420185,25.4995589 4.49060593,25.1511736 4.38856826,24.6495807 L3.44838111,20.0356761 L0.918668925,19.7933778 C0.601710391,19.7630031 0.317263574,19.5842558 0.150436056,19.3106177 C-0.0163914622,19.0369796 -0.0462497468,18.7001894 0.0697949159,18.4010161 L3.25222696,10.1867643 C3.36721387,4.64461848 8.26092181,-9.9475983e-14 14.0102677,-9.9475983e-14 C18.5082853,-9.9475983e-14 22.7797111,2.91440425 24.1866099,6.93450754 C25.133561,9.05376403 24.6905231,12.8076805 24.2982148,16.1247776 Z M14.1996579,12.1114996 C14.2380397,11.994918 14.2307798,11.867938 14.1793661,11.7565839 L13.8783709,10.8931831 C13.9426283,10.8078668 13.9967398,10.7157252 14.0542333,10.6235836 C14.1117267,10.5314421 14.1590743,10.4495384 14.2064218,10.3539842 L15.0891155,10.2891438 C15.2162776,10.28878 15.3380285,10.2371807 15.4273123,10.1458125 C15.5161301,10.0553411 15.5638749,9.93180799 15.5592091,9.80454732 L15.5896468,8.15623672 C15.5875837,7.934244 15.4352802,7.74248992 15.2210123,7.69211614 L15.1871926,7.69211614 L14.3011169,7.6033872 C14.221838,7.41949607 14.1255916,7.24353817 14.0136497,7.0778389 L14.405958,6.27927848 C14.5191184,6.06131392 14.4469148,5.79218277 14.2402415,5.66158859 L12.8502526,4.80160045 C12.6417833,4.68146444 12.3770001,4.74051096 12.2381164,4.9381065 L11.6800916,5.66158859 C11.477796,5.6389078 11.273633,5.6389078 11.0713374,5.66158859 L10.5708061,4.92104324 L10.5708061,4.90056734 C10.5008162,4.81688499 10.4059253,4.75823696 10.3002486,4.73334742 C10.1839961,4.70413773 10.0609136,4.72649358 9.96205179,4.79477514 L8.5382432,5.5626217 C8.42565022,5.61712635 8.34009605,5.71578962 8.30150542,5.8356338 C8.25955007,5.94544982 8.25955007,6.06708292 8.30150542,6.17689894 L8.63970224,7.00617322 C8.57882681,7.08807685 8.52809729,7.17339313 8.47060383,7.26553472 C8.41311037,7.35767631 8.36576282,7.43957994 8.31841527,7.53513418 L7.46615929,7.60679985 C7.33899724,7.60716366 7.21724631,7.65876298 7.12796247,7.75013121 C7.03914471,7.84060254 6.99139996,7.96413568 6.99606571,8.09139635 L6.965628,9.73970695 C6.96533091,9.95912499 7.11318098,10.1505404 7.32411663,10.2038275 L7.35117237,10.2038275 L8.22710212,10.316445 C8.30704025,10.5028389 8.40443188,10.6811056 8.51795139,10.8488186 L8.12564308,11.6473791 C8.01122944,11.8636395 8.08036516,12.132301 8.28459558,12.2650689 L9.67796647,13.135295 C9.88804109,13.256856 10.1553576,13.19609 10.2934847,12.9953763 L10.8244537,12.2787195 C11.0256587,12.3006608 11.228621,12.3006608 11.429826,12.2787195 L11.9303573,13.0192649 L11.9303573,13.0431535 C12.0761297,13.2311235 12.3394225,13.2768798 12.5391115,13.1489456 L13.9629201,12.3810991 C14.074821,12.3273756 14.1602736,12.2300613 14.1996579,12.1114996 Z M21.3863402,13.6062409 C21.4710567,13.4369765 21.417372,13.2305381 21.2612074,13.1250571 L21.2375336,13.1250571 L20.6253974,12.7837919 C20.6254568,12.6257639 20.6107363,12.4680829 20.5814318,12.3128461 L21.098873,11.8657887 C21.2489989,11.7467187 21.2828995,11.5310584 21.1766582,11.3709543 L20.4360072,10.316445 C20.3235846,10.163123 20.1138116,10.1216759 19.9523857,10.2208908 L19.3267216,10.5621559 C19.1888301,10.4813206 19.0425201,10.4160855 18.8904477,10.3676348 L18.758551,9.68510453 L18.758551,9.66462862 C18.7341394,9.58279536 18.6843517,9.51102472 18.6165083,9.45986954 C18.5408888,9.40322393 18.4452865,9.38096169 18.3527148,9.39844181 L17.0878587,9.50764665 C16.990251,9.51200895 16.8986365,9.55638287 16.8342111,9.6305021 C16.7719076,9.70078809 16.7381017,9.79216118 16.739516,9.88645095 L16.739516,10.6304089 C16.6684947,10.6713608 16.6042373,10.7191379 16.5365979,10.766915 C16.4689585,10.8146921 16.4047011,10.8590566 16.3438257,10.913659 L15.6877239,10.6815987 C15.5986718,10.6458813 15.4994546,10.6458813 15.4104025,10.6815987 C15.3194089,10.7183659 15.247303,10.791126 15.2108664,10.8829451 L14.6798974,12.0637225 C14.6124473,12.2249548 14.6643572,12.411827 14.8050302,12.5141925 L14.82194,12.5141925 L15.4205484,12.8554576 C15.4187076,13.0167961 15.4322984,13.1779373 15.461132,13.3366415 L14.9403089,13.7802861 C14.790183,13.8993561 14.7562824,14.1150165 14.8625237,14.2751206 L15.6031747,15.3296299 C15.7168914,15.4837415 15.9288583,15.5238459 16.0901781,15.4217714 L16.6854045,15.0805063 C16.822394,15.1607791 16.9675215,15.2259925 17.1182964,15.2750274 L17.2501932,15.9575577 L17.2501932,15.9780336 C17.2982117,16.159936 17.4754011,16.2751935 17.6594113,16.2442204 L18.9242674,16.1350156 C19.0218751,16.1306533 19.1134896,16.0862794 19.177915,16.0121601 C19.2391491,15.9425761 19.2728573,15.8526821 19.2726101,15.7596239 L19.3199577,15.0429671 C19.390979,15.0020153 19.4620004,14.9508256 19.5296397,14.9030484 C19.5972791,14.8552713 19.6615365,14.8109068 19.7224119,14.7563044 L20.3785137,14.9883647 C20.4675658,15.0240821 20.566783,15.0240821 20.6558351,14.9883647 C20.7468287,14.9515975 20.8189346,14.8788375 20.8553712,14.7870183 L21.3863402,13.6062409 Z" id="path-1"></path>
    </defs>
    <g id="SeMI-Website" stroke="none" stroke-width="1" fill="none" fill-rule="evenodd">
        <g id="Styleguide-–-Solution-Branding" transform="translate(-200.000000, -5765.000000)">
            <g id="icons/PointSolutions/common-knowledge" transform="translate(200.000000, 5765.000000)">
                <g id="Group-5-Copy-5">
                    <g id="Group-3">
                        <polygon id="Path" fill="#0070E6" points="4.98245614 58.0838004 4.98245614 22.6737753 35.5 4.96969697 66.0175439 22.6737753 66.0175439 58.0838004 35.3888598 76.1587424"></polygon>
                        <path d="M35.5,0 L0,20.4991337 L0,61.5001733 L35.1535707,81.8004141 L35.5,82 L71,61.5001733 L71,20.4991337 L35.8457365,0.199585886 L35.5,0 Z M4.9703628,58.1392424 L4.9703628,22.8202273 L35.337792,5.16165152 L65.7046045,22.8202273 L65.7046045,58.1392424 L35.337792,75.7978182 L4.9703628,58.1392424 Z" id="Fill-24" fill="#ABABAB"></path>
                    </g>
                    <g id="Group-32-Copy">
                        <g id="Group-23" transform="translate(3.736842, 20.701894)" fill="#04152A">
                            <polygon id="Fill-9" points="0.808881196 2.3337697 0.279084057 2.01570909 0.436974706 1.74920909 0.966771845 2.06664848"></polygon>
                            <polygon id="Fill-13" points="31.6520177 20.8609864 31.0432752 20.4957136 31.2011659 20.2285924 31.6520177 20.4994409 32.1028695 20.2285924 32.2607601 20.4957136"></polygon>
                            <polygon id="Fill-17" points="62.4951542 2.3337697 62.3372635 2.06664848 62.8670607 1.74920909 63.0243345 2.01570909"></polygon>
                            <polygon id="Fill-19" points="31.4979509 56.0780606 31.8063311 56.0780606 31.8063311 55.4568485 31.4979509 55.4568485"></polygon>
                            <polygon id="Fill-22" points="31.4979509 22.8786212 31.8063311 22.8786212 31.8063311 22.2574091 31.4979509 22.2574091"></polygon>
                        </g>
                        <path d="M35.5,0 L0,20.4991337 L0,61.5001733 L35.1535707,81.8004141 L35.5,82 L71,61.5001733 L71,20.4991337 L35.8457365,0.199585886 L35.5,0 Z M4.9703628,58.1392424 L4.9703628,22.8202273 L35.337792,5.16165152 L65.7046045,22.8202273 L65.7046045,58.1392424 L35.337792,75.7978182 L4.9703628,58.1392424 Z" id="Fill-24" fill="#EAE7E7"></path>
                        <path d="M35.3313515,40.8479847 L35.5061321,41.1520153 L33.8850904,42.0783162 L33.7103098,41.7742855 L35.3313515,40.8479847 Z M32.089268,42.7005863 L32.2640486,43.004617 L30.6430068,43.9309178 L30.4682262,43.6268871 L32.089268,42.7005863 Z M28.8471845,44.5531879 L29.0219651,44.8572186 L27.4009233,45.7835194 L27.2261427,45.4794887 L28.8471845,44.5531879 Z M25.6051009,46.4057895 L25.7798815,46.7098202 L24.1588398,47.636121 L23.9840592,47.3320904 L25.6051009,46.4057895 Z M22.3630174,48.2583912 L22.537798,48.5624219 L20.9167563,49.4887227 L20.7419756,49.184692 L22.3630174,48.2583912 Z M19.1209339,50.1109928 L19.2957145,50.4150235 L17.6746727,51.3413243 L17.4998921,51.0372936 L19.1209339,50.1109928 Z M15.8788504,51.9635944 L16.053631,52.2676251 L14.4325892,53.1939259 L14.2578086,52.8898952 L15.8788504,51.9635944 Z M12.6367668,53.8161961 L12.8115474,54.1202267 L11.1905057,55.0465276 L11.0157251,54.7424969 L12.6367668,53.8161961 Z M9.3946833,55.6687977 L9.5694639,55.9728284 L7.94842214,56.8991292 L7.77364153,56.5950985 L9.3946833,55.6687977 Z M6.15259977,57.5213993 L6.32738037,57.82543 L5.0577531,58.5509244 L4.8829725,58.2468937 L6.15259977,57.5213993 Z" id="Path-2" fill="#EAE7E7" fill-rule="nonzero"></path>
                        <path d="M65.7904355,57.9863466 L65.6187735,58.2921383 L63.9883421,57.3823655 L64.1600041,57.0765738 L65.7904355,57.9863466 Z M62.5295727,56.166801 L62.3579107,56.4725928 L60.7274793,55.56282 L60.8991412,55.2570283 L62.5295727,56.166801 Z M59.2687098,54.3472555 L59.0970478,54.6530472 L57.4666164,53.7432745 L57.6382784,53.4374827 L59.2687098,54.3472555 Z M56.007847,52.52771 L55.836185,52.8335017 L54.2057536,51.9237289 L54.3774156,51.6179372 L56.007847,52.52771 Z M52.7469842,50.7081644 L52.5753222,51.0139562 L50.9448908,50.1041834 L51.1165527,49.7983917 L52.7469842,50.7081644 Z M49.4861213,48.8886189 L49.3144593,49.1944107 L47.6840279,48.2846379 L47.8556899,47.9788461 L49.4861213,48.8886189 Z M46.2252585,47.0690734 L46.0535965,47.3748651 L44.4231651,46.4650924 L44.5948271,46.1593006 L46.2252585,47.0690734 Z M42.9643957,45.2495278 L42.7927337,45.5553196 L41.1623023,44.6455468 L41.3339643,44.3397551 L42.9643957,45.2495278 Z M39.7035328,43.4299823 L39.5318709,43.7357741 L37.9014394,42.8260013 L38.0731014,42.5202096 L39.7035328,43.4299823 Z M36.44267,41.6104368 L36.271008,41.9162285 L35.9117713,41.7157762 L36.0834332,41.4099844 L36.44267,41.6104368 Z" id="Path-4" fill="#EAE7E7" fill-rule="nonzero"></path>
                        <path d="M35.1617429,5.16245326 L35.6617377,5.16084977 L35.6738997,7.02362837 L35.173905,7.02523186 L35.1617429,5.16245326 Z M35.186067,8.88801046 L35.6860618,8.88640697 L35.6982238,10.7491856 L35.198229,10.7507891 L35.186067,8.88801046 Z M35.2103911,12.6135677 L35.7103859,12.6119642 L35.7225479,14.4747428 L35.2225531,14.4763463 L35.2103911,12.6135677 Z M35.2347152,16.3391248 L35.7347099,16.3375214 L35.746872,18.2003 L35.2468772,18.2019034 L35.2347152,16.3391248 Z M35.2590393,20.064682 L35.759034,20.0630786 L35.7711961,21.9258572 L35.2712013,21.9274606 L35.2590393,20.064682 Z M35.2833633,23.7902392 L35.7833581,23.7886357 L35.7955202,25.6514143 L35.2955254,25.6530178 L35.2833633,23.7902392 Z M35.3076874,27.5157964 L35.8076822,27.5141929 L35.8198442,29.3769715 L35.3198495,29.378575 L35.3076874,27.5157964 Z M35.3320115,31.2413536 L35.8320063,31.2397501 L35.8441683,33.1025287 L35.3441736,33.1041322 L35.3320115,31.2413536 Z M35.3563356,34.9669108 L35.8563304,34.9653073 L35.8684924,36.8280859 L35.3684977,36.8296894 L35.3563356,34.9669108 Z M35.3806597,38.692468 L35.8806545,38.6908645 L35.8928165,40.5536431 L35.3928217,40.5552466 L35.3806597,38.692468 Z" id="Path-3" fill="#EAE7E7" fill-rule="nonzero"></path>
                        <g id="Group-31" transform="translate(19.929825, 25.469697)"></g>
                    </g>
                    <g id="icons/industries/common-knowledge" transform="translate(21.089109, 25.931624)">
                        <g id="background/black" transform="translate(2.475201, 0.639427)">
                            <mask id="mask-2" fill="white">
                                <use xlink:href="#path-1"></use>
                            </mask>
                            <g id="Mask" fill-rule="nonzero"></g>
                            <g id="background/white" mask="url(#mask-2)" fill="#FFFFFF">
                                <g transform="translate(-2.357335, 0.000000)" id="Combined-Shape">
                                    <polygon points="0 0 28.0602531 0 28.0602531 29.3459407 0 29.3459407"></polygon>
                                </g>
                            </g>
                        </g>
                    </g>
                </g>
            </g>
        </g>
    </g>
</svg>