<svg xmlns="http://www.w3.org/2000/svg" width="120" height="51" viewBox="0 0 120 51">
    <g fill="none" fill-rule="nonzero">
        <path fill="#192E7B" d="M34.098 16.876c0-7.779-12.392-16.33-19.969-16.33-7.854 0-9.875 8.143-9.875 14.682 0 3.041.55 5.644 1.621 7.782C2.288 24.952 0 27.775 0 30.71c0 5.116 8.765 14.123 23.027 14.123.5 0 .971-.017 1.418-.048 2.75 4.448 7.018 5.971 8.886 5.971 5.108 0 6.305-6.584 7.535-10.305 1.042-3.146 2.2-6.302 3.5-9.351.742-1.745 1.296-3.527 1.296-5.442 0-4.46-3.763-8.782-11.564-8.782zM110.233 19.223c-3.484 0-6.397.635-9.046 1.686v17.547h5.89v-14.09c.846-.377 1.913-.587 3.011-.587 3.187 0 3.797 1.938 3.797 5.528l.002 9.148h5.89V28.437c0-5.608-1.87-9.214-9.544-9.214zm-56.515-6.536h5.871v25.771h-5.87v-25.77zm12.618 25.77h6.961l-7.294-10.35 6.69-8.204h-6.685l-6.406 8.413 6.734 10.141zm19.473-14.74c2.572 0 4.273 1.6 4.273 5.298 0 3.58-1.345 5.536-4.514 5.536-.91 0-2.059-.186-2.643-.412v-9.864c.83-.382 1.841-.559 2.884-.559zm-8.758-2.807v24.763h5.874v-7.071c1.254.228 2.236.283 3.339.283 6.475 0 9.878-3.708 9.878-9.913 0-6.255-3.347-9.748-10.288-9.748-3.108-.001-6.357.679-8.803 1.686z"/>
        <path fill="#FFF" d="M23.37 21.465v-2.911c-.698-.2-1.53-.299-2.368-.299-3.397 0-5.07 2.296-5.07 4.618 0 2.21.814 4.313 3.879 9.062a35.55 35.55 0 0 1 3.699-.302c-2.67-4.953-3.32-6.691-3.32-7.96 0-1.475.848-2.226 2.575-2.226.233 0 .421.004.605.018zm-9.26 4.295c-.25-.664-.434-1.733-.505-2.508-2.705-.09-4.74 1.452-4.74 3.643 0 1.759.898 3.319 4.63 6.483a35.052 35.052 0 0 1 3.295-.909c-3.652-3.403-4.217-4.308-4.217-5.325 0-.749.52-1.236 1.537-1.384zm11.758-4.295v-2.911c.698-.2 1.531-.299 2.368-.299 3.398 0 5.07 2.296 5.07 4.618 0 2.21-.814 4.313-3.879 9.062a35.553 35.553 0 0 0-3.698-.302c2.67-4.953 3.321-6.691 3.321-7.96 0-1.475-.85-2.226-2.577-2.226a7.624 7.624 0 0 0-.605.018zm9.26 4.295c.25-.664.434-1.733.505-2.508 2.705-.09 4.74 1.452 4.74 3.643 0 1.759-.898 3.319-4.63 6.483a34.975 34.975 0 0 0-3.296-.909c3.653-3.403 4.218-4.308 4.218-5.325 0-.749-.52-1.236-1.537-1.384zM24.62 37.826c2.736 0 5.523.359 8.425 1.222l.99-3.255a32.86 32.86 0 0 0-9.414-1.368c-2.987 0-6.158.397-9.415 1.368l.99 3.255a29.2 29.2 0 0 1 8.424-1.222zm0-21.171l-3.014-3.015 3.014-3.015 3.015 3.017-3.016 3.013z"/>
    </g>
</svg>
