<svg xmlns="http://www.w3.org/2000/svg" viewBox="0 0 360 360"><defs><style>.cls-1{fill:#00152b;}</style></defs><g id="Layer_2" data-name="Layer 2"><polygon class="cls-1" points="146.51 225.72 143.72 225.72 140.45 237.08 135.99 225.72 134.95 225.72 130.43 237.08 127.22 225.72 124.4 225.72 129.56 243.96 130.59 243.96 135.47 231.78 140.23 243.96 141.28 243.96 146.51 225.72"/><path class="cls-1" d="M160.24,240.18l.22-.44-2.22-1.17-.24.4a4.88,4.88,0,0,1-4.45,2.81,4.25,4.25,0,0,1-4.26-4.07h11.44v-.5c0-4.32-3-7.34-7.11-7.34a7.09,7.09,0,0,0-7.05,7.25,7,7,0,0,0,7.15,7.15A6.9,6.9,0,0,0,160.24,240.18Zm-10.62-4.91a4,4,0,0,1,4-2.81,4.09,4.09,0,0,1,4.1,2.81Z"/><path class="cls-1" d="M173.86,231.69a6.45,6.45,0,0,0-4.59-1.82,7.2,7.2,0,0,0,0,14.4,6.74,6.74,0,0,0,4.63-1.76V244h2.61V230.21h-2.61Zm-4.47,10.09a4.6,4.6,0,0,1-4.51-4.69,4.55,4.55,0,1,1,4.51,4.69Z"/><polygon class="cls-1" points="184.49 238.78 180.54 230.21 177.68 230.21 184.02 243.96 184.95 243.96 191.24 230.21 188.39 230.21 184.49 238.78"/><path class="cls-1" d="M193.54,225a1.86,1.86,0,0,0,0,3.71,1.88,1.88,0,0,0,1.86-1.86A1.85,1.85,0,0,0,193.54,225Z"/><rect class="cls-1" x="192.24" y="230.21" width="2.63" height="13.75"/><path class="cls-1" d="M208.35,231.69a6.47,6.47,0,0,0-4.59-1.82,7.2,7.2,0,0,0,0,14.4,6.75,6.75,0,0,0,4.64-1.76V244H211V230.21h-2.61Zm-4.47,10.09a4.61,4.61,0,0,1-4.52-4.69,4.56,4.56,0,1,1,4.52,4.69Z"/><polygon class="cls-1" points="215.12 243.96 217.75 243.96 217.75 232.65 220.36 232.65 220.36 230.21 217.75 230.21 217.75 225.46 215.12 225.46 215.12 230.21 212.86 230.21 212.86 232.65 215.12 232.65 215.12 243.96"/><path class="cls-1" d="M228.34,244.27a6.89,6.89,0,0,0,6.51-4.09l.23-.44-2.22-1.17-.25.4c-.89,1.46-2,2.81-4.44,2.81a4.26,4.26,0,0,1-4.27-4.07h11.45v-.5c-.05-4.32-3-7.34-7.1-7.34a7.09,7.09,0,0,0-7.05,7.25A7,7,0,0,0,228.34,244.27Zm-4.11-9a4,4,0,0,1,4-2.81,4.09,4.09,0,0,1,4.1,2.81Z"/><polygon class="cls-1" points="82.24 272.25 92.05 272.25 92.05 270.57 83.96 270.57 83.96 263.79 92.05 263.79 92.05 262.11 83.96 262.11 83.96 256.7 92.12 256.7 92.12 255.02 82.24 255.02 82.24 272.25"/><path class="cls-1" d="M103.79,259.9a4.57,4.57,0,0,0-2.54-.72,5.25,5.25,0,0,0-2.6.65,6.65,6.65,0,0,0-2.18,2V259.5H94.83v12.75h1.64v-4.67a17.52,17.52,0,0,1,.23-3.47,4.61,4.61,0,0,1,1.56-2.44,4.05,4.05,0,0,1,2.66-1,3.28,3.28,0,0,1,2.11.64,3.21,3.21,0,0,1,1.1,1.9,15.15,15.15,0,0,1,.18,2.94v6.08H106v-6.56a10.37,10.37,0,0,0-.53-3.83A4.34,4.34,0,0,0,103.79,259.9Z"/><polygon class="cls-1" points="112.53 254.77 110.89 254.77 110.89 259.5 108.66 259.5 108.66 260.92 110.89 260.92 110.89 272.25 112.53 272.25 112.53 260.92 115.14 260.92 115.14 259.5 112.53 259.5 112.53 254.77"/><path class="cls-1" d="M128.73,261.65a6.3,6.3,0,0,0-5.21-2.47,6.08,6.08,0,0,0-5,2.41,6.79,6.79,0,0,0-1.49,4.32,6.93,6.93,0,0,0,1.75,4.63,6.11,6.11,0,0,0,4.88,2,7.18,7.18,0,0,0,2.53-.42,6.42,6.42,0,0,0,2-1.25,7.44,7.44,0,0,0,1.57-2.16l-1.38-.73a7.43,7.43,0,0,1-1.39,1.81,4.93,4.93,0,0,1-1.57.9,5.4,5.4,0,0,1-1.9.34,4.53,4.53,0,0,1-3.39-1.42,5.21,5.21,0,0,1-1.42-3.64h11.48A6.94,6.94,0,0,0,128.73,261.65Zm-9.9,2.94a5.42,5.42,0,0,1,1.49-2.64,4.68,4.68,0,0,1,3.22-1.2,5.13,5.13,0,0,1,2.18.48,4.63,4.63,0,0,1,1.66,1.26,5.68,5.68,0,0,1,1,2.1Z"/><path class="cls-1" d="M135.83,259.72a5.84,5.84,0,0,0-1.58,1.65V259.5h-1.68v12.75h1.68v-4.31a20.26,20.26,0,0,1,.3-4.4,4.37,4.37,0,0,1,1.16-2.1,2.38,2.38,0,0,1,1.59-.67,2.21,2.21,0,0,1,.86.22l.86-1.38a3,3,0,0,0-1.45-.43A3.15,3.15,0,0,0,135.83,259.72Z"/><path class="cls-1" d="M147.14,259.18a6.05,6.05,0,0,0-2.83.66,6.69,6.69,0,0,0-2.23,2V259.5h-1.64v17.42h1.64v-6.86a6.9,6.9,0,0,0,2.3,1.89,6.46,6.46,0,0,0,7.42-1.33,6.57,6.57,0,0,0,1.91-4.78,6.47,6.47,0,0,0-1.93-4.71A6.29,6.29,0,0,0,147.14,259.18Zm4.22,9.29a5.1,5.1,0,0,1-1.85,1.92,4.91,4.91,0,0,1-2.49.68,5.18,5.18,0,0,1-2.55-.68,4.64,4.64,0,0,1-1.86-1.84,5.26,5.26,0,0,1-.65-2.61,5.11,5.11,0,0,1,1.46-3.7,4.81,4.81,0,0,1,3.58-1.48,4.93,4.93,0,0,1,4.37,2.56,5.18,5.18,0,0,1,0,5.15Z"/><path class="cls-1" d="M159.42,259.72a5.84,5.84,0,0,0-1.58,1.65V259.5h-1.68v12.75h1.68v-4.31a20.26,20.26,0,0,1,.3-4.4,4.37,4.37,0,0,1,1.16-2.1,2.38,2.38,0,0,1,1.59-.67,2.21,2.21,0,0,1,.86.22l.86-1.38a3,3,0,0,0-1.45-.43A3.15,3.15,0,0,0,159.42,259.72Z"/><rect class="cls-1" x="163.76" y="259.5" width="1.64" height="12.75"/><path class="cls-1" d="M164.57,254.25a1.37,1.37,0,0,0-1.34,1.36,1.37,1.37,0,0,0,1.34,1.35,1.29,1.29,0,0,0,1-.4,1.31,1.31,0,0,0,.4-.95,1.35,1.35,0,0,0-.4-1A1.33,1.33,0,0,0,164.57,254.25Z"/><path class="cls-1" d="M172.09,265a6.33,6.33,0,0,1-2-1.35,1.83,1.83,0,0,1-.47-1.18,1.62,1.62,0,0,1,.57-1.23,2,2,0,0,1,1.37-.53,3.78,3.78,0,0,1,2.57,1.28l1.06-1.09a5.18,5.18,0,0,0-3.55-1.72,3.44,3.44,0,0,0-2.5,1,3.21,3.21,0,0,0-1,2.41,3.28,3.28,0,0,0,.62,2,6.53,6.53,0,0,0,2.35,1.76,7.31,7.31,0,0,1,2.06,1.36,1.88,1.88,0,0,1,.46,1.25,2,2,0,0,1-.69,1.49,2.4,2.4,0,0,1-1.68.63,3.6,3.6,0,0,1-2.67-1.41l-1,1.17a4.59,4.59,0,0,0,1.66,1.32,4.83,4.83,0,0,0,2.11.48,3.77,3.77,0,0,0,2.76-1.09,3.6,3.6,0,0,0,1.1-2.66,3.32,3.32,0,0,0-.65-2A7.11,7.11,0,0,0,172.09,265Z"/><path class="cls-1" d="M189.26,261.65a6.3,6.3,0,0,0-5.21-2.47,6.1,6.1,0,0,0-5.06,2.41,6.85,6.85,0,0,0-1.49,4.32,6.94,6.94,0,0,0,1.76,4.63,6.11,6.11,0,0,0,4.88,2,7.08,7.08,0,0,0,2.52-.42,6.35,6.35,0,0,0,2-1.25,7.63,7.63,0,0,0,1.57-2.16l-1.38-.73a7.42,7.42,0,0,1-1.4,1.81,4.77,4.77,0,0,1-1.56.9,5.4,5.4,0,0,1-1.9.34,4.53,4.53,0,0,1-3.39-1.42,5.21,5.21,0,0,1-1.42-3.64h11.47A6.88,6.88,0,0,0,189.26,261.65Zm-9.9,2.94a5.42,5.42,0,0,1,1.49-2.64,4.66,4.66,0,0,1,3.22-1.2,5.09,5.09,0,0,1,2.17.48,4.54,4.54,0,0,1,1.66,1.26,5.53,5.53,0,0,1,1,2.1Z"/><path class="cls-1" d="M205,262.52c-1.26-.93-2-1.51-2.22-1.73a4,4,0,0,1-.86-1.14,2.64,2.64,0,0,1-.23-1.09,2.07,2.07,0,0,1,.66-1.56,2.37,2.37,0,0,1,1.7-.64,2.92,2.92,0,0,1,1.5.41,7,7,0,0,1,1.66,1.7l1.4-1.06a7.85,7.85,0,0,0-2.24-2.22,4.48,4.48,0,0,0-2.28-.61,4.32,4.32,0,0,0-2.13.54,3.82,3.82,0,0,0-1.52,1.46,4,4,0,0,0-.54,2.05,4.3,4.3,0,0,0,.92,2.63,15.15,15.15,0,0,0,2.68,2.36,14.33,14.33,0,0,1,3,2.76,2.93,2.93,0,0,1,.58,1.7,2.75,2.75,0,0,1-.4,1.44,2.78,2.78,0,0,1-1.16,1.09,3.39,3.39,0,0,1-1.63.4q-2,0-3.57-2.85l-1.46.88a7.56,7.56,0,0,0,2.35,2.81,5.07,5.07,0,0,0,2.85.84,4.78,4.78,0,0,0,3.46-1.38,4.41,4.41,0,0,0,1.42-3.26,4.69,4.69,0,0,0-.83-2.59A12.44,12.44,0,0,0,205,262.52Z"/><path class="cls-1" d="M223.45,261.65a6.28,6.28,0,0,0-5.21-2.47,6.08,6.08,0,0,0-5.05,2.41,6.85,6.85,0,0,0-1.49,4.32,6.94,6.94,0,0,0,1.76,4.63,6.1,6.1,0,0,0,4.88,2,7.08,7.08,0,0,0,2.52-.42,6.58,6.58,0,0,0,2-1.25,7.82,7.82,0,0,0,1.57-2.16l-1.39-.73a7.43,7.43,0,0,1-1.39,1.81,4.72,4.72,0,0,1-1.57.9,5.31,5.31,0,0,1-1.89.34,4.5,4.5,0,0,1-3.39-1.42,5.17,5.17,0,0,1-1.42-3.64h11.47A6.94,6.94,0,0,0,223.45,261.65Zm-9.9,2.94A5.5,5.5,0,0,1,215,262a4.7,4.7,0,0,1,3.23-1.2,5.09,5.09,0,0,1,2.17.48,4.54,4.54,0,0,1,1.66,1.26,5.38,5.38,0,0,1,1,2.1Z"/><path class="cls-1" d="M239,261.85a6.51,6.51,0,0,0-2.23-2,6.07,6.07,0,0,0-2.84-.66,6.32,6.32,0,0,0-4.65,1.95,6.48,6.48,0,0,0-1.94,4.71,6.58,6.58,0,0,0,1.92,4.78,6.22,6.22,0,0,0,4.62,2,6.3,6.3,0,0,0,2.81-.63,6.94,6.94,0,0,0,2.31-1.89v2.19h1.62V259.5H239Zm-.54,6.7a4.64,4.64,0,0,1-1.86,1.84,5.13,5.13,0,0,1-2.55.68,4.92,4.92,0,0,1-2.5-.68,5.1,5.1,0,0,1-1.85-1.92,5.19,5.19,0,0,1-.69-2.57,5.13,5.13,0,0,1,.68-2.58,5,5,0,0,1,4.37-2.56,4.83,4.83,0,0,1,3.59,1.48,5.11,5.11,0,0,1,1.46,3.7A5.26,5.26,0,0,1,238.46,268.55Z"/><path class="cls-1" d="M247,259.72a5.71,5.71,0,0,0-1.58,1.65V259.5h-1.68v12.75h1.68v-4.31a20.26,20.26,0,0,1,.3-4.4,4.29,4.29,0,0,1,1.16-2.1,2.38,2.38,0,0,1,1.58-.67,2.22,2.22,0,0,1,.87.22l.86-1.38a3,3,0,0,0-1.46-.43A3.12,3.12,0,0,0,247,259.72Z"/><path class="cls-1" d="M258,260.72a5.47,5.47,0,0,1,4.61,2.24l1.3-.81a5.64,5.64,0,0,0-1.4-1.58,6.94,6.94,0,0,0-2-1,8,8,0,0,0-2.44-.38,7.38,7.38,0,0,0-3.64.89,6.7,6.7,0,0,0-3.5,5.92,6.25,6.25,0,0,0,2,4.67,6.92,6.92,0,0,0,5,1.92,7.8,7.8,0,0,0,3.51-.76,6.07,6.07,0,0,0,2.46-2.13l-1.3-.86a5.59,5.59,0,0,1-4.59,2.24,5.66,5.66,0,0,1-2.77-.68,5,5,0,0,1-1.94-1.91,5.08,5.08,0,0,1-.71-2.62,4.87,4.87,0,0,1,1.54-3.64A5.29,5.29,0,0,1,258,260.72Z"/><path class="cls-1" d="M277.65,261.85a4.36,4.36,0,0,0-1.63-2,4.57,4.57,0,0,0-2.54-.72,5.27,5.27,0,0,0-2.59.65,6.78,6.78,0,0,0-2.19,2v-7.21h-1.64v17.67h1.64v-4.67a17.45,17.45,0,0,1,.23-3.47,4.61,4.61,0,0,1,1.56-2.44,4.05,4.05,0,0,1,2.66-1,3.28,3.28,0,0,1,2.11.64,3.32,3.32,0,0,1,1.1,1.9,15.15,15.15,0,0,1,.18,2.94v6.08h1.64v-6.56A10.4,10.4,0,0,0,277.65,261.85Z"/><path class="cls-1" d="M215,118.25l-18-10.39V90.2l-17-9.81L163,90.2v20L180,120l15-8.65,18,10.38Zm-35-2.89-13-7.5V92.51L180,85l13,7.51v15.35Z"/><polygon class="cls-1" points="130.64 119.98 126.64 119.98 126.64 108.88 136.5 103.18 138.5 106.65 130.64 111.18 130.64 119.98"/><polygon class="cls-1" points="233.34 119.98 229.34 119.98 229.34 111.19 221.47 106.65 223.47 103.18 233.34 108.88 233.34 119.98"/><polygon class="cls-1" points="223.47 176.15 221.47 172.69 229.34 168.15 229.34 159.35 233.34 159.35 233.34 170.46 223.47 176.15"/><polygon class="cls-1" points="136.5 176.15 126.64 170.46 126.64 159.35 130.64 159.35 130.64 168.15 138.5 172.69 136.5 176.15"/><polygon class="cls-1" points="179.99 201.27 170.44 195.76 172.44 192.3 179.99 196.65 187.53 192.3 189.53 195.76 179.99 201.27"/><polygon class="cls-1" points="146 139.2 146 158.83 163 168.64 180 158.83 197 168.64 214 158.83 214 139.2 197 129.38 197 149.01 180 139.2 163 149.01 163 129.38 146 139.2"/><rect class="cls-1" x="216.22" y="100.12" width="1" height="4.25" transform="translate(19.81 238.8) rotate(-60)"/><rect class="cls-1" x="208.86" y="95.86" width="1" height="4.25" transform="translate(19.81 230.29) rotate(-60)"/><rect class="cls-1" x="201.49" y="91.61" width="1" height="4.25" transform="translate(19.81 221.79) rotate(-60)"/><rect class="cls-1" x="141.15" y="101.74" width="4.25" height="1" transform="translate(-31.93 85.41) rotate(-30.02)"/><rect class="cls-1" x="148.52" y="97.49" width="4.25" height="1" transform="translate(-28.82 88.52) rotate(-30.02)"/><rect class="cls-1" x="155.88" y="93.24" width="4.25" height="1" transform="translate(-25.7 91.64) rotate(-30.02)"/><rect class="cls-1" x="128.15" y="149.96" width="1" height="4.25"/><rect class="cls-1" x="128.15" y="141.46" width="1" height="4.25"/><rect class="cls-1" x="128.15" y="132.95" width="1" height="4.25"/><rect class="cls-1" x="128.15" y="124.45" width="1" height="4.25"/><rect class="cls-1" x="230.85" y="149.96" width="1" height="4.25"/><rect class="cls-1" x="230.85" y="141.46" width="1" height="4.25"/><rect class="cls-1" x="230.85" y="132.95" width="1" height="4.25"/><rect class="cls-1" x="230.85" y="124.45" width="1" height="4.25"/><rect class="cls-1" x="164.88" y="189.05" width="1" height="4.25" transform="translate(-82.88 238.8) rotate(-60)"/><rect class="cls-1" x="157.51" y="184.8" width="1" height="4.25" transform="translate(-82.88 230.29) rotate(-60)"/><rect class="cls-1" x="150.15" y="180.54" width="1" height="4.25" transform="translate(-82.88 221.79) rotate(-60)"/><rect class="cls-1" x="142.78" y="176.29" width="1" height="4.25" transform="translate(-82.88 213.28) rotate(-60)"/><rect class="cls-1" x="192.5" y="190.68" width="4.25" height="1" transform="translate(-69.54 123.03) rotate(-30.02)"/><rect class="cls-1" x="199.86" y="186.42" width="4.25" height="1" transform="translate(-66.42 126.14) rotate(-30.02)"/><rect class="cls-1" x="207.23" y="182.17" width="4.25" height="1" transform="translate(-63.31 129.26) rotate(-30.02)"/><rect class="cls-1" x="214.6" y="177.92" width="4.25" height="1" transform="translate(-60.19 132.37) rotate(-30.02)"/></g></svg>