<svg xmlns="http://www.w3.org/2000/svg" width="142" height="163" viewBox="0 0 142 163">
    <g fill="#FFF" fill-rule="nonzero">
        <path d="M71.284 82.101a.752.752 0 0 1-.365 0l-.69-.384L71 80.4l.284.162 2.029-1.174.77 1.316-2.434 1.397a.833.833 0 0 1-.365 0zm-4.057-2.288l-3.104-1.781.771-1.316 3.104 1.781-.771 1.316zm10.143-1.012l-.771-1.316 3.104-1.782.77 1.316-3.103 1.782zM61.14 76.25l-3.104-1.802.771-1.316 3.104 1.802-.77 1.316zm22.497-1.012l-.77-1.317 3.103-1.801.77 1.316-3.103 1.802zm-28.867-2.572l-3.164-1.802.77-1.316 3.104 1.802-.71 1.316zm34.912-1.012l-.77-1.316 3.103-1.782.77 1.316-3.103 1.782zm-41.18-2.572L45.4 67.301l.751-1.316 3.104 1.781-.75 1.316zM95.83 68.07l-.771-1.255 3.104-1.782.77 1.316-3.103 1.721zM42.296 65.5l-3.104-1.782.75-1.316 3.104 1.782-.75 1.316zm59.741-.992l-.77-1.316 3.103-1.802.77 1.316-3.103 1.802zm-65.949-2.572l-3.103-1.802.75-1.316 3.104 1.802-.75 1.316zm72.157-1.012l-.73-1.316 3.103-1.782.75 1.316-3.123 1.782zM29.88 58.352l-3.104-1.782.75-1.316 3.104 1.782-.75 1.316zm84.571-1.013l-.75-1.316 3.103-1.782.75 1.317-3.103 1.781zm-90.779-2.571l-3.103-1.782.75-1.316 3.023 1.782-.67 1.316zm96.986-.992l-.75-1.336 3.104-1.823.75 1.316-3.104 1.843zM17.466 51.204l-3.104-1.802.75-1.316 3.105 1.802-.751 1.316zm109.4-1.012l-.75-1.316 3.104-1.802.75 1.316-3.103 1.802zM11.239 47.621l-3.124-1.782.791-1.296 3.104 1.802-.77 1.276zm121.836-1.053l-.75-1.316 3.103-1.782.751 1.316-3.104 1.782zM5.051 44.037L2.03 42.255l.75-1.316 3.104 1.782-.832 1.316zm134.23-1.012l-.75-1.316 1.36-.77.75 1.316-1.36.77z"/>
        <path d="M72.055 160.821h-1.522v-3.563h1.522v3.563zm0-7.147h-1.522v-3.584h1.522v3.584zm0-7.167h-1.522v-3.564h1.522v3.564zm0-7.147h-1.522v-3.584h1.522v3.584zm0-7.148h-1.522v-3.583h1.522v3.583zm0-7.167h-1.522v-3.564h1.522v3.564zm0-7.147h-1.522v-3.584h1.522v3.584zm0-7.168h-1.522v-3.563h1.522v3.563zm0-7.147h-1.522V100h1.522v3.583zm0-7.147h-1.522v-3.584h1.522v3.584zm0-7.167h-1.522v-3.564h1.522v3.564zm0-7.148h-1.522v-.79h1.522v.79zM70.533.526l.264-.141z"/>
        <path d="M141.026 40.271L72.156.587a1.624 1.624 0 0 0-.324-.162.406.406 0 0 0-.223 0h-.893l-.264.142L1.481 40.25c-.47.27-.757.774-.75 1.316v79.53c-.02.127-.02.257 0 .384.029.128.077.25.141.365.058.118.141.222.244.304.046.064.109.113.182.141.033.05.084.087.142.102l68.972 39.744c.234.135.5.205.77.203.265.004.525-.066.751-.203l68.972-39.744c.12-.063.23-.145.324-.243a.891.891 0 0 0 .244-.304c.064-.114.112-.237.142-.365.02-.127.02-.257 0-.384v-79.51a1.517 1.517 0 0 0-.589-1.316zM3.854 42.52L69.783 4.475V80.46L3.854 118.444V42.52zm67.45 116.54L5.376 121.078l65.928-38.065 65.929 38.065-65.929 37.983zm67.45-40.615L72.826 80.481V4.475l65.928 38.044v75.925z"/>
        <path d="M106.845 101.235c.005.366-.189.707-.507.89l-34.486 19.903c-.158.079-.331.12-.507.122a1.036 1.036 0 0 1-.507-.122l-34.486-19.903a1.073 1.073 0 0 1-.527-.89V61.429c.01-.362.21-.693.527-.87l34.486-19.903c.314-.181.7-.181 1.014 0l34.486 19.903a.972.972 0 0 1 .507.87c.005.367-.189.708-.507.891l-17.263 9.941c-.314.181-.7.181-1.015 0l-16.776-9.658-16.229 9.355v18.748l16.229 9.374 16.776-9.678c.314-.18.7-.18 1.015 0l17.263 9.962a.972.972 0 0 1 .507.87z"/>
    </g>
</svg>
