<svg xmlns="http://www.w3.org/2000/svg" width="32" height="26" viewBox="0 0 32 26">
    <g fill="none" fill-rule="evenodd">
        <path d="M1.76 10.111H0V4.355c0-.307.168-.59.44-.743l15.122-8.497a.9.9 0 0 1 .88 0L31.56 3.62c.272.154.44.437.44.744v5.659h-1.76V4.849L16.001-3.17 1.76 4.833v5.28zM16.446 31.444a.878.878 0 0 1-.44-.12L.89 22.346l.88-1.568 14.677 8.715 14.674-8.715.88 1.568-15.114 8.978a.895.895 0 0 1-.44.12z"/>
        <path fill="#364A68" fill-rule="nonzero" d="M26.78 25.222l-.847-1.525 4.374-2.631V4.584l-4.53-2.725.847-1.526 4.953 2.978a.89.89 0 0 1 .423.764v17.5a.89.89 0 0 1-.423.764l-4.797 2.883zM5.244 25.222l-4.81-2.837A.891.891 0 0 1 0 21.616V4.005c0-.318.165-.61.434-.77L5.354.334l.868 1.536-4.486 2.647v16.588l4.376 2.58-.868 1.538zM6.222 13.001v5.778l4.89 2.888L16 18.779l4.889 2.888 4.889-2.888v-5.778l-4.89-2.89v5.778L16 13l-4.889 2.888V10.11z"/>
    </g>
</svg>
