<svg width="360" height="360" xmlns="http://www.w3.org/2000/svg">
 <defs>
  <style>.cls-1{fill:#4ead9f;}.cls-2{fill:#00152b;}</style>
 </defs>
 <g>
  <title>background</title>
  <rect fill="none" id="canvas_background" height="602" width="802" y="-1" x="-1"/>
 </g>
 <g>
  <title>Layer 1</title>
  <g stroke="null" id="Layer_2">
   <path stroke="null" id="svg_1" d="m285.46126,112.92674l-53.48879,-30.86501l0,-52.47844l-50.45775,-29.16129l-50.51719,29.16129l0,59.43198l50.51719,29.06224l44.53437,-25.75386l53.48879,30.86501l5.92339,-10.26192zm-103.94654,-8.57802l-38.67041,-22.28699l0,-45.56452l38.67041,-22.34643l38.63079,22.28699l0,45.56452l-38.63079,22.34643z" class="cls-1"/>
   <polygon stroke="null" id="svg_2" points="34.856393814086914,118.07752990722656 22.96999740600586,118.07752990722656 22.96999740600586,85.07295227050781 52.269962310791016,68.15464782714844 58.213165283203125,78.4561996459961 34.856393814086914,91.947265625 34.856393814086914,118.07752990722656 " class="cls-1"/>
   <polygon stroke="null" id="svg_3" points="340,118.07752990722656 328.1136169433594,118.07752990722656 328.1136169433594,91.947265625 304.7568664550781,78.4561996459961 310.7000427246094,68.15464782714844 340,85.07295227050781 340,118.07752990722656 " class="cls-1"/>
   <polygon stroke="null" id="svg_4" points="310.7000427246094,285.00213623046875 304.7568664550781,274.70062255859375 328.1136169433594,261.2095642089844 328.1136169433594,235.05946350097656 340,235.05946350097656 340,268.0838317871094 310.7000427246094,285.00213623046875 " class="cls-1"/>
   <polygon stroke="null" id="svg_5" points="52.269962310791016,285.00213623046875 22.96999740600586,268.0838317871094 22.96999740600586,235.05946350097656 34.856393814086914,235.05946350097656 34.856393814086914,261.2095642089844 58.213165283203125,274.70062255859375 52.269962310791016,285.00213623046875 " class="cls-1"/>
   <polygon stroke="null" id="svg_6" points="181.47509765625,359.6487121582031 153.12603759765625,343.26531982421875 159.06924438476562,332.9637451171875 181.47509765625,345.919921875 203.9007568359375,332.9637451171875 209.84396362304688,343.26531982421875 181.47509765625,359.6487121582031 " class="cls-1"/>
   <polygon stroke="null" id="svg_7" points="80.4803466796875,175.19163513183594 80.4803466796875,233.51422119140625 130.9975357055664,262.675537109375 181.51470947265625,233.51422119140625 232.0319061279297,262.675537109375 282.5491027832031,233.51422119140625 282.5491027832031,175.19163513183594 232.05169677734375,146.01052856445312 232.0319061279297,204.35293579101562 181.51470947265625,175.19163513183594 130.9975357055664,204.35293579101562 130.9975357055664,146.01052856445312 80.4803466796875,175.19163513183594 " class="cls-2"/>
   <rect stroke="null" id="svg_8" transform="matrix(0.9905330751233664,-1.7156536126911097,1.7156536126911097,0.9905330751233664,-623.4104484128834,100.61259392913333) " height="6.38" width="1.5" y="387.47145" x="245.35717" class="cls-1"/>
   <rect stroke="null" id="svg_9" transform="matrix(0.9905330751233664,-1.7156536126911097,1.7156536126911097,0.9905330751233664,-601.5259602382513,88.00045251394452) " height="6.38" width="1.5" y="368.34145" x="234.31717" class="cls-1"/>
   <rect stroke="null" id="svg_10" transform="matrix(0.9905330751233664,-1.7156536126911097,1.7156536126911097,0.9905330751233664,-579.6342295646796,75.36125591653106) " height="6.38" width="1.5" y="349.20146" x="223.26717" class="cls-1"/>
   <rect stroke="null" id="svg_11" transform="matrix(1.7153077389856897,-0.9911319045562055,0.9911319045562055,1.7153077389856897,-268.51048591885547,-203.77596717249864) " height="1.5" width="6.38" y="202.97763" x="77.83119" class="cls-1"/>
   <rect stroke="null" id="svg_12" transform="matrix(1.7153077389856897,-0.9911319045562055,0.9911319045562055,1.7153077389856897,-271.8953206525115,-197.89637826273525) " height="1.5" width="6.38" y="201.26763" x="93.56119" class="cls-1"/>
   <rect stroke="null" id="svg_13" transform="matrix(1.7153077389856897,-0.9911319045562055,0.9911319045562055,1.7153077389856897,-275.2828135380014,-192.02670278930358) " height="1.5" width="6.38" y="199.55762" x="109.28119" class="cls-1"/>
   <rect stroke="null" id="svg_14" height="12.6392" width="2.9716" y="207.16606" x="27.4472" class="cls-1"/>
   <rect stroke="null" id="svg_15" height="12.6392" width="2.9716" y="181.88765" x="27.4472" class="cls-1"/>
   <rect stroke="null" id="svg_16" height="12.6392" width="2.9716" y="156.62906" x="27.4472" class="cls-1"/>
   <rect stroke="null" id="svg_17" height="12.6392" width="2.9716" y="131.35066" x="27.4472" class="cls-1"/>
   <rect stroke="null" id="svg_18" height="12.6392" width="2.9716" y="207.16606" x="332.61063" class="cls-1"/>
   <rect stroke="null" id="svg_19" height="12.6392" width="2.9716" y="181.88765" x="332.61063" class="cls-1"/>
   <rect stroke="null" id="svg_20" height="12.6392" width="2.9716" y="156.62906" x="332.61063" class="cls-1"/>
   <rect stroke="null" id="svg_21" height="12.6392" width="2.9716" y="131.35066" x="332.61063" class="cls-1"/>
   <rect stroke="null" id="svg_22" transform="matrix(0.9905330751233664,-1.7156536126911097,1.7156536126911097,0.9905330751233664,-775.9822529864047,-163.64952339467547) " height="6.38" width="1.5" y="520.87145" x="14.31717" class="cls-1"/>
   <rect stroke="null" id="svg_23" transform="matrix(0.9905330751233664,-1.7156536126911097,1.7156536126911097,0.9905330751233664,-754.0905223128331,-176.28871999208894) " height="6.38" width="1.5" y="501.73146" x="3.26717" class="cls-1"/>
   <rect stroke="null" id="svg_24" transform="matrix(0.9905330751233664,-1.7156536126911097,1.7156536126911097,0.9905330751233664,-732.2060388614308,-188.9008695881517) " height="6.38" width="1.5" y="482.60146" x="-7.77283" class="cls-1"/>
   <rect stroke="null" id="svg_25" transform="matrix(0.9905330751233664,-1.7156536126911097,1.7156536126911097,0.9905330751233664,-710.3142820090623,-201.5400812999004) " height="6.38" width="1.5" y="463.47145" x="-18.82283" class="cls-1"/>
   <rect stroke="null" id="svg_26" transform="matrix(1.7153077389856897,-0.9911319045562055,0.9911319045562055,1.7153077389856897,-339.4314925479033,-244.6889743095839) " height="1.5" width="6.38" y="392.80763" x="98.44119" class="cls-1"/>
   <rect stroke="null" id="svg_27" transform="matrix(1.7153077389856897,-0.9911319045562055,0.9911319045562055,1.7153077389856897,-342.82888928041285,-238.81663515015788) " height="1.5" width="6.38" y="391.10762" x="114.16119" class="cls-1"/>
   <rect stroke="null" id="svg_28" transform="matrix(1.7153077389856897,-0.9911319045562055,0.9911319045562055,1.7153077389856897,-346.213724014069,-232.93704624039458) " height="1.5" width="6.38" y="389.39762" x="129.88119" class="cls-1"/>
   <rect stroke="null" id="svg_29" transform="matrix(1.7153077389856897,-0.9911319045562055,0.9911319045562055,1.7153077389856897,-349.60123202303146,-227.06736671181142) " height="1.5" width="6.38" y="387.68763" x="145.60119" class="cls-1"/>
  </g>
 </g>
</svg>