<svg xmlns="http://www.w3.org/2000/svg" xmlns:xlink="http://www.w3.org/1999/xlink" viewBox="0 0 539.74 639.46"><defs><style>.cls-1{isolation:isolate;}.cls-14,.cls-2,.cls-9{stroke:#0070e6;}.cls-12,.cls-14,.cls-17,.cls-2,.cls-8,.cls-9{stroke-miterlimit:10;}.cls-2{stroke-width:20px;fill:url(#linear-gradient);}.cls-3{fill:url(#linear-gradient-2);}.cls-4{fill:url(#linear-gradient-3);}.cls-5{fill:url(#linear-gradient-4);}.cls-15,.cls-16,.cls-18,.cls-19,.cls-6,.cls-7{opacity:0.9;}.cls-6{fill:url(#linear-gradient-5);}.cls-7{fill:url(#linear-gradient-6);}.cls-12,.cls-14,.cls-17,.cls-8,.cls-9{fill:none;}.cls-12,.cls-17,.cls-8{stroke:#fa0171;}.cls-12,.cls-17,.cls-8,.cls-9{stroke-width:2px;}.cls-10{fill:#0070e6;}.cls-11{fill:#38d611;}.cls-12{stroke-dasharray:7.93 5.95;}.cls-13{fill:#fa0171;}.cls-14{stroke-dasharray:3 3;}.cls-15,.cls-16,.cls-18,.cls-19{mix-blend-mode:multiply;}.cls-15{fill:url(#linear-gradient-7);}.cls-16{fill:url(#linear-gradient-8);}.cls-17{stroke-dasharray:8.38 6.29;}.cls-18{fill:url(#linear-gradient-9);}.cls-19{fill:url(#linear-gradient-10);}</style><linearGradient id="linear-gradient" x1="420.25" y1="1307.13" x2="420.25" y2="1441.3" gradientUnits="userSpaceOnUse"><stop offset="0" stop-color="#eff7ff"/><stop offset="1" stop-color="#fff"/></linearGradient><linearGradient id="linear-gradient-2" x1="391.61" y1="1395.62" x2="515.22" y2="1395.62" gradientUnits="userSpaceOnUse"><stop offset="0" stop-color="#a5c5ff"/><stop offset="1" stop-color="#77a4f9"/></linearGradient><linearGradient id="linear-gradient-3" x1="420.25" y1="1284.47" x2="420.25" y2="1418.65" xlink:href="#linear-gradient"/><linearGradient id="linear-gradient-4" x1="420.25" y1="1289.47" x2="420.25" y2="1214.79" xlink:href="#linear-gradient"/><linearGradient id="linear-gradient-5" x1="253.76" y1="1361.69" x2="587.23" y2="1361.69" gradientUnits="userSpaceOnUse"><stop offset="0" stop-color="#eff7ff"/><stop offset="1" stop-color="#a5c5ff"/></linearGradient><linearGradient id="linear-gradient-6" x1="420.5" y1="1420.68" x2="420.5" y2="1349.7" gradientUnits="userSpaceOnUse"><stop offset="0" stop-color="#0070e6"/><stop offset="1" stop-color="#a5c5ff"/></linearGradient><linearGradient id="linear-gradient-7" x1="420.5" y1="1242.66" x2="420.5" y2="1171.67" xlink:href="#linear-gradient-6"/><linearGradient id="linear-gradient-8" x1="253.76" y1="1183.67" x2="587.23" y2="1183.67" xlink:href="#linear-gradient-5"/><linearGradient id="linear-gradient-9" x1="420.5" y1="1064.02" x2="420.5" y2="993.03" xlink:href="#linear-gradient-6"/><linearGradient id="linear-gradient-10" x1="253.76" y1="1005.03" x2="587.23" y2="1005.03" xlink:href="#linear-gradient-5"/></defs><g class="cls-1"><g id="Layer_1" data-name="Layer 1"><path class="cls-2" d="M437.72,1242.32c-9.61-5.55-25.33-5.55-34.94,0L167.59,1378.1c-9.61,5.55-9.61,14.63,0,20.18l235.19,135.79c9.61,5.55,25.33,5.55,34.94,0l235.19-135.79c9.61-5.55,9.61-14.63,0-20.18Z" transform="translate(-150.38 -908.76)"/><path class="cls-3" d="M680,1387h.09v-21.11h-54L437.72,1257.17c-9.62-5.54-25.34-5.54-35,0L214.38,1365.93H160.46V1387c-.55,4,1.81,8.17,7.11,11.24l235.2,135.78c9.61,5.56,25.33,5.56,35,0L672.9,1398.28C678.21,1395.21,680.57,1391.07,680,1387Z" transform="translate(-150.38 -908.76)"/><path class="cls-4" d="M437.72,1219.66c-9.61-5.55-25.33-5.55-34.94,0L167.59,1355.44c-9.61,5.56-9.61,14.63,0,20.19l235.19,135.78c9.61,5.55,25.33,5.55,34.94,0l235.19-135.78c9.61-5.56,9.61-14.63,0-20.19Z" transform="translate(-150.38 -908.76)"/><path class="cls-5" d="M420.25,1512.57c-6,0-11.83-1.37-16-3.76L169.09,1373c-3.68-2.13-5.71-4.79-5.71-7.49s2-5.37,5.71-7.5l235.19-135.78c4.14-2.39,10-3.76,16-3.76s11.84,1.37,16,3.76L671.41,1358c3.68,2.13,5.71,4.79,5.71,7.5s-2,5.36-5.71,7.49L436.22,1508.81C432.09,1511.2,426.26,1512.57,420.25,1512.57Z" transform="translate(-150.38 -908.76)"/><path class="cls-6" d="M437.82,1269.55c-9.53-5.5-25.12-5.5-34.64,0L260.9,1351.69c-9.52,5.5-9.52,14.5,0,20l142.28,82.14c9.52,5.5,25.11,5.5,34.64,0l142.27-82.14c9.53-5.5,9.53-14.5,0-20Z" transform="translate(-150.38 -908.76)"/><path class="cls-7" d="M587.23,1361.69c0,3.63-2.38,7.25-7.14,10l-142.27,82.14c-9.53,5.5-25.12,5.5-34.64,0L260.9,1371.69c-4.76-2.75-7.14-6.37-7.14-10h0v3.48h0c0,3.62,2.38,7.25,7.14,10l142.28,82.14c9.52,5.5,25.11,5.5,34.64,0l142.27-82.14c4.76-2.75,7.14-6.38,7.14-10h0v-3.48Z" transform="translate(-150.38 -908.76)"/><line class="cls-8" x1="310.51" y1="422.24" x2="278.61" y2="432.38"/><polyline class="cls-9" points="255.72 439.65 325.98 453.83 284.76 475.71"/><path class="cls-10" d="M392.59,1308.7c0,3.4-5.5,6.16-12.28,6.16S368,1312.1,368,1308.7s5.5-6.16,12.29-6.16S392.59,1305.3,392.59,1308.7Z" transform="translate(-150.38 -908.76)"/><path class="cls-10" d="M493.8,1400.44c0,3.4-5.5,6.16-12.28,6.16s-12.29-2.76-12.29-6.16,5.5-6.16,12.29-6.16S493.8,1397,493.8,1400.44Z" transform="translate(-150.38 -908.76)"/><ellipse class="cls-10" cx="310.51" cy="422.24" rx="12.29" ry="6.16"/><path class="cls-10" d="M445.64,1314.86c0,3.4-5.5,6.16-12.28,6.16s-12.29-2.76-12.29-6.16,5.5-6.16,12.29-6.16S445.64,1311.46,445.64,1314.86Z" transform="translate(-150.38 -908.76)"/><path class="cls-10" d="M488.65,1362.59c0,3.4-5.5,6.16-12.29,6.16s-12.28-2.76-12.28-6.16,5.5-6.16,12.28-6.16S488.65,1359.19,488.65,1362.59Z" transform="translate(-150.38 -908.76)"/><path class="cls-10" d="M445.64,1383.86c0,3.4-5.5,6.15-12.28,6.15s-12.29-2.75-12.29-6.15,5.5-6.16,12.29-6.16S445.64,1380.45,445.64,1383.86Z" transform="translate(-150.38 -908.76)"/><path class="cls-10" d="M371.76,1378.77c0,3.4-5.5,6.15-12.28,6.15s-12.29-2.75-12.29-6.15,5.5-6.16,12.29-6.16S371.76,1375.36,371.76,1378.77Z" transform="translate(-150.38 -908.76)"/><polygon class="cls-9" points="229.93 399.94 282.98 406.09 310.51 422.24 325.98 453.83 331.14 491.68 282.98 475.09 209.09 470 229.93 399.94"/><polyline class="cls-9" points="229.93 399.94 255.72 439.65 284.76 407.14"/><path class="cls-11" d="M418.38,1348.42c0,3.4-5.5,6.16-12.28,6.16s-12.29-2.76-12.29-6.16,5.5-6.16,12.29-6.16S418.38,1345,418.38,1348.42Z" transform="translate(-150.38 -908.76)"/><line class="cls-8" x1="310.51" y1="246.72" x2="310.51" y2="250.72"/><line class="cls-12" x1="310.51" y1="256.67" x2="310.51" y2="350.9"/><line class="cls-8" x1="310.51" y1="353.88" x2="310.51" y2="357.88"/><path class="cls-13" d="M466.93,1318.51c1.65,0,2.27,1.14,1.37,2.52l-5.78,8.93a1.79,1.79,0,0,1-3.25,0l-5.78-8.93c-.89-1.38-.28-2.52,1.37-2.52Z" transform="translate(-150.38 -908.76)"/><line class="cls-8" x1="310.51" y1="340.26" x2="310.51" y2="411.6"/><path class="cls-13" d="M425.51,1338a3.38,3.38,0,0,1,4.35-.94l8.62,5c1.43.82,1.26,1.64-.38,1.81l-15.17,1.59c-1.64.18-2.2-.78-1.24-2.12Z" transform="translate(-150.38 -908.76)"/><line class="cls-14" x1="229.93" y1="396.37" x2="229.93" y2="221.91"/><line class="cls-14" x1="331.14" y1="491.68" x2="331.14" y2="322.62"/><line class="cls-14" x1="209.09" y1="470" x2="209.09" y2="294.09"/><path class="cls-15" d="M587.23,1183.67c0,3.62-2.38,7.25-7.14,10l-142.27,82.14c-9.53,5.5-25.12,5.5-34.64,0L260.9,1193.67c-4.76-2.75-7.14-6.38-7.14-10h0v3.47h0c0,3.63,2.38,7.25,7.14,10l142.28,82.14c9.52,5.5,25.11,5.5,34.64,0l142.27-82.13c4.76-2.76,7.14-6.38,7.14-10h0v-3.47Z" transform="translate(-150.38 -908.76)"/><path class="cls-16" d="M437.82,1091.53c-9.53-5.5-25.12-5.5-34.64,0L260.9,1173.67c-9.52,5.5-9.52,14.5,0,20l142.28,82.14c9.52,5.5,25.11,5.5,34.64,0l142.27-82.14c9.53-5.5,9.53-14.5,0-20Z" transform="translate(-150.38 -908.76)"/><polyline class="cls-9" points="229.93 221.91 209.09 291.98 332.99 313.65 310.51 244.57 209.09 291.98"/><line class="cls-8" x1="229.93" y1="221.91" x2="290.85" y2="239.77"/><path class="cls-10" d="M380.31,1124.52c-6.79,0-12.29,2.75-12.29,6.15s5.5,6.16,12.29,6.16,12.28-2.75,12.28-6.16S387.09,1124.52,380.31,1124.52Z" transform="translate(-150.38 -908.76)"/><path class="cls-10" d="M481.52,1216.26c-6.79,0-12.29,2.75-12.29,6.15s5.5,6.16,12.29,6.16,12.28-2.75,12.28-6.16S488.3,1216.26,481.52,1216.26Z" transform="translate(-150.38 -908.76)"/><ellipse class="cls-10" cx="310.51" cy="244.21" rx="12.29" ry="6.16"/><path class="cls-10" d="M359.48,1194.58c-6.79,0-12.29,2.76-12.29,6.16s5.5,6.16,12.29,6.16,12.28-2.76,12.28-6.16S366.26,1194.58,359.48,1194.58Z" transform="translate(-150.38 -908.76)"/><path class="cls-13" d="M430.76,1151.41c-1.65.06-2.11-.92-1-2.16l5.85-6.68a2.78,2.78,0,0,1,4.1-.15l6.36,6.31c1.17,1.16.78,2.15-.87,2.21Z" transform="translate(-150.38 -908.76)"/><line class="cls-14" x1="331.14" y1="313.65" x2="331.14" y2="143.51"/><line class="cls-8" x1="229.93" y1="52.17" x2="229.93" y2="56.17"/><line class="cls-17" x1="229.93" y1="62.45" x2="229.93" y2="147.34"/><line class="cls-8" x1="229.93" y1="150.48" x2="229.93" y2="154.48"/><path class="cls-13" d="M386.34,1115.12c1.65,0,2.27,1.13,1.37,2.52l-5.77,8.93a1.8,1.8,0,0,1-3.26,0l-5.78-8.93c-.89-1.39-.28-2.52,1.37-2.52Z" transform="translate(-150.38 -908.76)"/><line class="cls-8" x1="229.93" y1="152.67" x2="229.93" y2="208.21"/><path class="cls-18" d="M587.23,1005c0,3.62-2.38,7.25-7.14,10l-142.27,82.14c-9.53,5.5-25.12,5.5-34.64,0L260.9,1015c-4.76-2.75-7.14-6.38-7.14-10h0v3.47h0c0,3.63,2.38,7.25,7.14,10l142.28,82.15c9.52,5.5,25.11,5.5,34.64,0l142.27-82.14c4.76-2.76,7.14-6.38,7.14-10h0V1005Z" transform="translate(-150.38 -908.76)"/><path class="cls-19" d="M437.82,912.89c-9.53-5.5-25.12-5.5-34.64,0L260.9,995c-9.52,5.5-9.52,14.5,0,20l142.28,82.14c9.52,5.5,25.11,5.5,34.64,0L580.09,1015c9.53-5.5,9.53-14.5,0-20Z" transform="translate(-150.38 -908.76)"/><path class="cls-10" d="M392.59,952c0,3.4-5.5,6.15-12.28,6.15S368,955.44,368,952s5.5-6.16,12.29-6.16S392.59,948.63,392.59,952Z" transform="translate(-150.38 -908.76)"/><path class="cls-13" d="M493.8,1043.78c0,3.4-5.5,6.16-12.28,6.16s-12.29-2.76-12.29-6.16,5.5-6.16,12.29-6.16S493.8,1040.37,493.8,1043.78Z" transform="translate(-150.38 -908.76)"/><line class="cls-8" x1="245.49" y1="56.28" x2="331.14" y2="135.01"/><path class="cls-13" d="M391.1,971.23a1.79,1.79,0,0,0,2.89,1.49l12.12-7c1.42-.83,1.29-1.86-.3-2.31l-13-3.62a1.92,1.92,0,0,0-2.6,2.18Z" transform="translate(-150.38 -908.76)"/></g></g></svg>