<?xml version="1.0" encoding="utf-8"?>
<!-- Generator: Adobe Illustrator 25.0.1, SVG Export Plug-In . SVG Version: 6.00 Build 0)  -->
<svg version="1.1" id="Layer_1" xmlns="http://www.w3.org/2000/svg" xmlns:xlink="http://www.w3.org/1999/xlink" x="0px" y="0px"
	 viewBox="0 0 557 393" style="enable-background:new 0 0 557 393;" xml:space="preserve">
<style type="text/css">
	.st0{fill:url(#SVGID_1_);stroke:#0070E6;stroke-width:20;stroke-miterlimit:10;}
	.st1{fill:url(#SVGID_2_);}
	.st2{fill:url(#SVGID_3_);}
	.st3{fill:url(#SVGID_4_);}
	.st4{opacity:0.4;fill:none;stroke:#0070E6;stroke-width:5;stroke-linecap:round;stroke-linejoin:round;enable-background:new    ;}
	.st5{opacity:0.4;fill:none;stroke:#0070E6;stroke-width:5;stroke-miterlimit:10;enable-background:new    ;}
	.st6{fill:url(#SVGID_5_);}
	.st7{fill:url(#SVGID_6_);}
	.st8{opacity:0.6;fill:url(#SVGID_7_);enable-background:new    ;}
	.st9{fill:url(#SVGID_8_);}
	.st10{fill:url(#SVGID_9_);}
	.st11{fill:url(#SVGID_10_);}
	.st12{opacity:0.2;fill:#00152B;enable-background:new    ;}
	.st13{fill:url(#SVGID_11_);}
	.st14{fill:url(#SVGID_12_);}
	.st15{fill:url(#SVGID_13_);}
	.st16{fill:url(#SVGID_14_);}
	.st17{fill:url(#SVGID_15_);}
	.st18{fill:url(#SVGID_16_);}
	.st19{opacity:0.6;fill:url(#SVGID_17_);enable-background:new    ;}
	.st20{fill:url(#SVGID_18_);}
	.st21{fill:url(#SVGID_19_);}
	.st22{fill:url(#SVGID_20_);}
	.st23{fill:url(#SVGID_21_);}
	.st24{fill:url(#SVGID_22_);}
	.st25{fill:url(#SVGID_23_);}
	.st26{fill:url(#SVGID_24_);}
	.st27{fill:#D9C539;}
	.st28{fill:url(#SVGID_25_);}
	.st29{opacity:0.6;fill:url(#SVGID_26_);enable-background:new    ;}
	.st30{fill:url(#SVGID_27_);}
	.st31{fill:url(#SVGID_28_);}
	.st32{fill:url(#SVGID_29_);}
	.st33{fill:url(#SVGID_30_);}
	.st34{fill:url(#SVGID_31_);}
	.st35{fill:url(#SVGID_32_);}
	.st36{fill:url(#SVGID_33_);}
	.st37{fill:#FFFFFF;}
	.st38{fill:url(#SVGID_34_);}
	.st39{fill:url(#SVGID_35_);}
	.st40{fill:url(#SVGID_36_);}
	.st41{fill:url(#SVGID_37_);}
	.st42{fill:url(#SVGID_38_);}
	.st43{fill:url(#SVGID_39_);}
</style>
<g>
	<g id="Layer_1_1_">
		
			<linearGradient id="SVGID_1_" gradientUnits="userSpaceOnUse" x1="1881.53" y1="1254.48" x2="1881.53" y2="1388.6599" gradientTransform="matrix(1 0 0 1 -1599.63 -1110.1697)">
			<stop  offset="0" style="stop-color:#EFF7FF"/>
			<stop  offset="1" style="stop-color:#FFFFFF"/>
		</linearGradient>
		<path class="st0" d="M299.4,79.5c-9.6-5.5-25.3-5.5-35,0L29.2,215.3c-9.6,5.6-9.6,14.6,0,20.2l235.2,135.8c9.6,5.6,25.3,5.6,35,0
			l235.2-135.8c9.6-5.6,9.6-14.6,0-20.2L299.4,79.5z"/>
		
			<linearGradient id="SVGID_2_" gradientUnits="userSpaceOnUse" x1="1852.86" y1="1343.0072" x2="1976.46" y2="1343.0072" gradientTransform="matrix(1 0 0 1 -1599.63 -1110.1697)">
			<stop  offset="0" style="stop-color:#A5C5FF"/>
			<stop  offset="1" style="stop-color:#77A4F9"/>
		</linearGradient>
		<path class="st1" d="M541.6,224.2L541.6,224.2l0.1-21.1h-54L299.4,94.4c-9.6-5.5-25.3-5.5-35,0L76,203.1H22.1v21.1
			c-0.6,4,1.8,8.2,7.1,11.2l235.2,135.8c9.6,5.6,25.3,5.6,35,0l235.2-135.8C539.8,232.4,542.2,228.3,541.6,224.2z"/>
		
			<linearGradient id="SVGID_3_" gradientUnits="userSpaceOnUse" x1="1881.53" y1="1231.8298" x2="1881.53" y2="1365.9999" gradientTransform="matrix(1 0 0 1 -1599.63 -1110.1697)">
			<stop  offset="0" style="stop-color:#EFF7FF"/>
			<stop  offset="1" style="stop-color:#FFFFFF"/>
		</linearGradient>
		<path class="st2" d="M299.4,56.8c-9.6-5.5-25.3-5.5-35,0L29.2,192.6c-9.6,5.6-9.6,14.6,0,20.2l235.2,135.8c9.6,5.6,25.3,5.6,35,0
			l235.2-135.8c9.6-5.6,9.6-14.6,0-20.2L299.4,56.8z"/>
		
			<linearGradient id="SVGID_4_" gradientUnits="userSpaceOnUse" x1="1881.53" y1="1236.8298" x2="1881.53" y2="1162.1399" gradientTransform="matrix(1 0 0 1 -1599.63 -1110.1697)">
			<stop  offset="0" style="stop-color:#EFF7FF"/>
			<stop  offset="1" style="stop-color:#FFFFFF"/>
		</linearGradient>
		<path class="st3" d="M281.9,349.8c-6,0-11.8-1.4-16-3.8L30.7,210.2c-3.7-2.1-5.7-4.8-5.7-7.5s2-5.4,5.7-7.5L265.9,59.4
			c4.1-2.4,10-3.8,16-3.8s11.8,1.4,16,3.8l235.2,135.8c3.7,2.1,5.7,4.8,5.7,7.5s-2,5.4-5.7,7.5L297.9,346
			C293.7,348.4,287.9,349.8,281.9,349.8z"/>
		<path class="st4" d="M432.6,213.8c5.4-3.1,5.4-8.2,0-11.3l-131.5-75.9c-5.4-3.1-14.2-3.1-19.5,0L230.7,156"/>
		<path class="st5" d="M258.3,276.3l23.3,13.4c5.4,3.1,14.2,3.1,19.5,0l131.5-75.9"/>
		<path class="st4" d="M230.7,156L150,202.5c-5.4,3.1-5.4,8.2,0,11.3l108.2,62.5"/>
		
			<linearGradient id="SVGID_5_" gradientUnits="userSpaceOnUse" x1="2023.2949" y1="1326.6703" x2="2012.1449" y2="1278.3403" gradientTransform="matrix(1 0 0 1 -1599.63 -1110.1697)">
			<stop  offset="0" style="stop-color:#38D611"/>
			<stop  offset="1" style="stop-color:#1F8E00"/>
		</linearGradient>
		<path class="st6" d="M410.8,174.7c5.7-3.3,15.1-3.3,20.8,0l46.7,27.2c5.7,3.3,5.7,8.7,0,12l-45.9,26.5c-5.7,3.3-15.1,3.3-20.8,0
			l-46.7-27.2c-5.7-3.3-5.7-8.7,0-12L410.8,174.7z"/>
		
			<linearGradient id="SVGID_6_" gradientUnits="userSpaceOnUse" x1="1948.67" y1="1287.3197" x2="2061.5601" y2="1287.3197" gradientTransform="matrix(1 0 0 1 -1599.63 -1110.1697)">
			<stop  offset="0" style="stop-color:#0070E6"/>
			<stop  offset="1" style="stop-color:#00152B"/>
		</linearGradient>
		<path class="st7" d="M477.4,150.1c0-2-1.3-4-3.9-5.5l-42.7-24.8c-5.2-3-13.8-3-19,0L369.9,144c-2.8,1.6-4.1,3.8-3.9,5.9v53.9
			c-0.2,2.1,1.1,4.3,3.9,5.9l42.6,24.8c6,3,13,3,19,0l41.9-24.2c2.6-1.5,3.9-3.5,3.9-5.5L477.4,150.1L477.4,150.1z"/>
		
			<linearGradient id="SVGID_7_" gradientUnits="userSpaceOnUse" x1="2021.37" y1="1347.23" x2="2021.37" y2="1280.95" gradientTransform="matrix(1 0 0 1 -1599.63 -1110.1697)">
			<stop  offset="0" style="stop-color:#0070E6"/>
			<stop  offset="1" style="stop-color:#00152B"/>
		</linearGradient>
		<path class="st8" d="M477.4,178c0-2-1.3-4-3.9-5.5l-42.6-24.8c-5.2-3-13.8-3-19,0L370,171.9c-2.8,1.6-4.1,3.8-3.9,5.9v20.7
			c-0.2,2.1,1.1,4.3,3.9,5.9l42.6,24.8c6,3,13,3,19,0l41.8-24.2c2.6-1.5,3.9-3.5,3.9-5.5L477.4,178L477.4,178z"/>
		
			<linearGradient id="SVGID_8_" gradientUnits="userSpaceOnUse" x1="5054.376" y1="1329.1102" x2="5105.1362" y2="1284.8401" gradientTransform="matrix(-1 0 0 1 5470.3403 -1110.1697)">
			<stop  offset="0" style="stop-color:#0070E6"/>
			<stop  offset="1" style="stop-color:#00152B"/>
		</linearGradient>
		<path class="st9" d="M351.1,184.3v-26.5c0.2,2.3,1.8,4.7,4.9,6.5l54,31.5c3.7,2,7.8,2.9,12,2.9v27.6c-4.2,0.1-8.3-0.9-12-2.9
			l-54-31.5C352.5,189.7,350.9,186.9,351.1,184.3z"/>
		
			<linearGradient id="SVGID_9_" gradientUnits="userSpaceOnUse" x1="5039.3125" y1="1357.4371" x2="4991.3325" y2="1257.767" gradientTransform="matrix(-1 0 0 1 5470.3403 -1110.1697)">
			<stop  offset="0" style="stop-color:#0070E6"/>
			<stop  offset="1" style="stop-color:#00152B"/>
		</linearGradient>
		<path class="st10" d="M434.2,195.7l53.1-30.7c3.3-1.9,5-4.4,5-6.9l0,0v27.5c0,2.5-1.6,5.1-5,7l-53.1,30.7c-3.7,1.9-7.8,2.9-12,2.9
			v-27.6C426.4,198.6,430.5,197.6,434.2,195.7z"/>
		
			<linearGradient id="SVGID_10_" gradientUnits="userSpaceOnUse" x1="5059.5229" y1="1258.1823" x2="5004.813" y2="1306.6322" gradientTransform="matrix(-1 0 0 1 5470.3403 -1110.1697)">
			<stop  offset="0" style="stop-color:#0070E6"/>
			<stop  offset="1" style="stop-color:#A5C5FF"/>
		</linearGradient>
		<path class="st11" d="M409.2,119.6c6.6-3.8,17.5-3.8,24.1,0l54,31.5c6.6,3.8,6.6,10.1,0,13.9l-53.1,30.7c-6.6,3.8-17.5,3.8-24.1,0
			l-54-31.5c-6.6-3.8-6.6-10.1,0-13.9L409.2,119.6z"/>
		<path class="st12" d="M422.1,195.6c3.7,0.1,7.3-0.8,10.6-2.5l53.1-30.7c2.2-1.3,3.5-2.9,3.5-4.5s-1.3-3.2-3.5-4.4l-54-31.5
			c-6.7-3.3-14.5-3.3-21.2,0l-53.2,30.7c-2.2,1.3-3.5,2.9-3.5,4.5s1.3,3.1,3.5,4.4l54.1,31.5C414.8,194.9,418.5,195.7,422.1,195.6z"
			/>
		
			<linearGradient id="SVGID_11_" gradientUnits="userSpaceOnUse" x1="5006.8105" y1="1320.6432" x2="5121.9209" y2="1160.5331" gradientTransform="matrix(-1 0 0 1 5468.8003 -1110.1697)">
			<stop  offset="0" style="stop-color:#0070E6"/>
			<stop  offset="1" style="stop-color:#A5C5FF"/>
		</linearGradient>
		<path class="st13" d="M410.1,203.1c6.6,3.8,17.5,3.8,24.1,0l53.1-30.7c3.3-1.9,5-4.4,5-6.9l0,0v14.2c0,2.5-1.6,5-5,7l-53.1,30.7
			c-6.6,3.8-17.5,3.8-24.1,0l-9.8-5.6v-14.2L410.1,203.1z"/>
		
			<linearGradient id="SVGID_12_" gradientUnits="userSpaceOnUse" x1="4985.5718" y1="1291.1851" x2="5020.1318" y2="1312.525" gradientTransform="matrix(-1 0 0 1 5468.8003 -1110.1697)">
			<stop  offset="0" style="stop-color:#38D611"/>
			<stop  offset="1" style="stop-color:#BCF0A7"/>
		</linearGradient>
		<path class="st14" d="M432.7,209.8l44.1-25.6c0.5-0.3,0.9,0,0.9,0.7v0.8c0,0.7-0.3,1.3-0.9,1.7L432.7,213c-0.5,0.3-0.9,0-0.9-0.7
			v-0.8C431.8,210.8,432.1,210.2,432.7,209.8z"/>
		
			<linearGradient id="SVGID_13_" gradientUnits="userSpaceOnUse" x1="4985.0732" y1="1291.9945" x2="5019.6235" y2="1313.3345" gradientTransform="matrix(-1 0 0 1 5468.8003 -1110.1697)">
			<stop  offset="0" style="stop-color:#38D611"/>
			<stop  offset="1" style="stop-color:#BCF0A7"/>
		</linearGradient>
		<path class="st15" d="M481.5,181.7c0.6-0.3,1.1,0,1.1,0.8c0,0.9-0.4,1.7-1.1,2.2c-0.6,0.4-1.1,0-1.1-0.8
			C480.4,183,480.8,182.2,481.5,181.7z"/>
		
			<linearGradient id="SVGID_14_" gradientUnits="userSpaceOnUse" x1="4985.0352" y1="1292.059" x2="5019.5952" y2="1313.399" gradientTransform="matrix(-1 0 0 1 5468.8003 -1110.1697)">
			<stop  offset="0" style="stop-color:#38D611"/>
			<stop  offset="1" style="stop-color:#BCF0A7"/>
		</linearGradient>
		<path class="st16" d="M484.8,179.8c0.6-0.3,1.1,0,1.1,0.8c0,0.9-0.4,1.6-1.1,2.1c-0.6,0.4-1.1,0-1.1-0.8
			C483.7,181.1,484.1,180.3,484.8,179.8z"/>
		
			<linearGradient id="SVGID_15_" gradientUnits="userSpaceOnUse" x1="1882.73" y1="1398.0199" x2="1882.73" y2="1430.0598" gradientTransform="matrix(1 0 0 1 -1599.63 -1110.1697)">
			<stop  offset="0" style="stop-color:#FA0171"/>
			<stop  offset="1" style="stop-color:#FF90BD"/>
		</linearGradient>
		<path class="st17" d="M272.3,254.7c5.7-3.3,15.1-3.3,20.8,0l46.7,27.2c5.7,3.3,5.7,8.7,0,12l-45.9,26.5c-5.7,3.3-15.1,3.3-20.8,0
			l-46.7-27.2c-5.7-3.3-5.7-8.7,0-12L272.3,254.7z"/>
		
			<linearGradient id="SVGID_16_" gradientUnits="userSpaceOnUse" x1="1810.1" y1="1367.3696" x2="1922.99" y2="1367.3696" gradientTransform="matrix(1 0 0 1 -1599.63 -1110.1697)">
			<stop  offset="0" style="stop-color:#0070E6"/>
			<stop  offset="1" style="stop-color:#00152B"/>
		</linearGradient>
		<path class="st18" d="M338.8,230.2c0-2-1.3-4-3.9-5.5l-42.6-24.8c-5.2-3-13.8-3-19,0l-42,24.1c-2.8,1.6-4.1,3.8-3.9,5.9v53.9
			c-0.2,2.1,1.1,4.3,3.9,5.9l42.6,24.8c6,3,13,3,19,0l41.9-24.2c2.6-1.5,3.9-3.5,3.9-5.5v-54.6H338.8z"/>
		
			<linearGradient id="SVGID_17_" gradientUnits="userSpaceOnUse" x1="1882.87" y1="1427.2499" x2="1882.87" y2="1360.9697" gradientTransform="matrix(1 0 0 1 -1599.63 -1110.1697)">
			<stop  offset="0" style="stop-color:#0070E6"/>
			<stop  offset="1" style="stop-color:#00152B"/>
		</linearGradient>
		<path class="st19" d="M338.8,258c0-2-1.3-4-3.9-5.5l-42.6-24.8c-5.2-3-13.8-3-19,0l-41.8,24.2c-2.8,1.6-4.1,3.8-3.9,5.9v20.7
			c-0.2,2.1,1.1,4.3,3.9,5.9l42.6,24.8c6,3,13,3,19,0L335,285c2.6-1.5,3.9-3.5,3.9-5.5L338.8,258L338.8,258z"/>
		
			<linearGradient id="SVGID_18_" gradientUnits="userSpaceOnUse" x1="5192.8848" y1="1409.0718" x2="5243.6548" y2="1364.8016" gradientTransform="matrix(-1 0 0 1 5470.3403 -1110.1697)">
			<stop  offset="0" style="stop-color:#0070E6"/>
			<stop  offset="1" style="stop-color:#00152B"/>
		</linearGradient>
		<path class="st20" d="M212.5,264.3v-26.5c0.2,2.3,1.8,4.7,4.9,6.4l54.1,31.5c3.7,2,7.8,2.9,12,2.9v27.6c-4.2,0.1-8.3-0.9-12-2.9
			l-54.1-31.5C213.9,269.7,212.3,267,212.5,264.3z"/>
		
			<linearGradient id="SVGID_19_" gradientUnits="userSpaceOnUse" x1="5177.9229" y1="1437.4329" x2="5129.9429" y2="1337.7629" gradientTransform="matrix(-1 0 0 1 5470.3403 -1110.1697)">
			<stop  offset="0" style="stop-color:#0070E6"/>
			<stop  offset="1" style="stop-color:#00152B"/>
		</linearGradient>
		<path class="st21" d="M295.6,275.7l53.1-30.7c3.3-1.9,5-4.4,5-6.9l0,0v27.5c0,2.5-1.7,5.1-5,7l-53.1,30.7c-3.7,1.9-7.8,2.9-12,2.9
			v-27.6C287.8,278.6,291.9,277.6,295.6,275.7z"/>
		
			<linearGradient id="SVGID_20_" gradientUnits="userSpaceOnUse" x1="5198.1187" y1="1338.2305" x2="5143.4087" y2="1386.6805" gradientTransform="matrix(-1 0 0 1 5470.3403 -1110.1697)">
			<stop  offset="0" style="stop-color:#0070E6"/>
			<stop  offset="1" style="stop-color:#A5C5FF"/>
		</linearGradient>
		<path class="st22" d="M270.6,199.6c6.6-3.8,17.5-3.8,24.1,0l54,31.5c6.6,3.8,6.6,10.1,0,13.9l-53.1,30.7c-6.6,3.8-17.5,3.8-24.1,0
			l-54.1-31.5c-6.6-3.8-6.6-10.1,0-13.9L270.6,199.6z"/>
		<path class="st12" d="M283.6,275.6c3.7,0.1,7.3-0.8,10.6-2.5l53.1-30.7c2.2-1.3,3.5-2.9,3.5-4.4s-1.3-3.2-3.5-4.4l-54-31.5
			c-6.7-3.3-14.5-3.3-21.2,0l-53.2,30.7c-2.2,1.3-3.5,2.9-3.5,4.4s1.3,3.1,3.5,4.4l54.1,31.5C276.2,274.9,279.9,275.7,283.6,275.6z"
			/>
		
			<linearGradient id="SVGID_21_" gradientUnits="userSpaceOnUse" x1="5145.4424" y1="1400.6974" x2="5260.5522" y2="1240.5973" gradientTransform="matrix(-1 0 0 1 5468.8003 -1110.1697)">
			<stop  offset="0" style="stop-color:#0070E6"/>
			<stop  offset="1" style="stop-color:#A5C5FF"/>
		</linearGradient>
		<path class="st23" d="M271.5,283.2c6.6,3.8,17.5,3.8,24.1,0l53.1-30.7c3.3-1.9,5-4.4,5-6.9l0,0v14.2c0,2.5-1.7,5-5,7l-53.1,30.7
			c-6.6,3.8-17.5,3.8-24.1,0l-9.8-5.6v-14.3L271.5,283.2z"/>
		
			<linearGradient id="SVGID_22_" gradientUnits="userSpaceOnUse" x1="5124.1592" y1="1371.1772" x2="5158.7192" y2="1392.5172" gradientTransform="matrix(-1 0 0 1 5468.8003 -1110.1697)">
			<stop  offset="0" style="stop-color:#FA0171"/>
			<stop  offset="1" style="stop-color:#FF90BD"/>
		</linearGradient>
		<path class="st24" d="M294.1,289.8l44.1-25.6c0.5-0.3,0.9,0,0.9,0.7v0.8c0,0.7-0.3,1.3-0.9,1.7L294.1,293c-0.5,0.3-0.9,0-0.9-0.7
			v-0.8C293.2,290.8,293.6,290.2,294.1,289.8z"/>
		
			<linearGradient id="SVGID_23_" gradientUnits="userSpaceOnUse" x1="5123.6328" y1="1372.0311" x2="5158.1729" y2="1393.3712" gradientTransform="matrix(-1 0 0 1 5468.8003 -1110.1697)">
			<stop  offset="0" style="stop-color:#FA0171"/>
			<stop  offset="1" style="stop-color:#FF90BD"/>
		</linearGradient>
		<path class="st25" d="M343,261.7c0.6-0.3,1.1,0,1.1,0.8c0,0.9-0.4,1.7-1.1,2.2c-0.6,0.4-1.1,0-1.1-0.8
			C341.9,263,342.3,262.2,343,261.7z"/>
		
			<linearGradient id="SVGID_24_" gradientUnits="userSpaceOnUse" x1="5123.6221" y1="1372.051" x2="5158.1919" y2="1393.3911" gradientTransform="matrix(-1 0 0 1 5468.8003 -1110.1697)">
			<stop  offset="0" style="stop-color:#FA0171"/>
			<stop  offset="1" style="stop-color:#FF90BD"/>
		</linearGradient>
		<path class="st26" d="M346.2,259.8c0.6-0.3,1.1,0,1.1,0.8c0,0.9-0.4,1.6-1.1,2.1c-0.6,0.4-1.1,0-1.1-0.8
			C345.1,261.1,345.5,260.3,346.2,259.8z"/>
		<path class="st27" d="M198.8,127.4c5.7-3.3,15.1-3.3,20.8,0l46.7,27.2c5.7,3.3,5.7,8.7,0,12l-45.9,26.5c-5.7,3.3-15.1,3.3-20.8,0
			l-46.7-27.2c-5.7-3.3-5.7-8.7,0-12L198.8,127.4z"/>
		
			<linearGradient id="SVGID_25_" gradientUnits="userSpaceOnUse" x1="1736.6" y1="1240.0197" x2="1849.49" y2="1240.0197" gradientTransform="matrix(1 0 0 1 -1599.63 -1110.1697)">
			<stop  offset="0" style="stop-color:#0070E6"/>
			<stop  offset="1" style="stop-color:#00152B"/>
		</linearGradient>
		<path class="st28" d="M265.3,102.8c0-2-1.3-4-3.9-5.5l-42.6-24.8c-5.2-3-13.8-3-19,0l-41.9,24.2c-2.8,1.6-4.1,3.8-3.9,5.9v53.9
			c-0.2,2.1,1.1,4.3,3.9,5.9l42.6,24.8c6,3,13,3,19,0l41.9-24.2c2.6-1.5,3.9-3.5,3.9-5.5L265.3,102.8L265.3,102.8z"/>
		
			<linearGradient id="SVGID_26_" gradientUnits="userSpaceOnUse" x1="1809.27" y1="1299.8999" x2="1809.27" y2="1233.6099" gradientTransform="matrix(1 0 0 1 -1599.63 -1110.1697)">
			<stop  offset="0" style="stop-color:#0070E6"/>
			<stop  offset="1" style="stop-color:#00152B"/>
		</linearGradient>
		<path class="st29" d="M265.3,130.7c0-2-1.3-4-3.9-5.5l-42.6-24.8c-5.2-3-13.8-3-19,0l-41.9,24.2c-2.8,1.6-4.1,3.8-3.9,5.9v20.7
			c-0.2,2.1,1.1,4.3,3.9,5.9l42.6,24.8c6,3,13,3,19,0l41.9-24.2c2.6-1.5,3.9-3.5,3.9-5.5L265.3,130.7L265.3,130.7z"/>
		
			<linearGradient id="SVGID_27_" gradientUnits="userSpaceOnUse" x1="5266.353" y1="1281.6847" x2="5317.123" y2="1237.4047" gradientTransform="matrix(-1 0 0 1 5470.3403 -1110.1697)">
			<stop  offset="0" style="stop-color:#0070E6"/>
			<stop  offset="1" style="stop-color:#00152B"/>
		</linearGradient>
		<path class="st30" d="M139,136.9v-26.5c0.2,2.3,1.8,4.7,4.9,6.4l54.1,31.5c3.7,2,7.8,2.9,12,2.9v27.6c-4.2,0.1-8.3-0.9-12-2.9
			l-54-31.5C140.4,142.3,138.8,139.6,139,136.9z"/>
		
			<linearGradient id="SVGID_28_" gradientUnits="userSpaceOnUse" x1="5251.4229" y1="1310.0829" x2="5203.4429" y2="1210.413" gradientTransform="matrix(-1 0 0 1 5470.3403 -1110.1697)">
			<stop  offset="0" style="stop-color:#0070E6"/>
			<stop  offset="1" style="stop-color:#00152B"/>
		</linearGradient>
		<path class="st31" d="M222.1,148.3l53.1-30.7c3.3-1.9,5-4.4,5-6.9l0,0v27.5c0,2.5-1.7,5.1-5,7l-53.1,30.7c-3.7,1.9-7.8,2.9-12,2.9
			v-27.5C214.3,151.3,218.4,150.3,222.1,148.3z"/>
		
			<linearGradient id="SVGID_29_" gradientUnits="userSpaceOnUse" x1="5271.6147" y1="1210.8878" x2="5216.915" y2="1259.3379" gradientTransform="matrix(-1 0 0 1 5470.3403 -1110.1697)">
			<stop  offset="0" style="stop-color:#0070E6"/>
			<stop  offset="1" style="stop-color:#A5C5FF"/>
		</linearGradient>
		<path class="st32" d="M197.1,72.3c6.6-3.8,17.5-3.8,24.1,0l54,31.5c6.6,3.8,6.6,10.1,0,13.9l-53.1,30.7c-6.6,3.8-17.5,3.8-24.1,0
			l-54-31.5c-6.6-3.8-6.6-10.1,0-13.9L197.1,72.3z"/>
		<path class="st12" d="M210.1,148.3c3.7,0.1,7.3-0.8,10.6-2.5l53.1-30.7c2.2-1.3,3.5-2.9,3.5-4.4s-1.3-3.2-3.5-4.4l-54-31.5
			c-6.7-3.3-14.5-3.3-21.2,0l-53.2,30.7c-2.2,1.3-3.5,2.9-3.5,4.5s1.3,3.1,3.5,4.4l54.1,31.5C202.7,147.5,206.4,148.4,210.1,148.3z"
			/>
		
			<linearGradient id="SVGID_30_" gradientUnits="userSpaceOnUse" x1="5218.9194" y1="1273.3309" x2="5334.0293" y2="1113.2211" gradientTransform="matrix(-1 0 0 1 5468.8003 -1110.1697)">
			<stop  offset="0" style="stop-color:#0070E6"/>
			<stop  offset="1" style="stop-color:#A5C5FF"/>
		</linearGradient>
		<path class="st33" d="M198,155.8c6.6,3.8,17.5,3.8,24.1,0l53.1-30.7c3.3-1.9,5-4.4,5-6.9l0,0v14.2c0,2.5-1.7,5-5,7l-53.1,30.7
			c-6.6,3.8-17.5,3.8-24.1,0l-9.8-5.6v-14.2L198,155.8z"/>
		<path class="st27" d="M220.6,162.5l44.1-25.6c0.5-0.3,0.9,0,0.9,0.7v0.8c0,0.7-0.3,1.3-0.9,1.7l-44.1,25.6c-0.5,0.3-0.9,0-0.9-0.7
			v-0.8C219.8,163.5,220.1,162.8,220.6,162.5z"/>
		<path class="st27" d="M269.5,134.4c0.6-0.3,1.1,0,1.1,0.8c0,0.9-0.4,1.6-1.1,2.2c-0.6,0.3-1.1,0-1.1-0.9
			C268.4,135.6,268.8,134.8,269.5,134.4z"/>
		<path class="st27" d="M272.7,132.5c0.6-0.3,1.1,0,1.1,0.9c0,0.9-0.4,1.6-1.1,2.1c-0.6,0.4-1.1,0-1.1-0.8
			C271.6,133.8,272,133,272.7,132.5z"/>
		
			<linearGradient id="SVGID_31_" gradientUnits="userSpaceOnUse" x1="2147.2849" y1="1130.7844" x2="2168.2949" y2="1200.2045" gradientTransform="matrix(-1 0 0 1 2369.96 -1110.1697)">
			<stop  offset="0" style="stop-color:#0070E6"/>
			<stop  offset="1" style="stop-color:#00152B"/>
		</linearGradient>
		<path class="st34" d="M184.7,100.2V40.7c0-4,2.4-8.7,5.4-10.4l44.7-25.8c1.1-0.8,2.7-0.9,3.9-0.1l3.8,2.2c-0.7,0.6-1.5,1-2.3,1.2
			c0,0.2,0,0.5,0,0.8v59.5c0,4-2.4,8.7-5.4,10.4l-44,25.4l0.2,3.2l-4.3-2.5l0,0C185.4,104,184.7,102.4,184.7,100.2z"/>
		
			<linearGradient id="SVGID_32_" gradientUnits="userSpaceOnUse" x1="2149.0881" y1="1173.012" x2="2163.0981" y2="1152.312" gradientTransform="matrix(-1 0 0 1 2369.96 -1110.1697)">
			<stop  offset="0" style="stop-color:#0070E6"/>
			<stop  offset="1" style="stop-color:#A5C5FF"/>
		</linearGradient>
		<path class="st35" d="M194.6,32.8L239.2,7c3-1.7,5.4,0.1,5.4,4.1v59.5c0,4-2.4,8.7-5.4,10.4l-44.7,25.8c-3,1.7-5.4-0.1-5.4-4.1
			V43.2C189.1,39.2,191.6,34.6,194.6,32.8z"/>
		
			<linearGradient id="SVGID_33_" gradientUnits="userSpaceOnUse" x1="2177.7063" y1="1143.2367" x2="2133.1365" y2="1186.5466" gradientTransform="matrix(-1 0 0 1 2369.96 -1110.1697)">
			<stop  offset="0" style="stop-color:#0070E6"/>
			<stop  offset="1" style="stop-color:#A5C5FF"/>
		</linearGradient>
		<path class="st36" d="M192.4,106c-1.3,0-1.7-1.7-1.7-3.2V43.2c0-3.4,2.1-7.5,4.7-9L240,8.4c0.4-0.3,0.9-0.4,1.4-0.4
			c0.3,0,0.6,0.1,0.9,0.4c0.6,0.8,0.9,1.8,0.8,2.8v59.5c0,3.4-2.1,7.6-4.7,9l-44.7,25.8C193.3,105.8,192.8,105.9,192.4,106z"/>
		<path class="st37" d="M224,54.1c-3.3-2.5-8.6,0.6-11.9,6.9s-3.3,13.4,0,15.9c2.9,2.2,7.3,0.1,10.6-4.7l6,4.5l2.3-4.5l-6-4.5
			C227.2,62,226.9,56.3,224,54.1z M222,68.4c-2.2,4.1-5.7,6.2-7.8,4.5s-2.2-6.3,0-10.4s5.7-6.2,7.8-4.5S224.1,64.3,222,68.4
			L222,68.4z"/>
		<path class="st37" d="M236.2,48.9c-1.2-6.9-4.9-11-9.9-11.6l8.6-5c0.3,0.6,1.1,0.9,1.7,0.6c0.1,0,0.2-0.1,0.3-0.2
			c1.4-1,2.2-2.6,2.2-4.3c0-1.6-1-2.4-2.2-1.7c-1,0.6-1.7,1.6-2,2.7l-13.4,7.7v-3.9l-8,4.7v3.9l-13.3,7.7c-0.3-0.6-1.1-0.9-1.7-0.6
			c-0.1,0-0.2,0.1-0.3,0.2c-1.4,1-2.2,2.6-2.2,4.3c0,1.6,1,2.4,2.2,1.7c1-0.6,1.7-1.6,2-2.7l8.5-4.9c-5.2,6.7-8.6,14.6-9.9,23
			l-3.4,2v10.7l8-4.7V67.8l-2.5,1.4c1.5-9.1,6.3-18.3,12.5-23.9v3.3l8-4.7v-3.3c6.2-1.6,11,2.1,12.5,9.4l-2.5,1.4v10.7l8.1-4.7V46.9
			L236.2,48.9z M201.3,76.9l-3.8,2.2v-5l3.8-2.2V76.9z M219.4,42.4l-3.8,2.2v-5l3.8-2.2V42.4z M237.5,56l-3.8,2.2v-5l3.8-2.2V56z"/>
		
			<linearGradient id="SVGID_34_" gradientUnits="userSpaceOnUse" x1="1925.2405" y1="1182.6578" x2="1946.2505" y2="1252.0679" gradientTransform="matrix(-1 0 0 1 2369.96 -1110.1697)">
			<stop  offset="0" style="stop-color:#0070E6"/>
			<stop  offset="1" style="stop-color:#00152B"/>
		</linearGradient>
		<path class="st38" d="M406.7,152.1V92.5c0-4,2.4-8.7,5.4-10.4l44.7-25.8c1.1-0.8,2.7-0.9,3.9-0.1l3.9,2.2c-0.7,0.6-1.5,1-2.3,1.2
			c0,0.2,0,0.5,0,0.7V120c0,4-2.4,8.7-5.4,10.4l-44,25.4l0.2,3.2l-4.3-2.5l0,0C407.4,155.8,406.7,154.3,406.7,152.1z"/>
		
			<linearGradient id="SVGID_35_" gradientUnits="userSpaceOnUse" x1="1927.0382" y1="1224.838" x2="1941.0482" y2="1204.1381" gradientTransform="matrix(-1 0 0 1 2369.96 -1110.1697)">
			<stop  offset="0" style="stop-color:#0070E6"/>
			<stop  offset="1" style="stop-color:#A5C5FF"/>
		</linearGradient>
		<path class="st39" d="M416.6,84.7l44.7-25.8c3-1.7,5.4,0.1,5.4,4.1v59.5c0,4-2.4,8.7-5.4,10.4l-44.7,25.8c-3,1.7-5.4-0.1-5.4-4.1
			V95.1C411.1,91.1,413.6,86.4,416.6,84.7z"/>
		
			<linearGradient id="SVGID_36_" gradientUnits="userSpaceOnUse" x1="1955.6736" y1="1195.063" x2="1911.1038" y2="1238.3629" gradientTransform="matrix(-1 0 0 1 2369.96 -1110.1697)">
			<stop  offset="0" style="stop-color:#0070E6"/>
			<stop  offset="1" style="stop-color:#A5C5FF"/>
		</linearGradient>
		<path class="st40" d="M414.4,157.8c-1.3,0-1.7-1.7-1.7-3.2V95.1c0-3.4,2.1-7.6,4.7-9L462,60.3c0.4-0.3,0.9-0.4,1.4-0.5
			c0.3,0,0.7,0.1,0.9,0.4c0.6,0.8,0.9,1.8,0.8,2.8v59.6c0,3.4-2.1,7.6-4.6,9l-44.7,25.8C415.3,157.6,414.9,157.8,414.4,157.8z"/>
		<path class="st37" d="M446,106c-3.3-2.5-8.6,0.6-11.9,6.9s-3.3,13.4,0,15.9c2.9,2.2,7.3,0.1,10.6-4.7l6,4.5l2.3-4.5l-6-4.5
			C449.2,113.9,448.9,108.2,446,106z M444,120.3c-2.2,4.1-5.7,6.2-7.8,4.5s-2.2-6.3,0-10.4s5.7-6.2,7.8-4.5S446.1,116.2,444,120.3
			L444,120.3z"/>
		<path class="st37" d="M458.2,100.8c-1.2-6.9-4.9-11-9.9-11.6l8.6-5c0.3,0.6,1.1,0.9,1.7,0.6c0.1,0,0.2-0.1,0.3-0.2
			c1.4-1,2.2-2.6,2.2-4.3c0-1.6-1-2.4-2.2-1.7c-1,0.6-1.7,1.6-2,2.7L443.5,89v-4l-8,4.7v4l-13.3,7.7c-0.3-0.6-1.1-0.9-1.7-0.6
			c-0.1,0-0.2,0.1-0.3,0.2c-1.4,1-2.2,2.6-2.2,4.3c0,1.6,1,2.4,2.2,1.7c1-0.6,1.7-1.6,2-2.7l8.5-4.9c-5.2,6.7-8.6,14.6-9.9,23
			l-3.4,2V135l8-4.7v-10.7l-2.5,1.4c1.5-9.1,6.3-18.3,12.5-23.9v3.3l8-4.7v-3.3c6.2-1.6,11,2.1,12.5,9.5l-2.5,1.4V114l8.1-4.7V98.8
			L458.2,100.8z M423.4,128.8l-3.8,2.2v-5l3.8-2.2V128.8z M441.4,94.3l-3.8,2.2v-5l3.8-2.2V94.3z M459.5,108l-3.8,2.2v-5l3.8-2.2
			V108z"/>
		
			<linearGradient id="SVGID_37_" gradientUnits="userSpaceOnUse" x1="2071.1538" y1="1270.0468" x2="2092.1638" y2="1339.4668" gradientTransform="matrix(-1 0 0 1 2369.96 -1110.1697)">
			<stop  offset="0" style="stop-color:#0070E6"/>
			<stop  offset="1" style="stop-color:#00152B"/>
		</linearGradient>
		<path class="st41" d="M260.8,239.5v-59.6c0-4,2.4-8.7,5.4-10.4l44.7-25.8c1.1-0.8,2.7-0.9,3.9-0.1l3.8,2.2c-0.7,0.6-1.5,1-2.3,1.2
			c0,0.2,0.1,0.5,0.1,0.7v59.6c0,4-2.4,8.7-5.4,10.4l-44,25.4l0.2,3.2l-4.3-2.5l0,0C261.5,243.2,260.8,241.7,260.8,239.5z"/>
		
			<linearGradient id="SVGID_38_" gradientUnits="userSpaceOnUse" x1="2073.0364" y1="1312.2877" x2="2087.0464" y2="1291.5978" gradientTransform="matrix(-1 0 0 1 2369.96 -1110.1697)">
			<stop  offset="0" style="stop-color:#0070E6"/>
			<stop  offset="1" style="stop-color:#A5C5FF"/>
		</linearGradient>
		<path class="st42" d="M270.6,172.1l44.7-25.8c3-1.7,5.4,0.1,5.4,4.1V210c0,4-2.4,8.7-5.4,10.4l-44.7,25.8c-3,1.7-5.4-0.1-5.4-4.1
			v-59.6C265.2,178.5,267.7,173.8,270.6,172.1z"/>
		
			<linearGradient id="SVGID_39_" gradientUnits="userSpaceOnUse" x1="2101.6108" y1="1282.4807" x2="2057.0308" y2="1325.7808" gradientTransform="matrix(-1 0 0 1 2369.96 -1110.1697)">
			<stop  offset="0" style="stop-color:#0070E6"/>
			<stop  offset="1" style="stop-color:#A5C5FF"/>
		</linearGradient>
		<path class="st43" d="M268.5,245.2c-1.3,0-1.7-1.7-1.7-3.2v-59.6c0-3.4,2.1-7.6,4.6-9l44.7-25.8c0.4-0.3,0.9-0.4,1.3-0.4
			c0.3,0,0.7,0.1,0.9,0.4c0.6,0.8,0.9,1.8,0.8,2.8V210c0,3.4-2.1,7.6-4.7,9l-44.7,25.8C269.4,245.1,269,245.2,268.5,245.2z"/>
		<path class="st37" d="M300.1,193.4c-3.3-2.5-8.6,0.6-11.9,6.9s-3.3,13.4,0,15.9c2.9,2.2,7.3,0.1,10.6-4.7l6,4.5l2.3-4.4l-6-4.5
			C303.3,201.3,302.9,195.6,300.1,193.4z M298.1,207.7c-2.2,4.1-5.7,6.2-7.8,4.5s-2.2-6.3,0-10.4s5.7-6.2,7.8-4.5
			S300.2,203.6,298.1,207.7L298.1,207.7z"/>
		<path class="st37" d="M312.4,188.2c-1.2-6.9-4.9-11-9.9-11.6l8.6-5c0.3,0.6,1.1,0.9,1.7,0.6c0.1,0,0.1-0.1,0.2-0.1
			c1.4-1,2.2-2.6,2.2-4.3s-1-2.4-2.2-1.7c-0.9,0.6-1.6,1.6-1.9,2.7l-13.4,7.7v-4l-8.1,4.7v4l-13.2,7.7c-0.3-0.6-1.1-0.9-1.7-0.6
			c-0.1,0-0.2,0.1-0.3,0.2c-1.4,1-2.2,2.6-2.2,4.3c0,1.6,1,2.4,2.2,1.7c1-0.6,1.7-1.6,2-2.7l8.5-4.9c-5.2,6.7-8.6,14.6-9.9,23
			l-3.4,2v10.8l8.1-4.7v-10.8l-2.5,1.4c1.5-9.1,6.3-18.3,12.5-23.9v3.3l8-4.7V180c6.2-1.6,11,2.1,12.5,9.4l-2.5,1.4v10.7l8-4.7V186
			L312.4,188.2z M277.5,216.2l-3.8,2.2v-5l3.8-2.2V216.2z M295.5,181.6l-3.8,2.2v-5l3.8-2.2V181.6z M313.6,195.3l-3.8,2.2v-5
			l3.8-2.2V195.3z"/>
	</g>
</g>
</svg>
