<svg xmlns="http://www.w3.org/2000/svg" width="169" height="169"><g fill="none" fill-rule="evenodd"><path stroke="#FFF" stroke-width="2" d="M117.264 112.432l.214-59.165-.214 59.165zm-41.379-16.83c0-16.555 13.42-29.977 29.976-29.977 16.555 0 29.975 13.422 29.975 29.977H75.885z"/><path fill="#FFF" fill-rule="nonzero" d="M81.168 95.76c0-13.639 11.125-24.697 24.849-24.697 13.723 0 24.849 11.058 24.849 24.697"/><path stroke="#FFF" stroke-width="2" d="M85.777 37.273H65.65a4 4 0 0 0-4 4V57.99a4 4 0 0 0 4 4h20.127a4 4 0 0 0 4-4V41.273a4 4 0 0 0-4-4zm-64.992 75.344V74.165v38.452zm127.406-.56V90.848v21.209z"/><path fill="#FFF" fill-rule="nonzero" d="M20.785 61.868c4.115 0 7.463 3.348 7.463 7.462s-3.348 7.462-7.463 7.462c-4.114 0-7.462-3.348-7.462-7.462s3.347-7.462 7.462-7.462m0-1a8.462 8.462 0 1 0 0 16.924 8.463 8.463 0 1 0 0-16.924m127.406 17.924c4.114 0 7.462 3.348 7.462 7.462s-3.348 7.461-7.462 7.461c-4.113 0-7.462-3.348-7.462-7.461 0-4.115 3.349-7.462 7.462-7.462m0-1a8.463 8.463 0 1 0-.183 16.925 8.463 8.463 0 0 0 .183-16.925"/><path stroke="#FFF" stroke-width="2" d="M158.715 113.418v-.697H9.784v.537c20.584 11.48 46.478 18.322 74.608 18.322 28 0 53.785-6.779 74.323-18.162z"/><path fill="#FFF" fill-rule="nonzero" d="M25.621 69.33a4.835 4.835 0 1 1-9.671 0 4.836 4.836 0 1 1 9.671 0m127.405 16.923a4.836 4.836 0 1 1-9.671.14 4.836 4.836 0 0 1 9.671-.14M117.509 41.29c4.114 0 7.461 3.348 7.461 7.462 0 4.115-3.347 7.462-7.461 7.462-4.114 0-7.463-3.347-7.463-7.462s3.349-7.462 7.463-7.462m0-1a8.463 8.463 0 1 0 0 16.926 8.463 8.463 0 0 0 0-16.926"/><path fill="#FFF" fill-rule="nonzero" d="M122.344 48.751a4.836 4.836 0 1 1-9.672 0 4.836 4.836 0 0 1 9.672 0"/><path stroke="#FFF" stroke-dasharray="5" stroke-width=".75" d="M158.388 112.93V18.323M10.086 112.93V21.732"/><path stroke="#FFF" stroke-width="2" d="M57.651 84.376H37.525a4 4 0 0 0-4 4v20.127a4 4 0 0 0 4 4h20.126a4 4 0 0 0 4-4V88.376a4 4 0 0 0-4-4z"/><path stroke="#FFF" stroke-dasharray="5" stroke-width=".75" d="M62.503 36.846l13.172-12.784V4.95m12.397 31.896L75.676 24.062m35.196 128.854v-23.012m-49.434 22.16v-22.16m32-62.218l13.172-12.785V13.618m12.398 54.068l-12.397-12.785"/><path stroke="#FFF" stroke-width="2" d="M56.876 149.465v2.67h9.676v-1.334m48.581-1.336v2.67h-9.675v-1.334m-41.187 1.334v5.967c-.071 3.061-2.557 6.818-2.557 6.818s-2.485-3.758-2.556-6.818v-5.967m53.695.427v5.965c-.071 3.061-2.557 6.818-2.557 6.818s-2.485-3.758-2.558-6.818v-5.965"/></g></svg>