<svg xmlns="http://www.w3.org/2000/svg" xmlns:xlink="http://www.w3.org/1999/xlink" width="284" height="289" viewBox="0 0 284 289">
    <defs>
        <path id="a" d="M78.446 68.336l-39.21 22.648L.023 68.336V23.04L39.235.393 78.446 23.04z"/>
        <linearGradient id="b" x1="0%" x2="100.016%" y1="50.002%" y2="50.002%">
            <stop offset="0%" stop-color="#304A6C"/>
            <stop offset="100%" stop-color="#38D611"/>
        </linearGradient>
        <path id="d" d="M78.835 68.321L39.625 90.97.412 68.321V23.026L39.624.378l39.21 22.648z"/>
        <linearGradient id="e" x1="-.143%" y1="49.996%" y2="49.996%">
            <stop offset="0%" stop-color="#304A6C"/>
            <stop offset="100%" stop-color="#FA0171"/>
        </linearGradient>
        <path id="g" d="M78.446 68.177l-39.21 22.648L.024 68.177V22.88L39.235.233 78.446 22.88z"/>
    </defs>
    <g fill="none" fill-rule="evenodd">
        <g stroke="#00152B" stroke-width=".5" opacity=".2">
            <path d="M81.103 94.155V71.32L61.332 59.903 41.568 71.32v22.835l19.764 11.417z"/>
            <path d="M61.332 105.588v-22.85L41.568 71.32 21.797 59.903V45.008"/>
            <path d="M81.103 71.32L61.332 82.738 41.568 94.155M81.103 94.155L61.332 82.738M120.638 94.147l-19.764 11.418v22.834l19.764 11.418 19.771-11.418v-22.834"/>
            <path d="M100.874 105.565l19.764 11.417v45.933"/>
            <path d="M140.41 105.565l-19.772 11.417-19.764 11.417"/>
            <path d="M120.638 116.982l19.771 11.417 13.587 8.259 6.317 3.842V94.046l19.77-11.417M120.638 94.147V71.313l-19.764-11.418-19.771 11.418v22.834l19.771 11.418z"/>
            <path d="M81.103 94.147l19.771-11.417 19.764-11.417 19.771-10.72V82.73M61.332 128.407v-22.835L41.568 94.155l-19.771 11.417v22.835l19.771 11.417"/>
            <path d="M21.797 90.802l-13.23 7.374 13.23 7.396 19.771 11.418v22.85"/>
            <path d="M61.332 105.572L41.568 116.99l-19.771 11.417v23.518l-19.888 10.99v-22.508M61.332 128.407L41.568 116.99"/>
            <path d="M100.874 128.4v-22.835L81.103 94.147l-19.771 11.418v22.834l19.771 11.418z"/>
            <path d="M61.332 105.565l19.771 11.417v22.85l-19.771 11.96 19.771 11.643 19.771-11.51M100.874 105.565l-19.771 11.417-19.771 11.417M8.567 67.517l13.23-7.614M8.567 113.117V98.176M81.103 25.923v22.772L61.332 59.903V36.921M120.638 94.147L100.874 82.73V45.008l13.549-7.955M127.482 52.452l12.927 8.142M41.568 162.915l-19.771-10.99M272.314 182.18v-22.835l-19.771-11.417-19.772 11.417v22.835l19.772 11.417z"/>
            <path d="M272.314 159.345l-19.771 11.417-19.772 11.418M252.543 216.432v-22.835L232.77 182.18 213 193.597v22.835l19.771 11.41"/>
            <path d="M199.778 186.192L213 193.597l19.771 11.417v22.843"/>
            <path d="M213 239.166v-22.734l19.771-11.418 19.772-11.417v-22.858M252.543 216.424l-19.772-11.41M199.855 71.22V48.384l19.764-11.418 19.771 11.418v22.834L219.62 82.637z"/>
            <path d="M219.619 82.645V59.802l19.771-11.417 19.772-11.418V22.065"/>
            <path d="M199.855 48.385l19.764 11.417L239.39 71.22M199.855 71.22l19.764-11.418M160.313 71.212l19.77 11.417v22.835l-19.77 11.41-19.764-11.41V82.629"/>
            <path d="M140.549 82.629l19.764 11.417 19.77 11.418M160.313 94.046l-19.764 11.418M160.313 71.212V48.377l19.77-11.417 19.772 11.417v22.835l-19.771 11.417z"/>
            <path d="M199.716 71.212l-19.764-11.418-19.771-11.417-19.772-10.719V60.57M219.619 105.464V82.637l19.771-11.418 19.772 11.418v22.827L239.39 116.88"/>
            <path d="M259.162 67.859l13.222 7.373-13.222 7.405-19.772 11.417v22.843"/>
            <path d="M219.619 82.637l19.771 11.417 19.772 11.41v23.517l19.887 10.999V117.47M219.619 105.464l19.771-11.41"/>
            <path d="M180.084 105.464V82.629l19.771-11.417 19.764 11.417v22.835l-19.764 11.41z"/>
            <path d="M219.619 82.629l-19.764 11.417v22.843l19.764 11.968-19.764 11.643-19.849-11.557"/>
            <path d="M180.084 82.629l19.771 11.417 19.764 11.418M199.855 2.98v22.772l19.764 11.215V13.985M160.313 71.212l19.77-11.418V22.065l-13.547-7.956M153.337 29.516l-12.928 8.142M140.471 197.78v22.835l-19.771 11.41-19.771-11.41v-22.834l19.771-11.418z"/>
            <path d="M120.7 186.348v22.85l-19.771 11.417-19.764 11.41v14.902M140.471 220.615L120.7 209.198l-19.771-11.417M140.471 197.78L120.7 209.199M180.006 197.788l-19.763-11.417v-22.835l19.763-11.417 19.772 11.417v22.835"/>
            <path d="M160.243 186.371l19.763-11.417v-46.011"/>
            <path d="M199.778 186.371l-19.772-11.417-19.763-11.418"/>
            <path d="M180.006 174.954l19.772-11.418 13.587-8.258M180.006 197.788v22.827l-19.763 11.418-19.772-11.418v-22.827l19.772-11.417z"/>
            <path d="M140.471 197.788l19.772 11.418 19.763 11.41 14.837 8.048L213 238.684M120.7 163.528v22.835l-19.771 11.418-19.764-11.418v-22.835"/>
            <path d="M81.165 201.134l-13.23-7.374 13.23-7.397 19.764-11.417v-22.85M120.7 163.528l-19.771 11.418M160.243 163.536v22.835l-19.772 11.417-19.771-11.417v-22.835l19.771-11.417z"/>
            <path d="M120.7 186.371l19.771-11.417v-22.85L120.7 140.142"/>
            <path d="M160.243 186.371l-19.772-11.417-19.771-11.418M67.935 224.418l13.23 7.615M67.935 178.819v14.941M140.471 266.013V243.24L120.7 232.025v22.99M180.006 197.788l-19.763 11.418V246.927l13.548 7.956M232.771 159.345l39.543 22.835"/>
        </g>
        <g fill="#00152B" fill-rule="nonzero" opacity=".3" transform="translate(0 1)">
            <ellipse cx="21.797" cy="42.961" rx="1.901" ry="1.902"/>
            <ellipse cx="7.961" cy="66.517" rx="1.901" ry="1.902"/>
            <ellipse cx="21.797" cy="58.903" rx="1.901" ry="1.902"/>
            <ellipse cx="41.335" cy="70.32" rx="1.901" ry="1.902"/>
            <ellipse cx="61.347" cy="81.629" rx="1.901" ry="1.902"/>
            <ellipse cx="100.882" cy="81.629" rx="1.901" ry="1.902"/>
            <ellipse cx="61.347" cy="58.903" rx="1.901" ry="1.902"/>
            <ellipse cx="61.347" cy="36.053" rx="1.901" ry="1.902"/>
            <ellipse cx="81.103" cy="24.923" rx="1.901" ry="1.902"/>
            <ellipse cx="81.103" cy="47.618" rx="1.901" ry="1.902"/>
            <ellipse cx="81.103" cy="70.32" rx="1.901" ry="1.902"/>
            <ellipse cx="81.103" cy="93.046" rx="1.901" ry="1.902"/>
            <ellipse cx="61.347" cy="104.588" rx="1.901" ry="1.902"/>
            <ellipse cx="61.332" cy="127.547" rx="1.901" ry="1.902"/>
            <ellipse cx="41.335" cy="116.005" rx="1.901" ry="1.902"/>
            <ellipse cx="41.188" cy="138.817" rx="1.901" ry="1.902"/>
            <ellipse cx="21.797" cy="127.399" rx="1.901" ry="1.902"/>
            <ellipse cx="21.797" cy="150.925" rx="1.901" ry="1.902"/>
            <ellipse cx="40.939" cy="161.628" rx="1.901" ry="1.902"/>
            <ellipse cx="1.909" cy="161.628" rx="1.901" ry="1.902"/>
            <ellipse cx="1.909" cy="139.896" rx="1.901" ry="1.902"/>
            <ellipse cx="81.103" cy="116.005" rx="1.901" ry="1.902"/>
            <ellipse cx="81.165" cy="138.817" rx="1.901" ry="1.902"/>
            <ellipse cx="100.874" cy="127.547" rx="1.901" ry="1.902"/>
            <ellipse cx="61.347" cy="150.925" rx="1.901" ry="1.902"/>
            <ellipse cx="100.882" cy="59.175" rx="1.901" ry="1.902"/>
            <ellipse cx="100.936" cy="44.008" rx="1.901" ry="1.902"/>
            <ellipse cx="114.345" cy="36.053" rx="1.901" ry="1.902"/>
            <ellipse cx="120.638" cy="70.592" rx="1.901" ry="1.902"/>
            <ellipse cx="127.482" cy="51.529" rx="1.901" ry="1.902"/>
            <ellipse cx="140.409" cy="59.594" rx="1.901" ry="1.902"/>
            <ellipse cx="140.409" cy="36.658" rx="1.901" ry="1.902"/>
            <ellipse cx="153.337" cy="28.516" rx="1.901" ry="1.902"/>
            <ellipse cx="160.313" cy="47.385" rx="1.901" ry="1.902"/>
            <ellipse cx="160.313" cy="70.32" rx="1.901" ry="1.902"/>
            <ellipse cx="199.716" cy="70.212" rx="1.901" ry="1.902"/>
            <ellipse cx="180.006" cy="59.283" rx="1.901" ry="1.902"/>
            <ellipse cx="180.084" cy="81.629" rx="1.901" ry="1.902"/>
            <ellipse cx="180.154" cy="104.332" rx="1.901" ry="1.902"/>
            <ellipse cx="219.557" cy="104.223" rx="1.901" ry="1.902"/>
            <ellipse cx="239.39" cy="93.054" rx="1.901" ry="1.902"/>
            <ellipse cx="239.39" cy="115.982" rx="1.901" ry="1.902"/>
            <ellipse cx="219.557" cy="127.943" rx="1.901" ry="1.902"/>
            <ellipse cx="200.329" cy="139.143" rx="1.901" ry="1.902"/>
            <ellipse cx="180.154" cy="128.463" rx="1.901" ry="1.902"/>
            <ellipse cx="180.006" cy="151.119" rx="1.901" ry="1.902"/>
            <ellipse cx="199.778" cy="162.536" rx="1.901" ry="1.902"/>
            <ellipse cx="160.313" cy="162.87" rx="1.901" ry="1.902"/>
            <ellipse cx="213.008" cy="154.278" rx="1.901" ry="1.902"/>
            <ellipse cx="259.162" cy="104.332" rx="1.901" ry="1.902"/>
            <ellipse cx="279.049" cy="116.898" rx="1.901" ry="1.902"/>
            <ellipse cx="279.049" cy="138.817" rx="1.901" ry="1.902"/>
            <ellipse cx="259.162" cy="127.943" rx="1.901" ry="1.902"/>
            <ellipse cx="199.848" cy="93.295" rx="1.901" ry="1.902"/>
            <ellipse cx="199.917" cy="115.64" rx="1.901" ry="1.902"/>
            <ellipse cx="199.855" cy="47.618" rx="1.901" ry="1.902"/>
            <ellipse cx="180.084" cy="36.053" rx="1.901" ry="1.902"/>
            <ellipse cx="238.847" cy="70.165" rx="1.901" ry="1.902"/>
            <ellipse cx="219.138" cy="59.237" rx="1.901" ry="1.902"/>
            <ellipse cx="219.619" cy="81.582" rx="1.901" ry="1.902"/>
            <ellipse cx="252.481" cy="170.003" rx="1.901" ry="1.902"/>
            <ellipse cx="272.314" cy="158.826" rx="1.901" ry="1.902"/>
            <ellipse cx="272.314" cy="180.986" rx="1.901" ry="1.902"/>
            <ellipse cx="252.481" cy="192.162" rx="1.901" ry="1.902"/>
            <ellipse cx="232.771" cy="159.075" rx="1.901" ry="1.902"/>
            <ellipse cx="232.841" cy="181.413" rx="1.901" ry="1.902"/>
            <ellipse cx="232.717" cy="204.1" rx="1.901" ry="1.902"/>
            <ellipse cx="252.481" cy="214.927" rx="1.901" ry="1.902"/>
            <ellipse cx="232.717" cy="226.267" rx="1.901" ry="1.902"/>
            <ellipse cx="213.008" cy="193.171" rx="1.901" ry="1.902"/>
            <ellipse cx="180.006" cy="173.946" rx="1.901" ry="1.902"/>
            <ellipse cx="160.313" cy="185.192" rx="1.901" ry="1.902"/>
            <ellipse cx="199.778" cy="185.371" rx="1.901" ry="1.902"/>
            <ellipse cx="213.078" cy="215.517" rx="1.901" ry="1.902"/>
            <ellipse cx="180.053" cy="196.75" rx="1.901" ry="1.902"/>
            <ellipse cx="160.289" cy="207.911" rx="1.901" ry="1.902"/>
            <ellipse cx="180.053" cy="219.514" rx="1.901" ry="1.902"/>
            <ellipse cx="160.289" cy="230.854" rx="1.901" ry="1.902"/>
            <ellipse cx="160.289" cy="245.927" rx="1.901" ry="1.902"/>
            <ellipse cx="140.471" cy="265.013" rx="1.901" ry="1.902"/>
            <ellipse cx="140.471" cy="242.132" rx="1.901" ry="1.902"/>
            <ellipse cx="120.7" cy="253.883" rx="1.901" ry="1.902"/>
            <ellipse cx="120.7" cy="230.854" rx="1.901" ry="1.902"/>
            <ellipse cx="100.874" cy="219.514" rx="1.901" ry="1.902"/>
            <ellipse cx="81.165" cy="230.854" rx="1.901" ry="1.902"/>
            <ellipse cx="81.103" cy="245.927" rx="1.901" ry="1.902"/>
            <ellipse cx="67.935" cy="223.418" rx="1.901" ry="1.902"/>
            <ellipse cx="173.869" cy="253.883" rx="1.901" ry="1.902"/>
            <ellipse cx="140.58" cy="197.766" rx="1.901" ry="1.902"/>
            <ellipse cx="120.638" cy="208.206" rx="1.901" ry="1.902"/>
            <ellipse cx="100.929" cy="196.75" rx="1.901" ry="1.902"/>
            <ellipse cx="120.7" cy="185.371" rx="1.901" ry="1.902"/>
            <ellipse cx="140.409" cy="173.946" rx="1.901" ry="1.902"/>
            <ellipse cx="140.409" cy="151.119" rx="1.901" ry="1.902"/>
            <ellipse cx="120.638" cy="162.536" rx="1.901" ry="1.902"/>
            <ellipse cx="100.929" cy="173.946" rx="1.901" ry="1.902"/>
            <ellipse cx="81.165" cy="185.348" rx="1.901" ry="1.902"/>
            <ellipse cx="81.165" cy="162.435" rx="1.901" ry="1.902"/>
            <ellipse cx="100.874" cy="151.096" rx="1.901" ry="1.902"/>
            <ellipse cx="67.935" cy="192.597" rx="1.901" ry="1.902"/>
            <ellipse cx="67.935" cy="177.819" rx="1.901" ry="1.902"/>
            <ellipse cx="81.103" cy="200.134" rx="1.901" ry="1.902"/>
            <ellipse cx="140.65" cy="220.104" rx="1.901" ry="1.902"/>
            <ellipse cx="213.078" cy="237.684" rx="1.901" ry="1.902"/>
            <ellipse cx="252.55" cy="147.362" rx="1.901" ry="1.902"/>
            <ellipse cx="238.979" cy="47.579" rx="1.901" ry="1.902"/>
            <ellipse cx="259.162" cy="21.065" rx="1.901" ry="1.902"/>
            <ellipse cx="219.619" cy="35.96" rx="1.901" ry="1.902"/>
            <ellipse cx="259.162" cy="35.96" rx="1.901" ry="1.902"/>
            <ellipse cx="259.938" cy="67.301" rx="1.901" ry="1.902"/>
            <ellipse cx="272.384" cy="74.124" rx="1.901" ry="1.902"/>
            <ellipse cx="259.162" cy="81.582" rx="1.901" ry="1.902"/>
            <ellipse cx="219.619" cy="13.109" rx="1.901" ry="1.902"/>
            <ellipse cx="199.855" cy="2.36" rx="1.901" ry="1.902"/>
            <ellipse cx="199.855" cy="24.713" rx="1.901" ry="1.902"/>
            <ellipse cx="180.006" cy="21.065" rx="1.901" ry="1.902"/>
            <ellipse cx="166.885" cy="13.109" rx="1.901" ry="1.902"/>
            <ellipse cx="120.638" cy="93.318" rx="1.901" ry="1.902"/>
            <ellipse cx="100.882" cy="104.86" rx="1.901" ry="1.902"/>
            <ellipse cx="120.7" cy="115.866" rx="1.901" ry="1.902"/>
            <ellipse cx="120.754" cy="138.677" rx="1.901" ry="1.902"/>
            <ellipse cx="140.464" cy="127.407" rx="1.901" ry="1.902"/>
            <ellipse cx="160.313" cy="139.143" rx="1.901" ry="1.902"/>
            <ellipse cx="140.471" cy="104.72" rx="1.901" ry="1.902"/>
            <ellipse cx="160.313" cy="93.046" rx="1.901" ry="1.902"/>
            <ellipse cx="140.549" cy="81.582" rx="1.901" ry="1.902"/>
            <ellipse cx="160.243" cy="115.64" rx="1.901" ry="1.902"/>
            <ellipse cx="41.568" cy="93.171" rx="1.901" ry="1.902"/>
            <ellipse cx="22.262" cy="104.86" rx="1.901" ry="1.902"/>
            <ellipse cx="8.567" cy="97.176" rx="1.901" ry="1.902"/>
            <ellipse cx="8.567" cy="112.117" rx="1.901" ry="1.902"/>
            <ellipse cx="21.797" cy="89.802" rx="1.901" ry="1.902"/>
        </g>
        <g fill="#00152B" fill-rule="nonzero" opacity=".1" transform="translate(3.104 16.523)">
            <ellipse cx="18.576" cy="27.197" rx="4.943" ry="4.944"/>
            <ellipse cx="77.999" cy="31.861" rx="4.943" ry="4.944"/>
            <ellipse cx="124.378" cy="35.835" rx="4.943" ry="4.944"/>
            <ellipse cx="256.058" cy="5.363" rx="4.943" ry="4.944"/>
            <ellipse cx="216.453" cy="20.436" rx="4.943" ry="4.944"/>
            <ellipse cx="176.903" cy="5.72" rx="4.943" ry="4.944"/>
            <ellipse cx="256.058" cy="66.121" rx="4.943" ry="4.944"/>
            <ellipse cx="275.946" cy="123.154" rx="4.943" ry="4.944"/>
            <ellipse cx="269.28" cy="165.462" rx="4.943" ry="4.944"/>
            <ellipse cx="229.613" cy="210.744" rx="4.943" ry="4.944"/>
            <ellipse cx="249.439" cy="131.839" rx="4.943" ry="4.944"/>
            <ellipse cx="157.108" cy="230.404" rx="4.943" ry="4.944"/>
            <ellipse cx="117.596" cy="238.36" rx="4.943" ry="4.944"/>
            <ellipse cx="77.999" cy="215.331" rx="4.943" ry="4.944"/>
            <ellipse cx="197.225" cy="123.293" rx="4.943" ry="4.944"/>
            <ellipse cx="97.77" cy="135.596" rx="4.943" ry="4.944"/>
            <ellipse cx="117.534" cy="77.795" rx="4.943" ry="4.944"/>
            <ellipse cx="5.463" cy="81.652" rx="4.943" ry="4.944"/>
            <ellipse cx="64.831" cy="177.237" rx="4.943" ry="4.944"/>
            <ellipse cx="137.305" cy="158.43" rx="4.943" ry="4.944"/>
            <ellipse cx="18.693" cy="135.402" rx="4.943" ry="4.944"/>
            <ellipse cx="38.084" cy="54.688" rx="4.943" ry="4.944"/>
        </g>
        <g transform="translate(62.077 36.26)">
            <mask id="c" fill="#fff">
                <use xlink:href="#a"/>
            </mask>
            <path fill="url(#b)" d="M78.446 68.336V23.04L39.236.393.023 23.04v45.296l39.211 22.648z" mask="url(#c)" opacity=".7"/>
        </g>
        <g transform="translate(180.022 58.773)">
            <mask id="f" fill="#fff">
                <use xlink:href="#d"/>
            </mask>
            <path fill="url(#e)" d="M78.835 68.321V23.026L39.625.378.412 23.026v45.295L39.624 90.97z" mask="url(#f)" opacity=".7"/>
        </g>
        <g transform="translate(99.322 196.95)">
            <mask id="h" fill="#fff">
                <use xlink:href="#g"/>
            </mask>
            <path fill="url(#e)" d="M78.446 68.177V22.88L39.236.233.024 22.88v45.296l39.21 22.648z" mask="url(#h)" opacity=".7"/>
        </g>
        <path fill="#FA0171" d="M258.028 30.138a6.403 6.403 0 0 0-6.394 6.397 6.403 6.403 0 0 0 6.394 6.396 6.403 6.403 0 0 0 6.394-6.396 6.403 6.403 0 0 0-6.394-6.397m0 13.57c-3.954 0-7.17-3.218-7.17-7.173s3.216-7.173 7.17-7.173c3.953 0 7.17 3.218 7.17 7.173s-3.217 7.173-7.17 7.173M179.916 30.138a6.403 6.403 0 0 0-6.394 6.397 6.403 6.403 0 0 0 6.394 6.396 6.403 6.403 0 0 0 6.394-6.396 6.403 6.403 0 0 0-6.394-6.397m0 13.57c-3.953 0-7.17-3.218-7.17-7.173s3.217-7.173 7.17-7.173c3.954 0 7.17 3.218 7.17 7.173s-3.216 7.173-7.17 7.173M232.704 153.013a6.403 6.403 0 0 0-6.393 6.397 6.403 6.403 0 0 0 6.393 6.397 6.403 6.403 0 0 0 6.394-6.397 6.403 6.403 0 0 0-6.394-6.397m0 13.57c-3.953 0-7.17-3.218-7.17-7.173 0-3.954 3.217-7.173 7.17-7.173 3.954 0 7.17 3.219 7.17 7.173 0 3.955-3.216 7.173-7.17 7.173M196.57 177.414a6.403 6.403 0 0 0-6.394 6.397 6.403 6.403 0 0 0 6.393 6.396 6.403 6.403 0 0 0 6.394-6.396 6.403 6.403 0 0 0-6.394-6.397m0 13.57c-3.953 0-7.17-3.218-7.17-7.173s3.217-7.173 7.17-7.173c3.954 0 7.17 3.218 7.17 7.173s-3.216 7.172-7.17 7.172M100.765 256.983a6.403 6.403 0 0 0-6.394 6.396 6.402 6.402 0 0 0 6.394 6.396 6.402 6.402 0 0 0 6.393-6.396 6.403 6.403 0 0 0-6.393-6.396m0 13.568c-3.954 0-7.17-3.217-7.17-7.172 0-3.954 3.216-7.173 7.17-7.173 3.953 0 7.17 3.219 7.17 7.173 0 3.955-3.217 7.172-7.17 7.172"/>
        <path fill="#38D611" d="M67.926 186.708a6.403 6.403 0 0 0-6.394 6.397 6.402 6.402 0 0 0 6.394 6.395 6.402 6.402 0 0 0 6.394-6.395 6.403 6.403 0 0 0-6.394-6.397m0 13.569c-3.954 0-7.17-3.217-7.17-7.172 0-3.956 3.216-7.173 7.17-7.173 3.953 0 7.17 3.217 7.17 7.173 0 3.955-3.217 7.172-7.17 7.172M21.668 98.791a6.403 6.403 0 0 0-6.394 6.397 6.402 6.402 0 0 0 6.394 6.396 6.402 6.402 0 0 0 6.394-6.396 6.403 6.403 0 0 0-6.394-6.397m0 13.569c-3.954 0-7.17-3.217-7.17-7.172 0-3.955 3.216-7.173 7.17-7.173 3.953 0 7.17 3.218 7.17 7.173s-3.217 7.172-7.17 7.172M61.134 52.824a6.403 6.403 0 0 0-6.393 6.397 6.403 6.403 0 0 0 6.393 6.396 6.403 6.403 0 0 0 6.394-6.396 6.403 6.403 0 0 0-6.394-6.397m0 13.57c-3.953 0-7.17-3.218-7.17-7.173s3.217-7.173 7.17-7.173c3.954 0 7.17 3.218 7.17 7.173s-3.216 7.172-7.17 7.172"/>
        <g>
            <path fill="#FA0171" d="M179.301 37.72a1.562 1.562 0 0 1-.574-2.127 1.55 1.55 0 0 1 2.118-.568 1.552 1.552 0 0 1 .574 2.12 1.563 1.563 0 0 1-2.118.575m76.075.745a1.545 1.545 0 0 1 .566-2.12 1.555 1.555 0 0 1 2.119.568 1.548 1.548 0 0 1-.567 2.118 1.55 1.55 0 0 1-2.118-.566m-72.04 1.567a1.55 1.55 0 0 1 1.544-2.685 1.551 1.551 0 0 1-.776 2.896c-.256 0-.527-.062-.768-.21m68.005.76a1.558 1.558 0 0 1 .566-2.12 1.566 1.566 0 0 1 2.126.568 1.55 1.55 0 0 1-.574 2.119 1.55 1.55 0 0 1-2.118-.566m-63.97 1.567a1.552 1.552 0 1 1 2.118-.574 1.551 1.551 0 0 1-1.35.776c-.256 0-.528-.062-.768-.202m59.935.762a1.552 1.552 0 0 1 .574-2.12 1.557 1.557 0 0 1 2.118.567c.427.745.171 1.692-.566 2.126-.248.14-.512.203-.776.203-.535 0-1.063-.28-1.35-.776m-55.9 1.56a1.552 1.552 0 1 1 2.118-.575 1.532 1.532 0 0 1-1.342.776c-.264 0-.536-.062-.776-.2m51.873.768a1.551 1.551 0 0 1 .566-2.12 1.555 1.555 0 0 1 2.118.567 1.548 1.548 0 0 1-.566 2.119 1.55 1.55 0 0 1-2.118-.566m-47.838 1.552a1.543 1.543 0 0 1-.567-2.12 1.542 1.542 0 0 1 2.111-.574 1.554 1.554 0 0 1 .574 2.12 1.542 1.542 0 0 1-2.118.574m43.803.776a1.558 1.558 0 0 1 .566-2.12 1.555 1.555 0 0 1 1.552 2.694 1.53 1.53 0 0 1-.768.203 1.538 1.538 0 0 1-1.35-.777m-39.768 1.544a1.548 1.548 0 0 1-.567-2.118 1.55 1.55 0 0 1 2.119-.575c.737.435.993 1.382.566 2.128a1.551 1.551 0 0 1-1.342.776c-.264 0-.528-.07-.776-.21m35.733.784a1.554 1.554 0 1 1 2.126.574 1.571 1.571 0 0 1-2.126-.574m-31.698 1.544a1.565 1.565 0 0 1-.567-2.126 1.548 1.548 0 0 1 2.119-.567c.737.427.993 1.374.574 2.12a1.571 1.571 0 0 1-2.126.573m27.67.785a1.551 1.551 0 0 1 .567-2.12 1.555 1.555 0 0 1 2.118.568 1.541 1.541 0 0 1-.566 2.118 1.55 1.55 0 0 1-2.118-.566m-23.636 1.53a1.555 1.555 0 0 1-.567-2.12 1.555 1.555 0 0 1 2.119-.567c.745.427.993 1.374.574 2.119a1.56 1.56 0 0 1-2.126.567m19.6.8a1.552 1.552 0 0 1 .575-2.12 1.55 1.55 0 0 1 2.118.567c.427.746.17 1.693-.566 2.127-.249.14-.513.202-.776.202-.536 0-1.063-.28-1.35-.776m-15.558 1.53a1.554 1.554 0 0 1-.575-2.12 1.549 1.549 0 0 1 2.119-.574 1.55 1.55 0 0 1 .574 2.118 1.562 1.562 0 0 1-2.118.575m11.53.8a1.545 1.545 0 0 1 .567-2.12 1.557 1.557 0 0 1 2.118.567 1.554 1.554 0 0 1-1.342 2.33 1.55 1.55 0 0 1-1.343-.777m-7.495 1.521a1.552 1.552 0 1 1 2.118-.574 1.554 1.554 0 0 1-1.35.783c-.264 0-.528-.069-.768-.209m3.46.808a1.558 1.558 0 0 1 .567-2.12 1.555 1.555 0 0 1 1.552 2.693c-.24.14-.512.203-.776.203a1.55 1.55 0 0 1-1.343-.776M179.844 129.98a1.548 1.548 0 0 1-.55-2.126 1.553 1.553 0 1 1 1.334 2.344c-.272 0-.543-.07-.784-.217m4.004 2.367a1.554 1.554 0 0 1-.543-2.127 1.544 1.544 0 0 1 2.126-.543c.737.435.978 1.382.543 2.119a1.54 1.54 0 0 1-2.126.551m4.012 2.368a1.557 1.557 0 0 1-.551-2.127 1.555 1.555 0 0 1 2.126-.551 1.557 1.557 0 0 1-.791 2.895c-.264 0-.536-.07-.784-.217m4.012 2.367a1.557 1.557 0 0 1-.551-2.127 1.555 1.555 0 0 1 2.126-.55c.737.434.985 1.389.55 2.126a1.56 1.56 0 0 1-1.342.761c-.263 0-.535-.07-.783-.21m4.011 2.368a1.557 1.557 0 0 1-.55-2.127 1.555 1.555 0 0 1 2.126-.551c.737.435.985 1.39.55 2.127a1.56 1.56 0 0 1-1.342.76c-.264 0-.535-.07-.784-.209m4.004 2.36a1.545 1.545 0 0 1-.543-2.12 1.547 1.547 0 0 1 2.126-.55 1.554 1.554 0 0 1-.791 2.887 1.54 1.54 0 0 1-.792-.217m4.012 2.368a1.548 1.548 0 0 1-.543-2.127 1.537 1.537 0 0 1 2.118-.544c.737.435.986 1.39.551 2.127a1.548 1.548 0 0 1-2.126.544m4.012 2.367a1.557 1.557 0 0 1-.551-2.127 1.546 1.546 0 0 1 2.126-.543c.737.435.985 1.39.55 2.127a1.56 1.56 0 0 1-1.342.76c-.263 0-.535-.07-.783-.217m4.011 2.368a1.557 1.557 0 0 1-.55-2.127 1.553 1.553 0 0 1 2.126-.543c.737.434.985 1.38.55 2.119a1.551 1.551 0 0 1-1.342.768c-.264 0-.535-.07-.784-.217m4.012 2.368a1.55 1.55 0 0 1-.55-2.127 1.546 1.546 0 0 1 2.125-.544c.737.435.986 1.382.543 2.119-.287.49-.807.769-1.334.769-.272 0-.543-.07-.784-.217m4.004 2.367a1.554 1.554 0 0 1-.543-2.127 1.55 1.55 0 1 1 1.335 2.337 1.61 1.61 0 0 1-.792-.21m4.012 2.368a1.557 1.557 0 0 1-.551-2.127 1.555 1.555 0 0 1 2.126-.551c.737.435.985 1.39.55 2.127-.286.489-.806.76-1.334.76a1.61 1.61 0 0 1-.791-.209m4.011 2.36a1.548 1.548 0 0 1-.55-2.12 1.555 1.555 0 0 1 2.126-.55c.737.434.985 1.389.55 2.126a1.56 1.56 0 0 1-1.342.761c-.264 0-.535-.07-.784-.217m4.012 2.368a1.548 1.548 0 0 1-.55-2.12 1.548 1.548 0 0 1 2.125-.55c.737.434.986 1.388.551 2.126a1.57 1.57 0 0 1-1.342.76c-.272 0-.543-.069-.784-.216M139.207 198.852a1.547 1.547 0 0 1 .613-2.104 1.55 1.55 0 0 1 1.49 2.717 1.504 1.504 0 0 1-.745.194 1.554 1.554 0 0 1-1.358-.807m-4.089 2.236a1.556 1.556 0 0 1 .62-2.104 1.546 1.546 0 0 1 2.104.613c.411.754.14 1.693-.613 2.112a1.59 1.59 0 0 1-.745.186 1.56 1.56 0 0 1-1.366-.807m-4.081 2.235a1.55 1.55 0 0 1 .62-2.103 1.548 1.548 0 0 1 2.103.613c.411.754.14 1.7-.613 2.112-.24.131-.496.186-.745.186-.55 0-1.078-.287-1.365-.808m-4.082 2.237a1.545 1.545 0 0 1 .62-2.104 1.55 1.55 0 0 1 2.104.62c.41.753.14 1.693-.621 2.104a1.496 1.496 0 0 1-.737.194c-.551 0-1.087-.294-1.366-.814m-4.081 2.242a1.557 1.557 0 0 1 .613-2.11 1.559 1.559 0 0 1 2.11.62 1.55 1.55 0 0 1-.62 2.104 1.504 1.504 0 0 1-.746.194 1.554 1.554 0 0 1-1.357-.808m-4.082 2.236a1.54 1.54 0 0 1 .613-2.104 1.557 1.557 0 0 1 2.11.614 1.567 1.567 0 0 1-.62 2.111 1.554 1.554 0 0 1-2.103-.621m-4.09 2.236a1.55 1.55 0 0 1 .621-2.104 1.546 1.546 0 0 1 2.103.613c.412.753.14 1.701-.613 2.112-.24.124-.496.186-.745.186a1.55 1.55 0 0 1-1.365-.807m-4.082 2.235a1.556 1.556 0 0 1 .613-2.103c.753-.41 1.7-.132 2.11.613.412.753.133 1.7-.612 2.111-.24.133-.497.195-.745.187-.551 0-1.086-.287-1.366-.808m-4.081 2.245c-.412-.754-.14-1.701.613-2.113.752-.41 1.699-.132 2.11.622a1.55 1.55 0 0 1-.62 2.104 1.504 1.504 0 0 1-.745.194 1.555 1.555 0 0 1-1.358-.807m-4.082 2.235a1.54 1.54 0 0 1 .613-2.104 1.545 1.545 0 0 1 2.103.614 1.54 1.54 0 0 1-.613 2.103 1.504 1.504 0 0 1-.745.194 1.552 1.552 0 0 1-1.358-.807m-3.15 2.158a1.552 1.552 0 1 1 3.104 0c0 .861-.691 1.56-1.552 1.56a1.558 1.558 0 0 1-1.552-1.56m0 4.657a1.55 1.55 0 0 1 1.552-1.544c.861 0 1.552.69 1.552 1.544a1.552 1.552 0 1 1-3.104 0m0 4.666c0-.862.698-1.56 1.552-1.56.861 0 1.552.698 1.552 1.56a1.552 1.552 0 1 1-3.104 0m0 4.65a1.552 1.552 0 1 1 3.104 0c0 .861-.691 1.56-1.552 1.56a1.558 1.558 0 0 1-1.552-1.56m0 4.657a1.55 1.55 0 0 1 1.552-1.544c.861 0 1.552.69 1.552 1.544a1.552 1.552 0 1 1-3.104 0m0 4.666a1.552 1.552 0 1 1 3.104 0c0 .854-.691 1.545-1.552 1.545a1.55 1.55 0 0 1-1.552-1.545m0 4.65a1.552 1.552 0 1 1 3.104 0c0 .861-.691 1.56-1.552 1.56a1.558 1.558 0 0 1-1.552-1.56m0 4.657a1.55 1.55 0 0 1 1.552-1.544c.861 0 1.552.69 1.552 1.544a1.552 1.552 0 1 1-3.104 0m0 4.666a1.552 1.552 0 1 1 3.104 0c0 .854-.691 1.545-1.552 1.545a1.55 1.55 0 0 1-1.552-1.545m0 4.658c0-.862.698-1.56 1.552-1.56.861 0 1.552.698 1.552 1.56a1.552 1.552 0 1 1-3.104 0"/>
            <path fill="#38D611" d="M99.929 174.29a1.548 1.548 0 0 1 .55-2.119 1.554 1.554 0 0 1 1.576 2.679c-.248.138-.52.21-.784.21a1.542 1.542 0 0 1-1.342-.77m-4.012 2.36a1.548 1.548 0 0 1 .551-2.119 1.548 1.548 0 1 1 1.567 2.67 1.539 1.539 0 0 1-2.118-.551m-4.012 2.36a1.54 1.54 0 0 1 .551-2.119 1.546 1.546 0 0 1 2.119.551 1.54 1.54 0 0 1-.551 2.12c-.249.146-.52.217-.784.217a1.53 1.53 0 0 1-1.335-.769m-4.019 2.36a1.556 1.556 0 0 1 .55-2.127 1.55 1.55 0 0 1 2.127.56 1.546 1.546 0 0 1-.55 2.118c-.25.148-.52.217-.785.217-.535 0-1.055-.27-1.342-.768m-4.012 2.36a1.556 1.556 0 0 1 .551-2.127 1.55 1.55 0 1 1 1.567 2.678 1.541 1.541 0 0 1-2.118-.551m-4.02 2.36a1.552 1.552 0 1 1 2.679-1.57 1.552 1.552 0 0 1-2.678 1.57m-4.012 2.36a1.557 1.557 0 0 1 .551-2.127 1.555 1.555 0 1 1 .792 2.895 1.567 1.567 0 0 1-1.343-.768m-4.012 2.36a1.557 1.557 0 0 1 .551-2.127 1.555 1.555 0 1 1 .784 2.895c-.528 0-1.047-.28-1.335-.768m-4.011 2.36a1.55 1.55 0 1 1 2.669-1.576 1.548 1.548 0 0 1-.55 2.127 1.514 1.514 0 0 1-.785.217c-.527 0-1.047-.28-1.334-.768M62.35 61.606a1.55 1.55 0 0 1-.575-2.119 1.553 1.553 0 0 1 2.693 1.544 1.545 1.545 0 0 1-2.119.575m4.035 2.32a1.551 1.551 0 0 1-.574-2.118 1.55 1.55 0 0 1 2.118-.574 1.55 1.55 0 0 1 .574 2.118 1.557 1.557 0 0 1-1.342.784c-.264 0-.528-.07-.776-.21m4.035 2.322a1.557 1.557 0 0 1-.566-2.12 1.55 1.55 0 1 1 1.342 2.322c-.264 0-.528-.062-.776-.202m4.043 2.32a1.553 1.553 0 1 1 2.118-.574 1.553 1.553 0 0 1-1.35.777c-.256 0-.528-.062-.768-.202m4.035 2.313a1.551 1.551 0 0 1-.574-2.119 1.555 1.555 0 0 1 2.692 1.553 1.553 1.553 0 0 1-1.35.776 1.47 1.47 0 0 1-.768-.21m4.035 2.321a1.558 1.558 0 0 1-.574-2.119 1.558 1.558 0 0 1 2.118-.574 1.553 1.553 0 1 1-.776 2.903c-.256 0-.528-.07-.768-.21m4.042 2.321A1.551 1.551 0 0 1 86 73.405a1.54 1.54 0 0 1 2.119-.567 1.551 1.551 0 0 1-.776 2.896c-.264 0-.528-.07-.769-.21m4.035 2.321a1.551 1.551 0 0 1-.574-2.119 1.551 1.551 0 1 1 2.693 1.545 1.553 1.553 0 0 1-1.35.784c-.264 0-.528-.07-.769-.21m4.035 2.322a1.552 1.552 0 1 1 2.118-.574 1.544 1.544 0 0 1-2.118.574m4.035 2.32a1.542 1.542 0 0 1-.566-2.119 1.55 1.55 0 0 1 2.118-.574c.737.427.994 1.374.567 2.12a1.566 1.566 0 0 1-2.118.574m.636 2.491c0-.853.698-1.552 1.552-1.552.86 0 1.551.69 1.551 1.552a1.545 1.545 0 0 1-1.544 1.553c-.861 0-1.552-.69-1.56-1.553m.008 4.658a1.552 1.552 0 1 1 3.104 0 1.545 1.545 0 0 1-1.544 1.553c-.861 0-1.552-.691-1.56-1.553m.008 4.658a1.552 1.552 0 1 1 3.104 0 1.55 1.55 0 0 1-1.544 1.552c-.861 0-1.56-.69-1.56-1.552m.008 4.658a1.552 1.552 0 1 1 3.104-.002 1.552 1.552 0 0 1-3.104.002m.008 4.657a1.552 1.552 0 1 1 3.103-.001 1.552 1.552 0 0 1-3.103.001m.007 4.658a1.545 1.545 0 0 1 1.545-1.553c.86 0 1.552.691 1.56 1.553a1.552 1.552 0 1 1-3.104 0m.007 4.658a1.545 1.545 0 0 1 1.544-1.553c.862 0 1.552.69 1.56 1.553 0 .853-.698 1.552-1.552 1.552-.861 0-1.552-.69-1.552-1.552m0 4.657c0-.854.699-1.552 1.552-1.552.861 0 1.552.69 1.552 1.552a1.55 1.55 0 0 1-1.544 1.553c-.861 0-1.56-.691-1.56-1.553m.008 4.658a1.552 1.552 0 1 1 3.104-.002 1.552 1.552 0 0 1-3.104.002m.008 4.658a1.552 1.552 0 1 1 3.103-.002 1.552 1.552 0 0 1-3.103.002"/>
            <path fill="#38D611" d="M136.25 62.553c-.41-.753-.139-1.7.614-2.112a1.557 1.557 0 0 1 2.11.621 1.55 1.55 0 0 1-.62 2.104 1.496 1.496 0 0 1-.737.194c-.551 0-1.079-.295-1.366-.807m-4.082 2.235a1.547 1.547 0 0 1 .613-2.104c.753-.41 1.7-.14 2.111.614a1.553 1.553 0 0 1-2.724 1.49m-4.081 2.244c-.411-.753-.14-1.7.613-2.111.753-.411 1.7-.14 2.103.612.419.754.14 1.7-.613 2.113a1.512 1.512 0 0 1-.745.194 1.554 1.554 0 0 1-1.358-.808m-4.082 2.235a1.54 1.54 0 0 1 .613-2.103 1.54 1.54 0 0 1 2.103.613 1.54 1.54 0 0 1-.613 2.104 1.543 1.543 0 0 1-2.103-.613m-4.089 2.235a1.55 1.55 0 0 1 .62-2.104 1.546 1.546 0 0 1 2.104.614c.41.753.14 1.7-.613 2.111a1.582 1.582 0 0 1-.745.186 1.55 1.55 0 0 1-1.366-.807m-4.081 2.243a1.563 1.563 0 0 1 .613-2.111 1.56 1.56 0 0 1 2.11.613 1.556 1.556 0 0 1-1.358 2.306c-.55 0-1.078-.295-1.365-.808m-4.082 2.237a1.55 1.55 0 0 1 .62-2.105 1.548 1.548 0 0 1 2.104.614c.41.753.14 1.693-.613 2.103-.24.133-.497.194-.745.194-.551 0-1.079-.294-1.366-.806m-4.082 2.236a1.553 1.553 0 0 1 2.724-1.49c.411.751.132 1.698-.62 2.11a1.573 1.573 0 0 1-.746.187 1.538 1.538 0 0 1-1.358-.807m-4.081 2.242c-.411-.752-.14-1.7.613-2.11a1.551 1.551 0 1 1 1.49 2.724 1.504 1.504 0 0 1-.745.194 1.554 1.554 0 0 1-1.358-.808m-4.082 2.236a1.547 1.547 0 0 1 .613-2.104 1.546 1.546 0 0 1 2.103.614 1.54 1.54 0 0 1-.613 2.103 1.538 1.538 0 0 1-2.103-.613M20.238 108.477c0-.853.69-1.552 1.544-1.552.861 0 1.56.699 1.56 1.552 0 .862-.699 1.553-1.56 1.553-.853 0-1.544-.69-1.544-1.553m0 4.666c0-.862.69-1.56 1.544-1.56.861 0 1.56.698 1.56 1.56 0 .854-.699 1.545-1.56 1.545-.853 0-1.544-.691-1.544-1.545m0 4.65c0-.854.69-1.553 1.544-1.553.861 0 1.56.699 1.56 1.553 0 .861-.699 1.552-1.56 1.552-.853 0-1.544-.69-1.544-1.552m0 4.657c0-.853.69-1.544 1.544-1.544.861 0 1.56.69 1.56 1.544 0 .862-.699 1.553-1.56 1.553-.853 0-1.544-.69-1.544-1.553m0 4.658c0-.854.69-1.552 1.544-1.552.861 0 1.56.698 1.56 1.552 0 .862-.699 1.553-1.56 1.553-.853 0-1.544-.691-1.544-1.553m4.229 4.014a1.553 1.553 0 0 1 1.583-2.67c.737.434.978 1.39.543 2.126a1.546 1.546 0 0 1-2.126.544m4.012 2.375a1.558 1.558 0 0 1-.551-2.127 1.548 1.548 0 0 1 2.126-.543c.737.435.985 1.381.55 2.12a1.569 1.569 0 0 1-1.342.767c-.264 0-.535-.07-.783-.217m4.004 2.368a1.553 1.553 0 0 1 1.583-2.67 1.554 1.554 0 0 1-.792 2.888c-.272 0-.543-.07-.791-.218m4.011 2.375a1.558 1.558 0 0 1-.55-2.126 1.554 1.554 0 0 1 2.125-.551c.738.441.986 1.388.551 2.126-.295.489-.807.768-1.342.768-.264 0-.543-.07-.784-.217m4.004 2.368a1.554 1.554 0 0 1 1.583-2.671 1.554 1.554 0 0 1-.791 2.888c-.272 0-.544-.07-.792-.217m4.004 2.367a1.553 1.553 0 0 1-.543-2.127 1.56 1.56 0 0 1 2.126-.543c.737.435.986 1.39.543 2.127a1.548 1.548 0 0 1-2.126.543m4.012 2.376a1.548 1.548 0 0 1-.543-2.127 1.551 1.551 0 0 1 2.126-.543c.73.434.977 1.39.543 2.126a1.56 1.56 0 0 1-1.342.761c-.264 0-.536-.07-.784-.217m4.004 2.367a1.545 1.545 0 0 1-.543-2.119 1.548 1.548 0 0 1 2.126-.551c.737.435.985 1.39.543 2.128a1.549 1.549 0 0 1-2.126.542m4.011 2.376a1.55 1.55 0 1 1 1.576-2.67c.737.434.985 1.381.55 2.126-.294.49-.806.762-1.342.762-.264 0-.535-.07-.784-.218m4.004 2.367a1.553 1.553 0 0 1 1.583-2.67c.737.443.978 1.39.543 2.127a1.548 1.548 0 0 1-2.126.543"/>
            <path fill="#FA0171" d="M100.092 221.209a1.549 1.549 0 0 1-.575-2.119 1.541 1.541 0 0 1 2.111-.575 1.548 1.548 0 0 1-.768 2.896c-.256 0-.52-.062-.768-.202m4.042 2.313a1.551 1.551 0 0 1-.574-2.12 1.56 1.56 0 0 1 2.119-.582 1.558 1.558 0 0 1 .574 2.12 1.542 1.542 0 0 1-1.35.784c-.256 0-.528-.07-.769-.202m4.043 2.305a1.55 1.55 0 0 1-.574-2.118 1.549 1.549 0 0 1 2.118-.575 1.55 1.55 0 0 1 .575 2.119 1.56 1.56 0 0 1-1.35.785c-.257 0-.52-.07-.769-.21m4.043 2.314a1.552 1.552 0 0 1-.574-2.12 1.56 1.56 0 0 1 2.118-.583 1.552 1.552 0 0 1 .574 2.12 1.545 1.545 0 0 1-1.35.784c-.256 0-.52-.07-.768-.201m4.043 2.304a1.558 1.558 0 0 1-.575-2.119 1.55 1.55 0 0 1 2.119-.574 1.548 1.548 0 0 1 .574 2.119 1.558 1.558 0 0 1-1.35.784c-.256 0-.52-.07-.768-.21m4.042 2.314a1.554 1.554 0 0 1-.574-2.12 1.553 1.553 0 0 1 2.119-.582 1.552 1.552 0 0 1 .574 2.12 1.546 1.546 0 0 1-1.35.784c-.257 0-.52-.07-.769-.202m4.05 2.306a1.555 1.555 0 0 1-.581-2.12 1.549 1.549 0 0 1 2.118-.574 1.553 1.553 0 0 1-.776 2.903c-.256 0-.52-.07-.76-.209m4.043 2.305a1.542 1.542 0 0 1-.582-2.11 1.55 1.55 0 0 1 2.693 1.536 1.527 1.527 0 0 1-2.11.574m4.041 2.314a1.55 1.55 0 1 1 1.536-2.694 1.56 1.56 0 0 1 .583 2.12 1.563 1.563 0 0 1-2.119.574m4.043 2.312a1.553 1.553 0 1 1 1.536-2.7 1.55 1.55 0 0 1 .575 2.118 1.53 1.53 0 0 1-1.343.784 1.6 1.6 0 0 1-.768-.202m2.421 1.445c0-.862.698-1.553 1.552-1.553.861 0 1.552.69 1.552 1.553 0 .853-.69 1.553-1.552 1.553-.854 0-1.552-.7-1.552-1.553m0 4.658c0-.863.698-1.553 1.552-1.553.861 0 1.552.69 1.552 1.553 0 .853-.69 1.552-1.552 1.552-.854 0-1.552-.7-1.552-1.552m0 4.657c0-.862.698-1.552 1.552-1.552a1.552 1.552 0 0 1 0 3.105c-.854 0-1.552-.7-1.552-1.553m0 4.658c0-.862.698-1.552 1.552-1.552a1.552 1.552 0 0 1 0 3.105c-.854 0-1.552-.7-1.552-1.553m0 4.658c0-.863.698-1.553 1.552-1.553.861 0 1.552.69 1.552 1.553 0 .853-.69 1.552-1.552 1.552-.854 0-1.552-.7-1.552-1.552m0 4.657c0-.862.698-1.552 1.552-1.552a1.552 1.552 0 0 1 0 3.105c-.854 0-1.552-.7-1.552-1.553m0 4.658c0-.862.698-1.552 1.552-1.552a1.552 1.552 0 0 1 0 3.105c-.854 0-1.552-.7-1.552-1.553m0 4.658c0-.863.698-1.553 1.552-1.553.861 0 1.552.69 1.552 1.553 0 .853-.69 1.552-1.552 1.552-.854 0-1.552-.699-1.552-1.552m0 4.658c0-.863.698-1.553 1.552-1.553.861 0 1.552.69 1.552 1.553 0 .853-.69 1.552-1.552 1.552-.854 0-1.552-.7-1.552-1.552m0 4.657c0-.862.698-1.552 1.552-1.552a1.552 1.552 0 0 1 0 3.105c-.854 0-1.552-.7-1.552-1.553M220.202 108.625a1.556 1.556 0 0 1-.567-2.119 1.549 1.549 0 0 1 2.119-.567 1.544 1.544 0 0 1 .566 2.12 1.55 1.55 0 0 1-2.118.566m-4.625.054a1.554 1.554 0 1 1 2.708-1.522 1.555 1.555 0 0 1-.597 2.113 1.542 1.542 0 0 1-2.11-.59m8.65 2.282a1.557 1.557 0 0 1 1.56-2.694c.738.435.994 1.381.567 2.126a1.548 1.548 0 0 1-1.342.777c-.264 0-.536-.07-.784-.21m-12.718-.007a1.552 1.552 0 0 1 .597-2.112 1.544 1.544 0 0 1 2.111.59 1.55 1.55 0 0 1-1.35 2.314c-.543 0-1.071-.288-1.358-.792m16.753 2.337a1.551 1.551 0 0 1-.567-2.12 1.54 1.54 0 0 1 2.119-.566c.745.427.993 1.373.566 2.118a1.548 1.548 0 0 1-2.118.568m-20.811-.062a1.548 1.548 0 0 1 .597-2.112 1.547 1.547 0 0 1 2.11.597 1.555 1.555 0 0 1-.597 2.112 1.561 1.561 0 0 1-2.11-.597m24.838 2.39a1.556 1.556 0 0 1-.566-2.12 1.558 1.558 0 0 1 2.118-.565 1.562 1.562 0 0 1 .574 2.127 1.554 1.554 0 0 1-1.35.767c-.264 0-.528-.061-.776-.208m-28.904-.118a1.554 1.554 0 0 1 .597-2.11 1.546 1.546 0 0 1 2.11.597 1.552 1.552 0 0 1-.589 2.112c-.24.132-.504.194-.76.194-.544 0-1.071-.28-1.358-.793m32.939 2.454a1.544 1.544 0 0 1-.566-2.12 1.54 1.54 0 0 1 2.118-.566c.745.426.993 1.374.566 2.12a1.55 1.55 0 0 1-2.118.566m-36.998-.178a1.549 1.549 0 0 1 .598-2.113 1.547 1.547 0 0 1 2.11.599 1.555 1.555 0 0 1-1.357 2.312c-.544 0-1.071-.286-1.35-.798m41.024 2.507a1.556 1.556 0 0 1-.566-2.12 1.55 1.55 0 0 1 2.118-.566 1.544 1.544 0 0 1 .567 2.12 1.55 1.55 0 0 1-2.119.566m-45.09-.233a1.555 1.555 0 0 1 .597-2.111 1.553 1.553 0 1 1 .76 2.91c-.543 0-1.07-.287-1.358-.799m49.118 2.569a1.565 1.565 0 0 1-.566-2.126 1.557 1.557 0 0 1 2.693 1.56 1.573 1.573 0 0 1-1.35.776c-.264 0-.528-.07-.777-.21m-53.176-.287a1.555 1.555 0 0 1 .598-2.119 1.559 1.559 0 0 1 2.11.598 1.553 1.553 0 0 1-.597 2.111 1.542 1.542 0 0 1-2.11-.59m57.21 2.616a1.543 1.543 0 0 1-.566-2.119 1.542 1.542 0 0 1 2.118-.567 1.55 1.55 0 0 1 .567 2.12 1.547 1.547 0 0 1-2.118.566m-61.278-.341a1.555 1.555 0 0 1 .598-2.112 1.55 1.55 0 0 1 2.11.59c.42.753.155 1.7-.59 2.119a1.565 1.565 0 0 1-2.118-.597m65.305 2.67a1.548 1.548 0 0 1-.567-2.119 1.557 1.557 0 0 1 2.119-.567 1.554 1.554 0 0 1 .566 2.127 1.542 1.542 0 0 1-1.342.769 1.49 1.49 0 0 1-.776-.21m-69.363-.396a1.548 1.548 0 0 1 .597-2.111 1.547 1.547 0 0 1 2.111.597 1.555 1.555 0 0 1-.597 2.112c-.241.132-.505.194-.76.194a1.551 1.551 0 0 1-1.351-.792m73.398 2.733a1.544 1.544 0 0 1-.567-2.12 1.547 1.547 0 0 1 2.119-.566c.737.427.993 1.38.566 2.12a1.55 1.55 0 0 1-2.118.566M139.681 152.788a1.559 1.559 0 0 1-.566-2.119 1.552 1.552 0 0 1 2.118-.575 1.563 1.563 0 0 1 .574 2.128 1.563 1.563 0 0 1-1.35.776c-.264 0-.528-.07-.776-.21m4.035 2.328a1.555 1.555 0 0 1 1.552-2.694 1.56 1.56 0 0 1 .566 2.129 1.551 1.551 0 0 1-1.342.776c-.264 0-.528-.07-.776-.21m4.035 2.328a1.552 1.552 0 0 1 1.552-2.686c.737.427.993 1.375.566 2.12a1.563 1.563 0 0 1-1.35.777c-.264 0-.528-.071-.768-.21m4.027 2.328a1.543 1.543 0 0 1-.566-2.118 1.55 1.55 0 1 1 2.684 1.552 1.551 1.551 0 0 1-1.342.776c-.264 0-.535-.07-.776-.21m4.035 2.329a1.552 1.552 0 0 1 1.552-2.686c.737.427.993 1.375.566 2.12a1.551 1.551 0 0 1-1.342.776c-.264 0-.535-.07-.776-.21m4.027 2.329a1.548 1.548 0 0 1-.566-2.119 1.541 1.541 0 0 1 2.118-.567 1.543 1.543 0 0 1 .567 2.12 1.551 1.551 0 0 1-1.343.776c-.264 0-.527-.07-.776-.21m4.035 2.329a1.541 1.541 0 0 1-.566-2.119 1.541 1.541 0 0 1 2.118-.567 1.551 1.551 0 1 1-.776 2.896c-.264 0-.535-.063-.776-.21m4.028 2.328a1.555 1.555 0 0 1-.567-2.118 1.556 1.556 0 0 1 2.118-.567 1.545 1.545 0 0 1 .567 2.12 1.551 1.551 0 0 1-1.343.776c-.263 0-.527-.063-.775-.21m4.034 2.328a1.548 1.548 0 0 1-.566-2.118 1.551 1.551 0 1 1 1.342 2.329c-.263 0-.535-.063-.776-.21m4.028 2.328a1.555 1.555 0 0 1-.567-2.118 1.565 1.565 0 0 1 2.126-.568c.738.427.994 1.382.567 2.12a1.573 1.573 0 0 1-1.35.777c-.264 0-.528-.063-.776-.21m4.035 2.336a1.554 1.554 0 1 1 1.552-2.694 1.546 1.546 0 0 1 .566 2.12 1.535 1.535 0 0 1-1.342.776c-.264 0-.528-.063-.776-.202m4.035 2.329a1.561 1.561 0 0 1-.575-2.127 1.565 1.565 0 0 1 2.127-.567c.737.435.993 1.382.566 2.127a1.55 1.55 0 0 1-2.118.567m4.027 2.328a1.557 1.557 0 0 1-.567-2.126 1.545 1.545 0 0 1 2.119-.56 1.542 1.542 0 0 1 .566 2.12 1.55 1.55 0 0 1-2.118.566m4.035 2.33a1.561 1.561 0 0 1-.574-2.127 1.565 1.565 0 0 1 2.126-.567c.737.434.993 1.381.566 2.127a1.55 1.55 0 0 1-2.118.566m4.027 2.33a1.55 1.55 0 0 1-.566-2.12 1.542 1.542 0 0 1 2.118-.567 1.542 1.542 0 0 1 .566 2.12 1.54 1.54 0 0 1-1.342.776c-.264 0-.528-.07-.776-.21"/>
        </g>
        <g>
            <path fill="#FA0171" d="M179.454 220.996l-41.978-22.203 1.846-48.02 39.514-23.169.075-46.324 41.865-24.173v47.69h-2.328V61.139l-37.212 21.487-.075 46.314-39.563 23.197-1.74 45.283 40.684 21.517z"/>
            <path fill="#FA0171" d="M179.407 129.276l-39.597-23.378 1.183-2.006 39.596 23.378z"/>
            <path fill="#FA0171" d="M139.299 106.95l-.062-45.133 2.328-.003.062 45.133z"/>
            <path fill="#38D611" d="M139.717 61.345l-39.532-22.726 1.16-2.02 39.532 22.726zM99.758 172.386l-.06-44.505 2.328-.003.06 44.505z"/>
            <path fill="#38D611" d="M61.945 152.25l-1.22-1.983 37.9-23.317-37.866-21.03 1.13-2.036 41.346 22.963z"/>
        </g>
    </g>
</svg>
