<svg xmlns="http://www.w3.org/2000/svg" width="320" height="327" viewBox="0 0 320 327">
    <defs>
        <linearGradient id="a" x1="0%" y1="50%" y2="50%">
            <stop offset="0%" stop-color="#364A68"/>
            <stop offset="100%" stop-color="#38D611"/>
        </linearGradient>
        <linearGradient id="b" x1="0%" y1="50%" y2="50%">
            <stop offset="0%" stop-color="#364A68"/>
            <stop offset="100%" stop-color="#FA0171"/>
        </linearGradient>
    </defs>
    <g fill="none" fill-rule="evenodd">
        <g stroke="#FFF" stroke-width=".615" opacity=".5">
            <path d="M91.518 104.42V78.715L69.31 65.865 47.093 78.716v25.703l22.217 12.852z"/>
            <path d="M69.31 117.288v-25.72L47.093 78.716 24.876 65.865V49.099"/>
            <path d="M91.518 78.716L69.31 91.568l-22.217 12.851M91.518 104.42L69.31 91.567M135.952 104.41l-22.217 12.852v25.703l22.217 12.852 22.208-12.852v-25.703"/>
            <path d="M113.735 117.262l22.217 12.852v51.703"/>
            <path d="M158.16 117.262l-22.208 12.852-22.217 12.851"/>
            <path d="M135.952 130.114l22.208 12.851 15.268 9.296 7.106 4.324-.009-.585v-25.991l.01-25.712 22.207-12.851M135.952 104.41V78.709l-22.217-12.852-22.217 12.852v25.703l22.217 12.851z"/>
            <path d="M91.518 104.41l22.217-12.85 22.217-12.852 22.208-12.066V91.56M69.31 142.974V117.27l-22.217-12.852-22.217 12.852v25.703l22.217 12.851"/>
            <path d="M24.876 100.645l-14.857 8.3 14.857 8.326 22.217 12.851v25.72"/>
            <path d="M69.31 117.27l-22.217 12.852-22.217 12.852v26.472L2.53 181.816v-25.335M69.31 142.974l-22.217-12.852M113.735 142.965v-25.703l-22.217-12.851-22.208 12.851v25.703l22.208 12.852z"/>
            <path d="M69.31 117.262l22.208 12.852v25.72L69.31 169.297l22.208 13.105 22.217-12.956"/>
            <path d="M113.735 117.262l-22.217 12.852-22.208 12.851M10.019 74.435l14.857-8.57M10.019 125.763v-16.818M91.518 27.616V53.25L69.31 65.865V39.996M135.952 104.41l-22.217-12.85V49.098l15.224-8.955M143.643 57.478l14.517 9.164M47.093 181.817l-22.217-12.371M306.38 203.5v-25.702l-22.217-12.852-22.216 12.852V203.5l22.216 12.851z"/>
            <path d="M306.38 177.798l-22.217 12.851-22.216 12.852M284.163 242.055v-25.703l-22.216-12.851-22.209 12.851v25.703l22.209 12.843"/>
            <path d="M224.872 208.017l14.866 8.335 22.209 12.852v25.711"/>
            <path d="M239.738 267.644v-25.589l22.209-12.851 22.216-12.852v-25.729M284.163 242.046l-22.216-12.842M224.96 78.603V52.9l22.216-12.852L269.384 52.9v25.703l-22.208 12.851z"/>
            <path d="M247.176 91.463V65.751L269.384 52.9l22.217-12.852V23.274"/>
            <path d="M224.96 52.9l22.216 12.851 22.208 12.852M224.96 78.603l22.216-12.852M180.525 78.594l22.217 12.852v25.703L180.525 130l-22.208-12.851V91.446"/>
            <path d="M158.317 91.446l22.217 12.851 22.208 12.852M180.525 104.297l-22.208 12.852M180.534 78.594V52.891l22.208-12.851L224.96 52.89v25.703l-22.217 12.852z"/>
            <path d="M224.81 78.594l-22.216-12.851-22.217-12.852-22.217-12.065v25.79M247.176 117.157V91.454l22.208-12.851 22.217 12.851v25.703L269.384 130"/>
            <path d="M291.601 74.82l14.867 8.3-14.867 8.334-22.217 12.852v25.711"/>
            <path d="M247.176 91.454l22.208 12.852 22.217 12.851v26.463L313.95 156v-25.336M247.176 117.149l22.208-12.843M202.742 117.149V91.446l22.217-12.852 22.217 12.852v25.703L224.959 130z"/>
            <path d="M247.176 91.446l-22.217 12.851v25.712l22.217 13.472-22.217 13.104-22.295-13.008"/>
            <path d="M202.742 91.446l22.217 12.851 22.217 12.852M224.96 1.791v25.633l22.216 12.624V14.18M180.534 78.594l22.208-12.851V23.274l-15.224-8.955M172.687 31.661l-14.527 9.165M158.23 221.061v25.703l-22.217 12.843-22.208-12.843v-25.703l22.208-12.851z"/>
            <path d="M136.013 208.192v25.72l-22.208 12.852-22.217 12.843v16.774"/>
            <path d="M158.23 246.764l-22.217-12.851-22.208-12.852M158.23 221.061l-22.217 12.852M202.664 221.07l-22.217-12.852v-25.703l22.217-12.851 22.208 12.851v25.703"/>
            <path d="M180.447 208.218l22.217-12.851v-51.79"/>
            <path d="M224.872 208.218l-22.208-12.851-22.217-12.852"/>
            <path d="M202.664 195.367l22.208-12.852 15.268-9.295M202.664 221.07v25.694l-22.217 12.852-22.217-12.852V221.07l22.217-12.852z"/>
            <path d="M158.23 221.07l22.217 12.851 22.217 12.843 16.662 9.06 20.412 11.279M136.013 182.507v25.703l-22.208 12.851-22.217-12.851v-25.703"/>
            <path d="M91.588 224.835l-14.866-8.3 14.866-8.325 22.217-12.852v-25.72M136.013 182.507l-22.208 12.851M180.447 182.515v25.703L158.23 221.07l-22.217-12.852v-25.703l22.217-12.851z"/>
            <path d="M136.013 208.218l22.217-12.851v-25.72l-22.217-13.464"/>
            <path d="M180.447 208.218l-22.217-12.851-22.217-12.852M76.722 251.045l14.866 8.57M76.722 199.718v16.818M158.23 297.864v-25.633l-22.217-12.624v25.878M202.664 221.07l-22.217 12.851v42.46l15.224 8.955M261.947 177.798L306.38 203.5"/>
        </g>
        <g fill="#FFF" fill-rule="nonzero" opacity=".5">
            <ellipse cx="24.876" cy="47.92" rx="2.136" ry="2.14"/>
            <ellipse cx="9.33" cy="74.435" rx="2.136" ry="2.14"/>
            <ellipse cx="24.876" cy="65.865" rx="2.136" ry="2.14"/>
            <ellipse cx="46.84" cy="78.716" rx="2.136" ry="2.14"/>
            <ellipse cx="69.319" cy="91.446" rx="2.136" ry="2.14"/>
            <ellipse cx="113.744" cy="91.446" rx="2.136" ry="2.14"/>
            <ellipse cx="69.319" cy="65.865" rx="2.136" ry="2.14"/>
            <ellipse cx="69.319" cy="40.144" rx="2.136" ry="2.14"/>
            <ellipse cx="91.518" cy="27.616" rx="2.136" ry="2.14"/>
            <ellipse cx="91.518" cy="53.162" rx="2.136" ry="2.14"/>
            <ellipse cx="91.518" cy="78.716" rx="2.136" ry="2.14"/>
            <ellipse cx="91.518" cy="104.297" rx="2.136" ry="2.14"/>
            <ellipse cx="69.319" cy="117.288" rx="2.136" ry="2.14"/>
            <ellipse cx="69.31" cy="143.131" rx="2.136" ry="2.14"/>
            <ellipse cx="46.84" cy="130.14" rx="2.136" ry="2.14"/>
            <ellipse cx="46.666" cy="155.817" rx="2.136" ry="2.14"/>
            <ellipse cx="24.876" cy="142.965" rx="2.136" ry="2.14"/>
            <ellipse cx="24.876" cy="169.446" rx="2.136" ry="2.14"/>
            <ellipse cx="46.387" cy="181.493" rx="2.136" ry="2.14"/>
            <ellipse cx="2.529" cy="181.493" rx="2.136" ry="2.14"/>
            <ellipse cx="2.529" cy="157.031" rx="2.136" ry="2.14"/>
            <ellipse cx="91.518" cy="130.14" rx="2.136" ry="2.14"/>
            <ellipse cx="91.588" cy="155.817" rx="2.136" ry="2.14"/>
            <ellipse cx="113.735" cy="143.131" rx="2.136" ry="2.14"/>
            <ellipse cx="69.319" cy="169.446" rx="2.136" ry="2.14"/>
            <ellipse cx="113.744" cy="66.171" rx="2.136" ry="2.14"/>
            <ellipse cx="113.814" cy="49.099" rx="2.136" ry="2.14"/>
            <ellipse cx="128.872" cy="40.144" rx="2.136" ry="2.14"/>
            <ellipse cx="135.943" cy="79.022" rx="2.136" ry="2.14"/>
            <ellipse cx="143.643" cy="57.565" rx="2.136" ry="2.14"/>
            <ellipse cx="158.16" cy="66.642" rx="2.136" ry="2.14"/>
            <ellipse cx="158.16" cy="40.826" rx="2.136" ry="2.14"/>
            <ellipse cx="172.687" cy="31.661" rx="2.136" ry="2.14"/>
            <ellipse cx="180.525" cy="52.9" rx="2.136" ry="2.14"/>
            <ellipse cx="180.525" cy="78.716" rx="2.136" ry="2.14"/>
            <ellipse cx="224.811" cy="78.594" rx="2.136" ry="2.14"/>
            <ellipse cx="202.655" cy="66.293" rx="2.136" ry="2.14"/>
            <ellipse cx="202.742" cy="91.446" rx="2.136" ry="2.14"/>
            <ellipse cx="202.821" cy="117" rx="2.136" ry="2.14"/>
            <ellipse cx="247.098" cy="116.878" rx="2.136" ry="2.14"/>
            <ellipse cx="269.384" cy="104.306" rx="2.136" ry="2.14"/>
            <ellipse cx="269.384" cy="130.114" rx="2.136" ry="2.14"/>
            <ellipse cx="247.098" cy="143.577" rx="2.136" ry="2.14"/>
            <ellipse cx="225.491" cy="156.183" rx="2.136" ry="2.14"/>
            <ellipse cx="202.821" cy="144.162" rx="2.136" ry="2.14"/>
            <ellipse cx="202.655" cy="169.664" rx="2.136" ry="2.14"/>
            <ellipse cx="224.872" cy="182.515" rx="2.136" ry="2.14"/>
            <ellipse cx="180.525" cy="182.891" rx="2.136" ry="2.14"/>
            <ellipse cx="239.738" cy="173.22" rx="2.136" ry="2.14"/>
            <ellipse cx="291.601" cy="117" rx="2.136" ry="2.14"/>
            <ellipse cx="313.949" cy="131.144" rx="2.136" ry="2.14"/>
            <ellipse cx="313.949" cy="155.817" rx="2.136" ry="2.14"/>
            <ellipse cx="291.601" cy="143.577" rx="2.136" ry="2.14"/>
            <ellipse cx="224.95" cy="104.577" rx="2.136" ry="2.14"/>
            <ellipse cx="225.038" cy="129.729" rx="2.136" ry="2.14"/>
            <ellipse cx="224.959" cy="53.162" rx="2.136" ry="2.14"/>
            <ellipse cx="202.742" cy="40.144" rx="2.136" ry="2.14"/>
            <ellipse cx="268.774" cy="78.542" rx="2.136" ry="2.14"/>
            <ellipse cx="246.627" cy="66.241" rx="2.136" ry="2.14"/>
            <ellipse cx="247.176" cy="91.393" rx="2.136" ry="2.14"/>
            <ellipse cx="284.094" cy="190.92" rx="2.136" ry="2.14"/>
            <ellipse cx="306.38" cy="178.339" rx="2.136" ry="2.14"/>
            <ellipse cx="306.38" cy="203.282" rx="2.136" ry="2.14"/>
            <ellipse cx="284.094" cy="215.863" rx="2.136" ry="2.14"/>
            <ellipse cx="261.947" cy="178.619" rx="2.136" ry="2.14"/>
            <ellipse cx="262.034" cy="203.763" rx="2.136" ry="2.14"/>
            <ellipse cx="261.886" cy="229.3" rx="2.136" ry="2.14"/>
            <ellipse cx="284.094" cy="241.487" rx="2.136" ry="2.14"/>
            <ellipse cx="261.886" cy="254.251" rx="2.136" ry="2.14"/>
            <ellipse cx="239.738" cy="216.999" rx="2.136" ry="2.14"/>
            <ellipse cx="202.655" cy="195.358" rx="2.136" ry="2.14"/>
            <ellipse cx="180.525" cy="208.017" rx="2.136" ry="2.14"/>
            <ellipse cx="224.872" cy="208.218" rx="2.136" ry="2.14"/>
            <ellipse cx="239.817" cy="242.151" rx="2.136" ry="2.14"/>
            <ellipse cx="202.707" cy="221.026" rx="2.136" ry="2.14"/>
            <ellipse cx="180.499" cy="233.589" rx="2.136" ry="2.14"/>
            <ellipse cx="202.707" cy="246.651" rx="2.136" ry="2.14"/>
            <ellipse cx="180.499" cy="259.415" rx="2.136" ry="2.14"/>
            <ellipse cx="180.499" cy="276.381" rx="2.136" ry="2.14"/>
            <ellipse cx="158.23" cy="297.864" rx="2.136" ry="2.14"/>
            <ellipse cx="158.23" cy="272.109" rx="2.136" ry="2.14"/>
            <ellipse cx="136.013" cy="285.336" rx="2.136" ry="2.14"/>
            <ellipse cx="136.013" cy="259.415" rx="2.136" ry="2.14"/>
            <ellipse cx="113.735" cy="246.651" rx="2.136" ry="2.14"/>
            <ellipse cx="91.588" cy="259.415" rx="2.136" ry="2.14"/>
            <ellipse cx="91.518" cy="276.381" rx="2.136" ry="2.14"/>
            <ellipse cx="76.722" cy="251.045" rx="2.136" ry="2.14"/>
            <ellipse cx="195.758" cy="285.336" rx="2.136" ry="2.14"/>
            <ellipse cx="158.352" cy="222.171" rx="2.136" ry="2.14"/>
            <ellipse cx="135.943" cy="233.921" rx="2.136" ry="2.14"/>
            <ellipse cx="113.805" cy="221.026" rx="2.136" ry="2.14"/>
            <ellipse cx="136.013" cy="208.218" rx="2.136" ry="2.14"/>
            <ellipse cx="158.16" cy="195.358" rx="2.136" ry="2.14"/>
            <ellipse cx="158.16" cy="169.664" rx="2.136" ry="2.14"/>
            <ellipse cx="135.943" cy="182.515" rx="2.136" ry="2.14"/>
            <ellipse cx="113.805" cy="195.358" rx="2.136" ry="2.14"/>
            <ellipse cx="91.588" cy="208.192" rx="2.136" ry="2.14"/>
            <ellipse cx="91.588" cy="182.402" rx="2.136" ry="2.14"/>
            <ellipse cx="113.735" cy="169.638" rx="2.136" ry="2.14"/>
            <ellipse cx="76.722" cy="216.352" rx="2.136" ry="2.14"/>
            <ellipse cx="76.722" cy="199.718" rx="2.136" ry="2.14"/>
            <ellipse cx="91.518" cy="224.835" rx="2.136" ry="2.14"/>
            <ellipse cx="158.431" cy="247.315" rx="2.136" ry="2.14"/>
            <ellipse cx="239.817" cy="267.103" rx="2.136" ry="2.14"/>
            <ellipse cx="284.172" cy="165.435" rx="2.136" ry="2.14"/>
            <ellipse cx="268.931" cy="53.118" rx="2.136" ry="2.14"/>
            <ellipse cx="291.601" cy="23.274" rx="2.136" ry="2.14"/>
            <ellipse cx="247.176" cy="40.04" rx="2.136" ry="2.14"/>
            <ellipse cx="291.601" cy="40.04" rx="2.136" ry="2.14"/>
            <ellipse cx="292.473" cy="75.318" rx="2.136" ry="2.14"/>
            <ellipse cx="306.468" cy="82.997" rx="2.136" ry="2.14"/>
            <ellipse cx="291.601" cy="91.393" rx="2.136" ry="2.14"/>
            <ellipse cx="247.176" cy="14.319" rx="2.136" ry="2.14"/>
            <ellipse cx="224.959" cy="2.219" rx="2.136" ry="2.14"/>
            <ellipse cx="224.959" cy="27.38" rx="2.136" ry="2.14"/>
            <ellipse cx="202.655" cy="23.274" rx="2.136" ry="2.14"/>
            <ellipse cx="187.911" cy="14.319" rx="2.136" ry="2.14"/>
            <ellipse cx="135.943" cy="104.603" rx="2.136" ry="2.14"/>
            <ellipse cx="113.744" cy="117.594" rx="2.136" ry="2.14"/>
            <ellipse cx="136.013" cy="129.983" rx="2.136" ry="2.14"/>
            <ellipse cx="136.083" cy="155.659" rx="2.136" ry="2.14"/>
            <ellipse cx="158.23" cy="142.974" rx="2.136" ry="2.14"/>
            <ellipse cx="180.525" cy="156.183" rx="2.136" ry="2.14"/>
            <ellipse cx="158.23" cy="117.437" rx="2.136" ry="2.14"/>
            <ellipse cx="180.525" cy="104.297" rx="2.136" ry="2.14"/>
            <ellipse cx="158.317" cy="91.393" rx="2.136" ry="2.14"/>
            <ellipse cx="180.447" cy="129.729" rx="2.136" ry="2.14"/>
            <ellipse cx="47.093" cy="104.437" rx="2.136" ry="2.14"/>
            <ellipse cx="25.399" cy="117.594" rx="2.136" ry="2.14"/>
            <ellipse cx="10.019" cy="108.945" rx="2.136" ry="2.14"/>
            <ellipse cx="10.019" cy="125.763" rx="2.136" ry="2.14"/>
            <ellipse cx="24.876" cy="100.645" rx="2.136" ry="2.14"/>
        </g>
        <g fill="#FFF" fill-rule="nonzero" opacity=".5" transform="translate(4.36 17.473)">
            <ellipse cx="20.386" cy="30.176" rx="5.554" ry="5.565"/>
            <ellipse cx="87.159" cy="35.427" rx="5.554" ry="5.565"/>
            <ellipse cx="139.283" cy="39.9" rx="5.554" ry="5.565"/>
            <ellipse cx="287.241" cy="5.6" rx="5.554" ry="5.565"/>
            <ellipse cx="242.738" cy="22.567" rx="5.554" ry="5.565"/>
            <ellipse cx="198.295" cy="6.002" rx="5.554" ry="5.565"/>
            <ellipse cx="287.241" cy="73.99" rx="5.554" ry="5.565"/>
            <ellipse cx="309.589" cy="138.186" rx="5.554" ry="5.565"/>
            <ellipse cx="302.108" cy="185.809" rx="5.554" ry="5.565"/>
            <ellipse cx="257.526" cy="236.778" rx="5.554" ry="5.565"/>
            <ellipse cx="279.804" cy="147.962" rx="5.554" ry="5.565"/>
            <ellipse cx="176.052" cy="258.908" rx="5.554" ry="5.565"/>
            <ellipse cx="131.653" cy="267.863" rx="5.554" ry="5.565"/>
            <ellipse cx="87.159" cy="241.942" rx="5.554" ry="5.565"/>
            <ellipse cx="221.131" cy="138.343" rx="5.554" ry="5.565"/>
            <ellipse cx="109.375" cy="152.191" rx="5.554" ry="5.565"/>
            <ellipse cx="131.584" cy="87.13" rx="5.554" ry="5.565"/>
            <ellipse cx="5.659" cy="91.472" rx="5.554" ry="5.565"/>
            <ellipse cx="72.362" cy="199.063" rx="5.554" ry="5.565"/>
            <ellipse cx="153.801" cy="177.894" rx="5.554" ry="5.565"/>
            <ellipse cx="20.517" cy="151.972" rx="5.554" ry="5.565"/>
            <ellipse cx="42.306" cy="61.121" rx="5.554" ry="5.565"/>
        </g>
        <g style="mix-blend-mode:lighten" transform="translate(16.567 32.325)">
            <path fill="url(#a)" fill-rule="nonzero" d="M141.733 84.605V33.627L97.674 8.134 53.615 33.627v50.978l44.06 25.484z" opacity=".8"/>
            <path fill="url(#b)" fill-rule="nonzero" d="M274.703 109.923V58.946l-44.059-25.494-44.059 25.494v50.977l44.06 25.485zM183.586 265.268V214.29l-44.059-25.484-44.059 25.484v50.978l44.059 25.493z" opacity=".8"/>
            <ellipse cx="273.77" cy="8.003" stroke="#FA0171" stroke-width=".873" rx="7.621" ry="7.636"/>
            <ellipse cx="186.001" cy="8.003" stroke="#FA0171" stroke-width=".873" rx="7.621" ry="7.636"/>
            <ellipse cx="245.319" cy="146.294" stroke="#FA0171" stroke-width=".873" rx="7.621" ry="7.636"/>
            <ellipse cx="204.713" cy="173.753" stroke="#FA0171" stroke-width=".873" rx="7.621" ry="7.636"/>
            <ellipse cx="97.055" cy="263.302" stroke="#FA0171" stroke-width=".873" rx="7.621" ry="7.636"/>
            <ellipse cx="60.155" cy="184.21" stroke="#38D611" stroke-width=".873" rx="7.621" ry="7.636"/>
            <ellipse cx="8.179" cy="85.269" stroke="#38D611" stroke-width=".873" rx="7.621" ry="7.636"/>
            <ellipse cx="52.525" cy="33.531" stroke="#38D611" stroke-width=".873" rx="7.621" ry="7.636"/>
        </g>
        <g stroke-dasharray="0" stroke-linecap="round" stroke-width="3.494">
            <path stroke="#FA0171" d="M202.742 40.144l44.434 25.607 44.425-25.703M261.947 178.619l-59.292-35.042M158.352 222.17l-44.617 24.48v53.355"/>
            <path stroke="#38D611" d="M114.189 194.485l-37.467 22.05M113.814 142.03l-.07-50.584L69.31 65.865M113.744 91.446l44.303-24.332M69.31 169.297l-44.434-26.332v-25.694"/>
            <path stroke="#FA0171" d="M113.735 246.65l44.495 25.459v52.664M289.465 143.577l-42.367-24.559-42.69 23.956M158.23 169.647l66.642 38.571"/>
        </g>
        <g stroke-width="2.62">
            <path stroke="#FA0171" d="M247.176 117.157V65.751l-44.434 25.695-.078 52.13-44.434 26.088-2.014 52.507 46.448 24.593M158.16 117.262l44.495 26.315M158.23 119.577l-.07-50.794"/>
            <path stroke="#38D611" d="M113.622 41.534l44.425 25.58M113.735 143.131l.07 50.087M69.319 169.446l44.495-27.416-44.504-24.76"/>
        </g>
    </g>
</svg>
