<svg xmlns="http://www.w3.org/2000/svg" xmlns:xlink="http://www.w3.org/1999/xlink" width="284" height="268" viewBox="0 0 284 268">
    <defs>
        <path id="a" d="M39.957 23.41V69.11L.418 46.263V.558z"/>
        <linearGradient id="b" x1="0%" x2="100.016%" y1="50.002%" y2="50.002%">
            <stop offset="0%" stop-color="#304A6C"/>
            <stop offset="100%" stop-color="#38D611"/>
        </linearGradient>
        <path id="d" d="M.052 23.266v45.699L39.59 46.119V.414z"/>
        <path id="f" d="M.453 23.415v45.699l39.538-22.846V.562z"/>
        <linearGradient id="g" x1="-.143%" y1="49.996%" y2="49.996%">
            <stop offset="0%" stop-color="#304A6C"/>
            <stop offset="100%" stop-color="#FA0171"/>
        </linearGradient>
        <path id="i" d="M79.383 23.554L39.845.701.172 23.66 39.71 46.512z"/>
        <path id="k" d="M79.373 23.544L39.835.692.162 23.65l39.539 22.852z"/>
        <path id="m" d="M79.405 23.596L39.866.743.194 23.701l39.538 22.853z"/>
    </defs>
    <g fill="none" fill-rule="evenodd">
        <g stroke="#00152B" stroke-width=".5" opacity=".2">
            <path d="M81.103 94.155V71.32L61.332 59.903 41.568 71.32v22.835l19.764 11.417z"/>
            <path d="M61.332 105.588v-22.85L41.568 71.32 21.797 59.903V45.008"/>
            <path d="M81.103 71.32L61.332 82.738 41.568 94.155M81.103 94.155L61.332 82.738M120.638 94.147l-19.764 11.418v22.834l19.764 11.418 19.771-11.418v-22.834"/>
            <path d="M100.874 105.565l19.764 11.417v45.933"/>
            <path d="M140.41 105.565l-19.772 11.417-19.764 11.417"/>
            <path d="M120.638 116.982l19.771 11.417 13.587 8.259 6.317 3.842V94.046l19.77-11.417M120.638 94.147V71.313l-19.764-11.418-19.771 11.418v22.834l19.771 11.418z"/>
            <path d="M81.103 94.147l19.771-11.417 19.764-11.417 19.771-10.72V82.73M61.332 128.407v-22.835L41.568 94.155l-19.771 11.417v22.835l19.771 11.417"/>
            <path d="M21.797 90.802l-13.23 7.374 13.23 7.396 19.771 11.418v22.85"/>
            <path d="M61.332 105.572L41.568 116.99l-19.771 11.417v23.518l-19.888 10.99v-22.508M61.332 128.407L41.568 116.99"/>
            <path d="M100.874 128.4v-22.835L81.103 94.147l-19.771 11.418v22.834l19.771 11.418z"/>
            <path d="M61.332 105.565l19.771 11.417v22.85l-19.771 11.96 19.771 11.643 19.771-11.51M100.874 105.565l-19.771 11.417-19.771 11.417M8.567 67.517l13.23-7.614M8.567 113.117V98.176M81.103 25.923v22.772L61.332 59.903V36.921M120.638 94.147L100.874 82.73V45.008l13.549-7.955M127.482 52.452l12.927 8.142M41.568 162.915l-19.771-10.99M272.314 182.18v-22.835l-19.771-11.417-19.772 11.417v22.835l19.772 11.417z"/>
            <path d="M272.314 159.345l-19.771 11.417-19.772 11.418M252.543 216.432v-22.835L232.77 182.18 213 193.597v22.835l19.771 11.41"/>
            <path d="M199.778 186.192L213 193.597l19.771 11.417v22.843"/>
            <path d="M213 239.166v-22.734l19.771-11.418 19.772-11.417v-22.858M252.543 216.424l-19.772-11.41M199.855 71.22V48.384l19.764-11.418 19.771 11.418v22.834L219.62 82.637z"/>
            <path d="M219.619 82.645V59.802l19.771-11.417 19.772-11.418V22.065"/>
            <path d="M199.855 48.385l19.764 11.417L239.39 71.22M199.855 71.22l19.764-11.418M160.313 71.212l19.77 11.417v22.835l-19.77 11.41-19.764-11.41V82.629"/>
            <path d="M140.549 82.629l19.764 11.417 19.77 11.418M160.313 94.046l-19.764 11.418M160.313 71.212V48.377l19.77-11.417 19.772 11.417v22.835l-19.771 11.417z"/>
            <path d="M199.716 71.212l-19.764-11.418-19.771-11.417-19.772-10.719V60.57M219.619 105.464V82.637l19.771-11.418 19.772 11.418v22.827L239.39 116.88"/>
            <path d="M259.162 67.859l13.222 7.373-13.222 7.405-19.772 11.417v22.843"/>
            <path d="M219.619 82.637l19.771 11.417 19.772 11.41v23.517l19.887 10.999V117.47M219.619 105.464l19.771-11.41"/>
            <path d="M180.084 105.464V82.629l19.771-11.417 19.764 11.417v22.835l-19.764 11.41z"/>
            <path d="M219.619 82.629l-19.764 11.417v22.843l19.764 11.968-19.764 11.643-19.849-11.557"/>
            <path d="M180.084 82.629l19.771 11.417 19.764 11.418M199.855 2.98v22.772l19.764 11.215V13.985M160.313 71.212l19.77-11.418V22.065l-13.547-7.956M153.337 29.516l-12.928 8.142M140.471 197.78v22.835l-19.771 11.41-19.771-11.41v-22.834l19.771-11.418z"/>
            <path d="M120.7 186.348v22.85l-19.771 11.417-19.764 11.41v14.902M140.471 220.615L120.7 209.198l-19.771-11.417M140.471 197.78L120.7 209.199M180.006 197.788l-19.763-11.417v-22.835l19.763-11.417 19.772 11.417v22.835"/>
            <path d="M160.243 186.371l19.763-11.417v-46.011"/>
            <path d="M199.778 186.371l-19.772-11.417-19.763-11.418"/>
            <path d="M180.006 174.954l19.772-11.418 13.587-8.258M180.006 197.788v22.827l-19.763 11.418-19.772-11.418v-22.827l19.772-11.417z"/>
            <path d="M140.471 197.788l19.772 11.418 19.763 11.41 14.837 8.048L213 238.684M120.7 163.528v22.835l-19.771 11.418-19.764-11.418v-22.835"/>
            <path d="M81.165 201.134l-13.23-7.374 13.23-7.397 19.764-11.417v-22.85M120.7 163.528l-19.771 11.418M160.243 163.536v22.835l-19.772 11.417-19.771-11.417v-22.835l19.771-11.417z"/>
            <path d="M120.7 186.371l19.771-11.417v-22.85L120.7 140.142"/>
            <path d="M160.243 186.371l-19.772-11.417-19.771-11.418M67.935 224.418l13.23 7.615M67.935 178.819v14.941M140.471 266.013V243.24L120.7 232.025v22.99M180.006 197.788l-19.763 11.418V246.927l13.548 7.956M232.771 159.345l39.543 22.835"/>
        </g>
        <g fill="#00152B" fill-rule="nonzero" opacity=".3" transform="translate(0 1)">
            <ellipse cx="21.797" cy="42.961" rx="1.901" ry="1.902"/>
            <ellipse cx="7.961" cy="66.517" rx="1.901" ry="1.902"/>
            <ellipse cx="21.797" cy="58.903" rx="1.901" ry="1.902"/>
            <ellipse cx="41.335" cy="70.32" rx="1.901" ry="1.902"/>
            <ellipse cx="61.347" cy="81.629" rx="1.901" ry="1.902"/>
            <ellipse cx="100.882" cy="81.629" rx="1.901" ry="1.902"/>
            <ellipse cx="61.347" cy="58.903" rx="1.901" ry="1.902"/>
            <ellipse cx="61.347" cy="36.053" rx="1.901" ry="1.902"/>
            <ellipse cx="81.103" cy="24.923" rx="1.901" ry="1.902"/>
            <ellipse cx="81.103" cy="47.618" rx="1.901" ry="1.902"/>
            <ellipse cx="81.103" cy="70.32" rx="1.901" ry="1.902"/>
            <ellipse cx="81.103" cy="93.046" rx="1.901" ry="1.902"/>
            <ellipse cx="61.347" cy="104.588" rx="1.901" ry="1.902"/>
            <ellipse cx="61.332" cy="127.547" rx="1.901" ry="1.902"/>
            <ellipse cx="41.335" cy="116.005" rx="1.901" ry="1.902"/>
            <ellipse cx="41.188" cy="138.817" rx="1.901" ry="1.902"/>
            <ellipse cx="21.797" cy="127.399" rx="1.901" ry="1.902"/>
            <ellipse cx="21.797" cy="150.925" rx="1.901" ry="1.902"/>
            <ellipse cx="40.939" cy="161.628" rx="1.901" ry="1.902"/>
            <ellipse cx="1.909" cy="161.628" rx="1.901" ry="1.902"/>
            <ellipse cx="1.909" cy="139.896" rx="1.901" ry="1.902"/>
            <ellipse cx="81.103" cy="116.005" rx="1.901" ry="1.902"/>
            <ellipse cx="81.165" cy="138.817" rx="1.901" ry="1.902"/>
            <ellipse cx="100.874" cy="127.547" rx="1.901" ry="1.902"/>
            <ellipse cx="61.347" cy="150.925" rx="1.901" ry="1.902"/>
            <ellipse cx="100.882" cy="59.175" rx="1.901" ry="1.902"/>
            <ellipse cx="100.936" cy="44.008" rx="1.901" ry="1.902"/>
            <ellipse cx="114.345" cy="36.053" rx="1.901" ry="1.902"/>
            <ellipse cx="120.638" cy="70.592" rx="1.901" ry="1.902"/>
            <ellipse cx="127.482" cy="51.529" rx="1.901" ry="1.902"/>
            <ellipse cx="140.409" cy="59.594" rx="1.901" ry="1.902"/>
            <ellipse cx="140.409" cy="36.658" rx="1.901" ry="1.902"/>
            <ellipse cx="153.337" cy="28.516" rx="1.901" ry="1.902"/>
            <ellipse cx="160.313" cy="47.385" rx="1.901" ry="1.902"/>
            <ellipse cx="160.313" cy="70.32" rx="1.901" ry="1.902"/>
            <ellipse cx="199.716" cy="70.212" rx="1.901" ry="1.902"/>
            <ellipse cx="180.006" cy="59.283" rx="1.901" ry="1.902"/>
            <ellipse cx="180.084" cy="81.629" rx="1.901" ry="1.902"/>
            <ellipse cx="180.154" cy="104.332" rx="1.901" ry="1.902"/>
            <ellipse cx="219.557" cy="104.223" rx="1.901" ry="1.902"/>
            <ellipse cx="239.39" cy="93.054" rx="1.901" ry="1.902"/>
            <ellipse cx="239.39" cy="115.982" rx="1.901" ry="1.902"/>
            <ellipse cx="219.557" cy="127.943" rx="1.901" ry="1.902"/>
            <ellipse cx="200.329" cy="139.143" rx="1.901" ry="1.902"/>
            <ellipse cx="180.154" cy="128.463" rx="1.901" ry="1.902"/>
            <ellipse cx="180.006" cy="151.119" rx="1.901" ry="1.902"/>
            <ellipse cx="199.778" cy="162.536" rx="1.901" ry="1.902"/>
            <ellipse cx="160.313" cy="162.87" rx="1.901" ry="1.902"/>
            <ellipse cx="213.008" cy="154.278" rx="1.901" ry="1.902"/>
            <ellipse cx="259.162" cy="104.332" rx="1.901" ry="1.902"/>
            <ellipse cx="279.049" cy="116.898" rx="1.901" ry="1.902"/>
            <ellipse cx="279.049" cy="138.817" rx="1.901" ry="1.902"/>
            <ellipse cx="259.162" cy="127.943" rx="1.901" ry="1.902"/>
            <ellipse cx="199.848" cy="93.295" rx="1.901" ry="1.902"/>
            <ellipse cx="199.917" cy="115.64" rx="1.901" ry="1.902"/>
            <ellipse cx="199.855" cy="47.618" rx="1.901" ry="1.902"/>
            <ellipse cx="180.084" cy="36.053" rx="1.901" ry="1.902"/>
            <ellipse cx="238.847" cy="70.165" rx="1.901" ry="1.902"/>
            <ellipse cx="219.138" cy="59.237" rx="1.901" ry="1.902"/>
            <ellipse cx="219.619" cy="81.582" rx="1.901" ry="1.902"/>
            <ellipse cx="252.481" cy="170.003" rx="1.901" ry="1.902"/>
            <ellipse cx="272.314" cy="158.826" rx="1.901" ry="1.902"/>
            <ellipse cx="272.314" cy="180.986" rx="1.901" ry="1.902"/>
            <ellipse cx="252.481" cy="192.162" rx="1.901" ry="1.902"/>
            <ellipse cx="232.771" cy="159.075" rx="1.901" ry="1.902"/>
            <ellipse cx="232.841" cy="181.413" rx="1.901" ry="1.902"/>
            <ellipse cx="232.717" cy="204.1" rx="1.901" ry="1.902"/>
            <ellipse cx="252.481" cy="214.927" rx="1.901" ry="1.902"/>
            <ellipse cx="232.717" cy="226.267" rx="1.901" ry="1.902"/>
            <ellipse cx="213.008" cy="193.171" rx="1.901" ry="1.902"/>
            <ellipse cx="180.006" cy="173.946" rx="1.901" ry="1.902"/>
            <ellipse cx="160.313" cy="185.192" rx="1.901" ry="1.902"/>
            <ellipse cx="199.778" cy="185.371" rx="1.901" ry="1.902"/>
            <ellipse cx="213.078" cy="215.517" rx="1.901" ry="1.902"/>
            <ellipse cx="180.053" cy="196.75" rx="1.901" ry="1.902"/>
            <ellipse cx="160.289" cy="207.911" rx="1.901" ry="1.902"/>
            <ellipse cx="180.053" cy="219.514" rx="1.901" ry="1.902"/>
            <ellipse cx="160.289" cy="230.854" rx="1.901" ry="1.902"/>
            <ellipse cx="160.289" cy="245.927" rx="1.901" ry="1.902"/>
            <ellipse cx="140.471" cy="265.013" rx="1.901" ry="1.902"/>
            <ellipse cx="140.471" cy="242.132" rx="1.901" ry="1.902"/>
            <ellipse cx="120.7" cy="253.883" rx="1.901" ry="1.902"/>
            <ellipse cx="120.7" cy="230.854" rx="1.901" ry="1.902"/>
            <ellipse cx="100.874" cy="219.514" rx="1.901" ry="1.902"/>
            <ellipse cx="81.165" cy="230.854" rx="1.901" ry="1.902"/>
            <ellipse cx="81.103" cy="245.927" rx="1.901" ry="1.902"/>
            <ellipse cx="67.935" cy="223.418" rx="1.901" ry="1.902"/>
            <ellipse cx="173.869" cy="253.883" rx="1.901" ry="1.902"/>
            <ellipse cx="140.58" cy="197.766" rx="1.901" ry="1.902"/>
            <ellipse cx="120.638" cy="208.206" rx="1.901" ry="1.902"/>
            <ellipse cx="100.929" cy="196.75" rx="1.901" ry="1.902"/>
            <ellipse cx="120.7" cy="185.371" rx="1.901" ry="1.902"/>
            <ellipse cx="140.409" cy="173.946" rx="1.901" ry="1.902"/>
            <ellipse cx="140.409" cy="151.119" rx="1.901" ry="1.902"/>
            <ellipse cx="120.638" cy="162.536" rx="1.901" ry="1.902"/>
            <ellipse cx="100.929" cy="173.946" rx="1.901" ry="1.902"/>
            <ellipse cx="81.165" cy="185.348" rx="1.901" ry="1.902"/>
            <ellipse cx="81.165" cy="162.435" rx="1.901" ry="1.902"/>
            <ellipse cx="100.874" cy="151.096" rx="1.901" ry="1.902"/>
            <ellipse cx="67.935" cy="192.597" rx="1.901" ry="1.902"/>
            <ellipse cx="67.935" cy="177.819" rx="1.901" ry="1.902"/>
            <ellipse cx="81.103" cy="200.134" rx="1.901" ry="1.902"/>
            <ellipse cx="140.65" cy="220.104" rx="1.901" ry="1.902"/>
            <ellipse cx="213.078" cy="237.684" rx="1.901" ry="1.902"/>
            <ellipse cx="252.55" cy="147.362" rx="1.901" ry="1.902"/>
            <ellipse cx="238.979" cy="47.579" rx="1.901" ry="1.902"/>
            <ellipse cx="259.162" cy="21.065" rx="1.901" ry="1.902"/>
            <ellipse cx="219.619" cy="35.96" rx="1.901" ry="1.902"/>
            <ellipse cx="259.162" cy="35.96" rx="1.901" ry="1.902"/>
            <ellipse cx="259.938" cy="67.301" rx="1.901" ry="1.902"/>
            <ellipse cx="272.384" cy="74.124" rx="1.901" ry="1.902"/>
            <ellipse cx="259.162" cy="81.582" rx="1.901" ry="1.902"/>
            <ellipse cx="219.619" cy="13.109" rx="1.901" ry="1.902"/>
            <ellipse cx="199.855" cy="2.36" rx="1.901" ry="1.902"/>
            <ellipse cx="199.855" cy="24.713" rx="1.901" ry="1.902"/>
            <ellipse cx="180.006" cy="21.065" rx="1.901" ry="1.902"/>
            <ellipse cx="166.885" cy="13.109" rx="1.901" ry="1.902"/>
            <ellipse cx="120.638" cy="93.318" rx="1.901" ry="1.902"/>
            <ellipse cx="100.882" cy="104.86" rx="1.901" ry="1.902"/>
            <ellipse cx="120.7" cy="115.866" rx="1.901" ry="1.902"/>
            <ellipse cx="120.754" cy="138.677" rx="1.901" ry="1.902"/>
            <ellipse cx="140.464" cy="127.407" rx="1.901" ry="1.902"/>
            <ellipse cx="160.313" cy="139.143" rx="1.901" ry="1.902"/>
            <ellipse cx="140.471" cy="104.72" rx="1.901" ry="1.902"/>
            <ellipse cx="160.313" cy="93.046" rx="1.901" ry="1.902"/>
            <ellipse cx="140.549" cy="81.582" rx="1.901" ry="1.902"/>
            <ellipse cx="160.243" cy="115.64" rx="1.901" ry="1.902"/>
            <ellipse cx="41.568" cy="93.171" rx="1.901" ry="1.902"/>
            <ellipse cx="22.262" cy="104.86" rx="1.901" ry="1.902"/>
            <ellipse cx="8.567" cy="97.176" rx="1.901" ry="1.902"/>
            <ellipse cx="8.567" cy="112.117" rx="1.901" ry="1.902"/>
            <ellipse cx="21.797" cy="89.802" rx="1.901" ry="1.902"/>
        </g>
        <g fill="#00152B" fill-rule="nonzero" opacity=".1" transform="translate(3.104 16.523)">
            <ellipse cx="18.576" cy="27.197" rx="4.943" ry="4.944"/>
            <ellipse cx="77.999" cy="31.861" rx="4.943" ry="4.944"/>
            <ellipse cx="124.378" cy="35.835" rx="4.943" ry="4.944"/>
            <ellipse cx="256.058" cy="5.363" rx="4.943" ry="4.944"/>
            <ellipse cx="216.453" cy="20.436" rx="4.943" ry="4.944"/>
            <ellipse cx="176.903" cy="5.72" rx="4.943" ry="4.944"/>
            <ellipse cx="256.058" cy="66.121" rx="4.943" ry="4.944"/>
            <ellipse cx="275.946" cy="123.154" rx="4.943" ry="4.944"/>
            <ellipse cx="269.28" cy="165.462" rx="4.943" ry="4.944"/>
            <ellipse cx="229.613" cy="210.744" rx="4.943" ry="4.944"/>
            <ellipse cx="249.439" cy="131.839" rx="4.943" ry="4.944"/>
            <ellipse cx="157.108" cy="230.404" rx="4.943" ry="4.944"/>
            <ellipse cx="117.596" cy="238.36" rx="4.943" ry="4.944"/>
            <ellipse cx="77.999" cy="215.331" rx="4.943" ry="4.944"/>
            <ellipse cx="197.225" cy="123.293" rx="4.943" ry="4.944"/>
            <ellipse cx="97.77" cy="135.596" rx="4.943" ry="4.944"/>
            <ellipse cx="117.534" cy="77.795" rx="4.943" ry="4.944"/>
            <ellipse cx="5.463" cy="81.652" rx="4.943" ry="4.944"/>
            <ellipse cx="64.831" cy="177.237" rx="4.943" ry="4.944"/>
            <ellipse cx="137.305" cy="158.43" rx="4.943" ry="4.944"/>
            <ellipse cx="18.693" cy="135.402" rx="4.943" ry="4.944"/>
            <ellipse cx="38.084" cy="54.688" rx="4.943" ry="4.944"/>
        </g>
        <g transform="translate(41.126 70.14)">
            <mask id="c" fill="#fff">
                <use xlink:href="#a"/>
            </mask>
            <path fill="url(#b)" d="M39.957 23.41V69.11L.418 46.263V.558z" mask="url(#c)" opacity=".7"/>
        </g>
        <g transform="translate(180.022 151.705)">
            <mask id="e" fill="#fff">
                <use xlink:href="#d"/>
            </mask>
            <path fill="url(#b)" d="M.052 23.266v45.699L39.59 46.119V.414z" mask="url(#e)" opacity=".7"/>
        </g>
        <g transform="translate(80.7 161.804)">
            <mask id="h" fill="#fff">
                <use xlink:href="#f"/>
            </mask>
            <path fill="url(#g)" d="M.453 23.415v45.699l39.538-22.846V.562z" mask="url(#h)" opacity=".7"/>
        </g>
        <g transform="translate(199.42 93.444)">
            <mask id="j" fill="#fff">
                <use xlink:href="#i"/>
            </mask>
            <path fill="url(#g)" d="M79.383 23.554L39.845.701.172 23.66 39.71 46.512z" mask="url(#j)" opacity=".7"/>
        </g>
        <g transform="translate(100.874 104.32)">
            <mask id="l" fill="#fff">
                <use xlink:href="#k"/>
            </mask>
            <path fill="url(#g)" d="M79.373 23.544L39.835.692.162 23.65l39.539 22.852z" mask="url(#l)" opacity=".7"/>
        </g>
        <g transform="translate(140.448 34.407)">
            <mask id="n" fill="#fff">
                <use xlink:href="#m"/>
            </mask>
            <path fill="url(#b)" d="M79.405 23.596L39.866.743.194 23.701l39.538 22.853z" mask="url(#n)" opacity=".7"/>
        </g>
        <g>
            <path fill="#FA0171" d="M180.14 129.991c-.102 0-.203-.008-.304-.023a1.938 1.938 0 0 1-.558-.233 1.405 1.405 0 0 1-.233-.194 1.541 1.541 0 0 1-.427-1.4c.024-.1.055-.201.086-.294.046-.094.093-.186.147-.264a1.54 1.54 0 0 1 1.59-.66c.102.015.202.046.296.085.093.04.178.086.263.14.086.062.163.125.241.194.07.07.132.156.186.24.062.079.109.171.148.265.038.093.07.194.085.295a1.567 1.567 0 0 1-.419 1.399c-.295.295-.69.45-1.102.45M194.642 119.349a1.55 1.55 0 0 1 .489-2.136 1.555 1.555 0 0 1 2.141.49 1.554 1.554 0 0 1-1.319 2.375 1.543 1.543 0 0 1-1.311-.73m-3.958 2.478a1.552 1.552 0 0 1 .497-2.136 1.547 1.547 0 0 1 2.134.49c.458.73.24 1.686-.49 2.144a1.522 1.522 0 0 1-.822.233c-.52 0-1.024-.256-1.319-.73m-3.95 2.478a1.55 1.55 0 0 1 .49-2.136 1.555 1.555 0 0 1 2.141.49 1.56 1.56 0 0 1-.496 2.143 1.51 1.51 0 0 1-.823.232 1.541 1.541 0 0 1-1.311-.729m-3.958 2.486a1.562 1.562 0 0 1 .497-2.145 1.554 1.554 0 0 1 2.134.49 1.559 1.559 0 0 1-1.312 2.385c-.52 0-1.024-.264-1.319-.73M199.91 117.601c-.1 0-.209-.008-.302-.031a1.367 1.367 0 0 1-.295-.085 1.715 1.715 0 0 1-.264-.14c-.085-.055-.163-.125-.24-.194a1.553 1.553 0 0 1-.419-1.407 1.34 1.34 0 0 1 .085-.287c.039-.093.085-.186.147-.272.055-.086.117-.163.187-.233.077-.07.155-.14.24-.194a1.715 1.715 0 0 1 .559-.233c.202-.039.403-.039.605 0a1.794 1.794 0 0 1 .559.233c.085.054.163.124.233.194.077.07.14.147.194.233.054.086.108.179.147.272.039.093.062.194.085.287a1.553 1.553 0 0 1-.085.902 1.579 1.579 0 0 1-.341.505c-.14.146-.31.256-.505.334-.186.077-.38.116-.59.116M138.843 59.324c0-.861.69-1.553 1.544-1.561.861 0 1.56.7 1.56 1.554 0 .863-.69 1.553-1.552 1.553a1.54 1.54 0 0 1-1.552-1.546m.008 4.661a1.548 1.548 0 0 1 1.544-1.561c.861 0 1.552.7 1.56 1.554 0 .854-.699 1.553-1.552 1.553a1.55 1.55 0 0 1-1.552-1.546m0 4.661a1.56 1.56 0 0 1 1.552-1.561c.86 0 1.552.691 1.552 1.553a1.546 1.546 0 0 1-1.545 1.554c-.86 0-1.552-.69-1.56-1.546m.016 4.661a1.548 1.548 0 1 1 3.096-.008 1.54 1.54 0 0 1-1.544 1.554c-.861 0-1.552-.69-1.552-1.546m0 4.66c0-.86.69-1.553 1.552-1.56a1.552 1.552 0 1 1-1.552 1.561m.008 4.653a1.553 1.553 0 1 1 3.104 0c0 .863-.69 1.554-1.544 1.554-.862 0-1.56-.691-1.56-1.554m.008 4.669c0-.862.69-1.562 1.552-1.562.853 0 1.552.7 1.552 1.554a1.552 1.552 0 0 1-3.104.008m.008 4.66c0-.861.69-1.56 1.551-1.56a1.552 1.552 0 1 1 0 3.107 1.545 1.545 0 0 1-1.551-1.547m.007 4.661c0-.861.69-1.561 1.544-1.561.862 0 1.552.691 1.56 1.554a1.552 1.552 0 0 1-3.104.007m.008 4.661c0-.861.69-1.561 1.544-1.561a1.552 1.552 0 1 1-1.544 1.561M96.088 130.877a1.553 1.553 0 0 1 .489-2.144 1.552 1.552 0 0 1 2.133.49c.458.73.241 1.685-.48 2.143a1.544 1.544 0 0 1-2.142-.49m-3.942 2.487a1.553 1.553 0 1 1 2.63-1.655c.45.722.233 1.686-.489 2.144a1.592 1.592 0 0 1-.822.233c-.52 0-1.024-.256-1.32-.722m-3.941 2.478a1.56 1.56 0 0 1 .489-2.144 1.563 1.563 0 0 1 2.141.489c.458.73.241 1.686-.488 2.144a1.545 1.545 0 0 1-2.142-.49m-3.942 2.486a1.566 1.566 0 0 1 .489-2.144 1.548 1.548 0 0 1 2.142.49c.457.722.24 1.685-.49 2.144a1.592 1.592 0 0 1-.822.233c-.52 0-1.024-.257-1.319-.723m-3.934 2.486a1.552 1.552 0 0 1 .489-2.144 1.54 1.54 0 0 1 2.134.49c.458.722.24 1.677-.49 2.136-.255.163-.535.24-.822.24a1.552 1.552 0 0 1-1.311-.722m-.784 3.527a1.552 1.552 0 1 1 3.104 0 1.553 1.553 0 1 1-3.104 0m0 4.66a1.552 1.552 0 1 1 3.104 0 1.553 1.553 0 1 1-3.104 0m0 4.662a1.552 1.552 0 1 1 3.104 0 1.553 1.553 0 1 1-3.104 0m0 4.66a1.552 1.552 0 1 1 3.104 0 1.553 1.553 0 1 1-3.104 0m0 4.661a1.552 1.552 0 1 1 3.104 0 1.553 1.553 0 1 1-3.104 0m0 4.661a1.552 1.552 0 1 1 3.104 0 1.553 1.553 0 1 1-3.104 0m0 4.661a1.552 1.552 0 1 1 3.104 0 1.553 1.553 0 1 1-3.104 0m0 4.661a1.552 1.552 0 1 1 3.104 0 1.553 1.553 0 1 1-3.104 0m0 4.66a1.552 1.552 0 1 1 3.104 0 1.553 1.553 0 1 1-3.104 0m0 4.662a1.552 1.552 0 1 1 3.104 0 1.553 1.553 0 1 1-3.104 0M139.526 152.1a1.557 1.557 0 0 1-.528-2.137 1.55 1.55 0 0 1 2.134-.52c.73.442.97 1.398.52 2.127-.287.482-.8.755-1.327.755-.272 0-.551-.079-.8-.226m3.981 2.416a1.559 1.559 0 0 1-.527-2.137 1.553 1.553 0 0 1 2.134-.527c.729.45.97 1.405.52 2.136-.288.482-.8.746-1.327.746-.272 0-.551-.07-.8-.218m3.98 2.408a1.54 1.54 0 0 1-.519-2.128 1.544 1.544 0 0 1 2.126-.528c.737.45.97 1.398.528 2.136a1.56 1.56 0 0 1-2.134.52m3.98 2.416a1.56 1.56 0 0 1-.52-2.137 1.55 1.55 0 0 1 2.127-.52c.737.443.97 1.398.527 2.136a1.557 1.557 0 0 1-2.133.52m3.98 2.417a1.56 1.56 0 0 1-.52-2.136 1.555 1.555 0 0 1 2.134-.52c.73.442.962 1.398.52 2.128-.287.49-.8.754-1.327.754-.28 0-.55-.07-.807-.226m3.989 2.416a1.557 1.557 0 0 1-.528-2.136 1.55 1.55 0 0 1 2.134-.521c.73.442.97 1.399.52 2.128-.287.49-.8.754-1.327.754-.272 0-.551-.078-.8-.225m3.981 2.415a1.554 1.554 0 1 1 2.134-.527 1.559 1.559 0 0 1-1.334.746c-.272 0-.551-.07-.8-.219m3.981 2.41a1.546 1.546 0 0 1-.52-2.13 1.544 1.544 0 0 1 2.126-.528c.737.45.97 1.399.528 2.137a1.557 1.557 0 0 1-2.134.52m3.98 2.415a1.56 1.56 0 0 1-.52-2.136 1.55 1.55 0 0 1 2.127-.52c.737.443.97 1.398.528 2.136a1.554 1.554 0 0 1-2.134.52m3.988 2.417a1.556 1.556 0 0 1-.528-2.136 1.552 1.552 0 0 1 2.654 1.608c-.287.49-.8.753-1.327.753-.271 0-.55-.07-.799-.225"/>
            <path fill="#38D611" d="M136.453 61.12a1.562 1.562 0 0 1 .582-2.121 1.554 1.554 0 1 1-.582 2.12m-4.043 2.307a1.556 1.556 0 0 1 .582-2.121 1.552 1.552 0 0 1 2.119.582 1.563 1.563 0 0 1-.582 2.122 1.544 1.544 0 0 1-.769.201 1.552 1.552 0 0 1-1.35-.784m-4.043 2.307c-.426-.753-.17-1.7.575-2.12a1.552 1.552 0 1 1 1.536 2.695c-.24.14-.504.21-.768.21a1.547 1.547 0 0 1-1.343-.785m-4.05 2.3a1.554 1.554 0 0 1 .582-2.12 1.554 1.554 0 1 1 .768 2.904c-.543 0-1.063-.28-1.35-.785m-4.05 2.308a1.562 1.562 0 0 1 .581-2.12c.745-.42 1.7-.164 2.119.582a1.555 1.555 0 0 1-1.35 2.323c-.536 0-1.063-.28-1.35-.785m-4.043 2.3a1.55 1.55 0 0 1 .582-2.114 1.552 1.552 0 0 1 2.118.582 1.563 1.563 0 0 1-.582 2.122c-.24.132-.504.202-.768.202a1.562 1.562 0 0 1-1.35-.793m-4.05 2.307a1.551 1.551 0 1 1 2.7-1.53 1.546 1.546 0 0 1-1.35 2.315c-.536 0-1.064-.28-1.35-.785m-4.043 2.308a1.555 1.555 0 0 1 .581-2.121 1.559 1.559 0 0 1 2.119.583 1.562 1.562 0 0 1-.582 2.12c-.24.14-.504.201-.768.201a1.543 1.543 0 0 1-1.35-.783m-4.051 2.306a1.56 1.56 0 0 1 .582-2.12 1.554 1.554 0 1 1 .776 2.905c-.543 0-1.07-.287-1.358-.785m-4.043 2.308a1.553 1.553 0 1 1 2.7-1.539 1.552 1.552 0 0 1-.581 2.114c-.249.14-.512.21-.769.21a1.56 1.56 0 0 1-1.35-.785m-4.05 2.3a1.563 1.563 0 0 1 .582-2.122 1.559 1.559 0 0 1 2.118.582 1.556 1.556 0 0 1-1.342 2.324c-.543 0-1.071-.28-1.358-.785m-4.043 2.307a1.555 1.555 0 0 1 .582-2.12 1.559 1.559 0 0 1 2.118.582 1.562 1.562 0 0 1-.582 2.121 1.565 1.565 0 0 1-.768.201 1.543 1.543 0 0 1-1.35-.784m-4.05 2.3a1.551 1.551 0 1 1 2.7-1.53 1.554 1.554 0 0 1-1.35 2.322 1.56 1.56 0 0 1-1.35-.792M83.85 91.08a1.554 1.554 0 0 1 .582-2.12 1.559 1.559 0 0 1 2.118.583 1.561 1.561 0 0 1-.582 2.12 1.55 1.55 0 0 1-.768.202c-.543 0-1.063-.28-1.35-.785m-4.05 2.308a1.562 1.562 0 0 1 .581-2.12 1.555 1.555 0 1 1 .776 2.905c-.543 0-1.07-.28-1.358-.785M218.829 60.56a1.55 1.55 0 0 1-.567-2.12c.42-.746 1.374-.996 2.118-.576.738.427.994 1.383.567 2.13a1.55 1.55 0 0 1-1.343.776c-.263 0-.527-.07-.775-.21m4.042 2.322a1.552 1.552 0 0 1-.574-2.12 1.55 1.55 0 0 1 2.118-.575 1.554 1.554 0 0 1 .575 2.12 1.554 1.554 0 0 1-1.35.786c-.264 0-.528-.07-.769-.211m4.035 2.323a1.553 1.553 0 1 1 2.119-.575 1.568 1.568 0 0 1-1.35.784c-.264 0-.528-.07-.769-.21m4.035 2.324a1.554 1.554 0 0 1 1.544-2.696 1.557 1.557 0 1 1-.768 2.905c-.264 0-.527-.07-.776-.209m4.035 2.322a1.559 1.559 0 0 1-.566-2.12 1.548 1.548 0 0 1 2.118-.575c.737.427.993 1.375.567 2.121a1.558 1.558 0 0 1-2.118.574m2.855 1.212a1.552 1.552 0 0 1 3.104 0c0 .854-.699 1.553-1.552 1.553-.862 0-1.552-.699-1.552-1.553m0 4.654c0-.856.69-1.547 1.552-1.547a1.55 1.55 0 0 1 1.552 1.547c0 .861-.699 1.56-1.552 1.56-.862 0-1.552-.699-1.552-1.56m0 4.668a1.552 1.552 0 0 1 3.104 0c0 .854-.699 1.553-1.552 1.553-.862 0-1.552-.699-1.552-1.553m0 4.66c0-.862.69-1.56 1.552-1.56a1.558 1.558 0 0 1 0 3.114c-.862 0-1.552-.699-1.552-1.554m0 4.661a1.552 1.552 0 0 1 3.104 0c0 .855-.699 1.547-1.552 1.547a1.546 1.546 0 0 1-1.552-1.547"/>
            <path fill="#FA0171" d="M237.994 140.742a1.556 1.556 0 0 1 .513-2.144 1.559 1.559 0 0 1 2.133.512 1.57 1.57 0 0 1-.512 2.145 1.563 1.563 0 0 1-2.134-.513m-3.972 2.432a1.554 1.554 0 0 1 .512-2.136 1.55 1.55 0 0 1 2.134.512c.45.73.217 1.686-.513 2.137a1.557 1.557 0 0 1-.807.225 1.539 1.539 0 0 1-1.326-.738m-3.973 2.431a1.561 1.561 0 0 1 .512-2.136 1.553 1.553 0 0 1 2.134.513c.45.73.225 1.693-.512 2.136a1.52 1.52 0 0 1-.807.233c-.52 0-1.032-.264-1.327-.746m-3.965 2.439a1.553 1.553 0 1 1 2.647-1.625 1.553 1.553 0 0 1-2.647 1.625m-3.973 2.44a1.55 1.55 0 0 1 .512-2.137 1.547 1.547 0 0 1 2.134.505 1.55 1.55 0 0 1-.512 2.136 1.532 1.532 0 0 1-.807.233 1.557 1.557 0 0 1-1.327-.737"/>
            <path fill="#38D611" d="M122.874 211.176a1.558 1.558 0 0 1-.543-2.129 1.546 1.546 0 0 1 2.126-.543c.737.435.977 1.39.543 2.128a1.548 1.548 0 0 1-2.126.544m4.004 2.377a1.558 1.558 0 0 1-.544-2.13 1.546 1.546 0 0 1 2.127-.542c.737.435.985 1.39.543 2.127a1.547 1.547 0 0 1-2.126.545m4.004 2.377a1.558 1.558 0 0 1-.544-2.129 1.547 1.547 0 0 1 2.127-.543 1.55 1.55 0 0 1 .543 2.128 1.547 1.547 0 0 1-2.126.544m4.003 2.377a1.557 1.557 0 0 1-.543-2.13 1.548 1.548 0 0 1 2.126-.542c.738.435.986 1.39.544 2.127a1.548 1.548 0 0 1-2.127.545m4.004 2.377a1.549 1.549 0 0 1-.535-2.128 1.545 1.545 0 0 1 2.126-.544c.737.434.978 1.39.536 2.128-.288.49-.8.762-1.335.762a1.56 1.56 0 0 1-.792-.218m39.823.63a1.561 1.561 0 0 1 .613-2.114 1.555 1.555 0 1 1-.613 2.113m-35.819 1.748a1.563 1.563 0 0 1-.543-2.128 1.554 1.554 0 1 1 .543 2.128m31.745.505a1.55 1.55 0 0 1 .613-2.105 1.538 1.538 0 0 1 2.103.606 1.55 1.55 0 1 1-2.716 1.499m-27.733 1.871a1.548 1.548 0 0 1-.543-2.127 1.546 1.546 0 0 1 2.126-.544c.737.434.978 1.39.543 2.128-.295.49-.807.762-1.334.762-.272 0-.544-.07-.792-.219m23.659.389c-.411-.753-.14-1.7.605-2.112.753-.42 1.7-.148 2.11.605a1.553 1.553 0 1 1-2.716 1.506m-19.654 1.99a1.553 1.553 0 1 1 1.583-2.673c.737.436.978 1.391.543 2.13a1.56 1.56 0 0 1-1.342.76 1.54 1.54 0 0 1-.784-.217m15.581.264a1.564 1.564 0 0 1 .605-2.113c.753-.411 1.7-.14 2.111.605a1.556 1.556 0 0 1-1.358 2.308c-.543 0-1.07-.287-1.358-.8m-11.577 2.112a1.555 1.555 0 0 1-.543-2.127 1.546 1.546 0 0 1 2.126-.544c.737.435.978 1.39.543 2.128a1.548 1.548 0 0 1-2.126.543m7.503.141a1.558 1.558 0 0 1 .606-2.114 1.557 1.557 0 0 1 2.11.614c.412.746.14 1.694-.605 2.114-.24.123-.497.185-.753.185a1.547 1.547 0 0 1-1.358-.799m-3.5 2.237a1.552 1.552 0 1 1 .791.217c-.27 0-.542-.07-.79-.217"/>
        </g>
        <g>
            <path fill="#38D611" d="M142.72 59.319l37.21 21.508 37.347-21.611-37.211-21.507-37.346 21.61zm37.211 24.2L138.066 59.32l41.999-24.304 41.866 24.197-42 24.304z"/>
            <path fill="#FA0171" d="M202.103 117.073l37.21 21.508 37.347-21.611-37.211-21.508-37.346 21.611zm37.211 24.199l-41.865-24.197 41.999-24.304 41.866 24.197-42 24.304zM103.114 127.916l37.212 21.508 37.345-21.611-37.211-21.508-37.346 21.61zm37.213 24.198L98.46 127.917l41.998-24.304 41.866 24.198-41.998 24.303z"/>
            <path fill="#38D611" d="M42.719 115.727l37.211 21.5V94.22L42.719 72.712v43.015zm39.539 25.536l-41.867-24.19V68.676l41.867 24.197v48.389zM181.237 175.539v43.007l37.211-21.5V154.03l-37.21 21.508zm-2.327 47.044v-48.39l41.866-24.198v48.396l-41.866 24.192z"/>
            <path fill="#FA0171" d="M82.316 185.892v43.007l37.21-21.5v-43.015l-37.21 21.508zm-2.328 47.043v-48.389l41.866-24.198v48.397l-41.866 24.19z"/>
        </g>
    </g>
</svg>
