<svg id="Layer_1" data-name="Layer 1" xmlns="http://www.w3.org/2000/svg" viewBox="0 0 203.28 83.94"><defs><style>.cls-1{fill:#fff}.cls-7{fill:#ff17aa}</style><linearGradient id="linear-gradient" x1="-629.51" y1="422.32" x2="-628.42" y2="422.32" gradientTransform="matrix(88.21 0 0 -83.77 55641.53 35417.8)" gradientUnits="userSpaceOnUse"><stop offset="0" stop-color="#304a6c"/><stop offset="1" stop-color="#38d611"/></linearGradient><mask id="mask" x="115.07" y=".18" width="88.21" height="83.77" maskUnits="userSpaceOnUse"><g transform="translate(-.1 -.06)"><g id="c"><path id="a" class="cls-1" d="M149.54.24h-7.91l10.88 35.24H129a1.57 1.57 0 0 1-1-.59c-1.93-2.52-3.81-5.11-5.77-7.63a1.18 1.18 0 0 0-.88-.53h-6.12l.07.43c.41 1.36.87 2.69 1.26 4.06l2.94 10.25a2.4 2.4 0 0 1 0 1.19c-1.33 4.72-2.7 9.48-4.07 14.21a.94.94 0 0 1-.2.35v.35h6.12a1.32 1.32 0 0 0 .88-.53c1.92-2.52 3.84-5 5.7-7.59a1.42 1.42 0 0 1 1.36-.67h23.39L141.63 84h7.66a1.65 1.65 0 0 0 1.65-.91q10.5-16.72 21-33.53a1.57 1.57 0 0 1 1.57-.87h23.66a6.59 6.59 0 1 0-.77-13.16h-22.64a1.85 1.85 0 0 1-1.86-1L150.9 1a1.42 1.42 0 0 0-1.23-.74h-.13"/></g></g></mask><mask id="mask-2" x="0" y="26.51" width="88.21" height="57.27" maskUnits="userSpaceOnUse"><g transform="translate(-.1 -.06)"><g id="b"><path id="a-2" data-name="a" class="cls-1" d="M.1 26.56h88.21v57.27H.1z"/></g></g></mask></defs><title>style-sm-flat-icon-gradient-multiple-color</title><path id="a-3" data-name="a" d="M149.54.24h-7.91l10.88 35.24H129a1.57 1.57 0 0 1-1-.59c-1.93-2.52-3.81-5.11-5.77-7.63a1.18 1.18 0 0 0-.88-.53h-6.12l.07.43c.41 1.36.87 2.69 1.26 4.06l2.94 10.25a2.4 2.4 0 0 1 0 1.19c-1.33 4.72-2.7 9.48-4.07 14.21a.94.94 0 0 1-.2.35v.35h6.12a1.32 1.32 0 0 0 .88-.53c1.92-2.52 3.84-5 5.7-7.59a1.42 1.42 0 0 1 1.36-.67h23.39L141.63 84h7.66a1.65 1.65 0 0 0 1.65-.91q10.5-16.72 21-33.53a1.57 1.57 0 0 1 1.57-.87h23.66a6.59 6.59 0 1 0-.77-13.16h-22.64a1.85 1.85 0 0 1-1.86-1L150.9 1a1.42 1.42 0 0 0-1.23-.74h-.13" transform="translate(-.1 -.06)" fill="url(#linear-gradient)"/><g mask="url(#mask)"><path d="M149.54.24h-7.91l10.88 35.24H129a1.57 1.57 0 0 1-1-.59c-1.93-2.52-3.81-5.11-5.77-7.63a1.18 1.18 0 0 0-.88-.53h-6.12l.07.43c.41 1.36.87 2.69 1.26 4.06l2.94 10.25a2.4 2.4 0 0 1 0 1.19c-1.33 4.72-2.7 9.48-4.07 14.21a.94.94 0 0 1-.2.35v.35h6.12a1.32 1.32 0 0 0 .88-.53c1.92-2.52 3.84-5 5.7-7.59a1.42 1.42 0 0 1 1.36-.67h23.39L141.63 84h7.66a1.65 1.65 0 0 0 1.65-.91q10.5-16.72 21-33.53a1.57 1.57 0 0 1 1.57-.87h23.66a6.59 6.59 0 1 0-.77-13.16h-22.64a1.85 1.85 0 0 1-1.86-1L150.9 1a1.42 1.42 0 0 0-1.23-.74h-.13" transform="translate(-.1 -.06)" fill="none"/></g><path d="M56.87 34.4H37.16L26.56.07h7.91a1.35 1.35 0 0 1 1.36.73l21 33.57" transform="translate(-.1 -.06)" fill="#38d611"/><g mask="url(#mask-2)"><path class="cls-7" d="M88.3 41.54a6.59 6.59 0 0 1-6.2 7H58.44a1.6 1.6 0 0 0-1.57.87q-10.5 16.8-21 33.53a1.63 1.63 0 0 1-1.65.91h-7.66l11-35.2H14.17a1.39 1.39 0 0 0-1.37.66C11 51.83 9 54.35 7.1 56.87a1.44 1.44 0 0 1-.88.53H.1v-.35a1.13 1.13 0 0 0 .21-.35C1.67 52 3 47.21 4.37 42.49a2.4 2.4 0 0 0 0-1.19L1.43 31C1 29.68.59 28.35.17 27l-.07-.44h6.12a1.07 1.07 0 0 1 .88.53c2 2.52 3.85 5.11 5.77 7.63a1.72 1.72 0 0 0 1 .59h44.4a1.5 1.5 0 0 0 .42 0h22.64a6.59 6.59 0 0 1 7 6.19" transform="translate(-.1 -.06)"/></g><path class="cls-7" d="M58.65 34.4h-1.78m-19.71 0h-.8" transform="translate(-.1 -.06)"/></svg>