<svg xmlns="http://www.w3.org/2000/svg" xmlns:xlink="http://www.w3.org/1999/xlink" width="284" height="267" viewBox="0 0 284 267">
    <defs>
        <path id="a" d="M.451 22.653L40.58.128l40.575 22.525v46.463L40.579 93.52 27.24 84.67l-13.55 8.852 1.261-16.605-14.5-7.8z"/>
        <linearGradient id="b" x1="0%" x2="100.016%" y1="50.002%" y2="50.002%">
            <stop offset="0%" stop-color="#304A6C"/>
            <stop offset="100%" stop-color="#38D611"/>
        </linearGradient>
        <path id="d" d="M80.95 22.647v46.462l-14.5 7.8 1.261 16.605-13.549-8.852-13.338 8.852L.249 69.11V22.647L40.824.12z"/>
        <linearGradient id="e" x1="-.143%" y1="49.996%" y2="49.996%">
            <stop offset="0%" stop-color="#304A6C"/>
            <stop offset="100%" stop-color="#FA0171"/>
        </linearGradient>
    </defs>
    <g fill="none" fill-rule="evenodd">
        <g stroke="#00152B" stroke-width=".5" opacity=".2">
            <path d="M81.103 93.155V70.32L61.332 58.903 41.568 70.32v22.835l19.764 11.417z"/>
            <path d="M61.332 104.588v-22.85L41.568 70.32 21.797 58.903V44.008"/>
            <path d="M81.103 70.32L61.332 81.738 41.568 93.155M81.103 93.155L61.332 81.738M120.638 93.147l-19.764 11.418v22.834l19.764 11.418 19.771-11.418v-22.834"/>
            <path d="M100.874 104.565l19.764 11.417v45.933"/>
            <path d="M140.41 104.565l-19.772 11.417-19.764 11.417"/>
            <path d="M120.638 115.982l19.771 11.417 13.587 8.259 6.317 3.842V93.046l19.77-11.417M120.638 93.147V70.313l-19.764-11.418-19.771 11.418v22.834l19.771 11.418z"/>
            <path d="M81.103 93.147l19.771-11.417 19.764-11.417 19.771-10.72V81.73M61.332 127.407v-22.835L41.568 93.155l-19.771 11.417v22.835l19.771 11.417"/>
            <path d="M21.797 89.802l-13.23 7.374 13.23 7.396 19.771 11.418v22.85"/>
            <path d="M61.332 104.572L41.568 115.99l-19.771 11.417v23.518l-19.888 10.99v-22.508M61.332 127.407L41.568 115.99"/>
            <path d="M100.874 127.4v-22.835L81.103 93.147l-19.771 11.418v22.834l19.771 11.418z"/>
            <path d="M61.332 104.565l19.771 11.417v22.85l-19.771 11.96 19.771 11.643 19.771-11.51M100.874 104.565l-19.771 11.417-19.771 11.417M8.567 66.517l13.23-7.614M8.567 112.117V97.176M81.103 24.923v22.772L61.332 58.903V35.921M120.638 93.147L100.874 81.73V44.008l13.549-7.955M127.482 51.452l12.927 8.142M41.568 161.915l-19.771-10.99M272.314 181.18v-22.835l-19.771-11.417-19.772 11.417v22.835l19.772 11.417z"/>
            <path d="M272.314 158.345l-19.771 11.417-19.772 11.418M252.543 215.432v-22.835L232.77 181.18 213 192.597v22.835l19.771 11.41"/>
            <path d="M199.778 185.192L213 192.597l19.771 11.417v22.843"/>
            <path d="M213 238.166v-22.734l19.771-11.418 19.772-11.417v-22.858M252.543 215.424l-19.772-11.41M199.855 70.22V47.384l19.764-11.418 19.771 11.418v22.834L219.62 81.637z"/>
            <path d="M219.619 81.645V58.802l19.771-11.417 19.772-11.418V21.065"/>
            <path d="M199.855 47.385l19.764 11.417L239.39 70.22M199.855 70.22l19.764-11.418M160.313 70.212l19.77 11.417v22.835l-19.77 11.41-19.764-11.41V81.629"/>
            <path d="M140.549 81.629l19.764 11.417 19.77 11.418M160.313 93.046l-19.764 11.418M160.313 70.212V47.377l19.77-11.417 19.772 11.417v22.835l-19.771 11.417z"/>
            <path d="M199.716 70.212l-19.764-11.418-19.771-11.417-19.772-10.719V59.57M219.619 104.464V81.637l19.771-11.418 19.772 11.418v22.827L239.39 115.88"/>
            <path d="M259.162 66.859l13.222 7.373-13.222 7.405-19.772 11.417v22.843"/>
            <path d="M219.619 81.637l19.771 11.417 19.772 11.41v23.517l19.887 10.999V116.47M219.619 104.464l19.771-11.41"/>
            <path d="M180.084 104.464V81.629l19.771-11.417 19.764 11.417v22.835l-19.764 11.41z"/>
            <path d="M219.619 81.629l-19.764 11.417v22.843l19.764 11.968-19.764 11.643-19.849-11.557"/>
            <path d="M180.084 81.629l19.771 11.417 19.764 11.418M199.855 1.98v22.772l19.764 11.215V12.985M160.313 70.212l19.77-11.418V21.065l-13.547-7.956M153.337 28.516l-12.928 8.142M140.471 196.78v22.835l-19.771 11.41-19.771-11.41v-22.834l19.771-11.418z"/>
            <path d="M120.7 185.348v22.85l-19.771 11.417-19.764 11.41v14.902M140.471 219.615L120.7 208.198l-19.771-11.417M140.471 196.78L120.7 208.199M180.006 196.788l-19.763-11.417v-22.835l19.763-11.417 19.772 11.417v22.835"/>
            <path d="M160.243 185.371l19.763-11.417v-46.011"/>
            <path d="M199.778 185.371l-19.772-11.417-19.763-11.418"/>
            <path d="M180.006 173.954l19.772-11.418 13.587-8.258M180.006 196.788v22.827l-19.763 11.418-19.772-11.418v-22.827l19.772-11.417z"/>
            <path d="M140.471 196.788l19.772 11.418 19.763 11.41 14.837 8.048L213 237.684M120.7 162.528v22.835l-19.771 11.418-19.764-11.418v-22.835"/>
            <path d="M81.165 200.134l-13.23-7.374 13.23-7.397 19.764-11.417v-22.85M120.7 162.528l-19.771 11.418M160.243 162.536v22.835l-19.772 11.417-19.771-11.417v-22.835l19.771-11.417z"/>
            <path d="M120.7 185.371l19.771-11.417v-22.85L120.7 139.142"/>
            <path d="M160.243 185.371l-19.772-11.417-19.771-11.418M67.935 223.418l13.23 7.615M67.935 177.819v14.941M140.471 265.013V242.24L120.7 231.025v22.99M180.006 196.788l-19.763 11.418V245.927l13.548 7.956M232.771 158.345l39.543 22.835"/>
        </g>
        <g fill="#00152B" fill-rule="nonzero" opacity=".3">
            <ellipse cx="21.797" cy="42.961" rx="1.901" ry="1.902"/>
            <ellipse cx="7.961" cy="66.517" rx="1.901" ry="1.902"/>
            <ellipse cx="21.797" cy="58.903" rx="1.901" ry="1.902"/>
            <ellipse cx="41.335" cy="70.32" rx="1.901" ry="1.902"/>
            <ellipse cx="61.347" cy="81.629" rx="1.901" ry="1.902"/>
            <ellipse cx="100.882" cy="81.629" rx="1.901" ry="1.902"/>
            <ellipse cx="61.347" cy="58.903" rx="1.901" ry="1.902"/>
            <ellipse cx="61.347" cy="36.053" rx="1.901" ry="1.902"/>
            <ellipse cx="81.103" cy="24.923" rx="1.901" ry="1.902"/>
            <ellipse cx="81.103" cy="47.618" rx="1.901" ry="1.902"/>
            <ellipse cx="81.103" cy="70.32" rx="1.901" ry="1.902"/>
            <ellipse cx="81.103" cy="93.046" rx="1.901" ry="1.902"/>
            <ellipse cx="61.347" cy="104.588" rx="1.901" ry="1.902"/>
            <ellipse cx="61.332" cy="127.547" rx="1.901" ry="1.902"/>
            <ellipse cx="41.335" cy="116.005" rx="1.901" ry="1.902"/>
            <ellipse cx="41.188" cy="138.817" rx="1.901" ry="1.902"/>
            <ellipse cx="21.797" cy="127.399" rx="1.901" ry="1.902"/>
            <ellipse cx="21.797" cy="150.925" rx="1.901" ry="1.902"/>
            <ellipse cx="40.939" cy="161.628" rx="1.901" ry="1.902"/>
            <ellipse cx="1.909" cy="161.628" rx="1.901" ry="1.902"/>
            <ellipse cx="1.909" cy="139.896" rx="1.901" ry="1.902"/>
            <ellipse cx="81.103" cy="116.005" rx="1.901" ry="1.902"/>
            <ellipse cx="81.165" cy="138.817" rx="1.901" ry="1.902"/>
            <ellipse cx="100.874" cy="127.547" rx="1.901" ry="1.902"/>
            <ellipse cx="61.347" cy="150.925" rx="1.901" ry="1.902"/>
            <ellipse cx="100.882" cy="59.175" rx="1.901" ry="1.902"/>
            <ellipse cx="100.936" cy="44.008" rx="1.901" ry="1.902"/>
            <ellipse cx="114.345" cy="36.053" rx="1.901" ry="1.902"/>
            <ellipse cx="120.638" cy="70.592" rx="1.901" ry="1.902"/>
            <ellipse cx="127.482" cy="51.529" rx="1.901" ry="1.902"/>
            <ellipse cx="140.409" cy="59.594" rx="1.901" ry="1.902"/>
            <ellipse cx="140.409" cy="36.658" rx="1.901" ry="1.902"/>
            <ellipse cx="153.337" cy="28.516" rx="1.901" ry="1.902"/>
            <ellipse cx="160.313" cy="47.385" rx="1.901" ry="1.902"/>
            <ellipse cx="160.313" cy="70.32" rx="1.901" ry="1.902"/>
            <ellipse cx="199.716" cy="70.212" rx="1.901" ry="1.902"/>
            <ellipse cx="180.006" cy="59.283" rx="1.901" ry="1.902"/>
            <ellipse cx="180.084" cy="81.629" rx="1.901" ry="1.902"/>
            <ellipse cx="180.154" cy="104.332" rx="1.901" ry="1.902"/>
            <ellipse cx="219.557" cy="104.223" rx="1.901" ry="1.902"/>
            <ellipse cx="239.39" cy="93.054" rx="1.901" ry="1.902"/>
            <ellipse cx="239.39" cy="115.982" rx="1.901" ry="1.902"/>
            <ellipse cx="219.557" cy="127.943" rx="1.901" ry="1.902"/>
            <ellipse cx="200.329" cy="139.143" rx="1.901" ry="1.902"/>
            <ellipse cx="180.154" cy="128.463" rx="1.901" ry="1.902"/>
            <ellipse cx="180.006" cy="151.119" rx="1.901" ry="1.902"/>
            <ellipse cx="199.778" cy="162.536" rx="1.901" ry="1.902"/>
            <ellipse cx="160.313" cy="162.87" rx="1.901" ry="1.902"/>
            <ellipse cx="213.008" cy="154.278" rx="1.901" ry="1.902"/>
            <ellipse cx="259.162" cy="104.332" rx="1.901" ry="1.902"/>
            <ellipse cx="279.049" cy="116.898" rx="1.901" ry="1.902"/>
            <ellipse cx="279.049" cy="138.817" rx="1.901" ry="1.902"/>
            <ellipse cx="259.162" cy="127.943" rx="1.901" ry="1.902"/>
            <ellipse cx="199.848" cy="93.295" rx="1.901" ry="1.902"/>
            <ellipse cx="199.917" cy="115.64" rx="1.901" ry="1.902"/>
            <ellipse cx="199.855" cy="47.618" rx="1.901" ry="1.902"/>
            <ellipse cx="180.084" cy="36.053" rx="1.901" ry="1.902"/>
            <ellipse cx="238.847" cy="70.165" rx="1.901" ry="1.902"/>
            <ellipse cx="219.138" cy="59.237" rx="1.901" ry="1.902"/>
            <ellipse cx="219.619" cy="81.582" rx="1.901" ry="1.902"/>
            <ellipse cx="252.481" cy="170.003" rx="1.901" ry="1.902"/>
            <ellipse cx="272.314" cy="158.826" rx="1.901" ry="1.902"/>
            <ellipse cx="272.314" cy="180.986" rx="1.901" ry="1.902"/>
            <ellipse cx="252.481" cy="192.162" rx="1.901" ry="1.902"/>
            <ellipse cx="232.771" cy="159.075" rx="1.901" ry="1.902"/>
            <ellipse cx="232.841" cy="181.413" rx="1.901" ry="1.902"/>
            <ellipse cx="232.717" cy="204.1" rx="1.901" ry="1.902"/>
            <ellipse cx="252.481" cy="214.927" rx="1.901" ry="1.902"/>
            <ellipse cx="232.717" cy="226.267" rx="1.901" ry="1.902"/>
            <ellipse cx="213.008" cy="193.171" rx="1.901" ry="1.902"/>
            <ellipse cx="180.006" cy="173.946" rx="1.901" ry="1.902"/>
            <ellipse cx="160.313" cy="185.192" rx="1.901" ry="1.902"/>
            <ellipse cx="199.778" cy="185.371" rx="1.901" ry="1.902"/>
            <ellipse cx="213.078" cy="215.517" rx="1.901" ry="1.902"/>
            <ellipse cx="180.053" cy="196.75" rx="1.901" ry="1.902"/>
            <ellipse cx="160.289" cy="207.911" rx="1.901" ry="1.902"/>
            <ellipse cx="180.053" cy="219.514" rx="1.901" ry="1.902"/>
            <ellipse cx="160.289" cy="230.854" rx="1.901" ry="1.902"/>
            <ellipse cx="160.289" cy="245.927" rx="1.901" ry="1.902"/>
            <ellipse cx="140.471" cy="265.013" rx="1.901" ry="1.902"/>
            <ellipse cx="140.471" cy="242.132" rx="1.901" ry="1.902"/>
            <ellipse cx="120.7" cy="253.883" rx="1.901" ry="1.902"/>
            <ellipse cx="120.7" cy="230.854" rx="1.901" ry="1.902"/>
            <ellipse cx="100.874" cy="219.514" rx="1.901" ry="1.902"/>
            <ellipse cx="81.165" cy="230.854" rx="1.901" ry="1.902"/>
            <ellipse cx="81.103" cy="245.927" rx="1.901" ry="1.902"/>
            <ellipse cx="67.935" cy="223.418" rx="1.901" ry="1.902"/>
            <ellipse cx="173.869" cy="253.883" rx="1.901" ry="1.902"/>
            <ellipse cx="140.58" cy="197.766" rx="1.901" ry="1.902"/>
            <ellipse cx="120.638" cy="208.206" rx="1.901" ry="1.902"/>
            <ellipse cx="100.929" cy="196.75" rx="1.901" ry="1.902"/>
            <ellipse cx="120.7" cy="185.371" rx="1.901" ry="1.902"/>
            <ellipse cx="140.409" cy="173.946" rx="1.901" ry="1.902"/>
            <ellipse cx="140.409" cy="151.119" rx="1.901" ry="1.902"/>
            <ellipse cx="120.638" cy="162.536" rx="1.901" ry="1.902"/>
            <ellipse cx="100.929" cy="173.946" rx="1.901" ry="1.902"/>
            <ellipse cx="81.165" cy="185.348" rx="1.901" ry="1.902"/>
            <ellipse cx="81.165" cy="162.435" rx="1.901" ry="1.902"/>
            <ellipse cx="100.874" cy="151.096" rx="1.901" ry="1.902"/>
            <ellipse cx="67.935" cy="192.597" rx="1.901" ry="1.902"/>
            <ellipse cx="67.935" cy="177.819" rx="1.901" ry="1.902"/>
            <ellipse cx="81.103" cy="200.134" rx="1.901" ry="1.902"/>
            <ellipse cx="140.65" cy="220.104" rx="1.901" ry="1.902"/>
            <ellipse cx="213.078" cy="237.684" rx="1.901" ry="1.902"/>
            <ellipse cx="252.55" cy="147.362" rx="1.901" ry="1.902"/>
            <ellipse cx="238.979" cy="47.579" rx="1.901" ry="1.902"/>
            <ellipse cx="259.162" cy="21.065" rx="1.901" ry="1.902"/>
            <ellipse cx="219.619" cy="35.96" rx="1.901" ry="1.902"/>
            <ellipse cx="259.162" cy="35.96" rx="1.901" ry="1.902"/>
            <ellipse cx="259.938" cy="67.301" rx="1.901" ry="1.902"/>
            <ellipse cx="272.384" cy="74.124" rx="1.901" ry="1.902"/>
            <ellipse cx="259.162" cy="81.582" rx="1.901" ry="1.902"/>
            <ellipse cx="219.619" cy="13.109" rx="1.901" ry="1.902"/>
            <ellipse cx="199.855" cy="2.36" rx="1.901" ry="1.902"/>
            <ellipse cx="199.855" cy="24.713" rx="1.901" ry="1.902"/>
            <ellipse cx="180.006" cy="21.065" rx="1.901" ry="1.902"/>
            <ellipse cx="166.885" cy="13.109" rx="1.901" ry="1.902"/>
            <ellipse cx="120.638" cy="93.318" rx="1.901" ry="1.902"/>
            <ellipse cx="100.882" cy="104.86" rx="1.901" ry="1.902"/>
            <ellipse cx="120.7" cy="115.866" rx="1.901" ry="1.902"/>
            <ellipse cx="120.754" cy="138.677" rx="1.901" ry="1.902"/>
            <ellipse cx="140.464" cy="127.407" rx="1.901" ry="1.902"/>
            <ellipse cx="160.313" cy="139.143" rx="1.901" ry="1.902"/>
            <ellipse cx="140.471" cy="104.72" rx="1.901" ry="1.902"/>
            <ellipse cx="160.313" cy="93.046" rx="1.901" ry="1.902"/>
            <ellipse cx="140.549" cy="81.582" rx="1.901" ry="1.902"/>
            <ellipse cx="160.243" cy="115.64" rx="1.901" ry="1.902"/>
            <ellipse cx="41.568" cy="93.171" rx="1.901" ry="1.902"/>
            <ellipse cx="22.262" cy="104.86" rx="1.901" ry="1.902"/>
            <ellipse cx="8.567" cy="97.176" rx="1.901" ry="1.902"/>
            <ellipse cx="8.567" cy="112.117" rx="1.901" ry="1.902"/>
            <ellipse cx="21.797" cy="89.802" rx="1.901" ry="1.902"/>
        </g>
        <g fill="#00152B" fill-rule="nonzero" opacity=".1" transform="translate(3.104 15.523)">
            <ellipse cx="18.576" cy="27.197" rx="4.943" ry="4.944"/>
            <ellipse cx="77.999" cy="31.861" rx="4.943" ry="4.944"/>
            <ellipse cx="124.378" cy="35.835" rx="4.943" ry="4.944"/>
            <ellipse cx="256.058" cy="5.363" rx="4.943" ry="4.944"/>
            <ellipse cx="216.453" cy="20.436" rx="4.943" ry="4.944"/>
            <ellipse cx="176.903" cy="5.72" rx="4.943" ry="4.944"/>
            <ellipse cx="256.058" cy="66.121" rx="4.943" ry="4.944"/>
            <ellipse cx="275.946" cy="123.154" rx="4.943" ry="4.944"/>
            <ellipse cx="269.28" cy="165.462" rx="4.943" ry="4.944"/>
            <ellipse cx="229.613" cy="210.744" rx="4.943" ry="4.944"/>
            <ellipse cx="249.439" cy="131.839" rx="4.943" ry="4.944"/>
            <ellipse cx="157.108" cy="230.404" rx="4.943" ry="4.944"/>
            <ellipse cx="117.596" cy="238.36" rx="4.943" ry="4.944"/>
            <ellipse cx="77.999" cy="215.331" rx="4.943" ry="4.944"/>
            <ellipse cx="197.225" cy="123.293" rx="4.943" ry="4.944"/>
            <ellipse cx="97.77" cy="135.596" rx="4.943" ry="4.944"/>
            <ellipse cx="117.534" cy="77.795" rx="4.943" ry="4.944"/>
            <ellipse cx="5.463" cy="81.652" rx="4.943" ry="4.944"/>
            <ellipse cx="64.831" cy="177.237" rx="4.943" ry="4.944"/>
            <ellipse cx="137.305" cy="158.43" rx="4.943" ry="4.944"/>
            <ellipse cx="18.693" cy="135.402" rx="4.943" ry="4.944"/>
            <ellipse cx="38.084" cy="54.688" rx="4.943" ry="4.944"/>
        </g>
        <g opacity=".7">
            <g transform="translate(79.706 93.096)">
                <mask id="c" fill="#fff">
                    <use xlink:href="#a"/>
                </mask>
                <path fill="url(#b)" d="M.451 22.653L40.58.128l40.575 22.525v46.463L40.579 93.52 27.24 84.67l-13.55 8.852 1.261-16.605-14.5-7.8z" mask="url(#c)"/>
            </g>
            <g transform="translate(139.292 81.487)">
                <mask id="f" fill="#fff">
                    <use xlink:href="#d"/>
                </mask>
                <path fill="url(#e)" d="M80.95 22.647L40.825.12.249 22.647v46.462l40.575 24.405 13.338-8.852 13.55 8.852-1.261-16.606 14.5-7.8z" mask="url(#f)"/>
            </g>
        </g>
        <path fill="#38D611" d="M106.763 174.43l13.373 8.875 38.985-23.45v-44.677L120.1 93.513l-38.584 21.661v44.632l14.572 7.837-1.1 14.48 11.776-7.693zm-15.336 13.718l1.421-18.732-14.429-7.76v-48.294l41.672-23.393.755.418 41.37 22.97v48.249l-42.162 25.36-13.305-8.83-15.322 10.012z"/>
        <path fill="#FA0171" d="M140.898 148.239l38.986 23.45 13.372-8.875 11.776 7.692-1.1-14.48 14.573-7.837v-44.631l-38.584-21.66-39.023 21.665v44.676zm67.696 28.293L193.27 166.52l-13.304 8.83-42.163-25.36v-48.25l42.126-23.387 41.672 23.392v48.294l-14.43 7.76 1.423 18.733z"/>
        <path fill="#38D611" d="M178.057 39.22c0-.255.054-.487.162-.703a1.548 1.548 0 1 1 1.362-.859h.016a1.547 1.547 0 0 1 .023 3.095h-.015c-.852 0-1.54-.68-1.548-1.532m-5.216.859a1.549 1.549 0 0 1 2.678-1.556 1.555 1.555 0 0 1-1.339 2.33 1.545 1.545 0 0 1-1.339-.774m-4.016 2.33a1.546 1.546 0 0 1 .565-2.113 1.545 1.545 0 0 1 2.112.557 1.548 1.548 0 1 1-2.677 1.555m9.27 1.455a1.547 1.547 0 1 1 1.556 1.533h-.008c-.85 0-1.54-.681-1.547-1.533m-13.287.875a1.545 1.545 0 1 1 2.677-1.548 1.545 1.545 0 0 1-1.338 2.322 1.545 1.545 0 0 1-1.34-.774m-4.016 2.337a1.556 1.556 0 0 1 .565-2.12 1.545 1.545 0 0 1 2.113.564 1.543 1.543 0 0 1-1.339 2.322 1.54 1.54 0 0 1-1.34-.766m17.343 1.432a1.542 1.542 0 0 1 1.533-1.564 1.542 1.542 0 0 1 1.555 1.54 1.54 1.54 0 0 1-1.532 1.556h-.016c-.843 0-1.54-.689-1.54-1.532m-21.358.898a1.555 1.555 0 0 1 .564-2.121 1.553 1.553 0 0 1 2.114.565 1.555 1.555 0 0 1-.557 2.12c-.248.14-.511.21-.774.21-.534 0-1.06-.28-1.347-.774m-4.016 2.329a1.544 1.544 0 0 1 .565-2.113 1.541 1.541 0 0 1 2.113.557 1.552 1.552 0 0 1-.558 2.121c-.248.14-.51.209-.773.209a1.566 1.566 0 0 1-1.347-.774m25.405 1.416a1.548 1.548 0 1 1 1.563 1.532h-.015a1.55 1.55 0 0 1-1.548-1.532m-29.413.913a1.543 1.543 0 0 1 .557-2.112 1.552 1.552 0 0 1 2.12.557c.426.743.17 1.687-.565 2.12-.248.14-.51.21-.774.21a1.545 1.545 0 0 1-1.338-.775m-4.017 2.33a1.543 1.543 0 0 1 2.67-1.548 1.545 1.545 0 0 1-1.331 2.322 1.547 1.547 0 0 1-1.34-.774m33.47 1.393a1.547 1.547 0 1 1 3.095-.015 1.546 1.546 0 0 1-1.54 1.555h-.015a1.54 1.54 0 0 1-1.54-1.54m-37.485.944a1.552 1.552 0 0 1 .557-2.12 1.554 1.554 0 0 1 2.12.565 1.544 1.544 0 0 1-.565 2.112 1.47 1.47 0 0 1-.774.21c-.533 0-1.052-.272-1.338-.767m-4.016 2.33a1.541 1.541 0 0 1 .557-2.113 1.552 1.552 0 0 1 2.12.557 1.555 1.555 0 0 1-1.338 2.33 1.545 1.545 0 0 1-1.34-.774m41.532 1.377c0-.859.69-1.555 1.54-1.563a1.542 1.542 0 0 1 1.556 1.54 1.545 1.545 0 0 1-1.532 1.556h-.016a1.55 1.55 0 0 1-1.548-1.533m-45.547.952a1.541 1.541 0 0 1 .557-2.113 1.552 1.552 0 0 1 2.12.558 1.555 1.555 0 0 1-1.339 2.329 1.545 1.545 0 0 1-1.338-.774m-4.017 2.33a1.55 1.55 0 0 1 .558-2.113 1.55 1.55 0 0 1 2.12.557 1.555 1.555 0 0 1-1.339 2.33 1.545 1.545 0 0 1-1.339-.774m49.604 1.362a1.547 1.547 0 1 1 1.563 1.532h-.016c-.85 0-1.54-.681-1.547-1.532m-53.62.975a1.548 1.548 0 1 1 2.678-1.556 1.539 1.539 0 0 1-.565 2.113 1.55 1.55 0 0 1-2.113-.557m-4.016 2.33a1.555 1.555 0 0 1 .565-2.121 1.548 1.548 0 1 1 1.555 2.678 1.52 1.52 0 0 1-.781.208c-.534 0-1.053-.27-1.34-.766m57.675 1.34a1.547 1.547 0 1 1 1.556 1.532h-.008c-.852 0-1.54-.682-1.548-1.533m-59.764 1.44a1.547 1.547 0 1 1 1.548 1.547 1.542 1.542 0 0 1-1.548-1.547m59.803 3.196a1.546 1.546 0 0 1 1.532-1.556 1.552 1.552 0 0 1 1.563 1.533c0 .859-.688 1.555-1.54 1.563h-.015c-.844 0-1.54-.689-1.54-1.54m-59.803 1.447a1.547 1.547 0 1 1 1.548 1.548 1.542 1.542 0 0 1-1.548-1.548m0 4.644a1.547 1.547 0 1 1 1.548 1.547 1.542 1.542 0 0 1-1.548-1.547m0 4.643a1.547 1.547 0 1 1 1.548 1.548 1.542 1.542 0 0 1-1.548-1.548m0 4.644a1.547 1.547 0 1 1 1.548 1.547 1.542 1.542 0 0 1-1.548-1.547"/>
        <path fill="#38D611" d="M83.687 50.133a1.54 1.54 0 0 1-.511-2.129 1.546 1.546 0 0 1 2.128-.502c.727.44.96 1.4.51 2.128a1.564 1.564 0 0 1-1.322.736c-.279 0-.558-.079-.805-.233m3.954 2.438a1.554 1.554 0 0 1-.51-2.136 1.545 1.545 0 0 1 2.127-.504c.729.45.96 1.402.511 2.129a1.56 1.56 0 0 1-2.128.51M91.595 55a1.547 1.547 0 0 1-.51-2.128 1.548 1.548 0 0 1 2.638 1.618c-.294.48-.797.735-1.314.735-.28 0-.558-.07-.814-.224m3.955 2.43a1.548 1.548 0 1 1 1.625-2.639c.727.45.952 1.4.503 2.129a1.538 1.538 0 0 1-2.128.51m3.954 2.43a1.554 1.554 0 0 1-.51-2.128c.448-.727 1.4-.96 2.135-.511.728.449.953 1.401.503 2.128a1.53 1.53 0 0 1-1.315.743c-.279 0-.557-.077-.813-.232m3.954 2.43a1.545 1.545 0 0 1-.503-2.128 1.554 1.554 0 0 1 2.128-.51 1.553 1.553 0 0 1-.811 2.87c-.28 0-.558-.077-.814-.232m3.955 2.43a1.544 1.544 0 0 1-.503-2.128 1.545 1.545 0 0 1 2.128-.503c.727.449.96 1.401.51 2.128a1.56 1.56 0 0 1-1.323.735c-.278 0-.557-.069-.812-.231m3.962 2.437a1.555 1.555 0 0 1-.51-2.136 1.546 1.546 0 0 1 2.127-.502c.728.448.96 1.4.51 2.128a1.563 1.563 0 0 1-2.127.51m3.955 2.43a1.547 1.547 0 1 1 2.128-.51c-.295.48-.798.735-1.324.735-.27 0-.55-.07-.804-.224m3.953 2.429a1.548 1.548 0 0 1-.51-2.128 1.546 1.546 0 1 1 2.639 1.617 1.54 1.54 0 0 1-2.129.511"/>
        <path fill="#FA0171" d="M178.374 173.518a1.547 1.547 0 1 1 3.096-.001 1.547 1.547 0 0 1-3.096.001m0 4.644a1.547 1.547 0 1 1 3.096-.001 1.547 1.547 0 0 1-3.096 0m0 4.644a1.547 1.547 0 1 1 3.096-.001 1.547 1.547 0 0 1-3.096.001m0 4.644a1.547 1.547 0 1 1 3.096-.001 1.547 1.547 0 0 1-3.096 0m0 4.644c0-.859.696-1.548 1.548-1.548.858 0 1.548.689 1.548 1.548a1.547 1.547 0 1 1-3.095 0m0 4.644c0-.86.695-1.548 1.547-1.548.858 0 1.548.688 1.548 1.548a1.547 1.547 0 1 1-3.095 0m0 4.643c0-.86.695-1.548 1.547-1.548.858 0 1.548.689 1.548 1.548a1.547 1.547 0 1 1-3.095 0m-79.28 1.51a1.552 1.552 0 0 1 3.103 0c0 .858-.697 1.547-1.548 1.547a1.549 1.549 0 0 1-1.556-1.548m79.28 3.134c0-.859.696-1.547 1.548-1.547.858 0 1.548.688 1.548 1.547s-.69 1.548-1.548 1.548c-.852 0-1.548-.69-1.548-1.548m-79.28 1.51a1.552 1.552 0 0 1 3.103 0c0 .859-.696 1.547-1.547 1.547a1.549 1.549 0 0 1-1.556-1.547m79.28 3.134c0-.86.696-1.548 1.548-1.548.858 0 1.548.689 1.548 1.548a1.547 1.547 0 1 1-3.095 0m-79.28 1.51a1.552 1.552 0 0 1 3.103 0c0 .858-.697 1.547-1.548 1.547a1.549 1.549 0 0 1-1.556-1.548m79.28 3.134c0-.859.696-1.547 1.548-1.547a1.548 1.548 0 1 1-1.548 1.548m-79.28 1.509a1.552 1.552 0 0 1 3.103 0c0 .859-.696 1.547-1.547 1.547a1.549 1.549 0 0 1-1.556-1.547m78.815 3.505a1.547 1.547 0 0 1 .59-2.105 1.548 1.548 0 0 1 2.112.58 1.553 1.553 0 0 1-1.347 2.315 1.56 1.56 0 0 1-1.355-.79m-76.137 1.386a1.549 1.549 0 1 1 1.53-2.693 1.549 1.549 0 0 1-1.53 2.693m72.099.904a1.557 1.557 0 0 1 .587-2.112 1.548 1.548 0 0 1 2.106.589 1.549 1.549 0 0 1-1.34 2.314 1.558 1.558 0 0 1-1.353-.79m-68.06 1.392a1.542 1.542 0 0 1-.581-2.112 1.545 1.545 0 1 1 2.686 1.532 1.539 1.539 0 0 1-2.106.58m64.021.891a1.547 1.547 0 0 1 .588-2.105 1.54 1.54 0 0 1 2.104.588 1.538 1.538 0 0 1-.58 2.105c-.24.14-.502.202-.765.202-.534 0-1.06-.287-1.347-.79m-59.989 1.409a1.55 1.55 0 0 1 1.533-2.694c.743.425.998 1.37.58 2.113a1.55 1.55 0 0 1-2.113.58m55.95.883a1.547 1.547 0 0 1 .58-2.113 1.554 1.554 0 0 1 2.113.588 1.561 1.561 0 0 1-.58 2.112 1.614 1.614 0 0 1-.768.194c-.541 0-1.06-.278-1.345-.781m-51.918 1.416a1.555 1.555 0 0 1-.58-2.113 1.549 1.549 0 1 1 .58 2.113m47.878.867a1.538 1.538 0 0 1 .58-2.105 1.555 1.555 0 0 1 2.113.58 1.556 1.556 0 0 1-.588 2.113 1.537 1.537 0 0 1-2.105-.588m-43.838 1.424a1.537 1.537 0 0 1-.58-2.105 1.546 1.546 0 0 1 2.112-.58c.743.425.999 1.369.58 2.112a1.566 1.566 0 0 1-1.347.782 1.53 1.53 0 0 1-.765-.209m39.791.867a1.56 1.56 0 0 1 .588-2.114 1.557 1.557 0 0 1 2.112.59 1.547 1.547 0 0 1-1.346 2.305 1.552 1.552 0 0 1-1.354-.781m-35.76 1.43a1.544 1.544 0 0 1-.58-2.103 1.548 1.548 0 1 1 1.346 2.314c-.263 0-.525-.07-.765-.21m31.719.852a1.548 1.548 0 0 1 .589-2.106 1.548 1.548 0 0 1 2.112.58 1.559 1.559 0 0 1-.588 2.114c-.24.132-.504.2-.766.2-.534 0-1.06-.286-1.347-.788m-27.687 1.447a1.553 1.553 0 0 1-.573-2.113 1.542 1.542 0 0 1 2.105-.573 1.54 1.54 0 0 1 .58 2.106 1.552 1.552 0 0 1-2.113.58m23.65.844a1.547 1.547 0 1 1 2.693-1.525 1.533 1.533 0 0 1-.59 2.105c-.231.14-.494.201-.757.201a1.55 1.55 0 0 1-1.347-.781m-19.609 1.455a1.556 1.556 0 0 1-.58-2.114 1.555 1.555 0 0 1 2.112-.58c.743.426.998 1.37.58 2.113a1.55 1.55 0 0 1-2.112.58m15.57.829a1.545 1.545 0 0 1 .58-2.106 1.546 1.546 0 0 1 2.112.58 1.559 1.559 0 0 1-.587 2.114c-.24.131-.503.201-.759.201-.542 0-1.06-.286-1.346-.79m-11.538 1.471a1.547 1.547 0 0 1-.574-2.113 1.545 1.545 0 1 1 2.686 1.533 1.54 1.54 0 0 1-1.346.78c-.256 0-.519-.06-.766-.2m7.498.82a1.548 1.548 0 0 1 .58-2.112 1.557 1.557 0 0 1 2.113.587 1.548 1.548 0 0 1-1.347 2.307c-.541 0-1.067-.28-1.346-.782m-3.46 1.478a1.548 1.548 0 1 1 1.533-2.693c.743.426.999 1.37.573 2.112a1.527 1.527 0 0 1-1.339.783c-.263 0-.526-.062-.767-.202"/>
        <path fill="#FA0171" d="M179.17 220.54a1.548 1.548 0 1 1 2.106-.597 1.55 1.55 0 0 1-1.354.8c-.255 0-.51-.07-.751-.202m4.055 2.26a1.54 1.54 0 0 1-.595-2.105 1.545 1.545 0 0 1 2.104-.596 1.55 1.55 0 0 1-.758 2.902c-.255 0-.51-.062-.751-.201m4.055 2.267a1.55 1.55 0 0 1-.595-2.112 1.545 1.545 0 0 1 2.104-.596 1.55 1.55 0 0 1-1.51 2.708m4.056 2.26a1.543 1.543 0 0 1-.596-2.105 1.54 1.54 0 0 1 2.105-.596 1.545 1.545 0 0 1-.759 2.895c-.255 0-.51-.062-.75-.194m4.055 2.26a1.542 1.542 0 0 1-.596-2.105 1.548 1.548 0 0 1 2.701 1.51 1.56 1.56 0 0 1-2.105.595m4.054 2.26a1.547 1.547 0 1 1 2.106-.596c-.286.51-.813.797-1.354.797-.256 0-.51-.07-.752-.201m4.055 2.26a1.545 1.545 0 0 1-.595-2.105 1.545 1.545 0 0 1 2.105-.596 1.55 1.55 0 0 1-.759 2.902c-.255 0-.51-.062-.75-.201m4.055 2.267a1.543 1.543 0 0 1-.597-2.105 1.541 1.541 0 0 1 2.106-.596 1.545 1.545 0 0 1-.759 2.895c-.255 0-.51-.062-.75-.194m4.055 2.26a1.55 1.55 0 0 1-.597-2.105 1.548 1.548 0 0 1 2.701 1.51 1.56 1.56 0 0 1-2.104.595M219.24 150.432a1.546 1.546 0 0 1-.502-2.128c.45-.735 1.4-.96 2.128-.503a1.546 1.546 0 1 1-1.625 2.631m3.947 2.437a1.545 1.545 0 1 1 1.624-2.63c.728.449.953 1.4.504 2.128-.295.48-.798.735-1.316.735-.279 0-.557-.077-.812-.233m3.946 2.447a1.553 1.553 0 0 1-.503-2.136 1.545 1.545 0 0 1 2.136-.496 1.546 1.546 0 0 1-.82 2.863c-.272 0-.558-.077-.813-.231m3.955 2.437a1.545 1.545 0 1 1 1.624-2.63c.728.448.953 1.408.504 2.127-.294.48-.798.736-1.316.736-.279 0-.565-.07-.812-.233m3.946 2.446a1.556 1.556 0 0 1-.503-2.137 1.544 1.544 0 0 1 2.128-.494 1.549 1.549 0 1 1-.813 2.863c-.278 0-.557-.078-.812-.232m3.946 2.438a1.546 1.546 0 0 1-.503-2.128 1.556 1.556 0 0 1 2.136-.503c.728.448.944 1.407.504 2.136a1.554 1.554 0 0 1-1.323.726c-.272 0-.558-.07-.814-.231m3.955 2.445a1.547 1.547 0 1 1 1.626-2.631 1.547 1.547 0 0 1-1.626 2.631m3.946 2.446a1.555 1.555 0 0 1-.503-2.136 1.545 1.545 0 0 1 2.128-.503c.728.449.952 1.408.503 2.135a1.54 1.54 0 0 1-1.314.728c-.28 0-.558-.07-.814-.224m3.947 2.438a1.545 1.545 0 1 1 1.625-2.632c.727.45.96 1.4.51 2.129a1.562 1.562 0 0 1-1.323.735 1.57 1.57 0 0 1-.812-.232m3.955 2.445a1.553 1.553 0 0 1-.504-2.136 1.545 1.545 0 0 1 2.128-.503c.728.448.952 1.409.504 2.136a1.545 1.545 0 0 1-1.316.727c-.279 0-.565-.069-.812-.224m3.946 2.438a1.545 1.545 0 0 1-.503-2.128 1.546 1.546 0 1 1 2.631 1.624 1.548 1.548 0 0 1-1.316.736c-.278 0-.557-.077-.812-.232m3.946 2.446a1.555 1.555 0 0 1-.503-2.136 1.544 1.544 0 0 1 2.128-.496c.736.45.96 1.401.503 2.129a1.538 1.538 0 0 1-2.128.503m3.955 2.437a1.545 1.545 0 1 1 1.625-2.63c.727.448.952 1.4.503 2.128-.294.48-.797.735-1.316.735a1.48 1.48 0 0 1-.812-.233m3.946 2.446a1.555 1.555 0 0 1-.503-2.136c.45-.728 1.4-.944 2.128-.495a1.545 1.545 0 1 1-1.625 2.631"/>
        <path fill="#38D611" d="M42.565 95.57a1.537 1.537 0 0 1-.619-2.098 1.535 1.535 0 0 1 2.097-.612c.75.404 1.03 1.347.62 2.098-.28.51-.813.805-1.363.805-.247 0-.503-.062-.735-.194m-4.69-.41a1.545 1.545 0 0 1 .611-2.097 1.544 1.544 0 0 1 2.106.603 1.552 1.552 0 0 1-1.354 2.3c-.55 0-1.076-.295-1.363-.805m8.76 2.639a1.545 1.545 0 0 1-.619-2.098 1.56 1.56 0 0 1 2.105-.62 1.552 1.552 0 0 1-.743 2.911 1.5 1.5 0 0 1-.742-.193m-12.824-.396a1.545 1.545 0 0 1 .612-2.097 1.547 1.547 0 0 1 2.105.604 1.553 1.553 0 0 1-1.363 2.298c-.54 0-1.067-.286-1.354-.805m16.894 2.625a1.543 1.543 0 0 1-.612-2.098 1.545 1.545 0 0 1 2.097-.62c.751.41 1.03 1.355.62 2.106a1.542 1.542 0 0 1-2.105.611m-20.956-.379a1.55 1.55 0 0 1 .604-2.105 1.549 1.549 0 1 1 1.493 2.717c-.232.13-.487.193-.743.193-.541 0-1.075-.294-1.354-.805m25.034 2.608a1.544 1.544 0 0 1-.619-2.097 1.552 1.552 0 0 1 2.105-.619 1.557 1.557 0 0 1 .611 2.105 1.55 1.55 0 0 1-1.354.805 1.5 1.5 0 0 1-.743-.194m-29.104-.363a1.553 1.553 0 0 1 .611-2.106 1.553 1.553 0 0 1 2.104.611c.411.743.14 1.688-.611 2.105a1.573 1.573 0 0 1-.743.186c-.55 0-1.075-.286-1.361-.796m33.174 2.592a1.542 1.542 0 0 1-.61-2.097 1.544 1.544 0 0 1 2.096-.62 1.56 1.56 0 0 1 .62 2.105 1.562 1.562 0 0 1-1.363.806c-.248 0-.503-.063-.743-.194m-37.237-.349c-.41-.75-.14-1.686.612-2.104a1.543 1.543 0 0 1 2.097.611 1.534 1.534 0 0 1-.605 2.098 1.554 1.554 0 0 1-2.104-.604m41.308 2.576a1.55 1.55 0 0 1-.611-2.097 1.546 1.546 0 1 1 2.716 1.479 1.545 1.545 0 0 1-2.105.618m-42.5.729c0-.86.69-1.548 1.548-1.548.851 0 1.54.688 1.54 1.548 0 .85-.689 1.547-1.54 1.547a1.548 1.548 0 0 1-1.548-1.547m46.578 1.5a1.55 1.55 0 0 1-.611-2.104 1.539 1.539 0 0 1 2.097-.611c.75.41 1.02 1.346.611 2.096a1.526 1.526 0 0 1-1.354.806c-.255 0-.51-.055-.743-.187m4.07 2.23a1.55 1.55 0 0 1-.61-2.106 1.542 1.542 0 0 1 2.096-.611 1.546 1.546 0 0 1-.743 2.902 1.62 1.62 0 0 1-.743-.186m4.078 2.229a1.554 1.554 0 0 1-.618-2.105 1.551 1.551 0 0 1 2.104-.611 1.54 1.54 0 0 1 .61 2.097 1.532 1.532 0 0 1-1.353.805c-.255 0-.51-.062-.743-.186m-54.726-1.315c0-.86.69-1.548 1.548-1.548.851 0 1.54.688 1.54 1.548 0 .85-.689 1.548-1.54 1.548a1.548 1.548 0 0 1-1.548-1.548m58.797 3.536a1.54 1.54 0 0 1-.611-2.097 1.542 1.542 0 0 1 2.097-.612c.75.41 1.029 1.347.619 2.098a1.543 1.543 0 0 1-2.105.611m-58.797 1.108c0-.86.69-1.548 1.548-1.548.851 0 1.54.688 1.54 1.548 0 .85-.689 1.547-1.54 1.547a1.548 1.548 0 0 1-1.548-1.547m0 4.643c0-.86.69-1.548 1.548-1.548.851 0 1.54.688 1.54 1.548 0 .85-.689 1.548-1.54 1.548a1.548 1.548 0 0 1-1.548-1.548m0 4.644c0-.86.69-1.548 1.548-1.548.851 0 1.54.688 1.54 1.548 0 .85-.689 1.547-1.54 1.547a1.548 1.548 0 0 1-1.548-1.547m0 4.643c0-.86.69-1.548 1.548-1.548.851 0 1.54.688 1.54 1.548 0 .85-.689 1.548-1.54 1.548a1.548 1.548 0 0 1-1.548-1.548m0 4.644c0-.86.69-1.548 1.548-1.548.851 0 1.54.688 1.54 1.548 0 .85-.689 1.547-1.54 1.547a1.548 1.548 0 0 1-1.548-1.547m0 4.643c0-.86.69-1.548 1.548-1.548.851 0 1.54.688 1.54 1.548 0 .85-.689 1.548-1.54 1.548a1.548 1.548 0 0 1-1.548-1.548m0 4.643c0-.86.69-1.547 1.548-1.547.851 0 1.54.688 1.54 1.547 0 .851-.689 1.548-1.54 1.548a1.548 1.548 0 0 1-1.548-1.548m0 4.644c0-.86.69-1.548 1.548-1.548.851 0 1.54.688 1.54 1.548 0 .85-.689 1.548-1.54 1.548a1.548 1.548 0 0 1-1.548-1.548"/>
        <path fill="#FA0171" d="M178.807 37.503a1.545 1.545 0 0 1-.564-2.113 1.553 1.553 0 0 1 2.12-.565c.735.434.983 1.377.557 2.12a1.537 1.537 0 0 1-1.339.767c-.263 0-.533-.063-.774-.21m4.01 2.338a1.543 1.543 0 0 1-.558-2.113 1.545 1.545 0 0 1 2.112-.565c.743.434.99 1.378.565 2.12a1.552 1.552 0 0 1-2.12.558m4.016 2.337a1.554 1.554 0 0 1-.564-2.12 1.55 1.55 0 0 1 2.677 1.562 1.555 1.555 0 0 1-1.34.767c-.262 0-.532-.07-.773-.209m4.009 2.338a1.562 1.562 0 0 1-.558-2.122 1.544 1.544 0 0 1 2.114-.556c.743.425.99 1.377.564 2.113a1.554 1.554 0 0 1-2.12.565m4.016 2.328a1.535 1.535 0 0 1-.557-2.112 1.545 1.545 0 1 1 2.67 1.556 1.545 1.545 0 0 1-1.34.774c-.262 0-.533-.07-.773-.218m4.008 2.338a1.55 1.55 0 0 1 1.563-2.677c.736.432.983 1.377.558 2.12a1.537 1.537 0 0 1-1.338.765 1.6 1.6 0 0 1-.783-.208m4.017 2.337a1.55 1.55 0 0 1 1.555-2.678c.735.434.99 1.378.557 2.121a1.545 1.545 0 0 1-2.113.556m4.017 2.339a1.555 1.555 0 0 1-.565-2.12 1.551 1.551 0 0 1 2.121-.558c.734.433.99 1.378.556 2.112a1.544 1.544 0 0 1-2.112.566m4.008 2.336a1.553 1.553 0 0 1-.557-2.12 1.537 1.537 0 0 1 2.113-.558c.743.426.991 1.379.565 2.114a1.567 1.567 0 0 1-1.347.774c-.262 0-.526-.07-.774-.21m4.017 2.33a1.546 1.546 0 0 1-.565-2.112 1.554 1.554 0 0 1 2.12-.565c.735.433.99 1.376.557 2.12a1.537 1.537 0 0 1-1.339.766c-.263 0-.534-.062-.773-.209m4.009 2.338a1.55 1.55 0 0 1-.558-2.113 1.545 1.545 0 0 1 2.112-.565c.743.432.992 1.377.565 2.12a1.538 1.538 0 0 1-1.338.767c-.271 0-.534-.07-.781-.21m4.015 2.338a1.552 1.552 0 0 1-.557-2.12 1.547 1.547 0 1 1 2.67 1.563 1.557 1.557 0 0 1-1.339.766c-.263 0-.533-.07-.774-.21m4.009 2.338a1.562 1.562 0 0 1-.557-2.121 1.552 1.552 0 0 1 2.12-.557 1.55 1.55 0 0 1-1.563 2.678m4.016 2.329a1.542 1.542 0 0 1-.557-2.112 1.545 1.545 0 1 1 2.67 1.555 1.54 1.54 0 0 1-1.34.766c-.262 0-.525-.061-.773-.21m4.017 2.339a1.546 1.546 0 0 1-.566-2.113 1.554 1.554 0 0 1 2.12-.565c.737.433.983 1.377.558 2.12a1.537 1.537 0 0 1-1.338.767c-.264 0-.535-.063-.774-.21m1.648 1.912a1.547 1.547 0 1 1 3.095 0c0 .86-.689 1.548-1.548 1.548a1.547 1.547 0 0 1-1.547-1.548m0 4.65c0-.858.696-1.554 1.547-1.554a1.549 1.549 0 1 1-1.547 1.555m0 4.636a1.547 1.547 0 1 1 3.095 0c0 .86-.689 1.548-1.548 1.548a1.547 1.547 0 0 1-1.547-1.548m0 4.644c0-.852.696-1.541 1.547-1.541.86 0 1.548.69 1.548 1.54 0 .86-.689 1.549-1.548 1.549a1.547 1.547 0 0 1-1.547-1.548m0 4.643a1.547 1.547 0 1 1 3.095 0c0 .86-.689 1.555-1.548 1.555a1.553 1.553 0 0 1-1.547-1.555m0 4.644a1.547 1.547 0 1 1 3.095 0c0 .859-.689 1.548-1.548 1.548a1.547 1.547 0 0 1-1.547-1.548m0 4.65c0-.858.696-1.555 1.547-1.555a1.549 1.549 0 1 1-1.547 1.555m0 4.637a1.547 1.547 0 1 1 3.095 0c0 .859-.689 1.547-1.548 1.547a1.547 1.547 0 0 1-1.547-1.547m0 4.643c0-.851.696-1.54 1.547-1.54.86 0 1.548.689 1.548 1.54 0 .86-.689 1.548-1.548 1.548a1.547 1.547 0 0 1-1.547-1.548m0 4.644a1.547 1.547 0 1 1 3.095 0c0 .859-.689 1.547-1.548 1.547a1.547 1.547 0 0 1-1.547-1.547"/>
        <g>
            <path fill="#FA0171" d="M238.187 110.149a6.383 6.383 0 0 0-6.376 6.376 6.383 6.383 0 0 0 6.376 6.377 6.384 6.384 0 0 0 6.376-6.377 6.383 6.383 0 0 0-6.376-6.376m0 13.527c-3.943 0-7.15-3.208-7.15-7.151 0-3.942 3.207-7.15 7.15-7.15 3.943 0 7.15 3.208 7.15 7.15 0 3.943-3.207 7.15-7.15 7.15M271.654 174.393a6.384 6.384 0 0 0-6.376 6.377 6.384 6.384 0 0 0 6.376 6.377 6.383 6.383 0 0 0 6.376-6.377 6.383 6.383 0 0 0-6.376-6.377m0 13.528c-3.943 0-7.15-3.208-7.15-7.151 0-3.943 3.207-7.151 7.15-7.151 3.943 0 7.15 3.208 7.15 7.15 0 3.944-3.207 7.152-7.15 7.152M212.772 230.906a6.384 6.384 0 0 0-6.377 6.377 6.384 6.384 0 0 0 6.377 6.377 6.384 6.384 0 0 0 6.376-6.377 6.384 6.384 0 0 0-6.376-6.377m0 13.528c-3.943 0-7.15-3.208-7.15-7.151 0-3.943 3.207-7.151 7.15-7.151 3.942 0 7.15 3.208 7.15 7.15 0 3.944-3.208 7.152-7.15 7.152M100.484 196.891a6.384 6.384 0 0 0-6.377 6.377 6.384 6.384 0 0 0 6.377 6.377 6.384 6.384 0 0 0 6.376-6.377 6.384 6.384 0 0 0-6.376-6.377m0 13.528c-3.943 0-7.15-3.208-7.15-7.15 0-3.943 3.207-7.152 7.15-7.152 3.943 0 7.15 3.209 7.15 7.151 0 3.943-3.207 7.151-7.15 7.151"/>
            <path fill="#38D611" d="M81.096 41.101a6.384 6.384 0 0 0-6.376 6.377 6.384 6.384 0 0 0 6.376 6.377 6.384 6.384 0 0 0 6.377-6.377 6.384 6.384 0 0 0-6.377-6.377m0 13.528c-3.943 0-7.15-3.208-7.15-7.15 0-3.943 3.207-7.152 7.15-7.152 3.943 0 7.15 3.209 7.15 7.151 0 3.943-3.207 7.151-7.15 7.151M21.609 144.42a6.384 6.384 0 0 0-6.377 6.376 6.384 6.384 0 0 0 6.377 6.377 6.384 6.384 0 0 0 6.376-6.377 6.384 6.384 0 0 0-6.376-6.377m0 13.528c-3.943 0-7.15-3.208-7.15-7.15 0-3.943 3.207-7.152 7.15-7.152 3.942 0 7.15 3.209 7.15 7.151 0 3.943-3.208 7.151-7.15 7.151"/>
        </g>
    </g>
</svg>
