<?xml version="1.0" encoding="UTF-8"?>
<svg width="621px" height="218px" viewBox="0 0 621 218" version="1.1" xmlns="http://www.w3.org/2000/svg" xmlns:xlink="http://www.w3.org/1999/xlink">
    <!-- Generator: Sketch 49.3 (51167) - http://www.bohemiancoding.com/sketch -->
    <title>logo</title>
    <desc>Created with Sketch.</desc>
    <defs></defs>
    <g id="Page-1" stroke="none" stroke-width="1" fill="none" fill-rule="evenodd">
        <g id="logo" fill-rule="nonzero">
            <path d="M0.156,173.426 L17.743,162.886 C30.124,185.653 44.428,197.036 60.655,197.036 C67.597,197.036 74.115,195.42 80.212,192.188 C86.309,188.956 90.952,184.622 94.142,179.188 C97.33,173.754 98.925,167.992 98.925,161.902 C98.925,154.968 96.58,148.176 91.89,141.523 C85.418,132.341 73.6,121.286 56.435,108.356 C39.175,95.333 28.435,85.916 24.215,80.108 C16.899,70.363 13.241,59.823 13.241,48.486 C13.241,39.492 15.398,31.294 19.713,23.892 C24.027,16.49 30.101,10.658 37.933,6.395 C45.765,2.131 54.277,-5.68434189e-14 63.469,-5.68434189e-14 C73.224,-5.68434189e-14 82.346,2.413 90.835,7.238 C99.324,12.063 108.305,20.94 117.778,33.87 L100.895,46.66 C93.109,36.353 86.473,29.56 80.986,26.28 C75.499,23.002 69.519,21.362 63.047,21.362 C54.699,21.362 47.875,23.892 42.576,28.952 C37.276,34.011 34.626,40.242 34.626,47.642 C34.626,52.14 35.564,56.497 37.44,60.713 C39.316,64.929 42.74,69.52 47.711,74.486 C50.431,77.109 59.342,83.996 74.444,95.146 C92.359,108.356 104.647,120.114 111.306,130.421 C117.966,140.727 121.296,151.081 121.296,161.48 C121.296,176.471 115.598,189.494 104.201,200.55 C92.805,211.606 78.946,217.134 62.625,217.134 C50.056,217.134 38.66,213.784 28.435,207.085 C18.212,200.386 8.785,189.166 0.155,173.425 L0.156,173.426 Z M284.692,161.199 L301.294,169.912 C295.854,180.593 289.569,189.213 282.441,195.772 C275.311,202.33 267.292,207.319 258.381,210.739 C249.471,214.159 239.387,215.869 228.131,215.869 C203.181,215.869 183.671,207.694 169.601,191.345 C155.531,174.995 148.497,156.515 148.497,135.902 C148.497,116.507 154.453,99.222 166.366,84.042 C181.467,64.742 201.68,55.092 227.006,55.092 C253.082,55.092 273.905,64.976 289.476,84.745 C300.544,98.705 306.171,116.132 306.359,137.026 L168.758,137.026 C169.133,154.828 174.808,169.42 185.782,180.804 C196.756,192.188 210.31,197.88 226.443,197.88 C234.229,197.88 241.803,196.521 249.166,193.804 C256.529,191.087 262.79,187.48 267.949,182.983 C273.108,178.485 278.689,171.224 284.692,161.199 Z M284.692,120.021 C282.065,109.527 278.243,101.141 273.225,94.864 C268.207,88.587 261.571,83.527 253.316,79.686 C245.062,75.845 236.386,73.924 227.287,73.924 C212.28,73.924 199.383,78.749 188.596,88.399 C180.716,95.426 174.761,105.967 170.727,120.021 L284.692,120.021 Z M330.887,211.934 L360.293,5.2 L363.67,5.2 L447.806,174.831 L466.189,137.394 L487.183,137.479 L450.339,211.934 L445.133,211.934 L370.986,62.962 L350.866,211.934 L330.887,211.934 Z M600.15,5.2 L620.832,5.2 L620.832,211.934 L600.15,211.934 L600.15,5.2 Z" id="Shape" fill="#2E3536"></path>
            <path d="M559.837,181.808 C561.399,182.616 562.85,183.695 564.188,185.044 C567.524,188.407 569.192,192.518 569.192,197.375 C569.192,202.139 567.524,206.226 564.188,209.636 C560.853,213.046 556.822,214.75 552.096,214.75 C547.37,214.75 543.34,213.046 540.004,209.636 C536.668,206.226 535,202.139 535,197.376 C535,192.518 536.668,188.407 540.004,185.044 L540.068,184.98 L523.5,64.086 L505.35,100.77 C505.912,102.513 506.193,104.382 506.193,106.376 C506.193,111.14 504.525,115.227 501.189,118.637 C497.854,122.047 493.823,123.751 489.097,123.751 C484.371,123.751 480.341,122.047 477.005,118.637 C473.669,115.227 472.001,111.14 472.001,106.377 C472.001,101.519 473.669,97.408 477.005,94.045 C480.341,90.682 484.371,89.001 489.097,89.001 C489.382,89.001 489.664,89.007 489.943,89.019 L518.43,31.003 C517.963,30.613 517.507,30.193 517.064,29.743 C513.688,26.321 512.001,22.22 512.001,17.439 C512.001,12.563 513.688,8.439 517.064,5.064 C520.439,1.688 524.517,0.001 529.298,0.001 C534.079,0.001 538.158,1.688 541.532,5.064 C544.907,8.439 546.595,12.564 546.595,17.438 C546.595,22.22 544.907,26.321 541.532,29.743 C540.578511,30.7177539 539.518145,31.58188 538.371,32.319 L559.838,181.809 L559.837,181.808 Z" id="Shape" fill="#FA0171"></path>
        </g>
    </g>
</svg>