<svg id="Layer_1" xmlns="http://www.w3.org/2000/svg" xmlns:xlink="http://www.w3.org/1999/xlink" viewBox="0 0 203.3 83.9"><style>.st0{fill:#00152b}</style><image width="74" height="74" xlink:href="26428541D297B2BB.png" transform="translate(113 8.94)" overflow="visible" opacity=".75"/><circle class="st0" cx="143.3" cy="38.9" r="20.9"/><circle cx="143.3" cy="38.9" r="20.9" fill="none" stroke="#fff" stroke-miterlimit="10"/><title>style-sm-flat-icon-gradient-multiple-color</title><path class="st0" d="M42.3 28.2v-3.1c0-2.8 2.3-5.1 5.1-5.1s5.1 2.3 5.1 5.1v3.1H42.3zm20.5 0h-6.7V25c0-4.8-3.9-8.7-8.7-8.7-4.8 0-8.7 3.9-8.7 8.7v3.1H32l-4.6 33.2h40c0 .1-4.6-33.1-4.6-33.1z"/><path d="M140.4 31.9V30c0-1.6 1.3-2.9 2.9-2.9 1.6 0 2.9 1.3 2.9 2.9v1.8h-5.8zm11.8 0h-3.9V30c0-2.8-2.3-5-5-5-2.8 0-5 2.3-5.1 5.1v1.8h-3.9L131.8 51h23.1l-2.7-19.1z" fill="#fff"/></svg>