<svg xmlns="http://www.w3.org/2000/svg" width="150" height="150"><g fill="none" fill-rule="evenodd"><path stroke="#FFF" stroke-width="2" d="M133.9 64.896c4.979-5.886 7.416-13.112 7.416-21.427 0-18.661-15.127-33.789-33.788-33.789-18.661 0-33.789 15.128-33.789 33.789s15.128 33.789 33.789 33.789c4.214 0 8.245-.778 11.966-2.188l14.091 9.395s.231.254.315.21c.091-.05 0-.412 0-.412V64.896zm-90.938 9.159a33.814 33.814 0 0 0-12.065 1.854l-13.869-9.826s-.224-.262-.309-.219c-.093.045-.012.413-.012.413l-.552 19.426c-5.164 5.764-7.814 12.943-8.05 21.283-.533 18.719 14.211 34.326 32.931 34.858 18.72.531 34.325-14.213 34.858-32.933.533-18.718-14.211-34.324-32.932-34.856z"/><path stroke="#FFF" stroke-dasharray="6.57 10" stroke-width="3" d="M22.229 52.116c1.963-4.854 7.172-15.862 19.037-24.747 12.501-9.362 25.263-11.028 30.458-11.422m57.186 83.226c-2.119 4.788-7.684 15.621-19.83 24.115-12.801 8.95-25.608 10.202-30.814 10.427"/><path fill="#FFF" fill-rule="nonzero" d="M107.275 13.838c-16.103 0-29.157 13.054-29.157 29.158 0 16.103 13.055 29.158 29.157 29.158 16.104 0 29.158-13.055 29.158-29.158.001-16.103-13.053-29.158-29.158-29.158zm-12.25 35.855h-2.246v-.988h-.043c-.207.381-.529.66-.967.838-.429.187-1.023.279-1.783.279-1.245-.014-2.205-.344-2.879-.988-.709-.629-1.062-1.436-1.062-2.416 0-.94.307-1.715.923-2.332.617-.629 1.519-.952 2.708-.967h3.104v-1.17c.016-.983-.747-1.457-2.287-1.43-.559 0-.999.059-1.321.172a1.608 1.608 0 0 0-.795.688l-1.763-1.342c.854-1.117 2.109-1.662 3.771-1.633 1.404-.016 2.525.25 3.363.795.838.558 1.263 1.517 1.278 2.879v7.615h-.001zm11.655-2.75c-.113.602-.326 1.078-.633 1.43a3.368 3.368 0 0 1-1.214 1.031c-.494.264-1.089.404-1.783.418-1.175-.027-2.134-.461-2.879-1.299v1.17h-2.245V34.031h2.245v5.693a5.702 5.702 0 0 1 1.343-.967c.451-.236.963-.353 1.536-.353 1.368.035 2.367.521 2.997 1.461.307.349.52.812.633 1.385.108.566.162 1.519.162 2.857 0 1.318-.054 2.265-.162 2.836zm6.951.635c.945-.016 1.701-.403 2.266-1.16l1.654 1.47a6.005 6.005 0 0 1-1.718 1.366c-.659.365-1.422.554-2.288.568-1.318 0-2.475-.447-3.47-1.342-1.031-.896-1.562-2.346-1.591-4.351.029-2.026.56-3.495 1.591-4.405.995-.894 2.151-1.336 3.47-1.32.866.014 1.629.193 2.288.537.659.35 1.231.82 1.718 1.406l-1.654 1.473c-.564-.752-1.32-1.143-2.266-1.172-1.906-.027-2.872 1.133-2.9 3.481.028 2.335.994 3.484 2.9 3.449zm12.148 2.115v-1.17c-.736.838-1.7 1.272-2.889 1.299-.674-.014-1.25-.154-1.729-.418a3.774 3.774 0 0 1-1.257-1.031c-.309-.352-.512-.828-.612-1.43-.122-.572-.183-1.518-.183-2.836 0-1.338.061-2.291.183-2.857.101-.573.304-1.036.612-1.385.63-.94 1.625-1.426 2.986-1.461.573 0 1.103.117 1.59.353.451.252.885.575 1.299.967v-5.693h2.246v15.662h-2.246z"/><path fill="#FFF" fill-rule="nonzero" d="M104.285 41.713a1.584 1.584 0 0 0-.655-.795c-.308-.18-.728-.269-1.257-.269-.501 0-.898.103-1.192.312a1.824 1.824 0 0 0-.677.816 4.057 4.057 0 0 0-.27 1.096 11.76 11.76 0 0 0 0 2.438c.043.416.133.791.27 1.129.143.335.369.607.677.816.294.215.691.322 1.192.322.529 0 .949-.101 1.257-.301a1.72 1.72 0 0 0 .655-.794c.144-.338.24-.717.289-1.139a36.602 36.602 0 0 0 0-2.535 4.024 4.024 0 0 0-.289-1.096m21.184.064a1.564 1.564 0 0 0-.635-.816c-.307-.209-.726-.313-1.256-.313-.531 0-.935.09-1.214.27a1.696 1.696 0 0 0-.677.795 4.04 4.04 0 0 0-.27 1.095 12.83 12.83 0 0 0 0 2.535c.043.422.133.801.27 1.139.143.322.369.586.677.795.279.199.683.301 1.214.301.53 0 .949-.107 1.256-.322.309-.209.521-.481.635-.817.144-.338.24-.713.289-1.129a32.378 32.378 0 0 0 0-2.437 4.07 4.07 0 0 0-.289-1.096m-37.308 4.534c0 .379.168.701.505.967.322.293.855.439 1.6.439.939.016 1.602-.095 1.988-.332.35-.236.525-.773.525-1.611v-.807h-2.685c-1.303.03-1.948.476-1.933 1.344M42.176 78.906c-16.103 0-29.158 13.055-29.158 29.158s13.055 29.158 29.158 29.158c16.104 0 29.157-13.055 29.157-29.158S58.28 78.906 42.176 78.906zM27.087 115.37h-2.245v-13.288l-2.223 1.633v-2.385l2.223-1.622h2.245v15.662zm10.56 0h-2.245v-13.288l-2.224 1.633v-2.385l2.224-1.622h2.245v15.662zm13.771-4.383c-.028 1.44-.476 2.55-1.342 3.33-.853.774-1.887 1.167-3.105 1.182-1.182-.015-2.198-.407-3.051-1.182-.909-.78-1.371-1.89-1.385-3.33v-6.907c.014-1.445.476-2.561 1.385-3.341.853-.772 1.869-1.16 3.051-1.16 1.218 0 2.252.388 3.105 1.16.866.78 1.314 1.896 1.342 3.341v6.907zm7.348 4.383h-2.245v-13.288l-2.224 1.633v-2.385l2.224-1.622h2.245v15.662z"/><path fill="#FFF" fill-rule="nonzero" d="M46.971 101.824c-1.433.028-2.163.827-2.191 2.396v6.638c.028 1.583.758 2.381 2.191 2.396 1.425-.015 2.159-.812 2.202-2.396v-6.638c-.043-1.569-.777-2.367-2.202-2.396"/></g></svg>