<svg xmlns="http://www.w3.org/2000/svg" width="160" height="150" viewBox="0 0 160 150">
    <defs>
        <linearGradient id="a" x1="0%" y1="50%" y2="50%">
            <stop offset="0%" stop-color="#364A68"/>
            <stop offset="100%" stop-color="#38D611"/>
        </linearGradient>
        <linearGradient id="b" x1="100%" x2="0%" y1="49.994%" y2="49.994%">
            <stop offset="0%" stop-color="#364A68"/>
            <stop offset="100%" stop-color="#38D611"/>
        </linearGradient>
        <linearGradient id="c" x1="100%" x2="0%" y1="50.006%" y2="50.006%">
            <stop offset="0%" stop-color="#364A68"/>
            <stop offset="100%" stop-color="#FA0171"/>
        </linearGradient>
        <linearGradient id="d" x1="0%" y1="50.008%" y2="50.008%">
            <stop offset="0%" stop-color="#364A68"/>
            <stop offset="100%" stop-color="#FA0171"/>
        </linearGradient>
        <linearGradient id="e" x1="0%" y1="49.992%" y2="49.992%">
            <stop offset="0%" stop-color="#364A68"/>
            <stop offset="100%" stop-color="#38D611"/>
        </linearGradient>
    </defs>
    <g fill="none" fill-rule="evenodd">
        <path d="M-12-15h184v180H-12z"/>
        <g stroke="#00152B" stroke-width=".5" opacity=".2">
            <path d="M45.76 52.116V39.288l-11.105-6.414-11.108 6.414v12.828l11.108 6.415z"/>
            <path d="M34.655 58.54V45.701l-11.108-6.414-11.109-6.414v-8.368"/>
            <path d="M45.76 39.288l-11.105 6.414-11.108 6.414M45.76 52.116l-11.105-6.414M67.976 52.112l-11.108 6.414v12.829l11.108 6.414 11.104-6.414V58.526"/>
            <path d="M56.868 58.526l11.108 6.414V90.746"/>
            <path d="M79.08 58.526L67.976 64.94l-11.108 6.415"/>
            <path d="M67.976 64.94l11.104 6.415 7.634 4.64 3.553 2.158-.004-.293V64.888l.004-12.833 11.104-6.414M67.976 52.112V39.283L56.868 32.87l-11.109 6.414v12.829l11.109 6.414z"/>
            <path d="M45.76 52.112l11.108-6.414 11.108-6.415 11.104-6.021v12.436M34.655 71.359V58.531l-11.108-6.415-11.109 6.415v12.828l11.109 6.414"/>
            <path d="M12.438 50.233L5.01 54.375l7.43 4.156 11.108 6.414v12.837"/>
            <path d="M34.655 58.53l-11.108 6.415-11.109 6.414v13.212L1.264 90.746V78.1M34.655 71.359l-11.108-6.414M56.868 71.355V58.526l-11.109-6.414-11.104 6.414v12.829l11.104 6.414z"/>
            <path d="M34.655 58.526l11.104 6.414v12.838l-11.104 6.72 11.104 6.54 11.109-6.467"/>
            <path d="M56.868 58.526L45.759 64.94l-11.104 6.415M5.01 37.151l7.428-4.277M5.01 62.769v-8.394M45.76 13.783v12.794l-11.105 6.297V19.962M67.976 52.112l-11.108-6.414V24.506l7.612-4.47M71.821 28.688l7.26 4.574M23.547 90.746L12.438 84.57M153.19 101.568V88.74l-11.108-6.414-11.109 6.414v12.828l11.109 6.415z"/>
            <path d="M153.19 88.74l-11.108 6.414-11.109 6.414M142.082 120.811v-12.828l-11.109-6.415-11.104 6.415v12.828l11.104 6.41"/>
            <path d="M112.436 103.823l7.433 4.16 11.104 6.414v12.833"/>
            <path d="M119.87 133.583V120.81l11.103-6.414 11.109-6.414V95.14M142.082 120.807l-11.109-6.41M112.48 39.231V26.403l11.108-6.415 11.104 6.415V39.23l-11.104 6.414z"/>
            <path d="M123.588 45.65V32.817l11.104-6.414 11.109-6.415v-8.372"/>
            <path d="M112.48 26.403l11.108 6.414 11.104 6.414M112.48 39.231l11.108-6.414M90.263 39.227l11.108 6.414v12.828l-11.108 6.415-11.104-6.415V45.641"/>
            <path d="M79.159 45.641l11.108 6.414 11.104 6.414M90.263 52.055L79.159 58.47M90.267 39.227V26.398l11.104-6.414 11.109 6.414v12.829L101.37 45.64z"/>
            <path d="M112.405 39.227l-11.108-6.414-11.108-6.415-11.109-6.022V33.25M123.588 58.474V45.645l11.104-6.414 11.109 6.414v12.829l-11.109 6.41"/>
            <path d="M145.8 37.343l7.434 4.142-7.433 4.16-11.109 6.415v12.832"/>
            <path d="M123.588 45.645l11.104 6.415 11.109 6.414v13.208l11.173 6.178V65.215M123.588 58.47l11.104-6.41M101.371 58.47V45.64l11.109-6.414 11.108 6.414v12.828l-11.108 6.415z"/>
            <path d="M123.588 45.641l-11.108 6.414v12.833l11.108 6.724-11.108 6.54-11.148-6.492"/>
            <path d="M101.371 45.641l11.109 6.414 11.108 6.414M112.48.894v12.794l11.108 6.3V7.077M90.267 39.227l11.104-6.414V11.615l-7.612-4.47M86.343 15.802l-7.263 4.574M79.115 110.333v12.828l-11.108 6.41-11.105-6.41v-12.828l11.105-6.414z"/>
            <path d="M68.007 103.91v12.837l-11.105 6.414-11.108 6.41v8.372"/>
            <path d="M79.115 123.161l-11.108-6.414-11.105-6.414M79.115 110.333l-11.108 6.414M101.332 110.337l-11.109-6.414V91.094l11.109-6.414 11.104 6.414v12.829"/>
            <path d="M90.223 103.923l11.109-6.414V71.66"/>
            <path d="M112.436 103.923l-11.104-6.414-11.109-6.415"/>
            <path d="M101.332 97.509l11.104-6.415 7.634-4.64M101.332 110.337v12.824l-11.109 6.415-11.108-6.415v-12.824l11.108-6.414z"/>
            <path d="M79.115 110.337l11.108 6.414 11.109 6.41 8.331 4.522 10.206 5.63M68.007 91.09v12.829l-11.105 6.414-11.108-6.414V91.09"/>
            <path d="M45.794 112.217l-7.433-4.143 7.433-4.155 11.108-6.415V84.667M68.007 91.09l-11.105 6.414M90.223 91.094v12.829l-11.108 6.414-11.108-6.414V91.094l11.108-6.414z"/>
            <path d="M68.007 103.923l11.108-6.414V84.672l-11.108-6.72"/>
            <path d="M90.223 103.923l-11.108-6.414-11.108-6.415M38.36 125.298l7.434 4.278M38.36 99.68v8.394M79.115 148.666v-12.794l-11.108-6.3v12.915M101.332 110.337l-11.109 6.414v21.192l7.612 4.47M130.973 88.74l22.217 12.828"/>
        </g>
        <g fill="#00152B" fill-rule="nonzero" opacity=".3">
            <ellipse cx="12.438" cy="23.917" rx="1.068" ry="1.068"/>
            <ellipse cx="4.665" cy="37.151" rx="1.068" ry="1.068"/>
            <ellipse cx="12.438" cy="32.874" rx="1.068" ry="1.068"/>
            <ellipse cx="23.42" cy="39.288" rx="1.068" ry="1.068"/>
            <ellipse cx="34.659" cy="45.641" rx="1.068" ry="1.068"/>
            <ellipse cx="56.872" cy="45.641" rx="1.068" ry="1.068"/>
            <ellipse cx="34.659" cy="32.874" rx="1.068" ry="1.068"/>
            <ellipse cx="34.659" cy="20.036" rx="1.068" ry="1.068"/>
            <ellipse cx="45.759" cy="13.783" rx="1.068" ry="1.068"/>
            <ellipse cx="45.759" cy="26.533" rx="1.068" ry="1.068"/>
            <ellipse cx="45.759" cy="39.288" rx="1.068" ry="1.068"/>
            <ellipse cx="45.759" cy="52.055" rx="1.068" ry="1.068"/>
            <ellipse cx="34.659" cy="58.539" rx="1.068" ry="1.068"/>
            <ellipse cx="34.655" cy="71.438" rx="1.068" ry="1.068"/>
            <ellipse cx="23.42" cy="64.953" rx="1.068" ry="1.068"/>
            <ellipse cx="23.333" cy="77.769" rx="1.068" ry="1.068"/>
            <ellipse cx="12.438" cy="71.355" rx="1.068" ry="1.068"/>
            <ellipse cx="12.438" cy="84.571" rx="1.068" ry="1.068"/>
            <ellipse cx="23.193" cy="90.584" rx="1.068" ry="1.068"/>
            <ellipse cx="1.264" cy="90.584" rx="1.068" ry="1.068"/>
            <ellipse cx="1.264" cy="78.375" rx="1.068" ry="1.068"/>
            <ellipse cx="45.759" cy="64.953" rx="1.068" ry="1.068"/>
            <ellipse cx="45.794" cy="77.769" rx="1.068" ry="1.068"/>
            <ellipse cx="56.868" cy="71.438" rx="1.068" ry="1.068"/>
            <ellipse cx="34.659" cy="84.571" rx="1.068" ry="1.068"/>
            <ellipse cx="56.872" cy="33.026" rx="1.068" ry="1.068"/>
            <ellipse cx="56.907" cy="24.506" rx="1.068" ry="1.068"/>
            <ellipse cx="64.436" cy="20.036" rx="1.068" ry="1.068"/>
            <ellipse cx="67.972" cy="39.44" rx="1.068" ry="1.068"/>
            <ellipse cx="71.821" cy="28.731" rx="1.068" ry="1.068"/>
            <ellipse cx="79.08" cy="33.262" rx="1.068" ry="1.068"/>
            <ellipse cx="79.08" cy="20.376" rx="1.068" ry="1.068"/>
            <ellipse cx="86.343" cy="15.802" rx="1.068" ry="1.068"/>
            <ellipse cx="90.263" cy="26.403" rx="1.068" ry="1.068"/>
            <ellipse cx="90.263" cy="39.288" rx="1.068" ry="1.068"/>
            <ellipse cx="112.405" cy="39.227" rx="1.068" ry="1.068"/>
            <ellipse cx="101.328" cy="33.087" rx="1.068" ry="1.068"/>
            <ellipse cx="101.371" cy="45.641" rx="1.068" ry="1.068"/>
            <ellipse cx="101.41" cy="58.395" rx="1.068" ry="1.068"/>
            <ellipse cx="123.549" cy="58.334" rx="1.068" ry="1.068"/>
            <ellipse cx="134.692" cy="52.06" rx="1.068" ry="1.068"/>
            <ellipse cx="134.692" cy="64.94" rx="1.068" ry="1.068"/>
            <ellipse cx="123.549" cy="71.66" rx="1.068" ry="1.068"/>
            <ellipse cx="112.746" cy="77.952" rx="1.068" ry="1.068"/>
            <ellipse cx="101.41" cy="71.952" rx="1.068" ry="1.068"/>
            <ellipse cx="101.328" cy="84.68" rx="1.068" ry="1.068"/>
            <ellipse cx="112.436" cy="91.094" rx="1.068" ry="1.068"/>
            <ellipse cx="90.263" cy="91.282" rx="1.068" ry="1.068"/>
            <ellipse cx="119.869" cy="86.455" rx="1.068" ry="1.068"/>
            <ellipse cx="145.801" cy="58.395" rx="1.068" ry="1.068"/>
            <ellipse cx="156.974" cy="65.455" rx="1.068" ry="1.068"/>
            <ellipse cx="156.974" cy="77.769" rx="1.068" ry="1.068"/>
            <ellipse cx="145.801" cy="71.66" rx="1.068" ry="1.068"/>
            <ellipse cx="112.475" cy="52.195" rx="1.068" ry="1.068"/>
            <ellipse cx="112.519" cy="64.749" rx="1.068" ry="1.068"/>
            <ellipse cx="112.48" cy="26.533" rx="1.068" ry="1.068"/>
            <ellipse cx="101.371" cy="20.036" rx="1.068" ry="1.068"/>
            <ellipse cx="134.387" cy="39.201" rx="1.068" ry="1.068"/>
            <ellipse cx="123.313" cy="33.061" rx="1.068" ry="1.068"/>
            <ellipse cx="123.588" cy="45.615" rx="1.068" ry="1.068"/>
            <ellipse cx="142.047" cy="95.289" rx="1.068" ry="1.068"/>
            <ellipse cx="153.19" cy="89.01" rx="1.068" ry="1.068"/>
            <ellipse cx="153.19" cy="101.459" rx="1.068" ry="1.068"/>
            <ellipse cx="142.047" cy="107.738" rx="1.068" ry="1.068"/>
            <ellipse cx="130.973" cy="89.15" rx="1.068" ry="1.068"/>
            <ellipse cx="131.017" cy="101.699" rx="1.068" ry="1.068"/>
            <ellipse cx="130.943" cy="114.445" rx="1.068" ry="1.068"/>
            <ellipse cx="142.047" cy="120.528" rx="1.068" ry="1.068"/>
            <ellipse cx="130.943" cy="126.898" rx="1.068" ry="1.068"/>
            <ellipse cx="119.869" cy="108.305" rx="1.068" ry="1.068"/>
            <ellipse cx="101.328" cy="97.504" rx="1.068" ry="1.068"/>
            <ellipse cx="90.263" cy="103.823" rx="1.068" ry="1.068"/>
            <ellipse cx="112.436" cy="103.923" rx="1.068" ry="1.068"/>
            <ellipse cx="119.908" cy="120.859" rx="1.068" ry="1.068"/>
            <ellipse cx="101.354" cy="110.315" rx="1.068" ry="1.068"/>
            <ellipse cx="90.25" cy="116.586" rx="1.068" ry="1.068"/>
            <ellipse cx="101.354" cy="123.105" rx="1.068" ry="1.068"/>
            <ellipse cx="90.25" cy="129.475" rx="1.068" ry="1.068"/>
            <ellipse cx="90.25" cy="137.943" rx="1.068" ry="1.068"/>
            <ellipse cx="79.115" cy="148.666" rx="1.068" ry="1.068"/>
            <ellipse cx="79.115" cy="135.811" rx="1.068" ry="1.068"/>
            <ellipse cx="68.007" cy="142.413" rx="1.068" ry="1.068"/>
            <ellipse cx="68.007" cy="129.475" rx="1.068" ry="1.068"/>
            <ellipse cx="56.868" cy="123.105" rx="1.068" ry="1.068"/>
            <ellipse cx="45.794" cy="129.475" rx="1.068" ry="1.068"/>
            <ellipse cx="45.759" cy="137.943" rx="1.068" ry="1.068"/>
            <ellipse cx="38.361" cy="125.298" rx="1.068" ry="1.068"/>
            <ellipse cx="97.879" cy="142.413" rx="1.068" ry="1.068"/>
            <ellipse cx="79.176" cy="110.887" rx="1.068" ry="1.068"/>
            <ellipse cx="67.972" cy="116.751" rx="1.068" ry="1.068"/>
            <ellipse cx="56.902" cy="110.315" rx="1.068" ry="1.068"/>
            <ellipse cx="68.007" cy="103.923" rx="1.068" ry="1.068"/>
            <ellipse cx="79.08" cy="97.504" rx="1.068" ry="1.068"/>
            <ellipse cx="79.08" cy="84.68" rx="1.068" ry="1.068"/>
            <ellipse cx="67.972" cy="91.094" rx="1.068" ry="1.068"/>
            <ellipse cx="56.902" cy="97.504" rx="1.068" ry="1.068"/>
            <ellipse cx="45.794" cy="103.91" rx="1.068" ry="1.068"/>
            <ellipse cx="45.794" cy="91.038" rx="1.068" ry="1.068"/>
            <ellipse cx="56.868" cy="84.667" rx="1.068" ry="1.068"/>
            <ellipse cx="38.361" cy="107.983" rx="1.068" ry="1.068"/>
            <ellipse cx="38.361" cy="99.68" rx="1.068" ry="1.068"/>
            <ellipse cx="45.759" cy="112.217" rx="1.068" ry="1.068"/>
            <ellipse cx="79.215" cy="123.436" rx="1.068" ry="1.068"/>
            <ellipse cx="119.908" cy="133.313" rx="1.068" ry="1.068"/>
            <ellipse cx="142.086" cy="82.57" rx="1.068" ry="1.068"/>
            <ellipse cx="134.465" cy="26.512" rx="1.068" ry="1.068"/>
            <ellipse cx="145.801" cy="11.616" rx="1.068" ry="1.068"/>
            <ellipse cx="123.588" cy="19.984" rx="1.068" ry="1.068"/>
            <ellipse cx="145.801" cy="19.984" rx="1.068" ry="1.068"/>
            <ellipse cx="146.237" cy="37.592" rx="1.068" ry="1.068"/>
            <ellipse cx="153.234" cy="41.424" rx="1.068" ry="1.068"/>
            <ellipse cx="145.801" cy="45.615" rx="1.068" ry="1.068"/>
            <ellipse cx="123.588" cy="7.147" rx="1.068" ry="1.068"/>
            <ellipse cx="112.48" cy="1.108" rx="1.068" ry="1.068"/>
            <ellipse cx="112.48" cy="13.666" rx="1.068" ry="1.068"/>
            <ellipse cx="101.328" cy="11.616" rx="1.068" ry="1.068"/>
            <ellipse cx="93.955" cy="7.147" rx="1.068" ry="1.068"/>
            <ellipse cx="67.972" cy="52.208" rx="1.068" ry="1.068"/>
            <ellipse cx="56.872" cy="58.692" rx="1.068" ry="1.068"/>
            <ellipse cx="68.007" cy="64.875" rx="1.068" ry="1.068"/>
            <ellipse cx="68.041" cy="77.69" rx="1.068" ry="1.068"/>
            <ellipse cx="79.115" cy="71.359" rx="1.068" ry="1.068"/>
            <ellipse cx="90.263" cy="77.952" rx="1.068" ry="1.068"/>
            <ellipse cx="79.115" cy="58.613" rx="1.068" ry="1.068"/>
            <ellipse cx="90.263" cy="52.055" rx="1.068" ry="1.068"/>
            <ellipse cx="79.159" cy="45.615" rx="1.068" ry="1.068"/>
            <ellipse cx="90.223" cy="64.749" rx="1.068" ry="1.068"/>
            <ellipse cx="23.547" cy="52.125" rx="1.068" ry="1.068"/>
            <ellipse cx="12.7" cy="58.692" rx="1.068" ry="1.068"/>
            <ellipse cx="5.009" cy="54.375" rx="1.068" ry="1.068"/>
            <ellipse cx="5.009" cy="62.769" rx="1.068" ry="1.068"/>
            <ellipse cx="12.438" cy="50.233" rx="1.068" ry="1.068"/>
        </g>
        <g fill="#00152B" fill-rule="nonzero" opacity=".1" transform="translate(2.18 8.72)">
            <ellipse cx="10.193" cy="15.061" rx="2.777" ry="2.778"/>
            <ellipse cx="43.579" cy="17.682" rx="2.777" ry="2.778"/>
            <ellipse cx="69.641" cy="19.914" rx="2.777" ry="2.778"/>
            <ellipse cx="143.621" cy="2.795" rx="2.777" ry="2.778"/>
            <ellipse cx="121.369" cy="11.263" rx="2.777" ry="2.778"/>
            <ellipse cx="99.148" cy="2.996" rx="2.777" ry="2.778"/>
            <ellipse cx="143.621" cy="36.929" rx="2.777" ry="2.778"/>
            <ellipse cx="154.795" cy="68.969" rx="2.777" ry="2.778"/>
            <ellipse cx="151.054" cy="92.738" rx="2.777" ry="2.778"/>
            <ellipse cx="128.763" cy="118.177" rx="2.777" ry="2.778"/>
            <ellipse cx="139.902" cy="73.849" rx="2.777" ry="2.778"/>
            <ellipse cx="88.026" cy="129.222" rx="2.777" ry="2.778"/>
            <ellipse cx="65.827" cy="133.692" rx="2.777" ry="2.778"/>
            <ellipse cx="43.579" cy="120.754" rx="2.777" ry="2.778"/>
            <ellipse cx="110.566" cy="69.048" rx="2.777" ry="2.778"/>
            <ellipse cx="54.688" cy="75.959" rx="2.777" ry="2.778"/>
            <ellipse cx="65.792" cy="43.487" rx="2.777" ry="2.778"/>
            <ellipse cx="2.829" cy="45.654" rx="2.777" ry="2.778"/>
            <ellipse cx="36.181" cy="99.353" rx="2.777" ry="2.778"/>
            <ellipse cx="76.9" cy="88.788" rx="2.777" ry="2.778"/>
            <ellipse cx="10.258" cy="75.85" rx="2.777" ry="2.778"/>
            <ellipse cx="21.153" cy="30.506" rx="2.777" ry="2.778"/>
        </g>
        <g stroke-dasharray="0" stroke-linecap="round" stroke-width="1.742">
            <path stroke="#FA0171" d="M103.63 70.312l7.777-4.87M79.076 32.904l.039 25.618M45.76 104.176V78.375l11.064-6.968M79.04 84.235l22.331 13.527"/>
            <path stroke="#38D611" d="M45.794 51.597l32.222-18.335M123.58 32.843l11.112 6.388v11.76"/>
            <path stroke="#FA0171" d="M134.657 78.153l-11.069 6.784"/>
            <path stroke="#38D611" d="M101.371 123.414l-11.148 6.162-22.216-13.173"/>
        </g>
        <g stroke-width="1.306">
            <path stroke="#38D611" d="M123.58 32.843l-22.213-12.824-22.291 12.885 22.217 12.829z"/>
            <path stroke="#FA0171" d="M156.944 65.263L134.73 52.435l-22.29 12.89 22.216 12.828zM101.332 71.35L79.115 58.522 56.824 71.407l22.217 12.828z"/>
            <path stroke="#38D611" d="M45.76 52.116V77.77L23.546 64.945V39.288zM101.371 97.762v25.652l22.217-12.824V84.937z"/>
            <path stroke="#FA0171" d="M45.794 103.574v25.653l22.213-12.824V90.746z"/>
        </g>
        <path fill="url(#a)" fill-rule="nonzero" d="M45.755 52.12V77.77L23.538 64.945V39.292z" opacity=".3"/>
        <path fill="url(#b)" fill-rule="nonzero" d="M101.371 97.823v25.652l22.217-12.824V84.994z" opacity=".3"/>
        <path fill="url(#c)" fill-rule="nonzero" d="M45.794 103.574v25.653l22.213-12.824V90.746z" opacity=".3"/>
        <path fill="url(#d)" fill-rule="nonzero" d="M155.972 64.844l-22.217-12.828-22.287 12.89 22.213 12.824zM101.471 71.38L79.254 58.553l-22.29 12.886L79.18 84.266z" opacity=".3"/>
        <path fill="url(#e)" fill-rule="nonzero" d="M123.723 32.163l-22.217-12.824-22.29 12.885 22.216 12.828z" opacity=".3"/>
    </g>
</svg>
