<svg xmlns="http://www.w3.org/2000/svg" xmlns:xlink="http://www.w3.org/1999/xlink" width="284" height="262" viewBox="0 0 284 262">
    <defs>
        <path id="a" d="M.331.538H4.05v3.716H.33z"/>
        <path id="c" d="M.437.312h9.673v9.674H.437z"/>
        <path id="e" d="M.682 22.734L40.059.63l39.816 22.104v45.593L40.059 92.275l-13.088-8.686-13.296 8.686 1.237-16.295-14.23-7.653z"/>
        <linearGradient id="f" x1="0%" x2="100.016%" y1="50.002%" y2="50.002%">
            <stop offset="0%" stop-color="#304A6C"/>
            <stop offset="100%" stop-color="#38D611"/>
        </linearGradient>
        <path id="h" d="M79.676 22.726V68.32l-14.23 7.653 1.238 16.294-13.296-8.686L40.3 92.267.484 68.32V22.726L40.3.623z"/>
        <linearGradient id="i" x1="-.143%" y1="49.996%" y2="49.996%">
            <stop offset="0%" stop-color="#304A6C"/>
            <stop offset="100%" stop-color="#FA0171"/>
        </linearGradient>
    </defs>
    <g fill="none" fill-rule="evenodd">
        <g fill="#FFF" opacity=".5">
            <path d="M46.43 91.342l19.157 11.061 19.156-11.06V69.22l-19.156-11.06-19.157 11.06v22.121zm19.157 11.501L46.05 91.562v-22.56l19.537-11.28 19.535 11.28v22.56l-19.535 11.281z"/>
            <path d="M65.776 102.636h-.38V80.391l-38.692-22.34V43.362h.38v14.47l38.692 22.34z"/>
            <path d="M46.335 91.617l-.19-.33 38.692-22.34.19.33z"/>
            <path d="M84.838 91.617L65.49 80.447l.19-.33 19.346 11.17zM123.626 136.347l-19.537-11.28v-22.561L123.53 91.28l.19.33-19.253 11.115v22.12l19.158 11.062 19.156-11.061v-22.231h.38v22.45z"/>
            <path d="M123.815 158.731h-.38v-44.834l-19.251-11.117.19-.329 19.441 11.226z"/>
            <path d="M104.374 125.122l-.19-.33 38.692-22.341.19.33z"/>
            <path d="M162.64 137.131l-19.767-12.011-19.342-11.168.19-.33 19.346 11.17 19.192 11.664V91.234l19.442-11.226.19.33-19.252 11.115zM85.122 91.336l19.157 11.06 19.157-11.06V69.214l-19.157-11.06-19.157 11.06v22.122zm19.157 11.5l-19.536-11.28V68.994l19.536-11.28 19.536 11.28v22.56l-19.536 11.28z"/>
            <path d="M85.027 91.61l-.19-.33 38.694-22.34 19.63-10.645v21.98h-.38V58.933l-19.065 10.339zM46.145 136.3l-19.442-11.226v-22.56L46.24 91.232l19.537 11.282v22.45h-.38v-22.231L46.24 91.671l-19.157 11.062v22.121l19.252 11.116z"/>
            <path d="M46.43 136.148h-.38v-22.245l-19.252-11.115-13.237-7.406.296-.165L26.8 88.002l.187.332-12.648 7.048 12.648 7.076 19.443 11.226z"/>
            <path d="M7.243 159.053v-22.345h.38v21.701l19.08-10.548v-23.007l38.789-22.395.19.329-38.599 22.286v23.01z"/>
            <path d="M65.492 125.128l-19.347-11.17.19-.33 19.347 11.17z"/>
            <path d="M65.776 124.847l19.157 11.06 19.156-11.06v-22.122l-19.156-11.06-19.157 11.06v22.122zm19.157 11.5l-19.536-11.28v-22.561l19.536-11.28 19.536 11.28v22.56l-19.536 11.281z"/>
            <path d="M84.932 159.457l-19.716-11.609 19.527-11.814v-22.137L65.49 102.78l.19-.329 19.441 11.226v22.57l-.09.057-19.074 11.54 18.975 11.173 19.25-11.209.191.329z"/>
            <path d="M65.682 125.122l-.19-.33 38.692-22.341.19.33zM14.045 65.55l-.19-.33L26.8 57.778l.19.329zM13.76 110.001h.38V95.382h-.38zM65.397 58.267V35.45h.38v22.165l18.966-10.757V24.69h.38V47.08l-.097.055zM123.53 91.61L104.09 80.385V43.253l13.354-7.839.193.328-13.168 7.73v36.694L123.72 91.28zM142.843 58.84L124.53 48.474l.256-.454L143.1 58.387zM46.148 158.897L26.801 148.14l.185-.332 19.346 10.758zM233.548 177.466l19.157 11.06 19.156-11.06v-22.122l-19.156-11.06-19.157 11.06v22.122zm19.157 11.5l-19.537-11.28v-22.561l19.537-11.28 19.536 11.28v22.56l-19.536 11.28z"/>
            <path d="M233.453 177.74l-.19-.33 38.693-22.34.19.329z"/>
            <path d="M233.263 222.422l-19.44-11.225v-22.56l19.535-11.28 19.537 11.28v22.45h-.38v-22.231l-19.157-11.061-19.156 11.061v22.122l19.251 11.115z"/>
            <path d="M233.548 222.272h-.38v-22.246l-19.251-11.115-12.942-7.24.186-.33 12.944 7.24 19.443 11.226z"/>
            <path d="M214.202 233.336h-.38v-22.358l38.693-22.341v-22.252h.38v22.471l-38.693 22.341z"/>
            <path d="M252.61 211.252l-19.347-11.171.19-.33 19.347 11.172zM201.332 68.9l19.157 11.06 19.156-11.06V46.776l-19.156-11.06-19.157 11.06V68.9zm19.157 11.5l-19.537-11.281V46.558l19.537-11.28 19.536 11.28v22.56L220.489 80.4z"/>
            <path d="M220.678 80.193h-.38V57.728l38.694-22.34v-14.47h.38v14.69l-38.694 22.34z"/>
            <path d="M239.74 69.174l-38.693-22.342.19-.33 38.693 22.342z"/>
            <path d="M201.237 69.174l-.19-.33 19.347-11.17.19.329zM162.45 113.904l-19.537-11.28V80.173h.38v22.23l19.156 11.062 19.157-11.062v-22.12l-19.252-11.117.19-.33 19.442 11.227v22.56z"/>
            <path d="M181.7 102.678l-38.692-22.34.19-.33 38.693 22.34z"/>
            <path d="M143.198 102.678l-.19-.33 19.347-11.17.19.33zM162.64 68.892l19.156 11.06 19.156-11.06V46.771L181.796 35.71 162.64 46.77v22.122zm19.156 11.5l-19.537-11.28v-22.56l19.537-11.281 19.535 11.28v22.56l-19.535 11.282z"/>
            <path d="M200.915 69.166l-38.692-22.34-19.062-10.336v22.101h-.38V35.852l19.627 10.643 38.697 22.342zM239.93 113.856l-.19-.33 19.251-11.115V80.29l-19.156-11.06-19.157 11.06v22.232h-.38V80.07l19.537-11.28 19.536 11.28v22.56z"/>
            <path d="M240.025 113.704h-.38V91.24l19.441-11.225 12.65-7.076-12.648-7.048.186-.332 13.24 7.38-13.24 7.406-19.25 11.114z"/>
            <path d="M278.832 136.61l-19.84-10.969-.001-23.01-38.598-22.287.19-.329 38.787 22.396.001 23.006 19.081 10.548v-21.7h.38z"/>
            <path d="M220.583 102.685l-.19-.33 19.347-11.17.19.33z"/>
            <path d="M181.986 102.404l19.156 11.06 19.156-11.06V80.282l-19.156-11.06-19.156 11.06v22.122zm19.156 11.5l-19.536-11.281v-22.56l19.536-11.28 19.536 11.28v22.56l-19.536 11.281z"/>
            <path d="M201.142 137.014l-.096-.056-19.42-11.308.192-.328 19.323 11.252 18.976-11.174-19.165-11.595V91.233l19.442-11.225.19.33-19.252 11.115v22.138l19.527 11.814z"/>
            <path d="M220.393 102.678l-38.692-22.34.19-.33 38.692 22.34zM220.678 35.823l-.283-.16-19.443-11.026V2.245h.38v22.17l18.966 10.757V13.008h.38zM162.544 69.166l-.19-.33 19.252-11.114V21.027L168.44 13.3l.193-.328 13.354 7.838v37.132zM143.072 36.332l-.202-.322 12.651-7.967.201.322zM104.527 215.071l19.156 11.06 19.156-11.06V192.95l-19.156-11.06-19.156 11.06v22.121zm19.156 11.5l-19.536-11.28v-22.56l19.536-11.28 19.536 11.28v22.56l-19.536 11.28z"/>
            <path d="M85.18 240.93h-.38v-14.688l38.693-22.341v-22.245h.38v22.464L85.18 226.461z"/>
            <path d="M142.934 215.346l-38.692-22.342.19-.33 38.692 22.342z"/>
            <path d="M123.778 204.176l-.19-.33 19.347-11.171.19.33zM181.627 193.012l-19.441-11.226v-22.56l19.536-11.28 19.536 11.28v22.45h-.38v-22.23l-19.156-11.061-19.157 11.06v22.122l19.252 11.115z"/>
            <path d="M162.47 181.84l-.19-.329 19.252-11.115v-44.91h.38v45.13z"/>
            <path d="M200.973 181.84l-38.692-22.34.19-.33 38.692 22.341z"/>
            <path d="M181.817 170.67l-.19-.329 19.347-11.17 13.29-8.078.197.324-13.294 8.081zM143.22 215.078l19.156 11.061 19.156-11.06v-22.122l-19.156-11.061-19.157 11.06v22.122zm19.156 11.5l-19.537-11.28v-22.56l19.537-11.281 19.535 11.28v22.56l-19.535 11.282z"/>
            <path d="M213.92 233.033l-17.771-9.806-14.517-7.872-38.697-22.343.19-.33 38.692 22.341 14.514 7.87 17.773 9.808zM104.337 193.06L84.8 181.778v-22.45h.38v22.23l19.157 11.061 19.156-11.06v-22.231h.38v22.45z"/>
            <path d="M84.898 196.29l-13.241-7.38 13.24-7.406 19.25-11.114v-22.245h.38v22.464l-19.442 11.225-12.65 7.076 12.648 7.049z"/>
            <path d="M104.432 170.664l-.19-.33 19.346-11.17.19.33z"/>
            <path d="M123.873 181.566l19.157 11.061 19.156-11.06v-22.122l-19.156-11.06-19.157 11.06v22.121zm19.157 11.501l-19.537-11.281v-22.56l19.537-11.28 19.536 11.28v22.56l-19.536 11.281z"/>
            <path d="M123.778 181.84l-.19-.329 19.252-11.115v-22.138l-19.256-11.65.197-.324 19.438 11.76v22.572z"/>
            <path d="M162.28 181.84l-38.692-22.34.19-.33 38.693 22.341zM84.895 226.516l-12.944-7.444.19-.33 12.944 7.445zM71.857 188.91h.38v-14.618h-.38zM143.22 259.604h-.38v-22.17l-18.968-10.757v22.163h-.38v-22.814l.285.16 19.442 11.027zM175.54 248.878l-13.354-7.838v-37.132l19.441-11.225.19.33-19.251 11.114v36.695l13.166 7.728zM271.956 177.74L233.263 155.4l.19-.33 38.693 22.342z"/>
        </g>
        <g opacity=".5">
            <path fill="#FFF" d="M28.753 42.339a1.859 1.859 0 1 1-3.718-.001 1.859 1.859 0 0 1 3.718 0M15.215 65.386a1.858 1.858 0 1 1-3.717 0 1.858 1.858 0 0 1 3.717 0M28.753 57.941a1.858 1.858 0 1 1-3.717 0 1.858 1.858 0 0 1 3.717 0M47.876 69.111a1.858 1.858 0 1 1-3.716 0 1.858 1.858 0 0 1 3.716 0M67.455 80.173a1.858 1.858 0 1 1-3.716 0 1.858 1.858 0 0 1 3.716 0M106.143 80.173a1.858 1.858 0 1 1-3.717 0 1.858 1.858 0 0 1 3.717 0M67.455 57.941a1.858 1.858 0 1 1-3.716 0 1.858 1.858 0 0 1 3.716 0M67.455 35.578a1.858 1.858 0 1 1-3.716 0 1.858 1.858 0 0 1 3.716 0M86.792 24.69a1.859 1.859 0 1 1-3.718-.002 1.859 1.859 0 0 1 3.718.001M86.792 46.9a1.859 1.859 0 1 1-3.718-.001 1.859 1.859 0 0 1 3.718 0M86.792 69.111a1.858 1.858 0 1 1-3.717 0 1.858 1.858 0 0 1 3.717 0M86.792 91.343a1.858 1.858 0 1 1-3.717 0 1.858 1.858 0 0 1 3.717 0M67.455 102.636a1.859 1.859 0 1 1-3.717 0 1.859 1.859 0 0 1 3.717 0M67.445 125.1a1.858 1.858 0 1 1-3.716.001 1.858 1.858 0 0 1 3.716 0M47.876 113.807a1.858 1.858 0 1 1-3.716 0 1.858 1.858 0 0 1 3.716 0M47.727 136.127a1.858 1.858 0 1 1-3.716 0 1.858 1.858 0 0 1 3.716 0M28.753 124.957a1.858 1.858 0 1 1-3.717 0 1.858 1.858 0 0 1 3.717 0M28.753 147.973a1.859 1.859 0 1 1-3.718-.002 1.859 1.859 0 0 1 3.718.002M47.483 158.448a1.858 1.858 0 1 1-3.716 0 1.858 1.858 0 0 1 3.716 0M9.291 158.448a1.858 1.858 0 1 1-3.716 0 1.858 1.858 0 0 1 3.716 0M9.291 137.184a1.858 1.858 0 1 1-3.716 0 1.858 1.858 0 0 1 3.716 0M86.792 113.807a1.858 1.858 0 1 1-3.717 0 1.858 1.858 0 0 1 3.717 0M86.849 136.127a1.858 1.858 0 1 1-3.717 0 1.858 1.858 0 0 1 3.717 0M106.137 125.1a1.858 1.858 0 1 1-3.716.001 1.858 1.858 0 0 1 3.716 0M67.455 147.973a1.858 1.858 0 1 1-3.716 0 1.858 1.858 0 0 1 3.716 0M106.143 58.207a1.858 1.858 0 1 1-3.717 0 1.858 1.858 0 0 1 3.717 0M106.203 43.362a1.858 1.858 0 1 1-3.716 0 1.858 1.858 0 0 1 3.716 0M119.32 35.578a1.858 1.858 0 1 1-3.717 0 1.858 1.858 0 0 1 3.716 0M125.479 69.377a1.858 1.858 0 1 1-3.717 0 1.858 1.858 0 0 1 3.717 0M126.24 48.266a1.858 1.858 0 1 1-3.717 0 1.858 1.858 0 0 1 3.717 0M144.83 58.614a1.858 1.858 0 1 1-3.716 0 1.858 1.858 0 0 1 3.717 0M144.83 36.17a1.858 1.858 0 1 1-3.716 0 1.858 1.858 0 0 1 3.717 0M157.48 28.204a1.859 1.859 0 1 1-3.718 0 1.859 1.859 0 0 1 3.718 0M164.308 46.668a1.858 1.858 0 1 1-3.717 0 1.858 1.858 0 0 1 3.717 0M164.308 69.111a1.858 1.858 0 1 1-3.717 0 1.858 1.858 0 0 1 3.717 0M202.87 69.002a1.858 1.858 0 1 1-3.717 0 1.858 1.858 0 0 1 3.717 0M183.58 58.31a1.859 1.859 0 1 1-3.717 0 1.859 1.859 0 0 1 3.718 0M183.654 80.173a1.858 1.858 0 1 1-3.716 0 1.858 1.858 0 0 1 3.716 0M183.72 102.39a1.858 1.858 0 1 1-3.717 0 1.858 1.858 0 0 1 3.716 0M222.281 102.281a1.858 1.858 0 1 1-3.716 0 1.858 1.858 0 0 1 3.716 0M241.693 91.35a1.858 1.858 0 1 1-3.716 0 1.858 1.858 0 0 1 3.716 0M241.693 113.787a1.858 1.858 0 1 1-3.716 0 1.858 1.858 0 0 1 3.716 0M222.281 125.486a1.858 1.858 0 1 1-3.716.001 1.858 1.858 0 0 1 3.716-.001M203.466 136.446a1.858 1.858 0 1 1-3.717.002 1.858 1.858 0 0 1 3.717-.002M183.72 126a1.858 1.858 0 1 1-3.717 0 1.858 1.858 0 0 1 3.716 0M183.58 148.165a1.858 1.858 0 1 1-3.716 0 1.858 1.858 0 0 1 3.716 0M202.927 159.336a1.858 1.858 0 1 1-3.717 0 1.858 1.858 0 0 1 3.717 0M164.308 159.664a1.858 1.858 0 1 1-3.717 0 1.858 1.858 0 0 1 3.717 0M215.87 151.255a1.858 1.858 0 1 1-3.716.001 1.858 1.858 0 0 1 3.717-.001M261.04 102.39a1.858 1.858 0 1 1-3.717 0 1.858 1.858 0 0 1 3.717 0M280.5 114.682a1.858 1.858 0 1 1-3.716.001 1.858 1.858 0 0 1 3.717-.001M280.5 136.127a1.858 1.858 0 1 1-3.716 0 1.858 1.858 0 0 1 3.717 0M261.04 125.486a1.858 1.858 0 1 1-3.717 0 1.858 1.858 0 0 1 3.717 0M202.993 91.59a1.858 1.858 0 1 1-3.717 0 1.858 1.858 0 0 1 3.717 0M203.066 113.452a1.858 1.858 0 1 1-3.716 0 1.858 1.858 0 0 1 3.716 0M203 46.9a1.858 1.858 0 1 1-3.716 0 1.858 1.858 0 0 1 3.717 0M183.654 35.578a1.858 1.858 0 1 1-3.716 0 1.858 1.858 0 0 1 3.716 0M241.161 68.958a1.858 1.858 0 1 1-3.716 0 1.858 1.858 0 0 1 3.716 0M221.873 58.267a1.858 1.858 0 1 1-3.717 0 1.858 1.858 0 0 1 3.717 0M222.347 80.128a1.858 1.858 0 1 1-3.717 0 1.858 1.858 0 0 1 3.717 0M254.501 166.638a1.858 1.858 0 1 1-3.716.002 1.858 1.858 0 0 1 3.716-.002M273.913 155.708a1.858 1.858 0 1 1-3.716 0 1.858 1.858 0 0 1 3.716 0M273.913 177.384a1.858 1.858 0 1 1-3.716 0 1.858 1.858 0 0 1 3.716 0M254.501 188.324a1.858 1.858 0 1 1-3.716 0 1.858 1.858 0 0 1 3.716 0M235.213 155.947a1.858 1.858 0 1 1-3.717 0 1.858 1.858 0 0 1 3.717 0M235.286 177.81a1.858 1.858 0 1 1-3.716 0 1.858 1.858 0 0 1 3.716 0M235.16 200.005a1.858 1.858 0 1 1-3.717 0 1.858 1.858 0 0 1 3.716 0M254.501 210.597a1.858 1.858 0 1 1-3.716 0 1.858 1.858 0 0 1 3.716 0M235.16 221.69a1.858 1.858 0 1 1-3.717 0 1.858 1.858 0 0 1 3.716 0M215.87 189.313a1.858 1.858 0 1 1-3.716 0 1.858 1.858 0 0 1 3.717 0M183.58 170.5a1.858 1.858 0 1 1-3.716 0 1.858 1.858 0 0 1 3.716 0M164.308 181.506a1.858 1.858 0 1 1-3.717 0 1.858 1.858 0 0 1 3.717 0M202.927 181.677a1.858 1.858 0 1 1-3.717 0 1.858 1.858 0 0 1 3.717 0M215.944 211.176a1.858 1.858 0 1 1-3.716 0 1.858 1.858 0 0 1 3.716 0M183.623 192.815a1.858 1.858 0 1 1-3.716 0 1.858 1.858 0 0 1 3.716 0M164.28 203.735a1.858 1.858 0 1 1-3.716.001 1.858 1.858 0 0 1 3.717-.001M183.623 215.086a1.858 1.858 0 1 1-3.716 0 1.858 1.858 0 0 1 3.716 0M164.28 226.181a1.858 1.858 0 1 1-3.715 0 1.858 1.858 0 0 1 3.716 0M164.28 240.93a1.858 1.858 0 1 1-3.715 0 1.858 1.858 0 0 1 3.716 0M144.888 259.604a1.858 1.858 0 1 1-3.717 0 1.858 1.858 0 0 1 3.717 0M144.888 237.213a1.858 1.858 0 1 1-3.717 0 1.858 1.858 0 0 1 3.717 0M125.541 248.714a1.858 1.858 0 1 1-3.716 0 1.858 1.858 0 0 1 3.716 0M125.541 226.181a1.858 1.858 0 1 1-3.716 0 1.858 1.858 0 0 1 3.716 0M106.137 215.086a1.858 1.858 0 1 1-3.716 0 1.858 1.858 0 0 1 3.716 0M86.849 226.181a1.858 1.858 0 1 1-3.717 0 1.858 1.858 0 0 1 3.717 0M86.792 240.93a1.858 1.858 0 1 1-3.717 0 1.858 1.858 0 0 1 3.717 0M73.905 218.907a1.858 1.858 0 1 1-3.716 0 1.858 1.858 0 0 1 3.716 0M177.57 248.714a1.858 1.858 0 1 1-3.717 0 1.858 1.858 0 0 1 3.717 0M144.992 193.804a1.858 1.858 0 1 1-3.716 0 1.858 1.858 0 0 1 3.716 0M125.479 204.018a1.858 1.858 0 1 1-3.717 0 1.858 1.858 0 0 1 3.717 0M106.195 192.815a1.858 1.858 0 1 1-3.716 0 1.858 1.858 0 0 1 3.716 0M125.541 181.677a1.858 1.858 0 1 1-3.716 0 1.858 1.858 0 0 1 3.716 0M144.83 170.5a1.858 1.858 0 1 1-3.716 0 1.858 1.858 0 0 1 3.717 0M144.83 148.165a1.858 1.858 0 1 1-3.716 0 1.858 1.858 0 0 1 3.717 0M125.479 159.336a1.858 1.858 0 1 1-3.717 0 1.858 1.858 0 0 1 3.717 0M106.195 170.5a1.858 1.858 0 1 1-3.716 0 1.858 1.858 0 0 1 3.716 0M86.849 181.656a1.858 1.858 0 1 1-3.717 0 1.858 1.858 0 0 1 3.717 0M86.849 159.237a1.858 1.858 0 1 1-3.717.001 1.858 1.858 0 0 1 3.717-.001M106.137 148.145a1.858 1.858 0 1 1-3.716 0 1.858 1.858 0 0 1 3.716 0M73.905 188.746a1.858 1.858 0 1 1-3.716 0 1.858 1.858 0 0 1 3.716 0M73.905 174.291a1.858 1.858 0 1 1-3.716 0 1.858 1.858 0 0 1 3.716 0M86.792 196.124a1.858 1.858 0 1 1-3.717 0 1.858 1.858 0 0 1 3.717 0M145.066 215.665a1.858 1.858 0 1 1-3.717.002 1.858 1.858 0 0 1 3.717-.002M215.944 232.867a1.858 1.858 0 1 1-3.716 0 1.858 1.858 0 0 1 3.716 0M254.567 144.486a1.858 1.858 0 1 1-3.717 0 1.858 1.858 0 0 1 3.717 0M241.293 46.856a1.858 1.858 0 1 1-3.717 0 1.858 1.858 0 0 1 3.717 0M261.04 20.919a1.858 1.858 0 1 1-3.717 0 1.858 1.858 0 0 1 3.717 0M222.347 35.49a1.858 1.858 0 1 1-3.717.002 1.858 1.858 0 0 1 3.717-.002M261.04 35.49a1.858 1.858 0 1 1-3.717.001 1.858 1.858 0 0 1 3.717 0M261.8 66.159a1.858 1.858 0 1 1-3.717 0 1.858 1.858 0 0 1 3.716 0M273.983 72.828a1.858 1.858 0 1 1-3.716 0 1.858 1.858 0 0 1 3.716 0M261.04 80.128a1.858 1.858 0 1 1-3.717 0 1.858 1.858 0 0 1 3.717 0M222.347 13.135a1.858 1.858 0 1 1-3.717 0 1.858 1.858 0 0 1 3.717 0"/>
            <g transform="translate(198.952 .222)">
                <mask id="b" fill="#fff">
                    <use xlink:href="#a"/>
                </mask>
                <path fill="#FFF" d="M4.049 2.396a1.858 1.858 0 1 1-3.717 0 1.858 1.858 0 0 1 3.717 0" mask="url(#b)"/>
            </g>
            <path fill="#FFF" d="M203 24.487a1.858 1.858 0 1 1-3.716 0 1.858 1.858 0 0 1 3.717 0M183.58 20.919a1.859 1.859 0 1 1-3.717-.001 1.859 1.859 0 0 1 3.718 0M170.736 13.135a1.858 1.858 0 1 1-3.716 0 1.858 1.858 0 0 1 3.716 0M125.479 91.609a1.859 1.859 0 1 1-3.718 0 1.859 1.859 0 0 1 3.718 0M106.143 102.903a1.858 1.858 0 1 1-3.717 0 1.858 1.858 0 0 1 3.717 0M125.539 113.671a1.858 1.858 0 1 1-3.716 0 1.858 1.858 0 0 1 3.716 0M125.596 135.99a1.858 1.858 0 1 1-3.717.002 1.858 1.858 0 0 1 3.717-.001M144.885 124.964a1.859 1.859 0 1 1-3.717 0 1.859 1.859 0 0 1 3.717 0M164.308 136.446a1.858 1.858 0 1 1-3.717.002 1.858 1.858 0 0 1 3.717-.002M144.89 102.766a1.858 1.858 0 1 1-3.716 0 1.858 1.858 0 0 1 3.717 0M164.308 91.343a1.858 1.858 0 1 1-3.717 0 1.858 1.858 0 0 1 3.717 0M144.962 80.128a1.858 1.858 0 1 1-3.717 0 1.858 1.858 0 0 1 3.717 0M164.234 113.452a1.858 1.858 0 1 1-3.716 0 1.858 1.858 0 0 1 3.716 0M48.098 91.466a1.858 1.858 0 1 1-3.716 0 1.858 1.858 0 0 1 3.716 0M29.209 102.903a1.858 1.858 0 1 1-3.717 0 1.858 1.858 0 0 1 3.717 0M15.809 95.383a1.858 1.858 0 1 1-3.717 0 1.858 1.858 0 0 1 3.717 0M15.809 110.001a1.858 1.858 0 1 1-3.717 0 1.858 1.858 0 0 1 3.717 0M28.753 88.168a1.859 1.859 0 1 1-3.718 0 1.859 1.859 0 0 1 3.718 0"/>
        </g>
        <g opacity=".5">
            <path fill="#FFF" d="M31.615 42.106a4.837 4.837 0 1 1-9.674 0 4.837 4.837 0 0 1 9.674 0M89.77 46.668a4.837 4.837 0 1 1-9.675-.001 4.837 4.837 0 0 1 9.675 0M129.218 48.266a4.837 4.837 0 1 1-9.673 0 4.837 4.837 0 0 1 9.673 0M264.018 20.744a4.837 4.837 0 1 1-9.674 0 4.837 4.837 0 0 1 9.674 0M225.26 35.49a4.837 4.837 0 1 1-9.674.002 4.837 4.837 0 0 1 9.673-.002M186.559 21.095a4.837 4.837 0 1 1-9.674 0 4.837 4.837 0 0 1 9.674 0M264.018 80.193a4.837 4.837 0 1 1-9.673 0 4.837 4.837 0 0 1 9.673 0"/>
            <g transform="translate(273.369 130.842)">
                <mask id="d" fill="#fff">
                    <use xlink:href="#c"/>
                </mask>
                <path fill="#FFF" d="M10.11 5.149a4.837 4.837 0 1 1-9.674 0 4.837 4.837 0 0 1 9.674 0" mask="url(#d)"/>
            </g>
            <path fill="#FFF" d="M276.961 177.384a4.837 4.837 0 1 1-9.673 0 4.837 4.837 0 0 1 9.673 0M238.137 221.69a4.837 4.837 0 1 1-9.673 0 4.837 4.837 0 0 1 9.673 0M257.541 144.486a4.837 4.837 0 1 1-9.673 0 4.837 4.837 0 0 1 9.673 0M167.183 240.93a4.837 4.837 0 1 1-9.673 0 4.837 4.837 0 0 1 9.673 0M128.52 248.714a4.837 4.837 0 1 1-9.675 0 4.837 4.837 0 0 1 9.675 0M89.77 226.181a4.837 4.837 0 1 1-9.674 0 4.837 4.837 0 0 1 9.674 0M206.445 136.127a4.837 4.837 0 1 1-9.675 0 4.837 4.837 0 0 1 9.675 0M109.115 148.165a4.837 4.837 0 1 1-9.673 0 4.837 4.837 0 0 1 9.673 0M128.457 91.609a4.837 4.837 0 1 1-9.675 0 4.837 4.837 0 0 1 9.675 0M18.787 95.383a4.837 4.837 0 1 1-9.673 0 4.837 4.837 0 0 1 9.673 0M76.884 188.91a4.837 4.837 0 1 1-9.674 0 4.837 4.837 0 0 1 9.674 0M147.809 170.506a4.837 4.837 0 1 1-9.674 0 4.837 4.837 0 0 1 9.674 0M31.73 147.973a4.837 4.837 0 1 1-9.673 0 4.837 4.837 0 0 1 9.674 0M50.706 69.002A4.838 4.838 0 1 1 41.03 69a4.838 4.838 0 0 1 9.676 0"/>
        </g>
        <path fill="#FA0171" d="M219.541 97.958a6.264 6.264 0 0 0-6.257 6.258 6.264 6.264 0 0 0 6.257 6.258 6.264 6.264 0 0 0 6.257-6.258 6.264 6.264 0 0 0-6.257-6.258m0 13.275a7.025 7.025 0 0 1-7.016-7.017c0-3.869 3.147-7.017 7.016-7.017 3.87 0 7.017 3.148 7.017 7.017a7.025 7.025 0 0 1-7.017 7.017M252.381 161a6.264 6.264 0 0 0-6.257 6.257 6.264 6.264 0 0 0 6.257 6.257 6.264 6.264 0 0 0 6.257-6.257 6.264 6.264 0 0 0-6.257-6.257m0 13.274a7.025 7.025 0 0 1-7.016-7.017 7.024 7.024 0 0 1 7.016-7.017 7.024 7.024 0 0 1 7.017 7.017 7.025 7.025 0 0 1-7.017 7.017M194.601 216.455a6.264 6.264 0 0 0-6.257 6.257 6.264 6.264 0 0 0 6.257 6.257 6.264 6.264 0 0 0 6.257-6.257 6.264 6.264 0 0 0-6.257-6.257m0 13.273a7.024 7.024 0 0 1-7.016-7.016c0-3.868 3.147-7.017 7.016-7.017 3.87 0 7.017 3.149 7.017 7.017a7.024 7.024 0 0 1-7.017 7.016M84.415 183.077a6.264 6.264 0 0 0-6.257 6.257 6.264 6.264 0 0 0 6.257 6.258 6.264 6.264 0 0 0 6.257-6.258 6.264 6.264 0 0 0-6.257-6.257m0 13.274a7.025 7.025 0 0 1-7.017-7.017 7.024 7.024 0 0 1 7.017-7.016 7.024 7.024 0 0 1 7.016 7.016 7.025 7.025 0 0 1-7.016 7.017"/>
        <path fill="#38D611" d="M65.39 30.204a6.264 6.264 0 0 0-6.256 6.258 6.264 6.264 0 0 0 6.256 6.258 6.264 6.264 0 0 0 6.257-6.258 6.264 6.264 0 0 0-6.257-6.258m0 13.275c-3.869 0-7.016-3.148-7.016-7.017 0-3.868 3.147-7.017 7.016-7.017s7.017 3.149 7.017 7.017a7.025 7.025 0 0 1-7.017 7.017M7.017 131.588a6.264 6.264 0 0 0-6.257 6.257 6.264 6.264 0 0 0 6.257 6.257 6.264 6.264 0 0 0 6.256-6.257 6.264 6.264 0 0 0-6.256-6.257m0 13.274A7.024 7.024 0 0 1 0 137.845c0-3.868 3.148-7.017 7.017-7.017s7.015 3.149 7.015 7.017a7.023 7.023 0 0 1-7.015 7.017"/>
        <g>
            <g transform="translate(63.786 80.72)">
                <mask id="g" fill="#fff">
                    <use xlink:href="#e"/>
                </mask>
                <path fill="url(#f)" d="M.682 22.734L40.059.63l39.816 22.104v45.593L40.059 92.275l-13.088-8.686-13.296 8.686 1.237-16.295-14.23-7.653z" mask="url(#g)" opacity=".7"/>
            </g>
            <g transform="translate(122.257 69.329)">
                <mask id="j" fill="#fff">
                    <use xlink:href="#h"/>
                </mask>
                <path fill="url(#i)" d="M79.676 22.726L40.3.623.484 22.726V68.32L40.3 92.267l13.09-8.686 13.295 8.686-1.237-16.294 14.23-7.653z" mask="url(#j)" opacity=".703"/>
            </g>
            <path fill="#38D611" d="M90.577 161.037l13.122 8.708 38.256-23.011v-43.84l-38.292-21.26-37.862 21.256v43.795l14.3 7.691-1.079 14.209 11.555-7.548zm-15.05 13.46l1.396-18.38-14.16-7.617v-47.388l40.892-22.955.741.41 40.597 22.54v47.345l-41.374 24.885-13.055-8.663-15.037 9.824z"/>
            <path fill="#FA0171" d="M124.074 135.336l38.256 23.01 13.122-8.708 11.555 7.548-1.08-14.208 14.3-7.69V91.491l-37.861-21.256-38.292 21.26v43.84zm66.427 27.763l-15.036-9.824-13.055 8.663-41.374-24.884V89.708l41.338-22.95 40.89 22.955v47.39l-14.158 7.615 1.395 18.38z"/>
        </g>
        <g>
            <path fill="#38D611" d="M160.536 28.353c0-.242.06-.478.16-.682a1.514 1.514 0 0 1-1.337-.753 1.518 1.518 0 1 1 2.673-.091h.014a1.518 1.518 0 1 1 .024 3.038h-.015a1.52 1.52 0 0 1-1.519-1.512m-5.118.851a1.523 1.523 0 0 1 .546-2.08 1.524 1.524 0 0 1 2.081.554 1.528 1.528 0 0 1-.555 2.081c-.234.136-.5.197-.76.197a1.507 1.507 0 0 1-1.312-.752m-3.942 2.286a1.518 1.518 0 0 1 .555-2.073 1.513 1.513 0 0 1 2.073.546 1.522 1.522 0 0 1-.546 2.081 1.553 1.553 0 0 1-.767.205 1.515 1.515 0 0 1-1.315-.76m9.098 1.42a1.519 1.519 0 1 1 1.526 1.511l-.007.001a1.521 1.521 0 0 1-1.519-1.511m-13.038.866a1.515 1.515 0 0 1 .553-2.074 1.516 1.516 0 0 1 2.074.547 1.524 1.524 0 0 1-.546 2.081 1.518 1.518 0 0 1-2.08-.554m-3.943 2.286a1.518 1.518 0 0 1 .555-2.074 1.513 1.513 0 0 1 2.072.548 1.52 1.52 0 0 1-.546 2.08 1.564 1.564 0 0 1-.767.205 1.518 1.518 0 0 1-1.314-.76m17.018 1.414a1.518 1.518 0 1 1 1.526 1.503h-.007a1.519 1.519 0 0 1-1.519-1.503m-20.958.88a1.525 1.525 0 0 1 .553-2.08 1.516 1.516 0 0 1 2.074.554 1.516 1.516 0 0 1-1.314 2.278 1.507 1.507 0 0 1-1.313-.752m-3.941 2.287a1.522 1.522 0 0 1 .554-2.074 1.514 1.514 0 0 1 2.073.546 1.512 1.512 0 0 1-.547 2.074 1.478 1.478 0 0 1-.76.213 1.537 1.537 0 0 1-1.32-.76m24.93 1.382a1.514 1.514 0 0 1 1.51-1.526 1.519 1.519 0 1 1 .023 3.038h-.015a1.526 1.526 0 0 1-1.519-1.512m-28.863.904a1.511 1.511 0 0 1 .547-2.074 1.512 1.512 0 0 1 2.073.548 1.516 1.516 0 1 1-2.62 1.526m-3.948 2.286a1.522 1.522 0 0 1 2.634-1.527 1.526 1.526 0 0 1-.554 2.082 1.55 1.55 0 0 1-.76.204 1.537 1.537 0 0 1-1.32-.76m32.849 1.367a1.518 1.518 0 1 1 1.527 1.511h-.009c-.834 0-1.51-.674-1.518-1.51m-36.783.918a1.516 1.516 0 0 1 .547-2.073 1.526 1.526 0 0 1 2.08.555 1.517 1.517 0 1 1-2.627 1.518m-3.941 2.294a1.524 1.524 0 0 1 .546-2.081 1.526 1.526 0 0 1 2.081.555c.417.72.175 1.655-.554 2.073a1.443 1.443 0 0 1-.76.205 1.51 1.51 0 0 1-1.313-.752m40.762 1.344a1.517 1.517 0 0 1 1.504-1.526 1.512 1.512 0 0 1 1.525 1.504 1.513 1.513 0 0 1-1.502 1.533h-.016a1.52 1.52 0 0 1-1.511-1.511m-44.703.942a1.523 1.523 0 0 1 .547-2.081 1.526 1.526 0 0 1 2.08.554 1.515 1.515 0 0 1-.554 2.073 1.449 1.449 0 0 1-.76.206 1.51 1.51 0 0 1-1.313-.752m-3.941 2.286a1.514 1.514 0 0 1 .554-2.073 1.515 1.515 0 0 1 2.073.546 1.526 1.526 0 0 1-1.313 2.286 1.515 1.515 0 0 1-1.314-.76m48.674 1.33a1.52 1.52 0 1 1 1.535 1.51h-.016c-.828 0-1.51-.674-1.52-1.51m-52.614.957a1.517 1.517 0 0 1 .554-2.074 1.516 1.516 0 0 1 2.073.547 1.523 1.523 0 0 1-.547 2.08 1.516 1.516 0 0 1-2.08-.554m-3.941 2.294a1.525 1.525 0 0 1 .553-2.08 1.517 1.517 0 0 1 2.074.554 1.51 1.51 0 0 1-.555 2.073 1.51 1.51 0 0 1-.76.205 1.526 1.526 0 0 1-1.312-.752m56.595 1.306a1.52 1.52 0 1 1 1.534 1.511h-.016a1.52 1.52 0 0 1-1.518-1.51m-58.646 1.42a1.519 1.519 0 1 1 3.038 0 1.519 1.519 0 0 1-3.038 0m58.684 3.136a1.517 1.517 0 0 1 1.502-1.527 1.508 1.508 0 0 1 1.527 1.505 1.518 1.518 0 0 1-1.503 1.533h-.008a1.52 1.52 0 0 1-1.518-1.511m-58.684 1.42a1.519 1.519 0 1 1 3.038 0 1.519 1.519 0 0 1-3.038 0m0 4.556a1.519 1.519 0 1 1 3.038 0 1.519 1.519 0 0 1-3.038 0m0 4.557a1.519 1.519 0 1 1 3.037 0 1.519 1.519 0 0 1-3.037 0m0 4.556a1.519 1.519 0 1 1 3.037 0 1.519 1.519 0 0 1-3.037 0"/>
            <path fill="#38D611" d="M67.925 39.07a1.517 1.517 0 0 1-.494-2.09 1.518 1.518 0 0 1 2.088-.5c.714.44.934 1.374.502 2.088-.289.47-.79.729-1.299.729-.274 0-.547-.076-.797-.228m3.888 2.385a1.516 1.516 0 0 1 1.587-2.582c.713.433.941 1.374.5 2.088-.288.463-.781.722-1.298.722-.265 0-.547-.076-.79-.228m3.88 2.384a1.516 1.516 0 1 1 1.587-2.582 1.517 1.517 0 0 1-.79 2.81 1.47 1.47 0 0 1-.797-.228m3.881 2.392a1.531 1.531 0 0 1-.5-2.096 1.524 1.524 0 0 1 2.094-.493c.715.44.935 1.374.495 2.088a1.51 1.51 0 0 1-1.291.722c-.274 0-.547-.069-.798-.22m3.88 2.384a1.52 1.52 0 1 1 1.595-2.59c.713.44.934 1.375.494 2.089-.281.47-.782.721-1.291.721-.273 0-.548-.068-.797-.22M87.334 51a1.517 1.517 0 0 1-.494-2.089 1.518 1.518 0 0 1 2.089-.501c.713.44.934 1.375.493 2.088a1.503 1.503 0 0 1-2.088.502m3.888 2.384a1.516 1.516 0 0 1 1.587-2.582 1.515 1.515 0 1 1-1.587 2.582m3.88 2.385a1.517 1.517 0 0 1-.501-2.089 1.525 1.525 0 0 1 2.088-.5c.713.44.942 1.374.501 2.095-.288.463-.79.722-1.298.722-.267 0-.548-.069-.79-.228m3.88 2.392a1.527 1.527 0 0 1-.501-2.096 1.517 1.517 0 0 1 2.088-.494c.714.44.941 1.375.501 2.088a1.53 1.53 0 0 1-2.088.502m3.88 2.385a1.518 1.518 0 0 1-.5-2.089 1.512 1.512 0 0 1 2.088-.501c.721.44.941 1.374.501 2.088-.288.471-.783.722-1.29.722-.274 0-.548-.07-.798-.22"/>
            <path fill="#FA0171" d="M160.855 160.143a1.514 1.514 0 1 1 3.03 0c0 .836-.676 1.519-1.511 1.519a1.518 1.518 0 0 1-1.52-1.519m0 4.557a1.514 1.514 0 1 1 3.03 0c0 .836-.675 1.519-1.51 1.519a1.518 1.518 0 0 1-1.52-1.52m0 4.557a1.514 1.514 0 1 1 3.03 0c0 .836-.675 1.52-1.51 1.52a1.518 1.518 0 0 1-1.52-1.52m0 4.557a1.514 1.514 0 1 1 3.03 0c0 .836-.675 1.519-1.51 1.519a1.518 1.518 0 0 1-1.52-1.52m0 4.557a1.514 1.514 0 1 1 3.03 0c0 .836-.675 1.52-1.51 1.52a1.518 1.518 0 0 1-1.52-1.52m0 4.557a1.514 1.514 0 1 1 3.03 0c0 .836-.675 1.519-1.51 1.519a1.518 1.518 0 0 1-1.52-1.52m0 4.557a1.514 1.514 0 1 1 3.03 0c0 .836-.675 1.52-1.51 1.52a1.518 1.518 0 0 1-1.52-1.52m-77.795 1.481a1.518 1.518 0 1 1 1.518 1.519 1.513 1.513 0 0 1-1.518-1.519m77.796 3.076a1.514 1.514 0 1 1 3.03 0c0 .836-.676 1.519-1.511 1.519a1.518 1.518 0 0 1-1.52-1.52M83.06 193.52a1.518 1.518 0 1 1 1.518 1.519 1.513 1.513 0 0 1-1.518-1.52m77.796 3.076a1.514 1.514 0 1 1 3.03 0c0 .837-.676 1.52-1.511 1.52a1.518 1.518 0 0 1-1.52-1.52m-77.795 1.481a1.518 1.518 0 1 1 1.518 1.52 1.513 1.513 0 0 1-1.518-1.52m77.796 3.076a1.514 1.514 0 1 1 3.03 0c0 .836-.676 1.519-1.511 1.519a1.518 1.518 0 0 1-1.52-1.52m-77.795 1.482a1.518 1.518 0 1 1 1.518 1.519 1.513 1.513 0 0 1-1.518-1.52m77.34 3.44a1.509 1.509 0 0 1 .57-2.064 1.519 1.519 0 0 1 2.073.57c.41.729.152 1.654-.577 2.072a1.51 1.51 0 0 1-2.066-.577m-74.72 1.36a1.527 1.527 0 0 1-.57-2.074 1.52 1.52 0 1 1 .57 2.074m70.749.888a1.527 1.527 0 0 1 .577-2.073 1.517 1.517 0 0 1 2.065.578c.418.729.16 1.654-.57 2.064a1.523 1.523 0 0 1-2.072-.57m-66.786 1.368a1.519 1.519 0 0 1-.57-2.073 1.507 1.507 0 0 1 2.065-.57 1.518 1.518 0 0 1-1.495 2.643m62.822.874a1.519 1.519 0 0 1 .577-2.067 1.509 1.509 0 0 1 2.066.57 1.52 1.52 0 0 1-1.322 2.27c-.524 0-1.04-.28-1.321-.773m-58.865 1.374a1.517 1.517 0 0 1-.57-2.073 1.524 1.524 0 0 1 2.073-.563c.73.418.98 1.337.57 2.066-.281.494-.79.775-1.322.775-.258 0-.516-.069-.751-.205m54.9.874a1.518 1.518 0 1 1 2.643-1.497 1.51 1.51 0 0 1-.569 2.066 1.494 1.494 0 0 1-.752.197c-.531 0-1.04-.273-1.322-.766m-50.937 1.381a1.504 1.504 0 0 1-.57-2.065 1.511 1.511 0 0 1 2.066-.57c.73.41.988 1.345.57 2.074-.273.485-.79.76-1.321.76-.251 0-.51-.061-.745-.199m46.974.858a1.505 1.505 0 0 1 .577-2.065 1.51 1.51 0 0 1 2.066.57 1.53 1.53 0 0 1-.578 2.073 1.562 1.562 0 0 1-.743.197c-.532 0-1.04-.281-1.322-.775m-43.018 1.398a1.52 1.52 0 0 1-.57-2.074 1.525 1.525 0 0 1 2.074-.57c.73.419.98 1.346.57 2.075a1.52 1.52 0 0 1-1.322.766c-.258 0-.516-.06-.752-.197m39.047.85a1.522 1.522 0 0 1 2.65-1.496 1.518 1.518 0 0 1-1.321 2.264 1.523 1.523 0 0 1-1.33-.768m-35.09 1.405a1.525 1.525 0 0 1-.569-2.073 1.516 1.516 0 0 1 2.073-.561c.73.41.988 1.335.57 2.065a1.523 1.523 0 0 1-2.073.57m31.126.834a1.518 1.518 0 0 1 .576-2.065 1.52 1.52 0 0 1 2.074.57 1.53 1.53 0 0 1-.577 2.073 1.56 1.56 0 0 1-.744.197 1.53 1.53 0 0 1-1.329-.775m-27.17 1.42a1.522 1.522 0 0 1 1.511-2.642c.729.417.98 1.344.57 2.073a1.52 1.52 0 0 1-1.321.767 1.53 1.53 0 0 1-.76-.197m23.206.827a1.525 1.525 0 0 1 .577-2.073 1.51 1.51 0 0 1 2.065.577 1.51 1.51 0 0 1-.57 2.066 1.474 1.474 0 0 1-.75.198c-.524 0-1.04-.28-1.322-.768m-19.242 1.428a1.52 1.52 0 1 1 .752.198c-.26 0-.517-.061-.752-.198m15.278.813a1.518 1.518 0 1 1 2.643-1.496 1.522 1.522 0 0 1-1.322 2.271c-.53 0-1.04-.281-1.32-.775m-11.323 1.443a1.525 1.525 0 0 1-.562-2.074 1.508 1.508 0 0 1 2.065-.57 1.52 1.52 0 0 1-.75 2.841 1.62 1.62 0 0 1-.753-.197m7.358.797a1.51 1.51 0 0 1 .57-2.065 1.523 1.523 0 0 1 2.073.57 1.524 1.524 0 0 1-1.321 2.27c-.533 0-1.04-.274-1.322-.775m-3.394 1.458a1.52 1.52 0 1 1 1.503-2.646 1.52 1.52 0 0 1-1.503 2.646"/>
            <path fill="#FA0171" d="M161.63 206.286a1.521 1.521 0 0 1-.586-2.066 1.51 1.51 0 0 1 2.066-.584c.729.41.995 1.329.585 2.065a1.522 1.522 0 0 1-2.066.585m3.98 2.218a1.52 1.52 0 0 1 1.48-2.65c.736.41.995 1.328.585 2.064-.273.502-.79.776-1.33.776-.25 0-.5-.061-.736-.19m3.98 2.217a1.519 1.519 0 1 1 2.065-.586 1.523 1.523 0 0 1-1.33.784 1.53 1.53 0 0 1-.736-.198m3.98 2.225a1.514 1.514 0 0 1-.585-2.065 1.521 1.521 0 0 1 2.065-.593 1.52 1.52 0 0 1 .585 2.065 1.513 1.513 0 0 1-1.33.783c-.25 0-.5-.061-.735-.19m3.978 2.217a1.52 1.52 0 0 1-.584-2.065 1.518 1.518 0 1 1 2.65 1.48c-.274.494-.79.775-1.322.775-.25 0-.508-.06-.744-.19m3.98 2.218a1.52 1.52 0 0 1-.585-2.065 1.511 1.511 0 0 1 2.065-.586 1.52 1.52 0 0 1 .585 2.067c-.273.492-.79.773-1.33.773-.25 0-.5-.06-.736-.19m3.98 2.218a1.518 1.518 0 1 1 2.065-.584c-.274.501-.79.782-1.33.782-.25 0-.5-.06-.736-.198m3.98 2.218a1.517 1.517 0 1 1 1.48-2.65 1.52 1.52 0 0 1 .585 2.066 1.502 1.502 0 0 1-2.065.584m3.978 2.225a1.521 1.521 0 0 1 1.481-2.658 1.52 1.52 0 0 1 .586 2.066c-.275.501-.79.782-1.33.782-.243 0-.501-.06-.737-.19M200.949 137.482a1.515 1.515 0 0 1-.494-2.088 1.517 1.517 0 0 1 2.089-.493 1.524 1.524 0 0 1-.798 2.817 1.55 1.55 0 0 1-.797-.236m3.873 2.4a1.516 1.516 0 1 1 1.594-2.582c.714.44.934 1.375.494 2.088a1.51 1.51 0 0 1-2.088.494m3.872 2.4a1.526 1.526 0 0 1-.493-2.095 1.526 1.526 0 0 1 2.096-.495c.713.44.934 1.382.486 2.096a1.503 1.503 0 0 1-1.291.714c-.274 0-.547-.068-.798-.22m3.88 2.392a1.517 1.517 0 1 1 1.595-2.582c.714.44.934 1.374.494 2.088a1.52 1.52 0 0 1-1.291.723c-.273 0-.547-.077-.797-.229m3.872 2.4a1.525 1.525 0 0 1-.493-2.096 1.519 1.519 0 1 1 2.582 1.602 1.52 1.52 0 0 1-1.291.722c-.274 0-.547-.076-.798-.228m3.873 2.392a1.517 1.517 0 0 1-.493-2.088 1.525 1.525 0 0 1 2.095-.494c.707.44.934 1.374.494 2.088-.289.464-.79.722-1.299.722-.273 0-.546-.076-.797-.228m3.88 2.4a1.525 1.525 0 0 1-.493-2.096 1.516 1.516 0 0 1 2.088-.494c.714.448.934 1.383.494 2.096a1.512 1.512 0 0 1-1.291.714c-.274 0-.547-.068-.798-.22m3.873 2.392a1.517 1.517 0 1 1 2.088-.494 1.492 1.492 0 0 1-1.29.722c-.274 0-.547-.069-.798-.228m3.873 2.4a1.532 1.532 0 0 1-.494-2.096 1.524 1.524 0 0 1 2.096-.486 1.516 1.516 0 0 1-.797 2.81 1.56 1.56 0 0 1-.805-.228m3.88 2.392a1.517 1.517 0 1 1 1.595-2.582c.714.44.934 1.375.493 2.088-.288.471-.782.722-1.29.722-.274 0-.555-.069-.798-.228m3.873 2.4a1.518 1.518 0 0 1-.494-2.088 1.503 1.503 0 0 1 2.089-.494c.713.432.934 1.374.493 2.088a1.518 1.518 0 0 1-2.088.494m3.873 2.392a1.517 1.517 0 0 1-.494-2.089 1.525 1.525 0 0 1 2.096-.493 1.518 1.518 0 0 1-.805 2.81c-.273 0-.547-.069-.797-.228m3.88 2.4a1.516 1.516 0 1 1 1.595-2.583 1.52 1.52 0 1 1-.797 2.81c-.274 0-.555-.076-.798-.227m3.873 2.392a1.517 1.517 0 1 1 1.595-2.583 1.519 1.519 0 1 1-1.595 2.583"/>
            <path fill="#38D611" d="M27.572 83.655a1.52 1.52 0 0 1 1.458-2.666 1.525 1.525 0 0 1 .608 2.066 1.518 1.518 0 0 1-2.066.6m-4.594-.403a1.526 1.526 0 0 1 .6-2.065 1.523 1.523 0 0 1 2.065.6 1.523 1.523 0 0 1-1.329 2.255c-.539 0-1.055-.289-1.336-.79m8.597 2.59a1.507 1.507 0 0 1-.601-2.058 1.514 1.514 0 0 1 2.058-.608 1.521 1.521 0 0 1-.73 2.856c-.25 0-.5-.061-.727-.19m-12.584-.388a1.524 1.524 0 0 1 .6-2.065 1.525 1.525 0 0 1 2.066.6 1.514 1.514 0 0 1-.6 2.058 1.521 1.521 0 0 1-2.066-.593m16.577 2.575a1.514 1.514 0 0 1-.6-2.058 1.516 1.516 0 0 1 2.058-.608 1.524 1.524 0 0 1 .607 2.066c-.28.501-.797.79-1.336.79-.243 0-.493-.061-.729-.19m-20.563-.372a1.529 1.529 0 0 1 .592-2.066 1.522 1.522 0 0 1 2.065.6 1.512 1.512 0 0 1-1.329 2.248 1.514 1.514 0 0 1-1.328-.782m24.566 2.559a1.525 1.525 0 0 1-.609-2.066 1.522 1.522 0 0 1 2.067-.6 1.516 1.516 0 0 1-.738 2.848c-.242 0-.493-.053-.72-.182m-28.553-.357a1.513 1.513 0 0 1 .592-2.066 1.523 1.523 0 0 1 2.066.6 1.515 1.515 0 0 1-.6 2.058c-.228.13-.479.19-.73.19-.538 0-1.054-.28-1.328-.782m32.547 2.544a1.521 1.521 0 0 1-.6-2.065 1.512 1.512 0 0 1 2.057-.6 1.515 1.515 0 0 1-.728 2.847 1.59 1.59 0 0 1-.73-.182m-36.54-.342a1.518 1.518 0 1 1 2.659-1.476 1.518 1.518 0 0 1-2.66 1.476m40.543 2.53a1.518 1.518 0 1 1 2.058-.608c-.273.509-.798.79-1.33.79-.25 0-.5-.061-.728-.183m-41.712.707c0-.836.676-1.52 1.52-1.52.834 0 1.51.684 1.51 1.52a1.52 1.52 0 0 1-1.51 1.526 1.52 1.52 0 0 1-1.52-1.526m45.707 1.48a1.533 1.533 0 0 1-.608-2.065 1.522 1.522 0 0 1 2.066-.6 1.512 1.512 0 0 1 .6 2.058c-.274.509-.798.79-1.33.79-.25 0-.5-.061-.728-.183m3.994 2.18a1.512 1.512 0 0 1-.6-2.058 1.506 1.506 0 0 1 2.058-.6 1.513 1.513 0 0 1 .607 2.058c-.274.501-.797.79-1.336.79a1.51 1.51 0 0 1-.729-.19m4.001 2.187a1.506 1.506 0 0 1-.6-2.058 1.505 1.505 0 0 1 2.058-.6 1.51 1.51 0 0 1 .6 2.058 1.51 1.51 0 0 1-2.058.6m-53.702-1.29c0-.836.676-1.512 1.52-1.512a1.51 1.51 0 0 1 1.51 1.511 1.52 1.52 0 0 1-1.51 1.526 1.52 1.52 0 0 1-1.52-1.526m57.696 3.478a1.52 1.52 0 0 1 1.46-2.665 1.525 1.525 0 0 1 .607 2.065 1.517 1.517 0 0 1-2.066.6M5.853 104.41c0-.836.676-1.512 1.52-1.512a1.51 1.51 0 0 1 1.51 1.512 1.52 1.52 0 0 1-1.51 1.526 1.52 1.52 0 0 1-1.52-1.526m0 4.556c0-.835.676-1.511 1.52-1.511a1.51 1.51 0 0 1 1.51 1.511 1.514 1.514 0 1 1-3.03 0m0 4.557c0-.836.676-1.512 1.52-1.512a1.51 1.51 0 0 1 1.51 1.512 1.514 1.514 0 1 1-3.03 0m0 4.556c0-.835.676-1.511 1.52-1.511a1.51 1.51 0 0 1 1.51 1.511 1.514 1.514 0 1 1-3.03 0m0 4.564c0-.843.676-1.519 1.52-1.519.834 0 1.51.676 1.51 1.52a1.51 1.51 0 0 1-1.51 1.51 1.512 1.512 0 0 1-1.52-1.51m0 4.556c0-.843.676-1.52 1.52-1.52.834 0 1.51.677 1.51 1.52a1.51 1.51 0 0 1-1.51 1.511 1.512 1.512 0 0 1-1.52-1.511m0 4.556c0-.843.676-1.519 1.52-1.519.834 0 1.51.676 1.51 1.52a1.51 1.51 0 0 1-1.51 1.51 1.512 1.512 0 0 1-1.52-1.51m0 4.556a1.52 1.52 0 0 1 1.52-1.527 1.52 1.52 0 0 1 1.51 1.527 1.51 1.51 0 0 1-1.51 1.511 1.512 1.512 0 0 1-1.52-1.511"/>
            <path fill="#FA0171" d="M161.272 26.675a1.516 1.516 0 0 1-.554-2.072 1.525 1.525 0 0 1 2.08-.556c.722.427.973 1.352.547 2.081a1.51 1.51 0 0 1-1.313.753c-.258 0-.524-.068-.76-.206m3.934 2.294a1.53 1.53 0 0 1-.547-2.081 1.528 1.528 0 0 1 2.08-.546 1.522 1.522 0 0 1-1.533 2.627m3.941 2.293a1.525 1.525 0 0 1-.554-2.08 1.526 1.526 0 0 1 2.08-.548c.722.418.972 1.352.547 2.074a1.514 1.514 0 0 1-2.073.554m3.933 2.286a1.515 1.515 0 1 1 1.526-2.62c.73.418.973 1.344.555 2.073-.28.487-.79.76-1.314.76-.258 0-.524-.069-.767-.213m3.942 2.293a1.514 1.514 0 0 1-.547-2.073 1.517 1.517 0 1 1 1.306 2.278c-.258 0-.516-.06-.76-.205m3.934 2.294a1.529 1.529 0 0 1-.547-2.08 1.53 1.53 0 0 1 2.08-.548c.722.419.965 1.352.548 2.081a1.525 1.525 0 0 1-2.081.547m3.941 2.293a1.523 1.523 0 0 1-.547-2.08 1.514 1.514 0 0 1 2.073-.547 1.51 1.51 0 0 1 .547 2.073 1.515 1.515 0 0 1-2.073.554m3.941 2.286a1.516 1.516 0 0 1 1.526-2.62 1.514 1.514 0 0 1-.766 2.826 1.44 1.44 0 0 1-.76-.206m3.934 2.294a1.522 1.522 0 0 1 1.534-2.627c.72.424.964 1.35.546 2.08-.28.487-.79.752-1.313.752-.259 0-.524-.061-.767-.205m3.94 2.293a1.517 1.517 0 0 1-.554-2.073 1.527 1.527 0 0 1 2.081-.555c.729.426.972 1.352.547 2.081a1.51 1.51 0 0 1-1.314.753c-.258 0-.524-.07-.76-.206m3.942 2.294a1.527 1.527 0 0 1-.555-2.081 1.529 1.529 0 0 1 2.081-.546c.721.417.964 1.35.547 2.08a1.525 1.525 0 0 1-2.073.547m3.933 2.293a1.525 1.525 0 0 1-.547-2.081 1.515 1.515 0 0 1 2.074-.547c.729.418.972 1.353.554 2.074a1.54 1.54 0 0 1-1.321.76c-.259 0-.517-.07-.76-.206m3.934 2.286a1.52 1.52 0 0 1 1.534-2.628c.721.426.964 1.36.546 2.08a1.51 1.51 0 0 1-1.313.753c-.259 0-.524-.061-.767-.205m3.94 2.293a1.514 1.514 0 0 1-.546-2.073 1.518 1.518 0 0 1 2.073-.554c.73.425.972 1.351.554 2.081a1.531 1.531 0 0 1-2.08.546m3.94 2.294a1.52 1.52 0 1 1 1.526-2.628c.723.426.973 1.352.548 2.074a1.514 1.514 0 0 1-2.073.554m1.617 1.876a1.523 1.523 0 0 1 3.045 0 1.52 1.52 0 0 1-1.526 1.519 1.519 1.519 0 0 1-1.519-1.519m0 4.557c0-.844.684-1.52 1.519-1.52a1.52 1.52 0 0 1 1.526 1.52c0 .834-.683 1.518-1.526 1.518a1.524 1.524 0 0 1-1.519-1.518m0 4.556c0-.844.684-1.519 1.519-1.519a1.52 1.52 0 0 1 1.526 1.52c0 .834-.683 1.518-1.526 1.518a1.524 1.524 0 0 1-1.519-1.519m0 4.557a1.523 1.523 0 0 1 3.045 0 1.52 1.52 0 0 1-1.526 1.519 1.519 1.519 0 0 1-1.519-1.52m0 4.557c0-.844.684-1.519 1.519-1.519a1.52 1.52 0 1 1 0 3.038 1.519 1.519 0 0 1-1.519-1.519m0 4.557c0-.844.684-1.52 1.519-1.52a1.52 1.52 0 0 1 1.526 1.52c0 .834-.683 1.519-1.526 1.519a1.524 1.524 0 0 1-1.519-1.52m0 4.557a1.523 1.523 0 0 1 3.045 0c0 .835-.683 1.52-1.526 1.52a1.524 1.524 0 0 1-1.519-1.52m0 4.557a1.523 1.523 0 0 1 3.045 0 1.52 1.52 0 0 1-1.526 1.519 1.519 1.519 0 0 1-1.519-1.52m0 4.557c0-.843.684-1.519 1.519-1.519a1.52 1.52 0 0 1 1.526 1.52c0 .834-.683 1.518-1.526 1.518a1.524 1.524 0 0 1-1.519-1.519m0 4.557a1.523 1.523 0 0 1 3.045 0c0 .834-.683 1.519-1.526 1.519a1.524 1.524 0 0 1-1.519-1.52"/>
        </g>
    </g>
</svg>
