<svg height="112" width="206" xmlns="http://www.w3.org/2000/svg"><g fill="none" fill-rule="evenodd"><path d="m8.6705 102.0673-.6994.5443c-.386-.5097-.8492-.896-1.3898-1.159-.5407-.263-1.1346-.3945-1.7818-.3945-.7074 0-1.3626.1723-1.9656.5168-.603.3446-1.0703.8074-1.4019 1.3884s-.4974 1.2345-.4974 1.9602c0 1.0969.3708 2.0123 1.1124 2.7462.7417.734 1.6773 1.101 2.8068 1.101 1.242 0 2.2812-.4934 3.1173-1.4802l.6994.5382c-.4422.5709-.9939 1.0123-1.6551 1.3242-.6612.312-1.3999.4679-2.2159.4679-1.5516 0-2.7756-.524-3.672-1.5719-.7517-.8848-1.1275-1.9529-1.1275-3.2049 0-1.317.4552-2.425 1.3657-3.3241s2.051-1.3486 3.4218-1.3486c.828 0 1.5757.1661 2.243.4984.6672.3323 1.214.7982 1.64 1.3976zm4.7453.5015c1.009 0 1.845.371 2.5083 1.1132.603.6768.9044 1.478.9044 2.4036 0 .9297-.3185 1.7421-.9557 2.4373-.6371.6952-1.4561 1.0428-2.457 1.0428-1.005 0-1.826-.3476-2.4631-1.0428s-.9557-1.5076-.9557-2.4373c0-.9215.3015-1.7207.9044-2.3975.6633-.7462 1.5014-1.1193 2.5144-1.1193zm0 .838c-.6995 0-1.3004.263-1.8029.789-.5024.526-.7537 1.162-.7537 1.9082 0 .4811.1146.9296.3437 1.3455.2292.416.5387.737.9286.9633s.818.3395 1.2843.3395.8944-.1132 1.2843-.3395.6994-.5474.9285-.9633c.2292-.4159.3437-.8644.3437-1.3455 0-.7462-.2522-1.3823-.7567-1.9083s-1.1044-.789-1.7998-.789zm4.8538-3.2355h.8441v9.2232h-.8441zm2.472 0h.8442v9.2232h-.8441v-9.2232zm9.1349 2.5688v6.6544h-.8321v-1.1437c-.3537.4363-.7507.7645-1.1908.9847-.4402.2202-.9216.3302-1.4441.3302-.9286 0-1.7215-.3414-2.3787-1.0244s-.9858-1.5138-.9858-2.4924c0-.9582.3316-1.7777.9949-2.4587.6632-.681 1.4611-1.0214 2.3937-1.0214.5386 0 1.026.1162 1.4622.3486.4361.2324.819.581 1.1486 1.0459v-1.2232h.832zm-3.3766.6544c-.4703 0-.9044.1172-1.3024.3517-.398.2344-.7145.5637-.9496.9877-.2352.4241-.3527.8726-.3527 1.3456 0 .469.1185.9174.3557 1.3456.2372.4281.5557.7614.9557 1 .4.2385.829.3578 1.2873.3578.4623 0 .9004-.1183 1.3144-.3548s.7326-.5565.9557-.9602.3347-.8583.3347-1.364c0-.7706-.2503-1.4148-.7507-1.9326-.5005-.5179-1.1165-.7768-1.848-.7768zm5.3302 6v-9.2232h.838v3.7125c.3538-.4404.7497-.7696 1.1879-.9878.4381-.2181.9185-.3272 1.441-.3272.9286 0 1.7215.3415 2.3787 1.0245s.9859 1.5117.9859 2.4862c0 .9623-.3317 1.7839-.995 2.4648-.6632.681-1.461 1.0214-2.3937 1.0214-.5346 0-1.019-.1162-1.453-.3486-.4342-.2324-.818-.581-1.1517-1.0458v1.2232h-.8382zm3.3765-.6544c.4703 0 .9044-.1173 1.3024-.3517.398-.2345.7145-.5637.9497-.9878.2351-.424.3527-.8726.3527-1.3456s-.1186-.9235-.3558-1.3516c-.2371-.4282-.5557-.7615-.9556-1-.4-.2386-.8271-.3578-1.2813-.3578-.4623 0-.9014.1192-1.3175.3578-.416.2385-.7356.5596-.9587.9633-.223.4036-.3346.8583-.3346 1.3639 0 .7706.2502 1.4149.7507 1.9327.5004.5178 1.1164.7768 1.848.7768zm8.0977-6.1713c1.009 0 1.845.371 2.5083 1.1132.603.6768.9044 1.478.9044 2.4036 0 .9297-.3185 1.7421-.9556 2.4373-.6372.6952-1.4562 1.0428-2.457 1.0428-1.005 0-1.826-.3476-2.4632-1.0428-.637-.6952-.9556-1.5076-.9556-2.4373 0-.9215.3014-1.7207.9044-2.3975.6632-.7462 1.5013-1.1193 2.5143-1.1193zm0 .838c-.6994 0-1.3004.263-1.8028.789-.5025.526-.7537 1.162-.7537 1.9082 0 .4811.1145.9296.3437 1.3455.229.416.5386.737.9285.9633.39.2263.818.3395 1.2843.3395s.8944-.1132 1.2843-.3395c.39-.2263.6994-.5474.9286-.9633.229-.4159.3437-.8644.3437-1.3455 0-.7462-.2523-1.3823-.7568-1.9083-.5044-.526-1.1044-.789-1.7998-.789zm4.6609-.6667h.8622v.9724c.2573-.3832.5286-.6697.814-.8593s.5828-.2844.8924-.2844c.2331 0 .4823.0754.7476.2263l-.4401.7217c-.1769-.0775-.3256-.1162-.4462-.1162-.2814 0-.5527.1172-.814.3517-.2613.2344-.4603.5984-.597 1.0917-.1044.3792-.1567 1.1458-.1567 2.2997v2.2508h-.8622zm10.5698 0v6.6544h-.832v-1.1437c-.3538.4363-.7508.7645-1.191.9847-.44.2202-.9214.3302-1.444.3302-.9286 0-1.7214-.3414-2.3787-1.0244-.6572-.683-.9858-1.5138-.9858-2.4924 0-.9582.3316-1.7777.9949-2.4587.6632-.681 1.4611-1.0214 2.3937-1.0214.5387 0 1.026.1162 1.4622.3486.4361.2324.819.581 1.1486 1.0459v-1.2232h.832zm-3.3766.6544c-.4703 0-.9044.1172-1.3023.3517-.398.2344-.7146.5637-.9497.9877-.2352.4241-.3527.8726-.3527 1.3456 0 .469.1185.9174.3557 1.3456.2372.4281.5557.7614.9557 1 .4.2385.829.3578 1.2873.3578.4623 0 .9004-.1183 1.3145-.3548.414-.2365.7325-.5565.9556-.9602s.3347-.8583.3347-1.364c0-.7706-.2502-1.4148-.7507-1.9326-.5005-.5179-1.1165-.7768-1.848-.7768zm6.0115-3.1254h.8502v2.471h1.3385v.734h-1.3385v5.9204h-.8502v-5.9205h-1.1516v-.734h1.1516zm3.7444-.2691c.193 0 .3577.0693.4944.208.1367.1386.205.3058.205.5015 0 .1916-.0683.3568-.205.4954s-.3015.208-.4944.208c-.189 0-.3518-.0694-.4884-.208-.1367-.1386-.205-.3038-.205-.4954 0-.1957.0683-.363.205-.5015.1366-.1387.2994-.208.4884-.208zm-.4221 2.74h.8502v6.6545h-.8502v-6.6544zm1.9777 0h.8984l2.1948 4.8441 2.1766-4.844h.9045l-3.0028 6.6544h-.1507l-3.0208-6.6544zm12.9877 4.4465.7115.3792c-.2332.4649-.5025.84-.808 1.1254-.3055.2855-.6492.5026-1.031.6514-.382.1488-.814.2232-1.2964.2232-1.0693 0-1.9053-.3557-2.5083-1.0672-.603-.7116-.9044-1.5158-.9044-2.4129 0-.844.2552-1.5963.7657-2.2569.6472-.84 1.5134-1.2599 2.5988-1.2599 1.1174 0 2.0098.4302 2.677 1.2905.4744.6076.7156 1.366.7236 2.2753h-5.8969c.016.7747.2593 1.4097.7296 1.9052.4703.4954 1.0511.743 1.7425.743.3337 0 .6583-.059.9738-.1773.3156-.1182.5839-.2752.805-.471.221-.1957.4602-.5117.7175-.948zm0-1.792c-.1126-.4567-.2764-.8216-.4914-1.0948s-.4995-.4934-.8532-.6606a2.5795 2.5795 0 0 0 -1.1155-.2507c-.6431 0-1.1958.21-1.6581.63-.3377.3058-.593.7645-.7658 1.3761zm6.0597-4.997h.9044v3.3762l3.5394-3.3761h1.1999l-4.263 4.0367 4.5946 4.9602h-1.1758l-3.895-4.1957v4.1957h-.9045zm7.157 2.3426h.8442v1.1926c.3377-.4567.7115-.7981 1.1215-1.0244s.8562-.3395 1.3386-.3395c.4904 0 .9255.1264 1.3054.3792.3798.2528.6602.5933.8411 1.0214.1809.4282.2713 1.0948.2713 2v3.4251h-.838v-3.1743c0-.7666-.0322-1.2783-.0966-1.5352-.1004-.4404-.2894-.7716-.5667-.9939-.2774-.2222-.6392-.3333-1.0854-.3333-.5105 0-.9677.1713-1.3717.5138s-.6703.7665-.7989 1.2721c-.0804.3303-.1206.9338-.1206 1.8104v2.4404h-.8441v-6.6544zm10.6362-.1713c1.009 0 1.845.371 2.5083 1.1132.603.6768.9045 1.478.9045 2.4036 0 .9297-.3186 1.7421-.9557 2.4373-.6372.6952-1.4562 1.0428-2.457 1.0428-1.005 0-1.826-.3476-2.4632-1.0428-.637-.6952-.9556-1.5076-.9556-2.4373 0-.9215.3014-1.7207.9044-2.3975.6633-.7462 1.5014-1.1193 2.5143-1.1193zm0 .838c-.6994 0-1.3004.263-1.8028.789-.5025.526-.7537 1.162-.7537 1.9082 0 .4811.1145.9296.3437 1.3455.2291.416.5386.737.9285.9633.39.2263.818.3395 1.2843.3395s.8944-.1132 1.2843-.3395c.39-.2263.6994-.5474.9286-.9633.2291-.4159.3437-.8644.3437-1.3455 0-.7462-.2523-1.3823-.7568-1.9083-.5044-.526-1.1044-.789-1.7998-.789zm4.094-.6667h.8684l2.0078 4.8318 2.1043-4.8318h.1508l2.0982 4.8318 2.044-4.8318h.8804l-2.846 6.6544h-.1628l-2.0862-4.7645-2.1043 4.7645h-.1568l-2.7977-6.6544zm11.0221-2.5688h.8442v9.2232h-.8442zm8.1219 7.0152.7114.3792c-.2331.4649-.5024.84-.808 1.1254-.3054.2855-.6491.5026-1.031.6514-.3818.1488-.814.2232-1.2963.2232-1.0693 0-1.9054-.3557-2.5083-1.0672-.603-.7116-.9045-1.5158-.9045-2.4129 0-.844.2553-1.5963.7658-2.2569.6472-.84 1.5134-1.2599 2.5987-1.2599 1.1175 0 2.0099.4302 2.6772 1.2905.4743.6076.7155 1.366.7235 2.2753h-5.8969c.016.7747.2593 1.4097.7296 1.9052.4703.4954 1.0511.743 1.7425.743.3337 0 .6582-.059.9738-.1773.3155-.1182.5839-.2752.805-.471.221-.1957.4602-.5117.7175-.948zm0-1.792c-.1126-.4567-.2764-.8216-.4915-1.0948-.215-.2732-.4994-.4934-.8531-.6606a2.5795 2.5795 0 0 0 -1.1155-.2507c-.6432 0-1.1959.21-1.6581.63-.3377.3058-.593.7645-.7658 1.3761zm9.0503-5.2232v9.2232h-.832v-1.1437c-.3538.4363-.7507.7645-1.1909.9847-.4401.2202-.9215.3302-1.444.3302-.9286 0-1.7215-.3414-2.3787-1.0244-.6573-.683-.9859-1.5138-.9859-2.4924 0-.9582.3317-1.7777.995-2.4587.6632-.681 1.461-1.0214 2.3936-1.0214.5387 0 1.026.1162 1.4622.3486s.819.581 1.1487 1.0459v-3.792zm-3.3765 3.2232c-.4703 0-.9045.1172-1.3024.3517-.398.2344-.7145.5637-.9497.9877-.2351.4241-.3527.8726-.3527 1.3456 0 .469.1186.9174.3557 1.3456.2372.4281.5558.7614.9557 1 .4.2385.8291.3578 1.2873.3578.4623 0 .9005-.1183 1.3145-.3548s.7326-.5565.9557-.9602c.223-.4037.3346-.8583.3346-1.364 0-.7706-.2502-1.4148-.7507-1.9326-.5004-.5179-1.1164-.7768-1.848-.7768zm10.9376-.6544h.8502v5.3027c0 .9338-.0804 1.6167-.2412 2.049-.2211.6116-.605 1.0825-1.1517 1.4128-.5466.3303-1.2039.4954-1.9716.4954-.5628 0-1.0683-.0805-1.5165-.2416-.4482-.161-.813-.3772-1.0943-.6483-.2814-.2712-.5407-.6677-.7778-1.1896h.9165c.2492.4404.5707.7666.9647.9786s.8823.318 1.4652.318c.5748 0 1.0602-.109 1.4561-.3272.396-.2181.6783-.4923.8472-.8226.1688-.3303.2532-.8624.2532-1.5964v-.3425c-.3176.4078-.7055.7207-1.1637.9389-.4583.2181-.9446.3272-1.4592.3272-.603 0-1.1697-.1519-1.7003-.4557-.5306-.3037-.9406-.7125-1.23-1.2263-.2894-.5137-.4342-1.0785-.4342-1.6942s.1508-1.1896.4523-1.7217c.3014-.532.7185-.953 1.2511-1.263.5326-.3099 1.0944-.4648 1.6853-.4648.4904 0 .9476.103 1.3717.3089.424.2059.833.5453 1.227 1.0183v-1.156zm-2.4902.6544c-.4784 0-.9225.1172-1.3325.3517-.41.2344-.7316.5586-.9648.9725-.2331.4138-.3497.8613-.3497 1.3425 0 .7298.2412 1.3333.7236 1.8104.4823.477 1.1074.7156 1.8752.7156.7758 0 1.3998-.2365 1.8721-.7095.4724-.473.7085-1.0948.7085-1.8655 0-.5015-.1085-.949-.3256-1.3425-.217-.3935-.5246-.7044-.9225-.9327-.398-.2283-.826-.3425-1.2843-.3425zm10.6723 3.792.7115.3792c-.2331.4649-.5025.84-.808 1.1254-.3055.2855-.6491.5026-1.031.6514s-.814.2232-1.2964.2232c-1.0692 0-1.9053-.3557-2.5083-1.0672-.603-.7116-.9044-1.5158-.9044-2.4129 0-.844.2552-1.5963.7658-2.2569.6471-.84 1.5134-1.2599 2.5987-1.2599 1.1175 0 2.0098.4302 2.6771 1.2905.4744.6076.7155 1.366.7236 2.2753h-5.897c.0161.7747.2593 1.4097.7296 1.9052.4703.4954 1.0512.743 1.7426.743.3336 0 .6582-.059.9738-.1773.3155-.1182.5838-.2752.8049-.471.221-.1957.4603-.5117.7175-.948zm0-1.792c-.1125-.4567-.2763-.8216-.4914-1.0948-.215-.2732-.4994-.4934-.8532-.6606a2.5795 2.5795 0 0 0 -1.1154-.2507c-.6432 0-1.196.21-1.6582.63-.3376.3058-.5929.7645-.7657 1.3761h4.884zm6.0658 4v-8.997h.1929l5.897 6.8869v-6.8868h.8742v8.9969h-.199l-5.8486-6.8012v6.8012zm14.5131-2.208.7115.3792c-.2331.4649-.5025.84-.808 1.1254-.3055.2855-.6491.5026-1.031.6514s-.814.2232-1.2964.2232c-1.0692 0-1.9053-.3557-2.5083-1.0672-.603-.7116-.9044-1.5158-.9044-2.4129 0-.844.2552-1.5963.7658-2.2569.6471-.84 1.5134-1.2599 2.5987-1.2599 1.1175 0 2.0098.4302 2.6771 1.2905.4743.6076.7155 1.366.7236 2.2753h-5.897c.0161.7747.2593 1.4097.7296 1.9052.4703.4954 1.0512.743 1.7426.743.3336 0 .6582-.059.9737-.1773.3156-.1182.584-.2752.805-.471.221-.1957.4603-.5117.7175-.948zm0-1.792c-.1125-.4567-.2763-.8216-.4914-1.0948-.215-.2732-.4994-.4934-.8532-.6606a2.5795 2.5795 0 0 0 -1.1154-.2507c-.6432 0-1.196.21-1.6582.63-.3376.3058-.5929.7645-.7657 1.3761h4.884zm3.2379-5.1254h.8502v2.471h1.3385v.734h-1.3385v5.9204h-.8502v-5.9205h-1.1517v-.734h1.1517zm2.5626 2.471h.8682l2.0079 4.8318 2.1043-4.8318h.1507l2.0983 4.8318 2.044-4.8318h.8803l-2.846 6.6544h-.1627l-2.0862-4.7645-2.1044 4.7645h-.1567zm14.2538-.1713c1.009 0 1.845.371 2.5083 1.1132.603.6768.9045 1.478.9045 2.4036 0 .9297-.3186 1.7421-.9557 2.4373s-1.4562 1.0428-2.457 1.0428c-1.005 0-1.826-.3476-2.4631-1.0428-.6372-.6952-.9557-1.5076-.9557-2.4373 0-.9215.3015-1.7207.9044-2.3975.6633-.7462 1.5014-1.1193 2.5143-1.1193zm0 .838c-.6994 0-1.3003.263-1.8028.789s-.7537 1.162-.7537 1.9082c0 .4811.1146.9296.3437 1.3455.2291.416.5386.737.9285.9633.39.2263.818.3395 1.2843.3395s.8944-.1132 1.2843-.3395c.39-.2263.6995-.5474.9286-.9633s.3437-.8644.3437-1.3455c0-.7462-.2523-1.3823-.7567-1.9083-.5045-.526-1.1044-.789-1.7999-.789zm4.6609-.6667h.8622v.9724c.2573-.3832.5286-.6697.814-.8593s.5829-.2844.8924-.2844c.2331 0 .4823.0754.7476.2263l-.4401.7217c-.1769-.0775-.3256-.1162-.4462-.1162-.2814 0-.5527.1172-.814.3517-.2613.2344-.4602.5984-.597 1.0917-.1044.3792-.1567 1.1458-.1567 2.2997v2.2508h-.8622zm4.0277-2.5688h.8502v5.2477l3.0329-2.679h1.242l-3.5996 3.1744 3.8107 3.4801h-1.1939l-3.292-2.9908v2.9908h-.8503z" fill="#fff"/><path d="m0 58.3055 5.837-3.5437c4.1094 7.6544 8.8569 11.4816 14.2426 11.4816 2.3037 0 4.4673-.5434 6.4908-1.6301 2.0236-1.0868 3.5645-2.5436 4.623-4.3706s1.5877-3.7642 1.5877-5.8116c0-2.331-.7783-4.6147-2.3348-6.8512-2.1481-3.087-6.0706-6.8038-11.7676-11.1508-5.7282-4.3784-9.2927-7.544-10.6936-9.497-2.4282-3.276-3.6423-6.8197-3.6423-10.6311 0-3.024.716-5.7802 2.148-8.2686 1.432-2.4885 3.4478-4.4493 6.0473-5.8826 2.5994-1.4332 5.4246-2.1498 8.4754-2.1498 3.2377 0 6.2652.8111 9.0825 2.4333 2.8174 1.6223 5.7982 4.6068 8.9425 8.9538l-5.6036 4.2996c-2.584-3.465-4.7865-5.7486-6.6076-6.8511-1.8212-1.1025-3.8058-1.6537-5.9539-1.6537-2.7707 0-5.0354.8505-6.7943 2.5514-1.759 1.701-2.6384 3.7957-2.6384 6.2842 0 1.512.3113 2.9767.934 4.3942.6226 1.4174 1.7588 2.9609 3.4088 4.6304.9028.882 3.8602 3.1971 8.8724 6.9456 5.946 4.4414 10.0242 8.3946 12.2345 11.8595 2.2103 3.465 3.3155 6.9457 3.3155 10.4421 0 5.04-1.8912 9.4183-5.6737 13.1353-3.7824 3.717-8.382 5.5754-13.7989 5.5754-4.1715 0-7.954-1.126-11.3473-3.3783-3.3933-2.2522-6.522-6.0243-9.386-11.3162zm94.4363-4.1107 5.5103 2.9295c-1.8057 3.591-3.8914 6.4889-6.2574 8.6938-2.366 2.205-5.0277 3.8823-7.9851 5.032-2.9575 1.1499-6.3041 1.7248-10.0398 1.7248-8.281 0-14.7562-2.7483-19.4259-8.245s-7.0045-11.71-7.0045-18.6398c0-6.5205 1.9768-12.332 5.9305-17.435 5.0121-6.489 11.7208-9.7333 20.1263-9.7333 8.6545 0 15.5655 3.3231 20.7333 9.9696 3.6735 4.6934 5.5414 10.5522 5.6036 17.5767h-45.6694c.1246 5.9849 2.008 10.8909 5.6503 14.718 3.6424 3.8273 8.1408 5.7409 13.4954 5.7409 2.5839 0 5.0977-.4568 7.5415-1.3703s4.5218-2.1262 6.234-3.6382c1.7123-1.512 3.5645-3.9531 5.557-7.3236zm0-13.844c-.8716-3.528-2.1402-6.3471-3.8057-8.4576-1.6656-2.1105-3.868-3.8114-6.6076-5.103-2.7396-1.2914-5.6192-1.9371-8.639-1.9371-4.981 0-9.2614 1.6222-12.8415 4.8666-2.615 2.3625-4.5919 5.9062-5.9305 10.6311zm15.3321 30.901 9.7596-69.5036h1.1208l27.9246 57.0298 6.1011-12.5865 6.9677.0288-12.2283 25.0315h-1.7277l-24.6092-50.0842-6.6776 50.0842zm89.3672-69.5036h6.8644v69.5036h-6.8644v-69.5036z" fill="#fff"/><path d="m186.5816 62.0082c.2824.2113.5519.456.8086.7337 1.0732 1.1613 1.6098 2.5807 1.6098 4.2581 0 1.41-.3941 2.6482-1.1825 3.7147l.0405.2853h-.2642a6.7182 6.7182 0 0 1 -.2036.2339c-1.0731 1.1774-2.3699 1.7661-3.8902 1.7661s-2.817-.5887-3.8902-1.7661c-1.0732-1.1775-1.6098-2.5887-1.6098-4.2339 0-1.6774.5366-3.0968 1.6098-4.258a6.4435 6.4435 0 0 1 .2701-.2756l-5.49-40.5276-6.4432 13.1715c.0355.288.0533.5846.0533.8897 0 1.6452-.5366 3.0564-1.6098 4.2339-1.0731 1.1774-2.3699 1.7661-3.8902 1.7661s-2.817-.5887-3.8902-1.7661c-1.0732-1.1775-1.6098-2.5887-1.6098-4.2339 0-1.6774.5366-3.0968 1.6098-4.258 1.0731-1.1615 2.3699-1.742 3.8902-1.742.2787 0 .55.0195.8136.0585l9.2202-18.9954c-.3245-.233-.6325-.5094-.924-.8292-1.0732-1.1775-1.6098-2.5887-1.6098-4.2339 0-1.6774.5366-3.0968 1.6098-4.258 1.0731-1.1615 2.3699-1.742 3.8902-1.742s2.817.5806 3.8902 1.742c1.0732 1.1611 1.6098 2.5805 1.6098 4.258 0 1.6452-.5366 3.0564-1.6098 4.2339a6.6276 6.6276 0 0 1 -.1374.1463z" fill="#00152b"/></g></svg>