<svg xmlns="http://www.w3.org/2000/svg" xmlns:xlink="http://www.w3.org/1999/xlink" width="284" height="268" viewBox="0 0 284 268">
    <defs>
        <path id="a" d="M0 .702h3.798v3.802H0z"/>
        <path id="c" d="M0 .702h3.798v3.802H0z"/>
        <path id="e" d="M.075.55h3.798v3.802H.075z"/>
        <path id="g" d="M.183.32h9.884v9.895H.183z"/>
        <path id="i" d="M37.913 32.278L19.3 43.037.684 32.278V10.76L19.299.002 37.913 10.76z"/>
        <linearGradient id="j" x1="0%" x2="100.016%" y1="50.002%" y2="50.002%">
            <stop offset="0%" stop-color="#304A6C"/>
            <stop offset="100%" stop-color="#38D611"/>
        </linearGradient>
        <path id="l" d="M37.925 32.482L19.31 43.242.695 32.481V10.964L19.31.204l18.615 10.76z"/>
        <path id="n" d="M37.72 32.858l-18.614 10.76L.49 32.858V11.341L19.106.58l18.614 10.76z"/>
        <linearGradient id="o" x1="-.143%" y1="49.996%" y2="49.996%">
            <stop offset="0%" stop-color="#304A6C"/>
            <stop offset="100%" stop-color="#FA0171"/>
        </linearGradient>
        <path id="q" d="M37.565 32.544L18.95 43.303.335 32.543V11.026L18.95.266l18.615 10.76z"/>
        <path id="s" d="M37.804 32.73L19.189 43.49.575 32.73V11.212L19.189.454l18.615 10.758z"/>
    </defs>
    <g fill="none" fill-rule="evenodd">
        <g fill="#FFF" opacity=".5">
            <path d="M41.749 93.434l19.576 11.314 19.574-11.314V70.806L61.325 59.493 41.749 70.806v22.628zm19.576 11.764L41.36 93.658V70.583l19.964-11.538 19.962 11.538v23.077l-19.962 11.54z"/>
            <path d="M61.518 104.987h-.388V82.232L21.592 59.38V44.355h.388v14.8l39.538 22.853z"/>
            <path d="M41.652 93.715l-.194-.337 39.538-22.853.194.338z"/>
            <path d="M80.996 93.715L61.227 82.289l.194-.337 19.77 11.426zM120.632 139.47l-19.964-11.54v-23.077l19.867-11.482.194.337-19.673 11.37v22.628l19.576 11.314 19.575-11.314v-22.74h.388v22.965z"/>
            <path d="M120.826 162.366h-.388v-45.861l-19.673-11.371.194-.336 19.867 11.482z"/>
            <path d="M100.96 127.987l-.194-.337 39.538-22.853.194.337z"/>
            <path d="M160.498 140.272L140.3 127.985l-19.765-11.424.194-.337 19.77 11.426 19.611 11.931V93.323l19.867-11.483.194.337-19.673 11.37zM81.287 93.427l19.576 11.314 19.575-11.314V70.8l-19.575-11.315L81.287 70.8v22.627zm19.576 11.764L80.899 93.65V70.576l19.964-11.539 19.963 11.539v23.077l-19.963 11.539z"/>
            <path d="M81.19 93.708l-.194-.337 39.539-22.852 20.06-10.889v22.483h-.388v-21.83l-19.483 10.575zM41.458 139.42l-19.867-11.482V104.86l19.964-11.54 19.964 11.54v22.964h-.388v-22.74L41.555 93.772l-19.576 11.315v22.627l19.673 11.37z"/>
            <path d="M41.749 139.266h-.388v-22.754l-19.673-11.37-13.526-7.575.302-.17 13.227-7.38.19.34-12.924 7.21 12.924 7.237 19.868 11.483z"/>
            <path d="M1.705 162.695V139.84h.388v22.198l19.499-10.79v-23.534l39.635-22.908.194.337-39.441 22.796v23.538z"/>
            <path d="M61.227 127.994l-19.77-11.426.195-.337 19.77 11.426z"/>
            <path d="M61.518 127.706l19.575 11.314 19.576-11.314v-22.628L81.093 93.764l-19.575 11.314v22.628zm19.575 11.764L61.13 127.93v-23.077l19.963-11.538 19.964 11.538v23.078L81.093 139.47z"/>
            <path d="M81.092 163.109l-20.147-11.875L80.9 139.15v-22.645l-19.672-11.371.194-.336 19.866 11.482v23.088l-.093.057-19.49 11.804 19.39 11.43 19.671-11.466.195.336z"/>
            <path d="M61.421 127.987l-.194-.337 39.539-22.853.194.337zM8.656 67.051l-.194-.337L21.69 59.1l.194.336zM8.366 112.52h.388V97.567h-.388zM61.13 59.601V36.263h.388v22.672L80.9 47.933V25.254h.388V48.16l-.098.056zM120.535 93.708l-19.867-11.482V44.244l13.646-8.019.197.336-13.455 7.906V82l19.673 11.37zM140.27 60.188l-18.714-10.605.262-.464 18.714 10.605zM41.461 162.536l-19.77-11.005.189-.34 19.769 11.006zM232.957 181.53l19.576 11.314 19.575-11.314v-22.628l-19.575-11.314-19.576 11.314v22.628zm19.576 11.763l-19.964-11.538v-23.078l19.964-11.538 19.963 11.538v23.078l-19.963 11.538z"/>
            <path d="M232.86 181.81l-.194-.336 39.539-22.853.194.337z"/>
            <path d="M232.666 227.516L212.8 216.034v-23.078l19.963-11.538 19.964 11.538v22.965h-.388v-22.74l-19.576-11.314-19.575 11.314v22.628l19.672 11.37z"/>
            <path d="M232.957 227.362h-.388v-22.755l-19.672-11.37-13.225-7.405.19-.338 13.227 7.406 19.868 11.482z"/>
            <path d="M213.188 238.68h-.388v-22.87l39.538-22.853v-22.762h.388v22.986l-39.538 22.853z"/>
            <path d="M252.435 216.09l-19.77-11.427.195-.337 19.77 11.427zM200.036 70.477l19.576 11.314 19.575-11.314V47.85l-19.575-11.314-19.576 11.314v22.628zm19.576 11.763L199.65 70.702V47.624l19.963-11.538 19.963 11.538v23.078L219.612 82.24z"/>
            <path d="M219.806 82.03h-.388V59.05l39.539-22.852v-14.8h.388v15.025l-39.539 22.852z"/>
            <path d="M239.284 70.758l-39.538-22.853.194-.337 39.538 22.853z"/>
            <path d="M199.94 70.758l-.194-.337 19.77-11.427.193.337zM160.304 116.512l-19.963-11.538V82.009h.388v22.74l19.575 11.314 19.576-11.315V82.121l-19.673-11.37.194-.338 19.867 11.483v23.078z"/>
            <path d="M179.977 105.03l-39.539-22.853.194-.337 39.539 22.852z"/>
            <path d="M140.632 105.03l-.194-.338 19.77-11.426.194.337zM160.498 70.47l19.576 11.314 19.574-11.314V47.842l-19.574-11.314-19.576 11.314V70.47zm19.576 11.764l-19.964-11.54V47.617l19.964-11.538 19.962 11.538v23.077l-19.962 11.54z"/>
            <path d="M199.611 70.75l-39.538-22.852-19.478-10.572v22.607h-.388v-23.26l20.056 10.886 39.542 22.854zM239.478 116.463l-.194-.337 19.672-11.37V82.129l-19.575-11.314-19.575 11.314v22.74h-.388V81.904l19.963-11.54 19.963 11.54v23.077z"/>
            <path d="M239.575 116.308h-.388V93.33l19.866-11.482 12.926-7.238-12.924-7.21.19-.339 13.53 7.55-13.53 7.575-19.67 11.369z"/>
            <path d="M279.231 139.738l-20.274-11.22v-23.537l-39.442-22.797.194-.336 39.635 22.908v23.533l19.5 10.79v-22.198h.387z"/>
            <path d="M219.709 105.037l-.194-.337 19.77-11.427.194.337z"/>
            <path d="M180.268 104.749l19.575 11.314 19.575-11.314V82.12l-19.575-11.314-19.575 11.314v22.628zm19.575 11.764l-19.963-11.54V81.896l19.963-11.538 19.963 11.538v23.077l-19.963 11.54z"/>
            <path d="M199.843 140.152l-.098-.057-19.845-11.568.196-.335 19.746 11.51 19.39-11.43-19.583-11.86v-23.09l19.866-11.481.194.336-19.672 11.37v22.645l19.954 12.085z"/>
            <path d="M219.515 105.03l-39.538-22.853.194-.337 39.538 22.852zM219.806 36.643l-.29-.164-19.867-11.278V2.297h.387l.001 22.678 19.381 11.003V13.306h.388zM160.401 70.75l-.194-.337 19.673-11.37V21.51l-13.455-7.906.197-.335 13.646 8.018v37.982zM140.504 37.164l-.207-.33 12.928-8.148.206.33zM101.116 219.997l19.575 11.313 19.575-11.313v-22.629l-19.575-11.313-19.575 11.313v22.629zm19.575 11.763l-19.963-11.539v-23.077l19.963-11.538 19.963 11.538v23.077L120.69 231.76z"/>
            <path d="M81.346 246.448h-.388v-15.025l39.538-22.853v-22.754h.388v22.979l-39.538 22.852z"/>
            <path d="M140.363 220.277l-39.538-22.853.194-.337 39.538 22.853z"/>
            <path d="M120.787 208.851l-.194-.337 19.77-11.427.194.337zM179.901 197.432l-19.866-11.483v-23.077l19.963-11.538 19.964 11.538v22.965h-.388v-22.74l-19.576-11.314-19.575 11.314v22.628l19.672 11.37z"/>
            <path d="M160.326 186.005l-.194-.337 19.672-11.37V128.36h.388v46.164z"/>
            <path d="M199.67 186.005l-39.538-22.852.194-.337 39.538 22.852z"/>
            <path d="M180.095 174.58l-.194-.338 19.77-11.426 13.58-8.263.202.332-13.585 8.266zM140.654 220.004l19.576 11.314 19.574-11.314v-22.628l-19.574-11.314-19.576 11.314v22.628zm19.576 11.764l-19.964-11.54v-23.077l19.964-11.538 19.962 11.538v23.077l-19.962 11.54z"/>
            <path d="M212.9 238.37l-18.16-10.03-14.834-8.053-39.543-22.855.194-.337 39.538 22.852 14.832 8.051 18.161 10.032zM100.922 197.48l-19.964-11.538v-22.964h.388v22.74l19.576 11.314 19.575-11.315v-22.74h.388v22.965z"/>
            <path d="M81.058 200.786l-13.53-7.55 13.53-7.575 19.67-11.37v-22.753h.388v22.978l-19.867 11.482-12.926 7.238 12.924 7.21z"/>
            <path d="M101.019 174.572l-.194-.337 19.769-11.426.194.337z"/>
            <path d="M120.884 185.724l19.576 11.315 19.575-11.315v-22.627l-19.575-11.314-19.576 11.314v22.627zm19.576 11.765l-19.964-11.54v-23.077l19.964-11.538 19.963 11.538v23.077l-19.963 11.54z"/>
            <path d="M120.787 186.005l-.194-.337 19.673-11.37v-22.645l-19.676-11.916.201-.332 19.863 12.03v23.088z"/>
            <path d="M160.132 186.005l-39.538-22.852.194-.337 39.538 22.852zM81.055 231.704l-13.227-7.616.194-.336 13.227 7.614zM67.732 193.237h.388v-14.954h-.388zM140.654 265.549h-.388V242.87l-19.382-11.003v22.67h-.388v-23.336l.29.164 19.868 11.28zM173.68 254.578l-13.645-8.018v-37.983l19.866-11.482.194.337-19.672 11.37v37.535l13.455 7.905zM272.205 181.81l-39.539-22.852.194-.337 39.539 22.853z"/>
        </g>
        <g opacity=".5">
            <path fill="#FFF" d="M23.685 43.308a1.9 1.9 0 1 1-3.8.001 1.9 1.9 0 0 1 3.8 0M9.851 66.883a1.9 1.9 0 1 1-1.898-1.9 1.9 1.9 0 0 1 1.898 1.9M23.685 59.268a1.9 1.9 0 1 1-3.799 0 1.9 1.9 0 1 1 3.8 0M43.227 70.694a1.9 1.9 0 1 1-1.9-1.9 1.9 1.9 0 0 1 1.9 1.9M63.234 82.009a1.9 1.9 0 1 1-1.899-1.901 1.9 1.9 0 0 1 1.9 1.9M102.767 82.009a1.9 1.9 0 1 1-1.899-1.901 1.9 1.9 0 0 1 1.899 1.9M63.234 59.268a1.9 1.9 0 1 1-3.798 0 1.9 1.9 0 1 1 3.798 0M63.234 36.393a1.9 1.9 0 1 1-1.899-1.9 1.9 1.9 0 0 1 1.9 1.9M82.993 25.254a1.9 1.9 0 1 1-3.801.001 1.9 1.9 0 0 1 3.8 0M82.993 47.974a1.9 1.9 0 1 1-3.801 0 1.9 1.9 0 0 1 3.8 0M82.993 70.694a1.9 1.9 0 1 1-3.8.002 1.9 1.9 0 0 1 3.8-.002M82.993 93.435a1.9 1.9 0 1 1-3.8.002 1.9 1.9 0 0 1 3.8-.002M63.234 104.987a1.9 1.9 0 0 1-1.899 1.901 1.9 1.9 0 0 1 0-3.802 1.9 1.9 0 0 1 1.9 1.9M63.223 127.966a1.9 1.9 0 1 1-1.898-1.901 1.9 1.9 0 0 1 1.898 1.9M43.227 116.414a1.9 1.9 0 1 1-1.9-1.901 1.9 1.9 0 0 1 1.9 1.9M43.074 139.245a1.9 1.9 0 1 1-1.898-1.901 1.9 1.9 0 0 1 1.898 1.9M23.685 127.819a1.9 1.9 0 1 1-3.8.001 1.9 1.9 0 0 1 3.8-.001M23.685 151.361a1.9 1.9 0 1 1-3.8.001 1.9 1.9 0 0 1 3.8 0M42.825 162.076a1.9 1.9 0 1 1-1.899-1.9 1.9 1.9 0 0 1 1.899 1.9"/>
            <g transform="translate(0 159.473)">
                <mask id="b" fill="#fff">
                    <use xlink:href="#a"/>
                </mask>
                <path fill="#FFF" d="M3.798 2.603A1.9 1.9 0 1 1 1.9.703a1.9 1.9 0 0 1 1.898 1.9" mask="url(#b)"/>
            </g>
            <g transform="translate(0 137.722)">
                <mask id="d" fill="#fff">
                    <use xlink:href="#c"/>
                </mask>
                <path fill="#FFF" d="M3.798 2.603A1.9 1.9 0 1 1 1.9.703a1.9 1.9 0 0 1 1.898 1.9" mask="url(#d)"/>
            </g>
            <path fill="#FFF" d="M82.993 116.414a1.9 1.9 0 1 1-3.8.002 1.9 1.9 0 0 1 3.8-.002M83.051 139.245a1.9 1.9 0 1 1-1.899-1.901 1.9 1.9 0 0 1 1.9 1.9M102.762 127.966a1.9 1.9 0 1 1-1.9-1.901 1.9 1.9 0 0 1 1.9 1.9M63.234 151.361a1.9 1.9 0 1 1-1.899-1.9 1.9 1.9 0 0 1 1.9 1.9M102.767 59.54a1.9 1.9 0 1 1-1.899-1.901 1.9 1.9 0 0 1 1.899 1.9M102.829 44.355a1.9 1.9 0 1 1-1.899-1.9 1.9 1.9 0 0 1 1.899 1.9M116.232 36.393a1.9 1.9 0 1 1-1.899-1.9 1.9 1.9 0 0 1 1.899 1.9M122.526 70.966a1.9 1.9 0 1 1-1.899-1.901 1.9 1.9 0 0 1 1.899 1.9M123.303 49.371a1.9 1.9 0 1 1-1.899-1.9 1.9 1.9 0 0 1 1.9 1.9M142.3 59.956a1.9 1.9 0 1 1-1.899-1.9c1.05 0 1.9.85 1.9 1.9M142.3 37a1.9 1.9 0 1 1-3.8.001 1.9 1.9 0 0 1 3.8-.002M155.227 28.85a1.9 1.9 0 0 1-1.9 1.902 1.9 1.9 0 0 1 0-3.803 1.9 1.9 0 0 1 1.9 1.901M162.203 47.736a1.9 1.9 0 1 1-1.898-1.9 1.9 1.9 0 0 1 1.898 1.9M162.203 70.694a1.9 1.9 0 1 1-1.898-1.9 1.9 1.9 0 0 1 1.898 1.9M201.608 70.582a1.9 1.9 0 1 1-3.8.002 1.9 1.9 0 0 1 3.8-.002M181.898 59.646a1.9 1.9 0 1 1-3.801 0 1.9 1.9 0 0 1 3.8 0M181.973 82.009a1.9 1.9 0 1 1-1.899-1.901 1.9 1.9 0 0 1 1.899 1.9M182.04 104.735a1.9 1.9 0 1 1-1.9-1.9 1.9 1.9 0 0 1 1.9 1.9M221.444 104.624a1.9 1.9 0 1 1-1.898-1.901 1.9 1.9 0 0 1 1.898 1.9M241.28 93.442a1.9 1.9 0 1 1-1.898-1.901 1.9 1.9 0 0 1 1.898 1.9M241.28 116.393a1.9 1.9 0 1 1-1.898-1.901 1.9 1.9 0 0 1 1.898 1.9M221.444 128.36a1.9 1.9 0 1 1-3.798 0 1.9 1.9 0 1 1 3.798 0M202.217 139.57a1.9 1.9 0 1 1-3.798 0 1.9 1.9 0 1 1 3.798 0M182.04 128.886a1.9 1.9 0 1 1-1.9-1.9 1.9 1.9 0 0 1 1.9 1.9M181.897 151.558a1.9 1.9 0 1 1-3.798 0 1.9 1.9 0 0 1 1.9-1.901 1.9 1.9 0 0 1 1.898 1.901M201.666 162.985a1.9 1.9 0 1 1-1.898-1.901 1.9 1.9 0 0 1 1.898 1.9M162.203 163.32a1.9 1.9 0 1 1-1.898-1.9 1.9 1.9 0 0 1 1.898 1.9M214.893 154.719a1.9 1.9 0 1 1-3.799 0 1.9 1.9 0 1 1 3.8 0M261.05 104.735a1.9 1.9 0 1 1-3.8.002 1.9 1.9 0 0 1 3.8-.002M280.936 117.308a1.9 1.9 0 1 1-3.798 0 1.9 1.9 0 1 1 3.798 0M280.936 139.245a1.9 1.9 0 1 1-1.899-1.901 1.9 1.9 0 0 1 1.899 1.9M261.05 128.36a1.9 1.9 0 1 1-1.9-1.901c1.05 0 1.9.85 1.9 1.9M201.734 93.687a1.9 1.9 0 1 1-1.899-1.901 1.9 1.9 0 0 1 1.899 1.9M201.809 116.05a1.9 1.9 0 1 1-1.899-1.901 1.9 1.9 0 0 1 1.899 1.9M201.742 47.974a1.9 1.9 0 1 1-3.8.002 1.9 1.9 0 0 1 3.8-.002M181.973 36.393a1.9 1.9 0 1 1-1.899-1.9 1.9 1.9 0 0 1 1.899 1.9M240.737 70.537a1.9 1.9 0 1 1-1.899-1.9 1.9 1.9 0 0 1 1.9 1.9M221.027 59.601a1.9 1.9 0 1 1-3.799 0 1.9 1.9 0 1 1 3.799 0M221.51 81.963a1.9 1.9 0 1 1-1.898-1.9 1.9 1.9 0 0 1 1.899 1.9M254.369 170.455a1.9 1.9 0 1 1-3.799 0 1.9 1.9 0 1 1 3.799 0M274.205 159.273a1.9 1.9 0 1 1-1.899-1.9 1.9 1.9 0 0 1 1.899 1.9M274.205 181.447a1.9 1.9 0 1 1-1.899-1.901 1.9 1.9 0 0 1 1.899 1.9M254.369 192.637a1.9 1.9 0 1 1-1.9-1.901 1.9 1.9 0 0 1 1.9 1.9M234.658 159.518a1.9 1.9 0 1 1-1.899-1.9 1.9 1.9 0 0 1 1.9 1.9M234.733 181.881a1.9 1.9 0 1 1-1.898-1.9 1.9 1.9 0 0 1 1.898 1.9M234.604 204.586a1.9 1.9 0 1 1-3.8 0 1.9 1.9 0 1 1 3.8 0M254.369 215.42a1.9 1.9 0 1 1-3.799 0 1.9 1.9 0 1 1 3.799 0M234.604 226.767a1.9 1.9 0 1 1-1.9-1.9 1.9 1.9 0 0 1 1.9 1.9M214.893 193.649a1.9 1.9 0 1 1-1.898-1.901 1.9 1.9 0 0 1 1.898 1.9M181.897 174.404a1.9 1.9 0 1 1-1.899-1.901 1.9 1.9 0 0 1 1.899 1.9M162.203 185.663a1.9 1.9 0 1 1-3.798 0 1.9 1.9 0 1 1 3.798 0M201.666 185.837a1.9 1.9 0 1 1-3.798 0 1.9 1.9 0 1 1 3.798 0M214.968 216.012a1.9 1.9 0 1 1-1.898-1.901 1.9 1.9 0 0 1 1.898 1.9M181.941 197.23a1.9 1.9 0 1 1-3.798 0 1.9 1.9 0 1 1 3.798 0M162.176 208.4a1.9 1.9 0 1 1-3.798 0 1.9 1.9 0 1 1 3.798 0M181.941 220.012a1.9 1.9 0 1 1-1.899-1.9 1.9 1.9 0 0 1 1.899 1.9M162.176 231.36a1.9 1.9 0 1 1-1.899-1.9 1.9 1.9 0 0 1 1.899 1.9M162.176 246.448a1.9 1.9 0 1 1-1.899-1.901 1.9 1.9 0 0 1 1.899 1.9M142.359 265.549a1.9 1.9 0 1 1-1.899-1.901 1.9 1.9 0 0 1 1.899 1.9M142.359 242.646a1.9 1.9 0 1 1-3.798 0 1.9 1.9 0 1 1 3.798 0M122.59 254.41a1.9 1.9 0 1 1-1.9-1.9 1.9 1.9 0 0 1 1.9 1.9M122.59 231.36a1.9 1.9 0 1 1-1.9-1.9 1.9 1.9 0 0 1 1.9 1.9M102.762 220.012a1.9 1.9 0 1 1-1.9-1.9 1.9 1.9 0 0 1 1.9 1.9M83.051 231.36a1.9 1.9 0 1 1-1.899-1.9 1.9 1.9 0 0 1 1.9 1.9M82.993 246.448a1.9 1.9 0 1 1-3.8.002 1.9 1.9 0 0 1 3.8-.002M69.825 223.92a1.9 1.9 0 1 1-3.8.002 1.9 1.9 0 0 1 3.8-.002M175.755 254.41a1.9 1.9 0 1 1-1.899-1.9 1.9 1.9 0 0 1 1.9 1.9M142.466 198.242a1.9 1.9 0 1 1-1.899-1.9 1.9 1.9 0 0 1 1.899 1.9M122.526 208.69a1.9 1.9 0 1 1-1.899-1.901 1.9 1.9 0 0 1 1.899 1.9M102.82 197.23a1.9 1.9 0 1 1-3.798 0 1.9 1.9 0 1 1 3.799 0M122.59 185.837a1.9 1.9 0 1 1-3.799 0 1.9 1.9 0 1 1 3.798 0M142.3 174.404a1.9 1.9 0 1 1-3.8.002 1.9 1.9 0 0 1 3.8-.002M142.3 151.558a1.9 1.9 0 1 1-3.799 0 1.9 1.9 0 1 1 3.8 0M122.526 162.985a1.9 1.9 0 1 1-1.899-1.901 1.9 1.9 0 0 1 1.899 1.9M102.82 174.404a1.9 1.9 0 1 1-1.898-1.901 1.9 1.9 0 0 1 1.899 1.9M83.051 185.816a1.9 1.9 0 1 1-3.798 0 1.9 1.9 0 1 1 3.798 0M83.051 162.884a1.9 1.9 0 1 1-3.798 0 1.9 1.9 0 1 1 3.798 0M102.762 151.537a1.9 1.9 0 1 1-1.9-1.9 1.9 1.9 0 0 1 1.9 1.9M69.825 193.069a1.9 1.9 0 1 1-3.8.001 1.9 1.9 0 0 1 3.8-.001M69.825 178.283a1.9 1.9 0 1 1-3.8.001 1.9 1.9 0 0 1 3.8-.001M82.993 200.616a1.9 1.9 0 1 1-3.8.002 1.9 1.9 0 0 1 3.8-.002M142.541 220.604a1.9 1.9 0 1 1-1.9-1.9c1.05 0 1.9.85 1.9 1.9M214.968 238.2a1.9 1.9 0 1 1-1.898-1.901 1.9 1.9 0 0 1 1.898 1.9M254.435 147.795a1.9 1.9 0 1 1-1.898-1.9 1.9 1.9 0 0 1 1.898 1.9M240.871 47.93a1.9 1.9 0 1 1-1.899-1.902 1.9 1.9 0 0 1 1.9 1.901M261.05 21.398a1.9 1.9 0 1 1-1.899-1.901 1.9 1.9 0 0 1 1.899 1.9M221.51 36.303a1.9 1.9 0 1 1-3.797 0 1.9 1.9 0 1 1 3.798 0M261.05 36.303a1.9 1.9 0 1 1-1.9-1.901c1.05 0 1.9.85 1.9 1.9M261.826 67.674a1.9 1.9 0 1 1-1.899-1.9 1.9 1.9 0 0 1 1.899 1.9M274.276 74.496a1.9 1.9 0 1 1-1.899-1.9 1.9 1.9 0 0 1 1.899 1.9M261.05 81.963a1.9 1.9 0 1 1-3.8.002 1.9 1.9 0 0 1 3.8-.002M221.51 13.435a1.9 1.9 0 1 1-1.898-1.9 1.9 1.9 0 0 1 1.899 1.9"/>
            <g transform="translate(197.869 .227)">
                <mask id="f" fill="#fff">
                    <use xlink:href="#e"/>
                </mask>
                <path fill="#FFF" d="M3.873 2.45a1.9 1.9 0 1 1-3.8.003 1.9 1.9 0 0 1 3.8-.002" mask="url(#f)"/>
            </g>
            <path fill="#FFF" d="M201.742 25.048a1.9 1.9 0 1 1-3.8.002 1.9 1.9 0 0 1 3.8-.002M181.898 21.398a1.9 1.9 0 1 1-3.801 0 1.9 1.9 0 0 1 3.8 0M168.772 13.435a1.9 1.9 0 1 1-1.898-1.9 1.9 1.9 0 0 1 1.898 1.9M122.526 93.706a1.9 1.9 0 1 1-3.801.003 1.9 1.9 0 0 1 3.8-.003M102.767 105.26a1.9 1.9 0 1 1-1.899-1.902 1.9 1.9 0 0 1 1.899 1.901M122.587 116.274a1.9 1.9 0 1 1-1.899-1.9 1.9 1.9 0 0 1 1.9 1.9M122.645 139.105a1.9 1.9 0 1 1-3.798 0 1.9 1.9 0 1 1 3.798 0M142.357 127.826a1.9 1.9 0 1 1-3.801.001 1.9 1.9 0 0 1 3.8 0M162.203 139.57a1.9 1.9 0 1 1-3.798 0 1.9 1.9 0 1 1 3.798 0M142.362 105.12a1.9 1.9 0 1 1-1.899-1.901 1.9 1.9 0 0 1 1.899 1.9M162.203 93.435a1.9 1.9 0 1 1-1.898-1.901 1.9 1.9 0 0 1 1.898 1.9M142.435 81.963a1.9 1.9 0 1 1-3.8.002 1.9 1.9 0 0 1 3.8-.002M162.128 116.05a1.9 1.9 0 1 1-1.898-1.901 1.9 1.9 0 0 1 1.898 1.9M43.454 93.56a1.9 1.9 0 1 1-1.899-1.9 1.9 1.9 0 0 1 1.899 1.9M24.151 105.26a1.9 1.9 0 1 1-1.898-1.902 1.9 1.9 0 0 1 1.898 1.901M10.458 97.567a1.9 1.9 0 1 1-1.898-1.9 1.9 1.9 0 0 1 1.898 1.9M10.458 112.52a1.9 1.9 0 1 1-1.898-1.9 1.9 1.9 0 0 1 1.898 1.9M23.685 90.187a1.9 1.9 0 1 1-3.8.001 1.9 1.9 0 0 1 3.8 0"/>
        </g>
        <g opacity=".5">
            <path fill="#FFF" d="M26.61 43.07a4.945 4.945 0 0 1-4.942 4.949 4.946 4.946 0 0 1-4.943-4.949 4.945 4.945 0 0 1 4.943-4.947 4.945 4.945 0 0 1 4.942 4.947M86.036 47.736a4.945 4.945 0 0 1-4.943 4.948 4.944 4.944 0 0 1-4.942-4.948 4.944 4.944 0 0 1 4.942-4.947 4.945 4.945 0 0 1 4.943 4.947M126.346 49.371a4.945 4.945 0 0 1-4.942 4.948 4.944 4.944 0 0 1-4.942-4.948 4.944 4.944 0 0 1 4.942-4.947 4.945 4.945 0 0 1 4.942 4.947M264.093 21.219a4.945 4.945 0 0 1-4.943 4.947 4.944 4.944 0 0 1-4.942-4.947 4.944 4.944 0 0 1 4.942-4.948 4.945 4.945 0 0 1 4.943 4.948M224.487 36.303a4.945 4.945 0 0 1-4.942 4.948 4.945 4.945 0 0 1-4.942-4.948 4.945 4.945 0 0 1 4.942-4.948 4.945 4.945 0 0 1 4.942 4.948M184.941 21.578a4.945 4.945 0 0 1-4.943 4.948 4.944 4.944 0 0 1-4.942-4.948 4.944 4.944 0 0 1 4.942-4.947 4.945 4.945 0 0 1 4.943 4.947M264.093 82.03a4.945 4.945 0 0 1-4.942 4.947 4.944 4.944 0 0 1-4.943-4.947 4.945 4.945 0 0 1 4.943-4.948 4.945 4.945 0 0 1 4.942 4.948"/>
            <g transform="translate(273.913 133.838)">
                <mask id="h" fill="#fff">
                    <use xlink:href="#g"/>
                </mask>
                <path fill="#FFF" d="M10.067 5.267a4.946 4.946 0 0 1-4.942 4.948A4.944 4.944 0 0 1 .183 5.267 4.944 4.944 0 0 1 5.125.319a4.945 4.945 0 0 1 4.942 4.948" mask="url(#h)"/>
            </g>
            <path fill="#FFF" d="M277.32 181.447a4.945 4.945 0 0 1-4.943 4.947 4.944 4.944 0 0 1-4.942-4.947 4.944 4.944 0 0 1 4.942-4.948 4.945 4.945 0 0 1 4.942 4.948M237.647 226.767a4.945 4.945 0 0 1-4.942 4.948 4.945 4.945 0 0 1-4.943-4.948 4.945 4.945 0 0 1 4.943-4.947 4.945 4.945 0 0 1 4.942 4.947M257.475 147.795a4.945 4.945 0 0 1-4.942 4.948 4.944 4.944 0 0 1-4.942-4.948 4.944 4.944 0 0 1 4.942-4.948 4.945 4.945 0 0 1 4.942 4.948M165.142 246.448a4.945 4.945 0 0 1-4.942 4.947 4.944 4.944 0 0 1-4.942-4.947 4.944 4.944 0 0 1 4.942-4.948 4.945 4.945 0 0 1 4.942 4.948M125.633 254.41a4.945 4.945 0 0 1-4.942 4.948 4.944 4.944 0 0 1-4.943-4.948 4.944 4.944 0 0 1 4.943-4.947 4.945 4.945 0 0 1 4.942 4.947M86.036 231.36a4.945 4.945 0 0 1-4.943 4.948 4.944 4.944 0 0 1-4.942-4.947 4.945 4.945 0 0 1 4.942-4.949 4.946 4.946 0 0 1 4.943 4.949M205.261 139.245a4.945 4.945 0 0 1-4.943 4.947 4.944 4.944 0 0 1-4.942-4.947 4.944 4.944 0 0 1 4.942-4.948 4.945 4.945 0 0 1 4.943 4.948M105.805 151.558a4.945 4.945 0 0 1-4.942 4.948 4.944 4.944 0 0 1-4.942-4.948 4.945 4.945 0 0 1 4.942-4.948 4.945 4.945 0 0 1 4.942 4.948M125.569 93.706a4.945 4.945 0 0 1-4.942 4.949 4.946 4.946 0 0 1-4.943-4.949 4.945 4.945 0 0 1 4.943-4.947 4.945 4.945 0 0 1 4.942 4.947M13.502 97.567a4.945 4.945 0 0 1-4.942 4.948 4.944 4.944 0 0 1-4.942-4.948 4.944 4.944 0 0 1 4.942-4.948 4.945 4.945 0 0 1 4.942 4.948M72.868 193.236a4.945 4.945 0 0 1-4.942 4.948 4.944 4.944 0 0 1-4.943-4.948 4.944 4.944 0 0 1 4.943-4.947 4.945 4.945 0 0 1 4.942 4.947M145.344 174.41a4.945 4.945 0 0 1-4.943 4.948 4.944 4.944 0 0 1-4.942-4.947 4.944 4.944 0 0 1 4.942-4.948 4.945 4.945 0 0 1 4.943 4.948M26.729 151.361a4.945 4.945 0 0 1-4.943 4.948 4.944 4.944 0 0 1-4.942-4.948 4.944 4.944 0 0 1 4.942-4.947 4.945 4.945 0 0 1 4.943 4.947M46.118 70.582a4.946 4.946 0 0 1-4.943 4.948 4.945 4.945 0 0 1-4.942-4.948 4.944 4.944 0 0 1 4.942-4.948 4.945 4.945 0 0 1 4.943 4.948"/>
        </g>
        <path fill="#FA0171" d="M79.62 72.94c-.41 0-.798-.163-1.093-.459a1.573 1.573 0 0 1-.342-.505 1.565 1.565 0 0 1-.085-.9c.022-.095.046-.195.085-.289.038-.093.093-.186.148-.263.054-.086.115-.171.194-.241.07-.07.146-.132.232-.194a1.453 1.453 0 0 1 .558-.225 1.31 1.31 0 0 1 .606 0c.101.015.194.046.288.084.093.04.186.086.27.14.086.063.163.124.234.195.077.07.14.155.194.24.053.078.109.17.147.264.038.094.07.194.086.288a1.549 1.549 0 0 1-.427 1.406c-.07.07-.148.14-.234.195a1.74 1.74 0 0 1-.558.233c-.1.014-.201.03-.302.03M95.683 62.173a1.552 1.552 0 0 1 .574-2.12 1.553 1.553 0 0 1 1.544 2.695c-.248.14-.512.21-.768.21a1.56 1.56 0 0 1-1.35-.785m-4.353 2.493a1.553 1.553 0 0 1 .574-2.12 1.563 1.563 0 0 1 2.118.574c.427.746.17 1.702-.574 2.121a1.544 1.544 0 0 1-2.118-.575m-4.354 2.494a1.561 1.561 0 0 1 .575-2.12 1.558 1.558 0 0 1 1.544 2.702 1.553 1.553 0 0 1-2.12-.583m-4.351 2.502a1.56 1.56 0 0 1 .573-2.12 1.554 1.554 0 0 1 1.544 2.696c-.24.14-.504.201-.768.201a1.56 1.56 0 0 1-1.349-.777M101.386 60.456a1.55 1.55 0 0 1-1.102-.45c-.07-.078-.14-.156-.194-.241a1.42 1.42 0 0 1-.147-.264c-.039-.094-.062-.194-.085-.288a1.995 1.995 0 0 1-.031-.303c0-.412.17-.816.457-1.103.575-.583 1.614-.583 2.196 0 .287.287.458.691.458 1.103 0 .101-.016.203-.03.303a2.073 2.073 0 0 1-.094.288 1.489 1.489 0 0 1-.14.264 1.53 1.53 0 0 1-1.288.691M99.827 48.967c0-.855.697-1.554 1.552-1.554.86 0 1.56.7 1.56 1.554 0 .862-.7 1.554-1.56 1.554a1.552 1.552 0 0 1-1.552-1.554m0 4.972c0-.863.697-1.554 1.552-1.554.86 0 1.56.691 1.56 1.554a1.557 1.557 0 0 1-3.112 0M101.379 45.557c-.412 0-.8-.163-1.094-.458a1.53 1.53 0 0 1-.458-1.096c0-.411.17-.815.458-1.103.574-.574 1.621-.574 2.196 0 .07.07.131.155.194.241.053.086.1.17.14.264.037.093.068.194.092.295.015.093.031.202.031.303 0 .101-.016.202-.03.303a1.943 1.943 0 0 1-.233.559c-.063.078-.125.163-.194.234a1.542 1.542 0 0 1-1.102.458M107.035 40.678a1.558 1.558 0 0 1 .551-2.128 1.552 1.552 0 0 1 2.126.552 1.558 1.558 0 0 1-.551 2.128c-.248.148-.52.21-.784.21a1.55 1.55 0 0 1-1.342-.762m-3.5 2.051a1.554 1.554 0 1 1 2.685-1.57 1.553 1.553 0 0 1-1.342 2.34 1.561 1.561 0 0 1-1.343-.77M111.87 39.389c-.412 0-.8-.163-1.095-.459a1.515 1.515 0 0 1-.458-1.095c0-.1.017-.202.031-.303a2.16 2.16 0 0 1 .093-.295c.04-.093.087-.179.14-.263a1.38 1.38 0 0 1 .194-.234c.07-.078.148-.14.233-.194.085-.054.178-.11.272-.148a1.586 1.586 0 0 1 1.188 0c.092.039.185.094.263.148.085.054.162.116.24.194.07.07.132.147.194.234.054.084.101.17.14.263.039.094.07.194.085.295a1.54 1.54 0 0 1-.419 1.398 1.542 1.542 0 0 1-1.102.459"/>
        <path fill="#FA0171" d="M109.204 45.512l1.877-7.21-7.204-1.875 3.854-2.265 7.2 1.876-1.873 7.21z"/>
        <path fill="#38D611" d="M200.36 94.628c-.412 0-.8-.155-1.095-.45a1.508 1.508 0 0 1-.45-1.096c0-.1.009-.21.023-.303.024-.1.055-.202.094-.295a1.504 1.504 0 0 1 .333-.505 1.549 1.549 0 0 1 1.397-.42 1.437 1.437 0 0 1 .559.225c.085.063.17.125.24.195a1.57 1.57 0 0 1 0 2.199c-.295.295-.683.45-1.102.45M234.602 73.297a1.55 1.55 0 0 1 .567-2.12 1.54 1.54 0 0 1 2.118.566 1.544 1.544 0 0 1-.566 2.12 1.546 1.546 0 0 1-2.119-.566m-3.957 2.283a1.553 1.553 0 0 1 .575-2.12 1.55 1.55 0 0 1 2.117.566c.427.746.171 1.695-.565 2.122a1.561 1.561 0 0 1-2.127-.568m-3.95 2.285a1.55 1.55 0 0 1 .567-2.122 1.542 1.542 0 0 1 2.119.568 1.552 1.552 0 0 1-2.685 1.554m-3.958 2.283a1.558 1.558 0 0 1 .566-2.12c.745-.428 1.7-.171 2.127.566.426.746.17 1.694-.575 2.121a1.45 1.45 0 0 1-.768.21 1.56 1.56 0 0 1-1.35-.777m-3.95 2.284a1.546 1.546 0 0 1 .567-2.121 1.546 1.546 0 0 1 2.118.568c.435.745.18 1.692-.566 2.12-.249.14-.513.21-.776.21-.536 0-1.056-.28-1.343-.777m-3.956 2.284a1.554 1.554 0 0 1 2.691-1.554 1.557 1.557 0 0 1-1.342 2.33c-.542 0-1.062-.279-1.35-.776M210.883 87a1.551 1.551 0 1 1 2.685-1.554 1.562 1.562 0 0 1-.567 2.129c-.249.14-.513.202-.776.202a1.531 1.531 0 0 1-1.342-.777m-3.958 2.284a1.56 1.56 0 0 1 .567-2.121 1.553 1.553 0 0 1 2.118.567 1.55 1.55 0 0 1-.566 2.128 1.545 1.545 0 0 1-2.12-.574m-3.957 2.29c-.426-.745-.17-1.7.575-2.127a1.549 1.549 0 0 1 2.118.574 1.552 1.552 0 0 1-1.342 2.33 1.57 1.57 0 0 1-1.35-.776M239.902 71.79c-.411 0-.807-.164-1.102-.459a1.93 1.93 0 0 1-.194-.233 1.798 1.798 0 0 1-.14-.272 1.286 1.286 0 0 1-.085-.286 1.35 1.35 0 0 1-.03-.304c0-.101.007-.21.03-.303.016-.101.047-.201.085-.295a1.675 1.675 0 0 1 .334-.505 2.92 2.92 0 0 1 .24-.194c.086-.055.171-.101.265-.14a1.38 1.38 0 0 1 .294-.086c.194-.046.404-.046.606 0 .101.017.194.048.287.086.093.039.186.085.271.14.086.062.163.124.233.194s.14.155.194.241a1.675 1.675 0 0 1 .233.559c.015.093.03.202.03.303 0 .1-.015.202-.03.304a1.801 1.801 0 0 1-.085.286c-.04.094-.094.187-.148.272a1.106 1.106 0 0 1-.194.233 1.538 1.538 0 0 1-1.094.459M238.35 51.95a1.552 1.552 0 1 1 3.104 0 1.552 1.552 0 1 1-3.104 0m0 4.576c0-.863.69-1.554 1.552-1.554.854 0 1.552.69 1.552 1.554 0 .854-.698 1.554-1.552 1.554-.861 0-1.552-.7-1.552-1.554m0 4.568c0-.863.69-1.554 1.552-1.554.854 0 1.552.69 1.552 1.554a1.552 1.552 0 1 1-3.104 0m0 4.574a1.552 1.552 0 1 1 3.104 0 1.55 1.55 0 0 1-1.552 1.546 1.546 1.546 0 0 1-1.552-1.546M239.902 48.936c-.419 0-.807-.163-1.094-.458a1.45 1.45 0 0 1-.202-.233 1.798 1.798 0 0 1-.233-.56 1.992 1.992 0 0 1-.023-.303c0-.1.008-.202.031-.303.016-.1.047-.2.085-.295.04-.093.086-.179.14-.264a1.45 1.45 0 0 1 .202-.233c.07-.078.147-.14.233-.194a1.38 1.38 0 0 1 .559-.233c.193-.047.403-.047.605 0 .101.016.194.047.287.085.093.039.186.086.271.148.086.054.163.116.233.194.07.07.14.148.194.233.054.085.109.17.148.264.038.094.062.194.085.295.023.101.03.202.03.303 0 .101-.007.202-.03.303a1.147 1.147 0 0 1-.085.288c-.04.093-.094.186-.148.272a1.406 1.406 0 0 1-.194.233c-.07.077-.147.14-.233.194a1.363 1.363 0 0 1-.271.148c-.093.038-.186.07-.287.085-.101.023-.202.03-.303.03M251.076 40.919a1.558 1.558 0 0 1 .566-2.12c.745-.427 1.7-.18 2.127.566a1.557 1.557 0 0 1-1.344 2.33 1.56 1.56 0 0 1-1.349-.776m-4.167 2.416a1.552 1.552 0 0 1 2.685-1.554 1.56 1.56 0 0 1-.567 2.122 1.57 1.57 0 0 1-.776.209c-.535 0-1.063-.28-1.342-.777m-4.183 2.408a1.556 1.556 0 0 1 2.693-1.554c.427.747.171 1.695-.567 2.129-.247.14-.512.202-.776.202a1.556 1.556 0 0 1-1.35-.777M256.601 39.28a1.535 1.535 0 0 1-1.552-1.546c0-.1.008-.21.031-.311a1.456 1.456 0 0 1 .225-.552c.061-.084.124-.17.194-.24.07-.07.155-.132.233-.194a1.75 1.75 0 0 1 .27-.14c.095-.04.195-.07.289-.085.2-.047.41-.047.613 0 .093.015.194.046.287.085.093.04.186.086.264.14.085.062.17.124.24.194.07.07.132.156.193.24a1.456 1.456 0 0 1 .225.552c.024.102.031.21.031.311 0 .412-.154.8-.45 1.096a1.53 1.53 0 0 1-1.093.45"/>
        <path fill="#38D611" d="M253.875 45.387l1.928-7.197-7.19-1.927 3.869-2.236 7.188 1.928-1.927 7.196zM120.172 232.582c-.411 0-.8-.163-1.094-.458a1.528 1.528 0 0 1-.458-1.096 1.56 1.56 0 0 1 .69-1.29c.086-.054.18-.108.272-.147.094-.039.194-.062.287-.085.202-.039.412-.039.606 0 .1.023.201.046.295.085.093.04.186.093.263.148a1.56 1.56 0 0 1 .698 1.29c0 .411-.162.807-.457 1.095a1.577 1.577 0 0 1-.504.341 1.546 1.546 0 0 1-.598.117M135.45 222.755a1.559 1.559 0 0 1 .63-2.105 1.546 1.546 0 0 1 2.102.622c.412.754.125 1.7-.628 2.105a1.5 1.5 0 0 1-.737.194 1.56 1.56 0 0 1-1.367-.816m-4.158 2.253a1.551 1.551 0 0 1 .628-2.105 1.544 1.544 0 0 1 2.103.629 1.549 1.549 0 0 1-.628 2.097 1.496 1.496 0 0 1-.738.194c-.551 0-1.086-.295-1.365-.815m-4.16 2.253a1.551 1.551 0 0 1 .63-2.105 1.55 1.55 0 0 1 1.474 2.727 1.496 1.496 0 0 1-.738.194 1.55 1.55 0 0 1-1.366-.816m-4.158 2.252a1.549 1.549 0 0 1 .62-2.105 1.557 1.557 0 0 1 2.11.63 1.56 1.56 0 0 1-.627 2.105 1.548 1.548 0 0 1-2.103-.63M140.975 221.318c-.1 0-.202-.016-.302-.03a1.752 1.752 0 0 1-.288-.086 1.863 1.863 0 0 1-.27-.148 1.764 1.764 0 0 1-.233-.194 1.539 1.539 0 0 1-.459-1.095c0-.412.172-.816.459-1.103.573-.575 1.622-.583 2.195 0 .287.287.459.69.459 1.103 0 .411-.163.8-.459 1.095a1.542 1.542 0 0 1-1.102.458M139.432 201.478c0-.854.69-1.553 1.543-1.553.862 0 1.552.699 1.552 1.553 0 .855-.69 1.554-1.552 1.554a1.55 1.55 0 0 1-1.543-1.554m0 4.568c0-.854.69-1.554 1.543-1.554.862 0 1.552.7 1.552 1.554a1.547 1.547 0 1 1-3.095 0m0 4.576a1.547 1.547 0 1 1 3.095 0c0 .854-.69 1.553-1.552 1.553a1.55 1.55 0 0 1-1.543-1.553m0 4.567a1.547 1.547 0 1 1 3.095 0 1.547 1.547 0 1 1-3.095 0M140.975 198.457a1.53 1.53 0 0 1-1.428-.956 1.43 1.43 0 0 1-.124-.59c0-.412.172-.816.459-1.103.07-.07.154-.132.233-.194.084-.055.177-.101.27-.14.094-.04.194-.07.288-.086a1.31 1.31 0 0 1 .606 0 1.436 1.436 0 0 1 .558.225c.086.063.17.125.24.195.07.077.133.155.194.24a1.475 1.475 0 0 1 .225.56 1.557 1.557 0 0 1-.419 1.398c-.295.296-.683.45-1.102.45M194.99 165.69a1.55 1.55 0 0 1 .566-2.12 1.54 1.54 0 0 1 2.119.567 1.55 1.55 0 0 1-1.343 2.33 1.548 1.548 0 0 1-1.342-.777m-3.958 2.284a1.557 1.557 0 0 1 .567-2.12 1.565 1.565 0 0 1 2.126.567c.427.745.17 1.693-.574 2.12a1.47 1.47 0 0 1-.768.21c-.544 0-1.064-.28-1.35-.777m-3.95 2.284a1.552 1.552 0 0 1 .566-2.12 1.555 1.555 0 0 1 1.552 2.695c-.24.14-.512.202-.776.202a1.548 1.548 0 0 1-1.342-.777m-3.958 2.284a1.56 1.56 0 0 1 .567-2.12 1.556 1.556 0 1 1 .784 2.905 1.542 1.542 0 0 1-1.35-.785m-3.958 2.292a1.565 1.565 0 0 1 .574-2.129 1.556 1.556 0 0 1 2.119.568c.426.746.17 1.7-.567 2.128-.248.14-.512.21-.776.21-.535 0-1.055-.28-1.35-.777m-3.95 2.283a1.557 1.557 0 0 1 .567-2.12 1.54 1.54 0 0 1 2.118.567 1.544 1.544 0 0 1-.566 2.12 1.548 1.548 0 0 1-2.118-.567m-3.958 2.284a1.553 1.553 0 0 1 .574-2.12 1.549 1.549 0 0 1 2.119.567 1.557 1.557 0 0 1-1.343 2.33c-.535 0-1.055-.28-1.35-.777m-3.95 2.284a1.56 1.56 0 0 1 .567-2.12 1.555 1.555 0 0 1 1.552 2.695c-.24.14-.512.202-.776.202a1.55 1.55 0 0 1-1.343-.777m-3.957 2.284a1.558 1.558 0 0 1 .566-2.12 1.562 1.562 0 0 1 2.127.566 1.556 1.556 0 0 1-1.343 2.33 1.544 1.544 0 0 1-1.35-.776m-3.95 2.291a1.55 1.55 0 0 1 .567-2.12 1.545 1.545 0 0 1 2.118.56c.435.746.179 1.7-.566 2.128a1.545 1.545 0 0 1-2.119-.568m-3.957 2.284a1.557 1.557 0 0 1 .566-2.12 1.55 1.55 0 0 1 2.127.567 1.557 1.557 0 0 1-1.343 2.33 1.56 1.56 0 0 1-1.35-.777m-3.95 2.284a1.546 1.546 0 0 1 .567-2.12 1.547 1.547 0 0 1 2.118.566 1.544 1.544 0 0 1-.566 2.121 1.545 1.545 0 0 1-2.119-.567m-3.957 2.285a1.558 1.558 0 0 1 .566-2.122 1.566 1.566 0 0 1 2.127.568 1.556 1.556 0 0 1-1.35 2.33 1.55 1.55 0 0 1-1.343-.776m-3.95 2.283a1.545 1.545 0 0 1 .567-2.12 1.553 1.553 0 1 1 .776 2.897 1.532 1.532 0 0 1-1.343-.777M200.282 164.184c-.1 0-.203-.016-.303-.031a1.831 1.831 0 0 1-.288-.086 1.127 1.127 0 0 1-.263-.147 1.164 1.164 0 0 1-.24-.194 1.411 1.411 0 0 1-.334-.505 1.075 1.075 0 0 1-.085-.288 1.553 1.553 0 0 1 .419-1.398c.07-.078.155-.14.24-.194.078-.062.171-.109.263-.149a1.57 1.57 0 0 1 1.692.343c.288.287.459.684.459 1.095 0 .101-.017.202-.031.303a2.746 2.746 0 0 1-.086.288 1.791 1.791 0 0 1-.147.27 1.411 1.411 0 0 1-.194.235 1.577 1.577 0 0 1-.505.341 1.548 1.548 0 0 1-.597.117M200.344 145.735c-.861 0-1.552-.7-1.552-1.554a1.558 1.558 0 0 1 1.56-1.554 1.552 1.552 0 0 1 1.544 1.562c0 .853-.698 1.546-1.552 1.546zm-.016 4.613a1.542 1.542 0 0 1-1.544-1.56c0-.855.699-1.547 1.552-1.547.854 0 1.552.7 1.544 1.553 0 .863-.69 1.554-1.552 1.554zm-.015 4.607c-.861 0-1.552-.699-1.552-1.553a1.558 1.558 0 0 1 1.56-1.554 1.557 1.557 0 0 1 1.544 1.561c0 .854-.691 1.546-1.544 1.546h-.008zm-.016 4.615c-.86 0-1.552-.7-1.544-1.554 0-.862.699-1.554 1.552-1.554.862.007 1.551.7 1.551 1.561a1.555 1.555 0 0 1-1.551 1.547h-.008zM200.36 141.128c-.412 0-.8-.163-1.095-.459a1.534 1.534 0 0 1-.45-1.095c0-.101.009-.21.023-.303a1.743 1.743 0 0 1 .233-.559 1.47 1.47 0 0 1 .194-.241c.574-.574 1.622-.574 2.196 0a1.675 1.675 0 0 1 .334.505 1.3 1.3 0 0 1 .085.295 1.567 1.567 0 0 1-.419 1.398 1.542 1.542 0 0 1-1.102.459M251.262 109.48a1.558 1.558 0 0 1 .543-2.128 1.556 1.556 0 1 1 1.583 2.68c-.248.147-.52.217-.79.217a1.538 1.538 0 0 1-1.336-.768m-4.02 2.377a1.557 1.557 0 0 1 .544-2.13 1.555 1.555 0 0 1 2.126.552 1.542 1.542 0 0 1-.543 2.122 1.55 1.55 0 0 1-2.127-.544m-4.018 2.377a1.555 1.555 0 0 1 2.677-1.585 1.559 1.559 0 0 1-1.344 2.346 1.547 1.547 0 0 1-1.333-.761m-4.02 2.377a1.557 1.557 0 0 1 .551-2.13 1.552 1.552 0 0 1 2.125.545 1.558 1.558 0 0 1-1.334 2.346 1.559 1.559 0 0 1-1.342-.761m-4.012 2.376a1.557 1.557 0 0 1 .543-2.136 1.556 1.556 0 0 1 2.126.552 1.558 1.558 0 0 1-1.334 2.346 1.538 1.538 0 0 1-1.335-.762m-4.02 2.37a1.556 1.556 0 0 1 .544-2.128 1.554 1.554 0 1 1 .79 2.897 1.554 1.554 0 0 1-1.334-.769m-4.018 2.377a1.556 1.556 0 0 1 .543-2.129 1.557 1.557 0 0 1 2.125.545 1.554 1.554 0 0 1-1.335 2.346 1.549 1.549 0 0 1-1.333-.762m-4.02 2.377a1.554 1.554 0 0 1 .542-2.128 1.56 1.56 0 0 1 2.134.544 1.557 1.557 0 0 1-2.677 1.584m-4.02 2.37a1.555 1.555 0 0 1 2.679-1.577 1.56 1.56 0 0 1-1.335 2.345 1.541 1.541 0 0 1-1.343-.768m-4.019 2.377a1.558 1.558 0 0 1 .551-2.13 1.556 1.556 0 0 1 2.126.552 1.56 1.56 0 0 1-1.335 2.347 1.57 1.57 0 0 1-1.342-.77m-4.012 2.378a1.548 1.548 0 0 1 .544-2.129 1.55 1.55 0 1 1 1.574 2.672 1.537 1.537 0 0 1-2.118-.543m-4.02 2.377a1.552 1.552 0 1 1 0 0m-4.02 2.376a1.555 1.555 0 0 1 .545-2.128 1.544 1.544 0 0 1 2.126.544 1.549 1.549 0 0 1-.543 2.128 1.547 1.547 0 0 1-2.127-.544M256.616 107.873c-.1 0-.21-.008-.303-.031a1.285 1.285 0 0 1-.294-.086 1.715 1.715 0 0 1-.264-.14 1.95 1.95 0 0 1-.24-.202 1.93 1.93 0 0 1-.195-.233c-.054-.085-.1-.17-.14-.264a1.328 1.328 0 0 1-.085-.295 1.567 1.567 0 0 1 .419-1.398c.582-.583 1.622-.583 2.196 0 .287.287.458.691.458 1.095 0 .101-.008.202-.031.303a1.288 1.288 0 0 1-.085.295 1.27 1.27 0 0 1-.148.264 1.106 1.106 0 0 1-.194.233 1.45 1.45 0 0 1-.233.202 1.794 1.794 0 0 1-.271.14c-.093.039-.186.07-.287.086-.101.023-.202.03-.303.03"/>
        <path fill="#38D611" d="M253.967 114.001l1.858-7.215-7.209-1.856 3.848-2.274 7.206 1.857-1.856 7.215z"/>
        <path fill="#FA0171" d="M192.84 29.143a1.557 1.557 0 0 1 .552-2.128 1.56 1.56 0 0 1 2.125.558 1.548 1.548 0 0 1-.55 2.122c-.248.146-.52.216-.785.216a1.539 1.539 0 0 1-1.341-.768m-4.02 2.362c-.426-.746-.187-1.702.558-2.129a1.544 1.544 0 0 1 2.12.552 1.557 1.557 0 0 1-.552 2.128 1.56 1.56 0 0 1-2.127-.552m-4.011 2.354a1.551 1.551 0 1 1 2.678-1.568 1.551 1.551 0 0 1-.56 2.12c-.247.147-.519.217-.784.217-.534 0-1.046-.28-1.334-.77m-4.019 2.355a1.558 1.558 0 0 1 .551-2.13 1.563 1.563 0 0 1 2.126.56 1.549 1.549 0 0 1-.55 2.122 1.543 1.543 0 0 1-2.126-.552m-4.021 2.362a1.56 1.56 0 0 1 .56-2.13 1.544 1.544 0 0 1 2.117.552 1.557 1.557 0 0 1-.551 2.13c-.248.147-.52.217-.783.208a1.55 1.55 0 0 1-1.343-.76m-4.012 2.353a1.558 1.558 0 0 1 .551-2.128 1.552 1.552 0 1 1 1.568 2.68c-.249.147-.513.217-.783.217a1.555 1.555 0 0 1-1.336-.769m-4.02 2.353a1.547 1.547 0 0 1 .552-2.12 1.547 1.547 0 0 1 2.127.552 1.56 1.56 0 0 1-.551 2.128c-.25.14-.52.21-.784.21a1.541 1.541 0 0 1-1.343-.77m-4.019 2.354a1.544 1.544 0 0 1 .558-2.12 1.544 1.544 0 0 1 2.12.552 1.556 1.556 0 0 1-.552 2.127 1.52 1.52 0 0 1-.784.21 1.551 1.551 0 0 1-1.342-.769m-4.012 2.362a1.55 1.55 0 1 1 2.676-1.57 1.542 1.542 0 0 1-.558 2.121c-.24.148-.512.218-.783.218-.528 0-1.048-.28-1.335-.769m-4.02 2.354a1.55 1.55 0 0 1 .551-2.121 1.554 1.554 0 0 1 1.575 2.68 1.61 1.61 0 0 1-.783.21 1.544 1.544 0 0 1-1.343-.769m-4.02 2.354a1.545 1.545 0 0 1 .56-2.12 1.546 1.546 0 0 1 2.119.55 1.557 1.557 0 0 1-.551 2.13c-.25.146-.52.208-.784.208a1.551 1.551 0 0 1-1.343-.768m-4.011 2.36a1.557 1.557 0 0 1 .55-2.127 1.557 1.557 0 0 1 2.127.56 1.557 1.557 0 0 1-.56 2.12 1.508 1.508 0 0 1-.783.217 1.553 1.553 0 0 1-1.334-.77m-4.02 2.354a1.546 1.546 0 0 1 .551-2.12 1.551 1.551 0 0 1 2.126.552 1.557 1.557 0 0 1-.551 2.128c-.248.14-.52.21-.784.21a1.54 1.54 0 0 1-1.342-.77m-4.02 2.355a1.553 1.553 0 0 1 2.677-1.57 1.555 1.555 0 0 1-.55 2.128c-.25.14-.52.21-.784.21a1.544 1.544 0 0 1-1.343-.768m-1.248 3.285c0-.862.69-1.554 1.551-1.554a1.553 1.553 0 0 1 0 3.108 1.551 1.551 0 0 1-1.551-1.554m0 4.66c0-.86.69-1.553 1.551-1.553a1.553 1.553 0 0 1 0 3.107 1.551 1.551 0 0 1-1.551-1.553m0 4.66c0-.86.69-1.553 1.551-1.553a1.553 1.553 0 0 1 0 3.107 1.551 1.551 0 0 1-1.551-1.553m0 4.66c0-.861.69-1.553 1.551-1.553a1.553 1.553 0 0 1 0 3.107 1.551 1.551 0 0 1-1.551-1.553m0 4.66c0-.861.69-1.553 1.551-1.553a1.553 1.553 0 0 1 0 3.107 1.551 1.551 0 0 1-1.551-1.554m0 4.661c0-.861.69-1.553 1.551-1.553a1.553 1.553 0 0 1 0 3.107 1.551 1.551 0 0 1-1.551-1.554m0 4.661c0-.861.69-1.553 1.551-1.553a1.553 1.553 0 0 1 0 3.107 1.551 1.551 0 0 1-1.551-1.554m0 4.661c0-.861.69-1.554 1.551-1.554a1.553 1.553 0 0 1 0 3.108 1.551 1.551 0 0 1-1.551-1.554m0 4.66c0-.86.69-1.553 1.551-1.553a1.553 1.553 0 0 1 0 3.107 1.551 1.551 0 0 1-1.551-1.553m-.18 5.15a1.543 1.543 0 0 1 .675-2.089 1.551 1.551 0 0 1 1.404 2.765 1.507 1.507 0 0 1-.697.172c-.567 0-1.11-.312-1.382-.847m-4.158 2.105a1.562 1.562 0 0 1 .683-2.09 1.555 1.555 0 1 1 .705 2.945 1.56 1.56 0 0 1-1.388-.855m-4.144 2.113a1.559 1.559 0 0 1 .675-2.09 1.555 1.555 0 1 1 .706 2.944 1.54 1.54 0 0 1-1.381-.854m-4.151 2.112a1.554 1.554 0 0 1 .675-2.089 1.547 1.547 0 0 1 2.087.684c.388.76.085 1.7-.683 2.089-.225.11-.458.163-.698.163-.567 0-1.11-.31-1.381-.847m-4.151 2.113a1.549 1.549 0 1 1 2.762-1.405 1.547 1.547 0 0 1-.676 2.08 1.545 1.545 0 0 1-2.087-.676m-4.151 2.106a1.546 1.546 0 0 1 .682-2.082 1.546 1.546 0 0 1 2.08.677 1.55 1.55 0 0 1-1.38 2.26c-.568 0-1.11-.311-1.382-.855"/>
        <path fill="#FA0171" d="M194.628 34.202l1.882-7.21-7.203-1.88 3.855-2.26 7.2 1.882-1.88 7.207zM245.908 152.081a1.557 1.557 0 0 1 .365-2.167 1.563 1.563 0 0 1 2.172.372c.489.7.326 1.67-.372 2.167-.272.194-.59.288-.9.288-.481 0-.962-.233-1.265-.66m-3.794 2.703a1.553 1.553 0 1 1 2.164.366 1.551 1.551 0 0 1-2.164-.366m-3.795 2.696c-.496-.7-.333-1.67.364-2.167a1.555 1.555 0 1 1 .9 2.82c-.488 0-.961-.226-1.264-.653m-3.794 2.703a1.554 1.554 0 0 1 2.53-1.803 1.558 1.558 0 0 1-1.265 2.456 1.56 1.56 0 0 1-1.265-.653m-2.801 2.463a1.552 1.552 0 1 1 3.103 0c0 .854-.69 1.553-1.551 1.553-.854 0-1.552-.699-1.552-1.553m0 4.66c0-.862.698-1.553 1.552-1.553.86 0 1.551.691 1.558 1.554 0 .854-.697 1.553-1.558 1.553-.854 0-1.545-.699-1.552-1.553m.007 4.66c0-.862.691-1.553 1.545-1.553a1.553 1.553 0 1 1 .006 3.107c-.86 0-1.551-.7-1.551-1.554m0 4.661a1.552 1.552 0 0 1 3.104 0 1.553 1.553 0 0 1-3.104 0m0 4.661a1.552 1.552 0 0 1 3.104 0 1.553 1.553 0 0 1-3.104 0"/>
        <path fill="#FA0171" d="M248.165 156.943l1.246-7.346-7.34-1.245 3.644-2.59 7.337 1.246-1.245 7.345zM60.292 104.633c0-.862.69-1.553 1.552-1.553.86 0 1.551.691 1.551 1.553a1.553 1.553 0 1 1-3.103 0m0 4.661c0-.862.69-1.553 1.552-1.553.86 0 1.551.691 1.551 1.553a1.553 1.553 0 1 1-3.103 0m0 4.661c0-.862.69-1.553 1.552-1.553.86 0 1.551.69 1.551 1.553a1.553 1.553 0 1 1-3.103 0m0 4.661c0-.862.69-1.554 1.552-1.554.86 0 1.551.692 1.551 1.554a1.553 1.553 0 1 1-3.103 0m0 4.66c0-.861.69-1.553 1.552-1.553.86 0 1.551.692 1.551 1.554a1.553 1.553 0 1 1-3.103 0M101.379 150.838a1.538 1.538 0 0 1-1.288-.699 1.477 1.477 0 0 1-.149-.264 1.755 1.755 0 0 1-.084-.287c-.016-.101-.031-.202-.031-.304 0-.41.17-.815.458-1.103a1.58 1.58 0 0 1 1.396-.427c.101.024.201.055.295.093.093.039.179.086.263.14.086.062.163.124.242.194.07.07.131.155.194.234a1.825 1.825 0 0 1 .232.56 2.099 2.099 0 0 1 0 .614 1.943 1.943 0 0 1-.093.286 1.496 1.496 0 0 1-.14.264 1.876 1.876 0 0 1-.193.24 1.556 1.556 0 0 1-.505.335 1.568 1.568 0 0 1-.597.124M99.842 154.24c0-.861.69-1.561 1.544-1.561.862 0 1.552.692 1.56 1.553 0 .856-.69 1.554-1.552 1.554a1.545 1.545 0 0 1-1.552-1.545m.008 4.947a1.553 1.553 0 0 1 3.103-.007 1.546 1.546 0 0 1-1.543 1.561c-.862 0-1.56-.691-1.56-1.554m.015 4.957c0-.862.69-1.553 1.545-1.553a1.547 1.547 0 0 1 1.559 1.545c0 .855-.69 1.553-1.552 1.553a1.54 1.54 0 0 1-1.552-1.545m.016 4.956a1.549 1.549 0 1 1 3.096-.008 1.54 1.54 0 0 1-1.544 1.553 1.546 1.546 0 0 1-1.552-1.545M101.44 175.603a1.551 1.551 0 0 1-1.551-1.553c0-.412.163-.808.45-1.096.078-.078.154-.14.24-.194.086-.062.17-.11.271-.148a1.56 1.56 0 0 1 .893-.085c.101.016.194.047.295.085.093.038.179.086.263.148.087.054.163.116.233.194.296.288.459.684.459 1.096a1.526 1.526 0 0 1-.459 1.094c-.295.296-.683.46-1.093.46M116.409 165.395a1.542 1.542 0 0 1 .566-2.12 1.555 1.555 0 0 1 2.119.567 1.557 1.557 0 0 1-1.343 2.33 1.545 1.545 0 0 1-1.342-.777m-4.082 2.354a1.561 1.561 0 0 1 .567-2.12 1.548 1.548 0 0 1 2.118.574c.435.738.179 1.686-.566 2.122a1.54 1.54 0 0 1-2.12-.576m-4.073 2.362a1.545 1.545 0 0 1 .567-2.121 1.548 1.548 0 0 1 2.118.567 1.558 1.558 0 0 1-.566 2.12 1.55 1.55 0 0 1-2.12-.567m-4.08 2.355a1.563 1.563 0 0 1 .567-2.121 1.555 1.555 0 0 1 1.552 2.696c-.242.14-.513.202-.769.202a1.54 1.54 0 0 1-1.35-.777M121.825 163.81a1.55 1.55 0 0 1-1.288-.683 1.318 1.318 0 0 1-.148-.271 1.789 1.789 0 0 1-.085-.288c-.015-.1-.031-.201-.031-.303a1.594 1.594 0 0 1 .69-1.298c.086-.053.179-.1.272-.14a1.585 1.585 0 0 1 1.692.334c.287.297.45.692.45 1.104 0 .102-.008.203-.031.303a1.244 1.244 0 0 1-.086.288 1.79 1.79 0 0 1-.14.271c-.061.078-.123.163-.193.233a1.565 1.565 0 0 1-.504.335 1.563 1.563 0 0 1-.598.116M25.172 62.36a1.544 1.544 0 0 1-.566-2.121 1.553 1.553 0 0 1 2.118-.567c.736.427.992 1.375.566 2.12a1.549 1.549 0 0 1-2.118.567m4.026 2.339a1.567 1.567 0 0 1-.565-2.129 1.555 1.555 0 0 1 2.117-.567 1.546 1.546 0 0 1 .568 2.12 1.55 1.55 0 0 1-1.344.778c-.263 0-.526-.063-.776-.202m4.036 2.322a1.545 1.545 0 0 1-.567-2.12 1.551 1.551 0 0 1 2.685 1.554 1.547 1.547 0 0 1-2.118.566m4.027 2.33a1.557 1.557 0 0 1-.566-2.12 1.563 1.563 0 0 1 2.126-.567 1.552 1.552 0 1 1-1.56 2.688m4.035 2.33a1.55 1.55 0 0 1-.566-2.12 1.555 1.555 0 0 1 2.118-.568 1.546 1.546 0 0 1 .567 2.121 1.55 1.55 0 0 1-2.12.567"/>
        <path fill="#38D611" d="M180.65 128.187a1.559 1.559 0 0 1-1.544-1.57 1.55 1.55 0 0 1 1.56-1.538c.861 0 1.552.699 1.544 1.562a1.557 1.557 0 0 1-1.552 1.546h-.008zm-.023 4.66a1.555 1.555 0 0 1-1.545-1.57c0-.853.7-1.545 1.56-1.545a1.554 1.554 0 0 1 1.537 1.57c0 .853-.691 1.545-1.545 1.545h-.007zm-.03 4.661a1.56 1.56 0 0 1-1.546-1.57 1.55 1.55 0 0 1 1.56-1.537c.862 0 1.552.698 1.544 1.561 0 .854-.698 1.546-1.552 1.546h-.007zm-.032 4.653a1.54 1.54 0 0 1-1.537-1.562c0-.853.7-1.546 1.56-1.537.854 0 1.544.698 1.544 1.561a1.553 1.553 0 0 1-1.552 1.538h-.015zm-.024 4.67a1.565 1.565 0 0 1-1.544-1.57 1.564 1.564 0 0 1 1.56-1.547c.861.009 1.552.707 1.544 1.57a1.55 1.55 0 0 1-1.552 1.546h-.008zm-.023 4.66a1.554 1.554 0 0 1-1.544-1.57 1.54 1.54 0 0 1 1.56-1.537 1.552 1.552 0 0 1-.008 3.107h-.008zm-4.352 2.065a1.55 1.55 0 1 1 2.722-1.482c.412.753.14 1.7-.613 2.105a1.542 1.542 0 0 1-2.11-.623zm-4.09 2.238a1.562 1.562 0 0 1 .62-2.113 1.554 1.554 0 0 1 2.104.621 1.55 1.55 0 0 1-.622 2.106 1.495 1.495 0 0 1-.736.194c-.552 0-1.08-.296-1.367-.808zm-4.09 2.221a1.553 1.553 0 1 1 2.732-1.483 1.567 1.567 0 0 1-.621 2.113 1.556 1.556 0 0 1-2.11-.63zm-4.09 2.238a1.566 1.566 0 0 1 .622-2.113 1.564 1.564 0 0 1 2.111.621 1.56 1.56 0 0 1-.62 2.114 1.567 1.567 0 0 1-2.111-.622zm-4.08 2.229a1.56 1.56 0 0 1 .62-2.112 1.547 1.547 0 0 1 2.103.62 1.56 1.56 0 0 1-.62 2.113 1.553 1.553 0 0 1-2.103-.621zM83.283 188.7a1.562 1.562 0 0 1-.8-2.051 1.55 1.55 0 0 1 2.05-.792 1.553 1.553 0 1 1-1.25 2.843zm4.268 1.872a1.548 1.548 0 0 1-.8-2.05 1.55 1.55 0 0 1 2.041-.801c.784.35 1.141 1.266.8 2.05a1.552 1.552 0 0 1-1.42.933c-.21 0-.42-.046-.621-.132zm4.26 1.872a1.561 1.561 0 0 1-.8-2.05 1.561 1.561 0 0 1 2.05-.8c.783.35 1.14 1.265.79 2.05a1.542 1.542 0 0 1-2.04.8zm4.268 1.872a1.551 1.551 0 0 1-.8-2.05 1.55 1.55 0 0 1 2.041-.8 1.557 1.557 0 0 1-.62 2.982c-.21 0-.42-.046-.621-.132zm4.259 1.873a1.566 1.566 0 0 1-.799-2.052 1.56 1.56 0 0 1 2.049-.8c.784.35 1.14 1.267.8 2.051-.257.583-.831.933-1.429.933-.21 0-.419-.047-.621-.132zm1.087 4.474c-.854 0-1.552-.7-1.544-1.554a1.54 1.54 0 0 1 1.552-1.546c.853 0 1.552.692 1.552 1.554a1.556 1.556 0 0 1-1.552 1.546h-.008zm-.016 4.66a1.55 1.55 0 0 1-1.544-1.553c0-.855.699-1.554 1.56-1.554.853.008 1.544.7 1.544 1.562a1.55 1.55 0 0 1-1.552 1.546h-.008zm-.007 4.661c-.862 0-1.552-.699-1.552-1.553 0-.863.706-1.554 1.56-1.554a1.558 1.558 0 0 1 1.544 1.562 1.55 1.55 0 0 1-1.552 1.545zm-.016 4.661a1.55 1.55 0 0 1-1.544-1.553 1.54 1.54 0 0 1 1.552-1.546c.861 0 1.552.691 1.552 1.553a1.556 1.556 0 0 1-1.552 1.546h-.008zm-.008 4.661c-.86 0-1.551-.699-1.551-1.554 0-.854.705-1.553 1.56-1.553.853.008 1.551.699 1.543 1.561 0 .855-.69 1.546-1.552 1.546z"/>
        <path fill="#38D611" d="M154.072 169.84a1.555 1.555 0 0 1-1.097-2.652l12.035-12.05a1.55 1.55 0 0 1 2.194 0c.606.608.606 1.591 0 2.198l-12.035 12.049c-.303.304-.7.455-1.097.455"/>
        <path fill="#38D611" d="M166.107 169.84c-.398 0-.794-.151-1.098-.455l-12.035-12.05a1.555 1.555 0 0 1 0-2.196 1.55 1.55 0 0 1 2.195 0l12.035 12.049a1.555 1.555 0 0 1-1.097 2.652M75.595 192.283a1.555 1.555 0 0 1-1.097-2.652l12.035-12.049a1.55 1.55 0 0 1 2.195 0c.606.607.606 1.59 0 2.197l-12.036 12.048c-.303.304-.7.456-1.097.456"/>
        <path fill="#38D611" d="M87.63 192.283c-.397 0-.793-.152-1.097-.456L74.497 179.78a1.555 1.555 0 0 1 0-2.197 1.55 1.55 0 0 1 2.195 0l12.036 12.049a1.555 1.555 0 0 1-1.098 2.652"/>
        <path fill="#FA0171" d="M16.169 67.18a1.555 1.555 0 0 1-1.097-2.652l12.036-12.05a1.55 1.55 0 0 1 2.194 0c.606.607.606 1.59 0 2.197l-12.036 12.05c-.303.303-.7.455-1.097.455"/>
        <path fill="#FA0171" d="M28.205 67.18c-.398 0-.794-.152-1.098-.456L15.072 54.675a1.555 1.555 0 0 1 0-2.197 1.55 1.55 0 0 1 2.194 0l12.036 12.05a1.555 1.555 0 0 1-1.097 2.652M55.765 136.109a1.555 1.555 0 0 1-1.097-2.652l12.035-12.049a1.55 1.55 0 0 1 2.195 0c.606.607.606 1.59 0 2.197l-12.035 12.048c-.304.304-.7.456-1.098.456"/>
        <path fill="#FA0171" d="M67.8 136.109c-.397 0-.793-.152-1.097-.456l-12.035-12.048a1.555 1.555 0 0 1 0-2.197 1.55 1.55 0 0 1 2.194 0l12.036 12.049a1.555 1.555 0 0 1-1.098 2.652M115.81 170.543a1.555 1.555 0 0 1-1.097-2.652l12.034-12.048a1.55 1.55 0 0 1 2.195 0c.606.607.606 1.59 0 2.197l-12.035 12.048c-.304.304-.7.455-1.097.455"/>
        <path fill="#FA0171" d="M127.845 170.543c-.398 0-.794-.151-1.098-.455l-12.035-12.048a1.555 1.555 0 0 1 0-2.197 1.55 1.55 0 0 1 2.195 0l12.035 12.048a1.555 1.555 0 0 1-1.097 2.652"/>
        <g>
            <g transform="translate(161.399 82.569)">
                <mask id="k" fill="#fff">
                    <use xlink:href="#i"/>
                </mask>
                <path fill="url(#j)" d="M37.913 32.278V10.76L19.3.002.684 10.76v21.518l18.615 10.759z" mask="url(#k)" opacity=".7"/>
            </g>
            <g transform="translate(82.251 220.065)">
                <mask id="m" fill="#fff">
                    <use xlink:href="#l"/>
                </mask>
                <path fill="url(#j)" d="M37.925 32.482V10.964L19.31.204.695 10.964v21.518l18.615 10.76z" mask="url(#m)" opacity=".7"/>
            </g>
            <g transform="translate(42.678 60.041)">
                <mask id="p" fill="#fff">
                    <use xlink:href="#n"/>
                </mask>
                <path fill="url(#o)" fill-opacity=".7" d="M37.72 32.858V11.341L19.106.58.49 11.342v21.517l18.616 10.76z" mask="url(#p)"/>
            </g>
            <g transform="translate(81.475 105.096)">
                <mask id="r" fill="#fff">
                    <use xlink:href="#q"/>
                </mask>
                <path fill="url(#o)" fill-opacity=".7" d="M37.565 32.544V11.025L18.95.266.335 11.026v21.518L18.95 43.303z" mask="url(#r)"/>
            </g>
            <g transform="translate(213.388 182)">
                <mask id="t" fill="#fff">
                    <use xlink:href="#s"/>
                </mask>
                <path fill="url(#o)" fill-opacity=".7" d="M37.804 32.73V11.212L19.189.454.575 11.212V32.73l18.614 10.76z" mask="url(#t)"/>
            </g>
        </g>
        <g>
            <path fill="#38D611" d="M163.275 113.95l17.062 9.861 17.064-9.86V94.226l-17.064-9.862-17.062 9.862v19.725zm17.062 13.45l-20.166-11.656V92.433l20.166-11.657 20.167 11.657v23.311L180.337 127.4zM84.14 251.65l17.062 9.861 17.063-9.861v-19.725l-17.063-9.862-17.063 9.862v19.725zm17.062 13.45l-20.166-11.657v-23.311l20.166-11.657 20.167 11.657v23.311L101.202 265.1z"/>
            <path fill="#FA0171" d="M44.72 92.003l17.063 9.862 17.063-9.862V72.28l-17.063-9.862-17.063 9.862v19.724zm17.063 13.45L41.616 93.797V70.486l20.167-11.657L81.95 70.486v23.311l-20.167 11.656zM83.363 136.744l17.062 9.86 17.063-9.86v-19.726l-17.063-9.86-17.062 9.86v19.726zm17.062 13.449L80.26 138.537v-23.312l20.166-11.656 20.167 11.656v23.312l-20.167 11.656zM215.515 213.835l17.062 9.861 17.064-9.861V194.11l-17.064-9.862-17.062 9.862v19.725zm17.062 13.45l-20.166-11.657v-23.311l20.166-11.657 20.167 11.657v23.311l-20.167 11.656z"/>
        </g>
        <g>
            <path fill="#FA0171" d="M100.605 52.423c-3.525 0-6.393 2.871-6.393 6.401s2.868 6.401 6.393 6.401c3.526 0 6.394-2.871 6.394-6.4 0-3.53-2.868-6.402-6.394-6.402m0 13.579c-3.954 0-7.17-3.22-7.17-7.178 0-3.957 3.216-7.178 7.17-7.178 3.953 0 7.17 3.221 7.17 7.178 0 3.958-3.217 7.178-7.17 7.178M141.266 53.978c-3.526 0-6.394 2.87-6.394 6.4 0 3.53 2.868 6.401 6.394 6.401 3.526 0 6.394-2.87 6.394-6.4 0-3.53-2.868-6.401-6.394-6.401m0 13.578c-3.953 0-7.17-3.22-7.17-7.178 0-3.957 3.217-7.177 7.17-7.177 3.954 0 7.17 3.22 7.17 7.177 0 3.958-3.216 7.178-7.17 7.178"/>
            <path fill="#38D611" d="M239.491 63.098c-3.526 0-6.394 2.871-6.394 6.401s2.868 6.4 6.394 6.4c3.526 0 6.394-2.87 6.394-6.4 0-3.53-2.868-6.4-6.394-6.4m0 13.577c-3.953 0-7.17-3.219-7.17-7.177 0-3.957 3.217-7.178 7.17-7.178 3.954 0 7.17 3.221 7.17 7.178 0 3.958-3.216 7.177-7.17 7.177M199.652 156.531c-3.525 0-6.393 2.871-6.393 6.401s2.868 6.401 6.393 6.401c3.526 0 6.394-2.871 6.394-6.401s-2.868-6.4-6.394-6.4m0 13.578c-3.953 0-7.169-3.22-7.169-7.178 0-3.957 3.216-7.178 7.17-7.178 3.953 0 7.17 3.221 7.17 7.178 0 3.958-3.217 7.178-7.17 7.178"/>
            <path fill="#FA0171" d="M233.353 155.263c-3.526 0-6.394 2.872-6.394 6.401 0 3.53 2.868 6.401 6.394 6.401 3.526 0 6.394-2.87 6.394-6.4 0-3.53-2.868-6.402-6.394-6.402m0 13.58c-3.953 0-7.17-3.22-7.17-7.179 0-3.957 3.217-7.177 7.17-7.177 3.954 0 7.17 3.22 7.17 7.177 0 3.958-3.216 7.178-7.17 7.178"/>
        </g>
    </g>
</svg>
