<svg xmlns="http://www.w3.org/2000/svg" xmlns:xlink="http://www.w3.org/1999/xlink" width="68" height="90" viewBox="0 0 68 90">
    <defs>
        <path id="a" d="M0 .004h21.865v21.867H0z"/>
        <path id="c" d="M5.228.111c-.274.003-.55.025-.827.07C1.896.58.095 2.61.093 4.946v.014c0 .134.006.269.018.404C.336 7.84 2.527 9.75 5.172 9.796h5.358c1.816-.038 3.286-1.389 3.368-3.078v-.3c-.084-1.713-1.595-3.078-3.448-3.078h-.299C9.424 1.41 7.478.13 5.322.111h-.094z"/>
        <path id="e" d="M5.228.111c-.274.003-.55.025-.827.07C1.896.58.095 2.61.093 4.946v.014c0 .134.006.269.018.404C.336 7.84 2.527 9.75 5.172 9.796h5.358c1.816-.039 3.285-1.39 3.368-3.078v-.3c-.084-1.713-1.595-3.078-3.448-3.078h-.299C9.424 1.41 7.478.13 5.322.111h-.094z"/>
        <path id="g" d="M5.248.078c-.273.002-.549.026-.826.07C1.917.559.116 2.639.114 5.032v.014c0 .137.006.275.018.414.226 2.537 2.416 4.493 5.061 4.54h5.358c1.816-.04 3.286-1.423 3.368-3.153V6.54c-.084-1.755-1.595-3.153-3.448-3.153h-.299C9.445 1.409 7.498.097 5.343.078h-.095z"/>
        <path id="i" d="M5.248.078c-.273.002-.549.026-.826.07C1.917.559.116 2.639.114 5.032v.014c0 .137.006.275.018.414.226 2.537 2.416 4.493 5.061 4.54h5.358c1.816-.04 3.286-1.423 3.368-3.153v-.307c-.084-1.755-1.595-3.153-3.448-3.153h-.299C9.445 1.409 7.498.097 5.343.078h-.095z"/>
        <path id="k" d="M4.4.102C1.897.511.096 2.591.094 4.984v.014c0 .137.006.275.018.414.226 2.546 2.432 4.507 5.09 4.54h5.305c1.827-.027 3.31-1.415 3.392-3.152v-.308c-.084-1.755-1.595-3.153-3.448-3.153h-.299C9.418 1.348 7.45.031 5.274.031c-.288 0-.58.023-.873.071z"/>
        <path id="m" d="M4.4.102C1.897.511.096 2.591.094 4.984v.014c0 .137.006.275.018.414.226 2.546 2.432 4.507 5.09 4.54h5.305c1.827-.027 3.31-1.415 3.392-3.152v-.308c-.084-1.755-1.595-3.153-3.448-3.153h-.299C9.418 1.348 7.45.031 5.274.031c-.288 0-.58.023-.873.071z"/>
    </defs>
    <g fill="none" fill-rule="evenodd">
        <g transform="translate(0 4)">
            <mask id="b" fill="#fff">
                <use xlink:href="#a"/>
            </mask>
            <path fill="#00152B" d="M12.251 12.358c1.67 3.184 3.32 6.336 4.986 9.513.55-.55 1.066-1.078 1.596-1.589.163-.156.21-.295.156-.522-.87-3.738-1.73-7.479-2.599-11.217-.05-.217-.007-.348.148-.501 1.353-1.34 2.696-2.689 4.043-4.035.279-.28.564-.55.828-.842.726-.8.56-2.19-.323-2.8-.809-.56-1.83-.463-2.545.25a1082.814 1082.814 0 0 0-4.676 4.683c-.179.18-.334.232-.588.173C9.541 4.599 5.8 3.74 2.062 2.87c-.19-.044-.306-.003-.436.132-.384.4-.78.786-1.172 1.178L0 4.634l9.512 4.984c-.055.066-.079.102-.107.13-1.583 1.585-3.165 3.17-4.755 4.746-.07.07-.225.1-.332.086-.922-.122-1.842-.261-2.765-.383-.092-.013-.225.011-.287.07-.429.415-.843.842-1.262 1.265l.071.072c.366.192.736.378 1.1.578.906.5 1.81 1.001 2.713 1.51.098.055.204.13.257.224.703 1.253 1.396 2.51 2.092 3.767.018.034.02.075.03.113l.072.071c.423-.419.85-.833 1.264-1.262.06-.062.084-.195.072-.287a150.32 150.32 0 0 0-.389-2.74.429.429 0 0 1 .137-.419c1.54-1.53 3.074-3.068 4.611-4.604.062-.06.128-.116.217-.197" mask="url(#b)"/>
        </g>
        <g transform="translate(30 6)">
            <mask id="d" fill="#fff">
                <use xlink:href="#c"/>
            </mask>
            <path fill="#00152B" d="M-2.783 12.487h19.56V-2.58h-19.56z" mask="url(#d)"/>
        </g>
        <g transform="translate(30 6)">
            <mask id="f" fill="#fff">
                <use xlink:href="#e"/>
            </mask>
            <path fill="#00152B" d="M-2.783 14.1h19.557V-4.192H-2.783z" mask="url(#f)"/>
        </g>
        <g transform="translate(54 22)">
            <mask id="h" fill="#fff">
                <use xlink:href="#g"/>
            </mask>
            <path fill="#00152B" d="M-2.762 12.756h19.561V-2.678H-2.762z" mask="url(#h)"/>
        </g>
        <g transform="translate(54 22)">
            <mask id="j" fill="#fff">
                <use xlink:href="#i"/>
            </mask>
            <path fill="#00152B" d="M-2.762 14.408h19.557v-18.74H-2.762z" mask="url(#j)"/>
        </g>
        <g transform="translate(50)">
            <mask id="l" fill="#fff">
                <use xlink:href="#k"/>
            </mask>
            <path fill="#00152B" d="M-2.783 12.709h19.56V-2.725h-19.56z" mask="url(#l)"/>
        </g>
        <g transform="translate(50)">
            <mask id="n" fill="#fff">
                <use xlink:href="#m"/>
            </mask>
            <path fill="#00152B" d="M-2.783 14.362h19.557v-18.74H-2.783z" mask="url(#n)"/>
        </g>
        <g fill="#00152B">
            <path d="M15.826 43.768h3.487v-5.81h-3.487v5.81zm0 7.832h3.487v-5.81h-3.487v5.81zm0 7.832h3.487v-5.81h-3.487v5.81zm0 8.084h3.487v-5.558h-3.487v5.558zm0 7.579h3.487v-5.558h-3.487v5.558zM9.103 43.768h3.486v-5.81H9.103v5.81zm0 7.832h3.486v-5.81H9.103v5.81zm0 7.832h3.486v-5.81H9.103v5.81zm0 8.084h3.486v-5.558H9.103v5.558zm0 7.579h3.486v-5.558H9.103v5.558zM4.122 36.442v53.053h20.171V29.368L4.122 36.442zM38.986 33.916h4.482v-7.074h-4.482v7.074zm0 9.6h4.482v-7.074h-4.482v7.074zm0 9.852h4.482v-7.073h-4.482v7.073zm0 9.853h4.482v-7.074h-4.482v7.074zm0 9.347h4.482v-7.073h-4.482v7.073zm-8.218-38.652h4.482v-7.074h-4.482v7.074zm0 9.6h4.482v-7.074h-4.482v7.074zm0 9.852h4.482v-7.073h-4.482v7.073zm0 9.853h4.482v-7.074h-4.482v7.074zm0 9.347h4.482v-7.073h-4.482v7.073zM26.036 18v72h21.915V25.074L26.036 18zM60.153 55.39h4.234v-4.548h-4.234v4.547zm0 6.568h4.234v-4.295h-4.234v4.295zm0 6.82h4.234v-4.546h-4.234v4.547zm0 6.317h4.234V70.8h-4.234v4.295zM53.18 55.389h4.234v-4.547H53.18v4.547zm0 6.569h4.234v-4.295H53.18v4.295zm0 6.82h4.234v-4.546H53.18v4.547zm0 6.317h4.234V70.8H53.18v4.295zm12.7-27.79v-1.768H63.89V44.02h-10.46v1.516h-1.992v1.768h-1.743V90h18.179V47.305h-1.992z"/>
        </g>
    </g>
</svg>
