<?xml version="1.0" encoding="UTF-8"?>
<svg width="107px" height="122px" viewBox="0 0 107 122" version="1.1" xmlns="http://www.w3.org/2000/svg" xmlns:xlink="http://www.w3.org/1999/xlink">
    <!-- Generator: Sketch 53.2 (72643) - https://sketchapp.com -->
    <title>aviation</title>
    <desc>Created with Sketch.</desc>
    <defs>
        <circle id="path-1" cx="27" cy="27" r="27"></circle>
        <filter x="-66.7%" y="-57.4%" width="251.9%" height="251.9%" filterUnits="objectBoundingBox" id="filter-2">
            <feOffset dx="5" dy="10" in="SourceAlpha" result="shadowOffsetOuter1"></feOffset>
            <feGaussianBlur stdDeviation="12" in="shadowOffsetOuter1" result="shadowBlurOuter1"></feGaussianBlur>
            <feColorMatrix values="0 0 0 0 0   0 0 0 0 0   0 0 0 0 0  0 0 0 0.35 0" type="matrix" in="shadowBlurOuter1"></feColorMatrix>
        </filter>
        <path d="M24.4616143,2.17402759 C22.5480857,4.03386207 20.6345571,5.89506207 18.7337571,7.76718621 L18.7337571,7.76718621 C18.5131286,7.98293793 18.3250286,8.04438621 18.0138857,7.97337931 L18.0138857,7.97337931 C13.4344286,6.93148966 8.85214286,5.90871724 4.27268571,4.8681931 L4.27268571,4.8681931 C4.0365,4.81493793 3.89648571,4.86273103 3.73667143,5.02522759 L3.73667143,5.02522759 C3.26854286,5.50315862 2.78061429,5.96333793 2.30258571,6.43307586 L2.30258571,6.43307586 C2.12438571,6.60513103 1.94618571,6.77855172 1.74394286,6.97518621 L1.74394286,6.97518621 C5.65585714,8.97157241 9.51827143,10.9474759 13.3976571,12.9274759 L13.3976571,12.9274759 C13.3311857,13.0080414 13.3043143,13.0503724 13.2675429,13.0858759 L13.2675429,13.0858759 C11.3271429,14.9757517 9.39098571,16.8710897 7.4421,18.7527724 L7.4421,18.7527724 C7.35441429,18.836069 7.16914286,18.8702069 7.0362,18.8565517 L7.0362,18.8565517 C5.90477143,18.7104414 4.77758571,18.5438483 3.64898571,18.3963724 L3.64898571,18.3963724 C3.53442857,18.3827172 3.37461429,18.4100276 3.29541429,18.485131 L3.29541429,18.485131 C2.77071429,18.9780828 2.2644,19.4874207 1.75101429,19.9940276 L1.75101429,19.9940276 C1.78071429,20.0213379 1.80758571,20.0500138 1.83728571,20.0786897 L1.83728571,20.0786897 C2.28702857,20.3094621 2.73818571,20.5306759 3.18368571,20.7696414 L3.18368571,20.7696414 C4.29531429,21.3650069 5.4027,21.964469 6.50867143,22.5734897 L6.50867143,22.5734897 C6.6303,22.637669 6.76041429,22.7277931 6.82405714,22.841131 L6.82405714,22.841131 C7.68394286,24.3350069 8.53534286,25.8384414 9.38532857,27.3391448 L9.38532857,27.3391448 C9.40795714,27.3787448 9.41361429,27.4306345 9.42492857,27.474331 L9.42492857,27.474331 C9.45462857,27.5057379 9.4815,27.5316828 9.5112,27.5589931 L9.5112,27.5589931 C10.0302429,27.0605793 10.5521143,26.5648966 11.0598429,26.0528276 L11.0598429,26.0528276 C11.1348,25.9777241 11.1645,25.8206897 11.1489429,25.7100828 L11.1489429,25.7100828 C11.0004429,24.6190345 10.8420429,23.5279862 10.6723286,22.4383034 L10.6723286,22.4383034 C10.6398,22.2280138 10.6836429,22.088731 10.8392143,21.9385241 L10.8392143,21.9385241 C12.7258714,20.1073655 14.6068714,18.2693793 16.4892857,16.4368552 L16.4892857,16.4368552 C16.5642429,16.3631172 16.6476857,16.2975724 16.7565857,16.2019862 L16.7565857,16.2019862 C18.8002286,20.0035862 20.8240714,23.7683172 22.8634714,27.5658207 L22.8634714,27.5658207 C23.5395,26.9076414 24.1702714,26.2767724 24.8180143,25.6677517 L24.8180143,25.6677517 C25.0188429,25.4793103 25.0754143,25.3140828 25.0117714,25.0437103 L25.0117714,25.0437103 C23.9454,20.5771034 22.8931714,16.1118621 21.8268,11.6466207 L21.8268,11.6466207 C21.7645714,11.3844414 21.8169,11.2301379 22.0078286,11.0457931 L22.0078286,11.0457931 C23.6653714,9.4454069 25.3116,7.83409655 26.9606571,6.22688276 L26.9606571,6.22688276 C27.3015,5.89233103 27.6522429,5.56733793 27.9761143,5.21913103 L27.9761143,5.21913103 C28.8657,4.26326897 28.6620429,2.60553103 27.5787,1.87224828 L27.5787,1.87224828 C27.153,1.58412414 26.6763857,1.44347586 26.2011857,1.44347586 L26.2011857,1.44347586 C25.5774857,1.44347586 24.9580286,1.68926897 24.4616143,2.17402759 L24.4616143,2.17402759 Z" id="path-3"></path>
    </defs>
    <g id="SeMI-Website" stroke="none" stroke-width="1" fill="none" fill-rule="evenodd">
        <g id="Styleguide-–-SeMI-Graphics" transform="translate(-668.000000, -4895.000000)">
            <g id="graphics/industries/dark-background/transportation" transform="translate(669.000000, 4897.000000)">
                <g id="Group">
                    <polygon id="Shape" fill="#BCF0A7" fill-rule="nonzero" opacity="0.7" points="50.9896468 0 0 29.6318997 0 89 51 58.9300363"></polygon>
                    <polygon id="Shape" fill="#BCF0A7" fill-rule="nonzero" opacity="0.7" points="51.0103532 0 102 29.6318997 102 89 51 58.9300363"></polygon>
                    <polygon id="Shape" fill="#BCF0A7" fill-rule="nonzero" opacity="0.7" points="101 88.1726845 50.9187982 58 1 88.2040816 50.9187982 118"></polygon>
                    <path d="M0.58,28.36 L1.44,28.87" id="Shape" stroke="#FFFFFF"></path>
                    <path d="M3.13,30.88 L49.62,58.6" id="Shape" stroke="#FFFFFF" stroke-dasharray="1.97"></path>
                    <polyline id="Shape" stroke="#FFFFFF" points="50.46 58.1 51.32 58.62 52.18 58.1"></polyline>
                    <path d="M53.87,58.1 L100.35,30.37" id="Shape" stroke="#FFFFFF" stroke-dasharray="1.97"></path>
                    <path d="M51,115 L51,114" id="Shape" stroke="#FFFFFF"></path>
                    <path d="M51,112.53 L51,63" id="Shape" stroke="#FFFFFF" stroke-dasharray="1.94"></path>
                    <path d="M51.32,62.15 L51.32,61.15" id="Shape" stroke="#FFFFFF"></path>
                    <polygon id="Shape" stroke="#F7F7F7" stroke-width="4" points="101 88.0024998 101 29.9975002 51.0049766 1 1 29.9975002 1 88.0024998 51.0049766 117"></polygon>
                </g>
                <g id="Group-2" transform="translate(24.000000, 32.000000)">
                    <g id="Oval" fill-rule="nonzero">
                        <use fill="black" fill-opacity="1" filter="url(#filter-2)" xlink:href="#path-1"></use>
                        <use fill="#00152B" xlink:href="#path-1"></use>
                    </g>
                    <g id="icons/industries/aviation" transform="translate(12.000000, 12.000000)">
                        <mask id="mask-4" fill="white">
                            <use xlink:href="#path-3"></use>
                        </mask>
                        <g id="Clip-2"></g>
                        <g id="background/white" mask="url(#mask-4)" fill="#FFFFFF" fill-rule="evenodd">
                            <g transform="translate(15.428571, 14.896552) rotate(-360.000000) translate(-15.428571, -14.896552) translate(1.285714, 1.241379)" id="Combined-Shape">
                                <polygon points="0 0 28 0 28 26.8137931 0 26.8137931"></polygon>
                            </g>
                        </g>
                    </g>
                    <circle id="Oval" stroke="#FFFFFF" stroke-width="2.4" cx="27" cy="27" r="27"></circle>
                </g>
            </g>
        </g>
    </g>
</svg>