<?xml version="1.0" encoding="UTF-8"?>
<svg width="107px" height="122px" viewBox="0 0 107 122" version="1.1" xmlns="http://www.w3.org/2000/svg" xmlns:xlink="http://www.w3.org/1999/xlink">
    <!-- Generator: Sketch 53.2 (72643) - https://sketchapp.com -->
    <title>aviation-light-bg</title>
    <desc>Created with Sketch.</desc>
    <defs>
        <circle id="path-1" cx="27" cy="27" r="27"></circle>
        <filter x="-66.7%" y="-57.4%" width="251.9%" height="251.9%" filterUnits="objectBoundingBox" id="filter-2">
            <feOffset dx="5" dy="10" in="SourceAlpha" result="shadowOffsetOuter1"></feOffset>
            <feGaussianBlur stdDeviation="12" in="shadowOffsetOuter1" result="shadowBlurOuter1"></feGaussianBlur>
            <feColorMatrix values="0 0 0 0 0   0 0 0 0 0   0 0 0 0 0  0 0 0 0.35 0" type="matrix" in="shadowBlurOuter1"></feColorMatrix>
        </filter>
        <path d="M24.8693079,2.21026138 C22.9238871,4.1010931 20.9784664,5.9933131 19.0459864,7.89663931 L19.0459864,7.89663931 C18.8216807,8.1159869 18.6304457,8.17845931 18.3141171,8.10626897 L18.3141171,8.10626897 C13.6583357,7.04701448 8.99967857,6.00719586 4.34389714,4.94932966 L4.34389714,4.94932966 C4.103775,4.8951869 3.96142714,4.94377655 3.79894929,5.10898138 L3.79894929,5.10898138 C3.32301857,5.59487793 2.82695786,6.0627269 2.34096214,6.54029379 L2.34096214,6.54029379 C2.15979214,6.71521655 1.97862214,6.89152759 1.77300857,7.09143931 L1.77300857,7.09143931 C5.75012143,9.12109862 9.67690929,11.1299338 13.6209514,13.1429338 L13.6209514,13.1429338 C13.5533721,13.2248421 13.5260529,13.2678786 13.4886686,13.3039738 L13.4886686,13.3039738 C11.5159286,15.2253476 9.54750214,17.1522745 7.566135,19.0653186 L7.566135,19.0653186 C7.47698786,19.1500034 7.28862857,19.1847103 7.15347,19.1708276 L7.15347,19.1708276 C6.00318429,19.0222821 4.85721214,18.8529124 3.70980214,18.7029786 L3.70980214,18.7029786 C3.59333571,18.6890959 3.43085786,18.7168614 3.35033786,18.7932166 L3.35033786,18.7932166 C2.81689286,19.2943841 2.30214,19.812211 1.78019786,20.3272614 L1.78019786,20.3272614 C1.81039286,20.3550269 1.83771214,20.3841807 1.86790714,20.4133345 L1.86790714,20.4133345 C2.32514571,20.6479531 2.78382214,20.8728538 3.23674714,21.1158021 L3.23674714,21.1158021 C4.36690286,21.7210903 5.492745,22.3305434 6.61714929,22.9497145 L6.61714929,22.9497145 C6.740805,23.0149634 6.87308786,23.1065897 6.93779143,23.2218166 L6.93779143,23.2218166 C7.81200857,24.7405903 8.67759857,26.2690821 9.54175071,27.7947972 L9.54175071,27.7947972 C9.56475643,27.8350572 9.57050786,27.8878117 9.58201071,27.9322366 L9.58201071,27.9322366 C9.61220571,27.9641669 9.639525,27.9905441 9.66972,28.0183097 L9.66972,28.0183097 C10.1974136,27.511589 10.7279829,27.0076448 11.2441736,26.4870414 L11.2441736,26.4870414 C11.32038,26.4106862 11.350575,26.2510345 11.3347586,26.1385841 L11.3347586,26.1385841 C11.1837836,25.0293517 11.0227436,23.9201193 10.8502007,22.8122752 L10.8502007,22.8122752 C10.81713,22.5984807 10.8617036,22.4568766 11.0198679,22.3041662 L11.0198679,22.3041662 C12.9379693,20.4424883 14.8503193,18.573869 16.7641071,16.7108028 L16.7641071,16.7108028 C16.8403136,16.6358359 16.9251471,16.5691986 17.0358621,16.4720193 L17.0358621,16.4720193 C19.1135657,20.3369793 21.1711393,24.1644559 23.2445293,28.025251 L23.2445293,28.025251 C23.931825,27.3561021 24.5731093,26.7147186 25.2316479,26.0955476 L25.2316479,26.0955476 C25.4358236,25.9039655 25.4933379,25.7359841 25.4286343,25.4611055 L25.4286343,25.4611055 C24.34449,20.9200552 23.2747243,16.3803931 22.19058,11.840731 L22.19058,11.840731 C22.1273143,11.5741821 22.180515,11.4173069 22.3746257,11.2298897 L22.3746257,11.2298897 C24.0597943,9.60283034 25.73346,7.96466483 27.4100014,6.33066414 L27.4100014,6.33066414 C27.756525,5.99053655 28.1131136,5.6601269 28.4423829,5.30611655 L28.4423829,5.30611655 C29.346795,4.33432345 29.1397436,2.64895655 28.038345,1.90345241 L28.038345,1.90345241 C27.60555,1.61052621 27.1209921,1.46753379 26.6378721,1.46753379 L26.6378721,1.46753379 C26.0037771,1.46753379 25.3739957,1.71742345 24.8693079,2.21026138 L24.8693079,2.21026138 Z" id="path-3"></path>
    </defs>
    <g id="SeMI-Website" stroke="none" stroke-width="1" fill="none" fill-rule="evenodd">
        <g id="Styleguide-–-SeMI-Graphics" transform="translate(-667.000000, -5082.000000)">
            <g id="graphics/industries/white-background/transportation" transform="translate(668.000000, 5084.000000)">
                <g id="Group">
                    <polygon id="Shape" fill="#BCF0A7" fill-rule="nonzero" style="mix-blend-mode: multiply;" opacity="0.7" points="50.9896468 0 0 29.6318997 0 89 51 58.9300363"></polygon>
                    <polygon id="Shape" fill="#BCF0A7" fill-rule="nonzero" style="mix-blend-mode: multiply;" opacity="0.7" points="51.0103532 0 102 29.6318997 102 89 51 58.9300363"></polygon>
                    <polygon id="Shape" fill="#BCF0A7" fill-rule="nonzero" opacity="0.7" points="101 88.1726845 50.9187982 58 1 88.2040816 50.9187982 118"></polygon>
                    <path d="M0.58,28.36 L1.44,28.87" id="Shape" stroke="#FFFFFF"></path>
                    <path d="M3.13,30.88 L49.62,58.6" id="Shape" stroke="#FFFFFF" stroke-dasharray="1.97"></path>
                    <polyline id="Shape" stroke="#FFFFFF" points="50.46 58.1 51.32 58.62 52.18 58.1"></polyline>
                    <path d="M53.87,58.1 L100.35,30.37" id="Shape" stroke="#FFFFFF" stroke-dasharray="1.97"></path>
                    <path d="M51,115 L51,114" id="Shape" stroke="#FFFFFF"></path>
                    <path d="M51,112.53 L51,63" id="Shape" stroke="#FFFFFF" stroke-dasharray="1.94"></path>
                    <path d="M51.32,62.15 L51.32,61.15" id="Shape" stroke="#FFFFFF"></path>
                    <polygon id="Shape" stroke="#00152B" stroke-width="4" points="101 88.0024998 101 29.9975002 51.0049766 1 1 29.9975002 1 88.0024998 51.0049766 117"></polygon>
                </g>
                <g id="Group-2" transform="translate(24.000000, 32.000000)">
                    <g id="Oval" fill-rule="nonzero">
                        <use fill="black" fill-opacity="1" filter="url(#filter-2)" xlink:href="#path-1"></use>
                        <use fill="#00152B" xlink:href="#path-1"></use>
                    </g>
                    <g id="icons/industries/aviation" transform="translate(12.000000, 12.000000)">
                        <mask id="mask-4" fill="white">
                            <use xlink:href="#path-3"></use>
                        </mask>
                        <g id="Clip-2"></g>
                        <g id="background/white" mask="url(#mask-4)" fill="#FFFFFF" fill-rule="evenodd">
                            <g transform="translate(15.685714, 15.144828) rotate(-360.000000) translate(-15.685714, -15.144828) translate(1.307143, 1.262069)" id="Combined-Shape">
                                <polygon points="0 0 29.0794521 0 29.0794521 28.2703448 0 28.2703448"></polygon>
                            </g>
                        </g>
                    </g>
                    <circle id="Oval" stroke="#FFFFFF" stroke-width="2.44" cx="27" cy="27" r="27"></circle>
                </g>
            </g>
        </g>
    </g>
</svg>