<svg xmlns="http://www.w3.org/2000/svg" viewBox="0 0 604.44 587.02"><defs><style>.cls-1{opacity:0.5;}.cls-2,.cls-4{fill:none;}.cls-2{stroke:#b3b3b3;stroke-width:0.86px;}.cls-2,.cls-4,.cls-5{stroke-miterlimit:10;}.cls-3{fill:gray;}.cls-4,.cls-5{stroke:#364a68;}.cls-4{stroke-width:3px;stroke-dasharray:4 4;}.cls-5,.cls-8{fill:#38d611;}.cls-5{stroke-width:2px;}.cls-6,.cls-7{fill:#364a68;}.cls-7{stroke:#38d611;stroke-linejoin:round;stroke-width:5px;}</style></defs><title>money</title><g id="Layer_2" data-name="Layer 2"><g id="we_logo" data-name="we logo"><g class="cls-1"><polyline class="cls-2" points="231.78 204.04 187.71 229.48 187.71 280.36 231.78 305.8 275.84 280.36 275.84 229.48"/><polyline class="cls-2" points="187.71 229.48 231.78 254.92 231.78 305.83 231.78 357.28"/><polyline class="cls-2" points="275.84 229.48 231.78 254.92 187.71 280.36"/><polyline class="cls-2" points="231.78 254.92 275.84 280.36 306.12 298.76 320.2 307.32 320.2 306.17 320.2 254.72 320.2 203.81 364.27 178.36"/><line class="cls-2" x1="99.58" y1="280.38" x2="55.51" y2="254.94"/><polyline class="cls-2" points="99.58 229.48 143.64 254.92 143.64 305.83 99.58 332.49 143.64 358.44 187.71 332.78"/><polyline class="cls-2" points="187.71 229.48 143.64 254.92 99.58 280.36"/><polyline class="cls-2" points="231.78 204.04 187.71 178.6 187.71 127.72 187.71 94.53 217.91 76.8"/><line class="cls-2" x1="247.03" y1="111.12" x2="275.84" y2="129.26"/><line class="cls-2" x1="55.51" y1="357.28" x2="11.45" y2="332.78"/><polygon class="cls-2" points="569.84 400.2 569.84 349.32 525.78 323.88 481.71 349.32 481.71 400.2 525.78 425.64 569.84 400.2"/><polyline class="cls-2" points="569.84 349.32 525.78 374.76 481.71 400.2"/><polyline class="cls-2" points="320.2 152.92 364.27 178.36 364.27 229.25 320.2 254.69 276.14 229.25 276.14 178.36"/><polyline class="cls-2" points="276.14 178.36 320.2 203.81 364.27 229.25"/><line class="cls-2" x1="320.2" y1="203.8" x2="276.14" y2="229.25"/><polygon class="cls-2" points="320.2 152.92 320.2 102.04 364.27 76.6 408.33 102.04 408.33 152.92 364.27 178.36 320.2 152.92"/><polyline class="cls-2" points="408.04 152.92 363.97 127.48 319.9 102.04 275.84 78.15 275.84 129.21"/><polyline class="cls-2" points="452.4 229.26 452.4 178.38 496.46 152.94 540.53 178.38 540.53 229.26 496.46 254.7"/><polyline class="cls-2" points="540.53 145.46 570.01 161.89 540.53 178.38 496.46 203.82 496.46 254.73"/><polyline class="cls-2" points="452.4 178.38 496.46 203.82 540.53 229.26 540.53 281.66 584.86 306.17 584.86 256.01"/><line class="cls-2" x1="452.4" y1="229.26" x2="496.47" y2="203.82"/><polygon class="cls-2" points="364.27 229.25 364.27 178.36 408.33 152.92 452.4 178.36 452.4 229.25 408.33 254.69 364.27 229.25"/><polyline class="cls-2" points="452.4 178.36 408.33 203.81 408.33 254.72 452.4 281.38 408.33 307.32 364.1 281.57"/><polyline class="cls-2" points="364.27 178.36 408.33 203.81 452.4 229.25"/><polyline class="cls-2" points="320.2 152.92 364.27 127.48 364.27 76.6 364.27 43.41 334.07 25.68"/><line class="cls-2" x1="304.65" y1="60.01" x2="275.84" y2="78.15"/><polygon class="cls-2" points="275.97 434.97 275.97 485.85 231.91 511.29 187.84 485.85 187.84 434.97 231.91 409.52 275.97 434.97"/><polyline class="cls-2" points="231.91 409.49 231.91 460.41 187.84 485.85 143.78 511.29 143.78 544.49"/><polyline class="cls-2" points="275.97 485.85 231.91 460.41 187.84 434.97"/><line class="cls-2" x1="275.97" y1="434.97" x2="231.91" y2="460.41"/><polyline class="cls-2" points="364.1 434.98 320.04 409.54 320.04 358.66 364.1 333.22 408.17 358.66 408.17 409.54"/><polyline class="cls-2" points="320.04 409.54 364.1 384.1 364.1 333.19 364.1 281.57"/><polyline class="cls-2" points="408.17 409.54 364.1 384.1 320.04 358.66"/><polyline class="cls-2" points="364.1 384.1 408.17 358.66 438.45 340.26"/><polygon class="cls-2" points="364.1 434.98 364.1 485.86 320.04 511.31 275.97 485.86 275.97 434.98 320.04 409.54 364.1 434.98"/><polyline class="cls-2" points="275.97 434.98 320.04 460.42 364.1 485.86 397.17 503.79 437.65 526.13"/><polyline class="cls-2" points="231.91 358.64 231.91 409.52 187.84 434.97 143.78 409.52 143.78 358.64"/><polyline class="cls-2" points="143.78 442.45 114.29 426.01 143.78 409.52 187.84 384.08 187.84 333.17"/><line class="cls-2" x1="231.91" y1="358.64" x2="187.84" y2="384.08"/><polygon class="cls-2" points="320.04 358.66 320.04 409.54 275.97 434.98 231.91 409.54 231.91 358.66 275.97 333.22 320.04 358.66"/><polyline class="cls-2" points="231.91 409.54 275.97 384.1 275.97 333.19 231.91 306.53"/><polyline class="cls-2" points="320.04 409.54 275.97 384.1 231.91 358.66"/><line class="cls-2" x1="114.29" y1="494.33" x2="143.78" y2="511.29"/><line class="cls-2" x1="114.29" y1="392.72" x2="114.29" y2="426.02"/><polyline class="cls-2" points="275.97 587.02 275.97 536.28 231.91 511.29 231.91 562.51"/><polyline class="cls-2" points="364.1 434.98 320.04 460.42 320.04 511.31 320.04 544.49 350.24 562.22"/><line class="cls-2" x1="481.71" y1="349.32" x2="569.84" y2="400.2"/><circle class="cls-3" cx="187.72" cy="178.36" r="4.23"/><circle class="cls-3" cx="99.6" cy="229.53" r="4.23"/><circle class="cls-3" cx="99.58" cy="280.69" r="4.23"/><circle class="cls-3" cx="55.01" cy="254.97" r="4.23"/><circle class="cls-3" cx="11.45" cy="332.78" r="4.23"/><circle class="cls-3" cx="54.11" cy="356.64" r="4.23"/><circle class="cls-3" cx="143.64" cy="254.97" r="4.23"/><circle class="cls-3" cx="143.78" cy="305.8" r="4.23"/><circle class="cls-3" cx="187.71" cy="280.69" r="4.23"/><circle class="cls-3" cx="99.6" cy="332.78" r="4.23"/><circle class="cls-3" cx="187.72" cy="128.34" r="4.23"/><circle class="cls-3" cx="187.86" cy="94.53" r="4.23"/><circle class="cls-3" cx="217.73" cy="76.8" r="4.23"/><circle class="cls-3" cx="231.76" cy="153.78" r="4.23"/><circle class="cls-3" cx="247.03" cy="111.3" r="4.23"/><circle class="cls-3" cx="275.84" cy="129.26" r="4.23"/><circle class="cls-3" cx="275.84" cy="78.15" r="4.23"/><circle class="cls-3" cx="304.65" cy="60.01" r="4.23"/><circle class="cls-3" cx="320.2" cy="102.06" r="4.23"/><circle class="cls-3" cx="320.2" cy="153.17" r="4.23"/><circle class="cls-3" cx="408.04" cy="152.92" r="4.23"/><circle class="cls-3" cx="364.1" cy="128.57" r="4.23"/><circle class="cls-3" cx="364.27" cy="178.36" r="4.23"/><circle class="cls-3" cx="364.42" cy="228.97" r="4.23"/><circle class="cls-3" cx="452.25" cy="228.72" r="4.23"/><circle class="cls-3" cx="496.47" cy="203.82" r="4.23"/><circle class="cls-3" cx="496.47" cy="254.92" r="4.23"/><circle class="cls-3" cx="452.25" cy="281.57" r="4.23"/><circle class="cls-3" cx="409.4" cy="306.53" r="4.23"/><circle class="cls-3" cx="364.42" cy="282.74" r="4.23"/><circle class="cls-3" cx="364.1" cy="333.22" r="4.23"/><circle class="cls-3" cx="408.17" cy="358.66" r="4.23"/><circle class="cls-3" cx="320.2" cy="359.41" r="4.23"/><circle class="cls-3" cx="437.65" cy="340.26" r="4.23"/><circle class="cls-3" cx="540.53" cy="228.97" r="4.23"/><circle class="cls-3" cx="584.86" cy="256.96" r="4.23"/><circle class="cls-3" cx="584.86" cy="305.8" r="4.23"/><circle class="cls-3" cx="540.53" cy="281.57" r="4.23"/><circle class="cls-3" cx="408.32" cy="204.37" r="4.23"/><circle class="cls-3" cx="408.48" cy="254.16" r="4.23"/><circle class="cls-3" cx="408.33" cy="102.59" r="4.23"/><circle class="cls-3" cx="364.27" cy="76.8" r="4.23"/><circle class="cls-3" cx="495.25" cy="152.82" r="4.23"/><circle class="cls-3" cx="452.4" cy="178.26" r="4.23"/><circle class="cls-3" cx="525.64" cy="375.29" r="4.23"/><circle class="cls-3" cx="569.85" cy="350.4" r="4.23"/><circle class="cls-3" cx="569.85" cy="399.77" r="4.23"/><circle class="cls-3" cx="525.64" cy="424.68" r="4.23"/><circle class="cls-3" cx="481.7" cy="350.94" r="4.23"/><circle class="cls-3" cx="481.87" cy="400.73" r="4.23"/><circle class="cls-3" cx="364.1" cy="384.08" r="4.23"/><circle class="cls-3" cx="320.2" cy="409.15" r="4.23"/><circle class="cls-3" cx="408.17" cy="409.54" r="4.23"/><circle class="cls-3" cx="364.2" cy="434.91" r="4.23"/><circle class="cls-3" cx="320.14" cy="459.78" r="4.23"/><circle class="cls-3" cx="364.2" cy="485.63" r="4.23"/><circle class="cls-3" cx="320.14" cy="510.9" r="4.23"/><circle class="cls-3" cx="320.14" cy="544.49" r="4.23"/><circle class="cls-3" cx="275.97" cy="536.03" r="4.23"/><circle class="cls-3" cx="231.91" cy="562.22" r="4.23"/><circle class="cls-3" cx="231.91" cy="510.9" r="4.23"/><circle class="cls-3" cx="187.71" cy="485.63" r="4.23"/><circle class="cls-3" cx="143.78" cy="510.9" r="4.23"/><circle class="cls-3" cx="143.64" cy="544.49" r="4.23"/><circle class="cls-3" cx="114.29" cy="494.33" r="4.23"/><circle class="cls-3" cx="350.41" cy="562.22" r="4.23"/><circle class="cls-3" cx="276.21" cy="437.16" r="4.23"/><circle class="cls-3" cx="231.76" cy="460.42" r="4.23"/><circle class="cls-3" cx="187.84" cy="434.91" r="4.23"/><circle class="cls-3" cx="231.91" cy="409.54" r="4.23"/><circle class="cls-3" cx="275.84" cy="384.08" r="4.23"/><circle class="cls-3" cx="275.84" cy="333.22" r="4.23"/><circle class="cls-3" cx="231.76" cy="358.66" r="4.23"/><circle class="cls-3" cx="187.84" cy="384.08" r="4.23"/><circle class="cls-3" cx="143.78" cy="409.49" r="4.23"/><circle class="cls-3" cx="143.78" cy="358.44" r="4.23"/><circle class="cls-3" cx="187.71" cy="333.17" r="4.23"/><circle class="cls-3" cx="114.29" cy="425.64" r="4.23"/><circle class="cls-3" cx="114.29" cy="392.72" r="4.23"/><circle class="cls-3" cx="143.64" cy="442.45" r="4.23"/><circle class="cls-3" cx="276.38" cy="486.95" r="4.23"/><circle class="cls-3" cx="437.82" cy="526.13" r="4.23"/><circle class="cls-3" cx="525.79" cy="324.84" r="4.23"/><circle class="cls-3" cx="542.26" cy="146.45" r="4.23"/><circle class="cls-3" cx="570.01" cy="161.64" r="4.23"/><circle class="cls-3" cx="540.53" cy="178.26" r="4.23"/><circle class="cls-3" cx="364.1" cy="43.41" r="4.23"/><circle class="cls-3" cx="334.85" cy="25.68" r="4.23"/><circle class="cls-3" cx="231.76" cy="204.41" r="4.23"/><circle class="cls-3" cx="187.72" cy="230.13" r="4.23"/><circle class="cls-3" cx="231.9" cy="254.66" r="4.23"/><circle class="cls-3" cx="232.03" cy="305.49" r="4.23"/><circle class="cls-3" cx="275.96" cy="280.38" r="4.23"/><circle class="cls-3" cx="320.2" cy="306.53" r="4.23"/><circle class="cls-3" cx="275.98" cy="229.82" r="4.23"/><circle class="cls-3" cx="320.2" cy="203.8" r="4.23"/><circle class="cls-3" cx="276.14" cy="178.26" r="4.23"/><circle class="cls-3" cx="320.04" cy="254.16" r="4.23"/><circle class="cls-2" cx="247.03" cy="110.91" r="11.02"/><circle class="cls-2" cx="364.1" cy="43.81" r="11.02"/><circle class="cls-2" cx="540.53" cy="178.41" r="11.02"/><circle class="cls-2" cx="584.86" cy="305.49" r="11.02"/><circle class="cls-2" cx="570.01" cy="399.77" r="11.02"/><circle class="cls-2" cx="525.78" cy="324.84" r="11.02"/><circle class="cls-2" cx="319.97" cy="544.49" r="11.02"/><circle class="cls-2" cx="231.91" cy="562.22" r="11.02"/><circle class="cls-2" cx="143.64" cy="510.9" r="11.02"/><circle class="cls-2" cx="409.4" cy="305.8" r="11.02"/><circle class="cls-2" cx="187.71" cy="333.22" r="11.02"/><circle class="cls-2" cx="231.76" cy="204.41" r="11.02"/><circle class="cls-2" cx="114.29" cy="426.02" r="11.02"/><circle class="cls-2" cx="275.84" cy="384.1" r="11.02"/><circle class="cls-2" cx="11.45" cy="332.78" r="11.02"/></g><polygon class="cls-4" points="442.98 336.69 442.98 193.55 319.02 121.98 195.06 193.55 195.06 336.69 319.02 408.25 442.98 336.69"/><polygon class="cls-4" points="567.95 497.51 567.95 354.37 443.99 282.8 320.02 354.37 320.02 497.51 443.99 569.08 567.95 497.51"/><polygon class="cls-4" points="567.95 285.15 567.95 142.01 443.99 70.44 320.02 142.01 320.02 285.15 443.99 356.72 567.95 285.15"/><polygon class="cls-4" points="318.15 312.53 318.15 169.39 194.19 97.82 70.23 169.39 70.23 312.53 194.19 384.1 318.15 312.53"/><polygon class="cls-4" points="443.12 473.36 443.12 330.22 319.16 258.65 195.2 330.22 195.2 473.36 319.16 544.93 443.12 473.36"/><polygon class="cls-4" points="443.12 261 443.12 117.86 319.16 46.29 195.2 117.86 195.2 261 319.16 332.57 443.12 261"/><polygon class="cls-5" points="145.88 169.28 145.88 125.61 108.06 103.78 70.24 125.61 70.24 169.28 108.06 191.12 145.88 169.28"/><polygon class="cls-5" points="233.02 452.51 233.02 408.84 195.2 387 157.38 408.84 157.38 452.51 195.2 474.34 233.02 452.51"/><polygon class="cls-5" points="108.05 289.49 108.05 245.82 70.23 223.99 32.41 245.82 32.41 289.49 70.23 311.33 108.05 289.49"/><polygon class="cls-5" points="479.7 450.75 479.7 407.08 441.88 385.25 404.06 407.08 404.06 450.75 441.88 472.58 479.7 450.75"/><polygon class="cls-5" points="358.84 66.66 358.84 22.99 321.02 1.16 283.2 22.99 283.2 66.66 321.02 88.49 358.84 66.66"/><polygon class="cls-5" points="479.7 183.47 479.7 139.8 441.88 117.97 404.06 139.8 404.06 183.47 441.88 205.31 479.7 183.47"/><path class="cls-6" d="M104.89,170.9v-5.7a24.29,24.29,0,0,1-10.17-2.58l1.79-7a21.6,21.6,0,0,0,9.95,2.62c3.42,0,5.76-1.35,5.76-3.71s-1.92-3.7-6.37-5.19c-6.41-2.17-10.78-5.18-10.78-11,0-5.3,3.7-9.44,10.13-10.68V122h5.88v5.29a21.59,21.59,0,0,1,8.68,2L118,136a19.24,19.24,0,0,0-8.61-2.07c-3.85,0-5.12,1.72-5.12,3.39,0,1.95,2.09,3.24,7.17,5.12,7.13,2.51,10,5.81,10,11.24s-3.74,9.83-10.62,11v6.15Z"/><path class="cls-6" d="M440,453.35v-5.7a24.3,24.3,0,0,1-10.17-2.57l1.79-7a21.64,21.64,0,0,0,9.95,2.63c3.42,0,5.76-1.35,5.76-3.72s-1.92-3.69-6.37-5.19c-6.41-2.17-10.78-5.17-10.78-11,0-5.3,3.7-9.44,10.13-10.67v-5.69h5.89v5.29a21.39,21.39,0,0,1,8.67,2L453,418.5a19.11,19.11,0,0,0-8.61-2.07c-3.85,0-5.12,1.71-5.12,3.38,0,2,2.09,3.25,7.17,5.13,7.14,2.5,10,5.8,10,11.23s-3.74,9.84-10.62,11v6.15Z"/><path class="cls-6" d="M439.3,168.76v-2.53h-.43c-1.81,0-3.62,0-5.43,0a3,3,0,0,1-1.75-.46,2.52,2.52,0,0,1,1-4.62c.85-.11,1.69-.16,2.51-.23-.57-.35-1.19-.7-1.77-1.11a14.35,14.35,0,0,1-6.23-10.3,34.78,34.78,0,0,1-.12-4c0-.78,0-1.55,0-2.32a2.55,2.55,0,1,1,5.1.09c0,1.49,0,3,0,4.48a9.63,9.63,0,0,0,18.93,2.43,12.21,12.21,0,0,0,.32-2.63c.06-1.42,0-2.83,0-4.25a2.59,2.59,0,0,1,2.17-2.68,2.45,2.45,0,0,1,2.89,2.17,32.14,32.14,0,0,1-.33,8.14,14.35,14.35,0,0,1-5.37,8.4c-.76.58-1.57,1.07-2.37,1.61h2a2.91,2.91,0,0,1,2.77,2,2.54,2.54,0,0,1-2.13,3.17,7.93,7.93,0,0,1-1,.07h-5.67v2.53h.42c1.84,0,3.67,0,5.51,0a4.06,4.06,0,0,1,1.65.47,2.43,2.43,0,0,1,1.25,2.61,2.54,2.54,0,0,1-2.22,2.08,7,7,0,0,1-1,.07c-1.71,0-3.43,0-5.14,0h-.48v.45c0,1.85,0,3.7,0,5.55a2.54,2.54,0,0,1-2.38,2.64,2.57,2.57,0,0,1-2.67-2.11,5.48,5.48,0,0,1,0-.7c0-1.78,0-3.57,0-5.35V174h-.45c-1.8,0-3.61,0-5.42,0a3,3,0,0,1-1.85-.54,2.52,2.52,0,0,1,1.11-4.55c.7-.08,1.41-.14,2.12-.15C436.3,168.74,437.78,168.76,439.3,168.76Z"/><path class="cls-6" d="M67.64,276.15v-2.53h-.43c-1.8,0-3.61,0-5.42,0a3.06,3.06,0,0,1-1.76-.46A2.52,2.52,0,0,1,59,270.46a2.49,2.49,0,0,1,2.13-1.93c.84-.1,1.69-.16,2.5-.23-.56-.35-1.19-.7-1.77-1.11a14.37,14.37,0,0,1-6.22-10.3,37.25,37.25,0,0,1-.13-4c0-.78,0-1.55,0-2.32a2.56,2.56,0,1,1,5.11.09c0,1.5,0,3,0,4.48a9.62,9.62,0,0,0,18.92,2.44,11.71,11.71,0,0,0,.33-2.64c0-1.41,0-2.83,0-4.25A2.59,2.59,0,0,1,82,248.05a2.45,2.45,0,0,1,2.89,2.17,31.69,31.69,0,0,1-.32,8.14,14.38,14.38,0,0,1-5.38,8.4c-.75.58-1.57,1.07-2.36,1.61h2a2.9,2.9,0,0,1,2.77,2,2.54,2.54,0,0,1-2.13,3.17,6.33,6.33,0,0,1-1,.07H72.78v2.53h.43c1.83,0,3.67,0,5.5,0a4,4,0,0,1,1.65.47,2.41,2.41,0,0,1,1.25,2.62,2.56,2.56,0,0,1-2.22,2.08,8.43,8.43,0,0,1-1,.06H72.76v.44c0,1.85,0,3.7,0,5.55a2.54,2.54,0,0,1-5.05.53,4.12,4.12,0,0,1,0-.7v-5.82h-.45c-1.81,0-3.62,0-5.42,0a3.1,3.1,0,0,1-1.86-.53,2.54,2.54,0,0,1-1-2.67A2.49,2.49,0,0,1,61,276.32a19.08,19.08,0,0,1,2.13-.16C64.64,276.13,66.12,276.15,67.64,276.15Z"/><path class="cls-6" d="M324.39,40.74H319c-.48,0-.55.07-.56.56,0,.68,0,1.37,0,2.05,0,.47.11.58.59.58h10.52c1,0,1,0,1,.95s0,1.78,0,2.67c0,.55-.07.62-.64.62H320a.4.4,0,0,0-.37.64,7.13,7.13,0,0,0,1.75,2.11,7.74,7.74,0,0,0,4,1.65,15.6,15.6,0,0,0,7.77-.93l.23-.08c.36-.12.53,0,.61.33.31,1.33.62,2.66.92,4l.51,2.24c.09.39,0,.48-.31.65a16.48,16.48,0,0,1-4.91,1.37,25.41,25.41,0,0,1-4.93.21,16.51,16.51,0,0,1-10-3.8,14.5,14.5,0,0,1-4.16-6c-.24-.63-.43-1.27-.63-1.91-.13-.43-.17-.47-.6-.47H307.4c-.44,0-.55-.11-.55-.55,0-1.06,0-2.11,0-3.17,0-.4.1-.52.51-.52h1.86c.42,0,.54-.12.54-.53V41.23c0-.39-.1-.5-.49-.51h-1.93c-.38,0-.49-.12-.49-.51,0-1.07,0-2.15,0-3.22,0-.4.12-.51.52-.51H310a.53.53,0,0,0,.6-.44,17,17,0,0,1,3.08-5.87,15.25,15.25,0,0,1,8.15-5.09,21.94,21.94,0,0,1,6.71-.6,21,21,0,0,1,4.92.78c.6.17,1.19.41,1.78.63a.39.39,0,0,1,.27.51c-.55,2.15-1.08,4.31-1.62,6.46-.08.32-.26.41-.56.28a16.36,16.36,0,0,0-6.85-1,8.3,8.3,0,0,0-4.86,1.53,6.85,6.85,0,0,0-1.94,2.27c-.18.32,0,.57.35.6h9.74c.56,0,.64.08.64.62v3.07c0,.46-.1.56-.57.56Z"/><path class="cls-6" d="M197.37,427.24h-5.43c-.49,0-.56.07-.57.56,0,.69,0,1.37,0,2.05,0,.47.12.58.6.58h10.52c1,0,1,0,1,.94V434c0,.55-.07.62-.63.62H193c-.4,0-.56.29-.37.64a7,7,0,0,0,1.74,2.11,7.87,7.87,0,0,0,4,1.66,15.75,15.75,0,0,0,7.77-.94l.23-.08c.35-.12.52,0,.61.33.31,1.33.61,2.66.92,4,.17.75.34,1.49.5,2.24.09.39.05.49-.31.65a16.8,16.8,0,0,1-4.91,1.38,25.31,25.31,0,0,1-4.92.2,16.52,16.52,0,0,1-10-3.8,14.5,14.5,0,0,1-4.16-6c-.24-.62-.43-1.27-.62-1.91-.13-.42-.17-.47-.6-.47h-2.46c-.44,0-.55-.11-.55-.55v-3.16c0-.41.11-.53.51-.53.62,0,1.24,0,1.86,0,.43,0,.54-.13.54-.54v-2.14c0-.39-.1-.5-.49-.51h-1.92c-.38,0-.5-.12-.5-.5v-3.23c0-.39.12-.51.53-.51H183a.54.54,0,0,0,.6-.44,16.62,16.62,0,0,1,3.08-5.87,15.19,15.19,0,0,1,8.14-5.09,21.66,21.66,0,0,1,6.71-.59,20.44,20.44,0,0,1,4.92.77c.6.18,1.19.41,1.78.63a.38.38,0,0,1,.27.51l-1.62,6.47c-.08.31-.25.4-.56.27a16.33,16.33,0,0,0-6.85-1.05,8.34,8.34,0,0,0-4.86,1.53,7,7,0,0,0-1.94,2.27c-.17.32,0,.57.35.6h9.75c.55,0,.63.08.63.62v3.07c0,.46-.1.56-.57.56Z"/><polygon class="cls-5" points="603.44 264.11 603.44 220.44 565.62 198.6 527.8 220.44 527.8 264.11 565.62 285.94 603.44 264.11"/><path class="cls-6" d="M567.79,238.84h-5.43c-.48,0-.56.07-.56.56,0,.68,0,1.37,0,2,0,.47.11.58.59.58H572.9c1,0,1,0,1,.95s0,1.78,0,2.67c0,.55-.07.62-.63.62h-9.84a.4.4,0,0,0-.37.64,7,7,0,0,0,1.75,2.11,7.74,7.74,0,0,0,4,1.65,15.61,15.61,0,0,0,7.77-.93l.23-.08c.36-.12.53,0,.61.33.31,1.33.62,2.66.92,4l.51,2.24c.09.39,0,.48-.32.65a16.8,16.8,0,0,1-4.91,1.38,26.08,26.08,0,0,1-4.92.2,16.49,16.49,0,0,1-10-3.8,14.43,14.43,0,0,1-4.17-6c-.23-.63-.42-1.27-.62-1.91-.13-.43-.17-.47-.6-.47h-2.45c-.45,0-.56-.11-.56-.55v-3.17c0-.4.11-.52.51-.52h1.87c.42,0,.54-.12.54-.53v-2.14c0-.39-.11-.5-.49-.51h-1.93c-.38,0-.5-.12-.5-.5v-3.23c0-.4.12-.51.53-.51.89,0,1.78,0,2.67,0a.54.54,0,0,0,.6-.44,17,17,0,0,1,3.08-5.87,15.18,15.18,0,0,1,8.15-5.09,21.6,21.6,0,0,1,6.7-.59,20.44,20.44,0,0,1,4.92.77c.61.17,1.19.41,1.79.63a.37.37,0,0,1,.26.51c-.54,2.15-1.07,4.31-1.62,6.47-.08.31-.25.4-.56.27a16.29,16.29,0,0,0-6.84-1.05,8.35,8.35,0,0,0-4.87,1.53,6.71,6.71,0,0,0-1.93,2.27c-.18.32,0,.57.34.6h9.75c.55,0,.63.08.63.62,0,1,0,2,0,3.07,0,.46-.1.56-.56.56Z"/><polygon class="cls-7" points="406.9 357.79 406.9 257.71 320.23 207.67 233.56 257.71 233.56 357.79 320.23 407.83 406.9 357.79"/><polygon class="cls-8" points="262.86 306.95 262.86 340.08 291.55 356.65 320.25 340.08 348.94 356.65 377.64 340.08 377.64 306.95 348.95 290.38 348.94 323.51 320.25 306.95 291.55 323.51 291.55 290.38 262.86 306.95"/></g></g></svg>