<?xml version="1.0" encoding="UTF-8"?>
<svg width="640px" height="575px" viewBox="0 0 640 575" version="1.1" xmlns="http://www.w3.org/2000/svg" xmlns:xlink="http://www.w3.org/1999/xlink">
    <!-- Generator: Sketch 53.2 (72643) - https://sketchapp.com -->
    <title>graphics/weaviate/what-we-do-3</title>
    <desc>Created with Sketch.</desc>
    <defs>
        <linearGradient x1="-0.1%" y1="49.9881713%" x2="100.085714%" y2="49.9881713%" id="linearGradient-1">
            <stop stop-color="#38D611" offset="0%"></stop>
            <stop stop-color="#38D611" offset="100%"></stop>
        </linearGradient>
        <circle id="path-2" cx="14" cy="14" r="14"></circle>
        <filter x="-67.9%" y="-57.1%" width="250.0%" height="250.0%" filterUnits="objectBoundingBox" id="filter-3">
            <feMorphology radius="0.5" operator="dilate" in="SourceAlpha" result="shadowSpreadOuter1"></feMorphology>
            <feOffset dx="2" dy="5" in="shadowSpreadOuter1" result="shadowOffsetOuter1"></feOffset>
            <feGaussianBlur stdDeviation="6" in="shadowOffsetOuter1" result="shadowBlurOuter1"></feGaussianBlur>
            <feComposite in="shadowBlurOuter1" in2="SourceAlpha" operator="out" result="shadowBlurOuter1"></feComposite>
            <feColorMatrix values="0 0 0 0 0.797695879   0 0 0 0 0.797695879   0 0 0 0 0.797695879  0 0 0 0.5 0" type="matrix" in="shadowBlurOuter1"></feColorMatrix>
        </filter>
        <path d="M6.72626875,2.05562174 C6.96512645,1.69729925 7.22191294,1.35358921 7.49547151,1.02639758 C8.21840644,0.269091894 9.20911647,-0.0981251222 10.2021399,0.0225863539 C11.8672036,0.136944594 13.2338398,1.51369075 13.4813727,3.32626886 C13.6907347,4.54418412 13.5085551,5.80339541 12.9666431,6.89043402 C12.3559076,8.18204681 11.5762946,9.36756057 10.6532513,10.4101265 C9.55728193,11.6852209 8.36357178,12.8542163 7.08484447,13.9044061 L6.98652532,13.9742917 L6.22310604,13.415207 C4.71940138,12.2271519 3.34061988,10.858665 2.11105215,9.33642972 C1.33201747,8.41139862 0.717811956,7.33388986 0.300823088,6.15981193 C-0.222581801,4.70174436 -0.0560175931,3.05307973 0.746151005,1.75701967 C1.38349044,0.696029326 2.48177319,0.0810361212 3.63789073,0.136944594 C4.90620777,0.0816714448 6.0935561,0.819917419 6.70313483,2.04291527 C6.70313483,2.04291527 6.74361919,2.05562174 6.72626875,2.05562174" id="path-4"></path>
        <circle id="path-6" cx="14" cy="14" r="14"></circle>
        <filter x="-67.9%" y="-57.1%" width="250.0%" height="250.0%" filterUnits="objectBoundingBox" id="filter-7">
            <feMorphology radius="0.5" operator="dilate" in="SourceAlpha" result="shadowSpreadOuter1"></feMorphology>
            <feOffset dx="2" dy="5" in="shadowSpreadOuter1" result="shadowOffsetOuter1"></feOffset>
            <feGaussianBlur stdDeviation="6" in="shadowOffsetOuter1" result="shadowBlurOuter1"></feGaussianBlur>
            <feComposite in="shadowBlurOuter1" in2="SourceAlpha" operator="out" result="shadowBlurOuter1"></feComposite>
            <feColorMatrix values="0 0 0 0 0.797695879   0 0 0 0 0.797695879   0 0 0 0 0.797695879  0 0 0 0.5 0" type="matrix" in="shadowBlurOuter1"></feColorMatrix>
        </filter>
        <path d="M7.08378133,10.6364037 C9.03683052,10.6364037 10.6197787,9.05477576 10.6197787,7.10467031 C10.6197787,5.15397624 9.03683052,3.57293693 7.08378133,3.57293693 C5.13073213,3.57293693 3.54778399,5.15397624 3.54778399,7.10467031 C3.54778399,9.04830091 5.12012414,10.6263971 7.06610134,10.6364037 L7.08378133,10.6364037 Z M14.155776,6.07458141 L14.155776,8.11121432 C14.0679654,8.30310517 13.8782002,8.42907033 13.6666297,8.43495655 C13.3248166,8.46438766 12.9830036,8.51147744 12.6411905,8.552681 C12.5769532,8.54856064 12.5203772,8.59447317 12.5115372,8.658633 C12.388956,9.06831407 12.2209961,9.46327959 12.0106043,9.83587746 C11.9929243,9.87708101 11.9929243,9.92358217 12.0106043,9.96478573 L12.7178038,10.871264 C12.8763343,11.0360782 12.8763343,11.2962492 12.7178038,11.4598862 L11.539138,12.6371306 C11.3906261,12.8431484 11.103621,12.8902382 10.8973545,12.7419054 C10.8737811,12.7248354 10.8519758,12.7059994 10.8319385,12.6842204 L9.97740582,12.0137797 C9.93733118,11.9990642 9.89372054,11.9990642 9.85364591,12.0137797 C9.48177686,12.2209747 9.08574515,12.3834345 8.67498013,12.4958613 C8.58893753,12.5111655 8.52646824,12.5859205 8.52764691,12.6730366 C8.49228693,13.0026651 8.4451403,13.3322935 8.41567366,13.6619219 C8.41449499,13.8744146 8.29073509,14.066894 8.0974339,14.155776 L6.04655544,14.155776 C5.87505957,14.0792551 5.75660366,13.9185612 5.73420901,13.7325566 C5.73420901,13.3676108 5.65170241,13.0026651 5.61044911,12.6430169 C5.60927044,12.5776798 5.56271314,12.5217607 5.49847586,12.5082224 C5.08771083,12.3899093 4.69167913,12.2239178 4.31981008,12.0137797 C4.28268211,11.9819941 4.22728481,11.9819941 4.19015684,12.0137797 L3.28258419,12.7260126 C3.11167766,12.879643 2.84824585,12.8661047 2.6932513,12.6965815 C2.27482495,12.2845459 1.86229193,11.8607379 1.44386558,11.4428161 C1.2812097,11.2832995 1.27826304,11.0225399 1.43797225,10.8600801 C1.43974025,10.8577256 1.44209758,10.8559598 1.44386558,10.8541939 L2.14517172,9.9536019 C2.1663877,9.91298697 2.1663877,9.86413132 2.14517172,9.82410501 C1.93654787,9.45150714 1.77271333,9.05654162 1.65602542,8.64686055 C1.64659609,8.57681451 1.58530547,8.52501575 1.51458553,8.52913611 C1.17866578,8.48793255 0.842746032,8.44084277 0.506826285,8.41141166 C0.288773116,8.41258891 0.0901679321,8.2854465 0,8.08766943 L0,6.07458141 C0.0754346098,5.90564683 0.23455449,5.78968825 0.418426351,5.76790923 C0.783812743,5.73318052 1.14919913,5.68020452 1.51458553,5.63900096 C1.58000148,5.64312132 1.63834543,5.59720878 1.65013209,5.53304896 C1.76976667,5.12277926 1.93595854,4.72781375 2.14517172,4.3558045 C2.15931571,4.31577819 2.15931571,4.27163152 2.14517172,4.23219383 L1.38493229,3.29039826 C1.25115372,3.13205888 1.25115372,2.90073035 1.38493229,2.74297959 L2.66378466,1.46566935 C2.81877921,1.29555753 3.08162168,1.28201922 3.25311755,1.43623824 L4.15479687,2.13669869 C4.19546084,2.15788909 4.24378614,2.15788909 4.2844501,2.13669869 C4.65867649,1.93068091 5.05411886,1.76527807 5.46311588,1.64225602 C5.52676384,1.63283806 5.5727318,1.57633033 5.5691958,1.51275913 C5.61044911,1.17135824 5.65759574,0.829957344 5.68706238,0.488556451 C5.69295571,0.276652448 5.81848362,0.08711609 6.01119547,0 L8.10332723,0 C8.29427108,0.0877047122 8.41803099,0.277829692 8.42156699,0.488556451 C8.45103363,0.829957344 8.49818026,1.17135824 8.53943357,1.51275913 C8.53530824,1.57750758 8.58068687,1.6363698 8.64551349,1.64755362 C9.05509984,1.76822118 9.44995288,1.93126954 9.82417926,2.13669869 C9.86307523,2.15671185 9.9090432,2.15671185 9.94793917,2.13669869 L10.8672985,1.41857957 C11.0252397,1.28437371 11.2574369,1.28437371 11.4153781,1.41857957 L12.7001238,2.70177603 C12.8586543,2.86600164 12.8586543,3.12558404 12.7001238,3.29039826 C12.4584973,3.59000698 12.2286575,3.87902049 11.987031,4.1968765 C11.9522603,4.23278245 11.9522603,4.28987881 11.987031,4.32578477 C12.1997801,4.69779401 12.36774,5.09275953 12.4879639,5.50302922 C12.4968039,5.56718905 12.5533799,5.61310158 12.6176172,5.60956985 C12.9594302,5.65018478 13.3012433,5.69727456 13.6430564,5.72670567 C13.8693602,5.72611705 14.0732694,5.86444327 14.155776,6.07458141 L14.155776,6.07458141 Z" id="path-8"></path>
        <circle id="path-10" cx="14" cy="14" r="14"></circle>
        <filter x="-67.9%" y="-57.1%" width="250.0%" height="250.0%" filterUnits="objectBoundingBox" id="filter-11">
            <feMorphology radius="0.5" operator="dilate" in="SourceAlpha" result="shadowSpreadOuter1"></feMorphology>
            <feOffset dx="2" dy="5" in="shadowSpreadOuter1" result="shadowOffsetOuter1"></feOffset>
            <feGaussianBlur stdDeviation="6" in="shadowOffsetOuter1" result="shadowBlurOuter1"></feGaussianBlur>
            <feComposite in="shadowBlurOuter1" in2="SourceAlpha" operator="out" result="shadowBlurOuter1"></feComposite>
            <feColorMatrix values="0 0 0 0 0.797695879   0 0 0 0 0.797695879   0 0 0 0 0.797695879  0 0 0 0.5 0" type="matrix" in="shadowBlurOuter1"></feColorMatrix>
        </filter>
        <path d="M13.7174838,3.84739904 C13.3315841,2.63389344 12.8079762,2.38111924 11.3960708,2.11081979 C10.4246736,1.92483103 8.70126262,1.769472 7.077888,1.769472 C5.45451338,1.769472 3.73110242,1.92483103 2.75970519,2.11081979 C1.34779981,2.38111924 0.824191851,2.63389344 0.438292152,3.84739904 C0.129002566,4.82044549 0,5.86343509 0,7.077888 C0,8.29234091 0.129002566,9.33533051 0.438292152,10.308377 C0.824191851,11.5218826 1.34779981,11.7746568 2.75970519,12.0449562 C3.73094414,12.230945 5.45451338,12.386304 7.077888,12.386304 C8.70126262,12.386304 10.4246736,12.230945 11.3960708,12.0449562 C12.8079762,11.7746568 13.3315841,11.5218826 13.7174838,10.308377 C14.0267734,9.33533051 14.155776,8.29234091 14.155776,7.077888 C14.155776,5.86343509 14.0267734,4.82044549 13.7174838,3.84739904 Z M9.81005154,7.36918618 L5.68830086,10.0087109 C5.43805171,10.1689643 5.23338874,10.0573395 5.23338874,9.76083111 L5.23338874,4.39494489 C5.23338874,4.09827861 5.43805171,3.98681167 5.68830086,4.14706514 L9.81005154,6.78658982 C10.0603007,6.94684329 10.0603007,7.20893271 9.81005154,7.36918618 Z" id="path-12"></path>
        <circle id="path-14" cx="14" cy="14" r="14"></circle>
        <filter x="-67.9%" y="-57.1%" width="250.0%" height="250.0%" filterUnits="objectBoundingBox" id="filter-15">
            <feMorphology radius="0.5" operator="dilate" in="SourceAlpha" result="shadowSpreadOuter1"></feMorphology>
            <feOffset dx="2" dy="5" in="shadowSpreadOuter1" result="shadowOffsetOuter1"></feOffset>
            <feGaussianBlur stdDeviation="6" in="shadowOffsetOuter1" result="shadowBlurOuter1"></feGaussianBlur>
            <feComposite in="shadowBlurOuter1" in2="SourceAlpha" operator="out" result="shadowBlurOuter1"></feComposite>
            <feColorMatrix values="0 0 0 0 0.797695879   0 0 0 0 0.797695879   0 0 0 0 0.797695879  0 0 0 0.5 0" type="matrix" in="shadowBlurOuter1"></feColorMatrix>
        </filter>
        <path d="M11.4088447,1.05017475 C10.5163791,1.94857697 9.62391343,2.84763881 8.73738437,3.75197762 L8.73738437,3.75197762 C8.63448367,3.85619755 8.54675423,3.88588044 8.40163787,3.85158021 L8.40163787,3.85158021 C6.26578883,3.34829027 4.12862054,2.85423501 1.9927715,2.3516047 L1.9927715,2.3516047 C1.88261499,2.32587952 1.81731262,2.34896622 1.74277558,2.42746098 L1.74277558,2.42746098 C1.52444142,2.65832792 1.29687257,2.88061981 1.07392106,3.10752903 L1.07392106,3.10752903 C0.990808965,3.19064113 0.907696865,3.27441285 0.813371228,3.36939811 L0.813371228,3.36939811 C2.63787971,4.33376231 4.43930149,5.28823222 6.24863871,6.24468099 L6.24863871,6.24468099 C6.21763658,6.28359856 6.2051038,6.30404678 6.18795368,6.32119689 L6.18795368,6.32119689 C5.28295526,7.23411075 4.3799357,8.14966309 3.47097956,9.05861923 L3.47097956,9.05861923 C3.43008313,9.09885604 3.34367293,9.11534653 3.28166867,9.10875034 L3.28166867,9.10875034 C2.7539728,9.03817101 2.22825578,8.95769739 1.70187915,8.88645845 L1.70187915,8.88645845 C1.64844995,8.87986225 1.5739129,8.89305465 1.53697419,8.92933374 L1.53697419,8.92933374 C1.29225523,9.1674565 1.05611133,9.4134947 0.816669327,9.65821366 L0.816669327,9.65821366 C0.830521344,9.67140606 0.843054121,9.68525808 0.856906138,9.69911009 L0.856906138,9.69911009 C1.06666525,9.81058585 1.27708398,9.91744426 1.48486423,10.0328777 L1.48486423,10.0328777 C2.00332542,10.320472 2.51980775,10.6100451 3.03563047,10.9042355 L3.03563047,10.9042355 C3.09235778,10.9352377 3.1530428,10.9787726 3.18272569,11.033521 L3.18272569,11.033521 C3.58377456,11.7551451 3.9808657,12.4813866 4.37729722,13.2063088 L4.37729722,13.2063088 C4.38785114,13.2254378 4.39048962,13.2505033 4.39576658,13.2716111 L4.39576658,13.2716111 C4.4096186,13.2867824 4.42215137,13.2993152 4.43600339,13.3125076 L4.43600339,13.3125076 C4.67808387,13.0717463 4.92148359,12.8323043 5.15828711,12.5849469 L5.15828711,12.5849469 C5.19324697,12.5486678 5.20709898,12.4728115 5.19984316,12.4193823 L5.19984316,12.4193823 C5.13058308,11.8923461 5.05670566,11.3653098 4.97755128,10.8389332 L4.97755128,10.8389332 C4.96238002,10.7373517 4.98282824,10.6700705 5.05538642,10.5975123 L5.05538642,10.5975123 C5.93531929,9.71296211 6.81261367,8.8251138 7.69056768,7.93990398 L7.69056768,7.93990398 C7.72552753,7.90428451 7.7644451,7.87262276 7.81523583,7.82644937 L7.81523583,7.82644937 C8.7683865,9.662831 9.71230249,11.4814029 10.6634743,13.3158057 L10.6634743,13.3158057 C10.9787726,12.9978689 11.272963,12.6931245 11.5750689,12.3989341 L11.5750689,12.3989341 C11.6687349,12.3079066 11.6951197,12.2280926 11.6654368,12.0974878 L11.6654368,12.0974878 C11.1680835,9.93987133 10.6773263,7.78291446 10.179973,5.62595758 L10.179973,5.62595758 C10.1509497,5.49931057 10.1753556,5.42477353 10.2644043,5.33572485 L10.2644043,5.33572485 C11.0374787,4.5626504 11.8052762,3.78429899 12.574393,3.00792644 L12.574393,3.00792644 C12.7333614,2.84631958 12.8969471,2.68933005 13.048,2.52112699 L13.048,2.52112699 C13.4629009,2.05939311 13.3679156,1.25861462 12.8626468,0.904398766 L12.8626468,0.904398766 C12.6641013,0.76521898 12.4418094,0.697278136 12.2201771,0.697278136 L12.2201771,0.697278136 C11.9292848,0.697278136 11.6403713,0.816009708 11.4088447,1.05017475 L11.4088447,1.05017475 Z" id="path-16"></path>
        <circle id="path-18" cx="14" cy="14" r="14"></circle>
        <filter x="-67.9%" y="-57.1%" width="250.0%" height="250.0%" filterUnits="objectBoundingBox" id="filter-19">
            <feMorphology radius="0.5" operator="dilate" in="SourceAlpha" result="shadowSpreadOuter1"></feMorphology>
            <feOffset dx="2" dy="5" in="shadowSpreadOuter1" result="shadowOffsetOuter1"></feOffset>
            <feGaussianBlur stdDeviation="6" in="shadowOffsetOuter1" result="shadowBlurOuter1"></feGaussianBlur>
            <feComposite in="shadowBlurOuter1" in2="SourceAlpha" operator="out" result="shadowBlurOuter1"></feComposite>
            <feColorMatrix values="0 0 0 0 0.797695879   0 0 0 0 0.797695879   0 0 0 0 0.797695879  0 0 0 0.5 0" type="matrix" in="shadowBlurOuter1"></feColorMatrix>
        </filter>
        <path d="M5.06080886,3.62778016 L5.06080886,2.67030152 C5.06080886,1.81976933 5.8379601,1.11985805 6.77675879,1.11985805 C7.72177469,1.12489741 8.49270872,1.82480869 8.49892593,2.67030152 L8.49892593,3.62778016 L5.06080886,3.62778016 Z M12.0116495,3.62778016 L9.74236791,3.62778016 L9.74236791,2.66470223 C9.72993349,1.2094467 8.40566778,0.0106386515 6.782976,0 C5.1478498,0.00503936123 3.82358409,1.19768819 3.81736688,2.67030152 L3.81736688,3.62778016 L1.55430247,3.62778016 L0,13.7630555 L13.565952,13.7630555 L12.0116495,3.62778016 Z" id="path-20"></path>
        <circle id="path-22" cx="14" cy="14" r="14"></circle>
        <filter x="-67.9%" y="-57.1%" width="250.0%" height="250.0%" filterUnits="objectBoundingBox" id="filter-23">
            <feMorphology radius="0.5" operator="dilate" in="SourceAlpha" result="shadowSpreadOuter1"></feMorphology>
            <feOffset dx="2" dy="5" in="shadowSpreadOuter1" result="shadowOffsetOuter1"></feOffset>
            <feGaussianBlur stdDeviation="6" in="shadowOffsetOuter1" result="shadowBlurOuter1"></feGaussianBlur>
            <feComposite in="shadowBlurOuter1" in2="SourceAlpha" operator="out" result="shadowBlurOuter1"></feComposite>
            <feColorMatrix values="0 0 0 0 0.797695879   0 0 0 0 0.797695879   0 0 0 0 0.797695879  0 0 0 0.5 0" type="matrix" in="shadowBlurOuter1"></feColorMatrix>
        </filter>
        <path d="M6.28833943,8.4148224 L10.1591182,12.2840678 C10.2377926,12.362711 10.2849972,12.4728115 10.2692623,12.582912 C10.2535275,12.6930125 10.2063228,12.803113 10.1119136,12.8660275 C9.01047248,13.7153741 7.68874314,14.155776 6.28833943,14.155776 C4.604708,14.155776 3.03122069,13.4951731 1.83537033,12.3155251 C-0.383246783,10.0977869 -0.61926988,6.54311424 1.28464977,4.05798912 C1.34758926,3.96361728 1.45773337,3.90070272 1.56787749,3.90070272 C1.6780216,3.88497408 1.78816571,3.93216 1.86684008,4.0108032 L5.73761887,7.86432 L6.80759024,6.79477248 C6.9492041,6.63748608 7.20096207,6.63748608 7.3583108,6.79477248 C7.51565953,6.93633024 7.51565953,7.18798848 7.3583108,7.34527488 L6.28833943,8.4148224 Z M7.07508309,-3.02868841e-13 C10.9773316,-3.02868841e-13 14.155776,3.17718528 14.155776,7.077888 C14.155776,7.29808896 13.9826924,7.471104 13.7624042,7.471104 C13.5421159,7.471104 13.3690323,7.29808896 13.3690323,7.077888 C13.3690323,3.60185856 10.5524901,0.786432 7.07508309,0.786432 C6.85479486,0.786432 6.68171126,0.61341696 6.68171126,0.393216 C6.68171126,0.17301504 6.85479486,-3.02868841e-13 7.07508309,-3.02868841e-13 Z M7.07508309,1.572864 C10.1119136,1.572864 12.5822887,4.04226048 12.5822887,7.077888 C12.5822887,7.29808896 12.4092051,7.471104 12.1889169,7.471104 C11.9686286,7.471104 11.795545,7.29808896 11.795545,7.077888 C11.795545,4.4826624 9.67133715,2.359296 7.07508309,2.359296 C6.85479486,2.359296 6.68171126,2.18628096 6.68171126,1.96608 C6.68171126,1.74587904 6.85479486,1.572864 7.07508309,1.572864 Z M7.07508309,3.145728 C9.24649558,3.145728 11.0088014,4.90733568 11.0088014,7.077888 C11.0088014,7.29808896 10.8357178,7.471104 10.6154295,7.471104 C10.3951413,7.471104 10.2220577,7.29808896 10.2220577,7.077888 C10.2220577,5.3477376 8.80591913,3.93216 7.07508309,3.93216 C6.85479486,3.93216 6.68171126,3.75914496 6.68171126,3.538944 C6.68171126,3.31874304 6.85479486,3.145728 7.07508309,3.145728 Z M8.6485704,7.077888 C8.6485704,6.2128128 7.94050111,5.505024 7.07508309,5.505024 C6.85479486,5.505024 6.68171126,5.33200896 6.68171126,5.111808 C6.68171126,4.89160704 6.85479486,4.718592 7.07508309,4.718592 C8.38107756,4.718592 9.43531406,5.77241088 9.43531406,7.077888 C9.43531406,7.29808896 9.26223045,7.471104 9.04194223,7.471104 C8.821654,7.471104 8.6485704,7.29808896 8.6485704,7.077888 Z" id="path-24"></path>
        <circle id="path-26" cx="14" cy="14" r="14"></circle>
        <filter x="-67.9%" y="-57.1%" width="250.0%" height="250.0%" filterUnits="objectBoundingBox" id="filter-27">
            <feMorphology radius="0.5" operator="dilate" in="SourceAlpha" result="shadowSpreadOuter1"></feMorphology>
            <feOffset dx="2" dy="5" in="shadowSpreadOuter1" result="shadowOffsetOuter1"></feOffset>
            <feGaussianBlur stdDeviation="6" in="shadowOffsetOuter1" result="shadowBlurOuter1"></feGaussianBlur>
            <feComposite in="shadowBlurOuter1" in2="SourceAlpha" operator="out" result="shadowBlurOuter1"></feComposite>
            <feColorMatrix values="0 0 0 0 0.797695879   0 0 0 0 0.797695879   0 0 0 0 0.797695879  0 0 0 0.5 0" type="matrix" in="shadowBlurOuter1"></feColorMatrix>
        </filter>
        <path d="M3.80437339,8.31007919 L6.19183504,8.31007919 C6.34012458,8.31007919 6.45875622,8.43067242 6.45875622,8.58141395 L6.42909831,13.8875159 C6.42909831,14.1739248 6.81465112,14.2643697 6.93328275,13.993035 L10.5960345,5.70225068 C10.6701792,5.52136084 10.5367187,5.32539685 10.3439423,5.340471 L8.13442806,5.40076762 C7.98613851,5.40076762 7.86750688,5.28017439 7.86750688,5.12943286 L7.86750688,0.260481368 C7.88233583,-0.0108533903 7.51161197,-0.10129831 7.37815138,0.139888142 L3.56711012,7.93322536 C3.47813639,8.1141152 3.61159698,8.31007919 3.80437339,8.31007919 Z" id="path-28"></path>
        <circle id="path-30" cx="14" cy="14" r="14"></circle>
        <filter x="-67.9%" y="-57.1%" width="250.0%" height="250.0%" filterUnits="objectBoundingBox" id="filter-31">
            <feMorphology radius="0.5" operator="dilate" in="SourceAlpha" result="shadowSpreadOuter1"></feMorphology>
            <feOffset dx="2" dy="5" in="shadowSpreadOuter1" result="shadowOffsetOuter1"></feOffset>
            <feGaussianBlur stdDeviation="6" in="shadowOffsetOuter1" result="shadowBlurOuter1"></feGaussianBlur>
            <feComposite in="shadowBlurOuter1" in2="SourceAlpha" operator="out" result="shadowBlurOuter1"></feComposite>
            <feColorMatrix values="0 0 0 0 0.797695879   0 0 0 0 0.797695879   0 0 0 0 0.797695879  0 0 0 0.5 0" type="matrix" in="shadowBlurOuter1"></feColorMatrix>
        </filter>
        <path d="M7.077888,1.769472 L14.155776,5.54490354 L11.920579,6.79525072 C11.920579,6.79525072 11.920579,8.94243325 11.920579,10.0751345 C11.920579,10.787323 12.6655975,10.8305077 12.6655975,10.8305077 L12.6655975,11.585594 C12.6655975,11.585594 11.1754189,11.585594 11.1754189,10.0752779 C11.1754189,9.12378022 11.1754189,7.22035441 11.1754189,7.22035441 L7.077888,9.32033508 L0,5.54490354 L7.077888,1.769472 Z M3.72509245,8.56524877 L7.077888,10.2168835 L10.430542,8.56524877 L10.430542,10.0752779 C10.4656483,10.4487322 9.81589819,10.9531752 9.31294347,11.2079791 L7.077888,12.3406803 L4.47011095,11.2081226 C3.96729778,10.9531752 3.72509245,10.4505973 3.72509245,10.0754214 L3.72509245,8.56524877 Z" id="path-32"></path>
        <circle id="path-34" cx="14" cy="14" r="14"></circle>
        <filter x="-67.9%" y="-57.1%" width="250.0%" height="250.0%" filterUnits="objectBoundingBox" id="filter-35">
            <feMorphology radius="0.5" operator="dilate" in="SourceAlpha" result="shadowSpreadOuter1"></feMorphology>
            <feOffset dx="2" dy="5" in="shadowSpreadOuter1" result="shadowOffsetOuter1"></feOffset>
            <feGaussianBlur stdDeviation="6" in="shadowOffsetOuter1" result="shadowBlurOuter1"></feGaussianBlur>
            <feComposite in="shadowBlurOuter1" in2="SourceAlpha" operator="out" result="shadowBlurOuter1"></feComposite>
            <feColorMatrix values="0 0 0 0 0.797695879   0 0 0 0 0.797695879   0 0 0 0 0.797695879  0 0 0 0.5 0" type="matrix" in="shadowBlurOuter1"></feColorMatrix>
        </filter>
        <path d="M13.3605077,6.02027255 L13.3605077,7.15924303 L0.954321978,7.15924303 L0.954321978,6.02027255 L2.15135984,6.02027255 C2.55026643,4.0819075 4.35568456,2.66811971 6.60072701,2.46603381 L6.60072701,0 L9.54321978,0 L9.06605879,0.813550345 L9.54321978,1.62710069 L7.71410265,1.62710069 L7.71410265,2.46619652 C9.95930416,2.66811971 11.7645632,4.0819075 12.1634698,6.02027255 L13.3605077,6.02027255 Z M13.3605077,13.0168055 L14.155776,13.0168055 L14.155776,14.155776 L0,14.155776 L0,13.0168055 L0.954321978,13.0168055 L0.954321978,11.877835 L2.06769762,11.877835 L2.06769762,7.97279338 L3.49918058,7.97279338 L3.49918058,11.877835 L5.08971721,11.877835 L5.08971721,7.97279338 L6.52120018,7.97279338 L6.52120018,11.877835 L7.95268315,11.877835 L7.95268315,7.97279338 L9.38416611,7.97279338 L9.38416611,11.877835 L10.8156491,11.877835 L10.8156491,7.97279338 L12.247132,7.97279338 L12.247132,11.877835 L13.3605077,11.877835 L13.3605077,13.0168055 Z" id="path-36"></path>
        <ellipse id="path-38" cx="29.1378005" cy="28.6437613" rx="29.1378005" ry="28.6437613"></ellipse>
        <filter x="-67.8%" y="-58.5%" width="252.7%" height="255.4%" filterUnits="objectBoundingBox" id="filter-39">
            <feOffset dx="5" dy="11" in="SourceAlpha" result="shadowOffsetOuter1"></feOffset>
            <feGaussianBlur stdDeviation="13" in="shadowOffsetOuter1" result="shadowBlurOuter1"></feGaussianBlur>
            <feColorMatrix values="0 0 0 0 0   0 0 0 0 0   0 0 0 0 0  0 0 0 0.35 0" type="matrix" in="shadowBlurOuter1"></feColorMatrix>
        </filter>
        <path d="M7.1212397,31.6524223 L7.1212397,27.9041091 C4.30241565,27.7652827 1.63195077,27.0711506 0,26.2381921 L1.18687328,21.6569205 C2.96718321,22.489879 5.34092978,23.3228375 8.01139467,23.3228375 C10.3851412,23.3228375 12.017092,22.489879 12.017092,20.9627884 C12.017092,19.4356979 10.6818596,18.6027394 7.56631718,17.6309545 C3.11554237,16.2426904 0.14835916,14.2991206 0.14835916,10.5508074 C0.14835916,7.08014708 2.67046489,4.44244523 7.1212397,3.60948675 L7.1212397,0 L11.126937,0 L11.126937,3.47066034 C13.9457611,3.60948675 15.726071,4.1647924 17.2096626,4.72009806 L16.0227893,9.16254329 C14.9842752,8.74606405 13.0556061,7.77427915 10.0884229,7.77427915 C7.41795802,7.77427915 6.52780306,8.88489046 6.52780306,9.99550177 C6.52780306,11.2449395 8.01139467,12.077898 11.5720145,13.3273357 C16.4678668,14.9932526 18.5448951,17.0756489 18.5448951,20.5463092 C18.5448951,24.0169695 15.8744302,26.9323242 11.126937,27.7652827 L11.126937,31.7912487 L7.1212397,31.7912487 L7.1212397,31.6524223 Z" id="path-40"></path>
        <path d="M4.8,7.2 L26.4,7.2 L26.4,4.8 L4.8,4.8 C3.48,4.8 2.4,5.88 2.4,7.2 L2.4,20.4 L0,20.4 L0,24 L16.8,24 L16.8,20.4 L4.8,20.4 L4.8,7.2 L4.8,7.2 Z M27.6,9.6 L20.4,9.6 C19.74,9.6 19.2,10.14 19.2,10.8 L19.2,22.8 C19.2,23.46 19.74,24 20.4,24 L27.6,24 C28.26,24 28.8,23.46 28.8,22.8 L28.8,10.8 C28.8,10.14 28.26,9.6 27.6,9.6 L27.6,9.6 Z M26.4,20.4 L21.6,20.4 L21.6,12 L26.4,12 L26.4,20.4 L26.4,20.4 Z" id="path-42"></path>
    </defs>
    <g id="graphics/weaviate/what-we-do-3" stroke="none" stroke-width="1" fill="none" fill-rule="evenodd">
        <g id="Group-2" opacity="0.1" transform="translate(15.000000, 1.000000)">
            <g id="main_grid" transform="translate(3.000000, 3.000000)" opacity="0.2" stroke="#00152B" stroke-width="0.5">
                <polygon id="Shape" points="171.248492 196.815706 171.248492 147.753529 128.686927 123.222441 86.142067 147.753529 86.142067 196.815706 128.686927 221.346794"></polygon>
                <polyline id="Shape" points="128.686927 221.380147 128.686927 172.284618 86.142067 147.753529 43.5805028 123.222441 43.5805028 91.2202941"></polyline>
                <polyline id="Shape" points="171.248492 147.753529 128.686927 172.284618 86.142067 196.815706"></polyline>
                <path d="M171.248492,196.815706 L128.686927,172.284618" id="Shape"></path>
                <polyline id="Shape" points="256.354916 196.799029 213.810056 221.330118 213.810056 270.392294 256.354916 294.923382 298.91648 270.392294 298.91648 221.330118"></polyline>
                <polyline id="Shape" points="213.810056 221.330118 256.354916 245.861206 256.354916 294.956735 256.354916 344.552559"></polyline>
                <polyline id="Shape" points="298.91648 221.330118 256.354916 245.861206 213.810056 270.392294"></polyline>
                <polyline id="Shape" points="256.354916 245.861206 298.91648 270.392294 328.165028 288.136059 341.762011 296.390912 341.762011 295.273588 341.762011 245.661088 341.762011 196.582235 384.323575 172.051147"></polyline>
                <polygon id="Shape" points="256.354916 196.799029 256.354916 147.736853 213.810056 123.205765 171.248492 147.736853 171.248492 196.799029 213.810056 221.330118"></polygon>
                <polyline id="Shape" points="171.248492 196.799029 213.810056 172.267941 256.354916 147.736853 298.91648 124.706647 298.91648 172.267941"></polyline>
                <polyline id="Shape" points="128.686927 270.408971 128.686927 221.346794 86.142067 196.815706 43.5805028 221.346794 43.5805028 270.408971 86.142067 294.940059"></polyline>
                <polyline id="Shape" points="43.5805028 189.611471 15.1003352 205.454118 43.5805028 221.346794 86.142067 245.877882 86.142067 294.973412"></polyline>
                <polyline id="Shape" points="128.686927 221.346794 86.142067 245.877882 43.5805028 270.408971 43.5805028 320.938676 0.768379888 344.552559 0.768379888 296.190794"></polyline>
                <path d="M128.686927,270.408971 L86.142067,245.877882" id="Shape"></path>
                <polygon id="Shape" points="213.810056 270.392294 213.810056 221.330118 171.248492 196.799029 128.686927 221.330118 128.686927 270.392294 171.248492 294.923382"></polygon>
                <polyline id="Shape" points="128.686927 221.330118 171.248492 245.861206 171.248492 294.956735 128.686927 320.655176 171.248492 345.669882 213.810056 320.938676"></polyline>
                <polyline id="Shape" points="213.810056 221.330118 171.248492 245.861206 128.686927 270.392294"></polyline>
                <path d="M15.1003352,139.582059 L43.5805028,123.222441" id="Shape"></path>
                <path d="M15.1003352,237.556324 L15.1003352,205.454118" id="Shape"></path>
                <polyline id="Shape" points="171.248492 50.2128529 171.248492 99.1416176 128.686927 123.222441 128.686927 73.8434118"></polyline>
                <polyline id="Shape" points="256.354916 196.799029 213.810056 172.267941 213.810056 123.205765 213.810056 91.2202941 242.975084 74.1269118"></polyline>
                <path d="M271.087765,107.213029 L298.91648,124.706647" id="Shape"></path>
                <path d="M86.142067,344.552559 L43.5805028,320.938676" id="Shape"></path>
                <polygon id="Shape" points="582.866257 385.943559 582.866257 336.881382 540.304693 312.350294 497.743128 336.881382 497.743128 385.943559 540.304693 410.474647"></polygon>
                <polyline id="Shape" points="582.866257 336.881382 540.304693 361.412471 497.743128 385.943559"></polyline>
                <polyline id="Shape" points="540.304693 459.536824 540.304693 410.474647 497.743128 385.943559 455.181564 410.474647 455.181564 459.536824 497.743128 484.051235"></polyline>
                <polyline id="Shape" points="426.718101 394.565294 455.181564 410.474647 497.743128 435.005735 497.743128 484.084588"></polyline>
                <polyline id="Shape" points="455.181564 508.382206 455.181564 459.536824 497.743128 435.005735 540.304693 410.474647 540.304693 361.362441"></polyline>
                <path d="M540.304693,459.520147 L497.743128,435.005735" id="Shape"></path>
                <polygon id="Shape" points="426.88514 147.536735 426.88514 98.4745588 469.43 73.9434706 511.991564 98.4745588 511.991564 147.536735 469.43 172.067824"></polygon>
                <polyline id="Shape" points="469.43 172.0845 469.43 123.005647 511.991564 98.4745588 554.553128 73.9434706 554.553128 41.9246471"></polyline>
                <polyline id="Shape" points="426.88514 98.4745588 469.43 123.005647 511.991564 147.536735"></polyline>
                <path d="M426.88514,147.536735 L469.43,123.005647" id="Shape"></path>
                <polyline id="Shape" points="341.762011 147.520059 384.323575 172.051147 384.323575 221.113324 341.762011 245.627735 299.217151 221.113324 299.217151 172.051147"></polyline>
                <polyline id="Shape" points="299.217151 172.051147 341.762011 196.582235 384.323575 221.113324"></polyline>
                <path d="M341.762011,196.582235 L299.217151,221.113324" id="Shape"></path>
                <polygon id="Shape" points="341.762011 147.520059 341.762011 98.4578824 384.323575 73.9267941 426.88514 98.4578824 426.88514 147.520059 384.323575 172.051147"></polygon>
                <polyline id="Shape" points="426.584469 147.520059 384.039609 122.988971 341.478045 98.4578824 298.91648 75.4276765 298.91648 124.656618"></polyline>
                <polyline id="Shape" points="469.43 221.113324 469.43 172.067824 511.991564 147.536735 554.553128 172.067824 554.553128 221.113324 511.991564 245.644412"></polyline>
                <polyline id="Shape" points="554.553128 140.315824 583.016592 156.158471 554.553128 172.067824 511.991564 196.598912 511.991564 245.677765"></polyline>
                <polyline id="Shape" points="469.43 172.067824 511.991564 196.598912 554.553128 221.113324 554.553128 271.643029 597.365251 295.273588 597.365251 246.911824"></polyline>
                <path d="M469.43,221.113324 L511.991564,196.598912" id="Shape"></path>
                <polygon id="Shape" points="384.323575 221.113324 384.323575 172.051147 426.88514 147.520059 469.43 172.051147 469.43 221.113324 426.88514 245.627735"></polygon>
                <polyline id="Shape" points="469.43 172.051147 426.88514 196.582235 426.88514 245.661088 469.43 271.376206 426.88514 296.390912 384.156536 271.559647"></polyline>
                <polyline id="Shape" points="384.323575 172.051147 426.88514 196.582235 469.43 221.113324"></polyline>
                <polyline id="Shape" points="426.88514 0.917205882 426.88514 49.8459706 469.43 73.9434706 469.43 24.5644412"></polyline>
                <polyline id="Shape" points="341.762011 147.520059 384.323575 122.988971 384.323575 73.9267941 384.323575 41.9246471 355.158547 24.8312647"></polyline>
                <path d="M326.745196,57.9340588 L298.91648,75.4276765" id="Shape"></path>
                <g id="Group" transform="translate(141.983240, 271.158824)">
                    <polygon id="Shape" points="157.066872 148.304441 157.066872 197.366618 114.505307 221.881029 71.943743 197.366618 71.943743 148.304441 114.505307 123.773353"></polygon>
                    <polyline id="Shape" points="114.505307 123.74 114.505307 172.835529 71.943743 197.366618 29.3988827 221.881029 29.3988827 253.899853"></polyline>
                    <polyline id="Shape" points="157.066872 197.366618 114.505307 172.835529 71.943743 148.304441"></polyline>
                    <path d="M157.066872,148.304441 L114.505307,172.835529" id="Shape"></path>
                    <polyline id="Shape" points="242.173296 148.321118 199.628436 123.790029 199.628436 74.7278529 242.173296 50.1967647 284.73486 74.7278529 284.73486 123.790029"></polyline>
                    <polyline id="Shape" points="199.628436 123.790029 242.173296 99.2589412 242.173296 50.1634118 242.173296 0.400823529"></polyline>
                    <polyline id="Shape" points="284.73486 123.790029 242.173296 99.2589412 199.628436 74.7278529"></polyline>
                    <polyline id="Shape" points="242.173296 99.2589412 284.73486 74.7278529 313.983408 56.9840882"></polyline>
                    <polygon id="Shape" points="242.173296 148.321118 242.173296 197.366618 199.628436 221.897706 157.066872 197.366618 157.066872 148.321118 199.628436 123.790029"></polygon>
                    <polyline id="Shape" points="157.066872 148.321118 199.628436 172.852206 242.173296 197.366618 274.111173 214.660118 313.198324 236.189441"></polyline>
                    <polyline id="Shape" points="114.505307 74.7111765 114.505307 123.773353 71.943743 148.304441 29.3988827 123.773353 29.3988827 74.7111765"></polyline>
                    <polyline id="Shape" points="29.3988827 155.508676 0.918715084 139.666029 29.3988827 123.773353 71.943743 99.2422647 71.943743 50.1467353"></polyline>
                    <path d="M114.505307,74.7111765 L71.943743,99.2422647" id="Shape"></path>
                    <polygon id="Shape" points="199.628436 74.7278529 199.628436 123.790029 157.066872 148.321118 114.505307 123.790029 114.505307 74.7278529 157.066872 50.1967647"></polygon>
                    <polyline id="Shape" points="114.505307 123.790029 157.066872 99.2589412 157.066872 50.1634118 114.505307 24.4649706"></polyline>
                    <polyline id="Shape" points="199.628436 123.790029 157.066872 99.2589412 114.505307 74.7278529"></polyline>
                    <path d="M0.918715084,205.538088 L29.3988827,221.897706" id="Shape"></path>
                    <path d="M0.918715084,107.563824 L0.918715084,139.666029" id="Shape"></path>
                    <polyline id="Shape" points="157.066872 294.907294 157.066872 245.978529 114.505307 221.881029 114.505307 271.276735"></polyline>
                    <polyline id="Shape" points="242.173296 148.321118 199.628436 172.852206 199.628436 221.897706 199.628436 253.899853 228.793464 270.993235"></polyline>
                </g>
                <path d="M497.743128,336.881382 L582.866257,385.943559" id="Shape"></path>
            </g>
            <g id="dots" fill="#00152B" fill-rule="nonzero" opacity="0.3">
                <ellipse id="Oval" cx="46.8940496" cy="92.3572674" rx="4.09008264" ry="4.0880814"></ellipse>
                <ellipse id="Oval" cx="17.1282645" cy="142.999419" rx="4.09008264" ry="4.0880814"></ellipse>
                <ellipse id="Oval" cx="46.8940496" cy="126.630407" rx="4.09008264" ry="4.0880814"></ellipse>
                <ellipse id="Oval" cx="88.9300826" cy="151.175581" rx="4.09008264" ry="4.0880814"></ellipse>
                <ellipse id="Oval" cx="131.984463" cy="175.487151" rx="4.09008264" ry="4.0880814"></ellipse>
                <ellipse id="Oval" cx="217.041488" cy="175.487151" rx="4.09008264" ry="4.0880814"></ellipse>
                <ellipse id="Oval" cx="131.984463" cy="126.630407" rx="4.09008264" ry="4.0880814"></ellipse>
                <ellipse id="Oval" cx="131.984463" cy="77.506686" rx="4.09008264" ry="4.0880814"></ellipse>
                <ellipse id="Oval" cx="174.487934" cy="53.5788953" rx="4.09008264" ry="4.0880814"></ellipse>
                <ellipse id="Oval" cx="174.487934" cy="102.368895" rx="4.09008264" ry="4.0880814"></ellipse>
                <ellipse id="Oval" cx="174.487934" cy="151.175581" rx="4.09008264" ry="4.0880814"></ellipse>
                <ellipse id="Oval" cx="174.487934" cy="200.032326" rx="4.09008264" ry="4.0880814"></ellipse>
                <ellipse id="Oval" cx="131.984463" cy="224.844477" rx="4.09008264" ry="4.0880814"></ellipse>
                <ellipse id="Oval" cx="131.951074" cy="274.201802" rx="4.09008264" ry="4.0880814"></ellipse>
                <ellipse id="Oval" cx="88.9300826" cy="249.389651" rx="4.09008264" ry="4.0880814"></ellipse>
                <ellipse id="Oval" cx="88.6128926" cy="298.429942" rx="4.09008264" ry="4.0880814"></ellipse>
                <ellipse id="Oval" cx="46.8940496" cy="273.884767" rx="4.09008264" ry="4.0880814"></ellipse>
                <ellipse id="Oval" cx="46.8940496" cy="324.460174" rx="4.09008264" ry="4.0880814"></ellipse>
                <ellipse id="Oval" cx="88.0786777" cy="347.470233" rx="4.09008264" ry="4.0880814"></ellipse>
                <ellipse id="Oval" cx="4.10677686" cy="347.470233" rx="4.09008264" ry="4.0880814"></ellipse>
                <ellipse id="Oval" cx="4.10677686" cy="300.749302" rx="4.09008264" ry="4.0880814"></ellipse>
                <ellipse id="Oval" cx="174.487934" cy="249.389651" rx="4.09008264" ry="4.0880814"></ellipse>
                <ellipse id="Oval" cx="174.621488" cy="298.429942" rx="4.09008264" ry="4.0880814"></ellipse>
                <ellipse id="Oval" cx="217.024793" cy="274.201802" rx="4.09008264" ry="4.0880814"></ellipse>
                <ellipse id="Oval" cx="131.984463" cy="324.460174" rx="4.09008264" ry="4.0880814"></ellipse>
                <ellipse id="Oval" cx="217.041488" cy="127.214419" rx="4.09008264" ry="4.0880814"></ellipse>
                <ellipse id="Oval" cx="217.158347" cy="94.6098837" rx="4.09008264" ry="4.0880814"></ellipse>
                <ellipse id="Oval" cx="246.00595" cy="77.506686" rx="4.09008264" ry="4.0880814"></ellipse>
                <ellipse id="Oval" cx="259.544959" cy="151.759593" rx="4.09008264" ry="4.0880814"></ellipse>
                <ellipse id="Oval" cx="274.269256" cy="110.778663" rx="4.09008264" ry="4.0880814"></ellipse>
                <ellipse id="Oval" cx="302.081818" cy="128.115465" rx="4.09008264" ry="4.0880814"></ellipse>
                <ellipse id="Oval" cx="302.081818" cy="78.8081977" rx="4.09008264" ry="4.0880814"></ellipse>
                <ellipse id="Oval" cx="329.89438" cy="61.3045349" rx="4.09008264" ry="4.0880814"></ellipse>
                <ellipse id="Oval" cx="344.902479" cy="101.868314" rx="4.09008264" ry="4.0880814"></ellipse>
                <ellipse id="Oval" cx="344.902479" cy="151.175581" rx="4.09008264" ry="4.0880814"></ellipse>
                <ellipse id="Oval" cx="429.675702" cy="150.941977" rx="4.09008264" ry="4.0880814"></ellipse>
                <ellipse id="Oval" cx="387.272397" cy="127.448023" rx="4.09008264" ry="4.0880814"></ellipse>
                <ellipse id="Oval" cx="387.439339" cy="175.487151" rx="4.09008264" ry="4.0880814"></ellipse>
                <ellipse id="Oval" cx="387.589587" cy="224.293837" rx="4.09008264" ry="4.0880814"></ellipse>
                <ellipse id="Oval" cx="472.36281" cy="224.060233" rx="4.09008264" ry="4.0880814"></ellipse>
                <ellipse id="Oval" cx="515.033223" cy="200.049012" rx="4.09008264" ry="4.0880814"></ellipse>
                <ellipse id="Oval" cx="515.033223" cy="249.339593" rx="4.09008264" ry="4.0880814"></ellipse>
                <ellipse id="Oval" cx="472.36281" cy="275.052791" rx="4.09008264" ry="4.0880814"></ellipse>
                <ellipse id="Oval" cx="430.994545" cy="299.130756" rx="4.09008264" ry="4.0880814"></ellipse>
                <ellipse id="Oval" cx="387.589587" cy="276.170756" rx="4.09008264" ry="4.0880814"></ellipse>
                <ellipse id="Oval" cx="387.272397" cy="324.877326" rx="4.09008264" ry="4.0880814"></ellipse>
                <ellipse id="Oval" cx="429.809256" cy="349.4225" rx="4.09008264" ry="4.0880814"></ellipse>
                <ellipse id="Oval" cx="344.902479" cy="350.14" rx="4.09008264" ry="4.0880814"></ellipse>
                <ellipse id="Oval" cx="458.272893" cy="331.668547" rx="4.09008264" ry="4.0880814"></ellipse>
                <ellipse id="Oval" cx="557.570083" cy="224.293837" rx="4.09008264" ry="4.0880814"></ellipse>
                <ellipse id="Oval" cx="600.357355" cy="251.308547" rx="4.09008264" ry="4.0880814"></ellipse>
                <ellipse id="Oval" cx="600.357355" cy="298.429942" rx="4.09008264" ry="4.0880814"></ellipse>
                <ellipse id="Oval" cx="557.570083" cy="275.052791" rx="4.09008264" ry="4.0880814"></ellipse>
                <ellipse id="Oval" cx="429.959504" cy="200.566279" rx="4.09008264" ry="4.0880814"></ellipse>
                <ellipse id="Oval" cx="430.109752" cy="248.605407" rx="4.09008264" ry="4.0880814"></ellipse>
                <ellipse id="Oval" cx="429.976198" cy="102.368895" rx="4.09008264" ry="4.0880814"></ellipse>
                <ellipse id="Oval" cx="387.439339" cy="77.506686" rx="4.09008264" ry="4.0880814"></ellipse>
                <ellipse id="Oval" cx="513.864628" cy="150.84186" rx="4.09008264" ry="4.0880814"></ellipse>
                <ellipse id="Oval" cx="471.461322" cy="127.347907" rx="4.09008264" ry="4.0880814"></ellipse>
                <ellipse id="Oval" cx="472.496364" cy="175.387035" rx="4.09008264" ry="4.0880814"></ellipse>
                <ellipse id="Oval" cx="543.196364" cy="365.474477" rx="4.09008264" ry="4.0880814"></ellipse>
                <ellipse id="Oval" cx="585.866777" cy="341.44657" rx="4.09008264" ry="4.0880814"></ellipse>
                <ellipse id="Oval" cx="585.866777" cy="389.085233" rx="4.09008264" ry="4.0880814"></ellipse>
                <ellipse id="Oval" cx="543.196364" cy="413.11314" rx="4.09008264" ry="4.0880814"></ellipse>
                <ellipse id="Oval" cx="500.793058" cy="341.980523" rx="4.09008264" ry="4.0880814"></ellipse>
                <ellipse id="Oval" cx="500.943306" cy="390.002965" rx="4.09008264" ry="4.0880814"></ellipse>
                <ellipse id="Oval" cx="500.676198" cy="438.776279" rx="4.09008264" ry="4.0880814"></ellipse>
                <ellipse id="Oval" cx="543.196364" cy="462.053314" rx="4.09008264" ry="4.0880814"></ellipse>
                <ellipse id="Oval" cx="500.676198" cy="486.431628" rx="4.09008264" ry="4.0880814"></ellipse>
                <ellipse id="Oval" cx="458.272893" cy="415.282326" rx="4.09008264" ry="4.0880814"></ellipse>
                <ellipse id="Oval" cx="387.272397" cy="373.950988" rx="4.09008264" ry="4.0880814"></ellipse>
                <ellipse id="Oval" cx="344.902479" cy="398.12907" rx="4.09008264" ry="4.0880814"></ellipse>
                <ellipse id="Oval" cx="429.809256" cy="398.512849" rx="4.09008264" ry="4.0880814"></ellipse>
                <ellipse id="Oval" cx="458.42314" cy="463.321453" rx="4.09008264" ry="4.0880814"></ellipse>
                <ellipse id="Oval" cx="387.372562" cy="422.974593" rx="4.09008264" ry="4.0880814"></ellipse>
                <ellipse id="Oval" cx="344.852397" cy="446.969128" rx="4.09008264" ry="4.0880814"></ellipse>
                <ellipse id="Oval" cx="387.372562" cy="471.914767" rx="4.09008264" ry="4.0880814"></ellipse>
                <ellipse id="Oval" cx="344.852397" cy="496.293081" rx="4.09008264" ry="4.0880814"></ellipse>
                <ellipse id="Oval" cx="344.852397" cy="528.697384" rx="4.09008264" ry="4.0880814"></ellipse>
                <ellipse id="Oval" cx="302.215372" cy="569.728372" rx="4.09008264" ry="4.0880814"></ellipse>
                <ellipse id="Oval" cx="302.215372" cy="520.537907" rx="4.09008264" ry="4.0880814"></ellipse>
                <ellipse id="Oval" cx="259.678512" cy="545.800581" rx="4.09008264" ry="4.0880814"></ellipse>
                <ellipse id="Oval" cx="259.678512" cy="496.293081" rx="4.09008264" ry="4.0880814"></ellipse>
                <ellipse id="Oval" cx="217.024793" cy="471.914767" rx="4.09008264" ry="4.0880814"></ellipse>
                <ellipse id="Oval" cx="174.621488" cy="496.293081" rx="4.09008264" ry="4.0880814"></ellipse>
                <ellipse id="Oval" cx="174.487934" cy="528.697384" rx="4.09008264" ry="4.0880814"></ellipse>
                <ellipse id="Oval" cx="146.157851" cy="480.307849" rx="4.09008264" ry="4.0880814"></ellipse>
                <ellipse id="Oval" cx="374.067273" cy="545.800581" rx="4.09008264" ry="4.0880814"></ellipse>
                <ellipse id="Oval" cx="302.449091" cy="425.160465" rx="4.09008264" ry="4.0880814"></ellipse>
                <ellipse id="Oval" cx="259.544959" cy="447.603198" rx="4.09008264" ry="4.0880814"></ellipse>
                <ellipse id="Oval" cx="217.141653" cy="422.974593" rx="4.09008264" ry="4.0880814"></ellipse>
                <ellipse id="Oval" cx="259.678512" cy="398.512849" rx="4.09008264" ry="4.0880814"></ellipse>
                <ellipse id="Oval" cx="302.081818" cy="373.950988" rx="4.09008264" ry="4.0880814"></ellipse>
                <ellipse id="Oval" cx="302.081818" cy="324.877326" rx="4.09008264" ry="4.0880814"></ellipse>
                <ellipse id="Oval" cx="259.544959" cy="349.4225" rx="4.09008264" ry="4.0880814"></ellipse>
                <ellipse id="Oval" cx="217.141653" cy="373.950988" rx="4.09008264" ry="4.0880814"></ellipse>
                <ellipse id="Oval" cx="174.621488" cy="398.462791" rx="4.09008264" ry="4.0880814"></ellipse>
                <ellipse id="Oval" cx="174.621488" cy="349.205581" rx="4.09008264" ry="4.0880814"></ellipse>
                <ellipse id="Oval" cx="217.024793" cy="324.827267" rx="4.09008264" ry="4.0880814"></ellipse>
                <ellipse id="Oval" cx="146.157851" cy="414.047558" rx="4.09008264" ry="4.0880814"></ellipse>
                <ellipse id="Oval" cx="146.157851" cy="382.277326" rx="4.09008264" ry="4.0880814"></ellipse>
                <ellipse id="Oval" cx="174.487934" cy="430.249709" rx="4.09008264" ry="4.0880814"></ellipse>
                <ellipse id="Oval" cx="302.599339" cy="473.182907" rx="4.09008264" ry="4.0880814"></ellipse>
                <ellipse id="Oval" cx="458.42314" cy="510.976802" rx="4.09008264" ry="4.0880814"></ellipse>
                <ellipse id="Oval" cx="543.346612" cy="316.801279" rx="4.09008264" ry="4.0880814"></ellipse>
                <ellipse id="Oval" cx="514.14843" cy="102.285465" rx="4.09008264" ry="4.0880814"></ellipse>
                <ellipse id="Oval" cx="557.570083" cy="45.2859302" rx="4.09008264" ry="4.0880814"></ellipse>
                <ellipse id="Oval" cx="472.496364" cy="77.3064535" rx="4.09008264" ry="4.0880814"></ellipse>
                <ellipse id="Oval" cx="557.570083" cy="77.3064535" rx="4.09008264" ry="4.0880814"></ellipse>
                <ellipse id="Oval" cx="559.239504" cy="144.684709" rx="4.09008264" ry="4.0880814"></ellipse>
                <ellipse id="Oval" cx="586.017025" cy="159.351744" rx="4.09008264" ry="4.0880814"></ellipse>
                <ellipse id="Oval" cx="557.570083" cy="175.387035" rx="4.09008264" ry="4.0880814"></ellipse>
                <ellipse id="Oval" cx="472.496364" cy="28.1827326" rx="4.09008264" ry="4.0880814"></ellipse>
                <ellipse id="Oval" cx="429.976198" cy="5.07255814" rx="4.09008264" ry="4.0880814"></ellipse>
                <ellipse id="Oval" cx="429.976198" cy="53.1283721" rx="4.09008264" ry="4.0880814"></ellipse>
                <ellipse id="Oval" cx="387.272397" cy="45.2859302" rx="4.09008264" ry="4.0880814"></ellipse>
                <ellipse id="Oval" cx="359.042479" cy="28.1827326" rx="4.09008264" ry="4.0880814"></ellipse>
                <ellipse id="Oval" cx="259.544959" cy="200.616337" rx="4.09008264" ry="4.0880814"></ellipse>
                <ellipse id="Oval" cx="217.041488" cy="225.428488" rx="4.09008264" ry="4.0880814"></ellipse>
                <ellipse id="Oval" cx="259.678512" cy="249.089302" rx="4.09008264" ry="4.0880814"></ellipse>
                <ellipse id="Oval" cx="259.795372" cy="298.129593" rx="4.09008264" ry="4.0880814"></ellipse>
                <ellipse id="Oval" cx="302.198678" cy="273.901453" rx="4.09008264" ry="4.0880814"></ellipse>
                <ellipse id="Oval" cx="344.902479" cy="299.130756" rx="4.09008264" ry="4.0880814"></ellipse>
                <ellipse id="Oval" cx="302.215372" cy="225.12814" rx="4.09008264" ry="4.0880814"></ellipse>
                <ellipse id="Oval" cx="344.902479" cy="200.032326" rx="4.09008264" ry="4.0880814"></ellipse>
                <ellipse id="Oval" cx="302.382314" cy="175.387035" rx="4.09008264" ry="4.0880814"></ellipse>
                <ellipse id="Oval" cx="344.752231" cy="248.605407" rx="4.09008264" ry="4.0880814"></ellipse>
                <ellipse id="Oval" cx="89.4309091" cy="200.299302" rx="4.09008264" ry="4.0880814"></ellipse>
                <ellipse id="Oval" cx="47.8957025" cy="225.428488" rx="4.09008264" ry="4.0880814"></ellipse>
                <ellipse id="Oval" cx="18.4304132" cy="208.909302" rx="4.09008264" ry="4.0880814"></ellipse>
                <ellipse id="Oval" cx="18.4304132" cy="241.029942" rx="4.09008264" ry="4.0880814"></ellipse>
                <ellipse id="Oval" cx="46.8940496" cy="193.057558" rx="4.09008264" ry="4.0880814"></ellipse>
            </g>
            <g id="circles" transform="translate(8.000000, 33.000000)" fill="#00152B" fill-rule="nonzero">
                <ellipse id="Oval" cx="38.9440884" cy="58.4743949" rx="10.6283978" ry="10.6301911"></ellipse>
                <ellipse id="Oval" cx="166.718453" cy="68.5038217" rx="10.6283978" ry="10.6301911"></ellipse>
                <ellipse id="Oval" cx="266.445193" cy="77.0480255" rx="10.6283978" ry="10.6301911"></ellipse>
                <ellipse id="Oval" cx="549.59105" cy="11.5313376" rx="10.6283978" ry="10.6301911"></ellipse>
                <ellipse id="Oval" cx="464.430387" cy="43.9392357" rx="10.6283978" ry="10.6301911"></ellipse>
                <ellipse id="Oval" cx="379.386519" cy="12.2989809" rx="10.6283978" ry="10.6301911"></ellipse>
                <ellipse id="Oval" cx="549.59105" cy="142.164204" rx="10.6283978" ry="10.6301911"></ellipse>
                <ellipse id="Oval" cx="592.354917" cy="264.786879" rx="10.6283978" ry="10.6301911"></ellipse>
                <ellipse id="Oval" cx="578.022431" cy="355.752611" rx="10.6283978" ry="10.6301911"></ellipse>
                <ellipse id="Oval" cx="492.728287" cy="453.109809" rx="10.6283978" ry="10.6301911"></ellipse>
                <ellipse id="Oval" cx="535.358674" cy="283.460637" rx="10.6283978" ry="10.6301911"></ellipse>
                <ellipse id="Oval" cx="336.822873" cy="495.380255" rx="10.6283978" ry="10.6301911"></ellipse>
                <ellipse id="Oval" cx="251.862431" cy="512.48535" rx="10.6283978" ry="10.6301911"></ellipse>
                <ellipse id="Oval" cx="166.718453" cy="462.972357" rx="10.6283978" ry="10.6301911"></ellipse>
                <ellipse id="Oval" cx="423.084751" cy="265.087261" rx="10.6283978" ry="10.6301911"></ellipse>
                <ellipse id="Oval" cx="209.232044" cy="291.53758" rx="10.6283978" ry="10.6301911"></ellipse>
                <ellipse id="Oval" cx="251.72895" cy="167.262803" rx="10.6283978" ry="10.6301911"></ellipse>
                <ellipse id="Oval" cx="10.7462983" cy="175.556688" rx="10.6283978" ry="10.6301911"></ellipse>
                <ellipse id="Oval" cx="138.403867" cy="381.068153" rx="10.6283978" ry="10.6301911"></ellipse>
                <ellipse id="Oval" cx="294.242541" cy="340.633376" rx="10.6283978" ry="10.6301911"></ellipse>
                <ellipse id="Oval" cx="39.1943646" cy="291.120382" rx="10.6283978" ry="10.6301911"></ellipse>
                <ellipse id="Oval" cx="80.8903867" cy="117.58293" rx="10.6283978" ry="10.6301911"></ellipse>
            </g>
        </g>
        <g id="Group-8-Copy-2" transform="translate(504.000000, 48.000000)" fill="#FFFFFF" fill-opacity="0.95" stroke="#304A6C">
            <path d="M92.0125811,64.6321983 L68.0673067,50.5797781 L46.5050848,63.2399696 L25.0248753,50.6353616 L0.98754073,64.7531047 L46.4228812,91.4201576 L92.0125811,64.6321983 Z" id="Fill-397"></path>
            <path d="M67.5,13.0338561 L46.5044288,0.581297216 L25.5,13.0339167 L25.5,37.9671933 L25.6224746,38.0408237 L46.5044068,50.4187155 L67.4660361,37.9862601 L67.5,37.966007 L67.5,13.0338561 Z" id="Fill-408"></path>
        </g>
        <g id="weaviate-rings" transform="translate(152.000000, 94.000000)">
            <path d="M277,257 L168.5,194 L61,257" id="Path-Copy" stroke="#304A6C" stroke-linejoin="round" stroke-dasharray="1,1"></path>
            <path d="M221.599262,100.663013 L115.404629,161.974513" id="Path" stroke="#364A68" stroke-dasharray="1,1" transform="translate(168.904629, 130.976149) rotate(-60.000000) translate(-168.904629, -130.976149) "></path>
            <g id="weaviate" transform="translate(102.000000, 117.000000)">
                <path d="M132.5,114.631928 L132.5,39.3680716 L67,1.73001187 L1.5,39.3680716 L1.5,114.631928 L67,152.269988 L132.5,114.631928 Z" id="Path" stroke="#00152B" stroke-width="3" fill-opacity="0.8" fill="#FFFFFF"></path>
                <g id="logos/weaviate/1/logomark/color-flat" transform="translate(29.000000, 64.000000)">
                    <g id="Weaviate1_xc">
                        <path d="M39.4971429,14.7007805 L38.5426286,14.1405374 L38.8169143,13.6587283 L39.7714286,14.2189714 L39.4971429,14.7007805 Z M36.9188571,14.9696973 L36.6445714,14.4878881 L37.5881143,13.927645 L37.8624,14.4094541 L36.9188571,14.9696973 Z M41.4061714,15.8212669 L40.4406857,15.2610237 L40.7149714,14.7792146 L41.6804571,15.3394578 L41.4061714,15.8212669 Z M35.0098286,16.0901836 L34.7355429,15.6083745 L35.6900571,15.0481313 L35.9643429,15.5299404 L35.0098286,16.0901836 Z M43.3042286,16.9417532 L42.3497143,16.38151 L42.624,15.8997009 L43.5785143,16.4599441 L43.3042286,16.9417532 Z M33.1227429,17.2218748 L32.8484571,16.7288608 L33.8029714,16.1686176 L34.0772571,16.6504267 L33.1227429,17.2218748 Z M45.1913143,18.0734444 L44.2477714,17.5132012 L44.5220571,17.0201872 L45.4765714,17.5916353 L45.1913143,18.0734444 Z M31.1917714,18.3423611 L30.9174857,17.860552 L31.872,17.3003088 L32.1462857,17.7821179 L31.1917714,18.3423611 Z M47.0125714,19.1939307 L46.0690286,18.6336875 L46.3433143,18.1518784 L47.2868571,18.7121216 L47.0125714,19.1939307 Z M29.2059429,19.4628474 L28.9865143,18.9810383 L29.952,18.4207951 L30.2262857,18.9026043 L29.2059429,19.4628474 Z M48.9545143,20.314417 L48,19.7541739 L48.2742857,19.2723647 L49.2288,19.8326079 L48.9545143,20.314417 Z M27.3298286,20.5833337 L27.0555429,20.1015246 L27.9990857,19.5412815 L28.2733714,20.0230906 L27.3298286,20.5833337 Z M50.8525714,21.4349033 L49.8980571,20.8746602 L50.1723429,20.3928511 L51.1268571,20.9530942 L50.8525714,21.4349033 Z M25.4317714,21.7038201 L25.1574857,21.2220109 L26.1010286,20.6617678 L26.3753143,21.1435769 L25.4317714,21.7038201 Z M52.7506286,22.5553897 L51.7961143,21.9951465 L52.0923429,21.5133374 L53.0468571,22.0735805 L52.7506286,22.5553897 Z M23.5227429,22.8243064 L23.2374857,22.3424973 L24.2029714,21.7822541 L24.4772571,22.2640632 L23.5227429,22.8243064 Z M54.6816,23.6870809 L53.76,23.1156328 L54.0342857,22.6338237 L54.9778286,23.1940669 L54.6816,23.6870809 Z M21.6356571,23.9559976 L21.3504,23.5302128 L22.3049143,22.9587647 L22.5792,23.4517787 L21.6356571,23.9559976 Z M56.5796571,24.8075672 L55.6361143,24.247324 L55.9104,23.7655149 L56.8539429,24.3257581 L56.5796571,24.8075672 Z M19.7485714,25.0764839 L19.4523429,24.6506991 L20.3958857,24.0904559 L20.6701714,24.572265 L19.7485714,25.0764839 Z M58.4996571,25.9280535 L57.5451429,25.3678103 L57.8194286,24.8860012 L58.7739429,25.4462444 L58.4996571,25.9280535 Z M17.8395429,26.1969702 L17.5542857,25.7711854 L18.4978286,25.2109422 L18.7721143,25.6927514 L17.8395429,26.1969702 Z M60.3428571,27.0485398 L59.3883429,26.4882967 L59.7504,26.0064875 L60.7049143,26.5667307 L60.3428571,27.0485398 Z M15.8646857,27.3174565 L15.6233143,26.8916717 L16.5778286,26.3314286 L16.8521143,26.8132377 L15.8646857,27.3174565 Z M62.2409143,28.1690261 L61.2864,27.608783 L61.5606857,27.1269739 L62.5152,27.687217 L62.2409143,28.1690261 Z M13.9666286,28.4379429 L13.7252571,28.0121581 L14.6797714,27.4519149 L14.9540571,27.933724 L13.9666286,28.4379429 Z M64.1389714,29.2895125 L63.1954286,28.7292693 L63.4697143,28.2474602 L64.4132571,28.8077033 L64.1389714,29.2895125 Z M12.1892571,29.569634 L11.9478857,29.1326444 L12.9024,28.5724012 L13.1766857,29.0542103 L12.1892571,29.569634 Z M66.1686857,30.4212036 L65.2141714,29.8609605 L65.4994286,29.3679465 L66.3442286,29.9393945 L66.1686857,30.4212036 Z M10.2802286,30.6901204 L10.0388571,30.2531307 L10.9824,29.6928875 L11.2566857,30.1746967 L10.2802286,30.6901204 Z M68.0777143,31.54169 L67.1232,30.9814468 L67.3974857,30.4996377 L68.352,31.0598809 L68.0777143,31.54169 Z M8.38217143,31.8106067 L8.1408,31.373617 L9.08434286,30.8133739 L9.35862857,31.295183 L8.38217143,31.8106067 Z M69.9318857,32.6621763 L68.9773714,32.1019331 L69.2516571,31.620124 L70.2061714,32.1803672 L69.9318857,32.6621763 Z M6.42925714,32.931093 L6.18788571,32.4941033 L7.1424,31.9338602 L7.41668571,32.4156693 L6.42925714,32.931093 Z M71.8409143,33.7826626 L70.8864,33.2224195 L71.1606857,32.7406103 L72.1152,33.3008535 L71.8409143,33.7826626 Z M4.4544,34.0515793 L4.21302857,33.6145897 L5.16754286,33.0543465 L5.4528,33.5361556 L4.4544,34.0515793 Z M73.7060571,34.9031489 L72.7625143,34.3429058 L73.0368,33.8610967 L73.9803429,34.4213398 L73.7060571,34.9031489 Z M2.58925714,35.1720657 L2.34788571,34.735076 L3.3024,34.1748328 L3.57668571,34.6566419 L2.58925714,35.1720657 Z M1.14102857,36.0348401 L0.866742857,35.553031 L1.34948571,35.2504997 L1.62377143,35.7435137 L1.14102857,36.0348401 Z M75.6041143,36.0348401 L74.6496,35.4633921 L74.9238857,34.981583 L75.8784,35.553031 L75.6041143,36.0348401 Z" id="Shape" fill="#38D611" fill-rule="nonzero"></path>
                        <path d="M3.2256,36.0684547 L2.12845714,36.0684547 L2.12845714,35.553031 L3.2256,35.553031 L3.2256,36.0684547 Z M5.41988571,36.0684547 L4.32274286,36.0684547 L4.32274286,35.553031 L5.41988571,35.553031 L5.41988571,36.0684547 Z M7.61417143,36.0684547 L6.58285714,36.0684547 L6.58285714,35.553031 L7.68,35.553031 L7.61417143,36.0684547 Z M9.80845714,36.0684547 L8.77714286,36.0684547 L8.77714286,35.553031 L9.87428571,35.553031 L9.80845714,36.0684547 Z M12.0027429,36.0684547 L10.9714286,36.0684547 L10.9714286,35.553031 L12.0685714,35.553031 L12.0027429,36.0684547 Z M14.1970286,36.0684547 L13.1657143,36.0684547 L13.1657143,35.553031 L14.2628571,35.553031 L14.1970286,36.0684547 Z M16.3913143,36.0684547 L15.36,36.0684547 L15.36,35.553031 L16.4571429,35.553031 L16.3913143,36.0684547 Z M18.5856,36.0684547 L17.5542857,36.0684547 L17.5542857,35.553031 L18.6514286,35.553031 L18.5856,36.0684547 Z M20.7798857,36.0684547 L19.7485714,36.0684547 L19.7485714,35.553031 L20.8457143,35.553031 L20.7798857,36.0684547 Z M22.9741714,36.0684547 L21.9428571,36.0684547 L21.9428571,35.553031 L23.04,35.553031 L22.9741714,36.0684547 Z M25.1684571,36.0684547 L24.1371429,36.0684547 L24.1371429,35.553031 L25.2342857,35.553031 L25.1684571,36.0684547 Z M27.3627429,36.0684547 L26.3314286,36.0684547 L26.3314286,35.553031 L27.4285714,35.553031 L27.3627429,36.0684547 Z M29.5570286,36.0684547 L28.5257143,36.0684547 L28.5257143,35.553031 L29.6228571,35.553031 L29.5570286,36.0684547 Z M31.7513143,36.0684547 L30.72,36.0684547 L30.72,35.553031 L31.8171429,35.553031 L31.7513143,36.0684547 Z M33.9456,36.0684547 L32.9142857,36.0684547 L32.9142857,35.553031 L34.0114286,35.553031 L33.9456,36.0684547 Z M36.1398857,36.0684547 L35.1085714,36.0684547 L35.1085714,35.553031 L36.2057143,35.553031 L36.1398857,36.0684547 Z M38.3341714,36.0684547 L37.3028571,36.0684547 L37.3028571,35.553031 L38.4,35.553031 L38.3341714,36.0684547 Z M40.5284571,36.0684547 L39.4971429,36.0684547 L39.4971429,35.553031 L40.5942857,35.553031 L40.5284571,36.0684547 Z M42.7227429,36.0684547 L41.6914286,36.0684547 L41.6914286,35.553031 L42.7885714,35.553031 L42.7227429,36.0684547 Z M44.9170286,36.0684547 L43.8857143,36.0684547 L43.8857143,35.553031 L44.9828571,35.553031 L44.9170286,36.0684547 Z M47.1113143,36.0684547 L46.08,36.0684547 L46.08,35.553031 L47.1771429,35.553031 L47.1113143,36.0684547 Z M49.3056,36.0684547 L48.2742857,36.0684547 L48.2742857,35.553031 L49.3714286,35.553031 L49.3056,36.0684547 Z M51.4998857,36.0684547 L50.4685714,36.0684547 L50.4685714,35.553031 L51.5657143,35.553031 L51.4998857,36.0684547 Z M53.6941714,36.0684547 L52.6628571,36.0684547 L52.6628571,35.553031 L53.76,35.553031 L53.6941714,36.0684547 Z M55.8884571,36.0684547 L54.8571429,36.0684547 L54.8571429,35.553031 L55.9542857,35.553031 L55.8884571,36.0684547 Z M58.0827429,36.0684547 L57.0514286,36.0684547 L57.0514286,35.553031 L58.1485714,35.553031 L58.0827429,36.0684547 Z M60.2770286,36.0684547 L59.2457143,36.0684547 L59.2457143,35.553031 L60.3428571,35.553031 L60.2770286,36.0684547 Z M62.4713143,36.0684547 L61.44,36.0684547 L61.44,35.553031 L62.5371429,35.553031 L62.4713143,36.0684547 Z M64.6656,36.0684547 L63.6342857,36.0684547 L63.6342857,35.553031 L64.7314286,35.553031 L64.6656,36.0684547 Z M66.8598857,36.0684547 L65.7627429,36.0684547 L65.7627429,35.553031 L66.8598857,35.553031 L66.8598857,36.0684547 Z M69.0541714,36.0684547 L67.9570286,36.0684547 L67.9570286,35.553031 L69.0541714,35.553031 L69.0541714,36.0684547 Z M71.2484571,36.0684547 L70.1513143,36.0684547 L70.1513143,35.553031 L71.2484571,35.553031 L71.2484571,36.0684547 Z M73.4427429,36.0684547 L72.3456,36.0684547 L72.3456,35.553031 L73.4427429,35.553031 L73.4427429,36.0684547 Z M75.6370286,36.0684547 L74.5398857,36.0684547 L74.5398857,35.553031 L75.6370286,35.553031 L75.6370286,36.0684547 Z" id="Shape" fill="#38D611" fill-rule="nonzero"></path>
                        <polygon id="Shape" fill="url(#linearGradient-1)" fill-rule="nonzero" points="55.9542857 0.750725836 55.9542857 22.8355112 38.4 12.4598079 20.8457143 22.8355112 20.8457143 0.750725836 0 13.0760754 0 36.4382152 19.7485714 48.1136827 38.4 37.0880973 57.0514286 48.1136827 76.8 36.4382152 76.8 13.0984851"></polygon>
                    </g>
                </g>
            </g>
            <path d="M169,319.319038 L169,192" id="Path" stroke="#364A68" stroke-dasharray="1,1"></path>
            <path d="M278.5,257.460736 L278.5,131.539264 L169,68.5767636 L59.5,131.539264 L59.5,257.460736 L169,320.423236 L278.5,257.460736 Z" id="Path" stroke="#304A6C"></path>
            <path d="M278,194 L169.5,132 L60,194" id="Path-Copy-2" stroke="#304A6C" stroke-linejoin="round" stroke-dasharray="1,1" transform="translate(169.000000, 163.000000) rotate(-180.000000) translate(-169.000000, -163.000000) "></path>
            <path d="M338.5,292.210792 L338.5,97.7892081 L169.5,0.576818748 L0.5,97.7892081 L0.5,292.210792 L169.5,389.423181 L338.5,292.210792 Z" id="Path" stroke="#304A6C"></path>
        </g>
        <g id="industries" transform="translate(128.000000, 97.000000)">
            <g id="industries-back">
                <g id="graphics/industries/white-background/academia-copy-7" transform="translate(15.000000, 57.000000)">
                    <g id="Group">
                        <path d="M0.2850816,13.9395072 L0.7077888,14.1901824" id="Shape" stroke="#FFFFFF" stroke-width="0.5"></path>
                        <path d="M1.5384576,15.1781376 L24.3892224,28.803072" id="Shape" stroke="#FFFFFF" stroke-width="0.5" stroke-dasharray="0.9682944140625005"></path>
                        <polyline id="Shape" stroke="#FFFFFF" stroke-width="0.5" points="24.8020992 28.557312 25.2248064 28.8129024 25.6475136 28.557312"></polyline>
                        <path d="M26.4781824,28.557312 L49.324032,14.9274624" id="Shape" stroke="#FFFFFF" stroke-width="0.5" stroke-dasharray="0.9682944140625005"></path>
                        <path d="M25.06752,56.5248 L25.06752,56.03328" id="Shape" stroke="#FFFFFF" stroke-width="0.5"></path>
                        <path d="M25.06752,55.3107456 L25.06752,30.96576" id="Shape" stroke="#FFFFFF" stroke-width="0.5" stroke-dasharray="0.9535488281250004"></path>
                        <path d="M25.2248064,30.547968 L25.2248064,30.056448" id="Shape" stroke="#FFFFFF" stroke-width="0.5"></path>
                        <path d="M49.14352,42.9669768 L49.14352,15.0323832 L25.0699411,1.0695213 L0.99152,15.032412 L0.99152,42.966948 L25.0699411,56.9298387 L49.14352,42.9669768 Z" id="Shape" stroke="#EAE7E7" fill-opacity="0.6" fill="#FFFFFF"></path>
                    </g>
                    <g id="Group-2" transform="translate(11.796480, 15.728640)">
                        <g id="Oval" opacity="0.89999535" fill-rule="nonzero">
                            <use fill="black" fill-opacity="1" filter="url(#filter-3)" xlink:href="#path-2"></use>
                            <use stroke="#979797" stroke-width="1" fill="#00152B" xlink:href="#path-2"></use>
                        </g>
                        <g id="icons/industries/healthcare" transform="translate(7.000000, 7.000000)">
                            <g id="background/black">
                                <mask id="mask-5" fill="white">
                                    <use xlink:href="#path-4"></use>
                                </mask>
                                <g id="Mask"></g>
                                <g id="background/white" mask="url(#mask-5)" fill="#FFFFFF">
                                    <polygon id="Combined-Shape" points="0 0 14 0 14 14 0 14"></polygon>
                                </g>
                            </g>
                        </g>
                        <circle id="Oval" stroke="#FFFFFF" stroke-width="1.179648" cx="14" cy="14" r="14"></circle>
                    </g>
                </g>
                <g id="graphics/industries/white-background/academia" transform="translate(114.000000, 0.000000)">
                    <g id="Group">
                        <path d="M0.2850816,13.9395072 L0.7077888,14.1901824" id="Shape" stroke="#FFFFFF" stroke-width="0.5"></path>
                        <path d="M1.5384576,15.1781376 L24.3892224,28.803072" id="Shape" stroke="#FFFFFF" stroke-width="0.5" stroke-dasharray="0.9682944140625004"></path>
                        <polyline id="Shape" stroke="#FFFFFF" stroke-width="0.5" points="24.8020992 28.557312 25.2248064 28.8129024 25.6475136 28.557312"></polyline>
                        <path d="M26.4781824,28.557312 L49.324032,14.9274624" id="Shape" stroke="#FFFFFF" stroke-width="0.5" stroke-dasharray="0.9682944140625004"></path>
                        <path d="M25.06752,56.5248 L25.06752,56.03328" id="Shape" stroke="#FFFFFF" stroke-width="0.5"></path>
                        <path d="M25.06752,55.3107456 L25.06752,30.96576" id="Shape" stroke="#FFFFFF" stroke-width="0.5" stroke-dasharray="0.9535488281250003"></path>
                        <path d="M25.2248064,30.547968 L25.2248064,30.056448" id="Shape" stroke="#FFFFFF" stroke-width="0.5"></path>
                        <path d="M49.14352,42.9669768 L49.14352,15.0323832 L25.0699411,1.0695213 L0.99152,15.032412 L0.99152,42.966948 L25.0699411,56.9298387 L49.14352,42.9669768 Z" id="Shape" stroke="#EAE7E7" fill-opacity="0.6" fill="#FFFFFF"></path>
                    </g>
                    <g id="Group-2" transform="translate(11.796480, 15.728640)">
                        <g id="Oval" opacity="0.89999535" fill-rule="nonzero">
                            <use fill="black" fill-opacity="1" filter="url(#filter-7)" xlink:href="#path-6"></use>
                            <use stroke="#979797" stroke-width="1" fill="#00152B" xlink:href="#path-6"></use>
                        </g>
                        <g id="icons/industries/engineering" transform="translate(7.000000, 7.000000)">
                            <g id="background/black">
                                <mask id="mask-9" fill="white">
                                    <use xlink:href="#path-8"></use>
                                </mask>
                                <g id="Mask"></g>
                                <g id="background/white" mask="url(#mask-9)" fill="#FFFFFF">
                                    <polygon id="Combined-Shape" points="0 0 14 0 14 14 0 14"></polygon>
                                </g>
                            </g>
                        </g>
                        <circle id="Oval" stroke="#FFFFFF" stroke-width="1.179648" cx="14" cy="14" r="14"></circle>
                    </g>
                </g>
                <g id="graphics/industries/white-background/academia-copy" transform="translate(320.000000, 57.000000)">
                    <g id="Group">
                        <polygon id="Shape" fill="#F7F7F7" points="25.0726088 0 50.13504 14.5646713 50.13504 43.74528 25.06752 28.9652915"></polygon>
                        <polygon id="Shape" fill="#F7F7F7" points="49.64352 43.3386379 25.0276077 28.50816 0.49152 43.3540702 25.0276077 57.99936"></polygon>
                        <path d="M0.2850816,13.9395072 L0.7077888,14.1901824" id="Shape" stroke="#FFFFFF" stroke-width="0.5"></path>
                        <path d="M1.5384576,15.1781376 L24.3892224,28.803072" id="Shape" stroke="#FFFFFF" stroke-width="0.5" stroke-dasharray="0.9682944140625004"></path>
                        <polyline id="Shape" stroke="#FFFFFF" stroke-width="0.5" points="24.8020992 28.557312 25.2248064 28.8129024 25.6475136 28.557312"></polyline>
                        <path d="M26.4781824,28.557312 L49.324032,14.9274624" id="Shape" stroke="#FFFFFF" stroke-width="0.5" stroke-dasharray="0.9682944140625004"></path>
                        <path d="M25.06752,56.5248 L25.06752,56.03328" id="Shape" stroke="#FFFFFF" stroke-width="0.5"></path>
                        <path d="M25.06752,55.3107456 L25.06752,30.96576" id="Shape" stroke="#FFFFFF" stroke-width="0.5" stroke-dasharray="0.9535488281250003"></path>
                        <path d="M25.2248064,30.547968 L25.2248064,30.056448" id="Shape" stroke="#FFFFFF" stroke-width="0.5"></path>
                        <path d="M49.14352,42.9669768 L49.14352,15.0323832 L25.0699411,1.0695213 L0.99152,15.032412 L0.99152,42.966948 L25.0699411,56.9298387 L49.14352,42.9669768 Z" id="Shape" stroke="#EAE7E7" fill-opacity="0.6" fill="#FFFFFF"></path>
                    </g>
                    <g id="Group-2" transform="translate(11.796480, 15.728640)">
                        <g id="Oval" opacity="0.89999535" fill-rule="nonzero">
                            <use fill="black" fill-opacity="1" filter="url(#filter-11)" xlink:href="#path-10"></use>
                            <use stroke="#979797" stroke-width="1" fill="#00152B" xlink:href="#path-10"></use>
                        </g>
                        <circle id="Oval" stroke="#FFFFFF" stroke-width="1.179648" cx="14" cy="14" r="14"></circle>
                        <g id="icons/industries/media-1" transform="translate(7.000000, 7.000000)">
                            <mask id="mask-13" fill="white">
                                <use xlink:href="#path-12"></use>
                            </mask>
                            <use id="Shape" fill="#000000" fill-rule="nonzero" xlink:href="#path-12"></use>
                            <g id="background/white" mask="url(#mask-13)" fill="#FFFFFF" fill-rule="evenodd">
                                <polygon id="Combined-Shape" points="0 0 14 0 14 14 0 14"></polygon>
                            </g>
                        </g>
                    </g>
                </g>
                <g id="graphics/industries/white-background/academia-copy-8" transform="translate(221.000000, 326.000000)">
                    <g id="Group">
                        <path d="M0.2850816,13.9395072 L0.7077888,14.1901824" id="Shape" stroke="#FFFFFF" stroke-width="0.5"></path>
                        <path d="M1.5384576,15.1781376 L24.3892224,28.803072" id="Shape" stroke="#FFFFFF" stroke-width="0.5" stroke-dasharray="0.9682944140625004"></path>
                        <polyline id="Shape" stroke="#FFFFFF" stroke-width="0.5" points="24.8020992 28.557312 25.2248064 28.8129024 25.6475136 28.557312"></polyline>
                        <path d="M26.4781824,28.557312 L49.324032,14.9274624" id="Shape" stroke="#FFFFFF" stroke-width="0.5" stroke-dasharray="0.9682944140625004"></path>
                        <path d="M25.06752,56.5248 L25.06752,56.03328" id="Shape" stroke="#FFFFFF" stroke-width="0.5"></path>
                        <path d="M25.06752,55.3107456 L25.06752,30.96576" id="Shape" stroke="#FFFFFF" stroke-width="0.5" stroke-dasharray="0.9535488281250003"></path>
                        <path d="M25.2248064,30.547968 L25.2248064,30.056448" id="Shape" stroke="#FFFFFF" stroke-width="0.5"></path>
                        <path d="M49.14352,42.9669768 L49.14352,15.0323832 L25.0699411,1.0695213 L0.99152,15.032412 L0.99152,42.966948 L25.0699411,56.9298387 L49.14352,42.9669768 Z" id="Shape" stroke="#EAE7E7" fill-opacity="0.6" fill="#FFFFFF"></path>
                    </g>
                    <g id="Group-2" transform="translate(11.796480, 15.728640)">
                        <g id="Oval" opacity="0.89999535" fill-rule="nonzero">
                            <use fill="black" fill-opacity="1" filter="url(#filter-15)" xlink:href="#path-14"></use>
                            <use stroke="#979797" stroke-width="1" fill="#00152B" xlink:href="#path-14"></use>
                        </g>
                        <g id="icons/industries/aviation" transform="translate(7.000000, 7.000000)">
                            <mask id="mask-17" fill="white">
                                <use xlink:href="#path-16"></use>
                            </mask>
                            <g id="Clip-2"></g>
                            <g id="background/white" mask="url(#mask-17)" fill="#FFFFFF" fill-rule="evenodd">
                                <g transform="translate(7.195853, 7.195853) rotate(-360.000000) translate(-7.195853, -7.195853) translate(0.599654, 0.599654)" id="Combined-Shape">
                                    <polygon points="0 0 13 0 13 13 0 13"></polygon>
                                </g>
                            </g>
                        </g>
                        <circle id="Oval" stroke="#FFFFFF" stroke-width="1.1993088" cx="14" cy="14" r="14"></circle>
                    </g>
                </g>
                <g id="graphics/industries/white-background/academia-copy-9" transform="translate(221.000000, 0.000000)">
                    <g id="Group">
                        <path d="M0.2850816,13.9395072 L0.7077888,14.1901824" id="Shape" stroke="#FFFFFF" stroke-width="0.5"></path>
                        <path d="M1.5384576,15.1781376 L24.3892224,28.803072" id="Shape" stroke="#FFFFFF" stroke-width="0.5" stroke-dasharray="0.9682944140625004"></path>
                        <polyline id="Shape" stroke="#FFFFFF" stroke-width="0.5" points="24.8020992 28.557312 25.2248064 28.8129024 25.6475136 28.557312"></polyline>
                        <path d="M26.4781824,28.557312 L49.324032,14.9274624" id="Shape" stroke="#FFFFFF" stroke-width="0.5" stroke-dasharray="0.9682944140625004"></path>
                        <path d="M25.06752,56.5248 L25.06752,56.03328" id="Shape" stroke="#FFFFFF" stroke-width="0.5"></path>
                        <path d="M25.06752,55.3107456 L25.06752,30.96576" id="Shape" stroke="#FFFFFF" stroke-width="0.5" stroke-dasharray="0.9535488281250003"></path>
                        <path d="M25.2248064,30.547968 L25.2248064,30.056448" id="Shape" stroke="#FFFFFF" stroke-width="0.5"></path>
                        <path d="M49.14352,42.9669768 L49.14352,15.0323832 L25.0699411,1.0695213 L0.99152,15.032412 L0.99152,42.966948 L25.0699411,56.9298387 L49.14352,42.9669768 Z" id="Shape" stroke="#EAE7E7" fill-opacity="0.6" fill="#FFFFFF"></path>
                    </g>
                    <g id="Group-2" transform="translate(11.796480, 15.728640)">
                        <g id="Oval" opacity="0.89999535" fill-rule="nonzero">
                            <use fill="black" fill-opacity="1" filter="url(#filter-19)" xlink:href="#path-18"></use>
                            <use stroke="#979797" stroke-width="1" fill="#00152B" xlink:href="#path-18"></use>
                        </g>
                        <circle id="Oval" stroke="#FFFFFF" stroke-width="1.179648" cx="14" cy="14" r="14"></circle>
                        <g id="icons/industries/retail" transform="translate(7.000000, 7.000000)">
                            <g id="background/black">
                                <mask id="mask-21" fill="white">
                                    <use xlink:href="#path-20"></use>
                                </mask>
                                <g id="Mask"></g>
                                <g id="background/white" mask="url(#mask-21)" fill="#FFFFFF">
                                    <polygon id="Combined-Shape" points="0 0 14 0 14 14 0 14"></polygon>
                                </g>
                            </g>
                        </g>
                    </g>
                </g>
                <g id="graphics/industries/white-background/academia-copy-3" transform="translate(116.000000, 327.000000)">
                    <g id="Group">
                        <path d="M0.2850816,13.9395072 L0.7077888,14.1901824" id="Shape" stroke="#FFFFFF" stroke-width="0.5"></path>
                        <path d="M1.5384576,15.1781376 L24.3892224,28.803072" id="Shape" stroke="#FFFFFF" stroke-width="0.5" stroke-dasharray="0.9682944140625004"></path>
                        <polyline id="Shape" stroke="#FFFFFF" stroke-width="0.5" points="24.8020992 28.557312 25.2248064 28.8129024 25.6475136 28.557312"></polyline>
                        <path d="M26.4781824,28.557312 L49.324032,14.9274624" id="Shape" stroke="#FFFFFF" stroke-width="0.5" stroke-dasharray="0.9682944140625004"></path>
                        <path d="M25.06752,56.5248 L25.06752,56.03328" id="Shape" stroke="#FFFFFF" stroke-width="0.5"></path>
                        <path d="M25.06752,55.3107456 L25.06752,30.96576" id="Shape" stroke="#FFFFFF" stroke-width="0.5" stroke-dasharray="0.9535488281250003"></path>
                        <path d="M25.2248064,30.547968 L25.2248064,30.056448" id="Shape" stroke="#FFFFFF" stroke-width="0.5"></path>
                        <path d="M49.14352,42.9669768 L49.14352,15.0323832 L25.0699411,1.0695213 L0.99152,15.032412 L0.99152,42.966948 L25.0699411,56.9298387 L49.14352,42.9669768 Z" id="Shape" stroke="#EAE7E7" fill-opacity="0.6" fill="#FFFFFF"></path>
                    </g>
                    <g id="Group-2" transform="translate(11.796480, 15.728640)">
                        <g id="Oval" opacity="0.89999535" fill-rule="nonzero">
                            <use fill="black" fill-opacity="1" filter="url(#filter-23)" xlink:href="#path-22"></use>
                            <use stroke="#979797" stroke-width="1" fill="#00152B" xlink:href="#path-22"></use>
                        </g>
                        <circle id="Oval" stroke="#FFFFFF" stroke-width="1.179648" cx="14" cy="14" r="14"></circle>
                        <g id="icons/industries/telecom-3" transform="translate(7.000000, 7.000000)">
                            <mask id="mask-25" fill="white">
                                <use xlink:href="#path-24"></use>
                            </mask>
                            <use id="Combined-Shape" fill="#000000" fill-rule="nonzero" xlink:href="#path-24"></use>
                            <g id="background/white" mask="url(#mask-25)" fill="#FFFFFF" fill-rule="evenodd">
                                <polygon id="Combined-Shape" points="0 0 14 0 14 14 0 14"></polygon>
                            </g>
                        </g>
                    </g>
                </g>
                <g id="graphics/industries/white-background/academia-copy-4" transform="translate(0.000000, 160.000000)">
                    <g id="Group">
                        <path d="M0.2850816,13.9395072 L0.7077888,14.1901824" id="Shape" stroke="#FFFFFF" stroke-width="0.5"></path>
                        <path d="M1.5384576,15.1781376 L24.3892224,28.803072" id="Shape" stroke="#FFFFFF" stroke-width="0.5" stroke-dasharray="0.9682944140625004"></path>
                        <polyline id="Shape" stroke="#FFFFFF" stroke-width="0.5" points="24.8020992 28.557312 25.2248064 28.8129024 25.6475136 28.557312"></polyline>
                        <path d="M26.4781824,28.557312 L49.324032,14.9274624" id="Shape" stroke="#FFFFFF" stroke-width="0.5" stroke-dasharray="0.9682944140625004"></path>
                        <path d="M25.06752,56.5248 L25.06752,56.03328" id="Shape" stroke="#FFFFFF" stroke-width="0.5"></path>
                        <path d="M25.06752,55.3107456 L25.06752,30.96576" id="Shape" stroke="#FFFFFF" stroke-width="0.5" stroke-dasharray="0.9535488281250003"></path>
                        <path d="M25.2248064,30.547968 L25.2248064,30.056448" id="Shape" stroke="#FFFFFF" stroke-width="0.5"></path>
                        <path d="M49.14352,42.9669768 L49.14352,15.0323832 L25.0699411,1.0695213 L0.99152,15.032412 L0.99152,42.966948 L25.0699411,56.9298387 L49.14352,42.9669768 Z" id="Shape" stroke="#EAE7E7" fill-opacity="0.6" fill="#FFFFFF"></path>
                    </g>
                    <g id="Group-2" transform="translate(11.796480, 15.728640)">
                        <g id="Oval" opacity="0.89999535" fill-rule="nonzero">
                            <use fill="black" fill-opacity="1" filter="url(#filter-27)" xlink:href="#path-26"></use>
                            <use stroke="#979797" stroke-width="1" fill="#00152B" xlink:href="#path-26"></use>
                        </g>
                        <circle id="Oval" stroke="#FFFFFF" stroke-width="1.179648" cx="14" cy="14" r="14"></circle>
                        <g id="icons/industries/energy-1" transform="translate(7.000000, 7.000000)">
                            <mask id="mask-29" fill="white">
                                <use xlink:href="#path-28"></use>
                            </mask>
                            <g id="Path" fill-rule="nonzero"></g>
                            <g id="background/white" mask="url(#mask-29)" fill="#FFFFFF" fill-rule="evenodd">
                                <polygon id="Combined-Shape" points="0 0 14 0 14 14 0 14"></polygon>
                            </g>
                        </g>
                    </g>
                </g>
                <g id="graphics/industries/white-background/academia-copy-5" transform="translate(336.000000, 160.000000)">
                    <g id="Group">
                        <path d="M0.2850816,13.9395072 L0.7077888,14.1901824" id="Shape" stroke="#FFFFFF" stroke-width="0.5"></path>
                        <path d="M1.5384576,15.1781376 L24.3892224,28.803072" id="Shape" stroke="#FFFFFF" stroke-width="0.5" stroke-dasharray="0.9682944140625004"></path>
                        <polyline id="Shape" stroke="#FFFFFF" stroke-width="0.5" points="24.8020992 28.557312 25.2248064 28.8129024 25.6475136 28.557312"></polyline>
                        <path d="M26.4781824,28.557312 L49.324032,14.9274624" id="Shape" stroke="#FFFFFF" stroke-width="0.5" stroke-dasharray="0.9682944140625004"></path>
                        <path d="M25.06752,56.5248 L25.06752,56.03328" id="Shape" stroke="#FFFFFF" stroke-width="0.5"></path>
                        <path d="M25.06752,55.3107456 L25.06752,30.96576" id="Shape" stroke="#FFFFFF" stroke-width="0.5" stroke-dasharray="0.9535488281250003"></path>
                        <path d="M25.2248064,30.547968 L25.2248064,30.056448" id="Shape" stroke="#FFFFFF" stroke-width="0.5"></path>
                        <path d="M49.14352,42.9669768 L49.14352,15.0323832 L25.0699411,1.0695213 L0.99152,15.032412 L0.99152,42.966948 L25.0699411,56.9298387 L49.14352,42.9669768 Z" id="Shape" stroke="#EAE7E7" fill-opacity="0.6" fill="#FFFFFF"></path>
                    </g>
                    <g id="Group-2" transform="translate(11.796480, 15.728640)">
                        <g id="Oval" opacity="0.89999535" fill-rule="nonzero">
                            <use fill="black" fill-opacity="1" filter="url(#filter-31)" xlink:href="#path-30"></use>
                            <use stroke="#979797" stroke-width="1" fill="#00152B" xlink:href="#path-30"></use>
                        </g>
                        <circle id="Oval" stroke="#FFFFFF" stroke-width="1.179648" cx="14" cy="14" r="14"></circle>
                        <g id="icons/industries/academia-2" transform="translate(7.000000, 7.000000)">
                            <mask id="mask-33" fill="white">
                                <use xlink:href="#path-32"></use>
                            </mask>
                            <g id="Combined-Shape" fill-rule="nonzero"></g>
                            <g id="background/white" mask="url(#mask-33)" fill="#FFFFFF" fill-rule="evenodd">
                                <polygon id="Combined-Shape" points="0 0 14 0 14 14 0 14"></polygon>
                            </g>
                        </g>
                    </g>
                </g>
                <g id="graphics/industries/white-background/academia-copy-6" transform="translate(15.000000, 270.000000)">
                    <g id="Group">
                        <path d="M0.2850816,13.9395072 L0.7077888,14.1901824" id="Shape" stroke="#FFFFFF" stroke-width="0.5"></path>
                        <path d="M1.5384576,15.1781376 L24.3892224,28.803072" id="Shape" stroke="#FFFFFF" stroke-width="0.5" stroke-dasharray="0.9682944140625004"></path>
                        <polyline id="Shape" stroke="#FFFFFF" stroke-width="0.5" points="24.8020992 28.557312 25.2248064 28.8129024 25.6475136 28.557312"></polyline>
                        <path d="M26.4781824,28.557312 L49.324032,14.9274624" id="Shape" stroke="#FFFFFF" stroke-width="0.5" stroke-dasharray="0.9682944140625004"></path>
                        <path d="M25.06752,56.5248 L25.06752,56.03328" id="Shape" stroke="#FFFFFF" stroke-width="0.5"></path>
                        <path d="M25.06752,55.3107456 L25.06752,30.96576" id="Shape" stroke="#FFFFFF" stroke-width="0.5" stroke-dasharray="0.9535488281250003"></path>
                        <path d="M25.2248064,30.547968 L25.2248064,30.056448" id="Shape" stroke="#FFFFFF" stroke-width="0.5"></path>
                        <path d="M49.14352,42.9669768 L49.14352,15.0323832 L25.0699411,1.0695213 L0.99152,15.032412 L0.99152,42.966948 L25.0699411,56.9298387 L49.14352,42.9669768 Z" id="Shape" stroke="#EAE7E7" fill-opacity="0.6" fill="#FFFFFF"></path>
                    </g>
                    <g id="Group-2" transform="translate(11.796480, 15.728640)">
                        <g id="Oval" opacity="0.89999535" fill-rule="nonzero">
                            <use fill="black" fill-opacity="1" filter="url(#filter-35)" xlink:href="#path-34"></use>
                            <use stroke="#979797" stroke-width="1" fill="#00152B" xlink:href="#path-34"></use>
                        </g>
                        <circle id="Oval" stroke="#FFFFFF" stroke-width="1.179648" cx="14" cy="14" r="14"></circle>
                        <g id="icons/industries/government" transform="translate(7.000000, 7.000000)">
                            <mask id="mask-37" fill="white">
                                <use xlink:href="#path-36"></use>
                            </mask>
                            <g id="Combined-Shape" fill-rule="nonzero"></g>
                            <g id="background/white" mask="url(#mask-37)" fill="#FFFFFF" fill-rule="evenodd">
                                <polygon id="Combined-Shape" points="0 0 14 0 14 14 0 14"></polygon>
                            </g>
                        </g>
                    </g>
                </g>
            </g>
            <g id="graphics/industries/white-background/finance" transform="translate(291.000000, 226.000000)">
                <g id="Group">
                    <polygon id="Shape" fill="#BCF0A7" fill-rule="nonzero" style="mix-blend-mode: multiply;" opacity="0.7" points="55.0268946 0 0 31.4358912 0 94.4183243 55.0380676 62.5176998"></polygon>
                    <polygon id="Shape" fill="#BCF0A7" fill-rule="nonzero" style="mix-blend-mode: multiply;" opacity="0.7" points="55.0492406 0 110.076135 31.4358912 110.076135 94.4183243 55.0380676 62.5176998"></polygon>
                    <polygon id="Shape" fill="#BCF0A7" fill-rule="nonzero" opacity="0.7" points="108.996957 93.5406417 54.9504364 61.5310428 1.0791778 93.5739504 54.9504364 125.183846"></polygon>
                    <path d="M0.625923122,30.0865582 L1.55401603,30.627607" id="Shape" stroke="#FFFFFF" stroke-width="1.06936709"></path>
                    <path d="M3.3778265,32.7599759 L53.5488022,62.1675708" id="Shape" stroke="#FFFFFF" stroke-width="1.06936709" stroke-dasharray="2.1066531951518"></path>
                    <polyline id="Shape" stroke="#FFFFFF" stroke-width="1.06936709" points="54.4553116 61.6371308 55.3834045 62.1887884 56.3114974 61.6371308"></polyline>
                    <path d="M58.1353079,61.6371308 L108.295492,32.2189271" id="Shape" stroke="#FFFFFF" stroke-width="1.06936709" stroke-dasharray="2.1066531951518"></path>
                    <path d="M55.0380676,122.001206 L55.0380676,120.940325" id="Shape" stroke="#FFFFFF" stroke-width="1.06936709"></path>
                    <path d="M55.0380676,119.380832 L55.0380676,66.835443" id="Shape" stroke="#FFFFFF" stroke-width="1.06936709" stroke-dasharray="2.07457221308841"></path>
                    <path d="M55.3834045,65.933695 L55.3834045,64.8728149" id="Shape" stroke="#FFFFFF" stroke-width="1.06936709"></path>
                    <polygon id="Shape" stroke="#00152B" stroke-width="4.27746835" points="108.996957 93.3600962 108.996957 31.8237495 55.0434382 1.06088005 1.0791778 31.8237495 1.0791778 93.3600962 55.0434382 124.122966"></polygon>
                </g>
                <g id="Group-2" transform="translate(25.900267, 33.948162)">
                    <g id="Oval" fill-rule="nonzero">
                        <use fill="black" fill-opacity="1" filter="url(#filter-39)" xlink:href="#path-38"></use>
                        <use fill="#00152B" xlink:href="#path-38"></use>
                    </g>
                    <ellipse id="Oval" stroke="#FFFFFF" stroke-width="2.56648101" cx="29.1378005" cy="28.6437613" rx="29.1378005" ry="28.6437613"></ellipse>
                    <g id="icons/industries/finance" transform="translate(13.000000, 13.000000)">
                        <g id="background/black" transform="translate(6.623177, 0.000000)">
                            <mask id="mask-41" fill="white">
                                <use xlink:href="#path-40"></use>
                            </mask>
                            <g id="Mask"></g>
                            <g id="background/white" mask="url(#mask-41)" fill="#FFFFFF">
                                <polygon id="Combined-Shape" points="0 0 19 0 19 32 0 32"></polygon>
                            </g>
                        </g>
                    </g>
                </g>
            </g>
        </g>
        <path d="M416,414 L322.106452,363" id="Path" stroke="#FA0171" stroke-width="3" stroke-dasharray="6,3"></path>
        <g id="Group-2" transform="translate(510.000000, 120.000000)">
            <circle id="Oval" fill="#00152B" fill-rule="nonzero" cx="27" cy="27" r="27"></circle>
            <circle id="Oval" stroke="#00152B" stroke-width="4" cx="27" cy="27" r="27"></circle>
            <g id="ic_devices" transform="translate(12.272727, 12.272727)">
                <mask id="mask-43" fill="white">
                    <use xlink:href="#path-42"></use>
                </mask>
                <g id="Mask"></g>
                <g id="background/white" mask="url(#mask-43)" fill="#FFFFFF" fill-rule="evenodd">
                    <g transform="translate(-15.600000, -15.600000)" id="Combined-Shape">
                        <polygon points="0 0 60 0 60 60 0 60"></polygon>
                    </g>
                </g>
            </g>
        </g>
        <path d="M538,321.952348 L479.05533,288 L479.05533,177.48" id="Path" stroke="#FA0171" stroke-width="3" stroke-dasharray="6,3" transform="translate(508.527665, 249.716174) scale(-1, 1) translate(-508.527665, -249.716174) "></path>
        <g id="Group-8" transform="translate(522.000000, 149.000000)" fill="#FFFFFF" fill-opacity="0.95" stroke="#304A6C">
            <path d="M92.0125811,64.6321983 L68.0673067,50.5797781 L46.5050848,63.2399696 L25.0248753,50.6353616 L0.98754073,64.7531047 L46.4228812,91.4201576 L92.0125811,64.6321983 Z" id="Fill-397"></path>
            <path d="M67.5,13.0338561 L46.5044288,0.581297216 L25.5,13.0339167 L25.5,37.9671933 L25.6224746,38.0408237 L46.5044068,50.4187155 L67.4660361,37.9862601 L67.5,37.966007 L67.5,13.0338561 Z" id="Fill-408"></path>
        </g>
        <g id="Group-8-Copy" transform="translate(429.000000, 120.000000)">
            <path d="M92.0125811,64.6321983 L68.0673067,50.5797781 L46.5050848,63.2399696 L25.0248753,50.6353616 L0.98754073,64.7531047 L46.4228812,91.4201576 L92.0125811,64.6321983 Z" id="Fill-397" stroke="#304A6C" fill-opacity="0.95" fill="#FFFFFF"></path>
            <path d="M67.5,13.0338561 L46.5044288,0.581297216 L25.5,13.0339167 L25.5,37.9671933 L25.6224746,38.0408237 L46.5044068,50.4187155 L67.4660361,37.9862601 L67.5,37.966007 L67.5,13.0338561 Z" id="Fill-408" stroke="#304A6C" fill-opacity="0.95" fill="#FFFFFF"></path>
            <path d="M49,38 C50.5238095,36.6666667 51.8571429,36.6666667 53,38" id="Path-7" stroke="#00152B" transform="translate(51.000000, 37.500000) scale(1, -1) translate(-51.000000, -37.500000) "></path>
            <polygon id="Fill-408" fill="#00152B" points="60 26.7499458 60 28.25 59.9806129 28.2597473 58.5003127 29 57.025641 28.2629964 57 28.25 57 26.7499458 58.5003127 26"></polygon>
            <polygon id="Fill-408-Copy" fill="#00152B" points="44 26.7499458 44 28.25 43.9806129 28.2597473 42.5003127 29 41.025641 28.2629964 41 28.25 41 26.7499458 42.5003127 26"></polygon>
        </g>
        <rect id="Rectangle-Copy-9" fill="#00152B" x="560" y="184" width="3" height="3"></rect>
        <rect id="Rectangle-Copy-10" fill="#00152B" x="549" y="89" width="3" height="3"></rect>
        <rect id="Rectangle-Copy-11" fill="#00152B" x="541" y="79" width="3" height="3"></rect>
        <rect id="Rectangle-Copy-12" fill="#00152B" x="557" y="79" width="3" height="3"></rect>
        <path d="" id="Path-6" stroke="#979797"></path>
        <path d="M568,175 C569.52381,173.666667 570.857143,173.666667 572,175" id="Path-7" stroke="#00152B"></path>
        <path d="M552,175 C553.52381,173.666667 554.857143,173.666667 556,175" id="Path-7-Copy" stroke="#00152B"></path>
    </g>
</svg>