<svg xmlns="http://www.w3.org/2000/svg" viewBox="0 0 596.31 565.57"><defs><style>.cls-1{opacity:0.5;}.cls-2,.cls-4,.cls-5{fill:none;}.cls-2{stroke:#b3b3b3;stroke-width:0.86px;}.cls-2,.cls-4,.cls-5,.cls-6,.cls-9{stroke-miterlimit:10;}.cls-3{fill:gray;}.cls-4,.cls-5,.cls-6{stroke:#364a68;}.cls-4,.cls-5{stroke-width:3px;}.cls-5{stroke-dasharray:4 4;}.cls-6,.cls-8{fill:#38d611;}.cls-6{stroke-width:2px;}.cls-10,.cls-7,.cls-9{fill:#364a68;}.cls-10,.cls-9{stroke:#38d611;}.cls-10{stroke-linejoin:round;stroke-width:5px;}</style></defs><title>support</title><g id="Layer_2" data-name="Layer 2"><g id="we_logo" data-name="we logo"><g class="cls-1"><polyline class="cls-2" points="231.78 182.59 187.71 208.03 187.71 258.91 231.78 284.35 275.84 258.91 275.84 208.03"/><polyline class="cls-2" points="187.71 208.03 231.78 233.47 231.78 284.38 231.78 335.83"/><polyline class="cls-2" points="275.84 208.03 231.78 233.47 187.71 258.91"/><polyline class="cls-2" points="231.78 233.47 275.84 258.91 306.12 277.31 320.2 285.87 320.2 284.71 320.2 233.27 320.2 182.35 364.27 156.91"/><line class="cls-2" x1="99.58" y1="258.93" x2="55.51" y2="233.48"/><polyline class="cls-2" points="99.58 208.03 143.64 233.47 143.64 284.38 99.58 311.04 143.64 336.98 187.71 311.33"/><polyline class="cls-2" points="187.71 208.03 143.64 233.47 99.58 258.91"/><polyline class="cls-2" points="231.78 182.59 187.71 157.15 187.71 106.26 187.71 73.08 217.91 55.35"/><line class="cls-2" x1="247.03" y1="89.67" x2="275.84" y2="107.81"/><line class="cls-2" x1="55.51" y1="335.83" x2="11.45" y2="311.33"/><polygon class="cls-2" points="569.84 378.75 569.84 327.87 525.78 302.43 481.71 327.87 481.71 378.75 525.78 404.19 569.84 378.75"/><polyline class="cls-2" points="569.84 327.87 525.78 353.31 481.71 378.75"/><polyline class="cls-2" points="320.2 131.47 364.27 156.91 364.27 207.79 320.2 233.24 276.14 207.79 276.14 156.91"/><polyline class="cls-2" points="276.14 156.91 320.2 182.35 364.27 207.79"/><line class="cls-2" x1="320.2" y1="182.35" x2="276.14" y2="207.79"/><polygon class="cls-2" points="320.2 131.47 320.2 80.59 364.27 55.15 408.33 80.59 408.33 131.47 364.27 156.91 320.2 131.47"/><polyline class="cls-2" points="408.04 131.47 363.97 106.03 319.9 80.59 275.84 56.7 275.84 107.76"/><polyline class="cls-2" points="452.4 207.81 452.4 156.93 496.46 131.49 540.53 156.93 540.53 207.81 496.46 233.25"/><polyline class="cls-2" points="540.53 124.01 570.01 140.44 540.53 156.93 496.46 182.37 496.46 233.28"/><polyline class="cls-2" points="452.4 156.93 496.46 182.37 540.53 207.81 540.53 260.21 584.86 284.71 584.86 234.56"/><line class="cls-2" x1="452.4" y1="207.81" x2="496.47" y2="182.37"/><polygon class="cls-2" points="364.27 207.79 364.27 156.91 408.33 131.47 452.4 156.91 452.4 207.79 408.33 233.24 364.27 207.79"/><polyline class="cls-2" points="452.4 156.91 408.33 182.35 408.33 233.27 452.4 259.93 408.33 285.87 364.1 260.12"/><polyline class="cls-2" points="364.27 156.91 408.33 182.35 452.4 207.79"/><polyline class="cls-2" points="320.2 131.47 364.27 106.03 364.27 55.15 364.27 21.96 334.07 4.23"/><line class="cls-2" x1="304.65" y1="38.55" x2="275.84" y2="56.7"/><polygon class="cls-2" points="275.97 413.51 275.97 464.4 231.91 489.84 187.84 464.4 187.84 413.51 231.91 388.07 275.97 413.51"/><polyline class="cls-2" points="231.91 388.04 231.91 438.96 187.84 464.4 143.78 489.84 143.78 523.04"/><polyline class="cls-2" points="275.97 464.4 231.91 438.96 187.84 413.51"/><line class="cls-2" x1="275.97" y1="413.52" x2="231.91" y2="438.96"/><polyline class="cls-2" points="364.1 413.53 320.04 388.09 320.04 337.21 364.1 311.77 408.17 337.21 408.17 388.09"/><polyline class="cls-2" points="320.04 388.09 364.1 362.65 364.1 311.74 364.1 260.12"/><polyline class="cls-2" points="408.17 388.09 364.1 362.65 320.04 337.21"/><polyline class="cls-2" points="364.1 362.65 408.17 337.21 438.45 318.81"/><polygon class="cls-2" points="364.1 413.53 364.1 464.41 320.04 489.85 275.97 464.41 275.97 413.53 320.04 388.09 364.1 413.53"/><polyline class="cls-2" points="275.97 413.53 320.04 438.97 364.1 464.41 397.17 482.34 437.65 504.68"/><polyline class="cls-2" points="231.91 337.19 231.91 388.07 187.84 413.51 143.78 388.07 143.78 337.19"/><polyline class="cls-2" points="143.78 421 114.29 404.56 143.78 388.07 187.84 362.63 187.84 311.72"/><line class="cls-2" x1="231.91" y1="337.19" x2="187.84" y2="362.63"/><polygon class="cls-2" points="320.04 337.21 320.04 388.09 275.97 413.53 231.91 388.09 231.91 337.21 275.97 311.77 320.04 337.21"/><polyline class="cls-2" points="231.91 388.09 275.97 362.65 275.97 311.74 231.91 285.08"/><polyline class="cls-2" points="320.04 388.09 275.97 362.65 231.91 337.21"/><line class="cls-2" x1="114.29" y1="472.88" x2="143.78" y2="489.84"/><line class="cls-2" x1="114.29" y1="371.27" x2="114.29" y2="404.56"/><polyline class="cls-2" points="275.97 565.57 275.97 514.83 231.91 489.84 231.91 541.06"/><polyline class="cls-2" points="364.1 413.53 320.04 438.97 320.04 489.85 320.04 523.04 350.24 540.77"/><line class="cls-2" x1="481.71" y1="327.87" x2="569.84" y2="378.75"/><circle class="cls-3" cx="187.72" cy="156.91" r="4.23"/><circle class="cls-3" cx="99.6" cy="208.08" r="4.23"/><circle class="cls-3" cx="99.58" cy="259.24" r="4.23"/><circle class="cls-3" cx="55.01" cy="233.52" r="4.23"/><circle class="cls-3" cx="11.45" cy="311.33" r="4.23"/><circle class="cls-3" cx="54.11" cy="335.19" r="4.23"/><circle class="cls-3" cx="143.64" cy="233.52" r="4.23"/><circle class="cls-3" cx="143.78" cy="284.35" r="4.23"/><circle class="cls-3" cx="187.71" cy="259.24" r="4.23"/><circle class="cls-3" cx="99.6" cy="311.33" r="4.23"/><circle class="cls-3" cx="187.72" cy="106.88" r="4.23"/><circle class="cls-3" cx="187.86" cy="73.08" r="4.23"/><circle class="cls-3" cx="217.73" cy="55.35" r="4.23"/><circle class="cls-3" cx="231.76" cy="132.33" r="4.23"/><circle class="cls-3" cx="247.03" cy="89.85" r="4.23"/><circle class="cls-3" cx="275.84" cy="107.81" r="4.23"/><circle class="cls-3" cx="275.84" cy="56.7" r="4.23"/><circle class="cls-3" cx="304.65" cy="38.55" r="4.23"/><circle class="cls-3" cx="320.2" cy="80.6" r="4.23"/><circle class="cls-3" cx="320.2" cy="131.72" r="4.23"/><circle class="cls-3" cx="408.04" cy="131.47" r="4.23"/><circle class="cls-3" cx="364.1" cy="107.12" r="4.23"/><circle class="cls-3" cx="364.27" cy="156.91" r="4.23"/><circle class="cls-3" cx="364.42" cy="207.51" r="4.23"/><circle class="cls-3" cx="452.25" cy="207.26" r="4.23"/><circle class="cls-3" cx="496.47" cy="182.37" r="4.23"/><circle class="cls-3" cx="496.47" cy="233.47" r="4.23"/><circle class="cls-3" cx="452.25" cy="260.12" r="4.23"/><circle class="cls-3" cx="409.4" cy="285.08" r="4.23"/><circle class="cls-3" cx="364.42" cy="261.29" r="4.23"/><circle class="cls-3" cx="364.1" cy="311.77" r="4.23"/><circle class="cls-3" cx="408.17" cy="337.21" r="4.23"/><circle class="cls-3" cx="320.2" cy="337.96" r="4.23"/><circle class="cls-3" cx="437.65" cy="318.8" r="4.23"/><circle class="cls-3" cx="540.53" cy="207.51" r="4.23"/><circle class="cls-3" cx="584.86" cy="235.51" r="4.23"/><circle class="cls-3" cx="584.86" cy="284.35" r="4.23"/><circle class="cls-3" cx="540.53" cy="260.12" r="4.23"/><circle class="cls-3" cx="408.32" cy="182.91" r="4.23"/><circle class="cls-3" cx="408.48" cy="232.71" r="4.23"/><circle class="cls-3" cx="408.33" cy="81.13" r="4.23"/><circle class="cls-3" cx="364.27" cy="55.35" r="4.23"/><circle class="cls-3" cx="495.25" cy="131.37" r="4.23"/><circle class="cls-3" cx="452.4" cy="156.81" r="4.23"/><circle class="cls-3" cx="525.64" cy="353.84" r="4.23"/><circle class="cls-3" cx="569.85" cy="328.95" r="4.23"/><circle class="cls-3" cx="569.85" cy="378.31" r="4.23"/><circle class="cls-3" cx="525.64" cy="403.23" r="4.23"/><circle class="cls-3" cx="481.7" cy="329.49" r="4.23"/><circle class="cls-3" cx="481.87" cy="379.28" r="4.23"/><circle class="cls-3" cx="364.1" cy="362.63" r="4.23"/><circle class="cls-3" cx="320.2" cy="387.7" r="4.23"/><circle class="cls-3" cx="408.17" cy="388.09" r="4.23"/><circle class="cls-3" cx="364.2" cy="413.46" r="4.23"/><circle class="cls-3" cx="320.14" cy="438.33" r="4.23"/><circle class="cls-3" cx="364.2" cy="464.18" r="4.23"/><circle class="cls-3" cx="320.14" cy="489.45" r="4.23"/><circle class="cls-3" cx="320.14" cy="523.04" r="4.23"/><circle class="cls-3" cx="275.97" cy="514.57" r="4.23"/><circle class="cls-3" cx="231.91" cy="540.77" r="4.23"/><circle class="cls-3" cx="231.91" cy="489.45" r="4.23"/><circle class="cls-3" cx="187.71" cy="464.18" r="4.23"/><circle class="cls-3" cx="143.78" cy="489.45" r="4.23"/><circle class="cls-3" cx="143.64" cy="523.04" r="4.23"/><circle class="cls-3" cx="114.29" cy="472.88" r="4.23"/><circle class="cls-3" cx="350.41" cy="540.77" r="4.23"/><circle class="cls-3" cx="276.21" cy="415.71" r="4.23"/><circle class="cls-3" cx="231.76" cy="438.97" r="4.23"/><circle class="cls-3" cx="187.84" cy="413.46" r="4.23"/><circle class="cls-3" cx="231.91" cy="388.09" r="4.23"/><circle class="cls-3" cx="275.84" cy="362.63" r="4.23"/><circle class="cls-3" cx="275.84" cy="311.77" r="4.23"/><circle class="cls-3" cx="231.76" cy="337.21" r="4.23"/><circle class="cls-3" cx="187.84" cy="362.63" r="4.23"/><circle class="cls-3" cx="143.78" cy="388.04" r="4.23"/><circle class="cls-3" cx="143.78" cy="336.98" r="4.23"/><circle class="cls-3" cx="187.71" cy="311.72" r="4.23"/><circle class="cls-3" cx="114.29" cy="404.19" r="4.23"/><circle class="cls-3" cx="114.29" cy="371.27" r="4.23"/><circle class="cls-3" cx="143.64" cy="420.99" r="4.23"/><circle class="cls-3" cx="276.38" cy="465.5" r="4.23"/><circle class="cls-3" cx="437.82" cy="504.68" r="4.23"/><circle class="cls-3" cx="525.79" cy="303.39" r="4.23"/><circle class="cls-3" cx="542.26" cy="125" r="4.23"/><circle class="cls-3" cx="570.01" cy="140.19" r="4.23"/><circle class="cls-3" cx="540.53" cy="156.81" r="4.23"/><circle class="cls-3" cx="364.1" cy="21.96" r="4.23"/><circle class="cls-3" cx="334.85" cy="4.23" r="4.23"/><circle class="cls-3" cx="231.76" cy="182.96" r="4.23"/><circle class="cls-3" cx="187.72" cy="208.68" r="4.23"/><circle class="cls-3" cx="231.9" cy="233.21" r="4.23"/><circle class="cls-3" cx="232.03" cy="284.04" r="4.23"/><circle class="cls-3" cx="275.96" cy="258.93" r="4.23"/><circle class="cls-3" cx="320.2" cy="285.08" r="4.23"/><circle class="cls-3" cx="275.98" cy="208.37" r="4.23"/><circle class="cls-3" cx="320.2" cy="182.35" r="4.23"/><circle class="cls-3" cx="276.14" cy="156.81" r="4.23"/><circle class="cls-3" cx="320.04" cy="232.71" r="4.23"/><circle class="cls-2" cx="247.03" cy="89.46" r="11.02"/><circle class="cls-2" cx="364.1" cy="22.36" r="11.02"/><circle class="cls-2" cx="540.53" cy="156.96" r="11.02"/><circle class="cls-2" cx="584.86" cy="284.04" r="11.02"/><circle class="cls-2" cx="570.01" cy="378.31" r="11.02"/><circle class="cls-2" cx="525.78" cy="303.39" r="11.02"/><circle class="cls-2" cx="319.97" cy="523.04" r="11.02"/><circle class="cls-2" cx="231.91" cy="540.77" r="11.02"/><circle class="cls-2" cx="143.64" cy="489.45" r="11.02"/><circle class="cls-2" cx="409.4" cy="284.35" r="11.02"/><circle class="cls-2" cx="187.71" cy="311.77" r="11.02"/><circle class="cls-2" cx="231.76" cy="182.96" r="11.02"/><circle class="cls-2" cx="114.29" cy="404.56" r="11.02"/><circle class="cls-2" cx="275.84" cy="362.65" r="11.02"/><circle class="cls-2" cx="11.45" cy="311.33" r="11.02"/></g><polyline class="cls-4" points="425.39 499.8 428.39 460.4 493.75 396.61 493.75 281.61 477.54 264.83 454.27 279.67 451.56 334.42"/><polyline class="cls-4" points="352.2 500.49 357.13 419.81 373.53 396.07 396.9 386.95 450.1 334.42 472.63 336.5 476.71 362.79 421.5 417.45"/><polyline class="cls-4" points="213.15 499.8 210.14 460.4 144.78 396.61 144.78 281.61 161 264.83 184.26 279.67 186.97 334.42"/><polyline class="cls-4" points="286.33 500.49 281.4 419.81 265 396.07 241.63 386.95 188.43 334.42 165.91 336.5 161.82 362.79 217.03 417.45"/><polyline class="cls-5" points="477.33 267.09 452.4 156.81 318.13 82.87"/><polyline class="cls-5" points="161.58 266.84 186.52 156.56 320.79 82.61"/><polygon class="cls-6" points="501.39 191.88 501.39 148.22 463.57 126.38 425.75 148.22 425.75 191.88 463.57 213.72 501.39 191.88"/><polygon class="cls-6" points="357.08 104.44 357.08 60.77 319.27 38.94 281.45 60.77 281.45 104.44 319.27 126.28 357.08 104.44"/><polygon class="cls-6" points="211.23 191.88 211.23 148.22 173.41 126.38 135.59 148.22 135.59 191.88 173.41 213.72 211.23 191.88"/><path class="cls-7" d="M314.75,90.64l-.07-1.76c-.2-3.44.95-6.94,4-10.59,2.16-2.56,3.92-4.72,3.92-7s-1.55-3.92-4.93-4a12.81,12.81,0,0,0-6.68,2l-2.29-7.35A23.12,23.12,0,0,1,320,59.13c8.9,0,12.95,4.93,12.95,10.53,0,5.12-3.17,8.5-5.74,11.33a11.66,11.66,0,0,0-3.44,8.43v1.22ZM313,100a6,6,0,1,1,6,6.14A5.84,5.84,0,0,1,313,100Z"/><path class="cls-7" d="M478,185.17v12l-.61-.49-13.76-11.26a1.09,1.09,0,0,0-.64-.21H446.44a4.83,4.83,0,0,1-4.93-3.83,4.62,4.62,0,0,1-.13-1.17q0-12.39,0-24.8a4.85,4.85,0,0,1,5-5h36.75a4.82,4.82,0,0,1,5,4.77c0,.13,0,.26,0,.4q0,12.19,0,24.41a5.08,5.08,0,0,1-1.66,4,4.83,4.83,0,0,1-3.36,1.22H478Z"/><path class="cls-8" d="M480.88,159v2.88H448.64V159Z"/><path class="cls-8" d="M480.88,166.12V169H448.63v-2.87Z"/><path class="cls-8" d="M448.62,176.16v-2.87h32.24v2.87Z"/><path class="cls-7" d="M148.13,164.69A14.61,14.61,0,0,1,153.75,153a3.83,3.83,0,0,1,5.53,1c1,1.72,2.05,3.36,3.07,5a4.76,4.76,0,0,1,.83,3,3.79,3.79,0,0,1-2.09,2.9c-.5.3-1,.56-1.51.89a2.58,2.58,0,0,0-.59,4,16.58,16.58,0,0,0,1.3,1.48q5.46,5.46,11,10.92a6.35,6.35,0,0,0,1.06.88,2.66,2.66,0,0,0,3.68-.47c.66-.78,1.19-1.67,1.8-2.49a3.24,3.24,0,0,1,4.31-.94c2.13,1.19,4.24,2.44,6.3,3.75a3.13,3.13,0,0,1,1.25,2.27,3.86,3.86,0,0,1-1,3.33,14.91,14.91,0,0,1-7.22,4.66,16.15,16.15,0,0,1-7.57.12,24.42,24.42,0,0,1-11.29-5.85,78.54,78.54,0,0,1-8.78-9.09,23.73,23.73,0,0,1-5.41-11.15,8.3,8.3,0,0,1-.14-1C148.17,165.72,148.15,165.21,148.13,164.69Z"/><path class="cls-9" d="M171.91,143.54a25.66,25.66,0,0,1,10.45,2.31,27.1,27.1,0,0,1,12.29,10.88,25.85,25.85,0,0,1,3.59,10.08,48.58,48.58,0,0,1,.27,5.4,1.81,1.81,0,0,1-3.62,0c-.06-1.29-.06-2.59-.18-3.87a22,22,0,0,0-2.73-8.76,23.29,23.29,0,0,0-13.83-11.38,23.89,23.89,0,0,0-8.24-1,1.83,1.83,0,0,1-.17-3.65C170.46,143.53,171.19,143.54,171.91,143.54Z"/><path class="cls-9" d="M171.68,150.34A20.05,20.05,0,0,1,187,157.79a19.06,19.06,0,0,1,4.32,9.67,32.17,32.17,0,0,1,.26,4.5,1.79,1.79,0,0,1-2,1.88,1.73,1.73,0,0,1-1.66-1.79,20.1,20.1,0,0,0-.29-4.65A16.48,16.48,0,0,0,176.91,155a15.73,15.73,0,0,0-6.73-1,1.87,1.87,0,0,1-2.09-1.71,1.85,1.85,0,0,1,1.89-1.93C170.55,150.32,171.11,150.34,171.68,150.34Z"/><path class="cls-9" d="M181.15,171a9.78,9.78,0,0,0-8.68-10,23.63,23.63,0,0,0-2.38,0,1.86,1.86,0,0,1-1.86-1.15,1.7,1.7,0,0,1,.44-2,2.3,2.3,0,0,1,1.13-.52,13.6,13.6,0,0,1,14.6,10,13.38,13.38,0,0,1,.39,5,1.82,1.82,0,0,1-3.64-.2Z"/><polygon class="cls-10" points="405.94 334.34 405.94 234.26 319.27 184.22 232.6 234.26 232.6 334.34 319.27 384.38 405.94 334.34"/><polygon class="cls-8" points="261.89 283.49 261.89 316.63 290.59 333.2 319.29 316.63 347.98 333.2 376.68 316.63 376.68 283.49 347.99 266.92 347.98 300.06 319.29 283.49 290.59 300.06 290.59 266.93 261.89 283.49"/></g></g></svg>