<svg version="1.1" viewBox="0.0 0.0 317.0 373.0" fill="none" stroke="none" stroke-linecap="square" stroke-miterlimit="10" xmlns:xlink="http://www.w3.org/1999/xlink" xmlns="http://www.w3.org/2000/svg"><clipPath id="p.0"><path d="m0 0l317.0 0l0 373.0l-317.0 0l0 -373.0z" clip-rule="nonzero"/></clipPath><g clip-path="url(#p.0)"><path fill="#000000" fill-opacity="0.0" d="m0 0l317.0 0l0 373.0l-317.0 0z" fill-rule="evenodd"/><path fill="#ffffff" d="m14.027559 362.94357l93.15624 -111.30708l195.78864 0l-93.156235 111.30708z" fill-rule="evenodd"/><path stroke="#000000" stroke-width="1.0" stroke-linejoin="round" stroke-linecap="round" d="m14.027559 362.94357l93.15624 -111.30708l195.78864 0l-93.156235 111.30708z" fill-rule="evenodd"/><path fill="#ffffff" d="m14.027559 125.36352l93.15624 -111.30708l195.78864 0l-93.156235 111.30708z" fill-rule="evenodd"/><path stroke="#000000" stroke-width="1.0" stroke-linejoin="round" stroke-linecap="round" d="m14.027559 125.36352l93.15624 -111.30708l195.78864 0l-93.156235 111.30708z" fill-rule="evenodd"/><path fill="#ffffff" d="m14.027559 244.15355l93.15624 -111.3071l195.78864 0l-93.156235 111.3071z" fill-rule="evenodd"/><path stroke="#000000" stroke-width="1.0" stroke-linejoin="round" stroke-linecap="round" d="m14.027559 244.15355l93.15624 -111.3071l195.78864 0l-93.156235 111.3071z" fill-rule="evenodd"/><defs><radialGradient id="p.1" gradientUnits="userSpaceOnUse" gradientTransform="matrix(3.862851771773742 0.0 0.0 3.862851771773742 0.0 0.0)" spreadMethod="pad" cx="28.87215921823072" cy="9.470041044986543" fx="28.87215921823072" fy="9.470041044986543" r="3.862851858139038"><stop offset="0.0" stop-color="#fa0171"/><stop offset="0.52" stop-color="#f1016e"/><stop offset="1.0" stop-color="#d20268"/></radialGradient></defs><path fill="url(#p.1)" d="m111.52887 41.856956l0 0c0 -2.9136276 2.3619614 -5.275593 5.275589 -5.275593l0 0c1.3991776 0 2.741043 0.55582047 3.7304077 1.5451851c0.9893646 0.9893646 1.5451889 2.331234 1.5451889 3.7304077l0 0c0 2.9136276 -2.3619614 5.275589 -5.2755966 5.275589l0 0c-2.9136276 0 -5.275589 -2.3619614 -5.275589 -5.275589z" fill-rule="evenodd"/><defs><radialGradient id="p.2" gradientUnits="userSpaceOnUse" gradientTransform="matrix(3.862851771773742 0.0 0.0 3.862851771773742 0.0 0.0)" spreadMethod="pad" cx="28.87215921823072" cy="39.26321483803192" fx="28.87215921823072" fy="39.26321483803192" r="3.862851858139038"><stop offset="0.0" stop-color="#fa0171"/><stop offset="0.52" stop-color="#f1016e"/><stop offset="1.0" stop-color="#d20268"/></radialGradient></defs><path fill="url(#p.2)" d="m111.52887 156.94357l0 0c0 -2.9136353 2.3619614 -5.275589 5.275589 -5.275589l0 0c1.3991776 0 2.741043 0.55581665 3.7304077 1.5451813c0.9893646 0.9893646 1.5451889 2.3312378 1.5451889 3.7304077l0 0c0 2.91362 -2.3619614 5.275589 -5.2755966 5.275589l0 0c-2.9136276 0 -5.275589 -2.361969 -5.275589 -5.275589z" fill-rule="evenodd"/><path fill="#000000" fill-opacity="0.0" d="m116.80446 162.21916l0 108.47243" fill-rule="evenodd"/><path stroke="#000000" stroke-width="1.0" stroke-linejoin="round" stroke-linecap="butt" stroke-dasharray="1.0,3.0" d="m116.80446 162.21916l0 108.47243" fill-rule="evenodd"/><defs><radialGradient id="p.3" gradientUnits="userSpaceOnUse" gradientTransform="matrix(3.862851771773742 0.0 0.0 3.862851771773742 0.0 0.0)" spreadMethod="pad" cx="50.37993889450007" cy="23.59271750203015" fx="50.37993889450007" fy="23.59271750203015" r="3.862851858139038"><stop offset="0.0" stop-color="#005dcf"/><stop offset="0.11" stop-color="#0067db"/><stop offset="1.0" stop-color="#003eac"/></radialGradient></defs><path fill="url(#p.3)" d="m194.61023 96.41076l0 0c0 -2.9136276 2.361969 -5.275589 5.2756042 -5.275589l0 0c1.3991699 0 2.7410278 0.55581665 3.7303925 1.5451889c0.9893646 0.9893646 1.5451965 2.3312302 1.5451965 3.7304l0 0c0 2.9136276 -2.361969 5.275589 -5.275589 5.275589l0 0c-2.9136353 0 -5.2756042 -2.3619614 -5.2756042 -5.275589z" fill-rule="evenodd"/><defs><radialGradient id="p.4" gradientUnits="userSpaceOnUse" gradientTransform="matrix(3.862851771773742 0.0 0.0 3.862851771773742 0.0 0.0)" spreadMethod="pad" cx="50.37993889450007" cy="54.66940035580949" fx="50.37993889450007" fy="54.66940035580949" r="3.862851858139038"><stop offset="0.0" stop-color="#fa0171"/><stop offset="0.52" stop-color="#f1016e"/><stop offset="1.0" stop-color="#d20268"/></radialGradient></defs><path fill="url(#p.4)" d="m194.61023 216.45538l0 0c0 -2.9136353 2.361969 -5.275589 5.2756042 -5.275589l0 0c1.3991699 0 2.7410278 0.55581665 3.7303925 1.5451813c0.9893646 0.9893646 1.5451965 2.3312378 1.5451965 3.7304077l0 0c0 2.91362 -2.361969 5.275589 -5.275589 5.275589l0 0c-2.9136353 0 -5.2756042 -2.361969 -5.2756042 -5.275589z" fill-rule="evenodd"/><path fill="#000000" fill-opacity="0.0" d="m199.88583 221.72572l0 108.47243" fill-rule="evenodd"/><path stroke="#000000" stroke-width="1.0" stroke-linejoin="round" stroke-linecap="butt" stroke-dasharray="1.0,3.0" d="m199.88583 221.72572l0 108.47243" fill-rule="evenodd"/><path fill="#000000" fill-opacity="0.0" d="m199.88583 102.70735l0 108.47244" fill-rule="evenodd"/><path stroke="#000000" stroke-width="1.0" stroke-linejoin="round" stroke-linecap="butt" stroke-dasharray="1.0,3.0" d="m199.88583 102.70735l0 108.47244" fill-rule="evenodd"/><path fill="#000000" fill-opacity="0.0" d="m196.15543 92.68036l-75.622055 -47.086617" fill-rule="evenodd"/><path stroke="#003eac" stroke-width="1.0" stroke-linejoin="round" stroke-linecap="butt" d="m196.15543 92.68035l-71.80205 -44.708054" fill-rule="evenodd"/><path fill="#003eac" stroke="#003eac" stroke-width="1.0" stroke-linecap="butt" d="m124.93786 47.03361l-3.1634903 -0.6671562l1.9945374 2.5445251z" fill-rule="evenodd"/><path fill="#000000" fill-opacity="0.0" d="m116.80446 47.132545l0 104.53544" fill-rule="evenodd"/><path stroke="#003eac" stroke-width="1.0" stroke-linejoin="round" stroke-linecap="butt" stroke-dasharray="1.0,3.0" d="m116.80446 47.132545l0 100.03544" fill-rule="evenodd"/><path fill="#003eac" stroke="#003eac" stroke-width="1.0" stroke-linecap="butt" d="m115.698685 147.16798l1.1057739 3.038086l1.1057816 -3.038086z" fill-rule="evenodd"/><defs><radialGradient id="p.5" gradientUnits="userSpaceOnUse" gradientTransform="matrix(3.862851771773742 0.0 0.0 3.862851771773742 0.0 0.0)" spreadMethod="pad" cx="44.80357104831499" cy="41.83566867812656" fx="44.80357104831499" fy="41.83566867812656" r="3.862851858139038"><stop offset="0.0" stop-color="#fa0171"/><stop offset="0.52" stop-color="#f1016e"/><stop offset="1.0" stop-color="#d20268"/></radialGradient></defs><path fill="url(#p.5)" d="m173.06955 166.88058l0 0c0 -2.9136353 2.361969 -5.2756042 5.275589 -5.2756042l0 0c1.3991852 0 2.741043 0.5558319 3.7304077 1.5451965c0.9893646 0.9893646 1.5451813 2.3312225 1.5451813 3.7304077l0 0c0 2.91362 -2.3619537 5.275589 -5.275589 5.275589l0 0c-2.91362 0 -5.275589 -2.361969 -5.275589 -5.275589z" fill-rule="evenodd"/><defs><radialGradient id="p.6" gradientUnits="userSpaceOnUse" gradientTransform="matrix(3.862851771773742 0.0 0.0 3.862851771773742 0.0 0.0)" spreadMethod="pad" cx="24.482136962327004" cy="54.66940035580949" fx="24.482136962327004" fy="54.66940035580949" r="3.862851858139038"><stop offset="0.0" stop-color="#fa0171"/><stop offset="0.52" stop-color="#f1016e"/><stop offset="1.0" stop-color="#d20268"/></radialGradient></defs><path fill="url(#p.6)" d="m94.57087 216.45538l0 0c0 -2.9136353 2.3619614 -5.275589 5.275589 -5.275589l0 0c1.3991699 0 2.7410355 0.55581665 3.7304077 1.5451813c0.9893646 0.9893646 1.5451813 2.3312378 1.5451813 3.7304077l0 0c0 2.91362 -2.3619614 5.275589 -5.275589 5.275589l0 0c-2.9136276 0 -5.275589 -2.361969 -5.275589 -5.275589z" fill-rule="evenodd"/><path fill="#000000" fill-opacity="0.0" d="m116.80446 162.21916l-16.0 48.97638" fill-rule="evenodd"/><path stroke="#434343" stroke-width="1.0" stroke-linejoin="round" stroke-linecap="butt" d="m116.80446 162.21916l-16.0 48.97638" fill-rule="evenodd"/><path fill="#000000" fill-opacity="0.0" d="m194.61023 216.45538l-89.48031 0" fill-rule="evenodd"/><path stroke="#434343" stroke-width="1.0" stroke-linejoin="round" stroke-linecap="butt" d="m194.61023 216.45538l-89.48031 0" fill-rule="evenodd"/><path fill="#000000" fill-opacity="0.0" d="m199.88583 211.1798l-17.795288 -40.56694" fill-rule="evenodd"/><path stroke="#434343" stroke-width="1.0" stroke-linejoin="round" stroke-linecap="butt" d="m199.88583 211.1798l-17.795288 -40.56694" fill-rule="evenodd"/><path fill="#000000" fill-opacity="0.0" d="m174.61475 170.61098l-71.02363 42.110245" fill-rule="evenodd"/><path stroke="#434343" stroke-width="1.0" stroke-linejoin="round" stroke-linecap="butt" d="m174.61475 170.61098l-71.02363 42.110245" fill-rule="evenodd"/><path fill="#000000" fill-opacity="0.0" d="m173.06955 166.88058l-50.99212 -9.921265" fill-rule="evenodd"/><path stroke="#003eac" stroke-width="1.0" stroke-linejoin="round" stroke-linecap="butt" d="m168.65239 166.02115l-46.57496 -9.061829" fill-rule="evenodd"/><path fill="#003eac" stroke="#003eac" stroke-width="1.0" stroke-linecap="butt" d="m168.4412 167.10658l3.1933746 -0.50520325l-2.770996 -1.6656494z" fill-rule="evenodd"/><defs><radialGradient id="p.7" gradientUnits="userSpaceOnUse" gradientTransform="matrix(3.862851771773742 0.0 0.0 3.862851771773742 0.0 0.0)" spreadMethod="pad" cx="28.87283868305906" cy="70.48122637610595" fx="28.87283868305906" fy="70.48122637610595" r="3.862851858139038"><stop offset="0.0" stop-color="#fa0171"/><stop offset="0.52" stop-color="#f1016e"/><stop offset="1.0" stop-color="#d20268"/></radialGradient></defs><path fill="url(#p.7)" d="m111.531494 277.53412l0 0c0 -2.9136353 2.3619614 -5.2755737 5.275589 -5.2755737l0 0c1.3991776 0 2.741043 0.55581665 3.7304077 1.545166c0.9893646 0.9893799 1.5451889 2.3312378 1.5451889 3.7304077l0 0c0 2.9136353 -2.3619614 5.2756042 -5.2755966 5.2756042l0 0c-2.9136276 0 -5.275589 -2.361969 -5.275589 -5.2756042z" fill-rule="evenodd"/><defs><radialGradient id="p.8" gradientUnits="userSpaceOnUse" gradientTransform="matrix(3.862851771773742 0.0 0.0 3.862851771773742 0.0 0.0)" spreadMethod="pad" cx="50.38061835932841" cy="85.88741189388351" fx="50.38061835932841" fy="85.88741189388351" r="3.862851858139038"><stop offset="0.0" stop-color="#fa0171"/><stop offset="0.52" stop-color="#f1016e"/><stop offset="1.0" stop-color="#d20268"/></radialGradient></defs><path fill="url(#p.8)" d="m194.61285 337.04593l0 0c0 -2.9136353 2.361969 -5.2755737 5.2756042 -5.2755737l0 0c1.3991699 0 2.7410278 0.55581665 3.7303925 1.545166c0.9893646 0.9893799 1.5451965 2.3312378 1.5451965 3.7304077l0 0c0 2.9136353 -2.361969 5.2756042 -5.275589 5.2756042l0 0c-2.9136353 0 -5.2756042 -2.361969 -5.2756042 -5.2756042z" fill-rule="evenodd"/><defs><radialGradient id="p.9" gradientUnits="userSpaceOnUse" gradientTransform="matrix(3.862851771773742 0.0 0.0 3.862851771773742 0.0 0.0)" spreadMethod="pad" cx="44.80425051314333" cy="73.05368021620059" fx="44.80425051314333" fy="73.05368021620059" r="3.862851858139038"><stop offset="0.0" stop-color="#fa0171"/><stop offset="0.52" stop-color="#f1016e"/><stop offset="1.0" stop-color="#d20268"/></radialGradient></defs><path fill="url(#p.9)" d="m173.07217 287.47113l0 0c0 -2.9136353 2.361969 -5.2756042 5.275589 -5.2756042l0 0c1.3991852 0 2.741043 0.55581665 3.7304077 1.5451965c0.9893646 0.9893799 1.5451813 2.3312378 1.5451813 3.7304077l0 0c0 2.9136353 -2.3619537 5.2755737 -5.275589 5.2755737l0 0c-2.91362 0 -5.275589 -2.3619385 -5.275589 -5.2755737z" fill-rule="evenodd"/><defs><radialGradient id="p.10" gradientUnits="userSpaceOnUse" gradientTransform="matrix(3.862851771773742 0.0 0.0 3.862851771773742 0.0 0.0)" spreadMethod="pad" cx="24.482816427155345" cy="85.88741189388351" fx="24.482816427155345" fy="85.88741189388351" r="3.862851858139038"><stop offset="0.0" stop-color="#fa0171"/><stop offset="0.52" stop-color="#f1016e"/><stop offset="1.0" stop-color="#d20268"/></radialGradient></defs><path fill="url(#p.10)" d="m94.573494 337.04593l0 0c0 -2.9136353 2.3619614 -5.2755737 5.275589 -5.2755737l0 0c1.3991699 0 2.7410355 0.55581665 3.7304077 1.545166c0.9893646 0.9893799 1.5451813 2.3312378 1.5451813 3.7304077l0 0c0 2.9136353 -2.3619614 5.2756042 -5.275589 5.2756042l0 0c-2.9136276 0 -5.275589 -2.361969 -5.275589 -5.2756042z" fill-rule="evenodd"/><path fill="#000000" fill-opacity="0.0" d="m116.80708 282.80972l-16.0 48.97638" fill-rule="evenodd"/><path stroke="#434343" stroke-width="1.0" stroke-linejoin="round" stroke-linecap="butt" d="m116.80708 282.80972l-16.0 48.97638" fill-rule="evenodd"/><path fill="#000000" fill-opacity="0.0" d="m153.07086 331.5761l-47.937004 5.480316" fill-rule="evenodd"/><path stroke="#434343" stroke-width="1.0" stroke-linejoin="round" stroke-linecap="butt" d="m153.07086 331.5761l-47.937004 5.480316" fill-rule="evenodd"/><path fill="#000000" fill-opacity="0.0" d="m187.35301 304.52362l-9.007874 -11.779541" fill-rule="evenodd"/><path stroke="#434343" stroke-width="1.0" stroke-linejoin="round" stroke-linecap="butt" d="m187.35301 304.52362l-9.007874 -11.779541" fill-rule="evenodd"/><path fill="#000000" fill-opacity="0.0" d="m99.84646 221.73097l0 110.04726" fill-rule="evenodd"/><path stroke="#000000" stroke-width="1.0" stroke-linejoin="round" stroke-linecap="butt" stroke-dasharray="1.0,3.0" d="m99.84646 221.73097l0 110.04726" fill-rule="evenodd"/><defs><radialGradient id="p.11" gradientUnits="userSpaceOnUse" gradientTransform="matrix(3.862851771773742 0.0 0.0 3.862851771773742 0.0 0.0)" spreadMethod="pad" cx="39.626388788779565" cy="84.47140719162329" fx="39.626388788779565" fy="84.47140719162329" r="3.862851858139038"><stop offset="0.0" stop-color="#fa0171"/><stop offset="0.52" stop-color="#f1016e"/><stop offset="1.0" stop-color="#d20268"/></radialGradient></defs><path fill="url(#p.11)" d="m153.07086 331.5761l0 0c0 -2.9136353 2.361969 -5.2755737 5.275589 -5.2755737l0 0c1.3991852 0 2.741043 0.55581665 3.7304077 1.545166c0.9893646 0.9893799 1.5451813 2.3312378 1.5451813 3.7304077l0 0c0 2.9136353 -2.3619537 5.2756042 -5.275589 5.2756042l0 0c-2.91362 0 -5.275589 -2.361969 -5.275589 -5.2756042z" fill-rule="evenodd"/><path fill="#000000" fill-opacity="0.0" d="m163.62204 331.5761l30.992126 5.480316" fill-rule="evenodd"/><path stroke="#434343" stroke-width="1.0" stroke-linejoin="round" stroke-linecap="butt" d="m163.62204 331.5761l30.992126 5.480316" fill-rule="evenodd"/><defs><radialGradient id="p.12" gradientUnits="userSpaceOnUse" gradientTransform="matrix(3.862851771773742 0.0 0.0 3.862851771773742 0.0 0.0)" spreadMethod="pad" cx="47.13549433917733" cy="78.83388751088762" fx="47.13549433917733" fy="78.83388751088762" r="3.862851858139038"><stop offset="0.0" stop-color="#fa0171"/><stop offset="0.52" stop-color="#f1016e"/><stop offset="1.0" stop-color="#d20268"/></radialGradient></defs><path fill="url(#p.12)" d="m182.07742 309.79922l0 0c0 -2.9136353 2.361969 -5.2756042 5.275589 -5.2756042l0 0c1.3991852 0 2.741043 0.55581665 3.7304077 1.5451965c0.9893646 0.98934937 1.5451965 2.3312073 1.5451965 3.7304077l0 0c0 2.9136047 -2.361969 5.2755737 -5.2756042 5.2755737l0 0c-2.91362 0 -5.275589 -2.361969 -5.275589 -5.2755737z" fill-rule="evenodd"/><defs><radialGradient id="p.13" gradientUnits="userSpaceOnUse" gradientTransform="matrix(3.862851771773742 0.0 0.0 3.862851771773742 0.0 0.0)" spreadMethod="pad" cx="37.32130435863665" cy="77.02073561646276" fx="37.32130435863665" fy="77.02073561646276" r="3.862851858139038"><stop offset="0.0" stop-color="#38d611"/><stop offset="1.0" stop-color="#00b800"/></radialGradient></defs><path fill="url(#p.13)" d="m144.16667 302.7953l0 0c0 -2.9136353 2.3619537 -5.2756042 5.275589 -5.2756042l0 0c1.3991699 0 2.741043 0.55581665 3.7304077 1.5451965c0.9893646 0.98934937 1.5451813 2.3312073 1.5451813 3.7304077l0 0c0 2.9136047 -2.361969 5.2755737 -5.275589 5.2755737l0 0c-2.9136353 0 -5.275589 -2.361969 -5.275589 -5.2755737z" fill-rule="evenodd"/><path fill="#000000" fill-opacity="0.0" d="m191.08342 313.52963l8.818909 18.236206" fill-rule="evenodd"/><path stroke="#434343" stroke-width="1.0" stroke-linejoin="round" stroke-linecap="butt" d="m191.08342 313.52963l8.818909 18.236206" fill-rule="evenodd"/><path fill="#000000" fill-opacity="0.0" d="m162.07686 327.8457l21.543304 -14.330688" fill-rule="evenodd"/><path stroke="#434343" stroke-width="1.0" stroke-linejoin="round" stroke-linecap="butt" d="m162.07686 327.8457l21.543304 -14.330688" fill-rule="evenodd"/><path fill="#000000" fill-opacity="0.0" d="m154.71785 302.7953l27.370071 6.9921265" fill-rule="evenodd"/><path stroke="#434343" stroke-width="1.0" stroke-linejoin="round" stroke-linecap="butt" d="m154.71785 302.7953l27.370071 6.9921265" fill-rule="evenodd"/><path fill="#000000" fill-opacity="0.0" d="m103.57949 333.31552l42.14173 -26.803131" fill-rule="evenodd"/><path stroke="#434343" stroke-width="1.0" stroke-linejoin="round" stroke-linecap="butt" d="m103.57949 333.31552l42.14173 -26.803131" fill-rule="evenodd"/><path fill="#000000" fill-opacity="0.0" d="m120.53749 281.26453l25.16536 17.795288" fill-rule="evenodd"/><path stroke="#434343" stroke-width="1.0" stroke-linejoin="round" stroke-linecap="butt" d="m120.53749 281.26453l25.16536 17.795288" fill-rule="evenodd"/><defs><radialGradient id="p.14" gradientUnits="userSpaceOnUse" gradientTransform="matrix(3.862851771773742 0.0 0.0 3.862851771773742 0.0 0.0)" spreadMethod="pad" cx="35.47316002555228" cy="69.91149511754298" fx="35.47316002555228" fy="69.91149511754298" r="3.862851858139038"><stop offset="0.0" stop-color="#fa0171"/><stop offset="0.52" stop-color="#f1016e"/><stop offset="1.0" stop-color="#d20268"/></radialGradient></defs><path fill="url(#p.14)" d="m137.02756 275.33334l0 0c0 -2.9136353 2.361969 -5.2756042 5.275589 -5.2756042l0 0c1.3991699 0 2.741043 0.55581665 3.7304077 1.5451965c0.9893646 0.98934937 1.5451813 2.3312378 1.5451813 3.7304077l0 0c0 2.9136047 -2.3619537 5.2755737 -5.275589 5.2755737l0 0c-2.91362 0 -5.275589 -2.361969 -5.275589 -5.2755737z" fill-rule="evenodd"/><path fill="#000000" fill-opacity="0.0" d="m122.08268 277.53412l14.960625 -2.204712" fill-rule="evenodd"/><path stroke="#434343" stroke-width="1.0" stroke-linejoin="round" stroke-linecap="butt" d="m122.08268 277.53412l14.960625 -2.204712" fill-rule="evenodd"/><path fill="#000000" fill-opacity="0.0" d="m173.07217 287.47113l-25.480316 -12.125977" fill-rule="evenodd"/><path stroke="#434343" stroke-width="1.0" stroke-linejoin="round" stroke-linecap="butt" d="m173.07217 287.47113l-25.480316 -12.125977" fill-rule="evenodd"/><path fill="#000000" fill-opacity="0.0" d="m142.30315 280.60892l7.1496124 16.913391" fill-rule="evenodd"/><path stroke="#434343" stroke-width="1.0" stroke-linejoin="round" stroke-linecap="butt" d="m142.30315 280.60892l7.1496124 16.913391" fill-rule="evenodd"/><path fill="#000000" fill-opacity="0.0" d="m153.17267 299.06488l21.448807 -7.8740234" fill-rule="evenodd"/><path stroke="#003eac" stroke-width="1.0" stroke-linejoin="round" stroke-linecap="butt" d="m157.397 297.5141l17.224472 -6.323242" fill-rule="evenodd"/><path fill="#003eac" stroke="#003eac" stroke-width="1.0" stroke-linecap="butt" d="m157.01593 296.47604l-2.4709167 2.085022l3.2330627 -0.00894165z" fill-rule="evenodd"/><path fill="#000000" fill-opacity="0.0" d="m178.34514 172.15617l0 110.047226" fill-rule="evenodd"/><path stroke="#003eac" stroke-width="1.0" stroke-linejoin="round" stroke-linecap="butt" stroke-dasharray="1.0,3.0" d="m178.34514 172.15617l0 105.547226" fill-rule="evenodd"/><path fill="#003eac" stroke="#003eac" stroke-width="1.0" stroke-linecap="butt" d="m177.23936 277.7034l1.1057739 3.0381165l1.1057892 -3.0381165z" fill-rule="evenodd"/><path fill="#000000" fill-opacity="0.0" d="m23.574802 336.85303l66.99213 0l0 29.984253l-66.99213 0z" fill-rule="evenodd"/><path fill="#000000" d="m33.465427 356.93552q0.46875 -0.0625 0.640625 -0.265625q0.171875 -0.21875 0.171875 -0.734375l0.015625 -5.046875q0 -0.375 -0.09375 -0.5q-0.09375 -0.140625 -0.359375 -0.140625q-0.109375 0 -0.234375 0.015625q-0.125 0 -0.171875 0l-0.015625 -0.046875l0.078125 -0.53125q0.140625 0.015625 0.53125 0.03125q0.40625 0.015625 0.8125 0.015625q0.328125 0 0.734375 -0.046875q0.421875 -0.046875 0.546875 -0.0625l-0.046875 0.53125q-0.390625 0.0625 -0.546875 0.171875q-0.140625 0.09375 -0.171875 0.25q-0.03125 0.140625 -0.0625 0.703125q-0.078125 1.015625 -0.125 2.328125q-0.03125 1.3125 -0.03125 2.296875q0 0.4375 0.078125 0.625q0.078125 0.1875 0.265625 0.25q0.203125 0.046875 0.6875 0.046875q0.71875 0 1.0625 -0.109375q0.34375 -0.125 0.515625 -0.46875q0.1875 -0.34375 0.328125 -1.125l0.53125 -0.046875l0.03125 0.046875q-0.03125 0.203125 -0.15625 0.875q-0.109375 0.671875 -0.1875 1.40625l-0.0625 0.078125q-0.359375 -0.03125 -1.453125 -0.078125q-1.078125 -0.03125 -1.78125 -0.03125q-0.5625 0 -1.03125 0.046875q-0.453125 0.046875 -0.578125 0.078125l0.078125 -0.5625zm9.66217 0.578125q-0.984375 0 -1.078125 -0.96875l-0.046875 -0.015625q-0.421875 0.4375 -0.78125 0.6875q-0.359375 0.25 -0.53125 0.25q-0.671875 0 -1.109375 -0.421875q-0.4375 -0.421875 -0.4375 -1.0625q0 -0.34375 0.171875 -0.609375q0.1875 -0.265625 0.46875 -0.359375l2.28125 -0.609375l0.015625 -0.53125q0 -0.609375 -0.28125 -0.9375q-0.265625 -0.34375 -0.78125 -0.34375q-0.328125 0 -0.703125 0.15625q-0.375 0.15625 -0.734375 0.453125l-0.0625 -0.046875l-0.140625 -0.515625q0.5625 -0.3125 1.125 -0.5625q0.578125 -0.265625 0.828125 -0.265625q0.78125 0 1.21875 0.40625q0.453125 0.40625 0.453125 1.140625q0 0.265625 -0.078125 1.078125q-0.140625 1.3125 -0.140625 1.671875q0 0.265625 0.125 0.421875q0.140625 0.140625 0.375 0.140625q0.1875 0 0.390625 -0.09375q0.203125 -0.09375 0.328125 -0.21875l0.171875 0.203125q-0.1875 0.296875 -0.46875 0.578125q-0.28125 0.28125 -0.578125 0.375zm-2.234375 -0.859375q0.21875 0 0.53125 -0.15625q0.3125 -0.171875 0.5625 -0.421875l0.0625 -1.21875l-1.640625 0.484375q-0.34375 0.109375 -0.34375 0.5q0 0.359375 0.234375 0.59375q0.234375 0.21875 0.59375 0.21875zm3.5671692 3.609375q-0.09375 0 -0.3125 -0.28125q-0.21875 -0.28125 -0.21875 -0.40625l0.0625 -0.078125q0.671875 0 1.25 -0.5625q0.578125 -0.546875 1.0 -1.5625q-0.921875 -2.921875 -1.484375 -4.421875q-0.109375 -0.296875 -0.3125 -0.421875q-0.1875 -0.140625 -0.5 -0.140625l-0.03125 -0.0625l0.078125 -0.390625l0.984375 0.015625q0.453125 0 0.890625 -0.03125q0.4375 -0.046875 0.5625 -0.0625l0.015625 0.0625l-0.0625 0.375q-0.421875 0.015625 -0.5625 0.078125q-0.125 0.0625 -0.125 0.234375q0 0.1875 0.234375 1.0q0.234375 0.796875 0.484375 1.59375q0.25 0.796875 0.328125 1.046875l0.046875 0q1.390625 -3.296875 1.390625 -3.59375q0 -0.3125 -0.453125 -0.3125l-0.5625 0l-0.015625 -0.046875l0.0625 -0.390625q0.109375 0.015625 0.484375 0.03125q0.375 0.015625 0.75 0.015625l1.015625 -0.015625l-0.078125 0.453125q-0.265625 0.046875 -0.40625 0.1875q-0.140625 0.125 -0.265625 0.484375l-1.53125 3.65625q-0.625 1.515625 -1.03125 2.234375q-0.390625 0.734375 -0.78125 1.03125q-0.375 0.296875 -0.90625 0.28125zm7.675659 -2.75q-0.75 0 -1.328125 -0.328125q-0.5625 -0.328125 -0.875 -0.9375q-0.3125 -0.609375 -0.3125 -1.390625q0 -0.796875 0.359375 -1.5q0.359375 -0.71875 0.96875 -1.125q0.625 -0.421875 1.3125 -0.421875q0.875 0 1.328125 0.4375q0.46875 0.4375 0.46875 1.296875q0 0.34375 -0.078125 0.59375l-0.15625 0.140625l-3.3125 0q-0.015625 1.15625 0.453125 1.796875q0.484375 0.625 1.34375 0.625q0.671875 0 1.453125 -0.375l0.078125 0.03125l0.125 0.34375q-0.421875 0.3125 -0.953125 0.5625q-0.515625 0.25 -0.875 0.25zm0.59375 -3.78125q0.1875 -0.03125 0.25 -0.09375q0.0625 -0.0625 0.0625 -0.234375q0 -0.484375 -0.265625 -0.734375q-0.25 -0.25 -0.734375 -0.25q-0.5625 0 -0.96875 0.390625q-0.40625 0.375 -0.515625 1.015625l2.171875 -0.09375zm2.5322876 3.203125q0.359375 -0.03125 0.484375 -0.21875q0.125 -0.203125 0.125 -0.765625l0 -2.640625q0 -0.40625 -0.109375 -0.5625q-0.109375 -0.171875 -0.34375 -0.171875q-0.109375 0 -0.171875 0.015625q-0.0625 0 -0.09375 0.015625l-0.046875 -0.078125l0.03125 -0.375q0.453125 -0.078125 0.953125 -0.203125q0.515625 -0.125 0.671875 -0.15625l0.078125 0.0625q-0.03125 0.109375 -0.078125 0.5q-0.046875 0.390625 -0.03125 0.75l0.046875 0.03125q0.359375 -0.5625 0.84375 -0.921875q0.484375 -0.359375 0.84375 -0.359375q0.171875 0 0.265625 0.015625q0.09375 0.015625 0.109375 0.03125l0.03125 0.046875q-0.015625 0.171875 -0.09375 0.71875q-0.078125 0.546875 -0.09375 1.0l-0.46875 0.03125q0 -0.484375 -0.0625 -0.640625q-0.0625 -0.171875 -0.25 -0.171875q-0.265625 0 -0.578125 0.21875q-0.296875 0.21875 -0.546875 0.59375q-0.015625 0.34375 -0.046875 1.15625q-0.03125 0.796875 -0.046875 1.296875q0 0.40625 0.109375 0.546875q0.125 0.140625 0.46875 0.140625q0.15625 0 0.3125 0q0.15625 -0.015625 0.21875 -0.015625l0 0.046875l-0.109375 0.53125q-0.109375 0 -0.46875 -0.015625q-0.359375 -0.015625 -0.75 -0.015625q-0.4375 0 -0.796875 0.015625q-0.359375 0.015625 -0.46875 0.03125l0.0625 -0.484375zm9.30019 0.578125q-0.7656288 0 -1.3437538 -0.359375q-0.578125 -0.375 -0.90625 -1.046875q-0.328125 -0.671875 -0.328125 -1.546875q0 -0.9375 0.375 -1.671875q0.390625 -0.734375 1.046875 -1.15625q0.6718788 -0.421875 1.5000038 -0.421875q0.734375 0 1.328125 0.375q0.59375 0.359375 0.90625 1.015625q0.328125 0.65625 0.328125 1.515625q0 0.9375 -0.375 1.703125q-0.375 0.75 -1.046875 1.171875q-0.65625 0.421875 -1.484375 0.421875zm0.21875 -0.90625q0.90625 0 1.453125 -0.5625q0.5625 -0.578125 0.5625 -1.484375q0 -0.671875 -0.28125 -1.1875q-0.265625 -0.515625 -0.75 -0.796875q-0.484375 -0.296875 -1.109375 -0.296875q-0.9062538 0 -1.4531288 0.578125q-0.546875 0.5625 -0.546875 1.515625q0 0.640625 0.265625 1.15625q0.28125 0.515625 0.75 0.796875q0.4843788 0.28125 1.1093788 0.28125z" fill-rule="nonzero"/><path fill="#000000" fill-opacity="0.0" d="m23.574802 216.11679l66.99213 0l0 29.984253l-66.99213 0z" fill-rule="evenodd"/><path fill="#000000" d="m33.465427 236.1993q0.46875 -0.0625 0.640625 -0.265625q0.171875 -0.21875 0.171875 -0.734375l0.015625 -5.046875q0 -0.375 -0.09375 -0.5q-0.09375 -0.140625 -0.359375 -0.140625q-0.109375 0 -0.234375 0.015625q-0.125 0 -0.171875 0l-0.015625 -0.046875l0.078125 -0.53125q0.140625 0.015625 0.53125 0.03125q0.40625 0.015625 0.8125 0.015625q0.328125 0 0.734375 -0.046875q0.421875 -0.046875 0.546875 -0.0625l-0.046875 0.53125q-0.390625 0.0625 -0.546875 0.171875q-0.140625 0.09375 -0.171875 0.25q-0.03125 0.140625 -0.0625 0.703125q-0.078125 1.015625 -0.125 2.328125q-0.03125 1.3125 -0.03125 2.296875q0 0.4375 0.078125 0.625q0.078125 0.1875 0.265625 0.25q0.203125 0.046875 0.6875 0.046875q0.71875 0 1.0625 -0.109375q0.34375 -0.125 0.515625 -0.46875q0.1875 -0.34375 0.328125 -1.125l0.53125 -0.046875l0.03125 0.046875q-0.03125 0.203125 -0.15625 0.875q-0.109375 0.671875 -0.1875 1.40625l-0.0625 0.078125q-0.359375 -0.03125 -1.453125 -0.078125q-1.078125 -0.03125 -1.78125 -0.03125q-0.5625 0 -1.03125 0.046875q-0.453125 0.046875 -0.578125 0.078125l0.078125 -0.5625zm9.66217 0.578125q-0.984375 0 -1.078125 -0.96875l-0.046875 -0.015625q-0.421875 0.4375 -0.78125 0.6875q-0.359375 0.25 -0.53125 0.25q-0.671875 0 -1.109375 -0.421875q-0.4375 -0.421875 -0.4375 -1.0625q0 -0.34375 0.171875 -0.609375q0.1875 -0.265625 0.46875 -0.359375l2.28125 -0.609375l0.015625 -0.53125q0 -0.609375 -0.28125 -0.9375q-0.265625 -0.34375 -0.78125 -0.34375q-0.328125 0 -0.703125 0.15625q-0.375 0.15625 -0.734375 0.453125l-0.0625 -0.046875l-0.140625 -0.515625q0.5625 -0.3125 1.125 -0.5625q0.578125 -0.265625 0.828125 -0.265625q0.78125 0 1.21875 0.40625q0.453125 0.40625 0.453125 1.140625q0 0.265625 -0.078125 1.078125q-0.140625 1.3125 -0.140625 1.671875q0 0.265625 0.125 0.421875q0.140625 0.140625 0.375 0.140625q0.1875 0 0.390625 -0.09375q0.203125 -0.09375 0.328125 -0.21875l0.171875 0.203125q-0.1875 0.296875 -0.46875 0.578125q-0.28125 0.28125 -0.578125 0.375zm-2.234375 -0.859375q0.21875 0 0.53125 -0.15625q0.3125 -0.171875 0.5625 -0.421875l0.0625 -1.21875l-1.640625 0.484375q-0.34375 0.109375 -0.34375 0.5q0 0.359375 0.234375 0.59375q0.234375 0.21875 0.59375 0.21875zm3.5671692 3.609375q-0.09375 0 -0.3125 -0.28125q-0.21875 -0.28125 -0.21875 -0.40625l0.0625 -0.078125q0.671875 0 1.25 -0.5625q0.578125 -0.546875 1.0 -1.5625q-0.921875 -2.921875 -1.484375 -4.421875q-0.109375 -0.296875 -0.3125 -0.421875q-0.1875 -0.140625 -0.5 -0.140625l-0.03125 -0.0625l0.078125 -0.390625l0.984375 0.015625q0.453125 0 0.890625 -0.03125q0.4375 -0.046875 0.5625 -0.0625l0.015625 0.0625l-0.0625 0.375q-0.421875 0.015625 -0.5625 0.078125q-0.125 0.0625 -0.125 0.234375q0 0.1875 0.234375 1.0q0.234375 0.796875 0.484375 1.59375q0.25 0.796875 0.328125 1.046875l0.046875 0q1.390625 -3.296875 1.390625 -3.59375q0 -0.3125 -0.453125 -0.3125l-0.5625 0l-0.015625 -0.046875l0.0625 -0.390625q0.109375 0.015625 0.484375 0.03125q0.375 0.015625 0.75 0.015625l1.015625 -0.015625l-0.078125 0.453125q-0.265625 0.046875 -0.40625 0.1875q-0.140625 0.125 -0.265625 0.484375l-1.53125 3.65625q-0.625 1.515625 -1.03125 2.234375q-0.390625 0.734375 -0.78125 1.03125q-0.375 0.296875 -0.90625 0.28125zm7.675659 -2.75q-0.75 0 -1.328125 -0.328125q-0.5625 -0.328125 -0.875 -0.9375q-0.3125 -0.609375 -0.3125 -1.390625q0 -0.796875 0.359375 -1.5q0.359375 -0.71875 0.96875 -1.125q0.625 -0.421875 1.3125 -0.421875q0.875 0 1.328125 0.4375q0.46875 0.4375 0.46875 1.296875q0 0.34375 -0.078125 0.59375l-0.15625 0.140625l-3.3125 0q-0.015625 1.15625 0.453125 1.796875q0.484375 0.625 1.34375 0.625q0.671875 0 1.453125 -0.375l0.078125 0.03125l0.125 0.34375q-0.421875 0.3125 -0.953125 0.5625q-0.515625 0.25 -0.875 0.25zm0.59375 -3.78125q0.1875 -0.03125 0.25 -0.09375q0.0625 -0.0625 0.0625 -0.234375q0 -0.484375 -0.265625 -0.734375q-0.25 -0.25 -0.734375 -0.25q-0.5625 0 -0.96875 0.390625q-0.40625 0.375 -0.515625 1.015625l2.171875 -0.09375zm2.5322876 3.203125q0.359375 -0.03125 0.484375 -0.21875q0.125 -0.203125 0.125 -0.765625l0 -2.640625q0 -0.40625 -0.109375 -0.5625q-0.109375 -0.171875 -0.34375 -0.171875q-0.109375 0 -0.171875 0.015625q-0.0625 0 -0.09375 0.015625l-0.046875 -0.078125l0.03125 -0.375q0.453125 -0.078125 0.953125 -0.203125q0.515625 -0.125 0.671875 -0.15625l0.078125 0.0625q-0.03125 0.109375 -0.078125 0.5q-0.046875 0.390625 -0.03125 0.75l0.046875 0.03125q0.359375 -0.5625 0.84375 -0.921875q0.484375 -0.359375 0.84375 -0.359375q0.171875 0 0.265625 0.015625q0.09375 0.015625 0.109375 0.03125l0.03125 0.046875q-0.015625 0.171875 -0.09375 0.71875q-0.078125 0.546875 -0.09375 1.0l-0.46875 0.03125q0 -0.484375 -0.0625 -0.640625q-0.0625 -0.171875 -0.25 -0.171875q-0.265625 0 -0.578125 0.21875q-0.296875 0.21875 -0.546875 0.59375q-0.015625 0.34375 -0.046875 1.15625q-0.03125 0.796875 -0.046875 1.296875q0 0.40625 0.109375 0.546875q0.125 0.140625 0.46875 0.140625q0.15625 0 0.3125 0q0.15625 -0.015625 0.21875 -0.015625l0 0.046875l-0.109375 0.53125q-0.109375 0 -0.46875 -0.015625q-0.359375 -0.015625 -0.75 -0.015625q-0.4375 0 -0.796875 0.015625q-0.359375 0.015625 -0.46875 0.03125l0.0625 -0.484375zm6.925186 0.03125q0.453125 -0.03125 0.6875 -0.15625q0.234375 -0.125 0.3125 -0.390625q0.078125 -0.28125 0.078125 -0.828125l0 -2.734375q0 -0.421875 -0.15625 -0.546875q-0.140625 -0.140625 -0.484375 -0.140625q-0.15625 0 -0.375 0.03125q-0.203125 0.03125 -0.265625 0.046875l-0.03125 -0.03125l0.046875 -0.5q0.125 -0.015625 0.484375 -0.0625q0.359375 -0.046875 0.828125 -0.125q0.9687538 -0.15625 1.0781288 -0.1875q0.125 -0.03125 0.140625 -0.03125l0.078125 0.203125q-0.25 0.203125 -0.34375 0.40625q-0.078125 0.203125 -0.109375 0.609375q-0.0625 1.90625 -0.0625 3.5q0 0.484375 0.109375 0.65625q0.125 0.15625 0.46875 0.15625q0.21875 0 0.390625 0q0.1875 -0.015625 0.25 -0.03125l0.015625 0.046875l-0.09375 0.546875q-0.171875 0 -0.640625 -0.015625q-0.46875 -0.015625 -0.9687538 -0.015625q-0.375 0 -0.875 0.0625q-0.484375 0.0625 -0.625 0.078125l0.0625 -0.546875z" fill-rule="nonzero"/><path fill="#000000" fill-opacity="0.0" d="m23.574802 95.38058l87.968506 0l0 29.984253l-87.968506 0z" fill-rule="evenodd"/><path fill="#000000" d="m33.465427 115.46308q0.46875 -0.0625 0.640625 -0.265625q0.171875 -0.21875 0.171875 -0.734375l0.015625 -5.046875q0 -0.375 -0.09375 -0.5q-0.09375 -0.140625 -0.359375 -0.140625q-0.109375 0 -0.234375 0.015625q-0.125 0 -0.171875 0l-0.015625 -0.046875l0.078125 -0.53125q0.140625 0.015625 0.53125 0.03125q0.40625 0.015625 0.8125 0.015625q0.328125 0 0.734375 -0.046875q0.421875 -0.046875 0.546875 -0.0625l-0.046875 0.53125q-0.390625 0.0625 -0.546875 0.171875q-0.140625 0.09375 -0.171875 0.25q-0.03125 0.140625 -0.0625 0.703125q-0.078125 1.015625 -0.125 2.328125q-0.03125 1.3125 -0.03125 2.296875q0 0.4375 0.078125 0.625q0.078125 0.1875 0.265625 0.25q0.203125 0.046875 0.6875 0.046875q0.71875 0 1.0625 -0.109375q0.34375 -0.125 0.515625 -0.46875q0.1875 -0.34375 0.328125 -1.125l0.53125 -0.046875l0.03125 0.046875q-0.03125 0.203125 -0.15625 0.875q-0.109375 0.671875 -0.1875 1.40625l-0.0625 0.078125q-0.359375 -0.03125 -1.453125 -0.078125q-1.078125 -0.03125 -1.78125 -0.03125q-0.5625 0 -1.03125 0.046875q-0.453125 0.046875 -0.578125 0.078125l0.078125 -0.5625zm9.66217 0.578125q-0.984375 0 -1.078125 -0.96875l-0.046875 -0.015625q-0.421875 0.4375 -0.78125 0.6875q-0.359375 0.25 -0.53125 0.25q-0.671875 0 -1.109375 -0.421875q-0.4375 -0.421875 -0.4375 -1.0625q0 -0.34375 0.171875 -0.609375q0.1875 -0.265625 0.46875 -0.359375l2.28125 -0.609375l0.015625 -0.53125q0 -0.609375 -0.28125 -0.9375q-0.265625 -0.34375 -0.78125 -0.34375q-0.328125 0 -0.703125 0.15625q-0.375 0.15625 -0.734375 0.453125l-0.0625 -0.046875l-0.140625 -0.515625q0.5625 -0.3125 1.125 -0.5625q0.578125 -0.265625 0.828125 -0.265625q0.78125 0 1.21875 0.40625q0.453125 0.40625 0.453125 1.140625q0 0.265625 -0.078125 1.078125q-0.140625 1.3125 -0.140625 1.671875q0 0.265625 0.125 0.421875q0.140625 0.140625 0.375 0.140625q0.1875 0 0.390625 -0.09375q0.203125 -0.09375 0.328125 -0.21875l0.171875 0.203125q-0.1875 0.296875 -0.46875 0.578125q-0.28125 0.28125 -0.578125 0.375zm-2.234375 -0.859375q0.21875 0 0.53125 -0.15625q0.3125 -0.171875 0.5625 -0.421875l0.0625 -1.21875l-1.640625 0.484375q-0.34375 0.109375 -0.34375 0.5q0 0.359375 0.234375 0.59375q0.234375 0.21875 0.59375 0.21875zm3.5671692 3.609375q-0.09375 0 -0.3125 -0.28125q-0.21875 -0.28125 -0.21875 -0.40625l0.0625 -0.078125q0.671875 0 1.25 -0.5625q0.578125 -0.546875 1.0 -1.5625q-0.921875 -2.921875 -1.484375 -4.421875q-0.109375 -0.296875 -0.3125 -0.421875q-0.1875 -0.140625 -0.5 -0.140625l-0.03125 -0.0625l0.078125 -0.390625l0.984375 0.015625q0.453125 0 0.890625 -0.03125q0.4375 -0.046875 0.5625 -0.0625l0.015625 0.0625l-0.0625 0.375q-0.421875 0.015625 -0.5625 0.078125q-0.125 0.0625 -0.125 0.234375q0 0.1875 0.234375 1.0q0.234375 0.796875 0.484375 1.59375q0.25 0.796875 0.328125 1.046875l0.046875 0q1.390625 -3.296875 1.390625 -3.59375q0 -0.3125 -0.453125 -0.3125l-0.5625 0l-0.015625 -0.046875l0.0625 -0.390625q0.109375 0.015625 0.484375 0.03125q0.375 0.015625 0.75 0.015625l1.015625 -0.015625l-0.078125 0.453125q-0.265625 0.046875 -0.40625 0.1875q-0.140625 0.125 -0.265625 0.484375l-1.53125 3.65625q-0.625 1.515625 -1.03125 2.234375q-0.390625 0.734375 -0.78125 1.03125q-0.375 0.296875 -0.90625 0.28125zm7.675659 -2.75q-0.75 0 -1.328125 -0.328125q-0.5625 -0.328125 -0.875 -0.9375q-0.3125 -0.609375 -0.3125 -1.390625q0 -0.796875 0.359375 -1.5q0.359375 -0.71875 0.96875 -1.125q0.625 -0.421875 1.3125 -0.421875q0.875 0 1.328125 0.4375q0.46875 0.4375 0.46875 1.296875q0 0.34375 -0.078125 0.59375l-0.15625 0.140625l-3.3125 0q-0.015625 1.15625 0.453125 1.796875q0.484375 0.625 1.34375 0.625q0.671875 0 1.453125 -0.375l0.078125 0.03125l0.125 0.34375q-0.421875 0.3125 -0.953125 0.5625q-0.515625 0.25 -0.875 0.25zm0.59375 -3.78125q0.1875 -0.03125 0.25 -0.09375q0.0625 -0.0625 0.0625 -0.234375q0 -0.484375 -0.265625 -0.734375q-0.25 -0.25 -0.734375 -0.25q-0.5625 0 -0.96875 0.390625q-0.40625 0.375 -0.515625 1.015625l2.171875 -0.09375zm2.5322876 3.203125q0.359375 -0.03125 0.484375 -0.21875q0.125 -0.203125 0.125 -0.765625l0 -2.640625q0 -0.40625 -0.109375 -0.5625q-0.109375 -0.171875 -0.34375 -0.171875q-0.109375 0 -0.171875 0.015625q-0.0625 0 -0.09375 0.015625l-0.046875 -0.078125l0.03125 -0.375q0.453125 -0.078125 0.953125 -0.203125q0.515625 -0.125 0.671875 -0.15625l0.078125 0.0625q-0.03125 0.109375 -0.078125 0.5q-0.046875 0.390625 -0.03125 0.75l0.046875 0.03125q0.359375 -0.5625 0.84375 -0.921875q0.484375 -0.359375 0.84375 -0.359375q0.171875 0 0.265625 0.015625q0.09375 0.015625 0.109375 0.03125l0.03125 0.046875q-0.015625 0.171875 -0.09375 0.71875q-0.078125 0.546875 -0.09375 1.0l-0.46875 0.03125q0 -0.484375 -0.0625 -0.640625q-0.0625 -0.171875 -0.25 -0.171875q-0.265625 0 -0.578125 0.21875q-0.296875 0.21875 -0.546875 0.59375q-0.015625 0.34375 -0.046875 1.15625q-0.03125 0.796875 -0.046875 1.296875q0 0.40625 0.109375 0.546875q0.125 0.140625 0.46875 0.140625q0.15625 0 0.3125 0q0.15625 -0.015625 0.21875 -0.015625l0 0.046875l-0.109375 0.53125q-0.109375 0 -0.46875 -0.015625q-0.359375 -0.015625 -0.75 -0.015625q-0.4375 0 -0.796875 0.015625q-0.359375 0.015625 -0.46875 0.03125l0.0625 -0.484375zm7.534561 -0.6875q1.015625 -1.140625 1.4843788 -1.921875q0.484375 -0.796875 0.484375 -1.296875q0 -0.4375 -0.25 -0.671875q-0.234375 -0.234375 -0.6562538 -0.234375q-0.40625 0 -0.8125 0.28125q-0.390625 0.28125 -0.65625 0.78125l-0.109375 0l-0.140625 -0.546875q0.296875 -0.5625 0.875 -0.9375q0.578125 -0.390625 1.1562538 -0.390625q0.75 0 1.1875 0.40625q0.453125 0.390625 0.453125 1.03125q0 0.359375 -0.234375 0.828125q-0.234375 0.453125 -0.78125 1.15625q-0.53125 0.703125 -1.5312538 1.828125l0.046875 0.078125l1.8281288 0q0.453125 0 0.6875 -0.078125q0.25 -0.09375 0.390625 -0.3125q0.15625 -0.234375 0.265625 -0.703125l0.484375 -0.0625q-0.046875 0.171875 -0.171875 0.765625q-0.125 0.578125 -0.171875 1.125l-0.15625 0.078125q-0.453125 0 -1.828125 -0.046875q-1.3750038 -0.03125 -2.0156288 -0.03125l-0.65625 0.140625l-0.109375 -0.21875l0.9375 -1.046875zm9.716694 2.875q0 0.09375 -0.625 -0.34375q-0.609375 -0.421875 -1.109375 -1.25q-0.484375 -0.8125 -0.484375 -2.109375l0 -2.078125q0 -1.3125 0.5 -2.140625q0.5 -0.84375 1.125 -1.265625q0.625 -0.4375 0.625 -0.34375l0.046875 0l0.15625 0.34375l-0.015625 0.046875q0 -0.078125 -0.453125 0.296875q-0.453125 0.359375 -0.828125 1.078125q-0.359375 0.703125 -0.359375 1.796875l0 2.078125q0 1.1875 0.375 1.96875q0.390625 0.78125 0.859375 1.203125q0.484375 0.421875 0.484375 0.34375l0 0.0625l-0.25 0.3125l-0.046875 0zm2.8625183 -1.609375q-0.8125 0 -1.15625 -0.328125q-0.328125 -0.328125 -0.328125 -1.125l0 -2.953125q0 -0.3125 -0.140625 -0.4375q-0.140625 -0.140625 -0.546875 -0.15625l-0.046875 -0.078125l0.0625 -0.359375q0.34375 -0.15625 0.671875 -0.40625q0.328125 -0.25 0.53125 -0.4375q0.21875 -0.1875 0.28125 -0.25l0.25 0.109375q-0.015625 0.046875 -0.046875 0.28125q-0.015625 0.234375 -0.0625 0.609375l1.765625 -0.03125l0.046875 0.03125l-0.109375 0.640625l-1.75 -0.03125q-0.078125 1.3125 -0.078125 3.0q0 0.609375 0.203125 0.859375q0.21875 0.25 0.734375 0.25q0.171875 0 0.34375 -0.046875q0.1875 -0.046875 0.3125 -0.09375q0.125 -0.0625 0.15625 -0.078125l0.125 0.3125q-0.078125 0.0625 -0.3125 0.234375q-0.234375 0.15625 -0.5 0.328125q-0.265625 0.15625 -0.40625 0.15625zm4.256897 0q-0.6875 0 -1.21875 -0.328125q-0.53125 -0.34375 -0.828125 -0.9375q-0.28125 -0.609375 -0.28125 -1.390625q0 -0.84375 0.359375 -1.546875q0.359375 -0.703125 1.0 -1.09375q0.640625 -0.40625 1.421875 -0.40625q0.671875 0 1.203125 0.34375q0.53125 0.328125 0.828125 0.9375q0.296875 0.59375 0.296875 1.375q0 0.84375 -0.375 1.546875q-0.359375 0.703125 -1.0 1.109375q-0.625 0.390625 -1.40625 0.390625zm0.328125 -0.578125q0.671875 0 1.0625 -0.546875q0.40625 -0.546875 0.40625 -1.484375q0 -0.71875 -0.21875 -1.265625q-0.21875 -0.5625 -0.609375 -0.875q-0.390625 -0.3125 -0.875 -0.3125q-0.671875 0 -1.078125 0.5625q-0.390625 0.546875 -0.390625 1.484375q0 0.71875 0.21875 1.265625q0.21875 0.546875 0.59375 0.859375q0.390625 0.3125 0.890625 0.3125zm3.4760437 2.8125q0.265625 -0.03125 0.390625 -0.109375q0.125 -0.0625 0.171875 -0.234375q0.0625 -0.171875 0.0625 -0.515625q0 -0.5 0 -0.875l0.015625 -1.125l0 -3.578125q0 -0.40625 -0.140625 -0.5625q-0.125 -0.15625 -0.453125 -0.15625l-0.125 0l-0.03125 -0.0625l0.03125 -0.390625q0.515625 -0.078125 1.015625 -0.1875q0.515625 -0.125 0.671875 -0.15625l0.0625 0.09375q-0.015625 0.0625 -0.0625 0.265625q-0.03125 0.1875 -0.0625 0.375l0.0625 0.09375q1.125 -0.78125 1.390625 -0.78125q0.671875 0 1.203125 0.328125q0.53125 0.3125 0.8125 0.890625q0.296875 0.5625 0.296875 1.3125q0 0.859375 -0.40625 1.578125q-0.40625 0.71875 -1.09375 1.140625q-0.6875 0.421875 -1.484375 0.421875q-0.265625 0 -0.53125 -0.015625q-0.25 -0.015625 -0.34375 -0.03125l0 1.234375q0 0.5625 0.109375 0.75q0.125 0.203125 0.453125 0.203125l0.421875 -0.015625l0.015625 0.03125l-0.09375 0.46875l-1.140625 0q-0.4375 0 -0.8125 0.03125q-0.359375 0.03125 -0.453125 0.046875l0.046875 -0.46875zm2.65625 -2.890625q0.8125 0 1.265625 -0.546875q0.46875 -0.546875 0.46875 -1.5q0 -0.59375 -0.21875 -1.078125q-0.203125 -0.5 -0.578125 -0.78125q-0.359375 -0.296875 -0.796875 -0.296875q-0.234375 0 -0.59375 0.171875q-0.34375 0.15625 -0.65625 0.421875q-0.09375 1.5625 -0.09375 3.375q0.25 0.109375 0.578125 0.171875q0.328125 0.0625 0.625 0.0625zm3.2266693 1.921875l0.015625 -0.046875q0 0.0625 0.453125 -0.296875q0.453125 -0.359375 0.8125 -1.0625q0.375 -0.71875 0.375 -1.828125l0 -2.078125q0 -1.1875 -0.390625 -1.953125q-0.375 -0.78125 -0.859375 -1.203125q-0.46875 -0.421875 -0.46875 -0.359375l0 -0.046875l0.265625 -0.3125l0.046875 0q0 -0.09375 0.609375 0.34375q0.625 0.421875 1.109375 1.25q0.5 0.8125 0.5 2.109375l0 2.078125q0 1.296875 -0.515625 2.125q-0.5 0.84375 -1.125 1.28125q-0.625 0.4375 -0.625 0.34375l-0.046875 0l-0.15625 -0.34375z" fill-rule="nonzero"/></g></svg>